<svg xmlns="http://www.w3.org/2000/svg" viewBox="0 0 500 500"><g id="background-complete"><rect x="85.62" y="131.98" width="42.75" height="135.47" style="fill:#f5f5f5"></rect><rect x="106.99" y="131.98" width="21.37" height="135.1" style="fill:#ebebeb"></rect><rect x="90.5" y="118.68" width="15.09" height="13.3" style="fill:#f5f5f5"></rect><rect x="102" y="118.68" width="3.6" height="13.3" style="fill:#ebebeb"></rect><polyline points="82.06 131.98 82.06 131.21 129.61 131.21 129.61 131.98" style="fill:#e0e0e0"></polyline><rect x="94.06" y="137.78" width="3.62" height="7.63" style="fill:#fafafa"></rect><path d="M107,148.4c0,.09-4.78.15-10.69.15s-10.68-.06-10.68-.15,4.78-.14,10.68-.14S107,148.32,107,148.4Z" style="fill:#e0e0e0"></path><rect x="115.61" y="137.78" width="3.62" height="7.63" style="fill:#e0e0e0"></rect><path d="M128.55,148.4c0,.09-4.79.15-10.69.15s-10.68-.06-10.68-.15,4.78-.14,10.68-.14S128.55,148.32,128.55,148.4Z" style="fill:#e0e0e0"></path><rect x="115.61" y="152.93" width="3.62" height="7.63" style="fill:#e0e0e0"></rect><path d="M128.55,163.55c0,.08-4.79.15-10.69.15s-10.68-.07-10.68-.15,4.78-.14,10.68-.14S128.55,163.47,128.55,163.55Z" style="fill:#e0e0e0"></path><rect x="115.61" y="168.53" width="3.62" height="7.63" style="fill:#e0e0e0"></rect><path d="M128.55,179.16c0,.08-4.79.14-10.69.14s-10.68-.06-10.68-.14S112,179,117.86,179,128.55,179.08,128.55,179.16Z" style="fill:#e0e0e0"></path><rect x="115.61" y="184.14" width="3.62" height="7.63" style="fill:#e0e0e0"></rect><path d="M128.55,194.76c0,.08-4.79.15-10.69.15s-10.68-.07-10.68-.15,4.78-.14,10.68-.14S128.55,194.68,128.55,194.76Z" style="fill:#e0e0e0"></path><rect x="115.61" y="199.3" width="3.62" height="7.63" style="fill:#e0e0e0"></rect><path d="M128.55,209.92c0,.08-4.79.14-10.69.14s-10.68-.06-10.68-.14,4.78-.15,10.68-.15S128.55,209.84,128.55,209.92Z" style="fill:#e0e0e0"></path><rect x="115.61" y="214.51" width="3.62" height="7.63" style="fill:#e0e0e0"></rect><rect x="115.61" y="229.93" width="3.62" height="7.63" style="fill:#e0e0e0"></rect><path d="M128.55,225.14c0,.08-4.79.14-10.69.14s-10.68-.06-10.68-.14S112,225,117.86,225,128.55,225.06,128.55,225.14Z" style="fill:#e0e0e0"></path><rect x="94.06" y="153.16" width="3.62" height="7.63" style="fill:#fafafa"></rect><path d="M107,163.78c0,.08-4.78.15-10.69.15s-10.68-.07-10.68-.15,4.78-.14,10.68-.14S107,163.7,107,163.78Z" style="fill:#e0e0e0"></path><rect x="94.06" y="168.54" width="3.62" height="7.63" style="fill:#fafafa"></rect><path d="M107,179.16c0,.08-4.78.15-10.69.15s-10.68-.07-10.68-.15S90.4,179,96.3,179,107,179.08,107,179.16Z" style="fill:#e0e0e0"></path><rect x="94.06" y="183.92" width="3.62" height="7.63" style="fill:#fafafa"></rect><path d="M107,194.54c0,.08-4.78.15-10.69.15s-10.68-.07-10.68-.15,4.78-.15,10.68-.15S107,194.46,107,194.54Z" style="fill:#e0e0e0"></path><rect x="94.06" y="199.3" width="3.62" height="7.63" style="fill:#fafafa"></rect><path d="M107,209.92c0,.08-4.78.14-10.69.14s-10.68-.06-10.68-.14,4.78-.15,10.68-.15S107,209.84,107,209.92Z" style="fill:#e0e0e0"></path><rect x="94.06" y="214.67" width="3.62" height="7.63" style="fill:#fafafa"></rect><path d="M107,225.3c0,.08-4.78.14-10.69.14s-10.68-.06-10.68-.14,4.78-.15,10.68-.15S107,225.22,107,225.3Z" style="fill:#e0e0e0"></path><rect x="94.06" y="230.05" width="3.62" height="7.63" style="fill:#fafafa"></rect><rect x="128.14" y="167.89" width="42.75" height="135.47" style="fill:#f5f5f5"></rect><rect x="149.51" y="167.89" width="21.37" height="135.1" style="fill:#ebebeb"></rect><rect x="133.02" y="154.59" width="15.09" height="13.3" style="fill:#f5f5f5"></rect><rect x="144.51" y="154.59" width="3.6" height="13.3" style="fill:#ebebeb"></rect><polyline points="124.57 167.89 124.57 167.11 172.13 167.11 172.13 167.89" style="fill:#e0e0e0"></polyline><rect x="136.57" y="173.69" width="3.62" height="7.63" style="fill:#fafafa"></rect><path d="M149.51,184.31c0,.08-4.79.15-10.69.15s-10.68-.07-10.68-.15,4.78-.15,10.68-.15S149.51,184.23,149.51,184.31Z" style="fill:#e0e0e0"></path><rect x="158.13" y="173.69" width="3.62" height="7.63" style="fill:#e0e0e0"></rect><path d="M171.07,184.31c0,.08-4.79.15-10.69.15s-10.68-.07-10.68-.15,4.78-.15,10.68-.15S171.07,184.23,171.07,184.31Z" style="fill:#e0e0e0"></path><rect x="158.13" y="188.83" width="3.62" height="7.63" style="fill:#e0e0e0"></rect><path d="M171.07,199.46c0,.08-4.79.14-10.69.14s-10.68-.06-10.68-.14,4.78-.15,10.68-.15S171.07,199.38,171.07,199.46Z" style="fill:#e0e0e0"></path><rect x="158.13" y="204.44" width="3.62" height="7.63" style="fill:#e0e0e0"></rect><path d="M171.07,215.06c0,.08-4.79.15-10.69.15s-10.68-.07-10.68-.15,4.78-.14,10.68-.14S171.07,215,171.07,215.06Z" style="fill:#e0e0e0"></path><rect x="158.13" y="220.04" width="3.62" height="7.63" style="fill:#e0e0e0"></rect><path d="M171.07,230.67c0,.08-4.79.14-10.69.14s-10.68-.06-10.68-.14,4.78-.15,10.68-.15S171.07,230.59,171.07,230.67Z" style="fill:#e0e0e0"></path><rect x="158.13" y="235.2" width="3.62" height="7.63" style="fill:#e0e0e0"></rect><path d="M171.07,245.82c0,.09-4.79.15-10.69.15s-10.68-.06-10.68-.15,4.78-.14,10.68-.14S171.07,245.74,171.07,245.82Z" style="fill:#e0e0e0"></path><rect x="158.13" y="250.42" width="3.62" height="7.63" style="fill:#e0e0e0"></rect><rect x="158.13" y="265.84" width="3.62" height="7.63" style="fill:#e0e0e0"></rect><path d="M171.07,261c0,.08-4.79.15-10.69.15s-10.68-.07-10.68-.15,4.78-.14,10.68-.14S171.07,261,171.07,261Z" style="fill:#e0e0e0"></path><rect x="136.57" y="189.07" width="3.62" height="7.63" style="fill:#fafafa"></rect><path d="M149.51,199.69c0,.08-4.79.14-10.69.14s-10.68-.06-10.68-.14,4.78-.15,10.68-.15S149.51,199.61,149.51,199.69Z" style="fill:#e0e0e0"></path><rect x="136.57" y="204.44" width="3.62" height="7.63" style="fill:#fafafa"></rect><path d="M149.51,215.07c0,.08-4.79.14-10.69.14s-10.68-.06-10.68-.14,4.78-.15,10.68-.15S149.51,215,149.51,215.07Z" style="fill:#e0e0e0"></path><rect x="136.57" y="219.82" width="3.62" height="7.63" style="fill:#fafafa"></rect><path d="M149.51,230.45c0,.08-4.79.14-10.69.14s-10.68-.06-10.68-.14,4.78-.15,10.68-.15S149.51,230.37,149.51,230.45Z" style="fill:#e0e0e0"></path><rect x="136.57" y="235.2" width="3.62" height="7.63" style="fill:#fafafa"></rect><path d="M149.51,245.82c0,.09-4.79.15-10.69.15s-10.68-.06-10.68-.15,4.78-.14,10.68-.14S149.51,245.74,149.51,245.82Z" style="fill:#e0e0e0"></path><rect x="136.57" y="250.58" width="3.62" height="7.63" style="fill:#fafafa"></rect><path d="M149.51,261.2c0,.08-4.79.15-10.69.15s-10.68-.07-10.68-.15,4.78-.14,10.68-.14S149.51,261.12,149.51,261.2Z" style="fill:#e0e0e0"></path><rect x="136.57" y="265.96" width="3.62" height="7.63" style="fill:#fafafa"></rect><polygon points="104.39 297.74 41.49 297.74 41.22 198.32 104.12 198.32 104.39 297.74" style="fill:#ebebeb"></polygon><rect x="72.67" y="198.32" width="31.45" height="99.41" style="fill:#e0e0e0"></rect><rect x="48.4" y="178.75" width="22.21" height="19.57" style="fill:#ebebeb"></rect><rect x="65.32" y="178.75" width="5.29" height="19.57" style="fill:#e0e0e0"></rect><rect x="35.97" y="197.18" width="69.98" height="1.14" style="fill:#e0e0e0"></rect><rect x="53.63" y="206.86" width="5.32" height="11.23" style="fill:#fff"></rect><path d="M72.67,222.49c0,.12-7,.22-15.73.22s-15.72-.1-15.72-.22,7-.21,15.72-.21S72.67,222.37,72.67,222.49Z" style="fill:#e0e0e0"></path><rect x="85.36" y="206.86" width="5.32" height="11.23" style="fill:#f5f5f5"></rect><path d="M104.39,222.49c0,.12-7,.22-15.72.22s-15.73-.1-15.73-.22,7-.21,15.73-.21S104.39,222.37,104.39,222.49Z" style="fill:#ebebeb"></path><rect x="85.36" y="229.15" width="5.32" height="11.23" style="fill:#f5f5f5"></rect><path d="M104.39,244.78c0,.12-7,.22-15.72.22s-15.73-.1-15.73-.22,7-.21,15.73-.21S104.39,244.66,104.39,244.78Z" style="fill:#ebebeb"></path><rect x="85.36" y="252.11" width="5.32" height="11.23" style="fill:#f5f5f5"></rect><path d="M104.39,267.74c0,.12-7,.22-15.72.22s-15.73-.1-15.73-.22,7-.21,15.73-.21S104.39,267.63,104.39,267.74Z" style="fill:#ebebeb"></path><rect x="85.36" y="275.07" width="5.32" height="11.23" style="fill:#f5f5f5"></rect><path d="M104.39,290.71c0,.12-7,.21-15.72.21s-15.73-.09-15.73-.21,7-.22,15.73-.22S104.39,290.59,104.39,290.71Z" style="fill:#ebebeb"></path><rect x="53.63" y="229.49" width="5.32" height="11.23" style="fill:#fff"></rect><path d="M72.67,245.12c0,.12-7,.22-15.73.22s-15.72-.1-15.72-.22,7-.21,15.72-.21S72.67,245,72.67,245.12Z" style="fill:#e0e0e0"></path><rect x="53.63" y="252.12" width="5.32" height="11.23" style="fill:#fff"></rect><path d="M72.67,267.75c0,.12-7,.22-15.73.22s-15.72-.1-15.72-.22,7-.21,15.72-.21S72.67,267.63,72.67,267.75Z" style="fill:#e0e0e0"></path><rect x="53.63" y="274.75" width="5.32" height="11.23" style="fill:#fff"></rect><path d="M72.67,290.38c0,.12-7,.22-15.73.22s-15.72-.1-15.72-.22,7-.21,15.72-.21S72.67,290.26,72.67,290.38Z" style="fill:#e0e0e0"></path><polygon points="298.1 303.85 235.2 303.85 234.92 204.44 297.82 204.44 298.1 303.85" style="fill:#ebebeb"></polygon><rect x="266.37" y="204.44" width="31.45" height="99.41" style="fill:#e0e0e0"></rect><rect x="242.11" y="184.87" width="22.21" height="19.57" style="fill:#ebebeb"></rect><rect x="259.02" y="184.87" width="5.29" height="19.57" style="fill:#e0e0e0"></rect><rect x="229.68" y="203.3" width="69.98" height="1.14" style="fill:#e0e0e0"></rect><rect x="247.34" y="212.98" width="5.32" height="11.23" style="fill:#fff"></rect><path d="M266.37,228.61c0,.12-7,.21-15.72.21s-15.73-.09-15.73-.21,7-.22,15.73-.22S266.37,228.49,266.37,228.61Z" style="fill:#e0e0e0"></path><rect x="279.06" y="212.98" width="5.32" height="11.23" style="fill:#f5f5f5"></rect><path d="M298.1,228.61c0,.12-7,.21-15.73.21s-15.72-.09-15.72-.21,7-.22,15.72-.22S298.1,228.49,298.1,228.61Z" style="fill:#ebebeb"></path><rect x="279.06" y="235.27" width="5.32" height="11.23" style="fill:#f5f5f5"></rect><path d="M298.1,250.9c0,.12-7,.21-15.73.21s-15.72-.09-15.72-.21,7-.22,15.72-.22S298.1,250.78,298.1,250.9Z" style="fill:#ebebeb"></path><rect x="279.06" y="258.23" width="5.32" height="11.23" style="fill:#f5f5f5"></rect><path d="M298.1,273.86c0,.12-7,.21-15.73.21s-15.72-.09-15.72-.21,7-.21,15.72-.21S298.1,273.74,298.1,273.86Z" style="fill:#ebebeb"></path><rect x="279.06" y="281.19" width="5.32" height="11.23" style="fill:#f5f5f5"></rect><path d="M298.1,296.82c0,.12-7,.22-15.73.22s-15.72-.1-15.72-.22,7-.21,15.72-.21S298.1,296.7,298.1,296.82Z" style="fill:#ebebeb"></path><rect x="247.34" y="235.61" width="5.32" height="11.23" style="fill:#fff"></rect><path d="M266.37,251.24c0,.12-7,.21-15.72.21s-15.73-.09-15.73-.21,7-.22,15.73-.22S266.37,251.12,266.37,251.24Z" style="fill:#e0e0e0"></path><rect x="247.34" y="258.24" width="5.32" height="11.23" style="fill:#fff"></rect><path d="M266.37,273.87c0,.12-7,.21-15.72.21s-15.73-.09-15.73-.21,7-.22,15.73-.22S266.37,273.75,266.37,273.87Z" style="fill:#e0e0e0"></path><rect x="247.34" y="280.87" width="5.32" height="11.23" style="fill:#fff"></rect><path d="M266.37,296.5c0,.12-7,.21-15.72.21s-15.73-.09-15.73-.21,7-.22,15.73-.22S266.37,296.38,266.37,296.5Z" style="fill:#e0e0e0"></path><path d="M464.1,153.9c.54-3.89-5-7.09-9.07-7.42-2-.16-4,.14-5.88-.51-4-1.4-5.65-6.62-9.59-8.28-2.94-1.24-6.33-.14-9.19,1.3s-5.67,3.25-8.86,3.45c-2.78.18-5.79-.85-8.22.5-1.81,1-2.76,3.1-4.42,4.33a10.61,10.61,0,0,1-5.79,1.57,16.36,16.36,0,0,0-6,1c-1.84.84-3.37,2.79-3,4.78Z" style="fill:#ebebeb"></path><path d="M99.4,88.72C100,84.49,94,81,89.52,80.65c-2.14-.17-4.36.15-6.39-.55-4.39-1.53-6.14-7.21-10.43-9-3.2-1.35-6.89-.14-10,1.42S56.52,76,53.05,76.25c-3,.2-6.29-.92-8.94.55-2,1.1-3,3.37-4.81,4.71s-4.09,1.58-6.29,1.7-4.48.14-6.49,1.06-3.66,3-3.25,5.21Z" style="fill:#ebebeb"></path><path d="M193.54,38.09c.49-3.53-4.5-6.44-8.24-6.74-1.79-.14-3.65.13-5.34-.46-3.67-1.28-5.13-6-8.71-7.52-2.68-1.13-5.76-.13-8.35,1.18s-5.16,2.95-8.06,3.13c-2.52.16-5.25-.77-7.46.46-1.64.92-2.5,2.81-4,3.93a9.59,9.59,0,0,1-5.25,1.42,14.76,14.76,0,0,0-5.42.89c-1.67.76-3.06,2.53-2.71,4.34Z" style="fill:#ebebeb"></path><rect x="297.55" y="162.35" width="49.8" height="130.35" style="fill:#ebebeb"></rect><rect x="322.45" y="162.35" width="24.9" height="130.35" style="fill:#e0e0e0"></rect><rect x="303.24" y="146.85" width="17.58" height="15.49" style="fill:#ebebeb"></rect><rect x="316.63" y="146.85" width="4.19" height="15.49" style="fill:#e0e0e0"></rect><rect x="293.4" y="161.44" width="55.41" height="0.9" style="fill:#e0e0e0"></rect><rect x="307.38" y="169.1" width="4.22" height="8.89" style="fill:#fff"></rect><path d="M322.45,181.48c0,.09-5.57.17-12.45.17s-12.45-.08-12.45-.17,5.57-.17,12.45-.17S322.45,181.39,322.45,181.48Z" style="fill:#e0e0e0"></path><rect x="332.5" y="169.1" width="4.22" height="8.89" style="fill:#f5f5f5"></rect><path d="M347.57,181.48c0,.09-5.58.17-12.45.17s-12.45-.08-12.45-.17,5.57-.17,12.45-.17S347.57,181.39,347.57,181.48Z" style="fill:#ebebeb"></path><rect x="332.5" y="186.75" width="4.22" height="8.89" style="fill:#f5f5f5"></rect><path d="M347.57,199.13c0,.09-5.58.17-12.45.17s-12.45-.08-12.45-.17,5.57-.17,12.45-.17S347.57,199,347.57,199.13Z" style="fill:#ebebeb"></path><rect x="332.5" y="204.93" width="4.22" height="8.89" style="fill:#f5f5f5"></rect><path d="M347.57,217.31c0,.09-5.58.17-12.45.17s-12.45-.08-12.45-.17,5.57-.17,12.45-.17S347.57,217.21,347.57,217.31Z" style="fill:#ebebeb"></path><rect x="332.5" y="223.11" width="4.22" height="8.89" style="fill:#f5f5f5"></rect><path d="M347.57,235.48c0,.1-5.58.17-12.45.17s-12.45-.07-12.45-.17,5.57-.17,12.45-.17S347.57,235.39,347.57,235.48Z" style="fill:#ebebeb"></path><rect x="332.5" y="240.77" width="4.22" height="8.89" style="fill:#f5f5f5"></rect><path d="M347.57,253.14c0,.1-5.58.17-12.45.17s-12.45-.07-12.45-.17,5.57-.17,12.45-.17S347.57,253.05,347.57,253.14Z" style="fill:#ebebeb"></path><rect x="332.5" y="258.5" width="4.22" height="8.89" style="fill:#f5f5f5"></rect><rect x="332.5" y="276.46" width="4.22" height="8.89" style="fill:#f5f5f5"></rect><path d="M347.57,270.87c0,.1-5.58.17-12.45.17s-12.45-.07-12.45-.17,5.57-.17,12.45-.17S347.57,270.78,347.57,270.87Z" style="fill:#ebebeb"></path><rect x="307.38" y="187.02" width="4.22" height="8.89" style="fill:#fff"></rect><path d="M322.45,199.4c0,.09-5.57.17-12.45.17s-12.45-.08-12.45-.17,5.57-.17,12.45-.17S322.45,199.3,322.45,199.4Z" style="fill:#e0e0e0"></path><rect x="307.38" y="204.94" width="4.22" height="8.89" style="fill:#fff"></rect><path d="M322.45,217.31c0,.1-5.57.17-12.45.17s-12.45-.07-12.45-.17,5.57-.17,12.45-.17S322.45,217.22,322.45,217.31Z" style="fill:#e0e0e0"></path><rect x="307.38" y="222.85" width="4.22" height="8.89" style="fill:#fff"></rect><path d="M322.45,235.23c0,.09-5.57.17-12.45.17s-12.45-.08-12.45-.17,5.57-.17,12.45-.17S322.45,235.13,322.45,235.23Z" style="fill:#e0e0e0"></path><rect x="307.38" y="240.77" width="4.22" height="8.89" style="fill:#fff"></rect><path d="M322.45,253.14c0,.1-5.57.17-12.45.17s-12.45-.07-12.45-.17S303.12,253,310,253,322.45,253.05,322.45,253.14Z" style="fill:#e0e0e0"></path><rect x="307.38" y="258.68" width="4.22" height="8.89" style="fill:#fff"></rect><path d="M322.45,271.06c0,.09-5.57.17-12.45.17s-12.45-.08-12.45-.17,5.57-.17,12.45-.17S322.45,271,322.45,271.06Z" style="fill:#e0e0e0"></path><rect x="307.38" y="276.6" width="4.22" height="8.89" style="fill:#fff"></rect><rect x="393.99" y="184.47" width="56.8" height="201.77" style="fill:#ebebeb"></rect><rect x="398.6" y="191.43" width="5.06" height="10.66" style="fill:#fff"></rect><rect x="409.23" y="191.43" width="5.06" height="10.66" style="fill:#fff"></rect><rect x="419.86" y="191.43" width="5.06" height="10.66" style="fill:#fff"></rect><rect x="430.49" y="191.43" width="5.06" height="10.66" style="fill:#fff"></rect><rect x="441.12" y="191.43" width="5.06" height="10.66" style="fill:#fff"></rect><rect x="398.6" y="206.34" width="5.06" height="10.67" style="fill:#fff"></rect><rect x="409.23" y="206.34" width="5.06" height="10.67" style="fill:#fff"></rect><rect x="419.86" y="206.34" width="5.06" height="10.67" style="fill:#fff"></rect><rect x="430.49" y="206.34" width="5.06" height="10.67" style="fill:#fff"></rect><rect x="441.12" y="206.34" width="5.06" height="10.67" style="fill:#fff"></rect><rect x="398.6" y="221.26" width="5.06" height="10.66" style="fill:#fff"></rect><rect x="409.23" y="221.26" width="5.06" height="10.66" style="fill:#fff"></rect><rect x="419.86" y="221.26" width="5.06" height="10.66" style="fill:#fff"></rect><rect x="430.49" y="221.26" width="5.06" height="10.66" style="fill:#fff"></rect><rect x="441.12" y="221.26" width="5.06" height="10.66" style="fill:#fff"></rect><rect x="398.6" y="236.18" width="5.06" height="10.66" style="fill:#fff"></rect><rect x="409.23" y="236.18" width="5.06" height="10.66" style="fill:#fff"></rect><rect x="419.86" y="236.18" width="5.06" height="10.66" style="fill:#fff"></rect><rect x="430.49" y="236.18" width="5.06" height="10.66" style="fill:#fff"></rect><rect x="441.12" y="236.18" width="5.06" height="10.66" style="fill:#fff"></rect><rect x="398.6" y="251.09" width="5.06" height="10.67" style="fill:#fff"></rect><rect x="409.23" y="251.09" width="5.06" height="10.67" style="fill:#fff"></rect><rect x="419.86" y="251.09" width="5.06" height="10.67" style="fill:#fff"></rect><rect x="430.49" y="251.09" width="5.06" height="10.67" style="fill:#fff"></rect><rect x="441.12" y="251.09" width="5.06" height="10.67" style="fill:#fff"></rect><rect x="398.6" y="266.01" width="5.06" height="10.66" style="fill:#fff"></rect><rect x="409.23" y="266.01" width="5.06" height="10.66" style="fill:#fff"></rect><rect x="419.86" y="266.01" width="5.06" height="10.66" style="fill:#fff"></rect><rect x="430.49" y="266.01" width="5.06" height="10.66" style="fill:#fff"></rect><rect x="441.12" y="266.01" width="5.06" height="10.66" style="fill:#fff"></rect><rect x="398.6" y="280.93" width="5.06" height="10.67" style="fill:#fff"></rect><rect x="409.23" y="280.93" width="5.06" height="10.67" style="fill:#fff"></rect><rect x="419.86" y="280.93" width="5.06" height="10.67" style="fill:#fff"></rect><rect x="430.49" y="280.93" width="5.06" height="10.67" style="fill:#fff"></rect><rect x="441.12" y="280.93" width="5.06" height="10.67" style="fill:#fff"></rect><rect x="398.6" y="295.84" width="5.06" height="10.67" style="fill:#fff"></rect><rect x="409.23" y="295.84" width="5.06" height="10.67" style="fill:#fff"></rect><rect x="419.86" y="295.84" width="5.06" height="10.67" style="fill:#fff"></rect><rect x="430.49" y="295.84" width="5.06" height="10.67" style="fill:#fff"></rect><rect x="441.12" y="295.84" width="5.06" height="10.67" style="fill:#fff"></rect><rect x="398.6" y="310.76" width="5.06" height="10.67" style="fill:#fff"></rect><rect x="409.23" y="310.76" width="5.06" height="10.67" style="fill:#fff"></rect><rect x="419.86" y="310.76" width="5.06" height="10.67" style="fill:#fff"></rect><rect x="430.49" y="310.76" width="5.06" height="10.67" style="fill:#fff"></rect><rect x="441.12" y="310.76" width="5.06" height="10.67" style="fill:#fff"></rect><rect x="398.6" y="325.68" width="5.06" height="10.67" style="fill:#fff"></rect><rect x="409.23" y="325.68" width="5.06" height="10.67" style="fill:#fff"></rect><rect x="419.86" y="325.68" width="5.06" height="10.67" style="fill:#fff"></rect><rect x="430.49" y="325.68" width="5.06" height="10.67" style="fill:#fff"></rect><rect x="441.12" y="325.68" width="5.06" height="10.67" style="fill:#fff"></rect><rect x="398.6" y="340.59" width="5.06" height="10.67" style="fill:#fff"></rect><rect x="409.23" y="340.59" width="5.06" height="10.67" style="fill:#fff"></rect><rect x="419.86" y="340.59" width="5.06" height="10.67" style="fill:#fff"></rect><rect x="430.49" y="340.59" width="5.06" height="10.67" style="fill:#fff"></rect><rect x="441.12" y="340.59" width="5.06" height="10.67" style="fill:#fff"></rect><rect x="398.6" y="355.51" width="5.06" height="10.66" style="fill:#fff"></rect><rect x="409.23" y="355.51" width="5.06" height="10.66" style="fill:#fff"></rect><rect x="419.86" y="355.51" width="5.06" height="10.66" style="fill:#fff"></rect><rect x="430.49" y="355.51" width="5.06" height="10.66" style="fill:#fff"></rect><rect x="441.12" y="355.51" width="5.06" height="10.66" style="fill:#fff"></rect><rect x="398.6" y="369.6" width="5.06" height="10.66" style="fill:#fff"></rect><rect x="409.23" y="369.6" width="5.06" height="10.66" style="fill:#fff"></rect><rect x="419.86" y="369.6" width="5.06" height="10.66" style="fill:#fff"></rect><rect x="430.49" y="369.6" width="5.06" height="10.66" style="fill:#fff"></rect><rect x="441.12" y="369.6" width="5.06" height="10.66" style="fill:#fff"></rect><rect x="450.79" y="184.47" width="24.81" height="201.77" style="fill:#e0e0e0"></rect><rect x="419.86" y="191.43" width="5.06" height="10.66" style="fill:#fff"></rect><rect x="430.49" y="191.43" width="5.06" height="10.66" style="fill:#fff"></rect><rect x="441.12" y="191.43" width="5.06" height="10.66" style="fill:#fff"></rect><rect x="419.86" y="206.34" width="5.06" height="10.67" style="fill:#fff"></rect><rect x="430.49" y="206.34" width="5.06" height="10.67" style="fill:#fff"></rect><rect x="441.12" y="206.34" width="5.06" height="10.67" style="fill:#fff"></rect><rect x="419.86" y="221.26" width="5.06" height="10.66" style="fill:#fff"></rect><rect x="430.49" y="221.26" width="5.06" height="10.66" style="fill:#fff"></rect><rect x="441.12" y="221.26" width="5.06" height="10.66" style="fill:#fff"></rect><rect x="419.86" y="236.18" width="5.06" height="10.66" style="fill:#fff"></rect><rect x="430.49" y="236.18" width="5.06" height="10.66" style="fill:#fff"></rect><rect x="441.12" y="236.18" width="5.06" height="10.66" style="fill:#fff"></rect><rect x="419.86" y="251.09" width="5.06" height="10.67" style="fill:#fff"></rect><rect x="430.49" y="251.09" width="5.06" height="10.67" style="fill:#fff"></rect><rect x="441.12" y="251.09" width="5.06" height="10.67" style="fill:#fff"></rect><rect x="419.86" y="266.01" width="5.06" height="10.66" style="fill:#fff"></rect><rect x="430.49" y="266.01" width="5.06" height="10.66" style="fill:#fff"></rect><rect x="441.12" y="266.01" width="5.06" height="10.66" style="fill:#fff"></rect><rect x="419.86" y="280.93" width="5.06" height="10.67" style="fill:#fff"></rect><rect x="430.49" y="280.93" width="5.06" height="10.67" style="fill:#fff"></rect><rect x="441.12" y="280.93" width="5.06" height="10.67" style="fill:#fff"></rect><rect x="419.86" y="295.84" width="5.06" height="10.67" style="fill:#fff"></rect><rect x="430.49" y="295.84" width="5.06" height="10.67" style="fill:#fff"></rect><rect x="441.12" y="295.84" width="5.06" height="10.67" style="fill:#fff"></rect><rect x="419.86" y="310.76" width="5.06" height="10.67" style="fill:#fff"></rect><rect x="430.49" y="310.76" width="5.06" height="10.67" style="fill:#fff"></rect><rect x="441.12" y="310.76" width="5.06" height="10.67" style="fill:#fff"></rect><rect x="419.86" y="325.68" width="5.06" height="10.67" style="fill:#fff"></rect><rect x="430.49" y="325.68" width="5.06" height="10.67" style="fill:#fff"></rect><rect x="441.12" y="325.68" width="5.06" height="10.67" style="fill:#fff"></rect><rect x="419.86" y="340.59" width="5.06" height="10.67" style="fill:#fff"></rect><rect x="430.49" y="340.59" width="5.06" height="10.67" style="fill:#fff"></rect><rect x="441.12" y="340.59" width="5.06" height="10.67" style="fill:#fff"></rect><rect x="419.86" y="355.51" width="5.06" height="10.66" style="fill:#fff"></rect><rect x="430.49" y="355.51" width="5.06" height="10.66" style="fill:#fff"></rect><rect x="441.12" y="355.51" width="5.06" height="10.66" style="fill:#fff"></rect><rect x="419.86" y="369.6" width="5.06" height="10.66" style="fill:#fff"></rect><rect x="430.49" y="369.6" width="5.06" height="10.66" style="fill:#fff"></rect><rect x="441.12" y="369.6" width="5.06" height="10.66" style="fill:#fff"></rect><rect x="456.4" y="191.43" width="5.06" height="10.66" style="fill:#ebebeb"></rect><rect x="467.03" y="191.43" width="5.06" height="10.66" style="fill:#ebebeb"></rect><rect x="456.4" y="206.34" width="5.06" height="10.67" style="fill:#ebebeb"></rect><rect x="467.03" y="206.34" width="5.06" height="10.67" style="fill:#ebebeb"></rect><rect x="456.4" y="221.26" width="5.06" height="10.66" style="fill:#ebebeb"></rect><rect x="467.03" y="221.26" width="5.06" height="10.66" style="fill:#ebebeb"></rect><rect x="456.4" y="236.18" width="5.06" height="10.66" style="fill:#ebebeb"></rect><rect x="467.03" y="236.18" width="5.06" height="10.66" style="fill:#ebebeb"></rect><rect x="456.4" y="251.09" width="5.06" height="10.67" style="fill:#ebebeb"></rect><rect x="467.03" y="251.09" width="5.06" height="10.67" style="fill:#ebebeb"></rect><rect x="456.4" y="266.01" width="5.06" height="10.66" style="fill:#ebebeb"></rect><rect x="467.03" y="266.01" width="5.06" height="10.66" style="fill:#ebebeb"></rect><rect x="456.4" y="280.93" width="5.06" height="10.67" style="fill:#ebebeb"></rect><rect x="467.03" y="280.93" width="5.06" height="10.67" style="fill:#ebebeb"></rect><rect x="456.4" y="295.84" width="5.06" height="10.67" style="fill:#ebebeb"></rect><rect x="467.03" y="295.84" width="5.06" height="10.67" style="fill:#ebebeb"></rect><rect x="456.4" y="310.76" width="5.06" height="10.67" style="fill:#ebebeb"></rect><rect x="467.03" y="310.76" width="5.06" height="10.67" style="fill:#ebebeb"></rect><rect x="456.4" y="325.68" width="5.06" height="10.67" style="fill:#ebebeb"></rect><rect x="467.03" y="325.68" width="5.06" height="10.67" style="fill:#ebebeb"></rect><rect x="456.4" y="340.59" width="5.06" height="10.67" style="fill:#ebebeb"></rect><rect x="467.03" y="340.59" width="5.06" height="10.67" style="fill:#ebebeb"></rect><rect x="456.4" y="355.51" width="5.06" height="10.66" style="fill:#ebebeb"></rect><rect x="467.03" y="355.51" width="5.06" height="10.66" style="fill:#ebebeb"></rect><rect x="456.4" y="369.6" width="5.06" height="10.66" style="fill:#ebebeb"></rect><rect x="467.03" y="369.6" width="5.06" height="10.66" style="fill:#ebebeb"></rect><rect x="283.68" y="293.64" width="48.89" height="92.79" style="fill:#e0e0e0"></rect><rect x="309.64" y="293.64" width="22.92" height="92.79" style="fill:#ebebeb"></rect><rect x="293.93" y="302.37" width="4.4" height="10.68" style="fill:#f5f5f5"></rect><rect x="293.93" y="344.17" width="4.4" height="10.68" style="fill:#f5f5f5"></rect><path d="M309.64,317.24c0,.09-5.81.17-13,.17s-13-.08-13-.17,5.81-.17,13-.17S309.64,317.15,309.64,317.24Z" style="fill:#f5f5f5"></path><rect x="293.93" y="323.43" width="4.4" height="10.68" style="fill:#f5f5f5"></rect><path d="M309.64,338.3c0,.09-5.81.17-13,.17s-13-.08-13-.17,5.81-.17,13-.17S309.64,338.21,309.64,338.3Z" style="fill:#f5f5f5"></path><rect x="314.51" y="302.37" width="4.4" height="10.68" style="fill:#e0e0e0"></rect><rect x="324.05" y="302.37" width="4.4" height="10.68" style="fill:#e0e0e0"></rect><rect x="314.51" y="322.64" width="4.4" height="10.68" style="fill:#e0e0e0"></rect><rect x="324.05" y="322.64" width="4.4" height="10.68" style="fill:#e0e0e0"></rect><rect x="314.51" y="342.9" width="4.4" height="10.68" style="fill:#e0e0e0"></rect><rect x="324.05" y="342.9" width="4.4" height="10.68" style="fill:#e0e0e0"></rect><rect x="280" y="291.39" width="56.24" height="2.33" style="fill:#e0e0e0"></rect><path d="M332.91,293.94c0,.09-10.93.17-24.41.17s-24.4-.08-24.4-.17,10.92-.17,24.4-.17S332.91,293.85,332.91,293.94Z" style="fill:#ebebeb"></path><polygon points="401.28 386.54 332.12 386.54 331.82 277.25 400.98 277.25 401.28 386.54" style="fill:#ebebeb"></polygon><rect x="366.4" y="277.25" width="34.58" height="109.29" style="fill:#e0e0e0"></rect><rect x="339.72" y="255.73" width="24.42" height="21.52" style="fill:#ebebeb"></rect><rect x="358.32" y="255.73" width="5.82" height="21.52" style="fill:#e0e0e0"></rect><rect x="326.06" y="275.99" width="76.94" height="1.26" style="fill:#e0e0e0"></rect><rect x="345.47" y="286.63" width="5.85" height="12.34" style="fill:#fff"></rect><path d="M366.4,303.82c0,.13-7.74.24-17.29.24s-17.29-.11-17.29-.24,7.74-.24,17.29-.24S366.4,303.69,366.4,303.82Z" style="fill:#e0e0e0"></path><rect x="380.35" y="286.63" width="5.85" height="12.34" style="fill:#f5f5f5"></rect><path d="M401.28,303.82c0,.13-7.74.24-17.29.24s-17.29-.11-17.29-.24,7.74-.24,17.29-.24S401.28,303.69,401.28,303.82Z" style="fill:#ebebeb"></path><rect x="380.35" y="311.14" width="5.85" height="12.34" style="fill:#f5f5f5"></rect><path d="M401.28,328.33c0,.13-7.74.23-17.29.23s-17.29-.1-17.29-.23,7.74-.24,17.29-.24S401.28,328.2,401.28,328.33Z" style="fill:#ebebeb"></path><rect x="380.35" y="336.38" width="5.85" height="12.34" style="fill:#f5f5f5"></rect><path d="M401.28,353.57c0,.13-7.74.24-17.29.24s-17.29-.11-17.29-.24,7.74-.24,17.29-.24S401.28,353.44,401.28,353.57Z" style="fill:#ebebeb"></path><rect x="380.35" y="361.63" width="5.85" height="12.34" style="fill:#f5f5f5"></rect><path d="M401.28,378.82c0,.13-7.74.23-17.29.23s-17.29-.1-17.29-.23,7.74-.24,17.29-.24S401.28,378.69,401.28,378.82Z" style="fill:#ebebeb"></path><rect x="345.47" y="311.51" width="5.85" height="12.34" style="fill:#fff"></rect><path d="M366.4,328.7c0,.13-7.74.23-17.29.23s-17.29-.1-17.29-.23,7.74-.24,17.29-.24S366.4,328.57,366.4,328.7Z" style="fill:#e0e0e0"></path><rect x="345.47" y="336.39" width="5.85" height="12.34" style="fill:#fff"></rect><path d="M366.4,353.58c0,.13-7.74.23-17.29.23s-17.29-.1-17.29-.23,7.74-.24,17.29-.24S366.4,353.45,366.4,353.58Z" style="fill:#e0e0e0"></path><rect x="345.47" y="361.27" width="5.85" height="12.34" style="fill:#fff"></rect><path d="M366.4,378.46c0,.13-7.74.23-17.29.23s-17.29-.1-17.29-.23,7.74-.24,17.29-.24S366.4,378.33,366.4,378.46Z" style="fill:#e0e0e0"></path></g><g id="background-simple"><path d="M467.82,164.59l-.9-1.89c-7.63-15.88-23.19-26.53-40.64-27.13a44.39,44.39,0,0,0-6.72.26,49.57,49.57,0,0,0-38.17,27.11c-4.22,8.65-6.17,18.9-13.22,25.41-9.17,8.46-23.22,7.38-35.5,5.78s-26.36-2.64-35.49,5.87c-5.72,5.32-8.17,13.46-8.52,21.31C287.73,242.1,300.33,262,317.75,273s38.92,13.93,59.37,11.85c28.65-2.91,56.9-15.84,75.31-38.29S478.13,191.78,467.82,164.59Z" style="fill:#f5f5f5"></path><path d="M43.88,115.43l.76-1.25A33,33,0,0,1,74.72,98.1a31.71,31.71,0,0,1,4.65.64A34.62,34.62,0,0,1,104,120.18c2.34,6.29,3,13.55,7.45,18.54,5.79,6.51,15.63,6.72,24.27,6.45s18.49,0,24.26,6.49c3.61,4.09,4.75,9.91,4.46,15.38-.77,14.51-10.88,27.48-23.73,33.92s-28,7-42,4.19C79,201.18,60.25,190.27,49,173.42S34.87,133.61,43.88,115.43Z" style="fill:#f5f5f5"></path></g><g id="Floor"><path d="M467.5,387.06c0,.14-97.38.26-217.49.26S32.5,387.2,32.5,387.06s97.36-.26,217.51-.26S467.5,386.92,467.5,387.06Z" style="fill:#263238"></path><path d="M476.78,461.33c0,.15-100.35.26-224.11.26s-224.12-.11-224.12-.26,100.33-.26,224.12-.26S476.78,461.19,476.78,461.33Z" style="fill:#263238"></path><path d="M476.78,475.34c0,.14-100.35.26-224.11.26s-224.12-.12-224.12-.26,100.33-.26,224.12-.26S476.78,475.19,476.78,475.34Z" style="fill:#263238"></path><path d="M56.27,475.34a91.16,91.16,0,0,1,0-13.76,91.16,91.16,0,0,1,0,13.76Z" style="fill:#263238"></path><path d="M100.42,475.34a91.16,91.16,0,0,1,0-13.76,91.16,91.16,0,0,1,0,13.76Z" style="fill:#263238"></path><path d="M144.57,475.34a91.16,91.16,0,0,1,0-13.76,91.16,91.16,0,0,1,0,13.76Z" style="fill:#263238"></path><path d="M188.72,475.34a91.16,91.16,0,0,1,0-13.76,91.16,91.16,0,0,1,0,13.76Z" style="fill:#263238"></path><path d="M232.86,475.34a91.16,91.16,0,0,1,0-13.76,91.16,91.16,0,0,1,0,13.76Z" style="fill:#263238"></path><path d="M277,475.34a91.16,91.16,0,0,1,0-13.76,91.16,91.16,0,0,1,0,13.76Z" style="fill:#263238"></path><path d="M321.16,475.34a91.16,91.16,0,0,1,0-13.76,91.16,91.16,0,0,1,0,13.76Z" style="fill:#263238"></path><path d="M365.31,475.34a91.16,91.16,0,0,1,0-13.76,91.16,91.16,0,0,1,0,13.76Z" style="fill:#263238"></path><path d="M409.46,475.34a91.16,91.16,0,0,1,0-13.76,91.16,91.16,0,0,1,0,13.76Z" style="fill:#263238"></path><path d="M453.6,475.34a91.16,91.16,0,0,1,0-13.76,91.16,91.16,0,0,1,0,13.76Z" style="fill:#263238"></path></g><g id="Plant"><path d="M116,418.14a7.91,7.91,0,0,1,4.11,4.65,14,14,0,0,1,.55,6.31c-.47,4.09-2.79,8.23-5.3,11.5-3.45-3-4.24-8.26-4.47-11-.38-4.24,1.53-12.15,5.11-11.51" style="fill:#455a64"></path><path d="M119.39,447.35a6.76,6.76,0,0,1,2.19-6.43,9,9,0,0,1,6.62-2.07,3.74,3.74,0,0,1,2.91,1.31,2.87,2.87,0,0,1,0,2.93,5.94,5.94,0,0,1-2.17,2.14c-3,1.87-6.22,3.14-9.6,2.12" style="fill:#455a64"></path><path d="M115,459.91a4.15,4.15,0,0,1,.12-.84l.42-2.28a23.84,23.84,0,0,1,2.34-7.26,14.65,14.65,0,0,1,5.22-5.54,10.26,10.26,0,0,1,2.12-.94,4.34,4.34,0,0,1,.61-.15.61.61,0,0,1,.22,0,15,15,0,0,0-2.85,1.3,15.16,15.16,0,0,0-5.06,5.51,26,26,0,0,0-2.4,7.16c-.2,1-.37,1.72-.51,2.25A5,5,0,0,1,115,459.91Z" style="fill:#263238"></path><path d="M115.1,424.28a2.24,2.24,0,0,1,0,.37c0,.27,0,.62.06,1.06,0,.91.11,2.24.16,3.88.1,3.28.19,7.81.17,12.82s-.15,9.54-.28,12.82c-.07,1.64-.14,3-.19,3.88,0,.44-.06.79-.07,1.06a1.33,1.33,0,0,1,0,.36,2,2,0,0,1,0-.36v-1.06c0-1,.06-2.27.1-3.88.08-3.28.17-7.81.19-12.82s0-9.54-.08-12.82c0-1.61-.05-2.93-.06-3.88,0-.43,0-.78,0-1.06A1.53,1.53,0,0,1,115.1,424.28Z" style="fill:#263238"></path><path d="M113.42,449.85a15.82,15.82,0,0,0-8.64-11.6c-1.15-.55-2.66-.91-3.6-.06s-.74,2.4-.28,3.59a13.53,13.53,0,0,0,12.44,8.4" style="fill:#455a64"></path><path d="M105.34,442.13a4.18,4.18,0,0,1,.73.32,8.8,8.8,0,0,1,.83.44c.31.2.68.38,1,.66s.79.55,1.2.91a13.43,13.43,0,0,1,1.28,1.16,17.68,17.68,0,0,1,2.44,3.13,16.78,16.78,0,0,1,1.6,3.63,14.61,14.61,0,0,1,.41,1.68,12.53,12.53,0,0,1,.2,1.49,9.3,9.3,0,0,1,.06,1.24,6.74,6.74,0,0,1,0,.94,3.29,3.29,0,0,1-.09.79c-.06,0,0-1.14-.15-2.95a12.63,12.63,0,0,0-.24-1.46,14.28,14.28,0,0,0-.42-1.65,17.81,17.81,0,0,0-1.6-3.56,19.33,19.33,0,0,0-2.37-3.09,16.38,16.38,0,0,0-1.25-1.16c-.39-.36-.8-.65-1.16-.93C106.35,442.66,105.31,442.19,105.34,442.13Z" style="fill:#263238"></path></g><g id="Factory"><polygon points="191.93 263.67 176.93 263.67 180.52 143.71 189.53 143.71 191.93 263.67" style="fill:#455a64"></polygon><polygon points="214.8 156.08 208.84 265.88 245.39 265.88 239.49 156.08 214.8 156.08" style="fill:#e0e0e0"></polygon><polygon points="239.84 162.59 214.44 162.59 214.8 156.08 239.58 156.08 239.84 162.59" style="fill:#FF725E"></polygon><polygon points="240.89 182.14 213.38 182.14 213.86 173.42 240.42 173.42 240.89 182.14" style="fill:#FF725E"></polygon><polygon points="241.85 200.05 212.41 200.05 212.89 191.33 241.47 191.33 241.85 200.05" style="fill:#FF725E"></polygon><polygon points="242.82 217.96 211.44 217.96 211.92 209.24 242.35 209.24 242.82 217.96" style="fill:#FF725E"></polygon><polygon points="243.78 235.95 210.47 235.87 210.91 227.15 243.32 227.15 243.78 235.95" style="fill:#FF725E"></polygon><polygon points="244.75 253.93 209.5 253.78 209.97 245.06 244.27 245.06 244.75 253.93" style="fill:#FF725E"></polygon><path d="M214.8,156.08h1.64l4.81,0,18.24-.06h.09v.1l6,109.79v.19H208.66v-.18c1.74-31.45,3.26-58.92,4.34-78.53.55-9.78,1-17.6,1.29-23,.16-2.68.28-4.75.36-6.16,0-.69.08-1.22.1-1.59s0-.53,0-.53,0,.19,0,.56,0,.9-.08,1.6c-.07,1.42-.17,3.5-.31,6.2-.28,5.39-.69,13.23-1.2,23-1,19.58-2.5,47-4.17,78.42l-.18-.18h36.55l-.17.19c-2.43-45.72-4.56-85.75-5.83-109.8l.1.09-18.19-.05-4.83,0H214.8Z" style="fill:#263238"></path><path d="M241.93,170.62H212.31a2.79,2.79,0,0,1-2.79-2.8h0a2.79,2.79,0,0,1,2.79-2.79h29.62a2.79,2.79,0,0,1,2.79,2.79h0A2.79,2.79,0,0,1,241.93,170.62Z" style="fill:#e0e0e0"></path><path d="M241.93,170.62a4.67,4.67,0,0,0,.76-.15,2.75,2.75,0,0,0,1.94-2.88,2.72,2.72,0,0,0-2.69-2.45l-2.48,0-27.15.05a2.64,2.64,0,0,0-1.7.63,2.6,2.6,0,0,0-.88,1.55,2.63,2.63,0,0,0,1.63,2.88,4.69,4.69,0,0,0,1.77.18h5.35l12.2,0,8.23.06,2.24,0,.58,0,.2,0-.2,0h-.58l-2.24,0-8.23.05-12.2,0h-5.35c-.31,0-.61,0-.93,0a2.7,2.7,0,0,1-1-.19,3,3,0,0,1-.85-5,3,3,0,0,1,1.93-.72l27.15.06h2.48a2.88,2.88,0,0,1,2.51,4.25,2.79,2.79,0,0,1-1.74,1.37A2,2,0,0,1,241.93,170.62Z" style="fill:#263238"></path><path d="M40,314.64H30.09a4.33,4.33,0,0,1-4.31-4.32V250a4.33,4.33,0,0,1,4.31-4.32H42.91A4.33,4.33,0,0,1,47.22,250V259H45.87V250a3,3,0,0,0-3-3H30.09a3,3,0,0,0-3,3v60.28a3,3,0,0,0,3,3H40Z" style="fill:#e0e0e0"></path><rect x="26.89" y="299.99" width="13.97" height="1.35" style="fill:#e0e0e0"></rect><rect x="26.89" y="288.39" width="13.97" height="1.35" style="fill:#e0e0e0"></rect><rect x="26.89" y="276.8" width="13.97" height="1.35" style="fill:#e0e0e0"></rect><rect x="26.89" y="265.2" width="13.97" height="1.35" style="fill:#e0e0e0"></rect><polygon points="40.18 386.84 40.18 260.2 99.44 231.51 99.44 260.83 162.45 231.51 162.45 261.45 288.46 261.45 288.46 386.84 40.18 386.84" style="fill:#FF725E"></polygon><rect x="55.44" y="296.97" width="206.04" height="33.98" style="fill:#fff"></rect><path d="M269.36,314c0,.1-48.09.18-107.4.18S54.55,314.06,54.55,314s48.08-.18,107.41-.18S269.36,313.86,269.36,314Z" style="fill:#FF725E"></path><path d="M67.78,330.42a1.42,1.42,0,0,1,0,.45q0,.5,0,1.29h-.14c-.06-3-.1-9.76-.1-17.61,0-5.33,0-10.14,0-13.69,0-1.71,0-3.12,0-4.15,0-.45,0-.83,0-1.12a2.12,2.12,0,0,1,0-.4,1.6,1.6,0,0,1,0,.4c0,.29,0,.67,0,1.12,0,1,0,2.44.06,4.15,0,3.55,0,8.36,0,13.69,0,7.85,0,14.61-.11,17.61h-.14l0-1.29A3.09,3.09,0,0,1,67.78,330.42Z" style="fill:#FF725E"></path><path d="M82.68,330.12a1.48,1.48,0,0,1,0,.45l0,1.29h-.14c-.06-3-.1-9.76-.1-17.61,0-5.33,0-10.14,0-13.69,0-1.71,0-3.12,0-4.14,0-.46,0-.84,0-1.13a1.93,1.93,0,0,1,0-.39,1.47,1.47,0,0,1,0,.39c0,.29,0,.67,0,1.13,0,1,0,2.43.06,4.14,0,3.55,0,8.36,0,13.69,0,7.85,0,14.61-.11,17.61h-.14l0-1.29A3.33,3.33,0,0,1,82.68,330.12Z" style="fill:#FF725E"></path><path d="M97.58,329.92a1.24,1.24,0,0,1,0,.42c0,.32,0,.72,0,1.22h-.14c-.06-2.83-.1-9.22-.1-16.64,0-5,0-9.58,0-12.94,0-1.62,0-2.94.05-3.92,0-.43,0-.78,0-1.06a1.88,1.88,0,0,1,0-.38,1.42,1.42,0,0,1,0,.38c0,.28,0,.63,0,1.06,0,1,0,2.3.06,3.92,0,3.36,0,7.91.05,12.94,0,7.42,0,13.81-.11,16.64h-.14c0-.5,0-.9,0-1.22A2.7,2.7,0,0,1,97.58,329.92Z" style="fill:#FF725E"></path><path d="M112.48,329.53a1.38,1.38,0,0,1,0,.44c0,.34,0,.76,0,1.29h-.14c-.06-3-.1-9.76-.1-17.61,0-5.32,0-10.14,0-13.68,0-1.72,0-3.12,0-4.15,0-.46,0-.83,0-1.13a1.93,1.93,0,0,1,0-.39,1.47,1.47,0,0,1,0,.39c0,.3,0,.67,0,1.13,0,1,0,2.43.06,4.15,0,3.54,0,8.36,0,13.68,0,7.85,0,14.61-.11,17.61h-.14c0-.53,0-.95,0-1.29A3,3,0,0,1,112.48,329.53Z" style="fill:#FF725E"></path><path d="M127.38,329.35a1.24,1.24,0,0,1,0,.42l0,1.2h-.14c-.06-2.79-.1-9.07-.1-16.37,0-4.94,0-9.41.05-12.71,0-1.59,0-2.89,0-3.85l0-1.05a1.82,1.82,0,0,1,0-.37,1.38,1.38,0,0,1,0,.37l0,1.05c0,1,0,2.26.06,3.85,0,3.3,0,7.77,0,12.71,0,7.3,0,13.58-.11,16.37h-.14c0-.49,0-.89,0-1.2A2.7,2.7,0,0,1,127.38,329.35Z" style="fill:#FF725E"></path><path d="M142.28,330.35a1.57,1.57,0,0,1,0,.47c0,.34,0,.79,0,1.34h-.14c-.06-3.12-.1-10.14-.1-18.29,0-5.53,0-10.53,0-14.2,0-1.79,0-3.25.05-4.31,0-.48,0-.86,0-1.17a2.18,2.18,0,0,1,0-.41,1.65,1.65,0,0,1,0,.41c0,.31,0,.69,0,1.17,0,1.06,0,2.52.06,4.31,0,3.67,0,8.67.05,14.2,0,8.15,0,15.17-.11,18.29h-.14c0-.55,0-1,0-1.34A3.45,3.45,0,0,1,142.28,330.35Z" style="fill:#FF725E"></path><path d="M157.18,328.9a1.2,1.2,0,0,1,0,.41c0,.31,0,.7,0,1.19h-.14c-.06-2.75-.1-8.95-.1-16.14,0-4.9,0-9.33.05-12.54,0-1.57,0-2.85.05-3.8,0-.42,0-.76,0-1a1.77,1.77,0,0,1,0-.36,1.34,1.34,0,0,1,0,.36c0,.28,0,.62,0,1,0,1,0,2.23.06,3.8,0,3.21.05,7.64.05,12.54,0,7.19,0,13.39-.11,16.14h-.14c0-.49,0-.88,0-1.19A2.64,2.64,0,0,1,157.18,328.9Z" style="fill:#FF725E"></path><path d="M172.08,330.21a1.24,1.24,0,0,1,0,.42c0,.32,0,.72,0,1.22H172c-.06-2.83-.1-9.21-.1-16.62,0-5,0-9.56.05-12.91,0-1.61,0-2.94,0-3.91,0-.43,0-.78,0-1.07a1.82,1.82,0,0,1,0-.37,1.38,1.38,0,0,1,0,.37c0,.29,0,.64,0,1.07,0,1,0,2.3.06,3.91,0,3.35,0,7.89,0,12.91,0,7.41,0,13.79-.11,16.62H172c0-.5,0-.9,0-1.22A2.24,2.24,0,0,1,172.08,330.21Z" style="fill:#FF725E"></path><path d="M187,329.91a1.24,1.24,0,0,1,0,.42c0,.31,0,.71,0,1.21h-.15c-.06-2.81-.1-9.13-.1-16.47,0-5,0-9.48.05-12.8,0-1.6,0-2.91,0-3.88,0-.42,0-.77,0-1.05a1.82,1.82,0,0,1,0-.37,1.38,1.38,0,0,1,0,.37q0,.42,0,1.05c0,1,0,2.28.06,3.88,0,3.32,0,7.82,0,12.8,0,7.34,0,13.66-.1,16.47h-.15c0-.5,0-.9,0-1.21A2.24,2.24,0,0,1,187,329.91Z" style="fill:#FF725E"></path><path d="M201.88,329.61a1.3,1.3,0,0,1,0,.42c0,.31,0,.71,0,1.19h-.15c-.06-2.78-.1-9-.1-16.32,0-4.93,0-9.38,0-12.68,0-1.58,0-2.88.05-3.84,0-.42,0-.77,0-1a1.82,1.82,0,0,1,0-.37,1.38,1.38,0,0,1,0,.37c0,.27,0,.62,0,1,0,1,0,2.26.06,3.84,0,3.3,0,7.75.05,12.68,0,7.28,0,13.54-.1,16.32h-.15c0-.48,0-.88,0-1.19A2.37,2.37,0,0,1,201.88,329.61Z" style="fill:#FF725E"></path><path d="M216.78,329.32a1.2,1.2,0,0,1,0,.41c0,.31,0,.7,0,1.18h-.15c-.06-2.75-.1-9-.1-16.17,0-4.91,0-9.35,0-12.56,0-1.57,0-2.86.05-3.81,0-.42,0-.76,0-1a1.77,1.77,0,0,1,0-.36s0,.13,0,.36,0,.62,0,1c0,.95,0,2.24.06,3.81,0,3.21.05,7.65.05,12.56,0,7.21,0,13.42-.1,16.17h-.15c0-.48,0-.87,0-1.18A2.18,2.18,0,0,1,216.78,329.32Z" style="fill:#FF725E"></path><path d="M231.68,329a1.2,1.2,0,0,1,0,.41c0,.3,0,.69,0,1.17h-.15c-.06-2.73-.1-8.88-.1-16,0-4.86,0-9.27.05-12.45,0-1.56,0-2.83.05-3.77,0-.42,0-.76,0-1a1.77,1.77,0,0,1,0-.36,1.34,1.34,0,0,1,0,.36c0,.27,0,.61,0,1,0,.94,0,2.21.06,3.77,0,3.18.05,7.59.05,12.45,0,7.14,0,13.29-.1,16h-.15c0-.48,0-.87,0-1.17A2.18,2.18,0,0,1,231.68,329Z" style="fill:#FF725E"></path><path d="M246.58,328.78a1.17,1.17,0,0,1,0,.4c0,.31,0,.7,0,1.17h-.15c-.06-2.71-.1-8.81-.1-15.9,0-4.83,0-9.2.05-12.36,0-1.54,0-2.81,0-3.74,0-.41,0-.75,0-1a1.65,1.65,0,0,1,0-.36s0,.12,0,.36,0,.61,0,1c0,.93,0,2.2.06,3.74,0,3.16,0,7.53,0,12.36,0,7.09,0,13.19-.1,15.9h-.15c0-.47,0-.86,0-1.17A2.12,2.12,0,0,1,246.58,328.78Z" style="fill:#FF725E"></path><g style="opacity:0.30000000000000004"><path d="M112.24,386.84H101.13V289.09a5.56,5.56,0,0,1,5.56-5.56h0a5.56,5.56,0,0,1,5.55,5.56Z"></path></g><g style="opacity:0.30000000000000004"><path d="M141.19,386.84H130.08V289.09a5.56,5.56,0,0,1,5.55-5.56h0a5.56,5.56,0,0,1,5.56,5.56Z"></path></g><path d="M106.18,386.84H95.07V283a5.55,5.55,0,0,1,5.56-5.55h0a5.54,5.54,0,0,1,5.55,5.55Z" style="fill:#455a64"></path><path d="M134.15,386.84H123V283a5.54,5.54,0,0,1,5.55-5.55h0a5.55,5.55,0,0,1,5.56,5.55Z" style="fill:#455a64"></path><g style="opacity:0.30000000000000004"><polygon points="40.85 260.2 99.44 235.95 99.44 231.51 40.85 260.2"></polygon></g><g style="opacity:0.30000000000000004"><polygon points="101.53 260.56 162.45 236.53 162.45 232.09 101.53 260.56"></polygon></g><rect x="36.68" y="244.38" width="69.14" height="1.35" transform="translate(-100.18 56) rotate(-25.99)" style="fill:#263238"></rect><rect x="96.2" y="245.49" width="69.5" height="1.35" transform="translate(-91.66 78.26) rotate(-24.96)" style="fill:#263238"></rect><g style="opacity:0.30000000000000004"><path d="M57,282.62s0-.18,0-.49,0-.78,0-1.33c0-1.18,0-2.83-.07-4.85l.12.13-16.78.05c-.16.16.21-.21.17-.18h0v3.4c0,1.11,0,2.2,0,3.24l-.16-.17,12,.08,3.51,0,.95,0a1.3,1.3,0,0,1,.34,0l-.3,0-.91,0-3.48,0-12.09.07H40v-.17c0-1,0-2.13,0-3.24V276h0s.33-.33.18-.17l16.78.05h.13V276c0,2.05-.05,3.72-.07,4.92,0,.54,0,1,0,1.31A2.5,2.5,0,0,1,57,282.62Z"></path></g><g style="opacity:0.30000000000000004"><rect x="47.75" y="269.32" width="16.79" height="6.66"></rect></g><g style="opacity:0.30000000000000004"><path d="M181.08,373.46s0-.17,0-.48,0-.79,0-1.34c0-1.18,0-2.82-.07-4.84l.12.12L164.3,367l.17-.17h0v3.4c0,1.12,0,2.2,0,3.24l-.17-.17,12,.08,3.51.05,1,0,.34,0a1.45,1.45,0,0,1-.3,0l-.92,0-3.47.05-12.1.08h-.16v-.17c0-1,0-2.12,0-3.24v-3.4h0l.18-.18,16.78.06h.13v.12c0,2.05,0,3.72-.06,4.92,0,.54,0,1,0,1.3A2.23,2.23,0,0,1,181.08,373.46Z"></path></g><g style="opacity:0.30000000000000004"><rect x="171.87" y="360.17" width="16.79" height="6.66"></rect></g><g style="opacity:0.30000000000000004"><path d="M79.65,352.88a3.23,3.23,0,0,1,0-.48c0-.34,0-.79,0-1.34,0-1.18,0-2.82-.07-4.84l.13.12-16.79.05.17-.17h0v6.64l-.17-.17,12,.08,3.51,0,1,0,.35,0-.31,0-.91,0L75,353l-12.1.08h-.17v-.17c0-1,0-2.12,0-3.24v-3.4h0l.18-.18,16.79.06h.12v.12c0,2,0,3.72-.07,4.92,0,.54,0,1,0,1.3S79.65,352.89,79.65,352.88Z"></path></g><g style="opacity:0.30000000000000004"><path d="M150.42,271.52a3.4,3.4,0,0,1,0-.48c0-.34,0-.79,0-1.34,0-1.18,0-2.82-.06-4.84l.12.12-16.79,0c-.15.16.22-.21.18-.17h0v3.4c0,1.12,0,2.2,0,3.24l-.17-.17,12,.08,3.51.05,1,0,.34,0a1.57,1.57,0,0,1-.3,0l-.92,0-3.47.05-12.1.08h-.17v-6.81h0l.17-.18,16.79.05h.12v.13c0,2.05,0,3.72-.06,4.91,0,.55,0,1,0,1.31A2.23,2.23,0,0,1,150.42,271.52Z"></path></g><g style="opacity:0.30000000000000004"><path d="M251.52,281.59s0-.18,0-.49,0-.78,0-1.33c0-1.18,0-2.82-.07-4.84l.12.12-16.78.05.17-.17h0v3.4c0,1.12,0,2.2,0,3.24l-.16-.17,12,.08,3.51.05,1,0a1.3,1.3,0,0,1,.34,0,1.45,1.45,0,0,1-.3,0l-.91,0-3.47.05-12.1.08h-.17v-.17c0-1,0-2.12,0-3.24V275h0s.33-.34.18-.18l16.78.05h.13v.13c0,2.05-.05,3.71-.07,4.91,0,.54,0,1,0,1.31A2.23,2.23,0,0,1,251.52,281.59Z"></path></g><g style="opacity:0.30000000000000004"><path d="M278,344.38a3.47,3.47,0,0,1,0-.49c0-.34,0-.78,0-1.33,0-1.18,0-2.83-.07-4.84l.12.12-16.78.05.17-.17h0v6.64l-.17-.17,12,.08,3.51,0,1,0a1.5,1.5,0,0,1,.35,0l-.31,0-.91,0-3.47.05-12.1.08h-.17v-.17c0-1,0-2.13,0-3.24v-3.4h0s.34-.34.18-.18l16.78,0h.13v.13c0,2-.05,3.71-.07,4.91,0,.54,0,1,0,1.31S278,344.39,278,344.38Z"></path></g><g style="opacity:0.30000000000000004"><rect x="171.61" y="282.79" width="16.79" height="6.66"></rect></g><g style="opacity:0.30000000000000004"><rect x="251.52" y="268.43" width="16.79" height="6.66"></rect></g><rect x="201.88" y="349.88" width="36.96" height="36.96" style="fill:#263238"></rect><path d="M179.9,145.87h9.89a1.69,1.69,0,0,1,1.69,1.69h0a1.69,1.69,0,0,1-1.69,1.69H179.9a1.68,1.68,0,0,1-1.69-1.69h0A1.69,1.69,0,0,1,179.9,145.87Z" style="fill:#455a64"></path><path d="M182.05,143.86c-3.4-8.11-6.8-17.37-3.22-25.4,1.25-2.81,3.32-5.29,4-8.28,1-4-.63-8.18-1-12.31-.9-10.57,7.86-21,18.43-22a27,27,0,0,1,24.42-32.8c3.74-.26,7.69.22,11.09-1.36,2.92-1.37,5-4.07,7.24-6.36,11.14-11.2,30.64-12.68,43.34-3.3,7.42-1.32,15.27-1.75,22.31.94s13.06,9.1,13.37,16.63a21,21,0,0,1,12.15,19.65A21,21,0,0,1,320.3,87.71,22,22,0,0,1,285.13,109a19.6,19.6,0,0,1-31.49,9c-.86-.74-1.78-1.61-2.91-1.62-2.18,0-3,2.76-3.56,4.86-2.57,9.27-14.42,14.62-23.07,10.4-.44,7.51-8.66,13.51-15.94,11.64-2.61-.67-4.92-2.14-7.4-3.18s-5.37-1.65-7.82-.54-3.94,4.48-2.32,6.63" style="fill:#ebebeb"></path><path d="M381.49,40.71a7.75,7.75,0,0,0-8.65-3.51c3.47-2.6,2.74-8.66-.86-11.08s-8.74-1.47-12,1.37a7.39,7.39,0,0,0-14.08,4.14A10.32,10.32,0,0,0,341,42.77a10.24,10.24,0,0,0,12.81,6.7c-3.37,2.62-3.38,8.31-.35,11.32s8.23,3.21,11.82.9a12.91,12.91,0,0,0,5.49-11,7.54,7.54,0,0,0,10.72-10Z" style="fill:#ebebeb"></path><path d="M137.63,55a8.16,8.16,0,0,0-1,9.76c-3.64-2.72-9.54-.17-10.9,4.17s1.12,9.25,5,11.69a7.76,7.76,0,0,0,8.37,13c3.3,3.13,8.76,4,12.69,1.61a10.76,10.76,0,0,0,2.93-14.9c3.64,2.62,9.38.93,11.51-3S167,68,163.6,65.08a13.59,13.59,0,0,0-12.7-2.25A7.92,7.92,0,0,0,137.63,55Z" style="fill:#f5f5f5"></path><path d="M436.37,71.9a4.85,4.85,0,0,0-.57,5.8c-2.16-1.62-5.66-.1-6.47,2.47s.67,5.49,2.95,6.94a4.6,4.6,0,0,0,5,7.68,6.1,6.1,0,0,0,9.27-7.89c2.17,1.56,5.57.55,6.83-1.79a6.08,6.08,0,0,0-1.55-7.23,8.05,8.05,0,0,0-7.54-1.34,4.7,4.7,0,0,0-7.88-4.64Z" style="fill:#f5f5f5"></path><path d="M435.65,38.72a6.34,6.34,0,1,1-6.33-6.33A6.34,6.34,0,0,1,435.65,38.72Z" style="fill:#f5f5f5"></path><path d="M95.53,52.64a6.34,6.34,0,1,1-6.34-6.33A6.34,6.34,0,0,1,95.53,52.64Z" style="fill:#f5f5f5"></path><path d="M407.86,89.63c-3.72-5.79-10.6-9.14-17.48-9.52a22.61,22.61,0,0,0-36.71.68,19.14,19.14,0,0,0-4.42-4.65c-8.17-6-19.52-3.55-29.28-.85a28.22,28.22,0,0,0-41,1.24c-4,4.54-6.9,10.62-12.5,13s-11.8.2-17.67,1.12a17.77,17.77,0,0,0-14.15,12.88c-1.1,4.32-.55,9.11-2.66,13-2.21,4.1-6.75,6.27-10.13,9.47-7.69,7.31-8.11,21.81-1,29.68h14.68l2.07-9.88c5.6,5.42,16.37,3.51,19.75-3.52,1-2,1.44-4.28,3-5.78,2.31-2.18,6.12-1.8,8.91-.28s5,3.93,7.62,5.72a20.17,20.17,0,0,0,31.34-19.52c8.55,4.34,18.09,7.43,27.62,6.53,6.81,2.15,15.39-1.25,18-8.06,6.67,1.74,13.6,3.5,20.4,2.35s13.49-6.08,14.38-12.92c5,4.76,13.91,3.78,18.41-1.44S411.59,95.42,407.86,89.63Z" style="fill:#f5f5f5"></path></g><g id="Character"><path d="M307.15,427.74l-15.77,14.95s15.57,17.77,13.56,21.45L267,442.24l23.5-26.41Z" style="fill:#455a64"></path><g style="opacity:0.6000000000000001"><path d="M280.91,433.87a1.79,1.79,0,0,0-2.13,1.07,1.73,1.73,0,0,0,1,2.13,1.89,1.89,0,0,0,2.26-1.15,1.8,1.8,0,0,0-1.33-2.09" style="fill:#fff"></path></g><g style="opacity:0.6000000000000001"><path d="M267,442.24l2.39-2.69,35.39,22.1a3,3,0,0,1,.21,2.88Z" style="fill:#fff"></path></g><path d="M292.1,442.88c-.12.18-1.08-.31-2.34-.29s-2.21.49-2.33.31.81-1,2.33-1S292.24,442.74,292.1,442.88Z" style="fill:#263238"></path><path d="M295,446.93c-.07.21-1.05,0-2.15.4s-1.78,1.08-2,1,.36-1.22,1.73-1.67S295.08,446.76,295,446.93Z" style="fill:#263238"></path><path d="M294.26,453c-.19-.06.13-1.13,1.22-1.83s2.18-.56,2.16-.36-.87.4-1.76,1S294.45,453.08,294.26,453Z" style="fill:#263238"></path><path d="M294.52,438.3c-.18.12-.86-.65-1.92-1.23s-2.07-.75-2.07-1,1.18-.37,2.42.32S294.7,438.21,294.52,438.3Z" style="fill:#263238"></path><path d="M297,434.48c-.05.08-.83-.26-1.85-1.17a10.15,10.15,0,0,1-1.57-1.82,8.72,8.72,0,0,1-.71-1.24,2.42,2.42,0,0,1-.29-.79.94.94,0,0,1,.52-1,1.18,1.18,0,0,1,1.06.08,2.65,2.65,0,0,1,.63.54,8.43,8.43,0,0,1,.91,1.12,8,8,0,0,1,1,2.2,3.65,3.65,0,0,1,.14,2.19c-.12,0-.18-.82-.64-2a9.23,9.23,0,0,0-1.07-2,8,8,0,0,0-.87-1c-.32-.35-.66-.56-.87-.45s-.1.07-.09.23a2.24,2.24,0,0,0,.22.58,11.9,11.9,0,0,0,.62,1.18,12.66,12.66,0,0,0,1.37,1.82C296.41,433.9,297.07,434.39,297,434.48Z" style="fill:#263238"></path><path d="M296.61,434.6a3.55,3.55,0,0,1,.64-2.11,7,7,0,0,1,1.53-1.87,6.89,6.89,0,0,1,1.18-.83,1.82,1.82,0,0,1,1.78-.2,1,1,0,0,1,.45,1,3.15,3.15,0,0,1-.24.8,4.51,4.51,0,0,1-.79,1.25,5,5,0,0,1-2,1.42,2.8,2.8,0,0,1-2.19.18,18.47,18.47,0,0,0,2-.66,5,5,0,0,0,1.68-1.37,4.44,4.44,0,0,0,.65-1.1c.18-.43.24-.84.06-.89a1.24,1.24,0,0,0-1,.2,7.1,7.1,0,0,0-1.09.72,7.85,7.85,0,0,0-1.53,1.62C297,433.83,296.73,434.63,296.61,434.6Z" style="fill:#263238"></path><path d="M425.85,429l3.77,20.29s22.46,7.35,22.61,11.54l-42.75.51L406.32,429Z" style="fill:#455a64"></path><g style="opacity:0.6000000000000001"><path d="M413,448.69a1.79,1.79,0,0,0-1.29,2,1.72,1.72,0,0,0,2,1.29,1.88,1.88,0,0,0,1.36-2.13,1.78,1.78,0,0,0-2.21-1.12" style="fill:#fff"></path></g><g style="opacity:0.6000000000000001"><path d="M409.48,461.36l-.68-3.11,42,.54a3,3,0,0,1,1.64,2.38Z" style="fill:#fff"></path></g><path d="M430.33,449.11c0,.21-1.08.28-2.15.94s-1.66,1.55-1.85,1.46.15-1.32,1.46-2.1S430.38,448.91,430.33,449.11Z" style="fill:#263238"></path><path d="M434.88,451.13c0,.21-.9.54-1.65,1.43s-1,1.84-1.19,1.82-.32-1.22.63-2.31S434.88,450.92,434.88,451.13Z" style="fill:#263238"></path><path d="M437.34,456.69c-.19,0-.46-1,.12-2.19s1.59-1.6,1.68-1.42-.55.79-1,1.75S437.56,456.68,437.34,456.69Z" style="fill:#263238"></path><path d="M428.55,444.38c-.09.19-1.07-.13-2.28-.08s-2.16.41-2.27.22.82-.92,2.25-1S428.66,444.22,428.55,444.38Z" style="fill:#263238"></path><path d="M334.71,276.17c-.7.48-11.22,25.49-7.06,36.91l-5.91,43.86s-15.86,25.19-19.05,28.85-23.9,39.42-23.9,39.42l23.37,20.16s40.64-53.08,47.17-62.51c10.25-14.78,22.34-70.2,22.34-70.2l8.61-32.84Z" style="fill:#263238"></path><path d="M359.12,316.64c.71,1.3,32.34,49.93,32.34,49.93s4.8,25.76,5.87,37.13,8.84,40.57,8.84,40.57l25.46-2s-6.89-75.22-11.14-89.88-16.1-43-16.1-43L391.82,278l-26.2,5.41Z" style="fill:#263238"></path><path d="M377.13,290.86a5.93,5.93,0,0,1-.16.79c-.14.55-.32,1.29-.55,2.23-.5,2-1.21,4.76-2.08,8.18-1.78,6.91-4.25,16.44-7.12,26.94s-5.67,19.95-7.8,26.75c-1.07,3.41-1.95,6.15-2.59,8-.31.92-.55,1.64-.74,2.18a7.64,7.64,0,0,1-.28.75,4.2,4.2,0,0,1,.19-.78c.17-.54.38-1.28.66-2.2l2.44-8.08c2-6.83,4.79-16.29,7.66-26.79s5.39-20,7.25-26.89c.94-3.41,1.7-6.18,2.23-8.15.27-.92.48-1.66.64-2.21A3.9,3.9,0,0,1,377.13,290.86Z" style="fill:#455a64"></path><path d="M351.9,144.3a10.45,10.45,0,0,0-1.53,5.86c0,2,1.36,6.13,4.95,6.36-1,5.78,2.69,10.07,8.86,10.12s13.28-10.5,19-12.79l16.61-4.28c1.45-.34,2.06-2.11,2-3.6s-.4-3.05.14-4.45c.73-1.91,3-2.93,3.73-4.83.87-2.16-.45-4.57-2-6.33s-3.4-3.43-3.87-5.71c-.44-2.1.38-4.46-.66-6.33-1.27-2.31-4.65-2.62-6.2-4.75-.75-1-1-2.37-1.73-3.41-1.26-1.77-3.72-2.24-5.89-2s-4.25,1-6.42,1.14c-3,.2-6-.78-8.91.07-3.15.93-5.09,3.72-7.15,6.42l-2.69,3.12a11.75,11.75,0,0,1-1.78,1.45,20.47,20.47,0,0,0-3.39,2.15,5.27,5.27,0,0,0,.32,7.59,5.64,5.64,0,0,0-3.81,5.52s-.31,2.74,1.43,4A3.8,3.8,0,0,0,351.9,144.3Z" style="fill:#263238"></path><path d="M363,150a77.49,77.49,0,0,1-3.27-12.84,26.76,26.76,0,0,1,1.13-13.09c.23-.62,2.25-4.83,2.91-4.76.48,0-.77,4-.53,4.39A22.78,22.78,0,0,1,365.71,137,60.47,60.47,0,0,1,363,150" style="fill:#263238"></path><path d="M376.8,193.51c-9.78-1.29-13.93-21.91-13.93-21.91l-.23-38.5c-.3-11.09,5.91-20.5,17-20.49l1,.06A19.82,19.82,0,0,1,399.32,132c.2,9.62.31,20.24-.06,25.37C398.5,168,387.78,169,387.78,169s0,2.92.07,6c.35,11.31-1.41,16.6-4.15,16.34Z" style="fill:#fc9585"></path><path d="M387.78,169a25.79,25.79,0,0,1-13.6-4.91s2.92,7.92,13.58,7.6Z" style="fill:#bb6c61"></path><path d="M393.55,141.09a1.53,1.53,0,0,1-1.55,1.45,1.45,1.45,0,0,1-1.48-1.46,1.52,1.52,0,0,1,1.55-1.45A1.45,1.45,0,0,1,393.55,141.09Z" style="fill:#263238"></path><path d="M396.79,136.31c-.2.19-1.3-.73-2.94-.82s-2.87.65-3,.44.13-.44.68-.79a4.17,4.17,0,0,1,2.45-.6,4.07,4.07,0,0,1,2.32.9C396.74,135.86,396.88,136.23,396.79,136.31Z" style="fill:#263238"></path><path d="M378.8,141a1.52,1.52,0,0,1-1.55,1.44,1.45,1.45,0,0,1-1.48-1.46,1.53,1.53,0,0,1,1.55-1.45A1.46,1.46,0,0,1,378.8,141Z" style="fill:#263238"></path><path d="M380.75,136c-.2.19-1.3-.73-2.93-.82s-2.88.65-3,.44.13-.44.67-.79a4.29,4.29,0,0,1,2.45-.6,4,4,0,0,1,2.32.91C380.7,135.57,380.85,135.94,380.75,136Z" style="fill:#263238"></path><path d="M385.87,148.92a10.54,10.54,0,0,1,2.68-.33c.42,0,.82-.07.9-.35a2.13,2.13,0,0,0-.2-1.26q-.5-1.54-1.05-3.24c-1.44-4.63-2.46-8.41-2.27-8.47s1.51,3.64,2.95,8.26q.53,1.71,1,3.27a2.41,2.41,0,0,1,.12,1.65,1,1,0,0,1-.72.56,2.65,2.65,0,0,1-.71.06A11.12,11.12,0,0,1,385.87,148.92Z" style="fill:#263238"></path><path d="M380.6,128.85c0,.47-1.66.72-3.44,1.47s-3.13,1.68-3.48,1.37c-.16-.15,0-.63.46-1.22a6.3,6.3,0,0,1,2.39-1.69,6.21,6.21,0,0,1,2.89-.47C380.17,128.39,380.61,128.63,380.6,128.85Z" style="fill:#263238"></path><path d="M396.27,131.22c-.35.31-1.38-.3-2.7-.59s-2.51-.26-2.69-.69c-.07-.21.18-.54.74-.78A3.83,3.83,0,0,1,394,129a3.72,3.72,0,0,1,2,1.17C396.36,130.66,396.43,131.07,396.27,131.22Z" style="fill:#263238"></path><path d="M363,141c-.18-.09-7.17-2.59-7.37,4.68s7.15,6,7.17,5.77S363,141,363,141Z" style="fill:#fc9585"></path><path d="M360.69,148.65s-.13.09-.35.18a1.25,1.25,0,0,1-.94,0A3.15,3.15,0,0,1,358,146a4.15,4.15,0,0,1,.41-1.8,1.45,1.45,0,0,1,1-.95.63.63,0,0,1,.73.37c.1.2.05.35.08.36s.16-.12.11-.42a.75.75,0,0,0-.27-.46,1,1,0,0,0-.7-.21A1.8,1.8,0,0,0,358,144a4.28,4.28,0,0,0-.5,2c0,1.47.72,2.86,1.77,3.19a1.32,1.32,0,0,0,1.16-.16C360.67,148.83,360.72,148.67,360.69,148.65Z" style="fill:#bb6c61"></path><path d="M394.83,119.89c1.19-.63-2.27-4.51-5.15-5.87-4.33-2.07-11-3.42-15.05-2.35-4.88,1.29-9,3.63-11.48,8a28.63,28.63,0,0,0-3.48,14.56,8.59,8.59,0,0,0,.94,4.46c1,1.63,2.92,2.68,2.8,4.9a3.07,3.07,0,0,0,.71,2.24c1.31,1.44,3,.14,3.73-1.18,1.66-2.83,1.9-6.23,2.1-9.49a21.17,21.17,0,0,0-.34-6.93c-.33-1.22-.88-2.38-1.15-3.61a4.39,4.39,0,0,1,.59-3.63,4.2,4.2,0,0,1,.6-.59,7.62,7.62,0,0,1,7.56-1.29c4.07,1.52,11,3.82,12.88,2.46a11.16,11.16,0,0,0,3.32-3.24Z" style="fill:#263238"></path><path d="M375,110.69a16,16,0,0,1,12.28.9,8.3,8.3,0,0,1,4.3,4.92c.57,2.16-.4,4.8-2.49,5.61l-.14.08c-3.13,1-5.14.54-8.21-.59-2.59-1-4.88-2.6-7.47-3.54a14.87,14.87,0,0,0-8.66-.41A24.26,24.26,0,0,1,375,110.69Z" style="fill:#263238"></path><path d="M361.15,117.81c.06.06.65-.63,1.84-1.45a10.54,10.54,0,0,1,2.21-1.17,6.86,6.86,0,0,1,3-.48,10,10,0,0,1,5.06,2.12c1.12.9,1.64,1.66,1.71,1.6a1.73,1.73,0,0,0-.32-.56,7.66,7.66,0,0,0-1.17-1.3,9.37,9.37,0,0,0-5.24-2.34,6.88,6.88,0,0,0-3.17.55,9.4,9.4,0,0,0-2.25,1.3A5.5,5.5,0,0,0,361.15,117.81Z" style="fill:#455a64"></path><path d="M383.37,110.08a19.08,19.08,0,0,0,1.92.73,15.82,15.82,0,0,1,7.44,6.2c.68,1.06,1,1.79,1.07,1.76a5.68,5.68,0,0,0-.78-1.94,13.7,13.7,0,0,0-7.61-6.34A5.44,5.44,0,0,0,383.37,110.08Z" style="fill:#455a64"></path><path d="M400.35,174.61s13.72,25.2,19.55,42.4c2.71,8-1.93,24.66-13.93,22.46s-14.89-16.23-14.89-16.23l8.42-6-9.93-38.51Z" style="fill:#fc9585"></path><path d="M390.31,182c1.23.57,10,36.85,10,36.85l-10.75,18.8-14.63-21.93,13.74-33.06Z" style="fill:#FF725E"></path><g style="opacity:0.30000000000000004"><path d="M393.81,229.86c3.19-10.89,1.83-18.45-2.73-31.1Z"></path></g><path d="M362.35,163.12l-3.1,4.87s-12.12,5-13.21,6.1c-2.42,2.48-13.47,59.61-13.47,59.61l.48,39a4.5,4.5,0,0,0,4.11,4.43l50.53,4.48a4.9,4.9,0,0,0,4.13-3.61c.78-2.73,1.7-41,2-56,.07-4-.69-12.57-.66-12.31l-4-23.63-.42-3.4,2.13-.28-1.24-3.14-1.68-2.33-1.45,6.36-4.79-7.19Z" style="fill:#FF725E"></path><g style="opacity:0.30000000000000004"><path d="M337.83,228.88c-2.24,3.18-4.38,6.56-5.26,10.36-1,4.2-.32,8.59.44,12.83a239.7,239.7,0,0,0,7,28.7l3.25,6.34c2.5-13.15-.45-26.63-1.62-40-.33-3.85-.51-7.81.63-11.51,1.24-4,3.9-7.34,6.21-10.81a72.4,72.4,0,0,0,8.57-17.62A130.07,130.07,0,0,0,337.83,228.88Z"></path></g><path d="M386.41,183.56a2.38,2.38,0,0,1-.46-.44l-1.19-1.32L380.57,177l.37-.05c-.8,1.83-2.17,3.65-3.16,5.79l-.12.27-.25-.15c-1.13-.71-2.29-1.46-3.46-2.27s-2.15-1.63-3.13-2.43L368,175.79l-4.77-4L360,169.1a8.75,8.75,0,0,1-1.13-1,9.48,9.48,0,0,1,1.25.9l3.3,2.58,4.84,3.89,2.85,2.31c1,.81,2,1.65,3.09,2.4s2.32,1.56,3.44,2.26l-.37.12c1.05-2.23,2.44-4,3.23-5.77l.14-.32.22.27c1.64,2,3,3.68,4.05,4.95l1.1,1.39C386.3,183.36,386.43,183.54,386.41,183.56Z" style="fill:#263238"></path><path d="M354.66,172.82s-10.93-3.39-21.69,15.37c-9.43,16.45-13.41,23.72-13.41,23.72L345.28,227s16.7-26.95,19.11-33.11S364.38,178,354.66,172.82Z" style="fill:#FF725E"></path><path d="M364.39,193.92a3.78,3.78,0,0,1-.26.7c-.17.46-.48,1.12-.89,2-.83,1.69-2.11,4.11-3.79,7.09-3.35,6-8.23,14.19-14,23.48l-.13.22-.21-.13L337,222.49l-17.59-10.37-.2-.12.11-.2,9.77-17.09c1.19-2,2.13-3.67,2.81-4.82l.75-1.27a3.24,3.24,0,0,1,.29-.43,2.23,2.23,0,0,1-.22.47l-.69,1.3c-.65,1.17-1.56,2.82-2.69,4.89L319.76,212l-.08-.32L337.29,222l8.12,4.77-.35.09c5.74-9.28,10.67-17.47,14.1-23.38,1.72-3,3-5.35,3.92-7,.44-.83.77-1.48,1-1.93A4.9,4.9,0,0,1,364.39,193.92Z" style="fill:#263238"></path><path d="M365.46,189.07a25.4,25.4,0,0,0-.33-4.14A14.24,14.24,0,0,0,351,173.26a24.3,24.3,0,0,0-4.13.47,3.84,3.84,0,0,1,1.07-.39,12.62,12.62,0,0,1,3.06-.45,14.14,14.14,0,0,1,14.52,12,13,13,0,0,1,.15,3.09A5,5,0,0,1,365.46,189.07Z" style="fill:#263238"></path><path d="M380.74,176.83l-3.19,5.78L361,169.82c3.67,3.66,15.07,15,17.59,15.6l2.64-5.86,3.1,1.66Z" style="opacity:0.30000000000000004"></path><path d="M389.1,186.23a11.82,11.82,0,0,1,.41,1.72c.24,1.19.55,2.78.94,4.71.75,4,1.77,9.51,2.55,15.66a117.52,117.52,0,0,1,1,15.84c0,2-.11,3.68-.21,4.81a13.54,13.54,0,0,1-.2,1.75,9.94,9.94,0,0,1,0-1.76c0-1.13.06-2.78,0-4.8a138.33,138.33,0,0,0-1.14-15.78c-.78-6.13-1.73-11.65-2.4-15.65-.31-1.94-.57-3.54-.77-4.75A10.48,10.48,0,0,1,389.1,186.23Z" style="fill:#263238"></path><path d="M368.1,204.41s-.08.37-.24,1-.41,1.59-.71,2.73c-.64,2.37-1.52,5.67-2.6,9.66l0-.17,5.54,8.76-.27-.11,8.44-2.26,1.86-.5-.18.18c1.35-5,2.61-9.79,3.7-13.89l.15.27-11.31-4-3.2-1.17-.86-.33a1.13,1.13,0,0,1-.3-.13s.37.1,1.1.33l3.19,1,11.52,3.87.2.06-.05.21c-1.08,4.1-2.31,8.84-3.64,13.91l0,.14-.14,0-1.86.5-8.45,2.25-.18,0-.1-.16-5.48-8.8-.05-.08,0-.09L367,208l.8-2.65A5.88,5.88,0,0,1,368.1,204.41Z" style="fill:#263238"></path><path d="M382.77,213.92a66.11,66.11,0,0,1-8-2.28,67.47,67.47,0,0,1-7.89-2.78,68.94,68.94,0,0,1,8.05,2.29A66.66,66.66,0,0,1,382.77,213.92Z" style="fill:#263238"></path><path d="M390.31,182c-.06,0-.32-.31-.73-.9s-.95-1.48-1.59-2.25l.42-.13-.12.5a12,12,0,0,1-1.71,4.17c-.14-.06.59-1.93,1.2-4.3.05-.17.09-.33.13-.49l.12-.47.31.34a8.78,8.78,0,0,1,.92,1.35c.24.41.45.78.62,1.1C390.21,181.55,390.37,182,390.31,182Z" style="fill:#263238"></path><path d="M373.1,148.39,389.78,145l9.7,5.62s3,16.91-11.7,18.39c0,0-14.24-.09-18.1-12.51Z" style="fill:#455a64"></path><path d="M374.88,149.57a60.94,60.94,0,0,1-6.56-4.33,61,61,0,0,1-6.26-4.74,58.13,58.13,0,0,1,6.56,4.32A57.3,57.3,0,0,1,374.88,149.57Z" style="fill:#455a64"></path><path d="M370.41,157a21.94,21.94,0,0,1-4.1-2.48,22.07,22.07,0,0,1-3.81-2.91,21.94,21.94,0,0,1,4.1,2.48A21.51,21.51,0,0,1,370.41,157Z" style="fill:#455a64"></path><path d="M393.23,152.65s1.91-1.29,2.94-.19,1.17,3.81,2.24,4.37,1,2.86,1,2.86l-3.78-2Z" style="fill:#fc9585"></path><path d="M400.3,163.62s.52-3.11-1.61-4.53c0,0-5-4.2-6.74-4.71s-8.4-2.69-9.15.28v.94s-2.88-.89-4,.05a2.76,2.76,0,0,0-.9,2.31,2,2,0,0,0-.88,2.21,3.71,3.71,0,0,0,1.35,1.85s-1.65,1.15-.66,2.42a1.92,1.92,0,0,0,.71.55l4.46,2.69,3.37,2s.24,5.47.71,6.7,4.15,3.59,4.15,3.59l9.2-5.38Z" style="fill:#fc9585"></path><path d="M392.85,164.18c-.08.14-3.13-1.81-7.23-3.46s-7.63-2.44-7.59-2.59a8.52,8.52,0,0,1,2.34.37,35.13,35.13,0,0,1,5.44,1.74,34.41,34.41,0,0,1,5.11,2.56A8.59,8.59,0,0,1,392.85,164.18Z" style="fill:#bb6c61"></path><path d="M390.1,167.62c-.05,0-.09-.17-.29-.42a4.23,4.23,0,0,0-1-.87,24.26,24.26,0,0,0-4.11-2c-3.34-1.33-6.14-2.2-6.1-2.35a25.86,25.86,0,0,1,6.3,1.87A17.77,17.77,0,0,1,389,166a3.69,3.69,0,0,1,1,1.06C390.14,167.41,390.13,167.62,390.1,167.62Z" style="fill:#bb6c61"></path><path d="M395.09,161.66a6.35,6.35,0,0,1-1.63-1.23,12.65,12.65,0,0,0-3.93-2.68c-1.74-.69-3.46-1-4.64-1.44a5.14,5.14,0,0,1-1.86-.85,16.15,16.15,0,0,1,2,.5,36.12,36.12,0,0,1,4.73,1.31,11,11,0,0,1,4,2.9A11.27,11.27,0,0,1,395.09,161.66Z" style="fill:#bb6c61"></path><path d="M400.23,167.05a11.29,11.29,0,0,1-.11-1.94c0-.6-.05-1.31-.1-2.09a13.86,13.86,0,0,0-.34-2.46,5.54,5.54,0,0,0-.81-.93c-.3-.31-.6-.59-.89-.86-.57-.53-1.12-1-1.59-1.35a10.86,10.86,0,0,1-1.51-1.21,5.32,5.32,0,0,1,1.73.91,18.22,18.22,0,0,1,1.69,1.29c.31.27.62.55.93.86a4.9,4.9,0,0,1,.93,1.08,11.58,11.58,0,0,1,.34,2.64c0,.8,0,1.52,0,2.12A5.29,5.29,0,0,1,400.23,167.05Z" style="fill:#bb6c61"></path><path d="M394.47,155.5c-.15.05-.89-2-2-4.44s-2.25-4.31-2.12-4.39a14.52,14.52,0,0,1,2.59,4.17A14.88,14.88,0,0,1,394.47,155.5Z" style="fill:#263238"></path><path d="M405.85,230.18a4,4,0,0,1-.49-.58c-.3-.4-.73-1-1.24-1.79a35.29,35.29,0,0,1-3.54-7.18,53.69,53.69,0,0,1-1.53-5.32c-.49-1.92-1-4-1.57-6.13-1.11-4.32-2.32-9.07-3.59-14.05-1.35-5.39-2.64-10.5-3.8-15.09l.07.11c-.79-.8-1.53-1.58-2.25-2.36-.35-.39-.7-.78-1-1.18a3.2,3.2,0,0,1-.55-1.49,30.11,30.11,0,0,1-.23-5.42l.09.15L380,165.93l-1.66-1.08a2.75,2.75,0,0,1-.56-.41,4.48,4.48,0,0,1,.61.32l1.71,1,6.31,3.79.09,0v.11a30.32,30.32,0,0,0,.28,5.34,2.78,2.78,0,0,0,.48,1.28c.31.39.66.77,1,1.15q1.08,1.16,2.25,2.34l.05,0v.07c1.17,4.58,2.47,9.68,3.85,15.07,1.25,5,2.45,9.74,3.54,14.07l1.53,6.14a53.14,53.14,0,0,0,1.46,5.3,37.75,37.75,0,0,0,3.36,7.19c.49.81.89,1.42,1.16,1.84A5.72,5.72,0,0,1,405.85,230.18Z" style="fill:#bb6c61"></path><path d="M318.82,337.16s8.12-27.33,15.22-29.24,16.52-2.29,18.23,2.33a50.36,50.36,0,0,1,2.89,18.24c-.23,6.85-2.65,16.94-2.65,16.94l-7.29-2.18s5.43-27.73,3.92-32.25-13.57-3.31-15.73,1.41-9,26.43-9,26.43Z" style="fill:#455a64"></path><path d="M323.28,214.38s-8.53,16.38-9.33,20.81,9.74,37.82,15.68,55.64l13.31-3.18-7.06-51.91,6.32-10.21Z" style="fill:#fc9585"></path><path d="M285.73,371.75c2.45-11.44,8.17-36.6,10.7-47.66a5.76,5.76,0,0,1,6.68-4.38l68.32,12.89a5.76,5.76,0,0,1,4.63,6.53l-7.28,47.48a5.76,5.76,0,0,1-6.7,4.8l-71.73-12.79A5.75,5.75,0,0,1,285.73,371.75Z" style="fill:#455a64"></path><path d="M369.15,350.09s0,.17-.08.51-.16.87-.28,1.52c-.25,1.37-.62,3.36-1.09,5.9-1,5.17-2.38,12.61-4.11,21.8-.11.57-.22,1.16-.33,1.75a3.49,3.49,0,0,1-.74,1.74,3.19,3.19,0,0,1-1.64,1,4,4,0,0,1-2-.07l-7.82-1.43-17.25-3.18-19.06-3.52-10.08-1.87-5.16-1-1.3-.24a6.08,6.08,0,0,1-1.34-.33,3.22,3.22,0,0,1-1.9-3.36c.06-.42.15-.76.22-1.14.16-.75.31-1.49.46-2.24.3-1.48.61-3,.9-4.42.6-2.93,1.2-5.83,1.78-8.67,1.17-5.69,2.29-11.2,3.37-16.46l.05-.25.25.06c19.43,4.79,36.23,8.19,48.15,10.42,6,1.11,10.71,1.95,14,2.51l3.74.66.95.18.31.06a2.07,2.07,0,0,1-.35,0l-1-.14-3.71-.56c-3.26-.51-8-1.3-14-2.37-11.94-2.15-28.76-5.49-48.22-10.24l.3-.19L298.87,353l-1.77,8.67c-.3,1.47-.6,2.94-.9,4.43-.15.74-.3,1.48-.46,2.23a4.4,4.4,0,0,0-.15,2.14,2.7,2.7,0,0,0,1.53,1.78,5.4,5.4,0,0,0,1.23.3l1.3.24,5.15,1,10.08,1.87,19.06,3.56,17.24,3.22,7.82,1.47a3.74,3.74,0,0,0,1.78.08,2.82,2.82,0,0,0,1.45-.9,3,3,0,0,0,.65-1.56c.12-.59.23-1.16.34-1.74,1.81-9.13,3.28-16.52,4.29-21.66.52-2.55.92-4.54,1.19-5.92.14-.66.25-1.18.32-1.55S369.15,350.09,369.15,350.09Z" style="fill:#263238"></path><path d="M344,376.86s.42.06,1.22.05a6.15,6.15,0,0,0,3.26-1.1,6.3,6.3,0,0,0,2.58-4.67l1.35-7.28c.26-1.35.52-2.76.8-4.24a6.09,6.09,0,0,0-.46-4.4,5.75,5.75,0,0,0-3.66-2.9c-1.66-.35-3.42-.66-5.2-1l-23.2-4.43a5.75,5.75,0,0,0-5.37,1.82,5.65,5.65,0,0,0-1.31,2.56l-.57,2.93q-.57,2.91-1.11,5.71c-.18.93-.36,1.85-.53,2.77a24.58,24.58,0,0,0-.45,2.68,5.77,5.77,0,0,0,4,5.74c.76.22,1.6.34,2.38.5l8.82,1.73,12.75,2.53,3.46.71.9.2.31.09-.32,0-.91-.14-3.48-.62-12.78-2.37L317.64,372c-.8-.17-1.59-.27-2.43-.51a6.07,6.07,0,0,1-2.28-1.28,6.21,6.21,0,0,1-2.1-4.9,22.69,22.69,0,0,1,.45-2.76c.17-.91.35-1.83.53-2.77.35-1.86.71-3.77,1.08-5.71.19-1,.38-2,.58-2.94a6.14,6.14,0,0,1,1.42-2.79,6.28,6.28,0,0,1,5.86-2l23.19,4.47c1.79.35,3.51.66,5.22,1A6.18,6.18,0,0,1,353.1,355a6.51,6.51,0,0,1,.46,4.68c-.28,1.47-.56,2.88-.82,4.23-.53,2.69-1,5.12-1.44,7.27-.1.53-.2,1.05-.34,1.55a6.16,6.16,0,0,1-2.4,3.23,6.16,6.16,0,0,1-3.38,1A5.08,5.08,0,0,1,344,376.86Z" style="fill:#263238"></path><g style="opacity:0.30000000000000004"><path d="M296.65,372.46A111.06,111.06,0,0,0,359.26,384Z"></path></g><rect x="329.35" y="352.46" width="12.86" height="4.66" rx="1.9" transform="translate(72.86 -56.91) rotate(10.86)" style="fill:#e0e0e0"></rect><path d="M349.77,298.81a20,20,0,0,1,2.48,4c.55,1.57.86,8,.86,8s-1.33.82-2.78-2.8a30.65,30.65,0,0,1-1.74-5.35Z" style="fill:#fc9585"></path><path d="M341.93,284.76l1.84,5.28,6.11,8.92.77,11.73a5,5,0,0,1-1,3.46,1.82,1.82,0,0,1-.91.7c-.9.2-3-1.45-3-1.45s-2.11,1.83-3.73.23c0,0-2.91.88-4.14-.71,0,0-1.93,1-3,0s-3.75-6.95-3.75-6.95l-1.66-18.17Z" style="fill:#fc9585"></path><path d="M336.42,310c.14-.06.53.54.88,1.33s.52,1.48.39,1.54-.52-.54-.87-1.33S336.29,310,336.42,310Z" style="fill:#bb6c61"></path><path d="M340.12,309.47c.15,0,.47.94.94,2.11a7.75,7.75,0,0,1,.75,2.18c-.12.07-.76-.78-1.24-2A4.09,4.09,0,0,1,340.12,309.47Z" style="fill:#bb6c61"></path><path d="M344.38,309.48c.15,0,.34.87.64,1.92s.59,1.92.45,2-.64-.72-1-1.84S344.24,309.49,344.38,309.48Z" style="fill:#bb6c61"></path><path d="M350,302.65a19.15,19.15,0,0,1,.6,4.43,19.72,19.72,0,0,1,.07,4.47,39.06,39.06,0,0,1-.67-8.9Z" style="fill:#bb6c61"></path><path d="M336,307.64c.05.05,0,.22-.27.4a1.63,1.63,0,0,1-1.12.28,1.66,1.66,0,0,1-1-.53c-.19-.23-.22-.42-.17-.46s.56.39,1.25.47S335.92,307.53,336,307.64Z" style="fill:#bb6c61"></path><path d="M340.39,308c0,.06-.06.23-.34.39a2,2,0,0,1-1.2.24,2,2,0,0,1-1.13-.5c-.23-.22-.3-.41-.24-.45s.63.35,1.43.43S340.31,307.85,340.39,308Z" style="fill:#bb6c61"></path><path d="M348.59,306.37c0-.07.36.29.07.82a2.53,2.53,0,0,1-1.68,1,3,3,0,0,1-1.9-.26c-.44-.23-.63-.49-.59-.54a6,6,0,0,0,2.4.29,2.77,2.77,0,0,0,1.46-.69C348.62,306.69,348.53,306.4,348.59,306.37Z" style="fill:#bb6c61"></path></g></svg>