<svg xmlns="http://www.w3.org/2000/svg" viewBox="0 0 500 500"><g id="background-complete"><path d="M405,422.32a18.74,18.74,0,0,1,11.62-1.41c2.11.35,4.3,1,5.74,2.56s1.7,4.37.06,5.73a5.53,5.53,0,0,1-3.62.92c-3.07,0-6.48-.58-8.93,1.27-1.4,1.06-2.34,2.81-4,3.33a4,4,0,0,1-4.35-1.94,6.73,6.73,0,0,1-.49-5A7.61,7.61,0,0,1,405,422.32Z" style="fill:#ebebeb"></path><path d="M396.88,406.69c2.17,3.09,6.37,2.07,8.31.18s2.77-4.61,3.52-7.21c1.71-6,3.44-12.19,2.17-18.25a10.14,10.14,0,0,0-2.33-5,5.3,5.3,0,0,0-5-1.67c-2.12.56-3.44,2.63-4.39,4.6a43.72,43.72,0,0,0-4.3,18.67c0,3,.35,6.16,2,8.64" style="fill:#ebebeb"></path><path d="M391,411.12a11.22,11.22,0,0,0,1.75-10.33,19.93,19.93,0,0,0-6.12-8.88,33.14,33.14,0,0,0-11-6.47,11.82,11.82,0,0,0-4.93-.84,5.19,5.19,0,0,0-4.14,2.51c-1.15,2.2-.05,4.87,1.15,7a83.14,83.14,0,0,0,7.2,11c2.16,2.79,4.63,5.53,7.92,6.79s6.7,1.11,8.44-1.17" style="fill:#ebebeb"></path><path d="M396.74,453.25a7.21,7.21,0,0,0,.19-1.4c.1-1,.23-2.31.38-3.83a52.57,52.57,0,0,1,.86-5.62,42.36,42.36,0,0,1,2-6.62,24.63,24.63,0,0,1,3.38-6,12.52,12.52,0,0,1,4.28-3.55,11.61,11.61,0,0,1,3.6-1.12,7,7,0,0,0,1.4-.21,7.07,7.07,0,0,0-1.42,0,10.85,10.85,0,0,0-3.76,1,12.6,12.6,0,0,0-4.51,3.59,23.9,23.9,0,0,0-3.51,6.11,40.09,40.09,0,0,0-2,6.74,47,47,0,0,0-.75,5.68c-.12,1.63-.17,2.94-.19,3.85A6.56,6.56,0,0,0,396.74,453.25Z" style="fill:#e0e0e0"></path><path d="M397,450.3a3,3,0,0,0,0-.65v-1.86c0-1.61,0-4,.08-6.84.14-5.77.64-13.73,1.6-22.49s2.25-16.64,3.41-22.29c.28-1.42.56-2.7.82-3.81s.46-2.09.67-2.87.32-1.33.43-1.81a2.48,2.48,0,0,0,.12-.64,2.88,2.88,0,0,0-.23.61l-.54,1.78c-.24.78-.48,1.74-.77,2.85s-.59,2.39-.9,3.8a212.92,212.92,0,0,0-3.59,22.31c-1,8.78-1.39,16.77-1.43,22.56,0,2.89,0,5.23.1,6.85.05.75.08,1.37.11,1.86A3.29,3.29,0,0,0,397,450.3Z" style="fill:#e0e0e0"></path><path d="M397,434.89a13.09,13.09,0,0,0,0-1.94c-.07-1.25-.25-3.06-.6-5.27a72.64,72.64,0,0,0-4.92-16.75,48.38,48.38,0,0,0-9.42-14.67,23.68,23.68,0,0,0-2.22-2.06c-.34-.29-.64-.58-.95-.8s-.59-.41-.86-.6a11.86,11.86,0,0,0-1.63-1,55.27,55.27,0,0,1,5.36,4.78A50.79,50.79,0,0,1,391,411.16a72,72,0,0,1,3.23,9,77.34,77.34,0,0,1,1.82,7.59c.4,2.19.63,4,.77,5.22A12.92,12.92,0,0,0,397,434.89Z" style="fill:#e0e0e0"></path><path d="M430.67,151.45c4.07,2,7.58-2.46,7.58-2.46l-2.35-1.93c-1.8,2.81-6,1.73-6,1.73Z" style="fill:#e0e0e0"></path><path d="M218.77,195.62c-1.24-4.38-6.93-4-6.93-4l.15,3.05c3.29-.57,5.34,3.29,5.34,3.29Z" style="fill:#e0e0e0"></path><path d="M311.54,102.93c-1.24-4.38-6.93-4-6.93-4l.15,3c3.29-.57,5.34,3.29,5.34,3.29Z" style="fill:#e0e0e0"></path><path d="M361.5,65.41c-.84-3-4.7-2.68-4.7-2.68l.11,2.07c2.23-.39,3.62,2.23,3.62,2.23Z" style="fill:#e0e0e0"></path><path d="M275.21,68c-3.07.32-3.44,4.18-3.44,4.18l2.06.25c0-2.27,2.81-3.2,2.81-3.2Z" style="fill:#e0e0e0"></path><path d="M193.49,115.93c.44-3.06-3.2-4.37-3.2-4.37l-.75,1.93c2.2.56,2.4,3.51,2.4,3.51Z" style="fill:#e0e0e0"></path><path d="M309.34,40.78c4.07,2,7.58-2.46,7.58-2.46l-2.35-1.94c-1.8,2.82-6,1.73-6,1.73Z" style="fill:#e0e0e0"></path><path d="M225,71c-1.24-4.37-6.93-3.95-6.93-3.95l.16,3c3.29-.57,5.33,3.28,5.33,3.28Z" style="fill:#e0e0e0"></path><path d="M211.22,155.23c-1-4.71-7.41-3.77-7.41-3.77l-.07,3.34c3.71-.9,5.68,3.17,5.68,3.17Z" style="fill:#e0e0e0"></path><path d="M385.13,179.49c-1.24-4.38-6.93-4-6.93-4l.16,3.05c3.29-.57,5.33,3.28,5.33,3.28Z" style="fill:#e0e0e0"></path><path d="M265.35,124.47c.44-3.06-3.2-4.37-3.2-4.37L261.4,122c2.2.56,2.4,3.52,2.4,3.52Z" style="fill:#e0e0e0"></path><path d="M396.79,111.43c.44-3.06-3.2-4.37-3.2-4.37l-.75,1.93c2.2.56,2.4,3.52,2.4,3.52Z" style="fill:#e0e0e0"></path></g><g id="background-simple"><path d="M396.45,115.6c-22.19-22.55-56.17-32.79-87.12-26.24s-57.89,29.65-69,59.25c-6.57,17.41-8.4,37.46-20.86,51.28-16.21,18-43.74,18.55-67.95,17.8s-51.75-.11-67.88,17.95C73.48,246.94,70.27,263,71.08,278.17c2.16,40.09,30.45,75.94,66.43,93.76s78.34,19.41,117.72,11.57c55.17-11,107.63-41.13,139.16-87.71s39.51-110,14.28-160.3" style="fill:#f5f5f5"></path></g><g id="Floor"><path d="M446.72,452.83c0,.14-88.08.26-196.71.26S53.28,453,53.28,452.83s88.06-.26,196.73-.26S446.72,452.69,446.72,452.83Z" style="fill:#263238"></path></g><g id="Hearts"><path d="M389.34,223a29.48,29.48,0,0,1-10.07-7,13.89,13.89,0,0,1-4-7.4c-.36-2.83.92-6,3.54-7.14a6.51,6.51,0,0,1,6,.74,11,11,0,0,1,3.82,4.94A9.44,9.44,0,0,1,391.8,201a5.84,5.84,0,0,1,6.55-.67,6.17,6.17,0,0,1,2.6,5,13.75,13.75,0,0,1-1.32,5.71,36.8,36.8,0,0,1-8.75,12.53" style="fill:#455a64"></path><path d="M260.49,168.81a14.88,14.88,0,0,1-5-3.51,6.92,6.92,0,0,1-2-3.7,3.42,3.42,0,0,1,1.77-3.57,3.25,3.25,0,0,1,3,.37,5.44,5.44,0,0,1,1.91,2.47,4.71,4.71,0,0,1,1.57-3.06,2.88,2.88,0,0,1,3.27-.33,3,3,0,0,1,1.3,2.52,6.79,6.79,0,0,1-.66,2.85,18.52,18.52,0,0,1-4.37,6.27" style="fill:#455a64"></path></g><g id="Stars"><path d="M226.19,264.5a28,28,0,0,1-7.61,0,28,28,0,0,1,7.61,0Z" style="fill:#455a64"></path><path d="M230.24,252.39a39.42,39.42,0,0,1,0,9,39.42,39.42,0,0,1,0-9Z" style="fill:#455a64"></path><path d="M234.54,264.21a28,28,0,0,1,7.62,0,28,28,0,0,1-7.62,0Z" style="fill:#455a64"></path><path d="M230.5,276.32a39.33,39.33,0,0,1,0-9,39.33,39.33,0,0,1,0,9Z" style="fill:#455a64"></path><path d="M236.65,271.13c-.11.08-.81-.7-1.56-1.75s-1.26-2-1.14-2,.81.69,1.56,1.74S236.77,271,236.65,271.13Z" style="fill:#455a64"></path><path d="M236.3,257.4c.11.09-.43.91-1.21,1.82s-1.49,1.58-1.6,1.49.43-.91,1.2-1.82S236.19,257.3,236.3,257.4Z" style="fill:#455a64"></path><path d="M227.57,260.89c-.1.11-.78-.39-1.52-1.11s-1.26-1.39-1.16-1.49.78.4,1.52,1.12S227.67,260.79,227.57,260.89Z" style="fill:#455a64"></path><path d="M227.23,267c.11.08-.37.89-1.07,1.79s-1.37,1.57-1.49,1.48.37-.89,1.07-1.8S227.11,266.86,227.23,267Z" style="fill:#455a64"></path><path d="M386.85,269.46a10.62,10.62,0,0,1-4.76,0,11,11,0,0,1,4.76,0Z" style="fill:#455a64"></path><path d="M389.38,261.9a15.42,15.42,0,0,1,0,5.64,15.42,15.42,0,0,1,0-5.64Z" style="fill:#455a64"></path><path d="M392.07,269.28a11,11,0,0,1,4.75,0,11,11,0,0,1-4.75,0Z" style="fill:#455a64"></path><path d="M389.54,276.85a15.48,15.48,0,0,1,0-5.65,15.48,15.48,0,0,1,0,5.65Z" style="fill:#455a64"></path><path d="M393.39,273.6c-.12.09-.6-.38-1.06-1s-.75-1.25-.64-1.33.59.37,1.06,1S393.5,273.52,393.39,273.6Z" style="fill:#455a64"></path><path d="M393.16,265c.11.09-.19.63-.68,1.2s-1,1-1.07.87.19-.64.68-1.21S393.05,264.93,393.16,265Z" style="fill:#455a64"></path><path d="M387.71,267.21c-.1.1-.55-.18-1-.62s-.75-.9-.65-1,.56.17,1,.62S387.81,267.11,387.71,267.21Z" style="fill:#455a64"></path><path d="M387.5,271c.11.09-.15.62-.59,1.18s-.89.95-1,.86.15-.61.6-1.18S387.38,270.9,387.5,271Z" style="fill:#455a64"></path><path d="M345.39,113.34a12.59,12.59,0,0,1-5.09,0,12.59,12.59,0,0,1,5.09,0Z" style="fill:#455a64"></path><path d="M348.1,106.41a6.73,6.73,0,0,1,.26,2.58,6.76,6.76,0,0,1-.26,2.59,6.54,6.54,0,0,1-.26-2.59A6.51,6.51,0,0,1,348.1,106.41Z" style="fill:#455a64"></path><path d="M351,113.17a12.59,12.59,0,0,1,5.09,0,12.59,12.59,0,0,1-5.09,0Z" style="fill:#455a64"></path><path d="M348.27,120.1a6.73,6.73,0,0,1-.26-2.58,6.76,6.76,0,0,1,.26-2.59,6.54,6.54,0,0,1,.26,2.59A6.51,6.51,0,0,1,348.27,120.1Z" style="fill:#455a64"></path><path d="M352.39,117.13c-.11.09-.61-.32-1.11-.92s-.81-1.16-.7-1.25.6.32,1.1.92S352.5,117,352.39,117.13Z" style="fill:#455a64"></path><path d="M352.15,109.27c.1.1-.24.61-.76,1.13s-1,.87-1.12.77.24-.61.76-1.13S352.05,109.17,352.15,109.27Z" style="fill:#455a64"></path><path d="M346.31,111.27c-.09.11-.57-.13-1.06-.54s-.82-.84-.73-1,.57.14,1.06.55S346.4,111.16,346.31,111.27Z" style="fill:#455a64"></path><path d="M346.08,114.74c.11.09-.19.59-.66,1.11s-.94.86-1,.76.19-.6.66-1.11S346,114.64,346.08,114.74Z" style="fill:#455a64"></path><path d="M372.09,143.16l.25.6a4.24,4.24,0,0,0,2.33,2.3l.65.27-.62.25a4.3,4.3,0,0,0-2.35,2.35l-.18.44-.26-.55a4.23,4.23,0,0,0-2.38-2.15l-.57-.21.75-.36a4.25,4.25,0,0,0,2.07-2.19Z" style="fill:#455a64"></path><path d="M250.42,224.89l.25.6A4.29,4.29,0,0,0,253,227.8l.65.26-.62.26a4.24,4.24,0,0,0-2.35,2.35l-.18.44-.26-.55a4.25,4.25,0,0,0-2.38-2.16l-.57-.2.75-.36a4.31,4.31,0,0,0,2.07-2.2Z" style="fill:#455a64"></path><path d="M254,297.32l.13.31a2.11,2.11,0,0,0,1.16,1.15l.33.13-.32.13a2.13,2.13,0,0,0-1.17,1.17l-.09.22-.13-.27a2.14,2.14,0,0,0-1.19-1.08l-.28-.1.37-.18a2.15,2.15,0,0,0,1-1.1Z" style="fill:#455a64"></path></g><g id="character-2"><path d="M340.1,281c0-.13,0-.26,0-.34Z" style="fill:#b78876"></path><path d="M340.07,281.25q0-.18,0-.3C340.08,281.11,340.07,281.25,340.07,281.25Z" style="fill:#b78876"></path><path d="M355.46,438.86s-25.22-80.09-25.75-82.7c-.49-2.35,9.15-60,10.36-74.91L306,282.52v.25l-14.48.81,13,163.81h15.68L318.61,393c9.67,26,23.52,52.42,23.52,52.42Z" style="fill:#b78876"></path><path d="M340.13,280.57Z" style="fill:#b78876"></path><path d="M340.13,280.61v0Z" style="fill:#b78876"></path><path d="M319.25,412.52c0-.49-.19-18.21-.19-18.21s-6.4-16.25-6.53-15.74S319.25,412.52,319.25,412.52Z" style="fill:#aa7666"></path><path d="M331.73,157.82c1.81-2.51,5.91-2.34,8.22-.29s3.12,5.34,3.2,8.43c.08,2.87-.12,6.29,2.2,8a28,28,0,0,0,3.13,1.48,5.71,5.71,0,0,1,2.91,5c0,1.53-.62,3.28.38,4.44a7.64,7.64,0,0,0,2,1.22,6,6,0,0,1,2.47,5.62,10.84,10.84,0,0,1-1.43,4.82s-16.18-.16-23.54,0c0,0,.13-25.93.51-38.71" style="fill:#263238"></path><path d="M305.5,191.13c.05-1.82-.5-9-.5-9s-6.74-.66-7.22-7.51-.24-22.67-.24-22.67l12.21-6.28L323.35,156,322,191.2Z" style="fill:#b78876"></path><path d="M299,163.41a.88.88,0,0,0,.87.87.88.88,0,0,0,0-1.76A.88.88,0,0,0,299,163.41Z" style="fill:#263238"></path><path d="M298.17,162.46c.11.12.73-.44,1.65-.5s1.62.38,1.71.26-.07-.27-.37-.48a2.24,2.24,0,0,0-2.69.2C298.2,162.19,298.11,162.41,298.17,162.46Z" style="fill:#263238"></path><path d="M308.91,163.31a.86.86,0,1,0,1.71,0,.86.86,0,0,0-.86-.87A.87.87,0,0,0,308.91,163.31Z" style="fill:#263238"></path><path d="M308.37,162.36c.11.11.74-.45,1.66-.51s1.61.39,1.71.26-.07-.26-.38-.47a2.22,2.22,0,0,0-2.69.19C308.4,162.08,308.31,162.31,308.37,162.36Z" style="fill:#263238"></path><path d="M305.13,170.37a5.7,5.7,0,0,0-1.51-.19c-.23,0-.46,0-.5-.21a1.33,1.33,0,0,1,.12-.76c.2-.62.4-1.28.61-2a36.53,36.53,0,0,0,1.35-5.12,33.75,33.75,0,0,0-1.73,5c-.2.69-.39,1.34-.58,2a1.67,1.67,0,0,0-.08,1,.58.58,0,0,0,.41.34,1.43,1.43,0,0,0,.4,0A5.45,5.45,0,0,0,305.13,170.37Z" style="fill:#263238"></path><path d="M305,182.08a16.42,16.42,0,0,0,8.82-3.16s-1.95,5.05-8.65,4.84Z" style="fill:#aa7666"></path><path d="M333,162.41c-.08-.48.06.53,0-.23h0a25.65,25.65,0,0,0-.44-2.78c-3.8-14.26-16.07-16.79-18.49-16.77-2.6,0-10-.19-14.16,5a13.58,13.58,0,0,0-2.37,13.6h0l10.83-1.91c-.81-2.7.3-6.07.93-7.64l.06-.06c2.05,10.24,13.08,11.19,13.08,11.19l.14,16.36c8-1.16,10.64-10.81,10.45-16.75Z" style="fill:#263238"></path><path d="M325.59,163.8a3.16,3.16,0,0,1-.94.27,12.58,12.58,0,0,1-2.67.19,13.11,13.11,0,0,1-11.18-7,13.28,13.28,0,0,1-1.34-3.74,11.25,11.25,0,0,1-.23-2.66,2.84,2.84,0,0,1,.12-1,27.23,27.23,0,0,0,.47,3.55,13.8,13.8,0,0,0,4.36,7.23,13.41,13.41,0,0,0,4.06,2.35,14.11,14.11,0,0,0,3.77.83,15.53,15.53,0,0,0,2.61,0A3.73,3.73,0,0,1,325.59,163.8Z" style="fill:#263238"></path><path d="M322.26,170.39c-.07-1-.55-3.5-.2-4.47s1.42-1.19,2.61-1.17a2.66,2.66,0,0,1,2.56,2.56,3.49,3.49,0,0,1-1.44,3,3.93,3.93,0,0,1-3.43.19" style="fill:#b78876"></path><path d="M323.54,169c0-.07.33.07.76-.07a1.37,1.37,0,0,0,.89-1.34,1.05,1.05,0,0,0-.24-.82.93.93,0,0,0-.68-.18c-.46.05-.78.18-.81.11s.2-.3.75-.47a1.21,1.21,0,0,1,1,.17,1.43,1.43,0,0,1,.46,1.21,1.91,1.91,0,0,1-.43,1.16,1.44,1.44,0,0,1-.9.51C323.78,169.4,323.49,169.08,323.54,169Z" style="fill:#aa7666"></path><path d="M326.4,170.21c0-.05.47.31.49,1.14a1.82,1.82,0,0,1-.55,1.31,2,2,0,0,1-3.09-.42,1.86,1.86,0,0,1-.18-1.41c.24-.79.76-1,.78-1s-.31.37-.42,1a1.56,1.56,0,0,0,2.59,1.4,1.58,1.58,0,0,0,.5-1A4.56,4.56,0,0,0,326.4,170.21Z" style="fill:#455a64"></path><path d="M331.35,166.52a14.14,14.14,0,0,0,1.47-4.75,14.41,14.41,0,0,0-.74-4.92,3.12,3.12,0,0,1,.75,1.32,8.44,8.44,0,0,1,.51,3.64,8.58,8.58,0,0,1-1,3.52C331.83,166.15,331.4,166.56,331.35,166.52Z" style="fill:#455a64"></path><path d="M358.55,193.66a7,7,0,0,0,.47-1.91,5.89,5.89,0,0,0-.28-2.25,5.39,5.39,0,0,0-1.66-2.46c-.84-.72-2.14-1-3.14-2.11a3,3,0,0,1-.69-2.08,16.37,16.37,0,0,1,.28-2.23,4.32,4.32,0,0,0-1.28-4.15,17,17,0,0,0-4.16-2.81,8.44,8.44,0,0,1-3.78-3.55,11.7,11.7,0,0,1-.56-4.79,10,10,0,0,0-2.78-7.17,7.44,7.44,0,0,0-4.79-2.07,10.47,10.47,0,0,0-2,.18,1.45,1.45,0,0,1,.48-.19,6.06,6.06,0,0,1,1.48-.19,7.46,7.46,0,0,1,5,2,10.27,10.27,0,0,1,3,7.43,11.69,11.69,0,0,0,.54,4.59,8.07,8.07,0,0,0,3.58,3.31,17.3,17.3,0,0,1,4.27,2.9,5.56,5.56,0,0,1,1.32,2.16,5.37,5.37,0,0,1,.06,2.42,17.73,17.73,0,0,0-.3,2.16,2.69,2.69,0,0,0,.57,1.81c.83,1,2.14,1.31,3,2.1a5.64,5.64,0,0,1,1.71,2.65,5.73,5.73,0,0,1,.2,2.36,5.24,5.24,0,0,1-.4,1.44Q358.58,193.68,358.55,193.66Z" style="fill:#263238"></path><path d="M307.89,170.94a1.85,1.85,0,0,0-1.46,0,1.48,1.48,0,0,0-.86,1.16,1.24,1.24,0,0,0,.68,1.23,1.57,1.57,0,0,0,1.39-.16,1.68,1.68,0,0,0,.83-1.05,1,1,0,0,0-.59-1.11" style="fill:#aa7666"></path><path d="M308.54,169.66c.07,0,.09.35-.09.86a3.56,3.56,0,0,1-1.24,1.67,3.65,3.65,0,0,1-2,.72c-.54,0-.85-.1-.85-.16a7.93,7.93,0,0,0,2.5-1C308.1,170.89,308.4,169.61,308.54,169.66Z" style="fill:#263238"></path><path d="M313.34,166.35a3.91,3.91,0,0,0-1.95.24,1.51,1.51,0,0,0-.92,1.59,1.93,1.93,0,0,0,1.22,1.16,3.62,3.62,0,0,0,1.64.35,1.91,1.91,0,0,0,1.45-.76,1.55,1.55,0,0,0-.11-1.83,2.2,2.2,0,0,0-1.94-.77" style="fill:#aa7666"></path><path d="M347,218.11s.79-.37-1.24-10.92c-1.24-6.47-5.55-10.44-10.38-12.8v-.09l-.42-.11a39.15,39.15,0,0,0-12.58-3.28l-16.87.19s-12.88-1.6-20,7.58c-2.75,3.54-11.25,27.75-11.25,27.75l20.24,9.75-1.92-13.43s-.16,9.39,1.62,12.82a26.41,26.41,0,0,1,2.66,8.74l-3.13,17c-2.06,6.48-5.84,29.89-5.22,53.31,1.09,41.2,4.17,80.51,4.17,80.51l63.29-2.82-7-58.26a250.14,250.14,0,0,1-1.87-30,134.81,134.81,0,0,0-4.25-33.4c-4.29-16.53-7.19-15.67-8.23-19.25l-1.22-29.08Z" style="fill:#FF725E"></path><polygon points="328.56 216.77 326.06 227.43 349.67 227.43 346.15 209.56 328.56 216.77" style="fill:#FF725E"></polygon><path d="M350.23,227.29a22.08,22.08,0,0,1-3.22.07c-2,0-4.73,0-7.75,0s-5.77.13-7.76.2a22.46,22.46,0,0,1-3.22,0,18.72,18.72,0,0,1,3.2-.4c2-.16,4.73-.31,7.77-.35s5.78,0,7.77.13A17.6,17.6,0,0,1,350.23,227.29Z" style="fill:#263238"></path><path d="M296.73,245a5.13,5.13,0,0,1-.06-1.07,11.61,11.61,0,0,0-.15-1.23,12.51,12.51,0,0,0-.38-1.6,28.17,28.17,0,0,0-1.65-4c-.72-1.46-1.56-3.05-2.24-4.83a16.94,16.94,0,0,1-.76-2.69,14.61,14.61,0,0,1-.22-2.59,17.8,17.8,0,0,1,.58-4.33,19.68,19.68,0,0,1,.94-2.79,3.51,3.51,0,0,1,.48-1c.09,0-.52,1.44-1.06,3.83a18.87,18.87,0,0,0-.46,4.25,14.7,14.7,0,0,0,.25,2.5,15.08,15.08,0,0,0,.74,2.59c.66,1.74,1.49,3.33,2.18,4.82A24.29,24.29,0,0,1,296.5,241a12.15,12.15,0,0,1,.31,1.66,8.46,8.46,0,0,1,.06,1.27A3.7,3.7,0,0,1,296.73,245Z" style="fill:#263238"></path><path d="M314.28,244.74a13.83,13.83,0,0,1-2.61.13c-1.61,0-3.83,0-6.29-.07s-4.68-.13-6.29-.21a12.47,12.47,0,0,1-2.6-.25,13.42,13.42,0,0,1,2.61-.12c1.61,0,3.84,0,6.29.06s4.68.13,6.29.22A13,13,0,0,1,314.28,244.74Z" style="fill:#263238"></path><path d="M317.16,394s0-.13-.1-.37-.14-.64-.25-1.11c-.22-1-.53-2.4-.85-4.27s-.71-4.14-1-6.8-.66-5.71-.92-9.08c-.53-6.74-.72-14.79-.92-23.72s-.58-18.73-1-29c-.86-20.59-1.64-39.22-2.21-52.74-.23-6.73-.41-12.19-.54-16,0-1.87-.07-3.33-.1-4.35,0-.48,0-.85,0-1.13a2.29,2.29,0,0,1,0-.39,1.47,1.47,0,0,1,0,.39c0,.28,0,.65.07,1.12.05,1,.11,2.49.2,4.35.16,3.8.4,9.26.7,16,.6,13.52,1.44,32.15,2.36,52.74.41,10.3.79,20.11.95,29s.33,17,.81,23.7c.23,3.37.52,6.41.84,9.07s.65,4.95.95,6.81.57,3.3.76,4.28c.09.47.15.84.2,1.11A1.46,1.46,0,0,1,317.16,394Z" style="fill:#263238"></path><g style="opacity:0.4"><path d="M314.94,265a1.28,1.28,0,0,0-1.12,1.16,1.59,1.59,0,0,0,.8,1.46,1.65,1.65,0,0,0,1,.23,1.56,1.56,0,1,0-.64-3.05"></path></g><g style="opacity:0.4"><path d="M316.44,292.47a1.27,1.27,0,0,0-1.12,1.16,1.61,1.61,0,0,0,.8,1.46,1.73,1.73,0,0,0,1,.22,1.56,1.56,0,1,0-.64-3.05"></path></g><g style="opacity:0.4"><path d="M317.81,324.21a1.28,1.28,0,0,0-1.12,1.16,1.6,1.6,0,0,0,.81,1.46,1.71,1.71,0,0,0,1,.22,1.56,1.56,0,1,0-.65-3.05"></path></g><g style="opacity:0.4"><path d="M319.19,352.82a1.26,1.26,0,0,0-1.12,1.16,1.59,1.59,0,0,0,.8,1.46,1.71,1.71,0,0,0,1,.22,1.57,1.57,0,1,0-.65-3.05"></path></g><path d="M327.54,209.47a13.88,13.88,0,0,1,.29,2.7c.11,1.67.23,4,.33,6.52s.16,4.87.18,6.54a13.9,13.9,0,0,1-.08,2.71,14,14,0,0,1-.29-2.7c-.11-1.67-.23-4-.33-6.53s-.16-4.86-.18-6.53A13.9,13.9,0,0,1,327.54,209.47Z" style="fill:#263238"></path><g style="opacity:0.30000000000000004"><path d="M306.24,225.76s5.06,31.86,19.82,30.83c0,0,6.64-.08,8.78-4.49v-1.74Z"></path></g><path d="M304.19,448.2v-1.47l16.06-.7.05,6.07-1,.07c-4.41.26-22.44,1-25.39.12C290.62,451.3,304.19,448.2,304.19,448.2Z" style="fill:#FF725E"></path><g style="opacity:0.5"><path d="M314.49,452a5.62,5.62,0,0,1,2-3.42,5.38,5.38,0,0,1,3.73-1.17l0,4.47Z" style="fill:#fff"></path></g><path d="M297.56,450s-4.76,1.39-4.16,2.17,18.84.72,26.89,0l0-.35L299,452S298.49,450,297.56,450Z" style="fill:#fff;opacity:0.5"></path><path d="M320.51,451.74l-.27,0-.79.05-2.91.13c-2.45.1-5.84.19-9.59.21s-7.13-.05-9.59-.12l-2.9-.11-.79-.05-.28,0h1.07l2.91,0c2.45,0,5.84.08,9.58.06s7.14-.08,9.59-.14l2.9-.08h1.07Z" style="fill:#263238"></path><path d="M299,452.25a5.88,5.88,0,0,0-.54-1.38,6.27,6.27,0,0,0-1-1.11,2.13,2.13,0,0,1,1.16,1A2.11,2.11,0,0,1,299,452.25Z" style="fill:#263238"></path><path d="M303.69,449.84s-.27-.24-.51-.61a1.75,1.75,0,0,1-.34-.71c.05,0,.27.24.51.61S303.74,449.82,303.69,449.84Z" style="fill:#263238"></path><path d="M305,449.15s-.29-.12-.56-.37-.47-.48-.44-.52.29.13.57.38S305,449.11,305,449.15Z" style="fill:#263238"></path><path d="M305.79,447.64c0,.06-.37.11-.83.11a1.89,1.89,0,0,1-.83-.08,1.94,1.94,0,0,1,.83-.11A1.89,1.89,0,0,1,305.79,447.64Z" style="fill:#263238"></path><path d="M306.07,446.58a1.61,1.61,0,0,1-.93.27,1.59,1.59,0,0,1-1-.12,4.44,4.44,0,0,1,.95-.07A5.22,5.22,0,0,1,306.07,446.58Z" style="fill:#263238"></path><path d="M303.14,448.45a3.05,3.05,0,0,1-1,0,6.13,6.13,0,0,1-1.1-.24,2.88,2.88,0,0,1-.62-.25.56.56,0,0,1-.26-.32.41.41,0,0,1,.15-.41,1.89,1.89,0,0,1,2.34.54,1.8,1.8,0,0,1,.33.68.67.67,0,0,1,0,.28,3,3,0,0,0-.47-.87,1.88,1.88,0,0,0-.88-.57,1.57,1.57,0,0,0-1.22.09c-.17.12-.1.31.08.42a3,3,0,0,0,.58.24,6.88,6.88,0,0,0,1.06.27C302.75,448.42,303.14,448.42,303.14,448.45Z" style="fill:#263238"></path><path d="M302.88,448.5a1,1,0,0,1-.12-.71A1.63,1.63,0,0,1,303,447a1.06,1.06,0,0,1,.86-.53.42.42,0,0,1,.32.48,1.11,1.11,0,0,1-.18.46,3.25,3.25,0,0,1-.48.62,1.49,1.49,0,0,1-.59.42s.21-.19.49-.51a4.15,4.15,0,0,0,.43-.62c.14-.22.23-.61,0-.66s-.52.24-.68.44a1.75,1.75,0,0,0-.29.67A3.71,3.71,0,0,0,302.88,448.5Z" style="fill:#263238"></path><path d="M320.17,447.36s-.46,0-1.18.05a5,5,0,0,0-4.17,3.35,10.48,10.48,0,0,0-.3,1.14s0-.11,0-.32a3.65,3.65,0,0,1,.17-.86,4.87,4.87,0,0,1,1.61-2.39,5,5,0,0,1,2.68-1.06,4.74,4.74,0,0,1,.88,0A1.07,1.07,0,0,1,320.17,447.36Z" style="fill:#263238"></path><path d="M312.48,450.46a9,9,0,0,1-2.34.22,9.09,9.09,0,0,1-2.33-.19c0-.06,1.05,0,2.33,0S312.47,450.41,312.48,450.46Z" style="fill:#263238"></path><path d="M315.61,450.43s-.09.22-.19.46-.17.45-.22.45-.08-.25,0-.53S315.57,450.39,315.61,450.43Z" style="fill:#263238"></path><path d="M316.78,449s-.06.2-.23.37-.33.27-.36.23.06-.2.23-.37S316.74,448.92,316.78,449Z" style="fill:#263238"></path><path d="M318.47,448.28c0,.05-.22.05-.46.13s-.4.21-.44.18.09-.26.38-.36S318.49,448.23,318.47,448.28Z" style="fill:#263238"></path><path d="M319.67,448c0,.05-.07.13-.2.18s-.26.05-.28,0,.07-.13.21-.18S319.65,447.91,319.67,448Z" style="fill:#263238"></path><path d="M341.82,446.78l-.61-1.34,14.37-7.21,2.53,5.52-.88.47c-3.92,2-20.06,10.1-23.11,10.5C330.71,455.17,341.82,446.78,341.82,446.78Z" style="fill:#FF725E"></path><g style="opacity:0.5"><path d="M352.78,446a5.5,5.5,0,0,1,.45-3.94,5.39,5.39,0,0,1,2.92-2.6l1.85,4.07Z" style="fill:#fff"></path></g><path d="M336.49,451.1s-3.77,3.21-2.91,3.68,17.49-7.07,24.53-11l-.18-.32-19.3,9S337.35,450.75,336.49,451.1Z" style="fill:#fff;opacity:0.5"></path><path d="M358.16,443.32a1,1,0,0,1-.24.14l-.7.37-2.59,1.31c-2.2,1.1-5.26,2.57-8.67,4.12s-6.53,2.88-8.8,3.82l-2.69,1.09-.74.28-.26.09a1,1,0,0,1,.25-.12l.72-.32,2.67-1.15c2.26-1,5.36-2.32,8.77-3.87s6.48-3,8.69-4.06l2.62-1.26.71-.33Z" style="fill:#263238"></path><path d="M338.73,452.61a6.77,6.77,0,0,0-1.06-1,6.42,6.42,0,0,0-1.36-.6,2.58,2.58,0,0,1,2.42,1.64Z" style="fill:#263238"></path><path d="M342,448.49a1.86,1.86,0,0,1-.71-.35c-.37-.24-.64-.47-.61-.52a1.86,1.86,0,0,1,.71.35C341.8,448.21,342.07,448.44,342,448.49Z" style="fill:#263238"></path><path d="M342.94,447.33c0,.05-.32,0-.67-.11s-.63-.24-.61-.3.31,0,.67.11S343,447.28,342.94,447.33Z" style="fill:#263238"></path><path d="M343.06,445.62c0,.05-.3.24-.72.44s-.77.31-.8.26a2.15,2.15,0,0,1,.72-.44A1.91,1.91,0,0,1,343.06,445.62Z" style="fill:#263238"></path><path d="M342.87,444.53s-.25.37-.73.63a1.56,1.56,0,0,1-.93.28,5.58,5.58,0,0,1,.84-.45A6.39,6.39,0,0,1,342.87,444.53Z" style="fill:#263238"></path><path d="M341,447.44a2.87,2.87,0,0,1-.94.42,6.45,6.45,0,0,1-1.09.23,2.53,2.53,0,0,1-.68,0,.57.57,0,0,1-.36-.18.41.41,0,0,1,0-.44,1.88,1.88,0,0,1,2.35-.46,1.81,1.81,0,0,1,.59.49c.11.14.14.23.13.24a2.68,2.68,0,0,0-.78-.61,1.82,1.82,0,0,0-1-.15,1.58,1.58,0,0,0-1.08.58c-.1.17,0,.32.25.35a2.66,2.66,0,0,0,.63,0,8.65,8.65,0,0,0,1.08-.18C340.6,447.57,341,447.41,341,447.44Z" style="fill:#263238"></path><path d="M340.75,447.6a1,1,0,0,1-.4-.6,1.72,1.72,0,0,1-.06-.8,1,1,0,0,1,.56-.83c.23-.07.77.39.81.56s-.27.08-.29.23a2.91,2.91,0,0,1-.19.76,1.54,1.54,0,0,1-.36.63s.11-.26.23-.67a3,3,0,0,0,.14-.74c0-.25,0-.65-.29-.59s-.37.43-.43.68a1.61,1.61,0,0,0,0,.73A4.07,4.07,0,0,0,340.75,447.6Z" style="fill:#263238"></path><path d="M356.06,439.47s-.44.15-1.06.53a5,5,0,0,0-2.44,4.77c.07.72.23,1.15.2,1.16a1.15,1.15,0,0,1-.13-.29,4.41,4.41,0,0,1-.2-.86,4.86,4.86,0,0,1,2.5-4.9,4.19,4.19,0,0,1,.81-.34A1,1,0,0,1,356.06,439.47Z" style="fill:#263238"></path><path d="M350.31,445.45a9.65,9.65,0,0,1-2,1.16,9.11,9.11,0,0,1-2.21.78c0-.06,1-.42,2.13-1S350.28,445.4,350.31,445.45Z" style="fill:#263238"></path><path d="M353.15,444.14c.05,0,0,.23,0,.5s0,.48,0,.5-.18-.2-.18-.5S353.1,444.12,353.15,444.14Z" style="fill:#263238"></path><path d="M353.62,442.31c.05,0,0,.22-.06.44s-.19.38-.24.36,0-.21.06-.43S353.57,442.29,353.62,442.31Z" style="fill:#263238"></path><path d="M354.88,441c0,.06-.18.14-.36.32s-.28.35-.34.34,0-.28.21-.49S354.87,441,354.88,441Z" style="fill:#263238"></path><path d="M355.84,440.22s0,.15-.11.25-.21.15-.25.12,0-.15.12-.25S355.81,440.18,355.84,440.22Z" style="fill:#263238"></path><path d="M336.69,227.26l-7.91.44a40,40,0,0,1-2.24,6.49c-6.36-11.06-11.3-25.87-12.53-31.82.18-.6.39-1.25.66-2a8.62,8.62,0,0,0-.1-3.35c-.22-1.32-.59-3.1-.7-3.93-.34-2.51-.74-2.91-1.62-2.62-1.19.38.49,7.06-.49,7.2-.53.08-1.17-2.21-1.35-4.08s-1-7.65-1.66-8c-.91-.56-1.7.33-1.47,2.2s.52,7.53-.47,7.61-1.8-9.5-1.8-9.5.16-2.08-1-2c-2.07.09-.45,10.18-.28,11.14.13.66-.95.78-1,.06s-.6-9.57-2.71-9.5c-1.62.05,1.26,8.32.35,10.23s-1.54-6.5-3.09-6.39c-.57.05-1,.16.06,4.92A107.62,107.62,0,0,0,301,205.47c2.45,13.21,13.2,55.47,30.05,47.73,9.43-4.33,13.83-25.76,13.83-25.76Z" style="fill:#aa7666"></path><polygon points="327.54 211.76 324.72 230.84 326.55 234.19 328.78 227.7 328.28 227.61 327.54 211.76" style="opacity:0.30000000000000004"></polygon><path d="M295.33,197.6c-.13-1.34-.39-3.14-.46-4-.18-2.53-.62-3.09-1.46-2.72-1.37.61.07,7.08-.92,7.17-.53,0-1.24-3.74-1.52-5.6s-.51-4.7-.64-5.66-1.94-1.3-1.88.58.17,7.3-.29,7.51c-1.25.59-1.21-7.06-1.5-9.57a3.18,3.18,0,0,0-.35-1.21.94.94,0,0,0-1.73.39c-.33,2.44.16,9,0,10.09-.05.33-.87.5-1.07-.6-.28-1.46-.16-8.48-1.6-7.86s.12,9-.53,9.83c-1.21,1.58-1.34-7.45-2.84-7.06-.76.2-.75.49,0,5.31.36,2.21,1.84,7,2.65,11.13-3.48,12.27-9.57,35.26-8.68,42.83.51,4.35,10.59,7.35,14.9,4.11s7-16.12,7-16.12l-4.9-4.62,5.07-27.8h0c.22-.58.31-2.1.62-2.81A8.37,8.37,0,0,0,295.33,197.6Z" style="fill:#b78876"></path><path d="M286.59,246.22a53.21,53.21,0,0,1,1.17-7.36,53.07,53.07,0,0,1,1.69-7.26,54.51,54.51,0,0,1-1.18,7.36A54,54,0,0,1,286.59,246.22Z" style="fill:#aa7666"></path></g><g id="character-1"><polygon points="137.24 403.8 105.12 432.79 96.31 421.53 124.47 386.66 137.24 403.8" style="fill:#ffbe9d"></polygon><path d="M105.85,433.88l1.11-1L96.82,420.43l-4.57,4,.61.78c2.73,3.47,14.14,17.45,16.76,19.07C112.54,446.08,105.85,433.88,105.85,433.88Z" style="fill:#FF725E"></path><g style="opacity:0.5"><path d="M96.18,428.69a5.51,5.51,0,0,0,1.2-3.78,5.32,5.32,0,0,0-1.6-3.57l-3.35,3Z" style="fill:#fff"></path></g><g style="opacity:0.5"><path d="M108.94,440s2.12,4.47,1.14,4.55-13-13.62-17.83-20.12l.28-.22,13.94,16.09S108.3,439.33,108.94,440Z" style="fill:#fff"></path></g><path d="M92.37,424a1.3,1.3,0,0,0,.16.23l.49.62,1.83,2.27c1.55,1.9,3.74,4.49,6.21,7.3s4.77,5.31,6.46,7.1l2,2.1.55.56a1.32,1.32,0,0,0,.21.19l-.18-.22-.53-.58-2-2.15c-1.66-1.8-3.94-4.31-6.42-7.13S96.53,428.91,95,427l-1.87-2.22c-.19-.23-.36-.42-.52-.6A1.69,1.69,0,0,0,92.37,424Z" style="fill:#263238"></path><path d="M106.28,440.46a6.14,6.14,0,0,1,1.4-.51,6,6,0,0,1,1.49,0,2.58,2.58,0,0,0-2.89.5Z" style="fill:#263238"></path><path d="M105,435.34a1.7,1.7,0,0,0,.79,0c.43-.07.77-.16.76-.22a3.25,3.25,0,0,0-1.55.25Z" style="fill:#263238"></path><path d="M104.61,433.92c0,.05.29.13.66.17s.67,0,.67,0-.28-.13-.65-.17S104.62,433.86,104.61,433.92Z" style="fill:#263238"></path><path d="M105.2,432.31s.17.34.48.69.57.61.61.57-.17-.35-.47-.7S105.24,432.27,105.2,432.31Z" style="fill:#263238"></path><path d="M105.82,431.39a1.57,1.57,0,0,0,.41.88c.32.43.7.68.73.63s-.27-.34-.58-.75A5.48,5.48,0,0,0,105.82,431.39Z" style="fill:#263238"></path><path d="M106.36,434.82a2.75,2.75,0,0,0,.68.77,6.15,6.15,0,0,0,.91.66,2.8,2.8,0,0,0,.6.3.59.59,0,0,0,.41,0,.43.43,0,0,0,.21-.39,1.9,1.9,0,0,0-2.69-1.18.8.8,0,0,0-.23.16,3.16,3.16,0,0,1,1-.22,1.85,1.85,0,0,1,1,.28,1.57,1.57,0,0,1,.74,1c0,.2-.17.28-.37.22a4.11,4.11,0,0,1-.56-.27,8.93,8.93,0,0,1-.91-.61C106.64,435.1,106.38,434.8,106.36,434.82Z" style="fill:#263238"></path><path d="M106.5,435.06a1,1,0,0,0,.61-.38,1.77,1.77,0,0,0,.38-.71,1,1,0,0,0-.17-1,.42.42,0,0,0-.57.08,1.2,1.2,0,0,0-.23.43,3.07,3.07,0,0,0-.14.78,1.41,1.41,0,0,0,.07.71s0-.27.06-.7a4.28,4.28,0,0,1,.18-.73c.07-.25.3-.58.5-.42a.93.93,0,0,1,.12.8,1.83,1.83,0,0,1-.3.66A5.31,5.31,0,0,1,106.5,435.06Z" style="fill:#263238"></path><path d="M95.87,421.37s.34.31.75.91a5.24,5.24,0,0,1,.91,2.64,5.14,5.14,0,0,1-.65,2.71c-.35.63-.68,1-.65,1s.1-.06.24-.21a4.46,4.46,0,0,0,.53-.7,4.87,4.87,0,0,0,.72-2.79,5,5,0,0,0-1-2.71,4.32,4.32,0,0,0-.6-.64C96,421.42,95.88,421.36,95.87,421.37Z" style="fill:#263238"></path><path d="M98.66,429.18a13.13,13.13,0,0,0,3.08,3.51s-.7-.78-1.55-1.75S98.71,429.15,98.66,429.18Z" style="fill:#263238"></path><path d="M96.61,426.81c-.06,0-.11.21-.22.45s-.23.43-.19.46.24-.1.37-.38S96.66,426.81,96.61,426.81Z" style="fill:#263238"></path><path d="M96.93,425c-.05,0-.11.18-.13.42s0,.42.07.43.11-.19.13-.42S97,425,96.93,425Z" style="fill:#263238"></path><path d="M96.32,423.25s.1.2.2.43.11.44.16.45.14-.24,0-.52S96.34,423.2,96.32,423.25Z" style="fill:#263238"></path><path d="M95.76,422.14c-.05,0-.05.14,0,.27s.13.23.18.21,0-.14,0-.28S95.81,422.12,95.76,422.14Z" style="fill:#263238"></path><polygon points="194.37 403.49 198.24 447.29 181.69 447.29 174.39 403.49 194.37 403.49" style="fill:#ffbe9d"></polygon><path d="M197.71,447.7l-.05-1.47-16.08-.08.2,6.08,1,0c4.41.09,22.46.13,25.37-.87C211.39,450.27,197.71,447.7,197.71,447.7Z" style="fill:#FF725E"></path><g style="opacity:0.5"><path d="M187.56,451.89a5.52,5.52,0,0,0-2.16-3.33,5.43,5.43,0,0,0-3.77-1l.16,4.47Z" style="fill:#fff"></path></g><g style="opacity:0.5"><path d="M204.4,449.19s4.81,1.2,4.24,2-18.8,1.45-26.86,1v-.36l21.28-.57S203.48,449.26,204.4,449.19Z" style="fill:#fff"></path></g><path d="M181.54,451.87l.27,0,.79,0,2.91,0c2.46,0,5.85,0,9.59-.17s7.13-.32,9.58-.49l2.9-.23.79-.07.27,0h-.28l-.79,0-2.9.16c-2.45.14-5.83.31-9.58.44s-7.13.19-9.58.22l-2.91,0-.79,0A.8.8,0,0,0,181.54,451.87Z" style="fill:#263238"></path><path d="M203.07,451.55a6.65,6.65,0,0,1,.49-1.41,6.32,6.32,0,0,1,.95-1.14,2.57,2.57,0,0,0-1.44,2.55Z" style="fill:#263238"></path><path d="M198.27,449.32s.26-.25.49-.63.36-.7.31-.73-.26.26-.48.63A1.91,1.91,0,0,0,198.27,449.32Z" style="fill:#263238"></path><path d="M197,448.68s.28-.13.55-.39.45-.5.41-.54-.28.14-.55.4S196.92,448.65,197,448.68Z" style="fill:#263238"></path><path d="M196.09,447.21a2,2,0,0,0,.83.07,1.94,1.94,0,0,0,.83-.11c0-.06-.37-.09-.83-.08S196.08,447.15,196.09,447.21Z" style="fill:#263238"></path><path d="M195.77,446.15a1.56,1.56,0,0,0,.94.24,1.64,1.64,0,0,0,.95-.16,4.52,4.52,0,0,0-.95,0A5.73,5.73,0,0,0,195.77,446.15Z" style="fill:#263238"></path><path d="M198.77,447.91a2.88,2.88,0,0,0,1,0,6.26,6.26,0,0,0,1.09-.28,3.25,3.25,0,0,0,.61-.28.53.53,0,0,0,.24-.33.39.39,0,0,0-.17-.4,1.86,1.86,0,0,0-2.3.63,1.71,1.71,0,0,0-.31.7.52.52,0,0,0,0,.27,3,3,0,0,1,.44-.89,1.79,1.79,0,0,1,.85-.6,1.59,1.59,0,0,1,1.23,0c.17.12.11.31-.07.42a2.72,2.72,0,0,1-.57.27,6.17,6.17,0,0,1-1,.31C199.16,447.86,198.76,447.88,198.77,447.91Z" style="fill:#263238"></path><path d="M199,448a1,1,0,0,0,.1-.71,1.73,1.73,0,0,0-.31-.74,1,1,0,0,0-.87-.5.41.41,0,0,0-.3.49,1,1,0,0,0,.19.45,3.17,3.17,0,0,0,.5.6,1.48,1.48,0,0,0,.61.4s-.21-.18-.51-.49a3.35,3.35,0,0,1-.45-.6c-.15-.22-.26-.6,0-.66s.52.21.69.41a1.64,1.64,0,0,1,.31.66A2.77,2.77,0,0,1,199,448Z" style="fill:#263238"></path><path d="M181.71,447.49s.46-.06,1.18,0a5,5,0,0,1,4.3,3.18c.27.68.31,1.14.35,1.13a1,1,0,0,0,0-.32,4,4,0,0,0-.2-.86,4.85,4.85,0,0,0-4.42-3.27,5.2,5.2,0,0,0-.88,0C181.82,447.44,181.71,447.47,181.71,447.49Z" style="fill:#263238"></path><path d="M189.52,450.28a8.81,8.81,0,0,0,2.34.13,9.05,9.05,0,0,0,2.32-.28c0-.06-1,.05-2.33.09S189.52,450.23,189.52,450.28Z" style="fill:#263238"></path><path d="M186.39,450.37s.09.22.21.45.18.45.23.44.07-.25-.06-.52S186.42,450.33,186.39,450.37Z" style="fill:#263238"></path><path d="M185.16,448.94s.07.21.24.37.34.26.38.22-.08-.2-.25-.36S185.19,448.91,185.16,448.94Z" style="fill:#263238"></path><path d="M183.44,448.33c0,.06.23.05.47.12s.41.19.45.16-.1-.26-.4-.34S183.43,448.28,183.44,448.33Z" style="fill:#263238"></path><path d="M182.23,448.06c0,.05.08.13.21.17s.26,0,.28,0-.08-.13-.21-.18S182.25,448,182.23,448.06Z" style="fill:#263238"></path><path d="M165.28,275s12.95,86,11.07,90.19-43.83,47.1-43.83,47.1l-15.74-27s27.75-30.75,27.36-32.35-20-84.9-20-84.9Z" style="fill:#263238"></path><path d="M169.88,306.74c-.13-.92-10.57-24.41-10.57-24.41l5.07-7.16.9-.19Z" style="fill:#263238"></path><path d="M116.77,266.88l-.78,3.19a37.61,37.61,0,0,0,4,27.73l35.11,60.86a48.85,48.85,0,0,1,5.38,13.84l8.75,39.36H198s-3.56-27-6.73-46.69c-2.39-14.88-22.29-61-31.93-82.84l6-7.35-10.38-1.73Z" style="fill:#263238"></path><path d="M160.07,282.16a31,31,0,0,0,1.46,3.85c1,2.35,2.28,5.6,3.69,9.21s2.63,6.91,3.51,9.29a31.53,31.53,0,0,0,1.52,3.83,5,5,0,0,0-.25-1.09c-.19-.68-.49-1.67-.89-2.88-.78-2.42-1.94-5.74-3.35-9.36s-2.79-6.85-3.85-9.16c-.53-1.16-1-2.09-1.29-2.73A4.77,4.77,0,0,0,160.07,282.16Z" style="fill:#455a64"></path><path d="M163.22,384.42a3.47,3.47,0,0,0,0-.68c-.06-.51-.13-1.15-.22-1.95a29.92,29.92,0,0,0-.47-3.07c-.22-1.19-.44-2.55-.83-4-.18-.74-.38-1.52-.57-2.32s-.49-1.63-.74-2.49c-.48-1.73-1.16-3.52-1.82-5.42a121.78,121.78,0,0,0-5.35-12,211.07,211.07,0,0,0-12.26-20.37c-1.69-2.52-3.09-4.55-4.07-5.94l-1.14-1.59a3.76,3.76,0,0,0-.43-.53,3.29,3.29,0,0,0,.33.6l1,1.65c1,1.49,2.3,3.53,3.92,6,3.29,5.1,7.83,12.18,12.09,20.4,2.1,4.12,3.9,8.15,5.36,11.89.67,1.88,1.37,3.66,1.86,5.37.27.85.54,1.67.77,2.46l.6,2.31c.42,1.45.66,2.81.92,4s.44,2.2.56,3,.24,1.43.32,1.93A2.79,2.79,0,0,0,163.22,384.42Z" style="fill:#455a64"></path><path d="M176.53,409.72a1.59,1.59,0,0,1-.09-.38c-.05-.27-.13-.65-.22-1.12l-.77-4.33c-.34-1.88-.76-4.18-1.24-6.84s-1.05-5.7-1.74-9c-.34-1.68-.7-3.43-1.11-5.24s-.84-3.71-1.31-5.66-1-3.94-1.55-6-1.16-4.18-1.86-6.32c-1.3-4.32-3-8.75-4.83-13.28A112.88,112.88,0,0,0,155,338a121.77,121.77,0,0,0-8.56-12.52c-3-3.9-5.94-7.6-8.65-11.21a123.59,123.59,0,0,1-7.29-10.56,69.51,69.51,0,0,1-5.06-10,51.82,51.82,0,0,1-2.72-8.82,39.43,39.43,0,0,1-.82-6.92c0-1,0-1.8,0-2.54s.06-1.36.13-1.86l.14-1.13a2.42,2.42,0,0,1,.07-.39s0,.14,0,.39,0,.66-.08,1.14-.08,1.12-.09,1.86,0,1.57,0,2.52a40,40,0,0,0,.91,6.87,51.37,51.37,0,0,0,2.77,8.74,72.22,72.22,0,0,0,5.08,9.89c2.1,3.42,4.58,6.91,7.31,10.5s5.7,7.28,8.68,11.19a122.18,122.18,0,0,1,8.6,12.57,111.59,111.59,0,0,1,6.82,13.61,139.7,139.7,0,0,1,4.82,13.34c.7,2.15,1.25,4.28,1.85,6.34s1.08,4.07,1.52,6,.9,3.85,1.28,5.67.76,3.58,1.08,5.25c.67,3.35,1.21,6.39,1.67,9.07s.83,5,1.15,6.86l.68,4.34.16,1.14A2.7,2.7,0,0,1,176.53,409.72Z" style="fill:#455a64"></path><path d="M183.77,411.19a1.93,1.93,0,0,1,0-.39c0-.28,0-.65,0-1.13,0-1-.05-2.48-.09-4.35s-.23-4.19-.36-6.87c-.09-1.34-.25-2.76-.39-4.28s-.28-3.11-.52-4.78-.43-3.43-.73-5.25-.64-3.7-1-5.65-.83-3.95-1.27-6-1-4.16-1.58-6.32-1.26-4.34-1.91-6.58-1.49-4.48-2.27-6.78-1.7-4.59-2.66-6.9c-.49-1.16-1-2.32-1.48-3.49l-.75-1.76-.82-1.74c-1.09-2.33-2.17-4.64-3.36-6.84l-1.72-3.31c-.61-1.08-1.22-2.14-1.82-3.19-1.17-2.13-2.45-4.14-3.69-6.12s-2.54-3.86-3.78-5.71c-2.51-3.69-5.09-7.07-7.4-10.31s-4.4-6.3-6.1-9.22a56.88,56.88,0,0,1-4-8.21c-.24-.63-.46-1.24-.67-1.83s-.35-1.17-.52-1.73a30.71,30.71,0,0,1-.72-3.06,28.11,28.11,0,0,1-.49-4.33c0-.48,0-.85,0-1.13a2.29,2.29,0,0,1,0-.39,2.28,2.28,0,0,1,0,.38c0,.28.05.66.09,1.13a30.34,30.34,0,0,0,.58,4.3c.22.91.39,1.95.76,3,.17.54.34,1.12.53,1.71l.69,1.81a59,59,0,0,0,4.06,8.12c1.72,2.9,3.81,5.95,6.14,9.16s4.92,6.59,7.44,10.28c1.25,1.86,2.6,3.71,3.81,5.72s2.53,4,3.71,6.13c.6,1.06,1.21,2.13,1.83,3.2l1.73,3.32c1.2,2.21,2.28,4.52,3.37,6.86l.82,1.75.75,1.76,1.49,3.5c1,2.32,1.78,4.66,2.66,6.93s1.55,4.57,2.27,6.8,1.32,4.44,1.89,6.6,1.09,4.28,1.56,6.35.85,4.09,1.26,6,.64,3.85,1,5.67.47,3.59.69,5.26.37,3.28.49,4.8.27,2.95.35,4.29c.11,2.69.25,5,.27,6.89s0,3.33,0,4.35c0,.48,0,.85,0,1.13A1.93,1.93,0,0,1,183.77,411.19Z" style="fill:#455a64"></path><path d="M194.71,412a1.54,1.54,0,0,1-.08-.37c0-.28-.1-.64-.18-1.11l-.63-4.24c-.29-1.85-.63-4.1-1-6.71s-.9-5.59-1.5-8.87c-.31-1.64-.62-3.35-.95-5.14s-.73-3.64-1.12-5.56-.85-3.89-1.3-5.93-1-4.11-1.51-6.25-1.15-4.31-1.74-6.54-1.32-4.46-2-6.76-1.49-4.59-2.3-6.93-1.66-4.7-2.63-7.05-1.86-4.69-2.9-6.94q-.75-1.69-1.5-3.36l-1.6-3.25c-.53-1.07-1-2.15-1.59-3.19l-1.67-3.06c-1.06-2.05-2.26-4-3.39-5.85-2.23-3.79-4.65-7.21-6.76-10.52a86.35,86.35,0,0,1-5.42-9.48,42.79,42.79,0,0,1-3-8.49,30.33,30.33,0,0,1-.85-6.75,24.48,24.48,0,0,1,.32-4.29c.08-.48.17-.85.23-1.09a1.81,1.81,0,0,1,.09-.37,1.56,1.56,0,0,1,0,.38c-.05.27-.1.64-.18,1.1a27.64,27.64,0,0,0-.22,4.27,31,31,0,0,0,.94,6.68,42.65,42.65,0,0,0,3.08,8.4,87.28,87.28,0,0,0,5.46,9.4c2.11,3.3,4.55,6.71,6.8,10.51,1.14,1.89,2.35,3.81,3.42,5.86.55,1,1.11,2,1.68,3.07s1.06,2.12,1.6,3.19L173.8,330c.49,1.12,1,2.24,1.5,3.37,1,2.25,2,4.6,2.92,7s1.76,4.75,2.63,7.07,1.55,4.67,2.3,7,1.37,4.56,2,6.78,1.2,4.41,1.72,6.55,1,4.23,1.49,6.27l1.28,5.94q.57,2.89,1.09,5.57t.92,5.16c.58,3.28,1,6.27,1.43,8.88s.69,4.87,1,6.73.41,3.26.54,4.26l.12,1.11A1.81,1.81,0,0,1,194.71,412Z" style="fill:#455a64"></path><path d="M160.37,371.9s-.09.14-.3.37l-.94,1-3.49,3.56c-2.95,3-7,7.17-11.38,11.87s-8.27,9-11.07,12.16l-3.31,3.73-.91,1a1.92,1.92,0,0,1-.35.33,1.9,1.9,0,0,1,.27-.4l.84-1.06c.73-.92,1.82-2.23,3.18-3.84,2.73-3.21,6.58-7.58,11-12.28s8.48-8.83,11.5-11.77c1.51-1.47,2.75-2.65,3.61-3.44l1-.92A1.92,1.92,0,0,1,160.37,371.9Z" style="fill:#455a64"></path><path d="M156.36,361.35s-.09.15-.3.39l-.95,1-3.54,3.74c-3,3.15-7.2,7.48-11.84,12.23s-8.87,9-11.95,12.13l-3.66,3.63c-.4.39-.74.7-1,1a1.85,1.85,0,0,1-.38.31s.09-.14.3-.39l1-1,3.54-3.75c3-3.15,7.19-7.48,11.84-12.23s8.87-9,11.94-12.12l3.67-3.64c.4-.38.74-.7,1-1A2.45,2.45,0,0,1,156.36,361.35Z" style="fill:#455a64"></path><polygon points="205.45 233.02 213.9 241.13 186.3 261.8 205.45 233.02" style="fill:#FF725E"></polygon><g style="opacity:0.30000000000000004"><polygon points="205.45 233.02 213.9 241.13 186.3 261.8 205.45 233.02"></polygon></g><path d="M213.65,190.46a25.75,25.75,0,0,1-1.18,3.26l-3.11,7.76-3.14,7.74c-.81,2-1.27,3.22-1.34,3.2a17.52,17.52,0,0,1,1-3.33c.71-2,1.77-4.78,3-7.8s2.38-5.75,3.25-7.71A21.42,21.42,0,0,1,213.65,190.46Z" style="fill:#263238"></path><path d="M221.39,190.39a7.06,7.06,0,1,1-4.51-8.9A7,7,0,0,1,221.39,190.39Z" style="fill:#FF725E"></path><g style="opacity:0.30000000000000004"><path d="M211.7,194.61a12.34,12.34,0,0,1,.82-1.87,11.52,11.52,0,0,0,1.15-4.65,6.57,6.57,0,0,0-1.61-4.36,11.14,11.14,0,0,0-1.56-1.25,3,3,0,0,1,1.82,1,6.43,6.43,0,0,1,1.87,4.62,10.3,10.3,0,0,1-1.34,4.81A5.93,5.93,0,0,1,211.7,194.61Z"></path></g><g style="opacity:0.30000000000000004"><path d="M221.55,188.07a8.14,8.14,0,0,0-7.82,1.42s.22-.46.83-1a6.3,6.3,0,0,1,5.88-1.06C221.19,187.71,221.58,188,221.55,188.07Z"></path></g><g style="opacity:0.30000000000000004"><path d="M218.42,187.37c-.08,0,0-.49-.16-1.21a3.17,3.17,0,0,0-4.38-2.27c-.69.27-1,.63-1.09.56s.21-.5.93-.89a3.32,3.32,0,0,1,4.9,2.53C218.72,186.92,218.48,187.4,218.42,187.37Z"></path></g><g style="opacity:0.30000000000000004"><path d="M216.11,187.87c-.15,0,.08-1-.08-2.15s-.6-2-.47-2.1.82.74,1,2A2.66,2.66,0,0,1,216.11,187.87Z"></path></g><g style="opacity:0.30000000000000004"><path d="M216.28,185.67c0,.16-.63.12-1.25.36s-1.14.61-1.24.49.28-.64,1.05-1S216.32,185.55,216.28,185.67Z"></path></g><path d="M197.45,182.06c.14,0-1,6-2.46,13.24s-2.83,13.17-3,13.15,1-6,2.46-13.25S197.31,182,197.45,182.06Z" style="fill:#263238"></path><path d="M194.46,196.55a47.51,47.51,0,0,1-2.31-5.17,29.07,29.07,0,0,1-2-5.32,33.9,33.9,0,0,1,2.43,5.12C193.86,194.06,194.62,196.5,194.46,196.55Z" style="fill:#263238"></path><path d="M189.53,185c-.51.12-.77.86-.61,1.45a1.3,1.3,0,0,0,1.68.61,1.17,1.17,0,0,0,.39-1.58,1.27,1.27,0,0,0-1.61-.42" style="fill:#455a64"></path><path d="M202.75,181.84a14.45,14.45,0,0,1-3.14,3.35,44.38,44.38,0,0,1-3.43,3,13.34,13.34,0,0,1,3.08-3.41A34.12,34.12,0,0,1,202.75,181.84Z" style="fill:#263238"></path><path d="M203.42,180.2a1.59,1.59,0,0,0-1.11.62,1.08,1.08,0,0,0-.13,1.53,1.24,1.24,0,0,0,1.49-.12,1.48,1.48,0,0,0,.69-1.24.83.83,0,0,0-1-.74" style="fill:#455a64"></path><path d="M188.09,191a8.69,8.69,0,0,1,4.21.48,4.56,4.56,0,0,1-2.13,0A4.65,4.65,0,0,1,188.09,191Z" style="fill:#263238"></path><path d="M187,189.43c-.36,0-.86.6-1,.9a1.07,1.07,0,0,0,0,.94,1.31,1.31,0,0,0,1.56.59,1.29,1.29,0,0,0,.77-1.47,1.31,1.31,0,0,0-1.36-1" style="fill:#455a64"></path><path d="M196.28,179.88a1.74,1.74,0,0,0-.15,2.06,1.73,1.73,0,0,0,2,.65,1.26,1.26,0,0,0,.76-.67,2,2,0,0,0-.64-2,1.75,1.75,0,0,0-1.92-.08" style="fill:#455a64"></path><path d="M212.42,210.93a27.41,27.41,0,0,1-3,3.54,25.12,25.12,0,0,1-3.24,3.35,17.63,17.63,0,0,1,2.86-3.7A17.13,17.13,0,0,1,212.42,210.93Z" style="fill:#263238"></path><path d="M220.57,210.82a6,6,0,1,1-1.53-8.4A6,6,0,0,1,220.57,210.82Z" style="fill:#FF725E"></path><g style="opacity:0.30000000000000004"><path d="M211.59,211.93a8.55,8.55,0,0,1,1.11-1.35,10,10,0,0,0,2.06-3.53,5.58,5.58,0,0,0-.25-4,11.93,11.93,0,0,0-.95-1.42c0-.05.7.26,1.28,1.25a5.52,5.52,0,0,1,.42,4.27,8.93,8.93,0,0,1-2.28,3.63A4.68,4.68,0,0,1,211.59,211.93Z"></path></g><g style="opacity:0.30000000000000004"><path d="M221.27,209a10.46,10.46,0,0,0-3.29-1.22,10.32,10.32,0,0,0-3.47.48c0-.06.28-.35.9-.62a5.38,5.38,0,0,1,5.11.56C221.07,208.56,221.32,208.91,221.27,209Z"></path></g><g style="opacity:0.30000000000000004"><path d="M218.87,207.63c-.07,0,.11-.42.14-1a2.72,2.72,0,0,0-3-2.9c-.62,0-1,.24-1,.17s.28-.38,1-.54a2.85,2.85,0,0,1,3.43,3.31C219.24,207.33,218.92,207.66,218.87,207.63Z"></path></g><g style="opacity:0.30000000000000004"><path d="M216.85,207.47c-.12-.08.27-.81.42-1.79s0-1.79.16-1.83.54.8.35,1.91S217,207.56,216.85,207.47Z"></path></g><g style="opacity:0.30000000000000004"><path d="M217.53,205.71c-.07.13-.56,0-1.11,0s-1.08.2-1.14,0,.37-.49,1.1-.57S217.6,205.6,217.53,205.71Z"></path></g><path d="M201.68,201.39a27.23,27.23,0,0,1-1,4.55,26.1,26.1,0,0,1-1.32,4.47,29.84,29.84,0,0,1,2.35-9Z" style="fill:#263238"></path><path d="M208.86,197.51a6,6,0,1,1-5.26-6.72A6,6,0,0,1,208.86,197.51Z" style="fill:#FF725E"></path><g style="opacity:0.30000000000000004"><path d="M201.42,202.66a8,8,0,0,1,.35-1.71,10.07,10.07,0,0,0,.19-4.08,5.66,5.66,0,0,0-2.05-3.39,14.64,14.64,0,0,0-1.5-.81,2.51,2.51,0,0,1,1.71.51,5.52,5.52,0,0,1,2.35,3.59,8.77,8.77,0,0,1-.34,4.27A4.56,4.56,0,0,1,201.42,202.66Z"></path></g><g style="opacity:0.30000000000000004"><path d="M208.61,195.54a7.22,7.22,0,0,0-6.33,2.48c-.06,0,.09-.43.52-1a5.3,5.3,0,0,1,2.14-1.56,5.37,5.37,0,0,1,2.63-.32C208.25,195.28,208.63,195.48,208.61,195.54Z"></path></g><g style="opacity:0.30000000000000004"><path d="M205.87,195.47c-.08,0-.09-.42-.37-1a2.85,2.85,0,0,0-1.72-1.53,2.9,2.9,0,0,0-2.29.36c-.53.33-.76.68-.83.63s.07-.47.62-.93a2.85,2.85,0,0,1,4.57,1.34C206.06,195,205.93,195.48,205.87,195.47Z"></path></g><g style="opacity:0.30000000000000004"><path d="M204,196.27c-.15,0-.14-.84-.46-1.78s-.82-1.59-.71-1.69.85.46,1.2,1.53S204.14,196.31,204,196.27Z"></path></g><g style="opacity:0.30000000000000004"><path d="M203.79,194.4c0,.15-.51.24-1,.54s-.87.68-1,.58.09-.61.7-1S203.81,194.27,203.79,194.4Z"></path></g><path d="M229,207.56a17.16,17.16,0,0,1-2.29,1.15,49.94,49.94,0,0,0-5.37,3,51.45,51.45,0,0,0-4.93,3.66,18.13,18.13,0,0,1-2,1.62,10.41,10.41,0,0,1,1.74-1.9,35.52,35.52,0,0,1,4.9-3.81,34,34,0,0,1,5.5-2.9A10.27,10.27,0,0,1,229,207.56Z" style="fill:#263238"></path><path d="M228.74,200.57a24.22,24.22,0,0,1-1.91,4.63,24,24,0,0,1-2.38,4.39,24.22,24.22,0,0,1,1.91-4.63A24.11,24.11,0,0,1,228.74,200.57Z" style="fill:#263238"></path><path d="M228.11,200.07c-.36.07-.61.84-.42,1.27a1,1,0,0,0,1.2.47,1,1,0,1,0-.83-1.73" style="fill:#455a64"></path><path d="M230.86,203.79c0,.14-.83.45-1.93.71a4.25,4.25,0,0,1-2.05.2c0-.14.83-.46,1.93-.71A4.25,4.25,0,0,1,230.86,203.79Z" style="fill:#263238"></path><path d="M230.94,203a1.54,1.54,0,0,0-.77.65.69.69,0,0,0,.19.91.64.64,0,0,0,.63,0,1.22,1.22,0,0,0,.46-.47,1,1,0,0,0,.18-.67.48.48,0,0,0-.49-.42" style="fill:#455a64"></path><path d="M230.12,206.89a.94.94,0,0,0-1.11.72,1,1,0,0,0,.79,1.07.92.92,0,1,0,.11-1.83" style="fill:#455a64"></path><path d="M187.86,202.66,173.52,280.4,218.84,218Z" style="fill:#455a64"></path><path d="M205.82,211.36c.11.1-5.32,6.32-12.12,13.9s-12.4,13.65-12.51,13.56,5.32-6.32,12.12-13.91S205.71,211.26,205.82,211.36Z" style="fill:#263238"></path><path d="M211.42,216.73c-.3-.88-1-1.51-1.81-1.1h0a1.38,1.38,0,0,0-.26,1.36l2.52,8.21h0l-2.38-5.8c-.3-.88-1.1-1.41-1.65-.93a1.47,1.47,0,0,0-.19,1.33l2.18,6.81-1.77-4.25c-.37-1-.81-1.24-1.3-1s-.51.93-.39,1.31l1.5,5c-.32,1-1.43,4-.37,5.72.06.09-.1.37-.1.46l-.5.58,3.27,3.1s3.16-7.89,3.75-10.23a6.79,6.79,0,0,0-.19-4.1Z" style="fill:#ffbe9d"></path><path d="M130.44,155.82c-2.24.22-3.94,2.27-4.53,4.45a20.72,20.72,0,0,0-.22,6.72c.12,2.25.09,4.62-1,6.59-2.23,4-8.27,5.43-9.2,9.94-.62,3,1.38,6.09.47,9-.78,2.46-3.4,3.89-4.54,6.21-1.32,2.69-.36,5.89.62,8.72.26.77.62,1.63,1.4,1.88a2.64,2.64,0,0,0,1.49-.12l20.72-5.72" style="fill:#263238"></path><path d="M112.74,197.34a2.56,2.56,0,0,0,1.43-1.25,3.79,3.79,0,0,0,.39-2.19,9.86,9.86,0,0,0-1-2.87,11.33,11.33,0,0,1-1.16-3.62,10.46,10.46,0,0,1,.4-4.36,10.22,10.22,0,0,1,2.47-4.16,22.07,22.07,0,0,1,4.23-2.95,7.39,7.39,0,0,0,3.35-3.52,10.59,10.59,0,0,0,.38-4.6,23.65,23.65,0,0,1-.09-4.35,8.54,8.54,0,0,1,1.29-3.59,9.12,9.12,0,0,1,4.15-3.52,8.59,8.59,0,0,1,1.43-.42,1.86,1.86,0,0,1,.52-.05,18.85,18.85,0,0,0-1.87.66,9.16,9.16,0,0,0-3.92,3.53,8.26,8.26,0,0,0-1.17,3.44,23.9,23.9,0,0,0,.14,4.26,11,11,0,0,1-.38,4.82,7.89,7.89,0,0,1-3.55,3.78,22.2,22.2,0,0,0-4.15,2.87,9.75,9.75,0,0,0-2.37,3.95,10,10,0,0,0-.43,4.16,11.23,11.23,0,0,0,1.06,3.52,9.87,9.87,0,0,1,1,3,3.89,3.89,0,0,1-.51,2.32,2.39,2.39,0,0,1-1.09,1A1.12,1.12,0,0,1,112.74,197.34Z" style="fill:#263238"></path><path d="M128.52,194.42l27.17,2.31s8.15.18,17,20.86l9.13,18-1.25,7.29-12,4-3.59-2.15.36,30.27-50.37-3.71c1.14-6.87,6.51-15.91,8.31-21.71-1.83-4.58-12.47-23.24-12.45-32.84,0-20.53,17.75-22.3,17.75-22.3" style="fill:#FF725E"></path><g style="opacity:0.1"><path d="M153.2,215.41l9.35,1.46a11.68,11.68,0,0,0,3,.2,3.91,3.91,0,0,0,2.64-1.29c1.1-1.36.77-3.37.06-5s-1.74-3.1-1.91-4.84Z"></path></g><path d="M181.2,241.56l5.1,17.4s-26.69,9.71-41.15,9.53c-13.54-.17-17.42-1.7-22.19-12.64s-10.17-23.5-11.3-30.73c0,0-7.65-33.31,21.52-30.34l.78,26.06s3.23,10.67,3.47,11.29c2.17,5.76,5,14.2,7.72,15.22S181.2,241.56,181.2,241.56Z" style="fill:#FF725E"></path><path d="M181.2,241.56a3.61,3.61,0,0,1-.71.18l-2,.43c-1.78.37-4.36.92-7.56,1.66s-7,1.65-11.36,2.45a69.92,69.92,0,0,1-14.38,1.33H145l-.06-.16c-.55-1.43-1.12-2.94-1.68-4.49-3.83-10.78-6.75-20.7-9.12-27.81-1.16-3.55-2.14-6.42-2.84-8.39l-.81-2.27a5.92,5.92,0,0,1-.25-.81,4.82,4.82,0,0,1,.35.77c.21.51.53,1.26.9,2.24.76,1.95,1.79,4.8,3,8.35,2.46,7.08,5.44,17,9.26,27.75.56,1.54,1.13,3.05,1.67,4.47l-.23-.16a71.63,71.63,0,0,0,14.29-1.26c4.32-.78,8.15-1.67,11.36-2.34s5.81-1.19,7.6-1.51l2.07-.33A6.31,6.31,0,0,1,181.2,241.56Z" style="fill:#263238"></path><path d="M186.3,259a5.92,5.92,0,0,1-.78.36c-.52.22-1.3.52-2.3.89-2,.73-4.93,1.72-8.6,2.79s-8.06,2.24-13,3.48a83.22,83.22,0,0,1-16.19,2.83,28.6,28.6,0,0,1-4.35-.12,17.92,17.92,0,0,1-4.14-.86,20,20,0,0,1-6.79-4.15,40.8,40.8,0,0,1-8-10.79c-1.8-3.37-3-6.21-3.86-8.18-.42-1-.73-1.75-.93-2.28a4.55,4.55,0,0,1-.28-.81s.14.26.38.77l1,2.24c.89,1.94,2.17,4.75,4,8.09a41.13,41.13,0,0,0,8,10.6,19.67,19.67,0,0,0,6.63,4,17.89,17.89,0,0,0,4,.83,28.8,28.8,0,0,0,4.27.11A84.1,84.1,0,0,0,161.55,266c4.9-1.21,9.3-2.34,13-3.36s6.61-2,8.64-2.63l2.32-.8A4.39,4.39,0,0,1,186.3,259Z" style="fill:#263238"></path><g style="opacity:0.30000000000000004"><path d="M167.17,222.11s3.54,4,3.6,7.37c.09,5.4-1.27,8.17.42,14.06l-4.83,1.17s-.73-1.44-.1-4.52,1.84-6.83,2.39-10.18A11.4,11.4,0,0,0,167.17,222.11Z"></path></g><path d="M166.36,244.71a6.6,6.6,0,0,1-.29-1.18,13,13,0,0,1,0-3.32,34.08,34.08,0,0,1,1-4.79,42.78,42.78,0,0,0,1.33-5.78,11.3,11.3,0,0,0-.61-5.74,14.81,14.81,0,0,0-2.58-4c-1.82-2.07-3.12-3.22-3.05-3.29a5.08,5.08,0,0,1,.95.75,28.51,28.51,0,0,1,2.38,2.29,14.36,14.36,0,0,1,2.74,4.09,11.46,11.46,0,0,1,.68,6,39.18,39.18,0,0,1-1.37,5.84,37.42,37.42,0,0,0-1.13,4.71,15.86,15.86,0,0,0-.17,3.25A5.12,5.12,0,0,1,166.36,244.71Z" style="fill:#263238"></path><g style="opacity:0.2"><path d="M167,244.33l-14.91.34a8.4,8.4,0,0,1-3.5-.41c-1.57-.66-2.58-2.19-3.46-3.65q-3.93-6.48-7.2-13.32s3.94,12.53,6.41,18a2.85,2.85,0,0,0,3.49,1.8A67.41,67.41,0,0,0,167,244.33Z"></path></g><g style="opacity:0.2"><path d="M122,253.21s5,19.2,18,18.81,25.22-5.93,25.22-5.93l-.58-.6s-22,4.74-28.12,1.76C124.88,261.59,122,253.21,122,253.21Z"></path></g><g style="opacity:0.1"><path d="M124.76,195c-3.72,2.37-5.1,7.37-4.3,11.71s3.39,8.14,6.19,11.55a3.08,3.08,0,0,0,1.24,1.06,3.22,3.22,0,0,0,2.2-.28l17.65-6.73a4,4,0,0,1-2.13-2.43"></path></g><path d="M185.78,257.21l4.09,0c3.71-.37,5.78-.42,6.82-1.41,1.39-1.32-.52-2.62-.52-2.62s2.69-.92,2.43-2.56c-.17-1.12-1.44-1.24-1.44-1.24s2.37-.93,2.84-1.91c.63-1.35-1-2.07-1-2.07,3.23-2,2.94-4,2.19-4.15s-3.26,1-3.26,1c-2.13.61-7.94,2.38-5.78-.82s2.59-6.48,2.1-7.45a1.21,1.21,0,0,0-2.22.55,13.78,13.78,0,0,1-1.51,3.58,9.41,9.41,0,0,1-1.94,2.45c-.91.81-1.71,1.46-2.41,2L182.49,246Z" style="fill:#ffbe9d"></path><path d="M159.73,157.14a13.26,13.26,0,0,0,2.68,11.08c1.59,1.93,3.85,3.62,4.14,6.11.38,3.21-2.79,6.15-2.13,9.31.54,2.59,3.3,4,5.07,5.9A9.11,9.11,0,0,1,170.57,200c-1.48,2.52-4.32,4.7-3.93,7.61a15.47,15.47,0,0,0,1.18,3.16,3.07,3.07,0,0,1-.33,3.19,3.63,3.63,0,0,1-2.11.81,56.78,56.78,0,0,1-16.77,0l3-57.65Z" style="fill:#263238"></path><path d="M132.92,195.44l-1.54-35.3,14-10.62,12.74,6.23s.42,16,0,22.93-7.42,7.68-7.42,7.68.16,4.07.32,8.34a9.06,9.06,0,0,1-9.14,9.41h0A9.08,9.08,0,0,1,132.92,195.44Z" style="fill:#ffbe9d"></path><path d="M156.75,167.41a.89.89,0,1,1-.89-.89A.89.89,0,0,1,156.75,167.41Z" style="fill:#263238"></path><path d="M157.61,166.44c-.12.12-.77-.44-1.73-.49s-1.67.41-1.77.28.07-.27.38-.49a2.34,2.34,0,0,1,1.43-.37,2.37,2.37,0,0,1,1.37.54C157.57,166.17,157.67,166.39,157.61,166.44Z" style="fill:#263238"></path><path d="M146.46,167.41a.89.89,0,1,1-.89-.89A.89.89,0,0,1,146.46,167.41Z" style="fill:#263238"></path><path d="M147,166.44c-.11.12-.77-.44-1.72-.49s-1.68.41-1.78.28.07-.27.39-.49a2.31,2.31,0,0,1,1.42-.37,2.34,2.34,0,0,1,1.37.54C147,166.17,147.07,166.39,147,166.44Z" style="fill:#263238"></path><path d="M150.72,186.36a17.36,17.36,0,0,1-9.19-3.1s2.3,5.19,9.26,4.91Z" style="fill:#eb996e"></path><path d="M150.46,174.52a5.9,5.9,0,0,1,1.57-.2c.24,0,.48,0,.53-.23a1.32,1.32,0,0,0-.14-.77c-.2-.63-.42-1.29-.65-2-.46-1.41-.85-2.69-1.11-3.63a6.07,6.07,0,0,1-.35-1.53,6.37,6.37,0,0,1,.61,1.45c.33.91.76,2.18,1.21,3.59l.63,2a1.6,1.6,0,0,1,.1,1,.64.64,0,0,1-.41.35,1.57,1.57,0,0,1-.42,0A6.31,6.31,0,0,1,150.46,174.52Z" style="fill:#263238"></path><path d="M149.76,175.33a2.16,2.16,0,0,0-1,.56,1,1,0,0,0-.24,1,1.07,1.07,0,0,0,1.21.51,1.25,1.25,0,0,0,.87-.66,1,1,0,0,0-.11-1.06.82.82,0,0,0-1-.15" style="fill:#eb996e"></path><path d="M151,176.73c0,.13-.78.36-1.63-.13s-1.09-1.3-1-1.34.51.51,1.2.89S151,176.58,151,176.73Z" style="fill:#263238"></path><path d="M144.52,170.94a.27.27,0,0,1-.37.12.26.26,0,1,1,.37-.12Z" style="fill:#263238"></path><path d="M146.42,170.78a.71.71,0,0,1-.24.19.56.56,0,0,1-.24-.19c-.1-.11,0-.33.24-.33S146.51,170.67,146.42,170.78Z" style="fill:#263238"></path><path d="M145.64,172a.23.23,0,0,1-.29.15.23.23,0,0,1-.06-.32.2.2,0,1,1,.35.17Z" style="fill:#263238"></path><path d="M155.22,170.93a.3.3,0,0,1-.54-.24.3.3,0,0,1,.54.24Z" style="fill:#263238"></path><path d="M157.11,170.77a.56.56,0,0,1-.24.19.55.55,0,0,1-.23-.19c-.1-.11,0-.33.24-.33S157.21,170.66,157.11,170.77Z" style="fill:#263238"></path><path d="M156.34,172a.24.24,0,0,1-.3.15.25.25,0,0,1-.06-.32c.07-.13.2-.2.3-.15A.24.24,0,0,1,156.34,172Z" style="fill:#263238"></path><path d="M146.16,148.14a9.94,9.94,0,0,0-7.83,3.35,11.38,11.38,0,0,0-2.75,8.12,5,5,0,0,0,1,3.09c1,1.14,2.7,1.37,4.22,1.53a10.11,10.11,0,0,0,4.68-.25,3.47,3.47,0,0,0,2.38-3.63c-.74,1-.13,2.48.91,3.11a6.58,6.58,0,0,0,3.55.64l5.24,0a2.81,2.81,0,0,0,1.72-.38,2.92,2.92,0,0,0,.86-2.15c.29-2.79.54-5.76-.74-8.26a9.87,9.87,0,0,0-5.79-4.54c-2.38-.79-5-.43-7.48-.59" style="fill:#263238"></path><path d="M133.73,156.08a7.93,7.93,0,0,0,.21-7.46,7,7,0,0,0-5.43-3.67,5.07,5.07,0,0,0-3.45.71c-2.06,1.38-2.81,4.73-1.94,7.09a6.49,6.49,0,0,0,5.22,4.08,15.26,15.26,0,0,0,6.78-1" style="fill:#263238"></path><path d="M164.54,202.61a10.76,10.76,0,0,0,2.4-.05,8,8,0,0,0,2.63-.92,7.84,7.84,0,0,0,2.7-2.48,6.73,6.73,0,0,0,1.12-4.21,7.86,7.86,0,0,0-1.85-4.66,7,7,0,0,0-2.13-1.7,17.67,17.67,0,0,1-2.63-1.45,3.36,3.36,0,0,1-1-1.27,3,3,0,0,1-.2-1.65,6.15,6.15,0,0,1,1.4-2.94,13,13,0,0,0,2.86-5.34,6.52,6.52,0,0,0-1-5.33,5,5,0,0,0-2-1.58,18.52,18.52,0,0,0-2.39-.78,9.45,9.45,0,0,1-2.25-.9,7.19,7.19,0,0,1-3.45-4.82,7,7,0,0,1,.06-2.88,6.17,6.17,0,0,1,.63-1.7,2.84,2.84,0,0,1,.25-.41c.06-.08.09-.13.1-.12a10,10,0,0,0-.79,2.27,7.07,7.07,0,0,0,0,2.78,6.82,6.82,0,0,0,1.69,3.22,7.54,7.54,0,0,0,3.84,2.14,19.86,19.86,0,0,1,2.46.78,5.43,5.43,0,0,1,2.2,1.71,7,7,0,0,1,1.12,5.72,13.45,13.45,0,0,1-2.94,5.55,5.78,5.78,0,0,0-1.31,2.69,2.55,2.55,0,0,0,1,2.46,16.87,16.87,0,0,0,2.54,1.41,7.69,7.69,0,0,1,2.27,1.83,8.29,8.29,0,0,1,1.91,5,7.15,7.15,0,0,1-1.25,4.44,8,8,0,0,1-2.86,2.53,8.21,8.21,0,0,1-2.74.86,6.68,6.68,0,0,1-1.82,0A4.7,4.7,0,0,1,164.54,202.61Z" style="fill:#263238"></path><path d="M115.35,156.6c.05-.08.81.41,2.17.85a11.52,11.52,0,0,0,5.48.42,11.39,11.39,0,0,0,5-2.27c1.12-.88,1.68-1.6,1.75-1.54a5.53,5.53,0,0,1-1.52,1.83,10.5,10.5,0,0,1-10.84,1.91A5.66,5.66,0,0,1,115.35,156.6Z" style="fill:#263238"></path><path d="M146.53,148.41a16.34,16.34,0,0,0-19.27,18.5c.39,2.5,1.35,5,.69,7.47-.87,3.25-4.35,5.3-5.19,8.55-1,4,2.33,7.93,2.25,12.07,0,2.24-1.08,4.31-1.61,6.48a14.77,14.77,0,0,0,5.78,15.25,2.21,2.21,0,0,0,1.12.49,2.44,2.44,0,0,0,1.14-.31l15.31-7c-2.86-4.28-5.85-9-5.41-14.14.23-2.66,1.37-5.34.67-7.91-.55-2-2.15-3.57-3.54-5.14s-2.71-3.5-2.49-5.59c.26-2.38,2.45-4.3,2.42-6.7,0-1.68-1.15-3.13-1.72-4.71a9.88,9.88,0,0,1,1.15-8.14,29.34,29.34,0,0,1,5.58-6.36" style="fill:#263238"></path></g></svg>