<svg xmlns="http://www.w3.org/2000/svg" viewBox="0 0 500 500"><g id="background-complete"><path d="M87,102.08a22.41,22.41,0,0,0-2.68-5.55,7.64,7.64,0,0,0-5-3.28,4.67,4.67,0,0,0-5,2.8c-.3-4.39-.92-8.91-3.12-12.73s-6.31-6.81-10.71-6.54c-4.15.25-7.7,3.33-9.67,7s-2.65,7.85-3.3,12c-1.57-1.93-4.89-1.33-6.54.54s-2.05,4.49-2.4,7H88Z" style="fill:#f5f5f5"></path><path d="M248.37,94.49a24.46,24.46,0,0,0-2.87-6A8.19,8.19,0,0,0,240.1,85a5,5,0,0,0-5.34,3c-.32-4.71-1-9.55-3.35-13.64s-6.76-7.31-11.47-7c-4.45.27-8.26,3.58-10.37,7.5s-2.84,8.41-3.54,12.81c-1.68-2.07-5.24-1.42-7,.59s-2.2,4.81-2.58,7.45h53Z" style="fill:#f5f5f5"></path><path d="M439.81,94a13.55,13.55,0,0,0-1.61-3.34,4.63,4.63,0,0,0-3-2,2.81,2.81,0,0,0-3,1.68,17.42,17.42,0,0,0-1.88-7.64c-1.32-2.29-3.78-4.09-6.42-3.93a7.52,7.52,0,0,0-5.81,4.2,22.29,22.29,0,0,0-2,7.17c-.94-1.15-2.94-.79-3.92.33a7.73,7.73,0,0,0-1.44,4.18h29.69Z" style="fill:#f5f5f5"></path><path d="M174.08,40a13.31,13.31,0,0,0-1.61-3.33,4.58,4.58,0,0,0-3-2,2.8,2.8,0,0,0-3,1.69,17.54,17.54,0,0,0-1.87-7.64c-1.33-2.3-3.79-4.1-6.43-3.93A7.53,7.53,0,0,0,152.35,29a22.42,22.42,0,0,0-2,7.18c-.94-1.16-2.93-.79-3.92.33A7.83,7.83,0,0,0,145,40.67H174.7Z" style="fill:#f5f5f5"></path><path d="M393.07,55.51a27.89,27.89,0,0,0-3.29-6.82,9.37,9.37,0,0,0-6.19-4,5.73,5.73,0,0,0-6.11,3.44c-.36-5.4-1.13-10.94-3.83-15.62s-7.74-8.37-13.14-8c-5.1.31-9.46,4.09-11.88,8.58s-3.25,9.64-4.05,14.68c-1.93-2.37-6-1.63-8,.67s-2.52,5.51-2.95,8.53h60.73Z" style="fill:#f5f5f5"></path><rect x="142.02" y="215.37" width="16.15" height="55.51" transform="translate(300.19 486.25) rotate(180)" style="fill:#ebebeb"></rect><path d="M211.33,215.18s-.79-.52,1-2.82-1-3.52-1-3.52c-7.63,4.41-18.28,0-18.28,0s12.56-3.88,14.15-7.58c1.18-2.76-.91-3.07-2-3,1.28-.13,4.05-.58,4.9-2.06,1.11-1.94-3.26-4.23-3.26-4.23a3.37,3.37,0,0,0,0-3c-.71-1.94-17.09-4.76-17.09-4.76,4.77.53,6.52-4.23,6.52-4.23s8.11.18,10-3-1.27-4.06-6.67-6.7-17.33-12.51-17.33-12.51,7.47-.71,9.54-2.47.15-2.11.15-2.11c8.91.88,5.89-3.88,5.89-3.88a39.8,39.8,0,0,1-18.29-11.81s5.57-1.23,8.43-3.87-2.38-3.35-2.38-3.35,10.49-1.41,4.45-5.29c-4.6-2.94-11.94-6.91-14.23-8.1,2.51.92,8.19-.18,8.19-.18,6.67-3,0-7.4,0-7.4-7.79-4.41-19.24-15.51-19.24-15.51s5.72,3,8.58,2.12-3.18-4.41-3.18-4.41,3,.88,4.3,0-3.34-4.93-3.34-4.93c-6.86-4.46-15.3-16.14-18.84-21.16-3.53,5-12,16.7-18.84,21.16,0,0-4.61,4-3.33,4.93s4.29,0,4.29,0-6,3.53-3.18,4.41,8.58-2.12,8.58-2.12-11.44,11.1-19.23,15.51c0,0-6.68,4.4,0,7.4,0,0,5.67,1.1,8.18.18-2.29,1.19-9.63,5.16-14.22,8.1-6,3.88,4.45,5.29,4.45,5.29s-5.25.7-2.39,3.35,8.43,3.87,8.43,3.87a39.8,39.8,0,0,1-18.29,11.81s-3,4.76,5.89,3.88c0,0-1.91.35.16,2.11s9.54,2.47,9.54,2.47-11.93,9.87-17.33,12.51-8.59,3.52-6.68,6.7,10,3,10,3,1.75,4.76,6.52,4.23c0,0-16.37,2.82-17.09,4.76a3.41,3.41,0,0,0,0,3s-4.37,2.29-3.26,4.23c.85,1.48,3.63,1.93,4.91,2.06-1.14,0-3.23.29-2,3,1.59,3.7,14.15,7.58,14.15,7.58s-10.65,4.41-18.28,0c0,0-2.7,1.23-.95,3.52s.95,2.82.95,2.82-4-3-2.22,1.59,11,7.4,11,7.4-5.25.88-3.66,3.7,8.27,6.17,15.58,6.87,17.17-1.93,17.17-1.93-6.68,3.52-2.07,5.46,9.86-2.47,9.86-2.47-1,4.51,2.86,3a26.06,26.06,0,0,0,7-4.54s1.19,6.64,3.57,5.05c2.38,1.59,3.57-5.05,3.57-5.05a26.06,26.06,0,0,0,7,4.54c3.82,1.55,2.86-3,2.86-3s5.25,4.41,9.86,2.47-2.07-5.46-2.07-5.46,9.86,2.64,17.17,1.93,14-4.05,15.58-6.87-3.65-3.7-3.65-3.7,9.22-2.82,11-7.4S211.33,215.18,211.33,215.18Z" style="fill:#ebebeb"></path><path d="M175.5,109.81l-.25-.11A.71.71,0,0,1,175.5,109.81Z"></path><rect x="286.48" y="215.37" width="16.15" height="55.51" transform="translate(589.11 486.25) rotate(180)" style="fill:#ebebeb"></rect><path d="M355.79,215.18s-.8-.52.95-2.82-.95-3.52-.95-3.52c-7.63,4.41-18.29,0-18.29,0s12.56-3.88,14.15-7.58c1.19-2.76-.9-3.07-2-3,1.28-.13,4.06-.58,4.91-2.06,1.11-1.94-3.26-4.23-3.26-4.23a3.41,3.41,0,0,0,0-3c-.72-1.94-17.1-4.76-17.1-4.76,4.77.53,6.52-4.23,6.52-4.23s8.11.18,10-3-1.27-4.06-6.68-6.7-17.33-12.51-17.33-12.51,7.47-.71,9.54-2.47.16-2.11.16-2.11c8.9.88,5.88-3.88,5.88-3.88A39.8,39.8,0,0,1,324,137.47s5.56-1.23,8.43-3.87-2.39-3.35-2.39-3.35,10.49-1.41,4.45-5.29c-4.59-2.94-11.94-6.91-14.22-8.1,2.5.92,8.18-.18,8.18-.18,6.68-3,0-7.4,0-7.4-7.79-4.41-19.24-15.51-19.24-15.51s5.73,3,8.59,2.12-3.18-4.41-3.18-4.41,3,.88,4.29,0-3.34-4.93-3.34-4.93c-6.85-4.46-15.3-16.14-18.83-21.16-3.54,5-12,16.7-18.84,21.16,0,0-4.61,4-3.34,4.93s4.29,0,4.29,0-6,3.53-3.18,4.41,8.59-2.12,8.59-2.12S272.8,104.87,265,109.28c0,0-6.68,4.4,0,7.4,0,0,5.68,1.1,8.18.18-2.28,1.19-9.63,5.16-14.22,8.1-6,3.88,4.45,5.29,4.45,5.29s-5.24.7-2.38,3.35,8.42,3.87,8.42,3.87a39.8,39.8,0,0,1-18.28,11.81s-3,4.76,5.88,3.88c0,0-1.9.35.16,2.11s9.54,2.47,9.54,2.47-11.92,9.87-17.33,12.51-8.58,3.52-6.68,6.7,10,3,10,3,1.75,4.76,6.52,4.23c0,0-16.38,2.82-17.09,4.76a3.37,3.37,0,0,0,0,3s-4.37,2.29-3.26,4.23c.84,1.48,3.62,1.93,4.9,2.06-1.13,0-3.23.29-2,3,1.59,3.7,14.15,7.58,14.15,7.58s-10.65,4.41-18.28,0c0,0-2.71,1.23-1,3.52s1,2.82,1,2.82-4-3-2.23,1.59,11,7.4,11,7.4-5.25.88-3.66,3.7,8.27,6.17,15.58,6.87,17.18-1.93,17.18-1.93-6.68,3.52-2.07,5.46,9.86-2.47,9.86-2.47-1,4.51,2.86,3a26.11,26.11,0,0,0,7-4.54s1.19,6.64,3.58,5.05c2.38,1.59,3.57-5.05,3.57-5.05a26.06,26.06,0,0,0,7,4.54c3.81,1.55,2.86-3,2.86-3s5.24,4.41,9.86,2.47-2.07-5.46-2.07-5.46,9.86,2.64,17.17,1.93,14-4.05,15.58-6.87-3.66-3.7-3.66-3.7,9.22-2.82,11-7.4S355.79,215.18,355.79,215.18Z" style="fill:#ebebeb"></path><path d="M320,109.81l-.25-.11A.8.8,0,0,1,320,109.81Z"></path><rect x="382.13" y="230.18" width="11.84" height="40.7" transform="translate(776.09 501.06) rotate(180)" style="fill:#ebebeb"></rect><path d="M432.94,230.05s-.58-.39.7-2.07a1.63,1.63,0,0,0-.7-2.59c-5.59,3.23-13.4,0-13.4,0s9.21-2.84,10.37-5.55c.87-2-.66-2.25-1.5-2.24.94-.09,3-.43,3.6-1.51.81-1.42-2.39-3.1-2.39-3.1a2.5,2.5,0,0,0,0-2.19c-.52-1.43-12.53-3.49-12.53-3.49,3.5.38,4.78-3.1,4.78-3.1s5.94.13,7.34-2.2-.93-3-4.89-4.91-12.71-9.17-12.71-9.17,5.48-.52,7-1.81.12-1.55.12-1.55c6.53.64,4.31-2.84,4.31-2.84a29.22,29.22,0,0,1-13.4-8.66s4.08-.9,6.18-2.84-1.75-2.46-1.75-2.46,7.69-1,3.26-3.87c-3.37-2.16-8.75-5.07-10.43-5.94,1.84.67,6-.13,6-.13,4.9-2.2,0-5.43,0-5.43-5.71-3.23-14.1-11.37-14.1-11.37s4.19,2.2,6.29,1.55-2.33-3.23-2.33-3.23,2.22.65,3.15,0-2.45-3.62-2.45-3.62c-5-3.26-11.22-11.83-13.81-15.51-2.59,3.68-8.78,12.25-13.81,15.51,0,0-3.38,3-2.45,3.62s3.15,0,3.15,0-4.43,2.58-2.33,3.23,6.29-1.55,6.29-1.55-8.39,8.14-14.1,11.37c0,0-4.9,3.23,0,5.43,0,0,4.16.8,6,.13-1.68.87-7.06,3.78-10.43,5.94-4.43,2.84,3.26,3.87,3.26,3.87s-3.84.52-1.75,2.46,6.18,2.84,6.18,2.84a29.22,29.22,0,0,1-13.4,8.66s-2.22,3.48,4.31,2.84c0,0-1.4.26.12,1.55s7,1.81,7,1.81-8.74,7.23-12.7,9.17-6.3,2.58-4.9,4.91,7.34,2.2,7.34,2.2,1.29,3.48,4.78,3.1c0,0-12,2.06-12.53,3.49a2.5,2.5,0,0,0,0,2.19s-3.2,1.68-2.39,3.1c.62,1.08,2.66,1.42,3.6,1.51-.84,0-2.37.21-1.5,2.24,1.17,2.71,10.37,5.55,10.37,5.55s-7.8,3.23-13.4,0a1.63,1.63,0,0,0-.7,2.59c1.28,1.68.7,2.07.7,2.07s-2.91-2.2-1.63,1.16,8,5.42,8,5.42-3.85.65-2.68,2.72,6.06,4.52,11.42,5S374.08,243,374.08,243s-4.89,2.59-1.51,4,7.22-1.81,7.22-1.81-.7,3.31,2.1,2.17A19.17,19.17,0,0,0,387,244s.87,4.87,2.62,3.71c1.75,1.16,2.62-3.71,2.62-3.71a19.17,19.17,0,0,0,5.13,3.33c2.8,1.14,2.1-2.17,2.1-2.17s3.84,3.23,7.22,1.81-1.51-4-1.51-4,7.23,1.94,12.59,1.43,10.26-3,11.42-5-2.68-2.72-2.68-2.72,6.76-2.06,8-5.42S432.94,230.05,432.94,230.05Z" style="fill:#ebebeb"></path><path d="M406.67,152.79l-.18-.08A.49.49,0,0,1,406.67,152.79Z"></path><rect x="428.49" y="230.18" width="11.84" height="40.7" transform="translate(868.82 501.06) rotate(180)" style="fill:#e0e0e0"></rect><path d="M479.31,230.05s-.59-.39.7-2.07a1.63,1.63,0,0,0-.7-2.59c-5.6,3.23-13.41,0-13.41,0s9.21-2.84,10.38-5.55c.87-2-.67-2.25-1.5-2.24.94-.09,3-.43,3.59-1.51.82-1.42-2.38-3.1-2.38-3.1a2.5,2.5,0,0,0,0-2.19c-.53-1.43-12.54-3.49-12.54-3.49,3.5.38,4.78-3.1,4.78-3.1s5.95.13,7.35-2.2-.94-3-4.9-4.91-12.7-9.17-12.7-9.17,5.47-.52,7-1.81.12-1.55.12-1.55c6.52.64,4.31-2.84,4.31-2.84A29.29,29.29,0,0,1,456,173.07s4.08-.9,6.18-2.84-1.75-2.46-1.75-2.46,7.7-1,3.27-3.87c-3.37-2.16-8.76-5.07-10.43-5.94,1.84.67,6-.13,6-.13,4.89-2.2,0-5.43,0-5.43-5.71-3.23-14.11-11.37-14.11-11.37s4.2,2.2,6.3,1.55-2.33-3.23-2.33-3.23,2.21.65,3.14,0-2.44-3.62-2.44-3.62c-5-3.26-11.22-11.83-13.81-15.51-2.59,3.68-8.79,12.25-13.81,15.51,0,0-3.38,3-2.45,3.62s3.15,0,3.15,0-4.43,2.58-2.34,3.23,6.3-1.55,6.3-1.55-8.39,8.14-14.11,11.37c0,0-4.89,3.23,0,5.43,0,0,4.17.8,6,.13-1.67.87-7.06,3.78-10.42,5.94-4.43,2.84,3.26,3.87,3.26,3.87s-3.85.52-1.75,2.46,6.18,2.84,6.18,2.84a29.22,29.22,0,0,1-13.41,8.66s-2.21,3.48,4.32,2.84c0,0-1.4.26.11,1.55s7,1.81,7,1.81-8.75,7.23-12.71,9.17-6.29,2.58-4.89,4.91,7.34,2.2,7.34,2.2,1.28,3.48,4.78,3.1c0,0-12,2.06-12.53,3.49a2.46,2.46,0,0,0,0,2.19s-3.21,1.68-2.39,3.1c.62,1.08,2.65,1.42,3.59,1.51-.83,0-2.36.21-1.49,2.24,1.16,2.71,10.37,5.55,10.37,5.55s-7.81,3.23-13.4,0A1.63,1.63,0,0,0,392,228c1.28,1.68.7,2.07.7,2.07s-2.92-2.2-1.64,1.16,8.05,5.42,8.05,5.42-3.85.65-2.68,2.72,6.06,4.52,11.42,5S420.45,243,420.45,243s-4.9,2.59-1.52,4,7.23-1.81,7.23-1.81-.7,3.31,2.1,2.17a19.37,19.37,0,0,0,5.13-3.33s.87,4.87,2.62,3.71c1.74,1.16,2.62-3.71,2.62-3.71a19.17,19.17,0,0,0,5.13,3.33c2.79,1.14,2.09-2.17,2.09-2.17s3.85,3.23,7.23,1.81-1.51-4-1.51-4,7.22,1.94,12.58,1.43,10.26-3,11.43-5-2.68-2.72-2.68-2.72,6.76-2.06,8-5.42S479.31,230.05,479.31,230.05Z" style="fill:#e0e0e0"></path><path d="M453,152.79l-.18-.08A.71.71,0,0,1,453,152.79Z" style="fill:#e0e0e0"></path><rect x="49.68" y="235.48" width="10.16" height="34.94" transform="translate(109.53 505.9) rotate(180)" style="fill:#ebebeb"></rect><path d="M93.31,235.37s-.5-.34.6-1.78a1.4,1.4,0,0,0-.6-2.22c-4.8,2.78-11.51,0-11.51,0s7.91-2.44,8.91-4.77c.75-1.74-.57-1.93-1.29-1.91.81-.09,2.56-.37,3.09-1.3.7-1.22-2.05-2.66-2.05-2.66a2.16,2.16,0,0,0,0-1.89c-.45-1.22-10.76-3-10.76-3,3,.33,4.1-2.67,4.1-2.67s5.11.11,6.31-1.88-.8-2.55-4.21-4.22S75,199.21,75,199.21s4.7-.45,6-1.56.1-1.33.1-1.33c5.61.56,3.7-2.44,3.7-2.44a25.05,25.05,0,0,1-11.5-7.43s3.5-.77,5.3-2.44-1.5-2.11-1.5-2.11,6.6-.88,2.8-3.32c-2.89-1.86-7.51-4.35-9-5.1,1.57.58,5.15-.12,5.15-.12,4.2-1.88,0-4.65,0-4.65C71.19,165.93,64,158.94,64,158.94s3.6,1.89,5.4,1.34-2-2.78-2-2.78,1.9.56,2.7,0-2.1-3.1-2.1-3.1c-4.31-2.81-9.63-10.16-11.85-13.32-2.23,3.16-7.55,10.51-11.86,13.32,0,0-2.9,2.55-2.1,3.1s2.7,0,2.7,0-3.8,2.22-2,2.78,5.4-1.34,5.4-1.34-7.2,7-12.11,9.77c0,0-4.2,2.77,0,4.65,0,0,3.58.7,5.15.12-1.44.75-6.06,3.24-9,5.1-3.8,2.44,2.8,3.32,2.8,3.32s-3.3.45-1.5,2.11,5.3,2.44,5.3,2.44a25.05,25.05,0,0,1-11.5,7.43s-1.91,3,3.7,2.44c0,0-1.2.23.1,1.33s6,1.56,6,1.56-7.5,6.21-10.9,7.87S21,209.3,22.16,211.3s6.31,1.88,6.31,1.88,1.1,3,4.1,2.67c0,0-10.31,1.77-10.76,3a2.16,2.16,0,0,0,0,1.89s-2.75,1.44-2,2.66c.53.93,2.28,1.21,3.09,1.3-.72,0-2,.17-1.29,1.91,1,2.33,8.91,4.77,8.91,4.77s-6.71,2.78-11.51,0a1.4,1.4,0,0,0-.6,2.22c1.1,1.44.6,1.78.6,1.78s-2.5-1.89-1.4,1,6.9,4.66,6.9,4.66-3.3.56-2.3,2.33,5.21,3.88,9.81,4.33,10.81-1.22,10.81-1.22-4.21,2.22-1.3,3.44,6.2-1.56,6.2-1.56-.6,2.84,1.8,1.87a16.64,16.64,0,0,0,4.41-2.86s.75,4.18,2.25,3.18c1.49,1,2.24-3.18,2.24-3.18a16.64,16.64,0,0,0,4.41,2.86c2.4,1,1.8-1.87,1.8-1.87s3.3,2.78,6.2,1.56-1.3-3.44-1.3-3.44,6.21,1.66,10.81,1.22,8.81-2.55,9.81-4.33-2.3-2.33-2.3-2.33,5.8-1.77,6.9-4.66S93.31,235.37,93.31,235.37Z" style="fill:#e0e0e0"></path><path d="M70.76,169,70.6,169A.46.46,0,0,1,70.76,169Z"></path><path d="M192.13,260.87a10.19,10.19,0,0,1,4.28,4,10.07,10.07,0,0,1,1.82,5.59,17.82,17.82,0,0,0-6.1-9.62Z" style="fill:#e0e0e0"></path><path d="M201.75,254.85c.16,0-.56,3.44-.65,7.72s.44,7.71.28,7.74a8,8,0,0,1-.49-2.24,34.28,34.28,0,0,1,.27-11A8.55,8.55,0,0,1,201.75,254.85Z" style="fill:#e0e0e0"></path><path d="M211.52,258.4a56,56,0,0,0-3.26,5.79,54.33,54.33,0,0,0-2,6.33,5.68,5.68,0,0,1,.16-2,21.12,21.12,0,0,1,3.81-8.69A6.33,6.33,0,0,1,211.52,258.4Z" style="fill:#e0e0e0"></path><path d="M221.82,296.31a11.9,11.9,0,0,1,6.1,9.63,24.56,24.56,0,0,0-2.26-5.31A24.87,24.87,0,0,0,221.82,296.31Z" style="fill:#e0e0e0"></path><path d="M231.44,290.29c.16,0-.56,3.45-.65,7.72s.44,7.72.28,7.74a8,8,0,0,1-.49-2.24,34.43,34.43,0,0,1-.31-5.51,34.9,34.9,0,0,1,.58-5.5A8.24,8.24,0,0,1,231.44,290.29Z" style="fill:#e0e0e0"></path><path d="M241.21,293.85a56,56,0,0,0-3.26,5.79,54.54,54.54,0,0,0-2,6.32,5.68,5.68,0,0,1,.16-2,21.26,21.26,0,0,1,1.4-4.56,21.58,21.58,0,0,1,2.41-4.13A5.88,5.88,0,0,1,241.21,293.85Z" style="fill:#e0e0e0"></path><path d="M79.34,320.47a11.92,11.92,0,0,1,6.1,9.62,24.76,24.76,0,0,0-2.27-5.31A24.75,24.75,0,0,0,79.34,320.47Z" style="fill:#e0e0e0"></path><path d="M89,314.45c.15,0-.56,3.44-.65,7.71s.43,7.72.27,7.75a8.73,8.73,0,0,1-.48-2.24,34.57,34.57,0,0,1-.31-5.52,33.75,33.75,0,0,1,.57-5.49A7.84,7.84,0,0,1,89,314.45Z" style="fill:#e0e0e0"></path><path d="M98.73,318a56,56,0,0,0-3.26,5.79,58.18,58.18,0,0,0-2,6.33,5.88,5.88,0,0,1,.17-2,20.93,20.93,0,0,1,3.8-8.69A6,6,0,0,1,98.73,318Z" style="fill:#e0e0e0"></path><path d="M302.63,350a11.86,11.86,0,0,1,6.1,9.62,25,25,0,0,0-2.26-5.31A24.56,24.56,0,0,0,302.63,350Z" style="fill:#e0e0e0"></path><path d="M312.25,344c.16,0-.56,3.45-.65,7.72s.44,7.72.28,7.74a7.71,7.71,0,0,1-.49-2.23,34.57,34.57,0,0,1-.31-5.52,33.62,33.62,0,0,1,.57-5.49A8.14,8.14,0,0,1,312.25,344Z" style="fill:#e0e0e0"></path><path d="M322,347.51a56,56,0,0,0-3.26,5.79,58.18,58.18,0,0,0-2.05,6.33,6.22,6.22,0,0,1,.17-2,20.61,20.61,0,0,1,1.4-4.57,21.18,21.18,0,0,1,2.4-4.12A6,6,0,0,1,322,347.51Z" style="fill:#e0e0e0"></path><path d="M166.49,412.59a11.92,11.92,0,0,1,6.1,9.62,18,18,0,0,0-6.1-9.62Z" style="fill:#e0e0e0"></path><path d="M176.1,406.57c.16,0-.55,3.44-.64,7.71s.43,7.72.27,7.74a8.43,8.43,0,0,1-.48-2.23,34.66,34.66,0,0,1,.26-11A8.55,8.55,0,0,1,176.1,406.57Z" style="fill:#e0e0e0"></path><path d="M185.88,410.12a53.91,53.91,0,0,0-3.26,5.79,55.66,55.66,0,0,0-2.05,6.33,5.88,5.88,0,0,1,.17-2,20.78,20.78,0,0,1,3.8-8.69A5.74,5.74,0,0,1,185.88,410.12Z" style="fill:#e0e0e0"></path><path d="M243.37,467.48a11.9,11.9,0,0,1,6.1,9.62,25,25,0,0,0-2.26-5.31A24.56,24.56,0,0,0,243.37,467.48Z" style="fill:#e0e0e0"></path><path d="M253,461.46c.16,0-.56,3.44-.65,7.72s.44,7.71.28,7.74a8,8,0,0,1-.49-2.24,34.29,34.29,0,0,1,.27-11A8.08,8.08,0,0,1,253,461.46Z" style="fill:#e0e0e0"></path><path d="M262.76,465a56.89,56.89,0,0,0-3.26,5.8,54.54,54.54,0,0,0-2,6.32,5.68,5.68,0,0,1,.16-2,20.78,20.78,0,0,1,3.81-8.69A6.08,6.08,0,0,1,262.76,465Z" style="fill:#e0e0e0"></path><path d="M458.05,462.2a12,12,0,0,1,6.1,9.63,25.15,25.15,0,0,0-2.27-5.31A25.56,25.56,0,0,0,458.05,462.2Z" style="fill:#e0e0e0"></path><path d="M467.66,456.18c.16,0-.55,3.45-.64,7.72s.43,7.72.27,7.74a8.81,8.81,0,0,1-.49-2.24,33.37,33.37,0,0,1-.3-5.51,33.89,33.89,0,0,1,.57-5.5A8.72,8.72,0,0,1,467.66,456.18Z" style="fill:#e0e0e0"></path><path d="M477.44,459.74a53.91,53.91,0,0,0-3.26,5.79,55,55,0,0,0-2.05,6.33,6.06,6.06,0,0,1,.16-2,21.37,21.37,0,0,1,1.41-4.56,20.68,20.68,0,0,1,2.4-4.12A5.74,5.74,0,0,1,477.44,459.74Z" style="fill:#e0e0e0"></path><path d="M27,453.84a10.18,10.18,0,0,1,4.28,4,10.17,10.17,0,0,1,1.82,5.59,24.78,24.78,0,0,0-2.26-5.31A24.87,24.87,0,0,0,27,453.84Z" style="fill:#e0e0e0"></path><path d="M36.6,447.82c.16,0-.56,3.45-.65,7.72s.44,7.72.28,7.74a7.86,7.86,0,0,1-.49-2.24,34.36,34.36,0,0,1-.31-5.51A34.9,34.9,0,0,1,36,450,8.24,8.24,0,0,1,36.6,447.82Z" style="fill:#e0e0e0"></path><path d="M46.37,451.38a56,56,0,0,0-3.26,5.79,53.66,53.66,0,0,0-2,6.33,5.74,5.74,0,0,1,.16-2A21,21,0,0,1,45,452.84,5.83,5.83,0,0,1,46.37,451.38Z" style="fill:#e0e0e0"></path><path d="M434,327.77a12,12,0,0,1,6.1,9.62,24.83,24.83,0,0,0-2.26-5.3A24.41,24.41,0,0,0,434,327.77Z" style="fill:#e0e0e0"></path><path d="M443.62,321.75c.16,0-.56,3.45-.65,7.72s.44,7.72.28,7.74a8,8,0,0,1-.49-2.24,34.43,34.43,0,0,1-.31-5.51A33.89,33.89,0,0,1,443,324,8,8,0,0,1,443.62,321.75Z" style="fill:#e0e0e0"></path><path d="M453.39,325.31a56,56,0,0,0-3.26,5.79,58.45,58.45,0,0,0-2.05,6.32,5.88,5.88,0,0,1,.17-2,20.71,20.71,0,0,1,1.4-4.56,21.09,21.09,0,0,1,2.4-4.13A5.56,5.56,0,0,1,453.39,325.31Z" style="fill:#e0e0e0"></path><path d="M24.51,334.86a10.19,10.19,0,0,1,4.27,4,10.24,10.24,0,0,1,1.83,5.59,24.76,24.76,0,0,0-2.27-5.31A26.05,26.05,0,0,0,24.51,334.86Z" style="fill:#e0e0e0"></path><path d="M34.13,328.84c.15,0-.56,3.45-.65,7.72s.43,7.72.27,7.74a8.57,8.57,0,0,1-.48-2.23,33.43,33.43,0,0,1-.31-5.52,33.89,33.89,0,0,1,.57-5.5A8.13,8.13,0,0,1,34.13,328.84Z" style="fill:#e0e0e0"></path><path d="M43.9,332.4a56,56,0,0,0-3.26,5.79,55,55,0,0,0-2,6.33,5.88,5.88,0,0,1,.17-2,20.78,20.78,0,0,1,3.8-8.69A5.74,5.74,0,0,1,43.9,332.4Z" style="fill:#e0e0e0"></path><path d="M453.69,260.52a11.9,11.9,0,0,1,6.1,9.63,17.89,17.89,0,0,0-6.1-9.63Z" style="fill:#e0e0e0"></path><path d="M463.31,254.5c.16,0-.56,3.45-.65,7.72s.44,7.72.28,7.74a7.84,7.84,0,0,1-.49-2.23,34.57,34.57,0,0,1-.31-5.52,35.05,35.05,0,0,1,.57-5.5A8,8,0,0,1,463.31,254.5Z" style="fill:#e0e0e0"></path><path d="M473.08,258.06a56,56,0,0,0-3.26,5.79,53.66,53.66,0,0,0-2,6.33,5.74,5.74,0,0,1,.16-2,20.67,20.67,0,0,1,3.81-8.68A5.83,5.83,0,0,1,473.08,258.06Z" style="fill:#e0e0e0"></path></g><g id="background-simple"><path d="M145.71,106.77l.88-2.56c7.39-21.59,25.78-37.66,48.13-41.1a60,60,0,0,1,8.69-.69c21-.1,41.74,11.24,53.22,29.06,6.75,10.49,10.82,23.37,20.87,30.67,13.09,9.49,31,5.95,46.56,2s33.49-7.41,46.53,2.14c8.17,6,12.56,16.07,14.21,26.11,4.36,26.6-8.81,54.12-29.55,70.91s-47.93,23.84-74.56,24.29c-37.29.62-75.59-11.71-102.7-37.78S136.6,143.31,145.71,106.77Z" style="fill:#f5f5f5"></path><circle cx="69.23" cy="80.87" r="29.48" style="fill:#f5f5f5"></circle><circle cx="448.84" cy="130.65" r="20.3" style="fill:#f5f5f5"></circle></g><g id="Floor"><path d="M475.42,270.52c0,.14-102.72.26-229.41.26s-229.43-.12-229.43-.26,102.7-.26,229.43-.26S475.42,270.38,475.42,270.52Z" style="fill:#263238"></path></g><g id="Plants"><path d="M173.12,340.84a11.92,11.92,0,0,1,6.1,9.62,24.76,24.76,0,0,0-2.27-5.31A25.23,25.23,0,0,0,173.12,340.84Z" style="fill:#263238"></path><path d="M182.74,334.82c.15,0-.56,3.44-.65,7.71s.43,7.72.27,7.75a8.73,8.73,0,0,1-.48-2.24,34.66,34.66,0,0,1,.26-11A7.84,7.84,0,0,1,182.74,334.82Z" style="fill:#263238"></path><path d="M192.51,338.37a56,56,0,0,0-3.26,5.79,55.66,55.66,0,0,0-2.05,6.33,5.88,5.88,0,0,1,.17-2,20.78,20.78,0,0,1,3.8-8.69A6,6,0,0,1,192.51,338.37Z" style="fill:#263238"></path><path d="M301.37,416.29a10.18,10.18,0,0,1,4.28,4,10.07,10.07,0,0,1,1.82,5.59,24.4,24.4,0,0,0-2.26-5.31A25.33,25.33,0,0,0,301.37,416.29Z" style="fill:#263238"></path><path d="M311,410.27c.16,0-.56,3.45-.65,7.72s.44,7.72.28,7.74a8.29,8.29,0,0,1-.49-2.23,34.35,34.35,0,0,1,.27-11A8.9,8.9,0,0,1,311,410.27Z" style="fill:#263238"></path><path d="M320.76,413.83a58.31,58.31,0,0,0-3.26,5.79,53.66,53.66,0,0,0-2,6.33,5.68,5.68,0,0,1,.16-2,21,21,0,0,1,3.81-8.69A6.06,6.06,0,0,1,320.76,413.83Z" style="fill:#263238"></path><path d="M36.68,395.37a10.11,10.11,0,0,1,4.28,4A10.17,10.17,0,0,1,42.78,405a25,25,0,0,0-2.26-5.31A24.56,24.56,0,0,0,36.68,395.37Z" style="fill:#263238"></path><path d="M46.3,389.34c.16,0-.56,3.45-.65,7.72s.44,7.72.28,7.74a7.71,7.71,0,0,1-.49-2.23,34.28,34.28,0,0,1,.27-11A8.4,8.4,0,0,1,46.3,389.34Z" style="fill:#263238"></path><path d="M56.07,392.9a56,56,0,0,0-3.26,5.79,54.33,54.33,0,0,0-2,6.33,5.68,5.68,0,0,1,.16-2,21,21,0,0,1,3.81-8.69A5.83,5.83,0,0,1,56.07,392.9Z" style="fill:#263238"></path><path d="M429.45,395.47a12,12,0,0,1,6.1,9.63,24.31,24.31,0,0,0-2.27-5.31A25.56,25.56,0,0,0,429.45,395.47Z" style="fill:#263238"></path><path d="M439.06,389.45c.16,0-.55,3.45-.64,7.72s.43,7.72.27,7.74a8.73,8.73,0,0,1-.48-2.24,33.3,33.3,0,0,1-.31-5.51,33.89,33.89,0,0,1,.57-5.5A8.72,8.72,0,0,1,439.06,389.45Z" style="fill:#263238"></path><path d="M448.84,393a33.42,33.42,0,0,0-5.31,12.11,5.88,5.88,0,0,1,.17-2,20.71,20.71,0,0,1,1.4-4.56,21.09,21.09,0,0,1,2.4-4.13A5.56,5.56,0,0,1,448.84,393Z" style="fill:#263238"></path></g><g id="speech-bubble"><path d="M325.24,106.93l-5.5.37a22.2,22.2,0,1,1,5.15-6.07h0Z" style="fill:#fff"></path><path d="M325.24,106.93v-.36c0-.27,0-.63,0-1.09-.05-1-.11-2.44-.2-4.27a.1.1,0,0,0-.1-.1.11.11,0,0,0-.07,0h0l.16.13a22.24,22.24,0,0,0-1.35-24.52,22.77,22.77,0,0,0-6.69-6,21.73,21.73,0,0,0-9.23-3,22.86,22.86,0,0,0-10.24,1.45,21.92,21.92,0,0,0-8.82,6.29,22.36,22.36,0,0,0-4.9,9.75A22.82,22.82,0,0,0,284,95.7a21.75,21.75,0,0,0,4.44,8.69,23.05,23.05,0,0,0,7,5.64,22.11,22.11,0,0,0,7.77,2.36,22.88,22.88,0,0,0,7.1-.37,22.11,22.11,0,0,0,9.53-4.64l-.06,0,4.1-.33,1-.1.34,0a1.92,1.92,0,0,0-.38,0l-1.07,0-4.06.22-.05,0a22.18,22.18,0,0,1-9.47,4.47,22.89,22.89,0,0,1-7,.31,22,22,0,0,1-7.61-2.36,22.72,22.72,0,0,1-6.85-5.56,21.33,21.33,0,0,1-4.32-8.51,22.44,22.44,0,0,1-.18-10.16,22,22,0,0,1,4.79-9.53,21.51,21.51,0,0,1,8.61-6.14,22.25,22.25,0,0,1,10-1.43,21.36,21.36,0,0,1,9,2.9A22.32,22.32,0,0,1,323.27,77a22,22,0,0,1,1.53,24.15.11.11,0,0,0,0,.15.13.13,0,0,0,.13,0h0l-.17-.07c.13,1.81.23,3.21.3,4.21q.06.69.09,1.11A3.81,3.81,0,0,0,325.24,106.93Z" style="fill:#263238"></path><path d="M295,87.32a6.75,6.75,0,0,1,1.74-3.7,6.53,6.53,0,0,1,3.41-2.11,5.43,5.43,0,0,1,4.13.81A5.35,5.35,0,0,1,306,84.23a5.24,5.24,0,0,1,1.57-1.71,5.4,5.4,0,0,1,4.12-.81,6.53,6.53,0,0,1,3.41,2.1,6.78,6.78,0,0,1,1.76,3.69,8.37,8.37,0,0,1-1,5.1,11.75,11.75,0,0,1-4,3.79c-2.63,1.59-6.11,3.58-6.11,3.58s-2.94-2.19-5.58-3.78a11.71,11.71,0,0,1-4-3.78A8.26,8.26,0,0,1,295,87.32Z" style="fill:#FF725E"></path></g><g id="Characters"><path d="M328,181.46l-3.87,41.69-.65,18.59.14,24.3,7.79,2.35c3.38-12.94,6.12-25,7.87-35.78l6.34-41.89-1.25-4.52Z" style="fill:#ffbf9d"></path><path d="M320.09,276.38s-2.64,2.28-4.4,4.13-3.19,7.25-3.19,7.25L305.64,293l8.08,7.59,8.91-8.6,2.06-6.45Z" style="fill:#ffbf9d"></path><path d="M335.72,250.94l-3.56,18.31c1.39,2.65,1.09,7.61,1.09,7.61s-1.06,9-1.54,11.91-1.23,5.44-3.28,4.25-2.2-3.06-1-8.27l-.46-3.08-1.83,1.69-2.75,8.08s3.89,7.06,3,8.47-1.84.84-1.84.84l-1.17.58-6.61-8.72.22-11.75L323.66,266l-.14-23.51" style="fill:#ffbf9d"></path><path d="M326.77,285.12c1.88-.46.46-4.29-.76-5.92-.41-.55-1.05-1.07-1.7-.88a1.33,1.33,0,0,0-.84,1.35c0,.57.58,1,.84,1.49-.13-.4-.57-.68-.84-1a1.13,1.13,0,0,0-1.11-.43c-.62.17-.83,1-.82,1.6a7.24,7.24,0,0,0,.59,2.85c-.11-.44,0,0-.27-.37a1.06,1.06,0,0,0-2,.34,2.91,2.91,0,0,0,0,1.28,16.07,16.07,0,0,0,2.83,6.73,3.24,3.24,0,0,0,1.95-2.73,3,3,0,0,0,2.17-1.61,2.94,2.94,0,0,0-.07-2.69" style="fill:#ffbf9d"></path><path d="M326.77,285.12s.11.09.23.32a2.91,2.91,0,0,1,.26,1.11,3,3,0,0,1-.51,1.76,3.15,3.15,0,0,1-2,1.33l.19-.21a3.51,3.51,0,0,1-2.07,3l-.2.08-.13-.18a16.24,16.24,0,0,1-2.41-4.7,13,13,0,0,1-.61-2.91,1.79,1.79,0,0,1,.73-1.59,1.23,1.23,0,0,1,1-.16,1.63,1.63,0,0,1,.8.5c.1.1.18.23.19.23s0,0-.2,0c-.05,0-.11,0,0,0,.38,0,.36.23.38.2a.42.42,0,0,1,0,.09l.05.17-.64.18a12.51,12.51,0,0,1-.54-1.94c0-.34,0-.67-.06-1a2.88,2.88,0,0,1,.18-1,1.38,1.38,0,0,1,.79-.85,1.3,1.3,0,0,1,1.14.16,1.68,1.68,0,0,1,.4.35c.08.1.18.19.28.3a2,2,0,0,1,.6.8l-.55.24c-.17-.34-.51-.64-.74-1.1a1.66,1.66,0,0,1,.11-1.48,1.34,1.34,0,0,1,1.24-.7,1.88,1.88,0,0,1,1.16.59,8.67,8.67,0,0,1,1.79,3.49,3.41,3.41,0,0,1-.06,2.54.93.93,0,0,1-.78.48c0-.06.35-.1.61-.57a3.35,3.35,0,0,0-.12-2.35,8.82,8.82,0,0,0-1.79-3.23,1.41,1.41,0,0,0-.84-.42.77.77,0,0,0-.72.45,1.07,1.07,0,0,0-.07.95c.14.31.49.61.74,1.07l-.55.23a1.73,1.73,0,0,0-.45-.55,3.42,3.42,0,0,1-.33-.33,1,1,0,0,0-.27-.23.63.63,0,0,0-1,.39,4,4,0,0,0-.06,1.71,11.86,11.86,0,0,0,.52,1.83l-.63.17,0-.15h0s0,0,.09,0l.11,0,.08,0v0h0l.07.31h0a.4.4,0,0,1-.35-.12c-.15-.16-.18-.22-.24-.28a.72.72,0,0,0-.94-.23,1.18,1.18,0,0,0-.44,1,12.73,12.73,0,0,0,.56,2.73A16,16,0,0,0,323,292l-.33-.09a3,3,0,0,0,1.82-2.5l0-.18.17,0a2.77,2.77,0,0,0,1.83-1.09,2.84,2.84,0,0,0,.55-1.55A4.48,4.48,0,0,0,326.77,285.12Z" style="fill:#ff9a6c"></path><path d="M321.92,283.86c.12-.12,1.26.86,2.06,2.51s.88,3.16.71,3.17-.54-1.34-1.3-2.88S321.78,284,321.92,283.86Z" style="fill:#ff9a6c"></path><path d="M323.77,280.15c.13-.12,1.17.82,2.06,2.28s1.29,2.8,1.13,2.86-.82-1.12-1.69-2.52S323.63,280.27,323.77,280.15Z" style="fill:#ff9a6c"></path><path d="M317.64,296l-1.3-1.67-.69-.91a3,3,0,0,1-.48-1.2c0-3.24.12-6,.2-8.05a17.2,17.2,0,0,1,.29-3.31,16.65,16.65,0,0,1,.17,3.32c0,2.26,0,5,0,7.94a2.28,2.28,0,0,0,.37.93l.66.89,1.27,1.7,2.12,2.91a15.18,15.18,0,0,1,1.81,2.78,17.49,17.49,0,0,1-2.18-2.5" style="fill:#ff9a6c"></path><path d="M425,264.39a7.39,7.39,0,0,1-2.18,4.24,17.47,17.47,0,0,0-3,5.83s-1.75,8.17-2.19,10.82-.54,5.09,1.59,4.66,2.82-2,3.34-6.89l1.32-2.54,1.08,2v7.85s-5.47,5-5.14,6.47,1.35,1.27,1.35,1.27l.84.85,8.33-5.62,3.29-10.29-.55-13.36.39-15.19L424,256.94Z" style="fill:#ffbf9d"></path><path d="M411.44,159.76s8-2.66,9.7,6.51,5.18,32.64,5.65,36.46a124.46,124.46,0,0,0,4.46,21.41c3.13,10.78,2.08,39.23,2.08,39.23H424.9s-8.3-24.33-10-36.85-4.88-17.89-4.1-23-2-18-2-18Z" style="fill:#ffbf9d"></path><path d="M352,418l1.11,19.35s-20.21,7.57-20.36,11.17l39.33-.71-.43-30.22Z" style="fill:#263238"></path><path d="M365.21,435.53a1.53,1.53,0,0,1,1.15,1.73,1.55,1.55,0,0,1-1.79,1.1,1.46,1.46,0,1,1,.79-2.79" style="fill:#e0e0e0"></path><path d="M372.05,447.84l-.17-3-37.65,1.82s-1.74.76-1.51,1.94Z" style="fill:#455a64"></path><path d="M352.44,437.2c0,.18,1,.25,1.93.82s1.47,1.33,1.65,1.26-.13-1.13-1.3-1.81S352.4,437,352.44,437.2Z" style="fill:#fff"></path><path d="M348.35,438.9c0,.18.79.48,1.46,1.24s.87,1.58,1.07,1.57.29-1-.56-2S348.35,438.73,348.35,438.9Z" style="fill:#fff"></path><path d="M346.1,443.66c.17,0,.42-.88-.09-1.88s-1.42-1.38-1.5-1.23.49.69.9,1.51S345.91,443.65,346.1,443.66Z" style="fill:#fff"></path><path d="M352.7,432.76c.08.17,1-.1,2.05-.05s1.94.36,2,.2-.73-.8-2-.84S352.6,432.62,352.7,432.76Z" style="fill:#fff"></path><path d="M401.44,415.93l.63,23.44,6.09,18.35a2.41,2.41,0,0,1-1.8,3.08h0a2.57,2.57,0,0,1-2.23-.49c-3.91-3.22-18.24-15.11-18.19-16.83.06-2-2.38-24.67-2.38-24.67Z" style="fill:#263238"></path><path d="M406.36,460.8l-20.5-18.9.05,1a3.5,3.5,0,0,0,1,2.29c1.64,1.66,6.29,6.14,17.12,15.13a2.58,2.58,0,0,0,2.31.49Z" style="fill:#455a64"></path><path d="M400.24,450.89c.15.05.64-1.21,2.06-1.95a7.83,7.83,0,0,1,2.79-.67c0-.06-.3-.23-.88-.27a4.09,4.09,0,0,0-3.75,2C400.2,450.52,400.18,450.87,400.24,450.89Z" style="fill:#fff"></path><path d="M402.15,453.92a22.52,22.52,0,0,1,2.12-1.13,23.74,23.74,0,0,1,2.37-.43,2.89,2.89,0,0,0-2.55-.05C402.67,452.79,402,453.87,402.15,453.92Z" style="fill:#fff"></path><path d="M396.79,447.05a26.67,26.67,0,0,1,3.15-1.95,27.33,27.33,0,0,1,3.59-1,5.77,5.77,0,0,0-3.81.55A5.58,5.58,0,0,0,396.79,447.05Z" style="fill:#fff"></path><path d="M396,440c.07.13,1.39-.48,3.15-.65s3.18.17,3.22,0a5,5,0,0,0-3.27-.53A4.93,4.93,0,0,0,396,440Z" style="fill:#fff"></path><path d="M395.61,433.07a12.5,12.5,0,0,1,3.26-.75,13.27,13.27,0,0,1,3.29.59c0-.05-.24-.33-.82-.6a5.47,5.47,0,0,0-2.47-.51,5.67,5.67,0,0,0-2.46.62C395.84,432.73,395.57,433,395.61,433.07Z" style="fill:#fff"></path><path d="M401.76,115.54C400.27,97,391.22,85.62,391.22,85.62l-44.67,6.6c-3.78,8.33-2,26.71-3.12,34.75s-5.35,12-5.35,12h11.14s.75-5.61,1.44-6,1.61,6.05,1.61,6.05l50.65-1.08S402.17,120.6,401.76,115.54Z" style="fill:#263238"></path><path d="M391.22,85.62a27.82,27.82,0,0,0-21.88-10.05c-4.9.07-6.89,1.15-10.39,2.22a15.46,15.46,0,0,0-8.62,6.1c-2.39,3.62-4.36,7.66-4.7,12a37.16,37.16,0,0,0,1.09,12.3,48.68,48.68,0,0,0,7.07,14.36l7.54.68c6.24,0,12.58,0,18.61-1.59s11.84-5.07,14.93-10.5C399.16,103.57,396.92,92.16,391.22,85.62Z" style="fill:#263238"></path><path d="M381.16,85.86l-15.25-5.52-3.92.58c-8.86.31-14.66,10.27-14.49,17.45.19,8,.73,17.69,2.18,23.52,2.92,11.73,13,12.39,13,12.39s-.06,13.59,0,17.56l23-2.39-.42-59.67A4.2,4.2,0,0,0,381.16,85.86Z" style="fill:#ffbf9d"></path><path d="M367.3,118.57a2.49,2.49,0,0,0-.91-1.52,2.57,2.57,0,0,0-3.13-.08,3.44,3.44,0,0,0-1.2,3.27h0a3.13,3.13,0,0,0,2.28,1.23h.42a2.82,2.82,0,0,0,1.87-.81A2.51,2.51,0,0,0,367.3,118.57Z" style="fill:#ff9a6c"></path><path d="M352.27,108.12a1.53,1.53,0,0,0,1.61,1.41,1.46,1.46,0,0,0,1.45-1.51,1.53,1.53,0,0,0-1.6-1.41A1.47,1.47,0,0,0,352.27,108.12Z" style="fill:#263238"></path><path d="M350.86,103.07c.16.16,1.38-.1,3,.26s2.7,1.12,2.89,1-.06-.29-.53-.63a6.35,6.35,0,0,0-2.29-1,5.84,5.84,0,0,0-2.41-.06C351,102.82,350.77,103,350.86,103.07Z" style="fill:#263238"></path><path d="M361.29,114.82a11.17,11.17,0,0,0-2.7-.25c-.42,0-.83,0-.92-.33a2.12,2.12,0,0,1,.17-1.27c.3-1,.62-2.14,1-3.3,1.33-4.69,2.25-8.53,2.06-8.58s-1.42,3.71-2.74,8.4c-.32,1.15-.63,2.26-.91,3.31a2.4,2.4,0,0,0-.08,1.66,1.06,1.06,0,0,0,.74.56,2.58,2.58,0,0,0,.72,0A10.06,10.06,0,0,0,361.29,114.82Z" style="fill:#263238"></path><path d="M362.68,134.27a30.31,30.31,0,0,0,15.56-5.62s-3.53,8.61-15.53,8.52Z" style="fill:#ff9a6c"></path><path d="M366.22,115.54c-.27,0-.11,1.79-1.53,3.19s-3.33,1.36-3.32,1.61.45.31,1.25.26a4.48,4.48,0,0,0,2.79-1.24,3.92,3.92,0,0,0,1.17-2.66C366.58,116,366.34,115.52,366.22,115.54Z" style="fill:#263238"></path><path d="M350.7,96.49c.31.38,1.55,0,3,0s2.73.28,3-.11c.13-.19-.07-.56-.61-.92a4.67,4.67,0,0,0-4.87.09C350.74,95.92,350.57,96.3,350.7,96.49Z" style="fill:#263238"></path><path d="M369.8,107.63a1.54,1.54,0,0,1-1.4,1.62,1.48,1.48,0,0,1-1.65-1.3,1.54,1.54,0,0,1,1.4-1.62A1.47,1.47,0,0,1,369.8,107.63Z" style="fill:#263238"></path><path d="M372.18,101.89c-.14.18-1.36.18-2.88.82s-2.49,1.51-2.69,1.47,0-.26.44-.66a7.14,7.14,0,0,1,2.11-1.31,6.26,6.26,0,0,1,2.33-.52C372,101.69,372.25,101.81,372.18,101.89Z" style="fill:#263238"></path><path d="M371.4,95.69c-.31.39-1.6.07-3.12.12s-2.81.39-3.13,0c-.14-.18.05-.56.6-.94a5,5,0,0,1,5-.11C371.34,95.13,371.53,95.5,371.4,95.69Z" style="fill:#263238"></path><path d="M383.85,109.86c-.07-.89.77-3.06,1.63-3.27,2.31-.57,6.53-.75,7.08,5.18.76,8.1-7.53,7.19-7.57,7S384.11,112.92,383.85,109.86Z" style="fill:#ffbf9d"></path><path d="M387,115.56s.15.09.4.17a1.38,1.38,0,0,0,1.06-.07c.83-.4,1.42-1.82,1.32-3.29a4.78,4.78,0,0,0-.58-2,1.66,1.66,0,0,0-1.16-1,.73.73,0,0,0-.8.47c-.09.23,0,.39-.06.41s-.19-.12-.16-.46a.94.94,0,0,1,.28-.54A1.1,1.1,0,0,1,388,109a2,2,0,0,1,1.59,1.12,4.89,4.89,0,0,1,.7,2.22c.1,1.63-.59,3.24-1.73,3.69a1.54,1.54,0,0,1-1.32-.1C387,115.76,386.93,115.58,387,115.56Z" style="fill:#ff9a6c"></path><path d="M385.81,106.6l-2,2.2c-9.18-8.24-27.26-29-26.25-27.8a25.94,25.94,0,0,1,12.69-1.79c6.66.92,19.32,3.84,19.38,11.66S385.81,106.6,385.81,106.6Z" style="fill:#263238"></path><path d="M344.28,236s-12.66,19-10.67,43,11.66,70.1,11.66,70.1a339.07,339.07,0,0,1,3,40l3.27,46.26h21s1.33-51.62,0-62.47.55-24.51.84-33.49l1.49-56.26L376.56,238Z" style="fill:#263238"></path><path d="M410.32,234.4a102.47,102.47,0,0,1,7.13,42.33c-1.05,24.11-9.17,70.62-9.17,70.62s.26,37.9-1.92,58.48c-1.81,17.17-2.83,28.75-2.83,28.75l-20.31-.07s-3.37-51.53-2.46-62.43c.71-8.56.86-12.75-.29-18.66a104.3,104.3,0,0,1-1.77-13.28l-3.8-57.65.59-45.71Z" style="fill:#263238"></path><polygon points="353.63 143.12 363.81 142.4 387.11 142.26 408.89 147.11 396.88 168.59 376.58 175.78 360.8 172.05 351.76 161.15 353.63 143.12" style="fill:#ffbf9d"></polygon><path d="M407.78,195l1.11-49-12.83-2s-6.77,10.1-15.47,12.07c-5.15,1.17-13.63-.73-16.16-2.51-8.75-6.17-7.22-10.81-7.22-10.81s-12.2-.68-17.18.79-9.59,7.79-10.19,11.52l4.75,8.73,4.62,27.94h0l4.17,17.58s-7.89,36-7.1,38.19c.57,1.62,24.25,13.49,78.8.23,2.38-.58-6.82-32.2-9.12-37.68Z" style="fill:#FF725E"></path><path d="M429.51,194.77,422.41,159c-3.37-8.59-11-13-15-13h0l-1.83,48,2,5.3Z" style="fill:#FF725E"></path><polygon points="329.84 155.96 322.47 194.91 344.48 197.27 336.49 155.96 329.84 155.96" style="fill:#FF725E"></polygon><path d="M392.53,220.87a9.25,9.25,0,0,1-1.63-.5c-1-.35-2.54-.91-4.36-1.66a107.23,107.23,0,0,1-26.38-15.66c-1.53-1.24-2.74-2.28-3.55-3a11.6,11.6,0,0,1-1.22-1.19,9.15,9.15,0,0,1,1.37,1c.85.7,2.09,1.69,3.65,2.88a125.49,125.49,0,0,0,26.29,15.61c1.8.79,3.26,1.41,4.28,1.82A8.94,8.94,0,0,1,392.53,220.87Z" style="fill:#263238"></path><path d="M335,167a1.61,1.61,0,0,1,.13.46c.08.37.17.81.28,1.34.23,1.24.55,2.91.94,4.93.8,4.25,1.87,10,3.06,16.29s2.22,12.13,2.91,16.32c.35,2.09.62,3.79.78,5,.08.54.14,1,.19,1.36a1.61,1.61,0,0,1,0,.48,2.45,2.45,0,0,1-.13-.47l-.28-1.33c-.23-1.25-.55-2.92-.94-4.94-.8-4.24-1.87-10-3.06-16.29s-2.22-12.13-2.91-16.31c-.35-2.1-.62-3.79-.78-5-.08-.54-.13-1-.18-1.35A1.46,1.46,0,0,1,335,167Z" style="fill:#263238"></path><path d="M411.52,162.65c.14,0-1,10.32-2.48,23s-2.85,23-3,23,1-10.32,2.48-23S411.38,162.63,411.52,162.65Z" style="fill:#263238"></path><path d="M122,128.72l-.6-49.66c-.56-12.35,6.17-23,18.53-23.18l1.14,0a22.09,22.09,0,0,1,21.18,21.21c.42,10.7.74,22.54.44,28.26-.64,11.85-12.57,13.2-12.57,13.2s-.07,7.21-.07,10.69l2.79,8.13L134.11,142Z" style="fill:#ffbf9d"></path><path d="M150.1,118.6a28.63,28.63,0,0,1-15.24-5.2s3.34,9.06,15.21,8.49Z" style="fill:#ff9a6c"></path><path d="M157.91,88.35a1.69,1.69,0,0,1-1.7,1.64,1.62,1.62,0,0,1-1.68-1.6,1.69,1.69,0,0,1,1.7-1.64A1.62,1.62,0,0,1,157.91,88.35Z" style="fill:#263238"></path><path d="M159.38,80.92c-.16.18-1.48.25-3.16,1s-2.78,1.62-3,1.59,0-.26.51-.67a9.36,9.36,0,0,1,2.36-1.39,8.09,8.09,0,0,1,2.56-.64C159.23,80.73,159.46,80.84,159.38,80.92Z" style="fill:#263238"></path><path d="M141.68,88.35A1.7,1.7,0,0,1,140,90a1.62,1.62,0,0,1-1.68-1.6,1.7,1.7,0,0,1,1.7-1.64A1.63,1.63,0,0,1,141.68,88.35Z" style="fill:#263238"></path><path d="M141.76,83.72c-.24,0-1.3-.78-3-1.31s-3.18-.48-3.33-.64.2-.21.83-.24a8.5,8.5,0,0,1,2.72.39,7.59,7.59,0,0,1,2.37,1.17C141.76,83.46,141.87,83.7,141.76,83.72Z" style="fill:#263238"></path><path d="M147.57,96.22a11.38,11.38,0,0,1,3-.41c.47,0,.92-.11,1-.42A2.35,2.35,0,0,0,151.3,94c-.39-1.15-.8-2.35-1.22-3.6-1.71-5.12-2.92-9.33-2.71-9.39s1.75,4,3.45,9.15c.41,1.26.8,2.46,1.17,3.62a2.62,2.62,0,0,1,.17,1.83,1.18,1.18,0,0,1-.79.65,3.43,3.43,0,0,1-.8.08A12.33,12.33,0,0,1,147.57,96.22Z" style="fill:#263238"></path><path d="M142.44,76.28c-.26.45-2-.11-4.16-.24s-4,.12-4.15-.37c-.09-.23.29-.63,1.06-1a7.26,7.26,0,0,1,6.34.46C142.25,75.61,142.56,76.06,142.44,76.28Z" style="fill:#263238"></path><path d="M159.79,76.92c-.39.4-1.86-.07-3.64-.14s-3.3.2-3.64-.25c-.15-.21.1-.62.77-1a6.09,6.09,0,0,1,5.87.31C159.77,76.29,160,76.72,159.79,76.92Z" style="fill:#263238"></path><path d="M122,87.87c-.2-.09-8-2.74-8.12,5.37s8.09,6.51,8.1,6.28S122,87.87,122,87.87Z" style="fill:#ffbf9d"></path><path d="M119.51,96.43s-.14.09-.38.2a1.45,1.45,0,0,1-1.06,0c-.85-.32-1.56-1.69-1.58-3.15a4.53,4.53,0,0,1,.41-2A1.65,1.65,0,0,1,118,90.39a.72.72,0,0,1,.83.4c.11.23.06.39.1.4s.18-.13.11-.47a.89.89,0,0,0-.31-.51,1.06,1.06,0,0,0-.78-.21,2,2,0,0,0-1.49,1.24,4.74,4.74,0,0,0-.51,2.26c0,1.63.86,3.17,2,3.52a1.48,1.48,0,0,0,1.29-.2C119.5,96.62,119.54,96.44,119.51,96.43Z" style="fill:#ff9a6c"></path><path d="M167.09,73.5c-5.09.79-10.31.41-14.37-2.75a24.21,24.21,0,0,1-3.26-3.07c-1.8-2.05-3.21-4.6-5.63-5.83-3.13-1.6-6.9-.5-10.23.61l.14-.12a14.73,14.73,0,0,0-4.63,3.26,46.13,46.13,0,0,1-3.58,23.05A2.44,2.44,0,0,1,124.21,90c-1.9.75-1.32-1.77-2.73-2.25-1.08-.38-1.61-.15-3.76-.21-.75-2-1.19-7.59-1.82-10.6a14,14,0,0,1-3.49-8.09,18.1,18.1,0,0,1,1.45-6.2c2.06-3.9,3.25-5.9,6.41-7l.07,0c2.83-1.1,6.31-1.08,8.6.91.62-4.23,4.37-7.54,8.51-8.57s10.76-.32,14.7,1.32c2.69,1.12,5.3,3.25,8.31,6.31h0c.41.41.81.83,1.23,1.27l.1.11a7.23,7.23,0,0,0,3.07.95,4.38,4.38,0,0,0,4.15-1.7c.37-.41.84-.92,1.36-.75a1.1,1.1,0,0,1,.63.78,5.09,5.09,0,0,1-1.52,5.05,8.78,8.78,0,0,1-2.2,1.51,5.73,5.73,0,0,0,3.27,1.82,4.12,4.12,0,0,1,2.74,1.75,2.79,2.79,0,0,1,.52,1.58C173.81,71.43,170.4,73,167.09,73.5Z" style="fill:#263238"></path><path d="M169.26,70l-.09.08-.3.22a4.81,4.81,0,0,1-.51.31,4.94,4.94,0,0,1-.73.37,10.36,10.36,0,0,1-5.09.86,13.44,13.44,0,0,1-7.14-2.73,23.36,23.36,0,0,1-6.07-7.16c-.85-1.45-1.54-2.93-2.3-4.3A15.72,15.72,0,0,0,144.42,54a8.07,8.07,0,0,0-3.4-2.11,5.6,5.6,0,0,0-1.8-.23,6.26,6.26,0,0,0-1.65.3,6.86,6.86,0,0,0-3.86,3.18,8.08,8.08,0,0,0-.63,1.78,1.16,1.16,0,0,1,0-.13q0-.15.06-.36a6,6,0,0,1,.47-1.34A6.63,6.63,0,0,1,135,53.26a7,7,0,0,1,2.54-1.54,6.57,6.57,0,0,1,1.7-.32,5.83,5.83,0,0,1,1.88.22,8.19,8.19,0,0,1,3.51,2.15,15.85,15.85,0,0,1,2.67,3.7c.77,1.38,1.46,2.85,2.3,4.29a23.43,23.43,0,0,0,6,7.1,13.4,13.4,0,0,0,7,2.74,10.84,10.84,0,0,0,5-.76A15.7,15.7,0,0,0,169.26,70Z" style="fill:#455a64"></path><path d="M170.4,64.75A2,2,0,0,1,170,65a9.29,9.29,0,0,1-1.27.63,12.84,12.84,0,0,1-2,.63,15.07,15.07,0,0,1-2.56.31,13.75,13.75,0,0,1-2.56-.21,10.92,10.92,0,0,1-2-.55,8.16,8.16,0,0,1-1.3-.57,2.35,2.35,0,0,1-.44-.27c0-.05.68.3,1.8.66a14.56,14.56,0,0,0,2,.48,15.32,15.32,0,0,0,2.52.18,14.93,14.93,0,0,0,2.51-.28,13.29,13.29,0,0,0,2-.57C169.74,65.07,170.38,64.7,170.4,64.75Z" style="fill:#455a64"></path><path d="M125,70.92a2.22,2.22,0,0,1,.11.77,14.37,14.37,0,0,1,0,2.12,7,7,0,0,1-.25,1.49.84.84,0,0,1-.81.6,1.58,1.58,0,0,1-.9-.45l-2.9-2.68.43-.25.41,1.74c.39,1.64.75,3.19,1.08,4.62l.18.77-.57-.54a18.81,18.81,0,0,1-3.22-4,6.89,6.89,0,0,1-.87-1.77,29.63,29.63,0,0,0,4.41,5.39l-.39.23c-.35-1.42-.72-3-1.12-4.61-.14-.59-.28-1.18-.42-1.74l-.2-.85.63.6,2.85,2.72a1.15,1.15,0,0,0,.62.36.45.45,0,0,0,.42-.32,7.68,7.68,0,0,0,.28-1.38C125,72,124.93,70.92,125,70.92Z" style="fill:#455a64"></path><path d="M147.21,100.88c-.13,0-6.21-2.38-6.21-2.38s-1.75,3.51.37,5.13,4.72.59,5.13-.37A15.68,15.68,0,0,0,147.21,100.88Z" style="fill:#ff9a6c"></path><path d="M145.85,103.93a6.21,6.21,0,0,1-.86.27,5.92,5.92,0,0,1-2.37-.14h0a3.48,3.48,0,0,1-1.77-1.32,3.37,3.37,0,0,1-.22-2.56,6.89,6.89,0,0,1,.58-1.56l-.31.11c1.85.69,3.47,1.28,4.63,1.68a9.11,9.11,0,0,0,1.9.55,8.42,8.42,0,0,0-1.78-.86c-1.13-.48-2.73-1.13-4.56-1.84l-.21-.08-.1.19a6.37,6.37,0,0,0-.65,1.69,3.31,3.31,0,0,0,2.37,4.39h0a5.5,5.5,0,0,0,2.53,0C145.65,104.26,145.87,104,145.85,103.93Z" style="fill:#263238"></path><path d="M94.64,229.53s-7.06,8.74-10.47,42.4-11.7,33.69-6.34,47.46,72.39,13.54,81.44,7.3c20.29-14,12.5-87.79,12.5-87.79l-36.53,6.94Z" style="fill:#455a64"></path><path d="M179.56,160.72s4.23,42.85,4.49,47.29.95,32.12,2.07,48.92l-10.87-1.2s-9.35-45-9.33-45.88S162.79,166,162.79,166Z" style="fill:#ffbf9d"></path><path d="M188.17,281.61s12.34,25.43,15.39,26.45,25-9.25,25-9.25l3.65-18s-3,1.13-7.67,3-17.3,7.79-17.3,7.79l-12.55-15.4Z" style="fill:#ffbf9d"></path><path d="M187.3,265.42s2.63,2.28,4.39,4.13,3,6.56,3,6.56l4.71,6.18-7,7.85-2.19-5.06-5.51-4-2.05-6.45Z" style="fill:#ffbf9d"></path><path d="M173.93,243.86c.16.3,2,14.14,1.21,15.6-1.39,2.64-1,7-1,7s1.06,9,1.54,11.91,1.23,5.44,3.28,4.25,2.2-3.06,1-8.27l.46-3.08,1.83,1.69,2.75,8.09s-3.88,7.05-3,8.46,1.83.84,1.83.84L185,291l6.61-8.72-.22-11.75-5.26-13.57-.8-20.21-13-7Z" style="fill:#ffbf9d"></path><path d="M180.61,274.16c-1.88-.46-.46-4.29.76-5.92.41-.54,1-1.07,1.7-.88a1.33,1.33,0,0,1,.84,1.35c0,.57-.58,1-.84,1.49.13-.4.57-.68.84-1a1.14,1.14,0,0,1,1.11-.44c.63.17.83,1,.82,1.61a7.23,7.23,0,0,1-.59,2.84c.11-.44,0,0,.27-.37a1.19,1.19,0,0,1,1.15-.55,1.2,1.2,0,0,1,.84.89,3.07,3.07,0,0,1,0,1.28,16.22,16.22,0,0,1-2.84,6.73,3.23,3.23,0,0,1-1.95-2.73,3,3,0,0,1-2.17-1.61,2.94,2.94,0,0,1,.07-2.69" style="fill:#ffbf9d"></path><path d="M180.61,274.16s-.11.09-.23.32a2.77,2.77,0,0,0-.25,1.12,3,3,0,0,0,.5,1.75,3.18,3.18,0,0,0,2.05,1.33l-.2-.21a3.51,3.51,0,0,0,2.07,3l.2.08.13-.17a16.3,16.3,0,0,0,2.41-4.71,12.92,12.92,0,0,0,.61-2.91,1.79,1.79,0,0,0-.73-1.59,1.23,1.23,0,0,0-1-.16,1.63,1.63,0,0,0-.8.5c-.1.1-.18.23-.19.23s0,0,.2,0h0c-.38,0-.36.22-.38.19a.42.42,0,0,0,0,.09l0,.17.64.18a11.49,11.49,0,0,0,.54-1.94,8.35,8.35,0,0,0,.06-1,2.88,2.88,0,0,0-.18-1,1.39,1.39,0,0,0-.78-.85,1.29,1.29,0,0,0-1.14.16,1.59,1.59,0,0,0-.41.36l-.28.29a2,2,0,0,0-.6.8l.56.24c.16-.33.5-.64.73-1.1a1.66,1.66,0,0,0-.11-1.48,1.34,1.34,0,0,0-1.24-.7,1.93,1.93,0,0,0-1.16.59,8.87,8.87,0,0,0-1.79,3.49,3.41,3.41,0,0,0,.06,2.54.93.93,0,0,0,.78.48c0-.06-.35-.1-.61-.57a3.4,3.4,0,0,1,.12-2.35,8.82,8.82,0,0,1,1.79-3.23,1.44,1.44,0,0,1,.84-.42.79.79,0,0,1,.72.45,1.07,1.07,0,0,1,.07.95c-.14.32-.49.61-.74,1.07l.55.24a1.65,1.65,0,0,1,.45-.56,3.42,3.42,0,0,0,.33-.33,1,1,0,0,1,.27-.23.63.63,0,0,1,1,.39,4.07,4.07,0,0,1,.06,1.72,12.08,12.08,0,0,1-.52,1.82l.63.18,0-.16h0l-.09,0-.11,0-.08,0v0h0l-.07.31h0c.3,0,.3-.1.35-.12s.18-.22.24-.28a.73.73,0,0,1,.94-.23,1.18,1.18,0,0,1,.44,1,12.73,12.73,0,0,1-.56,2.73,16,16,0,0,1-2.26,4.57l.33-.09a3,3,0,0,1-1.82-2.5l0-.18-.17,0a2.77,2.77,0,0,1-1.83-1.09,2.84,2.84,0,0,1-.55-1.55A4.48,4.48,0,0,1,180.61,274.16Z" style="fill:#ff9a6c"></path><path d="M185.46,272.9c-.12-.12-1.26.86-2.06,2.51s-.88,3.16-.7,3.18.53-1.35,1.29-2.89S185.6,273,185.46,272.9Z" style="fill:#ff9a6c"></path><path d="M183.61,269.19c-.13-.12-1.16.82-2.06,2.28s-1.29,2.8-1.12,2.86.81-1.12,1.68-2.51S183.75,269.31,183.61,269.19Z" style="fill:#ff9a6c"></path><path d="M189.74,285.74c.42-.54.86-1.1,1.3-1.68l.69-.91a2.82,2.82,0,0,0,.48-1.19c0-3.24-.12-6-.2-8.06a17,17,0,0,0-.29-3.3,16.49,16.49,0,0,0-.17,3.31c0,2.26,0,5,0,7.94a2.17,2.17,0,0,1-.37.93l-.66.89-1.27,1.7-2.12,2.91a17.17,17.17,0,0,0-1.81,2.78,17.14,17.14,0,0,0,2.19-2.5" style="fill:#ff9a6c"></path><path d="M79.56,255.44A8.08,8.08,0,0,0,82,260.13c2.06,2.23,3.27,6.45,3.27,6.45s1.94,9,2.42,12,.6,5.63-1.76,5.16-3.12-2.23-3.69-7.62l-1.46-2.82-1.19,2.23v8.68s6,5.51,5.68,7.15-1.49,1.4-1.49,1.4l-.94.94-9.21-6.21L70,276.08l.6-14.78-.43-16.79,10.52,2.7Z" style="fill:#ffbf9d"></path><path d="M94.59,139.76s-8.82-2.95-10.72,7.2S78.14,183,77.62,187.27a137.3,137.3,0,0,1-4.93,23.67c-3.46,11.92-2.3,43.37-2.3,43.37h9.32s9.18-26.9,11-40.73,5.39-19.79,4.53-25.4,2.25-19.93,2.25-19.93Z" style="fill:#ffbf9d"></path><path d="M149.72,411.91l-1.09,22.77s22.43,8.78,22.63,13l-43.56-.57.27-35.54Z" style="fill:#263238"></path><path d="M135.18,432.59a1.8,1.8,0,0,0-1.25,2,1.7,1.7,0,0,0,2,1.28,1.9,1.9,0,0,0,1.32-2.17,1.76,1.76,0,0,0-2.21-1.1" style="fill:#e0e0e0"></path><path d="M127.7,447.11l.16-3.58,41.7,1.89s1.93.88,1.7,2.26Z" style="fill:#455a64"></path><path d="M149.34,434.46c0,.22-1.08.3-2.13,1s-1.63,1.58-1.82,1.5.14-1.34,1.43-2.14S149.39,434.27,149.34,434.46Z" style="fill:#fff"></path><path d="M153.88,436.44c.05.21-.88.57-1.61,1.47s-1,1.87-1.17,1.85-.33-1.23.6-2.34S153.88,436.24,153.88,436.44Z" style="fill:#fff"></path><path d="M156.41,442c-.2,0-.48-1,.08-2.22s1.56-1.63,1.65-1.45-.54.8-1,1.78S156.62,442,156.41,442Z" style="fill:#fff"></path><path d="M149,429.25c-.09.19-1.06-.12-2.27-.05s-2.14.44-2.25.25.8-.94,2.22-1S149.13,429.08,149,429.25Z" style="fill:#fff"></path><path d="M98.4,419.52,96,447l4.3,22.28A2.81,2.81,0,0,1,98,472.62h0a2.74,2.74,0,0,1-2.39-.88c-3.88-4.3-18.09-20.18-17.8-22.18.32-2.32.59-29.15.59-29.15Z" style="fill:#263238"></path><path d="M98,472.62,77.88,447.7l-.07,1.17a4.29,4.29,0,0,0,.82,2.81c1.59,2.17,6.11,8.05,16.86,20.05a2.72,2.72,0,0,0,2.47.89Z" style="fill:#455a64"></path><g style="opacity:0.6000000000000001"><path d="M84,439.18a1.74,1.74,0,0,1,.32,2.26,1.61,1.61,0,0,1-2.21.34,1.82,1.82,0,0,1-.32-2.39,1.67,1.67,0,0,1,2.33-.1" style="fill:#fff"></path></g><path d="M92.53,460.19a8.63,8.63,0,0,1,2.51-2,8.16,8.16,0,0,1,3.16-.4c0-.07-.3-.31-.93-.44a4.42,4.42,0,0,0-4.39,1.85C92.53,459.76,92.46,460.17,92.53,460.19Z" style="fill:#fff"></path><path d="M94.22,464a22.26,22.26,0,0,1,2.48-1,23.24,23.24,0,0,1,2.67-.18c.09-.13-1.18-.8-2.8-.41S94.09,463.92,94.22,464Z" style="fill:#fff"></path><path d="M89.23,455.24c.12.14,1.54-1.16,3.72-1.85s4.06-.51,4.08-.69a6.12,6.12,0,0,0-4.27.11A6.19,6.19,0,0,0,89.23,455.24Z" style="fill:#fff"></path><path d="M89.26,446.82c.06.17,1.6-.36,3.55-.31s3.47.63,3.54.47a5.29,5.29,0,0,0-3.52-1.07A5.35,5.35,0,0,0,89.26,446.82Z" style="fill:#fff"></path><path d="M89.75,438.74a13.59,13.59,0,0,1,3.69-.43A13.39,13.39,0,0,1,97,439.47c0-.06-.23-.42-.83-.83a6,6,0,0,0-5.43-.55C90.05,438.37,89.72,438.68,89.75,438.74Z" style="fill:#fff"></path><path d="M93.49,436.77a2.21,2.21,0,0,0,.1-1A7.06,7.06,0,0,0,93,433a3.17,3.17,0,0,0-1.26-1.62,1.09,1.09,0,0,0-1.27.17,1.88,1.88,0,0,0-.51,1.21,4,4,0,0,0,3.21,3.91,4.55,4.55,0,0,0,4.63-2.12,1.61,1.61,0,0,0,.15-1.33,1.08,1.08,0,0,0-1.1-.67,3.82,3.82,0,0,0-1.85.83,8,8,0,0,0-2,2,2.38,2.38,0,0,0-.48.92,12.66,12.66,0,0,1,2.69-2.58,3.5,3.5,0,0,1,1.63-.68.6.6,0,0,1,.61.35,1.11,1.11,0,0,1-.16.87,4.06,4.06,0,0,1-4,1.8,3.45,3.45,0,0,1-2.77-3.28,1.39,1.39,0,0,1,.32-.87.61.61,0,0,1,.7-.1,2.92,2.92,0,0,1,1.09,1.35A10.63,10.63,0,0,1,93.49,436.77Z" style="fill:#fff"></path><path d="M170.18,225.69a187.68,187.68,0,0,1,.3,30c-.47,6.12-19,174.29-19,174.29H124l7.72-159.15-2.25.5s-15,67.87-16.22,78.86c-1.1,9.88-14.56,87.52-14.56,87.52l-25.91-.29,9.64-100.22,11.13-90.4,3.8-25.28Z" style="fill:#263238"></path><path d="M172.13,136.93c3.36,2.49,6.1,6,7,12.34l5.21,31-14.84,4.2-5.14-35.29Z" style="fill:#FF725E"></path><path d="M155.5,127.88l16.63,9.61c1.39,9.61-.71,63.91-.71,63.91l.78,52.06c-23.3,12-51.82,8.07-80.31-1.56-.19-2.25.93-3.52,1.67-5.13l5.16-47s-1.18-35.27-1.18-35.93S95,130.41,95,130.41l27.35-8.47s11.6,10,20.85,10.46c8,.41,7.56-7,7.56-7Z" style="fill:#FF725E"></path><path d="M172.61,150.32a8.77,8.77,0,0,0-.1,1.58c0,1.11,0,2.55-.09,4.29,0,3.72-.1,8.68-.16,14.17s-.19,10.53-.32,14.15c-.05,1.74-.1,3.19-.14,4.29a10.09,10.09,0,0,0,0,1.58,8.28,8.28,0,0,0,.2-1.57c.1-1,.21-2.47.31-4.28.22-3.62.39-8.63.46-14.17s.06-10.54,0-14.17c0-1.74-.06-3.18-.08-4.29A11.23,11.23,0,0,0,172.61,150.32Z" style="fill:#263238"></path><path d="M95,130.11c-.64.21-8,2.39-12.08,13s-9.36,38.36-9.36,38.36l25.29,5.11,3.79-34.38Z" style="fill:#FF725E"></path><path d="M104.18,155a6,6,0,0,0-.24,1.23c-.13.9-.29,2-.48,3.37-.41,2.85-1,6.78-1.74,11.11s-1.54,8.22-2.12,11c-.27,1.33-.5,2.45-.69,3.34a5.83,5.83,0,0,0-.19,1.24,6.11,6.11,0,0,0,.38-1.19c.22-.78.51-1.91.85-3.31.67-2.8,1.51-6.7,2.26-11s1.29-8.28,1.6-11.14c.16-1.43.27-2.6.33-3.4A6.24,6.24,0,0,0,104.18,155Z" style="fill:#263238"></path><path d="M95.72,133a23.64,23.64,0,0,1,5.72,5.18,23.32,23.32,0,0,1,3.3,7,6.36,6.36,0,0,0-.39-2.28,16.07,16.07,0,0,0-6.56-8.84A6.7,6.7,0,0,0,95.72,133Z" style="fill:#263238"></path><path d="M133.91,315.47c0,.32,0,.27,0,0Z" style="fill:#455a64"></path><polygon points="133.91 315.47 133.91 315.47 133.91 315.47 133.91 315.47" style="fill:#455a64"></polygon><path d="M95.56,227.47l42,14.06-1,9.92-44.15-5.9S90,232.69,95.56,227.47Z" style="fill:#455a64"></path><path d="M137.6,241.53s35.08-11.05,34.71-10.19,5.44,8.77-.14,15.47l-35.57,4.64,1-9" style="fill:#455a64"></path><circle cx="138.3" cy="245.84" r="7.78" style="fill:#455a64"></circle><path d="M136.49,306.23c2.86-4.33,2.08-10,.94-15.11-1.8-7.91-4.22-15.75-4.73-23.85s3.14-14.81,8.55-20.87l-9.15-3.54c-13.31,18.7-16.87,46.64-11.27,68.9a8.93,8.93,0,0,0,1.13,2.93,6.51,6.51,0,0,0,5.71,2.48,19.45,19.45,0,0,0,6.24-1.7c0-.92-.24-4.33-.59-4.91C134.12,309,135.5,307.73,136.49,306.23Z" style="fill:#455a64"></path><path d="M150.13,261.71c-4.07-6.94-6.5-8.93-8-18.23l-5.48.25c-3,13.78-.59,26.87.64,33.42,1.21,6.37,1.6,10.9,5.16,14.69,2.85,3,7.33,4.75,8.82,8.64l7.12-3.22c-1.92-4.06-.12-8.8.11-13.29C158.87,275.93,154.2,268.65,150.13,261.71Z" style="fill:#455a64"></path><path d="M145,242.53s.08.09.2.29a5.32,5.32,0,0,1,.41.92,7.45,7.45,0,0,1,.27,3.7,8,8,0,0,1-2.72,4.76,8.15,8.15,0,0,1-12-2.32,8,8,0,0,1-.67-5.45,7.64,7.64,0,0,1,1.68-3.3,4.68,4.68,0,0,1,.74-.69c.18-.15.28-.21.29-.2s-.35.34-.87,1a8,8,0,0,0-1.48,3.25,7.69,7.69,0,0,0,.73,5.14,7.76,7.76,0,0,0,11.23,2.18,7.86,7.86,0,0,0,2.56-8C145.18,243,144.94,242.55,145,242.53Z" style="fill:#263238"></path><path d="M143.56,251.53c-.08,0-.3-.81-.86-2.07a16.71,16.71,0,0,0-2.94-4.43,16.51,16.51,0,0,0-4.22-3.25,19.56,19.56,0,0,1-2-1,6.17,6.17,0,0,1,2.16.68,14.19,14.19,0,0,1,4.44,3.22,14.34,14.34,0,0,1,2.9,4.65A6.09,6.09,0,0,1,143.56,251.53Z" style="fill:#263238"></path><path d="M127.52,251.06a9,9,0,0,1,1.1-2.84,9.25,9.25,0,0,1,1.57-2.61,9.32,9.32,0,0,1-1.1,2.84A8.89,8.89,0,0,1,127.52,251.06Z" style="fill:#263238"></path><path d="M247.4,432.16l-.21-6.94s13.79-.15,13.74,0-.94,8-.94,8l-7.07,3.59Z" style="fill:#e0e0e0"></path><path d="M247.24,437.76c.3,1,14.4,9.34,18.33,11.54a2.48,2.48,0,0,0,2.05.15h0a1.92,1.92,0,0,0,1.16-2.73l-7.85-14.4s-.6-1.69-.6-1.72c-1.87.89-5.67,3.66-13,.66l0,1-.56,4a7.18,7.18,0,0,0,.47,1.5" style="fill:#455a64"></path><path d="M260.3,440a15.46,15.46,0,0,1,1.6-1.47,16.77,16.77,0,0,1,2-1,2.91,2.91,0,0,0-2.22.63C260.56,439,260.19,440,260.3,440Z" style="fill:#263238"></path><path d="M259.15,438.06c.11.05.6-.81,1.6-1.48a17.64,17.64,0,0,1,2-.95,2.91,2.91,0,0,0-2.22.63C259.41,437,259,438,259.15,438.06Z" style="fill:#263238"></path><path d="M268.1,449.21a2.37,2.37,0,0,1-2.6.1c-10.88-6.15-17.37-9.94-19-11.68l.39-1.91Z" style="fill:#e0e0e0"></path><path d="M257.92,436.09a16.19,16.19,0,0,1,1.6-1.48,21.59,21.59,0,0,1,2-1,3,3,0,0,0-2.22.64C258.18,435,257.81,436.06,257.92,436.09Z" style="fill:#263238"></path><path d="M224.18,407.21l2-4.06s12.34,5.28,12.21,5.39-4.1,5.86-4.1,5.86l-8-.46Z" style="fill:#e0e0e0"></path><path d="M221,411.91c-.29,1,7.2,15.15,9.35,19A2.37,2.37,0,0,0,232,432h0a2,2,0,0,0,2.48-1.76l1.16-16.19s.41-1.75.43-1.77c-2.09-.17-6.84.3-11.48-5.92l-.53.87-2.65,3.13a6.71,6.71,0,0,0-.42,1.51" style="fill:#455a64"></path><path d="M230.9,420.35a18.65,18.65,0,0,1,2.17-.46,20.1,20.1,0,0,1,2.21.17,3.76,3.76,0,0,0-4.38.29Z" style="fill:#263238"></path><path d="M231,418.1a18.65,18.65,0,0,1,2.17-.46,17.62,17.62,0,0,1,2.22.17,3,3,0,0,0-2.25-.56A2.89,2.89,0,0,0,231,418.1Z" style="fill:#263238"></path><path d="M232.54,432.07a2.31,2.31,0,0,1-2.27-1.21c-5.92-10.66-9.39-17.13-9.88-19.45l1.38-1.44Z" style="fill:#e0e0e0"></path><path d="M231,415.8a18.65,18.65,0,0,1,2.17-.46,20.1,20.1,0,0,1,2.21.17,2.94,2.94,0,0,0-2.24-.56A2.91,2.91,0,0,0,231,415.8Z" style="fill:#263238"></path><path d="M225.5,340.25s-4.83,6.57-2.3,16.75,11.24,23.1,11.24,23.1-9.17,18-9.63,21.21,13.59,10.08,13.59,10.08,17.23-20,20.91-28.7-9.79-32.93-9.79-32.93Z" style="fill:#263238"></path><path d="M275.36,339.89c0-.49,0-.77,0-.77l-28.1,7.95-1.9,36.42s.73,12.58.09,20.5-.09,25.63-.09,25.63h17.8c1.3-7.66,3.92-25.83,3.92-25.83s7.82-42.58,8.28-50.08A132.47,132.47,0,0,0,275.36,339.89Z" style="fill:#263238"></path><path d="M254.59,357.35a2.79,2.79,0,0,1,.27.58c.15.38.38.95.65,1.68.55,1.48,1.31,3.62,2.15,6.3a81.47,81.47,0,0,1,2.46,9.58c.14.92.31,1.86.37,2.85a10.43,10.43,0,0,1,.06,1.49,5.81,5.81,0,0,1-.16,1.54,23.27,23.27,0,0,1-2.72,5.7,118.75,118.75,0,0,1-7,9.87c-2.28,2.93-4.41,5.51-6.22,7.66s-3.32,3.85-4.37,5L238.86,411c-.28.3-.44.46-.46.44a3.66,3.66,0,0,1,.38-.5l1.15-1.4,4.23-5.13c1.78-2.17,3.87-4.77,6.13-7.72s4.69-6.22,6.94-9.85a23.09,23.09,0,0,0,2.67-5.54,4.9,4.9,0,0,0,.14-1.43,10,10,0,0,0-.05-1.45,27.81,27.81,0,0,0-.35-2.8,86.52,86.52,0,0,0-2.33-9.55c-.79-2.69-1.5-4.85-2-6.34-.23-.7-.42-1.27-.56-1.72A2.43,2.43,0,0,1,254.59,357.35Z" style="fill:#455a64"></path><path d="M242,273.82s-10.76.58-14.66,2.19c-3.26,1.35-17.82,8.78-17.82,8.78s8.83,19.28,9,18.95l9.93-5.13Z" style="fill:#FF725E"></path><path d="M258.38,216a6.15,6.15,0,0,1,4.19,5.54s-.18-.39,1.53-.5a5.35,5.35,0,0,1,4.1,1.25c1,1,3.07,4,1.58,6.53,2.54,1.65,0,9.6-.83,11.55-1.16,2.8-1.69,2.61-4.46,3.85-4.46,2-5.4-.69-10-2.25-8.55-2.89-17.61-3.83-26.58-4.76-2-4.84.63-11.66,5.35-14s9.21-.65,15.09-3.81C248.33,219.4,254.06,214.88,258.38,216Z" style="fill:#263238"></path><path d="M272.55,255.46c-.66-5.68-3.21-12.84-5.71-20-2.25-6.44-11.14-11-17.48-8.48l-17.08,8.95.28,3.37,7.53,23.88,3,18.61L264,279.54l-.31-10A12.5,12.5,0,0,0,272.55,255.46Z" style="fill:#ffbf9d"></path><path d="M266.64,245.81a1.44,1.44,0,0,1-.95,1.79,1.39,1.39,0,0,1-1.8-.85,1.46,1.46,0,0,1,.95-1.8A1.4,1.4,0,0,1,266.64,245.81Z" style="fill:#263238"></path><path d="M266.7,241.4c-.1.18-1.22.44-2.52,1.3s-2.06,1.85-2.25,1.86,0-.24.3-.68a7.33,7.33,0,0,1,1.74-1.59,6.47,6.47,0,0,1,2.07-.93C266.53,241.25,266.75,241.31,266.7,241.4Z" style="fill:#263238"></path><path d="M254.45,249.41a1.46,1.46,0,0,1-1,1.79,1.4,1.4,0,0,1-1.8-.86,1.46,1.46,0,0,1,1-1.79A1.39,1.39,0,0,1,254.45,249.41Z" style="fill:#263238"></path><path d="M253,246.36c-.18.12-1.29-.24-2.85-.12s-2.69.63-2.86.54.09-.24.59-.47a6.51,6.51,0,0,1,2.29-.56,5.89,5.89,0,0,1,2.26.22C252.94,246.13,253.1,246.31,253,246.36Z" style="fill:#263238"></path><path d="M260.93,254.61c0-.07.06-.15,1.53-.75.38-.14.72-.3.73-.53s-.21-.52-.49-.81l-1.74-2a25.48,25.48,0,0,1-2.65-3.45c.15-.09.77.3,3.21,3.1l1.7,2c.23.3.59.62.51,1.12a1,1,0,0,1-.51.63,3.92,3.92,0,0,1-.64.26C261.08,254.7,260.93,254.61,260.93,254.61Z" style="fill:#263238"></path><path d="M263.71,269.51s-5.76,2.1-14.27-.23c0,0,2.65,5.63,14.37,3.65Z" style="fill:#ff9a6c"></path><path d="M250.83,241.05c0,.52-1.44.53-3,1.08s-2.71,1.36-3,1c-.13-.19,0-.69.44-1.26a4.46,4.46,0,0,1,2.09-1.49,4,4,0,0,1,2.47-.06C250.48,240.48,250.85,240.81,250.83,241.05Z" style="fill:#263238"></path><path d="M265.14,236.63c-.13.49-1.34.46-2.63.91s-2.27,1.12-2.67.79c-.18-.16-.15-.62.19-1.16a3.5,3.5,0,0,1,1.89-1.42,3.61,3.61,0,0,1,2.38,0C264.89,236,265.19,236.39,265.14,236.63Z" style="fill:#263238"></path><path d="M228.19,232.63s-6.76,1.83-5.65,9.91A23.13,23.13,0,0,0,233.22,259c4.32,2.43,6.73,2.3,6.73,2.3l.14-14.3Z" style="fill:#263238"></path><path d="M264.16,229.54a16.49,16.49,0,0,0-11.88-4.76,27.16,27.16,0,0,0-12.56,3.41,81.1,81.1,0,0,0-10.93,7.28,4.34,4.34,0,0,0-2,2.42,4.17,4.17,0,0,0,.32,2.11q2.88,8.66,5.75,17.31l2.56,3.17c1.9-.5,3.13-2.32,4-4.1a27.18,27.18,0,0,0,1.21-20.07,9.17,9.17,0,0,1,1.73,2.26,3,3,0,0,0,2.29,1.54c1.59,0,2.38-2,2.2-3.61s-.9-3.17-.52-4.72a18.26,18.26,0,0,0,7.27,3.73c1.25.32,2.82.39,3.59-.65a2.46,2.46,0,0,0,0-2.6,7.37,7.37,0,0,0-1.89-2,14.3,14.3,0,0,0,7.87,2.2,2,2,0,0,0,1.64-.6C265.33,231.17,264.77,230.18,264.16,229.54Z" style="fill:#263238"></path><path d="M237.34,253.47c-.19,0-7.26-.05-5.13,6.54s8.31,3.09,8.26,2.9S237.34,253.47,237.34,253.47Z" style="fill:#ffbf9d"></path><path d="M234.56,259.88a2.5,2.5,0,0,1-.15-.38,3.84,3.84,0,0,1-.21-1.75,1.37,1.37,0,0,1,.58-1.16.61.61,0,0,1,.77.1c.15.16.15.3.19.3s.11-.16,0-.41a.8.8,0,0,0-.4-.33.88.88,0,0,0-.69,0,1.71,1.71,0,0,0-.87,1.41,4.07,4.07,0,0,0,.2,2,3.13,3.13,0,0,0,2.59,2.31,1.3,1.3,0,0,0,1-.51c.15-.23.14-.39.11-.4s-.09.12-.25.27a1.2,1.2,0,0,1-.86.3,2.81,2.81,0,0,1-2-1.75" style="fill:#ff9a6c"></path><path d="M261.1,257.71l-5.16-1.27a.53.53,0,0,0-.43,0,.43.43,0,0,0-.15.26,3.21,3.21,0,0,0,.89,3.2,2.84,2.84,0,0,0,3.05.52,3.18,3.18,0,0,0,1.8-2.74Z" style="fill:#ff9a6c"></path><path d="M237.67,232.05s0,0,.05.07l.12.23.42.88a18.85,18.85,0,0,1,1.15,3.42,13.49,13.49,0,0,1,.21,5.34,6.15,6.15,0,0,1-1.21,2.93,3.48,3.48,0,0,1-1.37,1,2.72,2.72,0,0,1-1.74.12,3.92,3.92,0,0,1-1.72-1.11,9.93,9.93,0,0,1-1.18-1.53h.16c-.52.76-.87,1.59-1.3,2.34a5.07,5.07,0,0,1-1.62,1.86,2.53,2.53,0,0,1-2.16.36,3.13,3.13,0,0,1-1.55-1.09,3.56,3.56,0,0,1-.64-1.42,4.5,4.5,0,0,1-.1-1.15c0-.32,0-.56.06-.72a.83.83,0,0,1,.06-.25s0,.09,0,.25a6,6,0,0,0,0,.72,4.56,4.56,0,0,0,.14,1.13,3.42,3.42,0,0,0,.64,1.36,2.94,2.94,0,0,0,1.5,1,2.4,2.4,0,0,0,2-.35,5.07,5.07,0,0,0,1.56-1.82c.41-.74.76-1.58,1.29-2.36a.09.09,0,0,1,.13,0l0,0a10.21,10.21,0,0,0,1.16,1.5,3.77,3.77,0,0,0,1.63,1.05,2.57,2.57,0,0,0,1.62-.11,3.42,3.42,0,0,0,1.29-.95,6,6,0,0,0,1.18-2.84,13.2,13.2,0,0,0-.17-5.27,20.15,20.15,0,0,0-1.08-3.43c-.17-.39-.29-.69-.39-.89l-.1-.24Z" style="fill:#455a64"></path><path d="M254.71,222.8s0,.1,0,.28a1.25,1.25,0,0,0,.41.64c.25.24.61.46,1,.8a1.7,1.7,0,0,1,.46.66,1.18,1.18,0,0,1-.07.9,1.65,1.65,0,0,1-.68.73,3.4,3.4,0,0,1-1,.38,15.93,15.93,0,0,1-2.31.31,15.71,15.71,0,0,1-5.29-.61,15,15,0,0,1-2.1-.79l.14-.09a12.42,12.42,0,0,1-.06,2.37,4.23,4.23,0,0,1-.86,2,2.62,2.62,0,0,1-1.7,1,3.08,3.08,0,0,1-1.66-.32,4.46,4.46,0,0,1-1.13-.82,7.17,7.17,0,0,1-.69-.77l-.4-.51c-.09-.12-.13-.19-.12-.19l.15.17.42.49a5.88,5.88,0,0,0,1.82,1.51,3,3,0,0,0,1.59.29,2.47,2.47,0,0,0,1.59-.93,3.93,3.93,0,0,0,.8-1.94,11.22,11.22,0,0,0,0-2.33.1.1,0,0,1,.1-.1h0a15.87,15.87,0,0,0,7.3,1.39,17.44,17.44,0,0,0,2.29-.29,3.22,3.22,0,0,0,1-.35,1.54,1.54,0,0,0,.63-.66,1,1,0,0,0,.08-.8,1.59,1.59,0,0,0-.42-.62c-.34-.34-.7-.57-1-.83a1.23,1.23,0,0,1-.4-.69.72.72,0,0,1,0-.21A.24.24,0,0,1,254.71,222.8Z" style="fill:#455a64"></path><path d="M220.36,231.25c-.05-.34.33-.74,1.07-1a5.44,5.44,0,0,1,5.43,1.58c.49.6.6,1.15.37,1.41-.51.54-1.94,0-3.59-.46S220.5,232,220.36,231.25Z" style="fill:#263238"></path><path d="M227.61,233.89c-.61.36-2-.87-2.58-2.93s-.11-3.83.6-3.86,1.39,1.41,1.9,3.13S228.24,233.53,227.61,233.89Z" style="fill:#263238"></path><path d="M260.62,259.73a2.4,2.4,0,0,1-1.78,1.1,3.11,3.11,0,0,1-2.3-.44A3.42,3.42,0,0,1,255,258a1.81,1.81,0,0,1,.41-1.56,1.08,1.08,0,0,1,.82-.21,3.75,3.75,0,0,1,.67.14c.83.21,1.56.43,2.16.64a7.18,7.18,0,0,1,1.91.83,10.07,10.07,0,0,1-2-.48c-.62-.16-1.35-.34-2.17-.53-.41-.09-.84-.2-1.05,0a1.38,1.38,0,0,0-.22,1.11,3.09,3.09,0,0,0,1.27,2.1,2.93,2.93,0,0,0,2,.47A5,5,0,0,0,260.62,259.73Z" style="fill:#263238"></path><path d="M283.65,285.29l12.7,15.33,9.29-7.59,9.1,6.6S300.42,315.36,292.53,317c-8.63,1.8-19.75-24.26-19.75-24.26Z" style="fill:#ffbf9d"></path><path d="M227.37,287.88,223,341.46s14.94,12.4,32.15,10,22.43-13.08,22.43-13.08-1.24-21.58-1.54-29.52c-.36-9.64.17-30.35.17-30.35l-12.32-4.79s-5.46,6.46-12.35,5.51a13.6,13.6,0,0,1-9.69-5.66l-7.9,1.66Z" style="fill:#FF725E"></path><path d="M271.76,277.79s5.34-.42,10.61,4.39c1.61,1.47,13.44,17.15,13.44,17.15l-15.57,9.85-12.67-19.71Z" style="fill:#FF725E"></path><path d="M226.69,286.87c.15,0,0,5.52-.33,12.32s-.7,12.31-.85,12.3,0-5.52.33-12.32S226.55,286.86,226.69,286.87Z" style="fill:#263238"></path><path d="M275.52,288.25a91.46,91.46,0,0,1,.46,9.86,92,92,0,0,1-.06,9.88,95,95,0,0,1-.46-9.87A95.11,95.11,0,0,1,275.52,288.25Z" style="fill:#263238"></path></g></svg>
