<svg xmlns="http://www.w3.org/2000/svg" viewBox="0 0 500 500"><g id="background-complete"><rect x="39.91" y="39.8" width="137.9" height="228.26" style="fill:#e0e0e0"></rect><rect x="35.33" y="39.8" width="137.9" height="228.26" style="fill:#ebebeb"></rect><rect x="41.2" y="44.43" width="126.16" height="219.01" style="fill:#fafafa"></rect><rect x="65.22" y="72.89" width="77.58" height="162.09" style="fill:#ebebeb"></rect><path d="M65.22,177.62c-.18-15.14,13.43-29.92,28.42-32,7.15-1,14.75.41,21.43-2.32,11.93-4.89,15.72-20.74,27.72-25.44L143.34,235H65.22Z" style="fill:#e0e0e0"></path><path d="M388.15,392.63c-5.93-3.06-12.9-3.45-19.48-2.37-3.54.59-7.22,1.64-9.63,4.3s-2.86,7.33-.09,9.61c1.64,1.35,3.93,1.56,6.06,1.54,5.15-.06,10.87-1,15,2.13,2.35,1.76,3.91,4.7,6.72,5.57s5.84-.77,7.3-3.24a11.37,11.37,0,0,0,.82-8.37A12.77,12.77,0,0,0,388.15,392.63Z" style="fill:#ebebeb"></path><path d="M412.15,384c-4.82,4.08-11.2.63-13.55-3.26S396.08,372,396,367.5c-.24-10.37-.37-21.23,4.29-30.51a17.1,17.1,0,0,1,5.89-7.05c2.64-1.63,6.16-2.09,8.86-.56,3.19,1.81,4.44,5.74,5.14,9.34a73.13,73.13,0,0,1-1,32.11c-1.27,4.88-3.19,9.84-7,13.14" style="fill:#ebebeb"></path><path d="M419.88,393.68c-2.62-5.51-1.6-12.29,1.58-17.5s8.28-9,13.72-11.78a55.22,55.22,0,0,1,20.53-5.8,19.43,19.43,0,0,1,8.35.75,8.66,8.66,0,0,1,5.64,5.82c.93,4.06-2,7.92-4.87,10.93a139.9,139.9,0,0,1-16.36,14.7c-4.69,3.59-9.87,7-15.74,7.62s-11.34-1.07-13.19-5.51" style="fill:#ebebeb"></path><path d="M402,444.49a11.17,11.17,0,0,1-.33-2.36c-.17-1.71-.37-3.86-.62-6.41a93.36,93.36,0,0,0-1.45-9.42,71.19,71.19,0,0,0-3.42-11.11,40.7,40.7,0,0,0-5.67-10.05,21.15,21.15,0,0,0-7.17-6,19.88,19.88,0,0,0-6-1.88,10.62,10.62,0,0,1-2.34-.34,10.68,10.68,0,0,1,2.38,0,18.49,18.49,0,0,1,6.3,1.64,21.18,21.18,0,0,1,7.56,6,39.85,39.85,0,0,1,5.88,10.25,68.44,68.44,0,0,1,3.4,11.29,79.36,79.36,0,0,1,1.25,9.53c.2,2.73.28,4.94.32,6.46A11.09,11.09,0,0,1,402,444.49Z" style="fill:#e0e0e0"></path><path d="M393.32,454.63a5.32,5.32,0,0,1,.22-1.08c.21-.79.48-1.79.8-3,.7-2.62,1.7-6.41,2.79-11.12,2.23-9.42,4.08-19.7,6.27-34.31,2-13.74,4.16-29.8,4.74-40.46.15-2.41.25-4.6.3-6.52s.14-3.58.14-4.93.05-2.3.07-3.12a5.24,5.24,0,0,1,.09-1.09,4.63,4.63,0,0,1,.1,1.09c0,.82.07,1.85.12,3.12s.05,3,0,4.94,0,4.12-.16,6.55a354.44,354.44,0,0,1-3.71,37.71c-2.19,14.64-4.9,27.78-7.31,37.18-1.18,4.71-2.28,8.48-3.1,11.06-.39,1.21-.72,2.19-1,3A4.92,4.92,0,0,1,393.32,454.63Z" style="fill:#e0e0e0"></path><path d="M399.84,429.62a22.51,22.51,0,0,1,.86-3.14c.65-2,1.7-4.85,3.21-8.29A118.14,118.14,0,0,1,410,406.48a104.47,104.47,0,0,1,9.08-13.35c7-9.1,15.08-15.92,21.55-19.76a40.09,40.09,0,0,1,4.47-2.39c.68-.32,1.29-.66,1.88-.9l1.65-.59a20.7,20.7,0,0,1,3.1-1c.1.24-4.42,1.51-10.74,5.47a85.42,85.42,0,0,0-21.15,19.77,121.53,121.53,0,0,0-9.07,13.21,128.49,128.49,0,0,0-6.2,11.54c-1.59,3.38-2.73,6.17-3.49,8.12A19.16,19.16,0,0,1,399.84,429.62Z" style="fill:#e0e0e0"></path><polygon points="423.81 436.82 421.23 472.3 375.65 472.3 373.06 436.82 423.81 436.82" style="fill:#e0e0e0"></polygon><rect x="367.63" y="422.84" width="60.59" height="13.98" style="fill:#e0e0e0"></rect><polygon points="428.22 470.94 428.22 474.81 425.37 474.81 368.63 474.81 368.63 470.94 428.22 470.94" style="fill:#ebebeb"></polygon><polygon points="422.58 481.64 425.37 474.81 370.8 474.81 374.05 481.64 422.58 481.64" style="fill:#e0e0e0"></polygon><path d="M373.91,448.42a1.28,1.28,0,0,0,.21.32l.68.91,2.66,3.39.12.15.11-.15,6.52-9h-.37l6.42,9.09.2.28.23-.26,7.61-9.07h-.44c.13.16.28.34.42.53l6.81,8.53.23.29.21-.3L412,444l-.37,0c3.16,3.61,5.85,6.66,7.91,9l.14.16.11-.18,2.47-4.16.64-1.11c.14-.25.21-.39.19-.39a1.67,1.67,0,0,0-.26.35l-.7,1.06-2.6,4.09.24,0-7.78-9.12-.2-.23-.18.24-6.48,9.05h.44l-6.8-8.55-.41-.52-.22-.28-.22.27-7.6,9.08.43,0-6.49-9.05-.19-.27-.18.27-6.39,9.12h.23l-2.76-3.31-.74-.86Q373.92,448.41,373.91,448.42Z" style="fill:#f5f5f5"></path><path d="M372.43,436.59c0,.16,11.42.28,25.5.28s25.5-.12,25.5-.28-11.41-.28-25.5-.28S372.43,436.43,372.43,436.59Z" style="fill:#f5f5f5"></path><path d="M370.13,475.2c0,.15,12.41.28,27.71.28s27.72-.13,27.72-.28-12.41-.29-27.72-.29S370.13,475,370.13,475.2Z" style="fill:#f5f5f5"></path><path d="M109.6,434.14s0-.09,0-.27,0-.44,0-.75c0-.7,0-1.67,0-2.91,0-2.55-.06-6.21-.1-10.83l.17.17-55.8.11.28-.28h0v7.49c0,2.46,0,4.89,0,7.26l-.27-.28,39.77.13,11.73.08,3.18,0h.83l.29,0a1.1,1.1,0,0,1-.26,0l-.79,0-3.12,0-11.67.08-40,.13h-.28v-.28c0-2.37,0-4.8,0-7.26v-7.49h0l.29-.29,55.8.12h.18v.17c0,4.66-.08,8.36-.1,10.93,0,1.23,0,2.19,0,2.87l0,.73C109.61,434.07,109.61,434.15,109.6,434.14Z" style="fill:#e0e0e0"></path><path d="M117.17,419.38a1.73,1.73,0,0,1,0-.28l0-.78c0-.73,0-1.72,0-3,0-2.59-.07-6.25-.11-10.75l.2.21-33.53.08.28-.28h0v7.58c0,2.47,0,4.86,0,7.16l-.27-.27,24,.13,7,.07,1.89,0,.67,0a4.43,4.43,0,0,1-.61,0l-1.83,0-6.92.07-24.17.13h-.27v-.27q0-3.45,0-7.16v-3.76c0-.63,0-1.27,0-1.91v-1.91h0l.29-.29,33.53.08h.21v.2c0,4.55-.08,8.25-.11,10.87,0,1.23,0,2.2-.05,2.91A9,9,0,0,1,117.17,419.38Z" style="fill:#e0e0e0"></path><path d="M446.3,260.81s0-.09,0-.27,0-.44,0-.75c0-.7,0-1.67,0-2.91,0-2.55-.05-6.21-.09-10.83l.17.17-55.8.11.28-.28h0v7.48c0,2.46,0,4.89,0,7.26l-.28-.28,39.77.13,11.74.08,3.18,0H446l.29,0a1.1,1.1,0,0,1-.26,0l-.79,0-3.12,0-11.67.08-40,.13h-.27v-.28c0-2.37,0-4.8,0-7.26v-7.48h0l.29-.29,55.8.12h.18v.17c0,4.66-.07,8.36-.09,10.93,0,1.23,0,2.18,0,2.87l0,.73C446.31,260.74,446.31,260.82,446.3,260.81Z" style="fill:#e0e0e0"></path><path d="M462.2,275.65s0-.09,0-.26,0-.45,0-.76c0-.7,0-1.67-.05-2.91,0-2.55-.05-6.21-.09-10.83l.17.17-55.8.11.28-.28h0v7.49c0,2.47,0,4.89,0,7.26l-.28-.27,39.77.12,11.74.08,3.18,0,.83,0h.29s-.08,0-.26,0l-.79,0-3.12,0-11.67.08-40,.12h-.27v-.28q0-3.56,0-7.26V260.9h0c.57-.57.16-.16.29-.28l55.8.11h.18v.17c0,4.66-.07,8.36-.09,10.94,0,1.22,0,2.18,0,2.86l0,.73C462.21,275.58,462.21,275.66,462.2,275.65Z" style="fill:#e0e0e0"></path><path d="M331.5,69.71a1.67,1.67,0,0,1,0-.27c0-.2,0-.44,0-.76,0-.69,0-1.66,0-2.9,0-2.55-.05-6.21-.1-10.83l.18.17-55.81.11L276,55h0V69.71l-.28-.28,39.77.13,11.74.08,3.17,0,.83,0,.3,0a1.21,1.21,0,0,1-.26,0l-.8,0-3.11,0-11.68.08-40,.13h-.28V55h0c.56-.57.16-.16.28-.29l55.81.11h.17V55c0,4.66-.07,8.36-.09,10.93,0,1.23,0,2.18-.05,2.87,0,.3,0,.54,0,.73S331.5,69.72,331.5,69.71Z" style="fill:#e0e0e0"></path><path d="M356.52,54.88a1.67,1.67,0,0,1,0-.27c0-.2,0-.45,0-.76,0-.69,0-1.66-.05-2.9,0-2.55-.05-6.22-.09-10.84l.17.18-55.8.11c.12-.13-.29.28.28-.29h0v7.49q0,3.7,0,7.27l-.28-.28,39.77.13,11.74.07,3.18,0,.83,0a1,1,0,0,1,.29,0h-.26l-.79,0-3.12,0L340.68,55l-40,.13h-.27v-15h0c.57-.57.16-.15.29-.28l55.8.11h.17v.17c0,4.67-.07,8.37-.09,10.94,0,1.22,0,2.18,0,2.87,0,.29,0,.53,0,.72A1.1,1.1,0,0,1,356.52,54.88Z" style="fill:#e0e0e0"></path></g><g id="background-simple"><path d="M394.35,105.32l-2-3.28c-16.78-27.66-47.12-44.33-79.11-42.3A83.13,83.13,0,0,0,301,61.42c-29.08,6.22-54.39,28.22-64.87,56.38-6.17,16.57-7.9,35.64-19.6,48.79-15.24,17.11-41.11,17.65-63.85,16.94s-48.62-.1-63.79,17.08c-9.49,10.76-12.51,26.06-11.74,40.47,2,38.15,28.61,72.26,62.41,89.21s73.62,18.48,110.62,11C302,330.86,351.3,302.17,380.93,257.85S418.05,153.15,394.35,105.32Z" style="fill:#f5f5f5"></path><circle cx="413.37" cy="311.49" r="28.32" transform="translate(-99.18 383.53) rotate(-45)" style="fill:#f5f5f5"></circle><circle cx="111.27" cy="110.26" r="29.47" transform="translate(-35.66 55.95) rotate(-24.45)" style="fill:#f5f5f5"></circle></g><g id="Table"><path d="M471.41,481.65c0,.15-99.14.26-221.4.26s-221.42-.11-221.42-.26,99.12-.26,221.42-.26S471.41,481.51,471.41,481.65Z" style="fill:#263238"></path></g><g id="Zoom"><circle cx="393.08" cy="141.06" r="70.74" transform="translate(15.39 319.27) rotate(-45)" style="fill:#fafafa"></circle><path d="M322.38,143.29s-.09-1.56,0-4.52a70.12,70.12,0,0,1,1.53-12.86,72,72,0,0,1,2.59-9,68,68,0,0,1,4.59-10.15A71.72,71.72,0,0,1,348.38,86,70.42,70.42,0,0,1,377.8,71.78a70.66,70.66,0,0,1,18.25-1.61,72.71,72.71,0,0,1,9.55,1,77.12,77.12,0,0,1,9.58,2.4A71.19,71.19,0,0,1,449,97.27,70.31,70.31,0,0,1,455,106.4a66.54,66.54,0,0,1,4.67,10.13,70.9,70.9,0,0,1,1.41,44.81c-.51,1.8-1.16,3.55-1.79,5.3s-1.4,3.44-2.23,5.1a69.65,69.65,0,0,1-5.49,9.5A71.13,71.13,0,0,1,419.38,207a74.93,74.93,0,0,1-9.41,3,69.71,69.71,0,0,1-9.47,1.62,70.68,70.68,0,0,1-18.32-.46,70.67,70.67,0,0,1-30.25-12.35,71.74,71.74,0,0,1-18.6-19.62,67.62,67.62,0,0,1-5.22-9.85,71.52,71.52,0,0,1-3.15-8.81,70,70,0,0,1-2.33-12.74c-.24-2.95-.25-4.5-.25-4.5s0,.38.09,1.14.08,1.89.26,3.35a72.09,72.09,0,0,0,2.43,12.69A71.2,71.2,0,0,0,333.57,179a71.68,71.68,0,0,0,18.57,19.48,70.58,70.58,0,0,0,30.11,12.23,70.3,70.3,0,0,0,18.21.42,69,69,0,0,0,9.4-1.62,76,76,0,0,0,9.34-3,70.6,70.6,0,0,0,37.44-35c.82-1.65,1.5-3.36,2.21-5.06s1.27-3.48,1.78-5.27a70.44,70.44,0,0,0-1.41-44.48,65.48,65.48,0,0,0-4.63-10,69.32,69.32,0,0,0-6-9.07A70.74,70.74,0,0,0,415,74.05a74.34,74.34,0,0,0-9.51-2.39,71.51,71.51,0,0,0-27.63.54,70.16,70.16,0,0,0-29.28,14.1,71.55,71.55,0,0,0-17.31,20.6,67.65,67.65,0,0,0-4.6,10.1,70,70,0,0,0-2.63,9,71.28,71.28,0,0,0-1.62,12.81c-.09,1.48,0,2.61-.05,3.37S322.38,143.29,322.38,143.29Z" style="fill:#263238"></path><path d="M288.93,312.29c-.05,0-.07-.51-.35-1.36a5.76,5.76,0,0,0-2.27-2.91,5.51,5.51,0,1,0,.49,8.81,5.71,5.71,0,0,0,1.93-3.15c.19-.88.15-1.39.2-1.39s0,.12.05.37a4.11,4.11,0,0,1-.05,1.06,5.73,5.73,0,0,1-1.89,3.39,5.95,5.95,0,0,1-9.82-4.17,6,6,0,0,1,1-3.6,5.93,5.93,0,0,1,8.33-1.63,5.71,5.71,0,0,1,2.25,3.16,4.35,4.35,0,0,1,.17,1.05C289,312.16,289,312.29,288.93,312.29Z" style="fill:#263238"></path><path d="M287.15,307.42c-.12-.07,14.66-24.24,33-54s33.34-53.77,33.46-53.69-14.66,24.23-33,54S287.27,307.5,287.15,307.42Z" style="fill:#263238"></path><path d="M356.85,199.62a2.87,2.87,0,1,1-3-2.78A2.86,2.86,0,0,1,356.85,199.62Z" style="fill:#263238"></path><path d="M426.72,160.75s8-34.27,5.62-42.62S417.94,94.63,396,94.24c-20.12-.36-28.37,11.19-28.37,11.19s-16.43,27.32-13.68,47.9Z" style="fill:#FF725E"></path><path d="M357,164c-5.37-12.52-3.64-22.52-1.24-28.7A32.27,32.27,0,0,1,371.51,118h0c.34-.15,33.55-14.92,50.69,17.38,6.29,11.85,7,22.36,2.17,31.24-6.08,11.13-19.2,16.19-26,16.76-1.82.15-4,.33-6.38.41C380.8,184.14,364.81,182.17,357,164Zm15.79-43.23c-16.65,8.05-19.1,27.65-12.95,42,8.56,20,27.85,18.34,38.21,17.48,6.66-.56,18.38-5.63,23.58-15.16,4.32-7.91,3.59-17.44-2.18-28.31-8.63-16.25-21.41-19.68-31.42-19.37A43,43,0,0,0,372.83,120.81Z" style="fill:#FF725E"></path><path d="M372.18,119.41s32-14.69,48.67,16.7-11.69,44.81-22.63,45.73-30.84,2.39-39.76-18.41S359.55,125.5,372.18,119.41Z" style="fill:#FF725E"></path><g style="opacity:0.4"><path d="M357,164c-5.37-12.52-3.64-22.52-1.24-28.7A32.27,32.27,0,0,1,371.51,118h0c.34-.15,33.55-14.92,50.69,17.38,6.29,11.85,7,22.36,2.17,31.24-6.08,11.13-19.2,16.19-26,16.76-1.82.15-4,.33-6.38.41C380.8,184.14,364.81,182.17,357,164Zm15.79-43.23c-16.65,8.05-19.1,27.65-12.95,42,8.56,20,27.85,18.34,38.21,17.48,6.66-.56,18.38-5.63,23.58-15.16,4.32-7.91,3.59-17.44-2.18-28.31-8.63-16.25-21.41-19.68-31.42-19.37A43,43,0,0,0,372.83,120.81Z"></path></g><g style="opacity:0.2"><path d="M400.88,144.74a2.39,2.39,0,0,1-.78-2.93,30.22,30.22,0,0,1,1.6-2.89,2.88,2.88,0,0,0-.1-3.12c-1-1.12-2.9-.54-4.14.34s-2.5,2.06-4,1.9a4.27,4.27,0,0,1-3-2.44,12.05,12.05,0,0,0-2.2-3.33c-1-.88-2.77-1.1-3.58,0-.62.81-.44,2-.8,2.93-.59,1.54-2.45,2.17-4.09,2.2s-3.31-.31-4.91.07-3.11,1.94-2.66,3.51c.53,1.85,3.25,2.42,3.63,4.3.27,1.38-.87,2.57-1.84,3.58s-1.92,2.47-1.25,3.7,2.11,1.23,3.36,1.14,2.69-.18,3.55.73a3.13,3.13,0,0,1,.33,3.19c-.39,1-1.06,2-1.4,3.07a2.88,2.88,0,0,0,.63,3.11c1.24,1,3.06.08,4.21-1s2.34-2.43,3.91-2.4,2.67,1.37,3.72,2.5a21.56,21.56,0,0,0,4.5,3.68,4.1,4.1,0,0,0,2.49.79c1.68-.18,2.59-2.17,2.44-3.85s-1-3.21-1.42-4.84a4.21,4.21,0,0,1,.53-3.73c1.09-1.29,3-1.26,4.72-1.5s3.43-1,4-2.56c.64-1.71-.53-2.62-2.09-3.55a32.49,32.49,0,0,0-4.47-2.15Z"></path></g><g style="opacity:0.30000000000000004"><path d="M379.24,149.78c.22-1,1.6-1.3,2-2.23a2.09,2.09,0,0,0-.27-1.82,12.35,12.35,0,0,1-1-1.63,1.62,1.62,0,0,1,.22-1.78,2,2,0,0,1,1.69-.31,4,4,0,0,0,1.77.1c1.44-.44,1.75-2.69,3.21-3,1-.19,1.86.64,2.46,1.45s1.25,1.74,2.25,1.87a4.72,4.72,0,0,0,2.51-.89,3,3,0,0,1,1.54-.3,1,1,0,0,1,.77,1.16,9.26,9.26,0,0,0-.13,1.48,3.37,3.37,0,0,0,.74,2.32,5.72,5.72,0,0,0,1.53,1.08,3.51,3.51,0,0,1,1.4,1.24,1.39,1.39,0,0,1-.23,1.72c-.49.37-1.18.24-1.79.33a3.37,3.37,0,0,0-2.51,3,15.39,15.39,0,0,0,.32,4.16,1.69,1.69,0,0,1-.4,1.64,1.34,1.34,0,0,1-1.25.05c-1.75-.65-2.63-2.87-4.45-3.3-1.5-.36-3,.69-4,1.84a2.51,2.51,0,0,1-1.3.94,1.61,1.61,0,0,1-1.64-1.33,6.27,6.27,0,0,1,.1-2.32,3.16,3.16,0,0,0-.3-2.25,5.11,5.11,0,0,0-2-1.34C379.77,151.29,379.07,150.58,379.24,149.78Z"></path></g><g style="opacity:0.1"><path d="M414.43,153.93v0a3.41,3.41,0,0,1,1.95-2.84l.17-.08a3.75,3.75,0,0,1,3.87.53,4,4,0,0,1,1.34,3.7,4.25,4.25,0,0,1-2.48,3.08,3.49,3.49,0,0,1-3.48-.31A4.71,4.71,0,0,1,414.43,153.93Z" style="fill:#fff"></path></g><g style="opacity:0.1"><path d="M376.54,171.83v0a3.38,3.38,0,0,1,1.94-2.84l.17-.08a3.75,3.75,0,0,1,3.87.53,4,4,0,0,1,1.34,3.7,4.22,4.22,0,0,1-2.48,3.08,3.49,3.49,0,0,1-3.48-.31A4.7,4.7,0,0,1,376.54,171.83Z" style="fill:#fff"></path></g><g style="opacity:0.1"><path d="M373.32,129.68v0a3.42,3.42,0,0,1,1.94-2.84l.17-.08a3.79,3.79,0,0,1,3.88.53,4,4,0,0,1,1.33,3.7,4.25,4.25,0,0,1-2.47,3.09,3.52,3.52,0,0,1-3.48-.32A4.66,4.66,0,0,1,373.32,129.68Z" style="fill:#fff"></path></g><g style="opacity:0.1"><path d="M405,159.49h0a1.4,1.4,0,0,1,.58-1.14l0,0a.9.9,0,0,1,1.16.23,2,2,0,0,1,.41,1.5,1.65,1.65,0,0,1-.73,1.24.84.84,0,0,1-1.05-.14A2.4,2.4,0,0,1,405,159.49Z" style="fill:#fff"></path></g><g style="opacity:0.1"><path d="M367.74,144.54h0a1.42,1.42,0,0,1,.57-1.14l.05,0a.92.92,0,0,1,1.17.22,2,2,0,0,1,.41,1.51,1.67,1.67,0,0,1-.73,1.24.84.84,0,0,1-1-.14A2.4,2.4,0,0,1,367.74,144.54Z" style="fill:#fff"></path></g><g style="opacity:0.2"><path d="M393,132.28h0a1.41,1.41,0,0,1,.58-1.14l.05,0a.9.9,0,0,1,1.16.22,2,2,0,0,1,.41,1.51,1.65,1.65,0,0,1-.73,1.24.83.83,0,0,1-1-.14A2.35,2.35,0,0,1,393,132.28Z"></path></g><g style="opacity:0.2"><path d="M389.78,166.82h0a1.94,1.94,0,0,1,1.65,1.07l.05.09a2,2,0,0,1-.31,2.14,2.42,2.42,0,0,1-2.16.74,2.46,2.46,0,0,1-1.8-1.36,1.87,1.87,0,0,1,.19-1.93A2.85,2.85,0,0,1,389.78,166.82Z"></path></g><g style="opacity:0.1"><path d="M409.67,142.05a3.09,3.09,0,0,1-3.82-4.23,2.15,2.15,0,0,1,1.46-1.25,3,3,0,0,1,2.46,1.18,4.41,4.41,0,0,1,1.37,2.22,1.81,1.81,0,0,1-1.16,2.11" style="fill:#fff"></path></g><g style="opacity:0.1"><path d="M362.14,146.9a3.09,3.09,0,0,1-1-5.62,2.12,2.12,0,0,1,1.9-.27,3,3,0,0,1,1.45,2.31,4.49,4.49,0,0,1,0,2.62,1.82,1.82,0,0,1-2.11,1.15" style="fill:#fff"></path></g><g style="opacity:0.1"><path d="M398.93,171.86c.64-1,2.09-1.11,3.18-1.64,2.24-1.09,3-4.17,5.36-5a3.41,3.41,0,0,1,3.95,5.2l-1.18,1.33a13.35,13.35,0,0,1-4.19,3.36,6.84,6.84,0,0,1-5.26.36,3.6,3.6,0,0,1-1.78-1.38A2.15,2.15,0,0,1,398.93,171.86Z" style="fill:#fff"></path></g><g style="opacity:0.1"><path d="M365.4,151.3c.92.8.75,2.24,1.09,3.41.71,2.39,3.62,3.68,4.1,6.12a3.41,3.41,0,0,1-5.78,3l-1.12-1.38a13.39,13.39,0,0,1-2.62-4.7,6.77,6.77,0,0,1,.51-5.24,3.54,3.54,0,0,1,1.65-1.53A2.14,2.14,0,0,1,365.4,151.3Z" style="fill:#fff"></path></g><g style="opacity:0.1"><path d="M391.93,124.24c.14-.87,1-1.4,1.88-1.68a12.3,12.3,0,0,1,3.06-.56,6.65,6.65,0,0,1,4.37,1.45l1,.8a2.06,2.06,0,0,1,.4,2.31,1.5,1.5,0,0,1-1.25.58c-1.18,0-2.22-.75-3.38-1a8.09,8.09,0,0,0-2.45.12,4.82,4.82,0,0,1-2.42-.16A1.9,1.9,0,0,1,391.93,124.24Z" style="fill:#fff"></path></g><path d="M357,164c-5.37-12.52-3.64-22.52-1.24-28.7A32.27,32.27,0,0,1,371.51,118h0c.34-.15,33.55-14.92,50.69,17.38,6.29,11.85,7,22.36,2.17,31.24-6.08,11.13-19.2,16.19-26,16.76-1.82.15-4,.33-6.38.41C380.8,184.14,364.81,182.17,357,164Zm15.79-43.23c-16.65,8.05-19.1,27.65-12.95,42,8.56,20,27.85,18.34,38.21,17.48,6.66-.56,18.38-5.63,23.58-15.16,4.32-7.91,3.59-17.44-2.18-28.31-8.63-16.25-21.41-19.68-31.42-19.37A43,43,0,0,0,372.83,120.81Z" style="fill:none"></path><path d="M372.83,120.81s.16-.09.49-.24.81-.35,1.46-.59a42.23,42.23,0,0,1,5.81-1.7,41.37,41.37,0,0,1,9.53-1,38.14,38.14,0,0,1,6,.61,33.71,33.71,0,0,1,6.43,2,32,32,0,0,1,6.39,3.73,35.49,35.49,0,0,1,5.77,5.56,49.5,49.5,0,0,1,8.43,15.49,32,32,0,0,1,1.58,9.44,25.87,25.87,0,0,1-.5,4.94,23.91,23.91,0,0,1-1.6,4.82,25.68,25.68,0,0,1-6.23,8.24,34.76,34.76,0,0,1-8.94,5.79,29.38,29.38,0,0,1-10.3,2.73,77.86,77.86,0,0,1-10.33.28c-6.75-.34-13.38-2.22-18.3-6.18A26.53,26.53,0,0,1,362.4,168c-.38-.63-.83-1.22-1.15-1.88l-1-1.94a36.37,36.37,0,0,1-1.63-3.91A39.16,39.16,0,0,1,356.74,145a32,32,0,0,1,3.43-12.17,25.58,25.58,0,0,1,5.87-7.55c.5-.42.93-.88,1.41-1.21l1.34-1c.42-.28.79-.57,1.15-.79l1-.56,1.39-.74.48-.23-.45.28-1.36.79-1,.57c-.36.23-.72.52-1.13.81l-1.32,1a18.33,18.33,0,0,0-1.38,1.22,25.66,25.66,0,0,0-5.75,7.53A31.94,31.94,0,0,0,357.1,145a39,39,0,0,0,2,15.06,34.58,34.58,0,0,0,1.62,3.85c.32.64.63,1.28.95,1.93s.77,1.22,1.15,1.84a26,26,0,0,0,6,6.65c4.84,3.86,11.35,5.71,18,6a75.33,75.33,0,0,0,10.26-.29,28.64,28.64,0,0,0,10.12-2.68,41,41,0,0,0,4.66-2.53,33.19,33.19,0,0,0,4.15-3.17,25.19,25.19,0,0,0,6.12-8.08,23.56,23.56,0,0,0,1.56-4.7,24.85,24.85,0,0,0,.5-4.84,31.9,31.9,0,0,0-1.54-9.3,48.93,48.93,0,0,0-8.3-15.35,35.18,35.18,0,0,0-5.69-5.52,31.13,31.13,0,0,0-6.29-3.71,32.63,32.63,0,0,0-6.35-2,38.65,38.65,0,0,0-5.91-.65,42.16,42.16,0,0,0-9.48.88,46.21,46.21,0,0,0-5.82,1.6c-.65.22-1.14.41-1.47.54Z" style="fill:#263238"></path><path d="M357,164s.1.17.28.52l.77,1.53c.17.34.36.72.56,1.14l.8,1.3.93,1.52c.39.5.79,1,1.22,1.61a28.68,28.68,0,0,0,7.69,7,33.59,33.59,0,0,0,12.93,4.5,54.22,54.22,0,0,0,8,.51c1.4,0,2.82-.1,4.27-.2s2.94-.16,4.43-.33a37.09,37.09,0,0,0,17.38-7.51,29.54,29.54,0,0,0,7-7.58,27.17,27.17,0,0,0,2.39-4.76A26.54,26.54,0,0,0,427,158a29.48,29.48,0,0,0-.61-11.08,46.62,46.62,0,0,0-4.09-10.76,47.84,47.84,0,0,0-6.43-9.55,35.65,35.65,0,0,0-8.56-7.14A36.18,36.18,0,0,0,387,114.81a49.51,49.51,0,0,0-9.74,1.52c-1.55.41-3.06.88-4.51,1.42a21.53,21.53,0,0,0-4.05,2.09A32.07,32.07,0,0,0,357.53,132a33.72,33.72,0,0,0-3.78,13.16,37.34,37.34,0,0,0,.69,10.37,45.54,45.54,0,0,0,1.8,6.35c.26.69.46,1.23.61,1.61s.19.55.19.55-.09-.18-.24-.53l-.66-1.59a42.64,42.64,0,0,1-1.9-6.34,37.08,37.08,0,0,1-.78-10.44,33.59,33.59,0,0,1,3.75-13.31,32.42,32.42,0,0,1,11.25-12.36,22.27,22.27,0,0,1,4.12-2.13,44.68,44.68,0,0,1,4.55-1.45,49,49,0,0,1,9.83-1.56A36.56,36.56,0,0,1,407.58,119a36.07,36.07,0,0,1,8.69,7.24,48.28,48.28,0,0,1,6.5,9.65,46.7,46.7,0,0,1,4.14,10.88,30.3,30.3,0,0,1,.61,11.28,25.75,25.75,0,0,1-3.83,10.2,30.19,30.19,0,0,1-7.08,7.7A37.44,37.44,0,0,1,399,183.52c-1.52.16-3,.21-4.46.31s-2.88.19-4.29.19a53.53,53.53,0,0,1-8.06-.55,33.79,33.79,0,0,1-13-4.61,28.77,28.77,0,0,1-7.69-7.07c-.42-.58-.83-1.13-1.21-1.64l-.91-1.54-.78-1.32-.54-1.15c-.32-.67-.56-1.19-.73-1.56S357,164,357,164Z" style="fill:#263238"></path><path d="M374.86,157.31a1.31,1.31,0,1,0,1.27-1.35A1.31,1.31,0,0,0,374.86,157.31Z" style="opacity:0.2"></path><path d="M407.4,154.58a.92.92,0,1,0,.89-1A.92.92,0,0,0,407.4,154.58Z" style="opacity:0.2"></path><path d="M359.29,122.52s0-.07.15-.19l.49-.53a25.87,25.87,0,0,1,1.95-2,43.66,43.66,0,0,1,8.2-6.1,50.11,50.11,0,0,1,6.35-3.13l1.82-.66.94-.34,1-.29,2-.57,2.08-.45a35.12,35.12,0,0,1,18.43,1A40.31,40.31,0,0,1,418,119.55l1.44,1.55,1.3,1.61.64.78.57.82,1.12,1.58c.67,1.09,1.34,2.12,1.9,3.16s1.12,2,1.52,3a37.56,37.56,0,0,1,3,9.76c.06.29.11.58.16.84s.05.51.07.75c0,.45.08.84.11,1.17s0,.53.05.72a.81.81,0,0,1,0,.25,1.17,1.17,0,0,1-.05-.24c0-.2-.07-.43-.11-.72s-.09-.71-.15-1.16c0-.23-.07-.48-.1-.74l-.17-.84a40.25,40.25,0,0,0-3.17-9.64c-.41-1-1-2-1.54-3s-1.24-2-1.91-3.12l-1.12-1.56-.57-.8-.64-.78c-.42-.52-.86-1-1.29-1.58s-.95-1-1.44-1.53a40.22,40.22,0,0,0-15.21-10.13,34.92,34.92,0,0,0-18.16-1l-2.05.44-2,.55-1,.28-.93.33-1.82.64a52.54,52.54,0,0,0-6.32,3A47.23,47.23,0,0,0,362,120c-.93.77-1.53,1.48-2,1.91l-.52.5C359.36,122.48,359.3,122.53,359.29,122.52Z" style="fill:#263238"></path><path d="M363.48,113a.83.83,0,0,1,.15-.19l.45-.5c.43-.42,1-1.12,1.84-1.87a39.82,39.82,0,0,1,7.78-5.67,42.81,42.81,0,0,1,13.42-4.85,38.15,38.15,0,0,1,17.42.72A43.3,43.3,0,0,1,413,104a38.93,38.93,0,0,1,7.05,4.69,33.47,33.47,0,0,1,5.31,5.52c.77.92,1.35,1.93,2,2.85s1.09,1.9,1.52,2.82a32.75,32.75,0,0,1,2.83,9.21c.21,1.12.21,2,.28,2.6,0,.27,0,.5.05.68a1.34,1.34,0,0,1,0,.23.67.67,0,0,1-.06-.23c0-.18-.05-.4-.09-.67-.11-.59-.14-1.47-.38-2.58a33.88,33.88,0,0,0-3-9.08c-.43-.91-1-1.81-1.53-2.77s-1.21-1.9-2-2.8a33.54,33.54,0,0,0-5.28-5.41,38.35,38.35,0,0,0-7-4.6,42.62,42.62,0,0,0-8.32-3.38,38,38,0,0,0-17.18-.75,43.41,43.41,0,0,0-13.33,4.7,42.21,42.21,0,0,0-7.82,5.5c-.87.73-1.46,1.39-1.9,1.79l-.5.47Z" style="fill:#263238"></path><path d="M402.44,123a7,7,0,0,1,1.25.51,12.94,12.94,0,0,1,1.41.73,19,19,0,0,1,1.81,1.08,33.19,33.19,0,0,1,4.34,3.35,37.16,37.16,0,0,1,4.46,5,35.86,35.86,0,0,1,3.37,5.81,32.63,32.63,0,0,1,1.84,5.16c.23.75.33,1.45.46,2.06a12.9,12.9,0,0,1,.24,1.57,6.19,6.19,0,0,1,.1,1.35c-.11,0-.3-1.91-1.16-4.88a34.59,34.59,0,0,0-1.91-5.06,39.34,39.34,0,0,0-3.37-5.71,38.79,38.79,0,0,0-4.36-5,35.67,35.67,0,0,0-4.21-3.41C404.16,123.92,402.39,123.14,402.44,123Z" style="fill:#fff"></path><path d="M419.29,124.48a9.26,9.26,0,0,1,1.95,1.77,26.29,26.29,0,0,1,3.71,5.17,27.06,27.06,0,0,1,2.36,5.9,9.57,9.57,0,0,1,.44,2.6,22.39,22.39,0,0,1-.8-2.49,32.11,32.11,0,0,0-2.46-5.76,34.21,34.21,0,0,0-3.52-5.18A23.17,23.17,0,0,1,419.29,124.48Z" style="fill:#fff"></path><path d="M423.63,115.91a7.62,7.62,0,0,1,1.57,1.62,26.3,26.3,0,0,1,3,4.52,26.67,26.67,0,0,1,2.05,5,7.32,7.32,0,0,1,.44,2.21,71.26,71.26,0,0,0-2.95-7A75.58,75.58,0,0,0,423.63,115.91Z" style="fill:#fff"></path><path d="M424.74,109.59a13,13,0,0,1,4,4.2,12.85,12.85,0,0,1,2.24,5.35c-.15,0-.93-2.43-2.68-5.07S424.63,109.71,424.74,109.59Z" style="fill:#fff"></path><path d="M391.28,109.79a29.41,29.41,0,0,1,7.87.47,30.54,30.54,0,0,1-7.87-.47Z" style="fill:#fff"></path><path d="M394.83,101.13a7.22,7.22,0,0,1,2.72,0,7.37,7.37,0,0,1,2.66.55,7.09,7.09,0,0,1-2.72,0A7.42,7.42,0,0,1,394.83,101.13Z" style="fill:#fff"></path><path d="M396.4,149.17a7.43,7.43,0,0,0-1.87,1.18,7.24,7.24,0,0,1-4.91,1.77,5.71,5.71,0,0,0-.84,0c-1.51.15-3.33,1.69-4.14.43a2.89,2.89,0,0,0-4-1l-.22,0,.13.07,0,0,.11,0a4.45,4.45,0,0,1,1.78,1.23,3.21,3.21,0,0,1,.3,2.25,6.17,6.17,0,0,0-.11,2.3,1.62,1.62,0,0,0,1.64,1.33,2.45,2.45,0,0,0,1.29-.94c1-1.14,2.51-2.19,4-1.83,1.81.42,2.68,2.64,4.42,3.29a1.36,1.36,0,0,0,1.26-.06c.47-.34.47-1,.4-1.63a14.86,14.86,0,0,1-.33-4.14,4,4,0,0,1,.86-2,3.38,3.38,0,0,1,1.7-.92c1.42-.15,2.15-.86,2.21-1.41S399.26,147.88,396.4,149.17Z" style="fill:#fff"></path><path d="M379.12,149.79a1.7,1.7,0,0,0,.14.72,3,3,0,0,0,1.63,1.33,4.54,4.54,0,0,1,1.37.86,2.46,2.46,0,0,1,.62,1.83c0,.7-.2,1.42-.23,2.16a2.68,2.68,0,0,0,.16,1.09,1.69,1.69,0,0,0,.72.84,1,1,0,0,0,1.05,0,5.4,5.4,0,0,0,.94-.92A6.1,6.1,0,0,1,388,156a3,3,0,0,1,1.62-.06,3.73,3.73,0,0,1,1.47.78,28.83,28.83,0,0,0,2.39,2.21,1.9,1.9,0,0,0,1.41.36c.44-.12.58-.65.53-1.2a34.9,34.9,0,0,1-.42-3.6,4.44,4.44,0,0,1,1.46-3.54,2.86,2.86,0,0,1,1.93-.65c.64,0,1.2-.12,1.34-.65a1.47,1.47,0,0,0-.51-1.47,8.94,8.94,0,0,0-1.56-1,3.34,3.34,0,0,1-1.39-1.44,3.94,3.94,0,0,1-.34-1.93l.08-.93,0-.47a.78.78,0,0,0,0-.34.69.69,0,0,0-.4-.49,1.64,1.64,0,0,0-.74,0c-1.06.14-1.94,1.19-3.27,1.17a2.44,2.44,0,0,1-1.62-.79,11.69,11.69,0,0,1-1-1.28c-.59-.81-1.48-1.55-2.34-1.23s-1.24,1.3-1.84,2a2.53,2.53,0,0,1-1.18.87,2.91,2.91,0,0,1-1.38,0c-.81-.18-1.68-.28-2.11.27a1.74,1.74,0,0,0,.08,1.87c.31.58.73,1.07,1,1.63a1.9,1.9,0,0,1,0,1.63,2.87,2.87,0,0,1-.92.92,5.7,5.7,0,0,0-.72.56,2.05,2.05,0,0,0-.41.63.76.76,0,0,1,0-.2,1.42,1.42,0,0,1,.29-.5,6,6,0,0,1,.71-.62,2.71,2.71,0,0,0,.83-.88,1.67,1.67,0,0,0-.07-1.44c-.22-.51-.64-1-1-1.59a2,2,0,0,1-.09-2.21,1.53,1.53,0,0,1,1.17-.56,5.37,5.37,0,0,1,1.27.13,2.61,2.61,0,0,0,1.21,0,2.13,2.13,0,0,0,1-.75c.27-.35.51-.76.81-1.16a2.64,2.64,0,0,1,1.2-1,1.89,1.89,0,0,1,1.65.22,4.46,4.46,0,0,1,1.19,1.14,12.25,12.25,0,0,0,1,1.23,2,2,0,0,0,1.31.64,3.13,3.13,0,0,0,1.49-.47,5.14,5.14,0,0,1,1.67-.71,2.1,2.1,0,0,1,1,0,1.21,1.21,0,0,1,.7.84,1.32,1.32,0,0,1,0,.56l0,.44-.07.89a3.42,3.42,0,0,0,.29,1.68,2.77,2.77,0,0,0,1.2,1.22,9.26,9.26,0,0,1,1.64,1.08,2,2,0,0,1,.66,2,1.31,1.31,0,0,1-.78.86,2.84,2.84,0,0,1-1,.16,2.33,2.33,0,0,0-1.62.53,3.92,3.92,0,0,0-1.28,3.14,34,34,0,0,0,.41,3.57,2.54,2.54,0,0,1-.12,1,1.2,1.2,0,0,1-.76.73,2.32,2.32,0,0,1-1.82-.43,27,27,0,0,1-2.43-2.25,3.25,3.25,0,0,0-1.28-.71,2.53,2.53,0,0,0-1.39,0,5.82,5.82,0,0,0-2.3,1.53,5.32,5.32,0,0,1-1,1,1.41,1.41,0,0,1-1.43,0,2.33,2.33,0,0,1-1-2.27c.05-.79.25-1.49.27-2.14a2.26,2.26,0,0,0-.51-1.66,4.39,4.39,0,0,0-1.28-.85,3.08,3.08,0,0,1-1.64-1.46,1.25,1.25,0,0,1-.09-.58A.71.71,0,0,1,379.12,149.79Z" style="fill:#263238"></path></g><g id="Character"><path d="M283.69,146.6l-5.8,97.32c-1,16.55-5.81,40.66-31.91,37.9h0c-22.46-4.09-26.92-25.95-26-41.39.45-7.33.8-13.44.8-14.19,0,0-24.63-3.81-25-28.44-.16-11.9,1.51-36.44,3.27-58.62A45.87,45.87,0,0,1,244.8,97h2.38C272.8,98.45,285.87,121,283.69,146.6Z" style="fill:#ffbf9d"></path><path d="M220.79,226.24s15.52.89,32.06-9.52c0,0-7.81,18-32.38,15.81Z" style="fill:#ff9a6c"></path><path d="M240,153.3c.45.53,3.44-1.54,7.55-1.36s7,2.42,7.49,1.92c.23-.22-.21-1.16-1.48-2.19a10.31,10.31,0,0,0-6-2.17,9.93,9.93,0,0,0-6,1.72C240.21,152.16,239.74,153.06,240,153.3Z" style="fill:#263238"></path><path d="M240.85,164.15a3.33,3.33,0,0,0,3.21,3.35,3.19,3.19,0,0,0,3.43-3,3.33,3.33,0,0,0-3.21-3.36A3.19,3.19,0,0,0,240.85,164.15Z" style="fill:#263238"></path><path d="M227.9,180c0-.21-2.34-.62-6.15-1.1-1-.1-1.88-.29-2-.95a4.9,4.9,0,0,1,.64-2.87c.91-2.33,1.85-4.79,2.85-7.36,4-10.48,6.82-19.1,6.4-19.25s-4,8.21-7.93,18.69l-2.74,7.41c-.36,1.1-1,2.34-.49,3.79a2.41,2.41,0,0,0,1.59,1.41,6.57,6.57,0,0,0,1.64.23C225.51,180.21,227.89,180.23,227.9,180Z" style="fill:#263238"></path><path d="M258.19,146.35c0-1-3.32-1.63-6.89-3.32s-6.22-3.74-7-3.11c-.35.31-.1,1.32.83,2.59a12.86,12.86,0,0,0,10.56,4.89C257.26,147.28,258.18,146.81,258.19,146.35Z" style="fill:#263238"></path><path d="M217.17,137.34c-.64-.57-3.43,1.21-7.09,2.53s-6.88,1.86-7,2.72c-.05.41.76.85,2.24,1a13.67,13.67,0,0,0,5.76-.89,14.14,14.14,0,0,0,5-3.12C217.1,138.49,217.46,137.62,217.17,137.34Z" style="fill:#263238"></path><path d="M281.69,164.84c.42-.18,16.92-5,16.4,11.81S280.77,189.49,280.76,189,281.69,164.84,281.69,164.84Z" style="fill:#ffbf9d"></path><path d="M286.1,182.79c.07,0,.28.22.77.46a3,3,0,0,0,2.19.11c1.8-.6,3.39-3.37,3.56-6.41a9.6,9.6,0,0,0-.69-4.22,3.37,3.37,0,0,0-2.14-2.32,1.49,1.49,0,0,0-1.75.75c-.24.46-.14.8-.24.83s-.35-.29-.19-1a1.87,1.87,0,0,1,.69-1,2.25,2.25,0,0,1,1.64-.38,4.1,4.1,0,0,1,3,2.71,9.8,9.8,0,0,1,.87,4.72c-.21,3.39-2,6.51-4.5,7.14a3.14,3.14,0,0,1-2.67-.53C286.11,183.2,286,182.82,286.1,182.79Z" style="fill:#ff9a6c"></path><path d="M306,139.27c-3.07-6.17-3.38-13.3-4.81-20s-4.63-13.85-10.94-16.63l-.15.05c-5.65-2.75-12.81-3.3-17.88.39-.56-8.81-7.71-16.27-16.06-19.12s-22.11-2.5-30.52.2c-6.49,2.09-13,6.86-20.94,14a83.45,83.45,0,0,0-9.32,9.76l-9,22.34,5.48,12.45c.32.84.65,1.68,1.07,2.53v-.06l3.9,25.68c.86-6.86,2.08-30.87,2.94-37.74A38.53,38.53,0,0,0,228,122.38c4.07-3.9,7.4-8.91,12.62-11,6.72-2.74,14.29.15,21,3l-.28-.28a30.59,30.59,0,0,1,9,7.52,95.87,95.87,0,0,0,1.23,40.74c.5,2,2,6.15,3.82,7,3.67,1.73,5-2,7.38-3.91,1.78-1.39,4.27-1.4,7-1.2,1.89-4.07,4-11,5.86-17.09a15.25,15.25,0,0,0,7,1q-.9-2.67-1.79-5.34a8,8,0,0,0,2.91,1.58,2.74,2.74,0,0,0,2.95-1C307.38,142.11,306.61,140.56,306,139.27Z" style="fill:#263238"></path><path d="M264.28,105.3a19.93,19.93,0,0,1,2.3,2.42,17.62,17.62,0,0,1,3.17,8.4,31.24,31.24,0,0,1,.18,6.27c-.16,2.25-.51,4.65-.87,7.18a64.78,64.78,0,0,0-.76,8,28.31,28.31,0,0,0,.25,4.28A8.87,8.87,0,0,0,270,146.1a3.7,3.7,0,0,0,3.37,1.41,5.53,5.53,0,0,0,3.24-1.53c1.7-1.73,2.27-4,2.8-6.06l-.51,0a20.24,20.24,0,0,0,2.61,5.34,7.3,7.3,0,0,0,4.57,2.94,4.82,4.82,0,0,0,2.56-.26,4,4,0,0,0,1.83-1.57,4.12,4.12,0,0,0,.68-2.13,3,3,0,0,0-.65-2l-.27.21a15.62,15.62,0,0,0,5,4.32,13.7,13.7,0,0,0,1.58.76,2.16,2.16,0,0,0,.58.18,2.94,2.94,0,0,0-.54-.27c-.35-.18-.88-.44-1.53-.83a16.25,16.25,0,0,1-4.78-4.37l-.28.22a3.15,3.15,0,0,1-.1,3.65,3.69,3.69,0,0,1-1.66,1.38,4.28,4.28,0,0,1-2.31.21,6.89,6.89,0,0,1-4.25-2.79,20.19,20.19,0,0,1-2.5-5.22l-.3-.81-.22.83c-.54,2-1.12,4.24-2.68,5.79a5,5,0,0,1-2.89,1.37,3.13,3.13,0,0,1-2.87-1.2,8.4,8.4,0,0,1-1.32-4,29.72,29.72,0,0,1-.25-4.19,64.47,64.47,0,0,1,.73-7.95c.34-2.54.68-5,.81-7.24a30.39,30.39,0,0,0-.25-6.35,17.37,17.37,0,0,0-3.4-8.48A9.74,9.74,0,0,0,264.28,105.3Z" style="fill:#455a64"></path><path d="M186.82,123.66a1.07,1.07,0,0,0,.19.18l.58.49a7.25,7.25,0,0,0,1,.74,11.56,11.56,0,0,0,1.43.9,21.82,21.82,0,0,0,10.34,2.64,27.78,27.78,0,0,0,15.17-4.4c5.15-3.16,9.81-8,13.75-13.71,2-2.84,3.67-5.78,5.47-8.47a32.52,32.52,0,0,1,6-7.06,16.78,16.78,0,0,1,7.36-3.77,11.92,11.92,0,0,1,3.75-.16,13.28,13.28,0,0,1,3.36.9,14.26,14.26,0,0,1,7.39,7.22,17.16,17.16,0,0,1,1,3.76.78.78,0,0,0,0-.25c0-.21,0-.46-.07-.76a11.72,11.72,0,0,0-.73-2.83,13.94,13.94,0,0,0-2.47-3.92,14.53,14.53,0,0,0-5-3.6,14,14,0,0,0-3.46-1,12.53,12.53,0,0,0-3.9.13,17.19,17.19,0,0,0-7.61,3.84,32.68,32.68,0,0,0-6.14,7.15c-1.82,2.71-3.49,5.64-5.47,8.45-3.91,5.63-8.51,10.45-13.56,13.59a27.65,27.65,0,0,1-14.88,4.44,22.1,22.1,0,0,1-10.24-2.43A34.06,34.06,0,0,1,186.82,123.66Z" style="fill:#455a64"></path><path d="M202.73,151.08c.45.53,3.44-1.54,7.55-1.36s7,2.42,7.5,1.92c.22-.22-.22-1.16-1.49-2.19a10.24,10.24,0,0,0-6-2.17,10,10,0,0,0-6,1.71C203,149.93,202.51,150.84,202.73,151.08Z" style="fill:#263238"></path><path d="M206.84,162.14a3.32,3.32,0,0,0,3.21,3.35,3.18,3.18,0,0,0,3.43-3,3.33,3.33,0,0,0-3.21-3.36A3.19,3.19,0,0,0,206.84,162.14Z" style="fill:#263238"></path><path d="M197.61,105.18c-2.25,2.63-5.61,4.95-9,4.38a25.7,25.7,0,0,1-3.59-1.29c-1.25.65-1.21,4.78-.45,6a22.16,22.16,0,0,0,2.42,2.82c-4.16,1.92-7.77.64-12-1.19a21.12,21.12,0,0,0,11.51,17.64c2.11,1,4.71,1.69,6.76.53,1.8-1,2.64-3.13,3.28-5.1a92,92,0,0,0,4.35-22.35Z" style="fill:#263238"></path><path d="M227.59,189.54c2.23-1.11,5-2,7-.67a7.26,7.26,0,0,1,3.16,6.38,4.26,4.26,0,0,1-2.1,3.33,5.24,5.24,0,0,1-6.58-.29,7.13,7.13,0,0,1-2.5-6.26,4,4,0,0,1,1-2.49" style="fill:#ff9a6c"></path><path d="M227.5,196.35c.07,0,.26.32.73.83a7.23,7.23,0,0,0,.92.85,6.08,6.08,0,0,0,1.39.86,4.69,4.69,0,0,0,4-.15,4.48,4.48,0,0,0,2.56-4,5.82,5.82,0,0,0-1.84-4.56A6,6,0,0,0,233.4,189a4.75,4.75,0,0,0-1.88-.36,9.46,9.46,0,0,0-2.85.61c-.67.23-1,.37-1.08.3s.28-.32.92-.67a7.54,7.54,0,0,1,3-1,5.11,5.11,0,0,1,2.23.29,6.71,6.71,0,0,1,2.18,1.34,6.63,6.63,0,0,1,2.22,5.31,5.26,5.26,0,0,1-1,2.94,5.69,5.69,0,0,1-2.22,1.83,5.35,5.35,0,0,1-4.72-.06C227.82,198.16,227.36,196.34,227.5,196.35Z" style="fill:#263238"></path><path d="M235.25,144.13c0,.05-.46-.18-1-.75a5.72,5.72,0,0,1-.95-5.64c.29-.71.62-1.06.67-1s-.14.45-.32,1.14a6.5,6.5,0,0,0-.12,2.74,6.37,6.37,0,0,0,1,2.55C235,143.75,235.3,144.06,235.25,144.13Z" style="fill:#ff9a6c"></path><path d="M225.24,142.69c0-.08.36-.26.86-.68a4.68,4.68,0,0,0,1.41-2,4.61,4.61,0,0,0,.06-2.49c-.16-.64-.37-1-.3-1.06s.38.28.65.94a4.12,4.12,0,0,1-1.61,5C225.71,142.69,225.26,142.75,225.24,142.69Z" style="fill:#ff9a6c"></path><path d="M324.13,350.09l2.27,15.13,51.75-28s-23.34-54.14-28.17-61c-10.21-14.41-31.43-22-31.43-22L278,240.89c-15.33,14.24-48.82,13.08-58,.78l-24.68.81,0,.12c-10-.58-26.77,4.89-39.62,16.56-14.84,13.48-37.7,42.58-37.7,42.58l39.42,46.39,9.62-12-8.9,145.53H331.22l-4.58-53.36Z" style="fill:#455a64"></path><path d="M173.06,399.62s8.62,8.8,26,3.67,32.67-23.58,36.33-30.28.14-29.58.14-29.58l-39,12.81L173.41,394Z" style="fill:#FF725E"></path><path d="M173.06,399.62s8.62,8.8,26,3.67,32.67-23.58,36.33-30.28.14-29.58.14-29.58l-39,12.81L173.41,394Z" style="opacity:0.30000000000000004"></path><path d="M234.29,289.23s8.57-28.91-7.79-30S189.16,283.74,179,320.06c-8.79,31.25-8.07,66.79-7.7,76.11a7.6,7.6,0,0,0,1.46,4.18h0s-.32-5,12.85-9.13S221,384,227,376.78s6.45-18.66,6.45-18.66-1.3-11.82.84-13.15,5.18-7.89,5.66-10.79,2.64-13.92,1.4-22.21S234.29,289.23,234.29,289.23Z" style="fill:#FF725E"></path><path d="M236.37,293.69a5.7,5.7,0,0,1-.6-1.05c-.36-.7-.87-1.72-1.46-3a47,47,0,0,1-3.6-10.36,23.25,23.25,0,0,1,.24-10.94,15.33,15.33,0,0,1,1.23-3.1,4.46,4.46,0,0,1,.66-1,29.59,29.59,0,0,0-1.54,4.22,24.72,24.72,0,0,0-.08,10.75,54.25,54.25,0,0,0,3.43,10.31c.51,1.21.95,2.23,1.3,3.05A5.14,5.14,0,0,1,236.37,293.69Z" style="fill:#263238"></path><path d="M261.16,329.76c.41.5-1.4,22.12-1.4,22.12s-2.73,1.87-2.91,11.8,1,15,6.11,21.44,20.77,22.94,34.48,23.51,18,.64,18.58-5.95-6.82-32.12-6.82-32.12l-13.94-34Z" style="fill:#FF725E"></path><path d="M261.16,329.76c.41.5-1.4,22.12-1.4,22.12s-2.73,1.87-2.91,11.8,1,15,6.11,21.44,20.77,22.94,34.48,23.51,18,.64,18.58-5.95-6.82-32.12-6.82-32.12l-13.94-34Z" style="opacity:0.30000000000000004"></path><path d="M239.57,230.65s4.51-2.81,11-.42c0,0-3.13,3.56-6.08,3.2A8.33,8.33,0,0,1,239.57,230.65Z" style="fill:#FF725E"></path><path d="M239.57,230.65s4.51-2.81,11-.42c0,0-3.13,3.56-6.08,3.2A8.33,8.33,0,0,1,239.57,230.65Z" style="opacity:0.30000000000000004"></path><path d="M251.87,291.66c-1-4.14-.7-8-.39-20.26.31-12.92-.92-41.17-.92-41.17-3.51,2.71-7.18,2.74-11,.42l1.52,22.65s-.43,33.21-1.1,38.32a34.47,34.47,0,0,1-1.55,7.29l.75,13.77,4.46-5.62s2.21-4.43,4.47-3.77,6.2,5.73,6.2,5.73l4.26-7.54S252.85,295.8,251.87,291.66Z" style="fill:#FF725E"></path><path d="M254.77,281.94s-3.45-19.4,8.14-21.2,26.86,12.12,34,20.65,18.48,30.49,21,53.82S316,402.68,316,402.68s-1.76-2.45-5.08-7.12-22.75-9.94-24.95-19a36.31,36.31,0,0,1,.7-17.81s-2.47-1.22-3.87-9.39L274.61,338a13.6,13.6,0,0,1-6.69-1.7c-3.71-1.93-11.71-12.45-14.16-16.85-2.94-5.27-1.4-14.31,1.89-17.72,1.25-1.3,3.93-4.15,3.93-4.15Z" style="fill:#FF725E"></path><path d="M283.46,376.29a5.22,5.22,0,0,1-1-.51l-2.77-1.55-4.07-2.35a41.09,41.09,0,0,0-5.1-2.6A15.41,15.41,0,0,0,265,368a11.06,11.06,0,0,0-4.51.81,9.79,9.79,0,0,0-3.43,2.49s0-.1.14-.27a4.75,4.75,0,0,1,.53-.69,7.9,7.9,0,0,1,2.61-1.87,11.13,11.13,0,0,1,4.66-.95,15.44,15.44,0,0,1,5.69,1.25,37.31,37.31,0,0,1,5.14,2.66l4,2.45,2.69,1.7A5.16,5.16,0,0,1,283.46,376.29Z" style="fill:#263238"></path><path d="M206.09,324.54l-.61.47Z" style="fill:#fff;opacity:0.2"></path><path d="M233.7,324.21c3.52-4.07,8-13,8-13l-.44-2.37h0l-2.22-6.15s-3.69,3.57-7.81,2-5.74-4.1-6.85-12.28,3.15-8.72,3.66-9.17l-.9-1.19a8.45,8.45,0,0,0-4.22,5.24,19.05,19.05,0,0,0-1.33-4.62c-1.25-3.32-7.25-6-7.25-6l-.91,1.56c4,1.39,7.17,7.27,7.23,8.89a50.75,50.75,0,0,0,1.23,6.24L213.42,284l-.86.75a29.64,29.64,0,0,1,4.37,5.31c1.61,2.69,5.8,8.31,5.8,8.31l2.52,6.32a26.23,26.23,0,0,1-5.19-2.6c-2.8-1.79-3.6-2-5.82-5.39s-6.42-8.84-6.42-8.84l-.89,1.24s4.3,7.21,5.41,9.43c1.3,2.57,6.25,6.39,6.25,6.39l-16.67-.56-1.25,1.7,14.13,1.06s2.72-.64-5.62,1.42A108.88,108.88,0,0,0,192,314.75l.28,1,9.76-3.48a82.16,82.16,0,0,0-6.47,7.59l.81.58c6.79-9.45,15.71-10.61,15.71-10.61L206.86,316l.88.38,8.31-7.26,5.5.19c-.22.14-.74.75-2,2.95-1.74,3.12-13.49,12.27-13.49,12.27l1,.32s9.85-8.23,10.45-8.34c1.31-.24-.37,5.82-.37,5.82l1.49.25c.82-5.3,7.3-13.48,7.3-13.48l13.23-.21c-1.6,2.36-4.36,6.3-6.89,9.45a34.92,34.92,0,0,1-9.38,7.76s-5.53.63-9.38,1.13S203,331,200.17,334.11c-2.45,2.65-14.76,15.52-14.76,15.52l2.16,1,8.32-9.73-1.84,5.69,1.79-.18a28.66,28.66,0,0,1,6.77-11.13c2.83-2.87,6.7-5.06,7.72-4.85s-2.41,6.22-2.41,6.22l1.87,0a63.37,63.37,0,0,1,3.57-6.75c1.17-1.57,8-.38,8-.38a34,34,0,0,1-4.13,4.34c-1.87,1.51-13.21,7.32-17.36,12.09s-9.77,11.54-9.77,11.54l1.56,1.14c3.05-4.4,13.17-14.19,17.72-17.71,1.15-.89,8-4.39,8-4.39l-2,5.63a26.67,26.67,0,0,0-5.37,5.32,37.42,37.42,0,0,0-3.63,5.53,68.69,68.69,0,0,1-3.62,6c-1.63,2.27-8.22,5.71-8.22,5.71s-1.51,2.87-2.88,5.76-6.29,5.67-6.29,5.67l.18,1.93,3.2-1.42.19,6.38,1.18.08s-.47-6.56,1.11-8.24,4.35-7.82,4.35-7.82,7.88-5,9.44-6.28,3.53-6.59,3.53-6.59l3.72-3.13-5,9.57s-8.14,16.23-8.32,16.82-1,6.16-1,6.16l1.26-1.26c.68-3.66,13.92-28,14.32-29.63s4.49-5.34,4.49-5.34l-1.15,4.07s-4.92,14.66-6,18.3-3.76,9.69-3.76,9.69l1,.81,2.73-6.15.36,4.12,1.48.09s.6-7.22,1.23-10.1,2.41-7.75,2.44-8.19.36,8.37.36,8.37l-2,8.86,1.7-.12s.23-.7.91-3.57c.55-2.32,1.66-2.86,1.66-2.86l1.46,2.43,1.3-.75S218.29,368,218,359.83c-.12-3.16,1.64-7.16,1.64-7.16L225,363.83l1.68-.78s-5.23-11-5.4-12.94,2.2-13.79,2.4-16.9,2.12-3.12,3.23-3.94,2.08,6.65,2.42,8.3-2.82,14.2-2.82,14.2L227,356l4.35-17.21-.19,2.95,1.31.53L233,338l-2.8-9.66Z" style="fill:#fff;opacity:0.2"></path><path d="M250.9,240.08a12.16,12.16,0,0,1-5.22,1.74,10.39,10.39,0,0,1-3.93-.19,3.48,3.48,0,0,1-1.49-.66,10.85,10.85,0,0,1,1.57.3,12.68,12.68,0,0,0,3.78,0C248.57,240.91,250.84,239.92,250.9,240.08Z" style="fill:#263238"></path><path d="M250.78,235.72a10.68,10.68,0,0,1-5.41,1.45,11.92,11.92,0,0,1-4-.46,3.55,3.55,0,0,1-1.5-.7,21,21,0,0,0,5.45.64A33.76,33.76,0,0,0,250.78,235.72Z" style="fill:#263238"></path><path d="M251.07,243.93s-.45.45-1.37.86a11.66,11.66,0,0,1-3.8.93,10.9,10.9,0,0,1-3.9-.33,3.31,3.31,0,0,1-1.48-.66,9.58,9.58,0,0,1,1.56.3,14.22,14.22,0,0,0,3.78.17A21.64,21.64,0,0,0,251.07,243.93Z" style="fill:#263238"></path><path d="M251.19,247.74c0,.06-.45.45-1.36.86a11.67,11.67,0,0,1-3.77,1,10.88,10.88,0,0,1-3.88-.31,3.3,3.3,0,0,1-1.47-.66,9.38,9.38,0,0,1,1.55.3A14.53,14.53,0,0,0,246,249,22.14,22.14,0,0,0,251.19,247.74Z" style="fill:#263238"></path><path d="M251.31,251.94a3.38,3.38,0,0,1-1.33.84,10.75,10.75,0,0,1-3.68.87,10.61,10.61,0,0,1-3.76-.42,3.57,3.57,0,0,1-1.42-.66,20.52,20.52,0,0,0,5.15.56A19.61,19.61,0,0,0,251.31,251.94Z" style="fill:#263238"></path><path d="M251.41,256.35a3.27,3.27,0,0,1-1.36.83,10.6,10.6,0,0,1-3.76.76,8.87,8.87,0,0,1-5.23-1.21,22.91,22.91,0,0,0,5.22.69,13.65,13.65,0,0,0,3.65-.58A9.09,9.09,0,0,1,251.41,256.35Z" style="fill:#263238"></path><path d="M251.48,261.09a3.35,3.35,0,0,1-1.42.75,11,11,0,0,1-3.84.6,11.67,11.67,0,0,1-3.83-.69A3.57,3.57,0,0,1,241,261a22.07,22.07,0,0,0,5.25.93A19,19,0,0,0,251.48,261.09Z" style="fill:#263238"></path><path d="M251.53,265.14a9.47,9.47,0,0,1-5.3,1.5,10.89,10.89,0,0,1-3.9-.52c-1-.34-1.47-.72-1.43-.77a10.68,10.68,0,0,1,1.54.41,14,14,0,0,0,3.77.36A25.83,25.83,0,0,0,251.53,265.14Z" style="fill:#263238"></path><path d="M251.51,269.42a3.52,3.52,0,0,1-1.45.76,12.53,12.53,0,0,1-3.9.65,11.33,11.33,0,0,1-3.9-.6,3.53,3.53,0,0,1-1.45-.78,9.64,9.64,0,0,1,1.56.42,14.07,14.07,0,0,0,3.79.44A22.25,22.25,0,0,0,251.51,269.42Z" style="fill:#263238"></path><path d="M251.41,274.07a3.66,3.66,0,0,1-1.42.79,9.46,9.46,0,0,1-3.87.61,10.7,10.7,0,0,1-3.79-1,4.12,4.12,0,0,1-1.37-.85c.07-.18,2.23,1.11,5.19,1.3S251.35,273.9,251.41,274.07Z" style="fill:#263238"></path><path d="M251.29,278.42a3.75,3.75,0,0,1-1.44.77,9.84,9.84,0,0,1-3.9.58,10.83,10.83,0,0,1-3.84-.91,4,4,0,0,1-1.4-.83c.07-.17,2.27,1.07,5.26,1.22S251.23,278.25,251.29,278.42Z" style="fill:#263238"></path><path d="M250.81,282.72a3.33,3.33,0,0,1-1.32.71,9.68,9.68,0,0,1-3.57.61,10,10,0,0,1-3.55-.72c-.86-.36-1.32-.7-1.29-.76a19.24,19.24,0,0,0,4.85,1A20.34,20.34,0,0,0,250.81,282.72Z" style="fill:#263238"></path><path d="M250.52,287.32a3.36,3.36,0,0,1-1.32.72,9.91,9.91,0,0,1-3.57.6,9.75,9.75,0,0,1-3.55-.71,3.23,3.23,0,0,1-1.29-.76,19.51,19.51,0,0,0,4.85.95A19.23,19.23,0,0,0,250.52,287.32Z" style="fill:#263238"></path><path d="M251.17,291.89a9.11,9.11,0,0,1-5.37,1.26,9.27,9.27,0,0,1-5.29-1.54,24.66,24.66,0,0,0,5.31,1A23,23,0,0,0,251.17,291.89Z" style="fill:#263238"></path><path d="M253.3,295.72a5.27,5.27,0,0,1-1.71,1.37,11.07,11.07,0,0,1-10.29.48,5.3,5.3,0,0,1-1.84-1.2c0-.07.75.38,2,.86a12.42,12.42,0,0,0,5,.85,12.3,12.3,0,0,0,4.93-1.31C252.59,296.17,253.25,295.65,253.3,295.72Z" style="fill:#263238"></path><path d="M240,334.18a1.44,1.44,0,0,1,.06-.48c.06-.36.15-.8.25-1.33s.27-1.28.39-2.11.31-1.76.41-2.81a59.06,59.06,0,0,0,.49-7.36,62.12,62.12,0,0,0-.75-9,69.25,69.25,0,0,0-2-8.82c-.77-2.67-1.62-5-2.33-7s-1.35-3.56-1.8-4.65l-.48-1.27a1.4,1.4,0,0,1-.14-.46,1.58,1.58,0,0,1,.23.42l.58,1.23c.5,1.07,1.16,2.64,2,4.6s1.64,4.33,2.44,7a64.22,64.22,0,0,1,2.06,8.86,58,58,0,0,1,.72,9.08,56.23,56.23,0,0,1-.6,7.41c-.13,1.05-.34,2-.5,2.81s-.32,1.53-.47,2.1-.26,1-.35,1.32A1.7,1.7,0,0,1,240,334.18Z" style="fill:#263238"></path><path d="M310.71,395.35a1.62,1.62,0,0,1-.18-.16c-.13-.12-.29-.28-.51-.47a17.73,17.73,0,0,0-2.22-1.53c-2-1.24-5.14-2.77-9-4.89a72,72,0,0,1-6.2-3.8,36.25,36.25,0,0,1-3.25-2.53,11,11,0,0,1-2.85-3.39,18.64,18.64,0,0,1-1.83-9.43,40.68,40.68,0,0,1,1.78-10.48l.09.27a7.66,7.66,0,0,1-1.79-1.89,13.05,13.05,0,0,1-1.15-2.38,19.86,19.86,0,0,1-1.05-5.3l.05.14-8.22-11.35.2.11a32.68,32.68,0,0,1-4.64-1,12.46,12.46,0,0,1-2.33-.77,10.4,10.4,0,0,1-2.08-1.37,24.87,24.87,0,0,1-3.48-3.56,42.43,42.43,0,0,1-2.82-3.88l0,0a23.7,23.7,0,0,1-7-13.36,16.28,16.28,0,0,1,.52-7.2,16.83,16.83,0,0,1,8-10.46,18.52,18.52,0,0,0,2.63-1.59,7.42,7.42,0,0,0,1.78-2.28,12.93,12.93,0,0,0,1.26-5.41,32.78,32.78,0,0,0-.19-5.2c-.8-6.56-2.65-11.75-4.87-14.66a4.32,4.32,0,0,0-1.89-1.43,2.25,2.25,0,0,0-1.69.14,4,4,0,0,0-1.14.89,1.39,1.39,0,0,1,.22-.3,3.23,3.23,0,0,1,.88-.67,2.28,2.28,0,0,1,1.77-.2,4.38,4.38,0,0,1,2,1.45c2.32,2.93,4.22,8.13,5.07,14.75a31.92,31.92,0,0,1,.23,5.24,13.45,13.45,0,0,1-1.27,5.59,8.07,8.07,0,0,1-1.88,2.42,6.6,6.6,0,0,1-1.32.88c-.45.24-.91.48-1.35.75a16.46,16.46,0,0,0-7.78,10.22,16,16,0,0,0-.49,7,23.23,23.23,0,0,0,6.88,13.06l0,0,0,0a40.68,40.68,0,0,0,2.78,3.82,24.36,24.36,0,0,0,3.4,3.49,10.16,10.16,0,0,0,2,1.3,12.41,12.41,0,0,0,2.23.74,32.65,32.65,0,0,0,4.53.94h.13l.07.1,8.2,11.36.05.06v.08a19.61,19.61,0,0,0,1,5.14,11.71,11.71,0,0,0,1.1,2.28,7,7,0,0,0,1.65,1.77l.14.11-.05.16a40.91,40.91,0,0,0-1.79,10.34,18.29,18.29,0,0,0,1.74,9.23,10.42,10.42,0,0,0,2.75,3.3,39.76,39.76,0,0,0,3.2,2.53c2.15,1.51,4.23,2.74,6.14,3.83,3.82,2.15,6.91,3.72,8.92,5a16.32,16.32,0,0,1,2.2,1.6C310.51,395.1,310.71,395.35,310.71,395.35Z" style="fill:#263238"></path><path d="M239.55,335.79a3.7,3.7,0,0,1-.19.69c-.14.46-.38,1.13-.73,2a22.62,22.62,0,0,1-1.53,3,15.16,15.16,0,0,1-2.88,3.56l0,0a4,4,0,0,0-.38,1.67c-.05.62-.06,1.27-.07,1.93,0,1.34,0,2.76,0,4.25a59.62,59.62,0,0,1-.19,9.82,24.6,24.6,0,0,1-3.81,10.55,21.81,21.81,0,0,1-4,4.61,27.87,27.87,0,0,1-5.34,3.34,66.65,66.65,0,0,1-9.84,3.72c-3.25,1-6.42,1.82-9.44,2.58-6,1.52-11.52,2.73-16,4a41.29,41.29,0,0,0-5.9,2.26,18.86,18.86,0,0,0-4,2.55,7.83,7.83,0,0,0-1.9,2.3,4,4,0,0,0-.29.73c0,.17-.06.26-.07.26a.7.7,0,0,1,0-.27,2.87,2.87,0,0,1,.24-.76,7.44,7.44,0,0,1,1.86-2.41,18.55,18.55,0,0,1,4-2.66,40.92,40.92,0,0,1,5.93-2.35c4.52-1.37,10-2.62,16-4.16,3-.78,6.17-1.61,9.4-2.6a68.52,68.52,0,0,0,9.76-3.7,27,27,0,0,0,5.23-3.28,20.88,20.88,0,0,0,3.87-4.49,24.37,24.37,0,0,0,3.78-10.34c.92-7-.52-13.09.82-17.79h0l0,0a15.34,15.34,0,0,0,2.86-3.44,24.74,24.74,0,0,0,1.58-2.95c.38-.84.64-1.49.81-1.94A4.05,4.05,0,0,1,239.55,335.79Z" style="fill:#263238"></path><path d="M307.71,360.55s-5.76-8.49-6.58-11.37-2.12-7.34-2.12-7.34l-8.76-19.58s4.79,2.41,7.37,5.5,4.26,12.31,4.26,12.31l1.62.11-2.56-10.9L306.6,335l.87-.92s-8.1-8.32-12.3-11.35-9-9.52-9-9.52l4.6.78c4.61.78,10.28,5.69,10.28,5.69l1-.91a38,38,0,0,0-7.79-5.53c-4.1-2.05-4.43-1.91-4.43-1.91L298,303.4l-1.2-.38c-9.08,8.86-14.32,6.49-14.32,6.49-2.66-1.69-7.24-2.12-7.24-2.12a46.84,46.84,0,0,1,5.22-6.84c2.25-2.13,12.26-7.15,12.26-7.15l-.17-.83-13,6.37,3.78-11-1-.06L277.85,298l-.19-7.32-1.45-.09-.6,9.4s-2.41,4.73-6.26,6.44-8.74-2.38-8.74-2.38l-3.75-3.61a21.22,21.22,0,0,0-3.8,6.73s7.94,5.24,10.66,7.53,7.88,7.65,9.69,12.48-.55,7.65-.55,7.65l2,.21c2-2.08.72-8.7.72-8.7s7.2,9.54,7.72,12.18a5.35,5.35,0,0,1-.76,4.21l1.6.1,1-3.19,5.62,6.89,1.1-1-16.24-22,10,7.7L288,333l1-1.48-1.33-1.32-18.45-17.08s-.78-.53,1.21-1.06,9.69,1.1,13.05,4.57,8.16,15.06,8.16,15.06a19.54,19.54,0,0,1,2.64,7.25c.27,3.44-1.18,16-1.18,16l1.62.1,1.82-13.39,5.83,23.45,1.28.08-3.39-14.45,6.59,9.91Z" style="fill:#fff;opacity:0.2"></path><g style="opacity:0.30000000000000004"><path d="M262.39,295.85a36.07,36.07,0,0,1-6.69-23.13,8.26,8.26,0,0,1,1.17-4.15,3.38,3.38,0,0,1,3.79-1.44c1.32.52,1.85,2,2.44,3.32a41.17,41.17,0,0,1,3.62,15.67,13.42,13.42,0,0,1-.81,5.73,6.4,6.4,0,0,1-3.52,4"></path></g><path d="M244.83,235.89c0,.14-.76.19-1.66.1s-1.63-.28-1.62-.42.76-.19,1.67-.1S244.85,235.74,244.83,235.89Z" style="fill:#fff"></path><path d="M244.94,241.07c0,.14-.66.22-1.45.16s-1.42-.2-1.41-.35.66-.22,1.45-.16S245,240.92,244.94,241.07Z" style="fill:#fff"></path><path d="M244.2,245c0,.15-.35.24-.76.21s-.73-.17-.72-.31.35-.24.76-.21S244.21,244.84,244.2,245Z" style="fill:#fff"></path><path d="M244.62,248.37c0,.13-.3.37-.79.37s-.84-.24-.8-.37.4-.15.8-.15S244.57,248.23,244.62,248.37Z" style="fill:#fff"></path><path d="M244.72,252.4c0,.14-.42.16-.86,0s-.76-.32-.72-.46.42-.16.86,0S244.76,252.26,244.72,252.4Z" style="fill:#fff"></path><path d="M245.15,256.71c.06.13-.45.46-1.16.4s-1.16-.46-1.08-.57.55,0,1.12,0S245.09,256.57,245.15,256.71Z" style="fill:#fff"></path><path d="M245.24,260.93c.1.1-.37.59-1.13.57s-1.21-.52-1.1-.62.54.09,1.11.1S245.16,260.81,245.24,260.93Z" style="fill:#fff"></path><path d="M244.94,265.9c0,.14-.47.21-1,.16s-1-.2-1-.34.47-.22,1-.17S245,265.75,244.94,265.9Z" style="fill:#fff"></path><path d="M244.61,269.76c0,.14-.46.16-1,.05s-.88-.31-.85-.45.46-.17,1-.06S244.64,269.62,244.61,269.76Z" style="fill:#fff"></path><path d="M244.62,274.16c0,.14-.51.32-1.14.12s-1-.64-.88-.74.51.09,1,.25S244.6,274,244.62,274.16Z" style="fill:#fff"></path><path d="M245,278c0,.14-.46.38-1.13.35s-1.14-.33-1.09-.46.54-.09,1.12-.06S245,277.84,245,278Z" style="fill:#fff"></path><path d="M245.89,283c0,.14-.64.27-1.42.08s-1.29-.59-1.23-.72.65.05,1.35.22S245.89,282.8,245.89,283Z" style="fill:#fff"></path><path d="M245.68,287.72c0,.14-.45.18-1,.1s-.88-.27-.85-.42.44-.18.94-.09S245.7,287.58,245.68,287.72Z" style="fill:#fff"></path><path d="M245.78,292c.06.13-.38.43-1,.33s-.92-.53-.82-.63.46,0,.91.11S245.73,291.9,245.78,292Z" style="fill:#fff"></path><path d="M245.78,298.06c0,.14-.56.36-1.27.13s-1.06-.76-1-.85.54.17,1.12.35S245.76,297.92,245.78,298.06Z" style="fill:#fff"></path><path d="M322.32,300.24a3.42,3.42,0,0,1,.06.72c0,.52,0,1.2.07,2,.05,1.84.12,4.39.21,7.52.19,6.35.54,15.12,1,24.8s.82,18.46,1,24.82c.1,3.17.15,5.75.17,7.52v2a3.2,3.2,0,0,1,0,.71,3.56,3.56,0,0,1-.07-.71c0-.52-.06-1.2-.11-2-.08-1.84-.19-4.39-.32-7.52-.3-6.4-.71-15.14-1.16-24.8s-.74-18.46-.83-24.82c-.05-3.18-.06-5.75-.05-7.53,0-.84,0-1.52,0-2A3.13,3.13,0,0,1,322.32,300.24Z" style="fill:#263238"></path><path d="M171.74,287.17a2.39,2.39,0,0,1,0,.59c0,.44-.09,1-.16,1.67-.15,1.53-.36,3.61-.62,6.16-.53,5.2-1.26,12.39-1.93,20.33s-1.2,15.15-1.53,20.37c-.16,2.56-.29,4.65-.38,6.18q-.07,1-.12,1.68a2.73,2.73,0,0,1-.08.58,2.23,2.23,0,0,1,0-.59q0-.66,0-1.68c0-1.46.09-3.58.21-6.19.24-5.22.69-12.44,1.38-20.39s1.46-15.14,2.08-20.33c.31-2.59.59-4.69.79-6.14.11-.68.19-1.23.26-1.67A2.21,2.21,0,0,1,171.74,287.17Z" style="fill:#263238"></path><path d="M299.1,456a1.1,1.1,0,0,1-.25.1l-.77.24-2.95.87c-1.28.38-2.86.83-4.69,1.3s-3.92,1.06-6.25,1.61c-4.64,1.15-10.2,2.38-16.4,3.59s-13.07,2.32-20.3,3.27-14.16,1.58-20.47,2-12,.65-16.78.71c-2.38.07-4.55,0-6.45.05s-3.53,0-4.86-.06l-3.08-.09-.8,0-.27,0,.27,0h3.88c1.33,0,3,0,4.86,0s4.06,0,6.45-.13c4.77-.11,10.45-.38,16.75-.82s13.2-1.14,20.43-2.06,14.07-2.08,20.28-3.23,11.76-2.37,16.4-3.48c2.33-.52,4.42-1.08,6.26-1.53s3.43-.87,4.72-1.21l3-.78.78-.19Z" style="fill:#263238"></path><path d="M154.46,217.35s6.15,1.93,4.91,6.76c0,0-7.24,1.36-9.65,1.68-3.94.53-8.7,3.48-8.7,3.48s-7.25,10.18-9.9,13l-29.24,1.24-7.74-31.72-2.84-18.6,7.43-13.31s4.17-.07,3.39,4.9A54.4,54.4,0,0,1,99.78,194l2.53,8s.49-21.58,1.45-26,5-4.73,6.85-1.28,2.23,24.43,2.23,24.43,1.74-20.58,2.63-21.67a6.6,6.6,0,0,1,8.06-1.85,4.88,4.88,0,0,1,4.27-3.43c2.09-.12,6,1.09,5.94,5.58-.06,3.14-.1,26.26.21,26.86s-1.26,9,5,13.8C142.34,221,147.93,214.76,154.46,217.35Z" style="fill:#ffbf9d"></path><path d="M144.67,181.8l-2.58-5.09a2.39,2.39,0,0,0-3.14-1l-8.07,3.78a2.18,2.18,0,0,0-1.12,2.94l3.31,6.54Z" style="fill:#fff"></path><path d="M144.67,181.8a6.26,6.26,0,0,1-.78.56l-2.34,1.52c-2,1.31-4.92,3.16-8.35,5.31l-.22.14-.12-.24c-.55-1.06-1.11-2.17-1.7-3.32l-.89-1.76-.46-.9a6.82,6.82,0,0,1-.44-1,2.37,2.37,0,0,1,.57-2.27,2.82,2.82,0,0,1,.95-.66l1-.45,3.64-1.68,3.3-1.52a2.65,2.65,0,0,1,3.13.58,5.85,5.85,0,0,1,.7,1.25l.54,1.13c.32.67.61,1.27.85,1.79a14,14,0,0,1,.66,1.49,15.43,15.43,0,0,1-.86-1.5l-.93-1.72-.57-1.07a5.61,5.61,0,0,0-.67-1.13A2.25,2.25,0,0,0,139,176l-3.28,1.56-3.62,1.71-1,.45a2.34,2.34,0,0,0-.79.55,1.89,1.89,0,0,0-.45,1.78,6.74,6.74,0,0,0,.41.88l.45.89.89,1.76,1.67,3.34-.34-.1c3.36-2.06,6.26-3.79,8.34-5l2.45-1.44A6.32,6.32,0,0,1,144.67,181.8Z" style="fill:#263238"></path><polygon points="169.97 202.47 155.69 203.78 145.04 179.6 130.29 186.57 145.8 217.7 150.73 217.98 171.5 212.46 169.97 202.47" style="fill:#FF725E"></polygon><path d="M124.39,174c1.73-2.57,5.3-2,7-1.88a17.82,17.82,0,0,1,4.76.77,2.49,2.49,0,0,1,1.6,1.71,2.66,2.66,0,0,1-.87,2.33,8.83,8.83,0,0,1-5.73,2.47,26.05,26.05,0,0,1-6.34-.53Z" style="fill:#ffbf9d"></path><path d="M117.38,181.16a17.25,17.25,0,0,1,3,2.62,12.29,12.29,0,0,0,3.39,2.45,5.74,5.74,0,0,0,2.34.54,3.36,3.36,0,0,0,2.33-.8,3.18,3.18,0,0,0,1-2.24,5.36,5.36,0,0,0-.33-2.38,6.42,6.42,0,0,0-1.18-1.85,17.85,17.85,0,0,0-1.33-1.46,38.28,38.28,0,0,0-3-2.49,3.52,3.52,0,0,1,1,.48,15.27,15.27,0,0,1,2.33,1.74,17.83,17.83,0,0,1,1.4,1.45,6.76,6.76,0,0,1,1.3,2,5.84,5.84,0,0,1,.39,2.59,3.74,3.74,0,0,1-1.15,2.59,3.9,3.9,0,0,1-2.68.92,6.21,6.21,0,0,1-2.54-.61,12.07,12.07,0,0,1-3.45-2.63l-2-2.1C117.62,181.45,117.35,181.19,117.38,181.16Z" style="fill:#ff9a6c"></path><path d="M125,196.73a23,23,0,0,1-.36-4.78,22,22,0,0,1,.16-4.78,22.72,22.72,0,0,1,.36,4.77A22.15,22.15,0,0,1,125,196.73Z" style="fill:#ff9a6c"></path><path d="M115.36,230.86a4.65,4.65,0,0,1,.08-1.19,12.55,12.55,0,0,1,.93-3.11,14,14,0,0,1,2.67-4,13.64,13.64,0,0,1,4.91-3.27,18.75,18.75,0,0,1,5.78-1.19,34.76,34.76,0,0,1,4.8.11c1.36.12,2.45.27,3.2.39a5.18,5.18,0,0,1,1.16.23,5.05,5.05,0,0,1-1.18,0l-3.21-.22a25.28,25.28,0,0,0-10.36,1.19,13.43,13.43,0,0,0-4.75,3.13,14.31,14.31,0,0,0-2.69,3.83A21.32,21.32,0,0,0,115.36,230.86Z" style="fill:#ff9a6c"></path><path d="M130.29,186.57a1,1,0,0,1,.25-.14l.74-.38,2.89-1.42,10.8-5.18.16-.08.07.16,10.72,24.15-.25-.14L170,202.21l.24,0,0,.25c.24,1.6.51,3.3.77,5,.17,1.14.35,2.28.52,3.4l0,.23-.22.06-19.28,5h-5.33l-.07-.13-11-21.74-3.06-6.15c-.34-.69-.6-1.24-.8-1.63a5.38,5.38,0,0,1-.25-.58,5,5,0,0,1,.32.54c.21.39.49.93.86,1.6.75,1.44,1.82,3.5,3.18,6.09,2.72,5.29,6.57,12.76,11.16,21.66l-.21-.12,5.12,0h-.06l19.27-5.08-.19.29c-.17-1.12-.34-2.26-.52-3.4-.26-1.73-.52-3.43-.76-5l.28.22L155.71,204h-.18l-.07-.16c-4.12-9.43-7.76-17.77-10.58-24.2l.24.08-10.87,5-2.93,1.34-.76.33A1.12,1.12,0,0,1,130.29,186.57Z" style="fill:#263238"></path><path d="M182.93,194.33a34.52,34.52,0,0,1-4.75,3.67,34.2,34.2,0,0,1-5,3.24,34,34,0,0,1,4.74-3.67A35,35,0,0,1,182.93,194.33Z" style="fill:#263238"></path><path d="M184.84,203.82a23.07,23.07,0,0,1-4.73,1.54,23.73,23.73,0,0,1-4.86,1,23.53,23.53,0,0,1,4.73-1.53A24.77,24.77,0,0,1,184.84,203.82Z" style="fill:#263238"></path><path d="M186.89,214a36.09,36.09,0,0,1-5.9-1.64,36.46,36.46,0,0,1-5.74-2.13,35.19,35.19,0,0,1,5.9,1.64A37.45,37.45,0,0,1,186.89,214Z" style="fill:#263238"></path><path d="M155.69,203.78a70.61,70.61,0,0,1-4.81,7.14,71.25,71.25,0,0,1-5.23,6.84,70.61,70.61,0,0,1,4.81-7.14A71.25,71.25,0,0,1,155.69,203.78Z" style="fill:#263238"></path><path d="M213.54,457s13.55.46,20.51.5c11.37.07,93.28-15.89,93.28-15.89l-.71-10.22Z" style="opacity:0.30000000000000004"></path><path d="M373.33,339.81s13,36.63,13.33,37.61l-6,37.15-35.18,5.85-15.39-57.21Z" style="fill:#ffbf9d"></path><path d="M360.11,380.59a5.89,5.89,0,0,1-1.15.56l-3.2,1.33-10.61,4.28-10.59,4.29-3.19,1.34a6.08,6.08,0,0,1-1.19.48,6.38,6.38,0,0,1,1.1-.66c.73-.37,1.8-.89,3.13-1.5,2.67-1.21,6.4-2.77,10.55-4.44s7.92-3.11,10.66-4.13c1.38-.51,2.49-.91,3.27-1.18A6.3,6.3,0,0,1,360.11,380.59Z" style="fill:#ff9a6c"></path><path d="M279.36,412.84s-10.88-13.37-14.9-16L240.4,381.23a2.62,2.62,0,0,0-4,1.56,8.1,8.1,0,0,0,1.8,7.48c4.39,5.14,11.89,14.39,11.9,16.44s-36.38,4.09-43.05,4.77-10.14,3.54-9.6,6,3.78,3.3,11.47,3.64,19.52.39,19.52.39-30.1,4.27-32.22,5.87-2.61,5-.6,6.34,28.47-3,31.05-.62-23,4.27-27.16,5.76c-2.74,1-1.44,6.69,2.89,7s28.15-3.05,29.05-2c1.38,1.57-2.77,3.12-2.77,3.12s-16.65,4.14-19.21,5.79c-2.25,1.44-2.4,4.63,1.32,5.15s30.42-5.54,35.21-5.31,22.07-3.34,30.14-8l27.32-6.72-17.76-27.4Z" style="fill:#ffbf9d"></path><path d="M211.38,457.91a4.45,4.45,0,0,1-.57,0c-1.6-.22-2.65-1-2.9-2.08a3.12,3.12,0,0,1,1.56-3.12c2.54-1.62,19.05-5.74,19.22-5.78s2.71-1,3-2.22a.93.93,0,0,0-.25-.86c-.48-.55-7.92.21-15.11.95-5.3.54-10.77,1.1-13.23,1.1l-.69,0a4.57,4.57,0,0,1-3-1.42,5,5,0,0,1-1.29-2.68,2.51,2.51,0,0,1,1.41-2.95c1.53-.55,6-1.16,10.78-1.8,7.55-1,16.11-2.19,16.53-3.5a.37.37,0,0,0-.16-.42c-1.47-1.37-10.66-.55-18.78.17-6.12.55-11.39,1-12.26.45a3,3,0,0,1-1.29-2.46,4.86,4.86,0,0,1,1.88-3.92c2-1.5,28.58-5.35,31.9-5.82-2,0-12.3-.08-19.18-.39-8-.36-11-1.32-11.49-3.67a2.74,2.74,0,0,1,.56-2.22c1.39-1.93,4.78-3.34,9.06-3.77,1.54-.16,4.66-.38,8.6-.67,6.37-.47,15.1-1.11,22.09-1.82,8.19-.83,12.34-1.59,12.34-2.25,0-1.85-6.42-10-11.9-16.42a8.21,8.21,0,0,1-1.81-7.5,2.65,2.65,0,0,1,4-1.58l24.07,15.63c3.91,2.54,14.47,15.47,14.88,16l6.37-2.43h0l17.78,27.43h0l-27.32,6.73c-4.85,2.8-12.3,4.87-16.31,5.85a68.7,68.7,0,0,1-13.35,2.18h-.78c-2.63,0-10,1.36-17.23,2.68S214,457.91,211.38,457.91ZM230,443.58c.85,0,1.38.06,1.51.21a1,1,0,0,1,.26.9c-.31,1.22-2.93,2.21-3,2.25S212,451.1,209.5,452.73a3,3,0,0,0-1.54,3.06c.24,1.08,1.28,1.82,2.85,2,1.9.26,9.92-1.2,17.68-2.63,7.18-1.32,14.6-2.68,17.24-2.68h.78a68.63,68.63,0,0,0,13.34-2.18c4-1,11.45-3,16.3-5.85h0l27.29-6.72-17.73-27.35-6.36,2.43h0c-.11-.14-10.92-13.4-14.89-16l-24.07-15.63a2.59,2.59,0,0,0-3.94,1.55,8.13,8.13,0,0,0,1.8,7.45c1.32,1.56,4.72,5.57,7.6,9.38s4.3,6.17,4.31,7.08c0,.7-4.05,1.46-12.38,2.3-7,.71-15.72,1.35-22.1,1.82-3.94.29-7,.51-8.6.67-4.26.43-7.63,1.83-9,3.75a2.69,2.69,0,0,0-.55,2.18c.52,2.32,3.51,3.27,11.44,3.63,7.6.34,19.4.39,19.52.39v.05c-.3,0-30.12,4.28-32.21,5.86a4.79,4.79,0,0,0-1.86,3.88,2.9,2.9,0,0,0,1.26,2.42c.86.56,6.13.09,12.23-.46,8.13-.72,17.34-1.54,18.83-.16a.45.45,0,0,1,.17.47c-.43,1.35-9,2.51-16.57,3.54-4.76.64-9.25,1.25-10.78,1.79a2.49,2.49,0,0,0-1.38,2.9,4.71,4.71,0,0,0,4.28,4.06l.68,0c2.46,0,7.92-.56,13.22-1.1C222,444.14,227.42,443.58,230,443.58Z" style="fill:#ff9a6c"></path><path d="M278.21,413.37l59.5-23.47,46.76-19s7.78,18.4,7.76,28.27c0,10.48-3.68,22.3-20.69,27.52-8.78,2.69-92.82,17.2-92.82,17.2Z" style="fill:#ffbf9d"></path><path d="M69.81,342.8C68.51,325,101,239.72,101,239.72l30.16,2.54-16.49,70.42,6.2-7.6,31.94,37.59s-26.86,28.28-51,30.19C85.69,374.13,71.33,363.57,69.81,342.8Z" style="fill:#ffbf9d"></path><path d="M115.26,310.3a10.24,10.24,0,0,1-.07,1.73c-.06,1.12-.24,2.72-.54,4.7s-.76,4.31-1.4,6.87a79.68,79.68,0,0,1-2.62,8.18,77.77,77.77,0,0,1-3.55,7.82c-1.24,2.33-2.46,4.38-3.57,6s-2.05,3-2.75,3.85a11.4,11.4,0,0,1-1.11,1.32,11.43,11.43,0,0,1,.95-1.45c.64-.9,1.54-2.24,2.6-3.92s2.24-3.73,3.45-6.06,2.4-5,3.5-7.79,1.94-5.58,2.63-8.11,1.17-4.86,1.51-6.81.58-3.55.7-4.66A10.62,10.62,0,0,1,115.26,310.3Z" style="fill:#ff9a6c"></path></g></svg>