<svg xmlns="http://www.w3.org/2000/svg" viewBox="0 0 750 500"><g id="background-complete"><path d="M160.07,114.44c-1.71-4.57-3.46-9.2-6.34-13.14s-7.09-7.17-11.93-7.76-10.21,2-11.79,6.63c-.69-10.4-2.17-21.08-7.38-30.11S107.7,53.92,97.29,54.56c-9.81.6-18.21,7.89-22.88,16.55S68.13,89.69,66.6,99.4c-3.72-4.57-11.58-3.13-15.46,1.3s-4.87,10.62-5.69,16.45H162.56Z" style="fill:#f5f5f5"></path><rect x="101.71" y="256.92" width="60.78" height="227.25" style="fill:#e0e0e0"></rect><path d="M54.49,257.39s0-.36,0-1.1,0-1.83,0-3.27c0-2.91,0-7.2-.05-12.78v-.1h.09L266.91,240h.28v17.67h-.26L116,257.54l-45.11-.08-12.18,0-3.16,0-1.06,0,1.1,0,3.19,0,12.24,0,45.17-.08,150.74-.11-.26.26V240.24l.26.26h0l-212.42-.16.1-.1c0,5.55,0,9.83-.05,12.73,0,1.44,0,2.54,0,3.29S54.49,257.39,54.49,257.39Z" style="fill:#e0e0e0"></path><path d="M266.93,257.39a4.08,4.08,0,0,1-.32-.28c-.22-.19-.52-.47-.91-.84L262.17,253l-13.36-12.62H249c-4.3,4.87-9.47,10.75-15.31,17.38l-.13.15-.15-.15c-4.85-4.84-10.18-10.22-16-15.85l-1.11-1-.29-.25-.14-.11h.06c-.14.11-.36.3-.54.47-.76.69-1.5,1.42-2.25,2.15l-4.53,4.52-9.36,9.53-.18.18-.17-.18L183,240.41h.36l-16.69,17-.19.19-.18-.18-7.4-7.4-9.59-9.59h.38l-15.58,17-.17.2-.19-.19-17.26-17h.34L99.55,257.66l-.15.15-.15-.15-17-17.3h.26L65.81,257.48l-.12.11-.08-.13-8.28-12.77c-.94-1.45-1.65-2.56-2.13-3.32s-.71-1.13-.71-1.13.27.36.77,1.1,1.22,1.84,2.18,3.27l8.38,12.71-.2,0,16.67-17.19.13-.13.13.13,17,17.24h-.31l17.25-17.28.17-.17.17.17,17.27,17h-.36l15.57-17,.18-.2.19.19,9.59,9.59,7.39,7.4h-.36l16.7-17,.19-.19.18.19,15.85,16.75h-.35l9.38-9.52,4.54-4.52c.76-.73,1.5-1.46,2.27-2.16a5.3,5.3,0,0,1,.64-.53.33.33,0,0,1,.4,0l.16.13.3.26,1.13,1.05c5.85,5.65,11.16,11,16,15.9h-.27l15.37-17.32.1-.11.11.1,13.26,12.72,3.48,3.37.89.87Z" style="fill:#e0e0e0"></path><path d="M695,483.18l-1.09,0-3.27,0-12.79.06h-.11v-.11c0-28.4-.09-91.21-.16-164.07h0v-.26h17.68v.26c0,46.13-.09,87.18-.11,116.71,0,14.72-.06,26.58-.08,34.76,0,4.07,0,7.22,0,9.37,0,1.06,0,1.87,0,2.43s0,.81,0,.81,0-.29,0-.85,0-1.38,0-2.45c0-2.17,0-5.34,0-9.44,0-8.2,0-20.07-.08-34.82,0-29.48-.07-70.46-.11-116.52l.26.26H677.85l.26-.26h0C678,392,678,454.78,678,483.18l-.1-.11,12.72.06,3.3,0Z" style="fill:#e0e0e0"></path><path d="M695,319.1l-.28.25-.84.71-3.31,2.73-12.64,10.34v-.23l17.38,11.81.21.15-.21.16c-4.84,3.74-10.2,7.85-15.85,12.39l-1,.87-.25.22-.1.1s0,0,0-.07,0-.09,0-.07.32.29.49.44c.7.59,1.44,1.16,2.17,1.74l4.52,3.49,9.49,7.2.26.2-.26.19L678,384v-.41l17,12.9.27.2-.27.21-7.75,6L678,410v-.42l17,12,.27.2L695,422l-17,13.32V435l17.26,13.35.22.18-.23.17L678,461.76v-.3l17.12,13,.16.12-.18.1L682.3,481c-1.45.72-2.55,1.27-3.32,1.64l-.84.41-.29.13a2.24,2.24,0,0,1,.27-.16l.83-.44,3.29-1.7,12.7-6.48,0,.22-17.19-12.86-.19-.15.19-.14L695,448.32v.35L677.7,435.35l-.24-.19.24-.19,17-13.35V422l-17-12-.29-.21.28-.21,9.23-7.13,7.75-6v.41l-17-12.9-.27-.21.28-.2,16.74-12.24v.39L685,364.5,680.44,361c-.73-.58-1.46-1.15-2.17-1.76a5.75,5.75,0,0,1-.53-.48.46.46,0,0,1-.11-.21.32.32,0,0,1,.08-.21,2.09,2.09,0,0,1,.15-.15l.26-.23,1.06-.88c5.67-4.54,11-8.62,15.9-12.35v.3l-17.31-11.89-.16-.11.15-.11,12.71-10.23,3.36-2.68.87-.68C694.89,319.17,695,319.1,695,319.1Z" style="fill:#e0e0e0"></path><path d="M65,483.18l-1.34,0-4,0L44,483.29h-.11v-.11c0-34.71-.09-111.52-.15-200.61h0v-.26H65.22v.26c0,56.4-.08,106.58-.11,142.68,0,18-.06,32.5-.08,42.51,0,5,0,8.84,0,11.47,0,1.29,0,2.28,0,3s0,1,0,1,0-.36,0-1,0-1.69,0-3c0-2.64,0-6.52,0-11.53,0-10,0-24.53-.08-42.57,0-36.05-.07-86.17-.11-142.49l.26.26H44l.26-.26h0c-.07,89.09-.13,165.9-.15,200.61l-.11-.11,15.57.06,4,0Z" style="fill:#e0e0e0"></path><path d="M65,282.56s-.11.11-.34.3l-1,.86c-.92.77-2.28,1.88-4,3.34L44.07,299.68v-.22L65.3,313.91l.21.14-.2.16c-5.92,4.58-12.48,9.6-19.39,15.15l-1.27,1.06-.31.28-.12.12s0,0,0-.05,0-.08,0-.06c.17.18.39.37.6.55.86.72,1.75,1.42,2.65,2.13L53,337.66l11.61,8.81.26.19-.26.19-20.46,15v-.41L64.91,377.2l.27.21-.27.21-9.47,7.32q-5.71,4.4-11.3,8.72v-.42L64.9,408l.28.19-.27.21-20.78,16.3v-.38l21.1,16.33.23.17-.23.17L44.1,457v-.3L65,472.48l.17.12-.19.1-15.59,7.81-4,2-1,.5-.35.16.33-.19,1-.54,4-2.07,15.53-7.92,0,.23L43.88,457l-.2-.15.19-.15L65,440.6v.34L43.84,424.65l-.24-.19.24-.19L64.6,408v.41q-10.11-7.14-20.77-14.7l-.29-.2.28-.22,11.29-8.72,9.47-7.32v.42L43.83,361.84l-.27-.21.28-.2,20.47-15v.39L52.71,338l-5.52-4.29c-.9-.71-1.79-1.41-2.66-2.15-.21-.18-.42-.36-.64-.58a.55.55,0,0,1-.12-.23.37.37,0,0,1,.1-.23l.17-.17.32-.29L45.65,329c6.93-5.54,13.49-10.54,19.43-15.11v.31L43.91,299.69l-.16-.11.15-.12,15.54-12.52,4.1-3.28c.46-.36.81-.63,1.05-.83Z" style="fill:#e0e0e0"></path><path d="M611.27,221.73l.65-.73-16.58-14.77h-.19c-34.65,0-70.55.05-105.26.11s-70.61.11-105.26.11v1c34.65,0,70.55-.06,105.26-.12s70.48-.11,105.08-.11Z" style="fill:#e0e0e0"></path><path d="M607.09,226.69a.48.48,0,0,0,.36-.17.49.49,0,0,0,0-.69l-21.9-19.25a.48.48,0,0,0-.66,0L565.3,224.83l-18.88-18.24a.49.49,0,0,0-.67,0L525,224.84,506,206.59a.48.48,0,0,0-.66,0l-20.56,18.27-19.56-18.26a.49.49,0,0,0-.66,0l-20.89,18.26-18.73-18.25a.49.49,0,0,0-.67,0l-19.89,18.26L385,206.59a.48.48,0,0,0-.65,0l-21.23,18.56a.49.49,0,1,0,.65.74l20.89-18.27L404,225.87a.49.49,0,0,0,.67,0l19.88-18.25,18.72,18.24a.49.49,0,0,0,.67,0l20.89-18.27,19.57,18.26a.49.49,0,0,0,.66,0l20.55-18.27,19.06,18.25a.48.48,0,0,0,.66,0l20.72-18.27L565,225.86a.48.48,0,0,0,.67,0l19.57-18.26,21.56,19A.5.5,0,0,0,607.09,226.69Z" style="fill:#e0e0e0"></path><rect x="697.32" y="209.73" width="35.59" height="41.89" transform="translate(1430.22 461.36) rotate(180)" style="fill:#ebebeb"></rect><path d="M721.43,251.63c.14,0,.25-9.38.25-20.95s-.11-21-.25-21-.25,9.38-.26,21S721.28,251.63,721.43,251.63Z" style="fill:#e0e0e0"></path><path d="M707.73,251.63c.15,0,.26-9.38.26-20.95s-.11-21-.26-21-.25,9.38-.25,21S707.59,251.63,707.73,251.63Z" style="fill:#e0e0e0"></path><path d="M363.16,220.78h372.9v5.73H363.16Zm372.41.49H363.65V226H735.57Z" style="fill:#e0e0e0"></path><path d="M611.18,226.51a.21.21,0,0,0,.13,0l19.75-13.32a.25.25,0,0,0,.07-.34.24.24,0,0,0-.34-.07L611,226.06a.25.25,0,0,0-.07.34A.26.26,0,0,0,611.18,226.51Z" style="fill:#e0e0e0"></path><path d="M611.15,226.41a.25.25,0,0,1-.22-.27l4.44-34.59a.26.26,0,0,1,0-.15l0-.07,1-7.67h0l1.81-14.11v0l2-15.52v0l.86-6.76a.26.26,0,0,1,.25-.22H623a.25.25,0,0,1,.24.22l1.94,15.14h0l.9,7.09v0l7.24,56.66a.24.24,0,0,1-.12.24.23.23,0,0,1-.26,0l-19.74-13.63-1.73,13.46a.24.24,0,0,1-.24.21Zm2.82-13.7,18.74,12.95-1.6-12.56Zm-.75-.5,17.19.39-15.73-11.82Zm2.12-11.55L631,212.44l-1.51-11.78Zm.48-8.76-1.06,8.27h14.11Zm.63-.18,13,8.22-1-8.22Zm.37-7.61-.91,7.12h11.83Zm.63-.18L628.29,191l-.9-7.07Zm.31-7.12-.85,6.63h9.91Zm.56-.19,9,6.56-.84-6.56Zm.31-6.58-.78,6.09H626Zm.48-.24,7.24,6-.78-6.06Zm.42-6.81-.81,6.33,6.52-.06Zm.38-.32,5.54,6.09-.78-6.12Zm.67-7.85-.94,7.37,4.84,0Zm.27-.54,3.62,6.81-.86-6.74Zm.67-6.79-.81,6.29,2.84.08-.82-6.37Z" style="fill:#e0e0e0"></path><path d="M619.32,162.73a.26.26,0,0,0,.22-.13l4.45-8.37a.26.26,0,0,0-.11-.34.25.25,0,0,0-.33.11l-4.44,8.37a.24.24,0,0,0,.1.33A.2.2,0,0,0,619.32,162.73Z" style="fill:#e0e0e0"></path><path d="M618.41,169.84a.27.27,0,0,0,.19-.08l6.43-7.07a.25.25,0,0,0,0-.35.24.24,0,0,0-.34,0l-6.44,7.07a.24.24,0,0,0,0,.34A.23.23,0,0,0,618.41,169.84Z" style="fill:#e0e0e0"></path><path d="M617.57,176.71a.22.22,0,0,0,.15-.06l8.2-6.81a.24.24,0,0,0,0-.34.23.23,0,0,0-.34,0l-8.2,6.8a.24.24,0,0,0,0,.35A.25.25,0,0,0,617.57,176.71Z" style="fill:#e0e0e0"></path><path d="M616.63,184a.24.24,0,0,0,.14-.05l10-7.32a.24.24,0,1,0-.29-.39l-10,7.31a.25.25,0,0,0-.06.35A.26.26,0,0,0,616.63,184Z" style="fill:#e0e0e0"></path><path d="M615.64,191.81a.33.33,0,0,0,.14,0L627.71,184a.25.25,0,0,0,.07-.34.25.25,0,0,0-.34-.08l-11.93,7.79a.24.24,0,0,0-.07.34A.23.23,0,0,0,615.64,191.81Z" style="fill:#e0e0e0"></path><path d="M614.49,200.75a.22.22,0,0,0,.13,0l14.11-8.94a.24.24,0,1,0-.26-.41l-14.11,8.94a.24.24,0,0,0-.08.34A.26.26,0,0,0,614.49,200.75Z" style="fill:#e0e0e0"></path><path d="M613.16,212.7a.24.24,0,0,0,.14,0l16.44-12a.24.24,0,1,0-.28-.39L613,212.25a.24.24,0,0,0-.06.34A.26.26,0,0,0,613.16,212.7Z" style="fill:#e0e0e0"></path><path d="M622.1,243.78a.25.25,0,0,0,.25-.25V146.11a.24.24,0,0,0-.25-.24.24.24,0,0,0-.24.24v97.42A.25.25,0,0,0,622.1,243.78Z" style="fill:#e0e0e0"></path><rect x="625.96" y="226.26" width="10.04" height="34.12" transform="translate(1261.95 486.64) rotate(180)" style="fill:#e0e0e0"></rect><rect x="602.53" y="242.87" width="27.07" height="17.94" transform="translate(1232.13 503.68) rotate(180)" style="fill:#e0e0e0"></rect><rect x="635.42" y="246.65" width="8.5" height="14.16" transform="translate(1279.33 507.46) rotate(180)" style="fill:#e0e0e0"></rect><rect x="599.97" y="266.19" width="43.47" height="6.37" transform="translate(1243.4 538.75) rotate(180)" style="fill:#e0e0e0"></rect><rect x="604.65" y="260.02" width="35.01" height="3.53" transform="translate(1244.32 523.57) rotate(180)" style="fill:#e0e0e0"></rect><rect x="606.45" y="262.94" width="31.36" height="3.25" transform="translate(1244.25 529.13) rotate(180)" style="fill:#e0e0e0"></rect><rect x="604.61" y="355.55" width="34.59" height="1.96" style="fill:#e0e0e0"></rect><rect x="604.79" y="432.18" width="34.41" height="1.96" style="fill:#e0e0e0"></rect><polygon points="730.34 214.01 730.6 213.59 622 146.59 621.89 146.62 444.71 206.65 444.87 207.11 621.94 147.13 730.34 214.01" style="fill:#e0e0e0"></polygon><polygon points="634.45 220.95 634.69 220.95 634.69 213.92 735.69 213.92 735.69 220.95 735.94 220.95 735.94 213.68 634.45 213.68 634.45 220.95" style="fill:#e0e0e0"></polygon><rect x="730.34" y="213.8" width="0.25" height="6.96" style="fill:#e0e0e0"></rect><rect x="725.77" y="213.8" width="0.25" height="6.96" style="fill:#e0e0e0"></rect><rect x="721.2" y="213.8" width="0.25" height="6.96" style="fill:#e0e0e0"></rect><rect x="716.63" y="213.8" width="0.25" height="6.96" style="fill:#e0e0e0"></rect><rect x="712.06" y="213.8" width="0.25" height="6.96" style="fill:#e0e0e0"></rect><rect x="707.49" y="213.8" width="0.25" height="6.96" style="fill:#e0e0e0"></rect><rect x="702.91" y="213.8" width="0.25" height="6.96" style="fill:#e0e0e0"></rect><rect x="698.34" y="213.8" width="0.25" height="6.96" style="fill:#e0e0e0"></rect><rect x="693.77" y="213.8" width="0.25" height="6.96" style="fill:#e0e0e0"></rect><rect x="689.2" y="213.8" width="0.25" height="6.96" style="fill:#e0e0e0"></rect><rect x="684.63" y="213.8" width="0.25" height="6.96" style="fill:#e0e0e0"></rect><rect x="680.06" y="213.8" width="0.25" height="6.96" style="fill:#e0e0e0"></rect><rect x="675.49" y="213.8" width="0.25" height="6.96" style="fill:#e0e0e0"></rect><rect x="670.91" y="213.8" width="0.25" height="6.96" style="fill:#e0e0e0"></rect><rect x="666.34" y="213.8" width="0.25" height="6.96" style="fill:#e0e0e0"></rect><rect x="661.77" y="213.8" width="0.25" height="6.96" style="fill:#e0e0e0"></rect><rect x="657.2" y="213.8" width="0.25" height="6.96" style="fill:#e0e0e0"></rect><rect x="652.63" y="213.8" width="0.25" height="6.96" style="fill:#e0e0e0"></rect><rect x="648.06" y="213.8" width="0.25" height="6.96" style="fill:#e0e0e0"></rect><rect x="643.49" y="213.8" width="0.25" height="6.96" style="fill:#e0e0e0"></rect><rect x="638.91" y="213.8" width="0.25" height="6.96" style="fill:#e0e0e0"></rect><rect x="659.01" y="221.02" width="9.25" height="5.24" transform="translate(1327.28 447.28) rotate(180)" style="fill:#e0e0e0"></rect><rect x="639.29" y="221.02" width="9.25" height="5.24" transform="translate(1287.83 447.28) rotate(180)" style="fill:#e0e0e0"></rect><rect x="587.15" y="221.02" width="9.25" height="5.24" transform="translate(1183.56 447.28) rotate(180)" style="fill:#e0e0e0"></rect><rect x="560.6" y="221.02" width="9.25" height="5.24" transform="translate(1130.46 447.28) rotate(180)" style="fill:#e0e0e0"></rect><rect x="534.05" y="221.02" width="9.25" height="5.24" transform="translate(1077.35 447.28) rotate(180)" style="fill:#e0e0e0"></rect><rect x="507.49" y="221.02" width="9.25" height="5.24" transform="translate(1024.24 447.28) rotate(180)" style="fill:#e0e0e0"></rect><rect x="480.94" y="221.02" width="9.25" height="5.24" transform="translate(971.14 447.28) rotate(180)" style="fill:#e0e0e0"></rect><rect x="454.39" y="221.02" width="9.25" height="5.24" transform="translate(918.03 447.28) rotate(180)" style="fill:#e0e0e0"></rect><rect x="427.83" y="221.02" width="9.25" height="5.24" transform="translate(864.92 447.28) rotate(180)" style="fill:#e0e0e0"></rect><rect x="401.28" y="221.02" width="9.25" height="5.24" transform="translate(811.81 447.28) rotate(180)" style="fill:#e0e0e0"></rect><rect x="363.65" y="221.02" width="20.33" height="5.24" transform="translate(747.63 447.28) rotate(180)" style="fill:#e0e0e0"></rect><rect x="679.27" y="221.02" width="9.25" height="5.24" transform="translate(1367.79 447.28) rotate(180)" style="fill:#e0e0e0"></rect><rect x="699.53" y="221.02" width="9.25" height="5.24" transform="translate(1408.31 447.28) rotate(180)" style="fill:#e0e0e0"></rect><rect x="719.78" y="221.02" width="9.25" height="5.24" transform="translate(1448.82 447.28) rotate(180)" style="fill:#e0e0e0"></rect><rect x="668.78" y="123.63" width="0.49" height="113.72" transform="matrix(0.59, -0.81, 0.81, 0.59, 130.77, 616.9)" style="fill:#e0e0e0"></rect><rect x="620.35" y="145.3" width="3.25" height="3.25" transform="translate(1243.95 293.85) rotate(180)" style="fill:#e0e0e0"></rect><path d="M607.84,226.17a5,5,0,0,0-4.15,5.28v11.42h22.55l-.28-16.6Z" style="fill:#fafafa"></path><path d="M607.84,226.17a1.5,1.5,0,0,0,.33,0l1,0,3.67.08,13.15.17-.22-.22c.07,4.85.16,10.52.25,16.61l.25-.26H623l-19.26,0,.22.22c0-2.81,0-5.39,0-7.68,0-1.14,0-2.21,0-3.2a7.07,7.07,0,0,1,.32-2.64,4.82,4.82,0,0,1,2.42-2.7,11.4,11.4,0,0,1,1.25-.48.88.88,0,0,0-.34,0,4.65,4.65,0,0,0-1,.31,4.85,4.85,0,0,0-2.61,2.75,7.31,7.31,0,0,0-.39,2.72c0,1,0,2.06,0,3.2,0,2.29,0,4.87,0,7.68v.22h.22l19.26,0h3.55v-.26c-.12-6.09-.23-11.76-.32-16.6v-.22H626l-13.16,0-3.67,0-1,0Z" style="fill:#e0e0e0"></path><path d="M611.05,230.65a32,32,0,0,0,4.29,3.87A33,33,0,0,0,620,238a32.76,32.76,0,0,0-4.29-3.87A34,34,0,0,0,611.05,230.65Z" style="fill:#e0e0e0"></path><path d="M610.39,234a17.47,17.47,0,0,0,3,2.91,17.88,17.88,0,0,0,3.37,2.53,17.72,17.72,0,0,0-3-2.92A17.38,17.38,0,0,0,610.39,234Z" style="fill:#e0e0e0"></path><path d="M635.7,260.81c.15,0,.26-7.64.26-17.05s-.11-17-.26-17-.25,7.63-.25,17S635.56,260.81,635.7,260.81Z" style="fill:#e0e0e0"></path><path d="M604.42,260.81c0,.14,8,.25,17.93.25s17.93-.11,17.93-.25-8-.26-17.93-.26S604.42,260.67,604.42,260.81Z" style="fill:#ebebeb"></path><path d="M604.42,263.55c0,.14,7.89.26,17.62.26s17.62-.12,17.62-.26-7.88-.25-17.62-.25S604.42,263.41,604.42,263.55Z" style="fill:#ebebeb"></path><path d="M604.42,266.19c0,.14,7.89.26,17.62.26s17.62-.12,17.62-.26-7.88-.25-17.62-.25S604.42,266.05,604.42,266.19Z" style="fill:#ebebeb"></path><rect x="441.33" y="204.56" width="12.5" height="2.38" transform="translate(895.16 411.51) rotate(180)" style="fill:#e0e0e0"></rect><path d="M604.39,292.06a.36.36,0,0,0-.07.51l.49.65c0,7.73,0,15.65,0,23.72l-.32.44a.38.38,0,0,0,.07.52.47.47,0,0,0,.22.07h0a.36.36,0,0,0,0,.41l0,0q0,11.34,0,23l-.35.48a.38.38,0,0,0,.07.52.38.38,0,0,0,.22.07l.07,0v1.14a.37.37,0,0,0-.55.48l.55.75c0,7.44,0,15,0,22.52l-.39.54a.37.37,0,0,0,.07.51.38.38,0,0,0,.22.07l.1,0v2.19h0a.37.37,0,0,0-.08.51l.09.12c0,7.31,0,14.67,0,22l-.43.59a.37.37,0,0,0,.07.51.4.4,0,0,0,.22.08.33.33,0,0,0,.14,0V397l-.05,0a.37.37,0,0,0-.08.51l.13.18q0,10.77,0,21.51l-.47.64a.37.37,0,0,0,.07.51.4.4,0,0,0,.22.08.42.42,0,0,0,.19-.06v3l-.09,0a.37.37,0,0,0-.08.51l.17.24q0,10.47,0,21l-.52.7a.38.38,0,0,0,.07.52.38.38,0,0,0,.22.07.39.39,0,0,0,.23-.09v3.39a.38.38,0,0,0-.13.06.37.37,0,0,0-.08.51l.22.3q0,10.26,0,20.48l-.56.76a.37.37,0,0,0,.07.51.38.38,0,0,0,.22.07.4.4,0,0,0,.27-.12c0,1.27,0,2.54,0,3.82a.43.43,0,0,0-.18.06.38.38,0,0,0-.08.52l.26.35q0,3.56,0,7.09h-.74c0-20.59-.06-41.58-.1-62.31-.09-53.53-.18-108.87-.18-154.19a.37.37,0,0,1,.74,0V292A.35.35,0,0,0,604.39,292.06Z" style="fill:#e0e0e0"></path><path d="M632.58,304l6-8.11a.35.35,0,0,1,.25-.14v1.05L633,304.57Z" style="fill:#e0e0e0"></path><polygon points="613.75 329.4 622.76 317.21 623.22 317.83 614.2 330.02 613.75 329.4" style="fill:#e0e0e0"></polygon><polygon points="623.22 316.6 632.12 304.57 632.57 305.19 623.68 317.21 623.22 316.6" style="fill:#e0e0e0"></polygon><path d="M613.74,330.64l-8.65,11.7a.34.34,0,0,1-.23.13l-.07,0a.38.38,0,0,1-.22-.07.38.38,0,0,1-.07-.52l.35-.48,8.44-11.4Z" style="fill:#e0e0e0"></path><path d="M624,292.22l-.46-.63,15-20.27a.35.35,0,0,1,.25-.14v1.05Z" style="fill:#e0e0e0"></path><polygon points="614.55 305.02 614.1 304.41 623.12 292.21 623.57 292.84 614.55 305.02" style="fill:#e0e0e0"></polygon><path d="M604.89,317.87a.45.45,0,0,0-.09.1h0a.47.47,0,0,1-.22-.07.38.38,0,0,1-.07-.52l.32-.44L613.64,305l.46.61-9,12.16A.44.44,0,0,0,604.89,317.87Z" style="fill:#e0e0e0"></path><polygon points="623.29 343.74 614.06 356.21 613.6 355.59 622.83 343.11 623.29 343.74" style="fill:#e0e0e0"></polygon><polygon points="623.29 342.49 632.43 330.13 632.89 330.75 623.75 343.12 623.29 342.49" style="fill:#e0e0e0"></polygon><path d="M613.6,356.83l-8.51,11.5a.34.34,0,0,1-.2.13l-.1,0a.38.38,0,0,1-.22-.07.37.37,0,0,1-.07-.51l.39-.54,8.25-11.15Z" style="fill:#e0e0e0"></path><path d="M632.89,329.52l5.68-7.68a.33.33,0,0,1,.25-.15v1.05l-5.47,7.39Z" style="fill:#e0e0e0"></path><polygon points="623.14 369.93 613.91 382.4 613.46 381.78 622.69 369.3 623.14 369.93" style="fill:#e0e0e0"></polygon><polygon points="632.83 356.83 623.6 369.31 623.14 368.68 632.37 356.21 632.83 356.83" style="fill:#e0e0e0"></polygon><path d="M613.45,383l-8.36,11.31a.36.36,0,0,1-.16.11.33.33,0,0,1-.14,0,.4.4,0,0,1-.22-.08.37.37,0,0,1-.07-.51l.43-.59L613,382.4Z" style="fill:#e0e0e0"></path><path d="M632.83,355.59l5.74-7.76a.41.41,0,0,1,.25-.15v1.06l-5.53,7.47Z" style="fill:#e0e0e0"></path><polygon points="632.68 383.02 623.45 395.5 623 394.87 632.23 382.4 632.68 383.02" style="fill:#e0e0e0"></polygon><polygon points="622.99 396.12 613.76 408.59 613.31 407.97 622.54 395.49 622.99 396.12" style="fill:#e0e0e0"></polygon><path d="M632.69,381.78l5.88-8a.35.35,0,0,1,.25-.14v1.05l-5.68,7.67Z" style="fill:#e0e0e0"></path><path d="M613.31,409.21l-8.22,11.11a.31.31,0,0,1-.11.09.42.42,0,0,1-.19.06.4.4,0,0,1-.22-.08.37.37,0,0,1-.07-.51l.47-.64,7.88-10.65Z" style="fill:#e0e0e0"></path><path d="M632.54,408l6-8.16a.35.35,0,0,1,.25-.14v1.05L633,408.59Z" style="fill:#e0e0e0"></path><polygon points="622.85 422.31 613.62 434.78 613.16 434.16 622.39 421.68 622.85 422.31" style="fill:#e0e0e0"></polygon><path d="M613.16,435.4l-8.07,10.91s-.05,0-.07.06a.39.39,0,0,1-.23.09.38.38,0,0,1-.22-.07.38.38,0,0,1-.07-.52l.52-.7,7.69-10.39Z" style="fill:#e0e0e0"></path><polygon points="632.53 409.21 623.31 421.69 622.85 421.06 632.08 408.59 632.53 409.21" style="fill:#e0e0e0"></polygon><path d="M613,461.59l-7.92,10.71,0,0a.4.4,0,0,1-.27.12.38.38,0,0,1-.22-.07.37.37,0,0,1-.07-.51l.56-.76,7.5-10.14Z" style="fill:#e0e0e0"></path><polygon points="632.39 435.4 623.16 447.88 622.71 447.25 631.94 434.78 632.39 435.4" style="fill:#e0e0e0"></polygon><polygon points="622.7 448.5 613.47 460.97 613.02 460.35 622.25 447.87 622.7 448.5" style="fill:#e0e0e0"></polygon><path d="M632.39,434.16l6.18-8.35a.33.33,0,0,1,.25-.15v1l-6,8.07Z" style="fill:#e0e0e0"></path><polygon points="622.55 474.69 615.54 484.17 614.63 484.17 622.1 474.06 622.55 474.69" style="fill:#e0e0e0"></polygon><path d="M632.25,460.35l6.32-8.55a.41.41,0,0,1,.25-.15v1.05L632.7,461Z" style="fill:#e0e0e0"></path><polygon points="632.24 461.59 623.01 474.06 622.56 473.44 631.79 460.97 632.24 461.59" style="fill:#e0e0e0"></polygon><path d="M638.82,470.61l.07.1a.36.36,0,0,0,.3.15.33.33,0,0,0,.21-.07.36.36,0,0,0,.08-.51l-.66-.92V444.22l.07.1a.36.36,0,0,0,.3.15.33.33,0,0,0,.21-.07.37.37,0,0,0,.08-.52l-.66-.91V417.83l.07.1a.36.36,0,0,0,.3.15.33.33,0,0,0,.21-.07.37.37,0,0,0,.08-.52l-.66-.91V391.44l.07.1a.36.36,0,0,0,.3.15.4.4,0,0,0,.21-.07.37.37,0,0,0,.08-.52l-.66-.91V365.05l.07.1a.38.38,0,0,0,.3.15.4.4,0,0,0,.21-.07.37.37,0,0,0,.08-.52l-.66-.91V338.66l.07.1a.36.36,0,0,0,.3.15.34.34,0,0,0,.21-.08.36.36,0,0,0,.08-.51l-.66-.89V313.76l.07.1a.36.36,0,0,0,.3.15.33.33,0,0,0,.21-.07.36.36,0,0,0,.08-.51l-.66-.92V268.73a.37.37,0,1,1,.73,0V484.17h-.73Z" style="fill:#e0e0e0"></path><path d="M623.22,316.6l.46.61,9.21,12.31.46.61,5.47,7.3.66.89a.36.36,0,0,1-.08.51.34.34,0,0,1-.21.08.36.36,0,0,1-.3-.15l-.07-.1-5.93-7.91-.46-.62-9.21-12.3-.46-.62-8.66-11.57-.46-.61-8.83-11.81-.49-.65a.36.36,0,0,1,.07-.51.35.35,0,0,1,.41,0,.31.31,0,0,1,.11.09l9.19,12.28.46.61Z" style="fill:#e0e0e0"></path><path d="M632.58,304l.45.62,5.79,7.94.66.92a.36.36,0,0,1-.08.51.33.33,0,0,1-.21.07.36.36,0,0,1-.3-.15l-.07-.1-6.25-8.57-.45-.62-8.55-11.73-.45-.63-18.31-25.12a.37.37,0,0,1,.6-.43l18.16,24.93.46.63Z" style="fill:#e0e0e0"></path><path d="M632.37,356.21l-9.08-12.47-.46-.63-9.09-12.47-.45-.62-8.46-11.62,0,0a.36.36,0,0,1,0-.41.45.45,0,0,1,.09-.1.44.44,0,0,1,.21-.07.39.39,0,0,1,.31.15l8.34,11.45.45.62,9.09,12.47.45.63,9.09,12.47.46.62,5.53,7.59.66.91a.37.37,0,0,1-.08.52.4.4,0,0,1-.21.07.38.38,0,0,1-.3-.15l-.07-.1-6-8.22Z" style="fill:#e0e0e0"></path><path d="M632.23,382.4l-9.09-12.47-.45-.63-9.09-12.47-.46-.62-8.28-11.37-.55-.75a.37.37,0,0,1,.55-.48l0,0,8.69,11.94.46.62,9.08,12.47.46.63,9.09,12.47.45.62,5.68,7.79.66.91a.37.37,0,0,1-.08.52.4.4,0,0,1-.21.07.36.36,0,0,1-.3-.15l-.07-.1L632.68,383Z" style="fill:#e0e0e0"></path><path d="M632.08,408.59,623,396.11l-.45-.62L613.45,383l-.45-.62-8.1-11.12-.09-.12a.37.37,0,0,1,.08-.51h0a.37.37,0,0,1,.51.08l8.05,11,.45.62L623,394.87l.45.63L632.54,408l.45.62,5.83,8,.66.91a.37.37,0,0,1-.08.52.33.33,0,0,1-.21.07.36.36,0,0,1-.3-.15l-.07-.1-6.28-8.62Z" style="fill:#e0e0e0"></path><path d="M631.94,434.78l-9.09-12.48-.46-.62-9.08-12.47-.46-.62-7.91-10.86-.13-.18a.37.37,0,0,1,.08-.51l.05,0a.36.36,0,0,1,.47.1l7.9,10.85.45.62,9.09,12.47.46.62,9.08,12.48.46.62,6,8.19.66.91a.37.37,0,0,1-.08.52.33.33,0,0,1-.21.07.36.36,0,0,1-.3-.15l-.07-.1-6.43-8.82Z" style="fill:#e0e0e0"></path><path d="M631.79,461,622.7,448.5l-.45-.63-9.09-12.47-.45-.62L605,424.18l-.17-.24a.37.37,0,0,1,.08-.51l.09,0a.36.36,0,0,1,.43.12l7.75,10.65.46.62,9.09,12.47.45.63,9.09,12.47.45.62,6.12,8.39.66.92a.36.36,0,0,1-.08.51.33.33,0,0,1-.21.07.36.36,0,0,1-.3-.15l-.07-.1-6.58-9Z" style="fill:#e0e0e0"></path><path d="M622.1,474.06,613,461.59l-.45-.62L605,450.63l-.22-.3a.37.37,0,0,1,.08-.51.38.38,0,0,1,.13-.06.39.39,0,0,1,.39.14L613,460.35l.45.62,9.09,12.47.45.63,7.36,10.1h-.91l-6.9-9.48Z" style="fill:#e0e0e0"></path><path d="M604.81,476.73a.38.38,0,0,1,.08-.52.43.43,0,0,1,.18-.06.36.36,0,0,1,.34.14l5.73,7.88h-.91l-5.16-7.09Z" style="fill:#e0e0e0"></path><path d="M681.92,103.11a32.35,32.35,0,0,0-3.83-7.94,10.92,10.92,0,0,0-7.2-4.68c-2.93-.36-6.17,1.22-7.13,4-.41-6.29-1.31-12.74-4.45-18.2s-9-9.74-15.31-9.36c-5.92.37-11,4.77-13.82,10S626.39,88.16,625.46,94c-2.24-2.76-7-1.89-9.33.78s-2.94,6.42-3.44,9.94h70.74Z" style="fill:#f5f5f5"></path><path d="M355.36,197.69a24.38,24.38,0,0,0-2.89-6,8.25,8.25,0,0,0-5.44-3.54,5.06,5.06,0,0,0-5.37,3c-.32-4.74-1-9.6-3.36-13.72s-6.81-7.35-11.55-7.06c-4.47.27-8.3,3.59-10.43,7.54s-2.86,8.46-3.56,12.89c-1.7-2.08-5.28-1.43-7.05.59s-2.21,4.84-2.59,7.5H356.5Z" style="fill:#ebebeb"></path><rect x="451.26" y="423.36" width="46.18" height="59.81" style="fill:#ebebeb"></rect><rect x="486.37" y="444.47" width="56.26" height="38.71" style="fill:#e0e0e0"></rect><rect x="486.37" y="463.82" width="56.26" height="1.96" style="fill:#ebebeb"></rect></g><g id="background-simple"><path d="M286.81,297l-.6-3.92c-5-33,7.92-66.34,34.59-86a86.94,86.94,0,0,1,10.82-6.79c27.16-14.36,61.78-13.72,88.77,1.63,15.87,9,29.89,23,47.88,25.63,23.41,3.45,44.25-13.28,61.79-28.93s38.44-32.33,61.84-28.78c14.65,2.23,27.19,12.34,36.14,24.26,23.7,31.55,25.27,76.2,9.74,112s-46,63.45-80.29,82.09c-48,26.1-106,36.07-158.89,20.62S299.76,350.58,286.81,297Z" style="fill:#f5f5f5"></path><circle cx="649" cy="113.67" r="36.08" style="fill:#f5f5f5"></circle><circle cx="118.37" cy="245.93" r="36.08" transform="translate(-153.06 217.33) rotate(-58.28)" style="fill:#f5f5f5"></circle></g><g id="Floor"><path d="M16.66,483.18c0-.15,159.1-.26,355.32-.26s355.36.11,355.36.26-159.07.26-355.36.26S16.66,483.32,16.66,483.18Z" style="fill:#263238"></path></g><g id="Crane"><path d="M241.59,119.94l-.91-1,23-20.51H264c48.09,0,97.91.08,146.1.16s98,.16,146.09.16v1.36c-48.1,0-97.92-.08-146.1-.16s-97.82-.15-145.83-.15Z" style="fill:#FF725E"></path><path d="M247.4,126.81a.64.64,0,0,1-.51-.23.68.68,0,0,1,.06-1L277.34,98.9a.69.69,0,0,1,.92,0l27.13,25.33L331.6,98.92a.68.68,0,0,1,.92,0l28.76,25.35,26.46-25.33a.67.67,0,0,1,.92,0l28.53,25.36,27.15-25.35a.69.69,0,0,1,.91,0l29,25.35,26-25.33a.69.69,0,0,1,.94,0l27.6,25.34,26.91-25.34a.69.69,0,0,1,.91,0l29.46,25.76a.68.68,0,1,1-.89,1l-29-25.36-26.92,25.34a.67.67,0,0,1-.92,0l-27.6-25.33-26,25.31a.68.68,0,0,1-.92,0l-29-25.36-27.15,25.35a.7.7,0,0,1-.92,0l-28.53-25.35-26.45,25.33a.69.69,0,0,1-.92,0l-28.76-25.35-26.22,25.33a.69.69,0,0,1-.94,0l-27.15-25.35-29.93,26.31A.65.65,0,0,1,247.4,126.81Z" style="fill:#FF725E"></path><rect x="72.78" y="103.28" width="49.39" height="58.14" style="fill:#455a64"></rect><path d="M88.71,161.42c-.2,0-.36-13-.36-29.07s.16-29.07.36-29.07.35,13,.35,29.07S88.9,161.42,88.71,161.42Z" style="fill:#263238"></path><path d="M107.71,161.42c-.2,0-.36-13-.36-29.07s.16-29.07.36-29.07.35,13,.35,29.07S107.9,161.42,107.71,161.42Z" style="fill:#263238"></path><path d="M586,126.56H68.39v-8H586Zm-516.88-.68h516.2v-6.59H69.07Z" style="fill:#FF725E"></path><path d="M241.72,126.56a.33.33,0,0,1-.19-.06L214.12,108a.35.35,0,0,1-.09-.47.34.34,0,0,1,.47-.09l27.41,18.5a.33.33,0,0,1,.09.47A.33.33,0,0,1,241.72,126.56Z" style="fill:#FF725E"></path><path d="M241.72,126.43a.34.34,0,0,1-.34-.29L239,107.45l-27.39,18.92a.33.33,0,0,1-.37,0,.32.32,0,0,1-.16-.33l10-78.64v0l1.26-9.85h0l2.68-21a.35.35,0,0,1,.34-.3h2.28a.34.34,0,0,1,.34.3l1.2,9.37a.08.08,0,0,1,0,0L232,47.47v0l2.51,19.58v0l1.37,10.64a.3.3,0,0,1,0,.1.38.38,0,0,1,0,.21l6.16,48a.35.35,0,0,1-.3.38ZM214.05,108l-2.22,17.42,26-18Zm22.8-17.11L215,107.26l23.87-.55Zm-20.59-.16L214.17,107l21.77-16.35Zm.9-.68h19.58l-1.47-11.48Zm.68-11.74-1.45,11.42,18-11.42Zm.9-.68h16.41l-1.27-9.87Zm.48-10.12L218,77.28l15-9.81Zm.78-.68h13.77l-1.18-9.2Zm.52-9.47-1.16,9.1,12.45-9.1Zm.68-.68h11.26l-1.08-8.45Zm.54-8.86-1.08,8.42,10-8.34Zm.46-.67,9.05.07-1.13-8.78Zm.8-9.19-1.09,8.49L229.6,38Zm.26-.68,6.72,0-1.31-10.23Zm1.21-10.83-1.2,9.36,5-9.46Zm1.21-9.51-1.13,8.83,3.93-.1-1.12-8.73Z" style="fill:#FF725E"></path><path d="M230.42,38a.32.32,0,0,1-.3-.18l-6.18-11.62a.36.36,0,0,1,.14-.46.34.34,0,0,1,.46.14l6.18,11.62a.35.35,0,0,1-.14.46A.32.32,0,0,1,230.42,38Z" style="fill:#FF725E"></path><path d="M231.68,47.91a.36.36,0,0,1-.26-.11L222.49,38a.34.34,0,0,1,0-.48.34.34,0,0,1,.48,0l8.93,9.81a.34.34,0,0,1-.25.57Z" style="fill:#FF725E"></path><path d="M232.85,57.44a.33.33,0,0,1-.21-.07l-11.38-9.45a.34.34,0,1,1,.43-.53l11.38,9.45a.33.33,0,0,1,0,.48A.32.32,0,0,1,232.85,57.44Z" style="fill:#FF725E"></path><path d="M234.15,67.6a.31.31,0,0,1-.2-.07L220.06,57.38a.35.35,0,0,1-.07-.48.34.34,0,0,1,.47-.07L234.35,67a.34.34,0,0,1,.08.47A.35.35,0,0,1,234.15,67.6Z" style="fill:#FF725E"></path><path d="M235.52,78.4a.37.37,0,0,1-.18-.05l-16.57-10.8a.35.35,0,0,1-.09-.48.34.34,0,0,1,.47-.09l16.56,10.8a.34.34,0,0,1,.1.47A.35.35,0,0,1,235.52,78.4Z" style="fill:#FF725E"></path><path d="M237.12,90.81a.31.31,0,0,1-.18,0L217.35,78.35a.35.35,0,0,1-.1-.47.34.34,0,0,1,.47-.11l19.59,12.42a.34.34,0,0,1,.1.47A.33.33,0,0,1,237.12,90.81Z" style="fill:#FF725E"></path><path d="M239,107.39a.36.36,0,0,1-.2-.06L216,90.75a.34.34,0,1,1,.4-.55l22.82,16.58a.34.34,0,0,1,.07.47A.33.33,0,0,1,239,107.39Z" style="fill:#FF725E"></path><path d="M226.56,150.53a.34.34,0,0,1-.34-.34V15a.34.34,0,0,1,.34-.34.34.34,0,0,1,.34.34V150.19A.34.34,0,0,1,226.56,150.53Z" style="fill:#FF725E"></path><rect x="207.28" y="126.22" width="13.93" height="47.35" style="fill:#FF725E"></rect><rect x="216.15" y="149.27" width="37.58" height="24.89" style="fill:#FF725E"></rect><rect x="196.28" y="154.51" width="11.79" height="19.65" style="fill:#FF725E"></rect><rect x="196.94" y="181.64" width="60.34" height="8.84" style="fill:#FF725E"></rect><rect x="202.18" y="173.07" width="48.59" height="4.9" style="fill:#FF725E"></rect><rect x="204.76" y="177.13" width="43.52" height="4.51" style="fill:#FF725E"></rect><rect x="202.82" y="305.66" width="48.01" height="2.72" style="fill:#FF725E"></rect><rect x="202.82" y="412.01" width="47.76" height="2.72" style="fill:#FF725E"></rect><polygon points="76.34 109.22 75.98 108.64 226.69 15.64 226.84 15.69 472.76 98.99 472.54 99.64 226.78 16.39 76.34 109.22" style="fill:#FF725E"></polygon><polygon points="209.43 118.85 209.09 118.85 209.09 109.1 68.9 109.1 68.9 118.85 68.56 118.85 68.56 108.75 209.43 108.75 209.43 118.85" style="fill:#FF725E"></polygon><rect x="75.99" y="108.93" width="0.34" height="9.67" style="fill:#FF725E"></rect><rect x="82.33" y="108.93" width="0.34" height="9.67" style="fill:#FF725E"></rect><rect x="88.68" y="108.93" width="0.34" height="9.67" style="fill:#FF725E"></rect><rect x="95.02" y="108.93" width="0.34" height="9.67" style="fill:#FF725E"></rect><rect x="101.37" y="108.93" width="0.34" height="9.67" style="fill:#FF725E"></rect><rect x="107.71" y="108.93" width="0.34" height="9.67" style="fill:#FF725E"></rect><rect x="114.06" y="108.93" width="0.34" height="9.67" style="fill:#FF725E"></rect><rect x="120.4" y="108.93" width="0.34" height="9.67" style="fill:#FF725E"></rect><rect x="126.75" y="108.93" width="0.34" height="9.67" style="fill:#FF725E"></rect><rect x="133.09" y="108.93" width="0.34" height="9.67" style="fill:#FF725E"></rect><rect x="139.44" y="108.93" width="0.34" height="9.67" style="fill:#FF725E"></rect><rect x="145.78" y="108.93" width="0.34" height="9.67" style="fill:#FF725E"></rect><rect x="152.13" y="108.93" width="0.34" height="9.67" style="fill:#FF725E"></rect><rect x="158.47" y="108.93" width="0.34" height="9.67" style="fill:#FF725E"></rect><rect x="164.82" y="108.93" width="0.34" height="9.67" style="fill:#FF725E"></rect><rect x="171.16" y="108.93" width="0.34" height="9.67" style="fill:#FF725E"></rect><rect x="177.5" y="108.93" width="0.34" height="9.67" style="fill:#FF725E"></rect><rect x="183.85" y="108.93" width="0.34" height="9.67" style="fill:#FF725E"></rect><rect x="190.19" y="108.93" width="0.34" height="9.67" style="fill:#FF725E"></rect><rect x="196.54" y="108.93" width="0.34" height="9.67" style="fill:#FF725E"></rect><rect x="202.88" y="108.93" width="0.34" height="9.67" style="fill:#FF725E"></rect><rect x="162.49" y="118.95" width="12.84" height="7.27" style="fill:#FF725E"></rect><rect x="189.86" y="118.95" width="12.84" height="7.27" style="fill:#FF725E"></rect><rect x="262.22" y="118.95" width="12.84" height="7.27" style="fill:#FF725E"></rect><rect x="299.07" y="118.95" width="12.85" height="7.27" style="fill:#FF725E"></rect><rect x="335.92" y="118.95" width="12.84" height="7.27" style="fill:#FF725E"></rect><rect x="372.78" y="118.95" width="12.84" height="7.27" style="fill:#FF725E"></rect><rect x="409.63" y="118.95" width="12.84" height="7.27" style="fill:#FF725E"></rect><rect x="446.48" y="118.95" width="12.84" height="7.27" style="fill:#FF725E"></rect><rect x="483.34" y="118.95" width="12.84" height="7.27" style="fill:#FF725E"></rect><rect x="520.19" y="118.95" width="12.84" height="7.27" style="fill:#FF725E"></rect><rect x="557.05" y="118.95" width="12.84" height="7.27" style="fill:#FF725E"></rect><rect x="134.37" y="118.95" width="12.84" height="7.27" style="fill:#FF725E"></rect><rect x="106.26" y="118.95" width="12.84" height="7.27" style="fill:#FF725E"></rect><rect x="78.14" y="118.95" width="12.84" height="7.27" style="fill:#FF725E"></rect><rect x="82.51" y="62.35" width="157.83" height="0.68" transform="translate(-6.13 106.46) rotate(-35.86)" style="fill:#FF725E"></rect><rect x="556.16" y="117.51" width="30.35" height="9.7" style="fill:#FF725E"></rect><path d="M586.5,127.21a5.47,5.47,0,0,1,0-.7c0-.52,0-1.15-.06-1.93,0-1.74-.07-4.12-.13-7.07l.23.23c-7.21.08-18.14.13-30.34.13.16-.16-.36.35.35-.36h0v4.94c0,1.62,0,3.2,0,4.74l-.34-.35c8.65,0,16.18.09,21.6.16l6.38.1,1.73,0a3.41,3.41,0,0,1,.63,0,2.42,2.42,0,0,1-.54,0l-1.66,0-6.3.09c-5.4.07-13,.14-21.84.16h-.35v-5.08c0-.81,0-1.63,0-2.46v-2.48h0c.71-.71.2-.2.36-.35,12.2,0,23.13,0,30.34.12h.24v.23c-.05,3-.09,5.43-.12,7.2,0,.76,0,1.38-.06,1.88A2.75,2.75,0,0,1,586.5,127.21Z" style="fill:#263238"></path><rect x="224.48" y="13.85" width="4.51" height="4.51" style="fill:#FF725E"></rect><circle cx="423.38" cy="133.13" r="5.36" style="fill:#263238"></circle><circle cx="404.07" cy="133.13" r="5.36" style="fill:#263238"></circle><circle cx="394.2" cy="129.15" r="3.44" style="fill:#263238"></circle><path d="M406.25,159.45c-.2,0-.36-5.36-.36-12s.16-12,.36-12,.35,5.36.35,12S406.44,159.45,406.25,159.45Z" style="fill:#263238"></path><path d="M421.2,159.45c-.19,0-.35-5.36-.35-12s.16-12,.35-12,.36,5.36.36,12S421.4,159.45,421.2,159.45Z" style="fill:#263238"></path><path d="M403.3,157.16c0,.34,4.22,19.42,4.22,19.42h11.32L423,157.16l-9.82-4.1Z" style="fill:#263238"></path><rect x="395.91" y="124.36" width="32.83" height="8.78" style="fill:#FF725E"></rect><path d="M428.74,133.13a4.23,4.23,0,0,1,0-.63c0-.46,0-1-.05-1.74,0-1.57-.07-3.73-.12-6.4l.21.21c-7.48.09-19.41.14-32.83.14l.36-.35h0v2.23c0,.75,0,1.48,0,2.22v4.31l-.35-.35c9.32,0,17.47.09,23.34.16l6.92.1,1.89.05a4.94,4.94,0,0,1,.68,0,2.43,2.43,0,0,1-.6.05l-1.81,0-6.84.1c-5.85.07-14.12.14-23.58.16h-.34v-9.11h0c.71-.71.19-.2.35-.36,13.42,0,25.35,0,32.83.14H429v.22c0,2.73-.09,4.92-.12,6.53,0,.68,0,1.24,0,1.69A2,2,0,0,1,428.74,133.13Z" style="fill:#263238"></path><circle cx="514.22" cy="133.13" r="5.36" style="fill:#263238"></circle><circle cx="533.53" cy="133.13" r="5.36" style="fill:#263238"></circle><circle cx="543.41" cy="129.15" r="3.44" style="fill:#263238"></circle><path d="M531.36,159.45c.19,0,.35-5.36.35-12s-.16-12-.35-12-.36,5.36-.36,12S531.16,159.45,531.36,159.45Z" style="fill:#263238"></path><path d="M516.4,159.45c.2,0,.36-5.36.36-12s-.16-12-.36-12-.35,5.36-.35,12S516.21,159.45,516.4,159.45Z" style="fill:#263238"></path><path d="M534.3,157.16c0,.34-4.22,19.42-4.22,19.42H518.76l-4.1-19.42,9.82-4.1Z" style="fill:#263238"></path><rect x="508.86" y="124.36" width="32.83" height="8.78" style="fill:#FF725E"></rect><path d="M508.86,133.13a3.41,3.41,0,0,0,.05-.63c0-.46,0-1,0-1.74,0-1.57.07-3.73.12-6.4l-.22.21c7.48.09,19.41.14,32.83.14l-.35-.35h0v4.45c0,1.46,0,2.9,0,4.31l.34-.35c-9.31,0-17.46.09-23.33.16l-6.93.1-1.88.05a5.2,5.2,0,0,0-.69,0,2.53,2.53,0,0,0,.6.05l1.81,0,6.85.1c5.85.07,14.11.14,23.57.16H542v-4.66c0-.74,0-1.47,0-2.22v-2.23h0l-.36-.36c-13.42,0-25.35,0-32.83.14h-.22v.22c.05,2.73.09,4.92.12,6.53,0,.68,0,1.24.06,1.69A2.48,2.48,0,0,0,508.86,133.13Z" style="fill:#263238"></path><path d="M246.35,126.09a7,7,0,0,1,5.76,7.32v15.86h-31.3l.39-23Z" style="fill:#ebebeb"></path><path d="M246.35,126.09a1.7,1.7,0,0,1-.46,0l-1.34,0-5.1.12-18.24.22.3-.29c-.1,6.73-.22,14.6-.35,23l-.35-.36h4.57l26.73.05-.31.3c0-3.9,0-7.47.06-10.66,0-1.58,0-3.07,0-4.44a9.8,9.8,0,0,0-.44-3.66,6.69,6.69,0,0,0-3.37-3.76,14.66,14.66,0,0,0-1.73-.66,1.46,1.46,0,0,1,.48.06,6.82,6.82,0,0,1,4.95,4.24,9.87,9.87,0,0,1,.54,3.78c0,1.37,0,2.86,0,4.44,0,3.19,0,6.76.06,10.66v.31h-.3l-26.73,0h-4.93v-.36c.16-8.44.31-16.32.44-23v-.3h.29l18.27,0,5.09.05,1.33,0A2,2,0,0,1,246.35,126.09Z" style="fill:#263238"></path><path d="M241.9,132.32c.12.15-2.54,2.55-6,5.37s-6.28,5-6.41,4.82,2.54-2.55,6-5.37S241.77,132.17,241.9,132.32Z" style="fill:#263238"></path><path d="M242.81,137c.12.15-1.76,2-4.22,4.05s-4.54,3.65-4.67,3.5,1.76-2,4.22-4S242.68,136.82,242.81,137Z" style="fill:#263238"></path><path d="M207.68,174.17c-.2,0-.36-10.6-.36-23.66s.16-23.67.36-23.67.35,10.59.35,23.67S207.87,174.17,207.68,174.17Z" style="fill:#263238"></path><path d="M251.09,174.17c0,.19-11.14.35-24.88.35s-24.88-.16-24.88-.35,11.14-.36,24.88-.36S251.09,174,251.09,174.17Z" style="fill:#263238"></path><path d="M251.09,178c0,.19-11,.35-24.45.35s-24.46-.16-24.46-.35,10.95-.36,24.46-.36S251.09,177.78,251.09,178Z" style="fill:#263238"></path><path d="M251.09,181.64c0,.19-11,.35-24.45.35s-24.46-.16-24.46-.35,10.95-.36,24.46-.36S251.09,181.44,251.09,181.64Z" style="fill:#263238"></path><rect x="460.1" y="96.1" width="17.35" height="3.31" style="fill:#FF725E"></rect><path d="M238.77,380.13l-12.62,17.31L239,414.76,249.73,400a.5.5,0,0,1,.59-.17v-2.12c0-.67,0-1.34,0-2a.4.4,0,0,1-.16-.13Z" style="fill:none"></path><polygon points="203.36 332.27 203.36 353.74 211.24 342.93 203.36 332.27" style="fill:none"></polygon><path d="M203.7,331l8.17,11,12.61-17.31-12.81-17.31-8.31,11.4v12A.51.51,0,0,1,203.7,331Z" style="fill:none"></path><polygon points="203.36 296.2 203.36 317.11 211.03 306.58 203.36 296.2" style="fill:none"></polygon><path d="M203.7,294.94l8,10.77,12.62-17.31-12.7-17.16-8.22,11v12.52A.55.55,0,0,1,203.7,294.94Z" style="fill:none"></path><path d="M203.7,403.17l8.57,11.59,12.62-17.31-12.81-17.32-8.72,12V403A.51.51,0,0,1,203.7,403.17Z" style="fill:none"></path><polygon points="203.36 368.35 203.36 390.37 211.44 379.27 203.36 368.35" style="fill:none"></polygon><path d="M250.27,430c0-9.72,0-19.45,0-29.13L239.6,415.62Z" style="fill:none"></path><path d="M203.7,367.09l8.37,11.32,12.61-17.31-12.81-17.32-8.51,11.69v11.42A.55.55,0,0,1,203.7,367.09Z" style="fill:none"></path><polygon points="212.91 415.62 225.72 432.93 238.33 415.62 225.52 398.31 212.91 415.62" style="fill:none"></polygon><polygon points="212.5 342.92 225.31 360.24 237.93 342.93 225.12 325.61 212.5 342.92" style="fill:none"></polygon><path d="M238.56,343.79,226,361.1l12.81,17.31,11-15.06a.5.5,0,0,1,.65-.14c0-1.19,0-2.38,0-3.57a.6.6,0,0,1-.22-.16Z" style="fill:none"></path><polygon points="212.3 306.57 225.11 323.89 237.72 306.58 224.91 289.26 212.3 306.57" style="fill:none"></polygon><path d="M250.45,322.06q0-15.75,0-31.27L239,306.57Z" style="fill:none"></path><path d="M250.39,358.06c0-10.21,0-20.42.05-30.57l-11.25,15.43Z" style="fill:none"></path><path d="M238.36,307.44l-12.61,17.31,12.81,17.31,11.17-15.33a.51.51,0,0,1,.71-.12v-3a.54.54,0,0,1-.27-.18Z" style="fill:none"></path><path d="M250.5,286.05q0-16.2,0-32l-11.74,16.12Z" style="fill:none"></path><path d="M249.73,253.47a.5.5,0,0,1,.42-.2l-12.48-16.88-12,16.06,12.51,16.91Z" style="fill:none"></path><polygon points="212.71 379.27 225.51 396.58 238.13 379.27 225.32 361.96 212.71 379.27" style="fill:none"></polygon><polygon points="237.52 270.23 225 253.31 212.22 270.38 224.91 287.54 237.52 270.23" style="fill:none"></polygon><path d="M238.16,271.09,225.54,288.4l12.81,17.31,12.07-16.56s.05,0,.07-.07v-1.57a.52.52,0,0,1-.32-.18Z" style="fill:none"></path><path d="M250.33,394.05q0-14.9,0-29.85l-11,15.07Z" style="fill:none"></path><polygon points="203.36 260.13 203.36 280.52 210.95 270.38 203.36 260.13" style="fill:none"></polygon><polygon points="216.34 484.17 235.66 484.17 225.93 471.01 216.34 484.17" style="fill:none"></polygon><path d="M250.56,219.16,238.3,235.54l12.24,16.53C250.55,240.87,250.56,229.88,250.56,219.16Z" style="fill:none"></path><path d="M250.2,473v-5.31l0,0-11-14.87-12.61,17.31,10.37,14h4.83l8-10.93A.49.49,0,0,1,250.2,473Z" style="fill:none"></path><path d="M203.7,258.87l7.88,10.66,12.79-17.08L212,235.77l-8.67,11.89v11A.51.51,0,0,1,203.7,258.87Z" style="fill:none"></path><path d="M243,484.17h7.15c0-3.28,0-6.56,0-9.84Z" style="fill:none"></path><polygon points="237.03 235.53 224.52 218.62 212.66 234.9 225.01 251.6 237.03 235.53" style="fill:none"></polygon><polygon points="203.36 224.05 203.36 245.93 211.39 234.91 203.36 224.05" style="fill:none"></polygon><path d="M203.7,222.79,212,234l11.86-16.28L203.36,190v32.57A.55.55,0,0,1,203.7,222.79Z" style="fill:none"></path><path d="M239,416.48l-12.61,17.31,12.8,17.32,10.57-14.5a.52.52,0,0,1,.53-.2c0-1.57,0-3.14,0-4.7l-.1-.08Z" style="fill:none"></path><polygon points="203.36 404.43 203.36 426.99 211.64 415.62 203.36 404.43" style="fill:none"></polygon><polygon points="203.36 440.5 203.36 463.62 211.85 451.97 203.36 440.5" style="fill:none"></polygon><polygon points="213.11 451.97 225.92 469.28 238.53 451.97 225.72 434.66 213.11 451.97" style="fill:none"></polygon><path d="M203.7,439.24l8.78,11.87,12.61-17.31-12.81-17.32-8.92,12.25V439A.55.55,0,0,1,203.7,439.24Z" style="fill:none"></path><path d="M250.21,466c0-9.44,0-18.93,0-28.42L239.8,452Z" style="fill:none"></path><polygon points="212.48 452.83 203.36 465.35 203.36 484.17 215.07 484.17 225.29 470.15 212.48 452.83" style="fill:none"></polygon><path d="M251.14,217.54a.5.5,0,0,1,.1.71l-.68.91c0,10.72,0,21.71,0,32.91l.45.62a.5.5,0,0,1-.11.71.47.47,0,0,1-.3.1h0a.5.5,0,0,1,0,.57l0,0q0,15.73,0,32l.49.67a.5.5,0,0,1-.11.71.47.47,0,0,1-.3.1l-.09,0v1.57a.5.5,0,0,1,.64,0,.51.51,0,0,1,.12.71l-.76,1q0,15.49,0,31.27l.54.73a.51.51,0,0,1-.11.72.47.47,0,0,1-.3.1.7.7,0,0,1-.14,0v3h0a.51.51,0,0,1,.11.72l-.11.16c0,10.15,0,20.36-.05,30.57l.6.81a.5.5,0,0,1-.11.71.47.47,0,0,1-.3.1.58.58,0,0,1-.19,0c0,1.19,0,2.38,0,3.57l.06,0a.5.5,0,0,1,.11.71l-.17.25q0,14.94,0,29.85l.66.89a.51.51,0,0,1-.11.72.47.47,0,0,1-.3.1.44.44,0,0,1-.25-.08c0,.67,0,1.34,0,2v2.12a.67.67,0,0,1,.12.06.5.5,0,0,1,.11.71l-.23.33c0,9.68,0,19.41,0,29.13l.72,1a.5.5,0,0,1-.11.71.47.47,0,0,1-.3.1.52.52,0,0,1-.31-.12c0,1.56,0,3.13,0,4.7a.61.61,0,0,1,.18.09.5.5,0,0,1,.11.71l-.29.41c0,9.49,0,19,0,28.42l.78,1a.51.51,0,0,1-.11.72.47.47,0,0,1-.3.1.51.51,0,0,1-.37-.18V473a.42.42,0,0,1,.24.09.5.5,0,0,1,.11.71l-.35.49c0,3.28,0,6.56,0,9.84h1c0-28.57.09-57.71.13-86.48.13-74.29.26-151.11.26-214a.51.51,0,0,0-.51-.51.51.51,0,0,0-.51.51c0,10.88,0,22.19,0,33.82A.53.53,0,0,1,251.14,217.54Z" style="fill:#FF725E"></path><path d="M212,234l-8.32-11.25a.55.55,0,0,0-.34-.2v1.46l8,10.86Z" style="fill:#FF725E"></path><polygon points="238.15 269.36 225.64 252.45 225 253.31 237.52 270.23 238.15 269.36" style="fill:#FF725E"></polygon><polygon points="225.01 251.6 212.66 234.9 212.03 235.77 224.37 252.45 225.01 251.6" style="fill:#FF725E"></polygon><path d="M238.16,271.09l12,16.24a.52.52,0,0,0,.32.18l.09,0a.47.47,0,0,0,.3-.1.5.5,0,0,0,.11-.71l-.49-.67-11.71-15.83Z" style="fill:#FF725E"></path><path d="M223.88,217.76l.63-.86L203.7,188.76a.55.55,0,0,0-.34-.2V190Z" style="fill:#FF725E"></path><polygon points="237.03 235.53 237.67 234.68 225.15 217.76 224.52 218.62 237.03 235.53" style="fill:#FF725E"></polygon><path d="M250.44,253.36a.58.58,0,0,1,.13.14h0a.47.47,0,0,0,.3-.1.5.5,0,0,0,.11-.71l-.45-.62L238.3,235.54l-.63.85,12.48,16.88A.52.52,0,0,1,250.44,253.36Z" style="fill:#FF725E"></path><polygon points="224.91 289.26 237.72 306.58 238.35 305.71 225.54 288.4 224.91 289.26" style="fill:#FF725E"></polygon><polygon points="224.91 287.54 212.22 270.38 211.58 271.24 224.28 288.4 224.91 287.54" style="fill:#FF725E"></polygon><path d="M238.36,307.44l11.81,16a.54.54,0,0,0,.27.18.7.7,0,0,0,.14,0,.47.47,0,0,0,.3-.1.51.51,0,0,0,.11-.72l-.54-.73L239,306.57Z" style="fill:#FF725E"></path><path d="M211.58,269.53l-7.88-10.66a.51.51,0,0,0-.34-.2v1.46L211,270.38Z" style="fill:#FF725E"></path><polygon points="225.12 325.61 237.93 342.93 238.56 342.06 225.75 324.75 225.12 325.61" style="fill:#FF725E"></polygon><polygon points="211.67 307.44 224.48 324.75 225.11 323.89 212.3 306.57 211.67 307.44" style="fill:#FF725E"></polygon><path d="M238.56,343.79l11.61,15.69a.6.6,0,0,0,.22.16.58.58,0,0,0,.19,0,.47.47,0,0,0,.3-.1.5.5,0,0,0,.11-.71l-.6-.81-11.2-15.14Z" style="fill:#FF725E"></path><path d="M211.66,305.71l-8-10.77a.55.55,0,0,0-.34-.2v1.46L211,306.58Z" style="fill:#FF725E"></path><polygon points="211.87 343.79 224.68 361.1 225.31 360.24 212.5 342.92 211.87 343.79" style="fill:#FF725E"></polygon><polygon points="225.32 361.96 238.13 379.27 238.76 378.41 225.95 361.1 225.32 361.96" style="fill:#FF725E"></polygon><path d="M211.87,342.06l-8.17-11a.51.51,0,0,0-.34-.2v1.46l7.88,10.64Z" style="fill:#FF725E"></path><path d="M238.77,380.13l11.4,15.42a.4.4,0,0,0,.16.13.44.44,0,0,0,.25.08.47.47,0,0,0,.3-.1.51.51,0,0,0,.11-.72l-.66-.89-10.94-14.78Z" style="fill:#FF725E"></path><path d="M212.07,378.41l-8.37-11.32a.55.55,0,0,0-.34-.2v1.46l8.08,10.92Z" style="fill:#FF725E"></path><polygon points="225.52 398.31 238.33 415.62 238.96 414.76 226.15 397.44 225.52 398.31" style="fill:#FF725E"></polygon><path d="M239,416.48l11.2,15.15.1.08a.52.52,0,0,0,.31.12.47.47,0,0,0,.3-.1A.5.5,0,0,0,251,431l-.72-1L239.6,415.62Z" style="fill:#FF725E"></path><polygon points="212.08 380.13 224.89 397.45 225.51 396.58 212.71 379.27 212.08 380.13" style="fill:#FF725E"></polygon><path d="M239.17,452.83l11,14.87,0,0a.51.51,0,0,0,.37.18.47.47,0,0,0,.3-.1.51.51,0,0,0,.11-.72l-.78-1L239.8,452Z" style="fill:#FF725E"></path><polygon points="212.28 416.48 225.09 433.8 225.72 432.93 212.91 415.62 212.28 416.48" style="fill:#FF725E"></polygon><polygon points="225.72 434.66 238.53 451.97 239.16 451.11 226.35 433.79 225.72 434.66" style="fill:#FF725E"></polygon><path d="M212.27,414.76l-8.57-11.59a.51.51,0,0,0-.34-.2v1.46l8.28,11.19Z" style="fill:#FF725E"></path><polygon points="225.93 471.01 235.66 484.17 236.93 484.17 226.56 470.14 225.93 471.01" style="fill:#FF725E"></polygon><path d="M212.48,451.11l-8.78-11.87a.55.55,0,0,0-.34-.2v1.46L211.85,452Z" style="fill:#FF725E"></path><polygon points="212.48 452.83 225.29 470.15 225.92 469.28 213.11 451.97 212.48 452.83" style="fill:#FF725E"></polygon><path d="M203.36,465.35l-.1.14a.49.49,0,0,1-.41.21.47.47,0,0,1-.3-.1.5.5,0,0,1-.11-.71l.92-1.27V428.73l-.1.13a.49.49,0,0,1-.41.21.47.47,0,0,1-.3-.1.5.5,0,0,1-.11-.71l.92-1.27V392.1l-.1.13a.49.49,0,0,1-.41.21.47.47,0,0,1-.3-.1.5.5,0,0,1-.11-.71l.92-1.27V355.47l-.1.13a.49.49,0,0,1-.41.21.53.53,0,0,1-.3-.09.51.51,0,0,1-.11-.72l.92-1.26v-34.9l-.1.14a.52.52,0,0,1-.41.21.47.47,0,0,1-.3-.1.5.5,0,0,1-.11-.71l.92-1.27V282.22l-.1.14a.53.53,0,0,1-.41.2.5.5,0,0,1-.31-.1.52.52,0,0,1-.1-.72l.92-1.22V247.66l-.1.14a.52.52,0,0,1-.41.21.54.54,0,0,1-.3-.1.51.51,0,0,1-.11-.72l.92-1.26V185.16a.51.51,0,1,0-1,0v299h1Z" style="fill:#FF725E"></path><path d="M225,251.6l-.64.85-12.79,17.08-.63.85-7.59,10.14-.92,1.22a.52.52,0,0,0,.1.72.5.5,0,0,0,.31.1.53.53,0,0,0,.41-.2l.1-.14,8.22-11,.64-.86L225,253.31l.64-.86,12-16.06.63-.85,12.26-16.38.68-.91a.5.5,0,0,0-.1-.71.53.53,0,0,0-.58,0,.86.86,0,0,0-.14.13l-12.75,17-.64.85Z" style="fill:#FF725E"></path><path d="M212,234l-.63.87-8,11-.92,1.26a.51.51,0,0,0,.11.72.54.54,0,0,0,.3.1.52.52,0,0,0,.41-.21l.1-.14L212,235.77l.63-.87,11.86-16.28.63-.86,25.4-34.87a.51.51,0,0,0-.82-.6L224.51,216.9l-.63.86Z" style="fill:#FF725E"></path><path d="M212.3,306.57l12.61-17.31.63-.86,12.62-17.31.63-.87,11.74-16.12,0,0a.5.5,0,0,0,0-.57.58.58,0,0,0-.13-.14.52.52,0,0,0-.29-.09.5.5,0,0,0-.42.2l-11.58,15.89-.63.87-12.61,17.31-.63.86-12.62,17.31-.63.87-7.67,10.53-.92,1.27a.5.5,0,0,0,.11.71.47.47,0,0,0,.3.1.52.52,0,0,0,.41-.21l.1-.14,8.31-11.4Z" style="fill:#FF725E"></path><path d="M212.5,342.92l12.62-17.31.63-.86,12.61-17.31.63-.87,11.5-15.78.76-1a.51.51,0,0,0-.12-.71.5.5,0,0,0-.64,0s-.05,0-.07.07l-12.07,16.56-.63.87-12.61,17.31-.63.86-12.61,17.31-.63.86-7.88,10.82-.92,1.26a.51.51,0,0,0,.11.72.53.53,0,0,0,.3.09.49.49,0,0,0,.41-.21l.1-.13,8.51-11.69Z" style="fill:#FF725E"></path><path d="M212.71,379.27,225.32,362l.63-.86,12.61-17.31.63-.87,11.25-15.43.11-.16a.51.51,0,0,0-.11-.72h0a.51.51,0,0,0-.71.12l-11.17,15.33-.63.86-12.62,17.32-.63.86-12.61,17.31-.63.86-8.08,11.09-.92,1.27a.5.5,0,0,0,.11.71.47.47,0,0,0,.3.1.49.49,0,0,0,.41-.21l.1-.13,8.72-12Z" style="fill:#FF725E"></path><path d="M212.91,415.62l12.61-17.31.63-.87,12.62-17.31.62-.86,11-15.07.17-.25a.5.5,0,0,0-.11-.71l-.06,0a.5.5,0,0,0-.65.14l-11,15.06-.63.86-12.61,17.31-.63.87-12.62,17.31-.63.86L203.36,427l-.92,1.27a.5.5,0,0,0,.11.71.47.47,0,0,0,.3.1.49.49,0,0,0,.41-.21l.1-.13,8.92-12.25Z" style="fill:#FF725E"></path><path d="M213.11,452l12.62-17.31.63-.87L239,416.48l.63-.86,10.72-14.71.23-.33a.5.5,0,0,0-.11-.71.67.67,0,0,0-.12-.06.5.5,0,0,0-.59.17L239,414.76l-.63.86-12.61,17.31-.63.87-12.61,17.31-.63.86-8.49,11.65-.92,1.27a.5.5,0,0,0,.11.71.47.47,0,0,0,.3.1.49.49,0,0,0,.41-.21l.1-.14,9.12-12.52Z" style="fill:#FF725E"></path><path d="M226.56,470.14l12.61-17.31.63-.86,10.46-14.35.29-.41a.5.5,0,0,0-.11-.71.61.61,0,0,0-.18-.09.52.52,0,0,0-.53.2l-10.57,14.5-.63.86-12.61,17.31-.63.87-10.21,14h1.26L225.93,471Z" style="fill:#FF725E"></path><path d="M250.55,473.84a.5.5,0,0,0-.11-.71.42.42,0,0,0-.24-.09.49.49,0,0,0-.47.2l-8,10.93H243l7.17-9.84Z" style="fill:#FF725E"></path><path d="M411.35,172.42c.14,0,.26,23.1.26,51.6s-.12,51.6-.26,51.6-.26-23.1-.26-51.6S411.2,172.42,411.35,172.42Z" style="fill:#263238"></path><path d="M526.11,173.13c.15,0,.26,23.1.26,51.6s-.11,51.6-.26,51.6-.26-23.1-.26-51.6S526,173.13,526.11,173.13Z" style="fill:#263238"></path><rect x="408.5" y="274.03" width="120.55" height="24.02" style="fill:#455a64"></rect><path d="M408.5,279.3c0-.14,27.16-.26,60.65-.26s60.65.12,60.65.26-27.15.26-60.65.26S408.5,279.44,408.5,279.3Z" style="fill:#263238"></path><path d="M408.5,292.79c0-.15,27.16-.26,60.65-.26s60.65.11,60.65.26-27.15.26-60.65.26S408.5,292.93,408.5,292.79Z" style="fill:#263238"></path><path d="M466.53,292.88a46.12,46.12,0,0,1-.26-6.87,46.23,46.23,0,0,1,.26-6.87,44.66,44.66,0,0,1,.26,6.87A44.56,44.56,0,0,1,466.53,292.88Z" style="fill:#263238"></path><rect x="407.57" y="253.3" width="7.55" height="15.96" style="fill:#fff"></rect><polygon points="407.57 266.2 415.12 263.98 415.12 259.75 407.57 262.22 407.57 266.2" style="fill:#FF725E"></polygon><polygon points="407.57 269.26 415.12 269.26 415.12 266.34 407.57 268.27 407.57 269.26" style="fill:#FF725E"></polygon><polygon points="407.57 259.75 415.12 257.54 415.12 253.3 407.57 255.77 407.57 259.75" style="fill:#FF725E"></polygon><path d="M415.12,269.26a11.06,11.06,0,0,1-.06-1.24c0-.86,0-2-.07-3.33,0-2.84-.1-6.79-.11-11.39l.24.25h-7.55l.26-.26h0v4.5c0,1.46,0,2.87,0,4.22,0,2.68,0,5.12-.05,7.22l-.19-.19,5.47.1,1.52.05a3.3,3.3,0,0,1,.56,0,1.94,1.94,0,0,1-.49,0l-1.48.05-5.58.1h-.19v-.19c0-2.1,0-4.54-.05-7.22,0-1.35,0-2.76,0-4.22v-4.5h0l.26-.26h7.8v.24c0,4.7-.07,8.73-.12,11.55,0,1.34-.05,2.44-.07,3.28A7.75,7.75,0,0,1,415.12,269.26Z" style="fill:#263238"></path><rect x="522.32" y="252.32" width="7.55" height="15.96" style="fill:#fff"></rect><polygon points="522.32 265.22 529.87 263 529.87 258.77 522.32 261.24 522.32 265.22" style="fill:#FF725E"></polygon><polygon points="522.32 268.28 529.87 268.28 529.87 265.35 522.32 267.29 522.32 268.28" style="fill:#FF725E"></polygon><polygon points="522.32 258.77 529.87 256.55 529.87 252.32 522.32 254.79 522.32 258.77" style="fill:#FF725E"></polygon><path d="M529.87,268.28a11.06,11.06,0,0,1-.06-1.24c0-.86,0-2-.07-3.34,0-2.83-.1-6.78-.12-11.38l.25.25h-7.55l.26-.26h0v2.26c0,.75,0,1.49,0,2.23,0,1.46,0,2.87,0,4.22,0,2.68,0,5.12,0,7.22l-.19-.19,5.46.1,1.53.05a2.45,2.45,0,0,1,.56,0,3.12,3.12,0,0,1-.49,0l-1.48.05-5.58.1h-.19v-.19c0-2.1,0-4.54,0-7.22,0-1.35,0-2.76,0-4.22v-4.49h0c.11-.12-.26.26.26-.26h7.8v.25c0,4.7-.07,8.73-.12,11.55,0,1.34,0,2.44-.07,3.28A7.75,7.75,0,0,1,529.87,268.28Z" style="fill:#263238"></path><rect x="407.57" y="270.56" width="7.55" height="3.47" style="fill:#263238"></rect><rect x="520.86" y="270.56" width="7.55" height="3.47" style="fill:#263238"></rect></g><g id="Beams"><path d="M355.63,386.52s0-.36,0-1.1,0-1.83,0-3.27c0-2.91,0-7.21-.05-12.78v-.1h.1l212.42-.16h.27v17.67h-.26l-150.93-.11L372,386.59l-12.18,0h-3.15l-1.06,0,1.09,0,3.19,0,12.24,0,45.17-.08,150.74-.11-.26.26V369.37l.26.26h0l-212.42-.17.09-.09c0,5.55,0,9.83-.05,12.72q0,2.18,0,3.3C355.64,386.13,355.63,386.52,355.63,386.52Z" style="fill:#263238"></path><path d="M568.06,386.52l-.32-.28-.91-.84-3.53-3.31-13.36-12.62h.21c-4.29,4.87-9.47,10.74-15.31,17.38l-.13.15-.15-.15c-4.85-4.84-10.18-10.22-16-15.85l-1.12-1-.29-.25-.14-.11a.14.14,0,0,1,.07,0,6.38,6.38,0,0,0-.55.46c-.76.7-1.5,1.43-2.25,2.16l-4.53,4.52-9.36,9.53-.18.18-.17-.18-15.87-16.73h.36l-16.69,17-.19.19-.18-.19c-2.35-2.34-4.86-4.86-7.39-7.39l-9.6-9.59h.38l-15.58,17-.17.19-.19-.18-17.26-17H418l-17.28,17.26-.16.15-.15-.15-17-17.3h.26l-16.74,17.12-.11.11-.09-.13-8.28-12.77-2.13-3.32c-.48-.74-.7-1.13-.7-1.13s.26.36.76,1.1l2.18,3.27L367,386.45l-.2,0,16.67-17.19.13-.14.13.14,17,17.24h-.31l17.25-17.28.17-.17.17.17,17.28,17h-.37l15.57-17,.18-.2.19.19,9.59,9.59,7.4,7.4h-.37l16.7-17,.19-.19.18.19,15.85,16.75H500l9.38-9.52,4.54-4.52c.76-.74,1.5-1.46,2.27-2.17a6.22,6.22,0,0,1,.64-.52.33.33,0,0,1,.4,0l.16.13.3.26,1.13,1c5.85,5.66,11.16,11,16,15.91h-.27l15.38-17.32.09-.11.11.1L563.4,382l3.48,3.37.89.87Z" style="fill:#263238"></path><path d="M312.78,385.09s0-.4,0-1.14,0-1.87,0-3.32c0-2.91,0-7.18-.06-12.7l.1.11-194.4.15h0l.26-.26v17.16l-.26-.26,138,.11,41.32.07,11.2,0,2.91,0c.66,0,1,0,1,0h-1l-2.88,0-11.14,0-41.26.08-138.17.11h-.26V367.67h.27l194.4.16h.11v.1c0,5.55-.05,9.84-.06,12.76,0,1.44,0,2.54,0,3.29S312.78,385.09,312.78,385.09Z" style="fill:#263238"></path><path d="M312.78,367.93a2.82,2.82,0,0,1-.17.3l-.54.86-2.15,3.35-8.24,12.72-.1.14-.11-.12-16.74-17.11H285l-17,17.29-.16.16-.16-.16-17.28-17.25h.34l-17.26,17-.19.19-.18-.2-15.57-17H218l-.32.31L201,385.1l-.18.18-.19-.18-16.69-17h.35l-15.87,16.73-.16.17-.17-.17-10-10.17c-1.6-1.61-3.17-3.18-4.71-4.68l-1.16-1.11-.58-.53a2.42,2.42,0,0,1-.24-.2c.08,0,0,.06-.15.14-.78.68-1.53,1.4-2.26,2.1-5.85,5.67-10.92,10.76-15.17,15l-.11.1-.09-.11-10.43-12.31-2.72-3.25-.69-.83c-.16-.19-.23-.29-.23-.29l.26.26.71.82,2.78,3.19,10.53,12.23h-.21c4.23-4.27,9.27-9.37,15.11-15.07.74-.7,1.47-1.43,2.27-2.12l.17-.14s.2-.17.33-.08a1,1,0,0,1,.23.15l.16.13c.21.17.4.35.6.54l1.16,1.1c1.56,1.51,3.13,3.07,4.73,4.68l10,10.15h-.33l15.85-16.75.17-.19.18.18,16.71,17h-.36l16.66-16.68.32-.31.19-.19.18.2c5.34,5.82,10.57,11.52,15.57,17h-.37l17.28-17,.17-.17.17.17L268,385h-.31c6.18-6.27,11.91-12.09,17-17.25l.13-.14.14.14L301.66,385l-.21,0,8.35-12.64c1-1.45,1.7-2.55,2.21-3.31.24-.37.43-.65.57-.85Z" style="fill:#263238"></path><path d="M396,314.75s-.34,0-1,0l-2.87,0-11,.06.11-.11c0,28,.08,92.88.15,168.42h0l-.26-.26H396l-.26.26c.05-47.17.09-89.24.11-119.53,0-15.15.06-27.36.08-35.79,0-4.21,0-7.48,0-9.71,0-1.1,0-1.94,0-2.52s0-.88,0-.88,0,.28,0,.84,0,1.41,0,2.49c0,2.22,0,5.46,0,9.65,0,8.42,0,20.6.07,35.73,0,30.34.07,72.48.11,119.72v.26H380.89v-.26h0c.07-75.54.14-140.41.16-168.42v-.1h.1l11.06.06,2.85,0Z" style="fill:#263238"></path><path d="M381.15,314.75l.26.15.75.47,2.91,1.86,11,7.13.14.09-.12.12-14.82,14.51v-.27l15,14.69.16.16-.16.16-14.94,15v-.34q7.1,7.2,14.72,14.95l.19.19-.2.18-14.71,13.49v-.38l.27.27,14.44,14.45.18.18-.18.18-14.72,14.46v-.35c5.08,4.81,9.92,9.41,14.49,13.75l.17.16-.17.17L387,448.8l-4.06,4.07-.95,1-.46.5a1.66,1.66,0,0,1-.17.2s.1.07.11.11c.59.67,1.22,1.32,1.82,1.95,4.91,5.07,9.32,9.46,13,13.15l.1.1-.11.1-10.67,9-2.81,2.35-.73.6-.25.19a1.52,1.52,0,0,1,.23-.22l.7-.62,2.76-2.41,10.59-9.13v.2c-3.7-3.66-8.12-8-13.06-13.08-.61-.64-1.23-1.27-1.84-2-.05-.06-.09-.13-.14-.2s-.12-.09-.05-.26a1.69,1.69,0,0,1,.24-.34l.47-.52,1-1c1.3-1.35,2.66-2.71,4-4.1l8.79-8.67v.32L381,426.42l-.19-.17.18-.18,14.71-14.47V412l-14.45-14.44-.27-.27-.19-.19.2-.19,14.71-13.48v.37l-14.71-15-.17-.17.17-.18,15-14.94v.32L381,339.08l-.14-.14.14-.13,14.9-14.43,0,.21L385,317.35l-2.87-1.92-.73-.5Z" style="fill:#263238"></path></g><g id="Bridge"><polygon points="66.22 336.52 66.22 345.81 76.27 353.28 139.13 353.28 148.47 345.64 148.67 336.52 66.22 336.52" style="fill:#455a64"></polygon><rect x="75.94" y="353.28" width="63.22" height="7.97" style="fill:#455a64"></rect><rect x="85.78" y="361.26" width="44.87" height="121.92" style="fill:#455a64"></rect><path d="M130.08,369c-1.27,0-37.18,26.57-37.18,26.57v87.58H85.78V361.26h44.87Z" style="opacity:0.30000000000000004"></path><polygon points="66.22 345.81 148.47 345.64 139.16 353.28 76.27 353.28 66.22 345.81" style="opacity:0.30000000000000004"></polygon><path d="M139.13,353.28c0,.15-14.16.23-31.62.19s-31.62-.18-31.62-.33,14.16-.23,31.63-.19S139.13,353.14,139.13,353.28Z" style="fill:#263238"></path><path d="M148.47,345.81c0,.14-18.42.26-41.14.26s-41.14-.12-41.14-.26,18.42-.26,41.14-.26S148.47,345.67,148.47,345.81Z" style="fill:#263238"></path><polygon points="293.22 336.52 293.22 345.81 303.27 353.28 366.14 353.28 375.48 345.64 375.67 336.52 293.22 336.52" style="fill:#455a64"></polygon><rect x="302.94" y="353.28" width="63.22" height="7.97" style="fill:#455a64"></rect><rect x="312.78" y="361.26" width="44.87" height="121.92" style="fill:#455a64"></rect><path d="M357.08,369c-1.27,0-37.17,26.57-37.17,26.57v87.58h-7.13V361.26h44.87Z" style="opacity:0.30000000000000004"></path><polygon points="293.22 345.81 375.48 345.64 366.16 353.28 303.27 353.28 293.22 345.81" style="opacity:0.30000000000000004"></polygon><path d="M366.14,353.28c0,.15-14.16.23-31.62.19s-31.62-.18-31.62-.33,14.15-.23,31.62-.19S366.14,353.14,366.14,353.28Z" style="fill:#263238"></path><path d="M375.48,345.81c0,.14-18.56.25-41.44.23s-41.43-.15-41.43-.29,18.55-.25,41.43-.23S375.48,345.67,375.48,345.81Z" style="fill:#263238"></path><rect x="210.37" y="303.68" width="5.05" height="8.35" style="fill:#455a64"></rect><rect x="205.83" y="302.39" width="14.12" height="1.72" style="fill:#455a64"></rect><path d="M220.22,304a49.8,49.8,0,0,1-7.26.26,49.8,49.8,0,0,1-7.26-.26,51.55,51.55,0,0,1,7.26-.26A51.55,51.55,0,0,1,220.22,304Z" style="fill:#263238"></path><rect x="108.98" y="303.68" width="5.05" height="8.35" style="fill:#455a64"></rect><rect x="104.44" y="302.39" width="14.12" height="1.72" style="fill:#455a64"></rect><path d="M118.83,304a49.8,49.8,0,0,1-7.26.26,49.8,49.8,0,0,1-7.26-.26,51.55,51.55,0,0,1,7.26-.26A51.55,51.55,0,0,1,118.83,304Z" style="fill:#263238"></path><rect x="297.38" y="303.68" width="5.05" height="8.35" style="fill:#455a64"></rect><rect x="292.84" y="302.39" width="14.12" height="1.72" style="fill:#455a64"></rect><path d="M307.23,304a49.8,49.8,0,0,1-7.26.26,49.8,49.8,0,0,1-7.26-.26,51.55,51.55,0,0,1,7.26-.26A51.55,51.55,0,0,1,307.23,304Z" style="fill:#263238"></path><rect x="401.91" y="328.5" width="12.04" height="4.52" style="fill:#455a64"></rect><rect x="401.91" y="315.54" width="5.57" height="4.52" style="fill:#455a64"></rect><rect x="401.91" y="322.61" width="30.26" height="1.68" style="fill:#e0e0e0"></rect><rect x="401.91" y="325.8" width="19.26" height="0.64" style="fill:#e0e0e0"></rect><rect x="11.91" y="312.07" width="390" height="24.45" style="fill:#455a64"></rect><path d="M13.07,317.27c0-.14,87-.26,194.37-.26s194.39.12,194.39.26-87,.26-194.39.26S13.07,317.42,13.07,317.27Z" style="fill:#263238"></path><path d="M12.13,330.76c0-.14,87.24-.26,194.84-.26s194.86.12,194.86.26S314.61,331,207,331,12.13,330.91,12.13,330.76Z" style="fill:#263238"></path><path d="M285.28,331.16a43.24,43.24,0,0,1-.26-6.76,43.24,43.24,0,0,1,.26-6.76,44.76,44.76,0,0,1,.26,6.76A44.76,44.76,0,0,1,285.28,331.16Z" style="fill:#263238"></path><path d="M159.86,331.16a43.24,43.24,0,0,1-.26-6.76,43.24,43.24,0,0,1,.26-6.76,44.76,44.76,0,0,1,.26,6.76A44.76,44.76,0,0,1,159.86,331.16Z" style="fill:#263238"></path><path d="M396,336.63c0,.14-86,.23-192.06.2s-192.07-.17-192.07-.31,86-.24,192.07-.21S396,336.48,396,336.63Z" style="fill:#263238"></path><path d="M396,312.07c0,.14-86,.26-192.06.26s-192.07-.12-192.07-.26,86-.26,192.07-.26S396,311.92,396,312.07Z" style="fill:#263238"></path><path d="M402,336.14c-.14,0-.26-5.42-.26-12.09s.12-12.1.26-12.1.26,5.42.26,12.1S402.16,336.14,402,336.14Z" style="fill:#263238"></path><polygon points="632.49 336.52 632.49 345.81 622.44 353.28 559.58 353.28 550.23 345.64 550.04 336.52 632.49 336.52" style="fill:#455a64"></polygon><rect x="559.55" y="353.28" width="63.22" height="7.97" transform="translate(1182.32 714.54) rotate(180)" style="fill:#455a64"></rect><rect x="568.06" y="361.26" width="44.87" height="121.92" transform="translate(1180.98 844.44) rotate(180)" style="fill:#455a64"></rect><path d="M568.63,369c1.27,0,37.17,26.57,37.17,26.57v87.58h7.13V361.26H568.06Z" style="opacity:0.30000000000000004"></path><polygon points="632.49 345.81 550.23 345.64 559.55 353.28 622.44 353.28 632.49 345.81" style="opacity:0.30000000000000004"></polygon><path d="M559.57,353.28c0-.14,14.16-.29,31.62-.33s31.62.05,31.62.19-14.15.3-31.62.33S559.57,353.43,559.57,353.28Z" style="fill:#263238"></path><path d="M550.23,345.81c0-.14,18.56-.27,41.44-.29s41.43.08,41.43.23-18.54.27-41.43.29S550.23,346,550.23,345.81Z" style="fill:#263238"></path><rect x="623.28" y="303.68" width="5.05" height="8.35" transform="translate(1251.61 615.71) rotate(180)" style="fill:#455a64"></rect><rect x="618.75" y="302.39" width="14.12" height="1.72" transform="translate(1251.61 606.49) rotate(180)" style="fill:#455a64"></rect><path d="M618.49,304A101.35,101.35,0,0,1,633,304a101.35,101.35,0,0,1-14.51,0Z" style="fill:#263238"></path><rect x="511.76" y="328.5" width="12.04" height="4.52" transform="translate(1035.56 661.52) rotate(180)" style="fill:#455a64"></rect><rect x="518.23" y="315.54" width="5.57" height="4.52" transform="translate(1042.03 635.59) rotate(180)" style="fill:#455a64"></rect><rect x="523.8" y="312.07" width="213.24" height="24.45" transform="translate(1260.85 648.59) rotate(180)" style="fill:#455a64"></rect><path d="M736.41,317.27c0,.15-47.59.26-106.28.26s-106.29-.11-106.29-.26,47.58-.26,106.29-.26S736.41,317.13,736.41,317.27Z" style="fill:#263238"></path><path d="M736.41,330.76c0,.15-47.59.26-106.28.26s-106.29-.11-106.29-.26,47.58-.26,106.29-.26S736.41,330.62,736.41,330.76Z" style="fill:#263238"></path><path d="M640.43,331.16a44.76,44.76,0,0,1-.26-6.76,44.76,44.76,0,0,1,.26-6.76,43.24,43.24,0,0,1,.26,6.76A43.24,43.24,0,0,1,640.43,331.16Z" style="fill:#263238"></path><path d="M527,336.63c0-.15,47.28-.26,105.59-.26s105.61.11,105.61.26-47.27.26-105.61.26S527,336.77,527,336.63Z" style="fill:#263238"></path><path d="M527,312.07c0-.15,47.28-.26,105.59-.26s105.61.11,105.61.26-47.27.26-105.61.26S527,312.21,527,312.07Z" style="fill:#263238"></path><path d="M523.7,336.14c-.15,0-.26-5.42-.26-12.09s.11-12.1.26-12.1.26,5.42.26,12.1S523.84,336.14,523.7,336.14Z" style="fill:#263238"></path></g></svg>
