<svg xmlns="http://www.w3.org/2000/svg" viewBox="0 0 500 500"><g id="background-complete"><path d="M433.21,469C412.66,462.52,402,441.89,396.44,422c-.92-3.31-2.37-6.65-1.72-10s3.67-6.48,7-6c2.8.38,4.75,2.88,6.85,4.79a20,20,0,0,0,10,4.92c2.42.43,5.21.28,6.92-1.51,2.33-2.45,1.43-6.46.39-9.71q-2.94-9.11-5.86-18.19c-1.05-3.25-2.1-6.58-2.07-10s1.38-7,4.2-8.84,7.23-1.26,8.89,1.72a32.38,32.38,0,0,1,1.37,4c.52,1.33,1.62,2.62,3,2.6s2.44-1.37,3.11-2.63c2.33-4.35,3.27-9.31,4.08-14.19s1.52-9.86,3.44-14.41,5.24-8.73,9.83-10.46,10.46-.42,13.09,3.79,1.42,9.73-.33,14.36a76.21,76.21,0,0,1-10.6,19.22,6.22,6.22,0,0,0-1.67,3.52c0,2.39,2.71,3.9,5.08,3.94,2.69.05,5.24-1,7.88-1.54s5.74-.25,7.46,1.85c2.38,2.91.7,7.28-1.32,10.43a65.57,65.57,0,0,1-15.09,16.46c-2.12,1.63-4.41,3.2-5.81,5.49s-1.64,5.59.25,7.52,5.12,1.72,7.48.46,4.19-3.33,6.29-5c3.95-3.1,9.83-4.62,13.92-1.65,2.69,1.95,4,5.44,4,8.77a25,25,0,0,1-2.4,9.61,65.72,65.72,0,0,1-20.84,27.24C454,465.5,444.72,469.5,433.21,469" style="fill:#ebebeb"></path><path d="M434.4,455.08a304.14,304.14,0,0,1,1.68-35.1c.31-3.09.62-6.16.92-9.17s.61-6,1.09-8.9a153.28,153.28,0,0,1,3.7-16.52c1.43-5.2,3-10.08,4.46-14.63s3-8.77,4.47-12.55a121.85,121.85,0,0,1,8.41-17.32c1.15-2,2.1-3.45,2.75-4.45.31-.48.56-.85.75-1.13a2.74,2.74,0,0,1,.27-.38,1.76,1.76,0,0,1-.22.41l-.69,1.17c-.62,1-1.53,2.53-2.64,4.51a127.44,127.44,0,0,0-8.22,17.36c-1.47,3.78-2.92,8-4.38,12.55s-3,9.43-4.4,14.62A153.87,153.87,0,0,0,438.69,402c-.47,2.89-.77,5.85-1.07,8.87s-.6,6.07-.91,9.17a315.35,315.35,0,0,0-1.74,35" style="fill:#e0e0e0"></path><path d="M438.25,401.83a7.21,7.21,0,0,1-.76-1.29c-.45-.85-1.07-2.09-1.81-3.64-1.48-3.1-3.38-7.45-5.46-12.26s-4-9.12-5.57-12.19c-.76-1.53-1.38-2.77-1.83-3.62a7.15,7.15,0,0,1-.63-1.36,6.68,6.68,0,0,1,.85,1.24c.51.82,1.19,2,2,3.54,1.63,3,3.66,7.33,5.74,12.14l5.3,12.32c.64,1.48,1.19,2.72,1.62,3.72A6.34,6.34,0,0,1,438.25,401.83Z" style="fill:#e0e0e0"></path><path d="M477.69,380.8a9.35,9.35,0,0,1-1.61.72c-1.05.44-2.56,1.06-4.41,1.89-3.71,1.62-8.75,4-14.2,7s-10.25,5.78-13.67,7.95c-1.72,1.07-3.09,2-4,2.59a8.6,8.6,0,0,1-1.51.92,8.75,8.75,0,0,1,1.37-1.12c.91-.68,2.24-1.65,3.93-2.77,3.37-2.27,8.17-5.2,13.62-8.14A156.63,156.63,0,0,1,471.49,383c1.88-.77,3.43-1.33,4.5-1.7A10,10,0,0,1,477.69,380.8Z" style="fill:#e0e0e0"></path><path d="M434.67,454.14s-.17-.13-.45-.42-.72-.77-1.19-1.29c-1-1.12-2.49-2.79-4.25-4.87-3.54-4.16-8.24-10.07-13.34-16.65s-9.74-12.53-13.18-16.76l-4.09-5-1.11-1.37c-.24-.32-.37-.49-.35-.51a2.69,2.69,0,0,1,.45.43c.32.34.72.77,1.19,1.29,1,1.12,2.49,2.79,4.25,4.87,3.54,4.16,8.24,10.07,13.34,16.66s9.74,12.52,13.18,16.75l4.09,5,1.1,1.37A3.22,3.22,0,0,1,434.67,454.14Z" style="fill:#e0e0e0"></path><path d="M484.7,418.66a3.48,3.48,0,0,1-.49.4l-1.44,1.05-5.36,3.81c-4.52,3.22-10.71,7.74-17.54,12.74s-13.08,9.46-17.67,12.59c-2.29,1.56-4.16,2.81-5.47,3.65l-1.51,1a2.19,2.19,0,0,1-.55.29,3,3,0,0,1,.48-.4l1.45-1.05,5.35-3.81c4.52-3.22,10.71-7.74,17.55-12.74s13.07-9.46,17.66-12.59c2.29-1.56,4.16-2.81,5.47-3.65l1.51-.95A2,2,0,0,1,484.7,418.66Z" style="fill:#e0e0e0"></path><rect x="244.49" y="172.46" width="112.41" height="201.94" style="fill:#ebebeb"></rect><rect x="248.98" y="178.32" width="102.27" height="190.06" style="fill:#fafafa"></rect><polygon points="361.65 376.22 356.9 374.4 356.9 169.04 361.65 169.04 361.65 376.22" style="fill:#e0e0e0"></polygon><rect x="248.98" y="232.99" width="104.49" height="2.02" style="fill:#e0e0e0"></rect><rect x="248.98" y="278.25" width="104.49" height="2.02" style="fill:#e0e0e0"></rect><rect x="248.98" y="323.52" width="104.49" height="2.02" style="fill:#e0e0e0"></rect><rect x="230.23" y="301.3" width="139.77" height="5.17" transform="translate(-3.77 604) rotate(-90)" style="fill:#e0e0e0"></rect><rect x="268.67" y="178.32" width="2.34" height="55.69" style="fill:#e0e0e0"></rect><rect x="288.86" y="178.32" width="2.34" height="55.69" style="fill:#e0e0e0"></rect><rect x="309.05" y="178.32" width="2.34" height="55.69" style="fill:#e0e0e0"></rect><rect x="329.24" y="178.32" width="2.34" height="55.69" style="fill:#e0e0e0"></rect><rect x="239.74" y="169.04" width="4.75" height="206.61" style="fill:#e0e0e0"></rect><rect x="239.74" y="166.95" width="121.92" height="5.51" style="fill:#e0e0e0"></rect><rect x="236.36" y="376.9" width="128.51" height="5.13" style="fill:#e0e0e0"></rect><polygon points="356.9 374.4 364.87 376.9 236.36 376.9 244.49 374.4 356.9 374.4" style="fill:#e0e0e0"></polygon><rect x="89.54" y="294.97" width="52.36" height="54.58" style="fill:#e0e0e0"></rect><rect x="86" y="294.97" width="52.36" height="54.58" style="fill:#fafafa"></rect><path d="M138.37,349.57H86V295h52.39Zm-52.36,0h52.33V295H86Z" style="fill:#e0e0e0"></path><rect x="93.04" y="302.31" width="38.28" height="39.9" style="fill:#fff"></rect><path d="M93,342.48a7.06,7.06,0,0,1-1,1.1c-.61.64-1.47,1.51-2.43,2.46s-1.85,1.8-2.5,2.4a6.59,6.59,0,0,1-1.11.92,6.15,6.15,0,0,1,.94-1.1c.61-.64,1.47-1.52,2.44-2.47s1.85-1.8,2.5-2.4A5.65,5.65,0,0,1,93,342.48Z" style="fill:#e0e0e0"></path><path d="M131.32,342.38a6.59,6.59,0,0,1,1.1.94c.64.62,1.51,1.47,2.46,2.44s1.8,1.85,2.4,2.5a6.34,6.34,0,0,1,.92,1.1,5.34,5.34,0,0,1-1.1-.93c-.64-.62-1.52-1.48-2.47-2.44s-1.8-1.86-2.4-2.51A5.46,5.46,0,0,1,131.32,342.38Z" style="fill:#e0e0e0"></path><path d="M131.21,302.41a6.78,6.78,0,0,1,.95-1.09c.61-.65,1.47-1.52,2.43-2.47s1.85-1.8,2.5-2.4a5.77,5.77,0,0,1,1.11-.92,6.15,6.15,0,0,1-.94,1.1c-.61.64-1.47,1.52-2.44,2.47s-1.85,1.8-2.51,2.4A5.46,5.46,0,0,1,131.21,302.41Z" style="fill:#e0e0e0"></path><path d="M92.93,302.51a6.15,6.15,0,0,1-1.1-.94c-.64-.61-1.52-1.47-2.46-2.44s-1.8-1.84-2.4-2.5a6.34,6.34,0,0,1-.92-1.1,5.36,5.36,0,0,1,1.09.94c.65.61,1.52,1.47,2.48,2.43s1.79,1.86,2.39,2.51A5.8,5.8,0,0,1,92.93,302.51Z" style="fill:#e0e0e0"></path><path d="M131.21,342.21s0-.07,0-.19v-.56c0-.5,0-1.22,0-2.15,0-1.89,0-4.64,0-8.14,0-7,0-16.94-.08-28.86l.15.14-38.17,0h0l.17-.17c0,14.64,0,28.35,0,39.9l-.14-.14,27.64.07,7.76,0,2.06,0h0l-2,0-7.73,0L93,342.36h-.15v-.15c0-11.55,0-25.26,0-39.9v-.17H93l38.17,0h.15v.15c0,12-.06,21.95-.08,29,0,3.48,0,6.22,0,8.1,0,.92,0,1.63,0,2.12,0,.23,0,.41,0,.54A.93.93,0,0,1,131.21,342.21Z" style="fill:#e0e0e0"></path><rect x="105.79" y="315.87" width="12.77" height="12.77" style="fill:#ebebeb"></rect><rect x="163.66" y="270.36" width="53.38" height="55.65" style="fill:#e0e0e0"></rect><rect x="160.04" y="270.36" width="53.38" height="55.65" style="fill:#fafafa"></rect><path d="M213.44,326H160V270.35h53.41Zm-53.38,0h53.35V270.38H160.06Z" style="fill:#e0e0e0"></path><rect x="167.22" y="277.84" width="39.03" height="40.69" style="fill:#fff"></rect><path d="M167.22,318.8a6.42,6.42,0,0,1-1,1.12c-.63.66-1.5,1.55-2.49,2.51s-1.88,1.83-2.55,2.44a5.58,5.58,0,0,1-1.12.94,6.1,6.1,0,0,1,1-1.11c.63-.66,1.51-1.55,2.49-2.52s1.89-1.83,2.56-2.45A5.71,5.71,0,0,1,167.22,318.8Z" style="fill:#e0e0e0"></path><path d="M206.25,318.7a6.88,6.88,0,0,1,1.12,1c.66.63,1.55,1.5,2.51,2.48s1.83,1.89,2.44,2.55a5.77,5.77,0,0,1,.94,1.13,6.49,6.49,0,0,1-1.11-1c-.66-.62-1.55-1.5-2.52-2.48s-1.83-1.89-2.45-2.56A5.71,5.71,0,0,1,206.25,318.7Z" style="fill:#e0e0e0"></path><path d="M206.14,278a6.42,6.42,0,0,1,1-1.12c.63-.66,1.5-1.55,2.49-2.51s1.88-1.83,2.55-2.44a5.58,5.58,0,0,1,1.12-.94,6.1,6.1,0,0,1-.95,1.11c-.63.66-1.51,1.55-2.49,2.52s-1.89,1.83-2.56,2.45A5.71,5.71,0,0,1,206.14,278Z" style="fill:#e0e0e0"></path><path d="M167.11,278.05a6.42,6.42,0,0,1-1.12-1c-.66-.63-1.55-1.5-2.51-2.48s-1.83-1.89-2.44-2.55a5.77,5.77,0,0,1-.94-1.13,6.49,6.49,0,0,1,1.11,1c.66.62,1.55,1.5,2.52,2.48s1.84,1.89,2.45,2.56A5.71,5.71,0,0,1,167.11,278.05Z" style="fill:#e0e0e0"></path><path d="M206.14,318.53s0-.07,0-.2,0-.33,0-.57c0-.51,0-1.24,0-2.19,0-1.93,0-4.74,0-8.3,0-7.12,0-17.27-.08-29.43l.15.15-38.92,0h0l.17-.18c0,14.94,0,28.91,0,40.69l-.15-.15,28.18.08,7.92,0,2.09,0h0l-2.06,0-7.88,0-28.28.08h-.15v-.15c0-11.78,0-25.75,0-40.69v-.17h.17l38.92,0h.15v.15c0,12.2-.06,22.38-.07,29.53,0,3.55,0,6.34,0,8.26,0,.94,0,1.66,0,2.17,0,.23,0,.41,0,.55A1.23,1.23,0,0,1,206.14,318.53Z" style="fill:#e0e0e0"></path><rect x="180.22" y="291.67" width="13.02" height="13.02" style="fill:#ebebeb"></rect><path d="M25.81,330.5s-7.7,1.1-3.32,17.94S30.56,374,30.56,374s.6,3.81-2.48,3.71-9.36-2.59-11.48.74-.25,7.59,4.59,11.92,15.11,14.2,16,15.1,1.6,2.74-.51,3S19.62,407,19.23,414.15s15.09,17,16.76,18.11,1.93,2,1.56,2.95-5.35-.08-9.63-.39-9.31.08-9.18,4.23,8.26,14.6,31.94,22.32l11.2,2.86,8.25-8.18c16.58-18.57,18.36-31.71,16.38-35.36s-6.52-1.46-10.06,1-7.33,5.84-8.13,5.19-1-1.54-.13-3.34,9.31-18.08,5.38-24.08-16,3-18,3.85-2.29-1.13-1.95-2.34,4.25-14.93,6.26-21.11,1.61-10.73-2-12.61-7.69,3.49-10.29,5.13-4-2-4-2S42.39,361,37.7,344.27s-12.05-13.73-12.05-13.73" style="fill:#ebebeb"></path><path d="M61.88,467c-3.39-12.32-9.05-34.32-14-53.18s-9.46-35.93-12.79-48.27l-4-14.6-1.07-4c-.11-.44-.2-.78-.27-1s-.08-.36-.08-.36.05.12.12.35l.3,1c.27.91.65,2.24,1.14,3.95,1,3.44,2.37,8.42,4.07,14.58,3.39,12.32,7.93,29.38,12.89,48.24S58.8,454.61,62.13,467" style="fill:#e0e0e0"></path><path d="M25.25,382.23a3.55,3.55,0,0,1,.74.39c.46.27,1.12.68,1.93,1.2,1.62,1,3.82,2.52,6.22,4.21l6.12,4.33,1.86,1.3a4.39,4.39,0,0,1,.67.51,3.55,3.55,0,0,1-.74-.39c-.47-.27-1.13-.68-1.93-1.21-1.61-1.05-3.79-2.56-6.19-4.25L27.78,384l-1.87-1.29A4.56,4.56,0,0,1,25.25,382.23Z" style="fill:#e0e0e0"></path><path d="M43.72,393.62c-.09-.06,2.78-4.72,6.4-10.43s6.62-10.29,6.7-10.23-2.78,4.72-6.4,10.42S43.8,393.67,43.72,393.62Z" style="fill:#e0e0e0"></path><path d="M50,422.92a4.4,4.4,0,0,1,.62-.59l1.74-1.54c1.46-1.29,3.48-3.09,5.64-5.16s4-4,5.41-5.41L65,408.55a4.58,4.58,0,0,1,.62-.59,3.73,3.73,0,0,1-.52.68c-.35.42-.87,1-1.53,1.75-1.31,1.46-3.18,3.43-5.34,5.5s-4.22,3.85-5.73,5.1c-.76.62-1.38,1.11-1.81,1.45A3.48,3.48,0,0,1,50,422.92Z" style="fill:#e0e0e0"></path><path d="M31.05,416.3a3.35,3.35,0,0,1,.77.18l2,.63c1.73.54,4.11,1.32,6.73,2.2s5,1.69,6.69,2.29l2,.74a3.68,3.68,0,0,1,.72.31,2.87,2.87,0,0,1-.77-.18l-2-.63c-1.72-.54-4.1-1.32-6.72-2.19s-5-1.69-6.7-2.3l-2-.74A4,4,0,0,1,31.05,416.3Z" style="fill:#e0e0e0"></path><path d="M33.33,442.88a4.47,4.47,0,0,1,1,.24l2.64.8c2.21.68,5.27,1.65,8.64,2.74s6.41,2.11,8.61,2.85l2.6.9a6.16,6.16,0,0,1,.94.38,4.47,4.47,0,0,1-1-.24l-2.64-.8c-2.21-.68-5.27-1.65-8.64-2.74s-6.41-2.11-8.61-2.85l-2.6-.9A7.82,7.82,0,0,1,33.33,442.88Z" style="fill:#e0e0e0"></path><path d="M57.21,450.44a5.38,5.38,0,0,1,.75-.78l2.14-2c1.8-1.71,4.28-4.08,6.95-6.78s5-5.2,6.71-7l2-2.16a7,7,0,0,1,.76-.76,5.35,5.35,0,0,1-.66.86c-.44.53-1.09,1.3-1.92,2.23-1.64,1.87-4,4.4-6.64,7.1s-5.18,5.05-7,6.72c-.92.83-1.68,1.49-2.21,1.94A7.24,7.24,0,0,1,57.21,450.44Z" style="fill:#e0e0e0"></path><path d="M117.73,97.93c.67-4.83-6.16-8.81-11.28-9.22-2.45-.2-5,.17-7.3-.63-5-1.75-7-8.24-11.92-10.3-3.67-1.55-7.88-.17-11.43,1.61s-7.06,4-11,4.29c-3.45.22-7.19-1.06-10.21.63-2.25,1.25-3.43,3.85-5.5,5.37s-4.67,1.82-7.19,1.95-5.12.16-7.41,1.21-4.19,3.47-3.71,6Z" style="fill:#f5f5f5"></path><path d="M174.19,51c.45-3.25-4.13-5.92-7.58-6.19-1.64-.14-3.34.11-4.9-.43-3.37-1.17-4.72-5.53-8-6.92-2.46-1-5.29-.11-7.67,1.09s-4.74,2.71-7.41,2.88c-2.31.15-4.83-.71-6.86.42-1.51.84-2.3,2.59-3.69,3.61a8.75,8.75,0,0,1-4.83,1.31,13.67,13.67,0,0,0-5,.81c-1.53.71-2.81,2.34-2.49,4Z" style="fill:#f5f5f5"></path><path d="M463.57,69.9c.45-3.24-4.13-5.92-7.58-6.19-1.64-.14-3.34.11-4.9-.43-3.37-1.17-4.72-5.53-8-6.92-2.46-1-5.29-.11-7.67,1.09s-4.74,2.71-7.41,2.88c-2.31.15-4.83-.71-6.86.42-1.51.85-2.3,2.59-3.69,3.61a8.75,8.75,0,0,1-4.83,1.31,13.47,13.47,0,0,0-5,.82c-1.54.7-2.81,2.33-2.49,4Z" style="fill:#fafafa"></path><path d="M95.77,183.48c.44-3.24-4.14-5.92-7.58-6.19-1.64-.14-3.35.11-4.91-.43-3.37-1.17-4.71-5.53-8-6.92-2.46-1-5.29-.11-7.68,1.09s-4.74,2.71-7.4,2.88c-2.32.15-4.83-.71-6.86.42-1.51.85-2.3,2.59-3.7,3.61a8.72,8.72,0,0,1-4.82,1.31,13.47,13.47,0,0,0-5,.82c-1.54.7-2.81,2.33-2.5,4Z" style="fill:#fafafa"></path><path d="M363.73,65.7c1-7.07-9-12.89-16.5-13.49-3.58-.29-7.29.25-10.68-.93-7.34-2.55-10.27-12-17.43-15.06C313.77,34,307.6,36,302.41,38.59s-10.32,5.9-16.12,6.27c-5,.32-10.52-1.55-14.93.92-3.29,1.83-5,5.62-8,7.86s-6.83,2.65-10.51,2.85-7.49.23-10.84,1.77-6.12,5.07-5.43,8.69Z" style="fill:#ebebeb"></path><path d="M427.45,125.28c.85-6.15-7.83-11.21-14.35-11.74-3.11-.25-6.34.23-9.29-.8-6.38-2.22-8.93-10.47-15.16-13.1-4.66-2-10-.22-14.54,2.06s-9,5.13-14,5.45c-4.38.28-9.15-1.34-13,.8-2.86,1.6-4.36,4.89-7,6.84s-5.95,2.3-9.15,2.48-6.51.2-9.43,1.54-5.32,4.41-4.72,7.56Z" style="fill:#f5f5f5"></path></g><g id="background-simple"><path d="M375.93,262.22c-6.11-23.17-17.61-45.27-35-61.74s-41-26.95-65-26.27-47.82,13.31-59.84,34-13,48.73-32.15,63c-14,10.37-33,9.63-49.76,14.26-27.92,7.71-50.85,33.74-51.34,62.7s2.93,92.07,125,86.59c45.42-2.88,94.1-7,129.34-35.76C376,367.32,388.69,310.65,375.93,262.22Z" style="fill:#ebebeb"></path></g><g id="Floor"><path d="M483.91,466.88c0,.14-104.74.26-233.9.26S16.09,467,16.09,466.88s104.71-.26,233.92-.26S483.91,466.73,483.91,466.88Z" style="fill:#263238"></path></g><g id="Character"><path d="M322.89,195.24c-2.92,1.38-4.35,4.81-4.56,8s.54,6.43.72,9.66-.34,6.74-2.59,9c-2.59,2.68-7.25,3.58-8.27,7.16s2.25,6.93,1.63,10.45c-.38,2.17-2.16,3.83-4,5s-4,1.95-5.71,3.32a11,11,0,0,0-3.91,10.28c.43,2.43,1.67,4.63,2.57,6.92s1.46,4.92.5,7.19c-1.62,3.84-6.56,4.85-9.64,7.66a10.21,10.21,0,0,0-1.53,12.79c1.18,1.76,3,3.49,2.63,5.57-.48,2.51-3.71,3.18-6.26,3.3l16.15,13.52s10.08-2.77,12.46-7.71,5.89-6.33,5.89-6.33-3.72,18.78-11.23,20l27.68,14.24,23.86-90.36Z" style="fill:#263238"></path><path d="M412.7,235.25c2,5.83-2.49,10.93.67,16.1,1.52,2.48,3.75,4.61,4.53,7.41,1.11,4-1,8.32.08,12.3,1.3,4.84,6.72,7.43,8.9,11.94,2.63,5.46-.13,11.89-3.1,17.18s-6.28,11.22-4.65,17.05a203.53,203.53,0,0,1-23.31-3.51,179.37,179.37,0,0,0,5.91-65.57" style="fill:#263238"></path><path d="M291.83,233.25l-8.06-68.42h0l-1.11-14.42-50.07-.08s1.45,1.53,2.41,2.34,29.6,6.12,29.6,6.12v3.32h0V239a19.18,19.18,0,0,0,8.2,15.73l64,44.64,19-27.3Z" style="fill:#ffbe9d"></path><polygon points="336 305.83 312.37 288.56 322.67 251.97 357.87 270.37 336 305.83" style="fill:#FF725E"></polygon><path d="M332.91,257.1s.08.13.17.4a3.39,3.39,0,0,1,.14,1.24,6.36,6.36,0,0,1-2.16,4,28.14,28.14,0,0,1-2.5,1.91,11.54,11.54,0,0,0-2.49,2.45,5.85,5.85,0,0,0-1.15,3.56,14.76,14.76,0,0,0,.81,4.08,20.17,20.17,0,0,1,1,4.18,11.5,11.5,0,0,1-.36,4,12.09,12.09,0,0,1-1.43,3.35,12.22,12.22,0,0,1-2,2.47,11.3,11.3,0,0,1-3.8,2.5,7.69,7.69,0,0,1-1.18.37,1.38,1.38,0,0,1-.43.07c0-.06.57-.18,1.53-.63a11.7,11.7,0,0,0,3.62-2.57,12,12,0,0,0,1.86-2.44,11.8,11.8,0,0,0,1.34-3.24,11.3,11.3,0,0,0,.31-3.84,20.37,20.37,0,0,0-1-4.07,14.63,14.63,0,0,1-.83-4.24,6.34,6.34,0,0,1,1.27-3.84,12.16,12.16,0,0,1,2.62-2.52c.92-.68,1.82-1.19,2.51-1.83a6.26,6.26,0,0,0,2.2-3.73A5.56,5.56,0,0,0,332.91,257.1Z" style="fill:#fff"></path><path d="M349.54,267.15a13.25,13.25,0,0,0-1.66.12A7.67,7.67,0,0,0,344,269.4a11,11,0,0,0-3,5.9,54,54,0,0,0-.66,8.29,26.54,26.54,0,0,1-.53,4.34,15,15,0,0,1-1.39,3.84A16.17,16.17,0,0,1,334,297a15.22,15.22,0,0,1-4.05,2.25,9.23,9.23,0,0,1-1.21.36,1.29,1.29,0,0,1-.43.08,19.67,19.67,0,0,0,5.46-3,16.23,16.23,0,0,0,4.22-5.19,18.72,18.72,0,0,0,1.83-8,50.88,50.88,0,0,1,.71-8.36,11.2,11.2,0,0,1,3.18-6.07,7.62,7.62,0,0,1,4.13-2.06,5.37,5.37,0,0,1,1.27,0C349.4,267.1,349.55,267.13,349.54,267.15Z" style="fill:#fff"></path><path d="M116.44,413.66,91.79,432.08s-25.14-20.11-30-17.15l32.15,50.32,39.58-27.13Z" style="fill:#FF725E"></path><path d="M104.44,445.78a2.46,2.46,0,0,1-1.33,3,2.36,2.36,0,0,1-3-1.29,2.57,2.57,0,0,1,1.42-3.14A2.43,2.43,0,0,1,104.5,446" style="fill:#fff"></path><path d="M93.91,465.25l4-2.73L65.16,415a4.12,4.12,0,0,0-3.93-.1Z" style="fill:#263238"></path><path d="M91.49,431.11c-.23.18.49,1.45.54,3.16s-.53,3-.28,3.2,1.38-1.16,1.29-3.24S91.68,430.91,91.49,431.11Z" style="fill:#fff"></path><path d="M85.8,427.44c-.27.11,0,1.43-.41,2.94s-1.36,2.5-1.18,2.73,1.63-.56,2.16-2.45S86,427.29,85.8,427.44Z" style="fill:#fff"></path><path d="M77.61,428.79c.1.25,1.53-.25,2.41-1.77s.64-3,.37-3-.49,1.22-1.24,2.46S77.47,428.53,77.61,428.79Z" style="fill:#fff"></path><path d="M97.58,427.54c-.15.25.94,1.12,1.79,2.54s1.15,2.77,1.44,2.75.44-1.62-.58-3.28S97.68,427.29,97.58,427.54Z" style="fill:#fff"></path><g style="opacity:0.30000000000000004"><polygon points="111.56 417.31 107.17 420.59 124.1 444.56 128.18 441.78 111.56 417.31"></polygon></g><path d="M102.62,423.91c-.1.07.4,1.12,1.71,2.45a13.87,13.87,0,0,0,2.57,2,14.74,14.74,0,0,0,1.73.89,3.89,3.89,0,0,0,1.09.34,1.29,1.29,0,0,0,1.36-.77,1.63,1.63,0,0,0-.18-1.43,4,4,0,0,0-.77-.84,11,11,0,0,0-1.58-1.16,10.86,10.86,0,0,0-3.06-1.24c-1.85-.4-3-.17-3-.06s1.13.2,2.8.75a12,12,0,0,1,2.76,1.34,11.07,11.07,0,0,1,1.41,1.11c.5.43.81.86.67,1.16-.06.11-.09.14-.31.14a3.33,3.33,0,0,1-.8-.26,15.79,15.79,0,0,1-1.65-.78,16.32,16.32,0,0,1-2.55-1.75C103.45,424.7,102.74,423.82,102.62,423.91Z" style="fill:#e0e0e0"></path><path d="M102.49,424.46c0,.11,1.21,0,2.82-1a9.81,9.81,0,0,0,2.46-2.2,10.23,10.23,0,0,0,1.06-1.66,2.46,2.46,0,0,0,.15-2.43,1.37,1.37,0,0,0-1.39-.55,3.8,3.8,0,0,0-1.08.37A6.89,6.89,0,0,0,103,421c-.6,1.84-.2,3-.1,3a23,23,0,0,1,.77-2.74,6.86,6.86,0,0,1,1.77-2.38,6.34,6.34,0,0,1,1.45-.94c.58-.29,1.13-.38,1.22-.15a1.76,1.76,0,0,1-.21,1.42,10.3,10.3,0,0,1-.91,1.53,10.8,10.8,0,0,1-2.13,2.18C103.51,423.94,102.44,424.31,102.49,424.46Z" style="fill:#e0e0e0"></path><path d="M177.7,437.18l-7.39,13.48v15.88H105.74s-2.65-5.65,1.49-7.41,36.24-16.27,36.24-16.27l13.4-19.81Z" style="fill:#FF725E"></path><polygon points="170.31 466.54 170.31 462.25 104.9 464.39 105.74 466.54 170.31 466.54" style="fill:#263238"></polygon><path d="M157.14,453.36a2.75,2.75,0,1,0,2.74-2.74A2.75,2.75,0,0,0,157.14,453.36Z" style="fill:#fff"></path><path d="M137.84,445.4c-.16.21,1,1.34,2.22,2.87s2.08,2.89,2.33,2.78-.28-1.74-1.6-3.37S138,445.2,137.84,445.4Z" style="fill:#fff"></path><path d="M143.7,442.46c-.12.24.85.94,1.83,2s1.68,2,1.92,1.88-.12-1.39-1.25-2.53S143.8,442.23,143.7,442.46Z" style="fill:#fff"></path><path d="M147.56,437.61c0,.26,1.1.45,2.26,1.06s2,1.36,2.18,1.21-.35-1.34-1.75-2.05S147.53,437.36,147.56,437.61Z" style="fill:#fff"></path><path d="M131.11,448.62c-.17.2.51,1.05,1.28,2.12s1.39,2,1.63,1.86,0-1.25-.87-2.41S131.27,448.42,131.11,448.62Z" style="fill:#fff"></path><path d="M146.89,437.51s0-.05-.07,0,0,.15,0,.21.16.14.25.14l.27,0a6.66,6.66,0,0,0,1.75-.1,8.7,8.7,0,0,0,2.48-.85,4.7,4.7,0,0,0,1.34-.94,1.6,1.6,0,0,0,.17-2.06,2.15,2.15,0,0,0-1.87-.62,4.9,4.9,0,0,0-1.57.41,5.21,5.21,0,0,0-2.1,1.68c-.9,1.27-.84,2.29-.74,2.28s.34-.86,1.26-1.86a5.24,5.24,0,0,1,1.91-1.31c.74-.3,2-.46,2.38,0,.18.18.12.58-.13.87a4.65,4.65,0,0,1-1.06.79,10.86,10.86,0,0,1-2.22.95,14.94,14.94,0,0,1-1.62.39l-.26.05c-.07,0,0,0-.1,0a.15.15,0,0,0-.09,0S146.89,437.51,146.89,437.51Z" style="fill:#e0e0e0"></path><path d="M147.24,437.9s.25-.2.37-.71a5.72,5.72,0,0,0,0-2.14,24.41,24.41,0,0,0-.65-3c-.16-.56-.34-1.14-.56-1.76a3,3,0,0,0-.6-1,1.23,1.23,0,0,0-1.43-.3,1.9,1.9,0,0,0-.83,1,3.31,3.31,0,0,0-.3,1.07,5.19,5.19,0,0,0,.22,2,9.6,9.6,0,0,0,1.46,2.83c1.1,1.44,2.1,2,2.17,1.91s-.73-.84-1.62-2.28a10.32,10.32,0,0,1-1.18-2.69,4.46,4.46,0,0,1-.14-1.63,2,2,0,0,1,.63-1.29c.15-.16.57.24.76.77s.42,1.13.6,1.67c.35,1.09.61,2.08.82,2.92A8.56,8.56,0,0,1,147.24,437.9Z" style="fill:#e0e0e0"></path><path d="M216.55,345.15s-17.5,1.36-23.75,5.47-84.09,64.49-84.09,64.49l20,28.47L181.55,416Z" style="fill:#263238"></path><path d="M402,419.59s-6.65,29.18-8.37,33.68c-2.41,6.33-27.22,20.68-57.54,12.92-31.33-8-105.89-68.6-105.89-68.6l-7.46,5.48-46.63,43.31s-26.78-11-26.78-22.11c0,0,56.68-86.5,61.85-88.13s10.46-3.24,16.74-1.92,100.53,53,100.53,53h0Z" style="fill:#263238"></path><path d="M176.14,446.38a2.82,2.82,0,0,1-.65-.2l-1.84-.7a63.14,63.14,0,0,1-6.8-3.09,52.12,52.12,0,0,1-9.65-6.4,37,37,0,0,1-5-5.07,23,23,0,0,1-4-6.84l0-.12.08-.13,18.32-27.08c10.77-15.81,20.76-30,28.18-40.08,3.71-5.06,6.76-9.12,8.9-11.9l2.47-3.19.66-.82c.15-.18.23-.27.24-.26a1.27,1.27,0,0,1-.18.31l-.6.86q-.87,1.18-2.37,3.27l-8.71,12c-7.32,10.18-17.23,24.38-28,40.19l-18.39,27,0-.26a22.76,22.76,0,0,0,3.87,6.64,36.17,36.17,0,0,0,4.9,5,53.3,53.3,0,0,0,9.49,6.47,71.14,71.14,0,0,0,6.69,3.23l1.81.78Z" style="fill:#455a64"></path><path d="M229.83,384.25c-.21-.12-1.63,2.85-1.49,6.81s1.7,6.83,1.9,6.7-.87-3-1-6.73S230.1,384.33,229.83,384.25Z" style="fill:#455a64"></path><path d="M223.28,386.77c-.23.09.65,2.78,2.38,5.79s3.62,5.12,3.81,5-1.3-2.49-3-5.44S223.53,386.66,223.28,386.77Z" style="fill:#455a64"></path><path d="M386,194.76c-5-10.73-13.77-17.71-31.54-19.2-18.9-1.58-48.77,20.06-29.07,47.74l55.89,19.62c5.56-1.77,8.43-7.91,9.58-13.62C393.19,217.71,391,205.48,386,194.76Z" style="fill:#263238"></path><path d="M353.66,283.13c-3.05-14.46-4.76-23.08-4.75-23s-12.87.35-18.62-15.41c-2.85-7.84-5-21.19-6.45-32.17-1.28-9.87,2.86-23.11,12.78-24l31.86,1.78a5.83,5.83,0,0,1,6.25,4.81h0L385,258.36" style="fill:#ffbe9d"></path><path d="M328.52,222.84a2.11,2.11,0,0,0,2.39,1.73,2,2,0,0,0,1.8-2.26,2.11,2.11,0,0,0-2.38-1.73A2,2,0,0,0,328.52,222.84Z" style="fill:#263238"></path><path d="M350.31,218.92a2.1,2.1,0,0,0,2.38,1.73,2,2,0,0,0,1.8-2.27,2.11,2.11,0,0,0-2.38-1.73A2,2,0,0,0,350.31,218.92Z" style="fill:#263238"></path><path d="M328.22,218.08c.3.23,1.7-1.2,4-1.55s4.1.51,4.3.19c.1-.14-.24-.59-1.05-1a5.82,5.82,0,0,0-3.49-.5,5.6,5.6,0,0,0-3.1,1.58C328.23,217.45,328.07,218,328.22,218.08Z" style="fill:#263238"></path><path d="M349.63,214.48c.31.22,1.66-1.27,3.9-1.71s4.12.36,4.31,0c.09-.15-.27-.59-1.09-1a5.86,5.86,0,0,0-3.51-.36,5.62,5.62,0,0,0-3,1.7C349.62,213.84,349.48,214.38,349.63,214.48Z" style="fill:#263238"></path><path d="M345.3,233.26a15.17,15.17,0,0,0-3.78.05c-.58.05-1.15.05-1.32-.33a2.91,2.91,0,0,1,.05-1.77c.27-1.49.55-3.06.85-4.7,1.15-6.67,1.86-12.11,1.59-12.15s-1.42,5.32-2.56,12c-.27,1.64-.53,3.21-.78,4.7a3.38,3.38,0,0,0,.14,2.31,1.48,1.48,0,0,0,1.11.66,3.89,3.89,0,0,0,1-.06A15.09,15.09,0,0,0,345.3,233.26Z" style="fill:#263238"></path><path d="M348.91,260.13a42.19,42.19,0,0,0,20.66-10s-3.31,12.38-19.89,14Z" style="fill:#eb996e"></path><path d="M358.92,205.22c-.22-.62-2.51-.35-5.19-.7s-4.84-1.1-5.2-.55c-.16.27.21.86,1.08,1.47a8.75,8.75,0,0,0,3.85,1.39,8.66,8.66,0,0,0,4.06-.44C358.51,206,359,205.52,358.92,205.22Z" style="fill:#263238"></path><path d="M333.89,206.93c-.6-.27-1.75.93-3.42,1.82s-3.27,1.3-3.35,1.95c0,.31.44.66,1.29.77a5.37,5.37,0,0,0,3.19-.69,5.32,5.32,0,0,0,2.26-2.34C334.21,207.65,334.16,207.08,333.89,206.93Z" style="fill:#263238"></path><path d="M376.08,217c.22-.16,8-5.56,9.95,4.17s-8.18,9.71-8.25,9.43S376.08,217,376.08,217Z" style="fill:#ffbe9d"></path><path d="M380,226.34s.2.09.51.16a1.74,1.74,0,0,0,1.27-.23c1-.59,1.48-2.4,1.17-4.16a5.76,5.76,0,0,0-1-2.33,2,2,0,0,0-1.54-1,.89.89,0,0,0-.91.67c-.07.3,0,.48,0,.51s-.24-.12-.24-.54a1.13,1.13,0,0,1,.26-.69,1.28,1.28,0,0,1,.88-.43,2.42,2.42,0,0,1,2.08,1.14,5.84,5.84,0,0,1,1.14,2.59c.34,2-.29,4-1.61,4.7a1.84,1.84,0,0,1-1.6.06C380.06,226.58,380,226.37,380,226.34Z" style="fill:#eb996e"></path><path d="M350.05,239.65a8.42,8.42,0,0,1-1.08-2.46,2.82,2.82,0,0,1,.61-2.51,2.87,2.87,0,0,1,2.31-.69,4.6,4.6,0,0,1,3.51,2.2,2.88,2.88,0,0,1,.44,2.09,4.87,4.87,0,0,1-2.63,2.31c-1.83.4-2.42-.61-3.16-.94" style="fill:#eb996e"></path><path d="M349.42,241.08c.36.06.65-2.36,2.93-3.83s4.83-.91,4.89-1.25c.05-.14-.52-.54-1.61-.69a6,6,0,0,0-4.06.9,5.28,5.28,0,0,0-2.3,3.23C349.06,240.44,349.26,241.07,349.42,241.08Z" style="fill:#263238"></path><path d="M332.17,187.07a97.05,97.05,0,0,0,48.69,20.44c.95-6.57-2.23-13.35-7.33-17.59s-11.88-6.15-18.52-6.19-13.17,1.67-19.4,4" style="fill:#263238"></path><path d="M377,198.55l-10.1,2.72c0,9.36.19,19.37,5.7,27.1,1.26,1.76,2.8,3.42,3.39,5.49,1.33,4.69-2.72,9.46-2.06,14.28a2,2,0,0,0,.67,1.4c.87.63,2.11-.14,2.79-1,3-3.56,3.21-8.49,3.18-13A209.74,209.74,0,0,0,377,198.55Z" style="fill:#263238"></path><path d="M340.28,222.57a20.61,20.61,0,0,0-.41-2.46,10.12,10.12,0,0,0-3.73-5.49,9.88,9.88,0,0,0-4.21-1.85,10.12,10.12,0,0,0-5.24.45,9.58,9.58,0,0,0-2.51,1.36,9.39,9.39,0,0,0-2.1,2.12,9.91,9.91,0,0,0,0,11.75,9.39,9.39,0,0,0,2.1,2.12,9.58,9.58,0,0,0,2.51,1.36,10.12,10.12,0,0,0,5.24.45,9.88,9.88,0,0,0,4.21-1.85,10.12,10.12,0,0,0,3.73-5.49,20.2,20.2,0,0,0,.41-2.47,7.88,7.88,0,0,1-.22,2.52,10.14,10.14,0,0,1-3.69,5.74,10.37,10.37,0,0,1-9.84,1.55,10,10,0,0,1-2.65-1.41,9.7,9.7,0,0,1-2.21-2.22,10.37,10.37,0,0,1,0-12.35,9.7,9.7,0,0,1,2.21-2.22,10,10,0,0,1,2.65-1.41,10.37,10.37,0,0,1,9.84,1.55,10.11,10.11,0,0,1,3.69,5.74A7.82,7.82,0,0,1,340.28,222.57Z" style="fill:#455a64"></path><path d="M365,217.4a20.2,20.2,0,0,0-.41-2.47,10.22,10.22,0,0,0-3.72-5.49,9.95,9.95,0,0,0-9.45-1.39,9,9,0,0,0-2.52,1.36,9.14,9.14,0,0,0-2.1,2.11,9.91,9.91,0,0,0,0,11.75,9.94,9.94,0,0,0,4.62,3.48,10,10,0,0,0,9.45-1.39,10.2,10.2,0,0,0,3.72-5.5,20.25,20.25,0,0,0,.41-2.46,7.82,7.82,0,0,1-.22,2.51,10.11,10.11,0,0,1-3.69,5.74,10.31,10.31,0,0,1-4.36,2,10.5,10.5,0,0,1-5.48-.43,10,10,0,0,1-2.65-1.41,9.7,9.7,0,0,1-2.21-2.22,10.37,10.37,0,0,1,0-12.35,9.86,9.86,0,0,1,2.21-2.21,9.72,9.72,0,0,1,2.65-1.42,10.39,10.39,0,0,1,5.48-.42,10.29,10.29,0,0,1,4.36,2,10.14,10.14,0,0,1,3.69,5.74A7.89,7.89,0,0,1,365,217.4Z" style="fill:#455a64"></path><path d="M344.4,216.74a15.92,15.92,0,0,0-2.76.52,15.19,15.19,0,0,0-2.41,1.44c-.13,0,.6-1.33,2.22-1.93A3.46,3.46,0,0,1,344.4,216.74Z" style="fill:#455a64"></path><path d="M395.33,257.59c1.58,1.54,18.52,6.13,22.09,28.79,1.27,8-16.52,143.08-16.52,143.08l-2.46.71a36.36,36.36,0,0,1-39.18-12.94l-4.13-5.55a53.3,53.3,0,0,0-11.87-11.59L321,383.14l16.24-14.86-1.58-16.51s-7.12-25.31-3.17-38,23-39.28,23-39.28L365,263.88Z" style="fill:#FF725E"></path><polygon points="411.82 271.12 431.37 316.68 392.69 338.15 379.26 304.84 411.82 271.12" style="fill:#FF725E"></polygon><path d="M415.72,254.51a28.43,28.43,0,0,0-5.3-6l-1-.93c3.71-4,4.48-9.55,2.39-16-1.24-3.83-3.3-6.18-11-12.67a43.51,43.51,0,0,1-13.3-20.75l-1.89,13.28,4.51,14-2.48,9.32-2.35,1.56-4.82-5.86c-1.28,7.88-4,10.79-8.69,15.59s-9.49,6.31-11.36,15.41c0,.16-.05.3-.08.46s-.09.43-.12.65a48.72,48.72,0,0,0-.87,8.91,11,11,0,0,1-1.16,3.64c-1.39,2.47-4.42,3.56-6.1,5.84s-1.76,5-1.71,7.73a39.57,39.57,0,0,1-.85,8c-1.32,7.35-8.18,9.91-10.69,8.93l12.06,11.16,6.69-4.34-4.36,5.47,4,3.74,5.39-3.29a13.6,13.6,0,0,0,3.27-9.64c-.1-3.43-.77-7.05.7-10.15,1.23-2.61,3.78-4.37,5.14-6.91,1.85-3.47,1.17-7.67.94-11.6a21,21,0,0,1,0-2.38,23,23,0,0,1,2.53-4.71c5-6.82,8.66-10.77,16.25-11.59,5.46-.09,8.77-.79,13.26,2.33,2.12,1.47,4.26,3.35,6.84,3.34a6.3,6.3,0,0,0,5.69-4.83A10.16,10.16,0,0,0,415.72,254.51Z" style="fill:#263238"></path><path d="M346.77,277.88a2.72,2.72,0,0,1-.25-.86,4.46,4.46,0,0,1,.43-2.52,6.93,6.93,0,0,1,2.75-3,41.45,41.45,0,0,1,4.83-2.29,12.48,12.48,0,0,0,2.59-1.61A5.66,5.66,0,0,0,359,265a7,7,0,0,0,.09-3.45c-.22-1.2-.59-2.42-.85-3.72a8.57,8.57,0,0,1,0-4.09,9,9,0,0,1,2.19-3.66c2-2.15,4.69-3.51,7.06-5.3a12.72,12.72,0,0,0,3.07-3.1,7.87,7.87,0,0,0,1.28-3.95,16.64,16.64,0,0,0-1.87-7.78,39.4,39.4,0,0,1-2.77-6.91,31.11,31.11,0,0,1-.68-6.47c-.05-4,.18-7.16.27-9.37.05-1.07.09-1.91.12-2.54a5.2,5.2,0,0,1,.06-.89,5.61,5.61,0,0,1,0,.89c0,.58,0,1.44,0,2.55,0,2.21-.2,5.41-.1,9.35a31.55,31.55,0,0,0,.73,6.38,39.17,39.17,0,0,0,2.79,6.81,17.15,17.15,0,0,1,1.94,8A8.33,8.33,0,0,1,371,242a13.22,13.22,0,0,1-3.18,3.24c-2.44,1.82-5.1,3.16-7,5.23a8.3,8.3,0,0,0-2.08,3.45,8,8,0,0,0,0,3.86c.24,1.26.61,2.49.83,3.73a7.46,7.46,0,0,1-.13,3.67,6,6,0,0,1-2,2.79,12.08,12.08,0,0,1-2.68,1.64,46.22,46.22,0,0,0-4.84,2.21,6.87,6.87,0,0,0-2.72,2.8,4.57,4.57,0,0,0-.51,2.42C346.68,277.58,346.8,277.87,346.77,277.88Z" style="fill:#263238"></path><path d="M367.38,348.12a5.65,5.65,0,0,1-1.36.27,16,16,0,0,1-3.78,0,17.94,17.94,0,0,1-16.11-16.59,16.58,16.58,0,0,1,.12-3.78,5.36,5.36,0,0,1,.31-1.35,27.63,27.63,0,0,0-.06,5.09A18.08,18.08,0,0,0,362.29,348,27.88,27.88,0,0,0,367.38,348.12Z" style="fill:#263238"></path><path d="M378.31,383.57a8,8,0,0,1-1.54-.19c-1-.15-2.42-.42-4.17-.8a106.41,106.41,0,0,1-13.43-3.91,104.71,104.71,0,0,1-12.8-5.66c-1.59-.83-2.85-1.54-3.71-2.07a8.92,8.92,0,0,1-1.3-.84,7.78,7.78,0,0,1,1.4.67c.89.46,2.17,1.12,3.77,1.91a124.91,124.91,0,0,0,26.16,9.54c1.73.42,3.14.75,4.12,1A8.52,8.52,0,0,1,378.31,383.57Z" style="fill:#263238"></path><path d="M348.36,287.8c.12.08-2.67,4.38-6.22,9.61s-6.54,9.39-6.66,9.31,2.67-4.38,6.23-9.61S348.24,287.72,348.36,287.8Z" style="fill:#263238"></path><g style="opacity:0.30000000000000004"><path d="M400.76,344.39c-1.86-2.69-4.16-5-3.77-8.29-1.42.72-2.88,1.32-4.3,2-6.84-13.12-13-27.2-15.62-41.8l-.25.34c-.56,16.52,5.07,32.56,10.63,48.14,1.33,3.72,2.86,7.71,6.17,9.88,2.8,1.84,7.18,1.66,8.91-1.21S402.63,347.09,400.76,344.39Z"></path></g><g style="opacity:0.30000000000000004"><path d="M347.32,335.16a14.11,14.11,0,0,0,.95,10.07c1.59,3.57,4.36,6.84,8.1,8s8.41-.48,9.83-4.12a20.79,20.79,0,0,1-19.69-12.68"></path></g><path d="M378.12,274a3.76,3.76,0,0,1-.33.6,11.43,11.43,0,0,0-.87,1.76,20.29,20.29,0,0,0-1.13,7.08c-.12,6.11,1.59,14.47,4.33,23.38a214.52,214.52,0,0,0,8.42,22.37c1.24,2.81,2.29,5.05,3,6.59l.85,1.78a4.3,4.3,0,0,1,.27.64,3.58,3.58,0,0,1-.37-.59c-.22-.39-.54-1-.93-1.74-.8-1.52-1.91-3.74-3.18-6.53a188.63,188.63,0,0,1-8.58-22.37c-2.75-8.93-4.42-17.36-4.21-23.54a19.38,19.38,0,0,1,1.32-7.15,9.2,9.2,0,0,1,1-1.73A3.07,3.07,0,0,1,378.12,274Z" style="fill:#263238"></path><path d="M425.8,307a4.6,4.6,0,0,0-1.71.27,6.19,6.19,0,0,0-1.73,1.08,23.43,23.43,0,0,0-1.88,2,7.56,7.56,0,0,1-6.48,2.89c-1.37,0-2.79-.18-4.25-.32a15.17,15.17,0,0,0-4.46.08,7.8,7.8,0,0,0-3.85,2,19.51,19.51,0,0,0-2.68,3.21,22.81,22.81,0,0,1-4.6,5.57,7.36,7.36,0,0,1-4.58,1.59,5.21,5.21,0,0,1-1.32-.24,1.45,1.45,0,0,1-.42-.2,7.85,7.85,0,0,0,1.74.24,7.5,7.5,0,0,0,4.36-1.68,24,24,0,0,0,4.43-5.55,19.23,19.23,0,0,1,2.72-3.32,8.31,8.31,0,0,1,4.09-2.18,15.62,15.62,0,0,1,4.62-.08c1.47.15,2.87.34,4.2.35a7.25,7.25,0,0,0,6.21-2.66,19.07,19.07,0,0,1,2-2,5.86,5.86,0,0,1,1.84-1.05,3.37,3.37,0,0,1,1.33-.17A1,1,0,0,1,425.8,307Z" style="fill:#fff"></path><path d="M419.43,290.59a4.62,4.62,0,0,0-1.72.27,6.15,6.15,0,0,0-1.72,1.08,19.51,19.51,0,0,0-1.88,2,7.6,7.6,0,0,1-6.48,2.89c-1.38,0-2.8-.18-4.26-.32a15.18,15.18,0,0,0-4.46.08,7.84,7.84,0,0,0-3.85,2.05,19.44,19.44,0,0,0-2.67,3.21,23,23,0,0,1-4.6,5.57A7.36,7.36,0,0,1,383.2,309a5.21,5.21,0,0,1-1.31-.24c-.29-.11-.43-.18-.42-.2a7.53,7.53,0,0,0,1.73.24,7.41,7.41,0,0,0,4.36-1.69,23.2,23.2,0,0,0,4.43-5.54,19.31,19.31,0,0,1,2.73-3.32,8.14,8.14,0,0,1,4.09-2.18,15.56,15.56,0,0,1,4.61-.08c1.47.15,2.88.34,4.21.35a8.26,8.26,0,0,0,3.65-.66,8,8,0,0,0,2.55-2,21.49,21.49,0,0,1,2-2,6.17,6.17,0,0,1,1.85-1,3.3,3.3,0,0,1,1.32-.17A1.13,1.13,0,0,1,419.43,290.59Z" style="fill:#fff"></path><path d="M411.82,271.12a9.3,9.3,0,0,1-1.17,1.24c-.79.76-1.93,1.86-3.47,3.1a7.12,7.12,0,0,1-2.93,1.43,12.66,12.66,0,0,1-3.72.19c-1.3-.09-2.64-.27-4-.36a11.14,11.14,0,0,0-4.2.43,8.55,8.55,0,0,0-3.48,2.34,23.93,23.93,0,0,0-2.46,3.17,19.66,19.66,0,0,1-4.5,5.24,7.2,7.2,0,0,1-4.43,1.41,4.65,4.65,0,0,1-1.25-.24c-.27-.11-.41-.17-.4-.19a9.33,9.33,0,0,0,1.66.23,7.14,7.14,0,0,0,4.2-1.51,19.59,19.59,0,0,0,4.32-5.21,23.44,23.44,0,0,1,2.49-3.25,9.08,9.08,0,0,1,3.68-2.49,11.71,11.71,0,0,1,4.4-.44c1.42.1,2.77.29,4.05.39a12.82,12.82,0,0,0,3.59-.13,6.72,6.72,0,0,0,2.8-1.3c1.54-1.18,2.72-2.24,3.55-3A15.15,15.15,0,0,1,411.82,271.12Z" style="fill:#fff"></path><path d="M344.68,327.59c-.09,0-.43-.82-1.27-2a12,12,0,0,0-1.68-1.87,13.72,13.72,0,0,0-2.52-1.78,13.53,13.53,0,0,0-2.87-1.11,12.44,12.44,0,0,0-2.49-.36c-1.44-.05-2.34.14-2.36,0a1.87,1.87,0,0,1,.62-.2,7.74,7.74,0,0,1,1.74-.21,10.93,10.93,0,0,1,2.6.26,13.07,13.07,0,0,1,3,1.12,13.46,13.46,0,0,1,2.6,1.88,11.66,11.66,0,0,1,1.66,2,8.43,8.43,0,0,1,.79,1.57C344.65,327.35,344.71,327.57,344.68,327.59Z" style="fill:#fff"></path><path d="M390.78,335.41a1.77,1.77,0,0,1-.24.46c-.09.15-.2.34-.34.55l-.55.68a10.21,10.21,0,0,1-1.8,1.6,11.44,11.44,0,0,1-2.87,1.38,11.11,11.11,0,0,1-8.16-.49,11.74,11.74,0,0,1-3.77-3.15c-1.09-1.3-2.06-2.75-3.2-4.1a9.61,9.61,0,0,0-4-3.06,7.69,7.69,0,0,0-4.62-.15c-2.94.79-5.34,2.29-7.48,3.24a15.46,15.46,0,0,1-5.32,1.57c-.33,0-.62,0-.87,0l-.64-.07a3.44,3.44,0,0,1-.52-.09,1.66,1.66,0,0,1,.53,0l.63,0c.25,0,.53-.05.85-.08a15.93,15.93,0,0,0,5.19-1.7c2.1-1,4.47-2.52,7.51-3.36a8.21,8.21,0,0,1,4.92.13,10.05,10.05,0,0,1,4.18,3.21c1.16,1.38,2.13,2.83,3.2,4.1a11.11,11.11,0,0,0,3.59,3.05,10.88,10.88,0,0,0,7.83.57,11.9,11.9,0,0,0,2.82-1.27A12.09,12.09,0,0,0,389.5,337l.58-.64c.13-.19.26-.36.37-.51A2.08,2.08,0,0,1,390.78,335.41Z" style="fill:#fff"></path><path d="M407.11,375.41s-.18-.24-.57-.62a4.67,4.67,0,0,0-2.09-1.12,8.24,8.24,0,0,0-3.76,0,16.78,16.78,0,0,0-4.62,2,16.71,16.71,0,0,1-5.8,2.27,7.65,7.65,0,0,1-3.49-.39,10.72,10.72,0,0,1-3.21-1.86,28.28,28.28,0,0,1-5.13-6,24.34,24.34,0,0,0-5.55-6.15,8.85,8.85,0,0,0-3.81-1.55,8.55,8.55,0,0,0-3.95.53c-2.5.95-4.62,2.56-6.91,3.63a11.15,11.15,0,0,1-7.05,1,15.37,15.37,0,0,1-5.74-2.4,28.77,28.77,0,0,1-6.37-6.3c-.66-.84-1.14-1.5-1.47-1.95a4.54,4.54,0,0,1-.47-.71,6.47,6.47,0,0,1,.56.65l1.53,1.88a30.1,30.1,0,0,0,6.42,6.12,15.18,15.18,0,0,0,5.62,2.28,10.68,10.68,0,0,0,6.76-1c2.23-1.05,4.35-2.67,6.95-3.68a8.94,8.94,0,0,1,4.19-.56,9.33,9.33,0,0,1,4,1.64,24.52,24.52,0,0,1,5.67,6.28,28.34,28.34,0,0,0,5,5.91,8.42,8.42,0,0,0,6.36,2.19,16.29,16.29,0,0,0,5.66-2.17,17,17,0,0,1,4.74-1.95,8.32,8.32,0,0,1,3.88.06,4.44,4.44,0,0,1,2.1,1.24A2.77,2.77,0,0,1,407.11,375.41Z" style="fill:#fff"></path><path d="M347,300a8.31,8.31,0,0,0-1.83-2.21,8.2,8.2,0,0,0-2.68-1c0-.06.34-.18.91-.15a4,4,0,0,1,2.07.76,4.08,4.08,0,0,1,1.39,1.72C347.09,299.6,347.09,300,347,300Z" style="fill:#fff"></path><path d="M381.8,312.24a6.34,6.34,0,0,1-2.05,1.13,15.14,15.14,0,0,1-11.13,0,6.34,6.34,0,0,1-2.05-1.13c0-.07.83.34,2.18.78a17.13,17.13,0,0,0,10.87,0C381,312.58,381.76,312.16,381.8,312.24Z" style="fill:#fff"></path><path d="M400.22,416.73s-.05.07-.16.19a7,7,0,0,1-.52.49,10.41,10.41,0,0,1-2.32,1.51,11.6,11.6,0,0,1-4.23,1.13,10.89,10.89,0,0,1-5.68-1.13,11.63,11.63,0,0,1-5.05-4.85c-1.25-2.28-1.56-5-2.08-7.79a17.62,17.62,0,0,0-1.22-4.09,7.58,7.58,0,0,0-2.89-3.21,10.21,10.21,0,0,0-4.35-1.29,20.64,20.64,0,0,0-4.76.21c-3.19.47-6.36,1.28-9.51,1a10.94,10.94,0,0,1-4.4-1.32,13.71,13.71,0,0,1-3.42-2.77,30.78,30.78,0,0,1-4.41-6.76,54.58,54.58,0,0,0-3.47-6,12.91,12.91,0,0,0-7.95-5.67,7.94,7.94,0,0,0-2.72-.07c-.61.1-.93.2-.94.17a5,5,0,0,1,.93-.27,7.43,7.43,0,0,1,2.76,0,13,13,0,0,1,8.22,5.66,52,52,0,0,1,3.55,6.05,30.9,30.9,0,0,0,4.38,6.63,13,13,0,0,0,3.31,2.66,10.41,10.41,0,0,0,4.21,1.25c3,.27,6.15-.52,9.39-1a21.52,21.52,0,0,1,4.87-.21,10.5,10.5,0,0,1,4.57,1.38A7.93,7.93,0,0,1,379.4,402a17,17,0,0,1,1.25,4.21c.51,2.78.8,5.49,2,7.67a11.28,11.28,0,0,0,4.84,4.73,10.61,10.61,0,0,0,5.49,1.17,11.68,11.68,0,0,0,4.16-1A14,14,0,0,0,400.22,416.73Z" style="fill:#fff"></path><path d="M442.17,356.25,428.8,318.31l-32.59,18.23,20.15,39.4,5.85,66.33c-.18.36-1,2-2.26,4l-5.07,6.21s-9.75.55-12.15,2.3-5.32,7.8-5.32,7.8a.28.28,0,0,0,0,.07l-1.94.81c-1.27.55-.17,2.73,1.7,2.73,1.53,0,11.5-3.77,14.77-5.13-1.68.95-4.87,3-5.88,3.68-2.24,1.47-2.28,3.71,3.71,1.48,1.9-.71,11.24-4.71,11.24-4.71s-6.2,3.94-4.84,4.68a5.23,5.23,0,0,0,3.35.2l10.65-6.69c3.23-2.21,6-2.73,7.42-4.27s1.84-7.3,1.88-9.08h0ZM405.7,457.33l3.66.08c-1.84.89-3.88,1.82-5.84,2.68A27.71,27.71,0,0,0,405.7,457.33Z" style="fill:#ffbe9d"></path><path d="M431.37,316.68a9.79,9.79,0,0,1-1.47.92L425.79,320l-13.59,7.7c-5.31,3-10.14,5.68-13.66,7.57-1.76.94-3.19,1.7-4.19,2.2a10.67,10.67,0,0,1-1.58.74,11.62,11.62,0,0,1,1.48-.92l4.11-2.34L412,327.2c5.3-3,10.13-5.69,13.66-7.57,1.76-.95,3.19-1.7,4.19-2.21A13.42,13.42,0,0,1,431.37,316.68Z" style="fill:#263238"></path></g><g id="Plant"><path d="M232.81,369c-.1.13-.95-.38-1.89-1.14s-1.63-1.47-1.53-1.6,1,.38,1.9,1.14S232.91,368.91,232.81,369Z" style="fill:#263238"></path><path d="M258.58,330.52c.16-3.6.26-7.29-.88-10.7s-3.77-6.57-7.3-7.3c-4-.83-8.15,1.71-10.4,5.15s-3,7.61-3.7,11.66A411.94,411.94,0,0,0,231.25,414l16.47,2.31C255,386.77,257.27,360.93,258.58,330.52Z" style="fill:#455a64"></path><path d="M248.12,312.4a1.09,1.09,0,0,1-.08.26l-.27.75c-.27.69-.63,1.64-1.1,2.84-.23.62-.53,1.29-.78,2.06s-.51,1.6-.8,2.49-.59,1.86-.92,2.87l-.85,3.27a144,144,0,0,0-3.18,16.3c-.89,6.19-1.48,13.05-1.94,20.26-.84,14.44-1,27.54-1.34,37-.18,4.74-.34,8.57-.52,11.22-.09,1.28-.16,2.3-.21,3,0,.32,0,.58-.07.8a1.11,1.11,0,0,1,0,.26.8.8,0,0,1,0-.27c0-.21,0-.47,0-.79,0-.75.06-1.77.1-3,.11-2.65.21-6.48.33-11.22.27-9.47.33-22.57,1.17-37,.47-7.22,1.07-14.1,2-20.31a136.1,136.1,0,0,1,3.32-16.33c.31-1.14.61-2.23.89-3.27s.67-2,1-2.86.59-1.72.85-2.49.58-1.43.83-2c.51-1.19.91-2.12,1.2-2.81l.33-.73C248.06,312.47,248.11,312.39,248.12,312.4Z" style="fill:#263238"></path><path d="M249.64,312.4a11.94,11.94,0,0,1,2,3.41,25.41,25.41,0,0,1,1.5,10.66c-.44,9.1-1.25,21.64-2.34,35.49s-2.29,26.37-3.27,35.43c-.48,4.52-.9,8.18-1.21,10.71-.16,1.22-.28,2.19-.38,2.9,0,.31-.08.55-.11.76a.83.83,0,0,1-.06.25.86.86,0,0,1,0-.26c0-.21,0-.46.06-.76.06-.72.15-1.69.26-2.92.25-2.59.6-6.24,1-10.73.87-9.06,2-21.58,3.1-35.42s2-26.39,2.5-35.46a25.6,25.6,0,0,0-1.3-10.56A22.07,22.07,0,0,0,249.64,312.4Z" style="fill:#263238"></path><path d="M261.07,355a9.11,9.11,0,0,1-3.13-.81,9,9,0,0,1-2.92-1.36,9.13,9.13,0,0,1,3.12.81A9.27,9.27,0,0,1,261.07,355Z" style="fill:#263238"></path><path d="M263.05,338.25a9.76,9.76,0,0,1-3,1.65,9.86,9.86,0,0,1-3.21,1.12,9.76,9.76,0,0,1,3-1.65A9.86,9.86,0,0,1,263.05,338.25Z" style="fill:#263238"></path><path d="M262,324.55a5.26,5.26,0,0,1-2.45.12,5.33,5.33,0,0,1-2.42-.46,10.38,10.38,0,0,1,4.87.34Z" style="fill:#263238"></path><path d="M245,315.77c-.14.09-.86-.81-1.61-2s-1.25-2.23-1.11-2.32.86.81,1.61,2S245.16,315.68,245,315.77Z" style="fill:#263238"></path><path d="M239.4,324.05c0,.17-1.05.28-2.34.25s-2.33-.18-2.32-.35a4.9,4.9,0,0,1,2.34-.24C238.37,323.74,239.41,323.89,239.4,324.05Z" style="fill:#263238"></path><path d="M235.37,340.63a5.74,5.74,0,0,1-2.46-.67c-1.3-.53-2.3-1.07-2.24-1.22s1.16.15,2.46.67S235.43,340.48,235.37,340.63Z" style="fill:#263238"></path><path d="M234.94,354.57c0,.16-.91.49-2.1.74s-2.18.33-2.21.17.9-.49,2.09-.74A4.55,4.55,0,0,1,234.94,354.57Z" style="fill:#263238"></path><path d="M233,377.38c0,.16-1,.47-2.22.7a4.9,4.9,0,0,1-2.33.12c0-.16,1-.48,2.22-.7A4.75,4.75,0,0,1,233,377.38Z" style="fill:#263238"></path><path d="M231.78,390c.08.14-.75.73-1.85,1.31s-2.06.94-2.13.8.75-.74,1.85-1.32S231.71,389.82,231.78,390Z" style="fill:#263238"></path><path d="M242.06,404.26c-.14.08-.86-.92-1.62-2.23a6.67,6.67,0,0,1-1.1-2.53c.14-.08.86.92,1.62,2.23A6.67,6.67,0,0,1,242.06,404.26Z" style="fill:#263238"></path><path d="M245,380.51c.11.12-.69,1.09-1.8,2.18s-2.1,1.87-2.22,1.76.7-1.09,1.8-2.18S244.91,380.4,245,380.51Z" style="fill:#263238"></path><path d="M244.37,368.05c-.12.11-.87-.5-1.67-1.37s-1.36-1.66-1.24-1.77.87.51,1.67,1.37S244.49,367.94,244.37,368.05Z" style="fill:#263238"></path><path d="M246.41,352.13c.12.11-.55,1.06-1.5,2.12s-1.82,1.83-1.94,1.72.55-1.05,1.5-2.11S246.29,352,246.41,352.13Z" style="fill:#263238"></path><path d="M247.56,340.58c-.12.12-1.05-.62-2.1-1.64s-1.79-1.95-1.68-2.07,1.05.62,2.1,1.65S247.67,340.47,247.56,340.58Z" style="fill:#263238"></path><path d="M249.81,325c.14.09-.33,1.13-1.05,2.34s-1.42,2.12-1.56,2a6.06,6.06,0,0,1,1.06-2.34C249,325.79,249.67,324.88,249.81,325Z" style="fill:#263238"></path><path d="M254.06,310.49a5.69,5.69,0,0,1-.93,2.34c-.66,1.22-1.31,2.14-1.45,2.06a5.62,5.62,0,0,1,.93-2.34C253.27,311.34,253.91,310.41,254.06,310.49Z" style="fill:#263238"></path><path d="M258.87,317.07c.07.14-.59.6-1.47,1s-1.66.64-1.73.5.59-.61,1.47-1S258.8,316.92,258.87,317.07Z" style="fill:#263238"></path><path d="M259,369a6.69,6.69,0,0,1-3.23-.78,6.59,6.59,0,0,1-2.79-1.79,16.32,16.32,0,0,1,3,1.25A16.52,16.52,0,0,1,259,369Z" style="fill:#263238"></path><path d="M257,380.05c0,.16-1,.48-2.22.73a4.85,4.85,0,0,1-2.33.15c0-.16,1-.49,2.22-.73A4.84,4.84,0,0,1,257,380.05Z" style="fill:#263238"></path><path d="M254.6,398.92a6.29,6.29,0,0,1-2.51-2.2,6.42,6.42,0,0,1-1.57-2.94,18.93,18.93,0,0,1,2,2.58A20.58,20.58,0,0,1,254.6,398.92Z" style="fill:#263238"></path><path d="M228.12,407.56c-.1-.13.57-.87,1.5-1.67s1.77-1.34,1.87-1.22-.56.87-1.49,1.67S228.23,407.68,228.12,407.56Z" style="fill:#263238"></path><path d="M220.51,366.36c-1.07-3.35-3.09-7.25-6.6-7.3a5.83,5.83,0,0,0-4.94,3.31,12.21,12.21,0,0,0-1.34,6.06,157.63,157.63,0,0,0,7.56,43.87h12.86A153,153,0,0,0,220.51,366.36Z" style="fill:#455a64"></path><path d="M197.25,345.28c-1.8-7.19-7.16-11.07-13.39-11.43-5.69,1-7.89,6.59-8.57,12.33s1.11,11.43,2.87,16.93q8.46,26.47,16.93,53l16-1.75C206,390.67,203.11,368.75,197.25,345.28Z" style="fill:#455a64"></path><path d="M213.91,359.06a13.72,13.72,0,0,0-1.09,1.82,11.9,11.9,0,0,0-.6,5.69c.25,2.44.53,5.38.94,8.61s1,6.77,1.72,10.47c1.46,7.38,3.09,14,4.13,18.85.53,2.41.93,4.37,1.18,5.73.11.63.19,1.15.27,1.57a2.13,2.13,0,0,1,0,.56,2,2,0,0,1-.17-.53c-.1-.42-.22-.93-.38-1.55-.34-1.43-.8-3.35-1.35-5.69-1.14-4.8-2.85-11.42-4.31-18.83-.72-3.71-1.29-7.26-1.68-10.51-.21-1.63-.34-3.18-.47-4.63s-.28-2.78-.35-4a11.77,11.77,0,0,1,.81-5.81A5.12,5.12,0,0,1,213.91,359.06Z" style="fill:#263238"></path><path d="M184.09,333.39a21.82,21.82,0,0,0-1.93,2.6,18.26,18.26,0,0,0-2.44,8.38c-.24,3.72.59,8.14,2,12.88s3,10,4.57,15.47c3.19,11,6.07,20.89,8.19,28.15,1,3.56,1.83,6.47,2.41,8.55.26,1,.47,1.75.63,2.33a4.18,4.18,0,0,1,.18.83,4.74,4.74,0,0,1-.29-.79c-.19-.58-.43-1.35-.74-2.3l-2.59-8.5c-2.16-7.25-5.1-17.15-8.36-28.1-1.6-5.5-3.13-10.73-4.52-15.49s-2.18-9.27-1.87-13.06a18,18,0,0,1,2.65-8.47A9.84,9.84,0,0,1,184.09,333.39Z" style="fill:#263238"></path><path d="M207.6,412.61a3.83,3.83,0,0,1-.36-.77c-.21-.51-.55-1.26-.92-2.25-.76-2-1.74-4.86-2.75-8.5s-2-8-3-12.9-1.94-10.27-3-15.92-2.35-11-3.79-15.72a88.84,88.84,0,0,0-4.67-12.33,64.27,64.27,0,0,0-4.31-7.77c-.55-.9-1.05-1.54-1.35-2a5.59,5.59,0,0,1-.45-.72,4,4,0,0,1,.55.65c.33.44.86,1.07,1.44,1.95a58.45,58.45,0,0,1,4.5,7.72,83.8,83.8,0,0,1,4.81,12.35,158,158,0,0,1,3.84,15.77c1.06,5.64,2.06,11,3,15.93S203,397.35,204,401s1.87,6.54,2.57,8.52c.33,1,.63,1.76.81,2.29A4.52,4.52,0,0,1,207.6,412.61Z" style="fill:#263238"></path><path d="M178.44,360.47c0,.16-.83.5-1.94.77s-2.05.36-2.09.21.84-.51,2-.78S178.4,360.31,178.44,360.47Z" style="fill:#263238"></path><path d="M176.75,349.55a8.11,8.11,0,0,1-2.7.29,8,8,0,0,1-2.72-.08,9.27,9.27,0,0,1,5.42-.21Z" style="fill:#263238"></path><path d="M178.55,339.57c-.11.13-1-.44-1.94-1.26s-1.67-1.58-1.56-1.71,1,.44,1.94,1.26S178.65,339.45,178.55,339.57Z" style="fill:#263238"></path><path d="M183.43,330.34c.16,0,.12.82.09,1.76s0,1.72-.19,1.74-.43-.75-.4-1.76S183.28,330.3,183.43,330.34Z" style="fill:#263238"></path><path d="M193.4,334.69c.14.09-.25.88-.87,1.76s-1.22,1.52-1.35,1.42.25-.88.87-1.76S193.27,334.6,193.4,334.69Z" style="fill:#263238"></path><path d="M199.88,345.94c.06.15-.77.63-1.85,1.07s-2,.68-2.08.53.77-.63,1.85-1.08S199.82,345.79,199.88,345.94Z" style="fill:#263238"></path><path d="M203.8,357.51a7.44,7.44,0,0,1-5.3,1.2,10.23,10.23,0,0,1,2.64-.67A10.29,10.29,0,0,1,203.8,357.51Z" style="fill:#263238"></path><path d="M185.78,354.22c-.16-.05-.05-.85.25-1.79s.65-1.65.81-1.6,0,.84-.25,1.78S185.93,354.27,185.78,354.22Z" style="fill:#263238"></path><path d="M188.29,368.75a5.62,5.62,0,0,1,.72-2.41c.55-1.26,1.12-2.23,1.27-2.17a5.62,5.62,0,0,1-.73,2.41C189,367.84,188.44,368.81,188.29,368.75Z" style="fill:#263238"></path><path d="M182.08,372.72a5.83,5.83,0,0,1-2.31-.5c-1.22-.39-2.21-.74-2.18-.9s1.1-.06,2.36.33S182.14,372.57,182.08,372.72Z" style="fill:#263238"></path><path d="M185.66,384.57c.09.13-.59.78-1.53,1.45s-1.78,1.11-1.88,1,.6-.78,1.54-1.45S185.56,384.43,185.66,384.57Z" style="fill:#263238"></path><path d="M188.53,396.37c0,.16-.81.5-1.89.77s-2,.35-2,.19.8-.5,1.89-.76S188.49,396.22,188.53,396.37Z" style="fill:#263238"></path><path d="M204.12,367.37c.08.14-.64.72-1.7,1.11s-2,.44-2,.29.8-.46,1.8-.84S204,367.23,204.12,367.37Z" style="fill:#263238"></path><path d="M206.35,385.74c-.07.15-.93-.11-1.93-.58s-1.75-1-1.68-1.12.93.12,1.93.59S206.42,385.59,206.35,385.74Z" style="fill:#263238"></path><path d="M210.28,398.89a6.18,6.18,0,0,1-2.55-.69A5.93,5.93,0,0,1,205.4,397a6.18,6.18,0,0,1,2.55.69C209.29,398.18,210.34,398.73,210.28,398.89Z" style="fill:#263238"></path><path d="M189.16,409.18c-.08-.14,1-.85,2.18-1.81s2.15-1.8,2.28-1.69-.65,1.17-1.91,2.16A5.26,5.26,0,0,1,189.16,409.18Z" style="fill:#263238"></path><path d="M199.56,402.5c-.17,0-.4-.86-.8-1.89s-.82-1.84-.68-1.93.8.61,1.23,1.72S199.71,402.49,199.56,402.5Z" style="fill:#263238"></path><path d="M196.8,386.69c-.09.13-.77-.19-1.5-.71s-1.25-1.06-1.16-1.2.77.19,1.5.72S196.89,386.56,196.8,386.69Z" style="fill:#263238"></path><path d="M221,361.91c.1.14-.56.78-1.46,1.45s-1.72,1.1-1.81,1,.56-.78,1.46-1.45S220.93,361.78,221,361.91Z" style="fill:#263238"></path><path d="M224.68,371.9a3.59,3.59,0,0,1-2.28.23c-1.26-.13-2.22-.56-2.17-.71s1,0,2.24.13S224.67,371.73,224.68,371.9Z" style="fill:#263238"></path><path d="M209,374.14c0,.15-.91.49-2.13.57s-2.21-.13-2.2-.29,1-.22,2.16-.3S209,374,209,374.14Z" style="fill:#263238"></path><path d="M210.33,364.7c0,.15-1,.18-2-.31s-1.65-1.22-1.54-1.33.83.37,1.79.8S210.35,364.53,210.33,364.7Z" style="fill:#263238"></path><path d="M226,382.61c-.09.14-1.07-.32-2.19-1s-2-1.39-1.88-1.53,1.07.33,2.19,1S226.11,382.48,226,382.61Z" style="fill:#263238"></path><rect x="180.59" y="410.63" width="83.74" height="14.84" style="fill:#FF725E"></rect><polygon points="186.84 422.52 197.02 466.88 246.93 466.88 258.07 422.52 186.84 422.52" style="fill:#FF725E"></polygon><path d="M264.28,425.49c0,.16-18.89.29-42.18.29s-42.19-.13-42.19-.29,18.88-.3,42.19-.3S264.28,425.33,264.28,425.49Z" style="fill:#263238"></path><path d="M217.71,374.46c-.14.09-.71-.58-1.28-1.49s-.92-1.72-.78-1.8.71.58,1.28,1.49S217.85,374.37,217.71,374.46Z" style="fill:#263238"></path><path d="M217.74,386.4a4.67,4.67,0,0,1,.44-2.25c.39-1.2.84-2.12,1-2.07a4.81,4.81,0,0,1-.44,2.25C218.34,385.53,217.89,386.45,217.74,386.4Z" style="fill:#263238"></path><path d="M221.83,398.94c-.15.07-.78-.93-1.4-2.24a6.18,6.18,0,0,1-.87-2.49c.15-.07.78.93,1.4,2.24A6.13,6.13,0,0,1,221.83,398.94Z" style="fill:#263238"></path><path d="M213,409c-.12-.1.38-.88,1.12-1.73s1.44-1.46,1.56-1.35-.38.88-1.12,1.74S213.11,409.13,213,409Z" style="fill:#263238"></path><path d="M211.13,390.71c0,.16-.84.15-1.8,0s-1.73-.44-1.7-.6.83-.15,1.8,0S211.15,390.55,211.13,390.71Z" style="fill:#263238"></path><path d="M253,443.6c0,.15-13.72.26-30.64.26s-30.64-.11-30.64-.26,13.72-.26,30.64-.26S253,443.46,253,443.6Z" style="fill:#fff"></path><path d="M252,446.58c0,.14-13.31.26-29.73.26s-29.73-.12-29.73-.26,13.31-.26,29.73-.26S252,446.44,252,446.58Z" style="fill:#fff"></path><path d="M251.21,449.79c0,.14-13.31.26-29.73.26s-29.73-.12-29.73-.26,13.31-.26,29.73-.26S251.21,449.64,251.21,449.79Z" style="fill:#fff"></path></g><g id="House"><path d="M175.54,237.33a2,2,0,0,1,0-.42c0-.3-.05-.7-.09-1.22,0-.27,0-.57-.05-.9s-.11-.68-.17-1.07a18.91,18.91,0,0,0-.54-2.65,24.79,24.79,0,0,0-2.86-6.81,25.62,25.62,0,0,0-6.52-7.24,25.45,25.45,0,0,0-24.14-3.64,27,27,0,0,0-3.32,1.46,28.15,28.15,0,0,0-3.13,2,27.86,27.86,0,0,0-2.89,2.46,28.53,28.53,0,0,0-2.5,3,24.72,24.72,0,0,0-3.64,7,25.33,25.33,0,0,0,0,16.08,24.83,24.83,0,0,0,3.64,7,29.5,29.5,0,0,0,2.5,3,27.86,27.86,0,0,0,2.89,2.46,26.66,26.66,0,0,0,3.12,2,26.3,26.3,0,0,0,3.33,1.46,25.58,25.58,0,0,0,30.66-10.88,24.49,24.49,0,0,0,2.86-6.81,18.91,18.91,0,0,0,.54-2.65c.06-.38.13-.74.17-1.07s0-.63.05-.9c0-.51.07-.92.09-1.22a1.91,1.91,0,0,1,0-.41,2.56,2.56,0,0,1,0,.41c0,.3,0,.71,0,1.23q0,.41,0,.9c0,.34-.1.69-.15,1.09a17.51,17.51,0,0,1-.5,2.67,24.25,24.25,0,0,1-2.8,6.91A25.81,25.81,0,0,1,141,261.72a26.7,26.7,0,0,1-3.4-1.48,27.74,27.74,0,0,1-3.19-2,30,30,0,0,1-3-2.5,32.15,32.15,0,0,1-2.55-3,25.26,25.26,0,0,1-3.72-7.16,25.79,25.79,0,0,1,0-16.41,25.26,25.26,0,0,1,3.72-7.16,32.15,32.15,0,0,1,2.55-3,31.47,31.47,0,0,1,3-2.5,28.63,28.63,0,0,1,3.19-2,26.7,26.7,0,0,1,3.4-1.48,26,26,0,0,1,13.63-1.1A25.89,25.89,0,0,1,172,224.11a24.25,24.25,0,0,1,2.8,6.91,17.62,17.62,0,0,1,.5,2.68c0,.39.12.75.15,1.08s0,.63,0,.9c0,.52,0,.93,0,1.23A2.66,2.66,0,0,1,175.54,237.33Z" style="fill:#263238"></path><path d="M92.09,218.11l40-47.86-.06.15c0-9.08,0-19.07,0-29.54l.26.26H92.09l.25-.25c-.14,44.36-.24,74.86-.25,77.25,0-2.39-.11-32.89-.25-77.25v-.25h40.65v.26c0,10.47,0,20.46,0,29.54v.09l-.06.06Z" style="fill:#263238"></path><path d="M62,466.8l379.77-.24-.24.23c.63-69.49,1.32-146.11,2-226.75l.07.18-25.18-28.45L364.25,150.5l.2.09-215.32,0,.18-.08L63.46,253.78l0-.12C62.58,385.11,62,465.27,62,466.8c0-1.53.43-81.69,1.12-213.15v-.07l0-.05L149,150.18l.07-.08h.1l215.32,0h.11l.08.09,54.21,61.26c8.62,9.75,17.19,19.43,25.18,28.45l.06.08v.1c-.74,80.63-1.45,157.25-2.09,226.75V467h-.23Z" style="fill:#263238"></path><path d="M98.53,140.86s.31,0,.93,0l2.76,0,10.58-.1,38.94-.25,57.74-.3,4.1,0c1.38,0,2.77,0,4.14-.09a28.57,28.57,0,0,0,8.16-1.71A29.26,29.26,0,0,0,239.4,128a28.72,28.72,0,0,0,5.5-16.71,28,28,0,0,0-5.85-17.09,30,30,0,0,0-14.81-10.44,22.73,22.73,0,0,0-8.88-.91A20.82,20.82,0,0,0,207,85.63c-5.1,2.92-9.2,7.22-14.32,9.89A20.45,20.45,0,0,1,184.6,98a11.93,11.93,0,0,1-7.92-2.27c-2.25-1.6-4-3.66-6.34-4.9A16.19,16.19,0,0,0,163,88.65a20.71,20.71,0,0,0-7.41,1,22.82,22.82,0,0,0-6.5,3.27A23.91,23.91,0,0,0,144,97.79a41.81,41.81,0,0,0-3.49,5.87,43.93,43.93,0,0,1-3.37,5.69,17,17,0,0,1-2.16,2.39,11.94,11.94,0,0,1-2.64,1.74,13.64,13.64,0,0,1-5.94,1.14c-2,0-3.86-.24-5.7-.37a25.12,25.12,0,0,0-5.35,0,20.5,20.5,0,0,0-4.86,1.24,20.86,20.86,0,0,0-7.45,5,19.58,19.58,0,0,0-4,6.38,21.18,21.18,0,0,0-1.27,10.36,23,23,0,0,0,.54,2.69c.17.6.25.91.25.91s-.11-.3-.3-.89a19.4,19.4,0,0,1-.59-2.7,20.91,20.91,0,0,1,1.18-10.44,19.75,19.75,0,0,1,4.06-6.48A20.86,20.86,0,0,1,115.33,114a25,25,0,0,1,5.41,0c1.85.13,3.74.35,5.68.35a13.37,13.37,0,0,0,5.78-1.12,11.52,11.52,0,0,0,2.55-1.69,16.77,16.77,0,0,0,2.1-2.34,44,44,0,0,0,3.33-5.65,41.87,41.87,0,0,1,3.5-5.93,24.62,24.62,0,0,1,5.16-5,23.9,23.9,0,0,1,6.61-3.34,21.13,21.13,0,0,1,7.57-1,16.72,16.72,0,0,1,7.55,2.19c2.38,1.3,4.2,3.37,6.39,4.92a11.4,11.4,0,0,0,7.61,2.17,20,20,0,0,0,7.92-2.39c5-2.62,9.11-6.92,14.29-9.9a21.39,21.39,0,0,1,8.52-2.84,23,23,0,0,1,9.09.93,30.53,30.53,0,0,1,15.07,10.61,28.47,28.47,0,0,1,6,17.42,29.21,29.21,0,0,1-5.61,17,29.63,29.63,0,0,1-13.76,10.48,28.87,28.87,0,0,1-8.3,1.74c-1.4.09-2.78.07-4.16.08l-4.1,0-57.75.19-38.94.09H99.46Z" style="fill:#263238"></path><path d="M249.46,466.88s0-.31,0-.92,0-1.53,0-2.71c0-2.39,0-5.89,0-10.4,0-9-.05-22.1-.08-38.24,0-32.3-.05-76.9-.08-126.16v-32l.07.17-71.92-75.74-21.17-22.37-5.68-6L149,150.88c-.33-.36-.49-.55-.49-.55l.52.51,1.5,1.54c1.31,1.37,3.24,3.38,5.74,6l21.28,22.27,72.06,75.62.07.07v32.14c0,49.26-.06,93.86-.08,126.16,0,16.14-.06,29.2-.08,38.24,0,4.51,0,8-.05,10.4,0,1.18,0,2.08,0,2.71S249.46,466.88,249.46,466.88Z" style="fill:#263238"></path></g></svg>
