<svg xmlns="http://www.w3.org/2000/svg" viewBox="0 0 750 500"><g id="background-complete"><polygon points="114.95 108.76 79.74 179.79 90.25 180.19 60.42 236.64 76.09 236.64 51.64 286.78 188.29 286.78 158.2 236.64 172.62 236.01 143.78 179.59 154.44 178.97 114.95 108.76" style="fill:#f5f5f5"></polygon><path d="M120.91,191.16c.14,0-.13,36.86-.61,82.32s-1,82.33-1.13,82.33.13-36.86.61-82.33S120.76,191.16,120.91,191.16Z" style="fill:#e0e0e0"></path><path d="M120.2,256.23a13.74,13.74,0,0,1-2.29-1l-5.4-2.68-5.43-2.61a12.66,12.66,0,0,1-2.22-1.17,12,12,0,0,1,2.37.83c1.43.58,3.39,1.45,5.51,2.48s4,2,5.35,2.82A11.44,11.44,0,0,1,120.2,256.23Z" style="fill:#e0e0e0"></path><path d="M137.07,202.7a3.79,3.79,0,0,1-.52.94c-.37.59-.92,1.43-1.62,2.45-1.39,2-3.39,4.82-5.69,7.82s-4.5,5.62-6.12,7.49c-.81.93-1.48,1.68-2,2.18a4.05,4.05,0,0,1-.77.75,4.19,4.19,0,0,1,.62-.88l1.83-2.29c1.55-1.92,3.68-4.59,6-7.57s4.34-5.73,5.81-7.72c.69-.91,1.27-1.7,1.75-2.34A5.26,5.26,0,0,1,137.07,202.7Z" style="fill:#e0e0e0"></path><path d="M424.23,77.14H633.34a63,63,0,0,1,63,63V278a16,16,0,0,1-16,16H424.23a63,63,0,0,1-63-63V140.15A63,63,0,0,1,424.23,77.14Z" style="fill:#f5f5f5"></path><path d="M427.49,294v-8.94a18.81,18.81,0,0,1,18.81-18.8h56.63V294Z" style="fill:#ebebeb"></path><path d="M484,265.55a34.11,34.11,0,1,1-38.76.72" style="fill:#e0e0e0"></path><circle cx="466.96" cy="294.51" r="18.87" style="fill:#ebebeb"></circle><rect x="547.81" y="119.3" width="72.76" height="174.68" style="fill:#e0e0e0"></rect><path d="M712,294H655a13.87,13.87,0,0,1,13.87-13.87H712Z" style="fill:#e0e0e0"></path><path d="M405.91,294H348.82a13.87,13.87,0,0,1,13.87-13.87H392A13.87,13.87,0,0,1,405.91,294Z" style="fill:#e0e0e0"></path><rect x="376.59" y="252.59" width="40.51" height="10.13" rx="4.31" style="fill:#e0e0e0"></rect><path d="M411.7,102a2.6,2.6,0,1,1-3.67,0A2.6,2.6,0,0,1,411.7,102Z" style="fill:#e0e0e0"></path><path d="M660.94,102a2.6,2.6,0,1,1-3.68,0A2.61,2.61,0,0,1,660.94,102Z" style="fill:#e0e0e0"></path><path d="M425.65,294c-.15,0-.26-48.55-.26-108.42s.11-108.43.26-108.43.26,48.53.26,108.43S425.79,294,425.65,294Z" style="fill:#e0e0e0"></path><path d="M648.55,294c-.15,0-.26-48.55-.26-108.42s.11-108.43.26-108.43.26,48.53.26,108.43S648.69,294,648.55,294Z" style="fill:#e0e0e0"></path><path d="M696.35,150.18s-.06-.3-.16-.91-.17-1.5-.45-2.66a29,29,0,0,0-3.91-9.56,31.3,31.3,0,0,0-4.89-5.65,37.06,37.06,0,0,0-7.34-5,62.31,62.31,0,0,0-20.76-6.11c-8-1.2-16.88-.58-26.38-.69l-30.35,0-69.54.07-69.56,0H422.24l-3.34-.14a110.69,110.69,0,0,0-12.65.43A86.67,86.67,0,0,0,385,124.63a52.25,52.25,0,0,0-14.4,7.76c-.45.34-.9.66-1.3,1l-1.14,1.05c-.73.69-1.46,1.28-2,1.92l-1.58,1.81a14.47,14.47,0,0,0-1.27,1.54l-1.54,2.22c-.35.49-.54.74-.54.74l.49-.77,1.51-2.26a15.22,15.22,0,0,1,1.25-1.56l1.57-1.83c.58-.64,1.3-1.25,2-1.94l1.13-1.07c.41-.34.86-.66,1.31-1a52,52,0,0,1,14.42-7.88,86.56,86.56,0,0,1,21.29-4.7,108.83,108.83,0,0,1,12.69-.47l3.34.13h10.41l30.36,0,69.55-.07,69.53,0h30.35c4.75,0,9.34,0,13.75,0a87.52,87.52,0,0,1,12.68.8,62.13,62.13,0,0,1,20.86,6.22,37.07,37.07,0,0,1,7.37,5.09,31.2,31.2,0,0,1,4.89,5.72,28.28,28.28,0,0,1,3.84,9.65c.26,1.16.31,2.08.4,2.68S696.35,150.18,696.35,150.18Z" style="fill:#e0e0e0"></path><path d="M547.81,185c0,.14-41.79.26-93.33.26s-93.34-.12-93.34-.26,41.78-.26,93.34-.26S547.81,184.88,547.81,185Z" style="fill:#e0e0e0"></path><path d="M692.44,185c0,.14-16.09.26-35.93.26s-35.94-.12-35.94-.26,16.09-.26,35.94-.26S692.44,184.88,692.44,185Z" style="fill:#e0e0e0"></path><rect x="560.64" y="132.37" width="47.1" height="47.1" style="fill:#ebebeb"></rect><path d="M614.77,193.5a2.92,2.92,0,1,1-2.91-2.91A2.91,2.91,0,0,1,614.77,193.5Z" style="fill:#ebebeb"></path><path d="M547.81,294v15.59h15.9V328.1s84.84.89,84.84,0V309.58H632.46V294Z" style="fill:#ebebeb"></path><path d="M632.46,309.58c0,.15-15.39.26-34.37.26s-34.38-.11-34.38-.26,15.39-.26,34.38-.26S632.46,309.44,632.46,309.58Z" style="fill:#e0e0e0"></path><path d="M494,254.28s0-.18,0-.53,0-.87,0-1.52c0-1.35,0-3.3-.05-5.79,0-5-.06-12.21-.11-21.06l.2.2-53.73.06.26-.26h0v14.93c0,4.83,0,9.5,0,14l-.24-.24,38.57.12,11.13.06,3,0,.78,0H494a1,1,0,0,1-.24,0H493l-2.93,0-11.07.07-38.74.12H440v-.25c0-4.46,0-9.13,0-14V225.39h0l.26-.26,53.73.06h.2v.2c0,8.9-.08,16.14-.11,21.18,0,2.47,0,4.41-.05,5.75,0,.63,0,1.12,0,1.48A4.23,4.23,0,0,1,494,254.28Z" style="fill:#e0e0e0"></path><polygon points="144.82 134.82 147.35 136.15 144.87 137.56 143.55 140.09 142.13 137.61 139.61 136.29 142.08 134.87 143.41 132.35 144.82 134.82" style="fill:#e0e0e0"></polygon><polygon points="313.94 106.13 316.48 107.42 314.02 108.87 312.74 111.41 311.29 108.95 308.75 107.67 311.2 106.22 312.49 103.68 313.94 106.13" style="fill:#e0e0e0"></polygon><polygon points="367.87 52.75 370.41 54.04 367.95 55.48 366.66 58.03 365.22 55.57 362.68 54.28 365.13 52.84 366.42 50.29 367.87 52.75" style="fill:#e0e0e0"></polygon><polygon points="242.65 64.01 243.31 64.36 242.66 64.73 242.31 65.4 241.94 64.75 241.27 64.4 241.92 64.02 242.27 63.36 242.65 64.01" style="fill:#e0e0e0"></polygon><polygon points="306.22 182.72 308.75 184.04 306.27 185.46 304.95 187.99 303.53 185.51 301.01 184.19 303.48 182.77 304.81 180.25 306.22 182.72" style="fill:#e0e0e0"></polygon></g><g id="background-simple"><path d="M143.45,71.56c-35.23,55.76-21.33,117.13,19.83,168.67,28.68,35.91,72.14,58.07,117.16,67.29s91.74,6.42,137.13-.8c31.3-5,64.5-13.33,85.29-37.24,19.81-22.78,24-57.55,11.14-84.88s-41.44-46.18-71.55-48.4c-20.33-1.49-40.44,4-60.67,6.5s-42.39,1.69-58.69-10.56C309.62,122,302.4,105.88,293.14,91.8c-16.05-24.42-40.49-44.23-69.07-50.31s-59.22,1.09-76.77,24.45Z" style="fill:#ebebeb"></path></g><g id="Plants"><path d="M562.4,285.5a8.41,8.41,0,0,0-5.81,3,14.77,14.77,0,0,0-2.92,6c-1.09,4.22-.36,9.17.88,13.35,4.53-1.67,7.3-6.55,8.55-9.11,2-4.05,3.07-12.57-.7-13.3" style="fill:#455a64"></path><path d="M548,313.06a7.12,7.12,0,0,0,.27-7.17,9.43,9.43,0,0,0-5.76-4.55,4,4,0,0,0-3.36.19A3.07,3.07,0,0,0,538,304.4a6.32,6.32,0,0,0,1.34,2.94c2.24,3,5,5.45,8.67,5.72" style="fill:#455a64"></path><path d="M547.45,327.75a17.25,17.25,0,0,1,.39-3.42,31.4,31.4,0,0,0,.52-8.17,16.16,16.16,0,0,0-2.85-7.55,22.37,22.37,0,0,0-2.32-2.48s.31.12.79.48a10,10,0,0,1,1.82,1.77,15.5,15.5,0,0,1,3.08,7.72,27.48,27.48,0,0,1-.68,8.3A30,30,0,0,1,547.45,327.75Z" style="fill:#263238"></path><path d="M561,291.91a8,8,0,0,1-.49,1.43c-.39,1-.89,2.28-1.5,3.82-1.27,3.23-3,7.68-4.89,12.63s-3.5,9.45-4.68,12.71c-.57,1.56-1,2.85-1.41,3.85a9.81,9.81,0,0,1-.57,1.4,7.49,7.49,0,0,1,.38-1.46c.28-.93.71-2.27,1.25-3.91,1.09-3.3,2.67-7.82,4.54-12.78s3.68-9.39,5-12.58c.68-1.59,1.25-2.88,1.65-3.76A9.64,9.64,0,0,1,561,291.91Z" style="fill:#263238"></path><path d="M553.06,318a16.72,16.72,0,0,1,12.73-8.46c1.34-.14,3,0,3.6,1.22s-.12,2.65-1,3.67A14.3,14.3,0,0,1,553,318.33" style="fill:#455a64"></path><path d="M563.88,313.22c0,.1-1.25.19-3.17.8a18.68,18.68,0,0,0-3.23,1.39,22.54,22.54,0,0,0-3.52,2.46,23.08,23.08,0,0,0-3,3.14,20.64,20.64,0,0,0-1.9,3c-.94,1.78-1.3,3-1.39,3a2.56,2.56,0,0,1,.19-.87,6.71,6.71,0,0,1,.33-1,13.29,13.29,0,0,1,.54-1.27,18.57,18.57,0,0,1,1.84-3.08,21.31,21.31,0,0,1,3-3.25,21.08,21.08,0,0,1,3.64-2.49,17,17,0,0,1,3.36-1.32,10.63,10.63,0,0,1,1.35-.31,6.28,6.28,0,0,1,1-.13A2.8,2.8,0,0,1,563.88,313.22Z" style="fill:#263238"></path><path d="M193.92,385.13a8.33,8.33,0,0,1,5.82,3,14.7,14.7,0,0,1,2.92,6c1.09,4.21.36,9.17-.88,13.34-4.53-1.66-7.3-6.54-8.55-9.11-2-4.05-3.07-12.57.69-13.29" style="fill:#455a64"></path><path d="M208.29,412.69a7.14,7.14,0,0,1-.27-7.18,9.5,9.5,0,0,1,5.76-4.55,4,4,0,0,1,3.36.19,3,3,0,0,1,1.15,2.88A6.17,6.17,0,0,1,217,407c-2.24,3-5,5.45-8.67,5.73" style="fill:#455a64"></path><path d="M208.33,427.14a2.72,2.72,0,0,1-.23-.88c-.12-.58-.26-1.41-.41-2.45a30.33,30.33,0,0,1-.22-8.23,15.3,15.3,0,0,1,3.09-7.6,9.45,9.45,0,0,1,1.79-1.75,2.88,2.88,0,0,1,.79-.48,23,23,0,0,0-2.29,2.45,16.19,16.19,0,0,0-2.87,7.45,36.35,36.35,0,0,0,.07,8.11A25.58,25.58,0,0,1,208.33,427.14Z" style="fill:#263238"></path><path d="M195.34,391.54a9.64,9.64,0,0,1,.68,1.35c.4.88,1,2.16,1.65,3.76,1.36,3.19,3.17,7.63,5,12.58s3.45,9.48,4.54,12.77c.54,1.65,1,3,1.25,3.91a7.49,7.49,0,0,1,.38,1.46,8.1,8.1,0,0,1-.57-1.39c-.37-1-.84-2.3-1.41-3.86-1.18-3.26-2.81-7.76-4.68-12.71s-3.62-9.4-4.89-12.62l-1.5-3.82A8.64,8.64,0,0,1,195.34,391.54Z" style="fill:#263238"></path><path d="M203.57,416.82a16.74,16.74,0,0,0-13.44-7.29c-1.35,0-2.95.3-3.48,1.55s.36,2.62,1.33,3.56a14.3,14.3,0,0,0,15.66,2.54" style="fill:#455a64"></path><path d="M192.45,412.84a3.15,3.15,0,0,1,.88,0,6.17,6.17,0,0,1,1,.12,10.77,10.77,0,0,1,1.34.28,17.63,17.63,0,0,1,3.34,1.21,20.63,20.63,0,0,1,3.67,2.34,19.75,19.75,0,0,1,3,3.12,17.19,17.19,0,0,1,1.87,3,10.45,10.45,0,0,1,.55,1.25,9.42,9.42,0,0,1,.33,1,2.56,2.56,0,0,1,.18.85c-.09,0-.44-1.16-1.38-2.91a20.91,20.91,0,0,0-1.92-2.9,22.3,22.3,0,0,0-3-3,22,22,0,0,0-3.57-2.31,19.42,19.42,0,0,0-3.22-1.29C193.69,413,192.44,412.94,192.45,412.84Z" style="fill:#263238"></path></g><g id="Moon"><path d="M266,151.1a27.3,27.3,0,0,1-22-43.44,27.31,27.31,0,1,0,38.15,38.15A27.17,27.17,0,0,1,266,151.1Z" style="fill:#263238"></path></g><g id="Stars"><polygon points="172.24 103.22 173.28 103.75 172.27 104.34 171.74 105.39 171.15 104.38 170.1 103.84 171.11 103.25 171.64 102.2 172.24 103.22" style="fill:#455a64"></polygon><polygon points="194.23 155.64 196.75 156.96 194.28 158.37 192.96 160.9 191.54 158.42 189.01 157.1 191.49 155.69 192.81 153.16 194.23 155.64" style="fill:#455a64"></polygon><polygon points="314.26 106.27 316.78 107.59 314.31 109.01 312.99 111.53 311.57 109.06 309.04 107.74 311.52 106.32 312.84 103.8 314.26 106.27" style="fill:#455a64"></polygon></g><g id="Tent"><path d="M61.12,377.16c.93-2.8,67-168.38,67-168.38s245.59-1.86,245.59,0,49.79,167.91,49.79,167.91Z" style="fill:#FF725E"></path><path d="M133.85,218c1,1.45,50.56,158.15,50.56,158.15H69.32Z" style="opacity:0.2"></path><path d="M308.75,376.84l-.63-.2L306.3,376l-7-2.44c-6-2.26-14.7-5.53-25.17-10.26a295.33,295.33,0,0,1-35.51-19.05,208.21,208.21,0,0,1-38.42-30.86,224.22,224.22,0,0,1-16.47-19.57c-5-6.58-9.48-13.17-13.61-19.54-8.26-12.73-15.12-24.55-21-34.4s-10.66-17.81-14.1-23.22c-1.68-2.73-3.07-4.8-4-6.23-.44-.7-.78-1.24-1-1.62s-.33-.56-.33-.56.13.17.38.53l1.07,1.59c.93,1.41,2.34,3.47,4.05,6.18,3.5,5.38,8.36,13.3,14.25,23.14s12.81,21.63,21.09,34.33c4.12,6.36,8.63,12.93,13.61,19.5a224.77,224.77,0,0,0,16.43,19.51,209.79,209.79,0,0,0,38.31,30.82A299.52,299.52,0,0,0,274.32,363c10.43,4.77,19.1,8.1,25.08,10.41l6.94,2.53,1.8.67Z" style="fill:#263238"></path><path d="M501.26,371.86s-.2,0-.56-.09l-1.64-.33c-1.43-.31-3.56-.69-6.26-1.35L488.29,369,483,367.56c-1.9-.55-3.91-1.22-6.05-1.89l-3.25-1.19c-1.11-.41-2.26-.81-3.39-1.33l-3.52-1.51c-1.17-.56-2.36-1.18-3.57-1.78s-2.43-1.29-3.65-2-2.48-1.42-3.67-2.27S453.4,354,452.21,353l-3.63-2.85c-1.17-1-2.35-2.09-3.54-3.17s-2.29-2.28-3.46-3.44a130.82,130.82,0,0,1-12.86-16.15c-4-6-7.82-12.31-11.67-18.85a450.53,450.53,0,0,1-33-70.31c-6.9-18.67-10.35-30.49-10.35-30.49s.08.17.21.53.3.89.54,1.57l2,6.08c1.82,5.25,4.38,12.88,7.91,22.18A463.16,463.16,0,0,0,417.5,308.3c3.85,6.53,7.68,12.87,11.64,18.82a129.3,129.3,0,0,0,12.79,16.1c1.16,1.16,2.25,2.37,3.43,3.44l3.51,3.16c1.22,1,2.42,1.91,3.61,2.84s2.45,1.71,3.64,2.56,2.43,1.55,3.64,2.27,2.4,1.43,3.62,2,2.39,1.23,3.56,1.79l3.49,1.52c1.13.52,2.27.93,3.38,1.34l3.23,1.21c2.13.67,4.13,1.35,6,1.92l5.3,1.49,4.49,1.12c2.69.69,4.81,1.1,6.23,1.45l1.63.37Z" style="fill:#263238"></path><polygon points="133.43 376.13 129.72 271.32 123.35 376.13 133.43 376.13" style="opacity:0.6000000000000001"></polygon><path d="M129.72,208.27s0,.16-.13.46-.25.78-.43,1.36c-.4,1.21-1,3-1.71,5.19-1.5,4.51-3.75,11-6.67,19C115,250.2,106.29,272,96.31,295.89A361.55,361.55,0,0,1,81,329a188.25,188.25,0,0,1-16,25.16,128.21,128.21,0,0,1-13.35,15l-1.2,1.18-1.1,1-1.74,1.53-1.07.93-.37.31s.11-.13.34-.35l1-1c.47-.43,1-.95,1.7-1.57l1.09-1,1.18-1.19A134.29,134.29,0,0,0,64.65,354,192.24,192.24,0,0,0,80.53,328.8c5.28-9.9,10.37-21.14,15.3-33.11,10-23.9,18.71-45.66,24.6-61.57,3-8,5.27-14.42,6.83-18.9l1.8-5.16c.2-.57.36-1,.48-1.34S129.72,208.27,129.72,208.27Z" style="fill:#263238"></path></g><g id="character-2"><path d="M508.32,426.5,516,425l3,14.39-11.23,2.37-.24-.88c-1-3.93-5-20-4.76-22.86C503,414.83,508.32,426.5,508.32,426.5Z" style="fill:#263238"></path><path d="M508.12,441.85a1.29,1.29,0,0,1-.08-.24c-.05-.21-.12-.44-.19-.7-.18-.7-.39-1.57-.65-2.59-.54-2.2-1.24-5.23-1.94-8.61s-1.27-6.44-1.65-8.66c-.17-1-.31-1.93-.43-2.64,0-.27-.07-.51-.11-.72a1,1,0,0,1,0-.25.81.81,0,0,1,.06.24c0,.22.09.45.14.72.13.71.29,1.59.49,2.62.41,2.22,1,5.28,1.69,8.66s1.39,6.41,1.89,8.61l.6,2.6c.06.27.11.5.16.71A1.24,1.24,0,0,1,508.12,441.85Z" style="fill:#455a64"></path><path d="M503.71,422.55a5.52,5.52,0,0,0,1.15-.75,6.12,6.12,0,0,0,.82-1.1,2.4,2.4,0,0,1-2,1.85Z" style="fill:#455a64"></path><path d="M506.75,426.35s.17-.29.45-.57.55-.48.59-.44-.17.29-.46.57S506.78,426.38,506.75,426.35Z" style="fill:#455a64"></path><path d="M507.6,427.39s.07-.29.24-.58.34-.51.38-.49-.06.28-.23.58S507.65,427.41,507.6,427.39Z" style="fill:#455a64"></path><path d="M509.11,427.84a1.9,1.9,0,0,1-.25-.73,1.65,1.65,0,0,1-.07-.77,1.9,1.9,0,0,1,.25.73A1.65,1.65,0,0,1,509.11,427.84Z" style="fill:#455a64"></path><path d="M510.12,427.9a1.5,1.5,0,0,1-.41-.79,1.59,1.59,0,0,1-.07-.89,4.34,4.34,0,0,1,.24.84A3.91,3.91,0,0,1,510.12,427.9Z" style="fill:#455a64"></path><path d="M507.9,425.6a2.69,2.69,0,0,1-.19-.93,6.07,6.07,0,0,1,0-1,2.92,2.92,0,0,1,.11-.61.6.6,0,0,1,.24-.29.38.38,0,0,1,.4.07,1.73,1.73,0,0,1-.06,2.2,1.8,1.8,0,0,1-.55.43c-.16.07-.25.08-.25.07a2.52,2.52,0,0,0,.7-.58,1.71,1.71,0,0,0,.35-.9,1.46,1.46,0,0,0-.3-1.08c-.14-.13-.3,0-.36.15a2.66,2.66,0,0,0-.12.56,6.13,6.13,0,0,0-.05,1C507.86,425.24,507.93,425.59,507.9,425.6Z" style="fill:#455a64"></path><path d="M507.8,425.37a1,1,0,0,1,.63-.24,1.62,1.62,0,0,1,.72.11,1,1,0,0,1,.63.68.37.37,0,0,1-.36.37,1.07,1.07,0,0,1-.45-.07,3,3,0,0,1-.65-.32c-.34-.24-.5-.44-.48-.46s.2.15.55.35a3.13,3.13,0,0,0,.63.27c.22.09.59.1.59-.14s-.31-.42-.52-.53a1.52,1.52,0,0,0-.66-.13A3.26,3.26,0,0,0,507.8,425.37Z" style="fill:#455a64"></path><path d="M512,440.74s-.05-.42-.26-1.05a4.72,4.72,0,0,0-1.44-2.12,4.77,4.77,0,0,0-2.34-1c-.67-.09-1.09,0-1.09-.06a.8.8,0,0,1,.29-.06,4.3,4.3,0,0,1,.81,0,4.48,4.48,0,0,1,2.45,1,4.61,4.61,0,0,1,1.44,2.22,4,4,0,0,1,.14.8A.72.72,0,0,1,512,440.74Z" style="fill:#455a64"></path><path d="M517.68,438a25,25,0,0,1-2.93.74,24.59,24.59,0,0,1-3,.56,26.35,26.35,0,0,1,2.93-.73A28.92,28.92,0,0,1,517.68,438Z" style="fill:#455a64"></path><path d="M507.81,434.38a8.84,8.84,0,0,1-.64-2.06,8.52,8.52,0,0,1-.27-2.14c.05,0,.19.94.44,2.1S507.86,434.36,507.81,434.38Z" style="fill:#455a64"></path><path d="M508.4,437.19c0,.05-.21,0-.45-.08s-.44-.07-.44-.12.21-.12.48-.06S508.43,437.16,508.4,437.19Z" style="fill:#455a64"></path><path d="M509.94,438s-.19,0-.37-.13-.31-.25-.28-.29.19,0,.37.14S510,437.94,509.94,438Z" style="fill:#455a64"></path><path d="M510.86,439.38c-.05,0-.09-.19-.2-.39s-.27-.32-.24-.37.25,0,.39.28S510.91,439.39,510.86,439.38Z" style="fill:#455a64"></path><path d="M511.37,440.4s-.13,0-.2-.15-.1-.22-.06-.24.14,0,.21.15S511.41,440.38,511.37,440.4Z" style="fill:#455a64"></path><polygon points="514.4 441.87 568.34 436.88 649.18 438.69 632.17 420.19 574.13 417.4 510.07 423.45 514.4 441.87" style="fill:#455a64"></polygon><path d="M524.49,431.23a6.48,6.48,0,0,1-2.46.54,6.26,6.26,0,0,1-2.51,0,11.84,11.84,0,0,1,5-.57Z" style="fill:#263238"></path><path d="M534.44,430.24a6.44,6.44,0,0,1-2.47.49,6.32,6.32,0,0,1-2.51,0,6,6,0,0,1,2.46-.5A6.49,6.49,0,0,1,534.44,430.24Z" style="fill:#263238"></path><path d="M544.41,429.47a6.34,6.34,0,0,1-2.48.44,6.26,6.26,0,0,1-2.51-.08,12.11,12.11,0,0,1,5-.36Z" style="fill:#263238"></path><path d="M554.39,428.9a6.07,6.07,0,0,1-2.48.39,6.32,6.32,0,0,1-2.51-.13,6.22,6.22,0,0,1,2.48-.39A6.35,6.35,0,0,1,554.39,428.9Z" style="fill:#263238"></path><path d="M564.38,428.54a6.19,6.19,0,0,1-2.49.34,6.34,6.34,0,0,1-2.5-.18,6,6,0,0,1,2.49-.34A6.34,6.34,0,0,1,564.38,428.54Z" style="fill:#263238"></path><path d="M574.38,428.38a12.15,12.15,0,0,1-5,.06,6,6,0,0,1,2.5-.29A6.21,6.21,0,0,1,574.38,428.38Z" style="fill:#263238"></path><path d="M584.38,428.42a6.32,6.32,0,0,1-2.5.24,6.21,6.21,0,0,1-2.5-.29,6.21,6.21,0,0,1,2.5-.23A6.07,6.07,0,0,1,584.38,428.42Z" style="fill:#263238"></path><path d="M594.38,428.66a6.33,6.33,0,0,1-2.51.19,6,6,0,0,1-2.49-.34,12.38,12.38,0,0,1,5,.15Z" style="fill:#263238"></path><path d="M604.37,429.11a6.35,6.35,0,0,1-2.51.13,6.46,6.46,0,0,1-2.49-.38,6,6,0,0,1,2.51-.14A6.09,6.09,0,0,1,604.37,429.11Z" style="fill:#263238"></path><path d="M614.35,429.76a6.21,6.21,0,0,1-2.52.09,6.31,6.31,0,0,1-2.47-.44,6.05,6.05,0,0,1,2.51-.08A6.23,6.23,0,0,1,614.35,429.76Z" style="fill:#263238"></path><path d="M621.21,430.35c0,.14-.44.22-1,.17s-.93-.2-.92-.34.44-.23,1-.18S621.23,430.2,621.21,430.35Z" style="fill:#263238"></path><path d="M521.61,441.11a18.1,18.1,0,0,1-.77-2.71c-.42-1.69-1-4-1.75-6.56s-1.44-4.83-2-6.49a18.14,18.14,0,0,1-.78-2.7,12.85,12.85,0,0,1,1.13,2.58c.62,1.63,1.39,3.91,2.13,6.47s1.27,4.91,1.6,6.62A13.18,13.18,0,0,1,521.61,441.11Z" style="fill:#263238"></path><path d="M659.37,430.59c-1.11,1.41-3.51,8.13-9.27,11.06-7.73,3.94-19,1.56-25.73-5-18.53-18.24-43.73-46.69-43.73-46.69L569.3,439.36,548.08,436s11.94-56.78,18.75-65.27c2.58-3.22,9.22-10.11,21.6-1.19,11.3,8.15,28.76,23,55.84,48.33Z" style="fill:#455a64"></path><path d="M653.67,426.24s-.19.18-.6.38a6.12,6.12,0,0,1-1.83.56,7.34,7.34,0,0,1-8.55-7.35,6.23,6.23,0,0,1,.27-1.89c.14-.43.26-.66.29-.65a15,15,0,0,0-.19,2.53,7.25,7.25,0,0,0,8.13,7A16.14,16.14,0,0,0,653.67,426.24Z" style="fill:#263238"></path><path d="M569.94,436a17.84,17.84,0,0,1-3.23-.35c-2-.28-4.71-.71-7.72-1.2l-7.72-1.24a22.63,22.63,0,0,1-3.19-.6,18.16,18.16,0,0,1,3.24.24c2,.22,4.73.6,7.75,1.09s5.74,1,7.7,1.35A21.29,21.29,0,0,1,569.94,436Z" style="fill:#263238"></path><path d="M561,428.64a11.85,11.85,0,0,1-1.18,4.87,6.21,6.21,0,0,1,.34-2.5A6.4,6.4,0,0,1,561,428.64Z" style="fill:#263238"></path><path d="M563.51,419a12,12,0,0,1-1.29,4.84,12,12,0,0,1,1.29-4.84Z" style="fill:#263238"></path><path d="M566.25,409.35a12.17,12.17,0,0,1-1.4,4.8,6.3,6.3,0,0,1,.45-2.47A6.44,6.44,0,0,1,566.25,409.35Z" style="fill:#263238"></path><path d="M569.24,399.81a6.6,6.6,0,0,1-.51,2.46,6.42,6.42,0,0,1-1,2.3,6.15,6.15,0,0,1,.51-2.46A6,6,0,0,1,569.24,399.81Z" style="fill:#263238"></path><path d="M572.43,390.34a6,6,0,0,1-.56,2.44,6.09,6.09,0,0,1-1.06,2.28,12.43,12.43,0,0,1,1.62-4.72Z" style="fill:#263238"></path><path d="M575.81,380.93a6.39,6.39,0,0,1-.61,2.44,6.27,6.27,0,0,1-1.1,2.26,6.39,6.39,0,0,1,.61-2.44A6.06,6.06,0,0,1,575.81,380.93Z" style="fill:#263238"></path><path d="M581.59,383.46c-.11.1-1-.65-1.88-1.67s-1.6-1.93-1.49-2,.95.66,1.88,1.68A6.48,6.48,0,0,1,581.59,383.46Z" style="fill:#263238"></path><path d="M588.36,390.81c-.1.1-1-.64-1.88-1.66s-1.62-1.91-1.51-2,.95.65,1.89,1.66S588.47,390.71,588.36,390.81Z" style="fill:#263238"></path><path d="M595.2,398.11c-.11.1-1-.64-1.9-1.64s-1.63-1.91-1.52-2,1,.63,1.9,1.64S595.3,398,595.2,398.11Z" style="fill:#263238"></path><path d="M602.06,405.38c-.1.1-1-.63-1.9-1.64s-1.64-1.89-1.53-2,1,.63,1.9,1.64S602.17,405.28,602.06,405.38Z" style="fill:#263238"></path><path d="M608.94,412.64c-.1.1-1-.64-1.91-1.64s-1.63-1.89-1.53-2,1,.63,1.91,1.63S609.05,412.54,608.94,412.64Z" style="fill:#263238"></path><path d="M615.82,419.9c-.1.09-1-.64-1.91-1.64s-1.63-1.9-1.53-2,1,.64,1.91,1.64S615.93,419.8,615.82,419.9Z" style="fill:#263238"></path><path d="M622.72,427.13a5.76,5.76,0,0,1-1.94-1.6c-.95-1-1.63-1.9-1.53-2s1,.64,1.91,1.64S622.82,427,622.72,427.13Z" style="fill:#263238"></path><path d="M631.54,431.51a4.37,4.37,0,0,1-2.52-.3,4.57,4.57,0,0,1-2.23-1.2,10.15,10.15,0,0,1,2.39.71A10.3,10.3,0,0,1,631.54,431.51Z" style="fill:#263238"></path><path d="M641,429.08c.08.11-.76.89-2,1.53a4.23,4.23,0,0,1-2.45.66,12.17,12.17,0,0,1,2.22-1.13A9.52,9.52,0,0,1,641,429.08Z" style="fill:#263238"></path><path d="M644.89,425.53c.11.09.16.22.11.28s-.19,0-.3-.06-.15-.22-.1-.28S644.78,425.44,644.89,425.53Z" style="fill:#263238"></path><path d="M578.77,385.14a14.13,14.13,0,0,1,1,2.71,8,8,0,0,1,.73,2.81,9,9,0,0,1-1.23-2.64A5.92,5.92,0,0,1,578.77,385.14Z" style="fill:#263238"></path><path d="M625.73,437.85c-.1.1-4.33-4-9.44-9.25s-9.17-9.51-9.07-9.61,4.33,4,9.44,9.25S625.83,437.75,625.73,437.85Z" style="fill:#263238"></path><path d="M574.7,416.16c.14,0-.94,5.06-2.42,11.23s-2.8,11.13-2.94,11.1.95-5.06,2.43-11.23S574.56,416.13,574.7,416.16Z" style="fill:#263238"></path><path d="M569.3,439.36a12.07,12.07,0,0,1-1.65-.19l-4.47-.68c-3.77-.6-9-1.47-14.72-2.46l-1-.17-.27,0,.06-.27c1.3-5.47,2.73-10.29,3.69-13.78.47-1.68.85-3.07,1.15-4.13a9.38,9.38,0,0,1,.46-1.5,9.32,9.32,0,0,1-.27,1.55c-.21,1-.55,2.41-1,4.17-.87,3.52-2.25,8.36-3.53,13.8l-.21-.31,1,.17c5.74,1,10.93,1.91,14.69,2.61l4.44.84A9.73,9.73,0,0,1,569.3,439.36Z" style="fill:#263238"></path><path d="M594.32,369.07l-.73-2.27a20.64,20.64,0,0,1-1.28-3.78,5.76,5.76,0,0,1-.15-2,8.81,8.81,0,0,1,.47-2.43c.32-.69-.36-1.41-1-1.07s-1.53,2.21-1.54,4.66-2.43-.54-3.34-1.62-3.85-4.28-4.4-4.26c-.81,0-.94.89,0,1.94s3.49,4.42,2.9,4.87-5.11-5.11-5.11-5.11-.78-1.34-1.48-.84c-1.26.9,4,6.44,4.49,6.95s-.27.87-.63.47-4.38-5.64-5.68-4.74c-1,.69,4.27,4.6,4.5,6.14s-3.69-3.37-4.61-2.67c-.35.26-.57.51,2.09,3s11.24,8.29,11.24,8.29l4.24-5.69" style="fill:#ffbe9d"></path><path d="M642.52,318.6a11.23,11.23,0,0,0-9.55-3.94,9.84,9.84,0,0,0-8.09,6.22,6.46,6.46,0,0,1-1.34,2.77c-1.16,1-3.12.74-4.29,1.78s-1,2.78-.75,4.26.65,3.15-.17,4.42c-1.05,1.62-3.66,2-4.16,3.86-.47,1.71,1.28,3.4,1,5.16a7.32,7.32,0,0,1-1.25,2.35c-1,1.64-.95,4.09.64,5.14a5.55,5.55,0,0,0,3.45.51L634.13,350" style="fill:#263238"></path><path d="M643,365.34h0c-4.79.77-8.8-2-8.75-6.82,0-3.28-.21-7.16-.21-7.16s-6.4-.26-7.19-6.53S625.5,324,625.5,324h0a22,22,0,0,1,22.25.26l-.53,3.25L649.55,357A7.82,7.82,0,0,1,643,365.34Z" style="fill:#ffbe9d"></path><path d="M628,334.41a.92.92,0,0,0-.09-1.29.91.91,0,0,0-1.29.08.92.92,0,1,0,1.38,1.21Z" style="fill:#263238"></path><path d="M626.31,333.44c.11.09.67-.45,1.53-.55s1.55.27,1.63.15-.08-.24-.38-.42a2.06,2.06,0,0,0-1.31-.25,2.08,2.08,0,0,0-1.21.57C626.32,333.19,626.25,333.39,626.31,333.44Z" style="fill:#263238"></path><path d="M636.14,332.79a.92.92,0,1,0,1.29.16A.92.92,0,0,0,636.14,332.79Z" style="fill:#263238"></path><path d="M635.78,333.14c.11.09.68-.45,1.54-.55s1.54.27,1.63.15-.08-.24-.38-.42a2.15,2.15,0,0,0-1.32-.26,2.18,2.18,0,0,0-1.21.58C635.8,332.89,635.73,333.09,635.78,333.14Z" style="fill:#263238"></path><path d="M633.06,340a4.16,4.16,0,0,0-1.44-.14c-.23,0-.41,0-.44-.15a1.14,1.14,0,0,1,.09-.66c.16-.6.32-1.21.48-1.84a23.4,23.4,0,0,0,1-4.79,24.88,24.88,0,0,0-1.43,4.67c-.15.64-.3,1.24-.44,1.84a1.42,1.42,0,0,0,0,1,.62.62,0,0,0,.43.32,1.68,1.68,0,0,0,.39,0A4.37,4.37,0,0,0,633.06,340Z" style="fill:#263238"></path><path d="M636,340.67c.84-.64-2.34,1.6-4.11,1.72a2.41,2.41,0,0,0,2.93.63A1.84,1.84,0,0,0,636,340.67Z" style="fill:#fff"></path><path d="M634,351.31a14.73,14.73,0,0,0,7.93-3.26s-1.42,4.74-7.75,4.89Z" style="fill:#eb996e"></path><path d="M642.52,320.35a5.93,5.93,0,0,1-4.77,5.45c-1.54.27-3.24-.07-4.59.71a8,8,0,0,0-2.23,2.49,3.78,3.78,0,0,1-2.7,1.82,8,8,0,0,1-1.6-.29,1.82,1.82,0,0,0-1.55.25,12.09,12.09,0,0,1-1.24-5.82,5.42,5.42,0,0,1,3.24-4.68c1.23-.44,2.59-.27,3.87-.56a13.09,13.09,0,0,0,3-1.27,9.44,9.44,0,0,1,5.13-1.39c1.79.18,3.58,1.55,3.63,3.35" style="fill:#263238"></path><path d="M642.51,318.42a6.21,6.21,0,0,1,9,4.39c.29,1.67,0,3.62,1.15,4.85.65.69,1.69,1,2.09,1.88.53,1.14-.33,2.67.44,3.66.62.81,2,.71,2.64,1.48s.43,1.69.59,2.57c.27,1.41,1.4,2.45,2.33,3.55s1.72,2.58,1.18,3.9c-.63,1.52-2.56,1.89-4.2,2l-11.2,1.06a5.29,5.29,0,0,1-3.71-.55,4.15,4.15,0,0,1-1.31-3.72c.2-2.76,1.64-5.33,1.72-8.09a16.7,16.7,0,0,0-1.54-6.42,16.61,16.61,0,0,1-1.54-6.41,4.57,4.57,0,0,1,3.44-4.65" style="fill:#263238"></path><path d="M648.55,332.11a1,1,0,0,1,.86-1c1.17-.09,3.12.28,3.47,3.51.5,4.62-4,3.7-4,3.57S648.63,333.92,648.55,332.11Z" style="fill:#ffbe9d"></path><path d="M649.77,336.31s.08.05.23.1a.82.82,0,0,0,.6-.06,2,2,0,0,0,.73-1.88,2.83,2.83,0,0,0-.35-1.13.94.94,0,0,0-.68-.55.41.41,0,0,0-.45.27c0,.14,0,.22,0,.23s-.11-.06-.09-.26a.52.52,0,0,1,.15-.31.61.61,0,0,1,.43-.16,1.13,1.13,0,0,1,.92.62,2.85,2.85,0,0,1,.42,1.26,2.09,2.09,0,0,1-1,2.12.85.85,0,0,1-.75,0C649.79,336.42,649.75,336.32,649.77,336.31Z" style="fill:#eb996e"></path><path d="M649.08,339.6a3.13,3.13,0,0,0,.71,1.18,1.76,1.76,0,0,0,1.29.46,2,2,0,0,0,1.48-.77,2.2,2.2,0,0,0,.4-1.64,2.41,2.41,0,0,0-.62-1.28c-.59-.62-1.16-.76-1.13-.84s.64-.06,1.39.58a2.59,2.59,0,0,1,.37,3.5,2.41,2.41,0,0,1-1.88.93,2.09,2.09,0,0,1-1.56-.68C648.86,340.27,649,339.57,649.08,339.6Z" style="fill:#455a64"></path><path d="M663.2,405.86c-.07,1.86-.19,3.78-.38,5.74a17.1,17.1,0,0,0,.9,4,14.09,14.09,0,0,1,.83,2.68,3.06,3.06,0,0,1-.72,2.61c-.51.49-1.26.74-1.59,1.36-.67,1.21.7,2.49,1.21,3.77a3.25,3.25,0,0,1-1.93,4.13,3,3,0,0,1-2-.08c0,.09-.15.35-.18.44l-30.22-25.8,2.6-2.4s-.53-1.47-1.38-3.78c-4.81,3.85-10,5.93-15,3.69-15.39-7-29.24-29.74-29.24-29.74l6.77-7.64s21.58,22.74,25.27,21.09c1.18-.53,3.36-3.22,5.77-6.63,3.25-4.51,4.26-7.69,10.06-21.38,4.34-.13,10.93-2,15.74-3.65,0,0,7.28,4.67,8.66,15.73C659.4,378,663.2,405.86,663.2,405.86Z" style="fill:#FF725E"></path><path d="M628.09,400.63c-.06-.08,1.39-1.16,3.45-3.19a48.63,48.63,0,0,0,3.42-3.76c1.2-1.48,2.46-3.17,3.69-5,2.45-3.69,4.38-7.21,5.78-9.75l1.67-3a6.41,6.41,0,0,1,.67-1.08,5.73,5.73,0,0,1-.49,1.17c-.34.74-.86,1.8-1.52,3.09a98.84,98.84,0,0,1-5.68,9.87,59.3,59.3,0,0,1-3.75,5,42.24,42.24,0,0,1-3.53,3.72c-.53.51-1,.92-1.48,1.3s-.84.68-1.17.92A5.69,5.69,0,0,1,628.09,400.63Z" style="fill:#263238"></path><path d="M641.22,360.56a8.4,8.4,0,0,1-1.28-.11,7.12,7.12,0,0,0-3.34.66,9.2,9.2,0,0,0-3.7,3.42,16.05,16.05,0,0,0-1.36,2.72c-.44,1-.91,2-1.44,3a58.78,58.78,0,0,1-6.33,9.78c-.93,1.16-1.74,2.06-2.31,2.67a6.2,6.2,0,0,1-.93.9,5.93,5.93,0,0,1,.78-1c.52-.65,1.28-1.58,2.17-2.77a68.35,68.35,0,0,0,6.16-9.79c.52-1,1-2,1.44-3a15.7,15.7,0,0,1,1.42-2.77,9.41,9.41,0,0,1,3.94-3.5,6.81,6.81,0,0,1,3.52-.52A5.11,5.11,0,0,1,641.22,360.56Z" style="fill:#263238"></path><path d="M551.06,438.56l.46-2.16,14.56,2.44-1.26,6.27-.91-.13c-4-.6-20.38-3.33-22.87-4.68C538.26,438.79,551.06,438.56,551.06,438.56Z" style="fill:#263238"></path><path d="M565.09,444.82a.79.79,0,0,1-.25,0l-.72-.1-2.64-.42c-2.23-.38-5.3-.94-8.67-1.63s-6.42-1.38-8.61-1.92l-2.6-.64-.7-.19-.24-.08.25,0,.71.16,2.6.59c2.2.5,5.25,1.17,8.62,1.87s6.44,1.27,8.66,1.67l2.63.48.71.14Z" style="fill:#455a64"></path><path d="M545.61,441.23a5.32,5.32,0,0,0-.23-1.35,6.16,6.16,0,0,0-.68-1.19,2.38,2.38,0,0,1,.91,2.54Z" style="fill:#455a64"></path><path d="M550.3,439.94s-.19-.27-.34-.64-.22-.69-.17-.71.2.27.34.65S550.35,439.93,550.3,439.94Z" style="fill:#455a64"></path><path d="M551.6,439.57s-.24-.17-.44-.45-.33-.51-.3-.54.24.17.44.44S551.64,439.54,551.6,439.57Z" style="fill:#455a64"></path><path d="M552.61,438.36a1.72,1.72,0,0,1-.77-.06.39.39,0,1,1,.77.06Z" style="fill:#455a64"></path><path d="M553.06,437.45a1.43,1.43,0,0,1-.88.08,1.5,1.5,0,0,1-.85-.3,4.59,4.59,0,0,1,.87.12A4.72,4.72,0,0,1,553.06,437.45Z" style="fill:#455a64"></path><path d="M550.07,438.59a2.69,2.69,0,0,1-.92-.2,5.27,5.27,0,0,1-.94-.42,2.64,2.64,0,0,1-.52-.35.55.55,0,0,1-.17-.33.38.38,0,0,1,.22-.34,1.73,1.73,0,0,1,2,.93,1.6,1.6,0,0,1,.17.68.44.44,0,0,1,0,.25,2.44,2.44,0,0,0-.25-.88,1.78,1.78,0,0,0-.69-.67,1.46,1.46,0,0,0-1.12-.15c-.17.08-.14.26,0,.39a3.06,3.06,0,0,0,.47.33,6.65,6.65,0,0,0,.9.44C549.73,438.49,550.08,438.56,550.07,438.59Z" style="fill:#455a64"></path><path d="M549.83,438.58s-.11-.25,0-.66a1.57,1.57,0,0,1,.39-.62,1,1,0,0,1,.87-.32.39.39,0,0,1,.2.49.94.94,0,0,1-.25.38,2.55,2.55,0,0,1-.55.47,1.51,1.51,0,0,1-.6.27s.21-.13.53-.37a3.15,3.15,0,0,0,.5-.48c.17-.17.33-.5.1-.59s-.51.11-.69.27a1.62,1.62,0,0,0-.38.54A3,3,0,0,0,549.83,438.58Z" style="fill:#455a64"></path><path d="M565.6,440.82s-.4-.12-1.07-.18a4.72,4.72,0,0,0-2.51.48,4.63,4.63,0,0,0-1.87,1.75c-.35.57-.46,1-.49,1a1,1,0,0,1,.06-.29,3.4,3.4,0,0,1,.32-.74,4.51,4.51,0,0,1,1.9-1.85,4.57,4.57,0,0,1,2.61-.45,3.53,3.53,0,0,1,.78.19C565.51,440.76,565.61,440.81,565.6,440.82Z" style="fill:#455a64"></path><path d="M558.1,442.14a8.16,8.16,0,0,1-2.15-.22,8.84,8.84,0,0,1-2.07-.6c0-.05,1,.2,2.11.42S558.1,442.09,558.1,442.14Z" style="fill:#455a64"></path><path d="M560.92,442.72s-.12.18-.26.38-.23.37-.28.36,0-.24.14-.47S560.9,442.68,560.92,442.72Z" style="fill:#455a64"></path><path d="M562.26,441.61s-.1.18-.28.3-.35.18-.38.14.1-.17.28-.29S562.23,441.57,562.26,441.61Z" style="fill:#455a64"></path><path d="M563.9,441.32c0,.05-.21,0-.44,0s-.4.11-.43.07.13-.21.41-.25S563.93,441.28,563.9,441.32Z" style="fill:#455a64"></path><path d="M565,441.26c0,.05-.09.1-.21.13s-.25,0-.25-.05.09-.11.22-.13S565,441.21,565,441.26Z" style="fill:#455a64"></path></g><g id="character-1"><path d="M345.05,269.46a10,10,0,0,0-9.24,14.91c1.19,2.13,3.13,3.77,4.38,5.88s1.59,5.15-.27,6.75-4.6,1-6.44,2.44a3.87,3.87,0,0,0-.18,5.7c-2.75.53-4.31,3.91-3.48,6.59s3.46,4.5,6.21,5.08a19,19,0,0,0,8.32-.55c-.47,2,.94,4,2.78,4.83a9.77,9.77,0,0,0,5.94.29,12.29,12.29,0,0,0,6.59-3.22,11.67,11.67,0,0,0,2.78-6.24c1.26-7.57-1.65-15.14-4.51-22.25" style="fill:#263238"></path><path d="M524.66,366.23l-7.84-.29-.63,14.69,11.47.53.1-.9c.4-4.05,1.73-20.58,1-23.33C528,353.87,524.66,366.23,524.66,366.23Z" style="fill:#FF725E"></path><g style="opacity:0.4"><path d="M526.51,360.2s1.45-4.32,2.14-3.74,0,17.34-1,24.7l-.33,0,1-19.55S526.51,361.06,526.51,360.2Z" style="fill:#fff"></path></g><path d="M527.31,381.36a1.08,1.08,0,0,0,0-.25c0-.22,0-.46.08-.73.06-.72.14-1.61.23-2.66.18-2.25.38-5.36.53-8.81s.22-6.56.24-8.81c0-1.06,0-2,0-2.68,0-.27,0-.51,0-.72a1.33,1.33,0,0,0,0-.26,1.33,1.33,0,0,0,0,.26c0,.21,0,.45,0,.72q0,1.09-.06,2.67c-.06,2.26-.14,5.38-.29,8.82s-.34,6.55-.49,8.8c-.07,1.05-.12,1.94-.17,2.67,0,.27,0,.5,0,.72S527.31,381.36,527.31,381.36Z" style="fill:#263238"></path><path d="M528.57,361.59a5.79,5.79,0,0,1-1.25-.55,6.49,6.49,0,0,1-1-1,2.35,2.35,0,0,0,2.23,1.5Z" style="fill:#263238"></path><path d="M526.19,365.83s-.22-.26-.55-.49S525,365,525,365s.21.26.54.49S526.16,365.87,526.19,365.83Z" style="fill:#263238"></path><path d="M525.51,367s-.11-.27-.33-.53-.42-.45-.46-.42.11.27.33.53S525.47,367,525.51,367Z" style="fill:#263238"></path><path d="M524.09,367.68s.11-.33.13-.76a1.74,1.74,0,0,0-.05-.77,1.86,1.86,0,0,0-.13.76A1.71,1.71,0,0,0,524.09,367.68Z" style="fill:#263238"></path><path d="M523.1,367.9a1.52,1.52,0,0,0,.29-.84,1.55,1.55,0,0,0-.08-.89,4.75,4.75,0,0,0-.1.87A5,5,0,0,0,523.1,367.9Z" style="fill:#263238"></path><path d="M524.93,365.28a2.69,2.69,0,0,0,0-.95,5.45,5.45,0,0,0-.17-1,2.69,2.69,0,0,0-.22-.59.52.52,0,0,0-.28-.24.35.35,0,0,0-.38.13,1.73,1.73,0,0,0,.41,2.16,1.64,1.64,0,0,0,.62.33c.16.05.25.05.25,0a2.81,2.81,0,0,1-.79-.47,1.65,1.65,0,0,1-.48-.83,1.42,1.42,0,0,1,.12-1.12c.12-.14.29-.08.38.09a2.6,2.6,0,0,1,.21.55,7.59,7.59,0,0,1,.21,1C524.91,364.92,524.9,365.28,524.93,365.28Z" style="fill:#263238"></path><path d="M525,365a.87.87,0,0,0-.65-.14,1.48,1.48,0,0,0-.7.23.93.93,0,0,0-.52.76.37.37,0,0,0,.42.31,1.09,1.09,0,0,0,.43-.14,2.89,2.89,0,0,0,.59-.42,1.51,1.51,0,0,0,.41-.53s-.18.18-.49.43a3.42,3.42,0,0,1-.58.37c-.21.12-.57.2-.6,0s.23-.47.42-.61a1.6,1.6,0,0,1,.63-.24A3.45,3.45,0,0,1,525,365Z" style="fill:#263238"></path><path d="M523.31,380.88s0-.42.08-1.08a4.87,4.87,0,0,1,1.08-2.32,4.71,4.71,0,0,1,2.16-1.39c.64-.2,1.06-.2,1.06-.24a.89.89,0,0,0-.3,0,3.81,3.81,0,0,0-.8.13,4.47,4.47,0,0,0-3.32,3.81,3.7,3.7,0,0,0,0,.81A.7.7,0,0,0,523.31,380.88Z" style="fill:#263238"></path><path d="M517.27,379.1a26.56,26.56,0,0,0,3,.26,24.89,24.89,0,0,0,3,.07,28.86,28.86,0,0,0-3-.25A23.84,23.84,0,0,0,517.27,379.1Z" style="fill:#263238"></path><path d="M526.42,373.93a8.64,8.64,0,0,0,.31-2.14,8.86,8.86,0,0,0-.08-2.15c-.06,0,0,1-.1,2.14S526.37,373.92,526.42,373.93Z" style="fill:#263238"></path><path d="M526.29,376.8s.21-.07.43-.15.42-.14.42-.19-.23-.08-.48,0S526.26,376.77,526.29,376.8Z" style="fill:#263238"></path><path d="M524.9,377.83s.19-.05.35-.2.26-.29.23-.33-.19.06-.35.2S524.86,377.79,524.9,377.83Z" style="fill:#263238"></path><path d="M524.21,379.35s.06-.2.14-.41.21-.36.18-.4-.24.07-.34.33S524.17,379.37,524.21,379.35Z" style="fill:#263238"></path><path d="M523.87,380.45s.13-.06.18-.18.06-.24,0-.26-.12.06-.17.18S523.83,380.43,523.87,380.45Z" style="fill:#263238"></path><polygon points="522.92 380.85 523.31 366.17 521.54 366.12 521.98 380.92 522.92 380.85" style="opacity:0.30000000000000004"></polygon><path d="M432.73,302.56l.82-2.55a23.21,23.21,0,0,0,1.44-4.26,6.37,6.37,0,0,0,.17-2.22,10,10,0,0,0-.53-2.73c-.36-.77.41-1.58,1.09-1.21s1.72,2.49,1.73,5.25,2.74-.62,3.75-1.83,4.34-4.81,5-4.79c.91,0,1,1,0,2.19s-3.92,5-3.25,5.47,5.74-5.74,5.74-5.74.88-1.51,1.66-.95c1.43,1-4.47,7.24-5.05,7.82-.4.4.31,1,.71.52s4.93-6.34,6.39-5.33c1.12.78-4.8,5.17-5.06,6.91s4.15-3.79,5.19-3c.39.29.63.56-2.36,3.37s-12.63,9.32-12.63,9.32l-4.77-6.4" style="fill:#b78876"></path><path d="M339.88,375.18s-4.77,6.05-15.12,5.89c0,0-1.75,1.75,1,1.75s15.27,1.43,17.66-1.11c0,0,8.28,1.91,12.1.63,0,0-5.41-.47-6.37-1.91s0-7,0-7l-4.93-3.18Z" style="fill:#b78876"></path><path d="M434.12,298.38s-20.55,28.6-38.87,2.36c-10.8-15.46-20.13-12.39-20.14-12.39l-3.62.39-14.21,4a37.57,37.57,0,0,0-6.2,2.29h0s-12.71,2.79-11.74,25.94l-2.75,57,15,2.08,3.85-56.95c2.93,5.79,9,17.71,9.4,17.53s1,15.93,1,15.93l33.29-6.41,1-6.11-9.52-20.9a12,12,0,0,0,1.5-3.59,25.55,25.55,0,0,0,17.51,6.05c24.44-.83,33.11-19.22,33.11-19.22Z" style="fill:#455a64"></path><path d="M390.61,323.12a25.36,25.36,0,0,1,.88-2.88,11.79,11.79,0,0,0,.35-7,7.27,7.27,0,0,0-2.13-3.18,13,13,0,0,0-2.65-1.79c-1.64-.86-2.72-1.27-2.69-1.35a2.61,2.61,0,0,1,.79.2,17.19,17.19,0,0,1,2.06.82,12.31,12.31,0,0,1,2.81,1.76,7.59,7.59,0,0,1,2.31,3.37,9.43,9.43,0,0,1,.31,4.07,15.44,15.44,0,0,1-.81,3.21c-.32.88-.62,1.57-.84,2A2.62,2.62,0,0,1,390.61,323.12Z" style="fill:#263238"></path><path d="M378.24,317.27s.14.22.27.65a7.35,7.35,0,0,1,.27,1.89,8.73,8.73,0,0,1-7.54,8.91,7.37,7.37,0,0,1-1.91,0c-.45-.06-.69-.13-.68-.16a24.68,24.68,0,0,0,2.53-.25,9.09,9.09,0,0,0,5.14-3,9.23,9.23,0,0,0,2.1-5.56C378.46,318.25,378.15,317.29,378.24,317.27Z" style="fill:#263238"></path><path d="M384.75,304.9a15.09,15.09,0,0,1-1.35-2.29c-.79-1.43-1.9-3.41-3.18-5.55s-2.5-4.06-3.39-5.44a15.76,15.76,0,0,1-1.37-2.27,12,12,0,0,1,1.68,2.07c1,1.33,2.24,3.21,3.53,5.37s2.34,4.17,3.06,5.65A11.55,11.55,0,0,1,384.75,304.9Z" style="fill:#263238"></path><path d="M347.26,299.54a2.45,2.45,0,0,1,1.13-.17,6,6,0,0,1,3,.93,8.16,8.16,0,0,1,3,3.47,18,18,0,0,1,1.52,5.41,38.86,38.86,0,0,1-.21,10.15c-.17,1.28-.34,2.32-.47,3a5.51,5.51,0,0,1-.25,1.1,4.24,4.24,0,0,1,.05-1.13c.08-.83.19-1.85.31-3.05a44,44,0,0,0,.05-10,18,18,0,0,0-1.43-5.27,8.09,8.09,0,0,0-2.78-3.37,6.14,6.14,0,0,0-2.78-1C347.67,299.51,347.27,299.58,347.26,299.54Z" style="fill:#263238"></path><path d="M356.93,318.05a19.52,19.52,0,0,1,2.23-2.72l.13-.15.16.14,2.69,2.32-.37,0,1-1.25,1.14-1.36.18-.21.19.18,2.41,2.26-.3,0a21.46,21.46,0,0,1,2.49-2.61,19.51,19.51,0,0,1-2.17,2.88l-.14.17-.16-.15L364,315.41l.37,0-1.14,1.37-1,1.24-.17.21-.19-.18-2.63-2.39h.29A21,21,0,0,1,356.93,318.05Z" style="fill:#fff"></path><path d="M374.46,344.16a19.78,19.78,0,0,1-1.57-3.14l-.09-.18.19-.09,3.22-1.52-.13.35-.72-1.46c-.26-.55-.52-1.08-.78-1.6l-.11-.24.24-.1,3.05-1.29-.11.29a20.78,20.78,0,0,1-1.37-3.34A20,20,0,0,1,378,335l.1.19-.21.09-3,1.36.13-.34c.26.51.52,1.05.79,1.59l.71,1.46.12.24-.24.11-3.25,1.43.1-.27A19.24,19.24,0,0,1,374.46,344.16Z" style="fill:#fff"></path><path d="M388.16,346.24a18.8,18.8,0,0,1-1.57-3.13l-.09-.19.19-.09,3.22-1.51-.13.35c-.23-.48-.47-1-.72-1.46s-.52-1.08-.78-1.6l-.11-.24.24-.11,3-1.28-.11.29a21.68,21.68,0,0,1-1.37-3.34,20.15,20.15,0,0,1,1.75,3.15l.1.2-.2.09-3,1.36.12-.34c.26.51.52,1,.79,1.59l.71,1.46.12.24-.24.11-3.25,1.42.1-.27A19.58,19.58,0,0,1,388.16,346.24Z" style="fill:#fff"></path><path d="M385.56,319.7a20.59,20.59,0,0,1-3.24-1.36l-.18-.08.08-.19c.44-1,.93-2.08,1.46-3.24l.13.34-1.5-.64-1.63-.7-.25-.11.12-.24,1.47-3,.11.29a20.62,20.62,0,0,1-3.22-1.64,20.58,20.58,0,0,1,3.39,1.25l.2.08-.1.21c-.42.92-.89,1.92-1.39,3l-.13-.34,1.63.69,1.5.65.24.1-.11.24-1.54,3.2-.09-.27A19.26,19.26,0,0,1,385.56,319.7Z" style="fill:#fff"></path><path d="M410.21,317.88a20,20,0,0,1-3.2,1.43l-.19.07-.08-.19c-.41-1-.87-2.1-1.37-3.28l.34.14-1.49.65-1.63.71-.25.11-.09-.25-1.14-3.1.28.11a19.82,19.82,0,0,1-3.4,1.22,21.33,21.33,0,0,1,3.23-1.6l.2-.09.08.21,1.23,3.06-.34-.14,1.63-.71,1.49-.65.24-.11.1.25,1.28,3.31-.27-.11A19.79,19.79,0,0,1,410.21,317.88Z" style="fill:#fff"></path><path d="M346.1,354.85a21,21,0,0,1,1.47,3.19l.07.18-.19.09-3.26,1.4.13-.34.68,1.48.72,1.63.11.24-.25.1L342.5,364l.11-.28a20.66,20.66,0,0,1,1.26,3.38,20.16,20.16,0,0,1-1.64-3.21l-.09-.2.2-.08,3.05-1.27-.13.35-.74-1.62c-.22-.51-.45-1-.66-1.49l-.11-.24.24-.1,3.3-1.32-.11.27A19.06,19.06,0,0,1,346.1,354.85Z" style="fill:#fff"></path><path d="M349.94,307a19.84,19.84,0,0,1,1.47,3.19l.08.18-.19.09-3.27,1.4.14-.34.67,1.48.73,1.63.11.24-.25.1-3.09,1.18.12-.28a21.9,21.9,0,0,1,1.26,3.38,20.63,20.63,0,0,1-1.65-3.21l-.09-.2.21-.08,3.05-1.27-.14.35-.73-1.62-.67-1.49-.11-.24.25-.1,3.3-1.32-.12.27A20.19,20.19,0,0,1,349.94,307Z" style="fill:#fff"></path><path d="M428.52,311.6a19.84,19.84,0,0,1-.79,3.42l-.05.19-.2,0-3.44-.89.31-.18c-.12.51-.24,1-.37,1.58s-.29,1.17-.42,1.73l-.07.26-.25-.08-3.16-.95.26-.16a20.19,20.19,0,0,1-1.08,3.45,22,22,0,0,1,.67-3.55l.05-.21.21.06,3.19.87-.32.19c.13-.56.27-1.14.41-1.73l.39-1.58.06-.26.25.07,3.42,1-.26.14A19.58,19.58,0,0,1,428.52,311.6Z" style="fill:#fff"></path><path d="M375.24,304.34a19.62,19.62,0,0,1-3.38,1l-.2,0-.05-.2c-.26-1-.56-2.2-.88-3.44l.32.18-1.57.44-1.72.46-.26.07-.05-.26c-.25-1.16-.47-2.25-.68-3.24l.26.16a19.94,19.94,0,0,1-3.54.71,21.92,21.92,0,0,1,3.43-1.12l.21-.06.05.22c.23,1,.49,2.06.77,3.21l-.32-.19c.56-.15,1.13-.3,1.71-.47l1.58-.42.25-.07.06.26c.28,1.25.55,2.41.79,3.46l-.25-.15A20.65,20.65,0,0,1,375.24,304.34Z" style="fill:#fff"></path><path d="M349.77,342.91a19.62,19.62,0,0,1-3-1.86l-.17-.11.12-.17c.59-.9,1.24-1.9,1.95-3l.07.36-1.37-.87-1.5-1-.23-.14.16-.22,1.93-2.68.05.29a19.71,19.71,0,0,1-2.9-2.13,21.35,21.35,0,0,1,3.13,1.78l.19.11-.13.19-1.85,2.73-.08-.36,1.51,1,1.37.88.22.14-.15.21c-.73,1.05-1.41,2-2,2.92l-.05-.29A20.66,20.66,0,0,1,349.77,342.91Z" style="fill:#fff"></path><path d="M393.7,302.24a19.93,19.93,0,0,1-3.43.71l-.2,0,0-.21c-.19-1.06-.41-2.23-.63-3.49l.3.2-1.6.33-1.74.34-.27,0,0-.27c-.17-1.17-.32-2.27-.46-3.27l.25.18a21.14,21.14,0,0,1-3.58.46,20.58,20.58,0,0,1,3.5-.88l.21,0,0,.22c.16,1,.35,2.09.54,3.26l-.3-.21,1.74-.36,1.6-.31.26-.05,0,.26c.19,1.27.38,2.45.54,3.51l-.23-.17A20.47,20.47,0,0,1,393.7,302.24Z" style="fill:#fff"></path><path d="M405.93,361.74c12.51-3.66,26.94-5.9,54.44-5.2a460.08,460.08,0,0,1,61.15,6l1.07,18.83-60-5.26-74.17,7.35Z" style="fill:#263238"></path><path d="M442.73,336.83c1.28-.39,35,44.71,35,44.71l20.13-11.29s-34.33-49.74-49.62-58.79c-10.75-6.36-41.66,24.34-58.39,38.18l-24,6.9a50.63,50.63,0,0,0,3,13.47,20.76,20.76,0,0,0,33.5,7.9Z" style="fill:#263238"></path><path d="M390.86,348.67a21.16,21.16,0,0,1-2.41,2.23c-1.53,1.33-3.66,3.14-6,5.12s-4.56,3.73-6.15,5a20.45,20.45,0,0,1-2.63,1.95,19.58,19.58,0,0,1,2.41-2.24c1.53-1.33,3.66-3.14,6-5.11s4.55-3.74,6.14-5A19.28,19.28,0,0,1,390.86,348.67Z" style="fill:#455a64"></path><path d="M421.24,357.75a12.85,12.85,0,0,1-1.1,1.27L417,362.36c-2.66,2.8-6.36,6.65-10.46,10.87a69.91,69.91,0,0,1-6,5.8,19.28,19.28,0,0,1-6,3.29,22.8,22.8,0,0,1-4.48,1,9.16,9.16,0,0,1-1.68.11,42.84,42.84,0,0,0,6-1.45,19.63,19.63,0,0,0,5.8-3.31,75.81,75.81,0,0,0,5.9-5.8c4.11-4.22,7.85-8,10.58-10.76l3.24-3.22A9.64,9.64,0,0,1,421.24,357.75Z" style="fill:#455a64"></path><path d="M496.73,373.54l-1.17-2-12.87,7.21,3,5.3.82-.4c3.64-1.82,18.35-9.49,20.3-11.55C509,369.79,496.73,373.54,496.73,373.54Z" style="fill:#FF725E"></path><g style="opacity:0.4"><path d="M502.82,371.89s4.42-1.07,4.31-.17-14.7,9.2-21.45,12.31l-.14-.3,17.09-9.55S502.09,372.35,502.82,371.89Z" style="fill:#fff"></path></g><path d="M485.34,383.84l.23-.1.65-.33,2.38-1.22c2-1.05,4.74-2.53,7.74-4.23s5.67-3.31,7.59-4.49l2.26-1.42.61-.4.21-.15-.23.12-.62.37-2.3,1.37c-1.93,1.15-4.62,2.74-7.61,4.44s-5.73,3.21-7.71,4.28l-2.35,1.27-.64.35C485.41,383.79,485.33,383.83,485.34,383.84Z" style="fill:#263238"></path><path d="M502.73,374.38a7.07,7.07,0,0,1-.19-1.35,5.67,5.67,0,0,1,.28-1.34,2,2,0,0,0-.46,1.33A2,2,0,0,0,502.73,374.38Z" style="fill:#263238"></path><path d="M497.88,374.62a1.59,1.59,0,0,0,.12-.72,1.56,1.56,0,0,0-.05-.73,1.52,1.52,0,0,0-.13.72A1.49,1.49,0,0,0,497.88,374.62Z" style="fill:#263238"></path><path d="M496.53,374.66c.05,0,.17-.23.28-.56s.16-.59.11-.61-.17.24-.28.56A1.32,1.32,0,0,0,496.53,374.66Z" style="fill:#263238"></path><path d="M495.19,373.83a1.74,1.74,0,0,0,.72-.3c.37-.2.65-.4.62-.45a1.78,1.78,0,0,0-.71.3C495.45,373.58,495.17,373.79,495.19,373.83Z" style="fill:#263238"></path><path d="M494.48,373.11a1.63,1.63,0,0,0,.87-.21,1.53,1.53,0,0,0,.71-.54,5,5,0,0,0-.79.38A4.64,4.64,0,0,0,494.48,373.11Z" style="fill:#263238"></path><path d="M497.68,373.26a2.79,2.79,0,0,0,.81-.48,5.12,5.12,0,0,0,.77-.69,2.52,2.52,0,0,0,.38-.49.5.5,0,0,0,.06-.37.36.36,0,0,0-.31-.25,1.73,1.73,0,0,0-1.61,1.5,1.67,1.67,0,0,0,0,.7.52.52,0,0,0,.11.23,2.52,2.52,0,0,1,0-.91,1.73,1.73,0,0,1,.44-.86,1.46,1.46,0,0,1,1-.49c.18,0,.22.21.12.37a2.61,2.61,0,0,1-.34.46,6.78,6.78,0,0,1-.72.71A9,9,0,0,0,497.68,373.26Z" style="fill:#263238"></path><path d="M497.91,373.18a.91.91,0,0,0-.23-.63,1.57,1.57,0,0,0-.56-.47,1,1,0,0,0-.93,0,.39.39,0,0,0,0,.53.93.93,0,0,0,.35.28,2.6,2.6,0,0,0,.67.28,1.4,1.4,0,0,0,.66.06s-.25-.05-.63-.18a3.46,3.46,0,0,1-.62-.3c-.21-.11-.47-.37-.28-.53s.52-.05.74,0a1.51,1.51,0,0,1,.53.4A2.91,2.91,0,0,1,497.91,373.18Z" style="fill:#263238"></path><path d="M483.6,380.2a10.15,10.15,0,0,1,1-.51,4.71,4.71,0,0,1,2.54-.32,4.65,4.65,0,0,1,2.32,1.08c.51.44.74.79.76.77a.93.93,0,0,0-.14-.25,3.73,3.73,0,0,0-.54-.61,4.52,4.52,0,0,0-2.38-1.17,4.58,4.58,0,0,0-2.62.39,5,5,0,0,0-.69.41A1,1,0,0,0,483.6,380.2Z" style="fill:#263238"></path><path d="M481.9,374.13a28.67,28.67,0,0,0,1.38,2.68,26,26,0,0,0,1.54,2.6,23.79,23.79,0,0,0-1.38-2.68A26,26,0,0,0,481.9,374.13Z" style="fill:#263238"></path><path d="M491.15,379.12a7.85,7.85,0,0,0,2-.87A8.12,8.12,0,0,0,494.9,377s-.83.49-1.87,1.06S491.13,379.08,491.15,379.12Z" style="fill:#263238"></path><path d="M488.65,380.55c0,.05.16.14.36.28s.34.28.38.26-.05-.24-.28-.41S488.66,380.5,488.65,380.55Z" style="fill:#263238"></path><path d="M487,379.91s.15.14.36.19.38.07.4,0-.15-.13-.36-.19S487.05,379.86,487,379.91Z" style="fill:#263238"></path><path d="M485.38,380.15s.2-.06.43-.11.41,0,.43-.06-.19-.17-.47-.11S485.34,380.11,485.38,380.15Z" style="fill:#263238"></path><path d="M484.27,380.44c0,.05.12.07.25.05s.23-.07.22-.12-.12-.07-.25-.05S484.27,380.39,484.27,380.44Z" style="fill:#263238"></path><polygon points="483.43 379.84 496.06 372.36 495.16 370.83 482.86 379.09 483.43 379.84" style="opacity:0.30000000000000004"></polygon><path d="M364,300.41h0a8,8,0,0,0,5.74-10.74c-1.24-3.11-2.36-5.82-2.36-5.82s6-2.59,4.43-8.84-6.35-20.25-6.35-20.25h0a22.34,22.34,0,0,0-21,8.4l1.7,2.89,8.6,28.85A8,8,0,0,0,364,300.41Z" style="fill:#b78876"></path><path d="M366.92,267.11a.93.93,0,1,1,.86-1.66.93.93,0,0,1,.4,1.26A.94.94,0,0,1,366.92,267.11Z" style="fill:#263238"></path><path d="M368.15,264.63c-.07.13-.81-.18-1.67,0s-1.36.83-1.48.74,0-.26.2-.53a2.18,2.18,0,0,1,2.51-.63C368,264.4,368.18,264.57,368.15,264.63Z" style="fill:#263238"></path><path d="M358.56,268a.93.93,0,1,1-.54,1.78.93.93,0,0,1,.54-1.78Z" style="fill:#263238"></path><path d="M359,267.82c-.07.14-.8-.18-1.66,0s-1.37.83-1.49.74,0-.25.2-.53a2.2,2.2,0,0,1,1.16-.73,2.13,2.13,0,0,1,1.36.11C358.93,267.59,359.07,267.76,359,267.82Z" style="fill:#263238"></path><path d="M364.16,273.37a4.49,4.49,0,0,1,1.31-.65c.22-.08.38-.18.37-.31a1.4,1.4,0,0,0-.33-.6l-1.14-1.56a25.22,25.22,0,0,1-2.66-4.2,24.49,24.49,0,0,1,3.08,3.91l1.1,1.59a1.45,1.45,0,0,1,.36.9.56.56,0,0,1-.29.45,1.2,1.2,0,0,1-.37.15A4.13,4.13,0,0,1,364.16,273.37Z" style="fill:#263238"></path><path d="M361.62,275.05c-1-.3,2.8.66,4.52.12a2.44,2.44,0,0,1-2.55,1.67C361.55,276.65,361.62,275.05,361.62,275.05Z" style="fill:#fff"></path><path d="M367.41,283.76a15,15,0,0,1-8.72-.19s3.09,4,9.15,1.8Z" style="fill:#a36957"></path><path d="M348,258.15a6,6,0,0,0,6.53,3.43c1.56-.31,3-1.25,4.62-1a8.29,8.29,0,0,1,3,1.54,3.81,3.81,0,0,0,3.23.74,8.18,8.18,0,0,0,1.41-.86,1.87,1.87,0,0,1,1.57-.33,12.4,12.4,0,0,0-1-6,5.49,5.49,0,0,0-4.79-3.25c-1.33,0-2.57.69-3.88.88a12.89,12.89,0,0,1-3.28-.12,9.63,9.63,0,0,0-5.38.57c-1.64.82-2.83,2.78-2.22,4.5" style="fill:#263238"></path><path d="M348.26,276.53c2.8,1.05,4-4.42,4.2-7.7a30,30,0,0,0-1.3-9.78,4.82,4.82,0,0,0-1.51-2.8c-.91-.65-.85.49-1.8-.09-1.87-1.13-4.1.54-5.16,1.48-1.77,1.56-2.31,4.28-1.95,6.75a24,24,0,0,0,2.57,7l1.51,3.07a5.54,5.54,0,0,0,1.35,2,1.63,1.63,0,0,0,2.09.11" style="fill:#263238"></path><path d="M346.54,271.54a1,1,0,0,0-1.18-.64c-1.15.34-2.86,1.4-2,4.6,1.22,4.57,5.17,2,5.15,1.91S347.13,273.28,346.54,271.54Z" style="fill:#b78876"></path><path d="M346.93,276s-.07.07-.18.17a.8.8,0,0,1-.6.17,2,2,0,0,1-1.38-1.52,2.76,2.76,0,0,1-.08-1.2,1,1,0,0,1,.43-.77.43.43,0,0,1,.53.09c.1.11.09.21.12.21s.08-.1,0-.28a.56.56,0,0,0-.26-.24.63.63,0,0,0-.47,0,1.18,1.18,0,0,0-.64.93,3,3,0,0,0,.06,1.35,2.16,2.16,0,0,0,1.69,1.67.93.93,0,0,0,.7-.32C347,276.08,347,276,346.93,276Z" style="fill:#a36957"></path><path d="M334.35,289.41a2.73,2.73,0,0,0,.11-.45,1.44,1.44,0,0,0-.47-1.16,1.42,1.42,0,0,0-1.83,0,2,2,0,0,0-.51,2.39,3.44,3.44,0,0,0,2.54,1.85,3.38,3.38,0,0,0,1.78-.12,2,2,0,0,0,1.25-1.25c.38-1.25-.34-2.67-1.18-3.85s-2-2.29-3.1-3.53a9,9,0,0,1-2.27-4.22,8.35,8.35,0,0,1,.34-4.46,8.19,8.19,0,0,1,2.22-3.38,8.45,8.45,0,0,1,3.06-1.75,9.19,9.19,0,0,1,5-.17,7.78,7.78,0,0,1,1.3.45c.29.14.43.21.42.23s-.61-.25-1.76-.49a9.53,9.53,0,0,0-4.87.33,8.23,8.23,0,0,0-2.89,1.72,7.92,7.92,0,0,0-2.06,3.22,8,8,0,0,0-.29,4.2,8.68,8.68,0,0,0,2.16,4c1.05,1.21,2.21,2.3,3.12,3.57a8.34,8.34,0,0,1,1.1,2,3.6,3.6,0,0,1,.13,2.27,2.48,2.48,0,0,1-1.55,1.53,3.79,3.79,0,0,1-2,.12,3.83,3.83,0,0,1-2.8-2.14,2.29,2.29,0,0,1,.68-2.77,1.66,1.66,0,0,1,2.14.09,1.49,1.49,0,0,1,.43,1.32A.75.75,0,0,1,334.35,289.41Z" style="fill:#263238"></path><path d="M348.79,278.84s.45.55.09,1.52a2.12,2.12,0,0,1-1.23,1.23,2.47,2.47,0,0,1-2.12-.2,2.67,2.67,0,0,1-.93-3.46c.48-.87,1.09-1.11,1.11-1.06a7.87,7.87,0,0,0-.77,1.21,2.4,2.4,0,0,0-.12,1.45,2.26,2.26,0,0,0,1,1.42,2.07,2.07,0,0,0,1.69.18,1.78,1.78,0,0,0,1.06-.92A3.44,3.44,0,0,0,348.79,278.84Z" style="fill:#FF725E"></path><path d="M343.59,272c-.09.1-.65-.24-1-.94s-.39-1.35-.25-1.37.36.51.71,1.12S343.69,271.91,343.59,272Z" style="fill:#FF725E"></path></g><g id="Fire"><polygon points="450.02 417.71 447.79 409.13 518.13 390.87 521.44 396.74 450.02 417.71" style="fill:#455a64"></polygon><path d="M520.68,396.5a3.37,3.37,0,0,1-.74.19l-2.13.44L510,398.69c-6.62,1.33-15.77,3.16-25.69,5.9-5,1.37-9.62,2.88-13.81,4.4s-7.94,3-11.13,4.09-5.83,1.88-7.67,2.33c-.91.22-1.63.38-2.12.47a6.83,6.83,0,0,1-.75.12,3.83,3.83,0,0,1,.73-.23l2.09-.56c1.82-.5,4.42-1.32,7.59-2.47s6.9-2.64,11.09-4.2,8.87-3.08,13.84-4.46c9.95-2.74,19.12-4.52,25.76-5.75,3.32-.62,6-1.08,7.88-1.39l2.14-.35A6.57,6.57,0,0,1,520.68,396.5Z" style="fill:#263238"></path><path d="M465.52,404.51a4.87,4.87,0,0,1,1.23,0c.79,0,1.93.09,3.33.18l.74.05-.67.32c-2.2,1-5.17,2.4-8.44,3.88-3.49,1.57-6.66,3-9,4-1.15.49-2.09.88-2.74,1.14a4.89,4.89,0,0,1-1,.36,3.57,3.57,0,0,1,.95-.54c.62-.32,1.54-.76,2.67-1.3,2.26-1.07,5.41-2.52,8.89-4.1,3.27-1.47,6.27-2.79,8.5-3.75l.06.36c-1.4-.13-2.54-.25-3.32-.35A5.26,5.26,0,0,1,465.52,404.51Z" style="fill:#263238"></path><path d="M519.6,393s-.1.14-.33.35a7.3,7.3,0,0,1-1.11.81,12.48,12.48,0,0,1-4.78,1.57c-2.12.32-4.66.21-7.43.37a33.86,33.86,0,0,0-8.78,2c-3.05,1-6,2.06-8.71,2.69a56.15,56.15,0,0,1-7.35,1.26,49.64,49.64,0,0,1-5,.29c-.59,0-1.05,0-1.37,0a1.34,1.34,0,0,1-.47-.05,16.06,16.06,0,0,1,1.83-.13c1.18-.07,2.89-.18,5-.45a62.68,62.68,0,0,0,7.27-1.37c2.71-.65,5.6-1.67,8.66-2.71a33.63,33.63,0,0,1,8.92-2c2.82-.14,5.33,0,7.41-.26a13,13,0,0,0,4.73-1.37C519.09,393.38,519.57,392.91,519.6,393Z" style="fill:#263238"></path><polygon points="446.39 403.05 447.24 394.23 519.58 401.16 520.68 407.81 446.39 403.05" style="fill:#263238"></polygon><path d="M520,407.33a5.4,5.4,0,0,1-.76-.08l-2.15-.31-7.9-1.23c-6.67-1-15.89-2.43-26.15-3.25-5.13-.41-10-.59-14.49-.6s-8.48.1-11.86,0-6.12-.24-8-.45c-.94-.1-1.67-.2-2.16-.28a4,4,0,0,1-.75-.15,4.33,4.33,0,0,1,.76,0l2.16.19c1.88.15,4.61.27,8,.28s7.39-.12,11.86-.15,9.39.15,14.53.56c10.28.83,19.51,2.3,26.17,3.41,3.33.56,6,1,7.87,1.39l2.14.41A3.88,3.88,0,0,1,520,407.33Z" style="fill:#455a64"></path><path d="M465.47,396a5.26,5.26,0,0,1,1.16.41c.73.3,1.78.75,3.07,1.32l.68.3-.75.07c-2.42.22-5.67.49-9.25.75-3.82.29-7.27.52-9.77.65-1.26.07-2.27.12-3,.14a4.2,4.2,0,0,1-1.09,0,4.52,4.52,0,0,1,1.07-.18c.7-.08,1.71-.19,3-.3,2.49-.24,5.94-.52,9.76-.81,3.58-.26,6.84-.48,9.26-.62l-.06.37c-1.27-.61-2.3-1.11-3-1.47A6,6,0,0,1,465.47,396Z" style="fill:#455a64"></path><path d="M520.24,403.62s-.14.09-.42.22a8.71,8.71,0,0,1-1.32.38,12.51,12.51,0,0,1-5-.17c-2.1-.43-4.45-1.4-7.11-2.2a34.43,34.43,0,0,0-8.93-1.15c-3.22-.07-6.32-.11-9.1-.46a56.34,56.34,0,0,1-7.34-1.32c-2.06-.52-3.69-1.05-4.81-1.45-.55-.2-1-.37-1.27-.49s-.44-.19-.43-.21a15.81,15.81,0,0,1,1.77.51c1.13.33,2.77.81,4.83,1.28a63.69,63.69,0,0,0,7.3,1.21c2.77.31,5.83.34,9.06.41a34,34,0,0,1,9.06,1.21c2.69.84,5,1.84,7,2.3a13.11,13.11,0,0,0,4.91.33C519.62,403.85,520.23,403.57,520.24,403.62Z" style="fill:#455a64"></path><polygon points="472.69 368.45 467.4 361.4 467.4 340.5 472.69 347.05 472.69 354.48 476.97 344.28 474.7 335.97 474.7 319.35 478.48 332.45 481 329.68 483.25 343.9 483.25 364.93 472.69 368.45" style="fill:#FF725E"></polygon><polygon points="472.69 368.45 467.4 361.4 467.4 340.5 472.69 347.05 472.69 354.48 476.97 344.28 474.7 335.97 474.7 319.35 478.48 332.45 481 329.68 483.25 343.9 483.25 364.93 472.69 368.45" style="opacity:0.2"></polygon><polygon points="465.1 367.95 470.67 392.37 484.02 399.67 490.56 399.67 501.39 387.59 501.39 367.95 492.83 358.88 491.07 343.78 488.05 352.09 484.77 337.23 477.72 356.11 473.19 362.91 465.1 367.95" style="fill:#FF725E"></polygon><polygon points="494.02 309.9 488.8 316.36 490.85 322.24 495.12 316.95 494.02 309.9" style="fill:#FF725E"></polygon><g style="opacity:0.2"><path d="M486,397.35c-1.61-2.19-3.26-4.51-3.6-7.2a15.7,15.7,0,0,1,.82-6q1.29-4.65,2.77-9.25l4.41,8.33c1.16,2.19,2.36,4.57,2,7A11.73,11.73,0,0,1,490,395c-1,1.42-2.24,3-4,3" style="fill:#fff"></path></g><g style="opacity:0.2"><path d="M484.67,399.15l-7.26-7.45a5.82,5.82,0,0,1-1.55-7.67c2.87-8.39,5.82-16.95,11.19-24,.57,4,3.09,7.39,5.4,10.7s4.56,7,4.49,11c0,2.69-1.12,5.23-1.73,7.85a53.71,53.71,0,0,1-1.19,5.35,7,7,0,0,1-3.29,4.2c-2.27,1.11-5,.3-7.36-.53" style="fill:#fff"></path></g></g><g id="Tree"><polygon points="515.54 126.72 490.42 177.38 497.92 177.67 476.64 217.93 487.82 217.93 470.38 253.7 567.85 253.7 546.39 217.93 556.67 217.48 536.11 177.24 543.71 176.79 515.54 126.72" style="fill:#455a64"></polygon><path d="M519.79,185.49c.14,0-.06,30.59-.44,68.32s-.82,68.31-1,68.31.06-30.58.44-68.32S519.64,185.49,519.79,185.49Z" style="fill:#263238"></path><path d="M531.73,198.52a87.07,87.07,0,0,1-5.59,7.67,89,89,0,0,1-6,7.37,84.61,84.61,0,0,1,5.59-7.68A85.8,85.8,0,0,1,531.73,198.52Z" style="fill:#263238"></path><path d="M519.55,212.48a45.62,45.62,0,0,1-5.53-4,43.63,43.63,0,0,1-5.2-4.39,45.11,45.11,0,0,1,5.52,4A43.29,43.29,0,0,1,519.55,212.48Z" style="fill:#263238"></path><path d="M518.88,237.33a11.11,11.11,0,0,1-1.85-1.44c-1.1-.93-2.62-2.22-4.33-3.61s-3.28-2.62-4.41-3.52a11.11,11.11,0,0,1-1.79-1.52,9.51,9.51,0,0,1,2,1.23c1.19.82,2.8,2,4.52,3.4s3.2,2.74,4.25,3.74A9.57,9.57,0,0,1,518.88,237.33Z" style="fill:#263238"></path><path d="M531.75,222a98.18,98.18,0,0,1-6.13,8c-3.5,4.35-6.42,7.81-6.53,7.72a97.6,97.6,0,0,1,6.12-8A98.49,98.49,0,0,1,531.75,222Z" style="fill:#263238"></path></g></svg>