<svg xmlns="http://www.w3.org/2000/svg" viewBox="0 0 500 500"><g id="background-complete"><path d="M401.81,392.49S381.15,427,420.14,446.16C429.57,427,421.16,404,401.81,392.49Z" style="fill:#f5f5f5"></path><path d="M449.71,395s-38.84,10.5-24.08,51.35C445.76,439.07,455.64,416.72,449.71,395Z" style="fill:#f5f5f5"></path><path d="M381.88,404.23s-5.74,42.76,40.77,45.12C423.81,426.43,405.82,407.39,381.88,404.23Z" style="fill:#ebebeb"></path><path d="M467,408.57s-42.76-5.74-45.11,40.77C444.77,450.5,463.82,432.51,467,408.57Z" style="fill:#ebebeb"></path><path d="M425.15,382.77s-36.67,29.72-1.44,66.51C441.84,431.92,441.83,403.26,425.15,382.77Z" style="fill:#e0e0e0"></path><circle cx="398.84" cy="56.12" r="9.2" transform="translate(252.94 431.53) rotate(-76.77)" style="fill:#f5f5f5"></circle><path d="M73.69,95.2,79,97l-5.43,2.26a4.57,4.57,0,0,0-2.6,2.9l-2.27,7.6-1.88-7.36a4.55,4.55,0,0,0-3.07-3.22l-6.06-1.86,5.74-1.92a4.56,4.56,0,0,0,3-3.19l2.06-8.07,2.3,8A4.56,4.56,0,0,0,73.69,95.2Z" style="fill:#e0e0e0"></path><path d="M351.91,206.56l5.31,1.79-5.43,2.26a4.55,4.55,0,0,0-2.6,2.9l-2.27,7.6L345,213.75a4.55,4.55,0,0,0-3.08-3.22l-6-1.86,5.74-1.92a4.53,4.53,0,0,0,3-3.19l2.07-8.07,2.3,8A4.56,4.56,0,0,0,351.91,206.56Z" style="fill:#e0e0e0"></path><path d="M70.86,266l1.91.64-2,.82a1.62,1.62,0,0,0-.93,1l-.81,2.73-.68-2.64a1.65,1.65,0,0,0-1.1-1.16l-2.17-.66,2.06-.69a1.66,1.66,0,0,0,1.06-1.14L69,262l.83,2.88A1.64,1.64,0,0,0,70.86,266Z" style="fill:#e0e0e0"></path><path d="M400.75,358.76l1.91.64-2,.82a1.63,1.63,0,0,0-.93,1L399,364l-.68-2.64a1.62,1.62,0,0,0-1.1-1.15l-2.17-.67,2.06-.69a1.62,1.62,0,0,0,1.06-1.14l.74-2.89.82,2.87A1.61,1.61,0,0,0,400.75,358.76Z" style="fill:#e0e0e0"></path><path d="M457.15,218.43l1.91.63-1.95.82a1.63,1.63,0,0,0-.93,1l-.82,2.72-.67-2.64a1.62,1.62,0,0,0-1.1-1.15l-2.17-.67,2.06-.69a1.62,1.62,0,0,0,1.06-1.14l.74-2.89.82,2.87A1.65,1.65,0,0,0,457.15,218.43Z" style="fill:#e0e0e0"></path><path d="M82.69,75.21l1.67.56-1.7.71a1.43,1.43,0,0,0-.82.91l-.71,2.38-.59-2.31a1.44,1.44,0,0,0-1-1l-1.89-.58,1.79-.6a1.42,1.42,0,0,0,.93-1l.65-2.52.72,2.51A1.42,1.42,0,0,0,82.69,75.21Z" style="fill:#e0e0e0"></path><path d="M437.82,78.41l1.66.56-1.7.71a1.41,1.41,0,0,0-.81.91L436.26,83l-.59-2.31a1.44,1.44,0,0,0-1-1l-1.9-.58,1.8-.6a1.42,1.42,0,0,0,.93-1l.64-2.53.72,2.51A1.45,1.45,0,0,0,437.82,78.41Z" style="fill:#e0e0e0"></path><path d="M429.71,96.27,433,97.39l-3.39,1.42a2.82,2.82,0,0,0-1.63,1.81l-1.42,4.76-1.18-4.61a2.87,2.87,0,0,0-1.92-2l-3.79-1.16,3.59-1.2a2.86,2.86,0,0,0,1.86-2l1.29-5.05,1.44,5A2.82,2.82,0,0,0,429.71,96.27Z" style="fill:#e0e0e0"></path><path d="M48,398.38s-17.38,32.56,19.19,48.35C75,428.7,66.28,408.06,48,398.38Z" style="fill:#f5f5f5"></path><path d="M92,398.53S56.92,409.9,72.28,446.65C90.39,439.08,98.44,418.17,92,398.53Z" style="fill:#f5f5f5"></path><path d="M30.3,410S27,449.47,69.67,449.54C69.71,428.49,52.37,411.85,30.3,410Z" style="fill:#ebebeb"></path><path d="M108.45,410.19S69,406.86,69,449.56C90,449.6,106.64,432.26,108.45,410.19Z" style="fill:#ebebeb"></path><path d="M69,388.44s-32.26,28.86,1.67,61C86.48,432.71,85.18,406.45,69,388.44Z" style="fill:#e0e0e0"></path><circle cx="49.82" cy="156.98" r="9.2" transform="translate(-113.08 181.23) rotate(-80.86)" style="fill:#f5f5f5"></circle><circle cx="137.87" cy="43.08" r="9.2" transform="translate(-6.02 55.71) rotate(-22.37)" style="fill:#f5f5f5"></circle><circle cx="438.79" cy="177.84" r="9.2" transform="translate(164.53 563.78) rotate(-76.66)" style="fill:#f5f5f5"></circle><circle cx="437.1" cy="289.51" r="9.2" transform="translate(-76.69 393.88) rotate(-45)" style="fill:#f5f5f5"></circle><circle cx="51.65" cy="302.55" r="9.82" style="fill:#f5f5f5"></circle><path d="M339.59,226a3.62,3.62,0,1,1-3.62-3.62A3.61,3.61,0,0,1,339.59,226Z" style="fill:#f5f5f5"></path></g><g id="background-simple"><path d="M474.65,100.26a70.61,70.61,0,0,0-14.3-39.19c-15-19.44-33.62-24.6-57.81-23.2a28.27,28.27,0,0,0-7.34,1.39A36.74,36.74,0,0,0,376,54.06c-6.74,10-5.87,24.43,2,33.51,8.11,9.34,22.45,13.34,26.85,24.9,3,7.82.32,16.95,3.42,24.72,3.42,8.59,13.13,13.21,22.36,13.84,17.12,1.16,34.39-9.74,40.7-25.69C474.53,117.43,475.13,108.67,474.65,100.26Z" style="fill:#f5f5f5"></path><path d="M34.81,269.42a37.83,37.83,0,0,0,6.75,21.35c7.57,10.77,17.45,14,30.45,13.78a15.1,15.1,0,0,0,4-.57,19.65,19.65,0,0,0,10.62-7.49,15.22,15.22,0,0,0-.3-18c-4.13-5.19-11.72-7.67-13.81-14-1.41-4.26.22-9.1-1.26-13.33-1.63-4.69-6.73-7.39-11.66-7.94a22.49,22.49,0,0,0-22.42,12.82A31.78,31.78,0,0,0,34.81,269.42Z" style="fill:#f5f5f5"></path><circle cx="441.39" cy="287.1" r="31.82" transform="translate(56.82 646.76) rotate(-76.12)" style="fill:#f5f5f5"></circle><circle cx="128.04" cy="48.15" r="15.65" style="fill:#f5f5f5"></circle><circle cx="458.26" cy="227.35" r="10.76" transform="translate(132.13 621.47) rotate(-76.78)" style="fill:#f5f5f5"></circle><circle cx="68.9" cy="94.38" r="35.38" style="fill:#f5f5f5"></circle></g><g id="Floor"><path d="M478.24,449.54c0,.15-101.75.26-227.23.26s-227.25-.11-227.25-.26,101.72-.26,227.25-.26S478.24,449.4,478.24,449.54Z" style="fill:#263238"></path></g><g id="Plants"><path d="M395.05,325.85a1.12,1.12,0,0,1-.11.24l-.36.7c-.17.31-.36.69-.62,1.13s-.59.93-.94,1.48a39.73,39.73,0,0,1-7.55,8.23,63.1,63.1,0,0,1-14.11,8.66,198.07,198.07,0,0,1-19,7.11A127.06,127.06,0,0,0,333.64,361a54.23,54.23,0,0,0-13.27,9.68,36.46,36.46,0,0,0-6.52,8.94l-.76,1.58c-.21.46-.35.86-.48,1.18l-.31.73c-.07.16-.11.25-.12.24s0-.09.07-.26l.26-.74c.12-.33.25-.74.44-1.21l.72-1.61a35.35,35.35,0,0,1,6.44-9.11,53.8,53.8,0,0,1,13.31-9.84,124.33,124.33,0,0,1,18.77-7.69c6.81-2.32,13.31-4.47,19-7.06a64.36,64.36,0,0,0,14.08-8.51,41.5,41.5,0,0,0,7.61-8.06l1-1.45c.27-.43.47-.8.66-1.1l.41-.67C395,325.92,395,325.84,395.05,325.85Z" style="fill:#263238"></path><path d="M356,363.47c0-.3-.45-.52-.82-.66a18.85,18.85,0,0,0-9.27-1.23,13.25,13.25,0,0,0-7.56,3.43l.57.16a15.58,15.58,0,0,0,8.47,1.12,37.45,37.45,0,0,0,7.83-2.12C355.58,364,356,363.82,356,363.47Z" style="fill:#FF725E"></path><path d="M359.66,337.21c-.25-.18-.69,0-1.05.15a18.71,18.71,0,0,0-7.19,6,13.15,13.15,0,0,0-2.62,7.88l.5-.31a15.59,15.59,0,0,0,6.59-5.46,37.66,37.66,0,0,0,3.75-7.19C359.81,337.87,360,337.4,359.66,337.21Z" style="fill:#FF725E"></path><path d="M349,363.7a4.2,4.2,0,0,1-1.07.41,20,20,0,0,1-3.09.64c-2.63.39-6.31.28-10.32.39a22.79,22.79,0,0,0-9.87,2.25,17.35,17.35,0,0,0-3.38,2.53A3.73,3.73,0,0,1,322,369a10.75,10.75,0,0,1,2.49-1.93,21.67,21.67,0,0,1,10-2.46c4.05-.11,7.69.06,10.3-.24S349,363.61,349,363.7Z" style="fill:#263238"></path><path d="M384.1,355c0-.31-.35-.6-.68-.81a18.76,18.76,0,0,0-8.87-3,13.25,13.25,0,0,0-8.08,1.92l.53.27a15.54,15.54,0,0,0,8.11,2.72,37.23,37.23,0,0,0,8.09-.59C383.61,355.45,384.08,355.33,384.1,355Z" style="fill:#FF725E"></path><path d="M377.24,353.88a4.09,4.09,0,0,1-1.14.19,20.9,20.9,0,0,1-3.17,0c-2.68-.12-6.29-.95-10.27-1.6a25.41,25.41,0,0,0-10.18.8c-2.56.69-4.09,1.29-4.12,1.21a4.63,4.63,0,0,1,1-.5,31.61,31.61,0,0,1,3-1.06,23.94,23.94,0,0,1,10.36-1c4,.66,7.58,1.53,10.22,1.74S377.23,353.78,377.24,353.88Z" style="fill:#263238"></path><path d="M413.07,329.21c-.1-.29-.54-.43-.93-.51a18.67,18.67,0,0,0-9.34.46,13.18,13.18,0,0,0-6.82,4.72l.59.06a15.6,15.6,0,0,0,8.54-.41,37.7,37.7,0,0,0,7.32-3.5C412.79,329.83,413.18,329.54,413.07,329.21Z" style="fill:#FF725E"></path><path d="M406.29,330.68a2.88,2.88,0,0,1-.7.46,16.07,16.07,0,0,1-2.06.93,40.17,40.17,0,0,1-7.22,1.83c-1.42.27-2.78.51-4,.77a21,21,0,0,0-3.17.93c-1.76.67-2.79,1.24-2.83,1.16a2.75,2.75,0,0,1,.68-.48,18.38,18.38,0,0,1,2-1,18.58,18.58,0,0,1,3.19-1.06c1.23-.28,2.59-.54,4-.81a53.53,53.53,0,0,0,7.19-1.66C405.21,331.15,406.24,330.6,406.29,330.68Z" style="fill:#263238"></path><path d="M356.83,340.66a3.89,3.89,0,0,1-.49,1c-.35.63-.91,1.51-1.65,2.57s-1.66,2.28-2.77,3.58a27.3,27.3,0,0,1-4,3.89,28.74,28.74,0,0,1-2.43,1.54l-2.28,1.37c-1.45.88-2.72,1.71-3.77,2.44-2.1,1.46-3.29,2.51-3.35,2.45a4.25,4.25,0,0,1,.78-.81c.53-.49,1.32-1.16,2.35-1.94s2.3-1.64,3.74-2.55l2.27-1.39c.78-.49,1.62-1,2.38-1.53a27.37,27.37,0,0,0,3.93-3.79c1.12-1.26,2.06-2.46,2.84-3.48s1.37-1.86,1.77-2.45A5.89,5.89,0,0,1,356.83,340.66Z" style="fill:#263238"></path><path d="M385.68,325.09c-.28-.13-.68.1-1,.32a18.82,18.82,0,0,0-6.12,7.07,13.29,13.29,0,0,0-1.3,8.2l.45-.39a15.43,15.43,0,0,0,5.6-6.46,37.38,37.38,0,0,0,2.53-7.71C385.93,325.72,386,325.24,385.68,325.09Z" style="fill:#FF725E"></path><path d="M383.25,328.85a10.84,10.84,0,0,1-.84,2.82,43.15,43.15,0,0,1-3.05,6.4,24.35,24.35,0,0,1-2.23,3.23,24.68,24.68,0,0,1-2.28,2.24,17.75,17.75,0,0,1-2.24,1.9,15.8,15.8,0,0,1,2-2.16,28.87,28.87,0,0,0,2.17-2.28,26.41,26.41,0,0,0,2.15-3.19,61.38,61.38,0,0,0,3.16-6.28C382.81,329.88,383.18,328.83,383.25,328.85Z" style="fill:#263238"></path><path d="M81.14,325.45a.75.75,0,0,0,.1.25l.37.7c.17.3.36.69.62,1.12l.94,1.48a39.48,39.48,0,0,0,7.55,8.23,63.48,63.48,0,0,0,14.11,8.67c5.68,2.62,12.2,4.79,19,7.11a128.17,128.17,0,0,1,18.72,7.62,54.49,54.49,0,0,1,13.27,9.68,36.48,36.48,0,0,1,6.52,8.95l.75,1.57c.21.46.36.87.49,1.19s.22.53.3.72l.12.25a.72.72,0,0,0-.07-.26l-.25-.75c-.12-.33-.25-.74-.44-1.21l-.72-1.6a35.26,35.26,0,0,0-6.44-9.11,53.75,53.75,0,0,0-13.31-9.85A124.76,124.76,0,0,0,124,352.52c-6.81-2.32-13.32-4.47-19-7.06A64,64,0,0,1,91,337a40.93,40.93,0,0,1-7.61-8.06l-1-1.45c-.27-.42-.48-.8-.66-1.1l-.41-.67A1.11,1.11,0,0,0,81.14,325.45Z" style="fill:#263238"></path><path d="M120.22,363.08c0-.31.45-.52.82-.67a18.85,18.85,0,0,1,9.27-1.23,13.25,13.25,0,0,1,7.56,3.43l-.57.16a15.51,15.51,0,0,1-8.48,1.13,38.16,38.16,0,0,1-7.82-2.13C120.61,363.63,120.16,363.42,120.22,363.08Z" style="fill:#FF725E"></path><path d="M116.53,336.81c.25-.17.69,0,1,.15a18.81,18.81,0,0,1,7.2,6,13.17,13.17,0,0,1,2.62,7.88l-.5-.31A15.59,15.59,0,0,1,120.3,345a37.37,37.37,0,0,1-3.75-7.19C116.38,337.47,116.24,337,116.53,336.81Z" style="fill:#FF725E"></path><path d="M127.15,363.3a4,4,0,0,0,1.08.41,20.1,20.1,0,0,0,3.08.64c2.64.39,6.32.28,10.32.39a22.94,22.94,0,0,1,9.88,2.26,17.61,17.61,0,0,1,3.38,2.52,4.39,4.39,0,0,0-.71-.91,11.27,11.27,0,0,0-2.49-1.93,21.69,21.69,0,0,0-10-2.45c-4-.12-7.68,0-10.3-.24S127.18,363.21,127.15,363.3Z" style="fill:#263238"></path><path d="M92.09,354.58c0-.31.35-.59.68-.81a18.74,18.74,0,0,1,8.87-3,13.19,13.19,0,0,1,8.07,1.91l-.53.27a15.42,15.42,0,0,1-8.1,2.72,37.23,37.23,0,0,1-8.09-.59C92.58,355.05,92.11,354.93,92.09,354.58Z" style="fill:#FF725E"></path><path d="M98.94,353.48a4.56,4.56,0,0,0,1.15.2,19.85,19.85,0,0,0,3.17,0c2.68-.12,6.29-.95,10.27-1.6a25.41,25.41,0,0,1,10.18.8c2.56.69,4.09,1.3,4.12,1.21a5,5,0,0,0-1-.5,31.61,31.61,0,0,0-3-1.06,24.12,24.12,0,0,0-10.36-1c-4,.66-7.58,1.54-10.22,1.74S99,353.39,98.94,353.48Z" style="fill:#263238"></path><path d="M63.12,328.81c.1-.29.54-.43.93-.51a18.78,18.78,0,0,1,9.34.46,13.23,13.23,0,0,1,6.82,4.73l-.59.05a15.51,15.51,0,0,1-8.54-.41,37.7,37.7,0,0,1-7.32-3.5C63.4,329.43,63,329.14,63.12,328.81Z" style="fill:#FF725E"></path><path d="M69.9,330.28a2.88,2.88,0,0,0,.7.46,15.87,15.87,0,0,0,2.06.94,41.7,41.7,0,0,0,7.22,1.83c1.42.26,2.78.5,4,.76a22.65,22.65,0,0,1,3.17.93c1.76.67,2.79,1.24,2.83,1.17s-.22-.21-.68-.48a16.55,16.55,0,0,0-2-1,18.19,18.19,0,0,0-3.2-1.05c-1.22-.29-2.58-.55-4-.81a54.93,54.93,0,0,1-7.19-1.67C71,330.76,69.94,330.2,69.9,330.28Z" style="fill:#263238"></path><path d="M119.35,340.26a4.7,4.7,0,0,0,.5,1c.35.62.91,1.51,1.65,2.56s1.66,2.28,2.77,3.58a27.21,27.21,0,0,0,4,3.89c.81.6,1.65,1.06,2.44,1.54l2.28,1.37c1.44.88,2.72,1.71,3.77,2.44,2.1,1.46,3.29,2.51,3.35,2.45a4.64,4.64,0,0,0-.78-.81c-.53-.48-1.33-1.16-2.36-1.93s-2.29-1.64-3.73-2.55l-2.27-1.4c-.78-.49-1.63-1-2.39-1.53a28.33,28.33,0,0,1-3.92-3.78c-1.12-1.27-2.07-2.46-2.84-3.48s-1.37-1.87-1.77-2.46A4.84,4.84,0,0,0,119.35,340.26Z" style="fill:#263238"></path><path d="M90.5,324.69c.28-.13.69.1,1,.32a18.83,18.83,0,0,1,6.13,7.07,13.21,13.21,0,0,1,1.29,8.2l-.44-.39a15.52,15.52,0,0,1-5.61-6.46,38.11,38.11,0,0,1-2.53-7.7C90.25,325.33,90.19,324.84,90.5,324.69Z" style="fill:#FF725E"></path><path d="M92.93,328.46a11.88,11.88,0,0,0,.85,2.81,43.15,43.15,0,0,0,3,6.4,18.65,18.65,0,0,0,4.51,5.48,17.25,17.25,0,0,0,2.24,1.89,16.31,16.31,0,0,0-2-2.15,29.15,29.15,0,0,1-2.17-2.29,26.41,26.41,0,0,1-2.15-3.19,63.89,63.89,0,0,1-3.17-6.28A27.83,27.83,0,0,0,92.93,328.46Z" style="fill:#263238"></path></g><g id="Character"><path d="M179.87,129.5c1.92-3,6.78-3.14,9.42-.71s3.18,6.56,2.11,10-3.47,6.28-6.05,8.77-5.41,4.77-7.66,7.57a24.56,24.56,0,0,0,10.06,38.18c3.33,1.33,7.26,2.15,9.19,5.18,1.15,1.82,1.31,4.08,2,6.13,2.11,6.37,9.11,10,15.79,10.54S228,214,234.65,213c10.38-1.55,21.22-1.15,31,2.55s18.55,10.91,22.8,20.51c2.72,6.13,3.28,14-1.15,19-2.86,3.24-7.38,4.71-11.7,4.59a28.62,28.62,0,0,1-12.32-3.72c-8.47-4.49-15.53-11.18-23.19-16.93S223.65,228.19,214.06,228c-6.53-.13-13.71,1.86-19.2-1.7-4.57-3-6.25-8.77-9.7-13-6.95-8.47-19.95-9.35-27.87-16.92-6.43-6.16-8.39-15.89-7.19-24.72s5.11-17,9-25c1.39-2.88,2.85-5.85,5.32-7.87,2.8-2.27,6.5-3,9.81-4.43s4.39-1.83,5.67-4.84" style="fill:#FF725E"></path><g style="opacity:0.7000000000000001"><path d="M179.87,129.5c1.92-3,6.78-3.14,9.42-.71s3.18,6.56,2.11,10-3.47,6.28-6.05,8.77-5.41,4.77-7.66,7.57a24.56,24.56,0,0,0,10.06,38.18c3.33,1.33,7.26,2.15,9.19,5.18,1.15,1.82,1.31,4.08,2,6.13,2.11,6.37,9.11,10,15.79,10.54S228,214,234.65,213c10.38-1.55,21.22-1.15,31,2.55s18.55,10.91,22.8,20.51c2.72,6.13,3.28,14-1.15,19-2.86,3.24-7.38,4.71-11.7,4.59a28.62,28.62,0,0,1-12.32-3.72c-8.47-4.49-15.53-11.18-23.19-16.93S223.65,228.19,214.06,228c-6.53-.13-13.71,1.86-19.2-1.7-4.57-3-6.25-8.77-9.7-13-6.95-8.47-19.95-9.35-27.87-16.92-6.43-6.16-8.39-15.89-7.19-24.72s5.11-17,9-25c1.39-2.88,2.85-5.85,5.32-7.87,2.8-2.27,6.5-3,9.81-4.43s4.39-1.83,5.67-4.84" style="fill:#fff"></path></g><path d="M200.49,108.84c3-.07,5.42,3.7,4.07,6.42a4.44,4.44,0,1,1-4.58-6.38" style="fill:#FF725E"></path><g style="opacity:0.8"><path d="M200.49,108.84c3-.07,5.42,3.7,4.07,6.42a4.44,4.44,0,1,1-4.58-6.38" style="fill:#fff"></path></g><path d="M182.15,227.35c-3.83-3.06-9.12-3.37-14-3.37s-10.1.1-14.32-2.4a8.37,8.37,0,0,1-3.65-4,5,5,0,0,1,.76-5.13,5.39,5.39,0,0,1,4.41-1.47,15.66,15.66,0,0,1,4.62,1.32,67.09,67.09,0,0,1,11.51,5.56c3.59,2.32,8.84,5.6,10.7,9.44" style="fill:#FF725E"></path><g style="opacity:0.7000000000000001"><path d="M182.15,227.35c-3.83-3.06-9.12-3.37-14-3.37s-10.1.1-14.32-2.4a8.37,8.37,0,0,1-3.65-4,5,5,0,0,1,.76-5.13,5.39,5.39,0,0,1,4.41-1.47,15.66,15.66,0,0,1,4.62,1.32,67.09,67.09,0,0,1,11.51,5.56c3.59,2.32,8.84,5.6,10.7,9.44" style="fill:#fff"></path></g><path d="M302.79,186.62c10.1-7.49,12.69-23.34,5.49-33.66-3.9-5.58-10-9.4-13.61-15.19-3.9-6.32-4.28-14.12-6.56-21.19s-8-14.26-15.42-13.66A26.12,26.12,0,0,1,299,119.14c1.44,3.76,2,7.86,3.75,11.48,3.43,7,10.78,10.94,16.18,16.51,5,5.15,8.43,12.05,8.47,19.23s-3.65,14.49-10,17.9c-3.06,1.66-6.55,2.36-9.69,3.84s-6.13,4.14-6.45,7.6a7.54,7.54,0,0,1,3-9.92" style="fill:#FF725E"></path><g style="opacity:0.7000000000000001"><path d="M302.79,186.62c10.1-7.49,12.69-23.34,5.49-33.66-3.9-5.58-10-9.4-13.61-15.19-3.9-6.32-4.28-14.12-6.56-21.19s-8-14.26-15.42-13.66A26.12,26.12,0,0,1,299,119.14c1.44,3.76,2,7.86,3.75,11.48,3.43,7,10.78,10.94,16.18,16.51,5,5.15,8.43,12.05,8.47,19.23s-3.65,14.49-10,17.9c-3.06,1.66-6.55,2.36-9.69,3.84s-6.13,4.14-6.45,7.6a7.54,7.54,0,0,1,3-9.92" style="fill:#fff"></path></g><path d="M257.09,207.53c1.93,2.54,6,2,8.73.35s5.17-4,8.31-4.59c1.64-.3,3.37,0,5-.53,2.8-.83,4.49-3.56,6.07-6s6.61-10.1,9.52-10.24c-4.21-2.38-4.63-1.22-5.87-5.12,7.57,7.62,12.58-2.8,14.5-6.51-2.71.9-5.7-.23-8.35-7.59a28.52,28.52,0,0,0-6.74-11c-2.54-2.65-6.76-3.71-8.31-7-1.31-2.79-.21-6,0-9.1a16.72,16.72,0,0,0-12.22-17" style="fill:#263238"></path><path d="M205.42,130.94c-.11-3.91,3.51-6.93,7.15-8.36s7.69-2,10.93-4.16c2.88-1.93,4.81-5,7.24-7.41a24.08,24.08,0,0,1,40.5,11c1.4,5.57.44,12.16-3.95,15.86-5.09,4.3-12.64,3.34-19.17,2s-13.92-2.66-19.37,1.17c-3.29,2.32-5.17,6.08-7.18,9.56s-4.53,7-8.34,8.34-9-1-9.1-5" style="fill:#263238"></path><path d="M205.42,130.94c-.47,4.25-1.67,8.36-4,10.68s-5,4.77-5.45,8c-.49,3.83,2.31,7.6,1.5,11.37-.52,2.4-2.38,4.25-3.51,6.42a13.64,13.64,0,0,0-.7,10c1,3.3,2.53,10.67,4.82,13.24a53,53,0,0,0,25.73,15.35c9.27,2.13,18.91,2.14,28.41,1.56,7.78-.48,16.72-.12,23.2-10.82,3.36-5.55,5-12.91,6.8-19.14,1.54-5.36,2.87-11.11,1.27-16.45-.93-3.12-2.8-5.88-3.72-9-1.15-3.9-.73-8.06-1.19-12.1a27.75,27.75,0,0,0-39.48-21.91" style="fill:#263238"></path><path d="M274.83,146.53c-.73-11.16-8.15-24.84-19.27-23.64l-34.71,8.86A6.53,6.53,0,0,0,215,138.4l3.81,81.88a11,11,0,0,0,1,4c2.58,5.69,11.14,20.13,29.74,14.28,4.55-1.43,6.63-6.41,7.53-11.53,0-.61.25-1.14.26-1.72a54.71,54.71,0,0,0,.14-11.5c.06-6.76.05-9.54.06-9.47s14.25-2.4,17.17-21C276.14,174.1,275.64,158.93,274.83,146.53Z" style="fill:#e5a589"></path><path d="M262.21,158.34c.25-.35,2.22.75,4.76.42s4.26-1.84,4.57-1.56c.15.12-.07.72-.81,1.41a6.61,6.61,0,0,1-3.61,1.64,6.3,6.3,0,0,1-3.84-.73C262.42,159,262.08,158.49,262.21,158.34Z" style="fill:#263238"></path><path d="M236.43,156.93c.36-.23,1.82,1.48,4.32,2s4.63-.25,4.83.12c.1.16-.32.64-1.26,1a6.5,6.5,0,0,1-3.95.28,6.33,6.33,0,0,1-3.35-2C236.39,157.64,236.26,157,236.43,156.93Z" style="fill:#263238"></path><path d="M255.68,174c0-.15,1.58-.43,4.17-.77.65-.07,1.27-.2,1.38-.64a3.3,3.3,0,0,0-.44-2l-2-5c-2.71-7.1-4.67-12.94-4.38-13s2.71,5.56,5.42,12.66c.65,1.75,1.28,3.42,1.87,5a3.74,3.74,0,0,1,.34,2.57,1.61,1.61,0,0,1-1.07,1,4.43,4.43,0,0,1-1.12.16C257.3,174.12,255.69,174.13,255.68,174Z" style="fill:#263238"></path><path d="M257.52,204.37a47.33,47.33,0,0,1-24.93-6.6s6.29,12.87,24.91,11.09Z" style="fill:#aa6550"></path><path d="M255.13,179.93a5.9,5.9,0,0,0-4.63-2.68,3.33,3.33,0,0,0-2.9,1.6,3.79,3.79,0,0,0,.18,3.81,3.53,3.53,0,0,0,3.69,1.49,7.44,7.44,0,0,0,3.24-2,2.39,2.39,0,0,0,.68-.86,1.26,1.26,0,0,0-.13-1.2" style="fill:#aa6550"></path><path d="M248.13,175.78c.41,0,.42,2.76,2.81,4.73s5.36,1.66,5.38,2.05c0,.18-.66.55-1.91.58a6.89,6.89,0,0,1-4.49-1.55,6.06,6.06,0,0,1-2.19-4C247.63,176.45,247.93,175.76,248.13,175.78Z" style="fill:#263238"></path><path d="M245.79,147.72c-.25.7-2.82.37-5.83.74s-5.44,1.2-5.85.57c-.17-.3.25-1,1.23-1.63a9.64,9.64,0,0,1,4.33-1.53,9.83,9.83,0,0,1,4.56.52C245.34,146.84,245.9,147.39,245.79,147.72Z" style="fill:#263238"></path><path d="M270.59,147c-.45.58-2.22,0-4.34,0s-3.93.4-4.35-.21c-.18-.3.1-.88.89-1.43a6,6,0,0,1,3.53-1,6,6,0,0,1,3.47,1.17C270.55,146.12,270.79,146.72,270.59,147Z" style="fill:#263238"></path><path d="M207.86,193a16.52,16.52,0,0,0,19.65-18.27c-.58-4.57-3-9.22-1.46-13.54,2.1-5.72,10.11-7.48,12.24-13.19,1.24-3.31.13-7.19,1.53-10.44,1.31-3.06,4.53-4.82,7.66-6s6.49-1.91,9.11-4,4.27-5.89,2.57-8.76a176.18,176.18,0,0,0-40.65,9.88c-3,1.13-6.23,2.5-8,5.2s-1.81,6.54-1.65,10L211.18,194" style="fill:#263238"></path><path d="M180,180.48c-1.52-3.62.48-9,3.5-11.49,3.35-2.78,8.65-3.24,10.8-7,2.42-4.27-.69-10.39,2.35-14.24a7.34,7.34,0,0,1,5.93-2.45,21.93,21.93,0,0,1,6.45,1.45l15.4,5.16c.92.31,2,.74,2.23,1.67.4,1.4-1.19,2.45-2.12,3.56-1.56,1.85-1.42,4.63-.57,6.89s2.32,4.25,3.24,6.49a15.11,15.11,0,0,1-.74,12.93c-2,3.55-5.28,6.14-7.56,9.49s-3.32,8.26-.56,11.23a13.16,13.16,0,0,1-13.86-5.45c0,1.08-1.7.92-2.63.37A81.89,81.89,0,0,1,180,180.48" style="fill:#263238"></path><path d="M258.35,123.56c-.1,0-.12-.46-.32-1.25a7.85,7.85,0,0,0-1.58-3.1,10,10,0,0,0-4.53-3,19.68,19.68,0,0,0-7.31-1,17.18,17.18,0,0,0-8.37,2.56,14.2,14.2,0,0,0-5.94,7.73,19.13,19.13,0,0,0-.56,5.43,25.32,25.32,0,0,1-.5,6.35,9.89,9.89,0,0,1-1.47,3.25A11,11,0,0,1,225.2,143a20.17,20.17,0,0,1-6.35,2.72c-2.21.57-4.29.93-6.25,1.54a13.09,13.09,0,0,0-5,2.6,8.53,8.53,0,0,0-2.57,4.55,16.78,16.78,0,0,0-.22,5.39c.36,3.59,1.51,7.08,1.92,10.56a19.67,19.67,0,0,1,0,5.14,13.63,13.63,0,0,1-1.49,4.58,16.09,16.09,0,0,1-5.56,5.86,19.31,19.31,0,0,1-5.54,2.33c-3.2.77-5,.63-5,.48s1.76-.41,4.73-1.45a20,20,0,0,0,5-2.57,15,15,0,0,0,4.73-5.49,14,14,0,0,0,1-8.59c-.24-1.6-.65-3.27-1.07-5a44.29,44.29,0,0,1-1.1-5.57,18.86,18.86,0,0,1,.19-6.2,10.92,10.92,0,0,1,3.27-5.88,15.44,15.44,0,0,1,6-3.2c2.13-.67,4.32-1,6.34-1.58a17.56,17.56,0,0,0,5.53-2.33,7.31,7.31,0,0,0,3.07-4.29c.93-3.54-.07-7.78,1.23-11.83a16.21,16.21,0,0,1,7.09-8.86,18.68,18.68,0,0,1,9.46-2.57,20.37,20.37,0,0,1,7.89,1.48,10.67,10.67,0,0,1,4.81,3.77,7.26,7.26,0,0,1,1.29,3.62C258.59,123.12,258.43,123.57,258.35,123.56Z" style="fill:#455a64"></path><path d="M227.94,115.71s.09-.15.3-.41.54-.63,1-1.11a39.43,39.43,0,0,1,3.92-3.72,28,28,0,0,1,6.83-4.22,19.5,19.5,0,0,1,9.7-1.48,14.24,14.24,0,0,1,8.84,4.13,12.53,12.53,0,0,1,3.28,7.29,10.19,10.19,0,0,1-.88,5.33,7.37,7.37,0,0,1-.77,1.27,2.08,2.08,0,0,1-.32.39s.06-.16.24-.45a11.24,11.24,0,0,0,.66-1.29,10.34,10.34,0,0,0,.7-5.21,12.36,12.36,0,0,0-3.25-7,14,14,0,0,0-8.56-4,19.14,19.14,0,0,0-9.45,1.42,28.73,28.73,0,0,0-6.79,4,50.86,50.86,0,0,0-4,3.58A18.66,18.66,0,0,1,227.94,115.71Z" style="fill:#455a64"></path><path d="M273.61,126.08a9.41,9.41,0,0,0-3.53-1.06,9.6,9.6,0,0,0-3.6.8s.26-.38.9-.73a5.54,5.54,0,0,1,5.39.2C273.38,125.68,273.65,126,273.61,126.08Z" style="fill:#455a64"></path><path d="M277.66,134.22c-.08,0-.28-.61-.84-1.48a7.43,7.43,0,0,0-3-2.61,7.28,7.28,0,0,0-3.9-.6c-1,.12-1.64.37-1.67.29a3.22,3.22,0,0,1,1.61-.66,6.68,6.68,0,0,1,7.23,3.4A3.2,3.2,0,0,1,277.66,134.22Z" style="fill:#455a64"></path><path d="M186.12,230.32s-11.76,3.69-21.3,35.24c-4.24,14-14.08,35.17-14.08,35.17l-22.45-34.61s-16.7,5.43-16.1,5.86c0,0,16.56,43.39,22.95,56.2,6.62,13.27,11,19.45,23,19.29,4.33-.06,7.93-2.46,10.56-5a26.45,26.45,0,0,0,6-9.21l17-42.86Z" style="fill:#e5a589"></path><path d="M185.9,230.41l33-11.56h38.26l41,18.07L279.25,349.35C289.64,364.69,302,382,302.82,395.21L237.13,412l-59.78-22.72c-.47-15,16.59-33.95,20.12-44l-7.19-57.95Z" style="fill:#e5a589"></path><path d="M297.76,236.73s11,3.56,16.72,24.72c4.26,15.69,18.69,42.74,18.69,42.74L359,266.44,374.59,276S347,344.3,334.47,347.25c-9.19,2.17-22.5-12.41-30.23-25.26-6.39-10.62-14.85-32.88-14.85-32.88Z" style="fill:#e5a589"></path><path d="M176.38,388.56l-5.16,1.24s-33.12-9.88-48.46,1c-7.25,5.16-11.81,16.39-12.58,21.51s2.9,21,10.89,26.14C140.73,451.18,261.91,474,261.91,474l7.68-21.45-42-17.29,4.41-2.7Z" style="fill:#e5a589"></path><path d="M296.86,393.83c-2,1.11-70.41,41-70.41,41l43.14,17.75,54.11-3.84s22.6,0,31.23-17.45c3.55-7.17,19.25-19.83,11.24-34.09s-35.11-16.33-43.11-13.13S296.86,393.83,296.86,393.83Z" style="fill:#e5a589"></path><path d="M319.48,395.78a1.11,1.11,0,0,1-.26,0l-.74.08a8.24,8.24,0,0,0-1.19.17c-.48.09-1,.17-1.62.33a87.7,87.7,0,0,0-10.05,3.14c-8.37,3-19.67,7.95-32,13.64s-23.42,11.09-31.43,15l-9.48,4.65-2.58,1.24-.68.32q-.23.11-.24.09a.83.83,0,0,1,.22-.14l.65-.36,2.54-1.33c2.22-1.15,5.43-2.8,9.41-4.8,8-4,19-9.44,31.37-15.15s23.69-10.54,32.11-13.5a79.13,79.13,0,0,1,10.14-3c.6-.14,1.16-.21,1.63-.28a9.14,9.14,0,0,1,1.21-.13l.75,0Z" style="fill:#aa6550"></path><path d="M322.07,411.54a3.7,3.7,0,0,1-.07-1,23.61,23.61,0,0,1,.11-2.81,37,37,0,0,1,6.11-17.36,26,26,0,0,1,1.68-2.26,4,4,0,0,1,.71-.76c.07.06-.83,1.22-2.08,3.22a43.37,43.37,0,0,0-4,8.27,42.89,42.89,0,0,0-2.09,8.93C322.19,410.08,322.16,411.54,322.07,411.54Z" style="fill:#aa6550"></path><path d="M343.87,420.07a3.06,3.06,0,0,1-.23.48c-.19.36-.43.8-.73,1.34s-.72,1.28-1.24,2.06-1.07,1.71-1.8,2.64-1.47,2-2.39,3.05-1.91,2.16-3,3.31a63.36,63.36,0,0,1-7.72,6.63,64.91,64.91,0,0,1-8.76,5.21c-1.43.65-2.77,1.29-4.09,1.76s-2.52.94-3.65,1.29-2.17.62-3.08.86a23.2,23.2,0,0,1-2.35.52l-1.5.27a1.92,1.92,0,0,1-.53.05,2.86,2.86,0,0,1,.51-.16l1.48-.36c.64-.14,1.42-.32,2.32-.6s1.93-.52,3-.93,2.33-.79,3.6-1.34,2.63-1.14,4-1.79a61.38,61.38,0,0,0,16.35-11.75c1.07-1.13,2.12-2.18,3-3.25s1.71-2.05,2.42-3,1.31-1.81,1.85-2.58,1-1.44,1.32-2l.81-1.28C343.74,420.21,343.85,420.06,343.87,420.07Z" style="fill:#aa6550"></path><path d="M269.59,452.56a.92.92,0,0,1-.28-.1l-.82-.34-3.12-1.35c-2.71-1.18-6.61-2.92-11.42-5.11s-10.5-4.84-16.76-8-13.07-6.66-20-10.77c-5-3-9.85-5.9-14.54-8.39a88.37,88.37,0,0,0-13.57-5.94,60.91,60.91,0,0,0-20.62-3.12h0l0,0-2.87-3.09-.72-.8a1.28,1.28,0,0,1-.23-.29s.1.08.27.25l.77.76c.69.71,1.67,1.72,2.94,3l-.09,0a59.44,59.44,0,0,1,20.77,2.92,87.58,87.58,0,0,1,13.66,5.92c4.72,2.49,9.56,5.39,14.58,8.38,6.92,4.1,13.72,7.67,20,10.79s11.92,5.81,16.7,8.05l11.34,5.26,3.08,1.44.8.38C269.51,452.5,269.6,452.55,269.59,452.56Z" style="fill:#aa6550"></path><path d="M175.7,447.77a4.35,4.35,0,0,0-5.61,6.65c1.86,1.66,5,1.61,6.45,3.6,1.12,1.5.88,3.57,1.22,5.41a8.46,8.46,0,0,0,4.73,6.08c1.8.82,4,1.06,5.31,2.53.72.81,1.11,1.91,2,2.58,1.73,1.36,4.23.26,6.12-.86l26.36-15.61" style="fill:#e5a589"></path><path d="M261.09,474l64.82-2s15.83,2.55,16.81,0c0,0,4.7-2.74,3.33-6.06,0,0,4.7,4.08,5.68-1.09s-3.72-11.24-9.59-11.64-8-.79-10.18-2.55a16.3,16.3,0,0,0-5.68-2.54l-60.12,4.44Z" style="fill:#e5a589"></path><path d="M172.54,389.49l4.8-5.78S224.8,405.47,243,403.34,300.15,384,300.15,384l2.67,7.64-71.65,40.26Z" style="fill:#263238"></path><path d="M323.15,448.37c0,.15-12.15,1.15-27.15,2.25s-27.18,1.87-27.19,1.73S281,451.2,296,450.1,323.13,448.23,323.15,448.37Z" style="fill:#aa6550"></path><path d="M258.59,361.8a9.51,9.51,0,0,1-1.52-.23c-1-.19-2.38-.44-4.12-.71a98.38,98.38,0,0,0-27.42-.44c-1.75.22-3.17.42-4.14.57a10.2,10.2,0,0,1-1.53.19,8.91,8.91,0,0,1,1.49-.39c1-.21,2.38-.47,4.13-.73a83.68,83.68,0,0,1,13.78-.9A84.59,84.59,0,0,1,253,360.5c1.74.32,3.14.62,4.1.87A7.77,7.77,0,0,1,258.59,361.8Z" style="fill:#aa6550"></path><path d="M191.07,292.09a3.59,3.59,0,0,1-.23-1c-.13-.68-.26-1.65-.41-2.87-.31-2.42-.48-5.79-.85-9.47a59.2,59.2,0,0,0-1.79-9.3,38.88,38.88,0,0,1-1-3.82,4.65,4.65,0,0,1,.42,1c.24.63.56,1.57.92,2.74a47.8,47.8,0,0,1,2,9.34c.37,3.72.48,7.07.69,9.5A37.74,37.74,0,0,1,191.07,292.09Z" style="fill:#aa6550"></path><path d="M295,266.66a33,33,0,0,1-.79,3.56c-.51,2.19-1.18,5.23-1.76,8.61s-1.06,6.32-1.45,8.68c-.2,1.11-.37,2-.5,2.63a3.43,3.43,0,0,1-.26.95,27.93,27.93,0,0,1,.4-3.63c.3-2.24.72-5.32,1.3-8.72a87.81,87.81,0,0,1,1.92-8.61c.3-1.08.57-2,.77-2.56A3.24,3.24,0,0,1,295,266.66Z" style="fill:#aa6550"></path><path d="M262.05,473.67l-.3,0-.86-.11-3.32-.49c-2.88-.42-7-1.09-12.17-2-10.25-1.74-24.39-4.42-39.88-7.9s-29.42-7.12-39.44-9.93c-5-1.4-9.05-2.58-11.83-3.43l-3.21-1-.83-.27c-.18-.06-.28-.1-.27-.11a1.09,1.09,0,0,1,.29.06l.84.22,3.23.89,11.88,3.27c10,2.71,24,6.28,39.45,9.77s29.6,6.21,39.84,8.05l12.13,2.13,3.3.58.86.17Z" style="fill:#aa6550"></path><path d="M200,417.76c-.08.05-1-1.49-2.68-3.79a50.15,50.15,0,0,0-16.79-14.44c-2.53-1.34-4.18-2-4.15-2.08a4.89,4.89,0,0,1,1.19.38c.76.28,1.83.74,3.13,1.37a45.9,45.9,0,0,1,9.37,6.22,45.33,45.33,0,0,1,7.55,8.34,31.41,31.41,0,0,1,1.82,2.88A5.67,5.67,0,0,1,200,417.76Z" style="fill:#aa6550"></path><path d="M176.1,241.15s.09.09.27.33.49.64.81,1.07c.17.23.38.5.57.8l.55,1c.19.37.42.74.6,1.17s.33.91.51,1.4a12.79,12.79,0,0,1,.19,7.24,15.55,15.55,0,0,1-4.84,7.43l-.14.11-.21.17-.15-.21c-.46-.64-.92-1.28-1.36-1.91s-.71-1.36-1.06-2-.5-1.4-.69-2.09a17.3,17.3,0,0,1-.31-2.09,14.49,14.49,0,0,1,1.4-7.06,19,19,0,0,1,2.61-4.09,7,7,0,0,1,1.25-1.26s-.4.48-1.09,1.39a21,21,0,0,0-2.44,4.12,14.5,14.5,0,0,0-1.26,6.87c0,.66.22,1.32.32,2s.44,1.33.68,2,.66,1.3,1,1.95.87,1.23,1.32,1.85l-.36,0,.13-.1a15.33,15.33,0,0,0,4.71-7.17,12.65,12.65,0,0,0-.08-7c-.16-.48-.32-.94-.46-1.38s-.39-.8-.56-1.17-.34-.7-.5-1-.35-.54-.49-.78l-.7-1.12A3.79,3.79,0,0,1,176.1,241.15Z" style="fill:#aa6550"></path><path d="M185.05,254.27a5.38,5.38,0,0,1,0,2,16,16,0,0,1-1.12,4.62v0l-.1.23-.24-.09a13.85,13.85,0,0,1-4-2.47,4.69,4.69,0,0,1-1.27-1.49,14.29,14.29,0,0,1,1.5,1.21,17.52,17.52,0,0,0,4,2.27l-.34.13,0,0A32.16,32.16,0,0,0,185.05,254.27Z" style="fill:#aa6550"></path><path d="M191.61,241.82a12.87,12.87,0,0,1,4.53,4.75l.13.24.13.21-.23.13a13.68,13.68,0,0,1-4.19,1.62,4.37,4.37,0,0,1-1.84.12,22,22,0,0,0,5.77-2.19l-.1.35-.12-.22A33.06,33.06,0,0,0,191.61,241.82Z" style="fill:#aa6550"></path><path d="M186.19,243.73a4.23,4.23,0,0,1,.88.58,12.36,12.36,0,0,1,2,2.06,17,17,0,0,1,3.26,8.85l0,.25-.26,0h-.16a14.74,14.74,0,0,1-9.21-2.33,11.63,11.63,0,0,1-2.22-1.88,3.23,3.23,0,0,1-.65-.85,23.28,23.28,0,0,0,3.07,2.42,15,15,0,0,0,9,2.12h.16l-.24.27a17.59,17.59,0,0,0-3-8.65A23.61,23.61,0,0,0,186.19,243.73Z" style="fill:#aa6550"></path><path d="M176.1,241.15a2,2,0,0,1,.24-.37l.81-1.13a9.27,9.27,0,0,1,.62-.81l.84-.84a9.06,9.06,0,0,1,1-.93l1.24-.91a13.07,13.07,0,0,1,7.2-2.06,17.82,17.82,0,0,1,8.76,2.75l.15.1.23.15-.16.21-1.46,1.93c-.58.56-1.13,1.12-1.71,1.63a18.37,18.37,0,0,1-1.9,1.26,10.92,10.92,0,0,1-2,.87,15.18,15.18,0,0,1-7.43.45,20.93,20.93,0,0,1-4.81-1.44,12.71,12.71,0,0,1-1.22-.6c-.27-.14-.43-.26-.4-.26s.59.25,1.7.67a23.32,23.32,0,0,0,4.79,1.27,15.23,15.23,0,0,0,7.21-.54,13.22,13.22,0,0,0,6.8-5.52l.07.35-.15-.09a17.54,17.54,0,0,0-8.49-2.71,12.91,12.91,0,0,0-7,1.89l-1.23.86a8.07,8.07,0,0,0-1,.88l-.85.8a9.26,9.26,0,0,0-.63.73l-.88,1A3.14,3.14,0,0,1,176.1,241.15Z" style="fill:#aa6550"></path><path d="M306.84,245.57a2.56,2.56,0,0,1-.37.21l-1.19.6c-.27.13-.57.29-.9.42l-1.09.36c-.39.12-.81.28-1.26.39l-1.47.25a12.84,12.84,0,0,1-7.15-1.1,15.6,15.6,0,0,1-6.46-6.09l-.08-.16-.13-.23.23-.11,2.12-1c.73-.26,1.47-.46,2.18-.68s1.47-.24,2.18-.31a18.32,18.32,0,0,1,2.11.06,14.5,14.5,0,0,1,6.7,2.64,18.81,18.81,0,0,1,3.56,3.29,6.11,6.11,0,0,1,1,1.46s-.4-.48-1.17-1.32a21.16,21.16,0,0,0-3.62-3.13,14.31,14.31,0,0,0-6.54-2.46,17,17,0,0,0-2,0c-.69.07-1.39.19-2.1.3s-1.39.42-2.1.67l-2.06,1,.11-.35.08.15a15.31,15.31,0,0,0,6.21,5.91,12.62,12.62,0,0,0,6.9,1.16l1.44-.21c.45-.09.85-.24,1.25-.34l1.08-.31c.32-.12.6-.25.86-.35l1.22-.48A2.2,2.2,0,0,1,306.84,245.57Z" style="fill:#aa6550"></path><path d="M292.34,252a5.16,5.16,0,0,1-1.94-.3,16.14,16.14,0,0,1-4.36-1.92l0,0-.2-.14.13-.22a13.6,13.6,0,0,1,3.15-3.52,4.82,4.82,0,0,1,1.69-1,16.41,16.41,0,0,1-1.46,1.27,17.2,17.2,0,0,0-2.94,3.52l-.07-.35,0,0A31.71,31.71,0,0,0,292.34,252Z" style="fill:#aa6550"></path><path d="M303.42,260.71a12.73,12.73,0,0,1-5.47,3.61l-.26.09-.23.09-.09-.25a13.6,13.6,0,0,1-.85-4.41,4.45,4.45,0,0,1,.21-1.83,21.8,21.8,0,0,0,1.13,6.07l-.33-.16.24-.09A32,32,0,0,0,303.42,260.71Z" style="fill:#aa6550"></path><path d="M302.51,255a5.08,5.08,0,0,1-.73.76,12.31,12.31,0,0,1-2.38,1.61,16.94,16.94,0,0,1-9.29,1.64l-.25,0,0-.26,0-.16a14.73,14.73,0,0,1,3.93-8.64,11.62,11.62,0,0,1,2.25-1.85,3.46,3.46,0,0,1,1-.49,23.07,23.07,0,0,0-2.93,2.59,15.11,15.11,0,0,0-3.68,8.45l0,.16-.23-.29a17.6,17.6,0,0,0,9.06-1.45A25.53,25.53,0,0,0,302.51,255Z" style="fill:#aa6550"></path><path d="M306.84,245.57s.11.08.32.3l1,1c.2.23.47.47.68.76l.68,1a7.58,7.58,0,0,1,.74,1.15c.21.43.44.89.67,1.38a13,13,0,0,1,.76,7.44,17.72,17.72,0,0,1-4.27,8.14l-.13.13-.18.2-.18-.19-1.64-1.79c-.45-.66-.9-1.31-1.3-2a17.1,17.1,0,0,1-.9-2.09,11,11,0,0,1-.5-2.13,15.22,15.22,0,0,1,.87-7.38,20.71,20.71,0,0,1,2.28-4.48c.32-.49.61-.85.8-1.1s.34-.37.33-.34-.35.54-1,1.55a23.19,23.19,0,0,0-2.1,4.49,15.13,15.13,0,0,0-.75,7.19,13.17,13.17,0,0,0,4.23,7.67h-.36l.11-.12a17.54,17.54,0,0,0,4.18-7.87,12.86,12.86,0,0,0-.63-7.22c-.22-.47-.42-.92-.62-1.36a8.83,8.83,0,0,0-.69-1.14l-.64-1a8.32,8.32,0,0,0-.6-.74c-.34-.42-.62-.77-.86-1.05A4.73,4.73,0,0,1,306.84,245.57Z" style="fill:#aa6550"></path><path d="M355.65,272.34a57.57,57.57,0,0,1,5-8.37c2.21-2.7,8.54-6.58,10.1-8.78s7.6-15.45,9-15.68,2.74-.42,3.33.47-3.19,12.39-3.2,14.32.9,4.9,2.35,5.49,6.25,1,6.25,1l3.75,8.69s-1.49.86-3.16,2-7.09.54-11.8,3.16-5.62,5.77-5.62,5.77Z" style="fill:#e5a589"></path><path d="M383.11,240l15.79,4.89,3.42,9.41a4.93,4.93,0,0,1-.95,4.94l-9.11,10.24-3.75-8.69L386,260.5l-1-4.82-4-2.62s-1.24-2.18.7-2.55,7.4,3.56,7.4,3.56l2,4.85-.73-6.48s-7-2-6.31-5.25l.47-1.31L389,247.2s-5.72-1.91-6.25-4.53S383.11,240,383.11,240Z" style="fill:#e5a589"></path><path d="M386,260.5s0,.09,0,.25a1.55,1.55,0,0,1-.3.67,1.89,1.89,0,0,1-1,.64,4.3,4.3,0,0,1-1.51.14,34.75,34.75,0,0,1-3.8-.61,12,12,0,0,0-4.54-.22,7.55,7.55,0,0,0-3.91,2.13,7.44,7.44,0,0,0-1.8,3.2,11.09,11.09,0,0,0-.22,3.45,2.67,2.67,0,0,1-.25-.93,7.27,7.27,0,0,1,.11-2.61,7.53,7.53,0,0,1,1.81-3.44,7.83,7.83,0,0,1,4.16-2.31,12.11,12.11,0,0,1,4.74.26c1.41.29,2.67.6,3.72.71a2.62,2.62,0,0,0,2.29-.54A5.23,5.23,0,0,0,386,260.5Z" style="fill:#aa6550"></path><path d="M392.92,266.46a39.92,39.92,0,0,1-2.17-6.12,40.52,40.52,0,0,1-1.66-6.27,41.1,41.1,0,0,1,2.16,6.12A41.65,41.65,0,0,1,392.92,266.46Z" style="fill:#aa6550"></path><path d="M398.23,259.55a20.05,20.05,0,0,1-.78-3.1c-.21-1-.44-2.15-.7-3.38-.13-.64-.26-1.31-.4-2a4.08,4.08,0,0,0-.7-1.91,2.94,2.94,0,0,0-1.78-.86c-.67-.12-1.36-.17-2-.27a24.77,24.77,0,0,1-3.4-.74,22.77,22.77,0,0,1-2.21-.77,2.58,2.58,0,0,1-.76-.4c0-.08,1.17.35,3.07.82.95.22,2.09.45,3.37.62.64.08,1.31.12,2,.24a3.45,3.45,0,0,1,2.09,1,4.61,4.61,0,0,1,.81,2.15q.18,1,.36,2c.22,1.24.42,2.38.59,3.4A20.06,20.06,0,0,1,398.23,259.55Z" style="fill:#aa6550"></path><path d="M386.94,246.16c0,.06-.46,0-1.1-.36a6.55,6.55,0,0,1-2.21-1.72,4.52,4.52,0,0,1-1-2.63c0-.74.19-1.16.25-1.15s0,.45.12,1.11a5.08,5.08,0,0,0,1.07,2.34,8.5,8.5,0,0,0,2,1.73C386.6,245.86,387,246.09,386.94,246.16Z" style="fill:#aa6550"></path><path d="M131.85,272.47a58.14,58.14,0,0,0-5-8.37c-2.21-2.7-8.54-6.58-10.1-8.77s-7.61-15.46-9-15.69-2.74-.41-3.33.48,3.2,12.39,3.21,14.31-.91,4.91-2.35,5.5-6.25,1-6.25,1l-3.75,8.69s1.48.87,3.15,2,7.09.54,11.8,3.16,5.63,5.77,5.63,5.77Z" style="fill:#e5a589"></path><path d="M104.39,240.12,88.61,245l-3.42,9.41a4.92,4.92,0,0,0,1,4.94l9.11,10.24L99,260.9l2.56-.26,1-4.83,4-2.61s1.24-2.18-.71-2.55-7.39,3.56-7.39,3.56l-2,4.85.73-6.49s7-2,6.31-5.25L103,246l-4.51,1.31s5.73-1.9,6.25-4.53S104.39,240.12,104.39,240.12Z" style="fill:#e5a589"></path><path d="M101.56,260.64a6,6,0,0,0,.47.78,2.6,2.6,0,0,0,2.29.55c1.06-.12,2.32-.43,3.73-.72a11.92,11.92,0,0,1,4.74-.25,7.7,7.7,0,0,1,4.15,2.31,7.35,7.35,0,0,1,1.81,3.44,7,7,0,0,1,.11,2.61,2.25,2.25,0,0,1-.25.92,10.79,10.79,0,0,0-.21-3.44,7.36,7.36,0,0,0-1.81-3.2,7.49,7.49,0,0,0-3.9-2.13,12.07,12.07,0,0,0-4.55.22,37.65,37.65,0,0,1-3.79.61,4.55,4.55,0,0,1-1.51-.14,1.84,1.84,0,0,1-1-.65,1.52,1.52,0,0,1-.3-.66C101.55,260.73,101.54,260.64,101.56,260.64Z" style="fill:#aa6550"></path><path d="M94.59,266.6a40.52,40.52,0,0,1,1.66-6.27,39.92,39.92,0,0,1,2.17-6.12,41.65,41.65,0,0,1-1.67,6.27A41.1,41.1,0,0,1,94.59,266.6Z" style="fill:#aa6550"></path><path d="M89.28,259.68a19.26,19.26,0,0,1,.41-3.16c.18-1,.38-2.17.59-3.41.12-.64.24-1.31.37-2a4.43,4.43,0,0,1,.81-2.15,3.43,3.43,0,0,1,2.08-1c.73-.13,1.4-.16,2-.25a30.33,30.33,0,0,0,3.37-.62c1.9-.46,3-.89,3.07-.81a2.61,2.61,0,0,1-.77.39,20,20,0,0,1-2.21.78,26.35,26.35,0,0,1-3.4.74c-.65.1-1.34.14-2,.27a2.92,2.92,0,0,0-1.77.86,4,4,0,0,0-.71,1.9c-.13.69-.27,1.36-.39,2-.26,1.24-.5,2.37-.71,3.39A19.52,19.52,0,0,1,89.28,259.68Z" style="fill:#aa6550"></path><path d="M100.56,246.29c0-.07.35-.29.92-.67a8.77,8.77,0,0,0,2-1.73,5.13,5.13,0,0,0,1.07-2.34c.11-.66,0-1.09.12-1.11s.26.4.25,1.14a4.54,4.54,0,0,1-1,2.63,6.5,6.5,0,0,1-2.22,1.73C101,246.25,100.59,246.36,100.56,246.29Z" style="fill:#aa6550"></path><path d="M241.18,257.94a4.92,4.92,0,0,1,.12-.56l.42-1.71c.1-.37.2-.8.34-1.24l.58-1.4c.21-.49.4-1.05.69-1.59l1-1.68a16.83,16.83,0,0,1,7.17-6.23,20.37,20.37,0,0,1,11.56-1.31l.23,0,.25.05-.06.26a22.12,22.12,0,0,1-1.94,5.73,17.38,17.38,0,0,1-3.37,4.52,18.72,18.72,0,0,1-8.31,4.5,25.07,25.07,0,0,1-6.34.8,17.25,17.25,0,0,1-1.73-.08,2,2,0,0,1-.6-.1h.6c.4,0,1,0,1.73,0a27.23,27.23,0,0,0,6.24-.95,18.68,18.68,0,0,0,8.08-4.5,16.62,16.62,0,0,0,3.24-4.41,21.29,21.29,0,0,0,1.89-5.59l.2.3-.21,0A20.1,20.1,0,0,0,251.68,244a16.64,16.64,0,0,0-7.05,6c-.36.57-.69,1.12-1,1.63s-.49,1.07-.72,1.56-.41.94-.6,1.36-.26.82-.37,1.17l-.54,1.65A3.78,3.78,0,0,1,241.18,257.94Z" style="fill:#aa6550"></path><path d="M247,237.84a8.86,8.86,0,0,1,2-1.65,22,22,0,0,1,5.62-2.72l0,0,.24-.07.08.25a18.4,18.4,0,0,1,.9,6.14,7.11,7.11,0,0,1-.39,2.53c-.08,0,.06-1,0-2.54a21.56,21.56,0,0,0-1-6l.32.18h-.05a27.23,27.23,0,0,0-5.56,2.53A21.51,21.51,0,0,1,247,237.84Z" style="fill:#aa6550"></path><path d="M228.84,241.63a8.09,8.09,0,0,1-.11-2.53,22.41,22.41,0,0,1,1.2-6c0-.11.09-.23.13-.34l.09-.23.24.09a18.61,18.61,0,0,1,5.16,2.86,7,7,0,0,1,1.7,1.72c-.06.06-.72-.58-1.92-1.43a21.86,21.86,0,0,0-5.12-2.66l.33-.15-.12.32a27.4,27.4,0,0,0-1.32,5.86A23.82,23.82,0,0,1,228.84,241.63Z" style="fill:#aa6550"></path><path d="M235.33,245.53a6.13,6.13,0,0,1-.12-1.37,16.6,16.6,0,0,1,.43-3.75,22.43,22.43,0,0,1,6.24-10.7l.18-.18.18.2.14.15a20.38,20.38,0,0,1,3.88,5.78,18.07,18.07,0,0,1,1.49,5.48,15.75,15.75,0,0,1,0,3.82,9.13,9.13,0,0,1-.18,1c-.05.24-.09.36-.11.35a25.58,25.58,0,0,0-.06-5.15A19.9,19.9,0,0,0,242,230.24l-.14-.15h.37A23.13,23.13,0,0,0,236,240.49,26.48,26.48,0,0,0,235.33,245.53Z" style="fill:#aa6550"></path><path d="M241.18,257.94a3.46,3.46,0,0,1-.6.08,14.28,14.28,0,0,1-1.83.13,20.22,20.22,0,0,1-6.6-.88,16.64,16.64,0,0,1-8.09-5.57,23.22,23.22,0,0,1-4.55-11.17l0-.24,0-.26.26,0a19.74,19.74,0,0,1,6.25.21,16.8,16.8,0,0,1,5.43,2.14,20,20,0,0,1,6.68,7.14,28.4,28.4,0,0,1,2.58,6.08c.22.75.36,1.34.44,1.74a2.1,2.1,0,0,1,.08.62,3.51,3.51,0,0,1-.18-.59c-.12-.4-.28-1-.53-1.71a30.47,30.47,0,0,0-2.71-5.95,19.85,19.85,0,0,0-6.61-6.92,16.47,16.47,0,0,0-5.28-2.05,19.92,19.92,0,0,0-6.09-.2l.23-.28,0,.23a22.94,22.94,0,0,0,4.41,10.93,16.41,16.41,0,0,0,7.82,5.52,20.88,20.88,0,0,0,6.49,1C240.28,258,241.14,257.91,241.18,257.94Z" style="fill:#aa6550"></path><path d="M278.44,259.84l5.78-29.35-2.24-1s-3.85,28.63-9,38.13c-5.54,10.26-20,22.77-37.3,21.51-13.49-1-31.5-21.14-34.33-27.47l-1.66-36.06-2.64.92L199,263.15l-8.51,28.65,3.36,20.7,91.68-.15,4.77-21.26Z" style="fill:#263238"></path><path d="M224.44,296.39a3.28,3.28,0,0,1-.64.89,14.28,14.28,0,0,1-2.17,2.08,16.12,16.12,0,0,1-18.68.89,14.53,14.53,0,0,1-2.36-1.86,4,4,0,0,1-.72-.83,33.65,33.65,0,0,0,3.27,2.37,16.44,16.44,0,0,0,18.27-.87A32,32,0,0,0,224.44,296.39Z" style="fill:#455a64"></path><path d="M278.44,291.8a4.56,4.56,0,0,1-.32,1.2,14,14,0,0,1-1.5,3,15.61,15.61,0,0,1-19.77,5.77,14.12,14.12,0,0,1-2.89-1.73,5.19,5.19,0,0,1-.92-.84,26.66,26.66,0,0,0,4,2.24,15.73,15.73,0,0,0,19.31-5.64A25.79,25.79,0,0,0,278.44,291.8Z" style="fill:#455a64"></path><path d="M292.32,353.82c0-3.18.64-7.8,3-10a35.67,35.67,0,0,1,8-5.21,15.21,15.21,0,0,1,4.5-1.8,5.08,5.08,0,0,1,4.51,1.22c1.76,1.82,1.19,5-.61,6.79s-4.42,2.4-6.93,2.67-5.08.27-7.47,1.09-4.62,2.72-4.93,5.22" style="fill:#FF725E"></path><path d="M186,383.86c.41-4.29,5.76-8.54,9.85-9.9s8.51-1.16,12.82-1.09,8.79-.05,12.65-2c.86,2.85-.84,6-3.37,7.59s-5.66,1.84-8.63,1.63-5.9-.85-8.88-.92A23.3,23.3,0,0,0,186,383.86" style="fill:#FF725E"></path><path d="M290.83,289.61c-3.71,16.95-13.27,32.9-30.33,36.07-6.56,1.21-17.09-3.31-22.57.51-5.28,3.67-7,10-12.28,13.65-8.38,5.82-19.21.8-29.25,2.6-7.89,1.42-14.63,10-18.5,17s-3.23,17-.21,24.39l.09-.45c3.77-19.16,23.41-28,44.58-27,7,.35,15,1.09,21.43-1.9,5.84-2.72,9.73-8.42,15.69-10.86,5.21-2.13,15.76.72,21.32-.14,10.07-1.56,19.83-12.4,22.71-22.17C303.51,321.35,294.32,299.18,290.83,289.61Z" style="fill:#FF725E"></path><g style="opacity:0.7000000000000001"><path d="M290.83,289.61c-3.71,16.95-13.27,32.9-30.33,36.07-6.56,1.21-17.09-3.31-22.57.51-5.28,3.67-7,10-12.28,13.65-8.38,5.82-19.21.8-29.25,2.6-7.89,1.42-14.63,10-18.5,17s-3.23,17-.21,24.39l.09-.45c3.77-19.16,23.41-28,44.58-27,7,.35,15,1.09,21.43-1.9,5.84-2.72,9.73-8.42,15.69-10.86,5.21-2.13,15.76.72,21.32-.14,10.07-1.56,19.83-12.4,22.71-22.17C303.51,321.35,294.32,299.18,290.83,289.61Z" style="fill:#fff"></path></g><path d="M290.83,289.61c-3.71,16.95-13.27,32.9-30.33,36.07-6.56,1.21-17.09-3.31-22.57.51-5.28,3.67-7,10-12.28,13.65-8.38,5.82-19.21.8-29.25,2.6-7.89,1.42-14.63,10-18.5,17s-3.23,17-.21,24.39l.09-.45c3.77-19.16,23.41-28,44.58-27,7,.35,15,1.09,21.43-1.9,5.84-2.72,9.73-8.42,15.69-10.86,5.21-2.13,15.76.72,21.32-.14,10.07-1.56,19.83-12.4,22.71-22.17C303.51,321.35,294.32,299.18,290.83,289.61Z" style="fill:#FF725E"></path><g style="opacity:0.6000000000000001"><path d="M292.32,353.82c0-3.18.64-7.8,3-10a35.67,35.67,0,0,1,8-5.21,15.21,15.21,0,0,1,4.5-1.8,5.08,5.08,0,0,1,4.51,1.22c1.76,1.82,1.19,5-.61,6.79s-4.42,2.4-6.93,2.67-5.08.27-7.47,1.09-4.62,2.72-4.93,5.22" style="fill:#fff"></path></g><g style="opacity:0.6000000000000001"><path d="M186,383.86c.41-4.29,5.76-8.54,9.85-9.9s8.51-1.16,12.82-1.09,8.79-.05,12.65-2c.86,2.85-.84,6-3.37,7.59s-5.66,1.84-8.63,1.63-5.9-.85-8.88-.92A23.3,23.3,0,0,0,186,383.86" style="fill:#fff"></path></g><path d="M181,350.93c1.13-4.51.05-11.53-.35-16.05-.17-1.91-.14-4.24,1.52-5.22a3.21,3.21,0,0,1,3.4.32,5.8,5.8,0,0,1,2,2.95,13.53,13.53,0,0,1-.94,9.74,40.25,40.25,0,0,1-5.61,8.26" style="fill:#FF725E"></path><path d="M181,350.93c1.13-4.51.05-11.53-.35-16.05-.17-1.91-.14-4.24,1.52-5.22a3.21,3.21,0,0,1,3.4.32,5.8,5.8,0,0,1,2,2.95,13.53,13.53,0,0,1-.94,9.74,40.25,40.25,0,0,1-5.61,8.26" style="fill:#FF725E"></path><g style="opacity:0.6000000000000001"><path d="M181,350.93c1.13-4.51.05-11.53-.35-16.05-.17-1.91-.14-4.24,1.52-5.22a3.21,3.21,0,0,1,3.4.32,5.8,5.8,0,0,1,2,2.95,13.53,13.53,0,0,1-.94,9.74,40.25,40.25,0,0,1-5.61,8.26" style="fill:#fff"></path></g><g style="opacity:0.6000000000000001"><path d="M290.83,289.61c-3.71,16.95-13.27,32.9-30.33,36.07-6.56,1.21-17.09-3.31-22.57.51-5.28,3.67-7,10-12.28,13.65-8.38,5.82-19.21.8-29.25,2.6-7.89,1.42-14.63,10-18.5,17s-3.23,17-.21,24.39l.09-.45c3.77-19.16,23.41-28,44.58-27,7,.35,15,1.09,21.43-1.9,5.84-2.72,9.73-8.42,15.69-10.86,5.21-2.13,15.76.72,21.32-.14,10.07-1.56,19.83-12.4,22.71-22.17C303.51,321.35,294.32,299.18,290.83,289.61Z" style="fill:#fff"></path></g><circle cx="241.13" cy="372.27" r="1.86" style="fill:#FF725E"></circle><circle cx="241.13" cy="414.22" r="1.86" style="fill:#FF725E"></circle><circle cx="241.13" cy="320.79" r="1.86" style="fill:#FF725E"></circle><circle cx="248.12" cy="92.71" r="1.86" style="fill:#FF725E"></circle><path d="M242.21,273.84a1.87,1.87,0,1,1-1.86-1.87A1.86,1.86,0,0,1,242.21,273.84Z" style="fill:#FF725E"></path><circle cx="242.21" cy="216.01" r="1.86" style="fill:#FF725E"></circle><circle cx="249.13" cy="138.82" r="1.86" style="fill:#FF725E"></circle></g><g id="Chakras"><circle cx="247.71" cy="52.19" r="24.97" style="fill:#FF725E"></circle><g style="opacity:0.7000000000000001"><circle cx="247.71" cy="52.19" r="24.97" style="fill:#fff"></circle></g><path d="M264.43,60.43a5.32,5.32,0,0,0-1.7-4.17,5.27,5.27,0,0,0,3.57-2.74,3.85,3.85,0,0,1,.78-1,.64.64,0,0,0,.29-.5.61.61,0,0,0-.23-.53,5.11,5.11,0,0,1-.71-.9A5.62,5.62,0,0,0,263.16,48a5.63,5.63,0,0,0,1.37-3.79,3.68,3.68,0,0,1,.21-1.22.66.66,0,0,0,0-.58.62.62,0,0,0-.46-.34,5.11,5.11,0,0,1-1.06-.44,5.62,5.62,0,0,0-4.24-.72,5.6,5.6,0,0,0-.71-4.15,5.16,5.16,0,0,1-.44-1.07.63.63,0,0,0-.92-.45,4,4,0,0,1-1.22.2,5.6,5.6,0,0,0-3.79,1.34,5.62,5.62,0,0,0-2.66-3.28,4.75,4.75,0,0,1-.9-.72.6.6,0,0,0-.53-.23.64.64,0,0,0-.5.29,3.76,3.76,0,0,1-1,.77,5.52,5.52,0,0,0-2.67,3.14,5.64,5.64,0,0,0-4-1.51,4.34,4.34,0,0,1-1.13-.16.66.66,0,0,0-.58.07.63.63,0,0,0-.28.51,4,4,0,0,1-.44,1.15,5.67,5.67,0,0,0-.73,4,5.66,5.66,0,0,0-4.17.66,4.8,4.8,0,0,1-1.07.42.64.64,0,0,0-.47.34.66.66,0,0,0,0,.58,4.08,4.08,0,0,1,.19,1.22,5.25,5.25,0,0,0,1.69,4.17,5.32,5.32,0,0,0-3.57,2.74,3.56,3.56,0,0,1-.78,1,.62.62,0,0,0-.29.49.62.62,0,0,0,.23.53,4.88,4.88,0,0,1,.71.91,5.75,5.75,0,0,0,3.16,2.65l.11,0a5.6,5.6,0,0,0-1.37,3.78,4,4,0,0,1-.2,1.22.63.63,0,0,0,0,.58.66.66,0,0,0,.47.35,4.35,4.35,0,0,1,1.06.44,9.74,9.74,0,0,0,1.75.72,4.45,4.45,0,0,0,2.48,0,5.74,5.74,0,0,0,.71,4.17,4.8,4.8,0,0,1,.44,1.06.64.64,0,0,0,.34.47l.12,0a.67.67,0,0,0,.46,0,3.73,3.73,0,0,1,1.22-.2,5.59,5.59,0,0,0,3.8-1.35,5.67,5.67,0,0,0,2.65,3.29,4.45,4.45,0,0,1,.9.71.67.67,0,0,0,.33.22l.2,0a.63.63,0,0,0,.5-.29,3.56,3.56,0,0,1,1-.77,5.58,5.58,0,0,0,2.68-3.16,4.42,4.42,0,0,0,2.12,1.26,9.27,9.27,0,0,0,1.88.26,5.53,5.53,0,0,1,1.14.16.63.63,0,0,0,.85-.57,3.91,3.91,0,0,1,.44-1.16,5.59,5.59,0,0,0,.73-4l.11,0a5.71,5.71,0,0,0,4.07-.7,4.92,4.92,0,0,1,1.07-.42.62.62,0,0,0,.46-.34.6.6,0,0,0,0-.58A3.83,3.83,0,0,1,264.43,60.43Z" style="fill:#FF725E"></path><g style="opacity:0.2"><path d="M264.43,60.43a5.32,5.32,0,0,0-1.7-4.17,5.27,5.27,0,0,0,3.57-2.74,3.85,3.85,0,0,1,.78-1,.64.64,0,0,0,.29-.5.61.61,0,0,0-.23-.53,5.11,5.11,0,0,1-.71-.9A5.62,5.62,0,0,0,263.16,48a5.63,5.63,0,0,0,1.37-3.79,3.68,3.68,0,0,1,.21-1.22.66.66,0,0,0,0-.58.62.62,0,0,0-.46-.34,5.11,5.11,0,0,1-1.06-.44,5.62,5.62,0,0,0-4.24-.72,5.6,5.6,0,0,0-.71-4.15,5.16,5.16,0,0,1-.44-1.07.63.63,0,0,0-.92-.45,4,4,0,0,1-1.22.2,5.6,5.6,0,0,0-3.79,1.34,5.62,5.62,0,0,0-2.66-3.28,4.75,4.75,0,0,1-.9-.72.6.6,0,0,0-.53-.23.64.64,0,0,0-.5.29,3.76,3.76,0,0,1-1,.77,5.52,5.52,0,0,0-2.67,3.14,5.64,5.64,0,0,0-4-1.51,4.34,4.34,0,0,1-1.13-.16.66.66,0,0,0-.58.07.63.63,0,0,0-.28.51,4,4,0,0,1-.44,1.15,5.67,5.67,0,0,0-.73,4,5.66,5.66,0,0,0-4.17.66,4.8,4.8,0,0,1-1.07.42.64.64,0,0,0-.47.34.66.66,0,0,0,0,.58,4.08,4.08,0,0,1,.19,1.22,5.25,5.25,0,0,0,1.69,4.17,5.32,5.32,0,0,0-3.57,2.74,3.56,3.56,0,0,1-.78,1,.62.62,0,0,0-.29.49.62.62,0,0,0,.23.53,4.88,4.88,0,0,1,.71.91,5.75,5.75,0,0,0,3.16,2.65l.11,0a5.6,5.6,0,0,0-1.37,3.78,4,4,0,0,1-.2,1.22.63.63,0,0,0,0,.58.66.66,0,0,0,.47.35,4.35,4.35,0,0,1,1.06.44,9.74,9.74,0,0,0,1.75.72,4.45,4.45,0,0,0,2.48,0,5.74,5.74,0,0,0,.71,4.17,4.8,4.8,0,0,1,.44,1.06.64.64,0,0,0,.34.47l.12,0a.67.67,0,0,0,.46,0,3.73,3.73,0,0,1,1.22-.2,5.59,5.59,0,0,0,3.8-1.35,5.67,5.67,0,0,0,2.65,3.29,4.45,4.45,0,0,1,.9.71.67.67,0,0,0,.33.22l.2,0a.63.63,0,0,0,.5-.29,3.56,3.56,0,0,1,1-.77,5.58,5.58,0,0,0,2.68-3.16,4.42,4.42,0,0,0,2.12,1.26,9.27,9.27,0,0,0,1.88.26,5.53,5.53,0,0,1,1.14.16.63.63,0,0,0,.85-.57,3.91,3.91,0,0,1,.44-1.16,5.59,5.59,0,0,0,.73-4l.11,0a5.71,5.71,0,0,0,4.07-.7,4.92,4.92,0,0,1,1.07-.42.62.62,0,0,0,.46-.34.6.6,0,0,0,0-.58A3.83,3.83,0,0,1,264.43,60.43Z"></path></g><path d="M265.46,55.66c-.38-1.13-2.7-2.79-4.25-3.47,1.55-.69,3.87-2.34,4.25-3.48a3.6,3.6,0,0,1,.49-1.1.62.62,0,0,0,.15-.54.62.62,0,0,0-.36-.43,5.25,5.25,0,0,1-.89-.67c-.81-.7-3.62-.88-5.16-.84.7-1.24,1.94-3.67,1.74-4.73a3.8,3.8,0,0,1-.12-1.2.59.59,0,0,0-.13-.54.62.62,0,0,0-.53-.21,4.68,4.68,0,0,1-1.1-.14c-1.07-.22-3.62,1-5,1.83,0-1.53-.2-4.33-.9-5.14a4.29,4.29,0,0,1-.68-.89.59.59,0,0,0-.44-.34.63.63,0,0,0-.54.15,3.74,3.74,0,0,1-1.09.5c-1,.36-2.49,2.64-3.21,3.87-.74-1.35-2.32-3.69-3.33-4a4.88,4.88,0,0,1-1-.44.62.62,0,0,0-.56-.09.6.6,0,0,0-.39.4,3.86,3.86,0,0,1-.71,1c-.73.83-.91,3.58-.89,5.06-1.34-.83-3.89-2-5-1.83a4.62,4.62,0,0,1-1.1.14.6.6,0,0,0-.52.21.63.63,0,0,0-.14.54,3.73,3.73,0,0,1-.11,1.2c-.2,1.06,1,3.49,1.74,4.73-1.54,0-4.35.14-5.17.84a4.56,4.56,0,0,1-.89.67.61.61,0,0,0-.35.43.59.59,0,0,0,.15.54,3.89,3.89,0,0,1,.48,1.1c.38,1.14,2.71,2.79,4.25,3.48-1.54.68-3.87,2.34-4.25,3.47a3.89,3.89,0,0,1-.48,1.1.62.62,0,0,0,.2,1,4.19,4.19,0,0,1,.89.67c.8.68,3.58.84,5.07.84h.1C235,60.49,233.79,62.91,234,64a3.65,3.65,0,0,1,.11,1.19.65.65,0,0,0,.14.55.6.6,0,0,0,.52.2,4.72,4.72,0,0,1,1.1.15,21.18,21.18,0,0,0,5-1.85c0,1.55.2,4.35.91,5.15a4.88,4.88,0,0,1,.67.89.63.63,0,0,0,.44.35H243a.59.59,0,0,0,.42-.17,3.63,3.63,0,0,1,1.09-.49c1-.36,2.5-2.65,3.22-3.88.74,1.36,2.31,3.7,3.32,4a5,5,0,0,1,1,.44.58.58,0,0,0,.36.12.63.63,0,0,0,.19,0,.58.58,0,0,0,.39-.4,4.25,4.25,0,0,1,.71-1c.74-.83.91-3.58.89-5.06a21.68,21.68,0,0,0,5,1.84,4.79,4.79,0,0,1,1.1-.15.6.6,0,0,0,.66-.75,3.72,3.72,0,0,1,.12-1.19c.2-1.07-1-3.49-1.74-4.73,0,0,4.36-.16,5.16-.84a4.76,4.76,0,0,1,.89-.67.62.62,0,0,0,.36-.44.63.63,0,0,0-.15-.54A3.6,3.6,0,0,1,265.46,55.66Z" style="fill:#FF725E"></path><path d="M260.15,58.32c-.06-.92-1.8-2.72-2.77-3.51,1.24-.19,3.65-.87,4.16-1.63a2.79,2.79,0,0,1,.58-.72.47.47,0,0,0,.22-.37.46.46,0,0,0-.18-.39,3.92,3.92,0,0,1-.52-.67c-.47-.68-2.87-1.3-4-1.57.74-.76,2.5-2.41,2.56-3.24a2.66,2.66,0,0,1,.16-.91.5.5,0,0,0,0-.43.49.49,0,0,0-.35-.26,3.53,3.53,0,0,1-.79-.33c-.74-.37-3.16.27-4.28.6.31-1.1,1-3.48.6-4.22a3.42,3.42,0,0,1-.32-.79.49.49,0,0,0-.26-.35.5.5,0,0,0-.43,0,3,3,0,0,1-.91.15c-.82.06-2.49,1.8-3.24,2.54-.27-1.11-.88-3.52-1.56-4a3.87,3.87,0,0,1-.67-.54.47.47,0,0,0-.76,0,2.83,2.83,0,0,1-.72.57c-.71.47-1.32,2.82-1.59,3.88-.8-.85-2.55-2.61-3.38-2.67a3.52,3.52,0,0,1-.85-.11.42.42,0,0,0-.42,0,.44.44,0,0,0-.21.37,2.8,2.8,0,0,1-.33.86c-.36.75.3,3.06.57,4.09-1.1-.33-3.48-1-4.22-.65a4,4,0,0,1-.79.31.48.48,0,0,0-.35.25.47.47,0,0,0,0,.43,3.15,3.15,0,0,1,.14.91c0,.92,1.78,2.72,2.75,3.51-1.24.19-3.64.87-4.15,1.64a2.93,2.93,0,0,1-.57.71.47.47,0,0,0-.22.37.48.48,0,0,0,.17.4,3.53,3.53,0,0,1,.53.67c.45.66,2.82,1.26,3.89,1.55,0,0-2.41,2.43-2.48,3.26a2.9,2.9,0,0,1-.15.9.47.47,0,0,0,0,.43.46.46,0,0,0,.34.26,3.84,3.84,0,0,1,.79.33,19.63,19.63,0,0,0,4.27-.6c-.31,1.1-1,3.49-.59,4.22a3.46,3.46,0,0,1,.32.8.47.47,0,0,0,.26.34l.09,0a.45.45,0,0,0,.34,0,2.74,2.74,0,0,1,.91-.14c.83-.06,2.48-1.8,3.23-2.55.27,1.12.89,3.52,1.57,4a3.46,3.46,0,0,1,.67.53.49.49,0,0,0,.24.16l.15,0a.47.47,0,0,0,.37-.22,3,3,0,0,1,.72-.57c.71-.48,1.31-2.83,1.59-3.89a19.14,19.14,0,0,0,3.38,2.67,4,4,0,0,1,.85.12.5.5,0,0,0,.43,0,.48.48,0,0,0,.2-.38,3.21,3.21,0,0,1,.33-.86c.36-.75-.31-3.06-.58-4.09,0,0,3.5,1,4.23.66a3.46,3.46,0,0,1,.8-.32.45.45,0,0,0,.35-.25.5.5,0,0,0,0-.43A2.79,2.79,0,0,1,260.15,58.32Z" style="fill:#FF725E"></path><g style="opacity:0.5"><path d="M260.15,58.32c-.06-.92-1.8-2.72-2.77-3.51,1.24-.19,3.65-.87,4.16-1.63a2.79,2.79,0,0,1,.58-.72.47.47,0,0,0,.22-.37.46.46,0,0,0-.18-.39,3.92,3.92,0,0,1-.52-.67c-.47-.68-2.87-1.3-4-1.57.74-.76,2.5-2.41,2.56-3.24a2.66,2.66,0,0,1,.16-.91.5.5,0,0,0,0-.43.49.49,0,0,0-.35-.26,3.53,3.53,0,0,1-.79-.33c-.74-.37-3.16.27-4.28.6.31-1.1,1-3.48.6-4.22a3.42,3.42,0,0,1-.32-.79.49.49,0,0,0-.26-.35.5.5,0,0,0-.43,0,3,3,0,0,1-.91.15c-.82.06-2.49,1.8-3.24,2.54-.27-1.11-.88-3.52-1.56-4a3.87,3.87,0,0,1-.67-.54.47.47,0,0,0-.76,0,2.83,2.83,0,0,1-.72.57c-.71.47-1.32,2.82-1.59,3.88-.8-.85-2.55-2.61-3.38-2.67a3.52,3.52,0,0,1-.85-.11.42.42,0,0,0-.42,0,.44.44,0,0,0-.21.37,2.8,2.8,0,0,1-.33.86c-.36.75.3,3.06.57,4.09-1.1-.33-3.48-1-4.22-.65a4,4,0,0,1-.79.31.48.48,0,0,0-.35.25.47.47,0,0,0,0,.43,3.15,3.15,0,0,1,.14.91c0,.92,1.78,2.72,2.75,3.51-1.24.19-3.64.87-4.15,1.64a2.93,2.93,0,0,1-.57.71.47.47,0,0,0-.22.37.48.48,0,0,0,.17.4,3.53,3.53,0,0,1,.53.67c.45.66,2.82,1.26,3.89,1.55,0,0-2.41,2.43-2.48,3.26a2.9,2.9,0,0,1-.15.9.47.47,0,0,0,0,.43.46.46,0,0,0,.34.26,3.84,3.84,0,0,1,.79.33,19.63,19.63,0,0,0,4.27-.6c-.31,1.1-1,3.49-.59,4.22a3.46,3.46,0,0,1,.32.8.47.47,0,0,0,.26.34l.09,0a.45.45,0,0,0,.34,0,2.74,2.74,0,0,1,.91-.14c.83-.06,2.48-1.8,3.23-2.55.27,1.12.89,3.52,1.57,4a3.46,3.46,0,0,1,.67.53.49.49,0,0,0,.24.16l.15,0a.47.47,0,0,0,.37-.22,3,3,0,0,1,.72-.57c.71-.48,1.31-2.83,1.59-3.89a19.14,19.14,0,0,0,3.38,2.67,4,4,0,0,1,.85.12.5.5,0,0,0,.43,0,.48.48,0,0,0,.2-.38,3.21,3.21,0,0,1,.33-.86c.36-.75-.31-3.06-.58-4.09,0,0,3.5,1,4.23.66a3.46,3.46,0,0,1,.8-.32.45.45,0,0,0,.35-.25.5.5,0,0,0,0-.43A2.79,2.79,0,0,1,260.15,58.32Z" style="fill:#fff"></path></g><path d="M256.45,53.9a4.61,4.61,0,0,0-2.1-1.71,4.68,4.68,0,0,0,2.1-1.71,1.76,1.76,0,0,1,.23-.54.3.3,0,0,0,.08-.27.31.31,0,0,0-.18-.22,2.59,2.59,0,0,1-.44-.32,5.26,5.26,0,0,0-2.54-.42,5.26,5.26,0,0,0,.86-2.33,1.94,1.94,0,0,1-.06-.58.32.32,0,0,0-.06-.27.29.29,0,0,0-.26-.1,2.06,2.06,0,0,1-.54-.08,5.3,5.3,0,0,0-2.45.91,5.42,5.42,0,0,0-.44-2.53,2.5,2.5,0,0,1-.34-.44.3.3,0,0,0-.48-.09,2,2,0,0,1-.54.24c-.5.18-1.22,1.3-1.58,1.91a5.36,5.36,0,0,0-1.64-2,2.5,2.5,0,0,1-.5-.21.3.3,0,0,0-.27,0,.31.31,0,0,0-.2.2,1.6,1.6,0,0,1-.35.48,5.13,5.13,0,0,0-.43,2.49,5.31,5.31,0,0,0-2.44-.91,2.19,2.19,0,0,1-.55.08.27.27,0,0,0-.25.1.29.29,0,0,0-.07.27,1.65,1.65,0,0,1-.06.58,5.26,5.26,0,0,0,.86,2.33,5.26,5.26,0,0,0-2.54.42,2.25,2.25,0,0,1-.44.32.28.28,0,0,0-.17.22.3.3,0,0,0,.07.27,2,2,0,0,1,.24.54,4.64,4.64,0,0,0,2.09,1.71A4.58,4.58,0,0,0,239,53.9a2,2,0,0,1-.24.54.28.28,0,0,0-.07.26.28.28,0,0,0,.17.22,2.37,2.37,0,0,1,.44.33,5.61,5.61,0,0,0,2.49.41h.05A5.31,5.31,0,0,0,241,58a1.71,1.71,0,0,1,.06.59.31.31,0,0,0,.07.27.3.3,0,0,0,.25.1,2.64,2.64,0,0,1,.55.07,10.67,10.67,0,0,0,2.44-.91,5.36,5.36,0,0,0,.45,2.54,2.36,2.36,0,0,1,.33.43.28.28,0,0,0,.22.17h.06a.3.3,0,0,0,.2-.08,1.71,1.71,0,0,1,.54-.25c.5-.17,1.23-1.3,1.58-1.9.37.66,1.14,1.82,1.64,2a2,2,0,0,1,.5.22.32.32,0,0,0,.18.06l.1,0a.29.29,0,0,0,.19-.2,1.86,1.86,0,0,1,.35-.47,5.24,5.24,0,0,0,.44-2.49,10.44,10.44,0,0,0,2.44.9,2.49,2.49,0,0,1,.54-.07.32.32,0,0,0,.26-.1.33.33,0,0,0,.06-.27,2,2,0,0,1,.06-.59,5.31,5.31,0,0,0-.86-2.33,8.2,8.2,0,0,0,2.54-.41,2.75,2.75,0,0,1,.44-.33.31.31,0,0,0,.18-.22.29.29,0,0,0-.08-.26A1.76,1.76,0,0,1,256.45,53.9Z" style="fill:#FF725E"></path><circle cx="371.93" cy="130.82" r="19.54" style="fill:#FF725E"></circle><g style="opacity:0.7000000000000001"><circle cx="371.93" cy="130.82" r="19.54" style="fill:#fff"></circle></g><path d="M386.24,136.12c.16-1.86.35-4.12-2-5.26,2.31-1.13,2.12-3.39,2-5.26a5,5,0,0,1,.21-2.75.51.51,0,0,0,0-.53.49.49,0,0,0-.47-.23,4.92,4.92,0,0,1-2.56-1c-1.55-.93-3.42-2.06-5.39-.71.28-2.59-1.75-3.63-3.43-4.49a4.87,4.87,0,0,1-2.22-1.63.51.51,0,0,0-.45-.28.5.5,0,0,0-.45.28,5,5,0,0,1-2.23,1.63c-1.68.86-3.71,1.9-3.43,4.49-2-1.35-3.84-.22-5.39.71a4.89,4.89,0,0,1-2.56,1,.49.49,0,0,0-.47.23.51.51,0,0,0,0,.53,5,5,0,0,1,.21,2.75c-.15,1.87-.34,4.13,2,5.26-2.3,1.14-2.11,3.4-2,5.26a5,5,0,0,1-.21,2.75.51.51,0,0,0,0,.53.5.5,0,0,0,.47.24,4.86,4.86,0,0,1,2.56,1,7.07,7.07,0,0,0,3.48,1.34,3.28,3.28,0,0,0,1.91-.62c-.28,2.59,1.76,3.63,3.43,4.48a5,5,0,0,1,2.23,1.64.49.49,0,0,0,.45.27.5.5,0,0,0,.45-.27,4.88,4.88,0,0,1,2.22-1.64c1.68-.85,3.71-1.89,3.43-4.48a3.28,3.28,0,0,0,1.91.62,7.07,7.07,0,0,0,3.48-1.34,4.89,4.89,0,0,1,2.56-1,.5.5,0,0,0,.47-.24.51.51,0,0,0,0-.53A5,5,0,0,1,386.24,136.12Z" style="fill:#FF725E"></path><g style="opacity:0.30000000000000004"><path d="M371.93,141.38a10.52,10.52,0,1,1,10.52-10.52A10.53,10.53,0,0,1,371.93,141.38Z"></path></g><path d="M379.18,126.86a7.09,7.09,0,0,1,.12,1.31,7.37,7.37,0,1,1-14.74,0,7.09,7.09,0,0,1,.12-1.31c.13-.71-.44-.28-.92,1.16a8.61,8.61,0,1,0,16.33,0C379.61,126.58,379.05,126.15,379.18,126.86Z" style="fill:#FF725E"></path><circle cx="395.18" cy="191.18" r="20.54" style="fill:#FF725E"></circle><g style="opacity:0.7000000000000001"><circle cx="395.18" cy="191.18" r="20.54" style="fill:#fff"></circle></g><path d="M407.21,191.18c3.24-2.09,2.08-5.27,1.14-7.87-.55-1.49-1.06-2.89-.76-3.92a.5.5,0,0,0-.13-.49.51.51,0,0,0-.5-.13c-1,.3-2.43-.21-3.92-.76-2.59-.95-5.77-2.1-7.86,1.14-2.09-3.24-5.27-2.09-7.86-1.14-1.49.55-2.9,1.06-3.92.76a.51.51,0,0,0-.5.13.47.47,0,0,0-.12.49c.29,1-.22,2.43-.76,3.92-.95,2.6-2.11,5.78,1.13,7.87-3.24,2.08-2.08,5.26-1.13,7.86.54,1.49,1.05,2.89.76,3.92a.47.47,0,0,0,.12.49.51.51,0,0,0,.5.13c1-.3,2.43.22,3.92.76a12.49,12.49,0,0,0,4.13,1,4.19,4.19,0,0,0,3.73-2.13,4.19,4.19,0,0,0,3.73,2.13,12.74,12.74,0,0,0,4.13-1c1.49-.54,2.9-1.06,3.92-.76a.51.51,0,0,0,.5-.13.5.5,0,0,0,.13-.49c-.3-1,.21-2.43.76-3.92C409.29,196.44,410.45,193.26,407.21,191.18Z" style="fill:#FF725E"></path><g style="opacity:0.30000000000000004"><path d="M395.18,202.14a11,11,0,1,1,11-11A11,11,0,0,1,395.18,202.14Z"></path></g><rect x="387.7" y="183.7" width="14.95" height="14.95" rx="0.53" style="fill:#FF725E"></rect><g style="opacity:0.30000000000000004"><path d="M394.88,197l-5.51-9.55a.34.34,0,0,1,.3-.52h11a.35.35,0,0,1,.31.52L395.48,197A.34.34,0,0,1,394.88,197Z"></path></g><circle cx="173.87" cy="81.68" r="20.06" style="fill:#FF725E"></circle><g style="opacity:0.7000000000000001"><circle cx="173.87" cy="81.68" r="20.06" style="fill:#fff"></circle></g><path d="M192.49,81.11c-1.4-.64-2.31-2.27-3.27-4-1.84-3.29-3.92-7-10-5.27A.46.46,0,0,0,179,72a10.81,10.81,0,0,0-8,0,.52.52,0,0,0-.18-.1c-6.09-1.74-8.17,2-10,5.25-1,1.72-1.88,3.35-3.27,4a.47.47,0,0,0,0,.86c1.39.63,2.3,2.26,3.27,4,1.51,2.7,3.18,5.69,7.13,5.69a10.34,10.34,0,0,0,2.87-.45h0A10.58,10.58,0,0,0,175,92a10.69,10.69,0,0,0,4.13-.83l.05,0a10.45,10.45,0,0,0,2.87.45c3.95,0,5.63-3,7.14-5.72,1-1.73,1.87-3.37,3.27-4a.47.47,0,0,0,0-.86Z" style="fill:#FF725E"></path><g style="opacity:0.30000000000000004"><path d="M175,91.89a10.34,10.34,0,1,1,7.32-3A10.27,10.27,0,0,1,175,91.89Z"></path></g><path d="M174.72,89.35,167.9,77.53a.36.36,0,0,1,.31-.54h13.64a.36.36,0,0,1,.32.54l-6.82,11.82A.37.37,0,0,1,174.72,89.35Z" style="fill:#FF725E"></path><circle cx="98.77" cy="201.47" r="22.58" style="fill:#FF725E"></circle><g style="opacity:0.7000000000000001"><circle cx="98.77" cy="201.47" r="22.58" style="fill:#fff"></circle></g><path d="M115.76,204.8a4.91,4.91,0,0,0-2.53-3.33,4.91,4.91,0,0,0,2.53-3.33,3.66,3.66,0,0,1,.46-1,.57.57,0,0,0-.19-.93,4.93,4.93,0,0,1-.86-.64,5.24,5.24,0,0,0-3.58-1.61,5.21,5.21,0,0,0,.31-3.73,3.36,3.36,0,0,1-.11-1.14.61.61,0,0,0-.13-.52.6.6,0,0,0-.5-.2,3.89,3.89,0,0,1-1.06-.14,5.23,5.23,0,0,0-4,.39,5.25,5.25,0,0,0-1.65-3.55,4.69,4.69,0,0,1-.65-.85.57.57,0,0,0-.42-.33.56.56,0,0,0-.51.15,3.37,3.37,0,0,1-1.05.47,5.22,5.22,0,0,0-3.07,2.13,5.27,5.27,0,0,0-3.19-2.3,4.26,4.26,0,0,1-1-.42.59.59,0,0,0-.53-.08.56.56,0,0,0-.37.38,4,4,0,0,1-.68.93,5.17,5.17,0,0,0-1.64,3.47,5.25,5.25,0,0,0-4-.39,3.83,3.83,0,0,1-1.05.14.59.59,0,0,0-.5.2.55.55,0,0,0-.13.52,3.64,3.64,0,0,1-.11,1.14,5.21,5.21,0,0,0,.3,3.73,5.26,5.26,0,0,0-3.58,1.61,4.58,4.58,0,0,1-.86.64.59.59,0,0,0-.19.93,3.4,3.4,0,0,1,.46,1,4.9,4.9,0,0,0,2.54,3.33,4.9,4.9,0,0,0-2.54,3.33,3.51,3.51,0,0,1-.46,1,.59.59,0,0,0,.19.93,4.18,4.18,0,0,1,.86.64A5.28,5.28,0,0,0,85.84,209h.1a5.18,5.18,0,0,0-.3,3.72,3.72,3.72,0,0,1,.11,1.15.55.55,0,0,0,.13.52.62.62,0,0,0,.5.2,4.17,4.17,0,0,1,1.05.13,8.69,8.69,0,0,0,1.75.22,4.13,4.13,0,0,0,2.22-.61,5.29,5.29,0,0,0,1.65,3.56,4.27,4.27,0,0,1,.65.85.61.61,0,0,0,.42.33h.11a.62.62,0,0,0,.41-.16,3.64,3.64,0,0,1,1-.48,5.22,5.22,0,0,0,3.08-2.12,5.29,5.29,0,0,0,3.18,2.3,4.26,4.26,0,0,1,1,.42.61.61,0,0,0,.35.11l.18,0a.6.6,0,0,0,.38-.38,3.54,3.54,0,0,1,.68-.93,5.14,5.14,0,0,0,1.63-3.48,4.14,4.14,0,0,0,2.21.61,8.6,8.6,0,0,0,1.75-.22,4.24,4.24,0,0,1,1.06-.13.63.63,0,0,0,.5-.2.61.61,0,0,0,.13-.52,3.43,3.43,0,0,1,.11-1.15,5.18,5.18,0,0,0-.31-3.72h.11a5.28,5.28,0,0,0,3.47-1.61,4.46,4.46,0,0,1,.86-.64.58.58,0,0,0,.34-.42.57.57,0,0,0-.15-.51A3.79,3.79,0,0,1,115.76,204.8Z" style="fill:#FF725E"></path><g style="opacity:0.30000000000000004"><path d="M98.77,214.53a13.06,13.06,0,1,1,13.06-13.06A13.07,13.07,0,0,1,98.77,214.53Z"></path></g><path d="M89.66,195.19h18.21a.52.52,0,0,1,.44.25.52.52,0,0,1,0,.51L99.2,211.72a.5.5,0,0,1-.43.25.52.52,0,0,1-.44-.25L89.23,196a.52.52,0,0,1,0-.51A.5.5,0,0,1,89.66,195.19Z" style="fill:#FF725E"></path><g style="opacity:0.4"><path d="M89.66,195.19h18.21a.52.52,0,0,1,.44.25.52.52,0,0,1,0,.51L99.2,211.72a.5.5,0,0,1-.43.25.52.52,0,0,1-.44-.25L89.23,196a.52.52,0,0,1,0-.51A.5.5,0,0,1,89.66,195.19Z"></path></g><path d="M107.87,207.27H89.66a.51.51,0,0,1-.43-.76l9.1-15.77a.52.52,0,0,1,.44-.25.5.5,0,0,1,.43.25l9.11,15.77a.5.5,0,0,1,0,.5A.51.51,0,0,1,107.87,207.27Z" style="fill:#FF725E"></path><ellipse cx="123.91" cy="133.02" rx="19.83" ry="20.96" style="fill:#FF725E"></ellipse><g style="opacity:0.7000000000000001"><ellipse cx="123.91" cy="133.02" rx="19.83" ry="20.96" style="fill:#fff"></ellipse></g><path d="M138.8,136s0,0,0,0,0,0,0-.06a.93.93,0,0,0-.05-.1l-.06-.08,0-.06a2.14,2.14,0,0,1-.28-.54,4.12,4.12,0,0,0-1.69-2.14,4.1,4.1,0,0,0,1.69-2.15,2.22,2.22,0,0,1,.28-.53l0,0a.4.4,0,0,0,.1-.12l0-.07s0-.05,0-.08,0,0,0,0a.37.37,0,0,0,0-.11.28.28,0,0,0,0-.09s0-.06,0-.1a.36.36,0,0,0,0-.09l0,0,0,0-.08-.08-.09,0s0,0-.06,0A2.08,2.08,0,0,1,138,129a3.91,3.91,0,0,0-2.34-1.24,4.45,4.45,0,0,0,.75-2.61,2.29,2.29,0,0,1,.06-.61s0,0,0-.08a.94.94,0,0,0,0-.09.37.37,0,0,0,0-.11v-.07s0,0,0,0a.3.3,0,0,0,0-.1.36.36,0,0,0,0-.09s0,0-.06-.07l-.07-.07,0,0s0,0-.06,0l-.1,0h-.16a2.36,2.36,0,0,1-.56-.16,3.78,3.78,0,0,0-2.51-.24,4.44,4.44,0,0,0-.22-2.65,2.65,2.65,0,0,1-.16-.59.21.21,0,0,0,0-.08.31.31,0,0,0,0-.1.45.45,0,0,0,0-.11s0,0,0-.06l0,0a.27.27,0,0,0-.07-.08.46.46,0,0,0-.07-.07l-.08,0-.09,0h-.2l-.08,0-.08,0a2.39,2.39,0,0,1-.57.06,3.87,3.87,0,0,0-2.47.79,4.3,4.3,0,0,0-1.18-2.47,2.6,2.6,0,0,1-.35-.48l0-.08a.3.3,0,0,0,0-.08l-.07-.09,0,0h0l-.09-.05-.09,0h-.22l-.06,0a.24.24,0,0,0-.1.05s0,0-.06.06,0,0-.06.05a2.16,2.16,0,0,1-.51.29,4,4,0,0,0-2,1.8,4.08,4.08,0,0,0-2-1.8,2.16,2.16,0,0,1-.51-.29l-.06-.05s0,0-.07-.06a.2.2,0,0,0-.09-.05l-.06,0h-.22l-.09,0-.09.05h0s0,0,0,0l-.07.09,0,.09s0,0,0,.07a2.6,2.6,0,0,1-.35.48,4.3,4.3,0,0,0-1.18,2.47,3.87,3.87,0,0,0-2.47-.79,2.39,2.39,0,0,1-.57-.06l-.08,0-.08,0h-.2l-.09,0-.09,0-.06.07a.27.27,0,0,0-.07.08l0,0s0,0,0,.06a.45.45,0,0,0,0,.11.31.31,0,0,0,0,.1.21.21,0,0,0,0,.08,2.65,2.65,0,0,1-.16.59,4.44,4.44,0,0,0-.22,2.65,3.78,3.78,0,0,0-2.51.24,2.5,2.5,0,0,1-.56.16h-.17l-.09,0s0,0-.07,0l0,0-.07.06-.07.08,0,.08a.49.49,0,0,0,0,.11s0,0,0,0v.07a.37.37,0,0,0,0,.11.29.29,0,0,0,0,.1s0,.05,0,.07a2.8,2.8,0,0,1,.06.61,4.45,4.45,0,0,0,.75,2.61A3.91,3.91,0,0,0,109.5,129a2.08,2.08,0,0,1-.46.38s0,0-.06,0l-.09,0-.08.08,0,0a0,0,0,0,1,0,0,.3.3,0,0,0,0,.1.24.24,0,0,0,0,.09.28.28,0,0,0,0,.09V130s0,0,0,0a.19.19,0,0,0,0,.08s0,0,0,.07a.64.64,0,0,0,.1.13l0,0a2.28,2.28,0,0,1,.27.53,4.17,4.17,0,0,0,1.7,2.15,4.19,4.19,0,0,0-1.7,2.14,2.19,2.19,0,0,1-.27.54l0,.06-.06.08,0,.1a.14.14,0,0,0,0,.06s0,0,0,0v.11a.28.28,0,0,0,0,.09.32.32,0,0,0,0,.09.3.3,0,0,0,0,.1,0,0,0,0,1,0,0l0,0,.11.1.07,0,.06,0a2.08,2.08,0,0,1,.46.38,3.91,3.91,0,0,0,2.34,1.24,4.45,4.45,0,0,0-.75,2.61,2.8,2.8,0,0,1-.06.61s0,.05,0,.07a.32.32,0,0,0,0,.09.49.49,0,0,0,0,.12v.06s0,0,0,0a.3.3,0,0,0,0,.1l0,.09.07.07.07.07,0,0a.75.75,0,0,0,.13.06h.2a2.36,2.36,0,0,1,.56.16,4.57,4.57,0,0,0,1.64.37,3.06,3.06,0,0,0,.87-.13,4.44,4.44,0,0,0,.22,2.65,2.65,2.65,0,0,1,.16.59.21.21,0,0,0,0,.08.34.34,0,0,0,0,.1.29.29,0,0,0,0,.1.64.64,0,0,0,0,.07l0,0,0,0a.57.57,0,0,0,.11.11l0,0a.52.52,0,0,0,.16.06h.1l.15,0h0l.06,0a2,2,0,0,1,.57-.06,3.83,3.83,0,0,0,2.47-.8,4.3,4.3,0,0,0,1.18,2.48,2.6,2.6,0,0,1,.35.48,1,1,0,0,0,0,.1l0,0a.64.64,0,0,0,.13.15h0l.07,0,.07,0,.15,0h0l.12,0s0,0,0,0l.08,0a.39.39,0,0,0,.1-.08s0,0,0,0a2.16,2.16,0,0,1,.51-.29,4.08,4.08,0,0,0,2-1.8,4,4,0,0,0,2,1.8,2.16,2.16,0,0,1,.51.29s0,0,0,0l.11.08.08,0a.09.09,0,0,0,0,0l.12,0h0l.14,0,.07,0,.07,0h0a.64.64,0,0,0,.13-.15s0,0,0,0a1,1,0,0,0,0-.1,2.6,2.6,0,0,1,.35-.48,4.3,4.3,0,0,0,1.18-2.48,3.83,3.83,0,0,0,2.47.8,2,2,0,0,1,.57.06l.06,0h0l.16,0h.1a.52.52,0,0,0,.16-.06l0,0a.57.57,0,0,0,.11-.11l0,0,0,0a.64.64,0,0,0,0-.07.29.29,0,0,0,0-.1.34.34,0,0,0,0-.1.21.21,0,0,0,0-.08,2.65,2.65,0,0,1,.16-.59,4.44,4.44,0,0,0,.22-2.65,3,3,0,0,0,.87.13,4.62,4.62,0,0,0,1.64-.37,2.36,2.36,0,0,1,.56-.16h.2a.67.67,0,0,0,.12-.06l0,0a.27.27,0,0,0,.08-.07s0,0,.06-.07a.36.36,0,0,0,0-.09.3.3,0,0,0,0-.1s0,0,0,0v-.06a.49.49,0,0,0,0-.12l0-.09s0-.05,0-.07a2.29,2.29,0,0,1-.06-.61,4.4,4.4,0,0,0-.76-2.61A3.91,3.91,0,0,0,138,137a2.08,2.08,0,0,1,.46-.38l.06,0,.06,0a.58.58,0,0,0,.12-.1l0,0,0,0a.3.3,0,0,0,0-.1.32.32,0,0,0,0-.09.28.28,0,0,0,0-.09A.37.37,0,0,0,138.8,136Z" style="fill:#FF725E"></path><g style="opacity:0.30000000000000004"><path d="M123.74,144.21c-5.83,0-10.58-5-10.58-11.19s4.75-11.18,10.58-11.18,10.58,5,10.58,11.18S129.57,144.21,123.74,144.21Z"></path></g><path d="M123.62,143.07l-8.32-15.23a.38.38,0,0,1,.33-.56h16.64a.38.38,0,0,1,.33.56l-8.32,15.23A.38.38,0,0,1,123.62,143.07Z" style="fill:#FF725E"></path><g style="opacity:0.30000000000000004"><path d="M128.46,132.65a4.47,4.47,0,1,1-4.46-4.71A4.6,4.6,0,0,1,128.46,132.65Z"></path></g><circle cx="328.18" cy="83.04" r="19.92" style="fill:#FF725E"></circle><g style="opacity:0.7000000000000001"><circle cx="328.18" cy="83.04" r="19.92" style="fill:#fff"></circle></g><path d="M343.24,86.83c-.18-1.32-.41-3-2.14-3.88,1.73-.85,2-2.56,2.14-3.89a4,4,0,0,1,.67-2.15.52.52,0,0,0,.1-.56.51.51,0,0,0-.47-.32,3.89,3.89,0,0,1-2-1c-1.05-.8-2.41-1.83-4.2-1.25.67-1.86-.4-3.25-1.23-4.33a4,4,0,0,1-1.05-2,.52.52,0,0,0-.32-.47.53.53,0,0,0-.56.11,4,4,0,0,1-2.15.68c-1.31.18-3,.42-3.86,2.12-.84-1.7-2.54-1.94-3.86-2.12a4,4,0,0,1-2.15-.68.52.52,0,0,0-.88.36,4,4,0,0,1-1.05,2c-.83,1.08-1.89,2.47-1.23,4.33-1.78-.58-3.14.45-4.2,1.25a3.89,3.89,0,0,1-2,1,.51.51,0,0,0-.47.32.52.52,0,0,0,.1.56,3.84,3.84,0,0,1,.67,2.15c.18,1.33.42,3,2.14,3.89-1.72.84-2,2.56-2.14,3.88a3.84,3.84,0,0,1-.67,2.15.52.52,0,0,0-.1.56.51.51,0,0,0,.47.32,4,4,0,0,1,2,1A5.44,5.44,0,0,0,318,92.33a3.26,3.26,0,0,0,1-.17c-.66,1.85.4,3.25,1.23,4.32a4,4,0,0,1,1.05,2,.51.51,0,0,0,.32.47.48.48,0,0,0,.2,0,.51.51,0,0,0,.36-.15,4,4,0,0,1,2.15-.67c1.32-.19,3-.43,3.86-2.13.85,1.7,2.55,1.94,3.86,2.13a4,4,0,0,1,2.15.67.51.51,0,0,0,.36.15.45.45,0,0,0,.2,0,.51.51,0,0,0,.32-.47,4,4,0,0,1,1.05-2c.83-1.07,1.9-2.47,1.23-4.32a3.28,3.28,0,0,0,1,.17,5.41,5.41,0,0,0,3.16-1.42,4,4,0,0,1,2-1,.51.51,0,0,0,.47-.32.52.52,0,0,0-.1-.56A4,4,0,0,1,343.24,86.83Z" style="fill:#FF725E"></path><g style="opacity:0.30000000000000004"><path d="M328.18,94.38A11.41,11.41,0,1,1,339.59,83,11.42,11.42,0,0,1,328.18,94.38Z"></path></g><path d="M327.77,94.7l-10-17.41a.48.48,0,0,1,.41-.71h20.1a.48.48,0,0,1,.41.71L328.59,94.7A.48.48,0,0,1,327.77,94.7Z" style="fill:#FF725E"></path></g></svg>