<svg xmlns="http://www.w3.org/2000/svg" viewBox="0 0 500 500"><g id="background-complete"><path d="M382.61,125.31c.38-2.74-3.48-5-6.38-5.22a16.56,16.56,0,0,1-4.12-.35c-2.84-1-4-4.66-6.74-5.83-2.07-.87-4.45-.09-6.46.92s-4,2.28-6.23,2.42c-1.95.13-4.07-.6-5.77.36-1.27.71-1.94,2.17-3.11,3a7.41,7.41,0,0,1-4.06,1.11,11.31,11.31,0,0,0-4.19.68,3.3,3.3,0,0,0-2.1,3.36Z" style="fill:#ebebeb"></path><path d="M323.13,56.28c.58-4.27-5.45-7.79-10-8.16-2.16-.17-4.41.16-6.46-.56-4.44-1.54-6.21-7.28-10.54-9.11-3.24-1.36-7-.15-10.11,1.43s-6.25,3.57-9.75,3.8c-3.06.19-6.37-.94-9,.55-2,1.11-3,3.4-4.86,4.76s-4.14,1.6-6.36,1.72-4.53.14-6.56,1.07-3.7,3.07-3.28,5.26Z" style="fill:#ebebeb"></path><path d="M463,78.14c.64-4.69-6-8.56-11-9-2.38-.19-4.84.17-7.1-.61-4.87-1.7-6.82-8-11.58-10-3.56-1.5-7.65-.17-11.1,1.57s-6.86,3.92-10.71,4.17c-3.36.21-7-1-9.93.61-2.18,1.22-3.33,3.73-5.34,5.22s-4.54,1.76-7,1.89-5,.16-7.2,1.18S378,76.57,378.46,79Z" style="fill:#f5f5f5"></path><path d="M428.52,326.73a44.25,44.25,0,0,1-27.13-20.41,39.28,39.28,0,0,1-2.84-32.43c3-8.25,8.67-15.51,11.12-23.9,2.78-9.53,1.12-19.64-.59-29.38s-3.47-19.82-.86-29.4S419,172.66,429.57,172c9.78-.64,18.82,6.14,22.9,14.46s4.11,17.88,3.16,27-2.81,18.22-2.23,27.36c1.18,18.51,12.28,35.94,11,54.44-.68,9.63-4.67,15.8-11.5,23.05-5.9,6.24-15.69,10.35-24.36,8.44" style="fill:#f5f5f5"></path><path d="M432,418.44c-.1,0-.19-41-.19-91.57s.09-91.59.19-91.59.19,41,.19,91.59S432.08,418.44,432,418.44Z" style="fill:#e0e0e0"></path><path d="M431.45,294.73a14.31,14.31,0,0,1-1.69-1.49c-1-1-2.38-2.3-3.82-3.84s-2.77-2.9-3.73-3.9a14.28,14.28,0,0,1-1.5-1.66,13.41,13.41,0,0,1,1.69,1.49c1,.95,2.38,2.3,3.82,3.84s2.77,2.9,3.73,3.9A13.35,13.35,0,0,1,431.45,294.73Z" style="fill:#e0e0e0"></path><rect x="401.87" y="410.84" width="61.25" height="7.48" style="fill:#e0e0e0"></rect><path d="M432.55,256.36a12.22,12.22,0,0,0,3.74-1.56,10.32,10.32,0,0,0,4.64-7.8v-.16l.22.18a8,8,0,0,0-4.51,2.47,17.55,17.55,0,0,0-2.52,3.38c-.6,1-1,1.9-1.31,2.5a5,5,0,0,1-.47.93,5,5,0,0,1,.34-1,23.73,23.73,0,0,1,1.21-2.57,16.34,16.34,0,0,1,2.5-3.47,8.28,8.28,0,0,1,4.7-2.61l.23,0,0,.21V247a10.41,10.41,0,0,1-4.86,8,9.63,9.63,0,0,1-2.78,1.18,7.49,7.49,0,0,1-.82.15A1.25,1.25,0,0,1,432.55,256.36Z" style="fill:#e0e0e0"></path><path d="M432.55,256.36a25,25,0,0,1,2.57-3.19,23.42,23.42,0,0,1,2.85-3,23.37,23.37,0,0,1-2.56,3.19A23.87,23.87,0,0,1,432.55,256.36Z" style="fill:#e0e0e0"></path><path d="M473.11,418.17c0,.15-101.76.26-227.27.26s-227.29-.11-227.29-.26,101.74-.26,227.29-.26S473.11,418,473.11,418.17Z" style="fill:#e0e0e0"></path><polygon points="400.07 373.79 412.45 375.82 412.45 395.79 400.07 398.19 400.07 373.79" style="fill:#f5f5f5"></polygon><path d="M413.19,373.43H414a1.18,1.18,0,0,1,1.18,1.18v22a1.17,1.17,0,0,1-1.17,1.17h-.79a1.18,1.18,0,0,1-1.18-1.18v-22a1.17,1.17,0,0,1,1.17-1.17Z" style="fill:#f5f5f5"></path><path d="M414.52,380h1.69a3.52,3.52,0,0,1,3.52,3.52v2.38a3.52,3.52,0,0,1-3.52,3.52h-1.69a0,0,0,0,1,0,0V380a0,0,0,0,1,0,0Z" style="fill:#f5f5f5"></path><path d="M411.92,395.87c-.17,0-.31-4.48-.31-10s.14-10,.31-10,.31,4.47.31,10S412.09,395.87,411.92,395.87Z" style="fill:#e0e0e0"></path><path d="M415,396c-.17,0-.31-4.48-.31-10s.14-10,.31-10,.3,4.48.3,10S415.16,396,415,396Z" style="fill:#e0e0e0"></path><path d="M355.62,451.7V350.35a22.22,22.22,0,0,1,22.22-22.22h0a22.22,22.22,0,0,1,22.23,22.22V451.7Z" style="fill:#f5f5f5"></path><rect x="348.62" y="352.77" width="58.9" height="12.29" rx="4.59" style="fill:#f5f5f5"></rect><path d="M371,329.73l0-.88a6.37,6.37,0,0,1,6-6.73l1.73-.08a6.37,6.37,0,0,1,6.63,6.09l.08,1.52Z" style="fill:#f5f5f5"></path><path d="M377.47,319.57h1.35a1.44,1.44,0,0,1,1.44,1.44v2.12a0,0,0,0,1,0,0H376a0,0,0,0,1,0,0V321A1.44,1.44,0,0,1,377.47,319.57Z" style="fill:#f5f5f5"></path><path d="M400.07,352.58c0,.17-9.93.31-22.18.31s-22.18-.14-22.18-.31,9.93-.31,22.18-.31S400.07,352.41,400.07,352.58Z" style="fill:#e0e0e0"></path><path d="M371.6,330.56c0,.09-1.28.62-3.27,1.7a22.62,22.62,0,0,0-6.83,5.5,19.58,19.58,0,0,0-3.64,7.93c-.48,2.21-.38,3.64-.49,3.64a2.82,2.82,0,0,1-.13-1,12.64,12.64,0,0,1,.19-2.73,18.45,18.45,0,0,1,3.59-8.23,20.66,20.66,0,0,1,7.11-5.5,23,23,0,0,1,2.51-1.05A3,3,0,0,1,371.6,330.56Z" style="fill:#fafafa"></path><path d="M385.36,329.27c-.06.22-3.21-1-7.26-1.12s-7.2,1.28-7.26,1.06a6.11,6.11,0,0,1,2-.88,16.59,16.59,0,0,1,5.25-.79,18.18,18.18,0,0,1,5.24.86A6.54,6.54,0,0,1,385.36,329.27Z" style="fill:#e0e0e0"></path><path d="M380.7,322.43a16.63,16.63,0,0,1-2.39-.16c-1.29,0-2.33.21-2.39,0s1-.7,2.41-.66S380.77,322.28,380.7,322.43Z" style="fill:#e0e0e0"></path><path d="M393.6,388.65a15.36,15.36,0,1,1-15.35-15.35A15.35,15.35,0,0,1,393.6,388.65Z" style="fill:#e0e0e0"></path><circle cx="378.25" cy="385.99" r="15.36" transform="translate(-43.24 724.23) rotate(-84.33)" style="fill:#f5f5f5"></circle><path d="M393.6,386a27.19,27.19,0,0,0-.59-3.72,15.39,15.39,0,0,0-5.6-8.31,15,15,0,0,0-6.38-2.8,15.2,15.2,0,0,0-7.92.67,15.15,15.15,0,0,0-7,5.26,15,15,0,0,0,0,17.8,14.2,14.2,0,0,0,3.18,3.2,14.42,14.42,0,0,0,3.81,2.06,15.2,15.2,0,0,0,7.92.67,15,15,0,0,0,6.38-2.8,15.36,15.36,0,0,0,5.6-8.31,27.19,27.19,0,0,0,.59-3.72,5.67,5.67,0,0,1,0,1,6.87,6.87,0,0,1-.1,1.19,10.11,10.11,0,0,1-.28,1.61,15.28,15.28,0,0,1-5.57,8.6,15.46,15.46,0,0,1-14.75,2.31,15.71,15.71,0,0,1-7.29-5.43,15.56,15.56,0,0,1,0-18.52,15.62,15.62,0,0,1,7.28-5.43,15.54,15.54,0,0,1,8.21-.64,15.45,15.45,0,0,1,12.11,11.55,10.31,10.31,0,0,1,.28,1.61,7,7,0,0,1,.1,1.19A5.67,5.67,0,0,1,393.6,386Z" style="fill:#e0e0e0"></path><path d="M384.55,382.76a7.08,7.08,0,1,1-9.54-3.07A7.08,7.08,0,0,1,384.55,382.76Z" style="fill:#e0e0e0"></path><path d="M383.09,386a4.84,4.84,0,1,1-4.84-4.84A4.84,4.84,0,0,1,383.09,386Z" style="fill:#f5f5f5"></path><path d="M383.09,386c-.06,0-.06-.43-.27-1.15a4.83,4.83,0,0,0-1.78-2.52,4.58,4.58,0,1,0,0,7.34,4.83,4.83,0,0,0,1.78-2.52c.21-.72.21-1.15.27-1.15a2.63,2.63,0,0,1,0,1.21,4.84,4.84,0,0,1-1.74,2.81,5,5,0,0,1-4.81.79,5.1,5.1,0,0,1,0-9.62,5,5,0,0,1,4.81.79,4.87,4.87,0,0,1,1.74,2.81A2.63,2.63,0,0,1,383.09,386Z" style="fill:#e0e0e0"></path><path d="M400.07,365.22c0,.17-10,.31-22.41.31s-22.41-.14-22.41-.31,10-.31,22.41-.31S400.07,365.05,400.07,365.22Z" style="fill:#e0e0e0"></path><path d="M355.25,354.16c0,.1-.59.11-1.45.39a5.44,5.44,0,0,0-3.86,5.24c0,.91.15,1.47.05,1.5s-.39-.5-.49-1.48a5.29,5.29,0,0,1,4.19-5.68C354.66,353.94,355.26,354.09,355.25,354.16Z" style="fill:#fafafa"></path><path d="M371.14,374.37c.05.09-1,.62-2.4,1.88a13.11,13.11,0,0,0-3.92,13.26c.47,1.81,1.08,2.83,1,2.88s-.22-.21-.49-.67a10.56,10.56,0,0,1-.91-2.09,12.64,12.64,0,0,1,4.05-13.71,10.55,10.55,0,0,1,1.9-1.25C370.84,374.43,371.12,374.33,371.14,374.37Z" style="fill:#fafafa"></path><path d="M400.07,407c-.17,0-.31-9.41-.31-21s.14-21,.31-21,.31,9.41.31,21S400.24,407,400.07,407Z" style="fill:#e0e0e0"></path><path d="M341.19,464.13v-4.92a3.69,3.69,0,0,1,3.69-3.68h0V454a7,7,0,0,1,7-7h49.82c3.87,0,7,4.38,7,8.25h1.77c2,0,3.69.41,3.69,2.45v6.49Z" style="fill:#e0e0e0"></path><path d="M410.44,455.19c0,.17-14.72.31-32.87.31s-32.87-.14-32.87-.31,14.71-.31,32.87-.31S410.44,455,410.44,455.19Z" style="fill:#f5f5f5"></path><polygon points="355.71 397.64 343.32 395.61 343.32 375.65 355.71 373.25 355.71 397.64" style="fill:#f5f5f5"></polygon><path d="M341.8,373.61h.79a1.17,1.17,0,0,1,1.17,1.17v22a1.17,1.17,0,0,1-1.17,1.17h-.79a1.17,1.17,0,0,1-1.17-1.17v-22A1.18,1.18,0,0,1,341.8,373.61Z" transform="translate(684.39 771.62) rotate(180)" style="fill:#f5f5f5"></path><path d="M336,382h1.69a3.52,3.52,0,0,1,3.52,3.52v2.38a3.52,3.52,0,0,1-3.52,3.52H336a0,0,0,0,1,0,0V382A0,0,0,0,1,336,382Z" transform="translate(677.3 773.49) rotate(180)" style="fill:#f5f5f5"></path><path d="M343.86,375.57c.17,0,.31,4.47.31,10s-.14,10-.31,10-.31-4.48-.31-10S343.69,375.57,343.86,375.57Z" style="fill:#e0e0e0"></path><path d="M340.79,375.43c.17,0,.31,4.48.31,10s-.14,10-.31,10-.31-4.47-.31-10S340.62,375.43,340.79,375.43Z" style="fill:#e0e0e0"></path><path d="M355.71,419.43c-.17,0-.31-11.9-.31-26.58s.14-26.59.31-26.59.31,11.9.31,26.59S355.88,419.43,355.71,419.43Z" style="fill:#e0e0e0"></path><rect x="99.9" y="95.17" width="85.91" height="272.26" style="fill:#f5f5f5"></rect><rect x="142.85" y="95.17" width="42.95" height="271.51" style="fill:#ebebeb"></rect><rect x="109.71" y="68.44" width="30.34" height="26.73" style="fill:#f5f5f5"></rect><rect x="132.82" y="68.44" width="7.23" height="26.73" style="fill:#ebebeb"></rect><polyline points="92.74 95.17 92.74 93.61 188.32 93.61 188.32 95.17" style="fill:#e0e0e0"></polyline><rect x="116.86" y="106.83" width="7.27" height="15.33" style="fill:#fafafa"></rect><path d="M142.85,128.18c0,.16-9.61.29-21.47.29s-21.48-.13-21.48-.29,9.62-.29,21.48-.29S142.85,128,142.85,128.18Z" style="fill:#e0e0e0"></path><rect x="160.19" y="106.83" width="7.27" height="15.33" style="fill:#e0e0e0"></rect><path d="M186.18,128.18c0,.16-9.61.29-21.47.29s-21.48-.13-21.48-.29,9.61-.29,21.48-.29S186.18,128,186.18,128.18Z" style="fill:#e0e0e0"></path><rect x="160.19" y="137.27" width="7.27" height="15.33" style="fill:#e0e0e0"></rect><path d="M186.18,158.62c0,.16-9.61.29-21.47.29s-21.48-.13-21.48-.29,9.61-.29,21.48-.29S186.18,158.46,186.18,158.62Z" style="fill:#e0e0e0"></path><rect x="160.19" y="168.63" width="7.27" height="15.33" style="fill:#e0e0e0"></rect><path d="M186.18,190c0,.16-9.61.29-21.47.29s-21.48-.13-21.48-.29,9.61-.29,21.48-.29S186.18,189.82,186.18,190Z" style="fill:#e0e0e0"></path><rect x="160.19" y="199.99" width="7.27" height="15.33" style="fill:#e0e0e0"></rect><path d="M186.18,221.34c0,.16-9.61.3-21.47.3s-21.48-.14-21.48-.3,9.61-.29,21.48-.29S186.18,221.18,186.18,221.34Z" style="fill:#e0e0e0"></path><rect x="160.19" y="230.46" width="7.27" height="15.33" style="fill:#e0e0e0"></rect><path d="M186.18,251.81c0,.16-9.61.29-21.47.29s-21.48-.13-21.48-.29,9.61-.3,21.48-.3S186.18,251.64,186.18,251.81Z" style="fill:#e0e0e0"></path><rect x="160.19" y="261.04" width="7.27" height="15.33" style="fill:#e0e0e0"></rect><rect x="160.19" y="292.03" width="7.27" height="15.33" style="fill:#e0e0e0"></rect><path d="M186.18,282.39c0,.16-9.61.29-21.47.29s-21.48-.13-21.48-.29,9.61-.29,21.48-.29S186.18,282.23,186.18,282.39Z" style="fill:#e0e0e0"></path><rect x="116.86" y="137.74" width="7.27" height="15.33" style="fill:#fafafa"></rect><path d="M142.85,159.09c0,.16-9.61.29-21.47.29s-21.48-.13-21.48-.29,9.62-.3,21.48-.3S142.85,158.92,142.85,159.09Z" style="fill:#e0e0e0"></path><rect x="116.86" y="168.64" width="7.27" height="15.33" style="fill:#fafafa"></rect><path d="M142.85,190c0,.16-9.61.3-21.47.3s-21.48-.14-21.48-.3,9.62-.29,21.48-.29S142.85,189.83,142.85,190Z" style="fill:#e0e0e0"></path><rect x="116.86" y="199.55" width="7.27" height="15.33" style="fill:#fafafa"></rect><path d="M142.85,220.9c0,.16-9.61.29-21.47.29s-21.48-.13-21.48-.29,9.62-.29,21.48-.29S142.85,220.74,142.85,220.9Z" style="fill:#e0e0e0"></path><rect x="116.86" y="230.46" width="7.27" height="15.33" style="fill:#fafafa"></rect><path d="M142.85,251.81c0,.16-9.61.29-21.47.29S99.9,252,99.9,251.81s9.62-.3,21.48-.3S142.85,251.64,142.85,251.81Z" style="fill:#e0e0e0"></path><rect x="116.86" y="261.36" width="7.27" height="15.33" style="fill:#fafafa"></rect><path d="M142.85,282.71c0,.16-9.61.29-21.47.29s-21.48-.13-21.48-.29,9.62-.29,21.48-.29S142.85,282.55,142.85,282.71Z" style="fill:#e0e0e0"></path><rect x="116.86" y="292.27" width="7.27" height="15.33" style="fill:#fafafa"></rect><rect x="169.61" y="253.03" width="125.41" height="165.42" style="fill:#ebebeb"></rect><rect x="236.22" y="253.03" width="58.8" height="165.42" style="fill:#e0e0e0"></rect><rect x="195.91" y="275.42" width="11.28" height="27.4" style="fill:#f5f5f5"></rect><rect x="195.91" y="382.65" width="11.28" height="27.4" style="fill:#f5f5f5"></rect><path d="M236.22,313.57c0,.31-14.91.56-33.3.56s-33.31-.25-33.31-.56,14.91-.56,33.31-.56S236.22,313.26,236.22,313.57Z" style="fill:#f5f5f5"></path><rect x="195.91" y="329.44" width="11.28" height="27.4" style="fill:#f5f5f5"></rect><path d="M236.22,367.59c0,.31-14.91.56-33.3.56s-33.31-.25-33.31-.56,14.91-.56,33.31-.56S236.22,367.28,236.22,367.59Z" style="fill:#f5f5f5"></path><rect x="248.71" y="275.42" width="11.28" height="27.4" style="fill:#f5f5f5"></rect><rect x="273.18" y="275.42" width="11.28" height="27.4" style="fill:#f5f5f5"></rect><rect x="248.71" y="327.41" width="11.28" height="27.4" style="fill:#f5f5f5"></rect><rect x="273.18" y="327.41" width="11.28" height="27.4" style="fill:#f5f5f5"></rect><rect x="248.71" y="379.39" width="11.28" height="27.4" style="fill:#f5f5f5"></rect><rect x="273.18" y="379.39" width="11.28" height="27.4" style="fill:#f5f5f5"></rect><rect x="160.19" y="247.27" width="144.27" height="5.96" style="fill:#e0e0e0"></rect><path d="M295.9,253.79c0,.31-28,.56-62.6.56s-62.61-.25-62.61-.56,28-.55,62.61-.55S295.9,253.49,295.9,253.79Z" style="fill:#ebebeb"></path><polygon points="172.72 418.01 46.31 418.01 45.76 218.22 172.17 218.22 172.72 418.01" style="fill:#ebebeb"></polygon><rect x="108.96" y="218.22" width="63.21" height="199.79" style="fill:#e0e0e0"></rect><rect x="60.19" y="178.89" width="44.64" height="39.33" style="fill:#ebebeb"></rect><rect x="94.19" y="178.89" width="10.64" height="39.33" style="fill:#e0e0e0"></rect><rect x="35.22" y="215.93" width="140.65" height="2.29" style="fill:#e0e0e0"></rect><rect x="70.71" y="235.38" width="10.7" height="22.56" style="fill:#fff"></rect><path d="M109,266.8c0,.23-14.15.43-31.6.43s-31.6-.2-31.6-.43,14.14-.43,31.6-.43S109,266.56,109,266.8Z" style="fill:#e0e0e0"></path><rect x="134.47" y="235.38" width="10.7" height="22.56" style="fill:#f5f5f5"></rect><path d="M172.72,266.8c0,.23-14.15.43-31.6.43s-31.61-.2-31.61-.43,14.15-.43,31.61-.43S172.72,266.56,172.72,266.8Z" style="fill:#ebebeb"></path><rect x="134.47" y="280.17" width="10.7" height="22.56" style="fill:#f5f5f5"></rect><path d="M172.72,311.59c0,.24-14.15.43-31.6.43s-31.61-.19-31.61-.43,14.15-.43,31.61-.43S172.72,311.35,172.72,311.59Z" style="fill:#ebebeb"></path><rect x="134.47" y="326.32" width="10.7" height="22.56" style="fill:#f5f5f5"></rect><path d="M172.72,357.74c0,.24-14.15.43-31.6.43s-31.61-.19-31.61-.43,14.15-.43,31.61-.43S172.72,357.5,172.72,357.74Z" style="fill:#ebebeb"></path><rect x="134.47" y="372.47" width="10.7" height="22.56" style="fill:#f5f5f5"></rect><path d="M172.72,403.89c0,.23-14.15.43-31.6.43s-31.61-.2-31.61-.43,14.15-.43,31.61-.43S172.72,403.65,172.72,403.89Z" style="fill:#ebebeb"></path><rect x="70.71" y="280.86" width="10.7" height="22.56" style="fill:#fff"></rect><path d="M109,312.28c0,.23-14.15.43-31.6.43s-31.6-.2-31.6-.43,14.14-.44,31.6-.44S109,312,109,312.28Z" style="fill:#e0e0e0"></path><rect x="70.71" y="326.34" width="10.7" height="22.56" style="fill:#fff"></rect><path d="M109,357.76c0,.23-14.15.43-31.6.43s-31.6-.2-31.6-.43,14.14-.44,31.6-.44S109,357.52,109,357.76Z" style="fill:#e0e0e0"></path><rect x="70.71" y="371.82" width="10.7" height="22.56" style="fill:#fff"></rect><path d="M109,403.23c0,.24-14.15.44-31.6.44s-31.6-.2-31.6-.44,14.14-.43,31.6-.43S109,403,109,403.23Z" style="fill:#e0e0e0"></path></g><g id="background-simple"><path d="M388.52,88.37l-2-3.25c-16.62-27.38-46.66-43.88-78.33-41.88a84.22,84.22,0,0,0-12.13,1.66c-28.8,6.17-53.86,27.95-64.24,55.84-6.11,16.4-7.82,35.29-19.41,48.31-15.09,16.94-40.7,17.47-63.22,16.77s-48.15-.1-63.16,16.91c-9.4,10.65-12.39,25.8-11.63,40.07,2,37.78,28.33,71.55,61.8,88.34s72.89,18.3,109.53,10.91c51.32-10.35,100.13-38.76,129.47-82.64S412,135.74,388.52,88.37Z" style="fill:#f5f5f5"></path><circle cx="170.83" cy="103.69" r="36.47" transform="translate(-23.28 151.17) rotate(-45)" style="fill:#f5f5f5"></circle></g><g id="Character"><path d="M265.94,84a18.45,18.45,0,0,0-6.25.36,18.75,18.75,0,0,0-5.57,2.86,4.52,4.52,0,0,1,1.33-1.34,12.19,12.19,0,0,1,4.11-2,11.85,11.85,0,0,1,4.55-.34A4.41,4.41,0,0,1,265.94,84Z" style="fill:#455a64"></path><path d="M145.81,185.15s-4.86-4.75-5.9-8a4.45,4.45,0,0,0-.35,6.06,39.73,39.73,0,0,0,3.57,4.54l-3,.3s-3.44-.83-4,2.24l.46,1s-1.61,1.22-1.61,2,1.15,2.09,1.15,2.09-1.77,1.42-1.77,2.24a3.41,3.41,0,0,0,.82,1.77s-.59,2.36.48,3.3a13.58,13.58,0,0,0,3.89,1.77l17,.71-.47-11.44-1.53-.35s-.94-1.65-1.65-2.59-7.07-5.74-7.07-5.74" style="fill:#b25f57"></path><path d="M136.6,191.34a2.71,2.71,0,0,1,.94,0,25.44,25.44,0,0,1,2.54.35,30.85,30.85,0,0,1,3.69.94c.68.22,1.39.47,2.12.76s1.49.67,2.08.38.57-1.22.17-1.72a4.29,4.29,0,0,0-1.73-1.17c-1.28-.61-2.46-1.08-3.47-1.45-2-.74-3.31-1.07-3.29-1.15a3.35,3.35,0,0,1,.93.13c.59.13,1.44.34,2.48.67a32.82,32.82,0,0,1,3.55,1.36,4.75,4.75,0,0,1,1.94,1.3,2,2,0,0,1,.39,1.28,1.39,1.39,0,0,1-.73,1.21,1.9,1.9,0,0,1-1.38.06,9.87,9.87,0,0,1-1.13-.43c-.71-.29-1.41-.55-2.08-.78-1.34-.45-2.57-.79-3.62-1C137.91,191.58,136.59,191.42,136.6,191.34Z" style="fill:#884540"></path><path d="M146.16,194.28s.25,0,.68.12a3.39,3.39,0,0,1,1.66.95,2.08,2.08,0,0,1,.5,1.3,1.44,1.44,0,0,1-.89,1.38,3,3,0,0,1-1.75,0l-1.7-.4c-2.34-.55-4.44-1.09-5.95-1.5a12.11,12.11,0,0,1-2.43-.77,13.23,13.23,0,0,1,2.51.41c1.54.32,3.66.8,6,1.36,1.15.22,2.31.73,3.15.43a1,1,0,0,0,.64-.93,1.74,1.74,0,0,0-.35-1.07,3.64,3.64,0,0,0-1.45-1C146.37,194.41,146.14,194.31,146.16,194.28Z" style="fill:#884540"></path><path d="M146.13,198.15s.2-.17.57,0a1,1,0,0,1,.46.52,1.1,1.1,0,0,1-.09.94,1.79,1.79,0,0,1-.85.72,3.11,3.11,0,0,1-1.22.17c-.83,0-1.71-.09-2.65-.15a43.41,43.41,0,0,1-6.74-.73,44.79,44.79,0,0,1,6.78.21c1.82,0,3.73.61,4.37-.41a.81.81,0,0,0-.17-1.1C146.34,198.14,146.14,198.2,146.13,198.15Z" style="fill:#884540"></path><path d="M143.18,200.18s.09-.13.33-.1a.75.75,0,0,1,.58.74,1.32,1.32,0,0,1-.79,1.12,11.48,11.48,0,0,1-1.43.55,5.79,5.79,0,0,1-2.68.33l.17-.29a1,1,0,0,1,0,1c-.13.2-.26.24-.28.22s0-.13.09-.3a.86.86,0,0,0-.12-.69l-.25-.31.42,0a7.61,7.61,0,0,0,2.49-.46c.49-.16,1-.31,1.37-.47a1,1,0,0,0,.64-.71.54.54,0,0,0-.27-.53C143.31,200.2,143.2,200.22,143.18,200.18Z" style="fill:#884540"></path><path d="M256.36,141.29l-.83.62a34.83,34.83,0,0,0-10,11.61l-.88,1.67s-5.55,6.17-6.75,7.52.33,60.41.33,60.41-4.63,43.13-3.18,65.66C237.15,321,249,386.16,249,386.16l9.92-.54h19.45L257.14,149.81Z" style="fill:#FF725E"></path><g style="opacity:0.30000000000000004"><path d="M238.76,204a245.75,245.75,0,0,1,.06,31.18c-.63,10.24-1.9,20.44-2.11,30.7S248.32,376,251.86,385.59h23.6L256.57,217l-3.43-16.06,1.7-48.13,1.06-8.17-3.9,5.51-12.14,30.36a62.84,62.84,0,0,0-1.6,11.77C238.27,197.2,238.76,204,238.76,204Z"></path></g><path d="M155.75,186.37c-.85.46,0,26.44,0,26.44s4.26,1.86,5.2,0c0,0,34.34,2.3,42.76.83,9.52-1.67,36.15-11.7,36.15-11.7l-1.93-39.23-4.67,6.69c-3.55,3.55-18,15.08-26.48,16.5s-31.89,2.36-31.89,2.36l-10.63-.71S158.82,184.72,155.75,186.37Z" style="fill:#FF725E"></path><path d="M237.37,173.55a1.65,1.65,0,0,1,0,.51l0,1.44c0,1.25,0,3.07,0,5.31,0,4.48.21,10.67.44,17.51s.45,13,.53,17.53c0,2.24,0,4.06,0,5.32,0,.57,0,1.05,0,1.44a2.1,2.1,0,0,1-.05.51,1.77,1.77,0,0,1-.06-.51c0-.39,0-.86-.06-1.44,0-1.33-.11-3.13-.19-5.31-.18-4.56-.42-10.71-.68-17.52s-.37-13-.29-17.53c0-2.25.11-4.07.19-5.32l.12-1.44A2,2,0,0,1,237.37,173.55Z" style="fill:#263238"></path><path d="M164.26,187.55a4,4,0,0,1,0,1c0,.64-.1,1.58-.21,2.72-.22,2.3-.66,5.46-1.2,8.94s-1,6.62-1.35,8.9a35,35,0,0,1-.56,3.69,3.47,3.47,0,0,1,0-1c0-.65.1-1.58.21-2.73.22-2.3.65-5.46,1.2-8.93s1-6.62,1.34-8.9A33.07,33.07,0,0,1,164.26,187.55Z" style="fill:#263238"></path><path d="M210.93,186.58a17.94,17.94,0,0,1-2.2,1.58c-1.37.94-3.27,2.25-5.32,3.75s-3.86,2.91-5.17,4a15.41,15.41,0,0,1-2.17,1.61,12.75,12.75,0,0,1,1.94-1.9c1.25-1.1,3-2.57,5.1-4.08s4-2.78,5.42-3.64A12.27,12.27,0,0,1,210.93,186.58Z" style="fill:#263238"></path><path d="M238.55,184.67a6,6,0,0,1,.09-1.2c.12-.87.27-2,.44-3.24.39-2.74,1-6.51,1.63-10.67A66.39,66.39,0,0,1,243,159a25.26,25.26,0,0,1,1.21-3.05,5,5,0,0,1,.59-1.05c.09,0-.67,1.57-1.45,4.21a80.74,80.74,0,0,0-2.14,10.54c-.67,4.16-1.3,7.93-1.79,10.65-.23,1.27-.44,2.35-.6,3.22A4.75,4.75,0,0,1,238.55,184.67Z" style="fill:#263238"></path><g style="opacity:0.30000000000000004"><path d="M237.37,178.14a64.77,64.77,0,0,0-2.43,12.37,21.69,21.69,0,0,0,2.41,12.21q0-12.22,0-24.45"></path></g><g style="opacity:0.30000000000000004"><path d="M202.32,192.45a69.52,69.52,0,0,1-11.5,5.38,23.66,23.66,0,0,1-12.52,1c9.67-2.71,19.43-5.46,28.24-10.26a12.35,12.35,0,0,1-6.69,5.58"></path></g><polygon points="392.65 382.68 369.24 368.95 353.63 388.78 380.94 402.24 389.76 398.52 392.65 382.68" style="fill:#b25f57"></polygon><path d="M378.27,400.9l1.2.87s-6.38,26.3-2.66,29.29l28.77-40.74-13.95-9C390.16,389.34,386,395.9,378.27,400.9Z" style="fill:#FF725E"></path><g style="opacity:0.6000000000000001"><path d="M393.05,388.48a2,2,0,0,1,2.71.19,2,2,0,0,1-.16,2.69,2.15,2.15,0,0,1-2.87-.21,2,2,0,0,1,.48-2.78" style="fill:#fff"></path></g><g style="opacity:0.6000000000000001"><path d="M405.58,390.32l-3.35-2.17L375.88,428s-.49,2.37.93,3.07Z" style="fill:#fff"></path></g><path d="M379.48,402c.21.13,1-.8,2.33-1.32s2.54-.46,2.59-.7-1.31-.75-2.91-.09S379.27,401.9,379.48,402Z" style="fill:#263238"></path><path d="M378.23,407.51c.16.18,1.11-.44,2.43-.52s2.35.35,2.48.15-.91-1.13-2.55-1S378.05,407.37,378.23,407.51Z" style="fill:#263238"></path><path d="M381.63,413.55c.17-.15-.62-1.13-2.07-1.39s-2.55.37-2.44.57,1.1,0,2.28.27S381.48,413.73,381.63,413.55Z" style="fill:#263238"></path><polygon points="305.82 448.22 302.13 421.33 276.9 421.33 283.21 451.11 291.58 455.74 305.82 448.22" style="fill:#b25f57"></polygon><path d="M282.61,448.19l.07,1.48s-24.62,11.25-24.66,16l49.8-2.6-1.54-16.54C299.06,450.38,291.33,451.17,282.61,448.19Z" style="fill:#FF725E"></path><g style="opacity:0.6000000000000001"><path d="M301.51,452.12a2,2,0,0,1,1.53,2.25,1.94,1.94,0,0,1-2.21,1.53,2.14,2.14,0,0,1-1.61-2.38,2,2,0,0,1,2.48-1.34" style="fill:#fff"></path></g><g style="opacity:0.6000000000000001"><path d="M307.82,463.1l-.37-4-47.6,3.95s-2.17,1.08-1.83,2.63Z" style="fill:#fff"></path></g><path d="M282.51,449.82c0,.24,1.24.29,2.48,1s1.93,1.7,2.15,1.6-.22-1.5-1.73-2.34S282.44,449.6,282.51,449.82Z" style="fill:#263238"></path><path d="M277.4,452.25c0,.24,1,.6,1.91,1.58s1.17,2.06,1.41,2,.33-1.41-.79-2.61S277.39,452,277.4,452.25Z" style="fill:#263238"></path><path d="M274.76,458.66c.22,0,.49-1.2-.2-2.5s-1.86-1.77-1.95-1.56.65.88,1.2,2S274.51,458.64,274.76,458.66Z" style="fill:#263238"></path><path d="M250.19,222.12s-9.14,17.62-11.93,34.9c-5,31.18,33.59,171.57,33.59,171.57l36.85-4.67L287.43,278.84l-13.95-59.39Z" style="fill:#263238"></path><path d="M258,227c0,1.63,30.42,100.55,38.6,114.19s61.17,57.87,61.17,57.87l21.86-26.24s-43.09-46.56-48.54-57.47S316,233.09,294.69,209.09Z" style="fill:#263238"></path><path d="M305.82,352.2s-.07-.05-.18-.17l-.49-.55-1.87-2.14-6.84-8,0,0v0c-3.34-8.85-7.79-21.66-12-36.09-4-13.9-7.17-26.62-9.32-35.86-1.07-4.61-1.9-8.36-2.46-10.95-.27-1.26-.48-2.26-.63-3l-.15-.78a.93.93,0,0,1,0-.27s0,.08.08.25l.2.77c.18.72.42,1.71.73,3,.63,2.61,1.52,6.33,2.62,10.91,2.24,9.21,5.42,21.91,9.46,35.79,4.18,14.42,8.57,27.24,11.81,36.12l0-.06,6.71,8.11,1.8,2.21.45.57A1.11,1.11,0,0,1,305.82,352.2Z" style="fill:#455a64"></path><path d="M278.93,239.37a22.63,22.63,0,0,1-1.33,2.41,53,53,0,0,0-2.9,5.95,53.65,53.65,0,0,0-2.11,6.27,21.08,21.08,0,0,1-.74,2.66,11.1,11.1,0,0,1,.39-2.74,38.21,38.21,0,0,1,5-12.33A11.38,11.38,0,0,1,278.93,239.37Z" style="fill:#455a64"></path><path d="M250.43,231.67a9.94,9.94,0,0,1-.53,2.54,40.47,40.47,0,0,1-2.15,5.89,41.68,41.68,0,0,1-3,5.49,10.77,10.77,0,0,1-1.57,2.07,15.53,15.53,0,0,1,1.25-2.26c.8-1.38,1.86-3.31,2.86-5.52a61.21,61.21,0,0,0,2.28-5.78A18.63,18.63,0,0,1,250.43,231.67Z" style="fill:#455a64"></path><path d="M269.09,250.62a3.88,3.88,0,0,1-.42-1c-.24-.63-.54-1.56-.86-2.73a46.14,46.14,0,0,1-1.18-18.71c.18-1.2.36-2.16.52-2.81a3.6,3.6,0,0,1,.29-1c.08,0-.19,1.48-.44,3.86a56.62,56.62,0,0,0-.22,9.34,57.51,57.51,0,0,0,1.38,9.24C268.72,249.17,269.17,250.59,269.09,250.62Z" style="fill:#455a64"></path><path d="M249.8,212s-13.09-4.38-11.25-20.75c1.56-13.84,8.6-26.33,8.6-26.33l5.06-13.29,3.69-7c-.06,0,.43,18.71.43,18.71l9,16.05,7.45-18.6,6.67-16.63v-7.2l3.49,6.12v22.16s9.81,22.16,10.76,30.07S249.8,212,249.8,212Z" style="fill:#fff"></path><path d="M281,149.61a6.46,6.46,0,0,1-.13.93l-.48,2.64c-.45,2.35-1.09,5.61-1.86,9.57l0,.1-.09.05-5.09,2.4.14-.21c0,2.12,0,4.41,0,6.81V172l-.09.08-5.88,5.07c-.57.49-1.14,1-1.66,1.43l.08-.15c-.92,4.31-2,8.3-2.8,12a33.82,33.82,0,0,0-.78,5.23,13.65,13.65,0,0,0,.61,4.51,17.26,17.26,0,0,0,3.17,5.76c.49.61.9,1.05,1.18,1.35a3.83,3.83,0,0,1,.42.48,2.9,2.9,0,0,1-.49-.41A14.85,14.85,0,0,1,266,206a16.61,16.61,0,0,1-3.36-5.78,13.39,13.39,0,0,1-.69-4.62,32.38,32.38,0,0,1,.74-5.31c.73-3.7,1.84-7.72,2.75-12l0-.09.07-.06,1.66-1.43,5.89-5-.09.19c0-2.4,0-4.69,0-6.81v-.15l.13-.07,5.11-2.35-.11.15c.84-3.95,1.53-7.2,2-9.53.25-1.09.44-2,.59-2.62A4.91,4.91,0,0,1,281,149.61Z" style="fill:#455a64"></path><path d="M264.14,179.57a7.24,7.24,0,0,1-1-.95l-2.73-2.75-4.05-4.16q-1.14-1.2-2.4-2.49a4.1,4.1,0,0,1-1.11-1.6,1.66,1.66,0,0,1,.08-1.1,1.22,1.22,0,0,1,.91-.74l0,.52-2.17.11-.32,0,0-.32,0-.21c.95-5.63,1.83-10.73,2.5-14.41.33-1.77.61-3.24.81-4.36a11.32,11.32,0,0,1,.37-1.58,8.43,8.43,0,0,1-.17,1.62c-.16,1.12-.38,2.6-.65,4.38-.57,3.7-1.4,8.8-2.34,14.44l0,.2-.27-.3,2.17-.11.05.52c-.44,0-.72.71-.57,1.18a3.69,3.69,0,0,0,1,1.39l2.38,2.52,4,4.24,2.62,2.86A9.42,9.42,0,0,1,264.14,179.57Z" style="fill:#455a64"></path><path d="M261.45,198.79a6.63,6.63,0,0,1-7.1-.88,25,25,0,0,0,3.49,1A23.94,23.94,0,0,0,261.45,198.79Z" style="fill:#263238"></path><path d="M261.42,197.77c0,.13-.9.38-2,0s-1.61-1.16-1.5-1.24.75.42,1.68.75S261.4,197.62,261.42,197.77Z" style="fill:#263238"></path><path d="M285.28,93.58C280.12,87.28,272,83.91,263.94,83c-3.4-.4-5.58.18-8.89,1.08a14.47,14.47,0,0,0-8.27,5.47c-2.34,3.32-4.31,7-4.75,11.1a68,68,0,0,0-.6,12.51,22.9,22.9,0,0,0,3.9,11.75l10.61,1.84c5.86.2,11.8.39,17.51-.94s11.25-4.41,14.31-9.41C292,109.41,290.43,99.89,285.28,93.58Z" style="fill:#263238"></path><path d="M248.54,130.84s-.17.26-.63.56a5.34,5.34,0,0,1-2.19.74,5.69,5.69,0,0,1-3.37-.69,5.64,5.64,0,0,1-2-7.55,5.65,5.65,0,0,1,2.57-2.29,5.15,5.15,0,0,1,2.26-.46,1.58,1.58,0,0,1,.82.16,7.89,7.89,0,0,0-2.89.71,5.41,5.41,0,0,0-2.25,2.17,5,5,0,0,0-.39,3.73,5.07,5.07,0,0,0,2.21,3,5.51,5.51,0,0,0,3.05.74A7.92,7.92,0,0,0,248.54,130.84Z" style="fill:#e0e0e0"></path><path d="M295.37,123.13a7.92,7.92,0,0,0-3.6-6,5.68,5.68,0,0,0-6.69.58l-1.67,2a6.85,6.85,0,0,0-3.94,6.9,7.52,7.52,0,0,0,5.2,6.14,8.29,8.29,0,0,0,7.91-1.91A9.32,9.32,0,0,0,295.37,123.13Z" style="fill:#263238"></path><path d="M293.26,130.28a3.47,3.47,0,0,0,.57-2.11,9.67,9.67,0,0,0-2.42-4.77,14.13,14.13,0,0,0-4.26-3.4c-1.24-.67-2.09-.92-2.07-1a5.69,5.69,0,0,1,2.24.67,12.55,12.55,0,0,1,4.48,3.4,12.23,12.23,0,0,1,1.72,2.61,5.77,5.77,0,0,1,.68,2.48,3,3,0,0,1-.47,1.68C293.49,130.19,293.28,130.31,293.26,130.28Z" style="fill:#455a64"></path><path d="M288.13,133.42a23.18,23.18,0,0,0-.47-7,23.58,23.58,0,0,0-3-6.34,5.75,5.75,0,0,1,1.4,1.58,14.76,14.76,0,0,1,2.54,9.71A5.59,5.59,0,0,1,288.13,133.42Z" style="fill:#455a64"></path><path d="M255.94,143.92c.07-3.72.15-6.77.15-6.75s-8.65-.95-11-12c-1.18-5.51-1.41-14.65-1.35-22.13.06-6.73,5.79-15.9,14.11-15.93l3.69-.43,14.14,5.62a4,4,0,0,1,3.74,3.8l.05,48.07-14.12,35.23-9-16.05Z" style="fill:#b25f57"></path><path d="M261.68,122.54a2.32,2.32,0,0,0-.81-1.46,2.42,2.42,0,0,0-2.93-.17,3.27,3.27,0,0,0-1.23,3h0a2.94,2.94,0,0,0,2.11,1.21,2.55,2.55,0,0,0,.39,0,2.67,2.67,0,0,0,1.78-.71A2.31,2.31,0,0,0,261.68,122.54Z" style="fill:#884540"></path><path d="M248,110.36a1.44,1.44,0,0,0,1.46,1.37,1.37,1.37,0,0,0,1.41-1.38,1.43,1.43,0,0,0-1.46-1.37A1.38,1.38,0,0,0,248,110.36Z" style="fill:#263238"></path><path d="M246.46,107.15c.19.18,1.23-.68,2.77-.76s2.72.62,2.88.43-.13-.42-.64-.75a4,4,0,0,0-2.31-.58,3.82,3.82,0,0,0-2.2.85C246.51,106.73,246.37,107.07,246.46,107.15Z" style="fill:#263238"></path><path d="M256.16,118.85a10.39,10.39,0,0,0-2.53-.32c-.4,0-.78-.08-.86-.34A2,2,0,0,1,253,117l1-3.07c1.39-4.36,2.36-7.94,2.19-8s-1.44,3.43-2.83,7.8l-1,3.08a2.34,2.34,0,0,0-.12,1.56,1.06,1.06,0,0,0,.68.54,2.79,2.79,0,0,0,.68,0A10.65,10.65,0,0,0,256.16,118.85Z" style="fill:#263238"></path><path d="M256.09,137.17a28.49,28.49,0,0,0,14.76-4.82s-3.56,8-14.81,7.54Z" style="fill:#884540"></path><path d="M260.76,119.66c-.25,0-.16,1.68-1.53,3s-3.16,1.18-3.17,1.41.42.31,1.18.29a4.24,4.24,0,0,0,2.64-1.09,3.63,3.63,0,0,0,1.18-2.46C261.08,120.05,260.87,119.65,260.76,119.66Z" style="fill:#263238"></path><path d="M246.83,101.6c.29.34,1.34-.08,2.61-.17s2.38.11,2.61-.27c.1-.19-.09-.53-.58-.84a3.64,3.64,0,0,0-2.16-.45,3.55,3.55,0,0,0-2.05.82C246.83,101.07,246.7,101.44,246.83,101.6Z" style="fill:#263238"></path><path d="M266,109.55a1.44,1.44,0,0,1-1.36,1.47,1.37,1.37,0,0,1-1.5-1.27,1.43,1.43,0,0,1,1.36-1.47A1.37,1.37,0,0,1,266,109.55Z" style="fill:#263238"></path><path d="M267.61,106.6c-.17.19-1.28-.6-2.82-.57s-2.67.83-2.84.64.09-.42.58-.79a3.89,3.89,0,0,1,2.27-.74,3.83,3.83,0,0,1,2.25.68C267.53,106.18,267.7,106.51,267.61,106.6Z" style="fill:#263238"></path><path d="M266.5,103.53c-.26.36-1.33,0-2.62,0s-2.36.27-2.61-.09c-.11-.18.05-.53.52-.87a3.8,3.8,0,0,1,4.22.06C266.46,103,266.62,103.36,266.5,103.53Z" style="fill:#263238"></path><path d="M276.59,115.08c0-.83.81-2.85,1.63-3,2.17-.47,6.14-.51,6.49,5.07.47,7.62-7.28,6.52-7.31,6.3S276.74,118,276.59,115.08Z" style="fill:#b25f57"></path><path d="M280.2,120.29s.14.09.37.18a1.37,1.37,0,0,0,1,0,3.3,3.3,0,0,0,1.34-3.05,4.45,4.45,0,0,0-.48-1.87,1.55,1.55,0,0,0-1.07-1,.67.67,0,0,0-.76.41c-.09.22,0,.37-.07.38s-.17-.11-.13-.43a.86.86,0,0,1,.27-.5,1,1,0,0,1,.72-.24,1.87,1.87,0,0,1,1.46,1.1,4.56,4.56,0,0,1,.6,2.1c0,1.54-.66,3-1.74,3.41a1.43,1.43,0,0,1-1.23-.13C280.23,120.48,280.18,120.31,280.2,120.29Z" style="fill:#884540"></path><path d="M279.4,111.85l-1.94,2c-8.36-8-24.71-28-23.79-26.85a24.3,24.3,0,0,1,11.94-1.3c6.22,1.06,18,4.17,17.84,11.51S279.4,111.85,279.4,111.85Z" style="fill:#263238"></path><path d="M279.22,130.84s.17.26.63.56a5.39,5.39,0,0,0,2.19.74,5.69,5.69,0,0,0,3.37-.69,5.64,5.64,0,0,0,2-7.55,5.65,5.65,0,0,0-2.57-2.29,5.14,5.14,0,0,0-2.25-.46,1.61,1.61,0,0,0-.83.16,7.89,7.89,0,0,1,2.89.71,5.41,5.41,0,0,1,2.25,2.17,5,5,0,0,1,.4,3.73,5.12,5.12,0,0,1-2.22,3,5.51,5.51,0,0,1-3.05.74A7.92,7.92,0,0,1,279.22,130.84Z" style="fill:#e0e0e0"></path><path d="M285,118.19s0-.63-.07-1.77a26.59,26.59,0,0,0-.64-4.75,32.52,32.52,0,0,0-7.21-13.93,51.87,51.87,0,0,0-12.22-10c-1.74-1.07-3.18-1.87-4.18-2.42a14.76,14.76,0,0,1-1.54-.89s.16,0,.44.16.68.3,1.19.55c1,.5,2.51,1.25,4.28,2.28a49,49,0,0,1,12.43,10,31.74,31.74,0,0,1,7.17,14.19,23.26,23.26,0,0,1,.48,4.83c0,.57-.05,1-.06,1.32S285,118.2,285,118.19Z" style="fill:#455a64"></path><path d="M263.93,84a1.24,1.24,0,0,1,.45.15c.29.11.7.28,1.23.52,1.06.47,2.58,1.2,4.4,2.22a62.79,62.79,0,0,1,6.16,3.91,37.4,37.4,0,0,1,6.74,5.9,17.55,17.55,0,0,1,2.55,3.92,16,16,0,0,1,1.25,4.18,25.1,25.1,0,0,1,0,7.32,48.15,48.15,0,0,1-.92,4.83c-.13.57-.25,1-.33,1.3s-.14.45-.16.44a15.14,15.14,0,0,1,.29-1.78c.21-1.14.52-2.79.76-4.84a26,26,0,0,0-.09-7.19,15.91,15.91,0,0,0-1.24-4,17.46,17.46,0,0,0-2.48-3.8,37.87,37.87,0,0,0-6.63-5.85,67.22,67.22,0,0,0-6.07-4c-1.78-1-3.27-1.83-4.3-2.36A14.39,14.39,0,0,1,263.93,84Z" style="fill:#455a64"></path><path d="M279.55,112a6.61,6.61,0,0,1-1-1c-.67-.73-1.54-1.65-2.57-2.76-2.15-2.34-5.1-5.6-8.34-9.22s-6.14-6.92-8.22-9.32L257,86.91a6.7,6.7,0,0,1-.84-1.09,6.26,6.26,0,0,1,1,1l2.57,2.75c2.16,2.34,5.11,5.6,8.34,9.23s6.14,6.92,8.23,9.32l2.45,2.87A7.54,7.54,0,0,1,279.55,112Z" style="fill:#455a64"></path><path d="M250.19,222.12,249.8,212c17.6-3.85,33.43-7.45,43.54-15.22l4.77,14.1S263.62,227.25,250.19,222.12Z" style="fill:#455a64"></path><path d="M276.87,221.31l-.06-.36c-1.1-6-2.16-11.57-3.07-16.21l-.08-.44-.44,0a57.75,57.75,0,0,0-9.9,2.17,15.16,15.16,0,0,0-3.56,1.4,27.35,27.35,0,0,0,3.7-.88,74.85,74.85,0,0,1,9.43-1.7c.78,4.52,1.73,9.87,2.78,15.6-3.91.58-7.62,1.15-11,1.68l-1.32.21a4.43,4.43,0,0,1-1.14.1.79.79,0,0,1-.63-.45,7,7,0,0,1-.4-1,33,33,0,0,1-1.11-4.24,36.53,36.53,0,0,1-.64-6.33,13.8,13.8,0,0,0-.07-2.36,7.49,7.49,0,0,0-.36,2.34,29,29,0,0,0,.29,6.48,32.08,32.08,0,0,0,1,4.39,7.41,7.41,0,0,0,.44,1.23,1.94,1.94,0,0,0,.53.63,1.8,1.8,0,0,0,.8.33,5,5,0,0,0,1.43-.07l1.32-.19c3.56-.5,7.48-1.06,11.59-1.68l.58-.08Z" style="fill:#455a64"></path><path d="M276.87,221.31a3.62,3.62,0,0,1,.13.56v0h0c-.65.13-2.74.47-6,1l-5.73.87-1.69.25a4.26,4.26,0,0,1-1.85,0,2.14,2.14,0,0,1-1.35-1.43c-.22-.63-.4-1.25-.59-1.91a31.24,31.24,0,0,1-1.07-8.68c0-.78.07-1.57.17-2.38l.09-.6.06-.31.05-.17a.33.33,0,0,1,.05-.12l0-.05a.24.24,0,0,1,.24-.07c.2.1.15.15.18.17a3.65,3.65,0,0,1,.05.69v.62a41,41,0,0,0,.28,5,34.11,34.11,0,0,0,1.05,5.15q.18.65.39,1.29a6.1,6.1,0,0,0,.48,1.21c.16.31.55.28,1,.22l1.38-.21,11.41-1.76-.22.31,0-.13c-.95-5.36-1.88-10.56-2.75-15.48l.28.21a72.27,72.27,0,0,0-7.7,1.29c-1.24.27-2.44.57-3.62.88l-.88.22-.44.11a1.74,1.74,0,0,1-.53.07s-.17,0-.19-.13a.26.26,0,0,1,0-.28.25.25,0,0,1,.08-.07l.12-.07.21-.11.41-.18.83-.33a55.4,55.4,0,0,1,12.38-2.87l.17,0,0,.16c1,5.26,1.74,9.5,2.28,12.48.26,1.44.45,2.58.59,3.38.06.37.11.66.14.88a1.2,1.2,0,0,1,0,.31s0-.1-.08-.3l-.19-.87-.68-3.37c-.58-3-1.41-7.2-2.44-12.44l.2.15a56.24,56.24,0,0,0-12.27,2.93l-.81.33-.4.17-.18.1-.08,0s0,0,0,0h0l-.09-.08c0-.05-.08-.06-.06-.06s0,0,0-.1,0-.08,0-.1H260l.21-.05.43-.1.88-.23c1.18-.31,2.38-.62,3.62-.9a73.61,73.61,0,0,1,7.75-1.32l.24,0,0,.24c.88,4.91,1.8,10.11,2.76,15.46l0,.13.05.27-.27,0-11.4,1.74-1.39.22a2.71,2.71,0,0,1-.76,0,1,1,0,0,1-.73-.47,6.13,6.13,0,0,1-.53-1.33c-.15-.44-.28-.88-.41-1.31a36.37,36.37,0,0,1-1-5.23,40,40,0,0,1-.26-5.08,8.65,8.65,0,0,1,0-1.16.37.37,0,0,0,.15-.08s0,0,.12.1,0,0,0,0l0,.12-.06.29-.09.58q-.15,1.18-.18,2.34a30.56,30.56,0,0,0,1,8.56c.16.64.36,1.29.55,1.88a1.78,1.78,0,0,0,1.12,1.23,4.06,4.06,0,0,0,1.7,0l1.68-.23,5.74-.8c3.27-.44,5.37-.71,6-.78l0,0A5.29,5.29,0,0,1,276.87,221.31Z" style="fill:#263238"></path><path d="M280.5,212.52a46.55,46.55,0,0,0-7.08.93,45.94,45.94,0,0,0-6.69,2.52,6.19,6.19,0,0,1,1.77-1.18,20.85,20.85,0,0,1,4.79-1.85,21.36,21.36,0,0,1,5.09-.63A6.68,6.68,0,0,1,280.5,212.52Z" style="fill:#263238"></path><path d="M280.1,210a45.72,45.72,0,0,0-7.08.92,46.08,46.08,0,0,0-6.68,2.52,6.51,6.51,0,0,1,1.77-1.18,21.11,21.11,0,0,1,9.88-2.47A6.52,6.52,0,0,1,280.1,210Z" style="fill:#263238"></path><path d="M279.43,136.93s3.12,9.93.92,15.42,11,122.81,15.46,145.88,12.89,79.08,12.89,79.08,46-6.11,54.16-13.73,8.24-9.88,8.24-9.88l-34.05-80.19s-16.19-39-18.26-57.11-10.09-67.55-10.09-67.55l-21.3-5.71-1.85-2.32a10.05,10.05,0,0,0-4-3Z" style="fill:#FF725E"></path><path d="M299.71,283.78a1.8,1.8,0,0,1-.09-.36c-.05-.27-.12-.62-.21-1.07-.18-1-.44-2.34-.76-4.1-.59-3.57-1.46-8.74-2.21-15.18S295,249,294.54,240.4s-.49-18-.12-27.86c.21-4.94.48-9.76.89-14.4s1-9.11.87-13.37a29.25,29.25,0,0,0-.71-6.15,45.45,45.45,0,0,0-1.85-5.57,16.16,16.16,0,0,1-1.15-5.43c0-1.8.38-3.47.46-5.07a25.06,25.06,0,0,0-1.09-8.57,50.07,50.07,0,0,0-2.35-6.14c-.75-1.64-1.38-2.9-1.8-3.75l-.47-1a1.41,1.41,0,0,1-.15-.34,2.83,2.83,0,0,1,.19.32l.53.95c.45.84,1.11,2.08,1.89,3.72a45.89,45.89,0,0,1,2.43,6.14,24.64,24.64,0,0,1,1.18,8.67c-.06,1.63-.43,3.31-.42,5.05A15.61,15.61,0,0,0,294,172.9a45,45,0,0,1,1.88,5.61,29.69,29.69,0,0,1,.75,6.25c.11,4.31-.49,8.79-.84,13.42s-.67,9.45-.88,14.38c-.37,9.87-.32,19.28.08,27.82s1.06,16.22,1.79,22.65,1.51,11.61,2,15.19c.28,1.76.51,3.14.66,4.11.07.46.12.81.16,1.08A1.44,1.44,0,0,1,299.71,283.78Z" style="fill:#263238"></path><g style="opacity:0.30000000000000004"><path d="M299.69,283.78a326,326,0,0,1-3.9-88.43c.56-6.11,1.28-12.39-.5-18.26-.92-3-2.48-5.88-2.62-9a42.38,42.38,0,0,1,.41-5.14c.55-7.08-2.72-13.85-6-20.15,0,0,7.66,7.51,9.21,12.56s-2,9.69-1,13.28,4.82,8.66,4.41,13.3-3.75,41.1-3.43,60.8A347.14,347.14,0,0,0,299.69,283.78Z"></path></g><path d="M308.89,151.89c.16,0-.64,3.24-.8,7.27s.34,7.29.18,7.31a7.19,7.19,0,0,1-.47-2.11,29,29,0,0,1-.23-5.22,29.49,29.49,0,0,1,.68-5.18A7.55,7.55,0,0,1,308.89,151.89Z" style="fill:#263238"></path><g style="opacity:0.30000000000000004"><path d="M310,194a101.26,101.26,0,0,0,6.86,49.41Z"></path></g><path d="M339.62,267.29l.71,8.16a1.75,1.75,0,0,1-.05.56l-2.11,8.61a1.75,1.75,0,0,1-1.22,1.26l-5.47,1.52a1.71,1.71,0,0,1-1.16-.08c-1.68-.74-6.42-3-6.19-4.8.27-2.19,1-1.76,1-1.76h0a1.73,1.73,0,0,0,2.37-1.95l-.6-2.85c0-.09-.05-.19-.08-.28-.37-.92-2.47-6.28-2.17-7.72.24-1.15,2.06-3.28,3-4.33a1.73,1.73,0,0,1,1.4-.56l8.75.59a1.74,1.74,0,0,1,1.61,1.58Z" style="fill:#b25f57"></path><path d="M347.24,268.21a3.29,3.29,0,0,1-2.87,4.61c-3,.12-7.24,0-11.25.15-6,.19-11.45.65-11.67-.72a52.18,52.18,0,0,1-.56-6.49l-7.93-49-4.24-67.86s6.42,3.88,9.81,14.46c3.12,9.75,20.6,59.23,22.05,65.35s4.55,36.61,4.55,36.61A7.15,7.15,0,0,1,347.24,268.21Z" style="fill:#FF725E"></path><path d="M345.13,264.85a3.32,3.32,0,0,1-.94.19c-.6.09-1.48.2-2.56.32-2.18.22-5.19.47-8.52.61s-6.35.15-8.53.07c-1.1,0-2-.09-2.59-.14a3.33,3.33,0,0,1-.94-.14,31,31,0,0,1,3.53-.09c2.18,0,5.19-.08,8.51-.22s6.33-.33,8.51-.46A26.44,26.44,0,0,1,345.13,264.85Z" style="fill:#263238"></path><path d="M333.12,273a38.12,38.12,0,0,1,.45,7.54,5.79,5.79,0,0,1-.47,2.06,2.24,2.24,0,0,1-1.58,1.28,1.42,1.42,0,0,1-1.61-1l-1.69-9.71Z" style="fill:#b25f57"></path><path d="M333.12,273a6.42,6.42,0,0,1-1.25.13c-.84,0-2.09.14-3.64.2l.18-.23c.47,2.44,1.06,5.7,1.68,9.28a2.63,2.63,0,0,0,.15.64,1.05,1.05,0,0,0,.39.42,1.28,1.28,0,0,0,1.14.11,2.49,2.49,0,0,0,1.4-1.88,20.73,20.73,0,0,0,.21-4.48c-.05-1.29-.14-2.34-.2-3.06a6.36,6.36,0,0,1-.06-1.13,3.92,3.92,0,0,1,.26,1.11c.12.71.27,1.76.37,3.06a19.08,19.08,0,0,1-.11,4.6A3,3,0,0,1,332,284a1.79,1.79,0,0,1-1.59-.15,1.56,1.56,0,0,1-.59-.63,2.93,2.93,0,0,1-.19-.78c-.62-3.58-1.17-6.84-1.55-9.3l0-.23h.23c1.46,0,2.66,0,3.52,0S333.09,273,333.12,273Z" style="fill:#884540"></path><path d="M342,272.88l-.52,0L340,273l-5.78.17-9,.23-1.33,0a6.65,6.65,0,0,1-1.4-.06,3.8,3.8,0,0,1-2.48-1.57,5.07,5.07,0,0,1-.76-3,5.13,5.13,0,0,1,1.09-3.06l-.05.18L315,233.15c-.81-5.08-1.6-10-2.33-14.67h0c-1-13.44-2.4-25.08-3.5-33.36-.56-4.1-1-7.4-1.33-9.7-.15-1.11-.28-2-.36-2.6l-.09-.67a1,1,0,0,1,0-.23.66.66,0,0,1,.06.22l.13.67c.1.62.25,1.48.44,2.59.38,2.25.9,5.55,1.49,9.68,1.18,8.27,2.61,19.91,3.68,33.36v0l2.34,14.67,5.18,32.76,0,.1-.08.09a4.73,4.73,0,0,0-1,2.78,4.66,4.66,0,0,0,.67,2.75,3.39,3.39,0,0,0,2.22,1.42,5.25,5.25,0,0,0,1.32.07l1.33,0,9-.12,5.79,0h1.52Z" style="fill:#263238"></path><polygon points="330.92 353.14 322.81 289.92 354.31 289.92 375.8 349.98 330.92 353.14" style="fill:#455a64"></polygon><path d="M330.92,353.14H317s-.41-63.24.45-63.22,10.7,0,10.7,0Z" style="fill:#e0e0e0"></path><polygon points="308.72 291.23 309.6 336.13 370.56 335.47 358.55 293.04 312.56 291.11 308.72 291.23" style="fill:#455a64"></polygon><polygon points="312.56 291.11 319.14 336.1 377.7 335.47 365.69 293.04 312.56 291.11" style="fill:#263238"></polygon><path d="M325.18,291.77s-.16-8.46,3-9.73l-.38-1.82s-5.52,2.63-6,12.28Z" style="fill:#263238"></path><path d="M338.87,281.75s7.12.66,9.35,11h-3.79s-.85-7.86-5.95-9.44Z" style="fill:#263238"></path><path d="M327.68,279.29c0,.08-.71.35-1.7,1.11a10.93,10.93,0,0,0-3,3.77,25,25,0,0,0-1.63,4.62,9.08,9.08,0,0,1-.62,2,7.41,7.41,0,0,1,.26-2.05,19.31,19.31,0,0,1,1.52-4.77,9.88,9.88,0,0,1,3.25-3.84A4,4,0,0,1,327.68,279.29Z" style="fill:#455a64"></path><path d="M348.66,289.92a10.08,10.08,0,0,1-.93-1.94,20.6,20.6,0,0,0-2.6-4.39,11.15,11.15,0,0,0-3.89-3.19c-1.18-.55-2-.65-2-.74a4.22,4.22,0,0,1,2.13.4,10.12,10.12,0,0,1,4.15,3.2,16.66,16.66,0,0,1,2.54,4.58A7.51,7.51,0,0,1,348.66,289.92Z" style="fill:#455a64"></path><path d="M369.71,307.23c0,.15-12.35.22-27.57.18s-27.56-.21-27.56-.35,12.34-.22,27.57-.17S369.71,307.09,369.71,307.23Z" style="fill:#455a64"></path></g><g id="Plant"><path d="M93.69,424a10.32,10.32,0,0,1,6.68,4.58,18.19,18.19,0,0,1,2.7,7.79c.72,5.32-.9,11.28-3,16.22-5.31-2.71-8-9.09-9.14-12.41C89.08,435,89,424.37,93.69,424" style="fill:#FF725E"></path><path d="M107.26,459.88a8.83,8.83,0,0,1,.71-8.83,11.73,11.73,0,0,1,7.72-4.73,4.94,4.94,0,0,1,4.09.72,3.76,3.76,0,0,1,1,3.7,7.61,7.61,0,0,1-2.06,3.39c-3.18,3.32-6.86,5.95-11.45,5.75" style="fill:#FF725E"></path><path d="M105.68,477.15a5.71,5.71,0,0,1-.12-1.11c0-.78-.12-1.79-.2-3a31.21,31.21,0,0,1,.65-9.93,18.93,18.93,0,0,1,4.83-8.65,12.56,12.56,0,0,1,2.38-1.87c.3-.19.56-.3.72-.39a1,1,0,0,1,.27-.11,20,20,0,0,0-3.18,2.56,19.61,19.61,0,0,0-4.64,8.57,33.29,33.29,0,0,0-.75,9.81c0,1.27.07,2.3.07,3A6.55,6.55,0,0,1,105.68,477.15Z" style="fill:#263238"></path><path d="M94.49,432.09a2.7,2.7,0,0,1,.17.45c.1.34.24.78.41,1.32.36,1.14.85,2.8,1.44,4.85,1.18,4.11,2.73,9.82,4.29,16.15s2.86,12.1,3.74,16.29c.44,2.09.78,3.79,1,5q.15.83.24,1.35a2.82,2.82,0,0,1,.06.48,2.92,2.92,0,0,1-.14-.46c-.08-.35-.18-.79-.31-1.34-.28-1.22-.66-2.89-1.12-4.94-.94-4.17-2.28-9.92-3.84-16.26s-3.08-12-4.19-16.16c-.54-2-1-3.69-1.31-4.89-.15-.55-.26-1-.35-1.34A1.76,1.76,0,0,1,94.49,432.09Z" style="fill:#263238"></path><path d="M100.52,464.93A20.63,20.63,0,0,0,85.9,453c-1.63-.33-3.65-.31-4.57,1.08s-.17,3.26.8,4.62a17.64,17.64,0,0,0,18.39,6.65" style="fill:#FF725E"></path><path d="M87.84,457.76a4.53,4.53,0,0,1,1,.17,8.33,8.33,0,0,1,1.18.29,13,13,0,0,1,1.54.5,17.27,17.27,0,0,1,1.81.76,18.46,18.46,0,0,1,2,1.06,23.07,23.07,0,0,1,4.08,3.18,22.31,22.31,0,0,1,3.18,4.07,20.38,20.38,0,0,1,1,2,16.06,16.06,0,0,1,.73,1.82,13.08,13.08,0,0,1,.47,1.55,9.59,9.59,0,0,1,.27,1.19,6.92,6.92,0,0,1,.14,1c-.09,0-.3-1.45-1.13-3.68a17.31,17.31,0,0,0-.78-1.78,20.13,20.13,0,0,0-1.06-1.95,23.65,23.65,0,0,0-3.15-4,23.18,23.18,0,0,0-4-3.14,20.5,20.5,0,0,0-1.95-1.08,18.92,18.92,0,0,0-1.77-.8C89.28,458.1,87.82,457.84,87.84,457.76Z" style="fill:#263238"></path></g><g id="Floor"><path d="M473.11,463.88H226.44v14.19H473.11" style="fill:#f5f5f5"></path><path d="M473.11,478.07l-1.26,0-3.72,0-14.3.05-52.7.08-174.69.08h-.26V463.62h.26l174.71.08,52.68.08,14.3.05,3.72,0,1.26,0s-.42,0-1.26,0l-3.72,0-14.3.05-52.68.08-174.71.08.26-.26v14.19l-.26-.26,174.69.08,52.7.08,14.3,0,3.72,0C472.69,478.05,473.11,478.07,473.11,478.07Z" style="fill:#263238"></path><path d="M280,478.64a97.61,97.61,0,0,1,0-14.51,101.35,101.35,0,0,1,0,14.51Z" style="fill:#263238"></path><path d="M340.4,478.64a101.35,101.35,0,0,1,0-14.51,101.35,101.35,0,0,1,0,14.51Z" style="fill:#263238"></path><path d="M400.77,478.64a101.35,101.35,0,0,1,0-14.51,101.35,101.35,0,0,1,0,14.51Z" style="fill:#263238"></path><path d="M461.14,478.64a101.35,101.35,0,0,1,0-14.51,101.35,101.35,0,0,1,0,14.51Z" style="fill:#263238"></path><path d="M36.22,478.07c0-.14,43-.26,96-.26s96,.12,96,.26-43,.26-96,.26S36.22,478.22,36.22,478.07Z" style="fill:#263238"></path></g></svg>