<svg xmlns="http://www.w3.org/2000/svg" viewBox="0 0 500 500"><g id="background-complete"><path d="M202.2,177.64c-1.2-2.73-2.43-5.49-4.45-7.84-2.02-2.35-4.98-4.28-8.38-4.63-3.4-.35-7.17,1.21-8.28,3.96-.49-6.21-1.52-12.58-5.18-17.97-3.66-5.39-10.49-9.63-17.8-9.25-6.89,.36-12.8,4.71-16.08,9.87-3.28,5.16-4.41,11.09-5.48,16.88-2.61-2.72-8.13-1.87-10.86,.77-2.73,2.64-3.42,6.34-4,9.82h80.51v-1.62Z" style="fill:#f5f5f5;"></path><path d="M443.09,178.99c-1.3-2.94-2.62-5.93-4.8-8.46-2.18-2.54-5.37-4.62-9.04-5-3.67-.38-7.74,1.3-8.94,4.28-.53-6.7-1.64-13.58-5.59-19.39-3.95-5.82-11.32-10.39-19.21-9.98-7.44,.39-13.81,5.08-17.35,10.65-3.54,5.57-4.75,11.97-5.92,18.22-2.82-2.94-8.78-2.02-11.72,.84-2.94,2.85-3.69,6.84-4.31,10.59h86.88v-1.74Z" style="fill:#f5f5f5;"></path><path d="M391.14,58.45c-.82-1.85-1.65-3.72-3.02-5.32-1.37-1.59-3.38-2.9-5.68-3.14-2.31-.24-4.86,.82-5.62,2.69-.33-4.21-1.03-8.53-3.51-12.19-2.48-3.66-7.11-6.53-12.07-6.27-4.68,.24-8.68,3.19-10.9,6.69-2.22,3.5-2.99,7.52-3.72,11.45-1.77-1.85-5.51-1.27-7.36,.53-1.85,1.79-2.32,4.3-2.71,6.66h54.6v-1.1Z" style="fill:#f5f5f5;"></path><path d="M68.44,183.24c-.58-1.33-1.18-2.67-2.16-3.81-.98-1.14-2.42-2.08-4.07-2.25-1.65-.17-3.49,.59-4.03,1.93-.24-3.02-.74-6.12-2.52-8.74-1.78-2.62-5.1-4.68-8.65-4.5-3.35,.17-6.22,2.29-7.82,4.8-1.59,2.51-2.14,5.39-2.67,8.21-1.27-1.32-3.95-.91-5.28,.38-1.33,1.28-1.66,3.08-1.94,4.77h39.15v-.79Z" style="fill:#f5f5f5;"></path><path d="M305.25,231.36c-.58-1.33-1.18-2.67-2.16-3.81-.98-1.14-2.42-2.08-4.07-2.25-1.65-.17-3.49,.59-4.03,1.93-.24-3.02-.74-6.12-2.52-8.74-1.78-2.62-5.1-4.68-8.65-4.5-3.35,.17-6.22,2.29-7.82,4.8-1.59,2.51-2.14,5.39-2.67,8.21-1.27-1.32-3.95-.91-5.28,.38-1.33,1.28-1.66,3.08-1.94,4.77h39.15v-.79Z" style="fill:#f5f5f5;"></path><path d="M475.84,124.83c-.58-1.33-1.18-2.67-2.16-3.81-.98-1.14-2.42-2.08-4.07-2.25-1.65-.17-3.49,.59-4.03,1.93-.24-3.02-.74-6.12-2.52-8.74-1.78-2.62-5.1-4.68-8.65-4.5-3.35,.17-6.22,2.29-7.82,4.8-1.59,2.51-2.14,5.39-2.67,8.21-1.27-1.32-3.95-.91-5.28,.38-1.33,1.28-1.66,3.08-1.94,4.77h39.15v-.79Z" style="fill:#f5f5f5;"></path><path d="M321.94,109.79c-1.06-2.4-2.14-4.84-3.92-6.91-1.78-2.07-4.38-3.77-7.38-4.08-3-.31-6.31,1.06-7.29,3.49-.43-5.47-1.34-11.08-4.56-15.82-3.22-4.75-9.23-8.48-15.67-8.14-6.07,.32-11.27,4.15-14.15,8.69-2.89,4.55-3.88,9.76-4.83,14.86-2.3-2.4-7.16-1.64-9.56,.68-2.4,2.33-3.01,5.58-3.52,8.64h70.88v-1.42Z" style="fill:#f5f5f5;"></path><path d="M126.78,109.11c-1.39-3.15-2.8-6.33-5.13-9.05-2.33-2.71-5.74-4.93-9.67-5.34-3.92-.41-8.27,1.39-9.55,4.57-.56-7.16-1.76-14.51-5.98-20.73-4.22-6.22-12.09-11.1-20.53-10.67-7.95,.41-14.76,5.43-18.54,11.39-3.78,5.96-5.08,12.79-6.32,19.47-3.01-3.14-9.38-2.15-12.53,.89-3.15,3.05-3.94,7.31-4.61,11.32H126.78v-1.86Z" style="fill:#f5f5f5;"></path><path d="M205.5,60.98c-.79-1.78-1.59-3.59-2.91-5.13-1.32-1.54-3.26-2.8-5.49-3.03s-4.69,.79-5.42,2.59c-.32-4.06-1-8.23-3.39-11.76-2.39-3.53-6.86-6.3-11.65-6.05-4.51,.23-8.38,3.08-10.52,6.46-2.15,3.38-2.88,7.26-3.59,11.05-1.71-1.78-5.32-1.22-7.11,.51-1.79,1.73-2.24,4.15-2.62,6.42h52.7v-1.06Z" style="fill:#f5f5f5;"></path><g><polyline points="17.39 488.07 17.39 316.25 80.35 316.25 80.35 488.07 17.39 488.07" style="fill:#ebebeb;"></polyline><rect x="26.29" y="325.57" width="5.81" height="6.13" style="fill:#fafafa;"></rect><rect x="34.3" y="325.57" width="5.81" height="6.13" style="fill:#e0e0e0;"></rect><rect x="42.31" y="325.57" width="5.81" height="6.13" style="fill:#fafafa;"></rect><rect x="50.31" y="325.57" width="5.81" height="6.13" style="fill:#f5f5f5;"></rect><rect x="58.32" y="325.57" width="5.81" height="6.13" style="fill:#fafafa;"></rect><rect x="66.33" y="325.57" width="5.81" height="6.13" style="fill:#fafafa;"></rect><rect x="26.29" y="335.97" width="5.81" height="6.13" style="fill:#fafafa;"></rect><rect x="34.3" y="335.97" width="5.81" height="6.13" style="fill:#f5f5f5;"></rect><rect x="42.31" y="335.97" width="5.81" height="6.13" style="fill:#fafafa;"></rect><rect x="50.31" y="335.97" width="5.81" height="6.13" style="fill:#e0e0e0;"></rect><rect x="58.32" y="335.97" width="5.81" height="6.13" style="fill:#fafafa;"></rect><rect x="66.33" y="335.97" width="5.81" height="6.13" style="fill:#fafafa;"></rect><rect x="26.29" y="346.38" width="5.81" height="6.13" style="fill:#fafafa;"></rect><rect x="34.3" y="346.38" width="5.81" height="6.13" style="fill:#fafafa;"></rect><rect x="42.31" y="346.38" width="5.81" height="6.13" style="fill:#fafafa;"></rect><rect x="50.31" y="346.38" width="5.81" height="6.13" style="fill:#fafafa;"></rect><rect x="58.32" y="346.38" width="5.81" height="6.13" style="fill:#f5f5f5;"></rect><rect x="66.33" y="346.38" width="5.81" height="6.13" style="fill:#fafafa;"></rect><rect x="26.29" y="356.78" width="5.81" height="6.13" style="fill:#fafafa;"></rect><rect x="34.3" y="356.78" width="5.81" height="6.13" style="fill:#e0e0e0;"></rect><rect x="42.31" y="356.78" width="5.81" height="6.13" style="fill:#f5f5f5;"></rect><rect x="50.31" y="356.78" width="5.81" height="6.13" style="fill:#fafafa;"></rect><rect x="58.32" y="356.78" width="5.81" height="6.13" style="fill:#e0e0e0;"></rect><rect x="66.33" y="356.78" width="5.81" height="6.13" style="fill:#fafafa;"></rect><rect x="26.29" y="367.18" width="5.81" height="6.13" style="fill:#fafafa;"></rect><rect x="34.3" y="367.18" width="5.81" height="6.13" style="fill:#fafafa;"></rect><rect x="42.31" y="367.18" width="5.81" height="6.13" style="fill:#e0e0e0;"></rect><rect x="50.31" y="367.18" width="5.81" height="6.13" style="fill:#fafafa;"></rect><rect x="58.32" y="367.18" width="5.81" height="6.13" style="fill:#fafafa;"></rect><rect x="66.33" y="367.18" width="5.81" height="6.13" style="fill:#fafafa;"></rect><rect x="26.29" y="377.59" width="5.81" height="6.13" style="fill:#f5f5f5;"></rect><rect x="34.3" y="377.59" width="5.81" height="6.13" style="fill:#fafafa;"></rect><rect x="42.31" y="377.59" width="5.81" height="6.13" style="fill:#fafafa;"></rect><rect x="50.31" y="377.59" width="5.81" height="6.13" style="fill:#fafafa;"></rect><rect x="58.32" y="377.59" width="5.81" height="6.13" style="fill:#fafafa;"></rect><rect x="66.33" y="377.59" width="5.81" height="6.13" style="fill:#f5f5f5;"></rect><rect x="26.29" y="387.99" width="5.81" height="6.13" style="fill:#fafafa;"></rect><rect x="34.3" y="387.99" width="5.81" height="6.13" style="fill:#fafafa;"></rect><rect x="42.31" y="387.99" width="5.81" height="6.13" style="fill:#fafafa;"></rect><rect x="50.31" y="387.99" width="5.81" height="6.13" style="fill:#e0e0e0;"></rect><rect x="58.32" y="387.99" width="5.81" height="6.13" style="fill:#fafafa;"></rect><rect x="66.33" y="387.99" width="5.81" height="6.13" style="fill:#fafafa;"></rect><rect x="26.29" y="398.39" width="5.81" height="6.13" style="fill:#fafafa;"></rect><rect x="34.3" y="398.39" width="5.81" height="6.13" style="fill:#e0e0e0;"></rect><rect x="42.31" y="398.39" width="5.81" height="6.13" style="fill:#fafafa;"></rect><rect x="50.31" y="398.39" width="5.81" height="6.13" style="fill:#f5f5f5;"></rect><rect x="58.32" y="398.39" width="5.81" height="6.13" style="fill:#e0e0e0;"></rect><rect x="66.33" y="398.39" width="5.81" height="6.13" style="fill:#fafafa;"></rect><rect x="26.29" y="408.8" width="5.81" height="6.13" style="fill:#fafafa;"></rect><rect x="34.3" y="408.8" width="5.81" height="6.13" style="fill:#f5f5f5;"></rect><rect x="42.31" y="408.8" width="5.81" height="6.13" style="fill:#fafafa;"></rect><rect x="50.31" y="408.8" width="5.81" height="6.13" style="fill:#e0e0e0;"></rect><rect x="58.32" y="408.8" width="5.81" height="6.13" style="fill:#f5f5f5;"></rect><rect x="66.33" y="408.8" width="5.81" height="6.13" style="fill:#fafafa;"></rect><rect x="26.29" y="419.2" width="5.81" height="6.13" style="fill:#fafafa;"></rect><rect x="34.3" y="419.2" width="5.81" height="6.13" style="fill:#fafafa;"></rect><rect x="42.31" y="419.2" width="5.81" height="6.13" style="fill:#fafafa;"></rect><rect x="50.31" y="419.2" width="5.81" height="6.13" style="fill:#fafafa;"></rect><rect x="58.32" y="419.2" width="5.81" height="6.13" style="fill:#fafafa;"></rect><rect x="66.33" y="419.2" width="5.81" height="6.13" style="fill:#fafafa;"></rect><rect x="26.29" y="429.61" width="5.81" height="6.13" style="fill:#fafafa;"></rect><rect x="34.3" y="429.61" width="5.81" height="6.13" style="fill:#e0e0e0;"></rect><rect x="42.31" y="429.61" width="5.81" height="6.13" style="fill:#f5f5f5;"></rect><rect x="50.31" y="429.61" width="5.81" height="6.13" style="fill:#e0e0e0;"></rect><rect x="58.32" y="429.61" width="5.81" height="6.13" style="fill:#f5f5f5;"></rect><rect x="66.33" y="429.61" width="5.81" height="6.13" style="fill:#fafafa;"></rect><rect x="26.29" y="440.01" width="5.81" height="6.13" style="fill:#fafafa;"></rect><rect x="34.3" y="440.01" width="5.81" height="6.13" style="fill:#fafafa;"></rect><rect x="42.31" y="440.01" width="5.81" height="6.13" style="fill:#f5f5f5;"></rect><rect x="50.31" y="440.01" width="5.81" height="6.13" style="fill:#fafafa;"></rect><rect x="58.32" y="440.01" width="5.81" height="6.13" style="fill:#fafafa;"></rect><rect x="66.33" y="440.01" width="5.81" height="6.13" style="fill:#ebebeb;"></rect><rect x="26.29" y="450.41" width="5.81" height="6.13" style="fill:#e0e0e0;"></rect><rect x="34.3" y="450.41" width="5.81" height="6.13" style="fill:#f5f5f5;"></rect><rect x="42.31" y="450.41" width="5.81" height="6.13" style="fill:#fafafa;"></rect><rect x="50.31" y="450.41" width="5.81" height="6.13" style="fill:#e0e0e0;"></rect><rect x="58.32" y="450.41" width="5.81" height="6.13" style="fill:#fafafa;"></rect><rect x="66.33" y="450.41" width="5.81" height="6.13" style="fill:#fafafa;"></rect><rect x="26.29" y="460.82" width="5.81" height="6.13" style="fill:#fafafa;"></rect><rect x="34.3" y="460.82" width="5.81" height="6.13" style="fill:#e0e0e0;"></rect><rect x="42.31" y="460.82" width="5.81" height="6.13" style="fill:#fafafa;"></rect><rect x="50.31" y="460.82" width="5.81" height="6.13" style="fill:#fafafa;"></rect><rect x="58.32" y="460.82" width="5.81" height="6.13" style="fill:#f5f5f5;"></rect><rect x="66.33" y="460.82" width="5.81" height="6.13" style="fill:#fafafa;"></rect><rect x="26.29" y="471.22" width="5.81" height="6.13" style="fill:#fafafa;"></rect><rect x="34.3" y="471.22" width="5.81" height="6.13" style="fill:#f5f5f5;"></rect><rect x="42.31" y="471.22" width="5.81" height="6.13" style="fill:#e0e0e0;"></rect><rect x="50.31" y="471.22" width="5.81" height="6.13" style="fill:#fafafa;"></rect><rect x="58.32" y="471.22" width="5.81" height="6.13" style="fill:#e0e0e0;"></rect><rect x="66.33" y="471.22" width="5.81" height="6.13" style="fill:#fafafa;"></rect></g><g><g><polyline points="121.6 488.07 121.6 262.47 204.26 262.47 204.26 488.07 121.6 488.07" style="fill:#ebebeb;"></polyline><rect x="133.29" y="274.7" width="7.63" height="8.05" style="fill:#fafafa;"></rect><rect x="143.8" y="274.7" width="7.63" height="8.05" style="fill:#e0e0e0;"></rect><rect x="154.31" y="274.7" width="7.63" height="8.05" style="fill:#fafafa;"></rect><rect x="164.83" y="274.7" width="7.63" height="8.05" style="fill:#f5f5f5;"></rect><rect x="175.34" y="274.7" width="7.63" height="8.05" style="fill:#fafafa;"></rect><rect x="185.85" y="274.7" width="7.63" height="8.05" style="fill:#fafafa;"></rect><rect x="133.29" y="288.36" width="7.63" height="8.05" style="fill:#fafafa;"></rect><rect x="143.8" y="288.36" width="7.63" height="8.05" style="fill:#f5f5f5;"></rect><rect x="154.31" y="288.36" width="7.63" height="8.05" style="fill:#fafafa;"></rect><rect x="164.83" y="288.36" width="7.63" height="8.05" style="fill:#e0e0e0;"></rect><rect x="175.34" y="288.36" width="7.63" height="8.05" style="fill:#fafafa;"></rect><rect x="185.85" y="288.36" width="7.63" height="8.05" style="fill:#fafafa;"></rect><rect x="133.29" y="302.02" width="7.63" height="8.05" style="fill:#fafafa;"></rect><rect x="143.8" y="302.02" width="7.63" height="8.05" style="fill:#fafafa;"></rect><rect x="154.31" y="302.02" width="7.63" height="8.05" style="fill:#fafafa;"></rect><rect x="164.83" y="302.02" width="7.63" height="8.05" style="fill:#fafafa;"></rect><rect x="175.34" y="302.02" width="7.63" height="8.05" style="fill:#f5f5f5;"></rect><rect x="185.85" y="302.02" width="7.63" height="8.05" style="fill:#fafafa;"></rect><rect x="133.29" y="315.68" width="7.63" height="8.05" style="fill:#fafafa;"></rect><rect x="143.8" y="315.68" width="7.63" height="8.05" style="fill:#e0e0e0;"></rect><rect x="154.31" y="315.68" width="7.63" height="8.05" style="fill:#f5f5f5;"></rect><rect x="164.83" y="315.68" width="7.63" height="8.05" style="fill:#fafafa;"></rect><rect x="175.34" y="315.68" width="7.63" height="8.05" style="fill:#e0e0e0;"></rect><rect x="185.85" y="315.68" width="7.63" height="8.05" style="fill:#fafafa;"></rect><rect x="133.29" y="329.34" width="7.63" height="8.05" style="fill:#fafafa;"></rect><rect x="143.8" y="329.34" width="7.63" height="8.05" style="fill:#fafafa;"></rect><rect x="154.31" y="329.34" width="7.63" height="8.05" style="fill:#e0e0e0;"></rect><rect x="164.83" y="329.34" width="7.63" height="8.05" style="fill:#fafafa;"></rect><rect x="175.34" y="329.34" width="7.63" height="8.05" style="fill:#fafafa;"></rect><rect x="185.85" y="329.34" width="7.63" height="8.05" style="fill:#fafafa;"></rect><rect x="133.29" y="343" width="7.63" height="8.05" style="fill:#f5f5f5;"></rect><rect x="143.8" y="343" width="7.63" height="8.05" style="fill:#fafafa;"></rect><rect x="154.31" y="343" width="7.63" height="8.05" style="fill:#fafafa;"></rect><rect x="164.83" y="343" width="7.63" height="8.05" style="fill:#fafafa;"></rect><rect x="175.34" y="343" width="7.63" height="8.05" style="fill:#fafafa;"></rect><rect x="185.85" y="343" width="7.63" height="8.05" style="fill:#f5f5f5;"></rect><rect x="133.29" y="356.66" width="7.63" height="8.05" style="fill:#fafafa;"></rect><rect x="143.8" y="356.66" width="7.63" height="8.05" style="fill:#fafafa;"></rect><rect x="154.31" y="356.66" width="7.63" height="8.05" style="fill:#fafafa;"></rect><rect x="164.83" y="356.66" width="7.63" height="8.05" style="fill:#e0e0e0;"></rect><rect x="175.34" y="356.66" width="7.63" height="8.05" style="fill:#fafafa;"></rect><rect x="185.85" y="356.66" width="7.63" height="8.05" style="fill:#fafafa;"></rect><rect x="133.29" y="370.32" width="7.63" height="8.05" style="fill:#fafafa;"></rect><rect x="143.8" y="370.32" width="7.63" height="8.05" style="fill:#e0e0e0;"></rect><rect x="154.31" y="370.32" width="7.63" height="8.05" style="fill:#fafafa;"></rect><rect x="164.83" y="370.32" width="7.63" height="8.05" style="fill:#f5f5f5;"></rect><rect x="175.34" y="370.32" width="7.63" height="8.05" style="fill:#e0e0e0;"></rect><rect x="185.85" y="370.32" width="7.63" height="8.05" style="fill:#fafafa;"></rect><rect x="133.29" y="383.98" width="7.63" height="8.05" style="fill:#fafafa;"></rect><rect x="143.8" y="383.98" width="7.63" height="8.05" style="fill:#f5f5f5;"></rect><rect x="154.31" y="383.98" width="7.63" height="8.05" style="fill:#fafafa;"></rect><rect x="164.83" y="383.98" width="7.63" height="8.05" style="fill:#e0e0e0;"></rect><rect x="175.34" y="383.98" width="7.63" height="8.05" style="fill:#f5f5f5;"></rect><rect x="185.85" y="383.98" width="7.63" height="8.05" style="fill:#fafafa;"></rect><rect x="133.29" y="397.65" width="7.63" height="8.05" style="fill:#fafafa;"></rect><rect x="143.8" y="397.65" width="7.63" height="8.05" style="fill:#fafafa;"></rect><rect x="154.31" y="397.65" width="7.63" height="8.05" style="fill:#fafafa;"></rect><rect x="164.83" y="397.65" width="7.63" height="8.05" style="fill:#fafafa;"></rect><rect x="175.34" y="397.65" width="7.63" height="8.05" style="fill:#fafafa;"></rect><rect x="185.85" y="397.65" width="7.63" height="8.05" style="fill:#fafafa;"></rect><rect x="133.29" y="411.31" width="7.63" height="8.05" style="fill:#fafafa;"></rect><rect x="143.8" y="411.31" width="7.63" height="8.05" style="fill:#e0e0e0;"></rect><rect x="154.31" y="411.31" width="7.63" height="8.05" style="fill:#f5f5f5;"></rect><rect x="164.83" y="411.31" width="7.63" height="8.05" style="fill:#e0e0e0;"></rect><rect x="175.34" y="411.31" width="7.63" height="8.05" style="fill:#f5f5f5;"></rect><rect x="185.85" y="411.31" width="7.63" height="8.05" style="fill:#fafafa;"></rect><rect x="133.29" y="424.97" width="7.63" height="8.05" style="fill:#fafafa;"></rect><rect x="143.8" y="424.97" width="7.63" height="8.05" style="fill:#fafafa;"></rect><rect x="154.31" y="424.97" width="7.63" height="8.05" style="fill:#f5f5f5;"></rect><rect x="164.83" y="424.97" width="7.63" height="8.05" style="fill:#fafafa;"></rect><rect x="175.34" y="424.97" width="7.63" height="8.05" style="fill:#fafafa;"></rect><rect x="185.85" y="424.97" width="7.63" height="8.05" style="fill:#ebebeb;"></rect><rect x="133.29" y="438.63" width="7.63" height="8.05" style="fill:#e0e0e0;"></rect><rect x="143.8" y="438.63" width="7.63" height="8.05" style="fill:#f5f5f5;"></rect><rect x="154.31" y="438.63" width="7.63" height="8.05" style="fill:#fafafa;"></rect><rect x="164.83" y="438.63" width="7.63" height="8.05" style="fill:#e0e0e0;"></rect><rect x="175.34" y="438.63" width="7.63" height="8.05" style="fill:#fafafa;"></rect><rect x="185.85" y="438.63" width="7.63" height="8.05" style="fill:#fafafa;"></rect><rect x="133.29" y="452.29" width="7.63" height="8.05" style="fill:#fafafa;"></rect><rect x="143.8" y="452.29" width="7.63" height="8.05" style="fill:#e0e0e0;"></rect><rect x="154.31" y="452.29" width="7.63" height="8.05" style="fill:#fafafa;"></rect><rect x="164.83" y="452.29" width="7.63" height="8.05" style="fill:#fafafa;"></rect><rect x="175.34" y="452.29" width="7.63" height="8.05" style="fill:#f5f5f5;"></rect><rect x="185.85" y="452.29" width="7.63" height="8.05" style="fill:#fafafa;"></rect><rect x="133.29" y="465.95" width="7.63" height="8.05" style="fill:#fafafa;"></rect><rect x="143.8" y="465.95" width="7.63" height="8.05" style="fill:#f5f5f5;"></rect><rect x="154.31" y="465.95" width="7.63" height="8.05" style="fill:#e0e0e0;"></rect><rect x="164.83" y="465.95" width="7.63" height="8.05" style="fill:#fafafa;"></rect><rect x="175.34" y="465.95" width="7.63" height="8.05" style="fill:#e0e0e0;"></rect><rect x="185.85" y="465.95" width="7.63" height="8.05" style="fill:#fafafa;"></rect></g><rect x="105.48" y="262.47" width="16.11" height="225.6" style="fill:#e0e0e0;"></rect></g><g><g><polyline points="390.14 488.07 390.14 262.47 472.8 262.47 472.8 488.07 390.14 488.07" style="fill:#ebebeb;"></polyline><rect x="401.83" y="274.7" width="7.63" height="8.05" style="fill:#fafafa;"></rect><rect x="412.34" y="274.7" width="7.63" height="8.05" style="fill:#e0e0e0;"></rect><rect x="422.86" y="274.7" width="7.63" height="8.05" style="fill:#fafafa;"></rect><rect x="433.37" y="274.7" width="7.63" height="8.05" style="fill:#f5f5f5;"></rect><rect x="443.88" y="274.7" width="7.63" height="8.05" style="fill:#fafafa;"></rect><rect x="454.4" y="274.7" width="7.63" height="8.05" style="fill:#fafafa;"></rect><rect x="401.83" y="288.36" width="7.63" height="8.05" style="fill:#fafafa;"></rect><rect x="412.34" y="288.36" width="7.63" height="8.05" style="fill:#f5f5f5;"></rect><rect x="422.86" y="288.36" width="7.63" height="8.05" style="fill:#fafafa;"></rect><rect x="433.37" y="288.36" width="7.63" height="8.05" style="fill:#e0e0e0;"></rect><rect x="443.88" y="288.36" width="7.63" height="8.05" style="fill:#fafafa;"></rect><rect x="454.4" y="288.36" width="7.63" height="8.05" style="fill:#fafafa;"></rect><rect x="401.83" y="302.02" width="7.63" height="8.05" style="fill:#fafafa;"></rect><rect x="412.34" y="302.02" width="7.63" height="8.05" style="fill:#fafafa;"></rect><rect x="422.86" y="302.02" width="7.63" height="8.05" style="fill:#fafafa;"></rect><rect x="433.37" y="302.02" width="7.63" height="8.05" style="fill:#fafafa;"></rect><rect x="443.88" y="302.02" width="7.63" height="8.05" style="fill:#f5f5f5;"></rect><rect x="454.4" y="302.02" width="7.63" height="8.05" style="fill:#fafafa;"></rect><rect x="401.83" y="315.68" width="7.63" height="8.05" style="fill:#fafafa;"></rect><rect x="412.34" y="315.68" width="7.63" height="8.05" style="fill:#e0e0e0;"></rect><rect x="422.86" y="315.68" width="7.63" height="8.05" style="fill:#f5f5f5;"></rect><rect x="433.37" y="315.68" width="7.63" height="8.05" style="fill:#fafafa;"></rect><rect x="443.88" y="315.68" width="7.63" height="8.05" style="fill:#e0e0e0;"></rect><rect x="454.4" y="315.68" width="7.63" height="8.05" style="fill:#fafafa;"></rect><rect x="401.83" y="329.34" width="7.63" height="8.05" style="fill:#fafafa;"></rect><rect x="412.34" y="329.34" width="7.63" height="8.05" style="fill:#fafafa;"></rect><rect x="422.86" y="329.34" width="7.63" height="8.05" style="fill:#e0e0e0;"></rect><rect x="433.37" y="329.34" width="7.63" height="8.05" style="fill:#fafafa;"></rect><rect x="443.88" y="329.34" width="7.63" height="8.05" style="fill:#fafafa;"></rect><rect x="454.4" y="329.34" width="7.63" height="8.05" style="fill:#fafafa;"></rect><rect x="401.83" y="343" width="7.63" height="8.05" style="fill:#f5f5f5;"></rect><rect x="412.34" y="343" width="7.63" height="8.05" style="fill:#fafafa;"></rect><rect x="422.86" y="343" width="7.63" height="8.05" style="fill:#fafafa;"></rect><rect x="433.37" y="343" width="7.63" height="8.05" style="fill:#fafafa;"></rect><rect x="443.88" y="343" width="7.63" height="8.05" style="fill:#fafafa;"></rect><rect x="454.4" y="343" width="7.63" height="8.05" style="fill:#f5f5f5;"></rect><rect x="401.83" y="356.66" width="7.63" height="8.05" style="fill:#fafafa;"></rect><rect x="412.34" y="356.66" width="7.63" height="8.05" style="fill:#fafafa;"></rect><rect x="422.86" y="356.66" width="7.63" height="8.05" style="fill:#fafafa;"></rect><rect x="433.37" y="356.66" width="7.63" height="8.05" style="fill:#e0e0e0;"></rect><rect x="443.88" y="356.66" width="7.63" height="8.05" style="fill:#fafafa;"></rect><rect x="454.4" y="356.66" width="7.63" height="8.05" style="fill:#fafafa;"></rect><rect x="401.83" y="370.32" width="7.63" height="8.05" style="fill:#fafafa;"></rect><rect x="412.34" y="370.32" width="7.63" height="8.05" style="fill:#e0e0e0;"></rect><rect x="422.86" y="370.32" width="7.63" height="8.05" style="fill:#fafafa;"></rect><rect x="433.37" y="370.32" width="7.63" height="8.05" style="fill:#f5f5f5;"></rect><rect x="443.88" y="370.32" width="7.63" height="8.05" style="fill:#e0e0e0;"></rect><rect x="454.4" y="370.32" width="7.63" height="8.05" style="fill:#fafafa;"></rect><rect x="401.83" y="383.98" width="7.63" height="8.05" style="fill:#fafafa;"></rect><rect x="412.34" y="383.98" width="7.63" height="8.05" style="fill:#f5f5f5;"></rect><rect x="422.86" y="383.98" width="7.63" height="8.05" style="fill:#fafafa;"></rect><rect x="433.37" y="383.98" width="7.63" height="8.05" style="fill:#e0e0e0;"></rect><rect x="443.88" y="383.98" width="7.63" height="8.05" style="fill:#f5f5f5;"></rect><rect x="454.4" y="383.98" width="7.63" height="8.05" style="fill:#fafafa;"></rect><rect x="401.83" y="397.65" width="7.63" height="8.05" style="fill:#fafafa;"></rect><rect x="412.34" y="397.65" width="7.63" height="8.05" style="fill:#fafafa;"></rect><rect x="422.86" y="397.65" width="7.63" height="8.05" style="fill:#fafafa;"></rect><rect x="433.37" y="397.65" width="7.63" height="8.05" style="fill:#fafafa;"></rect><rect x="443.88" y="397.65" width="7.63" height="8.05" style="fill:#fafafa;"></rect><rect x="454.4" y="397.65" width="7.63" height="8.05" style="fill:#fafafa;"></rect><rect x="401.83" y="411.31" width="7.63" height="8.05" style="fill:#fafafa;"></rect><rect x="412.34" y="411.31" width="7.63" height="8.05" style="fill:#e0e0e0;"></rect><rect x="422.86" y="411.31" width="7.63" height="8.05" style="fill:#f5f5f5;"></rect><rect x="433.37" y="411.31" width="7.63" height="8.05" style="fill:#e0e0e0;"></rect><rect x="443.88" y="411.31" width="7.63" height="8.05" style="fill:#f5f5f5;"></rect><rect x="454.4" y="411.31" width="7.63" height="8.05" style="fill:#fafafa;"></rect><rect x="401.83" y="424.97" width="7.63" height="8.05" style="fill:#fafafa;"></rect><rect x="412.34" y="424.97" width="7.63" height="8.05" style="fill:#fafafa;"></rect><rect x="422.86" y="424.97" width="7.63" height="8.05" style="fill:#f5f5f5;"></rect><rect x="433.37" y="424.97" width="7.63" height="8.05" style="fill:#fafafa;"></rect><rect x="443.88" y="424.97" width="7.63" height="8.05" style="fill:#fafafa;"></rect><rect x="454.4" y="424.97" width="7.63" height="8.05" style="fill:#ebebeb;"></rect><rect x="401.83" y="438.63" width="7.63" height="8.05" style="fill:#e0e0e0;"></rect><rect x="412.34" y="438.63" width="7.63" height="8.05" style="fill:#f5f5f5;"></rect><rect x="422.86" y="438.63" width="7.63" height="8.05" style="fill:#fafafa;"></rect><rect x="433.37" y="438.63" width="7.63" height="8.05" style="fill:#e0e0e0;"></rect><rect x="443.88" y="438.63" width="7.63" height="8.05" style="fill:#fafafa;"></rect><rect x="454.4" y="438.63" width="7.63" height="8.05" style="fill:#fafafa;"></rect><rect x="401.83" y="452.29" width="7.63" height="8.05" style="fill:#fafafa;"></rect><rect x="412.34" y="452.29" width="7.63" height="8.05" style="fill:#e0e0e0;"></rect><rect x="422.86" y="452.29" width="7.63" height="8.05" style="fill:#fafafa;"></rect><rect x="433.37" y="452.29" width="7.63" height="8.05" style="fill:#fafafa;"></rect><rect x="443.88" y="452.29" width="7.63" height="8.05" style="fill:#f5f5f5;"></rect><rect x="454.4" y="452.29" width="7.63" height="8.05" style="fill:#fafafa;"></rect><rect x="401.83" y="465.95" width="7.63" height="8.05" style="fill:#fafafa;"></rect><rect x="412.34" y="465.95" width="7.63" height="8.05" style="fill:#f5f5f5;"></rect><rect x="422.86" y="465.95" width="7.63" height="8.05" style="fill:#e0e0e0;"></rect><rect x="433.37" y="465.95" width="7.63" height="8.05" style="fill:#fafafa;"></rect><rect x="443.88" y="465.95" width="7.63" height="8.05" style="fill:#e0e0e0;"></rect><rect x="454.4" y="465.95" width="7.63" height="8.05" style="fill:#fafafa;"></rect></g><rect x="374.02" y="262.47" width="16.11" height="225.6" style="fill:#e0e0e0;"></rect></g></g><g id="background-simple"><path d="M145.55,63.48l1-2.31c8.42-19.45,26.62-32.97,47.57-34.52,2.69-.2,5.4-.2,8.1,0,19.43,1.44,37.82,13.46,47.14,30.8,5.48,10.2,8.31,22.43,17.08,29.91,11.42,9.75,28.25,7.78,42.95,5.29,14.7-2.49,31.55-4.41,42.92,5.39,7.12,6.14,10.45,15.8,11.24,25.22,2.09,24.94-12.12,49.45-32.54,63.48-20.43,14.02-46.13,18.56-70.8,17.03-34.57-2.15-69.13-16.37-92.31-42.49-23.19-26.12-33.45-64.64-22.33-97.8Z" style="fill:#f5f5f5;"></path><circle cx="78.36" cy="147.8" r="19.92" transform="translate(-81.56 98.7) rotate(-45)" style="fill:#f5f5f5;"></circle></g><g id="Floor"><path d="M15.49,488.07c0-.09,105-.16,234.5-.16s234.52,.07,234.52,.16-104.98,.16-234.52,.16-234.5-.07-234.5-.16Z" style="fill:#263238;"></path></g><g id="Birds"><g><path d="M127.19,110.59s-.63-.22-1.78-.47c-1.15-.25-2.88-.48-4.98-.19-2.08,.28-4.55,1.12-6.71,2.89-2.16,1.75-4,4.39-4.74,7.52l-.02,.08-.14,.54-.21-.51c-1.21-2.98-3.35-5.34-5.67-6.85-2.33-1.53-4.84-2.17-6.93-2.31-2.1-.15-3.81,.16-4.95,.45-1.14,.3-1.75,.57-1.76,.53,0-.01,.14-.08,.43-.21,.29-.13,.72-.29,1.29-.46,1.14-.34,2.86-.69,5-.57,2.13,.11,4.7,.73,7.09,2.28,2.39,1.52,4.59,3.94,5.83,6.99l-.34,.03,.02-.09c.76-3.22,2.66-5.92,4.88-7.7,2.23-1.81,4.76-2.64,6.89-2.89,2.14-.26,3.89,.01,5.05,.31,.58,.15,1.02,.3,1.31,.42,.29,.12,.44,.18,.44,.19Z" style="fill:#263238;"></path><path d="M160.17,121.58s-.35-.1-.99-.23c-.63-.13-1.58-.24-2.72-.08-1.14,.16-2.48,.62-3.65,1.59-1.17,.95-2.17,2.39-2.57,4.1v.05l-.15,.54-.21-.51c-.66-1.62-1.82-2.91-3.08-3.73-1.27-.84-2.63-1.19-3.77-1.28-1.15-.09-2.08,.07-2.71,.22-.63,.16-.96,.29-.98,.26,0-.01,.07-.06,.23-.13,.16-.07,.39-.17,.71-.27,.62-.2,1.58-.4,2.76-.34,1.18,.05,2.61,.39,3.94,1.25,1.33,.84,2.55,2.18,3.24,3.88l-.34,.03v-.05c.43-1.79,1.49-3.29,2.73-4.27,1.24-1,2.65-1.46,3.83-1.59,1.19-.14,2.15,.02,2.79,.2,.32,.09,.56,.17,.72,.24,.16,.07,.24,.11,.24,.12Z" style="fill:#263238;"></path><path d="M141.81,66.16s-.34,.39-.96,1.09c-.62,.69-1.46,1.75-2.34,3.15-1.77,2.78-3.53,7.2-3.47,12.28v.15l-.36,.03c-.38-2.48-1.2-4.75-2.24-6.65-1.04-1.91-2.26-3.45-3.42-4.62-1.15-1.17-2.21-1.99-2.96-2.51-.76-.52-1.19-.79-1.18-.81,0-.01,.12,.04,.34,.16,.21,.12,.54,.28,.92,.54,.79,.49,1.87,1.29,3.07,2.45,1.19,1.16,2.46,2.71,3.53,4.64,1.08,1.92,1.93,4.23,2.31,6.76l-.36,.03v-.16c-.06-5.17,1.78-9.65,3.62-12.42,.92-1.4,1.8-2.44,2.45-3.11,.32-.35,.6-.58,.77-.75,.18-.17,.28-.25,.29-.24Z" style="fill:#263238;"></path></g></g><g id="Sun"><g><g><circle cx="415.54" cy="76.08" r="31.38" style="fill:#FF725E;"></circle><g style="opacity:.9;"><circle cx="415.54" cy="76.08" r="31.38" style="fill:#fff;"></circle></g></g><g><circle cx="415.54" cy="76.08" r="27.99" transform="translate(221.49 451.32) rotate(-73.03)" style="fill:#FF725E;"></circle><g style="opacity:.6;"><circle cx="415.54" cy="76.08" r="27.99" transform="translate(221.49 451.32) rotate(-73.03)" style="fill:#fff;"></circle></g></g><g><circle cx="415.54" cy="76.08" r="23.29" style="fill:#FF725E;"></circle><g style="opacity:.3;"><circle cx="415.54" cy="76.08" r="23.29" style="fill:#fff;"></circle></g></g><path d="M434.19,76.08c0,10.3-8.35,18.65-18.65,18.65s-18.65-8.35-18.65-18.65,8.35-18.65,18.65-18.65,18.65,8.35,18.65,18.65Z" style="fill:#FF725E; fill-rule:evenodd;"></path></g></g><g id="Buildings"><g><g><rect x="59.43" y="198.56" width="18.78" height="289.51" style="fill:#FF725E;"></rect><g style="opacity:.4;"><rect x="59.43" y="198.56" width="18.78" height="289.51"></rect></g><rect x="43.74" y="216.71" width="14.7" height="17.88" style="fill:#FF725E;"></rect><g style="opacity:.4;"><rect x="43.74" y="216.71" width="14.7" height="17.88"></rect></g><rect x="76.59" y="198.56" width="82.68" height="18.24" style="fill:#FF725E;"></rect><rect x="55.69" y="216.71" width="90.38" height="17.88" style="fill:#FF725E;"></rect><rect x="76.59" y="233.96" width="83.16" height="254.12" style="fill:#FF725E;"></rect><g style="opacity:.2;"><rect x="55.69" y="216.71" width="90.38" height="17.88" style="fill:#fff;"></rect></g></g><g style="opacity:.2;"><polygon points="76.59 315.36 95.05 315.36 95.05 350.85 118.17 350.85 118.17 259.19 159.27 259.19 159.27 233.94 146.07 233.94 146.07 216.7 159.27 216.7 159.27 198.55 76.59 198.55 76.59 216.78 55.69 216.78 55.69 234.58 76.59 234.58 76.59 315.36" style="fill:#fff;"></polygon></g><path d="M157.97,216.8c0,.14-18.53,.26-41.39,.26s-41.39-.12-41.39-.26,18.53-.26,41.39-.26,41.39,.12,41.39,.26Z" style="fill:#263238;"></path><path d="M157.97,234.59c0,.14-18.53,.26-41.39,.26s-41.39-.12-41.39-.26,18.53-.26,41.39-.26,41.39,.12,41.39,.26Z" style="fill:#263238;"></path><path d="M157.97,252.05c0,.14-18.53,.26-41.39,.26s-41.39-.12-41.39-.26,18.53-.26,41.39-.26,41.39,.12,41.39,.26Z" style="fill:#263238;"></path><path d="M157.97,269.51c0,.14-18.53,.26-41.39,.26s-41.39-.12-41.39-.26,18.53-.26,41.39-.26,41.39,.12,41.39,.26Z" style="fill:#263238;"></path><path d="M157.97,286.96c0,.14-18.53,.26-41.39,.26s-41.39-.12-41.39-.26,18.53-.26,41.39-.26,41.39,.12,41.39,.26Z" style="fill:#263238;"></path><path d="M157.97,304.42c0,.14-18.53,.26-41.39,.26s-41.39-.12-41.39-.26,18.53-.26,41.39-.26,41.39,.12,41.39,.26Z" style="fill:#263238;"></path><path d="M157.97,321.88c0,.14-18.53,.26-41.39,.26s-41.39-.12-41.39-.26,18.53-.26,41.39-.26,41.39,.12,41.39,.26Z" style="fill:#263238;"></path><path d="M157.97,339.33c0,.14-18.53,.26-41.39,.26s-41.39-.12-41.39-.26,18.53-.26,41.39-.26,41.39,.12,41.39,.26Z" style="fill:#263238;"></path><path d="M157.97,356.79c0,.14-18.53,.26-41.39,.26s-41.39-.12-41.39-.26,18.53-.26,41.39-.26,41.39,.12,41.39,.26Z" style="fill:#263238;"></path><path d="M157.97,374.25c0,.14-18.53,.26-41.39,.26s-41.39-.12-41.39-.26,18.53-.26,41.39-.26,41.39,.12,41.39,.26Z" style="fill:#263238;"></path><path d="M157.97,391.7c0,.14-18.53,.26-41.39,.26s-41.39-.12-41.39-.26,18.53-.26,41.39-.26,41.39,.12,41.39,.26Z" style="fill:#263238;"></path><path d="M157.97,409.16c0,.14-18.53,.26-41.39,.26s-41.39-.12-41.39-.26,18.53-.26,41.39-.26,41.39,.12,41.39,.26Z" style="fill:#263238;"></path><path d="M157.97,426.61c0,.14-18.53,.26-41.39,.26s-41.39-.12-41.39-.26,18.53-.26,41.39-.26,41.39,.12,41.39,.26Z" style="fill:#263238;"></path><path d="M157.97,444.07c0,.14-18.53,.26-41.39,.26s-41.39-.12-41.39-.26,18.53-.26,41.39-.26,41.39,.12,41.39,.26Z" style="fill:#263238;"></path><path d="M157.97,459.88c0,.14-18.53,.26-41.39,.26s-41.39-.12-41.39-.26,18.53-.26,41.39-.26,41.39,.12,41.39,.26Z" style="fill:#263238;"></path><path d="M157.97,476.64c0,.14-18.53,.26-41.39,.26s-41.39-.12-41.39-.26,18.53-.26,41.39-.26,41.39,.12,41.39,.26Z" style="fill:#263238;"></path><path d="M90.67,487.67c-.14,0-.26-64.73-.26-144.55s.12-144.56,.26-144.56,.26,64.71,.26,144.56-.12,144.55-.26,144.55Z" style="fill:#263238;"></path><path d="M108.38,487.67c-.14,0-.26-64.73-.26-144.55s.12-144.56,.26-144.56,.26,64.71,.26,144.56-.12,144.55-.26,144.55Z" style="fill:#263238;"></path><path d="M126.95,487.67c-.14,0-.26-64.73-.26-144.55s.12-144.56,.26-144.56,.26,64.71,.26,144.56-.12,144.55-.26,144.55Z" style="fill:#263238;"></path><path d="M146.07,487.67c-.14,0-.26-64.73-.26-144.55s.12-144.56,.26-144.56,.26,64.71,.26,144.56-.12,144.55-.26,144.55Z" style="fill:#263238;"></path></g><g><g><path d="M373.42,125.36V488.07h-65v-229.23s26.7-120.13,28.44-120.13,36.56-13.35,36.56-13.35Z" style="fill:#e0e0e0;"></path><path d="M308.42,258.84l65-133.48-36.56,13.35c-8.58,33.72-18.29,75.39-28.44,120.13Z" style="fill:#fafafa;"></path><path d="M355.67,204.11V488.07s89.19,0,87.6,0l.4-262.96s-75.71-31.31-88-21.01Z" style="fill:#455a64;"></path><path d="M443.2,239s-.31-.02-.89-.12c-.62-.11-1.46-.25-2.52-.43-1.09-.2-2.43-.43-3.99-.66-1.56-.23-3.33-.54-5.29-.78-1.97-.26-4.12-.55-6.44-.77-2.32-.27-4.8-.45-7.41-.67-5.23-.36-10.99-.59-17.04-.56-6.05,.05-11.81,.36-17.03,.78-2.61,.25-5.09,.46-7.4,.76-2.32,.25-4.47,.57-6.43,.86-1.97,.26-3.73,.59-5.28,.84-1.56,.25-2.89,.5-3.98,.71-1.06,.19-1.89,.35-2.51,.46-.58,.1-.88,.14-.88,.13s.29-.1,.86-.23c.61-.14,1.45-.32,2.5-.56,1.08-.24,2.41-.53,3.97-.8,1.55-.28,3.31-.64,5.28-.92,1.96-.31,4.11-.65,6.43-.92,2.31-.32,4.8-.55,7.41-.81,5.23-.45,11.01-.77,17.07-.82,6.06-.02,11.84,.22,17.08,.6,2.62,.23,5.11,.42,7.42,.72,2.32,.24,4.48,.55,6.44,.84,1.97,.26,3.74,.59,5.29,.85,1.56,.25,2.89,.52,3.98,.75,1.05,.22,1.89,.4,2.5,.53,.57,.13,.87,.2,.87,.22Z" style="fill:#fff;"></path><path d="M443.2,255.22s-.31,0-.89-.03c-.62-.05-1.47-.11-2.54-.19-2.2-.19-5.38-.42-9.32-.68-7.87-.52-18.77-.99-30.81-.96-12.04,.04-22.94,.59-30.81,1.16-3.94,.28-7.12,.54-9.32,.74-1.06,.09-1.91,.16-2.53,.21-.58,.04-.89,.06-.89,.04,0-.02,.3-.07,.88-.14,.62-.08,1.46-.18,2.52-.31,2.19-.26,5.37-.58,9.31-.91,7.87-.66,18.78-1.27,30.83-1.31,12.05-.03,22.96,.5,30.84,1.11,3.94,.3,7.12,.6,9.32,.85,1.06,.12,1.9,.22,2.53,.29,.58,.07,.88,.12,.88,.14Z" style="fill:#fff;"></path><path d="M443.2,263.79s-.31,0-.89-.03c-.62-.05-1.47-.11-2.54-.19-2.2-.19-5.38-.42-9.32-.68-7.87-.52-18.77-.99-30.81-.96-12.04,.04-22.94,.59-30.81,1.16-3.94,.28-7.12,.54-9.32,.74-1.06,.09-1.91,.16-2.53,.21-.58,.04-.89,.06-.89,.04,0-.02,.3-.07,.88-.14,.62-.08,1.46-.18,2.52-.31,2.19-.26,5.37-.58,9.31-.91,7.87-.66,18.78-1.27,30.83-1.31,12.05-.03,22.96,.5,30.84,1.11,3.94,.3,7.12,.6,9.32,.85,1.06,.12,1.9,.22,2.53,.29,.58,.07,.88,.12,.88,.14Z" style="fill:#fff;"></path><path d="M443.2,272.36s-.31,0-.89-.03c-.62-.05-1.47-.11-2.54-.19-2.2-.19-5.38-.42-9.32-.68-7.87-.52-18.77-.99-30.81-.96-12.04,.04-22.94,.59-30.81,1.16-3.94,.28-7.12,.54-9.32,.74-1.06,.09-1.91,.16-2.53,.21-.58,.04-.89,.06-.89,.04,0-.02,.3-.07,.88-.14,.62-.08,1.46-.18,2.52-.31,2.19-.26,5.37-.58,9.31-.91,7.87-.66,18.78-1.27,30.83-1.31,12.05-.03,22.96,.5,30.84,1.11,3.94,.3,7.12,.6,9.32,.85,1.06,.12,1.9,.22,2.53,.29,.58,.07,.88,.12,.88,.14Z" style="fill:#fff;"></path><path d="M443.2,280.93s-.31,0-.89-.03c-.62-.05-1.47-.11-2.54-.19-2.2-.19-5.38-.42-9.32-.68-7.87-.52-18.77-.99-30.81-.96-12.04,.04-22.94,.59-30.81,1.16-3.94,.28-7.12,.54-9.32,.74-1.06,.09-1.91,.16-2.53,.21-.58,.04-.89,.06-.89,.04,0-.02,.3-.07,.88-.14,.62-.08,1.46-.18,2.52-.31,2.19-.26,5.37-.58,9.31-.91,7.87-.66,18.78-1.27,30.83-1.31,12.05-.03,22.96,.5,30.84,1.11,3.94,.3,7.12,.6,9.32,.85,1.06,.12,1.9,.22,2.53,.29,.58,.07,.88,.12,.88,.14Z" style="fill:#fff;"></path><path d="M443.2,289.5s-.31,0-.89-.03c-.62-.05-1.47-.11-2.54-.19-2.2-.19-5.38-.42-9.32-.68-7.87-.52-18.77-.99-30.81-.96-12.04,.04-22.94,.59-30.81,1.16-3.94,.28-7.12,.54-9.32,.74-1.06,.09-1.91,.16-2.53,.21-.58,.04-.89,.06-.89,.04,0-.02,.3-.07,.88-.14,.62-.08,1.46-.18,2.52-.31,2.19-.26,5.37-.58,9.31-.91,7.87-.66,18.78-1.27,30.83-1.31,12.05-.03,22.96,.5,30.84,1.11,3.94,.3,7.12,.6,9.32,.85,1.06,.12,1.9,.22,2.53,.29,.58,.07,.88,.12,.88,.14Z" style="fill:#fff;"></path><path d="M443.2,298.07s-.31,0-.89-.03c-.62-.05-1.47-.11-2.54-.19-2.2-.19-5.38-.42-9.32-.68-7.87-.52-18.77-.99-30.81-.96-12.04,.04-22.94,.59-30.81,1.16-3.94,.28-7.12,.54-9.32,.74-1.06,.09-1.91,.16-2.53,.21-.58,.04-.89,.06-.89,.04,0-.02,.3-.07,.88-.14,.62-.08,1.46-.18,2.52-.31,2.19-.26,5.37-.58,9.31-.91,7.87-.66,18.78-1.27,30.83-1.31,12.05-.03,22.96,.5,30.84,1.11,3.94,.3,7.12,.6,9.32,.85,1.06,.12,1.9,.22,2.53,.29,.58,.07,.88,.12,.88,.14Z" style="fill:#fff;"></path><path d="M443.2,306.64s-.31,0-.89-.03c-.62-.05-1.47-.11-2.54-.19-2.2-.19-5.38-.42-9.32-.68-7.87-.52-18.77-.99-30.81-.96-12.04,.04-22.94,.59-30.81,1.16-3.94,.28-7.12,.54-9.32,.74-1.06,.09-1.91,.16-2.53,.21-.58,.04-.89,.06-.89,.04,0-.02,.3-.07,.88-.14,.62-.08,1.46-.18,2.52-.31,2.19-.26,5.37-.58,9.31-.91,7.87-.66,18.78-1.27,30.83-1.31,12.05-.03,22.96,.5,30.84,1.11,3.94,.3,7.12,.6,9.32,.85,1.06,.12,1.9,.22,2.53,.29,.58,.07,.88,.12,.88,.14Z" style="fill:#fff;"></path><path d="M443.2,315.21s-.31,0-.89-.03c-.62-.05-1.47-.11-2.54-.19-2.2-.19-5.38-.42-9.32-.68-7.87-.52-18.77-.99-30.81-.96-12.04,.04-22.94,.59-30.81,1.16-3.94,.28-7.12,.54-9.32,.74-1.06,.09-1.91,.16-2.53,.21-.58,.04-.89,.06-.89,.04,0-.02,.3-.07,.88-.14,.62-.08,1.46-.18,2.52-.31,2.19-.26,5.37-.58,9.31-.91,7.87-.66,18.78-1.27,30.83-1.31,12.05-.03,22.96,.5,30.84,1.11,3.94,.3,7.12,.6,9.32,.85,1.06,.12,1.9,.22,2.53,.29,.58,.07,.88,.12,.88,.14Z" style="fill:#fff;"></path><path d="M443.2,323.78s-.31,0-.89-.03c-.62-.05-1.47-.11-2.54-.19-2.2-.19-5.38-.42-9.32-.68-7.87-.52-18.77-.99-30.81-.96-12.04,.04-22.94,.59-30.81,1.16-3.94,.28-7.12,.54-9.32,.74-1.06,.09-1.91,.16-2.53,.21-.58,.04-.89,.06-.89,.04,0-.02,.3-.07,.88-.14,.62-.08,1.46-.18,2.52-.31,2.19-.26,5.37-.58,9.31-.91,7.87-.66,18.78-1.27,30.83-1.31,12.05-.03,22.96,.5,30.84,1.11,3.94,.3,7.12,.6,9.32,.85,1.06,.12,1.9,.22,2.53,.29,.58,.07,.88,.12,.88,.14Z" style="fill:#fff;"></path><path d="M443.2,332.35s-.31,0-.89-.03c-.62-.05-1.47-.11-2.54-.19-2.2-.19-5.38-.42-9.32-.68-7.87-.52-18.77-.99-30.81-.96-12.04,.04-22.94,.59-30.81,1.16-3.94,.28-7.12,.54-9.32,.74-1.06,.09-1.91,.16-2.53,.21-.58,.04-.89,.06-.89,.04,0-.02,.3-.07,.88-.14,.62-.08,1.46-.18,2.52-.31,2.19-.26,5.37-.58,9.31-.91,7.87-.66,18.78-1.27,30.83-1.31,12.05-.03,22.96,.5,30.84,1.11,3.94,.3,7.12,.6,9.32,.85,1.06,.12,1.9,.22,2.53,.29,.58,.07,.88,.12,.88,.14Z" style="fill:#fff;"></path><path d="M443.2,340.92s-.31,0-.89-.03c-.62-.05-1.47-.11-2.54-.19-2.2-.19-5.38-.42-9.32-.68-7.87-.52-18.77-.99-30.81-.96-12.04,.04-22.94,.59-30.81,1.16-3.94,.28-7.12,.54-9.32,.74-1.06,.09-1.91,.16-2.53,.21-.58,.04-.89,.06-.89,.04,0-.02,.3-.07,.88-.14,.62-.08,1.46-.18,2.52-.31,2.19-.26,5.37-.58,9.31-.91,7.87-.66,18.78-1.27,30.83-1.31,12.05-.03,22.96,.5,30.84,1.11,3.94,.3,7.12,.6,9.32,.85,1.06,.12,1.9,.22,2.53,.29,.58,.07,.88,.12,.88,.14Z" style="fill:#fff;"></path><path d="M443.2,351.39s-.31,0-.89-.03c-.62-.05-1.47-.11-2.54-.19-2.2-.19-5.38-.42-9.32-.68-7.87-.52-18.77-.99-30.81-.96-12.04,.04-22.94,.59-30.81,1.16-3.94,.28-7.12,.54-9.32,.74-1.06,.09-1.91,.16-2.53,.21-.58,.04-.89,.06-.89,.04,0-.02,.3-.07,.88-.14,.62-.08,1.46-.18,2.52-.31,2.19-.26,5.37-.58,9.31-.91,7.87-.66,18.78-1.27,30.83-1.31,12.05-.03,22.96,.5,30.84,1.11,3.94,.3,7.12,.6,9.32,.85,1.06,.12,1.9,.22,2.53,.29,.58,.07,.88,.12,.88,.14Z" style="fill:#fff;"></path><path d="M443.2,361.86s-.31,0-.89-.03c-.62-.05-1.47-.11-2.54-.19-2.2-.19-5.38-.42-9.32-.68-7.87-.52-18.77-.99-30.81-.96-12.04,.04-22.94,.59-30.81,1.16-3.94,.28-7.12,.54-9.32,.74-1.06,.09-1.91,.16-2.53,.21-.58,.04-.89,.06-.89,.04,0-.02,.3-.07,.88-.14,.62-.08,1.46-.18,2.52-.31,2.19-.26,5.37-.58,9.31-.91,7.87-.66,18.78-1.27,30.83-1.31,12.05-.03,22.96,.5,30.84,1.11,3.94,.3,7.12,.6,9.32,.85,1.06,.12,1.9,.22,2.53,.29,.58,.07,.88,.12,.88,.14Z" style="fill:#fff;"></path><path d="M443.2,372.32s-.31,0-.89-.03c-.62-.05-1.47-.11-2.54-.19-2.2-.19-5.38-.42-9.32-.68-7.87-.52-18.77-.99-30.81-.96-12.04,.04-22.94,.59-30.81,1.16-3.94,.28-7.12,.54-9.32,.74-1.06,.09-1.91,.16-2.53,.21-.58,.04-.89,.06-.89,.04,0-.02,.3-.07,.88-.14,.62-.08,1.46-.18,2.52-.31,2.19-.26,5.37-.58,9.31-.91,7.87-.66,18.78-1.27,30.83-1.31,12.05-.03,22.96,.5,30.84,1.11,3.94,.3,7.12,.6,9.32,.85,1.06,.12,1.9,.22,2.53,.29,.58,.07,.88,.12,.88,.14Z" style="fill:#fff;"></path><path d="M443.2,382.79s-.31,0-.89-.03c-.62-.05-1.47-.11-2.54-.19-2.2-.19-5.38-.42-9.32-.68-7.87-.52-18.77-.99-30.81-.96-12.04,.04-22.94,.59-30.81,1.16-3.94,.28-7.12,.54-9.32,.74-1.06,.09-1.91,.16-2.53,.21-.58,.04-.89,.06-.89,.04,0-.02,.3-.07,.88-.14,.62-.08,1.46-.18,2.52-.31,2.19-.26,5.37-.58,9.31-.91,7.87-.66,18.78-1.27,30.83-1.31,12.05-.03,22.96,.5,30.84,1.11,3.94,.3,7.12,.6,9.32,.85,1.06,.12,1.9,.22,2.53,.29,.58,.07,.88,.12,.88,.14Z" style="fill:#fff;"></path><path d="M443.2,393.26s-.31,0-.89-.03c-.62-.05-1.47-.11-2.54-.19-2.2-.19-5.38-.42-9.32-.68-7.87-.52-18.77-.99-30.81-.96-12.04,.04-22.94,.59-30.81,1.16-3.94,.28-7.12,.54-9.32,.74-1.06,.09-1.91,.16-2.53,.21-.58,.04-.89,.06-.89,.04,0-.02,.3-.07,.88-.14,.62-.08,1.46-.18,2.52-.31,2.19-.26,5.37-.58,9.31-.91,7.87-.66,18.78-1.27,30.83-1.31,12.05-.03,22.96,.5,30.84,1.11,3.94,.3,7.12,.6,9.32,.85,1.06,.12,1.9,.22,2.53,.29,.58,.07,.88,.12,.88,.14Z" style="fill:#fff;"></path><path d="M443.2,403.72s-.31,0-.89-.03c-.62-.05-1.47-.11-2.54-.19-2.2-.19-5.38-.42-9.32-.68-7.87-.52-18.77-.99-30.81-.96-12.04,.04-22.94,.59-30.81,1.16-3.94,.28-7.12,.54-9.32,.74-1.06,.09-1.91,.16-2.53,.21-.58,.04-.89,.06-.89,.04,0-.02,.3-.07,.88-.14,.62-.08,1.46-.18,2.52-.31,2.19-.26,5.37-.58,9.31-.91,7.87-.66,18.78-1.27,30.83-1.31,12.05-.03,22.96,.5,30.84,1.11,3.94,.3,7.12,.6,9.32,.85,1.06,.12,1.9,.22,2.53,.29,.58,.07,.88,.12,.88,.14Z" style="fill:#fff;"></path><path d="M443.2,414.19s-.31,0-.89-.03c-.62-.05-1.47-.11-2.54-.19-2.2-.19-5.38-.42-9.32-.68-7.87-.52-18.77-.99-30.81-.96-12.04,.04-22.94,.59-30.81,1.16-3.94,.28-7.12,.54-9.32,.74-1.06,.09-1.91,.16-2.53,.21-.58,.04-.89,.06-.89,.04,0-.02,.3-.07,.88-.14,.62-.08,1.46-.18,2.52-.31,2.19-.26,5.37-.58,9.31-.91,7.87-.66,18.78-1.27,30.83-1.31,12.05-.03,22.96,.5,30.84,1.11,3.94,.3,7.12,.6,9.32,.85,1.06,.12,1.9,.22,2.53,.29,.58,.07,.88,.12,.88,.14Z" style="fill:#fff;"></path><path d="M443.2,424.66s-.31,0-.89-.03c-.62-.05-1.47-.11-2.54-.19-2.2-.19-5.38-.42-9.32-.68-7.87-.52-18.77-.99-30.81-.96-12.04,.04-22.94,.59-30.81,1.16-3.94,.28-7.12,.54-9.32,.74-1.06,.09-1.91,.16-2.53,.21-.58,.04-.89,.06-.89,.04,0-.02,.3-.07,.88-.14,.62-.08,1.46-.18,2.52-.31,2.19-.26,5.37-.58,9.31-.91,7.87-.66,18.78-1.27,30.83-1.31,12.05-.03,22.96,.5,30.84,1.11,3.94,.3,7.12,.6,9.32,.85,1.06,.12,1.9,.22,2.53,.29,.58,.07,.88,.12,.88,.14Z" style="fill:#fff;"></path><path d="M443.2,435.12s-.31,0-.89-.03c-.62-.05-1.47-.11-2.54-.19-2.2-.19-5.38-.42-9.32-.68-7.87-.52-18.77-.99-30.81-.96-12.04,.04-22.94,.59-30.81,1.16-3.94,.28-7.12,.54-9.32,.74-1.06,.09-1.91,.16-2.53,.21-.58,.04-.89,.06-.89,.04,0-.02,.3-.07,.88-.14,.62-.08,1.46-.18,2.52-.31,2.19-.26,5.37-.58,9.31-.91,7.87-.66,18.78-1.27,30.83-1.31,12.05-.03,22.96,.5,30.84,1.11,3.94,.3,7.12,.6,9.32,.85,1.06,.12,1.9,.22,2.53,.29,.58,.07,.88,.12,.88,.14Z" style="fill:#fff;"></path><path d="M443.2,445.59s-.31,0-.89-.03c-.62-.05-1.47-.11-2.54-.19-2.2-.19-5.38-.42-9.32-.68-7.87-.52-18.77-.99-30.81-.96-12.04,.04-22.94,.59-30.81,1.16-3.94,.28-7.12,.54-9.32,.74-1.06,.09-1.91,.16-2.53,.21-.58,.04-.89,.06-.89,.04,0-.02,.3-.07,.88-.14,.62-.08,1.46-.18,2.52-.31,2.19-.26,5.37-.58,9.31-.91,7.87-.66,18.78-1.27,30.83-1.31,12.05-.03,22.96,.5,30.84,1.11,3.94,.3,7.12,.6,9.32,.85,1.06,.12,1.9,.22,2.53,.29,.58,.07,.88,.12,.88,.14Z" style="fill:#fff;"></path><path d="M443.2,456.06s-.31,0-.89-.03c-.62-.05-1.47-.11-2.54-.19-2.2-.19-5.38-.42-9.32-.68-7.87-.52-18.77-.99-30.81-.96-12.04,.04-22.94,.59-30.81,1.16-3.94,.28-7.12,.54-9.32,.74-1.06,.09-1.91,.16-2.53,.21-.58,.04-.89,.06-.89,.04,0-.02,.3-.07,.88-.14,.62-.08,1.46-.18,2.52-.31,2.19-.26,5.37-.58,9.31-.91,7.87-.66,18.78-1.27,30.83-1.31,12.05-.03,22.96,.5,30.84,1.11,3.94,.3,7.12,.6,9.32,.85,1.06,.12,1.9,.22,2.53,.29,.58,.07,.88,.12,.88,.14Z" style="fill:#fff;"></path><path d="M443.2,466.52s-.31,0-.89-.03c-.62-.05-1.47-.11-2.54-.19-2.2-.19-5.38-.42-9.32-.68-7.87-.52-18.77-.99-30.81-.96-12.04,.04-22.94,.59-30.81,1.16-3.94,.28-7.12,.54-9.32,.74-1.06,.09-1.91,.16-2.53,.21-.58,.04-.89,.06-.89,.04,0-.02,.3-.07,.88-.14,.62-.08,1.46-.18,2.52-.31,2.19-.26,5.37-.58,9.31-.91,7.87-.66,18.78-1.27,30.83-1.31,12.05-.03,22.96,.5,30.84,1.11,3.94,.3,7.12,.6,9.32,.85,1.06,.12,1.9,.22,2.53,.29,.58,.07,.88,.12,.88,.14Z" style="fill:#fff;"></path><path d="M443.2,476.99s-.31,0-.89-.03c-.62-.05-1.47-.11-2.54-.19-2.2-.19-5.38-.42-9.32-.68-7.87-.52-18.77-.99-30.81-.96-12.04,.04-22.94,.59-30.81,1.16-3.94,.28-7.12,.54-9.32,.74-1.06,.09-1.91,.16-2.53,.21-.58,.04-.89,.06-.89,.04,0-.02,.3-.07,.88-.14,.62-.08,1.46-.18,2.52-.31,2.19-.26,5.37-.58,9.31-.91,7.87-.66,18.78-1.27,30.83-1.31,12.05-.03,22.96,.5,30.84,1.11,3.94,.3,7.12,.6,9.32,.85,1.06,.12,1.9,.22,2.53,.29,.58,.07,.88,.12,.88,.14Z" style="fill:#fff;"></path><path d="M441.86,246.59s-.3,0-.86-.06c-.61-.07-1.42-.16-2.45-.28-2.13-.26-5.21-.59-9.03-.94-3.82-.36-8.37-.68-13.43-.92-5.06-.21-10.63-.34-16.48-.28-5.85,.08-11.41,.34-16.47,.68-5.05,.37-9.6,.79-13.4,1.25-3.81,.44-6.88,.85-9,1.16-1.03,.14-1.84,.25-2.45,.34-.56,.07-.86,.1-.86,.08,0-.02,.29-.08,.84-.19,.6-.11,1.41-.25,2.43-.43,2.11-.38,5.18-.84,8.99-1.33,3.8-.5,8.35-.97,13.41-1.36,5.06-.36,10.64-.64,16.5-.72,5.86-.06,11.44,.08,16.5,.32,5.07,.27,9.62,.63,13.44,1.03,3.82,.4,6.9,.78,9.02,1.11,1.02,.16,1.84,.28,2.44,.37,.56,.09,.85,.15,.85,.17Z" style="fill:#fff;"></path><rect x="323.87" y="270.53" width="4.74" height="4.74" style="fill:#455a64;"></rect><rect x="323.87" y="255.5" width="4.74" height="4.74" style="fill:#455a64;"></rect><rect x="323.87" y="283.99" width="4.74" height="4.74" style="fill:#455a64;"></rect><rect x="323.87" y="297.46" width="4.74" height="4.74" style="fill:#455a64;"></rect><rect x="323.87" y="310.93" width="4.74" height="4.74" style="fill:#455a64;"></rect><rect x="323.87" y="324.39" width="4.74" height="4.74" style="fill:#455a64;"></rect><rect x="323.87" y="336.22" width="4.74" height="4.74" style="fill:#455a64;"></rect><rect x="323.87" y="348.05" width="4.74" height="4.74" style="fill:#455a64;"></rect><rect x="323.87" y="359.88" width="4.74" height="4.74" style="fill:#455a64;"></rect><rect x="323.87" y="371.71" width="4.74" height="4.74" style="fill:#455a64;"></rect><rect x="323.87" y="383.54" width="4.74" height="4.74" style="fill:#455a64;"></rect><rect x="323.87" y="395.37" width="4.74" height="4.74" style="fill:#455a64;"></rect><rect x="323.87" y="407.2" width="4.74" height="4.74" style="fill:#455a64;"></rect><rect x="323.87" y="419.03" width="4.74" height="4.74" style="fill:#455a64;"></rect><rect x="323.87" y="430.86" width="4.74" height="4.74" style="fill:#455a64;"></rect><rect x="323.87" y="442.69" width="4.74" height="4.74" style="fill:#455a64;"></rect><rect x="323.87" y="454.52" width="4.74" height="4.74" style="fill:#455a64;"></rect><rect x="323.87" y="466.35" width="4.74" height="4.74" style="fill:#455a64;"></rect><rect x="323.87" y="478.18" width="4.74" height="4.74" style="fill:#455a64;"></rect><g style="opacity:.2;"><path d="M367.91,488.07h17.59l.8-282.01c-1.87-.53-10.67-2.91-18.38-3.38V488.07Z" style="fill:#fff;"></path></g><path d="M308.49,258.09s.04-.12,.15-.35c.12-.25,.28-.59,.48-1.01,.45-.91,1.09-2.21,1.9-3.86,1.68-3.37,4.09-8.21,7.06-14.17,5.96-11.97,14.15-28.52,23.11-46.85,8.96-18.33,16.99-34.97,22.79-47.01,2.89-6,5.23-10.87,6.87-14.26,.81-1.66,1.44-2.96,1.88-3.87,.21-.42,.38-.75,.5-1,.12-.22,.18-.34,.19-.33,0,0-.04,.12-.14,.36-.11,.25-.26,.59-.46,1.02-.42,.92-1.03,2.23-1.8,3.91-1.6,3.41-3.89,8.3-6.72,14.34-5.71,12.09-13.69,28.75-22.65,47.09-8.96,18.33-17.21,34.86-23.25,46.78-3.03,5.93-5.49,10.74-7.2,14.1-.85,1.64-1.52,2.92-1.99,3.82-.22,.42-.4,.74-.53,.99-.12,.22-.19,.33-.2,.33Z" style="fill:#263238;"></path></g><path d="M371.86,126.3c.05,.14-7.82,2.93-17.57,6.23-9.75,3.31-17.69,5.88-17.74,5.74-.05-.14,7.82-2.93,17.57-6.23,9.75-3.31,17.69-5.88,17.74-5.74Z" style="fill:#263238;"></path><path d="M310.31,250.37c-.14-.03,4.9-22.77,11.26-50.79,6.36-28.02,11.62-50.71,11.76-50.68,.14,.03-4.9,22.77-11.26,50.79-6.36,28.01-11.62,50.7-11.76,50.67Z" style="fill:#263238;"></path><path d="M373.39,201.83c-.14,0-.26-16.56-.26-36.97s.12-36.98,.26-36.98,.26,16.55,.26,36.98-.12,36.97-.26,36.97Z" style="fill:#263238;"></path><path d="M308.75,426.84c-.14,0-.26-37.6-.26-83.96s.12-83.97,.26-83.97,.26,37.59,.26,83.97-.12,83.96-.26,83.96Z" style="fill:#263238;"></path></g></g><g id="Monument"><g><g><g><rect x="163.44" y="476.41" width="165.19" height="3.34" style="fill:#e0e0e0;"></rect><rect x="158.59" y="479.76" width="176.38" height="3.34" style="fill:#e0e0e0;"></rect><rect x="154.55" y="483.1" width="186.66" height="3.34" style="fill:#e0e0e0;"></rect><rect x="151.04" y="486.46" width="194.85" height="3.34" style="fill:#e0e0e0;"></rect></g><g style="opacity:.1;"><rect x="163.44" y="476.41" width="165.19" height="3.34"></rect><rect x="158.59" y="479.76" width="176.38" height="3.34"></rect><rect x="154.55" y="483.1" width="186.66" height="3.34"></rect><rect x="151.04" y="486.46" width="194.85" height="3.34"></rect></g><g><g><rect x="293.04" y="441.96" width="26.96" height="34.45" transform="translate(613.04 918.38) rotate(180)" style="fill:#e0e0e0;"></rect><g style="opacity:.3;"><rect x="293.04" y="441.96" width="26.96" height="34.45" transform="translate(613.04 918.38) rotate(180)"></rect></g></g><path d="M321.73,439.74s-.23-3.62-2.49-3.96c0,0-1.7-8.83-2.94-10.07-1.25-1.25-6.9-2.04-6.9-2.04l-.79-2.38v-2.72s-.91-3.74,0-3.62,4.19-1.7,4.98-2.94c.79-1.25,1.38-3.62,1.38-3.62,0,0,.99-.34,.88-1.02-.11-.68-.88-1.36-.88-1.36v-5.32l-.7,4.64s-.68,.45-.34,1.02c.34,.57,.23,1.47,.23,1.47,0,0-2.72,3.51-3.4,4.08-.68,.57-2.72,1.02-3.85,1.02l-1.36-.34v-1.13s1.58,0,1.58-1.02,.34-3.74-1.58-3.74-3.96,1.36-3.96,2.15,.57,1.81,.91,1.81,.45,2.04,.45,2.04c0,0-2.94,1.7-4.08,2.6-1.13,.91-1.7,1.02-2.04,2.26-.34,1.25,.57,2.83,.57,2.83,0,0-2.04,.11-2.49,1.13-.45,1.02,0,3.85,0,3.85l-1.25,3.06s-1.58-.11-1.81,1.36c-.23,1.47-1.02,2.38,0,3.06,1.02,.68,1.92,1.13,1.92,1.13,0,0-2.83,2.94-2.43,3.62,.3,.52,1.3,1.51,1.75,1.94h-.1v2.65h28.08v-2.44h.66Zm-21.7-20.28c0-.11,1.07-1.07,1.4-.74h.14c.03,.08,.85,1.37,.91,1.49s0,.75,0,.75l-1.12,.91s-1.29-1.26-1.32-1.58c-.03-.32,0-.73,0-.84Z" style="fill:#263238;"></path><path d="M293.94,439.8c0-.09,6.06-.16,13.53-.16s13.53,.07,13.53,.16-6.06,.16-13.53,.16-13.53-.07-13.53-.16Z" style="fill:#455a64;"></path></g><g><rect x="171.62" y="439.6" width="28.55" height="36.7" style="fill:#e0e0e0;"></rect><g style="opacity:.3;"><rect x="171.62" y="439.6" width="28.55" height="36.7"></rect></g></g><rect x="236.47" y="122.58" width="18.87" height="7.93" style="fill:#e0e0e0;"></rect><rect x="230.84" y="130.52" width="30" height="7.89" style="fill:#e0e0e0;"></rect><path d="M237.35,138.64c-.09,0-.16-1.77-.16-3.96s.07-3.96,.16-3.96,.16,1.77,.16,3.96-.07,3.96-.16,3.96Z" style="fill:#455a64;"></path><path d="M254.66,139.39c-.09,0-.16-1.92-.16-4.29s.07-4.29,.16-4.29,.16,1.92,.16,4.29-.07,4.29-.16,4.29Z" style="fill:#455a64;"></path><rect x="232.42" y="138.41" width="26.92" height="28.59" style="fill:#e0e0e0;"></rect><rect x="241.23" y="142.63" width="8.78" height="24.38" style="fill:#455a64;"></rect><path d="M238.99,167.72c-.09,0-.16-6.47-.16-14.45s.07-14.45,.16-14.45,.16,6.47,.16,14.45-.07,14.45-.16,14.45Z" style="fill:#455a64;"></path><path d="M253.48,167.47c-.09,0-.16-6.43-.16-14.37s.07-14.37,.16-14.37,.16,6.43,.16,14.37-.07,14.37-.16,14.37Z" style="fill:#455a64;"></path><g><path d="M223.01,154.82c.09,0,.16,2.58,.16,5.76s-.07,5.76-.16,5.76-.16-2.58-.16-5.76,.07-5.76,.16-5.76Z" style="fill:#263238;"></path><g><path d="M268.38,154.82c.09,0,.16,2.58,.16,5.76s-.07,5.76-.16,5.76-.16-2.58-.16-5.76,.07-5.76,.16-5.76Z" style="fill:#263238;"></path><path d="M265.34,154.82c.09,0,.16,2.58,.16,5.76s-.07,5.76-.16,5.76-.16-2.58-.16-5.76,.07-5.76,.16-5.76Z" style="fill:#263238;"></path><path d="M262.3,154.82c.09,0,.16,2.58,.16,5.76s-.07,5.76-.16,5.76-.16-2.58-.16-5.76,.07-5.76,.16-5.76Z" style="fill:#263238;"></path><path d="M259.34,154.82c.09,0,.16,2.58,.16,5.76s-.07,5.76-.16,5.76-.16-2.58-.16-5.76,.07-5.76,.16-5.76Z" style="fill:#263238;"></path><path d="M256.38,154.82c.09,0,.16,2.58,.16,5.76s-.07,5.76-.16,5.76-.16-2.58-.16-5.76,.07-5.76,.16-5.76Z" style="fill:#263238;"></path><path d="M253.43,154.82c.09,0,.16,2.58,.16,5.76s-.07,5.76-.16,5.76-.16-2.58-.16-5.76,.07-5.76,.16-5.76Z" style="fill:#263238;"></path><path d="M250.47,154.82c.09,0,.16,2.58,.16,5.76s-.07,5.76-.16,5.76-.16-2.58-.16-5.76,.07-5.76,.16-5.76Z" style="fill:#263238;"></path><path d="M247.51,154.82c.09,0,.16,2.58,.16,5.76s-.07,5.76-.16,5.76-.16-2.58-.16-5.76,.07-5.76,.16-5.76Z" style="fill:#263238;"></path><path d="M244.55,154.82c.09,0,.16,2.58,.16,5.76s-.07,5.76-.16,5.76-.16-2.58-.16-5.76,.07-5.76,.16-5.76Z" style="fill:#263238;"></path><path d="M241.59,154.82c.09,0,.16,2.58,.16,5.76s-.07,5.76-.16,5.76-.16-2.58-.16-5.76,.07-5.76,.16-5.76Z" style="fill:#263238;"></path><path d="M238.63,154.82c.09,0,.16,2.58,.16,5.76s-.07,5.76-.16,5.76-.16-2.58-.16-5.76,.07-5.76,.16-5.76Z" style="fill:#263238;"></path><path d="M235.67,154.82c.09,0,.16,2.58,.16,5.76s-.07,5.76-.16,5.76-.16-2.58-.16-5.76,.07-5.76,.16-5.76Z" style="fill:#263238;"></path><path d="M232.72,154.82c.09,0,.16,2.58,.16,5.76s-.07,5.76-.16,5.76-.16-2.58-.16-5.76,.07-5.76,.16-5.76Z" style="fill:#263238;"></path><path d="M229.76,154.82c.09,0,.16,2.58,.16,5.76s-.07,5.76-.16,5.76-.16-2.58-.16-5.76,.07-5.76,.16-5.76Z" style="fill:#263238;"></path><path d="M226.8,154.82c.09,0,.16,2.58,.16,5.76s-.07,5.76-.16,5.76-.16-2.58-.16-5.76,.07-5.76,.16-5.76Z" style="fill:#263238;"></path></g><path d="M270.4,154.82c0,.09-10.99,.16-24.55,.16s-24.56-.07-24.56-.16,10.99-.16,24.56-.16,24.55,.07,24.55,.16Z" style="fill:#263238;"></path></g><path d="M222.46,165.97v9.19s3.03,3.03,4.54,6.49c1.51,3.46,3.89,12.37,3.89,15.9,0,0,16.22-.54,15.68,0-.54,.54,0-31.58,0-31.58h-24.12Z" style="fill:#e0e0e0;"></path><path d="M270.01,165.97v9.19s-3.03,3.03-4.54,6.49-3.89,12.37-3.89,15.9c0,0-16.22-.54-15.68,0s0-31.58,0-31.58h24.12Z" style="fill:#e0e0e0;"></path><path d="M260.89,130.52c0,.09-6.72,.16-15.01,.16s-15.01-.07-15.01-.16,6.72-.16,15.01-.16,15.01,.07,15.01,.16Z" style="fill:#455a64;"></path><path d="M260.89,138.41c0,.09-6.72,.16-15.01,.16s-15.01-.07-15.01-.16,6.72-.16,15.01-.16,15.01,.07,15.01,.16Z" style="fill:#455a64;"></path><g style="opacity:.3;"><rect x="232.42" y="138.41" width="26.92" height="2.39"></rect></g><g style="opacity:.3;"><polygon points="241.23 165.97 241.23 142.63 250 142.63 250 144.07 242.57 144.07 242.57 165.97 241.23 165.97"></polygon></g><path d="M270.4,174.94c0,.09-10.72,.16-23.94,.16s-23.94-.07-23.94-.16,10.72-.16,23.94-.16,23.94,.07,23.94,.16Z" style="fill:#455a64;"></path><path d="M231.64,198.2c-.08,2.39-3.98,152.3-3.98,152.3l39.22,.4-6.87-152.72-28.37,.02Z" style="fill:#e0e0e0;"></path><path d="M261.59,199.26h-31.42c-.59,0-1.06-.48-1.06-1.06h0c0-.59,.48-1.06,1.06-1.06h31.42c.59,0,1.06,.48,1.06,1.06h0c0,.59-.48,1.06-1.06,1.06Z" style="fill:#e0e0e0;"></path><path d="M262.2,197.15c0,.09-7.1,.16-15.86,.16s-15.86-.07-15.86-.16,7.1-.16,15.86-.16,15.86,.07,15.86,.16Z" style="fill:#455a64;"></path><path d="M261.31,199.26c0,.09-6.91,.16-15.42,.16s-15.42-.07-15.42-.16,6.9-.16,15.42-.16,15.42,.07,15.42,.16Z" style="fill:#455a64;"></path><path d="M260.99,223.48c0,.09-6.72,.16-15.01,.16s-15.01-.07-15.01-.16,6.72-.16,15.01-.16,15.01,.07,15.01,.16Z" style="fill:#455a64;"></path><path d="M261.69,232.33c0,.09-6.98,.16-15.58,.16s-15.58-.07-15.58-.16,6.97-.16,15.58-.16,15.58,.07,15.58,.16Z" style="fill:#455a64;"></path><path d="M263.04,271.97c0,.09-7.54,.16-16.84,.16s-16.84-.07-16.84-.16,7.54-.16,16.84-.16,16.84,.07,16.84,.16Z" style="fill:#455a64;"></path><path d="M263.81,280.06c0,.09-7.66,.16-17.1,.16s-17.1-.07-17.1-.16,7.65-.16,17.1-.16,17.1,.07,17.1,.16Z" style="fill:#455a64;"></path><path d="M241.36,319.58c0,.09-2.92,.16-6.53,.16s-6.53-.07-6.53-.16,2.92-.16,6.53-.16,6.53,.07,6.53,.16Z" style="fill:#455a64;"></path><path d="M251.6,321.24s-.02-.59-.17-1.63c-.17-1.02-.5-2.57-1.55-4.12-.53-.75-1.27-1.52-2.29-1.89-.5-.18-1.07-.26-1.63-.18-.56,.09-1.11,.33-1.61,.68-.99,.7-1.73,1.83-2.21,3.07-.5,1.25-.72,2.64-.74,4.07,.02,1.42,.24,2.82,.74,4.07,.48,1.24,1.22,2.37,2.21,3.07,.49,.35,1.04,.59,1.61,.68,.57,.09,1.13,0,1.63-.18,1.02-.37,1.76-1.14,2.29-1.89,1.06-1.55,1.38-3.09,1.55-4.12,.15-1.04,.13-1.63,.17-1.63,0,0,.06,.59-.05,1.65-.14,1.04-.43,2.61-1.49,4.23-.54,.78-1.29,1.6-2.38,2.01-.54,.2-1.15,.29-1.76,.2-.61-.09-1.21-.34-1.73-.71-1.06-.75-1.83-1.91-2.33-3.2-.52-1.29-.74-2.72-.76-4.18,.02-1.46,.24-2.89,.76-4.18,.5-1.28,1.27-2.45,2.33-3.19,.53-.37,1.12-.62,1.73-.71,.61-.09,1.22,0,1.76,.2,1.09,.41,1.85,1.23,2.38,2.01,1.06,1.61,1.35,3.19,1.49,4.23,.11,1.06,.05,1.65,.05,1.65Z" style="fill:#455a64;"></path><path d="M245.55,329.24s-.17,.23-.52,.61c-.35,.38-.88,.91-1.56,1.52-1.36,1.24-3.4,2.79-5.88,4.14-2.48,1.34-4.89,2.21-6.67,2.68-.89,.24-1.62,.4-2.13,.48-.51,.09-.79,.12-.79,.1,0-.02,.27-.1,.77-.22,.5-.12,1.22-.31,2.09-.57,1.75-.52,4.13-1.41,6.59-2.74,2.45-1.34,4.49-2.85,5.88-4.03,.7-.59,1.25-1.09,1.62-1.44,.37-.35,.59-.54,.6-.52Z" style="fill:#455a64;"></path><path d="M247.83,329.24s.23,.17,.6,.52c.37,.35,.92,.85,1.62,1.44,1.39,1.19,3.43,2.7,5.88,4.03,2.46,1.33,4.83,2.22,6.59,2.74,.88,.26,1.59,.46,2.09,.57,.5,.12,.77,.2,.77,.22,0,.02-.29-.02-.79-.1-.51-.08-1.24-.24-2.13-.48-1.78-.47-4.19-1.34-6.67-2.68-2.48-1.35-4.51-2.9-5.88-4.14-.68-.62-1.22-1.14-1.56-1.52-.35-.38-.53-.59-.52-.61Z" style="fill:#455a64;"></path><path d="M265.37,319.47c0,.09-3.18,.16-7.1,.16s-7.1-.07-7.1-.16,3.18-.16,7.1-.16,7.1,.07,7.1,.16Z" style="fill:#455a64;"></path><path d="M268.54,347.85h-41.43c-1.29,0-2.33-1.04-2.33-2.33h0c0-1.29,1.04-2.33,2.33-2.33h41.43c1.29,0,2.33,1.04,2.33,2.33h0c0,1.29-1.04,2.33-2.33,2.33Z" style="fill:#e0e0e0;"></path><path d="M268.41,347.85h-41.61c-2.15,4.66-12.04,8.36-12.04,8.36,0,0-3.69,19.51-3.69,20.68,0,0,34.23,.56,37.38,.41,2.91,.15,35.58,.06,35.58,.06,0-1.18-4.51-21.15-4.51-21.15,0,0-9.12-3.7-11.1-8.36Z" style="fill:#e0e0e0;"></path><path d="M285.56,381.22h-76.86c-1.61,0-2.92-1.31-2.92-2.92h0c0-1.61,1.31-2.92,2.92-2.92h76.86c1.61,0,2.92,1.31,2.92,2.92h0c0,1.61-1.31,2.92-2.92,2.92Z" style="fill:#e0e0e0;"></path><rect x="210.25" y="381.16" width="73.77" height="49.54" style="fill:#e0e0e0;"></rect><rect x="207.63" y="427.92" width="79.01" height="4.15" style="fill:#e0e0e0;"></rect><path d="M268.41,347.85c0,.09-9.26,.16-20.68,.16s-20.68-.07-20.68-.16,9.26-.16,20.68-.16,20.68,.07,20.68,.16Z" style="fill:#455a64;"></path><path d="M268.41,343.19c0,.09-9.26,.16-20.68,.16s-20.68-.07-20.68-.16,9.26-.16,20.68-.16,20.68,.07,20.68,.16Z" style="fill:#455a64;"></path><path d="M286,375.39c0,.09-17.28,.16-38.58,.16s-38.58-.07-38.58-.16,17.27-.16,38.58-.16,38.58,.07,38.58,.16Z" style="fill:#455a64;"></path><path d="M284.64,381.16c0,.09-16.59,.16-37.05,.16s-37.05-.07-37.05-.16,16.59-.16,37.05-.16,37.05,.07,37.05,.16Z" style="fill:#455a64;"></path><path d="M284.64,427.92c0,.09-16.59,.16-37.05,.16s-37.05-.07-37.05-.16,16.59-.16,37.05-.16,37.05,.07,37.05,.16Z" style="fill:#455a64;"></path><g style="opacity:.3;"><rect x="236.7" y="390.64" width="20.08" height="20.08"></rect></g><path d="M203.96,439.35s-1.82-7.29,9.64-7.29h68.18c.46,0,7.84,.46,7.84,7.84l-85.67-.55Z" style="fill:#e0e0e0;"></path><rect x="198.36" y="439" width="97.54" height="4.64" style="fill:#e0e0e0;"></rect><rect x="199.99" y="443.64" width="93.9" height="32.77" style="fill:#e0e0e0;"></rect><path d="M295.81,439c0,.09-21.41,.16-47.81,.16s-47.81-.07-47.81-.16,21.4-.16,47.81-.16,47.81,.07,47.81,.16Z" style="fill:#455a64;"></path><path d="M295.81,443.64c0,.09-21.41,.16-47.81,.16s-47.81-.07-47.81-.16,21.4-.16,47.81-.16,47.81,.07,47.81,.16Z" style="fill:#455a64;"></path><path d="M284.64,432.07c0,.09-16.59,.16-37.05,.16s-37.05-.07-37.05-.16,16.59-.16,37.05-.16,37.05,.07,37.05,.16Z" style="fill:#455a64;"></path><rect x="238.66" y="449.68" width="16.7" height="26.73" style="fill:#263238;"></rect><g style="opacity:.3;"><polygon points="277.46 424 275.96 383.89 279.1 383.89 279.1 381.16 266.36 381.16 266.36 383.89 269.32 383.89 268.26 424 227.18 424 225.68 383.89 228.82 383.89 228.82 381.16 216.09 381.16 216.09 383.89 219.05 383.89 217.99 424 210.25 424 210.25 427.75 217.89 427.75 227.32 427.75 268.16 427.75 277.6 427.75 284.02 427.75 284.02 424 277.46 424"></polygon></g><rect x="170.48" y="437.02" width="29.74" height="2.81" style="fill:#263238;"></rect><path d="M199.39,431.13s.96-.48,2.04-1.2c1.08-.72,.24-1.68,0-3.24-.24-1.56-1.92-1.44-1.92-1.44l-1.32-3.24s.48-3,0-4.08c-.48-1.08-2.64-1.2-2.64-1.2,0,0,.96-1.68,.6-3-.36-1.32-.96-1.44-2.16-2.4-1.2-.96-4.32-2.76-4.32-2.76,0,0,.12-2.16,.48-2.16s.96-1.08,.96-1.92-2.16-2.28-4.2-2.28-1.68,2.88-1.68,3.96,1.68,1.08,1.68,1.08v1.2l-1.44,.36c-1.2,0-3.36-.48-4.08-1.08-.72-.6-3.6-4.32-3.6-4.32,0,0-.12-.96,.24-1.56,.36-.6-.36-1.08-.36-1.08l-.75-4.92v5.63s-.81,.72-.93,1.44,.93,1.08,.93,1.08c0,0,.63,2.52,1.47,3.84,.84,1.32,4.32,3.24,5.27,3.12s0,3.84,0,3.84v2.88l-.84,2.52s-5.99,.84-7.31,2.16-3.12,10.67-3.12,10.67c-2.4,.36-2.64,4.2-2.64,4.2h30.09s1.68-1.56,2.1-2.28c.42-.72-2.58-3.84-2.58-3.84Zm-6.63-14.48c-.03,.33-1.39,1.67-1.39,1.67l-1.19-.96s-.06-.67,0-.8,.93-1.5,.96-1.58h.15c.35-.35,1.48,.67,1.48,.78s.03,.55,0,.89Z" style="fill:#263238;"></path><g><path d="M247.44,38.52c-.25-.43-.59-.5-.59-.5l-.06-.5c-.12-.91-1.07-1.05-1.07-1.05,0,0,.05-.25-.22-.68-.27-.43-.85-1.27-2.81-1.46s-2.92,1.86-2.92,1.86c-1.13,.56-.67,.96-.67,.96-1.02,.47-1.95,2.02-2.08,2.95-.12,.93,.59,.87,.59,.87,0,0,.12,.47,.25,1.23,.12,.76,.65,1.12,.65,1.12-.06,1.36,1.24,1.83,1.24,1.83l.1,1.24s-.08,.82-.21,1.88-1.33,.93-1.33,.93c-1.59-1.33-3.31-1.19-3.31-1.19l-3.05-3.71-1.72-9.41s1.99-.93,4.24-2.12c2.25-1.19,2.39-3.98,1.06-5.7-1.33-1.72-11.79,1.72-12.06,2.92-.27,1.19,3.58,5.04,3.58,5.04v5.3s-1.59-3.71-6.1-7.55c-4.51-3.84-27.03-21.33-27.43-21.47,0,0-1.26,.08-1.35,2.01-.09,1.93,2.02,3.78,2.02,3.78,0,0-.94,.9-.94,2.61s2.47,3.64,2.47,3.64c0,0-.09-2.2,0,.27s1.03,3.69,1.03,3.69l4.54,3.01,.58,2.7,7.15,4.4s-.31,.49-.18,1.48,1.62,2.25,1.62,2.25c0,0,.45,2.07,1.26,3.01,.81,.94,4.31,1.53,4.31,1.53,0,0,.04,1.66,1.03,2.92s4.18,1.3,4.18,1.3c0,0-.63,1.03-.72,1.93-.09,.9,1.8,2.7,1.8,2.7,0,0-.45,2.2,.58,2.83,1.03,.63,2.7,.36,2.56,.54-.13,.18,.22,1.84,.9,2.34,.67,.49,2.34-.04,2.34-.04,0,1.39,.36,2.79,1.53,3.69,1.17,.9,2.64-.23,2.64-.23,.13,.8,3.05,.53,3.98,1.72s-1.19,2.12-1.86,3.98c-.66,1.86-2.12,1.99-2.99,4.9-.87,2.92,1.8,2.65,2.19,2.65s.53,1.33-.4,2.78c-.93,1.46-2.12,.66-2.65,2.52-.53,1.86,2.12,1.86,.85,2.52-1.27,.66-4.96,.4-4.43,2.78,.53,2.39,2.52,4.24,2.52,4.24,0,0-.4,1.33,1.19,3.05,1.59,1.72,2.92,.4,4.37,2.12,1.46,1.72-1.59,1.72-.53,4.64,1.06,2.92,5.43,4.11,5.43,4.11,0,0,0,1.86-1.06,4.11-1.06,2.25-2.39,1.59-3.45,2.78-1.06,1.19,.53,4.51,.53,4.51,0,0-1.46,1.06-2.52,1.59-1.06,.53-1.59,3.71-.93,3.98,.66,.27,2.89-.84,2.89-.84l.02,.84h19.48v-1.96c-1.85-.26-3.45-1.98-3.99-3.39-.85-2.22-2.19-2.43-2.87-2.68l-.3-2.3,.66-1.06s.27-6.36,1.86-9.14c1.59-2.78,.26-8.48,.26-8.48,0,0,1.59,1.72,2.92,2.52s1.06,5.83,1.86,7.55c.8,1.72,1.46-.66,2.39-2.52s-1.19-5.43-1.19-5.43l2.12-2.39s1.72,.93,2.78,0c1.06-.93,1.06-5.17,0-7.82-1.06-2.65-8.75-11-8.75-11,0,0-.26-1.86,.27-2.92,.53-1.06-3.58-5.57-3.58-5.57l-.93-5.17s1.72,4.64,2.65,5.17c.93,.53,11.26,1.86,12.59,1.33,1.33-.53,1.99-3.05,.93-4.24s-3.18,1.19-3.18,1.19c0,0-6.63-2.12-7.02-2.25-.4-.13-2.65-4.77-2.52-5.57s-.8-4.9-.8-4.9c0,0,2.52-2.78,4.11-4.51,1.59-1.72,1.19-3.84,1.19-3.84,0,0,1.86-1.86,3.84-3.31,1.99-1.46,1.06-3.31,1.06-3.31,2.25-1.72,2.12-3.05,2.12-3.05l2.52-2.12c2.78-1.72,1.06-3.31,1.06-3.31,0,0,.8-1.06,2.25-2.92,1.46-1.86,0-2.92,0-2.92,0,0-13.38,5.17-16.96,7.95-3.58,2.79-2.92,8.48-2.92,10.86s-5,7.18-5,7.18c0,0,.02-2.09,.02-2.62s1-1.24,1.79-1.9c0,0,.34-.37,.28-.79l1.01-1.01s.71-2.37-.55-2.82c0,0,0-.46-.1-.63Z" style="fill:#FF725E;"></path><g style="opacity:.3;"><path d="M240.6,117.42c.89-2.3,4.18-2.88,4.18-2.88,.07-1.54,.02-3.05,.6-4.68,.29-.82-.25-1.72-.52-2.55-2.28-7.1-4.78-12.39-7.11-19.47-.22-.68-.63-3.18-.61-3.9,.02-.72,.73-1.47,1.36-1.82,.96-.53,2.14,.05,3.03,.69,2.5,1.79,3.92,3.97,5.5,6.61,.25-3.95-1.09-7.83-4.44-9.95-.75-.48-1.56-.86-2.27-1.41s-1.31-1.28-1.45-2.16c-.14-.88,.33-1.88,1.18-2.15-1.03,.01-2.04-.53-2.61-1.38-.57-.85-.67-2-.27-2.94l-2.97,1.28c-.7,.84-1.58,1.53-2.18,3.53-.87,2.92,1.8,2.65,2.19,2.65s.53,1.33-.4,2.78c-.93,1.46-2.12,.66-2.65,2.52-.53,1.86,2.12,1.86,.85,2.52-1.27,.66-4.96,.4-4.43,2.78,.53,2.39,2.52,4.24,2.52,4.24,0,0-.4,1.33,1.19,3.05,1.59,1.72,2.92,.4,4.37,2.12,1.46,1.72-1.59,1.72-.53,4.64,1.06,2.92,5.43,4.11,5.43,4.11,0,0,0,1.86-1.06,4.11-1.06,2.25-2.39,1.59-3.45,2.78-1.06,1.19,.53,4.51,.53,4.51,0,0-1.46,1.06-2.52,1.59-1.06,.53-1.59,3.71-.93,3.98,.66,.27,2.89-.84,2.89-.84l.02-.94c1.99,0,3.65-1.11,4.54-3.41Z"></path></g><path d="M234.01,54.39s-.19-.13-.49-.41c-.3-.28-.72-.69-1.21-1.23-.98-1.08-2.26-2.66-3.29-4.66-1.04-1.99-1.58-3.97-1.81-5.41-.1-.73-.17-1.31-.17-1.72-.02-.41-.02-.63,0-.63,.06,0,.11,.9,.38,2.32,.28,1.42,.84,3.35,1.87,5.31,1.01,1.96,2.25,3.55,3.18,4.66,.94,1.11,1.57,1.75,1.53,1.79Z" style="fill:#263238;"></path><path d="M237.08,66.09s.13-.7,.36-1.81c.04-.27,.15-.6,.07-.87-.06-.32-.16-.66-.26-1.02-.23-.75-.47-1.52-.71-2.34-.52-1.66-1.01-3.15-1.33-4.25-.04-.11-.08-.32-.11-.36-.06-.09-.14-.18-.22-.26-.14-.14-.28-.27-.41-.4-.11-.11-.2-.2-.25-.27-.02-.04-.05-.06-.05-.1,0-.03,.04-.02,.03-.02-.05,0,.09,.1,.35,.3,.13,.1,.28,.22,.45,.37,.09,.08,.18,.16,.27,.28,.1,.18,.09,.25,.16,.4,.38,1.07,.89,2.56,1.42,4.22,.26,.83,.5,1.62,.69,2.35,.1,.37,.18,.71,.24,1.06,.07,.39-.06,.68-.11,.96-.29,1.11-.54,1.77-.58,1.76Z" style="fill:#263238;"></path><path d="M243.33,58.12s-.31,.29-.95,.47c-.63,.18-1.59,.25-2.55-.12-.96-.37-1.63-1.07-1.96-1.63-.35-.57-.41-.98-.38-.99,.05-.02,.19,.36,.56,.86,.37,.5,1.01,1.12,1.9,1.46,.88,.34,1.78,.32,2.39,.2,.62-.12,.97-.3,1-.25Z" style="fill:#263238;"></path><path d="M240.49,55.91s-.13,.07-.3-.04c-.16-.1-.34-.36-.26-.69,.1-.32,.39-.45,.58-.45,.2,0,.29,.09,.27,.12-.01,.06-.44,.06-.55,.41-.09,.36,.28,.58,.26,.64Z" style="fill:#263238;"></path><path d="M249.15,59.56s.28-.27,.61-.76c.33-.48,.66-1.27,.61-2.16-.05-.89-.49-1.63-.79-2.15-.32-.52-.52-.84-.48-.87,.03-.02,.3,.25,.67,.74,.35,.49,.86,1.26,.92,2.25,.05,.99-.35,1.83-.75,2.31-.41,.49-.77,.66-.79,.63Z" style="fill:#263238;"></path><path d="M249.19,61.65c-.08,.02-.29-.49-.34-1.16-.06-.67,.07-1.21,.15-1.2,.09,0,.11,.53,.16,1.17,.05,.64,.12,1.16,.03,1.18Z" style="fill:#263238;"></path><path d="M249.63,66.1c-.01,.06-.83-.59-2.34-.39-.74,.08-1.58,.39-2.46,.86-.88,.46-1.82,1.06-2.92,1.49-2.19,.84-4.24,1.26-5.6,1.94-1.37,.63-2.05,1.3-2.08,1.26-.01-.01,.14-.2,.47-.47,.33-.28,.84-.64,1.52-.99,1.36-.74,3.44-1.21,5.58-2.03,1.07-.42,2-1,2.9-1.46,.9-.46,1.79-.76,2.57-.82,.78-.07,1.41,.08,1.8,.25,.4,.18,.57,.35,.56,.36Z" style="fill:#263238;"></path><path d="M247.74,69.45s-.15,.17-.46,.42c-.31,.25-.79,.59-1.4,.96-1.22,.76-3.03,1.58-5.05,2.4-2.02,.83-3.85,1.56-5.18,2.08-.57,.21-1.09,.41-1.58,.6-.38,.13-.59,.2-.6,.18,0-.02,.19-.12,.55-.29,.48-.21,.99-.44,1.55-.69,1.31-.57,3.13-1.33,5.14-2.16,2.02-.82,3.82-1.6,5.06-2.3,1.24-.69,1.94-1.23,1.98-1.19Z" style="fill:#263238;"></path><path d="M249.55,81.84s-.4-.53-1.07-1.34c-.67-.82-1.68-1.87-2.97-2.84-1.29-.96-2.59-1.63-3.56-2.04-.97-.41-1.6-.6-1.59-.65,0-.02,.17,0,.46,.07,.29,.06,.71,.19,1.21,.37,1.01,.36,2.35,1.02,3.67,2,1.31,.98,2.32,2.09,2.95,2.95,.32,.43,.55,.79,.7,1.06,.15,.26,.22,.41,.2,.42Z" style="fill:#263238;"></path><path d="M258.34,89.58s-.19-.54-.4-1.44-.47-2.15-.75-3.53c-.28-1.38-.51-2.64-.66-3.55-.15-.91-.23-1.48-.18-1.48,.04,0,.19,.55,.4,1.44,.21,.9,.47,2.14,.75,3.52,.27,1.38,.51,2.63,.66,3.54,.15,.91,.23,1.48,.18,1.49Z" style="fill:#263238;"></path><path d="M257.71,95.31c.04,.07-1.16,.59-2.72,.42-1.56-.15-2.63-.9-2.58-.96,.04-.09,1.13,.51,2.61,.65,1.48,.16,2.67-.2,2.69-.11Z" style="fill:#263238;"></path><path d="M254.45,93.2s-.42-.43-.98-1.22c-.56-.78-1.29-1.9-2.01-3.18-.72-1.28-1.29-2.49-1.67-3.37-.38-.89-.57-1.45-.53-1.47,.04-.02,.3,.52,.73,1.38,.43,.86,1.03,2.04,1.74,3.31,.72,1.27,1.41,2.4,1.92,3.21,.51,.81,.83,1.31,.79,1.34Z" style="fill:#263238;"></path><path d="M251,92.6c-.09,0-.18-1.73-.64-3.81-.45-2.08-1.11-3.69-1.02-3.73,.04-.02,.25,.37,.52,1.02,.27,.65,.58,1.59,.81,2.64,.23,1.06,.34,2.03,.38,2.74,.03,.71,0,1.14-.04,1.15Z" style="fill:#263238;"></path><path d="M237.29,82.42c.06,0-.1,.82,.04,2.12,.12,1.3,.63,3.05,1.27,4.95,.66,1.89,1.31,3.6,1.72,4.86,.42,1.25,.6,2.06,.56,2.07-.02,0-.09-.19-.22-.53-.17-.46-.35-.94-.55-1.46-.46-1.23-1.15-2.92-1.81-4.83-.64-1.91-1.13-3.7-1.19-5.04-.04-.67,0-1.21,.05-1.58,.06-.37,.11-.57,.13-.56Z" style="fill:#263238;"></path><path d="M236.45,80.76c.08,0-.27,1.46-1.6,2.63-1.32,1.19-2.81,1.37-2.8,1.29-.03-.09,1.35-.4,2.59-1.53,1.26-1.11,1.72-2.44,1.81-2.4Z" style="fill:#263238;"></path><path d="M239.58,92.59c.07,.05-.6,1.24-1.5,2.66-.9,1.42-1.69,2.54-1.77,2.49-.07-.05,.6-1.24,1.5-2.66,.9-1.42,1.69-2.54,1.77-2.49Z" style="fill:#263238;"></path><path d="M246.7,89.75c.05,0-.06,.8,.02,2.08,.07,1.28,.43,3.02,.7,4.98,.27,1.97,.12,3.77,.08,5.06-.05,1.29-.03,2.08-.07,2.09-.02,0-.06-.2-.09-.56-.03-.36-.05-.89-.06-1.53-.02-1.29,.09-3.07-.17-5.01-.26-1.94-.6-3.71-.61-5.01-.02-.65,.03-1.18,.07-1.54,.06-.36,.1-.55,.12-.55Z" style="fill:#263238;"></path><path d="M238.49,81.46s.27,0,.74,.07c.47,.09,1.15,.28,1.92,.69,1.55,.78,3.35,2.49,4.63,4.8l.07,.14v-.02c1.42,2.17,2.33,4.34,2.83,5.95,.25,.8,.42,1.47,.51,1.93,.1,.46,.13,.72,.11,.72-.02,0-.1-.24-.23-.69-.13-.45-.33-1.1-.61-1.89-.55-1.58-1.49-3.71-2.89-5.85h0v-.02l-.07-.13c-1.25-2.25-2.99-3.95-4.46-4.75-1.47-.85-2.58-.87-2.56-.96Z" style="fill:#263238;"></path><path d="M241.55,98.17s.06,.09,.13,.28c.1,.25,.2,.52,.32,.82,.31,.82,.68,1.84,1.13,3.04,.48,1.33,1.03,2.85,1.64,4.53,.32,.84,.63,1.8,.56,2.83-.07,1.03-.46,1.97-.43,3.01-.02,.67-.01,1.33,.04,1.97v.16h-.15c-1.22,.05-2.37,.48-3.11,1.29-.76,.8-1.14,1.81-1.64,2.66-.46,.9-1.27,1.46-2,1.76-.74,.3-1.43,.39-1.99,.39l.07-.07c-.01,.51-.02,.95-.03,1.32-.01,.3-.02,.45-.04,.45s-.03-.16-.04-.45c0-.38-.02-.81-.03-1.32v-.07h.07c.53-.02,1.2-.13,1.9-.43,.7-.3,1.43-.83,1.86-1.69,.47-.83,.84-1.87,1.65-2.73,.4-.43,.9-.78,1.47-1.02,.57-.25,1.2-.32,1.83-.38l-.15,.17c-.06-.66-.07-1.33-.04-2.01-.02-1.07,.38-2.08,.44-3.02,.07-.96-.21-1.86-.52-2.71-.58-1.68-1.12-3.22-1.58-4.55-.41-1.22-.76-2.25-1.04-3.08-.1-.31-.19-.59-.27-.84-.06-.19-.08-.3-.07-.3Z" style="fill:#263238;"></path><path d="M234.17,56.59s0,.43-.4,.95c-.4,.52-1.05,1.08-1.88,1.61-.43,.26-.96,.36-1.39,.24-.44-.11-.76-.35-1-.56-.47-.44-.68-.77-.65-.79,.04-.04,.31,.25,.79,.62,.24,.18,.55,.38,.92,.45,.37,.08,.79,0,1.18-.24,.77-.49,1.47-1.04,1.87-1.48,.41-.45,.52-.82,.57-.81Z" style="fill:#263238;"></path><path d="M225.45,57.09c-.07-.02,.54-1.52,1.88-2.96,1.33-1.45,2.77-2.17,2.8-2.1,.05,.08-1.28,.91-2.57,2.32-1.3,1.4-2.03,2.79-2.11,2.74Z" style="fill:#263238;"></path><path d="M224.71,54.04s-.59-.12-.92-.94c-.15-.39-.22-.92-.05-1.47,.16-.55,.57-1.05,1.09-1.42,1.08-.74,2.3-.75,3.09-.71,.81,.05,1.3,.15,1.29,.18,0,.05-.5,.03-1.3,.04-.78,.02-1.92,.07-2.9,.75-.48,.33-.84,.78-1,1.25-.16,.47-.13,.94-.01,1.3,.23,.75,.75,.97,.71,1.01Z" style="fill:#263238;"></path><path d="M225.41,49.8c0,.09-1.48-.47-2.32-2.1-.2-.39-.35-.83-.3-1.25,.04-.42,.29-.74,.51-.93,.46-.38,.82-.46,.84-.43,.03,.05-.3,.2-.68,.59-.18,.19-.36,.47-.38,.8-.02,.33,.1,.71,.29,1.08,.78,1.52,2.11,2.17,2.05,2.25Z" style="fill:#263238;"></path><path d="M221.67,49.6c-.04-.08,.23-.31,.61-.52,.38-.21,.72-.33,.77-.25,.04,.08-.23,.31-.61,.52-.38,.21-.72,.33-.77,.25Z" style="fill:#263238;"></path><path d="M222.55,46.56c-.02,.08-1.42-.12-3.12-.45-1.71-.34-3.08-.68-3.06-.76,.02-.08,1.42,.12,3.12,.45,1.71,.34,3.08,.68,3.06,.76Z" style="fill:#263238;"></path><path d="M219.38,43.28c-.02,.08-1.89-.27-4.17-.78-2.28-.52-4.12-1.01-4.1-1.09,.02-.08,1.89,.27,4.17,.78,2.28,.52,4.12,1.01,4.1,1.09Z" style="fill:#263238;"></path><path d="M217.28,40.34c-.03,.08-1.84-.45-4.04-1.19-2.21-.74-3.97-1.41-3.94-1.49,.03-.08,1.84,.45,4.04,1.19,2.21,.74,3.97,1.41,3.94,1.49Z" style="fill:#263238;"></path><path d="M226.63,43.07s-.1-.38-.38-1.03c-.27-.65-.78-1.54-1.62-2.48-.83-.94-2-1.9-3.3-2.96-1.3-1.07-2.72-2.24-4.21-3.47-2.92-2.44-5.56-4.65-7.61-6.35-.9-.77-1.66-1.42-2.28-1.95l-.61-.54c-.14-.13-.21-.2-.2-.21,0,0,.09,.05,.24,.16,.2,.15,.41,.31,.65,.5,.64,.51,1.42,1.14,2.35,1.88,2.06,1.69,4.72,3.87,7.66,6.28,1.48,1.23,2.89,2.41,4.19,3.49,1.29,1.07,2.45,2.05,3.28,3.03,.84,.97,1.33,1.91,1.57,2.58,.12,.34,.19,.61,.23,.79,.03,.18,.04,.28,.03,.28Z" style="fill:#263238;"></path><path d="M251.8,54.07c-.06,0,.01-.58-.47-1.3-.24-.35-.6-.73-1.08-1.04-.47-.31-1.06-.55-1.7-.77-.63-.22-1.25-.42-1.8-.67-.52-.24-1.05-.4-1.41-.73-.37-.33-.42-.75-.43-1,0-.26,.03-.39,.05-.39,.03,0,.03,.14,.07,.38,.04,.23,.13,.59,.45,.84,.32,.26,.83,.4,1.38,.63,.53,.23,1.14,.42,1.78,.64,.64,.22,1.25,.48,1.75,.82,.5,.34,.87,.76,1.1,1.16,.48,.82,.31,1.44,.29,1.42Z" style="fill:#263238;"></path><path d="M245.28,40.21c-.07,.06-.35-.18-.75-.35-.4-.18-.76-.22-.77-.31-.01-.08,.42-.18,.89,.03,.48,.21,.7,.59,.63,.63Z" style="fill:#263238;"></path><path d="M243.92,43.35c.06,0-.05,.22-.29,.19-.24-.01-.44-.06-.73-.05-.54,0-.98,.14-1.02,.06-.04-.07,.39-.37,1.02-.37,.3,0,.6,.1,.74,.15,.16,.08,.23,.01,.27,.03Z" style="fill:#263238;"></path><g style="opacity:.3;"><path d="M243.68,43.99c-.06-.08-.18-.05-.27-.02-.24,.08-.5,.1-.76,.08l-.26-.07c-.08-.05-.19-.08-.25-.01-.04,.05-.04,.12-.01,.18,.03,.06,.08,.1,.14,.13,.37,.23,.86,.18,1.26,0,.06-.03,.11-.06,.15-.11,.04-.05,.05-.12,.01-.17Z"></path></g><path d="M243.56,43.91c.05,.07-.23,.31-.65,.31-.43,0-.7-.23-.66-.3,.04-.08,.32,0,.66,0,.33,0,.61-.07,.66,0Z" style="fill:#263238;"></path><path d="M245.2,45.18s-.17,.28-.59,.56c-.42,.28-1.09,.56-1.87,.58-.78,.03-1.47-.21-1.91-.46-.44-.25-.65-.49-.62-.52,.04-.09,1.05,.72,2.52,.67,1.47-.04,2.42-.91,2.47-.83Z" style="fill:#263238;"></path><path d="M243.44,44.98c-.03,.08-.34,.06-.7,.09-.37,.02-.67,.09-.71,0-.04-.07,.26-.29,.69-.32,.43-.03,.75,.15,.72,.22Z" style="fill:#263238;"></path><path d="M245.94,40.66c.09,0,.11,.75,.06,1.66-.04,.45-.04,.86-.15,1.18-.11,.33-.34,.42-.35,.38-.03-.04,.11-.16,.14-.43,.04-.26,.01-.69,.05-1.14,.05-.91,.16-1.64,.25-1.64Z" style="fill:#263238;"></path><path d="M239.84,41.15c-.08,.01-.2-.26-.2-.6,0-.35,.1-.62,.18-.61,.09,.01,.12,.28,.13,.61,0,.32-.02,.6-.11,.61Z" style="fill:#263238;"></path><path d="M243.63,36.72s.14,.26-.1,.6c-.25,.33-.74,.55-1.28,.7-1.12,.3-2.04-.02-2-.09,.02-.09,.9,.07,1.92-.21,.5-.14,.97-.32,1.19-.54,.23-.23,.23-.46,.27-.46Z" style="fill:#263238;"></path><path d="M246.08,39.15c-.02,.08-.77-.07-1.59-.53-.81-.46-1.32-1.03-1.27-1.09,.06-.07,.64,.38,1.42,.82,.78,.45,1.46,.72,1.43,.8Z" style="fill:#263238;"></path><path d="M255.55,120.96c0,.09-4.23,.16-9.45,.16s-9.45-.07-9.45-.16,4.23-.16,9.45-.16,9.45,.07,9.45,.16Z" style="fill:#263238;"></path><path d="M242.46,42.2c-.08,.03-.2-.09-.21-.28,0-.19,.11-.32,.19-.29,.08,.03,.12,.15,.12,.28,0,.13-.02,.26-.11,.29Z" style="fill:#263238;"></path><path d="M243.38,39.32c.09,0,.17,.39,.19,.88,.02,.49-.03,.89-.12,.9-.09,0-.17-.39-.19-.88-.02-.49,.03-.89,.12-.9Z" style="fill:#263238;"></path><path d="M241.97,39.69c-.04,.08-.33,0-.68,.02-.35,.01-.63,.13-.68,.06-.06-.06,.21-.34,.66-.37,.45-.03,.75,.22,.7,.29Z" style="fill:#263238;"></path><path d="M239.54,43.6s-.19,.16-.59,.04c-.42-.2-.5-.77-.63-1.22-.04-.13-.07-.27-.05-.43,.02-.16,.12-.31,.23-.39,.23-.17,.5-.17,.68-.11,.36,.13,.48,.33,.46,.35-.03,.04-.21-.09-.51-.14-.29-.05-.72,.15-.51,.63,.14,.51,.2,.97,.43,1.11,.24,.13,.49,.1,.48,.16Z" style="fill:#263238;"></path><path d="M240.43,45.14c-.06,.06-.4-.2-.63-.65-.23-.45-.25-.87-.16-.89,.09-.02,.23,.34,.44,.74,.21,.41,.41,.73,.35,.79Z" style="fill:#263238;"></path><path d="M237.65,40.28c-.03-.08,.37-.33,.86-.62,.49-.29,.9-.52,.96-.45,.05,.07-.28,.42-.8,.72-.51,.3-.98,.43-1.02,.35Z" style="fill:#263238;"></path><path d="M237.75,40.75c-.04-.07,.34-.37,.87-.62,.54-.25,1.01-.33,1.04-.25,.03,.08-.39,.3-.91,.54-.52,.24-.96,.41-1,.33Z" style="fill:#263238;"></path><path d="M239.51,37.25c.03-.09,.85,.24,1.85,0,1-.23,1.59-.89,1.65-.82,.08,.03-.46,.86-1.58,1.12-1.12,.26-1.97-.24-1.92-.3Z" style="fill:#263238;"></path><path d="M246.74,38.52c.03,.08-.84,.28-1.78-.17-.95-.44-1.34-1.24-1.26-1.27,.08-.05,.54,.59,1.39,.98,.85,.41,1.64,.36,1.65,.45Z" style="fill:#263238;"></path><path d="M240.44,66.4c-.08-.01-.08-.51,.16-1.07,.24-.56,.59-.91,.66-.86,.07,.05-.15,.46-.37,.98-.22,.52-.36,.96-.45,.95Z" style="fill:#263238;"></path><path d="M238.18,69c-.08,.02-.22-.34-.18-.79,.04-.46,.24-.78,.32-.75,.08,.03,.03,.37,0,.78-.04,.41-.05,.75-.13,.76Z" style="fill:#263238;"></path><g style="opacity:.3;"><path d="M240.26,45.38c.3,.51,.74,.96,1.27,1.22,.53,.27,1.16,.35,1.74,.18,.57-.17,1.07-.59,1.29-1.14-1.37,.58-2.99,.53-4.32-.12"></path></g><path d="M267.31,25.79s-.1,.06-.3,.15c-.26,.11-.55,.23-.88,.38-.76,.33-1.86,.81-3.19,1.46-1.33,.65-2.89,1.47-4.57,2.47-.84,.5-1.72,1.03-2.51,1.72-.8,.68-1.45,1.57-1.8,2.62-.68,2.13-.44,4.33-.7,6.29-.24,1.98-.96,3.66-1.75,4.92-.79,1.27-1.65,2.14-2.28,2.69-.32,.27-.57,.47-.75,.59-.18,.13-.28,.19-.28,.18-.02-.02,.35-.29,.96-.86,.59-.57,1.42-1.45,2.17-2.72,.75-1.26,1.43-2.91,1.65-4.84,.25-1.92-.01-4.13,.69-6.36,.36-1.1,1.06-2.06,1.89-2.76,.82-.71,1.72-1.24,2.57-1.74,1.69-1,3.27-1.8,4.62-2.43,1.35-.63,2.46-1.08,3.24-1.37,.34-.12,.64-.23,.9-.32,.21-.07,.32-.1,.32-.09Z" style="fill:#263238;"></path><path d="M245.2,40.74c-.06,.06-.33-.15-.69-.2-.36-.06-.63,.12-.69,.07-.09-.04,.2-.45,.73-.38,.51,.08,.71,.47,.65,.51Z" style="fill:#263238;"></path><path d="M242.06,40.74c-.06,.06-.33-.15-.69-.2-.36-.06-.63,.12-.69,.07-.09-.04,.2-.45,.73-.38,.51,.08,.71,.47,.65,.51Z" style="fill:#263238;"></path><g style="opacity:.3;"><path d="M243.8,40.6c-.16-.23-.23-.5-.3-.76-.03-.1-.05-.21-.02-.31,.06-.16,.27-.22,.44-.18s.31,.15,.47,.22c.2,.1,.42,.15,.61,.24,.2,.09,.39,.24,.45,.46,.02,.07,.02,.15,0,.22-.03,.07-.09,.13-.16,.15-.1,.02-.2-.03-.29-.07-.29-.13-.62-.17-.93-.11"></path></g><g style="opacity:.3;"><path d="M229.62,49.08c-1.14-1.54-1.27-3.63-2.08-5.37-1.99-4.27-5.69-7.47-9.45-10.3-3.76-2.84-7.58-5.87-11.21-9.01-3.12-2.38-6.58-4.64-9.71-7.02,2.93,4.28,5.95,8.66,10.2,11.64,2.19,1.53,4.63,2.64,6.93,3.99,2.56,1.51,4.95,3.32,7.09,5.38,1.41,1.36,2.73,2.85,3.76,4.52,1.19,1.93,1.99,4.08,3.12,6.05,1.13,1.97,2.71,3.82,4.85,4.57-1.28-1.11-2.29-2.81-3.51-4.45Z"></path></g><path d="M221.88,46.27s-.43-.06-1.06-.33c-.61-.26-1.57-.81-1.88-1.92-.16-.55-.01-1.12,.24-1.52,.25-.41,.58-.69,.86-.89,.58-.39,.97-.54,.99-.51,.03,.04-.34,.27-.86,.69-.49,.39-1.2,1.19-.93,2.15,.26,.96,1.1,1.5,1.67,1.8,.59,.31,.99,.48,.97,.53Z" style="fill:#263238;"></path><path d="M219.64,41.72s-.38-.03-.95-.23c-.54-.2-1.41-.6-1.82-1.51-.2-.44-.23-.96-.07-1.36,.16-.41,.44-.68,.69-.86,.51-.35,.9-.41,.91-.37,.02,.05-.33,.18-.77,.55-.21,.19-.44,.44-.56,.78-.12,.34-.09,.75,.08,1.13,.35,.79,1.11,1.19,1.62,1.43,.53,.25,.88,.39,.86,.43Z" style="fill:#263238;"></path><path d="M214.68,36.06s-.21-.02-.57-.12c-.36-.1-.88-.25-1.51-.46-1.27-.41-2.99-1.04-4.86-1.85-1.87-.8-3.51-1.63-4.68-2.26-.58-.32-1.05-.58-1.37-.78-.32-.19-.49-.31-.48-.33,.02-.04,.76,.33,1.95,.91,1.19,.58,2.85,1.37,4.71,2.17,1.86,.8,3.57,1.46,4.81,1.93,1.24,.47,2.02,.75,2,.79Z" style="fill:#263238;"></path><path d="M203.46,28.62s-.52-.16-1.3-.56c-.78-.4-1.82-1.02-2.9-1.8-1.08-.79-1.99-1.59-2.61-2.21-.62-.62-.96-1.04-.93-1.06,.07-.07,1.58,1.47,3.73,3.02,2.14,1.56,4.06,2.53,4.02,2.62Z" style="fill:#263238;"></path><path d="M254,45.85c-.06-.06,.54-.68,1.33-1.36,.79-.69,1.48-1.19,1.53-1.13,.06,.07-.54,.68-1.33,1.36-.79,.69-1.48,1.19-1.53,1.13Z" style="fill:#263238;"></path><path d="M261.72,36.65c.05,.08-1.3,1-2.95,2.17-1.65,1.16-2.97,2.13-3.03,2.06-.05-.07,1.19-1.15,2.85-2.31,1.65-1.17,3.09-1.98,3.13-1.91Z" style="fill:#263238;"></path><path d="M264.22,32.91c.05,.07-1.46,1.23-3.37,2.59-1.91,1.36-3.5,2.41-3.55,2.34s1.46-1.23,3.37-2.59c1.91-1.36,3.5-2.41,3.55-2.34Z" style="fill:#263238;"></path><path d="M267.06,27.74c.05,.07-1.44,1.11-3.32,2.32-1.89,1.21-3.45,2.13-3.49,2.06-.04-.07,1.44-1.11,3.32-2.32,1.88-1.21,3.44-2.13,3.49-2.06Z" style="fill:#263238;"></path><g style="opacity:.3;"><path d="M258.12,30.07c-1.32,.73-2.68,1.51-3.54,2.75-.86,1.23-1.13,2.77-1.21,4.27-.08,1.5,.01,3.01-.21,4.49-.44,2.93-2.16,5.64-4.63,7.29l.3,.05c3.07-1.51,5.34-4.56,5.9-7.94,.34-2.07,.09-4.27,.87-6.21,.84-2.08,2.75-3.53,4.68-4.68,1.93-1.15,4.01-2.12,5.6-3.71-2.69,1-5.25,2.32-7.76,3.7Z"></path></g><g style="opacity:.3;"><path d="M229.71,35.19c.19-.04,.37-.08,.56-.12l-.03-.18s1.99-.93,4.24-2.12c2.03-1.08,2.34-3.45,1.4-5.17-.04-.04-.07-.09-.11-.13-.57,1.65-2.53,2.67-4.21,2.2,.22,.95-.53,2.01-1.5,2.12-.78,.09-1.67-.32-2.3,.16-.23,.17-.38,.44-.59,.64-.57,.53-1.51,.44-2.15,0-.14-.09-.27-.2-.39-.32,1.05,1.36,2.43,2.75,2.43,2.75v.38c.88,.15,1.78-.02,2.66-.21Z"></path></g></g><path d="M268.7,176.69c0,.09-10.07,.16-22.49,.16s-22.49-.07-22.49-.16,10.07-.16,22.49-.16,22.49,.07,22.49,.16Z" style="fill:#455a64;"></path><path d="M238.59,196s-.44-.88-1.18-2.27c-.74-1.4-1.85-3.28-3.29-5.2-1.45-1.92-2.94-3.52-4.08-4.62-1.14-1.1-1.89-1.73-1.85-1.77,.01-.02,.21,.12,.57,.39,.35,.27,.85,.68,1.44,1.21,1.18,1.06,2.72,2.65,4.18,4.59,1.46,1.94,2.55,3.86,3.24,5.29,.35,.72,.6,1.3,.76,1.72,.16,.41,.24,.65,.22,.65Z" style="fill:#455a64;"></path><path d="M245.85,179.11s-.66,.82-1.63,2.21c-.97,1.38-2.16,3.41-3.07,5.83-.9,2.42-1.35,4.72-1.53,6.4-.18,1.68-.17,2.73-.23,2.74-.02,0-.04-.26-.06-.74-.02-.48,0-1.17,.06-2.02,.13-1.7,.54-4.05,1.46-6.49,.92-2.44,2.16-4.48,3.18-5.84,.51-.68,.95-1.21,1.28-1.56,.33-.35,.51-.53,.53-.52Z" style="fill:#455a64;"></path><path d="M252.66,195.54c-.06,0-.08-1.02-.31-2.64-.23-1.62-.73-3.84-1.67-6.15-.95-2.31-2.15-4.24-3.12-5.56-.97-1.32-1.67-2.06-1.63-2.1,.02-.01,.2,.16,.52,.49,.33,.32,.77,.83,1.28,1.48,1.03,1.29,2.27,3.23,3.23,5.57,.95,2.34,1.43,4.6,1.6,6.24,.09,.82,.13,1.49,.12,1.95,0,.46-.01,.72-.03,.72Z" style="fill:#455a64;"></path><path d="M266.99,178.94s-.22,.22-.66,.56c-.44,.34-1.06,.85-1.82,1.49-1.5,1.29-3.48,3.21-5.36,5.58-1.87,2.38-3.28,4.74-4.19,6.5-.46,.88-.81,1.6-1.03,2.11-.23,.5-.37,.78-.39,.77-.02,0,.08-.3,.28-.82,.19-.52,.52-1.26,.95-2.16,.86-1.8,2.25-4.2,4.14-6.59,1.89-2.39,3.91-4.3,5.46-5.55,.77-.63,1.42-1.11,1.89-1.42,.46-.31,.72-.48,.73-.46Z" style="fill:#455a64;"></path><path d="M272.11,417.09c-1.05-1.24-3.66-4.17-4.89-4.69-1.22-.52-4.48-.92-6.75-.39-2.27,.52-3.89,2.31-5.99,5.1s-2.09,3.32-4.54,3.89c-2.44,.57-4.54-.57-8.38-1.1-3.84-.52-7.51,2.17-8.38,2.27-4.54,.52-6.81,2.09-9.95,8.38-3.14,6.28-.17,8.55,1.05,7.33,1.22-1.22-.35-4.71,2.24-8.55,2.58-3.84,4.75-4.71,4.75-4.71,0,0-.35,5.06-1.57,7.85-1.22,2.79-2.44,2.44-3,3.49-.4,.76,.72,3.51,1.22,5.03h-3.93v2.86h44.17v-2.86h-3.55c-.06-.38-.18-.83-.36-1.36-.16-.47-2.62-2.27-2.62-2.27,0,0,0-5.76,1.05-6.63,1.05-.87,3.49-6.63,3.49-6.63,0,0,2.09,.87,3.14,1.05,1.05,.17,1.75-.52,1.92-1.57,.17-1.05-3.14-1.4-3.14-1.4l3.14-1.05s1.92-2.79,.87-4.04Zm-34.73,23.23c.47-.29,3.49-5.06,3.49-5.06h4.19l3.49,1.05s.52,1.57,.35,1.92c-.12,.24-1.16,1.42-1.73,2.76h-10.29c-.1-.15,.02-.36,.51-.66Zm-7.18-.35s.37-2.79,.02-2.79,3.66-1.75,3.66-1.75l.7,1.57s-.65,2.86-1.17,3.98h-2.85c0-.41-.37-1.01-.37-1.01Zm21.15,1.01c.62-1.24,1.36-2.69,1.45-2.76,3.21-2.29,4.8,1.19,5.19,2.76h-6.64Z" style="fill:#263238;"></path><path d="M328.5,476.41c0,.09-36.84,.16-82.28,.16s-82.29-.07-82.29-.16,36.84-.16,82.29-.16,82.28,.07,82.28,.16Z" style="fill:#263238;"></path><path d="M334.96,479.75c0,.09-39.49,.16-88.18,.16s-88.19-.07-88.19-.16,39.48-.16,88.19-.16,88.18,.07,88.18,.16Z" style="fill:#263238;"></path><path d="M341.11,483.1c0,.09-41.77,.16-93.28,.16s-93.29-.07-93.29-.16,41.76-.16,93.29-.16,93.28,.07,93.28,.16Z" style="fill:#263238;"></path><path d="M345.79,486.46c0,.09-43.6,.16-97.37,.16s-97.38-.07-97.38-.16,43.59-.16,97.38-.16,97.37,.07,97.37,.16Z" style="fill:#263238;"></path><path d="M279.15,356.39c0,.09-14.29,.16-31.91,.16s-31.91-.07-31.91-.16,14.29-.16,31.91-.16,31.91,.07,31.91,.16Z" style="fill:#455a64;"></path><path d="M279.44,357.98c0,.09-14.32,.16-31.98,.16s-31.99-.07-31.99-.16,14.32-.16,31.99-.16,31.98,.07,31.98,.16Z" style="fill:#455a64;"></path><g style="opacity:.3;"><polygon points="231.51 203 231.51 199.26 260.05 199.26 260.22 202.97 231.51 203"></polygon></g><path d="M228.55,383.91c0,.09-2.76,.16-6.17,.16s-6.17-.07-6.17-.16,2.76-.16,6.17-.16,6.17,.07,6.17,.16Z" style="fill:#263238;"></path><path d="M278.54,383.91c0,.09-2.74,.16-6.12,.16s-6.12-.07-6.12-.16,2.74-.16,6.12-.16,6.12,.07,6.12,.16Z" style="fill:#263238;"></path><path d="M256.87,410.9s-.01-.14-.02-.39c0-.29,0-.65-.02-1.1,0-1-.02-2.39-.04-4.13-.02-3.59-.04-8.62-.07-14.64l.13,.14c-5.9,0-12.85,.01-20.26,.02-.04,.03,.29-.29,.15-.15h0v2.75c0,.91,0,1.82,0,2.71,0,1.79,0,3.54,0,5.24,0,3.4-.01,6.61-.02,9.56l-.13-.14c6.02,.03,11.06,.05,14.64,.07,1.74,.01,3.13,.03,4.13,.04,.45,0,.81,.01,1.1,.02,.25,0,.39,.02,.39,.02,0,0-.12,.01-.36,.02-.28,0-.63,0-1.07,.02-1,0-2.37,.02-4.1,.04-3.61,.02-8.67,.04-14.73,.07h-.13v-.14c0-2.95-.01-6.16-.02-9.56,0-1.7,0-3.45,0-5.24,0-.89,0-1.8,0-2.71,0-.46,0-.91,0-1.37v-1.36h0v-.02c-.14,.14,.19-.19,.16-.16,7.41,0,14.36,.01,20.26,.02h.14v.14c-.03,6.06-.05,11.12-.07,14.73-.01,1.73-.03,3.1-.04,4.1l-.02,1.07c0,.24-.01,.36-.02,.36Z" style="fill:#263238;"></path></g><path d="M244.6,51.35c-.09,.02-.28-.47-.6-1.02-.31-.56-.62-.99-.56-1.05,.06-.06,.5,.29,.83,.89,.34,.6,.41,1.16,.33,1.18Z" style="fill:#263238;"></path><g style="opacity:.3;"><path d="M258.31,74.6c-1.61-.73-3.13-1.64-4.54-2.7-.2-.15-.42-.34-.43-.59,0-.27,.25-.5,.52-.55,.27-.05,.54,.03,.81,.11,1.27,.38,2.54,.76,3.8,1.14,0,0-.11,.75-.12,1.19,0,.44,.06,1.32,.06,1.32l-.11,.09Z"></path></g><g><rect x="127.18" y="466.06" width="14.03" height="3.37" style="fill:#e0e0e0;"></rect><g style="opacity:.3;"><rect x="127.18" y="466.06" width="14.03" height="3.37"></rect></g><rect x="124.6" y="478.48" width="19.05" height="9.59" style="fill:#e0e0e0;"></rect><path d="M127,468.8h14.09c.87,0,1.58,.71,1.58,1.58v9.26c0,.21-.17,.37-.37,.37h-16.2c-.21,0-.37-.17-.37-.37v-9.56c0-.7,.57-1.27,1.27-1.27Z" style="fill:#e0e0e0;"></path><rect x="125.74" y="463.79" width="16.78" height="2.27" rx=".92" ry=".92" style="fill:#e0e0e0;"></rect><path d="M129.15,461.83h9.96c1.12,0,2.03,.91,2.03,2.03v.47h-14.03v-.47c0-1.12,.91-2.03,2.03-2.03Z" style="fill:#e0e0e0;"></path><rect x="129.23" y="458.38" width="9.8" height="3.76" style="fill:#e0e0e0;"></rect><rect x="127.66" y="456.18" width="12.93" height="2.19" rx=".89" ry=".89" style="fill:#e0e0e0;"></rect><rect x="128.88" y="450.38" width="10.5" height="5.8" style="fill:#e0e0e0;"></rect><g style="opacity:.3;"><rect x="128.88" y="450.38" width="10.5" height="5.8"></rect></g><path d="M129.54,447.87h9.18c1.12,0,2.03,.91,2.03,2.03v.47h-13.25v-.47c0-1.12,.91-2.03,2.03-2.03Z" style="fill:#e0e0e0;"></path><rect x="128.56" y="445.44" width="11.13" height="2.43" rx=".98" ry=".98" style="fill:#e0e0e0;"></rect><path d="M137.23,422.36c-.33-3.88-2.52-4.01-3.1-3.98-.58-.03-2.77,.1-3.1,3.98-.38,4.47-1.15,23.08-1.15,23.08h8.49s-.77-18.61-1.15-23.08Z" style="fill:#e0e0e0;"></path><path d="M143.65,478.38c0,.09-4.23,.16-9.46,.16s-9.46-.07-9.46-.16,4.23-.16,9.46-.16,9.46,.07,9.46,.16Z" style="fill:#263238;"></path><path d="M141.46,463.79c0,.09-3.24,.16-7.23,.16s-7.24-.07-7.24-.16,3.24-.16,7.24-.16,7.23,.07,7.23,.16Z" style="fill:#263238;"></path><path d="M141.41,466c0,.09-3.18,.16-7.1,.16s-7.1-.07-7.1-.16,3.18-.16,7.1-.16,7.1,.07,7.1,.16Z" style="fill:#263238;"></path><path d="M138.82,461.8c0,.09-2.15,.16-4.81,.16s-4.81-.07-4.81-.16,2.15-.16,4.81-.16,4.81,.07,4.81,.16Z" style="fill:#263238;"></path><path d="M138.97,458.34c0,.09-2.17,.16-4.84,.16s-4.84-.07-4.84-.16,2.17-.16,4.84-.16,4.84,.07,4.84,.16Z" style="fill:#263238;"></path><path d="M139.24,456.21c0,.09-2.31,.16-5.17,.16s-5.17-.07-5.17-.16,2.31-.16,5.17-.16,5.17,.07,5.17,.16Z" style="fill:#263238;"></path><path d="M140.2,450.45c0,.09-2.82,.16-6.3,.16s-6.3-.07-6.3-.16,2.82-.16,6.3-.16,6.3,.07,6.3,.16Z" style="fill:#263238;"></path><path d="M138.92,447.83c0,.09-2.06,.16-4.59,.16s-4.59-.07-4.59-.16,2.06-.16,4.59-.16,4.59,.07,4.59,.16Z" style="fill:#263238;"></path><path d="M138.3,445.49c0,.09-1.89,.16-4.23,.16s-4.23-.07-4.23-.16,1.89-.16,4.23-.16,4.23,.07,4.23,.16Z" style="fill:#263238;"></path></g><g><rect x="364.26" y="466.06" width="14.03" height="3.37" style="fill:#e0e0e0;"></rect><g style="opacity:.3;"><rect x="364.26" y="466.06" width="14.03" height="3.37"></rect></g><rect x="361.69" y="478.48" width="19.05" height="9.59" style="fill:#e0e0e0;"></rect><path d="M364.08,468.8h14.09c.87,0,1.58,.71,1.58,1.58v9.26c0,.21-.17,.37-.37,.37h-16.2c-.21,0-.37-.17-.37-.37v-9.56c0-.7,.57-1.27,1.27-1.27Z" style="fill:#e0e0e0;"></path><path d="M363.74,463.79h14.93c.51,0,.92,.41,.92,.92v.43c0,.51-.41,.92-.92,.92h-14.93c-.51,0-.92-.41-.92-.92v-.43c0-.51,.41-.92,.92-.92Z" style="fill:#e0e0e0;"></path><path d="M366.23,461.83h9.96c1.12,0,2.03,.91,2.03,2.03v.47h-14.03v-.47c0-1.12,.91-2.03,2.03-2.03Z" style="fill:#e0e0e0;"></path><rect x="366.31" y="458.38" width="9.8" height="3.76" style="fill:#e0e0e0;"></rect><rect x="364.74" y="456.18" width="12.93" height="2.19" rx=".89" ry=".89" style="fill:#e0e0e0;"></rect><rect x="365.96" y="450.38" width="10.5" height="5.8" style="fill:#e0e0e0;"></rect><g style="opacity:.3;"><rect x="365.96" y="450.38" width="10.5" height="5.8"></rect></g><path d="M366.62,447.87h9.18c1.12,0,2.03,.91,2.03,2.03v.47h-13.25v-.47c0-1.12,.91-2.03,2.03-2.03Z" style="fill:#e0e0e0;"></path><rect x="365.65" y="445.44" width="11.13" height="2.43" rx=".98" ry=".98" style="fill:#e0e0e0;"></rect><path d="M374.31,422.36c-.33-3.88-2.52-4.01-3.1-3.98-.58-.03-2.77,.1-3.1,3.98-.38,4.47-1.15,23.08-1.15,23.08h8.49s-.77-18.61-1.15-23.08Z" style="fill:#e0e0e0;"></path><path d="M380.74,478.38c0,.09-4.23,.16-9.46,.16s-9.46-.07-9.46-.16,4.23-.16,9.46-.16,9.46,.07,9.46,.16Z" style="fill:#263238;"></path><path d="M378.54,463.79c0,.09-3.24,.16-7.23,.16s-7.24-.07-7.24-.16,3.24-.16,7.24-.16,7.23,.07,7.23,.16Z" style="fill:#263238;"></path><path d="M378.5,466c0,.09-3.18,.16-7.1,.16s-7.1-.07-7.1-.16,3.18-.16,7.1-.16,7.1,.07,7.1,.16Z" style="fill:#263238;"></path><path d="M375.9,461.8c0,.09-2.15,.16-4.81,.16s-4.81-.07-4.81-.16,2.15-.16,4.81-.16,4.81,.07,4.81,.16Z" style="fill:#263238;"></path><path d="M376.06,458.34c0,.09-2.17,.16-4.84,.16s-4.84-.07-4.84-.16,2.17-.16,4.84-.16,4.84,.07,4.84,.16Z" style="fill:#263238;"></path><path d="M376.32,456.21c0,.09-2.31,.16-5.17,.16s-5.17-.07-5.17-.16,2.31-.16,5.17-.16,5.17,.07,5.17,.16Z" style="fill:#263238;"></path><path d="M377.28,450.45c0,.09-2.82,.16-6.3,.16s-6.31-.07-6.31-.16,2.82-.16,6.31-.16,6.3,.07,6.3,.16Z" style="fill:#263238;"></path><path d="M376,447.83c0,.09-2.06,.16-4.59,.16s-4.59-.07-4.59-.16,2.06-.16,4.59-.16,4.59,.07,4.59,.16Z" style="fill:#263238;"></path><path d="M375.38,445.49c0,.09-1.89,.16-4.23,.16s-4.23-.07-4.23-.16,1.89-.16,4.23-.16,4.23,.07,4.23,.16Z" style="fill:#263238;"></path></g><path d="M268.29,440.89c0,.09-9.97,.16-22.27,.16s-22.27-.07-22.27-.16,9.97-.16,22.27-.16,22.27,.07,22.27,.16Z" style="fill:#455a64;"></path><path d="M199.5,437.25c0,.09-6.6,.16-14.74,.16s-14.74-.07-14.74-.16,6.6-.16,14.74-.16,14.74,.07,14.74,.16Z" style="fill:#455a64;"></path></g></g></svg>
