<svg xmlns="http://www.w3.org/2000/svg" viewBox="0 0 500 500"><g id="background-complete"><path d="M58.49,291.67a1.35,1.35,0,0,1,0-.24v-.66c0-.6,0-1.45,0-2.53,0-2.22-.05-5.42-.08-9.44l.15.15L9.84,279l.24-.24h0v12.85l-.24-.25,34.67.11,10.23.07,2.77,0h.72l.26,0h-.23l-.69,0-2.72,0-10.17.07-34.84.11H9.59V278.82h0l.25-.25,48.65.09h.15v.15c0,4.06-.06,7.29-.08,9.53,0,1.07,0,1.9,0,2.5,0,.26,0,.47,0,.63A1.66,1.66,0,0,1,58.49,291.67Z" style="fill:#e0e0e0"></path><path d="M471.65,59.52s0-.08,0-.23l0-.66c0-.61,0-1.45,0-2.54,0-2.22,0-5.41-.08-9.44l.15.15L423,46.9l.25-.25h0v3.27c0,1.09,0,2.17,0,3.25v6.33l-.24-.24,34.67.11,10.23.07,2.77,0h.72a1.33,1.33,0,0,1,.26,0s-.07,0-.22,0h-.7l-2.71,0-10.18.07L423,59.76h-.24v-.24q0-3.1,0-6.33V46.67h0l.25-.25,48.65.1h.15v.15c0,4.06-.06,7.29-.08,9.53,0,1.07,0,1.9,0,2.5,0,.26,0,.47,0,.64S471.66,59.52,471.65,59.52Z" style="fill:#e0e0e0"></path><path d="M461.52,301.92s0-.09,0-.24l0-.66c0-.6,0-1.45,0-2.53,0-2.22,0-5.42-.09-9.45l.15.15-48.65.1.25-.25h0v6.53c0,2.15,0,4.27,0,6.33l-.24-.24,34.67.11,10.24.07,2.76,0,.73,0a.72.72,0,0,1,.25,0h-.22l-.7,0-2.71,0-10.18.07-34.84.11h-.24v-.25c0-2.06,0-4.18,0-6.33v-6.53h0l.25-.24,48.65.09h.15V289c0,4.07-.06,7.29-.08,9.54,0,1.07,0,1.9,0,2.5,0,.26,0,.47,0,.63A.85.85,0,0,1,461.52,301.92Z" style="fill:#e0e0e0"></path><rect x="255.51" y="17.55" width="48.65" height="12.87" style="fill:#ebebeb"></rect><path d="M283.59,44a1,1,0,0,1,0-.23c0-.17,0-.39,0-.66,0-.61,0-1.45,0-2.53,0-2.22,0-5.42-.08-9.45l.15.15-48.65.1c.11-.11-.25.25.24-.25h0V44l-.24-.24,34.67.11,10.23.07,2.77,0,.72,0h.26l-.23,0-.69,0L280,44l-10.17.07-34.84.11h-.25V31.11h0c.49-.49.14-.13.25-.24l48.65.09h.15v.15c0,4.07-.06,7.29-.08,9.54,0,1.07,0,1.9,0,2.5,0,.26,0,.46,0,.63A1.23,1.23,0,0,1,283.59,44Z" style="fill:#e0e0e0"></path><rect x="438.33" y="167.76" width="43.04" height="12.87" style="fill:#ebebeb"></rect><path d="M80.6,59.52a1.17,1.17,0,0,1,0-.23v-.66c0-.61,0-1.45,0-2.54,0-2.22,0-5.41-.08-9.44l.15.15L32,46.9c.11-.11-.25.24.24-.25h0V59.52l-.25-.24,34.68.11,10.23.07,2.77,0h.72l.26,0-.23,0h-.69l-2.72,0-10.18.07-34.84.11H31.7V46.67h0L32,46.4l48.65.1h.15v.15c0,4.06-.07,7.29-.09,9.53,0,1.07,0,1.9,0,2.5l0,.64A1.39,1.39,0,0,1,80.6,59.52Z" style="fill:#e0e0e0"></path><path d="M87.19,46.65s0-.09,0-.25,0-.41,0-.68c0-.63,0-1.49,0-2.58,0-2.26,0-5.44-.09-9.36l.17.18L58,34c-.22.22.3-.31.25-.25h0v6.61c0,2.15,0,4.24,0,6.24L58,46.41l20.91.11,6.09.07,1.65,0,.58,0a3.28,3.28,0,0,1-.53,0l-1.59,0-6,.06L58,46.88h-.23v-.24c0-2,0-4.09,0-6.24,0-1.08,0-2.17,0-3.28V33.8h0l.25-.25,29.23.07h.18v.18c0,4-.07,7.19-.09,9.47,0,1.07,0,1.92,0,2.54A4.88,4.88,0,0,1,87.19,46.65Z" style="fill:#e0e0e0"></path></g><g id="background-simple"><path d="M474.44,54.75l-1.38-2.28c-11.63-19.17-32.67-30.72-54.84-29.32a58,58,0,0,0-8.49,1.16c-20.17,4.32-37.71,19.57-45,39.1-4.28,11.48-5.47,24.7-13.59,33.82-10.56,11.86-28.5,12.24-44.26,11.75s-33.72-.08-44.23,11.83c-6.58,7.46-8.67,18.07-8.14,28.06,1.4,26.45,19.83,50.1,43.27,61.85s51,12.81,76.69,7.64c35.93-7.24,70.11-27.14,90.65-57.86S490.88,87.91,474.44,54.75Z" style="fill:#f5f5f5"></path><circle cx="72.53" cy="74.69" r="50.93" style="fill:#f5f5f5"></circle></g><g id="Floor"><path d="M481,465.16c0,.14-103.42.26-231,.26s-231-.12-231-.26,103.4-.26,231-.26S481,465,481,465.16Z" style="fill:#263238"></path></g><g id="Store"><rect x="39.79" y="59.76" width="407.91" height="405.4" style="fill:#455a64"></rect><path d="M431,449.4H279.26V74H431ZM280.64,448h149V75.38H280.64Z" style="fill:#263238"></path><rect x="286" y="81.1" width="137.61" height="360.48" style="fill:#fff"></rect><polygon points="423.61 102.09 286 227.52 286 250.18 423.61 123.79 423.61 102.09" style="fill:#fff"></polygon><path d="M430.23,302H413.1a13.8,13.8,0,0,1-13.79-13.79V217.29A13.81,13.81,0,0,1,413.1,203.5h17.13v4.14H413.1a9.66,9.66,0,0,0-9.65,9.65v70.92a9.66,9.66,0,0,0,9.65,9.65h17.13Z" style="fill:#263238"></path><rect x="59.38" y="74.69" width="210.02" height="374.03" style="fill:#fff"></rect><path d="M88.65,107v18h4.71s-7.74,6.39-8.41,12.45h27.59s0-4.58-8.44-12.32h4.65V107Z" style="fill:#263238"></path><path d="M98.75,114.68c-.2,0-.36-9.1-.36-20.33S98.55,74,98.75,74s.35,9.1.35,20.33S98.94,114.68,98.75,114.68Z" style="fill:#263238"></path><path d="M86.24,153.31c-.18-.08.73-2.58,2-5.58s2.51-5.36,2.7-5.28-.73,2.57-2,5.57S86.43,153.39,86.24,153.31Z" style="fill:#263238"></path><path d="M98,158.44c-.19,0-.35-3.57-.35-8s.16-8,.35-8,.36,3.58.36,8S98.18,158.44,98,158.44Z" style="fill:#263238"></path><path d="M111.25,150.52c-.16.12-1.67-1.56-3.39-3.75s-3-4.07-2.81-4.19,1.67,1.55,3.38,3.75S111.4,150.4,111.25,150.52Z" style="fill:#263238"></path><path d="M151.13,107v18h4.71s-7.74,6.39-8.42,12.45H175s0-4.58-8.44-12.32h4.65V107Z" style="fill:#263238"></path><path d="M161.22,114.68c-.2,0-.36-9.1-.36-20.33S161,74,161.22,74s.36,9.1.36,20.33S161.42,114.68,161.22,114.68Z" style="fill:#263238"></path><path d="M148.72,153.31c-.18-.08.73-2.58,2-5.58s2.51-5.36,2.69-5.28-.73,2.57-2,5.57S148.9,153.39,148.72,153.31Z" style="fill:#263238"></path><path d="M160.46,158.44c-.2,0-.36-3.57-.36-8s.16-8,.36-8,.36,3.58.36,8S160.66,158.44,160.46,158.44Z" style="fill:#263238"></path><path d="M173.72,150.52c-.15.12-1.67-1.56-3.38-3.75s-3-4.07-2.82-4.19,1.67,1.55,3.39,3.75S173.88,150.4,173.72,150.52Z" style="fill:#263238"></path><path d="M213.6,107v18h4.71s-7.74,6.39-8.41,12.45h27.59s0-4.58-8.43-12.32h4.65V107Z" style="fill:#263238"></path><path d="M223.7,114.68c-.2,0-.36-9.1-.36-20.33S223.5,74,223.7,74s.36,9.1.36,20.33S223.9,114.68,223.7,114.68Z" style="fill:#263238"></path><path d="M211.2,153.31c-.19-.08.73-2.58,2-5.58s2.51-5.36,2.7-5.28-.73,2.57-2,5.57S211.38,153.39,211.2,153.31Z" style="fill:#263238"></path><path d="M222.94,158.44c-.2,0-.36-3.57-.36-8s.16-8,.36-8,.36,3.58.36,8S223.14,158.44,222.94,158.44Z" style="fill:#263238"></path><path d="M236.2,150.52c-.16.12-1.67-1.56-3.38-3.75s-3-4.07-2.82-4.19,1.67,1.55,3.38,3.75S236.35,150.4,236.2,150.52Z" style="fill:#263238"></path><rect x="48.85" y="262.46" width="225.26" height="17.54" style="fill:#455a64"></rect><rect x="59.38" y="306.27" width="210.02" height="23.75" style="fill:#263238"></rect><polygon points="146.94 327.93 146.94 440.37 116 448.71 193.94 448.71 164.39 439.86 164.39 327.93 146.94 327.93" style="fill:#263238"></polygon><path d="M178.51,327.93c-.87,0-15.78,21.18-15.78,21.18v7.56L185.21,329Z" style="fill:#263238"></path><path d="M133.77,327.93c.86,0,15.78,21.18,15.78,21.18v7.56L127.07,329Z" style="fill:#263238"></path><path d="M264.11,329.8c0,.08-46,.14-102.8.14S58.5,329.88,58.5,329.8s46-.15,102.81-.15S264.11,329.72,264.11,329.8Z" style="fill:#455a64"></path><path d="M112.77,306.35l-.56.12-1.64.32c-1.42.28-3.46.73-5.95,1.45a63.59,63.59,0,0,0-8.5,3.14,70.36,70.36,0,0,0-9.69,5.42,94.39,94.39,0,0,1-9.59,5.68,29.27,29.27,0,0,1-8.67,2.74,18.61,18.61,0,0,1-6.12-.12,12.06,12.06,0,0,1-2.17-.61l.57.14a15.89,15.89,0,0,0,1.62.36,19.43,19.43,0,0,0,6.08,0,29.67,29.67,0,0,0,8.58-2.78,97.5,97.5,0,0,0,9.54-5.69A69.63,69.63,0,0,1,96,311.14a60.78,60.78,0,0,1,8.56-3.1A53.68,53.68,0,0,1,112.77,306.35Z" style="fill:#455a64"></path><path d="M131.19,318l-1.13-.49a17.94,17.94,0,0,0-8.92-1.14,17.61,17.61,0,0,0-6.91,2.36,6.15,6.15,0,0,0-2.91,2.94,2.59,2.59,0,0,0,.23,2.12,4.26,4.26,0,0,0,1.72,1.5,11.76,11.76,0,0,0,4.78,1.09,28.36,28.36,0,0,0,5.27-.16,64.83,64.83,0,0,0,11.06-2.47,15,15,0,0,0,5.37-2.48,4.93,4.93,0,0,0,1.66-2.43,4.3,4.3,0,0,0-.22-2.95,6.8,6.8,0,0,0-4.55-3.71,19.47,19.47,0,0,0-5.93-.48,73.09,73.09,0,0,0-11.28,1.16,62.75,62.75,0,0,0-18.14,6.16,49.26,49.26,0,0,0-10.54,7.48,32.79,32.79,0,0,0-2.48,2.5c-.55.59-.85.89-.85.89s.27-.33.8-.93a32.17,32.17,0,0,1,2.45-2.54,48.53,48.53,0,0,1,10.53-7.58,62.48,62.48,0,0,1,18.18-6.24,72.48,72.48,0,0,1,11.32-1.18,19.87,19.87,0,0,1,6,.49,7.12,7.12,0,0,1,4.74,3.86,4.69,4.69,0,0,1,.23,3.15,5.3,5.3,0,0,1-1.75,2.57,15.1,15.1,0,0,1-5.48,2.53,66.67,66.67,0,0,1-11.11,2.47,29.68,29.68,0,0,1-5.31.14,12,12,0,0,1-4.88-1.12,4.57,4.57,0,0,1-1.8-1.6,2.75,2.75,0,0,1-.25-2.3,6.33,6.33,0,0,1,3-3.05,17.78,17.78,0,0,1,7-2.35,18.64,18.64,0,0,1,5.58.22,17.17,17.17,0,0,1,3.38,1C130.82,317.83,131.19,318,131.19,318Z" style="fill:#455a64"></path><path d="M146.23,307.4a5.47,5.47,0,0,1,1.18.51,9.53,9.53,0,0,1,2.72,2.23,10.65,10.65,0,0,1,2.28,4.67,11.32,11.32,0,0,1-.56,6.32,12.75,12.75,0,0,1-3.67,5.19,14.5,14.5,0,0,1-4.52,2.59,15,15,0,0,1-3.43.78,9.34,9.34,0,0,1-1.28.07s.45-.06,1.27-.18a17.44,17.44,0,0,0,3.37-.86,14.6,14.6,0,0,0,4.41-2.6,12.67,12.67,0,0,0,3.58-5.09,11.17,11.17,0,0,0,.57-6.17,10.46,10.46,0,0,0-5.92-7.46Z" style="fill:#455a64"></path><path d="M186.59,306.08s-.62,0-1.71.27a11.91,11.91,0,0,0-4.22,2,20.52,20.52,0,0,0-4.77,5.06c-1.52,2.16-2.91,4.72-4.66,7.23a21.4,21.4,0,0,1-12.59,8.81,19.49,19.49,0,0,1-4.7.61,12.5,12.5,0,0,1-1.74-.08s.62,0,1.73,0A21.5,21.5,0,0,0,171,320.47c1.74-2.49,3.14-5.05,4.68-7.21a20.46,20.46,0,0,1,4.87-5.07,11.6,11.6,0,0,1,4.32-1.95A7.2,7.2,0,0,1,186.59,306.08Z" style="fill:#455a64"></path><path d="M236.83,307l-.75-.14a19.36,19.36,0,0,0-2.18-.25,21.11,21.11,0,0,0-7.91,1.23,41.37,41.37,0,0,0-10.44,5.73c-3.68,2.58-7.55,5.76-12.18,8.2a27.73,27.73,0,0,1-7.14,2.65,14.84,14.84,0,0,1-7.08-.07,8.27,8.27,0,0,1-5.14-3.69,7.58,7.58,0,0,1-.69-5.49,9.65,9.65,0,0,1,2.1-4.1,13.56,13.56,0,0,1,2.59-2.33,14.4,14.4,0,0,1,2.59-1.45l-.67.38a16.59,16.59,0,0,0-1.85,1.17,13.48,13.48,0,0,0-2.54,2.33,9.67,9.67,0,0,0-2,4,7.39,7.39,0,0,0,.69,5.33,8.09,8.09,0,0,0,5,3.56c4.38,1.2,9.47-.2,14-2.59s8.47-5.58,12.17-8.15a40.4,40.4,0,0,1,10.53-5.71,20.73,20.73,0,0,1,8-1.15A12.9,12.9,0,0,1,236.83,307Z" style="fill:#455a64"></path><path d="M249.21,321.37a1.25,1.25,0,0,0,.93-.13,1.74,1.74,0,0,0,.76-.85,1.64,1.64,0,0,0-.13-1.52,2.82,2.82,0,0,0-1.53-1.2,5.39,5.39,0,0,0-2.36-.13,15.67,15.67,0,0,0-2.7.53,4.88,4.88,0,0,0-2.52,1.63,2.75,2.75,0,0,0-.3,3.09,5.21,5.21,0,0,0,3,2,21.43,21.43,0,0,0,8,1c2.81-.21,6-.79,8.28-2.93a4.61,4.61,0,0,0,1.47-4.21,6.07,6.07,0,0,0-2.7-3.83c-2.81-1.79-6.24-1.83-9.31-1.94a35.44,35.44,0,0,0-8.94,1.07,43.13,43.13,0,0,0-7.69,2.73,44.12,44.12,0,0,0-6.15,3.58,43.24,43.24,0,0,0-7.71,6.81c-.84.89-1.4,1.66-1.81,2.15s-.63.75-.63.75l.59-.78a26.6,26.6,0,0,1,1.77-2.19,41.34,41.34,0,0,1,7.68-6.91,44.71,44.71,0,0,1,6.16-3.63,43.31,43.31,0,0,1,7.73-2.77,35.4,35.4,0,0,1,9-1.09,19,19,0,0,1,2.38.1,21.85,21.85,0,0,1,2.41.24,11.77,11.77,0,0,1,4.68,1.64,6.33,6.33,0,0,1,2.82,4,4.89,4.89,0,0,1-1.55,4.46c-2.4,2.22-5.62,2.78-8.46,3a21.73,21.73,0,0,1-8.13-1,5.48,5.48,0,0,1-3.08-2.07,3,3,0,0,1,.33-3.33,5,5,0,0,1,2.62-1.69,17.31,17.31,0,0,1,2.75-.51,5.53,5.53,0,0,1,2.42.16,2.9,2.9,0,0,1,1.58,1.28,1.77,1.77,0,0,1,.11,1.6,1.82,1.82,0,0,1-.81.87A1.08,1.08,0,0,1,249.21,321.37Z" style="fill:#455a64"></path><path d="M60,312.64l.34.17c.22.11.53.3,1,.5a24.18,24.18,0,0,0,3.65,1.54,24.69,24.69,0,0,0,24.43-4.94,25.85,25.85,0,0,0,2.77-2.83c.31-.35.52-.65.68-.84s.24-.29.25-.28a19.91,19.91,0,0,1-3.56,4.11,24.41,24.41,0,0,1-24.64,5A19.8,19.8,0,0,1,60,312.64Z" style="fill:#455a64"></path><path d="M163.93,331.6l-.35.47-1,1.31a57.73,57.73,0,0,0-3.49,5,33.31,33.31,0,0,0-3.72,8.24,38.68,38.68,0,0,0-1.11,11,110.86,110.86,0,0,1-.08,11.15,26.4,26.4,0,0,1-2.24,8.82,15.42,15.42,0,0,1-3.59,5,10.37,10.37,0,0,1-1.33,1c-.31.22-.49.32-.49.32s.68-.44,1.74-1.42a15.83,15.83,0,0,0,3.49-5,26.83,26.83,0,0,0,2.16-8.75c.31-3.41.1-7.18.05-11.13a38.19,38.19,0,0,1,1.15-11.09,32.86,32.86,0,0,1,3.79-8.27,52.92,52.92,0,0,1,3.59-5C163.38,332.19,163.93,331.6,163.93,331.6Z" style="fill:#455a64"></path><path d="M160.68,372.66a8.68,8.68,0,0,1-.22-2.34,10.9,10.9,0,0,1,2.07-6.17l.11-.16.05.19a29.72,29.72,0,0,1-.52,16.31c-.21.62-.43,1.25-.68,1.87a2.81,2.81,0,0,1-1.24,1.67,1,1,0,0,1-1.1-.24,2.5,2.5,0,0,1-.51-1c-.18-.67-.37-1.35-.55-2-.36-1.37-.67-2.79-.91-4.24a54.67,54.67,0,0,1,2.11-26.5,56.34,56.34,0,0,1,3.21-7.46c.93-1.68,1.49-2.58,1.49-2.58s-.11.24-.35.68-.62,1.16-1,1.95a59.09,59.09,0,0,0-3.11,7.47,55,55,0,0,0-2,26.4c.23,1.43.54,2.84.89,4.21.19.68.37,1.36.55,2a2.33,2.33,0,0,0,.44.86.72.72,0,0,0,.79.18,2.52,2.52,0,0,0,1.09-1.52c.26-.61.47-1.23.68-1.85a30,30,0,0,0,.94-3.67,29.52,29.52,0,0,0-.34-12.5l.17,0a10.93,10.93,0,0,0-2.12,6.06,10.7,10.7,0,0,0,.06,1.74C160.67,372.45,160.68,372.66,160.68,372.66Z" style="fill:#455a64"></path><path d="M164.43,388.13a3.67,3.67,0,0,1-.16,1,6.85,6.85,0,0,1-1.37,2.55,12.73,12.73,0,0,1-3.29,2.76c-1.36.86-3,1.65-4.48,2.69a17.85,17.85,0,0,0-6,7.14,19.07,19.07,0,0,0-1,2.68c-.18.65-.27,1-.29,1a13.63,13.63,0,0,1,1.12-3.78,17.31,17.31,0,0,1,6-7.3c1.55-1.06,3.14-1.83,4.5-2.68a12.79,12.79,0,0,0,3.27-2.66,7.32,7.32,0,0,0,1.42-2.45C164.37,388.5,164.4,388.12,164.43,388.13Z" style="fill:#455a64"></path><path d="M157.12,422.12a5.4,5.4,0,0,1-.05,1.51,7.65,7.65,0,0,1-1.84,3.94l-.07.09,0-.11a22,22,0,0,1-1.33-6.88,22.47,22.47,0,0,1,.29-4.4,10.24,10.24,0,0,1,.61-2.34,3.12,3.12,0,0,1,1.74-1.84,1.86,1.86,0,0,1,1.35.11,2.54,2.54,0,0,1,1,.95,7.17,7.17,0,0,1,.93,2.6,23.44,23.44,0,0,1,.51,5.73,23.85,23.85,0,0,1-1,6,20.69,20.69,0,0,1-1.09,3,8.08,8.08,0,0,1-1.75,2.72,2.81,2.81,0,0,1-4.31-.23,9.49,9.49,0,0,1-1.79-4.2,25,25,0,0,1-.41-8.57A25.32,25.32,0,0,1,155.55,407a45.32,45.32,0,0,1,3.91-4,35.65,35.65,0,0,0,2.92-3,17.23,17.23,0,0,0,1.55-2.16l.46-.8a12.11,12.11,0,0,1-1.92,3,38,38,0,0,1-2.9,3.07,46.94,46.94,0,0,0-3.87,4,25.29,25.29,0,0,0-5.55,13.13,25,25,0,0,0,.42,8.48,9.29,9.29,0,0,0,1.73,4.07,2.74,2.74,0,0,0,1.89,1,2.68,2.68,0,0,0,2-.81,7.61,7.61,0,0,0,1.69-2.63,21.41,21.41,0,0,0,1.08-2.92,23.38,23.38,0,0,0,1-5.95,23,23,0,0,0-.49-5.67,7,7,0,0,0-.88-2.51,1.86,1.86,0,0,0-2.07-1A2.89,2.89,0,0,0,154.9,414a9.72,9.72,0,0,0-.6,2.28,22.09,22.09,0,0,0,.95,11.19l-.12,0a7.73,7.73,0,0,0,1.87-3.86,8.62,8.62,0,0,0,.11-1.11C157.11,422.25,157.12,422.12,157.12,422.12Z" style="fill:#455a64"></path><path d="M81.52,356.67h42.72a6.16,6.16,0,0,1,6.16,6.16v18.6a0,0,0,0,1,0,0h-55a0,0,0,0,1,0,0v-18.6A6.16,6.16,0,0,1,81.52,356.67Z" style="fill:#455a64"></path><rect x="72.53" y="379.02" width="60.66" height="6.57" rx="1.51" style="fill:#263238"></rect><polygon points="88.71 381.65 72.53 448.49 77.75 448.49 93.97 381.65 88.71 381.65" style="fill:#263238"></polygon><polygon points="120.09 381.65 136.26 448.49 131.05 448.49 114.83 381.65 120.09 381.65" style="fill:#263238"></polygon><rect x="101.33" y="382.31" width="5.07" height="66.84" style="fill:#263238"></rect><path d="M128.35,364.89l-.5.12-1.45.3c-1.26.27-3.09.59-5.36.93a122.21,122.21,0,0,1-35.76-.05c-2.27-.35-4.1-.67-5.36-.94l-1.44-.3-.5-.13a5,5,0,0,1,.51.07l1.45.25c1.26.23,3.1.53,5.37.85a130.14,130.14,0,0,0,35.7,0c2.27-.31,4.11-.6,5.37-.83l1.46-.24A4.62,4.62,0,0,1,128.35,364.89Z" style="fill:#263238"></path><path d="M199.16,357h42.72a6.16,6.16,0,0,1,6.16,6.16v18.6a0,0,0,0,1,0,0H193a0,0,0,0,1,0,0v-18.6A6.16,6.16,0,0,1,199.16,357Z" style="fill:#455a64"></path><rect x="190.18" y="379.32" width="60.66" height="6.57" rx="1.51" style="fill:#263238"></rect><polygon points="206.35 381.95 190.18 448.79 195.39 448.79 211.61 381.95 206.35 381.95" style="fill:#263238"></polygon><polygon points="237.73 381.95 253.91 448.79 248.69 448.79 232.47 381.95 237.73 381.95" style="fill:#263238"></polygon><rect x="218.97" y="382.61" width="5.07" height="66.84" style="fill:#263238"></rect><path d="M246,365.19l-.5.12-1.45.3c-1.25.27-3.08.59-5.35.93a122.28,122.28,0,0,1-35.77-.05c-2.27-.34-4.1-.67-5.35-.94l-1.45-.3-.5-.13.51.07,1.46.25c1.26.24,3.09.53,5.36.85a130.74,130.74,0,0,0,35.71,0c2.27-.32,4.1-.61,5.36-.84l1.46-.24A4.62,4.62,0,0,1,246,365.19Z" style="fill:#263238"></path><rect x="286" y="81.1" width="137.61" height="99.96" style="fill:#e0e0e0"></rect><path d="M423.63,181.08H286v-100H423.63ZM286,181H423.58V81.12H286Z" style="fill:#455a64"></path><path d="M422.73,91.37c0,.14-30.61.26-68.36.26S286,91.51,286,91.37s30.6-.26,68.37-.26S422.73,91.22,422.73,91.37Z" style="fill:#263238"></path><path d="M422.73,102.09c0,.14-30.61.26-68.36.26s-68.37-.12-68.37-.26,30.6-.26,68.37-.26S422.73,102,422.73,102.09Z" style="fill:#263238"></path><path d="M422.73,112.81c0,.15-30.61.27-68.36.27S286,113,286,112.81s30.6-.26,68.37-.26S422.73,112.67,422.73,112.81Z" style="fill:#263238"></path><path d="M422.73,123.54c0,.14-30.61.26-68.36.26s-68.37-.12-68.37-.26,30.6-.26,68.37-.26S422.73,123.4,422.73,123.54Z" style="fill:#263238"></path><path d="M422.73,134.26c0,.15-30.61.26-68.36.26s-68.37-.11-68.37-.26,30.6-.26,68.37-.26S422.73,134.12,422.73,134.26Z" style="fill:#263238"></path><path d="M422.73,145c0,.14-30.61.26-68.36.26S286,145.13,286,145s30.6-.26,68.37-.26S422.73,144.84,422.73,145Z" style="fill:#263238"></path><path d="M422.73,154.8c0,.14-30.61.26-68.36.26S286,154.94,286,154.8s30.6-.26,68.37-.26S422.73,154.66,422.73,154.8Z" style="fill:#263238"></path><path d="M422.73,164.61c0,.15-30.61.26-68.36.26s-68.37-.11-68.37-.26,30.6-.26,68.37-.26S422.73,164.47,422.73,164.61Z" style="fill:#263238"></path><path d="M422.73,174.42c0,.15-30.61.26-68.36.26s-68.37-.11-68.37-.26,30.6-.26,68.37-.26S422.73,174.28,422.73,174.42Z" style="fill:#263238"></path><rect x="59.38" y="74.69" width="210.02" height="27.41" style="fill:#e0e0e0"></rect><path d="M269.43,102.12H59.36V74.66H269.43Zm-210-.05h210V74.71h-210Z" style="fill:#455a64"></path><path d="M269.42,82.49c0,.14-47,.26-104.94.26s-104.95-.12-104.95-.26,47-.26,105-.26S269.42,82.34,269.42,82.49Z" style="fill:#263238"></path><path d="M269.42,92.52c0,.14-47,.26-104.94.26s-104.95-.12-104.95-.26,47-.27,105-.27S269.42,92.37,269.42,92.52Z" style="fill:#263238"></path><rect x="172.39" y="168.59" width="59.8" height="75.42" transform="translate(-30.6 35.3) rotate(-9.27)" style="fill:#fff"></rect><path d="M237.87,238.69s0-.12-.07-.36-.1-.59-.18-1l-.69-4c-.59-3.54-1.46-8.7-2.55-15.23-2.16-13.08-5.24-31.65-8.89-53.71l.27.19-59,9.66h0l.22-.3c4.48,27.56,8.65,53.17,12.11,74.43l-.25-.17,42.81-6.88,12-1.9,3.16-.49,1.1-.16-1,.2-3.12.53-11.91,2-42.91,7.12-.21,0,0-.22c-3.48-21.25-7.68-46.86-12.19-74.42l0-.26.26,0h0l59-9.61.23,0,0,.23c3.57,22.14,6.57,40.78,8.68,53.9,1,6.52,1.86,11.66,2.42,15.2.28,1.74.48,3.08.63,4q.1.66.15,1A2.25,2.25,0,0,1,237.87,238.69Z" style="fill:#263238"></path><path d="M207.84,209.6a10,10,0,0,0,2.54-3c1.07-.19,4.1.73,4.1.73l.38-1.11a17.6,17.6,0,0,1-3.49-2.16,10.06,10.06,0,0,0,.25-3.08,6.69,6.69,0,0,1,2.55-1l-.23-1.16a9.92,9.92,0,0,1-2.71.11,10,10,0,0,0-.9-2.13c.35-1,2.71-3.2,2.71-3.2l-.77-.89a18,18,0,0,1-3.61,1.91,10.15,10.15,0,0,0-2.39-1.75,7.14,7.14,0,0,1,.4-2.75l-1.11-.38a9.22,9.22,0,0,1-1.25,2.35,9.85,9.85,0,0,0-2.57-.37,15.68,15.68,0,0,1-1.42-3.93l-1.17.23a16.75,16.75,0,0,1-.12,4,9.93,9.93,0,0,0-3,1.37,7,7,0,0,1-2-1.61l-.89.8a9.27,9.27,0,0,1,1.36,2.07,9.8,9.8,0,0,0-1.62,2.14A18.45,18.45,0,0,1,189,196l-.39,1.12a15.82,15.82,0,0,1,3.27,2,10,10,0,0,0-.31,3.3,7.19,7.19,0,0,1-2.37.91l.23,1.17a9.12,9.12,0,0,1,2.48-.13,10.29,10.29,0,0,0,2,3.76,16.83,16.83,0,0,1-1.83,3.61l1,.69a15,15,0,0,1,2.78-2.54,9.56,9.56,0,0,0,2.37,1.25,10.23,10.23,0,0,0,1.31.37,7.31,7.31,0,0,1-.07,2.49l1.17.22a10,10,0,0,1,.89-2.49,9.91,9.91,0,0,0,4.11-.83,17.9,17.9,0,0,1,2.42,3.11l1-.59A17,17,0,0,1,207.84,209.6Zm-3.23-17.43h0Z" style="fill:#FF725E"></path><g style="opacity:0.1"><path d="M206.52,207.5c-.35-.38.09-1.3.43-2.64.05-.16.08-.35.13-.52s.07-.37.11-.56c.05-.39.11-.79.13-1.22a7.74,7.74,0,0,0-1.45-5c-.24-.35-.51-.66-.76-1l-.4-.42c-.13-.12-.25-.26-.38-.37-1-.95-1.87-1.49-1.78-2a.48.48,0,0,1,.25-.32,1.46,1.46,0,0,1,.62-.2,4.69,4.69,0,0,1,2.17.29,5,5,0,0,1,.68.29c.24.11.47.24.71.38a8.61,8.61,0,0,1,1.4,1.11,8.34,8.34,0,0,1,1.24,1.58,8.44,8.44,0,0,1,.89,2,8.69,8.69,0,0,1,.32,2.16,8,8,0,0,1-.22,2,7.38,7.38,0,0,1-.59,1.68c-.13.25-.25.49-.39.71a7,7,0,0,1-.42.6,4.79,4.79,0,0,1-1.69,1.41,1.72,1.72,0,0,1-.62.16A.46.46,0,0,1,206.52,207.5Z" style="fill:#fff"></path></g><path d="M200.81,187.32c0,.21-.45.49-1.1.63a3.66,3.66,0,0,1-.61.08c-.36,0-.62-.07-.65-.21s.45-.49,1.1-.63S200.76,187.11,200.81,187.32Z" style="fill:#FF725E"></path><g style="opacity:0.30000000000000004"><path d="M199.15,188a3.9,3.9,0,0,0,1.17-.26c.05.21.11.45.18.7a3.83,3.83,0,0,1-1.31-.19Z"></path></g><path d="M194.21,191.16c.15.16-.13.65-.62,1.1a3.89,3.89,0,0,1-.5.38c-.3.18-.56.25-.66.15s.14-.66.63-1.11S194.07,191,194.21,191.16Z" style="fill:#FF725E"></path><g style="opacity:0.30000000000000004"><path d="M193.14,192.61a2.63,2.63,0,0,0,.87-.82,6,6,0,0,0,.5.52,3.87,3.87,0,0,1-1.2.5Z"></path></g><path d="M188.87,195.38c.21.07.2.64,0,1.27a3.36,3.36,0,0,1-.25.57c-.17.31-.36.5-.5.45s-.2-.63,0-1.26S188.67,195.32,188.87,195.38Z" style="fill:#FF725E"></path><g style="opacity:0.30000000000000004"><path d="M188.65,197.17A4,4,0,0,0,189,196l.7.19a3.88,3.88,0,0,1-.82,1Z"></path></g><path d="M188.76,202.89c.21,0,.49.44.64,1.09a3.57,3.57,0,0,1,.07.61c0,.36-.06.62-.2.65s-.5-.44-.64-1.09S188.55,202.93,188.76,202.89Z" style="fill:#FF725E"></path><g style="opacity:0.30000000000000004"><path d="M189.47,204.54a2.66,2.66,0,0,0-.26-1.16c.21,0,.45-.1.69-.17a3.83,3.83,0,0,1-.17,1.29Z"></path></g><path d="M191.39,211.75c.12-.18.67,0,1.22.35a4,4,0,0,1,.48.39c.25.26.37.5.29.61s-.66,0-1.21-.35S191.27,211.92,191.39,211.75Z" style="fill:#FF725E"></path><g style="opacity:0.30000000000000004"><path d="M193.05,212.46a3.86,3.86,0,0,0-1-.67c.11-.18.25-.39.38-.61a4,4,0,0,1,.77,1.07Z"></path></g><path d="M198.8,214.28c0-.21.59-.29,1.25-.18a4,4,0,0,1,.6.16c.33.13.54.29.52.44s-.6.29-1.26.17S198.76,214.49,198.8,214.28Z" style="fill:#FF725E"></path><g style="opacity:0.30000000000000004"><path d="M200.6,214.24a2.62,2.62,0,0,0-1.18-.19c0-.22.08-.46.11-.71a3.66,3.66,0,0,1,1.12.65Z"></path></g><path d="M207.69,214.65c-.11-.19.26-.62.83-1a3.54,3.54,0,0,1,.56-.27c.34-.12.6-.13.68,0s-.27.61-.84,1S207.8,214.83,207.69,214.65Z" style="fill:#FF725E"></path><g style="opacity:0.30000000000000004"><path d="M209,213.44a3.89,3.89,0,0,0-1,.62c-.12-.18-.25-.39-.4-.6a3.83,3.83,0,0,1,1.3-.25Z"></path></g><g style="opacity:0.30000000000000004"><path d="M197.06,201.63c-.27.73-.88,1.18-1.37,1s-.68-.91-.41-1.64.88-1.19,1.37-1S197.32,200.9,197.06,201.63Z"></path></g><path d="M197,200.76c-.27.73-.88,1.18-1.37,1s-.68-.91-.42-1.65.88-1.18,1.37-1S197.26,200,197,200.76Z" style="fill:#FF725E"></path><g style="opacity:0.30000000000000004"><path d="M199.46,193.89c.77-.11,1.45.22,1.52.74s-.49,1-1.26,1.14-1.45-.23-1.53-.75S198.68,194,199.46,193.89Z"></path></g><path d="M199.32,193.05c.77-.11,1.45.22,1.52.74s-.49,1-1.26,1.14-1.45-.23-1.53-.74S198.54,193.16,199.32,193.05Z" style="fill:#FF725E"></path><g style="opacity:0.30000000000000004"><path d="M198.24,206.56a.94.94,0,0,1-1.19.56.93.93,0,0,1,.63-1.75A.94.94,0,0,1,198.24,206.56Z"></path></g><path d="M198.41,206.09a.93.93,0,0,1-1.75-.63.93.93,0,0,1,1.75.63Z" style="fill:#FF725E"></path><g style="opacity:0.30000000000000004"><path d="M206.84,200.91a1.15,1.15,0,1,1,.48-1.54A1.14,1.14,0,0,1,206.84,200.91Z"></path></g><path d="M207.38,200.62a1.14,1.14,0,1,1,.48-1.53A1.13,1.13,0,0,1,207.38,200.62Z" style="fill:#FF725E"></path><g style="opacity:0.30000000000000004"><path d="M202.37,209a.69.69,0,0,1-.87.41.68.68,0,1,1,.87-.41Z"></path></g><path d="M202.49,208.69a.68.68,0,0,1-1.28-.47.69.69,0,0,1,.87-.41A.68.68,0,0,1,202.49,208.69Z" style="fill:#FF725E"></path><path d="M214.61,208c-.2-.07-.2-.63,0-1.25a3.05,3.05,0,0,1,.24-.57c.17-.3.36-.49.5-.44s.2.62,0,1.25S214.81,208.05,214.61,208Z" style="fill:#FF725E"></path><g style="opacity:0.30000000000000004"><path d="M214.83,206.22a3.64,3.64,0,0,0-.35,1.12l-.69-.19a4.07,4.07,0,0,1,.8-1Z"></path></g><path d="M214.61,200.45c-.2,0-.49-.44-.62-1.09a2.68,2.68,0,0,1-.08-.6c0-.36.06-.61.2-.64s.49.44.63,1.08S214.82,200.4,214.61,200.45Z" style="fill:#FF725E"></path><g style="opacity:0.30000000000000004"><path d="M213.91,198.81a2.62,2.62,0,0,0,.26,1.15l-.69.16a3.81,3.81,0,0,1,.18-1.27Z"></path></g><path d="M213.66,193.79c-.16.14-.64-.14-1.08-.64a3.06,3.06,0,0,1-.36-.49c-.18-.3-.24-.56-.14-.65s.65.14,1.08.63S213.82,193.65,213.66,193.79Z" style="fill:#FF725E"></path><g style="opacity:0.30000000000000004"><path d="M212.25,192.71a3.8,3.8,0,0,0,.79.87l-.52.5a3.92,3.92,0,0,1-.48-1.21Z"></path></g><path d="M207.32,190c-.07.2-.63.2-1.25,0a3.05,3.05,0,0,1-.57-.24c-.31-.17-.49-.36-.45-.5s.63-.2,1.25,0S207.38,189.76,207.32,190Z" style="fill:#FF725E"></path><g style="opacity:0.30000000000000004"><path d="M205.55,189.74a2.53,2.53,0,0,0,1.12.36,7.05,7.05,0,0,0-.2.68,3.8,3.8,0,0,1-1-.79Z"></path></g><g style="opacity:0.30000000000000004"><path d="M205.52,207.62c-.58.52-1.33.63-1.68.24s-.17-1.13.41-1.65,1.33-.63,1.68-.24S206.1,207.09,205.52,207.62Z"></path></g><path d="M206,207.39c-.57.53-1.33.64-1.68.25s-.17-1.13.41-1.65,1.33-.63,1.68-.24S206.61,206.87,206,207.39Z" style="fill:#FF725E"></path><g style="opacity:0.30000000000000004"><path d="M203,201.94a1.41,1.41,0,0,1-1.81.84,1.41,1.41,0,0,1,1-2.65A1.43,1.43,0,0,1,203,201.94Z"></path></g><path d="M203.31,201.17a1.41,1.41,0,0,1-1.81.84,1.41,1.41,0,0,1,1-2.65A1.43,1.43,0,0,1,203.31,201.17Z" style="fill:#FF725E"></path><g style="opacity:0.2"><path d="M203.83,210.43c0,.12-.17.28-.58.44a6,6,0,0,1-1.81.33,8.14,8.14,0,0,1-1.28,0,9.53,9.53,0,0,1-1.45-.29,9.3,9.3,0,0,1-5.36-4,10.3,10.3,0,0,1-.69-1.3,9.21,9.21,0,0,1-.41-1.22,6,6,0,0,1-.2-1.82c0-.43.13-.67.26-.69s.52.85,1.14,2.07c.16.31.34.63.55,1a10.29,10.29,0,0,0,.72,1,10.23,10.23,0,0,0,4.52,3.37c.41.16.81.28,1.2.4s.75.18,1.09.24C202.88,210.17,203.79,210.17,203.83,210.43Z"></path></g><g style="opacity:0.2"><path d="M193.39,198.45a.86.86,0,1,1-1.12.55A.88.88,0,0,1,193.39,198.45Z"></path></g><g style="opacity:0.2"><path d="M197,200.76c-.27.73-.88,1.18-1.37,1s-.68-.91-.42-1.65.88-1.18,1.37-1S197.26,200,197,200.76Z" style="fill:#fff"></path></g><g style="opacity:0.2"><path d="M199.32,193.05c.77-.11,1.45.22,1.52.74s-.49,1-1.26,1.14-1.45-.23-1.53-.74S198.54,193.16,199.32,193.05Z" style="fill:#fff"></path></g><g style="opacity:0.2"><path d="M198.41,206.09a.93.93,0,0,1-1.75-.63.93.93,0,0,1,1.75.63Z" style="fill:#fff"></path></g><g style="opacity:0.2"><path d="M207.38,200.62a1.14,1.14,0,1,1,.48-1.53A1.13,1.13,0,0,1,207.38,200.62Z" style="fill:#fff"></path></g><g style="opacity:0.2"><path d="M202.49,208.69a.68.68,0,0,1-1.28-.47.69.69,0,0,1,.87-.41A.68.68,0,0,1,202.49,208.69Z" style="fill:#fff"></path></g><g style="opacity:0.2"><path d="M206,207.39c-.57.53-1.33.64-1.68.25s-.17-1.13.41-1.65,1.33-.63,1.68-.24S206.61,206.87,206,207.39Z" style="fill:#fff"></path></g><g style="opacity:0.2"><path d="M203.31,201.17a1.41,1.41,0,0,1-1.81.84,1.41,1.41,0,0,1,1-2.65A1.43,1.43,0,0,1,203.31,201.17Z" style="fill:#fff"></path></g><path d="M218.31,176.6c0,.14-9.06,1.74-20.29,3.57s-20.34,3.21-20.37,3.07,9.06-1.75,20.29-3.58S218.29,176.46,218.31,176.6Z" style="fill:#263238"></path><path d="M204.91,223.26a82.13,82.13,0,0,1-9.15,1.75,85,85,0,0,1-9.24,1.25,84.65,84.65,0,0,1,9.15-1.76A80.57,80.57,0,0,1,204.91,223.26Z" style="fill:#263238"></path><path d="M224.9,224c0,.14-8.45,1.65-18.93,3.36s-19,3-19,2.84,8.45-1.65,18.93-3.36S224.88,223.86,224.9,224Z" style="fill:#263238"></path><path d="M226,227.25c0,.14-8.46,1.65-18.93,3.36s-19,3-19,2.84,8.45-1.65,18.93-3.36S225.92,227.11,226,227.25Z" style="fill:#263238"></path><path d="M228.13,230.74a14.33,14.33,0,0,1-6.46,1.19,13.67,13.67,0,0,1,3.21-.73A13.51,13.51,0,0,1,228.13,230.74Z" style="fill:#263238"></path><path d="M208.51,174.62c0,.15-4.92,1-11,2s-11.09,1.64-11.12,1.5,4.92-1,11-2S208.48,174.48,208.51,174.62Z" style="fill:#263238"></path><rect x="179.92" y="234.62" width="3.75" height="18.94" transform="translate(-121.89 264.19) rotate(-57.11)" style="fill:#e0e0e0"></rect><rect x="221.62" y="159.92" width="3.32" height="15.09" transform="translate(-38.47 264.35) rotate(-57.18)" style="fill:#e0e0e0"></rect><rect x="167.46" y="168.84" width="3.32" height="15.09" transform="translate(227.4 413.69) rotate(-150)" style="fill:#e0e0e0"></rect><rect x="77.75" y="179.46" width="68.39" height="54.23" transform="translate(-102.11 303.47) rotate(-85.9)" style="fill:#fff"></rect><path d="M136.55,242.63s0-.12,0-.34,0-.55.05-1c.06-.86.14-2.1.24-3.71.22-3.26.54-8,.94-14,.83-12,2-29,3.41-49.24l.22.25-54.09-3.85h0l.27-.24c-1.82,25.26-3.52,48.73-4.93,68.22l-.2-.23,39.21,2.92,11,.84,2.89.23,1,.1-1,0-2.85-.18-10.93-.73L82.44,239l-.22,0,0-.21c1.38-19.49,3.05-43,4.84-68.23l0-.26.26,0h0l54.08,3.91h.24l0,.24c-1.5,20.28-2.77,37.35-3.66,49.37-.45,6-.81,10.68-1,13.92l-.3,3.67c0,.4-.06.7-.08.93Z" style="fill:#263238"></path><path d="M116.15,210.66a9,9,0,0,0,2.87-2.11,13.69,13.69,0,0,1,3.46,1.51l.57-.9a16.17,16.17,0,0,1-2.62-2.64,9.2,9.2,0,0,0,.86-2.66,6,6,0,0,1,2.47-.38l0-1.07a9.14,9.14,0,0,1-2.41-.47,9.64,9.64,0,0,0-.35-2.07,13.27,13.27,0,0,1,3.06-2.25l-.49-1a15.91,15.91,0,0,1-3.59.92,9.1,9.1,0,0,0-1.74-2,6.42,6.42,0,0,1,.93-2.34l-.9-.57a9.25,9.25,0,0,1-1.59,1.82,9.26,9.26,0,0,0-2.19-.87,14.07,14.07,0,0,1-.44-3.77l-1.08,0a15.38,15.38,0,0,1-.94,3.53,9.11,9.11,0,0,0-3,.58,6.34,6.34,0,0,1-1.42-1.84l-1,.51a8.76,8.76,0,0,1,.77,2.12,8.92,8.92,0,0,0-1.88,1.54,16.22,16.22,0,0,1-3.24-1.48l-.58.92a14,14,0,0,1,2.47,2.45,9.08,9.08,0,0,0-1,2.85,6.42,6.42,0,0,1-2.28.3l0,1.08a9.05,9.05,0,0,1,2.21.41,9.21,9.21,0,0,0,1,3.73,15.32,15.32,0,0,1-2.39,2.81l.72.8a14,14,0,0,1,3-1.65,9.73,9.73,0,0,0,1.83,1.6,8.91,8.91,0,0,0,1.09.59,6.61,6.61,0,0,1-.59,2.19l1,.44a9.37,9.37,0,0,1,1.3-2,9.2,9.2,0,0,0,3.8.13,16.29,16.29,0,0,1,1.49,3.25l1-.31A15.56,15.56,0,0,1,116.15,210.66ZM117,194.6l0,0Z" style="fill:#FF725E"></path><g style="opacity:0.1"><path d="M115.42,208.53c-.22-.41.36-1.13.94-2.24.08-.13.14-.29.22-.43s.14-.31.22-.47a9.94,9.94,0,0,0,.37-1,7.8,7.8,0,0,0,.3-2.39,7.53,7.53,0,0,0-.53-2.35,10.34,10.34,0,0,0-.47-1c-.09-.15-.17-.31-.26-.45s-.17-.29-.26-.41c-.69-1.05-1.33-1.71-1.15-2.14a.44.44,0,0,1,.29-.23,1.67,1.67,0,0,1,.58-.05,4.27,4.27,0,0,1,1.86.72,4.91,4.91,0,0,1,.54.39c.19.15.36.32.54.49a7.33,7.33,0,0,1,1,1.27,8.06,8.06,0,0,1,.76,1.65,7.74,7.74,0,0,1,.37,1.95,7.53,7.53,0,0,1-.18,2,7.42,7.42,0,0,1-.6,1.72,8,8,0,0,1-.88,1.36,6.43,6.43,0,0,1-.49.54,6.57,6.57,0,0,1-.5.44,4.19,4.19,0,0,1-1.78.89,1.47,1.47,0,0,1-.59,0A.44.44,0,0,1,115.42,208.53Z" style="fill:#fff"></path></g><path d="M114.62,189.53c0,.19-.5.34-1.1.33a3.17,3.17,0,0,1-.56-.07c-.31-.07-.53-.19-.52-.32s.49-.34,1.1-.32S114.63,189.33,114.62,189.53Z" style="fill:#FF725E"></path><g style="opacity:0.30000000000000004"><path d="M113,189.8a3.57,3.57,0,0,0,1.08,0c0,.2,0,.43,0,.66A3.52,3.52,0,0,1,113,190Z"></path></g><path d="M108,191.53c.1.17-.25.55-.78.84a2.79,2.79,0,0,1-.51.23c-.31.1-.55.11-.62,0s.26-.55.79-.84S107.9,191.36,108,191.53Z" style="fill:#FF725E"></path><g style="opacity:0.30000000000000004"><path d="M106.74,192.58a2.47,2.47,0,0,0,1-.53c.09.18.2.37.32.56a3.28,3.28,0,0,1-1.16.18Z"></path></g><path d="M102.4,194.14c.16.1,0,.6-.27,1.12a3.31,3.31,0,0,1-.34.45c-.22.24-.43.36-.54.29s0-.6.27-1.12S102.23,194,102.4,194.14Z" style="fill:#FF725E"></path><g style="opacity:0.30000000000000004"><path d="M101.83,195.67a3.51,3.51,0,0,0,.55-.93l.58.32a3.71,3.71,0,0,1-.94.75Z"></path></g><path d="M100.72,200.73c.2,0,.35.5.34,1.1a4.18,4.18,0,0,1-.06.56c-.07.32-.19.53-.32.53s-.34-.5-.33-1.1S100.53,200.73,100.72,200.73Z" style="fill:#FF725E"></path><g style="opacity:0.30000000000000004"><path d="M101,202.34a2.43,2.43,0,0,0,0-1.08c.2,0,.42,0,.65,0a3.4,3.4,0,0,1-.43,1.1Z"></path></g><path d="M101.19,209.1c.14-.13.59.13,1,.57a3.13,3.13,0,0,1,.34.45c.17.28.23.51.13.6s-.59-.12-1-.57S101,209.24,101.19,209.1Z" style="fill:#FF725E"></path><g style="opacity:0.30000000000000004"><path d="M102.5,210.08a3.31,3.31,0,0,0-.74-.79c.15-.14.31-.3.47-.47a3.75,3.75,0,0,1,.46,1.11Z"></path></g><path d="M107.19,212.89c.08-.18.59-.13,1.14.11a3.31,3.31,0,0,1,.5.26c.27.19.42.38.37.5s-.59.13-1.15-.11S107.11,213.07,107.19,212.89Z" style="fill:#FF725E"></path><g style="opacity:0.30000000000000004"><path d="M108.79,213.24a2.47,2.47,0,0,0-1-.42c.08-.18.17-.39.25-.6a3.41,3.41,0,0,1,.85.81Z"></path></g><path d="M115,215.08c-.06-.19.36-.49.93-.67a3.45,3.45,0,0,1,.55-.12c.33,0,.56,0,.6.13s-.36.49-.93.67S115,215.27,115,215.08Z" style="fill:#FF725E"></path><g style="opacity:0.30000000000000004"><path d="M116.4,214.3a3.32,3.32,0,0,0-1,.33l-.23-.62a3.48,3.48,0,0,1,1.2.06Z"></path></g><g style="opacity:0.30000000000000004"><path d="M108.31,201.37c-.39.59-1,.85-1.42.59s-.4-1,0-1.54,1-.85,1.42-.59S108.7,200.78,108.31,201.37Z"></path></g><path d="M108.44,200.59c-.39.59-1,.85-1.42.59s-.41-1,0-1.54,1-.85,1.42-.59S108.83,200,108.44,200.59Z" style="fill:#FF725E"></path><g style="opacity:0.30000000000000004"><path d="M112.05,195c.7.06,1.24.5,1.19,1s-.65.81-1.35.74-1.24-.5-1.19-1S111.35,195,112.05,195Z"></path></g><path d="M112.1,194.27c.7.07,1.24.5,1.19,1s-.65.8-1.35.73-1.24-.5-1.19-1S111.4,194.2,112.1,194.27Z" style="fill:#FF725E"></path><g style="opacity:0.30000000000000004"><path d="M108.32,206a.84.84,0,1,1-1.41-.92.84.84,0,0,1,1.41.92Z"></path></g><path d="M108.57,205.59a.85.85,0,0,1-1.17.24.84.84,0,0,1,.92-1.41A.85.85,0,0,1,108.57,205.59Z" style="fill:#FF725E"></path><g style="opacity:0.30000000000000004"><path d="M117.09,202.78a1,1,0,1,1,.75-1.26A1,1,0,0,1,117.09,202.78Z"></path></g><path d="M117.63,202.64a1,1,0,1,1,.75-1.25A1,1,0,0,1,117.63,202.64Z" style="fill:#FF725E"></path><g style="opacity:0.30000000000000004"><path d="M111.44,209a.61.61,0,0,1-.85.17.62.62,0,0,1-.18-.85.63.63,0,0,1,.86-.18A.62.62,0,0,1,111.44,209Z"></path></g><path d="M111.63,208.73a.62.62,0,0,1-.86.18.63.63,0,0,1-.18-.86.62.62,0,0,1,1,.68Z" style="fill:#FF725E"></path><path d="M122.46,210.66c-.16-.1,0-.6.27-1.11a3.36,3.36,0,0,1,.33-.44c.22-.24.43-.36.53-.29s0,.59-.26,1.1S122.63,210.76,122.46,210.66Z" style="fill:#FF725E"></path><g style="opacity:0.30000000000000004"><path d="M123,209.14a3.57,3.57,0,0,0-.55.92l-.57-.32a3.45,3.45,0,0,1,.93-.73Z"></path></g><path d="M124.05,204c-.19,0-.34-.49-.33-1.08a3,3,0,0,1,.06-.55c.07-.32.18-.53.31-.52s.34.49.33,1.08S124.24,204,124.05,204Z" style="fill:#FF725E"></path><g style="opacity:0.30000000000000004"><path d="M123.77,202.41a2.39,2.39,0,0,0,0,1.07h-.64a3.41,3.41,0,0,1,.42-1.08Z"></path></g><path d="M124.61,197.93c-.17.09-.54-.26-.82-.79a2.46,2.46,0,0,1-.22-.51c-.1-.3-.1-.54,0-.6s.53.26.82.78S124.78,197.84,124.61,197.93Z" style="fill:#FF725E"></path><g style="opacity:0.30000000000000004"><path d="M123.58,196.68a3.42,3.42,0,0,0,.52.94l-.56.33a3.42,3.42,0,0,1-.17-1.17Z"></path></g><path d="M119.81,193.22c-.1.17-.59.05-1.1-.26a2.92,2.92,0,0,1-.45-.33c-.24-.22-.36-.42-.29-.53s.59,0,1.1.26S119.91,193.06,119.81,193.22Z" style="fill:#FF725E"></path><g style="opacity:0.30000000000000004"><path d="M118.3,192.66a2.43,2.43,0,0,0,.91.55c-.1.17-.21.35-.32.55a3.29,3.29,0,0,1-.72-.91Z"></path></g><g style="opacity:0.30000000000000004"><path d="M114.52,208.42c-.62.34-1.3.28-1.53-.14s.08-1,.7-1.36,1.31-.28,1.54.13S115.14,208.08,114.52,208.42Z"></path></g><path d="M115,208.33c-.62.35-1.31.28-1.53-.13s.08-1,.7-1.37,1.31-.28,1.53.14S115.64,208,115,208.33Z" style="fill:#FF725E"></path><g style="opacity:0.30000000000000004"><path d="M113.51,202.89a1.27,1.27,0,1,1-2.13-1.4,1.26,1.26,0,0,1,1.76-.37A1.28,1.28,0,0,1,113.51,202.89Z"></path></g><path d="M113.92,202.27a1.28,1.28,0,1,1-.37-1.77A1.29,1.29,0,0,1,113.92,202.27Z" style="fill:#FF725E"></path><g style="opacity:0.2"><path d="M112.44,210.55c0,.11-.21.21-.61.27a5.57,5.57,0,0,1-1.66-.09,8.31,8.31,0,0,1-1.12-.31,9.23,9.23,0,0,1-1.21-.56,8.63,8.63,0,0,1-2.38-2,8.82,8.82,0,0,1-1.52-2.69,7.75,7.75,0,0,1-.33-1.3,7.07,7.07,0,0,1-.11-1.16,5.08,5.08,0,0,1,.21-1.65c.12-.37.26-.57.36-.55.25,0,.29.85.58,2.06.07.31.17.63.28,1a11.08,11.08,0,0,0,.42,1.06,9.74,9.74,0,0,0,1.36,2.19,9.61,9.61,0,0,0,1.92,1.73,10.7,10.7,0,0,0,1,.6c.32.17.63.32.91.45C111.65,210.12,112.46,210.31,112.44,210.55Z"></path></g><g style="opacity:0.2"><path d="M105.74,197.79a.78.78,0,1,1-1.1.25A.8.8,0,0,1,105.74,197.79Z"></path></g><g style="opacity:0.2"><path d="M108.44,200.59c-.39.59-1,.85-1.42.59s-.41-1,0-1.54,1-.85,1.42-.59S108.83,200,108.44,200.59Z" style="fill:#fff"></path></g><g style="opacity:0.2"><path d="M112.1,194.27c.7.07,1.24.5,1.19,1s-.65.8-1.35.73-1.24-.5-1.19-1S111.4,194.2,112.1,194.27Z" style="fill:#fff"></path></g><g style="opacity:0.2"><path d="M108.57,205.59a.85.85,0,0,1-1.17.24.84.84,0,0,1,.92-1.41A.85.85,0,0,1,108.57,205.59Z" style="fill:#fff"></path></g><g style="opacity:0.2"><path d="M117.63,202.64a1,1,0,1,1,.75-1.25A1,1,0,0,1,117.63,202.64Z" style="fill:#fff"></path></g><g style="opacity:0.2"><path d="M111.63,208.73a.62.62,0,0,1-.86.18.63.63,0,0,1-.18-.86.62.62,0,0,1,1,.68Z" style="fill:#fff"></path></g><g style="opacity:0.2"><path d="M115,208.33c-.62.35-1.31.28-1.53-.13s.08-1,.7-1.37,1.31-.28,1.53.14S115.64,208,115,208.33Z" style="fill:#fff"></path></g><g style="opacity:0.2"><path d="M113.92,202.27a1.28,1.28,0,1,1-.37-1.77A1.29,1.29,0,0,1,113.92,202.27Z" style="fill:#fff"></path></g><path d="M132.31,183.74c0,.14-8.36-.34-18.65-1.08S95,181.21,95.05,181.07s8.36.33,18.65,1.07S132.32,183.59,132.31,183.74Z" style="fill:#263238"></path><path d="M110.7,222.09a67.41,67.41,0,0,1-8.44-.34,69.09,69.09,0,0,1-8.41-.86,67.41,67.41,0,0,1,8.44.34A69.09,69.09,0,0,1,110.7,222.09Z" style="fill:#263238"></path><path d="M128.18,227c0,.14-7.8-.3-17.4-1s-17.39-1.36-17.37-1.51,7.8.3,17.4,1S128.19,226.8,128.18,227Z" style="fill:#263238"></path><path d="M128.42,230c0,.14-7.8-.3-17.4-1s-17.38-1.36-17.37-1.5,7.8.3,17.4,1S128.43,229.89,128.42,230Z" style="fill:#263238"></path><path d="M129.62,233.57a7.43,7.43,0,0,1-3,.22,7.35,7.35,0,0,1-3-.53,11.07,11.07,0,0,1,3,0A10.76,10.76,0,0,1,129.62,233.57Z" style="fill:#263238"></path><path d="M124.07,179.94c0,.14-4.55-.09-10.15-.51s-10.13-.89-10.12-1a99,99,0,0,1,10.16.51A101.46,101.46,0,0,1,124.07,179.94Z" style="fill:#263238"></path><rect x="84.24" y="227.04" width="3.4" height="17.17" transform="translate(-139.05 124.8) rotate(-43.74)" style="fill:#e0e0e0"></rect><rect x="137.11" y="169.88" width="3.01" height="13.69" transform="translate(-83.75 145.15) rotate(-43.81)" style="fill:#e0e0e0"></rect><rect x="87.45" y="166.39" width="3.01" height="13.69" transform="translate(34.66 360.24) rotate(-136.63)" style="fill:#e0e0e0"></rect></g><g id="Character"><path d="M324.61,243a6.45,6.45,0,0,0-1.45-4c-1.15-1.14-3.15.57-4.77.5-5.28-.24-10.35-2.31-15.63-2.55l-4.68,4.88,5.35,12.49c1.56,3.64,3.44,7.61,7.09,9.16a9.4,9.4,0,0,0,9.42-1.73,14.72,14.72,0,0,0,4.68-8.69A34.47,34.47,0,0,0,324.61,243Z" style="fill:#455a64"></path><path d="M334.69,189.52l9.42-4.26,21.18-.13,13.18,6.27s-12.39,14.65-22.54,15.25S334.69,189.52,334.69,189.52Z" style="fill:#a5695f"></path><path d="M338.63,187.05l-7.2,2.31-10.07,34.53s2.05,39,2.44,39.68,52.84,1.59,52.84,1.59c-.56-.5,6.06-18.88,6.64-29.86s0-12.42,0-12.42l3-28.84-14.21-6.21s-5.26,14-18.26,13.84S338.63,187.05,338.63,187.05Z" style="fill:#455a64"></path><path d="M378.32,214.31s-54.54,3.42-54.54,4.14,1.73,28.31,2.41,39.68l-2.83.52.44,4.92c0,.54,2.6,0,2.6,0l47.57,0c-.12,0,2.86.21,2.86.21.09-.41,1.39-5,1.39-5l-3.36-.66C377,248.16,381.86,225.55,378.32,214.31Z" style="fill:#FF725E"></path><path d="M332.18,189.12c-3.11.88-15.39,6.25-17.4,10.76-1.11,2.48-5.43,38.05-5.43,38.05l14.43,19.58-1.31-37.43Z" style="fill:#455a64"></path><polygon points="337.6 187.05 325.35 219.23 333.53 218.34 342.71 185.58 337.6 187.05" style="fill:#FF725E"></polygon><path d="M367.81,185.43,373.92,217a2.42,2.42,0,0,0,2.76,1.88h0a2.44,2.44,0,0,0,2-2.92l-6.06-27.81Z" style="fill:#FF725E"></path><path d="M333.26,146a6.18,6.18,0,0,1,.44-10.77l7.42-1.44q-.28,14-.4,27.94a10.51,10.51,0,0,1-5.25-2.24,4.67,4.67,0,0,1-1.36-5.23,4.9,4.9,0,0,1-.85-8.26Z" style="fill:#263238"></path><path d="M368.82,145.26,369,142l-19.73-4.39c-6.1-.84-12.9,5.09-13.48,11.21-.64,6.81-1.16,15.15-.51,20.27,1.31,10.28,9.12,11.83,9.12,11.83l-.63,10.1c-.25,5.91,4.68,7.36,10.58,7.62h0a10.71,10.71,0,0,0,11.15-9.88Z" style="fill:#a5695f"></path><path d="M339.82,155.88a1.31,1.31,0,0,0,1.22,1.37,1.25,1.25,0,0,0,1.39-1.14,1.31,1.31,0,0,0-1.22-1.37A1.25,1.25,0,0,0,339.82,155.88Z" style="fill:#263238"></path><path d="M337.81,153.2c.16.18,1.17-.53,2.59-.48s2.42.78,2.58.62-.08-.39-.52-.74a3.57,3.57,0,0,0-2.06-.7,3.49,3.49,0,0,0-2.07.6C337.89,152.82,337.73,153.12,337.81,153.2Z" style="fill:#263238"></path><path d="M353,156.36a1.31,1.31,0,0,0,1.22,1.36,1.26,1.26,0,0,0,1.39-1.14,1.31,1.31,0,0,0-1.22-1.37A1.25,1.25,0,0,0,353,156.36Z" style="fill:#263238"></path><path d="M351.69,153.89c.15.18,1.17-.52,2.58-.48s2.43.79,2.59.62-.08-.39-.52-.73a3.67,3.67,0,0,0-2.06-.71,3.49,3.49,0,0,0-2.07.6C351.77,153.51,351.61,153.81,351.69,153.89Z" style="fill:#263238"></path><path d="M346.23,164.21a9.1,9.1,0,0,0-2.28-.48c-.36,0-.7-.14-.75-.38a1.83,1.83,0,0,1,.28-1.07c.36-.86.74-1.76,1.15-2.71a48.47,48.47,0,0,0,2.62-7.11c-.16-.06-1.59,3-3.19,6.88-.38,1-.75,1.87-1.11,2.74a2.12,2.12,0,0,0-.23,1.41.91.91,0,0,0,.58.54,2.09,2.09,0,0,0,.61.1A8.82,8.82,0,0,0,346.23,164.21Z" style="fill:#263238"></path><path d="M344.39,180.91a27.16,27.16,0,0,0,14.17-3.25s-3.78,7.22-14.34,6Z" style="fill:#83534b"></path><path d="M346.73,167.63a2.56,2.56,0,0,1,2.31-.87,2.32,2.32,0,0,1,1.58.91,1.5,1.5,0,0,1,.06,1.69,1.73,1.73,0,0,1-1.87.41,5.37,5.37,0,0,1-1.77-1.14,1.45,1.45,0,0,1-.39-.43.47.47,0,0,1,0-.52" style="fill:#83534b"></path><path d="M350.36,165.32c-.23,0-.28,1.51-1.62,2.56s-3,.82-3,1,.36.31,1.05.35a3.79,3.79,0,0,0,2.49-.79,3.33,3.33,0,0,0,1.27-2.14C350.63,165.7,350.47,165.31,350.36,165.32Z" style="fill:#263238"></path><path d="M357.87,150.54c0-.41-1.46-.57-3-1.16s-2.75-1.35-3.05-1.07c-.14.14,0,.55.44,1a5.41,5.41,0,0,0,2.12,1.38,5.34,5.34,0,0,0,2.51.31C357.52,151,357.89,150.73,357.87,150.54Z" style="fill:#263238"></path><path d="M342,148.11c-.34-.26-1.33.29-2.6.56s-2.39.28-2.57.66c-.08.18.16.46.69.66a4,4,0,0,0,2.22.08,4,4,0,0,0,1.94-1.06C342,148.59,342.12,148.24,342,148.11Z" style="fill:#263238"></path><path d="M332.47,139.51a6.37,6.37,0,0,1-2.27-6.64,7.27,7.27,0,0,1,5.09-5,8.39,8.39,0,0,1,1.49-.23,6.65,6.65,0,0,1,3.21-.81,3.43,3.43,0,0,1,2.7-2.6,8.26,8.26,0,0,1,3.94.27,6.67,6.67,0,0,1,10.73.8,5.48,5.48,0,0,1,8,3.62,5.38,5.38,0,0,1,3.84,2,17.22,17.22,0,0,1,1.75,3.48,6.15,6.15,0,0,1,2.43,11.29,5.62,5.62,0,0,1-1.5,8.89,7.19,7.19,0,0,1-.73,5.62,3.48,3.48,0,0,1-1.85,1.62,1.43,1.43,0,0,1-.17.38c-.64.94-2.13.47-3-.26a12.41,12.41,0,0,1-3.72-7.24c-.53-2.71-.59-5.5-1.1-8.21a1.77,1.77,0,0,0,0-.2,7.57,7.57,0,0,0-1.37-3.11,17.61,17.61,0,0,1-2.5,1.5,8.14,8.14,0,0,1-9.42-2.17,12,12,0,0,1-7.69,2.54,11.47,11.47,0,0,1-7.52-2.51,3.85,3.85,0,0,1-1.15-1.76A1.17,1.17,0,0,1,332.47,139.51Z" style="fill:#263238"></path><path d="M366.75,158.74c.14-.07,5.56-1.93,5.65,3.69s-5.57,4.54-5.59,4.38S366.75,158.74,366.75,158.74Z" style="fill:#a5695f"></path><path d="M368.5,164.66s.1.06.26.14a1,1,0,0,0,.74,0,2.42,2.42,0,0,0,1.08-2.19,3.3,3.3,0,0,0-.29-1.4,1.14,1.14,0,0,0-.75-.74.49.49,0,0,0-.57.28c-.08.16,0,.27-.07.28s-.12-.09-.08-.33a.62.62,0,0,1,.22-.35.73.73,0,0,1,.53-.15,1.35,1.35,0,0,1,1,.85,3.29,3.29,0,0,1,.36,1.56,2.51,2.51,0,0,1-1.39,2.45,1,1,0,0,1-.89-.13C368.51,164.79,368.48,164.67,368.5,164.66Z" style="fill:#83534b"></path><path d="M330.51,132a1.11,1.11,0,0,0-.05.13,2.53,2.53,0,0,0-.1.4,4.16,4.16,0,0,0,0,1.59,4.21,4.21,0,0,0,1.15,2.2,4.46,4.46,0,0,0,3,1.3l-.1-.09a9.69,9.69,0,0,0,2.25,4.92,7.57,7.57,0,0,0,2.44,1.9,6.19,6.19,0,0,0,3.22.52,10.69,10.69,0,0,0,3.13-.73,8.58,8.58,0,0,0,2.62-1.52h-.17a10.14,10.14,0,0,0,4.67,2.69,8,8,0,0,0,4.23-.29,8.25,8.25,0,0,0,2.45-1.33,7.1,7.1,0,0,0,.56-.49c.12-.11.18-.18.17-.18s-.26.23-.78.61a8.82,8.82,0,0,1-2.45,1.25,7.87,7.87,0,0,1-4.13.23,10,10,0,0,1-4.55-2.66l-.08-.08-.09.08a8.32,8.32,0,0,1-2.54,1.46,10.62,10.62,0,0,1-3,.72,5.89,5.89,0,0,1-3.1-.5,7.31,7.31,0,0,1-2.37-1.83,9.56,9.56,0,0,1-2.23-4.79v-.09h-.09a4.24,4.24,0,0,1-2.86-1.21,4.14,4.14,0,0,1-1.15-2.1,4.26,4.26,0,0,1-.06-1.56C330.47,132.14,330.53,132,330.51,132Z" style="fill:#455a64"></path><path d="M370.15,134.05a12.34,12.34,0,0,1,.48,1.93,8.07,8.07,0,0,1-.94,5l0,.08.07.06a5.24,5.24,0,0,1,1.48,2.29,5.07,5.07,0,0,1,0,3,5.21,5.21,0,0,1-2.42,3l-.1.06.05.1a6.41,6.41,0,0,1,.63,3.51,6.93,6.93,0,0,1-.83,2.72,7.54,7.54,0,0,1-1.61,2s.06,0,.15-.09.24-.17.4-.32a6.26,6.26,0,0,0,1.19-1.5,6.79,6.79,0,0,0,.91-2.77,6.61,6.61,0,0,0-.62-3.64l-.05.16a5.4,5.4,0,0,0,2.54-3.1,5.09,5.09,0,0,0,0-3.14,5.34,5.34,0,0,0-1.56-2.39l0,.14a8,8,0,0,0,.88-5.13,7.87,7.87,0,0,0-.39-1.43,3.56,3.56,0,0,0-.16-.36C370.18,134.09,370.16,134.05,370.15,134.05Z" style="fill:#455a64"></path><path d="M369.8,166.62a5.05,5.05,0,0,1,.11,1,1.52,1.52,0,0,1-.41,1,1.22,1.22,0,0,1-1.15.32,1,1,0,0,1-.7-.92,1.91,1.91,0,0,1,.2-1c.27-.57.51-.9.48-.92a2.58,2.58,0,0,0-.65.84,2,2,0,0,0-.27,1.14,1.57,1.57,0,0,0,.23.68,1.1,1.1,0,0,0,.64.47,1.44,1.44,0,0,0,1.39-.41,1.66,1.66,0,0,0,.42-1.1A1.47,1.47,0,0,0,369.8,166.62Z" style="fill:#263238"></path><path d="M334.14,165.67a.6.6,0,0,1,.63-.67c1.52.1,2.72-.72,4.16-2,1.92-1.66,2.79-2.84,5.89-2.58a11,11,0,0,1,4.58,1.42,18.26,18.26,0,0,0,12.31,2l3.58,5.16s-5.17,13.88-20.69,11.72C336,179.58,334.42,168.7,334.14,165.67Z" style="fill:#455a64"></path><path d="M338.9,163c1.91-1.66,2.78-2.84,5.88-2.58a11,11,0,0,1,4.59,1.42,18.3,18.3,0,0,0,12.3,2l.82,1.17.17.22c-3.83.73-8.25,1-11.75-.7-1.66-.82-5.25-2.29-7.1-2.2-2.17.12-2.92,1.32-4.57,2.74s-3.08,2.41-4.94,2l-.06-.65c0-.27-.06-.51-.09-.71a.62.62,0,0,1,.65-.68C336.29,165.07,337.47,164.21,338.9,163Z" style="fill:#e0e0e0"></path><path d="M336,170.59c0-.09,1.27.21,3.32.47a36.33,36.33,0,0,0,15.9-1.51c2-.64,3.14-1.16,3.17-1.08a3,3,0,0,1-.78.45,22.09,22.09,0,0,1-2.27,1,31.42,31.42,0,0,1-16.07,1.52,19.73,19.73,0,0,1-2.41-.53A3.3,3.3,0,0,1,336,170.59Z" style="fill:#263238"></path><path d="M340.27,174.17a29.24,29.24,0,0,0,6.89.65,28.85,28.85,0,0,0,6.75-1.54,5.76,5.76,0,0,1-1.83,1,16.23,16.23,0,0,1-9.87.64A5.71,5.71,0,0,1,340.27,174.17Z" style="fill:#263238"></path><path d="M364.84,169.35c0-.14.65-.23,1.44-.2s1.42.17,1.41.32-.65.23-1.43.2S364.84,169.5,364.84,169.35Z" style="fill:#455a64"></path><path d="M367.05,158.65A9.51,9.51,0,0,1,365,162a9.32,9.32,0,0,1-3,2.62,38.44,38.44,0,0,1,2.56-3A36.88,36.88,0,0,1,367.05,158.65Z" style="fill:#455a64"></path><g style="opacity:0.30000000000000004"><path d="M337.57,171s6.76,1.94,10.23,1.61a19.94,19.94,0,0,0,9.41-3.64C357.14,169.37,346.36,173.14,337.57,171Z"></path></g><path d="M340.06,167.16c0-.15,2.47.46,5.53.58s5.53-.26,5.56-.1a14.28,14.28,0,0,1-5.59.62A14.06,14.06,0,0,1,340.06,167.16Z" style="fill:#263238"></path><polygon points="349.48 453.41 349.89 443.04 367.96 442.36 367.68 455.05 361.11 459.01 349.48 453.41" style="fill:#a5695f"></polygon><path d="M368.08,452.69v1.19s20.06,8.28,20.24,12.1l-40-.59.73-13.29A22.89,22.89,0,0,0,368.08,452.69Z" style="fill:#FF725E"></path><g style="opacity:0.6000000000000001"><path d="M353.05,456.41a1.64,1.64,0,0,0-1.16,1.85,1.58,1.58,0,0,0,1.82,1.16,1.73,1.73,0,0,0,1.22-2,1.63,1.63,0,0,0-2-1" style="fill:#fff"></path></g><g style="opacity:0.6000000000000001"><path d="M348.33,465.39l.17-3.2,38.26,1.74s1.77.8,1.55,2.05Z" style="fill:#fff"></path></g><path d="M368.21,454c0,.2-1,.27-2,.88s-1.49,1.43-1.67,1.35.13-1.2,1.32-1.92S368.25,453.81,368.21,454Z" style="fill:#263238"></path><path d="M372.38,455.79c0,.19-.81.51-1.49,1.32s-.88,1.69-1.07,1.68-.3-1.12.56-2.12S372.38,455.6,372.38,455.79Z" style="fill:#263238"></path><path d="M374.69,460.84c-.18,0-.44-.94.08-2s1.43-1.47,1.51-1.31-.49.73-.9,1.6S374.88,460.83,374.69,460.84Z" style="fill:#263238"></path><polygon points="325.32 430.01 325.61 461.03 339.91 460 343.05 429.78 325.32 430.01" style="fill:#a5695f"></polygon><path d="M340.4,454.17s-10.06,7-14.94,1l-1.27,2.92-5.68,20.81a2.77,2.77,0,0,0,1.61,3.34,2.81,2.81,0,0,0,2.93-.55c4.14-3.85,19.27-18.07,19.12-20l-.07-5.11a2.6,2.6,0,0,0-1.7-2.39Z" style="fill:#FF725E"></path><g style="opacity:0.6000000000000001"><path d="M320.62,482.35l21.55-22.46V461a3.08,3.08,0,0,1-1,2.47c-1.74,2.3-6.57,7.44-18,18.19a2.86,2.86,0,0,1-2.52.69Z" style="fill:#fff"></path></g><g style="opacity:0.6000000000000001"><path d="M339,456.57a1.6,1.6,0,0,0-.46,2.13,1.64,1.64,0,0,0,2.16.47,1.55,1.55,0,1,0-1.82-2.5" style="fill:#fff"></path></g><path d="M326.82,470.86a8.34,8.34,0,0,0-2.36-2.06,8.57,8.57,0,0,0-3.12-.58c0-.07.32-.27,1-.36a4.36,4.36,0,0,1,2.42.43,4.16,4.16,0,0,1,1.81,1.61C326.85,470.45,326.89,470.84,326.82,470.86Z" style="fill:#263238"></path><path d="M324.89,474.38a21.9,21.9,0,0,0-2.39-1.14,22.18,22.18,0,0,0-2.64-.33c-.08-.14,1.22-.7,2.81-.22S325,474.31,324.89,474.38Z" style="fill:#263238"></path><path d="M330.42,466.34c-.13.13-1.46-1.2-3.57-2a27.64,27.64,0,0,0-4-.92,6.29,6.29,0,0,1,4.22.38A6.15,6.15,0,0,1,330.42,466.34Z" style="fill:#263238"></path><path d="M330.88,460c-.07.16-1.56-.45-3.51-.52s-3.48.38-3.54.21a5.48,5.48,0,0,1,3.57-.79A5.42,5.42,0,0,1,330.88,460Z" style="fill:#263238"></path><path d="M326.27,459.43a2.1,2.1,0,0,1,.15-1A7.05,7.05,0,0,1,327.7,456a3.16,3.16,0,0,1,1.61-1.2,1.14,1.14,0,0,1,1.19.46,1.78,1.78,0,0,1,.19,1.25,3.91,3.91,0,0,1-4,2.86,4.51,4.51,0,0,1-4-3.07,1.49,1.49,0,0,1,.16-1.27,1.12,1.12,0,0,1,1.23-.35,3.8,3.8,0,0,1,1.58,1.21,7.44,7.44,0,0,1,1.43,2.33,2.19,2.19,0,0,1,.24,1,12,12,0,0,0-2-3,3.73,3.73,0,0,0-1.4-1,.61.61,0,0,0-.68.19,1,1,0,0,0-.05.84,4,4,0,0,0,3.46,2.62,3.39,3.39,0,0,0,3.46-2.38,1.25,1.25,0,0,0-.11-.87.6.6,0,0,0-.65-.27,2.82,2.82,0,0,0-1.37,1A10,10,0,0,0,326.27,459.43Z" style="fill:#263238"></path><path d="M374.35,264.72l2.29.44,2.14,9.47a94.86,94.86,0,0,1,5.65,24.92c.66,7.59,1,16.81.05,24.25-2.54,19.22-5.81,47-7,60.37-.69,7.88-7.64,66.05-7.64,66.05L348.8,450s1.11-63.29,1.39-75.19c.21-9.33-.54-49.57-.54-49.57l-.9-53.43,26.49-6.67" style="fill:#263238"></path><path d="M342.92,451l6.67-129.61L355,263.12l-31.17.45-1.07,6.18s-10.5,19.09-10.49,34.64c0,22.05,3.77,78.52,3.77,78.52l6.83,67.7Z" style="fill:#263238"></path><path d="M350.76,275.85a1.45,1.45,0,0,0-.08.49c0,.38-.08.85-.13,1.41-.09,1.22-.19,3-.29,5.2-.19,4.39-.32,10.47-.42,17.18s-.2,12.7-.27,17.17c-.05,2.14-.09,3.89-.13,5.21,0,.56,0,1,0,1.41a2,2,0,0,0,0,.5,1.53,1.53,0,0,0,.08-.49c0-.39.08-.85.13-1.41.09-1.23.2-3,.29-5.21.19-4.39.32-10.47.42-17.18s.2-12.7.27-17.17c.05-2.13.1-3.89.13-5.2,0-.57,0-1,0-1.42A1.43,1.43,0,0,0,350.76,275.85Z" style="fill:#455a64"></path><path d="M316.79,288s.27.14.79.3a6.58,6.58,0,0,0,1,.25,11.84,11.84,0,0,0,1.29.22,16.42,16.42,0,0,0,3.41.06,19.6,19.6,0,0,0,4.1-.85,19.28,19.28,0,0,0,3.79-1.79,16.69,16.69,0,0,0,2.69-2.1,12.63,12.63,0,0,0,.9-1,6.54,6.54,0,0,0,.61-.78c.32-.44.48-.69.45-.71s-.79.9-2.21,2.17a20.25,20.25,0,0,1-2.69,2,18.94,18.94,0,0,1-7.68,2.57,18.87,18.87,0,0,1-3.33.05C318,288.2,316.82,287.85,316.79,288Z" style="fill:#455a64"></path><path d="M371.11,277.94a5.9,5.9,0,0,0,.95,1.91,15.58,15.58,0,0,0,3.49,3.8,15.79,15.79,0,0,0,4.54,2.45,6.15,6.15,0,0,0,2.09.45,26.06,26.06,0,0,1-6.3-3.32A25.2,25.2,0,0,1,371.11,277.94Z" style="fill:#455a64"></path><path d="M357.73,392.92a13.49,13.49,0,0,0,2.6-1.16c1.56-.79,3.68-2,5.94-3.43a67.27,67.27,0,0,0,5.59-4,13.7,13.7,0,0,0,2.14-1.88,17.1,17.1,0,0,0-2.36,1.59c-1.43,1-3.41,2.39-5.65,3.83s-4.32,2.67-5.84,3.55A18,18,0,0,0,357.73,392.92Z" style="fill:#455a64"></path><path d="M327,259.74s-9.11,32.86-9.32,43.31c-.23,11.56-1.69,79.86-1.69,79.86l65.89-.49s3.3-55.78,1-82.29c-1-12.06-7.67-35-8.45-39.57Z" style="fill:#FF725E"></path><g style="opacity:0.30000000000000004"><path d="M364.73,206.9q2.16,12.32,3.22,24.8a7.24,7.24,0,0,1-.51,4.28c-1.14,2-3.75,2.45-6,2.67a325.79,325.79,0,0,1-44.07,1.08,12.74,12.74,0,0,1-3.94-.57c-1.25-.46-3.39-1.86-3.77-3.14Z"></path></g><rect x="300.62" y="204.02" width="64.51" height="32.11" rx="6.51" style="fill:#FF725E"></rect><path d="M358.62,236.63H307.14a7,7,0,0,1-7-7V210.54a7,7,0,0,1,7-7h51.48a7,7,0,0,1,7,7v19.08A7,7,0,0,1,358.62,236.63Zm-51.48-32.11a6,6,0,0,0-6,6v19.08a6,6,0,0,0,6,6h51.48a6,6,0,0,0,6-6V210.54a6,6,0,0,0-6-6Z" style="fill:#263238"></path><circle cx="305.25" cy="208.01" r="0.73" style="fill:#fff"></circle><path d="M361.73,207.28a.73.73,0,1,1-.73-.73A.73.73,0,0,1,361.73,207.28Z" style="fill:#fff"></path><path d="M314.46,213.14l.28-.6a2.18,2.18,0,0,0,1.15.37c.48,0,.68-.16.68-.37,0-.66-2-.22-2-1.52,0-.59.48-1.08,1.48-1.08a2.42,2.42,0,0,1,1.21.32l-.26.61a2,2,0,0,0-1-.28c-.48,0-.67.18-.67.4,0,.64,2,.21,2,1.49,0,.59-.49,1.08-1.49,1.08A2.57,2.57,0,0,1,314.46,213.14Z" style="fill:#fff"></path><path d="M317.71,211.76a1.91,1.91,0,1,1,1.9,1.82A1.8,1.8,0,0,1,317.71,211.76Zm3,0a1.08,1.08,0,0,0-1.09-1.13,1.12,1.12,0,1,0,1.09,1.13Z" style="fill:#fff"></path><path d="M324.36,213.55l-.67-1H323v1h-.81l0-3.49h1.51c.94,0,1.52.49,1.51,1.28a1.12,1.12,0,0,1-.72,1.09l.78,1.13Zm-.74-2.84H323v1.22h.66c.49,0,.74-.23.75-.61S324.11,210.71,323.62,210.71Z" style="fill:#fff"></path><path d="M328,213.57l-.67-1h-.75v1h-.81l0-3.49h1.51c.94,0,1.52.49,1.51,1.28a1.15,1.15,0,0,1-.72,1.1l.77,1.12Zm-.75-2.84h-.66v1.21h.66c.49,0,.74-.23.74-.61S327.78,210.73,327.28,210.73Z" style="fill:#fff"></path><path d="M331.1,212.35v1.24h-.8v-1.25L329,210.08h.86l.93,1.55.94-1.54h.79Z" style="fill:#fff"></path><path d="M339.5,210.14l-1.16,3.49h-.87l-.75-2.37-.81,2.36h-.86l-1.13-3.5h.84l.77,2.45.84-2.45h.75l.78,2.48.83-2.47Z" style="fill:#fff"></path><path d="M342.64,213v.64h-2.71l0-3.49h2.64v.65h-1.84v.76h1.62v.63h-1.62v.8Z" style="fill:#fff"></path><path d="M344.11,209.92h.83l-.9.71h-.61Z" style="fill:#fff"></path><path d="M347.5,213.68l-.67-1h-.74v1h-.8l0-3.49h1.51c.93,0,1.51.49,1.51,1.27a1.14,1.14,0,0,1-.73,1.1l.78,1.13Zm-.74-2.84h-.66v1.22h.66c.5,0,.75-.22.75-.6S347.25,210.85,346.76,210.84Z" style="fill:#fff"></path><path d="M351.15,213.06v.64h-2.71l0-3.49h2.64v.65h-1.84v.76h1.62v.63h-1.62v.81Z" style="fill:#fff"></path><path d="M309.41,230.18v-1.65h.68v1.63c0,.56.24.79.65.8s.66-.23.66-.79v-1.63h.68v1.65a1.34,1.34,0,1,1-2.67,0Z" style="fill:#fff"></path><path d="M315.46,228.57l0,2.94h-.56l-1.46-1.8v1.79h-.67l0-2.95h.56l1.46,1.8v-1.79Z" style="fill:#fff"></path><path d="M316.76,229.13h-.94v-.55h2.57v.56h-.95v2.4h-.68Z" style="fill:#fff"></path><path d="M318.75,228.59h.69l0,2.95h-.68Z" style="fill:#fff"></path><path d="M320.13,228.59h.69l0,2.39h1.48v.56l-2.16,0Z" style="fill:#fff"></path><path d="M326.13,231v.55l-2.28,0v-2.94h2.23v.55h-1.55v.64h1.37v.53h-1.37V231Z" style="fill:#fff"></path><path d="M329.39,228.65l0,2.95h-.56l-1.46-1.8v1.79h-.67l0-3h.56l1.46,1.79v-1.79Z" style="fill:#fff"></path><path d="M330.08,228.65h1.34a1.48,1.48,0,1,1,0,3h-1.33Zm1.29,2.4a.92.92,0,1,0,0-1.83h-.63v1.83Z" style="fill:#fff"></path><path d="M334.55,230.15a1.62,1.62,0,1,1,1.61,1.54A1.53,1.53,0,0,1,334.55,230.15Zm2.54,0a.9.9,0,0,0-.92-.95.95.95,0,1,0,.92.95Z" style="fill:#fff"></path><path d="M338.26,230.35V228.7H339v1.62c0,.56.24.79.66.8s.65-.23.66-.79v-1.63h.67v1.65a1.34,1.34,0,1,1-2.67,0Z" style="fill:#fff"></path><path d="M342.17,229.28h-.95v-.56h2.57v.56h-.94v2.4h-.69Z" style="fill:#fff"></path><path d="M346.85,230.9c0,.51-.41.8-1.18.79h-1.53l0-2.94h1.44c.74,0,1.11.32,1.11.78a.69.69,0,0,1-.39.64A.75.75,0,0,1,346.85,230.9Zm-.69-.08c0-.25-.18-.37-.54-.37h-.79v.72h.8C346,231.18,346.16,231.07,346.16,230.82Zm-1.33-1.57v.7h.68c.33,0,.51-.11.51-.34s-.18-.35-.51-.35Z" style="fill:#fff"></path><path d="M349.24,231.71l-.57-.82h-.62v.82h-.68l0-2.94h1.27c.79,0,1.28.42,1.28,1.08a1,1,0,0,1-.61.93l.65.95Zm-.63-2.39h-.55v1h.56c.41,0,.62-.19.63-.51S349,229.32,348.61,229.32Z" style="fill:#fff"></path><path d="M352.74,231.19v.55l-2.28,0,0-2.95,2.22,0v.54h-1.55V230h1.37v.53h-1.36v.68Z" style="fill:#fff"></path><path d="M355.22,231.12h-1.37l-.27.63h-.69l1.33-2.94h.67l1.3,3h-.72Zm-.21-.52-.47-1.13-.47,1.12Z" style="fill:#fff"></path><path d="M357.57,230.61l-.39.41v.74h-.68l0-2.95h.68v1.38l1.31-1.37h.76l-1.23,1.3,1.29,1.64h-.8Z" style="fill:#fff"></path><path d="M305.26,220.67a4.67,4.67,0,0,1,5-4.67,4.78,4.78,0,0,1,3.87,1.73l-1.63,1.46a2.66,2.66,0,0,0-2.13-1.07,2.58,2.58,0,0,0,0,5.16,2.65,2.65,0,0,0,2.14-1l1.62,1.48a4.79,4.79,0,0,1-3.9,1.68A4.68,4.68,0,0,1,305.26,220.67Z" style="fill:#fff"></path><path d="M315.27,216.21l2.56,0,0,7,4.31,0v2l-6.87,0Z" style="fill:#fff"></path><path d="M322.51,220.77a5,5,0,1,1,5,4.73A4.73,4.73,0,0,1,322.51,220.77Zm7.46,0a2.44,2.44,0,1,0-2.45,2.56A2.42,2.42,0,0,0,330,220.82Z" style="fill:#fff"></path><path d="M333.24,224.54l.85-1.88a5.78,5.78,0,0,0,3,.91c1.06,0,1.47-.29,1.47-.73,0-1.43-5.13-.42-5.11-3.77,0-1.62,1.33-2.92,4-2.91a6.83,6.83,0,0,1,3.27.81l-.8,1.89a5.26,5.26,0,0,0-2.5-.71c-1.07,0-1.46.35-1.46.8,0,1.39,5.12.38,5.1,3.71,0,1.58-1.33,2.91-4,2.9A7.12,7.12,0,0,1,333.24,224.54Z" style="fill:#fff"></path><path d="M349.48,223.47v2l-7.25,0,0-9,7.09,0v2l-4.56,0v1.52l4,0v1.91l-4,0v1.66Z" style="fill:#fff"></path><path d="M350.94,216.42l4.27,0c3,0,5,1.77,5,4.55s-2.07,4.5-5.07,4.48l-4.27,0Zm4.13,7a2.48,2.48,0,1,0,0-4.95h-1.61l0,5Z" style="fill:#fff"></path><path d="M359.46,235.07a5.08,5.08,0,0,0,1.72-.41,4.23,4.23,0,0,0,1.66-1.32,4.33,4.33,0,0,0,.89-2.7c0-4.49-.05-10.93-.08-18.89,0-1,0-2,0-3.06a4.13,4.13,0,0,0-.16-1.5,2.67,2.67,0,0,0-.83-1.23,2.73,2.73,0,0,0-1.38-.63,14.78,14.78,0,0,0-1.65,0h-3.45l-15,0-34.3,0a4.76,4.76,0,0,0-4.61,3.77,11,11,0,0,0-.1,2.17c0,3,0,5.88,0,8.75v8.44c0,.69,0,1.4,0,2a4.7,4.7,0,0,0,.6,1.83,4.88,4.88,0,0,0,2.91,2.31,6.17,6.17,0,0,0,1.88.2h5.74l7.27,0,13,0,18.89.08,5.13.05,1.34,0a3.82,3.82,0,0,1,.45,0s-.15,0-.45,0l-1.34,0-5.13,0-18.89.09-13,0h-13a6.35,6.35,0,0,1-2-.21,5.39,5.39,0,0,1-3.21-2.53,5.24,5.24,0,0,1-.66-2c-.07-.73,0-1.39,0-2.09,0-2.76,0-5.57,0-8.44v-8.75a11.06,11.06,0,0,1,.11-2.28,5.26,5.26,0,0,1,5.11-4.18l34.31,0,15,0h3.45a16.59,16.59,0,0,1,1.71,0,3.2,3.2,0,0,1,2.53,2.14,4.59,4.59,0,0,1,.16,1.63v3.06c0,8-.07,14.4-.09,18.89a4.46,4.46,0,0,1-2.7,4.12,4.74,4.74,0,0,1-1.31.32Z" style="fill:#fff"></path><path d="M386.3,194s4.39,2.31,6.14,9.68,8.91,39.65,8.91,39.65l-16.27.29s-7.61-31.61-7.42-32.39S386.3,194,386.3,194Z" style="fill:#455a64"></path><path d="M359.15,238.15a23.75,23.75,0,0,0,.3,3.87,3.93,3.93,0,0,0,1.07,2l7.43,4.76,17.18-4.23-13-8.31Z" style="fill:#a5695f"></path><path d="M373.19,230.93a2.89,2.89,0,0,0-1.23-2.29c-1.34-1.12-13.2-5.82-14.38-5.82s-4.64-.67-4.41,2.18v.39s-2.06-.28-2.34,2.63c0,0-2,1-.79,2.52l1.16,1.33a70.75,70.75,0,0,0,5.72,5.61c1.79,1.34,2.86,2.18,2.86,2.18s3.19,3.13,5.81,2.18c0,0,1-.45,2.07-1s2.3-2.07,3-2.57a3.92,3.92,0,0,0,2.13-2.52c.22-1.4-.28-2.46.11-3.41A2.74,2.74,0,0,0,373.19,230.93Z" style="fill:#a5695f"></path><path d="M359.52,233.92c-.1.11-1.92-1.38-4.33-3s-4.44-2.78-4.37-2.92a17.82,17.82,0,0,1,4.66,2.49A16.07,16.07,0,0,1,359.52,233.92Z" style="fill:#83534b"></path><path d="M363.38,229.5c-.08.13-2.17-1.22-5-2.32s-5.29-1.54-5.26-1.69a14,14,0,0,1,5.45,1.21A14.1,14.1,0,0,1,363.38,229.5Z" style="fill:#83534b"></path><path d="M366.82,241.89s.18,0,.45-.2a2.42,2.42,0,0,0,.89-.93,14.76,14.76,0,0,1,1-1.82c.53-.73,1.52-.91,2.21-1.3a2.83,2.83,0,0,0,1.25-1.85,9.61,9.61,0,0,0,.05-2,2.87,2.87,0,0,1,.4-1.87,13.52,13.52,0,0,0,0,1.86,8.3,8.3,0,0,1,0,2.1,3.21,3.21,0,0,1-1.46,2.2c-.86.46-1.68.58-2.1,1.16s-.7,1.22-1.06,1.71a2.27,2.27,0,0,1-1.12.92C367,242,366.82,241.92,366.82,241.89Z" style="fill:#83534b"></path><path d="M363.6,241.37c.06,0-.3.34-.89.18a8.12,8.12,0,0,1-1.88-.93,6.31,6.31,0,0,1-2.25-1.89,12.41,12.41,0,0,1,2.52,1.45c.68.4,1.3.82,1.73,1S363.56,241.3,363.6,241.37Z" style="fill:#83534b"></path><path d="M387.19,239.82s13.31,1.1,14.16,3.55c1.57,4.5,1.59,13.46,0,15.74a13.84,13.84,0,0,1-9.17,5.57c-5.19.92-24.72-16.25-24.72-16.25l7-11.13Z" style="fill:#455a64"></path><path d="M304.93,232.31a1.83,1.83,0,0,1,0,2.21c-.31.4,0,.81.51,1.18a4.47,4.47,0,0,1,1.65,5c-.7,2.25-1.59,4.76-2.22,5.26-1.18.95-3.42.77-4.42.59s-5.67-3.3-7.26-4.24a3.5,3.5,0,0,1-1.77-2.3,2.23,2.23,0,0,1-1.18-1.18,4.17,4.17,0,0,1-.12-2.54,6,6,0,0,1-1.17-2c-.48-1.29,1.41-3.24,1.41-3.24a13.56,13.56,0,0,1,0-1.65,25.14,25.14,0,0,1,2.24-5.13c.42-.48,4.25-1.48,7-1.48s2.42,2.18,2.42,2.18a1.7,1.7,0,0,1-.65,1.18l1.3-.17c3.07-.18,2.12,2.53,2.12,2.53,3.84,1.35.12,3.66.18,3.84" style="fill:#a5695f"></path><path d="M302.27,226.13c0,.07-.67.15-1.72.45a26.8,26.8,0,0,1-4.26.73,10.35,10.35,0,0,0-1.2.2,2.45,2.45,0,0,0-.5.17c-.15.06-.28.18-.47.28a.93.93,0,0,0-.36.29,4.07,4.07,0,0,1-.36.36l-.65.62c-.4.38-.74.7-1,.88s-.34.32-.37.3,0-.2.23-.44l.85-1,.61-.67c.11-.12.23-.24.34-.37a1.31,1.31,0,0,1,.45-.39,4.19,4.19,0,0,1,.49-.32A3.19,3.19,0,0,1,295,227a7.2,7.2,0,0,1,1.23-.22c1.75-.22,3.16-.33,4.26-.57A3.57,3.57,0,0,1,302.27,226.13Z" style="fill:#83534b"></path><path d="M304.93,228.62a5,5,0,0,1-1.84,1,48.68,48.68,0,0,1-4.83,1.35,12,12,0,0,0-4.4,2.07,19.7,19.7,0,0,0-1.42,1.47,3.44,3.44,0,0,1,1.18-1.74,10.48,10.48,0,0,1,4.51-2.3c1.91-.51,3.64-.81,4.84-1.2S304.89,228.55,304.93,228.62Z" style="fill:#83534b"></path><path d="M293.56,237a3.35,3.35,0,0,1,.8-.57c.54-.33,1.33-.78,2.33-1.3s2.22-1.1,3.59-1.68c.69-.29,1.42-.58,2.18-.87l1.17-.42a6.23,6.23,0,0,1,.64-.19,1,1,0,0,1,.81.17,1.34,1.34,0,0,1,.43,1.43,2.37,2.37,0,0,1-.82,1.1,11.49,11.49,0,0,1-2.05,1.2,24.37,24.37,0,0,0-3.49,1.78,6.2,6.2,0,0,0-2.28,2.69,2.08,2.08,0,0,1,.28-1,5.74,5.74,0,0,1,1.79-2,21.88,21.88,0,0,1,3.49-1.91,11.77,11.77,0,0,0,1.94-1.17,1.83,1.83,0,0,0,.65-.85.85.85,0,0,0-.25-.86c-.21-.19-.56,0-1,.09l-1.16.41c-.76.28-1.49.56-2.17.83-1.38.55-2.6,1.1-3.61,1.57C294.82,236.36,293.6,237,293.56,237Z" style="fill:#83534b"></path><path d="M303.61,240.43a3.77,3.77,0,0,1-2.05-1.19c-1-.9-1.48-1.88-1.36-2s.78.72,1.71,1.56S303.68,240.3,303.61,240.43Z" style="fill:#83534b"></path><path d="M306.65,237.69a4.11,4.11,0,0,1-3,.4,4.17,4.17,0,0,1-2.75-1.39c.09-.13,1.23.61,2.83.87S306.62,237.54,306.65,237.69Z" style="fill:#83534b"></path><path d="M297.64,239.79c.12-.06.54.73.41,1.77s-.72,1.71-.83,1.62.21-.77.32-1.68S297.49,239.84,297.64,239.79Z" style="fill:#83534b"></path><path d="M320.69,248.91a13.27,13.27,0,0,1-1.75-2.08,50.14,50.14,0,0,0-4.23-5,15.82,15.82,0,0,0-5.31-3.61c-1.55-.6-2.6-.7-2.58-.8s.26,0,.74,0a9.29,9.29,0,0,1,2,.43,14.59,14.59,0,0,1,5.56,3.59,35.73,35.73,0,0,1,4.15,5.13A14.14,14.14,0,0,1,320.69,248.91Z" style="fill:#263238"></path><path d="M324.87,246.2a7.9,7.9,0,0,1,.08,2.25,28.4,28.4,0,0,1-.79,5.4,25.27,25.27,0,0,1-2.68,6.8l-.22.35.08-.39c.05-.26.09-.38.12-.37s0,.12,0,.38l-.14,0a51.93,51.93,0,0,0,2.3-6.86C324.68,249.64,324.7,246.19,324.87,246.2Z" style="fill:#263238"></path><path d="M380.65,210.21a5,5,0,0,1,.36,1.07c.2.7.45,1.73.72,3a75.18,75.18,0,0,1,1.4,10.06,90.39,90.39,0,0,1,.17,10.16c-.06,1.3-.12,2.35-.19,3.07a5.32,5.32,0,0,1-.16,1.12,4.55,4.55,0,0,1-.05-1.13c0-.84,0-1.86,0-3.07,0-2.59,0-6.17-.32-10.11s-.79-7.48-1.24-10c-.22-1.28-.42-2.31-.56-3A4.19,4.19,0,0,1,380.65,210.21Z" style="fill:#263238"></path><path d="M392.18,264.68a2.72,2.72,0,0,1-.6,0,8.52,8.52,0,0,1-1.69-.33,24.08,24.08,0,0,1-5.69-2.82c-4.62-2.79-10.4-7.61-16.9-12.92l-.18-.14.13-.2,1.81-2.87,5.23-8.25.1-.15.17,0c6.64,1.54,12.49,2.29,16.59,3.05,2.06.36,3.69.68,4.81.92l1.27.29a2.51,2.51,0,0,1,.43.13,1.54,1.54,0,0,1-.45,0l-1.28-.22-4.83-.78c-4.12-.67-10-1.35-16.65-2.87l.26-.11-5.21,8.27-1.82,2.87-.05-.34c6.51,5.33,12.2,10.16,16.75,13a26.16,26.16,0,0,0,5.57,2.94A11.23,11.23,0,0,0,392.18,264.68Z" style="fill:#263238"></path><path d="M374.35,258.13c0,.14-10.78.26-24.08.26s-24.08-.12-24.08-.26,10.78-.26,24.08-.26S374.35,258,374.35,258.13Z" style="fill:#263238"></path><path d="M375.24,263.68c0,.14-11,.26-24.64.26s-24.64-.12-24.64-.26,11-.26,24.64-.26S375.24,263.53,375.24,263.68Z" style="fill:#263238"></path><path d="M317.47,349.23a3.92,3.92,0,0,1,.79,0l2.25.14a29.81,29.81,0,0,0,3.55,0,15.08,15.08,0,0,0,4.56-.94,10,10,0,0,0,4.47-3.27,11.47,11.47,0,0,0,1.81-6.09c.31-4.63.65-9.7,1-15,.48-6.88.93-13.34,1.31-18.86l.25.24a104.28,104.28,0,0,1-14.36.18c-1.73-.08-3.09-.17-4-.25l-1.06-.1q-.36,0-.36-.06a2.12,2.12,0,0,1,.37,0l1.06,0,4,.13a116.36,116.36,0,0,0,14.3-.37l.27,0,0,.27c-.36,5.52-.78,12-1.24,18.86-.37,5.33-.72,10.41-1,15a11.85,11.85,0,0,1-1.95,6.31,10.26,10.26,0,0,1-4.68,3.36,15.48,15.48,0,0,1-4.68.89,28.07,28.07,0,0,1-3.58-.1c-1-.08-1.73-.17-2.24-.24A3.61,3.61,0,0,1,317.47,349.23Z" style="fill:#263238"></path><path d="M378.26,214.5a2.88,2.88,0,0,1,.36,1.51,2.79,2.79,0,0,1-.42,1.72,2.15,2.15,0,0,1-2,.85,3.12,3.12,0,0,1-1.9-1,4.31,4.31,0,0,1-.85-1.51,3,3,0,0,1-.22-1.54,9.39,9.39,0,0,1,.57,1.4,4.27,4.27,0,0,0,.85,1.32,2.74,2.74,0,0,0,1.61.84,1.7,1.7,0,0,0,1.57-.62,2.52,2.52,0,0,0,.44-1.43A10.89,10.89,0,0,1,378.26,214.5Z" style="fill:#263238"></path><path d="M376.71,214.48c0-.06.5-.1.86.52a1.15,1.15,0,0,1-.08,1.18,1.27,1.27,0,0,1-1.36.53,1.4,1.4,0,0,1-1-1,1.17,1.17,0,0,1,.35-1.14.93.93,0,0,1,.75-.22c.18,0,.26.1.25.13s-.42,0-.74.36a.83.83,0,0,0-.15.75,1,1,0,0,0,.7.63.82.82,0,0,0,1-1C377.06,214.67,376.68,214.55,376.71,214.48Z" style="fill:#263238"></path></g><g id="Plant"><path d="M446.84,423.24c10.45-5.65,22.21-15.94,26.78-27.63a62.33,62.33,0,0,0-26.78,27.63" style="fill:#263238"></path><path d="M447.52,405.71c10.46-5.65,22.21-15.94,26.79-27.63a62.3,62.3,0,0,0-26.79,27.63" style="fill:#263238"></path><path d="M449.08,388.57c10.46-5.65,22.22-15.94,26.79-27.63a62.3,62.3,0,0,0-26.79,27.63" style="fill:#263238"></path><path d="M451.37,370.57c9.7-7.07,20.14-18.92,23.3-31.15a64.32,64.32,0,0,0-23.3,31.15" style="fill:#263238"></path><path d="M454.32,356.68c6.56-10.5,12.17-25.74,10.88-38.36a69.17,69.17,0,0,0-10.88,38.36" style="fill:#263238"></path><path d="M452.83,363.29c-2.77-13.1-9.49-29.27-19.18-38.38a81.22,81.22,0,0,0,19.18,38.38" style="fill:#263238"></path><path d="M450.67,378.12c-3.95-13.41-12.29-29.67-23.13-38.31a84.47,84.47,0,0,0,23.13,38.31" style="fill:#263238"></path><path d="M448.3,396.17c-4-13.41-12.3-29.66-23.13-38.31a84.38,84.38,0,0,0,23.13,38.31" style="fill:#263238"></path><path d="M447.1,418.17c-4-13.4-12.29-29.66-23.13-38.3a84.44,84.44,0,0,0,23.13,38.3" style="fill:#263238"></path><path d="M454.58,354a.8.8,0,0,0-.07.21c0,.17-.08.38-.14.63l-.54,2.44c-.46,2.11-1.06,5.18-1.75,9s-1.42,8.36-2.14,13.43-1.36,10.65-1.91,16.53-.89,11.5-1.13,16.62-.33,9.72-.35,13.59,0,7,.08,9.16c0,1.06.06,1.89.08,2.49,0,.27,0,.48,0,.65s0,.22,0,.22a1,1,0,0,0,0-.22c0-.17,0-.39,0-.65v-2.49c0-2.16,0-5.29.06-9.16s.19-8.47.43-13.57.64-10.72,1.17-16.6,1.2-11.45,1.87-16.52,1.39-9.61,2.05-13.43,1.21-6.89,1.62-9l.45-2.45c0-.26.08-.47.11-.64A.73.73,0,0,0,454.58,354Z" style="fill:#263238"></path><g style="opacity:0.30000000000000004"><path d="M446.84,423.24c10.45-5.65,22.21-15.94,26.78-27.63a62.33,62.33,0,0,0-26.78,27.63"></path><path d="M447.52,405.71c10.46-5.65,22.21-15.94,26.79-27.63a62.3,62.3,0,0,0-26.79,27.63"></path><path d="M449.08,388.57c10.46-5.65,22.22-15.94,26.79-27.63a62.3,62.3,0,0,0-26.79,27.63"></path><path d="M451.37,370.57c9.7-7.07,20.14-18.92,23.3-31.15a64.32,64.32,0,0,0-23.3,31.15"></path><path d="M454.32,356.68c6.56-10.5,12.17-25.74,10.88-38.36a69.17,69.17,0,0,0-10.88,38.36"></path><path d="M452.83,363.29c-2.77-13.1-9.49-29.27-19.18-38.38a81.22,81.22,0,0,0,19.18,38.38"></path><path d="M450.67,378.12c-3.95-13.41-12.29-29.67-23.13-38.31a84.47,84.47,0,0,0,23.13,38.31"></path><path d="M448.3,396.17c-4-13.41-12.3-29.66-23.13-38.31a84.38,84.38,0,0,0,23.13,38.31"></path><path d="M447.1,418.17c-4-13.4-12.29-29.66-23.13-38.3a84.44,84.44,0,0,0,23.13,38.3"></path><path d="M454.58,354a.8.8,0,0,0-.07.21c0,.17-.08.38-.14.63l-.54,2.44c-.46,2.11-1.06,5.18-1.75,9s-1.42,8.36-2.14,13.43-1.36,10.65-1.91,16.53-.89,11.5-1.13,16.62-.33,9.72-.35,13.59,0,7,.08,9.16c0,1.06.06,1.89.08,2.49,0,.27,0,.48,0,.65s0,.22,0,.22a1,1,0,0,0,0-.22c0-.17,0-.39,0-.65v-2.49c0-2.16,0-5.29.06-9.16s.19-8.47.43-13.57.64-10.72,1.17-16.6,1.2-11.45,1.87-16.52,1.39-9.61,2.05-13.43,1.21-6.89,1.62-9l.45-2.45c0-.26.08-.47.11-.64A.73.73,0,0,0,454.58,354Z"></path></g><path d="M442.24,427.77c4.87-10.19,8.41-24.53,6-35.72a63.33,63.33,0,0,0-6,35.72" style="fill:#263238"></path><path d="M434.14,414.57c4.87-10.2,8.41-24.53,6-35.72a63.33,63.33,0,0,0-6,35.72" style="fill:#263238"></path><path d="M426.88,401.14c4.87-10.19,8.41-24.52,6-35.71a63.3,63.3,0,0,0-6,35.71" style="fill:#263238"></path><path d="M419.73,386.67c3.62-10.79,5.43-25.5,1.74-36.27a63.66,63.66,0,0,0-1.74,36.27" style="fill:#263238"></path><path d="M415.07,374.81c-.36-11.48-3.73-25.86-10.86-34.34a62.2,62.2,0,0,0,10.86,34.34" style="fill:#263238"></path><path d="M417.22,380.51c-8.44-8-21.28-15.88-32.83-16.92a63.66,63.66,0,0,0,32.83,16.92" style="fill:#263238"></path><path d="M422.92,392.58c-9.46-7.5-23.53-14.54-35.68-14.56a66.25,66.25,0,0,0,35.68,14.56" style="fill:#263238"></path><path d="M430,407.15c-9.47-7.5-23.53-14.54-35.68-14.57A66.12,66.12,0,0,0,430,407.15" style="fill:#263238"></path><path d="M440,423.91c-9.46-7.49-23.53-14.53-35.68-14.56A66.25,66.25,0,0,0,440,423.91" style="fill:#263238"></path><path d="M414,372.73l.06.19c.05.15.12.32.19.54l.8,2.06c.68,1.8,1.74,4.37,3.09,7.52,2.7,6.31,6.7,14.93,11.68,24.15,2.49,4.61,5,8.94,7.32,12.83s4.55,7.34,6.45,10.19,3.48,5.15,4.6,6.71c.55.75,1,1.35,1.29,1.79l.35.46a.83.83,0,0,0,.13.15s0-.06-.09-.18l-.32-.48c-.3-.45-.71-1.06-1.22-1.84-1.08-1.58-2.62-3.89-4.48-6.77s-4-6.35-6.37-10.23-4.8-8.23-7.29-12.83c-5-9.21-9-17.79-11.77-24.07-1.39-3.14-2.48-5.69-3.22-7.46-.36-.86-.65-1.53-.87-2l-.23-.53A.81.81,0,0,0,414,372.73Z" style="fill:#263238"></path><polygon points="419.06 429 467.43 429 467.43 438.32 462.46 438.32 458.27 464.91 428.37 464.91 424.06 438.32 419.06 438.32 419.06 429" style="fill:#FF725E"></polygon><path d="M419.05,438.13c0-.12,10.76-.22,24-.22s24,.1,24,.22-10.75.22-24,.22S419.05,438.25,419.05,438.13Z" style="fill:#263238"></path></g></svg>