<svg xmlns="http://www.w3.org/2000/svg" viewBox="0 0 500 500"><g id="background-complete"><path d="M212,71.48l-3.63,5.23s8.18,2.28,8.18,9.55-5,8.64-10.46,8.64S195.37,93.31,195.59,86s7-10,7-10l-3.41-4.55Z" style="fill:#f5f5f5"></path><rect x="105.77" y="63.78" width="8.22" height="30.88" style="fill:#f5f5f5"></rect><rect x="91.68" y="55.85" width="14.3" height="38.82" style="fill:#ebebeb"></rect><rect x="73.69" y="94.54" width="166.06" height="5.81" style="fill:#e0e0e0"></rect><rect x="104.84" y="97.45" width="4.52" height="15.09" style="fill:#e0e0e0"></rect><rect x="194.3" y="97.45" width="4.52" height="15.09" style="fill:#e0e0e0"></rect><rect x="131.89" y="80.36" width="38.82" height="14.3" style="fill:#ebebeb"></rect><rect x="117.59" y="46.31" width="14.3" height="48.35" style="fill:#f5f5f5"></rect><rect x="113.28" y="55.85" width="4.31" height="38.82" style="fill:#ebebeb"></rect><rect x="135.2" y="76.05" width="38.82" height="4.31" style="fill:#ebebeb"></rect></g><g id="background-simple"><path d="M74.63,126l1.78-3.64c15-30.64,45.42-51.2,79.51-52.36a90.19,90.19,0,0,1,13.14.5C200.5,74,229.54,94.43,243.5,122.82c8.22,16.7,12,36.47,25.71,49,17.87,16.34,45.33,14.25,69.35,11.17s51.5-5.1,69.3,11.32c11.15,10.28,15.9,26,16.55,41.12,1.72,40.12-23,78.53-57.08,99.73s-76.11,26.88-116.06,22.88c-56-5.61-111.09-30.57-147-73.88S54.37,178.47,74.63,126Z" style="fill:#f5f5f5"></path></g><g id="Floor"><path d="M465.57,461.09c0,.15-96.52.26-215.56.26s-215.58-.11-215.58-.26,96.5-.26,215.58-.26S465.57,461,465.57,461.09Z" style="fill:#263238"></path></g><g id="Shelve"><rect x="244.19" y="140.61" width="166.06" height="5.81" style="fill:#263238"></rect><rect x="275.34" y="143.52" width="4.52" height="15.09" style="fill:#263238"></rect><rect x="364.8" y="143.52" width="4.52" height="15.09" style="fill:#263238"></rect><path d="M274.91,126.22h7.87v11.35A21.69,21.69,0,0,1,271.07,141c-8.66,0-15-5.8-15-14s6.33-14,15.19-14c5.29,0,9.55,1.84,12.27,5.18l-5.79,5.1a7.65,7.65,0,0,0-6-3c-4,0-6.52,2.57-6.52,6.72s2.53,6.71,6.4,6.71a8.44,8.44,0,0,0,3.3-.65Z" style="fill:#FF725E"></path><path d="M285.27,129.86c0-6.37,5.1-10.85,12.2-10.85s12.2,4.48,12.2,10.85-5.06,10.9-12.2,10.9S285.27,136.23,285.27,129.86Zm15.62,0c0-2.72-1.5-4.1-3.42-4.1s-3.41,1.38-3.41,4.1,1.49,4.15,3.41,4.15S300.89,132.59,300.89,129.86Z" style="fill:#FF725E"></path><path d="M311.28,129.86c0-6.37,5.11-10.85,12.2-10.85s12.2,4.48,12.2,10.85-5.06,10.9-12.2,10.9S311.28,136.23,311.28,129.86Zm15.62,0c0-2.72-1.5-4.1-3.42-4.1s-3.41,1.38-3.41,4.1,1.5,4.15,3.41,4.15S326.9,132.59,326.9,129.86Z" style="fill:#FF725E"></path><path d="M361.62,111.91v28.46h-8.25v-1.72c-1.27,1.42-3.15,2.11-5.75,2.11-5.49,0-10.13-4.15-10.13-10.9S342.13,119,347.62,119a7.3,7.3,0,0,1,5.33,1.8v-8.9Zm-8.52,18c0-2.72-1.49-4.1-3.41-4.1s-3.42,1.38-3.42,4.1,1.5,4.15,3.42,4.15S353.1,132.59,353.1,129.86Z" style="fill:#FF725E"></path><g style="opacity:0.30000000000000004"><path d="M274.91,126.22h7.87v11.35A21.69,21.69,0,0,1,271.07,141c-8.66,0-15-5.8-15-14s6.33-14,15.19-14c5.29,0,9.55,1.84,12.27,5.18l-5.79,5.1a7.65,7.65,0,0,0-6-3c-4,0-6.52,2.57-6.52,6.72s2.53,6.71,6.4,6.71a8.44,8.44,0,0,0,3.3-.65Z"></path><path d="M285.27,129.86c0-6.37,5.1-10.85,12.2-10.85s12.2,4.48,12.2,10.85-5.06,10.9-12.2,10.9S285.27,136.23,285.27,129.86Zm15.62,0c0-2.72-1.5-4.1-3.42-4.1s-3.41,1.38-3.41,4.1,1.49,4.15,3.41,4.15S300.89,132.59,300.89,129.86Z"></path><path d="M311.28,129.86c0-6.37,5.11-10.85,12.2-10.85s12.2,4.48,12.2,10.85-5.06,10.9-12.2,10.9S311.28,136.23,311.28,129.86Zm15.62,0c0-2.72-1.5-4.1-3.42-4.1s-3.41,1.38-3.41,4.1,1.5,4.15,3.41,4.15S326.9,132.59,326.9,129.86Z"></path><path d="M361.62,111.91v28.46h-8.25v-1.72c-1.27,1.42-3.15,2.11-5.75,2.11-5.49,0-10.13-4.15-10.13-10.9S342.13,119,347.62,119a7.3,7.3,0,0,1,5.33,1.8v-8.9Zm-8.52,18c0-2.72-1.49-4.1-3.41-4.1s-3.42,1.38-3.42,4.1,1.5,4.15,3.42,4.15S353.1,132.59,353.1,129.86Z"></path></g><path d="M270.77,126.22h7.86v11.35a21.66,21.66,0,0,1-11.7,3.42c-8.67,0-15-5.8-15-14s6.33-14,15.2-14c5.29,0,9.55,1.84,12.27,5.18l-5.79,5.1a7.67,7.67,0,0,0-6-3c-4,0-6.53,2.57-6.53,6.72s2.54,6.71,6.41,6.71a8.44,8.44,0,0,0,3.3-.65Z" style="fill:#FF725E"></path><path d="M281.13,129.86c0-6.37,5.1-10.85,12.2-10.85s12.2,4.48,12.2,10.85-5.06,10.9-12.2,10.9S281.13,136.23,281.13,129.86Zm15.61,0c0-2.72-1.49-4.1-3.41-4.1s-3.41,1.38-3.41,4.1,1.49,4.15,3.41,4.15S296.74,132.59,296.74,129.86Z" style="fill:#FF725E"></path><path d="M307.14,129.86c0-6.37,5.1-10.85,12.2-10.85s12.2,4.48,12.2,10.85-5.06,10.9-12.2,10.9S307.14,136.23,307.14,129.86Zm15.62,0c0-2.72-1.5-4.1-3.42-4.1s-3.41,1.38-3.41,4.1,1.49,4.15,3.41,4.15S322.76,132.59,322.76,129.86Z" style="fill:#FF725E"></path><path d="M357.48,111.91v28.46h-8.25v-1.72c-1.27,1.42-3.15,2.11-5.76,2.11-5.48,0-10.12-4.15-10.12-10.9S338,119,343.47,119a7.31,7.31,0,0,1,5.34,1.8v-8.9Zm-8.52,18c0-2.72-1.5-4.1-3.41-4.1s-3.42,1.38-3.42,4.1,1.5,4.15,3.42,4.15S349,132.59,349,129.86Z" style="fill:#FF725E"></path><g style="opacity:0.4"><path d="M274.41,115.1a6.88,6.88,0,0,0-.82,0,5.63,5.63,0,0,0-2.14.5c-1.76.67-3.63,2.68-6.45,3.56a13.06,13.06,0,0,1-7.33.18,9.71,9.71,0,0,1-2.82-1.19l.2.08.55.26a14.92,14.92,0,0,0,2.11.71,13.31,13.31,0,0,0,7.22-.24c2.76-.85,4.65-2.84,6.46-3.5a5.5,5.5,0,0,1,2.2-.44A2.58,2.58,0,0,1,274.41,115.1Z" style="fill:#fff"></path><path d="M261.91,123.43a2,2,0,0,1-.36.16c-.24.09-.58.21-1,.33a15.06,15.06,0,0,1-7,.18c-.44-.1-.79-.19-1-.27a2.09,2.09,0,0,1-.37-.14s.55.11,1.43.26a17,17,0,0,0,3.47.26,18.13,18.13,0,0,0,3.45-.44C261.37,123.57,261.9,123.4,261.91,123.43Z" style="fill:#fff"></path><path d="M277.81,119.38a4.81,4.81,0,0,1-.93.44,17.39,17.39,0,0,1-2.38.72,16.86,16.86,0,0,1-2.47.36,4.39,4.39,0,0,1-1,0,6.64,6.64,0,0,1,1-.15c.63-.08,1.49-.21,2.43-.42s1.78-.46,2.38-.66A5.84,5.84,0,0,1,277.81,119.38Z" style="fill:#fff"></path><path d="M251.94,127.59s.09-.1.27-.25a6.23,6.23,0,0,1,.83-.58,10.33,10.33,0,0,1,3.08-1.25,10.45,10.45,0,0,1,3.32-.21,7.75,7.75,0,0,1,1,.17,1.22,1.22,0,0,1,.35.1s-.52-.07-1.36-.12a12,12,0,0,0-3.26.26,11.71,11.71,0,0,0-3.06,1.18C252.38,127.3,252,127.62,251.94,127.59Z" style="fill:#fff"></path><path d="M278.77,131.23a6.43,6.43,0,0,0-1.1.19,7.94,7.94,0,0,0-2.65,1.46,38.4,38.4,0,0,1-3.56,2.85,8.09,8.09,0,0,1-5.44,1,12.85,12.85,0,0,1-5-2.44,16,16,0,0,0-3.94-2.2,6.14,6.14,0,0,0-3-.34A8.77,8.77,0,0,0,253,132a3.53,3.53,0,0,1,1.07-.37,6.12,6.12,0,0,1,3,.28,15.78,15.78,0,0,1,4,2.18,12.79,12.79,0,0,0,4.94,2.39,7.87,7.87,0,0,0,5.3-.95,42.72,42.72,0,0,0,3.57-2.79,7.58,7.58,0,0,1,2.72-1.42A3.17,3.17,0,0,1,278.77,131.23Z" style="fill:#fff"></path><path d="M278.85,127.43s-.08.1-.24.26-.41.37-.72.63a13.71,13.71,0,0,1-2.65,1.7,8.62,8.62,0,0,1-3,.87,5,5,0,0,1-1,0c-.22,0-.34,0-.34-.06s.5,0,1.29-.09a9.66,9.66,0,0,0,3-.91,16.58,16.58,0,0,0,2.65-1.63A10.58,10.58,0,0,1,278.85,127.43Z" style="fill:#fff"></path><path d="M276,139.3a5.69,5.69,0,0,1-.69-.06l-1.88-.21c-1.59-.16-3.8-.32-6.23-.37s-4.65,0-6.25.12l-1.89.13a3,3,0,0,1-.69,0,5.82,5.82,0,0,1,.68-.11c.45-.06,1.09-.13,1.89-.19a60,60,0,0,1,6.26-.19,61.7,61.7,0,0,1,6.24.44c.8.09,1.44.19,1.88.27A3,3,0,0,1,276,139.3Z" style="fill:#fff"></path><path d="M300.53,120.59s-.27-.09-.76-.15a4.88,4.88,0,0,0-2.09.23c-1.76.48-3.6,2.3-6.13,3.47a19.31,19.31,0,0,1-6.83,1.77,17.16,17.16,0,0,1-2.15,0l-.58,0-.2,0a.63.63,0,0,1,.2,0h.58a19.91,19.91,0,0,0,2.14-.08,20.2,20.2,0,0,0,6.75-1.81c2.5-1.14,4.36-3,6.18-3.42a4.78,4.78,0,0,1,2.14-.17A2.27,2.27,0,0,1,300.53,120.59Z" style="fill:#fff"></path><path d="M303.7,123.44a3.18,3.18,0,0,1-.85.41,8.53,8.53,0,0,1-2.53.37,33.32,33.32,0,0,0-3.76.21,28.32,28.32,0,0,0-4.51,1,55.44,55.44,0,0,0-7.78,3.12l-2.3,1.1-.63.29c-.15.07-.22.1-.23.09a1.12,1.12,0,0,1,.21-.13l.61-.33,2.27-1.16a50.08,50.08,0,0,1,7.8-3.18,28.35,28.35,0,0,1,4.54-1,29,29,0,0,1,3.78-.17,8.82,8.82,0,0,0,2.51-.3C303.4,123.6,303.69,123.42,303.7,123.44Z" style="fill:#fff"></path><path d="M292.55,133.82a1.86,1.86,0,0,1-.38.22,5.79,5.79,0,0,1-1.13.44,10.09,10.09,0,0,1-4,.26,20.91,20.91,0,0,1-3.89-.92l-1.14-.4a1.72,1.72,0,0,1-.4-.18,2,2,0,0,1,.43.1l1.16.34a24.66,24.66,0,0,0,3.86.86,11,11,0,0,0,3.92-.2C292,134.09,292.53,133.78,292.55,133.82Z" style="fill:#fff"></path><path d="M305.93,129s-.53-.05-1.39-.09a15.24,15.24,0,0,0-3.32.22,14.44,14.44,0,0,0-3.19.94c-.79.33-1.25.58-1.27.55a1.11,1.11,0,0,1,.31-.21,7.51,7.51,0,0,1,.9-.48,13,13,0,0,1,3.22-1,13.45,13.45,0,0,1,3.36-.16,9.71,9.71,0,0,1,1,.14A1.13,1.13,0,0,1,305.93,129Z" style="fill:#fff"></path><path d="M304.13,135.62a3,3,0,0,1-.59.46,5.09,5.09,0,0,1-2,.64,11,11,0,0,1-3-.1,17.85,17.85,0,0,0-3.66-.25,32.87,32.87,0,0,0-6.54,1.45c-.83.23-1.51.4-2,.5l-.54.1-.19,0a6.27,6.27,0,0,1,.72-.2c.46-.13,1.13-.31,1.95-.56a30.81,30.81,0,0,1,6.57-1.52,17.46,17.46,0,0,1,3.71.27,11.69,11.69,0,0,0,3,.15,5.42,5.42,0,0,0,1.93-.57C303.92,135.78,304.12,135.6,304.13,135.62Z" style="fill:#fff"></path><path d="M329,122.78s-.31-.09-.86-.21a11.91,11.91,0,0,0-2.39-.26,15.57,15.57,0,0,0-3.53.44,28.48,28.48,0,0,0-4.14,1.4,64.68,64.68,0,0,1-7.43,2.91,15.71,15.71,0,0,1-2.38.48,6.47,6.47,0,0,1-.89.06s.32,0,.88-.14a18.38,18.38,0,0,0,2.34-.54,72.85,72.85,0,0,0,7.4-3,25.89,25.89,0,0,1,4.18-1.39,14.59,14.59,0,0,1,3.57-.4,10.17,10.17,0,0,1,2.41.32A5.38,5.38,0,0,1,329,122.78Z" style="fill:#fff"></path><path d="M323.56,119.71a3.72,3.72,0,0,1-.48.27c-.31.16-.77.37-1.35.61A25.19,25.19,0,0,1,317,122a25.86,25.86,0,0,1-4.88.48c-.62,0-1.13,0-1.48-.06l-.54-.06a2.27,2.27,0,0,1,.54,0c.35,0,.86,0,1.48,0a29.13,29.13,0,0,0,4.84-.54,29.8,29.8,0,0,0,4.68-1.34c.59-.23,1.06-.42,1.38-.56A3.37,3.37,0,0,1,323.56,119.71Z" style="fill:#fff"></path><path d="M331.18,126.46a.8.8,0,0,1-.25-.06l-.7-.22c-.61-.17-1.5-.44-2.63-.65a24.48,24.48,0,0,0-8.86,0,29.3,29.3,0,0,0-8.35,3L308,129.78l-.65.34a1,1,0,0,1-.23.11l.21-.14.63-.39c.55-.32,1.35-.79,2.36-1.33a28.22,28.22,0,0,1,8.39-3.1,23.53,23.53,0,0,1,8.92.12A17.82,17.82,0,0,1,331.18,126.46Z" style="fill:#fff"></path><path d="M317,132.44s-.11.07-.33.16a9.91,9.91,0,0,1-.94.34,17.91,17.91,0,0,1-3.2.7,17.7,17.7,0,0,1-3.29.13c-.42,0-.75-.06-1-.1s-.36,0-.36-.07.52,0,1.36,0a24,24,0,0,0,3.25-.18,23.42,23.42,0,0,0,3.19-.64C316.52,132.58,317,132.41,317,132.44Z" style="fill:#fff"></path><path d="M331.58,129.88s-.5,0-1.3-.11a18.05,18.05,0,0,0-3.1,0,17.8,17.8,0,0,0-3.06.58c-.77.22-1.23.39-1.25.36s.11-.07.32-.16a8.2,8.2,0,0,1,.89-.34,14.44,14.44,0,0,1,6.22-.62c.4,0,.72.11.94.16S331.58,129.86,331.58,129.88Z" style="fill:#fff"></path><path d="M330.72,133.55s-.31,0-.86.14a11.57,11.57,0,0,0-2.26.64c-.94.35-2,.86-3.21,1.42a20.44,20.44,0,0,1-4.05,1.51,17.43,17.43,0,0,1-7.79.12,16.29,16.29,0,0,1-2.28-.67l-.6-.25c-.14-.06-.21-.09-.2-.1a1.23,1.23,0,0,1,.21.06l.61.21a19.91,19.91,0,0,0,2.29.6,18.14,18.14,0,0,0,7.72-.17,21.43,21.43,0,0,0,4-1.48c1.2-.55,2.29-1.06,3.24-1.39a10.93,10.93,0,0,1,2.3-.58A4.71,4.71,0,0,1,330.72,133.55Z" style="fill:#fff"></path><path d="M357.87,123.7l-.26,0-.74,0c-.64,0-1.58,0-2.73,0-2.3,0-5.48-.28-9,0a20.81,20.81,0,0,0-8.57,2.33,13.29,13.29,0,0,0-2.23,1.55c-.48.41-.74.67-.75.65s.23-.27.7-.72a12.36,12.36,0,0,1,2.21-1.6,20,20,0,0,1,8.63-2.42,82,82,0,0,1,9,.12l2.72.08h.74A1.33,1.33,0,0,1,357.87,123.7Z" style="fill:#fff"></path><path d="M357.57,116.32a5.64,5.64,0,0,1-.49.79,8.29,8.29,0,0,1-1.79,1.82,15.65,15.65,0,0,1-7.89,2.72c-3.28.28-6.25.18-8.38.41a23.51,23.51,0,0,0-2.51.36c-.3,0-.53.11-.68.14l-.24,0a.74.74,0,0,1,.23-.08c.15,0,.37-.12.67-.18a19.18,19.18,0,0,1,2.51-.42c2.14-.27,5.13-.2,8.38-.48a16,16,0,0,0,7.82-2.63A10.19,10.19,0,0,0,357.57,116.32Z" style="fill:#fff"></path><path d="M357.09,112a1.55,1.55,0,0,1-.24.35,11,11,0,0,1-.75.9,18.29,18.29,0,0,1-2.87,2.56,18.81,18.81,0,0,1-3.36,1.89,11.22,11.22,0,0,1-1.09.41,2.36,2.36,0,0,1-.41.11s.56-.24,1.44-.66a21.61,21.61,0,0,0,3.3-1.92,22.15,22.15,0,0,0,2.89-2.49C356.68,112.49,357.06,112,357.09,112Z" style="fill:#fff"></path><path d="M342,130.37s-.48,0-1.25,0a14.41,14.41,0,0,0-3,.43,13.94,13.94,0,0,0-2.81,1c-.69.34-1.09.59-1.11.56s.09-.09.26-.21a7.64,7.64,0,0,1,.78-.48,12.13,12.13,0,0,1,5.84-1.5,6.92,6.92,0,0,1,.91.05C341.91,130.33,342,130.35,342,130.37Z" style="fill:#fff"></path><path d="M357.76,132.49a8.3,8.3,0,0,1-1.23-.39c-.76-.26-1.8-.62-3-1s-2.23-.66-3-.87a10.09,10.09,0,0,1-1.24-.38,7.37,7.37,0,0,1,1.28.23c.78.18,1.85.46,3,.82s2.2.74,2.95,1A7.22,7.22,0,0,1,357.76,132.49Z" style="fill:#fff"></path><path d="M357.85,135.42s-.22-.25-.7-.6a5.43,5.43,0,0,0-2.31-.9,9.05,9.05,0,0,0-3.68.28c-1.36.33-2.82.9-4.42,1.26a24,24,0,0,1-8.32.43,21.62,21.62,0,0,1-2.49-.46l-.66-.18a.74.74,0,0,1-.23-.08l.24,0,.67.14a25.38,25.38,0,0,0,10.75-.09c1.58-.36,3-.92,4.42-1.25a9.06,9.06,0,0,1,3.74-.23,5.24,5.24,0,0,1,2.34,1A3,3,0,0,1,357.85,135.42Z" style="fill:#fff"></path><path d="M357.38,138.77s-.49-.14-1.27-.33A14.08,14.08,0,0,0,353,138a14.5,14.5,0,0,0-3.12.25c-.79.16-1.27.3-1.28.27s.11-.06.33-.14a9.55,9.55,0,0,1,.92-.27,12.6,12.6,0,0,1,3.16-.32,12.38,12.38,0,0,1,3.13.49c.39.12.7.23.91.32A1.5,1.5,0,0,1,357.38,138.77Z" style="fill:#fff"></path></g></g><g id="Plant"><path d="M388.32,102.24A60.63,60.63,0,0,1,395,89.57a8,8,0,0,1,3.45-3.24c2.52-1,5.23.58,7.48,2.06l5.2,3.42a1.31,1.31,0,0,1,.69.81c.1.64-.71,1-1.35,1.09a9.34,9.34,0,0,1-6.31-1.56c-1.4-1-2.76-2.39-4.45-2.21-2.1.22-3,2.65-3.85,4.6a20.7,20.7,0,0,1-8.85,10" style="fill:#FF725E"></path><path d="M388.31,103.1c.4-10.4.82-20.89,3.31-31s7.24-19.94,15.07-26.81c-1,8.77-4.21,17.12-7.37,25.37Q392.95,87.31,386.56,104" style="fill:#FF725E"></path><path d="M386.5,106.88a115.93,115.93,0,0,0-7.9-27.55A6.93,6.93,0,0,0,376.2,76c-1.78-1.07-4.07-.36-6,.48a48.48,48.48,0,0,0-12.41,8,1.74,1.74,0,0,0-.67.94,1.23,1.23,0,0,0,1,1.26,3.36,3.36,0,0,0,1.72-.11l10.41-2.4A4.06,4.06,0,0,1,375.93,87l10.22,20.6" style="fill:#FF725E"></path><g style="opacity:0.4"><path d="M388.32,102.24A60.63,60.63,0,0,1,395,89.57a8,8,0,0,1,3.45-3.24c2.52-1,5.23.58,7.48,2.06l5.2,3.42a1.31,1.31,0,0,1,.69.81c.1.64-.71,1-1.35,1.09a9.34,9.34,0,0,1-6.31-1.56c-1.4-1-2.76-2.39-4.45-2.21-2.1.22-3,2.65-3.85,4.6a20.7,20.7,0,0,1-8.85,10"></path></g><g style="opacity:0.4"><path d="M388.31,103.1c.4-10.4.82-20.89,3.31-31s7.24-19.94,15.07-26.81c-1,8.77-4.21,17.12-7.37,25.37Q392.95,87.31,386.56,104"></path></g><g style="opacity:0.30000000000000004"><path d="M386.5,106.88a115.93,115.93,0,0,0-7.9-27.55A6.93,6.93,0,0,0,376.2,76c-1.78-1.07-4.07-.36-6,.48a48.48,48.48,0,0,0-12.41,8,1.74,1.74,0,0,0-.67.94,1.23,1.23,0,0,0,1,1.26,3.36,3.36,0,0,0,1.72-.11l10.41-2.4A4.06,4.06,0,0,1,375.93,87l10.22,20.6"></path></g><path d="M402.31,28.43a62,62,0,0,0-14.5,36.65c-1,22.15-2.28,38.11-2.28,38.11H388s4.88-44.63,8.14-52.45S404.43,31.85,402.31,28.43Z" style="fill:#FF725E"></path><path d="M402.31,28.43a5.5,5.5,0,0,1-.3.71c-.24.49-.55,1.15-.95,2-.8,1.74-1.92,4.28-3.17,7.47s-2.6,7-3.9,11.37a116.94,116.94,0,0,0-3.41,14.3c-.43,2.58-.64,5.11-.82,7.57s-.33,4.83-.47,7.1c-.26,4.52-.54,8.6-.91,12s-.82,6.16-1.2,8c-.18.94-.36,1.67-.48,2.16a3.41,3.41,0,0,1-.2.74,7.16,7.16,0,0,1,.12-.76c.08-.5.24-1.23.39-2.17.33-1.89.73-4.63,1.05-8s.57-7.48.82-12c.12-2.26.25-4.64.43-7.1s.38-5,.82-7.61a113.16,113.16,0,0,1,3.46-14.35c1.32-4.35,2.72-8.19,4-11.37s2.46-5.71,3.31-7.42c.42-.87.79-1.52,1-2A4.64,4.64,0,0,1,402.31,28.43Z" style="fill:#263238"></path><path d="M411.39,49.17S394.89,64.92,393,79.78s-2.82,22.82-2.82,22.82h1.63s3.91-21.18,8.95-27.86S412.53,51,411.39,49.17Z" style="fill:#FF725E"></path><path d="M411.19,50.2a2.35,2.35,0,0,1-.24.5l-.77,1.39-2.88,5.08c-2.41,4.3-5.75,10.25-8.79,17.13a87.72,87.72,0,0,0-5.9,18.27c-.47,2.41-.74,4.39-.88,5.76-.09.68-.13,1.22-.17,1.58a2.08,2.08,0,0,1-.09.55,4,4,0,0,1,0-.56c0-.36,0-.9.08-1.59a53,53,0,0,1,.75-5.8,81,81,0,0,1,5.8-18.39A168.75,168.75,0,0,1,407,57c1.25-2.13,2.29-3.84,3-5,.35-.55.62-1,.84-1.35A2.49,2.49,0,0,1,411.19,50.2Z" style="fill:#263238"></path><path d="M379.51,51.94s-2.45,31.11,3.25,49.68h2S386,61.39,379.51,51.94Z" style="fill:#FF725E"></path><path d="M380.86,57.82a2,2,0,0,1,.07.44c0,.34.08.76.14,1.26.1,1.16.24,2.73.4,4.64.32,3.92.74,9.34,1.17,15.33s.79,11.41,1,15.34c.1,1.91.19,3.49.26,4.65,0,.51,0,.93.05,1.27a1.65,1.65,0,0,1,0,.45,2.28,2.28,0,0,1-.08-.44c0-.34-.08-.76-.13-1.26-.1-1.17-.24-2.74-.4-4.64-.33-3.93-.74-9.35-1.17-15.34s-.79-11.41-1-15.34c-.11-1.91-.19-3.48-.26-4.65,0-.51,0-.92-.05-1.27A1.49,1.49,0,0,1,380.86,57.82Z" style="fill:#263238"></path><path d="M375.63,99.82s6,4.29,5.67,6.29-14.73,12.73-13.81,21.17,7.83,14.27,19.64,13.81,19.8-7.82,18.72-15.34-12.79-19.47-12.93-20c-.38-1.65,5.26-5.88,5.26-5.88Z" style="fill:#455a64"></path><path d="M397.14,110.72c0,.13-4.36.23-9.73.23s-9.74-.1-9.74-.23,4.36-.23,9.74-.23S397.14,110.59,397.14,110.72Z" style="fill:#fafafa"></path><path d="M398.51,112.76c0,.13-5.13.23-11.47.23s-11.46-.1-11.46-.23,5.13-.22,11.46-.22S398.51,112.64,398.51,112.76Z" style="fill:#fafafa"></path><path d="M400.58,115c0,.13-6.07.23-13.55.23s-13.55-.1-13.55-.23,6.07-.23,13.55-.23S400.58,114.9,400.58,115Z" style="fill:#fafafa"></path><path d="M402.4,118c0,.13-7,.23-15.61.23s-15.62-.1-15.62-.23,7-.23,15.62-.23S402.4,117.91,402.4,118Z" style="fill:#fafafa"></path></g><g id="character-2"><path d="M339,217.78c.36,8.57,8.76,9.63,8.76,9.63s.23,5.94.36,11.46a9.29,9.29,0,0,0,9.29,9.08h0a9.32,9.32,0,0,0,9.32-9.38V200a14,14,0,0,0-14.2-14h-.07a14,14,0,0,0-13.73,14.16Z" style="fill:#ffbe9d"></path><path d="M347.78,227.41a20.07,20.07,0,0,0,10.83-3.66s-2.41,6.24-10.75,5.74Z" style="fill:#eb996e"></path><path d="M348.27,217.42a1,1,0,0,1,.09-1,1,1,0,0,1,.93-.41,1.59,1.59,0,0,1,1.6-1.4,1.79,1.79,0,0,1,1.62,1.46,2.06,2.06,0,0,1-.91,2,2.47,2.47,0,0,1-2.26.17,1.78,1.78,0,0,1-1.14-1.35" style="fill:#eb996e"></path><path d="M340.36,205a1.16,1.16,0,0,0,1.13,1.18,1.12,1.12,0,0,0,1.21-1.06,1.16,1.16,0,0,0-1.13-1.18A1.12,1.12,0,0,0,340.36,205Z" style="fill:#263238"></path><path d="M340.1,203.65c.15.15,1-.51,2.3-.5s2.19.63,2.33.48-.09-.35-.49-.64a3.26,3.26,0,0,0-1.86-.58,3.17,3.17,0,0,0-1.83.59C340.16,203.3,340,203.58,340.1,203.65Z" style="fill:#263238"></path><path d="M352.73,205.26a1.18,1.18,0,0,0,1.13,1.19,1.12,1.12,0,0,0,1.21-1.06,1.17,1.17,0,0,0-1.13-1.18A1.11,1.11,0,0,0,352.73,205.26Z" style="fill:#263238"></path><path d="M352.52,203.88c.14.16,1-.5,2.3-.5s2.18.64,2.32.48-.08-.34-.48-.64a3.28,3.28,0,0,0-1.86-.57,3,3,0,0,0-1.83.59C352.58,203.54,352.45,203.82,352.52,203.88Z" style="fill:#263238"></path><path d="M347.93,213.25a8.26,8.26,0,0,0-2.05-.37c-.32,0-.63-.1-.68-.32a1.57,1.57,0,0,1,.22-.95l.95-2.46a43.09,43.09,0,0,0,2.14-6.42,42.39,42.39,0,0,0-2.65,6.23c-.32.87-.63,1.69-.92,2.47a1.87,1.87,0,0,0-.16,1.27.77.77,0,0,0,.53.47,2.28,2.28,0,0,0,.54.08A8.15,8.15,0,0,0,347.93,213.25Z" style="fill:#263238"></path><path d="M351.65,214.12c-.2,0-.21,1.36-1.38,2.34s-2.63.82-2.64,1,.32.27.94.28a3.37,3.37,0,0,0,2.2-.77,3,3,0,0,0,1.08-1.95C351.9,214.46,351.74,214.12,351.65,214.12Z" style="fill:#263238"></path><path d="M352,201.06c.12.35,1.39.18,2.87.36s2.68.59,2.87.28c.09-.15-.12-.47-.6-.81a5.07,5.07,0,0,0-4.38-.48C352.17,200.63,351.9,200.9,352,201.06Z" style="fill:#263238"></path><path d="M340.57,200c.22.29,1.09,0,2.13,0s1.94.19,2.14-.11,0-.43-.44-.7a2.89,2.89,0,0,0-1.73-.47,3,3,0,0,0-1.71.57C340.59,199.56,340.47,199.85,340.57,200Z" style="fill:#263238"></path><path d="M341.09,191.82a9,9,0,0,0,10.39,4.47c2.37-.74,4.68-2.51,7.06-1.81,2.13.62,3.24,3,3.44,5.21s-.26,4.43,0,6.63,1.55,4.53,3.72,5A1.38,1.38,0,0,0,367,211a1.67,1.67,0,0,0,.28-1.12c0-2.56.06-5.11.08-7.67,0-4.1,0-8.48-2.25-11.9a12.33,12.33,0,0,0-6.73-4.82,18.92,18.92,0,0,0-8.37-.4,15.47,15.47,0,0,0-6.22,2.24c-1.84,1.24-3.82,5.34-4.26,7.52" style="fill:#263238"></path><path d="M364.33,206.57a2,2,0,0,1,2.26-1.31,3.32,3.32,0,0,1,2.21,1.67,4.55,4.55,0,0,1-.11,4.82,3.88,3.88,0,0,1-4.51,1.38" style="fill:#ffbe9d"></path><path d="M361.59,188.39c2.2-2.48,4.92-6.73,10.23-6.46,5.09.25,6.67,3.46,7.57,6.65.28,1,.35,2,.72,3a2.83,2.83,0,0,0,2.15,2,5.33,5.33,0,0,0,2.46-.77,2.15,2.15,0,0,1,2.43.21,2.48,2.48,0,0,1,.28,1.9,9.71,9.71,0,0,1-1.56,5c-1.09,1.4-3.34,2-4.65.86a2.21,2.21,0,0,1,1.56,2.53,3.44,3.44,0,0,1-2.07,2.4,7.66,7.66,0,0,1-3.23.49,8.22,8.22,0,0,1-5.11-1.46c-1.56-1.27-2.19-3.34-2.53-5.33a21.38,21.38,0,0,0-1.34-5.85c-.88-1.81-2.77-3.33-4.75-3" style="fill:#263238"></path><path d="M350,185.08s-16-2.42-11.51,13.3l5.35-.32-.54-2.32,2.1,2.64,9,.3-.55-2.88,2.1,2.88,5.67-.62S364.46,185.4,350,185.08Z" style="fill:#263238"></path><path d="M366,193.41a10.91,10.91,0,0,0-1.27-3.65,11.28,11.28,0,0,0-2.84-2.63c0-.06.49,0,1.14.37a6,6,0,0,1,3.09,4.71C366.14,193,366,193.41,366,193.41Z" style="fill:#FF725E"></path><path d="M347.43,195.59a5.61,5.61,0,0,1-.92-1.64,9.68,9.68,0,0,1-1-4.48,5.49,5.49,0,0,1,.72-2.48,4.39,4.39,0,0,1,1.47-1.52,2.38,2.38,0,0,1,1.84-.46,7.27,7.27,0,0,0-1.64.77,4.46,4.46,0,0,0-1.26,1.45,5.37,5.37,0,0,0-.61,2.27,10.92,10.92,0,0,0,.81,4.31A8.28,8.28,0,0,1,347.43,195.59Z" style="fill:#455a64"></path><path d="M351.71,194s-.47-.31-1-1a8.93,8.93,0,0,1-1.37-3.15,9.19,9.19,0,0,1-.1-3.43,2.9,2.9,0,0,1,.45-1.35,17.79,17.79,0,0,0,.16,4.67A18.34,18.34,0,0,0,351.71,194Z" style="fill:#455a64"></path><path d="M369.38,211.27c0-.06.74.27,1,1.38a2.46,2.46,0,0,1-.41,1.86,2.37,2.37,0,0,1-2.17.87,2.33,2.33,0,0,1-1.9-1.36,2.44,2.44,0,0,1,.05-1.91c.48-1,1.28-1.17,1.26-1.11a3.32,3.32,0,0,0-.92,1.25,2.14,2.14,0,0,0,.05,1.57,2,2,0,0,0,3.25.4,2.15,2.15,0,0,0,.42-1.52A3.37,3.37,0,0,0,369.38,211.27Z" style="fill:#263238"></path><path d="M385.32,186.79a.9.9,0,0,1,.26.3,2.3,2.3,0,0,1,.33,1.09,2.94,2.94,0,0,1-.48,1.74,3,3,0,0,1-2,1.29,4.33,4.33,0,0,1-2.86-.45,6.72,6.72,0,0,1-2.39-2.3c-1.3-2-1.77-4.53-3.14-6.7a5.9,5.9,0,0,0-2.71-2.4,6.51,6.51,0,0,0-3.38-.41,6.65,6.65,0,0,0-4.72,3.15,8.81,8.81,0,0,0-1.27,3.77c-.08.95,0,1.49-.07,1.49a1.22,1.22,0,0,1-.08-.38,6.75,6.75,0,0,1-.05-1.12,8.42,8.42,0,0,1,1.15-4,7.5,7.5,0,0,1,1.91-2.15,7,7,0,0,1,3.06-1.28,6.79,6.79,0,0,1,3.64.41,6.34,6.34,0,0,1,3,2.59c1.43,2.3,1.88,4.85,3.11,6.72a6.31,6.31,0,0,0,2.18,2.18,4,4,0,0,0,2.59.47,2.75,2.75,0,0,0,1.84-1.1,2.65,2.65,0,0,0,.13-3Z" style="fill:#455a64"></path><path d="M426.42,288.9c4.47-.72,9.12,1.24,12.3,4.47a24.08,24.08,0,0,1,6,12,72.07,72.07,0,0,1,1.09,13.54c.06,3.66.12,7.33.19,11,0,2.07,0,4.26-1,6-1.69,2.78-5.33,3.49-8.55,3.94a37.3,37.3,0,0,1-10.05.49,12.52,12.52,0,0,1-8.64-4.65c-2-2.83-2.33-6.52-2.39-10a117.39,117.39,0,0,1,5.83-38.7" style="fill:#455a64"></path><rect x="369.45" y="359.44" width="7.31" height="87.63" transform="translate(746.43 806.31) rotate(179.97)" style="fill:#263238"></rect><path d="M321.36,363.4H426a11.35,11.35,0,0,0-11.36-11.35h-81.9a11.35,11.35,0,0,0-11.35,11.35Z" style="fill:#263238"></path><path d="M366,363.63a76.46,76.46,0,0,0,12.84,0,76.46,76.46,0,0,0-12.84,0Z" style="fill:#263238"></path><path d="M341.14,455h1a31.13,31.13,0,0,1,62.25,0h1a32.16,32.16,0,1,0-64.31,0Z" style="fill:#263238"></path><path d="M400.09,456.61a4.82,4.82,0,1,0,4.82-4.82A4.82,4.82,0,0,0,400.09,456.61Z" style="fill:#263238"></path><path d="M336.57,455.94a4.82,4.82,0,1,0,4.82-4.82A4.82,4.82,0,0,0,336.57,455.94Z" style="fill:#263238"></path><path d="M341.45,447.09c0,.15,14,.26,31.25.25s31.25-.14,31.25-.29-14-.26-31.25-.25S341.45,446.94,341.45,447.09Z" style="fill:#263238"></path><path d="M429,272.68v64.51a15.32,15.32,0,0,1-15.32,15.32H364l6.75-79.83a6.83,6.83,0,0,1,6.83-6.83h44.62A6.83,6.83,0,0,1,429,272.68Z" style="fill:#263238"></path><path d="M411.47,352.05s0-.07.11-.19l.37-.53c.33-.46.8-1.14,1.37-2.05a33.73,33.73,0,0,0,3.7-8.22,32.72,32.72,0,0,0,1.23-6.1,61.32,61.32,0,0,0,.2-7.16c0-5.07,0-10.64,0-16.49,0-11.68.05-22.25.07-30,0-3.8.07-6.89.09-9.08,0-1,0-1.86,0-2.47a4.87,4.87,0,0,1,.06-.86,5.82,5.82,0,0,1,.05.86c0,.61,0,1.43.05,2.47,0,2.19,0,5.28.08,9.08,0,7.71.05,18.28.08,30,0,5.85,0,11.42,0,16.49a60,60,0,0,1-.25,7.21,33.32,33.32,0,0,1-5.19,14.38c-.6.9-1.1,1.56-1.46,2A4.15,4.15,0,0,1,411.47,352.05Z" style="fill:#455a64"></path><path d="M384.4,352.08A11.23,11.23,0,0,1,386,352l4.31-.05c3.64,0,8.66,0,14.21,0,2.78,0,5.43,0,7.83.1a25.23,25.23,0,0,1,6.38.69,10,10,0,0,1,3.84,2,7,7,0,0,1,.83.84c.18.2.26.31.25.33s-.41-.4-1.21-1a10.23,10.23,0,0,0-3.81-1.81,26.14,26.14,0,0,0-6.29-.57l-7.83-.06c-5.54,0-10.57-.1-14.2-.17l-4.31-.12A8.09,8.09,0,0,1,384.4,352.08Z" style="fill:#455a64"></path><path d="M406.82,265.85c-7.31,67.87,23.21,63,23.21,63l-.21,4.83c-41.52-.77-27.89-67.87-27.89-67.87Z" style="fill:#455a64"></path><path d="M437.12,325.61a4.83,4.83,0,0,1-1.42,1.28,12.8,12.8,0,0,1-8.81,2.11,4.59,4.59,0,0,1-1.84-.49,16.35,16.35,0,0,0,12.07-2.9Z" style="fill:#263238"></path><path d="M438.12,330.37a4.75,4.75,0,0,1-1.41,1.27,12.82,12.82,0,0,1-4.22,1.87,12.67,12.67,0,0,1-4.6.25,5.12,5.12,0,0,1-1.84-.49,20.6,20.6,0,0,0,6.32-.27A20.93,20.93,0,0,0,438.12,330.37Z" style="fill:#263238"></path><path d="M436.85,339.87s.18,0,.48-.18a2.37,2.37,0,0,0,1-1,7.92,7.92,0,0,0,.68-2.21c.2-.9.39-1.92.56-3.06a71,71,0,0,0,.09-17.95,60.56,60.56,0,0,0-1.62-9.76,21.37,21.37,0,0,0-3.39-7.24,14.92,14.92,0,0,0-3.91-3.71c-1.08-.69-1.76-1-1.74-1a1.46,1.46,0,0,1,.5.16,9.32,9.32,0,0,1,1.35.66,14.14,14.14,0,0,1,4.09,3.66,21.06,21.06,0,0,1,3.56,7.33,57.65,57.65,0,0,1,1.67,9.83,65.91,65.91,0,0,1-.24,18.07c-.19,1.14-.41,2.17-.63,3.06a7.54,7.54,0,0,1-.8,2.25,2.24,2.24,0,0,1-1.1,1A1.17,1.17,0,0,1,436.85,339.87Z" style="fill:#263238"></path><path d="M446,321.45a4,4,0,0,1-2.71.93,3.9,3.9,0,0,1-2.79-.67c0-.14,1.25.23,2.76.15S445.91,321.31,446,321.45Z" style="fill:#263238"></path><path d="M394,321.21s-76.52-16-83.92-12.52-34.26,92.55-34.26,92.55l16.63,6.39L322,335.37s57.17,20.92,66.53,19S394,321.21,394,321.21Z" style="fill:#ffbe9d"></path><path d="M359.8,325.71c-1.17.39-45.43,18.59-48.55,24.44s8.17,103.1,8.17,103.1h18.75l-1.73-88.09,52.1-10.81Z" style="fill:#ffbe9d"></path><path d="M392.84,315.77l-.44,0a56.54,56.54,0,0,0-7.47-18.11L386,270.56h11.08l-3.94-19.73c-2.66-14.85-22-17-25.11-17.24v-2.67H347.62l-.05,2.22c-4.12-.06-13,.7-19,7.53-8.41,9.49-18.75,20.7-18.75,20.7l7.9,19.86,18.69-15.43a19.19,19.19,0,0,0-2.5,9c0,5.26,5.49,7.68,5.49,7.68l1.68,16-2.31,10.68a159.56,159.56,0,0,0-16.54-2.86c-5.44-.46-11.21.58-15.49,4-5.08,4-7.26,10.58-9.66,16.6a129.49,129.49,0,0,1-12.92,24.44c-1.7,2.52-3.52,5.05-4.25,8s-.09,6.47,2.38,8.24,6,1.27,8.92,2.22c5.05,1.64,7.56,7.16,9.54,12.09s4.67,10.42,9.79,11.82,11.08-1.87,15.62.86c2.61,1.57,3.82,4.64,5.35,7.28s4.12,5.26,7.13,4.79c4-.63,5.14-5.85,4.93-9.9-.35-6.65,1.26-14-1.19-20.23-1.12-2.84-.43-8.22,1.1-10.87l3-.65c13.4-3,17.14-4.43,27.79-6.4,5.39-1,19-4.93,19-4.93s4.54-5.67,4.52-20.82C397.73,326.75,397.45,321.61,392.84,315.77Z" style="fill:#FF725E"></path><path d="M392.87,248.41a24.91,24.91,0,0,0-3-.32,19.22,19.22,0,0,0-7.95,1.83,41.25,41.25,0,0,0-5,2.65c-1.75,1.05-3.58,2.27-5.58,3.46a36.31,36.31,0,0,1-6.56,3.19,16.88,16.88,0,0,1-7.78.92,20.51,20.51,0,0,1-7.37-2.66,55.62,55.62,0,0,1-6-4.11c-3.66-2.81-7.06-5.26-10.34-6.43a15.3,15.3,0,0,0-8.06-.89,16.2,16.2,0,0,0-2.89.89,8.25,8.25,0,0,1,2.85-1.09,15.27,15.27,0,0,1,8.22.74c3.37,1.15,6.84,3.61,10.51,6.39a54.8,54.8,0,0,0,6,4,20.11,20.11,0,0,0,7.19,2.59,16.2,16.2,0,0,0,7.54-.89,35.73,35.73,0,0,0,6.49-3.12c2-1.16,3.82-2.37,5.6-3.41a41.44,41.44,0,0,1,5.11-2.62,18.66,18.66,0,0,1,8.11-1.69A10.46,10.46,0,0,1,392.87,248.41Z" style="fill:#fafafa"></path><path d="M377.29,275.93c0,.05-.62-.13-1.76-.27a17.44,17.44,0,0,0-4.81.13,39.26,39.26,0,0,0-6.93,1.89,55.87,55.87,0,0,1-8.5,2.53,23.06,23.06,0,0,1-8.89-.24,37.81,37.81,0,0,1-6.9-2.24c-1.9-.81-3.39-1.56-4.41-2.1-.51-.27-.9-.49-1.16-.64s-.4-.24-.39-.26a12.49,12.49,0,0,1,1.64.72c1.05.48,2.55,1.18,4.46,1.94a39.76,39.76,0,0,0,6.86,2.11,23.34,23.34,0,0,0,8.7.2,59.65,59.65,0,0,0,8.44-2.47,36.21,36.21,0,0,1,7-1.8,16.19,16.19,0,0,1,4.89,0,9,9,0,0,1,1.3.31C377.15,275.86,377.3,275.91,377.29,275.93Z" style="fill:#fafafa"></path><path d="M397.54,326.67a7.12,7.12,0,0,0-1.27-2.17,7.77,7.77,0,0,0-2.32-1.79,14.46,14.46,0,0,0-3.7-1.23,68.39,68.39,0,0,0-10.19-1.29c-1.93-.11-4-.14-6.07-.07s-4.27.25-6.51.43c-4.45.38-8.82.56-12.64-.43a26,26,0,0,1-9.23-4.64,59.74,59.74,0,0,1-5.3-4.53L339,309.64a3.42,3.42,0,0,1-.45-.49,3.77,3.77,0,0,1,.52.41l1.42,1.24c1.25,1.08,3,2.67,5.38,4.38a26.3,26.3,0,0,0,9.13,4.47c3.74,1,8,.76,12.49.38,2.23-.18,4.42-.37,6.54-.42s4.16,0,6.11.1a65.27,65.27,0,0,1,10.24,1.41,14,14,0,0,1,3.76,1.34,7.65,7.65,0,0,1,2.34,1.91,5.44,5.44,0,0,1,.95,1.65,4.06,4.06,0,0,1,.14.48C397.54,326.61,397.55,326.66,397.54,326.67Z" style="fill:#fafafa"></path><path d="M358.71,362.05c-.07,0,.25-1.11.28-3.14a13.93,13.93,0,0,0-2.47-8,15,15,0,0,0-4.22-4.05,18.41,18.41,0,0,0-6.29-2.38c-2.34-.48-4.86-.71-7.46-1.17a16.6,16.6,0,0,1-7.59-3c-2.29-1.76-3.6-4.31-4.74-6.65a39,39,0,0,0-3.56-6.61,21,21,0,0,0-10.15-7.27,21.43,21.43,0,0,0-8.45-1.08,22.38,22.38,0,0,0-2.31.33,6.89,6.89,0,0,1-.81.13,3.75,3.75,0,0,1,.78-.23,16.37,16.37,0,0,1,2.32-.43,20.81,20.81,0,0,1,8.58.93,21.31,21.31,0,0,1,10.43,7.33,39.48,39.48,0,0,1,3.63,6.68c1.14,2.33,2.42,4.79,4.6,6.46a16.37,16.37,0,0,0,7.36,2.91c2.56.46,5.09.7,7.47,1.2a18.63,18.63,0,0,1,6.42,2.49,15,15,0,0,1,4.29,4.2,13.79,13.79,0,0,1,2.37,8.25A11.62,11.62,0,0,1,358.71,362.05Z" style="fill:#fafafa"></path><path d="M343.73,386.21a8.25,8.25,0,0,1-.73-.42,4.44,4.44,0,0,0-2.24-.59,10.57,10.57,0,0,0-3.58,1,14.82,14.82,0,0,1-4.86,1.37,5.57,5.57,0,0,1-1.46-.11l-.74-.18a6.44,6.44,0,0,1-.72-.3,7.83,7.83,0,0,1-2.57-1.94,59.58,59.58,0,0,1-4.08-5.68,14.33,14.33,0,0,0-2.48-2.75,8,8,0,0,0-3.41-1.63c-2.57-.56-5.35-.11-8.2-.09a13.45,13.45,0,0,1-4.24-.52,8.64,8.64,0,0,1-3.54-2.19,14.19,14.19,0,0,1-3.46-6.93,45.59,45.59,0,0,1-.74-7,35.64,35.64,0,0,0-.71-6,12.68,12.68,0,0,0-4.35-7.34,9.13,9.13,0,0,0-2.86-1.41.6.6,0,0,1,.22,0c.13,0,.34.06.6.14a7.77,7.77,0,0,1,2.16,1.08,12.59,12.59,0,0,1,4.59,7.42,35.35,35.35,0,0,1,.78,6.06,47.62,47.62,0,0,0,.77,6.89,13.75,13.75,0,0,0,3.36,6.68,8.14,8.14,0,0,0,3.34,2.06,13.07,13.07,0,0,0,4.07.49c2.8,0,5.61-.48,8.32.11a8.29,8.29,0,0,1,3.61,1.75,14.59,14.59,0,0,1,2.56,2.85,60.72,60.72,0,0,0,4,5.67,6.62,6.62,0,0,0,5.16,2.45,15,15,0,0,0,4.76-1.27,10.39,10.39,0,0,1,3.69-1,4.48,4.48,0,0,1,2.3.71,4.32,4.32,0,0,1,.51.37A.61.61,0,0,1,343.73,386.21Z" style="fill:#fafafa"></path><g style="opacity:0.4"><path d="M342.24,375.88c1.83,5.7-5.73-10.57-7.1-16.4-.64-2.7-.87-6,1.22-7.79s5.67-1,8.17.51,4.87,3.6,7.78,3.85c2.62.22,5.1-1.1,7.69-1.48,3.57-.53,7.13.72,10.68,1.37a32.53,32.53,0,0,0,13-.28l-1.88,1.16-38.36,8.8C343.21,365.61,340.87,371.61,342.24,375.88Z"></path></g><path d="M334.14,271.61a16.09,16.09,0,0,1,.7-2.69c.25-.82.55-1.8.93-2.88.19-.53.39-1.09.63-1.67.13-.31.3-.58.38-.84a2.61,2.61,0,0,0,.1-.85,13,13,0,0,0-.27-1.84c-.12-.6-.22-1.18-.33-1.75-.18-1.06-.36-2-.52-3a13.67,13.67,0,0,1-.33-2.76,13.38,13.38,0,0,1,.73,2.69c.2.9.41,1.88.64,2.94l.36,1.74a12.2,12.2,0,0,1,.3,1.93,2.9,2.9,0,0,1-.14,1,8.34,8.34,0,0,1-.4.88c-.24.56-.45,1.11-.65,1.64l-1,2.82A12.09,12.09,0,0,1,334.14,271.61Z" style="fill:#263238"></path><g style="opacity:0.30000000000000004"><path d="M373,254.13c.73,11.1,1.16,21.32,1.38,32.44a8.3,8.3,0,0,0,4.17-1.31C379.14,280.52,375.54,266.09,373,254.13Z"></path></g><path d="M378.82,235.91s-.09.11-.29.29-.48.46-.88.77a23.61,23.61,0,0,1-3.61,2.38,25.73,25.73,0,0,1-27.13-1.57,23.71,23.71,0,0,1-3.3-2.77c-.37-.35-.62-.67-.8-.86a1.51,1.51,0,0,1-.24-.33,43.08,43.08,0,0,0,4.55,3.66A26.25,26.25,0,0,0,373.87,239,44.37,44.37,0,0,0,378.82,235.91Z" style="fill:#fafafa"></path><path d="M267.69,245.19l.33,3.59-12.36.29s0,4.17,1.25,5.42c0,0-1.25,2.5.14,3.89s2.22,1,2.22,1-.56,2.78.83,3.47,19.42-.38,19.42-.38l-1.11-11.6-4-.36C274.24,246.66,270.26,244.74,267.69,245.19Z" style="fill:#ffbe9d"></path><polygon points="268.27 241.72 266.21 263.15 255.76 263.15 253.26 241.72 268.27 241.72" style="fill:#e0e0e0"></polygon><path d="M268.27,239a4.41,4.41,0,0,1,1,2.83h-17a3.15,3.15,0,0,1,1-2.83Z" style="fill:#455a64"></path><polygon points="266.34 236.99 266.91 239.11 254.1 239.2 254.95 236.96 266.34 236.99" style="fill:#455a64"></polygon><path d="M268.49,247.09c0,.19-1.24,10.78-1.24,10.78H254.48l-1.22-10.78Z" style="fill:#455a64"></path><path d="M319.49,455.31l-.32-4.19,19-.16.26,8.45-1.16.11c-5.14.42-26.16,1.8-29.63.84C303.74,459.3,319.49,455.31,319.49,455.31Z" style="fill:#FF725E"></path><g style="opacity:0.5"><path d="M331.63,459.45a6.43,6.43,0,0,1,2.27-4,6.31,6.31,0,0,1,4.33-1.48l.14,5.22Z" style="fill:#fff"></path></g><g style="opacity:0.4"><path d="M311.8,457.54s-5.51,1.75-4.79,2.65,22,.31,31.39-.78l0-.41-24.84.89S312.89,457.55,311.8,457.54Z" style="fill:#fff"></path></g><path d="M338.65,459l-.32,0-.92.08-3.39.24c-2.86.18-6.81.38-11.19.51s-8.33.15-11.2.13l-3.39-.05-.93,0-.32,0,.32,0h.93l3.39,0c2.87,0,6.83-.08,11.2-.2s8.32-.3,11.19-.44l3.39-.16.92,0Z" style="fill:#263238"></path><path d="M313.53,460.18a7.56,7.56,0,0,0-.68-1.6,7.32,7.32,0,0,0-1.19-1.26,3,3,0,0,1,1.87,2.86Z" style="fill:#263238"></path><path d="M319,457.24s-.33-.28-.61-.7-.47-.79-.42-.83.32.28.61.7S319,457.2,319,457.24Z" style="fill:#263238"></path><path d="M320.45,456.4c0,.05-.34-.14-.67-.42s-.57-.55-.53-.59.34.14.67.42S320.49,456.35,320.45,456.4Z" style="fill:#263238"></path><path d="M321.35,454.61a2.19,2.19,0,0,1-1,.15,2.36,2.36,0,0,1-1-.07,4.38,4.38,0,0,1,2-.08Z" style="fill:#263238"></path><path d="M321.65,453.36a1.92,1.92,0,0,1-1.08.35,2,2,0,0,1-1.13-.12,6,6,0,0,1,1.11-.11A6.1,6.1,0,0,1,321.65,453.36Z" style="fill:#263238"></path><path d="M318.28,455.63a3.72,3.72,0,0,1-1.2,0,7.06,7.06,0,0,1-1.28-.24,3.58,3.58,0,0,1-.74-.28.68.68,0,0,1-.31-.37.48.48,0,0,1,.17-.48,2.2,2.2,0,0,1,2.74.57,2.14,2.14,0,0,1,.41.79.78.78,0,0,1,0,.32,3.32,3.32,0,0,0-.57-1,2.32,2.32,0,0,0-1.05-.64,1.85,1.85,0,0,0-1.42.14c-.19.15-.11.37.11.49a3.71,3.71,0,0,0,.68.27,9.77,9.77,0,0,0,1.24.29C317.82,455.6,318.28,455.59,318.28,455.63Z" style="fill:#263238"></path><path d="M318,455.7a1.19,1.19,0,0,1-.16-.83,2,2,0,0,1,.3-.89,1.21,1.21,0,0,1,1-.63.47.47,0,0,1,.38.54,1.44,1.44,0,0,1-.19.54,3.47,3.47,0,0,1-.55.74c-.36.38-.65.53-.67.5s.23-.22.55-.61a4,4,0,0,0,.49-.73c.15-.26.25-.71-.05-.76s-.6.29-.77.53a2,2,0,0,0-.32.79A4.4,4.4,0,0,0,318,455.7Z" style="fill:#263238"></path><path d="M338.13,453.88c0,.05-.54,0-1.38.09a5.85,5.85,0,0,0-4.78,4c-.26.81-.27,1.35-.31,1.34s0-.13,0-.37a5,5,0,0,1,.17-1,5.67,5.67,0,0,1,4.91-4.14,5,5,0,0,1,1,0A1.47,1.47,0,0,1,338.13,453.88Z" style="fill:#263238"></path><path d="M329.23,457.7a10.94,10.94,0,0,1-2.71.34,10.59,10.59,0,0,1-2.74-.14c0-.07,1.23,0,2.73-.08S329.22,457.63,329.23,457.7Z" style="fill:#263238"></path><path d="M332.89,457.59c.05,0-.09.26-.21.54s-.18.54-.24.53-.11-.29,0-.61S332.85,457.55,332.89,457.59Z" style="fill:#263238"></path><path d="M334.22,455.84s-.07.24-.26.44-.37.33-.42.28.07-.24.26-.44S334.17,455.79,334.22,455.84Z" style="fill:#263238"></path><path d="M336.17,455c0,.06-.26.07-.53.17s-.47.26-.52.22.1-.31.44-.43S336.19,454.94,336.17,455Z" style="fill:#263238"></path><path d="M337.56,454.59c0,.06-.08.16-.23.22s-.3.07-.32,0,.08-.15.23-.22S337.54,454.53,337.56,454.59Z" style="fill:#263238"></path><path d="M274.75,402.55l1.07-2.59,17.7,6.22-3.12,7.74-1.1-.36c-4.88-1.69-24.68-8.89-27.47-11.16C258.71,399.87,274.75,402.55,274.75,402.55Z" style="fill:#FF725E"></path><g style="opacity:0.5"><path d="M284.19,411.23a6.48,6.48,0,0,1,3.71-2.78,6.28,6.28,0,0,1,4.55.39l-2,4.83Z" style="fill:#fff"></path></g><g style="opacity:0.4"><path d="M266.81,401.5s-5.75-.62-5.46.49,20,9.15,29,11.93l.13-.39-23.1-9.18S267.8,402,266.81,401.5Z" style="fill:#fff"></path></g><path d="M290.81,413.63l-.31-.09-.88-.3-3.2-1.14c-2.69-1-6.39-2.4-10.44-4s-7.69-3.22-10.31-4.4l-3.09-1.41-.83-.39-.29-.16.31.11.85.36,3.11,1.35c2.64,1.13,6.28,2.68,10.33,4.33s7.74,3.07,10.42,4.1l3.17,1.21.86.33A1.34,1.34,0,0,1,290.81,413.63Z" style="fill:#263238"></path><path d="M267.33,404.62a8.44,8.44,0,0,0,0-1.74,8.06,8.06,0,0,0-.58-1.64,2.51,2.51,0,0,1,.8,1.6A2.56,2.56,0,0,1,267.33,404.62Z" style="fill:#263238"></path><path d="M273.48,404.11a2.15,2.15,0,0,1-.28-.89,2,2,0,0,1-.05-.92,1.92,1.92,0,0,1,.28.88A2,2,0,0,1,273.48,404.11Z" style="fill:#263238"></path><path d="M275.18,403.94c-.06,0-.25-.27-.44-.66s-.3-.72-.24-.75.25.27.44.65S275.24,403.91,275.18,403.94Z" style="fill:#263238"></path><path d="M276.73,402.67a2.4,2.4,0,0,1-1-.26c-.5-.19-.89-.4-.86-.46a2.26,2.26,0,0,1,.94.25C276.36,402.4,276.75,402.61,276.73,402.67Z" style="fill:#263238"></path><path d="M277.5,401.64a1.85,1.85,0,0,1-1.12-.12,1.9,1.9,0,0,1-1-.56,5.16,5.16,0,0,1,1.06.35A4.94,4.94,0,0,1,277.5,401.64Z" style="fill:#263238"></path><path d="M273.51,402.36a3.61,3.61,0,0,1-1.11-.46,6.54,6.54,0,0,1-1.08-.74,4.22,4.22,0,0,1-.56-.56.61.61,0,0,1-.13-.45.46.46,0,0,1,.34-.38,2.22,2.22,0,0,1,2.34,2.51c0,.21-.08.32-.09.31a3.65,3.65,0,0,0-.12-1.15,2.16,2.16,0,0,0-.7-1A1.82,1.82,0,0,0,271,400c-.23.06-.25.29-.1.49a3.65,3.65,0,0,0,.52.52,7.23,7.23,0,0,0,1,.76C273.1,402.15,273.52,402.33,273.51,402.36Z" style="fill:#263238"></path><path d="M273.2,402.3a1.18,1.18,0,0,1,.18-.82,2,2,0,0,1,.64-.69,1.17,1.17,0,0,1,1.15-.19.48.48,0,0,1,.14.65,1.25,1.25,0,0,1-.4.42,3.48,3.48,0,0,1-.79.46,1.81,1.81,0,0,1-.82.19s.3-.11.75-.34a4.69,4.69,0,0,0,.74-.47c.24-.18.52-.56.26-.72a1.07,1.07,0,0,0-.92.17,1.94,1.94,0,0,0-.61.6A4.27,4.27,0,0,0,273.2,402.3Z" style="fill:#263238"></path><path d="M292.38,408.75s-.48-.25-1.3-.47a5.83,5.83,0,0,0-6,1.76c-.57.64-.8,1.12-.83,1.1s0-.13.14-.35a5,5,0,0,1,.57-.85,5.76,5.76,0,0,1,2.8-1.87,5.88,5.88,0,0,1,3.36.05,4.8,4.8,0,0,1,.94.42A1.11,1.11,0,0,1,292.38,408.75Z" style="fill:#263238"></path><path d="M282.7,408.66a10.62,10.62,0,0,1-2.62-.78,10.22,10.22,0,0,1-2.45-1.23c0-.06,1.13.47,2.53,1S282.72,408.6,282.7,408.66Z" style="fill:#263238"></path><path d="M286.09,410s-.19.2-.41.41-.38.41-.43.39,0-.31.28-.56S286.07,410,286.09,410Z" style="fill:#263238"></path><path d="M288,409s-.16.19-.42.3-.48.15-.5.09.16-.19.41-.3S288,408.91,288,409Z" style="fill:#263238"></path><path d="M290.14,409c0,.06-.27,0-.56-.05s-.53.05-.56,0,.22-.24.58-.22S290.18,408.94,290.14,409Z" style="fill:#263238"></path><path d="M291.58,409.17c0,.06-.14.11-.3.11s-.3-.06-.3-.12.13-.11.3-.11S291.58,409.11,291.58,409.17Z" style="fill:#263238"></path><path d="M397.74,270a103.64,103.64,0,0,1-10.81.33,105,105,0,0,1-10.81-.25,100.43,100.43,0,0,1,10.81-.33A101.67,101.67,0,0,1,397.74,270Z" style="fill:#263238"></path><g style="opacity:0.30000000000000004"><polygon points="339.19 307.21 391.35 311.4 389.12 305.56 339.7 304.85 339.19 307.21"></polygon></g><path d="M400,288.27c-1.16-9.56-2.7-17.71-2.7-17.71H376.56s2.58,12.13,2,14.94c-.5,2.45-40.65,4.07-51.11,4.24-.62-.47-1.52.32-2.33-.38a8.44,8.44,0,0,1-1.78-2.2,13,13,0,0,1-1.43-3.24,1.07,1.07,0,0,0-2-.46c-.42.9.06,3.88,2,6.76s-3.22,1.39-5.13.88-7.88-1.81-8.5-1.33c-.9.7-.34,1.82,1.58,2.29s7.57,2.27,7.26,3.29-10-1.73-10-1.73-2-.93-2.38.24c-.71,2.11,9.79,4.24,10.79,4.41.7.13.4,1.25-.34,1.08s-9.59-3-10.34-.83c-.57,1.64,8.62,1.84,10.14,3.46s-7-.88-7.44.71c-.18.59,3.34.87,8.41,1.58a129.22,129.22,0,0,0,15.68.56c11.76.64,53.33,1.5,62.2.87C404.26,305,400.37,291.55,400,288.27Z" style="fill:#ffbe9d"></path><path d="M249.94,226.85a15.45,15.45,0,0,1-.33-2.87c-.12-1.78-.22-4.24-.24-7s.06-5.19.16-7a14.69,14.69,0,0,1,.29-2.87,18.25,18.25,0,0,1,.08,2.88V217c0,2.63.06,5,.08,7A17.69,17.69,0,0,1,249.94,226.85Z" style="fill:#455a64"></path><path d="M264.33,216.33a32,32,0,0,1-3.12,4.84,31.13,31.13,0,0,1-3.55,4.54,32.56,32.56,0,0,1,3.13-4.84A31.5,31.5,0,0,1,264.33,216.33Z" style="fill:#455a64"></path><path d="M271.94,225.12a25,25,0,0,1-4.22,2.59,23.36,23.36,0,0,1-4.46,2.13,24.47,24.47,0,0,1,4.22-2.59A23.36,23.36,0,0,1,271.94,225.12Z" style="fill:#455a64"></path></g><g id="character-1"><path d="M144,444.11l4-9.48L130.28,427l-6,13.81,1.07.54c4.77,2.38,24.42,11.76,28.11,12.18C157.55,454,144,444.11,144,444.11Z" style="fill:#FF725E"></path><g style="opacity:0.4"><path d="M150.49,449.2s4.62,3.79,3.59,4.38-21.25-8.15-29.83-12.78l.2-.39,23.49,10.39S149.44,448.79,150.49,449.2Z" style="fill:#fff"></path></g><path d="M124.18,440.28a1.6,1.6,0,0,0,.29.17l.85.43,3.16,1.52c2.67,1.28,6.39,3,10.54,4.78s7.94,3.34,10.7,4.42l3.28,1.26.89.32a1.2,1.2,0,0,0,.32.1l-.3-.14-.88-.37-3.25-1.32c-2.74-1.12-6.52-2.69-10.66-4.48s-7.88-3.48-10.57-4.71l-3.19-1.47-.87-.39Z" style="fill:#263238"></path><path d="M147.82,451.07a7.51,7.51,0,0,1,1.27-1.27,8.19,8.19,0,0,1,1.62-.76,2.59,2.59,0,0,0-1.76.57A2.54,2.54,0,0,0,147.82,451.07Z" style="fill:#263238"></path><path d="M143.74,446.17c0,.05.42-.15.85-.44s.76-.58.72-.63-.41.14-.85.43S143.71,446.11,143.74,446.17Z" style="fill:#263238"></path><path d="M142.64,444.79c0,.06.38,0,.8-.15s.75-.31.73-.37-.38,0-.81.15S142.61,444.73,142.64,444.79Z" style="fill:#263238"></path><path d="M142.45,442.73a2.37,2.37,0,0,0,.87.51,2.49,2.49,0,0,0,1,.31c0-.06-.36-.29-.87-.52A2.17,2.17,0,0,0,142.45,442.73Z" style="fill:#263238"></path><path d="M142.65,441.41s.32.45.9.75a2,2,0,0,0,1.13.32,5.94,5.94,0,0,0-1-.53A6.2,6.2,0,0,0,142.65,441.41Z" style="fill:#263238"></path><path d="M145,444.88a3.49,3.49,0,0,0,1.14.48,7.12,7.12,0,0,0,1.33.26,3.58,3.58,0,0,0,.81,0,.67.67,0,0,0,.44-.24.49.49,0,0,0,0-.53,2.27,2.27,0,0,0-2.84-.5,2.19,2.19,0,0,0-.7.6c-.13.17-.18.29-.16.29a3.66,3.66,0,0,1,.93-.74,2.25,2.25,0,0,1,1.25-.22,1.92,1.92,0,0,1,1.31.68c.13.21,0,.4-.29.43a3.76,3.76,0,0,1-.75,0,9.86,9.86,0,0,1-1.31-.2C145.46,445,145,444.85,145,444.88Z" style="fill:#263238"></path><path d="M145.28,445.06s.3-.19.47-.73a2,2,0,0,0,.05-1,1.24,1.24,0,0,0-.7-1,.49.49,0,0,0-.57.37,1.34,1.34,0,0,0,0,.59,4,4,0,0,0,.24.92,1.74,1.74,0,0,0,.45.74s-.14-.3-.29-.79a4.76,4.76,0,0,1-.19-.89c-.05-.31,0-.79.34-.72s.46.51.54.81a2,2,0,0,1,0,.88A3.72,3.72,0,0,1,145.28,445.06Z" style="fill:#263238"></path><path d="M126.63,435.59s.53.17,1.29.61a6.25,6.25,0,0,1,2.35,2.41,6.33,6.33,0,0,1,.69,3.29c-.06.88-.25,1.4-.21,1.41a1.06,1.06,0,0,0,.16-.35,6.08,6.08,0,0,0,.22-1,6,6,0,0,0-.66-3.42,5.91,5.91,0,0,0-2.47-2.44,5.3,5.3,0,0,0-1-.4A1.55,1.55,0,0,0,126.63,435.59Z" style="fill:#263238"></path><path d="M131.65,429a68.68,68.68,0,0,0-3.23,7.23,34.87,34.87,0,0,0,1.72-3.57A34.17,34.17,0,0,0,131.65,429Z" style="fill:#263238"></path><path d="M133.71,442.66a11.27,11.27,0,0,0,2.47,1.38,11.13,11.13,0,0,0,2.68.91c0-.07-1.17-.5-2.58-1.13S133.74,442.6,133.71,442.66Z" style="fill:#263238"></path><path d="M130.24,441.16c-.06,0,0,.28,0,.6s0,.58,0,.6.21-.24.21-.6S130.3,441.13,130.24,441.16Z" style="fill:#263238"></path><path d="M129.64,439c-.06,0,0,.25.07.52s.24.46.3.43,0-.25-.08-.52S129.7,438.94,129.64,439Z" style="fill:#263238"></path><path d="M128.09,437.41c0,.07.22.17.44.37s.35.43.41.41,0-.33-.25-.58S128.09,437.35,128.09,437.41Z" style="fill:#263238"></path><path d="M126.91,436.49s0,.18.13.3.26.18.31.13,0-.18-.14-.3S127,436.44,126.91,436.49Z" style="fill:#263238"></path><g style="opacity:0.30000000000000004"><polygon points="126.72 435.14 144.68 442.48 145.57 440.33 127.75 432.78 126.72 435.14"></polygon></g><path d="M227.89,265.69l4.06.2c3.71-.14,5.78-.07,6.87-1,1.46-1.23-.36-2.63-.36-2.63s2.73-.76,2.57-2.4c-.1-1.12-1.36-1.32-1.36-1.32s2.41-.78,2.94-1.74c.71-1.3-.91-2.11-.91-2.11,3.34-1.79,3.16-3.77,2.43-4s-3.31.76-3.31.76c-2.15.48-8,1.9-5.7-1.16s3-6.28,2.54-7.28a1.21,1.21,0,0,0-2.24.42,14.12,14.12,0,0,1-1.72,3.47,9.55,9.55,0,0,1-2.07,2.32c-1,.75-1.8,1.35-2.53,1.84l-3.82,3.28Z" style="fill:#b78876"></path><path d="M243.68,253.31a.68.68,0,0,0,.13-.95,1.43,1.43,0,0,0-.92-.5c-1.46-.28-2.91.45-4.22,1.17a14.06,14.06,0,0,0-3.61,2.46c-.3.3-.58.72-.43,1.11a1,1,0,0,0,.82.53,3.19,3.19,0,0,0,2.27-.48,6,6,0,0,0-2.76,1.81,1.37,1.37,0,0,0-.43,1.07,1,1,0,0,0,1.1.71,3,3,0,0,0,1.31-.53,4.74,4.74,0,0,0-2.52,1.47,1.12,1.12,0,0,0-.37.73c0,.56.67.89,1.23.86a10.53,10.53,0,0,1,1.66-.18,3.56,3.56,0,0,0-2.82,1.67c-.22.37-.35.91,0,1.19a1.15,1.15,0,0,0,.8.16l1.2-.09a5.8,5.8,0,0,0,1.9-.34,2,2,0,0,0,1.27-1.37,1.25,1.25,0,0,0-.93-1.47,3.7,3.7,0,0,0,2-1.58,1.51,1.51,0,0,0-.77-2.12c.63-.92,2.25-.92,2.61-2,.23-.71-.27-1.43-.74-2a3.49,3.49,0,0,0,2.38-1.6" style="fill:#b78876"></path><path d="M241.74,254.72a8.28,8.28,0,0,1-1.88,1.13,19.81,19.81,0,0,1-2.19,1,14.3,14.3,0,0,1-1.38.39,2.22,2.22,0,0,1-.82,0,1.12,1.12,0,0,1-.79-.53,1.41,1.41,0,0,1,.38-1.65,6.18,6.18,0,0,1,1.2-.81l2-1.2a9.27,9.27,0,0,1,1.95-1,10.32,10.32,0,0,1-1.76,1.29l-2,1.28a6.75,6.75,0,0,0-1.1.77.93.93,0,0,0-.28,1.06c.16.31.65.34,1.08.26a12.71,12.71,0,0,0,1.32-.35c.84-.27,1.57-.57,2.19-.83A10.07,10.07,0,0,1,241.74,254.72Z" style="fill:#aa6550"></path><path d="M240.2,258.41a5.43,5.43,0,0,1-1.44.73l-1.63.67-1,.39a2,2,0,0,1-1.24.11.92.92,0,0,1-.57-.47.93.93,0,0,1,0-.71,2,2,0,0,1,.69-.92,9.06,9.06,0,0,1,1.44-1.06,3.47,3.47,0,0,1,1.52-.6,11.58,11.58,0,0,1-1.33.9,12.58,12.58,0,0,0-1.32,1.09,1.74,1.74,0,0,0-.53.72.43.43,0,0,0,.3.58c.53.15,1.3-.28,1.89-.46l1.65-.57A5,5,0,0,1,240.2,258.41Z" style="fill:#aa6550"></path><path d="M238.84,261.78a3.81,3.81,0,0,1-1.59.89,7.54,7.54,0,0,1-2,.42,1.67,1.67,0,0,1-1.24-.37,1.12,1.12,0,0,1-.37-.68,1.06,1.06,0,0,1,.21-.76,3.32,3.32,0,0,1,1.07-.8c.35-.19.69-.38,1-.54.66-.34,1.27-.61,1.79-.82a5.42,5.42,0,0,1,1.72-.55,7.47,7.47,0,0,1-1.58.87c-.49.25-1.07.55-1.71.9l-1,.57a2.86,2.86,0,0,0-.9.67.53.53,0,0,0,.08.77,1.25,1.25,0,0,0,.9.28,8.71,8.71,0,0,0,1.87-.3C238.2,262,238.8,261.71,238.84,261.78Z" style="fill:#aa6550"></path><path d="M234.55,265.79s-.11.08-.3,0a.88.88,0,0,1-.54-.61A1.37,1.37,0,0,1,234,264a3.12,3.12,0,0,1,1.11-.82A9.57,9.57,0,0,1,238.3,262a14.6,14.6,0,0,1-2.94,1.61,2.88,2.88,0,0,0-1,.68,1.05,1.05,0,0,0-.3.8C234.13,265.64,234.57,265.74,234.55,265.79Z" style="fill:#aa6550"></path><polygon points="229.29 247.38 233.54 268.49 243.94 267.42 244.23 245.84 229.29 247.38" style="fill:#e0e0e0"></polygon><path d="M229,244.62a4.44,4.44,0,0,0-.68,2.91l16.88-1.73a3.17,3.17,0,0,0-1.26-2.72Z" style="fill:#455a64"></path><polygon points="230.74 242.47 230.38 244.64 243.14 243.42 242.06 241.28 230.74 242.47" style="fill:#455a64"></polygon><path d="M229.63,252.74c0,.19,2.34,10.6,2.34,10.6l12.7-1.31.11-10.85Z" style="fill:#455a64"></path><path d="M176.17,211.5a8.29,8.29,0,0,0-.2-8c-.89-1.32-2.25-2.27-3.14-3.58-2.08-3.08-1.12-7.19-1.51-10.89a14.35,14.35,0,0,0-25.86-7l.64,4.11a205.28,205.28,0,0,0-2.43,22.34l-5.1-24c-2.54,1.78-3.26,5.19-3.56,8.29s-.44,6.43-2.35,8.87c-2.85,3.64-8.82,4.2-10.79,8.38-1.71,3.63.47,8.44-1.86,11.71-1.72,2.4-5.11,2.84-7.4,4.69-3.25,2.64-3.52,7.81-1.48,11.46s5.85,6,9.76,7.49a30.77,30.77,0,0,0,15.64,1.92A23,23,0,0,0,150.32,240l-1.2-5.66a8.63,8.63,0,0,0,.81.66,10.91,10.91,0,0,0,6.83,1.69,25.11,25.11,0,0,0,14.09-6.47,10.84,10.84,0,0,0,3.21-7.74c-.07-1.76-.69-3.51-.46-5.25C173.88,215.13,175.29,213.4,176.17,211.5Z" style="fill:#263238"></path><rect x="116.49" y="359.1" width="7.31" height="87.63" style="fill:#263238"></rect><path d="M171.9,363.07H67.29a11.36,11.36,0,0,1,11.35-11.36h81.9a11.36,11.36,0,0,1,11.36,11.36Z" style="fill:#263238"></path><path d="M127.25,363.29a38.24,38.24,0,0,1-6.42.27,38.17,38.17,0,0,1-6.41-.27,38.17,38.17,0,0,1,6.41-.27A38.24,38.24,0,0,1,127.25,363.29Z" style="fill:#263238"></path><path d="M152.14,454.68h-1a31.13,31.13,0,1,0-62.25,0h-1a32.16,32.16,0,1,1,64.31,0Z" style="fill:#263238"></path><path d="M93.16,456.27a4.82,4.82,0,1,1-4.82-4.82A4.82,4.82,0,0,1,93.16,456.27Z" style="fill:#263238"></path><path d="M156.69,455.61a4.83,4.83,0,1,1-4.83-4.82A4.82,4.82,0,0,1,156.69,455.61Z" style="fill:#263238"></path><path d="M151.83,446.74c0,.14-14,.26-31.25.26s-31.26-.12-31.26-.26,14-.27,31.26-.27S151.83,446.59,151.83,446.74Z" style="fill:#263238"></path><path d="M64.21,272.34v64.51a15.31,15.31,0,0,0,15.32,15.32h49.71l-6.75-79.83a6.82,6.82,0,0,0-6.83-6.82H71A6.82,6.82,0,0,0,64.21,272.34Z" style="fill:#263238"></path><path d="M81.78,351.71a5.16,5.16,0,0,1-.56-.65c-.36-.44-.85-1.11-1.45-2a32.68,32.68,0,0,1-3.89-8.22,34,34,0,0,1-1.31-6.16,62.4,62.4,0,0,1-.24-7.22c0-5.07,0-10.64,0-16.49,0-11.68,0-22.25.07-30,0-3.79.07-6.88.09-9.08,0-1,0-1.85,0-2.47a4.46,4.46,0,0,1,0-.86,5.82,5.82,0,0,1,.05.86c0,.62,0,1.44,0,2.47,0,2.2,0,5.29.08,9.08,0,7.71,0,18.28.08,30,0,5.85,0,11.42,0,16.49a63.94,63.94,0,0,0,.19,7.17,33.7,33.7,0,0,0,1.24,6.1,34.1,34.1,0,0,0,3.7,8.22c.57.9,1,1.59,1.37,2l.36.53C81.75,351.64,81.79,351.71,81.78,351.71Z" style="fill:#455a64"></path><path d="M108.85,351.75a10.56,10.56,0,0,1-1.58.11L103,352c-3.64.08-8.66.14-14.21.18l-7.82.05a26.75,26.75,0,0,0-6.3.57,10.41,10.41,0,0,0-3.8,1.81c-.81.61-1.17,1.05-1.21,1s.07-.12.24-.33a6.57,6.57,0,0,1,.84-.83,9.82,9.82,0,0,1,3.84-2,25.15,25.15,0,0,1,6.38-.7c2.4-.06,5-.06,7.82-.09,5.55,0,10.58-.05,14.22,0l4.3.06A8.24,8.24,0,0,1,108.85,351.75Z" style="fill:#455a64"></path><path d="M216.54,448.23,214,437.76l-19.65,4.72,3.62,15.35,1.23-.21c5.5-1,27.86-5.47,31.22-7.43C234.13,448,216.54,448.23,216.54,448.23Z" style="fill:#FF725E"></path><g style="opacity:0.4"><path d="M225.2,448.41s6.26.28,5.76,1.42-22.93,6.5-33,8l-.08-.44,26.22-6S224.07,448.73,225.2,448.41Z" style="fill:#fff"></path></g><path d="M197.54,457.45l.35-.05,1-.17,3.61-.7c3-.61,7.23-1.51,11.84-2.61s8.75-2.19,11.75-3l3.53-1,1-.29.33-.12a2.09,2.09,0,0,0-.35.07l-1,.24-3.56.93c-3,.78-7.15,1.84-11.76,2.94s-8.78,2-11.82,2.68l-3.59.78-1,.22Z" style="fill:#263238"></path><path d="M224.14,451.66a8.18,8.18,0,0,1,.26-1.87,7.64,7.64,0,0,1,.89-1.65,3.27,3.27,0,0,0-1.15,3.52Z" style="fill:#263238"></path><path d="M217.64,450.1c.06,0,.26-.38.44-.9a2.19,2.19,0,0,0,.21-1c-.07,0-.27.38-.44.9S217.57,450.08,217.64,450.1Z" style="fill:#263238"></path><path d="M215.85,449.64c.05,0,.31-.24.58-.62s.43-.73.38-.77-.32.24-.58.63S215.79,449.6,215.85,449.64Z" style="fill:#263238"></path><path d="M214.4,448a2.4,2.4,0,0,0,1-.11,2.37,2.37,0,0,0,1-.36,2.54,2.54,0,0,0-1.06.12C214.83,447.81,214.38,448,214.4,448Z" style="fill:#263238"></path><path d="M213.74,446.8a2,2,0,0,0,1.22.06,2,2,0,0,0,1.15-.44,7.45,7.45,0,0,0-1.19.2A7,7,0,0,0,213.74,446.8Z" style="fill:#263238"></path><path d="M217.9,448.23a3.7,3.7,0,0,0,1.26-.31,7.68,7.68,0,0,0,1.27-.62,3.33,3.33,0,0,0,.69-.5.65.65,0,0,0,.22-.46.48.48,0,0,0-.31-.46,2.37,2.37,0,0,0-2.7,1.36,2.3,2.3,0,0,0-.21.94c0,.23,0,.35,0,.35a3.6,3.6,0,0,1,.31-1.22,2.46,2.46,0,0,1,.92-1,2,2,0,0,1,1.52-.25c.24.1.22.35,0,.54a4.21,4.21,0,0,1-.64.47,9.3,9.3,0,0,1-1.22.65C218.37,448.08,217.89,448.19,217.9,448.23Z" style="fill:#263238"></path><path d="M218.24,448.22a1.3,1.3,0,0,0-.07-.92,2.17,2.17,0,0,0-.56-.84,1.33,1.33,0,0,0-1.21-.39.53.53,0,0,0-.25.68,1.49,1.49,0,0,0,.35.51,4,4,0,0,0,.78.62,1.88,1.88,0,0,0,.85.34s-.31-.17-.75-.48a4.87,4.87,0,0,1-.71-.63c-.24-.23-.47-.68-.17-.81s.71.13,1,.33a2.26,2.26,0,0,1,.55.74A5.78,5.78,0,0,1,218.24,448.22Z" style="fill:#263238"></path><path d="M196.66,452s.55-.19,1.46-.3a6.35,6.35,0,0,1,6.13,2.87c.5.77.66,1.33.71,1.32a1.54,1.54,0,0,0-.1-.4,5.24,5.24,0,0,0-.47-1,6.15,6.15,0,0,0-6.29-2.95,5.37,5.37,0,0,0-1.08.29C196.78,451.89,196.65,452,196.66,452Z" style="fill:#263238"></path><path d="M196.74,443.31a34.74,34.74,0,0,0,.79,4.08,34,34,0,0,0,1,4,74,74,0,0,0-1.83-8.1Z" style="fill:#263238"></path><path d="M207,453.46a11,11,0,0,0,2.93-.4,11.5,11.5,0,0,0,2.82-.91c0-.07-1.29.31-2.87.67S207,453.39,207,453.46Z" style="fill:#263238"></path><path d="M203.17,454.38c0,.06.17.25.38.51s.33.51.4.49,0-.34-.21-.64S203.21,454.32,203.17,454.38Z" style="fill:#263238"></path><path d="M201.29,452.92c0,.06.14.23.39.39s.49.24.53.18-.14-.23-.4-.39S201.33,452.86,201.29,452.92Z" style="fill:#263238"></path><path d="M199,452.59c0,.07.29,0,.6,0s.56.14.6.08-.19-.29-.58-.32S199,452.54,199,452.59Z" style="fill:#263238"></path><path d="M197.45,452.56c0,.06.12.14.3.16s.33,0,.34-.08-.13-.14-.31-.16S197.46,452.49,197.45,452.56Z" style="fill:#263238"></path><g style="opacity:0.30000000000000004"><polygon points="196.43 451.48 216.11 446.42 215.51 444.06 195.6 447.97 196.43 451.48"></polygon></g><polygon points="125.79 433.14 146.74 441.15 194.33 363.2 181.41 337.5 154.44 348.58 160.56 365.11 125.79 433.14" style="fill:#455a64"></polygon><path d="M175,387.78l0,0c-.06,0,0-.06-.07-.1l-.14-.4-.51-1.57c-.43-1.42-1-3.38-1.76-5.77-1.45-5-3.44-11.68-5.63-19.12l-2.62-9.09.21.16-13.45-.57-3.87-.21-1-.07c-.24,0-.36,0-.36-.06a1.41,1.41,0,0,1,.36,0h1l3.87.07,13.45.41h.17l0,.16,2.66,9.09c2.13,7.45,4.07,14.19,5.49,19.15l1.62,5.82c.17.65.3,1.18.41,1.59l.1.42s0,.08,0,.1Z" style="fill:#455a64"></path><path d="M103.23,301.45l-6.7,12.37a31.93,31.93,0,0,0-2.89,15.38c.83,13.38,11.84,23.83,25.22,24.63l.53,0,45.71.61,26.77,94.16,24.53-3.74s-21.93-101.33-25.56-108.57-62.68-20.9-62.68-20.9Z" style="fill:#455a64"></path><path d="M175.69,390.26l0,0c-.06,0,0-.06-.07-.1l-.14-.41c-.14-.4-.3-.92-.51-1.56l-1.76-5.78c-1.46-4.94-3.44-11.67-5.63-19.11-.93-3.21-1.81-6.28-2.63-9.1l.21.17-13.44-.58-3.87-.2-1-.08a1.41,1.41,0,0,1-.35-.05l.35,0h1l3.87.07,13.45.4h.16l0,.16c.82,2.81,1.72,5.88,2.65,9.08,2.14,7.46,4.08,14.2,5.5,19.16.67,2.41,1.21,4.38,1.61,5.82l.42,1.59c0,.15.07.29.1.41s0,.08,0,.11S175.68,390.25,175.69,390.26Z" style="fill:#263238"></path><path d="M233.65,235.25a37.29,37.29,0,0,1-7.11-5.2,37.29,37.29,0,0,1,7.11,5.2Z" style="fill:#455a64"></path><path d="M237.2,216.51a26.22,26.22,0,0,1,1.42,5.09,27.23,27.23,0,0,1,.91,5.2,26.5,26.5,0,0,1-1.42-5.09A27.23,27.23,0,0,1,237.2,216.51Z" style="fill:#455a64"></path><path d="M76.3,264.81A14.71,14.71,0,0,0,72,266.29a18.27,18.27,0,0,0-8,9.33A31.25,31.25,0,0,0,62,284c-.34,3.1-.38,6.45-.42,10-.08,7.05-.18,14.8-.28,22.93-.24,16.26-.46,31-.62,41.66-.1,5.31-.19,9.61-.25,12.63,0,1.46-.07,2.61-.09,3.43,0,.37,0,.66,0,.89a1.3,1.3,0,0,1,0,.31,1.92,1.92,0,0,1,0-.31c0-.23,0-.52,0-.89v-3.43c0-3,.05-7.33.08-12.63.12-10.69.29-25.41.47-41.66.12-8.14.22-15.88.32-22.93a99.1,99.1,0,0,1,.47-10,31.52,31.52,0,0,1,2.07-8.5,18.28,18.28,0,0,1,8.22-9.37A12.55,12.55,0,0,1,75.11,265c.39-.08.69-.1.89-.13A.85.85,0,0,1,76.3,264.81Z" style="fill:#FF725E"></path><path d="M88.34,383.27a1.2,1.2,0,0,1,0-.31l0-.93c0-.86,0-2.06,0-3.58,0-3.15,0-7.63,0-13.17,0-11.14.07-26.48.11-43.42,0-8.48.08-16.55.12-23.9,0-3.68.05-7.17.07-10.44a41.89,41.89,0,0,0-1-9c-1.2-5.39-3.29-9.55-5.6-11.62a7.84,7.84,0,0,0-3-1.81c-.78-.26-1.22-.27-1.21-.31a1.29,1.29,0,0,1,.32,0,4,4,0,0,1,.92.18A7.68,7.68,0,0,1,82,266.79c2.4,2.07,4.57,6.26,5.82,11.69a42.18,42.18,0,0,1,1.11,9c0,3.27,0,6.76,0,10.44,0,7.35,0,15.43-.08,23.91-.1,16.94-.2,32.27-.26,43.42-.06,5.53-.11,10-.14,13.16,0,1.52,0,2.72-.07,3.58q0,.57,0,.93C88.35,383.17,88.34,383.27,88.34,383.27Z" style="fill:#FF725E"></path><rect x="48.33" y="376.13" width="48.51" height="26.38" style="fill:#FF725E"></rect><path d="M96.63,375.9a2.55,2.55,0,0,1-.37.49l-1.11,1.36-4,5.08a35.33,35.33,0,0,1-6.79,6.79,16.65,16.65,0,0,1-11.19,3.22A24.19,24.19,0,0,1,62.11,389a40.83,40.83,0,0,1-7.36-6.16c-1.91-2-3.33-3.65-4.31-4.81l-1.11-1.36a3.22,3.22,0,0,1-.36-.5,2.47,2.47,0,0,1,.44.43l1.19,1.29c1,1.13,2.48,2.78,4.41,4.7a43.17,43.17,0,0,0,7.35,6,24.11,24.11,0,0,0,10.87,3.7,16.22,16.22,0,0,0,10.87-3.1,35.77,35.77,0,0,0,6.79-6.62c1.72-2.1,3.09-3.83,4.1-5,.51-.57.91-1,1.19-1.3A2.84,2.84,0,0,1,96.63,375.9Z" style="fill:#263238"></path><path d="M76,391.73A2.08,2.08,0,0,0,73.7,391l-.38.18h0a2,2,0,0,0,.26,3.54,2.05,2.05,0,0,0,2.4-.51A2,2,0,0,0,76,391.73Z" style="fill:#fafafa"></path><path d="M161.89,233.32S169,235.23,175.52,250l12.6,20.49,38.42-17.23,2.75,14.37L184,293.24c-6.51.05-7.17-1.16-11.23-6.25l-12.44-20.91Z" style="fill:#FF725E"></path><path d="M164.65,259.28c2.18,11.21-6.23,22.16-6.23,22.16-1.91,4.31-5.11,18.95-5.94,32.44l-.56,6.78s-22.59,7.65-51.81-14.61l14.48-21.39.65-26.56s-1.59-15.15.66-19.74c2.46-5,8-14,41.09-7l5.39,2.19,2.27,25.76" style="fill:#FF725E"></path><path d="M134,317.56l.52.88a102.14,102.14,0,0,0,6.23,9.28c3,3.56,3.3,3.31,3.66,2.9,1-1.09-5-6.46-3-6s6.5,7.4,7.49,6.21c1.28-1.54-5.06-7.06-5.56-7.56s.23-1.23.65-.75c.62.69,7.25,7.78,8.53,6.28.7-.84-.95-1.93-.95-1.93s-6.71-6.19-6.09-6.88,4.71,2.8,6,4.08,2.4,1.18,2.51.17c.07-.69-3.77-4.69-5.07-5.92s-4.93-4.55-1.78-4.33,5.67-.78,6.16-1.51-.38-1.65-1.3-1.31a12,12,0,0,1-3.17.37,8,8,0,0,1-2.53-.37c-.7-.23-1.32-.45-1.87-.67l-2-.76Z" style="fill:#b78876"></path><path d="M162.94,247.3a6.51,6.51,0,0,1,.38,1.35c.21.88.51,2.16.83,3.75A51.53,51.53,0,0,1,165.31,265a21.46,21.46,0,0,1-1.61,6.83,41.51,41.51,0,0,1-2.52,5.12c-.8,1.41-1.49,2.53-2,3.3a8.09,8.09,0,0,1-.79,1.17,9.19,9.19,0,0,1,.63-1.27l1.83-3.36a46.58,46.58,0,0,0,2.41-5.13,22,22,0,0,0,1.54-6.68,56.35,56.35,0,0,0-1-12.53c-.27-1.53-.5-2.8-.67-3.78A8.22,8.22,0,0,1,162.94,247.3Z" style="fill:#263238"></path><path d="M117.79,235.23,91.71,271.94A14.92,14.92,0,0,0,95,292.59l37.74,27.74,11.16-12.5-32.87-28.27,21.78-29.3Z" style="fill:#FF725E"></path><path d="M104.6,299.62s.19.11.53.35l1.51,1.07,5.71,4.13,20.55,15-.27,0,11.14-12.51,0,.32-21.93-18.84-11-9.42-.16-.14.12-.18c5.52-7.65,11.27-14.4,15.86-20.9,1.16-1.61,2.24-3.22,3.26-4.8a36.76,36.76,0,0,0,2.52-4.79,21.72,21.72,0,0,0,1.55-4.77,12.58,12.58,0,0,0-.19-4.56,9.62,9.62,0,0,0-4.22-6.36,11.11,11.11,0,0,0-5.59-1.67,5.92,5.92,0,0,0-3.51,1,4.75,4.75,0,0,0-.75.61c-.16.14-.24.22-.25.21a1.59,1.59,0,0,1,.22-.24,3.57,3.57,0,0,1,.73-.65,5.94,5.94,0,0,1,3.55-1.08,11.2,11.2,0,0,1,5.73,1.63,9.88,9.88,0,0,1,4.39,6.5,13,13,0,0,1,.23,4.68,21.94,21.94,0,0,1-1.55,4.86,36.39,36.39,0,0,1-2.53,4.86c-1,1.59-2.09,3.21-3.25,4.83-4.59,6.54-10.32,13.3-15.81,20.94l0-.32,11,9.41,21.91,18.86.17.16-.15.17-11.18,12.48-.12.13-.15-.1-20.44-15.13-5.65-4.22L105.09,300Z" style="fill:#263238"></path><g style="opacity:0.30000000000000004"><path d="M129.58,255.09c-.26,9.1-6.11,17.37-6.24,26.47A32.31,32.31,0,0,0,125.21,292c-2-1.54-4.22-4-6.49-5.59,0,0-4.19-4.05-4.13-3.83l.23-7.86,4.07-5.27c-.19.2,10.69-14.33,10.69-14.33"></path></g><path d="M141,261.2a15.85,15.85,0,0,1-2.25-3.38,15.43,15.43,0,0,1-1.79-3.64,16,16,0,0,1,2.24,3.38A16.24,16.24,0,0,1,141,261.2Z" style="fill:#e0e0e0"></path><path d="M158,246.07a15.63,15.63,0,0,1-5,2.81,8.6,8.6,0,0,1,2.4-1.63A8.28,8.28,0,0,1,158,246.07Z" style="fill:#e0e0e0"></path><path d="M156.72,261.92a11.33,11.33,0,0,1-2-4.43A5.76,5.76,0,0,1,156,259.6,5.87,5.87,0,0,1,156.72,261.92Z" style="fill:#e0e0e0"></path><path d="M144.83,272.74a8.25,8.25,0,0,1,1-2.7,8.39,8.39,0,0,1,1.49-2.49,8.18,8.18,0,0,1-1,2.71A7.87,7.87,0,0,1,144.83,272.74Z" style="fill:#e0e0e0"></path><path d="M132.54,274.52c-.11.09-.95-.8-1.62-2.15a5,5,0,0,1-.77-2.58,12.65,12.65,0,0,1,1.23,2.35A11.83,11.83,0,0,1,132.54,274.52Z" style="fill:#e0e0e0"></path><path d="M134.32,286.94a7.49,7.49,0,0,1-2.75.19,7.71,7.71,0,0,1-2.73-.34,7.49,7.49,0,0,1,2.75-.19A7.71,7.71,0,0,1,134.32,286.94Z" style="fill:#e0e0e0"></path><path d="M151.32,278.47a9.73,9.73,0,0,1-2.61,1.84,10.11,10.11,0,0,1-2.88,1.4,9.89,9.89,0,0,1,2.61-1.84A10.11,10.11,0,0,1,151.32,278.47Z" style="fill:#e0e0e0"></path><path d="M143.65,248.6a7.51,7.51,0,0,1-2.24-1.67c-1.13-1-2-2-1.88-2.06a7.91,7.91,0,0,1,2.23,1.67C142.9,247.57,143.75,248.49,143.65,248.6Z" style="fill:#e0e0e0"></path><path d="M134.77,236c-.12.07-.72-.67-1.11-1.77s-.41-2.06-.27-2.07.38.85.76,1.89A6.77,6.77,0,0,1,134.77,236Z" style="fill:#e0e0e0"></path><path d="M119.69,241.38c-.11-.11.56-.93,1.22-2s1.08-2.06,1.23-2a3.93,3.93,0,0,1-.78,2.29C120.66,240.78,119.78,241.48,119.69,241.38Z" style="fill:#e0e0e0"></path><path d="M127.93,248.3a15.76,15.76,0,0,1,.59-5.63,8,8,0,0,1,0,2.85A7.77,7.77,0,0,1,127.93,248.3Z" style="fill:#e0e0e0"></path><path d="M121,252c-.13.05-.57-.77-1-1.83s-.64-2-.5-2,.57.77,1,1.83S121.12,252,121,252Z" style="fill:#e0e0e0"></path><path d="M112.55,253a10.8,10.8,0,0,1-5.49,2.67,14.63,14.63,0,0,1,2.71-1.41A14.29,14.29,0,0,1,112.55,253Z" style="fill:#e0e0e0"></path><path d="M113,263.4a15.27,15.27,0,0,1,2-2.55,14.74,14.74,0,0,1,2.11-2.43,7.86,7.86,0,0,1-1.71,2.76A7.67,7.67,0,0,1,113,263.4Z" style="fill:#e0e0e0"></path><path d="M105,267a4.63,4.63,0,0,1-.71-2.4,4.57,4.57,0,0,1,.16-2.5,8.91,8.91,0,0,1,.36,2.44A8.61,8.61,0,0,1,105,267Z" style="fill:#e0e0e0"></path><path d="M108.55,274.27a9.26,9.26,0,0,1-3.06.83,9.51,9.51,0,0,1-3.16.32,9.87,9.87,0,0,1,3.06-.83A9.84,9.84,0,0,1,108.55,274.27Z" style="fill:#e0e0e0"></path><path d="M93.59,279.71a11.14,11.14,0,0,1,.33-3.45,11.92,11.92,0,0,1,.85-3.37,23.78,23.78,0,0,1-1.18,6.82Z" style="fill:#e0e0e0"></path><path d="M103.2,283.39c.08.12-.83.88-2.14,1.53a5.15,5.15,0,0,1-2.52.76,10.1,10.1,0,0,1,2.29-1.23A10,10,0,0,1,103.2,283.39Z" style="fill:#e0e0e0"></path><path d="M109.27,297a20.23,20.23,0,0,1-1-6.37,20.23,20.23,0,0,1,1,6.37Z" style="fill:#e0e0e0"></path><path d="M115.75,295.41a8.92,8.92,0,0,1-.47-2.94,8.57,8.57,0,0,1,.06-3,8.8,8.8,0,0,1,.46,2.95A8.66,8.66,0,0,1,115.75,295.41Z" style="fill:#e0e0e0"></path><path d="M125.86,307.87a16.29,16.29,0,0,1-3-1.27,16.13,16.13,0,0,1-2.92-1.36,11.16,11.16,0,0,1,5.88,2.63Z" style="fill:#e0e0e0"></path><path d="M132.25,311.7a6,6,0,0,1,1-3.13,6.08,6.08,0,0,1,2.13-2.5c.11.11-.83,1.21-1.67,2.76S132.39,311.74,132.25,311.7Z" style="fill:#e0e0e0"></path><path d="M171.69,261.06a9.4,9.4,0,0,1,.94-2.92,9.3,9.3,0,0,1,1.41-2.72,9.37,9.37,0,0,1-.93,2.92A8.86,8.86,0,0,1,171.69,261.06Z" style="fill:#e0e0e0"></path><path d="M168.87,244a8.08,8.08,0,0,1-1.87-2.11,7.81,7.81,0,0,1-1.46-2.43,7.77,7.77,0,0,1,1.88,2.12A7.56,7.56,0,0,1,168.87,244Z" style="fill:#e0e0e0"></path><path d="M172.51,276.32c-.12.09-1-.86-2-2.14a8.58,8.58,0,0,1-1.64-2.46,8.68,8.68,0,0,1,2.05,2.14A8.84,8.84,0,0,1,172.51,276.32Z" style="fill:#e0e0e0"></path><path d="M177.89,270.08a5.53,5.53,0,0,1,.14-3,5.61,5.61,0,0,1,1.27-2.76,22.16,22.16,0,0,1-.77,2.88A23.58,23.58,0,0,1,177.89,270.08Z" style="fill:#e0e0e0"></path><path d="M137,186.42v3l-.19,44.66c0,5.18,4.42,9.33,10,9.31h0c5.6,0,10.23-4.28,10.34-9.51.12-5.5.34-11.28.34-11.28s7.1-1.05,8.73-10.26c.81-4.59.71-12.12.44-18.29a9.75,9.75,0,0,0-10.6-9.28Z" style="fill:#b78876"></path><path d="M164.73,199a1.18,1.18,0,0,1-1.16,1.17,1.13,1.13,0,0,1-1.2-1.09,1.18,1.18,0,0,1,1.16-1.17A1.13,1.13,0,0,1,164.73,199Z" style="fill:#263238"></path><path d="M164.92,197.92c-.15.15-1-.53-2.31-.54s-2.22.6-2.35.44.08-.35.5-.64a3.19,3.19,0,0,1,1.89-.54,3.1,3.1,0,0,1,1.83.63C164.87,197.57,165,197.85,164.92,197.92Z" style="fill:#263238"></path><path d="M152.38,199a1.18,1.18,0,0,1-1.17,1.17,1.13,1.13,0,0,1-1.2-1.09,1.18,1.18,0,0,1,1.16-1.17A1.13,1.13,0,0,1,152.38,199Z" style="fill:#263238"></path><path d="M152.39,197.94c-.15.15-1-.53-2.31-.55s-2.23.6-2.36.44.09-.34.5-.63a3.24,3.24,0,0,1,1.89-.55,3.14,3.14,0,0,1,1.84.63C152.33,197.59,152.46,197.87,152.39,197.94Z" style="fill:#263238"></path><path d="M156.85,207.48a7.77,7.77,0,0,1,2.07-.34c.33,0,.64-.09.7-.31a1.68,1.68,0,0,0-.2-1c-.3-.79-.6-1.62-.92-2.49a42.73,42.73,0,0,1-2.05-6.53,43.67,43.67,0,0,1,2.57,6.35c.3.87.6,1.71.88,2.51A1.89,1.89,0,0,1,160,207a.79.79,0,0,1-.54.46,2.38,2.38,0,0,1-.56.07A8.31,8.31,0,0,1,156.85,207.48Z" style="fill:#263238"></path><path d="M157.46,222.58a23.54,23.54,0,0,1-12.32-3.52s2.89,6.4,12.15,5.7Z" style="fill:#aa6550"></path><path d="M156.25,210.54a2.28,2.28,0,0,0-2-.89,2.13,2.13,0,0,0-1.47.75,1.33,1.33,0,0,0-.12,1.52,1.54,1.54,0,0,0,1.66.45,4.87,4.87,0,0,0,1.65-.94,1.45,1.45,0,0,0,.37-.37.42.42,0,0,0,0-.48" style="fill:#aa6550"></path><path d="M153.08,208.29c.2,0,.18,1.38,1.35,2.38s2.64.88,2.65,1.07-.33.26-1,.27a3.41,3.41,0,0,1-2.21-.82,3,3,0,0,1-1-2C152.82,208.62,153,208.28,153.08,208.29Z" style="fill:#263238"></path><path d="M136.81,228.8c2.74-.9,3.86-1.86,4.93-4.54a13.64,13.64,0,0,0,.35-8.52c-.34-1.29-.83-2.7-.24-3.9a7.24,7.24,0,0,1,2.05-2,8.6,8.6,0,0,0,2.72-5.78,14.74,14.74,0,0,0-1.06-6.41c-.41-1.12-.92-2.36-.5-3.48a5.38,5.38,0,0,1,1.64-1.92A14.93,14.93,0,0,0,150,188a4.27,4.27,0,0,0,.5-3.65c-.64-1.4-2.38-1.86-3.91-2-3.65-.34-7.71.39-10.09,3.19-2.13,2.5-2.43,6-2.64,9.32-.65,10.34-14.16,21-7.54,35.13Z" style="fill:#263238"></path><path d="M152.8,193c-.13.34-1.4.15-2.9.31s-2.71.54-2.91.22c-.08-.15.13-.47.63-.8a4.86,4.86,0,0,1,2.16-.71,4.76,4.76,0,0,1,2.26.31C152.59,192.51,152.86,192.78,152.8,193Z" style="fill:#263238"></path><path d="M164.52,194.22c-.23.29-1.1,0-2.16-.06s-2,.16-2.15-.15c-.09-.14.06-.43.45-.7a2.92,2.92,0,0,1,1.76-.44,3,3,0,0,1,1.72.61C164.5,193.78,164.62,194.09,164.52,194.22Z" style="fill:#263238"></path><path d="M150.43,184.35a15.13,15.13,0,0,0,10.47,4.75c1.09,0,2.31,0,3.15.7a10.57,10.57,0,0,1,1.37,2c.48.65,1.45,1.12,2.08.61s.45-1.3.25-2a12.62,12.62,0,0,0-6.67-7.86,10.43,10.43,0,0,0-10.12.82" style="fill:#263238"></path></g><g id="Desk"><polygon points="263.18 246.59 278.23 290.56 346.38 290.56 345.87 288.3 318.32 287.45 305.62 246.56 263.18 246.59" style="fill:#e0e0e0"></polygon><path d="M293.39,267.47c.45,1.8-.32,3.57-1.72,3.94s-2.9-.78-3.35-2.58.32-3.56,1.72-3.94S292.94,265.67,293.39,267.47Z" style="fill:#fff"></path><polygon points="398.83 290.75 121.89 290.75 121.89 302.18 142.21 302.18 142.21 460.43 148.57 460.43 148.57 302.18 352.35 302.18 352.35 460.43 358.71 460.43 358.71 302.18 398.83 302.18 398.83 290.75" style="fill:#263238"></polygon><polygon points="229.69 247.11 214.65 291.06 146.55 291.06 147.05 288.8 174.59 287.94 187.28 247.09 229.69 247.11" style="fill:#e0e0e0"></polygon><path d="M199.51,267.75c-.45,1.8.33,3.57,1.73,3.94s2.9-.78,3.35-2.58-.33-3.56-1.73-3.94S200,266,199.51,267.75Z" style="fill:#fff"></path></g></svg>