<svg xmlns="http://www.w3.org/2000/svg" viewBox="0 0 750 500"><g id="background-complete"><rect x="44.38" y="234.57" width="113.65" height="197.18" transform="translate(202.4 666.33) rotate(180)" style="fill:#ebebeb"></rect><rect x="158.03" y="234.57" width="34.94" height="197.18" transform="translate(350.99 666.33) rotate(180)" style="fill:#e0e0e0"></rect><circle cx="96.51" cy="293.08" r="32.47" transform="translate(-120.88 74.1) rotate(-26.57)" style="fill:#e0e0e0"></circle><path d="M88.44,293.08A8.07,8.07,0,1,0,96.51,285,8.07,8.07,0,0,0,88.44,293.08Z" style="fill:#f5f5f5"></path><circle cx="96.51" cy="381.81" r="32.47" transform="translate(-279.01 263.18) rotate(-58.28)" style="fill:#e0e0e0"></circle><path d="M88.44,381.81a8.07,8.07,0,1,0,8.07-8.07A8.07,8.07,0,0,0,88.44,381.81Z" style="fill:#f5f5f5"></path><rect x="606.16" y="236.79" width="113.24" height="196.47" style="fill:#ebebeb"></rect><rect x="571.34" y="236.79" width="34.81" height="196.47" style="fill:#e0e0e0"></rect><circle cx="667.45" cy="295.08" r="32.35" transform="matrix(0.32, -0.95, 0.95, 0.32, 172.34, 831.21)" style="fill:#e0e0e0"></circle><path d="M675.49,295.08a8,8,0,1,1-8-8A8,8,0,0,1,675.49,295.08Z" style="fill:#f5f5f5"></path><circle cx="667.45" cy="383.49" r="32.35" transform="translate(-61.57 136.34) rotate(-11.15)" style="fill:#e0e0e0"></circle><path d="M675.49,383.49a8,8,0,1,1-8-8A8,8,0,0,1,675.49,383.49Z" style="fill:#f5f5f5"></path><rect x="201" y="236.35" width="25.6" height="4.97" style="fill:#e0e0e0"></rect><rect x="201" y="221.43" width="25.6" height="4.97" style="fill:#e0e0e0"></rect><rect x="201" y="206.51" width="25.6" height="4.97" style="fill:#e0e0e0"></rect><rect x="237.92" y="236.35" width="25.6" height="4.97" style="fill:#e0e0e0"></rect><rect x="237.92" y="221.43" width="25.6" height="4.97" style="fill:#e0e0e0"></rect><rect x="237.92" y="206.51" width="25.6" height="4.97" style="fill:#e0e0e0"></rect><rect x="237.92" y="191.59" width="25.6" height="4.97" style="fill:#e0e0e0"></rect><rect x="237.92" y="176.68" width="25.6" height="4.97" style="fill:#e0e0e0"></rect><rect x="237.92" y="161.76" width="25.6" height="4.97" style="fill:#e0e0e0"></rect><rect x="237.92" y="146.84" width="25.6" height="4.97" style="fill:#e0e0e0"></rect><rect x="237.92" y="131.92" width="25.6" height="4.97" style="fill:#e0e0e0"></rect><rect x="237.92" y="118.25" width="25.6" height="4.97" style="fill:#e0e0e0"></rect><rect x="237.92" y="103.33" width="25.6" height="4.97" style="fill:#e0e0e0"></rect><rect x="237.92" y="88.41" width="25.6" height="4.97" style="fill:#e0e0e0"></rect><rect x="237.92" y="73.5" width="25.6" height="4.97" style="fill:#e0e0e0"></rect><rect x="274.85" y="236.35" width="25.6" height="4.97" style="fill:#e0e0e0"></rect><rect x="274.85" y="221.43" width="25.6" height="4.97" style="fill:#e0e0e0"></rect><rect x="274.85" y="206.51" width="25.6" height="4.97" style="fill:#e0e0e0"></rect><rect x="274.85" y="191.59" width="25.6" height="4.97" style="fill:#e0e0e0"></rect><rect x="274.85" y="176.68" width="25.6" height="4.97" style="fill:#e0e0e0"></rect><rect x="457.17" y="236.35" width="25.6" height="4.97" style="fill:#e0e0e0"></rect><rect x="457.17" y="221.43" width="25.6" height="4.97" style="fill:#e0e0e0"></rect><rect x="457.17" y="206.51" width="25.6" height="4.97" style="fill:#e0e0e0"></rect><rect x="457.17" y="191.59" width="25.6" height="4.97" style="fill:#e0e0e0"></rect><rect x="457.17" y="176.68" width="25.6" height="4.97" style="fill:#e0e0e0"></rect><rect x="457.17" y="161.76" width="25.6" height="4.97" style="fill:#e0e0e0"></rect><rect x="457.17" y="146.84" width="25.6" height="4.97" style="fill:#e0e0e0"></rect><rect x="457.17" y="131.92" width="25.6" height="4.97" style="fill:#e0e0e0"></rect><rect x="494.1" y="236.35" width="25.6" height="4.97" style="fill:#e0e0e0"></rect><rect x="494.1" y="221.43" width="25.6" height="4.97" style="fill:#e0e0e0"></rect><rect x="494.1" y="206.51" width="25.6" height="4.97" style="fill:#e0e0e0"></rect><rect x="494.1" y="191.59" width="25.6" height="4.97" style="fill:#e0e0e0"></rect><rect x="494.1" y="176.68" width="25.6" height="4.97" style="fill:#e0e0e0"></rect><rect x="494.1" y="161.76" width="25.6" height="4.97" style="fill:#e0e0e0"></rect><rect x="494.1" y="146.84" width="25.6" height="4.97" style="fill:#e0e0e0"></rect><rect x="494.1" y="131.92" width="25.6" height="4.97" style="fill:#e0e0e0"></rect><rect x="494.1" y="118.25" width="25.6" height="4.97" style="fill:#e0e0e0"></rect><rect x="494.1" y="103.33" width="25.6" height="4.97" style="fill:#e0e0e0"></rect><rect x="494.1" y="88.41" width="25.6" height="4.97" style="fill:#e0e0e0"></rect><rect x="494.1" y="73.5" width="25.6" height="4.97" style="fill:#e0e0e0"></rect><rect x="531.03" y="236.35" width="25.6" height="4.97" style="fill:#e0e0e0"></rect><rect x="531.03" y="221.43" width="25.6" height="4.97" style="fill:#e0e0e0"></rect><rect x="531.03" y="206.51" width="25.6" height="4.97" style="fill:#e0e0e0"></rect><rect x="422.58" y="236.35" width="25.6" height="4.97" style="fill:#e0e0e0"></rect><rect x="422.58" y="221.43" width="25.6" height="4.97" style="fill:#e0e0e0"></rect><rect x="422.58" y="206.51" width="25.6" height="4.97" style="fill:#e0e0e0"></rect><rect x="422.58" y="191.59" width="25.6" height="4.97" style="fill:#e0e0e0"></rect><rect x="422.58" y="176.68" width="25.6" height="4.97" style="fill:#e0e0e0"></rect><rect x="311.78" y="236.35" width="25.6" height="4.97" style="fill:#e0e0e0"></rect><rect x="311.78" y="221.43" width="25.6" height="4.97" style="fill:#e0e0e0"></rect><rect x="311.78" y="206.51" width="25.6" height="4.97" style="fill:#e0e0e0"></rect><rect x="311.78" y="191.59" width="25.6" height="4.97" style="fill:#e0e0e0"></rect><rect x="311.78" y="176.68" width="25.6" height="4.97" style="fill:#e0e0e0"></rect><rect x="311.78" y="161.76" width="25.6" height="4.97" style="fill:#e0e0e0"></rect><rect x="311.78" y="146.84" width="25.6" height="4.97" style="fill:#e0e0e0"></rect><rect x="348.71" y="236.35" width="25.6" height="4.97" style="fill:#e0e0e0"></rect><rect x="348.71" y="221.43" width="25.6" height="4.97" style="fill:#e0e0e0"></rect><rect x="348.71" y="206.51" width="25.6" height="4.97" style="fill:#e0e0e0"></rect><rect x="385.64" y="236.35" width="25.6" height="4.97" style="fill:#e0e0e0"></rect><rect x="385.64" y="221.43" width="25.6" height="4.97" style="fill:#e0e0e0"></rect><rect x="385.64" y="206.51" width="25.6" height="4.97" style="fill:#e0e0e0"></rect><rect x="385.64" y="191.59" width="25.6" height="4.97" style="fill:#e0e0e0"></rect><rect x="385.64" y="176.68" width="25.6" height="4.97" style="fill:#e0e0e0"></rect><rect x="385.64" y="161.76" width="25.6" height="4.97" style="fill:#e0e0e0"></rect><rect x="385.64" y="146.84" width="25.6" height="4.97" style="fill:#e0e0e0"></rect><rect x="385.64" y="131.92" width="25.6" height="4.97" style="fill:#e0e0e0"></rect><path d="M94,189.11a4.88,4.88,0,0,1-3.2,6.19,5,5,0,0,1-6.34-3.12,4.88,4.88,0,0,1,3.2-6.19A5,5,0,0,1,94,189.11Z" style="fill:#ebebeb"></path><path d="M92.75,187.79c-.17.24-4.57-2.62-9.23-7s-8.32-7.94-8.15-8.15,4.3,3,8.91,7.37S92.93,187.54,92.75,187.79Z" style="fill:#ebebeb"></path><path d="M82.43,164.67c.29,0,.09,2.76-2,5.3s-4.81,3.32-4.88,3,2.14-1.41,4-3.72S82.11,164.6,82.43,164.67Z" style="fill:#ebebeb"></path><path d="M86,168.39c.29,0,.22,2.73-2,5.06s-5,2.63-5,2.34,2.27-1,4.21-3.08S85.66,168.33,86,168.39Z" style="fill:#ebebeb"></path><path d="M93.9,127.76a9.3,9.3,0,0,1-12.74-2.27,8.81,8.81,0,0,1,2.32-12.44,9.3,9.3,0,0,1,12.74,2.26A8.82,8.82,0,0,1,93.9,127.76Z" style="fill:#e0e0e0"></path><path d="M95.65,125c-.84-.26,1.78-9.4,7.24-19.65S113,87.14,113.78,87.45s-2.62,9.16-8,19.29S96.48,125.27,95.65,125Z" style="fill:#e0e0e0"></path><path d="M137,105.42c0,.73-7.67.63-15.41-4.33a21.06,21.06,0,0,1-7.84-8.42c-1.3-2.75-1-4.74-.6-4.74s1,1.56,2.55,3.66a29.28,29.28,0,0,0,7.65,6.92C130.31,103,137.25,104.47,137,105.42Z" style="fill:#e0e0e0"></path><path d="M117.16,145.73a9.3,9.3,0,0,1-12.74-2.26A8.82,8.82,0,0,1,106.74,131a9.29,9.29,0,0,1,12.73,2.27A8.81,8.81,0,0,1,117.16,145.73Z" style="fill:#e0e0e0"></path><path d="M118.91,143c-.84-.26,1.78-9.41,7.24-19.66s10.13-18.19,10.89-17.89-2.62,9.16-8.06,19.3S119.74,143.24,118.91,143Z" style="fill:#e0e0e0"></path><path d="M134.42,111c.07.8-7.24,1.18-14.67-3.22S109.2,96.93,110,96.6c.78-.5,4.7,4.62,11.43,8.49S134.51,110.06,134.42,111Z" style="fill:#e0e0e0"></path><path d="M142.15,204.73a3.43,3.43,0,0,1-4.64-1.07,3.26,3.26,0,0,1,1.09-4.54,3.42,3.42,0,0,1,4.65,1.07A3.25,3.25,0,0,1,142.15,204.73Z" style="fill:#e0e0e0"></path><path d="M142.85,203.74c-.31-.11.84-3.43,3.05-7.1s4.08-6.5,4.35-6.38-1.14,3.32-3.34,7S143.15,203.86,142.85,203.74Z" style="fill:#e0e0e0"></path><path d="M158.46,197.31c0,.27-2.83.09-5.58-1.88a7.8,7.8,0,0,1-2.72-3.25c-.43-1-.27-1.76-.13-1.75s.32.59.87,1.39a10.5,10.5,0,0,0,2.67,2.69C156,196.29,158.56,197,158.46,197.31Z" style="fill:#e0e0e0"></path><path d="M150.36,211.77a3.41,3.41,0,0,1-4.64-1.07,3.25,3.25,0,0,1,1.09-4.53,3.41,3.41,0,0,1,4.64,1.07A3.25,3.25,0,0,1,150.36,211.77Z" style="fill:#e0e0e0"></path><path d="M151.06,210.79c-.31-.11.84-3.43,3.05-7.1s4.08-6.51,4.35-6.38-1.14,3.32-3.34,6.95S151.36,210.91,151.06,210.79Z" style="fill:#e0e0e0"></path><path d="M157.39,199.3c0,.3-2.69.3-5.33-1.46s-3.68-4.18-3.39-4.28,1.64,1.79,4,3.33S157.44,199,157.39,199.3Z" style="fill:#e0e0e0"></path><path d="M623.53,117.78a5.12,5.12,0,0,1-3.35,6.48,5.29,5.29,0,0,1-6.63-3.27,5.12,5.12,0,0,1,3.35-6.48A5.29,5.29,0,0,1,623.53,117.78Z" style="fill:#ebebeb"></path><path d="M622.26,116.39c-.18.26-4.79-2.73-9.66-7.32s-8.71-8.31-8.53-8.53,4.5,3.13,9.32,7.71S622.44,116.14,622.26,116.39Z" style="fill:#ebebeb"></path><path d="M611.46,92.21c.3,0,.09,2.89-2.12,5.54s-5,3.48-5.1,3.19,2.23-1.47,4.2-3.9S611.12,92.14,611.46,92.21Z" style="fill:#ebebeb"></path><path d="M615.17,96.11c.31,0,.23,2.85-2.12,5.29s-5.26,2.75-5.25,2.44,2.37-1,4.4-3.21S614.84,96,615.17,96.11Z" style="fill:#ebebeb"></path><path d="M644.17,187.07a8.92,8.92,0,0,1-11.86,4,8.72,8.72,0,0,1-4.24-11.67,8.92,8.92,0,0,1,11.86-4A8.71,8.71,0,0,1,644.17,187.07Z" style="fill:#e0e0e0"></path><path d="M644.27,183.9c-.84.17-3.17-8.83-3.67-20.1s-.52-20.21.28-20.3,2.35,9,2.81,20.17S645.11,183.75,644.27,183.9Z" style="fill:#e0e0e0"></path><path d="M669.43,147.92c.34.63-6.15,4.12-15.15,3.52a21.37,21.37,0,0,1-10.8-3.51c-2.47-1.72-3.18-3.57-2.87-3.75s1.59.88,4,1.92a29,29,0,0,0,9.88,2.32C662.55,149,669.13,147,669.43,147.92Z" style="fill:#e0e0e0"></path><path d="M672.72,191.5a8.91,8.91,0,0,1-11.86,4,8.72,8.72,0,0,1-4.24-11.66,8.92,8.92,0,0,1,11.87-4A8.72,8.72,0,0,1,672.72,191.5Z" style="fill:#e0e0e0"></path><path d="M672.83,188.33c-.84.17-3.18-8.83-3.68-20.1s-.52-20.21.28-20.31,2.35,9,2.81,20.18S673.66,188.17,672.83,188.33Z" style="fill:#e0e0e0"></path><path d="M670,153.86c.46.66-5.52,4.39-14,4.12s-14.28-4.28-13.8-4.91c.4-.79,6.26,1.73,13.86,1.88S669.6,153.05,670,153.86Z" style="fill:#e0e0e0"></path></g><g id="background-simple"><path d="M545.16,109.5l-2.22-3.66C524.22,75,490.37,56.39,454.69,58.65A92.84,92.84,0,0,0,441,60.53c-32.44,6.94-60.67,31.48-72.38,62.9-6.88,18.48-8.8,39.76-21.86,54.43-17,19.09-45.86,19.69-71.23,18.9s-54.24-.12-71.16,19.05c-10.59,12-14,29.07-13.1,45.15,2.26,42.56,31.91,80.61,69.63,99.53S343,381.1,384.32,372.78c57.82-11.66,112.81-43.67,145.87-93.11S571.61,162.86,545.16,109.5Z" style="fill:#ebebeb"></path><circle cx="151.22" cy="135.31" r="55.32" style="fill:#ebebeb"></circle><circle cx="638.24" cy="312.06" r="30.18" transform="translate(-71.16 273.49) rotate(-22.94)" style="fill:#ebebeb"></circle></g><g id="Character"><polygon points="311.81 407.03 305.14 433.26 441.9 433.26 441.9 412.49 311.81 407.03" style="fill:#455a64"></polygon><path d="M330.83,319.73,316.44,214.15c7.8-3.55,41.68-12.2,41.68-12.2l49.56-3.21,40.9,13-4.42,112.3.44,89.61c-48.83,15.7-85.9,6.67-121.47-1.24-5.42-1.2-13.19-3.26-13.86-8.4h0a6.83,6.83,0,0,1,1.64-5.48l2.55-2.9,17.37-75.95Z" style="fill:#FF725E"></path><path d="M288.75,242.84s14.46-26.1,27.69-28.69c9.29-1.82,15.08,34.61,15.08,34.61l-13.6,32.88Z" style="fill:#FF725E"></path><g style="opacity:0.30000000000000004"><path d="M352.32,203.46l-21.49,32.2-17.57,40.07c3.21-2.35,6.31-5.22,7.49-9,.46-1.44.61-3,1.07-4.41,1.26-3.9,4.58-6.7,7.13-9.92,7.64-9.64,8.52-23.48,16.64-32.72,1.84-2.09,4-3.88,5.83-6S354.85,205.15,352.32,203.46Z"></path></g><path d="M448.58,211.79s6.66,2,13.15,17.56S485,266.5,485,266.5l-36.42,29.84-10.49-15Z" style="fill:#FF725E"></path><path d="M330.83,319.73a2.61,2.61,0,0,1-.12-.61c-.06-.45-.13-1-.22-1.74-.2-1.59-.47-3.77-.8-6.43-.68-5.43-1.72-12.91-3-21.16s-2.45-15.66-3.31-21.13c-.39-2.65-.72-4.83-.95-6.41-.1-.71-.17-1.29-.23-1.74a2.62,2.62,0,0,1,0-.62,2.51,2.51,0,0,1,.15.6c.08.45.19,1,.33,1.73.27,1.57.65,3.74,1.12,6.38.92,5.4,2.19,12.85,3.46,21.11s2.25,15.75,2.84,21.19c.29,2.72.51,4.93.63,6.46.05.71.09,1.3.13,1.75A2.9,2.9,0,0,1,330.83,319.73Z" style="fill:#263238"></path><path d="M427.18,305.16c.07.12-18,9.59-40.31,21.13S346.38,347.1,346.32,347s18-9.59,40.31-21.14S427.12,305,427.18,305.16Z" style="fill:#263238"></path><path d="M412.43,334.67a4.79,4.79,0,0,1-1.17.24c-.75.11-1.84.29-3.19.53a92.29,92.29,0,0,0-10.37,2.42,95.6,95.6,0,0,0-10,3.64l-3,1.3a4.37,4.37,0,0,1-1.11.44,5.88,5.88,0,0,1,1-.62c.67-.37,1.66-.87,2.9-1.46a72.07,72.07,0,0,1,10-3.79,72.93,72.93,0,0,1,10.46-2.3c1.36-.19,2.46-.31,3.23-.36A5.66,5.66,0,0,1,412.43,334.67Z" style="fill:#263238"></path><path d="M291.43,280.19c.14,0,.26,0,.26.09s-.12.09-.26.09-.27,0-.27-.09S291.28,280.19,291.43,280.19Z" style="fill:#aa6550"></path><path d="M356.2,278.21l-.34-3.26,2.51,3.24c1.51,0,3,0,4.53.06l2.07-4.51.52,4.69a38.1,38.1,0,0,1,5,.8l-1.58-14.53-4.34.46L360.45,274l-6-7.82-4.34.46,1.19,11.26A24.37,24.37,0,0,1,356.2,278.21Z" style="fill:#fff"></path><path d="M372.25,273l-.91-8.62,5.29-.56.89,8.47c.25,2.39,1.26,3.19,2.74,3s2.3-1.15,2.05-3.55l-.89-8.46,5.19-.55.91,8.62c.5,4.7-2,7.71-6.85,8.22S372.75,277.66,372.25,273Z" style="fill:#fff"></path><path d="M389.56,277l1.3-4a10.78,10.78,0,0,0,5.32.89c1.5-.16,2-.53,1.95-1.07-.21-2-8.71.53-9.32-5.31-.31-2.91,1.88-5.54,6.74-6.05a12.35,12.35,0,0,1,6.05.74l-1.18,4a9.69,9.69,0,0,0-4.49-.71c-1.55.17-2,.66-1.94,1.2.2,1.88,8.7-.6,9.31,5.18.3,2.86-1.88,5.54-6.74,6.05A14.06,14.06,0,0,1,389.56,277Z" style="fill:#fff"></path><path d="M403.73,260.93l5.29-.56L410.67,276l-5.29.56Z" style="fill:#fff"></path><path d="M411.77,268c-.51-4.81,2.83-8.58,7.86-9.11a8.52,8.52,0,0,1,7.37,2.39l-3,3.33a4.28,4.28,0,0,0-3.62-1.48,4,4,0,0,0,.83,7.84,4.23,4.23,0,0,0,3.23-2.2l3.65,2.63a8.52,8.52,0,0,1-6.7,3.88C416.33,275.81,412.27,272.82,411.77,268Z" style="fill:#fff"></path><path d="M356.93,278a31.57,31.57,0,0,1-3.35-.22l.54,5.1,4.82-.51-.49-4.28C357.94,278.06,357.46,278.05,356.93,278Z" style="fill:#fff"></path><path d="M371.12,278.77a5.38,5.38,0,0,1-1.08.08l-2.22-.08.3,2.65,4.81-.5-.21-1.94C372.19,278.9,371.65,278.84,371.12,278.77Z" style="fill:#fff"></path><path d="M360.92,278.21c-.24,0-.52-.1-.75-.1l2,2.51,2.33-.24.82-1.79c-1-.08-2-.19-3-.33C361.89,278.2,361.43,278.31,360.92,278.21Z" style="fill:#fff"></path><path d="M401.11,281c0,.15-12.59-.56-28.11-1.58s-28.09-2-28.08-2.11,12.6.57,28.12,1.59S401.12,280.85,401.11,281Z" style="fill:#263238"></path><path d="M423.29,287.21h0c.06-.27-1.81-.67-3.67-1.91a8.06,8.06,0,0,1-2.06-1.9,7,7,0,0,1-.52-.85c0-.16,0-.28,0-.29s-1.45,2.12-2.92,4.92a26.2,26.2,0,0,0-1.49,3.39,2.7,2.7,0,0,0-.31-.64,2.5,2.5,0,1,0,.37,1.93c.49-.89,1.25-2.49,2.19-4.29.45-.87.85-1.69,1.18-2.43a7.09,7.09,0,0,0,6.09,3.72c-.5.87-1.11,2-1.78,3.27a29.3,29.3,0,0,0-1.49,3.39,2.33,2.33,0,0,0-.3-.64,2.49,2.49,0,1,0,.37,1.93c.48-.89,1.25-2.49,2.18-4.29C422.59,289.73,423.52,287.3,423.29,287.21Zm-1,1.33a17.65,17.65,0,0,1-3.25-1.43,22,22,0,0,1-2.89-2.27c.29-.65.51-1.22.66-1.65a2.64,2.64,0,0,0,.19.5,5.72,5.72,0,0,0,2.11,2.32,6.74,6.74,0,0,0,4,1.26A7.36,7.36,0,0,0,422.33,288.54Z" style="fill:#fff"></path><path d="M360.2,241.89h0c-.17-.21-1.68,1-3.82,1.6a7.67,7.67,0,0,1-2.78.36,7.12,7.12,0,0,1-1-.13c-.11-.13-.19-.21-.23-.19-.2.1.69,2.48,1.91,5.4a25,25,0,0,0,1.65,3.32,2.33,2.33,0,0,0-.7-.18,2.5,2.5,0,1,0,1.72,1c-.37-.94-1.11-2.55-1.89-4.42-.38-.91-.75-1.74-1.11-2.47a6.53,6.53,0,0,0,3.74-.25,6.61,6.61,0,0,0,3-2c.35.94.82,2.13,1.37,3.46a28.24,28.24,0,0,0,1.65,3.31,2.49,2.49,0,0,0-.69-.17,2.46,2.46,0,1,0,1.72.94c-.37-.94-1.11-2.54-1.89-4.42C361.68,244.05,360.42,241.78,360.2,241.89Zm.4,1.6a18,18,0,0,1-3.17,1.58,21.52,21.52,0,0,1-3.6.76c-.32-.64-.61-1.17-.84-1.57a2.61,2.61,0,0,0,.5.19,5.77,5.77,0,0,0,3.13-.14,6.72,6.72,0,0,0,3.55-2.29A8.32,8.32,0,0,0,360.6,243.49Z" style="fill:#fff"></path><g style="opacity:0.30000000000000004"><path d="M445.76,249.13l-.46,43.25A58,58,0,0,0,449.66,282C452.61,271.17,449.17,259.78,445.76,249.13Z"></path></g><path d="M445.47,239.36a3,3,0,0,1,.08.7c0,.51.09,1.17.15,2,.12,1.74.25,4.25.36,7.36.22,6.23.3,14.83.1,24.33s-.6,18.1-.92,24.31c-.18,3.07-.32,5.56-.42,7.36-.06.83-.1,1.49-.14,2a3.9,3.9,0,0,1-.08.7,2.89,2.89,0,0,1,0-.7c0-.51,0-1.18,0-2,.06-1.8.15-4.3.25-7.36.22-6.22.56-14.81.77-24.31s.18-18.09.05-24.31c-.08-3.06-.14-5.56-.19-7.36,0-.83,0-1.5-.05-2A3,3,0,0,1,445.47,239.36Z" style="fill:#263238"></path><g style="opacity:0.30000000000000004"><path d="M392.3,323.19c-12.13,6.11-25.55,13.49-37.39,19.8a13,13,0,0,0,10,1.4,36.12,36.12,0,0,0,9.51-4.17c9.69-5.49,23.29-16.35,31.37-24Z"></path></g><path d="M418.76,411.4s-.08.05-.26.11l-.78.26-3,1c-.66.19-1.39.44-2.2.66l-2.67.57-3.07.65c-1.09.23-2.26.33-3.48.51l-3.84.51-4.19.28c-2.89.27-6,.17-9.26.21a158.9,158.9,0,0,1-21.11-1.92,168.3,168.3,0,0,1-37.05-10.29,98.25,98.25,0,0,1-14.29-7.07l.26.11.74.37,2.81,1.46c1.2.68,2.75,1.34,4.52,2.17s3.82,1.69,6.09,2.62a175.62,175.62,0,0,0,37,10.12,163.36,163.36,0,0,0,21,1.95c3.25,0,6.34.09,9.23-.17l4.17-.24,3.83-.47c1.22-.17,2.39-.26,3.47-.48l3.07-.61,2.67-.52c.81-.21,1.54-.44,2.2-.62l3.06-.85.79-.21Z" style="fill:#263238"></path><path d="M352.88,103.82l-2.51-1.95c-1.17-.9-2.53-1.86-4-1.6s-2.45,1.53-3.84,1.51c-1.61,0-2.75-1.78-4.36-1.92s-2.87,1.25-4.37,1c-1.13-.15-2.21-1.18-3.24-.71-.22.1-.4.25-.61.37-1.14.66-2.58,0-3.68-.72s-2.37-1.56-3.64-1.22a6,6,0,0,0-2.12,1.46,2.52,2.52,0,0,1-2.36.74c-.45-.17-.79-.55-1.23-.74-1.41-.6-2.8,1-4.31,1.19s-2.9-.73-4.23-.21a2.45,2.45,0,0,0-1.34,2.78,3.48,3.48,0,0,0,2.21,2.36,6.2,6.2,0,0,0,3.31.16,7.66,7.66,0,0,1,2.72-.32c2.07.36,3.45,3,5.54,2.75a6.89,6.89,0,0,0,2.7-1.44,6.39,6.39,0,0,1,4.22-.91,7.29,7.29,0,0,0,2.89.2c1.15-.34,1.92-1.55,3.1-1.75s2.42.81,3.69.85c.84,0,1.66-.38,2.51-.32,1.19.09,2.18,1.09,3.38,1.13s2.37-.92,3.56-.65a9.11,9.11,0,0,1,1.32.58,1.36,1.36,0,0,0,1.37,0c.3-.25.42-.68.77-.84a1.22,1.22,0,0,1,.82,0l3.9,1Z" style="fill:#263238"></path><path d="M358.88,107.67c-1.05-1.45-2.54-3.07-4.28-2.64-.62.15-1.16.57-1.79.69-1.42.26-2.71-1-4.16-1-1.22,0-2.26.91-3.46,1.16-1.92.4-4.25-.86-5.73.43-.81.69-1.26,2.07-2.32,2a2.38,2.38,0,0,1-1-.45,8.67,8.67,0,0,0-3.66-1.21,3.72,3.72,0,0,0-2.14.31c-1.26.67-1.72,2.33-2.94,3.07-1.84,1.11-4.23-.4-6.33,0a11.16,11.16,0,0,0-2.77,1.32,25.15,25.15,0,0,1-5.55,1.71,10.52,10.52,0,0,0-5.15,2.56c-1.34,1.41-1.89,3.73-.79,5.33a1.9,1.9,0,0,0,2.32.83c.28-.16.49-.42.75-.59a4.19,4.19,0,0,1,1.87-.4c.63-.08,1.35-.37,1.51-1,.1-.39,0-.92.37-1.1a.79.79,0,0,1,.48,0c1.52.28,3.32.89,4.45-.18a9.17,9.17,0,0,0,1.1-1.72,3.37,3.37,0,0,1,2.89-1.45c1,0,2,.5,2.83.12s1.35-1.72,2.3-2.25c1.57-.9,3.79.76,5.27-.29.36-.25.63-.66,1.05-.8,1.18-.42,2,1.4,3.27,1.52,1.07.1,1.77-1,2.69-1.6,1.14-.69,2.59-.43,3.9-.68,1.66-.33,3.11-1.5,4.79-1.55,1.46,0,3,.77,4.29,0,.48-.28.89-.77,1.44-.79a2.11,2.11,0,0,1,.93.29,6.75,6.75,0,0,0,4.68.35Z" style="fill:#263238"></path><path d="M354.39,107.83a12.59,12.59,0,0,0-10.57,1.78,8.14,8.14,0,0,1-2.12,1.29c-1.21.4-2.52,0-3.8,0a7.49,7.49,0,0,0-6.82,4.11c-.78,1.6-1.26,3.75-3,4.15a5.18,5.18,0,0,0-.95.2c-1.21.54-.65,2.34-.83,3.65-.29,2.17-3,3.37-3.34,5.52a5.57,5.57,0,0,0,.3,2.38q.93,3.24,2.11,6.39c.35.94.85,2,1.83,2.24,1.41.35,2.5-1.2,3.09-2.52a4,4,0,0,0,.46-3c-.31-.81-1.12-1.37-1.39-2.19-.44-1.34.68-2.62,1.52-3.76a11.37,11.37,0,0,0,2.14-7.82c1.6-.1,2.6-2.07,4.19-2.18a7.37,7.37,0,0,0,1.33,0c1.1-.27,1.4-1.78,2.4-2.3,1.17-.62,3.07.21,3.69-1,.19-.36.18-.84.47-1.14a1.47,1.47,0,0,1,.88-.31l3.91-.47a4.41,4.41,0,0,0,2.12-.63c1.08-.78,1.45-2.47,2.74-2.8Z" style="fill:#263238"></path><path d="M352.22,113l-3.2.54-8.85,2.34a4.82,4.82,0,0,0-1.41.53,3.06,3.06,0,0,0-1.29,2.57,5.43,5.43,0,0,0,.92,2.82,1.5,1.5,0,0,1,.34.93c-.05.39-.42.65-.73.89-1.52,1.16-2.51,3.3-1.67,5a16.57,16.57,0,0,1,1.31,2.16c.37,1.23-.37,2.49-.78,3.7-.75,2.19-.46,4.57-.15,6.86.1.81.32,1.76,1.08,2a2,2,0,0,0,1.29-.08,4.06,4.06,0,0,0,2.75-2.25c.42-1.23-.14-2.56-.69-3.73,1.14.58,2.54-.55,2.78-1.81a7.47,7.47,0,0,0-.69-3.74,4.8,4.8,0,0,1-.14-3.73c.35-.67,1-1.2,1.11-1.94.18-1.09-.79-2.35-.09-3.2a4.38,4.38,0,0,1,.93-.64,2.1,2.1,0,0,0,.87-2,2,2,0,0,1-.05-1,1.24,1.24,0,0,1,.51-.53c1.27-.83,2.78-1.2,4.06-2S352.74,114.44,352.22,113Z" style="fill:#263238"></path><path d="M359.46,100.82c.11-2.15,0-4.75-1.85-5.84-1.1-.65-2.53-.55-3.61-1.23-2.05-1.31-1.81-4.72-3.85-6s-5.06,0-6.57-1.75c-.78-.92-.73-2.3-1.34-3.34a5.07,5.07,0,0,0-3.65-2,12.72,12.72,0,0,1-4.17-1c-2.12-1.2-3.24-4-5.63-4.5-2-.38-3.86,1.16-5.34,2.59a3,3,0,0,0-.9,1.23,2.29,2.29,0,0,0,1.06,2.33c1.51,1.11,3.63,1.2,5,2.46a14.26,14.26,0,0,0,1.47,1.44c.83.55,1.92.58,2.71,1.17,1.52,1.15,1.16,3.78,2.66,5s3.57.22,5.29.82c2.33.82,3.25,4.17,5.7,4.54,1.09.17,2.17-.34,3.27-.31a3.51,3.51,0,0,1,3.16,2.31c.29.86.24,1.81.6,2.64a3.89,3.89,0,0,0,2.62,2,11.53,11.53,0,0,0,3.42.2Z" style="fill:#263238"></path><path d="M357.39,106.31c-1.58-2.93-3.38-6.07-6.44-7.39-1.53-.66-3.28-.81-4.72-1.67-1.22-.74-2.11-1.93-3.26-2.77-2.67-2-6.32-1.78-9.58-1.19s-6.61,1.5-9.82.71c-2.88-.71-5.41-2.73-8.36-2.87a13.56,13.56,0,0,0-4.72.92l-5.34,1.71a2.46,2.46,0,0,0-1.5.95c-.56,1,.57,2.18,1.65,2.64a9.24,9.24,0,0,0,5.54.55c1.46-.31,2.91-1,4.38-.76a28.08,28.08,0,0,1,2.94,1,10.27,10.27,0,0,0,3.83,0l5.93-.72a7.94,7.94,0,0,1,4.54.33c1.06.54,1.92,1.56,3.11,1.69s2.57-.92,3.89-.72c1.57.23,2.38,2.08,3.82,2.76,1.71.81,3.91-.2,5.56.73,1.11.63,1.61,1.94,2.32,3a7.39,7.39,0,0,0,2.3,2.19,15.13,15.13,0,0,0,3.82,1.42Z" style="fill:#263238"></path><path d="M361.88,97.58c-.62-1.11-1.63-2.3-1.17-3.49.23-.6.79-1,1-1.64.33-1.1-.69-2.1-1-3.21-.35-1.31.33-2.79-.24-4s-2.2-1.66-3.53-2.17a4.68,4.68,0,0,1-3.14-3.12,15.2,15.2,0,0,1,.19-3.15,5.91,5.91,0,0,0-5-5.6,6.17,6.17,0,0,1-2.31-.55c-1.24-.77-1.33-2.51-1.93-3.84a5,5,0,0,0-4.82-2.85c-.95.08-2.08.92-1.63,1.76.18.34.56.52.82.8,1,1,0,2.75.45,4.06s2.43,1.84,2.87,3.23c.34,1.07-.35,2.26,0,3.33.39,1.32,2,1.78,3.34,2s3,.74,3.32,2.07a8.29,8.29,0,0,1,0,1.8,3.47,3.47,0,0,0,1.5,2.67c1.24.82,3.1.92,3.73,2.27.71,1.52-.79,3.37-.18,4.93.45,1.15,1.8,1.6,2.76,2.37a1.19,1.19,0,0,1,.46.67,1.23,1.23,0,0,1-.28.81c-1,1.58-2.29,3.37-1.7,5.15a6.85,6.85,0,0,0,1.22,1.9,14.86,14.86,0,0,1,2.86,6.63l2.2-6.14A6.53,6.53,0,0,0,361.88,97.58Z" style="fill:#263238"></path><path d="M372.54,76.05A4.24,4.24,0,0,0,371.3,71a3.35,3.35,0,0,0-4.83,1.18c-.87,2,.58,4.62-.74,6.35-.36.47-.9.82-1.12,1.37-.55,1.32,1,2.67.87,4.09s-2.26,2.21-2.85,3.67c-.69,1.69.86,3.75,0,5.36a6.85,6.85,0,0,1-1,1.18c-2.14,2.44-1.64,6.15-1,9.33l4.18-.11c-.41-2.95,4-5.32,2.9-8.09-.51-1.33-2.19-2.43-1.62-3.73a2.54,2.54,0,0,1,.74-.86L371.18,87a4,4,0,0,0,1.49-2c.39-1.8-1.74-3.25-1.81-5.09C370.8,78.48,372,77.35,372.54,76.05Z" style="fill:#263238"></path><path d="M370.7,97.93c-.23-1.39-1.93-2-3.34-2-3.88.12-7.06,3-9.85,5.67a81.58,81.58,0,0,0-8.77,9.35,6.88,6.88,0,0,0-1.37,2.48,2.66,2.66,0,0,0,.67,2.63,1.67,1.67,0,0,0,2.47-.27l1.16-.14a55.57,55.57,0,0,1,16.43-14.44C369.4,100.5,370.94,99.41,370.7,97.93Z" style="fill:#FF725E"></path><path d="M357.28,168.67c-3.42-6.85-6.82-13.76-9-21.1s-3.13-15.2-1.56-22.69c.24-1.14,2.57-8.87,3.73-8.93.83,0-.26,7,.26,7.66,4.95,6.18,7.24,14.16,7.78,22.06a103.64,103.64,0,0,1-1.2,23" style="fill:#263238"></path><path d="M406.05,204.3c-.74-5.36-1.31-9.59-1.27-9.6s18.08-4.6,16.56-23c-.74-8.87-3.74-27-6.64-43.42a34.34,34.34,0,0,0-37.08-28.19l-1.77.17c-19,2.93-27.1,20.69-23.64,39.59l10,66.49L388.78,228Z" style="fill:#b78876"></path><path d="M404.78,194.7a44.59,44.59,0,0,1-24.57-4.78s7.1,12.79,25.25,9.39Z" style="fill:#aa6550"></path><path d="M408.93,143.18a2.64,2.64,0,0,1-2.27,2.89,2.52,2.52,0,0,1-2.93-2.11,2.63,2.63,0,0,1,2.27-2.88A2.51,2.51,0,0,1,408.93,143.18Z" style="fill:#263238"></path><path d="M411.5,136.3c-.29.37-2.42-.91-5.24-.64s-4.75,1.89-5.09,1.57c-.16-.14.11-.79.95-1.53a7.2,7.2,0,0,1,4-1.67,6.92,6.92,0,0,1,4.21.92C411.29,135.54,411.65,136.13,411.5,136.3Z" style="fill:#263238"></path><path d="M382.81,146.94a2.63,2.63,0,0,1-2.27,2.88,2.51,2.51,0,0,1-2.93-2.1,2.64,2.64,0,0,1,2.27-2.89A2.52,2.52,0,0,1,382.81,146.94Z" style="fill:#263238"></path><path d="M384,140.07c-.3.37-2.42-.91-5.24-.63s-4.75,1.88-5.09,1.56c-.17-.13.1-.78.94-1.52a7.24,7.24,0,0,1,4-1.68,6.92,6.92,0,0,1,4.21.93C383.78,139.31,384.13,139.9,384,140.07Z" style="fill:#263238"></path><path d="M396.17,160.77c0-.16,1.69-.63,4.5-1.26.71-.14,1.38-.35,1.45-.85a3.65,3.65,0,0,0-.68-2.09l-2.65-5.28c-3.7-7.53-6.46-13.74-6.15-13.89s3.55,5.84,7.25,13.36l2.57,5.32a4.22,4.22,0,0,1,.64,2.79A1.83,1.83,0,0,1,402,160a5.51,5.51,0,0,1-1.21.29C398,160.75,396.19,160.93,396.17,160.77Z" style="fill:#263238"></path><path d="M388.05,163.51c.46-.07.76,3,3.58,4.92s6.06,1.27,6.12,1.7c.06.19-.67.66-2,.83a7.61,7.61,0,0,1-5.09-1.25,6.68,6.68,0,0,1-2.81-4.13C387.57,164.31,387.84,163.52,388.05,163.51Z" style="fill:#263238"></path><path d="M382.74,128.64c-.2.79-3.05.7-6.32,1.41s-5.87,1.87-6.37,1.23c-.23-.31.17-1.08,1.18-1.92a11.27,11.27,0,0,1,9.67-2C382.16,127.72,382.83,128.26,382.74,128.64Z" style="fill:#263238"></path><path d="M409.44,127c-.43.69-2.44.21-4.78.4s-4.27.84-4.79.22c-.23-.31,0-1,.83-1.67a6.93,6.93,0,0,1,7.71-.49C409.3,126.07,409.63,126.7,409.44,127Z" style="fill:#263238"></path><path d="M355,153.33c-.33-.11-13-2.53-11.37,10s13.82,8.32,13.8,8S355,153.33,355,153.33Z" style="fill:#b78876"></path><path d="M353,167c-.06,0-.19.18-.54.4a2.21,2.21,0,0,1-1.63.24c-1.38-.32-2.76-2.28-3.11-4.52a7.35,7.35,0,0,1,.22-3.2,2.52,2.52,0,0,1,1.42-1.88,1.12,1.12,0,0,1,1.36.43c.22.33.17.59.24.6s.24-.24.07-.74a1.41,1.41,0,0,0-.59-.73,1.69,1.69,0,0,0-1.25-.16,3.08,3.08,0,0,0-2,2.23,7.56,7.56,0,0,0-.32,3.58c.41,2.51,2,4.71,3.87,5a2.32,2.32,0,0,0,1.95-.59C353,167.32,353.05,167,353,167Z" style="fill:#aa6550"></path><path d="M403.79,108.71c1.87-1.39-5.09-7.11-10.37-8.68-8-2.38-19.73-2.92-26.38,0-8,3.5-14.38,8.6-17.53,16.76S346,134,347.42,142.62c.44,2.63,1.09,5.35,2.81,7.39,2.12,2.52,5.7,3.81,6.08,7.64a5.2,5.2,0,0,0,1.82,3.63c2.61,2.12,5.1-.54,6.07-3,2.08-5.27,1.59-11.15,1.06-16.79-.37-4-.76-8.1-2.41-11.77-.89-2-2.15-3.84-2.93-5.88a7.59,7.59,0,0,1,0-6.36,8.43,8.43,0,0,1,.88-1.16,13.14,13.14,0,0,1,12.59-4.23c7.37,1.53,19.9,3.61,22.71.79,4-4.05,4.82-6.44,4.82-6.44Z" style="fill:#263238"></path><path d="M386.12,98.16a7.65,7.65,0,0,1,2.41,1.49,19.61,19.61,0,0,1,4.76,5,11.41,11.41,0,0,1,1.87,6.64,4.6,4.6,0,0,1-.8,2.75c-.14,0,.22-1.07.17-2.76a12.44,12.44,0,0,0-2-6.16,25.36,25.36,0,0,0-4.4-5C386.86,99,386.05,98.26,386.12,98.16Z" style="fill:#455a64"></path><path d="M395.61,103c.1,0,.56.48,1,1.52a9.59,9.59,0,0,1-.74,8.51c-.61,1-1.16,1.4-1.24,1.33s1.48-2.33,1.73-5.57S395.37,103.06,395.61,103Z" style="fill:#455a64"></path><g style="opacity:0.30000000000000004"><path d="M433.67,209.51a8.34,8.34,0,0,0-8.53-3.15l-12.06,4.25a45.1,45.1,0,0,0-.26,10.38,15.13,15.13,0,0,0,4.31,9.24c2.54,2.36,6.42,3.43,9.61,2.07a12.61,12.61,0,0,0,5.15-4.84,21.92,21.92,0,0,0,3.8-8.78A12,12,0,0,0,433.67,209.51Z"></path></g><path d="M427.08,205.88c-2.12-2.64-6.25-3-9.44-1.83a11.29,11.29,0,0,0-6.6,7.26,17.29,17.29,0,0,0,.19,10c1.12,3.75,3.55,7.49,7.33,8.54,4,1.11,8.4-1.32,10.52-4.89s2.36-8,1.75-12.1c-.4-2.72-1.35-5.67-3.75-7" style="fill:#455a64"></path><path d="M427.85,226.64s-.07.1-.24.26a4.48,4.48,0,0,1-.81.59,4.54,4.54,0,0,1-3.6.46,9,9,0,0,1-4.41-3.15,15.59,15.59,0,0,1-2.89-6,17.59,17.59,0,0,1-.44-6.62,13.82,13.82,0,0,1,1.7-5.15,10.63,10.63,0,0,1,2.31-2.83,4.19,4.19,0,0,1,1.11-.76,13.71,13.71,0,0,0-3.1,3.77,13.93,13.93,0,0,0-1.55,5,17.91,17.91,0,0,0,.47,6.43,15.75,15.75,0,0,0,2.76,5.81,9,9,0,0,0,4.14,3.1,4.49,4.49,0,0,0,3.41-.29C427.46,226.93,427.82,226.6,427.85,226.64Z" style="fill:#263238"></path><path d="M428.52,199.88c-.5-6.22.63-16.46-7.82-20.28a17.1,17.1,0,0,1-2.2,5.08s3.74,2.21,4.13,4.33,2.21,15,1.82,18.87c-.21,2.18-.5,4.15-.7,5.45a2.19,2.19,0,0,0,1.19,2.29l.06,0a2.18,2.18,0,0,0,3.15-1.77A100.27,100.27,0,0,0,428.52,199.88Z" style="fill:#455a64"></path><path d="M428.65,204.54a10.5,10.5,0,0,1,.07,1.63c0,1.14,0,2.64,0,4.45a14.49,14.49,0,0,1-.29,3.1,4.73,4.73,0,0,1-.71,1.64,2.54,2.54,0,0,1-1.6,1.11,2.24,2.24,0,0,1-1.93-.71,3.13,3.13,0,0,1-.89-1.93,6.9,6.9,0,0,1,.36-2.1,8,8,0,0,0,.24-2c.06-2.84-.13-5.58-.28-8.05s-.35-4.7-.51-6.57-.29-3.3-.39-4.43a10.41,10.41,0,0,1-.1-1.63,9,9,0,0,1,.3,1.6c.16,1,.35,2.55.56,4.42s.42,4.1.62,6.58.38,5.2.32,8.1a8.67,8.67,0,0,1-.26,2.15,7,7,0,0,0-.35,1.94c.08,1.19,1.14,2.38,2.24,2.19a2,2,0,0,0,1.3-.9,4.41,4.41,0,0,0,.66-1.47,14.24,14.24,0,0,0,.34-3c.07-1.81.12-3.3.16-4.44A9.35,9.35,0,0,1,428.65,204.54Z" style="fill:#263238"></path><path d="M345.24,176s-6.25,3.7-3.39,9.36,19.65,16.38,19.65,16.38l-1.26-8.38s-12.5-9.46-13.05-10.88,1.1-2.52,1.1-2.52Z" style="fill:#263238"></path><path d="M289.51,243l-9.64,10.21A60.8,60.8,0,0,0,262.44,275c-1.78,3.79-3.1,7.7-3.1,11,0,10.14-3.38,10.14-1.24,16s8.35,11.39,15.74,10.68,10.92-2.49,16.45-6.58S313.54,275,313.54,275l26.77-53.52-12-12.85-34.8,39.73Z" style="fill:#b78876"></path><path d="M361.35,180.3a3.75,3.75,0,0,1-1.65,5,11.33,11.33,0,0,1-1.47.64c-1.61.53-3.43,1-5,.29a6.26,6.26,0,0,1-2.15-2.16,66.44,66.44,0,0,1-6.78-12.2c-.83-2-1.58-4.14-1-6.18.53-1.78,3-3.68,5.34-4.41a3.23,3.23,0,0,1,3.84,1.61Z" style="fill:#455a64"></path><path d="M325.23,212.27s3.42-3.24,3.56-4.82,0-22.28,0-22.28l3.42-3.59s1.61-9.92,2.19-11.21,11.79-11,11.79-11,2.56.43.76,3.93a22.53,22.53,0,0,1-5.37,6.76l-.71,4,5.6-2.3,10.06,1.3s.58,1.87-1.72,2.59l-5.18.43,9.2,3.3s-.86,4.17-3.59,3.74-9.06.43-9.06.43L341,191.35s4.17,3.45,5.46,2.88a11.65,11.65,0,0,0,2.73-2s.86-6.75,3.16-8.48,3.45,1.48,3.45,1.48l-2.87,14.48s-1.44,8.48-3.88,11.21S337.48,225,337.48,225Z" style="fill:#b78876"></path><path d="M341.26,191a1.76,1.76,0,0,0-.14.92,7.15,7.15,0,0,0,1.05,2.39,8.85,8.85,0,0,0,1,1.5c.42.51.91,1,1.38,1.63a9.77,9.77,0,0,1,1.84,4.59,12.47,12.47,0,0,1-.34,4.93,16.49,16.49,0,0,1-1.53,3.72,19.52,19.52,0,0,1-1.46,2.27,3.1,3.1,0,0,1-.65.75c-.07-.05.77-1.18,1.79-3.19a14.53,14.53,0,0,0,1.67-8.41,9.56,9.56,0,0,0-1.7-4.37c-.44-.59-.92-1.11-1.34-1.65a9.2,9.2,0,0,1-1-1.59,6.53,6.53,0,0,1-.93-2.56C340.89,191.22,341.26,190.94,341.26,191Z" style="fill:#aa6550"></path><path d="M350.62,176.47a6,6,0,0,0-2.85.38,33.22,33.22,0,0,0-6.19,3.46c-2.31,1.56-4.31,3.11-5.77,4.21a18.43,18.43,0,0,1-2.44,1.7,16.06,16.06,0,0,1,2.21-2,71.07,71.07,0,0,1,5.71-4.35,27.51,27.51,0,0,1,6.36-3.38,5.33,5.33,0,0,1,2.19-.27A1.56,1.56,0,0,1,350.62,176.47Z" style="fill:#aa6550"></path><path d="M346.19,159.39s.09,0,.24.09a1.8,1.8,0,0,1,.6.44,2.74,2.74,0,0,1,.42,2.7h0c-.65,2.35-2.74,5.18-5.71,7.67l.1-.17c-.13,1.08-.27,2.2-.41,3.34l-.09.72v.1l-.08.07c-3.39,2.83-6.25,5.59-8.42,7.47-1.08.95-2,1.69-2.6,2.18a5.51,5.51,0,0,1-1,.73,5.66,5.66,0,0,1,.88-.88l2.48-2.3c2.11-1.94,4.93-4.75,8.34-7.6l-.09.16.08-.71c.15-1.15.29-2.26.42-3.34V170l.09-.07c2.91-2.41,5-5.15,5.71-7.36h0a2.61,2.61,0,0,0-.24-2.46C346.51,159.57,346.16,159.44,346.19,159.39Z" style="fill:#aa6550"></path><path d="M293.52,248.37a1.93,1.93,0,0,1-.28.41l-.87,1.12c-.75,1-1.94,2.3-3.43,3.92-3,3.23-7.49,7.33-12.39,11.9s-9,9.06-11.21,12.85a43.11,43.11,0,0,0-3,6.38,1.64,1.64,0,0,1,.11-.49c.12-.36.25-.81.42-1.35a14,14,0,0,1,.84-2.09c.18-.4.36-.83.58-1.27l.78-1.37c2.16-3.88,6.27-8.47,11.18-13s9.42-8.62,12.47-11.77c1.52-1.58,2.75-2.87,3.54-3.8l1-1.06A2.08,2.08,0,0,1,293.52,248.37Z" style="fill:#aa6550"></path><path d="M280.82,300.94a1.79,1.79,0,0,0-.72-1.3c-.42-.63-1.09-1.62-1.8-2.77-.43-.7-.85-1.34-1.21-1.88a2.75,2.75,0,0,0,1.69-.46c1-.63,1.26-1.59,1.15-1.61s-.49.73-1.37,1.28a5,5,0,0,1-1.58.63c-.38-.53-.68-.94-.87-1.16a3.27,3.27,0,0,0,1.76-.68,2.57,2.57,0,0,0,1.18-1.69c-.11-.06-.55.73-1.42,1.37a8.32,8.32,0,0,1-1.63.89c-.05-.06-.09-.09-.11-.08s0,.06,0,.13l0,0,0,0c.21.45,1,1.8,2,3.42a22.63,22.63,0,0,0,1.6,2.28,1.82,1.82,0,0,0-.66-.08,1.78,1.78,0,1,0,1.91,1.66Z" style="fill:#263238"></path><path d="M293.82,275h0c.06-.26-1.81-.67-3.67-1.9a7.68,7.68,0,0,1-2-1.91,6.67,6.67,0,0,1-.53-.84c0-.16,0-.28,0-.3-.21-.08-1.46,2.12-2.93,4.93a28.57,28.57,0,0,0-1.49,3.39,2.36,2.36,0,0,0-.31-.64,2.46,2.46,0,1,0,.38,1.92c.48-.88,1.24-2.48,2.18-4.28.46-.87.85-1.7,1.19-2.44a6.39,6.39,0,0,0,2.58,2.71,6.55,6.55,0,0,0,3.51,1c-.5.87-1.12,2-1.78,3.27a25.06,25.06,0,0,0-1.49,3.39,2.7,2.7,0,0,0-.31-.64,2.49,2.49,0,1,0,.37,1.92c.49-.88,1.25-2.48,2.19-4.28C293.12,277.53,294.06,275.11,293.82,275Zm-1,1.34a18,18,0,0,1-3.25-1.43,22,22,0,0,1-2.89-2.27c.29-.66.52-1.22.67-1.66a2.41,2.41,0,0,0,.18.51,5.79,5.79,0,0,0,2.11,2.32,6.76,6.76,0,0,0,4,1.26A7.36,7.36,0,0,0,292.86,276.35Z" style="fill:#263238"></path><polygon points="271.28 280.68 274.62 279.58 272.79 285.72 275.96 284.59 271.59 293.26 272.95 288.38 269.16 289.78 271.28 280.68" style="fill:#263238"></polygon><polygon points="293.46 288.58 295.34 290.64 290.29 291.32 292.14 293.25 284.42 292.92 288.41 292.3 286.16 290.01 293.46 288.58" style="fill:#263238"></polygon><path d="M450.6,294.69s32,35,32.32,36.95,43.4,46.9,43.4,46.9l13.2-12.61s-21.26-44-27-50.48-33.22-44.24-33.22-44.24Z" style="fill:#b78876"></path><path d="M478.16,282.38a8.56,8.56,0,0,1,.18,1.47c.07.95.15,2.32.18,4a56.19,56.19,0,0,1-.2,6,25.2,25.2,0,0,1-1.78,7.12c-1,2.42-2,4.65-2.83,6.73a27.88,27.88,0,0,0-1.63,5.67,18.4,18.4,0,0,0,0,5.43,1.49,1.49,0,0,1-.13-.37,10.11,10.11,0,0,1-.23-1.07,14.48,14.48,0,0,1,0-4,25.57,25.57,0,0,1,1.56-5.79c.79-2.12,1.85-4.35,2.78-6.75,2.05-4.77,2-9.54,2.1-12.91,0-1.69,0-3.06,0-4A7.73,7.73,0,0,1,478.16,282.38Z" style="fill:#263238"></path><path d="M475.56,296.36a2.72,2.72,0,0,1-.89-.24,10.28,10.28,0,0,1-2.2-1.19,7.48,7.48,0,0,1-2.44-2.82,5.93,5.93,0,0,1-.34-4.56,1.21,1.21,0,0,1,.17-.36.45.45,0,0,1,.34-.14.64.64,0,0,1,.23.06l.55.25a11.37,11.37,0,0,1,1,.6,8.74,8.74,0,0,1,1.65,1.48,9.24,9.24,0,0,1,1.86,3.23,7.77,7.77,0,0,1,.41,2.47,2.5,2.5,0,0,1-.09.92,14.47,14.47,0,0,0-.66-3.27,9.68,9.68,0,0,0-1.87-3,8.48,8.48,0,0,0-1.59-1.37,8.37,8.37,0,0,0-1-.57l-.51-.23s-.06,0-.06,0,0-.09,0,0,0,0,0,.09l-.05.14a5.58,5.58,0,0,0,.28,4.17,7.52,7.52,0,0,0,2.23,2.74A22.52,22.52,0,0,0,475.56,296.36Z" style="fill:#263238"></path><path d="M477.41,302a8.37,8.37,0,0,0,3,.78,6.37,6.37,0,0,0,3.18-.7,4.33,4.33,0,0,0,2.43-2.9,2,2,0,0,0,0-.64l.21.2a9.64,9.64,0,0,0-6.62,1.38,13.08,13.08,0,0,0-2.14,1.88,2.28,2.28,0,0,1,.39-.68,6.55,6.55,0,0,1,1.55-1.5,9.58,9.58,0,0,1,6.9-1.6l.17,0,0,.17a2.3,2.3,0,0,1,0,.83,3.75,3.75,0,0,1-1.05,2,5.76,5.76,0,0,1-1.68,1.23,6.59,6.59,0,0,1-3.42.64,5.65,5.65,0,0,1-2.24-.65A2,2,0,0,1,477.41,302Z" style="fill:#263238"></path><path d="M471.14,310.87a3.9,3.9,0,0,1,0-1.05,24.61,24.61,0,0,0,0-2.84,9.43,9.43,0,0,0-1.1-4,24,24,0,0,0-3-4.16l.45-.1a2.33,2.33,0,0,1-.07.25,14.06,14.06,0,0,0-.77,5.12,7.93,7.93,0,0,0,1.49,3.88,10.14,10.14,0,0,0,2.93,2.58,3,3,0,0,1-1-.41,7.76,7.76,0,0,1-2.23-1.94,8,8,0,0,1-1.67-4.06,13.85,13.85,0,0,1,.74-5.31c0-.09.05-.17.07-.25l.14-.47.31.37a23.33,23.33,0,0,1,3.05,4.28,9.11,9.11,0,0,1,1,4.17,17.15,17.15,0,0,1-.2,2.87A4.37,4.37,0,0,1,471.14,310.87Z" style="fill:#263238"></path><path d="M472.88,316.1s.06,0,.2.08a3,3,0,0,0,.63.11,3.68,3.68,0,0,0,1-.05c.4-.05.86-.11,1.35-.2a7.64,7.64,0,0,0,3.2-1.34,4.66,4.66,0,0,0,1.3-1.51,5.5,5.5,0,0,0,.52-2.1l0-.44.33.27c-1.51.42-3,.43-4.18.78a5.51,5.51,0,0,0-2.79,1.73,12.6,12.6,0,0,0-1.61,2.67,2.1,2.1,0,0,1,.19-.84,7.17,7.17,0,0,1,1.14-2.06,5.79,5.79,0,0,1,2.94-2c1.29-.39,2.75-.42,4.16-.82l.36-.11,0,.37,0,.45a5.63,5.63,0,0,1-.59,2.29,5.07,5.07,0,0,1-1.46,1.67,7.7,7.7,0,0,1-3.43,1.31,12.85,12.85,0,0,1-1.39.13,3.67,3.67,0,0,1-1.07,0C473.11,316.39,472.81,316.15,472.88,316.1Z" style="fill:#263238"></path><path d="M480.17,306.81c-.09,0-.07-.56-.68-1a1.23,1.23,0,0,0-1.15-.13,1.18,1.18,0,0,0-.76,1.11,1.2,1.2,0,0,0,.76,1.12,1.23,1.23,0,0,0,1.15-.13c.61-.42.59-1,.68-1s.08.13.05.38a1.38,1.38,0,0,1-.5.9,1.6,1.6,0,0,1-1.55.29,1.65,1.65,0,0,1,0-3.13,1.6,1.6,0,0,1,1.55.28,1.4,1.4,0,0,1,.5.91C480.25,306.69,480.2,306.81,480.17,306.81Z" style="fill:#263238"></path><path d="M474.2,299.59c-.09,0-.07-.56-.68-1a1.24,1.24,0,0,0-1.15-.12,1.19,1.19,0,0,0,0,2.22,1.24,1.24,0,0,0,1.15-.12c.61-.43.59-1,.68-1s.08.13.05.37a1.4,1.4,0,0,1-.5.91,1.62,1.62,0,0,1-1.55.29,1.66,1.66,0,0,1,0-3.14,1.62,1.62,0,0,1,1.55.29,1.4,1.4,0,0,1,.5.91C474.28,299.46,474.23,299.59,474.2,299.59Z" style="fill:#263238"></path><path d="M485.4,293.53s0-.22-.17-.58a2.48,2.48,0,0,0-.92-1.25,2.27,2.27,0,1,0,0,3.66,2.48,2.48,0,0,0,.92-1.25c.12-.36.13-.58.17-.58s.09.22,0,.63a2.41,2.41,0,0,1-.89,1.49,2.62,2.62,0,0,1-2.54.44,2.71,2.71,0,0,1,0-5.12,2.62,2.62,0,0,1,2.54.44,2.41,2.41,0,0,1,.89,1.49C485.49,293.31,485.43,293.53,485.4,293.53Z" style="fill:#263238"></path><path d="M478.41,290.1a8.67,8.67,0,0,1,.67-.77,6.9,6.9,0,0,0,1.27-2.41,6.32,6.32,0,0,0-.11-3.95,12.41,12.41,0,0,0-2.72-4.14l.41,0-.07.11a13.74,13.74,0,0,0-1.87,4.66,13.56,13.56,0,0,0-.26,2.19,4.17,4.17,0,0,0,1.81,4c.5.44.79.68.76.71a3.81,3.81,0,0,1-.89-.55,5,5,0,0,1-1.85-2.2,5.19,5.19,0,0,1-.26-2,13.18,13.18,0,0,1,.22-2.27,13.53,13.53,0,0,1,1.9-4.85l.07-.12.18-.28.23.25a12.18,12.18,0,0,1,2.79,4.34,6.47,6.47,0,0,1,0,4.22,6.29,6.29,0,0,1-1.47,2.42A2.65,2.65,0,0,1,478.41,290.1Z" style="fill:#263238"></path><path d="M484.09,299.88a31.37,31.37,0,0,1-3.5,1,32.33,32.33,0,0,1-3.47,1.13,8.34,8.34,0,0,1,3.32-1.63A8.18,8.18,0,0,1,484.09,299.88Z" style="fill:#263238"></path><path d="M475.94,296.28c-.14,0-.72-1.33-1.82-2.8a15.37,15.37,0,0,1-1.93-2.76,8.8,8.8,0,0,1,2.36,2.45A5.86,5.86,0,0,1,475.94,296.28Z" style="fill:#263238"></path><path d="M468.53,304.15c.13,0,.58,1.48,1.39,3.27a13,13,0,0,1,1.22,3.36,12.14,12.14,0,0,1-1.7-3.16A7.33,7.33,0,0,1,468.53,304.15Z" style="fill:#263238"></path><path d="M478.3,313.24a5.42,5.42,0,0,1-2.43,1.94,5.28,5.28,0,0,1-3,.78c0-.14,1.29-.49,2.77-1.25S478.2,313.12,478.3,313.24Z" style="fill:#263238"></path><path d="M483.9,321.12a10.1,10.1,0,0,1,1.38.53c.87.37,2.14.9,3.71,1.52,3.16,1.18,7.57,3,12.76,2.87,2.58,0,5-.11,7.3-.06a26,26,0,0,1,5.95.72,14.18,14.18,0,0,1,3.75,1.51,8,8,0,0,1,.91.62c.2.15.3.24.29.25a18,18,0,0,0-5-2,27,27,0,0,0-5.87-.6c-2.23,0-4.69.13-7.3.11a25,25,0,0,1-7.27-1,55.16,55.16,0,0,1-5.61-2c-1.57-.66-2.82-1.25-3.67-1.67A7.47,7.47,0,0,1,483.9,321.12Z" style="fill:#263238"></path><path d="M497.84,323.93a24.83,24.83,0,0,0-.53-3.3,7.52,7.52,0,0,0-1.7-3.09,5.59,5.59,0,0,0-3.77-1.82h-.2c.06,0,.05-.1.05,0l0,.56a6.48,6.48,0,0,0,.16,1.1,8.33,8.33,0,0,0,.68,2,9.56,9.56,0,0,0,2.12,2.87,13.85,13.85,0,0,0,2.77,1.83,2.38,2.38,0,0,1-.88-.25,8,8,0,0,1-2.14-1.31,9.19,9.19,0,0,1-2.3-2.93,8.48,8.48,0,0,1-.75-2.09,8.76,8.76,0,0,1-.18-1.16l0-.61a.78.78,0,0,1,0-.24.43.43,0,0,1,.26-.25,1.18,1.18,0,0,1,.39,0,5.92,5.92,0,0,1,4.11,2,7.72,7.72,0,0,1,1.71,3.32,9.8,9.8,0,0,1,.27,2.49A2.58,2.58,0,0,1,497.84,323.93Z" style="fill:#263238"></path><path d="M502.4,327.77a1.82,1.82,0,0,1,.21.83,5.91,5.91,0,0,1-.24,2.33,6.52,6.52,0,0,1-1.87,2.93,6,6,0,0,1-1.77,1.1,3.73,3.73,0,0,1-2.28.21,2.43,2.43,0,0,1-.75-.34l-.14-.1,0-.17a9.58,9.58,0,0,1,4.06-5.81,6.5,6.5,0,0,1,2-.87,2.24,2.24,0,0,1,.77-.11,12.68,12.68,0,0,0-2.54,1.28,9.66,9.66,0,0,0-3.75,5.62l-.11-.27a1.88,1.88,0,0,0,.59.27,4.36,4.36,0,0,0,3.59-1.17,6.63,6.63,0,0,0,1.85-2.69A8.39,8.39,0,0,0,502.4,327.77Z" style="fill:#263238"></path><path d="M513,325.25a3.77,3.77,0,0,1-1-.18,18.52,18.52,0,0,1-2.74-.89,9.28,9.28,0,0,1-3.47-2.52,23,23,0,0,1-2.83-4.43l-.23-.43.48.05.27,0a14,14,0,0,1,5.2,1.29,8.06,8.06,0,0,1,3.14,3.07,7.79,7.79,0,0,1,1,2.79,3.23,3.23,0,0,1,0,1.08,10.39,10.39,0,0,0-1.3-3.68,7.8,7.8,0,0,0-3.05-2.83,13.78,13.78,0,0,0-5-1.2l-.26,0,.26-.38a24.27,24.27,0,0,0,2.73,4.36,9.27,9.27,0,0,0,3.26,2.5,23.45,23.45,0,0,0,2.65,1A5.28,5.28,0,0,1,513,325.25Z" style="fill:#263238"></path><path d="M517.15,328.82c.07-.05.19.33.06.9a3.81,3.81,0,0,1-.36,1c-.17.37-.38.79-.64,1.24a7.65,7.65,0,0,1-2.5,2.69,5,5,0,0,1-2.09.73,5.72,5.72,0,0,1-2.35-.31l-.43-.14-.34-.12.23-.29c.9-1.16,1.48-2.5,2.32-3.55a5.71,5.71,0,0,1,2.91-2,6.63,6.63,0,0,1,2.34-.29,2.32,2.32,0,0,1,.85.13,12.93,12.93,0,0,0-3.08.5,5.54,5.54,0,0,0-2.65,1.94c-.77,1-1.33,2.34-2.29,3.58l-.11-.4.41.14a5.37,5.37,0,0,0,2.14.3,4.82,4.82,0,0,0,1.89-.64,7.58,7.58,0,0,0,2.43-2.47c.28-.42.5-.82.7-1.18a4.19,4.19,0,0,0,.42-.92,3.37,3.37,0,0,0,.14-.63C517.17,328.89,517.13,328.84,517.15,328.82Z" style="fill:#263238"></path><path d="M505.81,332.12s-.15,0-.37-.09a1.47,1.47,0,0,1-.65-.81,1.62,1.62,0,0,1,.31-1.54,1.66,1.66,0,0,1,2.91,1.17,1.61,1.61,0,0,1-.84,1.33,1.48,1.48,0,0,1-1,.13c-.24-.07-.34-.17-.33-.19s.55.14,1.17-.26a1.25,1.25,0,0,0,.55-1,1.21,1.21,0,0,0-.75-1.12,1.2,1.2,0,0,0-1.32.29,1.26,1.26,0,0,0-.31,1.12C505.31,331.84,505.86,332,505.81,332.12Z" style="fill:#263238"></path><path d="M501.34,323.88s-.15,0-.36-.09a1.44,1.44,0,0,1-.66-.81,1.62,1.62,0,0,1,.31-1.54,1.66,1.66,0,0,1,2.91,1.17,1.61,1.61,0,0,1-.84,1.33,1.48,1.48,0,0,1-1,.13c-.24-.07-.34-.16-.33-.19s.55.14,1.17-.26a1.25,1.25,0,0,0,.55-1,1.2,1.2,0,0,0-2.07-.84,1.26,1.26,0,0,0-.31,1.12C500.84,323.6,501.39,323.81,501.34,323.88Z" style="fill:#263238"></path><path d="M491.53,332s-.24,0-.59-.22a2.47,2.47,0,0,1-1.05-1.38,2.67,2.67,0,0,1,.54-2.53,2.72,2.72,0,0,1,4.76,1.92,2.66,2.66,0,0,1-1.36,2.19,2.48,2.48,0,0,1-1.72.27c-.4-.09-.59-.23-.58-.25s.23,0,.61.05a2.43,2.43,0,0,0,1.5-.38,2.34,2.34,0,0,0,1.07-1.9,2.26,2.26,0,0,0-3.92-1.58,2.34,2.34,0,0,0-.55,2.11,2.52,2.52,0,0,0,.82,1.32C491.35,331.87,491.55,332,491.53,332Z" style="fill:#263238"></path><path d="M491,324.24a2.61,2.61,0,0,1-.9.52,6.33,6.33,0,0,1-2.8.46,6.53,6.53,0,0,1-3.91-1.58,12.52,12.52,0,0,1-3-4.21l-.14-.31.33-.06.14,0a14,14,0,0,1,5.21.05,13.39,13.39,0,0,1,2.19.65,5.15,5.15,0,0,1,1.75,1,5.06,5.06,0,0,1,1.35,2.54,3,3,0,0,1,.17,1,5.11,5.11,0,0,1-.36-1,5.37,5.37,0,0,0-1.4-2.33,5.15,5.15,0,0,0-1.67-.86,13.92,13.92,0,0,0-2.12-.57,13.69,13.69,0,0,0-5,0l-.13,0,.18-.37a12.45,12.45,0,0,0,2.83,4.08,6.28,6.28,0,0,0,3.62,1.57,7,7,0,0,0,2.71-.28A7.38,7.38,0,0,1,491,324.24Z" style="fill:#263238"></path><path d="M497.91,333.17a12,12,0,0,1,4.62-5.66,33.94,33.94,0,0,1-2.35,2.8A32.16,32.16,0,0,1,497.91,333.17Z" style="fill:#263238"></path><path d="M497.62,324.25a5.79,5.79,0,0,1-2.36-2.45,8.53,8.53,0,0,1-1.39-3.09,15.4,15.4,0,0,1,1.83,2.82C496.65,323.1,497.71,324.14,497.62,324.25Z" style="fill:#263238"></path><path d="M507.69,320.32a7.56,7.56,0,0,1,2.88,2.15,12.2,12.2,0,0,1,2.29,2.75,12.64,12.64,0,0,1-2.66-2.39C508.85,321.42,507.62,320.44,507.69,320.32Z" style="fill:#263238"></path><path d="M512.47,332.78c-.07-.14,1.12-.81,2.36-1.91s2.07-2.19,2.2-2.11a5.47,5.47,0,0,1-1.86,2.5A5.31,5.31,0,0,1,512.47,332.78Z" style="fill:#263238"></path><path d="M521.57,371.76s2.3,11.48,8.6,13.66,7.23,1.39,7.23,1.39,11.64,8.07,12.26,8.07,3.88-.77,2.17-3.56-6.05-9-6.05-9a7.24,7.24,0,0,1,3.73,1c2.17,1.17,9,6.29,9,6.29s.93,15.52,5.59,16.76h1.55v-11s1.86,7.61,7.29,6.83l1.24-.93-3.72-9.31s4,2.63,5.9,1.7a10.53,10.53,0,0,0,2.95-2.17l-17.85-10.86-6.68-7.92-16.29-8.53Z" style="fill:#b78876"></path><path d="M561.46,380.61a8,8,0,0,1,1.27,1.95,27.67,27.67,0,0,1,2.15,5.21,21.37,21.37,0,0,1,.92,5.56,6.92,6.92,0,0,1-.19,2.33,22.28,22.28,0,0,1-.17-2.31,28.15,28.15,0,0,0-1.06-5.44A69.42,69.42,0,0,0,561.46,380.61Z" style="fill:#aa6550"></path><path d="M561.44,380.87a6.74,6.74,0,0,1,2,1c.59.38,1.27.86,2,1.42a19.28,19.28,0,0,1,2.33,1.94,11.76,11.76,0,0,1,2.25,5,10,10,0,0,1,.5,2.21,10.2,10.2,0,0,1-.85-2.1c-.48-1.27-.91-3.25-2.28-4.77a25.31,25.31,0,0,0-2.24-1.91c-.72-.58-1.37-1.09-1.92-1.5A19.86,19.86,0,0,1,561.44,380.87Z" style="fill:#aa6550"></path><path d="M537.17,374.39a15.78,15.78,0,0,1,9,8.24,43.2,43.2,0,0,0-4-4.64A42.32,42.32,0,0,0,537.17,374.39Z" style="fill:#aa6550"></path></g><g id="Turntable"><path d="M707.41,433.26c0,.14-150.63.26-336.39.26s-336.43-.12-336.43-.26S185.19,433,371,433,707.41,433.12,707.41,433.26Z" style="fill:#263238"></path><rect x="564.52" y="401.32" width="5.93" height="13.75" style="fill:#263238"></rect><rect x="493.47" y="398.08" width="19.92" height="16.99" style="fill:#263238"></rect><polygon points="513.39 400.17 528.28 399.58 558.35 403.59 558.35 405.62 527.98 402.12 513.39 402.6 513.39 400.17" style="fill:#263238"></polygon><rect x="479.08" y="415.07" width="155.72" height="17.89" style="fill:#263238"></rect><rect x="519.08" y="407.79" width="100.71" height="3.77" style="fill:#455a64"></rect><path d="M556.1,407.79c-.15,0-.26-.79-.26-1.76s.11-1.76.26-1.76.26.79.26,1.76S556.24,407.79,556.1,407.79Z" style="fill:#263238"></path><path d="M634.24,415.22c0,.15-34.62.26-77.31.26s-77.32-.11-77.32-.26,34.61-.26,77.32-.26S634.24,415.08,634.24,415.22Z" style="fill:#455a64"></path><rect x="188.19" y="401.32" width="5.93" height="13.75" transform="translate(382.31 816.39) rotate(180)" style="fill:#263238"></rect><rect x="245.25" y="398.08" width="19.92" height="16.99" transform="translate(510.42 813.15) rotate(180)" style="fill:#263238"></rect><polygon points="245.25 400.17 230.37 399.58 200.29 403.59 200.29 405.62 230.66 402.12 245.25 402.6 245.25 400.17" style="fill:#263238"></polygon><rect x="123.84" y="415.07" width="155.72" height="17.89" transform="translate(403.4 848.03) rotate(180)" style="fill:#263238"></rect><rect x="138.84" y="407.79" width="100.71" height="3.77" transform="translate(378.4 819.36) rotate(180)" style="fill:#455a64"></rect><path d="M202.55,407.79c-.15,0-.26-.79-.26-1.76s.11-1.76.26-1.76.26.79.26,1.76S202.69,407.79,202.55,407.79Z" style="fill:#263238"></path><path d="M124.4,415.22c0-.14,34.62-.26,77.31-.26s77.33.12,77.33.26-34.62.26-77.33.26S124.4,415.37,124.4,415.22Z" style="fill:#455a64"></path><rect x="316.15" y="414.1" width="123.95" height="19.16" style="fill:#263238"></rect><rect x="357.83" y="408.08" width="9.77" height="6.02" style="fill:#455a64"></rect><rect x="360.81" y="402.84" width="4.33" height="5.24" style="fill:#263238"></rect><path d="M359.35,414.07a17.27,17.27,0,0,1,0-6,17.27,17.27,0,0,1,0,6Z" style="fill:#263238"></path><path d="M361.66,414.07a17.27,17.27,0,0,1,0-6,17.27,17.27,0,0,1,0,6Z" style="fill:#263238"></path><path d="M364,414.07a17.27,17.27,0,0,1,0-6,17.27,17.27,0,0,1,0,6Z" style="fill:#263238"></path><path d="M366.28,414.07a17.27,17.27,0,0,1,0-6,17.27,17.27,0,0,1,0,6Z" style="fill:#263238"></path><rect x="370.48" y="408.08" width="9.77" height="6.02" style="fill:#455a64"></rect><rect x="373.46" y="402.84" width="4.33" height="5.24" style="fill:#263238"></rect><path d="M372,414.07a17.27,17.27,0,0,1,0-6,17.27,17.27,0,0,1,0,6Z" style="fill:#263238"></path><path d="M374.31,414.07a17.27,17.27,0,0,1,0-6,17.27,17.27,0,0,1,0,6Z" style="fill:#263238"></path><path d="M376.62,414.07a17.27,17.27,0,0,1,0-6,17.27,17.27,0,0,1,0,6Z" style="fill:#263238"></path><path d="M378.93,414.07a16.64,16.64,0,0,1,0-6,17.27,17.27,0,0,1,0,6Z" style="fill:#263238"></path><rect x="383.12" y="408.08" width="9.77" height="6.02" style="fill:#455a64"></rect><rect x="386.1" y="402.84" width="4.33" height="5.24" style="fill:#263238"></rect><path d="M384.64,414.07a17.27,17.27,0,0,1,0-6,17.27,17.27,0,0,1,0,6Z" style="fill:#263238"></path><path d="M387,414.07a17.27,17.27,0,0,1,0-6,17.27,17.27,0,0,1,0,6Z" style="fill:#263238"></path><path d="M389.26,414.07a17.27,17.27,0,0,1,0-6,17.27,17.27,0,0,1,0,6Z" style="fill:#263238"></path><path d="M391.57,414.07a17.27,17.27,0,0,1,0-6,17.27,17.27,0,0,1,0,6Z" style="fill:#263238"></path><rect x="395.77" y="408.08" width="9.77" height="6.02" style="fill:#455a64"></rect><rect x="398.75" y="402.84" width="4.33" height="5.24" style="fill:#263238"></rect><path d="M397.29,414.07a17.27,17.27,0,0,1,0-6,17.27,17.27,0,0,1,0,6Z" style="fill:#263238"></path><path d="M399.6,414.07a17.27,17.27,0,0,1,0-6,17.27,17.27,0,0,1,0,6Z" style="fill:#263238"></path><path d="M401.91,414.07a17.27,17.27,0,0,1,0-6,17.27,17.27,0,0,1,0,6Z" style="fill:#263238"></path><path d="M404.22,414.07a17.27,17.27,0,0,1,0-6,17.27,17.27,0,0,1,0,6Z" style="fill:#263238"></path><rect x="408.42" y="408.08" width="9.77" height="6.02" style="fill:#455a64"></rect><rect x="411.4" y="402.84" width="4.33" height="5.24" style="fill:#263238"></rect><path d="M409.94,414.07a17.27,17.27,0,0,1,0-6,17.27,17.27,0,0,1,0,6Z" style="fill:#263238"></path><path d="M412.25,414.07a17.27,17.27,0,0,1,0-6,17.27,17.27,0,0,1,0,6Z" style="fill:#263238"></path><path d="M414.56,414.07a17.27,17.27,0,0,1,0-6,17.27,17.27,0,0,1,0,6Z" style="fill:#263238"></path><path d="M416.87,414.07a17.27,17.27,0,0,1,0-6,17.27,17.27,0,0,1,0,6Z" style="fill:#263238"></path><rect x="421.07" y="408.08" width="9.77" height="6.02" style="fill:#455a64"></rect><rect x="424.05" y="402.84" width="4.33" height="5.24" style="fill:#263238"></rect><path d="M422.59,414.07a17.27,17.27,0,0,1,0-6,17.27,17.27,0,0,1,0,6Z" style="fill:#263238"></path><path d="M424.9,414.07a16.64,16.64,0,0,1,0-6,17.27,17.27,0,0,1,0,6Z" style="fill:#263238"></path><path d="M427.2,414.07a17.27,17.27,0,0,1,0-6,17.27,17.27,0,0,1,0,6Z" style="fill:#263238"></path><path d="M429.51,414.07a17.27,17.27,0,0,1,0-6,17.27,17.27,0,0,1,0,6Z" style="fill:#263238"></path><path d="M323.56,407.09h.27a.72.72,0,0,1,.72.72v6.28a0,0,0,0,1,0,0h-1.72a0,0,0,0,1,0,0v-6.28A.72.72,0,0,1,323.56,407.09Z" style="fill:#455a64"></path><path d="M334.21,407.09h.27a.72.72,0,0,1,.72.72v6.28a0,0,0,0,1,0,0h-1.72a0,0,0,0,1,0,0v-6.28A.72.72,0,0,1,334.21,407.09Z" style="fill:#455a64"></path><path d="M344.87,407.09h.27a.72.72,0,0,1,.72.72v6.28a0,0,0,0,1,0,0h-1.72a0,0,0,0,1,0,0v-6.28A.72.72,0,0,1,344.87,407.09Z" style="fill:#455a64"></path><path d="M329,410.87h.27a.72.72,0,0,1,.72.72v2.5a0,0,0,0,1,0,0h-1.72a0,0,0,0,1,0,0v-2.5A.72.72,0,0,1,329,410.87Z" style="fill:#455a64"></path><rect x="322.83" y="419.17" width="10.23" height="10.23" style="fill:#455a64"></rect><path d="M325.69,422.39l-.2.14-.61.39c-.53.35-1.34.81-2.41,1.37a40.33,40.33,0,0,1-24.65,4,21.46,21.46,0,0,1-8.38-3.13,13.5,13.5,0,0,1-3.48-3.27,11.29,11.29,0,0,1-1.74-9.47,8.37,8.37,0,0,1,2.53-4.07,6.3,6.3,0,0,1,4.35-1.59,4.89,4.89,0,0,1,3.77,2.32,6.37,6.37,0,0,1,1,4.1,9.6,9.6,0,0,1-1.21,3.79,13.91,13.91,0,0,1-2.19,3,15.17,15.17,0,0,1-2.56,2.24,17.39,17.39,0,0,1-9.59,3.2,12.53,12.53,0,0,1-3.72-.38,26.2,26.2,0,0,0,3.71.18,17.53,17.53,0,0,0,9.38-3.3,15.07,15.07,0,0,0,2.49-2.21,14,14,0,0,0,2.1-2.92,9.26,9.26,0,0,0,1.14-3.62,5.9,5.9,0,0,0-.95-3.8,4.42,4.42,0,0,0-3.4-2.08,5.83,5.83,0,0,0-4,1.48,7.82,7.82,0,0,0-2.36,3.82,10.84,10.84,0,0,0,1.66,9,13,13,0,0,0,3.34,3.16,21.21,21.21,0,0,0,8.18,3.08,40.17,40.17,0,0,0,14.92-.39,42.11,42.11,0,0,0,9.56-3.29c1.08-.53,1.9-1,2.45-1.28l.63-.34C325.61,422.41,325.68,422.38,325.69,422.39Z" style="fill:#263238"></path><path d="M486.48,427.16a2.77,2.77,0,0,1-.32-.12c-.22-.07-.53-.21-1-.36a28.41,28.41,0,0,0-3.73-1.15,23.76,23.76,0,0,0-6.11-.65,16,16,0,0,0-7.74,2.15,13.6,13.6,0,0,0-6.06,7.43,9.46,9.46,0,0,0-.11,5.33,5.1,5.1,0,0,0,1.44,2.33,3.67,3.67,0,0,0,2.57.91,5.6,5.6,0,0,0,4.6-3.24,8.24,8.24,0,0,0-.17-6.09,17.15,17.15,0,0,0-3.55-5.48,15.72,15.72,0,0,0-5.5-3.85,11.59,11.59,0,0,0-6.59-.73,10.85,10.85,0,0,0-5.7,2.95,7.88,7.88,0,0,0-2.38,5.6,8.59,8.59,0,0,0,2,5.52,6.2,6.2,0,0,0,5,2.26,4.29,4.29,0,0,0,2.47-.89,3.32,3.32,0,0,0,1.14-2.22,10.13,10.13,0,0,0-.09-2.58c-.11-.85-.22-1.69-.37-2.5a12,12,0,0,0-1.55-4.4,7.79,7.79,0,0,0-3.15-2.77,10.76,10.76,0,0,0-3.66-1,16.25,16.25,0,0,0-6.06.73c-1.63.49-2.85,1-3.69,1.3l-.95.36-.33.11.31-.16.93-.41c.83-.35,2-.87,3.67-1.39a16.18,16.18,0,0,1,6.15-.83,10.88,10.88,0,0,1,3.78,1,8.13,8.13,0,0,1,3.31,2.86,12.59,12.59,0,0,1,1.64,4.53c.15.82.27,1.66.38,2.52a10.35,10.35,0,0,1,.11,2.68,3.74,3.74,0,0,1-1.29,2.51,4.71,4.71,0,0,1-2.73,1,6.69,6.69,0,0,1-5.36-2.41,9.06,9.06,0,0,1-2.15-5.83,8.37,8.37,0,0,1,2.52-6,11.3,11.3,0,0,1,6-3.1,12.07,12.07,0,0,1,6.88.76,16.41,16.41,0,0,1,5.68,4,17.42,17.42,0,0,1,3.64,5.66,8.63,8.63,0,0,1,.15,6.47,6.06,6.06,0,0,1-5,3.52,4.16,4.16,0,0,1-2.9-1,5.47,5.47,0,0,1-1.56-2.54,8,8,0,0,1-.34-2.86,10.84,10.84,0,0,1,.47-2.74,13.92,13.92,0,0,1,6.28-7.61,16.22,16.22,0,0,1,7.92-2.13,22.85,22.85,0,0,1,6.17.75,25.13,25.13,0,0,1,3.72,1.24c.42.17.73.32.94.41A1.2,1.2,0,0,1,486.48,427.16Z" style="fill:#263238"></path></g></svg>