<svg xmlns="http://www.w3.org/2000/svg" viewBox="0 0 500 500"><g id="background-complete"><path d="M394.82,402.62A20.72,20.72,0,0,1,407.66,401c2.34.37,4.77,1.06,6.36,2.81s1.91,4.82.09,6.33a6.07,6.07,0,0,1-4,1c-3.4,0-7.17-.61-9.88,1.44-1.54,1.18-2.56,3.12-4.41,3.7a4.38,4.38,0,0,1-4.83-2.12,7.52,7.52,0,0,1-.56-5.52A8.42,8.42,0,0,1,394.82,402.62Z" style="fill:#ebebeb"></path><path d="M385.79,385.37c2.41,3.41,7,2.26,9.19.17s3-5.12,3.86-8c1.87-6.59,3.75-13.5,2.31-20.2a11.15,11.15,0,0,0-2.6-5.47A5.86,5.86,0,0,0,393,350c-2.34.63-3.78,2.93-4.82,5.12a47.94,47.94,0,0,0-4.67,20.66c0,3.33.41,6.82,2.29,9.55" style="fill:#ebebeb"></path><path d="M379.25,390.3c2.58-3.09,3.06-7.59,1.89-11.44a22.13,22.13,0,0,0-6.82-9.79,36.18,36.18,0,0,0-12.15-7.1,12.94,12.94,0,0,0-5.45-.91,5.75,5.75,0,0,0-4.57,2.79c-1.26,2.44,0,5.38,1.3,7.79a92.81,92.81,0,0,0,8,12.09c2.4,3.07,5.14,6.09,8.79,7.46s7.42,1.2,9.33-1.33" style="fill:#ebebeb"></path><path d="M385.84,436.87a6.68,6.68,0,0,0,.21-1.55c.11-1.13.24-2.55.4-4.24a62.55,62.55,0,0,1,.92-6.21,48.47,48.47,0,0,1,2.23-7.34,27.13,27.13,0,0,1,3.72-6.65,14,14,0,0,1,4.71-3.95,13.37,13.37,0,0,1,4-1.26,6.49,6.49,0,0,0,1.54-.23,7.27,7.27,0,0,0-1.57,0,12.13,12.13,0,0,0-4.15,1.09,13.92,13.92,0,0,0-5,4,26.41,26.41,0,0,0-3.85,6.78,44.63,44.63,0,0,0-2.21,7.46A51.75,51.75,0,0,0,386,431c-.13,1.8-.17,3.26-.2,4.26A8.36,8.36,0,0,0,385.84,436.87Z" style="fill:#e0e0e0"></path><path d="M386.12,433.61a2.89,2.89,0,0,0,0-.72c0-.54,0-1.22,0-2.06,0-1.78,0-4.37.06-7.56.13-6.39.65-13.26,1.67-22.95,1-9.11,2.27-19.72,3.67-26.61.3-1.57.6-3,.89-4.22s.5-2.31.72-3.17.35-1.48.47-2a2.85,2.85,0,0,0,.13-.71,3.17,3.17,0,0,0-.25.68c-.15.52-.35,1.17-.59,2s-.53,1.92-.83,3.16-.65,2.64-1,4.2a231.57,231.57,0,0,0-3.87,24.7c-1,9.71-1.47,18.55-1.49,24.95,0,3.2.06,5.79.15,7.58.05.83.1,1.51.13,2.06A3.46,3.46,0,0,0,386.12,433.61Z" style="fill:#e0e0e0"></path><path d="M386.09,416.56a12.17,12.17,0,0,0,0-2.15,58,58,0,0,0-.68-5.82,76.1,76.1,0,0,0-1.93-8.48,70.6,70.6,0,0,0-3.59-10,53.47,53.47,0,0,0-10.49-16.18,25.75,25.75,0,0,0-2.46-2.27c-.38-.32-.71-.63-1.05-.88l-1-.65A13.6,13.6,0,0,0,363.1,369a62.59,62.59,0,0,1,5.95,5.26,56.55,56.55,0,0,1,10.23,16.13,79,79,0,0,1,3.61,9.94,82.51,82.51,0,0,1,2.05,8.39c.46,2.42.72,4.4.88,5.76A15.55,15.55,0,0,0,386.09,416.56Z" style="fill:#e0e0e0"></path><polygon points="369.74 446.7 371.55 470.09 401.61 469.97 403.22 446.56 369.74 446.7" style="fill:#e0e0e0"></polygon><rect x="366.82" y="437.41" width="39.97" height="9.22" transform="translate(-1.82 1.6) rotate(-0.24)" style="fill:#e0e0e0"></rect><polygon points="366.93 469.22 366.94 471.77 368.82 471.77 406.25 471.61 406.24 469.06 366.93 469.22" style="fill:#ebebeb"></polygon><polygon points="370.68 476.26 368.82 471.77 404.82 471.62 402.69 476.13 370.68 476.26" style="fill:#e0e0e0"></polygon><path d="M402.69,454.21s0,.08-.14.22l-.44.6c-.43.54-1,1.3-1.74,2.24l-.08.1-.08-.1c-1.1-1.52-2.58-3.55-4.32-5.93h.24l-4.21,6-.13.19-.15-.18-5.05-5.95h.29l-.27.35-4.47,5.65-.15.19-.14-.2-4.26-6h.24l-5.19,6-.09.11-.07-.12c-.7-1.15-1.25-2.07-1.65-2.74l-.42-.73a1,1,0,0,1-.13-.26,1.64,1.64,0,0,1,.18.23l.46.71,1.73,2.68h-.16l5.11-6,.13-.15.11.16,4.3,5.95h-.28l4.45-5.66.28-.35.14-.18.15.18,5,6-.28,0,4.25-6L396,451l.12.17c1.71,2.41,3.16,4.46,4.24,6h-.15L402,455c.2-.23.36-.41.48-.56Z" style="fill:#f5f5f5"></path><path d="M403.64,446.41c0,.1-7.53.21-16.82.25s-16.83,0-16.83-.12,7.53-.21,16.83-.25S403.64,446.3,403.64,446.41Z" style="fill:#f5f5f5"></path><path d="M405.26,471.87c0,.1-8.18.22-18.28.26s-18.28,0-18.28-.11,8.18-.22,18.28-.26S405.26,471.76,405.26,471.87Z" style="fill:#f5f5f5"></path><polygon points="318.64 99.27 295.63 102.82 312.5 212.27 380.95 201.72 364.08 92.27 374.88 90.6 329.73 62.06 324.1 25.53 303.04 28.78 305.84 46.97 289.09 36.38 260.59 40.77 251.62 60.12 318.64 99.27" style="fill:#e0e0e0"></polygon><polygon points="312.5 212.27 295.63 102.82 318.64 99.27 251.62 60.12 248 67.92 273.12 77.72 258.66 97.75 284.36 113.77 286.63 128.52 270.74 130.97 270.31 128.15 268.02 130.49 268.16 131.37 266.99 131.55 264.29 134.3 268.51 133.65 269.09 137.4 272.02 139.29 271.09 133.26 286.98 130.81 289.26 145.55 283.17 146.49 291.19 151.67 274.99 175.71 299.49 190.86 282.66 216.87 312.5 212.27" style="fill:#ebebeb"></polygon><polygon points="268.02 130.49 266.99 131.55 268.16 131.37 268.02 130.49" style="fill:#f5f5f5"></polygon><polygon points="264.29 134.3 269.09 137.4 268.51 133.65 264.29 134.3" style="fill:#f5f5f5"></polygon><polygon points="286.63 128.52 284.36 113.77 270.31 128.15 270.74 130.97 286.63 128.52" style="fill:#f5f5f5"></polygon><polygon points="286.98 130.81 271.09 133.26 272.02 139.29 283.17 146.49 289.26 145.55 286.98 130.81" style="fill:#f5f5f5"></polygon><polygon points="237.69 38.52 204.39 43.66 228.72 57.87 237.69 38.52" style="fill:#e0e0e0"></polygon><path d="M252.09,173.46l16.2-24.05-8-5.17-9.81,1.51L249.12,137l-2.93-1.89,1.69,11-13.3,2-2.28-14.75,9.09-1.4,2.7-2.76L232,131.17l-2.27-14.75,13.3-2,2.14,13.87,2.29-2.34L245.57,114l15.89-2.45-25.7-16,14.46-20L225.1,65.67l3.62-7.8L204.39,43.65,144.73,120.3l11.63-1.8L173.23,228l38.87-6-8.78-57,36.22-5.58,8.79,57,5.92-.91,5.51-.85,16.83-26ZM207.55,72.11a13.7,13.7,0,1,1-11.46,15.64A13.71,13.71,0,0,1,207.55,72.11Zm-3.81,63.4-14.59,2.25L186.87,123l14.6-2.25Zm-17.18,2.65L172,140.41l-2.27-14.74,14.6-2.26Zm-14.24,4.54,14.59-2.25,2.28,14.75-14.6,2.25Zm19.45,12.1-2.27-14.75,14.6-2.25,2.27,14.75Z" style="fill:#ebebeb"></path><rect x="207.5" y="161.84" width="36.65" height="57.67" transform="translate(-26.41 36.63) rotate(-8.76)" style="fill:#f5f5f5"></rect><path d="M211.72,99.2a13.7,13.7,0,1,0-15.63-11.45A13.69,13.69,0,0,0,211.72,99.2Z" style="fill:#f5f5f5"></path><rect x="170.74" y="124.45" width="14.77" height="14.92" transform="translate(-18.02 28.68) rotate(-8.76)" style="fill:#f5f5f5"></rect><rect x="173.37" y="141.49" width="14.77" height="14.92" transform="translate(-20.58 29.27) rotate(-8.76)" style="fill:#f5f5f5"></rect><rect x="187.92" y="121.8" width="14.77" height="14.92" transform="translate(-17.41 31.26) rotate(-8.76)" style="fill:#f5f5f5"></rect><rect x="190.55" y="138.84" width="14.77" height="14.92" transform="translate(-19.98 31.86) rotate(-8.76)" style="fill:#f5f5f5"></rect><polygon points="234.58 148.2 247.88 146.15 246.19 135.15 241.39 132.05 232.3 133.45 234.58 148.2" style="fill:#f5f5f5"></polygon><polygon points="247.41 125.9 261.46 111.52 245.57 113.97 247.41 125.9" style="fill:#f5f5f5"></polygon><polygon points="229.68 116.42 231.95 131.17 244.09 129.29 245.12 128.24 242.98 114.37 229.68 116.42" style="fill:#f5f5f5"></polygon><polygon points="260.27 144.24 249.12 137.04 250.47 145.75 260.27 144.24" style="fill:#f5f5f5"></polygon><path d="M108.72,238.13l1.93-2.27-1.84-6.43,6.11-4.43-3.73-5.82,6.23-7.29a8.88,8.88,0,0,0-2.19,1.62,8.6,8.6,0,0,0-7.72-6.61,10.67,10.67,0,0,0-6.32,1.67,11.14,11.14,0,0,0-4.48,5,13.57,13.57,0,0,0-.79,8.45,19.18,19.18,0,0,0,4.53,7.82c3.38,3.73,7.87,8.48,7.87,8.48Z" style="fill:#ebebeb"></path><path d="M132.31,217.46a10.71,10.71,0,0,0-4.35-4.89,8.79,8.79,0,0,0-6.83-.68,8.3,8.3,0,0,0-1.34.57l-6.24,7.29,3.74,5.82L111.17,230l1.85,6.42-1.94,2.28c1.37-.49,6-2.11,10.11-3.15a19.14,19.14,0,0,0,8.09-4,13.49,13.49,0,0,0,4-7.48A11.11,11.11,0,0,0,132.31,217.46Z" style="fill:#ebebeb"></path><path d="M431.33,177.85l.38-3-5-4.39,2.71-7.05-6.3-2.84,1.25-9.51a8.63,8.63,0,0,0-.95,2.55,8.9,8.9,0,0,0-3.24-2,8.77,8.77,0,0,0-6.84.62,10.71,10.71,0,0,0-4.39,4.85,11.15,11.15,0,0,0-1,6.59,13.55,13.55,0,0,0,3.95,7.52,19.12,19.12,0,0,0,8.06,4.09c4.86,1.28,11.21,2.81,11.21,2.81Z" style="fill:#ebebeb"></path><path d="M439.84,147.66a10.75,10.75,0,0,0-6.31-1.73,8.77,8.77,0,0,0-6.1,3.15,9.11,9.11,0,0,0-.81,1.21l-1.26,9.51,6.3,2.84L429,169.7l5.05,4.38-.39,3c.88-1.15,3.89-5,6.76-8.15a19,19,0,0,0,4.6-7.77,13.58,13.58,0,0,0-.71-8.46A11.13,11.13,0,0,0,439.84,147.66Z" style="fill:#ebebeb"></path><path d="M130.09,68.33,130.8,67l-1.66-3L131.7,61l-2.54-2.5,2.3-4.39a4.7,4.7,0,0,0-.92,1.07,4.51,4.51,0,0,0-1.22-1.52,4.56,4.56,0,0,0-3.43-.92,5.55,5.55,0,0,0-3,1.57,5.7,5.7,0,0,0-1.68,3,6.93,6.93,0,0,0,.57,4.35A9.79,9.79,0,0,0,125,65.08c2.13,1.49,4.94,3.37,4.94,3.37Z" style="fill:#ebebeb"></path><path d="M139.59,55.21a5.53,5.53,0,0,0-2.75-2,4.52,4.52,0,0,0-3.52.44,5.24,5.24,0,0,0-.61.44l-2.3,4.39L133,61,130.39,64l1.67,3-.71,1.37c.63-.4,2.78-1.75,4.72-2.75a9.81,9.81,0,0,0,3.62-2.95,7,7,0,0,0,1.16-4.23A5.68,5.68,0,0,0,139.59,55.21Z" style="fill:#ebebeb"></path><path d="M377.63,109.52l1.8-1.84L378.2,102l5.51-3.47-2.88-5.22,5.77-5.92a7.78,7.78,0,0,0-2,1.27,7.4,7.4,0,0,0-1.23-3,7.59,7.59,0,0,0-5-3.1,9.22,9.22,0,0,0-5.53,1.09,9.47,9.47,0,0,0-4.13,4,11.7,11.7,0,0,0-1.16,7.23,16.56,16.56,0,0,0,3.46,7c2.7,3.4,6.29,7.73,6.29,7.73Z" style="fill:#ebebeb"></path><path d="M399.09,93.06a9.25,9.25,0,0,0-3.46-4.45,7.55,7.55,0,0,0-5.84-1,7,7,0,0,0-1.19.41L382.83,94l2.88,5.21-5.51,3.48,1.23,5.63-1.79,1.85c1.2-.34,5.28-1.47,8.87-2.14a16.44,16.44,0,0,0,7.19-3,11.66,11.66,0,0,0,3.87-6.21A9.58,9.58,0,0,0,399.09,93.06Z" style="fill:#ebebeb"></path></g><g id="background-simple"><path d="M404,121.82l-1.86-3.06C386.55,93,358.29,77.47,328.49,79.36a77.11,77.11,0,0,0-11.41,1.57c-27.09,5.79-50.67,26.28-60.44,52.52-5.74,15.43-7.35,33.2-18.25,45.45-14.2,15.94-38.29,16.44-59.48,15.78s-45.3-.1-59.42,15.91c-8.84,10-11.66,24.28-10.94,37.7,1.89,35.54,26.65,67.31,58.14,83.11s68.57,17.21,103,10.26c48.29-9.73,94.2-36.46,121.8-77.75S426.12,166.38,404,121.82Z" style="fill:#ebebeb"></path></g><g id="Plants"><path d="M71.87,398.16a27.63,27.63,0,0,0-11.81-4.07c-1.93-.19-4.05-.14-5.59,1a1.17,1.17,0,0,0-.58,1,1.22,1.22,0,0,0,.55.7,16.88,16.88,0,0,0,17.43,1.32" style="fill:#FF725E"></path><path d="M71.57,397.83a57.43,57.43,0,0,1-7.63-6.72,19.26,19.26,0,0,1-4.79-8.85,3.57,3.57,0,0,1,.38-3c6.09,4.75,10.87,10.9,12,18.53" style="fill:#FF725E"></path><path d="M71.81,398.12a27.71,27.71,0,0,1,.14-10,13.61,13.61,0,0,1,5.34-8.27c1,2.46.6,5.29-.14,7.86a38.21,38.21,0,0,1-5.29,11.15" style="fill:#FF725E"></path><path d="M77.78,408.8a17.45,17.45,0,0,0-9.48,4.8,17.86,17.86,0,0,0-5.42,9.31c3.55-.22,6.56-2.73,8.75-5.53s3.7-5.89,6.1-8.52" style="fill:#FF725E"></path><path d="M79.07,410.51a23.39,23.39,0,0,1,2.7-22.11c2.06,7.34,1.31,15.63-2.7,22.11" style="fill:#FF725E"></path><path d="M87,419.9a16.9,16.9,0,0,0-16.16,9.3c-.2.4-.38.91-.11,1.27a1.19,1.19,0,0,0,1.07.31c3.19-.2,6-2.12,8.34-4.3s4.36-4.7,6.93-6.59" style="fill:#FF725E"></path><path d="M86.7,419.39a30.17,30.17,0,0,1-.3-16.82c.59-2.16,1.59-4.44,3.59-5.46a.72.72,0,0,1,.55-.09.73.73,0,0,1,.35.4,10.07,10.07,0,0,1,.84,4.82,30.11,30.11,0,0,1-.75,4.89c-.63,3-1,6.19-2.61,8.76a21.14,21.14,0,0,0-1,1.93c-.31.65-.31.88-.59,1.4" style="fill:#FF725E"></path><path d="M107.56,422.5a21.73,21.73,0,0,1,3.8-17.83c.28-.36.64-.74,1.08-.69.69.06.86,1,.83,1.65a32.14,32.14,0,0,1-5.71,16.87" style="fill:#FF725E"></path><path d="M109.45,423.78a25.91,25.91,0,0,0,21.27-4.33A17.25,17.25,0,0,0,119.2,418c-3.84.88-7.36,2.6-9.75,5.74" style="fill:#FF725E"></path><path d="M111,419.87a24.58,24.58,0,0,1,19.31-11.17,11.88,11.88,0,0,1-6.31,7,34.82,34.82,0,0,1-9.27,2.71c-1.24.24-2.93.51-3.73,1.48" style="fill:#FF725E"></path><path d="M108,400.87a55.73,55.73,0,0,0,2.47-11.31,18.83,18.83,0,0,0-2.25-11.19,24.61,24.61,0,0,0-.33,22.89" style="fill:#FF725E"></path><path d="M120.54,394.51c4.37-7.94,13.29-14.28,22.31-15.17-3.48,8.66-13,15.36-22.31,15.17" style="fill:#FF725E"></path><path d="M117.79,396.07c6.52,1,12.07,5.15,18.16,7.68a8.08,8.08,0,0,0,4.11.78,3.21,3.21,0,0,0,2-5.68,8.74,8.74,0,0,0-3-1.81c-6.63-2.76-13.75-2.83-20.74-1.16" style="fill:#FF725E"></path><path d="M114,400.64c1.48.42,2,1.19,3.15,2.18a34,34,0,0,0,13.77,7.08c.53.13,1.22.18,1.48-.3s-.06-.91-.36-1.28a18.86,18.86,0,0,0-8.31-5.65c-3.18-1.18-5.93-2.61-9.73-2.3" style="fill:#FF725E"></path><path d="M109.77,373a26,26,0,0,0,20,6.8,1.34,1.34,0,0,0,.91-.33c.5-.54-.1-1.39-.69-1.84-5.87-4.58-13-6.48-20.2-4.63" style="fill:#FF725E"></path><path d="M114.81,371.19a27.85,27.85,0,0,1,24.94-4.12,19.8,19.8,0,0,1-11.89,5.22,37.82,37.82,0,0,1-13-1.1" style="fill:#FF725E"></path><path d="M112.81,358.5c-.58-5.86-.21-10.49-.61-16.38,0-.47-.14-1-.58-1.21-.61-.24-1.12.52-1.32,1.14a18.78,18.78,0,0,0,2.5,16.32" style="fill:#FF725E"></path><path d="M112.39,359.15a34.63,34.63,0,0,0,9.71-9.44c1.92-2.63,3.53-5.77,3.1-9a9.28,9.28,0,0,0-7,3.47,19.65,19.65,0,0,0-3.57,7.19c-.78,2.58-1.32,5.23-2.23,7.77" style="fill:#FF725E"></path><path d="M121.93,356.5a78.41,78.41,0,0,0,23.9-14.1c-2.85-1.15-6.12-.46-9,.69a28.33,28.33,0,0,0-15,13.34" style="fill:#FF725E"></path><path d="M115.07,362.35a48.35,48.35,0,0,0,13.27.07,56.52,56.52,0,0,0,12.39-4.12,1.41,1.41,0,0,0,.84-.64,1,1,0,0,0-.3-1.06,2.54,2.54,0,0,0-1.05-.49,22.92,22.92,0,0,0-13.4.8,62.29,62.29,0,0,0-11.75,5.44" style="fill:#FF725E"></path><path d="M89.87,373.23a23.48,23.48,0,0,1-.21-19.43c1.83,2.79,2,6.34,1.72,9.66S90,370.2,90,373.53" style="fill:#FF725E"></path><path d="M77.85,367.17a27.07,27.07,0,0,0-20.14,8.58,18.76,18.76,0,0,0,11-2.05,55.23,55.23,0,0,0,9.45-6.32" style="fill:#FF725E"></path><path d="M69.76,364.46c-3.68-.3-7.21-.75-10.75.33a12.91,12.91,0,0,0-8.19,6.95,19.37,19.37,0,0,0,10.07-1.9,57.75,57.75,0,0,0,8.87-5.38" style="fill:#FF725E"></path><path d="M81.73,364.59c-3.31-2.17-6.7-4.38-10.55-5.28s-8.32-.23-11,2.67c3.12,1.83,6.91,2,10.52,2s8,0,11.46,1.16" style="fill:#FF725E"></path><path d="M81.75,364.76c-5.65-5.55-7.8-15.53-5.52-23.12a35.27,35.27,0,0,1,5.52,23.12" style="fill:#FF725E"></path><path d="M97.3,349c1.07-2.48,1.82-5.08,2.78-7.61a21.67,21.67,0,0,1,4-7,10.42,10.42,0,0,1,7-3.63,28.19,28.19,0,0,1-13.59,18.29" style="fill:#FF725E"></path><path d="M94.49,352.31c-1.77-2.43-3.81-5.73-6.2-7.54a10.33,10.33,0,0,0-8.43-2.22,19.66,19.66,0,0,0,14.63,9.76" style="fill:#FF725E"></path><path d="M95.05,349.23a41.84,41.84,0,0,1-2.79-9A14,14,0,0,1,93.68,331c3.1,5.87,4.1,12.16,1.53,18.29" style="fill:#FF725E"></path><path d="M97.33,331c1.76-5.82,7.09-10.1,12.84-12.07a4.84,4.84,0,0,1,2.25-.34,2,2,0,0,1,1.66,1.39c.2,1-.61,1.88-1.38,2.53A43.69,43.69,0,0,1,97.33,331" style="fill:#FF725E"></path><path d="M97.39,326.25c.23-3.75.46-7.56,1.68-11.11s3.57-6.89,7-8.44c.58,3.79-1.09,7.56-3.1,10.81s-4.45,6.34-5.66,10" style="fill:#FF725E"></path><path d="M97.3,328.83c-1.45-4.24-1.6-9.62-4.14-13.32-1.77-2.58-4.62-4.34-6.15-7.07a10.8,10.8,0,0,0,.36,8,23,23,0,0,0,4.7,6.72c1.88,2,3.49,3.52,5.23,5.64" style="fill:#FF725E"></path><path d="M97.33,453.68c-.11,0-.21-28.28-.22-63.16s.08-63.16.19-63.16.21,28.27.22,63.16S97.44,453.68,97.33,453.68Z" style="fill:#263238"></path><path d="M122,369a7.31,7.31,0,0,1-1.06.39l-2.93,1c-2.46.84-5.85,2.06-9.53,3.57s-7.08,2.83-9,4.52a6.69,6.69,0,0,0-1.82,2.4c-.28.67-.33,1.08-.37,1.07a1,1,0,0,1,0-.3,6.17,6.17,0,0,1,.21-.82,6.42,6.42,0,0,1,1.77-2.56,16,16,0,0,1,3.92-2.44c1.57-.73,3.31-1.49,5.15-2.25,3.69-1.51,7.11-2.69,9.61-3.46,1.24-.39,2.26-.68,3-.87A5.79,5.79,0,0,1,122,369Z" style="fill:#263238"></path><path d="M130.15,349.07a2.62,2.62,0,0,1-.3.31l-.91.86-3.39,3.07-11.27,10.05c-4.41,3.91-8.21,7.66-10.85,10.48-1.32,1.4-2.36,2.57-3.06,3.38l-.82.94a1.74,1.74,0,0,1-.31.31,1.72,1.72,0,0,1,.24-.36c.17-.23.42-.57.76-1,.68-.85,1.69-2,3-3.48A143.23,143.23,0,0,1,114,363.05c4.42-3.91,8.44-7.42,11.36-9.95l3.47-3,1-.8A1.37,1.37,0,0,1,130.15,349.07Z" style="fill:#263238"></path><path d="M109.52,367.34c-.11,0,.81-2.18,1.72-4.86s1.36-5,1.48-4.93a16.33,16.33,0,0,1-1.09,5.06,32.87,32.87,0,0,1-1.37,3.4A5.24,5.24,0,0,1,109.52,367.34Z" style="fill:#263238"></path><path d="M97.36,384.46a4.92,4.92,0,0,1-.68-.79l-1.74-2.23c-1.46-1.89-3.48-4.49-5.74-7.34s-4.34-5.41-5.85-7.26l-1.77-2.19a4.65,4.65,0,0,1-.61-.84,4.83,4.83,0,0,1,.73.73c.45.49,1.09,1.22,1.87,2.12,1.57,1.8,3.69,4.33,6,7.19s4.25,5.49,5.65,7.42c.7,1,1.26,1.75,1.64,2.31A5.6,5.6,0,0,1,97.36,384.46Z" style="fill:#263238"></path><path d="M91.94,377.5a9.81,9.81,0,0,1-2.27-4.25,12.12,12.12,0,0,1-.52-4.28h.18c-.08.33-.14.5-.17.49s0-.18,0-.52l.18,0a20,20,0,0,0,.73,4.16A31.39,31.39,0,0,0,91.94,377.5Z" style="fill:#263238"></path><path d="M84.94,368.7a7.47,7.47,0,0,0-1.58-.92,10.6,10.6,0,0,0-4.4-.35,28.11,28.11,0,0,0-4.44.71,12.47,12.47,0,0,1-1.82.44,6.24,6.24,0,0,1,1.75-.71,20.08,20.08,0,0,1,4.47-.85,9.58,9.58,0,0,1,4.54.49A2.8,2.8,0,0,1,84.94,368.7Z" style="fill:#263238"></path><path d="M83.28,366.57c0,.06-.92-.37-2.43-.89a25,25,0,0,0-6-1.24,25.23,25.23,0,0,0-6.18.31c-1.57.28-2.52.57-2.54.51a2,2,0,0,1,.65-.28,13.58,13.58,0,0,1,1.83-.51,21.59,21.59,0,0,1,12.39.94,15.71,15.71,0,0,1,1.74.79C83.08,366.41,83.3,366.54,83.28,366.57Z" style="fill:#263238"></path><path d="M97.3,357.55a50.64,50.64,0,0,1-1.77-6.15,49.31,49.31,0,0,1-1.37-6.26,51.17,51.17,0,0,1,1.77,6.16A49,49,0,0,1,97.3,357.55Z" style="fill:#263238"></path><path d="M97.41,357.55a29.27,29.27,0,0,0-2-3.68,16.06,16.06,0,0,0-2.89-3,2.83,2.83,0,0,1,1.12.58,8.93,8.93,0,0,1,2.11,2.17A8.1,8.1,0,0,1,97.41,357.55Z" style="fill:#263238"></path><path d="M97.33,438.6s-.13-.68-.45-1.88A25.77,25.77,0,0,0,95,431.83,67.27,67.27,0,0,0,85,417.7c-2.24-2.56-4.41-5-6.26-7.28A52.56,52.56,0,0,1,74.24,404,31.61,31.61,0,0,1,72,399.18c-.2-.59-.36-1.05-.44-1.37a2.84,2.84,0,0,1-.12-.48s.25.64.71,1.8a36.39,36.39,0,0,0,2.36,4.69A52.33,52.33,0,0,0,79,410.18c1.85,2.29,4,4.69,6.27,7.25a64.48,64.48,0,0,1,10,14.27,24.29,24.29,0,0,1,1.79,5,13.47,13.47,0,0,1,.25,1.41A2.69,2.69,0,0,1,97.33,438.6Z" style="fill:#263238"></path><path d="M119.66,413.38a8.83,8.83,0,0,1-1.17.66,25.88,25.88,0,0,0-3,2,34.91,34.91,0,0,0-4,3.64c-1.4,1.48-2.84,3.19-4.31,5-2.94,3.7-5.7,7-7.34,9.57-.84,1.29-1.45,2.38-1.85,3.15a9.14,9.14,0,0,1-.64,1.17,1.62,1.62,0,0,1,.11-.33c.09-.21.2-.52.39-.91a31.38,31.38,0,0,1,1.74-3.24,104.19,104.19,0,0,1,7.27-9.66c1.47-1.84,2.93-3.56,4.36-5a33.7,33.7,0,0,1,4.08-3.61,21.75,21.75,0,0,1,3.14-1.91c.39-.2.7-.32.91-.41Z" style="fill:#263238"></path><path d="M120.1,421.56a15.81,15.81,0,0,1-2.47.36,32.32,32.32,0,0,0-5.87,1.16,17.7,17.7,0,0,0-5.25,2.75c-1.22.94-1.79,1.71-1.84,1.67a1.82,1.82,0,0,1,.36-.57,9.54,9.54,0,0,1,1.29-1.32,15.87,15.87,0,0,1,5.31-2.92,26.94,26.94,0,0,1,6-1.06A14.05,14.05,0,0,1,120.1,421.56Z" style="fill:#263238"></path><path d="M105.39,426.6c-.13-.07,1-1.78,1.85-4.07s1-4.33,1.15-4.31a4.06,4.06,0,0,1,0,1.33,14.33,14.33,0,0,1-.73,3.12,14.66,14.66,0,0,1-1.43,2.87C105.75,426.23,105.44,426.63,105.39,426.6Z" style="fill:#263238"></path><path d="M126.9,391.41a2.27,2.27,0,0,1-.4.21l-1.16.53c-.51.22-1.13.49-1.83.86s-1.51.73-2.36,1.24l-1.35.77c-.47.27-.93.59-1.42.9-1,.6-2,1.34-3.06,2.1a57.87,57.87,0,0,0-6.38,5.61,58.87,58.87,0,0,0-5.39,6.57c-.72,1.09-1.43,2.11-2,3.13-.29.5-.59,1-.84,1.45s-.5.94-.73,1.37c-.48.87-.82,1.7-1.16,2.41s-.59,1.34-.8,1.85-.35.87-.48,1.18a1.87,1.87,0,0,1-.2.4,2.38,2.38,0,0,1,.12-.43l.42-1.21a20,20,0,0,1,.73-1.88c.32-.72.65-1.57,1.12-2.44.22-.45.45-.92.7-1.4s.54-1,.83-1.48c.56-1,1.26-2.06,2-3.16a55.79,55.79,0,0,1,5.41-6.64,54.87,54.87,0,0,1,6.45-5.63c1.07-.76,2.09-1.49,3.1-2.09.5-.3,1-.62,1.44-.88L121,394c.86-.5,1.69-.85,2.4-1.19s1.34-.61,1.86-.81l1.2-.46A1.76,1.76,0,0,1,126.9,391.41Z" style="fill:#263238"></path><path d="M109.22,403.25a2.81,2.81,0,0,1,1-1.44,6.11,6.11,0,0,1,3.92-1.51,10.8,10.8,0,0,1,4.12.81,6.23,6.23,0,0,1,1.56.75,8.54,8.54,0,0,1-1.66-.48,12.42,12.42,0,0,0-4-.67,6.42,6.42,0,0,0-3.74,1.31A13.08,13.08,0,0,0,109.22,403.25Z" style="fill:#263238"></path><path d="M106.58,406a14.88,14.88,0,0,0,1.11-3.62,14.64,14.64,0,0,0-.25-3.78,2.4,2.4,0,0,1,.46,1.06,7.44,7.44,0,0,1-.63,5.42C106.92,405.68,106.62,406,106.58,406Z" style="fill:#263238"></path><path d="M77.8,442.66c.61,10.8,3.86,21.8,8.87,32.91h21.79c4.78-11,7.81-22,8.35-32.91Z" style="fill:#455a64"></path><path d="M113.28,460.15c0,.11-7.18.2-16,.2s-16-.09-16-.2,7.17-.21,16-.21S113.28,460,113.28,460.15Z" style="fill:#fafafa"></path><path d="M112.79,464.06c0,.11-6.73.21-15,.21s-15-.1-15-.21,6.73-.2,15-.2S112.79,464,112.79,464.06Z" style="fill:#fafafa"></path><path d="M421,425.4a9.49,9.49,0,0,0-5.18,5.3,16.67,16.67,0,0,0-1,7.48c.31,4.9,2.83,10,5.61,14,4.29-3.38,5.55-9.58,6-12.76.7-5-1.09-14.57-5.39-14" style="fill:#FF725E"></path><path d="M415.23,460A8.08,8.08,0,0,0,413,452.2a10.73,10.73,0,0,0-7.77-2.87,4.52,4.52,0,0,0-3.54,1.39,3.46,3.46,0,0,0-.23,3.49,7,7,0,0,0,2.45,2.67c3.45,2.42,7.22,4.12,11.31,3.11" style="fill:#FF725E"></path><path d="M419.73,475.21a5,5,0,0,0-.09-1c-.09-.71-.22-1.63-.36-2.73a28.27,28.27,0,0,0-2.36-8.79,17.23,17.23,0,0,0-5.87-6.91,11.6,11.6,0,0,0-2.47-1.25c-.31-.12-.56-.17-.72-.22a.66.66,0,0,0-.26-.05,18.34,18.34,0,0,1,3.31,1.73,17.9,17.9,0,0,1,5.69,6.85A30.45,30.45,0,0,1,419,471.5c.19,1.15.35,2.08.47,2.72A7.06,7.06,0,0,0,419.73,475.21Z" style="fill:#263238"></path><path d="M421.73,432.78a1.57,1.57,0,0,0-.08.43c0,.33-.08.74-.13,1.26-.12,1.08-.26,2.66-.42,4.61-.33,3.9-.7,9.29-1,15.26s-.4,11.37-.44,15.28c0,2,0,3.54,0,4.64,0,.51,0,.93,0,1.26a2.64,2.64,0,0,0,0,.44,3.28,3.28,0,0,0,0-.44c0-.33,0-.75,0-1.26,0-1.14.07-2.71.13-4.63.1-3.91.26-9.31.54-15.28s.61-11.35.87-15.25c.12-1.92.23-3.49.3-4.62,0-.52.06-.94.07-1.26A2.09,2.09,0,0,0,421.73,432.78Z" style="fill:#263238"></path><path d="M422.18,463.32a18.89,18.89,0,0,1,11-13.29c1.41-.59,3.22-.93,4.29.15s.74,2.9.11,4.29a16.14,16.14,0,0,1-15.31,9.26" style="fill:#FF725E"></path><path d="M432.27,454.62a5.39,5.39,0,0,0-.89.34,8.47,8.47,0,0,0-1,.47,13.64,13.64,0,0,0-1.29.72,17.89,17.89,0,0,0-1.49,1,19.67,19.67,0,0,0-1.6,1.31,20.78,20.78,0,0,0-3.08,3.58,20.16,20.16,0,0,0-2.13,4.22,17.32,17.32,0,0,0-.58,2,12.9,12.9,0,0,0-.34,1.76c-.1.55-.1,1.05-.14,1.48a7.33,7.33,0,0,0,0,1.12,6.06,6.06,0,0,0,.06.95c.08,0,0-1.36.36-3.51a17,17,0,0,1,.37-1.73,17.81,17.81,0,0,1,.61-1.94,21.25,21.25,0,0,1,2.11-4.13,21.89,21.89,0,0,1,3-3.54,17.7,17.7,0,0,1,1.55-1.31,15.77,15.77,0,0,1,1.44-1C431,455.19,432.3,454.69,432.27,454.62Z" style="fill:#263238"></path></g><g id="character-2"><path d="M322.19,436.59l-4,21.52s20.53,11.32,20.17,15.37l-42-6.3,4.89-33.79Z" style="fill:#FF725E"></path><path d="M305.45,454.35a1.74,1.74,0,0,0-1.48,1.78,1.67,1.67,0,0,0,1.75,1.48,1.84,1.84,0,0,0,1.56-1.9,1.74,1.74,0,0,0-2-1.34" style="fill:#e0e0e0"></path><g style="opacity:0.6000000000000001"><path d="M296.33,467.18l.62-3.39L337,471.1s1.75,1.09,1.34,2.38Z" style="fill:#fff"></path></g><path d="M318.88,458c0,.21-1.08.15-2.18.65s-1.78,1.29-2,1.18.31-1.24,1.66-1.84S319,457.82,318.88,458Z" style="fill:#263238"></path><path d="M323,460.48c0,.21-.93.43-1.75,1.19s-1.17,1.65-1.37,1.61-.16-1.22.88-2.15S323,460.29,323,460.48Z" style="fill:#263238"></path><path d="M324.73,466.13c-.2,0-.33-1.05.37-2.09s1.72-1.35,1.78-1.17-.62.7-1.18,1.57S324.93,466.14,324.73,466.13Z" style="fill:#263238"></path><path d="M319.25,453c-.11.18-1-.25-2.18-.34s-2.13.13-2.21-.06.9-.79,2.28-.66S319.38,452.85,319.25,453Z" style="fill:#263238"></path><path d="M308.47,441.74l-.38,21.89s22.12,7.75,22.44,11.8l-42.47.77-.8-34.13Z" style="fill:#FF725E"></path><path d="M294.92,462a1.74,1.74,0,0,0-1.17,2,1.67,1.67,0,0,0,2,1.17,1.82,1.82,0,0,0,1.22-2.12,1.73,1.73,0,0,0-2.19-1" style="fill:#e0e0e0"></path><g style="opacity:0.6000000000000001"><path d="M288.06,476.2l.05-3.44,40.71.55s1.9.78,1.71,2.12Z" style="fill:#fff"></path></g><path d="M308.77,463.4c0,.21-1,.32-2,1S305.19,466,305,465.9s.09-1.29,1.33-2.09S308.81,463.21,308.77,463.4Z" style="fill:#263238"></path><path d="M313.26,465.16c.05.2-.84.57-1.53,1.46s-.87,1.82-1.08,1.82-.36-1.18.52-2.27S313.25,465,313.26,465.16Z" style="fill:#263238"></path><path d="M315.89,470.45c-.19.05-.5-1,0-2.13s1.48-1.62,1.57-1.44-.5.79-.91,1.73S316.09,470.43,315.89,470.45Z" style="fill:#263238"></path><path d="M308.31,458.4c-.09.19-1-.08-2.22,0s-2.07.48-2.19.31.76-.93,2.14-1S308.4,458.24,308.31,458.4Z" style="fill:#263238"></path><path d="M278.51,271.75l.56,21.66,6.4,67.24s-2,32.76-3.33,51.25c-1.13,16.06,2.12,43.89,2.12,43.89l27-.7,7.25-93.3L323,303.61l9.13-30.42Z" style="fill:#263238"></path><polygon points="345.32 276.67 347.16 371.39 321.64 442.47 320.5 446.74 304.24 443.26 312.14 271.75 345.32 276.67" style="fill:#263238"></polygon><path d="M322.66,292.21a1.91,1.91,0,0,1,0,.42c0,.31,0,.72,0,1.24,0,1.12,0,2.72,0,4.77,0,4.13-.12,10.12-.31,17.51-.44,14.78-1.43,35.2-3.22,57.68s-3.8,42.8-5.3,57.49c-.77,7.33-1.39,13.26-1.82,17.4-.23,2-.4,3.62-.52,4.73-.07.52-.12.92-.15,1.22a2.78,2.78,0,0,1-.07.42,2.66,2.66,0,0,1,0-.42c0-.31.05-.71.1-1.24.1-1.11.24-2.7.42-4.73.4-4.15,1-10.09,1.66-17.42,1.42-14.7,3.41-35,5.16-57.5s2.84-42.87,3.36-57.64c.24-7.39.41-13.37.48-17.51,0-2,.08-3.64.1-4.76,0-.52,0-.93,0-1.24A2.24,2.24,0,0,1,322.66,292.21Z" style="fill:#455a64"></path><path d="M299.07,277.3a3.15,3.15,0,0,1-.09,1,15,15,0,0,1-.7,2.63A17.27,17.27,0,0,1,285.1,292.1a14.78,14.78,0,0,1-2.71.25,3.49,3.49,0,0,1-1-.07c0-.1,1.43,0,3.64-.53A17.88,17.88,0,0,0,298,280.8C298.8,278.7,299,277.28,299.07,277.3Z" style="fill:#455a64"></path><path d="M324.08,280.75a1.39,1.39,0,1,1-2.78.07,1.39,1.39,0,0,1,2.78-.07Z" style="fill:#455a64"></path><path d="M346,291.14a8.77,8.77,0,0,1-1.95-1.73,21.4,21.4,0,0,1-5.4-11.27,8.58,8.58,0,0,1-.13-2.61c.08,0,.17,1,.48,2.55a25,25,0,0,0,5.32,11.09C345.35,290.4,346.07,291.08,346,291.14Z" style="fill:#455a64"></path><path d="M318.15,162.16c.25.19,12.8,7,16.23,11.67s9.46,26,9.46,26a2.3,2.3,0,0,1,2.34,1.37,3.3,3.3,0,0,1-.36,2.87l-11.23,3Z" style="fill:#FF725E"></path><path d="M290.87,152.78s-20.71,13.05-22.41,22.12-.21,26.21.92,32.17c.55,2.86,4,19.91,5.94,36.84,2.06,18.32,1.68,41.71,1.68,41.71h70.11c-1.68-16.49-4.14-31.16-7.73-43.21l-4.26-51.34-10.21-22.69-7.76-7.14Z" style="fill:#FF725E"></path><path d="M292.74,285.62a3.21,3.21,0,0,1-.09-.72c0-.53-.1-1.22-.17-2.08-.14-1.81-.31-4.43-.49-7.67-.33-6.53-.79-15.46-1.29-25.32s-1.09-18.83-1.65-25.29c-.28-3.23-.52-5.84-.71-7.65-.08-.86-.15-1.55-.19-2.08a3.9,3.9,0,0,1,0-.72,3,3,0,0,1,.14.71c.07.53.17,1.21.29,2.07.25,1.8.55,4.41.87,7.64.66,6.46,1.3,15.4,1.81,25.29s.86,18.85,1.14,25.33c.13,3.2.24,5.81.32,7.68,0,.86.05,1.56.07,2.08A3.69,3.69,0,0,1,292.74,285.62Z" style="fill:#263238"></path><g style="opacity:0.30000000000000004"><path d="M324.81,236.2A108.56,108.56,0,0,1,290,198.9l-7.63,3.75a70.33,70.33,0,0,0,15.33,31.45c3.39,4,7.31,7.62,12,9.83s10.38,2.87,15.2.87c1.69-.69,3.43-2,3.54-3.8C328.61,238.89,326.58,237.36,324.81,236.2Z"></path></g><path d="M281.38,204.72s28.22,35.05,32.42,36.38,10.39,3.76,14.37,2.43,8.84-2.21,11.93-6.85S349,221.21,349,221.21s-7-9.49-9.51-8.84c0,0-10.83,5.08-13,5.74s-17.51-19.65-17.51-19.65l-3.4-5.76Z" style="fill:#e1957a"></path><path d="M306.74,199.91A5.17,5.17,0,0,1,311,199c2.3.61,5.25,2.34,5.45,2.75a2.67,2.67,0,0,1,0,1.32s2.44.81,2.85,1.83a12.08,12.08,0,0,1,.51,3s2.24.71,2.85,2a5.41,5.41,0,0,1,0,3.26s2.64.61,2.95,1.72a9.22,9.22,0,0,1,0,3s-6,.1-7.12-1.24a4.66,4.66,0,0,1-.92-3.17l3.09-.42-6.14-.6s-3.86-.1-4-3.66c0,0-3.67-1.12-3.77-2.44a6.75,6.75,0,0,1,0-1.73l3.77-1.52S306.3,203.34,306.74,199.91Z" style="fill:#e1957a"></path><path d="M343.91,203.52s9.4,12.21,12,25.48c0,0,2.1,9.08-.79,12.39s-11.82,6.62-20.71,0l2.65-27.3-.62-7.46Z" style="fill:#e1957a"></path><path d="M349,222.35s-.14-2.9,0-6.62-6.39-11.65-6.39-11.65l-6.15,2.55.55,6.58Z" style="fill:#e1957a"></path><path d="M280.6,162.81s12.55-3.59,18.33,6.17a123.19,123.19,0,0,1,9.56,21.52s1.59,0,2.19,3,0,4,0,4l-1.79,1s-1.62-2.79-3.4-2.59S279,205.63,279,205.63l-10.16-8.76S263.47,172.37,280.6,162.81Z" style="fill:#FF725E"></path><path d="M278.07,204.82l.24.18.74.59H279c1.67-.7,5.47-2.21,10.78-4.26,2.65-1,5.67-2.18,9-3.41,1.67-.62,3.41-1.26,5.23-1.87.46-.14.92-.3,1.45-.41a2.4,2.4,0,0,1,1.55.42,7.12,7.12,0,0,1,2.11,2.29l-.35-.1,1.8-1-.1.1a4.36,4.36,0,0,0,.22-1.78,11.58,11.58,0,0,0-.24-1.92,5.68,5.68,0,0,0-.62-1.82,2,2,0,0,0-1.33-1.06l-.2,0-.05-.16-.06-.18a131.88,131.88,0,0,0-6.52-15.86c-.59-1.18-1.18-2.32-1.78-3.42A27.23,27.23,0,0,0,298,168a13.11,13.11,0,0,0-4.83-4.13,15.13,15.13,0,0,0-5.11-1.46,20.84,20.84,0,0,0-4-.09,25,25,0,0,0-2.54.31c-.58.09-.88.17-.89.15a.61.61,0,0,1,.22-.08,5.18,5.18,0,0,1,.65-.17,18.65,18.65,0,0,1,2.54-.41,19.82,19.82,0,0,1,4.09,0,15.15,15.15,0,0,1,5.24,1.42,13.33,13.33,0,0,1,5,4.21,29.26,29.26,0,0,1,1.93,3.12c.6,1.1,1.21,2.24,1.8,3.43a127.5,127.5,0,0,1,6.59,15.91l.06.18-.25-.18a2.38,2.38,0,0,1,1.78,1.32,6.38,6.38,0,0,1,.68,2,13.5,13.5,0,0,1,.25,2,4.7,4.7,0,0,1-.3,2.06l0,.05-.08,0-1.79,1-.21.12-.13-.21a6.69,6.69,0,0,0-1.93-2.12,1.92,1.92,0,0,0-1.24-.35,13.35,13.35,0,0,0-1.35.39c-1.81.59-3.55,1.22-5.22,1.82l-9,3.33-10.87,4h0l0,0-.7-.64C278.13,204.9,278.06,204.83,278.07,204.82Z" style="fill:#263238"></path><path d="M308.43,191.11a21.54,21.54,0,0,0-4.79-.83,27.89,27.89,0,0,0-11.41,2.44c-4.25,1.78-8,3.69-10.91,4.65a27.84,27.84,0,0,1-3.46,1,5.78,5.78,0,0,1-1.31.19,7,7,0,0,1,1.26-.39c.81-.23,2-.6,3.39-1.14,2.84-1,6.55-3,10.84-4.78a26.52,26.52,0,0,1,11.62-2.33,14.25,14.25,0,0,1,3.55.67,7.77,7.77,0,0,1,.91.36C308.33,191,308.43,191.09,308.43,191.11Z" style="fill:#263238"></path><path d="M331.62,177.13c.14,0,1.37,7.94,2.75,17.78s2.38,17.83,2.24,17.85-1.38-7.94-2.75-17.78S331.48,177.15,331.62,177.13Z" style="fill:#263238"></path><path d="M333.94,241.39a33.24,33.24,0,0,0,13.29-15.9,20.07,20.07,0,0,0,1.59-9.62,11.37,11.37,0,0,0-4.74-8.27,8,8,0,0,0-9.2.17" style="fill:#e1957a"></path><path d="M334.88,207.77a4.67,4.67,0,0,1,1.67-1.09,8.08,8.08,0,0,1,5.41-.26,9.66,9.66,0,0,1,5.93,5.32,15,15,0,0,1,.84,9.79,32.06,32.06,0,0,1-8.87,15.4,30.64,30.64,0,0,1-4.21,3.44c-.53.36-1,.61-1.25.78a2,2,0,0,1-.46.24s.57-.42,1.59-1.19a35.23,35.23,0,0,0,4.07-3.53,33.55,33.55,0,0,0,4.91-6.28,30.48,30.48,0,0,0,3.71-9,14.65,14.65,0,0,0-.76-9.47,9.36,9.36,0,0,0-5.61-5.18,8.23,8.23,0,0,0-5.23.09A11.06,11.06,0,0,0,334.88,207.77Z" style="fill:#b96346"></path><path d="M326.4,218.11a15.24,15.24,0,0,1,2.07-.84,51.25,51.25,0,0,0,4.85-2.27c3.68-2,6.64-3.72,6.73-3.57a9.91,9.91,0,0,1-1.83,1.3c-1.17.74-2.79,1.74-4.66,2.73a31.57,31.57,0,0,1-5,2.16A7.23,7.23,0,0,1,326.4,218.11Z" style="fill:#b96346"></path><path d="M306.74,199.91a4.84,4.84,0,0,0,.23,1.45,2.3,2.3,0,0,0,1.21,1.17,5.16,5.16,0,0,0,2.32.39l.79,0-.73.31-3.75,1.56.1-.12a8.28,8.28,0,0,0,0,1.41,1.14,1.14,0,0,0,.17.63,2.48,2.48,0,0,0,.52.5,11,11,0,0,0,3,1.38l.14,0v.15a3.25,3.25,0,0,0,1.06,2.4,4.62,4.62,0,0,0,2.7,1h0l6.15.58,2.17.21-2.16.29-3.09.43.22-.23a4.51,4.51,0,0,0,.52,2.48,3.25,3.25,0,0,0,.37.52,1.84,1.84,0,0,0,.49.34,6.56,6.56,0,0,0,1.3.39,26.65,26.65,0,0,0,5.09.39l-.25.22a11.3,11.3,0,0,0,.13-1.63,3.16,3.16,0,0,0-.23-1.47,2.94,2.94,0,0,0-1.19-.84,8.64,8.64,0,0,0-1.46-.49l-.25-.07.07-.25a4.5,4.5,0,0,0-.08-3.26,5.19,5.19,0,0,0-2.6-1.74l-.15-.05v-.15a15.33,15.33,0,0,0-.18-1.69,3.59,3.59,0,0,0-.46-1.46,6.58,6.58,0,0,0-2.55-1.46l-.16-.06,0-.16a2.49,2.49,0,0,0,0-1.21,5,5,0,0,0-.95-.7,20.78,20.78,0,0,0-2.05-1.1,8.78,8.78,0,0,0-3.52-1.06,5.33,5.33,0,0,0-2.25.57c-.48.23-.71.4-.73.39a2.16,2.16,0,0,1,.68-.49,5.28,5.28,0,0,1,2.3-.68,8.8,8.8,0,0,1,3.65,1,18.43,18.43,0,0,1,2.1,1.09c.18.1.36.22.54.34a2,2,0,0,1,.55.48,2.6,2.6,0,0,1,0,1.46l-.13-.22a10.16,10.16,0,0,1,1.42.59,4.32,4.32,0,0,1,1.33,1,3.71,3.71,0,0,1,.57,1.65,15.94,15.94,0,0,1,.2,1.74l-.15-.21a7.91,7.91,0,0,1,1.54.71,4,4,0,0,1,1.33,1.21,3.52,3.52,0,0,1,.42,1.81,6.91,6.91,0,0,1-.28,1.85l-.18-.32a9.78,9.78,0,0,1,1.55.53,3.25,3.25,0,0,1,1.41,1,2,2,0,0,1,.28.89,6.2,6.2,0,0,1,.05.86,12.32,12.32,0,0,1-.14,1.71l0,.22h-.22a27.34,27.34,0,0,1-5.21-.4,6.72,6.72,0,0,1-1.41-.43,2.39,2.39,0,0,1-.66-.46,3.62,3.62,0,0,1-.44-.61,5.09,5.09,0,0,1-.57-2.8v-.2l.21,0,3.09-.42v.5l-6.14-.61h0a4.94,4.94,0,0,1-3-1.16,3.72,3.72,0,0,1-1.19-2.73l.15.2a11.1,11.1,0,0,1-3.08-1.47,2.9,2.9,0,0,1-.6-.61,1.51,1.51,0,0,1-.22-.82,7.74,7.74,0,0,1,0-1.52l0-.08.09,0,3.77-1.49.06.27a5.42,5.42,0,0,1-2.42-.47,2.45,2.45,0,0,1-1.26-1.32A2.74,2.74,0,0,1,306.74,199.91Z" style="fill:#b96346"></path><g style="opacity:0.30000000000000004"><path d="M278.33,198.13c5.35-3.75,10.27-6.67,16.51-8.6a13.34,13.34,0,0,1,9.9.53c-8.54-.89-16.83,4.86-26,8"></path></g><path d="M300.06,172.14a5.85,5.85,0,0,0-2.39.86,8.47,8.47,0,0,0-2.16,2.05,32.09,32.09,0,0,0-2.09,3.4,11.93,11.93,0,0,1-3.13,3.79,10.56,10.56,0,0,1-5.28,2,11.83,11.83,0,0,1-6.15-1.05,8.77,8.77,0,0,1-4.71-4.7A6,6,0,0,1,274,175a4.49,4.49,0,0,1,1.94-2.76,4.33,4.33,0,0,1,3.22-.58,3.61,3.61,0,0,1,2.41,2,4.59,4.59,0,0,1,.33,3,6,6,0,0,1-1.25,2.5,8,8,0,0,1-4.17,2.6,9.09,9.09,0,0,1-6.91-1,7.26,7.26,0,0,1-1.51-1.2,3.29,3.29,0,0,1-.43-.52,11.43,11.43,0,0,0,2,1.55,9.07,9.07,0,0,0,6.72.81,7.56,7.56,0,0,0,3.92-2.51,5.57,5.57,0,0,0,1.15-2.32,4.2,4.2,0,0,0-.32-2.65,3.08,3.08,0,0,0-2.1-1.73,3.87,3.87,0,0,0-2.83.53,4,4,0,0,0-1.71,2.45,5.51,5.51,0,0,0,.19,3.16,8.28,8.28,0,0,0,4.44,4.42,11.33,11.33,0,0,0,5.88,1,10.17,10.17,0,0,0,5.08-1.84,11.68,11.68,0,0,0,3.06-3.63,30.8,30.8,0,0,1,2.18-3.39,8.23,8.23,0,0,1,2.29-2,5,5,0,0,1,1.81-.67A2.52,2.52,0,0,1,300.06,172.14Z" style="fill:#fff"></path><path d="M332,181.2a1.87,1.87,0,0,1-.54,0l-1.54-.12a32,32,0,0,0-5.65-.21,11,11,0,0,0-3.7,1,6.29,6.29,0,0,0-3.06,3,4.62,4.62,0,0,0,.1,4.51,3.77,3.77,0,0,0,4.41,1.36,2.92,2.92,0,0,0,1.53-1.87,5,5,0,0,0,0-2.48,7.92,7.92,0,0,0-2.58-4,11.82,11.82,0,0,0-7.64-2.7,20.36,20.36,0,0,0-5.57.8c-1.29.36-2,.62-2,.58a2.05,2.05,0,0,1,.49-.24c.33-.13.81-.32,1.45-.53a18.72,18.72,0,0,1,5.63-1,12.07,12.07,0,0,1,8,2.71,8.28,8.28,0,0,1,2.75,4.23,5.3,5.3,0,0,1,0,2.74,3.42,3.42,0,0,1-1.81,2.2,4.27,4.27,0,0,1-5.05-1.54,5.07,5.07,0,0,1-.11-5,6.73,6.73,0,0,1,3.3-3.16,11.07,11.07,0,0,1,3.86-1,28,28,0,0,1,5.7.37l1.53.22A2.1,2.1,0,0,1,332,181.2Z" style="fill:#fff"></path><path d="M339.1,185.64c.06,0,0,.44-.35,1a5.45,5.45,0,0,1-1.85,1.88,5.59,5.59,0,0,1-2.51.83c-.68,0-1.09-.08-1.08-.14a11.21,11.21,0,0,0,3.32-1.13A10.75,10.75,0,0,0,339.1,185.64Z" style="fill:#fff"></path><path d="M322.56,165.31c.05,0-.1.41-.55.87a4.51,4.51,0,0,1-4.64,1c-.6-.23-.9-.5-.86-.55a7.75,7.75,0,0,0,3.21.19A7.85,7.85,0,0,0,322.56,165.31Z" style="fill:#fff"></path><path d="M289.22,194.52a18.38,18.38,0,0,0-3.51,3.81,18.1,18.1,0,0,0-1.83,4.85,3.37,3.37,0,0,1,0-1.57,10.12,10.12,0,0,1,3.91-6.35A3.56,3.56,0,0,1,289.22,194.52Z" style="fill:#fff"></path><path d="M303.73,195.15a20.93,20.93,0,0,1-1.76-2.24,20,20,0,0,1-1.86-2.16,5.19,5.19,0,0,1,2.26,1.83A5.1,5.1,0,0,1,303.73,195.15Z" style="fill:#fff"></path><path d="M333.6,210.38c-.06.07-.61-.46-1.65-1.07a11,11,0,0,0-4.4-1.46,11.27,11.27,0,0,0-4.62.48c-1.14.38-1.79.78-1.84.7a4.49,4.49,0,0,1,1.71-1,10,10,0,0,1,9.35,1A4.45,4.45,0,0,1,333.6,210.38Z" style="fill:#fff"></path><path d="M305.22,232c0,.06-.83,0-2.25.37a24.47,24.47,0,0,0-5.65,2.56,29.88,29.88,0,0,1-3.92,1.9,12.17,12.17,0,0,1-4.94.83,12.55,12.55,0,0,1-5.36-1.43,11.93,11.93,0,0,1-4.42-4,12.45,12.45,0,0,1-2.09-5.58,8.37,8.37,0,0,1,.12-2.87,4.5,4.5,0,0,1,1.37-2.42,3.09,3.09,0,0,1,2.59-.65,2.43,2.43,0,0,1,2,1.59,2.34,2.34,0,0,1-.64,2.26,4.49,4.49,0,0,1-1.84,1.11,7.2,7.2,0,0,1-3.62.07,7.84,7.84,0,0,1-2.51-1,7.13,7.13,0,0,1-1.33-1.09,2.53,2.53,0,0,1-.37-.46,12.88,12.88,0,0,0,1.81,1.38,8,8,0,0,0,2.47.93,6.85,6.85,0,0,0,3.43-.14,4.06,4.06,0,0,0,1.66-1,1.87,1.87,0,0,0,.52-1.86c-.41-1.36-2.64-1.76-3.81-.7s-1.53,3.07-1.3,4.87a12.05,12.05,0,0,0,2,5.35,11.6,11.6,0,0,0,4.23,3.82,12.26,12.26,0,0,0,5.14,1.4c3.48.21,6.35-1.36,8.66-2.57a22.49,22.49,0,0,1,5.79-2.44,6.8,6.8,0,0,1,1-.15,4.05,4.05,0,0,1,.73-.05A3,3,0,0,1,305.22,232Z" style="fill:#fff"></path><path d="M343.9,268.11a5.78,5.78,0,0,1-.88.71,10.5,10.5,0,0,1-2.93,1.41A11,11,0,0,1,329,267.48a11.67,11.67,0,0,1-2.29-3.28,8.2,8.2,0,0,1-.81-4.26,5.39,5.39,0,0,1,.68-2.23,3.63,3.63,0,0,1,1.85-1.57,4.63,4.63,0,0,1,4.68,1.32c2.5,2.5,2.6,6.92.42,10a10.19,10.19,0,0,1-10.25,3.68A13.15,13.15,0,0,1,318,268.7a20,20,0,0,1-3.85-4,19,19,0,0,0-3.6-3.81,10,10,0,0,0-4.6-1.79,10.48,10.48,0,0,0-4.68.47,13.24,13.24,0,0,0-3.85,2.31,28.3,28.3,0,0,1-3.47,2.55,12.1,12.1,0,0,1-10.5.67,12.14,12.14,0,0,1-4.2-3,11.68,11.68,0,0,1-1.84-2.68,6.28,6.28,0,0,1-.42-1.05,13.65,13.65,0,0,0,2.41,3.6,11.93,11.93,0,0,0,4.16,2.83,11.61,11.61,0,0,0,6.57.6,11.41,11.41,0,0,0,3.62-1.35,27.28,27.28,0,0,0,3.4-2.54,13.57,13.57,0,0,1,4-2.4,10.75,10.75,0,0,1,4.9-.51,10.32,10.32,0,0,1,4.83,1.86,19.3,19.3,0,0,1,3.71,3.89,19.44,19.44,0,0,0,3.76,3.93,12.68,12.68,0,0,0,5,2.29,9.66,9.66,0,0,0,9.72-3.47c2.06-2.83,2-7-.33-9.31a4.17,4.17,0,0,0-4.19-1.23,3.82,3.82,0,0,0-2.27,3.42,7.78,7.78,0,0,0,.76,4,11.19,11.19,0,0,0,2.18,3.19,10.89,10.89,0,0,0,5.8,3.1,11.24,11.24,0,0,0,5-.28A12.54,12.54,0,0,0,343.9,268.11Z" style="fill:#fff"></path><path d="M323.11,142.52c2.8-1.3,4.56-4.17,5.59-7.08s1.51-6,2.65-8.88c.86-2.14-.08-5.55,1.84-6.83,2.4-1.59,2.38-5.81,1.45-7.92-1-2.3-3.75-4-3.94-4.73-.49-1.91,1.17-4,.56-5.85-1.45-4.4-5-3.82-5-3.82-1.63-2-3.84-4.59-7.42-5.52-3.89-1-9.62-1.75-13.08.29s-6,3.39-7.12,7.25" style="fill:#263238"></path><path d="M326.65,115.69A18.89,18.89,0,0,0,308.12,98h-1c-10.55.43-16.08,9.64-15.35,20.18l-.92,34.62L315.6,169.4l1.55-8.16v-9.88s10.16-1.4,10.46-11.54C327.76,134.93,327.23,124.83,326.65,115.69Z" style="fill:#e1957a"></path><path d="M324.16,123.25a1.46,1.46,0,0,1-1.42,1.44,1.38,1.38,0,0,1-1.47-1.33,1.44,1.44,0,0,1,1.42-1.44A1.39,1.39,0,0,1,324.16,123.25Z" style="fill:#263238"></path><path d="M324.55,120.08c-.18.18-1.27-.65-2.82-.67s-2.72.74-2.88.54.11-.42.61-.77a3.94,3.94,0,0,1,2.31-.67,3.81,3.81,0,0,1,2.24.76C324.48,119.65,324.64,120,324.55,120.08Z" style="fill:#263238"></path><path d="M309.05,123.25a1.44,1.44,0,0,1-1.42,1.44,1.38,1.38,0,0,1-1.47-1.33,1.45,1.45,0,0,1,1.42-1.44A1.38,1.38,0,0,1,309.05,123.25Z" style="fill:#263238"></path><path d="M309,119.37c-.16.21-1.32-.5-2.87-.35s-2.62,1-2.81.85.06-.43.53-.84a3.94,3.94,0,0,1,2.22-.92,3.85,3.85,0,0,1,2.31.52C308.92,119,309.11,119.28,309,119.37Z" style="fill:#263238"></path><path d="M314.53,132.28a10.6,10.6,0,0,1,2.54-.41c.39,0,.77-.11.84-.38a2,2,0,0,0-.24-1.18l-1.13-3c-1.56-4.34-2.68-7.91-2.5-8s1.58,3.41,3.14,7.75l1.07,3.07a2.21,2.21,0,0,1,.18,1.56,1,1,0,0,1-.66.57,2.16,2.16,0,0,1-.68.08A9.89,9.89,0,0,1,314.53,132.28Z" style="fill:#263238"></path><path d="M309.05,116.76c-.18.41-1.72.09-3.56.16s-3.35.44-3.56,0c-.09-.19.19-.56.82-.92a6,6,0,0,1,2.7-.71,5.84,5.84,0,0,1,2.73.56C308.83,116.21,309.14,116.57,309.05,116.76Z" style="fill:#263238"></path><path d="M323.89,116.09c-.28.35-1.34,0-2.63-.08s-2.39.2-2.64-.18c-.1-.18.08-.53.56-.85a3.62,3.62,0,0,1,2.15-.55,3.67,3.67,0,0,1,2.09.75C323.87,115.55,324,115.92,323.89,116.09Z" style="fill:#263238"></path><path d="M299.36,98.7a7.67,7.67,0,0,0,9.05,7.58c1.72-.31,3.6-1.18,5.08-.26s1.63,3.31,3,4.51c2,1.72,5.12.11,7.63.85,1.94.58,3.15,2.43,4.44,4s3.22,3,5.16,2.46a22.51,22.51,0,0,0-.77-5.17,7.6,7.6,0,0,0-2.94-4.21c-.8-.53-1.73-.85-2.48-1.45-1.61-1.3-2-3.56-3-5.37a8.43,8.43,0,0,0-6.41-4.25c-2.21-.23-4.48.43-6.64-.11-1.59-.4-3-1.43-4.59-1.74-3.13-.6-6.05,1.66-8.33,3.9" style="fill:#263238"></path><path d="M309.4,103.17c-1.41-.4-4.28-1.32-5-2.54a8.6,8.6,0,0,0-7.48-4.29,7.1,7.1,0,0,0-6.39,5.61,10.2,10.2,0,0,0-8.77,5.64,11.85,11.85,0,0,0,.32,11,5.87,5.87,0,0,1,1.15,2.71c0,1.25-.91,2.24-1.56,3.27-1.78,2.82-1.64,6.69-.27,9.75s2.34,4.15,4.3,4.76c3.83,1.2,0,8.9,6.39,8.9l1.28-22.81a2.44,2.44,0,0,0,.6.22c3.77.85,4.27-6.51,3.42-8.62a21.93,21.93,0,0,0,3.79-4,15.85,15.85,0,0,0,1.73-7.62C304.23,105.26,310,103.34,309.4,103.17Z" style="fill:#263238"></path><path d="M293.86,125.32c-.17-.08-6.93-2.18-6.82,4.75s7,5.4,7,5.2S293.86,125.32,293.86,125.32Z" style="fill:#e1957a"></path><path d="M291.93,132.68s-.12.08-.32.18a1.22,1.22,0,0,1-.9,0,3,3,0,0,1-1.43-2.66,4,4,0,0,1,.32-1.73,1.38,1.38,0,0,1,.89-.94.61.61,0,0,1,.72.32c.09.19.05.33.09.34s.15-.12.09-.4a.84.84,0,0,0-.28-.43.9.9,0,0,0-.67-.17,1.68,1.68,0,0,0-1.25,1.09,4.09,4.09,0,0,0-.39,1.94,3.13,3.13,0,0,0,1.81,3,1.28,1.28,0,0,0,1.1-.2C291.92,132.85,292,132.69,291.93,132.68Z" style="fill:#b96346"></path><path d="M282.36,136.37a4.3,4.3,0,0,1-.78,6.52,2.79,2.79,0,0,0,2.1.72c.27.88-1,1.47-1.21,2.35a1.59,1.59,0,0,0,.49,1.5,3.92,3.92,0,0,0,1.43.79,15.36,15.36,0,0,0,4.79.92,3.21,3.21,0,0,0,2.63-.81,3.63,3.63,0,0,0,.59-2.25q.08-3,.17-5.92a2.75,2.75,0,0,0-.31-1.68,2.8,2.8,0,0,0-1.72-.92l-8.4-2.14" style="fill:#263238"></path><path d="M317.4,137.3a7,7,0,0,1-2.7.19,7.32,7.32,0,0,1-2.67-.34,7.08,7.08,0,0,1,2.69-.18A7.33,7.33,0,0,1,317.4,137.3Z" style="fill:#263238"></path><path d="M317.15,151.36s-9.24-1.42-14.62-5.52c0,0,2.84,8.45,14.61,8.69Z" style="fill:#b96346"></path></g><g id="character-1"><path d="M154.33,463c-.12-.05,1.43-8.93,1.43-8.93l19.09,2.41-2.55,10-11.31.38Z" style="fill:#ffbe9d"></path><path d="M153.53,462.7l0,1.23s-21.1,8.19-21.38,12.17l41.72.29-.47-13.88A23.94,23.94,0,0,1,153.53,462.7Z" style="fill:#FF725E"></path><g style="opacity:0.6000000000000001"><path d="M169.12,466.91a1.71,1.71,0,0,1,1.17,2,1.65,1.65,0,0,1-1.93,1.17,1.8,1.8,0,0,1-1.22-2.08,1.7,1.7,0,0,1,2.14-1" style="fill:#fff"></path></g><g style="opacity:0.6000000000000001"><path d="M173.85,476.39l-.11-3.34L133.8,474s-1.87.79-1.67,2.1Z" style="fill:#fff"></path></g><path d="M153.37,464.05c0,.2,1,.3,2,1s1.52,1.52,1.71,1.44-.11-1.26-1.33-2S153.32,463.86,153.37,464.05Z" style="fill:#263238"></path><path d="M149,465.83c0,.2.83.55,1.52,1.42s.88,1.77,1.08,1.77.34-1.16-.53-2.22S149,465.64,149,465.83Z" style="fill:#263238"></path><path d="M146.46,471.05c.18,0,.47-1,0-2.09s-1.47-1.57-1.55-1.4.49.77.9,1.69S146.26,471,146.46,471.05Z" style="fill:#263238"></path><polygon points="240.19 463.17 240.37 453.93 222.01 455.1 222.62 466.39 233.93 466.77 240.19 463.17" style="fill:#ffbe9d"></polygon><path d="M241.38,462.63l0,1.23s21.11,8.19,21.38,12.17l-41.71.29.47-13.89A23.88,23.88,0,0,0,241.38,462.63Z" style="fill:#FF725E"></path><g style="opacity:0.6000000000000001"><path d="M225.79,466.84a1.72,1.72,0,0,0-1.16,2,1.64,1.64,0,0,0,1.92,1.17,1.81,1.81,0,0,0,1.23-2.08,1.71,1.71,0,0,0-2.14-1" style="fill:#fff"></path></g><g style="opacity:0.6000000000000001"><path d="M221.07,476.32l.11-3.34,39.94.95s1.86.79,1.66,2.1Z" style="fill:#fff"></path></g><path d="M241.55,464c0,.2-1,.3-2,1s-1.53,1.53-1.71,1.45.1-1.26,1.32-2S241.59,463.79,241.55,464Z" style="fill:#263238"></path><path d="M245.94,465.76c.05.2-.83.55-1.52,1.42s-.88,1.77-1.08,1.77-.34-1.16.53-2.22S245.93,465.57,245.94,465.76Z" style="fill:#263238"></path><path d="M248.46,471c-.19,0-.48-1,0-2.09s1.46-1.57,1.55-1.4-.5.77-.91,1.69S248.66,471,248.46,471Z" style="fill:#263238"></path><path d="M197.3,124.62c-2.41,6.94-5.12,14.41-2.9,21.42.84,2.68,2.37,5.16,2.74,8,.44,3.41-.91,6.77-1.35,10.19-.7,5.57-.84,12.11,3,16.21A16.34,16.34,0,0,1,209,179c.52-1.69,1.79-7.36,1.68-9.13-.8-13.84-.35-40.54,3.8-55.49C214.43,114.33,201.13,113.61,197.3,124.62Z" style="fill:#263238"></path><path d="M235.86,128.81l.25-3.62L214.56,120c-6.68-1-14.27,5.31-15,12-.85,7.46-1.59,16.6-1,22.23,1.21,11.32,9.75,13.18,9.75,13.18l-.38,11.7a12.16,12.16,0,0,0,12.35,12.54h0A13,13,0,0,0,233,179.37Z" style="fill:#ffbe9d"></path><path d="M201.66,140.19a1.45,1.45,0,0,0,1.32,1.52,1.38,1.38,0,0,0,1.55-1.22,1.45,1.45,0,0,0-1.31-1.53A1.39,1.39,0,0,0,201.66,140.19Z" style="fill:#263238"></path><path d="M201.65,136.86c.17.2,1.3-.55,2.85-.47s2.65.91,2.83.73-.08-.42-.56-.81a4,4,0,0,0-2.25-.82,3.85,3.85,0,0,0-2.28.61C201.75,136.44,201.57,136.77,201.65,136.86Z" style="fill:#263238"></path><path d="M216.85,140.84a1.46,1.46,0,0,0,1.32,1.53,1.39,1.39,0,0,0,1.55-1.23,1.45,1.45,0,0,0-1.32-1.52A1.39,1.39,0,0,0,216.85,140.84Z" style="fill:#263238"></path><path d="M216.87,137.92c.17.2,1.3-.55,2.85-.47s2.64.92,2.82.73-.08-.42-.55-.81a4,4,0,0,0-2.25-.82,3.8,3.8,0,0,0-2.28.61C217,137.5,216.78,137.83,216.87,137.92Z" style="fill:#263238"></path><path d="M210.66,149.13a10.07,10.07,0,0,0-2.49-.58c-.39-.06-.76-.16-.82-.44a2,2,0,0,1,.33-1.15l1.32-3c1.84-4.2,3.2-7.67,3-7.74s-1.81,3.27-3.65,7.48c-.44,1-.87,2-1.27,3a2.34,2.34,0,0,0-.29,1.55,1,1,0,0,0,.63.61,3.18,3.18,0,0,0,.66.13A10.1,10.1,0,0,0,210.66,149.13Z" style="fill:#263238"></path><path d="M208.28,167.41a29.72,29.72,0,0,0,15.62-3.25s-4.19,7.67-15.76,6.05Z" style="fill:#eb996e"></path><path d="M211.45,153.24a2.79,2.79,0,0,1,2.55-.91,2.57,2.57,0,0,1,1.72,1,1.64,1.64,0,0,1,0,1.86,1.91,1.91,0,0,1-2.06.41,5.85,5.85,0,0,1-1.92-1.29,1.6,1.6,0,0,1-.42-.48.49.49,0,0,1,0-.57" style="fill:#eb996e"></path><path d="M216.78,134.11c.2.4,1.72,0,3.55,0s3.35.34,3.55-.06c.09-.2-.21-.56-.85-.9a6.12,6.12,0,0,0-5.41,0C217,133.55,216.69,133.91,216.78,134.11Z" style="fill:#263238"></path><path d="M202,133.18c.25.36,1.34,0,2.62.1s2.36.36,2.63,0c.12-.17,0-.53-.49-.89a3.61,3.61,0,0,0-2.1-.68,3.57,3.57,0,0,0-2.13.6C202,132.65,201.86,133,202,133.18Z" style="fill:#263238"></path><path d="M217.33,153.34a11.43,11.43,0,0,1-3.29.94,11.55,11.55,0,0,1-3.39.44,11.15,11.15,0,0,1,3.29-.95A11,11,0,0,1,217.33,153.34Z" style="fill:#263238"></path><path d="M243.31,255.53c0,.7,4.86,13.77,4.86,13.77s10.28,24,7.88,47.44c-.84,8.2-9.1,59.55-9.1,59.55s-2.95,38-4.12,54.48c-1.25,17.48-1.59,23.71-1.59,23.71l-20.71.66-4.21-73.29-3.83-59-21.27,73.87s-5.07,22.39-7.84,31.85-9,29.56-9,29.56L155,455.3s2.09-35.24,3.93-43.78,8-39.19,8-39.19l5.43-29.81L178.1,294l5.05-18.65,6.27-21.1Z" style="fill:#263238"></path><path d="M209.49,306.7c-.14,0-1-7.88-1.8-17.62s-1.42-17.64-1.28-17.66,1,7.88,1.8,17.62S209.63,306.69,209.49,306.7Z" style="fill:#455a64"></path><path d="M246.39,275.45a3.41,3.41,0,0,1-.75.73,12,12,0,0,1-2.4,1.52,13.68,13.68,0,0,1-17-4,12.44,12.44,0,0,1-1.47-2.43,3.3,3.3,0,0,1-.34-1,25.72,25.72,0,0,0,2.1,3.19,13.86,13.86,0,0,0,16.56,3.92A26.52,26.52,0,0,0,246.39,275.45Z" style="fill:#455a64"></path><path d="M210.94,273.41s.13-.13.45-.17a1.75,1.75,0,0,1,1.26.43,1.72,1.72,0,0,1,.57,1.9,2.06,2.06,0,0,1-2,1.42,2.16,2.16,0,0,1-1.91-1.52,2,2,0,0,1,.43-1.94,2.07,2.07,0,0,1,1.14-.67c.31-.06.48,0,.48,0a3.11,3.11,0,0,0-1.33.9,1.63,1.63,0,0,0-.26,1.55,1.72,1.72,0,0,0,1.47,1.15,1.62,1.62,0,0,0,1.5-1.06,1.36,1.36,0,0,0-.36-1.47A2.15,2.15,0,0,0,210.94,273.41Z" style="fill:#455a64"></path><path d="M193.35,271.68a4.5,4.5,0,0,1-.42,1.91,10.29,10.29,0,0,1-6.89,6.13,4.48,4.48,0,0,1-1.95.2c0-.09.73-.18,1.85-.55a11.51,11.51,0,0,0,6.65-5.92A18.45,18.45,0,0,1,193.35,271.68Z" style="fill:#455a64"></path><path d="M187.1,186.26a34.1,34.1,0,0,0-7.71,11.21c-3.53,8.89-16.91,39.26-17.15,44.49s-1,10.69,2.73,11.68,17.66.5,17.66.5l36.8-15.42-2.74-15.64-33.24,8.47s-3.06-15.77.17-22.7,11.65-28,11.65-28S189.68,183.66,187.1,186.26Z" style="fill:#455a64"></path><path d="M208,177.13s1.82,9.33,7.73,8.69,13.77-11.39,13.77-11.39,14.55-2.75,19.21,1,.54,33.27-.51,44.86-2.65,25.05-2.65,25.05,2.94,13.17,1.69,15.43c-3.43,6.21-29,11.3-50.49,10.56-4.91-.17-12.05-7-12.47-8.45s-.84-4.67,1.38-7-3.71-32.85-3.71-32.85-1.32-8.85.71-12.67,12.64-29.55,12.64-29.55C199.32,178.8,203.44,178.43,208,177.13Z" style="fill:#455a64"></path><path d="M217,225.64s16.61-1.29,18.34,0,12.8,13.38,13.08,14.53a6.92,6.92,0,0,1,0,2.59s3.17,2.87,2.16,3.59-1.87,0-2.87,0-3.17-3.3-3.17-3.3l3,5.64s-1.58,0-2.87,0-4.46-4.93-4.46-4.93l-3.17-3.59,4.75,8.53s-.43,2.18-2,1.28-6.91-6.07-6.91-6.07-9.2-8.77-9.49-10.36l-4.4,2.84Z" style="fill:#ffbe9d"></path><path d="M185,231.56s-2.46-6-3.38-5.91-5.29,3.12-4.69,5.22,5,1.47,5,1.47Z" style="fill:#ffbe9d"></path><path d="M231.85,184.75a12.32,12.32,0,0,1,15.07-9.93,6.21,6.21,0,0,1,4.09,2.73c3.23,5.72,3.23,18.15,2,23.38s-12.93,45.89-17.16,49-36.3,16.1-53.21,4.16l38.29-22.63,9.7-39.81Z" style="fill:#455a64"></path><path d="M247.88,218.76a2.47,2.47,0,0,1-.09.36l-.29,1-1.19,4c-1.07,3.43-2.62,8.39-4.77,14.44-.54,1.51-1.12,3.09-1.77,4.72a28.36,28.36,0,0,1-2.38,5,13.86,13.86,0,0,1-4.77,3.46,50.28,50.28,0,0,1-5.76,2.36c-4,1.39-8.33,2.55-12.83,3.62-2.26.51-4.53,1.08-6.89,1.49a39.68,39.68,0,0,1-7.26.62,29.32,29.32,0,0,1-9.23-1.51c-1.47-.51-2.82-1.09-4.23-1.69a11.1,11.1,0,0,1-3.42-2.92l-.19-.24.28-.14c8.43-4.27,15.76-8.92,22.14-12.71s11.74-6.9,15.63-9.17l-.06.08c.74-2.8,1.32-5,1.72-6.46.18-.71.32-1.27.41-1.67l.1-.43c0-.09,0-.14,0-.14a9.77,9.77,0,0,1-.4,2.27c-.34,1.48-.88,3.67-1.61,6.49v.05l-.05,0-15.54,9.3c-6.36,3.83-13.67,8.51-22.12,12.81l.08-.37a10.55,10.55,0,0,0,3.25,2.76c1.32.56,2.75,1.17,4.16,1.66a28.88,28.88,0,0,0,9.07,1.48,39.66,39.66,0,0,0,7.17-.61c2.33-.41,4.62-1,6.86-1.48,4.49-1.05,8.79-2.21,12.79-3.57a49.68,49.68,0,0,0,5.71-2.32A13.32,13.32,0,0,0,237,248a27.79,27.79,0,0,0,2.36-4.85q1-2.43,1.79-4.7c2.2-6,3.8-11,4.92-14.37l1.29-3.92c.14-.43.26-.77.34-1A1.8,1.8,0,0,1,247.88,218.76Z" style="fill:#263238"></path><path d="M217,225.64a9.14,9.14,0,0,1-1.64.37l-4.51.81c-3.81.67-9.07,1.57-14.87,2.67s-11,2.17-14.77,3.1a20.56,20.56,0,0,0-4.25,1.59c-.94.51-1.42.88-1.44.84s.09-.12.31-.3a10.6,10.6,0,0,1,1-.71,17.88,17.88,0,0,1,4.25-1.77c3.75-1,9-2.16,14.78-3.27s11.08-1.94,14.9-2.52c1.91-.28,3.46-.5,4.54-.64A11.87,11.87,0,0,1,217,225.64Z" style="fill:#263238"></path><path d="M193.13,188.79a11.73,11.73,0,0,1-.81,1.58L190,194.59a73.59,73.59,0,0,0-6.33,14.53,34.09,34.09,0,0,0-.95,15.66,25.91,25.91,0,0,0,1.35,4.6,13.91,13.91,0,0,1,.65,1.64,1.46,1.46,0,0,1-.24-.39,10.81,10.81,0,0,1-.6-1.17,22.6,22.6,0,0,1-1.52-4.61,32.86,32.86,0,0,1,.81-15.87,66.8,66.8,0,0,1,6.51-14.57c1-1.77,1.87-3.18,2.48-4.15A11.56,11.56,0,0,1,193.13,188.79Z" style="fill:#263238"></path><path d="M209.72,257.19c-.09,0,0-1-.16-2.48A17.46,17.46,0,0,0,208,249a17.93,17.93,0,0,0-3.42-4.82c-1.09-1.07-1.88-1.61-1.82-1.69a7.33,7.33,0,0,1,2.07,1.42,15.39,15.39,0,0,1,5.11,10.76A7.32,7.32,0,0,1,209.72,257.19Z" style="fill:#fff"></path><path d="M225.57,254c-.1,0-.06-1.28-.37-3.3a22.49,22.49,0,0,0-.84-3.48,24.52,24.52,0,0,0-1.77-4,24.89,24.89,0,0,0-2.51-3.59,23,23,0,0,0-2.55-2.52c-1.56-1.31-2.68-1.93-2.63-2a3.46,3.46,0,0,1,.81.38,14.78,14.78,0,0,1,2,1.36,19.2,19.2,0,0,1,2.68,2.49,22.18,22.18,0,0,1,2.6,3.64,22.42,22.42,0,0,1,1.78,4.11,20.53,20.53,0,0,1,.75,3.58,15,15,0,0,1,.1,2.45A3.31,3.31,0,0,1,225.57,254Z" style="fill:#fff"></path><path d="M241.53,237.3c-.07.06-.81-1-2.25-2.46a23.66,23.66,0,0,0-2.72-2.37,25.21,25.21,0,0,0-3.75-2.29,25.88,25.88,0,0,0-4.12-1.57,24.18,24.18,0,0,0-3.53-.71c-2-.25-3.33-.18-3.33-.27a2.8,2.8,0,0,1,.9-.12,15.82,15.82,0,0,1,2.47,0,21.85,21.85,0,0,1,3.62.61,24.13,24.13,0,0,1,4.22,1.57,23.62,23.62,0,0,1,3.81,2.38,21.11,21.11,0,0,1,2.7,2.49,15.77,15.77,0,0,1,1.53,1.94A3,3,0,0,1,241.53,237.3Z" style="fill:#fff"></path><path d="M248,219.82a33.37,33.37,0,0,0-7-4.71,34.6,34.6,0,0,0-8.07-2.35,8,8,0,0,1,2.5.12A21.09,21.09,0,0,1,246.35,218,7.83,7.83,0,0,1,248,219.82Z" style="fill:#fff"></path><path d="M252.09,202.24a13.12,13.12,0,0,1-.83-1.45,10.36,10.36,0,0,0-6.19-4.62,11.52,11.52,0,0,1-1.63-.39,3.86,3.86,0,0,1,1.71,0,9,9,0,0,1,6.43,4.8A3.48,3.48,0,0,1,252.09,202.24Z" style="fill:#fff"></path><path d="M181.69,213.5a14.19,14.19,0,0,0-4.53-.81,14,14,0,0,0-4.44,1.17c0-.05.35-.43,1.13-.84a7.81,7.81,0,0,1,3.29-.85,7.9,7.9,0,0,1,3.35.58C181.3,213.1,181.72,213.45,181.69,213.5Z" style="fill:#fff"></path><path d="M189.69,194.13a14.13,14.13,0,0,0-4.09-1.3,14.35,14.35,0,0,0-4.26.46s.38-.35,1.15-.62a7.47,7.47,0,0,1,3.16-.36,7.55,7.55,0,0,1,3,1C189.39,193.7,189.73,194.08,189.69,194.13Z" style="fill:#fff"></path><path d="M179.72,231.91c0,.09-1.19.4-3.06,1.13a30.89,30.89,0,0,0-6.84,3.78,30.47,30.47,0,0,0-5.64,5.41c-1.26,1.56-1.91,2.63-2,2.59a2.74,2.74,0,0,1,.38-.8,18.83,18.83,0,0,1,1.32-2,26.68,26.68,0,0,1,12.64-9.3,19.08,19.08,0,0,1,2.31-.66A3.53,3.53,0,0,1,179.72,231.91Z" style="fill:#fff"></path><path d="M185.12,251s-.19-.21-.44-.65a12.74,12.74,0,0,1-.91-2,18.55,18.55,0,0,1,.36-13.89,14.54,14.54,0,0,1,1-1.9c.28-.43.45-.65.48-.63s-.5,1-1.15,2.67a20.36,20.36,0,0,0-.35,13.63C184.67,250,185.2,251,185.12,251Z" style="fill:#fff"></path><path d="M205.14,240.9a4.92,4.92,0,0,1-1.68-1.09,11.22,11.22,0,0,1-3.74-8.69,4.81,4.81,0,0,1,.35-2,18.46,18.46,0,0,1,0,2,12.66,12.66,0,0,0,3.64,8.42C204.56,240.39,205.19,240.82,205.14,240.9Z" style="fill:#fff"></path><path d="M193.93,181c.09-.11.95.61,1.25,1.9s-.12,2.32-.25,2.26,0-1-.25-2.14S193.82,181.1,193.93,181Z" style="fill:#fff"></path><path d="M253.1,190.09c-.07,0-.48-.54-1.3-1.3a10.46,10.46,0,0,0-8-2.7,18,18,0,0,1-1.82.25,4.06,4.06,0,0,1,1.77-.61,9.27,9.27,0,0,1,4.52.36,9.41,9.41,0,0,1,3.82,2.44A4.08,4.08,0,0,1,253.1,190.09Z" style="fill:#fff"></path><path d="M229.33,215.35a21.74,21.74,0,0,1,5.94-5.49c6.36-4,9.87-11.3,7-16.7-4.34-8.06,8.31-12.52,5.54-18.73-1.55-3.47-2.87-3.42-4.45-6.88-2.47-5.4-1.41-11.66-1.26-17.6.28-11.83-2.23-26.19-12.32-33.49a.29.29,0,0,1,0,.09,21.18,21.18,0,0,0-3.87-1.93,13.82,13.82,0,0,0-3.14-.87,35.54,35.54,0,0,0-3.86-.11l-1.36,0a13.67,13.67,0,0,0-2.55.17,4.52,4.52,0,0,0-2.07,1.12l-1.29,2.7a15.75,15.75,0,0,0-7.76,3.59c-3.65,3.08-6.05,7.35-8.38,11.52a35.29,35.29,0,0,0,12.27-7.9c-.44.73-.89,1.45-1.34,2.17a8,8,0,0,0,6.73-2.23,18,18,0,0,0,3.18-4.06,13.05,13.05,0,0,0,4.65,7.84,22.79,22.79,0,0,0,7.33,3.94,14.61,14.61,0,0,0,0,1.75c.33,6.49,5,12.83,3,19-1.5,4.54-6.29,7.46-7.52,12.07s1.49,9.41,1.42,14.21c-.1,6.72-5.51,12.06-8,18.33-3.14,8.1-4.3,20.43.42,27.72l4.33-.28Z" style="fill:#263238"></path><path d="M206.38,124.63a4.2,4.2,0,0,0,1.64-.89,12.77,12.77,0,0,0,4.87-7.41,4.32,4.32,0,0,0,.16-1.85c-.18,0-.51,2.82-2.42,5.68A23.14,23.14,0,0,1,206.38,124.63Z" style="fill:#455a64"></path><path d="M196.26,151.3c.05,0-.17-.57-.37-1.61a18.76,18.76,0,0,1-.2-4.46c.12-1.9.31-4.17.57-6.67a46.08,46.08,0,0,1,1.52-8,23.14,23.14,0,0,1,3.55-7.25,27.63,27.63,0,0,1,4.62-4.75c1.47-1.21,2.74-2.08,3.62-2.69a10.13,10.13,0,0,0,1.35-1,8.74,8.74,0,0,0-1.47.78,37,37,0,0,0-3.75,2.56,26,26,0,0,0-4.79,4.75,22.71,22.71,0,0,0-3.68,7.4,43.28,43.28,0,0,0-1.5,8.12c-.23,2.52-.38,4.78-.44,6.7a16.46,16.46,0,0,0,.38,4.53,9.47,9.47,0,0,0,.39,1.18A1.62,1.62,0,0,0,196.26,151.3Z" style="fill:#455a64"></path><path d="M240.78,145a6.54,6.54,0,0,0,.05-1.45,19.28,19.28,0,0,0-.58-3.89,33.09,33.09,0,0,0-5.78-11.56c-3-4.09-6.33-7.27-8.36-9.85a31.55,31.55,0,0,1-2.26-3.16,7.84,7.84,0,0,0-.77-1.22,6.14,6.14,0,0,0,.58,1.33,24,24,0,0,0,2.13,3.3c2,2.68,5.25,5.9,8.22,9.94a35.42,35.42,0,0,1,5.85,11.32A35.72,35.72,0,0,1,240.78,145Z" style="fill:#455a64"></path></g><g id="Floor"><path d="M456.3,476.2c0,.15-92.37.26-206.29.26S43.7,476.35,43.7,476.2s92.35-.26,206.31-.26S456.3,476.06,456.3,476.2Z" style="fill:#263238"></path></g><g id="speech-bubbles"><path d="M164.9,169.27l-5.18-9.13a24.45,24.45,0,1,0-5.86,6.52h0Z" style="fill:#fafafa"></path><path d="M164.9,169.27l-11.07-2.48a.12.12,0,0,1-.1-.15.08.08,0,0,1,0,0h0l.18.18a24.37,24.37,0,0,1-11.74,5,21.46,21.46,0,0,1-3.88.2c-.67,0-1.35-.05-2-.11l-2.07-.31A24.55,24.55,0,0,1,115,141.3a24.17,24.17,0,0,1,5.25-10.09,24.51,24.51,0,0,1,20.45-8.43,24.11,24.11,0,0,1,10.09,3,24.87,24.87,0,0,1,11.63,14.33,26.68,26.68,0,0,1,1.06,8,24.35,24.35,0,0,1-3.68,12.13v-.12l5.07,9.19c-.43-.75-2-3.42-5.29-9.07a.12.12,0,0,1,0-.13,24.29,24.29,0,0,0,3.53-12,26.5,26.5,0,0,0-1.09-7.84,24.51,24.51,0,0,0-11.47-14,23.67,23.67,0,0,0-9.89-2.9,24.56,24.56,0,0,0-10.77,1.66,24.25,24.25,0,0,0-9.25,6.61,23.78,23.78,0,0,0-5.15,9.88,24.22,24.22,0,0,0,18.77,29.68l2,.32c.68.06,1.34.07,2,.11a21.77,21.77,0,0,0,3.82-.17,24.23,24.23,0,0,0,11.63-4.82.14.14,0,0,1,.19,0,.14.14,0,0,1,0,.15v0l-.07-.21Z" style="fill:#263238"></path><path d="M138.15,157.74l.94-1.85-2.27-4,3.41-4-3.45-3.33,3-5.91a6.27,6.27,0,0,0-1.22,1.45,6,6,0,0,0-6.26-3.22,7.45,7.45,0,0,0-4,2.14,7.67,7.67,0,0,0-2.22,4.06,9.34,9.34,0,0,0,.82,5.82,13.27,13.27,0,0,0,4.31,4.54c2.87,2,6.66,4.46,6.66,4.46Z" style="fill:#FF725E"></path><path d="M150.74,140a7.43,7.43,0,0,0-3.71-2.6,6.07,6.07,0,0,0-4.71.64,5.86,5.86,0,0,0-.82.59l-3,5.91,3.44,3.33-3.41,4,2.28,4-.94,1.84c.84-.54,3.7-2.37,6.3-3.73a13.27,13.27,0,0,0,4.81-4,9.36,9.36,0,0,0,1.51-5.69A7.68,7.68,0,0,0,150.74,140Z" style="fill:#FF725E"></path><path d="M350,122.13l6.1-10.75a28.79,28.79,0,1,1,6.9,7.68h0Z" style="fill:#fafafa"></path><path d="M350,122.13l13-3.19-.07.21h0a.12.12,0,0,1,0-.18.12.12,0,0,1,.16,0,28.66,28.66,0,0,0,13.71,5.68,25.59,25.59,0,0,0,4.5.21c.78,0,1.57-.07,2.36-.14l2.4-.37a28.72,28.72,0,0,0,17.71-11.43,28.23,28.23,0,0,0,4.78-11,28.93,28.93,0,0,0-.35-12.61,27.91,27.91,0,0,0-6.07-11.65,28.49,28.49,0,0,0-10.92-7.8,29,29,0,0,0-12.7-2,28,28,0,0,0-11.67,3.43,28.83,28.83,0,0,0-13.52,16.55A30.78,30.78,0,0,0,352,97.15a28.6,28.6,0,0,0,4.17,14.17.15.15,0,0,1,0,.13c-3.9,6.72-5.77,9.93-6.21,10.68.43-.76,2.22-4,6-10.81v.13a28.56,28.56,0,0,1-4.32-14.29,31.3,31.3,0,0,1,1.24-9.37,29.28,29.28,0,0,1,13.68-16.85,28.55,28.55,0,0,1,11.87-3.51,29.34,29.34,0,0,1,12.93,2,29,29,0,0,1,11.11,7.93,28.49,28.49,0,0,1,6.18,11.86A29.32,29.32,0,0,1,409,102a28.62,28.62,0,0,1-4.88,11.14,29,29,0,0,1-18,11.56l-2.44.37c-.8.07-1.6.08-2.39.13a26.23,26.23,0,0,1-4.56-.24,28.75,28.75,0,0,1-13.82-5.84l.18-.18h0a.12.12,0,0,1,0,.18l-.05,0Z" style="fill:#263238"></path><path d="M377.83,110l1.23-2-2.21-4.78,4.22-4.2-3.61-4.08,4-6.43A7.07,7.07,0,0,0,379.93,90a6.77,6.77,0,0,0-6.81-4.21,8.42,8.42,0,0,0-4.72,2.06,8.85,8.85,0,0,0-2.89,4.4,10.68,10.68,0,0,0,.41,6.68,15,15,0,0,0,4.47,5.54c3.08,2.5,7.15,5.65,7.15,5.65Z" style="fill:#FF725E"></path><path d="M393.7,91.05a8.42,8.42,0,0,0-4-3.28,6.77,6.77,0,0,0-6.38.89l-4,6.43,3.6,4.08-4.22,4.2,2.21,4.78-1.23,2c1-.54,4.42-2.36,7.49-3.67a15.06,15.06,0,0,0,5.81-4.1,10.59,10.59,0,0,0,2.22-6.31A8.71,8.71,0,0,0,393.7,91.05Z" style="fill:#FF725E"></path></g></svg>