<svg xmlns="http://www.w3.org/2000/svg" viewBox="0 0 750 500"><g id="background-complete"><path d="M633.23,364.26a38.76,38.76,0,0,0-16.6-5.71c-2.71-.28-5.68-.2-7.85,1.44-.46.35-.92.86-.81,1.43a1.69,1.69,0,0,0,.77,1c6.75,5.16,17,5.81,24.49,1.86" style="fill:#e0e0e0"></path><path d="M632.8,363.79a82.23,82.23,0,0,1-10.72-9.43,27.13,27.13,0,0,1-6.72-12.44c-.29-1.41-.38-3,.53-4.16,8.55,6.68,15.26,15.31,16.91,26" style="fill:#e0e0e0"></path><path d="M633.14,364.2a39,39,0,0,1,.2-14.08,19,19,0,0,1,7.5-11.62c1.48,3.45.84,7.43-.2,11a53.86,53.86,0,0,1-7.43,15.65" style="fill:#e0e0e0"></path><path d="M641.52,379.21c-5.09.62-9.51,3.3-13.31,6.74A25.19,25.19,0,0,0,620.59,399c5-.31,9.22-3.83,12.29-7.77s5.2-8.27,8.57-12" style="fill:#e0e0e0"></path><path d="M643.34,381.61a32.84,32.84,0,0,1,3.79-31.06c2.9,10.31,1.84,21.95-3.79,31.06" style="fill:#e0e0e0"></path><path d="M654.41,394.79a23.73,23.73,0,0,0-22.7,13.07c-.28.56-.53,1.28-.15,1.78a1.66,1.66,0,0,0,1.5.44c4.47-.29,8.44-3,11.71-6s6.13-6.61,9.74-9.26" style="fill:#e0e0e0"></path><path d="M654.06,394.07a42.27,42.27,0,0,1-.42-23.62c.83-3,2.23-6.24,5-7.66a1,1,0,0,1,.77-.14,1.07,1.07,0,0,1,.49.57,14.13,14.13,0,0,1,1.18,6.77,41.82,41.82,0,0,1-1.06,6.86c-.88,4.2-1.35,8.7-3.65,12.32a25.17,25.17,0,0,0-1.47,2.7c-.43.92-.43,1.24-.83,2" style="fill:#e0e0e0"></path><path d="M683.36,398.44c-2.17-8.26.14-18.27,5.34-25,.38-.5.89-1,1.52-1,1,.08,1.2,1.36,1.16,2.32a45.25,45.25,0,0,1-8,23.69" style="fill:#e0e0e0"></path><path d="M686,400.25c10,2.61,21.55.07,29.89-6.08a24.21,24.21,0,0,0-16.18-2c-5.4,1.24-10.34,3.66-13.71,8.07" style="fill:#e0e0e0"></path><path d="M688.23,394.75c5.62-9.16,16.39-15.14,27.13-15.69-1.24,4.37-4.83,7.76-8.87,9.81s-8.57,2.94-13,3.81c-1.74.34-4.11.71-5.24,2.07" style="fill:#e0e0e0"></path><path d="M683.92,368.07c1.52-5.22,3.05-10.48,3.47-15.89s-.35-11.07-3.16-15.72c-5.25,10.16-5.78,22-.47,32.15" style="fill:#e0e0e0"></path><path d="M701.59,359.13c6.14-11.15,18.66-20.06,31.34-21.31C728,350,714.71,359.39,701.59,359.13" style="fill:#e0e0e0"></path><path d="M697.73,361.32c9.16,1.39,16.95,7.24,25.51,10.79a11.48,11.48,0,0,0,5.77,1.1,4.51,4.51,0,0,0,2.82-8,12.37,12.37,0,0,0-4.19-2.54c-9.31-3.88-19.31-4-29.12-1.62" style="fill:#e0e0e0"></path><path d="M692.43,367.74c2.08.59,2.78,1.67,4.43,3.06a47.49,47.49,0,0,0,19.34,9.94c.74.19,1.71.26,2.07-.41s-.08-1.29-.5-1.81a26.65,26.65,0,0,0-11.68-7.93c-4.46-1.66-8.33-3.66-13.66-3.23" style="fill:#e0e0e0"></path><path d="M686.46,329a36.57,36.57,0,0,0,28.06,9.55,1.91,1.91,0,0,0,1.28-.46c.71-.77-.14-1.95-1-2.59-8.26-6.44-18.25-9.11-28.38-6.5" style="fill:#e0e0e0"></path><path d="M693.54,326.37a39.1,39.1,0,0,1,35-5.78c-4.41,4.35-10.52,6.68-16.68,7.33a53,53,0,0,1-18.34-1.55" style="fill:#e0e0e0"></path><path d="M690.73,308.55c-.81-8.24-.29-14.74-.86-23,0-.66-.19-1.45-.81-1.69-.86-.33-1.58.73-1.86,1.61a26.4,26.4,0,0,0,3.51,22.92" style="fill:#e0e0e0"></path><path d="M690.13,309.46c5.59-3.45,9.77-8,13.65-13.26,2.69-3.69,5-8.11,4.35-12.63-3.78-.08-7.38,2-9.84,4.88a27.46,27.46,0,0,0-5,10.1c-1.09,3.62-1.85,7.35-3.14,10.91" style="fill:#e0e0e0"></path><path d="M703.54,305.73a110.06,110.06,0,0,0,33.57-19.79c-4-1.62-8.6-.65-12.61,1-9.16,3.69-16.64,9.94-21.14,18.73" style="fill:#e0e0e0"></path><path d="M693.9,314c6.2.68,12.5,1.12,18.65.09s11.75-3.4,17.4-5.78a2,2,0,0,0,1.18-.9,1.35,1.35,0,0,0-.42-1.49,3.6,3.6,0,0,0-1.48-.69c-6.15-1.72-12.77-.92-18.81,1.12A87.49,87.49,0,0,0,693.9,314" style="fill:#e0e0e0"></path><path d="M658.51,329.24c-4.23-8.53-4-18.49-.3-27.29,2.57,3.92,2.89,8.91,2.42,13.57s-1.89,9.46-2,14.15" style="fill:#e0e0e0"></path><path d="M641.62,320.72a38.09,38.09,0,0,0-28.29,12c5.27.83,10.7-.53,15.49-2.87s9-5.62,13.27-8.88" style="fill:#e0e0e0"></path><path d="M630.26,316.92c-5.16-.41-10.13-1.05-15.1.47s-9.49,5-11.51,9.76a27.32,27.32,0,0,0,14.16-2.68,80.82,80.82,0,0,0,12.45-7.55" style="fill:#e0e0e0"></path><path d="M647.08,317.1c-4.65-3.05-9.42-6.15-14.83-7.41s-11.68-.33-15.45,3.75c4.38,2.57,9.69,2.87,14.77,2.87s11.3-.06,16.09,1.63" style="fill:#e0e0e0"></path><path d="M647.1,317.34c-7.94-7.8-11-21.81-7.75-32.47a49.43,49.43,0,0,1,7.75,32.47" style="fill:#e0e0e0"></path><path d="M669,295.24c1.49-3.48,2.55-7.14,3.89-10.68a30.83,30.83,0,0,1,5.56-9.85,14.66,14.66,0,0,1,9.84-5.1,39.67,39.67,0,0,1-19.1,25.69" style="fill:#e0e0e0"></path><path d="M665,299.85c-2.47-3.41-5.34-8.05-8.7-10.59s-7.74-4.09-11.84-3.11A27.58,27.58,0,0,0,665,299.85" style="fill:#e0e0e0"></path><path d="M665.78,295.53a58.93,58.93,0,0,1-3.91-12.69c-.66-4.39-.26-9.08,2-12.91,4.36,8.24,5.77,17.09,2.16,25.69" style="fill:#e0e0e0"></path><path d="M669,269.93c2.47-8.17,10-14.19,18-17a6.85,6.85,0,0,1,3.16-.47,2.75,2.75,0,0,1,2.33,1.94c.29,1.39-.86,2.64-1.94,3.56A61.38,61.38,0,0,1,669,269.93" style="fill:#e0e0e0"></path><path d="M669.08,263.25c.31-5.27.64-10.61,2.35-15.61s5-9.67,9.82-11.85c.82,5.32-1.53,10.61-4.36,15.19s-6.24,8.9-7.94,14" style="fill:#e0e0e0"></path><path d="M669,266.88c-2-6-2.26-13.52-5.82-18.71-2.49-3.63-6.49-6.1-8.63-9.94a15.11,15.11,0,0,0,.5,11.28,32.66,32.66,0,0,0,6.6,9.45c2.63,2.81,4.89,4.93,7.35,7.92" style="fill:#e0e0e0"></path><path d="M669,442.24c-.16,0-.3-39.72-.31-88.71s.11-88.73.27-88.73.29,39.72.3,88.73S669.15,442.24,669,442.24Z" style="fill:#e0e0e0"></path><path d="M703.7,323.25a8.88,8.88,0,0,1-1.49.56l-4.11,1.39c-3.47,1.18-8.23,2.89-13.4,5s-9.94,4-12.69,6.36a9.4,9.4,0,0,0-2.55,3.38c-.39.93-.46,1.5-.51,1.49s0-.15,0-.42a6.62,6.62,0,0,1,.3-1.16,8.89,8.89,0,0,1,2.48-3.59,22.54,22.54,0,0,1,5.51-3.42c2.2-1,4.64-2.1,7.24-3.17,5.18-2.12,10-3.78,13.48-4.86,1.75-.55,3.18-.95,4.17-1.21A8.61,8.61,0,0,1,703.7,323.25Z" style="fill:#e0e0e0"></path><path d="M715.08,295.3a2.75,2.75,0,0,1-.42.45l-1.27,1.19-4.76,4.33-15.84,14.1c-6.18,5.5-11.53,10.76-15.23,14.72-1.85,2-3.31,3.62-4.31,4.76l-1.15,1.31a3.12,3.12,0,0,1-.43.44,2.15,2.15,0,0,1,.34-.51c.24-.32.59-.79,1.07-1.38.94-1.19,2.36-2.88,4.18-4.9a200,200,0,0,1,15.15-14.87c6.2-5.49,11.85-10.42,16-14,2-1.73,3.67-3.14,4.88-4.19l1.35-1.11A2.34,2.34,0,0,1,715.08,295.3Z" style="fill:#e0e0e0"></path><path d="M686.12,321c-.17-.07,1.12-3,2.41-6.82s1.91-7,2.08-6.93a23.41,23.41,0,0,1-1.53,7.11,47.13,47.13,0,0,1-1.93,4.78A7.13,7.13,0,0,1,686.12,321Z" style="fill:#e0e0e0"></path><path d="M669,345a7.2,7.2,0,0,1-.95-1.11l-2.44-3.13c-2-2.65-4.89-6.31-8.06-10.31s-6.1-7.59-8.22-10.19c-1-1.24-1.83-2.27-2.49-3.09A6.84,6.84,0,0,1,646,316a8.34,8.34,0,0,1,1,1c.64.69,1.54,1.7,2.63,3,2.2,2.53,5.17,6.09,8.36,10.09s6,7.71,7.93,10.43c1,1.36,1.77,2.46,2.3,3.24A7.3,7.3,0,0,1,669,345Z" style="fill:#e0e0e0"></path><path d="M661.41,335.24a14.12,14.12,0,0,1-3.19-6,17.07,17.07,0,0,1-.72-6l.25,0c-.11.46-.19.7-.24.69s0-.26,0-.73l.25,0a28.06,28.06,0,0,0,1,5.85C659.8,332.65,661.57,335.14,661.41,335.24Z" style="fill:#e0e0e0"></path><path d="M651.58,322.88a9.85,9.85,0,0,0-2.22-1.3,15,15,0,0,0-6.18-.49,37.65,37.65,0,0,0-6.23,1,20.2,20.2,0,0,1-2.56.61,8.89,8.89,0,0,1,2.45-1,28.36,28.36,0,0,1,6.29-1.18,13.31,13.31,0,0,1,6.38.69A3.83,3.83,0,0,1,651.58,322.88Z" style="fill:#e0e0e0"></path><path d="M649.26,319.88c0,.09-1.3-.52-3.42-1.24a34.35,34.35,0,0,0-17.18-1.31c-2.2.39-3.53.8-3.56.71s.3-.17.9-.39a21.15,21.15,0,0,1,2.58-.72,30.18,30.18,0,0,1,17.4,1.33,19.78,19.78,0,0,1,2.44,1.1A3.23,3.23,0,0,1,649.26,319.88Z" style="fill:#e0e0e0"></path><path d="M669,307.21a69,69,0,0,1-2.49-8.64,69.07,69.07,0,0,1-1.93-8.78,71,71,0,0,1,2.49,8.64A71.23,71.23,0,0,1,669,307.21Z" style="fill:#e0e0e0"></path><path d="M669.11,307.21c-.18.06-.89-2.53-2.76-5.17a22.44,22.44,0,0,0-4.06-4.19,3.88,3.88,0,0,1,1.57.81,12.71,12.71,0,0,1,3,3A11.6,11.6,0,0,1,669.11,307.21Z" style="fill:#e0e0e0"></path><path d="M669,421.07c-.06,0-.18-1-.63-2.64a38,38,0,0,0-2.65-6.88c-2.75-5.61-7.74-12.72-14.09-19.85-3.14-3.59-6.19-7-8.78-10.22a71.73,71.73,0,0,1-6.29-9.06,43.94,43.94,0,0,1-3.17-6.73c-.29-.82-.5-1.47-.62-1.92a3.47,3.47,0,0,1-.16-.68s.34.9,1,2.52a49.17,49.17,0,0,0,3.32,6.6,74,74,0,0,0,6.34,8.94c2.6,3.21,5.65,6.58,8.8,10.18,6.37,7.14,11.35,14.34,14,20a34.09,34.09,0,0,1,2.51,7,19.37,19.37,0,0,1,.35,2A3.13,3.13,0,0,1,669,421.07Z" style="fill:#e0e0e0"></path><path d="M700.36,385.64a16.9,16.9,0,0,1-1.65.92,35,35,0,0,0-4.26,2.82,48.43,48.43,0,0,0-5.6,5.1c-2,2.08-4,4.49-6.06,7.08-4.13,5.18-8,9.77-10.31,13.43-1.17,1.82-2,3.35-2.59,4.42a14.7,14.7,0,0,1-.9,1.66,1.39,1.39,0,0,1,.15-.47c.12-.29.29-.74.55-1.29a42,42,0,0,1,2.45-4.54c2.24-3.75,6.08-8.4,10.2-13.57,2.07-2.59,4.12-5,6.13-7.08a45.77,45.77,0,0,1,5.73-5.07,30,30,0,0,1,4.41-2.69c.54-.27,1-.44,1.28-.57A1.39,1.39,0,0,1,700.36,385.64Z" style="fill:#e0e0e0"></path><path d="M701,397.13a25.16,25.16,0,0,1-3.47.5,46.35,46.35,0,0,0-8.25,1.63,24.71,24.71,0,0,0-7.38,3.87c-1.7,1.31-2.5,2.4-2.58,2.34a2.8,2.8,0,0,1,.52-.8,12.55,12.55,0,0,1,1.81-1.85,22.37,22.37,0,0,1,7.46-4.11,37.64,37.64,0,0,1,8.38-1.48A19.25,19.25,0,0,1,701,397.13Z" style="fill:#e0e0e0"></path><path d="M680.31,404.21c-.18-.11,1.38-2.5,2.6-5.72s1.4-6.09,1.61-6.06a5.68,5.68,0,0,1-.06,1.87,20.38,20.38,0,0,1-1,4.39,21.42,21.42,0,0,1-2,4A5.78,5.78,0,0,1,680.31,404.21Z" style="fill:#e0e0e0"></path><path d="M710.52,354.78a3.65,3.65,0,0,1-.56.29l-1.63.74c-.72.31-1.59.7-2.56,1.22s-2.13,1-3.33,1.74l-1.89,1.08c-.66.38-1.31.82-2,1.26-1.4.85-2.8,1.89-4.29,3a79.51,79.51,0,0,0-9,7.87,81.63,81.63,0,0,0-7.57,9.23c-1,1.53-2,3-2.81,4.39-.41.71-.84,1.37-1.19,2l-1,1.93c-.68,1.22-1.16,2.38-1.63,3.38s-.85,1.88-1.13,2.6-.5,1.22-.68,1.66a3.15,3.15,0,0,1-.28.57,2.43,2.43,0,0,1,.17-.61c.15-.45.35-1,.58-1.7s.58-1.63,1-2.65.91-2.19,1.56-3.43c.32-.62.65-1.28,1-2s.76-1.35,1.17-2.07c.79-1.45,1.77-2.9,2.78-4.45a71.47,71.47,0,0,1,16.65-17.23c1.52-1.06,2.94-2.1,4.35-2.93.71-.43,1.37-.87,2-1.24l1.93-1.06c1.21-.69,2.38-1.19,3.38-1.67a27.17,27.17,0,0,1,2.61-1.13l1.68-.65A2.16,2.16,0,0,1,710.52,354.78Z" style="fill:#e0e0e0"></path><path d="M685.69,371.41a4,4,0,0,1,1.36-2,8.63,8.63,0,0,1,5.5-2.11,14.77,14.77,0,0,1,5.79,1.13,8.19,8.19,0,0,1,2.19,1.06,13.09,13.09,0,0,1-2.32-.68,17.59,17.59,0,0,0-5.64-.94,9,9,0,0,0-5.25,1.84A16.28,16.28,0,0,0,685.69,371.41Z" style="fill:#e0e0e0"></path><path d="M682,375.24c-.16-.09,1.24-2.14,1.56-5.08a20.36,20.36,0,0,0-.35-5.31,3.48,3.48,0,0,1,.65,1.48,10.36,10.36,0,0,1,.27,3.89A10.59,10.59,0,0,1,683,374C682.46,374.82,682,375.28,682,375.24Z" style="fill:#e0e0e0"></path><path d="M641.55,426.76C642.41,441.94,647,457.38,654,473h30.6c6.71-15.46,11-30.87,11.72-46.23Z" style="fill:#e0e0e0"></path><path d="M691.38,451.33c0,.15-10.07.28-22.5.28s-22.5-.13-22.5-.28,10.07-.29,22.5-.29S691.38,451.17,691.38,451.33Z" style="fill:#fafafa"></path><path d="M690.7,456.82c0,.16-9.44.29-21.09.29s-21.1-.13-21.1-.29,9.44-.28,21.1-.28S690.7,456.67,690.7,456.82Z" style="fill:#fafafa"></path><path d="M654.51,436.73a85.72,85.72,0,0,1,0,14.09,85.72,85.72,0,0,1,0-14.09Z" style="fill:#fafafa"></path><path d="M670.91,436.73a95.3,95.3,0,0,1,0,14.6,92,92,0,0,1,0-14.6Z" style="fill:#fafafa"></path><path d="M686.3,436.6a99.12,99.12,0,0,1,0,14.89,95.71,95.71,0,0,1,0-14.89Z" style="fill:#fafafa"></path><path d="M695.37,436.73c0,.16-11.81.28-26.39.28s-26.39-.12-26.39-.28,11.81-.29,26.39-.29S695.37,436.57,695.37,436.73Z" style="fill:#fafafa"></path><polygon points="179.33 466.39 179.33 71.96 174.45 71.96 174.45 466.47 134.09 469.51 174.45 469.51 179.33 469.51 219.7 469.51 179.33 466.39" style="fill:#ebebeb"></polygon><polygon points="149.02 37.59 130.89 118.62 222.9 118.62 202.21 37.84 149.02 37.59" style="fill:#ebebeb"></polygon><path d="M165.88,151.45c-.21,0-.36-9.94-.33-22.21S165.77,107,166,107s.36,9.94.33,22.21S166.09,151.45,165.88,151.45Z" style="fill:#ebebeb"></path><path d="M165.84,151.3c0-.1.66,0,.95.83a1.53,1.53,0,0,1-2,1.92,1.58,1.58,0,0,1-1.09-1.52,1.6,1.6,0,0,1,.78-1.28c.77-.45,1.33-.08,1.25,0s-.48,0-.94.45a1.16,1.16,0,0,0-.39.85.92.92,0,0,0,.65.79.91.91,0,0,0,1-.17,1.18,1.18,0,0,0,.26-.91C166.19,151.63,165.79,151.4,165.84,151.3Z" style="fill:#ebebeb"></path><polygon points="452.78 62.18 452.78 175.94 289.38 175.94 283.5 62.97 452.78 62.18" style="fill:#e0e0e0"></polygon><rect x="308.83" y="37.64" width="112.73" height="163.4" transform="translate(245.86 484.53) rotate(-90)" style="fill:#fff"></rect><path d="M447.67,176.48H282.72V62.2h165Zm-163.4-1.55H446.12V63.75H284.27Z" style="fill:#e0e0e0"></path><rect x="301.19" y="76.98" width="128" height="84.72" style="fill:#fff"></rect><path d="M429.2,77l-.63,0-1.82,0-7,0-26.38.1-92.15.18.37-.37c0,25.88,0,54.56,0,84.71h0l-.41-.41,128,.09-.33.32c.08-25.78.13-46.92.17-61.64,0-7.36.07-13.11.09-17,0-1.94,0-3.44,0-4.48s0-1.55,0-1.55,0,.49,0,1.49,0,2.49,0,4.42c0,3.92,0,9.64.08,17,0,14.77.1,36,.17,61.84V162h-.32l-128,.08h-.4v-.4h0c0-30.15,0-58.83,0-84.71v-.37h.37l92.39.18,26.29.1,7,0,1.78,0Z" style="fill:#e0e0e0"></path><path d="M283.5,62.66a13.69,13.69,0,0,1,2.81,1.82c1.67,1.2,3.94,2.92,6.4,4.88s4.62,3.83,6.14,5.22a12.79,12.79,0,0,1,2.34,2.4c-.15.17-4.08-3.07-9-7S283.35,62.84,283.5,62.66Z" style="fill:#e0e0e0"></path><path d="M446.89,63c.14.18-3.71,3.46-8.59,7.32s-9,6.86-9.1,6.69,3.71-3.45,8.59-7.32S446.76,62.8,446.89,63Z" style="fill:#e0e0e0"></path><path d="M446.76,175.72,428.55,161" style="fill:#fff"></path><path d="M428.55,161c.14-.17,4.33,3,9.36,7.07s9,7.53,8.85,7.7-4.33-3-9.36-7.07S428.41,161.13,428.55,161Z" style="fill:#e0e0e0"></path><path d="M283.5,175.7c-.14-.17,3.67-3.42,8.5-7.24s8.87-6.79,9-6.61-3.67,3.42-8.5,7.24S283.64,175.88,283.5,175.7Z" style="fill:#e0e0e0"></path><rect x="353.27" y="77.29" width="28.37" height="80.54" transform="translate(249.9 485.01) rotate(-90)" style="fill:#e0e0e0"></rect><rect x="74.56" y="163.23" width="66.03" height="68.83" style="fill:#e0e0e0"></rect><rect x="70.09" y="163.23" width="66.03" height="68.83" style="fill:#ebebeb"></rect><rect x="78.97" y="172.48" width="48.28" height="50.32" style="fill:#fff"></rect><path d="M79,223.14a9.08,9.08,0,0,1-1.21,1.37c-.77.81-1.86,1.9-3.07,3.1s-2.33,2.27-3.15,3a9.32,9.32,0,0,1-1.38,1.18,8.6,8.6,0,0,1,1.2-1.37c.78-.81,1.86-1.91,3.08-3.11s2.34-2.27,3.16-3A8.38,8.38,0,0,1,79,223.14Z" style="fill:#e0e0e0"></path><path d="M127.25,223a9.46,9.46,0,0,1,1.36,1.2c.81.78,1.91,1.86,3.11,3.08s2.26,2.33,3,3.15a8.19,8.19,0,0,1,1.18,1.37,8.71,8.71,0,0,1-1.36-1.2c-.81-.77-1.91-1.86-3.11-3.08s-2.27-2.33-3-3.15A8.91,8.91,0,0,1,127.25,223Z" style="fill:#e0e0e0"></path><path d="M127.11,172.61a11,11,0,0,1,1.21-1.36c.77-.81,1.86-1.91,3.08-3.11s2.32-2.26,3.14-3a8.45,8.45,0,0,1,1.38-1.18,8.71,8.71,0,0,1-1.2,1.36c-.77.81-1.86,1.91-3.08,3.11s-2.33,2.27-3.15,3A8.15,8.15,0,0,1,127.11,172.61Z" style="fill:#e0e0e0"></path><path d="M78.84,172.74a9.08,9.08,0,0,1-1.37-1.21c-.81-.77-1.91-1.86-3.11-3.07s-2.26-2.33-3-3.15a9.15,9.15,0,0,1-1.18-1.38,8.2,8.2,0,0,1,1.36,1.2c.81.77,1.91,1.86,3.11,3.08s2.27,2.33,3,3.15A9.15,9.15,0,0,1,78.84,172.74Z" style="fill:#e0e0e0"></path><path d="M127.11,222.8s0-.08,0-.24v-.7c0-.63,0-1.53,0-2.71,0-2.38,0-5.85,0-10.26,0-8.81-.05-21.37-.08-36.41l.15.16-48.14,0h0l.18-.18c0,18.47,0,35.75,0,50.32l-.15-.15,34.87.08,9.79,0,2.58,0h0l-2.56,0-9.75,0L79,223h-.16v-.16c0-14.57,0-31.85,0-50.32v-.18H79l48.14,0h.16v.16c0,15.08-.06,27.68-.08,36.51,0,4.4,0,7.85,0,10.22,0,1.17,0,2.07,0,2.69,0,.29,0,.51,0,.68A1.76,1.76,0,0,1,127.11,222.8Z" style="fill:#e0e0e0"></path><path d="M91.71,193.5S90.68,206,104.17,206C104.17,199.31,98.68,194.07,91.71,193.5Z" style="fill:#ebebeb"></path><path d="M116.4,193.51s-12.46-1-12.46,12.46C110.59,206,115.84,200.49,116.4,193.51Z" style="fill:#ebebeb"></path><path d="M103.57,186.69s-10.18,9.14.56,19.27C109.12,200.67,108.7,192.38,103.57,186.69Z" style="fill:#e0e0e0"></path><rect x="519.48" y="127" width="159.63" height="5.05" style="fill:#e0e0e0"></rect><rect x="546.44" y="129.53" width="8.08" height="16.01" style="fill:#e0e0e0"></rect><rect x="642.28" y="127" width="8.08" height="18.53" style="fill:#e0e0e0"></rect><polygon points="542.78 93.04 548.01 127.39 578.37 127.39 585.41 93.54 542.78 93.04" style="fill:#ebebeb"></polygon><path d="M581.17,115.05c0,.1-7.78.18-17.38.18s-17.37-.08-17.37-.18,7.78-.18,17.37-.18S581.17,115,581.17,115.05Z" style="fill:#fafafa"></path><path d="M581.29,113.36c0,.1-7.84.18-17.5.18s-17.49-.08-17.49-.18,7.83-.17,17.49-.17S581.29,113.26,581.29,113.36Z" style="fill:#fafafa"></path><path d="M581.23,111.46c0,.09-7.84.17-17.49.17s-17.5-.08-17.5-.17,7.83-.18,17.5-.18S581.23,111.36,581.23,111.46Z" style="fill:#fafafa"></path><path d="M551.49,125.43a29.29,29.29,0,0,1-.93-4.33,29.7,29.7,0,0,1-.58-4.38,26.24,26.24,0,0,1,.93,4.32A26.83,26.83,0,0,1,551.49,125.43Z" style="fill:#fafafa"></path><path d="M553.56,125.06a33.35,33.35,0,0,1-.38-4.22,34.09,34.09,0,0,1-.19-4.23,21.26,21.26,0,0,1,.55,4.21A20,20,0,0,1,553.56,125.06Z" style="fill:#fafafa"></path><path d="M557.32,125.06a21.36,21.36,0,0,1-.79-4.33,22,22,0,0,1-.23-4.39,39.8,39.8,0,0,1,.59,4.35A36.85,36.85,0,0,1,557.32,125.06Z" style="fill:#fafafa"></path><path d="M560,125.24a20.63,20.63,0,0,1-.42-4.4,21.48,21.48,0,0,1,.13-4.41,38,38,0,0,1,.22,4.4A38.07,38.07,0,0,1,560,125.24Z" style="fill:#fafafa"></path><path d="M564.64,125.06a26,26,0,0,1-.32-4.17,25.17,25.17,0,0,1,0-4.18,24.51,24.51,0,0,1,.32,4.17A24,24,0,0,1,564.64,125.06Z" style="fill:#fafafa"></path><path d="M568.06,125.24a26.12,26.12,0,0,1-.14-4.31,26.44,26.44,0,0,1,.21-4.32,26.29,26.29,0,0,1,.14,4.32A26.37,26.37,0,0,1,568.06,125.24Z" style="fill:#fafafa"></path><path d="M571.26,124.78a30.19,30.19,0,0,1,.26-4.51,27.73,27.73,0,0,1,.62-4.47,30.19,30.19,0,0,1-.26,4.51A27.73,27.73,0,0,1,571.26,124.78Z" style="fill:#fafafa"></path><path d="M575.4,124.33a14.76,14.76,0,0,1,.51-3.83,15.19,15.19,0,0,1,1.12-3.7,32.81,32.81,0,0,1-.78,3.77A33.78,33.78,0,0,1,575.4,124.33Z" style="fill:#fafafa"></path><path d="M572.47,25.28s0,.06,0,.17l-.14.48-.57,1.86c-.26.8-.57,1.78-.9,2.93s-.73,2.46-1.09,3.92-.8,3-1.18,4.78S567.77,43,567.38,45c-.73,3.92-1.4,8.25-1.86,12.82s-.65,8.95-.71,12.93c0,2,0,3.89.05,5.65s.12,3.42.21,4.93.21,2.86.3,4,.2,2.22.3,3.06.15,1.46.2,1.93c0,.2,0,.37,0,.5s0,.17,0,.17a.65.65,0,0,1,0-.16c0-.14,0-.3-.07-.5-.07-.47-.16-1.11-.27-1.93s-.25-1.86-.35-3.05-.27-2.55-.36-4.06-.21-3.15-.26-4.93-.07-3.67-.08-5.66c0-4,.23-8.38.68-13s1.15-8.92,1.89-12.84c.41-2,.77-3.81,1.21-5.54s.82-3.32,1.23-4.78.8-2.76,1.14-3.9.67-2.13,1-2.93.49-1.38.64-1.83c.08-.19.13-.35.18-.47A1,1,0,0,1,572.47,25.28Z" style="fill:#ebebeb"></path><path d="M567,46.54a11.29,11.29,0,0,1,4.72-6,2.73,2.73,0,0,1,2.5-.46c1.06.51,1.14,2,.83,3.14a8.32,8.32,0,0,1-3.44,4.68,7,7,0,0,1-5.15,1.3" style="fill:#ebebeb"></path><path d="M565.15,60.9c.78-3,3.15-7.18,5.6-9a3.52,3.52,0,0,1,1.28-.68,1.48,1.48,0,0,1,1.36.3,2.07,2.07,0,0,1,.3,2,11.94,11.94,0,0,1-8.85,8.92" style="fill:#ebebeb"></path><path d="M564.64,73.54a17.39,17.39,0,0,1,5.65-7.11,2.72,2.72,0,0,1,2-.7c1.07.19,1.55,1.5,1.46,2.59-.2,2.23-1.9,4-3.67,5.42a22.67,22.67,0,0,1-5.22,2.68" style="fill:#ebebeb"></path><path d="M564.92,82.63a16.81,16.81,0,0,1,4.81-5.48,3.59,3.59,0,0,1,1.45-.65,1.46,1.46,0,0,1,1.41.54c.49.71,0,1.67-.49,2.35a13.8,13.8,0,0,1-6.86,5" style="fill:#ebebeb"></path><path d="M564.69,78.94a54.25,54.25,0,0,0-6.88-7c-.39-.33-.89-.68-1.37-.52a1,1,0,0,0-.63.93,2.54,2.54,0,0,0,.26,1.14,13.3,13.3,0,0,0,8.85,7.45" style="fill:#ebebeb"></path><path d="M564.91,67.11q-2.71-3.28-5.41-6.59a6.58,6.58,0,0,0-1.75-1.66,2.23,2.23,0,0,0-2.31,0A2.21,2.21,0,0,0,554.7,61a5.81,5.81,0,0,0,1.06,2.16,16.21,16.21,0,0,0,3.94,4.19,6.57,6.57,0,0,0,4.93,1.52" style="fill:#ebebeb"></path><path d="M565.66,53.8a18.79,18.79,0,0,0-5.44-8.16,3.07,3.07,0,0,0-1.42-.83,2.38,2.38,0,0,0-2.48,1.74,4.48,4.48,0,0,0,.5,3.58,9.39,9.39,0,0,0,2.54,2.68,21.73,21.73,0,0,0,6,3.25" style="fill:#ebebeb"></path><path d="M567.82,41.93c-.53-3.82-2.51-7-4.82-10.09-.48-.65-1.16-1.34-2-1.22a1.56,1.56,0,0,0-1.13,1,3.61,3.61,0,0,0-.22,1.53,11.81,11.81,0,0,0,7.66,10.54" style="fill:#ebebeb"></path><path d="M569.33,35.87a31.56,31.56,0,0,1-.2-5.91,10.61,10.61,0,0,1,2-5.5,4.58,4.58,0,0,1,2-1.56,2.5,2.5,0,0,1,2.41.32,2.62,2.62,0,0,1,.83,2.12,6.66,6.66,0,0,1-.61,2.26c-1.44,3.47-3.84,7.3-6.35,8.27" style="fill:#ebebeb"></path><path d="M545.79,40.42a3.14,3.14,0,0,1,0,.49c0,.35,0,.81,0,1.38s0,1.34,0,2.19,0,1.83.1,2.9c.09,2.15.3,4.7.63,7.53s.83,5.91,1.49,9.12,1.49,6.23,2.3,9,1.67,5.14,2.45,7.15c.36,1,.75,1.9,1.07,2.69s.6,1.47.85,2,.4,1,.54,1.28a2.52,2.52,0,0,1,.17.46,4.4,4.4,0,0,1-.24-.43l-.6-1.25c-.26-.54-.57-1.21-.91-2s-.73-1.67-1.12-2.68c-.81-2-1.67-4.42-2.52-7.14s-1.65-5.76-2.33-9-1.14-6.32-1.48-9.15-.49-5.4-.55-7.56c-.06-1.07,0-2-.05-2.9s0-1.6,0-2.2,0-1,0-1.39A1.87,1.87,0,0,1,545.79,40.42Z" style="fill:#e0e0e0"></path><path d="M546.63,56.08A8.09,8.09,0,0,1,548.56,51a1.94,1.94,0,0,1,1.6-.85c.84.12,1.22,1.12,1.24,2A5.91,5.91,0,0,1,550.07,56a5,5,0,0,1-3.23,2" style="fill:#e0e0e0"></path><path d="M548.47,66.25a13.56,13.56,0,0,1,1.87-7.34,2.71,2.71,0,0,1,.73-.74,1.06,1.06,0,0,1,1-.09,1.51,1.51,0,0,1,.63,1.27,8.54,8.54,0,0,1-4.11,8" style="fill:#e0e0e0"></path><path d="M550.84,75a12.43,12.43,0,0,1,2.32-6.06,1.89,1.89,0,0,1,1.19-.9c.78-.1,1.39.68,1.56,1.44a6,6,0,0,1-1.33,4.48,16.21,16.21,0,0,1-3,3" style="fill:#e0e0e0"></path><path d="M553,81.09a12,12,0,0,1,2.1-4.76,2.41,2.41,0,0,1,.84-.75,1,1,0,0,1,1.08.06c.48.38.38,1.13.17,1.7a9.75,9.75,0,0,1-3.59,4.91" style="fill:#e0e0e0"></path><path d="M552,78.63a38.32,38.32,0,0,0-6.2-3.29,1.1,1.1,0,0,0-1-.06.73.73,0,0,0-.23.77,1.87,1.87,0,0,0,.42.72,9.55,9.55,0,0,0,7.64,3.17" style="fill:#e0e0e0"></path><path d="M549.64,70.53l-5.1-3.32a4.57,4.57,0,0,0-1.55-.76,1.59,1.59,0,0,0-1.57.48,1.56,1.56,0,0,0,0,1.64,4.14,4.14,0,0,0,1.18,1.25,11.44,11.44,0,0,0,3.59,2,4.7,4.7,0,0,0,3.68,0" style="fill:#e0e0e0"></path><path d="M547.29,61.31a13.53,13.53,0,0,0-5.46-4.39,2.31,2.31,0,0,0-1.15-.26,1.71,1.71,0,0,0-1.31,1.72,3.22,3.22,0,0,0,1.11,2.33A6.62,6.62,0,0,0,542.79,62a15.3,15.3,0,0,0,4.79.92" style="fill:#e0e0e0"></path><path d="M546.2,52.76a15.69,15.69,0,0,0-5.45-5.83,1.66,1.66,0,0,0-1.6-.41,1.13,1.13,0,0,0-.56.9,2.72,2.72,0,0,0,.18,1.09A8.46,8.46,0,0,0,546.26,54" style="fill:#e0e0e0"></path><path d="M545.93,48.31a22.7,22.7,0,0,1-1.41-4,7.57,7.57,0,0,1,.15-4.17,3.28,3.28,0,0,1,1-1.48,1.77,1.77,0,0,1,1.71-.3,1.86,1.86,0,0,1,1,1.26,4.92,4.92,0,0,1,.07,1.67c-.24,2.67-1,5.8-2.54,7" style="fill:#e0e0e0"></path><path d="M584.17,40.09a2.2,2.2,0,0,1,0,.48c0,.35,0,.81.06,1.39s0,1.34,0,2.19,0,1.83,0,2.91c-.06,2.16-.24,4.72-.55,7.55s-.81,5.94-1.48,9.16-1.49,6.25-2.33,9-1.72,5.14-2.52,7.13c-.39,1-.79,1.9-1.13,2.69s-.64,1.46-.9,2l-.61,1.25a2.29,2.29,0,0,1-.23.42,3.05,3.05,0,0,1,.17-.45l.54-1.28c.24-.55.54-1.22.85-2s.7-1.69,1.07-2.7c.78-2,1.61-4.42,2.45-7.14s1.61-5.75,2.29-9,1.15-6.31,1.5-9.13.53-5.37.63-7.52c.07-1.07.08-2,.1-2.9s0-1.59,0-2.19,0-1,0-1.39A3.06,3.06,0,0,1,584.17,40.09Z" style="fill:#ebebeb"></path><path d="M583.33,55.75a8.09,8.09,0,0,0-1.93-5.08,2,2,0,0,0-1.61-.85c-.83.12-1.21,1.12-1.24,2a6,6,0,0,0,1.34,3.93,5,5,0,0,0,3.23,2" style="fill:#ebebeb"></path><path d="M581.49,65.92a13.55,13.55,0,0,0-1.88-7.34,2.54,2.54,0,0,0-.72-.74,1,1,0,0,0-1-.09,1.51,1.51,0,0,0-.63,1.27,8.54,8.54,0,0,0,4.11,8" style="fill:#ebebeb"></path><path d="M579.12,74.63a12.43,12.43,0,0,0-2.32-6,2,2,0,0,0-1.19-.91c-.78-.1-1.39.69-1.56,1.45-.35,1.57.43,3.15,1.33,4.48a16,16,0,0,0,3,3" style="fill:#ebebeb"></path><path d="M577,80.76a12,12,0,0,0-2.1-4.77,2.74,2.74,0,0,0-.84-.75,1.07,1.07,0,0,0-1.08.06c-.48.38-.38,1.13-.17,1.71a9.77,9.77,0,0,0,3.59,4.91" style="fill:#ebebeb"></path><path d="M577.92,78.3A37.86,37.86,0,0,1,584.11,75a1.13,1.13,0,0,1,1-.06.72.72,0,0,1,.23.76,1.81,1.81,0,0,1-.43.73,9.54,9.54,0,0,1-7.63,3.17" style="fill:#ebebeb"></path><path d="M580.32,70.2l5.1-3.32a4.57,4.57,0,0,1,1.55-.76,1.4,1.4,0,0,1,1.61,2.12,4.16,4.16,0,0,1-1.19,1.25,11.48,11.48,0,0,1-3.58,2,4.7,4.7,0,0,1-3.68,0" style="fill:#ebebeb"></path><path d="M582.67,61a13.42,13.42,0,0,1,5.46-4.38,2.2,2.2,0,0,1,1.14-.26,1.7,1.7,0,0,1,1.32,1.72,3.23,3.23,0,0,1-1.11,2.33,6.62,6.62,0,0,1-2.31,1.28,15.64,15.64,0,0,1-4.79.91" style="fill:#ebebeb"></path><path d="M583.76,52.43a15.62,15.62,0,0,1,5.45-5.83c.47-.34,1.08-.67,1.6-.41a1.12,1.12,0,0,1,.56.9,2.56,2.56,0,0,1-.19,1.09,8.41,8.41,0,0,1-7.48,5.52" style="fill:#ebebeb"></path><path d="M584,48a23,23,0,0,0,1.41-4,7.57,7.57,0,0,0-.15-4.17,3.26,3.26,0,0,0-1-1.49,1.77,1.77,0,0,0-1.71-.3,1.9,1.9,0,0,0-1,1.27,4.68,4.68,0,0,0-.07,1.67c.23,2.67,1,5.8,2.54,7" style="fill:#ebebeb"></path><path d="M539.3,86.24v6.43a2.53,2.53,0,0,0,2.53,2.53h44a2.53,2.53,0,0,0,2.53-2.53V86.24Z" style="fill:#ebebeb"></path><polygon points="543.11 95.2 543.47 97.24 584.04 100.14 585.07 95.2 543.11 95.2" style="fill:#e0e0e0"></polygon><path d="M608.14,81.66s-7.28,5.55-.3,12.89a.62.62,0,0,0,.46.19L672,94.37s5.44-6.1.93-13.12Z" style="fill:#ebebeb"></path><path d="M657.9,87.46c0,.07-7.93.13-17.71.13s-17.71-.06-17.71-.13,7.93-.13,17.71-.13S657.9,87.39,657.9,87.46Z" style="fill:#e0e0e0"></path><path d="M648,89.76c0,.07-3.73.13-8.33.13s-8.32-.06-8.32-.13,3.72-.13,8.32-.13S648,89.69,648,89.76Z" style="fill:#e0e0e0"></path><path d="M664.41,94.17s.14-.73.34-1.91a26.68,26.68,0,0,0,.36-4.65,26.31,26.31,0,0,0-.45-4.63c-.22-1.18-.42-1.9-.37-1.91a2.72,2.72,0,0,1,.18.49c.11.32.23.79.37,1.38a22.56,22.56,0,0,1,.53,4.67,22.8,22.8,0,0,1-.44,4.68c-.13.59-.24,1.06-.34,1.39A2,2,0,0,1,664.41,94.17Z" style="fill:#e0e0e0"></path><path d="M669.16,81.17a1.74,1.74,0,0,1,.29.46c.08.15.18.34.28.57s.22.48.32.78a13.19,13.19,0,0,1,.61,2.11,16.83,16.83,0,0,1,.28,2.68,15,15,0,0,1-.24,2.69,12.85,12.85,0,0,1-.57,2.12c-.09.3-.22.55-.31.78a6.42,6.42,0,0,1-.28.58,2.21,2.21,0,0,1-.27.46s.31-.7.69-1.88a15.6,15.6,0,0,0,.51-2.11,16.52,16.52,0,0,0,.21-2.64,16.31,16.31,0,0,0-.25-2.63,15,15,0,0,0-.55-2.1C669.48,81.87,669.12,81.19,669.16,81.17Z" style="fill:#e0e0e0"></path><path d="M618.19,94.25s-.12-.14-.3-.42a4.87,4.87,0,0,1-.29-.53,6.28,6.28,0,0,1-.34-.73,11.13,11.13,0,0,1-.63-2,12.9,12.9,0,0,1-.24-2.57,13.49,13.49,0,0,1,.31-2.56,11.5,11.5,0,0,1,.68-2,6.88,6.88,0,0,1,.36-.72,4.46,4.46,0,0,1,.31-.52c.18-.28.29-.43.31-.42s-.37.64-.81,1.73a13,13,0,0,0-.62,2,14.66,14.66,0,0,0-.29,2.51,14,14,0,0,0,.23,2.51,12.45,12.45,0,0,0,.55,2C617.84,93.6,618.23,94.23,618.19,94.25Z" style="fill:#e0e0e0"></path><path d="M611.31,95.81a2.47,2.47,0,0,1-.32-.49,5.55,5.55,0,0,1-.34-.59c-.11-.24-.26-.51-.38-.82a14.18,14.18,0,0,1-.73-2.25,15.73,15.73,0,0,1-.36-2.87,16.36,16.36,0,0,1,.23-2.89,13.87,13.87,0,0,1,.63-2.28c.11-.32.24-.59.35-.84a4.29,4.29,0,0,1,.31-.61,3.66,3.66,0,0,1,.3-.5s-.36.75-.79,2a14.62,14.62,0,0,0-.56,2.26,15.93,15.93,0,0,0-.21,2.84,17.31,17.31,0,0,0,.33,2.83,14.58,14.58,0,0,0,.67,2.23C610.92,95.08,611.36,95.78,611.31,95.81Z" style="fill:#e0e0e0"></path><path d="M669.64,113.76V126H646.06V113.76Z" style="fill:#ebebeb"></path><path d="M593.49,120c0,.11,0,.22,0,.32a7,7,0,0,0,7,6.54h70.22V126H654.07a6.1,6.1,0,0,1-6.1-6.09h0a6.1,6.1,0,0,1,6.1-6.1h16.67v-1.29l-70.24.24A7,7,0,0,0,593.49,120Z" style="fill:#e0e0e0"></path><path d="M669.64,120c0,.07-4.85.13-10.83.13S648,120.09,648,120s4.85-.13,10.83-.13S669.64,120,669.64,120Z" style="fill:#e0e0e0"></path><path d="M669.29,122.77c0,.07-4.58.12-10.24.12s-10.24,0-10.24-.12,4.58-.13,10.24-.13S669.29,122.69,669.29,122.77Z" style="fill:#e0e0e0"></path><path d="M669.64,125.28c0,.07-4.13.12-9.21.12s-9.22-.05-9.22-.12,4.13-.13,9.22-.13S669.64,125.21,669.64,125.28Z" style="fill:#e0e0e0"></path><path d="M669.64,117.55c0,.07-4.75.13-10.61.13s-10.6-.06-10.6-.13,4.74-.13,10.6-.13S669.64,117.48,669.64,117.55Z" style="fill:#e0e0e0"></path><path d="M669.29,115.09c0,.07-4.22.12-9.43.12s-9.44,0-9.44-.12,4.22-.13,9.44-.13S669.29,115,669.29,115.09Z" style="fill:#e0e0e0"></path><path d="M602,112.91a15.1,15.1,0,0,0-1.49,1.78,9.26,9.26,0,0,0-1.61,5.24,9.35,9.35,0,0,0,1.73,5.2,17.83,17.83,0,0,0,1.53,1.74,3,3,0,0,1-.5-.38,7.46,7.46,0,0,1-1.18-1.26,8.9,8.9,0,0,1-.12-10.65,7.38,7.38,0,0,1,1.14-1.28A2.46,2.46,0,0,1,602,112.91Z" style="fill:#f5f5f5"></path><path d="M599.62,112.65a16.4,16.4,0,0,0-1.49,1.78,9,9,0,0,0,.12,10.44,18.6,18.6,0,0,0,1.54,1.74,2.82,2.82,0,0,1-.51-.38,7.91,7.91,0,0,1-1.17-1.26,9,9,0,0,1-1.84-5.3,9.12,9.12,0,0,1,1.71-5.35,8.31,8.31,0,0,1,1.14-1.28A2.84,2.84,0,0,1,599.62,112.65Z" style="fill:#f5f5f5"></path><path d="M647.33,112.91a16.4,16.4,0,0,0-1.49,1.78,9,9,0,0,0,.13,10.44,17.83,17.83,0,0,0,1.53,1.74,2.82,2.82,0,0,1-.51-.38,7.91,7.91,0,0,1-1.17-1.26,9,9,0,0,1-1.84-5.3,9.12,9.12,0,0,1,1.71-5.35,7.79,7.79,0,0,1,1.15-1.28A3.09,3.09,0,0,1,647.33,112.91Z" style="fill:#f5f5f5"></path><path d="M645,112.65a15.1,15.1,0,0,0-1.49,1.78,9,9,0,0,0,.12,10.44,19.63,19.63,0,0,0,1.53,1.74,3.66,3.66,0,0,1-.5-.38,8.37,8.37,0,0,1-1.18-1.26,8.9,8.9,0,0,1-.12-10.65,8.31,8.31,0,0,1,1.14-1.28A2.84,2.84,0,0,1,645,112.65Z" style="fill:#f5f5f5"></path><path d="M610,121.68c0-1.65,0-3.3-.07-5a3.45,3.45,0,0,0-.17-1.28,1.2,1.2,0,0,0-.94-.79c-.62-.28-1.59.24-2,1a4.55,4.55,0,0,0-.49,2.42,34.19,34.19,0,0,0,.19,3.92,4.39,4.39,0,0,0,.46,1.79,1.68,1.68,0,0,0,1.51.91,1.71,1.71,0,0,0,1.33-1.15A5.11,5.11,0,0,0,610,121.68Z" style="fill:#f5f5f5"></path><path d="M637.26,120.26c0,.07-5.08.13-11.34.13s-11.34-.06-11.34-.13,5.08-.13,11.34-.13S637.26,120.19,637.26,120.26Z" style="fill:#f5f5f5"></path><polygon points="605.28 112.42 605.15 100.88 611.44 100.88 611.66 112.42 605.28 112.42" style="fill:#f5f5f5"></polygon><path d="M611.07,102.93a32.86,32.86,0,0,1-5.84,0,32.86,32.86,0,0,1,5.84,0Z" style="fill:#e0e0e0"></path><path d="M611.07,104.71a32.86,32.86,0,0,1-5.84,0,32.86,32.86,0,0,1,5.84,0Z" style="fill:#e0e0e0"></path><path d="M611.07,106.5a35.59,35.59,0,0,1-5.84,0,32.86,32.86,0,0,1,5.84,0Z" style="fill:#e0e0e0"></path><path d="M611.07,108.28a32.86,32.86,0,0,1-5.84,0,32.86,32.86,0,0,1,5.84,0Z" style="fill:#e0e0e0"></path><path d="M611.07,110.06a32.86,32.86,0,0,1-5.84,0,32.86,32.86,0,0,1,5.84,0Z" style="fill:#e0e0e0"></path><path d="M604.82,100.57H674.5a32.7,32.7,0,0,1,0,12.48H605.12v-.85h4.24a2,2,0,0,0,2-2v-6.91a2,2,0,0,0-2-2h-4.54Z" style="fill:#ebebeb"></path><path d="M621.29,106.82h1.17l.12,0a.25.25,0,0,1,.13.22s0,.05,0,.07-.05.2-.08.3a3.38,3.38,0,0,1-.73,1.32,1.38,1.38,0,0,1-1,.51h-.14a1.14,1.14,0,0,1-.79-.57,2.64,2.64,0,0,1-.35-1.4,3.89,3.89,0,0,1,.14-1,3.45,3.45,0,0,1,.69-1.35,1.41,1.41,0,0,1,1-.55,1,1,0,0,1,.44.1,1.43,1.43,0,0,1,.68.85.36.36,0,0,1,0,.11.31.31,0,0,1,0,.13.24.24,0,0,1-.22.12h-.07a.22.22,0,0,1-.16-.16l0,0a1,1,0,0,0-.14-.28.65.65,0,0,0-.55-.33.69.69,0,0,0-.39.14,2.12,2.12,0,0,0-.63.92,3.29,3.29,0,0,0-.28,1.31,2.42,2.42,0,0,0,.2,1,.68.68,0,0,0,.61.45.8.8,0,0,0,.56-.34,2.93,2.93,0,0,0,.6-1.08h-.84A.26.26,0,0,1,621,107a.19.19,0,0,1,0-.08A.27.27,0,0,1,621.29,106.82Z" style="fill:#fafafa"></path><path d="M625.25,104.55l0,.08c.05.17.32,1.61.82,4.32a.13.13,0,0,1,0,.06.28.28,0,0,1,0,.13.23.23,0,0,1-.21.13h0a.23.23,0,0,1-.19-.18l-.28-1.43h-1.43l-.69,1.44s0,0,0,.05a.29.29,0,0,1-.22.12.2.2,0,0,1-.13,0,.22.22,0,0,1-.1-.29c0-.1.11-.25.21-.47q1.5-3.28,1.8-3.87a.31.31,0,0,1,.24-.18A.29.29,0,0,1,625.25,104.55Zm-.31,1-.78,1.63h1.1Z" style="fill:#fafafa"></path><path d="M629.14,109.27H627a.23.23,0,0,1-.14,0,.4.4,0,0,1-.12-.26h0c0-.08.2-1.52.58-4.3,0,0,0-.06,0-.09a.24.24,0,0,1,.23-.15l.12,0a.24.24,0,0,1,.13.22c0,.19-.07.58-.14,1.18-.24,1.83-.37,2.8-.38,2.9h1.78a.32.32,0,0,1,.14,0,.23.23,0,0,1,.16.23s0,.06,0,.08A.31.31,0,0,1,629.14,109.27Z" style="fill:#fafafa"></path><path d="M632,104.55l0,.08c.05.17.32,1.61.82,4.32a.13.13,0,0,1,0,.06.28.28,0,0,1,0,.13.23.23,0,0,1-.21.13h0a.23.23,0,0,1-.19-.18l-.28-1.43h-1.43L630,109.1l0,.05a.29.29,0,0,1-.22.12.2.2,0,0,1-.13,0,.22.22,0,0,1-.1-.29c0-.1.11-.25.21-.47q1.5-3.28,1.8-3.87a.28.28,0,0,1,.24-.18A.29.29,0,0,1,632,104.55Zm-.31,1-.78,1.63H632Z" style="fill:#fafafa"></path><path d="M635.35,107c.17.45.29.8.38,1,.22.6.33.91.33,1a.28.28,0,0,1,0,.12.24.24,0,0,1-.21.12c-.1,0-.16-.06-.21-.17a.76.76,0,0,1,0-.11c-.11-.26-.3-.75-.56-1.48l-1.19,1.63a.31.31,0,0,1-.22.13.2.2,0,0,1-.13,0,.21.21,0,0,1-.12-.2V109a.68.68,0,0,1,.13-.2c.4-.52.84-1.13,1.32-1.84l-.15-.4c-.44-1.19-.67-1.81-.67-1.85a.2.2,0,0,1,0-.13.22.22,0,0,1,.2-.13.26.26,0,0,1,.23.14l.7,1.89,1.4-1.9a.28.28,0,0,1,.23-.12.2.2,0,0,1,.11,0,.23.23,0,0,1,.12.22.52.52,0,0,1,0,.11Z" style="fill:#fafafa"></path><path d="M640.55,104.44a.27.27,0,0,1,.12,0,.25.25,0,0,1,.13.21q-.51,4.08-.57,4.41a2.68,2.68,0,0,1-.45,1.14,1.62,1.62,0,0,1-1.39.69,1.6,1.6,0,0,1-.67-.18,1.5,1.5,0,0,1-.74-.65.27.27,0,0,1,0-.12.28.28,0,0,1,0-.13.24.24,0,0,1,.22-.12.23.23,0,0,1,.19.1,1.33,1.33,0,0,0,1.07.61,1.06,1.06,0,0,0,.84-.42,2.31,2.31,0,0,0,.46-1.32,1.37,1.37,0,0,1-.31.33,1.29,1.29,0,0,1-.75.24h-.14a1.1,1.1,0,0,1-.8-.57,2.62,2.62,0,0,1-.35-1.4c0-.25,0-.52,0-.79s.14-1,.29-1.81a.25.25,0,0,1,0-.07.23.23,0,0,1,.23-.17l.12,0a.23.23,0,0,1,.12.2c0,.13,0,.45-.11,1a13.69,13.69,0,0,0-.17,1.47,2.89,2.89,0,0,0,.19,1.14c.14.34.35.51.62.51h.09a1.13,1.13,0,0,0,.62-.5,3.13,3.13,0,0,0,.52-1.16l.32-2.4,0-.1A.24.24,0,0,1,640.55,104.44Z" style="fill:#fafafa"></path><path d="M671.88,113.22c-.07,0-.13-2.87-.13-6.41s.06-6.4.13-6.4.13,2.86.13,6.4S672,113.22,671.88,113.22Z" style="fill:#f5f5f5"></path><path d="M614.86,113.22c-.07,0-.12-2.87-.12-6.41s0-6.4.12-6.4.13,2.86.13,6.4S614.94,113.22,614.86,113.22Z" style="fill:#e0e0e0"></path><path d="M673.11,113.22c-.08,0-.13-2.87-.13-6.41s0-6.4.13-6.4.12,2.86.12,6.4S673.18,113.22,673.11,113.22Z" style="fill:#f5f5f5"></path><path d="M613.72,113.22c-.07,0-.13-2.87-.13-6.41s.06-6.4.13-6.4.13,2.86.13,6.4S613.79,113.22,613.72,113.22Z" style="fill:#e0e0e0"></path><path d="M655,102.52v0l7.36,6,.07,0-.08,0-1,.26-6.22,1.63h0L649.47,108l-1.6-.69-.42-.18-.11,0,0,0,0,0,.11,0,.42.17,1.61.67,5.64,2.36h0l6.21-1.64,1-.26v.07l-7.35-6h0" style="fill:#e0e0e0"></path><polygon points="661.67 107.51 662.08 107.89 662.62 107.77 662.38 108.27 662.66 108.75 662.11 108.68 661.74 109.09 661.64 108.55 661.14 108.33 661.62 108.06 661.67 107.51" style="fill:#e0e0e0"></polygon><polygon points="654.61 109.85 654.88 110.08 655.23 109.98 655.1 110.32 655.29 110.61 654.94 110.59 654.72 110.87 654.63 110.52 654.29 110.4 654.6 110.21 654.61 109.85" style="fill:#e0e0e0"></polygon><polygon points="646.81 106.65 647.25 106.68 647.52 106.33 647.63 106.76 648.04 106.91 647.67 107.14 647.65 107.58 647.31 107.3 646.89 107.42 647.05 107.02 646.81 106.65" style="fill:#e0e0e0"></polygon><polygon points="664.98 102.61 665.41 102.64 665.68 102.29 665.79 102.72 666.21 102.87 665.84 103.1 665.82 103.54 665.48 103.26 665.06 103.38 665.22 102.97 664.98 102.61" style="fill:#e0e0e0"></polygon><polygon points="654.63 102.32 654.91 102.34 655.08 102.12 655.15 102.39 655.41 102.49 655.18 102.64 655.17 102.92 654.95 102.74 654.68 102.81 654.79 102.56 654.63 102.32" style="fill:#e0e0e0"></polygon><path d="M665.59,102.92s-2.38,0-5.32-.18-5.32-.25-5.32-.28,2.39.05,5.33.18S665.59,102.89,665.59,102.92Z" style="fill:#e0e0e0"></path><path d="M668.27,100.46H597.6c-.93-2.1-1.15-4.09,0-5.88h70.67A6.83,6.83,0,0,1,668.27,100.46Z" style="fill:#e0e0e0"></path><rect x="612.23" y="96.26" width="38.29" height="2.14" style="fill:#ebebeb"></rect><path d="M600.31,100.49a2.07,2.07,0,0,1-.56-.71,5.11,5.11,0,0,1-.64-2.09,4.94,4.94,0,0,1,.27-2.16,2,2,0,0,1,.42-.8,6.62,6.62,0,0,1-.25.85,6.2,6.2,0,0,0-.19,2.09,6.36,6.36,0,0,0,.55,2A7.23,7.23,0,0,1,600.31,100.49Z" style="fill:#e0e0e0"></path><path d="M601.84,100.49a2.07,2.07,0,0,1-.56-.71,5.11,5.11,0,0,1-.64-2.09,4.94,4.94,0,0,1,.27-2.16,2,2,0,0,1,.42-.8,6.62,6.62,0,0,1-.25.85,6.2,6.2,0,0,0-.19,2.09,6.36,6.36,0,0,0,.55,2A7.23,7.23,0,0,1,601.84,100.49Z" style="fill:#e0e0e0"></path><path d="M665.41,100.36a12.08,12.08,0,0,0,.49-2.88,11.69,11.69,0,0,0-.46-2.88,5.09,5.09,0,0,1,.72,2.88A5.25,5.25,0,0,1,665.41,100.36Z" style="fill:#f5f5f5"></path><path d="M664.09,100.34c-.07,0,.22-1.26.21-2.82s-.29-2.79-.21-2.81a7.19,7.19,0,0,1,.47,2.81A6.81,6.81,0,0,1,664.09,100.34Z" style="fill:#f5f5f5"></path></g><g id="background-simple"><path d="M654.59,169.25l-1.25-5c-10.52-42.41-43-76.1-85-86.35a111.66,111.66,0,0,0-16.47-2.75c-40-3.67-81.49,14.52-106.34,46.63-14.61,18.89-24.5,42.79-44.89,55-26.52,15.94-60.1,6.24-89.14-3.82s-62.67-19.68-89.13-3.62c-16.57,10.06-26.61,28.58-31.41,47.47-12.73,50,7.84,104.69,44.63,140.15s87.5,53.41,138.22,58.67c71,7.36,146.14-9.83,202.17-55.08S665.93,240.47,654.59,169.25Z" style="fill:#f5f5f5"></path><circle cx="115.98" cy="137.7" r="40.18" transform="translate(-58.37 182.58) rotate(-64.33)" style="fill:#f5f5f5"></circle></g><g id="Floor"><path d="M706.74,473.61c0,.15-152.59.26-340.77.26s-340.8-.11-340.8-.26,152.56-.26,340.8-.26S706.74,473.47,706.74,473.61Z" style="fill:#263238"></path></g><g id="Table"><rect x="55.54" y="346.2" width="108.66" height="11.22" style="fill:#455a64"></rect><polygon points="109.87 356.01 109.87 473.64 118.23 473.64 120.16 356.01 109.87 356.01" style="fill:#455a64"></polygon><polygon points="82.87 356.01 53.93 473.64 61.97 473.64 94.44 356.01 82.87 356.01" style="fill:#455a64"></polygon><polygon points="141.31 355.54 171.29 473.61 163.26 473.61 129.74 355.54 141.31 355.54" style="fill:#455a64"></polygon><path d="M164.2,357.55c0,.15-24.09.26-53.8.26s-53.82-.11-53.82-.26,24.09-.26,53.82-.26S164.2,357.41,164.2,357.55Z" style="fill:#263238"></path></g><g id="Mobile"><path d="M83.36,346.2l11.08-24.38,31.68,21.95,2,1.6v.83Z" style="fill:#FF725E"></path><path d="M91,310.64l-.34.74a1.79,1.79,0,0,0,0,1.45l13.08,30.68a1.76,1.76,0,0,0,1,1l.86.31a2,2,0,0,0,.6.1h18.09a1.79,1.79,0,0,0,1.77-1.55h0a1.73,1.73,0,0,0-.14-1L112,310.68a1.78,1.78,0,0,0-1.63-1.07H92.59A1.79,1.79,0,0,0,91,310.64Z" style="fill:#263238"></path><polygon points="92.13 310.31 106.07 342.13 124.69 342.13 110.88 310.31 92.13 310.31" style="fill:#455a64"></polygon><path d="M108.53,334.91a2.75,2.75,0,1,1-1.73,3.49A2.76,2.76,0,0,1,108.53,334.91Z" style="fill:#FF725E"></path><path d="M109.54,336.24l-.11.49a.12.12,0,0,0,.07.15l.09.05a.16.16,0,0,1,.1.21c0,.1-.38.76-.38.76s-.08.18-.22.11l-.13-.07a.12.12,0,0,0-.14,0l-.38.4a.12.12,0,0,0,0,.16l.12.13a.16.16,0,0,0,.08.06.5.5,0,0,0,.26,0,2,2,0,0,0,1-1.21c.37-.83.11-1.18,0-1.27a.34.34,0,0,0-.22-.12h-.1A.14.14,0,0,0,109.54,336.24Z" style="fill:#fff"></path><path d="M115.44,339a2.76,2.76,0,1,1,3.9,0A2.77,2.77,0,0,1,115.44,339Z" style="fill:#FF725E"></path><path d="M116.18,337.48l.5-.11a.14.14,0,0,0,.1-.13v-.11s0-.17.14-.18h.86s.19,0,.19.15v.15a.12.12,0,0,0,.08.11l.53.16a.11.11,0,0,0,.14-.07l.07-.16a.3.3,0,0,0,0-.1.47.47,0,0,0-.1-.24,2,2,0,0,0-1.55-.41c-.9,0-1.1.42-1.15.51a.46.46,0,0,0,0,.26l0,.09A.13.13,0,0,0,116.18,337.48Z" style="fill:#fff"></path><path d="M108.74,323.09a2,2,0,0,0,.62-2.47,3.62,3.62,0,0,0-3.28-2.41c-1.3.08-1.94,1.29-1.43,2.71a3.88,3.88,0,0,0,2.38,2.29c-3.41.8-1.76,4.8-1.76,4.8h9.16S112.52,323.4,108.74,323.09Z" style="fill:#ebebeb"></path><path d="M118.89,331.48a53.21,53.21,0,0,1-7.38.26,53.3,53.3,0,0,1-7.39-.26,51.49,51.49,0,0,1,7.39-.26A51.41,51.41,0,0,1,118.89,331.48Z" style="fill:#ebebeb"></path><path d="M90.4,321.5a1.22,1.22,0,0,0,.18-.74,1.38,1.38,0,0,0-.39-.77,2.66,2.66,0,0,0-1-.59,4.92,4.92,0,0,1-1.44-.71,1.79,1.79,0,0,1-.59-.77,1.41,1.41,0,0,1,0-1.05c.25-.63.7-1.16.49-1.66s-.83-.91-1.33-1.51a1.34,1.34,0,0,1-.32-1.21,1.9,1.9,0,0,1,.7-.95c.56-.42,1-.81.89-1.31s-.63-1-.67-1.67a1.86,1.86,0,0,1,.76-1.49,3.12,3.12,0,0,1,2.25-.48,2.25,2.25,0,0,1,.81.17,3,3,0,0,1-.82,0,3,3,0,0,0-2,.57,1.44,1.44,0,0,0-.57,1.18c0,.47.49.87.71,1.57a1.24,1.24,0,0,1-.26,1.11,5.15,5.15,0,0,1-.77.72c-.54.4-.76.93-.3,1.44s1.09.87,1.4,1.66a1.51,1.51,0,0,1-.09,1.15c-.15.33-.32.59-.43.85a1.1,1.1,0,0,0,.39,1.32,5,5,0,0,0,1.31.69,3.09,3.09,0,0,1,1.11.74,1.58,1.58,0,0,1,.37,1C90.78,321.36,90.39,321.53,90.4,321.5Z" style="fill:#263238"></path><path d="M88.28,322.75c-.06,0,.1-.32-.15-.79a3.21,3.21,0,0,0-1.78-1.28,3.4,3.4,0,0,1-1.38-1,2.13,2.13,0,0,1-.13-2,4.48,4.48,0,0,0,.45-1.85c-.06-.6-.66-1-1.24-1.52a2.33,2.33,0,0,1-.72-1,1.55,1.55,0,0,1,.16-1.24c.41-.68,1-1.09,1.27-1.61a2,2,0,0,0,.08-1.62,3.12,3.12,0,0,1-.07-1.68,2.74,2.74,0,0,1,1.58-1.79,1.29,1.29,0,0,1,.86-.12s-.31,0-.78.31a2.6,2.6,0,0,0-1.3,1.69,2.91,2.91,0,0,0,.13,1.49,4.17,4.17,0,0,1,.17.93,1.82,1.82,0,0,1-.26,1c-.35.62-.92,1.07-1.23,1.61a1,1,0,0,0-.12.84,1.87,1.87,0,0,0,.58.77c.27.24.57.47.85.76a1.87,1.87,0,0,1,.55,1.08,4.79,4.79,0,0,1-.5,2.08,1.69,1.69,0,0,0,0,1.57,3.14,3.14,0,0,0,1.19.89,3.28,3.28,0,0,1,1.81,1.54C88.53,322.46,88.28,322.78,88.28,322.75Z" style="fill:#263238"></path><path d="M117.11,319.29c0-.05.23-.11.5-.43a1.75,1.75,0,0,0,.38-1.59,1.44,1.44,0,0,0-.69-.87,3.39,3.39,0,0,1-1.2-1,2.45,2.45,0,0,1-.12-1.76,4.23,4.23,0,0,0,.19-1.63c-.07-.54-.43-.79-1-.92a2.7,2.7,0,0,1-.84-.34,1.25,1.25,0,0,1-.52-.81,9.51,9.51,0,0,0-.16-1.43,2,2,0,0,0-.67-.94,2.4,2.4,0,0,0-1.61-.56c-.42,0-.64.12-.66.07s.19-.19.64-.28a2.54,2.54,0,0,1,1.86.48,2.37,2.37,0,0,1,.85,1.09,7.38,7.38,0,0,1,.22,1.47c.08.45.45.62,1,.76a2.05,2.05,0,0,1,.87.4,1.57,1.57,0,0,1,.49.93,4.73,4.73,0,0,1-.21,1.81,2,2,0,0,0,0,1.42,3.45,3.45,0,0,0,1,.89,1.82,1.82,0,0,1,.81,1.13,2,2,0,0,1-.6,1.83C117.39,319.31,117.11,319.31,117.11,319.29Z" style="fill:#263238"></path><path d="M119.48,319.15s.21-.19.49-.58a2.71,2.71,0,0,0,.44-1.91,2.22,2.22,0,0,0-.53-1.21c-.31-.36-.84-.62-1.21-1.21a2.46,2.46,0,0,1,0-2c.18-.61.3-1.24-.12-1.61a4,4,0,0,0-1.74-.58,2.57,2.57,0,0,1-1-.41,1.47,1.47,0,0,1-.57-.89c-.14-.65,0-1.21-.11-1.68a1.5,1.5,0,0,0-.72-1,3.4,3.4,0,0,0-2-.37,2.47,2.47,0,0,1-.78,0,2.06,2.06,0,0,1,.76-.21,3.25,3.25,0,0,1,2.16.26,1.85,1.85,0,0,1,1,1.26c.12.56,0,1.15.15,1.65s.57.79,1.18.91a4.28,4.28,0,0,1,2,.7,1.47,1.47,0,0,1,.45,1.1,4,4,0,0,1-.2,1,2.06,2.06,0,0,0-.06,1.61c.25.43.76.73,1.13,1.17a2.63,2.63,0,0,1,.57,1.45,2.78,2.78,0,0,1-.65,2.07C119.77,319.08,119.49,319.17,119.48,319.15Z" style="fill:#263238"></path></g><g id="speech-bubbles"><path d="M107.74,300l9.12-5.08a24.28,24.28,0,1,0-6.44-5.87h0Z" style="fill:#fafafa"></path><path d="M107.74,300c.13-.52,1-4,2.6-11l0-.11.09.07h0l-.11.1a25.2,25.2,0,0,1-3-5,24.48,24.48,0,0,1-1.85-6.68,22.12,22.12,0,0,1-.17-3.85c0-.66.06-1.33.12-2s.22-1.36.33-2.05a24.5,24.5,0,0,1,9.85-15.11,24.21,24.21,0,0,1,9.42-4,24.7,24.7,0,0,1,10.8.36,24,24,0,0,1,10,5.28l1.09,1c.36.33.66.72,1,1.08s.67.71.95,1.11l.86,1.17a10.46,10.46,0,0,1,.79,1.21l.74,1.24.62,1.29a13.66,13.66,0,0,1,.57,1.31,24.82,24.82,0,0,1,1.59,10.9,23.92,23.92,0,0,1-3,10,24.57,24.57,0,0,1-14.27,11.43,26.42,26.42,0,0,1-7.91,1,24.41,24.41,0,0,1-6.81-1.24,24.77,24.77,0,0,1-5.21-2.48h.08l-9.16,5c.45-.25,3.29-1.85,9.09-5.14l0,0,0,0a24.57,24.57,0,0,0,5.19,2.43,24.07,24.07,0,0,0,6.76,1.2,26,26,0,0,0,7.83-1,24.42,24.42,0,0,0,14.1-11.33,23.76,23.76,0,0,0,3-9.86,24.49,24.49,0,0,0-1.58-10.77,12.26,12.26,0,0,0-.56-1.29c-.21-.43-.41-.85-.61-1.28l-.73-1.22a9.48,9.48,0,0,0-.78-1.2l-.86-1.16c-.27-.39-.63-.72-.94-1.09s-.62-.74-1-1.06l-1.07-1a23.8,23.8,0,0,0-9.83-5.22,24.61,24.61,0,0,0-10.68-.37,23.93,23.93,0,0,0-9.31,4,24.3,24.3,0,0,0-9.78,14.93l-.33,2c-.06.67-.08,1.34-.13,2a22.91,22.91,0,0,0,.15,3.82,24.14,24.14,0,0,0,1.82,6.62,24.58,24.58,0,0,0,2.92,5l.34.46-.44-.35h0l.11,0C108.74,296,107.87,299.45,107.74,300Z" style="fill:#263238"></path><path d="M134.17,279.07a9.92,9.92,0,0,1-9.92-9.92,9.79,9.79,0,0,1,1.27-4.85A9.92,9.92,0,1,0,139,277.8,9.93,9.93,0,0,1,134.17,279.07Z" style="fill:#263238"></path><path d="M90.46,299.15l-3.95-7.08a18.87,18.87,0,1,0-4.56,5h0Z" style="fill:#fafafa"></path><path d="M90.46,299.15l-8.53-2-.09,0,.06-.07h0l.09.08a19.22,19.22,0,0,1-3.9,2.31,18.62,18.62,0,0,1-5.19,1.44,16.36,16.36,0,0,1-3,.13l-1.56-.09-1.59-.26a18.93,18.93,0,0,1-6.35-2.54A19.19,19.19,0,0,1,55,293a18.81,18.81,0,0,1-3.14-7.32,19.23,19.23,0,0,1,.29-8.39,18.4,18.4,0,0,1,4.1-7.73l.78-.85c.25-.28.55-.51.83-.77a9.9,9.9,0,0,1,.86-.74l.91-.67a7.37,7.37,0,0,1,1-.62l1-.57,1-.48a9.22,9.22,0,0,1,1-.44,19.27,19.27,0,0,1,8.47-1.24,18.53,18.53,0,0,1,7.74,2.35,19.15,19.15,0,0,1,8.88,11.09,20.34,20.34,0,0,1,.78,6.14,18.83,18.83,0,0,1-2.89,9.34v0l3.9,7.11c-.19-.35-1.44-2.55-4-7.06v0l0,0a19.22,19.22,0,0,0,1.88-4,18.72,18.72,0,0,0,.94-5.25,20.65,20.65,0,0,0-.79-6.09,19,19,0,0,0-8.81-11A18.48,18.48,0,0,0,72,263.39a19.28,19.28,0,0,0-8.37,1.23,8.92,8.92,0,0,0-1,.44l-1,.47-1,.57a8.27,8.27,0,0,0-.93.61l-.9.66a9.9,9.9,0,0,0-.85.73c-.28.26-.58.49-.83.77l-.77.83a18.44,18.44,0,0,0-4,7.64,19.09,19.09,0,0,0-.29,8.29,18.69,18.69,0,0,0,3.09,7.23,18.84,18.84,0,0,0,11.6,7.6l1.58.26c.52,0,1,.06,1.55.1a17,17,0,0,0,3-.12A18.68,18.68,0,0,0,78,299.29,19.83,19.83,0,0,0,81.92,297l.35-.27-.27.35h0l0-.09Z" style="fill:#263238"></path><path d="M77.7,287.55l-1.81-2.08v-5a4.88,4.88,0,0,0-4.14-4.82v-2.09H70.44v2.06a4.89,4.89,0,0,0-4.31,4.85v4.74l-1.82,2.32h5a2.05,2.05,0,0,0,3.31.79,1.94,1.94,0,0,0,.53-.79Z" style="fill:#FF725E"></path><rect x="52.49" y="282.6" width="37.41" height="1" transform="translate(-142.83 84.59) rotate(-33.04)" style="fill:#263238"></rect></g><g id="Character"><polygon points="241.04 403.24 227.62 470.71 241.04 470.71 260.98 407.84 241.04 403.24" style="fill:#263238"></polygon><polygon points="643.16 403.24 656.59 470.71 643.16 470.71 623.23 407.84 643.16 403.24" style="fill:#263238"></polygon><path d="M197.43,349.22c-1.5-1.51.57-47.36,1-84.68A46.5,46.5,0,0,1,245,218.65H604.73a46.5,46.5,0,0,1,46.5,46.5V347Z" style="fill:#455a64"></path><rect x="173.06" y="357.31" width="524.67" height="56.66" rx="27.77" style="fill:#455a64"></rect><polygon points="690.22 366.39 652.49 343.31 198.05 346.93 174.93 375.83 690.22 366.39" style="fill:#455a64"></polygon><path d="M650.07,344.7l-1.17,0-3.42,0-13.17.06-48.44.19c-40.9.17-97.4.57-159.8,1.06s-118.93.84-159.83.92l-48.43,0-13.17,0-3.42,0-1.17,0,1.17,0,3.42,0,13.17-.06,48.43-.19c40.9-.18,97.41-.57,159.83-1.07s118.9-.83,159.8-.91l48.44,0,13.17,0,3.42,0Z" style="fill:#263238"></path><g style="opacity:0.1"><path d="M330.9,358.41c8,1.36,18.13-3.76,26-5.76,6.35-1.6,13-1.42,19.62-1.23l208.76,6.08c4.13.12,9.38-.46,10.58-4.14.73-2.21-.56-4.65-2.47-6.12a19.66,19.66,0,0,0-6.74-2.85L452.4,332l-109.59,5-32.34,17Z"></path></g><g style="opacity:0.1"><circle cx="473.95" cy="275.58" r="4.72"></circle></g><path d="M353.73,363.61a2.76,2.76,0,0,1-.62-.16l-1.71-.54c-.75-.24-1.66-.53-2.73-.82s-2.27-.68-3.64-1-2.84-.7-4.46-1-3.34-.6-5.16-.9a95.35,95.35,0,0,0-24-.41c-1.83.23-3.57.42-5.19.72s-3.12.56-4.49.85-2.59.6-3.67.85-2,.52-2.75.74l-1.73.48a2.76,2.76,0,0,1-.62.13,4.29,4.29,0,0,1,.58-.23l1.71-.58c.75-.25,1.66-.54,2.74-.82s2.29-.65,3.67-.93,2.86-.65,4.49-.91,3.37-.53,5.21-.77a97.26,97.26,0,0,1,12-.6,99,99,0,0,1,12,1c1.83.31,3.57.57,5.18.95s3.11.7,4.46,1.06,2.57.74,3.64,1.06,2,.63,2.7.91l1.69.64A3.33,3.33,0,0,1,353.73,363.61Z" style="fill:#263238"></path><path d="M679.19,372.36c0,.15-112.45.63-251.13,1.09s-251.16.7-251.17.56,112.43-.63,251.17-1.08S679.19,372.22,679.19,372.36Z" style="fill:#263238"></path><circle cx="473.95" cy="272.69" r="4.72" style="fill:#455a64"></circle><path d="M478.67,272.69c-.05,0-.05-.42-.25-1.13a4.68,4.68,0,0,0-1.73-2.48,4.56,4.56,0,0,0-4.27-.6,4.49,4.49,0,1,0,4.27,7.81,4.68,4.68,0,0,0,1.73-2.48c.2-.7.2-1.13.25-1.12a.78.78,0,0,1,0,.3,3.89,3.89,0,0,1-.08.87,4.68,4.68,0,0,1-1.71,2.72,4.86,4.86,0,0,1-4.65.76,4.94,4.94,0,0,1,0-9.31,4.86,4.86,0,0,1,4.65.76,4.68,4.68,0,0,1,1.71,2.72,3.89,3.89,0,0,1,.08.87A.86.86,0,0,1,478.67,272.69Z" style="fill:#263238"></path><g style="opacity:0.1"><path d="M382.84,275.58a4.72,4.72,0,1,1-4.72-4.72A4.72,4.72,0,0,1,382.84,275.58Z"></path></g><path d="M382.84,272.69a4.72,4.72,0,1,1-4.72-4.72A4.72,4.72,0,0,1,382.84,272.69Z" style="fill:#455a64"></path><path d="M382.84,272.69s0-.42-.24-1.13a4.68,4.68,0,0,0-1.73-2.48,4.49,4.49,0,1,0,0,7.21,4.68,4.68,0,0,0,1.73-2.48c.2-.7.19-1.13.24-1.12s0,.1,0,.3a3.47,3.47,0,0,1-.09.87,4.65,4.65,0,0,1-1.7,2.72,4.87,4.87,0,0,1-4.66.76,4.94,4.94,0,0,1,0-9.31,4.87,4.87,0,0,1,4.66.76,4.65,4.65,0,0,1,1.7,2.72,3.47,3.47,0,0,1,.09.87C382.87,272.58,382.86,272.69,382.84,272.69Z" style="fill:#263238"></path><g style="opacity:0.1"><path d="M605,283.67a4.72,4.72,0,1,1-4.72-4.72A4.72,4.72,0,0,1,605,283.67Z"></path></g><path d="M605,280.77a4.72,4.72,0,1,1-4.72-4.72A4.72,4.72,0,0,1,605,280.77Z" style="fill:#455a64"></path><path d="M605,280.77c-.05,0-.05-.42-.25-1.13a4.76,4.76,0,0,0-1.73-2.48,4.5,4.5,0,1,0,0,7.21,4.7,4.7,0,0,0,1.73-2.47c.2-.71.2-1.13.25-1.13s0,.1,0,.3a3.58,3.58,0,0,1-.09.88,4.76,4.76,0,0,1-1.7,2.72,4.91,4.91,0,0,1-4.66.76,4.95,4.95,0,0,1,0-9.32,4.91,4.91,0,0,1,4.66.76,4.73,4.73,0,0,1,1.7,2.72,3.58,3.58,0,0,1,.09.88C605,280.67,605,280.77,605,280.77Z" style="fill:#263238"></path><path d="M538.47,275.89s-3.31-40.17-3.31-41.23,9-40.08,9-40.08,5.7-11,10.8-10.6,3.31,4.6,3,10.6-7.17,25.22-5.39,34.22,7.19,47.09,7.19,47.09Z" style="fill:#ffbe9d"></path><polygon points="538.8 320.17 537.19 275.89 583.33 277.7 585.03 325.8 561.11 334.08 538.8 320.17" style="fill:#263238"></polygon><path d="M415.42,294.23s22.52-6.87,34.11-5.58,46.13,19.58,46.13,19.58l57.21,14.43-5.41-38.39,47.68,1.54s6.1,54.46,3.52,58.84-9.19,7.39-9.19,7.39c-.77,0-198.28-8-198.28-8Z" style="fill:#263238"></path><path d="M475.88,298.42a1.35,1.35,0,0,1-.16.28l-.53.76-2.05,2.86-7.45,10.17-.06.08h-.1l-20.43,1.74-12.81,1.05-.27,0v-.27c0-7.27.07-13.5.1-18,0-2.17.05-3.92.07-5.17,0-.57,0-1,0-1.38a1.68,1.68,0,0,1,0-.48,3.77,3.77,0,0,1,0,.48c0,.36,0,.81,0,1.38,0,1.25,0,3,.07,5.17,0,4.48.05,10.71.09,18l-.26-.24,12.81-1.08,20.43-1.65-.15.09c3.13-4.15,5.73-7.6,7.6-10.06l2.15-2.79.57-.72A2.23,2.23,0,0,1,475.88,298.42Z" style="fill:#455a64"></path><path d="M414,332.36c0,.15-.51.36-1.19.47s-1.25.1-1.27,0,.5-.35,1.19-.47S414,332.22,414,332.36Z" style="fill:#455a64"></path><path d="M423.74,330.82a6.09,6.09,0,0,1-2.4.62,5.8,5.8,0,0,1-2.48.11,12,12,0,0,1,4.88-.73Z" style="fill:#455a64"></path><path d="M433.56,329.78a6.14,6.14,0,0,1-2.44.48,6.29,6.29,0,0,1-2.48-.05,6.25,6.25,0,0,1,2.44-.47A6.15,6.15,0,0,1,433.56,329.78Z" style="fill:#455a64"></path><path d="M443.43,329.66a6.05,6.05,0,0,1-2.47.22,6.22,6.22,0,0,1-2.47-.3,6.22,6.22,0,0,1,2.48-.22A6.11,6.11,0,0,1,443.43,329.66Z" style="fill:#455a64"></path><path d="M453.23,330.76a6.05,6.05,0,0,1-2.48-.08,6.3,6.3,0,0,1-2.41-.6,11.75,11.75,0,0,1,4.89.68Z" style="fill:#455a64"></path><path d="M463,332.48a5.81,5.81,0,0,1-2.47-.19,6.15,6.15,0,0,1-2.38-.71,5.86,5.86,0,0,1,2.48.19A6.18,6.18,0,0,1,463,332.48Z" style="fill:#455a64"></path><path d="M472.62,334.48a6,6,0,0,1-2.47-.26,6.12,6.12,0,0,1-2.36-.76,6.07,6.07,0,0,1,2.47.25A6.14,6.14,0,0,1,472.62,334.48Z" style="fill:#455a64"></path><path d="M482.26,336.62a11.56,11.56,0,0,1-4.81-1.08,6.07,6.07,0,0,1,2.46.29A6.15,6.15,0,0,1,482.26,336.62Z" style="fill:#455a64"></path><path d="M491.9,338.79a6,6,0,0,1-2.47-.28,6.15,6.15,0,0,1-2.35-.79,6.16,6.16,0,0,1,2.46.28A6.24,6.24,0,0,1,491.9,338.79Z" style="fill:#455a64"></path><path d="M501.56,340.81a6,6,0,0,1-2.47-.24,6.11,6.11,0,0,1-2.37-.74,11.65,11.65,0,0,1,4.84,1Z" style="fill:#455a64"></path><path d="M511.27,342.58a6.2,6.2,0,0,1-2.47-.17,6,6,0,0,1-2.39-.68,6,6,0,0,1,2.48.17A6,6,0,0,1,511.27,342.58Z" style="fill:#455a64"></path><path d="M521,344a6.27,6.27,0,0,1-2.48-.08,6.16,6.16,0,0,1-2.41-.6,6.05,6.05,0,0,1,2.48.08A6.23,6.23,0,0,1,521,344Z" style="fill:#455a64"></path><path d="M530.84,345.12a5.86,5.86,0,0,1-2.48,0,6.2,6.2,0,0,1-2.42-.52,6.17,6.17,0,0,1,2.48,0A6.1,6.1,0,0,1,530.84,345.12Z" style="fill:#455a64"></path><path d="M540.68,346a11.8,11.8,0,0,1-4.92-.38,5.83,5.83,0,0,1,2.48-.07A6,6,0,0,1,540.68,346Z" style="fill:#455a64"></path><path d="M550.54,346.5a11.82,11.82,0,0,1-4.93-.22,6,6,0,0,1,2.48-.15A5.9,5.9,0,0,1,550.54,346.5Z" style="fill:#455a64"></path><path d="M560.41,346.75a6.2,6.2,0,0,1-2.47.2,5.87,5.87,0,0,1-2.46-.32,6.2,6.2,0,0,1,2.47-.2A5.91,5.91,0,0,1,560.41,346.75Z" style="fill:#455a64"></path><path d="M570.27,347.19a6.11,6.11,0,0,1-2.48.12,6,6,0,0,1-2.45-.4,6.11,6.11,0,0,1,2.48-.12A6.2,6.2,0,0,1,570.27,347.19Z" style="fill:#455a64"></path><path d="M580.13,347.36a5.19,5.19,0,0,1-2.46.43,5.38,5.38,0,0,1-2.47-.28,7.14,7.14,0,0,1,2.46-.24A7.54,7.54,0,0,1,580.13,347.36Z" style="fill:#455a64"></path><path d="M588.38,342.68c.14.06-.36,1.13-1.36,2.1s-2.1,1.45-2.14,1.31.86-.68,1.77-1.68S588.26,342.62,588.38,342.68Z" style="fill:#455a64"></path><path d="M588.56,332.94a6.13,6.13,0,0,1,.44,2.44,6.24,6.24,0,0,1-.07,2.48,5.84,5.84,0,0,1-.45-2.44A6.12,6.12,0,0,1,588.56,332.94Z" style="fill:#455a64"></path><path d="M588,323.08a6.1,6.1,0,0,1,.39,2.45,6.21,6.21,0,0,1-.13,2.48,6.1,6.1,0,0,1-.39-2.45A6,6,0,0,1,588,323.08Z" style="fill:#455a64"></path><path d="M587.55,313.22a6.33,6.33,0,0,1,.36,2.46,6.11,6.11,0,0,1-.15,2.47,11.6,11.6,0,0,1-.21-4.93Z" style="fill:#455a64"></path><path d="M587.13,303.36a12,12,0,0,1,.21,4.93,6.12,6.12,0,0,1-.37-2.46A5.8,5.8,0,0,1,587.13,303.36Z" style="fill:#455a64"></path><path d="M586.62,293.5a11.61,11.61,0,0,1,.27,4.93,12.06,12.06,0,0,1-.27-4.93Z" style="fill:#455a64"></path><path d="M586.12,286.06c.14,0,.3.54.35,1.23s0,1.25-.17,1.26-.3-.54-.35-1.23S586,286.07,586.12,286.06Z" style="fill:#455a64"></path><path d="M422,292.09a2,2,0,0,1-.13.54c-.13.4-.28.9-.48,1.51-.42,1.31-1,3.21-1.74,5.56-1.44,4.7-3.27,11.24-4.87,18.56s-2.67,14-3.32,18.91c-.32,2.44-.57,4.41-.72,5.78-.08.63-.15,1.15-.2,1.57a2,2,0,0,1-.11.55,4.08,4.08,0,0,1,0-.56c0-.42.06-.94.1-1.58.1-1.37.29-3.36.57-5.8.55-4.89,1.57-11.63,3.17-19s3.49-13.88,5-18.56c.77-2.34,1.42-4.22,1.91-5.51l.57-1.48A2.05,2.05,0,0,1,422,292.09Z" style="fill:#455a64"></path><path d="M439.55,328.58a2.77,2.77,0,0,1,.22.92,12.59,12.59,0,0,1,.13,2.59,14.94,14.94,0,0,1-9.45,13.25,12.12,12.12,0,0,1-2.49.73,3.17,3.17,0,0,1-.94.09c0-.1,1.32-.28,3.29-1.16a15.39,15.39,0,0,0,9.22-12.94C439.72,329.92,439.45,328.59,439.55,328.58Z" style="fill:#455a64"></path><path d="M495.3,324.77a17.17,17.17,0,0,1-.52-2.66c-.27-1.65-.66-3.92-1.16-6.42s-1-4.74-1.4-6.37a15.4,15.4,0,0,1-.55-2.65,11.88,11.88,0,0,1,.9,2.56c.48,1.61,1.06,3.85,1.56,6.36s.84,4.8,1,6.47A12.28,12.28,0,0,1,495.3,324.77Z" style="fill:#455a64"></path><path d="M580.05,343.27a27.62,27.62,0,0,0-2.07-4.79,25.94,25.94,0,0,0-8.87-8.75,62.73,62.73,0,0,0-11.45-5.34L554,323.13a7.26,7.26,0,0,1-1.32-.51,8.16,8.16,0,0,1,1.38.31c.88.24,2.15.6,3.69,1.11a56,56,0,0,1,11.6,5.24,24.92,24.92,0,0,1,8.92,9,16.59,16.59,0,0,1,1.47,3.58,8.62,8.62,0,0,1,.24,1C580.05,343.14,580.07,343.27,580.05,343.27Z" style="fill:#455a64"></path><path d="M595.14,285.81a.64.64,0,0,1-.24,0h-3.4l-10-.08-34.24-.46.25-.3c.63,4.15,1.28,8.49,2,12.94,1.31,8.82,2.57,17.19,3.69,24.69l0,.35-.34-.09-25.2-6.45-7.17-1.88-1.89-.51-.49-.14-.16-.06s.06,0,.17,0l.5.1,1.91.45,7.2,1.74,25.24,6.27-.29.27c-1.14-7.49-2.4-15.87-3.74-24.68-.67-4.45-1.32-8.79-1.94-12.94l-.05-.3h.3l34.25.64,10,.24,2.69.08.7,0Z" style="fill:#455a64"></path><path d="M437.73,289.18c.14,0,.41,5.69.6,12.72s.22,12.73.08,12.74-.42-5.69-.6-12.72S437.59,289.19,437.73,289.18Z" style="fill:#455a64"></path><path d="M319.13,263.67a8.26,8.26,0,0,1-.2-1.36c-.09-.88-.24-2.15-.45-3.71a89.81,89.81,0,0,0-2.49-12A91.31,91.31,0,0,0,311.86,235c-.63-1.45-1.16-2.61-1.54-3.4a6.27,6.27,0,0,1-.53-1.27,7.06,7.06,0,0,1,.71,1.17c.44.77,1,1.91,1.7,3.35a75.79,75.79,0,0,1,6.64,23.73c.17,1.57.27,2.85.29,3.73A6.1,6.1,0,0,1,319.13,263.67Z" style="fill:#455a64"></path><path d="M275.61,324.77l5.07-9-1.88,7.85,8.05.58c3.07,1.59,6.61,2.18,10.08,2.7,9.95,1.5,20.15,2.68,30.05.92,1.82-.32,3.78-.84,4.84-2.24,1.24-1.66.79-3.9.32-5.88a151.28,151.28,0,0,1-4-37.12c.2-11.94,7.07-18.62,6.26-30.54s-6.37-25.68-15-34.53-26.51-17.11-38.23-12.11c-7.45-.46-13.2,3.8-17,9.74s-6.38,15.66-6.19,22.56,5.49,11.6,5.79,18.49c.41,9.17-.86,18.53,1.61,27.42,1.26,4.54,3.5,9,3,13.7-.45,3.82-2.72,7.21-4.51,10.67s-3.06,9.31-1.61,12.9Z" style="fill:#263238"></path><path d="M269.8,244.64c-4.66-7.34-6.27-19.33,1.25-23.67l25.85-10.36a5.08,5.08,0,0,1,6.71,1.5l35.94,54.33.18-.07s5.86,18.44-11.85,24.44c-3.51,1.19-7.09-1-10-3.78l-.13.12c-.29-.37-.55-.73-.82-1.09a42.31,42.31,0,0,1-5.36-7.15h0c-3.14-4.21-4.41-6-4.38-5.91s-10.05,5-20.41-5.32C281.62,262.54,275,252.79,269.8,244.64Z" style="fill:#ffbe9d"></path><path d="M294.84,242.29a1.86,1.86,0,0,0,2.55.46,1.78,1.78,0,0,0,.56-2.48,1.87,1.87,0,0,0-2.55-.46A1.78,1.78,0,0,0,294.84,242.29Z" style="fill:#263238"></path><path d="M279.13,252.77a1.85,1.85,0,0,0,2.54.47,1.79,1.79,0,0,0,.57-2.48,1.86,1.86,0,0,0-2.55-.46A1.76,1.76,0,0,0,279.13,252.77Z" style="fill:#263238"></path><path d="M275,248.74c.37.13,1-1.82,2.82-3s3.85-.93,3.89-1.32c0-.18-.48-.52-1.38-.65a5,5,0,0,0-3.31.73,4.9,4.9,0,0,0-2,2.7C274.73,248.09,274.83,248.69,275,248.74Z" style="fill:#263238"></path><path d="M291.72,237.54c.39.07.89-2,2.71-3.39s3.93-1.5,3.94-1.89c0-.19-.53-.45-1.47-.45a5.71,5.71,0,0,0-3.38,1.22,5.46,5.46,0,0,0-1.93,3C291.39,236.93,291.53,237.51,291.72,237.54Z" style="fill:#263238"></path><path d="M294.41,253.09a13.19,13.19,0,0,0-3,1.43c-.44.26-.89.46-1.17.23a2.65,2.65,0,0,1-.61-1.42c-.34-1.28-.69-2.62-1.06-4-1.56-5.7-3-10.26-3.24-10.2s.85,4.74,2.41,10.44c.39,1.4.77,2.73,1.13,4a2.93,2.93,0,0,0,1,1.77,1.26,1.26,0,0,0,1.11.11,3.75,3.75,0,0,0,.78-.41A13.68,13.68,0,0,0,294.41,253.09Z" style="fill:#263238"></path><path d="M307.18,273a36.78,36.78,0,0,0,12.62-15.57s2.05,10.79-10.45,18.21Z" style="fill:#eb996e"></path><path d="M297.92,256.48a3.6,3.6,0,0,1,1.82-3,3.3,3.3,0,0,1,2.55-.35,2.09,2.09,0,0,1,1.52,1.84,2.41,2.41,0,0,1-1.72,2.07,7.53,7.53,0,0,1-3,.27,2.42,2.42,0,0,1-.81-.14.67.67,0,0,1-.43-.61" style="fill:#FF725E"></path><path d="M300,250.75c-.28.18,1,1.93.4,4.26s-2.6,3.5-2.44,3.76.67,0,1.47-.52a5.4,5.4,0,0,0,2.11-3,4.7,4.7,0,0,0-.45-3.49C300.59,250.94,300.08,250.65,300,250.75Z" style="fill:#263238"></path><path d="M287.47,232.25c.48.32,1.94-1.06,4-2.2s4-1.75,3.93-2.33c0-.27-.59-.49-1.52-.46a7.6,7.6,0,0,0-3.42,1,7.41,7.41,0,0,0-2.62,2.42C287.35,231.49,287.25,232.09,287.47,232.25Z" style="fill:#263238"></path><path d="M272.68,243c.59.13,1.58-1.18,3.1-2.3s3-1.81,3-2.41c0-.28-.48-.5-1.3-.44a6,6,0,0,0-3,1.25,5.86,5.86,0,0,0-2,2.55C272.31,242.41,272.4,242.91,272.68,243Z" style="fill:#263238"></path><path d="M302.68,208.41c-2.34-.7-4.84.05-7.15.86a132.42,132.42,0,0,0-28.32,13.89c.4,2.47,3.21,3.92,5.72,3.83s4.83-1.25,7.19-2.1,5.07-1.39,7.31-.26,3.6,4,5.92,5.32c4,2.28,9.48-.57,13.45,1.73,3,1.74,3.82,5.62,5.69,8.55a12.65,12.65,0,0,0,9.82,5.73c3.09.17.46-3.58,2.86-5.55-7.49-9.89-9.23-17.13-16.72-27C306.89,211.32,305.16,209.14,302.68,208.41Z" style="fill:#263238"></path><path d="M283.11,265a2.38,2.38,0,0,1,.12.49c.07.39.16.85.27,1.42.23,1.24.48,3,.74,5.27a108.34,108.34,0,0,1-1.82,34.94c-.48,2.2-.92,4-1.28,5.16-.16.56-.3,1-.41,1.39a3,3,0,0,1-.17.48,1.92,1.92,0,0,1,.07-.51c.09-.38.19-.84.32-1.41.29-1.21.68-3,1.11-5.18a120.67,120.67,0,0,0,1.81-34.83c-.2-2.23-.41-4-.57-5.28-.07-.57-.13-1-.17-1.43A1.8,1.8,0,0,1,283.11,265Z" style="fill:#455a64"></path><path d="M287.57,317.79a1.52,1.52,0,0,1,.06-.49c.07-.37.17-.83.28-1.37.26-1.19.59-2.93.95-5.07s.71-4.72,1-7.59.41-6,.41-9.34-.21-6.49-.48-9.35-.64-5.43-1-7.58-.72-3.87-1-5.06c-.11-.55-.2-1-.28-1.37a1.82,1.82,0,0,1-.07-.49s.08.15.17.46.23.81.38,1.35c.33,1.18.73,2.9,1.16,5.05s.82,4.72,1.14,7.59.5,6.06.52,9.39-.18,6.52-.45,9.4-.68,5.45-1.09,7.6-.8,3.87-1.13,5.05c-.14.54-.27,1-.37,1.36A2,2,0,0,1,287.57,317.79Z" style="fill:#455a64"></path><path d="M306.06,318.1a9.65,9.65,0,0,1,0-1.7c.05-1.09.11-2.67.15-4.62a144.41,144.41,0,0,0-2.48-30.3c-.36-1.91-.67-3.46-.9-4.53a10.78,10.78,0,0,1-.3-1.67,9.5,9.5,0,0,1,.49,1.63c.3,1,.66,2.59,1.07,4.5a121.55,121.55,0,0,1,2.2,15.11,120.21,120.21,0,0,1,.29,15.27c-.09,2-.21,3.53-.32,4.62A12.16,12.16,0,0,1,306.06,318.1Z" style="fill:#455a64"></path><path d="M309.74,230.65a2.17,2.17,0,0,1-.3-.43l-.8-1.29c-.68-1.12-1.65-2.76-2.95-4.71a43.6,43.6,0,0,0-5.09-6.43,22.52,22.52,0,0,0-8.22-5.53,20.81,20.81,0,0,0-9.83-1,22.14,22.14,0,0,0-7.68,2.64,23.45,23.45,0,0,0-5.78,4.82,2.43,2.43,0,0,1,.3-.44c.22-.27.5-.7.95-1.18a19.58,19.58,0,0,1,4.34-3.52,21.86,21.86,0,0,1,7.8-2.79,20.61,20.61,0,0,1,10.08,1,22.48,22.48,0,0,1,8.39,5.68A42,42,0,0,1,306,224c1.27,2,2.19,3.65,2.82,4.81l.71,1.34Q309.77,230.64,309.74,230.65Z" style="fill:#455a64"></path><path d="M326,252.6s7.51-2,21.16,3.07S396,290.48,396,290.48s18.09-2.39,19.45,3.75l-24.23,49.82s-27.29,1.36-36.17,0S324.31,323.23,323,313.68s-6.14-21.5-6.14-21.5Z" style="fill:#FF725E"></path><g style="opacity:0.30000000000000004"><path d="M367.68,315.83a68.61,68.61,0,0,0-2.2-12.87c-.14,3.9-.29,7.87-1.64,11.53s-4,5.4-7.78,6.42c-.82.22-1.81,2-2.43,2.55a4.11,4.11,0,0,0-.91,2.9l-.72,15-.57.9a13.56,13.56,0,0,0,5.89-8.1c.55-2.19.61-4.65,2.1-6.35s4.47-2.16,6.27-3.86C367.77,321.93,367.89,318.69,367.68,315.83Z"></path></g><path d="M378.34,316.56a5.24,5.24,0,0,1,.54-1.08c.38-.67,1-1.64,1.68-2.82,1.44-2.37,3.5-5.6,5.89-9.1s4.65-6.59,6.33-8.8c.84-1.1,1.54-2,2-2.58a5.49,5.49,0,0,1,.8-.9,5.43,5.43,0,0,1-.64,1L393.08,295c-1.6,2.26-3.81,5.39-6.2,8.88s-4.49,6.68-6,9c-.72,1.09-1.33,2-1.81,2.74A5.85,5.85,0,0,1,378.34,316.56Z" style="fill:#263238"></path><path d="M377.07,315a10.29,10.29,0,0,1,.91-2.34,47.09,47.09,0,0,1,2.93-5.29,46.55,46.55,0,0,1,3.59-4.88,10.82,10.82,0,0,1,1.74-1.81,14.36,14.36,0,0,1-1.45,2c-.92,1.23-2.17,2.95-3.44,4.93s-2.31,3.82-3,5.18A14.77,14.77,0,0,1,377.07,315Z" style="fill:#263238"></path><g style="opacity:0.30000000000000004"><path d="M395.14,292c-6.57,6-12.39,11.94-17,20.5-.89,1.63-2,3.34-1.73,5.18a.69.69,0,0,0,.28.57c.34.19.89-.23,1.39-1.16,4.68-8.71,11.32-16.81,17.1-25.09"></path></g><path d="M324.87,231.81l-9.57,7.31c-1.61,8.14,4.67,16.21,3.39,24.41-.89,5.68-5.35,10.75-4.56,16.44.34,2.4,1.6,4.6,1.89,7,.54,4.32-2.08,8.41-2.43,12.74a12.76,12.76,0,0,0,7.52,12.44c2.17-2.53,3.05-5.93,3.32-9.25s0-6.66.21-10c.57-9.42,4.87-18.22,6.49-27.52A49.49,49.49,0,0,0,324.87,231.81Z" style="fill:#263238"></path><path d="M315.34,273.8a8.75,8.75,0,0,0-.65,1.52,8.48,8.48,0,0,0,.16,4.43c.45,1.84,1.53,4,1.63,6.6s-.82,5.38-1.74,8.15-1.64,5.52-1.29,8a11.46,11.46,0,0,0,2.71,6,11.93,11.93,0,0,0,3.52,2.77c1,.48,1.54.64,1.52.69s-.15,0-.43-.09a7.53,7.53,0,0,1-1.17-.42,11.17,11.17,0,0,1-3.71-2.7,11.79,11.79,0,0,1-2.92-6.14c-.39-2.61.36-5.45,1.28-8.23s1.81-5.46,1.75-8-1.09-4.63-1.5-6.53a8.13,8.13,0,0,1,0-4.58,4.19,4.19,0,0,1,.56-1.13A1.42,1.42,0,0,1,315.34,273.8Z" style="fill:#455a64"></path><path d="M329.7,325.27c-.25.75-1.05,7.85-1.05,7.85l-54.51-6.83-4.51,15.11s50.26,15.6,60.49,16.18a20.37,20.37,0,0,0,20.4-11.93l6.6-24.74Z" style="fill:#ffbe9d"></path><polygon points="206.87 300.47 232.9 325.05 252.84 336.75 264.87 329.07 265.59 326.75 222.97 284.71 212.11 293.65 209.49 291.24 207.17 292.83 206.87 300.47" style="fill:#fafafa"></polygon><polygon points="206.87 300.47 208.43 299.73 221.95 288.86 264.4 329.37 252.84 336.75 232.9 325.05 206.87 300.47" style="fill:#FF725E"></polygon><path d="M265.09,328.36a6.57,6.57,0,0,1-.64-.55l-1.76-1.65L256.27,320l-21-20.39-13-12.69.31,0L209.2,297.63l-.24.19,0-.3c.12-1.94.22-3.48.28-4.58l.09-1.19a2.26,2.26,0,0,1,.06-.41,1.85,1.85,0,0,1,0,.41c0,.31,0,.7,0,1.2,0,1.1-.09,2.64-.16,4.58l-.22-.11,13.23-10.82.16-.14.15.15,13,12.65c8.16,8,15.55,15.22,20.93,20.5l6.31,6.25,1.69,1.72A4.42,4.42,0,0,1,265.09,328.36Z" style="fill:#263238"></path><rect x="224.4" y="292.47" width="1" height="44.65" transform="translate(-159.18 268.31) rotate(-47.56)" style="fill:#263238"></rect><path d="M260.83,320.42l7.54,4.5,9.19,1.79-7.93,14.69H258.05s-13.77-1.39-14.17-1.52-1.72-1.46-1.06-2.52l.67-1.06s-4.24-.52-4.11-3.57c0,0-3-.38-2.78-3.17s2.52-2.12,2.52-2.12l5.16-.53-12.84-9a1.73,1.73,0,0,1,2.12-2c2.38.26,15.88,6.88,16.81,7.54s2.9,1.06,3.77.27S260.83,320.42,260.83,320.42Z" style="fill:#ffbe9d"></path><path d="M332.31,342.16a22.09,22.09,0,0,1-2.11-4.34,22.77,22.77,0,0,1-1.63-4.54,44.77,44.77,0,0,1,3.74,8.88Z" style="fill:#eb996e"></path><path d="M355.83,263.67c-6-6.3-17.27-5.07-21.38,2.57-2.82,5.23-4.45,14.8-5.36,21.16-1.71,12-3.92,38.59-3.92,38.59l40.94-6.51s.86-30-2.56-41.29C362.13,273.5,358.93,266.94,355.83,263.67Z" style="fill:#FF725E"></path><path d="M355.83,263.67a18.59,18.59,0,0,1,2.64,3.36,46.86,46.86,0,0,1,5.13,10.82c1.48,4.95,2,11.17,2.46,18.19s.47,14.93.29,23.45v.2l-.2,0-34.06,5.43-6.88,1.09-.33.05,0-.33c1-11.94,2.08-23.23,3.28-33.44.62-5.1,1.34-9.92,2.27-14.38a47.53,47.53,0,0,1,3.87-12,12.85,12.85,0,0,1,8.16-6.13,14.42,14.42,0,0,1,7.77.19,13.36,13.36,0,0,1,4.33,2.32c.43.37.73.68.93.88s.31.31.31.31l-.34-.28c-.22-.18-.53-.48-1-.83a13.46,13.46,0,0,0-4.33-2.21,14.23,14.23,0,0,0-7.64-.11,12.56,12.56,0,0,0-7.92,6,47.23,47.23,0,0,0-3.77,12c-.91,4.45-1.61,9.27-2.21,14.36-1.18,10.2-2.21,21.49-3.23,33.43l-.3-.28,6.88-1.09,34.07-5.4-.21.23c.2-8.5.11-16.38-.22-23.41s-.91-13.21-2.33-18.12a48.7,48.7,0,0,0-5-10.82,27.76,27.76,0,0,0-1.82-2.6c-.22-.29-.41-.48-.52-.63A1.1,1.1,0,0,1,355.83,263.67Z" style="fill:#263238"></path><path d="M550,284.83l-15.17-46.22s-11-1.3-11.7-6.28,7.15-16.47,7.15-16.47,3.69-14.52,5-20.59,6.28-11.7,9.1-11.27,1.3,3.25.86,6.29-2.6,4.77,0,12.57,5,19.28,6.29,24.48,29,58,29,58Z" style="fill:#ffbe9d"></path><path d="M550,284.83h2.1l6,.05,22.45.29-.15.25c-5.41-10.29-12.24-23.31-19.81-38.27-1.89-3.75-3.83-7.61-5.75-11.61-1-2-1.93-4-2.82-6.13a18.07,18.07,0,0,1-1.07-3.29c-.26-1.12-.53-2.24-.79-3.37-1.05-4.53-2.12-9.15-3.39-13.79-.62-2.33-1.34-4.64-2.09-7a16.42,16.42,0,0,1-.82-7.41,27.42,27.42,0,0,1,.84-3.12,10.92,10.92,0,0,0,.32-1.53c.09-.53.2-1,.32-1.57a8.58,8.58,0,0,0,.37-3c-.14-.91-1.33-1.25-2.21-1a6.2,6.2,0,0,0-2.55,1.49,15,15,0,0,0-2,2.24,19.58,19.58,0,0,0-2.83,5.29c-.61,1.88-1,3.87-1.49,5.78s-.93,3.84-1.39,5.73c-.91,3.77-1.81,7.47-2.68,11.07v0l0,0a78.09,78.09,0,0,0-4.38,7.44,37.43,37.43,0,0,0-1.71,3.79,14.87,14.87,0,0,0-1,3.88,4.75,4.75,0,0,0,.16,1.89,4.38,4.38,0,0,0,1,1.56,10.45,10.45,0,0,0,3.2,2,28.4,28.4,0,0,0,7.11,1.86l.13,0,0,.12c4.6,14.14,8.36,25.69,11,33.71,1.3,4,2.3,7.14,3,9.29l.77,2.43c.17.55.25.85.25.85s-.1-.26-.29-.8l-.81-2.39-3.08-9.22-11.18-33.74.17.13a29.06,29.06,0,0,1-7.23-1.86,10.89,10.89,0,0,1-3.34-2.09,4.64,4.64,0,0,1-1.13-1.72,5,5,0,0,1-.2-2.07,15.51,15.51,0,0,1,1-4,39.59,39.59,0,0,1,1.72-3.84,77.93,77.93,0,0,1,4.4-7.5l0,.08,2.67-11.07q.68-2.82,1.38-5.72c.23-1,.47-1.93.7-2.9a29,29,0,0,1,.8-2.93,20.23,20.23,0,0,1,2.9-5.44,15,15,0,0,1,2.12-2.32,6.73,6.73,0,0,1,2.78-1.61,2.76,2.76,0,0,1,1.68.12,1.77,1.77,0,0,1,1.14,1.31,8.6,8.6,0,0,1-.36,3.23c-.12.51-.23,1-.32,1.54a11.53,11.53,0,0,1-.33,1.59,26.57,26.57,0,0,0-.83,3.05,16.12,16.12,0,0,0,.81,7.18c.74,2.32,1.47,4.66,2.09,7,1.27,4.66,2.34,9.29,3.38,13.81.27,1.13.53,2.26.79,3.37a17.31,17.31,0,0,0,1,3.22c.89,2.08,1.85,4.11,2.8,6.11,1.92,4,3.85,7.86,5.73,11.61,7.54,15,14.32,28,19.69,38.32l.13.25h-.28l-22.54-.46-6-.15-1.53,0C550.21,284.85,550,284.83,550,284.83Z" style="fill:#eb996e"></path></g></svg>