<svg xmlns="http://www.w3.org/2000/svg" viewBox="0 0 750 500"><g id="background-complete"><path d="M369.36,54.48l-2.46-.64L363.47,45,364.75,40s-3.74-1.23-5,5.32-1.28,4.79-1.28,4.79-8.09-2.07-8.95-1.55c-.62.39-2.93,8.35-4.15,12.68a4.87,4.87,0,0,0,2.11,5.62,3.37,3.37,0,0,0,.84.34c2,.53,12.73,1.57,12.73,1.57l4.25,1.11Z" style="fill:#ebebeb"></path><polygon points="376.75 54.96 370.86 71.41 366.64 70.31 370.94 53.81 376.75 54.96" style="fill:#ebebeb"></polygon><path d="M459.06,183a4.25,4.25,0,0,0-1.05-2.33,4.06,4.06,0,0,0-2.1-1.35,3.37,3.37,0,0,0-2.59.45,3.33,3.33,0,0,0-1.07,1.17,3.45,3.45,0,0,0-1-1.08,3.33,3.33,0,0,0-2.56-.55,4.1,4.1,0,0,0-2.16,1.27,4.26,4.26,0,0,0-1.13,2.28A5.21,5.21,0,0,0,446,186a7.33,7.33,0,0,0,2.48,2.41c1.63,1,3.77,2.31,3.77,2.31s1.86-1.34,3.53-2.3a7.2,7.2,0,0,0,2.56-2.31A5.17,5.17,0,0,0,459.06,183Z" style="fill:#ebebeb"></path><path d="M279.75,255.68a4.21,4.21,0,0,0-1-2.32A4.1,4.1,0,0,0,276.6,252a3.4,3.4,0,0,0-2.58.46,3.28,3.28,0,0,0-1.08,1.17,3.2,3.2,0,0,0-1-1.08,3.33,3.33,0,0,0-2.56-.55,4,4,0,0,0-2.16,1.26,4.22,4.22,0,0,0-1.13,2.29,5.14,5.14,0,0,0,.58,3.2,7.39,7.39,0,0,0,2.47,2.41c1.63,1,3.78,2.3,3.78,2.3s1.86-1.33,3.52-2.29a7.35,7.35,0,0,0,2.57-2.32A5.08,5.08,0,0,0,279.75,255.68Z" style="fill:#ebebeb"></path><path d="M274.12,173.18a7.94,7.94,0,0,0-1.77-4.47,7.6,7.6,0,0,0-3.84-2.72,6.21,6.21,0,0,0-7,2.74,6.15,6.15,0,0,0-1.71-2.11,6.27,6.27,0,0,0-4.78-1.26,7.65,7.65,0,0,0-4.16,2.2,8,8,0,0,0-2.33,4.21,9.81,9.81,0,0,0,.82,6.06,13.82,13.82,0,0,0,4.45,4.74c3,2.07,6.91,4.66,6.91,4.66s3.61-2.35,6.82-4a13.76,13.76,0,0,0,5-4.13A9.76,9.76,0,0,0,274.12,173.18Z" style="fill:#ebebeb"></path><path d="M435.78,101.92a5.52,5.52,0,0,0-.5-3.27,5.25,5.25,0,0,0-2.15-2.41,4.29,4.29,0,0,0-3.38-.33A4.36,4.36,0,0,0,428,97a4.12,4.12,0,0,0-.82-1.68,4.31,4.31,0,0,0-3-1.58,5.29,5.29,0,0,0-3.13.83A5.57,5.57,0,0,0,418.84,97a6.71,6.71,0,0,0-.38,4.19,9.43,9.43,0,0,0,2.25,3.86c1.67,1.84,3.9,4.19,3.9,4.19s2.78-1,5.19-1.64a9.49,9.49,0,0,0,4-2A6.66,6.66,0,0,0,435.78,101.92Z" style="fill:#ebebeb"></path><polygon points="395.83 253.59 415.34 171.85 445.93 247.79 436.96 245.15 459.11 290.5 446.45 286.29 461.75 303.61 393.19 303.61 398.99 288.39 393.19 296.31 405.87 248.46 395.83 253.59" style="fill:#f5f5f5"></polygon><polygon points="25.71 218.1 52.59 105.48 94.74 210.11 82.38 206.47 112.9 268.96 95.46 263.15 116.53 303.83 22.08 303.83 30.07 266.05 22.08 276.95 39.55 211.04 25.71 218.1" style="fill:#f5f5f5"></polygon><polygon points="153.23 217.88 180.11 105.26 222.25 209.89 209.9 206.25 240.42 268.74 222.98 262.93 244.05 303.61 149.59 303.61 157.59 265.83 149.59 276.73 167.07 210.81 153.23 217.88" style="fill:#f5f5f5"></polygon><polygon points="434.56 269.63 445.29 224.69 462.1 266.44 457.17 264.99 469.35 289.92 462.39 287.6 470.8 303.83 433.11 303.83 436.3 288.76 433.11 293.11 440.08 266.81 434.56 269.63" style="fill:#e0e0e0"></polygon><polygon points="104.63 236.83 125.57 149.1 158.4 230.6 148.78 227.77 172.55 276.45 158.96 271.92 175.38 303.61 101.8 303.61 108.03 274.18 101.8 282.67 115.41 231.33 104.63 236.83" style="fill:#e0e0e0"></polygon><polygon points="639.14 256.1 657.76 178.09 686.95 250.56 678.4 248.05 699.53 291.33 687.46 287.3 702.05 303.83 636.63 303.83 642.16 289.31 636.63 296.86 648.73 251.21 639.14 256.1" style="fill:#f5f5f5"></polygon><polygon points="676.41 271.19 686.65 228.31 702.7 268.15 697.99 266.76 709.61 290.56 702.97 288.34 710.99 303.83 675.03 303.83 678.07 289.45 675.03 293.6 681.68 268.5 676.41 271.19" style="fill:#e0e0e0"></polygon><path d="M732.18,303.83c0,.15-159.93.26-357.16.26s-357.2-.11-357.2-.26,159.89-.26,357.2-.26S732.18,303.69,732.18,303.83Z" style="fill:#e0e0e0"></path><circle cx="651.78" cy="77.57" r="18.4" transform="translate(389.52 679.28) rotate(-73.24)" style="fill:#ebebeb"></circle><path d="M649.16,118.73a74.33,74.33,0,0,1-.19-7.6,74.21,74.21,0,0,1,.19-7.59,72.36,72.36,0,0,1,.2,7.59A72.48,72.48,0,0,1,649.16,118.73Z" style="fill:#e0e0e0"></path><path d="M638.56,99.26c.09.06-1.64,3.23-3.87,7.09s-4.11,6.94-4.2,6.88,1.64-3.22,3.86-7.08S638.46,99.21,638.56,99.26Z" style="fill:#e0e0e0"></path><path d="M627.67,92.49a41.9,41.9,0,0,1-4.3,3.66,41.33,41.33,0,0,1-4.54,3.36,43.27,43.27,0,0,1,4.3-3.66A40.85,40.85,0,0,1,627.67,92.49Z" style="fill:#e0e0e0"></path><path d="M667.52,111.25a11.21,11.21,0,0,1-.48-1.87c-.27-1.16-.64-2.76-1.11-4.51s-.95-3.31-1.3-4.45a10.51,10.51,0,0,1-.52-1.86,8.13,8.13,0,0,1,.78,1.77c.42,1.12.94,2.68,1.41,4.44s.81,3.38,1,4.56A8.49,8.49,0,0,1,667.52,111.25Z" style="fill:#e0e0e0"></path><path d="M686.19,98a63,63,0,0,1-5.44-4.5,63,63,0,0,1-5.19-4.79,65.29,65.29,0,0,1,5.44,4.5A65.13,65.13,0,0,1,686.19,98Z" style="fill:#e0e0e0"></path><path d="M693.34,79.8a15.66,15.66,0,0,1-2.22-.32c-1.37-.23-3.25-.52-5.34-.76s-4-.38-5.38-.47a15.08,15.08,0,0,1-2.23-.19,11,11,0,0,1,2.24-.08,52.84,52.84,0,0,1,5.41.35c2.11.25,4,.58,5.35.88A11.24,11.24,0,0,1,693.34,79.8Z" style="fill:#e0e0e0"></path><path d="M693.36,61.9c0,.1-4,1.16-8.9,2.37s-9,2.09-9,2,4-1.17,8.9-2.37S693.34,61.79,693.36,61.9Z" style="fill:#e0e0e0"></path><path d="M672.56,41c.09.06-1.81,3.1-4.25,6.79s-4.49,6.64-4.58,6.58,1.81-3.1,4.25-6.79S672.48,41,672.56,41Z" style="fill:#e0e0e0"></path><path d="M651.93,36.69a18,18,0,0,1,0,2.52c0,1.56-.05,3.71-.05,6.09s0,4.53.07,6.09a20.19,20.19,0,0,1,0,2.52,13.67,13.67,0,0,1-.26-2.51c-.09-1.56-.17-3.72-.18-6.1s.08-4.54.17-6.1A13.25,13.25,0,0,1,651.93,36.69Z" style="fill:#e0e0e0"></path><path d="M636.3,56.15c-.09.06-2-2.95-4.33-6.71s-4.09-6.86-4-6.92,2,2.95,4.33,6.72S636.39,56.1,636.3,56.15Z" style="fill:#e0e0e0"></path><path d="M627,64.09a9.38,9.38,0,0,1-2-.31c-1.19-.25-2.83-.66-4.63-1.18s-3.38-1.09-4.52-1.52a9.09,9.09,0,0,1-1.82-.81,11.84,11.84,0,0,1,1.91.55c1.16.37,2.76.88,4.54,1.4s3.41,1,4.59,1.29A10.59,10.59,0,0,1,627,64.09Z" style="fill:#e0e0e0"></path><path d="M622.88,78.23A48.37,48.37,0,0,1,617,79a44.87,44.87,0,0,1-5.91.37A44,44,0,0,1,617,78.6,44.87,44.87,0,0,1,622.88,78.23Z" style="fill:#e0e0e0"></path><path d="M171.56,66c.69-5-6.36-9.1-11.66-9.53-2.52-.2-5.15.18-7.54-.65C147.17,54,145.1,47.3,140,45.17c-3.78-1.6-8.13-.18-11.8,1.67S121,51,116.86,51.27c-3.57.23-7.44-1.09-10.55.65-2.33,1.29-3.54,4-5.69,5.55s-4.82,1.87-7.42,2-5.29.17-7.66,1.25-4.32,3.59-3.83,6.15Z" style="fill:#ebebeb"></path><path d="M544.73,69.77c.47-3.46-4.4-6.3-8.07-6.59-1.75-.15-3.56.12-5.22-.46-3.59-1.25-5-5.88-8.52-7.36-2.62-1.1-5.64-.12-8.17,1.16s-5.05,2.88-7.88,3.06c-2.47.16-5.15-.75-7.31.45-1.6.9-2.45,2.75-3.93,3.84a9.39,9.39,0,0,1-5.14,1.4,14.53,14.53,0,0,0-5.3.86c-1.63.75-3,2.49-2.65,4.25Z" style="fill:#f5f5f5"></path><path d="M658.9,154.63c.65-4.72-6-8.6-11-9-2.39-.2-4.87.17-7.13-.62-4.89-1.71-6.85-8-11.63-10-3.57-1.5-7.68-.16-11.14,1.58s-6.89,3.94-10.76,4.18c-3.36.22-7-1-10,.62-2.2,1.22-3.35,3.75-5.37,5.24s-4.56,1.77-7,1.9-5,.16-7.23,1.18-4.09,3.39-3.62,5.81Z" style="fill:#f5f5f5"></path></g><g id="background-simple"><path d="M644.81,100.32l-1.19-2.89c-10-24.3-32.27-41.49-58.21-43.88a68.65,68.65,0,0,0-10-.18c-24.13,1.35-47.21,15.83-59.16,37.13-7,12.53-10.81,27.63-21.86,36.72-14.37,11.83-35.21,9-53.38,5.6s-39-6.18-53.36,5.71c-9,7.45-13.31,19.35-14.5,31C370,200.43,387,231.15,412,249s56.78,24.06,87.43,22.71c42.92-1.89,86.1-18.75,115.44-50.62S657.85,141.69,644.81,100.32Z" style="fill:#f5f5f5"></path><circle cx="153.68" cy="121.24" r="70.6" style="fill:#f5f5f5"></circle></g><g id="Floor"><path d="M730,453.65c0,.14-159,.26-355,.26s-355-.12-355-.26,158.93-.26,355-.26S730,453.5,730,453.65Z" style="fill:#263238"></path></g><g id="Plants"><path d="M62.32,436.12a12.51,12.51,0,0,1,1.15,2.43c.63,1.54,1.43,3.69,2.16,6.12a56.52,56.52,0,0,1,1.55,6.3,10.64,10.64,0,0,1,.31,2.68,20.09,20.09,0,0,1-.67-2.6c-.38-1.61-.95-3.82-1.69-6.23s-1.46-4.57-2-6.14A15.07,15.07,0,0,1,62.32,436.12Z" style="fill:#263238"></path><path d="M73.05,415.88c.14,0,.34,8.45.44,18.88s.07,18.89-.08,18.89-.34-8.45-.44-18.88S72.91,415.88,73.05,415.88Z" style="fill:#263238"></path><path d="M83.14,436.15A79.93,79.93,0,0,1,81,445a79.87,79.87,0,0,1-2.64,8.68,79.93,79.93,0,0,1,2.13-8.82A79,79,0,0,1,83.14,436.15Z" style="fill:#263238"></path><path d="M193,436.21a12.86,12.86,0,0,1,1.15,2.43c.63,1.53,1.42,3.69,2.16,6.11a58.37,58.37,0,0,1,1.55,6.31,11.9,11.9,0,0,1,.31,2.67,16.71,16.71,0,0,1-.67-2.6c-.38-1.6-1-3.81-1.69-6.22s-1.47-4.58-2-6.14A15.72,15.72,0,0,1,193,436.21Z" style="fill:#263238"></path><path d="M203.68,416c.14,0,.34,8.45.44,18.88s.06,18.88-.08,18.88-.34-8.45-.44-18.88S203.53,416,203.68,416Z" style="fill:#263238"></path><path d="M213.77,436.24a78.91,78.91,0,0,1-2.14,8.81,78.16,78.16,0,0,1-2.64,8.68,81.68,81.68,0,0,1,2.14-8.81A79,79,0,0,1,213.77,436.24Z" style="fill:#263238"></path><path d="M558.11,439.66a7.15,7.15,0,0,1,1.42,1.69,24.47,24.47,0,0,1,2.56,4.68,24.77,24.77,0,0,1,1.5,5.13,7,7,0,0,1,.19,2.2,60.94,60.94,0,0,0-2.17-7.13A63,63,0,0,0,558.11,439.66Z" style="fill:#263238"></path><path d="M561.49,424.6c.14,0,1.71,6.46,3.51,14.49s3.15,14.57,3,14.6-1.72-6.45-3.52-14.49S561.35,424.63,561.49,424.6Z" style="fill:#263238"></path><path d="M573.38,438.32a35.73,35.73,0,0,1-.44,7.67c-.23,2-.45,3.8-.63,5.38a10.74,10.74,0,0,1-.32,2.23,35.72,35.72,0,0,1,.44-7.67c.23-2,.45-3.8.63-5.38A10.43,10.43,0,0,1,573.38,438.32Z" style="fill:#263238"></path></g><g id="character-3"><path d="M527.87,290.59s28.72,35.81,31.35,46.47C561,344.2,558,351,555.4,354.78c-4.12,6.1-23.21,39.37-23.21,39.37l-17.93-7.64,13.61-35.2v-6.23l-39.1-51.54,35.23-8.7Z" style="fill:#263238"></path><polygon points="516.14 378.33 537.43 382.1 514.91 425.99 500.64 417.14 516.14 378.33" style="fill:#263238"></polygon><path d="M577.47,230,546,220.65l-16-19.77-11.42,10.59,20.14,22.26a7.28,7.28,0,0,0,5.24,2.89l33.48,2.27Z" style="fill:#ffbe9d"></path><path d="M449.94,132.39c3.92,2.5,9.18,1.79,13.32-.31s7.52-5.43,11.17-8.3,7.91-5.4,12.55-5.47,9.61,3.11,10,7.73l-1.19,14.43a57.53,57.53,0,0,0-15.57,5.44c-3.67,1.92-7.31,4.29-11.45,4.59-5.82.42-11.15-3.4-14.91-7.87l3.71.33A14,14,0,0,1,449.94,132.39Z" style="fill:#263238"></path><path d="M518.46,115.76c-4.88-1.62-9.58-.36-14.24,1.82a26.14,26.14,0,0,0-14.38,26,20.16,20.16,0,0,0,7.93,13.67c6,4.3,14.53,4.42,21,.9s11-10.3,12.34-17.57a24.31,24.31,0,0,0-1.63-14.94,18.56,18.56,0,0,0-11.06-9.91" style="fill:#263238"></path><path d="M501.61,130.62c1-1.8,1.06-4,1.66-6,1.33-4.38,5.48-7.42,9.92-8.53,4.12-1,8.81,0,13.25,2.27a18.07,18.07,0,0,1,7.53,6.72,14.23,14.23,0,0,1,.65,13l-22.39-6.83a25.89,25.89,0,0,1-7.63,3.51,4.84,4.84,0,0,1-2.45,0,2.16,2.16,0,0,1-1.56-1.74A4.62,4.62,0,0,1,501.61,130.62Z" style="fill:#263238"></path><path d="M526,124.79,505.33,126a3.78,3.78,0,0,0-4,3.13l-6.37,43.29A13.59,13.59,0,0,0,496.5,181l1.53,2.75A10,10,0,0,0,514.69,185a5.29,5.29,0,0,0,.63-1.06,8.55,8.55,0,0,0,.34-1,31.39,31.39,0,0,0,1.34-6.5c.79-3.82,1.09-5.39,1.08-5.36s8.34.22,12-10c1.84-5.08,3.23-13.73,4.14-20.84C535.09,133.9,532.4,125.34,526,124.79Z" style="fill:#ffbe9d"></path><path d="M529.33,148.66a1.37,1.37,0,0,1-1.56,1.11,1.32,1.32,0,0,1-1.16-1.49,1.36,1.36,0,0,1,1.56-1.11A1.31,1.31,0,0,1,529.33,148.66Z" style="fill:#263238"></path><path d="M531.55,144.42c-.2.14-1.08-.81-2.54-1.09s-2.66.25-2.78,0,.17-.38.7-.63a3.74,3.74,0,0,1,2.27-.25,3.6,3.6,0,0,1,2,1.09C531.55,144,531.64,144.36,531.55,144.42Z" style="fill:#263238"></path><path d="M516.7,146.65a1.38,1.38,0,0,1-1.57,1.12,1.33,1.33,0,0,1-1.16-1.49,1.39,1.39,0,0,1,1.57-1.12A1.33,1.33,0,0,1,516.7,146.65Z" style="fill:#263238"></path><path d="M517.7,141.94c-.2.14-1.08-.81-2.53-1.09s-2.67.25-2.79,0,.17-.38.7-.63a3.83,3.83,0,0,1,2.27-.25,3.6,3.6,0,0,1,2,1.09C517.71,141.53,517.8,141.88,517.7,141.94Z" style="fill:#263238"></path><path d="M520.39,153.74a10.48,10.48,0,0,1,2.45,0c.38,0,.74,0,.86-.21a1.9,1.9,0,0,0,0-1.15c-.18-1-.36-2-.55-3-.75-4.32-1.22-7.85-1.05-7.88s.93,3.45,1.68,7.77c.17,1.07.34,2.08.5,3.05a2.18,2.18,0,0,1-.09,1.5.9.9,0,0,1-.71.42,2.25,2.25,0,0,1-.65,0A9.07,9.07,0,0,1,520.39,153.74Z" style="fill:#263238"></path><path d="M518.08,171.15a27.33,27.33,0,0,1-13.39-6.48s2.14,8,12.89,9Z" style="fill:#eb996e"></path><path d="M519.1,157.13a2.68,2.68,0,0,0-2.16-1.43,2.45,2.45,0,0,0-1.82.57,1.52,1.52,0,0,0-.45,1.71,1.77,1.77,0,0,0,1.81.85,5.49,5.49,0,0,0,2.08-.75,1.42,1.42,0,0,0,.49-.35.48.48,0,0,0,.11-.54" style="fill:#eb996e"></path><path d="M515.92,153.92c.24,0-.06,1.62,1.07,3s2.85,1.53,2.82,1.75-.43.24-1.15.12a4,4,0,0,1-2.37-1.38,3.49,3.49,0,0,1-.8-2.49C515.56,154.25,515.81,153.89,515.92,153.92Z" style="fill:#263238"></path><path d="M518.28,137.58c-.22.37-1.63-.1-3.38-.22s-3.22.08-3.37-.32c-.07-.19.24-.52.87-.79a5.6,5.6,0,0,1,2.62-.39,5.76,5.76,0,0,1,2.53.8C518.13,137,518.38,137.41,518.28,137.58Z" style="fill:#263238"></path><path d="M532.35,138c-.32.29-1.26-.25-2.46-.5s-2.27-.21-2.43-.6c-.08-.18.15-.48.66-.71a3.61,3.61,0,0,1,3.94.89C532.42,137.47,532.49,137.84,532.35,138Z" style="fill:#263238"></path><path d="M498.41,127c3-5.77,13.32-12.69,19.64-11.13l9.15,7.89a10,10,0,0,1-8,6.38c-1.9.24-4.1,0-5.45,1.38s-1.13,3.81-2.43,5.27c-1.81,2-5.65,1.25-7.14,3.51-.65,1-.63,2.32-1.29,3.3-.89,1.3-4.78,2.47-6.18,1.75s-1-3.25-1.23-4.66a7.09,7.09,0,0,1,.6-4.73C497.25,133.06,497,129.73,498.41,127Z" style="fill:#263238"></path><path d="M500.87,147.33c.15-.78-.4-2.81-1.15-3.08-2-.72-5.77-1.27-6.82,4-1.43,7.18,6.07,7.14,6.12,6.93S500.36,150.05,500.87,147.33Z" style="fill:#ffbe9d"></path><path d="M497.37,152s-.14.07-.37.12a1.23,1.23,0,0,1-.94-.17,3.16,3.16,0,0,1-.88-3.06,4.29,4.29,0,0,1,.71-1.72,1.47,1.47,0,0,1,1.13-.77.65.65,0,0,1,.67.49c.06.22,0,.35,0,.37s.18-.09.18-.39a.81.81,0,0,0-.19-.51A1,1,0,0,0,497,146a1.81,1.81,0,0,0-1.53.85,4.36,4.36,0,0,0-.83,1.92c-.24,1.45.23,2.95,1.21,3.46a1.39,1.39,0,0,0,1.18,0C497.32,152.18,497.39,152,497.37,152Z" style="fill:#eb996e"></path><path d="M490.38,135.6a6.36,6.36,0,0,1,.06-2.21,16.17,16.17,0,0,1,4.83-9.37,6.63,6.63,0,0,1,1.77-1.33,20,20,0,0,0-6.66,12.91Z" style="fill:#FF725E"></path><path d="M525.43,121.23c.22,3,4.11,7.5,5.73,10.1,3.08,4.94,3.59,6.5,2.06,16.27,2.29-3.1,4.15-6.2,4.59-10a16,16,0,0,0-2.6-11,12.44,12.44,0,0,0-9.78-5.33" style="fill:#263238"></path><path d="M494.74,126.32a7.1,7.1,0,0,0,1.18.49c.39.15.86.32,1.43.48s1.2.38,1.92.53a34.25,34.25,0,0,0,5.12.83,35.93,35.93,0,0,0,12.61-1.1,35.13,35.13,0,0,0,4.89-1.71c.69-.27,1.28-.59,1.8-.85a12.51,12.51,0,0,0,1.32-.72,6.54,6.54,0,0,0,1.08-.69,8.47,8.47,0,0,0-1.16.54c-.36.19-.81.42-1.34.65s-1.13.53-1.82.79a38.14,38.14,0,0,1-4.87,1.6,40.57,40.57,0,0,1-6.2,1.06,42.61,42.61,0,0,1-6.28,0,38.12,38.12,0,0,1-5.08-.73c-.72-.13-1.36-.32-1.93-.46s-1-.28-1.43-.41A7,7,0,0,0,494.74,126.32Z" style="fill:#455a64"></path><path d="M493.2,131.39a3.31,3.31,0,0,0,.8.33,21.56,21.56,0,0,0,2.29.66,29.88,29.88,0,0,0,7.8.72,29.53,29.53,0,0,0,7.72-1.38,19.94,19.94,0,0,0,2.23-.84,3.13,3.13,0,0,0,.77-.4c0-.07-1.17.4-3.09,1a32.92,32.92,0,0,1-15.37.64C494.4,131.69,493.22,131.32,493.2,131.39Z" style="fill:#455a64"></path><path d="M418.29,383.94c.12,0-3.72-13.33-8.59-29.67s-8.92-29.57-9-29.54,3.72,13.32,8.59,29.67S418.16,384,418.29,383.94Z" style="fill:#263238"></path><path d="M418.29,383.94c.13,0-1.49-13.76-3.61-30.68s-3.95-30.63-4.08-30.61,1.49,13.74,3.61,30.67S418.16,384,418.29,383.94Z" style="fill:#263238"></path><path d="M418.29,383.94c.13,0,1-13.8,1.88-30.83s1.54-30.85,1.41-30.86-1,13.8-1.88,30.83S418.16,383.93,418.29,383.94Z" style="fill:#263238"></path><path d="M418.29,383.94c.12,0,3.26-13.44,7-30.08s6.68-30.16,6.55-30.19-3.27,13.44-7,30.08S418.16,383.91,418.29,383.94Z" style="fill:#263238"></path><path d="M418.29,383.94c.12,0,5.47-12.71,11.94-28.49s11.63-28.61,11.51-28.66-5.47,12.7-11.95,28.48S418.17,383.89,418.29,383.94Z" style="fill:#263238"></path><path d="M418.29,383.94c.11.06,7.51-11.62,16.54-26.09s16.25-26.26,16.14-26.33-7.52,11.61-16.54,26.08S418.18,383.87,418.29,383.94Z" style="fill:#263238"></path><path d="M418.29,383.94c.09.08,9.35-10.19,20.67-22.95s20.41-23.18,20.32-23.27-9.36,10.19-20.68,22.95S418.19,383.85,418.29,383.94Z" style="fill:#263238"></path><path d="M418.29,383.94c.08.1,10.92-8.49,24.21-19.17s24-19.44,23.93-19.54-10.93,8.48-24.22,19.17S418.21,383.83,418.29,383.94Z" style="fill:#263238"></path><path d="M418.29,383.94c.06.11,12.19-6.54,27.08-14.85s26.92-15.15,26.85-15.26-12.18,6.53-27.08,14.85S418.22,383.82,418.29,383.94Z" style="fill:#263238"></path><path d="M418.29,383.94c0,.12,13.11-4.41,29.18-10.11s29.07-10.43,29-10.56-13.11,4.41-29.19,10.11S418.24,383.81,418.29,383.94Z" style="fill:#263238"></path><path d="M418.29,383.94c0,.12,13.66-2.15,30.46-5.09s30.41-5.42,30.39-5.55-13.66,2.15-30.47,5.09S418.27,383.81,418.29,383.94Z" style="fill:#263238"></path><path d="M418.29,383.94c0,.13,13.83.16,30.88.08s30.89-.26,30.89-.39-13.83-.17-30.89-.08S418.29,383.8,418.29,383.94Z" style="fill:#263238"></path><path d="M418.29,383.94c0,.12,13.6,2.47,30.43,5.24s30.5,4.92,30.52,4.79-13.61-2.48-30.44-5.25S418.31,383.81,418.29,383.94Z" style="fill:#263238"></path><path d="M418.29,383.94c0,.12,13,4.71,29.13,10.26s29.24,9.94,29.28,9.82-13-4.72-29.13-10.27S418.33,383.81,418.29,383.94Z" style="fill:#263238"></path><path d="M418.29,383.94c-.07.11,12,6.82,27,15s27.17,14.69,27.23,14.58-12-6.83-27-15S418.35,383.82,418.29,383.94Z" style="fill:#263238"></path><path d="M418.29,383.94c-.08.1,10.71,8.74,24.11,19.29s24.33,19,24.41,18.93-10.72-8.74-24.12-19.3S418.37,383.83,418.29,383.94Z" style="fill:#263238"></path><path d="M418.29,383.94c-.1.08,9.1,10.41,20.54,23.06s20.8,22.83,20.9,22.74-9.1-10.41-20.55-23.06S418.38,383.85,418.29,383.94Z" style="fill:#263238"></path><path d="M418.29,383.94c-.11.07,7.23,11.78,16.4,26.17s16.68,26,16.79,25.92-7.23-11.79-16.4-26.18S418.4,383.87,418.29,383.94Z" style="fill:#263238"></path><path d="M418.29,383.94c-.12.05,5.16,12.83,11.79,28.54s12.1,28.42,12.22,28.37S437.14,428,430.51,412.3,418.41,383.88,418.29,383.94Z" style="fill:#263238"></path><path d="M418.29,383.94c-.13,0,2.94,13.51,6.85,30.11s7.18,30,7.3,30-2.94-13.51-6.85-30.12S418.41,383.91,418.29,383.94Z" style="fill:#263238"></path><path d="M418.29,383.94c-.13,0,.64,13.81,1.71,30.83s2.06,30.82,2.19,30.81-.64-13.81-1.72-30.84S418.42,383.93,418.29,383.94Z" style="fill:#263238"></path><path d="M418.29,383.94c-.13,0-1.68,13.72-3.47,30.68s-3.13,30.73-3,30.74,1.68-13.72,3.47-30.69S418.42,384,418.29,383.94Z" style="fill:#263238"></path><path d="M418.29,383.94c-.13,0-4,13.25-8.55,29.67s-8.23,29.77-8.1,29.81,3.95-13.25,8.55-29.68S418.41,384,418.29,383.94Z" style="fill:#263238"></path><path d="M418.29,383.94c-.12-.06-6.12,12.4-13.4,27.82s-13.09,28-13,28,6.12-12.4,13.4-27.83S418.41,384,418.29,383.94Z" style="fill:#263238"></path><path d="M418.29,383.94c-.11-.08-8.11,11.2-17.86,25.19S382.84,434.52,383,434.6s8.1-11.21,17.86-25.2S418.39,384,418.29,383.94Z" style="fill:#263238"></path><path d="M418.29,383.94c-.1-.1-9.87,9.69-21.83,21.85S374.88,427.88,375,428s9.86-9.69,21.83-21.85S418.38,384,418.29,383.94Z" style="fill:#263238"></path><path d="M418.29,383.94c-.08-.11-11.35,7.9-25.18,17.89s-25,18.17-24.89,18.28,11.34-7.91,25.17-17.9S418.36,384,418.29,383.94Z" style="fill:#263238"></path><path d="M418.29,383.94c-.06-.12-12.51,5.89-27.81,13.43s-27.67,13.73-27.61,13.85,12.51-5.89,27.81-13.43S418.34,384.05,418.29,383.94Z" style="fill:#263238"></path><path d="M418.29,383.94c0-.13-13.32,3.72-29.67,8.58s-29.57,8.92-29.53,9.05,13.32-3.72,29.67-8.59S418.32,384.06,418.29,383.94Z" style="fill:#263238"></path><path d="M418.29,383.94c0-.13-13.76,1.44-30.69,3.5s-30.64,3.85-30.63,4,13.75-1.44,30.69-3.51S418.3,384.06,418.29,383.94Z" style="fill:#263238"></path><path d="M418.29,383.94c0-.13-13.81-.89-30.84-1.68s-30.86-1.34-30.86-1.21,13.79.88,30.84,1.68S418.28,384.07,418.29,383.94Z" style="fill:#263238"></path><path d="M418.29,383.94c0-.13-13.46-3.18-30.13-6.82s-30.2-6.47-30.22-6.35,13.45,3.18,30.12,6.81S418.26,384.06,418.29,383.94Z" style="fill:#263238"></path><path d="M418.29,383.94c0-.13-12.74-5.39-28.56-11.76S361,360.74,361,360.86s12.74,5.39,28.56,11.76S418.24,384.06,418.29,383.94Z" style="fill:#263238"></path><path d="M418.29,383.94c.07-.12-11.66-7.44-26.19-16.37s-26.38-16.08-26.45-16S377.31,359,391.85,368,418.22,384.05,418.29,383.94Z" style="fill:#263238"></path><path d="M418.29,383.94c.08-.1-10.25-9.29-23.09-20.52s-23.31-20.26-23.4-20.16,10.25,9.28,23.09,20.51S418.2,384,418.29,383.94Z" style="fill:#263238"></path><path d="M418.29,383.94c.1-.09-8.56-10.87-19.33-24.09s-19.6-23.88-19.7-23.8,8.56,10.87,19.33,24.09S418.19,384,418.29,383.94Z" style="fill:#263238"></path><path d="M418.29,383.94c.11-.07-6.62-12.15-15-27s-15.32-26.81-15.44-26.75,6.62,12.14,15,27S418.17,384,418.29,383.94Z" style="fill:#263238"></path><path d="M645.45,383.94c.12,0-3.72-13.33-8.59-29.67s-8.92-29.57-9-29.54,3.72,13.32,8.59,29.67S645.32,384,645.45,383.94Z" style="fill:#263238"></path><path d="M645.45,383.94c.13,0-1.49-13.76-3.61-30.68s-4-30.63-4.08-30.61,1.49,13.74,3.61,30.67S645.32,384,645.45,383.94Z" style="fill:#263238"></path><path d="M645.45,383.94c.13,0,1-13.8,1.88-30.83s1.54-30.85,1.41-30.86-1,13.8-1.88,30.83S645.32,383.93,645.45,383.94Z" style="fill:#263238"></path><path d="M645.45,383.94c.13,0,3.26-13.44,7-30.08s6.68-30.16,6.55-30.19-3.26,13.44-7,30.08S645.32,383.91,645.45,383.94Z" style="fill:#263238"></path><path d="M645.45,383.94c.12,0,5.47-12.71,11.94-28.49S669,326.84,668.9,326.79s-5.47,12.7-11.94,28.48S645.33,383.89,645.45,383.94Z" style="fill:#263238"></path><path d="M645.45,383.94c.11.06,7.51-11.62,16.54-26.09s16.25-26.26,16.14-26.33-7.52,11.61-16.54,26.08S645.34,383.87,645.45,383.94Z" style="fill:#263238"></path><path d="M645.45,383.94c.1.08,9.35-10.19,20.67-22.95s20.41-23.18,20.32-23.27-9.36,10.19-20.68,22.95S645.35,383.85,645.45,383.94Z" style="fill:#263238"></path><path d="M645.45,383.94c.08.1,10.92-8.49,24.21-19.17s24-19.44,23.93-19.54-10.92,8.48-24.22,19.17S645.37,383.83,645.45,383.94Z" style="fill:#263238"></path><path d="M645.45,383.94c.06.11,12.19-6.54,27.08-14.85s26.92-15.15,26.85-15.26-12.18,6.53-27.08,14.85S645.39,383.82,645.45,383.94Z" style="fill:#263238"></path><path d="M645.45,383.94c0,.12,13.11-4.41,29.18-10.11s29.08-10.43,29-10.56-13.11,4.41-29.19,10.11S645.4,383.81,645.45,383.94Z" style="fill:#263238"></path><path d="M645.45,383.94c0,.12,13.66-2.15,30.46-5.09s30.41-5.42,30.39-5.55-13.66,2.15-30.47,5.09S645.43,383.81,645.45,383.94Z" style="fill:#263238"></path><path d="M645.45,383.94c0,.13,13.83.16,30.88.08s30.89-.26,30.89-.39-13.83-.17-30.89-.08S645.45,383.8,645.45,383.94Z" style="fill:#263238"></path><path d="M645.45,383.94c0,.12,13.61,2.47,30.43,5.24s30.5,4.92,30.52,4.79-13.6-2.48-30.44-5.25S645.47,383.81,645.45,383.94Z" style="fill:#263238"></path><path d="M645.45,383.94c0,.12,13,4.71,29.13,10.26s29.24,9.94,29.28,9.82-13-4.72-29.13-10.27S645.49,383.81,645.45,383.94Z" style="fill:#263238"></path><path d="M645.45,383.94c-.06.11,12,6.82,27,15s27.17,14.69,27.23,14.58-12-6.83-27-15S645.51,383.82,645.45,383.94Z" style="fill:#263238"></path><path d="M645.45,383.94c-.08.1,10.72,8.74,24.11,19.29s24.33,19,24.41,18.93-10.72-8.74-24.12-19.3S645.53,383.83,645.45,383.94Z" style="fill:#263238"></path><path d="M645.45,383.94c-.1.08,9.1,10.41,20.54,23.06s20.8,22.83,20.9,22.74-9.1-10.41-20.55-23.06S645.55,383.85,645.45,383.94Z" style="fill:#263238"></path><path d="M645.45,383.94c-.11.07,7.23,11.78,16.4,26.17s16.68,26,16.79,25.92-7.23-11.79-16.4-26.18S645.56,383.87,645.45,383.94Z" style="fill:#263238"></path><path d="M645.45,383.94c-.12.05,5.16,12.83,11.79,28.54s12.1,28.42,12.22,28.37S664.31,428,657.67,412.3,645.57,383.88,645.45,383.94Z" style="fill:#263238"></path><path d="M645.45,383.94c-.13,0,2.94,13.51,6.85,30.11s7.18,30,7.31,30-2.94-13.51-6.85-30.12S645.58,383.91,645.45,383.94Z" style="fill:#263238"></path><path d="M645.45,383.94c-.13,0,.64,13.81,1.71,30.83s2.06,30.82,2.19,30.81-.64-13.81-1.72-30.84S645.58,383.93,645.45,383.94Z" style="fill:#263238"></path><path d="M645.45,383.94c-.13,0-1.68,13.72-3.47,30.68s-3.13,30.73-3,30.74,1.68-13.72,3.47-30.69S645.58,384,645.45,383.94Z" style="fill:#263238"></path><path d="M645.45,383.94c-.13,0-4,13.25-8.55,29.67s-8.23,29.77-8.1,29.81,4-13.25,8.55-29.68S645.57,384,645.45,383.94Z" style="fill:#263238"></path><path d="M645.45,383.94c-.12-.06-6.12,12.4-13.4,27.82s-13.09,28-13,28,6.12-12.4,13.4-27.83S645.57,384,645.45,383.94Z" style="fill:#263238"></path><path d="M645.45,383.94c-.11-.08-8.11,11.2-17.86,25.19S610,434.52,610.11,434.6s8.1-11.21,17.86-25.2S645.56,384,645.45,383.94Z" style="fill:#263238"></path><path d="M645.45,383.94c-.09-.1-9.87,9.69-21.83,21.85S602,427.88,602.13,428,612,418.28,624,406.12,645.54,384,645.45,383.94Z" style="fill:#263238"></path><path d="M645.45,383.94c-.08-.11-11.35,7.9-25.17,17.89s-25,18.17-24.9,18.28,11.34-7.91,25.17-17.9S645.52,384,645.45,383.94Z" style="fill:#263238"></path><path d="M645.45,383.94c-.06-.12-12.51,5.89-27.81,13.43S590,411.1,590,411.22s12.51-5.89,27.82-13.43S645.51,384.05,645.45,383.94Z" style="fill:#263238"></path><path d="M645.45,383.94c0-.13-13.32,3.72-29.67,8.58s-29.57,8.92-29.53,9.05,13.32-3.72,29.67-8.59S645.49,384.06,645.45,383.94Z" style="fill:#263238"></path><path d="M645.45,383.94c0-.13-13.76,1.44-30.69,3.5s-30.64,3.85-30.63,4,13.76-1.44,30.69-3.51S645.46,384.06,645.45,383.94Z" style="fill:#263238"></path><path d="M645.45,383.94c0-.13-13.8-.89-30.84-1.68s-30.86-1.34-30.86-1.21,13.8.88,30.84,1.68S645.44,384.07,645.45,383.94Z" style="fill:#263238"></path><path d="M645.45,383.94c0-.13-13.46-3.18-30.13-6.82s-30.2-6.47-30.22-6.35,13.45,3.18,30.12,6.81S645.42,384.06,645.45,383.94Z" style="fill:#263238"></path><path d="M645.45,383.94c0-.13-12.74-5.39-28.56-11.76s-28.69-11.44-28.74-11.32,12.74,5.39,28.56,11.76S645.4,384.06,645.45,383.94Z" style="fill:#263238"></path><path d="M645.45,383.94c.07-.12-11.66-7.44-26.19-16.37s-26.38-16.08-26.45-16S604.47,359,619,368,645.38,384.05,645.45,383.94Z" style="fill:#263238"></path><path d="M645.45,383.94c.08-.1-10.25-9.29-23.09-20.52S599.05,343.16,599,343.26s10.24,9.28,23.08,20.51S645.36,384,645.45,383.94Z" style="fill:#263238"></path><path d="M645.45,383.94c.1-.09-8.56-10.87-19.33-24.09s-19.6-23.88-19.7-23.8,8.56,10.87,19.33,24.09S645.35,384,645.45,383.94Z" style="fill:#263238"></path><path d="M645.45,383.94c.11-.07-6.62-12.15-15-27S615.1,330.14,615,330.2s6.62,12.14,15,27S645.34,384,645.45,383.94Z" style="fill:#263238"></path><path d="M645.45,313.79a70.15,70.15,0,1,0,70.15,70.15A70.15,70.15,0,0,0,645.45,313.79Zm0,134.37a64.23,64.23,0,1,1,64.22-64.22A64.23,64.23,0,0,1,645.45,448.16Z" style="fill:#263238"></path><path d="M645.45,319.71a64.23,64.23,0,1,0,64.22,64.23A64.23,64.23,0,0,0,645.45,319.71Zm0,126a61.76,61.76,0,1,1,61.76-61.75A61.76,61.76,0,0,1,645.45,445.69Z" style="fill:#e0e0e0"></path><path d="M418.29,313.79a70.15,70.15,0,1,0,70.15,70.15A70.14,70.14,0,0,0,418.29,313.79Zm0,134.37a64.23,64.23,0,1,1,64.22-64.22A64.23,64.23,0,0,1,418.29,448.16Z" style="fill:#263238"></path><path d="M418.29,319.71a64.23,64.23,0,1,0,64.22,64.23A64.23,64.23,0,0,0,418.29,319.71Zm0,126a61.76,61.76,0,1,1,61.76-61.75A61.76,61.76,0,0,1,418.29,445.69Z" style="fill:#e0e0e0"></path><path d="M514.11,411.46c-17.43-1.94-69.65-10.35-91.29-13.88a18.24,18.24,0,0,1-14.68-12.73c-1.19-4.14-.42-7.13,2.29-8.89,7.7-5,19.21-2.62,19.62-2.53l88.33,6.15c.73.15,17.82,3.78,16.18,13.78.08.91.63,8.81-4.57,14-2.9,2.88-7,4.34-12.25,4.34A31,31,0,0,1,514.11,411.46ZM411,376.87c-2.26,1.47-2.88,4.05-1.84,7.68a17.16,17.16,0,0,0,13.81,12c21.64,3.53,73.83,11.93,91.24,13.88,6.65.74,11.69-.54,15-3.81,5-5,4.26-13.1,4.26-13.19v-.14c1.55-9-15.15-12.57-15.24-12.59L429.9,374.5a36.72,36.72,0,0,0-6.74-.61C419.37,373.89,414.68,374.49,411,376.87Z" style="fill:#e0e0e0"></path><path d="M587.46,230.82s10.29,2.17,11.49,3,1.75,3.54.94,5.1-2.68,1.85-3.75,2.09-11.23-5.08-11.23-5.08S583.61,231.26,587.46,230.82Z" style="fill:#263238"></path><path d="M574.49,261.66a32.19,32.19,0,0,0,11.1-.9,9.38,9.38,0,0,0,3.41-1.89,8.51,8.51,0,0,0,2.85-5.54,16.34,16.34,0,0,0-.55-4.11c4.15-.15,8.8.64,9.29,2.39,1.42,5-7.92,10.63-7.92,10.63s-3.58,1.51-3.58,2.82a10.64,10.64,0,0,0,.65,2.59l4,12.5,4.78-2.59-3.86-11.91c6.67-4,12.33-10.61,8.71-16.75a6.19,6.19,0,0,0-3.68-2.55,7,7,0,0,0,2.13-3.19,5,5,0,0,0-.81-3.69,15.34,15.34,0,0,0-2.62-2.91c-.49-.47-1.6.32-1.73,1a2.28,2.28,0,0,0,.74,1.83,5.49,5.49,0,0,1,1.22,1.63c.48,1.34-.56,2.71-1.53,3.77-1.36,1.49.29-.42-1.31.82a72.68,72.68,0,0,0-12.81,0l1.7,4,.54.17a13.93,13.93,0,0,1,.22,3.86,5.41,5.41,0,0,1-2,3.85c-1.45,1-6.22,1.19-8,1.4l-.88.1A1.38,1.38,0,0,0,574.49,261.66Zm24.94-15.37-.13,0C599.73,245.83,599.62,246,599.43,246.29Z" style="fill:#e0e0e0"></path><polygon points="486.67 307.76 479.97 290.15 485.8 290.15 491.57 306.43 486.67 307.76" style="fill:#e0e0e0"></polygon><circle cx="517.89" cy="394.08" r="18.11" transform="translate(-111.01 226.75) rotate(-22.37)" style="fill:#e0e0e0"></circle><path d="M504.44,393.77a25.36,25.36,0,0,1,.52-3.22,13.34,13.34,0,0,1,4.86-7.21,13.1,13.1,0,0,1,12.39-1.83,12,12,0,0,1,3.3,1.78,12.3,12.3,0,0,1,2.76,2.77,13,13,0,0,1,0,15.42,12.34,12.34,0,0,1-2.76,2.78,12,12,0,0,1-3.3,1.78,13.07,13.07,0,0,1-12.39-1.84A13.29,13.29,0,0,1,505,397a25,25,0,0,1-.52-3.23,5.16,5.16,0,0,0,0,.86,6.9,6.9,0,0,0,.07,1,10.87,10.87,0,0,0,.25,1.39,13.43,13.43,0,0,0,10.51,10,13.53,13.53,0,0,0,7.13-.56,12.65,12.65,0,0,0,3.45-1.84,12.9,12.9,0,0,0,2.88-2.88,13.51,13.51,0,0,0,0-16.07,12.73,12.73,0,0,0-2.89-2.88,12.45,12.45,0,0,0-3.44-1.84,13.53,13.53,0,0,0-7.13-.56,13.43,13.43,0,0,0-10.51,10,11.31,11.31,0,0,0-.25,1.4,6.82,6.82,0,0,0-.07,1A5,5,0,0,0,504.44,393.77Z" style="fill:#455a64"></path><rect x="447.49" y="378.42" width="3.99" height="11.44" style="fill:#455a64"></rect><rect x="405.24" y="347.11" width="100.26" height="2.73" transform="translate(-114.16 415.02) rotate(-44.09)" style="fill:#455a64"></rect><path d="M347.06,368.21a5.38,5.38,0,0,1-2.89-6.81c5.23-14,24.23-53.75,72.09-53.75,58.14,0,78.95,45.91,78.95,82.21l-5.12-1.11s2.79-76.14-74-76.14c-52.34,0-69,55.6-69,55.6Z" style="fill:#455a64"></path><path d="M537.49,392.55s-3.38-16.92-17.23-19.14-69.29,0-69.29,0-5.71.23-5.71,7.45l40,1.44,16.3,6.45s4-11.59,18.67-7.89c11.06,2.78,11.11,11.69,11.11,11.69Z" style="fill:#455a64"></path><path d="M504.72,356.17v-6.55c13.09,0,22.09-3.22,27.34-5.93a30.27,30.27,0,0,0,8.33-5.91l.07-.07,52.6-57.23,6.21,2.93-54,58.7C544.34,343.21,532.32,356.17,504.72,356.17Z" style="fill:#455a64"></path><rect x="498.32" y="303.45" width="6.55" height="95.77" transform="translate(-77.2 151.27) rotate(-15.94)" style="fill:#455a64"></rect><polygon points="515.99 400.86 417.83 386.98 418.75 380.5 513.49 393.9 601.15 298 605.99 302.42 515.99 400.86" style="fill:#455a64"></polygon><path d="M582.94,245.54H564.22c-1.14,0-2.06,2-2.06,4.43s.92,4.44,2.06,4.44l18.72-1.36C586.89,248.44,582.94,245.54,582.94,245.54Z" style="fill:#263238"></path><path d="M574.51,405.76a2.33,2.33,0,0,1-4-1c-2.38-10.62-6.38-38.87,10.74-63.24,19-27,44-32.16,57.58-34.07a4.58,4.58,0,0,1,5.2,4.25h0s-30.77,2-48.62,19.64a77.47,77.47,0,0,0-20.87,74.44Z" style="fill:#455a64"></path><path d="M643.42,386.52c-13.67-10.77-25.48-35.91-26-37l-.12-.3-24.27-68.77,5.41-2.92,25,69.36c.95,2,12.07,25,24,34.46Z" style="fill:#455a64"></path><path d="M479,323.7l-17.68-22.1H384.74a1.36,1.36,0,0,1-1.37-1.36h0a1.37,1.37,0,0,1,1.37-1.37h77.87l18.33,22.92Z" style="fill:#455a64"></path><rect x="409.02" y="299.59" width="2.73" height="84.78" transform="translate(-53.19 76.52) rotate(-10.01)" style="fill:#455a64"></rect><path d="M657.57,384.33a12.13,12.13,0,1,0-12.12,12.13A12.12,12.12,0,0,0,657.57,384.33Z" style="fill:#263238"></path><path d="M463.61,286.25c.41,2.33,2.3,12.13,6.95,13.14s37.87.55,42.93,0c3.21-.35,5.73-5.27-1.65-6.31C501.24,291.58,462.7,281.07,463.61,286.25Z" style="fill:#455a64"></path><path d="M598.47,277.56a3.4,3.4,0,0,0-.2-.88l-.72-2.44-2.71-8.66-.12.29a24,24,0,0,0,8.64-7.73h0v0l.27-.58,0,0,.11-.19a9,9,0,0,0,1-5,6.62,6.62,0,0,0-2.22-4.22,9.94,9.94,0,0,0-3.85-1.94,22.52,22.52,0,0,0-3.65-.69,34.6,34.6,0,0,0-5.36-.15c-.64,0-1.13.07-1.46.1a1.71,1.71,0,0,0-.5.09,18.62,18.62,0,0,0,2,0,44.65,44.65,0,0,1,5.31.34,22.75,22.75,0,0,1,3.57.74,9.43,9.43,0,0,1,3.63,1.88,6.06,6.06,0,0,1,2,3.89,8.56,8.56,0,0,1-1,4.7l-.09.17v0h0l-.26.59,0,0a24.23,24.23,0,0,1-8.39,7.6l-.19.09.07.2,2.9,8.6.84,2.4A4.84,4.84,0,0,0,598.47,277.56Z" style="fill:#263238"></path><path d="M593.34,281.26c-.15.05,5.19,15.58,11.93,34.68s12.32,34.55,12.47,34.5-5.2-15.58-11.94-34.69S593.48,281.21,593.34,281.26Z" style="fill:#263238"></path><path d="M383.37,301.84c0,.15,17.59.28,39.28.28s39.27-.13,39.27-.28-17.58-.29-39.27-.29S383.37,301.68,383.37,301.84Z" style="fill:#263238"></path><path d="M409.47,330.57c.16,0-.85-6.48-2.25-14.42s-2.66-14.34-2.82-14.31.86,6.48,2.26,14.41S409.32,330.6,409.47,330.57Z" style="fill:#263238"></path><path d="M406.93,329.1c.16,0-.85-6.16-2.25-13.68s-2.66-13.61-2.81-13.58.86,6.15,2.25,13.68S406.78,329.13,406.93,329.1Z" style="fill:#263238"></path><polygon points="515.43 426.31 514.68 426.44 514.91 425.99 515.43 426.31" style="fill:#ffbe9d"></polygon><path d="M518.79,420.74l-.46,1.09s15.35,15.26,14.06,18.85L495.75,425l5.73-12A22.85,22.85,0,0,0,518.79,420.74Z" style="fill:#FF725E"></path><path d="M503.52,418.46a1.63,1.63,0,0,0-1.77,1.26,1.58,1.58,0,0,0,1.24,1.77,1.71,1.71,0,0,0,1.86-1.35,1.61,1.61,0,0,0-1.49-1.69" style="fill:#fff"></path><path d="M495.75,425l1.38-2.88,34.61,16.13s1.33,1.41.65,2.48Z" style="fill:#fff"></path><path d="M518.41,422c-.08.17-1-.13-2.14.07s-1.91.75-2,.61.58-1.07,1.95-1.28S518.52,421.84,518.41,422Z" style="fill:#263238"></path><path d="M521.58,425.23c0,.19-.94.16-1.88.66s-1.45,1.22-1.62,1.13.14-1.14,1.31-1.74S521.64,425.06,521.58,425.23Z" style="fill:#263238"></path><path d="M521.78,430.77c-.18,0,0-1,.84-1.82s1.88-.81,1.9-.63-.74.48-1.45,1.13S522,430.82,521.78,430.77Z" style="fill:#263238"></path><polygon points="503.77 405.43 511.11 433.28 514.43 433.8 507.23 404.26 503.77 405.43" style="fill:#e0e0e0"></polygon><rect x="503.33" y="432.47" width="18.66" height="5.26" transform="translate(206.97 -163.81) rotate(22.64)" style="fill:#263238"></rect><path d="M495.83,342.45c-.15.05,3.75,14.36,8.72,32s9.13,31.87,9.28,31.83-3.76-14.36-8.73-32S496,342.41,495.83,342.45Z" style="fill:#263238"></path><path d="M433.38,384.33a14.29,14.29,0,1,0-14.29,14.29A14.29,14.29,0,0,0,433.38,384.33Z" style="fill:#263238"></path><polygon points="517.94 410.22 520.02 384.56 516.73 383.82 513.7 411.34 517.94 410.22" style="fill:#e0e0e0"></polygon><rect x="506.1" y="379.21" width="18.66" height="5.26" transform="translate(805.79 953.83) rotate(-153.45)" style="fill:#263238"></rect><polygon points="524.59 377.16 523.83 377.26 524.07 376.82 524.59 377.16" style="fill:#ffbe9d"></polygon><polygon points="526.88 329.23 550.47 335.03 524.07 376.82 510.11 367.5 526.88 329.23" style="fill:#263238"></polygon><path d="M462.36,241.53l44.21,10-1.17,5.78h0s43.34,9.68,58,13.52a13.62,13.62,0,0,1,10.35,10.7c1.26,5.31.77,13.42-2.14,18L541.8,348.76l-19.92-8.13s18.58-42.28,17.53-42.28-65.66-4.34-72.65-9.58-10.58-11.32-10.93-22.85c-.24-7.75,5.54-20.26,5.54-20.26Z" style="fill:#263238"></path><path d="M546.72,291.44a9,9,0,0,0-4.68,2.5,9.18,9.18,0,0,0-2.95,4.4c.16.09,1.19-2.07,3.33-4A30.07,30.07,0,0,1,546.72,291.44Z" style="fill:#455a64"></path><path d="M474.66,291.25a2.4,2.4,0,0,0,.27-.63c.18-.49.39-1.1.65-1.82.55-1.68,1.29-3.92,2.17-6.57l0-.1,0-.09-5.5-9.79-4.5-7.89-.11-.18-.2.07-7.9,3-2.23.89a3.47,3.47,0,0,0-.77.37,3.15,3.15,0,0,0,.83-.22l2.27-.75,8-2.81-.3-.12,4.45,7.91,5.58,9.75,0-.19c-.8,2.68-1.48,4.94-2,6.64-.2.74-.37,1.35-.51,1.86A2.42,2.42,0,0,0,474.66,291.25Z" style="fill:#455a64"></path><path d="M490.79,259.8c.08.17,3.06-1.55,7.16-2.12a35.4,35.4,0,0,1,7.47,0,6.32,6.32,0,0,0-2.16-.55,18.57,18.57,0,0,0-5.39,0,19,19,0,0,0-5.17,1.53A6.65,6.65,0,0,0,490.79,259.8Z" style="fill:#455a64"></path><path d="M528.12,371.7l-.49,1.08s14.84,15.75,13.43,19.3L505,375.15l6.12-11.79A22.8,22.8,0,0,0,528.12,371.7Z" style="fill:#FF725E"></path><path d="M512.94,368.92a1.63,1.63,0,0,0-1.81,1.2,1.57,1.57,0,0,0,1.18,1.81,1.71,1.71,0,0,0,1.9-1.29,1.62,1.62,0,0,0-1.43-1.74" style="fill:#fff"></path><path d="M505,375.15l1.47-2.84,34.07,17.27s1.28,1.45.56,2.5Z" style="fill:#fff"></path><path d="M527.71,372.94c-.09.17-1-.16-2.14,0s-2,.68-2.08.54.62-1.05,2-1.22S527.82,372.79,527.71,372.94Z" style="fill:#263238"></path><path d="M530.76,376.28c0,.19-.94.13-1.89.6s-1.49,1.17-1.66,1.08.18-1.14,1.37-1.7S530.84,376.11,530.76,376.28Z" style="fill:#263238"></path><path d="M530.79,381.82c-.18,0,0-1,.89-1.79s1.91-.75,1.92-.57-.75.46-1.48,1.09S531,381.88,530.79,381.82Z" style="fill:#263238"></path><path d="M456.16,273.35a25.59,25.59,0,0,0,6.71-2.15,25.89,25.89,0,0,0,6.16-3.4c-.08-.15-2.84,1.36-6.39,2.88S456.11,273.19,456.16,273.35Z" style="fill:#455a64"></path><path d="M597.8,233.34l-.88-2.9a5.41,5.41,0,0,0-5.8-2.92L577.47,230v8.94l2.3.7a10.25,10.25,0,0,0,3.61.42l9.11-.27s-2.42-5.09.28-6.29A6.52,6.52,0,0,1,597.8,233.34Z" style="fill:#ffbe9d"></path><polygon points="524.24 214.69 534.42 204.71 521.22 180.9 517 176.51 513.46 186.52 524.24 214.69" style="fill:#455a64"></polygon><path d="M454.06,239a49.84,49.84,0,0,0,7.67-11.15c5.16-14.78,15.61-38.82,18.19-44.49,3.68-8.1,14.15-15.83,15.13-16.07L516,179.77l.49,6,5.87,7.41a7,7,0,0,1,1,7c-3.8,9.28-2.52,17.74-3.15,19.76-.43,1.39-10.74,13.69-14.43,37.3,0,0-14.15-1.35-17.85-2.55-1.91-.61-7.26-3.75-13.14-3.34s-14.74,4-18.8,2.17a6.2,6.2,0,0,1-2.09-1.65A9.71,9.71,0,0,1,454.06,239Z" style="fill:#455a64"></path><path d="M522.06,197.58a9.69,9.69,0,0,0-.13-2.64c-.18-1.61-.53-3.83-1-6.26s-1-4.61-1.54-6.16a13,13,0,0,0-.69-1.81c-.18-.43-.47-.61-.48-.53.19-.13,1.18,3.78,2.15,8.61.5,2.42.91,4.62,1.19,6.21A16.92,16.92,0,0,0,522.06,197.58Z" style="fill:#263238"></path><path d="M579,254.26l1.34-2.49A6.5,6.5,0,0,0,580,245c-1.7-2.5-3.93-5.46-4.93-5.46-1.72,0-9.57,2.7-9.57,2.7l-8.2,1.36-2.84,8.21h0c8.06,4.64,5.07-3.3,7.91-4.11l5.27,1.42.68,6.52Z" style="fill:#ffbe9d"></path><g style="opacity:0.30000000000000004"><path d="M507.67,219.19l-12.44,4.87s-6.37-25.53-3.86-30.28l7,23.1,7.6-1.06Z"></path></g><path d="M524.26,210.43l7.4,17.58,28.09,15.64-2.94,8.92s-35.16-10.61-38.45-14.3-13.55-24.87-13.55-24.87Z" style="fill:#ffbe9d"></path><path d="M488.05,186.87c2.64-10.37,15.36-14.27,23.69-7.54a14.23,14.23,0,0,1,3.69,4.24c4,7.64,11.92,26,11.92,26l-28.83,9.12s-7-19.08-8.85-24C489.31,193.74,487.68,188.33,488.05,186.87Z" style="fill:#455a64"></path><path d="M488.05,186.87a1.72,1.72,0,0,0-.09.62,11.51,11.51,0,0,0,.18,1.81,38.47,38.47,0,0,0,1.83,6.62c2,5.58,4.9,13.47,8.32,22.89l.08.23.23-.07,28.8-9.08h0l.3-.09-.12-.29c-3.5-8.09-6.9-15.77-10.24-22.65-.42-.85-.83-1.7-1.27-2.53a13.2,13.2,0,0,0-1.44-2.39,15.82,15.82,0,0,0-3.92-3.59,5.56,5.56,0,0,0-1.09-.66l-1.12-.59-1.15-.43a6.77,6.77,0,0,0-1.16-.36l-1.15-.27c-.39-.07-.78-.09-1.16-.14a13,13,0,0,0-2.24-.07,15,15,0,0,0-7.43,2.33,13.8,13.8,0,0,0-4.21,4.12l-.62,1c-.15.33-.3.63-.43.92l-.36.78c-.09.25-.15.48-.22.68-.11.39-.2.69-.27.93a1.6,1.6,0,0,0-.08.32,1,1,0,0,0,.13-.3l.33-.91.24-.67.38-.76.45-.89.63-.94a13.67,13.67,0,0,1,4.19-4,14.72,14.72,0,0,1,7.29-2.2,13.37,13.37,0,0,1,2.18.08c.37.06.75.08,1.12.15l1.12.27a6.63,6.63,0,0,1,1.12.36l1.12.42,1.08.58a6.08,6.08,0,0,1,1.05.65,15.48,15.48,0,0,1,3.79,3.5,13.66,13.66,0,0,1,1.38,2.32c.43.82.83,1.68,1.26,2.53,3.3,6.87,6.69,14.56,10.18,22.64l.17-.38h0l-28.78,9.14.31.15c-3.51-9.39-6.44-17.26-8.52-22.82a41.32,41.32,0,0,1-1.94-6.55,12.18,12.18,0,0,1-.26-1.78C488,187.08,488.08,186.88,488.05,186.87Z" style="fill:#263238"></path><path d="M568.28,255.64a2.56,2.56,0,0,0,1.68.16c.26,0,.52,0,.83,0a2.06,2.06,0,0,0,1-.28,1.42,1.42,0,0,0,.58-1.12,6.73,6.73,0,0,0-.07-1.19c-.19-1.57-.45-2.95-.64-4a5.9,5.9,0,0,0-.4-1.62c-.2,0,.06,2.57.48,5.65.09.75.18,1.54-.24,1.81s-1.13.23-1.63.35C568.91,255.63,568.3,255.56,568.28,255.64Z" style="fill:#eb996e"></path><path d="M559.75,251.42a4.27,4.27,0,1,0,4.26-4.27A4.27,4.27,0,0,0,559.75,251.42Z" style="fill:#263238"></path><path d="M572.31,254.47s0,.11,0,.3v0h.07a3.29,3.29,0,0,1,1,0,6.59,6.59,0,0,0,1.79.2,1.74,1.74,0,0,0,1.12-.51,2,2,0,0,0,.47-1.26c.06-.86.12-1.75.18-2.68a8.86,8.86,0,0,0-.15-3.22,5.3,5.3,0,0,0-1.45-2.22,6.45,6.45,0,0,0-1.93-1.41,19.75,19.75,0,0,0,1.64,1.68,5.21,5.21,0,0,1,1.24,2.1,9.4,9.4,0,0,1,.09,3c-.25,1.78.27,4-1.27,4a7.7,7.7,0,0,1-1.7-.07,2.47,2.47,0,0,0-1.08.14l.08,0C572.39,254.54,572.33,254.47,572.31,254.47Z" style="fill:#eb996e"></path><path d="M559.11,243.74s-.14-.12-.42-.3l-1.27-.77L552.7,240c-4-2.28-9.54-5.4-15.68-8.81l-5-2.75.12.13-5.57-13c-.68-1.55-1.25-2.81-1.68-3.78a9.32,9.32,0,0,0-.66-1.34,8.4,8.4,0,0,0,.49,1.42c.39,1,.9,2.27,1.53,3.84,1.37,3.34,3.24,7.87,5.38,13.05l0,.08.08.05,5,2.77c6.13,3.41,11.71,6.47,15.75,8.66l4.81,2.56,1.32.68A1.65,1.65,0,0,0,559.11,243.74Z" style="fill:#eb996e"></path><path d="M527.72,371.08c-.12-.07,6-10.23,13.76-22.67s14.08-22.47,14.2-22.4-6,10.23-13.76,22.68S527.84,371.16,527.72,371.08Z" style="fill:#455a64"></path><path d="M518.69,346.85c-.13-.06,4.47-10.94,10.28-24.31s10.63-24.15,10.76-24.1-4.47,10.94-10.28,24.31S518.83,346.91,518.69,346.85Z" style="fill:#455a64"></path><path d="M485.29,293.15a2.08,2.08,0,0,1,.55,0l1.57.18,5.74.7c4.86.58,11.57,1.29,19,1.95l19.05,1.61,5.77.5,1.56.17a2.08,2.08,0,0,1,.55.09,2.11,2.11,0,0,1-.55,0l-1.58-.07-5.78-.34c-4.88-.31-11.62-.79-19.06-1.45s-14.16-1.43-19-2.1c-2.43-.34-4.38-.63-5.73-.87l-1.56-.27A3,3,0,0,1,485.29,293.15Z" style="fill:#455a64"></path></g><g id="character-2"><path d="M299.28,160.47c4.34-2.09,6.6-7.1,7-11.91s-.67-9.59-1.2-14.39-.44-9.92,2-14.06,8-6.77,12.32-4.62l12.07,8.93a59.6,59.6,0,0,0-3.72,16.71c-.33,4.29-.23,8.8-2.23,12.61-2.81,5.36-9.1,8-15.09,8.84l2.31-3.09A14.57,14.57,0,0,1,299.28,160.47Z" style="fill:#263238"></path><path d="M341.08,101.31c-5.3-.65-9.83,1.59-14.12,4.75a26.4,26.4,0,0,0-9.13,12.86,26.07,26.07,0,0,0-.2,16.56,20.87,20.87,0,0,0,10.85,12.29c7,3.16,15.68,1.55,21.59-3.36s9.05-12.71,9-20.39a25.45,25.45,0,0,0-4.71-14.88,19.31,19.31,0,0,0-13.27-7.83" style="fill:#263238"></path><path d="M327,119.87c.68-2,.28-4.27.48-6.42.46-4.72,4.07-8.66,8.35-10.69,4-1.89,9-1.75,14-.39a18.79,18.79,0,0,1,9,5.3,14.78,14.78,0,0,1,3.32,13.12l-24.17-2.39a27,27,0,0,1-7.06,5.12,4.94,4.94,0,0,1-2.49.51,2.24,2.24,0,0,1-1.94-1.45A4.79,4.79,0,0,1,327,119.87Z" style="fill:#263238"></path><path d="M350.55,109l-20.76,5.41a3.91,3.91,0,0,0-3.47,4l2.34,45.36a14.11,14.11,0,0,0,3.35,8.41l2.12,2.49a10.35,10.35,0,0,0,17.21-2.08,5.25,5.25,0,0,0,.43-1.21,9,9,0,0,0,.15-1,32.51,32.51,0,0,0,.05-6.88c0-4.05,0-5.71,0-5.67s8.52-1.48,10.21-12.64c.84-5.54.5-14.63,0-22.05C361.7,116.39,357.21,108.22,350.55,109Z" style="fill:#ffbe9d"></path><path d="M358.84,132.57a1.42,1.42,0,0,1-1.37,1.45,1.36,1.36,0,0,1-1.48-1.27,1.44,1.44,0,0,1,1.37-1.46A1.38,1.38,0,0,1,358.84,132.57Z" style="fill:#263238"></path><path d="M360.23,127.81c-.18.19-1.27-.61-2.8-.59s-2.66.79-2.83.61.1-.43.58-.79a3.94,3.94,0,0,1,2.27-.71,3.78,3.78,0,0,1,2.23.7C360.15,127.39,360.32,127.73,360.23,127.81Z" style="fill:#263238"></path><path d="M345.58,133.11a1.43,1.43,0,0,1-1.37,1.45,1.36,1.36,0,0,1-1.48-1.28,1.42,1.42,0,0,1,1.36-1.45A1.37,1.37,0,0,1,345.58,133.11Z" style="fill:#263238"></path><path d="M345.64,128.11c-.18.19-1.27-.61-2.8-.59s-2.66.79-2.83.6.09-.42.58-.78a3.91,3.91,0,0,1,2.26-.71,3.72,3.72,0,0,1,2.24.7C345.56,127.69,345.72,128,345.64,128.11Z" style="fill:#263238"></path><path d="M350.78,139.57a10,10,0,0,1,2.49-.47c.4,0,.77-.12.83-.39a1.93,1.93,0,0,0-.27-1.16c-.37-1-.77-1.94-1.18-3-1.64-4.24-2.84-7.73-2.67-7.8s1.65,3.33,3.29,7.57c.4,1,.77,2,1.13,3a2.21,2.21,0,0,1,.22,1.54,1,1,0,0,1-.64.58,2.94,2.94,0,0,1-.67.1A10.08,10.08,0,0,1,350.78,139.57Z" style="fill:#263238"></path><path d="M352,157.76a28.38,28.38,0,0,1-15-3.88s3.8,7.69,15,6.57Z" style="fill:#eb996e"></path><path d="M350.16,143.28a2.76,2.76,0,0,0-2.49-1,2.52,2.52,0,0,0-1.74.95,1.59,1.59,0,0,0-.11,1.83,1.87,1.87,0,0,0,2,.5,5.79,5.79,0,0,0,2-1.19,1.48,1.48,0,0,0,.44-.46.51.51,0,0,0,0-.57" style="fill:#eb996e"></path><path d="M346.26,140.67c.25,0,.27,1.65,1.71,2.82s3.21,1,3.22,1.21-.39.33-1.14.36a4.13,4.13,0,0,1-2.69-.92,3.67,3.67,0,0,1-1.33-2.37C346,141.07,346.15,140.66,346.26,140.67Z" style="fill:#263238"></path><path d="M345.34,123.56c-.15.42-1.68.23-3.49.46s-3.25.73-3.5.36c-.1-.18.15-.57.73-1a6.12,6.12,0,0,1,5.33-.63C345.07,123,345.4,123.36,345.34,123.56Z" style="fill:#263238"></path><path d="M359.73,121.09c-.26.35-1.33,0-2.6,0s-2.35.25-2.6-.11c-.11-.18.06-.53.52-.87a3.82,3.82,0,0,1,4.2.1C359.7,120.56,359.85,120.92,359.73,121.09Z" style="fill:#263238"></path><path d="M323,116.81c1.88-6.48,11-15.62,17.71-15.32l10.92,6.16a10.36,10.36,0,0,1-6.83,8.12c-1.88.63-4.17.85-5.26,2.52s-.37,4.11-1.4,5.86c-1.42,2.42-5.5,2.41-6.55,5-.45,1.14-.16,2.49-.64,3.62-.64,1.51-4.36,3.49-5.94,3s-1.65-3.11-2.19-4.49a7.34,7.34,0,0,1-.36-4.93C323,123.24,322.07,119.91,323,116.81Z" style="fill:#263238"></path><path d="M329.61,137c0-.83-1-2.77-1.8-2.9-2.19-.32-6.13-.12-6.13,5.44,0,7.6,7.63,6,7.64,5.81S329.64,139.89,329.61,137Z" style="fill:#ffbe9d"></path><path d="M327,142.49s-.13.09-.35.2a1.37,1.37,0,0,1-1,0,3.28,3.28,0,0,1-1.52-2.94,4.33,4.33,0,0,1,.37-1.9,1.53,1.53,0,0,1,1-1,.67.67,0,0,1,.78.36c.11.21.06.36.1.38s.16-.13.1-.44a.85.85,0,0,0-.3-.48,1,1,0,0,0-.73-.19,1.85,1.85,0,0,0-1.38,1.18,4.52,4.52,0,0,0-.46,2.11c.05,1.54.83,3,1.93,3.28a1.41,1.41,0,0,0,1.21-.2C327,142.67,327,142.5,327,142.49Z" style="fill:#eb996e"></path><path d="M316.54,127.22a7.15,7.15,0,0,1-.39-2.26,17,17,0,0,1,.62-5.51,16.84,16.84,0,0,1,2.39-5,6.79,6.79,0,0,1,1.53-1.71,25.49,25.49,0,0,0-3.43,6.86A25.26,25.26,0,0,0,316.54,127.22Z" style="fill:#FF725E"></path><path d="M349.28,105.46c.84,3.06,5.72,6.8,7.89,9.11,4.14,4.4,5,5.89,5.42,16.14,1.69-3.63,3-7.16,2.62-11.15a16.58,16.58,0,0,0-4.89-10.67,12.94,12.94,0,0,0-11-3.43" style="fill:#263238"></path><path d="M319.09,116.89a8,8,0,0,0,1.31.26,15.09,15.09,0,0,0,1.54.2c.61.05,1.3.14,2.06.14a35.29,35.29,0,0,0,5.38-.19A37.56,37.56,0,0,0,342,113.61a35.88,35.88,0,0,0,4.63-2.74c.65-.42,1.18-.86,1.66-1.23a14.68,14.68,0,0,0,1.2-1,8.64,8.64,0,0,0,1-.92,7,7,0,0,0-1.07.78c-.33.27-.74.6-1.24.94s-1,.77-1.69,1.17a42.17,42.17,0,0,1-4.63,2.63,40.38,40.38,0,0,1-12.48,3.65,40.13,40.13,0,0,1-5.32.28c-.76,0-1.44,0-2.05-.07s-1.12-.07-1.54-.12A7.29,7.29,0,0,0,319.09,116.89Z" style="fill:#455a64"></path><path d="M318.55,122.36a2.83,2.83,0,0,0,.89.18,22.88,22.88,0,0,0,2.46.2,31,31,0,0,0,8.09-.86,30.33,30.33,0,0,0,7.57-3,19.24,19.24,0,0,0,2.09-1.31,3.57,3.57,0,0,0,.71-.56c0-.07-1.11.65-2.95,1.59a34.64,34.64,0,0,1-7.53,2.81,35.44,35.44,0,0,1-8,1C319.84,122.43,318.56,122.29,318.55,122.36Z" style="fill:#455a64"></path><polygon points="321.35 418.83 323.9 449.75 337.93 448.22 340 417.92 321.35 418.83" style="fill:#ffbe9d"></polygon><path d="M338.2,442.12s-9.65,7.33-14.66,1.49l-1.14,3-4.89,21a2.72,2.72,0,0,0,4.57,2.62c3.93-4,18.33-18.73,18.12-20.65l-.24-5.1a2.58,2.58,0,0,0-1.76-2.32Z" style="fill:#FF725E"></path><g style="opacity:0.6000000000000001"><path d="M319.71,471l20.43-23.2,0,1.11a3.11,3.11,0,0,1-.92,2.5c-1.64,2.36-6.21,7.67-17.1,18.81a2.76,2.76,0,0,1-2.45.78Z" style="fill:#fff"></path></g><g style="opacity:0.6000000000000001"><path d="M336.91,444.57a1.62,1.62,0,0,0-.38,2.14,1.59,1.59,0,0,0,2.14.39,1.72,1.72,0,0,0,.4-2.27,1.66,1.66,0,0,0-2.28-.16" style="fill:#fff"></path></g><path d="M325.42,459.27a8.13,8.13,0,0,0-2.4-2,8.39,8.39,0,0,0-3.08-.47c0-.07.31-.28.93-.39a4.32,4.32,0,0,1,4.23,1.89C325.43,458.86,325.48,459.24,325.42,459.27Z" style="fill:#263238"></path><path d="M323.64,462.85c-.13.12-1-.7-2.4-1.05a22.11,22.11,0,0,0-2.6-.24,3.07,3.07,0,0,1,2.75-.32C323,461.64,323.77,462.78,323.64,462.85Z" style="fill:#263238"></path><path d="M328.8,454.63a27.23,27.23,0,0,0-3.58-1.87,26.73,26.73,0,0,0-4-.77,6.1,6.1,0,0,1,4.17.23A6,6,0,0,1,328.8,454.63Z" style="fill:#263238"></path><path d="M329,448.29c-.06.16-1.55-.4-3.46-.4s-3.42.5-3.48.34a6.81,6.81,0,0,1,6.94.06Z" style="fill:#263238"></path><path d="M324.49,447.87a2.15,2.15,0,0,1,.11-1,7,7,0,0,1,1.18-2.46,3.15,3.15,0,0,1,1.54-1.26,1.09,1.09,0,0,1,1.18.42,1.71,1.71,0,0,1,.24,1.24,3.87,3.87,0,0,1-3.87,3,4.44,4.44,0,0,1-4-2.93,1.51,1.51,0,0,1,.12-1.27,1.09,1.09,0,0,1,1.2-.39,3.78,3.78,0,0,1,1.59,1.14,7.83,7.83,0,0,1,1.49,2.29,2.31,2.31,0,0,1,.27,1,12.32,12.32,0,0,0-2.05-3,3.72,3.72,0,0,0-1.42-1,.59.59,0,0,0-.65.21,1,1,0,0,0,0,.84,4,4,0,0,0,3.49,2.5,3.36,3.36,0,0,0,3.32-2.5,1.3,1.3,0,0,0-.13-.87.6.6,0,0,0-.65-.24,2.79,2.79,0,0,0-1.32,1A10.13,10.13,0,0,0,324.49,447.87Z" style="fill:#263238"></path><path d="M376.93,444.3c-.3-.49-2.84-10.9-2.84-10.9l18.24-4.08,2,14.94Z" style="fill:#ffbe9d"></path><path d="M394.29,441.34l0,1.18s19.59,8.57,19.71,12.39l-39.3-1.18.93-13.27A22.18,22.18,0,0,0,394.29,441.34Z" style="fill:#FF725E"></path><g style="opacity:0.6000000000000001"><path d="M379.45,444.83a1.64,1.64,0,0,0-1.16,1.83,1.53,1.53,0,0,0,1.77,1.18,1.71,1.71,0,0,0,1.22-1.94,1.6,1.6,0,0,0-2-1" style="fill:#fff"></path></g><g style="opacity:0.6000000000000001"><path d="M374.67,453.73l.22-3.19,37.59,2.3s1.72.83,1.49,2.07Z" style="fill:#fff"></path></g><path d="M394.4,442.64c0,.19-1,.25-1.94.85s-1.49,1.4-1.67,1.32.15-1.2,1.33-1.9S394.44,442.46,394.4,442.64Z" style="fill:#263238"></path><path d="M398.47,444.5c0,.19-.81.49-1.48,1.3s-.9,1.67-1.09,1.65-.28-1.12.58-2.1S398.47,444.31,398.47,444.5Z" style="fill:#263238"></path><path d="M400.65,449.58c-.17,0-.41-.95.12-2s1.43-1.45,1.51-1.29-.5.72-.92,1.59S400.85,449.57,400.65,449.58Z" style="fill:#263238"></path><path d="M371.71,253.92c.82.59,7,38.41,13.49,90.87,5.31,42.9,7.59,86.21,7.59,86.21l-19.24,3.11S361.88,379.75,351.46,342C341,303.94,339,288.5,339,288.5l-1.39-32.09Z" style="fill:#263238"></path><path d="M315,240.9S295.42,259.57,296,285c.32,15.23,25.17,149.69,25.17,149.69l18.92.15L339,288.5l1.66-24Z" style="fill:#263238"></path><path d="M337,280.66a26.45,26.45,0,0,1,.88-2.65,51.63,51.63,0,0,0,2.61-13.14,26.35,26.35,0,0,1,.21-2.8,2.6,2.6,0,0,1,.09.75c0,.49,0,1.19,0,2.06a39,39,0,0,1-.76,6.75,40.87,40.87,0,0,1-1.87,6.5c-.31.8-.59,1.44-.8,1.87A2.36,2.36,0,0,1,337,280.66Z" style="fill:#455a64"></path><path d="M377.06,433.34a5.59,5.59,0,0,1-1-2.48,6.15,6.15,0,0,1-.22-2.72,14.76,14.76,0,0,1,.65,2.6A15.93,15.93,0,0,1,377.06,433.34Z" style="fill:#455a64"></path><path d="M383.62,432.26s-.08-.07-.15-.21v0c-.06-.43-.1-1.38-.25-2.47a23,23,0,0,1-.43-2.7,5.33,5.33,0,0,1,.86,2.63,8.35,8.35,0,0,1,0,2.55v0C383.66,432.16,383.65,432.25,383.62,432.26Z" style="fill:#455a64"></path><path d="M389.9,431.38c-.13,0,0-1.4-.22-3.06s-.62-3-.5-3a6,6,0,0,1,.93,3A6.14,6.14,0,0,1,389.9,431.38Z" style="fill:#455a64"></path><path d="M336.64,435.13c-.12-.05.31-1.24.45-2.76s0-2.78.1-2.81a5,5,0,0,1,.34,2.85A4.94,4.94,0,0,1,336.64,435.13Z" style="fill:#455a64"></path><path d="M330.27,435a8.71,8.71,0,0,1-.3-2.75,9,9,0,0,1,.13-2.77,8.94,8.94,0,0,1,.31,2.75A9.05,9.05,0,0,1,330.27,435Z" style="fill:#455a64"></path><path d="M325.27,434.72a6.28,6.28,0,0,1-.85-2.66,6.36,6.36,0,0,1-.07-2.82,16,16,0,0,1,.5,2.73A14.77,14.77,0,0,1,325.27,434.72Z" style="fill:#455a64"></path><path d="M314.47,231.5l-8.36-59.87a61.14,61.14,0,0,1,22.11-9.16c6.34,12.46,22.51,9.81,24.23-.13l8.11,1.17c5.19.67,7.21,1.69,10.6,4.05l3,39.95-4.84,32,4.54,21.17c-17.45,14.79-44.62,8.64-71.85-2.66Z" style="fill:#FF725E"></path><path d="M318.24,206s-22,2.9-22.19,1.07a77.14,77.14,0,0,1,2.51-23c1.9-6.45,5.68-11.4,7.81-12.52C311.33,168.94,318.24,206,318.24,206Z" style="fill:#FF725E"></path><path d="M369.84,166.67S380,172.94,385.23,183c6.2,11.95,7.92,14.38,7.92,14.38l-11.7,18.8-7.77-7.42Z" style="fill:#FF725E"></path><path d="M334.4,255.45a1.27,1.27,0,0,0,.33-.06l.92-.25c.8-.21,1.94-.56,3.35-1a111.69,111.69,0,0,0,21.07-9.41c1.28-.75,2.3-1.37,3-1.82l.8-.52c.18-.12.27-.19.26-.2a1.43,1.43,0,0,0-.3.14l-.83.47c-.71.41-1.75,1-3.05,1.72-2.58,1.43-6.2,3.31-10.31,5.15s-7.93,3.27-10.72,4.24c-1.39.49-2.52.87-3.31,1.13l-.9.3Z" style="fill:#263238"></path><path d="M332.27,248.12l.34,0h1c.86,0,2.09,0,3.61-.15a95.94,95.94,0,0,0,23.34-4.45c1.45-.47,2.61-.88,3.41-1.19l.91-.36c.21-.08.32-.13.31-.15a1.36,1.36,0,0,0-.33.09l-.94.29c-.8.27-2,.65-3.43,1.09a114.81,114.81,0,0,1-11.53,2.85,113.21,113.21,0,0,1-11.76,1.59c-1.51.13-2.74.21-3.59.26l-1,.07Z" style="fill:#263238"></path><g style="opacity:0.30000000000000004"><path d="M312.62,243.71c1-2,3.26-3.06,5.3-4a95,95,0,0,0,29.37-21.62c3.95-4.31,7.65-9.11,12.83-11.83s12.45-2.61,16,2l-1.87,1.44c-9.62,4.09-15.45,13.67-22,21.83a208.87,208.87,0,0,1-16,17.23c-3.57,3.56-7.58,7.34-12.6,7.74a11.11,11.11,0,0,1-11.34-8.25A6.74,6.74,0,0,1,312.62,243.71Z"></path></g><path d="M405.46,140.34l1.7-.13a3.73,3.73,0,0,1,3.55,1.87h0a3.75,3.75,0,0,1,0,3.63l-2.32,4.3a3.89,3.89,0,0,1,2.23,4.13s1.81.91,1.19,4.51c0,0,1.38,2.86.15,5s-5,10.39-5,10.39l.7,8.69-11.9-.42-.8-10a14.32,14.32,0,0,1-2.1-4.37c-.7-2.5.41-12.39.41-12.39l4.91-6.68,5.88-2.87a3.07,3.07,0,0,1,.55,2.16,2.42,2.42,0,0,1-.1.45l.87-.48,1.73-3.86,0-.49s-5.07-.72-3.3-2.64A2.57,2.57,0,0,1,405.46,140.34Z" style="fill:#ffbe9d"></path><path d="M399.88,164.16a1.1,1.1,0,0,0-.25.52,2.86,2.86,0,0,0,.05,1.58,1.3,1.3,0,0,0,.81.81,1.88,1.88,0,0,0,1.3,0,4.91,4.91,0,0,0,2-2.07,4,4,0,0,1,.93-1,2,2,0,0,1,1.17-.4l2.29,0a13.08,13.08,0,0,0,2.11-.13,14,14,0,0,0-2.11-.12c-.66,0-1.43,0-2.3,0a2.19,2.19,0,0,0-1.36.44,4.42,4.42,0,0,0-1,1.1,4.8,4.8,0,0,1-1.8,2,1.6,1.6,0,0,1-1.09.07,1.05,1.05,0,0,1-.67-.63,2.93,2.93,0,0,1-.15-1.46C399.82,164.35,399.91,164.17,399.88,164.16Z" style="fill:#eb996e"></path><path d="M403.14,149.86s.27,0,.59-.24a2.52,2.52,0,0,0,1-2.78c-.11-.38-.27-.57-.31-.55a4.61,4.61,0,0,1-.05,2A4.37,4.37,0,0,1,403.14,149.86Z" style="fill:#263238"></path><path d="M405.24,163.33s0,.28.1.7a3.7,3.7,0,0,0,.91,1.45,3.67,3.67,0,0,0,1.45.9c.42.14.69.14.7.1a8.6,8.6,0,0,1-1.91-1.24A8.44,8.44,0,0,1,405.24,163.33Z" style="fill:#eb996e"></path><path d="M398.55,170.75a8.27,8.27,0,0,1,2.12-2.25,8.43,8.43,0,0,1,2.9-1,1.75,1.75,0,0,0-.94,0,5.19,5.19,0,0,0-3.74,2.44C398.59,170.38,398.51,170.73,398.55,170.75Z" style="fill:#eb996e"></path><path d="M398,164.43a8.17,8.17,0,0,0-.75,2.7,9.14,9.14,0,0,0,.05,2.73c.36,1.47,1.37,5.61.5,6.67s-6.94,6.89-6.94,6.89l-4.07.33s7.86-5.77,8.7-9.29-.38-5.27,0-7.46a58.35,58.35,0,0,1,2.23-7.11l8.2-16.31,1.59.24Z" style="fill:#e0e0e0"></path><path d="M398,164.43l.19-.37.53-1.09,2-4.15c1.68-3.61,4.08-8.74,7-14.93l.08-.18-.19,0-1.59-.24-.1,0-.05.1-8.23,16.3h0c-.65,1.73-1.3,3.57-1.84,5.47a9.11,9.11,0,0,0-.47,3c.05,1,.27,1.95.33,2.9a10.16,10.16,0,0,1-.18,2.81,6.06,6.06,0,0,1-1.12,2.46,26.41,26.41,0,0,1-3.66,3.93c-1.3,1.18-2.62,2.26-3.93,3.25l-.42.31.52,0,4.07-.34h.06l0,0c2.4-2.32,4.59-4.45,6.46-6.4a3.28,3.28,0,0,0,.64-.82,3,3,0,0,0,.18-1,10,10,0,0,0-.11-1.84,30.72,30.72,0,0,0-.63-3.15,7.22,7.22,0,0,1-.24-2.54,9.75,9.75,0,0,1,.25-1.87,7.66,7.66,0,0,1,.35-1.12l.14-.38a6,6,0,0,0-.58,1.48,9.43,9.43,0,0,0-.29,1.89,7.4,7.4,0,0,0,.21,2.58,31,31,0,0,1,.59,3.14,9.59,9.59,0,0,1,.09,1.79,2.77,2.77,0,0,1-.17.91,3.31,3.31,0,0,1-.6.74c-1.88,1.93-4.08,4-6.49,6.36l.09,0-4.07.32.1.27q2-1.49,4-3.25a27.15,27.15,0,0,0,3.72-4,6.49,6.49,0,0,0,1.18-2.6,10.35,10.35,0,0,0,.19-2.89c-.07-1-.28-1.94-.33-2.9a8.64,8.64,0,0,1,.46-2.86c.54-1.89,1.19-3.73,1.82-5.45v0L406,143.65l-.15.08,1.59.24-.11-.21c-2.84,6.22-5.21,11.37-6.86,15-.81,1.79-1.45,3.2-1.89,4.19l-.49,1.1A3.43,3.43,0,0,0,398,164.43Z" style="fill:#263238"></path><path d="M408.76,150.53a5.05,5.05,0,0,0-4.36-1.19,8.37,8.37,0,0,0-4.1,2.18,25.92,25.92,0,0,0-3.06,3.55,5.63,5.63,0,0,0-1.37,2.62,1.92,1.92,0,0,0,1.5,2.21c1,.07,1.68-.82,2.29-1.58a16.43,16.43,0,0,1,2.83-2.76,5.5,5.5,0,0,1,2.15-1.13,6.55,6.55,0,0,1,2.94.29" style="fill:#ffbe9d"></path><path d="M407.58,154.72a1,1,0,0,0-.31-.11,7.29,7.29,0,0,0-.91-.23,4.78,4.78,0,0,0-1.51-.08,4.4,4.4,0,0,0-1.86.75,16.54,16.54,0,0,0-3.75,3.54,4.12,4.12,0,0,1-1.05.95,1.28,1.28,0,0,1-1.32,0,1.81,1.81,0,0,1-.79-1.18,2.48,2.48,0,0,1,.19-1.51,15.1,15.1,0,0,1,1.82-2.64,23.78,23.78,0,0,1,2-2.28,8.6,8.6,0,0,1,4.32-2.49,5.36,5.36,0,0,1,3.32.39,8.1,8.1,0,0,1,1.06.67,1.08,1.08,0,0,0-.22-.24,3.71,3.71,0,0,0-.78-.55,5.32,5.32,0,0,0-3.42-.51,8.76,8.76,0,0,0-4.5,2.5,22.83,22.83,0,0,0-2,2.3,14.26,14.26,0,0,0-1.87,2.71,2.75,2.75,0,0,0-.21,1.72,2.12,2.12,0,0,0,.95,1.4,1.63,1.63,0,0,0,1.64,0,4.58,4.58,0,0,0,1.14-1,17.13,17.13,0,0,1,3.64-3.54,4.21,4.21,0,0,1,1.75-.76,4.67,4.67,0,0,1,1.46,0C407.14,154.63,407.58,154.75,407.58,154.72Z" style="fill:#eb996e"></path><path d="M409.71,158.42c-2,.66-4.41.36-6.16,1.59a8,8,0,0,0-1.49,1.52l-2.63,3.18c-.48.58-1.15,1.23-1.89.93a1.17,1.17,0,0,1-.67-.82,2.94,2.94,0,0,1,.34-1.88,40.71,40.71,0,0,1,2-3.84,10.19,10.19,0,0,1,1.27-1.79,9.14,9.14,0,0,1,2.72-2.31,5,5,0,0,1,4.05-.32" style="fill:#ffbe9d"></path><path d="M407.2,154.68a1.09,1.09,0,0,0-.3-.14,4.27,4.27,0,0,0-.92-.22,6.3,6.3,0,0,0-3.38.83,10,10,0,0,0-1.83,1.57,11.51,11.51,0,0,0-1.68,2.19c-.49.84-1,1.73-1.44,2.68-.23.48-.46,1-.67,1.47a3,3,0,0,0-.3,1.69,1.46,1.46,0,0,0,.43.82,1.19,1.19,0,0,0,.88.31,2.27,2.27,0,0,0,1.43-.9l1.93-2.34c.62-.74,1.16-1.49,1.76-2.07a4.64,4.64,0,0,1,2-1.15c1.38-.39,2.58-.45,3.38-.64a7.29,7.29,0,0,0,.91-.23,1.72,1.72,0,0,0,.31-.13s-.44.11-1.25.23a30.74,30.74,0,0,0-3.42.54,5,5,0,0,0-2.13,1.17c-.63.61-1.18,1.35-1.81,2.08l-1.93,2.32a2,2,0,0,1-1.2.78.94.94,0,0,1-1-.85,2.66,2.66,0,0,1,.27-1.5c.21-.5.43-1,.66-1.45.45-.94.93-1.83,1.41-2.67a11.28,11.28,0,0,1,1.62-2.16,10.28,10.28,0,0,1,1.75-1.56,6.31,6.31,0,0,1,3.23-.89A8,8,0,0,1,407.2,154.68Z" style="fill:#eb996e"></path><path d="M404.68,143.13a6.91,6.91,0,0,0,2.45.77,5.6,5.6,0,0,0,2.58,0c0-.1-1.14-.12-2.52-.38A16,16,0,0,0,404.68,143.13Z" style="fill:#eb996e"></path><path d="M393.06,197.64l2.62-16.48,12,1.23s1.24,23.14,1.13,28.86c-.18,9.28-6.38,14.62-13.49,13.45-6.62-1.09-13.49-9.1-13.49-9.1Z" style="fill:#ffbe9d"></path><path d="M392.15,182a3,3,0,0,0-1-2.83,4.46,4.46,0,0,0-2.92-1,4.81,4.81,0,0,0-2.64.71,3.29,3.29,0,0,0-.47,5.34,4.64,4.64,0,0,0,3.19,1.16,3.85,3.85,0,0,0,2.67-1,3.3,3.3,0,0,0,1.15-2.38" style="fill:#FF725E"></path><path d="M402.22,184.88c4,.71,7.88-3.68,8.83-6.53a.77.77,0,0,0-1-1.13,9.22,9.22,0,0,0-7.86,7.66" style="fill:#455a64"></path><path d="M406.67,182.71a3,3,0,0,0-1-2.83,4.44,4.44,0,0,0-2.91-1,4.79,4.79,0,0,0-2.64.71,3.45,3.45,0,0,0-1.56,2.19,3.5,3.5,0,0,0,1.08,3.15,4.64,4.64,0,0,0,3.19,1.16,3.88,3.88,0,0,0,2.68-1,3.29,3.29,0,0,0,1.14-2.38" style="fill:#FF725E"></path><path d="M386.26,183.57c0-2.06-1.46-4.58-2.67-6.24a10.15,10.15,0,0,0-4.89-3.62.56.56,0,0,0-.42,0,.6.6,0,0,0-.25.36,7.26,7.26,0,0,0,8.23,9.53" style="fill:#455a64"></path><path d="M371.85,180a18.55,18.55,0,0,1-2.09-2.9,6.47,6.47,0,0,1-.88-3.42.61.61,0,0,1,.18-.48.69.69,0,0,1,.51,0,11.12,11.12,0,0,1,5.78,3.4,11,11,0,0,1,2.7,6.14l.12.59a8.46,8.46,0,0,1-6.25.93,13.06,13.06,0,0,1-4.83-1.9,6.94,6.94,0,0,1-2.94-4.16A9.35,9.35,0,0,1,371.85,180Z" style="fill:#455a64"></path><path d="M396.47,176.55a14.18,14.18,0,0,1,7-3.55,10,10,0,0,1-8.81,11.12l-.16-.28A7.32,7.32,0,0,1,396.47,176.55Z" style="fill:#455a64"></path><path d="M410.18,182.4s-3.3,16-12,22.34c-11.29,8.21-29.91,0-31.73-3.69s-5.71-18.89-5.71-18.89Z" style="fill:#e0e0e0"></path><path d="M410.18,182.4h-.94l-2.75,0-10.31-.1-35.4-.26h-.22l.06.21c1.21,4.68,2.54,9.63,4.13,14.66.35,1.06.69,2.11,1.11,3.14.09.26.21.52.32.77s.11.26.18.38.15.25.23.37a6.64,6.64,0,0,0,1.19,1.18,23.89,23.89,0,0,0,5.65,3.11,36.56,36.56,0,0,0,5.94,1.83,32.66,32.66,0,0,0,5.91.76A22,22,0,0,0,396,206.26a19.38,19.38,0,0,0,7-6.42,40.46,40.46,0,0,0,3.8-6.93,56.94,56.94,0,0,0,2.06-5.59c.5-1.56.81-2.79,1-3.63q.15-.63.21-1a2.85,2.85,0,0,0,.06-.33,1.83,1.83,0,0,0-.09.33c-.06.22-.14.54-.25.94-.22.83-.55,2.06-1.06,3.61s-1.18,3.44-2.12,5.56a39.86,39.86,0,0,1-3.82,6.86,19.3,19.3,0,0,1-7,6.31,21.74,21.74,0,0,1-10.58,2.07,35.18,35.18,0,0,1-11.74-2.58,23.81,23.81,0,0,1-5.56-3.06,7,7,0,0,1-1.13-1.12l-.2-.32c-.06-.12-.11-.25-.17-.37s-.22-.49-.32-.75c-.4-1-.74-2.07-1.09-3.13-1.59-5-2.92-10-4.14-14.63l-.16.21,35.28.09h14.12Z" style="fill:#263238"></path><path d="M399.58,201.21a3.08,3.08,0,0,0,.52-.54c.32-.36.76-.89,1.28-1.57a46.84,46.84,0,0,0,3.65-5.6,47.57,47.57,0,0,0,2.8-6.07c.29-.8.52-1.46.65-1.92a3.9,3.9,0,0,0,.18-.72,2.65,2.65,0,0,0-.31.68c-.17.44-.42,1.08-.75,1.87a58.85,58.85,0,0,1-2.87,6,60.38,60.38,0,0,1-3.55,5.62c-.49.69-.9,1.25-1.18,1.63A3.16,3.16,0,0,0,399.58,201.21Z" style="fill:#fff"></path><path d="M363.54,184.59a2.43,2.43,0,0,0,.46,0l1.32.07c1.15.07,2.8.13,4.85.2,4.1.13,9.76.24,16,.21s11.92-.17,16-.33c2.05-.08,3.7-.16,4.85-.23l1.32-.08a2.62,2.62,0,0,0,.45-.06h-.46l-1.32,0-4.85.12c-4.1.1-9.76.21-16,.23s-11.91,0-16-.11l-4.85-.09H364A2.42,2.42,0,0,0,363.54,184.59Z" style="fill:#fff"></path><path d="M319.49,206.25l4.64,16.68,32.24-20.56,8.21,7.37s-29.72,31.89-36,37.79-15.93.44-19.41-9.29-8-22.3-9.73-30.56Z" style="fill:#ffbe9d"></path><path d="M353.63,204.66s9.14-8.16,12.66-7.68a13.52,13.52,0,0,1,3.06.72,8.48,8.48,0,0,0,3.73.58c1.27-.09,2.89-.24,4.45-.43,3-.37,3.94.34,4.29,1.47a1.86,1.86,0,0,1-1.48,2.4,34.67,34.67,0,0,0-5.69,1.26c-1.76.74.32.2,2.69,1.48s11.58.85,11.58.85l4.69-4.22a1.68,1.68,0,0,1,2.72,1.77l0,.08.42-.5a1.41,1.41,0,0,1,2.41,1.38l0,.07-3.75,4.24-6,3.05-10.77-.2s-8.05-2.23-9.59-2.56-6.4,1.48-9.88,6.05Z" style="fill:#ffbe9d"></path><path d="M317.19,238.33c.05,0,.26-.94.69-2.44a44.64,44.64,0,0,1,2.1-5.75,43.66,43.66,0,0,1,2.89-5.39c.84-1.33,1.41-2.12,1.36-2.15s-.18.16-.46.51-.65.85-1.1,1.5a35.51,35.51,0,0,0-5,11.21c-.19.77-.32,1.4-.38,1.83A2.49,2.49,0,0,0,317.19,238.33Z" style="fill:#eb996e"></path><path d="M378.51,211a4.9,4.9,0,0,0,.92.07c.59,0,1.45.06,2.52.07,2.12,0,5.07,0,8.31-.13a8.6,8.6,0,0,0,2.38-.32,6.62,6.62,0,0,0,2-1.08,13.78,13.78,0,0,0,2.54-2.77c.63-.87,1.1-1.59,1.42-2.08a5,5,0,0,0,.49-.79,4.86,4.86,0,0,0-.59.71l-1.51,2a14.46,14.46,0,0,1-2.54,2.66,6.34,6.34,0,0,1-1.89,1,8.45,8.45,0,0,1-2.29.3c-3.25.12-6.17.22-8.3.23l-2.52,0A3.76,3.76,0,0,0,378.51,211Z" style="fill:#eb996e"></path><path d="M381.11,210.51a2.57,2.57,0,0,0,.63,0l1.73-.13c1.46-.11,3.49-.3,5.78-.53h0c.32-.09.66-.2,1-.33a6.88,6.88,0,0,0,1.7-.83,5,5,0,0,0,1.27-1.24c.63-.91,1.17-1.74,1.62-2.45s.79-1.29,1-1.7a3,3,0,0,0,.3-.67,3.41,3.41,0,0,0-.42.6c-.25.39-.62.95-1.09,1.64s-1.06,1.51-1.67,2.4a5.65,5.65,0,0,1-2.84,1.93l-1,.33h0c-2.29.24-4.31.47-5.77.65l-1.71.22A2.43,2.43,0,0,0,381.11,210.51Z" style="fill:#eb996e"></path><path d="M368.18,204.66c0,.1,1.28-.33,2.85-.67s2.88-.47,2.88-.57a7.78,7.78,0,0,0-3,.23A7.87,7.87,0,0,0,368.18,204.66Z" style="fill:#eb996e"></path><path d="M314.93,181.76c.14,0,1.43,5.75,2.87,12.89s2.49,13,2.35,13-1.42-5.74-2.86-12.89S314.79,181.79,314.93,181.76Z" style="fill:#263238"></path></g><g id="character-1"><path d="M224,321.05c-1.4-5.88,9.59,34.56,9.59,34.56s19.58,20.72,26.12,34.07c4.46,9.09,18.72,38.33,18.72,38.33l-13.69,8.22-45.51-58.51s-5.18-2.49-7-5.63-22.7-39.79-22.7-39.79l8.12-16Z" style="fill:#ffbe9d"></path><path d="M163.78,330.27S138.1,348.15,138,352.17c-.09,2.43,0,3,0,3a77.26,77.26,0,0,1,13.33,20.76c4.34,10.5,18.82,43.72,18.82,43.72s-16,9.4-16.54,8.3-35.57-55.84-38.65-60.28-7.65-10.68-8.26-16.11,5.19-14.63,12.24-24c7.58-10.08,19.78-22.4,19.78-22.4l31.1,7.38.62,12.47-6.56,5.29" style="fill:#ffbe9d"></path><path d="M133.79,305.36l18-17.42a143.36,143.36,0,0,0,9.85-10.64l-.12-5.43,58.81,1.6,0,.18a32.91,32.91,0,0,1-.84,15.77c-1.55,5.07-3.83,11.16-6.64,14.51-5.4,6.47-20.28,17.43-27,19.12s-20.07,10.22-20.07,10.22l-2.39-2,4.27-10.85-12.86,4.47Z" style="fill:#263238"></path><path d="M221.14,281.37s-1.37,14.53-3.59,18.13h0l10.88,26.37-32.22-4.09s-7.33,11.74-7.51,12.06S177.36,323,177.36,323l8.58-30.91Z" style="fill:#263238"></path><path d="M165.77,333.27a4.21,4.21,0,0,0,.68-.32l1.9-1,6.92-3.8,4.77-2.64c1.73-.94,3.52-2,5.5-3,1-.48,2-.95,3.08-1.38s2.19-.75,3.34-1.15a49.77,49.77,0,0,0,6.87-3,45.34,45.34,0,0,0,11.53-8.48,40.06,40.06,0,0,0,6.82-9.37,35.93,35.93,0,0,0,2.85-7.24c.22-.89.38-1.58.46-2.05a3.67,3.67,0,0,0,.11-.73,3.75,3.75,0,0,0-.21.71c-.11.46-.3,1.15-.55,2a39,39,0,0,1-3,7.13,40.54,40.54,0,0,1-6.84,9.22,45.45,45.45,0,0,1-11.43,8.36,50,50,0,0,1-6.8,2.93c-1.12.4-2.27.73-3.36,1.18s-2.11.91-3.1,1.41c-2,1-3.78,2.06-5.5,3s-3.28,1.88-4.74,2.7l-6.84,3.94-1.85,1.09A5.69,5.69,0,0,0,165.77,333.27Z" style="fill:#455a64"></path><path d="M153.21,322.84a3.08,3.08,0,0,0,.6-.27l1.67-.88c1.46-.77,3.54-1.92,6.09-3.37,5.09-2.92,12-7.13,19.46-12.15s13.93-9.89,18.53-13.54c2.31-1.82,4.15-3.32,5.4-4.38L206.4,287a3.08,3.08,0,0,0,.48-.45,2.45,2.45,0,0,0-.54.37l-1.5,1.16-5.49,4.26c-4.65,3.57-11.18,8.39-18.59,13.4S166.44,315,161.39,318l-6,3.5-1.63,1A3.37,3.37,0,0,0,153.21,322.84Z" style="fill:#fff"></path><path d="M150.55,320.62a2.8,2.8,0,0,0,.58-.28l1.64-.88c1.42-.78,3.46-1.94,5.95-3.4,5-2.94,11.79-7.16,19.08-12.14s13.68-9.8,18.22-13.4c2.27-1.79,4.08-3.27,5.32-4.31l1.42-1.21a2.69,2.69,0,0,0,.47-.45,4.38,4.38,0,0,0-.53.37l-1.48,1.14-5.42,4.19c-4.58,3.52-11,8.28-18.28,13.26s-14,9.24-19,12.25l-5.86,3.53-1.6,1A3,3,0,0,0,150.55,320.62Z" style="fill:#fff"></path><path d="M261.33,433.68l.69,1s-11.35,18.11-9.29,21.32l31.78-23.1-8.25-10.43A22.13,22.13,0,0,1,261.33,433.68Z" style="fill:#455a64"></path><g style="opacity:0.6000000000000001"><path d="M275.54,428.21a1.65,1.65,0,0,1,2,.86,1.54,1.54,0,0,1-.8,2,1.71,1.71,0,0,1-2.1-.91,1.59,1.59,0,0,1,1.05-2" style="fill:#fff"></path></g><g style="opacity:0.6000000000000001"><path d="M284.51,432.87l-2-2.51-29.74,23.06s-1,1.66-.06,2.55Z" style="fill:#fff"></path></g><path d="M262,434.82c.12.15.94-.34,2.08-.39s2,.32,2.11.15-.79-.9-2.16-.82S261.84,434.7,262,434.82Z" style="fill:#263238"></path><path d="M259.66,438.64c.08.18.94,0,2,.25s1.67.87,1.82.75-.4-1.08-1.66-1.41S259.55,438.49,259.66,438.64Z" style="fill:#263238"></path><path d="M260.71,444.07c.17-.07-.19-1-1.21-1.58s-2-.39-2-.21.82.31,1.66.79S260.55,444.17,260.71,444.07Z" style="fill:#263238"></path><path d="M151.17,423.9l.55,1.12s-14.87,16.82-13.29,20.51L175.34,427l-6.76-12.23A23.27,23.27,0,0,1,151.17,423.9Z" style="fill:#455a64"></path><g style="opacity:0.6000000000000001"><path d="M166.84,420.67a1.72,1.72,0,0,1,1.92,1.22,1.63,1.63,0,0,1-1.16,1.92,1.82,1.82,0,0,1-2-1.31,1.67,1.67,0,0,1,1.43-1.85" style="fill:#fff"></path></g><g style="opacity:0.6000000000000001"><path d="M175.34,427l-1.63-2.94L138.93,442.9s-1.28,1.55-.5,2.63Z" style="fill:#fff"></path></g><path d="M151.64,425.19c.1.18,1-.19,2.22-.05s2,.68,2.17.52-.67-1.07-2.1-1.22S151.52,425,151.64,425.19Z" style="fill:#263238"></path><path d="M148.58,428.75c0,.2,1,.12,2,.59s1.59,1.2,1.76,1.1-.23-1.19-1.48-1.75S148.5,428.58,148.58,428.75Z" style="fill:#263238"></path><path d="M148.75,434.56c.18,0,0-1.08-1-1.85s-2-.75-2-.56.79.47,1.57,1.11S148.56,434.64,148.75,434.56Z" style="fill:#263238"></path><path d="M130.25,246.42l-5.46-5.9-6.32,0s-4.61,1.66-5.51,1.63a1.7,1.7,0,0,0,1.14,1.45s-2.24-.05-2.75.67.32,2.12,1,2.95a6.23,6.23,0,0,0-.23,2.06,3.35,3.35,0,0,0,.74,1.94l1.26.66a1.55,1.55,0,0,0-.43,1.76,4.94,4.94,0,0,0,1.81,1.8s-1.16.44-.82,1.35a2.29,2.29,0,0,0,1.4,1.61c.73.27,7.56,1.25,9,.92s7.71-2.74,7.71-2.74Z" style="fill:#ffbe9d"></path><path d="M117.19,257.64a7.26,7.26,0,0,0,2.29-.08,16.49,16.49,0,0,0,2.43-.52,2.56,2.56,0,0,0,1.34-.75,1.51,1.51,0,0,0,.18-1.61,1.77,1.77,0,0,0-1.4-.93,4.38,4.38,0,0,0-1.52.14c-.91.21-1.72.44-2.38.66a8.23,8.23,0,0,0-2.09.89,20.16,20.16,0,0,0,2.18-.6c.68-.18,1.48-.39,2.38-.57a4.24,4.24,0,0,1,1.37-.11,1.32,1.32,0,0,1,1,.7,1.12,1.12,0,0,1-.12,1.18,2.21,2.21,0,0,1-1.12.63,22.16,22.16,0,0,1-2.36.6C118.05,257.52,117.18,257.58,117.19,257.64Z" style="fill:#eb996e"></path><path d="M147.11,239.85l-18.64,5.63.11,12.11s25.66.24,29.23-.48,3.6-6.55,3.6-6.55Z" style="fill:#ffbe9d"></path><path d="M112.29,247.47c0,.06.95-.11,2.49-.22.76-.06,1.68-.1,2.69-.08.51,0,1,0,1.6.07a2.72,2.72,0,0,0,1.8-.39,1.19,1.19,0,0,0,.49-.84,1.41,1.41,0,0,0-.22-.89,2.24,2.24,0,0,0-1.41-.94,9.2,9.2,0,0,0-1.47-.2l-1.26-.11a14.76,14.76,0,0,0-2.51-.11,16.11,16.11,0,0,0,2.48.41c.75.12,1.71.16,2.65.39a1.84,1.84,0,0,1,1.14.77.86.86,0,0,1-.18,1.19,2.24,2.24,0,0,1-1.49.3c-.55,0-1.1,0-1.61,0a21.72,21.72,0,0,0-2.74.17A9.29,9.29,0,0,0,112.29,247.47Z" style="fill:#eb996e"></path><path d="M114.11,251.38c0,.06.72-.07,1.88-.14a19.9,19.9,0,0,0,4.52-.62,8.46,8.46,0,0,0,1.28-.37,1.09,1.09,0,0,0,.55-.47,1.6,1.6,0,0,0,.15-.61,1.25,1.25,0,0,0,0-.6,1.69,1.69,0,0,0-.25-.48,2.37,2.37,0,0,0-.7-.68,2.6,2.6,0,0,0-1.36-.43c-.34,0-.52.06-.51.08a3.7,3.7,0,0,1,1.68.59,2.27,2.27,0,0,1,.57.62,2,2,0,0,1,.2.42,1.06,1.06,0,0,1,0,.44,1.36,1.36,0,0,1-.13.47.73.73,0,0,1-.35.28,10.87,10.87,0,0,1-1.2.33,25.77,25.77,0,0,1-4.45.73A5.33,5.33,0,0,0,114.11,251.38Z" style="fill:#eb996e"></path><path d="M115.39,255.23a18.43,18.43,0,0,0,2.62-.55l2.82-.71a6.36,6.36,0,0,0,1.67-.57,1.75,1.75,0,0,0,.68-.72,1.1,1.1,0,0,0-.05-1,2.08,2.08,0,0,0-1.72-.92,16.75,16.75,0,0,0-1.75,0,20.62,20.62,0,0,0-2.92.31,13.47,13.47,0,0,0-1.91.49c-.44.16-.66.28-.65.31s1-.29,2.61-.51a27.84,27.84,0,0,1,2.88-.21c.54,0,1.13,0,1.7,0a1.65,1.65,0,0,1,1.36.7.92.92,0,0,1-.47,1.21,6.05,6.05,0,0,1-1.55.54l-2.79.8A15,15,0,0,0,115.39,255.23Z" style="fill:#eb996e"></path><path d="M114,243.58c0,.15,1.92.63,4.39.53a8.64,8.64,0,0,0,.9-.07c.14,0,.31,0,.43-.07l.14,0a.16.16,0,0,1,.1,0,6.76,6.76,0,0,0,1.14.75,2.5,2.5,0,0,0,1.24.4,8.55,8.55,0,0,0-1.07-.65,13.28,13.28,0,0,1-1.09-.83.55.55,0,0,0-.27-.1h-.26c-.16,0-.27.05-.41.06s-.57,0-.87.06c-1.2,0-2.29,0-3.08,0A6.53,6.53,0,0,0,114,243.58Z" style="fill:#eb996e"></path><path d="M123,249s-.11-.31-.21-.79a15.06,15.06,0,0,1-.24-1.93,4,4,0,0,1,.3-1.86c.2-.45.43-.68.38-.73s-.36.13-.67.59a3.39,3.39,0,0,0-.46,2,7.4,7.4,0,0,0,.38,2C122.68,248.82,123,249.05,123,249Z" style="fill:#eb996e"></path><path d="M227.51,147.14c-4.78,1.62-10.14-.47-14-3.76s-6.54-7.65-9.66-11.61-6.95-7.73-11.84-9-10.93.82-12.58,5.59L177,143.87a62.7,62.7,0,0,1,15,9.74c3.39,3,6.62,6.4,10.91,7.78,6,2,12.64-.72,17.75-4.47l-4-.61A15.26,15.26,0,0,0,227.51,147.14Z" style="fill:#263238"></path><path d="M155.54,114.93c5.48-1.1,10.37.89,15.1,3.86a28.39,28.39,0,0,1,12,30,21.81,21.81,0,0,1-10.37,13.67c-7.06,3.83-16.25,2.82-22.79-1.84S139.07,148,138.54,140a26.5,26.5,0,0,1,3.75-15.89,20.18,20.18,0,0,1,13.25-9.2" style="fill:#263238"></path><path d="M171.72,133.2c-.87-2.08-.62-4.44-1-6.66-.84-4.9-4.91-8.73-9.54-10.52-4.31-1.66-9.51-1.12-14.59.68a19.6,19.6,0,0,0-9,6.24,15.47,15.47,0,0,0-2.45,13.94l25.05-4.37a28,28,0,0,0,7.76,4.8,5.17,5.17,0,0,0,2.63.34,2.33,2.33,0,0,0,1.91-1.67C172.68,135,172.09,134.11,171.72,133.2Z" style="fill:#263238"></path><path d="M146.25,123.66l22.08,4a4.1,4.1,0,0,1,3.94,3.91l1.07,47.51a14.81,14.81,0,0,1-2.84,9l-2,2.76c-4.6,6.29-14.29,5.94-18.13-.84a5.77,5.77,0,0,1-.54-1.23,10.83,10.83,0,0,1-.23-1.06,34.6,34.6,0,0,1-.59-7.19c-.33-4.22-.44-6-.44-5.91s-9-.89-11.65-12.4c-1.3-5.72-1.65-15.22-1.68-23C135.19,132.26,139.24,123.39,146.25,123.66Z" style="fill:#ffbe9d"></path><path d="M140.32,148.63a1.5,1.5,0,0,0,1.54,1.41,1.43,1.43,0,0,0,1.45-1.45,1.49,1.49,0,0,0-1.54-1.41A1.44,1.44,0,0,0,140.32,148.63Z" style="fill:#263238"></path><path d="M137.61,144.07c.2.18,1.27-.73,2.88-.84s2.83.62,3,.41-.13-.43-.67-.77a4.15,4.15,0,0,0-2.41-.57,4,4,0,0,0-2.28.91C137.66,143.62,137.51,144,137.61,144.07Z" style="fill:#263238"></path><path d="M154.66,147.74a1.5,1.5,0,0,0,1.54,1.4,1.43,1.43,0,0,0,1.45-1.44,1.5,1.5,0,0,0-1.54-1.41A1.44,1.44,0,0,0,154.66,147.74Z" style="fill:#263238"></path><path d="M152.86,143.24c.2.19,1.27-.73,2.88-.83s2.83.62,3,.41-.14-.43-.68-.77a4.15,4.15,0,0,0-2.41-.57,4,4,0,0,0-2.27.91C152.91,142.8,152.76,143.16,152.86,143.24Z" style="fill:#263238"></path><path d="M148.38,155.6a11.11,11.11,0,0,0-2.64-.29c-.41,0-.8-.07-.89-.35a2,2,0,0,1,.19-1.23l1-3.2c1.39-4.56,2.36-8.3,2.18-8.35s-1.46,3.59-2.84,8.15c-.33,1.13-.65,2.2-.95,3.22a2.34,2.34,0,0,0-.11,1.62,1.06,1.06,0,0,0,.72.56,2.92,2.92,0,0,0,.7.05A9.71,9.71,0,0,0,148.38,155.6Z" style="fill:#263238"></path><path d="M148.55,174.68a29.66,29.66,0,0,0,15.3-5.2s-3.38,8.31-15.1,8Z" style="fill:#eb996e"></path><path d="M149.32,159.43a2.91,2.91,0,0,1,2.52-1.25,2.66,2.66,0,0,1,1.89.86,1.68,1.68,0,0,1,.26,1.9,1.94,1.94,0,0,1-2.07.67,6,6,0,0,1-2.14-1.08,1.76,1.76,0,0,1-.49-.45.53.53,0,0,1,0-.59" style="fill:#eb996e"></path><path d="M153.18,156.4c-.26,0-.15,1.74-1.56,3.08s-3.27,1.27-3.27,1.51.44.32,1.22.28a4.3,4.3,0,0,0,2.74-1.16,3.78,3.78,0,0,0,1.19-2.58C153.52,156.8,153.3,156.38,153.18,156.4Z" style="fill:#263238"></path><path d="M152.82,138.47c.18.43,1.77.11,3.67.21s3.46.52,3.68.11c.1-.2-.19-.59-.83-1a6.17,6.17,0,0,0-2.78-.77,6,6,0,0,0-2.83.53C153.06,137.9,152.73,138.27,152.82,138.47Z" style="fill:#263238"></path><path d="M137.6,137c.31.35,1.39-.1,2.72-.21s2.47.08,2.71-.32c.1-.19-.1-.54-.62-.86a3.94,3.94,0,0,0-4.37.43C137.6,136.46,137.47,136.84,137.6,137Z" style="fill:#263238"></path><path d="M175.65,129.7c-2.47-6.62-12.66-15.45-19.67-14.62l-10.92,7.28a10.86,10.86,0,0,0,7.76,8c2,.5,4.42.56,5.68,2.21s.71,4.26,1.92,6c1.67,2.42,5.92,2.09,7.22,4.74.57,1.15.37,2.57,1,3.72.78,1.52,4.82,3.31,6.42,2.71s1.48-3.37,1.95-4.86a7.67,7.67,0,0,0,0-5.17C176.09,136.41,176.82,132.86,175.65,129.7Z" style="fill:#263238"></path><path d="M170.28,151.31c-.06-.87.81-3,1.65-3.17,2.26-.51,6.39-.6,6.82,5.2.58,7.93-7.5,6.88-7.53,6.65S170.47,154.3,170.28,151.31Z" style="fill:#ffbe9d"></path><path d="M173.42,156.81s.15.08.39.17a1.34,1.34,0,0,0,1,0c.82-.37,1.43-1.75,1.36-3.18a4.47,4.47,0,0,0-.53-1.95,1.64,1.64,0,0,0-1.12-1,.71.71,0,0,0-.79.44c-.09.23,0,.39-.07.4s-.18-.12-.14-.45a.93.93,0,0,1,.28-.52,1,1,0,0,1,.75-.26,1.94,1.94,0,0,1,1.53,1.13,4.6,4.6,0,0,1,.64,2.17c.07,1.6-.64,3.16-1.76,3.57a1.48,1.48,0,0,1-1.28-.11C173.45,157,173.4,156.82,173.42,156.81Z" style="fill:#eb996e"></path><path d="M183.16,140.06a7.33,7.33,0,0,0,.22-2.39,17.28,17.28,0,0,0-1.07-5.7,17.49,17.49,0,0,0-2.88-5,7.28,7.28,0,0,0-1.73-1.67,26.62,26.62,0,0,1,4.12,6.89A26.54,26.54,0,0,1,183.16,140.06Z" style="fill:#FF725E"></path><path d="M147.3,119.89c-.64,3.26-5.44,7.54-7.52,10.12-4,4.91-4.75,6.53-4.41,17.26-2-3.65-3.63-7.24-3.6-11.43a17.29,17.29,0,0,1,4.28-11.51,13.5,13.5,0,0,1,11.25-4.44" style="fill:#263238"></path><path d="M179.69,129.48a8.15,8.15,0,0,1-1.34.37c-.43.11-1,.23-1.6.33s-1.34.24-2.14.31a39,39,0,0,1-5.62.21,42.59,42.59,0,0,1-6.85-.84,43.87,43.87,0,0,1-6.6-2,38.33,38.33,0,0,1-5-2.5c-.7-.38-1.29-.81-1.82-1.15s-1-.68-1.33-1a8.34,8.34,0,0,1-1.07-.89,7.5,7.5,0,0,1,1.18.74c.36.25.81.56,1.36.87s1.14.73,1.85,1.09a40.81,40.81,0,0,0,5,2.39,46,46,0,0,0,6.54,2,46.75,46.75,0,0,0,6.76.87,41.2,41.2,0,0,0,5.58-.12c.79,0,1.5-.16,2.13-.23s1.17-.16,1.61-.25A8.22,8.22,0,0,1,179.69,129.48Z" style="fill:#455a64"></path><path d="M180.68,135.15a3.67,3.67,0,0,1-.91.25,23.17,23.17,0,0,1-2.55.4A31.95,31.95,0,0,1,160.57,133a22.85,22.85,0,0,1-2.28-1.2,3.36,3.36,0,0,1-.78-.54c0-.07,1.21.59,3.2,1.44a35.57,35.57,0,0,0,16.48,2.74C179.34,135.31,180.66,135.07,180.68,135.15Z" style="fill:#455a64"></path><path d="M161.62,277.3l-8.13-24.63s-10.79-21-11.42-31.41,6.27-35,6.27-35L178,176.85s28.09,21.48,27.25,21.54c-7.57.47-5.87,37.21-5.87,37.21l13,21.51c3.63,5,11,8.11,11.55,14.24,0,0,.11,4.41-5.41,5.22-7.18,1.05-11.85-.95-18.29-.67S164.5,278.84,161.62,277.3Z" style="fill:#455a64"></path><path d="M207.93,250s-1.26,6.19-2.72,7.48c0,0-11.08,11.27-11.6,11.74s-2.27,1.23-3.11.68a2.66,2.66,0,0,1-.88-1.93s-2.8,1.64-3.94.88A1.55,1.55,0,0,1,185,267s-2.13.94-3.36-.39a4.2,4.2,0,0,1-.86-3.31s-1.83,1.27-2.82.08a6.56,6.56,0,0,1-1.11-3.26h0l1.66-2.59s4.6-5.59,6-7.13,4.61-2.66,7-3.26,8-6.22,8-6.22Z" style="fill:#ffbe9d"></path><path d="M205.21,257.52l-7.76-14.95s7.82-11.44,11.5-18.86,2.13-6.85,2.13-6.85a68.9,68.9,0,0,0-12.19-5.16c-7.11-2.25-15.88-7.27-15.88-7.27s-12.35-5.4-14.54-9.16-3.25-12.48,1-15.85a12.68,12.68,0,0,1,3.87-1.95,19.79,19.79,0,0,1,14.79,1.15c7.3,3.54,19.65,9.52,21.43,10.33,0,0,22.88,11.19,25.19,13.11,5.64,4.7,6.81,9.86,1.29,18.92C230.78,229.6,205.21,257.52,205.21,257.52Z" style="fill:#ffbe9d"></path><path d="M211.05,218.52a5.3,5.3,0,0,1,.48-1.94,13.18,13.18,0,0,1,2.55-4.11,13,13,0,0,1,3.85-2.91,5.15,5.15,0,0,1,1.89-.66,20.65,20.65,0,0,0-5.36,3.93A20.88,20.88,0,0,0,211.05,218.52Z" style="fill:#eb996e"></path><path d="M210.86,187.42l-13.62,26.51s-29.18-12.22-31-18.27A71.06,71.06,0,0,1,164,181.3s6.41-4.67,14-5.34S210.86,187.42,210.86,187.42Z" style="fill:#455a64"></path><path d="M167.35,198.87a3.42,3.42,0,0,1-.48-.87,14.16,14.16,0,0,1-.86-2.56,16.44,16.44,0,0,1,5.2-16.27,14.07,14.07,0,0,1,2.19-1.58,3.13,3.13,0,0,1,.89-.43c.06.08-1.2.75-2.83,2.29a17,17,0,0,0-5.09,15.91C166.81,197.56,167.44,198.83,167.35,198.87Z" style="fill:#263238"></path><path d="M210.86,187.42a1.72,1.72,0,0,1-.2.51l-.67,1.41c-.63,1.28-1.5,3-2.55,5.14-2.22,4.38-5.24,10.31-8.58,16.87-.48.92-1,1.84-1.39,2.7l-.12.23-.23-.12c-6-3-11.31-5.58-15.18-7.35l-4.58-2.05-1.23-.56a2,2,0,0,1-.42-.22,1.5,1.5,0,0,1,.45.13l1.28.47c1.1.43,2.69,1.07,4.64,1.92,3.92,1.69,9.3,4.18,15.28,7.2l-.35.11c.44-.86.91-1.78,1.39-2.7,3.39-6.53,6.45-12.44,8.72-16.8l2.69-5.06.76-1.37A3.5,3.5,0,0,1,210.86,187.42Z" style="fill:#263238"></path><g style="opacity:0.30000000000000004"><path d="M199.82,213.16a21.33,21.33,0,0,1-1.39,2.32c-.6.82-1.13,1.94-2.15,1.85a2.66,2.66,0,0,1-1.23-.54c-6.44-4.22-12.48-8.42-18.92-12.64l21.11,9.78,1.31-2.34,1.32.43"></path></g></g><g id="speech-bubble"><path d="M295.93,118.16l-2.7-10a31.9,31.9,0,1,0-7.64,8.5h0Z" style="fill:#fff"></path><path d="M238.19,76.74l-.82,1.71c-.13.29-.29.57-.4.86l-.33.88L236,82c-.19.59-.32,1.2-.48,1.8a31.58,31.58,0,0,0-.29,14.39,31.93,31.93,0,0,0,5.65,12.34,31.56,31.56,0,0,0,20.18,12.22,35.21,35.21,0,0,0,5.24.45,31,31,0,0,0,4.9-.4,31.91,31.91,0,0,0,14.33-6.17.11.11,0,0,1,.15,0,.12.12,0,0,1,0,.13v0l-.07-.17,7.65,1.16,2,.31.69.11-.65-.07-2-.26-7.75-1a.1.1,0,0,1-.09-.12.08.08,0,0,1,0,0h0l.15.14a31.87,31.87,0,0,1-14.41,6.33,31.46,31.46,0,0,1-4.95.42,34.72,34.72,0,0,1-5.3-.43,31.79,31.79,0,0,1-20.47-12.32,31.73,31.73,0,0,1-5.48-27.11c.16-.61.3-1.23.49-1.83s.43-1.19.65-1.79l.33-.9c.12-.29.27-.58.41-.87l.83-1.73c.28-.58.66-1.11,1-1.67a16.33,16.33,0,0,1,1-1.64,29.75,29.75,0,0,1,2.44-3.06c.44-.48.87-1,1.33-1.45L245,67.38l.73-.65.78-.58L248.07,65a32.43,32.43,0,0,1,21.32-5.39A32.1,32.1,0,0,1,297,83c.11.44.23.89.34,1.32a8.84,8.84,0,0,1,.27,1.32c.13.88.26,1.74.38,2.59a41.76,41.76,0,0,1,.1,5,31.69,31.69,0,0,1-4.73,15v-.08c.85,3.26,1.51,5.77,2,7.48.21.83.37,1.46.49,1.9s.15.63.15.63l-.2-.66q-.18-.68-.54-1.92l-2.06-7.38a.11.11,0,0,1,0-.08,31.68,31.68,0,0,0,4.59-14.9,41,41,0,0,0-.12-4.92c-.13-.84-.26-1.7-.39-2.57a8.63,8.63,0,0,0-.28-1.3c-.11-.43-.22-.86-.34-1.3a31.32,31.32,0,0,0-5-10.31,31.71,31.71,0,0,0-43.24-7.43l-1.53,1.14-.77.58-.72.64-1.43,1.3c-.45.45-.87,1-1.31,1.42a31.45,31.45,0,0,0-2.41,3" style="fill:#263238"></path><path d="M281.87,86.55c-1-3.87-4.74-7.12-8.7-6.64a8.73,8.73,0,0,0-5.8,3.68,16.18,16.18,0,0,0-1.34,2,15.34,15.34,0,0,0-1.43-2,8.76,8.76,0,0,0-6-3.41c-4-.3-7.6,3.12-8.39,7s.76,8,3.23,11.14a22.5,22.5,0,0,0,13.36,8.52c4.43-1.13,10-5.86,12.3-9.11S282.84,90.43,281.87,86.55Z" style="fill:#FF725E"></path><path d="M281.31,93.79l-.13,0-.39,0-1.48.06-5.44.16L274,94c-.45,1.77-1,3.85-1.53,6.13l-.1.37-.13-.36c-1-2.76-2.19-5.84-3.4-9.1-.38-1-.75-2-1.11-3h.23c-1.21,2.2-2.37,4.27-3.41,6.16l0,.06h-.06l-9.59.17-2.72,0h-1a.75.75,0,0,1,.24,0l.72,0,2.72-.1,9.58-.26-.1.06c1-1.9,2.19-4,3.4-6.17l.13-.25.1.27c.36,1,.73,2,1.11,3,1.21,3.26,2.36,6.35,3.38,9.11h-.22c.58-2.27,1.12-4.35,1.57-6.11l0-.08h.07l5.45-.08h1.87C281.27,93.78,281.31,93.78,281.31,93.79Z" style="fill:#fff"></path></g></svg>