<svg xmlns="http://www.w3.org/2000/svg" viewBox="0 0 500 500"><g id="background-complete"><path d="M316.89,415.8s-6.75,5.15-.28,11.95a.6.6,0,0,0,.42.18l59-.35s5-5.65.86-12.16Z" style="fill:#ebebeb"></path><path d="M363,421.17c0,.07-7.34.12-16.4.12s-16.41-.05-16.41-.12,7.34-.11,16.41-.11S363,421.11,363,421.17Z" style="fill:#e0e0e0"></path><path d="M353.82,423.31c0,.07-3.46.12-7.72.12s-7.71-.05-7.71-.12,3.45-.12,7.71-.12S353.82,423.24,353.82,423.31Z" style="fill:#e0e0e0"></path><path d="M369,427.4s.13-.68.31-1.78a24.52,24.52,0,0,0-.08-8.6c-.2-1.09-.39-1.75-.35-1.76s.08.15.17.45a12.79,12.79,0,0,1,.34,1.28,21,21,0,0,1,.5,4.33,22,22,0,0,1-.41,4.34c-.12.54-.23,1-.32,1.28A2.66,2.66,0,0,1,369,427.4Z" style="fill:#e0e0e0"></path><path d="M373.43,415.35s.11.14.26.43a4.86,4.86,0,0,1,.27.52c.09.21.2.45.3.73a12.9,12.9,0,0,1,.56,2,15.73,15.73,0,0,1,.26,2.49,14.66,14.66,0,0,1-.22,2.48,13.11,13.11,0,0,1-.53,2c-.09.28-.2.51-.29.73s-.18.39-.25.53a2.36,2.36,0,0,1-.26.43s.29-.65.64-1.74a14.36,14.36,0,0,0,.47-1.95,15.58,15.58,0,0,0,.2-2.45,15.17,15.17,0,0,0-.24-2.44,13.38,13.38,0,0,0-.5-1.95C373.73,416,373.39,415.37,373.43,415.35Z" style="fill:#e0e0e0"></path><path d="M326.2,427.47s-.11-.13-.28-.39a4.14,4.14,0,0,1-.27-.49,7.35,7.35,0,0,1-.32-.68,9.8,9.8,0,0,1-.57-1.86,11.11,11.11,0,0,1-.23-2.38,11.56,11.56,0,0,1,.29-2.37,10.48,10.48,0,0,1,.63-1.85,6.75,6.75,0,0,1,.33-.66,4,4,0,0,1,.29-.49,2.14,2.14,0,0,1,.28-.39s-.34.6-.75,1.61a12.5,12.5,0,0,0-.57,1.83,12.65,12.65,0,0,0-.26,2.32A12,12,0,0,0,325,424a11,11,0,0,0,.52,1.85C325.87,426.87,326.24,427.45,326.2,427.47Z" style="fill:#e0e0e0"></path><path d="M319.83,428.91a2.21,2.21,0,0,1-.31-.44,4.61,4.61,0,0,1-.3-.56,7.85,7.85,0,0,1-.36-.76,13.37,13.37,0,0,1-.68-2.08,15.35,15.35,0,0,1-.33-2.66,14,14,0,0,1,.22-2.68,11.53,11.53,0,0,1,.58-2.11c.1-.3.22-.55.32-.78s.2-.41.28-.56a1.74,1.74,0,0,1,.29-.46s-.34.69-.73,1.86a12.67,12.67,0,0,0-.53,2.09,14.52,14.52,0,0,0-.19,2.63,16,16,0,0,0,.31,2.62,14,14,0,0,0,.62,2.07C319.46,428.23,319.87,428.89,319.83,428.91Z" style="fill:#e0e0e0"></path><path d="M373.87,445.55v11.29H352V445.55Z" style="fill:#ebebeb"></path><path d="M303.31,451.3c0,.1,0,.2,0,.3a6.47,6.47,0,0,0,6.5,6.06h65.07v-.82H359.44a5.63,5.63,0,0,1-5.64-5.64h0a5.64,5.64,0,0,1,5.64-5.65h15.45v-1.2l-65.09.22A6.52,6.52,0,0,0,303.31,451.3Z" style="fill:#e0e0e0"></path><path d="M373.87,451.35c0,.07-4.49.12-10,.12s-10-.05-10-.12,4.5-.12,10-.12S373.87,451.28,373.87,451.35Z" style="fill:#e0e0e0"></path><path d="M373.55,453.89c0,.07-4.25.12-9.49.12s-9.49-.05-9.49-.12,4.25-.12,9.49-.12S373.55,453.83,373.55,453.89Z" style="fill:#e0e0e0"></path><path d="M373.87,456.22c0,.07-3.82.12-8.53.12s-8.54,0-8.54-.12,3.82-.12,8.54-.12S373.87,456.15,373.87,456.22Z" style="fill:#e0e0e0"></path><path d="M373.87,449.06c0,.07-4.4.12-9.83.12s-9.82-.05-9.82-.12,4.4-.12,9.82-.12S373.87,449,373.87,449.06Z" style="fill:#e0e0e0"></path><path d="M373.55,446.78c0,.06-3.91.12-8.74.12s-8.75-.06-8.75-.12,3.92-.12,8.75-.12S373.55,446.71,373.55,446.78Z" style="fill:#e0e0e0"></path><path d="M311.19,444.76a16.44,16.44,0,0,0-1.38,1.65,8.59,8.59,0,0,0-1.48,4.85,8.48,8.48,0,0,0,1.6,4.82,12.83,12.83,0,0,0,1.42,1.61,2,2,0,0,1-.47-.34,7.63,7.63,0,0,1-1.09-1.17,8.25,8.25,0,0,1-.12-9.87,7.56,7.56,0,0,1,1.06-1.19A2.3,2.3,0,0,1,311.19,444.76Z" style="fill:#f5f5f5"></path><path d="M309,444.52a16.44,16.44,0,0,0-1.38,1.65,8.38,8.38,0,0,0,.11,9.67,14.39,14.39,0,0,0,1.43,1.61,2,2,0,0,1-.47-.34,7.63,7.63,0,0,1-1.09-1.17,8.25,8.25,0,0,1-.12-9.87,7.56,7.56,0,0,1,1.06-1.19A2.3,2.3,0,0,1,309,444.52Z" style="fill:#f5f5f5"></path><path d="M353.2,444.76a16.44,16.44,0,0,0-1.38,1.65,8.67,8.67,0,0,0-1.48,4.85,8.56,8.56,0,0,0,1.6,4.82,12.83,12.83,0,0,0,1.42,1.61,2,2,0,0,1-.47-.34,7.63,7.63,0,0,1-1.09-1.17,8.25,8.25,0,0,1-.12-9.87,7.56,7.56,0,0,1,1.06-1.19A2.7,2.7,0,0,1,353.2,444.76Z" style="fill:#f5f5f5"></path><path d="M351,444.52a16.44,16.44,0,0,0-1.38,1.65,8.36,8.36,0,0,0,.12,9.67,13.84,13.84,0,0,0,1.42,1.61,2,2,0,0,1-.47-.34,7.63,7.63,0,0,1-1.09-1.17,8.25,8.25,0,0,1-.12-9.87,7.56,7.56,0,0,1,1.06-1.19A2.7,2.7,0,0,1,351,444.52Z" style="fill:#f5f5f5"></path><path d="M318.6,452.89l-.06-4.59a3.34,3.34,0,0,0-.17-1.18,1.11,1.11,0,0,0-.87-.74,1.76,1.76,0,0,0-1.87.89,4.3,4.3,0,0,0-.45,2.25,31.23,31.23,0,0,0,.18,3.62,4.29,4.29,0,0,0,.42,1.67,1.39,1.39,0,0,0,2.63-.23A4.56,4.56,0,0,0,318.6,452.89Z" style="fill:#f5f5f5"></path><path d="M343.87,451.57c0,.07-4.71.12-10.51.12s-10.5-.05-10.5-.12,4.7-.12,10.5-.12S343.87,451.5,343.87,451.57Z" style="fill:#f5f5f5"></path><polygon points="314.24 444.31 314.12 433.61 319.94 433.61 320.15 444.31 314.24 444.31" style="fill:#f5f5f5"></polygon><path d="M319.6,435.51a30.55,30.55,0,0,1-5.41,0,30.55,30.55,0,0,1,5.41,0Z" style="fill:#e0e0e0"></path><path d="M319.6,437.16a30.55,30.55,0,0,1-5.41,0,33.31,33.31,0,0,1,5.41,0Z" style="fill:#e0e0e0"></path><path d="M319.6,438.82a30.55,30.55,0,0,1-5.41,0,30.55,30.55,0,0,1,5.41,0Z" style="fill:#e0e0e0"></path><path d="M319.6,440.47a30.55,30.55,0,0,1-5.41,0,30.55,30.55,0,0,1,5.41,0Z" style="fill:#e0e0e0"></path><path d="M319.6,442.12a30.55,30.55,0,0,1-5.41,0,30.55,30.55,0,0,1,5.41,0Z" style="fill:#e0e0e0"></path><path d="M313.81,433.33h64.57a30.54,30.54,0,0,1,0,11.56H314.09v-.78H318a1.86,1.86,0,0,0,1.86-1.86v-6.4A1.86,1.86,0,0,0,318,434h-4.2Z" style="fill:#ebebeb"></path><path d="M329.07,439.12h1.08l.12,0a.22.22,0,0,1,.11.2v.07c0,.09-.05.18-.08.27a3,3,0,0,1-.67,1.22,1.29,1.29,0,0,1-.92.48h-.13a1.06,1.06,0,0,1-.73-.53,2.39,2.39,0,0,1-.33-1.3,3.71,3.71,0,0,1,.13-.92,3.08,3.08,0,0,1,.64-1.25,1.3,1.3,0,0,1,1-.52.83.83,0,0,1,.41.1,1.27,1.27,0,0,1,.63.78.23.23,0,0,1,0,.11.19.19,0,0,1,0,.12.22.22,0,0,1-.2.11H330a.25.25,0,0,1-.15-.15v0a1,1,0,0,0-.13-.25.6.6,0,0,0-.51-.31.59.59,0,0,0-.36.13,1.87,1.87,0,0,0-.59.85,3.12,3.12,0,0,0-.25,1.21,2.28,2.28,0,0,0,.18,1,.63.63,0,0,0,.56.42.79.79,0,0,0,.53-.32,2.8,2.8,0,0,0,.55-1h-.77c-.17,0-.26-.12-.26-.27a.19.19,0,0,1,0-.07A.23.23,0,0,1,329.07,439.12Z" style="fill:#fafafa"></path><path d="M332.74,437l0,.08c0,.16.3,1.49.76,4a.13.13,0,0,1,0,.06.27.27,0,0,1,0,.12.22.22,0,0,1-.19.12h0a.2.2,0,0,1-.18-.15l-.26-1.33h-1.32l-.64,1.33,0,0a.26.26,0,0,1-.2.12.28.28,0,0,1-.13,0,.22.22,0,0,1-.1-.19.15.15,0,0,1,0-.07c0-.1.11-.24.2-.44.93-2,1.48-3.22,1.66-3.59a.25.25,0,0,1,.23-.16A.25.25,0,0,1,332.74,437Zm-.29.9-.72,1.51h1Z" style="fill:#fafafa"></path><path d="M336.34,441.39H334.4a.28.28,0,0,1-.13,0,.34.34,0,0,1-.11-.24h0c0-.08.18-1.4.54-4a.28.28,0,0,1,0-.09.22.22,0,0,1,.21-.14.23.23,0,0,1,.11,0,.21.21,0,0,1,.12.2c0,.18-.06.54-.13,1.1-.23,1.7-.34,2.59-.35,2.69h1.65l.13,0a.23.23,0,0,1,.14.22.25.25,0,0,1,0,.08A.28.28,0,0,1,336.34,441.39Z" style="fill:#fafafa"></path><path d="M339,437l0,.08c.05.16.3,1.49.76,4a.13.13,0,0,1,0,.06.27.27,0,0,1,0,.12.22.22,0,0,1-.19.12h0a.2.2,0,0,1-.18-.15l-.25-1.33h-1.33l-.64,1.33,0,0a.26.26,0,0,1-.2.12.33.33,0,0,1-.13,0,.22.22,0,0,1-.1-.19.15.15,0,0,1,0-.07c0-.1.11-.24.2-.44.93-2,1.48-3.22,1.67-3.59a.23.23,0,0,1,.22-.16A.25.25,0,0,1,339,437Zm-.29.9-.71,1.51h1Z" style="fill:#fafafa"></path><path d="M342.1,439.31l.35,1c.21.56.31.85.31.88a.28.28,0,0,1,0,.12.23.23,0,0,1-.2.11.22.22,0,0,1-.19-.16,1,1,0,0,0,0-.1c-.1-.24-.27-.7-.52-1.37l-1.1,1.51a.29.29,0,0,1-.2.12l-.12,0a.21.21,0,0,1-.11-.2v-.05a.57.57,0,0,1,.12-.19c.36-.47.77-1,1.22-1.7-.05-.13-.09-.25-.14-.37-.41-1.11-.62-1.68-.62-1.72a.27.27,0,0,1,0-.12.23.23,0,0,1,.19-.11.23.23,0,0,1,.22.13l.65,1.75,1.3-1.77a.24.24,0,0,1,.2-.11.2.2,0,0,1,.11,0,.22.22,0,0,1,.11.2.43.43,0,0,1,0,.11Z" style="fill:#fafafa"></path><path d="M346.92,436.91a.23.23,0,0,1,.11,0,.25.25,0,0,1,.12.2c-.32,2.51-.49,3.87-.53,4.08a2.48,2.48,0,0,1-.41,1.06,1.53,1.53,0,0,1-1.92.47,1.41,1.41,0,0,1-.68-.6.27.27,0,0,1,0-.12.2.2,0,0,1,0-.11.22.22,0,0,1,.2-.12.21.21,0,0,1,.18.1,1.26,1.26,0,0,0,1,.56,1,1,0,0,0,.78-.39,2.17,2.17,0,0,0,.43-1.22,1,1,0,0,1-.29.3,1.11,1.11,0,0,1-.7.23h-.13a1,1,0,0,1-.74-.53,2.44,2.44,0,0,1-.32-1.29c0-.24,0-.48,0-.73s.12-1,.26-1.68a.64.64,0,0,1,0-.07.22.22,0,0,1,.21-.16l.12,0a.23.23,0,0,1,.11.19,6.9,6.9,0,0,1-.11.89,12.31,12.31,0,0,0-.15,1.35,2.83,2.83,0,0,0,.17,1.06c.14.32.33.47.58.47h.08a1,1,0,0,0,.58-.46,2.82,2.82,0,0,0,.48-1.07l.3-2.22a.17.17,0,0,1,0-.1A.2.2,0,0,1,346.92,436.91Z" style="fill:#fafafa"></path><path d="M376,445c-.06,0-.12-2.65-.12-5.93s.06-5.94.12-5.94.12,2.66.12,5.94S376,445,376,445Z" style="fill:#f5f5f5"></path><path d="M323.12,445c-.07,0-.12-2.65-.12-5.93s.05-5.94.12-5.94.12,2.66.12,5.94S323.18,445,323.12,445Z" style="fill:#e0e0e0"></path><path d="M377.09,445c-.07,0-.12-2.65-.12-5.93s0-5.94.12-5.94.11,2.66.11,5.94S377.15,445,377.09,445Z" style="fill:#f5f5f5"></path><path d="M322.06,445c-.07,0-.12-2.65-.12-5.93s.05-5.94.12-5.94.12,2.66.12,5.94S322.12,445,322.06,445Z" style="fill:#e0e0e0"></path><path d="M360.3,435.13v0l6.82,5.51.06,0-.07,0-.91.24-5.76,1.51h0l-5.22-2.21-1.48-.63-.39-.18-.1,0,0,0h0l.1,0,.39.16,1.49.62,5.23,2.19h0l5.76-1.52.91-.24,0,.07-6.81-5.53h0" style="fill:#e0e0e0"></path><polygon points="366.49 439.76 366.87 440.11 367.37 440 367.15 440.46 367.4 440.9 366.9 440.84 366.56 441.22 366.46 440.72 365.99 440.51 366.44 440.27 366.49 439.76" style="fill:#e0e0e0"></polygon><polygon points="359.95 441.93 360.2 442.14 360.52 442.05 360.4 442.36 360.58 442.63 360.25 442.61 360.05 442.87 359.96 442.55 359.65 442.44 359.93 442.26 359.95 441.93" style="fill:#e0e0e0"></polygon><polygon points="352.72 438.96 353.12 438.99 353.37 438.67 353.47 439.06 353.86 439.2 353.51 439.42 353.5 439.82 353.19 439.56 352.79 439.68 352.94 439.3 352.72 438.96" style="fill:#e0e0e0"></polygon><polygon points="369.55 435.22 369.96 435.24 370.21 434.92 370.31 435.32 370.69 435.46 370.35 435.67 370.33 436.08 370.02 435.82 369.63 435.93 369.78 435.55 369.55 435.22" style="fill:#e0e0e0"></polygon><polygon points="359.97 434.95 360.22 434.97 360.38 434.76 360.45 435.01 360.69 435.1 360.47 435.24 360.46 435.5 360.26 435.34 360.01 435.41 360.11 435.17 359.97 434.95" style="fill:#e0e0e0"></polygon><path d="M370.12,435.5s-2.21-.05-4.93-.16-4.93-.23-4.92-.26,2.2.05,4.93.16S370.12,435.47,370.12,435.5Z" style="fill:#e0e0e0"></path><path d="M372.6,433.22H307.12c-.86-1.94-1.07-3.79,0-5.45H372.6A6.3,6.3,0,0,1,372.6,433.22Z" style="fill:#e0e0e0"></path><rect x="320.68" y="429.33" width="35.48" height="1.98" style="fill:#ebebeb"></rect><path d="M309.63,433.25s-.25-.2-.52-.65a4.84,4.84,0,0,1-.59-1.94,4.78,4.78,0,0,1,.25-2,2,2,0,0,1,.39-.74,5.23,5.23,0,0,1-.23.79,5.64,5.64,0,0,0-.18,1.94,5.9,5.9,0,0,0,.51,1.88A6.2,6.2,0,0,1,309.63,433.25Z" style="fill:#e0e0e0"></path><path d="M311.05,433.25a1.73,1.73,0,0,1-.52-.65,4.82,4.82,0,0,1-.35-4,1.8,1.8,0,0,1,.4-.74,6.31,6.31,0,0,1-.24.79,5.56,5.56,0,0,0,.34,3.82C310.89,433,311.08,433.23,311.05,433.25Z" style="fill:#e0e0e0"></path><path d="M370,433.13a11.25,11.25,0,0,0,.46-2.67,11.11,11.11,0,0,0-.43-2.67,4.68,4.68,0,0,1,.67,2.67A4.8,4.8,0,0,1,370,433.13Z" style="fill:#f5f5f5"></path><path d="M368.73,433.11c-.07,0,.21-1.16.2-2.61s-.27-2.59-.2-2.61a6.54,6.54,0,0,1,.44,2.61A6.1,6.1,0,0,1,368.73,433.11Z" style="fill:#f5f5f5"></path><path d="M451.59,457.47s6.75-5.14.28-11.94a.56.56,0,0,0-.42-.18l-59,.34s-5,5.66-.85,12.17Z" style="fill:#ebebeb"></path><path d="M405.48,452.1c0-.06,7.35-.12,16.41-.12s16.41.06,16.41.12-7.34.12-16.41.12S405.48,452.17,405.48,452.1Z" style="fill:#e0e0e0"></path><path d="M414.66,450c0-.07,3.46-.12,7.72-.12s7.71,0,7.71.12-3.45.12-7.71.12S414.66,450,414.66,450Z" style="fill:#e0e0e0"></path><path d="M399.45,445.88s-.13.68-.31,1.77a24.17,24.17,0,0,0-.34,4.31,26,26,0,0,0,.42,4.3c.2,1.09.38,1.75.35,1.76a1.85,1.85,0,0,1-.18-.45c-.09-.3-.21-.74-.34-1.28a21.78,21.78,0,0,1-.49-4.33,21.14,21.14,0,0,1,.41-4.34c.12-.54.23-1,.32-1.28A2.66,2.66,0,0,1,399.45,445.88Z" style="fill:#e0e0e0"></path><path d="M395.05,457.93s-.11-.14-.27-.43a4.39,4.39,0,0,1-.26-.53,7.51,7.51,0,0,1-.3-.72,12.72,12.72,0,0,1-.56-2,14.41,14.41,0,0,1-.26-2.48,14.79,14.79,0,0,1,.22-2.49,13.28,13.28,0,0,1,.53-2c.09-.28.2-.52.29-.73s.18-.39.25-.53c.15-.29.24-.44.26-.43s-.29.65-.64,1.74a14.36,14.36,0,0,0-.47,1.95,15.58,15.58,0,0,0-.2,2.45,15.17,15.17,0,0,0,.24,2.44,14.09,14.09,0,0,0,.5,1.95C394.75,457.28,395.09,457.91,395.05,457.93Z" style="fill:#e0e0e0"></path><path d="M442.28,445.8a3.45,3.45,0,0,1,.28.4,4.14,4.14,0,0,1,.27.49,7.35,7.35,0,0,1,.32.68,9.8,9.8,0,0,1,.57,1.86,11.79,11.79,0,0,1,.23,2.38,12.29,12.29,0,0,1-.29,2.37,10.08,10.08,0,0,1-.63,1.84,6,6,0,0,1-.33.67,4,4,0,0,1-.29.49,1.8,1.8,0,0,1-.28.38s.33-.59.75-1.6a11.77,11.77,0,0,0,.56-1.83,11.92,11.92,0,0,0,.27-2.33,13.05,13.05,0,0,0-.2-2.33,12.18,12.18,0,0,0-.52-1.84C442.6,446.41,442.24,445.83,442.28,445.8Z" style="fill:#e0e0e0"></path><path d="M448.65,444.36a2.79,2.79,0,0,1,.3.45,3.51,3.51,0,0,1,.31.56,7.85,7.85,0,0,1,.36.76,13.37,13.37,0,0,1,.68,2.08,15.35,15.35,0,0,1,.33,2.66,14.12,14.12,0,0,1-.22,2.68,11.53,11.53,0,0,1-.58,2.11c-.1.29-.22.55-.32.77a5,5,0,0,1-.29.57c-.16.31-.26.47-.28.46s.34-.69.73-1.86a15.06,15.06,0,0,0,.53-2.09,16.59,16.59,0,0,0,.19-2.63,15.82,15.82,0,0,0-.31-2.62,14,14,0,0,0-.62-2.07C449,445,448.61,444.39,448.65,444.36Z" style="fill:#e0e0e0"></path><path d="M389.1,440.37h65.48c.86,1.95,1.07,3.8,0,5.46H389.1A6.32,6.32,0,0,1,389.1,440.37Z" style="fill:#e0e0e0"></path><rect x="405.54" y="442.28" width="35.48" height="1.98" transform="translate(846.57 886.55) rotate(180)" style="fill:#ebebeb"></rect><path d="M452.07,440.35s.25.2.52.65a4.84,4.84,0,0,1,.59,1.94,4.78,4.78,0,0,1-.25,2,2,2,0,0,1-.39.74,5.23,5.23,0,0,1,.23-.79A5.64,5.64,0,0,0,453,443a5.83,5.83,0,0,0-.51-1.88A6.2,6.2,0,0,1,452.07,440.35Z" style="fill:#e0e0e0"></path><path d="M450.65,440.35a1.73,1.73,0,0,1,.52.65,4.82,4.82,0,0,1,.35,3.95,1.94,1.94,0,0,1-.4.74,7.25,7.25,0,0,1,.23-.79,5.48,5.48,0,0,0-.33-3.82A6.2,6.2,0,0,1,450.65,440.35Z" style="fill:#e0e0e0"></path><path d="M391.75,440.47a10.68,10.68,0,0,0-.46,2.67,11.11,11.11,0,0,0,.43,2.67,5.55,5.55,0,0,1,0-5.34Z" style="fill:#f5f5f5"></path><path d="M393,440.49c.08,0-.2,1.16-.19,2.61s.27,2.59.2,2.61a6.54,6.54,0,0,1-.44-2.61A6.39,6.39,0,0,1,393,440.49Z" style="fill:#f5f5f5"></path><path d="M265.88,382.57c4.15-2.71,9.27-3.54,14.22-3.25,2.66.16,5.46.66,7.44,2.44s2.68,5.2.82,7.1a6.87,6.87,0,0,1-4.37,1.6c-3.81.35-8.11.12-10.91,2.73-1.6,1.49-2.53,3.78-4.54,4.64A4.92,4.92,0,0,1,262.9,396a8.46,8.46,0,0,1-1.26-6.13A9.5,9.5,0,0,1,265.88,382.57Z" style="fill:#ebebeb"></path><path d="M255.52,375.59c3.08,3.55,8.15,1.74,10.32-.85s2.84-6.07,3.43-9.4c1.36-7.59,2.69-15.55.33-22.9a12.61,12.61,0,0,0-3.52-5.85,6.6,6.6,0,0,0-6.44-1.42c-2.55,1-3.92,3.71-4.84,6.28a54.07,54.07,0,0,0-2.92,23.69c.37,3.73,1.22,7.59,3.64,10.45" style="fill:#ebebeb"></path><path d="M248.73,381.85c2.55-3.76,2.58-8.85.84-13a24.87,24.87,0,0,0-8.73-10.22,41,41,0,0,0-14.43-6.6,14.36,14.36,0,0,0-6.21-.4,6.45,6.45,0,0,0-4.81,3.63c-1.15,2.88.57,6,2.33,8.59a104.6,104.6,0,0,0,10.34,12.66c3,3.17,6.45,6.25,10.69,7.39s8.45.51,10.32-2.54" style="fill:#ebebeb"></path><path d="M259.65,422a8.11,8.11,0,0,0,.06-1.76c0-1.28,0-2.88,0-4.79a69.34,69.34,0,0,1,.34-7.07,54.21,54.21,0,0,1,1.68-8.48,30.08,30.08,0,0,1,3.42-7.87,15.74,15.74,0,0,1,4.84-5,15,15,0,0,1,4.32-1.85,8.62,8.62,0,0,0,1.71-.43,7.8,7.8,0,0,0-1.77.15,13.75,13.75,0,0,0-4.53,1.7,15.74,15.74,0,0,0-5.13,5,30.08,30.08,0,0,0-3.56,8,50.07,50.07,0,0,0-1.64,8.61,60,60,0,0,0-.19,7.14c.06,2,.17,3.67.26,4.8A7.79,7.79,0,0,0,259.65,422Z" style="fill:#e0e0e0"></path><path d="M261.29,429.64a3.81,3.81,0,0,0,0-.81c-.06-.61-.15-1.37-.25-2.31-.21-2-.51-4.9-.77-8.49-.57-7.17-.76-14.93-.7-25.91.07-10.33.35-22.37,1.14-30.26.16-1.79.34-3.41.52-4.82s.3-2.65.46-3.64.22-1.7.3-2.3a2.76,2.76,0,0,0,.06-.81,4.21,4.21,0,0,0-.2.79c-.12.59-.26,1.35-.44,2.28s-.38,2.21-.58,3.62-.44,3-.63,4.83a263.78,263.78,0,0,0-1.57,28.12c-.06,11,.43,21,1.13,28.15.33,3.59.71,6.48,1,8.48.15.93.28,1.68.38,2.29A3,3,0,0,0,261.29,429.64Z" style="fill:#e0e0e0"></path><path d="M259.35,410.53a15.55,15.55,0,0,0-.27-2.41,64.41,64.41,0,0,0-1.42-6.45,85,85,0,0,0-3.11-9.29,77.66,77.66,0,0,0-5.15-10.84,60.22,60.22,0,0,0-13.57-17,30.85,30.85,0,0,0-3-2.27c-.46-.31-.87-.63-1.28-.87l-1.14-.62a15.12,15.12,0,0,0-2.17-1.09c-.1.17,3.08,1.62,7.27,5.24a63.53,63.53,0,0,1,13.27,16.94,88,88,0,0,1,5.16,10.73,94.79,94.79,0,0,1,3.24,9.19c.78,2.66,1.3,4.85,1.64,6.36A15.87,15.87,0,0,0,259.35,410.53Z" style="fill:#e0e0e0"></path><polygon points="238.58 421.14 240.83 451.97 280.43 451.97 282.68 421.14 238.58 421.14" style="fill:#e0e0e0"></polygon><rect x="234.75" y="408.99" width="52.66" height="12.15" style="fill:#e0e0e0"></rect><polygon points="234.75 450.79 234.75 454.16 237.23 454.16 286.54 454.16 286.54 450.79 234.75 450.79" style="fill:#ebebeb"></polygon><polygon points="239.65 460.09 237.23 454.16 284.65 454.16 281.82 460.09 239.65 460.09" style="fill:#e0e0e0"></polygon><path d="M282,431.22a1.44,1.44,0,0,1-.19.28l-.59.79-2.3,2.95-.11.13-.1-.14L273,427.39h.33l-5.58,7.9-.17.25-.2-.23-6.62-7.88h.38l-.36.46-5.92,7.42-.2.24-.18-.25-5.58-7.9h.32l-6.87,7.84-.13.14-.09-.16c-.91-1.52-1.63-2.74-2.15-3.62-.23-.39-.41-.71-.55-1a1.33,1.33,0,0,1-.17-.34s.09.09.23.3l.61.93,2.26,3.55-.22,0c1.77-2.06,4.06-4.76,6.77-7.93l.17-.2.15.22,5.64,7.86h-.38c1.87-2.36,3.86-4.85,5.9-7.43l.37-.46.19-.23.19.23,6.6,7.89h-.37l5.63-7.86.17-.23.16.23,5.55,7.93h-.2l2.4-2.88.64-.74Q281.94,431.21,282,431.22Z" style="fill:#f5f5f5"></path><path d="M283.24,420.94c0,.13-9.93.24-22.17.24s-22.16-.11-22.16-.24,9.92-.25,22.16-.25S283.24,420.8,283.24,420.94Z" style="fill:#f5f5f5"></path><path d="M285.24,454.49c0,.14-10.79.25-24.09.25s-24.09-.11-24.09-.25,10.78-.24,24.09-.24S285.24,454.36,285.24,454.49Z" style="fill:#f5f5f5"></path><path d="M91,165.13a10.41,10.41,0,0,0-11.54-5.95c3.73-6.42-.35-15.9-7.57-17.61-3.73-3.35-10.59-3.64-15.08-1.42a13,13,0,0,0-7,12.33c-5.49-4.58-15.11-2.47-18.17,4s1.39,15.24,8.41,16.59c-.32,8.73,7.08,17,15.8,17.71s17.31-6.36,18.36-15A10.07,10.07,0,0,0,91,165.13Z" style="fill:#ebebeb"></path><circle cx="99.88" cy="45.09" r="23.85" style="fill:#ebebeb"></circle><circle cx="399.06" cy="345.88" r="21.14" style="fill:#ebebeb"></circle><circle cx="70.63" cy="90.06" r="10.97" style="fill:#ebebeb"></circle><circle cx="440.43" cy="328.62" r="8.04" style="fill:#ebebeb"></circle></g><g id="background-simple"><path d="M433.56,334.22l-.77-1.28a33.69,33.69,0,0,0-30.73-16.43,31.87,31.87,0,0,0-4.76.66,35.34,35.34,0,0,0-25.2,21.9c-2.4,6.43-3.07,13.84-7.61,18.95-5.92,6.65-16,6.86-24.8,6.58s-18.89,0-24.78,6.64c-3.69,4.18-4.86,10.12-4.57,15.72.79,14.82,11.12,28.07,24.25,34.65s28.59,7.18,43,4.28c20.13-4.06,39.28-15.2,50.79-32.42S442.77,352.8,433.56,334.22Z" style="fill:#f5f5f5"></path><path d="M80,33l1.38.23a31.59,31.59,0,0,1,25.1,20.94,30.09,30.09,0,0,1,1.11,4.37A33.16,33.16,0,0,1,97.44,88.18c-4.75,4.35-11,7.54-13.8,13.29-3.7,7.48-.35,16.29,3,23.88s6.68,16.41,3,23.88c-2.34,4.68-7.1,7.79-12.07,9.5-13.16,4.53-28.32.21-38.67-8.9S22.56,127.49,20,114C16.47,95,19.43,74.46,30.35,58.4S60.64,31.55,80,33Z" style="fill:#f5f5f5"></path><circle cx="237.06" cy="368.36" r="20.51" style="fill:#f5f5f5"></circle></g><g id="Floor"><path d="M468.51,458.41c0,.15-97.84.26-218.5.26s-218.52-.11-218.52-.26,97.82-.26,218.52-.26S468.51,458.27,468.51,458.41Z" style="fill:#263238"></path></g><g id="Sky"><path d="M77.37,256.12C68.17,240.33,71.52,218.31,85,206c7.49-6.84,17.69-11.05,22.87-19.77,8.53-14.38-.64-32.27-2.65-48.86a56.89,56.89,0,0,1,22.58-51.78C141,76,159.84,70.29,163.75,54.5c2.77-11.22-3.55-24,2-34.18C171.2,10.41,184.59,9,195.9,8.7q136.91-3,273.85-2.17c4.41,0,9.12.15,12.76,2.62,6,4.08,6.62,12.54,6.64,19.8q.21,99.28.41,198.56c0,11.67,0,23.49-2.94,34.76s-9.34,22.14-19.39,28.06c-24.88,14.64-58.3-6.36-85,4.65-20.18,8.32-29.9,32.27-49.24,42.39-18,9.4-40,4.75-58.82-2.84s-37-18-57.18-20c-20-1.92-39.83,4.76-59.92,5.35s-43.39-8.05-48.56-27.47" style="fill:#ebebeb"></path><path d="M165.11,117.38a16.17,16.17,0,1,1-11.68-19.65A16.16,16.16,0,0,1,165.11,117.38Z" style="fill:#FF725E"></path><g style="opacity:0.30000000000000004"><path d="M143.46,98.33c.16.28.3.53.41.71a3.32,3.32,0,0,0-1.81,1.57,6.42,6.42,0,0,0,.11,2.46.86.86,0,0,1-.2.68.89.89,0,0,1-.58.18c-1.19.09-2.6.12-3.29,1.1-.4.56-.52,1.4-1.15,1.69s-1.39-.28-1.81-.9A16.2,16.2,0,0,1,143.46,98.33Z"></path></g><g style="opacity:0.30000000000000004"><path d="M139.55,108a.14.14,0,0,1-.11,0c-1.61-.27-.38-3.28.84-3.42a1,1,0,0,1,1,1.31c-.26.85-1.22,1.22-1.6,2A.24.24,0,0,1,139.55,108Z"></path></g><g style="opacity:0.30000000000000004"><path d="M136.34,111.3a.55.55,0,0,1-.6-.1,1.84,1.84,0,0,1-.66-2c.37-1.23,2.26-1.91,2.95-.56a1.19,1.19,0,0,1-.31,1.47c-.24.17-.55.23-.79.42a2.12,2.12,0,0,0-.44.58A.61.61,0,0,1,136.34,111.3Z"></path></g><g style="opacity:0.30000000000000004"><path d="M137.68,115.76c-.21.08-.47-.05-.64.09s-.14.38-.31.46-.32-.09-.41-.23a2.16,2.16,0,0,1-.27-1.59.7.7,0,0,1,.11-.27,1.43,1.43,0,0,1,.59-.35.82.82,0,0,1,.79.29,1.77,1.77,0,0,1,.36.8C138,115.26,138,115.66,137.68,115.76Z"></path></g><g style="opacity:0.30000000000000004"><path d="M138.85,112.94c.64-.9,2.12-.54,2.85,0,.57.43,1.37,2,.12,2.22a1.47,1.47,0,0,1-1.19-.34c-.22-.19-.39-.47-.67-.59l-.06,0c-.29-.1-.63,0-.89-.2A.79.79,0,0,1,138.85,112.94Z"></path></g><g style="opacity:0.30000000000000004"><path d="M139.82,115.48a.51.51,0,0,1,0,.42.42.42,0,0,1-.28.16.63.63,0,0,1-.69-.58.64.64,0,0,1,.49-.6A1.16,1.16,0,0,1,139.82,115.48Z"></path></g><g style="opacity:0.30000000000000004"><path d="M139.48,114.86l-.17,0-.08,0Z"></path></g><g style="opacity:0.30000000000000004"><path d="M134.09,112.48a1.51,1.51,0,0,1,.45,1,7.37,7.37,0,0,1-.22.9c-.17,1,.77,2,.34,2.94a1.54,1.54,0,0,1-.69.69,16.19,16.19,0,0,1-.62-6.1A2.26,2.26,0,0,1,134.09,112.48Z"></path></g><g style="opacity:0.30000000000000004"><path d="M136.76,123.35a16.19,16.19,0,0,1-2.25-3.83c.59-.93,1.12-1.76,2.4-1.93a1.71,1.71,0,0,1,1.76.82,2.64,2.64,0,0,1,.16,1c0,.38,0,.75,0,1.12a.82.82,0,0,1-.06.44c-.21.41-.82.29-1.25.47a1.21,1.21,0,0,0-.62.77,5.84,5.84,0,0,0-.15,1S136.76,123.31,136.76,123.35Z"></path></g><g style="opacity:0.30000000000000004"><path d="M141.15,120.59a3.09,3.09,0,0,1-.25-.62,4.4,4.4,0,0,0-.53-.77,1,1,0,0,1-.16-.88.41.41,0,0,1,.21-.2.46.46,0,0,1,.3.06,5,5,0,0,1,1.46,1.16l-.2-.14a1.24,1.24,0,0,1,.38.55.9.9,0,0,1-.28.93A.7.7,0,0,1,141.15,120.59Z"></path></g><g style="opacity:0.30000000000000004"><path d="M152.93,101.16a.71.71,0,0,0-.32-.07c-.33,0-.45.44-.71.63a.78.78,0,0,1-.92-.11c-1.25-1.11.46-2.63,1.71-2.42S155,101.93,152.93,101.16Z"></path></g><g style="opacity:0.30000000000000004"><path d="M153.36,109.29a6.65,6.65,0,0,1-.75-1.45,2.18,2.18,0,0,1-.17-1.28,2.34,2.34,0,0,1,1.61-1.41,3.22,3.22,0,0,1,1.88-.23,6.74,6.74,0,0,1,1.12.53c.62.3,1.31.46,1.93.75a2.91,2.91,0,0,1,1.13.89,5.71,5.71,0,0,1,1.9,3.26,2.11,2.11,0,0,1-.2,1.62c-.58.85-1.93.77-2.64,1.52s-.59,1.82-1.34,2.33-1.71.06-2.44-.43c-1-.69-2.08-1.68-2-2.92.06-.82.63-1.61.4-2.4A3.33,3.33,0,0,0,153.36,109.29Z"></path></g><g style="opacity:0.30000000000000004"><path d="M160.27,105.13l-1.33-.39a.92.92,0,0,1-.36-.17.55.55,0,0,1,.09-.8.89.89,0,0,1,.88,0,2.46,2.46,0,0,1,.73.56l-.37-.24A1.06,1.06,0,0,1,160.27,105.13Z"></path></g><g style="opacity:0.30000000000000004"><path d="M162.55,107.49c0,.25-.21.51-.45.45a.6.6,0,0,1-.31-.26l-.64-.84a.52.52,0,0,1-.14-.3.33.33,0,0,1,.3-.28.67.67,0,0,1,.41.13,2.82,2.82,0,0,1,.78,1l-.26-.56A1.19,1.19,0,0,1,162.55,107.49Z"></path></g><g style="opacity:0.30000000000000004"><path d="M140.56,110.65a.44.44,0,0,1,.21-.85A.44.44,0,0,1,140.56,110.65Z"></path></g><g style="opacity:0.30000000000000004"><path d="M141.22,107.77a.56.56,0,0,1-.27,1.09A.56.56,0,0,1,141.22,107.77Z"></path></g><g style="opacity:0.30000000000000004"><path d="M142.92,112.14a2.51,2.51,0,0,1-.66-3c.34-.64,1.06-1.12,1.72-.61a2,2,0,0,1,.48,2.1c-.11.62.09.81.38,1.32a1.83,1.83,0,0,1,.32.95.92.92,0,0,1-1.22.93C143.37,113.55,143.12,112.78,142.92,112.14Z"></path></g><g style="opacity:0.30000000000000004"><path d="M140.45,116.31a2.74,2.74,0,0,1,1.33.07l.15,0c.43.15.88.52.77,1a.78.78,0,0,1-1,.57,1.72,1.72,0,0,1-.54-.31,2.14,2.14,0,0,0-.71-.35C140,117.22,139.88,116.4,140.45,116.31Z"></path></g><g style="opacity:0.30000000000000004"><path d="M142.94,116.15a.49.49,0,0,1-.23-.22.39.39,0,0,1,.42-.56.45.45,0,0,1,.35.46A.37.37,0,0,1,142.94,116.15Z"></path></g><g style="opacity:0.30000000000000004"><path d="M151.74,110.12a1.43,1.43,0,0,1-.06.36,1.28,1.28,0,0,1,0,.19c0,.57-.39,1.13-.86,1.16s-.79-.73-1-1.32a2.37,2.37,0,0,1-.06-1.92.84.84,0,0,1,1.39-.24,2.56,2.56,0,0,1,.56,1.77"></path></g><g style="opacity:0.30000000000000004"><path d="M151.73,113.78a.53.53,0,0,1-.08-.17v0a.6.6,0,0,1,0-.62.51.51,0,0,1,.69-.19.77.77,0,0,1,.34,1A.54.54,0,0,1,151.73,113.78Z"></path></g><g style="opacity:0.30000000000000004"><path d="M150.29,114.34c-.56.1-.89-.33-1.19-.72a8.08,8.08,0,0,1-.95-1.25,1.09,1.09,0,0,1,0-1.21.75.75,0,0,1,1.06-.07,3.79,3.79,0,0,1,.74,1.24,1,1,0,0,0,.11.17s0,0,0,0C150.76,112.82,151.39,114.15,150.29,114.34Z"></path></g><g style="opacity:0.30000000000000004"><path d="M164.1,106.49a3.21,3.21,0,0,1-2.11-.88,3.84,3.84,0,0,1-1.1-3,1.64,1.64,0,0,1-.1-.75A16.08,16.08,0,0,1,164.1,106.49Z"></path></g><g style="opacity:0.30000000000000004"><path d="M160.89,117.65h-.1a1.84,1.84,0,0,1-1.18,1.07.45.45,0,0,1-.63.2,1,1,0,0,1-.45-.6,1.21,1.21,0,0,1-.18-.82c.08-.54.44-.81.76-1.21l0,0a4.4,4.4,0,0,0,.31-.75,2.38,2.38,0,0,1,.15-.45,1,1,0,0,1,1.3-.23l.16.1c.23,0,.37.25.44.48a5.84,5.84,0,0,1,.33.53l-.27-.35a2.84,2.84,0,0,1,.13,1.15A1,1,0,0,1,160.89,117.65Z"></path></g><g style="opacity:0.30000000000000004"><path d="M151.57,104.17a.65.65,0,0,1,.76.84,1.53,1.53,0,0,1-.36.51l-.11.12s0,.09,0,.11a1.18,1.18,0,0,1-.17.54c-.25.37-.93.39-1-.12a1.27,1.27,0,0,1,.12-.9.14.14,0,0,1,0-.06A1.11,1.11,0,0,1,151.57,104.17Z"></path></g><g style="opacity:0.30000000000000004"><path d="M158.49,122.23c-.07-.83.83-1.13,1.31-1.61s.32-1.49,1.1-1.77a.85.85,0,0,1,1.11.78,2.78,2.78,0,0,1-.43,1.79,2.27,2.27,0,0,1-1.9,1.76A1.13,1.13,0,0,1,158.49,122.23Z"></path></g><g style="opacity:0.30000000000000004"><path d="M162.36,116.84a.45.45,0,0,1,.82-.12,2.24,2.24,0,0,1,.26,1c0,.32-.14.77-.49.86h-.07a.85.85,0,0,1-.52.12.83.83,0,0,1-.42-1.44C162.09,117.11,162.29,117.05,162.36,116.84Z"></path></g><g style="opacity:0.30000000000000004"><path d="M162.09,115.27a.4.4,0,0,1,.09-.4.3.3,0,0,1,.36-.05c.15.06.18.2.21.35a.33.33,0,0,1-.29.33A.34.34,0,0,1,162.09,115.27Z"></path></g><g style="opacity:0.30000000000000004"><path d="M164.6,118.12a4.34,4.34,0,0,0-.73-3.1,3.09,3.09,0,0,1-.45-1.85,3.3,3.3,0,0,1,2-2.3,16.11,16.11,0,0,1-.32,6.46c-.11.45-.25.88-.39,1.31A.69.69,0,0,1,164.6,118.12Z"></path></g><g style="opacity:0.30000000000000004"><path d="M164,110.7a.66.66,0,0,1-.9,0s0,0,0,0a.65.65,0,0,1-.18-.15.61.61,0,0,1,0-.79,1.21,1.21,0,0,1,.34-.3,3.91,3.91,0,0,1,1.59-1c.15.5.29,1,.4,1.53A3.52,3.52,0,0,0,164,110.7Z"></path></g><g style="opacity:0.30000000000000004"><path d="M163.16,107.43a.36.36,0,0,1,.6-.2l.09.12,0,0a.45.45,0,0,1,.13.32.71.71,0,0,1,0,.32.41.41,0,0,1-.07.11l0,.08a.32.32,0,0,1-.43.12.73.73,0,0,1-.39-.53A.54.54,0,0,1,163.16,107.43Z"></path></g><g style="opacity:0.30000000000000004"><path d="M162.9,112.73a.67.67,0,0,1-.31.33c-.1.55-.58,1.15-1.12.82a.58.58,0,0,1-.11-.86,4.53,4.53,0,0,1,.91-.77A.4.4,0,0,1,162.9,112.73Z"></path></g><g style="opacity:0.30000000000000004"><path d="M136.27,112a.92.92,0,0,1,.77-.62,2,2,0,0,0,1-.44.46.46,0,0,1,.76.43,1.52,1.52,0,0,1-.8,1,1.26,1.26,0,0,1-1.09.16,1.47,1.47,0,0,1-.29,0A.42.42,0,0,1,136.27,112Z"></path></g><g style="opacity:0.30000000000000004"><path d="M134.54,108.8a2,2,0,0,1-.83.87c0-.1,0-.21.08-.32a16.29,16.29,0,0,1,.9-2.6l0,0A2.14,2.14,0,0,1,134.54,108.8Z"></path></g><g style="opacity:0.30000000000000004"><path d="M143.81,124.21c-.27-.53.2-1.09.63-1.36.62-.39,1.3-.41,1.8-1s.76-1,1.4-1.18a1.06,1.06,0,0,1,1.17.5,1.31,1.31,0,0,1,0,1.2,2.09,2.09,0,0,1-.39,1.2,2.59,2.59,0,0,1-2.42,1C145.21,124.94,144.19,125,143.81,124.21Z"></path></g><g style="opacity:0.30000000000000004"><path d="M145.31,121.72a.6.6,0,0,1-.25-.66.77.77,0,0,1,.69-.56.46.46,0,0,1,.39,0c.48.27.25.94-.16,1.15A.69.69,0,0,1,145.31,121.72Z"></path></g><g style="opacity:0.30000000000000004"><path d="M149.61,123.38a.4.4,0,0,1-.36-.2,1,1,0,0,1,0-.94.43.43,0,0,1,.73,0,.56.56,0,0,1,.29.59A.7.7,0,0,1,149.61,123.38Z"></path></g><g style="mix-blend-mode:multiply;opacity:0.2"><path d="M140.53,99.94a16.17,16.17,0,0,0,21.36,23.84,16.17,16.17,0,1,1-21.36-23.84Z"></path></g><path d="M167.46,103a1.61,1.61,0,1,1-.09.07" style="fill:#FF725E"></path><path d="M163.25,100.34a.93.93,0,1,1-.05,0" style="fill:#FF725E"></path><ellipse cx="439.9" cy="67.92" rx="19.48" ry="18.5" transform="translate(107.48 363.93) rotate(-50.46)" style="fill:#FF725E"></ellipse><g style="opacity:0.2"><path d="M423.81,62.23a12.7,12.7,0,0,0,5-.93c.39-.14.22-.7-.12-.74-1.48-.14-2.89-.32-4.39-.33-.4,0-.83,0-1.27-.06-.31.64-.59,1.29-.84,2C422.74,62.2,423.31,62.21,423.81,62.23Z"></path><path d="M425.51,65.26A28.83,28.83,0,0,0,437.26,63a33.28,33.28,0,0,0,10.33-6.78,28.07,28.07,0,0,0,3.62-4.14,15.94,15.94,0,0,0-1.63-1,20.83,20.83,0,0,1-2.91,3.57,32.35,32.35,0,0,1-8.39,6,29.26,29.26,0,0,1-9.41,3,18.48,18.48,0,0,1-7.1-.11c-.12.41-.23.82-.32,1.24A17.09,17.09,0,0,0,425.51,65.26Z" style="fill:#fff"></path><path d="M434.08,53.73c1.87-.65,5.15-2.57,6-4.87q-1,0-1.95.18c-.07.12-.15.24-.23.35A8.91,8.91,0,0,1,434.49,52a12.57,12.57,0,0,1-6.1,1.4c-.31.26-.62.53-.92.81C429.46,54.94,432.26,54.35,434.08,53.73Z" style="fill:#fff"></path><path d="M428.09,71.63A37,37,0,0,0,442,67.75a34.4,34.4,0,0,0,10.93-7.67,26.75,26.75,0,0,0,2.77-3.46,18,18,0,0,0-2.84-3.26,28.53,28.53,0,0,1-3.93,4.49,35.64,35.64,0,0,1-9.46,6.06,35.65,35.65,0,0,1-11.19,3.34,27.93,27.93,0,0,1-5.71,0c-.49,0-1-.13-1.45-.21a19.35,19.35,0,0,0,0,4A24.58,24.58,0,0,0,428.09,71.63Z"></path><path d="M436.42,81.9a63.26,63.26,0,0,1-8.1,1.68c.4.29.81.56,1.23.82a57.31,57.31,0,0,0,18.17-5.46A64,64,0,0,0,457.83,73q.18-.56.33-1.14a61.76,61.76,0,0,1-10.56,6A72.54,72.54,0,0,1,436.42,81.9Z"></path><path d="M435.35,56.39A17.39,17.39,0,0,0,442.41,52a14.61,14.61,0,0,0,2-2.78,16.37,16.37,0,0,0-1.73-.25A10.37,10.37,0,0,1,441,51.26a16.35,16.35,0,0,1-5.92,3.82,21.72,21.72,0,0,1-9.95,1.68c-.28.36-.55.73-.8,1.11C427.94,58.53,432.34,57.47,435.35,56.39Z" style="fill:#fff"></path><path d="M458.8,67.07A48.14,48.14,0,0,1,455,70.63a42.31,42.31,0,0,1-19.09,9.13c-3.3.71-7,1.53-10.39,1.22q.43.49.9,1a34.56,34.56,0,0,0,7.93-.94,48.5,48.5,0,0,0,11.49-3.36,47,47,0,0,0,12.88-8.55,1,1,0,0,1,0-.17C458.76,68.3,458.79,67.68,458.8,67.07Z" style="fill:#fff"></path><path d="M445.15,75.07a48.23,48.23,0,0,0,12.42-8.43c.4-.38.79-.76,1.17-1.16a18.43,18.43,0,0,0-1.9-6.87,31.06,31.06,0,0,1-3.79,4.15,43.56,43.56,0,0,1-10.7,7,38,38,0,0,1-12.66,3.68,31.48,31.48,0,0,1-7-.17l-1.22-.21a17.89,17.89,0,0,0,2.83,6.37,29.84,29.84,0,0,0,5.18,0A44,44,0,0,0,445.15,75.07Z" style="fill:#fff"></path><path d="M441.87,54.37c-1.35.87-2.4,2-3.9,2.76s-3.28,1.07-4.66,2.09a.76.76,0,0,0,.61,1.34,20.31,20.31,0,0,0,5.41-2.24c1.32-.68,2.84-1.83,3.23-3.33C442.66,54.61,442.3,54.09,441.87,54.37Z"></path><path d="M444.79,83.05a4.31,4.31,0,0,0-.88.66c-.28.26,0,.78.36.57a3.91,3.91,0,0,1,.84-.37,3.49,3.49,0,0,0,.83-.44.3.3,0,0,0-.1-.56A1.54,1.54,0,0,0,444.79,83.05Z" style="fill:#fff"></path><path d="M453.93,76.74c-1.86,1.08-4.15,1.77-5.78,3.2-.37.32-.22,1,.31,1,2.27-.08,4.59-1.58,6.53-2.74l.48-.3a20.2,20.2,0,0,0,1.77-3.31C456.16,75.37,455.06,76.08,453.93,76.74Z"></path><path d="M440.88,84.36c.52-.38.05-1-.45-1-1.73.17-3.45,1.06-5.17,1.47-1.14.27-2.28.51-3.42.73a17.49,17.49,0,0,0,2.62.87A12.85,12.85,0,0,0,440.88,84.36Z" style="fill:#fff"></path></g><path d="M446.2,84.32a2.87,2.87,0,0,1-.53.29,12.75,12.75,0,0,1-1.54.63,17.19,17.19,0,0,1-5.41.91,17.79,17.79,0,0,1-3-.26,16.67,16.67,0,0,1-2.39-.63c-.33-.11-.62-.24-.88-.35a5.92,5.92,0,0,1-.65-.3,2.23,2.23,0,0,1-.53-.31s.8.35,2.13.77a17.35,17.35,0,0,0,2.37.56,19.52,19.52,0,0,0,3,.24,18.87,18.87,0,0,0,5.35-.82C445.4,84.64,446.18,84.27,446.2,84.32Z" style="fill:#fff"></path><path d="M453.77,55.5c.08.06-.17.51-.69,1.29l-.44.65c-.17.23-.37.46-.58.72a21.1,21.1,0,0,1-1.51,1.69q-.45.43-.93.93c-.33.32-.71.62-1.08.94a31.45,31.45,0,0,1-2.5,1.93,34.87,34.87,0,0,1-6.38,3.43,35.38,35.38,0,0,1-7,2,31.24,31.24,0,0,1-3.14.34c-.5,0-1,.08-1.43.07l-1.32,0a18.31,18.31,0,0,1-2.26-.17l-.92-.11-.76-.16c-.92-.2-1.41-.36-1.4-.46s.54-.12,1.46-.09l.76,0c.28,0,.59,0,.91,0,.65,0,1.39,0,2.2,0l1.28-.07c.44,0,.9-.1,1.38-.15.95-.07,1.95-.28,3-.46a40.42,40.42,0,0,0,6.68-2,40.14,40.14,0,0,0,6.18-3.21c.88-.6,1.75-1.15,2.49-1.76.37-.29.75-.56,1.09-.85l1-.83c.64-.52,1.14-1.06,1.62-1.5.23-.23.46-.43.65-.63l.53-.55C453.3,55.78,453.69,55.44,453.77,55.5Z" style="fill:#FF725E"></path><path d="M457.82,72.81s0,0,0-.14l.08-.41c.08-.39.19-.92.34-1.6v0s0,.06,0,.07v0l0-.27h0v0h0v0a18.93,18.93,0,0,0-.2-6.22l0-.09s0,.12,0,.14l0,0A18.3,18.3,0,0,0,447,50.87l.15,0h0l-.07.07-.09,0a16.65,16.65,0,0,0-2.5-.83,17.88,17.88,0,0,0-11.18,1,20.1,20.1,0,0,0-7.46,5.5A19.05,19.05,0,0,0,422.59,62c-.27.7-.45,1.25-.56,1.63,0,.17-.1.32-.13.43l0,.14a13.83,13.83,0,0,1,.64-2.24,18.65,18.65,0,0,1,3.19-5.47,20.26,20.26,0,0,1,7.52-5.6,18.54,18.54,0,0,1,5.38-1.44,16.83,16.83,0,0,1,6,.37,17.19,17.19,0,0,1,2.54.84l-.15,0h0l.07-.06.08,0a18.4,18.4,0,0,1,7.88,6,18.16,18.16,0,0,1,3.31,7.46l0-.05s0,.13,0,.14l0-.09a18.36,18.36,0,0,1,.12,6.28v0h0l0,0,0,.27v0s0,.08,0,.08v0l-.38,1.6c-.05.17-.08.3-.11.41Z" style="fill:#fff"></path><path d="M422,75c-.08-.21-.15-.42-.22-.63-8.22,4.46-11.93,7.39-12.46,8.75a.48.48,0,0,0-.05.25l0,0c0,.07.14.12.19.14.95.38,6,.73,31.05-10.68,15.1-6.87,25.61-13.67,28.56-16.55a.51.51,0,0,0-.38-.89,63.19,63.19,0,0,0-11.83,3.26l.21.45c4.81-1.65,7.92-2.34,8.2-1.65.56,1.38-10.51,7.75-24.72,14.23S414.39,82.38,413.83,81C413.52,80.24,416.71,78,422,75Z" style="fill:#FF725E"></path><path d="M456,57l.2.37c7.44-2.64,12.9-3.95,14.5-3.31a1.22,1.22,0,0,1,.82,1.19c0,.56,0,2.24-9.24,8a192.85,192.85,0,0,1-21.13,11.16c-3.25,1.48-6.71,3-10.12,4.43-9.85,4.13-19.31,7.43-22.16,6.29a1.67,1.67,0,0,1-1-1,1.87,1.87,0,0,1,0-1.46c1-2.45,6.88-6.2,13.46-9.74,0-.09-.05-.18-.07-.27C410.2,78.71,403.42,83.92,404,86.07c1.14,4.62,18.25-1,38-10s34.63-19.67,33.44-22.59C474.58,51.58,466.85,53.1,456,57Z" style="fill:#FF725E"></path><path d="M460.67,59.14c.16,0-.75.91-.78.93a11.38,11.38,0,0,1-1.22.83c-1.1.73-2.23,1.39-3.38,2a43.05,43.05,0,0,0-4.89,2.7c-.17.13,0,.34.16.29a30.62,30.62,0,0,0,10-5.54c.39-.32,1-.78.83-1.36a.54.54,0,0,0-.82-.31.22.22,0,0,0,.09.43Z" style="fill:#FF725E"></path><g style="opacity:0.30000000000000004"><path d="M422,75c-.08-.21-.15-.42-.22-.63-8.22,4.46-11.93,7.39-12.46,8.75a.48.48,0,0,0-.05.25l0,0c0,.07.14.12.19.14.95.38,6,.73,31.05-10.68,15.1-6.87,25.61-13.67,28.56-16.55a.51.51,0,0,0-.38-.89,63.19,63.19,0,0,0-11.83,3.26l.21.45c4.81-1.65,7.92-2.34,8.2-1.65.56,1.38-10.51,7.75-24.72,14.23S414.39,82.38,413.83,81C413.52,80.24,416.71,78,422,75Z"></path><path d="M460.67,59.14c.16,0-.75.91-.78.93a11.38,11.38,0,0,1-1.22.83c-1.1.73-2.23,1.39-3.38,2a43.05,43.05,0,0,0-4.89,2.7c-.17.13,0,.34.16.29a30.62,30.62,0,0,0,10-5.54c.39-.32,1-.78.83-1.36a.54.54,0,0,0-.82-.31.22.22,0,0,0,.09.43Z"></path></g><g style="opacity:0.30000000000000004"><path d="M456,57l.2.37c7.44-2.64,12.9-3.95,14.5-3.31a1.22,1.22,0,0,1,.82,1.19c0,.56,0,2.24-9.24,8a192.85,192.85,0,0,1-21.13,11.16c-3.25,1.48-6.71,3-10.12,4.43-9.85,4.13-19.31,7.43-22.16,6.29a1.67,1.67,0,0,1-1-1,1.87,1.87,0,0,1,0-1.46c1-2.45,6.88-6.2,13.46-9.74,0-.09-.05-.18-.07-.27C410.2,78.71,403.42,83.92,404,86.07c1.14,4.62,18.25-1,38-10s34.63-19.67,33.44-22.59C474.58,51.58,466.85,53.1,456,57Z"></path></g><path d="M289,112.54a78,78,0,1,0,86.87-68A78,78,0,0,0,289,112.54Z" style="fill:#f5f5f5"></path><path d="M348.79,146.45a17,17,0,1,0,18.91-14.8A17,17,0,0,0,348.79,146.45Z" style="fill:#e0e0e0"></path><path d="M346.94,146.39c-1.13,9.29,4.9,17.66,14.19,18.79s17.23-6.18,18.36-15.47-5-17-14.28-18.08S348.07,137.11,346.94,146.39Z" style="fill:#ebebeb"></path><path d="M350.73,45.56a78.06,78.06,0,0,0-41.07,46.2s3.13,3.24,2.57,7.2c-.46,3.26-4.11,4.21-5.4,4.44-.19,1.13-.39,2.26-.53,3.4a78.38,78.38,0,0,0-.16,17.24c.23.17,6.65,5,7,9.46.27,3.39-1.33,6.66-2.87,9,.47,1.32,1,2.63,1.5,3.92a78.36,78.36,0,0,0,19.43,27.46c.77-.33,5.39-2.17,9.52-.08,4.52,2.29,3,8.9,3,8.9l-.55.17a77.8,77.8,0,0,0,56.22,9.78,78,78,0,1,1-48.7-147.09Z" style="fill:#e0e0e0"></path><path d="M309.06,107.39a1.88,1.88,0,1,0,2.09-1.64A1.88,1.88,0,0,0,309.06,107.39Z" style="fill:#e0e0e0"></path><path d="M395,156.73a26.34,26.34,0,0,1,4.75-9.71c1.37-1.91,3.29-3.94,5.62-3.63l2,.33a7.56,7.56,0,0,1,8.22,2,9.3,9.3,0,0,1,1.81,7.86,18,18,0,0,1-3.71,7.4,34.31,34.31,0,0,1-6.72,6.52,8.8,8.8,0,0,1-4.75,2,6.64,6.64,0,0,1-5-2.5C394.8,164.26,394.23,160.29,395,156.73Z" style="fill:#e0e0e0"></path><path d="M393.13,156.51a26.39,26.39,0,0,1,4.75-9.72,8.75,8.75,0,0,1,5.61-3.62l3.07-.5c3,.1,5.15.55,7.14,2.81a9.32,9.32,0,0,1,1.81,7.86,18,18,0,0,1-3.71,7.4,34.08,34.08,0,0,1-6.73,6.52,7.55,7.55,0,0,1-4.46,1.73c-1.93,0-3.21-1.25-4.47-2.71C393.78,163.52,392.39,160.06,393.13,156.51Z" style="fill:#ebebeb"></path><path d="M371.33,184.31a23.65,23.65,0,0,1-8.35-1c-1.72-.48-3.65-1.28-3.87-2.82l-.15-1.33a4.38,4.38,0,0,1-.12-5.61,8.17,8.17,0,0,1,5.63-2.74,15.87,15.87,0,0,1,6.37.84,26.41,26.41,0,0,1,6.31,2.94,5.6,5.6,0,0,1,2.49,2.59,4,4,0,0,1-.91,3.68C377.1,182.88,374.19,184.05,371.33,184.31Z" style="fill:#e0e0e0"></path><path d="M369.69,184.7a23.42,23.42,0,0,1-8.35-1,6.18,6.18,0,0,1-3.88-2.82l-1-1.83c-.53-1.95-.6-3.39.72-5.1a8.22,8.22,0,0,1,5.63-2.75,15.87,15.87,0,0,1,6.37.85,26.77,26.77,0,0,1,6.31,2.93,4.83,4.83,0,0,1,2.2,2.48c.43,1.21-.31,2.29-1.18,3.38A9.88,9.88,0,0,1,369.69,184.7Z" style="fill:#ebebeb"></path><path d="M330.2,73.4a26.21,26.21,0,0,1,8.88-6.18c2.12-1,4.78-1.84,6.66-.44L347.32,68a7.54,7.54,0,0,1,6.22,5.72,9.27,9.27,0,0,1-2.24,7.75,17.89,17.89,0,0,1-6.83,4.67,34.25,34.25,0,0,1-9.05,2.43,8.77,8.77,0,0,1-5.13-.52,6.61,6.61,0,0,1-3.17-4.62C326.39,79.9,327.83,76.15,330.2,73.4Z" style="fill:#e0e0e0"></path><path d="M327.29,74.23a26.17,26.17,0,0,1,8.87-6.18,8.8,8.8,0,0,1,6.67-.45l2.92,1.05c2.61,1.58,4.24,3,4.88,5.93a9.31,9.31,0,0,1-2.24,7.75A17.85,17.85,0,0,1,341.55,87a34.08,34.08,0,0,1-9,2.43,7.56,7.56,0,0,1-4.74-.65c-1.71-.89-2.2-2.66-2.59-4.54C324.45,80.68,324.91,77,327.29,74.23Z" style="fill:#ebebeb"></path><path d="M404.15,130a3.85,3.85,0,0,1,1.47-2.11,5.2,5.2,0,0,1,3.53-.42,3.76,3.76,0,0,1,2.47,2,5.39,5.39,0,0,1,.87,4.06,4.36,4.36,0,0,1-2.59,3.16,4.46,4.46,0,0,1-4.93-1.45A5.64,5.64,0,0,1,404.15,130Z" style="fill:#e0e0e0"></path><path d="M403.36,130a3.58,3.58,0,0,1,1.35-1.94,4.78,4.78,0,0,1,3.24-.38,3.43,3.43,0,0,1,2.27,1.8,4.91,4.91,0,0,1,.81,3.73,4,4,0,0,1-2.39,2.91,4.11,4.11,0,0,1-4.53-1.33A5.21,5.21,0,0,1,403.36,130Z" style="fill:#ebebeb"></path><path d="M411.32,83.19a3.13,3.13,0,0,1,1.18-1.7,4.18,4.18,0,0,1,2.84-.34,3,3,0,0,1,2,1.58A4.37,4.37,0,0,1,418,86a3.51,3.51,0,0,1-2.09,2.54,3.59,3.59,0,0,1-4-1.17A4.55,4.55,0,0,1,411.32,83.19Z" style="fill:#e0e0e0"></path><path d="M410.68,83.21a2.88,2.88,0,0,1,1.09-1.55,3.82,3.82,0,0,1,2.61-.31,2.75,2.75,0,0,1,1.82,1.45,4,4,0,0,1,.65,3,3.24,3.24,0,0,1-1.92,2.34,3.32,3.32,0,0,1-3.64-1.08A4.19,4.19,0,0,1,410.68,83.21Z" style="fill:#ebebeb"></path><path d="M369.82,59.67a4.15,4.15,0,0,1,1.55-2.22,5.49,5.49,0,0,1,3.72-.44,4,4,0,0,1,2.6,2.07,5.67,5.67,0,0,1,.92,4.28,4.61,4.61,0,0,1-2.74,3.33,4.69,4.69,0,0,1-5.18-1.53A6,6,0,0,1,369.82,59.67Z" style="fill:#e0e0e0"></path><path d="M369,59.71a3.76,3.76,0,0,1,1.42-2,5.05,5.05,0,0,1,3.42-.41,3.67,3.67,0,0,1,2.39,1.9,5.26,5.26,0,0,1,.85,3.94,4.26,4.26,0,0,1-2.52,3.06,4.32,4.32,0,0,1-4.77-1.41A5.46,5.46,0,0,1,369,59.71Z" style="fill:#ebebeb"></path><path d="M385.09,62.4a2,2,0,0,1,.78-1.11,2.72,2.72,0,0,1,1.85-.23,2,2,0,0,1,1.31,1,2.85,2.85,0,0,1,.46,2.14,2.31,2.31,0,0,1-1.37,1.66,2.36,2.36,0,0,1-2.6-.76A3,3,0,0,1,385.09,62.4Z" style="fill:#e0e0e0"></path><path d="M384.67,62.41a1.91,1.91,0,0,1,.71-1,2.51,2.51,0,0,1,1.71-.2,1.82,1.82,0,0,1,1.2,1,2.6,2.6,0,0,1,.42,2,2.12,2.12,0,0,1-1.25,1.53,2.17,2.17,0,0,1-2.39-.7A2.78,2.78,0,0,1,384.67,62.41Z" style="fill:#ebebeb"></path><path d="M289,112.54s0-.43.16-1.26.24-2.07.56-3.67a77.22,77.22,0,0,1,3.83-13.75,79.16,79.16,0,0,1,11-19.67,79,79,0,0,1,22.37-19.7,77.89,77.89,0,0,1,34.44-10.58,79.8,79.8,0,0,1,30.4,4,83.71,83.71,0,0,1,10,4.22,78.43,78.43,0,0,1,32.84,31.47,77.06,77.06,0,0,1,5.09,11c.74,1.9,1.33,3.85,1.94,5.81s1.07,4,1.45,6a78.67,78.67,0,0,1,1,25,84.13,84.13,0,0,1-2.54,12.38,76.18,76.18,0,0,1-4.42,11.67c-.86,1.88-1.86,3.68-2.84,5.48s-2.11,3.51-3.28,5.18a77.21,77.21,0,0,1-7.59,9.42A78.35,78.35,0,0,1,384,198.24a83.6,83.6,0,0,1-10.75,1.69,79.82,79.82,0,0,1-30.47-3.39A77.82,77.82,0,0,1,311.89,178a78.84,78.84,0,0,1-17-24.5,74.91,74.91,0,0,1-4-11.6,78.65,78.65,0,0,1-2-10.14,76.65,76.65,0,0,1-.41-14.26c.07-1.64.27-2.87.33-3.7s.15-1.26.15-1.26,0,.43-.09,1.26-.23,2.07-.29,3.7a79.43,79.43,0,0,0,.52,14.24,75.27,75.27,0,0,0,2,10.1,76.05,76.05,0,0,0,4.06,11.55,79.14,79.14,0,0,0,17,24.35,77.71,77.71,0,0,0,50.56,21.91,78.88,78.88,0,0,0,10.52-.19,83,83,0,0,0,10.69-1.69,77.92,77.92,0,0,0,39.17-22.56,76.15,76.15,0,0,0,7.53-9.36c1.17-1.66,2.2-3.41,3.26-5.15s2-3.58,2.82-5.45a74.64,74.64,0,0,0,4.39-11.58,83.17,83.17,0,0,0,2.52-12.31,77.91,77.91,0,0,0-1-24.84c-.37-2-.92-4-1.43-6s-1.19-3.88-1.93-5.77a75.59,75.59,0,0,0-5.06-10.9,78,78,0,0,0-32.61-31.29,83.3,83.3,0,0,0-10-4.2,79,79,0,0,0-30.22-4,77.69,77.69,0,0,0-34.29,10.46A78.77,78.77,0,0,0,304.8,74.37a75.8,75.8,0,0,0-6.72,10.23,77.36,77.36,0,0,0-4.36,9.33,79,79,0,0,0-3.91,13.7c-.35,1.6-.47,2.84-.62,3.66S289,112.54,289,112.54Z" style="fill:#263238"></path><path d="M165.63,20.32s-.09.23-.29.66l-.36.81a6.54,6.54,0,0,0-.43,1.13,22.82,22.82,0,0,0-1.19,7.94c0,3.51.55,7.77,1,12.75a41.35,41.35,0,0,1-.05,8,17.78,17.78,0,0,1-.34,2.13,14,14,0,0,1-.59,2.15,24.67,24.67,0,0,1-1.76,4.27,30.32,30.32,0,0,1-6.25,7.65,61,61,0,0,1-8.61,6.35c-3.14,2-6.47,3.84-9.86,5.83a94.16,94.16,0,0,0-10.13,6.6,55.06,55.06,0,0,0-16.09,20,56.19,56.19,0,0,0-5.6,27,80.77,80.77,0,0,0,2.22,14c1,4.54,2.2,9,3.06,13.45a54,54,0,0,1,1.15,13.28c0,1.09-.25,2.17-.36,3.24s-.49,2.11-.72,3.16-.71,2-1.11,3-1,1.9-1.47,2.81a33.52,33.52,0,0,1-8.34,8.83c-3.12,2.42-6.34,4.49-9.32,6.66-1.49,1.08-2.92,2.19-4.26,3.35A23.57,23.57,0,0,0,84,207.17c-.59.63-1.26,1.18-1.78,1.86L80.59,211c-.5.67-1,1.37-1.42,2-.23.33-.47.66-.68,1l-.6,1c-.38.7-.81,1.38-1.15,2.08a43.65,43.65,0,0,0-4.43,16.18,41,41,0,0,0,1,12.67,20.43,20.43,0,0,0,.66,2.38,20.19,20.19,0,0,0,.67,2.07c.53,1.24.88,2.34,1.32,3.15l1,1.87c.21.43.31.65.31.65s-.13-.2-.36-.62l-1-1.85c-.46-.81-.83-1.9-1.37-3.14a18.54,18.54,0,0,1-.7-2.07,21.1,21.1,0,0,1-.69-2.39A41.13,41.13,0,0,1,72,233.31,44,44,0,0,1,76.41,217c.34-.71.77-1.39,1.15-2.09l.6-1.07c.22-.34.46-.67.69-1,.47-.68.92-1.38,1.43-2.06l1.62-2c.52-.69,1.2-1.25,1.8-1.9A25.83,25.83,0,0,1,85.63,205c1.34-1.17,2.78-2.29,4.28-3.38,3-2.19,6.19-4.26,9.29-6.67a33.2,33.2,0,0,0,8.21-8.72c.51-.89,1-1.83,1.43-2.75s.72-2,1.09-3,.51-2,.7-3.1.32-2.11.35-3.19a53.22,53.22,0,0,0-1.15-13.16c-.86-4.42-2-8.87-3.06-13.43a80.14,80.14,0,0,1-2.24-14,56.68,56.68,0,0,1,5.66-27.23,55.55,55.55,0,0,1,16.25-20.2,96.65,96.65,0,0,1,10.2-6.62c3.4-2,6.73-3.85,9.86-5.79a61.33,61.33,0,0,0,8.57-6.29A29.9,29.9,0,0,0,161.26,60a24.48,24.48,0,0,0,1.76-4.2,13.21,13.21,0,0,0,.58-2.11,19.38,19.38,0,0,0,.36-2.11,41.52,41.52,0,0,0,.08-7.94c-.39-5-.94-9.25-.88-12.77a22.26,22.26,0,0,1,1.29-8,6.45,6.45,0,0,1,.46-1.13c.15-.32.28-.58.39-.8C165.51,20.54,165.63,20.32,165.63,20.32Z" style="fill:#263238"></path><path d="M456.85,110.73c.46-2.45-2.91-4.64-5.5-5a14.68,14.68,0,0,1-3.7-.51c-2.51-1-3.36-4.36-5.8-5.54-1.82-.87-4-.28-5.85.53s-3.69,1.88-5.71,1.9c-1.76,0-3.63-.72-5.2.06-1.18.58-1.84,1.87-2.94,2.6a6.69,6.69,0,0,1-3.7.8,10.52,10.52,0,0,0-3.8.43,3,3,0,0,0-2,2.93Z" style="fill:#fff"></path><path d="M285.44,58.25c.44-3.17-4-5.78-7.4-6-1.61-.13-3.27.12-4.79-.41-3.3-1.15-4.61-5.41-7.82-6.76-2.41-1-5.17-.11-7.5,1.06s-4.63,2.65-7.23,2.81c-2.27.15-4.72-.69-6.7.41-1.48.83-2.25,2.53-3.61,3.53a8.63,8.63,0,0,1-4.72,1.28,13.23,13.23,0,0,0-4.86.8,3.83,3.83,0,0,0-2.44,3.9Z" style="fill:#fff"></path><path d="M363.94,37.14c.26-1.91-2.43-3.47-4.45-3.64a11.41,11.41,0,0,1-2.87-.24c-2-.69-2.77-3.25-4.7-4.06-1.44-.61-3.1-.07-4.5.64a11.83,11.83,0,0,1-4.34,1.69c-1.36.08-2.83-.42-4,.24-.89.5-1.35,1.52-2.17,2.12a5.21,5.21,0,0,1-2.83.77,8,8,0,0,0-2.92.47,2.32,2.32,0,0,0-1.46,2.35Z" style="fill:#fff"></path><path d="M349.06,177.69c.44-3.17-4-5.78-7.4-6.05-1.61-.13-3.27.12-4.79-.41-3.3-1.15-4.61-5.41-7.82-6.76-2.41-1-5.17-.11-7.5,1.06s-4.63,2.65-7.23,2.81c-2.27.15-4.73-.69-6.71.41-1.47.83-2.24,2.53-3.6,3.53a8.63,8.63,0,0,1-4.72,1.28,13.23,13.23,0,0,0-4.86.8,3.83,3.83,0,0,0-2.44,3.9Z" style="fill:#fff"></path><path d="M185,83.43l3.56.87-3.51,1a.74.74,0,0,0-.49.51l-.86,3.56-1-3.51a.71.71,0,0,0-.5-.49l-3.56-.86,3.51-1a.69.69,0,0,0,.48-.5l.87-3.56,1,3.51A.72.72,0,0,0,185,83.43Z" style="fill:#fff"></path><path d="M138.6,160.26l3.55.87-3.51,1a.72.72,0,0,0-.48.51l-.87,3.56-1-3.51a.69.69,0,0,0-.51-.48l-3.55-.87,3.5-1a.71.71,0,0,0,.49-.5l.86-3.56,1,3.51A.69.69,0,0,0,138.6,160.26Z" style="fill:#fff"></path><path d="M135.09,277.8l3.55.86-3.5,1a.71.71,0,0,0-.49.5l-.86,3.56-1-3.51a.69.69,0,0,0-.51-.48l-3.55-.87,3.51-1a.71.71,0,0,0,.48-.51l.87-3.56,1,3.51A.72.72,0,0,0,135.09,277.8Z" style="fill:#fff"></path><path d="M469.78,198.35l3.55.86-3.5,1a.7.7,0,0,0-.49.51l-.86,3.55-1-3.51a.69.69,0,0,0-.51-.48l-3.55-.87,3.51-1a.71.71,0,0,0,.48-.51l.87-3.55,1,3.5A.72.72,0,0,0,469.78,198.35Z" style="fill:#fff"></path><path d="M467.21,131l3.55.87-3.51,1a.71.71,0,0,0-.48.51l-.87,3.55-1-3.5a.72.72,0,0,0-.51-.49l-3.55-.86,3.5-1a.69.69,0,0,0,.49-.51l.86-3.55,1,3.51A.69.69,0,0,0,467.21,131Z" style="fill:#fff"></path><path d="M416,25.11l3.55.87-3.5,1a.72.72,0,0,0-.49.51l-.86,3.55-1-3.5a.7.7,0,0,0-.51-.49l-3.55-.86,3.51-1a.69.69,0,0,0,.48-.51l.87-3.55,1,3.51A.71.71,0,0,0,416,25.11Z" style="fill:#fff"></path><path d="M211.91,71.42l2,.5-2,.6a.41.41,0,0,0-.28.29l-.5,2-.59-2a.41.41,0,0,0-.3-.27l-2-.5,2-.6a.41.41,0,0,0,.28-.29l.49-2,.6,2A.41.41,0,0,0,211.91,71.42Z" style="fill:#fff"></path><path d="M195.34,67.31l1.27.3-1.25.37a.26.26,0,0,0-.17.18l-.31,1.27-.37-1.25a.24.24,0,0,0-.18-.17l-1.27-.31,1.25-.37a.23.23,0,0,0,.17-.18l.31-1.26.37,1.24A.29.29,0,0,0,195.34,67.31Z" style="fill:#fff"></path><path d="M274.94,115.65l2.05.5-2,.6a.41.41,0,0,0-.28.29l-.5,2-.59-2a.42.42,0,0,0-.3-.28l-2.05-.5,2-.6a.43.43,0,0,0,.28-.29l.49-2.05.6,2A.39.39,0,0,0,274.94,115.65Z" style="fill:#fff"></path><path d="M300.76,34.16l3.47.85-3.43,1a.7.7,0,0,0-.47.49L299.49,40l-1-3.42a.66.66,0,0,0-.5-.47l-3.47-.85,3.43-1a.7.7,0,0,0,.47-.5l.84-3.46,1,3.42A.7.7,0,0,0,300.76,34.16Z" style="fill:#fff"></path><path d="M283.09,31.52,285,32l-1.88.56a.37.37,0,0,0-.26.27l-.47,1.91-.55-1.88a.37.37,0,0,0-.28-.26l-1.9-.47,1.88-.55a.39.39,0,0,0,.26-.28l.46-1.9.56,1.88A.37.37,0,0,0,283.09,31.52Z" style="fill:#fff"></path><path d="M452,147.89l2.05.5-2,.6a.41.41,0,0,0-.28.29l-.5,2.05-.59-2a.41.41,0,0,0-.3-.28l-2.05-.5,2-.6a.41.41,0,0,0,.28-.29l.49-2,.6,2A.39.39,0,0,0,452,147.89Z" style="fill:#fff"></path><path d="M471.23,157.94l1.18.29-1.16.34a.23.23,0,0,0-.16.17l-.29,1.17-.34-1.16a.25.25,0,0,0-.17-.16l-1.17-.28,1.16-.35a.23.23,0,0,0,.16-.16l.28-1.18.34,1.16A.25.25,0,0,0,471.23,157.94Z" style="fill:#fff"></path><path d="M399.9,36.43l1.18.28-1.16.34a.25.25,0,0,0-.16.17l-.29,1.18-.34-1.16a.23.23,0,0,0-.17-.16l-1.17-.29,1.16-.34a.25.25,0,0,0,.16-.17l.28-1.17.34,1.16A.25.25,0,0,0,399.9,36.43Z" style="fill:#fff"></path><path d="M461.69,38.93l2.19.53-2.16.64a.44.44,0,0,0-.3.32l-.54,2.19-.64-2.16a.41.41,0,0,0-.31-.3l-2.2-.54L459.9,39a.43.43,0,0,0,.3-.31l.53-2.2.64,2.17A.46.46,0,0,0,461.69,38.93Z" style="fill:#fff"></path><path d="M288.36,76.32l3.18.78L288.4,78a.61.61,0,0,0-.43.45l-.78,3.18-.92-3.14a.64.64,0,0,0-.46-.43l-3.18-.78,3.14-.92a.64.64,0,0,0,.43-.46l.78-3.18.92,3.14A.63.63,0,0,0,288.36,76.32Z" style="fill:#fff"></path><path d="M340.06,133.94l3.18.78-3.14.93a.61.61,0,0,0-.43.45l-.78,3.18-.92-3.14a.64.64,0,0,0-.46-.43l-3.18-.78,3.14-.92a.63.63,0,0,0,.43-.46l.78-3.18.93,3.14A.6.6,0,0,0,340.06,133.94Z" style="fill:#fff"></path><path d="M313.75,201.77l1.17.29-1.16.34a.23.23,0,0,0-.16.17l-.28,1.17-.35-1.16a.22.22,0,0,0-.17-.16l-1.17-.28,1.16-.35a.22.22,0,0,0,.16-.16l.29-1.18.34,1.16A.23.23,0,0,0,313.75,201.77Z" style="fill:#fff"></path><path d="M325,147.27l1.44.35-1.42.42a.26.26,0,0,0-.19.2l-.35,1.43-.42-1.41a.31.31,0,0,0-.2-.2l-1.44-.34,1.42-.42a.29.29,0,0,0,.19-.21l.35-1.43.42,1.41A.29.29,0,0,0,325,147.27Z" style="fill:#fff"></path><circle cx="204.93" cy="38.74" r="11.41" transform="translate(119.92 229.19) rotate(-76.65)" style="fill:#e0e0e0"></circle><path d="M109.1,292.45l.38,1c.12.35.26.78.44,1.29a12.63,12.63,0,0,0,.68,1.75,31.56,31.56,0,0,0,7.19,10.07,36.91,36.91,0,0,0,3.26,2.77,21.86,21.86,0,0,0,1.89,1.32c.67.42,1.31.91,2,1.3a54.92,54.92,0,0,0,9.74,4.41,68.6,68.6,0,0,0,12,2.76,70,70,0,0,0,13.77.44c9.69-.52,20.14-2.53,31.44-4.13A140.33,140.33,0,0,1,209.54,314a78.31,78.31,0,0,1,18.63,2.1,130.17,130.17,0,0,1,18.74,6.15c6.23,2.52,12.47,5.37,18.85,8.17a185.73,185.73,0,0,0,19.81,7.7A91.13,91.13,0,0,0,307,342.22a56.41,56.41,0,0,0,11-.34l1.36-.17c.44-.07.89-.17,1.33-.25.89-.18,1.78-.33,2.66-.54a47.24,47.24,0,0,0,5.15-1.59,49.89,49.89,0,0,0,4.91-2.14c.78-.43,1.53-.89,2.3-1.33l1.15-.67c.38-.23.73-.5,1.09-.75l2.17-1.52c.7-.52,1.37-1.1,2.05-1.65,1.39-1.07,2.63-2.3,3.93-3.46,5-4.8,9.44-10.07,14-15.05a87.58,87.58,0,0,1,14.46-13.39,45.32,45.32,0,0,1,4.06-2.56,21.19,21.19,0,0,1,2.13-1.07l2.14-1a42.8,42.8,0,0,1,8.93-2.51,70.21,70.21,0,0,1,17.68-.47c5.69.48,11.15,1.29,16.39,2s10.28,1.38,15.12,1.62a62,62,0,0,0,13.76-.59A37.75,37.75,0,0,0,466.29,291a34.62,34.62,0,0,0,8.57-6.33,43.31,43.31,0,0,0,5.6-7,47.42,47.42,0,0,0,3.44-6.32c.88-1.89,1.49-3.55,2-4.89s.79-2.38,1-3.09.32-1.06.32-1.06-.32,1.47-1.21,4.19c-.47,1.34-1.07,3-1.94,4.92a47.8,47.8,0,0,1-3.41,6.36,42,42,0,0,1-5.6,7.08,34.54,34.54,0,0,1-8.61,6.42,37.68,37.68,0,0,1-11.7,3.9,61.39,61.39,0,0,1-13.83.64c-9.72-.46-20.18-2.62-31.53-3.59a69.72,69.72,0,0,0-17.56.49,42.93,42.93,0,0,0-8.83,2.49l-2.12,1a21.73,21.73,0,0,0-2.1,1.06,45.82,45.82,0,0,0-4,2.53,86.93,86.93,0,0,0-14.36,13.34c-4.51,5-8.91,10.25-14,15.08-1.3,1.17-2.55,2.41-3.95,3.49-.69.55-1.36,1.13-2.08,1.66l-2.18,1.54c-.37.25-.72.52-1.1.75l-1.16.68c-.78.45-1.55.92-2.33,1.35a48.75,48.75,0,0,1-5,2.16,46.25,46.25,0,0,1-5.21,1.62c-.88.21-1.79.36-2.68.54-.45.09-.9.19-1.35.26l-1.37.16a56.68,56.68,0,0,1-11.06.35,91,91,0,0,1-21.54-4.12,184,184,0,0,1-19.85-7.72c-6.39-2.81-12.62-5.66-18.84-8.18a128.34,128.34,0,0,0-18.66-6.14,77.31,77.31,0,0,0-18.52-2.11A136.11,136.11,0,0,0,192,315.9c-11.28,1.58-21.76,3.57-31.48,4.07a69.85,69.85,0,0,1-13.84-.48,69.13,69.13,0,0,1-12-2.81,55.62,55.62,0,0,1-9.77-4.48c-.73-.39-1.37-.89-2-1.32a20.49,20.49,0,0,1-1.89-1.33,35.84,35.84,0,0,1-3.27-2.8,31.2,31.2,0,0,1-7.14-10.18,10.91,10.91,0,0,1-.66-1.76c-.17-.52-.31-.95-.43-1.3C109.2,292.81,109.1,292.45,109.1,292.45Z" style="fill:#263238"></path></g><g id="Ship"><path d="M308,128.93c-1.86-.37-85.65-10.57-85.65-10.57s-28.8,43.46-33.83,66.57c0,0,60.93,12.44,96.35,34.18a36.07,36.07,0,0,1,7.92,6.6h0s1.93-26.67,4-52.23A143.38,143.38,0,0,1,308,128.93Z" style="fill:#e0e0e0"></path><path d="M308,128.93l-.09.23c-.07.15-.16.37-.28.66-.25.59-.61,1.46-1.06,2.61-.91,2.31-2.18,5.75-3.56,10.26a153.73,153.73,0,0,0-4.11,16.66c-.32,1.64-.58,3.35-.87,5.11s-.52,3.6-.7,5.49c-.41,3.77-.65,7.78-1,12-.64,8.41-1.34,17.62-2.09,27.5q-.56,7.42-1.16,15.33l0,.49,0,.25v.18c.36-.11-.48.24-.41.17l-.67-.72c-.46-.48-.93-.95-1.42-1.4a33.34,33.34,0,0,0-3.07-2.59,67.89,67.89,0,0,0-7-4.29,225.41,225.41,0,0,0-31.82-14.35c-11.36-4.22-23.35-8-35.76-11.35-8.23-2.23-16.38-4.27-24.4-6l-.25-.05.05-.26a100.46,100.46,0,0,1,6.89-19c2.76-6,5.7-11.73,8.72-17.23,6.07-11,12.24-21.18,18.3-30.43l.08-.12.13,0L284.66,126,302,128.14l4.53.58c1,.13,1.54.21,1.54.21l-1.6-.18-4.59-.54-17.38-2.09-62.1-7.54.21-.1c-6,9.25-12.19,19.43-18.24,30.42-3,5.5-5.94,11.24-8.69,17.21A99.93,99.93,0,0,0,188.81,185l-.2-.3c8,1.7,16.19,3.74,24.43,6,12.42,3.37,24.42,7.14,35.8,11.37a225.09,225.09,0,0,1,31.88,14.41,67.91,67.91,0,0,1,7,4.34,35.59,35.59,0,0,1,3.11,2.62c.49.46,1,.94,1.43,1.42l.68.74c.11,0-.75.23-.38.1v-.19l0-.24,0-.5c.41-5.26.81-10.38,1.19-15.32.77-9.88,1.49-19.09,2.15-27.5.35-4.2.6-8.21,1-12,.19-1.89.49-3.72.72-5.49s.57-3.48.89-5.13a151.72,151.72,0,0,1,4.2-16.66c1.42-4.51,2.72-7.93,3.66-10.23.47-1.15.85-2,1.11-2.6l.3-.65Z" style="fill:#263238"></path><rect x="227.19" y="65.58" width="4.21" height="166.69" rx="1.93" transform="translate(33.11 -41.51) rotate(11.14)" style="fill:#FF725E"></rect><rect x="227.19" y="65.58" width="4.21" height="166.69" rx="1.93" transform="translate(33.11 -41.51) rotate(11.14)" style="opacity:0.30000000000000004"></rect><path d="M169.76,145.87l9.39.71,22.43,1.68,27.27,2.05,23.57,1.77,7.77.58c1.21.09,2.45.27,3.67.28H264c1.6.12,1.59-2.38,0-2.5l-9.4-.71-22.43-1.68L204.93,146l-23.57-1.77-7.77-.58c-1.21-.09-2.45-.27-3.67-.28h-.16c-1.61-.12-1.6,2.38,0,2.5Z" style="fill:#FF725E"></path><path d="M214.08,118.28l9.59,1.08L246.85,122l27.92,3.13,24.16,2.71,8,.9c1.24.13,2.53.41,3.77.42l.17,0c1.59.18,1.58-2.33,0-2.5l-9.6-1.08L278.11,123l-27.92-3.13L226,117.12l-8-.9a36.83,36.83,0,0,0-3.77-.42l-.16,0c-1.6-.18-1.59,2.32,0,2.5Z" style="fill:#FF725E"></path><path d="M198.44,108.31l21,2,33.17,3.19,7.65.73c1.6.15,1.59-2.35,0-2.5l-21-2-33.17-3.19-7.65-.73c-1.6-.15-1.59,2.35,0,2.5Z" style="fill:#FF725E"></path><path d="M222,85.64l36.58,3.51,5.08.49c1.6.16,1.59-2.35,0-2.5l-36.57-3.51L222,83.14c-1.6-.15-1.59,2.35,0,2.5Z" style="fill:#FF725E"></path><polygon points="208.99 151.16 264.91 153.23 265.17 216.81 248.55 208.97 208.99 151.16" style="opacity:0.30000000000000004"></polygon><path d="M140.55,194.34c.66-1.31,8.07-44.2,33-49.3l88.72,6.12s-20.66,48.07-14.79,65.14Z" style="fill:#fff"></path><path d="M140.55,194.34l.53.1,1.54.3,5.93,1.19,22.17,4.48,76.81,15.64-.28.32a23,23,0,0,1-1-6.4,48.68,48.68,0,0,1,.25-6.6,103.78,103.78,0,0,1,2.4-13.35A242.55,242.55,0,0,1,257.34,163c1.5-4,3.05-8,4.69-11.89l.22.36-88.72-6.17h.06a27.38,27.38,0,0,0-6.51,2.34,32.05,32.05,0,0,0-5.43,3.75,44.94,44.94,0,0,0-7.88,9.21,85.24,85.24,0,0,0-8.48,17.64c-1.81,5.09-2.9,9.17-3.62,11.94-.35,1.37-.62,2.43-.8,3.16-.09.34-.17.61-.22.8s-.1.26-.1.26l.07-.27c0-.19.11-.46.19-.81l.74-3.17c.69-2.78,1.74-6.87,3.53-12a84.78,84.78,0,0,1,8.41-17.74,45.55,45.55,0,0,1,7.92-9.31,31.5,31.5,0,0,1,5.49-3.81,27.67,27.67,0,0,1,6.61-2.4h.05l88.73,6.06.36,0-.14.33c-1.63,3.87-3.18,7.84-4.69,11.87a242.77,242.77,0,0,0-8.45,27A101.33,101.33,0,0,0,247,203.42a47.82,47.82,0,0,0-.27,6.53,23,23,0,0,0,1,6.27l.14.4-.42-.08-77-15.93L148.4,196l-5.86-1.23-1.5-.32Z" style="fill:#263238"></path><path d="M202.37,107.56S177.56,121,169.76,141c0,0,46.83-13.24,76.77,4,0,0-4.06-26.78,12.15-32Z" style="fill:#fff"></path><path d="M202.37,107.56h.26l.78.06,3,.26,11.48,1,40.79,3.83,1,.1-1,.35a15.89,15.89,0,0,0-3.77,1.85A15.68,15.68,0,0,0,251.8,118a22,22,0,0,0-4,8,41,41,0,0,0-1.42,9.29,55.88,55.88,0,0,0,.39,9.73l.07.52-.45-.25a62.58,62.58,0,0,0-15-6c-11.23-2.87-22.52-3.22-33-2.57a155.33,155.33,0,0,0-28.67,4.51l-.42.11.17-.39a54.12,54.12,0,0,1,10.75-16.28,86.09,86.09,0,0,1,11.18-10c3.32-2.5,6-4.26,7.94-5.42.94-.58,1.68-1,2.17-1.27s.77-.4.77-.4l-.18.12-.55.34c-.49.29-1.22.73-2.14,1.32-1.87,1.19-4.57,3-7.86,5.5a89,89,0,0,0-11.08,10A54.58,54.58,0,0,0,170,141.08l-.25-.29a154.15,154.15,0,0,1,28.75-4.6c10.46-.66,21.81-.32,33.11,2.56a63.61,63.61,0,0,1,15.1,6.07l-.38.26a56.23,56.23,0,0,1-.39-9.84,41.71,41.71,0,0,1,1.46-9.4,22.59,22.59,0,0,1,4.08-8.17,16.05,16.05,0,0,1,3.29-3,16.53,16.53,0,0,1,3.89-1.91l.05.45-40.72-4L206.46,108l-3-.32-.78-.09Z" style="fill:#263238"></path><path d="M246.53,145a3.6,3.6,0,0,1-.78,0l-2.24-.06-8.22-.32c-6.95-.31-16.54-.83-27.12-1.46l-27.12-1.61-8.21-.49-2.23-.16a7,7,0,0,1-.78-.08,3.6,3.6,0,0,1,.78,0l2.24.06,8.22.32c7,.31,16.54.83,27.13,1.46l27.11,1.61,8.21.49,2.24.15A3.87,3.87,0,0,1,246.53,145Z" style="fill:#263238"></path><path d="M256.36,109.13a1.8,1.8,0,0,1-.55,0l-1.56-.05-5.73-.28c-4.84-.28-11.52-.72-18.89-1.37s-14-1.44-18.82-2.16c-2.4-.35-4.33-.67-5.66-.92l-1.53-.3a3.1,3.1,0,0,1-.53-.14,1.84,1.84,0,0,1,.54,0l1.55.21c1.34.19,3.28.46,5.68.76,4.81.62,11.46,1.34,18.82,2s14,1.15,18.87,1.52l5.72.45,1.55.15A2.29,2.29,0,0,1,256.36,109.13Z" style="fill:#263238"></path><path d="M224.24,84.3s-16.6,10-21.15,19.63c0,0,33.09-4.87,53.27,5.2,0,0-8.79-14.3,5.34-20.91Z" style="fill:#fff"></path><path d="M224.24,84.3h.17l.51,0,2,.17,7.64.74L261.72,88l.82.09-.74.35a15.8,15.8,0,0,0-4.69,3.23,10.88,10.88,0,0,0-2.87,5.13c-.92,4,.22,8.42,2.34,12.21l.38.67-.71-.31-2.32-1a21.67,21.67,0,0,0-2.39-1,51.93,51.93,0,0,0-5-1.56A96.89,96.89,0,0,0,223.24,103a146,146,0,0,0-20.12,1.11l-.4.05.18-.34a33.75,33.75,0,0,1,7.57-9.4,77.32,77.32,0,0,1,7.15-5.8c2-1.49,3.71-2.58,4.85-3.29.57-.36,1-.63,1.31-.8a2.43,2.43,0,0,1,.46-.25,3.82,3.82,0,0,1-.43.3l-1.28.85c-1.11.75-2.75,1.86-4.78,3.38a84.25,84.25,0,0,0-7.05,5.85,33.69,33.69,0,0,0-7.42,9.34l-.22-.3a143.12,143.12,0,0,1,20.19-1.19,96.52,96.52,0,0,1,23.37,2.79,53,53,0,0,1,5.1,1.58,22,22,0,0,1,2.41,1l2.35,1-.34.37a21.54,21.54,0,0,1-2.36-6.19,14.7,14.7,0,0,1,0-6.4,11.33,11.33,0,0,1,3-5.36A16.51,16.51,0,0,1,261.6,88l.08.44L234.6,85.52,227,84.65l-2-.24-.52-.07C224.3,84.32,224.24,84.31,224.24,84.3Z" style="fill:#263238"></path><path d="M260.71,87.8a8.16,8.16,0,0,1-1.36.7A36.2,36.2,0,0,1,255.46,90a39.72,39.72,0,0,1-13.58,1.66,35.53,35.53,0,0,1-13.31-3.17,9.1,9.1,0,0,1-3.23-2.63,6,6,0,0,1-.57-1c-.09-.24-.14-.37-.12-.38s.25.49.85,1.25a9.54,9.54,0,0,0,3.24,2.42,37.7,37.7,0,0,0,13.17,3,42.58,42.58,0,0,0,13.45-1.49c1.67-.49,3-1,3.92-1.3A8.32,8.32,0,0,1,260.71,87.8Z" style="fill:#263238"></path><path d="M244.57,161.92a.8.8,0,0,1-.22.07l-.66.12-2.55.45-9.39,1.58c-7.92,1.34-18.85,3.26-30.89,5.56s-22.92,4.56-30.78,6.24l-9.3,2-2.54.53-.66.12a.67.67,0,0,1-.23,0,.61.61,0,0,1,.22-.08l.65-.17,2.51-.63c2.18-.53,5.35-1.27,9.27-2.15,7.84-1.77,18.71-4.08,30.76-6.39s23-4.16,30.93-5.41c4-.63,7.19-1.11,9.42-1.42l2.56-.35.67-.08Z" style="fill:#263238"></path><path d="M228.1,174.84a1.94,1.94,0,0,1-.52.1l-1.53.19-5.6.64c-4.73.54-11.25,1.35-18.43,2.42s-13.66,2.22-18.34,3.09l-5.55,1-1.51.27a3.4,3.4,0,0,1-.53.06,1.81,1.81,0,0,1,.51-.17l1.49-.36c1.3-.3,3.18-.72,5.52-1.19,4.66-1,11.14-2.16,18.33-3.24s13.73-1.83,18.47-2.28c2.37-.23,4.3-.38,5.63-.47l1.53-.09A1.78,1.78,0,0,1,228.1,174.84Z" style="fill:#263238"></path><path d="M227.69,126.4a5.07,5.07,0,0,1-1.2,0c-.76,0-1.87-.1-3.24-.13a61.91,61.91,0,0,0-21,3.16c-1.29.43-2.34.8-3.06,1.07a5.42,5.42,0,0,1-1.13.37,4.92,4.92,0,0,1,1.06-.55c.69-.33,1.72-.76,3-1.24a53.92,53.92,0,0,1,21.16-3.18c1.38.08,2.49.18,3.25.29A6.14,6.14,0,0,1,227.69,126.4Z" style="fill:#263238"></path><path d="M271.94,193.37a2.73,2.73,0,0,1,.11-.63c.11-.47.25-1.06.42-1.8.37-1.56,1-3.79,1.79-6.54a166.44,166.44,0,0,1,18.44-40.66c1.53-2.42,2.81-4.35,3.74-5.65l1.08-1.5a3.08,3.08,0,0,1,.4-.51,3.76,3.76,0,0,1-.32.57l-1,1.55c-.88,1.34-2.11,3.29-3.59,5.74a184.5,184.5,0,0,0-18.4,40.57c-.86,2.72-1.52,4.94-1.95,6.48-.21.73-.38,1.32-.52,1.77A2.48,2.48,0,0,1,271.94,193.37Z" style="fill:#263238"></path><path d="M270.13,175.23c-.13-.06,1.79-4.78,4.28-10.56s4.63-10.41,4.76-10.35-1.78,4.78-4.28,10.56S270.27,175.29,270.13,175.23Z" style="fill:#263238"></path><path d="M246.53,115.86c0,.14-9.27,1.66-20.76,3.39s-20.82,3-20.84,2.88,9.27-1.66,20.76-3.39S246.51,115.71,246.53,115.86Z" style="fill:#263238"></path><path d="M242.07,71.57c4.67.12,8.45.44,12.39,2.69,2,1.12,3.89,3.43,6.14,4,2,.51,4.17.09,6.27.2a11.56,11.56,0,0,1,8.38,4.15s-4.88-2.56-9.86-.31-7,4.82-12.55,1.87c-3.53-1.87-10.68-2.59-13-.71Z" style="fill:#FF725E"></path><path d="M242.07,71.57l0,.22c0,.15-.06.36-.11.62l-.42,2.38c-.38,2.06-.93,5-1.6,8.7l-.14-.08a6,6,0,0,1,2.88-1,16.6,16.6,0,0,1,3.32-.07,21.05,21.05,0,0,1,3.52.55,15.16,15.16,0,0,1,3.57,1.29,10,10,0,0,0,3.73,1.19,7.61,7.61,0,0,0,3.95-.85c1.27-.6,2.52-1.33,3.84-2a14.3,14.3,0,0,1,2.06-.83l.55-.15.55-.11a8.6,8.6,0,0,1,1.12-.15,12.83,12.83,0,0,1,6.44,1.21l-.15.18A11,11,0,0,0,269,78.9a12.68,12.68,0,0,0-3.45-.34c-1.13,0-2.25.12-3.35,0a8.57,8.57,0,0,1-1.61-.24,6.06,6.06,0,0,1-1.46-.6A18,18,0,0,1,256.71,76a14.69,14.69,0,0,0-4.48-2.76,20,20,0,0,0-4.16-1.16,30.08,30.08,0,0,0-3.24-.37c-.89-.06-1.58-.09-2-.11l-.53,0-.19,0h.71l2.06.07a29.54,29.54,0,0,1,3.25.34,19.69,19.69,0,0,1,4.2,1.14,20.19,20.19,0,0,1,2.3,1.12,19.36,19.36,0,0,1,2.24,1.64,17.93,17.93,0,0,0,2.41,1.71,5.44,5.44,0,0,0,1.41.58,8.26,8.26,0,0,0,1.57.23c1.08.06,2.19,0,3.34-.05a12.78,12.78,0,0,1,3.51.33,11.3,11.3,0,0,1,6.27,3.87l.3.39-.45-.21a12.73,12.73,0,0,0-6.31-1.19c-.37,0-.74.07-1.1.15l-.54.11-.53.15a12.21,12.21,0,0,0-2,.82c-1.32.62-2.56,1.35-3.85,2a7.79,7.79,0,0,1-4.07.86A10,10,0,0,1,253,84.36a15.14,15.14,0,0,0-3.51-1.28,22.13,22.13,0,0,0-3.49-.55,16.34,16.34,0,0,0-3.29,0,5.92,5.92,0,0,0-2.79,1l-.18.13,0-.21,1.7-8.73c.2-1,.35-1.8.46-2.35,0-.26.1-.46.13-.61A1.81,1.81,0,0,1,242.07,71.57Z" style="fill:#263238"></path><path d="M263.87,80.15s-.54.14-1.33.55a12.58,12.58,0,0,0-1.34.81c-.5.34-1,.72-1.62,1.08a7.25,7.25,0,0,1-1.79.81,4.37,4.37,0,0,1-1.61.12,2.76,2.76,0,0,1-1-.33c-.22-.13-.33-.23-.32-.24a3.93,3.93,0,0,0,1.37.4,4.27,4.27,0,0,0,1.53-.17,7.29,7.29,0,0,0,1.72-.79c.59-.36,1.12-.74,1.62-1.06a13.09,13.09,0,0,1,1.39-.78,4.93,4.93,0,0,1,1-.35A1.05,1.05,0,0,1,263.87,80.15Z" style="fill:#263238"></path><g style="opacity:0.30000000000000004"><path d="M254.76,83.38c-1.52-1-2.6-2-4.11-3A4.23,4.23,0,0,1,249,78.74a2.19,2.19,0,0,1,.67-2.62,3.07,3.07,0,0,1,3.37.16,16.18,16.18,0,0,1,2.61,2.43,4.84,4.84,0,0,0,3.09,1.65,7,7,0,0,0,2.71-.74,3.94,3.94,0,0,1,2.75-.28c.23.09.72.26.76.5s-.27.23-.62.24a3.44,3.44,0,0,0-.78.13,7.31,7.31,0,0,0-2.5,1.27,14.22,14.22,0,0,1-3,1.79,4.78,4.78,0,0,1-3.29.11"></path></g><path d="M107.48,194.34c-.84,26.62,20.79,56.19,44.2,68.91,4.95,2.69,10.44,5,13.7,9.58s2.27,10-3,12l85.45,17.62,49.92-46.7,5.64-22.49-34.87-6.65-7.43,8.86-57.2-10.83-3.36-12.14Z" style="fill:#FF725E"></path><path d="M256.65,294.16c0,.14-18.57-3.39-41.4-7.89s-41.34-8.26-41.31-8.4,18.56,3.39,41.41,7.89S256.68,294,256.65,294.16Z" style="fill:#263238"></path><path d="M112.88,195.21a1.4,1.4,0,0,1,0,.3q0,.35.09.9c.07.79.17,1.94.35,3.43a77,77,0,0,0,2.48,12.43c3,10.21,10.79,23.41,23,34.29a102.91,102.91,0,0,0,18.75,13.29,59.17,59.17,0,0,1,8.51,5.44,33.2,33.2,0,0,1,6.19,6.26,10.08,10.08,0,0,1,1.56,3.54,9.82,9.82,0,0,1,.07,3.45,10.66,10.66,0,0,1-2.12,5,8.38,8.38,0,0,1-2.66,2.22,4.69,4.69,0,0,1-1.12.45s.39-.15,1.07-.54a8.76,8.76,0,0,0,2.55-2.25,10.72,10.72,0,0,0,2-5,9.47,9.47,0,0,0-.11-3.34,9.83,9.83,0,0,0-1.53-3.4,33.13,33.13,0,0,0-6.16-6.14,60.87,60.87,0,0,0-8.47-5.35A101.64,101.64,0,0,1,138.51,247c-12.3-10.95-20-24.26-23-34.58a71.89,71.89,0,0,1-2.33-12.51c-.15-1.49-.22-2.65-.26-3.44,0-.38,0-.67,0-.9A1.43,1.43,0,0,1,112.88,195.21Z" style="fill:#263238"></path><path d="M265.63,285.2c0,.14-22.56-4.18-50.32-9.65s-50.26-10-50.23-10.16,22.55,4.18,50.33,9.65S265.66,285.05,265.63,285.2Z" style="fill:#263238"></path><path d="M275.78,277.08c0,.14-29.68-5.58-66.23-12.78S143.38,251.15,143.4,251s29.68,5.58,66.25,12.78S275.81,276.94,275.78,277.08Z" style="fill:#263238"></path><path d="M284.5,268.1c0,.14-34.79-6.59-77.63-15s-77.57-15.4-77.54-15.54,34.78,6.58,77.64,15S284.53,268,284.5,268.1Z" style="fill:#263238"></path><path d="M294,259.26c0,.14-38.71-7.36-86.39-16.75s-86.33-17.12-86.3-17.26,38.7,7.36,86.4,16.75S294,259.12,294,259.26Z" style="fill:#263238"></path><path d="M299.27,249.61c0,.14-41.23-7.85-92-17.85s-91.94-18.23-91.91-18.37,41.22,7.85,92,17.86S299.3,249.47,299.27,249.61Z" style="fill:#263238"></path><path d="M202.57,219.87l-.24,0-.68-.11-2.61-.46-9.57-1.8-31.56-6.14-31.53-6.29-9.54-2-2.59-.56-.67-.16c-.15,0-.23-.06-.22-.07a.8.8,0,0,1,.23,0l.68.11,2.61.46,9.58,1.8L158,210.83l31.53,6.29,9.54,2,2.59.56.67.16Z" style="fill:#263238"></path><path d="M302.37,239c0,.14-8.75-1.46-19.49-3.58s-19.41-3.94-19.39-4.08,8.76,1.46,19.49,3.57S302.4,238.84,302.37,239Z" style="fill:#263238"></path><path d="M147.66,219.39a24.47,24.47,0,0,1,.71-4.95,23.92,23.92,0,0,1,1.22-4.84,24.42,24.42,0,0,1-.71,4.94A24.39,24.39,0,0,1,147.66,219.39Z" style="fill:#263238"></path><path d="M186.62,237.8a24.42,24.42,0,0,1,.71-4.94,24.15,24.15,0,0,1,1.22-4.85,24.47,24.47,0,0,1-.71,5A23.92,23.92,0,0,1,186.62,237.8Z" style="fill:#263238"></path><path d="M276.15,255.63a25.1,25.1,0,0,1,.74-5.13,24.7,24.7,0,0,1,1.26-5,26.58,26.58,0,0,1-.75,5.13A26.46,26.46,0,0,1,276.15,255.63Z" style="fill:#263238"></path><path d="M228.24,258.28a31.56,31.56,0,0,1,.86-5.69,31.87,31.87,0,0,1,1.36-5.58,32,32,0,0,1-.85,5.68A32.66,32.66,0,0,1,228.24,258.28Z" style="fill:#263238"></path><path d="M152.12,241.56a44.46,44.46,0,0,1,1.85-9.42,44.46,44.46,0,0,1-1.85,9.42Z" style="fill:#263238"></path><path d="M188.68,259.5a21.74,21.74,0,0,1,.67-4.76,22.37,22.37,0,0,1,1.18-4.66,44.46,44.46,0,0,1-1.85,9.42Z" style="fill:#263238"></path><path d="M257.19,273a19.8,19.8,0,0,1,.61-4.48,20.24,20.24,0,0,1,1.13-4.38,19.74,19.74,0,0,1-.61,4.48A20.24,20.24,0,0,1,257.19,273Z" style="fill:#263238"></path><path d="M223.64,276.75a43.61,43.61,0,0,1,1.82-9.24,21.57,21.57,0,0,1-.65,4.67A20.77,20.77,0,0,1,223.64,276.75Z" style="fill:#263238"></path><path d="M164.81,264.77a22.52,22.52,0,0,1,.67-4.75,22.15,22.15,0,0,1,1.18-4.66,21.88,21.88,0,0,1-.67,4.76A22.16,22.16,0,0,1,164.81,264.77Z" style="fill:#263238"></path><path d="M263.53,284.6a24.42,24.42,0,0,1,.71-4.94,23.92,23.92,0,0,1,1.22-4.84,24.5,24.5,0,0,1-.71,4.94A23.92,23.92,0,0,1,263.53,284.6Z" style="fill:#263238"></path><path d="M198.12,282.65a24.64,24.64,0,0,1,.73-5,25.13,25.13,0,0,1,1.23-4.94,25.06,25.06,0,0,1-.72,5A25.56,25.56,0,0,1,198.12,282.65Z" style="fill:#263238"></path><path d="M239.07,299.73a16.71,16.71,0,0,1,.54-4.11,16.51,16.51,0,0,1,1.06-4,17,17,0,0,1-.55,4.11A16.61,16.61,0,0,1,239.07,299.73Z" style="fill:#263238"></path><path d="M236.28,231.09a8.88,8.88,0,0,1-.32,3,9.36,9.36,0,0,1-.84,2.91,8.79,8.79,0,0,1,.33-3A9,9,0,0,1,236.28,231.09Z" style="fill:#263238"></path><path d="M195.21,255.57a6.5,6.5,0,1,1-5.12-7.64A6.5,6.5,0,0,1,195.21,255.57Z" style="fill:#263238"></path><circle cx="214.81" cy="259.43" r="6.5" transform="translate(-120.8 287.99) rotate(-55.24)" style="fill:#263238"></circle><path d="M247.17,265.81a6.5,6.5,0,1,1-5.12-7.64A6.5,6.5,0,0,1,247.17,265.81Z" style="fill:#263238"></path><path d="M105.49,196.3l9.41,1.85,22.47,4.43L164.68,208l23.51,4.64,7.8,1.53a36.1,36.1,0,0,0,3.7.73l.17,0-1.75-1.74,3.36,12.14a2.46,2.46,0,0,0,1.75,1.74l19.31,3.66,30.8,5.83,7.08,1.34a2.55,2.55,0,0,0,2.44-.65l7.43-8.85-2.43.64,30.52,5.83,4.34.82a2.5,2.5,0,1,0,1.33-4.82L273.52,225l-4.34-.83a2.52,2.52,0,0,0-2.44.64l-7.43,8.86,2.43-.65-19.31-3.65-30.79-5.83-7.09-1.34,1.74,1.75-3.36-12.14a2.49,2.49,0,0,0-1.75-1.75l-9.41-1.85-22.47-4.43L142,198.4l-23.52-4.63c-3.83-.75-7.65-1.58-11.5-2.26l-.16,0a2.5,2.5,0,1,0-1.33,4.82Z" style="fill:#FF725E"></path><path d="M465.5,248.52c4.55-11.52,3.26-37-21.06-47.4-22.87-9.79-42.51,3.32-49.77,18.75-8.61-13.31-38.55-22.23-63.84-14.4-20.35,6.3-33.48,26.2-34.78,47.46-12.41-8.19-26.91-13.66-40.89-8.61-11.34,4.1-22,13.07-22.21,27.93-12.48-7.55-27.14-6.07-40.9-1.23s-24.58,34.64-29.58,48.34l7.16-.41c16-1.94,31.92-5.91,47.94-4.38,20.19,1.94,38.38,12.37,57.18,20s40.87,12.24,58.83,2.84c19.34-10.12,29.06-34.07,49.24-42.39,26.69-11,60.11,10,85-4.65,10.05-5.92,16.41-16.78,19.38-28.06.78-2.93,1.08-8.27,1.5-11.26C483.47,244.11,472.9,243.6,465.5,248.52Z" style="fill:#fff"></path><path d="M176.22,293.05A18.78,18.78,0,0,0,159,288.59a23,23,0,0,0-14.28,11.07c-3.08,5.38-4,12.3-3.39,18.46,0,0,18.16,3.85,34.26-.46L183.46,300Z" style="fill:#fff"></path><g style="opacity:0.1"><path d="M452.77,240.68A26.64,26.64,0,0,0,420.43,259,22.08,22.08,0,0,0,400,260.29l8.58,11.19,25.37.48,10.23-7.58Z"></path></g><path d="M474.72,266.67c-1.39-30.62-30.38-27.68-37.53-23.39a27.06,27.06,0,0,0-12.8,20.41,34.32,34.32,0,0,0-27-2.76s-13,4.18-14.53,17.62" style="fill:#fff"></path><path d="M382.86,278.55a2.49,2.49,0,0,1,0-.26l.11-.75c.06-.34.12-.75.2-1.22s.27-1,.44-1.65a12,12,0,0,1,.73-2,16.78,16.78,0,0,1,1.14-2.29,21.89,21.89,0,0,1,4-4.83,25,25,0,0,1,6.39-4.21,11.84,11.84,0,0,1,2-.75c.68-.21,1.38-.41,2.11-.57a30.81,30.81,0,0,1,4.53-.74,34.55,34.55,0,0,1,20,4.18l-.38.2a27.09,27.09,0,0,1,4.47-12.46,25.5,25.5,0,0,1,9.76-8.79,29.52,29.52,0,0,1,12.09-2,28.39,28.39,0,0,1,10.83,2.45,23.93,23.93,0,0,1,4.31,2.63,21.06,21.06,0,0,1,3.32,3.28,23.44,23.44,0,0,1,3.89,7c.44,1.09.67,2.17,1,3.13s.4,1.89.53,2.7.2,1.55.28,2.18.08,1.18.11,1.61,0,.74,0,1a1.37,1.37,0,0,1,0,.33,2.13,2.13,0,0,1-.05-.33c0-.25-.06-.57-.1-1s-.08-1-.15-1.6-.21-1.35-.33-2.16-.36-1.7-.57-2.68-.54-2-1-3.09a23.33,23.33,0,0,0-3.89-6.83,21.62,21.62,0,0,0-3.28-3.19,24.18,24.18,0,0,0-4.26-2.56,27.81,27.81,0,0,0-10.65-2.36,29,29,0,0,0-11.87,2,24.9,24.9,0,0,0-9.53,8.61,26.58,26.58,0,0,0-4.4,12.22l0,.39-.34-.19a34.23,34.23,0,0,0-19.73-4.19,32.85,32.85,0,0,0-4.47.71c-.72.15-1.42.34-2.1.55a11.53,11.53,0,0,0-1.94.72,25.21,25.21,0,0,0-6.33,4.09,21.87,21.87,0,0,0-4,4.73,17.19,17.19,0,0,0-1.16,2.24,11.45,11.45,0,0,0-.76,2c-.18.61-.38,1.14-.48,1.62s-.17.87-.24,1.21l-.15.74A1,1,0,0,1,382.86,278.55Z" style="fill:#263238"></path><path d="M109.1,292.45l.38,1c.12.35.26.78.44,1.29a12.63,12.63,0,0,0,.68,1.75,31.56,31.56,0,0,0,7.19,10.07,36.91,36.91,0,0,0,3.26,2.77,21.86,21.86,0,0,0,1.89,1.32c.67.42,1.31.91,2,1.3a54.92,54.92,0,0,0,9.74,4.41,68.6,68.6,0,0,0,12,2.76,70,70,0,0,0,13.77.44c9.69-.52,20.14-2.53,31.44-4.13A140.33,140.33,0,0,1,209.54,314a78.31,78.31,0,0,1,18.63,2.1,130.17,130.17,0,0,1,18.74,6.15c6.23,2.52,12.47,5.37,18.85,8.17a185.73,185.73,0,0,0,19.81,7.7A91.13,91.13,0,0,0,307,342.22a56.41,56.41,0,0,0,11-.34l1.36-.17c.44-.07.89-.17,1.33-.25.89-.18,1.78-.33,2.66-.54a47.24,47.24,0,0,0,5.15-1.59,49.89,49.89,0,0,0,4.91-2.14c.78-.43,1.53-.89,2.3-1.33l1.15-.67c.38-.23.73-.5,1.09-.75l2.17-1.52c.7-.52,1.37-1.1,2.05-1.65,1.39-1.07,2.63-2.3,3.93-3.46,5-4.8,9.44-10.07,14-15.05a87.58,87.58,0,0,1,14.46-13.39,45.32,45.32,0,0,1,4.06-2.56,21.19,21.19,0,0,1,2.13-1.07l2.14-1a42.8,42.8,0,0,1,8.93-2.51,70.21,70.21,0,0,1,17.68-.47c5.69.48,11.15,1.29,16.39,2s10.28,1.38,15.12,1.62a62,62,0,0,0,13.76-.59A37.75,37.75,0,0,0,466.29,291a34.62,34.62,0,0,0,8.57-6.33,43.31,43.31,0,0,0,5.6-7,47.42,47.42,0,0,0,3.44-6.32c.88-1.89,1.49-3.55,2-4.89s.79-2.38,1-3.09.32-1.06.32-1.06-.32,1.47-1.21,4.19c-.47,1.34-1.07,3-1.94,4.92a47.8,47.8,0,0,1-3.41,6.36,42,42,0,0,1-5.6,7.08,34.54,34.54,0,0,1-8.61,6.42,37.68,37.68,0,0,1-11.7,3.9,61.39,61.39,0,0,1-13.83.64c-9.72-.46-20.18-2.62-31.53-3.59a69.72,69.72,0,0,0-17.56.49,42.93,42.93,0,0,0-8.83,2.49l-2.12,1a21.73,21.73,0,0,0-2.1,1.06,45.82,45.82,0,0,0-4,2.53,86.93,86.93,0,0,0-14.36,13.34c-4.51,5-8.91,10.25-14,15.08-1.3,1.17-2.55,2.41-3.95,3.49-.69.55-1.36,1.13-2.08,1.66l-2.18,1.54c-.37.25-.72.52-1.1.75l-1.16.68c-.78.45-1.55.92-2.33,1.35a48.75,48.75,0,0,1-5,2.16,46.25,46.25,0,0,1-5.21,1.62c-.88.21-1.79.36-2.68.54-.45.09-.9.19-1.35.26l-1.37.16a56.68,56.68,0,0,1-11.06.35,91,91,0,0,1-21.54-4.12,184,184,0,0,1-19.85-7.72c-6.39-2.81-12.62-5.66-18.84-8.18a128.34,128.34,0,0,0-18.66-6.14,77.31,77.31,0,0,0-18.52-2.11A136.11,136.11,0,0,0,192,315.9c-11.28,1.58-21.76,3.57-31.48,4.07a69.85,69.85,0,0,1-13.84-.48,69.13,69.13,0,0,1-12-2.81,55.62,55.62,0,0,1-9.77-4.48c-.73-.39-1.37-.89-2-1.32a20.49,20.49,0,0,1-1.89-1.33,35.84,35.84,0,0,1-3.27-2.8,31.2,31.2,0,0,1-7.14-10.18,10.91,10.91,0,0,1-.66-1.76c-.17-.52-.31-.95-.43-1.3C109.2,292.81,109.1,292.45,109.1,292.45Z" style="fill:#263238"></path></g><g id="Fish"><path d="M414.12,239.29a5.3,5.3,0,0,1,1.21-4.8,1.47,1.47,0,0,1,.95-.57c.17,0,.34,0,.52,0a2.14,2.14,0,0,0,1-.44,1.55,1.55,0,0,1,.94-.28.65.65,0,0,1,.59.67,1,1,0,0,1-.32.47l-5,5" style="fill:#FF725E"></path><g style="opacity:0.30000000000000004"><path d="M414.26,238.79c-.29.54.63-3,2.76-4.24.61-.36,1.33-.8,2-.48C419,234.07,415.48,236.56,414.26,238.79Z"></path></g><path d="M420.68,233.09a12.26,12.26,0,0,1,1-2.9,4,4,0,0,1,2.24-2,1.33,1.33,0,0,1,1.12.08,2.31,2.31,0,0,0,.39.31c.3.15.67,0,1,.1a.88.88,0,0,1,.34,1.26,2.45,2.45,0,0,1-1.18.89l-4.86,2.36" style="fill:#FF725E"></path><path d="M428.25,235.43a2.62,2.62,0,0,0,1.13-.83,3.8,3.8,0,0,1,1.06-.94,1.11,1.11,0,0,1,1.31.15c.41.45.18,1.17-.12,1.7a8,8,0,0,1-4.82,3.69Z" style="fill:#FF725E"></path><path d="M413,242.93c-.19-2.06.83-5,6.08-8.84a25.75,25.75,0,0,1,10-4.65,36.6,36.6,0,0,0,5.45-1.24c4.32-1.17,6.87,1.64,5.49,3.42-.53.7-4.23-1.17-4.23-1.17,2.06,1.37,1.6,4,.95,5.05s-1.79.83-3,.14-1.44-3.56-1.44-3.56-.66-.36-2.44.67-2,5.8-2.9,6.9-4.68,5.36-8.57,6.78S413.2,245,413,242.93Z" style="fill:#fff"></path><path d="M420.14,233.35a28.53,28.53,0,0,1,5.34-2.81s1.13.28,1.45.81.65,1.07.65,1.07c.9-.21,1.78.75,1.78.75h0c-1.14,1.31-1.5,4.36-2.08,5.86C424.88,234,420.63,233.4,420.14,233.35Z" style="fill:#FF725E"></path><path d="M414.45,238.52h0a17.58,17.58,0,0,1,1.5-1.77l.2-.19.08-.08c.43-.42.92-.86,1.47-1.31l0,0,.12-.09c.81.42,1,1.2,1.36,2.05a5.23,5.23,0,0,0,1.39,2.34,4.38,4.38,0,0,0,1.64.67q1.11.28,2.25.48c.42.08.92.22,1.09.6a29.14,29.14,0,0,1-3.87,3.41s-1.21-3.26-2.61-4.05A8.24,8.24,0,0,0,414.45,238.52Z" style="fill:#FF725E"></path><path d="M413,242.93a5.1,5.1,0,0,1,.2-2s2.82-.59,4.33,1.13a13.46,13.46,0,0,1,2.25,3.7,12.45,12.45,0,0,1-1.41.63C414.49,247.84,413.2,245,413,242.93Z" style="fill:#FF725E"></path><path d="M431.92,232a17.18,17.18,0,0,0-.38-3.05c.77-.18,1.76-.43,3-.77,4.32-1.17,6.87,1.64,5.49,3.42-.53.7-4.23-1.17-4.23-1.17,2.06,1.37,1.6,4,.95,5.05s-1.79.83-3,.14-1.44-3.56-1.44-3.56A.84.84,0,0,0,431.92,232Z" style="fill:#FF725E"></path><path d="M421.28,232.68a4.86,4.86,0,0,0,.51-.51,15.06,15.06,0,0,1,1.29-1.16,12.91,12.91,0,0,1,1.42-1,7.18,7.18,0,0,0,.61-.39,2.68,2.68,0,0,0-.66.3,10.61,10.61,0,0,0-1.46,1,10.91,10.91,0,0,0-1.27,1.2A3.54,3.54,0,0,0,421.28,232.68Z" style="fill:#263238"></path><path d="M414.43,244.06a.84.84,0,1,0,.28-1.16A.85.85,0,0,0,414.43,244.06Z" style="fill:#fff"></path><path d="M414.64,243.93a.57.57,0,1,0,.19-.78A.56.56,0,0,0,414.64,243.93Z" style="fill:#263238"></path><path d="M414.75,246.41a8.65,8.65,0,0,0,1.18-1.14A9.49,9.49,0,0,0,417,244a10,10,0,0,0-1.18,1.15A9.64,9.64,0,0,0,414.75,246.41Z" style="fill:#263238"></path><path d="M417.37,244.45a.37.37,0,0,0,.1-.18.54.54,0,0,0,0-.23.41.41,0,0,0-.12-.28.5.5,0,0,0-.27-.14.68.68,0,0,0-.23,0c-.12,0-.18.09-.18.11s.08,0,.2,0a.61.61,0,0,1,.19,0,.41.41,0,0,1,.19.11.44.44,0,0,1,.09.39C417.36,244.36,417.35,244.44,417.37,244.45Z" style="fill:#263238"></path><path d="M413.63,239.88l.12-.19c.07-.12.17-.31.32-.54a14,14,0,0,1,1.39-1.84A20.14,20.14,0,0,1,418,235a31.57,31.57,0,0,1,3.49-2.33,33.27,33.27,0,0,1,3.75-1.91,25,25,0,0,1,3.23-1.14,22,22,0,0,1,2.26-.5l.62-.09.22,0-.22,0-.63.06a18.55,18.55,0,0,0-2.28.46,23.8,23.8,0,0,0-3.26,1.11,33.37,33.37,0,0,0-3.76,1.91,29.58,29.58,0,0,0-3.5,2.35,18.68,18.68,0,0,0-2.5,2.36,12.66,12.66,0,0,0-1.37,1.88c-.14.24-.23.43-.3.56Z" style="fill:#263238"></path><path d="M425.59,241.18a.44.44,0,0,0-.06-.1,1.33,1.33,0,0,0-.21-.22,2.1,2.1,0,0,0-1.06-.44l-.77-.11c-.28,0-.57-.1-.88-.17a5.4,5.4,0,0,1-1.89-.73,3.49,3.49,0,0,1-1.18-1.61c-.24-.58-.43-1.12-.64-1.56a3.22,3.22,0,0,0-.64-.94,1,1,0,0,0-.23-.21s-.08-.07-.09-.06a3.77,3.77,0,0,1,.87,1.26c.2.43.37,1,.61,1.56a3.58,3.58,0,0,0,1.22,1.68,5.61,5.61,0,0,0,1.94.74c.31.06.61.12.89.15l.78.1a2.22,2.22,0,0,1,1,.38A3.55,3.55,0,0,1,425.59,241.18Z" style="fill:#263238"></path><path d="M414.48,238.5l.39.07a7.1,7.1,0,0,1,1.05.22,8,8,0,0,1,3.09,1.65,8.59,8.59,0,0,1,2.11,2.81c.2.41.34.74.44,1a1.38,1.38,0,0,0,.16.36s0-.14-.11-.38a9.73,9.73,0,0,0-.4-1,8.27,8.27,0,0,0-2.1-2.88,7.93,7.93,0,0,0-3.16-1.64,6.73,6.73,0,0,0-1.07-.18A1.76,1.76,0,0,0,414.48,238.5Z" style="fill:#263238"></path><path d="M413.18,241s.51,0,1.32-.07a4,4,0,0,1,1.39.22,4.46,4.46,0,0,1,1.48.88,8,8,0,0,1,1.82,2.57c.17.35.31.64.43.87a1.79,1.79,0,0,0,.17.32,1.88,1.88,0,0,0-.12-.34c-.09-.21-.22-.52-.39-.89a11.55,11.55,0,0,0-.67-1.28,6.17,6.17,0,0,0-1.15-1.35,4.36,4.36,0,0,0-1.52-.9,4.11,4.11,0,0,0-1.44-.2c-.41,0-.74.07-1,.1Z" style="fill:#263238"></path><path d="M424.49,242.28l.11-.09a3.38,3.38,0,0,0,.31-.25,12,12,0,0,0,1.07-1,10.43,10.43,0,0,0,1.31-1.77,8.08,8.08,0,0,0,.92-2.53,10,10,0,0,1,.66-2.58,3.48,3.48,0,0,1,1.51-1.49,3.54,3.54,0,0,1,1.38-.48,1.86,1.86,0,0,1,.53,0s0,0-.13-.05a1.51,1.51,0,0,0-.41,0,3.32,3.32,0,0,0-1.41.44,5.2,5.2,0,0,0-.86.58,3.16,3.16,0,0,0-.73.94,9.89,9.89,0,0,0-.67,2.61,8.51,8.51,0,0,1-.91,2.5,10.12,10.12,0,0,1-1.27,1.77c-.41.46-.77.82-1,1.06A3.19,3.19,0,0,0,424.49,242.28Z" style="fill:#263238"></path><path d="M433.65,230a6.3,6.3,0,0,1,1.4.21,8.26,8.26,0,0,1,1.26.63,2.57,2.57,0,0,0-1.22-.76A2.39,2.39,0,0,0,433.65,230Z" style="fill:#263238"></path><path d="M435.64,235.89a1,1,0,0,0,0-.27,7.18,7.18,0,0,0-.08-.73,7.52,7.52,0,0,0-.79-2.27,5,5,0,0,0-.79-1.07,3.7,3.7,0,0,0-.87-.66,3.12,3.12,0,0,0-.69-.25.62.62,0,0,0-.27,0,4.28,4.28,0,0,1,.91.37,4.21,4.21,0,0,1,1.58,1.71,8.29,8.29,0,0,1,.82,2.22C435.59,235.51,435.61,235.89,435.64,235.89Z" style="fill:#263238"></path><path d="M434.75,229.14s.36,0,.92,0a5.17,5.17,0,0,1,3.88,1.78c.37.42.54.74.57.72a1.71,1.71,0,0,0-.11-.22,4.61,4.61,0,0,0-.38-.57,4.9,4.9,0,0,0-4-1.81,4.38,4.38,0,0,0-.68.08A.74.74,0,0,0,434.75,229.14Z" style="fill:#263238"></path><path d="M428.23,236.81a2.53,2.53,0,0,0,1.09-.59,2.71,2.71,0,0,0,.81-.95s-.37.42-.9.84S428.21,236.78,428.23,236.81Z" style="fill:#263238"></path><path d="M420.14,233.35s.53.07,1.36.32a8.68,8.68,0,0,1,2.91,1.61,10.37,10.37,0,0,1,2.16,2.53c.23.37.4.67.52.88a2.57,2.57,0,0,0,.19.33,1.54,1.54,0,0,0-.14-.35c-.1-.22-.26-.53-.48-.91a9.88,9.88,0,0,0-2.16-2.59,8.74,8.74,0,0,0-1.56-1,7.28,7.28,0,0,0-1.42-.56,5.27,5.27,0,0,0-1-.2A1.79,1.79,0,0,0,420.14,233.35Z" style="fill:#263238"></path><path d="M425.44,230.5a6,6,0,0,1,.67.25A2.34,2.34,0,0,1,427.2,232a.66.66,0,0,0,.37.38,3.09,3.09,0,0,0,.46.09,2.38,2.38,0,0,1,.7.27,6.5,6.5,0,0,1,.57.42s0-.06-.11-.16a2,2,0,0,0-.41-.34,1.91,1.91,0,0,0-.72-.31c-.15,0-.31-.05-.44-.1a.5.5,0,0,1-.29-.31,2.33,2.33,0,0,0-.53-.81,2.3,2.3,0,0,0-.65-.46,2.21,2.21,0,0,0-.51-.15A.76.76,0,0,0,425.44,230.5Z" style="fill:#263238"></path><path d="M431.92,232a5.07,5.07,0,0,0-.06-1.52,8.49,8.49,0,0,0-.3-1.49,8.8,8.8,0,0,0,.16,1.51C431.84,231.35,431.89,232,431.92,232Z" style="fill:#263238"></path><g style="opacity:0.30000000000000004"><path d="M432.29,230.67a8.14,8.14,0,0,1,1.54,1.83c.53,1,.65,2.14,1.21,3.09.07.11.16.23.29.23a.25.25,0,0,0,.22-.2.65.65,0,0,0,0-.31,7.9,7.9,0,0,0-.89-2.95,3.57,3.57,0,0,0-2.41-1.8"></path></g><g style="opacity:0.30000000000000004"><path d="M440,231.45a9.86,9.86,0,0,0-4.49-2.34,5.16,5.16,0,0,1,4.49,2.34"></path></g><path d="M432.12,229.38a13.44,13.44,0,0,1,3-.79,13.58,13.58,0,0,1,3.14.15,3,3,0,0,0-.89-.26,8.07,8.07,0,0,0-4.46.45A2.74,2.74,0,0,0,432.12,229.38Z" style="fill:#fff"></path><path d="M421.74,230.86a8.44,8.44,0,0,1,1.14-1.43,8,8,0,0,1,1.55-1,3.42,3.42,0,0,0-2.69,2.4Z" style="fill:#fff"></path><path d="M414.33,236.87a10.22,10.22,0,0,0,.78-1.22,10.61,10.61,0,0,0,.8-1.22,3.4,3.4,0,0,0-1,1.11A3.52,3.52,0,0,0,414.33,236.87Z" style="fill:#fff"></path><path d="M421.74,233.13c0,.05.81-.54,1.86-1.1s2-.87,1.95-.93a5.93,5.93,0,0,0-2,.75A6.19,6.19,0,0,0,421.74,233.13Z" style="fill:#fff"></path><path d="M415.45,238a10.31,10.31,0,0,0,1.24-1.26,11.59,11.59,0,0,0,1.2-1.3,5.47,5.47,0,0,0-1.35,1.16A5.82,5.82,0,0,0,415.45,238Z" style="fill:#fff"></path></g><g id="Whale"><g style="opacity:0.1"><path d="M426.73,195.14c-2.16-2.52-6.21-.43-8.73,1.72-23,19.66-46.25,39.37-72.17,55s-54.89,27.27-85.12,29.22l-16,8.4c13.44,8,29.46,11.14,45.09,10.41s30.92-5.16,45.26-11.41A185.71,185.71,0,0,0,426.25,202C427.33,199.81,428.31,197,426.73,195.14Z"></path></g><path d="M245.84,285.83s-8.24-.06-7-4.14c1-3.21,30.91-19.29,33.15-20.93s4-4.89,7.64-6.65,6.32.11,11.16-2.1S377,211.46,377,211.46s11-5.53,14.1-7.44,9.41-7.62,11-7.83-1.38,2.83-.36,3.94c0,0,24.84-12.23,28.19-17.18,0,0,1.37-3.25-2.79-5.15s-15.92-12.42-8.05-22.11c0,0,1.36-.95,2.18,1.32s1.83,3.38,8.54,5.37,8.4,1.27,9.79,3.44L441,168s1.19-1.27,4.22-1.45,5.39,1.86,9.93,2.94,8.26,1.77,10.95,1.35,2.69-.42,2.57.9-5,6.07-12.06,9.26-14.64,1.07-17.67,3.55-4.13,6.12-7.24,10.21c-2.67,3.51-35.18,49.1-61.73,68.53S296.83,295.12,287,296.8s-38.49-.78-42.79-3.45c-.64-.4-2.65-3.51-3.3-4.24Z" style="fill:#455a64"></path><path d="M245.84,285.83s36.11-18.07,43.23-16.11,6.25,5,13.13,2.87,22.71,2,39-10.14,74.28-58.06,82.78-65l12-9.5s-2.66,4.39-7.27,10.76c-9.36,12.94-26.16,34.66-40.78,48.66a139,139,0,0,1-12,11.12,123.46,123.46,0,0,1-24,15.62,107,107,0,0,1-9.88,4.85c-19.87,7.67-38.85,14.77-53.56,17.57-7.94,1.51-15,.34-22.91.33,0,0-6.74-.55-12.36-1.32a44.58,44.58,0,0,1-7.3-1.5c-2.43-.88-2.69-1.84-5-4.93Z" style="fill:#f5f5f5"></path><path d="M436.66,187l-.4.68c-.28.46-.69,1.11-1.23,2-1.1,1.72-2.76,4.24-5,7.41-4.44,6.38-11.52,15.1-20,26.08-2.17,2.71-4.49,5.51-7,8.34s-5.21,5.71-8,8.7-5.61,6.11-8.63,9.24a125.5,125.5,0,0,1-9.87,9.09,118.69,118.69,0,0,1-11.4,8.3c-4.06,2.59-8.34,5-12.75,7.34-2.2,1.16-4.42,2.35-6.69,3.5s-4.59,2.23-7,3.23c-4.75,2-9.69,3.78-14.71,5.45-3.25,1.09-6.49,2.14-9.66,3.28s-6.36,2.19-9.55,3.09c-6.36,1.82-12.67,3.33-18.84,4.65h0a93,93,0,0,1-12.69.15c-4.15-.19-8.19-.54-12.13-1s-7.78-.94-11.5-1.54l-2.76-.49a12.06,12.06,0,0,1-1.38-.34,4.85,4.85,0,0,1-1.24-.7,15.3,15.3,0,0,1-3.48-4.2l-.09-.15.15-.1A118.17,118.17,0,0,1,265,276.42c3.77-1.5,7.33-2.78,10.63-3.92,1.66-.55,3.24-1.13,4.79-1.55a40.75,40.75,0,0,1,4.47-1,21,21,0,0,1,4.09-.34,7.7,7.7,0,0,1,3.44,1.13c1.93,1.13,3.58,2.14,5.12,2.35a8.32,8.32,0,0,0,3.46-.16c.76-.24,1.16-.35,1.16-.35l-1.14.41a8.5,8.5,0,0,1-3.5.21c-1.57-.2-3.25-1.21-5.18-2.32a7.66,7.66,0,0,0-3.36-1.08,21.61,21.61,0,0,0-4.06.36,43.56,43.56,0,0,0-4.44,1c-1.54.42-3.11,1-4.76,1.57-3.3,1.15-6.85,2.45-10.61,3.95a118.48,118.48,0,0,0-24.09,12.57l.05-.25a14.88,14.88,0,0,0,3.38,4.08,4.47,4.47,0,0,0,1.14.65,12.75,12.75,0,0,0,1.32.31q1.37.26,2.76.48c3.71.6,7.54,1.1,11.47,1.53s8,.76,12.11.95a92.1,92.1,0,0,0,12.63-.16h0c6.16-1.31,12.46-2.83,18.81-4.64,3.18-.91,6.35-1.93,9.52-3.09s6.41-2.2,9.66-3.28c5-1.67,9.95-3.41,14.68-5.43,2.37-1,4.68-2.1,6.95-3.23s4.48-2.33,6.68-3.49c4.41-2.34,8.68-4.73,12.72-7.31a116.26,116.26,0,0,0,11.37-8.26,124.7,124.7,0,0,0,9.85-9c3-3.11,5.85-6.25,8.64-9.22s5.48-5.85,8-8.67,4.85-5.61,7-8.31c8.51-11,15.64-19.64,20.11-26,2.26-3.15,3.93-5.66,5.06-7.36l1.27-1.94Z" style="fill:#263238"></path><path d="M298.9,267.94a1.71,1.71,0,1,1-.09.12" style="fill:#263238"></path><path d="M354.25,261.4l-11.16-6.19-20.76,10.93a56.11,56.11,0,0,0,24.45,3.39c1.33-.13,2.77-.73,4.08-1a8.6,8.6,0,0,0,4.28-1.64,3.31,3.31,0,0,0,.89-4.14A5,5,0,0,0,354.25,261.4Z" style="fill:#455a64"></path><path d="M295.56,291.85a1.62,1.62,0,0,1-.38.15l-1.12.36c-1,.31-2.41.68-4.18,1.11a55.71,55.71,0,0,1-28.28-.79c-1.76-.49-3.17-1-4.13-1.31l-1.1-.41a1.55,1.55,0,0,1-.37-.17s.14,0,.4.08l1.13.33c1,.3,2.39.72,4.15,1.17a59.74,59.74,0,0,0,28.13.78c1.78-.38,3.22-.7,4.2-1l1.14-.28A1.4,1.4,0,0,1,295.56,291.85Z" style="fill:#263238"></path><path d="M298.52,288.44a9.65,9.65,0,0,1-1.44.46c-.93.27-2.3.61-4,1a70.87,70.87,0,0,1-13.48,1.5,64.6,64.6,0,0,1-7.47-.37,49.28,49.28,0,0,1-6-1.06c-.85-.18-1.6-.42-2.27-.61s-1.22-.38-1.68-.56a9.25,9.25,0,0,1-1.4-.56,9,9,0,0,1,1.46.4c.46.15,1,.31,1.69.47s1.42.38,2.27.55a58.11,58.11,0,0,0,6,1,72.11,72.11,0,0,0,7.42.32A79.62,79.62,0,0,0,293,289.54c1.7-.31,3.08-.6,4-.82A9.3,9.3,0,0,1,298.52,288.44Z" style="fill:#263238"></path><path d="M301.67,284.77a9,9,0,0,1-1.39.4c-.9.23-2.22.51-3.86.81a76.14,76.14,0,0,1-13,1.13,64,64,0,0,1-12.95-1.27q-1.23-.24-2.19-.51c-.64-.16-1.19-.31-1.64-.46a8.85,8.85,0,0,1-1.36-.48,10.1,10.1,0,0,1,1.41.31c.45.12,1,.24,1.65.38s1.38.3,2.19.44a70.54,70.54,0,0,0,12.89,1.13,85.83,85.83,0,0,0,12.91-1c1.64-.26,3-.49,3.88-.67A8.88,8.88,0,0,1,301.67,284.77Z" style="fill:#263238"></path><path d="M308,280.48a9.54,9.54,0,0,1-1.47.52c-1,.31-2.36.7-4.11,1.12s-3.84.82-6.19,1.16-5,.57-7.7.67a77.17,77.17,0,0,1-7.73-.17c-2.36-.19-4.49-.45-6.26-.75s-3.19-.6-4.16-.85a9.56,9.56,0,0,1-1.5-.42,10.39,10.39,0,0,1,1.53.25c1,.19,2.41.44,4.18.7s3.89.49,6.24.65,5,.21,7.68.13,5.32-.33,7.66-.63,4.44-.68,6.18-1.06,3.16-.71,4.13-1A10.88,10.88,0,0,1,308,280.48Z" style="fill:#263238"></path><path d="M308.33,277.57a7.6,7.6,0,0,1-1.29.55c-.84.32-2.07.76-3.6,1.25a40.79,40.79,0,0,1-12.39,2.11c-2.47,0-4.81-.23-6.92-.41l-5.63-.52-3.79-.39a8.57,8.57,0,0,1-1.38-.2,8.28,8.28,0,0,1,1.4,0l3.8.24,5.63.42c2.12.15,4.45.37,6.89.37a43.78,43.78,0,0,0,12.29-2c1.55-.44,2.78-.84,3.64-1.11A8.64,8.64,0,0,1,308.33,277.57Z" style="fill:#263238"></path><path d="M311.46,274.74a6.51,6.51,0,0,1-1.17.46c-.76.28-1.89.64-3.29,1a65.86,65.86,0,0,1-11.17,2,64.45,64.45,0,0,1-11.36.06c-1.45-.12-2.61-.26-3.42-.39a7.64,7.64,0,0,1-1.24-.24,5.72,5.72,0,0,1,1.26.06c.81.08,2,.17,3.43.25a75.09,75.09,0,0,0,22.42-2.09c1.41-.35,2.54-.66,3.32-.88A5.9,5.9,0,0,1,311.46,274.74Z" style="fill:#263238"></path><path d="M439,170.85a11.43,11.43,0,0,1-1.3,4.21,11.3,11.3,0,0,1-2.46,3.66c-.11-.09,1-1.69,2.05-3.85S438.84,170.82,439,170.85Z" style="fill:#263238"></path><path d="M344.76,253.38a2.08,2.08,0,0,1,0,.49,3.34,3.34,0,0,0,.52,1.28,13.13,13.13,0,0,0,3.84,3.45,29.64,29.64,0,0,0,3.12,1.78,11.88,11.88,0,0,1,3.59,2.2,3.06,3.06,0,0,1-.36,4.4,8.59,8.59,0,0,1-2.16,1.24A17.25,17.25,0,0,1,351,269a24.31,24.31,0,0,1-4.91.77c-1.6.09-3.14.06-4.61,0a61.09,61.09,0,0,1-7.74-.84c-2.19-.39-3.93-.82-5.13-1.15-.59-.17-1.05-.31-1.36-.42a3.07,3.07,0,0,1-.47-.17,1.54,1.54,0,0,1,.49.09l1.39.32c1.2.28,2.95.67,5.13,1a64.34,64.34,0,0,0,7.71.74c1.45,0,3,.07,4.57,0a24.84,24.84,0,0,0,4.81-.78,16.5,16.5,0,0,0,2.34-.79,8.45,8.45,0,0,0,2-1.16,2.65,2.65,0,0,0,.33-3.79,11.68,11.68,0,0,0-3.44-2.13,30.48,30.48,0,0,1-3.13-1.85,12.61,12.61,0,0,1-3.81-3.63,3.14,3.14,0,0,1-.46-1.36A2,2,0,0,1,344.76,253.38Z" style="fill:#263238"></path><path d="M270,314.24a33,33,0,0,1,55-15c8-11.64,24.09-17,37.46-12.41" style="fill:#fff"></path><path d="M362.42,286.86s-.07,0-.21,0l-.59-.15c-.53-.11-1.28-.39-2.29-.57a32.51,32.51,0,0,0-8.73-.63,34.26,34.26,0,0,0-12.79,3.32,32.3,32.3,0,0,0-12.64,10.63l-.17.24-.21-.21a32.47,32.47,0,0,0-11-7,32.33,32.33,0,0,0-35.75,7.93,32.71,32.71,0,0,0-4.15,5.3,33.36,33.36,0,0,0-2.4,4.48c-.53,1.29-.94,2.3-1.14,3-.12.32-.2.58-.28.79a1,1,0,0,1-.11.27L270,314c.06-.22.13-.48.23-.81a28.25,28.25,0,0,1,1.05-3.06,33.74,33.74,0,0,1,6.47-9.95A32.59,32.59,0,0,1,314,292a36.63,36.63,0,0,1,6.06,3.07,35.28,35.28,0,0,1,5.08,4l-.39,0a32.51,32.51,0,0,1,12.87-10.73,33.91,33.91,0,0,1,13-3.25,30.6,30.6,0,0,1,8.79.78,23.34,23.34,0,0,1,2.28.66l.58.19Z" style="fill:#263238"></path></g><g id="Character"><path d="M225.53,413.36s41.17,16.63,65.21,27a426.59,426.59,0,0,1,47,24.53l-9.11,11s-47.62-7.79-63.19-13.1c-19.09-6.51-28.6-10-38.58-13.2s-40.31-11.89-40.31-11.89a152.67,152.67,0,0,0,12.24-19.56C203.51,408.66,225.53,413.36,225.53,413.36Z" style="fill:#ffbf9d"></path><path d="M329.81,462.92c.56.05,2.72-3.1,10.28.62s17.86,5.17,21.56,7,17,9,14.39,17.74c-1.67,5.6-7.55,6.13-11.33,5.85a14.51,14.51,0,0,1-5.25-1.44l-29.38-14.25a8.93,8.93,0,0,1-4.6-4.91,10.52,10.52,0,0,1,.17-6.47A7.26,7.26,0,0,1,329.81,462.92Z" style="fill:#e0e0e0"></path><path d="M331.24,463.9c.53.05,2.54-2.88,9.59.58s16.65,4.82,20.1,6.52,15.86,8.34,13.41,16.53c-1.55,5.22-7,5.72-10.56,5.46a13.76,13.76,0,0,1-4.9-1.34l-27.39-13.29a8.39,8.39,0,0,1-4.29-4.57,9.89,9.89,0,0,1,.17-6A6.77,6.77,0,0,1,331.24,463.9Z" style="fill:#FF725E"></path><path d="M321.24,473.9s10.42,3.1,13.95,3.79c3.87.76,7.57-.73,8.75-3.23,1.9-4-.65-7-3.56-9.13s-15.28-7.73-15.28-7.73Z" style="fill:#ffbf9d"></path><path d="M350,484c-.15-.16,1.79-1.82,3-4.62s1.13-5.33,1.35-5.33.64,2.64-.68,5.63S350.1,484.16,350,484Z" style="fill:#263238"></path><path d="M353.56,485.61c-.15-.16,1.79-1.82,3-4.62s1.13-5.33,1.36-5.33.64,2.65-.68,5.63S353.64,485.79,353.56,485.61Z" style="fill:#263238"></path><path d="M357.49,487.26c-.16-.16,1.79-1.82,3-4.62s1.13-5.33,1.36-5.33.64,2.64-.68,5.63S357.56,487.43,357.49,487.26Z" style="fill:#263238"></path><path d="M350.88,479.07a23,23,0,0,1-.45-2.42,12.91,12.91,0,0,0-.81-2.48,11.59,11.59,0,0,0-.69-1.36c-.27-.45-.59-.68-.91-.51-.79.35-.52,1.66-.23,2.52A6.88,6.88,0,0,0,349,477c1,1.14,1.82,1.56,1.76,1.67s-1-.18-2.14-1.32a6.71,6.71,0,0,1-1.5-2.35,5.8,5.8,0,0,1-.37-1.64,1.77,1.77,0,0,1,.93-1.77,1.24,1.24,0,0,1,1.18.06,2.3,2.3,0,0,1,.67.74,10.92,10.92,0,0,1,.7,1.48,11.26,11.26,0,0,1,.7,2.65A5.38,5.38,0,0,1,350.88,479.07Z" style="fill:#263238"></path><path d="M351.23,478.84c0,.11-.94-.21-2.43-.28a10.52,10.52,0,0,0-2.58.21,9.58,9.58,0,0,0-1.46.43,7.87,7.87,0,0,0-.74.32,2.71,2.71,0,0,0-.59.34c0,.07,0-.13,0-.12l.27.09c.26.08.52.14.77.2a8,8,0,0,0,1.51.17,9,9,0,0,0,2.56-.29c1.44-.38,2.23-.92,2.3-.81a4.35,4.35,0,0,1-2.14,1.31,8.35,8.35,0,0,1-2.73.47,7.85,7.85,0,0,1-1.64-.14,7,7,0,0,1-.85-.21,1.42,1.42,0,0,1-.51-.22.59.59,0,0,1-.24-.45.66.66,0,0,1,.14-.44,2.63,2.63,0,0,1,.86-.57l.81-.33a9,9,0,0,1,1.58-.42,8.94,8.94,0,0,1,2.76-.06A4.47,4.47,0,0,1,351.23,478.84Z" style="fill:#263238"></path><path d="M183.34,479.23s39.76,2.85,59.12,1.61c11.74-.75,21-13.71,10.27-22.95-5.19-4.47-70.3-18.91-70.3-18.91C170,447.72,177.27,469.27,183.34,479.23Z" style="fill:#ffbf9d"></path><path d="M254.87,459.38c-.05.14-8.66-2.65-19.24-6.23s-19.12-6.59-19.08-6.73,8.66,2.66,19.25,6.23S254.91,459.25,254.87,459.38Z" style="fill:#ff9a6c"></path><path d="M66.71,318.67s-14.77,13.42-11.35,30.55,3.2,52.92,3.2,52.92-1.47,13.91-3.46,29.06c-1.9,14.45-6,38.24-6,38.24L65,476.26s13.92-45.38,15.8-59.66c2.42-18.43-2.5-61.14-2.5-61.14Z" style="fill:#ffbf9d"></path><path d="M49.07,467.13l-32.79,6.36s-1.55,2.06,1.55,2.32,46.7,0,46.7,0Z" style="fill:#ffbf9d"></path><path d="M75.31,401.81c0,.15-3.14-.35-7-.59s-7-.17-7-.32a7.3,7.3,0,0,1,2.06-.25,45.63,45.63,0,0,1,10,.65A7.24,7.24,0,0,1,75.31,401.81Z" style="fill:#ff9a6c"></path><path d="M143.76,334.47l-10.56-29c-6.83-22.94-12.33-51.4-17.36-58.08-9.28-12.33-28.75-8.6-28.75-8.6-25.88,4.85-25.29,25.56-23.19,44,.36,3.13.49,8.82.49,15.45-.37,13.89-1.62,28.37-8.71,39.61a23.84,23.84,0,0,0-3.42,14.68c.45,5.05,4.56,10.21,9.61,9.74a11.62,11.62,0,0,0,6.42,17.2c4.74,1.49,9.84-.18,14.47-2s9.36-3.91,12.31-7.86,3.65-9.15,3.91-14.09a113.19,113.19,0,0,0-.49-17.85Z" style="fill:#263238"></path><path d="M92.35,245.05l-2-1.09L75,255.39a5,5,0,0,0-3.31,5.83l17.6,56.83c1,3.8-.15,6,2.94,8.4l21.06,16c7.41,5.82,2.7-10,5-19.18.16-.64-1.71-2.37-1.72-2.79a12.84,12.84,0,0,0-.07-1.32c-.67-4.64-1.67-8.55-1.67-8.55-1-5-1.42-7.08-1.41-7s10.2-4,9.5-18.23c-.35-7.08-3-16.25-5.83-25.24C113.19,247.69,102.47,242.38,92.35,245.05Z" style="fill:#ffbf9d"></path><path d="M99,274.26a1.81,1.81,0,0,1-1.33,2.14,1.73,1.73,0,0,1-2.16-1.21,1.8,1.8,0,0,1,1.33-2.14A1.73,1.73,0,0,1,99,274.26Z" style="fill:#263238"></path><path d="M116.28,269.67a1.8,1.8,0,0,1-1.33,2.14,1.73,1.73,0,0,1-2.16-1.21,1.8,1.8,0,0,1,1.33-2.14A1.73,1.73,0,0,1,116.28,269.67Z" style="fill:#263238"></path><path d="M116.2,264.2c-.18.28-1.72-.43-3.63,0s-3.09,1.65-3.35,1.46,0-.55.53-1.12a5,5,0,0,1,2.62-1.45,4.85,4.85,0,0,1,2.95.31C116,263.7,116.28,264.07,116.2,264.2Z" style="fill:#263238"></path><path d="M97.18,269.4c-.19.26-1.66-.61-3.6-.4s-3.25,1.32-3.48,1.11.07-.54.64-1.06a5,5,0,0,1,2.76-1.17,4.81,4.81,0,0,1,2.9.61C97,268.88,97.28,269.29,97.18,269.4Z" style="fill:#263238"></path><path d="M107.34,281.35a13.1,13.1,0,0,1,3-1.2c.48-.16.92-.35.93-.7a2.52,2.52,0,0,0-.63-1.37l-2.21-3.4c-3.1-4.85-5.45-8.88-5.26-9s2.87,3.71,6,8.56c.76,1.19,1.47,2.34,2.16,3.43a2.83,2.83,0,0,1,.65,1.85,1.22,1.22,0,0,1-.65.88,3.13,3.13,0,0,1-.8.29A12.34,12.34,0,0,1,107.34,281.35Z" style="fill:#263238"></path><path d="M113.38,303.6a35.9,35.9,0,0,1-19.5-1.05s6.64,8.57,20.17,4.38Z" style="fill:#ff9a6c"></path><path d="M107.5,286.11a3.5,3.5,0,0,0-3.34-.63,3.17,3.17,0,0,0-1.92,1.61,2,2,0,0,0,.32,2.3,2.34,2.34,0,0,0,2.63.11,7.49,7.49,0,0,0,2.13-2,2.2,2.2,0,0,0,.42-.68.65.65,0,0,0-.15-.71" style="fill:#ff9a6c"></path><path d="M102,283.84c.31-.08.75,2,2.82,3.08s4.23.41,4.31.69c0,.13-.41.51-1.33.73a5.27,5.27,0,0,1-3.57-.46,4.6,4.6,0,0,1-2.23-2.61C101.75,284.42,101.87,283.86,102,283.84Z" style="fill:#263238"></path><path d="M97.06,261.61c-.14.54-2.09.5-4.33,1s-4,1.32-4.36.88c-.16-.21.1-.74.79-1.32a7.29,7.29,0,0,1,3.15-1.49,7.39,7.39,0,0,1,3.47,0C96.65,261,97.11,261.35,97.06,261.61Z" style="fill:#263238"></path><path d="M113.81,256.2c-.25.5-1.65.33-3.24.64s-2.85.9-3.25.51c-.18-.19-.06-.67.44-1.2a4.76,4.76,0,0,1,5.22-.93C113.63,255.55,113.91,256,113.81,256.2Z" style="fill:#263238"></path><path d="M78.32,285s10.41.47,9.61-24.71c-.27-8.6,5.53-17.16,5.53-17.16L90.17,243S72.6,253.36,72.34,253.68s-2.2,11.07-2.2,11.07Z" style="fill:#263238"></path><path d="M80.46,283.5c-.22-1-1.91-3.19-3-3.14-2.8.15-7.63,1.39-6.24,8.28,1.91,9.41,11,5.55,10.93,5.28S81.21,287.05,80.46,283.5Z" style="fill:#ffbf9d"></path><path d="M78.59,290.93s-.14.15-.39.33a1.67,1.67,0,0,1-1.22.28c-1.07-.16-2.23-1.57-2.62-3.26a5.58,5.58,0,0,1,0-2.44,1.91,1.91,0,0,1,1-1.51.84.84,0,0,1,1.06.25c.18.24.16.44.22.44s.17-.19,0-.57a1,1,0,0,0-.49-.51,1.25,1.25,0,0,0-1-.06,2.36,2.36,0,0,0-1.41,1.81,5.74,5.74,0,0,0,0,2.74c.45,1.88,1.78,3.46,3.22,3.58a1.78,1.78,0,0,0,1.45-.55C78.62,291.17,78.63,290.94,78.59,290.93Z" style="fill:#ff9a6c"></path><path d="M83.65,278.76a13.47,13.47,0,0,0,1.32-.65,8.74,8.74,0,0,0,2.8-2.78A12.16,12.16,0,0,0,89,272.85a15.47,15.47,0,0,0,.69-3.08,60.39,60.39,0,0,0,.23-7.27,71.71,71.71,0,0,1,.36-7.29,40.87,40.87,0,0,1,1-5.88,28.51,28.51,0,0,1,1.27-3.82c.18-.44.35-.77.45-1s.17-.34.17-.33a1.7,1.7,0,0,1-.12.35c-.09.24-.25.57-.41,1a31.32,31.32,0,0,0-1.18,3.82,40,40,0,0,0-1,5.86c-.23,2.23-.33,4.69-.35,7.27a55.41,55.41,0,0,1-.25,7.31,16.09,16.09,0,0,1-.72,3.11,11.66,11.66,0,0,1-1.24,2.5A8.66,8.66,0,0,1,85,278.2,5.72,5.72,0,0,1,83.65,278.76Z" style="fill:#263238"></path><path d="M128.5,288a32.38,32.38,0,0,0,19,19.34c2.82,1,5.89,1.75,8.11,3.77s3.08,6,.78,7.9a25.22,25.22,0,0,1,14.76,9c3.55,4.68,5,11.09,3.1,16.66-2.48,7.32-10.39,12-18.12,11.91s-15-4.4-20-10.33-7.8-13.36-9.55-20.89-2.49-15.24-3.71-22.87" style="fill:#263238"></path><path d="M154.63,388.87l3.53,3.27s12.69-6.43,33,2.31c12.34,5.32,43,20.61,43,20.61s-17.4,5.88-17.1,20.72-.3,14.91-5.19,18.09-22.9,1.5-24.74,13.26-2.45,12.78-2.45,12.78-51.84-1.66-67.11-8.38S96.71,427.1,96.71,427.1l-1.88-7.56Z" style="fill:#263238"></path><path d="M208.13,444.56a4.9,4.9,0,0,1-.77-.18l-2.18-.62-8-2.37-26.36-8a78,78,0,0,0-14.79-3,38.94,38.94,0,0,0-12.23.81,27.2,27.2,0,0,0-7.68,3.06c-.84.51-1.47.94-1.88,1.25a4.86,4.86,0,0,1-.66.45,3.71,3.71,0,0,1,.59-.53,17.33,17.33,0,0,1,1.84-1.34,26.22,26.22,0,0,1,7.7-3.25,38,38,0,0,1,12.36-.92,75.33,75.33,0,0,1,14.89,3c10.32,3.09,19.6,6,26.33,8.11l8,2.52,2.15.72A3.46,3.46,0,0,1,208.13,444.56Z" style="fill:#455a64"></path><path d="M166.46,416.6a31.72,31.72,0,0,0-3.21,6.38,28.69,28.69,0,0,0-1.1,7,6.09,6.09,0,0,1-.22-2.12,16.8,16.8,0,0,1,.82-5.09,17.59,17.59,0,0,1,2.3-4.61A6.18,6.18,0,0,1,166.46,416.6Z" style="fill:#455a64"></path><path d="M83.93,395.89l11.52,23.65s44.55-12.13,51.61-20.48,9.41-11.88,9.41-11.88l-17.05-31.24-3.66-40.21-19.41-2.93c-10.32,5.26-24.56,6.46-28.64.51,0,0-11.57.08-19.93,4.74l-8.44,22.59Z" style="fill:#FF725E"></path><path d="M55,373.09H77.74l-8.06-55.86S57.09,321.49,55,334.61C53.12,345.85,55,373.09,55,373.09Z" style="fill:#FF725E"></path><path d="M65.94,338a2.26,2.26,0,0,1,.09.57l.15,1.66c.06.72.14,1.6.26,2.61s.22,2.18.41,3.46c.33,2.55.85,5.58,1.55,8.91s1.65,7,2.83,10.71,2.54,7.24,3.86,10.38,2.68,5.9,3.88,8.17c.58,1.16,1.17,2.16,1.66,3.06s.93,1.67,1.3,2.29l.82,1.44a1.93,1.93,0,0,1,.26.52,2.7,2.7,0,0,1-.34-.47c-.24-.36-.55-.82-.92-1.39s-.86-1.35-1.38-2.24-1.12-1.89-1.72-3c-1.25-2.27-2.62-5-4-8.16s-2.71-6.65-3.92-10.41-2.1-7.42-2.8-10.77-1.16-6.4-1.44-9c-.17-1.28-.25-2.45-.34-3.47S66,341,66,340.24s0-1.22-.06-1.66A2.59,2.59,0,0,1,65.94,338Z" style="fill:#263238"></path><path d="M135,315.71a21.61,21.61,0,0,1,19.54,13.92c5.39,13.67,6.35,31.42,6.35,31.42l-28.76,6.1,3.16-24.54s-3.4-10-3.73-15.74C130.81,313,135,315.71,135,315.71Z" style="fill:#FF725E"></path><path d="M160.92,361.05a2.08,2.08,0,0,1-.52.15l-1.51.34-5.56,1.14-18.57,3.63-.27.05,0-.28c0-.47-.11-1-.17-1.47-.9-7.69-1.72-14.65-2.32-19.77-.26-2.48-.48-4.52-.64-6-.06-.67-.11-1.21-.15-1.64a3.07,3.07,0,0,1,0-.57,2,2,0,0,1,.12.56c.07.42.15,1,.25,1.62.2,1.48.47,3.51.81,6,.64,5.12,1.5,12.08,2.46,19.77.06.5.12,1,.18,1.47l-.31-.23,18.6-3.47,5.6-1,1.52-.24A2,2,0,0,1,160.92,361.05Z" style="fill:#263238"></path><path d="M159.51,361.35l-21.31,3.79,1.14,6.58-40.8-14.51-7.12,11.7s37,25,45.65,29.13,22.74,6,24.55-9.17C162.85,378.59,159.51,361.35,159.51,361.35Z" style="fill:#ffbf9d"></path><path d="M155.83,382.16c-.08.06-.75-.87-2-2.21a26.22,26.22,0,0,0-12.19-7.23c-1.78-.48-2.92-.63-2.9-.72a2.3,2.3,0,0,1,.81,0,16.59,16.59,0,0,1,2.18.35,23.13,23.13,0,0,1,6.77,2.69,23.42,23.42,0,0,1,5.61,4.66,14.21,14.21,0,0,1,1.34,1.75A2.85,2.85,0,0,1,155.83,382.16Z" style="fill:#ff9a6c"></path><polygon points="60.04 322.64 54.77 323.58 49.98 330.66 50.89 334.57 58.99 333.23 62.07 331.01 63.34 325.01 60.04 322.64" style="fill:#263238"></polygon><path d="M44.56,355,19.8,323.24a1,1,0,0,1,0-1.23h0a1,1,0,0,1,1.15-.39L51.11,331s7.44-1.39,9.16-5.25a5.87,5.87,0,0,0,.33-3.05l33.66-9,23.82,36.6-35.59,5.55S78.3,364,73,363.34,44.56,355,44.56,355Z" style="fill:#455a64"></path><path d="M23.24,322.34l3.62-6s19.18,2.39,27.42,7.08a63.75,63.75,0,0,1,12.26-9.73c6.83-4,20.74-10.68,20.74-10.68L93.87,314,55.31,324.48,51.11,331Z" style="fill:#fff"></path><path d="M23.24,322.34l.52.14,1.48.44,5.61,1.7,20.32,6.2-.23.08q2-3.11,4.18-6.54l.05-.07.08,0L93.8,313.72l-.15.39L91,309.71c-1.32-2.21-2.64-4.39-3.93-6.53l.34.1c-6.5,3.15-12.73,6.23-18.47,9.37a61.45,61.45,0,0,0-14.5,11l-.12.12-.14-.08A41.47,41.47,0,0,0,46,320.43c-2.66-.79-5.18-1.38-7.52-1.88-4.68-1-8.63-1.64-11.64-2.06l.1-.05-2.73,4.36q-.45.74-.72,1.14l-.26.4a2.43,2.43,0,0,1,.21-.38c.16-.28.38-.66.67-1.14l2.65-4.49,0-.06h.07c3,.38,7,1,11.68,1.94,2.35.49,4.88,1.06,7.55,1.84a41.45,41.45,0,0,1,8.27,3.22l-.26,0a61.54,61.54,0,0,1,14.57-11.08c5.75-3.17,12-6.26,18.48-9.42l.21-.1.13.2,3.93,6.53,2.65,4.4.18.29-.33.09L55.36,324.69l.13-.09c-1.47,2.27-2.88,4.45-4.21,6.52l-.09.13-.14-.05-20.38-6.46L25.14,323l-1.43-.47Z" style="fill:#263238"></path><path d="M89.39,306.55c-.33.22-25,8.76-29.35,14,0,0,8.64-6.05,18.6-6.61a142.93,142.93,0,0,0,14.43-1.32Z" style="opacity:0.30000000000000004"></path><path d="M73.84,363.77a7.83,7.83,0,0,1-1-1.14c-.64-.75-1.54-1.86-2.64-3.24-2.2-2.77-5.14-6.65-8.25-11.05s-5.79-8.48-7.66-11.47c-.94-1.5-1.68-2.72-2.18-3.57a8.05,8.05,0,0,1-.72-1.36,10.49,10.49,0,0,1,.89,1.25l2.32,3.48c2,2.93,4.67,7,7.77,11.37s6,8.3,8.12,11.12c1,1.36,1.86,2.48,2.51,3.35A9.35,9.35,0,0,1,73.84,363.77Z" style="fill:#263238"></path><path d="M81.78,353.59c-.11.09-4.82-6.57-10.51-14.86s-10.21-15.07-10.09-15.15S66,330.15,71.7,338.44,81.9,353.51,81.78,353.59Z" style="fill:#263238"></path><path d="M65,353.62s-1.12,3.39,1.3,5.53c2,1.77,14.71,11.83,16.66,12.34s18.5,1.46,18.5,1.46l3-13.78s-5.61-3.56-6.39-5.72l-4.05.74-19-4.42s-4.57-1.69-5.35-.26-.58,1.57-.58,1.57-4.58-2.6-5.46-.75S65,353.62,65,353.62Z" style="fill:#ffbf9d"></path><path d="M86.85,357.45a15.09,15.09,0,0,1-2.74-.66c-1.66-.49-3.94-1.23-6.41-2.17S73,352.71,71.47,352A14.05,14.05,0,0,1,69,350.64a16,16,0,0,1,2.63,1c1.59.66,3.8,1.56,6.27,2.5s4.71,1.74,6.34,2.31A15.27,15.27,0,0,1,86.85,357.45Z" style="fill:#ff9a6c"></path><path d="M83.58,362.82a14.26,14.26,0,0,1-3-.66,47.59,47.59,0,0,1-7-2.66,46.09,46.09,0,0,1-6.48-3.74,14.68,14.68,0,0,1-2.43-1.93,27.06,27.06,0,0,1,2.63,1.62,62.17,62.17,0,0,0,13.38,6.36A26,26,0,0,1,83.58,362.82Z" style="fill:#ff9a6c"></path><path d="M79.12,367.19a79.3,79.3,0,0,1-7.52-5.06,80.4,80.4,0,0,1-7.22-5.49,76.32,76.32,0,0,1,7.53,5.07A78.67,78.67,0,0,1,79.12,367.19Z" style="fill:#ff9a6c"></path></g></svg>