<svg xmlns="http://www.w3.org/2000/svg" viewBox="0 0 500 500"><g id="background-complete"><rect x="321.94" y="48.88" width="106.78" height="176.76" style="fill:#e0e0e0"></rect><rect x="318.39" y="48.88" width="106.78" height="176.76" style="fill:#ebebeb"></rect><rect x="322.93" y="52.46" width="97.69" height="169.59" style="fill:#fff"></rect><rect x="341.53" y="74.5" width="60.07" height="125.51" style="fill:#ebebeb"></rect><path d="M341.53,155.6c-.14-11.73,10.41-23.17,22-24.81,5.53-.78,11.42.32,16.59-1.8,9.23-3.79,12.17-16.06,21.46-19.7L402,200h-60.5Z" style="fill:#e0e0e0"></path><path d="M362.92,273.83v14.59H300.15a7.29,7.29,0,0,1-7.3-7.29h0a7.3,7.3,0,0,1,7.3-7.3" style="fill:#e0e0e0"></path><path d="M341.29,276.89h21.63a0,0,0,0,1,0,0v8.48a0,0,0,0,1,0,0H341.29a3.28,3.28,0,0,1-3.28-3.28v-1.93a3.28,3.28,0,0,1,3.28-3.28Z" style="fill:#fafafa"></path><polygon points="390.09 264.03 380.12 287.72 386.54 287.72 390.97 274.94 390.09 264.03" style="fill:#e0e0e0"></polygon><polygon points="420.7 242.68 424.61 287.93 392.01 287.82 388.39 242.68 420.7 242.68" style="fill:#e0e0e0"></polygon><polygon points="417.52 246.22 420.89 283.58 396.44 283.91 393.13 246.01 417.52 246.22" style="fill:#fafafa"></polygon><polygon points="412.33 251.4 414.25 277.1 401.2 277.1 398.9 251.4 412.33 251.4" style="fill:#e0e0e0"></polygon><rect x="305.82" y="345.45" width="14.1" height="127.03" style="fill:#ebebeb"></rect><rect x="415.08" y="344.6" width="14.1" height="127.98" style="fill:#ebebeb"></rect><polygon points="435.89 346.7 300.56 346.95 300.56 296.88 435.89 296.88 435.89 346.7" style="fill:#ebebeb"></polygon><path d="M435.8,346.7s0-.31,0-.88,0-1.45,0-2.57c0-2.26,0-5.58,0-9.86,0-8.58-.05-21-.09-36.51l.17.17-135.25.08.26-.25V297c0,17.44,0,34.31,0,50l-.25-.24,96.87-.07,28.19,0h9.52l.67,0-.64,0h-1.93l-7.51,0-28.14.12-97,.3h-.24V347c0-15.65,0-32.52,0-50v-.37h.25l135.25.08H436v.18c0,15.54-.07,28-.09,36.61,0,4.27,0,7.57,0,9.83,0,1.1,0,1.95,0,2.53S435.8,346.7,435.8,346.7Z" style="fill:#e0e0e0"></path><path d="M424.68,336.81s0-.2,0-.58,0-.94,0-1.66c0-1.48,0-3.63,0-6.41,0-5.58-.05-13.68-.1-23.85l.18.15-113.89.08h0l.27-.23v32.5l-.27-.23,81.47.1,23.8.07,6.4,0h1.66l.57,0h-2.17l-6.34,0-23.74.07-81.65.1h-.26v-.22c0-10.26,0-21.21,0-32.5v-.24h.28l113.89.09h.18v.15c0,10.21-.07,18.34-.1,23.94,0,2.77,0,4.91,0,6.37,0,.72,0,1.26,0,1.64S424.68,336.81,424.68,336.81Z" style="fill:#e0e0e0"></path><path d="M314.85,332.54a8.22,8.22,0,0,1-1.79,2.17,8.76,8.76,0,0,1-2.16,1.85,8.14,8.14,0,0,1,1.8-2.17A8.56,8.56,0,0,1,314.85,332.54Z" style="fill:#e0e0e0"></path><path d="M314.85,308.57a18.18,18.18,0,0,1-4.09-4.25,18.18,18.18,0,0,1,4.09,4.25Z" style="fill:#e0e0e0"></path><path d="M424.89,304.41a9.44,9.44,0,0,1-2.48,2.26,16,16,0,0,1-2.84,1.9,9.23,9.23,0,0,1,2.48-2.26A15.2,15.2,0,0,1,424.89,304.41Z" style="fill:#e0e0e0"></path><path d="M424.69,336.81a11.86,11.86,0,0,1-2.75-2,10.91,10.91,0,0,1-2.37-2.3,11.37,11.37,0,0,1,2.75,2A10.93,10.93,0,0,1,424.69,336.81Z" style="fill:#e0e0e0"></path><path d="M419.57,332.54s0-.14,0-.42,0-.69,0-1.22c0-1.08,0-2.66,0-4.7,0-4.1-.05-10.08-.09-17.63l.17.14-104.27.09h0l.28-.23c0,8.24,0,16.27,0,24l-.27-.23,74.41.11,21.9.06,5.9,0,1.53,0h.54l-.5,0h-1.5l-5.85,0-21.84.07-74.59.1H315v-.23c0-7.7,0-15.73,0-24v-.23h.28l104.27.09h.16v.14c0,7.59-.07,13.59-.09,17.72,0,2,0,3.59,0,4.67,0,.51,0,.91,0,1.19S419.57,332.54,419.57,332.54Z" style="fill:#e0e0e0"></path><path d="M377,318.35a10.07,10.07,0,0,0-2.54-1.1,8.52,8.52,0,0,0-2.51-.37h-7a8.26,8.26,0,0,0-5.55,2,4.25,4.25,0,0,0-.83.95,2.61,2.61,0,0,0,.27,3.23c.89.79,2.72.4,2.87-.75A3,3,0,0,0,365,325a4,4,0,0,0,3.42-2.82,2.73,2.73,0,0,0,2.52,2.6,2.78,2.78,0,0,0,2.89-2.21c.86,1.06,2.13,2.05,3.6,1.6a2.5,2.5,0,0,0,1.67-1.76A3.89,3.89,0,0,0,377,318.35Z" style="fill:#e0e0e0"></path><path d="M366.27,316.85a13.91,13.91,0,0,0-2.86,2.48,13,13,0,0,0-1.62,3.34,2.07,2.07,0,0,1,0-1.13,6.43,6.43,0,0,1,1.18-2.49,6.74,6.74,0,0,1,2.14-1.82A2.2,2.2,0,0,1,366.27,316.85Z" style="fill:#f5f5f5"></path><path d="M368.93,317.13a6.94,6.94,0,0,1,0,2.62,7.56,7.56,0,0,1-.53,2.57,6.91,6.91,0,0,1,0-2.62A7.26,7.26,0,0,1,368.93,317.13Z" style="fill:#f5f5f5"></path><path d="M372.29,317.05c0-.05.4.09.81.52a4.11,4.11,0,0,1,1,2,7,7,0,0,1,0,2.2c-.08.55-.18.89-.24.88s-.1-.35-.11-.9a13.12,13.12,0,0,0-.15-2.1,5,5,0,0,0-.77-1.9C372.52,317.33,372.25,317.11,372.29,317.05Z" style="fill:#f5f5f5"></path><rect x="290.85" y="287.82" width="153.15" height="12.05" style="fill:#ebebeb"></rect><path d="M443.91,299.87s0-.28,0-.8,0-1.3,0-2.31c0-2,0-5-.06-8.94l.1.09-153,.16h0l.25-.25v12.05l-.25-.25,108.57.1,32.56.08,8.83,0,2.3,0,.8,0-.76,0h-2.27l-8.78,0-32.5.07-108.75.11h-.25V287.56h.26l153.05.16H444v.1c0,3.93,0,6.95-.05,9,0,1,0,1.76,0,2.29S443.91,299.87,443.91,299.87Z" style="fill:#e0e0e0"></path><rect x="315.02" y="413.06" width="102.27" height="14.96" style="fill:#ebebeb"></rect><rect x="46.58" y="51.62" width="106.83" height="154.84" style="fill:#e0e0e0"></rect><polygon points="150.08 209.68 43.25 209.68 41.23 51.62 148.05 51.62 150.08 209.68" style="fill:#f5f5f5"></polygon><rect x="54.5" y="68.39" width="80.28" height="121.3" style="fill:#fff"></rect><path d="M134.78,189.69s0-.2,0-.59,0-1,0-1.72c0-1.52,0-3.75,0-6.65,0-5.82,0-14.29-.07-25,0-21.39-.08-51.68-.14-87.35l.27.27-80.27,0h0l.29-.29c0,45.76,0,88-.06,121.3l-.23-.23,58.43.12,16.15.06,4.24,0,1.46,0s-.47,0-1.42,0l-4.19,0-16.09.05-58.58.13h-.23v-.24c0-33.35,0-75.54-.06-121.3V68.1h.3l80.27,0h.27v.26c-.06,35.74-.1,66.09-.13,87.53,0,10.67-.06,19.12-.08,24.92,0,2.88,0,5.09,0,6.6,0,.74,0,1.3,0,1.69S134.78,189.69,134.78,189.69Z" style="fill:#e0e0e0"></path><path d="M148.35,51.62a17.49,17.49,0,0,1-1.9,2.77c-1.24,1.66-3,3.92-5,6.36s-3.89,4.6-5.28,6.14a17.74,17.74,0,0,1-2.35,2.39,20.53,20.53,0,0,1,2-2.66L141,60.38l5.14-6.24A20.39,20.39,0,0,1,148.35,51.62Z" style="fill:#e0e0e0"></path><path d="M135.19,189.3a99.71,99.71,0,0,0,14,17.52" style="fill:#fff"></path><path d="M149.19,206.82a16.94,16.94,0,0,1-2.44-2.23,77.6,77.6,0,0,1-9.93-12.42,16,16,0,0,1-1.63-2.87,23.59,23.59,0,0,1,2,2.64c1.18,1.66,2.83,3.92,4.76,6.33s3.78,4.53,5.13,6A22.76,22.76,0,0,1,149.19,206.82Z" style="fill:#e0e0e0"></path><path d="M41.21,206.34q7-8.62,14-17.26" style="fill:#fff"></path><path d="M55.2,189.08a102.71,102.71,0,0,1-6.77,8.81,104.25,104.25,0,0,1-7.22,8.45A110,110,0,0,1,48,197.53,109.22,109.22,0,0,1,55.2,189.08Z" style="fill:#e0e0e0"></path><path d="M41.23,51.62A100.07,100.07,0,0,1,48,59.74a97,97,0,0,1,6.33,8.48,98,98,0,0,1-6.79-8.12A95.24,95.24,0,0,1,41.23,51.62Z" style="fill:#e0e0e0"></path><rect x="82.89" y="93.02" width="26.88" height="76.32" style="fill:#e0e0e0"></rect><rect x="197.39" y="49.29" width="82.22" height="85.71" style="fill:#e0e0e0"></rect><rect x="191.82" y="49.29" width="82.22" height="85.71" style="fill:#f5f5f5"></rect><path d="M274.07,135H191.8V49.27h82.27ZM191.85,135H274V49.32H191.85Z" style="fill:#e0e0e0"></path><rect x="202.88" y="60.82" width="60.12" height="62.67" style="fill:#fff"></rect><path d="M202.88,123.9a10.79,10.79,0,0,1-1.49,1.72c-1,1-2.3,2.39-3.82,3.88s-2.9,2.81-3.92,3.76a9.22,9.22,0,0,1-1.74,1.44,9.57,9.57,0,0,1,1.47-1.71c1-1,2.32-2.39,3.83-3.89s2.91-2.82,3.94-3.76A9,9,0,0,1,202.88,123.9Z" style="fill:#e0e0e0"></path><path d="M263,123.74a10.09,10.09,0,0,1,1.73,1.49c1,1,2.38,2.31,3.87,3.82s2.82,2.9,3.76,3.93a9.93,9.93,0,0,1,1.45,1.73,9.26,9.26,0,0,1-1.72-1.47c-1-1-2.39-2.31-3.88-3.83s-2.82-2.91-3.77-3.94A9.53,9.53,0,0,1,263,123.74Z" style="fill:#e0e0e0"></path><path d="M262.83,61a9.76,9.76,0,0,1,1.48-1.72c1-1,2.31-2.39,3.83-3.88s2.9-2.81,3.92-3.76a9.22,9.22,0,0,1,1.74-1.44,10,10,0,0,1-1.48,1.71c-1,1-2.31,2.39-3.83,3.89s-2.91,2.82-3.93,3.76A9.4,9.4,0,0,1,262.83,61Z" style="fill:#e0e0e0"></path><path d="M202.71,61.14A10.79,10.79,0,0,1,201,59.65c-1-1-2.39-2.31-3.88-3.82s-2.81-2.9-3.75-3.93a9.38,9.38,0,0,1-1.45-1.73,9.26,9.26,0,0,1,1.72,1.47c1,1,2.38,2.31,3.88,3.83s2.82,2.91,3.76,3.94A8.56,8.56,0,0,1,202.71,61.14Z" style="fill:#e0e0e0"></path><path d="M262.83,123.48s0-.11,0-.3,0-.5,0-.88c0-.78,0-1.91,0-3.38,0-3,0-7.29-.06-12.77,0-11-.07-26.61-.12-45.33l.23.23-59.95,0h0l.26-.26c0,23,0,44.51,0,62.66l-.23-.23,43.41.12,12.19.06,3.23,0h.86l-.81,0-3.19,0-12.14.06-43.55.12h-.23v-.23c0-18.15,0-39.66,0-62.66v-.27h.27l59.95,0h.23v.24c-.05,18.78-.09,34.46-.12,45.48,0,5.46,0,9.76-.06,12.72,0,1.44,0,2.56,0,3.33,0,.37,0,.65,0,.85A2.62,2.62,0,0,1,262.83,123.48Z" style="fill:#e0e0e0"></path><rect x="222.91" y="82.12" width="20.06" height="20.06" style="fill:#ebebeb"></rect></g><g id="background-simple"><path d="M196.42,48.78l-.87-1.42a37.74,37.74,0,0,0-34.43-18.42,36.94,36.94,0,0,0-5.33.74,39.63,39.63,0,0,0-28.24,24.54c-2.68,7.21-3.43,15.51-8.53,21.24-6.63,7.44-17.89,7.68-27.79,7.37s-21.16,0-27.76,7.43C59.33,95,58,101.61,58.35,107.88c.88,16.6,12.46,31.45,27.17,38.83s32,8,48.15,4.79c22.56-4.54,44-17,56.91-36.32S206.74,69.6,196.42,48.78Z" style="fill:#f5f5f5"></path><path d="M412,387.43l1.11.3a25.72,25.72,0,0,0,28.44-10.1A27.48,27.48,0,0,0,444,351.8c-2.09-4.9-5.68-9.43-5.85-14.75-.23-6.91,5.32-12.4,10.44-17s10.66-10.08,10.41-17c-.16-4.33-2.68-8.31-5.84-11.3-8.38-7.93-21.29-9.86-32.21-6.54S401,296.5,394.44,305.82c-9.17,13.06-14,29.59-11.26,45.45S396.83,381.89,412,387.43Z" style="fill:#f5f5f5"></path><circle cx="240.8" cy="261.6" r="26.09" transform="translate(-68.67 436.66) rotate(-76.87)" style="fill:#f5f5f5"></circle></g><g id="Floor"><path d="M462.5,472.5c0,.14-95.15.26-212.49.26S37.5,472.64,37.5,472.5s95.13-.27,212.51-.27S462.5,472.35,462.5,472.5Z" style="fill:#263238"></path></g><g id="Plant"><path d="M212.37,438.86s-4.84-33.29-4.44-52.66,0-41.15,0-41.15h2.23s-1.51,38.44.13,61.63,6,32.18,6,32.18h-3.87" style="fill:#263238"></path><path d="M226.79,307.59a5.92,5.92,0,0,0-2-3c-1.42-.89-3.27-.52-4.85,0-6.74,2.38-12.72,15-15.44,21.56l8.95,30.16C229.57,341.38,232.37,321.72,226.79,307.59Z" style="fill:#455a64"></path><path d="M224.24,305.83a2.55,2.55,0,0,1-.13.4c-.12.29-.26.65-.44,1.1-.39.95-.94,2.33-1.6,4-1.32,3.42-3,8.21-4.5,13.6s-2.52,10.37-3.16,14c-.32,1.81-.56,3.28-.71,4.29-.08.48-.14.86-.19,1.17a1.84,1.84,0,0,1-.09.4,1.28,1.28,0,0,1,0-.41c0-.31.08-.7.13-1.18.1-1,.31-2.49.59-4.31a128.62,128.62,0,0,1,3.06-14,131.49,131.49,0,0,1,4.61-13.61c.7-1.7,1.28-3.07,1.72-4,.2-.44.37-.79.5-1.07A2,2,0,0,1,224.24,305.83Z" style="fill:#263238"></path><path d="M209.44,363.6c-8.39-4.63-13.34-13.35-13.8-22.93-.32-6.69,1.74-13.26,4.07-19.54a2.56,2.56,0,0,1,.94-1.42,2.41,2.41,0,0,1,2.29.36c6.1,3.47,9.79,10.09,11.76,16.82a34.2,34.2,0,0,1,1.38,13.84,23,23,0,0,1-6.64,12.87" style="fill:#455a64"></path><path d="M209.44,363.6a1.17,1.17,0,0,1,0-.4c0-.31,0-.69,0-1.16,0-1,0-2.46-.12-4.25a115.09,115.09,0,0,0-1.56-13.93c-.93-5.4-2.06-10.24-2.89-13.74-.41-1.71-.75-3.11-1-4.14-.1-.46-.19-.83-.25-1.13a1.65,1.65,0,0,1-.07-.4,2,2,0,0,1,.14.38c.08.3.19.67.32,1.12.28,1,.66,2.37,1.11,4.11.9,3.48,2.07,8.32,3,13.73a102.66,102.66,0,0,1,1.46,14c0,1.8,0,3.25,0,4.26,0,.47,0,.85-.05,1.16A2.59,2.59,0,0,1,209.44,363.6Z" style="fill:#263238"></path><g style="opacity:0.30000000000000004"><path d="M209.44,363.6c-8.39-4.63-13.34-13.35-13.8-22.93-.32-6.69,1.74-13.26,4.07-19.54a2.56,2.56,0,0,1,.94-1.42,2.41,2.41,0,0,1,2.29.36c6.1,3.47,9.79,10.09,11.76,16.82a34.2,34.2,0,0,1,1.38,13.84,23,23,0,0,1-6.64,12.87"></path></g><path d="M218.9,414.54c8.26,1.81,15.06,7.63,23,10.47,5.27,1.87,11.23,2.53,15.44,6.22-1-2.55-3.4-4.25-5.73-5.7a102.69,102.69,0,0,0-20.86-10c-3.75-1.3-7.82-2.38-11.64-1.31" style="fill:#455a64"></path><path d="M207,421.89c-10.34-.16-21.22-9-31.52-9.49,10.78-3.48,26.2-.64,31.52,9.49" style="fill:#455a64"></path><path d="M211,397.09A33.53,33.53,0,0,1,227.54,396a100.75,100.75,0,0,1,16.13,4.39c-.53-3.59-3.43-6.29-6.16-8.67a43.32,43.32,0,0,0-6.48-5,14.56,14.56,0,0,0-7.77-2.19,12.33,12.33,0,0,0-8.58,4.32,14.19,14.19,0,0,0-3.67,8.27" style="fill:#455a64"></path><path d="M189.78,385.67c-6.51-5.56-16.37-5-24.92-4.82a202.77,202.77,0,0,1,38.65,24.09C203.86,398.89,198,392.69,189.78,385.67Z" style="fill:#455a64"></path><g style="opacity:0.30000000000000004"><path d="M189.78,385.67c-6.51-5.56-16.37-5-24.92-4.82a202.77,202.77,0,0,1,38.65,24.09C203.86,398.89,198,392.69,189.78,385.67Z"></path></g><path d="M213.93,378a73.81,73.81,0,0,1,10-5.82c3.43-1.56,6.63-4,9.93-5.83,4.29-2.32,8-5.55,11.95-8.43s8.26-5.48,13.08-6.24a25.8,25.8,0,0,0-11.9.68,78.32,78.32,0,0,0-11.21,4.36c-5.08,2.29-10.24,4.64-14.39,8.35s-7.91,7.38-7.47,12.93" style="fill:#455a64"></path><path d="M241.73,421.89l-.32-.14-.91-.47c-.77-.41-1.89-1-3.3-1.73-.7-.37-1.47-.76-2.31-1.15s-1.73-.82-2.68-1.23a39.55,39.55,0,0,0-6.37-2.22,13.74,13.74,0,0,0-6.63-.17,20.25,20.25,0,0,0-2.81.84,14.65,14.65,0,0,0-5.12,3.52c-.6.65-.89,1-.92,1a1.17,1.17,0,0,1,.19-.31c.13-.19.34-.46.62-.8a13.72,13.72,0,0,1,2.82-2.48,14.41,14.41,0,0,1,2.29-1.23,19.86,19.86,0,0,1,2.85-.89,13.8,13.8,0,0,1,6.8.14,37.25,37.25,0,0,1,6.41,2.27c1,.42,1.86.84,2.69,1.27s1.6.8,2.29,1.19c1.4.74,2.5,1.38,3.26,1.84l.86.53C241.64,421.81,241.74,421.88,241.73,421.89Z" style="fill:#263238"></path><path d="M199.25,416.77a2,2,0,0,1,.65.19,13.55,13.55,0,0,1,1.68.73,20.42,20.42,0,0,1,8.64,8.3,13,13,0,0,1,.8,1.65,2.92,2.92,0,0,1,.22.64c-.06,0-.45-.85-1.24-2.16a23.56,23.56,0,0,0-3.73-4.66,23.3,23.3,0,0,0-4.81-3.54C200.12,417.18,199.23,416.83,199.25,416.77Z" style="fill:#263238"></path><path d="M176.37,385.15a1.88,1.88,0,0,1,.44.13l1.25.44,1.95.72c.77.29,1.59.71,2.53,1.12A59.45,59.45,0,0,1,196,396.14a64.73,64.73,0,0,1,6.28,6.18,69.4,69.4,0,0,1,4.46,5.64c1.18,1.68,2.07,3.07,2.68,4l.71,1.11a2.38,2.38,0,0,1,.23.4,2.23,2.23,0,0,1-.29-.36c-.18-.24-.44-.6-.77-1.07-.65-.94-1.57-2.31-2.78-3.95s-2.71-3.56-4.49-5.58a69.2,69.2,0,0,0-6.27-6.12,62.6,62.6,0,0,0-13.33-8.62c-.93-.43-1.74-.86-2.5-1.17l-1.93-.77-1.21-.51A2.63,2.63,0,0,1,176.37,385.15Z" style="fill:#263238"></path><path d="M226.52,391.27a3.09,3.09,0,0,1-.82-.1l-.95-.18c-.37-.07-.8-.07-1.27-.12a13.09,13.09,0,0,0-7.11,1.4,12.88,12.88,0,0,0-3.23,2.4,14.39,14.39,0,0,0-2.08,2.57,20.05,20.05,0,0,0-1.42,2.72,2.66,2.66,0,0,1,.21-.81,11,11,0,0,1,1-2,13.68,13.68,0,0,1,2-2.68,12.66,12.66,0,0,1,10.61-3.82c.47.07.91.09,1.28.18l.95.24A3.55,3.55,0,0,1,226.52,391.27Z" style="fill:#263238"></path><path d="M236.91,359s-.13.1-.39.25l-1.15.62c-1,.54-2.45,1.34-4.2,2.37s-3.81,2.34-6,3.9a50.42,50.42,0,0,0-6.69,5.6,17.15,17.15,0,0,0-2.74,3.55c-.67,1.3-1.32,2.55-1.92,3.76a68.35,68.35,0,0,0-2.87,6.54,40.28,40.28,0,0,0-1.4,4.61c-.26,1.1-.36,1.73-.39,1.72a1.6,1.6,0,0,1,0-.46c0-.29.1-.73.21-1.29a33.65,33.65,0,0,1,1.3-4.67,62.49,62.49,0,0,1,2.81-6.6c.59-1.21,1.23-2.48,1.9-3.78a17.15,17.15,0,0,1,2.79-3.63,48.81,48.81,0,0,1,6.76-5.63c2.21-1.55,4.29-2.82,6.06-3.84s3.24-1.77,4.26-2.27l1.19-.57A2.35,2.35,0,0,1,236.91,359Z" style="fill:#263238"></path><path d="M207.92,390.34a3.5,3.5,0,0,1-.21-.87l-.45-2.39a60.47,60.47,0,0,0-4.91-15.2l-1-2.21a4.7,4.7,0,0,1-.33-.83,3.44,3.44,0,0,1,.46.77c.28.5.66,1.24,1.12,2.16A51,51,0,0,1,207.52,387c.16,1,.28,1.84.33,2.41A4.54,4.54,0,0,1,207.92,390.34Z" style="fill:#263238"></path><path d="M207.17,366.82a28.13,28.13,0,0,0-3.36-11.17,36.86,36.86,0,0,0-25-18.62L202,371.49l3,6.16C207,374.3,207.43,370.72,207.17,366.82Z" style="fill:#455a64"></path><rect x="186.57" y="434.74" width="53.77" height="9.53" style="fill:#FF725E"></rect><polygon points="190.59 442.38 195.16 471.95 230.86 471.95 236.32 442.38 190.59 442.38" style="fill:#FF725E"></polygon><path d="M240.31,444.28c0,.11-12.13.19-27.09.19s-27.09-.08-27.09-.19,12.13-.18,27.09-.18S240.31,444.18,240.31,444.28Z" style="fill:#263238"></path></g><g id="speech-bubble-2"><path d="M401,95.66l3-8.87a30.13,30.13,0,1,1,6.62,8.53v0Z" style="fill:#fff"></path><path d="M401,95.66h.61l1.83,0,7.21-.2h.14l-.07-.11v0l-.12.1A30,30,0,0,0,428.29,103a33.75,33.75,0,0,0,5,0,29.88,29.88,0,0,0,10.54-2.86,30.45,30.45,0,0,0,15.88-18.65,29.93,29.93,0,0,0,.78-13.77,29.55,29.55,0,0,0-5.8-13.22c-.39-.49-.76-1-1.16-1.46l-1.28-1.35-.64-.67-.69-.6-1.39-1.21c-.48-.38-1-.71-1.49-1.07a12.41,12.41,0,0,0-1.51-1,25.54,25.54,0,0,0-3.18-1.69,30.77,30.77,0,0,0-13.6-2.79,30.28,30.28,0,0,0-27.56,20.27,32.67,32.67,0,0,0-1.28,4.86,39,39,0,0,0-.43,4.67,30,30,0,0,0,3.44,14.38v-.06c-1,2.89-1.71,5.12-2.21,6.64-.25.73-.43,1.3-.56,1.69l-.18.56s.08-.2.21-.58l.6-1.7c.52-1.5,1.29-3.7,2.28-6.56v-.06a30,30,0,0,1-3.34-14.3,39.94,39.94,0,0,1,.44-4.63A31.94,31.94,0,0,1,402.47,63a30,30,0,0,1,27.31-20,30.48,30.48,0,0,1,13.44,2.76,27.81,27.81,0,0,1,3.14,1.67,15,15,0,0,1,1.5,1c.48.36,1,.69,1.46,1.06l1.37,1.2.69.6L452,52l1.27,1.33c.39.47.76,1,1.14,1.44a30,30,0,0,1,5,26.67,29.93,29.93,0,0,1-26.11,21.34,34.64,34.64,0,0,1-5,0,28.77,28.77,0,0,1-4.59-.72,29.94,29.94,0,0,1-13-6.8l-.43-.37.31.47v0l.06-.12-7.15.29-1.86.08Z" style="fill:#263238"></path><path d="M442.47,69.84a7.15,7.15,0,0,0-1.75-3.94,6.88,6.88,0,0,0-3.54-2.3A5.55,5.55,0,0,0,431,66.32a5.58,5.58,0,0,0-1.62-1.83,5.67,5.67,0,0,0-4.32-1,7,7,0,0,0-3.65,2.13,7.18,7.18,0,0,0-1.93,3.86,8.68,8.68,0,0,0,1,5.39A12.33,12.33,0,0,0,424.59,79c2.74,1.74,6.35,3.92,6.35,3.92s3.15-2.24,6-3.85a12.22,12.22,0,0,0,4.35-3.88A8.71,8.71,0,0,0,442.47,69.84Z" style="fill:#FF725E"></path></g><g id="speech-bubble-1"><circle cx="174.96" cy="203.44" r="30.64" transform="translate(-92.61 183.3) rotate(-45)" style="fill:#fff"></circle><path d="M205.61,203.44a3.3,3.3,0,0,1-.06-.5c0-.35-.06-.83-.1-1.45l-.07-1.07c0-.39-.13-.82-.2-1.28a23.17,23.17,0,0,0-.64-3.15,29.23,29.23,0,0,0-3.41-8.11,30.41,30.41,0,0,0-36.52-13,32.85,32.85,0,0,0-4,1.74c-.64.35-1.25.76-1.89,1.14a14.88,14.88,0,0,0-1.83,1.26,35.07,35.07,0,0,0-3.44,2.93,33.76,33.76,0,0,0-3,3.52,29.37,29.37,0,0,0-4.33,8.36,30.1,30.1,0,0,0,0,19.16,29.79,29.79,0,0,0,4.34,8.36,32.58,32.58,0,0,0,3,3.52,35.07,35.07,0,0,0,3.44,2.93,16.16,16.16,0,0,0,1.83,1.27c.64.37,1.25.78,1.89,1.13a32.85,32.85,0,0,0,4,1.74,30.52,30.52,0,0,0,16,1.33A30.55,30.55,0,0,0,201.13,219a29.23,29.23,0,0,0,3.41-8.11,23.17,23.17,0,0,0,.64-3.15c.07-.46.16-.89.2-1.28l.07-1.07c0-.62.08-1.1.1-1.45a3.3,3.3,0,0,1,.06-.5,3.15,3.15,0,0,1,0,.5c0,.35,0,.84,0,1.46,0,.32,0,.68,0,1.07s-.11.83-.18,1.29a21.72,21.72,0,0,1-.59,3.19,29.09,29.09,0,0,1-3.34,8.22,30.86,30.86,0,0,1-20.76,14.61,31,31,0,0,1-16.23-1.3,34.15,34.15,0,0,1-4-1.77c-.65-.35-1.28-.76-1.92-1.15a14.73,14.73,0,0,1-1.87-1.28,28.07,28.07,0,0,1-6.55-6.56,29.76,29.76,0,0,1-4.43-8.52,30.57,30.57,0,0,1,0-19.52,30,30,0,0,1,4.43-8.52,32.81,32.81,0,0,1,3-3.58,34,34,0,0,1,3.51-3,14.73,14.73,0,0,1,1.87-1.28c.64-.39,1.27-.8,1.92-1.15a32.51,32.51,0,0,1,4-1.76,30.91,30.91,0,0,1,16.23-1.31,30.81,30.81,0,0,1,20.75,14.61,29.15,29.15,0,0,1,3.35,8.22,21.72,21.72,0,0,1,.59,3.19c.07.46.14.89.18,1.29s0,.75,0,1.07c0,.62,0,1.11,0,1.46A3.15,3.15,0,0,1,205.61,203.44Z" style="fill:#263238"></path><rect x="171.94" y="188.6" width="6.62" height="29.68" transform="translate(202.02 -63.74) rotate(46.46)" style="fill:#FF725E"></rect><rect x="171.94" y="188.6" width="6.62" height="29.68" transform="translate(-91.93 176.67) rotate(-43.54)" style="fill:#FF725E"></rect><path d="M145.79,228.61a4,4,0,1,1-4-4A4,4,0,0,1,145.79,228.61Z" style="fill:#fff"></path><path d="M145.79,228.61s-.06-.35-.24-.93a4,4,0,0,0-1.45-2.05,3.71,3.71,0,1,0,0,6,4,4,0,0,0,1.45-2c.18-.58.19-.94.24-.94a2,2,0,0,1,0,1,4,4,0,0,1-1.43,2.32,4.15,4.15,0,0,1-4,.66,4.22,4.22,0,0,1,0-8,4.15,4.15,0,0,1,4,.66,4,4,0,0,1,1.43,2.32A1.89,1.89,0,0,1,145.79,228.61Z" style="fill:#263238"></path></g><g id="characters-2"><path d="M273.07,136.15c.13.71,14.52,26.29,19.43,28.78s36.4-1,36.4-1l12.16-4.57L346,149l4-4.61s-5.5-6.67-20.9-3.27-23.72,5.68-26.2,4.46S280.29,124,280.29,124Z" style="fill:#FF725E"></path><path d="M427.29,149.56c-2.63-1.49-5.93-1.29-8.9-2-5.58-1.41-9.57-6.1-11.6-11s-2.5-10.15-3.66-15.25-1.66-9.64-5.86-14.28c-7.42-8.19-22.12-8.55-24,.9l4.6,8.64A57.63,57.63,0,0,0,375,156c.74,2.61,1.79,5.35,4.15,7s6.39,1.66,7.72-.68c2.73,3.79,5.57,7.65,9.58,10.38s9.48,4.12,14,2.41,7-7.22,4.17-10.95c4.9,1,10.48.31,13.82-2.92S431.59,152,427.29,149.56Z" style="fill:#263238"></path><path d="M366.83,72.54c6.06,1.19,10.24,5.28,13.83,10.31a31.39,31.39,0,0,1-.32,35.73A24.16,24.16,0,0,1,364,128.21c-8.83.95-17.81-4-22.55-11.47S336,99.49,338.87,91.06A29.43,29.43,0,0,1,349.4,76.38a22.35,22.35,0,0,1,17.43-3.84" style="fill:#263238"></path><path d="M375.69,98.05c0-2.5,1.24-4.81,1.78-7.24,1.21-5.36,1.07-10.69-2.91-14.47-3.72-3.52-11.68-5.46-17.64-5.75a21.69,21.69,0,0,0-11.84,2.59,17.08,17.08,0,0,0-8.37,13.23l27.46,6.07c1.67,2.94,3.39,5.94,5.92,8.18a5.7,5.7,0,0,0,2.55,1.46,2.59,2.59,0,0,0,2.66-.9C375.91,100.32,375.7,99.13,375.69,98.05Z" style="fill:#263238"></path><path d="M358,145.71l17-48.9c.79-2.22,1.67-4.85-.47-5.83l-20.9-13.42c-7.05-3.22-14.93,4.15-17.85,11.34-3.24,8-6.89,17.85-8,24.26-2.16,12.88,6.69,17.58,6.69,17.58a59.21,59.21,0,0,1-1.89,7.76l-1.86,6.78C337.76,146.46,358,145.71,358,145.71Z" style="fill:#ffbf9d"></path><path d="M335.17,100a1.67,1.67,0,0,0,1,2.09,1.6,1.6,0,0,0,2.09-.87,1.66,1.66,0,0,0-1-2.09A1.59,1.59,0,0,0,335.17,100Z" style="fill:#263238"></path><path d="M336.22,94.81c.12.27,1.6-.21,3.29.36s2.64,1.83,2.89,1.68.05-.49-.36-1.07a4.56,4.56,0,0,0-2.23-1.6,4.38,4.38,0,0,0-2.71,0C336.45,94.38,336.15,94.69,336.22,94.81Z" style="fill:#263238"></path><path d="M349.65,104.81a1.66,1.66,0,0,0,1,2.09,1.58,1.58,0,0,0,2.09-.87,1.67,1.67,0,0,0-1-2.09A1.59,1.59,0,0,0,349.65,104.81Z" style="fill:#263238"></path><path d="M352.14,99.3c.13.27,1.61-.21,3.3.36s2.64,1.83,2.89,1.68.05-.49-.36-1.07a4.56,4.56,0,0,0-2.23-1.6,4.38,4.38,0,0,0-2.71,0C352.38,98.87,352.07,99.18,352.14,99.3Z" style="fill:#263238"></path><path d="M342.38,111.15a12.3,12.3,0,0,0-2.57-1.41c-.42-.19-.8-.41-.77-.73s.34-.75.71-1.18l2.38-2.86c3.33-4.08,5.9-7.49,5.74-7.62s-3,3.06-6.34,7.14c-.82,1-1.59,2-2.33,2.9a2.6,2.6,0,0,0-.79,1.61,1.14,1.14,0,0,0,.5.87,3.2,3.2,0,0,0,.69.35A11.33,11.33,0,0,0,342.38,111.15Z" style="fill:#263238"></path><path d="M334.52,130.74a32.81,32.81,0,0,0,17.85,1.12s-6.74,7.75-18.6,2.51Z" style="fill:#ff9a6c"></path><path d="M355,93.07c0,.51,1.77.86,3.67,1.76s3.32,2,3.72,1.66c.19-.16,0-.69-.44-1.35a7.09,7.09,0,0,0-5.64-2.6C355.45,92.59,355,92.83,355,93.07Z" style="fill:#263238"></path><path d="M339.18,87.59c.17.49,1.46.48,2.87.93s2.49,1.12,2.9.81c.19-.15.13-.6-.27-1.14a4.16,4.16,0,0,0-2.11-1.4,4.12,4.12,0,0,0-2.54,0C339.41,87,339.11,87.36,339.18,87.59Z" style="fill:#263238"></path><path d="M381.19,96.12c.26-7.81-6.45-21.14-14-23.24L353,75.74a12,12,0,0,0,4.59,11.39c1.85,1.37,4.29,2.43,4.88,4.66s-1.07,4.66-.56,6.95c.69,3.18,5.18,4.64,5.39,7.89.1,1.42-.7,2.79-.59,4.21.16,1.89,3.55,5.42,5.44,5.48s2.93-2.83,4-4.15a8.53,8.53,0,0,0,2.17-5.3C378.81,103.17,381.06,99.85,381.19,96.12Z" style="fill:#263238"></path><path d="M366.6,116c.3-.91,2.08-2.71,3-2.54,2.53.43,6.8,2.07,4.79,8.18-2.74,8.36-10.56,3.89-10.5,3.64S365.53,119.11,366.6,116Z" style="fill:#ffbf9d"></path><path d="M367.5,122.92c.05,0,.11.15.32.35a1.53,1.53,0,0,0,1.08.38c1,0,2.2-1.2,2.73-2.69a5.12,5.12,0,0,0,.28-2.22,1.77,1.77,0,0,0-.73-1.47.78.78,0,0,0-1,.11c-.19.2-.19.38-.24.38s-.14-.2,0-.52a1,1,0,0,1,.5-.41,1.13,1.13,0,0,1,.88,0,2.15,2.15,0,0,1,1.1,1.79,5.34,5.34,0,0,1-.26,2.5c-.61,1.66-2,3-3.31,2.91a1.65,1.65,0,0,1-1.26-.66C367.45,123.13,367.47,122.93,367.5,122.92Z" style="fill:#ff9a6c"></path><path d="M356.3,74.16c-2,3.06-8.73,5.42-11.95,7.18-6.14,3.36-7.6,4.69-11.77,15.81-.56-4.6-.67-8.94,1.12-13.21a19.21,19.21,0,0,1,9.22-10,14.93,14.93,0,0,1,13.38.2" style="fill:#263238"></path><path d="M385.42,97.6a9.33,9.33,0,0,1-1.53-.18,17.25,17.25,0,0,1-1.77-.34c-.69-.17-1.48-.32-2.32-.59A42.07,42.07,0,0,1,374,94.35a47.68,47.68,0,0,1-6.65-3.75,47.32,47.32,0,0,1-5.9-4.85,41.9,41.9,0,0,1-4.11-4.68c-.56-.69-1-1.38-1.39-2a16,16,0,0,1-.95-1.53,8.77,8.77,0,0,1-.73-1.36,8.66,8.66,0,0,1,.9,1.25c.27.42.6.92,1,1.48s.87,1.22,1.44,1.89a46.06,46.06,0,0,0,4.15,4.56,51.65,51.65,0,0,0,5.86,4.77,50.7,50.7,0,0,0,6.56,3.74,47.84,47.84,0,0,0,5.75,2.23c.83.29,1.61.46,2.28.65s1.26.33,1.75.43A8.45,8.45,0,0,1,385.42,97.6Z" style="fill:#455a64"></path><path d="M384,103.82a5,5,0,0,1-1-.13,24.59,24.59,0,0,1-2.78-.67,35.27,35.27,0,0,1-8.59-3.85,35.8,35.8,0,0,1-7.27-6,27,27,0,0,1-1.83-2.2,3.72,3.72,0,0,1-.57-.87c.07-.06,1,1.11,2.67,2.81a39.84,39.84,0,0,0,15.7,9.75C382.6,103.42,384.06,103.73,384,103.82Z" style="fill:#455a64"></path><path d="M347.49,113.82c-1.54.23-4.32.73-5.81,1.14.25,3.21,2.82,4,3.83,3.78a3.16,3.16,0,0,0,2.41-1.92A5.08,5.08,0,0,0,347.49,113.82Z" style="fill:#ff9a6c"></path><path d="M343.06,117.87s.17.13.5.29a2.6,2.6,0,0,0,.6.22,5.64,5.64,0,0,0,.87,0,2.6,2.6,0,0,0,2-.76,3.06,3.06,0,0,0,.48-2.53c-.07-.42-.18-.85-.29-1.26l.28.19c-3.42.42-6,1.06-6,.93a5.47,5.47,0,0,1,1.65-.58,35.09,35.09,0,0,1,4.28-.86l.23,0,.05.22a10,10,0,0,1,.31,1.31,3.42,3.42,0,0,1-.63,2.93,2.91,2.91,0,0,1-2.33.81,5.21,5.21,0,0,1-.93-.13,2.36,2.36,0,0,1-.64-.33C343.13,118.1,343,117.89,343.06,117.87Z" style="fill:#263238"></path><path d="M386.44,99.65a4.21,4.21,0,0,1,.09,1.12,12,12,0,0,1,0,1.33,17.47,17.47,0,0,1-.14,1.75,27.55,27.55,0,0,1-.89,4.48,31.48,31.48,0,0,1-2.07,5.21,32,32,0,0,1-3.05,4.7,28.55,28.55,0,0,1-3.14,3.32c-.47.45-1,.8-1.35,1.12a12.57,12.57,0,0,1-1.07.78,4.52,4.52,0,0,1-1,.57c-.06-.08,1.28-1,3.14-2.74a30.78,30.78,0,0,0,3-3.35,29.92,29.92,0,0,0,5-9.75,31.2,31.2,0,0,0,1-4.39C386.39,101.26,386.34,99.65,386.44,99.65Z" style="fill:#455a64"></path><path d="M370.65,127.88a3.83,3.83,0,1,1-4.12-3.53A3.83,3.83,0,0,1,370.65,127.88Z" style="fill:#455a64"></path><path d="M352.51,439.53,353.9,475l-44.06,2c.07-4.22,22.49-13.68,22.49-13.68l-1.83-22.66Z" style="fill:#455a64"></path><path d="M345.87,460.71a1.8,1.8,0,0,1,1.33,2,1.72,1.72,0,0,1-2,1.34,1.91,1.91,0,0,1-1.41-2.12,1.8,1.8,0,0,1,2.21-1.17" style="fill:#fff"></path><path d="M353.91,475l-.13-3.79-42.3,3.5s-1.92,1-1.62,2.33Z" style="fill:#263238"></path><path d="M331.61,463c0,.22,1.09.27,2.18.91s1.7,1.53,1.89,1.43-.18-1.32-1.51-2.08S331.55,462.84,331.61,463Z" style="fill:#263238"></path><path d="M327.07,465.15c0,.21.91.54,1.68,1.41s1,1.83,1.24,1.81.3-1.24-.68-2.31S327.07,465,327.07,465.15Z" style="fill:#263238"></path><path d="M324.69,470.8c.2,0,.45-1.05-.15-2.21s-1.64-1.57-1.72-1.39.57.78,1.05,1.74S324.48,470.79,324.69,470.8Z" style="fill:#263238"></path><path d="M331.76,457.82c.1.2,1.08-.15,2.3-.12s2.18.37,2.28.18-.84-.91-2.27-.93S331.65,457.66,331.76,457.82Z" style="fill:#263238"></path><path d="M377.17,415.91l19.61,29.53L360.17,470c-2.14-3.64,12.09-23.38,12.09-23.38l-13.34-18.4Z" style="fill:#455a64"></path><path d="M382.51,437.45a1.8,1.8,0,0,1,2.18,1,1.73,1.73,0,0,1-1,2.17,1.89,1.89,0,0,1-2.3-1.08,1.79,1.79,0,0,1,1.27-2.14" style="fill:#fff"></path><path d="M396.82,445.5l-2.08-3.17-34.31,25s-1.14,1.81-.18,2.83Z" style="fill:#263238"></path><path d="M371.54,446.85c.13.18,1.07-.34,2.34-.36s2.24.42,2.36.24-.85-1-2.38-1S371.39,446.72,371.54,446.85Z" style="fill:#263238"></path><path d="M368.77,451c.07.2,1.05,0,2.17.33s1.82,1,2,.91-.4-1.22-1.79-1.63S368.66,450.85,368.77,451Z" style="fill:#263238"></path><path d="M369.67,457.08c.19-.07-.16-1.13-1.28-1.8s-2.21-.5-2.19-.3.9.38,1.8.94S369.48,457.18,369.67,457.08Z" style="fill:#263238"></path><path d="M369,442.32c.19.11.84-.68,1.9-1.29s2.06-.82,2.05-1-1.2-.34-2.43.39S368.78,442.24,369,442.32Z" style="fill:#263238"></path><path d="M303.47,289.47c-1,3.51-4.6,33.74-6.64,49.67s-1.14,23.95.37,27.69S369,442.32,369,442.32l22.36-13.7s-26.8-49.33-37-58.65-30.53-18.84-30.53-18.84l13.64-87.07L308.89,260Z" style="fill:#263238"></path><path d="M303.22,255.84c-.18,2.07-8.1,54,5.65,93.19,0,0,4.88,12.33,5.46,17.59s15.19,92.77,15.19,92.77l25.59,1.31S363,418.18,361,393s-9.77-22.94-8.36-39,8.13-48.92,8.13-48.92,6.37-8.59,9.81-26C373.37,264.93,368,249,368,249l-9.88-27.68-51.75,7.43Z" style="fill:#263238"></path><path d="M303.22,255.84s0-.6.17-1.77l.57-5.21c.52-4.59,1.28-11.36,2.26-20.09l0-.14.14,0,56,7.79.12,0,.05.11,5.64,12.36h0a75.89,75.89,0,0,1,2.88,13.26,58,58,0,0,1,.16,14.32,88.21,88.21,0,0,1-3.59,14.59A60.48,60.48,0,0,1,361,305.28l.05-.11c-1.72,8.61-3.41,17.53-5,26.73-.78,4.61-1.52,9.28-2.17,14-.32,2.38-.62,4.77-.85,7.18-.15,1.2-.16,2.4-.25,3.61a33.78,33.78,0,0,0,.13,3.63,23.88,23.88,0,0,0,1.82,7.05c.94,2.28,2,4.55,2.88,6.92a62,62,0,0,1,3.31,14.84c1.16,10.2.65,20.65-.15,31.15-1.17,13.86-3.07,27.39-5.36,40.45l-.05.27h-.27l-25.59-1.32h-.25l0-.24c-4.87-29.31-9.42-56.71-13.38-81.33-.49-3.08-1-6.12-1.43-9.11-.25-1.51-.36-3-.7-4.44s-.72-2.86-1.14-4.26c-.85-2.8-1.8-5.52-2.78-8.18-.25-.66-.5-1.32-.74-2a17.38,17.38,0,0,1-.7-2l-1.23-4a155.53,155.53,0,0,1-5.51-29.75,255.27,255.27,0,0,1-.09-43.13c.82-10.05,1.7-15.47,1.7-15.47s0,.34-.09,1-.19,1.67-.34,3c-.3,2.61-.68,6.49-1.06,11.51A259.43,259.43,0,0,0,302,314.4a155.91,155.91,0,0,0,5.56,29.65L308.8,348a18.44,18.44,0,0,0,.69,2l.75,2c1,2.67,1.94,5.39,2.81,8.21.42,1.4.83,2.83,1.16,4.3s.46,3,.7,4.46c.48,3,1,6,1.45,9.1,4.07,24.61,8.61,52,13.46,81.32l-.28-.25,25.59,1.3-.32.25c2.28-13,4.17-26.56,5.34-40.39.81-10.48,1.31-20.9.17-31a62.47,62.47,0,0,0-3.28-14.7c-.85-2.34-1.92-4.59-2.87-6.9a24.15,24.15,0,0,1-1.85-7.22,32.69,32.69,0,0,1-.14-3.7c.09-1.22.11-2.46.26-3.66.23-2.42.53-4.82.85-7.2.66-4.75,1.41-9.43,2.19-14,1.58-9.2,3.27-18.13,5-26.75V305l0-.06a60,60,0,0,0,6.61-14,87.49,87.49,0,0,0,3.59-14.48,57.39,57.39,0,0,0-.14-14.18,76.08,76.08,0,0,0-2.83-13.17v0c-2-4.33-3.87-8.53-5.62-12.37l.18.13-56-8,.15-.12c-1,8.73-1.84,15.48-2.39,20.08-.28,2.27-.49,4-.63,5.2S303.22,255.84,303.22,255.84Z" style="fill:#455a64"></path><path d="M331.77,139.81S304.68,166.45,303,178.64c-1,7.65,4,25.86,4.84,37.12.13,2-3.52,6.53-4.05,9-.94,4.54,1.76,4.59,6.48,4.81,8.39.4,25-.41,34.33,0l17.62-.76-4.6-18.42s2.71-16.12,3.66-22.3c2.48-16,4.29-20.23,3.59-29a46.32,46.32,0,0,0-5.21-16.76C345,141.65,334,143.25,331.77,139.81Z" style="fill:#455a64"></path><path d="M317.81,204.88s-.29-.22-.73-.69a22.56,22.56,0,0,1-1.74-2.14,32.75,32.75,0,0,1-4.27-8.13,34.08,34.08,0,0,1-1.88-9.07,24.74,24.74,0,0,1,0-2.81,3.58,3.58,0,0,1,.12-1c.11,0,.1,1.46.35,3.8a39.23,39.23,0,0,0,2,8.88,38.34,38.34,0,0,0,4,8.09C317,203.71,317.89,204.8,317.81,204.88Z" style="fill:#263238"></path><path d="M317.33,223.7a301.09,301.09,0,0,1,6.46-39c1-4.67,1.68-8.82,2.33-12.63A35.93,35.93,0,0,1,360,142h.19a33.58,33.58,0,0,1,7.1,23c-.34,5.22-8.12,51.51-8.12,51.51s19.5,56.61,13,66.12c-.49.7-49.16,4.33-54.31.45S316.85,229.12,317.33,223.7Z" style="fill:#FF725E"></path><path d="M257.73,184l-11.89-.08a7.11,7.11,0,0,0-.57,8.53c.74,1.08,1.78,1.94,2.46,3.06.9,1.5,1.06,3.31,1.54,5s1.52,3.43,3.22,3.82a4,4,0,0,0,3.95-1.71,9.82,9.82,0,0,0,1.57-4.22A36.83,36.83,0,0,0,257.73,184Z" style="fill:#e0e0e0"></path><path d="M283.39,102.22l1.68-7.11A12.41,12.41,0,0,0,297.78,86a97.33,97.33,0,0,0,2.73-12.91c1.42-8.46-.75-13.34-.75-13.34a16.24,16.24,0,0,0-13.08-9.49c-6.72-.85-13.39,2.31-17.15,5.94a10.47,10.47,0,0,0-3.18,6.78c-.44,5.91-1.27,17.11-1.44,20.13a33.3,33.3,0,0,1-.62,5.6l-.91,6.6A11.51,11.51,0,0,0,271.86,109h0C277.79,110.49,281.92,107.06,283.39,102.22Z" style="fill:#ffbf9d"></path><path d="M285.08,95.14s-8.26-1.53-9.92-3.35c0,0,.64,4.22,9.45,5.56Z" style="fill:#ff9a6c"></path><path d="M278,56.7c4.41,2.21,6.6,2.25,11.83,3.4a29.6,29.6,0,0,0,9,.49c1.86-.16,2.16,9.52,2.16,9.52,3.11-9-2.28-17-10.57-19.89-5.56-1.95-10.21-2.79-16.27-.3-1,.41-4.25,1.69-5.73,3.2-5.89,6-5.83,12.34-5.21,18.43l2.35.32-.1.84a2.93,2.93,0,0,0,2.16,3.13,4.7,4.7,0,0,0,1.07.16c1.09,0,2.34-2.12,2.55-3.18a27.53,27.53,0,0,0,.45-5.27l.33-2.66s3.16-.79,4-2S278,56.7,278,56.7Z" style="fill:#263238"></path><path d="M266.41,71.21c-.16-.1-6.45-3.84-7.32,3s6.27,5.75,6.3,5.56S266.41,71.21,266.41,71.21Z" style="fill:#ffbf9d"></path><path d="M263.56,76.68s-.1.06-.26.11a.91.91,0,0,1-.67-.07,2.23,2.23,0,0,1-.78-2.14,3,3,0,0,1,.41-1.26,1,1,0,0,1,.77-.6.47.47,0,0,1,.5.31c.05.15,0,.25,0,.26s.12-.07.11-.29a.63.63,0,0,0-.17-.35.68.68,0,0,0-.48-.19,1.28,1.28,0,0,0-1,.68,3.09,3.09,0,0,0-.5,1.41,2.38,2.38,0,0,0,1,2.4,1,1,0,0,0,.84,0C263.54,76.81,263.58,76.7,263.56,76.68Z" style="fill:#ff9a6c"></path><path d="M295.85,74.07c-.19.19-1.29-.71-2.91-.79s-2.85.68-3,.47.12-.43.66-.79a4.08,4.08,0,0,1,2.42-.61,4,4,0,0,1,2.31.87C295.8,73.63,296,74,295.85,74.07Z" style="fill:#263238"></path><path d="M282,71.69c-.22.15-1.16-.91-2.75-1.24s-2.92.21-3,0,.19-.41.78-.68a4.19,4.19,0,0,1,2.49-.22,4,4,0,0,1,2.14,1.23C282,71.24,282.13,71.62,282,71.69Z" style="fill:#263238"></path><path d="M282.68,66.59c-.3.33-1.42-.19-2.82-.43s-2.64-.19-2.8-.61c-.07-.2.2-.51.76-.75a4.15,4.15,0,0,1,2.32-.2,4.22,4.22,0,0,1,2.1,1C282.68,66,282.82,66.43,282.68,66.59Z" style="fill:#263238"></path><path d="M296.83,69.33c-.3.34-1.42-.19-2.83-.43s-2.63-.19-2.79-.6c-.07-.21.2-.52.76-.76a4.34,4.34,0,0,1,2.32-.2,4.22,4.22,0,0,1,2.1,1C296.83,68.78,297,69.17,296.83,69.33Z" style="fill:#263238"></path><path d="M284.85,80.79c0,.07.22.28.74.32a1.68,1.68,0,0,0,1.69-1,1.45,1.45,0,0,0,0-1.19,1.27,1.27,0,0,0-.71-.65,2.24,2.24,0,0,0-.57-.08c-.11,0-.18,0-.21,0s0,.12.12.21.33.15.47.25a1,1,0,0,1,.35,1.21,1.36,1.36,0,0,1-.49.59,1.81,1.81,0,0,1-.63.24C285.17,80.74,284.88,80.7,284.85,80.79Z" style="fill:#263238"></path><path d="M279.5,80.42a.87.87,0,0,0-.67.27,1.62,1.62,0,0,0-.43.89,2.84,2.84,0,0,0,.14,1.38,3.56,3.56,0,0,0,1,1.45,3.48,3.48,0,0,0,1.55.79,2.92,2.92,0,0,0,1.39,0,1.58,1.58,0,0,0,.83-.54.87.87,0,0,0,.18-.7,2.68,2.68,0,0,0-.75-1.2c-.32-.34-.63-.66-.92-.92s-.64-.51-1-.79A2.57,2.57,0,0,0,279.5,80.42Z" style="fill:#ff9a6c"></path><path d="M281.34,85.28a3.8,3.8,0,0,0-.49-.14,3.82,3.82,0,0,1-1.18-.63,3,3,0,0,1-.61-.69,3.54,3.54,0,0,1-.41-1,2.72,2.72,0,0,1-.06-1.14,2.11,2.11,0,0,1,.52-1.07.85.85,0,0,1,.48-.28.8.8,0,0,1,.51.13,4.92,4.92,0,0,1,.86.79l1.45,1.46A11.66,11.66,0,0,0,283.8,84a11.59,11.59,0,0,0-1.23-1.45l-1.4-1.51a5.4,5.4,0,0,0-.91-.86,1,1,0,0,0-.72-.16,1.15,1.15,0,0,0-.66.35,2.43,2.43,0,0,0-.6,1.25,3,3,0,0,0,.09,1.27,3.9,3.9,0,0,0,.47,1,3,3,0,0,0,.69.72,3.39,3.39,0,0,0,1.29.58A1.05,1.05,0,0,0,281.34,85.28Z" style="fill:#263238"></path><path d="M281.06,74.92a1.51,1.51,0,0,1-1.62,1.34,1.43,1.43,0,0,1-1.38-1.53,1.49,1.49,0,0,1,1.61-1.34A1.44,1.44,0,0,1,281.06,74.92Z" style="fill:#263238"></path><path d="M294.78,77.42a1.5,1.5,0,0,1-1.62,1.34,1.44,1.44,0,0,1-1.39-1.53,1.51,1.51,0,0,1,1.62-1.34A1.45,1.45,0,0,1,294.78,77.42Z" style="fill:#263238"></path><path d="M276.16,92.33a17.85,17.85,0,0,0-11.2-3.9,7.38,7.38,0,0,0-3,.48c-2.43,1.2-6.38,5.47-7.93,8s-12.87,30.79-12.87,30.79,11.12,10.24,16.93,13.87a61.42,61.42,0,0,0,13,5.75s8.1-13.26,9.69-18.68,3.15-19.85,3.5-23.65a36.35,36.35,0,0,0,0-6.3Z" style="fill:#455a64"></path><path d="M243.28,122.43s-7.21,9.42-6.67,16.46c.84,11,10.74,20.39,11.09,26.94.11,2-5.25,17.6-4.45,19.53s15,11.4,17,8.1,12.77-21,11.25-31S269.07,140,269.07,140Z" style="fill:#263238"></path><path d="M269,47.67c.11-.1,1,.71,1.9,1.8a6.88,6.88,0,0,1,1.52,2.15c-.11.09-1-.71-1.91-1.81A6.85,6.85,0,0,1,269,47.67Z" style="fill:#263238"></path><path d="M273.83,46.13c.14.07-.36,1.25-.48,2.79s.16,2.79,0,2.83a4.19,4.19,0,0,1-.53-2.87A4.26,4.26,0,0,1,273.83,46.13Z" style="fill:#263238"></path><path d="M260,130.36s-6.71-11.33-7.93-13-2.66-12.53-2.66-12.53.54-.62,2,.37a20.46,20.46,0,0,1,.19-4.22,11,11,0,0,1,.64-2,1.64,1.64,0,0,1,1.41-1,.74.74,0,0,1,.53.13l.92-3.62a1.5,1.5,0,0,1,1-1.08,1.16,1.16,0,0,1,1.34.52,1.26,1.26,0,0,1,1.46-1.14c1.43,0,1.69,1.35,2.46,3.57.94,2.7,2.95,7.6,2.95,7.6l11.11,15.13a43.64,43.64,0,0,0-1,8.86l-12.84,6.37Z" style="fill:#ffbf9d"></path><path d="M257.44,93.93c.15,0,.26,2.95,1,6.5a29.08,29.08,0,0,0,1.26,4.45,16.72,16.72,0,0,1,.72,1.79,4.63,4.63,0,0,1-1.06-1.64,20.51,20.51,0,0,1-1.43-4.49A19.56,19.56,0,0,1,257.44,93.93Z" style="fill:#ff9a6c"></path><path d="M254.29,98.3a13.77,13.77,0,0,1,0,1.64,12.59,12.59,0,0,0,.71,3.82c1,2.93,2.06,5.19,1.94,5.26a16.32,16.32,0,0,1-2.44-5.1,10.51,10.51,0,0,1-.58-4A3.17,3.17,0,0,1,254.29,98.3Z" style="fill:#ff9a6c"></path><path d="M251.37,104.91a27.3,27.3,0,0,1,1.53,4.21,26.26,26.26,0,0,1,1.31,4.27,15.46,15.46,0,0,1-1.81-4.11A15.38,15.38,0,0,1,251.37,104.91Z" style="fill:#ff9a6c"></path><path d="M289.22,104.87a22.17,22.17,0,0,1,2.12-4.46,5.77,5.77,0,0,1,2.33-1.69s1.57-1.83,2.49-1.89,2.07,1.09,2.07,1.09.91.15.95.8-.48.55-.48.55l-.24.83s1.36,0,1.75.91a2.45,2.45,0,0,1,.21,1.56,2,2,0,0,1,1.14,1,1.94,1.94,0,0,1-.11,1.7,2.39,2.39,0,0,1,.69,1.2A5.2,5.2,0,0,1,300,109.9c-.9.34-5.75,2.09-5.75,2.09Z" style="fill:#ffbf9d"></path><path d="M298.28,100.25c.12.08-.16.6-.79.91s-1.21.23-1.21.09.47-.29,1-.55S298.17,100.15,298.28,100.25Z" style="fill:#ff9a6c"></path><path d="M293.82,98.61c0-.06.22-.27.69-.53a4.1,4.1,0,0,1,2-.55,2.26,2.26,0,0,1,1.91,1c.31.5.24.88.17.88s-.14-.31-.46-.66a2.21,2.21,0,0,0-1.63-.67,5.5,5.5,0,0,0-1.88.37C294.17,98.59,293.85,98.68,293.82,98.61Z" style="fill:#ff9a6c"></path><path d="M300.28,102.66c.14,0,.13.59-.35,1s-1.05.43-1.06.29.36-.33.71-.67S300.14,102.63,300.28,102.66Z" style="fill:#ff9a6c"></path><path d="M300.11,106.33c0-.15.28-.34.61-.59s.61-.48.74-.41,0,.51-.43.83S300.14,106.47,300.11,106.33Z" style="fill:#ff9a6c"></path><path d="M263.24,97.68s1.29,14.44,3.2,18.93,3.58,6.22,6.67,6.76,16.27-7.8,18.78-9.58l3.57-2.2-5.89-7.65s-7.39,4.81-9.08,4.63a19.87,19.87,0,0,0-3.38,0l-1.09-9s-1.86-4.44-5.61-5.27S263.24,97.68,263.24,97.68Z" style="fill:#455a64"></path><path d="M271.88,111a1.44,1.44,0,0,1,.22-.34,5.7,5.7,0,0,1,.83-.85,6.2,6.2,0,0,1,4.2-1.4h0l2.78-.18c.5,0,1-.08,1.55-.15a2.12,2.12,0,0,0,.34-.06l.36-.2.74-.42,6.57-3.71.18-.11.13.17,5.9,7.64.18.23-.25.15-.11.07c-6.93,4.24-13.22,8-18,10.45a9.62,9.62,0,0,1-3.48,1,5.9,5.9,0,0,1-2.72-.38,4.93,4.93,0,0,1-1.47-.91,1.54,1.54,0,0,1-.39-.46,5.58,5.58,0,0,0,4.55,1.46,9.44,9.44,0,0,0,3.34-1.07c4.68-2.49,11-6.33,17.87-10.56l.12-.08-.07.38-5.88-7.65.32.07L283,107.83l-.74.4-.36.2a2.37,2.37,0,0,1-.45.09c-.55.06-1.07.09-1.57.12l-2.79.12h0A6.22,6.22,0,0,0,273,110,11.84,11.84,0,0,0,271.88,111Z" style="fill:#263238"></path><path d="M278.05,108.67a26,26,0,0,1-.66-3.19c-.38-2-1-4.68-1.83-7.62A12,12,0,0,0,273.83,94a7.11,7.11,0,0,0-2.68-2.08,6.94,6.94,0,0,0-2.21-.72c-.54-.07-.84,0-.86,0A1.46,1.46,0,0,1,269,91a6.41,6.41,0,0,1,2.34.6,7,7,0,0,1,2.91,2.13,11.59,11.59,0,0,1,1.85,4,57,57,0,0,1,1.69,7.71A15.9,15.9,0,0,1,278.05,108.67Z" style="fill:#263238"></path><path d="M362.76,169.29a19.45,19.45,0,0,1-11.27,11.34c-7,2.74-49.3,18.24-59.44,18.88a18.66,18.66,0,0,1-8.57-1.46,19.75,19.75,0,0,1-11.28-13.39c-1.79-7.11-5.23-21-7.71-32-3.42-15.13-3.74-20.54-3.74-20.54l15.64-5.25,16.23,43s25.39-6,30.88-10.78,20.85-16.14,30.82-10.72" style="fill:#FF725E"></path><path d="M354.32,148.37a12.67,12.67,0,0,0-4.58-1.29c-3.12-.35-7.79.55-13,3.2a60.12,60.12,0,0,0-8.27,5.08c-1.43,1-2.89,2.17-4.34,3.41a19.67,19.67,0,0,1-5.1,3.11,108,108,0,0,1-12.33,4.4c-4.41,1.34-9.1,2.61-14,3.8l-.19,0-.07-.18C287.51,157,282,142.51,276.15,127l.32.15-15.63,5.25.17-.26a147.78,147.78,0,0,0,2.47,14.72c1,4.89,2.21,9.67,3.34,14.4s2.26,9.38,3.37,14q.82,3.43,1.63,6.8c.29,1.12.52,2.26.84,3.34A19.53,19.53,0,0,0,283,197.56a18.52,18.52,0,0,0,12.2,1.24c4-.79,7.83-1.88,11.52-3,7.37-2.19,14.17-4.46,20.36-6.57s11.76-4.1,16.65-5.87c2.44-.89,4.71-1.73,6.79-2.52a25.38,25.38,0,0,0,2.92-1.25,21.44,21.44,0,0,0,2.46-1.51,19.61,19.61,0,0,0,5.58-6.17,19.92,19.92,0,0,0,1-2c.19-.45.3-.68.3-.68a14.91,14.91,0,0,1-1.18,2.69,19.25,19.25,0,0,1-5.56,6.29,20.69,20.69,0,0,1-2.46,1.54,27.39,27.39,0,0,1-2.94,1.29q-3.12,1.2-6.78,2.55c-4.88,1.8-10.45,3.8-16.63,5.95s-13,4.43-20.36,6.64c-3.69,1.1-7.52,2.2-11.56,3A19,19,0,0,1,282.81,198a19.78,19.78,0,0,1-9.38-9.28,19.34,19.34,0,0,1-1.25-3.22c-.33-1.12-.56-2.23-.84-3.36q-.82-3.36-1.65-6.8-1.67-6.87-3.37-14c-1.14-4.73-2.35-9.52-3.35-14.42a148.68,148.68,0,0,1-2.48-14.79V132l.19-.07,15.64-5.24.23-.08.09.23c5.85,15.52,11.31,30,16.19,43l-.25-.13c4.91-1.19,9.6-2.44,14-3.76a107.87,107.87,0,0,0,12.29-4.35c3.87-1.48,6.44-4.47,9.41-6.44a58.83,58.83,0,0,1,8.33-5.05c5.27-2.64,10-3.51,13.14-3.12a12.15,12.15,0,0,1,3.48.88A9.67,9.67,0,0,1,354.32,148.37Z" style="fill:#263238"></path><path d="M291.12,180.82a30,30,0,0,1,.46-5.46,28.78,28.78,0,0,1,1-5.38,29.24,29.24,0,0,1-.45,5.45A28.7,28.7,0,0,1,291.12,180.82Z" style="fill:#263238"></path><path d="M316.83,192.89s7.83,2.45,19.31-1.86,15.35-10.4,15.35-10.4Z" style="opacity:0.30000000000000004"></path></g><g id="character-1"><path d="M108.81,187.29c2.72.67,4.65,3.63,4.76,6.19,0,0-.2-.44,1.72-.58a6,6,0,0,1,4.61,1.38c1.13,1.1,3.49,4.47,1.83,7.33,2.88,1.83.07,10.79-.83,13-1.28,3.16-1.88,3-5,4.36-5,2.27-6.08-.73-11.29-2.45-9.63-3.17-19.82-4.16-29.91-5.13-2.35-5.42.61-13.11,5.89-15.76s10.35-.8,16.94-4.41C97.55,191.21,104,186.08,108.81,187.29Z" style="fill:#263238"></path><path d="M118.49,209.13c-2.58-7.22-12.62-12.27-19.72-9.39l-19.13,10.2.34,3.79,16,49.72-.62.12s4.38,15.21,17.45,10.47c11.73-4.26,6-16.24,6-16.25l-3.56-10.37s11.41-3.06,9.83-15.87C124.28,225.18,121.35,217.15,118.49,209.13Z" style="fill:#ffbf9d"></path><path d="M118.35,220.76a1.64,1.64,0,0,1-1.06,2,1.57,1.57,0,0,1-2-.95,1.64,1.64,0,0,1,1.06-2A1.56,1.56,0,0,1,118.35,220.76Z" style="fill:#263238"></path><path d="M118.2,216.27c-.13.26-1.58-.28-3.27.21s-2.68,1.7-2.92,1.54,0-.49.4-1a4.54,4.54,0,0,1,2.27-1.48,4.32,4.32,0,0,1,2.68.08C118,215.83,118.27,216.15,118.2,216.27Z" style="fill:#263238"></path><path d="M104.67,224.9a1.64,1.64,0,0,1-1.06,2,1.57,1.57,0,0,1-2-.95,1.63,1.63,0,0,1,1.06-2A1.56,1.56,0,0,1,104.67,224.9Z" style="fill:#263238"></path><path d="M102.72,221c-.13.26-1.58-.28-3.27.21s-2.68,1.7-2.92,1.54,0-.49.4-1a4.5,4.5,0,0,1,2.27-1.49,4.34,4.34,0,0,1,2.67.09C102.51,220.58,102.79,220.9,102.72,221Z" style="fill:#263238"></path><path d="M112.16,236.36c-.25.16-1.22-1-2.93-1.47s-3.17.11-3.3-.15.22-.43.87-.69a4.51,4.51,0,0,1,2.71-.14,4.35,4.35,0,0,1,2.27,1.43C112.2,235.87,112.28,236.29,112.16,236.36Z" style="fill:#263238"></path><path d="M112,230.69c0-.07.06-.17,1.71-.85.42-.16.81-.35.82-.6s-.24-.58-.56-.91l-2-2.18a29.26,29.26,0,0,1-3-3.85c.17-.11.87.33,3.64,3.45l1.92,2.21c.27.33.67.68.59,1.25a1.12,1.12,0,0,1-.57.71,4.26,4.26,0,0,1-.71.29C112.17,230.8,112,230.69,112,230.69Z" style="fill:#263238"></path><path d="M115.24,247.42s-6.45,2.41-16-.14c0,0,5.29,8.28,17.22,3.6Z" style="fill:#ff9a6c"></path><path d="M101.71,218.25c0,.57-1.61.61-3.34,1.23S95.32,221,95,220.59c-.15-.22,0-.78.48-1.42a5,5,0,0,1,2.34-1.69,4.53,4.53,0,0,1,2.78-.1C101.31,217.61,101.72,218,101.71,218.25Z" style="fill:#263238"></path><path d="M115.45,211.68c0,.58-1.35.86-2.65,1.68s-2.19,1.81-2.71,1.56c-.24-.13-.33-.64-.1-1.33a4.13,4.13,0,0,1,4.32-2.6C115,211.1,115.44,211.41,115.45,211.68Z" style="fill:#263238"></path><path d="M75,206.26s-7.58,2.11-6.27,11.18S76,233.19,80.89,235.89s7.59,2.53,7.59,2.53l0-16.07Z" style="fill:#263238"></path><path d="M115.43,202.49A18.53,18.53,0,0,0,102,197.23a30.57,30.57,0,0,0-14.1,3.94,90.57,90.57,0,0,0-12.23,8.28,4.86,4.86,0,0,0-2.18,2.73,4.78,4.78,0,0,0,.38,2.37L80.51,234l2.91,3.54c2.13-.57,3.5-2.64,4.43-4.64a30.5,30.5,0,0,0,1.2-22.57,10,10,0,0,1,2,2.53,3.41,3.41,0,0,0,2.58,1.71c1.79,0,2.66-2.3,2.44-4.08s-1-3.55-.61-5.3a20.36,20.36,0,0,0,8.19,4.13c1.42.35,3.18.42,4-.76a2.75,2.75,0,0,0,0-2.92,8,8,0,0,0-2.14-2.2,16.13,16.13,0,0,0,8.87,2.41,2.2,2.2,0,0,0,1.84-.69C116.76,204.31,116.12,203.2,115.43,202.49Z" style="fill:#263238"></path><path d="M85.47,229.6c-.21,0-8.15,0-5.71,7.4s9.37,3.41,9.31,3.19S85.47,229.6,85.47,229.6Z" style="fill:#ffbf9d"></path><path d="M82.4,236.83l-.18-.42a4.54,4.54,0,0,1-.25-2,1.58,1.58,0,0,1,.65-1.31.68.68,0,0,1,.87.1c.17.17.17.34.21.34s.12-.18,0-.47a.86.86,0,0,0-.44-.36,1,1,0,0,0-.78.05,1.9,1.9,0,0,0-1,1.59,4.62,4.62,0,0,0,.23,2.21c.54,1.47,1.77,2.61,2.94,2.57a1.45,1.45,0,0,0,1.11-.59c.17-.26.15-.44.12-.44s-.09.13-.28.3a1.33,1.33,0,0,1-1,.34,3.12,3.12,0,0,1-2.24-1.95" style="fill:#ff9a6c"></path><path d="M85.67,205.52s0,0,.06.09l.13.25c.12.22.28.56.48,1a21.55,21.55,0,0,1,1.32,3.84,14.94,14.94,0,0,1,.28,6A6.91,6.91,0,0,1,86.61,220a4,4,0,0,1-1.53,1.14,3.06,3.06,0,0,1-2,.15,4.37,4.37,0,0,1-1.94-1.23,11.92,11.92,0,0,1-1.35-1.71H80c-.57.85-1,1.79-1.43,2.63a5.78,5.78,0,0,1-1.81,2.12,2.87,2.87,0,0,1-2.42.41,3.49,3.49,0,0,1-1.76-1.21,4.18,4.18,0,0,1-.73-1.59,5.9,5.9,0,0,1-.13-1.29,6.08,6.08,0,0,1,.08-.82,1,1,0,0,1,.06-.27l0,.28c0,.18,0,.45,0,.81a5.35,5.35,0,0,0,.16,1.27,4,4,0,0,0,.73,1.53,3.44,3.44,0,0,0,1.69,1.14,2.72,2.72,0,0,0,2.28-.42,5.64,5.64,0,0,0,1.73-2.05c.46-.84.85-1.78,1.43-2.66a.11.11,0,0,1,.15,0l0,0a12.42,12.42,0,0,0,1.33,1.68,4.16,4.16,0,0,0,1.83,1.16,2.83,2.83,0,0,0,1.82-.13,3.81,3.81,0,0,0,1.45-1.08,6.77,6.77,0,0,0,1.3-3.2,15.3,15.3,0,0,0-.23-5.93,23.84,23.84,0,0,0-1.25-3.83c-.19-.44-.33-.78-.44-1l-.11-.26A.55.55,0,0,1,85.67,205.52Z" style="fill:#455a64"></path><path d="M104.75,195s0,.11,0,.31a1.51,1.51,0,0,0,.47.72c.28.26.69.51,1.11.89a1.86,1.86,0,0,1,.52.74,1.32,1.32,0,0,1-.07,1,1.89,1.89,0,0,1-.76.83,4,4,0,0,1-1.13.43,16.85,16.85,0,0,1-2.59.36,17.53,17.53,0,0,1-6-.63,17.88,17.88,0,0,1-2.37-.87l.15-.1a13.07,13.07,0,0,1,0,2.66,4.54,4.54,0,0,1-1,2.27,2.9,2.9,0,0,1-1.9,1.11,3.35,3.35,0,0,1-1.87-.35,4.94,4.94,0,0,1-1.27-.91,8.11,8.11,0,0,1-.79-.85l-.45-.58a1.11,1.11,0,0,1-.14-.21l.17.18.48.55a6.59,6.59,0,0,0,2.06,1.69,3.29,3.29,0,0,0,1.79.31A2.72,2.72,0,0,0,93,203.49a4.34,4.34,0,0,0,.89-2.18,12.66,12.66,0,0,0,0-2.62.12.12,0,0,1,.11-.12h0a16.59,16.59,0,0,0,2.34.85,17.36,17.36,0,0,0,5.87.65,17.77,17.77,0,0,0,2.57-.34,3.66,3.66,0,0,0,1.08-.4,1.74,1.74,0,0,0,.71-.74,1.22,1.22,0,0,0,.08-.91,1.82,1.82,0,0,0-.48-.69c-.39-.38-.8-.64-1.07-.92a1.37,1.37,0,0,1-.46-.77.47.47,0,0,1,0-.24A.28.28,0,0,1,104.75,195Z" style="fill:#455a64"></path><polygon points="86.69 462.55 86.34 441.9 102.01 442.47 100.43 463.22 93.33 465.81 86.69 462.55" style="fill:#e0e0e0"></polygon><path d="M86.66,462.06v1s-15,6.61-15.14,9.82l29.68.17-.42-11.17c-.84-1.27-4.64-1.31-7-1.27S88.25,460.38,86.66,462.06Z" style="fill:#455a64"></path><path d="M101.19,473l-.1-2.69-28.41.82s-1.32.64-1.17,1.7Z" style="fill:#e0e0e0"></path><path d="M86.88,467.07s.1-.24.09-.65a3.68,3.68,0,0,0-.43-1.5,3.15,3.15,0,0,0-1-1.11c-.31-.21-.53-.26-.55-.21a7.28,7.28,0,0,1,1.27,1.51A8.63,8.63,0,0,1,86.88,467.07Z" style="fill:#263238"></path><path d="M88.44,466.69a3.19,3.19,0,0,0-.47-2.11c-.58-1.07-1.43-1.52-1.45-1.43s.65.63,1.18,1.62A19.71,19.71,0,0,1,88.44,466.69Z" style="fill:#263238"></path><path d="M84.59,467.86a2.57,2.57,0,0,0,.1-1.82c-.23-1-.83-1.6-.88-1.53s.36.7.57,1.62S84.49,467.83,84.59,467.86Z" style="fill:#263238"></path><path d="M109.17,462.93l-.62-4.81s14.35-.8,14.28-.63S122,465,122,465l-7.51,3.32Z" style="fill:#e0e0e0"></path><path d="M108.3,470.27c.24,1.1,14,11.08,17.88,13.72a2.45,2.45,0,0,0,2.09.31h0a2.09,2.09,0,0,0,1.39-2.84l-7.27-16.79a6.92,6.92,0,0,1,0-3.06c-2.83-1.32-8.88-.05-13.43,0l-.15,2.79-.88,4.24a8,8,0,0,0,.36,1.63" style="fill:#455a64"></path><path d="M121.5,473.67c.11.07.68-.82,1.75-1.46a17.8,17.8,0,0,1,2.11-.88,3,3,0,0,0-2.33.52C121.85,472.56,121.39,473.64,121.5,473.67Z" style="fill:#263238"></path><path d="M120.47,471.47c.11.07.68-.82,1.76-1.46a19.44,19.44,0,0,1,2.1-.88,3.74,3.74,0,0,0-3.86,2.34Z" style="fill:#263238"></path><path d="M128.77,484.08a2.33,2.33,0,0,1-2.66-.08c-10.66-7.39-17-11.94-18.59-13.92l.54-2Z" style="fill:#e0e0e0"></path><path d="M119.37,469.27a17.67,17.67,0,0,1,1.75-1.46,19.44,19.44,0,0,1,2.1-.88,3,3,0,0,0-2.32.52C119.72,468.16,119.26,469.24,119.37,469.27Z" style="fill:#263238"></path><path d="M77.3,336.71c.14.14-7.69,44-4.74,48.29s73.25,5.71,73.28-1.95c.13-27.8-6.63-54.34-6.63-54.34Z" style="fill:#455a64"></path><path d="M138,344s7.81,38.58,2.74,40.81-61,1.18-63.59-.64,0-29.43,0-29.43Z" style="opacity:0.30000000000000004"></path><path d="M76.11,328l26.29,8,33.49-9.13,2.13,21.3c-.62,1.56-13.55,114-13.55,114L104.85,462l.84-15.21,2.45-84.14a1.77,1.77,0,0,0-2.56-1.65l-.45.22-2,74.17-.8,26.62-20.16.33s-1.18-14.26-2.42-30.8-3.81-74.4-4.21-80.3S76.11,328,76.11,328Z" style="fill:#263238"></path><path d="M134.66,258.62s-.83-1.89-4.8-4.18c-3.22-1.85-13.1-1.15-13.1-1.15s-10.69,8.57-18.82,4.91l-4.84-2.9s-9.77,2.41-12.86,6.17-4,38-4,38l-.69,27.33c19.45,9.89,40.19,9.23,61.49-1.41,0,0,4.42-4.61-.4-7.36,0,0,.24-11.37.24-14.28,0-4.76,2-33.83,2-33.83Z" style="fill:#FF725E"></path><path d="M102.71,309.3c-.12.36-16.29,8.36-24.25,11.14s-14.86.37-15.22-7.51,5.88-26,6.36-30.84S73.46,268,75.49,265a15,15,0,0,1,6-4.66l2.75,15.54-6.17,26.49,14-3.1Z" style="fill:#FF725E"></path><path d="M89.39,291.2S85,289.7,83,289.7s-4.78,1.07-5.26,5.11-.57,7.75-.57,7.75l5.67-.74,2.69.18,2.87-7.91Z" style="fill:#ffbf9d"></path><path d="M128.9,254s11.94,1.9,11.86,18c-.08,18-7.24,36.46-10.92,39.89S101,315.7,85.1,303.06l4.29-11.86s9.81,2.28,18.43,3.45c4.52.62,8.72.93,11,.45,0,0,3.26-20.45,3.26-24.51" style="fill:#FF725E"></path><path d="M122.07,270.59a12.79,12.79,0,0,1,0,1.7c-.07,1.12-.24,2.76-.49,4.88-.51,4.23-1.37,10.36-2.54,18l0,.12-.12,0a25.76,25.76,0,0,1-6.58.08c-2.3-.19-4.68-.51-7.15-.89-4.94-.76-10.23-1.79-15.78-3l.28-.15-4.28,11.87-.08-.29a51.26,51.26,0,0,0,20.52,9.31,57.69,57.69,0,0,0,17.92,1.34,20,20,0,0,0,4.21-.83,4.94,4.94,0,0,0,1.79-.94l.68-.77.6-.85a41.45,41.45,0,0,0,3.58-7.38A92.32,92.32,0,0,0,140.5,275c0-1,.06-2,.08-3s-.07-1.89-.11-2.81-.23-1.78-.38-2.62-.38-1.65-.65-2.4a15.84,15.84,0,0,0-4.39-6.85,14.56,14.56,0,0,0-4.42-2.72c-.55-.21-1-.35-1.28-.43l-.45-.13a2,2,0,0,1,.46.08,12.17,12.17,0,0,1,1.31.38,14.07,14.07,0,0,1,4.51,2.67,16,16,0,0,1,4.54,6.9c.28.77.44,1.6.68,2.44s.26,1.74.4,2.65.09,1.87.14,2.84-.05,2-.07,3A91.88,91.88,0,0,1,135,302.92a41.71,41.71,0,0,1-3.62,7.47l-.61.89-.73.82a5.41,5.41,0,0,1-2,1.06,20.42,20.42,0,0,1-4.32.86,58.16,58.16,0,0,1-18.1-1.34A51.42,51.42,0,0,1,85,303.26l-.15-.12.07-.17c1.48-4.09,2.92-8.07,4.3-11.85l.07-.2.21.05c5.53,1.25,10.81,2.3,15.73,3.08,2.47.39,4.84.71,7.12.91a25.37,25.37,0,0,0,6.47,0l-.14.15c1.22-7.59,2.13-13.71,2.7-17.93.29-2.11.48-3.74.59-4.86.06-.55.09-1,.11-1.26A1.84,1.84,0,0,1,122.07,270.59Z" style="fill:#263238"></path><path d="M115.14,286.13s6.37-7.52,7.19-7.7,6.23.26,7,1.19,2.33,2.31,2.33,2.31a2,2,0,0,1-2.7.95l-1.73-.93-2.47.17-1,.66s11.16,1.81,8.38,4.72c-.77.81-1.93.47-3.25,0a40.07,40.07,0,0,0-6.78-1,.35.35,0,0,0-.29.15h0a.33.33,0,0,0,.27.51c1.82,0,6.92.57,8.62,3.22a1.54,1.54,0,0,1,0,1.65c-.28.44-.83.79-1.88.42-2.1-.74-3.62-1.43-5-1.49a19.54,19.54,0,0,0-4.1.76s2.8.45,4.67.91,3.65.48,3.72,2.07c.08,1.94-4.88,1.21-7,1.06s-5.38-.37-5.38-.37l-7-.62S114,287.57,115.14,286.13Z" style="fill:#ffbf9d"></path><path d="M77.44,302.21a18.66,18.66,0,0,0-2.91,2,18.68,18.68,0,0,0-2.09,2.85,6,6,0,0,1,5-4.86Z" style="fill:#263238"></path><path d="M81,276.2a9.66,9.66,0,0,1,0,2.33c-.08,1.43-.25,3.41-.5,5.59s-.56,4.14-.83,5.55a10,10,0,0,1-.57,2.26,10.89,10.89,0,0,1,.21-2.32c.19-1.62.42-3.49.67-5.55s.46-3.94.66-5.57A10.48,10.48,0,0,1,81,276.2Z" style="fill:#263238"></path><path d="M99.57,311.77a4.69,4.69,0,0,1-.89.55c-.58.33-1.44.78-2.51,1.31-2.15,1.06-5.17,2.42-8.58,3.73s-6.57,2.31-8.88,3c-1.15.32-2.09.56-2.74.71a4.23,4.23,0,0,1-1,.18A34.8,34.8,0,0,1,78.61,320c2.27-.73,5.39-1.78,8.79-3.09s6.43-2.6,8.61-3.58A33.92,33.92,0,0,1,99.57,311.77Z" style="fill:#263238"></path><path d="M75.51,326.82l26.84,6.1-.8,9-26.06,2s-4-2.73-2.79-8.94S75.51,326.82,75.51,326.82Z" style="fill:#455a64"></path><path d="M137.23,324.42l-31.45,8.11v8.29L138,344s2.35-6.41,2.35-10.21S137.23,324.42,137.23,324.42Z" style="fill:#455a64"></path><path d="M102,353.46a87.54,87.54,0,0,0,.34-12.11l5.69-.53a34.37,34.37,0,0,1,7.46,22.65c-.12,3.32-.61,7,1.28,9.62L112,377.58s-2-1.48-3.22-2.29c-3.23-2.1-5.28-5.85-6.21-9.77A41.62,41.62,0,0,1,102,353.46Z" style="fill:#455a64"></path><path d="M102.89,349.65a85.62,85.62,0,0,1,3.47-11.53l-5.2-2.54a32.51,32.51,0,0,0-14.11,18.66c-.93,3.16-1.62,6.81-4.22,8.6-.88.61-3,1.43-3.56,2.35s.17,1.43.78,2.55c.49.9,2.11,2.54,2.71,3.37l3.15-2.33s2.34-.69,3.75-1c3.69-.82,6.8-3.62,8.9-7A40.32,40.32,0,0,0,102.89,349.65Z" style="fill:#455a64"></path><ellipse cx="102.27" cy="338.47" rx="6.87" ry="7.36" style="fill:#455a64"></ellipse><path d="M95.4,338.47c.06,0,0-.66.33-1.77a7.45,7.45,0,0,1,2.52-3.89,6.29,6.29,0,0,1,6.25-1,7.24,7.24,0,0,1,0,13.24,6.29,6.29,0,0,1-6.25-1,7.47,7.47,0,0,1-2.52-3.9c-.28-1.11-.27-1.77-.33-1.76a1.24,1.24,0,0,0,0,.47,5.88,5.88,0,0,0,.13,1.36A7.43,7.43,0,0,0,98,344.51a6.7,6.7,0,0,0,6.74,1.17,7.21,7.21,0,0,0,3.34-2.66,8.09,8.09,0,0,0,0-9.1,7.09,7.09,0,0,0-3.34-2.66A6.7,6.7,0,0,0,98,332.42a7.51,7.51,0,0,0-2.48,4.22,5.8,5.8,0,0,0-.13,1.35A1.27,1.27,0,0,0,95.4,338.47Z" style="fill:#263238"></path><path d="M109.79,337.76c.06.18,1.41-.15,3-.63s3-.92,2.92-1.1-1.43,0-3.09.44S109.74,337.58,109.79,337.76Z" style="fill:#263238"></path><path d="M109.72,339.18c0,.18,1.46.43,3.28.54s3.3.06,3.31-.13-1.46-.44-3.28-.55S109.73,339,109.72,339.18Z" style="fill:#263238"></path><path d="M101.4,345.32a8.16,8.16,0,0,1-1-2,12.67,12.67,0,0,1,0-5.39,15.42,15.42,0,0,1,1.95-5,21.94,21.94,0,0,0,1.22-1.9c0-.06-.75.47-1.59,1.62a13.06,13.06,0,0,0-2.2,5.17,11.44,11.44,0,0,0,.22,5.69C100.52,344.92,101.38,345.4,101.4,345.32Z" style="fill:#263238"></path><path d="M91.47,334.55c-.07.18.78.77,1.9,1.34s2.09.88,2.17.71-.78-.77-1.9-1.33S91.55,334.38,91.47,334.55Z" style="fill:#263238"></path><path d="M89.58,339.92c0,.19,1.45.11,3.18-.16s3.12-.65,3.09-.84-1.45-.11-3.18.16S89.55,339.73,89.58,339.92Z" style="fill:#263238"></path></g></svg>
