<svg xmlns="http://www.w3.org/2000/svg" viewBox="0 0 500 500"><g id="background-complete"><path d="M236.15,45.84a50.21,50.21,0,1,0,50.09,50.21A50.15,50.15,0,0,0,236.15,45.84Zm0,80.73a30.53,30.53,0,1,1,30.46-30.52A30.49,30.49,0,0,1,236.15,126.57Z" style="fill:#f5f5f5"></path><path d="M52,209.41A26.19,26.19,0,1,0,78.15,235.6H67.89A15.93,15.93,0,1,1,52,219.67V209.41" style="fill:#f5f5f5"></path><path d="M456.82,53.69,462.41,40a37.78,37.78,0,1,0-28.52,70l5.59-13.72a23,23,0,1,1,17.34-42.54Z" style="fill:#f5f5f5"></path><path d="M156,68.81a5,5,0,1,1-6.25-3.15A5,5,0,0,1,156,68.81Z" style="fill:#ebebeb"></path><path d="M154.82,67.47c-.17.25-4.51-2.64-9.11-7.07s-8.21-8-8-8.24,4.24,3,8.79,7.44S155,67.23,154.82,67.47Z" style="fill:#ebebeb"></path><path d="M144.64,44.12c.28,0,.09,2.79-2,5.35s-4.75,3.35-4.81,3.08,2.1-1.43,4-3.77S144.32,44.05,144.64,44.12Z" style="fill:#ebebeb"></path><path d="M148.14,47.88c.29,0,.21,2.75-2,5.11s-5,2.65-5,2.36,2.24-1,4.16-3.11S147.82,47.82,148.14,47.88Z" style="fill:#ebebeb"></path><path d="M346.61,78.79a5,5,0,1,1-.85-7A5,5,0,0,1,346.61,78.79Z" style="fill:#ebebeb"></path><path d="M347.06,77.05c-.3,0-.31-5.22.82-11.51s2.11-11.28,2.38-11.26-.16,5.21-1.3,11.45S347.36,77.06,347.06,77.05Z" style="fill:#ebebeb"></path><path d="M360.82,55.61c.16.24-2.27,1.62-5.56,1.31s-5.42-2.09-5.23-2.29,2.36,1,5.33,1.2S360.71,55.31,360.82,55.61Z" style="fill:#ebebeb"></path><path d="M359.64,60.61c.19.22-2.17,1.71-5.36,1.17s-5-2.65-4.71-2.8,2.07,1.3,4.88,1.72S359.52,60.31,359.64,60.61Z" style="fill:#ebebeb"></path><path d="M442.58,166.38a6,6,0,1,1-5.86-6.23A6,6,0,0,1,442.58,166.38Z" style="fill:#e0e0e0"></path><path d="M441.77,164.34c-.3.22-4.08-4.91-7.51-11.91s-6.08-12.64-5.8-12.81,3.61,5.24,7,12.21S442.07,164.14,441.77,164.34Z" style="fill:#e0e0e0"></path><path d="M439.81,133.29c.32.12-1.06,3.24-4.52,5.31s-6.85,1.87-6.81,1.53,3-.76,6.12-2.67S439.48,133.08,439.81,133.29Z" style="fill:#e0e0e0"></path><path d="M442.26,139.07c.35.09-.9,3.25-4.42,5s-6.81,1-6.67.64,3-.21,6.06-1.83S441.93,138.87,442.26,139.07Z" style="fill:#e0e0e0"></path><path d="M59.43,99.64a4.36,4.36,0,1,1,2-5.83A4.37,4.37,0,0,1,59.43,99.64Z" style="fill:#e0e0e0"></path><path d="M60.46,98.44C60.08,98.25,62,94,65.34,89.5s6.12-8,6.46-7.83-1.92,4.22-5.24,8.71S60.83,98.63,60.46,98.44Z" style="fill:#e0e0e0"></path><path d="M81.4,92c-.07.34-3.66-.26-6.93-3.22a10.22,10.22,0,0,1-3.06-4.62c-.41-1.42-.11-2.36.07-2.33s.33.82.93,2a13.92,13.92,0,0,0,3.08,3.89C78.41,90.37,81.57,91.58,81.4,92Z" style="fill:#e0e0e0"></path><path d="M69,110a4.36,4.36,0,1,1,2-5.82A4.34,4.34,0,0,1,69,110Z" style="fill:#e0e0e0"></path><path d="M70.06,108.79c-.38-.19,1.54-4.4,4.88-8.94s6.12-8,6.46-7.82-1.92,4.22-5.23,8.7S70.43,109,70.06,108.79Z" style="fill:#e0e0e0"></path><path d="M79.75,94.51c0,.39-3.49,0-6.66-2.62s-4.16-6-3.78-6.09,1.87,2.57,4.75,4.92S79.86,94.08,79.75,94.51Z" style="fill:#e0e0e0"></path><path d="M300.69,154.83a4.81,4.81,0,0,1-6.06,1.48,3.66,3.66,0,0,1-.84-5.52,4.79,4.79,0,0,1,6.06-1.48A3.66,3.66,0,0,1,300.69,154.83Z" style="fill:#e0e0e0"></path><path d="M301.06,153.37c-.42,0-.62-4.18.28-9.4s1.8-9.34,2.19-9.36.21,4.23-.7,9.4S301.48,153.32,301.06,153.37Z" style="fill:#e0e0e0"></path><path d="M316.7,137.55c.1.3-3.35,1.71-7.58,1.14a9.13,9.13,0,0,1-4.8-1.95c-1-.88-1.16-1.75-1-1.82s.67.45,1.71,1a12.82,12.82,0,0,0,4.48,1.38C313.31,137.83,316.65,137.12,316.7,137.55Z" style="fill:#e0e0e0"></path><path d="M313.86,157.77a4.81,4.81,0,0,1-6.06,1.48,3.66,3.66,0,0,1-.84-5.52,4.79,4.79,0,0,1,6.06-1.48A3.66,3.66,0,0,1,313.86,157.77Z" style="fill:#e0e0e0"></path><path d="M314.23,156.31c-.42.05-.62-4.18.28-9.4s1.8-9.34,2.19-9.36.21,4.23-.7,9.4S314.64,156.26,314.23,156.31Z" style="fill:#e0e0e0"></path><path d="M316.36,140.31c.15.32-3.08,1.85-7.08,1.46s-6.38-2.42-6.08-2.7,2.81,1,6.41,1.3S316.26,139.92,316.36,140.31Z" style="fill:#e0e0e0"></path><path d="M176,175.45a5.71,5.71,0,1,1-4.44-6.75A5.72,5.72,0,0,1,176,175.45Z" style="fill:#e0e0e0"></path><path d="M175.54,173.42c-.5.24-3.34-5.12-5.39-12.21s-3.45-12.78-3-13,2.86,5.37,4.87,12.4S176,173.19,175.54,173.42Z" style="fill:#e0e0e0"></path><path d="M185.61,146.54c.31.35-3.18,3.59-8.87,4.63a13.26,13.26,0,0,1-7.25-.52c-1.8-.71-2.54-1.76-2.37-1.93s1.12.31,2.77.59a18.07,18.07,0,0,0,6.5-.09C181.5,148.32,185.29,146,185.61,146.54Z" style="fill:#e0e0e0"></path><path d="M194.4,173.74A5.71,5.71,0,1,1,190,167,5.7,5.7,0,0,1,194.4,173.74Z" style="fill:#e0e0e0"></path><path d="M194,171.71c-.49.24-3.34-5.11-5.39-12.21s-3.45-12.77-3-13,2.86,5.36,4.87,12.39S194.47,171.48,194,171.71Z" style="fill:#e0e0e0"></path><path d="M186.87,150.23c.39.35-2.75,3.67-8,4.83s-9.54-.46-9.34-.94,4.16.11,8.9-1S186.51,149.77,186.87,150.23Z" style="fill:#e0e0e0"></path><path d="M303.55,228a3.33,3.33,0,1,1,1.08-4.58A3.33,3.33,0,0,1,303.55,228Z" style="fill:#e0e0e0"></path><path d="M304.24,227.05c-.3-.12.83-3.47,3-7.18s4-6.57,4.3-6.44-1.13,3.35-3.3,7S304.54,227.16,304.24,227.05Z" style="fill:#e0e0e0"></path><path d="M319.65,220.55c0,.27-2.79.09-5.51-1.9a7.91,7.91,0,0,1-2.69-3.28c-.42-1.05-.26-1.78-.12-1.78s.31.6.85,1.41a10.59,10.59,0,0,0,2.65,2.72C317.26,219.52,319.75,220.2,319.65,220.55Z" style="fill:#e0e0e0"></path><path d="M311.65,235.16a3.33,3.33,0,1,1,1.09-4.58A3.33,3.33,0,0,1,311.65,235.16Z" style="fill:#e0e0e0"></path><path d="M312.34,234.17c-.3-.12.83-3.47,3-7.17s4-6.58,4.3-6.45-1.12,3.35-3.29,7S312.64,234.28,312.34,234.17Z" style="fill:#e0e0e0"></path><path d="M318.59,222.56c0,.3-2.65.3-5.26-1.47s-3.63-4.23-3.34-4.33,1.62,1.8,4,3.37S318.64,222.22,318.59,222.56Z" style="fill:#e0e0e0"></path></g><g id="background-simple"><path d="M243.79,38a91.75,91.75,0,1,0,91.75,91.75A91.75,91.75,0,0,0,243.79,38Zm0,143.11a51.36,51.36,0,1,1,51.36-51.36A51.36,51.36,0,0,1,243.79,181.11Z" style="fill:#ebebeb"></path><circle cx="365.61" cy="71.91" r="22.2" style="fill:#ebebeb"></circle><circle cx="122.34" cy="116.84" r="12.55" style="fill:#ebebeb"></circle></g><g id="Floor"><path d="M479.71,463.58c0,.14-102.4.26-228.7.26s-228.72-.12-228.72-.26,102.38-.26,228.72-.26S479.71,463.43,479.71,463.58Z" style="fill:#263238"></path></g><g id="character-3"><path d="M344.28,427.45l.59,22.11s-23.86,8.83-23.65,13.95l44.25-.42-1.68-13.28,2.08-22.16Z" style="fill:#FF725E"></path><path d="M358.27,448.39a1.82,1.82,0,0,1,1.28,2.07,1.75,1.75,0,0,1-2,1.29,1.93,1.93,0,0,1-1.35-2.2,1.83,1.83,0,0,1,2.27-1.11" style="fill:#fff"></path><path d="M365.53,463.51l-.51-4-42.48,1.56a3.64,3.64,0,0,0-1.32,2.45Z" style="fill:#263238"></path><path d="M343.75,450.23c0,.22,1.1.31,2.18,1s1.66,1.61,1.86,1.52-.14-1.35-1.46-2.16S343.7,450,343.75,450.23Z" style="fill:#263238"></path><path d="M339.08,452.22c-.05.21.9.57,1.65,1.49s1,1.89,1.19,1.87.34-1.24-.61-2.36S339.08,452,339.08,452.22Z" style="fill:#263238"></path><path d="M336.47,457.85c.2,0,.49-1.05-.08-2.24s-1.59-1.65-1.69-1.47.55.81,1,1.8S336.25,457.83,336.47,457.85Z" style="fill:#263238"></path><path d="M344.09,445c.09.19,1.09-.12,2.33,0s2.19.45,2.31.26-.82-1-2.28-1S344,444.8,344.09,445Z" style="fill:#263238"></path><path d="M391.51,427.21l.59,22.11s-23.85,8.83-23.64,13.95l44.25-.42L411,449.57l2.07-22.16Z" style="fill:#FF725E"></path><path d="M405.51,448.15a1.83,1.83,0,0,1,1.28,2.07,1.76,1.76,0,0,1-2,1.29,1.93,1.93,0,0,1-1.35-2.2,1.83,1.83,0,0,1,2.27-1.11" style="fill:#fff"></path><path d="M412.77,463.27l-.51-4-42.48,1.56a3.64,3.64,0,0,0-1.32,2.45Z" style="fill:#263238"></path><path d="M391,450c0,.22,1.1.31,2.18,1s1.66,1.61,1.86,1.52-.13-1.35-1.45-2.16S390.93,449.79,391,450Z" style="fill:#263238"></path><path d="M386.32,452c-.05.21.9.57,1.65,1.49s1,1.89,1.19,1.87.34-1.24-.61-2.36S386.32,451.77,386.32,452Z" style="fill:#263238"></path><path d="M383.71,457.61c.2,0,.49-1.05-.08-2.24s-1.6-1.65-1.69-1.47.55.81,1,1.8S383.49,457.59,383.71,457.61Z" style="fill:#263238"></path><path d="M391.33,444.73c.09.19,1.09-.12,2.32,0s2.2.45,2.31.26-.82-1-2.27-1S391.22,444.56,391.33,444.73Z" style="fill:#263238"></path><path d="M438.12,279.74s3.69,13.58,3.13,22.4S413.1,445.48,413.1,445.48H388.81l11.82-86s5.77-52,5-50.9-33.47,54.35-33.47,54.35L366.44,441H341.57s-1.15-70.37,2.86-84.06,23.19-66.74,23.19-66.74l50.28-18.6Z" style="fill:#455a64"></path><path d="M344.27,145.77l9,37.92c1.54,6.45,5.11,15.6,15.2,12.71h0c8.56-3.17,8.8-12.09,7.35-18.11-.68-2.85-1.24-5.23-1.29-5.53,0,0,9.43-3.21,7.85-12.93-.76-4.7-3.12-14.25-5.36-22.86a18.34,18.34,0,0,0-20.93-13.44l-.93.16C345.21,126.05,341.63,135.85,344.27,145.77Z" style="fill:#ffd4bd"></path><path d="M374.56,172.62a22.93,22.93,0,0,1-13.28-1.38s4.22,6.46,13.74,3.88Z" style="fill:#fdb094"></path><path d="M376.46,142.06c-.13.23-1.56.16-3.21.93s-2.62,1.91-2.86,1.85,0-.37.39-.88A6.18,6.18,0,0,1,373,142.3a5.7,5.7,0,0,1,2.63-.57C376.24,141.77,376.52,142,376.46,142.06Z" style="fill:#263238"></path><path d="M361.79,146.29c-.22.14-1.45-.54-3.27-.58s-3.18.54-3.37.39.14-.34.73-.61a6.26,6.26,0,0,1,2.71-.5,5.83,5.83,0,0,1,2.6.65C361.73,146,361.9,146.22,361.79,146.29Z" style="fill:#263238"></path><path d="M357.63,148.1a1.08,1.08,0,0,1-.84,1.26,1,1,0,0,1-1.28-.77,1.09,1.09,0,0,1,.84-1.26A1,1,0,0,1,357.63,148.1Z" style="fill:#263238"></path><path d="M373.05,146.23a1.08,1.08,0,0,1-.84,1.26,1,1,0,0,1-1.27-.77,1.09,1.09,0,0,1,.84-1.26A1,1,0,0,1,373.05,146.23Z" style="fill:#263238"></path><path d="M368.56,155.05a9.63,9.63,0,0,1,2.34-.86c.37-.11.72-.25.74-.52a2,2,0,0,0-.45-1.08l-1.64-2.7c-2.28-3.85-4-7-3.85-7.14s2.13,3,4.42,6.81l1.59,2.73a2.26,2.26,0,0,1,.46,1.46,1,1,0,0,1-.53.66,2.73,2.73,0,0,1-.63.21A10.33,10.33,0,0,1,368.56,155.05Z" style="fill:#263238"></path><path d="M359.59,139.14c-.07.39-1.41.45-2.92.91s-2.68,1.12-2.94.82c-.12-.14,0-.53.47-1a5.11,5.11,0,0,1,4.47-1.32C359.27,138.72,359.61,139,359.59,139.14Z" style="fill:#263238"></path><path d="M375.47,138.29c-.09.33-1.42.32-2.94.65s-2.72.84-3,.58.08-.45.55-.81a5.49,5.49,0,0,1,2.14-.93,5.6,5.6,0,0,1,2.35,0C375.2,137.91,375.51,138.13,375.47,138.29Z" style="fill:#263238"></path><path d="M346.32,152.81c-.18,0-7-.8-5.64,5.79s7.72,3.86,7.69,3.67S346.32,152.81,346.32,152.81Z" style="fill:#ffd4bd"></path><path d="M345.83,160.19s-.1.1-.27.23a1.2,1.2,0,0,1-.86.2,2.91,2.91,0,0,1-1.84-2.28,3.67,3.67,0,0,1,0-1.71,1.34,1.34,0,0,1,.68-1.06.58.58,0,0,1,.74.17c.13.17.11.31.15.31s.12-.14,0-.4a.85.85,0,0,0-.35-.36.9.9,0,0,0-.67,0,1.62,1.62,0,0,0-1,1.27,3.88,3.88,0,0,0,0,1.92,3.06,3.06,0,0,0,2.27,2.5,1.24,1.24,0,0,0,1-.4C345.85,160.35,345.86,160.19,345.83,160.19Z" style="fill:#fdb094"></path><path d="M378.76,134.6a14.28,14.28,0,0,1-12.94-.62c-2.71-1.59-5-4.15-8.15-4.54a8,8,0,0,0-5.88,1.88,15.67,15.67,0,0,0-3.83,5c2.74,4.6,2.45,10.32,2.07,15.67a2.73,2.73,0,0,1-.51,1.66c-.68.74-1.93.48-2.74-.12a8.26,8.26,0,0,1-2.56-4,27.76,27.76,0,0,1-1.82-10.77,18.81,18.81,0,0,1,3.46-10.26,17.84,17.84,0,0,1,11.52-6.83,22,22,0,0,1,13.32,2.28,12.84,12.84,0,0,1,4.89,4" style="fill:#263238"></path><path d="M368.15,160c0-.19-1.34-.25-2.54-1.22a7.49,7.49,0,0,1-1.33-1.48c-.31-.42-.53-.69-.6-.65s0,.36.27.85a5.06,5.06,0,0,0,1.32,1.7,4,4,0,0,0,2,.85C367.81,160.09,368.15,160,368.15,160Z" style="fill:#263238"></path><path d="M344.66,162.94a7.06,7.06,0,0,0,0,1.78,2.32,2.32,0,0,0,.93,1.51,1.88,1.88,0,0,0,.95.38,2.09,2.09,0,0,0,1.07-.22c.65-.34.67-1.23.53-1.9a6,6,0,0,0-.67-1.78c-.56-1-1.12-1.4-1.06-1.46s.69.3,1.37,1.26a5.64,5.64,0,0,1,.83,1.88,3.28,3.28,0,0,1,.06,1.26,1.61,1.61,0,0,1-.8,1.19,2.49,2.49,0,0,1-1.37.28,2.38,2.38,0,0,1-1.2-.51,2.62,2.62,0,0,1-1-1.83C344.2,163.58,344.61,162.9,344.66,162.94Z" style="fill:#263238"></path><path d="M352.76,123c-4.86-1.89-9.77.08-13.58,3.64A14.27,14.27,0,0,0,335.39,141a7.58,7.58,0,0,0,3.27,4.52c1.67.92,4.54,1.82,5.61.24,1.45,1.73,4.1-.74,4.81-2.88s-.15-4.47-1-6.56a6.77,6.77,0,0,1,3.25,3.09,5,5,0,0,0-1.6-5.48,10.88,10.88,0,0,1,12.93,2.59c.58.68,1.29,1.53,2.17,1.28a1.37,1.37,0,0,0,.9-1.48,3.66,3.66,0,0,0-1.53-2.26,8.64,8.64,0,0,0,10,2.92l-.55-.86c2.11.19,5.26,8.19,5.16,7.82a27.83,27.83,0,0,0,1.8-5.6c2.58-7.73-2.15-15.53-5.9-17.63s-7.25-4.22-12.87-3.31c-2.8.46-9.19,2.94-9.89,5.69" style="fill:#455a64"></path><path d="M455.4,220.79H432.5l-15.49-22s-7.87-22.66-13.42-24.51l-1.85,30.06,19.66,34.46,34,2.32Z" style="fill:#455a64"></path><path d="M403.59,174.31c-.23.69-25.2,1.62-25.2,1.62l-2.78-1.62-24.47,7.42-1.2,7.84-15.73,17.35,33.3,37-5.67,54.87,57.58-5.56,23.71-9.31s-23.35-58.45-24-58.91S403.59,174.31,403.59,174.31Z" style="fill:#455a64"></path><path d="M334.21,206.92a8,8,0,0,0-.82,7c1.29,4.32,15.1,52.19,20.39,54s48,3.62,48,3.62,1.16-19.72,0-18.79l-35.13-4.17s-8.81-21.36-10.2-25.29S339.3,206.92,334.21,206.92Z" style="fill:#455a64"></path><path d="M356.4,219c-.09,0-.65-1.11-1.9-2.74a21.77,21.77,0,0,0-2.44-2.63,22.65,22.65,0,0,0-3.52-2.61,23.05,23.05,0,0,0-4-1.84,21.64,21.64,0,0,0-3.48-.86c-2-.31-3.31-.25-3.31-.35a3,3,0,0,1,.9-.11,9,9,0,0,1,1.06,0c.41,0,.88,0,1.4.11a18.26,18.26,0,0,1,3.58.77,20.93,20.93,0,0,1,4.1,1.84,20.68,20.68,0,0,1,3.59,2.71,18.36,18.36,0,0,1,2.4,2.77,11.71,11.71,0,0,1,.77,1.18,7.36,7.36,0,0,1,.5.93C356.31,218.69,356.44,219,356.4,219Z" style="fill:#263238"></path><path d="M417.52,295a.91.91,0,0,1-.09-.24l-.22-.72-.81-2.78c-.69-2.46-1.67-5.95-2.87-10.25-2.38-8.7-5.65-20.65-9.27-33.86a164,164,0,0,0-14.66-31.77c-2.3-3.85-4.3-6.88-5.72-8.95L382.25,204l-.42-.62c-.09-.15-.14-.22-.13-.23a1.37,1.37,0,0,1,.17.19l.46.6c.4.53,1,1.3,1.72,2.33,1.47,2,3.52,5.05,5.87,8.88A157.63,157.63,0,0,1,404.76,247c3.56,13.23,6.78,25.2,9.13,33.91,1.13,4.31,2.06,7.82,2.71,10.29.3,1.19.53,2.13.71,2.81.07.3.12.54.17.73A.72.72,0,0,1,417.52,295Z" style="fill:#263238"></path><path d="M354.9,268.26l.24,0,.65.13c.59.06,1.46.2,2.6.29,2.27.22,5.58.45,9.75.73,8.32.55,20.05,1.21,33.62,1.89l-.27.25c0-5.52,0-11.48,0-17.64V252.8l.24.26-35.64-3.13-.14,0,0-.13c-2.61-7.94-4.76-14.51-6.27-19.13-.73-2.28-1.31-4.07-1.71-5.33-.19-.59-.33-1-.44-1.4a3.84,3.84,0,0,1-.13-.49,2.81,2.81,0,0,1,.19.47c.13.34.29.8.5,1.38l1.82,5.29,6.44,19.08-.18-.15,35.65,3,.23,0V254c0,6.16,0,12.12,0,17.64v.27l-.26,0c-13.57-.71-25.29-1.44-33.62-2.07S354.85,268.52,354.9,268.26Z" style="fill:#263238"></path><path d="M426.39,241.16a3.35,3.35,0,0,1-.25-.58l-.61-1.7-2.21-6.28c-1.86-5.3-4.47-12.6-7.5-20.62s-5.9-15.23-8-20.43c-1-2.56-1.88-4.65-2.5-6.17l-.66-1.68a2.64,2.64,0,0,1-.2-.6,2.37,2.37,0,0,1,.3.56l.75,1.64c.64,1.43,1.55,3.52,2.65,6.11,2.19,5.17,5.12,12.36,8.15,20.39s5.59,15.35,7.36,20.68c.89,2.67,1.59,4.83,2.05,6.34.22.71.39,1.28.52,1.73A2.44,2.44,0,0,1,426.39,241.16Z" style="fill:#263238"></path><path d="M395.54,227.8s-.19-.13-.5-.43l-1.37-1.3c-1.18-1.14-2.87-2.8-5.06-4.75a58.33,58.33,0,0,0-8.14-6.22,38.67,38.67,0,0,0-5.37-2.78c-1.93-.83-4-1.61-6-2.65a18.92,18.92,0,0,1-3.43-2.24,12.46,12.46,0,0,1-2.58-3,9.78,9.78,0,0,1-1.34-3.52,7.25,7.25,0,0,1,.3-3.54l.35.27a7.34,7.34,0,0,1-6.94.67,6.76,6.76,0,0,1-3.71-4,6.91,6.91,0,0,1-.36-3.52,4.31,4.31,0,0,1,.22-.91c.07-.2.11-.3.13-.3s-.12.43-.21,1.23a7.24,7.24,0,0,0,.47,3.41,6.54,6.54,0,0,0,3.6,3.72,6.94,6.94,0,0,0,6.53-.7l.59-.41-.24.68a6.76,6.76,0,0,0-.25,3.3,9.34,9.34,0,0,0,1.29,3.34A12.51,12.51,0,0,0,366,207a18.88,18.88,0,0,0,3.35,2.17c2,1,4,1.8,5.94,2.64a39.49,39.49,0,0,1,5.42,2.84,56.93,56.93,0,0,1,8.14,6.35c2.16,2,3.81,3.71,4.95,4.88l1.3,1.38A4.36,4.36,0,0,1,395.54,227.8Z" style="fill:#263238"></path><path d="M396.38,224.54a2,2,0,0,1-.08-.57c0-.43-.09-1-.14-1.64-.1-1.49-.24-3.53-.41-6s-.33-5.6-.54-8.95c-.09-1.69-.19-3.45-.29-5.28a43.54,43.54,0,0,0-.53-5.62,9.83,9.83,0,0,0-2.23-4.85,5.89,5.89,0,0,0-4.33-2.12h-.18l0-.17a26.5,26.5,0,0,0-6.38-10.59,28.08,28.08,0,0,0-2.66-2.4,7.7,7.7,0,0,1-1-.81s.11,0,.29.16.46.28.8.53a22.85,22.85,0,0,1,2.78,2.31,25.87,25.87,0,0,1,6.62,10.66l-.23-.17a6.4,6.4,0,0,1,4.72,2.25,10.4,10.4,0,0,1,2.36,5.1,40.65,40.65,0,0,1,.52,5.69c.1,1.83.19,3.6.27,5.28.16,3.36.31,6.39.43,9s.18,4.54.24,6c0,.67,0,1.21,0,1.65A2.52,2.52,0,0,1,396.38,224.54Z" style="fill:#263238"></path><path d="M375.61,174.31c.22.72,6.48,29.14,6.48,29.14l-30.95-21.72,22.62-7.42Z" style="fill:#fafafa"></path><path d="M443.13,283.87a3.17,3.17,0,0,1-.48.25l-1.39.65L436,287.14l-18.37,8.08,0,0h0l-13.91.95-29.54,1.91-9,.52-2.44.12a4.61,4.61,0,0,1-.85,0,8.34,8.34,0,0,1,.85-.11l2.43-.21,8.94-.68,29.53-2.07,13.91-.92-.08,0,18.45-7.91,5.32-2.24,1.43-.58A3.35,3.35,0,0,1,443.13,283.87Z" style="fill:#263238"></path><path d="M455.4,225.11s6.75-7.3,6.91-15.64c0,0,3.31-1.8,3.37,3.43.06,5.5-1.33,7.07-1.33,7.07l18.79-1.05a1.84,1.84,0,0,1,.29,2.57c-1,1.73-10.93,3.44-10.93,3.44s3.1,1.17,2.49,3.65-4.05,8.28-4.05,8.28l-15.54.75Z" style="fill:#ffd4bd"></path><path d="M401.74,254.46s5.91-8.71,4.83-17c0,0,3-2.26,3.84,2.9.87,5.43-.26,7.19-.26,7.19l18.42-3.83a1.86,1.86,0,0,1,.67,2.51c-.7,1.85-10.3,5-10.3,5s3.23.69,3,3.24-2.77,8.79-2.77,8.79L402,266.71Z" style="fill:#ffd4bd"></path></g><g id="character-2"><path d="M245.82,429.31l-.56,20.88s22.53,8.34,22.34,13.18l-41.8-.4,1.59-12.54-2-20.93Z" style="fill:#455a64"></path><path d="M232.61,449.09a1.71,1.71,0,0,0-1.21,2,1.66,1.66,0,0,0,1.93,1.22,1.83,1.83,0,0,0,1.27-2.08,1.73,1.73,0,0,0-2.15-1" style="fill:#fff"></path><path d="M225.75,463.37l.48-3.79,40.12,1.47a3.47,3.47,0,0,1,1.25,2.32Z" style="fill:#263238"></path><path d="M246.32,450.83c0,.2-1,.29-2.06.94s-1.56,1.51-1.75,1.43.13-1.27,1.37-2S246.37,450.64,246.32,450.83Z" style="fill:#263238"></path><path d="M250.73,452.7c.05.2-.85.54-1.56,1.41s-.92,1.78-1.12,1.77-.33-1.18.57-2.24S250.73,452.5,250.73,452.7Z" style="fill:#263238"></path><path d="M253.19,458c-.18,0-.46-1,.08-2.11s1.51-1.57,1.59-1.39-.51.77-.94,1.7S253.4,458,253.19,458Z" style="fill:#263238"></path><path d="M246,445.85c-.09.19-1-.1-2.2,0s-2.07.43-2.18.25.77-.9,2.15-1S246.1,445.69,246,445.85Z" style="fill:#263238"></path><path d="M280.79,281s2.6,70.14,0,78.3-36.48,73.48-36.48,73.48l-19.73-3.44s21.55-74.86,22.73-76.35,0-58.27,0-58.27Z" style="fill:#FF725E"></path><path d="M230.32,297l-3,53.81s-10,30.8-8.54,42.67,7.8,47.51,7.8,47.51h21.15s-1.48-63.46,1.49-72a86,86,0,0,1,8.67-17l20.79-63.83Z" style="fill:#FF725E"></path><path d="M226.61,441l.36,0,1.07,0,4.16-.05,15.56-.07-.17.17c0-7.8-.05-17.59,0-28.72s.09-23.59.6-36.74c0-.74.07-1.49.13-2.23s.06-1.47.21-2.24a4.78,4.78,0,0,1,.75-2.15,17,17,0,0,1,1.3-1.81c1.88-2.25,3.93-4.27,5.34-6.68a12.48,12.48,0,0,0,1.51-3.79,31.7,31.7,0,0,1,1-4c.8-2.61,1.68-5.11,2.55-7.55,3.51-9.76,6.9-18.45,9.73-25.76s5.2-13.19,6.84-17.25l1.9-4.68c.22-.51.38-.91.51-1.21a2.34,2.34,0,0,1,.19-.4,3.07,3.07,0,0,1-.14.42c-.11.3-.27.71-.46,1.23-.43,1.1-1,2.68-1.81,4.71-1.59,4.11-3.87,10-6.68,17.31s-6.15,16-9.62,25.79c-.87,2.44-1.75,4.95-2.54,7.53a33.72,33.72,0,0,0-1,4,13.22,13.22,0,0,1-1.57,3.95c-1.45,2.48-3.53,4.53-5.37,6.75a13.36,13.36,0,0,0-1.26,1.75,4.24,4.24,0,0,0-.69,2c-.14.69-.13,1.46-.2,2.18s-.1,1.48-.13,2.23c-.51,13.12-.53,25.59-.64,36.72s-.1,20.9-.13,28.7v.18h-.17l-15.56-.07L228,441,227,441Z" style="fill:#263238"></path><path d="M274.29,134.48a22.2,22.2,0,0,0-4.08-15.36c-3.2-4.19-10.65-7.83-15.88-8.5-5.54-.7-12.54.55-14,3.87-5.21,1.35-9.45,5.07-10.95,8.78-1.17,2.89-1.13,6.07-1.08,9.22a22.8,22.8,0,0,0,1.38,7.72c1.82,4.82,5.08,8.62,10.33,9.84a27.9,27.9,0,0,0,9,.18,118.61,118.61,0,0,0,16.33-2.71,11.84,11.84,0,0,0,4.09-1.62c1.77-1.25-1.68,1.35,0,0C271.39,144.39,273.61,140.52,274.29,134.48Z" style="fill:#FF725E"></path><path d="M234,135.51l3.43,40.34c.59,6.86,2.84,16.82,13.65,15.41h0c9.28-1.94,10.9-11.06,10.35-17.47-.26-3-.47-5.57-.48-5.88,0,0,10.19-1.84,10.07-12.07-.06-4.94-1-15.11-2-24.3a19,19,0,0,0-19.41-17l-1,0C238.06,115.4,232.87,124.92,234,135.51Z" style="fill:#ffd4bd"></path><path d="M236.55,171.68c0-.65-.4-4.76-.4-4.76l26.32,10.92v4.77l-17.2-4.77Z" style="fill:#fff"></path><path d="M261,167.76a23.76,23.76,0,0,1-13.43-3.46s3.33,7.28,13.51,6.11Z" style="fill:#fdb094"></path><path d="M267.5,136.07c-.18.17-1.55.18-3.34.82s-3,1.52-3.19,1.49,0-.27.56-.67a9.62,9.62,0,0,1,2.53-1.33,8.35,8.35,0,0,1,2.69-.52C267.35,135.86,267.59,136,267.5,136.07Z" style="fill:#263238"></path><path d="M252.48,139.14c-.27.06-1.51-.8-3.5-1.3s-3.61-.39-3.79-.57.22-.23.93-.29a9.73,9.73,0,0,1,3.08.31,8.5,8.5,0,0,1,2.73,1.18C252.47,138.85,252.61,139.12,252.48,139.14Z" style="fill:#263238"></path><path d="M249.7,140.43a1.13,1.13,0,0,1-1.06,1.17,1.07,1.07,0,0,1-1.18-1,1.12,1.12,0,0,1,1-1.17A1.09,1.09,0,0,1,249.7,140.43Z" style="fill:#263238"></path><path d="M265.46,139.75a1.13,1.13,0,0,1-1.06,1.17,1.08,1.08,0,0,1-1.19-1,1.13,1.13,0,0,1,1.06-1.16A1.07,1.07,0,0,1,265.46,139.75Z" style="fill:#263238"></path><path d="M257.56,148.79a10.94,10.94,0,0,1,2.54-.52c.4-.05.77-.14.84-.41a2.18,2.18,0,0,0-.3-1.19l-1.26-3c-1.76-4.31-3-7.86-2.86-7.93s1.74,3.37,3.49,7.68l1.21,3a2.36,2.36,0,0,1,.25,1.57,1,1,0,0,1-.65.61,3.08,3.08,0,0,1-.68.11A10.13,10.13,0,0,1,257.56,148.79Z" style="fill:#263238"></path><path d="M250.8,131.07c-.13.39-1.52.24-3.14.48s-2.92.74-3.15.39c-.1-.16.12-.53.64-.92a5.33,5.33,0,0,1,4.79-.67C250.55,130.58,250.85,130.88,250.8,131.07Z" style="fill:#FF725E"></path><path d="M267.25,132.64c-.15.33-1.51.12-3.12.22s-2.93.45-3.13.14c-.09-.14.15-.44.69-.74a5.64,5.64,0,0,1,2.33-.63,6,6,0,0,1,2.42.35C267,132.22,267.31,132.49,267.25,132.64Z" style="fill:#FF725E"></path><path d="M235.06,143.06c-.17-.07-7.07-1.91-6.68,5.08s7.32,5.15,7.33,5S235.06,143.06,235.06,143.06Z" style="fill:#ffd4bd"></path><path d="M233.42,150.56s-.11.09-.31.2a1.22,1.22,0,0,1-.91.07,3,3,0,0,1-1.55-2.62,4.16,4.16,0,0,1,.24-1.76,1.42,1.42,0,0,1,.87-1,.61.61,0,0,1,.73.29c.11.19.07.33.11.34s.14-.12.07-.41a.85.85,0,0,0-.3-.42.9.9,0,0,0-.68-.14,1.7,1.7,0,0,0-1.21,1.16,4.06,4.06,0,0,0-.31,2c.12,1.4.92,2.68,1.94,2.91a1.32,1.32,0,0,0,1.1-.24C233.42,150.73,233.45,150.57,233.42,150.56Z" style="fill:#fdb094"></path><path d="M271.19,129.36A14.76,14.76,0,0,1,258,126.73c-2.53-2-4.53-5-7.67-5.92a8.33,8.33,0,0,0-6.33,1,15.88,15.88,0,0,0-4.7,4.54c2.1,5.15.91,11-.3,16.41a2.84,2.84,0,0,1-.78,1.63c-.81.65-2.06.19-2.8-.55a8.6,8.6,0,0,1-2-4.51,28.5,28.5,0,0,1-.21-11.34,19.51,19.51,0,0,1,5.14-10,18.57,18.57,0,0,1,12.89-5.24,22.81,22.81,0,0,1,13.32,4.4A13.4,13.4,0,0,1,269,122" style="fill:#FF725E"></path><path d="M252.76,150.77a4.53,4.53,0,0,1,2,1.23,1.55,1.55,0,0,1,.51,1,1.14,1.14,0,0,1-1.09,1,1.7,1.7,0,0,1-1.39-.73,3.49,3.49,0,0,1-.59-1.51,1.59,1.59,0,0,1,0-.65.65.65,0,0,1,.41-.48" style="fill:#FF725E"></path><path d="M256.38,153.77c.06-.18-1.34-.46-2.42-1.64a7.59,7.59,0,0,1-1.14-1.72c-.26-.49-.44-.79-.51-.76s0,.37.14.91a5.2,5.2,0,0,0,1.1,1.94,4.1,4.1,0,0,0,1.91,1.19C256,153.85,256.37,153.83,256.38,153.77Z" style="fill:#263238"></path><path d="M232,141c.43,4.37,8.81-2.25,10.77-6.17s2.37-8.43,2.49-12.82a17.1,17.1,0,0,0,10.42,7.93c4.34,1.12,10.51,2.07,14.34-.25,0,0-5.79-15.79-20.25-13.59S230.93,129.56,232,141Z" style="fill:#FF725E"></path><path d="M239.66,135.25c.05,0-.2.87-1.35,1.6a3.74,3.74,0,0,1-2.27.55,4,4,0,0,1-2.58-1.24,4.43,4.43,0,0,1-.47-.6l.47-.07a1.69,1.69,0,0,1-1,1.08,2.4,2.4,0,0,1-1.31.14,2.69,2.69,0,0,1-1.73-1.22,3.27,3.27,0,0,1-.66-1.74c.08,0,.28.66.94,1.54a2.45,2.45,0,0,0,1.52,1,1.56,1.56,0,0,0,1.74-.91l.16-.54.31.48a3.82,3.82,0,0,0,.41.51,3.66,3.66,0,0,0,2.24,1.13,3.55,3.55,0,0,0,2-.4A6.74,6.74,0,0,0,239.66,135.25Z" style="fill:#263238"></path><path d="M271.24,132.23a6,6,0,0,0,.63-1.46,5.69,5.69,0,0,0-.71-4.14,15.59,15.59,0,0,0-4.71-4.38l-6.59-4.58a34.31,34.31,0,0,0-6.85-4.08,10.07,10.07,0,0,0-6.28-.62,6.62,6.62,0,0,0-3.56,2.32,13.29,13.29,0,0,0-.83,1.38,1.65,1.65,0,0,1,.1-.41,5.37,5.37,0,0,1,.56-1.09,6.58,6.58,0,0,1,3.63-2.55,10.34,10.34,0,0,1,6.56.52,33.09,33.09,0,0,1,6.95,4.1l6.59,4.62a15.44,15.44,0,0,1,4.74,4.58,5.77,5.77,0,0,1,.6,4.39,3.76,3.76,0,0,1-.54,1.09C271.36,132.14,271.25,132.25,271.24,132.23Z" style="fill:#263238"></path><path d="M264.5,124.84a2.77,2.77,0,0,1-.82,0,17.4,17.4,0,0,1-2.19-.37,43.5,43.5,0,0,1-6.86-2.51,34,34,0,0,0-6.79-2.43,7.6,7.6,0,0,0-2.94.09,4.3,4.3,0,0,1,3-.46,28.68,28.68,0,0,1,6.94,2.32,58,58,0,0,0,6.74,2.63C263.36,124.62,264.51,124.75,264.5,124.84Z" style="fill:#263238"></path><path d="M236.09,120.45a5.37,5.37,0,0,1,5.46-2.62,27,27,0,0,0-2.91.94A27.94,27.94,0,0,0,236.09,120.45Z" style="fill:#263238"></path><path d="M235.19,131.74a5.67,5.67,0,0,1-.32-2.25,12.66,12.66,0,0,1,1.21-5.35,12.51,12.51,0,0,1,3.35-4.34,5.81,5.81,0,0,1,1.93-1.19c0,.08-.68.53-1.69,1.46a14.07,14.07,0,0,0-4.43,9.43C235.16,130.87,235.28,131.73,235.19,131.74Z" style="fill:#263238"></path><path d="M235.71,168.23l-.88,5.58c-5,6.27-15.74,17-17.88,21.64-2.76,6,16.84,58.22,16.84,58.22s-8,29.54-9.21,50.12L261.21,305l19.68-21.16.59,20.22,3.83-.73s-6.83-77.05-14.25-102.93l-7.55-21.15Z" style="fill:#FF725E"></path><path d="M273.43,210.41A3,3,0,0,1,273,210c-.26-.3-.64-.74-1.12-1.32-.95-1.16-2.3-2.86-3.94-5s-3.56-4.68-5.77-7.45c-1.09-1.39-2.34-2.78-3.43-4.4a10,10,0,0,1-1.94-5.71,6.06,6.06,0,0,1,1-3.43l.41.32a4.43,4.43,0,0,1-2.48,1.39,6.12,6.12,0,0,1-2.73-.08,16.52,16.52,0,0,1-4.5-2.19l-7.05-4.38-4.69-3-1.25-.82a3.28,3.28,0,0,1-.42-.31s.17.06.47.23l1.3.74,4.77,2.82,7.11,4.28a16,16,0,0,0,4.38,2.11,4.78,4.78,0,0,0,4.7-1.16l.4.31a5.55,5.55,0,0,0-.94,3.13,9.54,9.54,0,0,0,1.85,5.43c1.05,1.58,2.29,3,3.38,4.39,2.19,2.79,4.09,5.36,5.69,7.52l3.8,5.08c.43.56.77,1,1,1.38A2.86,2.86,0,0,1,273.43,210.41Z" style="fill:#263238"></path><path d="M281.48,304.09a2.24,2.24,0,0,1,0-.37c0-.28,0-.64-.07-1.08,0-1-.1-2.36-.18-4.09-.13-3.58-.31-8.62-.52-14.67l.38.14-15,17.23c-1.18,1.35-2.35,2.68-3.45,3.95l-.08.09h-.13l-26.91-1-8-.34-2.16-.11a4.52,4.52,0,0,1-.75-.08,6.31,6.31,0,0,1,.76,0l2.16,0,8,.19,26.91.79-.2.09c1.1-1.27,2.27-2.6,3.45-3.95,5.54-6.33,10.72-12.23,15.06-17.18l.38-.43v.56c.14,6.06.26,11.1.34,14.68,0,1.73,0,3.11.06,4.1v1.08C281.5,304,281.5,304.09,281.48,304.09Z" style="fill:#263238"></path><path d="M268,279.05l4.81,8.89s5.36,4.09,5.36,7.72L267.3,307.32l-.47-9.62-5.57-4.92Z" style="fill:#ffd4bd"></path><path d="M217.22,196.63s-.27,11.12-.27,25.19c0,9.75,5,46.44,7.63,49.21C228.7,275.31,259,296.9,259,296.9l11.69-15.32-27.06-27.72s.94-41.07-1.56-52.61C240.28,192.93,222.69,185.14,217.22,196.63Z" style="fill:#FF725E"></path><path d="M217.22,196.63a3.57,3.57,0,0,1,.18-.37,7.7,7.7,0,0,1,.58-1,9.43,9.43,0,0,1,3.33-3.18,11.7,11.7,0,0,1,7.25-1.17,19.15,19.15,0,0,1,9.12,3.91,13.82,13.82,0,0,1,3.83,4.46,9.26,9.26,0,0,1,.92,3c.08.53.19,1.06.27,1.6s.12,1.1.19,1.65c.49,4.44.72,9.24.89,14.34.32,10.21.32,21.65.09,34l-.07-.17,27.07,27.71.16.16-.14.18-4.42,5.8-7.26,9.52-.15.2-.2-.15c-6.8-4.77-13.37-9.47-19.65-14.07-3.13-2.3-6.19-4.58-9.13-6.88-1.47-1.16-2.92-2.3-4.28-3.53a9.14,9.14,0,0,1-1-1c-.15-.18-.32-.36-.45-.55l-.3-.62a17.9,17.9,0,0,1-1-2.53,87,87,0,0,1-2.34-10.12c-.62-3.3-1.09-6.52-1.54-9.64-.86-6.22-1.48-12-1.92-17.33-.22-2.66-.38-5.18-.44-7.58s0-4.65,0-6.75c.06-4.21.12-7.82.16-10.78s.09-5.21.12-6.78c0-.76,0-1.34,0-1.75l0-.59s0,.2,0,.6,0,1,0,1.76c0,1.57,0,3.85,0,6.79s0,6.56-.07,10.76c0,2.1-.08,4.35,0,6.74s.25,4.9.48,7.55c.46,5.29,1.1,11.09,2,17.31.45,3.1.93,6.32,1.55,9.61a88.88,88.88,0,0,0,2.35,10.06c.56,1.68,1.15,3.37,2.61,4.47s2.8,2.35,4.26,3.5c2.94,2.28,6,4.56,9.13,6.86,6.27,4.59,12.85,9.28,19.64,14.05l-.35.05,7.25-9.51,4.43-5.81,0,.34-27-27.73-.08-.08v-.1c.24-12.33.27-23.77,0-34-.16-5.1-.37-9.89-.84-14.31l-.18-1.64c-.08-.54-.18-1.06-.26-1.59a9,9,0,0,0-.87-3,13.54,13.54,0,0,0-3.73-4.38,19,19,0,0,0-9-3.91,11.58,11.58,0,0,0-7.15,1.08,9.44,9.44,0,0,0-3.33,3.09C217.47,196.13,217.25,196.64,217.22,196.63Z" style="fill:#263238"></path><path d="M278.71,295.32a17.28,17.28,0,0,1-1.85,2.28c-1.18,1.36-2.85,3.21-4.72,5.24s-3.57,3.85-4.83,5.14a16,16,0,0,1-2.11,2,17,17,0,0,1,1.84-2.27c1.19-1.36,2.85-3.22,4.72-5.25s3.58-3.85,4.83-5.15A15.89,15.89,0,0,1,278.71,295.32Z" style="fill:#263238"></path><path d="M243.82,254.57a21.06,21.06,0,0,0-6.09,3,21.29,21.29,0,0,0-4.41,5.18,5.3,5.3,0,0,1,.82-1.88,13.54,13.54,0,0,1,7.66-6A5.22,5.22,0,0,1,243.82,254.57Z" style="fill:#263238"></path><path d="M244.38,255a18.5,18.5,0,0,0-12.7,2.66,5.35,5.35,0,0,1,1.55-1.23,14.11,14.11,0,0,1,9.24-1.93A5.28,5.28,0,0,1,244.38,255Z" style="fill:#263238"></path><path d="M254.29,213.77l11.3-1s-4.84-9.11-7.69-8.83S254.29,213.77,254.29,213.77Z" style="fill:#fff"></path><path d="M268.75,212.64a72,72,0,0,1-8.54.82,68.14,68.14,0,0,1-8.58.31,72.32,72.32,0,0,1,8.54-.82A68.14,68.14,0,0,1,268.75,212.64Z" style="fill:#263238"></path></g><g id="character-1"><path d="M118,141.32c-2.38-.47-4.18-2.37-6.29-3.55a11.3,11.3,0,0,0-10.44-.21c-3.23,1.64-5.59,3.72-6,7.31L99,149.58" style="fill:#263238"></path><path d="M90.77,162.1l3.79,39.57c.65,6.73,3,16.48,13.56,15h0c9.1-2,11-11.11,10.44-17.38a51.62,51.62,0,0,0-1-5.64s10-1.91,9.75-12c-.11-4.85-1.15-14.83-2.2-23.84a18.69,18.69,0,0,0-19.24-16.52l-1,0C94.49,142.32,89.5,151.71,90.77,162.1Z" style="fill:#ffd4bd"></path><path d="M117.58,193.48a23.42,23.42,0,0,1-13.21-3.26s3.35,7.11,13.33,5.85Z" style="fill:#fdb094"></path><path d="M101,163.67a6.8,6.8,0,0,1,2.39-1.44,4.39,4.39,0,0,1,2.89-.23,5.17,5.17,0,0,1,2.09,3.09c-2.11-1.06-5.22-2-7.48-1.28" style="fill:#e0e0e0"></path><path d="M108.39,165.09c-.24.12-1.39-.74-3.22-1s-3.29.1-3.46-.09.19-.32.83-.51a6.53,6.53,0,0,1,2.81-.12,5.88,5.88,0,0,1,2.52,1C108.38,164.74,108.51,165,108.39,165.09Z" style="fill:#263238"></path><path d="M106,165.84a1.11,1.11,0,0,1-1,1.16,1.06,1.06,0,0,1-1.17-1,1.12,1.12,0,0,1,1-1.16A1.07,1.07,0,0,1,106,165.84Z" style="fill:#263238"></path><path d="M121.37,165.52a1.11,1.11,0,0,1-1,1.16,1.07,1.07,0,0,1-1.18-1,1.12,1.12,0,0,1,1-1.16A1.07,1.07,0,0,1,121.37,165.52Z" style="fill:#263238"></path><path d="M114,174.89a9.85,9.85,0,0,1,2.49-.54c.39,0,.76-.15.82-.42a2.06,2.06,0,0,0-.3-1.15c-.41-.94-.83-1.93-1.27-3-1.77-4.21-3.07-7.68-2.89-7.75s1.74,3.29,3.5,7.5l1.23,3a2.33,2.33,0,0,1,.25,1.54,1,1,0,0,1-.62.6,2.57,2.57,0,0,1-.67.12A9.76,9.76,0,0,1,114,174.89Z" style="fill:#263238"></path><path d="M107.17,157.56c-.12.39-1.48.26-3.07.51s-2.87.75-3.09.42c-.1-.17.11-.53.62-.92a5.3,5.3,0,0,1,4.69-.71C106.92,157.09,107.22,157.38,107.17,157.56Z" style="fill:#263238"></path><path d="M123.33,158.93c-.14.32-1.47.13-3.06.25s-2.86.47-3.06.17c-.09-.14.14-.44.66-.74a5.58,5.58,0,0,1,2.29-.64,5.86,5.86,0,0,1,2.38.32C123.11,158.52,123.4,158.78,123.33,158.93Z" style="fill:#263238"></path><path d="M91.85,169.5c-.17-.07-7-1.8-6.51,5.06s7.25,5,7.25,4.78S91.85,169.5,91.85,169.5Z" style="fill:#ffd4bd"></path><path d="M90.32,176.88s-.11.09-.31.2a1.2,1.2,0,0,1-.89.08,3,3,0,0,1-1.55-2.56,4.21,4.21,0,0,1,.22-1.73,1.39,1.39,0,0,1,.84-1,.61.61,0,0,1,.73.28c.1.19.07.33.1.33s.14-.12.07-.4a.79.79,0,0,0-.3-.41.88.88,0,0,0-.67-.13,1.68,1.68,0,0,0-1.18,1.15,4.05,4.05,0,0,0-.28,1.93A3.11,3.11,0,0,0,89,177.49a1.28,1.28,0,0,0,1.08-.26C90.32,177.05,90.34,176.89,90.32,176.88Z" style="fill:#fdb094"></path><path d="M127.18,155.67a14.5,14.5,0,0,1-13-2.45c-2.52-2-4.5-4.89-7.6-5.72a8.15,8.15,0,0,0-6.2,1.07,15.71,15.71,0,0,0-4.57,4.51c2.12,5,1,10.77-.12,16.11A2.74,2.74,0,0,1,95,170.8c-.79.65-2,.21-2.76-.51a8.51,8.51,0,0,1-2-4.41,28.38,28.38,0,0,1-.32-11.13,19.2,19.2,0,0,1,4.94-9.88,18.22,18.22,0,0,1,12.6-5.27,22.3,22.3,0,0,1,13.12,4.17,13.2,13.2,0,0,1,4.39,4.71" style="fill:#e0e0e0"></path><path d="M125.93,165c-.45-2.78-.5-6.26-1-9a16.66,16.66,0,0,1-12.1-3.92c-1.71-1.52-3.15-3.52-5.3-4.31-2.78-1-5.82.28-8.5,1.54l.11-.12a12.66,12.66,0,0,0-3.56,3.2A39,39,0,0,1,95.74,169a2.89,2.89,0,0,1-1.43,2c-1.47.76-2.45-.28-3.46-1-.75-.54-1.83-.92-2.54-.33a38.43,38.43,0,0,1-3.71-11.39,2.78,2.78,0,0,1-5.07,2.11,5.84,5.84,0,0,0,1.54-2.68,3.61,3.61,0,0,1-5.11-.77l2.3-2-3.08,0c2.46-.87,4.4-2.75,6.18-4.64s3.53-3.91,5.81-5.17,5.26-1.63,7.42-.17c.1-3.6,2.9-6.75,6.26-8a23.35,23.35,0,0,1,12.44-.37c2.68.76,5.39,2.6,8.74,5.39a32.74,32.74,0,0,1,4.42,4.39c2,2.41,6,6.41,10.17,5.59L136,156c-2.31,2-6.78-.22-6.78-.22s2.45,2.8,4.91,2.91l-.91,3.58s-3.76.39-5.2-2.6Z" style="fill:#e0e0e0"></path><path d="M95.83,153.08s.36-.51,1.1-1.36a10.52,10.52,0,0,1,6.73-3.87,6.49,6.49,0,0,1,3.59.17c2.44.92,4.09,3.58,6.65,5.37a15.46,15.46,0,0,0,8.14,3,18.71,18.71,0,0,0,2,0,1.88,1.88,0,0,1,.81.1,8.56,8.56,0,0,1,.75.44,7.35,7.35,0,0,1,1.94,2.5,6,6,0,0,0,3.92,2.7,5.82,5.82,0,0,0,1.3.12,1.94,1.94,0,0,0,.45,0c0-.06-.63,0-1.71-.29a5.89,5.89,0,0,1-3.63-2.7,7.56,7.56,0,0,0-2-2.68,8,8,0,0,0-.8-.48,2.26,2.26,0,0,0-1-.15,15.55,15.55,0,0,1-1.92-.07,15.2,15.2,0,0,1-7.86-3,30.45,30.45,0,0,1-3.32-3,10.44,10.44,0,0,0-3.47-2.44,6.91,6.91,0,0,0-3.86-.14,12.82,12.82,0,0,0-3.17,1,12,12,0,0,0-3.64,3.14,9.69,9.69,0,0,0-.74,1.08C95.88,152.92,95.81,153.07,95.83,153.08Z" style="fill:#fafafa"></path><path d="M84.69,158.31s0,.22.15.58a5.42,5.42,0,0,0,.76,1.47,2.68,2.68,0,0,0,2.31,1.12,1.87,1.87,0,0,0,1.39-.85,2.77,2.77,0,0,0,.42-1.7l-.52.1A2.21,2.21,0,0,0,91,160.45a2.68,2.68,0,0,0,2.07-.6,4.13,4.13,0,0,0,1.18-1.58,11.23,11.23,0,0,0,.68-3.13,16.89,16.89,0,0,1,.55-2.82,5.4,5.4,0,0,0-.93,2.77,11.56,11.56,0,0,1-.76,3,3.81,3.81,0,0,1-1,1.36,2.17,2.17,0,0,1-1.66.48,1.69,1.69,0,0,1-1.4-1L89,156.51l.23,2.46A1.77,1.77,0,0,1,87.85,161a2.33,2.33,0,0,1-2-.87,7.5,7.5,0,0,1-.87-1.34C84.82,158.48,84.72,158.3,84.69,158.31Z" style="fill:#fafafa"></path><path d="M86.67,165.94a2.81,2.81,0,0,0,1.87.63A6.56,6.56,0,0,0,93,165a12.5,12.5,0,0,0,2.87-3.77,6.18,6.18,0,0,0,.77-1.8,8.15,8.15,0,0,0-1.1,1.61,15.2,15.2,0,0,1-2.89,3.54,6.84,6.84,0,0,1-4.12,1.63A12.34,12.34,0,0,1,86.67,165.94Z" style="fill:#fafafa"></path><path d="M86.9,167.24a3.39,3.39,0,0,0,1.67.23,8.85,8.85,0,0,0,4-1,9.07,9.07,0,0,0,3.11-2.65,3.64,3.64,0,0,0,.77-1.5c-.08,0-.41.5-1.07,1.26A10.83,10.83,0,0,1,92.27,166a11,11,0,0,1-3.73,1.13A10.28,10.28,0,0,0,86.9,167.24Z" style="fill:#fafafa"></path><path d="M84.28,141.52A13.53,13.53,0,0,0,86,141.4a11.07,11.07,0,0,1,7.58,2.45,13.68,13.68,0,0,0,1.32,1.1s-.28-.63-1.06-1.39A9.7,9.7,0,0,0,86,141,3.6,3.6,0,0,0,84.28,141.52Z" style="fill:#fafafa"></path><path d="M93.91,136.24a8.65,8.65,0,0,0,.79,9.15,21.39,21.39,0,0,1-1.16-4.51A20.92,20.92,0,0,1,93.91,136.24Z" style="fill:#fafafa"></path><path d="M132.72,151.35a4.88,4.88,0,0,1-1.47.71,7.8,7.8,0,0,1-4.36-.82c-.89-.37-1.84-.83-2.88-1.31a18.6,18.6,0,0,1-3.13-1.75c-2.11-1.41-4.19-3.37-6.86-4.78a12.31,12.31,0,0,0-4.16-1.39,7.91,7.91,0,0,0-4.07.55c-2.41,1.05-4.17,2.62-6,3.2a5.75,5.75,0,0,1-4.36-.11,4.59,4.59,0,0,1-1.25-1.05s0,.14.2.39a3.29,3.29,0,0,0,.95.85,5.86,5.86,0,0,0,4.57.29c1.93-.58,3.75-2.14,6.06-3.1a7.37,7.37,0,0,1,3.81-.49,12.24,12.24,0,0,1,4,1.34c2.58,1.36,4.67,3.3,6.83,4.71a18.74,18.74,0,0,0,3.23,1.76c1,.45,2,.9,2.92,1.25a7.65,7.65,0,0,0,4.55.67,3,3,0,0,0,1.13-.6C132.64,151.47,132.74,151.36,132.72,151.35Z" style="fill:#fafafa"></path><path d="M94.52,144.8a35,35,0,0,1,2.8-2.47,15.55,15.55,0,0,1,8.33-3,25,25,0,0,1,4.93.4,28.37,28.37,0,0,0,4.1.37,9.21,9.21,0,0,0,2.77-.41,3.13,3.13,0,0,0,.93-.42,14.08,14.08,0,0,1-3.69.44,31.3,31.3,0,0,1-4-.48,24.73,24.73,0,0,0-5-.45,15.1,15.1,0,0,0-8.53,3.2,13.38,13.38,0,0,0-2,1.94A3,3,0,0,0,94.52,144.8Z" style="fill:#e0e0e0"></path><path d="M112.89,179.79c.06-.18-1.32-.44-2.4-1.59a7.48,7.48,0,0,1-1.13-1.68c-.26-.47-.44-.77-.51-.74s0,.37.15.89a5.15,5.15,0,0,0,1.1,1.9,4.06,4.06,0,0,0,1.89,1.15C112.53,179.87,112.88,179.85,112.89,179.79Z" style="fill:#263238"></path><path d="M117.22,164.63a5.37,5.37,0,0,1,2.11-3.1,3,3,0,0,1,2.31-.65,3.12,3.12,0,0,1,2.16,1.88,9.08,9.08,0,0,0-6.56,1.77" style="fill:#e0e0e0"></path><path d="M123.8,162.88c-.16.21-1.59-.06-3.37.49s-2.91,1.56-3.15,1.47,0-.38.52-.84a6.32,6.32,0,0,1,2.47-1.36,5.74,5.74,0,0,1,2.73-.2C123.62,162.56,123.88,162.78,123.8,162.88Z" style="fill:#263238"></path><path d="M91.91,179.07a7.22,7.22,0,0,1,1.3,1.44,28.66,28.66,0,0,1,2.65,4.09l.18.34-.38,0-2.25.21-3.85.3-.34,0,.09-.32a33.89,33.89,0,0,1,1.58-4.95,6,6,0,0,1-.24,1.42c-.2.9-.51,2.16-.88,3.65l-.25-.3,3.84-.35,2.26-.19-.2.37C93.63,181.39,91.8,179.16,91.91,179.07Z" style="fill:#FF725E"></path><path d="M43.09,428.1l.5,21.71s-23.45,8.59-23.26,13.61l43.45-.25-1.61-13.05,1-21.76Z" style="fill:#FF725E"></path><path d="M56.75,448.71a1.78,1.78,0,0,1,1.25,2A1.72,1.72,0,0,1,56,452a1.89,1.89,0,0,1-1.32-2.16,1.8,1.8,0,0,1,2.24-1.08" style="fill:#fff"></path><path d="M63.83,463.58l-.49-3.94L21.63,461a3.57,3.57,0,0,0-1.3,2.41Z" style="fill:#263238"></path><path d="M42.49,450.47c0,.21,1.08.3,2.14,1s1.62,1.58,1.82,1.5-.13-1.32-1.43-2.13S42.44,450.27,42.49,450.47Z" style="fill:#263238"></path><path d="M37.9,452.4c0,.2.88.56,1.62,1.46s.94,1.86,1.16,1.85.34-1.22-.59-2.32S37.9,452.19,37.9,452.4Z" style="fill:#263238"></path><path d="M35.32,457.92c.19,0,.49-1-.07-2.2s-1.56-1.63-1.65-1.45.53.8,1,1.77S35.11,457.9,35.32,457.92Z" style="fill:#263238"></path><path d="M42.85,445.3c.09.19,1.07-.11,2.28,0s2.16.46,2.27.27-.8-.94-2.23-1S42.74,445.13,42.85,445.3Z" style="fill:#263238"></path><path d="M197.84,427.49l8.47,20s24.91-1.81,26.8,2.84L193.4,468l-3.9-12.55-10.87-19Z" style="fill:#FF725E"></path><path d="M193.86,451.9a1.79,1.79,0,0,0-.3,2.37,1.72,1.72,0,0,0,2.34.32,1.88,1.88,0,0,0,.31-2.51,1.79,1.79,0,0,0-2.48-.07" style="fill:#fff"></path><path d="M193.53,468.36l-1.18-3.79,38.59-15.89a3.54,3.54,0,0,1,2.17,1.65Z" style="fill:#263238"></path><path d="M207.58,447.64c.09.2-.85.72-1.54,1.78s-.83,2.1-1,2.11-.43-1.26.42-2.53S207.55,447.44,207.58,447.64Z" style="fill:#263238"></path><path d="M212.56,447.51c.13.17-.57.88-.87,2s-.1,2.08-.3,2.16-.81-1-.41-2.36S212.47,447.32,212.56,447.51Z" style="fill:#263238"></path><path d="M217.18,451.48c-.16.12-.86-.74-.84-2s.76-2.13.91-2-.15.95-.16,2S217.37,451.37,217.18,451.48Z" style="fill:#263238"></path><path d="M205.13,443.07c0,.21-1,.34-2.09.91s-1.78,1.3-2,1.18.35-1.19,1.62-1.84S205.16,442.87,205.13,443.07Z" style="fill:#263238"></path><path d="M94.13,292.43s-58.47,68.8-59.87,76.19,5.62,68.89,5.62,68.89l25.47,1.31L63.16,374.6,115.48,326l37.86,59.2,31.18,64.71s20.45-8.62,21.33-8.63-29.36-74.73-29.36-74.73l-25.55-70-16.63-9.85Z" style="fill:#e0e0e0"></path><path d="M115.08,310.89s0,.44-.71.63a1.78,1.78,0,0,1-1.15-.13,2,2,0,0,1-1-1.18,13.76,13.76,0,0,1-.2-3.82c0-1.42,0-3,0-4.62,0-3.27-.17-6.24-.28-8.38a28.49,28.49,0,0,1-.11-3.49,3.28,3.28,0,0,1,.19.92c.08.6.19,1.47.29,2.54.2,2.14.39,5.12.43,8.41,0,1.64,0,3.21,0,4.63a14.64,14.64,0,0,0,.07,3.69,1.61,1.61,0,0,0,1.75,1.23A1.35,1.35,0,0,0,115.08,310.89Z" style="fill:#263238"></path><path d="M114.58,291.53s0-.13.21-.24a1.09,1.09,0,0,1,.87,0,1.22,1.22,0,0,1,.83,1,1.33,1.33,0,0,1-1,1.29,1.29,1.29,0,0,1-1.15-.15,1.34,1.34,0,0,1-.53-.87,1.37,1.37,0,0,1,.45-1.34l0,0h0c.32-.07.51-.08.53,0s-.15.14-.45.28l0,0a1.21,1.21,0,0,0-.19,1.05.83.83,0,0,0,1.08.63.9.9,0,0,0,.65-.78.86.86,0,0,0-.49-.71C115,291.32,114.62,291.6,114.58,291.53Z" style="fill:#263238"></path><path d="M194.16,444.26a1.64,1.64,0,0,1-.2-.31l-.53-.94c-.47-.85-1.13-2.07-2-3.62-1.72-3.15-4.15-7.74-7.1-13.44-5.88-11.4-13.69-27.33-21.59-45.25s-14.39-34.44-18.86-46.47c-2.23-6-4-10.9-5.16-14.29L137.38,316c-.14-.43-.25-.76-.33-1a1.41,1.41,0,0,1-.1-.35,1.47,1.47,0,0,1,.15.33l.38,1,1.44,3.87c1.23,3.37,3,8.23,5.32,14.23,4.55,12,11.09,28.47,19,46.39s15.65,33.85,21.45,45.29c2.9,5.72,5.28,10.34,7,13.51.82,1.58,1.46,2.81,1.9,3.67.21.4.37.72.49,1Z" style="fill:#263238"></path><path d="M48.49,437.51a1.77,1.77,0,0,1,0-.35l-.07-1c0-.94-.11-2.27-.2-4-.16-3.47-.39-8.44-.67-14.56s-.58-13.47-.93-21.6c-.16-4.06-.34-8.33-.52-12.75-.09-2.21-.19-4.46-.28-6.74,0-.57-.05-1.15-.07-1.72l0-.87a2.79,2.79,0,0,1,0-.9,10.93,10.93,0,0,1,1.32-3.32,57.55,57.55,0,0,1,3.84-5.83c1.36-1.84,2.75-3.62,4.14-5.35,2.78-3.45,5.55-6.7,8.23-9.76,5.36-6.13,10.33-11.52,14.54-16s7.66-8.07,10.07-10.53l2.78-2.82.74-.72a2.07,2.07,0,0,1,.26-.24s-.07.1-.23.27l-.69.76c-.65.68-1.56,1.65-2.72,2.89L78.07,333C73.9,337.55,69,343,63.62,349.09c-2.66,3.07-5.43,6.32-8.19,9.77-1.39,1.72-2.77,3.5-4.12,5.34a56.9,56.9,0,0,0-3.8,5.77,10.63,10.63,0,0,0-1.27,3.14,7.93,7.93,0,0,0,0,1.69c0,.58.05,1.15.07,1.72q.14,3.42.27,6.74c.17,4.42.33,8.69.49,12.75.31,8.12.58,15.44.82,21.6s.38,11.09.5,14.56c0,1.69.08,3,.11,4,0,.43,0,.77,0,1A1.35,1.35,0,0,1,48.49,437.51Z" style="fill:#263238"></path><path d="M119.39,197.6c-8.77,4.89-18,4-27.62-1.38l12.86,78-9.6,18,38.72-5.53,1.58-14.88-4.56-66.58Z" style="fill:#FF725E"></path><polygon points="91.31 190.88 86.95 198.23 79.2 200.65 88.63 273.22 64.54 311.52 88.15 319.09 120.16 268.33 110.62 227.82 104.14 211.44 91.31 190.88" style="fill:#e0e0e0"></polygon><path d="M117.25,193.44l2.12,1.93,2.83,2.57,22.5,8.51-6.94,53,22.09,52.91-4.84,6s-9.69-4.66-11.21-5.47c-3.77-2-4.67-6.26-11.1-18.1s-12.54-26.47-12.54-26.47L125,222.45l-5.56-19.23Z" style="fill:#e0e0e0"></path><path d="M170,313.31c0-1.05.08-40-1.78-50.15s-23.53-56.71-23.53-56.71l-6.22,40.68,9.66,18.45,5,43Z" style="fill:#e0e0e0"></path><path d="M112.94,241.84a2.2,2.2,0,0,1-.38-.46l-1-1.38c-.89-1.2-2.18-2.92-3.88-5s-3.78-4.43-6.25-6.93c-1.22-1.26-2.59-2.48-3.93-3.89a11.52,11.52,0,0,1-2.9-5.23,29.52,29.52,0,0,1-.49-7.47,31.4,31.4,0,0,0-.37-6.63l.22.18-8.23,0h-.18v-.17a23,23,0,0,1,.87-5.14c.17-.58.33-1,.44-1.32a2.1,2.1,0,0,1,.2-.43s-.17.63-.46,1.8a24.79,24.79,0,0,0-.71,5.1l-.17-.17,8.23-.08h.19l0,.19a31.14,31.14,0,0,1,.42,6.73,30,30,0,0,0,.49,7.33,11,11,0,0,0,2.78,5c1.29,1.37,2.68,2.62,3.9,3.9,2.46,2.53,4.53,4.95,6.19,7s2.91,3.85,3.75,5.08c.42.62.74,1.1.94,1.44A3,3,0,0,1,112.94,241.84Z" style="fill:#263238"></path><path d="M118.54,261.45a2.54,2.54,0,0,1,.14.45c.09.33.2.77.35,1.32.3,1.22.72,2.92,1.26,5.08v.05l0,0c-4.21,6.82-11.86,19-20.62,32.94L88.34,319.22l-.09.15-.17-.06L71,313.74l-4.79-1.6L65,311.69a2.37,2.37,0,0,1-.43-.17,2.16,2.16,0,0,1,.45.1l1.28.38,4.84,1.48,17.11,5.39L88,319c3.33-5.3,7.17-11.41,11.26-17.9C108,287.16,115.71,275,120,268.26l0,.1-1.13-5.1c-.12-.56-.21-1-.28-1.34A1.69,1.69,0,0,1,118.54,261.45Z" style="fill:#263238"></path><path d="M78.11,289.94a7.14,7.14,0,0,1-.64,1.2l-2,3.24-.09-.25c3.41,1.09,8.41,2.74,14,4.63l-.29.09.6-.8L93,293.81l.13.4-10.75-3-3.12-.9-1.13-.33a24.7,24.7,0,0,1,4.34.92c2.69.68,6.46,1.68,10.8,2.86l.35.1-.22.3-3.19,4.24-.61.8-.11.15-.18-.06c-5.61-1.89-10.6-3.61-14-4.8l-.2-.07.11-.18L77.31,291A7.73,7.73,0,0,1,78.11,289.94Z" style="fill:#263238"></path><path d="M123.78,253.58a3.71,3.71,0,0,1,.16-.62c.13-.45.31-1,.53-1.73.5-1.56,1.2-3.72,2-6.35,1.71-5.36,4.23-12.73,6.63-21,.11-.42.24-.86.32-1.26a1.74,1.74,0,0,0-.07-1.15,14.84,14.84,0,0,0-1.1-2.27c-.84-1.46-1.73-2.83-2.61-4.15-1.76-2.62-3.47-5-5-7.09l-.11-.16.14-.12,2.78-2.41,0,.23-3.38-5.35-.89-1.45a2.9,2.9,0,0,1-.28-.53,2.33,2.33,0,0,1,.37.47l1,1.41,3.51,5.25.09.13-.12.11L125,208l0-.28c1.57,2.07,3.3,4.44,5.08,7.07.89,1.32,1.79,2.69,2.65,4.17a16.5,16.5,0,0,1,1.14,2.35,2.47,2.47,0,0,1,.16.71,2,2,0,0,1-.07.7c-.08.46-.22.87-.32,1.3-2.42,8.27-5,15.61-6.79,20.95-.92,2.61-1.66,4.74-2.21,6.29-.25.7-.46,1.27-.62,1.71A2.85,2.85,0,0,1,123.78,253.58Z" style="fill:#263238"></path><path d="M137.76,259.45a2.34,2.34,0,0,1,.13.26c.09.2.21.45.35.77l1.31,3,4.75,11.18,15.78,37.6.06.14-.09.12-4.26,5.29-.58.71-.12.15-.17-.07c-2.06-.78-4-1.64-6-2.56a41.1,41.1,0,0,1-5.51-3.1,9.2,9.2,0,0,1-2.3-2.1,10.61,10.61,0,0,1-.86-1.28c-.26-.43-.53-.85-.77-1.29-1-1.72-1.89-3.44-2.77-5.12-3.46-6.74-6.4-12.88-8.86-18s-4.39-9.35-5.71-12.26c-.65-1.43-1.15-2.55-1.51-3.35l-.38-.87a1.52,1.52,0,0,1-.11-.31,1.64,1.64,0,0,1,.16.28c.11.22.25.5.42.86.38.79.92,1.89,1.6,3.31L128.2,285c2.5,5.14,5.47,11.27,9,18,.89,1.67,1.8,3.38,2.78,5.1.24.43.51.84.76,1.27a9.68,9.68,0,0,0,.83,1.22,8.62,8.62,0,0,0,2.2,2,38.83,38.83,0,0,0,5.45,3.05c1.91.92,3.9,1.77,5.93,2.55l-.29.08.57-.72,4.26-5.29,0,.26L144,274.81c-1.95-4.75-3.51-8.57-4.61-11.24l-1.22-3.05c-.13-.33-.23-.59-.3-.79A1,1,0,0,1,137.76,259.45Z" style="fill:#263238"></path><path d="M79.5,200.56s-14,4.29-16,9.56-.63,39.22,5.79,49.66a45.07,45.07,0,0,0,10.07,11.91,5,5,0,0,0,4.66.85L125,259.18l-4.07-19.92-30.7,9.44L85,221.1Z" style="fill:#e0e0e0"></path><path d="M84,272.54s.06,0,.2-.09l.61-.23,2.35-.81L96,268.54c7.44-2.41,17.85-5.64,29.37-9.85l-.16.3c-.41-1.74-.83-3.59-1.27-5.46-1.14-5-2.25-9.77-3.26-14.19l-.09-.36.33.06a.25.25,0,0,1,.13.47h0l0,0-.06,0-.11,0-.23.07-.45.15-.88.28-1.75.55-3.4,1.05-6.34,1.94L97.21,246.8l-6.9,2-1.84.52a4.39,4.39,0,0,1-.65.16,3.15,3.15,0,0,1,.62-.24l1.83-.6,6.85-2.16,10.45-3.27,6.33-2,3.39-1.07,1.75-.55.88-.29.44-.15.22-.07.11,0,0,0s0,0,0,0,0,.1.09.16,0,0,0,.09l.24-.1c1,4.42,2.14,9.21,3.29,14.19.43,1.87.86,3.71,1.26,5.45l0,.23-.21.08c-11.55,4.2-22,7.37-29.44,9.69l-8.81,2.72-2.38.73-.63.17Z" style="fill:#263238"></path><path d="M82.12,255.92a2.49,2.49,0,0,1,.15-1.35,7.35,7.35,0,0,1,1.57-2.86,7.52,7.52,0,0,1,2.62-2c.78-.33,1.3-.39,1.31-.33a14,14,0,0,0-3.54,2.62A13.4,13.4,0,0,0,82.12,255.92Z" style="fill:#263238"></path><path d="M83,219a5.92,5.92,0,0,1,.18,1.21c.09.79.26,1.91.52,3.29.5,2.77,1.59,6.5,2.7,10.66a42.7,42.7,0,0,1,1.68,10.91,21.84,21.84,0,0,1-.26,3.35,5.17,5.17,0,0,1-.29,1.2c-.1,0,.26-1.74.18-4.54a48.09,48.09,0,0,0-1.81-10.79,108.63,108.63,0,0,1-2.56-10.73,29.51,29.51,0,0,1-.36-3.33A5.35,5.35,0,0,1,83,219Z" style="fill:#263238"></path><path d="M149.69,330.49c-.31-.31,3.52-11.17,3.52-11.17l4.46-7.52.81-4.15,7.85-.7.14,2.43s5.4,10.93,5.66,11.26,6.65,6.71,6.23,7.74c0,0-.32,2.05-2.17.57s-5.63-4.55-5.63-4.55,5,11.18,4.78,11.93-.16,1.33-1.23,1-4-6.28-4-6.28l-2.46-3.58s4.87,12.38,4.29,12.74-.81.72-2-.34-5.61-11.11-5.61-11.11-.54-.26-.77,0l-.22.26L165,340.44s-1,1.85-2.49-1-3.86-13.08-3.86-13.08l-2.3-3.71s-1.63,5.06-2.38,6S151.26,332,149.69,330.49Z" style="fill:#ffd4bd"></path><path d="M123.56,240.88s1.81-4.4,3.23-5.95,13.93-9.58,13.93-9.58,1.92-.24.08,2.82a20.12,20.12,0,0,1-5,5.28s16.09.2,16,2.11-2.4,1.75-2.92,1.69l-10.32.86s3.9.63,3.94,2.46a2.24,2.24,0,0,1-1.47,2.28s3.09.35,2.58,2.63a2.24,2.24,0,0,1-2.5,1.81s9.9,3.44,9.5,5.44S141,251,141,251l-12.15.5-4.7,3-2.72-12.52Z" style="fill:#ffd4bd"></path><path d="M149.3,234.42a17.63,17.63,0,0,1-2.79-.12c-1.71-.12-4.08-.29-6.69-.4a48.59,48.59,0,0,0-6.67.09,7.75,7.75,0,0,0-2,.43c-.43.17-.6.37-.64.34s.11-.28.55-.53a6.3,6.3,0,0,1,2-.6,34.83,34.83,0,0,1,6.75-.25c2.63.11,5,.34,6.71.56A13,13,0,0,1,149.3,234.42Z" style="fill:#fdb094"></path><path d="M139.83,238.17a6.09,6.09,0,0,1-2.45.2,5.84,5.84,0,0,1-2.45-.32,6.13,6.13,0,0,1,2.46-.2A5.77,5.77,0,0,1,139.83,238.17Z" style="fill:#fdb094"></path><path d="M141.42,243.14c0,.14-.69.22-1.52.28s-1.52.08-1.54-.06.64-.4,1.5-.46S141.43,243,141.42,243.14Z" style="fill:#fdb094"></path></g></svg>