<svg xmlns="http://www.w3.org/2000/svg" viewBox="0 0 500 500"><g id="background-complete"><path d="M182.24,74.33a7.89,7.89,0,0,0-5.81,1.54c-1.68,1.17-3.26,3.56-4.58,5.13l0,.48,0-.5c-1.56-1.33-3.52-3.42-5.38-4.3a7.92,7.92,0,0,0-6-.56,7.23,7.23,0,0,0-4.35,5.42,11.93,11.93,0,0,0,1,7.07,18.52,18.52,0,0,0,16.18,10.83v0A18.53,18.53,0,0,0,187.6,86.09a12.07,12.07,0,0,0-.18-7.14A7.2,7.2,0,0,0,182.24,74.33Z" style="fill:#f5f5f5"></path><path d="M400.86,194.82a7.87,7.87,0,0,0-5.8,1.54c-1.69,1.17-3.27,3.56-4.59,5.13l0,.48-.05-.5c-1.56-1.33-3.52-3.42-5.37-4.3a8,8,0,0,0-6-.56,7.23,7.23,0,0,0-4.35,5.42,12,12,0,0,0,1,7.07A18.49,18.49,0,0,0,392,219.93v0a18.52,18.52,0,0,0,14.26-13.39,11.91,11.91,0,0,0-.18-7.14A7.2,7.2,0,0,0,400.86,194.82Z" style="fill:#f5f5f5"></path><path d="M151.29,404.42a7.88,7.88,0,0,0-5.8,1.54c-1.68,1.17-3.26,3.56-4.59,5.13l0,.48,0-.5c-1.57-1.33-3.52-3.43-5.38-4.3a7.92,7.92,0,0,0-6-.56,7.19,7.19,0,0,0-4.35,5.42,11.94,11.94,0,0,0,1,7.07,18.52,18.52,0,0,0,16.18,10.83v0a18.5,18.5,0,0,0,14.26-13.39,12,12,0,0,0-.17-7.15A7.16,7.16,0,0,0,151.29,404.42Z" style="fill:#f5f5f5"></path><path d="M116.9,172.05a10.88,10.88,0,0,0-7.75,2.67c-2.18,1.77-4.1,5.18-5.74,7.45l.1.64-.11-.67c-2.27-1.66-5.14-4.32-7.75-5.33a10.89,10.89,0,0,0-8.2-.17,9.83,9.83,0,0,0-5.38,7.81A16.35,16.35,0,0,0,84.15,194a25.29,25.29,0,0,0,23.1,13.14v.06a25.29,25.29,0,0,0,18.1-19.64,16.38,16.38,0,0,0-.94-9.72A9.86,9.86,0,0,0,116.9,172.05Z" style="fill:#f5f5f5"></path><path d="M125.92,356.77a10.79,10.79,0,0,0-7.75,2.67c-2.18,1.77-4.1,5.17-5.75,7.44l.1.65-.1-.68c-2.27-1.65-5.14-4.31-7.75-5.32a10.79,10.79,0,0,0-8.2-.17,9.83,9.83,0,0,0-5.38,7.81,16.3,16.3,0,0,0,2.08,9.53,25.27,25.27,0,0,0,23.1,13.15v0a25.28,25.28,0,0,0,18.1-19.63,16.45,16.45,0,0,0-.94-9.72A9.86,9.86,0,0,0,125.92,356.77Z" style="fill:#f5f5f5"></path><path d="M444,226.24a10.79,10.79,0,0,0-7.75,2.67c-2.18,1.76-4.1,5.17-5.75,7.44l.1.65-.1-.68c-2.27-1.65-5.14-4.31-7.75-5.32a10.79,10.79,0,0,0-8.2-.17,9.83,9.83,0,0,0-5.38,7.8,16.33,16.33,0,0,0,2.08,9.54,25.27,25.27,0,0,0,23.1,13.15v.05a25.27,25.27,0,0,0,18.11-19.64,16.42,16.42,0,0,0-.94-9.71A9.84,9.84,0,0,0,444,226.24Z" style="fill:#f5f5f5"></path><path d="M317.42,252.09l-119.65-1.15-36.26-.17-9.86,0-2.57,0a5.89,5.89,0,0,0-.87.05,4.93,4.93,0,0,0,.87.06l2.57.06,9.85.12,36.26.2,119.66.08c46.7,0,89,.05,119.61.28,15.3.11,27.69.25,36.25.42,4.29.08,7.61.17,9.86.26a16.78,16.78,0,0,1,3.44.26,18.49,18.49,0,0,1-3.44.22c-2.25.07-5.58.12-9.86.16-8.56.07-20.95.09-36.26,0C406.4,253,364.12,252.58,317.42,252.09Z" style="fill:#ebebeb"></path><path d="M316.49,262.63l-118-19.74-35.79-5.8-9.75-1.51-2.54-.36q-.85-.1-.87-.09a4.78,4.78,0,0,0,.86.2l2.52.46,9.72,1.66,35.79,5.83L316.6,261.94c46.13,7.24,87.9,13.87,118.11,18.85,15.11,2.49,27.32,4.56,35.75,6.06,4.22.74,7.49,1.35,9.7,1.79a17.57,17.57,0,0,1,3.35.79,17.94,17.94,0,0,1-3.43-.31c-2.24-.28-5.53-.75-9.76-1.37-8.47-1.26-20.72-3.16-35.83-5.59C404.26,277.32,362.54,270.38,316.49,262.63Z" style="fill:#ebebeb"></path><path d="M313.91,272.9,200.48,234.82l-34.43-11.37-9.39-3-2.45-.76a5.44,5.44,0,0,0-.84-.22,4.73,4.73,0,0,0,.81.33l2.42.85,9.33,3.17,34.43,11.39,113.78,37c44.42,14.42,84.62,27.54,113.67,37.21,14.52,4.84,26.26,8.81,34.35,11.61,4,1.41,7.18,2.52,9.29,3.3a16.44,16.44,0,0,1,3.19,1.32,17.55,17.55,0,0,1-3.34-.85c-2.17-.63-5.35-1.61-9.43-2.89-8.17-2.57-20-6.38-34.5-11.16C398.28,301.23,358.17,287.8,313.91,272.9Z" style="fill:#ebebeb"></path><path d="M309.76,282.63l-106-55.46-32.21-16.64-8.8-4.46-2.3-1.14a4.49,4.49,0,0,0-.8-.35,4.93,4.93,0,0,0,.75.45l2.26,1.22,8.72,4.6,32.2,16.67L310.08,282c41.6,21.24,79.24,40.52,106.4,54.65,13.58,7.06,24.55,12.82,32.1,16.87,3.77,2,6.69,3.61,8.66,4.71a17.38,17.38,0,0,1,2.94,1.8,18.83,18.83,0,0,1-3.17-1.37c-2-1-5-2.43-8.85-4.34-7.66-3.83-18.7-9.44-32.31-16.45C388.62,323.87,351.13,304.3,309.76,282.63Z" style="fill:#ebebeb"></path><path d="M304.13,291.58l-96.06-71.34-29.21-21.48-8-5.78-2.09-1.48A6.67,6.67,0,0,0,168,191a5,5,0,0,0,.67.57l2,1.55,7.89,5.91c6.93,5.09,16.89,12.43,29.21,21.5L304.55,291c37.77,27.48,71.93,52.41,96.55,70.61,12.31,9.09,22.24,16.5,29.06,21.67,3.42,2.59,6,4.62,7.82,6a18.14,18.14,0,0,1,2.63,2.24,17.47,17.47,0,0,1-2.92-1.84c-1.86-1.27-4.58-3.19-8.06-5.68-7-5-17-12.25-29.35-21.29C375.58,344.64,341.6,319.45,304.13,291.58Z" style="fill:#ebebeb"></path><path d="M297.18,299.55l-83.8-85.42-25.52-25.76-7-7c-.8-.77-1.41-1.36-1.84-1.79a3.8,3.8,0,0,0-.66-.58,8.38,8.38,0,0,0,.58.66l1.77,1.85,6.88,7.06,25.5,25.78,84.57,84.65c33,33,62.9,63,84.39,84.76,10.75,10.9,19.4,19.77,25.34,25.94,3,3.08,5.26,5.49,6.79,7.15a17.9,17.9,0,0,1,2.24,2.62,18.41,18.41,0,0,1-2.59-2.28c-1.64-1.54-4-3.86-7.08-6.86-6.11-6-14.89-14.74-25.68-25.6C359.5,363.07,329.86,332.91,297.18,299.55Z" style="fill:#ebebeb"></path><path d="M289.07,306.34l-69.49-97.42-21.2-29.41-5.82-8L191,169.5a6.16,6.16,0,0,0-.55-.68,3.8,3.8,0,0,0,.46.74c.35.51.83,1.21,1.46,2.11l5.7,8.05,21.18,29.43,70.38,96.77c27.49,37.75,52.34,72,70.17,96.86,8.92,12.44,16.1,22.54,21,29.56,2.46,3.51,4.34,6.25,5.6,8.12a18.14,18.14,0,0,1,1.81,2.93,17.72,17.72,0,0,1-2.21-2.64c-1.38-1.79-3.38-4.44-5.93-7.88C375,426,367.68,416,358.7,403.59,340.75,378.78,316.17,344.37,289.07,306.34Z" style="fill:#ebebeb"></path><path d="M280,311.78c-20.85-41.82-39.72-79.66-53.4-107.08-6.89-13.65-12.47-24.7-16.35-32.37-1.94-3.79-3.46-6.73-4.51-8.77l-1.19-2.27a4.93,4.93,0,0,0-.45-.75,5.72,5.72,0,0,0,.35.8l1.11,2.31c1,2.06,2.48,5,4.37,8.84l16.32,32.38c13.93,27.3,33.14,65,54.38,106.59s40.45,79.27,54.17,106.63c6.87,13.68,12.37,24.78,16.12,32.48,1.87,3.85,3.31,6.85,4.25,8.9a17.28,17.28,0,0,1,1.33,3.18,18.71,18.71,0,0,1-1.77-3c-1.08-2-2.64-4.91-4.62-8.71-4-7.58-9.62-18.61-16.55-32.26C319.72,391.41,300.82,353.58,280,311.78Z" style="fill:#ebebeb"></path><path d="M270.2,315.73c-14-44.58-26.69-84.91-35.89-114.15-4.65-14.56-8.43-26.35-11-34.54-1.33-4-2.36-7.19-3.08-9.36-.35-1.05-.63-1.85-.83-2.43a7.42,7.42,0,0,0-.31-.82,4.33,4.33,0,0,0,.21.85c.17.59.42,1.4.73,2.46.68,2.18,1.66,5.35,2.93,9.41l11,34.55,36.93,113.81c14.45,44.41,27.48,84.65,36.73,113.83,4.63,14.59,8.32,26.42,10.8,34.61,1.25,4.1,2.19,7.29,2.8,9.46a16.15,16.15,0,0,1,.81,3.35,18.07,18.07,0,0,1-1.28-3.2c-.76-2.12-1.84-5.27-3.2-9.33-2.72-8.12-6.57-19.89-11.26-34.46C296.89,400.62,284.17,360.29,270.2,315.73Z" style="fill:#ebebeb"></path><path d="M259.89,318.09c-6.83-46.23-13-88.06-17.48-118.38-2.31-15.11-4.18-27.35-5.48-35.84-.67-4.21-1.2-7.48-1.56-9.74-.19-1.08-.33-1.92-.43-2.52a5.61,5.61,0,0,0-.19-.86,5.15,5.15,0,0,0,.08.87c.08.61.19,1.45.34,2.54.32,2.27.8,5.55,1.41,9.76,1.29,8.5,3.15,20.74,5.44,35.85,4.76,30.28,11.32,72,18.57,118.21s13.81,87.91,18.35,118.19c2.28,15.14,4.06,27.4,5.23,35.88.58,4.24,1,7.54,1.28,9.78a17.33,17.33,0,0,1,.27,3.44,19.11,19.11,0,0,1-.76-3.37c-.42-2.21-1-5.49-1.69-9.71-1.41-8.45-3.36-20.68-5.7-35.81C272.89,406.12,266.68,364.29,259.89,318.09Z" style="fill:#ebebeb"></path><path d="M249.34,318.8c.42-46.72.8-89,1.07-119.65.07-15.29.12-27.66.16-36.26,0-4.26,0-7.57,0-9.86,0-1.1,0-1.95,0-2.56a4.59,4.59,0,0,0-.05-.88,8.56,8.56,0,0,0,0,.88c0,.61,0,1.46-.06,2.56,0,2.29-.07,5.6-.12,9.86,0,8.59-.1,21-.17,36.26,0,30.65,0,72.93,0,119.66s0,89-.21,119.6c-.1,15.31-.24,27.7-.39,36.26-.08,4.28-.17,7.61-.26,9.86a18.57,18.57,0,0,1-.25,3.44,17.8,17.8,0,0,1-.23-3.44c-.07-2.26-.12-5.58-.16-9.86-.08-8.57-.11-21-.07-36.26C248.54,407.79,248.88,365.5,249.34,318.8Z" style="fill:#ebebeb"></path><path d="M238.79,317.88c7.68-46.09,14.63-87.8,19.67-118,2.44-15.09,4.41-27.31,5.78-35.8.65-4.21,1.15-7.48,1.5-9.74.16-1.09.28-1.94.36-2.54a4.73,4.73,0,0,0,.09-.87,4.49,4.49,0,0,0-.2.85c-.1.6-.26,1.44-.45,2.53-.39,2.25-.94,5.52-1.66,9.71-1.37,8.49-3.36,20.71-5.8,35.8-4.77,30.27-11.33,72-18.59,118.2s-13.82,87.91-18.78,118.12c-2.48,15.11-4.54,27.33-6,35.76-.75,4.22-1.35,7.49-1.78,9.7a17,17,0,0,1-.8,3.35,19.07,19.07,0,0,1,.31-3.43c.28-2.24.75-5.53,1.37-9.77,1.25-8.47,3.14-20.71,5.56-35.83C224.16,405.66,231.08,363.94,238.79,317.88Z" style="fill:#ebebeb"></path><path d="M228.52,315.31c14.85-44.3,28.28-84.39,38-113.45,4.78-14.53,8.66-26.28,11.35-34.44l3-9.39c.32-1.06.57-1.87.75-2.45a6.52,6.52,0,0,0,.23-.85,5.26,5.26,0,0,0-.33.81c-.2.58-.48,1.38-.85,2.42-.74,2.17-1.8,5.31-3.16,9.34l-11.38,34.43c-9.47,29.15-22.53,69.37-37,113.81s-27.49,84.64-37.15,113.69c-4.82,14.53-8.78,26.26-11.58,34.36-1.4,4-2.51,7.18-3.29,9.29a16.44,16.44,0,0,1-1.32,3.19,17.88,17.88,0,0,1,.84-3.34c.64-2.17,1.61-5.35,2.89-9.43,2.57-8.17,6.37-20,11.13-34.51C200.25,399.69,213.65,359.58,228.52,315.31Z" style="fill:#ebebeb"></path><path d="M218.8,311.17c21.63-41.42,41.2-78.9,55.38-106.07l16.63-32.23,4.45-8.79,1.14-2.3a4.49,4.49,0,0,0,.35-.8,4.32,4.32,0,0,0-.45.75L295.08,164c-1.07,2-2.61,4.95-4.59,8.72-3.95,7.63-9.63,18.63-16.65,32.21L219.42,311.49C198.21,353.1,179,390.75,164.84,417.92,157.79,431.5,152,442.47,148,450c-2,3.77-3.61,6.69-4.71,8.66a16.84,16.84,0,0,1-1.8,2.94,18.92,18.92,0,0,1,1.36-3.16c1-2,2.43-5,4.34-8.86,3.82-7.66,9.43-18.71,16.43-32.33C177.61,390.05,197.15,352.55,218.8,311.17Z" style="fill:#ebebeb"></path><path d="M209.84,305.54c27.84-37.52,53-71.48,71.28-96.1,9.05-12.33,16.38-22.3,21.46-29.23l5.78-8,1.48-2.1a4.19,4.19,0,0,0,.47-.73,7.25,7.25,0,0,0-.56.67l-1.56,2-5.9,7.9-21.48,29.21L210.41,306c-27.45,37.78-52.36,72-70.55,96.59-9.08,12.32-16.49,22.25-21.65,29.08-2.59,3.41-4.61,6.05-6,7.82a19.47,19.47,0,0,1-2.23,2.63,17.34,17.34,0,0,1,1.83-2.92c1.28-1.86,3.19-4.58,5.67-8.07,5-7,12.24-17,21.28-29.36C156.82,377,182,343,209.84,305.54Z" style="fill:#ebebeb"></path><path d="M201.87,298.6l85.36-83.85C298.09,204,306.87,195.26,313,189.21l6.95-7c.76-.8,1.36-1.41,1.78-1.84a3.8,3.8,0,0,0,.58-.66,7.53,7.53,0,0,0-.65.58l-1.86,1.77-7,6.89L287,214.48,202.37,299.1c-33,33-62.92,62.93-84.71,84.44C106.76,394.29,97.9,403,91.74,408.89c-3.09,3-5.5,5.27-7.15,6.8A17.9,17.9,0,0,1,82,417.93a18.65,18.65,0,0,1,2.27-2.59c1.55-1.64,3.86-4,6.86-7.09,6-6.11,14.74-14.89,25.59-25.69C138.38,361,168.53,331.3,201.87,298.6Z" style="fill:#ebebeb"></path><path d="M195.08,290.49l97.36-69.55,29.41-21.22,7.95-5.83,2.05-1.54a4.47,4.47,0,0,0,.67-.55,4.19,4.19,0,0,0-.73.47c-.51.34-1.21.83-2.11,1.46l-8,5.7-29.42,21.2-96.73,70.44c-37.73,27.52-71.94,52.38-96.81,70.23-12.44,8.93-22.53,16.11-29.55,21-3.51,2.46-6.25,4.34-8.12,5.6a17.23,17.23,0,0,1-2.93,1.81,17.72,17.72,0,0,1,2.64-2.21c1.79-1.38,4.44-3.38,7.88-5.93,6.87-5.11,16.87-12.43,29.27-21.41C122.66,342.22,157.05,317.61,195.08,290.49Z" style="fill:#ebebeb"></path><path d="M189.63,281.43l107-53.47L329,211.6l8.77-4.52,2.26-1.2a4.43,4.43,0,0,0,.76-.44,6.07,6.07,0,0,0-.81.35l-2.31,1.11-8.83,4.38L296.5,227.62,190,282.06c-41.57,21.28-79.25,40.5-106.6,54.24-13.68,6.88-24.78,12.39-32.47,16.14C47,354.32,44,355.75,42,356.7A17.28,17.28,0,0,1,38.8,358a17.8,17.8,0,0,1,3-1.77c2-1.09,4.91-2.65,8.71-4.63,7.58-4,18.6-9.63,32.25-16.57C110,321.2,147.83,302.27,189.63,281.43Z" style="fill:#ebebeb"></path><path d="M185.67,271.63l114.13-36,34.53-11.07,9.36-3.08,2.43-.83a5.5,5.5,0,0,0,.81-.32,4.56,4.56,0,0,0-.84.21l-2.46.74-9.41,2.93-34.54,11-113.79,37c-44.4,14.48-84.63,27.53-113.81,36.79-14.59,4.64-26.41,8.34-34.6,10.83-4.1,1.25-7.29,2.2-9.46,2.81a18,18,0,0,1-3.35.81,18.53,18.53,0,0,1,3.2-1.28c2.12-.76,5.27-1.84,9.33-3.21,8.11-2.73,19.89-6.58,34.46-11.28C100.79,298.37,141.12,285.63,185.67,271.63Z" style="fill:#ebebeb"></path><path d="M183.31,261.32l118.36-17.56,35.84-5.5,9.73-1.56,2.53-.44a5.61,5.61,0,0,0,.86-.19,7.07,7.07,0,0,0-.88.08l-2.54.34-9.75,1.42-35.85,5.47L183.41,262c-46.12,7.31-87.9,13.86-118.17,18.42-15.14,2.29-27.4,4.08-35.88,5.25-4.24.59-7.54,1-9.78,1.29a17.33,17.33,0,0,1-3.44.27,19.11,19.11,0,0,1,3.36-.76c2.22-.42,5.5-1,9.72-1.7,8.44-1.41,20.68-3.37,35.81-5.72C95.28,274.37,137.11,268.13,183.31,261.32Z" style="fill:#ebebeb"></path><path d="M182.58,250.77l119.66,1,36.26.13,9.85,0,2.57,0a8.17,8.17,0,0,0,.87-.05,4.79,4.79,0,0,0-.87-.06l-2.56-.06-9.86-.11-36.26-.15-119.66.07c-46.7.06-89,.05-119.61-.13-15.3-.09-27.69-.23-36.25-.38-4.29-.08-7.61-.16-9.86-.24a18.85,18.85,0,0,1-3.44-.26,18.77,18.77,0,0,1,3.44-.23c2.25-.07,5.58-.12,9.86-.17,8.56-.08,21-.12,36.26-.09C93.6,250,135.88,250.34,182.58,250.77Z" style="fill:#ebebeb"></path><path d="M183.5,240.22l118,19.59,35.8,5.76,9.75,1.49,2.54.36a4.73,4.73,0,0,0,.87.09,5.61,5.61,0,0,0-.86-.19l-2.52-.46-9.72-1.65-35.8-5.78L183.39,240.92c-46.15-7.19-87.92-13.77-118.14-18.71-15.1-2.47-27.32-4.52-35.76-6-4.21-.74-7.48-1.34-9.7-1.77a18.93,18.93,0,0,1-3.35-.79,17.22,17.22,0,0,1,3.43.3c2.24.28,5.53.74,9.77,1.36,8.47,1.25,20.72,3.14,35.83,5.54C95.71,225.65,137.44,232.54,183.5,240.22Z" style="fill:#ebebeb"></path><path d="M186.06,230l113.48,37.94L334,279.22l9.39,3,2.45.76a5.06,5.06,0,0,0,.85.22,5.17,5.17,0,0,0-.82-.33l-2.42-.85-9.34-3.15-34.43-11.36L185.84,230.63c-44.44-14.37-84.66-27.44-113.72-37.08-14.53-4.81-26.27-8.77-34.36-11.56-4-1.4-7.19-2.51-9.3-3.29a17.85,17.85,0,0,1-3.19-1.31,17.88,17.88,0,0,1,3.34.84c2.17.63,5.35,1.6,9.43,2.88,8.17,2.56,20,6.36,34.52,11.11C101.66,201.73,141.78,215.11,186.06,230Z" style="fill:#ebebeb"></path><path d="M190.2,220.22l106.1,55.32,32.24,16.6,8.8,4.45c1,.49,1.75.87,2.3,1.13a7,7,0,0,0,.8.36,4.93,4.93,0,0,0-.75-.45l-2.26-1.22-8.73-4.59-32.22-16.63-106.6-54.35c-41.62-21.18-79.28-40.42-106.46-54.51-13.6-7-24.57-12.79-32.12-16.82-3.78-2-6.7-3.6-8.67-4.71a18.35,18.35,0,0,1-3-1.79,18.1,18.1,0,0,1,3.17,1.36c2,1,5,2.43,8.86,4.33,7.67,3.82,18.72,9.42,32.34,16.41C111.29,179.08,148.81,198.6,190.2,220.22Z" style="fill:#ebebeb"></path><path d="M195.82,211.26,292,282.48l29.24,21.44,8,5.77,2.1,1.48a4,4,0,0,0,.74.47,6.81,6.81,0,0,0-.68-.56l-2-1.55-7.91-5.9-29.23-21.46L195.4,211.83c-37.8-27.43-72-52.32-96.63-70.48-12.33-9.09-22.27-16.48-29.1-21.65-3.41-2.58-6.05-4.6-7.82-6a17.11,17.11,0,0,1-2.63-2.23,18.52,18.52,0,0,1,2.92,1.84c1.86,1.27,4.58,3.18,8.07,5.66,7,5,17,12.23,29.37,21.26C124.31,158.29,158.31,183.43,195.82,211.26Z" style="fill:#ebebeb"></path><path d="M202.76,203.28l83.9,85.31,25.56,25.73,7,6.95,1.84,1.78a3.8,3.8,0,0,0,.66.58,5.78,5.78,0,0,0-.58-.65l-1.77-1.86c-1.6-1.63-3.92-4-6.89-7.05l-25.54-25.74c-21.68-21.66-51.61-51.53-84.67-84.55s-63-62.88-84.49-84.66C107,108.24,98.34,99.39,92.39,93.22c-3-3.08-5.26-5.49-6.8-7.14a18.25,18.25,0,0,1-2.24-2.61,18,18,0,0,1,2.59,2.26c1.64,1.55,4,3.86,7.09,6.85,6.12,6,14.91,14.73,25.71,25.57C140.36,139.84,170,170,202.76,203.28Z" style="fill:#ebebeb"></path><path d="M210.86,196.49l69.61,97.32,21.24,29.39,5.83,7.95c.67.88,1.18,1.56,1.54,2.05a5.67,5.67,0,0,0,.56.67,5.53,5.53,0,0,0-.47-.74l-1.46-2.1c-1.32-1.87-3.24-4.57-5.71-8l-21.22-29.41c-18.06-24.76-43-58.93-70.49-96.68S157.86,125,140,100.13c-8.94-12.43-16.13-22.52-21-29.53-2.46-3.51-4.35-6.24-5.6-8.12a17.86,17.86,0,0,1-1.82-2.93,17.56,17.56,0,0,1,2.21,2.65c1.39,1.78,3.39,4.43,6,7.87,5.11,6.87,12.43,16.86,21.42,29.25C159.09,124.1,183.72,158.48,210.86,196.49Z" style="fill:#ebebeb"></path><path d="M219.92,191l53.53,107c6.91,13.63,12.5,24.68,16.39,32.34,2,3.79,3.47,6.73,4.52,8.76l1.2,2.27a6.22,6.22,0,0,0,.44.75,5.27,5.27,0,0,0-.34-.8c-.27-.55-.64-1.31-1.12-2.31-1-2.05-2.49-5-4.38-8.83L273.8,297.87c-14-27.28-33.23-64.92-54.51-106.52S178.74,112.13,165,84.79c-6.89-13.68-12.4-24.77-16.16-32.46-1.88-3.85-3.32-6.85-4.27-8.9a19.53,19.53,0,0,1-1.33-3.17,16.55,16.55,0,0,1,1.77,3c1.09,2,2.65,4.91,4.64,8.7,4,7.59,9.65,18.61,16.59,32.25C180.1,111.45,199.05,149.25,219.92,191Z" style="fill:#ebebeb"></path><path d="M229.72,187.07l36,114.1,11.09,34.52c1.34,4.05,2.37,7.2,3.09,9.37.36,1,.63,1.85.83,2.42a4.74,4.74,0,0,0,.32.82,5.35,5.35,0,0,0-.22-.85c-.17-.58-.41-1.4-.73-2.46l-2.94-9.41c-2.62-8.18-6.4-20-11.06-34.53L229.05,187.29c-14.51-44.39-27.58-84.61-36.87-113.79-4.65-14.58-8.35-26.41-10.85-34.6-1.25-4.09-2.2-7.28-2.81-9.45a17.7,17.7,0,0,1-.82-3.35A18.94,18.94,0,0,1,179,29.3c.76,2.12,1.84,5.27,3.21,9.32,2.73,8.12,6.6,19.89,11.3,34.46C202.92,102.21,215.69,142.53,229.72,187.07Z" style="fill:#ebebeb"></path><path d="M240,184.7c6.88,46.21,13.11,88,17.63,118.35,2.33,15.11,4.21,27.34,5.52,35.84.68,4.2,1.21,7.47,1.57,9.73.19,1.09.34,1.93.44,2.53a5.63,5.63,0,0,0,.19.85,5.15,5.15,0,0,0-.08-.87c-.08-.6-.2-1.45-.34-2.54-.33-2.27-.81-5.54-1.42-9.76-1.31-8.49-3.18-20.73-5.5-35.84-4.79-30.27-11.4-72-18.71-118.18s-13.92-87.9-18.5-118.17c-2.3-15.14-4.1-27.39-5.28-35.88-.59-4.24-1-7.53-1.29-9.77a19.17,19.17,0,0,1-.28-3.44,17.4,17.4,0,0,1,.77,3.36c.42,2.22,1,5.49,1.7,9.72,1.43,8.44,3.39,20.67,5.75,35.8C226.91,96.68,233.18,138.5,240,184.7Z" style="fill:#ebebeb"></path><path d="M250.58,184c-.36,46.72-.69,89-.93,119.65,0,15.29-.08,27.67-.11,36.26,0,4.26,0,7.57,0,9.86,0,1.1,0,1.95,0,2.56a8.56,8.56,0,0,0,0,.88,5,5,0,0,0,.06-.88c0-.6,0-1.46.05-2.56,0-2.29.06-5.6.11-9.86,0-8.59.07-21,.13-36.26,0-30.65-.09-72.93-.15-119.65s-.11-89,.06-119.61c.08-15.31.2-27.7.35-36.26.08-4.28.16-7.6.24-9.86a17.88,17.88,0,0,1,.26-3.44,19,19,0,0,1,.23,3.44c.07,2.26.12,5.58.17,9.86.09,8.57.14,21,.12,36.26C251.27,95,251,137.27,250.58,184Z" style="fill:#ebebeb"></path><path d="M261.12,184.88c-7.62,46.1-14.51,87.81-19.51,118.05l-5.74,35.81c-.64,4.21-1.14,7.48-1.49,9.74-.15,1.1-.27,1.94-.35,2.54a4.8,4.8,0,0,0-.09.87,3.92,3.92,0,0,0,.19-.85c.11-.6.26-1.44.46-2.52.38-2.26.93-5.53,1.64-9.72,1.37-8.49,3.33-20.71,5.76-35.8,4.72-30.29,11.24-72.07,18.44-118.23s13.7-87.93,18.63-118.15c2.45-15.11,4.5-27.33,6-35.76.74-4.22,1.34-7.49,1.77-9.7a16.9,16.9,0,0,1,.79-3.36,18.26,18.26,0,0,1-.3,3.43c-.28,2.24-.74,5.54-1.36,9.77-1.24,8.48-3.12,20.72-5.52,35.84C275.64,97.08,268.77,138.81,261.12,184.88Z" style="fill:#ebebeb"></path><path d="M271.39,187.43,233.53,300.94c-4.77,14.52-8.63,26.29-11.3,34.45l-3,9.39c-.32,1.06-.57,1.87-.75,2.45a5.68,5.68,0,0,0-.22.85,4.73,4.73,0,0,0,.33-.81l.84-2.42c.74-2.17,1.79-5.31,3.15-9.34,2.69-8.17,6.56-19.93,11.33-34.45l36.82-113.85c14.33-44.45,27.38-84.68,37-113.74,4.81-14.53,8.75-26.28,11.54-34.37,1.4-4.05,2.5-7.19,3.28-9.31a17.91,17.91,0,0,1,1.31-3.18A18.31,18.31,0,0,1,323,30c-.63,2.17-1.6,5.35-2.87,9.43-2.56,8.18-6.34,20-11.09,34.53C299.56,103,286.21,143.14,271.39,187.43Z" style="fill:#ebebeb"></path><path d="M281.13,191.57C259.55,233,240,270.52,225.88,297.7c-7,13.6-12.66,24.61-16.59,32.25l-4.44,8.8-1.13,2.3a4.49,4.49,0,0,0-.35.8,5.31,5.31,0,0,0,.45-.75c.29-.53.69-1.28,1.21-2.26,1.07-2,2.61-5,4.58-8.73l16.61-32.23c13.91-27.31,33.09-65,54.28-106.64S320.87,111.94,335,84.75c7-13.6,12.77-24.58,16.8-32.13,2-3.78,3.6-6.71,4.7-8.68A17.87,17.87,0,0,1,358.24,41a18.1,18.1,0,0,1-1.36,3.17c-1,2-2.42,5-4.32,8.86-3.81,7.67-9.41,18.72-16.39,32.35C322.22,112.63,302.72,150.16,281.13,191.57Z" style="fill:#ebebeb"></path><path d="M290.09,197.18l-71.16,96.19-21.42,29.26-5.77,8-1.47,2.09a6.67,6.67,0,0,0-.48.74,4.66,4.66,0,0,0,.56-.67l1.56-2,5.89-7.91,21.44-29.24,70.28-96.84c27.4-37.82,52.27-72,70.42-96.68C369,87.75,376.41,77.81,381.57,71c2.58-3.41,4.6-6,6-7.83a17.32,17.32,0,0,1,2.23-2.62A17.58,17.58,0,0,1,388,63.43c-1.27,1.87-3.18,4.59-5.66,8.08-5,7-12.22,17-21.24,29.39C343,125.63,317.9,159.65,290.09,197.18Z" style="fill:#ebebeb"></path><path d="M298.07,204.11l-85.26,84L187.1,313.64l-6.94,7c-.76.8-1.36,1.41-1.78,1.85a4.06,4.06,0,0,0-.58.65,5.78,5.78,0,0,0,.65-.58l1.86-1.77,7-6.9,25.73-25.55,84.49-84.73c33-33.09,62.84-63,84.61-84.54,10.88-10.77,19.72-19.45,25.88-25.39,3.08-3,5.49-5.27,7.14-6.81a18.9,18.9,0,0,1,2.61-2.25,17.67,17.67,0,0,1-2.26,2.6c-1.55,1.64-3.85,4-6.85,7.1-6,6.12-14.72,14.91-25.55,25.72C361.48,141.67,331.37,171.37,298.07,204.11Z" style="fill:#ebebeb"></path><path d="M304.88,212.21,207.6,281.88l-29.38,21.26L170.28,309l-2.05,1.54a4.49,4.49,0,0,0-.68.56,7.32,7.32,0,0,0,.74-.47l2.11-1.46,8-5.72,29.39-21.24,96.64-70.55c37.7-27.57,71.87-52.48,96.72-70.36,12.43-8.95,22.51-16.14,29.52-21.06,3.51-2.46,6.24-4.35,8.12-5.61a17.23,17.23,0,0,1,2.93-1.81A19.12,19.12,0,0,1,439.1,115c-1.78,1.38-4.43,3.39-7.86,5.95-6.87,5.11-16.86,12.44-29.25,21.43C377.22,160.39,342.86,185,304.88,212.21Z" style="fill:#ebebeb"></path><path d="M310.33,221.26l-107,53.61L171,291.27l-8.76,4.53L160,297a4.79,4.79,0,0,0-.76.45,6.07,6.07,0,0,0,.81-.35l2.3-1.11,8.83-4.39,32.35-16.38L310,220.63c41.55-21.33,79.2-40.59,106.54-54.37,13.66-6.9,24.75-12.42,32.45-16.18,3.84-1.88,6.84-3.32,8.88-4.27a18,18,0,0,1,3.18-1.34,17.41,17.41,0,0,1-2.95,1.78c-2,1.08-4.91,2.65-8.7,4.64-7.58,4-18.6,9.65-32.24,16.6C389.9,181.4,352.1,200.37,310.33,221.26Z" style="fill:#ebebeb"></path><path d="M314.3,231.06,200.22,267.17l-34.51,11.11-9.36,3.1-2.43.83a4.36,4.36,0,0,0-.81.32,5.68,5.68,0,0,0,.85-.22l2.45-.73,9.41-2.95,34.53-11.09,113.74-37.15c44.38-14.53,84.59-27.63,113.76-36.94,14.58-4.66,26.4-8.37,34.59-10.87,4.09-1.26,7.28-2.21,9.45-2.82a17.7,17.7,0,0,1,3.35-.82,18.94,18.94,0,0,1-3.2,1.29c-2.12.76-5.27,1.85-9.32,3.22-8.12,2.74-19.88,6.61-34.45,11.32C399.15,204.21,358.84,217,314.3,231.06Z" style="fill:#ebebeb"></path><path d="M316.68,241.37,198.34,259.08l-35.83,5.54-9.73,1.58-2.53.44a4.89,4.89,0,0,0-.85.19,5.22,5.22,0,0,0,.87-.08l2.54-.34,9.75-1.43,35.84-5.52,118.17-18.79c46.12-7.37,87.89-14,118.16-18.58,15.13-2.3,27.39-4.11,35.87-5.29,4.24-.6,7.54-1,9.78-1.3a17,17,0,0,1,3.43-.28,18.12,18.12,0,0,1-3.36.77c-2.21.42-5.49,1-9.71,1.71-8.44,1.42-20.68,3.4-35.8,5.76C404.69,228.2,362.87,234.49,316.68,241.37Z" style="fill:#ebebeb"></path></g><g id="background-simple"><path d="M455.24,332.06,454,330.78a40.17,40.17,0,0,0-40-11.17,38.49,38.49,0,0,0-5.37,2,42.17,42.17,0,0,0-23.66,32c-1.13,8.11,0,16.9-4,24-5.17,9.27-16.81,12.12-27.16,14.08s-22,4.84-27.13,14.14c-3.21,5.81-3,13-1.24,19.47,4.75,17.05,20.2,29.8,37.19,34.07s35.14,1,51.12-6.14c22.38-9.94,41.78-27.86,50.72-50.88S470.77,351.31,455.24,332.06Z" style="fill:#f5f5f5"></path><path d="M41.59,209.13,43,210.27a40.16,40.16,0,0,0,41,6.53,38.28,38.28,0,0,0,5.11-2.59A42.16,42.16,0,0,0,109,179.7c.2-8.18-1.94-16.79,1.19-24.32,4.08-9.8,15.32-13.95,25.38-17.08s21.3-7.32,25.34-17.14c2.53-6.15,1.53-13.3-1-19.49-6.66-16.4-23.47-27.3-40.83-29.6S84,75.13,69,84c-21.1,12.42-38.33,32.45-44.59,56.34S24,191.79,41.59,209.13Z" style="fill:#f5f5f5"></path><circle cx="441.39" cy="250" r="37.41" style="fill:#f5f5f5"></circle><circle cx="65" cy="272.99" r="37.41" transform="translate(-105.12 49.81) rotate(-23.92)" style="fill:#f5f5f5"></circle></g><g id="Hearts"><path d="M296.94,130.48c-1.86-5.59-6.48-9.93-11.71-12.63-3-1.54-6.8-3.52-6.52-6.87.23-2.72,1.93-5,2.85-7.52.8-2.25-1.39-4.78-2.77-5.91-5.08-4.15-14.35,2.92-15.19-3.57s7.55-10.87,6.55-29h0a21.26,21.26,0,0,0-1.5-7.61c-1.93-4.69-6.09-8.63-11.09-9.4-4.25-.66-8.6,1-12.06,3.52s-6.66,7.62-9.34,11l.1,1-.11-1c-3.35-2.7-7.55-7-11.48-8.72s-8.52-2.41-12.53-.86c-4.72,1.83-7.94,6.57-8.82,11.56s.34,10.16,2.49,14.75A34.64,34.64,0,0,0,208,83.15h0l0,0a37.72,37.72,0,0,0,6.11,7.29C225,101.63,242,112,255.48,112.31c2.7.07,6,.3,7.14,2.77,1,2.14-.47,4.64-.06,7,.58,3.33,4.58,4.83,8,4.84s6.91-.82,10,.45a8,8,0,0,1,1.9,13.64c-3.84,3-9.43,1.93-14,3.59a12.47,12.47,0,0,0-8,11.78c2.69-5.19,9.45-6.55,15.29-6.66s12.25.29,16.92-3.23S298.8,136.06,296.94,130.48Z" style="fill:#FF725E"></path><g style="opacity:0.8"><path d="M296.94,130.48c-1.86-5.59-6.48-9.93-11.71-12.63-3-1.54-6.8-3.52-6.52-6.87.23-2.72,1.93-5,2.85-7.52.8-2.25-1.39-4.78-2.77-5.91-5.08-4.15-14.35,2.92-15.19-3.57s7.55-10.87,6.55-29h0a21.26,21.26,0,0,0-1.5-7.61c-1.93-4.69-6.09-8.63-11.09-9.4-4.25-.66-8.6,1-12.06,3.52s-6.66,7.62-9.34,11l.1,1-.11-1c-3.35-2.7-7.55-7-11.48-8.72s-8.52-2.41-12.53-.86c-4.72,1.83-7.94,6.57-8.82,11.56s.34,10.16,2.49,14.75A34.64,34.64,0,0,0,208,83.15h0l0,0a37.72,37.72,0,0,0,6.11,7.29C225,101.63,242,112,255.48,112.31c2.7.07,6,.3,7.14,2.77,1,2.14-.47,4.64-.06,7,.58,3.33,4.58,4.83,8,4.84s6.91-.82,10,.45a8,8,0,0,1,1.9,13.64c-3.84,3-9.43,1.93-14,3.59a12.47,12.47,0,0,0-8,11.78c2.69-5.19,9.45-6.55,15.29-6.66s12.25.29,16.92-3.23S298.8,136.06,296.94,130.48Z" style="fill:#fff"></path></g><path d="M313,94a5.65,5.65,0,0,0-4.21-.63,21.21,21.21,0,0,0-4.44,2l-.11.32.12-.34a21.4,21.4,0,0,0-2.29-4.31,5.6,5.6,0,0,0-3.74-2,5.12,5.12,0,0,0-4.36,2.3,8.48,8.48,0,0,0-1.33,4.9,13.15,13.15,0,0,0,7.48,11.61v0a13.14,13.14,0,0,0,13.07-4.69,8.58,8.58,0,0,0,1.9-4.71A5.15,5.15,0,0,0,313,94Z" style="fill:#FF725E"></path><g style="opacity:0.8"><path d="M313,94a5.65,5.65,0,0,0-4.21-.63,21.21,21.21,0,0,0-4.44,2l-.11.32.12-.34a21.4,21.4,0,0,0-2.29-4.31,5.6,5.6,0,0,0-3.74-2,5.12,5.12,0,0,0-4.36,2.3,8.48,8.48,0,0,0-1.33,4.9,13.15,13.15,0,0,0,7.48,11.61v0a13.14,13.14,0,0,0,13.07-4.69,8.58,8.58,0,0,0,1.9-4.71A5.15,5.15,0,0,0,313,94Z" style="fill:#fff"></path></g><path d="M296.58,63.57a3.86,3.86,0,0,0-2.93,0,13.73,13.73,0,0,0-2.84,1.8l-.05.22.05-.24a14.93,14.93,0,0,0-1.95-2.74,3.88,3.88,0,0,0-2.74-1.06,3.51,3.51,0,0,0-2.76,2,5.81,5.81,0,0,0-.47,3.47A9,9,0,0,0,289,74.18v0a9.06,9.06,0,0,0,8.5-4.38,5.91,5.91,0,0,0,.87-3.38A3.5,3.5,0,0,0,296.58,63.57Z" style="fill:#FF725E"></path><g style="opacity:0.8"><path d="M296.58,63.57a3.86,3.86,0,0,0-2.93,0,13.73,13.73,0,0,0-2.84,1.8l-.05.22.05-.24a14.93,14.93,0,0,0-1.95-2.74,3.88,3.88,0,0,0-2.74-1.06,3.51,3.51,0,0,0-2.76,2,5.81,5.81,0,0,0-.47,3.47A9,9,0,0,0,289,74.18v0a9.06,9.06,0,0,0,8.5-4.38,5.91,5.91,0,0,0,.87-3.38A3.5,3.5,0,0,0,296.58,63.57Z" style="fill:#fff"></path></g><path d="M198.1,102.63a11.53,11.53,0,0,0-7.16,5c-1.72,2.44-2.7,6.5-3.73,9.3l.29.64-.3-.67c-2.81-1-6.52-2.92-9.5-3.2a11.54,11.54,0,0,0-8.45,2.21,10.49,10.49,0,0,0-3.25,9.57,17.45,17.45,0,0,0,4.91,9.18,26.94,26.94,0,0,0,27.51,6.75l0,.05a26.93,26.93,0,0,0,12.84-25.4,17.45,17.45,0,0,0-3.79-9.69A10.5,10.5,0,0,0,198.1,102.63Z" style="fill:#FF725E"></path><g style="opacity:0.8"><path d="M198.1,102.63a11.53,11.53,0,0,0-7.16,5c-1.72,2.44-2.7,6.5-3.73,9.3l.29.64-.3-.67c-2.81-1-6.52-2.92-9.5-3.2a11.54,11.54,0,0,0-8.45,2.21,10.49,10.49,0,0,0-3.25,9.57,17.45,17.45,0,0,0,4.91,9.18,26.94,26.94,0,0,0,27.51,6.75l0,.05a26.93,26.93,0,0,0,12.84-25.4,17.45,17.45,0,0,0-3.79-9.69A10.5,10.5,0,0,0,198.1,102.63Z" style="fill:#fff"></path></g><path d="M209.65,189.61a5.6,5.6,0,0,0-4,1.49,21,21,0,0,0-2.89,3.94l.06.33-.06-.35a21.68,21.68,0,0,0-4.1-2.67,5.66,5.66,0,0,0-4.26,0,5.15,5.15,0,0,0-2.7,4.13,8.51,8.51,0,0,0,1.21,4.92A13.14,13.14,0,0,0,205.09,208v0a13.16,13.16,0,0,0,9.16-10.44,8.49,8.49,0,0,0-.62-5A5.11,5.11,0,0,0,209.65,189.61Z" style="fill:#FF725E"></path><g style="opacity:0.8"><path d="M209.65,189.61a5.6,5.6,0,0,0-4,1.49,21,21,0,0,0-2.89,3.94l.06.33-.06-.35a21.68,21.68,0,0,0-4.1-2.67,5.66,5.66,0,0,0-4.26,0,5.15,5.15,0,0,0-2.7,4.13,8.51,8.51,0,0,0,1.21,4.92A13.14,13.14,0,0,0,205.09,208v0a13.16,13.16,0,0,0,9.16-10.44,8.49,8.49,0,0,0-.62-5A5.11,5.11,0,0,0,209.65,189.61Z" style="fill:#fff"></path></g><path d="M203,156.08a3.85,3.85,0,0,0-2.27,1.85,14.69,14.69,0,0,0-1,3.22l.11.2-.12-.21a14.59,14.59,0,0,0-3.26-.83,3.84,3.84,0,0,0-2.77,1,3.52,3.52,0,0,0-.84,3.29,5.87,5.87,0,0,0,1.88,2.94,9.05,9.05,0,0,0,9.38,1.55h0a9,9,0,0,0,3.64-8.83,5.87,5.87,0,0,0-1.52-3.15A3.52,3.52,0,0,0,203,156.08Z" style="fill:#FF725E"></path><g style="opacity:0.8"><path d="M203,156.08a3.85,3.85,0,0,0-2.27,1.85,14.69,14.69,0,0,0-1,3.22l.11.2-.12-.21a14.59,14.59,0,0,0-3.26-.83,3.84,3.84,0,0,0-2.77,1,3.52,3.52,0,0,0-.84,3.29,5.87,5.87,0,0,0,1.88,2.94,9.05,9.05,0,0,0,9.38,1.55h0a9,9,0,0,0,3.64-8.83,5.87,5.87,0,0,0-1.52-3.15A3.52,3.52,0,0,0,203,156.08Z" style="fill:#fff"></path></g><path d="M298.51,205.85a3.88,3.88,0,0,0-2.94,0,13.73,13.73,0,0,0-2.84,1.8l-.05.23.05-.25a15.27,15.27,0,0,0-2-2.74,3.9,3.9,0,0,0-2.73-1.06,3.51,3.51,0,0,0-2.77,2,5.85,5.85,0,0,0-.47,3.46,9,9,0,0,0,6.15,7.25v0a9,9,0,0,0,8.49-4.38,5.83,5.83,0,0,0,.87-3.38A3.51,3.51,0,0,0,298.51,205.85Z" style="fill:#FF725E"></path><g style="opacity:0.8"><path d="M298.51,205.85a3.88,3.88,0,0,0-2.94,0,13.73,13.73,0,0,0-2.84,1.8l-.05.23.05-.25a15.27,15.27,0,0,0-2-2.74,3.9,3.9,0,0,0-2.73-1.06,3.51,3.51,0,0,0-2.77,2,5.85,5.85,0,0,0-.47,3.46,9,9,0,0,0,6.15,7.25v0a9,9,0,0,0,8.49-4.38,5.83,5.83,0,0,0,.87-3.38A3.51,3.51,0,0,0,298.51,205.85Z" style="fill:#fff"></path></g></g><g id="Potion"><path d="M272.21,199.91c10.39-7.9,21.18-15.24,31.65-23,2.05-1.53,4.14-3.94,6.54-1.5,1.17,1.19,3-.65,1.84-1.84a5.38,5.38,0,0,0-6.88-1c-2.57,1.67-5,3.72-7.46,5.53-6,4.34-12,8.61-18,12.94-3,2.19-6.06,4.4-9,6.67-1.32,1,0,3.26,1.31,2.25Z" style="fill:#263238"></path><path d="M374.26,175.3,364,141.58a4.65,4.65,0,0,0-5.79-3.1l-41.64,12.65a4.55,4.55,0,0,0-1.87,1.1l-15.54,14.94A4.65,4.65,0,0,0,298,172l5.2,15a4.63,4.63,0,0,0,3.62,3.06c5.6.93,18.14,2.93,21.87,3.52a4.78,4.78,0,0,0,2.09-.14l40.39-12.4A4.65,4.65,0,0,0,374.26,175.3ZM315,178.48a5.44,5.44,0,1,1-.32-6.37A5.44,5.44,0,0,1,315,178.48Z" style="fill:#fff"></path><path d="M374.26,175.3,364,141.58a4.65,4.65,0,0,0-5.79-3.1l-41.64,12.65a4.55,4.55,0,0,0-1.87,1.1l-15.54,14.94A4.65,4.65,0,0,0,298,172l5.2,15a4.63,4.63,0,0,0,3.62,3.06c5.6.93,18.14,2.93,21.87,3.52a4.78,4.78,0,0,0,2.09-.14l40.39-12.4A4.65,4.65,0,0,0,374.26,175.3ZM315,178.48a5.44,5.44,0,1,1-.32-6.37A5.44,5.44,0,0,1,315,178.48Z" style="fill:none"></path><path d="M315,178.48s.24-.43.49-1.24a5.6,5.6,0,0,0-.11-3.49,5.2,5.2,0,1,0-4.54,7,5.45,5.45,0,0,0,3.23-1.32c.63-.57.89-1,.93-.94s0,.11-.16.31a4.92,4.92,0,0,1-.63.79,5.44,5.44,0,0,1-3.34,1.54,5.62,5.62,0,0,1-5-2.17,5.71,5.71,0,0,1-.25-6.54,5.81,5.81,0,0,1,2.77-2.22,5.65,5.65,0,0,1,3.29-.2,5.59,5.59,0,0,1,4,3.63,5.52,5.52,0,0,1-.05,3.69,4.54,4.54,0,0,1-.46.9C315.08,178.39,315,178.49,315,178.48Z" style="fill:#263238"></path><path d="M374.26,175.3a3.66,3.66,0,0,1,.15.52,4.69,4.69,0,0,1,0,1.6,4.71,4.71,0,0,1-2.39,3.4,9.25,9.25,0,0,1-1.77.65l-21.46,6.68L334,192.74l-2,.62a10.44,10.44,0,0,1-2.12.54,8.17,8.17,0,0,1-2.22-.2l-2.18-.35-9-1.44-9.52-1.53a4.92,4.92,0,0,1-3.89-3.14c-.55-1.58-1.1-3.18-1.67-4.8q-1.66-4.83-3.41-9.83a5.43,5.43,0,0,1-.39-2.72,5,5,0,0,1,1.12-2.55c1.29-1.32,2.59-2.51,3.89-3.78l7.73-7.43,3.79-3.64a5.64,5.64,0,0,1,2.2-1.53l2.47-.76,18.84-5.71,17.05-5.15c1.35-.39,2.63-.81,4-1.17a4.88,4.88,0,0,1,5.23,2.39,9,9,0,0,1,.66,1.81l1,3.49L372,167.39l1.72,5.86c.19.65.33,1.16.44,1.52s.13.53.13.53-.07-.17-.19-.51-.27-.86-.48-1.51l-1.83-5.83c-1.56-5.1-3.82-12.43-6.61-21.48l-1.06-3.48a9.35,9.35,0,0,0-.64-1.73,4.45,4.45,0,0,0-4.78-2.17c-1.26.35-2.59.79-3.92,1.18l-17,5.2-18.84,5.74-2.44.75a5.22,5.22,0,0,0-2,1.42l-3.78,3.64L302.92,164c-1.29,1.26-2.64,2.5-3.85,3.74a4.49,4.49,0,0,0-.64,4.74q1.72,5,3.41,9.84c.55,1.61,1.11,3.21,1.66,4.79a4.38,4.38,0,0,0,3.48,2.81l9.51,1.54,9,1.47,2.19.36a8.07,8.07,0,0,0,2.1.2,11,11,0,0,0,2-.52l2-.61,14.84-4.53,21.52-6.51a9.21,9.21,0,0,0,1.75-.62,4.69,4.69,0,0,0,1.26-1,4.63,4.63,0,0,0,1.1-2.26A5.59,5.59,0,0,0,374.26,175.3Z" style="fill:#263238"></path><path d="M358.25,149.85a2.38,2.38,0,0,0-1.79.15,9.53,9.53,0,0,0-1.63,1.29v0a8.79,8.79,0,0,0-1.37-1.55,2.33,2.33,0,0,0-1.74-.47,2.15,2.15,0,0,0-1.56,1.38,3.55,3.55,0,0,0-.07,2.14,5.57,5.57,0,0,0,4.23,4h0a5.55,5.55,0,0,0,4.91-3.22,3.58,3.58,0,0,0,.32-2.13A2.16,2.16,0,0,0,358.25,149.85Z" style="fill:#FF725E"></path><path d="M324,159.2a2.33,2.33,0,0,0-.85,1.59,9,9,0,0,0,.18,2.06l.12.09-.12-.1a9.23,9.23,0,0,0-2.05.31,2.38,2.38,0,0,0-1.35,1.2,2.19,2.19,0,0,0,.3,2.06,3.64,3.64,0,0,0,1.77,1.23,5.55,5.55,0,0,0,5.69-1.34h0a5.57,5.57,0,0,0,0-5.88A3.6,3.6,0,0,0,326,159,2.15,2.15,0,0,0,324,159.2Z" style="fill:#FF725E"></path><path d="M335.91,165.44l-3.25,1.17-.08-.26.26-.09a.39.39,0,0,0,.19-.12.63.63,0,0,0,.13-.2.65.65,0,0,0,.06-.23.93.93,0,0,0,0-.24l-3-8.87a.61.61,0,0,0-.3-.35.55.55,0,0,0-.45,0l-.26.09-.09-.26,2.38-.81.08.25-.25.09a.46.46,0,0,0-.2.13.63.63,0,0,0-.13.2,1.05,1.05,0,0,0-.06.24.93.93,0,0,0,0,.24l3.06,8.94a.58.58,0,0,0,.19.3.35.35,0,0,0,.34,0l.28-.11.28-.12a.54.54,0,0,0,.34-.3.7.7,0,0,0,0-.46l-.6-1.76.26-.08Z" style="fill:#263238"></path><path d="M339.37,161.85a4.63,4.63,0,0,1,.22,1,2.15,2.15,0,0,1,0,.85,1.58,1.58,0,0,1-.37.67,1.86,1.86,0,0,1-.74.45,1.51,1.51,0,0,1-.72.08,1.84,1.84,0,0,1-.64-.24,2.23,2.23,0,0,1-.52-.5,2.72,2.72,0,0,1-.36-.7l-2.37-7a2.77,2.77,0,0,1-.16-.87,2,2,0,0,1,.14-.74,1.51,1.51,0,0,1,.4-.57,1.94,1.94,0,0,1,.66-.38,1.83,1.83,0,0,1,.72-.09,1.27,1.27,0,0,1,.63.2,1.82,1.82,0,0,1,.53.48,2.93,2.93,0,0,1,.38.75Zm-.62.59-2.36-6.93c-.08-.22-.16-.43-.25-.62a2.06,2.06,0,0,0-.31-.49.89.89,0,0,0-.38-.28.66.66,0,0,0-.46,0,.87.87,0,0,0-.43.31,1,1,0,0,0-.19.48,1.8,1.8,0,0,0,0,.61,4,4,0,0,0,.17.7l2.36,6.9a3,3,0,0,0,.24.55,2,2,0,0,0,.34.48,1.17,1.17,0,0,0,.41.3.72.72,0,0,0,.48,0,.8.8,0,0,0,.42-.31,1.09,1.09,0,0,0,.16-.49,1.74,1.74,0,0,0,0-.59A4.91,4.91,0,0,0,338.75,162.44Z" style="fill:#263238"></path><path d="M342.66,151.7l.08.25-.44.15a.86.86,0,0,0-.25.14.91.91,0,0,0-.18.21.77.77,0,0,0-.1.25.61.61,0,0,0,0,.27l1.66,9.36,0,.08a.39.39,0,0,0,.16.23.36.36,0,0,0,.22.05.65.65,0,0,0,.26-.06l.26-.09.08.26-2.39.81-.07-.26.3-.1a.62.62,0,0,0,.3-.19.41.41,0,0,0,0-.35l0-.11-4.45-8.82a.86.86,0,0,0-.22-.3.44.44,0,0,0-.24-.07.66.66,0,0,0-.27.06l-.32.11-.09-.25,2.33-.8.11.25-.19.07a.89.89,0,0,0-.39.22.45.45,0,0,0,0,.43l0,.08,4.24,8.45-1.59-9a.18.18,0,0,1,0-.06.13.13,0,0,0,0-.06.48.48,0,0,0-.2-.28.45.45,0,0,0-.28-.06,1,1,0,0,0-.33.07l-.32.11-.09-.27Z" style="fill:#263238"></path><path d="M345.64,155.77l.51-.18a.36.36,0,0,0,.27-.26.7.7,0,0,0,0-.38l-.22-.64.26-.09.91,2.68-.26.09-.27-.78a.51.51,0,0,0-.27-.36.69.69,0,0,0-.44,0l-.17.07-.21.08,1.74,5.11.76-.27a.89.89,0,0,0,.51-.42.79.79,0,0,0,0-.66l-.52-1.53.26-.09.88,2.58L346,162l-.09-.26.31-.12a1,1,0,0,0,.24-.16.46.46,0,0,0,.12-.23.73.73,0,0,0,0-.34l-3-8.75a.7.7,0,0,0-.17-.3.43.43,0,0,0-.24-.1,1,1,0,0,0-.28,0l-.31.1-.09-.25,3.51-1.23.82,2.35-.26.08-.46-1.29a1,1,0,0,0-.23-.32.78.78,0,0,0-.3-.18,1.34,1.34,0,0,0-.35,0,1.53,1.53,0,0,0-.36.07l-.37.14-.36.13Z" style="fill:#263238"></path><path d="M332.14,184.2l.28-.1.29-.1.13.34-3.25,1.21-.11-.35.29-.1A1.31,1.31,0,0,0,330,185a.56.56,0,0,0,.31-.39.85.85,0,0,0,0-.5l-3.56-12a.63.63,0,0,0-.24-.36.54.54,0,0,0-.35-.09,1.53,1.53,0,0,0-.4.09l-.4.15-.11-.36,1-.35c.33-.12.67-.24,1-.34a3.68,3.68,0,0,1,1.59-.19,2.7,2.7,0,0,1,1.23.5,3.46,3.46,0,0,1,.91,1.05,6.76,6.76,0,0,1,.64,1.44,7.17,7.17,0,0,1,.3,1.52,3.67,3.67,0,0,1-.16,1.38,3.2,3.2,0,0,1-.68,1.16,3.81,3.81,0,0,1-1.29.88l1.55,5.12a.58.58,0,0,0,.1.21.73.73,0,0,0,.18.17.92.92,0,0,0,.23.09A.52.52,0,0,0,332.14,184.2Zm-1.53-10.4a10.48,10.48,0,0,0-.4-1,3.61,3.61,0,0,0-.59-.93,2.06,2.06,0,0,0-.83-.57,1.78,1.78,0,0,0-1.14,0l2.1,7a2,2,0,0,0,.88-.85,3.18,3.18,0,0,0,.33-1.16,5.44,5.44,0,0,0-.06-1.27A10.93,10.93,0,0,0,330.61,173.8Z" style="fill:#263238"></path><path d="M339.73,179.26a6.42,6.42,0,0,1,.28,1.34,3.12,3.12,0,0,1-.09,1.16,2.17,2.17,0,0,1-.54.91,2.56,2.56,0,0,1-1,.59,2.06,2.06,0,0,1-1.84-.27,2.59,2.59,0,0,1-.7-.7,3.57,3.57,0,0,1-.47-1l-3-9.59a3.73,3.73,0,0,1-.19-1.19,2.67,2.67,0,0,1,.21-1,2.19,2.19,0,0,1,.57-.78,2.73,2.73,0,0,1,.91-.49,2.44,2.44,0,0,1,1-.11,2,2,0,0,1,.86.3,2.33,2.33,0,0,1,.7.67,3.47,3.47,0,0,1,.5,1Zm-.86.79-3-9.56a7.28,7.28,0,0,0-.32-.86,2.79,2.79,0,0,0-.41-.68,1.34,1.34,0,0,0-.51-.39.88.88,0,0,0-.62,0,1.14,1.14,0,0,0-.6.4,1.53,1.53,0,0,0-.28.65,2.6,2.6,0,0,0,0,.84,7.31,7.31,0,0,0,.22,1l3,9.52a5,5,0,0,0,.31.77,2.94,2.94,0,0,0,.45.66,1.56,1.56,0,0,0,.55.42.93.93,0,0,0,.66,0,1,1,0,0,0,.58-.41,1.46,1.46,0,0,0,.24-.66,2.81,2.81,0,0,0,0-.81C339,180.63,339,180.34,338.87,180.05Z" style="fill:#263238"></path><path d="M340.77,167.08l4,12.68a.85.85,0,0,0,.11.21.9.9,0,0,0,.19.2.78.78,0,0,0,.22.12.33.33,0,0,0,.24,0l.58-.18.11.35-3.29,1-.11-.35.58-.18a.48.48,0,0,0,.2-.15.66.66,0,0,0,.11-.24.87.87,0,0,0,.05-.28.61.61,0,0,0,0-.24l-4-12.66-1.1.35a.67.67,0,0,0-.48.41,1.08,1.08,0,0,0,0,.64l.48,1.53-.34.11-1.13-3.6.34-.1.24.76,4.45-1.4-.27-.87.35-.11,1.13,3.57-.36.11-.43-1.38a1.38,1.38,0,0,0-.14-.3.92.92,0,0,0-.19-.24.68.68,0,0,0-.27-.13.83.83,0,0,0-.34,0Z" style="fill:#263238"></path><path d="M350.88,178.92l-3.27,1-.11-.35.36-.12a.72.72,0,0,0,.28-.16.76.76,0,0,0,.19-.25,1,1,0,0,0,.1-.3.62.62,0,0,0,0-.3l-3.74-11.86a.63.63,0,0,0-.16-.27.82.82,0,0,0-.25-.2,1,1,0,0,0-.3-.1.93.93,0,0,0-.29,0l-.4.13-.11-.35,3.28-1,.11.35-.35.12a.73.73,0,0,0-.46.4.79.79,0,0,0-.05.62l3.74,11.86a.68.68,0,0,0,.15.26.72.72,0,0,0,.24.19.76.76,0,0,0,.3.1.8.8,0,0,0,.31,0l.35-.11Z" style="fill:#263238"></path><path d="M355.8,174.19a6.42,6.42,0,0,1,.28,1.34,3.12,3.12,0,0,1-.09,1.16,2.13,2.13,0,0,1-.54.9,2.35,2.35,0,0,1-1,.59,2.09,2.09,0,0,1-1,.09,2.35,2.35,0,0,1-.87-.35,2.71,2.71,0,0,1-.69-.7,3.49,3.49,0,0,1-.47-1l-3-9.58a3.75,3.75,0,0,1-.19-1.2,2.66,2.66,0,0,1,.21-1,2.19,2.19,0,0,1,.57-.78,2.56,2.56,0,0,1,.91-.49,2.28,2.28,0,0,1,1-.11,2,2,0,0,1,.86.29,2.37,2.37,0,0,1,.7.68,3.72,3.72,0,0,1,.5,1Zm-.86.79-3-9.56a7.28,7.28,0,0,0-.32-.86,2.61,2.61,0,0,0-.41-.68,1.17,1.17,0,0,0-.51-.39.88.88,0,0,0-.62,0,1.12,1.12,0,0,0-.6.4,1.53,1.53,0,0,0-.28.65,2.6,2.6,0,0,0,0,.84,7.31,7.31,0,0,0,.22,1l3,9.52a5,5,0,0,0,.31.77,3.19,3.19,0,0,0,.45.66,1.56,1.56,0,0,0,.55.42.93.93,0,0,0,.66,0,1.1,1.1,0,0,0,.58-.41,1.46,1.46,0,0,0,.24-.66,2.8,2.8,0,0,0,0-.81C355.1,175.56,355,175.27,354.94,175Z" style="fill:#263238"></path><path d="M363.25,174.92l-.38.08L356,164.86l3.31,10.82a.6.6,0,0,0,.12.22.77.77,0,0,0,.18.18.94.94,0,0,0,.22.12.49.49,0,0,0,.24,0l.6-.2.11.36-2.69.81-.12-.36.59-.16a.46.46,0,0,0,.2-.14.7.7,0,0,0,.13-.24,2,2,0,0,0,0-.26,1,1,0,0,0,0-.25l-3.67-12.06a.59.59,0,0,0-.23-.38.56.56,0,0,0-.34-.08,1.64,1.64,0,0,0-.41.08l-.41.14-.11-.35,1.95-.64,6.24,9.34-3-10.15a1.89,1.89,0,0,0-.15-.33,1,1,0,0,0-.24-.29.77.77,0,0,0-.31-.19.55.55,0,0,0-.36,0l-.75.24-.11-.35,3.29-1.06.11.37-.62.2a1.24,1.24,0,0,0-.43.22.63.63,0,0,0-.19.39,1.86,1.86,0,0,0,.09.68Z" style="fill:#263238"></path><path d="M280.72,193.68c6.68-2.86,13.49-5.37,20.22-8.12,3-1.22,6.37-2.28,9-4.2,2.28-1.66,4.51-4.52,2.65-7.29-.93-1.38-3.19-.08-2.25,1.32,1.64,2.44-3.31,4.76-5,5.51-2.88,1.28-5.82,2.45-8.75,3.62-5.74,2.28-11.51,4.48-17.19,6.92-1.54.66-.21,2.9,1.31,2.24Z" style="fill:#263238"></path><path d="M369.87,229.67c-44.72-37.27-92.24,2.8-92.24,2.8l.14-43c.1-.24.19-.26.28-.28a13,13,0,0,0,10.37-12.75V154.07c-1-10.85-35-10.69-37.06-10.67-7.15.09-32.42,1.07-33.33,10.67v22.41a13,13,0,0,0,10.36,12.75l.29.06.13,41.71s-54.13-41.84-93.95-2.47c-38.13,37.71-5.61,97.93,11.47,122.37,15.38,22,78.63,80.53,106.34,82.66,26.81-.79,82.18-50,96.11-66.39C372.45,339.36,414.59,266.93,369.87,229.67Z" style="fill:#fafafa"></path><path d="M369.87,229.67l1,.84,2.8,2.54a54.07,54.07,0,0,1,8.95,11.63,55.79,55.79,0,0,1,6.81,22.53,82.08,82.08,0,0,1-.17,15A109.85,109.85,0,0,1,386,298.85a165.26,165.26,0,0,1-15.22,36.44,218,218,0,0,1-11.88,19A146.3,146.3,0,0,1,343.72,373c-5.77,5.94-12.05,11.75-18.66,17.54s-13.6,11.53-21,17.1a236.1,236.1,0,0,1-23.61,15.9,114.21,114.21,0,0,1-13.18,6.61,45,45,0,0,1-14.59,3.68h0a41.46,41.46,0,0,1-12.07-3.32,106.25,106.25,0,0,1-11.36-5.76,216.78,216.78,0,0,1-21.61-14.6,408.39,408.39,0,0,1-41-35.88,226.86,226.86,0,0,1-18.93-21,189.91,189.91,0,0,1-15.1-24.66,159.14,159.14,0,0,1-11.16-27.26,98.87,98.87,0,0,1-4.57-29.54,67.07,67.07,0,0,1,3-19.43,56.68,56.68,0,0,1,9-17.26,64.54,64.54,0,0,1,13.82-13.4,54.57,54.57,0,0,1,17.16-8.18,59,59,0,0,1,18.66-2,80.19,80.19,0,0,1,18.23,3.24A110.16,110.16,0,0,1,229,230.8l-.42.2q-.06-21.34-.12-41.71l.2.24a13.12,13.12,0,0,1-8.6-5.62,13.79,13.79,0,0,1-2-4.79,25.19,25.19,0,0,1-.27-5.11q0-10.12,0-19.94h0a6.37,6.37,0,0,1,.88-2.54,8.32,8.32,0,0,1,1.78-2A16.61,16.61,0,0,1,225,147a47.93,47.93,0,0,1,9.86-2.52c3.33-.53,6.65-.86,9.94-1.07s6.58-.31,9.82-.22a119.6,119.6,0,0,1,19,1.8,43,43,0,0,1,8.92,2.61,15.1,15.1,0,0,1,3.91,2.44,6.37,6.37,0,0,1,2.2,4h0q0,10.78,0,20.93a16.87,16.87,0,0,1-.49,5.05,13.55,13.55,0,0,1-2.23,4.48,12.8,12.8,0,0,1-3.67,3.29,12.41,12.41,0,0,1-2.21,1.05,9.86,9.86,0,0,1-1.17.36l-.59.15c-.26.07-.23,0-.31.2v-.07c-.06,15.65-.12,29.9-.17,43l-.26-.12a79.5,79.5,0,0,1,9.59-6.55,94,94,0,0,1,9.74-5,81.68,81.68,0,0,1,19-6A64.79,64.79,0,0,1,333,213.9a58.69,58.69,0,0,1,14,2.83c2.07.6,3.91,1.46,5.67,2.14s3.31,1.58,4.77,2.32l3.92,2.28,3.09,2.09c.46.32.9.6,1.3.89l1.07.84,1.66,1.31c.89.7,1.33,1.07,1.33,1.07l-1.36-1-1.67-1.28-1.08-.84-1.3-.88-3.1-2.07-3.92-2.25c-1.46-.73-3.05-1.52-4.77-2.3s-3.6-1.52-5.66-2.11a58.61,58.61,0,0,0-14-2.78,64.34,64.34,0,0,0-17.08.95A82,82,0,0,0,297,221a95.57,95.57,0,0,0-9.71,5,81.56,81.56,0,0,0-9.53,6.54l-.27.22v-.35c0-13.06.07-27.31.11-43v-.07a.7.7,0,0,1,.25-.33,1.79,1.79,0,0,1,.34-.11l.58-.14a8.15,8.15,0,0,0,1.13-.35,12.69,12.69,0,0,0,2.14-1,12.35,12.35,0,0,0,3.56-3.2,13.33,13.33,0,0,0,2.16-4.35,16.57,16.57,0,0,0,.47-4.94q0-10.16,0-20.93v0a5.88,5.88,0,0,0-2.07-3.72,14.5,14.5,0,0,0-3.79-2.37,43.12,43.12,0,0,0-8.83-2.57,119.78,119.78,0,0,0-18.93-1.78c-3.23-.08-6.49,0-9.78.23s-6.59.54-9.89,1.07a47.69,47.69,0,0,0-9.77,2.5,16.25,16.25,0,0,0-4.4,2.46,8.19,8.19,0,0,0-1.68,1.85,5.88,5.88,0,0,0-.8,2.33V174a23.85,23.85,0,0,0,.27,5,13,13,0,0,0,1.91,4.61,12.61,12.61,0,0,0,8.27,5.41l.21,0v.22q.06,20.36.14,41.71v.52l-.42-.31a110.14,110.14,0,0,0-32.12-16A79.87,79.87,0,0,0,178.42,212a58.77,58.77,0,0,0-18.49,2,54.39,54.39,0,0,0-17,8.11,63.92,63.92,0,0,0-13.7,13.29,55.84,55.84,0,0,0-8.88,17.1,66.55,66.55,0,0,0-3,19.27,99,99,0,0,0,4.54,29.38,159.15,159.15,0,0,0,11.13,27.16,187.76,187.76,0,0,0,15.05,24.58,222.79,222.79,0,0,0,18.88,21,407.12,407.12,0,0,0,40.92,35.85,216.53,216.53,0,0,0,21.56,14.58,108.07,108.07,0,0,0,11.3,5.74,41.28,41.28,0,0,0,11.92,3.29h0a44.5,44.5,0,0,0,14.42-3.64,111.55,111.55,0,0,0,13.12-6.57,238.19,238.19,0,0,0,23.58-15.85c7.4-5.56,14.37-11.3,21-17.07s12.88-11.57,18.66-17.5a148.17,148.17,0,0,0,15.15-18.6,219.78,219.78,0,0,0,11.87-19,165,165,0,0,0,15.25-36.34A111.07,111.07,0,0,0,389,282.16a83.48,83.48,0,0,0,.2-14.93,55.9,55.9,0,0,0-6.72-22.48,55,55,0,0,0-8.87-11.65l-2.78-2.56C370.18,230,369.87,229.67,369.87,229.67Z" style="fill:#263238"></path><path d="M235.55,190.74h37v59.95s2.95-2.56,4.51-3.94c0,0,45.29-42.65,84.29-10.25,40.52,33.65.41,98.82-21,124-12.6,14.81-62.71,59.36-87,60.07-25.08-1.93-84.57-59.23-96.22-74.79-13-17.42-50-78.87-9.53-112.57,37.3-31.06,82.69,11.15,82.69,11.15L236,250l-.44-59.24" style="fill:#f5f5f5"></path><path d="M288.05,154.19c0,6.05-15.3,11.33-34.62,11.33s-35.47-4.92-35-11c.58-7.21,15.67-10.95,35-10.95S288.05,148.15,288.05,154.19Z" style="fill:#ebebeb"></path><path d="M248.85,280c-68.26-20-105.91,6.93-115.08,14.82a4.54,4.54,0,0,0-1,5.64c4.29,7.76,23.57,26,110.18,33.55,106.12,9.25,135.7-55.1,135.7-55.1S328.19,303.17,248.85,280Z" style="fill:#FF725E"></path><path d="M133,300.93c6.51,16.73,15.93,32.37,23.48,43.52,15.64,23.1,71.14,72.87,96.22,74.79,24.25-.71,74.35-45.26,87-60.06,14.25-16.74,32.63-41.84,39-80.31,0,0-42.68,28.75-54.28,28.43C274.68,306,133,300.93,133,300.93" style="fill:#FF725E"></path><g style="opacity:0.4"><path d="M248.85,280c-68.26-20-105.91,6.93-115.08,14.82a4.54,4.54,0,0,0-1,5.64c4.29,7.76,23.57,26,110.18,33.55,106.12,9.25,135.7-55.1,135.7-55.1S328.19,303.17,248.85,280Z" style="fill:#fff"></path></g><g style="opacity:0.2"><path d="M299.35,348.43a8.58,8.58,0,0,0-6.53-.16c-2.12.71-4.5,2.72-6.36,4l-.1.51.1-.54c-1.22-1.86-2.63-4.64-4.3-6.13a8.66,8.66,0,0,0-6.07-2.4A7.84,7.84,0,0,0,269.9,348a13,13,0,0,0-1.1,7.7,20.15,20.15,0,0,0,13.59,16.24v0a20.16,20.16,0,0,0,19-9.63,13,13,0,0,0,2-7.52A7.83,7.83,0,0,0,299.35,348.43Z"></path></g><g style="opacity:0.1"><path d="M254.32,355.91a4.38,4.38,0,0,0-2.76,1.85,16.51,16.51,0,0,0-1.48,3.51l.11.24-.11-.25a16.41,16.41,0,0,0-3.59-1.29,4.39,4.39,0,0,0-3.22.79,4,4,0,0,0-1.3,3.61,6.56,6.56,0,0,0,1.8,3.52,10.2,10.2,0,0,0,10.4,2.75v0a10.21,10.21,0,0,0,5.05-9.56,6.55,6.55,0,0,0-1.37-3.7A4,4,0,0,0,254.32,355.91Z"></path></g><g style="opacity:0.1"><path d="M327.89,343.35a4.28,4.28,0,0,0-3.23.28,16.36,16.36,0,0,0-2.91,2.3l0,.25,0-.26a16,16,0,0,0-2.45-2.79,4.33,4.33,0,0,0-3.13-.84,3.85,3.85,0,0,0-2.8,2.47,6.4,6.4,0,0,0-.12,3.85,10,10,0,0,0,7.58,7.24v0a10,10,0,0,0,8.81-5.78,6.45,6.45,0,0,0,.57-3.81A3.89,3.89,0,0,0,327.89,343.35Z"></path></g><g style="opacity:0.2"><path d="M281.53,377.52a3,3,0,0,0-1.89,1.21,11.27,11.27,0,0,0-1,2.35l.07.16-.07-.17a11.28,11.28,0,0,0-2.4-.91,3,3,0,0,0-2.18.48,2.68,2.68,0,0,0-.93,2.42,4.39,4.39,0,0,0,1.17,2.39,6.88,6.88,0,0,0,7,2h0a6.88,6.88,0,0,0,3.53-6.37,4.44,4.44,0,0,0-.88-2.52A2.71,2.71,0,0,0,281.53,377.52Z" style="fill:#fff"></path></g><g style="opacity:0.2"><path d="M224.36,377.88a2.92,2.92,0,0,0-2.23-.15,10.79,10.79,0,0,0-2.24,1.26l0,.17,0-.18a10.73,10.73,0,0,0-1.38-2.16,2.92,2.92,0,0,0-2-.91,2.65,2.65,0,0,0-2.18,1.39,4.43,4.43,0,0,0-.49,2.61,6.87,6.87,0,0,0,4.41,5.76h0a6.88,6.88,0,0,0,6.64-3,4.41,4.41,0,0,0,.79-2.54A2.67,2.67,0,0,0,224.36,377.88Z" style="fill:#fff"></path></g><g style="opacity:0.2"><path d="M246.9,342.1a3,3,0,0,0-2.16-.59,10.81,10.81,0,0,0-2.43.8l-.08.16.08-.17a11.51,11.51,0,0,0-.93-2.39,2.92,2.92,0,0,0-1.82-1.3,2.64,2.64,0,0,0-2.41.93,4.41,4.41,0,0,0-1,2.47,6.89,6.89,0,0,0,3.18,6.51v0a7,7,0,0,0,7.11-1.64,4.59,4.59,0,0,0,1.28-2.34A2.7,2.7,0,0,0,246.9,342.1Z" style="fill:#fff"></path></g><g style="opacity:0.2"><path d="M344,324.8a3,3,0,0,0-1.71,1.44,10.77,10.77,0,0,0-.74,2.46l.09.15-.1-.16a10.77,10.77,0,0,0-2.49-.6,2.91,2.91,0,0,0-2.1.75,2.71,2.71,0,0,0-.62,2.52,4.54,4.54,0,0,0,1.46,2.22,6.89,6.89,0,0,0,7.17,1.1v0a6.9,6.9,0,0,0,2.7-6.77,4.46,4.46,0,0,0-1.19-2.39A2.71,2.71,0,0,0,344,324.8Z" style="fill:#fff"></path></g><g style="opacity:0.2"><path d="M189.72,352.09a3,3,0,0,0-2.16-.59,11.39,11.39,0,0,0-2.44.79l-.08.17.08-.17a10.84,10.84,0,0,0-.92-2.4,2.93,2.93,0,0,0-1.82-1.29,2.66,2.66,0,0,0-2.42.93,4.48,4.48,0,0,0-1,2.47,6.89,6.89,0,0,0,3.19,6.51v0a6.91,6.91,0,0,0,7.1-1.65,4.39,4.39,0,0,0,1.28-2.33A2.69,2.69,0,0,0,189.72,352.09Z" style="fill:#fff"></path></g><g style="opacity:0.1"><path d="M173.58,331.13a4.25,4.25,0,0,0-3.22.28,15.67,15.67,0,0,0-2.91,2.3l0,.26,0-.27a16.37,16.37,0,0,0-2.46-2.78,4.27,4.27,0,0,0-3.12-.85,3.89,3.89,0,0,0-2.81,2.47,6.48,6.48,0,0,0-.12,3.85,10,10,0,0,0,7.59,7.25v0a10,10,0,0,0,8.81-5.79,6.45,6.45,0,0,0,.56-3.81A3.87,3.87,0,0,0,173.58,331.13Z"></path></g><g style="opacity:0.2"><path d="M225.14,352a7.12,7.12,0,0,0-5.3-1c-1.83.28-4.05,1.59-5.74,2.35l-.16.4.17-.43c-.75-1.69-1.51-4.15-2.67-5.59a7,7,0,0,0-4.62-2.8,6.48,6.48,0,0,0-5.65,2.67,10.8,10.8,0,0,0-2,6.13,16.66,16.66,0,0,0,8.84,15.13l0,0a16.66,16.66,0,0,0,16.82-5.22,10.81,10.81,0,0,0,2.67-5.86A6.49,6.49,0,0,0,225.14,352Z"></path></g><g style="opacity:0.2"><path d="M261.89,392.66a5.84,5.84,0,0,0-4.32-.85,21.76,21.76,0,0,0-4.68,1.92l-.13.32.13-.34a21.47,21.47,0,0,0-2.17-4.56,5.8,5.8,0,0,0-3.77-2.29,5.32,5.32,0,0,0-4.61,2.18,8.85,8.85,0,0,0-1.6,5A13.6,13.6,0,0,0,248,406.38v0a13.6,13.6,0,0,0,13.71-4.26,8.75,8.75,0,0,0,2.18-4.78A5.25,5.25,0,0,0,261.89,392.66Z"></path></g><path d="M327.26,299.72l-.47.13-1.39.35c-.61.14-1.36.35-2.26.53l-3.12.58a98,98,0,0,1-20.15,1.12,172.91,172.91,0,0,1-29.63-4.21c-11-2.41-22.94-5.82-35.58-8.84s-24.89-5.15-36.15-5.36A92.71,92.71,0,0,0,169,287.9a65.54,65.54,0,0,0-18,8.75l-2.54,1.88c-.73.56-1.3,1.09-1.79,1.48l-1.09.92-.39.3s.12-.13.35-.34l1.06-1c.48-.41,1-.95,1.76-1.53l2.52-1.92a64.71,64.71,0,0,1,18-9,92.29,92.29,0,0,1,29.6-4c11.31.18,23.61,2.32,36.26,5.33s24.57,6.45,35.56,8.88a175.59,175.59,0,0,0,29.55,4.32,101.38,101.38,0,0,0,20.1-.95l3.12-.53c.9-.17,1.65-.35,2.27-.48l1.39-.29Z" style="fill:#fff"></path><path d="M342.87,300.83a5.13,5.13,0,0,1-.7.59L340.09,303l-1.51,1.16c-.56.41-1.19.82-1.86,1.28-1.35.91-2.84,2-4.61,3l-2.73,1.68c-1,.58-2,1.11-3,1.69-2.09,1.2-4.42,2.29-6.85,3.48a120.75,120.75,0,0,1-33.6,10c-2.68.34-5.22.7-7.62.84-1.2.09-2.36.21-3.47.25l-3.21.1c-2,.11-3.89,0-5.52,0-.81,0-1.56,0-2.26-.05l-1.89-.14-2.63-.2a6.91,6.91,0,0,1-.91-.11,5.43,5.43,0,0,1,.92,0l2.63.1,1.89.09c.7,0,1.45,0,2.26,0,1.62,0,3.46.06,5.5-.07l3.19-.13c1.11-.06,2.26-.19,3.46-.28,2.39-.16,4.92-.54,7.59-.9a135.06,135.06,0,0,0,17.09-3.81,133.59,133.59,0,0,0,16.37-6.18c2.43-1.17,4.76-2.24,6.84-3.41,1.05-.58,2.09-1.1,3.05-1.66l2.74-1.64c1.77-1,3.28-2.08,4.64-3,.67-.45,1.31-.85,1.88-1.24l1.54-1.12,2.13-1.52A7.29,7.29,0,0,1,342.87,300.83Z" style="fill:#fff"></path><path d="M356.8,328.53a2.59,2.59,0,0,1-.15.27l-.48.74-1.86,2.84c-.81,1.24-1.82,2.74-3.06,4.44s-2.58,3.67-4.21,5.75l-2.52,3.29c-.88,1.14-1.85,2.29-2.83,3.5-1.93,2.43-4.13,4.92-6.42,7.56-4.67,5.2-10,10.74-15.89,16.24S307.53,383.55,302,387.82c-2.8,2.1-5.44,4.11-8,5.86-1.28.88-2.49,1.77-3.7,2.56l-3.47,2.28c-2.19,1.47-4.26,2.68-6,3.78s-3.35,2-4.65,2.72l-3,1.65-.78.42-.27.13a1.35,1.35,0,0,1,.25-.18l.75-.46,2.92-1.75c1.27-.74,2.82-1.66,4.59-2.79s3.82-2.35,6-3.85l3.45-2.29c1.19-.81,2.4-1.7,3.67-2.59,2.55-1.76,5.17-3.78,8-5.88,5.5-4.29,11.4-9.2,17.31-14.66s11.21-11,15.88-16.19c2.3-2.62,4.51-5.09,6.45-7.51,1-1.2,2-2.34,2.85-3.47l2.54-3.26c1.65-2.07,3-4,4.28-5.7s2.29-3.16,3.12-4.38l1.95-2.78c.22-.29.39-.53.52-.72A1.59,1.59,0,0,1,356.8,328.53Z" style="fill:#fff"></path><path d="M378.65,278.87s-.09.22-.29.65l-.87,1.87-.65,1.38c-.26.5-.58,1-.91,1.61a43.08,43.08,0,0,1-2.4,3.91c-.48.72-1,1.48-1.53,2.27L370.15,293c-.33.41-.66.84-1,1.27s-.74.83-1.11,1.26c-.77.85-1.51,1.78-2.38,2.65a93.87,93.87,0,0,1-12.54,11,120.84,120.84,0,0,1-17.23,10.57,135.5,135.5,0,0,1-21.58,8.52,173.87,173.87,0,0,1-52.54,7c-37.75-.9-71.62-7-95.33-14a89.33,89.33,0,0,1-15.35-6.5,71.44,71.44,0,0,1-10.5-6.95c-1.37-1.06-2.49-2.11-3.5-3s-1.79-1.68-2.42-2.33l-1.43-1.5-.48-.52.52.48,1.46,1.46c.65.64,1.49,1.39,2.46,2.29s2.15,1.89,3.52,2.93a72.18,72.18,0,0,0,10.51,6.85,90.74,90.74,0,0,0,15.33,6.41c23.67,6.86,57.54,12.91,95.22,13.8a173.91,173.91,0,0,0,52.39-6.91,136,136,0,0,0,21.52-8.44,121.45,121.45,0,0,0,17.2-10.48,94.36,94.36,0,0,0,12.55-10.89c.87-.86,1.61-1.78,2.38-2.62l1.12-1.25,1-1.26,1.86-2.37,1.55-2.24c1-1.4,1.75-2.74,2.43-3.88.33-.58.66-1.1.93-1.59l.67-1.37c.4-.8.71-1.41.92-1.85S378.65,278.87,378.65,278.87Z" style="fill:#fff"></path><path d="M330.73,292a2.84,2.84,0,0,1-.45.07l-1.34.16c-1.18.15-2.93.26-5.18.38-4.51.2-11,.18-19.09-.27s-17.62-1.32-28.18-2.81c-5.27-.75-10.8-1.68-16.45-3s-11.43-2.93-17.37-4.51-11.76-3-17.46-4.07a124.79,124.79,0,0,0-16.56-1.87c-5.31-.26-10.37-.2-15.1,0s-9.1.76-13.09,1.31a132.17,132.17,0,0,0-18.59,4.11l-2.86.88-2.07.72-1.28.43a3.09,3.09,0,0,1-.45.13,2.79,2.79,0,0,1,.43-.18l1.26-.48,2.06-.77c.82-.28,1.77-.58,2.85-.93A127.45,127.45,0,0,1,180.4,277c4-.57,8.39-1.1,13.13-1.38a148.75,148.75,0,0,1,15.14-.09,125.93,125.93,0,0,1,16.64,1.84c5.72,1,11.55,2.49,17.5,4.08s11.72,3.19,17.35,4.51,11.14,2.3,16.41,3.07c10.53,1.52,20.09,2.39,28.12,2.92s14.56.58,19.06.44c2.25-.09,4-.17,5.18-.28l1.34-.1Z" style="fill:#fff"></path><path d="M269.83,253.11s.08-.1.26-.26.46-.43.8-.73l3.11-2.74c2.72-2.35,6.68-5.75,11.9-9.53A85.21,85.21,0,0,1,305.7,229a70.29,70.29,0,0,1,27.23-4.54,57.37,57.37,0,0,1,14.17,2.36,47.51,47.51,0,0,1,12.11,5.68,44.58,44.58,0,0,1,15,16.75,42.3,42.3,0,0,1,3,8.16c.28,1.25.52,2.42.68,3.5s.27,2.09.3,3,0,1.7.05,2.4-.09,1.28-.12,1.75l-.09,1.08a1.45,1.45,0,0,1-.05.36,1.7,1.7,0,0,1,0-.37c0-.27,0-.62,0-1.07s.07-1.06.07-1.75-.07-1.49-.1-2.38-.22-1.88-.34-3-.43-2.23-.72-3.47a42.68,42.68,0,0,0-3.09-8.06,44.65,44.65,0,0,0-14.91-16.51,47.05,47.05,0,0,0-12-5.58,57.26,57.26,0,0,0-14-2.33,70.11,70.11,0,0,0-27,4.47,86.26,86.26,0,0,0-19.76,10.73c-5.23,3.73-9.22,7.08-12,9.38L271,252.2l-.83.69A2.48,2.48,0,0,1,269.83,253.11Z" style="fill:#fff"></path><path d="M238.83,253.37l-.22-.24-.61-.72c-.54-.63-1.34-1.56-2.44-2.69A83.19,83.19,0,0,0,225.48,241c-2.26-1.69-4.77-3.5-7.48-5.41s-5.64-3.91-8.85-5.79a59.09,59.09,0,0,0-10.54-4.94,51.89,51.89,0,0,0-12.2-2.63,52.87,52.87,0,0,0-12.48.29,50.78,50.78,0,0,0-11.26,2.9A53.38,53.38,0,0,0,146,235.71a55,55,0,0,0-8.74,10c-.86,1.32-1.53,2.34-1.93,3.07-.21.33-.37.6-.49.81s-.18.27-.19.26,0-.1.14-.29l.44-.84c.38-.74,1-1.79,1.85-3.13A53.83,53.83,0,0,1,162.49,225,50.55,50.55,0,0,1,173.86,222a53.14,53.14,0,0,1,24.93,2.36,58.31,58.31,0,0,1,10.61,5c3.23,1.9,6.16,3.92,8.86,5.85s5.2,3.76,7.45,5.47a78,78,0,0,1,10,8.89c1.08,1.15,1.85,2.11,2.37,2.76l.57.76C238.78,253.27,238.84,253.36,238.83,253.37Z" style="fill:#fff"></path><path d="M288.05,155.29a4.83,4.83,0,0,1-.48.59,18,18,0,0,1-1.53,1.53,22.53,22.53,0,0,1-6.85,4.08,48.91,48.91,0,0,1-11.42,3,92.56,92.56,0,0,1-14.47.75,113,113,0,0,1-26-3.56c-3.27-.82-5.81-2.1-7.14-3.48a6.94,6.94,0,0,1-1.3-1.75,3.74,3.74,0,0,1-.28-.71,9.18,9.18,0,0,0,1.73,2.31,15.84,15.84,0,0,0,7.08,3.26,119.65,119.65,0,0,0,25.93,3.39,96.82,96.82,0,0,0,14.39-.7,50.57,50.57,0,0,0,11.35-2.91,23.46,23.46,0,0,0,6.85-3.89c.71-.6,1.24-1.1,1.59-1.45A3.35,3.35,0,0,1,288.05,155.29Z" style="fill:#263238"></path><path d="M240,257.27c-.15,0-.27-6.56-.27-14.65S239.83,228,240,228s.28,6.56.28,14.66S240.13,257.27,240,257.27Z" style="fill:#fff"></path><path d="M221.34,166.15a42.67,42.67,0,0,0,.19,9.85,14.4,14.4,0,0,0,4.46,8.59c1.11,1,2.78,1.68,4,.85a2.9,2.9,0,0,0,.82-3.22,15.5,15.5,0,0,0-1.68-3.13,12.06,12.06,0,0,1-1.58-5.49c-.06-1.27.09-2.55.08-3.83a7.06,7.06,0,0,0-.89-3.67,3.47,3.47,0,0,0-3.18-1.75,2.36,2.36,0,0,0-2.09,2.67" style="fill:#fff"></path><path d="M275.17,151.63a9.49,9.49,0,0,1-1.25,1.14,37.67,37.67,0,0,1-3.71,2.75,25.31,25.31,0,0,1-6.21,2.94,26.94,26.94,0,0,1-8.34,1.12,60.17,60.17,0,0,1-8.38-.65,28.39,28.39,0,0,1-6.62-1.82,20.69,20.69,0,0,1-4-2.23,12.29,12.29,0,0,1-1-.76,1.87,1.87,0,0,1-.32-.3,13.62,13.62,0,0,1,1.43.88,23.44,23.44,0,0,0,4.09,2.06,29.65,29.65,0,0,0,6.55,1.68,66.06,66.06,0,0,0,8.31.6,27.51,27.51,0,0,0,8.18-1.06,25.74,25.74,0,0,0,6.15-2.79c1.65-1,2.92-1.94,3.79-2.59A9.6,9.6,0,0,1,275.17,151.63Z" style="fill:#263238"></path><g style="opacity:0.30000000000000004"><path d="M269.77,155.29l11.13-7.71s-7-2.71-10.42-2.89S269.77,155.29,269.77,155.29Z"></path></g><path d="M333.34,269.8c-1.61-5.29-4.16-10.44-8.22-14.19s-9.82-5.94-15.23-4.81c-5.26,1.1-9.44,5-14.37,7.14a21.91,21.91,0,0,1-30-24.85c1.07-4.86,3.8-9.52,3.27-14.47-.52-4.77-4-8.64-5.94-13s-1.4-9.42,2.72-14.12l-10.17.48c-2.78,3.17-1.2,10.77.08,14.79s3.21,8,2.79,12.24c-.6,6-5.87,10.64-7.14,16.55-1.59,7.35,3.25,14.41,7.94,20.28s10.13,12,17.52,13.26c10.06,1.72,19.38-6.25,29.58-6.64C318,262,328.65,273.82,327,285.53c3.31.09,6.15-2.76,7.05-5.95S334.3,273,333.34,269.8Z" style="fill:#FF725E"></path><g style="opacity:0.8"><path d="M333.34,269.8c-1.61-5.29-4.16-10.44-8.22-14.19s-9.82-5.94-15.23-4.81c-5.26,1.1-9.44,5-14.37,7.14a21.91,21.91,0,0,1-30-24.85c1.07-4.86,3.8-9.52,3.27-14.47-.52-4.77-4-8.64-5.94-13s-1.4-9.42,2.72-14.12l-10.17.48c-2.78,3.17-1.2,10.77.08,14.79s3.21,8,2.79,12.24c-.6,6-5.87,10.64-7.14,16.55-1.59,7.35,3.25,14.41,7.94,20.28s10.13,12,17.52,13.26c10.06,1.72,19.38-6.25,29.58-6.64C318,262,328.65,273.82,327,285.53c3.31.09,6.15-2.76,7.05-5.95S334.3,273,333.34,269.8Z" style="fill:#fff"></path></g><path d="M379.36,263.19a.79.79,0,0,1,0,.25c0,.2,0,.45,0,.75,0,.7,0,1.66,0,2.87,0,.63,0,1.32,0,2.08l-.16,2.47c-.06.89-.12,1.83-.19,2.84s-.26,2.05-.4,3.16A117.45,117.45,0,0,1,375.6,293a169.94,169.94,0,0,1-6.22,18.17c-2.62,6.3-5.49,12.13-8.27,17.34s-5.59,9.73-8.13,13.41c-.62.93-1.2,1.82-1.78,2.65l-1.67,2.3c-1,1.44-1.94,2.66-2.73,3.63l-1.8,2.24-.48.57q-.16.19-.18.18a.93.93,0,0,1,.13-.21l.44-.61,1.72-2.3c.77-1,1.65-2.23,2.66-3.68l1.63-2.32c.57-.83,1.13-1.73,1.74-2.66,2.49-3.7,5.16-8.29,8-13.44s5.6-11,8.2-17.31a174.07,174.07,0,0,0,6.25-18.1,121,121,0,0,0,3.2-15.29c.15-1.1.32-2.15.44-3.15s.15-1.94.23-2.82.14-1.7.2-2.46,0-1.45.05-2.07c0-1.21.05-2.17.06-2.87q0-.45,0-.75A.79.79,0,0,1,379.36,263.19Z" style="fill:#263238"></path><path d="M270.19,264.72a3.86,3.86,0,0,1-.91-.48,23.07,23.07,0,0,1-2.31-1.59,34.89,34.89,0,0,1-11.12-14.55,23.93,23.93,0,0,1-.92-2.64,4.17,4.17,0,0,1-.23-1c.09,0,.54,1.37,1.5,3.5a41,41,0,0,0,4.67,7.84,40.56,40.56,0,0,0,6.34,6.56C269,263.84,270.24,264.64,270.19,264.72Z" style="fill:#fff"></path><path d="M324.76,269.27c-.14.12-2.38-2.88-6.15-5.4a43.25,43.25,0,0,0-7.29-3.7,7.45,7.45,0,0,1,2.36.59,23.27,23.27,0,0,1,5.24,2.66,22.78,22.78,0,0,1,4.41,3.88A8.22,8.22,0,0,1,324.76,269.27Z" style="fill:#fff"></path><g style="opacity:0.2"><path d="M333.36,367.87a148.5,148.5,0,0,1-67.17,52.92c-4.88,1.91-10,3.58-15.22,3.49-7.77-.13-14.92-4.09-21.52-8.19-18.17-11.29-36.24-27.12-49.11-44.2,0,0,39,38.36,69,47.57,0,0,2.89,2.47,14.89-1.81C284.45,410.44,333.36,367.87,333.36,367.87Z"></path></g><path d="M248.62,417.08a3.85,3.85,0,0,1-.76-.29l-2.13-.93c-.93-.4-2-.91-3.33-1.55s-2.77-1.33-4.36-2.2c-3.2-1.66-6.94-3.79-11-6.3s-8.43-5.44-12.88-8.68c-8.92-6.48-16.54-12.93-21.94-17.73-2.7-2.39-4.85-4.36-6.32-5.75l-1.68-1.6a4.81,4.81,0,0,1-.56-.59,4.84,4.84,0,0,1,.63.51l1.75,1.52c1.51,1.34,3.7,3.27,6.43,5.63,5.46,4.71,13.11,11.1,22,17.57,4.45,3.23,8.81,6.15,12.83,8.7s7.75,4.68,10.93,6.38c1.56.89,3,1.6,4.3,2.26s2.38,1.21,3.29,1.64l2.09,1A4.37,4.37,0,0,1,248.62,417.08Z" style="fill:#fff"></path><path d="M344.34,353.48a5,5,0,0,1-.3.47c-.2.31-.51.76-.94,1.34-.84,1.17-2.13,2.87-3.92,5a93.15,93.15,0,0,1-7,7.39c-1.44,1.38-3.07,2.77-4.83,4.22l-5.46,4.73-12.68,11c-2.31,2-4.66,4.08-7.2,6.14s-5.28,4-8.16,6c-5.76,3.9-12,7.78-18.75,11.57-3.36,1.89-6.82,3.79-10.49,5.48a39.94,39.94,0,0,1-5.76,2.11,15.82,15.82,0,0,1-6.27.62h0a33.48,33.48,0,0,1-6.19-1.38c-2-.63-4-1.38-6.06-2.21A100.74,100.74,0,0,1,228.55,410c-1.93-1.14-3.85-2.35-5.72-3.66l-5.59-4c-3.73-2.71-7.48-5.49-11.2-8.39a301.29,301.29,0,0,1-31.48-27.78c-4.67-4.83-9-9.74-13.06-14.67s-7.64-10-10.86-15c-.87-1.22-1.52-2.55-2.26-3.81s-1.42-2.54-2.12-3.79c-1.4-2.5-2.78-4.94-4.13-7.34a85.38,85.38,0,0,1-6.87-14.15c-3.49-9.34-5-18.25-4.78-25.86v0a67.6,67.6,0,0,1,1-21.31,52.31,52.31,0,0,1,2-7.36s0,.16-.13.48-.23.79-.41,1.4c-.34,1.24-.84,3.08-1.32,5.52a68.6,68.6,0,0,0-.86,21.24h0v0c-.23,7.52,1.35,16.41,4.86,25.69a83.6,83.6,0,0,0,6.88,14.07l4.14,7.33,2.13,3.78a42.91,42.91,0,0,0,2.25,3.79c3.22,5,6.91,9.94,10.86,14.91s8.37,9.81,13,14.62a303.58,303.58,0,0,0,31.43,27.72c3.71,2.9,7.47,5.67,11.19,8.38l5.58,4c1.86,1.3,3.76,2.5,5.68,3.64a99.73,99.73,0,0,0,11.78,5.91c2,.83,4,1.57,6,2.2a31.92,31.92,0,0,0,6.08,1.37h0a15.81,15.81,0,0,0,6-.62,39.66,39.66,0,0,0,5.68-2.07c3.64-1.68,7.11-3.57,10.47-5.45,6.71-3.77,13-7.63,18.73-11.51,2.88-2,5.61-3.92,8.16-6s4.88-4.14,7.2-6.11l12.73-10.92,5.48-4.7c1.76-1.44,3.4-2.81,4.84-4.18a93.31,93.31,0,0,0,7-7.32c1.8-2.1,3.11-3.78,4-4.93l1-1.31C344.22,353.63,344.34,353.48,344.34,353.48Z" style="fill:#263238"></path><path d="M279.14,159.13a3.48,3.48,0,0,1-.55.21l-1.61.52c-.69.22-1.55.48-2.56.73s-2.15.58-3.44.82-2.68.57-4.21.79-3.15.45-4.88.65a92.2,92.2,0,0,1-11.26.39,91.27,91.27,0,0,1-11.22-1.11c-1.7-.31-3.32-.59-4.82-1s-2.89-.7-4.15-1-2.39-.73-3.38-1.05-1.83-.62-2.51-.89l-1.57-.62a2.17,2.17,0,0,1-.54-.25,3.57,3.57,0,0,1,.58.15l1.6.52c.69.24,1.53.52,2.53.81s2.12.65,3.39,1,2.64.68,4.15,1,3.11.61,4.8.91a99.16,99.16,0,0,0,11.16,1.06,98.13,98.13,0,0,0,11.2-.35c1.71-.19,3.34-.34,4.85-.59s2.92-.47,4.2-.72,2.43-.52,3.45-.75,1.87-.44,2.58-.64l1.63-.41A2.21,2.21,0,0,1,279.14,159.13Z" style="fill:#fff"></path><g style="opacity:0.30000000000000004"><path d="M228.74,209.27S241.57,215,254,216.89c17.32,2.61,23.7-.87,23.7-.87s-21.19-1-26.92-2.4S228.74,209.27,228.74,209.27Z"></path></g><path d="M226.37,207.69c.49,1.53,2.93,2.09,4.24,2.54,3,1,6.2,1.84,9.34,2.57a145.41,145.41,0,0,0,26.25,3.82A55.08,55.08,0,0,0,280,215.8c1.64-.35.95-2.86-.69-2.52-7.78,1.65-16.19.79-24-.29a143.15,143.15,0,0,1-22.07-4.66,36.79,36.79,0,0,1-3.53-1.22l-.8-.38c-.54-.28-.13-.14,0,.27-.52-1.59-3-.91-2.51.69Z" style="fill:#263238"></path><path d="M228.09,218.54c14.41.28,29.48-2,42.19-9.18a52.14,52.14,0,0,0,9.85-7.17c1.23-1.14-.61-3-1.84-1.84C268,209.93,253.75,214.22,240,215.52a107.21,107.21,0,0,1-11.89.42,1.3,1.3,0,0,0,0,2.6Z" style="fill:#263238"></path><g style="opacity:0.30000000000000004"><path d="M229.34,201.5a50.83,50.83,0,0,0,23.32,3.4,132.22,132.22,0,0,0,25.08-5.52s-17.23,1.91-23.8,2.15S229.34,201.5,229.34,201.5Z"></path></g><path d="M227.75,201.6c16.72,2.76,34.16,2.43,50.58-2a1.3,1.3,0,0,0-.69-2.51,116.83,116.83,0,0,1-49.2,2c-1.64-.27-2.35,2.24-.69,2.51Z" style="fill:#263238"></path><path d="M238.58,216.46a19.68,19.68,0,0,1-8.41.43,24.23,24.23,0,0,1,4.2-.3A24.78,24.78,0,0,1,238.58,216.46Z" style="fill:#fff"></path><path d="M246.55,215.46c0,.15-.52.33-1.2.41s-1.25,0-1.27-.12.52-.33,1.2-.41S246.53,215.31,246.55,215.46Z" style="fill:#fff"></path><path d="M241.47,201.42a21.22,21.22,0,0,1-6.45-.1,21.45,21.45,0,0,1-6.28-1.53c0-.16,2.84.55,6.35,1S241.47,201.26,241.47,201.42Z" style="fill:#fff"></path><path d="M246.33,201.38c0,.15-.32.26-.7.24s-.69-.16-.68-.31.32-.25.71-.23S246.34,201.23,246.33,201.38Z" style="fill:#fff"></path><path d="M236.5,154.37,230.56,117s.86-7.36,25-6.16,22.5,7.53,22.5,7.53L272,153.65s-6.47,6.21-18.18,5.5C238.05,158.19,236.5,154.37,236.5,154.37Z" style="fill:#455a64"></path><path d="M278.05,118.4s-.12.19-.43.46a9,9,0,0,1-1.5,1,20.41,20.41,0,0,1-6.32,2.2,62.75,62.75,0,0,1-9.88.76c-3.73.08-7.82,0-12.12-.12l-.85,0-.54,0,.34-.42,4.31-5.41.31.41L241,121.75l0,0h0c-3.68-.16-6.74-.86-8.49-2.1a4.68,4.68,0,0,1-1.62-1.81,1.56,1.56,0,0,1-.2-.83,5.77,5.77,0,0,0,.31.77,4.77,4.77,0,0,0,1.64,1.67c1.73,1.14,4.73,1.76,8.37,1.87l-.09,0,10.37-4.57,1-.43-.66.83-4.3,5.42-.2-.44.85,0c4.29.15,8.38.21,12.09.17a66.67,66.67,0,0,0,9.82-.65,21.81,21.81,0,0,0,6.29-2,12.19,12.19,0,0,0,1.53-.94A4.63,4.63,0,0,1,278.05,118.4Z" style="fill:#263238"></path><g style="opacity:0.2"><polygon points="251.26 117.03 246.96 122.44 244.4 138.1 241 122.12 240.88 121.56 251.26 117.03"></polygon></g><path d="M244.52,138a9.86,9.86,0,0,1-.76-2.35c-.38-1.47-.85-3.53-1.33-5.8s-.83-4.13-1.18-5.82a12,12,0,0,1-.37-2.44,10.82,10.82,0,0,1,.75,2.35c.39,1.48.86,3.53,1.33,5.8s.84,4.13,1.18,5.82A12.65,12.65,0,0,1,244.52,138Z" style="fill:#263238"></path><g style="opacity:0.2"><path d="M259.87,132.49h.05s.06,0,.09,0Z"></path></g><g style="opacity:0.2"><path d="M261.17,133.34a1.35,1.35,0,0,0-1.25-.84,1.27,1.27,0,0,0-1,.68,3.65,3.65,0,0,0-.32,1.31,49.68,49.68,0,0,0-.54,8.43,2.55,2.55,0,0,0,.28,1.22,1,1,0,0,0,1.06.48,1.37,1.37,0,0,0,.7-.85c1.13-2.76,1.23-5.83,1.31-8.82A3.24,3.24,0,0,0,261.17,133.34Z"></path></g><g style="opacity:0.2"><path d="M256.46,115.27a1.36,1.36,0,0,0-.75,1.29,1.24,1.24,0,0,0,.74,1,3.74,3.74,0,0,0,1.33.25,48.55,48.55,0,0,0,8.44,0,2.47,2.47,0,0,0,1.2-.35.94.94,0,0,0,.42-1.08,1.33,1.33,0,0,0-.89-.65c-2.83-1-5.9-.86-8.88-.75A3.14,3.14,0,0,0,256.46,115.27Z"></path></g><g style="opacity:0.2"><path d="M237.33,135.72h0l.08,0Z"></path></g><g style="opacity:0.2"><path d="M238.81,136.14a1.34,1.34,0,0,0-1.44-.43,1.27,1.27,0,0,0-.75.94,3.83,3.83,0,0,0,.08,1.35,48.62,48.62,0,0,0,2,8.21,2.53,2.53,0,0,0,.62,1.08,1,1,0,0,0,1.15.16,1.36,1.36,0,0,0,.42-1c.28-3-.54-5.94-1.34-8.81A3.19,3.19,0,0,0,238.81,136.14Z"></path></g><g style="opacity:0.2"><path d="M272.33,121.56h0Z"></path></g><g style="opacity:0.2"><path d="M273.62,122.41a1.36,1.36,0,0,0-1.25-.84,1.26,1.26,0,0,0-1,.68,3.47,3.47,0,0,0-.33,1.31,48.66,48.66,0,0,0-.53,8.43,2.66,2.66,0,0,0,.27,1.22,1,1,0,0,0,1.06.48,1.34,1.34,0,0,0,.7-.85c1.14-2.76,1.23-5.83,1.31-8.81A3.26,3.26,0,0,0,273.62,122.41Z"></path></g><path d="M275.7,116.4a8.76,8.76,0,0,1-1.54-.62,15.92,15.92,0,0,0-1.81-.67l-1.14-.38-1.31-.34a65.78,65.78,0,0,0-14.67-1.85,90.66,90.66,0,0,0-14.8.74l-2.53.43-1.88.42a9.41,9.41,0,0,1-1.6.42,10.74,10.74,0,0,1,1.54-.62l1.88-.52c.74-.16,1.59-.33,2.53-.5a78.67,78.67,0,0,1,14.88-.91A60.19,60.19,0,0,1,270,114l1.31.38,1.14.43a13.36,13.36,0,0,1,1.79.76A10.65,10.65,0,0,1,275.7,116.4Z" style="fill:#fff"></path><path d="M237.45,153.82a6,6,0,0,1-.26-1.24c-.14-.8-.32-2-.52-3.41-.41-3-.93-6.94-1.51-11.29s-1.15-8.39-1.58-11.27q-.3-2-.51-3.42a6.1,6.1,0,0,1-.13-1.26,5.18,5.18,0,0,1,.34,1.22c.18.8.41,2,.68,3.39.53,2.87,1.15,6.85,1.73,11.27s1,8.41,1.36,11.31c.13,1.36.25,2.51.35,3.43A5.32,5.32,0,0,1,237.45,153.82Z" style="fill:#fff"></path><path d="M249.76,116.64a23.28,23.28,0,0,1-8.44,3.29,28.84,28.84,0,0,1,4.19-1.73A28.35,28.35,0,0,1,249.76,116.64Z" style="fill:#fff"></path><path d="M196.27,238.46c-.29-3.39-3.91-6.47-8.16-7-13.12-3.57-28.23,1.93-36.56,12.67a17.77,17.77,0,0,0-3.63,7.21,9,9,0,0,0,1.73,7.66c2.83,3.25,8,3.26,12,1.69s7.44-4.37,11.37-6.12a70.12,70.12,0,0,1,9.76-3,25,25,0,0,0,9.23-4.22C194.65,245.16,196.56,241.86,196.27,238.46Z" style="fill:#fff"></path><path d="M154.47,296.86a69.39,69.39,0,0,1-1.69-21.35,8.57,8.57,0,0,0-.24-3.81A4.41,4.41,0,0,0,147,270c-4.14,2-5.25,4.14-6.27,8.64s-.56,9.21.2,13.76,1.86,9,4.79,12.36c1.67,1.94,4.38,3.47,6.74,2.47a5.42,5.42,0,0,0,2.9-4.69A18.59,18.59,0,0,0,154.47,296.86Z" style="fill:#fff"></path><path d="M358,284.59a69,69,0,0,1-5,20.83,8.48,8.48,0,0,0-.94,3.69,4.4,4.4,0,0,0,4.79,3.31c4.57-.64,6.28-2.31,8.64-6.27s3.39-8.58,4.07-13.15,1-9.1-.73-13.23c-1-2.37-3.1-4.66-5.65-4.43A5.41,5.41,0,0,0,359,278.9,19.08,19.08,0,0,0,358,284.59Z" style="fill:#fff"></path><path d="M367.67,252.19c-.41-3-2.13-7.28-8.94-5.86l-2,1.06a7.47,7.47,0,0,0-1.7,8.41,6.75,6.75,0,0,0,7.43,3.82C365.42,259,368.08,255.18,367.67,252.19Z" style="fill:#fff"></path><g style="opacity:0.30000000000000004"><path d="M228.68,189.29v4.85A54.07,54.07,0,0,0,256,191.71S233.7,191.24,228.68,189.29Z"></path></g><path d="M226.64,188.76a19.87,19.87,0,0,1,2.06.43c1.32.29,3.23.66,5.62,1a138.69,138.69,0,0,0,18.81,1.22,137.22,137.22,0,0,0,18.8-1.2c2.39-.34,4.31-.72,5.63-1a18.37,18.37,0,0,1,2.05-.44,3.51,3.51,0,0,1-.51.2c-.34.11-.84.27-1.49.45-1.31.35-3.23.79-5.62,1.18A121.1,121.1,0,0,1,253.13,192a121.92,121.92,0,0,1-18.86-1.38c-2.4-.39-4.31-.82-5.62-1.17-.66-.17-1.16-.33-1.5-.45A3,3,0,0,1,226.64,188.76Z" style="fill:#263238"></path></g></svg>