<svg xmlns="http://www.w3.org/2000/svg" viewBox="0 0 750 500"><g id="background-complete"><path d="M666.24,437.56a27.92,27.92,0,0,1,9.51-17.43C676.9,429.57,666.24,437.56,666.24,437.56Z" style="fill:#ebebeb"></path><path d="M677.54,433.64a27.88,27.88,0,0,1,19.77,1.76C689.11,440.22,677.54,433.64,677.54,433.64Z" style="fill:#ebebeb"></path><path d="M679.45,427.83a22,22,0,0,1,4.48-15C686.37,419.93,679.45,427.83,679.45,427.83Z" style="fill:#ebebeb"></path><path d="M640.64,401.53c15.14,6,21.92,20.56,21.92,20.56C649.21,420.53,640.64,401.53,640.64,401.53Z" style="fill:#ebebeb"></path><path d="M664.84,410.86C666,393.93,684.7,376.8,684.7,376.8c-4.94,20.62-19.86,34.06-19.86,34.06" style="fill:#ebebeb"></path><path d="M670.39,362.9a45.38,45.38,0,0,1-8.75,23.42C660.59,375.22,670.39,362.9,670.39,362.9Z" style="fill:#ebebeb"></path><path d="M660,396.36c-12.16-2.76-17.42-15.8-17.42-15.8C657,386.48,660,396.36,660,396.36Z" style="fill:#ebebeb"></path><path d="M627.43,444.73a27.89,27.89,0,0,1,19.8-1.46C639.92,449.35,627.43,444.73,627.43,444.73Z" style="fill:#ebebeb"></path><path d="M658.69,454a18.26,18.26,0,0,1-9.37,8.35C650.51,456.73,658.69,454,658.69,454Z" style="fill:#ebebeb"></path><path d="M657.32,452a22,22,0,0,1-15,.9C647.6,448.51,657.32,452,657.32,452Z" style="fill:#ebebeb"></path><path d="M661,475.41a.75.75,0,0,1,0-.26c0-.2,0-.44.07-.73.08-.7.18-1.64.32-2.83s.33-2.72.5-4.46.41-3.73.57-5.93c.41-4.39.71-9.63.94-15.45s.22-12.24,0-19c-.4-13.45-1.67-25.59-2.81-34.33-.57-4.37-1.08-7.9-1.47-10.34-.17-1.18-.31-2.12-.41-2.81,0-.29-.07-.54-.1-.73a1.29,1.29,0,0,1,0-.26,1,1,0,0,1,.07.25l.15.72c.13.69.3,1.62.52,2.8.45,2.42,1,6,1.64,10.32a312.92,312.92,0,0,1,3,34.36c.19,6.74.13,13.16-.07,19s-.6,11.08-1.06,15.47c-.19,2.2-.44,4.18-.65,5.92s-.4,3.24-.59,4.46-.33,2.12-.43,2.81c0,.29-.09.53-.13.73A1,1,0,0,1,661,475.41Z" style="fill:#e0e0e0"></path><path d="M642.54,437.11c.1-.12,4.69,3.73,10.26,8.59s10,8.89,9.89,9S658,451,652.43,446.12,642.44,437.22,642.54,437.11Z" style="fill:#e0e0e0"></path><path d="M664.24,441.48a4.23,4.23,0,0,1,.87-.75l2.46-1.87,8.22-6.08,8.21-6.07,2.49-1.84a4.12,4.12,0,0,1,1-.62,4.59,4.59,0,0,1-.83.79c-.54.49-1.36,1.16-2.38,2-2,1.64-4.91,3.83-8.12,6.2s-6.16,4.46-8.32,5.94c-1.08.75-1.95,1.34-2.57,1.74A4.58,4.58,0,0,1,664.24,441.48Z" style="fill:#e0e0e0"></path><path d="M627.67,427.27s12.75,1.25,17,11.9A23.08,23.08,0,0,1,627.67,427.27Z" style="fill:#ebebeb"></path><path d="M645.64,424.21s9.5,8.6,6.53,19.66A23.09,23.09,0,0,1,645.64,424.21Z" style="fill:#ebebeb"></path><path d="M702.35,412.4s-5.76,13.77-19.05,14.8A26.87,26.87,0,0,1,702.35,412.4Z" style="fill:#ebebeb"></path><path d="M648.35,352.39s15,12.49,11.17,29.5A35.12,35.12,0,0,1,648.35,352.39Z" style="fill:#ebebeb"></path><path d="M691.32,452.91a6.48,6.48,0,0,1-1.16.72c-.76.43-1.85,1.07-3.17,1.89a71.28,71.28,0,0,0-18.16,16c-1,1.21-1.75,2.2-2.27,2.91a6.74,6.74,0,0,1-.86,1.05,6.47,6.47,0,0,1,.68-1.18c.47-.74,1.19-1.78,2.14-3a62.49,62.49,0,0,1,18.27-16.09c1.35-.78,2.48-1.37,3.27-1.74A6.9,6.9,0,0,1,691.32,452.91Z" style="fill:#e0e0e0"></path><path d="M676,461.83a27.88,27.88,0,0,1,6-18.92C682.28,455.19,676,461.83,676,461.83Z" style="fill:#ebebeb"></path><path d="M687.57,457.16a20.27,20.27,0,0,1,14.43-.54C693.67,459.86,687.57,457.16,687.57,457.16Z" style="fill:#ebebeb"></path><path d="M704.07,199.39c7.55-6.72,4.17-20.68-4.77-25.4s-20.47-1.61-28.09,5a24.88,24.88,0,1,0-47.8-3.24l2.71,2.84c-11.88.53-21.94,12.48-20.45,24.27s14.22,20.84,25.85,18.39a22.65,22.65,0,0,0,43,8.1c8,6.9,21.38,6.35,28.8-1.18S711.08,207.31,704.07,199.39Z" style="fill:#f5f5f5"></path><path d="M353.22,208.55c7-6.28,3.89-19.31-4.46-23.72s-19.1-1.49-26.22,4.71a23.22,23.22,0,1,0-44.61-3l2.52,2.66c-11.08.49-20.47,11.64-19.08,22.64S274.65,231.27,285.5,229a21.15,21.15,0,0,0,40.12,7.55c7.48,6.44,19.95,5.93,26.88-1.1S359.76,215.93,353.22,208.55Z" style="fill:#f5f5f5"></path><path d="M439.17,173.13c-6.49,2.5-7.7,12.3-3.09,17.51s12.79,6,19.31,3.57a17.11,17.11,0,1,0,30,13.68l-1.06-2.49c7.77,2.54,17.15-2.71,19.05-10.66s-4.1-16.87-12.18-18.12A15.59,15.59,0,0,0,465.48,161a14.52,14.52,0,0,0-26.31,12.14Z" style="fill:#f5f5f5"></path><path d="M616.38,364.48a12.12,12.12,0,0,0-9.83-1.92c-7.42-.33-14.56,6.22-14.79,13.72-.24,7.81,6.86,15,14.68,15.09s15-6.78,15.46-14.58A14.26,14.26,0,0,0,616.38,364.48Z" style="fill:#f5f5f5"></path><path d="M708.93,264.88a6.73,6.73,0,0,0-5.46-1.07,8.21,8.21,0,0,0-8.23,7.63,8.53,8.53,0,0,0,8.16,8.39,8.91,8.91,0,0,0,8.6-8.11A7.94,7.94,0,0,0,708.93,264.88Z" style="fill:#f5f5f5"></path><path d="M482.2,248.24a6.73,6.73,0,0,0-5.46-1.07,8.2,8.2,0,0,0-8.22,7.63,8.52,8.52,0,0,0,8.15,8.39,8.9,8.9,0,0,0,8.6-8.11A7.94,7.94,0,0,0,482.2,248.24Z" style="fill:#f5f5f5"></path><path d="M650.51,299a4.42,4.42,0,0,0-3.61-.71,5.43,5.43,0,0,0-5.45,5.05,5.64,5.64,0,0,0,5.4,5.56,5.9,5.9,0,0,0,5.7-5.37A5.27,5.27,0,0,0,650.51,299Z" style="fill:#f5f5f5"></path><path d="M134.72,94.36c7.75-6.91,4.28-21.23-4.9-26.07s-21-1.65-28.83,5.17A25.52,25.52,0,0,0,63.66,43.13a26.21,26.21,0,0,0-11.72,27l2.78,2.92c-12.18.54-22.51,12.8-21,24.9s14.6,21.39,26.53,18.88a23.93,23.93,0,0,0,18.87,21,23.94,23.94,0,0,0,25.24-12.73c8.22,7.08,21.93,6.52,29.55-1.21S141.91,102.48,134.72,94.36Z" style="fill:#f5f5f5"></path><path d="M279.88,128.4l3,1.14-2.62.74a2.72,2.72,0,0,0-1.85,1.79l-.95,2.9-1.17-2.91a2.72,2.72,0,0,0-1.61-1.56l-2.65-1,2.88-1.18a2.77,2.77,0,0,0,1.51-1.55l1-2.7.74,2.51A2.75,2.75,0,0,0,279.88,128.4Z" style="fill:#ebebeb"></path><path d="M475.62,275.32l3,1.13-2.62.75a2.72,2.72,0,0,0-1.86,1.78l-1,2.9L472.05,279a2.73,2.73,0,0,0-1.61-1.55l-2.65-1,2.87-1.18a2.7,2.7,0,0,0,1.52-1.55l1-2.7.75,2.51A2.74,2.74,0,0,0,475.62,275.32Z" style="fill:#ebebeb"></path><path d="M280.39,268.54l3,1.14-2.62.74a2.76,2.76,0,0,0-1.86,1.78l-.95,2.9-1.16-2.91a2.76,2.76,0,0,0-1.61-1.55l-2.65-1,2.87-1.19a2.69,2.69,0,0,0,1.51-1.54l1-2.7.75,2.51A2.73,2.73,0,0,0,280.39,268.54Z" style="fill:#ebebeb"></path><path d="M624.33,275.48l3,1.13-2.63.75a2.71,2.71,0,0,0-1.85,1.78l-1,2.9-1.17-2.91a2.72,2.72,0,0,0-1.6-1.55l-2.66-1,2.88-1.18a2.74,2.74,0,0,0,1.51-1.55l1-2.7.74,2.51A2.79,2.79,0,0,0,624.33,275.48Z" style="fill:#ebebeb"></path><path d="M648.55,340.06l2,.73-1.69.48a1.76,1.76,0,0,0-1.19,1.15l-.62,1.87-.75-1.88a1.77,1.77,0,0,0-1-1l-1.71-.62,1.86-.76a1.8,1.8,0,0,0,1-1l.67-1.74.48,1.62A1.8,1.8,0,0,0,648.55,340.06Z" style="fill:#ebebeb"></path><path d="M665.61,273.32l1.95.73-1.69.48a1.75,1.75,0,0,0-1.2,1.15l-.61,1.87-.75-1.88a1.8,1.8,0,0,0-1-1l-1.71-.62,1.85-.76a1.81,1.81,0,0,0,1-1l.67-1.74.48,1.62A1.78,1.78,0,0,0,665.61,273.32Z" style="fill:#ebebeb"></path><path d="M662.77,131.48l2,.74-1.7.48a1.76,1.76,0,0,0-1.19,1.14l-.61,1.88-.76-1.88a1.72,1.72,0,0,0-1-1l-1.72-.62,1.86-.77a1.77,1.77,0,0,0,1-1l.67-1.75.48,1.62A1.73,1.73,0,0,0,662.77,131.48Z" style="fill:#ebebeb"></path><path d="M519.44,96.07l1.95.74-1.69.48a1.75,1.75,0,0,0-1.2,1.15l-.61,1.87-.75-1.88a1.8,1.8,0,0,0-1-1l-1.71-.62,1.85-.76a1.81,1.81,0,0,0,1-1l.67-1.74.48,1.61A1.75,1.75,0,0,0,519.44,96.07Z" style="fill:#ebebeb"></path><path d="M691.64,83.73l5.11,1.92-4.44,1.26a4.63,4.63,0,0,0-3.13,3l-1.61,4.91-2-4.92a4.64,4.64,0,0,0-2.72-2.63l-4.49-1.63,4.86-2A4.58,4.58,0,0,0,685.81,81l1.76-4.56,1.26,4.24A4.62,4.62,0,0,0,691.64,83.73Z" style="fill:#ebebeb"></path><path d="M45.44,283.69l5.08,1.91-4.41,1.25a4.59,4.59,0,0,0-3.11,3l-1.6,4.88-2-4.89a4.57,4.57,0,0,0-2.7-2.61l-4.46-1.62,4.83-2a4.57,4.57,0,0,0,2.54-2.6l1.75-4.53,1.25,4.21A4.61,4.61,0,0,0,45.44,283.69Z" style="fill:#ebebeb"></path><path d="M273.85,300l5.08,1.91-4.41,1.25a4.59,4.59,0,0,0-3.11,3l-1.6,4.88-2-4.89a4.63,4.63,0,0,0-2.7-2.61l-4.46-1.62,4.83-2a4.64,4.64,0,0,0,2.55-2.61l1.74-4.53,1.25,4.22A4.62,4.62,0,0,0,273.85,300Z" style="fill:#ebebeb"></path><path d="M271,144.08l5.08,1.91-4.41,1.25a4.59,4.59,0,0,0-3.11,3l-1.6,4.88-2-4.89a4.57,4.57,0,0,0-2.7-2.61L257.82,146l4.83-2a4.62,4.62,0,0,0,2.55-2.6l1.74-4.53,1.25,4.21A4.63,4.63,0,0,0,271,144.08Z" style="fill:#ebebeb"></path><path d="M172.56,49.7l5.08,1.91-4.41,1.25a4.59,4.59,0,0,0-3.11,3l-1.6,4.88-2-4.89a4.6,4.6,0,0,0-2.7-2.61l-4.46-1.62,4.83-2a4.57,4.57,0,0,0,2.54-2.6l1.75-4.53,1.25,4.21A4.61,4.61,0,0,0,172.56,49.7Z" style="fill:#ebebeb"></path><path d="M419.17,58.82l5.08,1.91L419.84,62a4.63,4.63,0,0,0-3.12,3l-1.59,4.88-2-4.89a4.63,4.63,0,0,0-2.7-2.61L406,60.73l4.83-2a4.62,4.62,0,0,0,2.54-2.61l1.75-4.53,1.25,4.22A4.59,4.59,0,0,0,419.17,58.82Z" style="fill:#ebebeb"></path><path d="M619.18,249.69,624,251.5l-4.2,1.19a4.38,4.38,0,0,0-3,2.85l-1.52,4.64-1.87-4.65A4.38,4.38,0,0,0,610.9,253l-4.24-1.54,4.6-1.88a4.43,4.43,0,0,0,2.42-2.48l1.66-4.31,1.19,4A4.38,4.38,0,0,0,619.18,249.69Z" style="fill:#ebebeb"></path><path d="M527.51,70.73l4.83,1.82-4.19,1.19a4.38,4.38,0,0,0-3,2.84l-1.51,4.64-1.87-4.65a4.37,4.37,0,0,0-2.57-2.48L515,72.55l4.6-1.89A4.35,4.35,0,0,0,522,68.18l1.67-4.31,1.19,4A4.38,4.38,0,0,0,527.51,70.73Z" style="fill:#ebebeb"></path><path d="M146,285.52l3,1.13-2.62.75a2.72,2.72,0,0,0-1.86,1.78l-.95,2.9-1.16-2.91a2.73,2.73,0,0,0-1.61-1.55l-2.65-1,2.87-1.18a2.76,2.76,0,0,0,1.52-1.55l1-2.7.75,2.51A2.76,2.76,0,0,0,146,285.52Z" style="fill:#ebebeb"></path><path d="M43.81,326.34l3,1.14-2.63.74A2.75,2.75,0,0,0,42.35,330l-1,2.9L40.23,330a2.72,2.72,0,0,0-1.6-1.55l-2.66-1,2.88-1.19a2.72,2.72,0,0,0,1.51-1.54l1-2.7.75,2.51A2.7,2.7,0,0,0,43.81,326.34Z" style="fill:#ebebeb"></path><path d="M74.13,168.64l3,1.13-2.63.75a2.71,2.71,0,0,0-1.85,1.78l-1,2.9-1.17-2.91a2.72,2.72,0,0,0-1.6-1.55l-2.66-1,2.88-1.18A2.77,2.77,0,0,0,70.68,167l1-2.7.75,2.51A2.74,2.74,0,0,0,74.13,168.64Z" style="fill:#ebebeb"></path><path d="M60.18,157.05l1.89.71-1.64.47a1.72,1.72,0,0,0-1.16,1.11l-.59,1.81L58,159.33a1.71,1.71,0,0,0-1-1l-1.66-.6,1.8-.73a1.72,1.72,0,0,0,.94-1l.65-1.69.47,1.57A1.68,1.68,0,0,0,60.18,157.05Z" style="fill:#ebebeb"></path><path d="M133.61,231.1l1.89.71-1.64.46a1.72,1.72,0,0,0-1.16,1.11l-.59,1.82-.73-1.82a1.71,1.71,0,0,0-1-1l-1.66-.6,1.8-.74a1.72,1.72,0,0,0,.94-1l.65-1.68.47,1.57A1.7,1.7,0,0,0,133.61,231.1Z" style="fill:#ebebeb"></path><path d="M394,82.8l1.88.71-1.64.47a1.68,1.68,0,0,0-1.15,1.11l-.6,1.81-.72-1.82a1.75,1.75,0,0,0-1-1l-1.65-.6,1.79-.73a1.71,1.71,0,0,0,.95-1l.64-1.69.47,1.57A1.67,1.67,0,0,0,394,82.8Z" style="fill:#f5f5f5"></path><path d="M675.17,56.45l1.89.71-1.64.47a1.7,1.7,0,0,0-1.16,1.11l-.59,1.81-.73-1.82a1.74,1.74,0,0,0-1-1l-1.66-.6,1.8-.74a1.71,1.71,0,0,0,.94-1l.65-1.69.46,1.57A1.74,1.74,0,0,0,675.17,56.45Z" style="fill:#f5f5f5"></path><path d="M290.32,175.31l1.88.71-1.63.46a1.73,1.73,0,0,0-1.16,1.12l-.59,1.81-.73-1.82a1.74,1.74,0,0,0-1-1l-1.66-.6,1.79-.74a1.69,1.69,0,0,0,.95-1l.65-1.69.46,1.57A1.72,1.72,0,0,0,290.32,175.31Z" style="fill:#f5f5f5"></path><path d="M141.68,55.74l1.88.71-1.63.47A1.7,1.7,0,0,0,140.77,58l-.59,1.81L139.45,58a1.74,1.74,0,0,0-1-1l-1.66-.6,1.79-.74a1.66,1.66,0,0,0,.95-1l.65-1.69.46,1.57A1.72,1.72,0,0,0,141.68,55.74Z" style="fill:#f5f5f5"></path><path d="M327.21,177.3l1.89.71-1.64.46a1.73,1.73,0,0,0-1.16,1.12l-.59,1.81-.73-1.82a1.71,1.71,0,0,0-1-1l-1.66-.6,1.8-.74a1.74,1.74,0,0,0,.94-1l.65-1.69.47,1.57A1.7,1.7,0,0,0,327.21,177.3Z" style="fill:#f5f5f5"></path><path d="M73,456.08c.66-2.62-1.07-5.23-3-7.12s-4.24-3.57-5.25-6.07c-1.64-4.05.51-9.32-2.28-12.69-1.63-2-4.55-2.63-6-4.75a10.68,10.68,0,0,1-1.32-3.8,38.73,38.73,0,0,0-9.71-17.93A33.49,33.49,0,0,0,49.3,421c1.13,2.13,2.52,4.19,2.9,6.57.63,3.85-1.5,7.84-.53,11.63,1.1,4.33,6,7.2,6.25,11.66.21,3.77-3.06,7.1-2.79,10.87a10.2,10.2,0,0,0,1.7,4.46c3,4.83,7.25,8.15,13.74,8l8,.23Z" style="fill:#f5f5f5"></path><path d="M80.14,474.65a6.11,6.11,0,0,0,2.19-.06,12.87,12.87,0,0,0,2.58-.66,10.89,10.89,0,0,0,3.18-1.77,4.42,4.42,0,0,0,1.31-1.75,8.4,8.4,0,0,0,.36-2.38,23.11,23.11,0,0,1,.17-2.58,7.09,7.09,0,0,1,1-2.56c.93-1.65,2.47-3.22,3-5.46s.13-4.58-.25-7-.76-5,.14-7.48,2.57-4.74,3.43-7.55.43-5.88.59-8.89a11.74,11.74,0,0,1,1-4.42c.63-1.41,1.52-2.75,2.21-4.23,1.39-3,1.62-6.4,2-9.73.18-1.68.36-3.38.54-5.09a25.06,25.06,0,0,1,.85-5.09,45.82,45.82,0,0,1,1.88-4.94,15.92,15.92,0,0,0,.91-2.57,25.78,25.78,0,0,0,.24-2.74,32.72,32.72,0,0,0-.24-5.5c-.23-1.84-.57-3.66-.78-5.49,0-.11,0-.22,0-.32l0-.37-.33.17a12.28,12.28,0,0,0-4.26,3.64,19.31,19.31,0,0,0-2.6,4.86c-1.31,3.42-1.77,7-2.42,10.43a28.34,28.34,0,0,1-3.21,9.64c-.87,1.42-1.91,2.72-2.83,4.11a11.28,11.28,0,0,0-2,4.54c-.45,3.37,1.42,6.31,1,9.29a10.31,10.31,0,0,1-1.42,4.14c-.72,1.27-1.56,2.46-2.36,3.65a22.55,22.55,0,0,0-2.11,3.68,11.54,11.54,0,0,0-1,4c-.18,2.68.22,5.23,0,7.63A17.53,17.53,0,0,1,81,452.37c-1,2-2,3.74-2.9,5.46-.44.86-.85,1.7-1.19,2.54a12.77,12.77,0,0,0-.68,2.52,16.12,16.12,0,0,0,0,4.54,11.47,11.47,0,0,0,2.31,5.77,5.68,5.68,0,0,0,.65.7,3.58,3.58,0,0,0,.52.44,5.19,5.19,0,0,0,.46.31,10.14,10.14,0,0,1-1.55-1.51,11.57,11.57,0,0,1-2.19-5.74,15.72,15.72,0,0,1,.08-4.47,12.1,12.1,0,0,1,.69-2.46,27.07,27.07,0,0,1,1.2-2.51c.89-1.71,2-3.47,2.93-5.45a17.81,17.81,0,0,0,2-6.66c.19-2.46-.19-5,0-7.63a11.19,11.19,0,0,1,.93-3.86,23.58,23.58,0,0,1,2.09-3.61c.8-1.18,1.65-2.37,2.39-3.67a10.75,10.75,0,0,0,1.49-4.3c.37-3.18-1.49-6.14-1-9.27a10.77,10.77,0,0,1,1.88-4.35c.9-1.36,2-2.66,2.85-4.12a28.66,28.66,0,0,0,3.28-9.8c.66-3.44,1.12-7,2.41-10.34a19.14,19.14,0,0,1,2.53-4.74,11.81,11.81,0,0,1,4.08-3.48l-.37-.21,0,.33c.21,1.86.55,3.68.78,5.49a31.78,31.78,0,0,1,.24,5.42c0,.89-.1,1.82-.23,2.66a16,16,0,0,1-.88,2.48,44.84,44.84,0,0,0-1.89,5A25.15,25.15,0,0,0,103,403c-.18,1.72-.36,3.41-.54,5.09-.36,3.35-.59,6.69-1.93,9.59-.67,1.44-1.55,2.78-2.2,4.24a12.12,12.12,0,0,0-1,4.58c-.16,3.08.26,6.07-.56,8.8s-2.53,5-3.39,7.55-.52,5.28-.13,7.66.8,4.72.3,6.83-2,3.7-2.9,5.4a7.26,7.26,0,0,0-1,2.66,21.66,21.66,0,0,0-.15,2.61,8.06,8.06,0,0,1-.33,2.31A4.2,4.2,0,0,1,88,472a10.81,10.81,0,0,1-3.1,1.78,13.66,13.66,0,0,1-2.55.7,10.19,10.19,0,0,1-1.61.17Z" style="fill:#e0e0e0"></path><path d="M104.74,380.81a1,1,0,0,0-.07.24l-.18.72c-.15.62-.33,1.57-.62,2.75s-1,2.52-1.63,4.17-1.27,3.52-1.86,5.65-1.12,4.48-1.67,7a29,29,0,0,1-2.5,7.78c-.64,1.3-1.37,2.61-1.94,4a18.52,18.52,0,0,0-1.12,4.57,95.42,95.42,0,0,1-1.66,9.64c-1.56,6.52-3,12.74-4.4,18.4s-2.63,10.73-3.68,15-1.85,7.7-2.44,10.13c-.27,1.17-.48,2.09-.64,2.76-.06.3-.11.53-.15.72a1.24,1.24,0,0,0,0,.25s0-.07.09-.23.12-.42.2-.71l.73-2.74c.63-2.42,1.51-5.86,2.6-10.09s2.37-9.35,3.79-15S90.41,434,92,427.49a91.6,91.6,0,0,0,1.65-9.68,18.07,18.07,0,0,1,1.08-4.46c.55-1.39,1.27-2.7,1.91-4a29.34,29.34,0,0,0,2.5-7.9c.53-2.53,1-4.89,1.6-7s1.17-4,1.78-5.64,1.26-3,1.55-4.22.41-2.14.54-2.78c0-.3.08-.54.12-.73A.94.94,0,0,0,104.74,380.81Z" style="fill:#e0e0e0"></path><path d="M81.55,474.67c5.17-3.12,6.61-12.5,4.41-18.13s-6-10.76-6.64-16.77c-.47-4.62,1-9.38-.09-13.89-1.49-6.09-7.47-10.78-7.44-17.05,0-3.52,2-6.84,1.83-10.36-.22-4.31-3.55-7.71-5.62-11.49-3.17-5.8-3.42-12.67-4.53-19.18S59.84,354.32,54,351.15c-.82,5.54-2.25,9.34-1.75,16.83.18,2.69,3.33,7.83,3.79,13.72.28,3.53.47,7.06.71,10.59s.47,6.93,1.72,10.13c1,2.46,2.49,4.69,3.2,7.22,1.34,4.78-.36,10,.73,14.81.93,4.1,3.79,7.61,4.39,11.77.85,5.84-2.9,11.94-.93,17.51,1,2.76,3.27,5,3.93,7.83.51,2.21,0,4.56.45,6.79.75,3.58,7.61,6.33,11.27,6.09" style="fill:#ebebeb"></path><path d="M55.51,356.64a1.45,1.45,0,0,0,0,.31l.12.91c.13.8.27,2,.55,3.48s1.09,3.24,1.73,5.31,1.35,4.44,2,7.1,1.12,5.61,1.66,8.78a36.46,36.46,0,0,0,2.72,9.93c.73,1.66,1.56,3.31,2.19,5.08a23.36,23.36,0,0,1,1.12,5.61,112.14,112.14,0,0,0,1.6,12.09c1.63,8.19,3.19,16,4.61,23.09s2.84,13.44,4,18.81l2.72,12.67c.33,1.46.58,2.62.76,3.44.09.37.16.66.22.89a1.31,1.31,0,0,0,.09.3s0-.11,0-.31-.1-.53-.16-.91l-.68-3.45c-.61-3-1.48-7.37-2.56-12.71s-2.41-11.74-3.87-18.82-2.95-14.9-4.57-23.09a113.65,113.65,0,0,1-1.6-12,23.15,23.15,0,0,0-1.16-5.72c-.65-1.81-1.49-3.47-2.22-5.11A36.61,36.61,0,0,1,62,382.46c-.55-3.17-1.09-6.12-1.72-8.79a71.56,71.56,0,0,0-2-7.11c-.67-2.08-1.49-3.77-1.81-5.26s-.48-2.67-.63-3.46l-.18-.9A1.26,1.26,0,0,0,55.51,356.64Z" style="fill:#e0e0e0"></path></g><g id="background-simple"><line x1="87.71" y1="109" x2="155.45" y2="143.96" style="fill:none"></line><path d="M527,96.29l-1.4-3.09c-11.78-26-36.6-43.78-64.82-45.38a73.61,73.61,0,0,0-10.91.18c-26.12,2.38-50.61,19-62.76,42.54C380,104.4,376.44,120.92,364.8,131.2c-15.15,13.38-37.86,11.13-57.7,8.11s-42.58-5.22-57.67,8.23c-9.45,8.42-13.7,21.5-14.55,34.2-2.25,33.63,17.44,66.3,45.26,84.72s62.52,23.94,95.71,21.31c46.49-3.69,92.69-23.62,123.31-59.31S542.71,140.68,527,96.29Z" style="fill:#f5f5f5"></path></g><g id="Powder"><path d="M633.25,417.52c-18.18-12.8-44.08-13.5-62.91-1.68-.41-15.51-1.07-31.89-9.42-45S533.6,350.21,521,359.3c5.92-25.89-14.82-54.57-41.26-57.05s-52.16,21.84-51.15,48.38c-18.88-37.41-65.17-58.62-105.84-48.49s-71.59,50.6-70.7,92.49a66.94,66.94,0,0,0-96.61,60.1c-26.24-17.46-66.5-6.58-83.54,19.93H656.31C661.1,453,651.42,430.33,633.25,417.52Z" style="fill:#FF725E"></path><g style="opacity:0.8"><path d="M633.25,417.52c-18.18-12.8-44.08-13.5-62.91-1.68-.41-15.51-1.07-31.89-9.42-45S533.6,350.21,521,359.3c5.92-25.89-14.82-54.57-41.26-57.05s-52.16,21.84-51.15,48.38c-18.88-37.41-65.17-58.62-105.84-48.49s-71.59,50.6-70.7,92.49a66.94,66.94,0,0,0-96.61,60.1c-26.24-17.46-66.5-6.58-83.54,19.93H656.31C661.1,453,651.42,430.33,633.25,417.52Z" style="fill:#fff"></path></g><path d="M673.11,326.1c-3.57-.05-6,4.4-4.82,7.77s5,5.31,8.54,5.4a8.8,8.8,0,1,0,11.71,12.26l0-1.39a7.63,7.63,0,1,0,8.78-12.43A8,8,0,0,0,688,325.33a7.47,7.47,0,0,0-14.89.77Z" style="fill:#FF725E"></path><g style="opacity:0.7000000000000001"><path d="M673.11,326.1c-3.57-.05-6,4.4-4.82,7.77s5,5.31,8.54,5.4a8.8,8.8,0,1,0,11.71,12.26l0-1.39a7.63,7.63,0,1,0,8.78-12.43A8,8,0,0,0,688,325.33a7.47,7.47,0,0,0-14.89.77Z" style="fill:#fff"></path></g><path d="M649.47,75.85c6.28-5.6,3.47-17.21-4-21.13s-17-1.34-23.36,4.19a20.69,20.69,0,1,0-39.75-2.7l2.25,2.37c-9.87.44-18.24,10.37-17,20.18s11.82,17.33,21.49,15.3a18.85,18.85,0,0,0,35.75,6.73c6.67,5.74,17.78,5.28,24-1S655.3,82.43,649.47,75.85Z" style="fill:#FF725E"></path><g style="opacity:0.8"><path d="M649.47,75.85c6.28-5.6,3.47-17.21-4-21.13s-17-1.34-23.36,4.19a20.69,20.69,0,1,0-39.75-2.7l2.25,2.37c-9.87.44-18.24,10.37-17,20.18s11.82,17.33,21.49,15.3a18.85,18.85,0,0,0,35.75,6.73c6.67,5.74,17.78,5.28,24-1S655.3,82.43,649.47,75.85Z" style="fill:#fff"></path></g><path d="M65.16,240c-6.65.42-10.57,9-7.85,15.13s10,9.15,16.63,8.81a16.4,16.4,0,1,0,23.49,21.12l-.25-2.58c6.38,4.55,16.46,2.45,20.48-4.28s1.1-16.6-5.93-20.06a14.94,14.94,0,0,0-19-21.68,14.43,14.43,0,0,0-15.43-11.1A14.42,14.42,0,0,0,65.16,240Z" style="fill:#FF725E"></path><g style="opacity:0.8"><path d="M65.16,240c-6.65.42-10.57,9-7.85,15.13s10,9.15,16.63,8.81a16.4,16.4,0,1,0,23.49,21.12l-.25-2.58c6.38,4.55,16.46,2.45,20.48-4.28s1.1-16.6-5.93-20.06a14.94,14.94,0,0,0-19-21.68,14.43,14.43,0,0,0-15.43-11.1A14.42,14.42,0,0,0,65.16,240Z" style="fill:#fff"></path></g></g><g id="Plants"><path d="M105.08,426.58a9,9,0,0,1,5.09,4.89,15.77,15.77,0,0,1,1.21,7.1c-.14,4.68-2.39,9.57-4.92,13.51-4.18-3.08-5.57-8.95-6.09-12-.82-4.78.6-13.91,4.71-13.53" style="fill:#FF725E"></path><path d="M111.63,459.36a7.68,7.68,0,0,1,1.88-7.49,10.22,10.22,0,0,1,7.31-3,4.32,4.32,0,0,1,3.42,1.21,3.31,3.31,0,0,1,.33,3.32,6.79,6.79,0,0,1-2.26,2.62c-3.21,2.41-6.76,4.14-10.68,3.31" style="fill:#FF725E"></path><path d="M107.8,474a5.7,5.7,0,0,1,.06-1c.07-.68.16-1.56.26-2.62a27.06,27.06,0,0,1,2-8.44,16.52,16.52,0,0,1,5.38-6.76,11.68,11.68,0,0,1,2.32-1.27c.29-.12.53-.18.68-.23s.24-.07.25,0a16.88,16.88,0,0,0-3.11,1.74,17.11,17.11,0,0,0-5.21,6.71,28.81,28.81,0,0,0-2,8.33c-.15,1.1-.27,2-.37,2.6A5.57,5.57,0,0,1,107.8,474Z" style="fill:#263238"></path><path d="M104.61,433.63a1.58,1.58,0,0,1,.09.41c0,.31.1.7.17,1.19.14,1,.32,2.53.54,4.39.42,3.7.94,8.83,1.39,14.5s.73,10.82.88,14.55c.08,1.86.13,3.37.15,4.41,0,.5,0,.89,0,1.2a1.91,1.91,0,0,1,0,.42,1.91,1.91,0,0,1,0-.41c0-.31,0-.71-.08-1.2-.07-1.08-.15-2.58-.26-4.41-.21-3.72-.54-8.86-1-14.53s-.93-10.8-1.29-14.51c-.18-1.82-.33-3.31-.44-4.39,0-.49-.07-.89-.1-1.2A2.64,2.64,0,0,1,104.61,433.63Z" style="fill:#263238"></path><path d="M105.11,462.74a18,18,0,0,0-10.87-12.33c-1.36-.51-3.1-.78-4.09.28s-.61,2.78,0,4.09a15.36,15.36,0,0,0,14.87,8.35" style="fill:#FF725E"></path><path d="M95.23,454.76a4.65,4.65,0,0,1,.86.29c.27.11.61.23,1,.42a13.88,13.88,0,0,1,1.25.65,17,17,0,0,1,1.45.92,14.51,14.51,0,0,1,1.56,1.2,20,20,0,0,1,3,3.31,19.34,19.34,0,0,1,2.15,4,14.59,14.59,0,0,1,.62,1.87,15.64,15.64,0,0,1,.38,1.67c.11.51.13,1,.18,1.4a8.42,8.42,0,0,1,.05,1.06,4.93,4.93,0,0,1,0,.91c-.08,0,0-1.3-.45-3.33a16.35,16.35,0,0,0-.41-1.64,18.14,18.14,0,0,0-.63-1.83,20.6,20.6,0,0,0-2.15-3.87,20.31,20.31,0,0,0-3-3.28,18.83,18.83,0,0,0-1.51-1.2c-.49-.38-1-.66-1.41-.94C96.42,455.27,95.2,454.83,95.23,454.76Z" style="fill:#263238"></path><path d="M566.31,433a7.78,7.78,0,0,1,4.38,4.2,13.84,13.84,0,0,1,1,6.11c-.12,4-2.06,8.24-4.24,11.63-3.6-2.65-4.8-7.7-5.24-10.3-.71-4.11.52-12,4.06-11.64" style="fill:#FF725E"></path><path d="M571.94,461.23a6.62,6.62,0,0,1,1.62-6.45,8.75,8.75,0,0,1,6.29-2.55,3.71,3.71,0,0,1,2.95,1,2.82,2.82,0,0,1,.28,2.85,5.74,5.74,0,0,1-2,2.26c-2.76,2.07-5.81,3.56-9.19,2.85" style="fill:#FF725E"></path><path d="M568.65,473.82a4.67,4.67,0,0,1,.05-.83c.06-.58.13-1.34.22-2.25a23.51,23.51,0,0,1,1.7-7.27,14.28,14.28,0,0,1,4.64-5.82,9.44,9.44,0,0,1,2-1.08,4.08,4.08,0,0,1,.59-.2l.21-.05a13.17,13.17,0,0,0-7.16,7.27,25.12,25.12,0,0,0-1.76,7.18c-.13.94-.23,1.71-.32,2.24A4.22,4.22,0,0,1,568.65,473.82Z" style="fill:#263238"></path><path d="M565.9,439.08a1.31,1.31,0,0,1,.07.36q.06.39.15,1c.12.89.28,2.18.46,3.77.37,3.19.82,7.61,1.2,12.49s.63,9.31.76,12.52c.07,1.61.11,2.9.13,3.8,0,.43,0,.77,0,1a1.48,1.48,0,0,1,0,.36,2.19,2.19,0,0,1,0-.36c0-.27,0-.61-.07-1-.06-.94-.13-2.22-.22-3.8-.19-3.2-.47-7.63-.85-12.51s-.8-9.29-1.11-12.48c-.16-1.57-.28-2.86-.37-3.79,0-.42-.07-.76-.1-1A2.45,2.45,0,0,1,565.9,439.08Z" style="fill:#263238"></path><path d="M566.33,464.14A15.48,15.48,0,0,0,557,453.53c-1.17-.45-2.66-.68-3.52.24s-.52,2.39,0,3.52a13.22,13.22,0,0,0,12.8,7.18" style="fill:#FF725E"></path><path d="M557.83,457.27a3.79,3.79,0,0,1,.73.25,8.49,8.49,0,0,1,.85.36c.31.17.69.32,1.08.56a14.67,14.67,0,0,1,1.24.79,13.35,13.35,0,0,1,1.34,1,17.74,17.74,0,0,1,2.63,2.85,16.93,16.93,0,0,1,1.86,3.41c.2.56.4,1.09.53,1.61a13.1,13.1,0,0,1,.32,1.44,10.05,10.05,0,0,1,.15,1.2,6.39,6.39,0,0,1,.05.92,3.66,3.66,0,0,1,0,.78c-.07,0,0-1.12-.38-2.86a12.73,12.73,0,0,0-.36-1.41,14.81,14.81,0,0,0-.54-1.58,17.75,17.75,0,0,0-1.85-3.34,18.56,18.56,0,0,0-2.56-2.82,15.85,15.85,0,0,0-1.31-1,14.19,14.19,0,0,0-1.21-.81C558.85,457.71,557.8,457.33,557.83,457.27Z" style="fill:#263238"></path></g><g id="Floor"><path d="M696.83,474.46c0,.14-144.88.26-323.55.26S49.7,474.6,49.7,474.46s144.85-.27,323.58-.27S696.83,474.31,696.83,474.46Z" style="fill:#263238"></path></g><g id="character-3"><path d="M538.43,124.4c-1.41-2.89-.22-6.59,2.23-8.68a12.33,12.33,0,0,1,9.06-2.47,36.56,36.56,0,0,1,9.3,2.48,10.26,10.26,0,0,1,17.78,4.43,6.52,6.52,0,0,1,8.32,8l-14,6.07-13.69,28.69a12.57,12.57,0,0,1-19.65-15.34,10.81,10.81,0,0,1-2.4-2.56,11.06,11.06,0,0,1-5.56-6.43C528,132.62,532.31,125.57,538.43,124.4Z" style="fill:#263238"></path><path d="M552.06,181.2c.57-4.55,1-7.67,1-7.64s-8.7-2.68-9-14.55c-.14-5.89,1.44-15.32,3-23,1.38-6.91,7.16-14.83,14-13.15L582,131.29c2.08.51,2.57,2.39,2.24,4.51l0,1-5.53,33.11L578,183.73c-1,6.29-8.19,11.75-14.55,11.29h0A12.32,12.32,0,0,1,552.06,181.2Z" style="fill:#ffbe9d"></path><path d="M548.66,146.8a1.49,1.49,0,0,0,1.23,1.7,1.43,1.43,0,0,0,1.71-1.13,1.49,1.49,0,0,0-1.23-1.7A1.43,1.43,0,0,0,548.66,146.8Z" style="fill:#263238"></path><path d="M548.64,142.42c.16.22,1.4-.46,3-.24s2.67,1.18,2.87,1,0-.45-.51-.89a4.09,4.09,0,0,0-2.26-1.05,4,4,0,0,0-2.42.43C548.77,142,548.56,142.32,548.64,142.42Z" style="fill:#263238"></path><path d="M562.48,148.41a1.49,1.49,0,0,0,1.23,1.69,1.44,1.44,0,0,0,1.72-1.13,1.52,1.52,0,0,0-1.23-1.7A1.44,1.44,0,0,0,562.48,148.41Z" style="fill:#263238"></path><path d="M564,144.19c.16.22,1.4-.46,3-.24s2.67,1.18,2.87,1,0-.45-.51-.89a4.09,4.09,0,0,0-2.26-1,4,4,0,0,0-2.42.43C564.12,143.76,563.9,144.09,564,144.19Z" style="fill:#263238"></path><path d="M556.7,154.75a10.43,10.43,0,0,0-2.54-.82c-.4-.1-.77-.23-.81-.52a2.19,2.19,0,0,1,.44-1.18c.52-.94,1.06-1.92,1.64-2.95,2.28-4.21,4-7.69,3.82-7.78s-2.16,3.25-4.44,7.46l-1.59,3a2.49,2.49,0,0,0-.43,1.58,1.06,1.06,0,0,0,.59.69,3.3,3.3,0,0,0,.69.19A10.34,10.34,0,0,0,556.7,154.75Z" style="fill:#263238"></path><path d="M553,173.56a29.77,29.77,0,0,0,16.11-2s-5,7.66-16.5,5Z" style="fill:#eb996e"></path><path d="M564.56,139.84c.14.45,1.76.32,3.64.64s3.39.92,3.66.54c.12-.19-.12-.61-.72-1.07a6.3,6.3,0,0,0-2.68-1.09,6.08,6.08,0,0,0-2.88.2C564.87,139.3,564.5,139.63,564.56,139.84Z" style="fill:#263238"></path><path d="M549.22,137.74c.29.41,1.65.21,3.22.4s2.87.64,3.22.3c.16-.17,0-.56-.53-1a5.16,5.16,0,0,0-2.53-1,5,5,0,0,0-2.66.38C549.33,137.19,549.1,137.54,549.22,137.74Z" style="fill:#263238"></path><path d="M576.45,124a8,8,0,0,1-10.43,6.6c-1.73-.56-3.55-1.72-5.21-1s-2.14,3.2-3.74,4.26c-2.29,1.5-5.32-.6-8-.18-2.09.33-3.6,2.08-5.15,3.51s-3.75,2.71-5.68,1.84a23.68,23.68,0,0,1,1.52-5.24,7.91,7.91,0,0,1,3.62-4c.9-.43,1.91-.63,2.77-1.15,1.84-1.12,2.54-3.41,3.82-5.15a8.76,8.76,0,0,1,7.22-3.52c2.32.07,4.58,1.07,6.88.81,1.7-.2,3.28-1.07,5-1.17,3.33-.18,6,2.55,8.09,5.19" style="fill:#263238"></path><path d="M565.44,127.28c1.51-.23,4.61-.77,5.56-1.93a9,9,0,0,1,8.34-3.41,7.42,7.42,0,0,1,5.84,6.69,10.65,10.65,0,0,1,8.29,7.05A12.37,12.37,0,0,1,591.62,147a22.59,22.59,0,0,0-1.56,2.64,18.38,18.38,0,0,1,2.1,2.73c2.81,5.2-3.63,7.73-3.63,7.73.24,3.61-3.09,3.83-5.22,4s-2.91,5.92-4.59,5.81l.43-17.7a2.15,2.15,0,0,1-.77.2c-4,.36-3.52-7.33-2.36-9.39a23.27,23.27,0,0,1-3.36-4.64,16.35,16.35,0,0,1-.74-8.13C570.5,130.15,564.77,127.37,565.44,127.28Z" style="fill:#263238"></path><path d="M578.61,153.2A3.41,3.41,0,0,1,584,151c1.09.83,1.81,2.32,1.35,4.93-1.23,7-8,4.29-7.94,4.09S578.08,156.07,578.61,153.2Z" style="fill:#ffbe9d"></path><path d="M580,157.74s.11.1.3.23a1.21,1.21,0,0,0,.9.18,3,3,0,0,0,1.86-2.44,4.18,4.18,0,0,0,0-1.8,1.43,1.43,0,0,0-.75-1.09.64.64,0,0,0-.78.21c-.12.17-.1.32-.14.33s-.13-.15,0-.42a.72.72,0,0,1,.35-.39.92.92,0,0,1,.7-.06,1.72,1.72,0,0,1,1.07,1.3,4.1,4.1,0,0,1,.08,2c-.29,1.4-1.24,2.58-2.29,2.7a1.34,1.34,0,0,1-1.08-.38C579.94,157.91,579.93,157.75,580,157.74Z" style="fill:#eb996e"></path><path d="M541.27,146.28c0-.05-.66-.43-1.6-1.43a10.1,10.1,0,0,1-2.52-5.16,9.86,9.86,0,0,1,.1-4,8.48,8.48,0,0,1,2.15-3.95,10,10,0,0,1,9.63-2.6c.32.08.63.22.94.32s.59.28.87.42l.44.2,0-.47a3.43,3.43,0,0,1,.7-2.29,5.53,5.53,0,0,1,1.86-1.54,7.26,7.26,0,0,1,4.53-.66c3,.45,5.56,1.61,7.93,1.71a7.51,7.51,0,0,0,5.22-1.44,4.16,4.16,0,0,0,1-1.14,1.56,1.56,0,0,0,.2-.47,6.21,6.21,0,0,1-1.29,1.45,7.53,7.53,0,0,1-5.07,1.23,18.79,18.79,0,0,1-3.64-.78,34.08,34.08,0,0,0-4.24-1.06,9.2,9.2,0,0,0-2.41-.06,7.47,7.47,0,0,0-2.44.74,6,6,0,0,0-2,1.7,4,4,0,0,0-.81,2.66l.41-.27c-.3-.14-.61-.3-.93-.44s-.66-.26-1-.34A10.43,10.43,0,0,0,539,131.43a8.92,8.92,0,0,0-2.24,4.19,10.15,10.15,0,0,0,0,4.14,10,10,0,0,0,2.75,5.24,6.91,6.91,0,0,0,1.26,1A1.76,1.76,0,0,0,541.27,146.28Z" style="fill:#455a64"></path><path d="M540.93,122.19a7.69,7.69,0,0,1,2.15-.92,5.88,5.88,0,0,1,2.63,0,5.19,5.19,0,0,1,2.83,1.76l.28.36L549,123a8,8,0,0,1,6.13-5.27c2.32-.44,4.52.46,6.36,1.35a27.46,27.46,0,0,0,5.12,2.2,7.85,7.85,0,0,0,3.76.17,5.16,5.16,0,0,0,1-.34c.21-.11.32-.18.31-.2s-.46.18-1.32.33a8.14,8.14,0,0,1-3.62-.34,29.69,29.69,0,0,1-5-2.28,17.52,17.52,0,0,0-3.08-1.24,8.14,8.14,0,0,0-3.59-.2,8.41,8.41,0,0,0-6.49,5.68l.41-.08a5.47,5.47,0,0,0-3.12-1.84A6,6,0,0,0,543,121a4.8,4.8,0,0,0-1.62.76C541.07,122,540.92,122.17,540.93,122.19Z" style="fill:#455a64"></path><path d="M589.85,139.33a1.28,1.28,0,0,0,.32-.21,8.28,8.28,0,0,0,.83-.74,8.11,8.11,0,0,0,2.1-3.48,6.35,6.35,0,0,0,.16-2.84,5.82,5.82,0,0,0-1.41-2.95,4.65,4.65,0,0,0-3.25-1.54A4.33,4.33,0,0,0,585,129l.31.18,0-.07a9.67,9.67,0,0,0,.22-7.36,6.32,6.32,0,0,0-4.52-3.87,5.13,5.13,0,0,0-4,.88,4.07,4.07,0,0,0-.81.78,1.55,1.55,0,0,0-.2.33,6,6,0,0,1,1.09-1,5.18,5.18,0,0,1,3.83-.74,6.14,6.14,0,0,1,4.25,3.76A9.39,9.39,0,0,1,585,129l0,.07-.42,1.07.73-.88a4,4,0,0,1,3.27-1.32,4.3,4.3,0,0,1,3,1.41,5.56,5.56,0,0,1,1.36,2.77,6.31,6.31,0,0,1-.11,2.72,8.37,8.37,0,0,1-2,3.45C590.25,139,589.83,139.3,589.85,139.33Z" style="fill:#263238"></path><path d="M556,160.9a1.51,1.51,0,0,0,1.27,1.11,5.45,5.45,0,0,0,2.66-.09,2.74,2.74,0,0,0,1.24-2.35,7.53,7.53,0,0,0-.54-2.07,27,27,0,0,1-5.29.95Z" style="fill:#eb996e"></path><path d="M557.3,162a4.26,4.26,0,0,0,1.82,0,2.49,2.49,0,0,0,1.47-1.15,2.64,2.64,0,0,0,.18-2.25c-.12-.38-.24-.74-.36-1.09l.31.16a14.9,14.9,0,0,1-5.36.71c0-.14,2.3-.34,5.22-1.2l.24-.07.08.24c.11.34.25.7.37,1.1a3.67,3.67,0,0,1,.17,1.4,3.06,3.06,0,0,1-.44,1.25,2.8,2.8,0,0,1-1.79,1.26A2.1,2.1,0,0,1,557.3,162Z" style="fill:#263238"></path><path d="M571.5,154.29a2,2,0,0,0-.45-2.86,1.78,1.78,0,0,0-2.73,1.18,1.81,1.81,0,0,0-2.21,2.85,2.31,2.31,0,0,0-1.82,2.86,3,3,0,0,0,3,2,4.17,4.17,0,0,0,3.16-2,2.3,2.3,0,1,0,1.06-4Z" style="fill:#FF725E"></path><path d="M571.58,163.8a1.74,1.74,0,0,0-2.06-1.07l-.26.1a1.68,1.68,0,1,0,2.32,1Z" style="fill:#FF725E"></path><path d="M594.27,138.69c.27,1.73-2.65,2.54-4.31,2a3.63,3.63,0,0,1-2.38-4.12,4.41,4.41,0,0,1-4.7-7.47,4.5,4.5,0,0,1-1-8.27s4.57,1.87,3.46,8.41C585.31,129.25,592.82,129.29,594.27,138.69Z" style="fill:#FF725E"></path><path d="M485.22,42.62a9.65,9.65,0,0,0-15.63,11.19c-3.25-1.28-7.24.85-8.44,4.14A8.84,8.84,0,0,0,464,67.38,12.71,12.71,0,0,0,473.8,70a23.26,23.26,0,0,0,9.63-3.92,5.39,5.39,0,0,0,7.13.44A7.31,7.31,0,0,0,493,59.4a11.65,11.65,0,0,0-4.14-6.53A5.71,5.71,0,0,0,484,42.51" style="fill:#FF725E"></path><path d="M502.56,105.7s3-2.44,3.46-5.09-.62-18.12-.62-18.12-2.07-.28-2.9,2.77a64.24,64.24,0,0,0-1.13,7.28s-3.14-8.47-4.21-11.37c-1-2.55-2.53-6.35-4-6.22s.31,5.09.62,7.33.81,5.39.81,5.39-4-10-5.77-12.38c-1.33-1.76-3.32.19-2.22,2.46,0,0-2.07-1.79-2.29.38s3.83,11.94,3.11,12.11-4.45-7.59-5.82-7.79c-.77-.11-1.15,1-.3,3s7.44,17.16,8.83,19a5.5,5.5,0,0,0,2.6,2.14Z" style="fill:#ffbe9d"></path><path d="M499.38,99.27s-.37-.31-1-.77a9.45,9.45,0,0,0-5.62-1.78c-.77,0-1.25.09-1.25,0a1.31,1.31,0,0,1,.32-.09,5.46,5.46,0,0,1,.92-.12,8.42,8.42,0,0,1,5.73,1.82,6.62,6.62,0,0,1,.68.62A1.5,1.5,0,0,1,499.38,99.27Z" style="fill:#eb996e"></path><path d="M501.09,94.42c.06,0-.61.94-1.09,2.22s-.61,2.4-.68,2.39a5.52,5.52,0,0,1,.46-2.47A5.64,5.64,0,0,1,501.09,94.42Z" style="fill:#eb996e"></path><path d="M486.45,76.85c.06,0,1.24,2.65,2.63,6s2.48,6,2.43,6.07-1.24-2.65-2.64-6S486.39,76.88,486.45,76.85Z" style="fill:#eb996e"></path><path d="M515,139.83c-5.37-13.53-9.78-27.44-10.79-37.53l-13.37,1.08c.23,3.9,1.63,36.39,9.19,49.23s32.83,42.88,32.83,42.88l8.88-22.86S520.32,153.37,515,139.83Z" style="fill:#ffbe9d"></path><path d="M520.8,181a2.24,2.24,0,0,0,.4-3.47,2.86,2.86,0,0,0,.83-5.64,5.6,5.6,0,0,0,2.94-3.92,4.24,4.24,0,0,0-2-4.32,3.45,3.45,0,0,0-4.46,1.13,5.13,5.13,0,0,0-9.23,1.36Z" style="fill:#FF725E"></path><path d="M506,94.42c.08-3-.64-11.93-.64-11.93s-2.07-.28-2.9,2.77a64.24,64.24,0,0,0-1.13,7.28s-3.14-8.47-4.21-11.37c-1-2.55-2.53-6.35-4-6.22s.31,5.09.62,7.33.81,5.39.81,5.39-4-10-5.77-12.38c-1.33-1.76-3.32.19-2.22,2.46,0,0-2.07-1.79-2.29.38s3.83,11.94,3.11,12.11-4.45-7.59-5.82-7.79c-.77-.11-1.15,1-.3,3s2.92,8,4.32,9.8a5.34,5.34,0,0,0,5.85,2.64c4.2-.75,3.18-5,3.18-5s1.55,3,3.37,2.11,1.31-2.25,1.31-2.25,1.28,5.93,4.59,4.5A4,4,0,0,0,506,94.42Z" style="fill:#FF725E"></path><path d="M494.28,99.8a1,1,0,1,1-.27,0" style="fill:#FF725E"></path><path d="M598.13,270.32a10.91,10.91,0,0,0-2.51-3.74c-6.72-7.16-16.91-10.58-26.71-10s-19.18,4.83-26.82,11c-4.07,3.29-5,9.21-6.41,14.24,6,1.44,10.32-.13,15.94-2.58s11.19-5.42,17.3-6.05c7.08-.72,14,1.8,21,3.21a13.28,13.28,0,0,0,4.25.34,5.07,5.07,0,0,0,3.63-2A5,5,0,0,0,598.13,270.32Z" style="fill:#455a64"></path><g style="opacity:0.30000000000000004"><path d="M598.13,270.32a10.91,10.91,0,0,0-2.51-3.74c-6.72-7.16-16.91-10.58-26.71-10s-19.18,4.83-26.82,11c-4.07,3.29-5,9.21-6.41,14.24,6,1.44,10.32-.13,15.94-2.58s11.19-5.42,17.3-6.05c7.08-.72,14,1.8,21,3.21a13.28,13.28,0,0,0,4.25.34,5.07,5.07,0,0,0,3.63-2A5,5,0,0,0,598.13,270.32Z"></path></g><path d="M593.25,347.19l17-11s16.94,13.61,20.28,11.88l-20.21-33.8-27.25,16.11Z" style="fill:#455a64"></path><path d="M602.57,326.58a1.62,1.62,0,0,1,1-1.9,1.55,1.55,0,0,1,1.89,1,1.69,1.69,0,0,1-1.08,2,1.6,1.6,0,0,1-1.85-1.23" style="fill:#e0e0e0"></path><g style="opacity:0.6000000000000001"><path d="M610.36,314.23,607.68,316l20.38,31.76s1.55,1.11,2.51.31Z" style="fill:#fff"></path></g><path d="M610.44,336.8c.17-.1-.25-1-.21-2.1s.48-2,.33-2.09-1,.7-1,2.07S610.31,336.93,610.44,336.8Z" style="fill:#263238"></path><path d="M614,339.47c.18-.06,0-.94.4-1.92s1-1.58.9-1.74-1.1.29-1.53,1.52S613.87,339.56,614,339.47Z" style="fill:#263238"></path><path d="M619.48,339c-.06-.17-1,.09-1.67,1.05s-.55,1.95-.37,1.94.38-.78.92-1.56S619.56,339.12,619.48,339Z" style="fill:#263238"></path><path d="M606.28,338.89c.11-.16-.57-.78-1.06-1.75s-.64-1.88-.83-1.88-.36,1.05.23,2.19S606.2,339.05,606.28,338.89Z" style="fill:#263238"></path><polygon points="595.95 322.75 603.7 340.42 601.1 342.25 592.17 325.03 595.95 322.75" style="opacity:0.30000000000000004"></polygon><path d="M585.81,253.43c-.7,0-23.61-.5-36,7.66L540,266.61l.27,9.92s-2.11,3.5-1.64,5.6-.07,11-.07,11-3.66.23-4.13,6.53c0,0-5.09,2.1-7.33,5.84S502,351.21,500.63,358s-2.33,18.67,2.8,22.64S520,383.17,520,383.17s1.64,4.91,11.67,5.14,25.44-11.44,25.44-11.44l46.2-31.5L592.38,322l-16.14,9.88,17.27-20.07s7.93-13.54,5.6-27.77C597.38,273.43,585.81,253.43,585.81,253.43Z" style="fill:#263238"></path><path d="M589.76,260.7l-.54,0h-1.56c-1.35,0-3.3,0-5.71,0s-5.28.11-8.45.45a46.77,46.77,0,0,0-10.09,2.11c-7,2.35-12.59,6.09-16.58,8.76l-4.7,3.26-1.28.88a2.2,2.2,0,0,1-.46.28,2.87,2.87,0,0,1,.41-.36l1.23-.95c1.07-.81,2.64-2,4.61-3.38,4-2.74,9.57-6.55,16.62-8.93a45.54,45.54,0,0,1,10.2-2.1,83.22,83.22,0,0,1,8.49-.35c2.41,0,4.37.09,5.72.16l1.55.09A2.07,2.07,0,0,1,589.76,260.7Z" style="fill:#455a64"></path><path d="M542.62,268a2.62,2.62,0,0,0-.73,1.34,1.6,1.6,0,0,0,.49,1.44,1.65,1.65,0,0,0,2.82-1.12,1.62,1.62,0,0,0-.64-1.39,2.83,2.83,0,0,0-1.45-.47s.13-.11.43-.13a1.86,1.86,0,0,1,1.21.34,1.89,1.89,0,0,1,.88,1.67,2.06,2.06,0,0,1-3.55,1.41,1.92,1.92,0,0,1-.51-1.81,1.9,1.9,0,0,1,.64-1.08C542.44,268,542.61,267.94,542.62,268Z" style="fill:#455a64"></path><path d="M550.84,269.18s-.37-.2-.82-.67a4.18,4.18,0,0,1-1.11-4.78c.2-.62.39-1,.44-1s0,.41-.12,1a5.93,5.93,0,0,0-.09,2.38,6.05,6.05,0,0,0,1.13,2.11C550.65,268.81,550.89,269.13,550.84,269.18Z" style="fill:#455a64"></path><path d="M552.78,268c0,.05-.36-.15-.78-.59a5.24,5.24,0,0,1-1.16-2.06,5.34,5.34,0,0,1-.05-3.29c.16,0,0,1.48.49,3.16A13.48,13.48,0,0,0,552.78,268Z" style="fill:#455a64"></path><path d="M577.51,260.7c-.07,0-.09-.42-.16-1.07a8.5,8.5,0,0,0-.56-2.46,7.21,7.21,0,0,0-1.39-2.09c-.45-.48-.74-.78-.7-.83s.41.16.93.6a5.63,5.63,0,0,1,1.59,2.14,6.55,6.55,0,0,1,.46,2.62C577.66,260.29,577.57,260.7,577.51,260.7Z" style="fill:#455a64"></path><path d="M580.51,260.64c-.07,0-.08-.42-.07-1.07a8.85,8.85,0,0,0-.2-2.46,10.58,10.58,0,0,0-1.17-2.2c-.34-.56-.53-.92-.48-1s.34.26.75.77a7.2,7.2,0,0,1,1.34,2.25,6.41,6.41,0,0,1,.09,2.62C580.68,260.25,580.57,260.64,580.51,260.64Z" style="fill:#455a64"></path><path d="M541,362.13c-.09-.1,7.82-7.09,17.65-15.61s17.87-15.34,18-15.25-7.82,7.09-17.65,15.61S541.09,362.22,541,362.13Z" style="fill:#455a64"></path><path d="M543.23,274.38a9.09,9.09,0,0,1-.46,1.09,12.29,12.29,0,0,0-.88,3.07,14.43,14.43,0,0,0,.17,4.71c.27,1.78,1,3.61,1.51,5.67a9.3,9.3,0,0,1,.26,3.09,17.6,17.6,0,0,1-.46,2.83,44.66,44.66,0,0,1-1.38,4.62c-.45,1.29-.86,2.32-1.14,3a6.33,6.33,0,0,1-.49,1.09,5.29,5.29,0,0,1,.32-1.15c.26-.82.6-1.85,1-3.08s.9-2.85,1.28-4.61a12,12,0,0,0,.16-5.71c-.49-2-1.23-3.88-1.49-5.7a14.4,14.4,0,0,1-.07-4.84,11.29,11.29,0,0,1,1-3.1,8.46,8.46,0,0,1,.44-.76C543.15,274.46,543.22,274.37,543.23,274.38Z" style="fill:#455a64"></path><path d="M544.32,301.25a11.26,11.26,0,0,0,2.25-3.8,14.48,14.48,0,0,0,.7-4.74,32.94,32.94,0,0,0-.74-5.87,54.64,54.64,0,0,1-1-5.91,23.71,23.71,0,0,1,.09-4.91,13,13,0,0,1,.79-3.21,6.1,6.1,0,0,1,.38-.82c.1-.18.16-.27.17-.26s-.15.4-.38,1.14a14.94,14.94,0,0,0-.63,3.19,25,25,0,0,0,0,4.83c.17,1.81.62,3.78,1,5.86a30.75,30.75,0,0,1,.71,6,13.88,13.88,0,0,1-.82,4.85,9.25,9.25,0,0,1-1.66,2.87,7.12,7.12,0,0,1-.64.63C544.42,301.19,544.33,301.26,544.32,301.25Z" style="fill:#455a64"></path><path d="M598.58,281.53a4.35,4.35,0,0,1-.86-.3c-.55-.21-1.37-.51-2.41-.86a45.61,45.61,0,0,0-8.93-2l.23-.2c.1,3.84.08,8.41-.27,13.28a108.38,108.38,0,0,1-1.88,14.12v-.1a68.68,68.68,0,0,0,3,7.93c.42.93.81,1.63,1.07,2.11a4.6,4.6,0,0,1,.41.72,4.12,4.12,0,0,1-.51-.66,21.17,21.17,0,0,1-1.17-2.07,60.38,60.38,0,0,1-3.14-7.91v-.1a120.58,120.58,0,0,0,1.8-14.08c.34-4.84.39-9.4.33-13.23V278l.23,0a41.63,41.63,0,0,1,9,2.13c1,.38,1.85.73,2.39,1A6.07,6.07,0,0,1,598.58,281.53Z" style="fill:#455a64"></path><path d="M599.31,285.4a9.79,9.79,0,0,1-1.88-.51c-1.15-.34-2.74-.78-4.52-1.2-3.56-.84-6.49-1.37-6.46-1.51a7.94,7.94,0,0,1,1.94.17c1.19.17,2.83.46,4.63.89A23.05,23.05,0,0,1,599.31,285.4Z" style="fill:#455a64"></path><path d="M543.87,301.54a1.21,1.21,0,0,1-.08.22c-.08.17-.16.38-.27.63-.25.54-.61,1.34-1.1,2.36-1,2.05-2.45,5-4.34,8.55s-4.21,7.81-6.76,12.51-5.32,9.9-8,15.46a102.91,102.91,0,0,0-6.57,16.06,41.07,41.07,0,0,0-1.43,7.41,32.43,32.43,0,0,0,0,6.56,25,25,0,0,0,2.74,9.07,13.83,13.83,0,0,0,.76,1.29,10.64,10.64,0,0,0,.6.92l.39.55c.08.13.12.2.11.21a15.79,15.79,0,0,1-2-2.87,24.08,24.08,0,0,1-2.93-9.12,31.64,31.64,0,0,1-.12-6.65,40.12,40.12,0,0,1,1.4-7.5,100.39,100.39,0,0,1,6.56-16.15c2.66-5.58,5.45-10.77,8-15.47s4.9-8.89,6.85-12.45,3.46-6.45,4.48-8.47l1.19-2.32.32-.6A1.23,1.23,0,0,1,543.87,301.54Z" style="fill:#455a64"></path><path d="M569.56,293.13c0,.1-1.34-.11-3.49-.09a27.17,27.17,0,0,0-15.68,5.1c-1.75,1.25-2.7,2.2-2.77,2.13a3.57,3.57,0,0,1,.62-.72,19.38,19.38,0,0,1,1.93-1.71,24.77,24.77,0,0,1,15.91-5.17,16.87,16.87,0,0,1,2.56.25A3.38,3.38,0,0,1,569.56,293.13Z" style="fill:#455a64"></path><path d="M542.42,369a8.94,8.94,0,0,1,0-8.54,29.63,29.63,0,0,0-.58,4.27A30.64,30.64,0,0,0,542.42,369Z" style="fill:#455a64"></path><path d="M569.43,271.54c-.16,0-.16-1.5-.57-3.27s-1-3.13-.88-3.2a6.12,6.12,0,0,1,1.39,3.08A6.26,6.26,0,0,1,569.43,271.54Z" style="fill:#455a64"></path><path d="M573.55,270.24c-.16,0-.23-1.57-.76-3.4s-1.26-3.21-1.13-3.29a6.49,6.49,0,0,1,1.63,3.15A6.6,6.6,0,0,1,573.55,270.24Z" style="fill:#455a64"></path><path d="M516.84,359.74a5.55,5.55,0,0,0,.25.72c1.14,2.59,4.29,4,7.18,3.87a10.2,10.2,0,0,0,8.47-15,4.86,4.86,0,0,0,3.39-1.3c1.3-.93,2.7-2,3-3.6a4.12,4.12,0,0,0-1.69-3.74,12.32,12.32,0,0,0-3.87-1.84,5.1,5.1,0,0,0-4.8-8.88s-11.28,20.48-11.89,27.83Z" style="fill:#e0e0e0"></path><path d="M590,184.35s12-.36,19.22-2.49,34.87-8.72,34.87-8.72l40.77-6.83.87,11.47S648.08,189.26,640.08,192s-44.6,15.28-51.49,13.7l-4.29-8.82Z" style="fill:#ffbe9d"></path><path d="M705.65,152.49c-.72-.16-4.32,1.47-4.32,1.47a2.39,2.39,0,0,0,.08-3l-4.94,2.42a50.73,50.73,0,0,1-4.11,3.74,55.67,55.67,0,0,0-6.29,6.79l-3,2.74L685,177.55a9.19,9.19,0,0,0,3.86-.51c1.52-.71,3.75-3.55,3.75-3.55l4.21-.36a2.42,2.42,0,0,0,1.34-.52,3.49,3.49,0,0,0,1-2.87c2.64-1.53,1.12-3.45,1.12-3.45a3.33,3.33,0,0,0,2.16-1.2,2,2,0,0,0-.13-2.35c-.51-.92-4.36-.61-4.36-.61l-.21-1.12s5.9-4.68,7.21-5.7S706.33,152.64,705.65,152.49Z" style="fill:#ffbe9d"></path><path d="M701.41,153.85a6.59,6.59,0,0,1-1.82,2.17,21.88,21.88,0,0,0-2.15,2.1,8.93,8.93,0,0,0-1.58,3.26,17.39,17.39,0,0,1-1.33,3.52,12.2,12.2,0,0,1-1.79,2.52,11,11,0,0,1-1.55,1.38,2.12,2.12,0,0,1-.65.39c0-.07.84-.68,2-2a13.71,13.71,0,0,0,1.65-2.5,19.09,19.09,0,0,0,1.27-3.46,8.72,8.72,0,0,1,1.69-3.39,17.85,17.85,0,0,1,2.27-2.08A25.78,25.78,0,0,0,701.41,153.85Z" style="fill:#eb996e"></path><path d="M699.24,169.69a6.77,6.77,0,0,1-2,.93,9.94,9.94,0,0,1-2.33.48,8.47,8.47,0,0,1-1.42,0,3,3,0,0,1-1.51-.52,1.71,1.71,0,0,1-.75-1.46,2.12,2.12,0,0,1,.79-1.3,2.67,2.67,0,0,1,1.16-.66l1.07-.25a6.35,6.35,0,0,1,2.16-.25c0,.05-.79.21-2.08.57l-1,.3a2.31,2.31,0,0,0-1,.6,1.88,1.88,0,0,0-.63,1,1.32,1.32,0,0,0,.58,1.07,4.5,4.5,0,0,0,2.62.48,10.76,10.76,0,0,0,2.27-.37C698.44,170,699.21,169.62,699.24,169.69Z" style="fill:#eb996e"></path><path d="M700.38,166.27a3.69,3.69,0,0,1-1.52.46,9.84,9.84,0,0,1-1.73.12,2.6,2.6,0,0,1-2-.79,2,2,0,0,1-.09-2.21,2.87,2.87,0,0,1,1.31-1.21,3.16,3.16,0,0,1,1.54-.44c0,.07-.57.25-1.38.72a2.87,2.87,0,0,0-1.09,1.12,1.68,1.68,0,0,0,.07,1.73,2.28,2.28,0,0,0,1.71.65,11.31,11.31,0,0,0,1.67,0A10.48,10.48,0,0,1,700.38,166.27Z" style="fill:#eb996e"></path><path d="M697.49,173a4.3,4.3,0,0,1-1.24.38,10.72,10.72,0,0,1-3.13.38,1.2,1.2,0,0,1-1-.41,1.37,1.37,0,0,1-.28-.92,1.74,1.74,0,0,1,.75-1.32c.78-.48,1.36-.19,1.32-.15a2.55,2.55,0,0,0-1.12.41,1.47,1.47,0,0,0-.52,1.07,1,1,0,0,0,.2.62.78.78,0,0,0,.63.24,15.39,15.39,0,0,0,3-.24A3.39,3.39,0,0,1,697.49,173Z" style="fill:#eb996e"></path><path d="M628.07,177c1,3.78,5.41,6.6,9.31,6.83a9.6,9.6,0,0,0,9.24-5.91,8.88,8.88,0,0,0,12,1c1.38-1.15,2.43-2.77,4.08-3.46s3.53-.31,5.22-.84a5,5,0,0,0,3.37-6.17l-27.45,4.58Z" style="fill:#ebebeb"></path><path d="M681.27,179.37a4.49,4.49,0,0,0-9,.35,5,5,0,0,0-6.25,4.2Z" style="fill:#FF725E"></path><path d="M577.81,180.45h0l7.83.19,24.41-.07s-5.19,20,1.11,25.31h0l-21.4,4.69-3.78,16s-1.68,8.7.4,14.37c4.31,11.73,13.27,29.68,12,31.76-.13.22-.85-6.3-12.85-9.69-3.62-1-10.21-1-16.17.16-25.63,5.17-30.95,16.57-33.88,18.6,0,0,3.5-35.82,1-42.28s-7.92-15.85-5.86-21.61S535.79,203,535.79,203l-10.1-11.45L539.8,168l12.69,9.76,0,4.83c.8,4.44,9.4,4.89,16.19,3.78A13.46,13.46,0,0,0,577.81,180.45Z" style="fill:#455a64"></path><path d="M560,229.78a4.38,4.38,0,0,1-1,0,14.58,14.58,0,0,1-2.63-.34,16.28,16.28,0,0,1-7.7-4,15.29,15.29,0,0,1-4.35-7.53,13.17,13.17,0,0,1-.36-2.63,3.4,3.4,0,0,1,.05-1,31.49,31.49,0,0,0,.63,3.52,15.83,15.83,0,0,0,4.35,7.27,17.12,17.12,0,0,0,7.45,4.06C558.64,229.7,560,229.69,560,229.78Z" style="fill:#263238"></path><path d="M533.5,194.76a9.59,9.59,0,0,1,2,4.87,9.36,9.36,0,0,1-.47,5.23,23.53,23.53,0,0,0,0-5.16A26.08,26.08,0,0,0,533.5,194.76Z" style="fill:#263238"></path><path d="M555.83,229.16a13,13,0,0,1-7.07-4,14.57,14.57,0,0,1-3.06-4.24c-.65,2.8,3.25,7.78,7.06,9.6a13.69,13.69,0,0,0,12.25-.33A45.62,45.62,0,0,1,555.83,229.16Z" style="opacity:0.30000000000000004"></path><path d="M585.82,206.79A4.14,4.14,0,0,1,585,206a15.92,15.92,0,0,1-1.86-2.5,16.77,16.77,0,0,1,1.39-19.33,15.12,15.12,0,0,1,2.2-2.21,3.84,3.84,0,0,1,.94-.64,32.9,32.9,0,0,0-2.85,3.08,17.12,17.12,0,0,0-1.36,18.92A32.93,32.93,0,0,0,585.82,206.79Z" style="fill:#263238"></path><path d="M551.25,178.09c0,.06-.94.9-2.46,2.35a63.4,63.4,0,0,0-5.55,6,62.29,62.29,0,0,0-4.71,6.68c-1.09,1.78-1.71,2.93-1.78,2.89a3.35,3.35,0,0,1,.33-.86c.24-.53.62-1.3,1.13-2.22a48.13,48.13,0,0,1,4.62-6.82,48.89,48.89,0,0,1,5.71-5.94c.8-.69,1.46-1.22,1.94-1.57A3,3,0,0,1,551.25,178.09Z" style="fill:#263238"></path><path d="M588.52,247.56a9,9,0,0,1-16-3.36,20.64,20.64,0,0,1-6.88,0,7,7,0,0,1-5.19-4.1c-1-2.78.64-5.94,3-7.66s5.38-2.32,8.27-2.89a7.59,7.59,0,1,1,14-5.76l.51,1.9s-1.41,8.3-.61,11.94a61.68,61.68,0,0,0,3.13,9.28Z" style="fill:#FF725E"></path><g style="opacity:0.5"><path d="M535.65,200.1a8.32,8.32,0,1,1,3.61,14.07,6.33,6.33,0,0,1-.68,8.5,6.1,6.1,0,0,1-4.4,1.4,4.27,4.27,0,0,1-3.85-5c0-.07,0-.14,0-.19.15-.61,5.42-15.95,5.42-15.95Z" style="fill:#fff"></path></g><g style="opacity:0.5"><path d="M563.73,204.81a3.64,3.64,0,0,0-2.07,4.73,3.75,3.75,0,0,0,4.9,1.76,3.86,3.86,0,0,0,1.69-5,3.36,3.36,0,0,0-4.52-1.53" style="fill:#fff"></path></g></g><g id="character-2"><path d="M329.49,112.84s2.48-3.29,2.24-6.14-5.33-18.52-5.33-18.52-2.2.25-2.27,3.61a68.32,68.32,0,0,0,.73,7.79L317.57,89c-1.64-2.38-4.25-5.89-5.68-5.39s1.64,5.17,2.53,7.4,2.24,5.34,2.24,5.34S310,87.05,307.5,85c-1.82-1.47-3.36,1-1.65,3.11,0,0-2.6-1.31-2.26,1s7,11.31,6.35,11.67-6.57-6.67-8-6.52c-.83.09-.93,1.33.47,3.19s12.11,15.76,14,17.3a5.85,5.85,0,0,0,3.24,1.54Z" style="fill:#9a5d53"></path><path d="M324.54,107s-.46-.23-1.22-.54a9.84,9.84,0,0,0-6.25-.38c-.79.21-1.26.42-1.28.38a1.23,1.23,0,0,1,.32-.19A7.45,7.45,0,0,1,317,106a9.08,9.08,0,0,1,3.22-.39,8.76,8.76,0,0,1,3.15.79,5,5,0,0,1,.87.47C324.45,107,324.55,107,324.54,107Z" style="fill:#7a4039"></path><path d="M325.05,101.59c.07,0-.38,1.13-.55,2.58s0,2.62-.08,2.63a5.85,5.85,0,0,1-.16-2.66A6.1,6.1,0,0,1,325.05,101.59Z" style="fill:#7a4039"></path><path d="M305.41,87.27c.06,0,2,2.42,4.26,5.48s4.13,5.58,4.07,5.62-2-2.41-4.26-5.48S305.36,87.31,305.41,87.27Z" style="fill:#7a4039"></path><path d="M351.1,144.82c-9-12.56-17.19-25.76-20.85-35.9l-13.49,4.58c1.24,4,11.09,37.09,22.22,48.36s44.93,35.7,44.93,35.7l5.35-33S360.14,157.37,351.1,144.82Z" style="fill:#9a5d53"></path><path d="M318.45,92.37c-3.22-8.08-5.63-21.21-4.37-29.81.62-4.23,1.85-8.5,4.54-11.82s7.07-5.51,11.26-4.67,7.58,5.33,6.42,9.44a14,14,0,0,1,24.35,9.93,14.33,14.33,0,0,1-9.87,12.71c2.89,3.09,1.5,8.65-2.06,10.93s-8.36,1.77-12.1-.18-6.68-5.15-9.53-8.28c-1.22-1.35-2.93-2.83-4.64-2.2A4.32,4.32,0,0,0,320.29,81c-1.5,3.63,0,7.42.21,11.33" style="fill:#FF725E"></path><path d="M290.35,62.45a9.65,9.65,0,0,0-15.63,11.18c-3.25-1.28-7.25.86-8.44,4.14a8.86,8.86,0,0,0,2.81,9.44,12.7,12.7,0,0,0,9.84,2.59,23.22,23.22,0,0,0,9.62-3.92,5.39,5.39,0,0,0,7.13.44,7.33,7.33,0,0,0,2.4-7.1,11.63,11.63,0,0,0-4.14-6.52,5.72,5.72,0,0,0-4.83-10.36" style="fill:#FF725E"></path><path d="M324.84,99.4s-5.4-7.83-7.26-10.51c-1.62-2.35-4.22-5.83-5.64-5.33s1.64,5.12,2.53,7.33,2.23,5.29,2.23,5.29S310.08,87,307.6,85c-1.81-1.45-3.33,1-1.63,3.09,0,0-2.58-1.29-2.24,1s7,11.19,6.32,11.55-6.52-6.6-8-6.44c-.82.09-.92,1.32.47,3.16s5.05,7.36,6.95,8.89c0,0,2.6.25,3.05-1.72s.6-3,.6-3a3.92,3.92,0,0,0,3.37,0,2.9,2.9,0,0,0,1.82-2.12s1.15,3.59,3.93,2.85S324.84,99.4,324.84,99.4Z" style="fill:#FF725E"></path><path d="M326.81,441.85l-.72,21.36s-21.95,6.45-22.47,10.38L345,476.47l2.48-33.23Z" style="fill:#455a64"></path><path d="M339,462.31a1.7,1.7,0,0,1,1,2,1.62,1.62,0,0,1-2,1,1.79,1.79,0,0,1-1.09-2.13,1.7,1.7,0,0,1,2.18-.86" style="fill:#e0e0e0"></path><path d="M345,477.34l.25-3.22-39.8-2.51s-1.9.67-1.78,2Z" style="fill:#263238"></path><path d="M325.43,463c0,.2,1,.36,1.95,1.08s1.42,1.61,1.61,1.54,0-1.26-1.19-2.11S325.4,462.77,325.43,463Z" style="fill:#263238"></path><path d="M321,464.45c-.06.19.79.6,1.42,1.5s.76,1.82,1,1.82.41-1.12-.39-2.23S321,464.26,321,464.45Z" style="fill:#263238"></path><path d="M318.14,469.47c.18.06.54-.93.09-2.07s-1.35-1.65-1.45-1.49.45.79.8,1.74S317.94,469.44,318.14,469.47Z" style="fill:#263238"></path><path d="M326.14,458.11c.07.19,1,0,2.15.13s2,.58,2.12.41-.69-.94-2-1.11S326.05,457.94,326.14,458.11Z" style="fill:#263238"></path><path d="M424.75,441.2l3.52,21.23s-21.1,8.84-21.17,12.81l41.43-1.74-3.37-33.21Z" style="fill:#455a64"></path><path d="M441,460.09a1.7,1.7,0,0,1,1.25,1.88,1.64,1.64,0,0,1-1.86,1.26,1.79,1.79,0,0,1-1.31-2,1.69,1.69,0,0,1,2.07-1.09" style="fill:#e0e0e0"></path><path d="M448.59,474.37l-.11-3.23-39.84,1.93s-1.81.88-1.54,2.17Z" style="fill:#263238"></path><path d="M427.59,462.24c0,.21,1,.26,2.05.86s1.59,1.44,1.77,1.35-.16-1.24-1.41-2S427.54,462.06,427.59,462.24Z" style="fill:#263238"></path><path d="M423.32,464.22c0,.2.85.51,1.58,1.34s1,1.72,1.16,1.7.28-1.16-.64-2.18S423.32,464,423.32,464.22Z" style="fill:#263238"></path><path d="M421.07,469.53c.19,0,.43-1-.14-2.07s-1.53-1.49-1.61-1.32.53.74,1,1.64S420.87,469.52,421.07,469.53Z" style="fill:#263238"></path><path d="M427.75,457.35c.09.18,1-.14,2.16-.11s2,.35,2.15.17-.79-.86-2.14-.88S427.64,457.19,427.75,457.35Z" style="fill:#263238"></path><path d="M345.69,286.26c0,.81-13.92,55-18.62,73.3a52.47,52.47,0,0,0-1.64,12.09l-1.62,83.87,26,2s7.35-43.33,8.65-54.78,2.26-31.15,2.26-31.15l23.06-64.28L390.53,263l-37.32-.39Z" style="fill:#263238"></path><path d="M439,373.77c-3.14-15.24-11.78-74.1-11.78-74.1l-8.09-34.32-.71-1.84-35.81-.93v49.11s10.78,49.56,15,59.22c6.34,14.35,24.78,86.28,24.63,85.71h25.8S443.2,394.28,439,373.77Z" style="fill:#263238"></path><path d="M406,396.57c3.38-1.06,5.46-4,6.18-7.51a10.21,10.21,0,0,0-3.23-9.59c3.17,1.17,6.95-1,8.1-4.19s-.06-6.89-2.42-9.31a15.48,15.48,0,0,0-9.06-4.14,10.17,10.17,0,0,0,.06-13.67c-3.5-3.63-10.76-3.11-14.48.3l4.94,19.27a14.63,14.63,0,0,0,.75,2.2l3.46,8.1Z" style="fill:#455a64"></path><path d="M419.63,328.43a6.54,6.54,0,0,0-7.11.19c-2.66-1.14-4.61,2.23-4,4.16a3.55,3.55,0,0,0,4.33,2.08,3.3,3.3,0,0,0-1.43,3.18,4.15,4.15,0,0,0,2.83,3.13,5.9,5.9,0,0,0,4.32-.41,7.41,7.41,0,0,0,4.17-5.89A7,7,0,0,0,419.63,328.43Z" style="fill:#455a64"></path><path d="M376.58,287.85a5.83,5.83,0,0,1,.28,1.21l.63,3.32c.53,2.81,1.33,6.66,2.38,10.88s2.16,8,3,10.73l1,3.22a5.85,5.85,0,0,1,.32,1.21,6.73,6.73,0,0,1-.51-1.14c-.3-.74-.7-1.83-1.16-3.18-.94-2.7-2.11-6.48-3.17-10.71s-1.79-8.12-2.23-10.94c-.22-1.41-.38-2.56-.47-3.36A5.76,5.76,0,0,1,376.58,287.85Z" style="fill:#455a64"></path><path d="M423.37,299a3.05,3.05,0,0,1-.86.13,16.93,16.93,0,0,1-2.36,0,23.86,23.86,0,0,1-14.31-5.63,16.37,16.37,0,0,1-1.7-1.63c-.37-.42-.57-.66-.54-.69s.92.83,2.47,2a26.73,26.73,0,0,0,14.1,5.54C422.13,298.93,423.36,298.86,423.37,299Z" style="fill:#455a64"></path><path d="M356.87,284.53a3.2,3.2,0,0,1-.39.83c-.28.52-.71,1.25-1.28,2.14a52.49,52.49,0,0,1-5,6.53,54,54,0,0,1-5.89,5.72c-.81.67-1.48,1.18-2,1.52a3.2,3.2,0,0,1-.78.49,30.25,30.25,0,0,1,2.5-2.29,71.59,71.59,0,0,0,10.79-12.18A31.19,31.19,0,0,1,356.87,284.53Z" style="fill:#455a64"></path><polygon points="367.74 155.33 358.66 183.12 379.55 195.66 394.11 165.3 394.11 164.2 367.74 155.33" style="fill:#455a64"></polygon><path d="M386.84,165.22c-2,1.06-13,31.39-13,31.39l-28.94,82.21,24.62.5a45.16,45.16,0,0,1,13.68,2.39l5.79,2a34.87,34.87,0,0,0,24.72-.79c4.91-2.71,8.64-2.75,11.44-.65l18.44-81.74,7.33-16.16L446.24,175l-17.54-8.21-17.32-1.57S391.15,162.9,386.84,165.22Z" style="fill:#455a64"></path><g style="opacity:0.30000000000000004"><path d="M437.17,222.24c-.9-1.46-2.92-1.62-4.62-1.49-8.12.6-15.75,4.09-22.75,8.24-3.54,2.11-7.26,4.48-11.38,4.34s-7.87-2.92-11.29-5.44-7.38-5-11.59-4.45c-3,.39-5.52,2.26-7.93,4.07-2.05,1.54-4.26,2.94-6.31,4.48l-1.82,5.34a20.34,20.34,0,0,0,16-1.88c2.88,4.07,5.79,8.18,9.51,11.5s8.39,5.83,13.37,6.07A22.15,22.15,0,0,0,410,250a66.25,66.25,0,0,0,9.79-7.06c5.77-4.72,11.59-9.49,16.15-15.39C437.07,226,438.19,223.88,437.17,222.24Z"></path></g><path d="M366.36,186.16c-2.18-2.35-4.69-4.58-7.79-5.39-5.32-1.41-10.89,1.77-14.46,6s-5.8,9.34-9,13.82L378.52,207A55.57,55.57,0,0,0,366.36,186.16Z" style="fill:#FF725E"></path><g style="opacity:0.30000000000000004"><path d="M354.88,200.24a21.81,21.81,0,0,0-2.26-.84,5.23,5.23,0,0,1-2.95-5.81,12.05,12.05,0,0,1,1.22-2.78,6.7,6.7,0,0,0,.93-2.86,2.7,2.7,0,0,0-1.33-2.54,2.13,2.13,0,0,0-2.7.72,60.11,60.11,0,0,0-8.71,10.27,1.86,1.86,0,0,0,.86,3.29,46.4,46.4,0,0,0,12.85,3.75,4.91,4.91,0,0,0,1.91,0,1.79,1.79,0,0,0,1.34-1.26A2,2,0,0,0,354.88,200.24Z"></path></g><path d="M358.24,235.86c-46.12-4-24.64-34.2-24.64-34.2l1.07-5.23s14.22,5.89,24.42,6.1A96.82,96.82,0,0,0,379,200.65l.35,3.91s5.93,5.13,3.68,14.29S371.74,237,358.24,235.86Z" style="fill:#263238"></path><path d="M334.86,201.37c-.14,0-.09-.79.12-1.69s.47-1.61.61-1.58.1.79-.11,1.69S335,201.4,334.86,201.37Z" style="fill:#455a64"></path><path d="M339.37,230.12a4.48,4.48,0,0,1-1.16-.39,13.8,13.8,0,0,1-2.87-1.7,14.7,14.7,0,0,1-5.57-9.28,20.17,20.17,0,0,1,1.41-10.81,28.15,28.15,0,0,1,1.44-3,5.41,5.41,0,0,1,.66-1c.09,0-.78,1.55-1.76,4.15a21,21,0,0,0-1.24,10.59,14.74,14.74,0,0,0,2.09,5.48,15.12,15.12,0,0,0,3.2,3.6A23,23,0,0,0,339.37,230.12Z" style="fill:#455a64"></path><path d="M347,232.81a4.4,4.4,0,0,1-2.49-.27,4.45,4.45,0,0,1-2.22-1.17,58.11,58.11,0,0,1,4.71,1.44Z" style="fill:#455a64"></path><path d="M342.12,204.93a10.68,10.68,0,0,1-6.63-2.75c.09-.13,1.46.72,3.28,1.47S342.15,204.78,342.12,204.93Z" style="fill:#455a64"></path><path d="M379.42,204.84a18.19,18.19,0,0,1-10.65,1.45c0-.16,2.43,0,5.36-.44S379.37,204.69,379.42,204.84Z" style="fill:#455a64"></path><path d="M360.67,183.7a10.47,10.47,0,0,1-1.27-.75,7.69,7.69,0,0,0-3.3-.94,7.6,7.6,0,0,0-3.37.67,13.07,13.07,0,0,1-1.33.64s.34-.5,1.16-1a6.75,6.75,0,0,1,3.56-.86,6.68,6.68,0,0,1,3.47,1.15C360.37,183.18,360.71,183.66,360.67,183.7Z" style="fill:#fff"></path><path d="M349.34,183.82a13,13,0,0,1-1.58,1.8c-1,1.08-2.36,2.59-3.8,4.31s-2.67,3.33-3.55,4.51a11.92,11.92,0,0,1-1.49,1.87,9.51,9.51,0,0,1,1.19-2.08,52.32,52.32,0,0,1,7.39-8.87A9.52,9.52,0,0,1,349.34,183.82Z" style="fill:#fff"></path><path d="M375.77,210s-6.33-3.54-9.87-5.18-13.24-7-13.24-7-2.36.25-.43,2.68a40.55,40.55,0,0,0,4.71,4.79l-11.79-1a4,4,0,0,0-2.51.61l-11.12,7s.69,2.23,3.58,1.43L331,216.12s3,3,5.09,1.12l-1.89,3s.42,2.6,2.51,1.47,6-3,6-3l4.84-1.11s-8.54,5.58-6.65,6.95,4-1,4-1l6.65-3.78,14.7.08Z" style="fill:#9a5d53"></path><path d="M353.48,208.06a19.11,19.11,0,0,1-3.07.08c-.94,0-2.07,0-3.32-.12-.62,0-1.3-.11-1.94-.13a3.19,3.19,0,0,0-1.87.51,73.88,73.88,0,0,1-6.2,4,16.18,16.18,0,0,1-2.71,1.42,24.32,24.32,0,0,1,2.54-1.7c1.59-1,3.78-2.42,6.11-4.14a3.63,3.63,0,0,1,2.13-.57c.72,0,1.34.12,2,.15l3.31.22A21.68,21.68,0,0,1,353.48,208.06Z" style="fill:#7a4039"></path><path d="M352,212.17a8.71,8.71,0,0,1-2.64,0c-.81-.08-1.77-.2-2.82-.21a6.31,6.31,0,0,0-3.25.76,59.58,59.58,0,0,0-5.21,3.57,11.76,11.76,0,0,1-2.23,1.41,21.5,21.5,0,0,1,2-1.67,41.73,41.73,0,0,1,5.18-3.72,6.51,6.51,0,0,1,3.48-.78,24.54,24.54,0,0,1,2.86.31C351,212.07,352,212.1,352,212.17Z" style="fill:#7a4039"></path><path d="M446.24,175a22.17,22.17,0,0,1,7.61,10.86c3.46,10.64-23.31,42.82-23.86,42.22,0,0-23.09,22.89-31.12,19.24s-33.24-27.59-33.24-27.59l9.91-9.79L401.85,223S429.66,183.3,433,180.31,446.24,175,446.24,175Z" style="fill:#9a5d53"></path><path d="M413.27,206.42l25.84,18.47s13.09-23.66,14.6-28.71S456.08,180,446.24,175l-17,2Z" style="fill:#455a64"></path><path d="M445.88,178.41c0,.05-.56-.2-1.59-.37a9.75,9.75,0,0,0-4.35.35,15.84,15.84,0,0,0-5.63,3.25c-1.89,1.59-3.82,3.56-5.87,5.57-4.09,4-7.66,7.85-10.21,10.63-1.22,1.35-2.24,2.46-3,3.3a8.91,8.91,0,0,1-1.15,1.18,11.53,11.53,0,0,1,1-1.31c.67-.82,1.65-2,2.9-3.41,2.48-2.85,6-6.7,10.11-10.76,2.06-2,4-4,5.93-5.57a15.91,15.91,0,0,1,5.84-3.24,9.5,9.5,0,0,1,4.49-.19,7.13,7.13,0,0,1,1.17.37A1.62,1.62,0,0,1,445.88,178.41Z" style="fill:#263238"></path><g style="opacity:0.5"><path d="M346.77,273.45c4.92,1.76,10.27-.49,13.11-4.88a14.91,14.91,0,0,0,8.38,1.37,9.85,9.85,0,0,0,7-4.51,7.41,7.41,0,0,0-.3-8.11,6,6,0,0,0-7.69-1.5,7,7,0,0,0-11.92-6.75Z" style="fill:#fff"></path></g><path d="M422.28,249.67a5.05,5.05,0,0,1-.19,1.06c-.17.79-.39,1.74-.64,2.86-.54,2.41-1.22,5.75-1.82,9.47s-1,7.11-1.21,9.57q-.17,1.71-.27,2.91a4.19,4.19,0,0,1-.16,1.07,4.15,4.15,0,0,1-.05-1.08c0-.69,0-1.69.12-2.93.14-2.47.47-5.89,1.06-9.62s1.34-7.08,2-9.48c.32-1.2.6-2.16.81-2.82A3.92,3.92,0,0,1,422.28,249.67Z" style="fill:#263238"></path><path d="M381.31,175c.14.05-1.29,4.64-3.19,10.27s-3.56,10.14-3.69,10.1,1.29-4.65,3.19-10.27S381.17,175,381.31,175Z" style="fill:#263238"></path><path d="M453.41,193.73a6.43,6.43,0,0,0-7.59-3.75,6.54,6.54,0,0,0-4.49,7.18,5.27,5.27,0,1,0-4,8.27,9.18,9.18,0,0,0,.46,7.45,5.74,5.74,0,0,0,2.66,2.67,4.2,4.2,0,0,0,4-.56l7.65-15S454.16,195.91,453.41,193.73Z" style="fill:#e0e0e0"></path><path d="M369.07,155.78c-1.25,1.46-.46,5,1.24,5.92s3.74.74,5.66.55a7.68,7.68,0,0,0,11.37,9.58c2.75-2,5-5.47,3.82-8.62l-5.43-1.83Z" style="fill:#FF725E"></path><path d="M403.17,171.82l-4.6-47.53c-1.84-11.39,3.26-22,14.7-23.48l1.07-.08a20.64,20.64,0,0,1,21.91,17.4c1.54,9.89,3.11,20.83,3.44,26.16.68,11.06-11.41,13.65-11.41,13.65l.47,9.82a6.31,6.31,0,0,1-3.86,6.12,29.37,29.37,0,0,1-11.17,2.43C404.8,176.3,403.17,171.82,403.17,171.82Z" style="fill:#9a5d53"></path><path d="M428.4,157.86a26.82,26.82,0,0,1-14.78-3.16s3.83,7.72,14.78,5.91Z" style="fill:#7a4039"></path><path d="M434.38,127.87a1.58,1.58,0,0,1-1.41,1.7,1.51,1.51,0,0,1-1.73-1.3,1.6,1.6,0,0,1,1.4-1.71A1.52,1.52,0,0,1,434.38,127.87Z" style="fill:#263238"></path><path d="M434.27,123.71c-.18.22-1.44-.57-3.13-.44s-2.88,1.07-3.08.88.07-.48.59-.91a4.37,4.37,0,0,1,2.44-1,4.19,4.19,0,0,1,2.52.61C434.16,123.26,434.36,123.62,434.27,123.71Z" style="fill:#263238"></path><path d="M418.85,129.13a1.58,1.58,0,0,1-1.41,1.7,1.51,1.51,0,0,1-1.73-1.3,1.6,1.6,0,0,1,1.4-1.71A1.52,1.52,0,0,1,418.85,129.13Z" style="fill:#263238"></path><path d="M417.62,125.26c-.18.22-1.45-.57-3.14-.44s-2.88,1.07-3.08.88.07-.48.59-.91a4.4,4.4,0,0,1,2.44-1,4.19,4.19,0,0,1,2.52.61C417.5,124.81,417.71,125.17,417.62,125.26Z" style="fill:#263238"></path><path d="M424.71,137.4a10.83,10.83,0,0,1,2.72-.71c.43-.07.83-.19.88-.49a2.23,2.23,0,0,0-.38-1.26l-1.53-3.21c-2.13-4.57-3.7-8.33-3.52-8.42s2.06,3.55,4.19,8.12c.51,1.13,1,2.2,1.47,3.23a2.47,2.47,0,0,1,.35,1.68,1.1,1.1,0,0,1-.66.69,2.79,2.79,0,0,1-.73.15A11.78,11.78,0,0,1,424.71,137.4Z" style="fill:#263238"></path><path d="M419.8,138.94c.27,0,.41,1.8,2.09,3s3.62.85,3.65,1.1-.41.39-1.24.48a4.58,4.58,0,0,1-3-.82,4,4,0,0,1-1.63-2.52C419.5,139.41,419.67,138.94,419.8,138.94Z" style="fill:#263238"></path><path d="M417.56,118.58c-.13.48-1.84.38-3.81.77s-3.55,1.05-3.84.65c-.14-.19.11-.64.73-1.13a6.35,6.35,0,0,1,2.79-1.22,6.47,6.47,0,0,1,3,.13C417.22,118,417.62,118.36,417.56,118.58Z" style="fill:#263238"></path><path d="M433.29,118.85c-.27.41-1.47.09-2.88.18s-2.58.45-2.88.07c-.13-.19,0-.59.52-1a3.9,3.9,0,0,1,2.29-.81,4,4,0,0,1,2.35.61C433.21,118.27,433.41,118.65,433.29,118.85Z" style="fill:#263238"></path><path d="M434.81,113.15s-3.42-6.7-6.88-8.07c-4.18-1.65-5.59,2.91-9.52,2.12s-7.91-2.39-11.63.88c-4.06,3.57-1.87,5.71-1.78,10.63.39,19.94-2.82,25.83-4.54,16.55-.19-1-3.1-1.62-3.84-5.92-1-5.58-1.68-12.38-.72-16.46.81-3.44,2.55-5.9,5.79-8.71,5.13-4.45,12.57-5.08,17.67-5S434.63,104.46,434.81,113.15Z" style="fill:#263238"></path><path d="M401.14,134.91a3,3,0,0,0-3.45-2.65c-2.05.35-4.25,1.68-3.8,5.93.8,7.53,8.2,5.18,8.19,5S401.5,138.06,401.14,134.91Z" style="fill:#9a5d53"></path><path d="M400.14,140.49s-.13.1-.34.23a1.31,1.31,0,0,1-1,.12c-.82-.2-1.63-1.4-1.81-2.75a4.49,4.49,0,0,1,.17-1.92,1.53,1.53,0,0,1,.88-1.11.67.67,0,0,1,.81.28c.13.2.1.35.14.36s.14-.14.05-.45a.87.87,0,0,0-.35-.44,1,1,0,0,0-.74-.11,1.86,1.86,0,0,0-1.25,1.31,4.6,4.6,0,0,0-.23,2.15c.21,1.51,1.14,2.85,2.26,3.05a1.4,1.4,0,0,0,1.18-.33C400.14,140.67,400.16,140.5,400.14,140.49Z" style="fill:#7a4039"></path><path d="M400.2,120.27a7.28,7.28,0,0,0,3.31,1.24,2.48,2.48,0,0,0,2.61-1.94c.05-.53-.13-1.13.19-1.56s1.15-.42,1.78-.4a4.83,4.83,0,0,0,4.75-3.83,2,2,0,0,0,2.73.06,10.88,10.88,0,0,0,1.9-2.35A3.09,3.09,0,0,1,420,110a7.48,7.48,0,0,0,1.67.24c1-.16,1.38-1.36,1.46-2.35s.11-2.16.91-2.75,1.77-.34,2.69-.28,2.09-.23,2.26-1.14a1.8,1.8,0,0,0-.44-1.34A4.9,4.9,0,0,0,422.6,101a6.64,6.64,0,0,0-12.27-.38,6.75,6.75,0,0,0-10.57,3.24,4.89,4.89,0,0,0-5,7.5,4.64,4.64,0,0,0-2.27,3.88c.09,1.56,1.72,3,3.2,2.48a2.71,2.71,0,0,0,4.87,2.35" style="fill:#263238"></path><path d="M423.32,103.13s0,.05,0,.14a3.51,3.51,0,0,1,0,.41,4.5,4.5,0,0,1-.44,1.49,5.23,5.23,0,0,1-1.54,1.91,5,5,0,0,1-3,1.11l.12-.18a2.73,2.73,0,0,1,0,2.1,7.75,7.75,0,0,1-1.15,2,5.5,5.5,0,0,1-.78.93,2.61,2.61,0,0,1-1.17.53,2.74,2.74,0,0,1-2.49-.69l.27-.1a5.68,5.68,0,0,1-2.11,4.1,4.13,4.13,0,0,1-2.42,1,7.52,7.52,0,0,1-2.48-.35l.2-.11a6,6,0,0,1-1.62,2.47,3.2,3.2,0,0,1-2.58.91,4.17,4.17,0,0,1-3.44-3l.18.07a4,4,0,0,1-2.57.57,4.33,4.33,0,0,1-1.87-.67,3.83,3.83,0,0,1-.91-.86,1.8,1.8,0,0,1-.22-.38,4.63,4.63,0,0,0,1.2,1.13,4.33,4.33,0,0,0,1.82.6,3.7,3.7,0,0,0,2.42-.59l.13-.09.05.16a3.92,3.92,0,0,0,3.25,2.79,2.89,2.89,0,0,0,2.34-.85,5.74,5.74,0,0,0,1.51-2.34l0-.14.15,0a7.27,7.27,0,0,0,2.37.34,3.91,3.91,0,0,0,2.24-.93,5.36,5.36,0,0,0,2-3.86l0-.36.26.26a2.47,2.47,0,0,0,2.2.61,2.42,2.42,0,0,0,1-.46,4.92,4.92,0,0,0,.74-.88,7.35,7.35,0,0,0,1.13-1.87,2.48,2.48,0,0,0,0-1.89l-.08-.18h.19a4.9,4.9,0,0,0,2.91-1,5.44,5.44,0,0,0,1.54-1.81A5.63,5.63,0,0,0,423.32,103.13Z" style="fill:#455a64"></path></g><g id="character-1"><path d="M247.71,49.91a10.05,10.05,0,0,0-11.63,0,7.45,7.45,0,0,0-1.15-9.87,8.86,8.86,0,0,0-10.23-.55,11,11,0,0,0-4.83,9.33,14.46,14.46,0,0,0,4.31,9.8l.14-1.19q2.44,9.78,4.87,19.57c.7,2.78,1.51,5.75,3.7,7.59,3.8,3.19,10.33.9,12.28-3.67s0-10.11-3.71-13.44a9.76,9.76,0,0,0,6.25-17.6Z" style="fill:#455a64"></path><path d="M209.08,153.57l7.24-29L226,84.3l11.34-4.93s-.06,8.42-1,18.35c-1.17,12.65-3.31,27.79-3.85,31.72-1,7-8.93,44.89-8.93,44.89Z" style="fill:#c78976"></path><path d="M222,60.7l-3,.36a3,3,0,0,0-2.59,2.65,40.59,40.59,0,0,0-.27,4.43c.13.89-1.44,5,0,7.44s11.23,10.07,11.23,10.07l10-6.28a50.1,50.1,0,0,0-1.39-6.1c-.85-2.7-11.36-13.6-11.36-13.6S222.39,59.42,222,60.7Z" style="fill:#c78976"></path><path d="M222.33,63.94a12.74,12.74,0,0,1-2.3.33l.14-.16.05,1.74-.06-.13c1.44,1.5,3.33,3.54,5.39,5.79l.15.17-.45.18c0-1.18,0-2.3,0-3.36l0,.13c-1.18-2.15-2.22-3.94-2.86-5.32a3.11,3.11,0,0,1-.11-2.38,5.43,5.43,0,0,0,.4,2.26c.68,1.28,1.8,3.08,3,5.19l0,.06v.06c0,1.06,0,2.18,0,3.36v.67l-.45-.5-.16-.17c-2-2.25-3.91-4.32-5.28-5.88l-.06-.06v-.07l0-1.74V64H220A11.91,11.91,0,0,1,222.33,63.94Z" style="fill:#975352"></path><path d="M218.72,74.57a7.06,7.06,0,0,1-2.66-6.32c.16,0,.25,1.56,1,3.3S218.83,74.46,218.72,74.57Z" style="fill:#975352"></path><path d="M237.31,78.2h0c-1-.85-3.42-.6-4.48.19a4.69,4.69,0,0,0-1.69,3.47,10.26,10.26,0,0,0,.69,3.9,3.33,3.33,0,0,0-3.17,2.46,4.23,4.23,0,0,0,1.16,4,5.81,5.81,0,0,0,3.91,1.6,3.13,3.13,0,0,0,2.38-.73,4,4,0,0,0,.84-2.4C237.43,86.53,237.92,82.33,237.31,78.2Z" style="fill:#455a64"></path><path d="M112.93,124s2.39-3,2.22-5.74-4.68-17.52-4.68-17.52-2.08.2-2.2,3.36a62.84,62.84,0,0,0,.54,7.34l-6.67-10.13c-1.49-2.27-3.89-5.62-5.24-5.17s1.45,4.89,2.25,7,2,5.07,2,5.07-6.1-8.83-8.41-10.76c-1.68-1.42-3.18.93-1.6,2.89,0,0-2.43-1.27-2.15.89s6.42,10.77,5.76,11.09-6-6.39-7.43-6.27c-.77.07-.89,1.23.39,3s11.1,15,12.88,16.54a5.48,5.48,0,0,0,3,1.5Z" style="fill:#c78976"></path><path d="M108.38,118.4s-.43-.22-1.14-.52a9.27,9.27,0,0,0-5.88-.48c-.74.18-1.19.37-1.2.33a1.06,1.06,0,0,1,.29-.16,6.82,6.82,0,0,1,.87-.33,8.33,8.33,0,0,1,3-.3,8.22,8.22,0,0,1,3,.79,5.57,5.57,0,0,1,.8.46C108.29,118.31,108.39,118.39,108.38,118.4Z" style="fill:#975352"></path><path d="M109,113.29a23.49,23.49,0,0,0-.57,2.41c-.2,1.35-.06,2.47-.13,2.48a5.78,5.78,0,0,1-.1-2.51A5.61,5.61,0,0,1,109,113.29Z" style="fill:#975352"></path><path d="M90.74,99.46c.05,0,1.8,2.31,3.91,5.23s3.77,5.32,3.72,5.36-1.8-2.3-3.91-5.23S90.69,99.5,90.74,99.46Z" style="fill:#975352"></path><path d="M132.67,154.42c-8.27-12-15.7-24.54-19-34.14l-12.77,4.06c1.1,3.74,9.76,35.09,20,45.9s41.62,34.4,41.62,34.4l3.52-24.27S141,166.4,132.67,154.42Z" style="fill:#c78976"></path><path d="M149.14,169.54a10.59,10.59,0,0,1-4.64,6.12c-2.42,1.51-5.81,1.67-8-.15s-2.49-5.71-.21-7.43a7.17,7.17,0,0,1-8.42-4.38,6.74,6.74,0,0,1,5.11-8.85,75.78,75.78,0,0,0,6,6.58C141.4,163.54,149.14,169.54,149.14,169.54Z" style="fill:#455a64"></path><path d="M123.22,148.1a3.27,3.27,0,0,0-2.88-.92,1.94,1.94,0,0,0-1.46,2.36l-1.14-.33a2.48,2.48,0,0,0-.13,4.63,1.4,1.4,0,0,0-1.36.66,1.85,1.85,0,0,0,.13,1.92,3,3,0,0,0,1.64,1.12,3.79,3.79,0,0,0,3.92-1,2.94,2.94,0,0,0-.06-3.88,2,2,0,0,0,2.54-1.53A3.32,3.32,0,0,0,123.22,148.1Z" style="fill:#455a64"></path><path d="M188.43,438.21l-6.2,20.46s18.71,13.16,17.94,17.06l-40.09-10.59,8.34-32.27Z" style="fill:#455a64"></path><path d="M170.29,453.66a1.7,1.7,0,0,0-1.62,1.57,1.62,1.62,0,0,0,1.54,1.62,1.78,1.78,0,0,0,1.71-1.67,1.68,1.68,0,0,0-1.79-1.51" style="fill:#e0e0e0"></path><path d="M159.82,466l.81-3.13,38.49,10.42s1.58,1.25,1,2.46Z" style="fill:#263238"></path><path d="M182.94,458.64c-.06.19-1.06,0-2.19.4s-1.86,1.06-2,.93.43-1.17,1.8-1.6S183,458.47,182.94,458.64Z" style="fill:#263238"></path><path d="M186.68,461.49c0,.2-.94.31-1.82,1s-1.31,1.48-1.5,1.42,0-1.2,1.09-2S186.73,461.3,186.68,461.49Z" style="fill:#263238"></path><path d="M187.74,467.15c-.19,0-.2-1.06.58-2s1.82-1.13,1.86-.94-.68.6-1.31,1.39S187.94,467.18,187.74,467.15Z" style="fill:#263238"></path><path d="M183.83,453.82c-.13.16-1-.35-2.08-.57s-2.08-.09-2.14-.29,1-.67,2.28-.4S184,453.69,183.83,453.82Z" style="fill:#263238"></path><path d="M151.77,351.49l-21.17-2.92s-10.07,20.54-14,20.38l4.18-41.25,33.18,3.19Z" style="fill:#455a64"></path><path d="M133.68,336a1.69,1.69,0,0,0-1.8-1.36,1.62,1.62,0,0,0-1.37,1.77,1.78,1.78,0,0,0,1.92,1.43,1.69,1.69,0,0,0,1.22-2" style="fill:#e0e0e0"></path><path d="M119.88,327.58l3.21.31-4.27,39.65s-1,1.75-2.26,1.41Z" style="fill:#263238"></path><path d="M130.74,349.26c-.2,0-.19-1-.73-2.1s-1.34-1.67-1.25-1.85,1.24.24,1.88,1.54S130.92,349.32,130.74,349.26Z" style="fill:#263238"></path><path d="M128.52,353.41c-.2,0-.46-.88-1.24-1.65s-1.67-1.06-1.64-1.26,1.19-.22,2.14.76S128.71,353.42,128.52,353.41Z" style="fill:#263238"></path><path d="M123.09,355.34c0-.19,1-.37,2.06.26s1.39,1.62,1.22,1.69-.71-.58-1.58-1.08S123.09,355.54,123.09,355.34Z" style="fill:#263238"></path><path d="M135.64,349.39c-.17-.1.2-1,.24-2.14s-.23-2.08,0-2.16.81.84.75,2.19S135.79,349.51,135.64,349.39Z" style="fill:#263238"></path><path d="M179.15,254a99.24,99.24,0,0,0-11.87,43.86c-.29,9.77,10.18,76.16,10.18,76.16l-16.29,75.35,26,4.89s23.67-63.13,27.74-88.79,4.89-63.95,4.89-63.95,7.75-15.72,10.25-27.49c2.08-9.8,4.52-22.57,4.52-22.57Z" style="fill:#263238"></path><path d="M230.76,270.62c.41,2,6.52,56.62,0,76.57s-14.25,21.59-14.25,21.59l-77-16.88L143.05,329l49.79,1,12.26-33.4Z" style="fill:#263238"></path><path d="M232.13,264.77a2,2,0,0,1,0,.28l-.12.82c-.13.71-.34,1.76-.68,3.1-.65,2.68-1.77,6.52-3.23,11.23-.75,2.35-1.56,4.92-2.43,7.68s-1.87,5.71-2.66,8.84a59.19,59.19,0,0,0-1,10.12c-.13,3.53.16,7.2.05,11-.25,15.09-2.72,28.58-4.68,38.23-1,4.83-1.91,8.71-2.55,11.39-.32,1.31-.58,2.34-.76,3.09-.09.32-.16.58-.21.79a1.1,1.1,0,0,1-.09.27,1,1,0,0,1,0-.28c0-.21.1-.48.17-.81.16-.75.38-1.78.67-3.1.58-2.7,1.43-6.59,2.38-11.42,1.87-9.66,4.27-23.13,4.52-38.17.11-3.75-.17-7.41,0-11a59.48,59.48,0,0,1,1-10.21c.82-3.19,1.84-6.1,2.72-8.87s1.72-5.32,2.49-7.67c1.5-4.69,2.67-8.5,3.39-11.16.36-1.33.61-2.37.77-3.07l.17-.81A.91.91,0,0,1,232.13,264.77Z" style="fill:#455a64"></path><path d="M177.07,375.31c-.14,0-1.89-12.06-3.9-27s-3.53-27-3.39-27.06,1.89,12.06,3.9,27S177.21,375.29,177.07,375.31Z" style="fill:#455a64"></path><path d="M172.07,270.62a8.72,8.72,0,0,1,1,.69c.65.46,1.6,1.12,2.85,1.88a60,60,0,0,0,10.79,5l.24.09-.11.24c-1.1,2.48-2.37,5.17-3.77,7.94a177.78,177.78,0,0,1-10,17.37l0,.07H173l-3.88.58a7.93,7.93,0,0,1-1.4.15,8.47,8.47,0,0,1,1.37-.31l3.86-.74-.11.07c2.4-3.87,6.14-10.12,9.82-17.43,1.39-2.77,2.67-5.45,3.79-7.91l.14.33a55.15,55.15,0,0,1-10.78-5.17c-1.23-.8-2.17-1.5-2.79-2A7.27,7.27,0,0,1,172.07,270.62Z" style="fill:#455a64"></path><path d="M222.25,267.12a2.91,2.91,0,0,1,0,.93,12.17,12.17,0,0,1-.47,2.5,14.58,14.58,0,0,1-12,10.46,12.64,12.64,0,0,1-2.54.12,2.79,2.79,0,0,1-.92-.14c0-.1,1.33,0,3.4-.34a15,15,0,0,0,11.75-10.21C222.1,268.44,222.15,267.1,222.25,267.12Z" style="fill:#455a64"></path><path d="M213.25,373.88c-1.28-2.45-5.53-4.74-8-3.55a5.61,5.61,0,0,0-2.64,7,8.16,8.16,0,0,0-2,15.59,7.9,7.9,0,0,0-3.75,7.72c.41,3,2.89,6.56,6.59,6.95l2.7-8.48,3.48-11.61Q211.66,380.81,213.25,373.88Z" style="fill:#455a64"></path><path d="M208,324.34c-.64-3.66-2.94-6.83-5.6-9.43,2.56-.53,3.54-4.06,2.29-6.36s-3.93-3.45-6.5-3.93-6.07,0-6.76,2.62c-2.48-1.56-5.91.75-6.6,3.16a7.13,7.13,0,0,0,1.84,6.9,8.35,8.35,0,0,0-6.06,4.32A10.42,10.42,0,0,0,180,331a8.79,8.79,0,0,0,7.58,5.22,7.62,7.62,0,0,0,7.36-5.24c1,3.57,5.95,5,9.17,3.12S208.68,328,208,324.34Z" style="fill:#FF725E"></path><path d="M174.79,184l-13,22.08,16.44,36.39s-4.47,10.63-3.81,14.34,3.12,3.11,3.12,3.11,50.29,10.62,54.62,6.95,4.13-15.51,2.46-25.84-1.41-29.68-9.08-45.93-12.37-23.25-18.42-25c-.66-.2-21.14,7.76-28.4,10.6A7.78,7.78,0,0,0,174.79,184Z" style="fill:#FF725E"></path><polygon points="178.37 183.92 157.84 172.91 143.81 195.49 168.89 211.76 181.52 197.53 178.37 183.92" style="fill:#FF725E"></polygon><polygon points="211.49 144.79 210.93 146.53 201.77 175.17 220.94 187.74 226.85 163.89 211.49 144.79" style="fill:#FF725E"></polygon><path d="M227.57,250.56a12.83,12.83,0,0,1-1.74-.14c-1.11-.11-2.72-.33-4.7-.65a121.43,121.43,0,0,1-29.91-9c-1.83-.83-3.29-1.53-4.28-2.05a11.9,11.9,0,0,1-1.52-.85,12,12,0,0,1,1.61.66c1,.47,2.5,1.12,4.34,1.9a142.23,142.23,0,0,0,29.83,9c2,.37,3.55.65,4.66.82A10.18,10.18,0,0,1,227.57,250.56Z" style="fill:#263238"></path><path d="M184.58,195.75c-.19.06-.63-3.73-3.14-7.51s-5.88-5.61-5.75-5.76a7.67,7.67,0,0,1,2.11,1.22,16.86,16.86,0,0,1,4.07,4.25,17.34,17.34,0,0,1,2.36,5.39A7.6,7.6,0,0,1,184.58,195.75Z" style="fill:#263238"></path><path d="M192.63,195.06a3.84,3.84,0,0,1-.61-.74,25.28,25.28,0,0,1-1.38-2.23c-1.12-1.89-2.31-4.72-4.39-7.31a11.59,11.59,0,0,0-3.48-3,6.23,6.23,0,0,0-3.64-.48,13,13,0,0,0-3.3,1.16,2.63,2.63,0,0,1,.77-.58,7.91,7.91,0,0,1,2.46-1,6.45,6.45,0,0,1,3.91.42,11.47,11.47,0,0,1,3.69,3.08,41.17,41.17,0,0,1,4.3,7.47C191.94,193.88,192.7,195,192.63,195.06Z" style="fill:#263238"></path><path d="M159.85,188.07a3.39,3.39,0,0,1,.66.59,21.66,21.66,0,0,1,1.58,1.83,28.64,28.64,0,0,1,5.83,14.7,21,21,0,0,1,.1,2.42,2.48,2.48,0,0,1-.08.88c-.08,0-.11-1.26-.39-3.26a33.48,33.48,0,0,0-2-7.61,33.89,33.89,0,0,0-3.76-6.91C160.62,189.07,159.78,188.13,159.85,188.07Z" style="fill:#263238"></path><path d="M231.19,212.63a103.85,103.85,0,0,0-5.51-17.91l-.29.31a4.36,4.36,0,0,0-.81,7.8,3.2,3.2,0,1,0,.66,6.31,4.86,4.86,0,0,0,2.47,6.49c1.29.5,3.08.17,3.53-1.14A3.57,3.57,0,0,0,231.19,212.63Z" style="fill:#455a64"></path><path d="M229.61,206.41a7.51,7.51,0,0,1-.47-1.4c-.26-.92-.7-2.23-1.28-3.83a91.43,91.43,0,0,0-5.54-12.07,93.44,93.44,0,0,0-7.12-11.21c-.52-.67-1-1.27-1.42-1.8l-1.13-1.31a8.38,8.38,0,0,1-1-1.11,8.71,8.71,0,0,1,1.13,1l1.21,1.26c.44.52.95,1.1,1.49,1.77a84.39,84.39,0,0,1,12.72,23.38,37.54,37.54,0,0,1,1.12,3.89A9.58,9.58,0,0,1,229.61,206.41Z" style="fill:#263238"></path><path d="M207.22,221.3c3.41-3.13,2.83-9.5-1.09-12s-9.91-.22-11.24,4.21l-1.37-1.21a6.28,6.28,0,0,0-7.88,8.21c-2-1.72-5.5-.74-6.83,1.57s-.82,5.35.69,7.55c3.19,4.66,10.72,5.46,14.83,1.58,2.18,4.13,6.54,7.23,11.21,7.23s9.29-3.53,9.89-8.16S211.87,220.84,207.22,221.3Z" style="fill:#e0e0e0"></path><g style="opacity:0.30000000000000004"><path d="M187.25,195.83c-.26-5.86-5.78-11.72-11.42-13.35l1.14.83c2.26,1.13,3.86,3.57,5,5.84s1.8,4.73,2.76,7.07c.31.77,1,1.68,1.76,1.43S187.29,196.55,187.25,195.83Z"></path></g><g style="opacity:0.30000000000000004"><path d="M193.94,247.92l.34.14-.15-.23Z"></path></g><g style="opacity:0.30000000000000004"><path d="M194.28,248.06c3.67,6,11.06,8.63,18,10.19a26.3,26.3,0,0,0,8.31.86,10.3,10.3,0,0,0,7.28-3.7A101.07,101.07,0,0,1,194.28,248.06Z"></path></g><path d="M165.17,109.25a4.16,4.16,0,0,0-5.65,0c-.11-4.43-.55-9.36-3.86-12.29a5.66,5.66,0,0,0-4.25-1.57,3.51,3.51,0,0,0-3.17,2.91c-1.79-3.06-3.7-6.24-6.74-8.06s-7.54-1.72-9.57,1.18c-1.74,2.51-1,6,.33,8.7s3.31,5.22,4,8.19c1.1,4.65-1.09,9.44-1,14.22.11,7,5.09,13.11,10.78,17.24a13.21,13.21,0,0,0,4.23,2.26,5.51,5.51,0,0,0,4.62-.63l7.21-4.77c-2.13-2.49-4.39-5.42-3.92-8.66s3.22-5.25,5.37-7.53a11.94,11.94,0,0,0,3.15-5.35A6.1,6.1,0,0,0,165.17,109.25Z" style="fill:#263238"></path><path d="M158.4,142.48a2.67,2.67,0,0,1-3,1.48,3.92,3.92,0,0,1-2.65-2.2,7.57,7.57,0,0,1-.65-3.49,15.2,15.2,0,0,1,1.08-5.45,7,7,0,0,1,2.69-3.54,3.42,3.42,0,0,1,4.16.39c1.15,1.3.76,3.29.31,5-.75,2.74-1.49,5.48-2.24,8.21" style="fill:#FF725E"></path><path d="M216,151.93c-1-2.41-3.6-3.86-4.77-6.2-2.19-4.38,1.23-9.95-.7-14.45-1.09-2.54-3.61-4.09-5.92-5.61-1.91-1.26-3.86-2.8-4.77-4.83-.1-.34-.22-.67-.35-1,0-.1-.07-.2-.09-.31v.06a11.92,11.92,0,0,0-.66-1.4,15.38,15.38,0,0,0-26.81-.13c-.49.87-.91,1.79-1.35,2.7a28.88,28.88,0,0,1-5.91,6.1c-.69.42-1.38.85-2,1.33a9.77,9.77,0,0,0-1.82,1.76c-2.36,2.12-4.29,4.87-4.32,8s2,6.31,1.79,9.56c-.15,2.25-1.36,4.27-1.91,6.46-1.12,4.43.61,9.22,3.55,12.73a20.47,20.47,0,0,0,31,.37l5.89,2.61c1.1.08,2.11.13,3,.16a15.72,15.72,0,0,0,15.08-10c.08-.19.16-.39.25-.58C216.37,157,217,154.26,216,151.93Z" style="fill:#263238"></path><path d="M203.9,171.23s8.4-3.83,7.12-15.8c-.63-5.94-3.44-15.22-6-22.74-2.29-6.76-9.13-14-15.79-11.4l-20,11.19a4.19,4.19,0,0,0-2.5,5.07l14,42.28L211.15,191Z" style="fill:#c78976"></path><path d="M205.61,141.26c-.13.24-1.47-.28-3.05.15S200,143,199.81,142.8s0-.46.39-1a4.11,4.11,0,0,1,2.14-1.35,4,4,0,0,1,2.49.12C205.42,140.85,205.67,141.15,205.61,141.26Z" style="fill:#263238"></path><path d="M190.78,145.67c-.14.26-1.59-.31-3.29.16s-2.74,1.66-3,1.5,0-.5.43-1.05a4.48,4.48,0,0,1,2.31-1.45,4.37,4.37,0,0,1,2.69.13C190.57,145.22,190.85,145.55,190.78,145.67Z" style="fill:#263238"></path><path d="M197.75,152.79a11.13,11.13,0,0,1,2.45-1.16c.39-.15.75-.33.74-.62a2.13,2.13,0,0,0-.59-1.13l-2-2.76c-2.84-3.93-5-7.21-4.85-7.32s2.59,3,5.43,6.92l2,2.78a2.43,2.43,0,0,1,.64,1.53,1.06,1.06,0,0,1-.5.77,2.6,2.6,0,0,1-.67.28A10.64,10.64,0,0,1,197.75,152.79Z" style="fill:#263238"></path><path d="M203.9,171.23a30.24,30.24,0,0,1-16.47.05s6.27,6.82,17.46,2.65Z" style="fill:#975352"></path><path d="M188.14,137.23c0,.48-1.68.7-3.47,1.42s-3.17,1.64-3.52,1.32c-.16-.15,0-.63.49-1.21a6.52,6.52,0,0,1,5.32-2.09C187.71,136.76,188.15,137,188.14,137.23Z" style="fill:#263238"></path><path d="M202.5,133.68c-.18.44-1.37.36-2.69.7s-2.36.89-2.71.58c-.17-.15-.09-.56.31-1a3.76,3.76,0,0,1,2-1.17,3.84,3.84,0,0,1,2.33.14C202.32,133.15,202.57,133.48,202.5,133.68Z" style="fill:#263238"></path><path d="M190.8,118.21A112.09,112.09,0,0,0,167.35,131c-1.68,1.2-3.43,2.56-4.09,4.53s0,4.33.63,6.42L173.45,172a10.5,10.5,0,0,0,7-14.15c-1.11-2.72-3.4-5.18-3.13-8.11.34-3.87,5-6.28,5.37-10.15.21-2.25-1.11-4.46-.78-6.7s2-3.72,3.74-4.93,3.69-2.25,5-4S192.32,119.69,190.8,118.21Z" style="fill:#263238"></path><path d="M156.82,137.91s.72,0,2,0a24,24,0,0,0,5.4-.65,16.39,16.39,0,0,0,7.07-3.63,12.46,12.46,0,0,0,4.25-8.52,14.18,14.18,0,0,1,1.07-5.1,9.82,9.82,0,0,1,3.08-3.77,8.5,8.5,0,0,1,7.92-1.28,6.74,6.74,0,0,1,3.88,3.81,5.7,5.7,0,0,1,.36,1.46,1.53,1.53,0,0,1,0,.53,9.39,9.39,0,0,0-.53-1.91,6.74,6.74,0,0,0-3.83-3.55,8.22,8.22,0,0,0-7.5,1.32,9.43,9.43,0,0,0-2.91,3.6,14.12,14.12,0,0,0-1,4.94,12.34,12.34,0,0,1-1.41,5,14,14,0,0,1-3,3.81,16.48,16.48,0,0,1-7.31,3.63,22.64,22.64,0,0,1-5.48.5c-.65,0-1.15-.07-1.49-.11A1.88,1.88,0,0,1,156.82,137.91Z" style="fill:#455a64"></path><path d="M181.4,136.05a4.32,4.32,0,0,1-.48,1,14.51,14.51,0,0,1-1.76,2.38A16.69,16.69,0,0,1,161.22,144a15.36,15.36,0,0,1-2.69-1.23,4,4,0,0,1-.89-.62,39.21,39.21,0,0,0,3.69,1.5,17.1,17.1,0,0,0,17.56-4.54A39,39,0,0,0,181.4,136.05Z" style="fill:#455a64"></path><path d="M199.8,157.52a7.46,7.46,0,0,1-.47,2.19,2.62,2.62,0,0,1-1.54,1.55,2.35,2.35,0,0,1-2.23-.54,3.9,3.9,0,0,1-1.14-2.07c-.15-.71-.06-1.63.62-1.89a1.68,1.68,0,0,1,.89,0l4,.5" style="fill:#975352"></path><path d="M199.15,160.91a5.47,5.47,0,0,1-2,.28,2.86,2.86,0,0,1-1.83-.94,3.06,3.06,0,0,1-.69-2.38,3.25,3.25,0,0,1,.17-.63c.11-.19.08-.17.25-.19s.43,0,.64.07l.67.08c.86.11,1.64.2,2.3.26a6.92,6.92,0,0,0,2.15.07,7,7,0,0,0-2.08-.54c-.65-.13-1.42-.26-2.28-.4l-.67-.11a6,6,0,0,0-.74-.09.76.76,0,0,0-.53.16,1,1,0,0,0-.32.42,3.19,3.19,0,0,0-.23.8,3.53,3.53,0,0,0,.9,2.89,3.25,3.25,0,0,0,3.85.65C199,161.11,199.17,160.94,199.15,160.91Z" style="fill:#263238"></path><path d="M210.49,163.78a4.71,4.71,0,1,1-3.17-8.84,4.35,4.35,0,0,1,2.06-7,53.25,53.25,0,0,1,1.87,8.71A17.25,17.25,0,0,1,210.49,163.78Z" style="fill:#e0e0e0"></path></g></svg>