<svg xmlns="http://www.w3.org/2000/svg" viewBox="0 0 750 500"><g id="background-complete"><path d="M633.24,92c.75-5.44-6.93-9.92-12.7-10.38-2.75-.23-5.61.19-8.22-.71-5.65-2-7.9-9.27-13.41-11.6-4.12-1.73-8.87-.19-12.86,1.82s-7.95,4.55-12.41,4.83c-3.88.25-8.1-1.19-11.49.71C559.62,78,558.29,81,556,82.68s-5.26,2-8.09,2.19-5.76.18-8.34,1.36-4.71,3.91-4.18,6.69Z" style="fill:#f5f5f5"></path><path d="M186.39,106c.75-5.44-6.93-9.92-12.7-10.38-2.75-.22-5.61.2-8.22-.71-5.65-2-7.9-9.27-13.42-11.59-4.12-1.74-8.86-.19-12.86,1.82s-7.94,4.54-12.4,4.82c-3.88.25-8.1-1.19-11.49.71-2.54,1.41-3.86,4.33-6.19,6s-5.26,2-8.09,2.19-5.77.18-8.35,1.36S88,104.18,88.5,107Z" style="fill:#f5f5f5"></path><path d="M104.33,184.3c.49-3.52-4.48-6.42-8.21-6.72-1.78-.14-3.63.13-5.31-.46-3.65-1.27-5.11-6-8.68-7.49-2.66-1.12-5.73-.12-8.31,1.18s-5.13,2.93-8,3.12c-2.51.16-5.24-.77-7.43.45-1.64.92-2.49,2.8-4,3.91a9.54,9.54,0,0,1-5.23,1.42,14.83,14.83,0,0,0-5.4.88c-1.66.77-3,2.53-2.7,4.33Z" style="fill:#f5f5f5"></path><path d="M344.4,46.81c.48-3.52-4.49-6.42-8.22-6.72-1.78-.14-3.62.13-5.31-.46-3.65-1.27-5.11-6-8.67-7.49-2.67-1.12-5.73-.12-8.32,1.18s-5.13,2.93-8,3.12c-2.51.16-5.23-.77-7.43.45-1.64.92-2.49,2.8-4,3.91a9.54,9.54,0,0,1-5.23,1.42,14.86,14.86,0,0,0-5.4.88c-1.66.77-3,2.53-2.7,4.33Z" style="fill:#f5f5f5"></path><path d="M708.28,192.19c.48-3.52-4.48-6.42-8.21-6.72-1.78-.14-3.63.13-5.32-.46-3.65-1.27-5.11-6-8.67-7.49-2.66-1.12-5.73-.12-8.31,1.18s-5.14,2.93-8,3.12c-2.51.16-5.23-.77-7.43.45-1.63.92-2.49,2.8-4,3.91a9.52,9.52,0,0,1-5.23,1.42,14.77,14.77,0,0,0-5.39.88c-1.67.77-3.05,2.53-2.7,4.33Z" style="fill:#f5f5f5"></path><path d="M375,61.57c-150.43,0-272.37,121.94-272.37,272.37a271.13,271.13,0,0,0,36.14,135.67l471.54,1.58c25.22-41.29,37.06-85.32,37.06-137.25C647.37,183.51,525.43,61.57,375,61.57Z" style="fill:#f5f5f5"></path><path d="M260.81,445.8l-3.72-137.44,19.36-14.51L274.92,291l-18.08,11.57-8.92-100.38h-4.45S240.29,426.33,235,434s-15.22,11.78-15.22,11.78Z" style="fill:#ebebeb"></path><path d="M255.31,438.71a1.34,1.34,0,0,1,0-.44c0-.33.07-.76.13-1.3.14-1.18.34-2.86.59-5,.51-4.34,1.29-10.62,2-18.39a199.7,199.7,0,0,0,.7-27.34,126.09,126.09,0,0,0-1.83-16.06c-1-5.54-2.49-11.21-3.92-17A132,132,0,0,1,249.67,336a68.44,68.44,0,0,1-.37-8.29,65.63,65.63,0,0,1,.73-7.92c.77-5.13,1.94-9.94,3-14.44s2-8.7,2.59-12.56a52.11,52.11,0,0,0,0-18.35,36.6,36.6,0,0,0-1.33-4.88c-.19-.52-.34-.94-.46-1.25a3.46,3.46,0,0,1-.13-.43,2.07,2.07,0,0,1,.21.41l.53,1.23a33.24,33.24,0,0,1,1.47,4.88,50.71,50.71,0,0,1,.23,18.45c-.55,3.88-1.47,8.09-2.5,12.6s-2.16,9.31-2.91,14.41a64.86,64.86,0,0,0-.69,7.87,67.27,67.27,0,0,0,.38,8.21A133.73,133.73,0,0,0,253.72,353c1.43,5.83,2.9,11.51,3.92,17.07a125.4,125.4,0,0,1,1.79,16.14,193.46,193.46,0,0,1-.86,27.39c-.76,7.78-1.62,14.05-2.23,18.38-.31,2.14-.55,3.81-.73,5-.08.54-.15,1-.21,1.3A2.13,2.13,0,0,1,255.31,438.71Z" style="fill:#e0e0e0"></path><path d="M226,445.7a25.67,25.67,0,0,0,21.64-10.2,33.28,33.28,0,0,0,5.09-10.06A76.38,76.38,0,0,0,255.43,413a109,109,0,0,0,.62-28.87,11.26,11.26,0,0,0-1.36-4.71,4.81,4.81,0,0,0-1.75-1.75,4.24,4.24,0,0,0-2.54-.44,6.52,6.52,0,0,0-4.07,2.83,23.6,23.6,0,0,0-2.27,4.22,28.59,28.59,0,0,0-1.76,17.07,9,9,0,0,0,1.33,3.68,2.07,2.07,0,0,0,1.66.81A2.5,2.5,0,0,0,247,405a6.19,6.19,0,0,0,1.08-1.52,16.35,16.35,0,0,0,.8-1.63,16,16,0,0,0-1-14.43l.34,0a12.44,12.44,0,0,0-2.85,7.77,13.1,13.1,0,0,0,.17,2.16,4.66,4.66,0,0,1,.12.74,8.55,8.55,0,0,1-.5-2.89,12.3,12.3,0,0,1,2.73-8l.18-.24.16.25a16.21,16.21,0,0,1,2.21,11.36,14.5,14.5,0,0,1-2.93,6.7,3.23,3.23,0,0,1-2.13,1,2.74,2.74,0,0,1-2.2-1,9.08,9.08,0,0,1-1.46-3.88,28.91,28.91,0,0,1,1.72-17.37,24,24,0,0,1,2.32-4.34,9.67,9.67,0,0,1,1.86-1.93,5.93,5.93,0,0,1,2.72-1.2,5.16,5.16,0,0,1,3.08.53,5.33,5.33,0,0,1,2,2,11.66,11.66,0,0,1,1.44,4.94,107.31,107.31,0,0,1-.68,29,75.41,75.41,0,0,1-2.75,12.48,33.4,33.4,0,0,1-5.25,10.17,26.8,26.8,0,0,1-15.07,9.56,23.31,23.31,0,0,1-5.2.54c-.6,0-1.06-.07-1.36-.08A2.66,2.66,0,0,1,226,445.7Z" style="fill:#e0e0e0"></path><path d="M250.24,289.87a4.79,4.79,0,0,1-.63-.43l-1.9-1.38.16,0a10.89,10.89,0,0,0-.9,3.74,10.68,10.68,0,0,0,1.1,5.36,5.23,5.23,0,0,0,.9,1.37,1.82,1.82,0,0,0,1.59.56,2.17,2.17,0,0,0,1.38-1.09,4.52,4.52,0,0,0,.61-1.74,26.06,26.06,0,0,0,.07-8.29,25.52,25.52,0,0,0-1.1-4.51,9.48,9.48,0,0,0-1-2.21,4.6,4.6,0,0,0-1.81-1.74,3,3,0,0,0-2.59,0,4.45,4.45,0,0,0-1.81,1.86,11.28,11.28,0,0,0-1,2.48c-.28.86-.46,1.75-.68,2.64-1.54,7.19-.66,15.1.36,23.22a197.42,197.42,0,0,1,1.57,27.66A194.87,194.87,0,0,1,243,359.93c-.87,6.4-1.85,11.55-2.65,15.08-.37,1.78-.74,3.14-1,4.07-.11.44-.2.78-.27,1.05a1.93,1.93,0,0,1-.12.36s0-.13,0-.37.12-.62.2-1.06c.18-.94.5-2.31.82-4.09.71-3.54,1.61-8.69,2.4-15.08a204.85,204.85,0,0,0,1.49-22.53,203,203,0,0,0-1.63-27.59c-1-8.13-1.9-16.1-.31-23.39.23-.9.41-1.81.71-2.68a11.05,11.05,0,0,1,1-2.58,5,5,0,0,1,2.1-2.11,3.8,3.8,0,0,1,3.26,0,5.17,5.17,0,0,1,2.06,2,10.3,10.3,0,0,1,1,2.32,27.41,27.41,0,0,1,1.08,4.59,26.1,26.1,0,0,1-.16,8.41,4.91,4.91,0,0,1-.68,1.87,2.62,2.62,0,0,1-1.72,1.28,2.3,2.3,0,0,1-2-.7,5.29,5.29,0,0,1-.95-1.48,10.67,10.67,0,0,1,0-9.29l.06-.12.1.09,1.84,1.44A3.68,3.68,0,0,1,250.24,289.87Z" style="fill:#e0e0e0"></path><path d="M248.41,107c.34,2.39-34.65,86-34.65,86l17.5-13.49L206.05,238l16.61-17.54-26.54,74,16.45-8.32L196,337.76l14.24-13.49L196,362.94l112.7-6.3L282,283.81l16.12,13.49-20.87-53.06,10.68,4.5L263.58,180.4l10.92,4.8Z" style="fill:#ebebeb"></path><path d="M599.28,472.08l-2.93-108.23,15.25-11.43-1.21-2.25-14.23,9.11-7-79h-3.51S583.13,456.75,579,462.81s-12,9.27-12,9.27Z" style="fill:#ebebeb"></path><path d="M595,466.5a1.33,1.33,0,0,1,0-.35c0-.25.07-.59.11-1,.11-.93.27-2.25.46-3.94.41-3.42,1-8.36,1.56-14.48a157.18,157.18,0,0,0,.55-21.53,98,98,0,0,0-1.43-12.65c-.81-4.36-2-8.83-3.1-13.42a104.46,104.46,0,0,1-2.6-13.53,53.38,53.38,0,0,1-.29-6.52,50.4,50.4,0,0,1,.57-6.24c.61-4,1.53-7.83,2.35-11.38s1.58-6.84,2-9.88a41,41,0,0,0,0-14.45,28.87,28.87,0,0,0-1.05-3.85l-.36-1a1.3,1.3,0,0,1-.1-.34,1.41,1.41,0,0,1,.16.32l.42,1a26.24,26.24,0,0,1,1.15,3.84,39.88,39.88,0,0,1,.19,14.53c-.43,3.06-1.16,6.37-2,9.92s-1.7,7.34-2.29,11.36a51.6,51.6,0,0,0-.55,6.19,54.66,54.66,0,0,0,.3,6.47A106.39,106.39,0,0,0,593.7,399c1.13,4.59,2.28,9.07,3.08,13.45a95.38,95.38,0,0,1,1.41,12.7,151.58,151.58,0,0,1-.67,21.58c-.6,6.12-1.28,11.06-1.75,14.47-.25,1.68-.44,3-.58,3.93-.07.43-.12.76-.17,1A1.78,1.78,0,0,1,595,466.5Z" style="fill:#e0e0e0"></path><path d="M571.89,472a21.3,21.3,0,0,0,5.47-.51A20.91,20.91,0,0,0,588.93,464a26.13,26.13,0,0,0,4-7.92,60.65,60.65,0,0,0,2.09-9.78,85.09,85.09,0,0,0,.49-22.74,8.89,8.89,0,0,0-1.07-3.71,3.63,3.63,0,0,0-1.38-1.37,3.26,3.26,0,0,0-2-.35,5.09,5.09,0,0,0-3.2,2.23,19.07,19.07,0,0,0-1.79,3.32,22.52,22.52,0,0,0-1.38,13.45,6.82,6.82,0,0,0,1,2.89,1.61,1.61,0,0,0,1.31.64,2,2,0,0,0,1.32-.64,5,5,0,0,0,.85-1.2,11.79,11.79,0,0,0,.63-1.29,12.87,12.87,0,0,0,.78-2.58,12.58,12.58,0,0,0-1.6-8.78l.27,0a9.81,9.81,0,0,0-2.24,6.12,10.74,10.74,0,0,0,.13,1.7,2.83,2.83,0,0,1,.09.58,6.94,6.94,0,0,1-.39-2.28,9.72,9.72,0,0,1,2.15-6.27l.15-.19.12.21a12.75,12.75,0,0,1,1.74,8.94,11.4,11.4,0,0,1-2.31,5.27,2.49,2.49,0,0,1-1.68.8,2.19,2.19,0,0,1-1.73-.81,7.24,7.24,0,0,1-1.14-3.06,22.72,22.72,0,0,1,1.35-13.68,18.91,18.91,0,0,1,1.83-3.42,7.46,7.46,0,0,1,1.46-1.52,4.7,4.7,0,0,1,2.14-.94,4,4,0,0,1,2.43.42A4.32,4.32,0,0,1,595,419.6a9.28,9.28,0,0,1,1.14,3.88,84.56,84.56,0,0,1-.54,22.85,60.83,60.83,0,0,1-2.16,9.83,26.69,26.69,0,0,1-4.14,8,21.1,21.1,0,0,1-11.87,7.53,18.06,18.06,0,0,1-4.1.42c-.47,0-.83-.05-1.07-.06Z" style="fill:#e0e0e0"></path><path d="M591,349.28a2.76,2.76,0,0,1-.5-.33L589,347.86l.12,0a8.61,8.61,0,0,0-.71,3,8.39,8.39,0,0,0,.87,4.21,3.81,3.81,0,0,0,.71,1.08,1.37,1.37,0,0,0,1.25.44,1.68,1.68,0,0,0,1.09-.85,3.68,3.68,0,0,0,.48-1.37,20.62,20.62,0,0,0,.06-6.53,21.59,21.59,0,0,0-.87-3.55,7.73,7.73,0,0,0-.78-1.74,3.56,3.56,0,0,0-1.43-1.37,2.39,2.39,0,0,0-2,0,3.5,3.5,0,0,0-1.43,1.47,9.16,9.16,0,0,0-.75,2c-.22.68-.36,1.38-.54,2.08-1.21,5.66-.51,11.89.28,18.29a155.21,155.21,0,0,1,1.24,21.78,150.7,150.7,0,0,1-1.3,17.77c-.68,5-1.45,9.09-2.08,11.88-.29,1.4-.58,2.47-.76,3.2-.09.34-.16.62-.21.83a1.33,1.33,0,0,1-.1.28.92.92,0,0,1,0-.29q.06-.32.15-.84c.14-.73.4-1.81.65-3.21.56-2.8,1.27-6.85,1.89-11.88a158.69,158.69,0,0,0-.11-39.47c-.8-6.4-1.5-12.68-.24-18.42.18-.71.32-1.42.55-2.11a9,9,0,0,1,.8-2,4,4,0,0,1,1.65-1.67,3,3,0,0,1,2.57,0,4,4,0,0,1,1.62,1.55,7.76,7.76,0,0,1,.81,1.83,22.45,22.45,0,0,1,.86,3.61,20.57,20.57,0,0,1-.13,6.63,3.79,3.79,0,0,1-.54,1.47,2,2,0,0,1-1.35,1,1.78,1.78,0,0,1-1.6-.55,4.21,4.21,0,0,1-.75-1.17,8.53,8.53,0,0,1-.81-4.33,8.18,8.18,0,0,1,.82-3l0-.09.08.06,1.44,1.14A5.49,5.49,0,0,1,591,349.28Z" style="fill:#e0e0e0"></path><path d="M589.79,206.07c0,1.07-27.56,66.92-27.56,66.92L576,262.37l-19.85,46,13.08-13.81-20.9,58.25,12.95-6.56L548.22,387l11.21-10.62-11.21,30.45,88.74-5-21-57.36,12.7,10.63-16.43-41.78,8.41,3.54-19.16-53.82,8.88,4.6Z" style="fill:#e0e0e0"></path><path d="M165.75,470l-3-111.89,15.76-11.82L177.23,344l-14.72,9.42-7.26-81.72h-3.62s-2.59,182.48-6.9,188.75S132.34,470,132.34,470Z" style="fill:#ebebeb"></path><path d="M161.26,464.24a1.94,1.94,0,0,1,0-.36c0-.27.06-.62.11-1.06.11-1,.27-2.33.48-4.07.42-3.54,1-8.65,1.61-15a162.77,162.77,0,0,0,.57-22.26,99.7,99.7,0,0,0-1.49-13.08c-.83-4.5-2-9.12-3.19-13.87a106.84,106.84,0,0,1-2.69-14,54.93,54.93,0,0,1-.31-6.74,53.83,53.83,0,0,1,.6-6.45c.62-4.18,1.57-8.1,2.43-11.76s1.63-7.08,2.1-10.22a42.3,42.3,0,0,0,0-14.94,30.14,30.14,0,0,0-1.08-4c-.16-.42-.28-.76-.37-1a2,2,0,0,1-.11-.35,1.37,1.37,0,0,1,.17.33l.43,1a26.85,26.85,0,0,1,1.2,4,41.18,41.18,0,0,1,.18,15c-.44,3.16-1.19,6.59-2,10.26s-1.76,7.58-2.37,11.74a53.06,53.06,0,0,0-.56,6.4,54.22,54.22,0,0,0,.31,6.69A109,109,0,0,0,160,394.47c1.17,4.74,2.37,9.37,3.19,13.9a100.22,100.22,0,0,1,1.46,13.13,158.32,158.32,0,0,1-.7,22.3c-.62,6.34-1.32,11.44-1.81,15-.26,1.74-.46,3.1-.6,4.06-.07.44-.12.79-.17,1.05A1.52,1.52,0,0,1,161.26,464.24Z" style="fill:#e0e0e0"></path><path d="M137.43,469.93A21,21,0,0,0,155,461.62a27,27,0,0,0,4.16-8.19,62.14,62.14,0,0,0,2.16-10.11,88.24,88.24,0,0,0,.51-23.5,9.27,9.27,0,0,0-1.11-3.84,3.87,3.87,0,0,0-1.42-1.42,3.43,3.43,0,0,0-2.07-.36,5.29,5.29,0,0,0-3.31,2.3,19.75,19.75,0,0,0-1.85,3.44,23.23,23.23,0,0,0-1.43,13.9,7.11,7.11,0,0,0,1.08,3,1.65,1.65,0,0,0,1.35.66,2,2,0,0,0,1.37-.66,5,5,0,0,0,.87-1.24,13.68,13.68,0,0,0,.66-1.33,13.18,13.18,0,0,0,.8-2.68,13,13,0,0,0-1.65-9.07l.28,0a10,10,0,0,0-2.18,8.08,3,3,0,0,1,.09.61,7,7,0,0,1-.41-2.36,10.09,10.09,0,0,1,2.23-6.48l.15-.19.13.2a13.26,13.26,0,0,1,1.8,9.25,11.86,11.86,0,0,1-2.39,5.45,2.59,2.59,0,0,1-1.74.82,2.21,2.21,0,0,1-1.79-.83,7.48,7.48,0,0,1-1.18-3.17,23.42,23.42,0,0,1,1.4-14.13,19.26,19.26,0,0,1,1.89-3.54,7.7,7.7,0,0,1,1.51-1.57,4.74,4.74,0,0,1,2.22-1,4.13,4.13,0,0,1,2.5.43,4.4,4.4,0,0,1,1.64,1.62,9.45,9.45,0,0,1,1.17,4,87.32,87.32,0,0,1-.55,23.61,62.08,62.08,0,0,1-2.24,10.16,27.09,27.09,0,0,1-4.28,8.27,21.76,21.76,0,0,1-12.26,7.79,19.06,19.06,0,0,1-4.24.44c-.49,0-.86-.05-1.11-.07Z" style="fill:#e0e0e0"></path><path d="M157.14,343.06a3.38,3.38,0,0,1-.52-.34l-1.54-1.13.13,0a9,9,0,0,0-.74,3.05,8.76,8.76,0,0,0,.9,4.36,4.27,4.27,0,0,0,.74,1.12,1.45,1.45,0,0,0,1.29.45,1.76,1.76,0,0,0,1.12-.88,3.71,3.71,0,0,0,.5-1.42,21.18,21.18,0,0,0-.84-10.42,7.8,7.8,0,0,0-.8-1.8,3.66,3.66,0,0,0-1.48-1.41,2.38,2.38,0,0,0-2.1,0,3.56,3.56,0,0,0-1.48,1.52,8.64,8.64,0,0,0-.78,2c-.23.69-.37,1.42-.56,2.14-1.25,5.86-.53,12.29.29,18.91a158.45,158.45,0,0,1,1.28,22.52,157.88,157.88,0,0,1-1.34,18.37c-.7,5.21-1.51,9.4-2.16,12.28-.29,1.44-.59,2.55-.78,3.31-.09.35-.16.64-.22.86a1,1,0,0,1-.1.29.94.94,0,0,1,0-.3l.16-.87c.14-.76.41-1.88.67-3.32.57-2.89,1.31-7.08,2-12.29a164.68,164.68,0,0,0,1.2-18.34,164.16,164.16,0,0,0-1.32-22.46c-.83-6.61-1.55-13.1-.25-19,.19-.74.33-1.47.57-2.18a9.83,9.83,0,0,1,.82-2.1,4.1,4.1,0,0,1,1.71-1.72,3.06,3.06,0,0,1,2.66,0,4.13,4.13,0,0,1,1.68,1.6,7.83,7.83,0,0,1,.83,1.89,21.9,21.9,0,0,1,.89,3.73,21.35,21.35,0,0,1-.13,6.85,4,4,0,0,1-.56,1.52,2.1,2.1,0,0,1-1.4,1,1.88,1.88,0,0,1-1.66-.57,4.58,4.58,0,0,1-.77-1.2,8.73,8.73,0,0,1,0-7.57l0-.09.09.07,1.49,1.17A3.3,3.3,0,0,1,157.14,343.06Z" style="fill:#e0e0e0"></path><path d="M155.93,195c0,1.1-28.49,69.18-28.49,69.18l14.24-11-20.52,47.58,13.52-14.27-21.6,60.21L126.47,340,113,382.05l11.59-11L113,402.55l91.75-5.13L183,338.13l13.12,11-17-43.19,8.69,3.66L168,253.94l9.18,4.76Z" style="fill:#e0e0e0"></path><path d="M356.21,470,352,314.87l21.85-16.38-1.73-3.24-20.41,13.06L341.65,195h-5s-3.58,253-9.56,261.69S309.89,470,309.89,470Z" style="fill:#ebebeb"></path><path d="M350,462a2.45,2.45,0,0,1,0-.51c0-.36.09-.85.16-1.47.15-1.33.38-3.22.66-5.64.58-4.9,1.46-12,2.24-20.75a227.36,227.36,0,0,0,.79-30.86,139.57,139.57,0,0,0-2.07-18.13c-1.15-6.25-2.81-12.66-4.43-19.24A150.19,150.19,0,0,1,343.63,346a77.9,77.9,0,0,1-.42-9.35,74,74,0,0,1,.82-8.94c.87-5.79,2.19-11.23,3.37-16.3s2.27-9.82,2.92-14.18a58.67,58.67,0,0,0,0-20.71,41.33,41.33,0,0,0-1.49-5.51l-.52-1.41a2.8,2.8,0,0,1-.15-.49,2.9,2.9,0,0,1,.23.47c.15.34.35.8.6,1.39a36,36,0,0,1,1.66,5.5c1.13,4.85,1.58,12.07.26,20.83-.62,4.38-1.66,9.13-2.82,14.22s-2.44,10.51-3.28,16.27a73.08,73.08,0,0,0-.79,8.88,76.75,76.75,0,0,0,.44,9.27,151.76,151.76,0,0,0,3.73,19.31c1.62,6.58,3.28,13,4.42,19.27a139.31,139.31,0,0,1,2,18.21,219.15,219.15,0,0,1-1,30.92c-.85,8.78-1.83,15.86-2.51,20.75-.35,2.41-.63,4.3-.82,5.63l-.24,1.46A2.11,2.11,0,0,1,350,462Z" style="fill:#e0e0e0"></path><path d="M316.94,469.88a29.5,29.5,0,0,0,7.84-.72,29.94,29.94,0,0,0,16.59-10.8A37.41,37.41,0,0,0,347.12,447a86.93,86.93,0,0,0,3-14,122.83,122.83,0,0,0,.7-32.59,12.74,12.74,0,0,0-1.54-5.32,5.32,5.32,0,0,0-2-2,4.71,4.71,0,0,0-2.87-.5,7.34,7.34,0,0,0-4.59,3.19,26.82,26.82,0,0,0-2.56,4.77,32.27,32.27,0,0,0-2,19.27c.36,1.48.57,3,1.5,4.15a2.33,2.33,0,0,0,1.87.91,2.82,2.82,0,0,0,1.9-.92,7.08,7.08,0,0,0,1.22-1.72c.35-.6.63-1.23.91-1.84a17.75,17.75,0,0,0,1.1-3.71,18.05,18.05,0,0,0-2.28-12.57l.38,0a14,14,0,0,0-3.21,8.77,15,15,0,0,0,.19,2.44,5.1,5.1,0,0,1,.13.83,9.75,9.75,0,0,1-.56-3.27,13.87,13.87,0,0,1,3.08-9l.21-.27.18.29a18.29,18.29,0,0,1,2.49,12.82,16.31,16.31,0,0,1-3.31,7.56,3.62,3.62,0,0,1-2.4,1.14,3.14,3.14,0,0,1-2.49-1.16c-1.08-1.34-1.26-2.9-1.64-4.39a32.62,32.62,0,0,1,1.94-19.6,27.71,27.71,0,0,1,2.62-4.9,10.73,10.73,0,0,1,2.09-2.18,6.76,6.76,0,0,1,3.08-1.35,5.77,5.77,0,0,1,3.48.6,6.2,6.2,0,0,1,2.27,2.25,13.23,13.23,0,0,1,1.62,5.57,121.3,121.3,0,0,1-.77,32.74,85.15,85.15,0,0,1-3.1,14.09,37.85,37.85,0,0,1-5.93,11.47,30.25,30.25,0,0,1-17,10.79A26.57,26.57,0,0,1,319,470c-.68,0-1.19-.07-1.54-.09A2,2,0,0,1,316.94,469.88Z" style="fill:#e0e0e0"></path><path d="M344.27,294a4.74,4.74,0,0,1-.71-.47l-2.14-1.57.18,0a12.3,12.3,0,0,0-1,4.23,12.08,12.08,0,0,0,1.24,6,5.78,5.78,0,0,0,1,1.55,2,2,0,0,0,1.79.63,2.44,2.44,0,0,0,1.56-1.22,5.21,5.21,0,0,0,.69-2,29.51,29.51,0,0,0-1.16-14.44,10.36,10.36,0,0,0-1.12-2.5,5.1,5.1,0,0,0-2.05-2,3.34,3.34,0,0,0-2.91,0,5,5,0,0,0-2.05,2.11,12.13,12.13,0,0,0-1.08,2.8c-.32,1-.52,2-.77,3-1.74,8.12-.74,17,.4,26.22a222.15,222.15,0,0,1,1.77,31.22,216.17,216.17,0,0,1-1.86,25.47c-1,7.22-2.08,13-3,17-.41,2-.83,3.54-1.08,4.59l-.31,1.19a2,2,0,0,1-.13.4,1.21,1.21,0,0,1,0-.42c.05-.31.13-.7.22-1.2.2-1.06.56-2.6.93-4.61.79-4,1.81-9.82,2.71-17a228.19,228.19,0,0,0-.16-56.57c-1.14-9.17-2.15-18.17-.35-26.4.26-1,.47-2,.8-3a12.45,12.45,0,0,1,1.14-2.92,5.6,5.6,0,0,1,2.37-2.38,4.31,4.31,0,0,1,3.68,0,5.89,5.89,0,0,1,2.33,2.22,11.31,11.31,0,0,1,1.15,2.62,30.8,30.8,0,0,1,1.23,5.18,29.68,29.68,0,0,1-.18,9.5,5.66,5.66,0,0,1-.77,2.11,2.93,2.93,0,0,1-1.95,1.44,2.6,2.6,0,0,1-2.29-.79,6.19,6.19,0,0,1-1.07-1.67,12,12,0,0,1,0-10.49l.06-.13.12.1,2.07,1.63A6.23,6.23,0,0,1,344.27,294Z" style="fill:#e0e0e0"></path><path d="M342.59,88.72c0,1.52-39.5,95.92-39.5,95.92l19.75-15.23-28.45,66,18.75-19.79-29.95,83.49,18.57-9.4L283,348.05l16.07-15.23L283,376.46l127.2-7.1-30.12-82.21,18.19,15.22-23.55-59.88,12,5.07-27.45-77.13L372.05,177Z" style="fill:#e0e0e0"></path><path d="M459.73,471.19l-5.06-187.06L481,264.38l-2.09-3.9-24.6,15.75L442.18,139.6h-6.06s-4.31,305.09-11.52,315.56-20.72,16-20.72,16Z" style="fill:#ebebeb"></path><path d="M452.24,461.55a2.35,2.35,0,0,1,0-.61q.06-.66.18-1.77c.19-1.61.46-3.89.8-6.8.7-5.91,1.76-14.45,2.7-25a272.85,272.85,0,0,0,.95-37.21,169.47,169.47,0,0,0-2.49-21.87C453,360.73,451,353,449.07,345.07a179.93,179.93,0,0,1-4.5-23.38,93.76,93.76,0,0,1-.51-11.28,91.64,91.64,0,0,1,1-10.78c1.05-7,2.64-13.54,4.07-19.66s2.73-11.83,3.51-17.09c1.68-10.51,1.25-19.15,0-25a50.77,50.77,0,0,0-1.8-6.64c-.27-.72-.47-1.28-.63-1.7A4.19,4.19,0,0,1,450,229a2.8,2.8,0,0,1,.28.56l.72,1.68a42.36,42.36,0,0,1,2,6.64c1.37,5.84,1.91,14.54.32,25.11-.75,5.28-2,11-3.4,17.14s-2.95,12.68-4,19.63a90.53,90.53,0,0,0-.95,10.7,92.19,92.19,0,0,0,.53,11.18,181.33,181.33,0,0,0,4.5,23.29c1.95,7.93,3.95,15.67,5.33,23.24a168.94,168.94,0,0,1,2.44,21.95,263,263,0,0,1-1.17,37.29c-1,10.59-2.21,19.13-3,25-.43,2.91-.76,5.19-1,6.79-.12.74-.22,1.32-.29,1.76A2.67,2.67,0,0,1,452.24,461.55Z" style="fill:#e0e0e0"></path><path d="M412.39,471.06a35,35,0,0,0,29.45-13.89,45.22,45.22,0,0,0,6.94-13.69,103.42,103.42,0,0,0,3.62-16.9,147.65,147.65,0,0,0,.84-39.3,15.28,15.28,0,0,0-1.84-6.41,6.42,6.42,0,0,0-2.39-2.38,5.73,5.73,0,0,0-3.45-.6c-2.42.35-4.23,2.11-5.54,3.85a31.94,31.94,0,0,0-3.08,5.75,38.84,38.84,0,0,0-2.4,23.23c.43,1.79.68,3.64,1.81,5a2.78,2.78,0,0,0,2.25,1.1,3.45,3.45,0,0,0,2.29-1.11,8.3,8.3,0,0,0,1.47-2.07,20.84,20.84,0,0,0,1.09-2.23A21.67,21.67,0,0,0,442,391.79l.47,0a17,17,0,0,0-3.88,10.59,17.69,17.69,0,0,0,.23,2.93,7.28,7.28,0,0,1,.16,1,11.81,11.81,0,0,1-.68-3.94,16.77,16.77,0,0,1,3.72-10.83l.25-.33.21.35a22,22,0,0,1,3,15.45,19.62,19.62,0,0,1-4,9.12,4.31,4.31,0,0,1-2.9,1.37,3.73,3.73,0,0,1-3-1.39c-1.31-1.61-1.53-3.49-2-5.29A39.44,39.44,0,0,1,436,387.21a33.53,33.53,0,0,1,3.16-5.91,13,13,0,0,1,2.53-2.62,7.91,7.91,0,0,1,3.71-1.63,7,7,0,0,1,4.19.72,7.35,7.35,0,0,1,2.74,2.71,15.89,15.89,0,0,1,1.95,6.72,145.94,145.94,0,0,1-.92,39.48,104.28,104.28,0,0,1-3.74,17,45.62,45.62,0,0,1-7.16,13.83,36.4,36.4,0,0,1-20.5,13,31.07,31.07,0,0,1-7.09.73c-.81,0-1.43-.08-1.85-.11A3.56,3.56,0,0,1,412.39,471.06Z" style="fill:#e0e0e0"></path><path d="M445.34,259a5.19,5.19,0,0,1-.86-.57l-2.58-1.89.22,0a14.7,14.7,0,0,0-1.23,5.1,14.45,14.45,0,0,0,1.5,7.28,6.66,6.66,0,0,0,1.23,1.87,2.41,2.41,0,0,0,2.16.76,2.91,2.91,0,0,0,1.88-1.47,6.3,6.3,0,0,0,.82-2.38,35.08,35.08,0,0,0,.11-11.28,36.24,36.24,0,0,0-1.5-6.13,13.12,13.12,0,0,0-1.35-3,6.31,6.31,0,0,0-2.47-2.36,4.1,4.1,0,0,0-3.52,0,6.05,6.05,0,0,0-2.47,2.54,14.8,14.8,0,0,0-1.3,3.38c-.39,1.16-.62,2.38-.93,3.58-2.1,9.79-.89,20.55.49,31.61a269.32,269.32,0,0,1,2.14,37.65,265.25,265.25,0,0,1-2.25,30.72c-1.18,8.71-2.52,15.71-3.6,20.53-.5,2.41-1,4.27-1.31,5.53-.15.59-.28,1.07-.37,1.44a1.64,1.64,0,0,1-.17.48,3.14,3.14,0,0,1,.06-.5c.07-.37.16-.85.28-1.45.23-1.27.67-3.14,1.11-5.56,1-4.83,2.19-11.83,3.27-20.53a274.57,274.57,0,0,0-.19-68.22c-1.38-11.06-2.59-21.91-.42-31.84.31-1.22.56-2.45,1-3.64a16,16,0,0,1,1.37-3.52,7,7,0,0,1,2.86-2.87,5.15,5.15,0,0,1,4.44,0,6.92,6.92,0,0,1,2.81,2.67,13.66,13.66,0,0,1,1.39,3.16,36.81,36.81,0,0,1,1.48,6.24,35.47,35.47,0,0,1-.22,11.46,6.77,6.77,0,0,1-.92,2.54,3.55,3.55,0,0,1-2.35,1.74,3.12,3.12,0,0,1-2.77-1,7.43,7.43,0,0,1-1.29-2,14.57,14.57,0,0,1,0-12.64l.08-.16.14.11,2.49,2A6.5,6.5,0,0,1,445.34,259Z" style="fill:#e0e0e0"></path><path d="M443.32,11.43c0,1.84-47.63,115.66-47.63,115.66l23.81-18.36-34.31,79.56,22.61-23.87L371.68,265.09l22.39-11.32-22.6,70.37,19.37-18.36-19.37,52.63,153.39-8.57-36.33-99.13,21.94,18.35-28.4-72.21L496.6,203l-33.1-93,15.34,8Z" style="fill:#e0e0e0"></path><path d="M538.57,468.41l-3.33-123,17.33-13-1.37-2.57L535,340.22l-8-89.83h-4S520.21,451,515.47,457.86s-13.62,10.55-13.62,10.55Z" style="fill:#ebebeb"></path><path d="M533.65,462.07a1.24,1.24,0,0,1,0-.4c0-.29.07-.68.13-1.17.12-1.05.3-2.55.52-4.47.46-3.88,1.16-9.5,1.77-16.46a178,178,0,0,0,.63-24.46,111.6,111.6,0,0,0-1.64-14.38c-.91-5-2.23-10-3.51-15.25a118.66,118.66,0,0,1-3-15.37,62.14,62.14,0,0,1-.33-7.42,60.43,60.43,0,0,1,.65-7.09c.69-4.59,1.74-8.9,2.68-12.92s1.79-7.78,2.31-11.24a46.54,46.54,0,0,0,0-16.42,32.52,32.52,0,0,0-1.19-4.37l-.41-1.12a2,2,0,0,1-.12-.38,1.49,1.49,0,0,1,.19.36c.11.28.27.64.47,1.11a29.76,29.76,0,0,1,1.32,4.36,45.44,45.44,0,0,1,.2,16.51c-.49,3.48-1.31,7.24-2.23,11.28s-1.94,8.33-2.61,12.9a53.3,53.3,0,0,0-.27,14.39,118.78,118.78,0,0,0,3,15.31c1.28,5.21,2.59,10.3,3.5,15.28a110.57,110.57,0,0,1,1.61,14.43,172.06,172.06,0,0,1-.78,24.52c-.67,7-1.45,12.58-2,16.45-.28,1.91-.49,3.41-.65,4.46-.08.49-.14.87-.19,1.16A2,2,0,0,1,533.65,462.07Z" style="fill:#e0e0e0"></path><path d="M507.44,468.32a23,23,0,0,0,19.37-9.13,29.6,29.6,0,0,0,4.56-9,68.1,68.1,0,0,0,2.38-11.1,96.87,96.87,0,0,0,.56-25.84,10.1,10.1,0,0,0-1.22-4.22,4.27,4.27,0,0,0-1.56-1.57,3.87,3.87,0,0,0-2.28-.39,5.85,5.85,0,0,0-3.64,2.53,22.25,22.25,0,0,0-2,3.78A25.62,25.62,0,0,0,522,428.65a7.88,7.88,0,0,0,1.19,3.29,1.8,1.8,0,0,0,1.48.72,2.18,2.18,0,0,0,1.5-.73,5.37,5.37,0,0,0,1-1.36,15.18,15.18,0,0,0,.72-1.46,14.25,14.25,0,0,0-.94-12.91l.31,0a11.17,11.17,0,0,0-2.55,6.95,11.91,11.91,0,0,0,.15,1.93c.08.44.12.66.11.66a7.78,7.78,0,0,1-.45-2.59,11.1,11.1,0,0,1,2.44-7.12l.17-.21.14.23a14.53,14.53,0,0,1,2,10.16,12.89,12.89,0,0,1-2.63,6,2.86,2.86,0,0,1-1.9.91,2.48,2.48,0,0,1-2-.92,8.09,8.09,0,0,1-1.3-3.48A25.83,25.83,0,0,1,523,413.19,21.83,21.83,0,0,1,525,409.3a9,9,0,0,1,1.66-1.72,5.28,5.28,0,0,1,2.44-1.07,4.59,4.59,0,0,1,2.76.47,5,5,0,0,1,1.8,1.78,10.41,10.41,0,0,1,1.28,4.42,96,96,0,0,1-.6,26,69.35,69.35,0,0,1-2.46,11.17,29.76,29.76,0,0,1-4.71,9.09A24,24,0,0,1,513.73,468a20.81,20.81,0,0,1-4.66.48c-.53,0-.94-.06-1.21-.07Z" style="fill:#e0e0e0"></path><path d="M529.11,328.86a3.86,3.86,0,0,1-.56-.38l-1.7-1.24.14,0a9.78,9.78,0,0,0-.81,3.35,9.59,9.59,0,0,0,1,4.8,4.6,4.6,0,0,0,.81,1.23,1.6,1.6,0,0,0,1.42.49,1.87,1.87,0,0,0,1.23-1,4,4,0,0,0,.55-1.56,23.25,23.25,0,0,0,.07-7.42,24.65,24.65,0,0,0-1-4,8.94,8.94,0,0,0-.88-2,4.2,4.2,0,0,0-1.63-1.55,2.64,2.64,0,0,0-2.31,0,4,4,0,0,0-1.63,1.67,9.72,9.72,0,0,0-.85,2.22c-.26.77-.41,1.56-.61,2.36-1.38,6.44-.59,13.51.31,20.78a174,174,0,0,1-.06,44.95c-.78,5.73-1.66,10.34-2.37,13.5-.33,1.59-.66,2.81-.86,3.64-.1.39-.19.7-.25.94s-.09.32-.11.32a2.08,2.08,0,0,1,0-.33c.05-.24.11-.56.18-.95.16-.84.45-2.07.73-3.66.64-3.17,1.45-7.78,2.16-13.5a182.77,182.77,0,0,0,1.32-20.16A180.15,180.15,0,0,0,522,346.67c-.91-7.27-1.7-14.4-.28-20.93.21-.81.37-1.62.64-2.4a9.78,9.78,0,0,1,.9-2.31,4.5,4.5,0,0,1,1.88-1.89,3.39,3.39,0,0,1,2.92,0,4.48,4.48,0,0,1,1.84,1.76,9.06,9.06,0,0,1,.92,2.08,23.48,23.48,0,0,1,.83,11.63,4.43,4.43,0,0,1-.61,1.67,2.34,2.34,0,0,1-1.55,1.15,2,2,0,0,1-1.81-.63,4.88,4.88,0,0,1-.85-1.33,9.52,9.52,0,0,1-.92-4.92,9.64,9.64,0,0,1,.93-3.39l0-.1.1.07,1.64,1.29A4,4,0,0,1,529.11,328.86Z" style="fill:#e0e0e0"></path><path d="M527.78,166.12c0,1.2-31.32,76-31.32,76l15.66-12.07L489.56,282.4l14.87-15.7-23.75,66.2,14.72-7.45-14.86,46.27,12.74-12.07-12.74,34.6,100.85-5.63-23.88-65.18,14.42,12.07L553.26,288l9.55,4L541.05,230.9l10.09,5.23Z" style="fill:#ebebeb"></path></g><g id="background-simple"><path d="M344,101.15l-.91,2.69c-7.65,22.7-2.61,47.84,13.8,65a61.89,61.89,0,0,0,6.8,6.14c17.4,13.5,41.94,17.34,62.9,9.84,12.32-4.42,23.95-12.54,37-12.19,17,.47,29.62,14.86,40.07,28.08s23.15,27.59,40.11,28c10.63.24,20.74-5.35,28.53-12.66,20.64-19.36,27.28-50.69,20.75-77.93S568.4,87.58,546.52,70.18C515.86,45.81,476.09,31.58,436.84,36S359.82,64.89,344,101.15Z" style="fill:#f5f5f5"></path><circle cx="228.29" cy="182.98" r="79.52" style="fill:#f5f5f5"></circle></g><g id="Floor"><path d="M706,471c0,.14-148.21.26-331,.26S44,471.15,44,471s148.18-.26,331-.26S706,470.87,706,471Z" style="fill:#263238"></path></g><g id="Plants"><path d="M284.11,427.4a8.15,8.15,0,0,1,4.2,4.75,14.31,14.31,0,0,1,.55,6.44c-.47,4.18-2.84,8.39-5.4,11.73-3.52-3.07-4.32-8.42-4.56-11.17-.38-4.33,1.56-12.39,5.21-11.75" style="fill:#FF725E"></path><path d="M287.55,457.21a6.9,6.9,0,0,1,2.23-6.56,9.16,9.16,0,0,1,6.76-2.12,3.89,3.89,0,0,1,3,1.34,3,3,0,0,1,.05,3,6,6,0,0,1-2.22,2.18c-3,1.91-6.35,3.21-9.79,2.17" style="fill:#FF725E"></path><path d="M283,470a5.68,5.68,0,0,1,.12-.86c.12-.6.26-1.38.43-2.32a24.45,24.45,0,0,1,2.39-7.41,14.85,14.85,0,0,1,5.32-5.65,10.41,10.41,0,0,1,2.17-1c.26-.09.48-.12.62-.16a.66.66,0,0,1,.23,0,15.48,15.48,0,0,0-2.91,1.34,15.3,15.3,0,0,0-5.16,5.61,26,26,0,0,0-2.45,7.3c-.21,1-.39,1.76-.52,2.3A4.66,4.66,0,0,1,283,470Z" style="fill:#263238"></path><path d="M283.17,433.67a1.42,1.42,0,0,1,0,.38l.07,1.08c.05.93.1,2.28.16,4,.11,3.34.19,8,.17,13.08s-.15,9.73-.29,13.08c-.06,1.67-.13,3-.19,4,0,.44-.05.79-.07,1.07a1.65,1.65,0,0,1-.05.38,2.21,2.21,0,0,1,0-.38c0-.28,0-.64,0-1.08,0-1,.06-2.32.1-4,.08-3.35.17-8,.19-13.07s0-9.73-.08-13.08c0-1.64,0-3-.06-4v-1.08A2.79,2.79,0,0,1,283.17,433.67Z" style="fill:#263238"></path><path d="M281.46,459.75a16.15,16.15,0,0,0-8.81-11.83c-1.18-.56-2.71-.93-3.68-.05s-.75,2.44-.28,3.66a13.81,13.81,0,0,0,12.69,8.57" style="fill:#FF725E"></path><path d="M273.22,451.88a4.51,4.51,0,0,1,.74.33,6.51,6.51,0,0,1,.84.45c.32.2.7.39,1.08.67a14.23,14.23,0,0,1,1.23.93,17.14,17.14,0,0,1,1.3,1.18,18.37,18.37,0,0,1,2.49,3.19,17.88,17.88,0,0,1,1.63,3.7,15.87,15.87,0,0,1,.42,1.72,13.43,13.43,0,0,1,.21,1.52c.06.47,0,.9.06,1.27a9.24,9.24,0,0,1,0,1,4.17,4.17,0,0,1-.09.8c-.07,0,0-1.16-.16-3a13.24,13.24,0,0,0-.24-1.5,15,15,0,0,0-.44-1.68,18.19,18.19,0,0,0-1.62-3.63,19.24,19.24,0,0,0-2.43-3.15,13.84,13.84,0,0,0-1.27-1.19,13.16,13.16,0,0,0-1.19-.94C274.24,452.42,273.18,451.94,273.22,451.88Z" style="fill:#263238"></path></g><g id="Birds"><path d="M584.11,142.37s-1-.34-2.81-.75a22.5,22.5,0,0,0-7.86-.3,21.17,21.17,0,0,0-10.6,4.57,21.92,21.92,0,0,0-7.47,11.87l0,.13-.22.85-.32-.81a23.72,23.72,0,0,0-8.95-10.81,22.9,22.9,0,0,0-10.94-3.64,24.25,24.25,0,0,0-7.81.71c-1.8.48-2.76.9-2.78.84a4.34,4.34,0,0,1,.68-.32,16.08,16.08,0,0,1,2-.73,23.4,23.4,0,0,1,19.09,2.7,24,24,0,0,1,9.2,11l-.55,0,0-.13a22.33,22.33,0,0,1,7.7-12.15,21.25,21.25,0,0,1,10.87-4.56,21.61,21.61,0,0,1,8,.48,15.13,15.13,0,0,1,2.07.66A3.12,3.12,0,0,1,584.11,142.37Z" style="fill:#263238"></path><path d="M662.72,99.23s-.56-.15-1.56-.36a12.65,12.65,0,0,0-4.3-.12,11.64,11.64,0,0,0-5.77,2.51,12,12,0,0,0-4.06,6.47l0,.07-.22.85-.32-.81A13,13,0,0,0,641.6,102a12.51,12.51,0,0,0-6-2,13.26,13.26,0,0,0-4.27.35c-1,.24-1.53.46-1.54.41s.11-.09.36-.2a9,9,0,0,1,1.12-.43,12.77,12.77,0,0,1,10.58,1.44,13.27,13.27,0,0,1,5.11,6.12l-.54,0v-.07a12.38,12.38,0,0,1,4.29-6.75,11.73,11.73,0,0,1,6-2.5,11.5,11.5,0,0,1,4.41.31,7.84,7.84,0,0,1,1.14.38A1.46,1.46,0,0,1,662.72,99.23Z" style="fill:#263238"></path><path d="M611.33,81.58s-.54.62-1.51,1.71a36.74,36.74,0,0,0-9.17,24.37v.24l-.57,0a31.81,31.81,0,0,0-3.55-10.5A32.85,32.85,0,0,0,586.46,86.2c-1.19-.83-1.89-1.25-1.86-1.29a2.18,2.18,0,0,1,.53.25c.33.2.85.44,1.45.85a29.39,29.39,0,0,1,4.84,3.87,32,32,0,0,1,9.22,18l-.57,0v-.24a35.59,35.59,0,0,1,5.71-19.61,32.56,32.56,0,0,1,3.86-4.92c.5-.54.94-.91,1.22-1.18A2.54,2.54,0,0,1,611.33,81.58Z" style="fill:#263238"></path></g><g id="pick-up-truck"><path d="M313.09,406.81c0,.15-13.11.26-29.29.26s-29.3-.11-29.3-.26,13.11-.26,29.3-.26S313.09,406.67,313.09,406.81Z" style="fill:#fff"></path><rect x="86.43" y="403.1" width="65.67" height="7.43" style="fill:#e0e0e0"></rect><path d="M88.14,406.81c0,2.05-.76,3.71-1.71,3.71s-1.71-1.66-1.71-3.71.77-3.71,1.71-3.71S88.14,404.76,88.14,406.81Z" style="fill:#263238"></path><g style="opacity:0.30000000000000004"><path d="M119.9,403.1a10,10,0,0,0-.37,7.42h7.28V403.1Z"></path></g><rect x="104.37" y="346.21" width="157.3" height="51.64" style="fill:#FF725E"></rect><rect x="104.37" y="346.21" width="157.3" height="51.64" style="opacity:0.30000000000000004"></rect><path d="M325,307.86v89.85A12.28,12.28,0,0,1,312.72,410H245.26a8.16,8.16,0,0,1-8.06-6.92c-2.38-15.46-13-51.43-59.94-51.66-42.55-.21-57.3,28.52-61.65,40.8a8.15,8.15,0,0,1-7.71,5.44l-45.37-.15a14.69,14.69,0,0,1-14.65-14.67l-.16-77.7A8.14,8.14,0,0,1,56,297l261,2.74A8.15,8.15,0,0,1,325,307.86Z" style="fill:#FF725E"></path><path d="M113.78,398.23l-56.54-.37c-3.21,0-9.54-2.41-9.54-13.18V372.77l78.39.73A74.56,74.56,0,0,0,113.78,398.23Z" style="fill:#e0e0e0"></path><rect x="47.7" y="336.28" width="14.44" height="29.07" rx="2.7" style="fill:#fff;opacity:0.30000000000000004"></rect><path d="M57.11,329.27H321.75a3.06,3.06,0,0,0,3.06-3.06h0a3.06,3.06,0,0,0-3.06-3.06H57.11a3.06,3.06,0,0,0-3.06,3.06h0A3.06,3.06,0,0,0,57.11,329.27Z" style="opacity:0.30000000000000004"></path><path d="M324.41,302,47.74,300.38a2.13,2.13,0,0,1-2.11-2.13h0a2.12,2.12,0,0,1,2.14-2.11l276.67,1.59a2.12,2.12,0,0,1,2.11,2.13h0A2.13,2.13,0,0,1,324.41,302Z" style="fill:#e0e0e0"></path><path d="M324.41,302a2.26,2.26,0,0,0,1.34-.5,2.09,2.09,0,0,0,.75-1.55,2.07,2.07,0,0,0-1.21-1.95,3.24,3.24,0,0,0-1.45-.19h-5.48l-9.53,0-60.72-.27L47.78,296.4a1.87,1.87,0,0,0-1.87,2.13,1.85,1.85,0,0,0,.85,1.3,2.68,2.68,0,0,0,1.62.29l7.27,0,14.39.09,28.14.16,53.19.32,90.06.58,60.72.43,16.51.14,4.29.05,1.46,0L323,302h-4.29l-16.51-.05-60.72-.26-90.06-.47-53.19-.29L70,300.77l-14.39-.09-7.27,0a7.72,7.72,0,0,1-1,0,2.54,2.54,0,0,1-1-.35,2.38,2.38,0,0,1,1.3-4.39l200.33,1.22,60.72.44,9.53.07,3.82,0h1.66a3.25,3.25,0,0,1,1.5.22,2.16,2.16,0,0,1,1.24,2.05,2.12,2.12,0,0,1-.8,1.58A2,2,0,0,1,324.41,302Z" style="fill:#263238"></path><path d="M321.23,410H237.89c0-7.33-4.08-20.79-9.31-31H325v27.25A3.78,3.78,0,0,1,321.23,410Z" style="fill:#e0e0e0"></path><path d="M228.29,353.54a.92.92,0,0,1-.25-.12l-.72-.4c-.63-.34-1.53-.92-2.74-1.56a95.85,95.85,0,0,0-10.46-5A92.16,92.16,0,0,0,156,342.61a93.06,93.06,0,0,0-16.14,5.78,95.66,95.66,0,0,0-10.2,5.49c-1.17.7-2,1.32-2.65,1.7l-.7.44c-.16.09-.24.14-.25.13a1.19,1.19,0,0,1,.22-.18l.67-.48c.59-.4,1.44-1.05,2.61-1.78a85.62,85.62,0,0,1,10.14-5.66,91.63,91.63,0,0,1,74.53-1.9,84.86,84.86,0,0,1,10.42,5.14c1.2.66,2.08,1.27,2.7,1.64l.69.45Z" style="fill:#263238"></path><path d="M229.32,417.64s0-.09,0-.14h0a54,54,0,0,0-108-1.55h0s0,.09,0,.13,0,.21,0,.31,0,.06,0,.09a54,54,0,1,0,108,1.55c0-.1,0-.2,0-.3S229.32,417.67,229.32,417.64Z" style="fill:#263238"></path><path d="M141.6,416.77a33.72,33.72,0,1,0,34.21-33.23A33.71,33.71,0,0,0,141.6,416.77Z" style="fill:#e0e0e0"></path><path d="M175.81,383.54a33.72,33.72,0,0,0-34.21,33.23l67.44,1A33.71,33.71,0,0,0,175.81,383.54Z" style="fill:#e0e0e0"></path><path d="M147.6,416.86a27.73,27.73,0,1,0,28.12-27.33A27.72,27.72,0,0,0,147.6,416.86Z" style="fill:#263238"></path><path d="M162.84,389.31c.29.44,10.53,12.85,10.53,12.85h5.34l10.11-11.69,9.67,6.64-8.09,13.56.73,4.05,15.3,7.79L200.8,434.2l-13.86-5.48-4.19,2.45-1.58,17.32-12.7-.87-.15-16.31-4-3.6-16,4.47-4-12.12L160.67,415l1.73-4.47-9.67-15.73Z" style="fill:#e0e0e0"></path><circle cx="175.32" cy="417.74" r="4.94" style="fill:#263238"></circle><path d="M286.44,328.86c0,.14-50.51.26-112.8.26S60.83,329,60.83,328.86s50.5-.26,112.81-.26S286.44,328.71,286.44,328.86Z" style="fill:#263238"></path><path d="M319.19,394.81c0,.14-18.4.26-41.1.26S237,395,237,394.81s18.41-.26,41.12-.26S319.19,394.66,319.19,394.81Z" style="fill:#263238"></path><path d="M52.26,385.49c0-.14,14.81-.26,33.07-.26s33.08.12,33.08.26-14.81.26-33.08.26S52.26,385.63,52.26,385.49Z" style="fill:#263238"></path><rect x="241.67" y="398.01" width="78.34" height="9.47" rx="2.59" style="fill:#fff;opacity:0.4"></rect><rect x="56.72" y="386.64" width="54.59" height="9.47" rx="2.59" style="fill:#fff;opacity:0.4"></rect><path d="M106.27,395.45c0,.14-9.58.26-21.4.26s-21.39-.12-21.39-.26,9.58-.26,21.39-.26S106.27,395.3,106.27,395.45Z" style="fill:#fff"></path><g style="opacity:0.4"><path d="M175.66,343.62a80.51,80.51,0,0,0-50.29,16.71,6.05,6.05,0,0,0-1.73,1.8,2.16,2.16,0,0,0,.09,2.37c.54.64,1.85,1.21,4-.47,16.11-13.94,30-17.17,47.81-17.3,1.16,0,2.71-.35,2.74-1.5S176.82,343.65,175.66,343.62Z" style="fill:#fff"></path></g><circle cx="184.67" cy="345.05" r="1.68" style="fill:#fff;opacity:0.4"></circle><path d="M235,322.42c0,.14-35,.26-78.24.26s-78.25-.12-78.25-.26,35-.26,78.25-.26S235,322.27,235,322.42Z" style="fill:#fff"></path><path d="M270.51,322.7a81,81,0,0,1-9.1.26,80.8,80.8,0,0,1-9.1-.26,78.06,78.06,0,0,1,9.1-.26A78.2,78.2,0,0,1,270.51,322.7Z" style="fill:#fff"></path><path d="M59.45,365.35a8,8,0,0,0,.81-.18,2.68,2.68,0,0,0,1.61-1.58,4.23,4.23,0,0,0,.15-1.68c0-.63,0-1.32,0-2.06,0-1.49,0-3.17,0-5,0-3.74,0-8.18-.05-13.09,0-.62,0-1.24,0-1.88a4.54,4.54,0,0,0-.18-1.79,2.48,2.48,0,0,0-1.18-1.27,3.57,3.57,0,0,0-1.84-.26H50.4A2.44,2.44,0,0,0,48,339V343c0,2.68,0,5.27,0,7.73s0,4.81,0,7c0,1.1,0,2.15,0,3.17,0,.51,0,1,0,1.5a2.72,2.72,0,0,0,.25,1.31,2.52,2.52,0,0,0,1.92,1.41c.8,0,1.62,0,2.35,0l3.8.05,2.4.05a4.22,4.22,0,0,1,.84.05,5.5,5.5,0,0,1-.84,0l-2.4.05-3.8,0c-.75,0-1.51.05-2.39,0a2.9,2.9,0,0,1-2.21-1.58,3.11,3.11,0,0,1-.3-1.47c0-.49,0-1,0-1.5,0-1,0-2.07,0-3.17,0-2.19,0-4.53,0-7s0-5,0-7.73c0-1.34,0-2.71,0-4.1a2.93,2.93,0,0,1,.87-2.06A3,3,0,0,1,50.4,336h8.3c.35,0,.65,0,1,0a2.66,2.66,0,0,1,1,.3,2.94,2.94,0,0,1,1.42,1.53,3.05,3.05,0,0,1,.21,1v2.83c0,4.91,0,9.35-.06,13.09,0,1.86,0,3.54,0,5,0,.74,0,1.43,0,2.06a4.46,4.46,0,0,1-.21,1.75,2.78,2.78,0,0,1-1.77,1.61A2.07,2.07,0,0,1,59.45,365.35Z" style="fill:#263238"></path><path d="M113.78,398.23a6,6,0,0,1-.88,0l-2.53.05-9.28.08-30.62.08H61.74a36.35,36.35,0,0,1-4.18-.12,11.16,11.16,0,0,1-3.85-1.24,11.67,11.67,0,0,1-5.09-5.33,13.06,13.06,0,0,1-1.1-6.34c0-3.88.06-7,.08-9.28,0-1.06,0-1.9,0-2.52a6,6,0,0,1,.05-.88,4.59,4.59,0,0,1,0,.88c0,.62,0,1.46,0,2.52,0,2.24.05,5.4.09,9.28A12.73,12.73,0,0,0,49,391.6a11.35,11.35,0,0,0,4.92,5.1,10.82,10.82,0,0,0,3.7,1.16,34.61,34.61,0,0,0,4.11.11h8.73l30.62.07,9.28.09,2.53.05A4.59,4.59,0,0,1,113.78,398.23Z" style="fill:#263238"></path><path d="M325.52,379.21a1.25,1.25,0,0,1,0,.3c0,.23,0,.52,0,.88,0,.81,0,1.94.05,3.38,0,3,.05,7.21.08,12.43,0,2.62,0,5.5,0,8.58a5.77,5.77,0,0,1-1.93,4.41,5.53,5.53,0,0,1-2.27,1.23,9.23,9.23,0,0,1-2.61.22l-22.57,0-41-.08-12.43-.08-3.37-.05-.88,0a1,1,0,0,1-.3,0l.3,0,.88,0,3.37-.05,12.43-.09,41-.07,22.57,0a8.81,8.81,0,0,0,2.49-.19,5.11,5.11,0,0,0,2.09-1.12,5.29,5.29,0,0,0,1.79-4.07c0-3.08,0-6,0-8.58,0-5.22.06-9.46.08-12.43,0-1.44,0-2.57.05-3.38,0-.36,0-.65,0-.88A1.25,1.25,0,0,1,325.52,379.21Z" style="fill:#263238"></path><rect x="513.72" y="351.5" width="157.3" height="51.64" style="fill:#FF725E"></rect><rect x="513.72" y="351.5" width="157.3" height="51.64" style="opacity:0.30000000000000004"></rect><path d="M342.81,228.69l119.37,1.09S476,228.57,484.23,241c4.61,7,51.69,53.79,51.69,53.79s78.53,5.51,103.49,10.07,48.2,11,50.78,22.08,0,50.63,0,50.63H658.86s-9.21-22.88-50-20-51.73,53.76-51.73,53.76l-228.73-.92V310.73l7.88-76.23A6.48,6.48,0,0,1,342.81,228.69Z" style="fill:#FF725E"></path><polygon points="674.19 415.4 674.19 426.79 693.31 426.79 695.2 415.4 674.19 415.4" style="fill:#263238"></polygon><path d="M661.32,376.22l-3.06,2.48c.45-.56,10,14.33,11,23.34.64,5.79,1.72,11.5,1.9,14.43a2,2,0,0,0,2.07,1.9l25.46-.63s3.21.6,3.82-5.47,2.64-26.06,1.59-28.84c-1.76-4.66-13-3.71-13-3.71l-.17-3.5Z" style="fill:#e0e0e0"></path><path d="M690.82,331.07s-12.58,0-13.85,0c-1.9,0-6.15.22-6,7.59.15,9.49,0,22.25,0,22.25s-1,6.9,6.18,6.9c6.36,0,13.6,0,13.6,0s.7-15.83.61-21.26c-.06-3.83-.19-9.84-.32-13.11C691,332,690.82,331.07,690.82,331.07Z" style="fill:#e0e0e0"></path><path d="M691.07,334.2h-12.7a4.63,4.63,0,0,0-4.11,4.74c-.15,2.7,0,14.51,0,14.51h17s.07-7.47,0-11.35S691.07,334.2,691.07,334.2Z" style="fill:#FF725E"></path><path d="M674.23,353.45l.06,6.62a4.43,4.43,0,0,0,4.86,4.47c4.86-.07,11.71,0,11.71,0l.42-11.11Z" style="fill:#fff"></path><path d="M500.35,285.35l-2.66,15.42h10.06a2.55,2.55,0,0,0,2.56-2.56h0a2.51,2.51,0,0,0-.59-1.63C507.84,294.31,502,287.26,500.35,285.35Z" style="fill:#263238"></path><path d="M407.22,239.89s-6.37-.8-6.77,7.57c-.34,7.13-1,40.19-1.15,49.78a2.58,2.58,0,0,0,2.57,2.63l95.68.69a3.23,3.23,0,0,0,3.24-3.3l-.25-10.51a3.25,3.25,0,0,0-.72-1.95l-34.67-43a2.6,2.6,0,0,0-2-1Z" style="fill:#455a64"></path><path d="M407.22,239.89s.26,0,.76,0l2.21,0,8.52.1,31.32.46,10.37.16,2.73,0a2.89,2.89,0,0,1,1.43.38,3.79,3.79,0,0,1,1.05,1l3.6,4.46,15.61,19.3,8.43,10.44,4.36,5.4,2.21,2.74a3.68,3.68,0,0,1,.88,1.64,11.63,11.63,0,0,1,.12,1.83q.07,3.56.17,7.19l0,1.82a3.68,3.68,0,0,1-.3,1.89,3.46,3.46,0,0,1-3.15,2l-14.94-.1-56.89-.43-12.78-.1-6.12-.05-3,0h-1.47a3.85,3.85,0,0,1-1.52-.2,2.82,2.82,0,0,1-1.77-2.38c0-1,0-1.91,0-2.86.05-1.88.09-3.72.14-5.52q.13-5.42.25-10.38c.34-13.21.62-23.9.81-31.31a10.45,10.45,0,0,1,1.26-4.74,5.85,5.85,0,0,1,2.69-2.36,6.21,6.21,0,0,1,2.17-.49,3.87,3.87,0,0,1,.75,0,5.28,5.28,0,0,0-.75,0,6.32,6.32,0,0,0-2.12.52,5.75,5.75,0,0,0-2.6,2.35,10.27,10.27,0,0,0-1.2,4.67c-.15,7.41-.37,18.1-.64,31.31q-.11,5-.22,10.38-.06,2.7-.12,5.52c0,.93-.05,1.9-.05,2.81a2.39,2.39,0,0,0,1.51,2,3.51,3.51,0,0,0,1.36.16h1.48l3,0,6.12,0,12.77.08,56.89.39,14.94.11a3,3,0,0,0,2.68-1.74,3.31,3.31,0,0,0,.26-1.67l0-1.82q-.09-3.61-.17-7.19a11.71,11.71,0,0,0-.1-1.72,3.23,3.23,0,0,0-.78-1.44L497.22,282l-4.35-5.4-8.43-10.46-15.56-19.33-3.59-4.47c-1-1.76-3.15-1.15-4.9-1.3l-10.38-.2-31.31-.63-8.51-.2-2.22-.06Z" style="fill:#263238"></path><polygon points="468.39 245.84 467.56 299.98 474.24 300.67 474.24 253.09 468.39 245.84" style="fill:#263238"></polygon><path d="M380.55,239.87l-4,59.18a192.59,192.59,0,0,1-23.13-3.27,54.32,54.32,0,0,1-8-2.65,11.36,11.36,0,0,1-6.62-11.4l3.29-35.85a6.08,6.08,0,0,1,5.89-6Z" style="fill:#455a64"></path><path d="M380.55,239.87l-.49,0h-1.41l-5.35,0-19.58.1c-2.05,0-4.25,0-6.45.07a5.84,5.84,0,0,0-4.73,4.34,8.58,8.58,0,0,0-.25,1.77c-.06.62-.11,1.24-.17,1.87-.11,1.25-.23,2.52-.34,3.82q-.36,3.87-.73,8c-.49,5.45-1,11.17-1.55,17.11l-.41,4.49a11.28,11.28,0,0,0,.39,4.43,11.1,11.1,0,0,0,5.71,6.8,48.76,48.76,0,0,0,7.92,2.72c2.69.62,5.39,1.1,8,1.53,5.32.83,10.49,1.42,15.43,1.84l-.26.23c1.21-17.27,2.25-32,3-42.49.38-5.23.69-9.38.89-12.25.11-1.42.2-2.51.26-3.28l.07-.85a2.29,2.29,0,0,1,0-.3,1.68,1.68,0,0,1,0,.27c0,.2,0,.47,0,.82-.05.76-.11,1.84-.19,3.23-.18,2.86-.44,7-.76,12.2-.68,10.52-1.63,25.34-2.75,42.68l0,.25-.24,0c-5-.41-10.14-1-15.48-1.83-2.66-.42-5.36-.9-8.09-1.53-1.35-.35-2.69-.75-4-1.2a31.91,31.91,0,0,1-4-1.55,11.63,11.63,0,0,1-6.38-11.75c.14-1.51.27-3,.41-4.49.55-5.93,1.08-11.65,1.59-17.1.25-2.73.5-5.38.74-8q.18-1.94.36-3.81c.05-.63.11-1.25.17-1.87a8.54,8.54,0,0,1,.28-1.86,6.23,6.23,0,0,1,5.09-4.62c2.31-.11,4.46,0,6.55,0l19.65.1,5.31,0,1.37,0Z" style="fill:#263238"></path><path d="M481.16,237.21a1.15,1.15,0,0,0-.94-.35c-1.35.15-4.74.6-4.82,1.32s36,43.87,46.68,56.61a6.56,6.56,0,0,0,7.25,1.94l6.59-2.39Z" style="fill:#455a64"></path><path d="M481.16,237.21a2.26,2.26,0,0,1,.29.27c.21.2.48.48.83.83l3.18,3.25c2.77,2.85,6.74,7,11.68,12.07l39,40.53.28.29-.38.14c-2.32.82-4.71,1.75-7.26,2.59a6.79,6.79,0,0,1-6.42-1.75c-.55-.55-1-1.12-1.45-1.68l-5.54-6.61L504.9,274.62l-17.6-21.27c-5-6.09-9-11-11.63-14.54l-.23-.34c-.06-.12-.2-.3-.08-.45a1.36,1.36,0,0,1,.68-.44,9.48,9.48,0,0,1,1.33-.36c.83-.16,1.54-.25,2.12-.32a2.41,2.41,0,0,1,1.31,0,.78.78,0,0,1,.36.28,1.59,1.59,0,0,0-.38-.23,2.39,2.39,0,0,0-1.28,0c-.57.09-1.28.19-2.1.37a9.33,9.33,0,0,0-1.3.38,1.21,1.21,0,0,0-.57.37c-.07.14.17.34.31.58,2.66,3.48,6.74,8.36,11.75,14.41l17.68,21.2c3.33,4,6.83,8.17,10.46,12.5l5.54,6.61c.48.54.94,1.15,1.43,1.64a6.57,6.57,0,0,0,1.73,1.21,6.29,6.29,0,0,0,4.19.4c2.45-.81,4.92-1.76,7.21-2.57l-.09.42-38.85-40.65-11.57-12.18-3.11-3.31-.79-.87A2,2,0,0,1,481.16,237.21Z" style="fill:#263238"></path><path d="M392.69,321.55h0a4,4,0,0,1-4-4h0a4,4,0,0,1,4-4h0a4,4,0,0,1,4,4h0A4,4,0,0,1,392.69,321.55Z" style="fill:#e0e0e0"></path><path d="M415.18,322.46v-6.22a4,4,0,0,0-4-4h-9.26a4,4,0,0,0-4,4v6.22H328.5v7.11H664.36a3.55,3.55,0,0,0,3.55-3.55h0a3.55,3.55,0,0,0-3.55-3.56Z" style="opacity:0.30000000000000004"></path><circle cx="391.14" cy="334.81" r="2.85" style="fill:#e0e0e0"></circle><rect x="553.67" y="342.27" width="23.52" height="7.44" rx="2.48" style="fill:#e0e0e0"></rect><rect x="266.12" y="409.54" width="278.84" height="10" style="fill:#263238"></rect><path d="M555.55,412l-227.12-1.57V377l242.76.16L558,410.27A2.65,2.65,0,0,1,555.55,412Z" style="fill:#e0e0e0"></path><path d="M559.78,397.6c0,.14-51,.26-114,.26s-114-.12-114-.26,51-.26,114-.26S559.78,397.45,559.78,397.6Z" style="fill:#263238"></path><path d="M664.75,358.23a1.63,1.63,0,0,1-.27-.17l-.75-.54c-.67-.46-1.59-1.24-2.89-2.07a71.26,71.26,0,0,0-11.38-6.34A77.26,77.26,0,0,0,641,346,75.81,75.81,0,0,0,631,343.7a68.71,68.71,0,0,0-45.62,8.56A71.67,71.67,0,0,0,570.06,364a71.24,71.24,0,0,0-8.31,10c-.91,1.25-1.48,2.3-1.94,3l-.5.78a2.34,2.34,0,0,1-.19.26,1.27,1.27,0,0,1,.14-.29l.46-.8c.43-.69,1-1.76,1.86-3a67.14,67.14,0,0,1,8.22-10.18,74.63,74.63,0,0,1,6.71-6.07,76.63,76.63,0,0,1,8.59-5.85A68.63,68.63,0,0,1,631,343.22a75.7,75.7,0,0,1,10.12,2.33,74,74,0,0,1,8.46,3.23,66.67,66.67,0,0,1,11.35,6.5c1.28.86,2.18,1.67,2.83,2.15l.72.58Z" style="fill:#263238"></path><path d="M669.94,418.09V418h0a54,54,0,0,0-108-1.55h0a.61.61,0,0,0,0,.14c0,.1,0,.2,0,.3v.09a54,54,0,1,0,108,1.56v-.4Z" style="fill:#263238"></path><path d="M582.23,417.22A33.72,33.72,0,1,0,616.43,384,33.73,33.73,0,0,0,582.23,417.22Z" style="fill:#e0e0e0"></path><path d="M616.43,384a33.73,33.73,0,0,0-34.21,33.23l67.44,1A33.72,33.72,0,0,0,616.43,384Z" style="fill:#e0e0e0"></path><path d="M588.22,417.31A27.73,27.73,0,1,0,616.34,390,27.72,27.72,0,0,0,588.22,417.31Z" style="fill:#263238"></path><path d="M603.46,389.77c.29.43,10.54,12.84,10.54,12.84h5.34l10.1-11.69,9.67,6.64L631,411.13l.72,4,15.3,7.79-5.63,11.69-13.86-5.48-4.18,2.45-1.59,17.32-12.7-.86L609,431.77l-4.05-3.61-16,4.47-4-12.12,16.46-5.05L603,411l-9.67-15.73Z" style="fill:#e0e0e0"></path><circle cx="615.95" cy="418.19" r="4.94" style="fill:#263238"></circle><path d="M565.19,393s-.13.32-.42.95l-1.23,2.8c-1.06,2.46-2.56,6.13-4.39,10.88l-.71,1.84a4.4,4.4,0,0,1-1,1.85,2.85,2.85,0,0,1-2.06.78h-2.28L543,412l-24.61-.09-142.53-.7L328.43,411h-.26v-.25c0-39.58.06-74.46.08-100.71h0c1.77-16.59,3.19-29.87,4.17-39,.5-4.56.88-8.09,1.14-10.49.14-1.19.24-2.09.31-2.71s.13-.92.13-.92,0,.31-.08.92-.14,1.53-.26,2.72c-.24,2.4-.59,5.93-1.05,10.5-.94,9.15-2.3,22.43-4,39v0c0,26.25,0,61.13.08,100.71l-.25-.26,47.44.25,142.53.86,24.62.17,10.09.08c1.52-.07,3.17.36,4.18-.7a4.19,4.19,0,0,0,1-1.76q.38-.93.72-1.83c1.86-4.75,3.39-8.4,4.48-10.86S565.19,393,565.19,393Z" style="fill:#263238"></path><path d="M636.52,329.57c0,.15-50.51.26-112.8.26s-112.81-.11-112.81-.26,50.5-.26,112.81-.26S636.52,329.43,636.52,329.57Z" style="fill:#263238"></path><path d="M372.14,322.61c0,.15-7,.27-15.6.27s-15.6-.12-15.6-.27,7-.26,15.6-.26S372.14,322.47,372.14,322.61Z" style="fill:#fff"></path><path d="M492.62,322.61c0,.15-12.94.27-28.9.27s-28.9-.12-28.9-.27,12.94-.26,28.9-.26S492.62,322.47,492.62,322.61Z" style="fill:#fff"></path><path d="M661.4,321.8c0,.14-24.72.26-55.21.26S551,321.94,551,321.8s24.72-.26,55.23-.26S661.4,321.66,661.4,321.8Z" style="fill:#fff"></path><path d="M690.86,364.56a2.92,2.92,0,0,1-.61.05l-1.75.05-6.46.08-2.14,0a14.7,14.7,0,0,1-2.36-.08A4.46,4.46,0,0,1,674,361a8.37,8.37,0,0,1-.07-1.4v-1.4c0-.95,0-1.91,0-2.89V343.21c0-1,0-1.95,0-2.89a17.66,17.66,0,0,1,.11-2.81,4.47,4.47,0,0,1,3.71-3.46,20.91,20.91,0,0,1,2.35-.05l2.14,0,6.45.08,1.76,0a4.19,4.19,0,0,1,.61.05,2.45,2.45,0,0,1-.61.06l-1.76.05-6.45.08-2.14,0a21.89,21.89,0,0,0-2.29.06,4,4,0,0,0-3.3,3.14,18.26,18.26,0,0,0-.09,2.71c0,.94,0,1.9,0,2.89,0,2,0,4,0,6.07s0,4.11,0,6.07c0,1,0,1.94,0,2.89v1.4a8.06,8.06,0,0,0,.05,1.32,4,4,0,0,0,3.15,3.3,15.62,15.62,0,0,0,2.27.1H682l6.46.09,1.75.05A2.25,2.25,0,0,1,690.86,364.56Z" style="fill:#263238"></path><path d="M691,367.84a3.52,3.52,0,0,1-.74.06l-2.11.05-7.78.08-2.58,0a15.29,15.29,0,0,1-2.83-.12,5.35,5.35,0,0,1-4.13-4.43,11.93,11.93,0,0,1-.07-1.68v-1.69c0-1.14,0-2.3,0-3.48V342c0-1.18,0-2.35,0-3.48v-1.69a8.78,8.78,0,0,1,.11-1.69,5.36,5.36,0,0,1,4.34-4.22,21,21,0,0,1,2.83-.07l2.58,0,7.78.08,2.11,0a3.24,3.24,0,0,1,.74.05,3.24,3.24,0,0,1-.74.05l-2.11.05-7.78.08-2.58,0a23.21,23.21,0,0,0-2.76.09,4.92,4.92,0,0,0-3.94,3.89,27.11,27.11,0,0,0-.09,3.29c0,1.13,0,2.3,0,3.48,0,2.36,0,4.81,0,7.31s0,5,0,7.32c0,1.18,0,2.34,0,3.48v1.69a10.59,10.59,0,0,0,.06,1.61,4.91,4.91,0,0,0,3.74,4.08,14.76,14.76,0,0,0,2.74.13l2.58,0,7.78.08,2.11.05A6,6,0,0,1,691,367.84Z" style="fill:#263238"></path><path d="M691.26,353.39a136.47,136.47,0,0,1-16.84,0,136.47,136.47,0,0,1,16.84,0Z" style="fill:#263238"></path><path d="M675.19,352.56,690.1,335.1H679.68a4.53,4.53,0,0,0-4.53,4.53Z" style="fill:#fff;opacity:0.30000000000000004"></path><path d="M660.18,379.64c0-.14,7.36-.26,16.44-.26s16.44.12,16.44.26-7.36.26-16.44.26S660.18,379.79,660.18,379.64Z" style="fill:#263238"></path><path d="M556.79,410.67c5.07-13.16,14.05-29.68,25-38.57s24.92-14.32,39-13.87a47.59,47.59,0,0,1,36.27,19.09,4.53,4.53,0,0,0,1.7,1.64,2.69,2.69,0,0,0,3-.64,2.8,2.8,0,0,0-.13-2.54c-3.79-9.29-13.59-15.95-23-19.46a65.48,65.48,0,0,0-31.75-2.87c-23.1,4-40.92,20-49.52,41.84" style="fill:#e0e0e0"></path><path d="M468.72,236.71h-1.23l-3.61-.06L450,236.37l-51.54-1.08a8.85,8.85,0,0,0-6.92,3.92,8.7,8.7,0,0,0-1.44,4c-.12,1.44-.19,2.94-.29,4.43q-.56,9-1.15,18.69c-.8,12.95-1.65,26.82-2.55,41.48,0,29.39,0,61.94,0,96.5l-.26-.26,39.53.11,94.66.27-.23.16a140.61,140.61,0,0,0,7.39-29.49,219.66,219.66,0,0,0,2.1-28.4c.07-4.57,0-9.05-.16-13.43s-.15-8.69-1-12.77a69,69,0,0,0-3.45-11.68,95.76,95.76,0,0,0-4.78-10.53l0,0-51.17-61.58s.33.34.95,1l2.68,3.13L482.57,253c8.86,10.6,21.68,26,37.6,45h0v0A95.35,95.35,0,0,1,525,308.65a70.28,70.28,0,0,1,3.5,11.75c.24,1,.34,2.07.51,3.12s.21,2.13.26,3.2c.1,2.14.21,4.31.28,6.5.16,4.39.24,8.87.18,13.45a220.4,220.4,0,0,1-2.07,28.46,142,142,0,0,1-7.4,29.61l-.06.16H520l-94.66-.25-39.53-.11h-.25v-.26c0-34.56,0-67.12,0-96.51.92-14.67,1.79-28.54,2.6-41.49q.62-9.7,1.19-18.69c.1-1.5.16-3,.3-4.45a9,9,0,0,1,1.5-4.13,9.19,9.19,0,0,1,7.2-4.06L450,236.19l13.89.36,3.6.11C468.31,236.68,468.72,236.71,468.72,236.71Z" style="fill:#263238"></path><path d="M415.83,318.53H390.61a1.36,1.36,0,0,1-1.36-1.36h0a1.36,1.36,0,0,1,1.36-1.36h25.22a1.36,1.36,0,0,1,1.36,1.36h0A1.36,1.36,0,0,1,415.83,318.53Z" style="fill:#e0e0e0"></path><path d="M415.83,318.53a3.09,3.09,0,0,0,.56-.18,1.3,1.3,0,0,0,.69-1.35,1.24,1.24,0,0,0-.63-.9,1.17,1.17,0,0,0-.62-.16h-.76l-3.6,0-20.86.08a1.11,1.11,0,0,0-1,.62,1.09,1.09,0,0,0,.11,1.14,1.18,1.18,0,0,0,1.1.44h1.45l5.54,0,9.38,0,6.32.09,1.72,0a2.27,2.27,0,0,1,.59.06,2.7,2.7,0,0,1-.59.05l-1.72.05-6.32.08-9.38.06h-7a1.68,1.68,0,0,1-1.51-.64,1.6,1.6,0,0,1-.17-1.68,1.62,1.62,0,0,1,1.46-.91l20.86.07,3.6,0h.76a1.52,1.52,0,0,1,.74.21,1.46,1.46,0,0,1,.71,1.09,1.42,1.42,0,0,1-.84,1.47A1,1,0,0,1,415.83,318.53Z" style="fill:#263238"></path><path d="M413.82,323.21a5.73,5.73,0,0,1-1.83,1.08,14.62,14.62,0,0,1-10.09.62,5.39,5.39,0,0,1-1.94-.86,22.42,22.42,0,0,0,7,.93C410.92,324.77,413.75,323,413.82,323.21Z" style="fill:#263238"></path><path d="M341.16,236.72c0-.14,11.61-.26,25.93-.26s25.94.12,25.94.26-11.61.26-25.94.26S341.16,236.87,341.16,236.72Z" style="fill:#263238"></path><path d="M451.17,269.51c.08.12-5.3,4-12,8.62s-12.22,8.31-12.3,8.19,5.29-4,12-8.62S451.09,269.39,451.17,269.51Z" style="fill:#fff"></path><path d="M452.15,257.83c.09.12-7.49,5.83-16.92,12.76S418.09,283,418,282.93s7.49-5.83,16.92-12.76S452.07,257.72,452.15,257.83Z" style="fill:#fff"></path><path d="M369.78,269.79c.08.12-4.5,3.18-10.23,6.84S349.1,283.15,349,283s4.51-3.19,10.25-6.84S369.71,269.67,369.78,269.79Z" style="fill:#fff"></path><path d="M368.07,262.5a105.07,105.07,0,0,1-8.55,6.11c-4.81,3.25-8.77,5.79-8.85,5.67s3.75-2.85,8.55-6.1S368,262.38,368.07,262.5Z" style="fill:#fff"></path><path d="M496.09,287.15c0,.09,9.57,8.69,9.57,8.69L503.18,300l-10.57-6.41Z" style="fill:#263238"></path><rect x="472.38" y="280.89" width="26.76" height="18.16" rx="9.08" style="fill:#FF725E"></rect><path d="M490.06,299.05a13,13,0,0,0,2.83-.56,8.87,8.87,0,0,0,2.91-1.68,9,9,0,0,0,2.53-3.6,8.86,8.86,0,0,0-3-10.3,8.77,8.77,0,0,0-3-1.44,11.57,11.57,0,0,0-3.46-.32h-7.48a8.86,8.86,0,0,0-2.2,17.43,18,18,0,0,0,4.46.33l3.42,0,2.16.05a4.48,4.48,0,0,1,.76.05,3.75,3.75,0,0,1-.76.06l-2.16,0-3.42.05-2.14,0a9.76,9.76,0,0,1-2.41-.28,9.27,9.27,0,0,1-7-8.77,9.34,9.34,0,0,1,9.31-9.54h7.48a12,12,0,0,1,3.59.35A9.25,9.25,0,0,1,496,297a9,9,0,0,1-5.18,2A3.33,3.33,0,0,1,490.06,299.05Z" style="fill:#263238"></path><path d="M684.86,418.19a7.91,7.91,0,0,1-1.43.12l-3.9.16-5.8.16-.83,0a2.31,2.31,0,0,1-.92-.07,1.69,1.69,0,0,1-1.15-1.54c-.06-1.18-.13-2.41-.24-3.66a105.57,105.57,0,0,0-1.87-12.71c-.33-1.61-.64-2.91-.85-3.81a8.36,8.36,0,0,1-.28-1.41,7.12,7.12,0,0,1,.48,1.36c.26.89.63,2.17,1,3.78a87.16,87.16,0,0,1,2,12.75c.11,1.26.18,2.49.23,3.67a1.19,1.19,0,0,0,.8,1.1,2.23,2.23,0,0,0,.76.06l.82,0,5.79,0h3.91A7.56,7.56,0,0,1,684.86,418.19Z" style="fill:#263238"></path></g></svg>
