<svg xmlns="http://www.w3.org/2000/svg" viewBox="0 0 500 500"><g id="background-complete"><path d="M79.33,446.55c-1.35-1.17-4.38-4.85-2-9.13.86-1.58,2.67-2.35,4.32-3a17.73,17.73,0,0,0,4.73-2.46c2.56-2.18,3.27-5.8,5-8.71,2-3.35,5.61-5.85,9.46-5.67,4.42.2,8.1,3.8,9.77,7.91s1.72,8.68,1.76,13.12c0,2.45-.09,5.22-1.89,6.87s-4.17,1.55-6.42,1.48l-24.12-.74" style="fill:#f5f5f5"></path><path d="M125.47,380.21H62l11.43,68.14a7.61,7.61,0,0,0,5.41,6.07l.23.06c.18,0,.37.11.56.15a7.84,7.84,0,0,0,1.29.14v.07l.31,0h28.28a7.91,7.91,0,0,0,1.55-.15,7.65,7.65,0,0,0,6.42-6.66L123,401l.24-1.87h0l2.18-18.59Zm-12,43.47H107l.66-19.78h7.54Zm2.32-19.78h6.23l-2.32,19.78h-5.6Zm-18.6,41.7-.39-17.18h9.37l-.57,17.18ZM87.09,428.42H96.2l.39,17.18H88.42Zm.7,17.18H80.15c-.72-4.64-1.67-10.67-2.69-17.18h9Zm-1.07-21.92L85.18,403.9H95.63l.46,19.78Zm10,0-.46-19.78H107l-.66,19.78Zm-.57-24.52-.42-18.31h12l-.61,18.31Zm-.63,0H84.81l-1.42-18.31H95.1Zm-11.34,0H72.85c-.4-2.53-.78-4.92-1.12-7.08-1.19-7.4-1.63-10.19-1.88-11.23H82.76Zm.37,4.74,1.54,19.78H76.72c-.32-2-.64-4-1-6.07-.73-4.67-1.47-9.33-2.16-13.71Zm-8.47,19.78H70L66.64,403.9H73C73.93,410,75,416.82,76.08,423.68Zm.74,4.74c.94,5.95,1.86,11.81,2.7,17.18H73.63l-2.88-17.18Zm29.44,17.18.57-17.18h6.27l-1.47,17.18Zm1.54-46.44.61-18.31h8.75l-1.56,18.31ZM69.25,380.85c.25,1.32,1.41,8.53,3,18.31H65.85l-3.08-18.31Zm47.91,64.75h-4.9l1.47-17.18h5.45Zm5.45-46.44h-6.38l1.56-18.31h7Z" style="fill:#e0e0e0"></path><path d="M56,236.19a25.82,25.82,0,0,1,6.23-2.71l1.29-6.16L74,227.13l1.5,6.12a25.58,25.58,0,0,1,6.33,2.49l5.26-3.45,7.5,7.23-3.27,5.39A25.43,25.43,0,0,1,94,251.14l6.17,1.28.18,10.42-6.12,1.5a25.63,25.63,0,0,1-2.48,6.32l3.45,5.27L88,283.42l-5.38-3.26a25.82,25.82,0,0,1-6.23,2.71L75.06,289l-10.42.19-1.5-6.12a25.66,25.66,0,0,1-6.32-2.49l-5.26,3.45-7.5-7.23,3.27-5.39a25.06,25.06,0,0,1-2.71-6.23l-6.17-1.28-.18-10.42,6.12-1.5a25.25,25.25,0,0,1,2.48-6.32l-3.45-5.27,7.24-7.49L56,236.19Zm5.56,13.88a11.18,11.18,0,1,0,15.8-.28A11.18,11.18,0,0,0,61.6,250.07Z" style="fill:#e0e0e0"></path><rect x="27.44" y="43.16" width="254.42" height="208.42" style="fill:#fff"></rect><path d="M281.86,251.57c0-1.81-.08-82.81-.21-208.41l.21.21-254.39.05h0l.26-.26c0,75.39,0,146.57,0,208.41l-.24-.23,254.42.23-254.42.23h-.23v-.24c0-61.84,0-133,0-208.41V42.9h.29l254.39,0h.22v.22C282,168.76,281.87,249.76,281.86,251.57Z" style="fill:#e0e0e0"></path><path d="M230,61c0,.14-45.35.26-101.29.26S27.44,61.17,27.44,61s45.35-.26,101.31-.26S230,60.88,230,61Z" style="fill:#e0e0e0"></path><path d="M39.51,52.41a2.75,2.75,0,1,1-2.75-2.74A2.75,2.75,0,0,1,39.51,52.41Z" style="fill:#e0e0e0"></path><path d="M47.52,52.41a2.75,2.75,0,1,1-2.75-2.74A2.75,2.75,0,0,1,47.52,52.41Z" style="fill:#e0e0e0"></path><path d="M55.53,52.41a2.75,2.75,0,1,1-2.75-2.74A2.75,2.75,0,0,1,55.53,52.41Z" style="fill:#e0e0e0"></path><rect x="27.44" y="61.03" width="254.42" height="21.48" style="fill:#e0e0e0"></rect><rect x="27.83" y="94.96" width="254.03" height="70.59" style="fill:#ebebeb"></rect><path d="M279.57,177.7c0,.14-54.44.26-121.58.26S36.4,177.84,36.4,177.7s54.43-.26,121.59-.26S279.57,177.55,279.57,177.7Z" style="fill:#e0e0e0"></path><path d="M279.57,184.18c0,.14-54.44.26-121.58.26s-121.59-.12-121.59-.26,54.43-.26,121.59-.26S279.57,184,279.57,184.18Z" style="fill:#e0e0e0"></path><path d="M131.19,217c0,.15-20.79.26-46.43.26s-46.44-.11-46.44-.26,20.79-.26,46.44-.26S131.19,216.82,131.19,217Z" style="fill:#e0e0e0"></path><path d="M131.19,223.44c0,.15-20.79.26-46.43.26s-46.44-.11-46.44-.26,20.79-.26,46.44-.26S131.19,223.3,131.19,223.44Z" style="fill:#e0e0e0"></path><path d="M131.19,229.92c0,.15-20.79.26-46.43.26s-46.44-.11-46.44-.26,20.79-.26,46.44-.26S131.19,229.78,131.19,229.92Z" style="fill:#e0e0e0"></path><path d="M131.19,236.69c0,.14-20.79.26-46.43.26s-46.44-.12-46.44-.26,20.79-.26,46.44-.26S131.19,236.55,131.19,236.69Z" style="fill:#e0e0e0"></path><circle cx="47.53" cy="205.6" r="7.28" transform="translate(-163.05 219.31) rotate(-80.71)" style="fill:#ebebeb"></circle><path d="M86.23,207.28c0,.15-5.56.26-12.42.26s-12.43-.11-12.43-.26,5.56-.26,12.43-.26S86.23,207.14,86.23,207.28Z" style="fill:#e0e0e0"></path><path d="M254.91,214c0,.15-19,.26-42.51.26s-42.51-.11-42.51-.26,19-.26,42.51-.26S254.91,213.83,254.91,214Z" style="fill:#e0e0e0"></path><path d="M254.91,220.45c0,.15-19,.26-42.51.26s-42.51-.11-42.51-.26,19-.26,42.51-.26S254.91,220.31,254.91,220.45Z" style="fill:#e0e0e0"></path><path d="M254.91,226.93c0,.15-19,.26-42.51.26s-42.51-.11-42.51-.26,19-.26,42.51-.26S254.91,226.79,254.91,226.93Z" style="fill:#e0e0e0"></path><path d="M254.91,233.7c0,.14-19,.26-42.51.26s-42.51-.12-42.51-.26,19-.26,42.51-.26S254.91,233.56,254.91,233.7Z" style="fill:#e0e0e0"></path><circle cx="179.09" cy="202.61" r="7.28" transform="translate(-59.34 330.19) rotate(-76.68)" style="fill:#ebebeb"></circle><path d="M217.8,204.29c0,.15-5.57.26-12.43.26s-12.43-.11-12.43-.26,5.56-.26,12.43-.26S217.8,204.15,217.8,204.29Z" style="fill:#e0e0e0"></path><path d="M189.28,164a2.09,2.09,0,0,1-.34-.34L188,162.6l-3.53-4.14-12.84-15.34c-5.41-6.52-11.83-14.25-19-22.82a13,13,0,0,0-2.87-2.91,7.68,7.68,0,0,0-3.85-1.25,7.91,7.91,0,0,0-4,.92,17.05,17.05,0,0,0-3.32,2.84L125.06,133l-9.62,9.27-.27.27-.31-.22-13.43-9.48-3.2-2.26a13.53,13.53,0,0,0-3.18-1.93,7.69,7.69,0,0,0-6.75.65,12.08,12.08,0,0,0-2.55,2.31l-2.37,2.51-4.53,4.79-8.09,8.55L59.12,159.64,56,162.91c-.34.33-.62.6-.84.83a1.41,1.41,0,0,1-.31.26,1.71,1.71,0,0,1,.25-.32l.77-.89,3-3.38L70.32,147l8-8.62,4.49-4.83L85.17,131a13.31,13.31,0,0,1,2.7-2.45,8.54,8.54,0,0,1,7.48-.76,8.31,8.31,0,0,1,1.78.91l1.58,1.1,3.22,2.26,13.46,9.45-.59,0,9.61-9.27,13.54-13a17.46,17.46,0,0,1,3.54-3,8.55,8.55,0,0,1,8.79.39,13.78,13.78,0,0,1,3.06,3.09c7.06,8.63,13.43,16.4,18.8,22.95s9.59,11.8,12.61,15.53l3.39,4.25c.36.45.64.82.87,1.12A1.9,1.9,0,0,1,189.28,164Z" style="fill:#fff"></path><path d="M122,113.39c-.08,0,0-.78-.42-2.1a8.64,8.64,0,0,0-3.19-4.62,8.39,8.39,0,1,0,0,13.43,8.61,8.61,0,0,0,3.19-4.62c.37-1.32.34-2.1.42-2.09s0,.19.05.56a6.92,6.92,0,0,1-.18,1.6,8.62,8.62,0,0,1-3.15,5,9,9,0,1,1,0-14.29,8.65,8.65,0,0,1,3.15,5,6.94,6.94,0,0,1,.18,1.61C122,113.19,122,113.39,122,113.39Z" style="fill:#fff"></path><path d="M402.58,56.43a15.92,15.92,0,0,1,3.84-1.67l.79-3.79,6.41-.11.92,3.76a15.74,15.74,0,0,1,3.89,1.53L421.67,54l4.61,4.45-2,3.31a16.05,16.05,0,0,1,1.66,3.84l3.8.79.11,6.41-3.77.92a15.44,15.44,0,0,1-1.53,3.89l2.13,3.24-4.46,4.62-3.31-2a15.43,15.43,0,0,1-3.83,1.66l-.79,3.8-6.41.11L407,85.3a16.56,16.56,0,0,1-3.89-1.53l-3.24,2.12-4.61-4.45,2-3.32a15.85,15.85,0,0,1-1.67-3.83l-3.79-.79-.12-6.41,3.77-.93a15.52,15.52,0,0,1,1.53-3.88L394.82,59l4.45-4.61,3.31,2ZM406,65a6.88,6.88,0,1,0,9.73-.17A6.88,6.88,0,0,0,406,65Z" style="fill:#f5f5f5"></path><path d="M424.81,363.9a31.81,31.81,0,0,0-8.46-21C413.79,353.42,424.81,363.9,424.81,363.9Z" style="fill:#ebebeb"></path><path d="M412.53,358a31.84,31.84,0,0,0-22.66-.63C398.52,363.87,412.53,358,412.53,358Z" style="fill:#ebebeb"></path><path d="M411.13,351.11a25.08,25.08,0,0,0-3.08-17.61C404.34,341.23,411.13,351.11,411.13,351.11Z" style="fill:#ebebeb"></path><path d="M458.64,326.45c-18,4.78-27.59,20.4-27.59,20.4C446.4,346.86,458.64,326.45,458.64,326.45Z" style="fill:#ebebeb"></path><path d="M430,333.81c.94-19.36-18-41.27-18-41.27,2.85,24,18,41.27,18,41.27" style="fill:#ebebeb"></path><path d="M430.05,278.67a51.77,51.77,0,0,0,6.8,27.73C439.52,294,430.05,278.67,430.05,278.67Z" style="fill:#ebebeb"></path><path d="M437.34,318c14.16-1.52,21.86-15.6,21.86-15.6C442.08,307.2,437.34,318,437.34,318Z" style="fill:#ebebeb"></path><path d="M467.87,377.19a31.79,31.79,0,0,0-22.25-4.28C453.09,380.77,467.87,377.19,467.87,377.19Z" style="fill:#ebebeb"></path><path d="M431.19,383.55a20.83,20.83,0,0,0,9.52,10.71C440.1,387.73,431.19,383.55,431.19,383.55Z" style="fill:#ebebeb"></path><path d="M433,381.46a25.11,25.11,0,0,0,16.93,3C444.49,378.8,433,381.46,433,381.46Z" style="fill:#ebebeb"></path><path d="M425.78,407.52a1,1,0,0,0,0-.29v-.84c0-.79,0-1.88,0-3.24s0-3.13,0-5.13,0-4.28.14-6.8c.12-5,.48-11,1-17.65s1.38-13.9,2.49-21.5a393,393,0,0,1,7.75-38.56c1.23-4.88,2.28-8.82,3-11.53.35-1.32.64-2.37.84-3.13l.21-.82a1.28,1.28,0,0,0,.05-.29,1,1,0,0,0-.11.27c-.08.22-.16.48-.27.8-.23.76-.56,1.79-1,3.1-.83,2.69-2,6.62-3.24,11.49A358,358,0,0,0,428.86,352c-1.11,7.62-1.9,14.91-2.45,21.55s-.79,12.65-.86,17.69c-.07,2.52-.05,4.8-.05,6.8s0,3.73.08,5.14.09,2.45.12,3.24c0,.34,0,.62,0,.85A.75.75,0,0,0,425.78,407.52Z" style="fill:#e0e0e0"></path><path d="M451.76,366.54c-.1-.14-5.82,3.61-12.78,8.38s-12.52,8.75-12.42,8.9,5.82-3.61,12.78-8.38S451.86,366.69,451.76,366.54Z" style="fill:#e0e0e0"></path><path d="M426.56,368.61a4.8,4.8,0,0,0-.88-1l-2.55-2.46-8.5-8-8.51-8-2.58-2.42a5.11,5.11,0,0,0-1-.84,5,5,0,0,0,.83,1c.55.63,1.39,1.5,2.44,2.57,2.09,2.13,5.05,5,8.38,8.12s6.4,5.87,8.64,7.84c1.12,1,2,1.78,2.69,2.31A5.34,5.34,0,0,0,426.56,368.61Z" style="fill:#e0e0e0"></path><path d="M469.93,357.37s-14.63-.28-20.82,11.24A26.35,26.35,0,0,0,469.93,357.37Z" style="fill:#ebebeb"></path><path d="M450,351.5s-11.91,8.49-10,21.43A26.35,26.35,0,0,0,450,351.5Z" style="fill:#ebebeb"></path><path d="M387.22,330.57s4.7,16.37,19.63,19.31A30.69,30.69,0,0,0,387.22,330.57Z" style="fill:#ebebeb"></path><path d="M456.45,269.69s-18.66,12.18-16.6,32A40.14,40.14,0,0,0,456.45,269.69Z" style="fill:#ebebeb"></path><path d="M394.34,378a6.88,6.88,0,0,0,1.21,1c.81.59,1.95,1.46,3.35,2.56A85.48,85.48,0,0,1,409,391a84.36,84.36,0,0,1,8.36,11.06c.95,1.51,1.69,2.74,2.19,3.61a7.52,7.52,0,0,0,.83,1.31,6.92,6.92,0,0,0-.62-1.43c-.42-.9-1.11-2.18-2-3.72a71.18,71.18,0,0,0-18.57-20.68c-1.44-1.07-2.63-1.89-3.48-2.41A8.24,8.24,0,0,0,394.34,378Z" style="fill:#e0e0e0"></path><path d="M410.58,390.13a31.8,31.8,0,0,0-4.29-22.25C404.28,381.75,410.58,390.13,410.58,390.13Z" style="fill:#ebebeb"></path><path d="M398,383.28a23.14,23.14,0,0,0-16.29-2.52C390.74,385.54,398,383.28,398,383.28Z" style="fill:#ebebeb"></path><polygon points="452.99 409.05 445.99 455.06 405.31 455.06 395.87 409.71 452.99 409.05" style="fill:#ebebeb"></polygon><path d="M401.56,438.54c0,.13,10.42.23,23.27.23s23.28-.1,23.28-.23-10.42-.24-23.28-.24S401.56,438.4,401.56,438.54Z" style="fill:#fafafa"></path><path d="M401.4,436.27c0,.13,10.49.24,23.43.24s23.44-.11,23.44-.24-10.49-.24-23.44-.24S401.4,436.14,401.4,436.27Z" style="fill:#fafafa"></path><path d="M401.48,433.72c0,.13,10.49.24,23.43.24s23.44-.11,23.44-.24-10.49-.24-23.44-.24S401.48,433.58,401.48,433.72Z" style="fill:#fafafa"></path><path d="M441.31,452.43a73.43,73.43,0,0,0,2-11.67,74,74,0,0,0-2,11.67Z" style="fill:#fafafa"></path><path d="M438.55,451.94a45.37,45.37,0,0,0,.5-5.65,46.49,46.49,0,0,0,.27-5.67,27.53,27.53,0,0,0-.75,5.64A27.19,27.19,0,0,0,438.55,451.94Z" style="fill:#fafafa"></path><path d="M433.5,451.94a27.36,27.36,0,0,0,1.06-5.79,28.4,28.4,0,0,0,.31-5.89,53.06,53.06,0,0,0-.78,5.83A51.37,51.37,0,0,0,433.5,451.94Z" style="fill:#fafafa"></path><path d="M430,452.19a29,29,0,0,0,.57-5.89,30.46,30.46,0,0,0-.18-5.92,49.78,49.78,0,0,0-.3,5.9A53.62,53.62,0,0,0,430,452.19Z" style="fill:#fafafa"></path><path d="M423.7,451.94a33,33,0,0,0,.42-5.58,31.38,31.38,0,0,0-.05-5.61,33.34,33.34,0,0,0-.42,5.59A31.3,31.3,0,0,0,423.7,451.94Z" style="fill:#fafafa"></path><path d="M419.12,452.19a35.09,35.09,0,0,0,.19-5.79,34.25,34.25,0,0,0-.29-5.77,36.37,36.37,0,0,0-.19,5.78A35.75,35.75,0,0,0,419.12,452.19Z" style="fill:#fafafa"></path><path d="M414.83,451.57a39.34,39.34,0,0,0-.35-6,38.47,38.47,0,0,0-.82-6,38.62,38.62,0,0,0,.34,6.05A37.47,37.47,0,0,0,414.83,451.57Z" style="fill:#fafafa"></path><path d="M409.29,451a20.24,20.24,0,0,0-.68-5.14,20,20,0,0,0-1.52-5,46.86,46.86,0,0,0,1.05,5.06A47.81,47.81,0,0,0,409.29,451Z" style="fill:#fafafa"></path><path d="M457.66,399.93v8.61a3.39,3.39,0,0,1-3.39,3.39H395.36a3.39,3.39,0,0,1-3.39-3.39v-8.61Z" style="fill:#ebebeb"></path><polygon points="452.55 411.93 452.06 414.68 397.71 418.55 396.33 411.93 452.55 411.93" style="fill:#e0e0e0"></polygon><path d="M425.43,97.64a25.1,25.1,0,0,1,6-2.61l1.24-5.94,10.05-.18,1.45,5.9a24.75,24.75,0,0,1,6.09,2.4l5.08-3.33,7.23,7-3.14,5.19a25.34,25.34,0,0,1,2.61,6L468,113.3l.18,10-5.9,1.44a24.66,24.66,0,0,1-2.4,6.1l3.33,5.08-7,7.23L451,140.05a24.56,24.56,0,0,1-6,2.61l-1.24,6-10,.18-1.45-5.9a24.75,24.75,0,0,1-6.09-2.4l-5.08,3.33-7.23-7,3.15-5.2a24.49,24.49,0,0,1-2.61-6l-6-1.24-.18-10.05,5.9-1.45a24.59,24.59,0,0,1,2.4-6.09l-3.33-5.08,7-7.23,5.2,3.14ZM430.78,111a10.78,10.78,0,1,0,15.25-.27A10.8,10.8,0,0,0,430.78,111Z" style="fill:#ebebeb"></path></g><g id="background-simple"><path d="M452.9,103.43l-2-4.38c-17.15-36.93-52.79-62-93.08-63.92a106.44,106.44,0,0,0-15.56.4c-37.25,3.75-72,27.74-89,61.52-10,19.87-14.83,43.49-31.3,58.31-21.44,19.29-53.88,16.37-82.23,12.32s-60.82-6.9-82.17,12.49c-13.38,12.14-19.28,30.86-20.33,49-2.77,48,25.75,94.38,65.68,120.3s89.52,33.34,136.85,29.16c66.3-5.86,132-34.91,175.18-86.23S475.9,166.57,452.9,103.43Z" style="fill:#f5f5f5"></path></g><g id="Floor"><path d="M462.12,454.73c0,.14-95,.26-212.11.26s-212.13-.12-212.13-.26,95-.26,212.13-.26S462.12,454.59,462.12,454.73Z" style="fill:#263238"></path></g><g id="Device"><path d="M348.33,453.85l-133.42-.08a29.07,29.07,0,0,1-29-29.07l.07-334.49A29.06,29.06,0,0,1,215,61.15l133.42.08a29.06,29.06,0,0,1,29.05,29.06l-.07,334.5A29.06,29.06,0,0,1,348.33,453.85Z" style="fill:#263238"></path><path d="M348.29,73.06l-25.87,0a6.43,6.43,0,0,0-6.28,6.56v4.7a6.43,6.43,0,0,1-6.28,6.56l-50.43,0a6.43,6.43,0,0,1-6.28-6.57V79.57A6.43,6.43,0,0,0,246.87,73H215.13a20.34,20.34,0,0,0-20.36,20.35l-.07,326.49a20.36,20.36,0,0,0,20.35,20.36l133.15.08a20.35,20.35,0,0,0,20.37-20.35l.06-326.5A20.34,20.34,0,0,0,348.29,73.06Z" style="fill:#fff"></path><rect x="194.75" y="155.2" width="173.84" height="113.62" style="fill:#FF725E"></rect><rect x="205.58" y="116.84" width="131.6" height="24.03" rx="10.87" style="fill:#ebebeb"></rect><circle cx="351.7" cy="121.08" r="2.88" style="fill:#263238"></circle><path d="M354.57,128.86A2.88,2.88,0,1,1,351.7,126,2.87,2.87,0,0,1,354.57,128.86Z" style="fill:#263238"></path><circle cx="351.7" cy="136.64" r="2.88" style="fill:#263238"></circle><path d="M354,289.57c0,.15-32.4.26-72.36.26s-72.36-.11-72.36-.26,32.39-.26,72.36-.26S354,289.43,354,289.57Z" style="fill:#263238"></path><path d="M354,301c0,.15-32.4.26-72.36.26s-72.36-.11-72.36-.26,32.39-.26,72.36-.26S354,300.84,354,301Z" style="fill:#263238"></path><path d="M354,312.39c0,.15-32.4.26-72.36.26s-72.36-.11-72.36-.26,32.39-.26,72.36-.26S354,312.25,354,312.39Z" style="fill:#263238"></path><path d="M354,323.8c0,.15-32.4.26-72.36.26s-72.36-.11-72.36-.26,32.39-.26,72.36-.26S354,323.66,354,323.8Z" style="fill:#263238"></path><path d="M354,335.21c0,.15-32.4.26-72.36.26s-72.36-.11-72.36-.26,32.39-.26,72.36-.26S354,335.07,354,335.21Z" style="fill:#263238"></path><path d="M354,346.62c0,.15-32.4.26-72.36.26s-72.36-.11-72.36-.26,32.39-.26,72.36-.26S354,346.48,354,346.62Z" style="fill:#263238"></path><path d="M354,396.4c0,.15-32.4.26-72.36.26s-72.36-.11-72.36-.26,32.39-.26,72.36-.26S354,396.26,354,396.4Z" style="fill:#263238"></path><path d="M354,406.13c0,.14-32.4.26-72.36.26s-72.36-.12-72.36-.26,32.39-.26,72.36-.26S354,406,354,406.13Z" style="fill:#263238"></path><path d="M354,415.85c0,.15-32.4.26-72.36.26s-72.36-.11-72.36-.26,32.39-.26,72.36-.26S354,415.71,354,415.85Z" style="fill:#263238"></path><circle cx="225.32" cy="375.56" r="11.96" style="fill:#FF725E"></circle><path d="M294.64,373.13c0,.15-10.5.26-23.45.26s-23.44-.11-23.44-.26,10.49-.26,23.44-.26S294.64,373,294.64,373.13Z" style="fill:#263238"></path><path d="M351.18,254.43a2.46,2.46,0,0,1-.36-.35l-1-1.1-3.65-4.28-13.28-15.85-19.59-23.6a13.86,13.86,0,0,0-3-3,7.9,7.9,0,0,0-4-1.29,8,8,0,0,0-4.16.95,17.52,17.52,0,0,0-3.43,2.93c-4.53,4.36-9.21,8.88-14,13.51l-9.94,9.58-.29.28-.32-.23-13.88-9.8-3.31-2.33a14.2,14.2,0,0,0-3.29-2,8,8,0,0,0-7,.68,13.1,13.1,0,0,0-2.63,2.38l-2.45,2.6c-1.61,1.71-3.18,3.36-4.68,5l-8.36,8.83-12,12.64-3.28,3.37-.87.86a1.33,1.33,0,0,1-.31.27,1.41,1.41,0,0,1,.25-.33l.8-.92,3.16-3.49,11.82-12.83,8.28-8.91,4.64-5,2.44-2.62a14,14,0,0,1,2.79-2.54,8.85,8.85,0,0,1,7.73-.78,8.71,8.71,0,0,1,1.85.94l1.63,1.14,3.32,2.33,13.92,9.77-.6.05,9.93-9.59,14-13.48a18.6,18.6,0,0,1,3.66-3.09,9.06,9.06,0,0,1,4.66-1.05,8.87,8.87,0,0,1,4.43,1.45,14.08,14.08,0,0,1,3.16,3.2l19.44,23.72c5.47,6.74,9.91,12.21,13,16.05l3.51,4.4.89,1.16A1.93,1.93,0,0,1,351.18,254.43Z" style="fill:#fff"></path><path d="M284.91,184.61c-.1,0-.07-1-.52-2.64a10.93,10.93,0,0,0-4-5.83,10.59,10.59,0,1,0,0,17,11,11,0,0,0,4-5.83c.45-1.67.42-2.65.52-2.65s.06.25.07.71a8.87,8.87,0,0,1-.23,2,10.91,10.91,0,0,1-4,6.28,11.35,11.35,0,0,1-16.11-2.23,11.4,11.4,0,0,1,0-13.57,11.36,11.36,0,0,1,16.11-2.24,11,11,0,0,1,4,6.29,8.87,8.87,0,0,1,.23,2C285,184.37,285,184.61,284.91,184.61Z" style="fill:#fff"></path><path d="M368.59,422.22c-1.08,7.39-4.34,11.49-8.51,14.22V154.64h8.51Z" style="fill:#f5f5f5"></path><rect x="360.08" y="157.93" width="8.3" height="26.01" rx="3.75" style="fill:#e0e0e0"></rect></g><g id="icon-3"><circle cx="393.89" cy="383.82" r="38.59" style="fill:#fff"></circle><path d="M432.47,383.82s0-.21-.05-.63-.07-1-.12-1.83c0-.4-.05-.85-.08-1.35s-.16-1-.25-1.61-.19-1.21-.3-1.87-.33-1.36-.5-2.11a37,37,0,0,0-4.27-10.23,38.39,38.39,0,0,0-9.78-10.9l-1.66-1.23c-.58-.39-1.2-.74-1.8-1.11s-1.21-.78-1.88-1.08l-2-1-1-.48-1.07-.38-2.16-.79c-.73-.24-1.5-.4-2.26-.61a20,20,0,0,0-2.32-.52,35.11,35.11,0,0,0-4.85-.56c-.83,0-1.66-.11-2.5-.1l-2.54.13c-.43,0-.86,0-1.28.09l-1.28.19c-.86.14-1.72.24-2.58.42a41.3,41.3,0,0,0-5.11,1.5,40.12,40.12,0,0,0-5,2.2c-.8.44-1.58.95-2.38,1.43-.4.25-.81.46-1.19.75l-1.13.84a35.56,35.56,0,0,0-8.1,8.14l-.88,1.18-.77,1.26-.77,1.27a9.25,9.25,0,0,0-.72,1.31l-1.3,2.7c-.35.94-.69,1.89-1,2.84a37.93,37.93,0,0,0,0,24.19c.34.95.69,1.9,1,2.84l1.3,2.7a9.2,9.2,0,0,0,.71,1.31l.77,1.27.77,1.26.89,1.18a34.53,34.53,0,0,0,8.1,8.14l1.13.85c.37.28.79.5,1.19.75.8.48,1.57,1,2.38,1.43a40.9,40.9,0,0,0,5,2.19,41.36,41.36,0,0,0,5.11,1.51c.86.17,1.73.27,2.58.42l1.28.19c.42.06.85.06,1.28.08l2.54.14c.84,0,1.67-.07,2.5-.1a36.71,36.71,0,0,0,4.85-.56,17.76,17.76,0,0,0,2.32-.53c.76-.2,1.53-.36,2.26-.6l2.16-.79,1.07-.39,1-.48,2-1c.66-.3,1.25-.73,1.87-1.08s1.22-.73,1.8-1.11l1.66-1.24a38.36,38.36,0,0,0,9.78-10.89,36.88,36.88,0,0,0,4.27-10.24,21.09,21.09,0,0,0,.5-2.1c.11-.67.21-1.29.3-1.88s.2-1.11.25-1.61,0-.94.08-1.35q.07-1.18.12-1.83c0-.41.05-.62.05-.62s0,.21,0,.62,0,1.05-.07,1.84c0,.41,0,.86,0,1.36s-.15,1-.22,1.62-.18,1.21-.28,1.89-.32,1.36-.48,2.11a36.87,36.87,0,0,1-4.22,10.34,38.69,38.69,0,0,1-9.8,11l-1.67,1.25c-.59.39-1.21.75-1.82,1.13s-1.22.79-1.89,1.1l-2,1-1,.49-1.08.39-2.18.81c-.74.24-1.51.4-2.28.62a20.51,20.51,0,0,1-2.35.53,34.17,34.17,0,0,1-4.9.58c-.84,0-1.68.12-2.53.11l-2.57-.13c-.43,0-.87,0-1.3-.08l-1.29-.2c-.87-.14-1.75-.24-2.62-.41a42.37,42.37,0,0,1-10.25-3.73c-.82-.45-1.61-1-2.42-1.44-.4-.26-.82-.47-1.2-.76l-1.14-.86a42,42,0,0,1-4.41-3.74,41.34,41.34,0,0,1-3.81-4.5l-.9-1.19-.78-1.28-.78-1.28a10.14,10.14,0,0,1-.73-1.33L358.1,399,357,396.07a38.46,38.46,0,0,1,0-24.51c.35-1,.7-1.92,1.05-2.88s.89-1.83,1.32-2.74a10.57,10.57,0,0,1,.73-1.32l.78-1.29.78-1.28.9-1.19a43.52,43.52,0,0,1,3.81-4.5,44.3,44.3,0,0,1,4.41-3.74l1.14-.85c.38-.29.81-.51,1.2-.76.82-.48,1.6-1,2.42-1.44a42.37,42.37,0,0,1,10.25-3.73c.87-.18,1.75-.28,2.61-.42l1.3-.19c.43-.06.87-.05,1.3-.08l2.56-.13c.85,0,1.7.07,2.53.1a37.43,37.43,0,0,1,4.91.58,20.54,20.54,0,0,1,2.35.54c.76.21,1.54.37,2.28.62l2.18.8,1.07.4,1,.49,2,1c.67.31,1.26.74,1.89,1.1s1.23.74,1.81,1.13l1.68,1.25a38.71,38.71,0,0,1,9.8,11,36.82,36.82,0,0,1,4.22,10.33c.16.75.41,1.44.48,2.12s.19,1.31.28,1.89.17,1.13.22,1.62,0,.95,0,1.36c0,.79.05,1.4.07,1.83S432.47,383.82,432.47,383.82Z" style="fill:#263238"></path><path d="M376.63,376.18a1,1,0,0,1-1-1v-9a1,1,0,0,1,1-1h8.85a1,1,0,0,1,0,2h-7.85v8A1,1,0,0,1,376.63,376.18Z" style="fill:#FF725E"></path><path d="M390.39,381.17a1,1,0,0,1-.71-.29l-13.75-13.54a1,1,0,0,1,0-1.42,1,1,0,0,1,1.41,0l13.76,13.54a1,1,0,0,1-.7,1.72Z" style="fill:#FF725E"></path><path d="M385.51,402.46h-9a1,1,0,0,1-1-1v-8.85a1,1,0,0,1,2,0v7.85h8a1,1,0,0,1,0,2Z" style="fill:#FF725E"></path><path d="M377,402.46a1,1,0,0,1-.7-.29,1,1,0,0,1,0-1.41L389.79,387a1,1,0,1,1,1.43,1.4l-13.54,13.75A1,1,0,0,1,377,402.46Z" style="fill:#FF725E"></path><path d="M411.32,376.18a1,1,0,0,1-1-1v-8h-7.85a1,1,0,0,1,0-2h8.85a1,1,0,0,1,1,1v9A1,1,0,0,1,411.32,376.18Z" style="fill:#FF725E"></path><path d="M397.57,381.17a1,1,0,0,1-.71-.3,1,1,0,0,1,0-1.42l13.75-13.54a1,1,0,0,1,1.4,1.43l-13.75,13.54A1,1,0,0,1,397.57,381.17Z" style="fill:#FF725E"></path><path d="M411.44,402.46h-9a1,1,0,0,1,0-2h8v-7.85a1,1,0,0,1,2,0v8.85A1,1,0,0,1,411.44,402.46Z" style="fill:#FF725E"></path><path d="M411,402.46a1,1,0,0,1-.71-.3l-13.54-13.75a1,1,0,0,1,0-1.42,1,1,0,0,1,1.41,0l13.54,13.75a1,1,0,0,1,0,1.41A1,1,0,0,1,411,402.46Z" style="fill:#FF725E"></path></g><g id="icon-2"><circle cx="393.89" cy="293.73" r="38.59" style="fill:#fff"></circle><path d="M432.47,293.73s0-.21-.05-.62-.07-1-.12-1.83c0-.41-.05-.86-.08-1.35s-.16-1-.25-1.61-.19-1.21-.3-1.88-.33-1.36-.5-2.1a37.19,37.19,0,0,0-4.27-10.24,38.36,38.36,0,0,0-9.78-10.89L415.46,262c-.58-.38-1.2-.73-1.8-1.1a20.46,20.46,0,0,0-1.88-1.09l-2-.95-1-.48-1.07-.39-2.16-.79c-.73-.24-1.5-.4-2.26-.6A18.14,18.14,0,0,0,401,256a36.71,36.71,0,0,0-4.85-.56c-.83,0-1.66-.11-2.5-.09l-2.54.13c-.43,0-.86,0-1.28.08l-1.28.2c-.86.14-1.72.24-2.58.42a39.64,39.64,0,0,0-5.11,1.5,40.12,40.12,0,0,0-5,2.2c-.8.44-1.58.95-2.38,1.42-.4.25-.81.47-1.19.75l-1.13.85a43,43,0,0,0-4.34,3.69,43.54,43.54,0,0,0-3.76,4.45l-.88,1.18-.77,1.26-.77,1.27a9.15,9.15,0,0,0-.72,1.3c-.43.9-.87,1.8-1.3,2.71s-.69,1.89-1,2.84a37.9,37.9,0,0,0,0,24.18c.34.95.69,1.9,1,2.84s.87,1.81,1.3,2.71a9.2,9.2,0,0,0,.71,1.31l.77,1.27.77,1.26.89,1.18a42.29,42.29,0,0,0,3.75,4.44,43.22,43.22,0,0,0,4.35,3.7l1.13.85c.37.28.79.49,1.19.74.8.48,1.57,1,2.38,1.43a42.12,42.12,0,0,0,10.12,3.7c.86.18,1.73.28,2.58.42l1.28.2c.42.05.85.05,1.28.08l2.54.13c.84,0,1.67-.07,2.5-.1a33.64,33.64,0,0,0,4.85-.56,19.53,19.53,0,0,0,2.32-.52c.76-.21,1.53-.36,2.26-.61l2.16-.78,1.07-.39,1-.48,2-1c.66-.3,1.25-.73,1.87-1.08s1.22-.72,1.8-1.11l1.66-1.23a38.39,38.39,0,0,0,9.78-10.9,36.71,36.71,0,0,0,4.27-10.23c.17-.74.42-1.43.5-2.1s.21-1.3.3-1.88.2-1.12.25-1.61,0-1,.08-1.35q.07-1.19.12-1.83c0-.41.05-.63.05-.63s0,.22,0,.63,0,1-.07,1.84c0,.4,0,.85,0,1.35s-.15,1-.22,1.62-.18,1.22-.28,1.89-.32,1.37-.48,2.12a36.82,36.82,0,0,1-4.22,10.33,38.56,38.56,0,0,1-9.8,11l-1.67,1.26c-.59.38-1.21.74-1.82,1.12s-1.22.79-1.89,1.1l-2,1-1,.49-1.08.4-2.18.8c-.74.25-1.51.41-2.28.62a20.54,20.54,0,0,1-2.35.54,35.65,35.65,0,0,1-4.9.58c-.84,0-1.68.11-2.53.1l-2.57-.12c-.43,0-.87,0-1.3-.09l-1.29-.19c-.87-.14-1.75-.24-2.62-.42A42.37,42.37,0,0,1,375.59,328c-.82-.44-1.61-1-2.42-1.44-.4-.25-.82-.47-1.2-.76l-1.14-.85a43.19,43.19,0,0,1-4.41-3.74,42.31,42.31,0,0,1-3.81-4.5l-.9-1.2-.78-1.27-.78-1.29a9.42,9.42,0,0,1-.73-1.32l-1.32-2.74c-.35-1-.7-1.92-1.06-2.88a38.49,38.49,0,0,1,0-24.52l1.05-2.87c.45-.92.89-1.83,1.32-2.74a10.69,10.69,0,0,1,.73-1.33l.78-1.28.78-1.28.9-1.2a35.67,35.67,0,0,1,8.22-8.23l1.14-.86c.38-.28.81-.5,1.2-.75.82-.49,1.6-1,2.42-1.45a42.9,42.9,0,0,1,10.25-3.72c.87-.18,1.75-.28,2.61-.42l1.3-.2c.43,0,.87,0,1.3-.08l2.56-.13c.85,0,1.7.08,2.53.11a35.8,35.8,0,0,1,4.91.58,18.62,18.62,0,0,1,2.35.54c.76.21,1.54.37,2.28.62l2.18.8,1.07.39,1,.49,2,1c.67.31,1.26.75,1.89,1.11s1.23.73,1.81,1.12l1.68,1.26a38.68,38.68,0,0,1,9.8,11,36.87,36.87,0,0,1,4.22,10.34c.16.75.41,1.44.48,2.12s.19,1.3.28,1.89.17,1.12.22,1.62,0,.95,0,1.35c0,.8.05,1.41.07,1.84S432.47,293.73,432.47,293.73Z" style="fill:#263238"></path><path d="M394.1,262a31.73,31.73,0,1,0,31.73,31.73A31.73,31.73,0,0,0,394.1,262Zm0,59.22a27.52,27.52,0,1,1,27.51-27.51A27.52,27.52,0,0,1,394.1,321.22Z" style="fill:#FF725E"></path><path d="M416.15,300.65c-1.09-.37-1.92-.86-1.85-1.1s1-.19,2.14.12,1.94.8,1.85,1.1S417.24,301,416.15,300.65Z" style="fill:#263238"></path><path d="M406.25,313.22c-.6-1-.92-1.89-.71-2s.91.52,1.57,1.47,1,1.85.7,2S406.85,314.2,406.25,313.22Z" style="fill:#263238"></path><path d="M390.59,316.49c.17-1.14.51-2,.76-2s.36,1,.25,2.13-.45,2-.76,2S390.42,317.62,390.59,316.49Z" style="fill:#263238"></path><path d="M376.48,308.92c.87-.77,1.7-1.24,1.88-1.05s-.36,1-1.18,1.79-1.66,1.28-1.87,1S375.62,309.68,376.48,308.92Z" style="fill:#263238"></path><path d="M370.55,294.05c1.15,0,2.09.15,2.1.4s-.9.53-2,.62-2.09-.09-2.11-.4S369.4,294.08,370.55,294.05Z" style="fill:#263238"></path><path d="M375.56,278.85c.9.72,1.51,1.46,1.35,1.66s-1-.18-2-.85-1.54-1.41-1.35-1.66S374.66,278.13,375.56,278.85Z" style="fill:#263238"></path><path d="M389.16,270.43c.23,1.13.22,2.09,0,2.15s-.68-.8-1-1.92-.28-2.07,0-2.14S388.93,269.3,389.16,270.43Z" style="fill:#263238"></path><path d="M405,272.72c-.55,1-1.17,1.74-1.4,1.63s0-1.05.49-2.09,1.12-1.77,1.4-1.62S405.55,271.71,405,272.72Z" style="fill:#263238"></path><path d="M415.65,284.66c-1.07.42-2,.58-2.11.34s.67-.8,1.71-1.28,2-.63,2.12-.35S416.72,284.23,415.65,284.66Z" style="fill:#263238"></path><circle cx="394.1" cy="293.65" r="4.77" style="fill:#263238"></circle><polygon points="407.25 288.16 392.5 290.9 395.46 296.33 407.25 288.16" style="fill:#263238"></polygon></g><g id="icon-1"><circle cx="393.89" cy="204.91" r="37.33" transform="translate(-29.52 338.54) rotate(-45)" style="fill:#fff"></circle><path d="M431.22,204.91s0-.21-.06-.61-.07-1-.12-1.77c0-.39-.05-.83-.07-1.3s-.16-1-.24-1.56a27.37,27.37,0,0,0-.78-3.85,35.78,35.78,0,0,0-4.13-9.9,37.33,37.33,0,0,0-25.08-17.47,34.48,34.48,0,0,0-4.7-.54c-.8,0-1.6-.11-2.41-.09l-2.46.12c-.41,0-.83,0-1.24.08l-1.24.19c-.82.14-1.66.24-2.49.41a41,41,0,0,0-4.95,1.45,38.78,38.78,0,0,0-4.83,2.13c-.79.42-1.54.92-2.31,1.38-.38.24-.79.45-1.15.72l-1.09.82a42.76,42.76,0,0,0-4.21,3.57A44.33,44.33,0,0,0,364,183l-.85,1.14-.75,1.22-.74,1.23a8.55,8.55,0,0,0-.69,1.26l-1.26,2.62c-.34.91-.67,1.83-1,2.74a36.79,36.79,0,0,0,0,23.4c.34.92.67,1.83,1,2.75s.85,1.74,1.26,2.61a10.4,10.4,0,0,0,.69,1.27l.75,1.22.75,1.23.85,1.14a33.54,33.54,0,0,0,7.84,7.87l1.09.82c.36.27.77.48,1.15.72.77.46,1.52,1,2.31,1.38a36.77,36.77,0,0,0,4.83,2.13,39.22,39.22,0,0,0,4.95,1.45c.83.17,1.67.27,2.5.41l1.23.19c.41.05.83.05,1.24.08l2.46.13c.81,0,1.62-.07,2.42-.1a34.52,34.52,0,0,0,4.69-.54,37.33,37.33,0,0,0,25.08-17.47A35.78,35.78,0,0,0,430,214a27.37,27.37,0,0,0,.78-3.85c.08-.56.19-1.08.24-1.55s0-.92.07-1.31q.07-1.14.12-1.77c0-.4.06-.6.06-.6s0,.2,0,.6,0,1-.06,1.78c0,.39,0,.83,0,1.31s-.14,1-.22,1.57a27.12,27.12,0,0,1-.73,3.87,35.29,35.29,0,0,1-4.08,10,37.56,37.56,0,0,1-25.25,17.75,36.7,36.7,0,0,1-4.75.56c-.81,0-1.62.11-2.45.1l-2.48-.12c-.42,0-.84,0-1.26-.08l-1.25-.19c-.84-.14-1.69-.24-2.53-.41a39.64,39.64,0,0,1-5-1.46,37.76,37.76,0,0,1-4.9-2.15c-.8-.42-1.56-.92-2.35-1.39-.38-.24-.79-.45-1.16-.73l-1.11-.83a42.7,42.7,0,0,1-4.26-3.62,40.73,40.73,0,0,1-3.69-4.35l-.87-1.16-.76-1.23-.75-1.25a8,8,0,0,1-.7-1.28c-.43-.88-.85-1.76-1.28-2.65s-.68-1.85-1-2.79a37.22,37.22,0,0,1,0-23.72l1-2.78c.43-.89.86-1.77,1.28-2.65a9.89,9.89,0,0,1,.7-1.28l.76-1.25.76-1.23.86-1.16a40.73,40.73,0,0,1,3.69-4.35,43.86,43.86,0,0,1,4.26-3.62l1.11-.83c.37-.27.78-.48,1.16-.73.79-.46,1.55-1,2.35-1.39a39.18,39.18,0,0,1,4.9-2.15,39.64,39.64,0,0,1,5-1.46c.84-.17,1.69-.27,2.53-.41l1.25-.18c.42-.06.84-.06,1.26-.08l2.48-.13c.83,0,1.64.07,2.45.1a35,35,0,0,1,4.75.57,37.57,37.57,0,0,1,25.25,17.74,35.29,35.29,0,0,1,4.08,10,27,27,0,0,1,.73,3.88c.08.56.17,1.08.22,1.56s0,.92,0,1.31c0,.77.05,1.36.06,1.78S431.22,204.91,431.22,204.91Z" style="fill:#263238"></path><path d="M370.55,197.55l4.86,5.47a26.26,26.26,0,0,1,18.2-7.23c11.48,0,17.07,7.23,17.07,7.23l5.27-5.47s-9.2-9-22.13-9A35.27,35.27,0,0,0,370.55,197.55Z" style="fill:#FF725E"></path><path d="M380.88,207.06l5.48,4.89a11.35,11.35,0,0,1,7.77-2.93c4.94,0,6.75,3.18,6.75,3.18l4.75-5.14a16.6,16.6,0,0,0-12.11-4.84A19.63,19.63,0,0,0,380.88,207.06Z" style="fill:#FF725E"></path><path d="M397.65,218.46a3.79,3.79,0,1,1-4.18-3.34A3.79,3.79,0,0,1,397.65,218.46Z" style="fill:#FF725E"></path><rect x="357.35" y="205.11" width="74.63" height="1" transform="translate(-22.4 360.82) rotate(-47.93)" style="fill:#263238"></rect></g><g id="Character"><path d="M108,121.51a6.84,6.84,0,0,1-.25-11.92l8.09-2.1q.63,15.44,1.48,30.85a11.56,11.56,0,0,1-5.95-2.11c-1.66-1.34-2.66-3.7-1.86-5.68a5.4,5.4,0,0,1-1.51-9Z" style="fill:#263238"></path><path d="M147.21,118.26l0-3.66-22.06-3.48c-6.79-.51-13.89,6.5-14.1,13.3-.24,7.56-.23,16.79.84,22.39,2.15,11.26,10.86,12.42,10.86,12.42v11.2c.13,6.53,5.68,7.79,12.21,7.67h0a11.84,11.84,0,0,0,11.61-11.67Z" style="fill:#ffbe9d"></path><path d="M116.7,133.51a1.46,1.46,0,0,0,1.45,1.42,1.38,1.38,0,0,0,1.45-1.35,1.44,1.44,0,0,0-1.44-1.42A1.39,1.39,0,0,0,116.7,133.51Z" style="fill:#263238"></path><path d="M113.55,129.15c.19.19,1.26-.66,2.82-.71s2.73.7,2.89.51-.11-.43-.62-.77a4,4,0,0,0-2.32-.64,3.88,3.88,0,0,0-2.24.8C113.61,128.72,113.46,129.07,113.55,129.15Z" style="fill:#263238"></path><path d="M130.31,133.4a1.45,1.45,0,0,0,1.45,1.42,1.38,1.38,0,0,0,1.45-1.35,1.45,1.45,0,0,0-1.44-1.42A1.39,1.39,0,0,0,130.31,133.4Z" style="fill:#263238"></path><path d="M128.91,129c.18.19,1.26-.66,2.82-.71s2.73.7,2.89.51-.11-.43-.62-.77a3.94,3.94,0,0,0-2.33-.64,3.82,3.82,0,0,0-2.23.8C129,128.53,128.82,128.88,128.91,129Z" style="fill:#263238"></path><path d="M123.6,140.72a10,10,0,0,0-2.55-.38c-.4,0-.78-.09-.85-.36a2,2,0,0,1,.23-1.2c.34-1,.7-2,1.08-3.07,1.5-4.37,2.58-8,2.4-8s-1.54,3.44-3,7.81c-.36,1.08-.71,2.11-1,3.09a2.3,2.3,0,0,0-.16,1.57,1,1,0,0,0,.67.56,3,3,0,0,0,.68.08A10.28,10.28,0,0,0,123.6,140.72Z" style="fill:#263238"></path><path d="M122.72,159.26a30,30,0,0,0,15.41-4.55s-3.68,8.22-15.42,7.55Z" style="fill:#eb996e"></path><path d="M124.38,144.46a2.8,2.8,0,0,1,2.49-1.12,2.53,2.53,0,0,1,1.8.89,1.65,1.65,0,0,1,.19,1.86,1.88,1.88,0,0,1-2,.58,5.94,5.94,0,0,1-2-1.13,1.75,1.75,0,0,1-.46-.44.53.53,0,0,1,0-.59" style="fill:#eb996e"></path><path d="M128.23,141.66c-.25,0-.2,1.68-1.62,2.93s-3.22,1.12-3.22,1.36.41.31,1.17.31a4.2,4.2,0,0,0,2.7-1,3.69,3.69,0,0,0,1.25-2.45C128.55,142.06,128.35,141.64,128.23,141.66Z" style="fill:#263238"></path><path d="M128.41,124.45c.16.43,1.72.23,3.55.45s3.31.72,3.56.34c.1-.19-.15-.58-.75-1a6.21,6.21,0,0,0-5.41-.59C128.68,123.92,128.35,124.25,128.41,124.45Z" style="fill:#263238"></path><path d="M112.29,125.69c.33.33,1.49-.13,2.92-.26s2.66,0,2.91-.36c.11-.19-.11-.53-.66-.82a4.37,4.37,0,0,0-2.43-.4,4.29,4.29,0,0,0-2.27.9C112.28,125.15,112.14,125.53,112.29,125.69Z" style="fill:#263238"></path><path d="M106.72,114.42a7,7,0,0,1-3-7.17A8,8,0,0,1,109,101.4a8.18,8.18,0,0,1,1.63-.36,7.29,7.29,0,0,1,3.48-1.11,3.79,3.79,0,0,1,2.8-3.06,9.06,9.06,0,0,1,4.36,0,7.38,7.38,0,0,1,11.9.15,6,6,0,0,1,9.06,3.43,5.92,5.92,0,0,1,5.4,3.42,5.72,5.72,0,0,1,1.14,2.2,6.8,6.8,0,0,1,3.46,12.29,6.21,6.21,0,0,1-1,9.91,7.93,7.93,0,0,1-.42,6.24,3.84,3.84,0,0,1-1.93,1.92,1.4,1.4,0,0,1-.16.43c-.64,1.08-2.32.67-3.33-.08-2.45-1.83-3.83-4.77-4.6-7.73s-1-6-1.78-9c0-.07,0-.14-.05-.21a8.4,8.4,0,0,0-1.73-3.34,21.66,21.66,0,0,1-2.66,1.83A9,9,0,0,1,124,116.63a13.25,13.25,0,0,1-8.31,3.33c-3,.1-6.07-.38-8.47-2.25a4.34,4.34,0,0,1-1.39-1.86A1.29,1.29,0,0,1,106.72,114.42Z" style="fill:#263238"></path><path d="M145.86,133.27c.15-.08,6-2.52,6.48,3.68s-5.83,5.4-5.86,5.22S145.86,133.27,145.86,133.27Z" style="fill:#ffbe9d"></path><path d="M148.19,139.68s.12.06.31.13a1.07,1.07,0,0,0,.8,0,2.67,2.67,0,0,0,1-2.49,3.69,3.69,0,0,0-.42-1.53,1.24,1.24,0,0,0-.88-.76.54.54,0,0,0-.61.34c-.07.18,0,.3-.05.32s-.14-.1-.11-.35a.63.63,0,0,1,.21-.41.86.86,0,0,1,.58-.21,1.56,1.56,0,0,1,1.21.88,3.68,3.68,0,0,1,.5,1.69,2.82,2.82,0,0,1-1.36,2.8,1.12,1.12,0,0,1-1-.09C148.22,139.83,148.17,139.69,148.19,139.68Z" style="fill:#eb996e"></path><path d="M104,106.21s0,.05-.05.15a3.49,3.49,0,0,0-.09.45,4.74,4.74,0,0,0,.12,1.76,4.59,4.59,0,0,0,1.42,2.34,4.82,4.82,0,0,0,3.37,1.22l-.11-.09a10.64,10.64,0,0,0,2.82,5.28,8.16,8.16,0,0,0,2.82,1.92,6.81,6.81,0,0,0,3.59.37,12.22,12.22,0,0,0,3.4-1,9.52,9.52,0,0,0,2.79-1.86h-.19a11.24,11.24,0,0,0,5.33,2.64,8.82,8.82,0,0,0,4.65-.61,9.14,9.14,0,0,0,2.61-1.64,8,8,0,0,0,.58-.57,1,1,0,0,0,.18-.22s-.28.27-.82.73a9.49,9.49,0,0,1-2.61,1.54,8.74,8.74,0,0,1-4.55.55,11.11,11.11,0,0,1-5.19-2.63l-.1-.08-.09.09a9,9,0,0,1-2.7,1.79,11.59,11.59,0,0,1-3.33,1,6.59,6.59,0,0,1-3.45-.33,8.17,8.17,0,0,1-2.73-1.86,10.47,10.47,0,0,1-2.79-5.13l0-.09h-.1a4.76,4.76,0,0,1-3.24-1.13,4.62,4.62,0,0,1-1.42-2.25,4.92,4.92,0,0,1-.17-1.71C104,106.42,104.05,106.22,104,106.21Z" style="fill:#455a64"></path><path d="M147.91,105.8a14,14,0,0,1,.66,2.1,8.82,8.82,0,0,1-.69,5.57l0,.1.08.06a5.67,5.67,0,0,1,1.79,2.43,5.41,5.41,0,0,1,.22,3.29,5.73,5.73,0,0,1-2.45,3.44l-.12.07.07.12a7.14,7.14,0,0,1,.94,3.82,7.61,7.61,0,0,1-.73,3.06,8.61,8.61,0,0,1-1.64,2.3l.16-.12c.09-.09.25-.2.42-.38a7.08,7.08,0,0,0,1.21-1.73,7.59,7.59,0,0,0,.81-3.12,7.25,7.25,0,0,0-.94-4l0,.18a6,6,0,0,0,2.59-3.6A5.64,5.64,0,0,0,150,116a5.82,5.82,0,0,0-1.89-2.53l0,.15a8.81,8.81,0,0,0,.61-5.71,8.12,8.12,0,0,0-.53-1.56c-.08-.17-.15-.29-.2-.38S147.92,105.8,147.91,105.8Z" style="fill:#455a64"></path><path d="M149.77,141.76a5.14,5.14,0,0,1,.19,1.1,1.67,1.67,0,0,1-.39,1.08,1.38,1.38,0,0,1-1.25.43,1.12,1.12,0,0,1-.83-1,2.17,2.17,0,0,1,.14-1.16c.26-.64.51-1,.47-1.05a2.75,2.75,0,0,0-.65,1,2.16,2.16,0,0,0-.22,1.28,1.57,1.57,0,0,0,.3.74,1.22,1.22,0,0,0,.73.47,1.6,1.6,0,0,0,1.51-.54,1.88,1.88,0,0,0,.39-1.25A1.73,1.73,0,0,0,149.77,141.76Z" style="fill:#263238"></path><path d="M146.49,424v23.36l-5.32,18.47a2.39,2.39,0,0,0,1.79,3h0a2.38,2.38,0,0,0,2.12-.57c3.64-3.34,17-15.68,16.87-17.39-.11-2,1.63-24.63,1.63-24.63Z" style="fill:#FF725E"></path><path d="M143,468.85l19-19.53,0,1a3.59,3.59,0,0,1-.9,2.31c-1.52,1.71-5.83,6.34-15.91,15.66a2.38,2.38,0,0,1-2.19.57Z" style="fill:#263238"></path><g style="opacity:0.6000000000000001"><path d="M157.37,441.68a1.44,1.44,0,0,0-.43,1.88,1.39,1.39,0,0,0,1.86.45,1.52,1.52,0,0,0,.45-2,1.45,1.45,0,0,0-2-.26" style="fill:#fff"></path></g><path d="M148.54,458.77a7.17,7.17,0,0,0-2-1.86,7.49,7.49,0,0,0-2.67-.58c0-.05.28-.23.83-.29a3.69,3.69,0,0,1,2.08.41,3.85,3.85,0,0,1,1.54,1.47C148.57,458.41,148.6,458.75,148.54,458.77Z" style="fill:#263238"></path><path d="M146.81,461.86c-.12.1-.85-.68-2.05-1.05a21.28,21.28,0,0,0-2.27-.35,2.65,2.65,0,0,1,2.43-.14C146.28,460.75,146.93,461.8,146.81,461.86Z" style="fill:#263238"></path><path d="M151.73,454.83a25.28,25.28,0,0,0-3-1.83,25.67,25.67,0,0,0-3.45-.89,6.59,6.59,0,0,1,6.5,2.72Z" style="fill:#263238"></path><path d="M152.32,447.73c-.07.14-1.35-.43-3-.52s-3,.27-3.07.13a4.63,4.63,0,0,1,3.1-.65A4.71,4.71,0,0,1,152.32,447.73Z" style="fill:#263238"></path><path d="M152.49,440.88a11.33,11.33,0,0,0-3.13-.63,12.26,12.26,0,0,0-3.12.7c0-.05.23-.33.77-.63a5.24,5.24,0,0,1,2.34-.59,5.07,5.07,0,0,1,2.35.53C152.25,440.55,152.52,440.83,152.49,440.88Z" style="fill:#263238"></path><path d="M149.43,438.94a1.89,1.89,0,0,1,0-.88,6,6,0,0,1,.75-2.3,2.69,2.69,0,0,1,1.2-1.27.94.94,0,0,1,1.07.24,1.54,1.54,0,0,1,.35,1.06,3.38,3.38,0,0,1-3,3.06,3.91,3.91,0,0,1-3.81-2.14,1.34,1.34,0,0,1,0-1.13,1,1,0,0,1,1-.48,3.32,3.32,0,0,1,1.52.84,6.66,6.66,0,0,1,1.55,1.85,2,2,0,0,1,.34.81,10.64,10.64,0,0,0-2.12-2.38,3.14,3.14,0,0,0-1.34-.7.54.54,0,0,0-.55.26,1,1,0,0,0,.07.75,3.52,3.52,0,0,0,3.33,1.81,2.93,2.93,0,0,0,2.61-2.56,1.11,1.11,0,0,0-.21-.75.52.52,0,0,0-.6-.14,2.46,2.46,0,0,0-1,1.06A9,9,0,0,0,149.43,438.94Z" style="fill:#263238"></path><path d="M124.51,424.36l.34,19.3s-19.5,6.83-19.79,10.4l37.44.69.71-30.1Z" style="fill:#FF725E"></path><path d="M136.46,442.25a1.53,1.53,0,0,1,1,1.77,1.46,1.46,0,0,1-1.74,1,1.63,1.63,0,0,1-1.08-1.88,1.53,1.53,0,0,1,1.93-.87" style="fill:#e0e0e0"></path><path d="M142.5,454.75l0-3-35.89.48s-1.68.7-1.51,1.87Z" style="fill:#263238"></path><path d="M124.24,443.46c0,.18.92.28,1.81.89s1.35,1.38,1.52,1.31-.08-1.13-1.17-1.84S124.21,443.29,124.24,443.46Z" style="fill:#263238"></path><path d="M120.29,445c-.05.18.74.51,1.35,1.29s.77,1.61,1,1.6.32-1-.46-2S120.29,444.84,120.29,445Z" style="fill:#263238"></path><path d="M118,449.67c.17.05.44-.86,0-1.87s-1.3-1.43-1.38-1.28.44.7.79,1.53S117.79,449.65,118,449.67Z" style="fill:#263238"></path><path d="M124.65,439.05c.08.17.92-.06,1.95,0s1.84.43,1.93.28-.66-.82-1.88-.91S124.57,438.91,124.65,439.05Z" style="fill:#263238"></path><path d="M176.4,257.21s6.11,18,4.71,38c-.57,8.06-9.26,66.94-9.26,66.94l-7.15,77.11-23.81-.77s-2.39-79.51-2-80.51,0-23.83,0-23.83l1.89-43V268.26Z" style="fill:#455a64"></path><path d="M107,248.72s-10,17-8.85,43.43c.43,10.1,16.58,94.22,16.58,94.22l9.92,55.22,18.72,1.52-2.64-150.63V268.26Z" style="fill:#455a64"></path><path d="M138.41,297.21a15.07,15.07,0,0,1-3.93-2.86,14.8,14.8,0,0,1-3.21-3.66c.11-.1,1.59,1.49,3.55,3.28S138.5,297.09,138.41,297.21Z" style="fill:#263238"></path><path d="M164.82,439.24h-1.51l-4.37-.1-16.32-.45h-.16v-.16c0-15.87-.93-39.51-1.91-65.85-.88-24.32-1.51-46.35-1.08-62.29.08-2,.15-3.89.22-5.69,0-.45,0-.89.05-1.33a8.9,8.9,0,0,1,.2-1.29,22.88,22.88,0,0,1,.68-2.38c1-3,2.07-5.52,2.93-7.58s1.59-3.63,2.08-4.7l.57-1.2c.13-.27.21-.41.21-.41s0,.15-.16.43l-.52,1.23c-.47,1.1-1.14,2.69-2,4.73s-1.88,4.59-2.85,7.59a14.17,14.17,0,0,0-.87,4.93q-.09,2.69-.18,5.67c-.33,15.94.35,38,1.23,62.27,1,26.34,1.8,50,1.73,65.87l-.16-.17L159,439l4.36.19,1.13.06Z" style="fill:#263238"></path><path d="M109.73,167.52l12.66-3.21c7.35,4.58,19.36,5.94,24.2-2.16l17.11,2.62,2.54,27.59.08,33.78a215.71,215.71,0,0,1,13.24,43.21c-38.83,9.68-67.39,10.71-78.51-6.54,0,0,4.38-13.9,8.68-24.51,3.37-8.31,1.11-15,.68-17.37-.15-.87.1-.56,0-1.44L107.13,203Z" style="fill:#FF725E"></path><g style="opacity:0.30000000000000004"><path d="M107,235a59.52,59.52,0,0,0,15.41-12.1,64.55,64.55,0,0,1,5.69-6,12.51,12.51,0,0,1,7.44-3.25c4.32-.15,8.06,2.8,11.37,5.58l11,9.25a7.15,7.15,0,0,0,3.12,1.83c1.2.22,2.94.44,3.2-.75a81.38,81.38,0,0,1-8.55-7.34c-3.69-3.68-7.75-6.46-11.44-10.14-1.71-1.71-3.53-3.65-3.64-6.06a5.3,5.3,0,0,0-.32-2.49c-.58-.95-1.87-1.09-3-1.13-2.18-.08-4.45-.14-6.42.79-2.72,1.3-4.23,4.19-5.69,6.82a95.49,95.49,0,0,1-19,24.06"></path></g><path d="M110.73,167.51s-12.07.85-16.58,17.88-14.06,38.86-11.06,46.55c.84,2.17,4.06,6.58,6.12,7.65,6,3.11,13.27-1.22,18.16-5.86l14.22-16.3L124.7,213l-11.64-9.85-5.53,4.48,3.35-13.09Z" style="fill:#FF725E"></path><path d="M163.7,164.92s9.68-.41,16.43,13.82c7.18,15.11,8.51,41.9,6.06,49.92-2.27,7.45-16.39,8.64-19.49,6.12C163.76,232.4,137,206,137,206l12.1-10.23,17.15,11.94L162.79,188Z" style="fill:#FF725E"></path><path d="M162.79,188a1.54,1.54,0,0,1,.09.33c.05.25.11.58.19,1,.17.91.42,2.21.73,3.88l2.62,14.51.07.4-.33-.23L149,195.94h.27l-12.08,10.25,0-.36,20.69,20.26,6.32,6.07,1.57,1.47a9.39,9.39,0,0,0,1.61,1.29,10.39,10.39,0,0,0,4,.81,22.19,22.19,0,0,0,8-1.27,11,11,0,0,0,6-4.53,11.43,11.43,0,0,0,1.07-3.54c.23-1.22.34-2.45.45-3.65.15-2.41.21-4.77.14-7a117.46,117.46,0,0,0-1-12.63c-.48-3.84-1.17-7.28-1.79-10.3s-1.36-5.56-2-7.64c-.32-1-.61-1.94-.87-2.74s-.52-1.45-.71-2l-.43-1.22c-.1-.28-.14-.43-.14-.43a2.86,2.86,0,0,1,.19.41q.17.43.48,1.2c.2.54.48,1.19.76,2s.57,1.71.92,2.73c.65,2.07,1.36,4.64,2.07,7.64s1.37,6.46,1.88,10.31a119.76,119.76,0,0,1,1.06,12.67c.07,2.28,0,4.65-.13,7.08a36.54,36.54,0,0,1-.44,3.7,17.64,17.64,0,0,1-.4,1.86,6.94,6.94,0,0,1-.71,1.83,11.48,11.48,0,0,1-6.28,4.77,22.54,22.54,0,0,1-8.16,1.31,10.94,10.94,0,0,1-4.22-.86,4.11,4.11,0,0,1-.92-.65c-.27-.24-.54-.47-.8-.72l-1.58-1.47-6.33-6.08c-7.33-7.12-14.31-14-20.68-20.28l-.19-.19.21-.17L149,195.59l.13-.11.14.1,17.11,12-.26.17-2.47-14.54c-.27-1.68-.49-3-.64-3.89-.06-.43-.11-.76-.15-1S162.79,188,162.79,188Z" style="fill:#263238"></path><path d="M111.75,190.75c.17,0-.57,3.77-1.77,8.3-.58,2.16-1.11,4.12-1.55,5.78a14.9,14.9,0,0,1-.72,2.38c-.17,0,.57-3.77,1.77-8.29.58-2.17,1.11-4.13,1.55-5.79A15.36,15.36,0,0,1,111.75,190.75Z" style="fill:#263238"></path><path d="M97.82,215.53a1.86,1.86,0,0,1,.25-.24l.77-.65,3-2.47L113,203.06l.11-.09.11.08,12.08,9.45.17.13-.13.17-3.51,4.77h0L107.13,234.3h0a28.29,28.29,0,0,1-7.41,5.11,13.55,13.55,0,0,1-7.27,1.43,8.65,8.65,0,0,1-1.81-.42,7,7,0,0,1-1.63-.9,17.06,17.06,0,0,1-2.64-2.44,18.85,18.85,0,0,1-3.7-5.9,5.9,5.9,0,0,1-.23-.85c0-.28-.06-.57-.08-.85l-.08-.85c0-.28,0-.56,0-.84a27,27,0,0,1,.32-3.28,97.5,97.5,0,0,1,2.91-11.91c1.1-3.68,2.21-7.07,3.21-10.17,2-6.2,3.66-11.21,4.72-14.7.54-1.74.94-3.1,1.2-4,.13-.44.24-.79.32-1a2,2,0,0,1,.12-.35,2.5,2.5,0,0,1-.07.37c-.07.26-.16.61-.27,1.06-.23.93-.6,2.3-1.11,4.05-1,3.5-2.58,8.54-4.56,14.75-1,3.1-2.07,6.5-3.15,10.18a98.68,98.68,0,0,0-2.85,11.86,26.39,26.39,0,0,0-.31,3.22c0,.27,0,.55,0,.82l.07.81c0,.27,0,.55.08.82a7.51,7.51,0,0,0,.21.78,18.73,18.73,0,0,0,3.61,5.71c1.56,1.68,3.35,3.44,5.77,3.59a13.19,13.19,0,0,0,7-1.38,27.92,27.92,0,0,0,7.27-5l0,0,14.67-16.69,0,0,3.54-4.76,0,.3-12-9.51h.22l-11.23,9-3,2.4-.8.61C97.92,215.47,97.83,215.54,97.82,215.53Z" style="fill:#263238"></path><path d="M178.94,217.49a47.81,47.81,0,0,0-5.79-5.66,48,48,0,0,0-6.94-4.16,8.3,8.3,0,0,1,2.28.77,24.32,24.32,0,0,1,9.12,7A8.29,8.29,0,0,1,178.94,217.49Z" style="fill:#263238"></path><path d="M114.12,204.22l-.2-7.27-4.54-6.47,1.81-9s2-.4,1.79,1.4-.17,6.26-.17,6.26l1.38,1.61.88-8.89,4.63-4.52a3.18,3.18,0,0,1,.33,3.57,10.43,10.43,0,0,1-1.94,2.89l-.32,5.58,1.37.18.66-5.15,6.8-6.84s.58.59-.36,2.83a26.07,26.07,0,0,1-2.38,4.27l.89,9.66,1.78,1.14,1.23-1.41,3.75-5.8a1.44,1.44,0,0,1,1.37.57c.43.71-2.14,5.48-2.39,6.36s2,7.06.4,9.86l-6.83,6.87Z" style="fill:#ffbe9d"></path><polygon points="123.67 169.55 119.82 199.69 136.96 201.89 140.76 172.22 123.67 169.55" style="fill:#263238"></polygon><path d="M140,178.19s2.75.35,2.75,2.44-.12,3,1.41,5.28,3.24,4.34,3.07,8.76l.12,2.26-8.79,7.22s-12.75-1.89-14.27-2.61a11.41,11.41,0,0,1-2.9-2.2l-1.11-5.63s.82-1.14,1.77.58a28.58,28.58,0,0,0,2.68,3.78l3.78.87,1.91-.67-6.68-4s-4.78-3.49-4.7-4.13a20.28,20.28,0,0,1,.5-2.1,2.52,2.52,0,0,1,.09-2.53c.83-1.34,3.22.41,3.22.41s7.47,4,8.61,4.24a18.39,18.39,0,0,0,2.83.36l-10.59-8.16s.16-1.28,2.41-.47,8.85,4.4,10.1,4.82a4.1,4.1,0,0,0,2.73-.3Z" style="fill:#ffbe9d"></path><path d="M140,178.19s0,.2-.05.56-.11.92-.18,1.61c-.17,1.41-.41,3.46-.71,6.07v.07l-.06,0a5.17,5.17,0,0,1-1.61.44,3.12,3.12,0,0,1-1.78-.35c-1.13-.51-2.31-1.11-3.57-1.73s-2.6-1.3-4-2a20.38,20.38,0,0,0-2.2-.92,3.11,3.11,0,0,0-1.16-.17.8.8,0,0,0-.76.57l-.08-.18,10.62,8.13.6.46-.75-.05a15.78,15.78,0,0,1-3-.41,29,29,0,0,1-2.84-1.28c-1.87-.92-3.77-1.91-5.71-2.93h0a5.66,5.66,0,0,0-1.26-.68,1.71,1.71,0,0,0-1.3-.09,1.74,1.74,0,0,0-.62,1.16,2.28,2.28,0,0,0,.23,1.39l.06.11,0,.09c-.18.65-.36,1.31-.48,2-.08.09.24.42.45.64s.5.47.77.7c1.06.92,2.21,1.79,3.37,2.65h0l5,3,1.68,1,.47.28-.51.19-1.92.67-.07,0-.07,0-3.77-.87-.09,0,0-.07a30.11,30.11,0,0,1-2.11-2.83c-.33-.47-.6-1-.91-1.44a.88.88,0,0,0-.53-.36.58.58,0,0,0-.5.25l0-.19q.56,2.86,1.1,5.63l-.06-.12a12.6,12.6,0,0,0,1.8,1.55,8.33,8.33,0,0,0,1,.59,8.2,8.2,0,0,0,1.09.33c1.52.36,3,.63,4.54.9,3,.52,5.86,1,8.6,1.4l-.17.05,8.81-7.2-.06.15c0-.82-.08-1.55-.12-2.26h0a11.79,11.79,0,0,0-.49-4.13,13.09,13.09,0,0,0-1.68-3.32,22.32,22.32,0,0,1-1.72-2.8,6.25,6.25,0,0,1-.51-2.72,3.79,3.79,0,0,0-.26-2.09,2.66,2.66,0,0,0-1.17-1,6.24,6.24,0,0,0-1.22-.42,3.49,3.49,0,0,1,1.27.33,2.7,2.7,0,0,1,1.25,1,2,2,0,0,1,.3,1c0,.37,0,.75,0,1.16a5.79,5.79,0,0,0,.54,2.62,20.81,20.81,0,0,0,1.73,2.75,13.22,13.22,0,0,1,1.75,3.37,12.23,12.23,0,0,1,.54,4.25v0c0,.72.08,1.45.13,2.26V197l-.07.06-8.76,7.25-.08.06h-.09c-2.75-.41-5.63-.86-8.62-1.37-1.5-.27-3-.54-4.57-.89a8,8,0,0,1-1.18-.37,7.1,7.1,0,0,1-1.07-.62,13.57,13.57,0,0,1-1.88-1.61l0,0,0-.07c-.36-1.85-.73-3.72-1.11-5.63l0-.12.06-.08a1.07,1.07,0,0,1,1-.46,1.33,1.33,0,0,1,.87.54c.39.52.61,1,.94,1.49a32.28,32.28,0,0,0,2.08,2.77l-.14-.08,3.78.87h-.15l1.92-.67-.05.46-1.68-1-5-3h0c-1.18-.87-2.32-1.75-3.41-2.68-.27-.24-.53-.47-.79-.73s-.25-.27-.37-.41a2.46,2.46,0,0,1-.17-.27,1,1,0,0,1-.06-.25.54.54,0,0,1,0-.15,18.06,18.06,0,0,1,.49-2l0,.2a2.84,2.84,0,0,1-.3-1.73,1.69,1.69,0,0,1,2.59-1.47,6.55,6.55,0,0,1,1.38.75l0,0c1.93,1,3.83,2,5.69,2.94.93.45,1.86.93,2.76,1.26a14.88,14.88,0,0,0,2.89.39l-.15.41-10.57-8.18-.1-.07,0-.11a1.19,1.19,0,0,1,1.11-.9,3.53,3.53,0,0,1,1.31.19,21,21,0,0,1,2.24,1c1.43.68,2.76,1.36,4,2s2.43,1.25,3.54,1.76a3.55,3.55,0,0,0,3.18-.05l-.07.09.86-6.13c.09-.67.17-1.19.23-1.57A2.81,2.81,0,0,1,140,178.19Z" style="fill:#eb996e"></path><path d="M132.37,195a7.87,7.87,0,0,1-2.06-.64,44.8,44.8,0,0,1-4.7-2.22,42.94,42.94,0,0,1-4.41-2.73,7.44,7.44,0,0,1-1.66-1.37,10.5,10.5,0,0,1,1.86,1.07c1.12.69,2.69,1.62,4.46,2.58s3.4,1.77,4.59,2.33A11.77,11.77,0,0,1,132.37,195Z" style="fill:#eb996e"></path><path d="M133.55,198.34c.06.13-.37.41-.94.3s-.88-.52-.78-.62.44,0,.87.12S133.5,198.2,133.55,198.34Z" style="fill:#eb996e"></path><path d="M136,195.17c.12.07-.22.64-1,.74s-1.22-.34-1.13-.45.52,0,1.05-.06S135.88,195.07,136,195.17Z" style="fill:#eb996e"></path><path d="M139,190.78c.11.09-.19.53-.78.6s-1-.27-.91-.38.43-.06.85-.13S138.86,190.67,139,190.78Z" style="fill:#eb996e"></path><path d="M141.63,186.21c0,.14-.69.26-1.54.36s-1.55.14-1.58,0,.64-.41,1.52-.51S141.63,186.07,141.63,186.21Z" style="fill:#eb996e"></path></g></svg>