<svg xmlns="http://www.w3.org/2000/svg" viewBox="0 0 500 500"><g id="background-complete"><rect x="31.69" y="112.38" width="46.75" height="92.67" style="fill:#e0e0e0"></rect><rect x="80.24" y="112.38" width="50.51" height="92.67" style="fill:#e0e0e0"></rect><rect x="80.24" y="211.53" width="50.51" height="89.54" style="fill:#e0e0e0"></rect><polygon points="137.23 110.78 190.43 110.78 190.43 28.57 192.22 28.57 192.22 110.78 235.51 110.78 235.51 26.75 137.23 26.75 137.23 110.78" style="fill:#e0e0e0"></polygon><rect x="192.22" y="112.38" width="43.29" height="92.67" style="fill:#e0e0e0"></rect><rect x="192.22" y="211.53" width="43.29" height="89.54" style="fill:#e0e0e0"></rect><rect x="31.69" y="211.53" width="46.75" height="89.54" style="fill:#e0e0e0"></rect><rect x="137.23" y="211.53" width="53.2" height="89.54" style="fill:#e0e0e0"></rect><rect x="31.69" y="302.67" width="46.75" height="80.69" style="fill:#e0e0e0"></rect><rect x="192.22" y="302.67" width="43.29" height="80.69" style="fill:#e0e0e0"></rect><polygon points="78.44 110.78 78.44 28.57 80.24 28.57 80.24 110.78 130.75 110.78 130.75 26.75 31.69 26.75 31.69 110.78 78.44 110.78" style="fill:#e0e0e0"></polygon><rect x="137.23" y="302.67" width="53.2" height="80.69" style="fill:#e0e0e0"></rect><rect x="80.24" y="302.67" width="50.51" height="80.69" style="fill:#e0e0e0"></rect><rect x="137.23" y="112.38" width="53.2" height="92.67" style="fill:#e0e0e0"></rect><polygon points="313.13 336.93 309.3 475.45 480.56 475.45 480.56 338.82 313.13 336.93" style="fill:#f5f5f5"></polygon><polygon points="405.4 337.98 403.88 475.45 480.56 475.45 480.56 338.82 405.4 337.98" style="fill:#e0e0e0"></polygon><polygon points="318.51 342.29 318.51 403.18 399.64 403.18 399.64 345.17 318.51 342.29" style="fill:#e0e0e0"></polygon><polygon points="346.48 359.04 346.48 368.03 371.3 368.03 371.3 358.22 346.48 359.04" style="fill:#f5f5f5"></polygon><rect x="346.48" y="375.6" width="25.63" height="3.68" style="fill:#f5f5f5"></rect><polygon points="318.51 410.93 318.51 471.81 399.64 471.81 399.64 413.8 318.51 410.93" style="fill:#e0e0e0"></polygon><polygon points="346.48 427.68 346.48 436.67 371.3 436.67 371.3 426.86 346.48 427.68" style="fill:#f5f5f5"></polygon><rect x="346.48" y="444.23" width="25.63" height="3.68" style="fill:#f5f5f5"></rect><path d="M361.36,62.68h-3V57a3.17,3.17,0,0,0-3-3.34H332.57a3.17,3.17,0,0,0-3,3.34v5.68h-3V57a6.17,6.17,0,0,1,6-6.34H355.4a6.17,6.17,0,0,1,6,6.34Z" style="fill:#ebebeb"></path><rect x="284.69" y="62.68" width="118.12" height="78.98" rx="9.13" style="fill:#ebebeb"></rect><rect x="340.44" y="86.22" width="7.08" height="31.74" style="fill:#f5f5f5"></rect><rect x="340.44" y="86.22" width="7.08" height="31.74" transform="translate(241.9 446.07) rotate(-90)" style="fill:#f5f5f5"></rect><path d="M370.35,102.16a2,2,0,0,1-.05-.42q0-.46-.09-1.26c0-.28,0-.58-.06-.92s-.11-.71-.17-1.11a20.64,20.64,0,0,0-.56-2.72,25.56,25.56,0,0,0-2.95-7A26.24,26.24,0,0,0,335,77.55a24.57,24.57,0,0,0-6.62,3.57,29.54,29.54,0,0,0-3,2.53,29,29,0,0,0-2.56,3,25.21,25.21,0,0,0-3.74,7.21,25.94,25.94,0,0,0,0,16.52,25.14,25.14,0,0,0,3.74,7.22,30,30,0,0,0,2.56,3,32.05,32.05,0,0,0,3,2.53,28.27,28.27,0,0,0,3.22,2.06,25.61,25.61,0,0,0,3.41,1.5,26.31,26.31,0,0,0,31.52-11.17,25.63,25.63,0,0,0,2.94-7,20.76,20.76,0,0,0,.56-2.73c.06-.4.13-.76.17-1.1s0-.64.06-.92q.06-.8.09-1.26a2.14,2.14,0,0,1,.05-.43,2.85,2.85,0,0,1,0,.43c0,.31,0,.73,0,1.26q0,.42,0,.93c0,.34-.1.71-.15,1.12a19,19,0,0,1-.51,2.75,25.17,25.17,0,0,1-2.89,7.11,26.64,26.64,0,0,1-17.92,12.62,27.06,27.06,0,0,1-17.52-2.65,27.17,27.17,0,0,1-3.28-2.1,29.33,29.33,0,0,1-3-2.57,29.89,29.89,0,0,1-2.62-3.09,25.71,25.71,0,0,1-3.83-7.37,28.41,28.41,0,0,1-1.38-8.44,28.74,28.74,0,0,1,1.38-8.44,25.65,25.65,0,0,1,3.83-7.36A30.08,30.08,0,0,1,325,83.27a30.73,30.73,0,0,1,3-2.58,28.46,28.46,0,0,1,3.28-2.1,28.14,28.14,0,0,1,3.49-1.52,26.56,26.56,0,0,1,31.95,11.5,25.05,25.05,0,0,1,2.89,7.11,18.75,18.75,0,0,1,.51,2.75c.05.4.12.77.15,1.11s0,.65,0,.93c0,.54,0,1,0,1.27A2.66,2.66,0,0,1,370.35,102.16Z" style="fill:#f5f5f5"></path><path d="M438.16,68.49V56.55h-8.4V68.49h-8.45V136.8H446V68.49Z" style="fill:#ebebeb"></path><rect x="271.09" y="136.8" width="203.77" height="10.4" style="fill:#e0e0e0"></rect><rect x="310.91" y="147.19" width="5.93" height="24.58" style="fill:#e0e0e0"></rect><rect x="429.56" y="147.19" width="5.93" height="24.58" style="fill:#e0e0e0"></rect><path d="M392.21,86.86V78.13h-6.15v8.73h-6.17V136.8h18.05V86.86Z" style="fill:#fafafa"></path><path d="M412.7,86.86V78.13h-6.14v8.73h-6.18V136.8h18.06V86.86Z" style="fill:#f5f5f5"></path><rect x="278.47" y="104.35" width="32.44" height="32.44" style="fill:#e0e0e0"></rect><path d="M310.76,112.69c0,.21-7.17.38-16,.38s-16-.17-16-.38,7.16-.38,16-.38S310.76,112.48,310.76,112.69Z" style="fill:#ebebeb"></path><path d="M295.93,117s.12,0,.33,0a2.67,2.67,0,0,1,.86.41,4.64,4.64,0,0,1,1.78,3,6.8,6.8,0,0,1-.84,5.1,4.67,4.67,0,0,1-2.52,1.91,6.13,6.13,0,0,1-3.37,0,6,6,0,0,1-4.51-4.34,5.06,5.06,0,0,1,4.76-6.21,2.13,2.13,0,0,1,1.25.21c0,.07-.45,0-1.23.09a5.14,5.14,0,0,0-2.89,1.4,4.67,4.67,0,0,0-1.21,4.36,5.34,5.34,0,0,0,4,3.76,5.52,5.52,0,0,0,3,0,4,4,0,0,0,2.16-1.6,6.37,6.37,0,0,0,.88-4.6,4.58,4.58,0,0,0-1.43-2.85C296.35,117.16,295.9,117,295.93,117Z" style="fill:#ebebeb"></path></g><g id="background-simple"><path d="M255.57,62.11l-1.18,1.78c-9.93,15-11.12,34.18-2.54,49.78a46.61,46.61,0,0,0,3.75,5.76,50.55,50.55,0,0,0,43.7,19.27c9.79-.82,19.79-4.47,29.17-1.69,12.21,3.61,18.6,16.48,23.63,28.08s11.45,24.47,23.68,28c7.66,2.23,16.06.12,23.13-3.67,18.7-10,29.55-31.49,30.07-52.5s-8.13-41.38-20.64-58.22c-17.52-23.58-43.61-41.57-72.91-46S274,38.87,255.57,62.11Z" style="fill:#f5f5f5"></path><circle cx="428.41" cy="239.35" r="30.4" style="fill:#f5f5f5"></circle></g><g id="Character"><path d="M224.27,108.34A42.57,42.57,0,0,0,181.9,69.1h-2.2c-23.78,1.34-35.93,22.29-33.93,46l4.1,95.16h0l54.37,21.32-.18-42.51s22.87-3.51,23.2-26.36C227.41,151.68,225.89,128.92,224.27,108.34Z" style="fill:#aa6550"></path><path d="M204.25,189.05s-14.6.84-29.93-8.83c0,0,7,16.46,29.82,14.45Z" style="fill:#6b3b2f"></path><path d="M217.77,125a3.28,3.28,0,0,1-3.16,3.29,3.12,3.12,0,0,1-3.35-2.95,3.26,3.26,0,0,1,3.15-3.29A3.12,3.12,0,0,1,217.77,125Z" style="fill:#263238"></path><path d="M219.34,119.52c-.41.42-2.87-1.41-6.39-1.41s-6.09,1.75-6.47,1.32c-.18-.19.23-1,1.35-1.77a9,9,0,0,1,5.18-1.59,8.7,8.7,0,0,1,5.09,1.65C219.17,118.56,219.54,119.33,219.34,119.52Z" style="fill:#263238"></path><path d="M185.78,125a3.27,3.27,0,0,1-3.15,3.29,3.13,3.13,0,0,1-3.36-2.95,3.26,3.26,0,0,1,3.15-3.29A3.12,3.12,0,0,1,185.78,125Z" style="fill:#263238"></path><path d="M184.81,120.1c-.4.42-2.87-1.41-6.38-1.41s-6.09,1.76-6.47,1.32c-.19-.19.22-1,1.35-1.77a8.9,8.9,0,0,1,5.18-1.58,8.53,8.53,0,0,1,5.08,1.65C184.65,119.14,185,119.91,184.81,120.1Z" style="fill:#263238"></path><path d="M197.51,146.17c0-.2,2.17-.57,5.7-1,.9-.09,1.75-.27,1.9-.88a4.59,4.59,0,0,0-.59-2.66l-2.64-6.84c-3.66-9.73-6.31-17.73-5.92-17.87s3.68,7.62,7.35,17.35l2.52,6.88c.34,1,.92,2.18.46,3.52a2.23,2.23,0,0,1-1.48,1.31,6.48,6.48,0,0,1-1.52.21C199.73,146.36,197.52,146.37,197.51,146.17Z" style="fill:#263238"></path><path d="M187.17,148.58c.57,0,.57,3.78,3.82,6.49s7.32,2.31,7.35,2.84c0,.24-.91.74-2.62.78a9.49,9.49,0,0,1-6.13-2.15,8.27,8.27,0,0,1-3-5.44C186.48,149.5,186.9,148.56,187.17,148.58Z" style="fill:#263238"></path><path d="M185.75,106.34c-.35,1-3.86.49-8,1s-7.45,1.61-8,.75c-.24-.41.34-1.31,1.69-2.23a14,14,0,0,1,12.17-1.32C185.14,105.13,185.9,105.88,185.75,106.34Z" style="fill:#263238"></path><path d="M218.07,109.35c-.62.79-3,0-5.95-.08s-5.37.52-5.94-.31c-.24-.41.14-1.21,1.22-2a8.59,8.59,0,0,1,9.58.32C218,108.14,218.34,109,218.07,109.35Z" style="fill:#263238"></path><path d="M222.1,97.86s-6-14.33-12.9-17.68c-8.34-4.06-12,5.1-19.92,2.86s-15.92-6.14-24.07,0c-8.92,6.72-4.76,11.45-5.33,21.59-2.32,41.11-9.85,52.72-11.94,33.35-.23-2.12-6.12-3.82-7-12.78-1.11-11.63-1.53-25.74,1.08-34,2.2-6.95,6.18-11.74,13.3-17,11.24-8.34,26.65-8.49,37.12-7.41S223.09,79.94,222.1,97.86Z" style="fill:#263238"></path><path d="M149.39,137.36a6.2,6.2,0,0,0-6.68-6c-4.26.4-9,2.81-8.75,11.62.47,15.62,16.06,11.93,16.07,11.48S149.65,143.9,149.39,137.36Z" style="fill:#aa6550"></path><path d="M146.46,148.7c-.07,0-.27.2-.72.42a2.74,2.74,0,0,1-2,.1c-1.67-.55-3.13-3.13-3.29-5.95a8.9,8.9,0,0,1,.64-3.92,3.13,3.13,0,0,1,2-2.15,1.4,1.4,0,0,1,1.63.7c.22.43.13.74.21.77s.33-.27.18-.91a1.65,1.65,0,0,0-.64-1,2,2,0,0,0-1.52-.36,3.83,3.83,0,0,0-2.77,2.51,9.3,9.3,0,0,0-.81,4.38c.19,3.15,1.89,6,4.17,6.63a2.91,2.91,0,0,0,2.48-.48C146.44,149.07,146.51,148.72,146.46,148.7Z" style="fill:#6b3b2f"></path><path d="M373.32,333.12l-61.25-5.51s-39.86-70.21-45.41-79.3S245,219,239.19,217.85,267.55,343,273.51,354.28s9.69,20.15,21.17,23S373,376,374.47,376,373.32,333.12,373.32,333.12Z" style="fill:#ebebeb"></path><path d="M373.32,333.12s0,.43.1,1.27.13,2.09.24,3.71c.19,3.27.47,8.08.77,14.29.15,3.1.31,6.56.44,10.33.06,1.89.12,3.87.15,5.92s.07,4.18-.11,6.4a4.52,4.52,0,0,1-.16.85.43.43,0,0,1-.17.25.29.29,0,0,1-.17,0h-.11l-.41,0-1.7.09-3.47.2-7.28.39-15.83.76c-5.55.23-11.37.46-17.43.62s-12.37.3-18.91.24c-1.63,0-3.28,0-4.94-.1s-3.34-.11-5-.27a30.79,30.79,0,0,1-5.08-.73,22.2,22.2,0,0,1-2.47-.8c-.41-.16-.82-.31-1.22-.49l-1.18-.58a20.51,20.51,0,0,1-4.34-3,25.76,25.76,0,0,1-3.61-4,70.44,70.44,0,0,1-5.61-9.34l-2.56-4.92a52.38,52.38,0,0,1-2.08-5.24c-1.25-3.56-2.4-7.18-3.54-10.86-2.27-7.34-4.47-14.88-6.65-22.57-4.36-15.38-8.65-31.37-12.79-47.81-2.24-8.94-4.38-17.78-6.29-26.53-1-4.37-1.86-8.72-2.61-13.06-.37-2.17-.71-4.34-.91-6.52a12.09,12.09,0,0,1,0-3.34,1.41,1.41,0,0,1,.19-.45.62.62,0,0,1,.57-.29,5,5,0,0,1,.85.24,8.55,8.55,0,0,1,1.47.77,32.16,32.16,0,0,1,5,4.11c1.54,1.49,3,3,4.42,4.61,2.84,3.14,5.49,6.38,8,9.64s4.93,6.57,7.12,10c.56.84,1.06,1.71,1.55,2.58s1,1.73,1.48,2.59l2.94,5.12,40.19,70.32-.14-.09,45.08,4.15,12,1.12,3.1.3,1,.11-1.07-.07-3.13-.27-12.07-1-45-4H312l0-.08-40.3-70.23c-1-1.7-1.95-3.4-2.94-5.12-.49-.86-1-1.73-1.48-2.59s-1-1.74-1.55-2.57c-2.17-3.37-4.59-6.65-7.1-9.92s-5.18-6.48-8-9.61c-1.41-1.56-2.87-3.1-4.4-4.58a32.24,32.24,0,0,0-4.92-4,8.83,8.83,0,0,0-1.4-.72,4.53,4.53,0,0,0-.7-.21s-.17.13-.23.37a11.42,11.42,0,0,0,0,3.15c.19,2.16.53,4.32.9,6.48.76,4.33,1.66,8.67,2.61,13,1.92,8.74,4.06,17.58,6.3,26.51,4.13,16.44,8.42,32.42,12.77,47.8,2.18,7.69,4.37,15.22,6.63,22.57,1.14,3.67,2.29,7.29,3.53,10.84a51.19,51.19,0,0,0,2.05,5.18l2.56,4.91a69.79,69.79,0,0,0,5.56,9.29,25.31,25.31,0,0,0,3.53,3.91,20.19,20.19,0,0,0,4.25,3l1.16.58c.39.17.79.31,1.19.47a20.92,20.92,0,0,0,2.43.8,31.38,31.38,0,0,0,5,.72c1.67.16,3.35.21,5,.27s3.31.09,4.94.11c6.52.07,12.83,0,18.89-.21s11.87-.37,17.42-.59l15.83-.72,7.28-.38,3.48-.18,1.7-.08.42,0h.16c0,.15,0,0,0,0s0,0,0-.11a4.89,4.89,0,0,0,.14-.78c.19-2.18.14-4.32.13-6.37s-.08-4-.13-5.91c-.12-3.78-.26-7.23-.39-10.33-.29-6.2-.52-11-.68-14.29q-.12-2.44-.18-3.72C373.33,333.55,373.32,333.12,373.32,333.12Z" style="fill:#263238"></path><path d="M275.71,331.07C274.49,332.5,296,475.25,296,475.25H239.19L198,281.21l6.29-79.44s29.77,9,34.94,16.08S275.71,331.07,275.71,331.07Z" style="fill:#ebebeb"></path><path d="M275.71,331.07c-.28-.92-4.61-15.17-12.62-41.5-4.07-13.19-9-29.22-15-47.49-1.51-4.56-3.1-9.26-4.83-14.07-.88-2.39-1.76-4.83-2.8-7.24a11.93,11.93,0,0,0-1.9-3.38,16.6,16.6,0,0,0-3.07-2.5,86.79,86.79,0,0,0-14.89-7.17c-5.27-2.07-10.75-4-16.4-5.74l.29-.2c-1.9,24.19-4,51-6.26,79.45v-.07c5.34,25.14,11.07,52.08,17,79.86,8.57,40.35,16.76,78.9,24.25,114.18l-.24-.19L296,475l-.22.25c-6.5-43.41-11.75-79.44-15.27-104.63-1.76-12.6-3.09-22.49-3.91-29.24s-1.12-10.36-.91-10.35a11.43,11.43,0,0,0,.13,2.64c.18,1.74.48,4.33.91,7.7.87,6.74,2.23,16.62,4,29.21,3.59,25.18,8.91,61.2,15.45,104.6l0,.25H296l-56.83,0H239l0-.2L214.67,361.13l-17-79.86v-.08c2.26-28.41,4.39-55.25,6.32-79.44l0-.28.26.08q8.5,2.65,16.42,5.76a87,87,0,0,1,15,7.24,16.88,16.88,0,0,1,3.15,2.56,12.67,12.67,0,0,1,2,3.5c1,2.43,1.92,4.87,2.8,7.27,1.72,4.81,3.31,9.52,4.81,14.09,6,18.28,10.89,34.32,14.92,47.52s7.11,23.6,9.2,30.69l2.38,8.1c.26.91.46,1.61.6,2.08S275.71,331.07,275.71,331.07Z" style="fill:#263238"></path><path d="M143.23,194.18l4.3-8.65,49.16,32.31,7.56-21.37c0,.51,4.85,30.44,4.85,30.44s17.73,74.08,19.45,88.53.68,71.43.68,71.43l-2-10.16s-8.24-39.83-8.86-42-27.63-83.14-31.88-89.15S143.23,194.18,143.23,194.18Z" style="fill:#FF725E"></path><path d="M142.77,193.65l-7.39,13.25-25.35,14,26,135.38-11.86,119h115s-9.88-100.8-17.4-132.43-34-97.25-34-97.25Z" style="fill:#ebebeb"></path><path d="M142.77,193.65c.74.86,16.51,19,45.14,51.82l0,0v0c5,12.57,10.63,27,16.52,43,2.93,8,5.95,16.46,8.92,25.3s5.92,18.11,8.36,27.87c.61,2.44,1.08,4.93,1.64,7.43l1.39,7.6c.87,5.12,1.72,10.32,2.48,15.61,1.57,10.58,3,21.49,4.39,32.68,2.77,22.37,5.36,45.87,7.81,70.2l0,.28H123.87l0-.28c4.29-42.87,8.3-83,11.89-119v.06c-11-57.8-20-104.88-25.88-135.4l0-.09.08,0,25.37-13.94,0,0,7.46-13.21c-.23.43-2.34,4.24-7.33,13.28v0h0l-25.32,14,.06-.13c5.88,30.5,14.95,77.57,26.08,135.36v.06c-3.57,36-7.56,76.13-11.82,119l-.26-.28h115l-.26.28c-2.44-24.33-5-47.82-7.77-70.19-1.38-11.19-2.81-22.09-4.37-32.67-.76-5.29-1.61-10.49-2.46-15.61q-.71-3.82-1.39-7.59c-.56-2.48-1-5-1.63-7.41-2.43-9.73-5.39-19-8.32-27.83s-6-17.28-8.88-25.31c-5.87-16.05-11.44-30.47-16.45-43l0,0Z" style="fill:#263238"></path><path d="M210.1,309.48c-.36.44-5.08-5.38-12.25-14.91s-16.95-22.88-27.59-37.7l-2.52-3.51-.05-.07v-.08c.09-4.85.19-9.54.27-14l.18.24-11.34-3.66-.07,0,0-.05L141.21,214.9,136.87,209l-1.13-1.56-.28-.41c-.06-.09-.09-.14-.08-.14s0,0,.11.12l.31.38,1.19,1.53,4.44,5.81,15.63,20.67-.12-.08L168.29,239l.18.06v.18c-.08,4.47-.16,9.17-.25,14l-.05-.16,2.52,3.51c10.64,14.81,20.34,28.18,27.46,37.78S209.84,309.81,210.1,309.48Z" style="fill:#263238"></path><path d="M135.92,365.14c2.12,4.82,7.83,7.3,13.09,7s10.15-2.74,14.63-5.51c14.82-9.15,27-21.88,39.08-34.47,4.11-4.3,8.4-8.94,9.52-14.78.45-2.37-.11-5.46-2.44-6.08-1.44-.39-2.91.38-4.2,1.13A398.37,398.37,0,0,0,135,364.63" style="fill:#e0e0e0"></path><path d="M111.37,220.33s-18.31,7.5-20.82,18.52c-2.79,12.25-6.33,28.07-2,38.74s17,60.09,23.72,72.35,11.69,14.18,27.5,15.37,87.48-66.17,87.48-66.17,8-7.64-3.49-34.13-19.4-19.53-19.4-19.53l-53.66,41.93S147,275,144.38,267" style="fill:#ebebeb"></path><path d="M144.38,267s.16.44.44,1.31.69,2.19,1.24,3.89c1.08,3.45,2.68,8.54,4.76,15.16l-.17-.06L177,266.65l17.15-13.43,9.44-7.39.61-.48a2.81,2.81,0,0,1,.7-.43,4.72,4.72,0,0,1,1.56-.44,6.77,6.77,0,0,1,3.17.56,15.24,15.24,0,0,1,5.08,4,54.06,54.06,0,0,1,7.13,11.26l1.44,3.11L224,265l.65,1.61,1.31,3.24,1.17,3.34a57.67,57.67,0,0,1,3,14.15,26.72,26.72,0,0,1-.57,7.44,12.55,12.55,0,0,1-1.39,3.55,6.07,6.07,0,0,1-.56.8,6.42,6.42,0,0,1-.69.69l-1.39,1.29q-11.13,10.34-23.22,20.9c-8.05,7-16.39,14.1-25.1,21-6,4.77-12,9.36-18.22,13.54a109.71,109.71,0,0,1-9.49,5.82,40.52,40.52,0,0,1-5,2.29,11.6,11.6,0,0,1-5.43.86,75.47,75.47,0,0,1-10.66-1.42c-.88-.17-1.73-.47-2.59-.7a22,22,0,0,1-2.47-1A21.19,21.19,0,0,1,121,361.1a19.36,19.36,0,0,1-2.07-1.64,32.26,32.26,0,0,1-6.22-8.26A62,62,0,0,1,108.6,342c-9-25-14.37-48.37-21.16-67.28a33.27,33.27,0,0,1-1-7.3c-.08-1.2,0-2.38,0-3.55s.08-2.31.2-3.44a109.89,109.89,0,0,1,1.88-12.64q.6-2.94,1.21-5.65A43.52,43.52,0,0,1,91,236.94a21.45,21.45,0,0,1,5.55-7.48,42.94,42.94,0,0,1,6-4.5c1.81-1.18,3.43-2,4.74-2.73s2.33-1.16,3-1.46,1.06-.44,1.06-.44l-1,.49c-.69.32-1.7.81-3,1.5s-2.9,1.58-4.7,2.77a44.47,44.47,0,0,0-5.91,4.52A21.35,21.35,0,0,0,91.26,237a43,43,0,0,0-1.33,5.15c-.4,1.81-.8,3.69-1.18,5.65a109.93,109.93,0,0,0-1.84,12.61c-.11,1.12-.13,2.27-.19,3.42s0,2.34,0,3.52a32.27,32.27,0,0,0,1,7.22c6.82,18.87,12.27,42.25,21.25,67.21a61.7,61.7,0,0,0,4.1,9.15,32.14,32.14,0,0,0,6.13,8.13,19.72,19.72,0,0,0,2,1.6,20.65,20.65,0,0,0,2.26,1.25,23,23,0,0,0,2.42,1c.84.23,1.67.52,2.54.69a76.85,76.85,0,0,0,10.59,1.4,11.09,11.09,0,0,0,5.22-.83,40,40,0,0,0,4.95-2.27,107.51,107.51,0,0,0,9.44-5.78c6.17-4.18,12.19-8.77,18.19-13.52,8.7-6.92,17-14,25.08-21s15.8-14,23.22-20.87l1.39-1.29a7.92,7.92,0,0,0,.65-.64,6.66,6.66,0,0,0,.52-.75,12.22,12.22,0,0,0,1.33-3.41,25.55,25.55,0,0,0,.56-7.29,57.53,57.53,0,0,0-3-14c-.39-1.11-.78-2.22-1.16-3.32l-1.31-3.23-.65-1.61-.71-1.56c-.48-1-1-2.07-1.43-3.1a53.56,53.56,0,0,0-7.05-11.17,14.9,14.9,0,0,0-4.91-3.89,6.37,6.37,0,0,0-3-.53,4.35,4.35,0,0,0-1.43.4,6.26,6.26,0,0,0-1.22.85l-9.46,7.37-17.18,13.4c-10.64,8.27-19.57,15.23-26.44,20.58l-.13.1,0-.16c-2-6.63-3.6-11.73-4.66-15.18-.52-1.72-.92-3-1.19-3.91S144.38,267,144.38,267Z" style="fill:#263238"></path><path d="M136.34,255.23a35.27,35.27,0,0,0-1.45-5.57A28.65,28.65,0,0,0,127,238.43a43.44,43.44,0,0,0-11.85-7.19c-1.64-.7-3-1.2-3.94-1.55a9.15,9.15,0,0,1-1.45-.57,9.06,9.06,0,0,1,1.51.38c1,.28,2.35.74,4,1.39a41.06,41.06,0,0,1,12,7.15,27.88,27.88,0,0,1,7.94,11.49,21.19,21.19,0,0,1,1,4.14,11,11,0,0,1,.1,1.16A2,2,0,0,1,136.34,255.23Z" style="fill:#263238"></path><path d="M140.74,323.23a8.78,8.78,0,0,1,0-1.5c0-1,.1-2.34.26-4.05a77.92,77.92,0,0,1,2.46-13.18,79,79,0,0,1,4.68-12.57c.74-1.55,1.38-2.78,1.86-3.61a8.12,8.12,0,0,1,.79-1.28,8.38,8.38,0,0,1-.61,1.37c-.42.86-1,2.11-1.7,3.67a88.81,88.81,0,0,0-7.11,25.64c-.21,1.69-.35,3.07-.43,4A8.06,8.06,0,0,1,140.74,323.23Z" style="fill:#263238"></path><path d="M146.18,325.86a10.41,10.41,0,0,1-.09-1.54c0-1,0-2.43,0-4.2.06-3.55.3-8.46.91-13.85s1.48-10.23,2.22-13.7c.37-1.74.7-3.14,1-4.1a8.16,8.16,0,0,1,.44-1.48,10.17,10.17,0,0,1-.25,1.53c-.2,1.06-.47,2.45-.79,4.12-.65,3.48-1.45,8.32-2.06,13.69s-.91,10.26-1.06,13.8c-.06,1.7-.11,3.11-.15,4.19A7.63,7.63,0,0,1,146.18,325.86Z" style="fill:#263238"></path><path d="M225.57,415.2c-2.72-.68-5.48,2.65-4.32,5.21s5.48,2.67,6.79.19-1.16-6-3.94-5.56" style="fill:#ebebeb"></path><path d="M224.1,415s.08,0,.25-.07a2.34,2.34,0,0,1,.73,0,3.91,3.91,0,0,1,2.35,1.27,4.22,4.22,0,0,1,1.09,3.8,3.3,3.3,0,0,1-1.42,2,4.57,4.57,0,0,1-5-.13,3.26,3.26,0,0,1-1.31-2,4.14,4.14,0,0,1,1.34-3.71,3.81,3.81,0,0,1,2.45-1.08,2.24,2.24,0,0,1,.73.09c.16,0,.24.07.23.09s-.35-.05-.95,0a4,4,0,0,0-3.33,4.49,2.78,2.78,0,0,0,1.14,1.72,4.06,4.06,0,0,0,2.18.7,4.13,4.13,0,0,0,2.21-.58,2.87,2.87,0,0,0,1.24-1.66,4.08,4.08,0,0,0-3-4.74C224.45,415,224.11,415.1,224.1,415Z" style="fill:#263238"></path><path d="M215,351.55a20.66,20.66,0,0,1-4.09,2.27,20.76,20.76,0,0,1-4.31,1.8,42.11,42.11,0,0,1,8.4-4.07Z" style="fill:#263238"></path><path d="M364.5,334.51a1.58,1.58,0,0,1-.11.49c-.12.36-.26.81-.43,1.34-.38,1.17-1,2.84-1.62,4.93a43.13,43.13,0,0,0-1.68,7.47,32.61,32.61,0,0,0-.24,4.5c0,1.58,0,3.21.12,4.86a18,18,0,0,0,.83,4.73,15.8,15.8,0,0,0,2.06,4,25.35,25.35,0,0,0,5.41,5.34c1.74,1.32,3.23,2.27,4.26,2.95a13.3,13.3,0,0,1,1.57,1.08,2.08,2.08,0,0,1-.45-.21l-1.23-.7c-1.06-.62-2.58-1.53-4.37-2.82a24.77,24.77,0,0,1-5.58-5.36,16.41,16.41,0,0,1-2.15-4.07,18.55,18.55,0,0,1-.87-4.86c-.1-1.69-.08-3.32-.11-4.9a32.15,32.15,0,0,1,.28-4.57,39.67,39.67,0,0,1,1.8-7.51c.7-2.08,1.34-3.74,1.78-4.88l.52-1.32A1.77,1.77,0,0,1,364.5,334.51Z" style="fill:#263238"></path><path d="M206.58,436.43l-.31,0H202.1l-12.31-.06-42-.33.23-.15L142,448.53l-.16-.36c1.43.37,3,.8,4.51,1.18a129.17,129.17,0,0,0,36.62,2.94A225.18,225.18,0,0,0,210,449l-.12.18c-1-4-1.93-7.2-2.49-9.4-.28-1.09-.48-1.94-.61-2.5-.06-.27-.11-.48-.14-.65a.87.87,0,0,1,0-.23l.06.21.19.64c.17.59.4,1.43.69,2.49.6,2.18,1.61,5.32,2.63,9.37l0,.15-.15,0a214.88,214.88,0,0,1-27.09,3.42,127.59,127.59,0,0,1-36.76-2.89c-1.56-.38-3.09-.81-4.53-1.18l-.3-.08.14-.28,6.11-12.61.07-.14h.16l42.11.55,12.26.2,3.26.07.84,0Z" style="fill:#263238"></path><path d="M279.3,433.19a3.21,3.21,0,0,1,.7,0l2.11.06c1.83.05,4.49.14,7.73.29H290l0,.17c.5,3.26,1.08,7.11,1.71,11.24l0,.25-.24.05-1.19.24-8.89,1.81-.25.06,0-.25c-.62-4.15-1.1-7.66-1.42-10.11-.16-1.16-.28-2.1-.37-2.84a5.68,5.68,0,0,1-.1-1s.09.39.22,1.07.29,1.7.5,2.88c.42,2.45,1,5.87,1.64,9.89l-.29-.19,8.89-1.86,1.18-.24-.2.29c-.6-4.14-1.16-8-1.63-11.25l.2.18c-3.12-.18-5.72-.38-7.56-.51l-2.15-.17Z" style="fill:#263238"></path><path d="M204.38,245.48a3.06,3.06,0,0,1-.22-.53l-.54-1.56c-.47-1.42-1.13-3.38-1.93-5.81-1.62-5-3.86-11.91-6.39-19.74h.49c-.47,1.84-1,3.77-1.47,5.73-.6,2.34-1.2,4.62-1.77,6.83-.14.55-.29,1.1-.43,1.65a3.21,3.21,0,0,1-.85,1.56,2.1,2.1,0,0,1-1.72.44,5.6,5.6,0,0,1-1.57-.54c-3.77-1.86-7.1-3.62-9.88-5.15s-5-2.81-6.52-3.72l-1.74-1.06a4.06,4.06,0,0,1-.59-.4,3.09,3.09,0,0,1,.64.31l1.79,1c1.55.85,3.8,2.09,6.59,3.57s6.15,3.21,9.91,5c.89.42,2,.81,2.76.15s.8-1.89,1.12-3c.57-2.21,1.15-4.49,1.76-6.83.5-2,1-3.89,1.48-5.73l.22-.87.27.86L202,237.48c.74,2.44,1.35,4.43,1.78,5.86.19.65.35,1.17.46,1.58A2.36,2.36,0,0,1,204.38,245.48Z" style="fill:#263238"></path><path d="M209.07,227.07s.27.21.19.74a1.85,1.85,0,0,1-1.55,1.37,3.4,3.4,0,0,1-2.72-1.43c-.76-.86-1.54-1.81-2.37-2.81-1.66-2-3.14-3.82-4.2-5.16a14.9,14.9,0,0,1-1.62-2.24,13.91,13.91,0,0,1,1.91,2c1.12,1.28,2.65,3.07,4.31,5.07l2.33,2.82a3.09,3.09,0,0,0,2.31,1.38,1.65,1.65,0,0,0,1.4-1C209.19,227.34,209,227.09,209.07,227.07Z" style="fill:#263238"></path><path d="M228.55,297a2.77,2.77,0,0,1-.45-.38l-1.25-1.17c-.54-.51-1.19-1.14-1.9-1.92s-1.56-1.63-2.39-2.67-1.79-2.14-2.7-3.41-1.86-2.64-2.83-4.1a75.52,75.52,0,0,1-5.35-10.1,76.85,76.85,0,0,1-3.62-10.83c-.39-1.72-.78-3.34-1-4.89s-.45-3-.6-4.3-.21-2.52-.28-3.57-.09-2-.08-2.71,0-1.26,0-1.7a2.58,2.58,0,0,1,0-.6,2.66,2.66,0,0,1,.07.6c0,.44,0,1,.08,1.7s.06,1.64.17,2.69.15,2.24.36,3.55.35,2.74.66,4.26.65,3.15,1.05,4.85a72,72,0,0,0,8.9,20.79c.95,1.47,1.84,2.87,2.78,4.11s1.8,2.39,2.64,3.42,1.63,1.91,2.32,2.71,1.31,1.45,1.82,2l1.18,1.23A2.4,2.4,0,0,1,228.55,297Z" style="fill:#263238"></path><path d="M273.17,132.62s-33.12,174.78-45.9,211.77l173-12.47s31-131.19,43-188.24Z" style="fill:#455a64"></path><g style="opacity:0.5"><path d="M367.34,334S401,259.43,410,210.51c5.16-27.68,7.68-68.14,7.68-68.14l-97.39-6.72S290.39,193.07,274.51,246s-19.29,96.78-19.29,96.78l50.38-3.93,13.9-49.33s5.34,2.52,12.26-1.5l-14.4,49.91Z" style="fill:#fff"></path></g><path d="M307.47,278.88c.49,2.41.34,8.75,7.24,6s12.86-15.59,12.86-15.59l5.91-.55a38.11,38.11,0,0,0,.29,5.24c.36,3.3,2.25,8.75,7.15,8.47s7-4.33,12.63-15.39,6.91-19.78,10-27.44,10.92-11.55,14.16-14.84,4.2-5.48,8.1-12.86,5.89-8.28,8.84-20.67-5.31-14.79-5.31-14.79-6.16-1.18-10.63.29-6.89,6.43-8.33,12-3.28,23.84-5.49,31.77-13.87,21.65-19.48,25-9.32,10.7-9.32,10.7l-4.45.41c.87-3.95-8.32-19.43-9.74-25.09s2.94-14.84,3.84-17.21,7.38-16.13,10-24.1-3.78-9.13-3.78-9.13l-8.69.8c-7.14.67-13.62,12.33-13.62,12.33a108.92,108.92,0,0,0-3.9,13.53c-.91,5.17-.19,15.64.33,20.33s5.45,9.5,6.34,14.16-2.55,14.28-3.32,17S307,276.46,307.47,278.88Zm33-15.22c1.5-9,7.46-11.68,8.73-12.27,1.71-.79,4.05-1.55,4.37-.15l-.1-.12a1.43,1.43,0,0,1,.2.39c.31.8.64,2.92-1.54,7.12-2.9,5.6-5.79,12-7.6,13.09S339,272.61,340.44,263.66Zm-26.95-1.46A11.4,11.4,0,0,1,316,255a3.53,3.53,0,0,1,.44-.44l-.18.14c1.15-1.54,3.18-1.19,4.53-.67,1,.38,5.69,2.11,2.1,11.26s-7.63,10-8.93,9.26S313.31,267.55,313.49,262.2Z" style="fill:#fff"></path><path d="M333.84,253.4c-1.47,0-.75-5.65-.75-5.65a41.51,41.51,0,0,1-.38-6.29c.12-2.64-1.38-5-2.45-7.35s-.45-8.91.49-12.24.17-3.57.17-3.57c-3.83-1-.79-9,1.33-16.5s4.66-7.07,4.66-7.07,1.68-.16,3,5.75,3.07,7.92,6.69,7.72l1.93-.18c3.62-.14,6.73-2.94,11.51-9.41s6.45-6.62,6.45-6.62,2.9-.89.82,6.56-3.51,15.31-8.14,17.13c0,0-.95.4-1.88,3.73s-4.06,10.11-6.57,12.81-5.43,5.45-6.82,8.2-4,6.71-4,6.71-3.19,5.86-4.75,6.16Z" style="fill:#fff"></path><path d="M371.26,141.64s1.83.42.7,3.5-.92,4.84-1.57,5.7a27,27,0,0,1-2.4,2.4s2.11.6.76,3.9-1.56,6.49-2.17,7.93-2.08,2-2.71,2.83,2.23-.21,1.66,2.62-2.27,5-2.12,7.54-.91,6-3.29,7.44-1.81,3.15-1.81,4.53a22.27,22.27,0,0,1-.79,5.63c-.76,3.64-6,9.48-9.35,9.39s-6.85-3.92-6.18-6.36a36.64,36.64,0,0,1,5-9.39c1.35-1.51,2.56-1.63,2.21-3.18s-2,1-2-1.2a11.57,11.57,0,0,1,1.3-6.47c1.25-2.1,1.56-4.11,2.71-6.79s3.68-3.32,3.45-3.89-1.63-.25-.61-2.92,1.17-.9,2.18-5,1.44-6.48,2.67-6.2.94-1.47,1.21-4.27-.69-1.72.84-4.84S371.26,141.64,371.26,141.64Z" style="fill:#fff"></path><path d="M376.61,242.35l-1.85-3.8,2.2-7.94s-4.56-2.44-10.18,6.79-5,13.41-5,13.41l7.24-.66a11.79,11.79,0,0,1,.7,8c-1.25,4.08-3.42,3.71-5,10.85s-1.61,10-1.61,10L343.56,335l10.08-.93,21.15-59.42s2.68-1.95,6.68-11,7.7-20.73,4.6-23.66S376.61,242.35,376.61,242.35Z" style="fill:#fff"></path><path d="M296.1,249.8l4.14-4.35,2.28-7.95s6.21-3.43,6.8,5.22-2.51,13.18-2.51,13.18l-7.24.67s-4.3,4.44-5.34,8.5,1.46,3.27-1,10.48a75.32,75.32,0,0,1-4.06,10.2l-11.76,55.31-10.08.93,12-58.55s-1.7-1.54-.68-10.32,3.87-20.37,8.82-24A6.14,6.14,0,0,1,296.1,249.8Z" style="fill:#fff"></path><path d="M273.17,132.62l3.08.17,9,.56,34.36,2.18,123.59,7.93.25,0-.05.24c-5.73,27.1-12.46,56.77-19.7,88.38S408.66,297.24,400.47,332l-.05.19h-.19l-13.28,1L227.28,344.62l-.34,0,.1-.34c2.47-7.62,4.51-15.22,6.39-22.68l2.73-11.09q1.28-5.49,2.53-10.87c1.67-7.15,3.18-14.16,4.72-21l4.29-19.9c5.47-25.76,10.06-48.38,13.81-67.08l11.66-59.1s-.05.35-.17,1-.31,1.67-.55,3c-.49,2.63-1.23,6.51-2.18,11.57-1.93,10.11-4.79,24.89-8.49,43.6s-8.25,41.34-13.7,67.12q-2.07,9.64-4.27,19.9c-1.53,6.81-3,13.82-4.7,21l-2.52,10.87q-1.35,5.49-2.72,11.1c-1.88,7.47-3.91,15.07-6.38,22.73l-.24-.32,159.66-11.53,13.29-1-.24.2c8.2-34.74,16-68.27,23.28-99.87s14-61.27,19.75-88.36l.2.27-123.45-8.14-34.4-2.3-9-.61Z" style="fill:#263238"></path><path d="M206.14,245.51S218.63,233.6,221.37,229a40.6,40.6,0,0,0,5-17.1,36.92,36.92,0,0,1,2.28-10.5s16.24-14,20.05-16.37c2.43-1.54,8.68-4.38,13.55-4.16s5.67,1.39,6.08,3.51a4.31,4.31,0,0,1-1.13,3.34s3.32,4.24-.33,7l-6.12.8-6.34,5.39s-4.09,5.75-3.4,6.21,3-.92,3-.92,8-7.52,10.27-6.84,5,2.47,5.47,4.54l0,.06a7.61,7.61,0,0,1-2.17,6.92l-.22.22s-3.05,1.07-4.33-.29-7.44,5.89-5.62,5.89,8.22-3.88,10.73-2.74,2.28,3.88.68,5.7-10.95,12.77-11.41,13.69-3,9.12-7.29,13-11.72,5.93-11.72,5.93l-23,27.83a70.5,70.5,0,0,1-7.36-20C205.72,248.75,206.14,245.51,206.14,245.51Z" style="fill:#aa6550"></path><path d="M268.69,190.88c-.05,0-.11-.46-.46-1.21a4.5,4.5,0,0,0-2.38-2.35,7.41,7.41,0,0,0-2.35-.25,24.81,24.81,0,0,0-2.79.14,18.78,18.78,0,0,0-6.1,1.69,22.79,22.79,0,0,0-5.2,3.64,51.75,51.75,0,0,0-3.71,3.7l-2.38,2.63a7.24,7.24,0,0,1-.92.94,5.7,5.7,0,0,1,.76-1.07c.52-.66,1.28-1.61,2.26-2.74a44.84,44.84,0,0,1,3.67-3.81,21.9,21.9,0,0,1,5.3-3.76,18.56,18.56,0,0,1,6.27-1.7,25.28,25.28,0,0,1,2.84-.09A7.43,7.43,0,0,1,266,187a4.49,4.49,0,0,1,2.42,2.61,4.64,4.64,0,0,1,.26.95A1.1,1.1,0,0,1,268.69,190.88Z" style="fill:#6b3b2f"></path><path d="M267,207.64c.13.05-.49,1.32-1.92,2.2a4,4,0,0,1-2.83.77c0-.16,1.25-.38,2.56-1.21S266.84,207.55,267,207.64Z" style="fill:#6b3b2f"></path><path d="M372.69,333.91c.63-.79-5.29,5.4-5.29,5.4l-4.42-.37c-3.17,6.07-3.21,13.58-2.69,21.54a2.18,2.18,0,0,0,2.59,2l6.52-1.27s8.63,1.72,14.28.62,15.85-5.17,15.85-5.17.78.15,5-1.1a5.14,5.14,0,0,0,3.92-5.18,8.25,8.25,0,0,0,4.7-1.41c2.36-1.57,1.92-6.22,1.92-6.22l3-2.84a6.26,6.26,0,0,0,2-4.76,7.22,7.22,0,0,0-.13-1.16c-.57-3.29-5.14-6.51-5.14-6.51s.89-2.67.26-4.4-12.24-10.82-12.24-10.82a2.83,2.83,0,0,0-4.08,0c-2,2,1.56,7.39,1.56,7.39-4.9-1.27-5.15,2.07-4.71,4.57A5.07,5.07,0,0,0,398,327.7l1.4.83-1.14,3.37s-3.13-2-5-1.71a4.91,4.91,0,0,0-3.52,2.51Z" style="fill:#aa6550"></path><path d="M395.45,322.78a2.08,2.08,0,0,1,0-1,3.53,3.53,0,0,1,1.41-2.29,3.11,3.11,0,0,1,1.84-.55,6,6,0,0,1,2.12.46c1.4.61,2.79,1.38,4.33,2.13a65.33,65.33,0,0,1,7.62,4.32c.93.63,1.65,1.19,2.13,1.58a4.1,4.1,0,0,1,.71.67c-.05.07-1.15-.77-3-1.94s-4.6-2.64-7.65-4.16c-1.52-.75-3-1.56-4.28-2.15a3.79,3.79,0,0,0-3.57-.06,3.53,3.53,0,0,0-1.42,2C395.5,322.43,395.49,322.78,395.45,322.78Z" style="fill:#6b3b2f"></path><path d="M407.75,349.14s-.11-.19-.42-.46a17.21,17.21,0,0,0-1.34-1.17c-1.21-1-3-2.32-5.31-3.9a87.81,87.81,0,0,0-8.32-5.1,5,5,0,0,1-2.81-5,4.25,4.25,0,0,1,1.7-2.69,4,4,0,0,1,3.19-.68,16.71,16.71,0,0,1,3,1.11c.94.43,1.87.86,2.77,1.31,1.8.89,3.51,1.82,5.09,2.78s3.05,1.92,4.39,2.87l1.92,1.39a13.9,13.9,0,0,1,1.73,1.37,6.33,6.33,0,0,1,1.22,1.62,3.83,3.83,0,0,1,.38,1.79,7.61,7.61,0,0,1-.56,2.82,4.93,4.93,0,0,1-1,1.53,1.55,1.55,0,0,1-.51.38s.18-.13.43-.45a5.35,5.35,0,0,0,.85-1.54,7.62,7.62,0,0,0,.46-2.73,3.58,3.58,0,0,0-.38-1.64,6.18,6.18,0,0,0-1.18-1.52,14.31,14.31,0,0,0-1.72-1.3l-1.93-1.37c-1.34-.92-2.81-1.87-4.39-2.81s-3.27-1.85-5.06-2.74c-.9-.44-1.82-.87-2.76-1.28a16.56,16.56,0,0,0-2.89-1.08,3.67,3.67,0,0,0-4.29,2.94,4,4,0,0,0,.59,2.65,5.26,5.26,0,0,0,2,1.82,80,80,0,0,1,8.29,5.22c2.27,1.62,4.05,3,5.23,4a14.42,14.42,0,0,1,1.29,1.26,1.35,1.35,0,0,1,.27.38C407.74,349.09,407.76,349.13,407.75,349.14Z" style="fill:#6b3b2f"></path><path d="M395.83,354.67a4,4,0,0,1-.76-.57c-.47-.39-1.14-1-2-1.74a38,38,0,0,1-2.81-2.84,9.13,9.13,0,0,1-.73-.95,4,4,0,0,1-.48-1.21,5.38,5.38,0,0,1,.11-2.72v0a3.57,3.57,0,0,1,3.23-2.68,3.29,3.29,0,0,1,1.78.4,6.52,6.52,0,0,1,1.36,1.06l2.16,2.27c1.39,1.44,2.66,2.71,3.7,3.82s1.84,2,2.38,2.68a5.34,5.34,0,0,1,.77,1.06,7.42,7.42,0,0,1-.92-.93c-.58-.61-1.43-1.49-2.5-2.56l-3.77-3.73-2.18-2.25a3.66,3.66,0,0,0-2.75-1.3,3.06,3.06,0,0,0-2.76,2.26h0v0a5,5,0,0,0-.13,2.45,3.36,3.36,0,0,0,.41,1.07c.21.32.44.62.67.91,1,1.15,1.92,2.1,2.7,2.89l1.86,1.84A3.76,3.76,0,0,1,395.83,354.67Z" style="fill:#6b3b2f"></path><path d="M393,339.79a2.9,2.9,0,0,1-.67.53,15.55,15.55,0,0,1-2,1.12,17.07,17.07,0,0,1-7.43,1.56,17.38,17.38,0,0,1-4.17-.61,16,16,0,0,1-3.18-1.28,12.21,12.21,0,0,1-1.95-1.24c-.43-.33-.66-.53-.64-.56s1,.65,2.75,1.47a18,18,0,0,0,3.15,1.15,18.69,18.69,0,0,0,4.05.55,18.49,18.49,0,0,0,7.28-1.38C392,340.37,393,339.71,393,339.79Z" style="fill:#6b3b2f"></path><path d="M401.65,350.24c0,.05-.34-.2-.44-.75a5.52,5.52,0,0,1,.13-2.05,4.38,4.38,0,0,1,1.26-2.55c.13.07-.43,1.19-.75,2.67a10,10,0,0,0-.28,1.89C401.57,349.92,401.71,350.2,401.65,350.24Z" style="fill:#6b3b2f"></path><path d="M414.18,340.72c-.05,0-.1-.37-.36-1a8.43,8.43,0,0,0-1.59-2.33,21.27,21.27,0,0,0-3.22-2.75,33.15,33.15,0,0,0-4.39-2.79c-1.63-.88-3.23-1.68-4.59-2.58a17.28,17.28,0,0,1-3.34-2.76,5.43,5.43,0,0,1-1.18-2.68,3.17,3.17,0,0,1-.06-1.06,5.76,5.76,0,0,1,.26,1,5.63,5.63,0,0,0,1.26,2.48,18.53,18.53,0,0,0,3.32,2.59c1.35.86,2.93,1.65,4.58,2.53.82.44,1.61.9,2.36,1.38s1.42,1,2.07,1.48a19.8,19.8,0,0,1,3.2,2.9,7.36,7.36,0,0,1,1.51,2.5,3.85,3.85,0,0,1,.17.78C414.2,340.62,414.2,340.72,414.18,340.72Z" style="fill:#6b3b2f"></path><path d="M395.45,322.78a2.08,2.08,0,0,1,0-1,3.53,3.53,0,0,1,1.41-2.29,3.11,3.11,0,0,1,1.84-.55,6,6,0,0,1,2.12.46c1.4.61,2.79,1.38,4.33,2.13a65.33,65.33,0,0,1,7.62,4.32c.93.63,1.65,1.19,2.13,1.58a4.1,4.1,0,0,1,.71.67c-.05.07-1.15-.77-3-1.94s-4.6-2.64-7.65-4.16c-1.52-.75-3-1.56-4.28-2.15a3.79,3.79,0,0,0-3.57-.06,3.53,3.53,0,0,0-1.42,2C395.5,322.43,395.49,322.78,395.45,322.78Z" style="fill:#6b3b2f"></path><path d="M407.75,349.14s-.11-.19-.42-.46a17.21,17.21,0,0,0-1.34-1.17c-1.21-1-3-2.32-5.31-3.9a87.81,87.81,0,0,0-8.32-5.1,5,5,0,0,1-2.81-5,4.25,4.25,0,0,1,1.7-2.69,4,4,0,0,1,3.19-.68,16.71,16.71,0,0,1,3,1.11c.94.43,1.87.86,2.77,1.31,1.8.89,3.51,1.82,5.09,2.78s3.05,1.92,4.39,2.87l1.92,1.39a13.9,13.9,0,0,1,1.73,1.37,6.33,6.33,0,0,1,1.22,1.62,3.83,3.83,0,0,1,.38,1.79,7.61,7.61,0,0,1-.56,2.82,4.93,4.93,0,0,1-1,1.53,1.55,1.55,0,0,1-.51.38s.18-.13.43-.45a5.35,5.35,0,0,0,.85-1.54,7.62,7.62,0,0,0,.46-2.73,3.58,3.58,0,0,0-.38-1.64,6.18,6.18,0,0,0-1.18-1.52,14.31,14.31,0,0,0-1.72-1.3l-1.93-1.37c-1.34-.92-2.81-1.87-4.39-2.81s-3.27-1.85-5.06-2.74c-.9-.44-1.82-.87-2.76-1.28a16.56,16.56,0,0,0-2.89-1.08,3.67,3.67,0,0,0-4.29,2.94,4,4,0,0,0,.59,2.65,5.26,5.26,0,0,0,2,1.82,80,80,0,0,1,8.29,5.22c2.27,1.62,4.05,3,5.23,4a14.42,14.42,0,0,1,1.29,1.26,1.35,1.35,0,0,1,.27.38C407.74,349.09,407.76,349.13,407.75,349.14Z" style="fill:#6b3b2f"></path><path d="M395.83,354.67a4,4,0,0,1-.76-.57c-.47-.39-1.14-1-2-1.74a38,38,0,0,1-2.81-2.84,9.13,9.13,0,0,1-.73-.95,4,4,0,0,1-.48-1.21,5.38,5.38,0,0,1,.11-2.72v0a3.57,3.57,0,0,1,3.23-2.68,3.29,3.29,0,0,1,1.78.4,6.52,6.52,0,0,1,1.36,1.06l2.16,2.27c1.39,1.44,2.66,2.71,3.7,3.82s1.84,2,2.38,2.68a5.34,5.34,0,0,1,.77,1.06,7.42,7.42,0,0,1-.92-.93c-.58-.61-1.43-1.49-2.5-2.56l-3.77-3.73-2.18-2.25a3.66,3.66,0,0,0-2.75-1.3,3.06,3.06,0,0,0-2.76,2.26h0v0a5,5,0,0,0-.13,2.45,3.36,3.36,0,0,0,.41,1.07c.21.32.44.62.67.91,1,1.15,1.92,2.1,2.7,2.89l1.86,1.84A3.76,3.76,0,0,1,395.83,354.67Z" style="fill:#6b3b2f"></path><path d="M401.65,350.24c0,.05-.34-.2-.44-.75a5.52,5.52,0,0,1,.13-2.05,4.38,4.38,0,0,1,1.26-2.55c.13.07-.43,1.19-.75,2.67a10,10,0,0,0-.28,1.89C401.57,349.92,401.71,350.2,401.65,350.24Z" style="fill:#6b3b2f"></path><path d="M414.18,340.72c-.05,0-.1-.37-.36-1a8.43,8.43,0,0,0-1.59-2.33,21.27,21.27,0,0,0-3.22-2.75,33.15,33.15,0,0,0-4.39-2.79c-1.63-.88-3.23-1.68-4.59-2.58a17.28,17.28,0,0,1-3.34-2.76,5.43,5.43,0,0,1-1.18-2.68,3.17,3.17,0,0,1-.06-1.06,5.76,5.76,0,0,1,.26,1,5.63,5.63,0,0,0,1.26,2.48,18.53,18.53,0,0,0,3.32,2.59c1.35.86,2.93,1.65,4.58,2.53.82.44,1.61.9,2.36,1.38s1.42,1,2.07,1.48a19.8,19.8,0,0,1,3.2,2.9,7.36,7.36,0,0,1,1.51,2.5,3.85,3.85,0,0,1,.17.78C414.2,340.62,414.2,340.72,414.18,340.72Z" style="fill:#6b3b2f"></path></g><g id="speech-bubble"><path d="M125.39,171.18l-9.16-16.06a42.63,42.63,0,0,0,6.39-22.5,43.11,43.11,0,1,0-16.75,34l0,0Z" style="fill:#f5f5f5"></path><path d="M125.39,171.18l-19.57-4.45-.19,0,.12-.16v0l.19.19A44.85,44.85,0,0,1,97.07,172a43.28,43.28,0,0,1-11.81,3.36,39.21,39.21,0,0,1-6.82.35c-1.18-.06-2.37-.1-3.58-.19L71.22,175a43.67,43.67,0,0,1-27-17.16,43,43,0,0,1-7.35-16.61,43.55,43.55,0,0,1,.49-19.15c.21-.8.4-1.6.63-2.4s.57-1.56.86-2.34a38,38,0,0,1,2-4.58,20.61,20.61,0,0,1,1.25-2.19l1.33-2.17,1.53-2a19.07,19.07,0,0,1,1.61-2l1.77-1.93c.58-.66,1.27-1.19,1.9-1.78s1.25-1.2,1.95-1.71l2.08-1.54A16.82,16.82,0,0,1,56.45,96l2.19-1.32c.75-.39,1.53-.74,2.29-1.11a19.83,19.83,0,0,1,2.31-1,44.25,44.25,0,0,1,19.32-3,43.09,43.09,0,0,1,17.75,5.18,43.69,43.69,0,0,1,20.57,25.07,46.41,46.41,0,0,1,1.9,14,42.41,42.41,0,0,1-2.11,12.1,42.87,42.87,0,0,1-4.34,9.26v-.12l9,16.12c-.45-.77-3.35-5.77-9.27-16l0-.06,0-.07a43.66,43.66,0,0,0,4.26-9.22,42.71,42.71,0,0,0,2-12,46.25,46.25,0,0,0-1.93-13.88,43.23,43.23,0,0,0-20.41-24.77,42.5,42.5,0,0,0-17.56-5.1,43.81,43.81,0,0,0-19.09,3,21.06,21.06,0,0,0-2.28,1c-.75.37-1.52.72-2.26,1.1l-2.17,1.31a17.15,17.15,0,0,0-2.11,1.4l-2,1.52c-.7.5-1.28,1.12-1.93,1.68s-1.31,1.12-1.88,1.76L47,104.71a19.84,19.84,0,0,0-1.6,2l-1.51,2-1.31,2.13A19.54,19.54,0,0,0,41.35,113a38.07,38.07,0,0,0-2,4.53l-.85,2.31c-.22.78-.42,1.58-.62,2.36a43.17,43.17,0,0,0-.5,18.93,42.62,42.62,0,0,0,7.25,16.42,43.13,43.13,0,0,0,26.68,17l3.6.56c1.2.09,2.38.13,3.54.19a38.62,38.62,0,0,0,6.77-.32,43.24,43.24,0,0,0,11.73-3.29,44.29,44.29,0,0,0,8.85-5.24l.79-.6-.61.78v0l-.08-.2Z" style="fill:#263238"></path><polygon points="59.37 132.14 64.98 126.56 75.81 136.13 97.07 115.78 102.28 121.37 75.01 146.91 59.37 132.14" style="fill:#FF725E"></polygon></g><g id="Desk"><path d="M468.67,475.45c0,.14-97.91.26-218.66.26s-218.68-.12-218.68-.26,97.89-.26,218.68-.26S468.67,475.31,468.67,475.45Z" style="fill:#263238"></path></g></svg>