<svg xmlns="http://www.w3.org/2000/svg" viewBox="0 0 750 500"><g id="background-complete"><path d="M241.38,66.32c-.63-7.53-5.32-14.92-12.43-17.47s-16.21.92-18.74,8c-2.27-6.28-12.9-8.49-17.79-5.69s-7.32,8.82-7,14.45c-2.87-4.14-9.26-3.89-13.69-1.51-7.72,4.16-12.19,14-9.53,22.31s12.67,13.82,20.93,10.86c2.76,5.26,6.27,10.3,11.21,13.6s11.52,4.58,16.93,2.13,8.88-9.17,6.67-14.68c6.84-.55,12.65-5.37,16.69-10.92C239.08,81.34,242,73.85,241.38,66.32Z" style="fill:#f5f5f5"></path><path d="M585,60.56l-.77,37.69c4,2.78,8.12,5.33,14.07,5.47l28.45-.28-1.47-43.87Z" style="fill:#e0e0e0"></path><polygon points="582.99 58.61 582.11 101.77 596.29 101.77 624.74 101.49 625.25 59.02 582.99 58.61" style="fill:#f5f5f5"></polygon><path d="M600.8,76.27a4,4,0,0,1,1-.88,5.32,5.32,0,0,1,3.5-.83,5.44,5.44,0,0,1,2.39.85,5.36,5.36,0,0,1,1.92,2.17,5.5,5.5,0,0,1,.52,3.16,5.47,5.47,0,0,1-1.49,3.1,5.61,5.61,0,0,1-3,1.6,5.45,5.45,0,0,1-1.66,0,5.13,5.13,0,0,1-1.52-.44,5.56,5.56,0,0,1-2.24-1.85,5.42,5.42,0,0,1-.93-2.35A5.31,5.31,0,0,1,600,77.3a3.83,3.83,0,0,1,.84-1,11,11,0,0,0-.74,1.09,5.37,5.37,0,0,0-.59,3.44,5.2,5.2,0,0,0,.92,2.23,5.28,5.28,0,0,0,2.14,1.74,4.73,4.73,0,0,0,1.45.4,4.88,4.88,0,0,0,1.57,0,5.21,5.21,0,0,0,4.28-4.44,4.86,4.86,0,0,0,0-1.57,5,5,0,0,0-.45-1.43,5.23,5.23,0,0,0-4.08-2.92,5.34,5.34,0,0,0-3.42.71A12.24,12.24,0,0,0,600.8,76.27Z" style="fill:#e0e0e0"></path><path d="M598.13,69.6l-.17-.09-.49-.29-2-1.15h.06l-3.46,3.62v-.09l1.67,2.52,0,0,0,0a12.92,12.92,0,0,0-1.18,3v.06l-.06,0-2.94.73.09-.11q0,2.37.09,5l-.09-.12,3,.61.08,0,0,.07a12.68,12.68,0,0,0,1.29,3l0,.07,0,.07-1.56,2.59,0-.17,3.6,3.47h-.18l2.53-1.67.08,0,.08,0a12.35,12.35,0,0,0,3,1.18l.09,0,0,.09c.22.92.47,1.92.72,2.94l-.15-.12,5-.09-.15.12c.2-.93.41-1.94.62-3l0-.09.09,0a12.45,12.45,0,0,0,2.95-1.28h0l.08,0,.08,0,2.59,1.57-.19,0,3.48-3.6,0,.19-1.66-2.53,0-.08,0-.08a12,12,0,0,0,1.18-3l0-.09.09,0,2.94-.72-.11.15c0-1.71-.06-3.38-.08-5l.11.14-3-.62-.09,0,0-.08a12.51,12.51,0,0,0-1.28-3l0-.07,0-.06,1.57-2.59,0,.16c-1.26-1.23-2.46-2.38-3.59-3.49l.14,0-2.53,1.65-.06,0-.06,0a12.41,12.41,0,0,0-3-1.19h-.06l0-.06c-.26-1.07-.49-2-.71-2.95l.09.07-5,.07.07-.06c-.26,1.19-.46,2.16-.64,3v0h0a12.83,12.83,0,0,0-2.29.88l-.54.28-.18.1.17-.12.52-.3a11.54,11.54,0,0,1,2.29-.93l0,0c.16-.81.35-1.78.59-3v-.06h.06l5-.11h.07l0,.07c.22.91.46,1.87.73,2.94l-.08-.08a12.5,12.5,0,0,1,3.07,1.2h-.11L613,67.62l.08-.05.07.06,3.61,3.48.07.07,0,.08-1.56,2.59v-.13a12.41,12.41,0,0,1,1.32,3l-.11-.09,3,.61.11,0v.11q0,2.44.09,5v.12l-.12,0-2.94.72.11-.11a12.26,12.26,0,0,1-1.21,3.08v-.16l1.66,2.53.06.1-.08.09-3.48,3.61-.08.08-.11-.06-2.59-1.57H611a12.56,12.56,0,0,1-3,1.32l.11-.12c-.21,1-.42,2-.62,3l0,.12h-.13l-5,.08h-.12l0-.12c-.25-1-.5-2-.72-2.94l.11.11a13,13,0,0,1-3.08-1.21h.15l-2.53,1.66-.09.06-.09-.08c-1.25-1.21-2.46-2.39-3.6-3.48l-.07-.08,0-.09,1.58-2.59v.14a12,12,0,0,1-1.31-3l.09.09-3-.62-.1,0v-.1c0-1.76,0-3.43-.07-5v-.09l.09,0,2.94-.71-.07.08a12.37,12.37,0,0,1,1.21-3.06v.09c-.6-.91-1.15-1.77-1.65-2.54l0,0,0,0,3.5-3.59,0,0,0,0,1.9,1.19.49.31Z" style="fill:#e0e0e0"></path><rect x="564.27" y="393.05" width="12.57" height="59.3" style="fill:#ebebeb"></rect><rect x="671.06" y="393.05" width="12.57" height="59.3" style="fill:#ebebeb"></rect><rect x="543.49" y="318.49" width="158.53" height="14.66" style="fill:#ebebeb"></rect><polygon points="695.7 393.79 553.14 394.1 553.14 333.15 695.7 333.15 695.7 393.79" style="fill:#ebebeb"></polygon><path d="M702,333.15c0,.16-35.49.29-79.26.29s-79.27-.13-79.27-.29,35.48-.28,79.27-.28S702,333,702,333.15Z" style="fill:#e0e0e0"></path><path d="M695.18,394.1c0,.16-31.69.28-70.76.28s-70.76-.12-70.76-.28,31.68-.29,70.76-.29S695.18,393.94,695.18,394.1Z" style="fill:#e0e0e0"></path><path d="M684,381.75s0-.24,0-.7,0-1.15,0-2c0-1.79,0-4.4,0-7.79,0-6.79-.06-16.65-.1-29l.19.19-119.05.1h0l.29-.29c0,13.74,0,27.07,0,39.55l-.28-.28,85.15.13,24.88.08,6.69,0,1.73,0,.61,0-.57,0h-1.7l-6.63,0-24.82.08-85.34.13h-.27v-.28c0-12.48,0-25.81,0-39.55v-.28h.29L684,342h.18v.19c0,12.42-.08,22.32-.1,29.14,0,3.37,0,6,0,7.76,0,.86,0,1.52,0,2S684,381.75,684,381.75Z" style="fill:#e0e0e0"></path><path d="M569.61,376.56a9.82,9.82,0,0,1-2.07,2.64,10,10,0,0,1-2.48,2.25,9.82,9.82,0,0,1,2.07-2.64A10,10,0,0,1,569.61,376.56Z" style="fill:#e0e0e0"></path><path d="M569.61,347.39A11,11,0,0,1,567,345a11.24,11.24,0,0,1-2.15-2.78,11.08,11.08,0,0,1,2.57,2.4A10.67,10.67,0,0,1,569.61,347.39Z" style="fill:#e0e0e0"></path><path d="M684.16,342.33a10.57,10.57,0,0,1-2.59,2.74,16.49,16.49,0,0,1-3,2.32c-.13-.12,1-1.39,2.59-2.75A15.93,15.93,0,0,1,684.16,342.33Z" style="fill:#e0e0e0"></path><path d="M684,381.75a11.86,11.86,0,0,1-2.87-2.39,12.48,12.48,0,0,1-2.48-2.79,12,12,0,0,1,2.87,2.38A12.65,12.65,0,0,1,684,381.75Z" style="fill:#e0e0e0"></path><path d="M678.6,376.56s0-.18,0-.51,0-.84,0-1.48c0-1.32,0-3.24,0-5.73,0-5-.06-12.26-.1-21.45l.18.17-109,.11h0l.28-.28v29.17l-.28-.28,77.77.13,22.89.08,6.17,0,1.6,0h.56a5,5,0,0,1-.52,0l-1.57,0-6.11,0-22.83.08-78,.12h-.28v-.28c0-9.37,0-19.14,0-29.17v-.29h.3l109,.11h.17v.18c0,9.23-.07,16.54-.09,21.56,0,2.47,0,4.37,0,5.68,0,.63,0,1.11,0,1.45S678.6,376.56,678.6,376.56Z" style="fill:#e0e0e0"></path><path d="M634.9,359.26a11.51,11.51,0,0,0-2.92-1.33,9.25,9.25,0,0,0-2.9-.45h-8a9.24,9.24,0,0,0-6.39,2.47,5.45,5.45,0,0,0-1,1.15A3.29,3.29,0,0,0,614,365c1,1,3.13.49,3.31-.91A3.48,3.48,0,0,0,621,367.4a4.72,4.72,0,0,0,4-3.42,3.13,3.13,0,0,0,6.23.47c1,1.29,2.45,2.49,4.14,1.95a3,3,0,0,0,1.92-2.15A4.78,4.78,0,0,0,634.9,359.26Z" style="fill:#e0e0e0"></path><path d="M622.49,357.44a11.19,11.19,0,0,0-5.15,7.08c-.07,0-.12-.53,0-1.37a7.85,7.85,0,0,1,1.35-3,7.94,7.94,0,0,1,2.47-2.22C622,357.49,622.46,357.38,622.49,357.44Z" style="fill:#ebebeb"></path><path d="M625.56,357.77a9,9,0,0,1,0,3.19,9.22,9.22,0,0,1-.62,3.13,8.81,8.81,0,0,1,.05-3.19A9.2,9.2,0,0,1,625.56,357.77Z" style="fill:#ebebeb"></path><path d="M629.43,357.68c0-.06.46.11.93.64a5,5,0,0,1,1.13,2.47,9.18,9.18,0,0,1,0,2.67c-.1.68-.21,1.08-.28,1.07s-.12-.42-.13-1.09a15.48,15.48,0,0,0-.17-2.55,6.27,6.27,0,0,0-.89-2.33C629.69,358,629.38,357.75,629.43,357.68Z" style="fill:#ebebeb"></path><rect x="575.46" y="413.01" width="97.68" height="11.44" style="fill:#ebebeb"></rect><path d="M648.58,303.64v14.74H585.23a7.37,7.37,0,0,1-7.37-7.37h0a7.37,7.37,0,0,1,7.37-7.37" style="fill:#e0e0e0"></path><path d="M626.72,306.73h21.87a0,0,0,0,1,0,0v8.56a0,0,0,0,1,0,0H626.72a3.28,3.28,0,0,1-3.28-3.28v-2A3.28,3.28,0,0,1,626.72,306.73Z" style="fill:#ebebeb"></path><path d="M648.58,288.91v14.73H585.23a7.37,7.37,0,0,1-7.37-7.36h0a7.37,7.37,0,0,1,7.37-7.36Z" style="fill:#ebebeb"></path><path d="M626.72,292h21.87a0,0,0,0,1,0,0v8.56a0,0,0,0,1,0,0H626.72a3.28,3.28,0,0,1-3.28-3.28v-2A3.28,3.28,0,0,1,626.72,292Z" style="fill:#f5f5f5"></path><polygon points="602.83 265.27 592.76 288.91 599.24 288.91 603.71 276.29 602.83 265.27" style="fill:#e0e0e0"></polygon><polygon points="633.72 243.89 637.61 288.91 604.72 288.91 601.11 243.89 633.72 243.89" style="fill:#f5f5f5"></polygon><polygon points="630.51 247.46 633.91 285.17 609.23 285.49 605.89 247.24 630.51 247.46" style="fill:#fafafa"></polygon><polygon points="625.27 252.68 627.21 278.63 614.04 278.63 611.72 252.68 625.27 252.68" style="fill:#e0e0e0"></polygon><circle cx="249.71" cy="307.5" r="9.02" transform="translate(-145.59 281.99) rotate(-47.23)" style="fill:#ebebeb"></circle><circle cx="695.18" cy="211.26" r="9.02" transform="translate(329.28 838.97) rotate(-76.66)" style="fill:#ebebeb"></circle><circle cx="281.88" cy="58.64" r="9.02" style="fill:#f5f5f5"></circle><circle cx="470.28" cy="49.62" r="9.02" transform="translate(102.66 347.07) rotate(-45)" style="fill:#ebebeb"></circle><path d="M320.14,300.92a9,9,0,0,0-1.16,12.8l-1.46,1.42a9.08,9.08,0,0,0,11.33,12.45,8.93,8.93,0,1,0,12.84-6.88,11.73,11.73,0,0,0,7.17-9.07,10.28,10.28,0,0,0-5.11-10.19,9.17,9.17,0,0,0-11,2A9,9,0,0,0,320.14,300.92Z" style="fill:#f5f5f5"></path><path d="M248.74,248c-2.81-6.13-11.34-8.78-17.13-5.32l-1.53-2.41a12.67,12.67,0,0,0-20.3,11.82,12.48,12.48,0,1,0,5.63,19.55,16.37,16.37,0,0,0,10.3,12.44,14.33,14.33,0,0,0,15.4-4c3.63-4.33,3.95-11.21.46-15.64C248,262.31,251.54,254.12,248.74,248Z" style="fill:#ebebeb"></path><path d="M703.61,158.3c6.7-4.14,8.54-14.41,3.69-20.61l2.57-2.11a14.79,14.79,0,0,0-16.63-21.81,14.56,14.56,0,1,0-21.82,9.34,19.11,19.11,0,0,0-12.93,13.72,16.74,16.74,0,0,0,6.86,17.27c5.53,3.58,13.54,3,18.18-1.73C686.9,159.48,696.91,162.44,703.61,158.3Z" style="fill:#ebebeb"></path><rect x="141.79" y="59.57" width="6.92" height="148.76" style="fill:#e0e0e0"></rect><rect x="41.43" y="60.72" width="99.31" height="147.81" rx="0.1" style="fill:#f5f5f5"></rect><path d="M141.79,209.68H40.38a.09.09,0,0,1-.1-.1V59.67a.09.09,0,0,1,.1-.1H141.79a.1.1,0,0,1,.1.1V209.58A.1.1,0,0,1,141.79,209.68Zm-99.11-2.3h96.81a.1.1,0,0,0,.1-.1V62a.11.11,0,0,0-.1-.1H42.68a.1.1,0,0,0-.1.1V207.28A.09.09,0,0,0,42.68,207.38Z" style="fill:#ebebeb"></path><rect x="51.43" y="69.84" width="79.49" height="129.48" rx="0.1" style="fill:#fafafa"></rect><rect x="68.77" y="106.55" width="44.63" height="52.31" rx="0.06" style="fill:#ebebeb"></rect><path d="M109.86,152.45c.06.17-2.14,1.14-6.33.65a15.53,15.53,0,0,1-7.13-2.85,14.48,14.48,0,0,1-5.53-8.71,12.53,12.53,0,0,1,4.23-11.9,11.26,11.26,0,0,1,3.21-1.88,8.57,8.57,0,0,1,4-.46,7.11,7.11,0,0,1,4,1.75,5.24,5.24,0,0,1,1.58,4.68,7.68,7.68,0,0,1-2.2,4,14.53,14.53,0,0,1-3.36,2.47,18.31,18.31,0,0,1-8,2.29,16,16,0,0,1-8.55-1.94,15.58,15.58,0,0,1-6.29-6.52,13.3,13.3,0,0,1-1.13-9.14,13.61,13.61,0,0,1,4.81-7.52,12,12,0,0,1,4-2,10.09,10.09,0,0,1,4.54-.14,7.39,7.39,0,0,1,4.12,2.33,6.8,6.8,0,0,1,1.62,4.4,8.52,8.52,0,0,1-1.07,4.2,11.31,11.31,0,0,1-2.55,3.06,17.09,17.09,0,0,1-6.32,3.36,16.11,16.11,0,0,1-6.65.51,13.63,13.63,0,0,1-5.79-2.21,12.56,12.56,0,0,1-5.53-8.76,10.56,10.56,0,0,1,2-7.51,9,9,0,0,1,3.79-3c1-.39,1.63-.38,1.66-.28s-.47.37-1.32.94a9.81,9.81,0,0,0-3,3.16,9.39,9.39,0,0,0-1.2,6.42,10.5,10.5,0,0,0,4.91,6.88,12.14,12.14,0,0,0,10.15,1,14.33,14.33,0,0,0,5.07-2.87A6.26,6.26,0,0,0,94.12,122a3.41,3.41,0,0,0-3.05-3.37,6.73,6.73,0,0,0-2.92.13,8.62,8.62,0,0,0-2.76,1.45,10.07,10.07,0,0,0-3.47,5.53,9.68,9.68,0,0,0,.85,6.63,11.93,11.93,0,0,0,4.81,5,12.35,12.35,0,0,0,6.6,1.54,15,15,0,0,0,6.5-1.78,10.85,10.85,0,0,0,2.59-1.82,4.36,4.36,0,0,0,1.32-2.15,1.87,1.87,0,0,0-.53-1.72,3.89,3.89,0,0,0-2.15-.95,5.38,5.38,0,0,0-2.53.22A7.86,7.86,0,0,0,97,132a9.82,9.82,0,0,0-3.59,9.1,12.53,12.53,0,0,0,4.25,7.53,15,15,0,0,0,6.11,3.05C107.57,152.57,109.83,152.14,109.86,152.45Z" style="fill:#e0e0e0"></path></g><g id="background-simple"><path d="M708.69,291.82l-1.15-1.9c-9.69-16-27.21-25.6-45.69-24.43a48.45,48.45,0,0,0-7.07,1A52.58,52.58,0,0,0,617.31,299c-3.56,9.57-4.56,20.58-11.32,28.18-8.8,9.88-23.74,10.19-36.87,9.78s-28.09-.06-36.84,9.86c-5.49,6.22-7.23,15-6.79,23.38,1.17,22,16.53,41.73,36,51.52s42.52,10.67,63.89,6.36c29.93-6,58.4-22.6,75.51-48.2S722.38,319.44,708.69,291.82Z" style="fill:#f5f5f5"></path><path d="M79,214.63l1.79,1.31c15.09,11,35,13.16,51.57,5a48,48,0,0,0,6.15-3.61,52.58,52.58,0,0,0,22.07-44.47c-.39-10.21-3.71-20.76-.39-30.37,4.32-12.51,18-18.54,30.27-23.21s26-10.75,30.22-23.27c2.67-7.85.88-16.68-2.73-24.19-9.55-19.89-31.3-32.17-53.09-33.7s-43.35,6.5-61.42,18.7c-25.31,17.08-45.22,43.33-51.17,73.54S55.72,194.39,79,214.63Z" style="fill:#f5f5f5"></path><circle cx="649.2" cy="92.14" r="28.09" style="fill:#f5f5f5"></circle><circle cx="232.29" cy="295.43" r="28.09" transform="translate(-96.69 113.75) rotate(-22.91)" style="fill:#f5f5f5"></circle></g><g id="Floor"><path d="M704.52,453.1c0,.15-147.55.26-329.5.26s-329.54-.11-329.54-.26S193,452.84,375,452.84,704.52,453,704.52,453.1Z" style="fill:#263238"></path></g><g id="Thoughts"><path d="M443.4,77.27c-17.1-24.32-47.35-38.76-77-36.78S308.67,60.81,295,87.18c-19.91-3.63-42.82-2.07-56.91,12.46-12.44,12.83-14.4,34.53-4.46,49.38-8.81,0-16,7.18-20.36,14.86-10.16,18-8.45,43.63,7.76,56.48,11,8.71,25.86,10.17,39.83,11.28a64.13,64.13,0,0,0,91.66,45c1.75-.87,3.62-1.85,5.54-1.53a9.4,9.4,0,0,1,3.21,1.49,59.64,59.64,0,0,0,89.33-37.07s47.79,19.55,72.68-22.46c8.5-14.36,6.11-33.33.38-49,15.74-1.58,29.08-16.2,29.2-32s-13-30.65-28.72-32.45c1.36-10.84-9.2-24.31-18.09-30.67s-21-9.06-30.91-9.07c-11.78,0-19.87,3-31.7,13.4" style="fill:#fafafa"></path><path d="M443.4,77.27s.45-.41,1.35-1.19c.45-.39,1-.88,1.71-1.43s1.49-1.21,2.43-1.91A52.57,52.57,0,0,1,456.2,68a35.32,35.32,0,0,1,11.29-3.73,46.08,46.08,0,0,1,7.12-.53,59.62,59.62,0,0,1,25.16,5.38,46.05,46.05,0,0,1,16.08,13,45,45,0,0,1,6.1,9.66,29.89,29.89,0,0,1,1.94,5.65,20,20,0,0,1,.36,6.14l-.14-.18a32.67,32.67,0,0,1,18.62,9.14,33.55,33.55,0,0,1,10.08,20.11,29.52,29.52,0,0,1-1.17,12,33.38,33.38,0,0,1-5.84,11,35.18,35.18,0,0,1-9.67,8.43,31.15,31.15,0,0,1-12.49,4.19l.17-.27c3.4,9.45,5.73,19.81,5.06,30.5A43.34,43.34,0,0,1,525,214.19a58.67,58.67,0,0,1-9.45,13.61,51.65,51.65,0,0,1-13.41,10.36c-.62.36-1.28.65-1.93,1s-1.29.62-2,.9c-1.35.51-2.67,1.1-4.06,1.5a53.32,53.32,0,0,1-8.49,2,66.17,66.17,0,0,1-17.68.29,73.92,73.92,0,0,1-17.56-4.1l.33-.17a61.23,61.23,0,0,1-20.51,32.6,65.51,65.51,0,0,1-8.25,5.72,58.21,58.21,0,0,1-29.38,7.68,59.11,59.11,0,0,1-10.35-.87c-1.73-.25-3.42-.69-5.12-1.08s-3.38-.93-5-1.55-3.27-1.28-4.89-2-3.19-1.52-4.7-2.44c-.76-.44-1.54-.88-2.28-1.34a6.81,6.81,0,0,0-2.34-1c-1.67-.28-3.34.49-4.89,1.27a65.66,65.66,0,0,1-42,5.69A62,62,0,0,1,293,275.86a64,64,0,0,1-15.11-11.51,68.18,68.18,0,0,1-11.08-15.18,65.34,65.34,0,0,1-6.24-17.48l.23.21c-5.71-.47-11.41-1-17-2a59.6,59.6,0,0,1-16.13-5,41.07,41.07,0,0,1-7.07-4.53L219,219a15.84,15.84,0,0,1-1.51-1.44l-1.4-1.56-.69-.78c-.22-.27-.41-.56-.62-.84A39.8,39.8,0,0,1,208,199.45a50.46,50.46,0,0,1,3-31.54,47.73,47.73,0,0,1,3.76-6.93,36.21,36.21,0,0,1,5-6,24.29,24.29,0,0,1,6.35-4.44,18,18,0,0,1,7.48-1.76l-.2.37a40.5,40.5,0,0,1-5.64-29.5A41.2,41.2,0,0,1,233,105.82a37.53,37.53,0,0,1,9.8-10.61,46,46,0,0,1,12.51-6.5,62.71,62.71,0,0,1,13.42-2.93A92.93,92.93,0,0,1,295,87l-.21.1a88.51,88.51,0,0,1,25.35-29.44,90.46,90.46,0,0,1,31.41-14.92l4-.93,3.94-.67c1.29-.25,2.6-.35,3.89-.48s2.56-.31,3.83-.33c2.54-.08,5-.22,7.48-.06,1.22.07,2.43,0,3.62.18l3.54.36c1.17.09,2.31.31,3.44.5l3.36.56,3.24.76c1.06.26,2.13.47,3.15.81,2,.64,4.07,1.14,6,1.9s3.79,1.36,5.53,2.19A92.39,92.39,0,0,1,424.25,57.7l3.38,2.65c1.1.82,2,1.76,3,2.57,1.92,1.63,3.47,3.3,4.9,4.74a26.53,26.53,0,0,1,2,2.12l1.63,1.9c1,1.15,1.78,2.22,2.42,3,1.25,1.67,1.88,2.54,1.88,2.54s-.66-.84-1.93-2.5c-.64-.83-1.39-1.9-2.43-3l-1.65-1.89a28.31,28.31,0,0,0-1.95-2.11c-1.44-1.43-3-3.1-4.92-4.71-1-.81-1.88-1.74-3-2.56l-3.38-2.63a92.91,92.91,0,0,0-17.76-10.12c-1.74-.82-3.61-1.46-5.52-2.16s-3.91-1.25-5.95-1.9c-1-.33-2.08-.54-3.14-.79l-3.23-.75-3.35-.56c-1.13-.19-2.26-.4-3.43-.49l-3.53-.35c-1.18-.14-2.39-.11-3.61-.18-2.43-.15-4.92,0-7.45.07-1.27,0-2.54.23-3.82.34s-2.59.23-3.88.49l-3.92.67-3.94.93a90.07,90.07,0,0,0-31.27,14.9,88.1,88.1,0,0,0-25.22,29.34l-.06.12-.15,0A92.52,92.52,0,0,0,268.8,86.2a61.64,61.64,0,0,0-13.33,2.92,45.49,45.49,0,0,0-12.39,6.45,36.89,36.89,0,0,0-9.67,10.49,40.68,40.68,0,0,0-5.21,13.67,40,40,0,0,0,5.59,29.16l.24.37h-.44a17.31,17.31,0,0,0-7.28,1.71,23.84,23.84,0,0,0-6.22,4.36,35.72,35.72,0,0,0-5,5.92,47.61,47.61,0,0,0-3.72,6.85,50.09,50.09,0,0,0-3,31.24,39.66,39.66,0,0,0,6.78,14.7c.21.27.4.56.61.83l.69.76,1.37,1.53a13.32,13.32,0,0,0,1.49,1.42l1.54,1.38a40.35,40.35,0,0,0,7,4.46,59.13,59.13,0,0,0,16,5c5.56,1,11.24,1.5,16.95,2l.2,0,0,.19a64.64,64.64,0,0,0,6.19,17.34,67.64,67.64,0,0,0,11,15.06,63.39,63.39,0,0,0,15,11.41,61.32,61.32,0,0,0,17.9,6.43,65.12,65.12,0,0,0,41.69-5.64c1.56-.78,3.31-1.62,5.21-1.32a7.37,7.37,0,0,1,2.52,1c.75.48,1.51.9,2.27,1.34,1.5.91,3.09,1.64,4.65,2.42s3.2,1.41,4.85,1.94,3.31,1.06,5,1.55,3.36.82,5.07,1.06a58.21,58.21,0,0,0,10.27.87,57.65,57.65,0,0,0,29.12-7.61A63.8,63.8,0,0,0,430,271.8a60.68,60.68,0,0,0,20.35-32.32l.07-.27.27.1a73.38,73.38,0,0,0,17.42,4.07,65.61,65.61,0,0,0,17.55-.29,53.21,53.21,0,0,0,8.42-2c1.38-.4,2.69-1,4-1.49.66-.28,1.29-.6,1.94-.9a21.22,21.22,0,0,0,1.91-.95,51,51,0,0,0,13.29-10.25A58.68,58.68,0,0,0,524.61,214a43,43,0,0,0,3.82-15.52c.68-10.6-1.64-20.91-5-30.33l-.09-.25.27,0a30.86,30.86,0,0,0,12.33-4.13,35,35,0,0,0,9.56-8.32,33.26,33.26,0,0,0,5.79-10.86,29.06,29.06,0,0,0,1.16-11.82,33,33,0,0,0-10-19.9,32.39,32.39,0,0,0-18.4-9.08h-.16l0-.16a19.62,19.62,0,0,0-.36-6,28.23,28.23,0,0,0-1.91-5.6,44.6,44.6,0,0,0-6-9.6,45.79,45.79,0,0,0-16-13,56.58,56.58,0,0,0-17.19-4.92,58,58,0,0,0-7.85-.49,47,47,0,0,0-7.1.51,35.48,35.48,0,0,0-11.26,3.68,52.68,52.68,0,0,0-7.32,4.65c-.94.69-1.75,1.33-2.44,1.89s-1.27,1-1.72,1.41C443.87,76.89,443.4,77.27,443.4,77.27Z" style="fill:#263238"></path><path d="M536,294.58a9.3,9.3,0,0,0-12.19-2.87l-.6.4A8.95,8.95,0,1,0,536,294.58Z" style="fill:#fafafa"></path><path d="M536,294.58a6,6,0,0,1,1,2,9.39,9.39,0,0,1-.11,6,9,9,0,0,1-2.22,3.55,8.17,8.17,0,0,1-1.9,1.39,8.79,8.79,0,0,1-2.36.82,9.92,9.92,0,0,1-5.28-.45,8.79,8.79,0,0,1-4.45-3.54,9.1,9.1,0,0,1-1.28-5.54,10.78,10.78,0,0,1,.59-2.67,9.85,9.85,0,0,1,1.24-2.31A9,9,0,0,1,523,292a8.47,8.47,0,0,1,2.07-1.11,9,9,0,0,1,4.15-.48,9.31,9.31,0,0,1,5.44,2.45,6.12,6.12,0,0,1,1.35,1.73,16.38,16.38,0,0,0-1.48-1.58,9.46,9.46,0,0,0-5.34-2.24,8.88,8.88,0,0,0-4,.52,8.35,8.35,0,0,0-2,1.08,8.48,8.48,0,0,0-1.65,1.68,9.84,9.84,0,0,0-1.17,2.2,10.26,10.26,0,0,0-.54,2.54,8.63,8.63,0,0,0,1.21,5.23,8.34,8.34,0,0,0,4.19,3.33,9.44,9.44,0,0,0,5,.46,8.56,8.56,0,0,0,2.24-.75,8,8,0,0,0,1.81-1.3,8.64,8.64,0,0,0,2.17-3.36,9.42,9.42,0,0,0,.27-5.78A16.44,16.44,0,0,0,536,294.58Z" style="fill:#263238"></path><path d="M523.92,255.77A13.66,13.66,0,0,0,506,251.54l-.89.59a13.15,13.15,0,1,0,18.81,3.64Z" style="fill:#fafafa"></path><path d="M523.92,255.77a5.38,5.38,0,0,1,.45.7,5.08,5.08,0,0,1,.46.91,7.25,7.25,0,0,1,.5,1.29,13.82,13.82,0,0,1-.21,8.73,13.26,13.26,0,0,1-3.24,5.17,12.42,12.42,0,0,1-2.77,2,13.21,13.21,0,0,1-3.44,1.19,14.29,14.29,0,0,1-11.33-2.66,12,12,0,0,1-2.86-3.16,13.26,13.26,0,0,1-1.87-8.07,16.16,16.16,0,0,1,.86-3.89,15,15,0,0,1,1.81-3.38,13.65,13.65,0,0,1,2.57-2.58,11.38,11.38,0,0,1,1.48-.92c.25-.13.5-.28.76-.4l.78-.3a13.13,13.13,0,0,1,6.06-.72,13.82,13.82,0,0,1,8,3.55,8,8,0,0,1,1,1,4.71,4.71,0,0,1,.62.8,6.69,6.69,0,0,1,.44.71,20.58,20.58,0,0,0-2.15-2.37,13.92,13.92,0,0,0-7.88-3.33,12.87,12.87,0,0,0-5.87.75l-.75.3c-.25.12-.48.26-.73.39a10.33,10.33,0,0,0-1.42.91,12.59,12.59,0,0,0-2.45,2.49,13.9,13.9,0,0,0-1.73,3.26,15.55,15.55,0,0,0-.82,3.76,12.88,12.88,0,0,0,1.8,7.76,12.4,12.4,0,0,0,6.22,4.95,14.16,14.16,0,0,0,7.44.67,13.39,13.39,0,0,0,3.32-1.12,12.31,12.31,0,0,0,2.68-1.93,12.85,12.85,0,0,0,3.19-5,13.89,13.89,0,0,0,.37-8.54A19.8,19.8,0,0,0,523.92,255.77Z" style="fill:#263238"></path><path d="M638,215a17.46,17.46,0,0,0-1.81-17.65c8.74-3.72,13.44-14.89,10-23.75s-14.44-13.93-23.41-10.78a20.36,20.36,0,0,0-38.6-4.69,12.26,12.26,0,0,0-13.46,18.14,13.44,13.44,0,0,0,3.78,24,18.67,18.67,0,1,0,32,19.16,20.53,20.53,0,0,0,17,6A18.84,18.84,0,0,0,638,215Z" style="fill:#fafafa"></path><path d="M638,215s-.08.2-.27.58a15.3,15.3,0,0,1-.94,1.66,18.29,18.29,0,0,1-5.17,5.2,18.72,18.72,0,0,1-11.13,3.25,20.88,20.88,0,0,1-14.08-6.17l.28,0a19.19,19.19,0,0,1-3.93,4.72,19.88,19.88,0,0,1-5.61,3.38,18.44,18.44,0,0,1-6.82,1.32,19.07,19.07,0,0,1-17.71-12.5,19.33,19.33,0,0,1,1.67-16.3l.14.36A13.7,13.7,0,0,1,570.53,176l-.08.34a12.54,12.54,0,0,1,13.75-18.52l-.29.15c4-8.63,13.8-13.46,22.41-11.83a21,21,0,0,1,11,6,20.6,20.6,0,0,1,5.6,10.57l-.3-.17a18.3,18.3,0,0,1,8.78-.68,20.79,20.79,0,0,1,7.79,3.07,18.43,18.43,0,0,1,5.59,5.6,16.79,16.79,0,0,1,2.49,7,19.86,19.86,0,0,1-3,12.75,20.09,20.09,0,0,1-3.77,4.4,18.59,18.59,0,0,1-4.4,2.74l0-.19a16.8,16.8,0,0,1,3.13,7.32,18.07,18.07,0,0,1,0,5.84,17.4,17.4,0,0,1-.94,3.45c-.31.74-.5,1.11-.5,1.11s0-.1.11-.29l.33-.85a19,19,0,0,0,.87-3.44,18.21,18.21,0,0,0-.08-5.78,16.78,16.78,0,0,0-3.14-7.21l-.1-.12.15-.07a19,19,0,0,0,4.32-2.73,20.25,20.25,0,0,0,3.68-4.35A19.53,19.53,0,0,0,647,177.61a16.48,16.48,0,0,0-2.45-6.83,18.21,18.21,0,0,0-5.49-5.46,20.6,20.6,0,0,0-7.64-3,18.1,18.1,0,0,0-8.55.68l-.25.09-.05-.26A20.21,20.21,0,0,0,617,152.52a20.44,20.44,0,0,0-10.8-5.86c-8.37-1.58-18,3.15-21.85,11.55l-.09.2-.21,0a12,12,0,0,0-13.18,17.76l.12.2-.19.14a13.19,13.19,0,0,0,3.7,23.52l.31.09-.17.28A18.9,18.9,0,0,0,573,216.24a18.68,18.68,0,0,0,17.27,12.24A18.08,18.08,0,0,0,597,227.2a19.47,19.47,0,0,0,5.51-3.29,18.75,18.75,0,0,0,3.88-4.62l.11-.2.16.17a20.72,20.72,0,0,0,13.84,6.14,19,19,0,0,0,16.21-8.23c.46-.7.78-1.25,1-1.63S638,215,638,215Z" style="fill:#263238"></path><path d="M262.38,133.16l-.5,24.65c2.6,1.82,5.31,3.48,9.2,3.58l18.6-.19-1-28.69Z" style="fill:#e0e0e0"></path><polygon points="261.08 131.89 260.58 156.54 269.78 160.12 288.38 159.93 288.72 132.16 261.08 131.89" style="fill:#FF725E"></polygon><path d="M263.7,154.65l-3.12,1.89a10.6,10.6,0,0,0,3.54,2.49,15.38,15.38,0,0,0,5.66,1.09A10.2,10.2,0,0,1,263.7,154.65Z" style="fill:#FF725E"></path><path d="M263.7,154.65c-1.14,1.11-2.36,2.45-3.12,1.89a10.6,10.6,0,0,0,3.54,2.49,15.38,15.38,0,0,0,5.66,1.09A10.2,10.2,0,0,1,263.7,154.65Z" style="opacity:0.30000000000000004"></path><path d="M285.55,140.9s-4.7,0-10.51,0-10.5-.13-10.5-.18,4.7,0,10.51,0S285.55,140.86,285.55,140.9Z" style="fill:#263238"></path><path d="M285.42,144.69c0,.05-4.7,0-10.5,0s-10.51-.13-10.51-.18,4.71,0,10.51,0S285.42,144.65,285.42,144.69Z" style="fill:#263238"></path><path d="M285.51,148.05s-4.7,0-10.51,0-10.5-.13-10.5-.18,4.7,0,10.51,0S285.51,148,285.51,148.05Z" style="fill:#263238"></path><path d="M285.46,151.29s-4.71,0-10.51,0-10.5-.13-10.5-.18,4.7,0,10.5,0S285.46,151.24,285.46,151.29Z" style="fill:#263238"></path><path d="M300.57,176.83l-.51,24.65c2.6,1.82,5.31,3.48,9.21,3.58l18.6-.19-1-28.69Z" style="fill:#e0e0e0"></path><polygon points="299.27 175.56 298.76 200.21 307.97 203.78 326.57 203.6 326.9 175.82 299.27 175.56" style="fill:#FF725E"></polygon><path d="M301.89,198.32l-3.12,1.89a10.6,10.6,0,0,0,3.54,2.49,15.38,15.38,0,0,0,5.66,1.09A10.2,10.2,0,0,1,301.89,198.32Z" style="fill:#FF725E"></path><path d="M301.89,198.32c-1.14,1.11-2.36,2.45-3.12,1.89a10.6,10.6,0,0,0,3.54,2.49,15.38,15.38,0,0,0,5.66,1.09A10.2,10.2,0,0,1,301.89,198.32Z" style="opacity:0.30000000000000004"></path><path d="M302.38,133.16l-.5,24.65c2.6,1.82,5.31,3.48,9.21,3.58l18.6-.19-1-28.69Z" style="fill:#e0e0e0"></path><polygon points="301.09 131.89 300.51 160.12 309.79 160.12 328.39 159.93 328.72 132.16 301.09 131.89" style="fill:#FF725E"></polygon><path d="M377.06,133.16l-.5,24.65c2.6,1.82,5.31,3.48,9.2,3.58l18.6-.19-1-28.69Z" style="fill:#e0e0e0"></path><polygon points="375.76 131.89 375.26 156.54 384.46 160.12 403.06 159.93 403.4 132.16 375.76 131.89" style="fill:#455a64"></polygon><path d="M378.38,154.65l-3.12,1.89A10.6,10.6,0,0,0,378.8,159a15.38,15.38,0,0,0,5.66,1.09A10.2,10.2,0,0,1,378.38,154.65Z" style="fill:#455a64"></path><path d="M378.38,154.65c-1.14,1.11-2.36,2.45-3.12,1.89A10.6,10.6,0,0,0,378.8,159a15.38,15.38,0,0,0,5.66,1.09A10.2,10.2,0,0,1,378.38,154.65Z" style="opacity:0.30000000000000004"></path><path d="M332.8,109.35c0,.14-18,.26-40.21.26s-40.22-.12-40.22-.26,18-.26,40.22-.26S332.8,109.2,332.8,109.35Z" style="fill:#263238"></path><path d="M449.64,134.61l-.5,24.65c2.6,1.81,5.31,3.48,9.2,3.57l18.6-.18L476,134Z" style="fill:#e0e0e0"></path><polygon points="448.34 133.33 447.84 157.99 457.04 161.56 475.64 161.38 475.98 133.6 448.34 133.33" style="fill:#FF725E"></polygon><path d="M451,156.09l-3.12,1.9a10.6,10.6,0,0,0,3.54,2.49,15.37,15.37,0,0,0,5.66,1.08A10.16,10.16,0,0,1,451,156.09Z" style="fill:#FF725E"></path><path d="M451,156.09c-1.14,1.12-2.36,2.46-3.12,1.9a10.6,10.6,0,0,0,3.54,2.49,15.37,15.37,0,0,0,5.66,1.08A10.16,10.16,0,0,1,451,156.09Z" style="opacity:0.30000000000000004"></path><path d="M472.81,142.35s-4.7,0-10.51,0-10.5-.13-10.5-.17,4.7,0,10.51,0S472.81,142.3,472.81,142.35Z" style="fill:#263238"></path><path d="M472.68,146.14s-4.7,0-10.5,0-10.51-.13-10.51-.18,4.71,0,10.51,0S472.68,146.09,472.68,146.14Z" style="fill:#263238"></path><path d="M472.77,149.5s-4.7,0-10.51,0-10.5-.13-10.5-.18,4.7,0,10.51,0S472.77,149.45,472.77,149.5Z" style="fill:#263238"></path><path d="M472.72,152.73c0,.05-4.71,0-10.51,0s-10.5-.14-10.5-.18,4.7,0,10.5,0S472.72,152.69,472.72,152.73Z" style="fill:#263238"></path><path d="M488.18,106.06c0,.14-11.55.26-25.79.26s-25.79-.12-25.79-.26,11.54-.26,25.79-.26S488.18,105.91,488.18,106.06Z" style="fill:#263238"></path><path d="M410.9,107.2c0,.15-9.48.26-21.17.26s-21.19-.11-21.19-.26,9.49-.26,21.19-.26S410.9,107.06,410.9,107.2Z" style="fill:#263238"></path><path d="M318.22,187.93a9.92,9.92,0,0,0-.24-1.58,6.47,6.47,0,0,0-.73-1.72,6.2,6.2,0,0,0-1.65-1.83,6.39,6.39,0,0,0-2.72-1.2,6.49,6.49,0,0,0-3.38.29,6.15,6.15,0,0,0-1.63.88,7,7,0,0,0-.73.62,9.09,9.09,0,0,0-.63.74,6.42,6.42,0,0,0,0,7.61,9.09,9.09,0,0,0,.63.74,7,7,0,0,0,.73.62,6.15,6.15,0,0,0,1.63.88,6.49,6.49,0,0,0,3.38.29,6.39,6.39,0,0,0,2.72-1.2,6.2,6.2,0,0,0,1.65-1.83,6.47,6.47,0,0,0,.73-1.72,9.78,9.78,0,0,0,.24-1.59s0,0,0,.11,0,.18,0,.31a3.44,3.44,0,0,1,0,.51,5.16,5.16,0,0,1-.12.68,6.35,6.35,0,0,1-.71,1.76,6.67,6.67,0,0,1-1.66,1.88,6.56,6.56,0,0,1-6.25,1,6,6,0,0,1-1.68-.89,9.19,9.19,0,0,1-.76-.64,9.78,9.78,0,0,1-.65-.77,6.59,6.59,0,0,1,0-7.83,8.11,8.11,0,0,1,.66-.77,7.67,7.67,0,0,1,.75-.64,6.35,6.35,0,0,1,1.68-.9,6.72,6.72,0,0,1,3.47-.27,6.57,6.57,0,0,1,2.78,1.25,6.67,6.67,0,0,1,1.66,1.88,6.23,6.23,0,0,1,.71,1.76,5.16,5.16,0,0,1,.12.68,3.44,3.44,0,0,1,0,.51c0,.12,0,.23,0,.31S318.23,187.93,318.22,187.93Z" style="fill:#263238"></path><path d="M316.16,192.69s1.47,1.32,3.18,3,3.08,3.14,3,3.18-1.46-1.32-3.18-3S316.13,192.73,316.16,192.69Z" style="fill:#263238"></path><path d="M312.19,152.34h1.27l3.52,0-.05,0c0-.6,0-1.28,0-2v0l0,0a10.81,10.81,0,0,0,3-2.05,7.88,7.88,0,0,0,1.26-1.62,5.72,5.72,0,0,0,.69-2.05,6.76,6.76,0,0,0-1.08-4.5,8.1,8.1,0,0,0-3.92-3.13,6.72,6.72,0,0,0-3.76-.26,7.35,7.35,0,0,0-3.27,1.51,6.62,6.62,0,0,0-2,2.73c-.09.25-.2.5-.27.76l-.18.77a8,8,0,0,0-.14,1.52,7.46,7.46,0,0,0,.18,1.43,6.37,6.37,0,0,0,.46,1.27,7.44,7.44,0,0,0,1.42,2,9.64,9.64,0,0,0,2.93,2h0c0,.55-.06,1-.08,1.26l0,.32a.5.5,0,0,1,0,.11v-.42c0-.29,0-.71.05-1.27v0a9.73,9.73,0,0,1-3-2,7.2,7.2,0,0,1-1.45-2,6.6,6.6,0,0,1-.48-1.29,7.67,7.67,0,0,1-.19-1.46,8.14,8.14,0,0,1,.13-1.54c.06-.26.13-.52.19-.78s.18-.52.26-.78a6.91,6.91,0,0,1,2-2.79,7.51,7.51,0,0,1,3.33-1.54,6.87,6.87,0,0,1,3.85.26,8.32,8.32,0,0,1,4,3.19,6.93,6.93,0,0,1,.95,2.25,4.34,4.34,0,0,1,.11.59,4.07,4.07,0,0,1,.06.59c0,.2,0,.39,0,.59l-.06.57a5.73,5.73,0,0,1-.71,2.11,7.79,7.79,0,0,1-1.29,1.63,10.92,10.92,0,0,1-3.05,2.07l0,0c0,.73,0,1.41,0,2v0h0l-3.54,0h-1.25Z" style="fill:#263238"></path><path d="M317.05,153.67a19.9,19.9,0,0,1-2.46.08,17.8,17.8,0,0,1-2.46-.08,43.26,43.26,0,0,1,4.92,0Z" style="fill:#263238"></path><path d="M315.46,155.53a1.93,1.93,0,0,1-.88.1,1.89,1.89,0,0,1-.86-.15,3.88,3.88,0,0,1,.87,0A4.19,4.19,0,0,1,315.46,155.53Z" style="fill:#263238"></path><path d="M313.19,152.34V152c0-.22,0-.52,0-.91,0-.81.05-2,.08-3.36,0-.71,0-1.49.06-2.32a1.56,1.56,0,0,0-.08-.61.38.38,0,0,0-.43-.28.54.54,0,0,0-.38.43.85.85,0,0,0,.08.62,1.41,1.41,0,0,0,1.1.73,1.44,1.44,0,0,0,1.27-.51,2.19,2.19,0,0,0,.54-1.37,1.28,1.28,0,0,0-.15-.73.48.48,0,0,0-.89.33,1.48,1.48,0,0,0,.34.67,2.71,2.71,0,0,0,1.19.91,1.44,1.44,0,0,0,.71.09,1.55,1.55,0,0,0,.65-.27,1.18,1.18,0,0,0,.4-.54.79.79,0,0,0,0-.64.57.57,0,0,0-.49-.33.69.69,0,0,0-.51.3,3,3,0,0,0-.3,1.22c-.09.83-.15,1.6-.2,2.31-.09,1.41-.17,2.55-.23,3.35,0,.39,0,.7-.06.91l0,.24a.2.2,0,0,1,0,.08V152l0-.91c0-.79.08-1.94.18-3.36,0-.71.1-1.48.18-2.32,0-.2.05-.42.08-.63a1.57,1.57,0,0,1,.24-.64.77.77,0,0,1,.61-.36.68.68,0,0,1,.61.4,1,1,0,0,1,.05.74,1.22,1.22,0,0,1-.46.61,1.5,1.5,0,0,1-.71.3,1.6,1.6,0,0,1-.78-.09,2.87,2.87,0,0,1-1.25-1,1.53,1.53,0,0,1-.37-.74.62.62,0,0,1,1.16-.43,1.45,1.45,0,0,1,.17.81,2.33,2.33,0,0,1-.58,1.47,1.6,1.6,0,0,1-1.4.55,1.59,1.59,0,0,1-1.21-.81,1.05,1.05,0,0,1-.08-.72.69.69,0,0,1,.48-.52.49.49,0,0,1,.37.08.61.61,0,0,1,.21.29,1.83,1.83,0,0,1,.09.65c0,.83-.06,1.61-.08,2.32-.06,1.41-.1,2.56-.13,3.36,0,.39,0,.69,0,.91l0,.24C313.2,152.32,313.2,152.34,313.19,152.34Z" style="fill:#263238"></path><path d="M316.61,154.6a13,13,0,0,1-2,.08,13.24,13.24,0,0,1-2-.08,14.16,14.16,0,0,1,2-.07A14,14,0,0,1,316.61,154.6Z" style="fill:#263238"></path><path d="M262.2,177.28l-.5,24.65c2.6,1.81,5.31,3.48,9.2,3.57l18.6-.18-1-28.69Z" style="fill:#e0e0e0"></path><polygon points="260.9 176 260.33 204.23 269.6 204.23 288.21 204.05 288.54 176.27 260.9 176" style="fill:#FF725E"></polygon><path d="M272,196.46h1.27l3.51,0,0,.05c0-.61,0-1.29-.05-2v0h0a10.78,10.78,0,0,0,3-2.06,7.19,7.19,0,0,0,1.26-1.61,5.53,5.53,0,0,0,.7-2.06,6.89,6.89,0,0,0-1.08-4.5A8.31,8.31,0,0,0,276.7,181a6.82,6.82,0,0,0-3.76-.26,7.46,7.46,0,0,0-3.27,1.51,6.74,6.74,0,0,0-2,2.73c-.08.26-.2.51-.26.77s-.13.51-.19.77a7.84,7.84,0,0,0-.13,1.51,6.58,6.58,0,0,0,.18,1.43,6.47,6.47,0,0,0,.46,1.28,7.32,7.32,0,0,0,1.42,2,9.58,9.58,0,0,0,2.93,2h0v0c0,.55-.06,1-.08,1.25l0,.33a.87.87,0,0,0,0,.11V196c0-.3,0-.72,0-1.27l0,0a9.57,9.57,0,0,1-3-2,7.46,7.46,0,0,1-1.45-2,6.58,6.58,0,0,1-.47-1.29,6.85,6.85,0,0,1-.19-1.45,8.18,8.18,0,0,1,.13-1.55c.06-.26.12-.52.19-.78a7.92,7.92,0,0,1,.26-.78,6.81,6.81,0,0,1,2-2.79,7.51,7.51,0,0,1,3.33-1.54,6.83,6.83,0,0,1,3.84.27,8.27,8.27,0,0,1,4,3.18,6.71,6.71,0,0,1,1,2.26,7.19,7.19,0,0,1,.17,1.18c0,.19,0,.39,0,.58s0,.39-.05.58a5.58,5.58,0,0,1-.72,2.1,7.75,7.75,0,0,1-1.28,1.64,10.91,10.91,0,0,1-3.06,2.06l0,0c0,.72,0,1.4,0,2v0h0l-3.54,0H272Z" style="fill:#263238"></path><path d="M276.86,197.79a43.09,43.09,0,0,1-4.91,0,37.71,37.71,0,0,1,4.91,0Z" style="fill:#263238"></path><path d="M275.27,199.65a2,2,0,0,1-.87.1,1.92,1.92,0,0,1-.86-.16,4.74,4.74,0,0,1,.87,0A3.62,3.62,0,0,1,275.27,199.65Z" style="fill:#263238"></path><path d="M273,196.46v-.32c0-.22,0-.53,0-.92,0-.8.05-1.95.08-3.36,0-.71,0-1.49.06-2.32a1.53,1.53,0,0,0-.08-.6.39.39,0,0,0-.43-.29.59.59,0,0,0-.39.43.93.93,0,0,0,.08.63,1.44,1.44,0,0,0,1.1.73,1.46,1.46,0,0,0,1.28-.52,2.17,2.17,0,0,0,.54-1.37,1.3,1.3,0,0,0-.15-.73.48.48,0,0,0-.89.34,1.4,1.4,0,0,0,.34.66,2.76,2.76,0,0,0,1.18.92,1.48,1.48,0,0,0,.72.08,1.35,1.35,0,0,0,.64-.27,1.09,1.09,0,0,0,.41-.54.84.84,0,0,0,0-.64A.56.56,0,0,0,277,188a.68.68,0,0,0-.51.31,2.81,2.81,0,0,0-.3,1.21c-.09.83-.15,1.61-.2,2.31-.1,1.41-.18,2.55-.23,3.36,0,.38-.05.69-.06.91l0,.24a.45.45,0,0,0,0,.08.28.28,0,0,1,0-.08v-.24c0-.22,0-.53,0-.92,0-.79.09-1.94.18-3.35.05-.71.1-1.49.19-2.32,0-.21,0-.42.08-.64a1.77,1.77,0,0,1,.23-.64.81.81,0,0,1,.61-.36.69.69,0,0,1,.61.4,1,1,0,0,1,.05.75,1.36,1.36,0,0,1-.45.61,1.8,1.8,0,0,1-.71.3,1.84,1.84,0,0,1-.78-.09,2.87,2.87,0,0,1-1.26-1,1.63,1.63,0,0,1-.37-.73.69.69,0,0,1,.38-.75.68.68,0,0,1,.78.31,1.4,1.4,0,0,1,.17.81,2.28,2.28,0,0,1-.57,1.47,1.6,1.6,0,0,1-1.41.56,1.57,1.57,0,0,1-1.2-.81,1,1,0,0,1-.08-.73.7.7,0,0,1,.48-.52.5.5,0,0,1,.36.08.68.68,0,0,1,.22.29,1.64,1.64,0,0,1,.08.65c0,.84,0,1.61-.08,2.33-.05,1.41-.09,2.55-.12,3.36,0,.38,0,.69,0,.91l0,.24A.28.28,0,0,1,273,196.46Z" style="fill:#263238"></path><path d="M276.43,198.72a28.46,28.46,0,0,1-4,0,24.92,24.92,0,0,1,4,0Z" style="fill:#263238"></path><path d="M377.62,175.19l-.5,24.65c2.6,1.82,5.31,3.48,9.2,3.58l18.61-.19-1-28.69Z" style="fill:#e0e0e0"></path><polygon points="376.32 173.92 375.75 202.14 385.03 202.14 403.63 201.96 403.96 174.19 376.32 173.92" style="fill:#455a64"></polygon><path d="M450.11,175.19l-.5,24.65c2.6,1.82,5.31,3.48,9.2,3.58l18.6-.19-1-28.69Z" style="fill:#e0e0e0"></path><polygon points="448.81 173.92 448.24 202.14 457.51 202.14 476.11 201.96 476.45 174.19 448.81 173.92" style="fill:#FF725E"></polygon><path d="M377.62,221.21l-.5,24.65c2.6,1.81,5.31,3.48,9.2,3.58l18.61-.19-1-28.69Z" style="fill:#e0e0e0"></path><polygon points="376.32 219.94 375.75 248.16 385.03 248.16 403.63 247.98 403.96 220.2 376.32 219.94" style="fill:#455a64"></polygon><path d="M398.79,153.17a1.41,1.41,0,0,1-.36,0l-1,0-3.84,0-12.67,0h-1v-.12c0-4.73,0-9,0-12.06,0-1.52,0-2.75,0-3.63,0-.41,0-.73,0-1a1.55,1.55,0,0,1,0-.34,2.3,2.3,0,0,1,0,.34c0,.25,0,.57,0,1,0,.88,0,2.11,0,3.63,0,3.09,0,7.33,0,12.06l-.12-.12h.9l12.67,0,3.84,0,1,0Z" style="fill:#263238"></path><path d="M396.7,140.29a5.29,5.29,0,0,1-.56.53l-1.59,1.4c-1.35,1.17-3.22,2.77-5.3,4.53l-.31.26-.08.07-.08-.07-2.36-2.19h.15l-3.46,2.86-1,.8a1.86,1.86,0,0,1-.38.27,2.28,2.28,0,0,1,.33-.32l1-.85,3.41-2.93.07-.06.08.07,2.36,2.18h-.16l.32-.26c2.08-1.76,4-3.35,5.34-4.48l1.64-1.34A3.94,3.94,0,0,1,396.7,140.29Z" style="fill:#263238"></path><path d="M396.7,144.23a6.2,6.2,0,0,1-.08-1.18c0-.72,0-1.73,0-2.86l.12.12h-.2c-1.17,0-2.23,0-3,0a5.46,5.46,0,0,1-1.24-.09,6.93,6.93,0,0,1,1.24-.08c.77,0,1.83,0,3,0h.32v.12c0,1.13,0,2.14,0,2.86A6.64,6.64,0,0,1,396.7,144.23Z" style="fill:#263238"></path><path d="M388.15,180s0-.1,0-.3a1.19,1.19,0,0,1,.43-.78,1.24,1.24,0,0,1,.6-.28c.26,0,.48,0,.75,0l1.8,0a1.37,1.37,0,0,1,1,.58,1.28,1.28,0,0,1,.24.59,2.49,2.49,0,0,1,0,.62c-.08.78-.17,1.61-.26,2.47-.19,1.75-.4,3.65-.62,5.65l-.08.74a2,2,0,0,1-.23.81,1.76,1.76,0,0,1-2.84.3,2,2,0,0,1-.45-1.4c-.08-1.71-.16-3.27-.22-4.63s-.08-2.28-.11-3.13a5.73,5.73,0,0,1,0-1.15,4.32,4.32,0,0,1,.17,1.14q.12,1.27.27,3.12c.1,1.35.22,2.91.34,4.62a1.53,1.53,0,0,0,.34,1.1,1.26,1.26,0,0,0,1.05.41,1.29,1.29,0,0,0,1-.63,4.59,4.59,0,0,0,.25-1.36c.23-2,.45-3.9.66-5.64.1-.86.21-1.69.3-2.46a1,1,0,0,0-.83-1.38l-1.77,0c-.25,0-.52,0-.71,0a1.08,1.08,0,0,0-.52.19A1.47,1.47,0,0,0,388.15,180Z" style="fill:#263238"></path><path d="M392.55,195.82s0-.21,0-.56a2.26,2.26,0,0,0-.43-1.32,2.06,2.06,0,0,0-1.76-.85,2,2,0,0,0-1.2,3.59,2.09,2.09,0,0,0,1.91.38,2.29,2.29,0,0,0,1.15-.8c.21-.27.29-.46.33-.44a1,1,0,0,1-.16.55,2.23,2.23,0,0,1-1.2,1,2.42,2.42,0,0,1-2.33-.36,2.48,2.48,0,0,1,1.49-4.44,2.41,2.41,0,0,1,2.07,1.12,2.24,2.24,0,0,1,.34,1.55C392.69,195.65,392.57,195.83,392.55,195.82Z" style="fill:#263238"></path><path d="M469.52,192.6a3.53,3.53,0,0,1,0,.52,6.16,6.16,0,0,1-.19,1.57,5,5,0,0,1-1.16,2.21,5.46,5.46,0,0,1-2.9,1.59,7.22,7.22,0,0,1-4-.2,5.67,5.67,0,0,1-3.48-3.06,7,7,0,0,1,0-5.17,6.5,6.5,0,0,1,4.2-3.66l-.19.25c0-.87,0-1.8,0-2.74,0-.5,0-1,0-1.5v-.26h.26l3.17,0h.26v.25c0,2.54-.08,5-.12,7.23V190l-.28-.06a4.57,4.57,0,0,0-2.21.06,2.69,2.69,0,0,0-1.85,3.12,2.58,2.58,0,0,0,.94,1.5,2.4,2.4,0,0,0,1.56.47,2.49,2.49,0,0,0,2.63-2.52v-.12h.11l2.42.1a4,4,0,0,1,.79.07l-.86,0-2.35,0,.12-.12a3,3,0,0,1-1.25,2.41,3.13,3.13,0,0,1-1.62.46,2.75,2.75,0,0,1-1.79-.52,3,3,0,0,1-1.11-1.71,3.12,3.12,0,0,1,2.11-3.65,4.91,4.91,0,0,1,2.44-.08l-.28.23c0-2.28.05-4.7.08-7.23l.25.26-3.17,0,.26-.26c0,.5,0,1,0,1.5,0,.94,0,1.86,0,2.73v.19l-.19.06a6,6,0,0,0-3.87,3.35,6.53,6.53,0,0,0-.05,4.8,5.3,5.3,0,0,0,3.2,2.85,6.93,6.93,0,0,0,3.82.25,5.21,5.21,0,0,0,2.78-1.44,4.94,4.94,0,0,0,1.17-2.07,7.66,7.66,0,0,0,.29-1.49A4.63,4.63,0,0,1,469.52,192.6Z" style="fill:#263238"></path><path d="M462.12,177.92a21.65,21.65,0,0,1,.18,3l-.22-.23c.93,0,2,0,3.22,0L465,181h0v-.78c0-.26,0-.52,0-.78,0-.49,0-1,0-1.42l.22.23a23,23,0,0,1-3.21-.27,16.66,16.66,0,0,1,3.22-.18h.22V178c0,.46,0,.93,0,1.42V181h0l-.27.26c-1.18,0-2.29,0-3.22-.08h-.22v-.22A16.54,16.54,0,0,1,462.12,177.92Z" style="fill:#263238"></path><path d="M388,231.48a2.71,2.71,0,0,1,.66-.57,3.45,3.45,0,0,1,2.29-.54,3.54,3.54,0,0,1,1.56.55,3.65,3.65,0,0,1,1.26,1.42,3.52,3.52,0,0,1,.32,1,3.59,3.59,0,0,1-1,3.11,3.65,3.65,0,0,1-2,1,3.56,3.56,0,0,1-1.08,0,3.39,3.39,0,0,1-1-.29,3.57,3.57,0,0,1-1.46-1.21,3.47,3.47,0,0,1-.61-1.53,3.52,3.52,0,0,1,.46-2.31,2.61,2.61,0,0,1,.55-.68s-.21.23-.48.71a3.44,3.44,0,0,0,1.62,4.85,3,3,0,0,0,.94.27,3.25,3.25,0,0,0,1,0,3.42,3.42,0,0,0,1.88-1,3.53,3.53,0,0,0,.92-1.91,3.48,3.48,0,0,0,0-1,3.57,3.57,0,0,0-.3-.94,3.44,3.44,0,0,0-1.19-1.36,3.28,3.28,0,0,0-1.48-.55,3.44,3.44,0,0,0-2.23.46C388.19,231.26,388,231.5,388,231.48Z" style="fill:#263238"></path><path d="M386.23,227.12l-.11-.06-.33-.19-1.27-.75h0c-.58.61-1.34,1.41-2.27,2.37v-.06l1.09,1.65,0,0,0,0a7.91,7.91,0,0,0-.76,2v0h0l-1.93.47.06-.07c0,1,0,2.13.06,3.28l-.06-.08,1.94.4h.05v.05a8.37,8.37,0,0,0,.85,1.94l0,0,0,.05c-.32.52-.67,1.1-1,1.69l0-.11,2.36,2.27h-.12l1.66-1.09.05,0,0,0a7.93,7.93,0,0,0,2,.77h.06v.06c.15.6.31,1.26.48,1.92l-.1-.07,3.27-.06-.09.08c.12-.61.26-1.27.4-1.94v-.06l.06,0a7.93,7.93,0,0,0,1.93-.83h0l.06,0,.05,0,1.69,1-.12,0,2.27-2.36v.12c-.36-.55-.73-1.1-1.08-1.65l0,0,0-.05a8.09,8.09,0,0,0,.78-2v-.05l.06,0,1.92-.47-.07.1c0-1.12,0-2.21-.06-3.28l.08.09-1.94-.4-.05,0,0,0a7.8,7.8,0,0,0-.84-1.94l0,0,0-.05c.36-.58.7-1.14,1-1.69l0,.11L395.92,226h.1L394.36,227l0,0,0,0a7.84,7.84,0,0,0-2-.78h0v0c-.17-.7-.32-1.33-.47-1.92l.06,0-3.27,0,0,0c-.16.77-.3,1.41-.41,1.93v0h0a8.38,8.38,0,0,0-1.49.57l-.36.19-.11.06.1-.08.35-.2a7.85,7.85,0,0,1,1.5-.6l0,0c.11-.53.24-1.17.39-1.94v0h0l3.27-.07h.05v0c.15.59.3,1.22.48,1.92l0-.05a8.24,8.24,0,0,1,2,.78h-.08l1.65-1.09.06,0,0,.05c.75.71,1.53,1.47,2.36,2.27l.05,0,0,.06-1,1.69v-.09a8.38,8.38,0,0,1,.87,2l-.07-.06,1.94.4h.07v.08c0,1.06,0,2.16.06,3.27v.08l-.07,0-1.93.47.08-.07a8.4,8.4,0,0,1-.79,2v-.1l1.09,1.66,0,.06-.05.06L396.33,242l-.05.05-.07,0-1.7-1h.11a8.55,8.55,0,0,1-2,.86l.07-.08-.41,1.94v.08h-.08l-3.28.06h-.08l0-.08c-.16-.66-.32-1.32-.47-1.92l.07.07a8.5,8.5,0,0,1-2-.79h.1l-1.65,1.09-.07,0-.05,0L382.4,240l-.06-.05,0-.06,1-1.69v.08a7.93,7.93,0,0,1-.86-2l.07.06-1.94-.4-.06,0v-.06c0-1.15,0-2.24-.05-3.28v-.05l.05,0,1.93-.46-.05.05a7.8,7.8,0,0,1,.79-2v.06l-1.08-1.66,0,0,0,0,2.29-2.34,0,0h0l1.25.78.32.2Z" style="fill:#263238"></path><path d="M591.56,176.13,591,202.82c2.81,2,5.74,3.77,10,3.87l20.14-.2-1-31.06Z" style="fill:#e0e0e0"></path><polygon points="590.15 174.75 589.53 205.31 599.57 205.31 619.71 205.11 620.07 175.04 590.15 174.75" style="fill:#FF725E"></polygon><path d="M602.76,187.25a2.88,2.88,0,0,1,.71-.62A3.84,3.84,0,0,1,606,186a3.84,3.84,0,0,1,3,2.14,3.85,3.85,0,0,1,.37,2.24,3.91,3.91,0,0,1-3.21,3.33,3.88,3.88,0,0,1-2.25-.29,4,4,0,0,1-1.59-1.31,3.8,3.8,0,0,1-.66-1.67,3.85,3.85,0,0,1,.5-2.5,3,3,0,0,1,.6-.73s-.23.25-.52.77a3.78,3.78,0,0,0-.42,2.44,3.57,3.57,0,0,0,.65,1.58,3.72,3.72,0,0,0,1.52,1.23,3.43,3.43,0,0,0,1,.29,3.69,3.69,0,0,0,4.15-3.17,3.44,3.44,0,0,0,0-1.11,3.14,3.14,0,0,0-.32-1,3.66,3.66,0,0,0-2.89-2.07,3.85,3.85,0,0,0-2.42.5C603,187,602.78,187.27,602.76,187.25Z" style="fill:#263238"></path><path d="M600.87,182.53l-.12-.06-.35-.21-1.38-.81h0L596.61,184v-.07l1.18,1.79,0,0,0,0a8.91,8.91,0,0,0-.83,2.14v0h0l-2.08.52.06-.08c0,1.12,0,2.3.07,3.55l-.07-.08,2.1.43h0l0,0a8.68,8.68,0,0,0,.91,2.1l0,.05,0,.05-1.1,1.83,0-.12c.8.77,1.67,1.6,2.55,2.46h-.12l1.79-1.18,0,0,.06,0a8.52,8.52,0,0,0,2.12.83l.06,0,0,.06c.16.65.33,1.36.51,2.08l-.1-.08,3.54-.06-.1.08c.14-.66.28-1.38.43-2.1l0-.06.06,0a8.5,8.5,0,0,0,2.09-.91h0l.06,0,.06,0,1.83,1.11-.14,0,2.47-2.55v.13l-1.18-1.79,0,0,0-.06a9.26,9.26,0,0,0,.84-2.13V192h.06l2.09-.51-.08.1c0-1.21,0-2.39-.06-3.55l.08.1-2.1-.44h-.06v-.06a9.2,9.2,0,0,0-.91-2.1l0,0,0-.05,1.11-1.83,0,.11-2.55-2.47h.1l-1.79,1.17,0,0,0,0a8.49,8.49,0,0,0-2.13-.84h-.05v0c-.18-.76-.34-1.44-.5-2.09l.06,0-3.54.05.05,0c-.18.84-.33,1.52-.46,2.09v0h0a9.76,9.76,0,0,0-1.62.62l-.38.2-.13.07.12-.08c.08,0,.2-.13.37-.22a9.16,9.16,0,0,1,1.62-.66l0,0c.11-.57.25-1.26.42-2.1v0h0l3.54-.08h0l0,.05c.16.64.33,1.33.51,2.08l0,0a8.41,8.41,0,0,1,2.17.85h-.08l1.79-1.18.06,0,0,0L614,183.6l.05.05,0,.06L613,185.54v-.09a8.94,8.94,0,0,1,.93,2.14l-.07-.07,2.1.43.08,0v.08c0,1.15,0,2.34.06,3.55v.08l-.09,0-2.08.51.08-.08a8.81,8.81,0,0,1-.85,2.18v-.11l1.18,1.79,0,.08-.06.06-2.46,2.55-.06.06-.07,0-1.84-1.11H610a9,9,0,0,1-2.15.93l.08-.08-.44,2.1,0,.08h-.08l-3.55.06h-.09l0-.08c-.17-.72-.35-1.43-.51-2.08l.08.08a8.93,8.93,0,0,1-2.17-.86h.1l-1.79,1.18-.07,0-.06,0c-.88-.86-1.74-1.7-2.55-2.47l-.05-.06,0-.06,1.11-1.83v.1a9.27,9.27,0,0,1-.93-2.15l.07.06-2.09-.44h-.07V192c0-1.24,0-2.43-.06-3.55v-.06h.06l2.09-.51-.06.06a9.18,9.18,0,0,1,.86-2.17v.07l-1.17-1.8,0,0,0,0,2.48-2.54,0,0,0,0,1.35.84.34.22Z" style="fill:#263238"></path><path d="M537.79,324.09l-.62.07c-3.53.63-5.41,5.54-3.21,8.37s7.42,2.21,8.9-1.06S541.37,323.88,537.79,324.09Z" style="fill:#fafafa"></path><path d="M537.79,324.09s.11,0,.32,0a3.9,3.9,0,0,1,1,.06,5.41,5.41,0,0,1,3,1.82,5.65,5.65,0,0,1,1.3,5,5.31,5.31,0,0,1-4.94,3.69,5.61,5.61,0,0,1-3.26-.72,4.64,4.64,0,0,1-2-2.38,5.87,5.87,0,0,1,.69-5.09,5.08,5.08,0,0,1,2.72-2.15,4.54,4.54,0,0,1,.94-.16c.22,0,.33,0,.34,0s-.46.07-1.21.33a5,5,0,0,0-2.48,2.16,5.56,5.56,0,0,0-.55,4.72,4.63,4.63,0,0,0,4.81,2.75,4.84,4.84,0,0,0,4.5-3.29,5.33,5.33,0,0,0-1.11-4.6A5.45,5.45,0,0,0,539,324.3C538.25,324.1,537.79,324.15,537.79,324.09Z" style="fill:#263238"></path><path d="M359.26,234.64a1.83,1.83,0,0,1-.54.17c-.36.08-.88.24-1.58.36a37.57,37.57,0,0,1-5.93.69A40.24,40.24,0,0,1,317,219.3a36.91,36.91,0,0,1-3.14-5.08c-.34-.63-.54-1.14-.7-1.47a1.93,1.93,0,0,1-.2-.53s.39.67,1.07,1.9a44.89,44.89,0,0,0,3.26,5,41,41,0,0,0,33.88,16.41,43.24,43.24,0,0,0,5.92-.52C358.49,234.75,359.26,234.6,359.26,234.64Z" style="fill:#263238"></path><path d="M354.34,242.13a13.62,13.62,0,0,1,1.9-2.35,39.6,39.6,0,0,1,5.52-4.9l.08.46-.88-.27a42.63,42.63,0,0,1-7.38-3.09c-.91-.48-1.62-.91-2.1-1.22s-.73-.51-.71-.54,1.14.55,3,1.43a54.78,54.78,0,0,0,7.37,2.92l.88.27.5.15-.42.31a50.76,50.76,0,0,0-5.58,4.73C355.16,241.33,354.4,242.17,354.34,242.13Z" style="fill:#263238"></path><path d="M523.33,141.32a5.16,5.16,0,0,1,.81-.24c.54-.12,1.32-.36,2.35-.55a55.11,55.11,0,0,1,8.8-1.09,54.37,54.37,0,0,1,13.13,1,49.43,49.43,0,0,1,15.08,5.66,45.06,45.06,0,0,1,12.17,10.53,42.27,42.27,0,0,1,6.6,11.38,37.26,37.26,0,0,1,2.23,8.59c.18,1,.17,1.86.23,2.41a4.85,4.85,0,0,1,0,.84,5.29,5.29,0,0,1-.13-.83c-.09-.55-.11-1.36-.32-2.39a39.47,39.47,0,0,0-2.37-8.48,42.9,42.9,0,0,0-6.63-11.21,45.11,45.11,0,0,0-12.07-10.39,49.86,49.86,0,0,0-14.91-5.64,55.41,55.41,0,0,0-13-1.09,60.2,60.2,0,0,0-8.78.92c-1,.16-1.82.36-2.37.46A4.94,4.94,0,0,1,523.33,141.32Z" style="fill:#263238"></path><path d="M525.37,135.16a3.62,3.62,0,0,1-.66.76c-.44.47-1.1,1.12-1.94,1.91-1.68,1.58-4.07,3.68-6.85,5.84l-.39.3-.23-.45a11.46,11.46,0,0,1,4.83-.26,20.29,20.29,0,0,1,3.79,1c1.05.37,1.87.71,2.43.95a3.53,3.53,0,0,1,.86.44c0,.07-1.3-.4-3.4-1a23.31,23.31,0,0,0-3.74-.83,11.35,11.35,0,0,0-4.63.29l-1.29.36,1.06-.82.39-.3c2.77-2.15,5.19-4.2,6.92-5.7A31.09,31.09,0,0,1,525.37,135.16Z" style="fill:#263238"></path><path d="M417.71,253.14a2.49,2.49,0,0,1,.35.55l.92,1.63.66,1.18c.23.44.45.93.7,1.45.49,1.05,1.09,2.22,1.61,3.58l.85,2.12c.29.73.53,1.53.81,2.33.59,1.61,1,3.38,1.56,5.24a80.73,80.73,0,0,1,2,12.33,79.68,79.68,0,0,1-.1,12.51c-.22,1.91-.4,3.73-.73,5.41-.15.84-.27,1.66-.44,2.44s-.35,1.51-.52,2.22c-.29,1.42-.71,2.67-1,3.78-.17.55-.31,1.07-.47,1.54l-.46,1.27-.66,1.75a5.07,5.07,0,0,1-.26.6,2.89,2.89,0,0,1,.16-.64c.15-.45.33-1,.57-1.77.12-.39.26-.82.42-1.28s.27-1,.42-1.55c.29-1.11.68-2.36,1-3.78q.22-1.07.48-2.22c.16-.78.26-1.59.4-2.43.32-1.67.47-3.48.68-5.38a82.69,82.69,0,0,0,.06-12.43,81.62,81.62,0,0,0-2-12.26c-.5-1.84-.93-3.61-1.5-5.21-.27-.81-.5-1.6-.78-2.33s-.55-1.45-.82-2.12c-.48-1.37-1.07-2.54-1.52-3.59-.24-.53-.45-1-.66-1.47l-.62-1.2-.83-1.67A2.41,2.41,0,0,1,417.71,253.14Z" style="fill:#263238"></path><path d="M427.07,253.86a4.29,4.29,0,0,1-1-.07,27.17,27.17,0,0,1-2.81-.49,36.68,36.68,0,0,1-9-3.27l.38-.24,0,1.29c.09,4.06,0,7.73-.18,10.39-.08,1.33-.17,2.4-.25,3.14a5.54,5.54,0,0,1-.17,1.14,4.3,4.3,0,0,1,0-1.15c0-.86.05-1.91.08-3.15.07-2.65.12-6.32,0-10.36,0-.44,0-.88,0-1.28v-.45l.39.21A41.59,41.59,0,0,0,423.3,253C425.63,253.57,427.09,253.77,427.07,253.86Z" style="fill:#263238"></path><path d="M399.47,303.62A21.81,21.81,0,0,0,376,331.24c-6.75-1.14-13.73,5.06-13.41,11.9s7.87,12.35,14.49,10.57c-.66,4,2.05,7.76,5.18,10.29a24.77,24.77,0,0,0,21.52,4.92c7.38-2,13.61-8.19,15-15.69-.23,1.52,1.59,2.47,3.09,2.78,4.91,1,10.32.31,14.36-2.65s6.41-8.37,5.08-13.2-6.73-8.39-11.56-7c4.78-5.37,3.83-14,.13-20.15a15.52,15.52,0,0,0-6.94-6.62,10.83,10.83,0,0,0-12.25,3.12c-3.39-3.64-7.53-6-11.28-5.86" style="fill:#fafafa"></path><path d="M399.47,303.62a6.75,6.75,0,0,1,.85,0,9.87,9.87,0,0,1,2.48.44,18.8,18.8,0,0,1,8,5.35h-.18a10.88,10.88,0,0,1,7.39-3.9,10.63,10.63,0,0,1,5,.68,13,13,0,0,1,4.45,3.17,22.41,22.41,0,0,1,5.43,10.82,18,18,0,0,1,.1,6.71,13.18,13.18,0,0,1-3,6.39l-.22-.36a9,9,0,0,1,2.79-.28,10.35,10.35,0,0,1,2.79.63A11,11,0,0,1,440,336.8a9.87,9.87,0,0,1,2,5.65,12.47,12.47,0,0,1-1.31,6.05,14,14,0,0,1-4,4.92,15.86,15.86,0,0,1-5.91,2.75,19.76,19.76,0,0,1-6.65.42c-.56-.06-1.13-.13-1.68-.23a7.81,7.81,0,0,1-1.67-.45,4.52,4.52,0,0,1-1.5-1,2.08,2.08,0,0,1-.63-1.76l.51.09a20.75,20.75,0,0,1-9.64,13.48,21.53,21.53,0,0,1-10.22,3.12,25.59,25.59,0,0,1-18.81-7.25,14.32,14.32,0,0,1-2.85-4.1,8.56,8.56,0,0,1-.7-4.86l.3.28a12,12,0,0,1-10.56-2.71,12.39,12.39,0,0,1-3.28-4.28,10.18,10.18,0,0,1-.9-5.16,12.08,12.08,0,0,1,4.91-8.41,11.61,11.61,0,0,1,8.72-2.35l-.22.25a22.27,22.27,0,0,1-.5-9.38,22.53,22.53,0,0,1,2.85-7.89,21.42,21.42,0,0,1,10-8.74,22.17,22.17,0,0,1,8.29-1.83,18.2,18.2,0,0,1,2.21.08l.76.09s-.26,0-.76,0a21.39,21.39,0,0,0-2.21,0,22.25,22.25,0,0,0-8.2,1.91,21.24,21.24,0,0,0-9.84,8.7,22.32,22.32,0,0,0-2.77,7.79,21.81,21.81,0,0,0,.53,9.21l.08.3-.3-.05a11.19,11.19,0,0,0-8.4,2.3,11.62,11.62,0,0,0-4.72,8.11,10.75,10.75,0,0,0,4,9,11.5,11.5,0,0,0,10.13,2.6l.37-.1-.06.37a8.09,8.09,0,0,0,.68,4.58,13.84,13.84,0,0,0,2.75,3.95,25,25,0,0,0,18.43,7.08,20.87,20.87,0,0,0,10-3.05,20.2,20.2,0,0,0,9.4-13.13l.51.09c-.16,1,.85,1.78,1.81,2.16a12.62,12.62,0,0,0,3.21.65,19.27,19.27,0,0,0,6.48-.4,15.36,15.36,0,0,0,5.73-2.66,13.38,13.38,0,0,0,3.89-4.74,11.9,11.9,0,0,0,1.27-5.81,9.44,9.44,0,0,0-1.9-5.39c-2.28-3.05-6.27-4.72-9.71-3.73l-.71.2.49-.56a12.85,12.85,0,0,0,2.93-6.17,17.62,17.62,0,0,0-.08-6.56,22.12,22.12,0,0,0-5.29-10.66,12.61,12.61,0,0,0-4.32-3.11,10.28,10.28,0,0,0-4.81-.69,10.73,10.73,0,0,0-7.24,3.75l-.08.11-.09-.1a19,19,0,0,0-7.9-5.4,10.8,10.8,0,0,0-2.45-.49c-.28,0-.5,0-.64,0Z" style="fill:#263238"></path><path d="M391.38,325.16,391,346c2.21,1.53,4.5,2.94,7.8,3l15.75-.16-.81-24.3Z" style="fill:#e0e0e0"></path><polygon points="390.28 324.08 389.85 344.96 397.65 347.99 413.4 347.83 413.69 324.31 390.28 324.08" style="fill:#FF725E"></polygon><path d="M392.5,343.36l-2.65,1.6a9,9,0,0,0,3,2.11,13,13,0,0,0,4.79.92A8.64,8.64,0,0,1,392.5,343.36Z" style="fill:#FF725E"></path><path d="M392.5,343.36c-1,.94-2,2.07-2.65,1.6a9,9,0,0,0,3,2.11,13,13,0,0,0,4.79.92A8.64,8.64,0,0,1,392.5,343.36Z" style="opacity:0.30000000000000004"></path><path d="M411,331.72s-4,0-8.9,0-8.9-.11-8.9-.15,4,0,8.9,0S411,331.68,411,331.72Z" style="fill:#263238"></path><path d="M410.9,334.92s-4,0-8.9,0-8.9-.11-8.9-.15,4,0,8.9,0S410.9,334.89,410.9,334.92Z" style="fill:#263238"></path><path d="M411,337.77s-4,0-8.9,0-8.9-.12-8.89-.15,4,0,8.89,0S411,337.73,411,337.77Z" style="fill:#263238"></path><path d="M410.93,340.51s-4,0-8.9,0-8.9-.12-8.9-.15,4,0,8.9,0S410.93,340.47,410.93,340.51Z" style="fill:#263238"></path></g><g id="Plant"><path d="M156.7,211.26c-12.6,6.52-22.26,17.76-29.2,30.12s-11.42,25.94-15.86,39.42l-3.88,69.49c14.66-24.93,26.42-54.24,29.6-83l-9.75-.87c6.54-1,12-5.73,15.52-11.35s5.29-12.1,7-18.48l-11.9,1.77A44.1,44.1,0,0,0,156.7,211.26Z" style="fill:#455a64"></path><g style="opacity:0.30000000000000004"><path d="M156.7,211.26c-12.6,6.52-22.26,17.76-29.2,30.12s-11.42,25.94-15.86,39.42l-3.88,69.49c14.66-24.93,26.42-54.24,29.6-83l-9.75-.87c6.54-1,12-5.73,15.52-11.35s5.29-12.1,7-18.48l-11.9,1.77A44.1,44.1,0,0,0,156.7,211.26Z"></path></g><path d="M105.59,366.57S73.78,328.5,74.15,292.15H87S73,283,74.15,277.83s1.47-24.6,1.47-24.6l11.75,2.94s-8.81-4.4-9.92-11.38S80,205.5,80,205.5,94.34,220.56,98.75,236s16,33.41,12.57,80.4S105.59,366.57,105.59,366.57Z" style="fill:#455a64"></path><path d="M121.72,370.17s34.46-23,42.12-52.26l-10.33-2.81s13.23-4.33,13.47-8.7,4.2-20.1,4.2-20.1l-10.09-.21s8-1.62,10.46-7S178.08,247,178.08,247s-14.81,9-21.73,20.4-20.14,23.37-27.7,61.9S121.72,370.17,121.72,370.17Z" style="fill:#455a64"></path><path d="M88.71,238.7a1.86,1.86,0,0,1,.11.4l.28,1.17c.23,1.06.57,2.58,1,4.52s1,4.37,1.5,7.17,1.23,6,1.87,9.52c1.36,7.06,2.79,15.5,4.27,24.89s2.86,19.75,4.14,30.65,2.21,21.31,3,30.78,1.24,18,1.52,25.22c.18,3.59.27,6.84.36,9.69s.15,5.31.17,7.32,0,3.55.06,4.63v1.2a3.33,3.33,0,0,1,0,.42,2.64,2.64,0,0,1,0-.41c0-.3,0-.7,0-1.21,0-1.08-.09-2.64-.15-4.62s-.14-4.47-.26-7.32-.23-6.1-.43-9.69c-.34-7.18-.91-15.71-1.64-25.19s-1.75-19.87-3-30.76-2.69-21.24-4.09-30.64-2.85-17.83-4.16-24.89c-.62-3.54-1.26-6.73-1.79-9.53s-1-5.22-1.42-7.19-.69-3.47-.9-4.54c-.1-.5-.17-.89-.23-1.18A2.13,2.13,0,0,1,88.71,238.7Z" style="fill:#263238"></path><path d="M101.18,389.89s-29.11-33-38.15-53L69.85,334c-4.94.81-10-1.31-13.84-4.54s-6.66-7.47-9.42-11.66l9-1.52a33.43,33.43,0,0,1-19.64-15.21c10.61,1.74,20.21,7.57,28.11,14.85,6.41,5.9,11.83,12.75,17,19.74a67,67,0,0,1,6.61,10.88C92.6,356.63,101.2,377.76,101.18,389.89Z" style="fill:#455a64"></path><path d="M164.3,266.18a1.6,1.6,0,0,1-.14.34l-.45,1-1.78,3.66c-.78,1.58-1.73,3.53-2.8,5.8s-2.34,4.83-3.66,7.7c-2.68,5.72-5.77,12.58-9.09,20.25s-6.8,16.17-10.29,25.15-6.58,17.65-9.31,25.54-5,15.06-6.89,21.1c-1,3-1.76,5.76-2.49,8.16s-1.33,4.48-1.82,6.18l-1.15,3.9-.31,1a2,2,0,0,1-.12.34,2.08,2.08,0,0,1,.07-.36l.26-1c.25-.93.6-2.25,1.06-3.94s1-3.79,1.73-6.2,1.48-5.16,2.41-8.18c1.82-6.06,4.11-13.23,6.79-21.15s5.82-16.57,9.29-25.57,7-17.49,10.33-25.16,6.47-14.51,9.2-20.21c1.34-2.87,2.62-5.43,3.72-7.68s2.08-4.19,2.89-5.76l1.87-3.62.49-.93A2.83,2.83,0,0,1,164.3,266.18Z" style="fill:#263238"></path><path d="M103.65,404a2.49,2.49,0,0,1-.13-.6c-.07-.46-.17-1-.28-1.76s-.25-1.69-.45-2.77-.38-2.31-.67-3.65c-.52-2.71-1.27-5.9-2.22-9.42s-2.19-7.32-3.66-11.25-3.11-7.59-4.69-10.87-3.16-6.16-4.56-8.53c-.67-1.2-1.34-2.25-1.91-3.19s-1.07-1.73-1.49-2.38l-1-1.5a3.06,3.06,0,0,1-.3-.54,2.54,2.54,0,0,1,.39.49l1,1.44c.45.63,1,1.41,1.58,2.34s1.28,2,2,3.15c1.44,2.36,3,5.24,4.67,8.51s3.25,6.95,4.75,10.89,2.67,7.79,3.63,11.32,1.65,6.75,2.12,9.47c.27,1.35.43,2.59.6,3.68s.28,2,.36,2.79l.18,1.76A2.42,2.42,0,0,1,103.65,404Z" style="fill:#263238"></path><rect x="78.35" y="396.28" width="63.71" height="13" style="fill:#FF725E"></rect><polygon points="84.42 409.27 91.31 452.99 129.81 452.99 136.24 409.27 84.42 409.27" style="fill:#FF725E"></polygon><path d="M138.15,409.27c0,.15-12.05.26-26.91.26s-26.92-.11-26.92-.26,12.05-.26,26.92-.26S138.15,409.13,138.15,409.27Z" style="fill:#263238"></path></g><g id="Character"><path d="M578.2,437c3.41.56,6.91,1.13,10.31.43s6.7-3,7.51-6.25c.75-3-.72-6.17-.4-9.27.39-3.82,3.39-6.91,6.49-9.32s4.9-.55,6.95-3.85c2.73-4.38,2.69-6.78-.58-10.67,1.47-3.74,2.85-15.81,2.16-19-1-4.77-2.71-10.07-6.91-12.54-3.26-1.92-7-2.73-9.68-5.41-3.67-3.69-2.8-9.76-4.22-14.77-.29-1-.85-2.15-1.9-2.35a3.19,3.19,0,0,0-2.45,1l-7.19,5.9a8,8,0,0,1-1.49-6.8,23.57,23.57,0,0,0-13,9.54,2,2,0,0,0-1.69-2.44,5.09,5.09,0,0,0-3.22.83,24.36,24.36,0,0,0-7.7,35.93l4.73,28.36a7.31,7.31,0,0,0-3.28,5.89c3.07,2.56,4.49,2.74,4.49,2.74-1,2.27-.61.58-1,2.27-.8,3.85,2.4,8.48,6.44,8.31a8.47,8.47,0,0,1,4.7.82c1.39.83,2.21,2.29,3.25,3.51a11.75,11.75,0,0,0,6.47,3.82A8.5,8.5,0,0,1,578.2,437Z" style="fill:#263238"></path><path d="M607.18,384.05l-.45-1.37a27.84,27.84,0,0,0-32.9-18.53c-13.15,3.11-27.63,6.72-34.48,9-14.17,4.78-11.77,19.72-11.77,19.72-.15,0-2.33.57-5.31,1.29a17.53,17.53,0,0,0-12.82,21.58h0a17.53,17.53,0,0,0,21.21,12.44l54.65-13.82C600.49,410.89,611.11,399.13,607.18,384.05Z" style="fill:#ffbe9d"></path><path d="M527.58,392.91a36.14,36.14,0,0,0,11.47,16.75s-11.85-1.16-15.17-15.76Z" style="fill:#eb996e"></path><path d="M574,390.34c-.22.36,1.53,1.7,2.19,4.11s-.08,4.51.29,4.68c.17.1.63-.33,1-1.26a6.26,6.26,0,0,0,.14-3.85,6,6,0,0,0-2.12-3.17C574.67,390.27,574.06,390.17,574,390.34Z" style="fill:#263238"></path><path d="M570.18,391.81a2,2,0,0,0-1.34,2.48,1.94,1.94,0,0,0,2.38,1.42,2,2,0,0,0,1.34-2.48A1.94,1.94,0,0,0,570.18,391.81Z" style="fill:#263238"></path><path d="M555.61,388.4a15.18,15.18,0,0,0-.51-3.76c-.12-.58-.18-1.14.17-1.36a3,3,0,0,1,1.77-.16l4.79.27c6.79.34,12.3.38,12.31.11s-5.48-.77-12.28-1.1l-4.78-.19a3.36,3.36,0,0,0-2.29.42,1.46,1.46,0,0,0-.52,1.18,4.28,4.28,0,0,0,.18,1A15,15,0,0,0,555.61,388.4Z" style="fill:#263238"></path><path d="M583.57,388.35c-.48.37.4,2.21.85,4.56s.41,4.39,1,4.53c.28.06.69-.42,1-1.33a7.79,7.79,0,0,0-1.4-6.93C584.37,388.46,583.81,388.18,583.57,388.35Z" style="fill:#263238"></path><path d="M573.19,367.21c-.37.37.58,2.14,1.21,4.41s.81,4.25,1.32,4.38c.25.05.55-.42.7-1.3a8.83,8.83,0,0,0-1.93-6.7C573.89,367.31,573.38,367.05,573.19,367.21Z" style="fill:#263238"></path><path d="M574.41,416.65c.18.2,6.05,8.83-3.77,11.67s-10.65-7.61-10.37-7.71S574.41,416.65,574.41,416.65Z" style="fill:#ffbe9d"></path><path d="M564.86,422.54s-.08.2-.12.53a1.77,1.77,0,0,0,.34,1.29c.68.93,2.58,1.32,4.36.86a5.87,5.87,0,0,0,2.32-1.19,2,2,0,0,0,.94-1.66.91.91,0,0,0-.76-.88c-.32-.05-.49.07-.53,0s.11-.26.54-.3a1.2,1.2,0,0,1,.72.21,1.37,1.37,0,0,1,.53.88,2.54,2.54,0,0,1-1,2.23,6,6,0,0,1-2.57,1.38c-2,.51-4.14,0-5-1.27a1.89,1.89,0,0,1-.19-1.64C564.62,422.62,564.83,422.51,564.86,422.54Z" style="fill:#eb996e"></path><path d="M593.71,425.9c3-2.92,7-4.43,10.68-6.51s7.14-5.26,7.56-9.42l-.05-.08c.54-3.78-.48-8-3.56-10.26,5-2,8-7.48,8-12.84s-2.68-13.24-5.81-17.59c-2.42-3.37-6.38-6.22-12-9.5a50.62,50.62,0,0,0-7.38-3.56l-14.59-1.07a6.35,6.35,0,0,0-1.54-.92,2.62,2.62,0,0,0-2.49,4.55l0,0a24.64,24.64,0,0,1-2,1.71h0l-.12.11a14.24,14.24,0,0,0-1.26,1.09h0l-14.11,7c4.12-.79,18.22-4.55,22.35-5.34a23.37,23.37,0,0,0,11.45,14.36c3,1.62,6.52,2.61,8.72,5.23,2.84,3.37,2.58,8.28,2.17,12.67l.11-.21a18.82,18.82,0,0,1-2.67,6.6A58.13,58.13,0,0,0,574,410.3c-1.06.66-3.18,2.28-3.34,3.52-.32,2.44,2.1,2.49,3.63,3.53,1.13.77,1.6,2.21,2,3.81a90.59,90.59,0,0,0,11,.2,9.33,9.33,0,0,0,.74,4.24l2.75-2a5.08,5.08,0,0,0-.37,2,1.66,1.66,0,0,0,1.15,1.51C592.33,427.25,593.08,426.52,593.71,425.9Z" style="fill:#263238"></path><path d="M605.56,395.48a12,12,0,0,1-1,1.78,10.69,10.69,0,0,1-4.26,3.4,18.39,18.39,0,0,1-3.59,1.27c-1.33.33-2.79.58-4.32.84a41.7,41.7,0,0,0-4.77,1.06,16.34,16.34,0,0,0-2.42.94,5.4,5.4,0,0,0-2.18,1.61,2.26,2.26,0,0,0-.19,2.22,3.36,3.36,0,0,0,1.49,1.58,7.74,7.74,0,0,0,4,.49l-.11-.29a12.63,12.63,0,0,0-2.6,2.5,4.47,4.47,0,0,0-.84,3.19,2.82,2.82,0,0,0,.63,1.43,2.48,2.48,0,0,0,1.24.77,2.51,2.51,0,0,0,1.36,0,1.82,1.82,0,0,0,1-.74l-.17-.12a9.65,9.65,0,0,0-1.57,3.68,9.16,9.16,0,0,0-.14,1.06,1.79,1.79,0,0,0,0,.37,1.93,1.93,0,0,0,.06-.37,9.18,9.18,0,0,1,.19-1,9.88,9.88,0,0,1,1.63-3.58l-.17-.12a1.92,1.92,0,0,1-2.13.62,2.27,2.27,0,0,1-1.11-.7,2.63,2.63,0,0,1-.55-1.3,4.18,4.18,0,0,1,.81-3,12.38,12.38,0,0,1,2.56-2.42l.41-.32-.52,0a7.45,7.45,0,0,1-3.85-.46,3.1,3.1,0,0,1-1.33-1.42,1.89,1.89,0,0,1,.16-1.88,5.15,5.15,0,0,1,2-1.5,16.4,16.4,0,0,1,2.37-.93,41.81,41.81,0,0,1,4.73-1.06c1.53-.28,3-.53,4.33-.88a18.45,18.45,0,0,0,3.62-1.33,10.5,10.5,0,0,0,4.27-3.54A5.91,5.91,0,0,0,605.56,395.48Z" style="fill:#455a64"></path><path d="M580.5,354.16l-.07.14-.17.43a4.33,4.33,0,0,0-.24.7,6.94,6.94,0,0,0-.25,1,13.2,13.2,0,0,0,.4,6.47,17,17,0,0,0,5.37,7.94A29.35,29.35,0,0,0,596,376.23c2,.62,4,1,5.91,1.58a19.47,19.47,0,0,1,5.19,2.15,10.25,10.25,0,0,1,3.56,3.55,7.41,7.41,0,0,1,.79,2.14,8,8,0,0,1,.11,2.11,8.76,8.76,0,0,1-1.08,3.46,8.64,8.64,0,0,1-1.72,2.15,9.84,9.84,0,0,1-2,1.28s.06,0,.15,0l.43-.17a7.71,7.71,0,0,0,1.5-.95,8.86,8.86,0,0,0,1.8-2.16,8.7,8.7,0,0,0,1.15-3.54,8.07,8.07,0,0,0-.09-2.18,7.39,7.39,0,0,0-.8-2.23,10.38,10.38,0,0,0-3.63-3.68,20.08,20.08,0,0,0-5.28-2.21c-1.91-.55-3.91-1-5.9-1.59a29.07,29.07,0,0,1-10.38-5.29,16.73,16.73,0,0,1-5.34-7.78,13.43,13.43,0,0,1-.51-6.37A22,22,0,0,1,580.5,354.16Z" style="fill:#455a64"></path><path d="M586.54,351.28a2.88,2.88,0,0,0-.23.61,11.74,11.74,0,0,0-.41,1.73,15.48,15.48,0,0,0-.2,2.63,17.87,17.87,0,0,0,.35,3.21,17.41,17.41,0,0,0,1,3.08,15.5,15.5,0,0,0,1.25,2.33,11.18,11.18,0,0,0,1.07,1.41c.28.31.44.48.46.46s-.56-.74-1.32-2a17.06,17.06,0,0,1-1.16-2.31,18.6,18.6,0,0,1-.94-3,20.36,20.36,0,0,1-.37-3.15,17,17,0,0,1,.13-2.59C586.33,352.19,586.61,351.3,586.54,351.28Z" style="fill:#455a64"></path><path d="M567.63,368.46c-.22.36,1.53,1.7,2.19,4.11s-.08,4.51.29,4.69c.17.09.63-.34,1-1.27a6.18,6.18,0,0,0,.14-3.85,6,6,0,0,0-2.11-3.17C568.34,368.39,567.73,368.29,567.63,368.46Z" style="fill:#263238"></path><path d="M564,371a2,2,0,0,0-1.34,2.48,1.94,1.94,0,0,0,2.38,1.42,2,2,0,0,0,1.34-2.48A1.94,1.94,0,0,0,564,371Z" style="fill:#263238"></path><path d="M553.51,395.14c0,.19-.61.38-1.59.17a5.45,5.45,0,0,1-3.1-2.17,6.12,6.12,0,0,1-1.21-3.56c0-1,.33-1.54.52-1.5s.32.57.58,1.35a9.77,9.77,0,0,0,1.37,2.79,7.49,7.49,0,0,0,2.24,2.06C553,394.69,553.54,394.91,553.51,395.14Z" style="fill:#263238"></path><path d="M177.36,427.51l-27.58,1.75s-11-27.44-16.17-27.62l1.48,53.6,43.08-1Z" style="fill:#455a64"></path><path d="M152.56,445.77a2.2,2.2,0,0,1-2.46,1.58,2.11,2.11,0,0,1-1.59-2.42,2.31,2.31,0,0,1,2.61-1.66,2.18,2.18,0,0,1,1.38,2.7" style="fill:#e0e0e0"></path><g style="opacity:0.6000000000000001"><path d="M135.09,455.24l4.33-.27-3-51.29s-1.11-2.35-2.78-2Z" style="fill:#fff"></path></g><path d="M150,428.38c-.26,0-.34,1.33-1.15,2.64s-1.89,2-1.78,2.27,1.61-.2,2.56-1.8S150.27,428.32,150,428.38Z" style="fill:#263238"></path><path d="M147.55,422.83c-.26-.06-.67,1.09-1.75,2s-2.25,1.21-2.23,1.47,1.5.38,2.83-.79S147.8,422.82,147.55,422.83Z" style="fill:#263238"></path><path d="M140.73,419.82c0,.24,1.27.57,2.69-.15s2-1.95,1.73-2.05-1,.67-2.14,1.24S140.75,419.56,140.73,419.82Z" style="fill:#263238"></path><path d="M156.36,428.68c-.24.12.16,1.31.1,2.79s-.5,2.65-.27,2.78,1.13-1,1.18-2.75S156.56,428.55,156.36,428.68Z" style="fill:#263238"></path><polygon points="350.07 407.93 158.52 426.3 160.42 455.13 371.19 452.94 350.07 407.93" style="fill:#263238"></polygon><g style="opacity:0.30000000000000004"><path d="M334.69,431.65a35.56,35.56,0,0,1-4.78-9.23L318.53,411l-1.77.15c4.27,4.39,9,9.46,11.75,14.95,1.89,3.82,2.94,8,4.93,11.78,4.76,9,15.35,14.77,25.44,13.26A52.74,52.74,0,0,1,334.69,431.65Z"></path></g><g style="opacity:0.30000000000000004"><path d="M269.56,416.67a26.53,26.53,0,0,0-6.15,5.3c-9.07,9.74-17.35,19.78-24,31.32,5.56-.23,11.42-2.7,16-5.85a48,48,0,0,0,13.14-14.39,142.06,142.06,0,0,0,8.83-17.51A10,10,0,0,0,269.56,416.67Z"></path></g><path d="M232.92,414.63l-14.28,23.65s-28.85-6.57-31.91-2.45l44.87,29.34,23.77-35.95Z" style="fill:#455a64"></path><path d="M233.78,445.41a2.18,2.18,0,0,1-.1,2.92,2.1,2.1,0,0,1-2.89-.07,2.31,2.31,0,0,1,.12-3.09,2.17,2.17,0,0,1,3,.41" style="fill:#e0e0e0"></path><g style="opacity:0.6000000000000001"><path d="M231.6,465.17l2.26-3.72L190,434.71s-2.57-.44-3.26,1.12Z" style="fill:#fff"></path></g><path d="M218.06,437.58c-.14.22.89,1,1.51,2.45s.59,2.71.85,2.75.76-1.43,0-3.13S218.14,437.35,218.06,437.58Z" style="fill:#263238"></path><path d="M212.08,436.45c-.19.18.52,1.17.65,2.59s-.28,2.53-.06,2.66,1.17-1,1-2.77S212.22,436.24,212.08,436.45Z" style="fill:#263238"></path><path d="M205.72,440.34c.17.17,1.19-.72,1.41-2.29s-.49-2.72-.7-2.59,0,1.17-.2,2.46S205.52,440.17,205.72,440.34Z" style="fill:#263238"></path><path d="M221.91,432.55c0,.26,1.17.61,2.35,1.51s1.89,1.91,2.13,1.8-.18-1.5-1.59-2.53S221.92,432.31,221.91,432.55Z" style="fill:#263238"></path><path d="M224.88,427.83c-.06.09.72.79,2.26,1.46a12.47,12.47,0,0,0,4.56,1,3.45,3.45,0,0,0,1-.08,1.14,1.14,0,0,0,.86-1.1A1.42,1.42,0,0,0,233,428a3.33,3.33,0,0,0-.92-.44,10.2,10.2,0,0,0-1.71-.43,9.74,9.74,0,0,0-3,0c-1.67.29-2.56.87-2.51,1s1-.22,2.58-.32a10.36,10.36,0,0,1,2.75.18,9.84,9.84,0,0,1,1.55.44c.55.19,1,.45.94.74,0,.11,0,.15-.21.22a2.77,2.77,0,0,1-.75.06,14.13,14.13,0,0,1-1.63-.1,14.59,14.59,0,0,1-2.72-.59A18.82,18.82,0,0,0,224.88,427.83Z" style="fill:#263238"></path><path d="M225,428.33c.06.09,1-.42,2-1.78a8.46,8.46,0,0,0,1.3-2.66,8,8,0,0,0,.32-1.74,2.19,2.19,0,0,0-.69-2.07,1.24,1.24,0,0,0-1.35,0,4.36,4.36,0,0,0-.77.67,6.12,6.12,0,0,0-1.54,4.46c.11,1.74.86,2.6.92,2.54a23.87,23.87,0,0,1-.28-2.54,6.18,6.18,0,0,1,.67-2.58,5.62,5.62,0,0,1,.89-1.27c.38-.43.81-.7,1-.53a1.53,1.53,0,0,1,.3,1.25,8,8,0,0,1-.24,1.58,9.19,9.19,0,0,1-1,2.52C225.63,427.55,224.86,428.22,225,428.33Z" style="fill:#263238"></path><path d="M217.68,427.51s54.6-88.56,59.93-92.25,15-6.37,27,1.42,84.9,51.09,84.9,51.09l15.32,3.08L389,453.41l-25.77-.68s-23.91-6.44-33.31-30.31l-36.4-37.21-44.39,60.73Z" style="fill:#263238"></path><path d="M389.47,387.77l-1-.57-2.94-1.71-11.24-6.64L333,354.28c-8.68-5.24-18.23-10.9-28.32-17.26a35.1,35.1,0,0,0-8.09-3.95,27.19,27.19,0,0,0-4.5-1,22.75,22.75,0,0,0-4.67-.07,20.33,20.33,0,0,0-9,3,6.52,6.52,0,0,0-1.79,1.56c-.54.6-1,1.28-1.54,1.92q-1.48,2-2.92,4c-7.63,11-15.19,22.87-23,35.17s-15.84,25.1-24,38.23l-7.29,11.76-.09-.36,31.44,18.43-.33.07,44.42-60.71.15-.21.17.19L330,422.31l0,0v0a49.8,49.8,0,0,0,10.63,16.34,56,56,0,0,0,11.45,9,58.74,58.74,0,0,0,8.14,4c1,.39,1.7.63,2.19.8l.75.26s-.26-.06-.76-.21-1.25-.4-2.21-.77a56.44,56.44,0,0,1-8.2-3.94,55.14,55.14,0,0,1-11.53-8.93,49.7,49.7,0,0,1-10.75-16.4l0,.06-36.44-37.18.32,0-44.35,60.76-.14.19-.2-.12-31.44-18.42-.23-.14.14-.22,7.28-11.76c8.17-13.14,16.19-25.93,24-38.24s15.43-24.15,23.08-35.17q1.44-2.06,2.94-4c.52-.65,1-1.32,1.56-1.94a6.58,6.58,0,0,1,1.89-1.64,20.76,20.76,0,0,1,9.18-3.06,23,23,0,0,1,4.77.09,26.82,26.82,0,0,1,4.57,1,34.81,34.81,0,0,1,8.19,4c10.07,6.36,19.62,12,28.28,17.3l41.17,24.72,11.2,6.72,2.9,1.76C389.15,387.55,389.47,387.77,389.47,387.77Z" style="fill:#455a64"></path><path d="M291.51,370.2a7.49,7.49,0,0,1,.66,2.05c.33,1.29.71,3.09,1,5.09s.49,3.84.56,5.17a8.35,8.35,0,0,1,0,2.15c-.15,0-.44-3.25-1.06-7.24S291.37,370.24,291.51,370.2Z" style="fill:#455a64"></path><path d="M389.43,386.39l43.65,2.92,40.17-1.37c4.22-.15,48.59,4.59,48.59,4.59-.17,7.35.44,9.3,4.49,16.81l-27.94,45.1L375.9,453.7s-4.78-8.55-2-26.64S389.43,386.39,389.43,386.39Z" style="fill:#FF725E"></path><path d="M483.66,441.82s5.12,11.64,14.87,12.61,33.6.34,33.6.34l15-32.48-12.06-3.62a26.12,26.12,0,0,1-3.1-5.78c-1.13-3.05-5.65-3.55-5.65-3.55S482.34,419.37,483.66,441.82Z" style="fill:#FF725E"></path><path d="M509.09,441.65s-.08-.12-.18-.36a10.13,10.13,0,0,1-.35-1.11,12,12,0,0,1-.25-4.26,15,15,0,0,1,2.06-6,18.58,18.58,0,0,1,5.38-5.58c4.59-3.17,9.6-4.27,13.09-4.93,1.77-.32,3.21-.51,4.2-.63a8.17,8.17,0,0,1,1.56-.13,8.79,8.79,0,0,1-1.53.33c-1,.18-2.41.43-4.16.79-3.46.75-8.38,1.9-12.86,5a18.59,18.59,0,0,0-5.27,5.4,15.35,15.35,0,0,0-2.11,5.79A14.63,14.63,0,0,0,509.09,441.65Z" style="fill:#263238"></path><path d="M511.1,410a10.77,10.77,0,0,1,2.45-.52,48.83,48.83,0,0,1,6-.49,47.57,47.57,0,0,1,6,.25,10.9,10.9,0,0,1,2.47.42,13.8,13.8,0,0,1-2.5-.05c-1.54-.08-3.66-.15-6-.1s-4.46.2-6,.34A13.87,13.87,0,0,1,511.1,410Z" style="fill:#263238"></path><path d="M492.27,445.64c0,.14-26.11.39-58.3.55s-58.31.17-58.31,0,26.1-.39,58.31-.55S492.27,445.49,492.27,445.64Z" style="fill:#263238"></path><g style="opacity:0.30000000000000004"><path d="M509.75,428.75a18.81,18.81,0,0,0-5.45,7.95c-.95,3.1-.52,6.78,1.72,9.14a2.43,2.43,0,0,0,1.57.89c1,0,1.82-1.05,1.89-2.09a9.22,9.22,0,0,0-.63-3,14.36,14.36,0,0,1,2.76-12.35,23.74,23.74,0,0,1,10.61-7.42,64.28,64.28,0,0,1,12-3.13C525.34,419.28,516.23,422.64,509.75,428.75Z"></path></g><path d="M521.24,409.43a13.46,13.46,0,0,1-1.48-2.29,37.81,37.81,0,0,1-2.88-5.95,22.52,22.52,0,0,1-1.21-6.51,10.92,10.92,0,0,1,.1-2.74,20.64,20.64,0,0,1,.27,2.71,26.68,26.68,0,0,0,1.34,6.36,50.23,50.23,0,0,0,2.7,5.95A14.42,14.42,0,0,1,521.24,409.43Z" style="fill:#263238"></path><path d="M523.05,403a9.69,9.69,0,0,1-2.21.18,9.23,9.23,0,0,1-2.22.15,3.53,3.53,0,0,1,2.18-.67A3.43,3.43,0,0,1,523.05,403Z" style="fill:#263238"></path><path d="M521.53,395.88a7.36,7.36,0,0,1-2.43.45,7.27,7.27,0,0,1-2.46.14,5.25,5.25,0,0,1,2.4-.66A5.19,5.19,0,0,1,521.53,395.88Z" style="fill:#263238"></path><path d="M541.66,421.24c0,.06-.73-.19-2.08-.25a17.36,17.36,0,0,0-5.62.83,51,51,0,0,0-7.92,3,18.79,18.79,0,0,0-7.69,6.68,17.73,17.73,0,0,0-2.81,9.77,17.42,17.42,0,0,0,2.14,8.07,18.37,18.37,0,0,0,3.44,4.52c1,.93,1.6,1.37,1.57,1.41a3,3,0,0,1-.47-.29,13.15,13.15,0,0,1-1.24-1,17.66,17.66,0,0,1-5.92-12.73,18,18,0,0,1,2.85-10.06,19,19,0,0,1,7.91-6.83,48.13,48.13,0,0,1,8-3,16.19,16.19,0,0,1,5.73-.68,9.17,9.17,0,0,1,1.55.27A2.61,2.61,0,0,1,541.66,421.24Z" style="fill:#263238"></path><path d="M495.3,452.93a2.83,2.83,0,0,1-.42-.78,17,17,0,0,1-.84-2.27,24.38,24.38,0,0,1,.61-15.73,15.86,15.86,0,0,1,1-2.19,2.93,2.93,0,0,1,.48-.75c.08,0-.49,1.16-1.15,3.07a27.16,27.16,0,0,0-.6,15.5C494.9,451.73,495.39,452.9,495.3,452.93Z" style="fill:#263238"></path><path d="M384.31,418.62a6.49,6.49,0,0,1,.39-1.2c.27-.76.7-1.86,1.25-3.2,1.09-2.69,2.68-6.37,4.59-10.37s3.78-7.55,5.19-10.09c.71-1.27,1.29-2.29,1.71-3a5.45,5.45,0,0,1,.7-1,6.93,6.93,0,0,1-.52,1.15c-.42.81-.94,1.84-1.56,3.06-1.33,2.57-3.14,6.15-5.05,10.13s-3.55,7.64-4.73,10.29c-.55,1.25-1,2.3-1.4,3.14A4.71,4.71,0,0,1,384.31,418.62Z" style="fill:#263238"></path><path d="M525.08,428.93s-9.12,7-5,16.34S532,454.35,532,454.35s45.34,2.24,53.24-.53,17-4.47,17-12.8-.12-10.11-5.54-12.7-49.15-6.48-49.15-6.48S531.85,422.47,525.08,428.93Z" style="fill:#ffbe9d"></path><path d="M525.08,428.93l.3-.28.92-.8c.42-.33,1-.68,1.64-1.13s1.47-.86,2.42-1.25a50.76,50.76,0,0,1,17.18-3.8h0c8.94.8,20.19,1.84,33,3.45,3.19.4,6.47.87,9.84,1.43l2.53.47c.84.18,1.69.38,2.54.6l1.28.44c.4.18.8.38,1.19.59a11.5,11.5,0,0,1,2.25,1.51,5.92,5.92,0,0,1,1.59,2.28,10.58,10.58,0,0,1,.58,2.71c.17,1.83.16,3.67.16,5.52a9.42,9.42,0,0,1-1.49,5.45,12,12,0,0,1-4.37,3.71,55.88,55.88,0,0,1-8.73,3.37l-2.18.72c-.71.26-1.49.39-2.24.59-1.5.23-3,.43-4.5.52-6,.43-11.74.43-17.26.41-11.05-.1-21.11-.48-29.74-.89h0a11.33,11.33,0,0,1-3.84-.79,12.88,12.88,0,0,1-3.23-1.81,15.66,15.66,0,0,1-4.31-5.18,13.51,13.51,0,0,1-1.7-5.62,11.62,11.62,0,0,1,.72-4.88,16.77,16.77,0,0,1,3.67-5.75,13.85,13.85,0,0,1,1.29-1.22,5.51,5.51,0,0,1,.48-.37l-.44.41c-.29.28-.73.68-1.25,1.26a17.24,17.24,0,0,0-3.54,5.74,11.31,11.31,0,0,0-.66,4.8,13.15,13.15,0,0,0,1.71,5.48,15.27,15.27,0,0,0,4.24,5.05,12.55,12.55,0,0,0,3.16,1.74,10.93,10.93,0,0,0,3.69.75h0c8.62.37,18.68.72,29.72.79,5.52,0,11.29,0,17.22-.43,1.49-.09,3-.3,4.45-.52.72-.19,1.44-.31,2.17-.57l2.18-.73a54,54,0,0,0,8.64-3.33,11.38,11.38,0,0,0,4.19-3.54,9,9,0,0,0,1.41-5.16c0-1.85,0-3.68-.16-5.47a10.49,10.49,0,0,0-.55-2.58,5.4,5.4,0,0,0-1.45-2.08,11,11,0,0,0-2.15-1.45c-.38-.2-.77-.4-1.16-.58l-1.21-.41c-.83-.22-1.67-.41-2.5-.6l-2.52-.47q-5-.84-9.81-1.44c-12.76-1.64-24-2.73-32.94-3.59h0a51.59,51.59,0,0,0-17.11,3.64c-1,.37-1.73.86-2.43,1.2s-1.23.77-1.66,1.08l-.94.76C525.2,428.85,525.08,428.93,525.08,428.93Z" style="fill:#eb996e"></path><path d="M587.57,430.53a9.75,9.75,0,0,1-1.52-.37L582,429c-3.46-1-8.26-2.2-13.62-3.34s-10.26-2-13.82-2.48l-4.21-.62a10.07,10.07,0,0,1-1.54-.27,8.44,8.44,0,0,1,1.57.07c1,.08,2.45.23,4.23.45,3.58.44,8.5,1.21,13.87,2.34s10.18,2.45,13.63,3.5c1.72.53,3.1,1,4.05,1.31A10.43,10.43,0,0,1,587.57,430.53Z" style="fill:#eb996e"></path></g></svg>