<svg xmlns="http://www.w3.org/2000/svg" viewBox="0 0 750 500"><g id="background-complete"><rect x="74.39" y="130.67" width="42.87" height="42.87" style="fill:#f5f5f5"></rect><rect x="125.19" y="130.67" width="42.87" height="42.87" style="fill:#f5f5f5"></rect><rect x="176" y="130.67" width="42.87" height="42.87" style="fill:#f5f5f5"></rect><rect x="226.8" y="130.67" width="42.87" height="42.87" style="fill:#f5f5f5"></rect><rect x="74.39" y="81.74" width="42.87" height="42.87" style="fill:#f5f5f5"></rect><rect x="125.19" y="81.74" width="42.87" height="42.87" style="fill:#f5f5f5"></rect><rect x="176" y="81.74" width="42.87" height="42.87" style="fill:#f5f5f5"></rect><rect x="226.8" y="81.74" width="42.87" height="42.87" style="fill:#f5f5f5"></rect><rect x="277.44" y="81.74" width="42.87" height="42.87" style="fill:#f5f5f5"></rect><rect x="328.25" y="81.74" width="42.87" height="42.87" style="fill:#f5f5f5"></rect><rect x="379.05" y="81.74" width="42.87" height="42.87" style="fill:#f5f5f5"></rect><rect x="429.86" y="81.74" width="42.87" height="42.87" style="fill:#f5f5f5"></rect><rect x="480.5" y="81.74" width="42.87" height="42.87" style="fill:#f5f5f5"></rect><rect x="531.3" y="81.74" width="42.87" height="42.87" style="fill:#f5f5f5"></rect><rect x="582.11" y="81.74" width="42.87" height="42.87" style="fill:#f5f5f5"></rect><rect x="632.91" y="81.74" width="42.87" height="42.87" style="fill:#f5f5f5"></rect><rect x="683.43" y="81.74" width="42.87" height="42.87" style="fill:#f5f5f5"></rect><rect x="74.39" y="178.94" width="42.87" height="42.87" style="fill:#f5f5f5"></rect><rect x="125.19" y="178.94" width="42.87" height="42.87" style="fill:#f5f5f5"></rect><rect x="176" y="178.94" width="42.87" height="42.87" style="fill:#f5f5f5"></rect><rect x="226.8" y="178.94" width="42.87" height="42.87" style="fill:#f5f5f5"></rect><rect x="74.39" y="229.55" width="42.87" height="42.87" style="fill:#f5f5f5"></rect><rect x="125.19" y="229.55" width="42.87" height="42.87" style="fill:#f5f5f5"></rect><rect x="176" y="229.55" width="42.87" height="42.87" style="fill:#f5f5f5"></rect><rect x="226.8" y="229.55" width="42.87" height="42.87" style="fill:#f5f5f5"></rect><rect x="74.39" y="277.82" width="42.87" height="42.87" style="fill:#f5f5f5"></rect><rect x="125.19" y="277.82" width="42.87" height="42.87" style="fill:#f5f5f5"></rect><rect x="176" y="277.82" width="42.87" height="42.87" style="fill:#f5f5f5"></rect><rect x="226.8" y="277.82" width="42.87" height="42.87" style="fill:#f5f5f5"></rect><rect x="136.02" y="13.05" width="7.55" height="35.87" style="fill:#f5f5f5"></rect><rect x="268.19" y="13.05" width="7.55" height="35.87" style="fill:#f5f5f5"></rect><rect x="249.73" y="47.15" width="49.24" height="49.24" rx="6.86" transform="translate(-0.28 1.08) rotate(-0.23)" style="fill:#e0e0e0"></rect><rect x="120.18" y="47.51" width="126.01" height="49.24" rx="6.86" transform="matrix(1, 0, 0, 1, -0.28, 0.72)" style="fill:#e0e0e0"></rect><path d="M284.9,72.28a4.17,4.17,0,0,1-.79.06l-2.18,0c-1.85,0-4.42.06-7.33.08h-.14v-.14c0-.47,0-1,0-1.46,0-3.24,0-6.18,0-8.31,0-1,0-1.87,0-2.52a5.7,5.7,0,0,1,.06-.92,5.7,5.7,0,0,1,.06.92c0,.64,0,1.49.05,2.52,0,2.13.07,5.06.08,8.31v1.45l-.14-.14c2.91,0,5.48,0,7.33,0l2.18,0A6.21,6.21,0,0,1,284.9,72.28Z" style="fill:#fff"></path><path d="M274.59,52.91a6.06,6.06,0,0,1,.15,1.88,6.14,6.14,0,0,1-.13,1.88,6.29,6.29,0,0,1-.16-1.88A6.32,6.32,0,0,1,274.59,52.91Z" style="fill:#fff"></path><path d="M284.82,55.89a6.7,6.7,0,0,1-1.21,1.42,5.69,5.69,0,0,1-1.41,1.21,6,6,0,0,1,1.21-1.42A6,6,0,0,1,284.82,55.89Z" style="fill:#fff"></path><path d="M290.81,62.39a7.74,7.74,0,0,1-1.54,1,7.93,7.93,0,0,1-1.62.91,4.81,4.81,0,0,1,1.47-1.15A5,5,0,0,1,290.81,62.39Z" style="fill:#fff"></path><path d="M294.35,72.05a22.09,22.09,0,0,1-5.14,0,23.66,23.66,0,0,1,5.14,0Z" style="fill:#fff"></path><path d="M258.75,71.85a21.07,21.07,0,0,1-4.85,0,19.67,19.67,0,0,1,4.85,0Z" style="fill:#fff"></path><path d="M261.3,79.05a11.35,11.35,0,0,1-1.83,1.67,10.64,10.64,0,0,1-2,1.44,10.85,10.85,0,0,1,1.83-1.67A10,10,0,0,1,261.3,79.05Z" style="fill:#fff"></path><path d="M267.53,84.59a16.1,16.1,0,0,1-1.24,2.17A16.34,16.34,0,0,1,265,88.88,8.09,8.09,0,0,1,266,86.61,8.48,8.48,0,0,1,267.53,84.59Z" style="fill:#fff"></path><path d="M274.74,91.75a11.92,11.92,0,0,1-.15-2.56,11.38,11.38,0,0,1,.13-2.57,11.65,11.65,0,0,1,.16,2.57A11,11,0,0,1,274.74,91.75Z" style="fill:#fff"></path><path d="M285.8,88.29a7.48,7.48,0,0,1-2.13-1.44A7.64,7.64,0,0,1,281.94,85a21.57,21.57,0,0,1,1.92,1.67C284.92,87.55,285.84,88.22,285.8,88.29Z" style="fill:#fff"></path><path d="M289.47,81a9.27,9.27,0,0,1,1.5,1.7,9.2,9.2,0,0,1-1.71-1.49" style="fill:#fff"></path><path d="M261,64.94a6.82,6.82,0,0,1-1.5-1.29,6.48,6.48,0,0,1-1.3-1.5,7.17,7.17,0,0,1,1.5,1.29A6.48,6.48,0,0,1,261,64.94Z" style="fill:#fff"></path><path d="M267.39,58.16a6.18,6.18,0,0,1-1.48-1.26,6.84,6.84,0,0,1-1.28-1.46,6.48,6.48,0,0,1,1.48,1.26A7.12,7.12,0,0,1,267.39,58.16Z" style="fill:#fff"></path><path d="M145.17,64.73a43.26,43.26,0,0,1-6.66.28,42.86,42.86,0,0,1-6.66-.23,44,44,0,0,1,6.66-.29A42.06,42.06,0,0,1,145.17,64.73Z" style="fill:#fff"></path><path d="M234.05,64.38c0,.14-18.09.33-40.4.42s-40.4,0-40.4-.1,18.09-.34,40.4-.42S234.05,64.24,234.05,64.38Z" style="fill:#fff"></path><path d="M145.2,72.64a44,44,0,0,1-6.66.29,42.06,42.06,0,0,1-6.66-.24,44,44,0,0,1,6.66-.29A43.54,43.54,0,0,1,145.2,72.64Z" style="fill:#fff"></path><path d="M234.08,72.29c0,.14-18.08.33-40.39.42s-40.41,0-40.41-.1,18.09-.33,40.4-.42S234.08,72.15,234.08,72.29Z" style="fill:#fff"></path><path d="M145.23,80.55a44,44,0,0,1-6.66.29,42.06,42.06,0,0,1-6.66-.24,43.26,43.26,0,0,1,6.66-.28A42.86,42.86,0,0,1,145.23,80.55Z" style="fill:#fff"></path><path d="M234.12,80.2c0,.14-18.09.33-40.4.42s-40.41,0-40.41-.1,18.09-.33,40.4-.42S234.11,80.06,234.12,80.2Z" style="fill:#fff"></path><rect x="566.7" y="15.62" width="5.6" height="35.71" style="fill:#f5f5f5"></rect><rect x="651.11" y="15.62" width="5.6" height="35.71" style="fill:#f5f5f5"></rect><rect x="548.84" y="47.51" width="125.13" height="46.45" rx="8.23" style="fill:#e0e0e0"></rect><path d="M609.08,69.45c0,.15-11,.26-24.66.26s-24.66-.11-24.66-.26,11-.26,24.66-.26S609.08,69.31,609.08,69.45Z" style="fill:#f5f5f5"></path><path d="M661.36,69.41c0,.15-8.29.26-18.51.26s-18.51-.11-18.51-.26,8.28-.26,18.51-.26S661.36,69.27,661.36,69.41Z" style="fill:#f5f5f5"></path><path d="M649.6,79.78a7.61,7.61,0,0,1,1.06-.89c.8-.59,1.81-1.35,3-2.26,2.56-1.88,6.11-4.46,10.05-7.29l.14-.1,0,.44c-4.15-2.44-7.88-4.66-10.57-6.29l-3.17-2a7,7,0,0,1-1.12-.77,6.74,6.74,0,0,1,1.23.6l3.25,1.81c2.73,1.55,6.5,3.72,10.65,6.15l.34.2-.32.23-.15.11c-3.94,2.82-7.52,5.35-10.13,7.16l-3.11,2.13A7.13,7.13,0,0,1,649.6,79.78Z" style="fill:#f5f5f5"></path></g><g id="background-simple"><path d="M387.16,110.25c-1.56-17-8.81-33.75-21.76-44.79-15.62-13.31-32.4-21.3-52.91-21-13.7.18-32.87,6.42-44.45,13.74-12.75,8.06-20.94,21.88-33.42,30.36-28,19-69,6.4-97,25.3-8.25,5.56-14.69,13.52-19.6,22.17-16.51,29.11-14.81,68.71,7.33,93.79a49.43,49.43,0,0,0,11,9.37h0c30,17.59,27.14,16,61.34,22.1a163.49,163.49,0,0,0,181-101.11C385,144.31,388.71,127.21,387.16,110.25Z" style="fill:#ebebeb"></path><circle cx="435.12" cy="62.09" r="32.9" style="fill:#ebebeb"></circle></g><g id="Subway"><path d="M105.88,435.88s-31.75-15.87-16.49-67c4-13.51,68.08-130.59,131.44-196.9,18.54-19.39,37-34.45,53.92-41.29H719.21V435.88Z" style="fill:#455a64"></path><path d="M273.25,174.27h-54.6s-57.41,64-96.67,133.78h86a7.32,7.32,0,0,0,6.43-3.81l65.23-119.12A7.33,7.33,0,0,0,273.25,174.27Z" style="fill:#fff"></path><path d="M273.25,174.27a9.78,9.78,0,0,1,1.2.08,7.23,7.23,0,0,1,3.23,1.35,7.53,7.53,0,0,1,2.9,4.83,7.24,7.24,0,0,1-.37,3.64c-.5,1.23-1.25,2.4-1.92,3.7-5.64,10.34-13.79,25.27-23.85,43.73S232.35,272,219,296.41L216.5,301c-.43.77-.85,1.54-1.27,2.32a13.27,13.27,0,0,1-1.44,2.29,7.6,7.6,0,0,1-4.76,2.6,23,23,0,0,1-2.74.07H121.54l.22-.38A742.66,742.66,0,0,1,173,230.43c8.4-11.24,16.52-21.62,24.18-31s14.8-17.88,21.33-25.25l0,0h.08l40.2.07,10.7,0,2.76,0,.94,0-.94,0-2.76,0-10.7,0-40.2.08.12-.05c-6.51,7.37-13.63,15.86-21.26,25.27s-15.75,19.8-24.13,31.05a748.53,748.53,0,0,0-51.17,77.47l-.23-.39h84.31a26,26,0,0,0,2.67-.07,7.12,7.12,0,0,0,4.46-2.43,12,12,0,0,0,1.38-2.21l1.27-2.32q1.27-2.31,2.52-4.6l35.53-64.76c10.12-18.42,18.32-33.33,24-43.64.68-1.3,1.44-2.49,1.93-3.67a6.94,6.94,0,0,0,.38-3.56,7.27,7.27,0,0,0-6-6.15c-.39-.07-.69-.06-.89-.09Z" style="fill:#263238"></path><path d="M703.23,435.88c0-2.12-.1-107.26-.24-261.61l.24.24-181.13,0h0l.26-.26c0,98.27,0,189-.05,261.61l-.21-.21,181.15.21-181.15.21h-.21v-.21c0-72.57,0-163.34,0-261.61V174h.28l181.13,0h.23v.23C703.32,328.62,703.23,433.77,703.23,435.88Z" style="fill:#263238"></path><rect x="536.75" y="185.01" width="55.52" height="173.54" style="fill:#fafafa"></rect><path d="M592.77,359.05H536.25V184.51h56.52Zm-55.52-1h54.52V185.51H537.25Z" style="fill:#263238"></path><rect x="631.14" y="185.01" width="58" height="173.54" style="fill:#fafafa"></rect><path d="M689.63,359.05h-59V184.51h59Zm-58-1h57V185.51h-57Z" style="fill:#263238"></path><path d="M597.49,257.75a3.69,3.69,0,1,1,3.68,3.47A3.48,3.48,0,0,1,597.49,257.75Zm5.78,0a2.1,2.1,0,1,0-2.1,2.15A2,2,0,0,0,603.27,257.75Z" style="fill:#263238"></path><path d="M611.84,256.83c0,1.5-1.12,2.43-2.91,2.43h-1.36v1.85H606v-6.72h2.91C610.72,254.39,611.84,255.32,611.84,256.83Zm-1.57,0c0-.74-.48-1.17-1.43-1.17h-1.27V258h1.27C609.79,258,610.27,257.56,610.27,256.83Z" style="fill:#263238"></path><path d="M618.15,259.86v1.25H613v-6.72H618v1.25h-3.53v1.46h3.12v1.21h-3.12v1.55Z" style="fill:#263238"></path><path d="M625.55,254.39v6.72h-1.28L620.92,257v4.08h-1.53v-6.72h1.28l3.34,4.08v-4.08Z" style="fill:#263238"></path><rect x="314.5" y="174.27" width="171.45" height="133.78" style="fill:#fff"></rect><path d="M486.45,308.55H314V173.77H486.45Zm-171.45-1H485.45V174.77H315Z" style="fill:#263238"></path><path d="M461.68,200.22s-.08.09-.25.24l-.77.66-3,2.51c-2.59,2.17-6.36,5.28-11,9.11-9.35,7.65-22.36,18.12-36.89,29.47s-27.85,21.45-37.54,28.67c-4.84,3.62-8.78,6.52-11.51,8.51l-3.15,2.28-.83.58-.29.19s.08-.09.26-.23l.8-.63,3.09-2.35L372,270.59c9.63-7.3,22.9-17.43,37.43-28.79s27.58-21.77,37-29.35l11.14-9,3-2.43c.33-.26.59-.47.8-.62S461.67,200.21,461.68,200.22Z" style="fill:#263238"></path><path d="M418.18,222.31l-.19.19-.58.52L415.13,225c-2,1.69-4.86,4.11-8.45,7.09-7.16,5.94-17.14,14.06-28.29,22.86S357,271.54,349.57,277.13c-3.72,2.79-6.74,5-8.85,6.57l-2.42,1.76-.64.45-.23.14s.06-.07.19-.19l.61-.48,2.37-1.84,8.75-6.7c7.39-5.67,17.57-13.53,28.72-22.33s21.15-16.87,28.38-22.74l8.55-7,2.34-1.88.62-.48Z" style="fill:#263238"></path><path d="M611.4,435.76c-.14,0-.26-58.71-.26-131.11s.12-131.11.26-131.11.26,58.69.26,131.11S611.54,435.76,611.4,435.76Z" style="fill:#263238"></path><circle cx="621.19" cy="275" r="7.91" style="fill:#FF725E"></circle><path d="M626.2,275a5,5,0,1,1-5-5A5,5,0,0,1,626.2,275Z" style="fill:#fafafa"></path><circle cx="602.12" cy="275" r="7.91" style="fill:#FF725E"></circle><circle cx="602.12" cy="275" r="5.01" style="fill:#fafafa"></circle><path d="M522.08,367.14c0,.14-96.75.26-216.07.26s-216.1-.12-216.1-.26,96.73-.26,216.1-.26S522.08,367,522.08,367.14Z" style="fill:#263238"></path><path d="M522.08,378c0,.15-97.32.26-217.36.26S87.35,378.18,87.35,378s97.3-.26,217.37-.26S522.08,377.89,522.08,378Z" style="fill:#fff"></path><polygon points="719.21 155.75 237.5 155.75 263.72 135.8 719.21 135.8 719.21 155.75" style="fill:#FF725E"></polygon><path d="M711.5,156.3c0,.15-106.12.26-237,.26s-237-.11-237-.26,106.1-.26,237-.26S711.5,156.16,711.5,156.3Z" style="fill:#263238"></path><path d="M238.22,219.38l-.19.17-.61.46-2.35,1.75c-2,1.51-5,3.66-8.76,6.29-7.42,5.27-17.78,12.41-29.4,20s-22.3,14.26-30.09,19c-3.9,2.36-7.06,4.24-9.27,5.52L155,274l-.66.37-.24.11.21-.16.64-.41,2.49-1.55,9.18-5.65c7.74-4.78,18.38-11.48,30-19.08s22-14.7,29.47-19.89c3.71-2.58,6.72-4.68,8.85-6.15l2.41-1.67.64-.42C238.14,219.41,238.22,219.37,238.22,219.38Z" style="fill:#263238"></path><path d="M578.2,249c.11.1-5.61,5.88-12.76,12.91s-13,12.64-13.14,12.54,5.62-5.88,12.77-12.91S578.1,248.93,578.2,249Z" style="fill:#263238"></path><path d="M666.67,202.41a6.88,6.88,0,0,1-.75,1c-.51.59-1.26,1.43-2.21,2.45-1.88,2.05-4.55,4.82-7.59,7.79s-5.87,5.57-8,7.41c-1,.92-1.9,1.65-2.5,2.15a5.22,5.22,0,0,1-1,.72,5.42,5.42,0,0,1,.83-.87l2.39-2.27c2-1.91,4.81-4.55,7.85-7.51s5.73-5.69,7.69-7.67l2.32-2.34A4.54,4.54,0,0,1,666.67,202.41Z" style="fill:#263238"></path><path d="M584.08,252.42c.11.1-8.82,10-19.93,22.13s-20.22,21.87-20.32,21.78,8.81-10,19.93-22.13S584,252.32,584.08,252.42Z" style="fill:#263238"></path><path d="M295.62,365.81c-.14,0-.26-46.54-.26-103.94s.12-104,.26-104,.27,46.53.27,104S295.77,365.81,295.62,365.81Z" style="fill:#263238"></path><path d="M505,365.81c-.14,0-.26-46.54-.26-103.94s.12-104,.26-104,.26,46.53.26,104S505.12,365.81,505,365.81Z" style="fill:#263238"></path><path d="M304.71,130.67l6-3.59a86.71,86.71,0,0,1,44.51-12.3h139.1v-4.66h-53a3.47,3.47,0,0,1-3.48-3.47h0a3.48,3.48,0,0,1,3.48-3.48H685.66a3.47,3.47,0,0,1,3.47,3.48h0a3.47,3.47,0,0,1-3.47,3.47h-30v4.79l63.53.17v15.59Z" style="fill:#263238"></path></g><g id="Wall"><rect x="19.63" y="17.06" width="39.8" height="459.75" style="fill:#e0e0e0"></rect><path d="M59.43,24.5c.15,0,.26,99.88.26,223.06s-.11,223.09-.26,223.09-.26-99.86-.26-223.09S59.29,24.5,59.43,24.5Z" style="fill:#263238"></path></g><g id="Floor"><path d="M733.59,435.88l-1.73,0-5.09,0L707.2,436l-72,.08-237.45.08-237.5-.08-72-.08-19.57-.05-5.09,0-1.73,0,1.73,0,5.09,0,19.57-.05,72-.08,237.5-.08,237.45.08,72,.08,19.57.05,5.09,0Z" style="fill:none;stroke:#263238;stroke-miterlimit:10"></path></g><g id="character-3"><path d="M483.84,270.4H492l12.46,35.74-19,28.14c-5.88,1.24-12.76,2.24-17.26-1.75-3.72-3.29-4.35-8.77-4.54-13.72a198.44,198.44,0,0,1,.51-23.89c.5-6,1.34-12.13,4.52-17.2S478,269,483.84,270.4" style="fill:#263238"></path><path d="M476,334.83s-.24,0-.68-.14a4,4,0,0,1-1.67-1,5.66,5.66,0,0,1-1.43-2.73,26.37,26.37,0,0,1-.48-4.15,233.32,233.32,0,0,1-.49-24.3,119.06,119.06,0,0,1,1-13.33,41.48,41.48,0,0,1,2.85-10.48,28.36,28.36,0,0,1,3.71-6.32c.54-.68,1-1.19,1.29-1.53l.35-.39a.61.61,0,0,0,.11-.14l-.14.11-.38.36c-.33.33-.79.82-1.35,1.49a27.63,27.63,0,0,0-3.85,6.3,40.86,40.86,0,0,0-3,10.54,117.72,117.72,0,0,0-1,13.38,212,212,0,0,0,.61,24.33A25.42,25.42,0,0,0,472,331a5.66,5.66,0,0,0,1.54,2.79,3.82,3.82,0,0,0,1.75,1A2.47,2.47,0,0,0,476,334.83Z" style="fill:#455a64"></path><path d="M463.41,312.54a7.66,7.66,0,0,0,7.32.69,20,20,0,0,1-3.71.19A21.45,21.45,0,0,1,463.41,312.54Z" style="fill:#455a64"></path><path d="M463.94,294.84a8,8,0,0,0,3.61,1.42,8.06,8.06,0,0,0,3.87-.09c0-.13-1.73.07-3.8-.31S464,294.73,463.94,294.84Z" style="fill:#455a64"></path><path d="M483.08,270.24s1-4-.87-4.25-7.35,2.17-6.51,4.31a16.73,16.73,0,0,0,1.87,3.54l.76-1s-1.31-1.61-1.16-2.71,3.78-3,4.34-1.9a5.26,5.26,0,0,1,.55,2.11Z" style="fill:#263238"></path><path d="M550.78,275.3l32.77.64,5.3-.46s12-.34,13.14-.52c1.32-.2,1.74.39,1.79.88.06.77-.79,1.46-1.92,1.67-.4.07-6.62,1-6.62,1a15.32,15.32,0,0,1,1.86.95c1.31.74,2.31,2.79,2.58,5s.15,2.87-.71,3a1.08,1.08,0,0,1-.9-.31,3.2,3.2,0,0,1-.85-1.64c-.72-4.24-2.41-4-2.41-4l-.74,0s1.92,2,1.54,3.82a2.33,2.33,0,0,1-.32.75,2.86,2.86,0,0,1-1,2.56,2.89,2.89,0,0,1-2.8.49c-.45-.17-.89-.54-.87-1a1.49,1.49,0,0,1,.28-.69,2.37,2.37,0,0,0,.19-.35l-2-.1s-4.4-.47-6.34-.46l-30.78,1c-4.39.46-9.13-.46-9.52-4.85h0C542.1,278,546,275,550.78,275.3Z" style="fill:#ffbe9d"></path><path d="M584.14,276.9a1.62,1.62,0,0,0,1.13,1.53c.63.27,1.33.31,2,.52,1.94.65,3.14,2.75,5.11,3.31.27.07.64.08.77-.17s0-.51-.21-.72L588.78,276" style="fill:#ffbe9d"></path><path d="M588.78,276a3.32,3.32,0,0,1,.51.54c.3.35.74.88,1.27,1.54l1.84,2.31.53.67a1.36,1.36,0,0,1,.42.93.57.57,0,0,1-.44.46,1.13,1.13,0,0,1-.55,0,5,5,0,0,1-.93-.38,25.13,25.13,0,0,1-2.88-2.23,5.41,5.41,0,0,0-1.34-.74c-.45-.16-.9-.23-1.32-.34a2.42,2.42,0,0,1-1.67-1.13c-.22-.46-.1-.75-.08-.74a1.76,1.76,0,0,0,.21.67,2.36,2.36,0,0,0,1.61.94,13.77,13.77,0,0,1,1.36.3,4.84,4.84,0,0,1,1.43.76,31,31,0,0,0,2.86,2.17,4,4,0,0,0,.84.34c.27.07.53,0,.53-.13s-.16-.41-.34-.64l-.52-.68-1.78-2.37c-.5-.67-.9-1.23-1.17-1.61A2.76,2.76,0,0,1,588.78,276Z" style="fill:#eb996e"></path><path d="M594.07,281.55a2.76,2.76,0,0,1,1.26.22,2.2,2.2,0,0,1,.95,1,5.51,5.51,0,0,1,.5,1.65,8.94,8.94,0,0,0,.43,1.73,2.82,2.82,0,0,0,.85,1.2,1.11,1.11,0,0,0,1,.21.7.7,0,0,0,.33-.17s-.13,0-.35.07a1,1,0,0,1-.84-.25,2.84,2.84,0,0,1-.75-1.15,9.35,9.35,0,0,1-.39-1.69,5.37,5.37,0,0,0-.55-1.71,2.26,2.26,0,0,0-1.08-1,2,2,0,0,0-1-.15A.73.73,0,0,0,594.07,281.55Z" style="fill:#eb996e"></path><path d="M602.29,277.42a6.21,6.21,0,0,0-1.24.17l-3,.49-3,.45a6.38,6.38,0,0,0-1.24.22,6.41,6.41,0,0,0,1.26,0c.77-.07,1.83-.2,3-.38s2.21-.39,3-.57A5.64,5.64,0,0,0,602.29,277.42Z" style="fill:#eb996e"></path><path d="M592.89,283.17s.06.13.19.34a1.18,1.18,0,0,1,.2.95.63.63,0,0,1-.47.4,3.35,3.35,0,0,1-.81.07,1.39,1.39,0,0,0-1,.29,1.19,1.19,0,0,0-.35,1,1.36,1.36,0,0,0,.57.9,1.75,1.75,0,0,0,.94.33,5.84,5.84,0,0,0,1.59-.27,3,3,0,0,0,1-.48c.2-.16.27-.29.26-.3s-.11.1-.32.22a3.82,3.82,0,0,1-1,.39,5.77,5.77,0,0,1-1.53.21,1.35,1.35,0,0,1-1.27-1,1,1,0,0,1,.26-.81,1.29,1.29,0,0,1,.8-.25,3.11,3.11,0,0,0,.86-.09.81.81,0,0,0,.57-.55,1.16,1.16,0,0,0-.28-1.05C593,283.25,592.9,283.16,592.89,283.17Z" style="fill:#eb996e"></path><path d="M591.45,287a.54.54,0,0,0-.35.09,1.1,1.1,0,0,0-.53.82,1.46,1.46,0,0,0,.64,1.3,2.35,2.35,0,0,0,1.72.35,2.87,2.87,0,0,0,1.58-.79,2.76,2.76,0,0,0,.72-1.24,2.66,2.66,0,0,0,.08-1,.9.9,0,0,0-.09-.35,4.54,4.54,0,0,1-.16,1.26,2.76,2.76,0,0,1-.71,1.13,2.64,2.64,0,0,1-1.45.7,2.18,2.18,0,0,1-1.56-.29,1.3,1.3,0,0,1-.59-1.09,1.07,1.07,0,0,1,.4-.76C591.32,287.07,591.45,287,591.45,287Z" style="fill:#eb996e"></path><path d="M586.63,283.39a1.11,1.11,0,0,0-.1-.6,2.35,2.35,0,0,0-1-1.17l0,.22a8.53,8.53,0,0,0,.81-.27,5.36,5.36,0,0,0,2.39-1.68,13.49,13.49,0,0,1-2.49,1.45,7.13,7.13,0,0,1-.77.27l-.28.08.25.14a2.46,2.46,0,0,1,1,1C586.56,283.17,586.6,283.39,586.63,283.39Z" style="fill:#eb996e"></path><path d="M597.23,281.87c0-.06-.45.25-.6.83s0,1.05.11,1,0-.45.13-1S597.28,281.92,597.23,281.87Z" style="fill:#eb996e"></path><path d="M526,254.61c.51.71,22.91,18.44,25.68,19.19s28.37,1.12,28.37,1.12,2,15.75,1.34,16.81c-2.43,3.94-31.67,14.32-45.62.25L526,256.29" style="fill:#FF725E"></path><path d="M554.15,283.41a3.61,3.61,0,0,0,.28-1.38,12.55,12.55,0,0,0-.18-3.4,12.24,12.24,0,0,0-1.09-3.23,4.06,4.06,0,0,0-.77-1.18,29.57,29.57,0,0,1,1.47,4.48A26.66,26.66,0,0,1,554.15,283.41Z" style="fill:#263238"></path><path d="M551.72,284a4.79,4.79,0,0,0,.32-1.5,33.23,33.23,0,0,0,.15-7.37,4.72,4.72,0,0,0-.26-1.51c-.11,0,.06,2.33,0,5.19S551.61,284,551.72,284Z" style="fill:#263238"></path><g style="opacity:0.30000000000000004"><path d="M552.51,274.26a12.57,12.57,0,0,1,3.66,13.37c-.25.72-.67,1.5-1.42,1.64a1.63,1.63,0,0,1-1.66-1,4.86,4.86,0,0,1-.39-2l-.57-12.25"></path></g><polygon points="525.88 257.43 525.29 253.66 530.05 257.86 532.42 266.07 525.88 257.43" style="fill:#263238"></polygon><path d="M520.74,249.76l3.35,1.88,10.76,18.06,0,9.46s2.53,6.62,2.68,11.92,0,24.75,0,24.75l13.6,90.09-11.62,3.76-23-104.91V248.34Z" style="fill:#FF725E"></path><g style="opacity:0.30000000000000004"><path d="M539.47,409.68l9.19-3L535.51,309s2.2-14.33,0-20.6-5.57-15.5-5.57-15.5l3.84,17.5c-.48,13.1.32,28.75,1.73,45.6H532Z"></path></g><path d="M528.58,259.18a2.83,2.83,0,0,0,.27.48c.18.31.49.75.83,1.34a41.1,41.1,0,0,1,2.58,5.18,54.32,54.32,0,0,1,2.6,8.18,89.94,89.94,0,0,1,1.73,10.37c.42,3.72.67,7.27.79,10.51s.1,6.15.08,8.6,0,4.39,0,5.81c0,.65,0,1.18,0,1.58a3.93,3.93,0,0,0,0,.55,2.39,2.39,0,0,0,0-.55c0-.4,0-.92.05-1.58,0-1.41.09-3.39.16-5.8s.09-5.38,0-8.63-.35-6.81-.76-10.53a88.46,88.46,0,0,0-1.77-10.42,52.54,52.54,0,0,0-2.7-8.2,35.92,35.92,0,0,0-2.71-5.15c-.36-.58-.69-1-.89-1.3A2.49,2.49,0,0,0,528.58,259.18Z" style="fill:#263238"></path><g style="opacity:0.30000000000000004"><path d="M542.77,296.62a54.8,54.8,0,0,0-5.83-15.33,81.15,81.15,0,0,0,.63,10.33,4,4,0,0,0,.68,2.08,4.14,4.14,0,0,0,1.24.91l3.52,2"></path></g><path d="M530.63,212.88a5,5,0,0,0-1.15-5.82,8.19,8.19,0,0,0-5.9-2,24.41,24.41,0,0,0-6.24,1.29,6.79,6.79,0,0,0-11.91,2.27,4.32,4.32,0,0,0-5.8,5l9,4.53,8,19.47a8.32,8.32,0,0,0,13.55-9.41,7.14,7.14,0,0,0,1.68-1.61,7.24,7.24,0,0,0,3.91-4A7.68,7.68,0,0,0,530.63,212.88Z" style="fill:#e0e0e0"></path><path d="M519.51,249.9c-.2-3-.35-5.1-.35-5.08s5.85-1.45,6.46-9.28c.31-3.89-.38-10.18-1.11-15.31-.66-4.61-4.19-10.06-8.77-9.21l-14.14,4.79c-1.39.26-1.79,1.49-1.65,2.9l-.06.67,2.42,22.08,1,9.86a8.15,8.15,0,0,0,8.24,7.29h0A8.15,8.15,0,0,0,519.51,249.9Z" style="fill:#ffbe9d"></path><path d="M523,226.32a1,1,0,0,1-.88,1.08,1,1,0,0,1-1.09-.81,1,1,0,0,1,.88-1.08A1,1,0,0,1,523,226.32Z" style="fill:#263238"></path><path d="M523.21,224.4c-.11.14-.91-.36-2-.27s-1.81.68-1.94.56.05-.29.37-.57a2.77,2.77,0,0,1,1.54-.61,2.57,2.57,0,0,1,1.58.38C523.14,224.11,523.27,224.34,523.21,224.4Z" style="fill:#263238"></path><path d="M513.34,227.1a1,1,0,0,1-.87,1.08,1,1,0,0,1-1.09-.82,1,1,0,0,1,.87-1.07A.94.94,0,0,1,513.34,227.1Z" style="fill:#263238"></path><path d="M513,225c-.11.14-.91-.35-2-.27s-1.8.69-1.93.57,0-.3.37-.58a2.72,2.72,0,0,1,3.12-.23C512.93,224.72,513.06,224.94,513,225Z" style="fill:#263238"></path><path d="M517.42,232.25a7.05,7.05,0,0,1,1.71-.45c.27-.05.53-.12.56-.31a1.35,1.35,0,0,0-.25-.79l-1-2a36.78,36.78,0,0,1-2.24-5.29,35.52,35.52,0,0,1,2.66,5.09l.94,2a1.55,1.55,0,0,1,.22,1.06.65.65,0,0,1-.41.43,1.83,1.83,0,0,1-.46.1A7.19,7.19,0,0,1,517.42,232.25Z" style="fill:#263238"></path><path d="M519.16,244.82a19.81,19.81,0,0,1-10.57-1.94s3,5.24,10.72,3.91Z" style="fill:#eb996e"></path><path d="M512.79,222.11c-.11.29-1.18.14-2.43.29s-2.28.48-2.44.21.1-.39.51-.67a4.09,4.09,0,0,1,1.81-.62,4,4,0,0,1,1.9.23C512.6,221.74,512.83,222,512.79,222.11Z" style="fill:#263238"></path><path d="M523,222.31c-.2.26-1.09.08-2.14.15s-1.92.32-2.14.08,0-.37.39-.63a3.54,3.54,0,0,1,3.45-.18C523,222,523.1,222.19,523,222.31Z" style="fill:#263238"></path><path d="M505.52,211.23a5.29,5.29,0,0,0,6.64,4.74c1.16-.3,2.41-1,3.48-.45s1.3,2.2,2.32,2.95c1.45,1.08,3.53-.2,5.3.18,1.37.3,2.3,1.51,3.27,2.52s2.38,1.92,3.69,1.42a15.65,15.65,0,0,0-.81-3.52,5.24,5.24,0,0,0-2.25-2.75c-.58-.32-1.24-.49-1.78-.86-1.18-.81-1.56-2.35-2.34-3.55a5.8,5.8,0,0,0-4.64-2.59c-1.53,0-3.06.54-4.58.28-1.11-.19-2.12-.83-3.25-1-2.19-.24-4.09,1.46-5.53,3.13" style="fill:#e0e0e0"></path><path d="M512.67,213.77c-1-.2-3-.67-3.6-1.47a5.94,5.94,0,0,0-5.38-2.57,4.9,4.9,0,0,0-4.11,4.2,7,7,0,0,0-5.74,4.36,8.13,8.13,0,0,0,.8,7.56,14.25,14.25,0,0,1,.93,1.81,12.29,12.29,0,0,0-1.48,1.72c-2.06,3.33,2.1,5.25,2.1,5.25-.29,2.37,1.9,2.64,3.31,2.82s1.7,4,2.81,4l.38-11.71a1.47,1.47,0,0,0,.5.16c2.64.38,2.59-4.72,1.9-6.12a15.43,15.43,0,0,0,2.4-2.94,11.06,11.06,0,0,0,.79-5.35C509.22,215.49,513.11,213.86,512.67,213.77Z" style="fill:#e0e0e0"></path><path d="M503,230.41a2.26,2.26,0,0,0-3.45-1.66c-.75.51-1.28,1.47-1.07,3.21.55,4.64,5.1,3.13,5.09,3Z" style="fill:#ffbe9d"></path><path d="M502,233.36s-.07.07-.2.15a.83.83,0,0,1-.61.08,2,2,0,0,1-1.13-1.68,2.47,2.47,0,0,1,.09-1.19.94.94,0,0,1,.53-.69.41.41,0,0,1,.5.16c.08.13.06.22.09.23s.09-.09,0-.28a.54.54,0,0,0-.22-.27.59.59,0,0,0-.46-.06,1.13,1.13,0,0,0-.76.82,2.74,2.74,0,0,0-.13,1.32,2.13,2.13,0,0,0,1.42,1.87.89.89,0,0,0,.73-.21C502,233.48,502,233.37,502,233.36Z" style="fill:#eb996e"></path><path d="M527.94,227.23s.45-.26,1.11-.89A6.83,6.83,0,0,0,531,220.4a5.69,5.69,0,0,0-1.28-2.68,6.62,6.62,0,0,0-6.26-2.08c-.22,0-.43.12-.64.18s-.4.16-.59.24l-.3.12,0-.31a2.33,2.33,0,0,0-.38-1.54,3.59,3.59,0,0,0-1.17-1.09,4.77,4.77,0,0,0-3-.6c-2,.19-3.74.86-5.3.84a5,5,0,0,1-3.4-1.15,2.79,2.79,0,0,1-.59-.79,1.27,1.27,0,0,1-.12-.32,4,4,0,0,0,.8,1,5,5,0,0,0,3.31,1,12.78,12.78,0,0,0,2.43-.38,20.19,20.19,0,0,1,2.84-.54,6.16,6.16,0,0,1,1.6,0,5,5,0,0,1,1.58.59,3.85,3.85,0,0,1,1.29,1.19,2.6,2.6,0,0,1,.44,1.79l-.26-.19c.2-.08.41-.18.63-.26s.44-.14.68-.19A6.91,6.91,0,0,1,530,217.5a5.91,5.91,0,0,1,1.33,2.85,6.89,6.89,0,0,1-.13,2.74,6.65,6.65,0,0,1-2,3.35,4.71,4.71,0,0,1-.88.63A2.08,2.08,0,0,1,527.94,227.23Z" style="fill:#fff"></path><path d="M529.05,211.32a5,5,0,0,0-1.38-.69,4,4,0,0,0-1.74-.06,3.46,3.46,0,0,0-1.94,1.06l-.2.22-.07-.29a5.3,5.3,0,0,0-3.85-3.71,6.8,6.8,0,0,0-4.25.66,19.21,19.21,0,0,1-3.46,1.26,5.11,5.11,0,0,1-2.5,0,3.44,3.44,0,0,1-.63-.26c-.13-.08-.2-.13-.19-.14s.3.13.86.26a5.37,5.37,0,0,0,2.4-.08,19.08,19.08,0,0,0,3.39-1.33,11.28,11.28,0,0,1,2.08-.7,5.31,5.31,0,0,1,2.38,0,5.55,5.55,0,0,1,4.08,4l-.27-.07a3.66,3.66,0,0,1,2.13-1.11,3.8,3.8,0,0,1,1.83.15,3.43,3.43,0,0,1,1,.56C529,211.2,529.06,211.31,529.05,211.32Z" style="fill:#fff"></path><path d="M516.76,234.51a1.55,1.55,0,0,0-1.19-.52,1.84,1.84,0,0,0-1.28.71l0,0,0,.06h0a.79.79,0,0,0-.2.51,1.28,1.28,0,0,0,.61,1,1.62,1.62,0,0,0,1.86,0A1.33,1.33,0,0,0,516.76,234.51Z" style="fill:#FF725E"></path><path d="M514,233.64c.06,0,.15.23.38.55a2.51,2.51,0,0,0,2.66,1c.39-.09.62-.21.66-.15s-.15.26-.57.43a2.42,2.42,0,0,1-1.73,0,2.37,2.37,0,0,1-1.27-1.17C513.94,233.93,514,233.65,514,233.64Z" style="fill:#263238"></path><path d="M502.43,245.43l17.35,2.45.77,5.49s8.62,15.08,9.39,19.5,4.61,15.35,3.84,23.6,1.73,39.5,1.73,39.5h-4.42L514,294.36Z" style="fill:#263238"></path><path d="M490.44,446.28,486.09,462s14.81,8.56,14.29,11.55l-31.11-6.19,5.78-24.83Z" style="fill:#FF725E"></path><g style="opacity:0.6000000000000001"><path d="M476.87,458.43a1.3,1.3,0,0,0-1.22,1.23,1.24,1.24,0,0,0,1.21,1.21,1.36,1.36,0,0,0,1.28-1.31,1.3,1.3,0,0,0-1.4-1.12" style="fill:#fff"></path></g><g style="opacity:0.6000000000000001"><path d="M469.27,467.4l.58-2.5,29.83,7a2.2,2.2,0,0,1,.81,1.93Z" style="fill:#fff"></path></g><path d="M486.63,462c-.05.15-.81,0-1.67.35s-1.4.84-1.53.75.31-.91,1.35-1.26S486.69,461.87,486.63,462Z" style="fill:#263238"></path><path d="M489.54,464.11c0,.15-.71.26-1.37.77s-1,1.15-1.12,1.11-.05-.91.79-1.54S489.57,464,489.54,464.11Z" style="fill:#263238"></path><path d="M490.46,468.42c-.15,0-.18-.8.41-1.53s1.36-.9,1.4-.76-.51.48-1,1.09S490.61,468.44,490.46,468.42Z" style="fill:#263238"></path><path d="M487.22,458.3c-.1.12-.74-.25-1.6-.4s-1.6,0-1.64-.18.71-.53,1.73-.35S487.32,458.2,487.22,458.3Z" style="fill:#263238"></path><g style="opacity:0.30000000000000004"><polygon points="489.58 449.4 488.81 452.21 473.67 448.46 474.26 445.9 489.58 449.4"></polygon></g><path d="M488,455.1c0,.07-.63,0-1.54-.37a7.09,7.09,0,0,1-1.5-.88,9.47,9.47,0,0,1-.78-.68,2.23,2.23,0,0,1-.38-.48.68.68,0,0,1,.12-.82.85.85,0,0,1,.75-.18,1.93,1.93,0,0,1,.56.21,6.31,6.31,0,0,1,.88.56,5.43,5.43,0,0,1,1.2,1.28c.56.83.67,1.45.61,1.47s-.31-.52-.91-1.24a6.55,6.55,0,0,0-1.2-1.11,5.89,5.89,0,0,0-.82-.48c-.3-.17-.58-.24-.7-.11s-.05.07,0,.18a1.58,1.58,0,0,0,.28.35,8.68,8.68,0,0,0,.71.66,9.15,9.15,0,0,0,1.35.93A10.75,10.75,0,0,1,488,455.1Z" style="fill:#263238"></path><path d="M487.79,455.27a2.51,2.51,0,0,1-.05-1.59,5.28,5.28,0,0,1,.61-1.64,5.84,5.84,0,0,1,.62-.84,1.32,1.32,0,0,1,1.17-.55.75.75,0,0,1,.55.59,2.05,2.05,0,0,1,0,.6,3.38,3.38,0,0,1-.25,1,3.53,3.53,0,0,1-1,1.44c-.79.66-1.46.69-1.46.63s.56-.25,1.2-.91a3.62,3.62,0,0,0,.84-1.33,3.35,3.35,0,0,0,.18-.9c0-.34,0-.64-.16-.63s-.47.14-.66.38a5,5,0,0,0-.58.74,5.69,5.69,0,0,0-.67,1.47C487.85,454.67,487.88,455.27,487.79,455.27Z" style="fill:#263238"></path><path d="M535.9,445.33l1.93,16.23s16.95,2.32,17.6,5.28l-31.14,6.05-4-25.17Z" style="fill:#FF725E"></path><g style="opacity:0.6000000000000001"><path d="M527.93,461.71a1.31,1.31,0,0,0-.66,1.6,1.25,1.25,0,0,0,1.58.67,1.37,1.37,0,0,0,.69-1.7,1.3,1.3,0,0,0-1.72-.51" style="fill:#fff"></path></g><g style="opacity:0.6000000000000001"><path d="M524.29,472.89l-.41-2.54,30.27-4.79a2.2,2.2,0,0,1,1.48,1.48Z" style="fill:#fff"></path></g><path d="M538.32,461.32c0,.16-.74.35-1.42.95s-1,1.32-1.12,1.28-.06-1,.77-1.68S538.33,461.18,538.32,461.32Z" style="fill:#263238"></path><path d="M541.82,462.17c0,.14-.57.51-1,1.24s-.46,1.43-.61,1.45-.39-.83.15-1.73S541.79,462,541.82,462.17Z" style="fill:#263238"></path><path d="M544.29,465.82c-.13.05-.46-.68-.2-1.58s.93-1.35,1-1.23-.29.64-.49,1.38S544.44,465.78,544.29,465.82Z" style="fill:#263238"></path><path d="M537.47,457.67c-.05.15-.78.05-1.64.24s-1.49.57-1.59.46.47-.77,1.48-1S537.52,457.54,537.47,457.67Z" style="fill:#263238"></path><g style="opacity:0.30000000000000004"><polygon points="536.28 448.54 536.63 451.44 521.2 453.69 520.78 451.1 536.28 448.54"></polygon></g><path d="M537,454.4a2.85,2.85,0,0,1-1.58.24,7.35,7.35,0,0,1-1.72-.25,7,7,0,0,1-1-.34,1.76,1.76,0,0,1-.53-.29.66.66,0,0,1-.2-.8.84.84,0,0,1,.62-.46,2.44,2.44,0,0,1,.6,0,6.71,6.71,0,0,1,1,.18,5.47,5.47,0,0,1,1.59.73c.83.56,1.17,1.09,1.12,1.13s-.49-.36-1.31-.8a6,6,0,0,0-1.53-.57,5.45,5.45,0,0,0-.94-.14c-.35,0-.63,0-.69.16s0,.09.06.18a2,2,0,0,0,.39.21c.31.14.61.25.9.35a8.8,8.8,0,0,0,1.61.34A12,12,0,0,1,537,454.4Z" style="fill:#263238"></path><path d="M536.85,454.66a2.55,2.55,0,0,1-.65-1.46,5.25,5.25,0,0,1-.05-1.75,4.81,4.81,0,0,1,.25-1,1.29,1.29,0,0,1,.88-.95.75.75,0,0,1,.72.33,2,2,0,0,1,.25.55,3.66,3.66,0,0,1,.17,1.06,3.84,3.84,0,0,1-.42,1.73c-.49.9-1.1,1.19-1.12,1.14a11.59,11.59,0,0,0,.77-1.3,3.69,3.69,0,0,0,.27-1.56,3.24,3.24,0,0,0-.17-.9c-.1-.32-.27-.57-.39-.52s-.38.31-.47.6a5.39,5.39,0,0,0-.25.91,5.6,5.6,0,0,0-.06,1.61C536.68,454.07,536.93,454.62,536.85,454.66Z" style="fill:#263238"></path><path d="M512.39,397.27c0,.57,7.13,56.25,7.13,56.25l20.68-3.93-8.33-57.46Z" style="fill:#263238"></path><path d="M487.18,391.31c-.2.55-15.66,63.57-15.66,63.57l19.67,4.54,17.94-67.29Z" style="fill:#263238"></path><path d="M505.72,247.2l-4.05-1.38-7.07,9.66-1.91,31,4.89,16s-13.77,30.43-14,38-6.42,77.88-6.42,77.88l63.72,5.2L529.12,308.52s-1.55-28.21-3.33-32.43S505.72,247.2,505.72,247.2Z" style="fill:#FF725E"></path><path d="M500.24,347.18s.09.06.25.13a4.17,4.17,0,0,0,.78.21,5.49,5.49,0,0,0,2.91-.43,7.7,7.7,0,0,0,3.29-2.86,20.92,20.92,0,0,0,2.26-4.83,30.49,30.49,0,0,0,1.63-9.5,27.46,27.46,0,0,0-.12-2.93,4.94,4.94,0,0,0-.17-1.06,5.47,5.47,0,0,0,0,1.07c0,.69.05,1.68,0,2.91a33.45,33.45,0,0,1-1.73,9.38,21.49,21.49,0,0,1-2.19,4.75,7.52,7.52,0,0,1-3.09,2.81,5.55,5.55,0,0,1-2.78.53C500.62,347.29,500.26,347.15,500.24,347.18Z" style="fill:#263238"></path><path d="M477.17,418.38l.32.05.93.09,3.6.33L495.4,420l45.48,3.77.23,0,0-.23c-.51-5-1-10.18-1.58-15.49-2.26-21.83-4.3-41.59-5.78-55.92-.76-7.14-1.37-12.92-1.8-16.94-.22-2-.39-3.53-.51-4.6-.06-.51-.11-.91-.14-1.2l-.06-.4s0,.14,0,.41.06.68.1,1.2c.1,1.07.25,2.62.44,4.61.39,4,1,9.81,1.67,16.95l5.66,55.93c.54,5.31,1.08,10.49,1.59,15.48l.21-.21-45.49-3.64-13.39-1-3.61-.26-.93-.06Z" style="fill:#263238"></path><path d="M498,250.78s0,.05.17.12l.5.31,2,1.2c.85.52,1.89,1.15,3.08,1.92.6.39,1.24.8,1.86,1.29a1.92,1.92,0,0,1,.38.36c0,.17,0,.41.07.61.05.42.1.86.17,1.3a51.24,51.24,0,0,0,1.17,5.73,28.3,28.3,0,0,0,2.39,6.3c1.16,2.14,3.22,3.69,5.13,5.36a12.72,12.72,0,0,1,2.58,2.85,5.53,5.53,0,0,1,.84,3.73,19.16,19.16,0,0,1-1.11,3.82,13.92,13.92,0,0,0-.77,3.89,18.72,18.72,0,0,0,1.3,7.32,34.4,34.4,0,0,0,3,6c1.09,1.8,2.18,3.43,3.16,4.92,2,3,3.54,5.4,4.56,7.12.51.85.89,1.53,1.15,2l.29.52.11.17a.7.7,0,0,0-.07-.19l-.26-.54c-.23-.47-.6-1.16-1.09-2-1-1.75-2.51-4.2-4.46-7.19-1-1.5-2-3.14-3.11-4.94a34.92,34.92,0,0,1-2.94-6,18.09,18.09,0,0,1-1.26-7.17,13.16,13.16,0,0,1,.76-3.78,20.23,20.23,0,0,0,1.13-3.9,6,6,0,0,0-.9-4,13.34,13.34,0,0,0-2.66-2.93c-1.93-1.69-4-3.19-5.07-5.25a28.32,28.32,0,0,1-2.39-6.2,51.28,51.28,0,0,1-1.21-5.69c-.07-.44-.13-.87-.19-1.29,0-.22,0-.4-.08-.64a1.52,1.52,0,0,0-.47-.5c-.65-.5-1.3-.9-1.9-1.28-1.2-.75-2.26-1.37-3.12-1.87l-2-1.13-.52-.28Z" style="fill:#263238"></path><path d="M499,301.74a6.3,6.3,0,0,0,1.95-.21,14.67,14.67,0,0,0,8-4.87A5.81,5.81,0,0,0,510,295a17.91,17.91,0,0,1-11,6.72Z" style="fill:#263238"></path><path d="M497.73,303.09a5,5,0,0,0,1.5.38,21.8,21.8,0,0,0,3.7.28,21.17,21.17,0,0,0,3.71-.34,5.19,5.19,0,0,0,1.48-.4c0-.12-2.32.33-5.19.34S497.75,303,497.73,303.09Z" style="fill:#263238"></path><path d="M497,253.1s5.27.08,7.1,3.19,5.49,25.71-5.49,45.28c-.5.9-1,.95-1,.95L496,297.24s3-21.79,3.43-24.19,1.16-16.49-.94-16.76a14.64,14.64,0,0,0-1.57-.1,10.82,10.82,0,0,0-6.95,2.46l-1.5,1.22A11.83,11.83,0,0,1,497,253.1Z" style="fill:#263238"></path><g style="opacity:0.30000000000000004"><path d="M500.54,262.8c5.69,10.5,6.11,23.14,4.1,34.91a8.51,8.51,0,0,1-1.44,4,3.13,3.13,0,0,1-3.8,1.05c-.95-.54-1.75-.3-2.11-1.33-1.16-3.26-2.17-7.47-3.32-10.73C496.09,281.29,498.42,272.21,500.54,262.8Z"></path></g><g style="opacity:0.30000000000000004"><path d="M511.09,329a37.72,37.72,0,0,1-2.87,22.77,13.56,13.56,0,0,1-2.91,4.35,6.06,6.06,0,0,1-4.81,1.72,6.23,6.23,0,0,1-4.64-4.26c-.54-1.5-.6-3.35.48-4.52,1.32-1.43,3.59-1.19,5.5-1.55,3.51-.64,6.24-3.58,7.62-6.87s1.62-6.93,1.86-10.49"></path></g><path d="M473.86,294.42c.18-4.76,9.24-23.55,9.24-23.55s4.21-9.35,5.2-11.24c2.15-4.1,8.16-4.53,10.33-3.29L497,279.53l-5,16.9,9.7,18.29-12.08,11.89C473.5,324.6,473.68,299.17,473.86,294.42Z" style="fill:#FF725E"></path><path d="M477.8,297a5.83,5.83,0,0,0,2.2-.32c1.34-.33,3.09-1.11,5.09-1.58a8.58,8.58,0,0,1,2.85-.22,5.93,5.93,0,0,1,2.2.72,6,6,0,0,1,1.59,1.46s0-.22-.26-.55a4,4,0,0,0-1.18-1.15,5.63,5.63,0,0,0-2.3-.84,8.3,8.3,0,0,0-3,.19c-2.07.49-3.78,1.31-5.08,1.7S477.79,296.93,477.8,297Z" style="fill:#263238"></path><path d="M483.45,289.8a9.11,9.11,0,0,0,1.77.31,11.84,11.84,0,0,1,4,1.25,5.46,5.46,0,0,1,2.54,3.2,6.31,6.31,0,0,1,.1,1.75s.1-.16.18-.47a3.33,3.33,0,0,0,0-1.34,5.38,5.38,0,0,0-2.61-3.49,10.55,10.55,0,0,0-4.22-1.18A7,7,0,0,0,483.45,289.8Z" style="fill:#263238"></path><path d="M488.08,326.81a4.82,4.82,0,0,0,.88-.35,20,20,0,0,0,2.29-1.19,27.63,27.63,0,0,0,3.16-2.16,33,33,0,0,0,3.44-3.18,33.38,33.38,0,0,0,2.89-3.69,27.29,27.29,0,0,0,1.89-3.33,21.13,21.13,0,0,0,1-2.38,3.83,3.83,0,0,0,.27-.9c-.07,0-.53,1.24-1.52,3.15a31.25,31.25,0,0,1-1.95,3.25,35.09,35.09,0,0,1-2.88,3.63,36.12,36.12,0,0,1-3.37,3.17,33,33,0,0,1-3.08,2.2C489.27,326.18,488.05,326.74,488.08,326.81Z" style="fill:#263238"></path><path d="M492,296.43a17.14,17.14,0,0,0,1-2.46c.53-1.54,1.23-3.67,1.92-6.06s1.25-4.56,1.61-6.15a16.47,16.47,0,0,0,.49-2.59,18.43,18.43,0,0,0-.76,2.52c-.43,1.57-1,3.73-1.72,6.11s-1.32,4.42-1.81,6.08A18.41,18.41,0,0,0,492,296.43Z" style="fill:#263238"></path><path d="M501.67,314.72c.09-.05-2-4.19-4.67-9.24s-4.93-9.1-5-9.05,2,4.19,4.67,9.24S501.57,314.77,501.67,314.72Z" style="fill:#263238"></path><path d="M508.12,409.36c.11,0-.48-7.4-1.31-16.5s-1.6-16.48-1.71-16.47.48,7.4,1.31,16.51S508,409.37,508.12,409.36Z" style="fill:#263238"></path><path d="M501,412.37a67.76,67.76,0,0,0,1.66-7.14,67,67,0,0,0,1.27-7.22A135,135,0,0,0,501,412.37Z" style="fill:#263238"></path></g><g id="character-2"><polygon points="340.68 358.34 355.88 353.27 354.77 350.44 337.69 355.11 319.39 356.56 317.9 358.52 334.95 359.64 334.95 359.64 338.54 370.42 341.45 369.51 338.9 361.53 340.68 358.34" style="fill:#263238"></polygon><path d="M332,355.39,330.59,360l-12-.93a2.22,2.22,0,0,1-2.09-2.46h0a2.23,2.23,0,0,1,2.33-2Z" style="fill:#455a64"></path><path d="M343.43,353.21l1.3,4.08,12.52-3.4a2.23,2.23,0,0,0,1.51-2.86h0a2.22,2.22,0,0,0-2.7-1.4Z" style="fill:#e0e0e0"></path><path d="M275.33,455.24c0,.1-8.32-3.29-18.49-7.55s-18.39-7.81-18.35-7.9,8.32,3.29,18.49,7.56S275.37,455.15,275.33,455.24Z" style="fill:#263238"></path><path d="M278.31,436.05c0,.1-9.26,1-20.7,2s-20.73,1.72-20.74,1.62,9.26-1,20.7-2S278.3,436,278.31,436.05Z" style="fill:#263238"></path><path d="M262.24,470.64c-.08.06-5.87-6.8-12.92-15.32s-12.71-15.48-12.63-15.55,5.86,6.79,12.92,15.32S262.31,470.57,262.24,470.64Z" style="fill:#263238"></path><path d="M231.86,439.15c.06.09-7.84,5.32-17.63,11.69s-17.77,11.47-17.83,11.38,7.84-5.32,17.63-11.69S231.81,439.07,231.86,439.15Z" style="fill:#263238"></path><path d="M246.83,481a1.81,1.81,0,0,1-.14-.42c-.08-.32-.19-.73-.32-1.22-.28-1.11-.67-2.64-1.15-4.5-1-3.79-2.32-9-3.93-14.78s-3.16-10.94-4.31-14.69l-1.35-4.43-.36-1.21a2,2,0,0,1-.1-.43,2.5,2.5,0,0,1,.17.41l.42,1.18c.36,1,.87,2.54,1.47,4.41,1.21,3.72,2.8,8.9,4.41,14.66s2.94,11,3.84,14.82c.45,1.9.8,3.45,1,4.52.1.51.19.92.25,1.24A1.94,1.94,0,0,1,246.83,481Z" style="fill:#263238"></path><path d="M220,481.62a1.84,1.84,0,0,1,.07-.41c.08-.31.17-.69.28-1.17.25-1,.64-2.47,1.13-4.26,1-3.6,2.41-8.54,4.13-14S229,451.53,230.24,448c.64-1.75,1.16-3.17,1.54-4.14l.45-1.11a2.24,2.24,0,0,1,.17-.38s0,.14-.1.41-.23.67-.38,1.13c-.36,1-.84,2.45-1.44,4.17-1.2,3.53-2.85,8.4-4.57,13.82s-3.19,10.34-4.23,13.92c-.51,1.75-.93,3.18-1.24,4.23-.14.47-.25.85-.35,1.15A1.7,1.7,0,0,1,220,481.62Z" style="fill:#263238"></path><path d="M234.3,484.05c-.1,0-.19-9.4-.19-21s.08-21,.18-21,.19,9.4.19,21S234.4,484.05,234.3,484.05Z" style="fill:#263238"></path><path d="M204.59,473.12a2.58,2.58,0,0,1,.25-.33l.75-.91,2.81-3.33,9.26-11,9.15-11.07,2.77-3.36.76-.9a2.41,2.41,0,0,1,.29-.31,1.69,1.69,0,0,1-.23.35l-.71,1c-.62.82-1.53,2-2.67,3.43-2.28,2.89-5.48,6.84-9.08,11.14S211,466,208.6,468.72c-1.21,1.38-2.21,2.49-2.9,3.25l-.81.87A1.44,1.44,0,0,1,204.59,473.12Z" style="fill:#263238"></path><path d="M233.15,436.47c-.09.06-5-8.06-10.91-18.11s-10.69-18.26-10.6-18.31,5,8.06,10.91,18.12S233.24,436.42,233.15,436.47Z" style="fill:#263238"></path><path d="M190.72,449.62a1.9,1.9,0,0,1,.43-.12l1.23-.27,4.54-1c3.83-.8,9.12-1.93,14.94-3.29s11.06-2.69,14.85-3.67l4.49-1.16,1.23-.31.43-.08a1.59,1.59,0,0,1-.41.15l-1.21.38c-1.05.31-2.57.75-4.46,1.27-3.77,1.05-9,2.42-14.84,3.78s-11.12,2.45-15,3.19c-1.92.37-3.48.65-4.56.83l-1.25.2Z" style="fill:#263238"></path><path d="M191.24,422.74a2.18,2.18,0,0,1,.41.09l1.15.33c1,.29,2.44.74,4.21,1.31,3.55,1.13,8.43,2.78,13.77,4.73s10.13,3.85,13.57,5.27c1.73.71,3.11,1.3,4.07,1.72l1.09.49c.25.12.38.18.37.2l-.4-.13-1.12-.43-4.1-1.61c-3.47-1.36-8.27-3.21-13.61-5.16s-10.19-3.64-13.72-4.83l-4.17-1.42-1.14-.4A1.59,1.59,0,0,1,191.24,422.74Z" style="fill:#263238"></path><path d="M188.19,437c0-.1,9.4.22,21,.72s21,1,21,1.08-9.39-.22-21-.71S188.19,437.07,188.19,437Z" style="fill:#263238"></path><path d="M200.39,407.76a1.57,1.57,0,0,1,.32.26c.23.21.53.47.88.8l3.2,2.95,10.58,9.72L226,431.11l3.24,2.91.87.81a2.16,2.16,0,0,1,.28.29,1.88,1.88,0,0,1-.33-.24l-.92-.75c-.79-.65-1.92-1.62-3.31-2.82-2.79-2.4-6.59-5.77-10.74-9.55s-7.86-7.25-10.51-9.8c-1.32-1.27-2.39-2.31-3.12-3l-.83-.84A1.47,1.47,0,0,1,200.39,407.76Z" style="fill:#263238"></path><path d="M238.66,438.27c0-.09,8.39-4.39,18.85-9.59s19-9.36,19-9.27-8.39,4.39-18.85,9.6S238.7,438.36,238.66,438.27Z" style="fill:#263238"></path><path d="M228.57,395a2.25,2.25,0,0,1,.08.42c0,.32.1.72.17,1.21.14,1.09.32,2.6.55,4.43.43,3.8,1,8.95,1.67,14.65s1.16,10.87,1.57,14.67c.18,1.84.32,3.35.43,4.45,0,.49.07.89.1,1.21a1.9,1.9,0,0,1,0,.42,1.8,1.8,0,0,1-.08-.41c0-.32-.1-.72-.17-1.21-.14-1.09-.32-2.6-.55-4.43-.43-3.8-1-8.95-1.67-14.66s-1.16-10.86-1.57-14.66c-.18-1.84-.33-3.35-.43-4.45,0-.49-.08-.89-.1-1.21A2,2,0,0,1,228.57,395Z" style="fill:#263238"></path><path d="M255.34,397.44s0,.15-.12.41-.24.66-.41,1.12c-.36,1-.91,2.38-1.6,4.11-1.39,3.46-3.37,8.21-5.7,13.4s-4.56,9.83-6.23,13.16c-.83,1.67-1.52,3-2,3.93l-.57,1.06a2,2,0,0,1-.22.36,1.74,1.74,0,0,1,.15-.39l.51-1.09c.47-1,1.11-2.34,1.9-4,1.6-3.36,3.79-8,6.12-13.2s4.35-9.91,5.8-13.35c.7-1.68,1.28-3.06,1.71-4.06l.47-1.1A3.45,3.45,0,0,1,255.34,397.44Z" style="fill:#263238"></path><path d="M241.36,393.39a1.7,1.7,0,0,1,0,.45c0,.29-.07.71-.13,1.26-.14,1.1-.36,2.68-.64,4.64-.58,3.9-1.42,9.29-2.39,15.24s-1.87,11.32-2.55,15.21l-.82,4.6-.24,1.25a1.88,1.88,0,0,1-.11.43,2.43,2.43,0,0,1,0-.44c.05-.33.11-.74.18-1.26.17-1.14.41-2.7.7-4.62.63-3.94,1.49-9.3,2.45-15.23C239.71,403.45,241.05,395.33,241.36,393.39Z" style="fill:#263238"></path><path d="M269.63,407.64a1.83,1.83,0,0,1-.28.3l-.86.83-3.17,3-10.45,9.85-10.36,9.95-3.13,3-.86.81a1.47,1.47,0,0,1-.32.27,1.57,1.57,0,0,1,.26-.32l.82-.86c.71-.74,1.75-1.8,3.05-3.11,2.59-2.6,6.22-6.16,10.29-10s7.79-7.31,10.52-9.78c1.37-1.23,2.48-2.22,3.26-2.89l.9-.77A1.93,1.93,0,0,1,269.63,407.64Z" style="fill:#263238"></path><path d="M234.48,485.24a46.59,46.59,0,1,1,46.59-46.59A46.64,46.64,0,0,1,234.48,485.24Zm0-89a42.37,42.37,0,1,0,42.37,42.37A42.42,42.42,0,0,0,234.48,396.28Z" style="fill:#263238"></path><path d="M284.72,420.06c-.06,0-.3-.34-.72-1l-.74-1.31-.46-.84c-.18-.29-.39-.59-.59-.92l-1.39-2.15c-.53-.77-1.16-1.58-1.8-2.46s-1.43-1.75-2.22-2.7-1.71-1.87-2.67-2.86a58.92,58.92,0,0,0-15.5-11.25,25.56,25.56,0,0,0-2.47-1.19l-2.57-1.12c-1.79-.63-3.58-1.35-5.49-1.83a47.22,47.22,0,0,0-11.95-1.86,49,49,0,0,0-12,1.24,57.16,57.16,0,0,0-10.65,3.77l-2.39,1.21c-.8.38-1.52.86-2.27,1.28-1.51.83-2.86,1.81-4.21,2.68-.68.45-1.29,1-1.92,1.41s-1.25.9-1.82,1.39l-1.69,1.42-.82.68-.76.71c-1,.94-2,1.8-2.84,2.71s-1.72,1.69-2.42,2.53l-2,2.28-1.63,2c-.5.59-.92,1.13-1.28,1.61l-.93,1.19c-.51.63-.8.95-.86.92s.14-.42.56-1.13l.78-1.3c.31-.51.69-1.1,1.15-1.72l1.52-2.11c.58-.75,1.24-1.55,1.94-2.41s1.51-1.73,2.35-2.67,1.8-1.86,2.79-2.85l.76-.74.82-.72,1.68-1.49c.57-.51,1.21-1,1.83-1.46s1.25-1,1.93-1.48c1.36-.93,2.73-2,4.26-2.83.76-.44,1.5-.95,2.31-1.36l2.45-1.27a56.45,56.45,0,0,1,11-4,49.69,49.69,0,0,1,12.49-1.33,47.63,47.63,0,0,1,12.39,2c2,.51,3.82,1.27,5.65,1.93l2.64,1.18a27.09,27.09,0,0,1,2.53,1.26,57.49,57.49,0,0,1,15.66,11.86,37,37,0,0,1,2.63,3c.77,1,1.56,1.9,2.15,2.84s1.22,1.78,1.71,2.59.89,1.59,1.27,2.27c.19.35.37.67.53,1l.39.89c.23.55.43,1,.59,1.4C284.65,419.62,284.78,420,284.72,420.06Z" style="fill:#263238"></path><path d="M381.72,395.82c.1,0-2,8.72-4.66,19.42s-4.92,19.36-5,19.34,2-8.72,4.66-19.43S381.62,395.8,381.72,395.82Z" style="fill:#263238"></path><path d="M362.3,395.79c.1,0,2.38,9,5.11,20.16s4.85,20.23,4.75,20.25-2.38-9-5.11-20.16S362.2,395.81,362.3,395.79Z" style="fill:#263238"></path><path d="M398.92,406.42c.08.07-5.82,6.82-13.17,15.09s-13.37,14.92-13.45,14.85,5.82-6.83,13.17-15.1S398.85,406.35,398.92,406.42Z" style="fill:#263238"></path><path d="M372.42,441.23c.08-.07,6.45,6.93,14.24,15.64s14,15.83,13.95,15.9-6.44-6.94-14.23-15.65S372.35,441.29,372.42,441.23Z" style="fill:#263238"></path><path d="M411.48,420.08a1.91,1.91,0,0,1-.39.2l-1.16.5-4.27,1.81c-3.6,1.53-8.57,3.68-14,6.14s-10.33,4.79-13.86,6.49l-4.17,2-1.15.54a2.1,2.1,0,0,1-.41.17,1.67,1.67,0,0,1,.38-.24l1.11-.6c1-.51,2.38-1.24,4.13-2.12,3.5-1.76,8.37-4.12,13.82-6.58s10.43-4.58,14.06-6c1.82-.73,3.29-1.32,4.32-1.7l1.18-.44A1.4,1.4,0,0,1,411.48,420.08Z" style="fill:#263238"></path><path d="M416.21,446.54a1.35,1.35,0,0,1-.42,0l-1.2-.1c-1-.09-2.53-.25-4.38-.46-3.71-.42-8.81-1.09-14.43-2s-10.68-1.8-14.34-2.53c-1.83-.36-3.3-.67-4.32-.9l-1.17-.27a1.86,1.86,0,0,1-.4-.11s.14,0,.42,0l1.18.2,4.34.78c3.66.66,8.73,1.55,14.35,2.42s10.71,1.58,14.4,2.07l4.37.58,1.19.17A2,2,0,0,1,416.21,446.54Z" style="fill:#263238"></path><path d="M416.43,432c0,.1-9.27,1.61-20.72,3.38s-20.76,3.11-20.77,3,9.25-1.61,20.71-3.38S416.41,431.89,416.43,432Z" style="fill:#263238"></path><path d="M410.14,463a1.64,1.64,0,0,1-.36-.19l-1-.61-3.71-2.27-12.27-7.47-12.33-7.37-3.74-2.23-1-.61a.21.21,0,1,1,0-.07l1,.56c.91.49,2.21,1.21,3.8,2.12,3.2,1.82,7.59,4.38,12.39,7.28s9.12,5.59,12.22,7.57c1.55,1,2.79,1.8,3.65,2.37l1,.67A1.34,1.34,0,0,1,410.14,463Z" style="fill:#263238"></path><path d="M369.58,440.36c.06.08-7.21,6.14-16.25,13.54s-16.42,13.34-16.48,13.26,7.21-6.14,16.25-13.54S369.51,440.28,369.58,440.36Z" style="fill:#263238"></path><path d="M389,480.3a3,3,0,0,1-.18-.41l-.46-1.17-1.62-4.35c-1.38-3.66-3.3-8.72-5.53-14.26s-4.34-10.53-5.88-14.13l-1.83-4.26c-.2-.47-.37-.86-.49-1.16a2,2,0,0,1-.15-.42,2.23,2.23,0,0,1,.22.39c.14.29.32.67.55,1.13.47,1,1.13,2.43,1.94,4.22,1.61,3.57,3.75,8.54,6,14.09s4.12,10.62,5.43,14.31c.66,1.85,1.18,3.35,1.52,4.39l.39,1.2A2.27,2.27,0,0,1,389,480.3Z" style="fill:#263238"></path><path d="M362.37,483.87a2.11,2.11,0,0,1,0-.41c0-.32.09-.71.15-1.2.14-1,.36-2.52.66-4.36.58-3.68,1.46-8.75,2.58-14.33s2.26-10.59,3.14-14.21c.45-1.81.82-3.27,1.09-4.28.13-.47.23-.85.32-1.16a1.49,1.49,0,0,1,.13-.39,2.13,2.13,0,0,1-.06.41c-.07.31-.15.7-.25,1.17l-1,4.31c-.82,3.63-1.92,8.65-3,14.23s-2,10.63-2.69,14.29c-.31,1.8-.57,3.27-.76,4.35-.09.48-.17.87-.22,1.18S362.39,483.88,362.37,483.87Z" style="fill:#263238"></path><path d="M376.9,484.72c-.1,0-1.21-9.32-2.48-20.84S372.21,443,372.31,443s1.21,9.32,2.48,20.85S377,484.71,376.9,484.72Z" style="fill:#263238"></path><path d="M346.18,477.1a2,2,0,0,1,.21-.36l.65-1c.6-.89,1.43-2.11,2.43-3.61l8-11.93,7.89-12,2.39-3.64.66-1a1.3,1.3,0,0,1,.25-.33,2.91,2.91,0,0,1-.19.37q-.24.39-.6,1c-.53.88-1.31,2.15-2.29,3.7-1.95,3.12-4.7,7.39-7.8,12.07s-6,8.86-8.09,11.87c-1.06,1.51-1.93,2.72-2.53,3.55l-.71,1A1.79,1.79,0,0,1,346.18,477.1Z" style="fill:#263238"></path><path d="M370.52,434.64c-.08.06-5.62-7.63-12.35-17.17S346,400.15,346.12,400.09s5.61,7.63,12.35,17.17S370.6,434.58,370.52,434.64Z" style="fill:#263238"></path><path d="M329.3,451.19a1.93,1.93,0,0,1,.4-.15l1.16-.35,4.3-1.21,14.23-3.88,14.26-3.78,4.33-1.11,1.18-.28a1.87,1.87,0,0,1,.42-.07,2.34,2.34,0,0,1-.4.14l-1.17.35-4.3,1.22L349.49,446l-14.26,3.78-4.33,1.1-1.18.29A1.87,1.87,0,0,1,329.3,451.19Z" style="fill:#263238"></path><path d="M327.63,424.36s.14,0,.41.05l1.18.24c1,.21,2.49.54,4.31,1,3.63.84,8.62,2.09,14.1,3.6s10.41,3,14,4.15c1.77.57,3.2,1,4.19,1.38l1.13.41a1.85,1.85,0,0,1,.39.16,1.88,1.88,0,0,1-.41-.09l-1.16-.34-4.22-1.27c-3.56-1.08-8.5-2.53-14-4.05s-10.45-2.79-14.07-3.69l-4.27-1.08-1.16-.3A2.18,2.18,0,0,1,327.63,424.36Z" style="fill:#263238"></path><path d="M325.75,438.79a2.59,2.59,0,0,1,.44-.06c.29,0,.72,0,1.27-.06,1.11,0,2.7-.06,4.68-.08,3.95,0,9.4,0,15.42.05s11.48.13,15.43.2l4.67.11,1.27.05a1.66,1.66,0,0,1,.45.05l-.45,0-1.27,0H363L347.56,439Z" style="fill:#263238"></path><path d="M335.53,408.69a1.69,1.69,0,0,1,.35.23l.94.72,3.43,2.68,11.33,8.83,11.4,8.73,3.47,2.64c.38.29.69.53.93.73a1.79,1.79,0,0,1,.31.27,1.47,1.47,0,0,1-.35-.21l-1-.68c-.84-.59-2.05-1.46-3.53-2.54-3-2.17-7-5.22-11.48-8.65s-8.42-6.59-11.27-8.91c-1.42-1.16-2.57-2.11-3.35-2.78l-.9-.77A2.7,2.7,0,0,1,335.53,408.69Z" style="fill:#263238"></path><path d="M370.33,485.24a46.59,46.59,0,1,1,46.59-46.59A46.64,46.64,0,0,1,370.33,485.24Zm0-89a42.37,42.37,0,1,0,42.37,42.37A42.42,42.42,0,0,0,370.33,396.28Z" style="fill:#263238"></path><path d="M417.64,420.08c-.06,0-.28-.33-.64-1l-.64-1.29c-.13-.25-.26-.53-.4-.82s-.34-.58-.52-.9l-1.21-2.12c-.47-.76-1-1.55-1.6-2.41s-1.29-1.73-2-2.66A35.58,35.58,0,0,0,408.2,406l-.66-.73c-.23-.24-.49-.47-.73-.71l-1.51-1.44c-.5-.51-1.09-.94-1.65-1.42s-1.14-1-1.75-1.43L400,399c-.32-.23-.64-.47-1-.69l-1-.64c-.7-.42-1.4-.87-2.12-1.29l-2.26-1.18a50.1,50.1,0,0,0-21.48-5.38,51.35,51.35,0,0,0-11.48,1.13,48.63,48.63,0,0,0-10.13,3.56l-2.27,1.16-2.12,1.27c-.35.21-.71.41-1,.63l-1,.68c-.65.46-1.3.89-1.91,1.35-1.19,1-2.4,1.83-3.44,2.81l-1.56,1.4c-.51.46-1,.95-1.43,1.41a85.47,85.47,0,0,0-8.1,9.43c-1.74,2.37-2.7,3.7-2.82,3.63a20.72,20.72,0,0,1,2.23-4,68.82,68.82,0,0,1,7.75-9.94c.46-.48.92-1,1.42-1.48l1.56-1.47c1-1,2.26-1.94,3.46-3,.61-.48,1.28-.94,1.93-1.42l1-.72c.34-.24.7-.45,1.06-.68.71-.44,1.43-.9,2.18-1.34l2.33-1.23a47.83,47.83,0,0,1,10.48-3.8,51.65,51.65,0,0,1,11.91-1.22,50.66,50.66,0,0,1,22.23,5.71l2.31,1.25c.74.45,1.45.92,2.16,1.37l1.06.68c.34.23.66.49,1,.73l1.93,1.44c.61.5,1.18,1,1.76,1.51s1.16,1,1.66,1.51l1.51,1.53c.25.25.5.49.73.74l.66.78a35.76,35.76,0,0,1,2.39,3,32.25,32.25,0,0,1,1.93,2.81c.54.91,1.07,1.74,1.51,2.54s.76,1.56,1.09,2.23c.15.34.32.65.44,1l.33.87c.19.53.35,1,.49,1.36C417.6,419.66,417.7,420.05,417.64,420.08Z" style="fill:#263238"></path><polygon points="343.65 374.78 354.48 372.98 355.88 376.95 343.65 378.58 343.65 374.78" style="fill:#263238"></polygon><polygon points="387.85 366.3 383.64 386.17 359.15 386.17 352.25 366.69 387.85 366.3" style="fill:#263238"></polygon><path d="M385.1,372.16c0,.1-6.82.24-15.23.31s-15.23,0-15.24-.05,6.82-.25,15.23-.32S385.1,372.05,385.1,372.16Z" style="fill:#455a64"></path><path d="M384.13,381.51c0,.11-6,.24-13.36.3s-13.37,0-13.37-.07,6-.23,13.36-.3S384.13,381.41,384.13,381.51Z" style="fill:#455a64"></path><path d="M384.65,376.47c0,.11-6.56.25-14.65.31s-14.65.05-14.65,0,6.55-.25,14.65-.31S384.65,376.37,384.65,376.47Z" style="fill:#455a64"></path><path d="M363.25,386c-.1,0-1.16-4.15-2.37-9.33s-2.1-9.4-2-9.43,1.16,4.16,2.36,9.34S363.35,385.94,363.25,386Z" style="fill:#455a64"></path><path d="M367.4,385.68c-.1,0-.47-4.17-.83-9.32S366,367,366.12,367s.47,4.16.82,9.32S367.5,385.67,367.4,385.68Z" style="fill:#455a64"></path><path d="M373.51,385.68c-.1,0,.09-4.18.44-9.31s.7-9.29.8-9.29-.09,4.18-.44,9.31S373.61,385.68,373.51,385.68Z" style="fill:#455a64"></path><path d="M378.81,386.2a2.6,2.6,0,0,1,0-.78c0-.49.12-1.21.23-2.09.23-1.76.6-4.19,1.09-6.85s1-5.06,1.47-6.78c.21-.86.4-1.56.54-2a3.22,3.22,0,0,1,.25-.74,3.83,3.83,0,0,1-.11.77l-.43,2.06c-.36,1.73-.85,4.13-1.35,6.79s-.91,5.07-1.2,6.82c-.14.81-.25,1.5-.35,2.07A4.06,4.06,0,0,1,378.81,386.2Z" style="fill:#455a64"></path><path d="M239.7,432.74A6,6,0,0,1,238,433c-1.12.14-2.8.26-4.87.66a6.54,6.54,0,0,0-1.54.48,6.18,6.18,0,0,0-1.46,1,5.25,5.25,0,0,0-1.81,3.35,5,5,0,0,0,1.46,4,15.06,15.06,0,0,0,4.56,2.57,119.27,119.27,0,0,0,11.81,4.12L260,453c4.89,1.34,10,2.64,15.45,3.8,2.7.57,5.47,1.19,8.23,1.65a24.29,24.29,0,0,0,4.15.34,24,24,0,0,0,4.18-.47,8.9,8.9,0,0,0,3.76-1.31,9,9,0,0,0,2.67-2.83,12.21,12.21,0,0,0,1.49-3.65,11.58,11.58,0,0,0,.29-1.92,16.34,16.34,0,0,0,0-2,10.43,10.43,0,0,0-2.8-6.81,12.29,12.29,0,0,0-1.38-1.22c-.52-.35-1-.74-1.56-1a17.87,17.87,0,0,0-3.33-1.6,28,28,0,0,0-7.05-1.5c-2.36-.23-4.69-.3-6.95-.38-4.53-.16-8.74-.35-12.59-.53-7.69-.36-13.9-.55-18.2-.61s-6.69-.07-6.69-.21a6.63,6.63,0,0,1,1.72-.24c1.13-.09,2.81-.19,5-.27,4.31-.16,10.56-.17,18.26,0l12.58.3c2.26,0,4.62.08,7.06.29a29.27,29.27,0,0,1,7.48,1.52,19.13,19.13,0,0,1,3.64,1.71c.6.33,1.14.74,1.71,1.13a13.23,13.23,0,0,1,1.61,1.4,11.54,11.54,0,0,1,2.38,3.63,13.56,13.56,0,0,1,1,4.28,17.94,17.94,0,0,1,0,2.2,12.89,12.89,0,0,1-.32,2.23,14.08,14.08,0,0,1-1.71,4.21,10.94,10.94,0,0,1-3.21,3.4,9.91,9.91,0,0,1-1.05.61,11.07,11.07,0,0,1-1.13.45,21.31,21.31,0,0,1-2.25.53,26.16,26.16,0,0,1-4.51.5,27.08,27.08,0,0,1-4.45-.38c-2.88-.48-5.61-1.11-8.33-1.69-5.43-1.19-10.63-2.54-15.53-3.93l-7.15-2.06c-2.32-.68-4.56-1.29-6.75-2a113.48,113.48,0,0,1-11.88-4.39,15.93,15.93,0,0,1-4.87-2.94,6,6,0,0,1-1.65-5,6.19,6.19,0,0,1,2.26-3.91,7.17,7.17,0,0,1,1.7-1A7.38,7.38,0,0,1,233,433a38,38,0,0,1,5-.32A6.37,6.37,0,0,1,239.7,432.74Z" style="fill:#263238"></path><polygon points="301.32 445.51 368.05 438.37 368.85 443.97 301.32 450.69 301.32 445.51" style="fill:#e0e0e0"></polygon><polygon points="366.86 436.07 344.3 384.61 298.91 440.99 294.86 436.94 341.81 380.48 340.67 378.17 273.18 392.41 271.73 387.21 339.1 374.2 337.65 369.86 342.28 368.41 370.33 433.47 366.86 436.07" style="fill:#e0e0e0"></polygon><polygon points="236.69 440.99 278.7 447.75 278.93 443.22 237.97 437 236.69 440.99" style="fill:#e0e0e0"></polygon><polygon points="234.53 435.49 265.95 393.28 271.73 395.88 238.46 438.39 234.53 435.49" style="fill:#e0e0e0"></polygon><polygon points="271.73 387.21 268.6 376.45 262.4 376.45 265.95 393.28 271.73 395.88 273.18 392.41 271.73 387.21" style="fill:#e0e0e0"></polygon><path d="M253.75,376.27c.49,1.49,2.65,7.79,5.82,8s25.07-3.17,28.36-4c2.09-.53,3.3-4-1.68-4C279.1,376.27,252.66,372.93,253.75,376.27Z" style="fill:#263238"></path><circle cx="234.53" cy="438.83" r="5.61" style="fill:#263238"></circle><circle cx="370.3" cy="438.83" r="5.61" style="fill:#263238"></circle><path d="M302.49,447.87a12.81,12.81,0,1,1-12.81-12.81A12.8,12.8,0,0,1,302.49,447.87Z" style="fill:#FF725E"></path><rect x="283.68" y="468.51" width="15.38" height="3.08" transform="translate(78.43 -40.34) rotate(9.15)" style="fill:#263238"></rect><rect x="294.78" y="444.07" width="15.38" height="3.08" transform="matrix(0.99, 0.16, -0.16, 0.99, 74.69, -42.42)" style="fill:#263238"></rect><path d="M303.33,447.31c.06.5-2.92,1.22-6.65,1.6s-6.78.27-6.83-.24,2.92-1.22,6.65-1.6S303.28,446.8,303.33,447.31Z" style="fill:#263238"></path><path d="M289.42,460.24c.51,0,.81,2.49.68,5.53s-.66,5.46-1.17,5.44-.81-2.5-.68-5.53S288.91,460.21,289.42,460.24Z" style="fill:#263238"></path><polygon points="285.13 462.81 286.03 484.09 297.52 483.83 296.66 462.51 285.13 462.81" style="fill:#FF725E"></polygon><path d="M291.67,483.16c.1,0-.08-4.67-.4-10.41s-.65-10.39-.74-10.38.08,4.66.4,10.4S291.58,483.16,291.67,483.16Z" style="fill:#263238"></path><polygon points="285.97 482.62 297.46 482.33 297.52 483.83 286.03 484.09 285.97 482.62" style="fill:#263238"></polygon><path d="M297.24,477s-.08-.18-.31-.45a7.28,7.28,0,0,0-1.08-1.05,7.72,7.72,0,0,0-1.91-1.16,6,6,0,0,0-2.7-.49,6.08,6.08,0,0,0-4.39,2.15,5.55,5.55,0,0,0-.78,1.29,1.57,1.57,0,0,0-.16.53,12.56,12.56,0,0,1,1.13-1.66,6.17,6.17,0,0,1,4.22-2,7.05,7.05,0,0,1,4.44,1.5C296.7,476.45,297.2,477.06,297.24,477Z" style="fill:#263238"></path><g style="opacity:0.30000000000000004"><polygon points="285.26 466.1 285.42 468 296.94 468 296.87 466.1 285.26 466.1"></polygon></g><polygon points="318.95 462.58 319.85 483.86 331.34 483.6 330.48 462.28 318.95 462.58" style="fill:#FF725E"></polygon><path d="M325.49,482.93c.1,0-.08-4.67-.39-10.41s-.65-10.39-.75-10.38.08,4.66.4,10.4S325.4,482.93,325.49,482.93Z" style="fill:#263238"></path><polygon points="319.79 482.39 331.28 482.1 331.34 483.6 319.85 483.86 319.79 482.39" style="fill:#263238"></polygon><path d="M331.07,476.79a1.58,1.58,0,0,0-.32-.45,7.12,7.12,0,0,0-1.07-1,7.91,7.91,0,0,0-1.91-1.16,6.14,6.14,0,0,0-7.09,1.66,4.92,4.92,0,0,0-.78,1.29,1.32,1.32,0,0,0-.16.53,10.78,10.78,0,0,1,1.12-1.66,6.19,6.19,0,0,1,4.22-2,7.11,7.11,0,0,1,4.45,1.5C330.52,476.22,331,476.83,331.07,476.79Z" style="fill:#263238"></path><g style="opacity:0.30000000000000004"><polygon points="319.08 465.87 319.25 467.76 330.77 467.76 330.69 465.87 319.08 465.87"></polygon></g><path d="M306.11,377.66l12.77,88.44,13.21-.23s.67-38.63.58-44-.61-13.58-.61-13.58,1.77-27.9,1.77-30.64S306.11,377.66,306.11,377.66Z" style="fill:#263238"></path><path d="M278.53,383.45s2.74,38.31,2.24,40.55-.63,18.93.06,25.41,1.93,16.94,2.68,16.69,15.2,0,15.2,0-2.25-37.05,0-41.32,4.21-7.51,4.21-7.51l3.19-34.57Z" style="fill:#263238"></path><path d="M287.19,271.87s-8.65,3.8-11.74,7.51-13,32.43-12,41.07,9.88,13,14.82,11.74c0,0-1.6,14.2-3,17.91,0,0-2.91,6.8-3.52,12s3.52,21.3,3.52,21.3L335.08,382h0a54.26,54.26,0,0,0,.4-14.95l-3.82-34.23s8.65-2.57,10.19-5.15,0-33.15-1.23-37.16S331,274.75,328,274.44s-13-5.56-13-5.56Z" style="fill:#FF725E"></path><path d="M282.08,326c-.14,0-1.25-8.33-2.48-18.64s-2.11-18.7-2-18.71,1.26,8.33,2.49,18.64S282.23,326,282.08,326Z" style="fill:#263238"></path><path d="M281.87,325a2.44,2.44,0,0,1,.12,1.29,7.42,7.42,0,0,1-.89,3,7.5,7.5,0,0,1-2,2.4c-.65.48-1.12.66-1.15.61a10.55,10.55,0,0,0,3.95-7.32Z" style="fill:#263238"></path><path d="M282.09,323.9c-.15.07-.86-1.5-2.35-2.94a37.13,37.13,0,0,0-3-2.29,7.63,7.63,0,0,1,5.33,5.23Z" style="fill:#263238"></path><path d="M335.79,374.82a3.11,3.11,0,0,1-.59.27l-1.7.66-1.24.46-1.5.46c-1.08.34-2.31.72-3.7,1l-2.16.54-2.38.47c-1.63.36-3.41.57-5.26.87-3.73.47-7.85.81-12.19.93s-8.47,0-12.22-.27-7.11-.61-9.92-1c-1.41-.18-2.68-.39-3.79-.57s-2.07-.35-2.85-.51l-1.79-.37a4.17,4.17,0,0,1-.62-.16,2.54,2.54,0,0,1,.64.06l1.81.27c.78.13,1.74.27,2.85.42s2.39.34,3.8.5c2.81.36,6.17.64,9.9.9s7.86.32,12.18.23,8.42-.44,12.14-.89c1.85-.28,3.62-.47,5.25-.81l2.36-.45,2.17-.5c1.38-.29,2.61-.65,3.69-1l1.51-.42,1.25-.42,1.74-.56A3.33,3.33,0,0,1,335.79,374.82Z" style="fill:#263238"></path><path d="M329.66,287.61a11,11,0,0,1-.07,1.79c-.1,1.24-.23,2.88-.39,4.88-.3,4.11-1.08,9.78-.73,16.07,0,3.14.17,6.14.24,8.87a61.18,61.18,0,0,0,.45,7.21,16,16,0,0,0,1.34,4.64c.49,1,.88,1.54.84,1.57s-.12-.11-.31-.35a9.62,9.62,0,0,1-.72-1.13,15,15,0,0,1-1.52-4.67,54.76,54.76,0,0,1-.56-7.25c-.1-2.73-.26-5.72-.28-8.88-.36-6.32.49-12,.89-16.12.22-2,.41-3.63.55-4.86A12.33,12.33,0,0,1,329.66,287.61Z" style="fill:#263238"></path><g style="opacity:0.30000000000000004"><path d="M287.28,270.52c.33,2.27,2.37,3.86,4.32,5.09,2.56,1.63,5.41,3.12,8.45,3.06a17.93,17.93,0,0,0,6.36-1.72c3.8-1.56,7.95-3.46,9.57-7.23-2.15-1.19-4.74-1.19-7.2-1.15q-10.71.18-21.41.86"></path></g><path d="M333.87,248.87a19,19,0,0,0-5.29-6.81l2.67,1.19c1.2-1.07.2-3-.82-4.25q-3-3.65-6.07-7.3a14.82,14.82,0,0,0-3.31-3.21c-1.48-.94-3.49-1.61-3.83-3.32a2.76,2.76,0,0,0-.23-1c-.31-.52-1-.58-1.64-.56a32,32,0,0,0-9.3,1.69l-.37.14a2.26,2.26,0,0,0-1-2.41A2.9,2.9,0,0,1,302,224c-1-.12-1.91-.51-2.88-.67a6.66,6.66,0,0,0-6.33,2.56l-5.56,3.76a30.27,30.27,0,0,0-5.33,4.22,3.58,3.58,0,0,1-1.12.94c-.48.21-1,.17-1.52.34a2.64,2.64,0,0,0-1.59,2.57,7.78,7.78,0,0,0,.89,3.09L276,244.34a2.63,2.63,0,0,0-.5.93c-.17.75.34,1.55.1,2.28l2.41,3.17a10.19,10.19,0,0,0-1.43,3.3,5.32,5.32,0,0,0,4.15,5.93c-1,.67-.93,2.15-.43,3.22a20.65,20.65,0,0,1,1.62,3.13c.18.66.18,1.37.39,2,.68,2.07,3.18,2.81,5.32,3.24a63.46,63.46,0,0,0,12,1.6,27.65,27.65,0,0,0,8-1.07c3.19-.93,6.29-2.53,9.61-2.41a3.56,3.56,0,0,0,1.53-.12,1,1,0,0,0,.64-1.23,1.73,1.73,0,0,0,2.42-1.25,2.83,2.83,0,0,0,1.61-.2,1,1,0,0,0,.35-1.39c1.72-.32,3.07-1.6,4.31-2.82.9-.89,1.79-2.44.81-3.23,1.3-1.37,2.55-2.8,3.73-4.28a2.37,2.37,0,0,0,.65-1.24c.15-1.84-3.24-1.82-3.85-3.56a15.89,15.89,0,0,0,2.74,1.36,2.13,2.13,0,0,0,1.35.16C334.52,251.51,334.35,249.91,333.87,248.87Z" style="fill:#263238"></path><path d="M288.58,249.51s-.12-.1-.29-.35a3.9,3.9,0,0,1-.48-1.21,4.6,4.6,0,0,1,0-2.06,4.35,4.35,0,0,1,1.41-2.34l0,.33a2.93,2.93,0,0,1-1.36-2.19,4.21,4.21,0,0,1,.72-2.78,7.26,7.26,0,0,1,.95-1.2c.35-.37.58-.68.38-1.1a3.54,3.54,0,0,1,0-3.3,3.41,3.41,0,0,1,4.06-1.51l-.33.18a4.68,4.68,0,0,1,4.08-3.47,7.07,7.07,0,0,0,1.12,0c.25-.08.34-.44.44-.79a2.23,2.23,0,0,1,1.46-1.47,3.14,3.14,0,0,1,1.67-.11,5.22,5.22,0,0,1,1.18.35,4.1,4.1,0,0,1,.92.45,4.72,4.72,0,0,1-1-.29,4.07,4.07,0,0,0-2.68-.1,1.9,1.9,0,0,0-1.2,1.28,5.44,5.44,0,0,1-.17.54.93.93,0,0,1-.48.52,1.45,1.45,0,0,1-.67.08,5.43,5.43,0,0,0-.57,0,4.28,4.28,0,0,0-3.63,3.15l-.06.28-.27-.1a2.92,2.92,0,0,0-3.43,1.29,3,3,0,0,0,0,2.87,1.21,1.21,0,0,1,0,.95,2.4,2.4,0,0,1-.5.68,7.68,7.68,0,0,0-.9,1.11,3.78,3.78,0,0,0-.68,2.47,2.52,2.52,0,0,0,1.11,1.89l.25.15-.22.18a4.05,4.05,0,0,0-1.36,2.11,4.55,4.55,0,0,0-.11,1.94A6.72,6.72,0,0,0,288.58,249.51Z" style="fill:#455a64"></path><path d="M318.25,235.29a3.26,3.26,0,0,0-.48-1.8,2.83,2.83,0,0,0-1.64-1.16,3.89,3.89,0,0,0-2.53.23l-.3.13-.05-.32a4.65,4.65,0,0,0-.65-1.94,1.34,1.34,0,0,0-1.63-.5l-.65.42.28-.73a2.31,2.31,0,0,0-.44-2.31,2.17,2.17,0,0,0-1.78-.73,3.17,3.17,0,0,0-1.71.71s.06-.19.32-.43a2.47,2.47,0,0,1,1.36-.6,2.5,2.5,0,0,1,2.13.75,2.76,2.76,0,0,1,.59,2.8l-.37-.31a1.81,1.81,0,0,1,2.32.62,5,5,0,0,1,.73,2.17l-.35-.19a4.2,4.2,0,0,1,2.86-.19,3,3,0,0,1,1.78,1.41,2.62,2.62,0,0,1,.36,1.46C318.37,235.13,318.28,235.3,318.25,235.29Z" style="fill:#455a64"></path><path d="M303.37,246.34s-.32,0-.69-.4a2,2,0,0,1-.41-2.13,2.57,2.57,0,0,0,.25-.6.8.8,0,0,0-.23-.55,3.18,3.18,0,0,1-.79-1.6,3.46,3.46,0,0,1,1.64-3.61l-.08.39c-.1-.15-.23-.3-.32-.46a5.13,5.13,0,0,1-.44-4.17,5,5,0,0,1,.39-.88,8,8,0,0,0,.44-.7c.08-.17,0-.41-.06-.7a2.18,2.18,0,0,1,0-.81,2.58,2.58,0,0,1,1.46-1.79,1.19,1.19,0,0,1,.83-.13c0,.05-.3.05-.74.31a2.47,2.47,0,0,0-1.19,1.68,1.73,1.73,0,0,0,0,.68,1.76,1.76,0,0,1,.07.9,7.41,7.41,0,0,1-.45.78,4.44,4.44,0,0,0-.33.81,4.69,4.69,0,0,0,.43,3.75,4.21,4.21,0,0,0,.28.41l.17.25-.26.14A3,3,0,0,0,302,241a2.93,2.93,0,0,0,.67,1.42,1.15,1.15,0,0,1,.28.86,2.48,2.48,0,0,1-.32.69,1.84,1.84,0,0,0,.24,1.86C303.12,246.2,303.39,246.3,303.37,246.34Z" style="fill:#455a64"></path><path d="M278.28,297.88a22.4,22.4,0,0,1-4.66-1.1,23.12,23.12,0,0,1-4.51-1.6,43.89,43.89,0,0,1,9.17,2.7Z" style="fill:#fafafa"></path><path d="M328.91,295.11a2,2,0,0,1-.51.07l-1.48.13c-1.28.09-3.13.2-5.42.3-4.58.21-10.91.37-17.91.32s-13.33-.33-17.91-.61c-2.29-.14-4.14-.28-5.41-.39l-1.47-.15a2.68,2.68,0,0,1-.51-.08,1.56,1.56,0,0,1,.51,0l1.48,0,5.42.23c4.58.19,10.9.4,17.89.46s13.32-.05,17.9-.17l5.42-.14,1.48,0A1.76,1.76,0,0,1,328.91,295.11Z" style="fill:#fafafa"></path><path d="M341.45,297.67a41.32,41.32,0,0,1-12.75,1.76c0-.15,2.86-.41,6.37-.9S341.42,297.52,341.45,297.67Z" style="fill:#fafafa"></path><path d="M342.24,318.8a7.54,7.54,0,0,1-1.91.75c-1.2.39-2.88.87-4.76,1.3s-3.59.74-4.84.92a7.83,7.83,0,0,1-2.05.16c0-.15,3-.72,6.78-1.59S342.19,318.66,342.24,318.8Z" style="fill:#fafafa"></path><path d="M281.27,322.21a9.26,9.26,0,0,1-2.74.12,21.23,21.23,0,0,1-6.47-1.36c-2.43-.9-4.64-1.58-6.22-2.15a14.06,14.06,0,0,1-2.55-1,14.65,14.65,0,0,1,2.65.65c1.62.48,3.88,1.11,6.28,2a25.22,25.22,0,0,0,6.34,1.48C280.22,322.14,281.26,322.12,281.27,322.21Z" style="fill:#fafafa"></path><path d="M332.28,337.32a2.76,2.76,0,0,1-.54.15l-1.57.35c-1.36.27-3.35.62-5.83.93a132.93,132.93,0,0,1-19.44.74c-3.8-.11-7.42-.3-10.7-.51s-6.25-.37-8.73-.7a28.18,28.18,0,0,1-5.76-1.31,14,14,0,0,1-1.49-.61,1.93,1.93,0,0,1-.49-.27s.72.28,2,.69a30.48,30.48,0,0,0,5.75,1.13c2.46.28,5.42.4,8.71.59s6.89.36,10.68.47a149.69,149.69,0,0,0,19.39-.59c2.47-.26,4.46-.55,5.84-.76l1.58-.25A2.14,2.14,0,0,1,332.28,337.32Z" style="fill:#fafafa"></path><path d="M334.92,364.16a3.47,3.47,0,0,1-.63.19c-.42.11-1,.26-1.84.43a65.19,65.19,0,0,1-6.85,1c-5.82.6-13.9.68-22.81.75A119.77,119.77,0,0,1,280,364.8a68,68,0,0,1-6.73-1.63l-1.78-.6a2.57,2.57,0,0,1-.61-.24l.64.14,1.81.5c1.58.39,3.86,1,6.74,1.47A129.66,129.66,0,0,0,302.79,366c8.9-.07,17-.09,22.78-.59,2.9-.24,5.24-.59,6.84-.85l1.85-.33A2.69,2.69,0,0,1,334.92,364.16Z" style="fill:#fafafa"></path><g style="opacity:0.30000000000000004"><path d="M281.18,275.59c-2.39,6.21-1.19,12.64,1.66,18.66s6.34,12.09,6.34,18.75c0,8.22-5.33,15.47-6.94,23.54-.94,4.75-.56,9.66-.18,14.49.5,6.39,1.08,13,4.33,18.56a21.29,21.29,0,0,0,37.86-2.18c3.41-7.74,1.95-16.67-.08-24.88a113.17,113.17,0,0,0-4-13.15,58.38,58.38,0,0,1-2.88-8.28c-1.48-6.72.37-13.75,3-20.12s6-12.48,7.75-19.14c.51-1.92.75-5.82-.47-7.38-3.34.39-5.09,5.66-6.32,8.79q-6.06,15.48-11.9,31.06a14.22,14.22,0,0,1-2.87,5.23c-1.42,1.41-3.73,2.15-5.48,1.16a6.81,6.81,0,0,1-2.36-2.78c-7.63-13.21-11.56-28.27-17.45-42.33"></path></g><path d="M306.21,315.68s-9.64.18-12.68,3.75-8.75,10.18-8.21,16.25-3,33.58,2.32,36.62,37.51,1.07,39.47-1.25-2.5-44.15-9.11-49.76S306.21,315.68,306.21,315.68Z" style="fill:#455a64"></path><path d="M321.64,372.36a1,1,0,0,1,0-.3v-.86c0-.8,0-1.92,0-3.33,0-2.9.13-7.08,0-12.25-.06-2.58-.19-5.4-.44-8.43a70,70,0,0,0-1.35-9.57A17.94,17.94,0,0,0,315,328.4a14.61,14.61,0,0,0-20.45.25,14.5,14.5,0,0,0-3.05,4.4,20.07,20.07,0,0,0-1.46,5,48,48,0,0,0-.35,9.64c.14,3,.26,5.86.38,8.45.21,5.14.39,9.31.51,12.24.05,1.42.08,2.53.11,3.33,0,.35,0,.64,0,.86a1,1,0,0,1,0,.3s0-.1,0-.29,0-.51-.06-.87c-.05-.79-.12-1.91-.21-3.32-.16-2.93-.39-7.1-.68-12.23-.13-2.59-.28-5.42-.44-8.45a47.38,47.38,0,0,1,.31-9.73,20.73,20.73,0,0,1,1.47-5.09,15.16,15.16,0,0,1,3.15-4.56,15.07,15.07,0,0,1,21.16-.26,18.36,18.36,0,0,1,5,9.48,68.41,68.41,0,0,1,1.31,9.65c.23,3,.34,5.87.37,8.46.07,5.17-.08,9.36-.17,12.25q-.09,2.13-.15,3.33c0,.35,0,.64-.05.86A1.16,1.16,0,0,1,321.64,372.36Z" style="fill:#263238"></path><path d="M321.87,352.33a1.34,1.34,0,0,1-.18.33,8.68,8.68,0,0,1-.6.89,18.33,18.33,0,0,1-2.7,2.88,19.61,19.61,0,0,1-24.27,1.37,18.35,18.35,0,0,1-3-2.57c-.33-.33-.54-.63-.7-.81s-.23-.3-.21-.31a31.69,31.69,0,0,0,4.11,3.38,19.82,19.82,0,0,0,23.83-1.34A30.41,30.41,0,0,0,321.87,352.33Z" style="fill:#263238"></path><polygon points="323.89 273.14 308.47 316.04 311.82 317.26 327.95 274.44 323.89 273.14" style="fill:#455a64"></polygon><path d="M279.42,276.08c-.51.34,16,41.87,16,41.87l2.49-1-15.86-42.48A15.74,15.74,0,0,0,279.42,276.08Z" style="fill:#455a64"></path></g><g id="character-1"><polygon points="109.9 462.21 110.97 479.28 95.87 479.41 96.19 463.28 109.9 462.21" style="fill:#FF725E"></polygon><path d="M95.54,478a10.21,10.21,0,0,0,2.21.11c1.36,0,3.23,0,5.3-.14l5.3-.27a12.45,12.45,0,0,0,2.2-.2,11.58,11.58,0,0,0-2.21-.1c-1.36,0-3.23.06-5.3.15l-5.3.26A13.21,13.21,0,0,0,95.54,478Z" style="fill:#263238"></path><g style="opacity:0.6000000000000001"><polyline points="110.97 479.28 95.87 479.41 95.73 478.14 110.86 477.55 110.97 479.11" style="fill:#fff"></polyline></g><path d="M102.46,478c.1,0,.23-3.17.3-7.07s0-7.08-.05-7.08a67.6,67.6,0,0,0-.3,7.08C102.34,474.82,102.37,478,102.46,478Z" style="fill:#263238"></path><path d="M96.38,477.94a7.28,7.28,0,0,1,.23-3.17,6.31,6.31,0,0,1,1.89-2.83,6.13,6.13,0,0,1,3.87-1.41,6.45,6.45,0,0,1,3.94,1.24,7,7,0,0,1,2.13,2.68,8.61,8.61,0,0,1,.69,3.12s0-.08,0-.23a4,4,0,0,0,0-.65,6.6,6.6,0,0,0-.52-2.34,7,7,0,0,0-2.16-2.83,6.57,6.57,0,0,0-4.15-1.34,6.2,6.2,0,0,0-6,4.51,5.93,5.93,0,0,0-.2,2.4,3.69,3.69,0,0,0,.13.64A.61.61,0,0,0,96.38,477.94Z" style="fill:#263238"></path><path d="M131.73,456l-1,15.2s15.13,5,15.22,7.85l-29.57.22.6-23.76Z" style="fill:#FF725E"></path><g style="opacity:0.6000000000000001"><path d="M121.62,469.65a1.21,1.21,0,0,0-.88,1.35,1.17,1.17,0,0,0,1.34.88,1.27,1.27,0,0,0,.92-1.44,1.21,1.21,0,0,0-1.49-.76" style="fill:#fff"></path></g><g style="opacity:0.6000000000000001"><path d="M116.37,479.27l.06-2.4,28.56.79a2,2,0,0,1,1.1,1.61Z" style="fill:#fff"></path></g><path d="M131.2,471.07c0,.14-.73.18-1.45.63s-1.12,1-1.25,1,.1-.88,1-1.41S131.24,470.94,131.2,471.07Z" style="fill:#263238"></path><path d="M134.26,472.44c0,.14-.6.37-1.11,1s-.67,1.23-.81,1.22-.21-.83.43-1.56S134.27,472.3,134.26,472.44Z" style="fill:#263238"></path><path d="M135.91,476.21c-.13,0-.31-.7.09-1.48s1.07-1.08,1.13-1-.37.54-.68,1.18S136.06,476.2,135.91,476.21Z" style="fill:#263238"></path><path d="M131.05,467.58c-.07.13-.72-.09-1.54-.06s-1.46.27-1.53.14.55-.62,1.52-.65S131.12,467.46,131.05,467.58Z" style="fill:#263238"></path><g style="opacity:0.30000000000000004"><polygon points="131.52 459.01 131.35 461.72 116.83 461.15 116.88 458.7 131.52 459.01"></polygon></g><path d="M131.2,464.5a2.69,2.69,0,0,1-1.48-.05,6.21,6.21,0,0,1-1.54-.52,5.91,5.91,0,0,1-.83-.48,1.55,1.55,0,0,1-.44-.36.61.61,0,0,1,0-.77.78.78,0,0,1,.64-.31,2.1,2.1,0,0,1,.55.09,4.91,4.91,0,0,1,.91.35,5.15,5.15,0,0,1,1.34.93c.67.66.88,1.21.83,1.23s-.38-.41-1.07-1a6,6,0,0,0-1.29-.78,5.3,5.3,0,0,0-.85-.29c-.31-.09-.57-.1-.66,0s0,.07,0,.16a1.51,1.51,0,0,0,.32.27c.26.17.52.33.77.47a8.57,8.57,0,0,0,1.41.59A13.35,13.35,0,0,1,131.2,464.5Z" style="fill:#263238"></path><path d="M131,464.71a2.44,2.44,0,0,1-.35-1.45,5,5,0,0,1,.25-1.61,5.4,5.4,0,0,1,.41-.89,1.23,1.23,0,0,1,1-.72.7.7,0,0,1,.6.44,2.05,2.05,0,0,1,.14.54,3.67,3.67,0,0,1,0,1,3.41,3.41,0,0,1-.68,1.51c-.6.75-1.21.9-1.22.85s.47-.33.93-1.06a3.32,3.32,0,0,0,.51-1.37,3.1,3.1,0,0,0,0-.86c0-.32-.15-.57-.27-.54s-.4.22-.53.47a4.45,4.45,0,0,0-.39.79,5.2,5.2,0,0,0-.33,1.46C130.94,464.14,131.08,464.69,131,464.71Z" style="fill:#263238"></path><path d="M104.35,353.09c-.23.93,8.87,57.47,8.87,57.47l2.43,54.15,18.14.3,3.33-61-1.69-62.6Z" style="fill:#263238"></path><path d="M78.64,348.7h0c-.18,5.78.7,23,3.27,28.21h0l13,87.21,16.62-.32-3.38-112.23Z" style="fill:#263238"></path><path d="M110.55,399.36a1.55,1.55,0,0,1-.14-.48c-.07-.38-.16-.84-.27-1.39-.23-1.22-.54-3-.89-5.16-.73-4.35-1.63-10.38-2.88-17-.32-1.65-.65-3.26-1-4.8a4.83,4.83,0,0,0-.32-1.07,5.86,5.86,0,0,0-.62-.91l-.71-.88a6.6,6.6,0,0,0-.69-.83,12.7,12.7,0,0,0-1.68-1.23l-1.68-1.1c-1.09-.7-2.12-1.33-3.06-1.9-1.89-1.14-3.45-2-4.52-2.61l-1.24-.7a2.07,2.07,0,0,1-.42-.27s.17,0,.47.18.73.33,1.28.61c1.11.55,2.69,1.37,4.61,2.47,1,.55,2,1.17,3.11,1.86l1.7,1.07a14.12,14.12,0,0,1,1.76,1.27,7.28,7.28,0,0,1,.74.87l.72.88a6.63,6.63,0,0,1,.68,1,1.94,1.94,0,0,1,.22.61l.14.57c.38,1.55.71,3.17,1,4.82,1.26,6.63,2.09,12.67,2.73,17,.3,2.12.54,3.87.73,5.17.07.57.13,1,.18,1.41A3.13,3.13,0,0,1,110.55,399.36Z" style="fill:#455a64"></path><path d="M83.47,218.64l2.34,37.87,16.3-.28L102,247s5.84.77,7-4.68c.73-3.49-1.22-29.92-1.22-29.92Z" style="fill:#ffbe9d"></path><path d="M110.05,214.91c-2.51.9-2.8,5.12-2.8,5.12l-3.44,9.12c-2.14-1.46-4.88-1.2-5.17,2.43-.21,2.62,3,2.94,3,2.94-1.67,3.32-2.77,6-5.31,9.2-2.75,3.49-4.39,3.93-7.59,4.19l-3.54.23s-2.1-5.51-6.23-19.38C74.45,213.39,93,214.2,96.2,210,101.35,203.14,118,212.08,110.05,214.91Z" style="fill:#263238"></path><path d="M79.46,230.21c-3.12-1.81-3.76-7.42-2.23-10.9A10.84,10.84,0,0,1,86.07,213a4.47,4.47,0,0,0,1.5-.27,4.2,4.2,0,0,0,1.51-1.64c2.45-3.65,4.86-7.23,9.84-7.56a5.65,5.65,0,0,1,3.18.58,4.89,4.89,0,0,1,2.05,2.37,10.53,10.53,0,0,1,2.84-1.24,3.62,3.62,0,0,1,3,.52,2.22,2.22,0,0,1,.64,2.77,3.56,3.56,0,0,1,3.72,2.72c.38,1.65-1.93,3-2.17,3.11a3.3,3.3,0,0,1-1.52,4.5,3.77,3.77,0,0,1-3.09,0" style="fill:#263238"></path><path d="M91.55,233.08c-.13,0-.09,1.29-.34,2.82s-.67,2.72-.54,2.78a7.25,7.25,0,0,0,.88-5.6Z" style="fill:#455a64"></path><path d="M93.4,231.1a11.62,11.62,0,0,0-.41,2.72,12.14,12.14,0,0,0-.25,2.75,10.11,10.11,0,0,0,.66-5.47Z" style="fill:#455a64"></path><path d="M98.62,224.49c0-.05-.55.23-1.18.94a8.69,8.69,0,0,0-1.73,3.2,15.66,15.66,0,0,0-.64,3.56,4.51,4.51,0,0,0,0,1.49,5.14,5.14,0,0,0,.33-1.45,26.32,26.32,0,0,1,.75-3.46,10.46,10.46,0,0,1,1.55-3.13C98.23,224.91,98.66,224.54,98.62,224.49Z" style="fill:#455a64"></path><path d="M100.62,220.08a16.28,16.28,0,0,1,0,3.52,16.09,16.09,0,0,1-1.22,3.3,5,5,0,0,0,1.68-3.21A5.17,5.17,0,0,0,100.62,220.08Z" style="fill:#455a64"></path><path d="M81.84,230.8c.06-.12-.36-.44-.94-.71s-1.09-.41-1.15-.29.37.43,1,.71S81.79,230.91,81.84,230.8Z" style="fill:#455a64"></path><path d="M89.43,226.25c-.13,0-.34.68-.75,1.47s-.87,1.36-.77,1.46.74-.37,1.19-1.24S89.55,226.26,89.43,226.25Z" style="fill:#455a64"></path><path d="M91.76,224.79c-.13,0-.42.84-1,1.8s-1.15,1.65-1.06,1.75.88-.48,1.47-1.52A3.1,3.1,0,0,0,91.76,224.79Z" style="fill:#455a64"></path><path d="M102.72,208.16s0-.08-.19-.2a4.19,4.19,0,0,0-.66-.46,5.76,5.76,0,0,0-2.85-.69,7.57,7.57,0,0,0-4.15,1.31,10.05,10.05,0,0,0-3.32,4.16A16.85,16.85,0,0,0,90.39,216l.31-.16a8.33,8.33,0,0,0-3.88-.66,8.5,8.5,0,0,0-3,.75A7.27,7.27,0,0,0,82.1,217a2.2,2.2,0,0,0-.51.52,14.57,14.57,0,0,1,2.34-1.34,8.47,8.47,0,0,1,6.58.06l.26.12.06-.28A16.54,16.54,0,0,1,92,212.48a9.79,9.79,0,0,1,3.14-4A7.3,7.3,0,0,1,99,207.15a6,6,0,0,1,2.76.51C102.4,208,102.69,208.2,102.72,208.16Z" style="fill:#455a64"></path><path d="M111.4,209.67a1.44,1.44,0,0,1,.83.47,1.47,1.47,0,0,1,.33,1,1.61,1.61,0,0,1-.78,1.17,2.38,2.38,0,0,1-1.73.3,5.64,5.64,0,0,1-1.94-.84,18.13,18.13,0,0,0-2.11-1.28,8.81,8.81,0,0,0-2.59-.74,10.27,10.27,0,0,0-5.07.72,12.71,12.71,0,0,0-3.55,2.21,15,15,0,0,0-2,2,4.07,4.07,0,0,0-.59.85c.07.06.94-1.14,2.75-2.62a13.7,13.7,0,0,1,3.5-2.06,10.05,10.05,0,0,1,4.86-.65,8.38,8.38,0,0,1,2.44.68,20.38,20.38,0,0,1,2.08,1.24A5.79,5.79,0,0,0,110,213a2.72,2.72,0,0,0,2-.4,1.85,1.85,0,0,0,.86-1.43,1.6,1.6,0,0,0-.46-1.17C111.84,209.51,111.37,209.66,111.4,209.67Z" style="fill:#455a64"></path><path d="M78.83,252.79s-14.32,3.9-15.26,12.31,2.37,25.69,2.37,25.69,1.33,17.65,3.25,33.33c1.49,12.17,1.28,22.44,9.45,24.58l.64,4.81c19.73,1.6,38.6.3,56.34-4.81l-.35-8.28c2.14-1.74,1.65-10.52.24-17.39-2.33-11.45-11.8-30.18-11.8-30.18h0s7.36,11,11.1,11.26,7.48-5.61,8.64-8.65-2.57-15.41-2.57-15.41-14.48-20.79-17-23.59-15-4.91-15.65-5.37-5.84-7.71-13.54-7.48S78.3,245,78.83,252.79Z" style="fill:#FF725E"></path><path d="M107.57,250.29s-.07.14-.26.38a6.52,6.52,0,0,1-1,.92c-.46.35-1.06.74-1.73,1.2a6.67,6.67,0,0,0-2,1.85,10.06,10.06,0,0,0-1,3.11,12.62,12.62,0,0,1-1.43,3.66,13.87,13.87,0,0,1-6.75,5.75,13,13,0,0,1-4.57.91,9.52,9.52,0,0,1-4.27-.86,6.52,6.52,0,0,1-2.82-2.75,23.67,23.67,0,0,1-1.43-3.08,32.51,32.51,0,0,1-1.48-4.67c-.13-.56-.22-1-.27-1.3a1.5,1.5,0,0,1,0-.47,16.5,16.5,0,0,1,.51,1.72,43.46,43.46,0,0,0,1.63,4.58,24.12,24.12,0,0,0,1.46,3,6.17,6.17,0,0,0,2.66,2.54,9.13,9.13,0,0,0,4,.78,12.67,12.67,0,0,0,4.39-.88,13.58,13.58,0,0,0,6.53-5.52,12,12,0,0,0,1.42-3.51,9.81,9.81,0,0,1,1.16-3.21,6.82,6.82,0,0,1,2.1-1.9c.7-.44,1.3-.79,1.77-1.12A12.3,12.3,0,0,0,107.57,250.29Z" style="fill:#263238"></path><path d="M92.89,254.45a8.85,8.85,0,0,1,2-.95,48.57,48.57,0,0,1,5-1.72,51.3,51.3,0,0,1,5.17-1.22,3.36,3.36,0,0,1,2.22.09,10.51,10.51,0,0,0-2.14.27c-1.31.33-3.13.79-5.11,1.36C96.09,253.41,93,254.6,92.89,254.45Z" style="fill:#263238"></path><path d="M113,267c.1,0-.07,1.63.29,4.2a31.9,31.9,0,0,0,3.12,9.58c1.75,3.56,3.71,6.59,5,8.83.67,1.11,1.25,2,1.68,2.58a5.91,5.91,0,0,1,.64.94,3.51,3.51,0,0,1-.8-.82,25.06,25.06,0,0,1-1.83-2.5A84.51,84.51,0,0,1,116,281a29.34,29.34,0,0,1-3-9.77,18.09,18.09,0,0,1-.08-3.11A4.09,4.09,0,0,1,113,267Z" style="fill:#263238"></path><path d="M119.69,256.76a17.78,17.78,0,0,1-2.57,2.3,18,18,0,0,1-2.67,2.19,13.43,13.43,0,0,1,5.24-4.49Z" style="fill:#263238"></path><path d="M67.17,259.83c-1.18.39-4.44,5.25-4.61,6.48C61,277.77,61.13,289.4,59.88,300.9a37.39,37.39,0,0,0-.37,7.47,10.73,10.73,0,0,0,2.88,6.75,4.1,4.1,0,0,0,2.71,1.32c1.43,0,2.63-1,3.57-2.11a30,30,0,0,0,6.46-14,71.48,71.48,0,0,0,1-15.54" style="fill:#FF725E"></path><path d="M69.33,324.34a1.44,1.44,0,0,1-.11-.46l-.2-1.34c-.17-1.25-.39-2.92-.65-4.94-.53-4.17-1.22-9.94-2-16.32s-1.37-12.16-1.8-16.34c-.2-2-.37-3.7-.49-5,0-.53-.08-1-.11-1.35a1.86,1.86,0,0,1,0-.47s.06.15.11.46.12.81.2,1.34c.17,1.25.39,2.92.65,4.94.53,4.17,1.22,9.94,2,16.32s1.37,12.15,1.8,16.34c.2,2,.36,3.7.49,4.95l.1,1.36A2.38,2.38,0,0,1,69.33,324.34Z" style="fill:#263238"></path><path d="M135.63,341.62a2,2,0,0,1-.52.29l-1.54.75c-.67.32-1.49.71-2.47,1.1s-2.08.89-3.34,1.32-2.61,1-4.11,1.41-3.1.91-4.8,1.37a95.14,95.14,0,0,1-11.24,2.1,96.67,96.67,0,0,1-11.41.64c-1.76,0-3.43-.05-5-.18s-3-.24-4.33-.39-2.51-.33-3.55-.49-1.94-.32-2.67-.47L79,348.71a2.78,2.78,0,0,1-.58-.16,2.24,2.24,0,0,1,.6.06l1.69.26c.73.12,1.62.27,2.67.38s2.23.32,3.55.42,2.76.26,4.31.32,3.22.11,5,.13a100.62,100.62,0,0,0,11.35-.68,104.47,104.47,0,0,0,11.19-2c1.69-.45,3.3-.85,4.78-1.32s2.87-.91,4.12-1.35,2.36-.87,3.35-1.24,1.82-.72,2.5-1l1.57-.65A2.93,2.93,0,0,1,135.63,341.62Z" style="fill:#263238"></path><path d="M101.54,273.29a.75.75,0,0,1,0,.24c0,.18,0,.41.05.7,0,.64.1,1.56.17,2.74.14,2.42.33,5.92.58,10.36.46,8.94,1.12,21.65,1.91,36.81l.09,1.69-.54-1.6L89.6,281.52l-.42-1.27.51-.08c-.12,18.23-.22,35.21-.31,49.49V331L89,329.73A194.17,194.17,0,0,1,81.14,298c-.61-3.9-1-7-1.19-9.07l-.22-2.39c0-.55,0-.83,0-.83s0,.28.12.82l.29,2.39c.26,2.09.66,5.15,1.31,9a199.33,199.33,0,0,0,8,31.68l-.43.07c.07-14.28.14-31.27.23-49.49v-1.59l.5,1.51c.14.41.28.84.43,1.27l14.17,42.72-.45.08c-.71-15.16-1.3-27.87-1.72-36.82-.19-4.44-.34-7.95-.45-10.37,0-1.18-.07-2.09-.1-2.73,0-.3,0-.53,0-.71A1.44,1.44,0,0,1,101.54,273.29Z" style="fill:#fafafa"></path><path d="M111.56,285.64c.1.11-8,7.74-18.2,17.06S74.89,319.48,74.8,319.37s8-7.74,18.2-17.06S111.46,285.53,111.56,285.64Z" style="fill:#fafafa"></path><path d="M121.25,309.2a2,2,0,0,1-.55-.11l-1.53-.43L113.56,307c-4.73-1.39-11.28-3.29-18.53-5.3s-13.84-3.77-18.61-5l-5.65-1.49-1.53-.43a2.2,2.2,0,0,1-.53-.18,2,2,0,0,1,.55.08l1.56.33c1.35.3,3.29.75,5.69,1.33,4.8,1.17,11.4,2.86,18.66,4.88s13.79,4,18.5,5.45c2.35.74,4.25,1.35,5.56,1.8l1.51.52A2.12,2.12,0,0,1,121.25,309.2Z" style="fill:#fafafa"></path></g></svg>