<svg xmlns="http://www.w3.org/2000/svg" viewBox="0 0 750 500"><g id="background-complete"><rect x="33.59" y="128.56" width="31.37" height="31.37" style="fill:#f5f5f5"></rect><rect x="33.59" y="163.68" width="31.37" height="31.37" style="fill:#f5f5f5"></rect><rect x="68.76" y="128.5" width="31.37" height="31.37" style="fill:#f5f5f5"></rect><rect x="68.76" y="163.61" width="31.37" height="31.37" style="fill:#f5f5f5"></rect><rect x="103.84" y="128.5" width="31.37" height="31.37" style="fill:#f5f5f5"></rect><rect x="103.84" y="163.61" width="31.37" height="31.37" style="fill:#f5f5f5"></rect><rect x="139.02" y="128.5" width="31.37" height="31.37" style="fill:#f5f5f5"></rect><rect x="139.02" y="163.61" width="31.37" height="31.37" style="fill:#f5f5f5"></rect><rect x="174.1" y="128.5" width="31.37" height="31.37" style="fill:#f5f5f5"></rect><rect x="174.1" y="163.61" width="31.37" height="31.37" style="fill:#f5f5f5"></rect><rect x="209.27" y="128.5" width="31.37" height="31.37" style="fill:#f5f5f5"></rect><rect x="209.27" y="163.61" width="31.37" height="31.37" style="fill:#f5f5f5"></rect><rect x="244.35" y="128.5" width="31.37" height="31.37" style="fill:#f5f5f5"></rect><rect x="244.35" y="163.61" width="31.37" height="31.37" style="fill:#f5f5f5"></rect><rect x="279.52" y="128.5" width="31.37" height="31.37" style="fill:#f5f5f5"></rect><rect x="279.52" y="163.61" width="31.37" height="31.37" style="fill:#f5f5f5"></rect><rect x="314.6" y="128.5" width="31.37" height="31.37" style="fill:#f5f5f5"></rect><rect x="314.6" y="163.61" width="31.37" height="31.37" style="fill:#f5f5f5"></rect><rect x="349.77" y="128.5" width="31.37" height="31.37" style="fill:#f5f5f5"></rect><rect x="349.77" y="163.61" width="31.37" height="31.37" style="fill:#f5f5f5"></rect><rect x="384.85" y="128.5" width="31.37" height="31.37" style="fill:#f5f5f5"></rect><rect x="384.85" y="163.61" width="31.37" height="31.37" style="fill:#f5f5f5"></rect><rect x="420.03" y="128.5" width="31.37" height="31.37" style="fill:#f5f5f5"></rect><rect x="420.03" y="163.61" width="31.37" height="31.37" style="fill:#f5f5f5"></rect><rect x="455.11" y="128.5" width="31.37" height="31.37" style="fill:#f5f5f5"></rect><rect x="455.11" y="163.61" width="31.37" height="31.37" style="fill:#f5f5f5"></rect><rect x="490.28" y="128.5" width="31.37" height="31.37" style="fill:#f5f5f5"></rect><rect x="490.28" y="163.61" width="31.37" height="31.37" style="fill:#f5f5f5"></rect><rect x="525.36" y="128.5" width="31.37" height="31.37" style="fill:#f5f5f5"></rect><rect x="525.36" y="163.61" width="31.37" height="31.37" style="fill:#f5f5f5"></rect><rect x="560.53" y="128.5" width="31.37" height="31.37" style="fill:#f5f5f5"></rect><rect x="560.53" y="163.61" width="31.37" height="31.37" style="fill:#f5f5f5"></rect><rect x="595.61" y="128.5" width="31.37" height="31.37" style="fill:#f5f5f5"></rect><rect x="595.61" y="163.61" width="31.37" height="31.37" style="fill:#f5f5f5"></rect><rect x="630.78" y="128.5" width="31.37" height="31.37" style="fill:#f5f5f5"></rect><rect x="630.78" y="163.61" width="31.37" height="31.37" style="fill:#f5f5f5"></rect><rect x="666.55" y="128.5" width="31.37" height="31.37" style="fill:#f5f5f5"></rect><rect x="666.55" y="163.61" width="31.37" height="31.37" style="fill:#f5f5f5"></rect><rect x="33.59" y="59.37" width="31.37" height="31.37" style="fill:#f5f5f5"></rect><rect x="33.59" y="94.49" width="31.37" height="31.37" style="fill:#f5f5f5"></rect><rect x="68.76" y="59.31" width="31.37" height="31.37" style="fill:#f5f5f5"></rect><rect x="68.76" y="94.43" width="31.37" height="31.37" style="fill:#f5f5f5"></rect><rect x="103.84" y="59.31" width="31.37" height="31.37" style="fill:#f5f5f5"></rect><rect x="103.84" y="94.43" width="31.37" height="31.37" style="fill:#f5f5f5"></rect><rect x="139.02" y="59.31" width="31.37" height="31.37" style="fill:#f5f5f5"></rect><rect x="139.02" y="94.43" width="31.37" height="31.37" style="fill:#f5f5f5"></rect><rect x="174.1" y="59.31" width="31.37" height="31.37" style="fill:#f5f5f5"></rect><rect x="174.1" y="94.43" width="31.37" height="31.37" style="fill:#f5f5f5"></rect><rect x="209.27" y="59.31" width="31.37" height="31.37" style="fill:#f5f5f5"></rect><rect x="209.27" y="94.43" width="31.37" height="31.37" style="fill:#f5f5f5"></rect><rect x="244.35" y="59.31" width="31.37" height="31.37" style="fill:#f5f5f5"></rect><rect x="244.35" y="94.43" width="31.37" height="31.37" style="fill:#f5f5f5"></rect><rect x="279.52" y="59.31" width="31.37" height="31.37" style="fill:#f5f5f5"></rect><rect x="279.52" y="94.43" width="31.37" height="31.37" style="fill:#f5f5f5"></rect><rect x="314.6" y="59.31" width="31.37" height="31.37" style="fill:#f5f5f5"></rect><rect x="314.6" y="94.43" width="31.37" height="31.37" style="fill:#f5f5f5"></rect><rect x="349.77" y="59.31" width="31.37" height="31.37" style="fill:#f5f5f5"></rect><rect x="349.77" y="94.43" width="31.37" height="31.37" style="fill:#f5f5f5"></rect><rect x="384.85" y="59.31" width="31.37" height="31.37" style="fill:#f5f5f5"></rect><rect x="384.85" y="94.43" width="31.37" height="31.37" style="fill:#f5f5f5"></rect><rect x="420.03" y="59.31" width="31.37" height="31.37" style="fill:#f5f5f5"></rect><rect x="420.03" y="94.43" width="31.37" height="31.37" style="fill:#f5f5f5"></rect><rect x="455.11" y="59.31" width="31.37" height="31.37" style="fill:#f5f5f5"></rect><rect x="455.11" y="94.43" width="31.37" height="31.37" style="fill:#f5f5f5"></rect><rect x="490.28" y="59.31" width="31.37" height="31.37" style="fill:#f5f5f5"></rect><rect x="490.28" y="94.43" width="31.37" height="31.37" style="fill:#f5f5f5"></rect><rect x="525.36" y="59.31" width="31.37" height="31.37" style="fill:#f5f5f5"></rect><rect x="525.36" y="94.43" width="31.37" height="31.37" style="fill:#f5f5f5"></rect><rect x="560.53" y="59.31" width="31.37" height="31.37" style="fill:#f5f5f5"></rect><rect x="560.53" y="94.43" width="31.37" height="31.37" style="fill:#f5f5f5"></rect><rect x="595.61" y="59.31" width="31.37" height="31.37" style="fill:#f5f5f5"></rect><rect x="595.61" y="94.43" width="31.37" height="31.37" style="fill:#f5f5f5"></rect><rect x="630.78" y="59.31" width="31.37" height="31.37" style="fill:#f5f5f5"></rect><rect x="630.78" y="94.43" width="31.37" height="31.37" style="fill:#f5f5f5"></rect><rect x="666.55" y="59.31" width="31.37" height="31.37" style="fill:#f5f5f5"></rect><rect x="666.55" y="94.43" width="31.37" height="31.37" style="fill:#f5f5f5"></rect><path d="M510.54,218.57c-6.41-.35-13.66,4.82-18.59.73-3.8-3.15-2.77-9.47-5.79-13.36s-8.59-4-13.18-2.69-8.86,3.77-13.6,4.24-10.37-2-11-6.76c-.49-3.74,2.33-7.49,1.29-11.12-1.34-4.7-7.66-5.44-12.51-4.87a97.41,97.41,0,0,0-39.34,13.61c-3.3,2-6.53,4.26-10.23,5.42s-8,1-11.06-1.37c-1.65-1.31-2.78-3.18-4.46-4.44-3.78-2.84-9.26-1.81-13.38.49s-7.61,5.7-11.9,7.68-10.05,2.13-13.1-1.48c-1.11-1.32-1.76-3-3-4.16-3.05-2.73-7.87-1.12-11.47.84-12.6,6.88-23.48,16.52-35.73,24-7.32,4.48-15.48,8.21-23.85,9.84L519,234.59C522.76,228.37,517.78,219,510.54,218.57Z" style="fill:#e0e0e0"></path><path d="M474.64,179.12a6,6,0,1,1-6.05-6.05A6.05,6.05,0,0,1,474.64,179.12Z" style="fill:#e0e0e0"></path><path d="M605.48,361.77s-.3.1-.88.26-1.46.38-2.58.72a42.66,42.66,0,0,0-9.19,4.6,129.44,129.44,0,0,0-12.76,10.15c-2.42,2.06-5,4.3-7.91,6.43a49.49,49.49,0,0,1-9.84,5.85,38.15,38.15,0,0,1-5.88,1.91,42.44,42.44,0,0,1-6.38.92c-4.38.33-8.94.14-13.64.08-2.36,0-4.75,0-7.17.13a72.19,72.19,0,0,0-7.33.9c-4.94.87-9.94,2.15-15.12,3.3-2.59.54-5.22,1.1-7.92,1.45-1.35.22-2.72.3-4.09.44s-2.76.16-4.16.06a30.54,30.54,0,0,1-16.16-4.87c-4.92-3.1-9.18-7.2-13.76-11a53.68,53.68,0,0,0-7.29-5.18,31.36,31.36,0,0,0-4-2,18.61,18.61,0,0,0-2.14-.73l-1.08-.34c-.37-.09-.74-.16-1.11-.24a39.58,39.58,0,0,0-9-.92c-3,0-6,.17-9,.38-5.92.4-11.84.93-17.61.07l-1.07-.14-1.06-.24c-.7-.17-1.42-.28-2.11-.5l-2.05-.67c-.68-.22-1.32-.54-2-.8a35.72,35.72,0,0,1-7.14-4.5,93.49,93.49,0,0,1-11.47-11.58,106.77,106.77,0,0,0-10.72-11.1,35.32,35.32,0,0,0-6.05-4.18,24.42,24.42,0,0,0-6.68-2.39c-4.61-.92-9.18-.18-13.52.24a43.7,43.7,0,0,1-6.44.24,23.36,23.36,0,0,1-6.08-1.12,33.3,33.3,0,0,1-10-5.49,90.55,90.55,0,0,1-7.66-6.74,139.62,139.62,0,0,0-12.08-11,35.54,35.54,0,0,0-8.91-5.08c-1.11-.39-2-.67-2.55-.81s-.88-.25-.88-.25l.89.2a24.25,24.25,0,0,1,2.58.76,34.7,34.7,0,0,1,9,5A136.52,136.52,0,0,1,315.61,325a91.66,91.66,0,0,0,7.66,6.68,33,33,0,0,0,9.94,5.41,23.15,23.15,0,0,0,6,1.08,41.71,41.71,0,0,0,6.38-.25c4.32-.42,8.93-1.19,13.64-.26a24.81,24.81,0,0,1,6.8,2.42,35.15,35.15,0,0,1,6.15,4.22A106.47,106.47,0,0,1,383,355.46,92.57,92.57,0,0,0,394.37,367a34.54,34.54,0,0,0,7,4.43c.65.26,1.29.57,2,.79l2,.65c.67.22,1.38.33,2.07.49l1.05.23,1.06.15c5.68.84,11.56.32,17.49-.08,3-.22,6-.41,9-.39a40.07,40.07,0,0,1,9.1.93c.38.08.76.15,1.13.24l1.1.35a20.7,20.7,0,0,1,2.18.74,31.84,31.84,0,0,1,4.11,2,53.72,53.72,0,0,1,7.36,5.23c4.6,3.79,8.85,7.87,13.7,10.94a30.26,30.26,0,0,0,15.91,4.81c1.37.09,2.75,0,4.11-.06s2.71-.21,4.05-.44c2.68-.34,5.3-.9,7.89-1.43,5.17-1.14,10.18-2.41,15.14-3.28a70,70,0,0,1,7.38-.89c2.44-.15,4.84-.15,7.2-.12,4.71.07,9.26.26,13.61-.06a40.55,40.55,0,0,0,6.33-.88,38.31,38.31,0,0,0,5.81-1.88,49.13,49.13,0,0,0,9.79-5.77c2.91-2.12,5.49-4.34,7.92-6.39a125.77,125.77,0,0,1,12.84-10.1,41.92,41.92,0,0,1,9.26-4.53c1.14-.32,2-.52,2.61-.67S605.48,361.77,605.48,361.77Z" style="fill:#e0e0e0"></path><path d="M676.31,264.73a1.26,1.26,0,0,1-.09.3,3.52,3.52,0,0,1-.42.82,4.68,4.68,0,0,1-3,1.75,8.24,8.24,0,0,1-5.46-.94c-2-1-3.84-2.68-6.28-3.84a9.49,9.49,0,0,0-4.08-.89,12.09,12.09,0,0,0-4.44,1,23.69,23.69,0,0,0-8.08,6,12.06,12.06,0,0,1-4.59,3.23,6.5,6.5,0,0,1-2.94.24,17.54,17.54,0,0,1-2.88-.7,16.07,16.07,0,0,0-5.81-.9,18.54,18.54,0,0,0-5.89,1.39,37.15,37.15,0,0,0-10.07,6.61c-3,2.57-5.76,5.17-8.74,7.26a28.6,28.6,0,0,1-4.61,2.66,25.25,25.25,0,0,1-4.76,1.57,30.71,30.71,0,0,1-9,.44,50.09,50.09,0,0,1-7.29-1.26c-2.11-.51-3.91-1-5.37-1.5s-2.59-.83-3.35-1.09l-.87-.3a1.14,1.14,0,0,1-.28-.13l.3.07.88.26,3.37,1c1.47.43,3.27.92,5.39,1.41a50.94,50.94,0,0,0,7.25,1.17,30.57,30.57,0,0,0,8.83-.49,24.87,24.87,0,0,0,4.67-1.56,28.2,28.2,0,0,0,4.52-2.65c2.94-2.07,5.71-4.66,8.69-7.24a37.53,37.53,0,0,1,10.2-6.71,18.92,18.92,0,0,1,6.07-1.42,16.58,16.58,0,0,1,6,.92c1.85.58,3.77,1.08,5.52.48a11.84,11.84,0,0,0,4.4-3.1,24.12,24.12,0,0,1,8.26-6.1,12.63,12.63,0,0,1,4.6-1,10,10,0,0,1,4.23,1c2.5,1.21,4.35,2.91,6.26,3.91a8.07,8.07,0,0,0,5.29,1,4.61,4.61,0,0,0,3-1.61A6.54,6.54,0,0,0,676.31,264.73Z" style="fill:#e0e0e0"></path><path d="M698,259.64a5.11,5.11,0,1,1-5.11-5.12A5.11,5.11,0,0,1,698,259.64Z" style="fill:#ebebeb"></path><path d="M254.84,322.9a5.12,5.12,0,1,1-5.11-5.11A5.11,5.11,0,0,1,254.84,322.9Z" style="fill:#ebebeb"></path><circle cx="279.81" cy="344.75" r="7.12" style="fill:#ebebeb"></circle><path d="M690.36,276.47a2.56,2.56,0,1,1-2.55-2.55A2.56,2.56,0,0,1,690.36,276.47Z" style="fill:#ebebeb"></path><path d="M273.71,316.34a2.56,2.56,0,1,1-2.56-2.56A2.56,2.56,0,0,1,273.71,316.34Z" style="fill:#ebebeb"></path><path d="M66.83,324.2c7.48-16.28,24.81-28.85,40.78-32.12a67.5,67.5,0,0,1,47.17,7.81c28.32,16.61,43,53,74.22,63.29,16.44,5.43,34.41,2.35,51.55,4.79,12.22,1.73,24.35,6.54,32.93,15.41s13.06,22.2,9.49,34c-2.58,8.55-8.26,18.39-15.8,23.18S290,450.9,281.37,453.16c-57.16,14.92-119.8,10.93-170.31-19.7C96.3,424.51,80.28,402.9,70.93,387c-7.92-13.52-15.14-35.87-4.1-62.75" style="fill:#f5f5f5"></path><path d="M717.75,350.17c-5.51-11.15-16.62-19.29-26.32-20.94a34.44,34.44,0,0,0-27.51,7.44c-15.75,12.86-22.14,39.09-40,47.62-9.41,4.5-20.29,3.07-30.31,5.49-7.15,1.72-14,5.61-18.57,12.21s-6.31,16.17-3.43,24.34c2.09,5.92,6.1,12.61,10.89,15.67s10.86,6.57,16.14,7.8c34.93,8.15,71.89,2.77,99.91-20.88,8.19-6.9,16.31-22.78,20.83-34.39,3.83-9.85,6.66-25.89-1.63-44.36" style="fill:#f5f5f5"></path><circle cx="430.04" cy="422.21" r="31.15" transform="translate(-170.59 471.59) rotate(-49.17)" style="fill:#f5f5f5"></circle><path d="M616.75,246.9c-2.63-3.62-7.8-4.42-12.18-3.55s-8.41,3-12.71,4.26-10.66.55-14.08-2.34c-7-4.29-10.76-3.94-14.15-3.07s-6.4,3.92-8,7.15c-2.17,4.54.39,11.45,3.35,15.52,6.59,9.05,17.32,13.07,28.51,12.67a34.94,34.94,0,0,0,27.9-16.18C618.16,257,619.77,251.07,616.75,246.9Z" style="fill:#f5f5f5"></path></g><g id="background-simple"><path d="M534.23,122.74l-2-3.91c-16.79-33-50-54.58-86.65-55a96.83,96.83,0,0,0-14.12.88c-33.71,4.62-64.45,27.56-78.82,58.8-8.44,18.37-12,40-26.51,54-18.84,18.23-48.4,16.64-74.28,13.89s-55.47-4.26-74.23,14.05c-11.75,11.47-16.49,28.66-16.85,45.17-.93,43.69,26.49,84.87,63.61,107.1s82.41,27.34,125.26,22c60-7.51,118.7-36.05,156.27-84.08S557.2,179.33,534.23,122.74Z" style="fill:#f5f5f5"></path><circle cx="137.08" cy="358.42" r="23.67" style="fill:#f5f5f5"></circle><circle cx="581.99" cy="156.66" r="23.67" transform="translate(334.78 706.33) rotate(-80.85)" style="fill:#f5f5f5"></circle></g><g id="Character"><path d="M623.71,306.05c10-5.75,6.85-9.9,8.69-15.82.87-2.82,2.09-5.37,4.56-6.9,1.84-1.14,5.12-.85,7.13-.06a37,37,0,0,1,6,2.81,30.12,30.12,0,0,0,23.62,4c6.27-1.4,12.29-4.62,18.7-4.3a6.76,6.76,0,0,1,4.08,1.29,3.34,3.34,0,0,1,1,4c-.87,1.55-3,1.65-4.66,2-3.11.64-5.2,3.58-8.24,5.65-2.65,1.8-9.38,5.78-12.16,7.35-11.21,6.32-26.23,13.6-36.65,19.06" style="fill:#ffbf9d"></path><path d="M623.77,306.16c3.57-2.09,6.91-4.73,7.69-9,.29-1.55.31-3.14.56-4.69a16.28,16.28,0,0,1,2.46-6.57c1.9-2.77,4.73-3.63,8-3a28.43,28.43,0,0,1,8.37,3.72,30.68,30.68,0,0,0,16,4.4c6.17-.09,11.71-2.39,17.56-4,3-.85,6.48-1.59,9.65-.95a4.31,4.31,0,0,1,3.63,3.05c.49,2.17-1.4,3.13-3.16,3.5a14.85,14.85,0,0,0-3.07.77,13.85,13.85,0,0,0-3.09,2.11,51.8,51.8,0,0,1-6.07,4.57c-3.9,2.44-7.88,4.78-11.9,7-11.38,6.28-23.1,11.9-34.61,17.92-.14.07,0,.29.13.21,10.92-5.71,22-11.06,32.85-17q6.45-3.51,12.71-7.38a42.81,42.81,0,0,0,5.86-4.15,24.89,24.89,0,0,1,3.29-2.6,13.6,13.6,0,0,1,4.3-1.33c1.84-.43,3.46-1.63,3-3.73-.54-2.5-3.17-3.3-5.42-3.42-6.37-.34-12.25,2.78-18.31,4.21a30.68,30.68,0,0,1-19.36-1.46c-5-2.15-10-6.67-15.79-5.84-5.06.72-7,7.07-7.39,11.4a16.48,16.48,0,0,1-1.2,5.81c-1.38,2.8-4.12,4.66-6.73,6.19-.14.08,0,.3.12.22Z" style="fill:#ff9a6c"></path><path d="M625.56,304.9c-40.33,17.43-64.28,7.23-82.75,27.85l-84.5-23.52-20.16,30.36L451,358.08,537,372.19s12,1.2,19.46-4.74,91.46-48.56,91.46-48.56" style="fill:#ffbf9d"></path><path d="M647.89,318.89s-.32.19-.95.52l-2.81,1.45-10.83,5.59c-9.41,4.86-23.06,11.88-39.89,20.73C585,351.62,575.75,356.48,566,362c-2.45,1.36-4.92,2.79-7.38,4.31-1.2.79-2.39,1.63-3.62,2.49a21.82,21.82,0,0,1-4.05,1.93,31.8,31.8,0,0,1-9,1.76,38.46,38.46,0,0,1-4.68,0c-1.57-.2-3.1-.49-4.67-.73L451,358.34l-.11,0-.06-.09-6.92-9.93-6-8.56-.1-.15.1-.15,20.17-30.35.1-.16.18.05,84.49,23.57-.21.06a40.3,40.3,0,0,1,7.45-6.56,40.93,40.93,0,0,1,8.4-4.35,86.8,86.8,0,0,1,16.83-4.13c5.36-.88,10.36-1.6,14.95-2.43s8.77-1.71,12.5-2.64a149.23,149.23,0,0,0,17-5.31c1.91-.71,3.35-1.31,4.33-1.71l1.48-.58s-.49.23-1.46.64-2.4,1-4.31,1.77a142.58,142.58,0,0,1-16.94,5.41c-3.74,1-7.92,1.86-12.51,2.7s-9.6,1.58-14.94,2.48a87.2,87.2,0,0,0-16.76,4.15,40.8,40.8,0,0,0-8.3,4.32,39.93,39.93,0,0,0-7.37,6.51l-.09.1-.12,0-84.52-23.48.28-.1-20.16,30.36v-.29l6,8.56,6.93,9.94-.17-.11,81.56,13.41c1.56.24,3.13.54,4.65.74a37.32,37.32,0,0,0,4.61,0,31.72,31.72,0,0,0,8.85-1.72,20.68,20.68,0,0,0,4-1.89c1.19-.82,2.4-1.67,3.62-2.48,2.48-1.52,5-2.95,7.41-4.31,9.81-5.46,19-10.29,27.48-14.71,16.86-8.82,30.54-15.79,40-20.6l10.87-5.5,2.83-1.41C647.55,319,647.89,318.89,647.89,318.89Z" style="fill:#ff9a6c"></path><path d="M657.68,333.66s-35.68-19.32-49.83-24c-9.31-3.06-32.62-4.19-42.44-7.62s-94.21-39.44-94.21-39.44l-25.12,5-2,25.11L449,305.41l8.4,12.78S523.64,334.45,540,337s52,6.2,65.79,9.5c16.08,3.86,42.62,7.86,42.62,7.86" style="fill:#ffbf9d"></path><path d="M648.43,354.34s-.32,0-.95-.12l-2.81-.42c-2.47-.37-6.13-.95-10.84-1.74s-10.5-1.79-17.22-3.11c-3.36-.67-7-1.4-10.75-2.3s-7.86-1.57-12.15-2.25c-8.58-1.34-18.06-2.55-28.29-3.84l-15.91-2c-5.47-.72-11.13-1.48-16.88-2.68-11.49-2.34-23.55-5.11-36.13-8s-25.66-6.08-39.15-9.38l-.09,0-.06-.08-8.4-12.78v-.05c-1.56-4-3.23-8.32-4.92-12.68l0-.05v-.06c.34-4.42.71-9.16,1.09-13.94q.44-5.61.88-11.17v-.19l.2,0,25.12-5h.07l.08,0c26.17,11.15,50.81,21.62,73.09,30.92,5.57,2.32,11,4.57,16.27,6.69a59.49,59.49,0,0,0,7.91,2.76c2.66.66,5.32,1.15,7.95,1.57,5.25.85,10.34,1.47,15.22,2.15s9.55,1.34,13.93,2.41a51.36,51.36,0,0,1,6.24,2.12c2,.77,3.89,1.61,5.74,2.42q5.52,2.48,10.3,4.82c6.38,3.09,11.79,5.87,16.2,8.16s7.78,4.09,10.07,5.32l2.59,1.42.87.49-13.62-7.07c-4.41-2.26-9.84-5-16.22-8.08-3.19-1.55-6.64-3.14-10.32-4.79-1.85-.79-3.75-1.62-5.73-2.39a51.85,51.85,0,0,0-6.2-2.09c-4.36-1.05-9-1.7-13.9-2.37s-10-1.28-15.24-2.12c-2.63-.42-5.3-.9-8-1.57a59.45,59.45,0,0,1-8-2.76c-5.3-2.11-10.72-4.36-16.3-6.67-22.29-9.28-46.94-19.72-73.11-30.87l.15,0-25.12,5,.21-.24q-.43,5.55-.88,11.17c-.38,4.78-.75,9.52-1.1,13.94v-.11c1.68,4.35,3.36,8.67,4.91,12.67l0,0,8.4,12.77-.15-.1c13.48,3.3,26.56,6.44,39.13,9.39s24.63,5.73,36.11,8.08c5.73,1.21,11.37,2,16.85,2.7l15.9,2.06c10.23,1.31,19.71,2.53,28.3,3.9,4.29.69,8.36,1.38,12.16,2.29s7.38,1.65,10.73,2.33c6.71,1.34,12.49,2.38,17.2,3.2Z" style="fill:#ff9a6c"></path><path d="M655.5,332.49c10.44,4.76,11.35-.28,17-2.32,2.72-1,5.43-1.5,8.09-.38,2,.84,3.73,3.71,4.33,5.84a41,41,0,0,1,1.44,6.66,32.22,32.22,0,0,0,11.09,21.87c4.85,4.33,11,7.37,14.57,12.85a7.27,7.27,0,0,1,1.44,4.13,3.24,3.24,0,0,1-2.5,3.2c-1.73.21-3.06-1.45-4.36-2.64-2.36-2.18-5.9-2.14-9.32-3.41a126.76,126.76,0,0,1-13-5.62c-11.2-6.36-24.64-13.37-35.89-18.33" style="fill:#ffbf9d"></path><path d="M648.43,354.34l.4.15L650,355c1,.43,2.48,1.08,4.37,1.95,3.78,1.74,9.2,4.36,15.79,7.79,3.3,1.72,6.89,3.64,10.71,5.76,1.93,1,3.84,2.24,5.95,3.19s4.32,1.91,6.59,2.83a44.54,44.54,0,0,0,7.09,2.44,28.54,28.54,0,0,1,3.79,1,8.83,8.83,0,0,1,1.8.94,11.65,11.65,0,0,1,1.53,1.34c.93.9,2,1.91,3.23,1.83a2.83,2.83,0,0,0,2.37-2.56,6,6,0,0,0-1-3.79,21,21,0,0,0-2.52-3.31c-3.86-4.11-8.83-6.78-12.78-10.46a32.41,32.41,0,0,1-8.71-12.68,34.56,34.56,0,0,1-1.77-7c-.18-1.16-.26-2.31-.45-3.4s-.43-2.19-.7-3.24a25.38,25.38,0,0,0-.91-3.06,12,12,0,0,0-1.5-2.64,6.53,6.53,0,0,0-2.14-1.9,7.73,7.73,0,0,0-2.68-.68,13.15,13.15,0,0,0-5.13.84,17.44,17.44,0,0,0-4.15,2.14,14.19,14.19,0,0,1-3.67,1.91,9.14,9.14,0,0,1-3.47.25,18.2,18.2,0,0,1-4.61-1.32l-1.14-.51-.38-.19.4.14,1.16.46a18.52,18.52,0,0,0,4.59,1.21A8.71,8.71,0,0,0,665,334a14.22,14.22,0,0,0,3.58-1.91,17.27,17.27,0,0,1,4.21-2.21,13.36,13.36,0,0,1,5.25-.9,8.12,8.12,0,0,1,2.82.7,6.82,6.82,0,0,1,2.3,2,12.37,12.37,0,0,1,1.57,2.72,25.36,25.36,0,0,1,.94,3.11c.28,1.06.53,2.15.72,3.27s.28,2.28.46,3.42a34.92,34.92,0,0,0,1.77,6.89,32,32,0,0,0,8.61,12.48c3.88,3.62,8.86,6.29,12.81,10.48a20.77,20.77,0,0,1,2.59,3.4,6.45,6.45,0,0,1,1.05,4.13,4.07,4.07,0,0,1-.9,2,2.77,2.77,0,0,1-1.95,1,3.33,3.33,0,0,1-2.05-.64,12.15,12.15,0,0,1-1.57-1.34,8.14,8.14,0,0,0-3.16-2.18,29.21,29.21,0,0,0-3.72-1,43.66,43.66,0,0,1-7.15-2.48c-2.28-.93-4.49-1.87-6.6-2.86s-4.05-2.19-6-3.23c-3.81-2.13-7.39-4.07-10.67-5.8-6.57-3.48-12-6.14-15.71-7.93l-4.32-2.05-1.13-.53A2.5,2.5,0,0,1,648.43,354.34Z" style="fill:#ff9a6c"></path><path d="M225,241.05s16.08,19.71,33,29.68,55.53,31.89,65.33,36.85,61.78,21.58,61.78,21.58a38.81,38.81,0,0,0,7.82-17c2.23-10.78.22-57.84.22-57.84s-14-5.46-18.11-11.61c-2.32-3.45-38.7-38.44-38.7-38.44s-30.2-18-34.69-17.06-27.65,16-27.65,16L249.36,232S226.74,233.38,225,241.05Z" style="fill:#ffbf9d"></path><path d="M229.42,237.41s-42,1.28-53-.68-34.12,1.35-45.6,2.54S92.31,244,92.31,244v14s50,5.71,63.36,4.52,17.21-1.19,25-.95,29.18,6,48.25,6c20,0,32,0,32,0L248.4,245Z" style="fill:#ffbf9d"></path><path d="M28,251.64s0,4.93,5.48,4.93c0,0,.43,2.69,5.48,2.54s24.81,2.69,24.81,2.69H69.3s-7.79,2.69-10.68,3.14-8.51,2.54-7.36,4.48,3.18,2.4,7.79,1.05,10.68-1.34,15.58-1.94,6.79-.45,9.38-3.29a85.63,85.63,0,0,1,8.3-7.21V244s-7.43,1.06-10.61,2.41-13.85,4.48-18.46,4.33S28,251.64,28,251.64Z" style="fill:#ffbf9d"></path><path d="M318.94,258.85a26.68,26.68,0,0,0,3.92-3.6,25.83,25.83,0,0,0,5.34-11.51A56.41,56.41,0,0,0,329,230.9c-.07-1.58-.12-2.89-.16-3.92a8.89,8.89,0,0,1,0-1.44A6.91,6.91,0,0,1,329,227c.1.92.22,2.26.32,3.91a50.31,50.31,0,0,1-.61,13,25,25,0,0,1-5.57,11.66,17,17,0,0,1-2.95,2.62,10.17,10.17,0,0,1-.91.57C319.07,258.81,319,258.87,318.94,258.85Z" style="fill:#ff9a6c"></path><path d="M334.74,281.26a6.36,6.36,0,0,1-1.16-.49c-.73-.35-1.78-.88-3.06-1.55-2.56-1.36-6-3.33-9.76-5.71s-7-4.7-9.29-6.45c-1.15-.88-2.07-1.6-2.69-2.12a5.7,5.7,0,0,1-.94-.85,5.89,5.89,0,0,1,1.06.69l2.79,2c2.35,1.67,5.63,3.94,9.35,6.31s7.15,4.39,9.66,5.82l3,1.7A6,6,0,0,1,334.74,281.26Z" style="fill:#ff9a6c"></path><path d="M277.8,202.57l-44-48.28c-11.54-12.89-28.66-16.92-41.23-5l-1.1,1.16a31,31,0,0,0-.4,41.95c10.07,11.12,21.33,23.27,27.24,28.69,12.24,11.22,25.5.89,25.5.89s8.29,7.57,8.29,7.57l14.85,2h0Z" style="fill:#ffbf9d"></path><path d="M243.81,222A40.13,40.13,0,0,0,254,201.84s6.48,12.89-6,23.94Z" style="fill:#ff9a6c"></path><path d="M204.75,199.63a2.37,2.37,0,0,0,3.31,0,2.27,2.27,0,0,0,.12-3.24,2.38,2.38,0,0,0-3.31,0A2.27,2.27,0,0,0,204.75,199.63Z" style="fill:#263238"></path><path d="M222.07,183.33a2.37,2.37,0,0,0,3.31,0,2.26,2.26,0,0,0,.11-3.24,2.36,2.36,0,0,0-3.3,0A2.27,2.27,0,0,0,222.07,183.33Z" style="fill:#263238"></path><path d="M224.41,197.11c-.1-.11-1.38.86-3.38,2.5-.5.43-1,.79-1.41.57s-.78-.89-1.11-1.64l-2.3-4.8c-3.31-6.79-6.22-12.18-6.49-12s2.19,5.75,5.51,12.53c.83,1.66,1.61,3.25,2.37,4.77a3.75,3.75,0,0,0,1.63,2,1.62,1.62,0,0,0,1.43-.13,4,4,0,0,0,.87-.7C223.4,198.38,224.51,197.21,224.41,197.11Z" style="fill:#263238"></path><path d="M210.34,173.78c.69.28,2.15-1.83,4.42-3.82s4.49-3.24,4.3-4c-.11-.33-.87-.45-2-.18a9.88,9.88,0,0,0-4,2.2,9.67,9.67,0,0,0-2.63,3.72C210,172.87,210,173.64,210.34,173.78Z" style="fill:#263238"></path><path d="M193.29,189.78c.78,0,1.8-1.89,3.51-3.71s3.49-3,3.4-3.81c-.07-.36-.71-.52-1.75-.24a8.54,8.54,0,0,0-5.57,6C192.7,189.12,192.92,189.75,193.29,189.78Z" style="fill:#263238"></path><path d="M241.83,163.7c.1-.29,5.35-10.63,13.38-2.59s-3.39,16.4-2.42,15.06C253,175.91,241.83,163.7,241.83,163.7Z" style="fill:#ffbf9d"></path><path d="M252.67,169.83c0-.06.24,0,.59-.17a2,2,0,0,0,1.07-1c.53-1.16-.1-3.22-1.5-4.71a6.55,6.55,0,0,0-2.4-1.61,2.28,2.28,0,0,0-2.12,0,1,1,0,0,0-.45,1.2c.12.34.33.45.3.5s-.3,0-.57-.36a1.25,1.25,0,0,1-.19-.82,1.48,1.48,0,0,1,.57-1,2.77,2.77,0,0,1,2.71-.22,6.74,6.74,0,0,1,2.72,1.76c1.57,1.67,2.25,4,1.42,5.51a2.11,2.11,0,0,1-1.49,1.06C252.88,170,252.66,169.88,252.67,169.83Z" style="fill:#ff9a6c"></path><path d="M231.23,192.63c-.29.26,1.52,2.13,1.21,5s-2.51,4.61-2.27,4.88.8-.07,1.66-.86a6.45,6.45,0,0,0,2-4,5.69,5.69,0,0,0-1.13-4.09C232,192.76,231.35,192.5,231.23,192.63Z" style="fill:#263238"></path><path d="M187.08,186.85s-2.12-10.27,9.48-21.17c18.35-17.22,47.57,3,47.57,3l.27-8.48S225.59,129,196.51,141.38c-11.43,4.86-17,14.19-17,27C179.62,180.51,187.08,186.85,187.08,186.85Z" style="fill:#455a64"></path><path d="M182.56,169.14a5.14,5.14,0,0,1-.18-1.12,9.65,9.65,0,0,1-.1-1.33,17.36,17.36,0,0,1,0-1.77,26.18,26.18,0,0,1,.58-4.56,29.92,29.92,0,0,1,1.79-5.34,29.23,29.23,0,0,1,2.86-4.86,25.71,25.71,0,0,1,3.06-3.43,17.39,17.39,0,0,1,1.33-1.16,10.15,10.15,0,0,1,1.07-.8,4.47,4.47,0,0,1,1-.59c.06.08-1.28,1-3.11,2.81a29.06,29.06,0,0,0-2.93,3.46,30.15,30.15,0,0,0-2.77,4.79,30.68,30.68,0,0,0-1.8,5.23,27.24,27.24,0,0,0-.68,4.47C182.47,167.52,182.67,169.13,182.56,169.14Z" style="fill:#fff"></path><g style="opacity:0.30000000000000004"><path d="M231.86,146.52c.33.72-.3,1.28-1.05,1.5a3.76,3.76,0,0,1-2.3-.27,5.34,5.34,0,0,0-2.27-.52c-1.74.15-2.76,2-4.3,2.86a4.79,4.79,0,0,1-4.12.06,7.89,7.89,0,0,1-3.19-2.77c-.71-1-1.34-2.2-2.47-2.7a3.51,3.51,0,0,0-2.93.22,8.37,8.37,0,0,0-2.31,1.93,5.83,5.83,0,0,1-2.39,1.92,4.14,4.14,0,0,1-3.52-.9,9.19,9.19,0,0,1-3.8-6.76,35,35,0,0,1,16.12-2.47,32.67,32.67,0,0,1,10.42,2.95A41.45,41.45,0,0,1,231.86,146.52Z" style="fill:#fff"></path></g><path d="M217.75,179c.46.06,1-2.3,3.11-4s4.53-2,4.54-2.42c0-.21-.63-.47-1.71-.41a6.81,6.81,0,0,0-3.91,1.61,6.59,6.59,0,0,0-2.2,3.55C217.36,178.31,217.54,179,217.75,179Z" style="fill:#263238"></path><path d="M198.82,195.23c.46.06,1-2.3,3.1-4s4.54-2,4.54-2.42c0-.21-.62-.48-1.71-.42a6.9,6.9,0,0,0-3.9,1.62,6.59,6.59,0,0,0-2.2,3.55C198.43,194.56,198.6,195.21,198.82,195.23Z" style="fill:#263238"></path><path d="M284.35,211.81s0-16.87,5.85-23.55,30.1-17.11,30.1-17.11,18.18-3.56,30.38-9.91c6.41-3.34,13.82-4.64,19.41-5.13A22.24,22.24,0,0,1,384.66,160l63.1,43.89L439,219.56s-48.05-20.45-53.18-24.77-16.05-10.42-16.05-10.42-13.17,10.53-20.84,13.21-21.34,13-21.34,13l-29.23,12.2Z" style="fill:#ffbf9d"></path><path d="M438.39,218.15s2.15,10.94,7.46,13.76,11.81,8.72,13,12.51,4.13,3.6,4.49.72-.35-5.47-2.34-9S461,233,462.8,234c2.33,1.24,14.28,6.14,20.58,6.32s7.39-2.7,6.85-3.24-15.13-6.48-15.13-6.48,20,2.61,21.95,2.31c2.42-.38,2.63-3.72-.13-4.48a14.13,14.13,0,0,0-2.49-.49s.54-2.11-3.57-3.67-13.06-5.29-13.06-5.29,14.95,3.69,14.95,2.61a3.76,3.76,0,0,0-2.52-3.42c-2-.9-30.71-10.23-36-11.89a32.72,32.72,0,0,1-7.92-3.31Z" style="fill:#ffbf9d"></path><path d="M341.44,201.41a21.23,21.23,0,0,1-2.6,1.79,49.77,49.77,0,0,0-6.09,4.49,22,22,0,0,0-4.71,5.82c-.91,1.7-1.21,2.88-1.3,2.85a2.52,2.52,0,0,1,.15-.84,12.46,12.46,0,0,1,.83-2.18,19.74,19.74,0,0,1,4.69-6,39.05,39.05,0,0,1,6.23-4.42A17.11,17.11,0,0,1,341.44,201.41Z" style="fill:#ff9a6c"></path><path d="M290.63,187.9c.08,0-.54,1.11-1.38,2.9a40.23,40.23,0,0,0-2.54,7.26,39.81,39.81,0,0,0-1.06,7.62c-.08,2,0,3.2-.1,3.21a3.07,3.07,0,0,1-.15-.86c-.06-.55-.11-1.36-.12-2.36a32.94,32.94,0,0,1,.92-7.73,32.45,32.45,0,0,1,2.72-7.3c.47-.88.88-1.58,1.19-2A3.21,3.21,0,0,1,290.63,187.9Z" style="fill:#ff9a6c"></path><path d="M475.21,224.22a16.82,16.82,0,0,1,2.83.49l6.77,1.4c2.65.53,5.05,1,6.8,1.25a20.24,20.24,0,0,1,2.82.53,13.13,13.13,0,0,1-2.87-.17c-1.77-.19-4.2-.57-6.85-1.1s-5-1.11-6.76-1.56A15,15,0,0,1,475.21,224.22Z" style="fill:#ff9a6c"></path><path d="M486,235.07l4.26,2c.54.54-.54,3.42-6.85,3.24a43.08,43.08,0,0,1-7-1.26,96.82,96.82,0,0,1-11.2-3.94Z" style="fill:#fff;opacity:0.30000000000000004"></path><path d="M450.8,235.17c3.62,2.87,7.27,6.71,8.1,9.25,1.25,3.78,4.14,3.6,4.49.72.44-3.58-1-6.77-3-10.31Z" style="fill:#fff;opacity:0.4"></path><path d="M390,252.85s21.32-7.3,43.2-2.57a285.35,285.35,0,0,1,38.28,11.06s-5.49,10.42-11,31.31a89.76,89.76,0,0,0-2.89,25.54s-7.28,25.71-6.42,39.89c-25.43-6.91-48.65-14.29-67.38-24.84l-8.39-4.08,10.85-59.87Z" style="fill:#FF725E"></path><path d="M395.22,251.37c.15,0-3.08,18-7.21,40.13s-7.59,40.07-7.73,40,3.09-18,7.22-40.13S395.08,251.35,395.22,251.37Z" style="fill:#263238"></path><path d="M430,316.34a10.28,10.28,0,0,1-2.13,1.81,26.4,26.4,0,0,1-12.55,4.72,10.24,10.24,0,0,1-2.8,0c0-.08,1.06-.14,2.75-.39a31.46,31.46,0,0,0,12.39-4.66A26.12,26.12,0,0,1,430,316.34Z" style="fill:#263238"></path><path d="M457.74,317.92a9.05,9.05,0,0,1-1.68,0c-1.08,0-2.64-.12-4.57-.26-3.86-.3-9.18-.9-15-2s-11-2.34-14.73-3.41c-1.86-.54-3.35-1-4.38-1.35a10,10,0,0,1-1.57-.59,11.67,11.67,0,0,1,1.63.39l4.42,1.19c3.73,1,8.92,2.21,14.72,3.26s11.09,1.7,14.93,2.09l4.55.43A12,12,0,0,1,457.74,317.92Z" style="fill:#263238"></path><g style="opacity:0.4"><path d="M375,242.92c3.12,3.79,10.57,8,14.95,10l0-.1s1.94-.66,5.24-1.46v0c7.66-1.85,22.67-4.42,38-1.11a285.35,285.35,0,0,1,38.28,11.06s-.25.47-.68,1.39l.18-.39s84.64,36.32,94.45,39.74,33.13,4.56,42.44,7.62c.74.24,1.54.53,2.38.84a147.91,147.91,0,0,0,15.33-5.64h0c7.71-5.17,5.13-9.15,6.84-14.67.87-2.82,2.09-5.37,4.56-6.9,1.84-1.14,5.12-.85,7.13-.06a37,37,0,0,1,6,2.81,30.12,30.12,0,0,0,23.62,4c6.27-1.4,12.29-4.62,18.7-4.3a6.76,6.76,0,0,1,4.08,1.29,3.34,3.34,0,0,1,1,4c-.87,1.55-3,1.65-4.66,2-3.11.64-5.2,3.58-8.24,5.65-2.65,1.8-9.38,5.78-12.16,7.35-7.34,4.14-16.3,8.68-24.53,12.85h0l-8.63,4.4-.72.37c7.33,3.71,13.75,7.12,17,8.83h0c10.44,4.76,11.35-.28,17-2.32,2.72-1,5.43-1.5,8.09-.38,2,.84,3.73,3.71,4.33,5.84a41,41,0,0,1,1.44,6.66,32.22,32.22,0,0,0,11.09,21.87c4.85,4.33,11,7.37,14.57,12.85a7.27,7.27,0,0,1,1.44,4.13,3.24,3.24,0,0,1-2.5,3.2c-1.73.21-3.06-1.45-4.36-2.64-2.36-2.18-5.9-2.14-9.32-3.41a126.76,126.76,0,0,1-13-5.62c-11.2-6.36-24.64-13.37-35.89-18.33,0,0-26.54-4-42.62-7.86-2.25-.54-5.09-1.09-8.33-1.64-19.4,10.14-37.74,20-41.05,22.61C549,373.39,537,372.19,537,372.19L451,358.08l0,0c-25.37-6.91-48.55-14.28-67.25-24.81l-3.49-1.7h0l-4.9-2.38.54-3c-15.4-5-45.37-15-52.57-18.6-9.8-5-48.4-26.88-65.33-36.85-1.6-.94-3.2-2-4.77-3.07-5.5,0-13.79,0-24.31,0-19.07,0-40.45-5.8-48.25-6s-11.71-.24-25,.95S92.31,258,92.31,258a85.63,85.63,0,0,0-8.3,7.21c-2.59,2.84-4.47,2.69-9.38,3.29s-11,.6-15.58,1.94-6.63.9-7.79-1.05,4.48-4,7.36-4.48S69.3,261.8,69.3,261.8H63.81S44.05,259,39,259.11s-5.48-2.54-5.48-2.54c-5.48,0-5.48-4.93-5.48-4.93s30.58-1,35.2-.9,15.29-3,18.46-4.33S92.31,244,92.31,244s27-3.54,38.47-4.73,34.58-4.5,45.6-2.54c9.72,1.73,43.53.94,51.39.73A26.94,26.94,0,0,1,236.3,234s13.22,2.24,18.17,2.21,13.32.25,19.44-1.68,25.18-6.68,32.42-6.83,25.54,2.35,28,2.36S365,232.24,365,232.24,371.38,238.54,375,242.92Z" style="fill:#fff"></path></g></g><g id="Water"><path d="M347.24,209.45a1.39,1.39,0,0,1,.4.35,2.55,2.55,0,0,1,.54,1.4,3.48,3.48,0,0,1-.6,2.31,6.76,6.76,0,0,1-2.41,2.05,32.7,32.7,0,0,1-7.61,2.85,74.9,74.9,0,0,1-9.81,1.62l-1.31.14-.94.11.76-.57c2.69-2,5.16-4.05,7.55-5.72a36.84,36.84,0,0,1,6.7-3.8,13.5,13.5,0,0,1,5-1.4,2.77,2.77,0,0,1,1.37.35,1.35,1.35,0,0,1,.38.31,3.31,3.31,0,0,0-1.75-.47,14.74,14.74,0,0,0-4.83,1.54,38.1,38.1,0,0,0-6.58,3.86c-2.35,1.67-4.81,3.71-7.51,5.74l-.18-.46,1.3-.15a79,79,0,0,0,9.75-1.56,34,34,0,0,0,7.56-2.72,6.66,6.66,0,0,0,2.34-1.88,3.38,3.38,0,0,0,.64-2.13A2.83,2.83,0,0,0,347.24,209.45Z" style="fill:#263238"></path><path d="M142.69,211.79a1.46,1.46,0,0,1,.46-.82,3.07,3.07,0,0,1,2.4-.86,3.39,3.39,0,0,1,2.88,2.37,4.47,4.47,0,0,1,.19,2.28,4.54,4.54,0,0,1-1.1,2.21,4.59,4.59,0,0,1-4.32,1.54,4,4,0,0,1-2.78-2.54,3.81,3.81,0,0,1-.08-2.55,1.91,1.91,0,0,1,.48-.8c.05,0-.14.3-.29.86a3.82,3.82,0,0,0,.23,2.35A3.67,3.67,0,0,0,143.3,218a4.16,4.16,0,0,0,3.83-1.42,4,4,0,0,0,.84-4,3,3,0,0,0-2.46-2.16,2.93,2.93,0,0,0-2.22.64C142.86,211.49,142.74,211.81,142.69,211.79Z" style="fill:#263238"></path><path d="M707.75,234.83l-1.78,0-5.23,0-20.1.05-73.92.09-109.63,0-64.74,0H404.61c-.72,0-1.44-.08-2.16-.12l-4.33-.28-35.19-2.32c-11.88-.83-23.64-1.4-35.18-2.73-5.76-.67-11.45-1.55-17.15-1.71a64,64,0,0,0-16.76,1.9c-5.46,1.25-10.8,2.85-16.17,4.12q-4,1-8.09,1.61c-2.71.39-5.42.65-8.12.8A83.59,83.59,0,0,1,230.17,232c-4.89-1.66-9.56-3.78-14.45-4.84a23.79,23.79,0,0,0-7.36-.58,33,33,0,0,0-7.11,1.74A14.2,14.2,0,0,1,194,229a25.84,25.84,0,0,1-6.64-2.78,20.58,20.58,0,0,0-6.51-2.43,18.33,18.33,0,0,0-6.81.26,47.16,47.16,0,0,0-12.35,5.24,51.59,51.59,0,0,1-5.86,3,33,33,0,0,1-6.2,1.88,56.51,56.51,0,0,1-12.5.89c-4.08-.06-8.08,0-12,0L51.22,235l-20.1-.06-5.22,0-1.78,0s.6,0,1.78,0l5.22,0,20.1,0,73.92-.05c3.9,0,7.89,0,12,0a56.85,56.85,0,0,0,12.42-.9,32.19,32.19,0,0,0,6.12-1.87,52.53,52.53,0,0,0,5.81-3,47.65,47.65,0,0,1,12.46-5.3,18.81,18.81,0,0,1,7-.27,20.73,20.73,0,0,1,6.64,2.46,25.42,25.42,0,0,0,6.53,2.74,13.89,13.89,0,0,0,7.05-.71,32.55,32.55,0,0,1,7.2-1.77,24,24,0,0,1,7.5.58c5,1.08,9.64,3.2,14.51,4.85a83.39,83.39,0,0,0,31.1,4.35c2.69-.15,5.39-.42,8.08-.81s5.37-.95,8-1.6c5.36-1.27,10.69-2.87,16.17-4.13a64.57,64.57,0,0,1,16.9-1.91c5.73.15,11.44,1,17.19,1.71,11.51,1.32,23.28,1.89,35.15,2.72l35.18,2.32,4.33.28c.72,0,1.44.12,2.16.12H497.1l109.63.06,73.91.08,20.1.05,5.23,0Z" style="fill:#263238"></path><path d="M410.46,237.93s-.28.1-.84.25-1.38.39-2.46.66c-2.17.54-5.38,1.27-9.51,1.94a119.89,119.89,0,0,1-34.74.43l.16-.39a5.13,5.13,0,0,1,1.83,2.84,7.2,7.2,0,0,1-.1,3.45,7.61,7.61,0,0,1-1.68,3.09,8.66,8.66,0,0,1-2.95,2.05,16.49,16.49,0,0,1-7.23,1.08,42.14,42.14,0,0,1-7.48-1.07A44.22,44.22,0,0,1,331,246c-2.23-1.43-4.68-2.89-7.4-2.71a5.26,5.26,0,0,0-3.56,1.5,9.9,9.9,0,0,0-1.83,3.62,14,14,0,0,1-2.88,4.85,15.83,15.83,0,0,1-4.46,3.36,20.85,20.85,0,0,1-10.57,2.2,27.27,27.27,0,0,1-10.08-2.71,52.61,52.61,0,0,1-8.58-5.16c-1.32-.95-2.6-1.93-3.85-2.9s-2.47-1.94-3.75-2.77a13.21,13.21,0,0,0-4.05-1.85,8.49,8.49,0,0,0-4.25.08c-2.75.76-5,2.52-7.23,4a29.67,29.67,0,0,1-3.42,2,15.65,15.65,0,0,1-3.61,1.21,18.65,18.65,0,0,1-7,0,23.9,23.9,0,0,1-6-1.94,37.82,37.82,0,0,1-8.31-5.6c-2.08-1.8-3.59-3.31-4.62-4.33l-1.16-1.16-.39-.41s.15.12.42.37l1.2,1.13c1.05,1,2.59,2.47,4.69,4.24a37.88,37.88,0,0,0,8.29,5.5,24.14,24.14,0,0,0,5.9,1.88,18.67,18.67,0,0,0,6.91,0,15.34,15.34,0,0,0,3.51-1.2,28.67,28.67,0,0,0,3.37-2c2.22-1.45,4.47-3.25,7.34-4.06a9.09,9.09,0,0,1,4.46-.1,13.94,13.94,0,0,1,4.2,1.9c1.3.85,2.54,1.82,3.79,2.79s2.52,1.94,3.84,2.88a53,53,0,0,0,8.51,5.1,27.09,27.09,0,0,0,9.9,2.66,20.53,20.53,0,0,0,10.3-2.16A15.34,15.34,0,0,0,315,252.9a13.44,13.44,0,0,0,2.78-4.68,10.4,10.4,0,0,1,1.94-3.8,5.78,5.78,0,0,1,3.91-1.66,9,9,0,0,1,4.12.8,25,25,0,0,1,3.59,2,43.72,43.72,0,0,0,14.28,6.23,42,42,0,0,0,7.39,1.07,16,16,0,0,0,7-1,8.21,8.21,0,0,0,2.8-1.93,7.17,7.17,0,0,0,1.58-2.9,6.68,6.68,0,0,0,.11-3.23,4.66,4.66,0,0,0-1.66-2.59l-.66-.5.82.11a121.07,121.07,0,0,0,34.64-.25c4.13-.63,7.34-1.32,9.52-1.82l2.48-.59C410.17,238,410.46,237.93,410.46,237.93Z" style="fill:#263238"></path><path d="M527.35,248.83a2.5,2.5,0,0,1-.39.36,6.71,6.71,0,0,1-1.3.8,11,11,0,0,1-5.51.84c-2.39-.12-5.1-1-8.12-1.58a15.73,15.73,0,0,0-4.77-.26,18.93,18.93,0,0,0-4.93,1.49,22.85,22.85,0,0,1-5,1.62,14.54,14.54,0,0,1-4.93,0,19,19,0,0,1-4.27-1.28,29.53,29.53,0,0,1-3.47-1.72A50.63,50.63,0,0,1,480,246c-.53-.38-.94-.69-1.21-.91s-.41-.33-.4-.35a2.38,2.38,0,0,1,.46.27l1.27.82c1.1.72,2.68,1.78,4.73,2.9a30.92,30.92,0,0,0,3.45,1.64,19.33,19.33,0,0,0,4.19,1.2,14.08,14.08,0,0,0,4.76,0,22.05,22.05,0,0,0,4.92-1.6,19.52,19.52,0,0,1,5.07-1.51,16,16,0,0,1,4.92.3c3.07.63,5.72,1.53,8.06,1.69a11.26,11.26,0,0,0,5.4-.66A16.66,16.66,0,0,0,527.35,248.83Z" style="fill:#263238"></path><path d="M530.55,242.65s.12-.12.39-.12a1.43,1.43,0,0,1,1,.45,1.78,1.78,0,0,1,.51,1.58,1.83,1.83,0,0,1-1.54,1.33,2,2,0,0,1-1.9-.69,2.29,2.29,0,0,1-.47-1.57c.08-.95.59-1.35.62-1.31a4.74,4.74,0,0,0-.25,1.31,2,2,0,0,0,.47,1.26,1.54,1.54,0,0,0,1.45.48,1.34,1.34,0,0,0,1.15-.92,1.43,1.43,0,0,0-.31-1.22A1.73,1.73,0,0,0,530.55,242.65Z" style="fill:#263238"></path><path d="M430.82,344.78a2.06,2.06,0,0,1-.33.29c-.23.18-.56.47-1,.81a20.9,20.9,0,0,1-4.43,2.36,21.78,21.78,0,0,1-7.8,1.45,20.85,20.85,0,0,1-10.17-2.53,56.11,56.11,0,0,1-5.09-3.43,23.66,23.66,0,0,0-5.7-3.21,14.66,14.66,0,0,0-6.9-.51,29.76,29.76,0,0,0-7.1,2.23c-2.36,1-4.73,2.18-7.22,3.24a32.43,32.43,0,0,1-7.92,2.44,25.34,25.34,0,0,1-8.58-.41,63.45,63.45,0,0,1-8.47-2.5c-2.81-1-5.56-2-8.33-2.78A28.8,28.8,0,0,0,333.4,341a17.65,17.65,0,0,0-4.06.53,15.14,15.14,0,0,0-3.79,1.35c-2.41,1.17-4.59,2.66-6.82,4a22.86,22.86,0,0,1-7,2.95,22,22,0,0,1-7.13.19,76.85,76.85,0,0,1-12.37-3.16,39.42,39.42,0,0,0-10.24-2,20.23,20.23,0,0,0-7.78,1,12.72,12.72,0,0,0-4.27,2.5c-.84.78-1.22,1.25-1.25,1.23a11.75,11.75,0,0,1,1.18-1.31,12.4,12.4,0,0,1,4.27-2.61,20.28,20.28,0,0,1,7.86-1.09,39.33,39.33,0,0,1,10.34,1.94,79.29,79.29,0,0,0,12.31,3.09,21.7,21.7,0,0,0,7-.22,22.72,22.72,0,0,0,6.82-2.91c2.21-1.31,4.39-2.81,6.84-4a15.81,15.81,0,0,1,3.89-1.39,18.13,18.13,0,0,1,4.17-.55,28.77,28.77,0,0,1,8.49,1.29c2.81.79,5.57,1.8,8.37,2.79a62.67,62.67,0,0,0,8.4,2.48,25.12,25.12,0,0,0,8.4.42,32.62,32.62,0,0,0,7.81-2.39c2.47-1,4.84-2.22,7.22-3.23a30.11,30.11,0,0,1,7.22-2.24,14.9,14.9,0,0,1,7.11.56,23.18,23.18,0,0,1,5.79,3.29,56.86,56.86,0,0,0,5,3.42,20.61,20.61,0,0,0,10,2.57,21.65,21.65,0,0,0,7.73-1.35,21.94,21.94,0,0,0,4.44-2.26c.47-.32.81-.59,1.06-.76A2.89,2.89,0,0,1,430.82,344.78Z" style="fill:#263238"></path><path d="M638.62,296.71a1.13,1.13,0,0,1-.3,0l-.89-.07-3.41-.29c-3-.25-7.24-.66-12.54-.78A71.69,71.69,0,0,0,603,297.31c-3.4.81-6.88,2.08-10.65,2.86a24.66,24.66,0,0,1-5.85.56,18.84,18.84,0,0,1-5.93-1.26c-3.82-1.47-7.17-3.67-10.71-5a17.26,17.26,0,0,0-10.66-.87,43.44,43.44,0,0,0-9.27,3.46c-2.82,1.34-5.42,2.68-7.92,3.61a30.29,30.29,0,0,1-7,1.78,17.28,17.28,0,0,1-5.43-.16,15.07,15.07,0,0,1-1.91-.53c-.53-.22-1-.41-1.33-.59l-.77-.45c-.17-.1-.26-.16-.25-.17a14.62,14.62,0,0,0,4.3,1.54,17.34,17.34,0,0,0,5.35.08,30.72,30.72,0,0,0,6.87-1.84c2.48-.95,5-2.29,7.87-3.66a43.55,43.55,0,0,1,9.35-3.54,17.73,17.73,0,0,1,11,.86c3.61,1.39,7,3.58,10.71,5a18.11,18.11,0,0,0,5.76,1.23,24.27,24.27,0,0,0,5.73-.54c3.72-.76,7.2-2,10.63-2.83a70.57,70.57,0,0,1,18.6-1.63c5.32.16,9.6.63,12.55.93l3.4.4.88.12Z" style="fill:#263238"></path><path d="M234.46,400.64a1,1,0,0,1-.3,0l-.89-.06-3.41-.3c-3-.24-7.24-.65-12.55-.77a71.64,71.64,0,0,0-18.47,1.73c-3.4.81-6.87,2.08-10.64,2.87a25.19,25.19,0,0,1-5.85.55,18.78,18.78,0,0,1-5.93-1.26c-3.83-1.47-7.17-3.66-10.71-5a18.13,18.13,0,0,0-5.38-1.29,18.63,18.63,0,0,0-5.29.42,43.32,43.32,0,0,0-9.27,3.47c-2.81,1.34-5.41,2.67-7.92,3.6a29.65,29.65,0,0,1-7,1.79,17,17,0,0,1-5.43-.17,14.71,14.71,0,0,1-1.91-.52c-.53-.23-1-.41-1.33-.59l-.77-.45c-.17-.11-.26-.16-.25-.17a14.46,14.46,0,0,0,4.3,1.54,17.7,17.7,0,0,0,5.35.07,30.86,30.86,0,0,0,6.87-1.84c2.47-.94,5.05-2.29,7.87-3.65a43,43,0,0,1,9.35-3.55,17.83,17.83,0,0,1,11,.87c3.6,1.39,6.95,3.58,10.7,5a18,18,0,0,0,5.77,1.23,24.19,24.19,0,0,0,5.72-.53c3.73-.77,7.21-2,10.64-2.84a71,71,0,0,1,18.59-1.63c5.32.17,9.6.63,12.56.94l3.4.39.88.12Z" style="fill:#263238"></path><path d="M565.31,401.07A2.19,2.19,0,0,1,565,401l-.77-.36c-.33-.17-.76-.35-1.26-.55s-1.08-.45-1.75-.68a32.86,32.86,0,0,0-11.73-1.93,32.11,32.11,0,0,0-8.14,1.17c-2.87.74-5.7,2.23-9,3.17a13.22,13.22,0,0,1-5.19.52,13.9,13.9,0,0,1-5.1-1.86c-1.61-.91-3.11-2-4.7-3a16.87,16.87,0,0,0-5.11-2.32,10.52,10.52,0,0,0-5.51.4,23.22,23.22,0,0,0-4.9,2.47c-3.06,1.93-5.9,4.13-9.14,5.26a16.61,16.61,0,0,1-9.5.27c-2.93-.65-5.55-1.6-8-2.3-4.84-1.43-9.08-1.41-11.73-.44a10.54,10.54,0,0,0-3.73,2.23s.06-.08.19-.22.33-.35.62-.59a9.72,9.72,0,0,1,2.85-1.61c2.68-1.05,7-1.12,11.9.28,2.45.67,5.07,1.6,8,2.23a16.27,16.27,0,0,0,9.25-.3c3.14-1.11,5.95-3.28,9-5.24a24.3,24.3,0,0,1,5-2.54,11,11,0,0,1,5.78-.4,17.26,17.26,0,0,1,5.27,2.38c1.61,1,3.11,2.09,4.68,3a13.47,13.47,0,0,0,4.91,1.8,12.71,12.71,0,0,0,5-.48c3.19-.9,6.06-2.39,9-3.13a32.71,32.71,0,0,1,20.05,1A24.12,24.12,0,0,1,565.31,401.07Z" style="fill:#263238"></path><path d="M234.35,295.82a1.85,1.85,0,0,1-.23-.31l-.64-.91a16.43,16.43,0,0,0-1.18-1.38,8.2,8.2,0,0,0-.85-.78,7.78,7.78,0,0,0-1-.82,17.1,17.1,0,0,0-6.14-2.76,29.89,29.89,0,0,0-8.92-.68,44.6,44.6,0,0,0-10.66,2.17c-3.76,1.13-7.73,2.55-12.05,3.59a30.79,30.79,0,0,1-13.86.6c-4.79-1-9.14-3.68-14-5a17.3,17.3,0,0,0-7.38-.49,32.45,32.45,0,0,0-7,2.06c-4.43,1.76-8.77,3.78-13.3,4a37.07,37.07,0,0,1-12.44-1.88c-3.78-1.11-7.25-2.31-10.5-3a31.1,31.1,0,0,0-8.93-.66,18.42,18.42,0,0,0-6.52,1.69,13.89,13.89,0,0,0-3.49,2.45l-.75.82a2.33,2.33,0,0,1-.27.28,1.62,1.62,0,0,1,.23-.31c.16-.2.39-.49.72-.86a13.27,13.27,0,0,1,3.47-2.56,18.34,18.34,0,0,1,6.59-1.8,31.12,31.12,0,0,1,9,.59c3.3.69,6.78,1.87,10.55,3a36.57,36.57,0,0,0,12.29,1.82c4.41-.24,8.68-2.23,13.14-4a33,33,0,0,1,7.09-2.09,17.77,17.77,0,0,1,7.59.5c5,1.38,9.32,4,14,5a30.59,30.59,0,0,0,13.64-.58c4.29-1,8.26-2.41,12-3.54a45.34,45.34,0,0,1,10.76-2.12,30,30,0,0,1,9,.77,17.32,17.32,0,0,1,6.19,2.87,8.83,8.83,0,0,1,1,.85,8.17,8.17,0,0,1,.84.81,16,16,0,0,1,1.15,1.42l.6,1A2.21,2.21,0,0,1,234.35,295.82Z" style="fill:#263238"></path></g></svg>
