<svg xmlns="http://www.w3.org/2000/svg" viewBox="0 0 500 500"><g id="background-complete"><path d="M329,213.56s0-.3,0-.85,0-1.4,0-2.47c0-2.18,0-5.36,0-9.47,0-8.23,0-20.12-.07-34.87,0-29.47-.07-70.33-.12-115.95l.26.26H318.33l.26-.26c-.08,75-.15,138.82-.17,162.25l-.08-.09,8,1.07,2,.28.68.1-.65-.07-2-.23-8.06-1h-.08v-.08c0-23.43-.09-87.21-.17-162.25v-.26h11.21V50c0,45.7-.08,86.63-.11,116.16,0,14.72-.06,26.59-.08,34.8,0,4.08,0,7.24,0,9.4,0,1.06,0,1.87,0,2.43S329,213.56,329,213.56Z" style="fill:#ebebeb"></path><path d="M388.06,213.08s0-.29,0-.85,0-1.38,0-2.46c0-2.16,0-5.34,0-9.43,0-8.2-.05-20.06-.08-34.76,0-29.38-.07-70.13-.11-115.63l.26.26H377.7L378,50c-.08,75.72-.15,140.07-.17,163.13l-.09-.08,7.76.05,1.94,0h.66l-.63,0-1.92,0-7.81,0h-.08v-.09c0-23.06-.1-87.41-.18-163.13v-.26h10.88V50c0,45.58-.08,86.39-.11,115.82,0,14.68-.06,26.52-.08,34.7,0,4.06,0,7.22,0,9.37,0,1.06,0,1.87,0,2.43S388.06,213.08,388.06,213.08Z" style="fill:#ebebeb"></path><path d="M415.42,115c0,.14-28.13.26-62.81.26s-62.82-.12-62.82-.26,28.12-.27,62.82-.27S415.42,114.86,415.42,115Z" style="fill:#ebebeb"></path><path d="M415.42,95.39c0,.14-28.13.26-62.81.26s-62.82-.12-62.82-.26,28.12-.26,62.82-.26S415.42,95.24,415.42,95.39Z" style="fill:#ebebeb"></path><path d="M415.42,75.77c0,.14-28.13.26-62.81.26s-62.82-.12-62.82-.26,28.12-.26,62.82-.26S415.42,75.62,415.42,75.77Z" style="fill:#ebebeb"></path><path d="M415.42,56.15c0,.14-28.13.26-62.81.26s-62.82-.12-62.82-.26,28.12-.26,62.82-.26S415.42,56,415.42,56.15Z" style="fill:#ebebeb"></path><circle cx="291.13" cy="116.05" r="8.18" transform="translate(3.21 239.85) rotate(-45)" style="fill:#fafafa"></circle><path d="M291.13,124.73a8.68,8.68,0,1,1,8.68-8.67A8.68,8.68,0,0,1,291.13,124.73Zm0-16.35a7.68,7.68,0,1,0,7.68,7.68A7.69,7.69,0,0,0,291.13,108.38Z" style="fill:#ebebeb"></path><circle cx="311.91" cy="116.05" r="8.18" transform="translate(134.2 397.43) rotate(-78.13)" style="fill:#fafafa"></circle><path d="M311.91,124.73a8.68,8.68,0,1,1,8.67-8.67A8.68,8.68,0,0,1,311.91,124.73Zm0-16.35a7.68,7.68,0,1,0,7.67,7.68A7.68,7.68,0,0,0,311.91,108.38Z" style="fill:#ebebeb"></path><circle cx="332.68" cy="116.05" r="8.18" transform="translate(40.11 312.39) rotate(-53.09)" style="fill:#fafafa"></circle><path d="M332.69,124.73a8.68,8.68,0,1,1,8.67-8.67A8.68,8.68,0,0,1,332.69,124.73Zm0-16.35a7.68,7.68,0,1,0,7.67,7.68A7.68,7.68,0,0,0,332.69,108.38Z" style="fill:#ebebeb"></path><circle cx="353.46" cy="116.05" r="8.18" transform="translate(159.57 433.56) rotate(-76.76)" style="fill:#fafafa"></circle><path d="M353.46,124.73a8.68,8.68,0,1,1,8.68-8.67A8.69,8.69,0,0,1,353.46,124.73Zm0-16.35a7.68,7.68,0,1,0,7.68,7.68A7.69,7.69,0,0,0,353.46,108.38Z" style="fill:#ebebeb"></path><circle cx="374.24" cy="116.05" r="8.18" transform="translate(27.55 298.62) rotate(-45)" style="fill:#fafafa"></circle><path d="M374.24,124.73a8.68,8.68,0,1,1,8.68-8.67A8.69,8.69,0,0,1,374.24,124.73Zm0-16.35a7.68,7.68,0,1,0,7.68,7.68A7.69,7.69,0,0,0,374.24,108.38Z" style="fill:#ebebeb"></path><circle cx="395.02" cy="116.05" r="8.18" transform="translate(191.61 474.01) rotate(-76.76)" style="fill:#fafafa"></circle><path d="M395,124.73a8.68,8.68,0,1,1,8.68-8.67A8.68,8.68,0,0,1,395,124.73Zm0-16.35a7.68,7.68,0,1,0,7.68,7.68A7.69,7.69,0,0,0,395,108.38Z" style="fill:#ebebeb"></path><circle cx="415.8" cy="116.05" r="8.18" transform="translate(-14.84 146.22) rotate(-19.6)" style="fill:#fafafa"></circle><path d="M415.8,124.73a8.68,8.68,0,1,1,8.68-8.67A8.68,8.68,0,0,1,415.8,124.73Zm0-16.35a7.68,7.68,0,1,0,7.68,7.68A7.68,7.68,0,0,0,415.8,108.38Z" style="fill:#ebebeb"></path><circle cx="311.91" cy="95.92" r="8.18" transform="translate(153.9 381.44) rotate(-78.13)" style="fill:#fafafa"></circle><path d="M311.91,104.59a8.68,8.68,0,1,1,8.67-8.67A8.68,8.68,0,0,1,311.91,104.59Zm0-16.35a7.68,7.68,0,1,0,7.67,7.68A7.68,7.68,0,0,0,311.91,88.24Z" style="fill:#ebebeb"></path><circle cx="332.68" cy="95.92" r="8.18" transform="translate(56.21 304.34) rotate(-53.09)" style="fill:#fafafa"></circle><path d="M332.69,104.59a8.68,8.68,0,1,1,8.67-8.67A8.68,8.68,0,0,1,332.69,104.59Zm0-16.35a7.68,7.68,0,1,0,7.67,7.68A7.68,7.68,0,0,0,332.69,88.24Z" style="fill:#ebebeb"></path><circle cx="353.46" cy="95.92" r="8.18" transform="translate(179.17 418.03) rotate(-76.76)" style="fill:#fafafa"></circle><path d="M353.46,104.59a8.68,8.68,0,1,1,8.68-8.67A8.69,8.69,0,0,1,353.46,104.59Zm0-16.35a7.68,7.68,0,1,0,7.68,7.68A7.69,7.69,0,0,0,353.46,88.24Z" style="fill:#ebebeb"></path><circle cx="374.24" cy="95.92" r="8.18" transform="translate(41.79 292.72) rotate(-45)" style="fill:#fafafa"></circle><path d="M374.24,104.59a8.68,8.68,0,1,1,8.68-8.67A8.69,8.69,0,0,1,374.24,104.59Zm0-16.35a7.68,7.68,0,1,0,7.68,7.68A7.69,7.69,0,0,0,374.24,88.24Z" style="fill:#ebebeb"></path><circle cx="395.02" cy="95.92" r="8.18" transform="translate(211.21 458.48) rotate(-76.76)" style="fill:#fafafa"></circle><path d="M395,104.59a8.68,8.68,0,1,1,8.68-8.67A8.68,8.68,0,0,1,395,104.59Zm0-16.35a7.68,7.68,0,1,0,7.68,7.68A7.69,7.69,0,0,0,395,88.24Z" style="fill:#ebebeb"></path><circle cx="415.8" cy="95.92" r="8.18" transform="translate(-8.08 145.06) rotate(-19.6)" style="fill:#fafafa"></circle><path d="M415.8,104.59a8.68,8.68,0,1,1,8.68-8.67A8.68,8.68,0,0,1,415.8,104.59Zm0-16.35a7.68,7.68,0,1,0,7.68,7.68A7.68,7.68,0,0,0,415.8,88.24Z" style="fill:#ebebeb"></path><circle cx="291.13" cy="95.69" r="8.18" transform="translate(17.61 233.89) rotate(-45)" style="fill:#fafafa"></circle><path d="M291.13,104.37a8.68,8.68,0,1,1,8.68-8.68A8.69,8.69,0,0,1,291.13,104.37Zm0-16.36a7.68,7.68,0,1,0,7.68,7.68A7.69,7.69,0,0,0,291.13,88Z" style="fill:#ebebeb"></path><circle cx="311.91" cy="76.03" r="8.18" transform="translate(173.37 365.64) rotate(-78.13)" style="fill:#fafafa"></circle><path d="M311.91,84.7A8.68,8.68,0,1,1,320.58,76,8.68,8.68,0,0,1,311.91,84.7Zm0-16.35A7.68,7.68,0,1,0,319.58,76,7.68,7.68,0,0,0,311.91,68.35Z" style="fill:#ebebeb"></path><circle cx="332.68" cy="76.03" r="8.18" transform="translate(72.11 296.39) rotate(-53.09)" style="fill:#fafafa"></circle><path d="M332.69,84.7A8.68,8.68,0,1,1,341.36,76,8.68,8.68,0,0,1,332.69,84.7Zm0-16.35A7.68,7.68,0,1,0,340.36,76,7.68,7.68,0,0,0,332.69,68.35Z" style="fill:#ebebeb"></path><circle cx="353.46" cy="76.03" r="8.18" transform="translate(198.53 402.69) rotate(-76.76)" style="fill:#fafafa"></circle><path d="M353.46,84.7A8.68,8.68,0,1,1,362.14,76,8.69,8.69,0,0,1,353.46,84.7Zm0-16.35A7.68,7.68,0,1,0,361.14,76,7.69,7.69,0,0,0,353.46,68.35Z" style="fill:#ebebeb"></path><circle cx="374.24" cy="76.03" r="8.18" transform="translate(55.85 286.9) rotate(-45)" style="fill:#fafafa"></circle><path d="M374.24,84.7A8.68,8.68,0,1,1,382.92,76,8.69,8.69,0,0,1,374.24,84.7Zm0-16.35A7.68,7.68,0,1,0,381.92,76,7.69,7.69,0,0,0,374.24,68.35Z" style="fill:#ebebeb"></path><circle cx="395.02" cy="76.03" r="8.18" transform="translate(230.57 443.15) rotate(-76.76)" style="fill:#fafafa"></circle><path d="M395,84.7A8.68,8.68,0,1,1,403.7,76,8.68,8.68,0,0,1,395,84.7Zm0-16.35A7.68,7.68,0,1,0,402.7,76,7.69,7.69,0,0,0,395,68.35Z" style="fill:#ebebeb"></path><circle cx="415.8" cy="76.03" r="8.18" transform="translate(-1.41 143.9) rotate(-19.6)" style="fill:#fafafa"></circle><path d="M415.8,84.7A8.68,8.68,0,1,1,424.48,76,8.68,8.68,0,0,1,415.8,84.7Zm0-16.35A7.68,7.68,0,1,0,423.48,76,7.68,7.68,0,0,0,415.8,68.35Z" style="fill:#ebebeb"></path><circle cx="291.13" cy="75.8" r="8.18" transform="translate(31.67 228.06) rotate(-45)" style="fill:#fafafa"></circle><path d="M291.13,84.48a8.68,8.68,0,1,1,8.68-8.68A8.69,8.69,0,0,1,291.13,84.48Zm0-16.36a7.68,7.68,0,1,0,7.68,7.68A7.69,7.69,0,0,0,291.13,68.12Z" style="fill:#ebebeb"></path><circle cx="311.91" cy="56.14" r="8.18" transform="translate(192.83 349.83) rotate(-78.13)" style="fill:#fafafa"></circle><path d="M311.91,64.81a8.68,8.68,0,1,1,8.67-8.67A8.68,8.68,0,0,1,311.91,64.81Zm0-16.35a7.68,7.68,0,1,0,7.67,7.68A7.68,7.68,0,0,0,311.91,48.46Z" style="fill:#ebebeb"></path><circle cx="332.68" cy="56.14" r="8.18" transform="translate(88.02 288.45) rotate(-53.09)" style="fill:#fafafa"></circle><path d="M332.69,64.81a8.68,8.68,0,1,1,8.67-8.67A8.68,8.68,0,0,1,332.69,64.81Zm0-16.35a7.68,7.68,0,1,0,7.67,7.68A7.68,7.68,0,0,0,332.69,48.46Z" style="fill:#ebebeb"></path><circle cx="353.46" cy="56.14" r="8.18" transform="translate(217.89 387.36) rotate(-76.76)" style="fill:#fafafa"></circle><path d="M353.46,64.81a8.68,8.68,0,1,1,8.68-8.67A8.69,8.69,0,0,1,353.46,64.81Zm0-16.35a7.68,7.68,0,1,0,7.68,7.68A7.69,7.69,0,0,0,353.46,48.46Z" style="fill:#ebebeb"></path><circle cx="374.24" cy="56.14" r="8.18" transform="translate(69.92 281.07) rotate(-45)" style="fill:#fafafa"></circle><path d="M374.24,64.81a8.68,8.68,0,1,1,8.68-8.67A8.69,8.69,0,0,1,374.24,64.81Zm0-16.35a7.68,7.68,0,1,0,7.68,7.68A7.69,7.69,0,0,0,374.24,48.46Z" style="fill:#ebebeb"></path><circle cx="395.02" cy="56.14" r="8.18" transform="translate(249.93 427.81) rotate(-76.76)" style="fill:#fafafa"></circle><path d="M395,64.81a8.68,8.68,0,1,1,8.68-8.67A8.68,8.68,0,0,1,395,64.81Zm0-16.35a7.68,7.68,0,1,0,7.68,7.68A7.69,7.69,0,0,0,395,48.46Z" style="fill:#ebebeb"></path><circle cx="415.8" cy="56.14" r="8.18" transform="translate(5.27 142.75) rotate(-19.6)" style="fill:#fafafa"></circle><path d="M415.8,64.81a8.68,8.68,0,1,1,8.68-8.67A8.68,8.68,0,0,1,415.8,64.81Zm0-16.35a7.68,7.68,0,1,0,7.68,7.68A7.68,7.68,0,0,0,415.8,48.46Z" style="fill:#ebebeb"></path><circle cx="291.13" cy="55.91" r="8.18" transform="translate(45.74 222.23) rotate(-45)" style="fill:#fafafa"></circle><path d="M291.13,64.59a8.68,8.68,0,1,1,8.68-8.68A8.69,8.69,0,0,1,291.13,64.59Zm0-16.36a7.68,7.68,0,1,0,7.68,7.68A7.69,7.69,0,0,0,291.13,48.23Z" style="fill:#ebebeb"></path><path d="M108.47,218s0-.3,0-.86,0-1.42,0-2.51c0-2.21,0-5.45,0-9.62,0-8.35-.05-20.44-.08-35.42,0-29.95-.07-71.49-.11-117.88l.26.26H97.78l.26-.26C98,128.76,97.89,194.3,97.86,218l-.08-.08,8,0,2,0h.68l-.65,0-2,0-8,0h-.09V218c0-23.65-.09-89.19-.17-166.29V51.4h11.21v.26c0,46.47-.08,88.07-.11,118.07,0,15-.06,27-.08,35.36,0,4.15,0,7.37,0,9.56,0,1.08,0,1.9,0,2.47S108.47,218,108.47,218Z" style="fill:#ebebeb"></path><path d="M167.51,218s0-.3,0-.86,0-1.42,0-2.51c0-2.21,0-5.45,0-9.62,0-8.36,0-20.45-.08-35.43,0-30-.06-71.49-.1-117.87l.26.26H157.15l.26-.26c-.08,77.33-.15,143-.18,166.29l-.08-.08,7.76,0,1.94,0h.66l-.63,0L165,218l-7.81,0h-.09V218c0-23.29-.09-89-.17-166.29V51.4h10.88v.26c-.05,46.45-.09,88.06-.11,118.06,0,15-.06,27-.08,35.37,0,4.15,0,7.36,0,9.56,0,1.08,0,1.9,0,2.47S167.51,218,167.51,218Z" style="fill:#ebebeb"></path><path d="M194.86,116.72c0,.15-28.12.26-62.81.26s-62.81-.11-62.81-.26,28.12-.26,62.81-.26S194.86,116.58,194.86,116.72Z" style="fill:#ebebeb"></path><path d="M194.86,97.1c0,.15-28.12.26-62.81.26s-62.81-.11-62.81-.26,28.12-.26,62.81-.26S194.86,97,194.86,97.1Z" style="fill:#ebebeb"></path><path d="M194.86,77.48c0,.15-28.12.26-62.81.26s-62.81-.11-62.81-.26,28.12-.26,62.81-.26S194.86,77.34,194.86,77.48Z" style="fill:#ebebeb"></path><path d="M194.86,57.86c0,.15-28.12.27-62.81.27S69.24,58,69.24,57.86s28.12-.26,62.81-.26S194.86,57.72,194.86,57.86Z" style="fill:#ebebeb"></path><circle cx="70.58" cy="117.77" r="8.18" transform="translate(-60.3 159.29) rotate(-76.67)" style="fill:#fafafa"></circle><path d="M70.58,126.45a8.68,8.68,0,1,1,8.67-8.68A8.68,8.68,0,0,1,70.58,126.45Zm0-16.36a7.68,7.68,0,1,0,7.67,7.68A7.69,7.69,0,0,0,70.58,110.09Z" style="fill:#ebebeb"></path><circle cx="91.35" cy="117.77" r="8.18" transform="translate(-56.78 101.23) rotate(-45.83)" style="fill:#fafafa"></circle><path d="M91.35,126.45a8.68,8.68,0,1,1,8.68-8.68A8.68,8.68,0,0,1,91.35,126.45Zm0-16.36A7.68,7.68,0,1,0,99,117.77,7.69,7.69,0,0,0,91.35,110.09Z" style="fill:#ebebeb"></path><circle cx="112.13" cy="117.77" r="8.18" transform="translate(-27.98 200.32) rotate(-76.91)" style="fill:#fafafa"></circle><path d="M112.13,126.45a8.68,8.68,0,1,1,8.68-8.68A8.69,8.69,0,0,1,112.13,126.45Zm0-16.36a7.68,7.68,0,1,0,7.68,7.68A7.69,7.69,0,0,0,112.13,110.09Z" style="fill:#ebebeb"></path><circle cx="132.91" cy="117.77" r="8.18" transform="translate(-44.35 128.48) rotate(-45)" style="fill:#fafafa"></circle><path d="M132.91,126.45a8.68,8.68,0,1,1,8.68-8.68A8.68,8.68,0,0,1,132.91,126.45Zm0-16.36a7.68,7.68,0,1,0,7.68,7.68A7.69,7.69,0,0,0,132.91,110.09Z" style="fill:#ebebeb"></path><circle cx="153.69" cy="117.77" r="8.18" transform="translate(3.65 240.17) rotate(-76.67)" style="fill:#fafafa"></circle><path d="M153.69,126.45a8.68,8.68,0,1,1,8.68-8.68A8.68,8.68,0,0,1,153.69,126.45Zm0-16.36a7.68,7.68,0,1,0,7.68,7.68A7.69,7.69,0,0,0,153.69,110.09Z" style="fill:#ebebeb"></path><circle cx="174.47" cy="117.77" r="8.18" transform="translate(-32.18 157.86) rotate(-45)" style="fill:#fafafa"></circle><path d="M174.47,126.45a8.68,8.68,0,1,1,8.67-8.68A8.68,8.68,0,0,1,174.47,126.45Zm0-16.36a7.68,7.68,0,1,0,7.67,7.68A7.69,7.69,0,0,0,174.47,110.09Z" style="fill:#ebebeb"></path><circle cx="195.24" cy="117.77" r="8.18" transform="translate(47.65 291.57) rotate(-80.76)" style="fill:#fafafa"></circle><path d="M195.24,126.45a8.68,8.68,0,1,1,8.68-8.68A8.68,8.68,0,0,1,195.24,126.45Zm0-16.36a7.68,7.68,0,1,0,7.68,7.68A7.69,7.69,0,0,0,195.24,110.09Z" style="fill:#ebebeb"></path><circle cx="91.35" cy="97.63" r="8.18" transform="translate(-42.33 95.12) rotate(-45.83)" style="fill:#fafafa"></circle><path d="M91.35,106.31A8.68,8.68,0,1,1,100,97.63,8.68,8.68,0,0,1,91.35,106.31Zm0-16.35A7.68,7.68,0,1,0,99,97.63,7.68,7.68,0,0,0,91.35,90Z" style="fill:#ebebeb"></path><circle cx="112.13" cy="97.63" r="8.18" transform="translate(-8.36 184.74) rotate(-76.91)" style="fill:#fafafa"></circle><path d="M112.13,106.31a8.68,8.68,0,1,1,8.68-8.68A8.69,8.69,0,0,1,112.13,106.31Zm0-16.35a7.68,7.68,0,1,0,7.68,7.67A7.69,7.69,0,0,0,112.13,90Z" style="fill:#ebebeb"></path><circle cx="132.91" cy="97.63" r="8.18" transform="translate(-30.11 122.58) rotate(-45)" style="fill:#fafafa"></circle><path d="M132.91,106.31a8.68,8.68,0,1,1,8.68-8.68A8.68,8.68,0,0,1,132.91,106.31Zm0-16.35a7.68,7.68,0,1,0,7.68,7.67A7.69,7.69,0,0,0,132.91,90Z" style="fill:#ebebeb"></path><circle cx="153.69" cy="97.63" r="8.18" transform="translate(23.25 224.67) rotate(-76.67)" style="fill:#fafafa"></circle><path d="M153.69,106.31a8.68,8.68,0,1,1,8.68-8.68A8.68,8.68,0,0,1,153.69,106.31Zm0-16.35a7.68,7.68,0,1,0,7.68,7.67A7.68,7.68,0,0,0,153.69,90Z" style="fill:#ebebeb"></path><circle cx="174.47" cy="97.63" r="8.18" transform="translate(-17.94 151.96) rotate(-45)" style="fill:#fafafa"></circle><path d="M174.47,106.31a8.68,8.68,0,1,1,8.67-8.68A8.68,8.68,0,0,1,174.47,106.31Zm0-16.35a7.68,7.68,0,1,0,7.67,7.67A7.68,7.68,0,0,0,174.47,90Z" style="fill:#ebebeb"></path><circle cx="195.24" cy="97.63" r="8.18" transform="translate(67.52 274.66) rotate(-80.76)" style="fill:#fafafa"></circle><path d="M195.24,106.31a8.68,8.68,0,1,1,8.68-8.68A8.68,8.68,0,0,1,195.24,106.31Zm0-16.35a7.68,7.68,0,1,0,7.68,7.67A7.68,7.68,0,0,0,195.24,90Z" style="fill:#ebebeb"></path><circle cx="70.58" cy="97.41" r="8.18" transform="translate(-40.48 143.62) rotate(-76.67)" style="fill:#fafafa"></circle><path d="M70.58,106.08a8.68,8.68,0,1,1,8.67-8.67A8.68,8.68,0,0,1,70.58,106.08Zm0-16.35a7.68,7.68,0,1,0,7.67,7.68A7.68,7.68,0,0,0,70.58,89.73Z" style="fill:#ebebeb"></path><circle cx="91.35" cy="77.74" r="8.18" transform="translate(-28.07 89.09) rotate(-45.83)" style="fill:#fafafa"></circle><path d="M91.35,86.42A8.68,8.68,0,1,1,100,77.74,8.68,8.68,0,0,1,91.35,86.42Zm0-16.35A7.68,7.68,0,1,0,99,77.74,7.68,7.68,0,0,0,91.35,70.07Z" style="fill:#ebebeb"></path><circle cx="112.13" cy="77.74" r="8.18" transform="translate(11.01 169.36) rotate(-76.91)" style="fill:#fafafa"></circle><path d="M112.13,86.42a8.68,8.68,0,1,1,8.68-8.68A8.69,8.69,0,0,1,112.13,86.42Zm0-16.35a7.68,7.68,0,1,0,7.68,7.67A7.69,7.69,0,0,0,112.13,70.07Z" style="fill:#ebebeb"></path><circle cx="132.91" cy="77.74" r="8.18" transform="translate(-16.05 116.75) rotate(-45)" style="fill:#fafafa"></circle><path d="M132.91,86.42a8.68,8.68,0,1,1,8.68-8.68A8.68,8.68,0,0,1,132.91,86.42Zm0-16.35a7.68,7.68,0,1,0,7.68,7.67A7.69,7.69,0,0,0,132.91,70.07Z" style="fill:#ebebeb"></path><circle cx="153.69" cy="77.74" r="8.18" transform="translate(42.6 209.37) rotate(-76.67)" style="fill:#fafafa"></circle><path d="M153.69,86.42a8.68,8.68,0,1,1,8.68-8.68A8.68,8.68,0,0,1,153.69,86.42Zm0-16.35a7.68,7.68,0,1,0,7.68,7.67A7.68,7.68,0,0,0,153.69,70.07Z" style="fill:#ebebeb"></path><circle cx="174.47" cy="77.74" r="8.18" transform="translate(-3.87 146.14) rotate(-45)" style="fill:#fafafa"></circle><path d="M174.47,86.42a8.68,8.68,0,1,1,8.67-8.68A8.68,8.68,0,0,1,174.47,86.42Zm0-16.35a7.68,7.68,0,1,0,7.67,7.67A7.68,7.68,0,0,0,174.47,70.07Z" style="fill:#ebebeb"></path><circle cx="195.24" cy="77.74" r="8.18" transform="translate(87.15 257.97) rotate(-80.76)" style="fill:#fafafa"></circle><path d="M195.24,86.42a8.68,8.68,0,1,1,8.68-8.68A8.68,8.68,0,0,1,195.24,86.42Zm0-16.35a7.68,7.68,0,1,0,7.68,7.67A7.68,7.68,0,0,0,195.24,70.07Z" style="fill:#ebebeb"></path><circle cx="70.58" cy="77.52" r="8.18" transform="translate(-21.12 128.32) rotate(-76.67)" style="fill:#fafafa"></circle><path d="M70.58,86.19a8.68,8.68,0,1,1,8.67-8.67A8.68,8.68,0,0,1,70.58,86.19Zm0-16.35a7.68,7.68,0,1,0,7.67,7.68A7.68,7.68,0,0,0,70.58,69.84Z" style="fill:#ebebeb"></path><circle cx="91.35" cy="57.85" r="8.18" transform="translate(-13.8 83.06) rotate(-45.83)" style="fill:#fafafa"></circle><path d="M91.35,66.53A8.68,8.68,0,1,1,100,57.85,8.68,8.68,0,0,1,91.35,66.53Zm0-16.35A7.68,7.68,0,1,0,99,57.85,7.68,7.68,0,0,0,91.35,50.18Z" style="fill:#ebebeb"></path><circle cx="112.13" cy="57.85" r="8.18" transform="translate(30.39 153.97) rotate(-76.91)" style="fill:#fafafa"></circle><path d="M112.13,66.53a8.68,8.68,0,1,1,8.68-8.68A8.69,8.69,0,0,1,112.13,66.53Zm0-16.35a7.68,7.68,0,1,0,7.68,7.67A7.69,7.69,0,0,0,112.13,50.18Z" style="fill:#ebebeb"></path><circle cx="132.91" cy="57.85" r="8.18" transform="translate(-1.98 110.93) rotate(-45)" style="fill:#fafafa"></circle><path d="M132.91,66.53a8.68,8.68,0,1,1,8.68-8.68A8.68,8.68,0,0,1,132.91,66.53Zm0-16.35a7.68,7.68,0,1,0,7.68,7.67A7.69,7.69,0,0,0,132.91,50.18Z" style="fill:#ebebeb"></path><circle cx="153.69" cy="57.85" r="8.18" transform="translate(61.96 194.06) rotate(-76.67)" style="fill:#fafafa"></circle><path d="M153.69,66.53a8.68,8.68,0,1,1,8.68-8.68A8.68,8.68,0,0,1,153.69,66.53Zm0-16.35a7.68,7.68,0,1,0,7.68,7.67A7.68,7.68,0,0,0,153.69,50.18Z" style="fill:#ebebeb"></path><circle cx="174.47" cy="57.85" r="8.18" transform="translate(10.19 140.31) rotate(-45)" style="fill:#fafafa"></circle><path d="M174.47,66.53a8.68,8.68,0,1,1,8.67-8.68A8.68,8.68,0,0,1,174.47,66.53Zm0-16.35a7.68,7.68,0,1,0,7.67,7.67A7.68,7.68,0,0,0,174.47,50.18Z" style="fill:#ebebeb"></path><circle cx="195.24" cy="57.85" r="8.18" transform="translate(106.79 241.27) rotate(-80.76)" style="fill:#fafafa"></circle><path d="M195.24,66.53a8.68,8.68,0,1,1,8.68-8.68A8.68,8.68,0,0,1,195.24,66.53Zm0-16.35a7.68,7.68,0,1,0,7.68,7.67A7.68,7.68,0,0,0,195.24,50.18Z" style="fill:#ebebeb"></path><circle cx="70.58" cy="57.63" r="8.18" transform="translate(-1.77 113.01) rotate(-76.67)" style="fill:#fafafa"></circle><path d="M70.58,66.3a8.68,8.68,0,1,1,8.67-8.67A8.68,8.68,0,0,1,70.58,66.3Zm0-16.35a7.68,7.68,0,1,0,7.67,7.68A7.68,7.68,0,0,0,70.58,50Z" style="fill:#ebebeb"></path><rect x="383.53" y="195.34" width="85.12" height="124.7" style="fill:#f5f5f5"></rect><rect x="390.18" y="198.98" width="71.16" height="16.62" style="fill:#ebebeb"></rect><polygon points="456.02 195.34 448.53 215.6 461.34 215.6 461.34 195.34 456.02 195.34" style="fill:#e0e0e0"></polygon><rect x="390.18" y="219.24" width="71.16" height="16.62" style="fill:#ebebeb"></rect><polygon points="456.02 215.6 448.53 235.87 461.34 235.87 461.34 215.6 456.02 215.6" style="fill:#e0e0e0"></polygon><rect x="390.18" y="239.9" width="71.16" height="16.62" style="fill:#ebebeb"></rect><polygon points="456.02 236.26 448.53 256.53 461.34 256.53 461.34 236.26 456.02 236.26" style="fill:#e0e0e0"></polygon><rect x="390.18" y="260.14" width="71.16" height="16.62" style="fill:#ebebeb"></rect><polygon points="456.02 256.5 448.53 276.76 461.34 276.76 461.34 256.5 456.02 256.5" style="fill:#e0e0e0"></polygon><rect x="390.18" y="280.38" width="71.16" height="16.62" style="fill:#ebebeb"></rect><polygon points="456.02 276.74 448.53 297 461.34 297 461.34 276.74 456.02 276.74" style="fill:#e0e0e0"></polygon><rect x="390.18" y="300.61" width="71.16" height="16.62" style="fill:#ebebeb"></rect><polygon points="456.02 296.97 448.53 317.24 461.34 317.24 461.34 296.97 456.02 296.97" style="fill:#e0e0e0"></polygon><rect x="43.56" y="249.51" width="339.98" height="4.05" style="fill:#ebebeb"></rect><rect x="43.56" y="253.69" width="339.98" height="28.72" style="fill:#f5f5f5"></rect><rect x="43.85" y="285.47" width="339.98" height="28.72" style="fill:#f5f5f5"></rect><rect x="43.56" y="210.34" width="339.98" height="39.02" style="fill:#f5f5f5"></rect><rect x="43.56" y="206.76" width="339.98" height="4.05" style="fill:#ebebeb"></rect><rect x="43.85" y="281.22" width="339.98" height="4.05" style="fill:#ebebeb"></rect><rect x="43.85" y="313.16" width="424.8" height="52.63" style="fill:#ebebeb"></rect></g><g id="background-simple"><path d="M443.12,204.84C434,170,403,140.76,367.14,137.78c-18.32-1.53-37.09,3.37-55-.86-18.65-4.41-33.63-18.13-46.12-32.67S242.49,73.67,227.38,61.9c-31.75-24.73-79.19-25.83-113.27-4.42s-52.78,48.64-60,97.43c-8,55,12.79,103.33,50.71,147,52.11,57.39,147.72,77.66,223,59,34.95-8.68,68.26-26.8,90.93-54.78S452.29,239.66,443.12,204.84Z" style="fill:#ebebeb"></path></g><g id="Floor"><path d="M465.4,377c0,.14-97.57.26-217.9.26S29.59,377.16,29.59,377s97.54-.26,217.91-.26S465.4,376.88,465.4,377Z" style="fill:#455a64"></path><path d="M465.4,392.07c0,.14-97.57.26-217.9.26s-217.91-.12-217.91-.26,97.54-.26,217.91-.26S465.4,391.93,465.4,392.07Z" style="fill:#455a64"></path><path d="M465.4,419c0,.15-97.57.26-217.9.26S29.59,419.14,29.59,419s97.54-.26,217.91-.26S465.4,418.85,465.4,419Z" style="fill:#455a64"></path><path d="M484.1,462.44c0,.14-101.75.26-227.25.26s-227.26-.12-227.26-.26,101.73-.26,227.26-.26S484.1,462.3,484.1,462.44Z" style="fill:#263238"></path><path d="M445.92,462.44c-.11.09-17-19.08-37.81-42.83s-37.53-43.08-37.42-43.17,17,19.07,37.81,42.83S446,462.34,445.92,462.44Z" style="fill:#455a64"></path><path d="M480.64,461.26c-.11.09-16.71-18.69-37.08-41.95s-36.8-42.19-36.69-42.29S423.58,395.7,444,419,480.75,461.16,480.64,461.26Z" style="fill:#455a64"></path><path d="M40,461.85c-.12-.08,11.49-19.39,25.94-43.14s26.25-42.94,26.38-42.86S80.86,395.23,66.41,419,40.16,461.92,40,461.85Z" style="fill:#455a64"></path></g><g id="Character"><path d="M145.88,234.16l-2.23,3c-4.65,12.82-4.58,26.58,3.27,37.73l15.72,23.33L97,277.13,84,289.63l83.54,37.13a19.6,19.6,0,0,0,20.67-3.36h0a19.56,19.56,0,0,0,6.31-18l-14.63-50.3Z" style="fill:#ffbe9d"></path><polygon points="157.27 290.49 190.14 290.49 188.72 285.61 155.45 287.75 157.27 290.49" style="fill:#eb996e"></polygon><path d="M173.91,310.43a16.46,16.46,0,0,1-1.67-1.95c-1-1.22-2.4-2.88-4.05-4.63s-3.24-3.25-4.41-4.31a15.18,15.18,0,0,1-1.85-1.77,10.06,10.06,0,0,1,2.09,1.49,47.16,47.16,0,0,1,4.54,4.23,46.12,46.12,0,0,1,4,4.77A11.16,11.16,0,0,1,173.91,310.43Z" style="fill:#eb996e"></path><path d="M184.45,244.87l71,17.54a21.5,21.5,0,0,1,14.65,12.51l36.79,78.73-22.49,4.41-41.62-70.23-55-11.42Z" style="fill:#ffbe9d"></path><path d="M246.68,281.76a14.45,14.45,0,0,1-1.92,3.35,14.25,14.25,0,0,1-2.36,3.07,29,29,0,0,1,4.28-6.42Z" style="fill:#eb996e"></path><polygon points="191.98 277.29 193.99 277.71 214.58 252.32 211 251.43 191.98 277.29" style="fill:#eb996e"></polygon><path d="M327.17,227c-2,1.81,8.42-.59,8.86,1.32.16.7.19,1.26-5.95,1.78a138.37,138.37,0,0,1-14.84-.26l-.57,0h0L266.44,241a18.36,18.36,0,0,1-8,.08l-33.81-28.27,12.87-18.42L265,221.23l46.88-6.64,2.25-1.55c.65-.44,1.36-.94,2.15-1.53a10.37,10.37,0,0,0,2.33-2.48,16,16,0,0,0,2-3.73c.33-1.26,2-1.5,2.41-.41s-.4,4.57-3,7.84,3.73,1.84,6.07,1.36,9.6-1.63,10.3-1c1,.89.24,2.18-2.09,2.6s-9.28,2.2-9,3.43,12.12-1.41,12.12-1.41,2.45-1,2.82.44c.67,2.53-12.09,4.37-13.31,4.51-.85.1-.59,1.45.31,1.29s11.76-2.88,12.47-.31C340.17,225.58,329.14,225.22,327.17,227Z" style="fill:#ffbe9d"></path><path d="M263.77,227a7.34,7.34,0,0,1,.15-2.79,7.76,7.76,0,0,1,.67-2.72,14.92,14.92,0,0,1-.82,5.51Z" style="fill:#eb996e"></path><path d="M212.69,249.13l-19.5-6.6-16.32,11.26h0L145,233.61a35.85,35.85,0,0,0-6.46,19.74c-.05,5.75,2,13.07,8.74,24.19l6.21,10.34,40-2.58-2.26-7Z" style="fill:#FF725E"></path><g style="opacity:0.4"><path d="M212.69,249.13l-19.5-6.6-16.32,11.26h0L145,233.61a35.85,35.85,0,0,0-6.46,19.74c-.05,5.75,2,13.07,8.74,24.19l6.21,10.34,40-2.58-2.26-7Z"></path></g><path d="M156.14,288a4.25,4.25,0,0,1-.23-.53l-.57-1.55a51.68,51.68,0,0,0-2.58-5.46c-1.21-2.25-2.8-4.85-4.54-7.76a56.72,56.72,0,0,1-4.9-9.9,26.1,26.1,0,0,1-1.5-10.94,43.88,43.88,0,0,1,1.69-8.87c.72-2.46,1.42-4.42,1.91-5.76.24-.63.43-1.14.59-1.55a2,2,0,0,1,.24-.52,3.11,3.11,0,0,1-.14.56l-.5,1.57c-.43,1.37-1.07,3.34-1.74,5.8a45.85,45.85,0,0,0-1.57,8.8,26.27,26.27,0,0,0,1.51,10.73,58.52,58.52,0,0,0,4.83,9.84c1.7,2.92,3.27,5.54,4.45,7.82a45.15,45.15,0,0,1,2.44,5.57c.23.69.38,1.23.48,1.59A1.79,1.79,0,0,1,156.14,288Z" style="fill:#fafafa"></path><path d="M158.43,287a2.77,2.77,0,0,1-.29-.46l-.75-1.35-2.68-5c-1.12-2.16-2.44-4.7-3.91-7.5a97.77,97.77,0,0,1-4.48-9.36A26.79,26.79,0,0,1,144.55,253a46.24,46.24,0,0,1,1-8.43c.49-2.36,1-4.25,1.34-5.55.17-.6.31-1.09.43-1.49a1.81,1.81,0,0,1,.18-.51,1.92,1.92,0,0,1-.08.53c-.09.41-.2.91-.33,1.52-.29,1.31-.74,3.21-1.18,5.57A48.71,48.71,0,0,0,145,253a27,27,0,0,0,1.77,10c1.31,3.41,3,6.48,4.43,9.33S154,277.79,155,280l2.53,5.11c.27.57.49,1,.66,1.41A1.74,1.74,0,0,1,158.43,287Z" style="fill:#fafafa"></path><path d="M193,284.86c-.13,0-2-5.32-4.27-12s-3.91-12.09-3.77-12.14,2,5.32,4.27,12S193.17,284.81,193,284.86Z" style="fill:#263238"></path><path d="M194,253.51a48,48,0,0,1-3,6.42,17.56,17.56,0,0,1-2.64,4.3,2.83,2.83,0,0,1-1.85,1,7.7,7.7,0,0,0,1.58-1.26,21.79,21.79,0,0,0,2.44-4.28A47.16,47.16,0,0,1,194,253.51Z" style="fill:#263238"></path><path d="M84.31,290.16c6.26-4.48,12.07-8.6,18.79-11.07l-4.41-6.37-1.16.71c-5.16,3.19-26,16.58-28.6,19.9C66,297,84.31,290.16,84.31,290.16" style="fill:#FF725E"></path><path d="M99.24,273a1.48,1.48,0,0,0-.34.18l-.92.57-3.37,2.14c-2.83,1.82-6.71,4.4-10.93,7.34s-8,5.68-10.68,7.7l-3.17,2.42L69,294c-.19.15-.29.24-.28.25L69,294l.88-.63L73.11,291c2.73-2,6.5-4.7,10.72-7.64s8.08-5.53,10.88-7.4c1.31-.87,2.42-1.6,3.32-2.21l.9-.6A1.85,1.85,0,0,0,99.24,273Z" style="fill:#263238"></path><path d="M96.08,282.39c0-.06-2.2-.23-4.92-.39s-4.92-.24-4.92-.18,2.19.23,4.91.39S96.07,282.45,96.08,282.39Z" style="fill:#fafafa"></path><path d="M92.86,284.48c0-.06-2.07-.28-4.63-.5s-4.65-.35-4.65-.29,2.07.28,4.63.5S92.85,284.53,92.86,284.48Z" style="fill:#fafafa"></path><path d="M78,289.63a6.38,6.38,0,0,1,.42,1.32,6.08,6.08,0,0,1-.07,1.37,2.24,2.24,0,0,0-.35-2.69Z" style="fill:#263238"></path><path d="M76,290.49c-.06,0,.31.5.46,1.16a4.45,4.45,0,0,1,0,1.23,1.42,1.42,0,0,0,.25-1.27A1.7,1.7,0,0,0,76,290.49Z" style="fill:#263238"></path><path d="M80,288.81a6.65,6.65,0,0,1,.44,1.4,7,7,0,0,1-.05,1.47,2.51,2.51,0,0,0-.39-2.87Z" style="fill:#263238"></path><path d="M81.3,291.21a1.67,1.67,0,0,0-.27.32,8.12,8.12,0,0,0-.64.94,4,4,0,0,0-.52,1.61,2.77,2.77,0,0,0,.12,1,1.18,1.18,0,0,0,.79.79.75.75,0,0,0,.81-.5,2.6,2.6,0,0,0,.18-.87,7.4,7.4,0,0,0-.06-1.52,6.51,6.51,0,0,0-.52-1.76l0-.08v.08a1.23,1.23,0,0,0,0,.18s0-.05.07-.17h0a9.16,9.16,0,0,1,.41,1.76,7.22,7.22,0,0,1,0,1.48,2.37,2.37,0,0,1-.16.8.56.56,0,0,1-.59.39c-.64-.19-.8-1-.76-1.6a4,4,0,0,1,.46-1.55C81,291.71,81.33,291.24,81.3,291.21Z" style="fill:#263238"></path><path d="M81.27,291.42a.87.87,0,0,0,.14.3,5.28,5.28,0,0,0,.55.75,5.57,5.57,0,0,0,1,.93,3.68,3.68,0,0,0,.71.41.67.67,0,0,0,.89-.21.83.83,0,0,0-.18-.91,3.77,3.77,0,0,0-.63-.53,5.63,5.63,0,0,0-1.22-.65,4.84,4.84,0,0,0-.89-.24,1.1,1.1,0,0,0-.34,0s.47.1,1.18.4a5.89,5.89,0,0,1,1.16.66c.36.29,1,.7.74,1.19-.11.22-.4.22-.64.12a4.09,4.09,0,0,1-.68-.38,6.55,6.55,0,0,1-1-.87C81.54,291.82,81.3,291.4,81.27,291.42Z" style="fill:#263238"></path><path d="M99.08,280.77a9.43,9.43,0,0,0-1.41-.24L94.25,280c-1.34-.19-2.55-.33-3.43-.42l-1-.09a1.58,1.58,0,0,0-.38,0,9.43,9.43,0,0,0,1.41.24l3.42.49c1.33.19,2.55.34,3.43.42l1,.1Z" style="fill:#fafafa"></path><path d="M306.33,352.12c-8.11,1.94-15.62,3.71-23.37,3.45l1.83,8.18,1.45-.23c6.48-1.1,32.83-6,36.81-8.31,4.44-2.53-16.72-3.09-16.72-3.09" style="fill:#FF725E"></path><path d="M284.34,363.29a1.81,1.81,0,0,0,.41,0l1.16-.19,4.25-.78c3.58-.68,8.52-1.68,13.95-2.9S314.44,356.93,318,356l4.17-1.13,1.13-.33a2.25,2.25,0,0,0,.38-.13,2.38,2.38,0,0,0-.4.08l-1.14.27-4.19,1c-3.54.88-8.44,2.07-13.87,3.29s-10.36,2.26-13.93,3l-4.23.87-1.15.24Z" style="fill:#263238"></path><path d="M291.35,355.12c0,.06,2.11,1.13,4.77,2.39s4.84,2.25,4.87,2.19-2.11-1.12-4.77-2.39S291.38,355.07,291.35,355.12Z" style="fill:#fafafa"></path><path d="M295.43,354.34c0,.06,2,1.13,4.45,2.39s4.51,2.24,4.54,2.18-2-1.12-4.44-2.38S295.46,354.29,295.43,354.34Z" style="fill:#fafafa"></path><path d="M312.48,355.24a6.85,6.85,0,0,1,.11-1.49,6.61,6.61,0,0,1,.64-1.35,2.4,2.4,0,0,0-.75,2.84Z" style="fill:#263238"></path><path d="M314.83,355.2a13,13,0,0,1,0-1.35,5.66,5.66,0,0,1,.54-1.23,1.67,1.67,0,0,0-.76,1.18A1.93,1.93,0,0,0,314.83,355.2Z" style="fill:#263238"></path><path d="M310.14,355.25a4.62,4.62,0,0,1,.77-3,2.71,2.71,0,0,0-.77,3Z" style="fill:#263238"></path><path d="M309.77,352.29s.15-.06.4-.2a8.34,8.34,0,0,0,1-.69,4.21,4.21,0,0,0,1.19-1.4,2.87,2.87,0,0,0,.29-1.07,1.27,1.27,0,0,0-.47-1.12.81.81,0,0,0-1,.18,2.65,2.65,0,0,0-.53.8,8.31,8.31,0,0,0-.56,1.54,6.65,6.65,0,0,0-.19,2v.09l.05-.07c.06-.11.09-.17.08-.17s0,0-.13.14H310a10.08,10.08,0,0,1,.31-1.93,8.36,8.36,0,0,1,.58-1.5,2.83,2.83,0,0,1,.49-.73.6.6,0,0,1,.75-.15c.56.45.38,1.35.11,1.91a4.07,4.07,0,0,1-1.1,1.37C310.31,351.93,309.75,352.26,309.77,352.29Z" style="fill:#263238"></path><path d="M309.89,352.1a1.3,1.3,0,0,0,0-.37,5.81,5.81,0,0,0-.24-1,6.51,6.51,0,0,0-.65-1.34,4.76,4.76,0,0,0-.54-.71.75.75,0,0,0-1-.15.9.9,0,0,0-.18,1,4.19,4.19,0,0,0,.41.79,5.38,5.38,0,0,0,1,1.14,5.48,5.48,0,0,0,.8.61c.2.12.32.17.33.15s-.44-.29-1-.87a6.55,6.55,0,0,1-.89-1.14c-.25-.44-.68-1.09-.26-1.49.2-.18.49-.06.69.13a4.72,4.72,0,0,1,.52.66,7,7,0,0,1,.67,1.29C309.78,351.59,309.85,352.11,309.89,352.1Z" style="fill:#263238"></path><path d="M287.68,355.52a10.43,10.43,0,0,0,1.32.82l3.23,1.88c1.26.73,2.42,1.38,3.27,1.83l1,.51c.24.12.38.18.38.16a12.27,12.27,0,0,0-1.31-.81L292.34,358c-1.26-.74-2.42-1.38-3.26-1.83l-1-.51A1.75,1.75,0,0,0,287.68,355.52Z" style="fill:#fafafa"></path><path d="M145,233.61l10.69-10.06c3.87-3.63,14.85-10.35,17.22-15.1,3.94-7.91,4.25-15.08,7.67-23.51,1.36-3.35,7.49-20.07,25.09-14.74,10.92,3.32,17.14,7.08,23.8,13.31,3.35,3.15,12,15.1,12,15.1l-11.3,18.07-2.79,4.63a16.8,16.8,0,0,1-5.81,5.77,12,12,0,0,1-3,1.22l-5.09,1.32a11.74,11.74,0,0,0-8.55,8.95L203,247.21l-3.39,2.25a34.16,34.16,0,0,1-28.5,4.31h0a34.12,34.12,0,0,1-14.45-8.52Z" style="fill:#FF725E"></path><path d="M200.46,198.56c-1.88,7.26-6.81,13.57-13.15,19.46L211,229.46c6.58-4.9,11.9-10.1,14.47-16Z" style="fill:#e0e0e0"></path><path d="M204.76,208.66l-4.29,7.22-1.34-.79,3.62-6.1-1.53-.91.67-1.12Z" style="fill:#263238"></path><path d="M209.32,218.91l-1.28-.76-1,1.64-1.3-.77,1-1.64-4-2.35.55-.93,6.32-2.54,1.43.85-6,2.46,2.36,1.4.86-1.45,1.26.74-.86,1.46,1.28.76Z" style="fill:#263238"></path><path d="M214.79,222.84l-.68,1.13-5.32-3.15.53-.9,4.49-1c1.09-.26,1.47-.61,1.71-1,.39-.66.16-1.31-.72-1.83a2.35,2.35,0,0,0-2.14-.25l-.51-1.28a3.83,3.83,0,0,1,3.45.43c1.57.93,2.11,2.32,1.35,3.6a3.39,3.39,0,0,1-2.55,1.57l-3,.69Z" style="fill:#263238"></path><path d="M218.71,227.59a9.24,9.24,0,0,1-1.46.14c-.95.05-2.31.13-4,.27a118.2,118.2,0,0,0-13.06,1.77A117,117,0,0,0,187.42,233c-1.61.51-2.91.93-3.81,1.24a7.24,7.24,0,0,1-1.41.42,8.7,8.7,0,0,1,1.34-.61c.88-.36,2.16-.85,3.76-1.4a96.61,96.61,0,0,1,25.93-5c1.69-.09,3.06-.12,4-.11A7.39,7.39,0,0,1,218.71,227.59Z" style="fill:#263238"></path><path d="M206.36,206.35c.47.23,10.5,5.6,10.5,5.6l.93-1.52L207.18,205Z" style="fill:#455a64"></path><path d="M186,186.84a4.71,4.71,0,0,1,0,.66,17.11,17.11,0,0,1-.15,1.91,38,38,0,0,1-1.51,6.87,57.56,57.56,0,0,1-4,9.63,62.44,62.44,0,0,1-7,10.7c-5.87,7-12.48,11.95-17.22,15.48-2.39,1.75-4.36,3.12-5.73,4.06l-1.58,1.07a3.18,3.18,0,0,1-.57.34,4.21,4.21,0,0,1,.51-.43l1.53-1.15,5.62-4.19c4.68-3.59,11.23-8.61,17-15.51a64.45,64.45,0,0,0,7-10.59,61,61,0,0,0,4.07-9.53,41.49,41.49,0,0,0,1.66-6.78C185.88,187.75,185.93,186.83,186,186.84Z" style="fill:#fafafa"></path><path d="M187.82,187.47a2.75,2.75,0,0,1,0,.68c0,.5-.09,1.14-.16,1.94a24.83,24.83,0,0,1-.38,3.06q-.15.89-.33,1.89c-.06.34-.11.69-.18,1s-.19.7-.28,1.07c-.19.74-.39,1.5-.6,2.3s-.53,1.6-.81,2.45a51.28,51.28,0,0,1-2.16,5.25A56.28,56.28,0,0,1,175.75,218a70.16,70.16,0,0,1-9.27,9.12,106,106,0,0,1-8.48,6.38c-2.51,1.68-4.56,3-6,3.87l-1.67,1a3.09,3.09,0,0,1-.6.32,3.4,3.4,0,0,1,.54-.4l1.62-1.08c1.42-.91,3.43-2.28,5.91-4s5.36-3.85,8.38-6.45a72,72,0,0,0,9.18-9.09,56.89,56.89,0,0,0,7.13-10.73,52.33,52.33,0,0,0,2.19-5.19c.28-.83.62-1.62.83-2.41s.42-1.55.62-2.28c.1-.36.2-.71.29-1.06s.14-.69.21-1c.13-.67.25-1.29.36-1.88a26.86,26.86,0,0,0,.47-3c.1-.79.19-1.43.25-1.93A4.16,4.16,0,0,1,187.82,187.47Z" style="fill:#fafafa"></path><path d="M234.89,190.22s-.07.13-.24.32a10.89,10.89,0,0,1-.79.81,15.59,15.59,0,0,1-3.36,2.46,12.81,12.81,0,0,1-6,1.65,10.43,10.43,0,0,1-7.08-2.56,10,10,0,0,1-3-6.88,17,17,0,0,1,.88-6.12,34.28,34.28,0,0,1,1.5-3.87,8.85,8.85,0,0,1,.67-1.37,7.53,7.53,0,0,1-.48,1.44c-.34.92-.86,2.24-1.34,3.91a17.57,17.57,0,0,0-.75,6,9.62,9.62,0,0,0,2.91,6.53,10.15,10.15,0,0,0,6.73,2.46,12.93,12.93,0,0,0,5.79-1.49,18.36,18.36,0,0,0,3.4-2.29C234.47,190.57,234.86,190.2,234.89,190.22Z" style="fill:#fafafa"></path><path d="M235.64,192.37s-.09.13-.29.34-.53.49-1,.85a17.31,17.31,0,0,1-4,2.42,17.64,17.64,0,0,1-6.83,1.46,11.68,11.68,0,0,1-8-2.78,9,9,0,0,1-2.39-3.78,13.36,13.36,0,0,1-.66-4.11,24.78,24.78,0,0,1,1.1-6.89l1.3-4.5a15.4,15.4,0,0,1,.48-1.65,1.53,1.53,0,0,1,0,.45c0,.28-.12.71-.24,1.25-.23,1.08-.65,2.63-1.14,4.54a25.71,25.71,0,0,0-1,6.79,10.41,10.41,0,0,0,2.93,7.52,11.31,11.31,0,0,0,7.66,2.68,17.8,17.8,0,0,0,6.69-1.32A22.73,22.73,0,0,0,235.64,192.37Z" style="fill:#fafafa"></path><g style="opacity:0.30000000000000004"><path d="M169.39,214.8c1.07.57,2.38.16,3.5-.31a36.91,36.91,0,0,0,14-10,27.36,27.36,0,0,0,6.56-15.81L183,184.24a3.22,3.22,0,0,0-1.34-.35c-1.57.06-1.83,2.15-2.25,3.67-2.07,7.39-3.77,16.32-6.46,20.66a16.66,16.66,0,0,1-4.44,5.15"></path></g><path d="M199.2,168.23c-9.77-2.74-23.56-6.42-32.76-8.86a16.67,16.67,0,0,0-16.59,4.9l-33.2,36.46a126.07,126.07,0,0,0-8.87,11c-3.4,5.14-3,5.46-2.3,5.77,1.77.84,6.33-8.79,6.53-6.13s-6.92,11.1-5,11.9c2.46,1,7-9.14,7.49-10s1.65-.18,1.21.55c-.65,1.05-7.12,12.2-4.72,13.25,1.33.58,2.09-1.95,2.09-1.95s5.3-10.9,6.42-10.37-1.77,7.05-2.9,9.17-.58,3.51.74,3.26c.91-.18,4.52-6.59,5.59-8.72s3.9-8,4.83-3.92,3.16,6.91,4.27,7.25,2-1.11,1.18-2.15a15.27,15.27,0,0,1-1.69-3.89,10.33,10.33,0,0,1-.5-3.36c0-1,.07-1.85.13-2.63l.17-2.59,28.93-29.34,32.44,11.26a11,11,0,1,0,6.55-20.92Z" style="fill:#ffbe9d"></path><path d="M156.9,171.94a5.74,5.74,0,0,1,2.36,3,5.84,5.84,0,0,1,.45,3.83,28.85,28.85,0,0,0-.93-3.63A26.67,26.67,0,0,0,156.9,171.94Z" style="fill:#eb996e"></path><path d="M265.73,127.09a1.65,1.65,0,0,1,.3.86,4.12,4.12,0,0,1-.48,2.43,6.36,6.36,0,0,1-2.64,2.57,27.16,27.16,0,0,1-4.1,1.73,47.42,47.42,0,0,1-7.81,2c-1,.17-1.84.27-2.42.32a2.74,2.74,0,0,1-.9,0,32,32,0,0,1,3.25-.7,64.13,64.13,0,0,0,7.7-2.14,30.94,30.94,0,0,0,4.05-1.66,6.26,6.26,0,0,0,2.55-2.32,4.23,4.23,0,0,0,.59-2.25C265.8,127.41,265.68,127.1,265.73,127.09Z" style="fill:#263238"></path><path d="M252.23,175.22c2.07.35,4-1.29,5-3.09s1.71-3.88,3.1-5.45c1-1.11,2.34-1.92,3.09-3.21s.79-3.11,1.46-4.58c.93-2,3.05-3.32,4.06-5.32a5.67,5.67,0,1,0-10.42-4.38" style="fill:#263238"></path><path d="M235.58,188.92l3.43-7s7.15,2.12,12.73-5.84c2.77-4,6-11.1,8.42-17a10.14,10.14,0,0,0-5.91-13.39l-18.65-6.76-1.31,2.81-17.88,38a10.63,10.63,0,0,0,5.23,14.21h0A10.63,10.63,0,0,0,235.58,188.92Z" style="fill:#ffbe9d"></path><path d="M256,163.08a1.23,1.23,0,0,1-1.61.6,1.19,1.19,0,0,1-.66-1.56,1.23,1.23,0,0,1,1.61-.59A1.18,1.18,0,0,1,256,163.08Z" style="fill:#263238"></path><path d="M256.85,162c-.21.08-.74-1-1.93-1.53s-2.36-.41-2.42-.61.24-.29.75-.38a3.36,3.36,0,0,1,2,.31,3.22,3.22,0,0,1,1.45,1.4C257,161.61,257,161.93,256.85,162Z" style="fill:#263238"></path><path d="M244.09,157.27a1.23,1.23,0,0,1-1.61.6,1.18,1.18,0,0,1-.66-1.55,1.23,1.23,0,0,1,1.61-.6A1.18,1.18,0,0,1,244.09,157.27Z" style="fill:#263238"></path><path d="M245,156.48c-.21.08-.75-.95-1.94-1.53s-2.35-.41-2.41-.62.23-.28.75-.37a3.36,3.36,0,0,1,2,.31,3.22,3.22,0,0,1,1.45,1.4C245.14,156.13,245.14,156.45,245,156.48Z" style="fill:#263238"></path><path d="M245.06,167.42a8.64,8.64,0,0,1,2.1.59c.32.12.64.2.79,0a1.73,1.73,0,0,0,.24-1c.07-.87.15-1.79.23-2.75a42.76,42.76,0,0,1,.93-7,45.67,45.67,0,0,1-.37,7.1c-.09,1-.18,1.87-.27,2.75a2,2,0,0,1-.42,1.27.9.9,0,0,1-.72.2,2.73,2.73,0,0,1-.55-.18A8.92,8.92,0,0,1,245.06,167.42Z" style="fill:#263238"></path><path d="M239,181.91a24.48,24.48,0,0,1-10-8.72s-.08,7.3,8.95,10.7Z" style="fill:#eb996e"></path><path d="M247.62,152c-.28.27-1.39-.46-2.87-1s-2.79-.68-2.84-1.06c0-.18.33-.39.94-.48a5,5,0,0,1,2.35.28,4.9,4.9,0,0,1,2,1.28C247.61,151.45,247.75,151.83,247.62,152Z" style="fill:#263238"></path><path d="M258.09,158.3c-.34.17-1-.51-2-1s-1.91-.7-2-1.08c0-.18.25-.38.74-.46a3.08,3.08,0,0,1,1.85.35,3.19,3.19,0,0,1,1.35,1.33C258.27,157.88,258.25,158.21,258.09,158.3Z" style="fill:#263238"></path><path d="M247.18,136.62a23.45,23.45,0,0,0-1.38,8.47,9.55,9.55,0,0,0,3.88,7.37c1.87,1.23,4.19,1.52,6.41,1.78l6.44.74a11.22,11.22,0,0,0,3.79,0,7.06,7.06,0,0,0,5-5.59,10.66,10.66,0,0,0-3.85-9.87,17.23,17.23,0,0,0-10.3-3.64,46.64,46.64,0,0,0-11,1.17" style="fill:#263238"></path><path d="M249.66,138,248.21,137a7.25,7.25,0,0,0-1.64-3.71,5.18,5.18,0,0,0,.87-.6,5.43,5.43,0,0,0,.38-7.49,8.86,8.86,0,0,1-1.77-2c-.5-1-.21-2.28-.49-3.39-.44-1.72-2.12-2.77-3.66-3.65a10.88,10.88,0,0,0-3.27-1.41,3.74,3.74,0,0,0-3.34.81c-.89.89-1.13,2.32-2.15,3.06s-2.25.54-3.39.84c-2.62.68-4,3.7-3.91,6.41a10.2,10.2,0,0,0,5.38,8.5,8.15,8.15,0,0,0,1.05.46,8.18,8.18,0,0,1-1.81,1.29c-1.4.67-3,.71-4.51,1.13a8.84,8.84,0,0,0-5.77,11.88,14.12,14.12,0,0,1,1.42,3.62c.16,1.36-.4,2.69-.57,4a7.18,7.18,0,0,0,8.08,8,4.6,4.6,0,0,0,3.82-2.65c.66-1.76-.26-3.81.38-5.58s2.52-2.67,3.25-4.33c.85-1.91,0-4.4,1.28-6.07s3.65-1.48,5.63-1.94A8.43,8.43,0,0,0,249.66,138Z" style="fill:#263238"></path><path d="M243.45,133.13c0,.05-.3.45-1,.93a8.27,8.27,0,0,1-3.06,1.21,8.18,8.18,0,0,1-3.3-.1c-.82-.2-1.28-.47-1.25-.53a15.13,15.13,0,0,0,4.46.11A15.69,15.69,0,0,0,243.45,133.13Z" style="fill:#FF725E"></path><path d="M248.7,136.91c0-.06,0-.17.1-.3l.16.33a1,1,0,0,1-.72.09c-.6-.13-.81-.64-.68-.7s.41.12.79.19a2.49,2.49,0,0,0,.5.06l.91.06-.75.27C248.86,137,248.74,137,248.7,136.91Z" style="fill:#263238"></path><path d="M235.28,133.27s-.41-.18-1.16-.47a28.79,28.79,0,0,0-3.28-.93,12.59,12.59,0,0,1-4.71-2,8.75,8.75,0,0,1-3.44-5.24,7.27,7.27,0,0,1,1.57-6,5.65,5.65,0,0,1,2.29-1.61,6.13,6.13,0,0,1,2.4-.36,5.39,5.39,0,0,1,3.23,1.25,3.42,3.42,0,0,1,.64.69c.12.18.17.28.16.29s-.3-.35-.93-.83a5.51,5.51,0,0,0-3.12-1,5.38,5.38,0,0,0-4.31,1.91,6.88,6.88,0,0,0-1.42,5.63,8.35,8.35,0,0,0,3.22,5,12.69,12.69,0,0,0,4.52,2.05,20.55,20.55,0,0,1,3.26,1.1A3.73,3.73,0,0,1,235.28,133.27Z" style="fill:#263238"></path><path d="M244.56,131.87a5.71,5.71,0,0,0,2.82-.22,4.87,4.87,0,0,0,2.34-1.87,4.82,4.82,0,0,0,.58-3.56,5.22,5.22,0,0,0-1.91-3.1,5.94,5.94,0,0,0-2.8-1.17,9.89,9.89,0,0,0-2.87.12,1.76,1.76,0,0,1,.74-.31,6.17,6.17,0,0,1,5.23,1,5.58,5.58,0,0,1,2.12,3.37,5.15,5.15,0,0,1-.69,3.93,5,5,0,0,1-2.62,2,4.32,4.32,0,0,1-2.19.16A1.56,1.56,0,0,1,244.56,131.87Z" style="fill:#263238"></path><path d="M261.25,163.76c0-.09.89-.3,2.26-.86a6,6,0,0,0,2.11-1.39,4.89,4.89,0,0,0,1.15-2.79c.14-1.11.1-2.21.21-3.21a5.91,5.91,0,0,1,.81-2.59,3.44,3.44,0,0,1,1.33-1.25c.4-.19.64-.2.65-.17a4.17,4.17,0,0,0-1.67,1.61,6,6,0,0,0-.64,2.44c-.09,1,0,2.07-.18,3.24a5.15,5.15,0,0,1-1.31,3.05,5.82,5.82,0,0,1-2.33,1.4A7.11,7.11,0,0,1,261.25,163.76Z" style="fill:#263238"></path><path d="M241.85,169a1.31,1.31,0,0,1,1.55.26,1.56,1.56,0,0,1,.28,1.58,1.9,1.9,0,0,1-1.2,1.1,1.35,1.35,0,0,1-1.43-.29,1.52,1.52,0,0,1-.22-1.6c.33-.53.57-1,1.19-1.12" style="fill:#eb996e"></path><path d="M243.49,171.55c-.12.08-.67-.52-1.24-1.34s-.93-1.56-.81-1.64.67.52,1.24,1.34S243.61,171.47,243.49,171.55Z" style="fill:#263238"></path></g><g id="Plant"><path d="M371.92,342c-1.67,2.38-4.91,1.59-6.42.14s-2.13-3.56-2.71-5.57c-1.32-4.6-2.66-9.41-1.67-14.09a7.74,7.74,0,0,1,1.8-3.83,4.09,4.09,0,0,1,3.87-1.29c1.63.43,2.65,2,3.38,3.56a33.44,33.44,0,0,1,3.32,14.41,11.63,11.63,0,0,1-1.57,6.67" style="fill:#FF725E"></path><g style="opacity:0.2"><path d="M371.92,342c-1.67,2.38-4.91,1.59-6.42.14s-2.13-3.56-2.71-5.57c-1.32-4.6-2.66-9.41-1.67-14.09a7.74,7.74,0,0,1,1.8-3.83,4.09,4.09,0,0,1,3.87-1.29c1.63.43,2.65,2,3.38,3.56a33.44,33.44,0,0,1,3.32,14.41,11.63,11.63,0,0,1-1.57,6.67"></path></g><path d="M365.67,354a14.45,14.45,0,0,0-9-1.09,7.47,7.47,0,0,0-4.43,2c-1.11,1.22-1.32,3.37,0,4.42a4.25,4.25,0,0,0,2.8.71c2.37,0,5-.45,6.89,1,1.08.81,1.8,2.17,3.09,2.57a3.06,3.06,0,0,0,3.36-1.5,5.18,5.18,0,0,0,.38-3.85A5.86,5.86,0,0,0,365.67,354Z" style="fill:#FF725E"></path><path d="M376.5,345.4a8.67,8.67,0,0,1-1.35-8,15.39,15.39,0,0,1,4.72-6.85,25.43,25.43,0,0,1,8.46-5,9,9,0,0,1,3.81-.64,4,4,0,0,1,3.19,1.93c.89,1.7,0,3.76-.89,5.44a63.85,63.85,0,0,1-5.55,8.46c-1.67,2.15-3.58,4.26-6.11,5.23s-5.18.86-6.52-.9" style="fill:#FF725E"></path><path d="M372,377.91a5.39,5.39,0,0,1-.15-1.08c-.08-.79-.17-1.78-.29-2.95s-.32-2.73-.66-4.34a34.37,34.37,0,0,0-1.58-5.11,18.69,18.69,0,0,0-2.61-4.63,9.64,9.64,0,0,0-3.3-2.74,9.27,9.27,0,0,0-2.78-.87,5,5,0,0,1-1.08-.16,5.49,5.49,0,0,1,1.1,0,8.28,8.28,0,0,1,2.9.75,9.69,9.69,0,0,1,3.48,2.77,18.4,18.4,0,0,1,2.71,4.72,31.87,31.87,0,0,1,1.56,5.2,36.53,36.53,0,0,1,.58,4.39c.09,1.25.13,2.27.14,3A4.87,4.87,0,0,1,372,377.91Z" style="fill:#263238"></path><path d="M371.83,375.64a1.61,1.61,0,0,1,0-.5V373.7c0-1.25,0-3.05-.06-5.28-.11-4.45-.5-10.6-1.24-17.36s-1.73-12.85-2.63-17.21c-.22-1.09-.43-2.08-.63-2.94s-.36-1.61-.52-2.21l-.34-1.4a1.67,1.67,0,0,1-.08-.49,2.6,2.6,0,0,1,.17.47l.42,1.38c.18.59.37,1.33.59,2.19s.46,1.84.69,2.94A160.92,160.92,0,0,1,371,351c.74,6.77,1.07,12.94,1.1,17.41,0,2.23,0,4-.07,5.28,0,.59-.07,1.06-.09,1.44A3.3,3.3,0,0,1,371.83,375.64Z" style="fill:#263238"></path><path d="M371.8,363.74a9,9,0,0,1,0-1.5,40.68,40.68,0,0,1,.46-4.06,56,56,0,0,1,3.8-12.93,37.18,37.18,0,0,1,7.27-11.33,18.45,18.45,0,0,1,1.71-1.59c.26-.22.49-.44.73-.62l.66-.45a8.36,8.36,0,0,1,1.27-.81,42.78,42.78,0,0,0-4.14,3.69,39.19,39.19,0,0,0-7.09,11.29,56,56,0,0,0-2.5,6.94c-.64,2.17-1.08,4.18-1.4,5.86s-.49,3.07-.6,4A10.38,10.38,0,0,1,371.8,363.74Z" style="fill:#263238"></path></g><g id="Hurdle"><path d="M141.25,441.59c6.94,3.68,15.21,3.84,23,2.9s15.47-2.92,23.32-3.2c3.77-.14,8,.34,10.43,3.25,2.78,3.37,1.82,8.45,0,12.41s-4.46,7.77-4.66,12.13c-.1,2,.92,4.53,2.93,4.47,1.22,0,2.16-1,2.92-2A56.46,56.46,0,0,0,210.58,446c.28-1.67,1.83-5.71.53-6.8a5.22,5.22,0,0,0-3.17-.84c-21.22-.92-43.88.21-65.09-.71" style="fill:#ebebeb"></path><path d="M211.47,439.75H204.4V298.16a3.53,3.53,0,0,1,3.54-3.53h0a3.53,3.53,0,0,1,3.53,3.53Z" style="fill:#263238"></path><rect x="142.37" y="437.77" width="69.1" height="1.98" style="fill:#263238"></rect></g></svg>
