<svg xmlns="http://www.w3.org/2000/svg" viewBox="0 0 750 500"><g id="background-complete"><rect x="169.45" y="362.02" width="171.42" height="97.4" style="fill:#f5f5f5"></rect><rect x="169.45" y="362.02" width="85.71" height="97.4" style="fill:#e0e0e0"></rect><polygon points="290.76 362.24 290.76 394.15 304.61 394.15 304.61 362.02 290.76 362.24" style="fill:#fff"></polygon><polyline points="216.66 394.15 216.66 362.02 202.81 362.24 202.81 394.15" style="fill:#e0e0e0"></polyline><rect x="261.24" y="433.01" width="31.46" height="21.8" style="fill:#fff"></rect><path d="M292.69,454.81s0-.55,0-1.56,0-2.53,0-4.39c0-3.83,0-9.26,0-15.85l.08.08-31.45,0,.1-.1h0v11.32c0,3.65,0,7.15,0,10.46l-.09-.1,22.66.05,6.47,0c1.5,0,2.32,0,2.32,0l-2.28,0-6.45,0-22.72,0h-.1v-.09c0-3.31,0-6.81,0-10.46V433h0c-.09.09.13-.13.11-.1l31.45,0h.09V433c0,6.61,0,12.06,0,15.9,0,1.86,0,3.33,0,4.37S292.69,454.81,292.69,454.81Z" style="fill:#e0e0e0"></path><path d="M290.62,452.53s0-.43,0-1.23,0-2,0-3.46c0-3,0-7.33,0-12.55l.08.08-27.31,0s.2-.2.11-.1h0v2.26c0,.76,0,1.51,0,2.25v12.72l-.1-.09,19.64,0,5.64,0,2,0-2,0-5.62,0-19.7.05h-.09v-.1c0-2.65,0-5.43,0-8.32V435.3h0c-.1.09.12-.13.1-.11l27.31,0h.08v.09c0,5.24,0,9.55,0,12.6,0,1.46,0,2.61,0,3.45S290.62,452.53,290.62,452.53Z" style="fill:#e0e0e0"></path><rect x="280.61" y="442.05" width="8.11" height="8.35" style="fill:#e0e0e0"></rect><path d="M278.88,448.26c0,.06-2.89.11-6.47.11s-6.47-.05-6.47-.11,2.9-.1,6.47-.1S278.88,448.21,278.88,448.26Z" style="fill:#e0e0e0"></path><path d="M278.88,442.43c0,.06-2.89.11-6.47.11s-6.47-.05-6.47-.11,2.9-.1,6.47-.1S278.88,442.37,278.88,442.43Z" style="fill:#e0e0e0"></path><path d="M278.88,440.19c0,.06-2.89.1-6.47.1s-6.47,0-6.47-.1,2.9-.11,6.47-.11S278.88,440.13,278.88,440.19Z" style="fill:#e0e0e0"></path><path d="M278.88,438c0,.06-2.89.11-6.47.11s-6.47-.05-6.47-.11,2.9-.1,6.47-.1S278.88,438,278.88,438Z" style="fill:#e0e0e0"></path><path d="M278.88,450.4c0,.06-2.89.11-6.47.11s-6.47-.05-6.47-.11,2.9-.1,6.47-.1S278.88,450.35,278.88,450.4Z" style="fill:#e0e0e0"></path><rect x="297.86" y="433.01" width="21.36" height="21.8" style="fill:#fff"></rect><path d="M319.22,454.81s0-.56,0-1.59,0-2.57,0-4.44c0-3.86,0-9.28,0-15.77l.09.09H297.86s.2-.19.1-.1h0v11.5c0,3.66,0,7.11,0,10.28l-.09-.09,15.46,0,4.34,0c1,0,1.56,0,1.56,0l-1.52,0-4.33,0-15.51,0h-.09v-.09c0-3.17,0-6.62,0-10.28V433h0c-.1.1.12-.13.1-.1h21.45V433c0,6.51,0,12-.05,15.83,0,1.86,0,3.35,0,4.42S319.22,454.81,319.22,454.81Z" style="fill:#e0e0e0"></path><polygon points="301.95 440.83 304.6 436.51 307.28 440.79 305.78 440.79 305.78 451.31 303.42 451.31 303.42 440.83 301.95 440.83" style="fill:#e0e0e0"></polygon><polygon points="309.88 440.83 312.53 436.51 315.21 440.79 313.71 440.79 313.71 451.31 311.35 451.31 311.35 440.83 309.88 440.83" style="fill:#e0e0e0"></polygon><path d="M77,345.39a40.91,40.91,0,0,0-17.45-6c-2.85-.29-6-.21-8.25,1.52a1.69,1.69,0,0,0-.85,1.51,1.84,1.84,0,0,0,.8,1c7.1,5.42,17.84,6.1,25.75,1.95" style="fill:#e0e0e0"></path><path d="M76.5,344.9A85.86,85.86,0,0,1,65.23,335a28.57,28.57,0,0,1-7.06-13.07c-.31-1.49-.4-3.19.55-4.37,9,7,16,16.09,17.78,27.36" style="fill:#e0e0e0"></path><path d="M76.86,345.32a40.67,40.67,0,0,1,.21-14.8c1.12-4.83,3.75-9.45,7.88-12.21,1.55,3.63.88,7.81-.21,11.61a56.18,56.18,0,0,1-7.82,16.45" style="fill:#e0e0e0"></path><path d="M85.66,361.1c-5.34.65-10,3.47-14,7.09a26.49,26.49,0,0,0-8,13.74c5.25-.33,9.7-4,12.92-8.17s5.47-8.7,9-12.58" style="fill:#e0e0e0"></path><path d="M87.58,363.63a34.51,34.51,0,0,1,4-32.65c3,10.83,1.93,23.07-4,32.65" style="fill:#e0e0e0"></path><path d="M99.21,377.48a25,25,0,0,0-23.86,13.74c-.3.59-.56,1.34-.16,1.87a1.79,1.79,0,0,0,1.58.47c4.7-.31,8.87-3.14,12.31-6.36s6.44-6.94,10.24-9.73" style="fill:#e0e0e0"></path><path d="M98.84,376.73a44.43,44.43,0,0,1-.44-24.83c.87-3.2,2.34-6.56,5.3-8.06a1,1,0,0,1,.81-.14,1.07,1.07,0,0,1,.51.59,15,15,0,0,1,1.25,7.13,44.29,44.29,0,0,1-1.12,7.21c-.93,4.4-1.42,9.14-3.84,12.94a27.79,27.79,0,0,0-1.54,2.84c-.45,1-.46,1.31-.88,2.08" style="fill:#e0e0e0"></path><path d="M129.64,381.32c-2.28-8.68.14-19.21,5.61-26.32.41-.53.94-1.09,1.6-1,1,.1,1.27,1.44,1.22,2.45a47.47,47.47,0,0,1-8.43,24.9" style="fill:#e0e0e0"></path><path d="M132.42,383.22c10.55,2.74,22.65.07,31.42-6.39a25.41,25.41,0,0,0-17-2.09c-5.68,1.3-10.87,3.84-14.41,8.48" style="fill:#e0e0e0"></path><path d="M134.76,377.44c5.91-9.63,17.23-15.92,28.52-16.49-1.3,4.59-5.07,8.15-9.33,10.31s-9,3.09-13.69,4c-1.82.36-4.32.75-5.5,2.18" style="fill:#e0e0e0"></path><path d="M130.23,349.39c1.6-5.48,3.21-11,3.65-16.7s-.37-11.63-3.33-16.52c-5.52,10.68-6.07,23.15-.48,33.79" style="fill:#e0e0e0"></path><path d="M148.81,340c6.45-11.73,19.61-21.09,32.93-22.41-5.14,12.8-19.15,22.69-32.93,22.41" style="fill:#e0e0e0"></path><path d="M144.75,342.3c9.62,1.46,17.82,7.61,26.81,11.34a12.09,12.09,0,0,0,6.06,1.16,4.75,4.75,0,0,0,3-8.4,13.09,13.09,0,0,0-4.4-2.67c-9.79-4.08-20.3-4.18-30.61-1.7" style="fill:#e0e0e0"></path><path d="M139.18,349.05c2.18.62,2.92,1.75,4.65,3.22a50.12,50.12,0,0,0,20.33,10.44c.78.2,1.8.27,2.18-.43s-.09-1.35-.53-1.9a27.89,27.89,0,0,0-12.27-8.33c-4.69-1.75-8.76-3.86-14.36-3.41" style="fill:#e0e0e0"></path><path d="M132.9,308.29a38.46,38.46,0,0,0,29.5,10,2,2,0,0,0,1.34-.48c.74-.81-.15-2-1-2.73-8.68-6.76-19.18-9.56-29.83-6.82" style="fill:#e0e0e0"></path><path d="M140.35,305.56a41.12,41.12,0,0,1,36.81-6.07c-4.64,4.56-11.07,7-17.54,7.7a55.67,55.67,0,0,1-19.27-1.63" style="fill:#e0e0e0"></path><path d="M137.38,286.83c-.85-8.66-.29-15.49-.9-24.19,0-.69-.19-1.53-.84-1.78-.91-.35-1.66.76-2,1.69a27.72,27.72,0,0,0,3.69,24.09" style="fill:#e0e0e0"></path><path d="M136.76,287.79c5.87-3.63,10.27-8.37,14.34-13.94,2.83-3.88,5.22-8.52,4.58-13.28-4-.08-7.76,2.12-10.35,5.14a29,29,0,0,0-5.27,10.61c-1.15,3.81-1.95,7.72-3.3,11.47" style="fill:#e0e0e0"></path><path d="M150.85,283.87a115.62,115.62,0,0,0,35.29-20.81c-4.21-1.7-9-.68-13.25,1-9.63,3.89-17.5,10.45-22.22,19.7" style="fill:#e0e0e0"></path><path d="M140.72,292.52c6.52.71,13.14,1.18,19.6.1s12.36-3.58,18.29-6.08a2.17,2.17,0,0,0,1.25-1,1.43,1.43,0,0,0-.45-1.56,3.68,3.68,0,0,0-1.56-.73c-6.45-1.81-13.42-1-19.77,1.18a91.42,91.42,0,0,0-17.36,8" style="fill:#e0e0e0"></path><path d="M103.52,308.58c-4.44-9-4.15-19.44-.31-28.69,2.7,4.12,3,9.37,2.53,14.27s-2,9.94-2.08,14.87" style="fill:#e0e0e0"></path><path d="M85.77,299.63A40,40,0,0,0,56,312.29c5.54.87,11.24-.56,16.28-3s9.52-5.91,14-9.33" style="fill:#e0e0e0"></path><path d="M73.83,295.63c-5.43-.44-10.66-1.11-15.88.49s-10,5.23-12.09,10.26a28.72,28.72,0,0,0,14.88-2.81,85.82,85.82,0,0,0,13.09-7.94" style="fill:#e0e0e0"></path><path d="M91.5,295.82c-4.88-3.2-9.9-6.46-15.58-7.79s-12.28-.34-16.24,3.94c4.6,2.7,10.18,3,15.52,3s11.88-.07,16.91,1.71" style="fill:#e0e0e0"></path><path d="M91.53,296.07c-8.35-8.19-11.51-22.92-8.15-34.13a52,52,0,0,1,8.15,34.13" style="fill:#e0e0e0"></path><path d="M114.49,272.84c1.58-3.66,2.68-7.5,4.1-11.23a32.28,32.28,0,0,1,5.84-10.35,15.36,15.36,0,0,1,10.34-5.36,41.7,41.7,0,0,1-20.07,27" style="fill:#e0e0e0"></path><path d="M110.34,277.68c-2.61-3.58-5.62-8.45-9.15-11.13s-8.14-4.3-12.45-3.27a29,29,0,0,0,21.6,14.4" style="fill:#e0e0e0"></path><path d="M111.17,273.14c-1.71-4.34-3.43-8.72-4.12-13.34s-.27-9.54,2.09-13.56c4.58,8.66,6.06,18,2.26,27" style="fill:#e0e0e0"></path><path d="M114.53,246.24c2.6-8.59,10.46-14.91,19-17.82a7,7,0,0,1,3.32-.49,2.88,2.88,0,0,1,2.45,2c.31,1.46-.9,2.77-2,3.74a64.32,64.32,0,0,1-22.69,12.53" style="fill:#e0e0e0"></path><path d="M114.63,239.22c.33-5.54.67-11.16,2.47-16.41s5.28-10.17,10.33-12.46c.86,5.59-1.61,11.15-4.59,16s-6.56,9.35-8.35,14.72" style="fill:#e0e0e0"></path><path d="M114.49,243c-2.14-6.26-2.37-14.21-6.11-19.67-2.62-3.81-6.82-6.4-9.08-10.44a15.89,15.89,0,0,0,.53,11.86,34.39,34.39,0,0,0,6.93,9.92c2.78,3,5.15,5.19,7.73,8.33" style="fill:#e0e0e0"></path><path d="M114.53,427.36c-.16,0-.31-41.76-.32-93.25s.12-93.26.28-93.26.31,41.74.32,93.26S114.7,427.36,114.53,427.36Z" style="fill:#e0e0e0"></path><path d="M151,302.28a8.11,8.11,0,0,1-1.57.59l-4.32,1.46c-3.64,1.24-8.64,3-14.08,5.26s-10.45,4.18-13.33,6.69a9.6,9.6,0,0,0-2.68,3.54c-.42,1-.49,1.58-.55,1.57a1.34,1.34,0,0,1,0-.44,6.48,6.48,0,0,1,.31-1.21,9.35,9.35,0,0,1,2.61-3.78,23.09,23.09,0,0,1,5.79-3.6c2.31-1.08,4.88-2.21,7.61-3.33,5.44-2.23,10.49-4,14.17-5.11,1.84-.57,3.34-1,4.39-1.27A8.53,8.53,0,0,1,151,302.28Z" style="fill:#e0e0e0"></path><path d="M163,272.9s-.13.18-.44.47-.79.75-1.34,1.26l-5,4.54C151.88,283,146,288.24,139.55,294s-12.11,11.31-16,15.47c-2,2.08-3.49,3.8-4.53,5l-1.21,1.39c-.28.31-.44.47-.46.45a3.51,3.51,0,0,1,.36-.53c.25-.34.62-.84,1.13-1.46,1-1.25,2.48-3,4.39-5.14a211.09,211.09,0,0,1,15.92-15.63c6.52-5.77,12.46-11,16.77-14.7l5.13-4.4,1.41-1.17A3.63,3.63,0,0,1,163,272.9Z" style="fill:#e0e0e0"></path><path d="M132.54,299.88c-.17-.08,1.19-3.21,2.54-7.17s2-7.31,2.18-7.29-.23,3.46-1.61,7.48a49.2,49.2,0,0,1-2,5A7.94,7.94,0,0,1,132.54,299.88Z" style="fill:#e0e0e0"></path><path d="M114.57,325.15a7.25,7.25,0,0,1-1-1.16L111,320.7c-2.15-2.78-5.13-6.63-8.47-10.84s-6.41-8-8.63-10.71l-2.62-3.25a7.83,7.83,0,0,1-.91-1.23,7.09,7.09,0,0,1,1.08,1.08c.67.73,1.62,1.79,2.77,3.12,2.31,2.67,5.44,6.4,8.78,10.62s6.28,8.1,8.35,11c1,1.42,1.86,2.59,2.41,3.4A7.72,7.72,0,0,1,114.57,325.15Z" style="fill:#e0e0e0"></path><path d="M106.57,314.88c-.1.11-2.23-2.42-3.35-6.27a17.84,17.84,0,0,1-.76-6.33l.27,0c-.12.49-.21.74-.26.73s0-.27,0-.77l.27,0a29.18,29.18,0,0,0,1.07,6.16C104.88,312.16,106.73,314.78,106.57,314.88Z" style="fill:#e0e0e0"></path><path d="M96.24,301.89a10.67,10.67,0,0,0-2.34-1.36,15.74,15.74,0,0,0-6.5-.52,39.65,39.65,0,0,0-6.54,1.06,21.09,21.09,0,0,1-2.69.65,8.87,8.87,0,0,1,2.58-1.06,29.47,29.47,0,0,1,6.61-1.25,14.32,14.32,0,0,1,6.7.72A4.14,4.14,0,0,1,96.24,301.89Z" style="fill:#e0e0e0"></path><path d="M93.79,298.74c0,.09-1.36-.55-3.58-1.3a36.74,36.74,0,0,0-8.95-1.85,37.13,37.13,0,0,0-9.12.47c-2.31.41-3.71.84-3.74.74a3.73,3.73,0,0,1,.95-.4,22.16,22.16,0,0,1,2.71-.76A31.85,31.85,0,0,1,90.35,297a21.83,21.83,0,0,1,2.57,1.17C93.5,298.51,93.81,298.7,93.79,298.74Z" style="fill:#e0e0e0"></path><path d="M114.49,285.42c-.16.05-1.33-4-2.61-9.08s-2.19-9.19-2-9.23a74.93,74.93,0,0,1,2.61,9.08C113.74,281.25,114.65,285.38,114.49,285.42Z" style="fill:#e0e0e0"></path><path d="M114.66,285.42c-.18.06-.93-2.65-2.9-5.43a23.25,23.25,0,0,0-4.27-4.4c0-.07.71.18,1.65.84a13.29,13.29,0,0,1,3.11,3.21A12.17,12.17,0,0,1,114.66,285.42Z" style="fill:#e0e0e0"></path><path d="M114.53,405.1c-.06,0-.18-1-.65-2.78a40.63,40.63,0,0,0-2.79-7.22c-2.89-5.9-8.14-13.38-14.81-20.86-3.3-3.78-6.51-7.34-9.23-10.75A75.3,75.3,0,0,1,80.44,354a45.29,45.29,0,0,1-3.33-7.06c-.31-.87-.53-1.55-.65-2a3.35,3.35,0,0,1-.18-.72c.06,0,.36.95,1,2.65a52.75,52.75,0,0,0,3.48,6.94,79.56,79.56,0,0,0,6.67,9.39c2.73,3.37,5.94,6.92,9.25,10.7,6.69,7.51,11.93,15.08,14.74,21.07a36.15,36.15,0,0,1,2.63,7.36,17.39,17.39,0,0,1,.37,2.09A3.42,3.42,0,0,1,114.53,405.1Z" style="fill:#e0e0e0"></path><path d="M147.51,367.86a16.71,16.71,0,0,1-1.73,1,37.2,37.2,0,0,0-4.48,3,50.74,50.74,0,0,0-5.89,5.37c-2.07,2.18-4.19,4.72-6.37,7.43-4.34,5.45-8.4,10.27-10.83,14.12-1.24,1.91-2.14,3.52-2.72,4.65a13.71,13.71,0,0,1-1,1.74,1.72,1.72,0,0,1,.16-.49c.13-.31.31-.78.58-1.35a44.09,44.09,0,0,1,2.58-4.77c2.36-3.95,6.39-8.83,10.72-14.27,2.18-2.73,4.33-5.27,6.44-7.44a47.86,47.86,0,0,1,6-5.33,31.73,31.73,0,0,1,4.63-2.83c.57-.29,1-.46,1.35-.6A1.72,1.72,0,0,1,147.51,367.86Z" style="fill:#e0e0e0"></path><path d="M148.15,379.94a24.13,24.13,0,0,1-3.65.53,48.07,48.07,0,0,0-8.66,1.71,25.81,25.81,0,0,0-7.76,4.07c-1.79,1.38-2.63,2.52-2.71,2.45a2.66,2.66,0,0,1,.54-.84,13.8,13.8,0,0,1,1.9-1.94,23.66,23.66,0,0,1,7.84-4.32,39.07,39.07,0,0,1,8.81-1.55A19.63,19.63,0,0,1,148.15,379.94Z" style="fill:#e0e0e0"></path><path d="M126.43,387.38c-.19-.11,1.46-2.62,2.74-6s1.47-6.4,1.69-6.37a5.89,5.89,0,0,1-.06,2,21.07,21.07,0,0,1-1.07,4.62,22,22,0,0,1-2.12,4.23A5.92,5.92,0,0,1,126.43,387.38Z" style="fill:#e0e0e0"></path><path d="M158.19,335.42a2.91,2.91,0,0,1-.59.31l-1.71.78c-.76.32-1.67.73-2.7,1.28s-2.23,1.08-3.49,1.83l-2,1.13c-.69.4-1.37.87-2.1,1.33-1.47.89-2.94,2-4.51,3.11a83.75,83.75,0,0,0-9.42,8.28,85.61,85.61,0,0,0-8,9.69c-1.06,1.61-2.11,3.12-3,4.62-.43.74-.88,1.44-1.25,2.15l-1.07,2c-.71,1.27-1.21,2.5-1.71,3.55s-.88,2-1.18,2.73l-.72,1.74a2.94,2.94,0,0,1-.29.6,2.67,2.67,0,0,1,.17-.64c.17-.47.37-1.06.62-1.78a29.88,29.88,0,0,1,1.09-2.79c.47-1.07.95-2.31,1.64-3.61l1-2.06c.36-.71.8-1.42,1.23-2.17.82-1.52,1.86-3,2.92-4.68a81,81,0,0,1,8-9.8,79.3,79.3,0,0,1,9.52-8.31c1.59-1.12,3.08-2.21,4.57-3.09.74-.45,1.43-.91,2.13-1.3l2-1.11c1.27-.73,2.5-1.25,3.55-1.76s2-.89,2.74-1.18l1.77-.68A2.56,2.56,0,0,1,158.19,335.42Z" style="fill:#e0e0e0"></path><path d="M132.09,352.91a4.23,4.23,0,0,1,1.43-2.14,9.06,9.06,0,0,1,5.79-2.22,15.73,15.73,0,0,1,6.08,1.19,8.73,8.73,0,0,1,2.3,1.12,14.93,14.93,0,0,1-2.44-.72,18.58,18.58,0,0,0-5.92-1,9.53,9.53,0,0,0-5.53,1.94A16.24,16.24,0,0,0,132.09,352.91Z" style="fill:#e0e0e0"></path><path d="M128.19,356.93c-.17-.09,1.31-2.25,1.64-5.34s-.55-5.53-.37-5.58a3.49,3.49,0,0,1,.68,1.56,10.74,10.74,0,0,1,.29,4.09,11,11,0,0,1-1.22,3.91C128.7,356.49,128.25,357,128.19,356.93Z" style="fill:#e0e0e0"></path><path d="M85.69,411.08c.9,16,5.71,32.19,13.11,48.6H131c7.06-16.25,11.53-32.45,12.33-48.6Z" style="fill:#e0e0e0"></path><path d="M138.08,436.91c0,.16-10.59.3-23.65.3s-23.66-.14-23.66-.3,10.59-.31,23.66-.31S138.08,436.74,138.08,436.91Z" style="fill:#fafafa"></path><path d="M137.36,442.69c0,.16-9.93.3-22.17.3S93,442.85,93,442.69s9.93-.3,22.18-.3S137.36,442.52,137.36,442.69Z" style="fill:#fafafa"></path><path d="M99.32,421.56a91.66,91.66,0,0,1,0,14.82c-.17,0-.3-3.32-.3-7.41S99.15,421.56,99.32,421.56Z" style="fill:#fafafa"></path><path d="M116.55,421.56c.17,0,.3,3.44.3,7.67s-.13,7.68-.3,7.68-.3-3.44-.3-7.68S116.38,421.56,116.55,421.56Z" style="fill:#fafafa"></path><path d="M132.73,421.43c.17,0,.3,3.51.3,7.83s-.13,7.82-.3,7.82-.3-3.5-.3-7.82S132.56,421.43,132.73,421.43Z" style="fill:#fafafa"></path><path d="M142.27,421.56c0,.17-12.42.3-27.74.3s-27.74-.13-27.74-.3,12.42-.3,27.74-.3S142.27,421.4,142.27,421.56Z" style="fill:#fafafa"></path><path d="M223.48,142.57a5.83,5.83,0,0,0,2.51-1.69,5.33,5.33,0,0,0,1.23-3.39,9,9,0,0,0-.4-2.33c-.21-.83-.43-1.72-.67-2.66-1.87-7.57-4.57-18.43-7.89-31.84q-1.23-5-2.59-10.55l-1.38-5.62a16,16,0,0,0-.8-2.77,4.89,4.89,0,0,0-1.84-2A4.63,4.63,0,0,0,209,79a24.83,24.83,0,0,0-3,.68l-6.21,1.61-12.95,3.36L129.15,99.58a4.86,4.86,0,0,0-3.46,5.5q.91,3.78,1.8,7.52,1.83,7.5,3.58,14.78c2.34,9.68,4.59,19,6.74,27.93.27,1.11.54,2.22.8,3.32a5.14,5.14,0,0,0,1.45,2.69,4.65,4.65,0,0,0,2.68,1.28,8,8,0,0,0,3-.47L158,159l22-5.6,31.8-8,8.66-2.13,2.26-.53a3.73,3.73,0,0,1,.78-.15,4.52,4.52,0,0,1-.76.25l-2.23.63-8.61,2.31-31.73,8.35-21.92,5.71L146,163a9,9,0,0,1-3.38.5,5.57,5.57,0,0,1-3.22-1.52,6.05,6.05,0,0,1-1.71-3.14c-.26-1.09-.53-2.2-.81-3.31-2.16-8.9-4.44-18.24-6.8-27.92q-1.75-7.26-3.59-14.77-.9-3.78-1.82-7.6a5.87,5.87,0,0,1,4.21-6.64l57.7-14.83,13-3.32,6.21-1.59a25.69,25.69,0,0,1,3.13-.7,5.48,5.48,0,0,1,3.19.81,5.7,5.7,0,0,1,2.15,2.39,17.08,17.08,0,0,1,.84,2.94l1.35,5.62q1.32,5.52,2.53,10.57c3.19,13.44,5.77,24.33,7.57,31.92l.63,2.67a9,9,0,0,1,.36,2.41,5.55,5.55,0,0,1-1.37,3.52,5,5,0,0,1-1.91,1.35A3,3,0,0,1,223.48,142.57Z" style="fill:#e0e0e0"></path><polygon points="178.2 114.56 190.56 118.3 181.29 127.52 172.02 136.75 168.93 123.79 165.83 110.83 178.2 114.56" style="fill:#e0e0e0"></polygon><path d="M547.59,82a8.12,8.12,0,0,1-.12-1.65c0-1.18-.06-2.7-.1-4.52,0-3.82-.08-9.09-.08-14.91v-1h.3c5.65,0,10.73,0,14.4.09l4.34.09a8.41,8.41,0,0,1,1.59.12,8,8,0,0,1-1.59.11l-4.34.09c-3.67.06-8.75.09-14.4.1l.3-.3v.75c0,5.82,0,11.09-.09,14.91,0,1.82-.07,3.34-.1,4.52A8.75,8.75,0,0,1,547.59,82Z" style="fill:#e0e0e0"></path><path d="M588.77,106.61a13,13,0,0,1-.21-2.79c-.06-1.73-.09-4.12-.09-6.75v-.64h.3c2.56,0,4.86,0,6.52.09a11.93,11.93,0,0,1,2.68.21,12.39,12.39,0,0,1-2.68.2c-1.66.06-4,.09-6.52.1l.3-.3v.34c0,2.63,0,5-.09,6.75A13,13,0,0,1,588.77,106.61Z" style="fill:#e0e0e0"></path><path d="M598.31,124.8a13,13,0,0,1-2.79.21c-1.73.06-4.12.09-6.75.09h-.64v-.3c0-2.56,0-4.86.09-6.52a11.93,11.93,0,0,1,.21-2.68,12.72,12.72,0,0,1,.21,2.68c.05,1.66.08,4,.09,6.52l-.3-.3h.34c2.63,0,5,0,6.75.09A13,13,0,0,1,598.31,124.8Z" style="fill:#e0e0e0"></path><path d="M626.19,115.26a12.15,12.15,0,0,1,.21,2.79c.06,1.73.09,4.11.09,6.75v.64h-.3c-2.56,0-4.86,0-6.52-.09a11.93,11.93,0,0,1-2.68-.21,12.72,12.72,0,0,1,2.68-.21c1.66-.05,4-.09,6.52-.09l-.3.3v-.34c0-2.64,0-5,.09-6.75A13.74,13.74,0,0,1,626.19,115.26Z" style="fill:#e0e0e0"></path><path d="M616.65,96.73a12.53,12.53,0,0,1,2.79-.22c1.73-.05,4.12-.08,6.75-.08h.64v.3c0,2.56,0,4.86-.09,6.52a11.93,11.93,0,0,1-.21,2.68,12.72,12.72,0,0,1-.21-2.68c-.05-1.66-.08-4-.09-6.52l.3.3h-.34c-2.63,0-5,0-6.75-.09A13.86,13.86,0,0,1,616.65,96.73Z" style="fill:#e0e0e0"></path><path d="M568.67,161.17a8.18,8.18,0,0,1-1.66.12l-4.51.1c-3.82.05-9.09.08-14.91.08h-1.06v-.3c0-5.65,0-10.73.1-14.4,0-1.75.07-3.21.09-4.34a9.29,9.29,0,0,1,.11-1.59,8.54,8.54,0,0,1,.12,1.59c0,1.13,0,2.59.09,4.34.06,3.67.09,8.75.09,14.4l-.3-.3h.76c5.82,0,11.09,0,14.91.09l4.51.1A8.81,8.81,0,0,1,568.67,161.17Z" style="fill:#e0e0e0"></path><path d="M666.37,139.34a9.16,9.16,0,0,1,.12,1.65c0,1.18,0,2.7.09,4.52.06,3.82.09,9.09.09,14.91v1.05h-.3c-5.65,0-10.74,0-14.41-.09l-4.34-.09a8.35,8.35,0,0,1-1.58-.12,8,8,0,0,1,1.58-.11L652,161c3.67-.06,8.76-.09,14.41-.1l-.3.3v-.75c0-5.82,0-11.09.09-14.91,0-1.82.07-3.34.09-4.52A9.16,9.16,0,0,1,666.37,139.34Z" style="fill:#e0e0e0"></path><path d="M645.29,60.15a8.12,8.12,0,0,1,1.65-.12l4.52-.1c3.82,0,9.09-.08,14.91-.08h1v.3c0,5.65,0,10.73-.09,14.4,0,1.75-.07,3.21-.09,4.34a8.54,8.54,0,0,1-.12,1.59,8.15,8.15,0,0,1-.11-1.59c0-1.13-.06-2.59-.1-4.34,0-3.67-.08-8.75-.09-14.4l.3.3h-.75c-5.82,0-11.09,0-14.91-.09l-4.52-.1A8.75,8.75,0,0,1,645.29,60.15Z" style="fill:#e0e0e0"></path><path d="M659.33,68.28a2,2,0,1,1-2-2A2,2,0,0,1,659.33,68.28Z" style="fill:#e0e0e0"></path><rect x="552.39" y="66.25" width="9.53" height="4.06" rx="0.49" style="fill:#e0e0e0"></rect><rect x="562.52" y="67.37" width="1.67" height="1.83" style="fill:#e0e0e0"></rect><path d="M662.28,243.45s-7.92-.57-7.19,17.2,2.54,27.22,2.54,27.22-.23,3.94-3.28,3.17-8.79-4.61-11.62-1.74-1.9,7.53,2,12.89,12,17.45,12.74,18.54,1,3.09-1.16,2.9-16.76-5.14-18.69,1.93,11.39,20.23,12.82,21.7,1.5,2.4.92,3.29-5.33-1.24-9.54-2.48-9.3-1.93-10.08,2.24,5.1,16.37,27.07,29.2l10.57,5.28,10-6.38c20.58-15,25.19-27.69,24-31.77s-6.19-2.87-10.26-1.21-8.57,4.24-9.24,3.41-.68-1.75.59-3.36,13.21-16,10.58-22.88-16.66-.45-18.79,0-2-1.63-1.44-2.77,7.48-14,10.82-19.72,3.93-10.37.7-13-8.43,1.82-11.39,2.89-3.58-2.82-3.58-2.82.86-9.6-.2-27.34-9.06-16.32-9.06-16.32" style="fill:#ebebeb"></path><path d="M662.91,259.36s0,.13,0,.37,0,.63.08,1.09c.07,1,.17,2.39.29,4.2.24,3.64.55,8.92.91,15.43.73,13,1.57,31.06,2.44,51s1.68,37.93,2.33,51c.33,6.5.6,11.78.78,15.44.09,1.81.16,3.22.21,4.2,0,.46,0,.83,0,1.09s0,.37,0,.37a2.55,2.55,0,0,1,0-.37c0-.26,0-.62-.08-1.09-.07-1-.16-2.38-.29-4.19-.24-3.64-.55-8.92-.91-15.44-.72-13-1.57-31.05-2.44-51s-1.67-37.92-2.32-51c-.33-6.51-.6-11.78-.79-15.44-.09-1.81-.16-3.22-.21-4.2,0-.47,0-.83,0-1.1A3.49,3.49,0,0,1,662.91,259.36Z" style="fill:#e0e0e0"></path><path d="M650.54,295a3.81,3.81,0,0,1,.66.55c.4.37,1,.92,1.67,1.61,1.4,1.38,3.27,3.34,5.3,5.54l5.17,5.66c.62.67,1.14,1.24,1.58,1.7a3.41,3.41,0,0,1,.55.66,3.61,3.61,0,0,1-.67-.55c-.4-.37-1-.92-1.66-1.62-1.39-1.39-3.24-3.37-5.26-5.57l-5.21-5.62-1.58-1.7A3.41,3.41,0,0,1,650.54,295Z" style="fill:#e0e0e0"></path><path d="M666.52,310.35c-.08-.08,3.78-4.13,8.63-9s8.84-8.84,8.92-8.76-3.79,4.13-8.63,9S666.59,310.43,666.52,310.35Z" style="fill:#e0e0e0"></path><path d="M666.47,341a3.49,3.49,0,0,1,.74-.47l2.07-1.16c1.74-1,4.14-2.35,6.74-3.94s4.91-3.12,6.58-4.23l2-1.32a4.06,4.06,0,0,1,.75-.44,3.36,3.36,0,0,1-.66.57c-.44.35-1.09.84-1.9,1.43-1.62,1.17-3.91,2.73-6.53,4.33s-5,2.93-6.82,3.85c-.89.45-1.62.81-2.13,1A4.6,4.6,0,0,1,666.47,341Z" style="fill:#e0e0e0"></path><path d="M649,330.26a2.69,2.69,0,0,1,.73.34c.46.24,1.11.61,1.92,1.07,1.61.91,3.82,2.2,6.24,3.64s4.62,2.77,6.19,3.75l1.85,1.17a3.82,3.82,0,0,1,.65.48,3.14,3.14,0,0,1-.73-.34l-1.92-1.07c-1.61-.91-3.82-2.2-6.24-3.64s-4.62-2.77-6.19-3.75l-1.85-1.17A3.82,3.82,0,0,1,649,330.26Z" style="fill:#e0e0e0"></path><path d="M645.49,357.29a6.15,6.15,0,0,1,.93.45l2.46,1.36c2.07,1.16,4.91,2.79,8,4.61s6,3.48,8,4.71l2.39,1.47a5,5,0,0,1,.85.58,4.35,4.35,0,0,1-.93-.45l-2.46-1.35c-2.06-1.17-4.91-2.79-8-4.61s-5.94-3.49-8-4.71l-2.39-1.47A4.61,4.61,0,0,1,645.49,357.29Z" style="fill:#e0e0e0"></path><path d="M667.69,370a6.14,6.14,0,0,1,.92-.61c.67-.41,1.53-.94,2.57-1.56,2.17-1.33,5.15-3.16,8.4-5.28s6.14-4.1,8.22-5.55l2.47-1.71a6,6,0,0,1,.93-.6,4.77,4.77,0,0,1-.84.72c-.56.45-1.37,1.07-2.39,1.83-2.05,1.51-4.92,3.54-8.17,5.65s-6.27,3.92-8.48,5.18c-1.1.63-2,1.13-2.63,1.46A5,5,0,0,1,667.69,370Z" style="fill:#e0e0e0"></path><polygon points="683.58 388.25 654.34 388.25 663.88 460.49 674.03 460.49 683.58 388.25" style="fill:#e0e0e0"></polygon><path d="M655.85,397.13s0,.1.16.25a1.73,1.73,0,0,0,.7.51,3.57,3.57,0,0,0,3.09-.38c1.18-.65,2.21-1.93,3.79-2.5a8.29,8.29,0,0,1,5.38.11,23.3,23.3,0,0,1,5,2.42,33.57,33.57,0,0,0,4.07,2.19,11.47,11.47,0,0,0,3,.87,4.74,4.74,0,0,0,.85,0c.19,0,.3,0,.3,0a15.28,15.28,0,0,1-4-1.21,41.89,41.89,0,0,1-4-2.25,22.16,22.16,0,0,0-5.09-2.51,8.56,8.56,0,0,0-5.67-.06,7.45,7.45,0,0,0-2.14,1.32,16.67,16.67,0,0,1-1.67,1.3,3.43,3.43,0,0,1-2.85.49A3.3,3.3,0,0,1,655.85,397.13Z" style="fill:#f5f5f5"></path><path d="M656.92,410.43s.23-.3.69-.77a6.4,6.4,0,0,1,2.33-1.49,10.45,10.45,0,0,1,4.07-.61,43.16,43.16,0,0,1,5.09.7,17.46,17.46,0,0,0,5.21.21,14.34,14.34,0,0,0,4.1-1.17,13.42,13.42,0,0,0,2.46-1.46,3.24,3.24,0,0,0,.78-.71,25.81,25.81,0,0,1-3.38,1.86,14.78,14.78,0,0,1-4,1,17.41,17.41,0,0,1-5.08-.25,38.25,38.25,0,0,0-5.15-.66,10.38,10.38,0,0,0-4.2.74,6.17,6.17,0,0,0-2.35,1.67,4.36,4.36,0,0,0-.44.65C656.94,410.34,656.9,410.42,656.92,410.43Z" style="fill:#f5f5f5"></path><path d="M680.26,417.55a2.56,2.56,0,0,0-.8-.41,8.41,8.41,0,0,0-2.43-.52,15.32,15.32,0,0,0-3.66.2c-1.36.23-2.83.6-4.36.93a18.5,18.5,0,0,1-4.36.49,9.46,9.46,0,0,1-3.45-.75,8,8,0,0,1-2.62-1.95,2.16,2.16,0,0,0,.49.76,6.27,6.27,0,0,0,2,1.5,9.14,9.14,0,0,0,3.58.88,18.16,18.16,0,0,0,4.47-.46c1.55-.33,3-.72,4.33-1A16.4,16.4,0,0,1,677,417,13.66,13.66,0,0,1,680.26,417.55Z" style="fill:#f5f5f5"></path><path d="M659.5,427.57a4.79,4.79,0,0,1,2.84-.28,13.25,13.25,0,0,1,3,1.1,11.14,11.14,0,0,0,3.86,1.07,11.67,11.67,0,0,0,7-1.62,10.31,10.31,0,0,0,1.74-1.34,2.82,2.82,0,0,0,.52-.62,26.32,26.32,0,0,1-2.43,1.66,11.9,11.9,0,0,1-6.78,1.44c-2.77-.16-4.89-1.81-6.81-2a4.45,4.45,0,0,0-2.21.19A1.67,1.67,0,0,0,659.5,427.57Z" style="fill:#f5f5f5"></path><path d="M661.13,441.44a5.64,5.64,0,0,0,2.44-.49c1.47-.49,3.29-1.61,5.41-2.46a9.12,9.12,0,0,1,3.11-.65,5.8,5.8,0,0,1,2.5.57,5.45,5.45,0,0,1,1.8,1.56s0-.25-.27-.62a4.25,4.25,0,0,0-1.37-1.24,5.78,5.78,0,0,0-2.65-.71,8.79,8.79,0,0,0-3.29.65c-2.2.87-4,2-5.36,2.59S661.12,441.36,661.13,441.44Z" style="fill:#f5f5f5"></path><path d="M662.56,447.89a7.06,7.06,0,0,0,1.86.6,33.21,33.21,0,0,0,4.62.78,34.59,34.59,0,0,0,4.7.14,7,7,0,0,0,1.93-.23c0-.15-3,0-6.58-.38S662.6,447.75,662.56,447.89Z" style="fill:#f5f5f5"></path></g><g id="background-simple"><path d="M575.3,123.14l-2.7-4.4C550.14,82.2,509.3,60.51,466.54,63.8A110,110,0,0,0,452,65.88c-38.42,8.12-71.85,36.8-85.71,73.55-8.15,21.6-10.42,46.48-25.89,63.63-20.12,22.33-54.29,23-84.33,22.1s-64.23-.13-84.26,22.28c-12.55,14-16.53,34-15.52,52.79C159,350,194.08,394.48,238.74,416.6S336,440.7,384.85,431c68.47-13.63,133.58-51.06,172.72-108.87s49-136.57,17.73-199Z" style="fill:#e0e0e0"></path></g><g id="Floor"><path d="M700,459.68c0,.14-146,.26-326,.26s-326-.12-326-.26,145.93-.26,326-.26S700,459.53,700,459.68Z" style="fill:#263238"></path></g><g id="Chair"><path d="M262.12,244.57l27.07,91.35a9.54,9.54,0,0,0,9.15,6.84l109.81.3a10.14,10.14,0,0,0,10.17-10.68h0a10.15,10.15,0,0,0-10.14-9.62h-42l-33.63-93.7H273.7A12.08,12.08,0,0,0,262.12,244.57Z" style="fill:#455a64"></path><path d="M355,330.26c0,.22-11.19.39-25,.39s-25-.17-25-.39,11.2-.38,25-.38S355,330.05,355,330.26Z" style="fill:#263238"></path><path d="M270.2,232c.2-.07,7.68,21.81,16.69,48.85s16.17,49,16,49.1-7.68-21.8-16.7-48.85S270,232,270.2,232Z" style="fill:#263238"></path><polygon points="350.46 459.43 378.26 459.43 350.46 449.76 350.46 342.76 343.76 342.76 343.76 449.62 343.35 449.62 315.96 459.43 347.09 459.43 350.46 459.43 350.46 459.43" style="fill:#455a64"></polygon></g><g id="Character"><path d="M343.53,105.51c4.63-1.42,10.35-1.85,14.29,1.18,3.53,2.71,5.1,8.57,6.47,12.81a48.54,48.54,0,0,1,2.4,9.6,66.07,66.07,0,0,1,.06,8.56c-.13,5.57.31,11.45,3.44,16.05,1.82,2.67,4.5,4.81,5.71,7.81s-7.45,16.83-7.45,16.83L348,167.44Z" style="fill:#263238"></path><polygon points="368.43 387.22 352.4 437.75 371.72 439.68 389.86 395.79 368.43 387.22" style="fill:#ffbe9d"></polygon><path d="M382.56,420l-9.2,22.81s20.1,17,18.81,21.4L347.29,448l12.88-36.14Z" style="fill:#FF725E"></path><path d="M360.19,435.87a2,2,0,0,0-2,1.64,1.88,1.88,0,0,0,1.6,2,2.07,2.07,0,0,0,2.14-1.74c0-1-.95-2.06-1.9-1.92" style="fill:#e0e0e0"></path><path d="M347.29,448l1.3-3.65,42.63,17s1.68,1.59.95,2.92Z" style="fill:#e0e0e0"></path><path d="M374.17,442.88c-.09.21-1.22-.08-2.55.23s-2.24,1-2.41.87.61-1.31,2.23-1.66S374.29,442.69,374.17,442.88Z" style="fill:#263238"></path><path d="M378.17,446.53c0,.23-1.11.26-2.19.92s-1.65,1.56-1.86,1.47.09-1.38,1.45-2.17S378.24,446.32,378.17,446.53Z" style="fill:#263238"></path><path d="M378.8,453.13c-.21,0-.12-1.23.88-2.23s2.19-1.1,2.22-.88-.84.63-1.65,1.46S379,453.19,378.8,453.13Z" style="fill:#263238"></path><path d="M375.69,437.45c-.16.16-1.06-.5-2.33-.87s-2.38-.32-2.42-.55,1.16-.68,2.65-.23S375.86,437.31,375.69,437.45Z" style="fill:#263238"></path><path d="M377.46,432.81a4.52,4.52,0,0,1-2.24-.83,10.35,10.35,0,0,1-2.09-1.57,10.57,10.57,0,0,1-1-1.15,2.83,2.83,0,0,1-.49-.78,1,1,0,0,1,.32-1.2,1.28,1.28,0,0,1,1.14-.15,3,3,0,0,1,.8.42,8.82,8.82,0,0,1,1.23,1,8.62,8.62,0,0,1,1.58,2.12,4,4,0,0,1,.66,2.3c-.13,0-.39-.83-1.16-2a8.79,8.79,0,0,0-2.74-2.72c-.43-.3-.83-.45-1-.28s-.09.09,0,.27a2.28,2.28,0,0,0,.35.56c.31.4.63.77,1,1.11a13,13,0,0,0,1.87,1.62C376.68,432.32,377.51,432.69,377.46,432.81Z" style="fill:#263238"></path><path d="M377.06,433a3.8,3.8,0,0,1,.2-2.39,7.52,7.52,0,0,1,2.26-3.5,2,2,0,0,1,1.84-.62,1.14,1.14,0,0,1,.72,1,3.66,3.66,0,0,1-.07.91,5.53,5.53,0,0,1-.55,1.51,5.43,5.43,0,0,1-1.8,2c-1.3.85-2.31.78-2.3.7a18.31,18.31,0,0,0,2-1.16,5.26,5.26,0,0,0,1.91-3.17c.1-.5.06-.95-.14-1s-.73.13-1,.45a7.93,7.93,0,0,0-1,1,8.93,8.93,0,0,0-1.25,2.09C377.26,432.12,377.19,433,377.06,433Z" style="fill:#263238"></path><polygon points="432.63 344.56 458.27 385.01 476.1 373.57 452.09 331.38 432.63 344.56" style="fill:#ffbe9d"></polygon><path d="M469.88,361.26l12.35,21.27s25.78-5.4,28.44-1.7l-40.39,25.44-20.61-32.36Z" style="fill:#FF725E"></path><path d="M468.64,388.65a1.94,1.94,0,0,0,.05,2.6,1.86,1.86,0,0,0,2.57,0,2.06,2.06,0,0,0-.06-2.76,2,2,0,0,0-2.68.32" style="fill:#e0e0e0"></path><path d="M470.28,406.27l-1.95-3.35,39.46-23.13s2.29-.35,2.88,1Z" style="fill:#e0e0e0"></path><path d="M482.76,381.92c.12.2-.81.91-1.39,2.15s-.56,2.4-.79,2.44-.66-1.29.06-2.78S482.69,381.71,482.76,381.92Z" style="fill:#263238"></path><path d="M488.1,381c.16.17-.48,1-.62,2.29s.21,2.26,0,2.38-1-.92-.82-2.48S488,380.82,488.1,381Z" style="fill:#263238"></path><path d="M493.7,384.56c-.16.15-1.05-.66-1.23-2.06s.48-2.41.67-2.3,0,1.05.14,2.2S493.88,384.41,493.7,384.56Z" style="fill:#263238"></path><path d="M479.4,377.38c0,.23-1,.53-2.11,1.31s-1.71,1.67-1.92,1.57.18-1.33,1.45-2.23S479.4,377.17,479.4,377.38Z" style="fill:#263238"></path><path d="M476.83,373.14c.06.08-.65.69-2,1.26a10.63,10.63,0,0,1-2.52.68,12.66,12.66,0,0,1-1.55.12,3.11,3.11,0,0,1-.91-.1,1,1,0,0,1-.75-1,1.26,1.26,0,0,1,.58-1,3.28,3.28,0,0,1,.82-.38,9.11,9.11,0,0,1,1.53-.36,8.79,8.79,0,0,1,2.64.05,4,4,0,0,1,2.22.9c-.05.12-.89-.21-2.3-.33a10,10,0,0,0-2.44.12,9.64,9.64,0,0,0-1.39.38c-.5.15-.86.38-.85.64,0,.1,0,.13.19.2a2.47,2.47,0,0,0,.66.06,11.56,11.56,0,0,0,1.46-.06,13.1,13.1,0,0,0,2.42-.48A15.52,15.52,0,0,1,476.83,373.14Z" style="fill:#263238"></path><path d="M476.75,373.58c-.05.07-.88-.39-1.76-1.62a7.82,7.82,0,0,1-1.12-2.39,8.22,8.22,0,0,1-.26-1.55,2,2,0,0,1,.65-1.83,1.1,1.1,0,0,1,1.2,0,3.44,3.44,0,0,1,.68.61,5.47,5.47,0,0,1,1.31,4c-.13,1.54-.81,2.29-.87,2.24a17.5,17.5,0,0,0,.29-2.26,5.5,5.5,0,0,0-.55-2.3,4.77,4.77,0,0,0-.78-1.15c-.33-.39-.71-.63-.84-.49a1.38,1.38,0,0,0-.29,1.11,7.86,7.86,0,0,0,.19,1.41,8.21,8.21,0,0,0,.88,2.27C476.17,372.88,476.84,373.48,476.75,373.58Z" style="fill:#263238"></path><path d="M341.56,293.85c.35,1.59,39.51,37.65,39.51,37.65l-22.74,75.56,32.07,10,34.92-94.33L364,262.59l-28,11.79Z" style="fill:#263238"></path><path d="M405.16,302.16l-27,17.29a80.27,80.27,0,0,1-41.52,13.14l-2.89.09a27.46,27.46,0,0,1-26.18-24.45A69,69,0,0,1,312.11,276l1.29-3.27,20.24,2.46,8,4s71.54-13.67,77.77-12.3c11.14,2.44,52,91.53,52,91.53l-28.56,16.88L405,301.86" style="fill:#263238"></path><path d="M429.11,348.78s-.13-.14-.32-.44L428,347c-.69-1.14-1.65-2.82-2.82-4.91-2.32-4.17-5.43-10-8.73-16.49s-6.19-12.42-8.24-16.73c-1-2.16-1.84-3.91-2.39-5.13l-.63-1.41a2.72,2.72,0,0,1-.18-.5,1.93,1.93,0,0,1,.28.46c.19.36.43.81.71,1.36l2.55,5.05c2.18,4.33,5.12,10.19,8.38,16.66s6.35,12.34,8.59,16.55l2.66,5,.72,1.37A2.31,2.31,0,0,1,429.11,348.78Z" style="fill:#455a64"></path><path d="M387.75,318.35a13,13,0,0,1-1,2.4c-.66,1.46-1.61,3.45-2.68,5.64s-2.07,4.15-2.82,5.56a12.71,12.71,0,0,1-1.31,2.24,12.2,12.2,0,0,1,1-2.4c.66-1.46,1.6-3.45,2.68-5.64s2.07-4.16,2.82-5.57A11.88,11.88,0,0,1,387.75,318.35Z" style="fill:#455a64"></path><path d="M411.5,297.89a3.8,3.8,0,0,1-.55.42l-1.62,1.11-6,4c-5.11,3.36-12.13,8.06-20,13a155.42,155.42,0,0,1-21.05,11.35c-2.81,1.22-5.15,2.05-6.77,2.6l-1.89.59a4.13,4.13,0,0,1-.66.17,3.2,3.2,0,0,1,.63-.28l1.85-.67c1.59-.61,3.91-1.5,6.69-2.76A171.91,171.91,0,0,0,383,316c7.89-5,14.95-9.63,20.11-12.91l6.12-3.88,1.68-1A2.34,2.34,0,0,1,411.5,297.89Z" style="fill:#455a64"></path><path d="M383.79,271.54c0,.14-12.43,2.77-27.82,5.87s-27.9,5.51-27.93,5.37,12.43-2.77,27.83-5.88S383.76,271.4,383.79,271.54Z" style="fill:#455a64"></path><path d="M381.28,331.63c-.12.11-2.19-2.09-5-4.55s-5.21-4.24-5.12-4.37a24.82,24.82,0,0,1,5.48,4A25.38,25.38,0,0,1,381.28,331.63Z" style="fill:#455a64"></path><path d="M435.27,178s4-8.51,5.06-9.34,10.48-4.45,11.29-4.21,12.34,2,11,3.43-9.34,0-9.34,0l-1.06.56s6.94,1,8.41,1.82.91,2.41-.36,2.3-7.3-1.19-7.66-.94,6.57,1.53,7.32,2c1,.57,1.14,2.35-.13,2.28-.74,0-7.28-1.63-7.28-1.63a56.49,56.49,0,0,1,5.68,2.36c.79.73.19,1.86-.94,1.63-.77-.16-4.44-1.84-5.47-2.05,0,0-1,.27-1.8,2.23s-5.77,6.56-5.77,6.56l-3.37,2.78L433.08,180Z" style="fill:#ffbe9d"></path><path d="M437.9,178a2.3,2.3,0,0,0,2.67,0c.81-.51,1.43-1.27,2.2-1.84,2.32-1.68,5.69-1.33,7.92-3.12.31-.25.62-.66.44-1s-.62-.36-1-.34l-9.46.36" style="fill:#ffbe9d"></path><path d="M440.68,172a3.44,3.44,0,0,1,1-.14c.66-.06,1.61-.13,2.79-.2l4.13-.21,1.2-.06a1.87,1.87,0,0,1,1.39.27.79.79,0,0,1,.17.88,1.73,1.73,0,0,1-.46.62,6.36,6.36,0,0,1-1.18.75,37,37,0,0,1-4.89,1.47,7.32,7.32,0,0,0-1.93.91c-.54.39-1,.85-1.46,1.23a3.32,3.32,0,0,1-2.65,1c-.7-.13-.93-.5-.91-.5a3,3,0,0,0,.94.29,3.18,3.18,0,0,0,2.37-1.06c.43-.38.87-.87,1.45-1.3a7.58,7.58,0,0,1,2-1,42.5,42.5,0,0,0,4.81-1.49,5.52,5.52,0,0,0,1.07-.67c.3-.25.44-.59.27-.71s-.59-.15-1-.13l-1.2,0-4.14.1c-1.18,0-2.13,0-2.79,0A3.7,3.7,0,0,1,440.68,172Z" style="fill:#eb996e"></path><path d="M462.64,167.86a5.51,5.51,0,0,1-2.09.61,13,13,0,0,1-2.36.13c-.88-.09-1.85-.21-2.86-.33l-2.15-.29h.13a32,32,0,0,1-4.93,1.63,29.05,29.05,0,0,1,4.75-2.11l.06,0h.07l2.13.26,2.82.37a15.85,15.85,0,0,0,2.3,0C461.82,168,462.62,167.78,462.64,167.86Z" style="fill:#eb996e"></path><path d="M431.55,177.48l-33.46,20L369.81,172.5A23.07,23.07,0,0,0,358.24,167l-7.74-1.26-27,.35-15.29,12.46c-1.71.27-5.4,16.81-7.16,18.67l16.58,52-9,32.77,65.86-10.51L366.47,242s4.66-19.38,5.46-25.9a19.55,19.55,0,0,0-1-8.12l11.84,8.41a21.61,21.61,0,0,0,29.06.45l31.89-28.33Z" style="fill:#FF725E"></path><path d="M364.5,186.57c.05,0,.07.72.21,2a28.49,28.49,0,0,0,1.18,5.3c.68,2.2,1.76,4.73,2.92,7.55a44.12,44.12,0,0,1,3,9.52,26.88,26.88,0,0,1,.38,5.17,36.54,36.54,0,0,1-.4,4.8,58.5,58.5,0,0,1-1.8,7.94c-.65,2.22-1.26,4-1.68,5.21-.21.56-.38,1-.51,1.4a2.16,2.16,0,0,1-.22.48,2.94,2.94,0,0,1,.12-.51c.11-.38.25-.86.41-1.43.37-1.24.92-3,1.53-5.25a62.18,62.18,0,0,0,1.67-7.91,35.72,35.72,0,0,0,.37-4.74,27.61,27.61,0,0,0-.38-5.08,45.82,45.82,0,0,0-2.92-9.42c-1.14-2.83-2.19-5.39-2.83-7.62a24.48,24.48,0,0,1-1-5.39,11.88,11.88,0,0,1,0-1.5A1.76,1.76,0,0,1,364.5,186.57Z" style="fill:#263238"></path><rect x="397.53" y="197.35" width="96.65" height="54.91" style="fill:#FF725E"></rect><g style="opacity:0.30000000000000004"><rect x="397.53" y="197.35" width="48.32" height="54.91"></rect></g><polygon points="445.85 197.35 470.61 186.59 514.54 186.59 494.17 197.35 445.85 197.35" style="fill:#FF725E"></polygon><polygon points="445.85 197.35 429.93 185.79 381.49 185.79 397.53 197.35 445.85 197.35" style="fill:#FF725E"></polygon><g style="opacity:0.30000000000000004"><polygon points="445.85 197.35 429.93 185.79 381.49 185.79 397.53 197.35 445.85 197.35"></polygon></g><path d="M445.85,197.47c0,.14-10.85.26-24.22.26s-24.22-.12-24.22-.26,10.84-.26,24.22-.26S445.85,197.32,445.85,197.47Z" style="fill:#263238"></path><path d="M494.17,197.35c0,.14-10.82.28-24.16.32s-24.16-.06-24.16-.2,10.81-.29,24.16-.32S494.17,197.2,494.17,197.35Z" style="fill:#263238"></path><path d="M445.85,252.26c-.14,0-.26-12.29-.26-27.45s.12-27.46.26-27.46.26,12.29.26,27.46S446,252.26,445.85,252.26Z" style="fill:#263238"></path><rect x="449.28" y="237.37" width="17.74" height="12.29" style="fill:#fff"></rect><path d="M467,249.66s0-.32,0-.89,0-1.46,0-2.48c0-2.2,0-5.24,0-8.92l.08.08-17.73,0,.1-.1h0v6.37c0,2.06,0,4,0,5.9l-.09-.1,12.76.05,3.65,0c.85,0,1.32,0,1.32,0l-1.28,0-3.63,0-12.82,0h-.1v-.09c0-1.87,0-3.84,0-5.9v-6.37h0l.11-.11,17.73,0h.09v.09c0,3.7,0,6.76-.05,9,0,1,0,1.84,0,2.47S467,249.66,467,249.66Z" style="fill:#263238"></path><path d="M465.84,248.37s0-.24,0-.69,0-1.17,0-2c0-1.76,0-4.17,0-7.07l.08.08-15.39,0s.19-.2.1-.11h0v5c0,1.63,0,3.2,0,4.69l-.09-.09,11.05.05,3.19,0,1.15,0-1.11,0-3.16,0-11.12.05h-.1v-.1c0-1.49,0-3.06,0-4.69v-5h0c-.09.09.13-.13.11-.1l15.39,0h.08v.08c0,2.93,0,5.34,0,7.12,0,.78,0,1.43,0,1.94S465.84,248.37,465.84,248.37Z" style="fill:#263238"></path><rect x="460.2" y="242.47" width="4.57" height="4.71" style="fill:#263238"></rect><path d="M459.22,246a66.48,66.48,0,0,1-7.29,0,60.45,60.45,0,0,1,7.29,0Z" style="fill:#263238"></path><path d="M459.22,242.68a66.48,66.48,0,0,1-7.29,0,66.48,66.48,0,0,1,7.29,0Z" style="fill:#263238"></path><path d="M459.22,241.41a60.45,60.45,0,0,1-7.29,0,66.48,66.48,0,0,1,7.29,0Z" style="fill:#263238"></path><path d="M459.22,240.19a66.48,66.48,0,0,1-7.29,0,60.45,60.45,0,0,1,7.29,0Z" style="fill:#263238"></path><path d="M459.22,247.17a60.45,60.45,0,0,1-7.29,0,66.48,66.48,0,0,1,7.29,0Z" style="fill:#263238"></path><rect x="469.92" y="237.37" width="12.04" height="12.29" style="fill:#fff"></rect><path d="M482,249.66s0-.32,0-.91,0-1.48,0-2.5c0-2.23,0-5.27-.05-8.88l.09.09h-12s.19-.19.1-.1h0v3.3c0,1.08,0,2.14,0,3.18,0,2,0,4,0,5.79l-.09-.09,8.71,0,2.45,0c.57,0,.88,0,.88,0l-.84,0-2.44,0-8.76.05h-.09v-.09c0-1.79,0-3.74,0-5.79v-6.48h0l.11-.11,12,0h.09v.09c0,3.63,0,6.69,0,8.93q0,1.53,0,2.49C482,249.36,482,249.66,482,249.66Z" style="fill:#263238"></path><polygon points="472.23 241.78 473.72 239.34 475.23 241.75 474.39 241.75 474.39 247.68 473.06 247.68 473.06 241.78 472.23 241.78" style="fill:#263238"></polygon><polygon points="476.7 241.78 478.19 239.34 479.71 241.75 478.86 241.75 478.86 247.68 477.53 247.68 477.53 241.78 476.7 241.78" style="fill:#263238"></polygon><path d="M388.94,215.3l2.81-.81s1.69-4.69,3.06-6.47,9.13-7.59,9.13-7.59a2.42,2.42,0,0,1,.6,3,38.84,38.84,0,0,1-4,3.87h0a2.38,2.38,0,0,0,3.25,2.42c2.42-1,5.24-2.06,5.62-2.14s2.47-3,3.95-5.11a1.59,1.59,0,0,1,2.92.91.78.78,0,0,1-.15.41s2.63-.61,1,3.41c0,0,1.2,3.17-.44,5.06,0,0-.05,4.13-1,5.74S403,224.63,403,224.63l-10.39,3.46Z" style="fill:#ffbe9d"></path><path d="M405.59,213.27a7,7,0,0,0,2.18-.37,11.63,11.63,0,0,0,4.85-2.36,10.77,10.77,0,0,0,2.79-4.61,7.23,7.23,0,0,0,.53-2.15,10.13,10.13,0,0,0-.91,2,12.18,12.18,0,0,1-2.79,4.33,13.23,13.23,0,0,1-4.58,2.39A10.78,10.78,0,0,0,405.59,213.27Z" style="fill:#eb996e"></path><path d="M407.4,215.84a4.09,4.09,0,0,0,2-.23,15.68,15.68,0,0,0,2.08-.74,6.66,6.66,0,0,0,2.3-1.52,12.3,12.3,0,0,0,1.49-2.28c.34-.67.68-1.31,1-1.93a6.87,6.87,0,0,0,.81-1.85,7.09,7.09,0,0,0-1.16,1.65c-.33.53-.71,1.16-1.12,1.87a13.52,13.52,0,0,1-1.44,2.16,7.07,7.07,0,0,1-2.11,1.42c-.72.35-1.4.62-2,.83C408.14,215.64,407.39,215.76,407.4,215.84Z" style="fill:#eb996e"></path><path d="M409.73,218.64c.08.22,2.16-.67,4.59-1.9a2.23,2.23,0,0,0,.82-.75,6.23,6.23,0,0,0,.53-.81,8.86,8.86,0,0,0,.69-1.45c.32-.87.34-1.45.27-1.46s-.24.51-.64,1.3a14.62,14.62,0,0,1-.77,1.34,8.22,8.22,0,0,1-.52.73,1.71,1.71,0,0,1-.63.58c-1.24.62-2.32,1.21-3.1,1.65A5.87,5.87,0,0,0,409.73,218.64Z" style="fill:#eb996e"></path><path d="M317.29,176.4c-6.46-3.83-14.66-.14-17.16,7.45-1.95,6-1.42,15.44,4,23.63,2.16,3.25,13.86,22.26,22.71,36.92,4.48,7.43,13.33,10.07,20.75,6.19l45.42-21-4.7-16.42-43.79,11.73L327.92,191.4S324.71,180.81,317.29,176.4Z" style="fill:#FF725E"></path><path d="M331.15,200.39s.09.13.26.41.4.71.7,1.25l2.69,4.82c2.34,4.23,5.71,10.34,9.9,17.95l-.2-.08,43.64-11.44.23-.06.07.23c1.62,5,3.3,10.25,5,15.62l.07.22-.2.1-11,5.3-18.48,8.87-8.8,4.21-4.26,2a36.58,36.58,0,0,1-4.25,1.88,16.37,16.37,0,0,1-8.89.45,16.67,16.67,0,0,1-7.47-3.84,16.85,16.85,0,0,1-2.65-3c-.75-1.08-1.43-2.16-2.13-3.2-1.38-2.1-2.7-4.12-4-6-5-7.68-9.11-13.91-11.95-18.23l-3.22-5-.83-1.3-.27-.46a4.61,4.61,0,0,1,.31.43l.88,1.27,3.3,4.92c2.87,4.3,7,10.49,12.09,18.14l4,6c1.41,2.08,2.7,4.38,4.72,6.15a16.23,16.23,0,0,0,7.29,3.71,16,16,0,0,0,8.64-.46,38.35,38.35,0,0,0,4.19-1.86l4.26-2,8.78-4.22,18.49-8.88,11-5.3-.13.31c-1.72-5.38-3.4-10.62-5-15.63l.3.17-43.68,11.29-.14,0-.06-.13-9.76-18L332,202.09l-.66-1.26C331.21,200.54,331.15,200.39,331.15,200.39Z" style="fill:#263238"></path><path d="M316.22,114.23a4.8,4.8,0,0,0-3.29-3.65,9.73,9.73,0,0,0-5.11-.09,9.18,9.18,0,0,0-5.58,3c-1.31,1.71-1.43,4.45.2,5.85a8.68,8.68,0,0,0,0,12.81,5.8,5.8,0,0,0,5.44,1.58c2.07-.65,3.29-2.73,4.22-4.68s1.91-4.08,3.81-5.1" style="fill:#263238"></path><path d="M319.05,116.13a2,2,0,0,0-.35-1.84,2,2,0,0,0-2.39-.49,3.53,3.53,0,0,0-1.47,2,14,14,0,0,0-.77,6.45,4.51,4.51,0,0,0,.8,2.29,1.91,1.91,0,0,0,2.18.67,2.79,2.79,0,0,0,1.25-1.89,27.86,27.86,0,0,0,1.15-8Z" style="fill:#FF725E"></path><path d="M349.4,169.25c0-4.53-.06-8.21-.06-8.21s9-1.32,11-13c1-5.79.9-15.32.55-23.11-.31-7-10-15.06-16.95-14.44l-20.5,4.82v3.77l-.2,50.13a13.07,13.07,0,0,0,13.06,13.11h0A13.06,13.06,0,0,0,349.4,169.25Z" style="fill:#ffbe9d"></path><path d="M358,132.89a1.51,1.51,0,0,1-1.48,1.49A1.44,1.44,0,0,1,355,133a1.51,1.51,0,0,1,1.47-1.49A1.44,1.44,0,0,1,358,132.89Z" style="fill:#263238"></path><path d="M358.78,129.88c-.19.19-1.31-.67-2.92-.69s-2.81.76-3,.55.11-.43.63-.8a4.19,4.19,0,0,1,2.39-.69,3.89,3.89,0,0,1,2.32.8C358.71,129.44,358.87,129.79,358.78,129.88Z" style="fill:#263238"></path><path d="M342.41,132.53a1.5,1.5,0,0,1-1.47,1.49,1.44,1.44,0,0,1-1.52-1.38,1.51,1.51,0,0,1,1.47-1.49A1.43,1.43,0,0,1,342.41,132.53Z" style="fill:#263238"></path><path d="M342.93,129.9c-.19.19-1.31-.67-2.92-.7s-2.81.76-3,.56.11-.43.64-.8a4.13,4.13,0,0,1,2.38-.69,3.92,3.92,0,0,1,2.33.8C342.86,129.45,343,129.81,342.93,129.9Z" style="fill:#263238"></path><path d="M348.57,142a10.43,10.43,0,0,1,2.63-.42c.41,0,.8-.11.87-.39a2.12,2.12,0,0,0-.25-1.23c-.37-1-.76-2-1.16-3.15-1.61-4.49-2.77-8.19-2.59-8.25s1.64,3.53,3.25,8c.38,1.11.75,2.16,1.11,3.17a2.44,2.44,0,0,1,.18,1.62,1,1,0,0,1-.69.59,2.63,2.63,0,0,1-.7.09A10.86,10.86,0,0,1,348.57,142Z" style="fill:#263238"></path><path d="M349.34,161a29.66,29.66,0,0,1-15.56-4.45s3.9,8.09,15.6,7.21Z" style="fill:#eb996e"></path><path d="M343.15,123.88c-.11.45-1.73.44-3.58.89s-3.31,1.14-3.61.78c-.13-.17.08-.61.65-1.11a6.08,6.08,0,0,1,2.59-1.27,6.17,6.17,0,0,1,2.88,0C342.8,123.37,343.19,123.67,343.15,123.88Z" style="fill:#263238"></path><path d="M358.65,123.58c-.28.37-1.39,0-2.73,0s-2.46.26-2.73-.12c-.11-.19.06-.55.56-.9a3.93,3.93,0,0,1,4.39.1C358.62,123,358.77,123.4,358.65,123.58Z" style="fill:#263238"></path><path d="M344.2,109.07c2.43,3.45,5,7,8.7,9,1.22.66,2.54,1.14,3.76,1.79s3.47,2,4.15,3.26.54,4.52.54,4.52c.67-4.68-.57-10.88-3.85-14.28a15.88,15.88,0,0,0-12.86-4.73" style="fill:#263238"></path><path d="M365,120.18a9.59,9.59,0,0,0-1.79-3.13,12.13,12.13,0,0,0-3.06-2.43,47.89,47.89,0,0,0-4.4-2.1,25.32,25.32,0,0,1-7.48-4.88,21,21,0,0,1-1.86-2,3.76,3.76,0,0,1-.57-.81c.07-.06,1,1,2.67,2.52a28.37,28.37,0,0,0,7.45,4.68,40.64,40.64,0,0,1,4.43,2.16,11.78,11.78,0,0,1,3.1,2.6,7.22,7.22,0,0,1,1.34,2.39A2.3,2.3,0,0,1,365,120.18Z" style="fill:#455a64"></path><path d="M349.23,146.19a6.92,6.92,0,0,1-.44,1.86,2.26,2.26,0,0,1-1.35,1.29,2,2,0,0,1-1.89-.5,3.24,3.24,0,0,1-.93-1.79c-.12-.61,0-1.39.56-1.61a1.54,1.54,0,0,1,.77,0l3.44.51" style="fill:#eb996e"></path><path d="M348.61,149.07a4.61,4.61,0,0,1-1.72.2,2.53,2.53,0,0,1-1.55-.84,2.6,2.6,0,0,1-.53-2,2,2,0,0,1,.16-.54c.09-.16.07-.15.21-.16a4.86,4.86,0,0,1,.55.08l.56.08,2,.27a6,6,0,0,0,1.83.1,5.49,5.49,0,0,0-1.76-.5l-1.94-.39-.56-.11c-.2,0-.36-.07-.63-.09a.76.76,0,0,0-.46.12.88.88,0,0,0-.28.36,2.68,2.68,0,0,0-.21.68,3,3,0,0,0,.7,2.48,2.74,2.74,0,0,0,1.9.9,2.61,2.61,0,0,0,1.37-.27C348.51,149.24,348.63,149.1,348.61,149.07Z" style="fill:#263238"></path><path d="M345.15,106.57c3.16,4.12-5.16,12.84-8.71,16.62S329,130.36,330,135.45c1.2,5.9,7,10.23,5.87,16.13-.42,2.16-2.1,4-2.09,6.21,0,4,5.18,5.84,6.69,9.5,2.07,5-3.44,10.11-3.47,15.54,0,3.09,1.75,5.95,1.88,9,.25,6.31-7.17,11-13.32,9.52s-11.45-7.29-11.79-13.6c-.82-15.6-11.31-8.32-11.31-8.32h0s-2-7.42,3.3-16.83c3.38-6,5.44-12.53,7.49-19.06,1.79-5.72,1.74-11.81,2.49-17.75s2.53-12.14,7-16.1,18.7-7.85,22.41-3.15" style="fill:#263238"></path><path d="M314.56,140.72a1.81,1.81,0,0,1,0-.49c0-.31.11-.78.22-1.37a40,40,0,0,1,1.24-5,29,29,0,0,1,3.2-6.87,21.61,21.61,0,0,1,2.83-3.5,22.14,22.14,0,0,1,3.8-3c2.8-1.76,5.68-3,8.18-4.34a27.78,27.78,0,0,0,6.16-4.22,14.4,14.4,0,0,0,3-4c.53-1.06.7-1.71.75-1.7a1.33,1.33,0,0,1-.1.48,8.34,8.34,0,0,1-.47,1.31,13.74,13.74,0,0,1-3,4.16,26.58,26.58,0,0,1-6.19,4.37c-2.5,1.37-5.37,2.63-8.12,4.36a20.83,20.83,0,0,0-6.51,6.31,29.44,29.44,0,0,0-3.25,6.72,49.24,49.24,0,0,0-1.39,4.88A17,17,0,0,1,314.56,140.72Z" style="fill:#455a64"></path><path d="M315.66,127.74s0-.13,0-.37a10.63,10.63,0,0,1,.22-1.05,12,12,0,0,1,1.71-3.53,17.92,17.92,0,0,1,4.1-4.13,36.1,36.1,0,0,1,6.2-3.49c2.28-1,4.49-2,6.41-3a28.61,28.61,0,0,0,4.84-3,22,22,0,0,0,3.64-3.82,1.16,1.16,0,0,1-.16.33,10.17,10.17,0,0,1-.57.91,15.69,15.69,0,0,1-2.68,2.86,26.46,26.46,0,0,1-4.85,3.2c-1.93,1-4.14,2-6.41,3a37.21,37.21,0,0,0-6.13,3.41,18.23,18.23,0,0,0-4.09,4A14.46,14.46,0,0,0,315.66,127.74Z" style="fill:#455a64"></path><path d="M301.1,130.31a2,2,0,0,1-.27-.74,6.72,6.72,0,0,1-.16-2.12,9,9,0,0,1,3.26-6.11,11.09,11.09,0,0,1,6.55-2.35,11.25,11.25,0,0,1,2.12.11,2.3,2.3,0,0,1,.76.19c0,.09-1.11-.08-2.85.07a11.53,11.53,0,0,0-6.25,2.38,9.07,9.07,0,0,0-3.22,5.74A14.5,14.5,0,0,0,301.1,130.31Z" style="fill:#455a64"></path><path d="M303.65,112.22a4.05,4.05,0,0,1,1.8-.45,9.36,9.36,0,0,1,4.4.77,9.21,9.21,0,0,1,3.54,2.73,4,4,0,0,1,.89,1.62,18,18,0,0,1-1.17-1.39,10.41,10.41,0,0,0-7.65-3.36C304.36,112.15,303.67,112.3,303.65,112.22Z" style="fill:#455a64"></path><path d="M323,191.12a9.19,9.19,0,0,1-2.11-2.35,13,13,0,0,1-2-8.29,12.23,12.23,0,0,1,.62-2.82,12.66,12.66,0,0,1,1.42-2.79c1.2-1.8,2.85-3.43,3.94-5.52a8.12,8.12,0,0,0,.94-3.42,11.1,11.1,0,0,0-.52-3.71,30,30,0,0,0-3.65-7.11,22.89,22.89,0,0,1-3.39-7.39,15,15,0,0,1,.59-7.55c1.51-4.65,4.24-8.15,6.32-11.08a52.18,52.18,0,0,0,4.63-7.21c.46-.9.77-1.63,1-2.12a3.85,3.85,0,0,1,.32-.75,6.16,6.16,0,0,1-.23.79c-.17.5-.45,1.24-.87,2.17a49.06,49.06,0,0,1-4.52,7.33c-2.05,3-4.71,6.46-6.17,11a14.56,14.56,0,0,0-.54,7.3,22.56,22.56,0,0,0,3.34,7.22,29.64,29.64,0,0,1,3.69,7.24,11.68,11.68,0,0,1,.53,3.87,8.7,8.7,0,0,1-1,3.62c-1.17,2.18-2.83,3.79-4,5.54a12.28,12.28,0,0,0-1.4,2.68,12,12,0,0,0-.63,2.73,13,13,0,0,0,1.8,8.15A19.22,19.22,0,0,0,323,191.12Z" style="fill:#455a64"></path><path d="M367.79,169.26s.32-.2.82-.62a5.26,5.26,0,0,0,1.51-2.25,6.48,6.48,0,0,0,.12-4,12.63,12.63,0,0,0-2.32-4.41c-1.1-1.42-2.3-2.67-3.3-3.9a16.54,16.54,0,0,1-2.33-3.52,9,9,0,0,1-.81-2.74,2.63,2.63,0,0,1,0-1,12,12,0,0,0,1.14,3.62,17.45,17.45,0,0,0,2.35,3.37c1,1.2,2.23,2.44,3.35,3.89a12.63,12.63,0,0,1,2.38,4.61,6.68,6.68,0,0,1-.25,4.23,5.13,5.13,0,0,1-1.73,2.28A2.25,2.25,0,0,1,367.79,169.26Z" style="fill:#455a64"></path></g><g id="Plant"><path d="M251.24,178.35a20.89,20.89,0,0,1,12.92-1.57c2.34.39,4.78,1.09,6.38,2.85s1.89,4.86.06,6.37a6.09,6.09,0,0,1-4,1c-3.41,0-7.2-.64-9.93,1.42-1.56,1.17-2.59,3.12-4.45,3.69a4.39,4.39,0,0,1-4.84-2.15,7.5,7.5,0,0,1-.55-5.55A8.47,8.47,0,0,1,251.24,178.35Z" style="fill:#FF725E"></path><path d="M242.24,161c2.4,3.43,7.07,2.29,9.24.2s3.08-5.13,3.91-8c1.9-6.62,3.82-13.55,2.41-20.29a11.36,11.36,0,0,0-2.59-5.51,5.87,5.87,0,0,0-5.58-1.86c-2.36.62-3.82,2.93-4.88,5.12A48.41,48.41,0,0,0,240,151.37c0,3.34.39,6.85,2.27,9.61" style="fill:#FF725E"></path><path d="M235.64,165.9c2.61-3.09,3.11-7.61,2-11.49a22.24,22.24,0,0,0-6.81-9.87,36.78,36.78,0,0,0-12.18-7.19,13.25,13.25,0,0,0-5.48-.93,5.76,5.76,0,0,0-4.6,2.79c-1.28,2.44-.05,5.41,1.28,7.83a93.38,93.38,0,0,0,8,12.19c2.4,3.09,5.15,6.14,8.8,7.54s7.45,1.23,9.39-1.31" style="fill:#FF725E"></path><path d="M242.08,212.73a7.61,7.61,0,0,0,.22-1.55c.11-1.14.24-2.56.41-4.26a61.29,61.29,0,0,1,1-6.24,47.58,47.58,0,0,1,2.27-7.37,27.27,27.27,0,0,1,3.76-6.66,14,14,0,0,1,4.75-4,13.14,13.14,0,0,1,4-1.25,8,8,0,0,0,1.55-.22,6.45,6.45,0,0,0-1.58,0,12.09,12.09,0,0,0-4.18,1.09,13.89,13.89,0,0,0-5,4,26.24,26.24,0,0,0-3.9,6.79,44.29,44.29,0,0,0-2.25,7.49,50.82,50.82,0,0,0-.83,6.32c-.14,1.81-.19,3.27-.21,4.28A6.39,6.39,0,0,0,242.08,212.73Z" style="fill:#263238"></path><path d="M242.37,209.46a2.89,2.89,0,0,0,0-.72v-2.07c0-1.8,0-4.39.09-7.6.16-6.42.71-13.32,1.78-23.06,1-9.15,2.37-19.81,3.8-26.73.3-1.58.61-3,.9-4.24s.52-2.31.75-3.18.35-1.48.48-2a3.63,3.63,0,0,0,.13-.72,2.61,2.61,0,0,0-.25.68c-.16.52-.36,1.18-.61,2s-.54,1.93-.85,3.17-.66,2.65-1,4.22a237.35,237.35,0,0,0-4,24.81c-1.07,9.75-1.55,18.64-1.59,25.07,0,3.21,0,5.82.11,7.61.05.85.09,1.53.12,2.07A3.5,3.5,0,0,0,242.37,209.46Z" style="fill:#263238"></path><path d="M242.41,192.33a12.78,12.78,0,0,0,0-2.16c-.08-1.39-.27-3.4-.66-5.86a79.06,79.06,0,0,0-1.91-8.53,70,70,0,0,0-3.56-10.09,53.66,53.66,0,0,0-10.48-16.31,27.56,27.56,0,0,0-2.46-2.29c-.38-.32-.72-.64-1.06-.89l-1-.66a15.22,15.22,0,0,0-1.82-1.17,63.64,63.64,0,0,1,6,5.32A56.94,56.94,0,0,1,235.68,166a80.39,80.39,0,0,1,3.58,10,85.3,85.3,0,0,1,2,8.44c.45,2.43.7,4.42.86,5.8A15.48,15.48,0,0,0,242.41,192.33Z" style="fill:#263238"></path><polygon points="225.85 222.55 227.57 246.07 257.79 246.07 259.5 222.55 225.85 222.55" style="fill:#263238"></polygon><rect x="222.94" y="213.28" width="40.17" height="9.27" style="fill:#263238"></rect><polygon points="222.94 245.17 222.94 247.74 224.82 247.74 262.44 247.74 262.44 245.17 222.94 245.17" style="fill:#455a64"></polygon><polygon points="226.68 252.26 224.82 247.74 261 247.74 258.85 252.26 226.68 252.26" style="fill:#455a64"></polygon><path d="M258.94,230.24a.82.82,0,0,1-.14.21l-.45.6-1.76,2.25-.08.1-.07-.1-4.33-6h.25l-4.26,6-.13.19-.15-.18-5-6h.29l-.28.35-4.51,5.66-.15.18-.14-.19c-1.53-2.17-3-4.2-4.26-6H234l-5.25,6-.09.11-.07-.12-1.64-2.76c-.18-.3-.32-.54-.43-.74s-.13-.25-.12-.26.06.07.17.23l.47.71,1.72,2.71h-.16l5.16-6.05.13-.16.12.17,4.3,6H238l4.5-5.67.28-.35.14-.18.15.18,5,6h-.28l4.3-6,.13-.17.12.17,4.23,6.05h-.15l1.83-2.19.49-.57C258.87,230.29,258.94,230.23,258.94,230.24Z" style="fill:#e0e0e0"></path><path d="M259.92,222.39c0,.11-7.57.19-16.9.19s-16.91-.08-16.91-.19,7.57-.18,16.91-.18S259.92,222.29,259.92,222.39Z" style="fill:#455a64"></path><path d="M261.45,248c0,.11-8.23.19-18.38.19s-18.37-.08-18.37-.19,8.22-.19,18.37-.19S261.45,247.89,261.45,248Z" style="fill:#263238"></path></g><g id="Camera"><rect x="594.72" y="171.05" width="4.07" height="2.95" style="fill:#455a64"></rect><rect x="557.59" y="147.13" width="7.01" height="20.48" style="fill:#FF725E"></rect><g style="opacity:0.30000000000000004"><rect x="557.59" y="147.13" width="7.01" height="20.48"></rect></g><polygon points="564.6 145.46 564.6 169.04 584.68 169.04 589.46 166.17 589.46 148.8 584.6 145.46 564.6 145.46" style="fill:#FF725E"></polygon><rect x="570.79" y="145.46" width="1.53" height="23.58" style="fill:#fafafa"></rect><path d="M581,168.84c-.06,0-.11-5.21-.11-11.62s0-11.63.11-11.63.1,5.2.1,11.63S581,168.84,581,168.84Z" style="fill:#263238"></path><path d="M580.78,164.41a81.19,81.19,0,0,1-8.45,0s1.89-.1,4.22-.1S580.78,164.36,580.78,164.41Z" style="fill:#263238"></path><path d="M580.78,163.11c0,.06-1.89.1-4.23.1s-4.22,0-4.22-.1,1.89-.1,4.22-.1S580.78,163.05,580.78,163.11Z" style="fill:#263238"></path><path d="M580.78,161.8a81.19,81.19,0,0,1-8.45,0c0-.05,1.89-.1,4.22-.1S580.78,161.75,580.78,161.8Z" style="fill:#263238"></path><path d="M580.78,160.5c0,.06-1.89.1-4.23.1s-4.22,0-4.22-.1,1.89-.1,4.22-.1S580.78,160.44,580.78,160.5Z" style="fill:#263238"></path><path d="M580.78,159.2c0,.05-1.89.1-4.23.1s-4.22-.05-4.22-.1a81.19,81.19,0,0,1,8.45,0Z" style="fill:#263238"></path><path d="M580.78,157.89c0,.06-1.89.1-4.23.1s-4.22,0-4.22-.1,1.89-.1,4.22-.1S580.78,157.83,580.78,157.89Z" style="fill:#263238"></path><path d="M580.78,156.59s-1.89.1-4.23.1-4.22-.05-4.22-.1a81.19,81.19,0,0,1,8.45,0Z" style="fill:#263238"></path><path d="M580.78,155.28c0,.06-1.89.1-4.23.1s-4.22,0-4.22-.1,1.89-.1,4.22-.1S580.78,155.22,580.78,155.28Z" style="fill:#263238"></path><path d="M580.78,154c0,.05-1.89.1-4.23.1s-4.22-.05-4.22-.1a81.19,81.19,0,0,1,8.45,0Z" style="fill:#263238"></path><path d="M580.78,152.67a81.19,81.19,0,0,1-8.45,0c0-.06,1.89-.1,4.22-.1S580.78,152.61,580.78,152.67Z" style="fill:#263238"></path><path d="M580.78,151.37s-1.89.1-4.23.1-4.22-.05-4.22-.1a81.19,81.19,0,0,1,8.45,0Z" style="fill:#263238"></path><path d="M580.78,150.06a81.19,81.19,0,0,1-8.45,0c0-.06,1.89-.1,4.22-.1S580.78,150,580.78,150.06Z" style="fill:#263238"></path><path d="M580.78,148.76c0,.05-1.89.1-4.23.1s-4.22-.05-4.22-.1a81.19,81.19,0,0,1,8.45,0Z" style="fill:#263238"></path><path d="M580.78,147.45a81.19,81.19,0,0,1-8.45,0c0-.06,1.89-.1,4.22-.1S580.78,147.39,580.78,147.45Z" style="fill:#263238"></path><path d="M580.78,146.15s-1.89.1-4.23.1-4.22-.05-4.22-.1a81.19,81.19,0,0,1,8.45,0Z" style="fill:#263238"></path><path d="M580.78,165.89c0,.06-1.89.1-4.23.1s-4.22,0-4.22-.1,1.89-.1,4.22-.1S580.78,165.83,580.78,165.89Z" style="fill:#263238"></path><path d="M580.78,167.36a81.19,81.19,0,0,1-8.45,0c0-.05,1.89-.1,4.22-.1S580.78,167.31,580.78,167.36Z" style="fill:#263238"></path><path d="M585.88,141.68v1.09a1.32,1.32,0,0,0,.71,1.17l2.87,1.52v24.13h3a2,2,0,0,0,2-2h11.74a3.45,3.45,0,0,0,3.45-3.45v-21a1.19,1.19,0,0,0-1.19-1.19H607v-1.32l-2.57-2.42-10.75.41-6.77,1.76A1.32,1.32,0,0,0,585.88,141.68Z" style="fill:#FF725E"></path><path d="M609.67,143.51c0,.06-5.33-.3-11.9-.81s-11.9-1-11.89-1,5.33.31,11.9.81S609.67,143.46,609.67,143.51Z" style="fill:#263238"></path><path d="M594.45,147.77c.06,0,.1,4.44.1,9.93s0,9.93-.1,9.93-.1-4.45-.1-9.93S594.39,147.77,594.45,147.77Z" style="fill:#263238"></path><path d="M599.32,142.59a28,28,0,0,1-2.36,2.66,30.1,30.1,0,0,1-2.51,2.52,29.82,29.82,0,0,1,2.36-2.66A32,32,0,0,1,599.32,142.59Z" style="fill:#263238"></path><path d="M592,143.25a.92.92,0,0,0-.91.78.85.85,0,0,0,1.69.21c0-.57-.24-1-.78-1" style="fill:#263238"></path><path d="M589.46,169.59c-.06,0-.1-5.4-.1-12.06s0-12.05.1-12.05.1,5.4.1,12.05S589.52,169.59,589.46,169.59Z" style="fill:#263238"></path><path d="M584.68,169c-.06,0-.12-5.28-.14-11.79s0-11.79.06-11.79.12,5.28.14,11.79S584.74,169,584.68,169Z" style="fill:#263238"></path><path d="M582.63,147.42a.59.59,0,1,1-.16.06" style="fill:#263238"></path><path d="M594.45,167.44H607a0,0,0,0,1,0,0v.69a2,2,0,0,1-2,2h-10.5a0,0,0,0,1,0,0v-2.71A0,0,0,0,1,594.45,167.44Z" style="fill:#263238"></path><rect x="593.33" y="170.16" width="6.59" height="1.17" rx="0.54" style="fill:#263238"></rect><rect x="588.53" y="174" width="17.75" height="2.23" rx="1.03" style="fill:#263238"></rect><rect x="604.39" y="172.97" width="7.39" height="4.28" rx="1.98" style="fill:#263238"></rect><rect x="593.23" y="176.22" width="6.32" height="21.79" style="fill:#263238"></rect><path d="M593.15,197.08h6.47a0,0,0,0,1,0,0V310.28a3,3,0,0,1-3,3h-.48a3,3,0,0,1-3-3V197.08A0,0,0,0,1,593.15,197.08Z" style="fill:#263238"></path><rect x="590.99" y="256.38" width="10.53" height="7.36" rx="2.39" style="fill:#455a64"></rect><path d="M601.53,257.51H604a2.35,2.35,0,0,1,2.35,2.35v.38A2.35,2.35,0,0,1,604,262.6h-2.5a0,0,0,0,1,0,0v-5.09A0,0,0,0,1,601.53,257.51Z" style="fill:#455a64"></path><path d="M586.14,257.51h2.5a2.35,2.35,0,0,1,2.35,2.35v.38a2.35,2.35,0,0,1-2.35,2.35h-2.5a0,0,0,0,1,0,0v-5.09A0,0,0,0,1,586.14,257.51Z" transform="translate(1177.13 520.11) rotate(180)" style="fill:#455a64"></path><rect x="587.09" y="195.81" width="18.6" height="5.15" rx="2.38" style="fill:#263238"></rect><rect x="573.07" y="270.24" width="47.45" height="5.78" rx="2.67" style="fill:#263238"></rect><polygon points="559.53 459.56 566.82 459.68 586.48 274.7 579.15 274.84 559.53 459.56" style="fill:#263238"></polygon><polygon points="634 459.56 626.7 459.68 607.05 274.7 614.37 274.84 634 459.56" style="fill:#263238"></polygon><rect x="604.94" y="197.37" width="22.94" height="2.03" style="fill:#263238"></rect><rect x="625.72" y="195.1" width="10.05" height="6.54" rx="3.03" style="fill:#263238"></rect><path d="M554.9,146.16l.29,22.09,3,1.34V144.92C557.94,145,554.9,146.16,554.9,146.16Z" style="fill:#FF725E"></path><path d="M569.05,169.33c-.06,0-.1-5.41-.1-12.09s0-12.09.1-12.09.11,5.41.11,12.09S569.11,169.33,569.05,169.33Z" style="fill:#263238"></path><path d="M556.68,168.57c-.06,0-.11-5.18-.11-11.57s0-11.56.11-11.56.1,5.17.1,11.56S556.73,168.57,556.68,168.57Z" style="fill:#263238"></path><path d="M564.1,157.81a38.41,38.41,0,0,1-5.81,0,42.25,42.25,0,0,1,5.81,0Z" style="fill:#263238"></path><path d="M604.27,166.82c-.06,0-.11-5.27-.11-11.78s.05-11.79.11-11.79.1,5.28.1,11.79S604.32,166.82,604.27,166.82Z" style="fill:#263238"></path><rect x="578.38" y="334.12" width="38.05" height="2.5" style="fill:#263238"></rect></g><g id="Table"><rect x="236.6" y="257.08" width="9.46" height="202.62" style="fill:#263238"></rect><rect x="479.87" y="257.08" width="7.6" height="202.62" style="fill:#263238"></rect><rect x="176.76" y="252.26" width="369.37" height="14.6" style="fill:#263238"></rect><rect x="176.76" y="252.26" width="52.79" height="14.6" style="fill:#455a64"></rect><path d="M546.17,262.05a15.31,15.31,0,0,1-1.73.67,26.43,26.43,0,0,1-4.93,1.12,44.93,44.93,0,0,1-7.5.29c-2.83-.1-5.92-.42-9.16-.7a69.23,69.23,0,0,0-9.16-.32,32.48,32.48,0,0,0-7.38,1.13,23.13,23.13,0,0,0-4.66,1.9c-.52.29-.92.52-1.18.7s-.41.24-.41.24a13.41,13.41,0,0,1,1.55-1,22.16,22.16,0,0,1,4.66-2,31.41,31.41,0,0,1,7.41-1.18,67.73,67.73,0,0,1,9.19.3c3.24.28,6.33.61,9.15.72a46.08,46.08,0,0,0,7.47-.25,28.85,28.85,0,0,0,4.93-1c.57-.18,1-.33,1.3-.44Z" style="fill:#455a64"></path><path d="M486.59,262.48s1.79-.49,5.08-1.07a82.09,82.09,0,0,1,14.1-1.21h.42l-.4.15a96.27,96.27,0,0,1-18.72,4.89c-1.79.28-3.64.51-5.53.7-.94.09-1.9.17-2.87.23a4.92,4.92,0,0,1-2.92-.33,1.83,1.83,0,0,1-.87-1.25,1.51,1.51,0,0,1,.63-1.39,9.74,9.74,0,0,1,2.84-1.1q2.92-.89,6-1.62a119,119,0,0,1,24-3.32,128.21,128.21,0,0,1,19.77.91,90.16,90.16,0,0,0,13.3.84c1.57-.05,2.79-.17,3.61-.26l1.26-.16s-.43.08-1.25.2-2,.24-3.62.3a90,90,0,0,1-13.32-.77,129.58,129.58,0,0,0-19.74-.87,119.88,119.88,0,0,0-23.95,3.33c-2,.49-4,1-5.95,1.62a9.9,9.9,0,0,0-2.77,1.06,1.31,1.31,0,0,0-.56,1.2,1.63,1.63,0,0,0,.78,1.1,4.74,4.74,0,0,0,2.8.31c1-.06,1.92-.14,2.86-.23,1.89-.18,3.73-.42,5.52-.69a97.15,97.15,0,0,0,18.7-4.84l0,.14a85.6,85.6,0,0,0-14.09,1.14c-1.64.27-2.92.53-3.78.71Z" style="fill:#455a64"></path><path d="M443.6,252.53l.78.18,2.24.54c2,.41,4.79,1,8.34,1.49s7.79.88,12.51,1.06,9.93.18,15.39,0c10.91-.32,20.8-.61,27.93-1.24,3.57-.3,6.44-.65,8.42-.93l2.28-.33.8-.11s-4.35.88-11.48,1.52-17,1-27.95,1.29c-5.46.14-10.67.14-15.4-.05s-9-.61-12.52-1.11-6.38-1.13-8.34-1.56l-2.23-.58Z" style="fill:#455a64"></path><path d="M426.6,262.46l-.74-.16-2.1-.51c-.91-.23-2-.5-3.33-.75s-2.79-.61-4.45-.86-3.46-.59-5.42-.81-4.06-.44-6.26-.65a135.54,135.54,0,0,0-14.42-.24,133,133,0,0,0-14.35,1.45c-2.18.38-4.26.72-6.18,1.17s-3.72.84-5.34,1.26-3.08.85-4.36,1.22-2.37.72-3.26,1l-2.05.68-.72.22.7-.26,2-.72c.89-.32,2-.69,3.26-1.06s2.72-.86,4.35-1.25,3.4-.9,5.34-1.29,4-.8,6.19-1.19a120.49,120.49,0,0,1,28.81-1.21c2.21.21,4.32.38,6.27.67s3.77.54,5.43.84,3.14.61,4.44.88,2.42.55,3.33.79l2.09.54Z" style="fill:#455a64"></path><path d="M465.74,263.8l-.24.06-.7.15c-.6.13-1.49.29-2.59.44a54,54,0,0,1-17.27-.35c-1.09-.21-2-.4-2.57-.55l-.69-.18-.24-.07a.79.79,0,0,1,.25,0l.7.14c.6.13,1.48.3,2.57.48a59.25,59.25,0,0,0,17.23.36c1.1-.14,2-.27,2.6-.38l.7-.11Z" style="fill:#455a64"></path><path d="M443.27,255.77s-.35.15-1,.41a21.75,21.75,0,0,1-3.09.92,28.34,28.34,0,0,1-5.06.61,46.54,46.54,0,0,1-6.74-.32c-2.48-.29-5.18-.76-8.08-1.29s-6-1.12-9.26-1.45a90.31,90.31,0,0,0-21.42.46c-7.56,1-14.68,2.47-21.16,3.79s-12.32,2.48-17.27,3.19c-1.23.2-2.42.35-3.53.48s-2.18.27-3.16.37c-2,.14-3.69.31-5.09.37l-3.22.09H334l1.12-.06,3.22-.12c1.39-.07,3.1-.25,5.07-.41,1-.1,2-.25,3.16-.38s2.3-.29,3.53-.5c4.94-.72,10.78-1.88,17.25-3.23s13.6-2.85,21.18-3.81a90,90,0,0,1,21.46-.44c3.3.33,6.38.95,9.27,1.47s5.59,1,8.07,1.31a46.56,46.56,0,0,0,6.72.35,27.8,27.8,0,0,0,5.05-.57,22.53,22.53,0,0,0,3.08-.88Z" style="fill:#455a64"></path><path d="M325.73,258.8l-1.52,0-4.38-.09-6.91-.16-4.32-.1a4.67,4.67,0,0,1-2.28-.64,1.57,1.57,0,0,1-.78-1,1.25,1.25,0,0,1,.47-1.18,5.09,5.09,0,0,1,2.54-.63l2.72-.24c1.84-.14,3.77-.25,5.77-.32,4-.12,8.26-.09,12.75.21q3.36.22,6.87.64a7.46,7.46,0,0,1,3.43,1,2.35,2.35,0,0,1,1.13,1.44,1.74,1.74,0,0,1-.75,1.68,5.65,5.65,0,0,1-1.7.76l-1.77.57c-1.19.35-2.41.67-3.64.94a62.79,62.79,0,0,1-7.59,1.14,96.54,96.54,0,0,1-15.13-.07c-4.88-.36-9.56-.93-14-1.45a143.14,143.14,0,0,0-23.77-1.36,57.25,57.25,0,0,0-15.77,2.83,43.41,43.41,0,0,0-4,1.63c-.9.42-1.39.63-1.39.63l1.38-.67a41.53,41.53,0,0,1,4-1.67,57.24,57.24,0,0,1,15.78-2.9c6.79-.37,14.89.24,23.8,1.32,4.46.52,9.14,1.08,14,1.44a97.4,97.4,0,0,0,15.1.07,62.46,62.46,0,0,0,7.57-1.14c1.23-.28,2.44-.59,3.62-.94l1.77-.56a5.43,5.43,0,0,0,1.64-.74,1.51,1.51,0,0,0,.67-1.47,2.14,2.14,0,0,0-1-1.31,7.14,7.14,0,0,0-3.35-1q-3.5-.42-6.86-.64c-4.47-.31-8.74-.35-12.73-.23-2,.06-3.92.17-5.76.3l-2.71.24a4.94,4.94,0,0,0-2.46.58,1.07,1.07,0,0,0-.42,1,1.41,1.41,0,0,0,.7.89,4.39,4.39,0,0,0,2.21.62l4.32.12,6.92.2,4.37.13Z" style="fill:#455a64"></path><path d="M271.45,252.92,271,253l-1.26.14c-1.09.11-2.67.31-4.61.61a105.43,105.43,0,0,0-29.25,8.87c-1.78.83-3.21,1.54-4.18,2.05l-1.12.58-.4.19.38-.23,1.11-.61c1-.53,2.37-1.26,4.14-2.12a100.69,100.69,0,0,1,29.3-8.88c1.95-.27,3.53-.45,4.62-.54l1.27-.11Z" style="fill:#455a64"></path></g><g id="Boxes"><rect x="98.29" y="390.22" width="121.83" height="69.23" style="fill:#FF725E"></rect><polyline points="194.35 413.06 194.35 390.23 184.51 390.38 184.51 413.06" style="fill:#fff"></polyline><polygon points="194.36 413.06 194.34 413.06 194.34 390.24 184.52 390.39 184.52 413.06 184.5 413.06 184.5 390.37 184.51 390.37 194.36 390.21 194.36 413.06" style="fill:#263238"></polygon><polyline points="131.84 413.06 131.84 390.23 122 390.38 122 413.06" style="fill:#e0e0e0"></polyline><path d="M159.2,390.38c0,.14-13.67.26-30.53.26s-30.53-.12-30.53-.26,13.67-.26,30.53-.26S159.2,390.23,159.2,390.38Z" style="fill:#263238"></path><path d="M220.12,390.22c0,.15-13.64.3-30.46.34s-30.46,0-30.46-.18,13.64-.3,30.46-.34S220.12,390.08,220.12,390.22Z" style="fill:#263238"></path><path d="M159.2,459.45c-.14,0-.26-15.5-.26-34.61s.12-34.61.26-34.61.26,15.49.26,34.61S159.35,459.45,159.2,459.45Z" style="fill:#263238"></path><rect x="163.52" y="440.68" width="22.36" height="15.49" style="fill:#fff"></rect><path d="M185.88,456.17s0-.39,0-1.11,0-1.82,0-3.13c0-2.74,0-6.59,0-11.25l.08.08-22.36,0s.2-.2.11-.1h0v4.08c0,1.34,0,2.67,0,4v7.44l-.1-.1,16.1.05,4.6,0c1.07,0,1.66,0,1.66,0l-1.62,0-4.58,0-16.16,0h-.09v-.09c0-2.35,0-4.84,0-7.44v-8h0c-.09.09.13-.13.1-.11l22.36,0H186v.09c0,4.68,0,8.55-.05,11.3,0,1.31,0,2.34,0,3.11S185.88,456.17,185.88,456.17Z" style="fill:#263238"></path><path d="M184.41,454.55s0-.31,0-.88,0-1.44,0-2.46c0-2.19,0-5.23-.05-8.92l.09.09-19.41,0,.1-.1h0v6.32c0,2.05,0,4,0,5.91l-.09-.09,13.95,0,4,0,1.45,0s-.49,0-1.41,0l-4,0-14,0h-.1v-6c0-1,0-2.07,0-3.13v-3.19h0l.11-.11,19.41,0h.08v.08c0,3.71,0,6.77-.05,9,0,1,0,1.83,0,2.45S184.41,454.55,184.41,454.55Z" style="fill:#263238"></path><rect x="177.29" y="447.1" width="5.76" height="5.94" style="fill:#263238"></rect><path d="M176.07,451.52c0,.06-2.06.1-4.6.1s-4.6,0-4.6-.1,2.06-.11,4.6-.11S176.07,451.46,176.07,451.52Z" style="fill:#263238"></path><path d="M176.07,447.37c0,.06-2.06.11-4.6.11s-4.6-.05-4.6-.11,2.06-.1,4.6-.1S176.07,447.31,176.07,447.37Z" style="fill:#263238"></path><path d="M176.07,445.78c0,.06-2.06.1-4.6.1s-4.6,0-4.6-.1,2.06-.11,4.6-.11S176.07,445.72,176.07,445.78Z" style="fill:#263238"></path><path d="M176.07,444.23c0,.06-2.06.11-4.6.11s-4.6,0-4.6-.11,2.06-.1,4.6-.1S176.07,444.17,176.07,444.23Z" style="fill:#263238"></path><path d="M176.07,453c0,.06-2.06.1-4.6.1s-4.6,0-4.6-.1,2.06-.11,4.6-.11S176.07,453,176.07,453Z" style="fill:#263238"></path><rect x="189.55" y="440.68" width="15.18" height="15.49" style="fill:#fff"></rect><path d="M204.73,456.17s0-.4,0-1.14,0-1.84,0-3.15c0-2.78,0-6.62-.05-11.2l.09.09H189.55s.2-.2.11-.1h0v4.17c0,1.37,0,2.7,0,4,0,2.59,0,5.05,0,7.3l-.09-.09,11,0,3.09,0,1.11,0-1.07,0-3.07,0-11,.05h-.09v-.09c0-2.25,0-4.71,0-7.3v-8.18h0c-.09.09.13-.13.1-.11l15.18,0h.09v.09c0,4.6,0,8.47,0,11.25,0,1.31,0,2.36,0,3.14S204.73,456.17,204.73,456.17Z" style="fill:#263238"></path><polygon points="192.46 446.23 194.34 443.17 196.25 446.21 195.18 446.21 195.18 453.68 193.5 453.68 193.5 446.24 192.46 446.23" style="fill:#263238"></polygon><polygon points="198.09 446.23 199.98 443.17 201.88 446.21 200.82 446.21 200.82 453.68 199.14 453.68 199.14 446.24 198.09 446.23" style="fill:#263238"></polygon><g style="opacity:0.30000000000000004"><rect x="98.29" y="390.22" width="60.92" height="69.23"></rect></g><rect x="122.2" y="335.6" width="96.09" height="54.6" style="fill:#FF725E"></rect><polyline points="197.97 353.61 197.97 335.6 190.21 335.72 190.21 353.61" style="fill:#fff"></polyline><polygon points="197.98 353.61 197.96 353.61 197.96 335.61 190.22 335.73 190.22 353.61 190.2 353.61 190.2 335.71 190.21 335.71 197.98 335.59 197.98 353.61" style="fill:#263238"></polygon><polyline points="148.67 353.61 148.67 335.6 140.91 335.72 140.91 353.61" style="fill:#e0e0e0"></polyline><path d="M170.25,335.72c0,.14-10.78.26-24.08.26s-24.08-.12-24.08-.26,10.78-.26,24.08-.26S170.25,335.58,170.25,335.72Z" style="fill:#263238"></path><path d="M218.3,335.6c0,.14-10.76.29-24,.32s-24-.06-24-.2,10.75-.29,24-.32S218.3,335.46,218.3,335.6Z" style="fill:#263238"></path><path d="M170.25,390.2c-.14,0-.26-12.22-.26-27.3s.12-27.3.26-27.3.26,12.22.26,27.3S170.39,390.2,170.25,390.2Z" style="fill:#263238"></path><rect x="173.66" y="375.39" width="17.63" height="12.22" style="fill:#fff"></rect><path d="M191.29,387.61s0-.31,0-.88,0-1.45,0-2.47c0-2.18,0-5.21,0-8.87l.08.09-17.63,0s.19-.2.1-.11h0v6.35c0,2,0,4,0,5.86l-.09-.09,12.69,0,3.63,0,1.31,0s-.44,0-1.27,0l-3.61,0-12.75,0h-.1v-.1c0-1.86,0-3.82,0-5.86V375.4h0c-.09.1.13-.12.11-.1l17.63,0h.08v.08c0,3.68,0,6.72,0,8.93,0,1,0,1.82,0,2.44S191.29,387.61,191.29,387.61Z" style="fill:#263238"></path><path d="M190.13,386.34s0-.25,0-.7,0-1.16,0-1.95c0-1.75,0-4.14-.05-7l.09.08-15.31,0,.1-.1h0v9.65l-.1-.1,11,.05,3.17,0,1.15,0-1.11,0-3.14,0-11.06.05h-.1v-9.74h0l.11-.11,15.31,0h.08v.08c0,2.91,0,5.31,0,7.07,0,.79,0,1.43,0,1.93S190.13,386.34,190.13,386.34Z" style="fill:#263238"></path><rect x="184.52" y="380.46" width="4.55" height="4.68" style="fill:#263238"></rect><path d="M183.55,383.94a59.95,59.95,0,0,1-7.26,0,65.93,65.93,0,0,1,7.26,0Z" style="fill:#263238"></path><path d="M183.55,380.67a60,60,0,0,1-7.26,0,65.93,65.93,0,0,1,7.26,0Z" style="fill:#263238"></path><path d="M183.55,379.42a65.93,65.93,0,0,1-7.26,0,59.95,59.95,0,0,1,7.26,0Z" style="fill:#263238"></path><path d="M183.55,378.2a65.93,65.93,0,0,1-7.26,0,59.95,59.95,0,0,1,7.26,0Z" style="fill:#263238"></path><path d="M183.55,385.14a59.95,59.95,0,0,1-7.26,0,65.93,65.93,0,0,1,7.26,0Z" style="fill:#263238"></path><rect x="194.19" y="375.39" width="11.97" height="12.22" style="fill:#fff"></rect><path d="M206.16,387.61s0-.32,0-.9,0-1.47,0-2.49c0-2.22,0-5.24,0-8.83l.09.09-12,0s.19-.2.1-.11h0v6.45c0,2,0,4,0,5.76l-.09-.09,8.65.05,2.44,0,.88,0-.84,0-2.42,0-8.71,0h-.09v-.09c0-1.78,0-3.71,0-5.76,0-1,0-2.08,0-3.16V375.4h0c-.09.1.13-.12.11-.1h12.06v.09c0,3.62,0,6.66-.05,8.89,0,1,0,1.83,0,2.47S206.16,387.61,206.16,387.61Z" style="fill:#263238"></path><polygon points="196.48 379.77 197.96 377.36 199.47 379.75 198.63 379.75 198.63 385.65 197.3 385.65 197.3 379.78 196.48 379.77" style="fill:#263238"></polygon><polygon points="200.92 379.77 202.41 377.36 203.91 379.75 203.07 379.75 203.07 385.65 201.75 385.65 201.75 379.78 200.92 379.77" style="fill:#263238"></polygon><g style="opacity:0.30000000000000004"><rect x="122.2" y="335.6" width="48.05" height="54.6"></rect></g></g><g id="speech-bubble"><path d="M422,80.14a31.08,31.08,0,0,0-24.68,50l-3.63,11.75L405,137.27a31.08,31.08,0,1,0,17-57.13Z" style="fill:#fff"></path><path d="M413.76,111.41a2.69,2.69,0,1,1-2.68-2.69A2.68,2.68,0,0,1,413.76,111.41Z" style="fill:#263238"></path><path d="M424.49,111.41a2.68,2.68,0,1,1-2.68-2.69A2.68,2.68,0,0,1,424.49,111.41Z" style="fill:#263238"></path><path d="M435.2,110.07a2.68,2.68,0,1,1-3.67-1A2.68,2.68,0,0,1,435.2,110.07Z" style="fill:#263238"></path><path d="M422,80.08a2.75,2.75,0,0,1,.54,0l1.59.05c.35,0,.75,0,1.18,0l1.4.19,1.64.24,1.84.46a29.64,29.64,0,0,1,8.88,3.87,31.77,31.77,0,0,1,9.19,8.95,32.14,32.14,0,0,1,5.21,14.61,30.71,30.71,0,0,1,.09,4.3c-.05.73,0,1.47-.14,2.2s-.22,1.47-.34,2.21a31.52,31.52,0,0,1-3,8.74,33.92,33.92,0,0,1-5.71,7.86,33.11,33.11,0,0,1-8.23,5.91,29.82,29.82,0,0,1-10,3.08,21.53,21.53,0,0,1-2.67.23,24.47,24.47,0,0,1-2.71,0,33.23,33.23,0,0,1-5.41-.69,31.47,31.47,0,0,1-10.78-4.54l.32,0-11,4.41-.65.26.19-.68q1.66-6,3.23-11.74l.05.29A31.49,31.49,0,0,1,390.84,117a28.61,28.61,0,0,1-.43-6.87,22.36,22.36,0,0,1,.32-3.3l.24-1.61c.1-.52.26-1,.39-1.55a31.36,31.36,0,0,1,12.25-17.86A29.89,29.89,0,0,1,410.9,82l1.65-.59L414.1,81l1.43-.36c.46-.09.9-.13,1.31-.2.83-.1,1.56-.24,2.2-.28l1.62,0,1,0a1.8,1.8,0,0,1,.34,0,1.91,1.91,0,0,1-.34,0l-1,.08-1.6.11c-.64,0-1.36.21-2.18.33a31.22,31.22,0,0,0-25,23.17c-.12.5-.28,1-.37,1.53l-.24,1.57a21.69,21.69,0,0,0-.29,3.25,28,28,0,0,0,.45,6.73A30.91,30.91,0,0,0,397.24,130l.1.13,0,.16q-1.55,5.69-3.2,11.74l-.47-.41,11-4.42.17-.07.16.1a31,31,0,0,0,15.83,5.1,23.4,23.4,0,0,0,2.65,0,20.73,20.73,0,0,0,2.61-.22,29.32,29.32,0,0,0,9.81-3,32.57,32.57,0,0,0,8.06-5.77,33.09,33.09,0,0,0,5.61-7.68,31,31,0,0,0,2.95-8.55l.33-2.17c.11-.72.1-1.44.15-2.16a31,31,0,0,0-.07-4.21,31.06,31.06,0,0,0-14-23.29,30.06,30.06,0,0,0-8.75-3.94l-1.81-.48-1.62-.27-1.39-.23c-.43,0-.82,0-1.17-.08l-1.58-.12A3.73,3.73,0,0,1,422,80.08Z" style="fill:#263238"></path></g></svg>