<svg xmlns="http://www.w3.org/2000/svg" viewBox="0 0 500 500"><g id="background-complete"><rect x="94.22" y="37.78" width="29.19" height="37.7" transform="translate(23 144.29) rotate(-73.1)" style="fill:#ebebeb"></rect><path d="M131.09,48.15l-.18,0-.52-.14-2-.57L121,45.2,95,37.41l.3-.15L86.79,65.19c0,.08-.33-.61-.17-.32h0l0,0,.08,0,.15,0,.32.09.62.19,1.25.38,2.47.75,4.87,1.48,9.37,2.86,16.85,5.15-.27.15c2.6-8.38,4.74-15.32,6.25-20.2l1.78-5.66c.2-.63.36-1.13.48-1.49a4.64,4.64,0,0,1,.18-.52,3.78,3.78,0,0,1-.12.49q-.15.54-.42,1.47l-1.66,5.64-6.08,20.39-.06.21-.2-.07c-5.14-1.54-10.81-3.26-16.87-5.09L96.3,68.36l-4.87-1.48L89,66.13l-1.25-.38-.62-.19-.32-.09-.15,0-.08,0h-.07c.15.29-.22-.39-.18-.33,3.06-10.06,6-19.57,8.51-27.92l.07-.22.22.06L121.19,45l7.34,2.29,1.93.61.48.16C131.05,48.12,131.1,48.14,131.09,48.15Z" style="fill:#e0e0e0"></path><path d="M125.05,67.51a4,4,0,0,1-.78-.17l-2.18-.59-7.69-2.24-.12,0,0-.12c-.42-1.55-.89-3.25-1.38-5l.17.18-4.46-1.35-5.19-1.59.21,0L98.88,59.7l-.09.06-.1,0-6.8-2.16L90,56.93a3.19,3.19,0,0,1-.65-.27,3.29,3.29,0,0,1,.69.14l1.93.52,6.85,2-.19,0,4.68-3.24.1-.07.11,0,5.21,1.57L113.18,59l.14,0,0,.14c.48,1.79.93,3.5,1.34,5.05l-.16-.16,7.64,2.42,2.14.71A3,3,0,0,1,125.05,67.51Z" style="fill:#e0e0e0"></path><path d="M128,57.68a2.89,2.89,0,0,1-.79-.16l-2.18-.59-7.69-2.24-.12,0,0-.12c-.43-1.55-.89-3.25-1.38-5l.17.17-4.46-1.34-5.2-1.59.21,0-4.7,3.18-.09.06-.1,0-6.81-2.16L93,47.11a3.19,3.19,0,0,1-.65-.27A3.06,3.06,0,0,1,93,47L95,47.5l6.86,2-.19,0,4.67-3.24.1-.07.12,0,5.2,1.57,4.46,1.36.13,0,0,.14,1.33,5-.16-.16,7.64,2.42,2.14.71A5,5,0,0,1,128,57.68Z" style="fill:#e0e0e0"></path><path d="M65.31,77.9,78.47,62a13.65,13.65,0,0,1,10.09-4.27h.21L84.31,72.46,66.79,81.1Z" style="fill:#e0e0e0"></path><path d="M133.86,94.91l-2.37-18.44a13.65,13.65,0,0,0-6-9.17l-.18-.11-4.46,14.68L130.6,98.8Z" style="fill:#e0e0e0"></path><rect x="56.39" y="163.09" width="29.19" height="37.7" transform="translate(-123.73 196.98) rotate(-73.1)" style="fill:#ebebeb"></rect><path d="M84.78,201.38l-.16,0-.5-.14-1.94-.56-7.37-2.17-26.17-7.83-.23-.07.07-.22c2.53-8.36,5.41-17.88,8.46-27.94-.07,0,.62-.33.33-.17h.07l.08,0,.16.05.31.09.63.19,1.24.38,2.48.76,4.87,1.48,9.36,2.85,16.85,5.15.21.07-.06.2-6.29,20.33c-.76,2.4-1.35,4.28-1.76,5.61-.2.61-.36,1.1-.47,1.45s-.17.49-.17.48a3.52,3.52,0,0,1,.14-.53c.1-.37.25-.88.43-1.51.39-1.35,1-3.26,1.67-5.69,1.46-4.9,3.53-11.86,6-20.26l.14.27-16.87-5.09L67,165.73l-4.87-1.48-2.48-.75-1.25-.38-.62-.19-.31-.09-.16-.05-.08,0,0,0h0l.32-.17c-3.07,10.06-6,19.58-8.51,27.92l-.16-.29,26,8,7.39,2.31,2,.63.51.16Z" style="fill:#e0e0e0"></path><path d="M90.53,181.93a2.83,2.83,0,0,1-.79-.16l-2.18-.6-7.69-2.23.22-.05-3.92,3.46-.1.09-.14,0-4.46-1.35-5.2-1.59-.12,0,0-.11c-.75-1.9-1.45-3.67-2.08-5.29l.14.13L57.36,172l-1.89-.63a3.19,3.19,0,0,1-.65-.27,3.06,3.06,0,0,1,.69.14l1.93.52,6.86,2,.1,0,0,.1c.65,1.62,1.37,3.38,2.14,5.27l-.16-.15,5.2,1.57,4.46,1.36-.24.06,3.94-3.43.1-.08.12,0,7.64,2.42,2.14.71A5,5,0,0,1,90.53,181.93Z" style="fill:#e0e0e0"></path><path d="M87.54,191.75a2.87,2.87,0,0,1-.78-.16L84.58,191l-7.69-2.24.21,0-3.91,3.46-.11.09-.13,0-4.46-1.35-5.2-1.59-.12,0,0-.11L61,183.85l.14.13-6.8-2.16-1.89-.64a3.19,3.19,0,0,1-.65-.27,3.29,3.29,0,0,1,.69.14l1.92.52,6.86,2,.1,0,0,.1c.66,1.61,1.38,3.38,2.14,5.26l-.16-.15,5.21,1.57,4.45,1.37-.24,0,4-3.42.1-.09.12,0,7.64,2.42,2.14.71A4.08,4.08,0,0,1,87.54,191.75Z" style="fill:#e0e0e0"></path><path d="M46.41,140.86l2.13,20.5a13.58,13.58,0,0,0,6,9.17l.18.11L59.18,156,49.43,139Z" style="fill:#e0e0e0"></path><path d="M113.32,164l-12.67,14.73A13.65,13.65,0,0,1,90.56,183h-.21l4.46-14.68,17.52-8.65Z" style="fill:#e0e0e0"></path><path d="M41.56,97.34,47.06,99l-3.73,12.3-5.5-1.67A29.14,29.14,0,0,1,41.56,97.34Z" style="fill:#ebebeb"></path><path d="M41.56,97.34a5.48,5.48,0,0,1-.37.9c-.25.57-.63,1.4-1.06,2.46a27.58,27.58,0,0,0-2.05,9l-.18-.25L43.35,111l0,0-.32.17c1.45-4.78,2.79-9.11,3.8-12.27l.13.23-3.95-1.3a12.61,12.61,0,0,1-1.5-.55,10,10,0,0,1,1.46.35c.95.25,2.35.64,4.1,1.14l.17,0,0,.19c-.92,3.19-2.21,7.53-3.67,12.31l-.07.25-.25-.07,0,0-5.44-1.66-.19-.06v-.19a25.82,25.82,0,0,1,2.27-9c.47-1.06.89-1.87,1.2-2.42A5.7,5.7,0,0,1,41.56,97.34Z" style="fill:#e0e0e0"></path><path d="M38.35,106.2a15.44,15.44,0,0,1,2.92.93c1.57.54,2.92.7,2.92.85a5.37,5.37,0,0,1-3.09-.35A6.7,6.7,0,0,1,38.35,106.2Z" style="fill:#e0e0e0"></path><path d="M39.34,103a9.43,9.43,0,0,1,3,.64,9.06,9.06,0,0,1,2.84,1.14,9.43,9.43,0,0,1-3-.64A9.06,9.06,0,0,1,39.34,103Z" style="fill:#e0e0e0"></path><path d="M40.43,99.93a9.11,9.11,0,0,1,3,.64,9.19,9.19,0,0,1,2.84,1.13,9.11,9.11,0,0,1-3-.64A8.91,8.91,0,0,1,40.43,99.93Z" style="fill:#e0e0e0"></path><circle cx="91.28" cy="119.87" r="49.36" transform="translate(-44.51 54.58) rotate(-27.03)" style="fill:#ebebeb"></circle><path d="M44.05,105.53s0,.27-.17.78-.3,1.29-.54,2.29l-.41,1.68c-.12.62-.19,1.32-.3,2.06s-.21,1.55-.33,2.41a23.92,23.92,0,0,0-.17,2.76,47.08,47.08,0,0,0,1.41,14.13,49,49,0,0,0,7.91,17L53,150.76c.57.69,1.19,1.35,1.79,2a27.72,27.72,0,0,0,1.9,2c.68.64,1.38,1.27,2.08,1.92l1.06,1c.39.29.78.58,1.16.88l2.36,1.76c.81.57,1.69,1,2.54,1.59a25.54,25.54,0,0,0,2.65,1.51,46.88,46.88,0,0,0,5.74,2.49c1,.34,2,.75,3,1.05l3.16.79c.53.12,1.06.28,1.6.37l1.64.24c1.1.14,2.2.34,3.32.44a51.64,51.64,0,0,0,6.82.07l1.73-.1.87-.05.87-.14,3.48-.54c1.16-.24,2.3-.58,3.46-.86.57-.16,1.16-.27,1.73-.48l1.7-.61a57,57,0,0,0,6.7-2.91l3.19-1.91.8-.48.76-.55,1.51-1.11L122.2,158l1.42-1.26,1.41-1.27.72-.63.65-.7,2.6-2.83,2.33-3.09a48.64,48.64,0,0,0,9-29.65c-.07-1.3-.14-2.59-.22-3.87s-.39-2.54-.59-3.8l-.15-.94-.23-.93-.48-1.84-.47-1.84-.64-1.77-.64-1.77-.33-.88-.4-.84-1.59-3.36a55.05,55.05,0,0,0-3.95-6.15l-1.07-1.45c-.35-.49-.79-.91-1.17-1.36-.81-.88-1.57-1.8-2.4-2.64l-2.59-2.39-.64-.59-.7-.53-1.38-1A52.89,52.89,0,0,0,115,76.85c-1-.53-2-1-3-1.47l-1.49-.72c-.5-.23-1-.38-1.54-.58L105.89,73c-1-.33-2.08-.54-3.11-.81a44.45,44.45,0,0,0-6.15-1.12,24,24,0,0,0-3-.22c-1,0-2-.12-3-.1l-2.94.16L86.2,71l-1.42.21-2.8.43c-.92.13-1.8.43-2.69.63s-1.77.44-2.63.69l-2.49.9a49.14,49.14,0,0,0-16,9.72,46.68,46.68,0,0,0-9,11,26.76,26.76,0,0,0-1.4,2.39l-1.06,2.19c-.32.68-.65,1.3-.9,1.88s-.41,1.14-.59,1.62l-.82,2.2c-.19.5-.3.75-.3.75s.08-.26.25-.76.43-1.26.77-2.22l.57-1.64c.24-.59.56-1.21.88-1.9l1-2.2c.35-.81.9-1.56,1.38-2.42a47.2,47.2,0,0,1,9-11.06A49.37,49.37,0,0,1,74,73.48l2.51-.91c.86-.26,1.75-.46,2.64-.7a27.57,27.57,0,0,1,2.72-.64l2.82-.45,1.43-.21,1.46-.09,3-.17c1,0,2,.07,3,.1a24.49,24.49,0,0,1,3.07.21,47.1,47.1,0,0,1,6.21,1.11c1,.28,2.09.49,3.13.82l3.09,1.11c.52.19,1,.35,1.56.58l1.51.72c1,.49,2,.94,3,1.48A53.81,53.81,0,0,1,121,80.21l1.4,1.06c.23.17.47.34.7.53l.65.6,2.62,2.41c.84.84,1.61,1.77,2.42,2.66.39.45.83.88,1.19,1.37l1.08,1.47a54.4,54.4,0,0,1,4,6.21l1.61,3.39.4.85.33.89.65,1.78.65,1.79.48,1.86.48,1.86.24.93.15,1q.3,1.9.6,3.84c.07,1.29.14,2.6.22,3.9a53.25,53.25,0,0,1-2.1,15.73,53.22,53.22,0,0,1-7,14.24l-2.35,3.12-2.64,2.86c-.22.23-.43.48-.65.7l-.72.65L124,157.15l-1.43,1.27L121,159.55l-1.53,1.12-.77.56-.81.48-3.22,1.92a55.33,55.33,0,0,1-6.78,2.94l-1.71.62c-.57.2-1.17.31-1.75.47-1.17.29-2.33.63-3.49.87l-3.52.54-.87.14c-.3,0-.59,0-.88,0l-1.75.1a52.67,52.67,0,0,1-6.89-.08c-1.13-.1-2.24-.31-3.35-.46L82,168.58c-.55-.09-1.08-.25-1.61-.38l-3.19-.8c-1-.3-2-.71-3.06-1.06a46.77,46.77,0,0,1-5.78-2.53,25.22,25.22,0,0,1-2.67-1.53c-.86-.54-1.74-1-2.56-1.6l-2.37-1.79L59.6,158l-1.06-1-2.1-1.94c-.71-.62-1.27-1.37-1.9-2s-1.23-1.36-1.81-2.05l-1.58-2.16a49.07,49.07,0,0,1-7.89-17.13,46.67,46.67,0,0,1-1.33-14.21,26.21,26.21,0,0,1,.19-2.77c.13-.86.25-1.66.36-2.41s.2-1.44.33-2.07l.43-1.68c.26-1,.46-1.75.59-2.27S44.05,105.53,44.05,105.53Z" style="fill:#e0e0e0"></path><circle cx="91.28" cy="119.87" r="46.74" transform="translate(-12.57 10.71) rotate(-6.28)" style="fill:#fff"></circle><path d="M91.26,167.12a47.25,47.25,0,0,1-45.18-61l.48.15-.48-.15a47.24,47.24,0,1,1,45.18,61Zm0-93.51a46.39,46.39,0,1,0,13.5,2A46,46,0,0,0,91.22,73.61Z" style="fill:#e0e0e0"></path><path d="M82.07,150.63a9.84,9.84,0,0,1-.68,3.15,10.25,10.25,0,0,1-1.19,3,10.36,10.36,0,0,1,.69-3.16A10.59,10.59,0,0,1,82.07,150.63Z" style="fill:#e0e0e0"></path><path d="M68.37,141.86a10,10,0,0,1-2.17,2.4,9.76,9.76,0,0,1-2.52,2,10.34,10.34,0,0,1,2.16-2.39A10.37,10.37,0,0,1,68.37,141.86Z" style="fill:#e0e0e0"></path><path d="M60.93,127.29a9.91,9.91,0,0,1-3,1.06,10.07,10.07,0,0,1-3.18.56,10.22,10.22,0,0,1,3-1.06A10.07,10.07,0,0,1,60.93,127.29Z" style="fill:#e0e0e0"></path><path d="M100.46,89.65a10.07,10.07,0,0,1,.69-3.16,10.59,10.59,0,0,1,1.18-3,10.18,10.18,0,0,1-.68,3.15A10.25,10.25,0,0,1,100.46,89.65Z" style="fill:#e0e0e0"></path><path d="M84.2,89.31a10.23,10.23,0,0,1-1-3.08,10.16,10.16,0,0,1-.47-3.2,10.23,10.23,0,0,1,1,3.08A10.16,10.16,0,0,1,84.2,89.31Z" style="fill:#e0e0e0"></path><path d="M69.91,97.28a9.92,9.92,0,0,1-2.33-2.23,10.48,10.48,0,0,1-2-2.58A10.06,10.06,0,0,1,68,94.7,10.18,10.18,0,0,1,69.91,97.28Z" style="fill:#e0e0e0"></path><path d="M55.62,109.8a14.27,14.27,0,0,1,3.73.86A14,14,0,0,1,62.93,112a14.27,14.27,0,0,1-3.73-.86A14,14,0,0,1,55.62,109.8Z" style="fill:#e0e0e0"></path><path d="M114.47,98a10,10,0,0,1,2.17-2.39,10.23,10.23,0,0,1,2.52-2A10,10,0,0,1,117,96,10,10,0,0,1,114.47,98Z" style="fill:#e0e0e0"></path><path d="M121.91,112.58a10.56,10.56,0,0,1,3-1.06,10.22,10.22,0,0,1,3.18-.55,10.71,10.71,0,0,1-3,1.06A10.26,10.26,0,0,1,121.91,112.58Z" style="fill:#e0e0e0"></path><path d="M98.64,150.57a10.11,10.11,0,0,1,1,3.08,10,10,0,0,1,.46,3.19,10.26,10.26,0,0,1-1-3.08A10.15,10.15,0,0,1,98.64,150.57Z" style="fill:#e0e0e0"></path><path d="M112.93,142.59a10.61,10.61,0,0,1,2.33,2.24,10,10,0,0,1,1.94,2.58,10.61,10.61,0,0,1-2.33-2.24A10,10,0,0,1,112.93,142.59Z" style="fill:#e0e0e0"></path><path d="M127.22,130.08a14.56,14.56,0,0,1-3.73-.87,13.81,13.81,0,0,1-3.58-1.36,14.56,14.56,0,0,1,3.73.87A14,14,0,0,1,127.22,130.08Z" style="fill:#e0e0e0"></path><path d="M97.94,93.56h0a.37.37,0,0,0-.43.23l-9.7,27.89,1.13.42L98.19,94A.37.37,0,0,0,97.94,93.56Z" style="fill:#e0e0e0"></path><path d="M88.53,122l18.88,3.17a.2.2,0,0,1,0,.4L88,125Z" style="fill:#e0e0e0"></path><polygon points="87.66 120.91 70.14 100.6 69.58 100.91 85.94 122.55 87.66 120.91" style="fill:#e0e0e0"></polygon><path d="M89.52,124.53a2.28,2.28,0,1,1-.49-3.18A2.28,2.28,0,0,1,89.52,124.53Z" style="fill:#ebebeb"></path><path d="M89.52,124.53s.07-.2.18-.53a2.31,2.31,0,0,0,0-1.41,2.1,2.1,0,0,0-1.43-1.36,2.05,2.05,0,1,0-.54,4,2.35,2.35,0,0,0,1.35-.41c.28-.2.42-.36.45-.33s0,.21-.32.48a2.24,2.24,0,0,1-1.47.63,2.45,2.45,0,0,1-2.13-1.06,2.5,2.5,0,0,1,2.79-3.81A2.44,2.44,0,0,1,90,122.49a2.26,2.26,0,0,1-.15,1.59C89.71,124.41,89.54,124.55,89.52,124.53Z" style="fill:#f5f5f5"></path><path d="M91.84,135.84a31.21,31.21,0,0,1-5.54-1.4,31.69,31.69,0,0,1-5.38-1.91,30.78,30.78,0,0,1,5.53,1.41A32.14,32.14,0,0,1,91.84,135.84Z" style="fill:#e0e0e0"></path><path d="M95.79,140.18c0,.13-4.84-1.2-10.71-3s-10.61-3.34-10.57-3.48,4.84,1.2,10.72,3S95.83,140,95.79,140.18Z" style="fill:#e0e0e0"></path><rect x="408.99" y="292.47" width="57.56" height="111.64" rx="24.84" transform="translate(93.57 -92.71) rotate(13.52)" style="fill:#ebebeb"></rect><path d="M433.26,297.34c.25-1,8-21.3,10.19-27.12a1.89,1.89,0,0,1,2.2-1.16l21.07,5.07a1.88,1.88,0,0,1,1.43,2.09l-3.84,28Z" style="fill:#ebebeb"></path><path d="M441.2,400.29c-.25,1-8,21.3-10.19,27.11a1.87,1.87,0,0,1-2.2,1.16l-21.07-5.06a1.89,1.89,0,0,1-1.43-2.1l3.84-28Z" style="fill:#ebebeb"></path><rect x="410.37" y="294.49" width="54.72" height="107.86" rx="23.61" transform="translate(93.61 -92.7) rotate(13.52)" style="fill:#e0e0e0"></rect><rect x="434.21" y="316.42" width="2.72" height="11" rx="1.14" transform="translate(87.35 -92.93) rotate(13.52)" style="fill:#fff"></rect><rect x="431.31" y="328.5" width="2.72" height="11" rx="1.14" transform="translate(90.12 -91.93) rotate(13.53)" style="fill:#fff"></rect><rect x="427.66" y="343.68" width="2.72" height="11" rx="1.14" transform="translate(93.57 -90.65) rotate(13.53)" style="fill:#fff"></rect><rect x="424.75" y="355.76" width="2.72" height="11" rx="1.14" transform="translate(96.31 -89.64) rotate(13.53)" style="fill:#fff"></rect><rect x="440.34" y="317.9" width="2.72" height="11" rx="1.14" transform="translate(87.89 -94.34) rotate(13.53)" style="fill:#fff"></rect><rect x="437.44" y="329.97" width="2.72" height="11" rx="1.14" transform="translate(90.53 -93.24) rotate(13.51)" style="fill:#fff"></rect><rect x="451.49" y="320.58" width="2.72" height="11" rx="1.14" transform="translate(88.8 -96.85) rotate(13.52)" style="fill:#fff"></rect><rect x="448.59" y="332.65" width="2.72" height="11" rx="1.14" transform="translate(91.57 -95.86) rotate(13.53)" style="fill:#fff"></rect><rect x="443.84" y="351.17" width="2.72" height="6.36" rx="1.14" transform="translate(95.22 -94.3) rotate(13.53)" style="fill:#fff"></rect><rect x="431.6" y="359.24" width="2.72" height="5.71" rx="1.14" transform="translate(96.57 -91.12) rotate(13.51)" style="fill:#fff"></rect><rect x="446.98" y="316.49" width="2.72" height="7.64" rx="1.14" transform="translate(32.14 681.39) rotate(-76.49)" style="fill:#fff"></rect><rect x="440.33" y="341.61" width="2.72" height="12.72" rx="1.14" transform="translate(0.08 696.05) rotate(-76.48)" style="fill:#fff"></rect><rect x="437.72" y="351.96" width="2.72" height="12.91" rx="1.14" transform="translate(-12.08 701.49) rotate(-76.47)" style="fill:#fff"></rect><rect x="435.19" y="361.79" width="2.72" height="12.47" rx="1.14" transform="translate(-23.29 706.49) rotate(-76.49)" style="fill:#fff"></rect><rect x="441.98" y="337.28" width="2.72" height="7.64" rx="1.14" transform="translate(8.02 692.38) rotate(-76.48)" style="fill:#fff"></rect><path d="M437.76,377.53a4.08,4.08,0,0,0-2.61-3.21c-1.38-.46-4.13,0-4.79,2,.35-2.11-1.9-3.76-3.34-4a4.13,4.13,0,0,0-3.79,1.68,5.9,5.9,0,0,0-1,4.13,10.7,10.7,0,0,0,1.4,4.09,20.52,20.52,0,0,0,4.14,4.92,20.64,20.64,0,0,0,5.92-2.5,10.84,10.84,0,0,0,3.11-3A5.91,5.91,0,0,0,437.76,377.53Z" style="fill:#f5f5f5"></path></g><g id="background-simple"><path d="M54.13,202.49l1.78,1.38c15,11.63,35.11,14.41,52.21,6.59a48.42,48.42,0,0,0,6.36-3.48,53.41,53.41,0,0,0,23.73-44.5c-.09-10.37-3.14-21.18.52-30.84,4.76-12.57,18.82-18.29,31.43-22.67s26.67-10.13,31.37-22.72c2.95-7.89,1.4-16.91-2-24.64C190.38,41.13,168.66,28,146.58,25.8S102.38,31.11,83.67,43C57.45,59.54,36.46,85.6,29.51,116.09S31.12,181.25,54.13,202.49Z" style="fill:#f5f5f5"></path><circle cx="434.27" cy="300.03" r="38.14" transform="translate(41.11 652.22) rotate(-76.49)" style="fill:#f5f5f5"></circle></g><g id="Table"><path d="M474,466.89c0,.15-98.65.26-220.31.26S33.35,467,33.35,466.89s98.63-.26,220.34-.26S474,466.75,474,466.89Z" style="fill:#263238"></path></g><g id="Hearts"><path d="M196.4,80a7.23,7.23,0,0,0-5.84-4.17c-2.57-.2-7.12,1.59-7.41,5.12-.29-3.53-4.85-5.32-7.41-5.12A7.23,7.23,0,0,0,169.9,80a9.21,9.21,0,0,0-.05,7,18.1,18.1,0,0,0,4.12,6,36.36,36.36,0,0,0,9.18,6.31,36.54,36.54,0,0,0,9.18-6.31,17.92,17.92,0,0,0,4.11-6A9.16,9.16,0,0,0,196.4,80Z" style="fill:#FF725E"></path><path d="M124.94,234.31a3.67,3.67,0,0,0-3-2.12c-1.3-.1-3.62.81-3.76,2.6-.15-1.79-2.47-2.7-3.77-2.6a3.7,3.7,0,0,0-3,2.12,4.72,4.72,0,0,0,0,3.58,9.06,9.06,0,0,0,2.09,3.07,18.63,18.63,0,0,0,4.67,3.21,18.76,18.76,0,0,0,4.66-3.21,9.06,9.06,0,0,0,2.09-3.07A4.63,4.63,0,0,0,124.94,234.31Z" style="fill:#FF725E"></path><path d="M404.15,221.72a8.64,8.64,0,0,0-7-5c-3.06-.23-8.49,1.9-8.84,6.11-.34-4.21-5.78-6.34-8.84-6.11a8.63,8.63,0,0,0-7,5,11,11,0,0,0-.05,8.4,21.22,21.22,0,0,0,4.91,7.21,43.33,43.33,0,0,0,10.94,7.52,43.38,43.38,0,0,0,11-7.52,21.36,21.36,0,0,0,4.91-7.21A11,11,0,0,0,404.15,221.72Z" style="fill:#FF725E"></path></g><g id="wristwatch-2"><path d="M444.12,115h0a2.46,2.46,0,0,1-2.5-2.43l-.08-6a2.48,2.48,0,0,1,2.44-2.5h0a2.47,2.47,0,0,1,2.49,2.44l.08,6A2.45,2.45,0,0,1,444.12,115Z" style="fill:#455a64"></path><path d="M444.09,115.06a2.51,2.51,0,0,1-2.5-2.46l-.07-6a2.49,2.49,0,0,1,2.46-2.52h0a2.5,2.5,0,0,1,2.49,2.46l.08,6a2.5,2.5,0,0,1-2.46,2.52h0ZM444,104.13h0a2.44,2.44,0,0,0-1.72.74,2.42,2.42,0,0,0-.69,1.73l.07,6a2.45,2.45,0,0,0,2.45,2.41h0a2.46,2.46,0,0,0,2.41-2.47l-.08-6A2.44,2.44,0,0,0,444,104.13Z" style="fill:#263238"></path><path d="M432.88,78.08h0a2.47,2.47,0,0,1-3.49.11L425,74.07a2.45,2.45,0,0,1-.11-3.48h0a2.48,2.48,0,0,1,3.49-.11l4.36,4.12A2.45,2.45,0,0,1,432.88,78.08Z" style="fill:#455a64"></path><path d="M431.08,78.88a2.47,2.47,0,0,1-1.71-.67L425,74.09a2.47,2.47,0,0,1-.78-1.74,2.48,2.48,0,0,1,2.41-2.56h.08a2.48,2.48,0,0,1,1.71.68l4.36,4.11a2.45,2.45,0,0,1,.78,1.74,2.49,2.49,0,0,1-.67,1.78h0a2.47,2.47,0,0,1-1.74.78Zm-4.36-9h-.07a2.41,2.41,0,0,0-1.71.77,2.39,2.39,0,0,0-.66,1.74,2.46,2.46,0,0,0,.76,1.71l4.37,4.11a2.41,2.41,0,0,0,1.67.66h.07a2.44,2.44,0,0,0,1.71-.76h0a2.45,2.45,0,0,0-.1-3.45l-4.37-4.12A2.41,2.41,0,0,0,426.72,69.84Z" style="fill:#263238"></path><path d="M441.93,95.89h0a2.46,2.46,0,0,1-3.18-1.42l-2.15-5.6A2.48,2.48,0,0,1,438,85.68h0a2.47,2.47,0,0,1,3.18,1.43l2.14,5.6A2.46,2.46,0,0,1,441.93,95.89Z" style="fill:#455a64"></path><path d="M441.05,96.08a2.5,2.5,0,0,1-2.33-1.6l-2.14-5.6A2.49,2.49,0,0,1,438,85.66a2.48,2.48,0,0,1,3.21,1.44l2.15,5.6a2.48,2.48,0,0,1-.05,1.91,2.55,2.55,0,0,1-1.39,1.31h0A2.5,2.5,0,0,1,441.05,96.08Zm-2.14-10.53a2.35,2.35,0,0,0-.87.16A2.41,2.41,0,0,0,436.68,87a2.38,2.38,0,0,0-.05,1.87l2.14,5.6a2.44,2.44,0,0,0,3.15,1.41h0a2.43,2.43,0,0,0,1.41-3.15l-2.14-5.6a2.44,2.44,0,0,0-2.28-1.57Z" style="fill:#263238"></path><path d="M350.49,72.9l7.35,28.77,10.44-21.1-7.83-18.22-7.27,4.18A5.73,5.73,0,0,0,350.49,72.9Z" style="fill:#455a64"></path><path d="M408,48.17l15.82,25.12-22.49-6.94-7.83-18.21,8-2.4A5.72,5.72,0,0,1,408,48.17Z" style="fill:#455a64"></path><path d="M448.47,142.28l-7.34-28.77-10.44,21.1,7.83,18.21,7.26-4.17A5.7,5.7,0,0,0,448.47,142.28Z" style="fill:#455a64"></path><path d="M391,167l-15.82-25.13,22.49,7L405.45,167l-8,2.4A5.73,5.73,0,0,1,391,167Z" style="fill:#455a64"></path><circle cx="399.93" cy="107.05" r="43.21" transform="translate(148.88 436.26) rotate(-67.66)" style="fill:#455a64"></circle><path d="M439.63,90s-.12-.2-.33-.61l-.93-1.84-.68-1.35c-.27-.48-.61-1-1-1.55l-1.14-1.8a22.69,22.69,0,0,0-1.45-1.94,40.84,40.84,0,0,0-8.92-8.65,43,43,0,0,0-14.88-6.89l-2.25-.54c-.77-.14-1.56-.23-2.35-.34s-1.59-.27-2.41-.29l-2.47-.1-1.26,0-1.27.08-2.57.14c-.86.08-1.72.26-2.59.38a21.71,21.71,0,0,0-2.63.49,39.19,39.19,0,0,0-5.24,1.57c-.87.33-1.76.62-2.62,1L380.13,69c-.43.22-.87.41-1.29.65l-1.23.77c-.81.53-1.66,1-2.47,1.58a46.25,46.25,0,0,0-8.77,8.28c-.64.81-1.22,1.68-1.83,2.52-.29.44-.63.84-.89,1.3l-.79,1.37A48.47,48.47,0,0,0,360,91.15l-1,3.07-.27.78-.2.79-.38,1.6-.38,1.6-.24,1.64-.23,1.65-.12.83,0,.83c-.05,1.12-.09,2.24-.14,3.36l.18,3.39a42.6,42.6,0,0,0,10.71,24.9l2.32,2.47,2.54,2.2.64.55.68.48,1.35,1,1.35,1,1.43.82,1.43.82.71.41.74.34,3,1.34a49.39,49.39,0,0,0,6.11,1.89l1.54.37c.51.12,1,.16,1.55.24,1,.14,2.06.32,3.09.42a44.84,44.84,0,0,0,6.13,0,46,46,0,0,0,5.92-.71c1-.2,1.91-.48,2.85-.71l1.4-.37c.46-.13.91-.32,1.36-.48l2.67-1c.87-.36,1.69-.81,2.53-1.2a41.6,41.6,0,0,0,4.75-2.73,22.33,22.33,0,0,0,2.15-1.57c.7-.55,1.42-1.05,2.06-1.62l1.88-1.77.92-.87.83-.94c.55-.63,1.1-1.25,1.63-1.87s1-1.31,1.45-1.94.94-1.29,1.37-1.94l1.16-2a42.69,42.69,0,0,0,5.23-15.54,41.22,41.22,0,0,0-.13-12.42c-.15-.85-.2-1.66-.41-2.39s-.37-1.42-.53-2.06-.3-1.24-.46-1.77-.36-1-.52-1.42l-.69-1.94c-.15-.44-.22-.67-.22-.67s.1.22.27.65.42,1.09.74,1.92l.54,1.42c.18.53.31,1.13.49,1.77s.36,1.32.55,2.06a22.18,22.18,0,0,1,.44,2.39,41.09,41.09,0,0,1,.22,12.5,43,43,0,0,1-5.2,15.68l-1.16,2c-.43.66-.91,1.3-1.38,2s-.9,1.35-1.45,2l-1.64,1.89-.83.95-.93.88-1.89,1.79c-.65.58-1.38,1.09-2.08,1.65a24.67,24.67,0,0,1-2.17,1.59,39.51,39.51,0,0,1-4.79,2.76c-.85.41-1.68.86-2.56,1.23l-2.69,1c-.46.16-.9.36-1.37.49l-1.42.37c-.95.24-1.9.53-2.87.73a45.53,45.53,0,0,1-6,.73,44.16,44.16,0,0,1-6.19,0c-1-.09-2.08-.27-3.12-.41-.53-.08-1.06-.12-1.57-.25l-1.56-.37a47.33,47.33,0,0,1-6.19-1.9l-3-1.36-.75-.34-.72-.41-1.44-.83-1.45-.83-1.37-1-1.37-1-.69-.49-.64-.55-2.57-2.23-2.36-2.49a43,43,0,0,1-10.83-25.21c-.07-1.15-.13-2.29-.19-3.42l.15-3.4,0-.85.12-.84.23-1.66.24-1.66.39-1.63.39-1.61.2-.81.27-.78c.36-1,.72-2.08,1.07-3.11a49.54,49.54,0,0,1,2.88-5.79l.8-1.38c.27-.47.61-.88.9-1.31.63-.86,1.21-1.74,1.85-2.56a47.87,47.87,0,0,1,4.23-4.52,46.76,46.76,0,0,1,4.66-3.84c.82-.57,1.68-1.06,2.5-1.58l1.25-.78c.42-.25.87-.44,1.3-.66l2.58-1.26c.87-.39,1.77-.68,2.65-1a40,40,0,0,1,5.3-1.58,24.15,24.15,0,0,1,2.65-.48c.88-.12,1.75-.3,2.62-.37l2.6-.14,1.28-.07,1.26,0,2.5.11a24.07,24.07,0,0,1,2.43.3c.8.12,1.59.21,2.37.35l2.27.55a42.93,42.93,0,0,1,15,7,41,41,0,0,1,8.92,8.75c.5.7,1.05,1.3,1.43,2l1.12,1.82c.34.57.68,1.08.95,1.57l.66,1.37.88,1.86C439.55,89.76,439.63,90,439.63,90Z" style="fill:#263238"></path><circle cx="399.93" cy="107.05" r="39.53" transform="translate(18.16 267.23) rotate(-37.75)" style="fill:#263238"></circle><path d="M407.47,145.57l-.76-3.8.4-.08.8,3.79Zm-13.52.32-.44-.06.61-3.83.41.06Zm26.52-5.4-2-3.31.35-.21,2.06,3.28Zm-39.75.95-.39-.22,1.9-3.37.36.19Zm50.19-10.22-3-2.4.24-.32,3.08,2.36Zm-61.06,1.47-.29-.34,2.95-2.51.27.31Zm67.63-13.78-3.69-1.2c0-.13.09-.26.13-.39l3.7,1.16C437.57,118.62,437.52,118.76,437.48,118.91Zm-74.78,1.8c-.05-.14-.11-.28-.16-.43l3.64-1.33c.05.13.1.26.14.38Zm76.69-15.63-3.87.15c0-.13,0-.27,0-.41l3.87-.2C439.37,104.78,439.38,104.93,439.39,105.08ZM364,107l-3.87,0v-.45l3.87,0Zm68.79-14c-.06-.13-.11-.26-.16-.38L436.19,91c.06.14.12.27.17.41Zm-66.65,1.6-3.65-1.32.16-.42,3.63,1.35ZM428,84.75l-.25-.32,3-2.41.28.36Zm-55.6-1.13-3-2.49.29-.34,2.94,2.53Zm46.25-7.3-.34-.21,2-3.31.39.23Zm-36.57-.74-1.91-3.37.4-.22,1.87,3.39ZM407,71.65l-.4-.08.74-3.8.45.09Zm-13-.27-.63-3.82.45-.07.58,3.83Z" style="fill:#e0e0e0"></path><path d="M384.5,77.89l2.8,6.49-1.51.65-2.27-5.29-1.3.56-.52-1.21Z" style="fill:#e0e0e0"></path><path d="M392.75,80.59l.53,1.22-4.91,2.11L388,83l1.49-3.45a2.93,2.93,0,0,0,.26-.88,1.31,1.31,0,0,0-.1-.6.79.79,0,0,0-.52-.49,1.34,1.34,0,0,0-.86.13,1.8,1.8,0,0,0-.7.49,1.64,1.64,0,0,0-.37.73l-1.4-.23a2.93,2.93,0,0,1,.67-1.34,3.81,3.81,0,0,1,1.4-1,3.38,3.38,0,0,1,1.36-.31,2.1,2.1,0,0,1,1.13.3,1.87,1.87,0,0,1,.74.89,2.55,2.55,0,0,1,.21,1.09,4.47,4.47,0,0,1-.41,1.43L390,81.79Z" style="fill:#e0e0e0"></path><path d="M373.64,114.88a3.7,3.7,0,0,1,1.8,2.06,4.43,4.43,0,0,1,.4,2.07,3.06,3.06,0,0,1-.65,1.69,4,4,0,0,1-1.56,1.16,5.33,5.33,0,0,1-1,.31,3.06,3.06,0,0,1-.95,0l.08-1.35a2.22,2.22,0,0,0,1.35-.2,1.87,1.87,0,0,0,1.1-1,2.19,2.19,0,0,0-.08-1.62,2.38,2.38,0,0,1-1.36,1.27,2.77,2.77,0,0,1-1.24.24,2.16,2.16,0,0,1-1.12-.36,2.07,2.07,0,0,1-.75-.94,2.21,2.21,0,0,1-.17-1.28,2.3,2.3,0,0,1,.57-1.13,2.93,2.93,0,0,1,1.13-.8A3,3,0,0,1,373.64,114.88Zm-.38,2.48a1,1,0,0,0,0-.83.94.94,0,0,0-.6-.57,1.35,1.35,0,0,0-.95.09,1.31,1.31,0,0,0-.67.59,1,1,0,0,0,0,.84,1,1,0,0,0,.61.58,1.44,1.44,0,0,0,1.6-.7Z" style="fill:#e0e0e0"></path><path d="M428.69,94.24a1.92,1.92,0,0,1,1,1,2.06,2.06,0,0,1,.16,1.17,2.25,2.25,0,0,1-.58,1.15,3.71,3.71,0,0,1-1.36.93,5.54,5.54,0,0,1-1.43.4,3.77,3.77,0,0,1-1.35,0l.09-1.4a3,3,0,0,0,1,.06,3.91,3.91,0,0,0,1.07-.27,1.77,1.77,0,0,0,.79-.61.72.72,0,0,0,.06-.75c-.23-.53-.75-.63-1.56-.28l-.68.3-.43-1,.69-2.08-2.77,1.19-.51-1.21,4.54-1.95.42,1-.75,2.3A2.39,2.39,0,0,1,428.69,94.24Z" style="fill:#e0e0e0"></path><path d="M413,133.45a2.09,2.09,0,0,1,1.87,1.3,2.21,2.21,0,0,1-.4,2.41,3.24,3.24,0,0,1-1.13.81,3,3,0,0,1-2.5.08,3.7,3.7,0,0,1-1.79-2.05,4.37,4.37,0,0,1-.4-2.08,3.14,3.14,0,0,1,.65-1.69,3.9,3.9,0,0,1,1.56-1.16,5,5,0,0,1,1-.31,3.13,3.13,0,0,1,1,0l-.08,1.35a2.31,2.31,0,0,0-1.36.19,1.93,1.93,0,0,0-1.1,1.05,2.19,2.19,0,0,0,.08,1.62,2.33,2.33,0,0,1,1.36-1.26A2.74,2.74,0,0,1,413,133.45Zm.44,2.83a.93.93,0,0,0,0-.83,1,1,0,0,0-.61-.58,1.23,1.23,0,0,0-.91.08,1.29,1.29,0,0,0-.69.62,1,1,0,0,0,0,.83,1,1,0,0,0,.61.57,1.34,1.34,0,0,0,1-.09A1.25,1.25,0,0,0,413.46,136.28Z" style="fill:#e0e0e0"></path><path d="M398.76,91.66s-.21-.39-.7-1A4.84,4.84,0,0,0,395.38,89,4.76,4.76,0,0,0,391,90.19a4.7,4.7,0,1,0,7.33,5.75,4.89,4.89,0,0,0,.63-3.1c-.1-.76-.28-1.16-.23-1.18s.07.09.16.28a3.46,3.46,0,0,1,.27.87,4.84,4.84,0,0,1-.51,3.31,5.09,5.09,0,0,1-4.15,2.64,5.15,5.15,0,0,1-3.83-8.92,5.1,5.1,0,0,1,4.77-1.19,4.92,4.92,0,0,1,2.75,1.9,3.87,3.87,0,0,1,.45.8C398.75,91.55,398.78,91.65,398.76,91.66Z" style="fill:#FF725E"></path><path d="M400.83,91.18c-.29.1-.56.11-.6,0s.16-.29.44-.41.56-.13.61,0S401.12,91.08,400.83,91.18Z" style="fill:#FF725E"></path><path d="M399.82,97.71c-.25-.19-.4-.41-.33-.5s.32,0,.58.15.41.4.33.5S400.06,97.9,399.82,97.71Z" style="fill:#FF725E"></path><path d="M393.78,100.41c0-.31.14-.56.24-.55s.19.26.19.57-.11.56-.24.55S393.75,100.72,393.78,100.41Z" style="fill:#FF725E"></path><path d="M388.24,96.8c.27-.14.54-.18.59-.09s-.11.3-.38.47-.52.2-.59.09S388,97,388.24,96.8Z" style="fill:#FF725E"></path><path d="M388.25,90.19c.27.15.45.35.4.45s-.31.07-.59-.06-.46-.33-.41-.45S388,90,388.25,90.19Z" style="fill:#FF725E"></path><path d="M393.81,86.61c0,.31-.05.57-.15.58s-.23-.23-.28-.53,0-.57.16-.58S393.79,86.3,393.81,86.61Z" style="fill:#FF725E"></path><path d="M399.84,89.34c-.25.18-.51.26-.58.18s.07-.32.31-.52.49-.28.57-.18S400.08,89.15,399.84,89.34Z" style="fill:#FF725E"></path><path d="M410.84,117.49s-.24-.47-.82-1.18a5.77,5.77,0,0,0-3.18-2,5.62,5.62,0,1,0,3.55,8.26,5.78,5.78,0,0,0,.74-3.68c-.12-.91-.34-1.38-.29-1.4a1.28,1.28,0,0,1,.18.33,4.79,4.79,0,0,1,.31,1,5.79,5.79,0,0,1-.62,3.91,6,6,0,0,1-10.85-.56,6.07,6.07,0,0,1,1.45-6.84,6,6,0,0,1,5.62-1.41,5.83,5.83,0,0,1,3.26,2.24,4.58,4.58,0,0,1,.53.94A1.48,1.48,0,0,1,410.84,117.49Z" style="fill:#fff"></path><path d="M413.26,116.84c-.29.11-.56.11-.6,0s.16-.28.45-.41.55-.12.6,0S413.56,116.74,413.26,116.84Z" style="fill:#fff"></path><path d="M412.82,123.52c-.27-.15-.46-.35-.41-.44s.32-.08.6,0,.46.33.41.44S413.09,123.66,412.82,123.52Z" style="fill:#fff"></path><path d="M407.55,127.64c-.07-.3-.05-.57.06-.6s.26.19.35.49.07.56,0,.59S407.62,127.94,407.55,127.64Z" style="fill:#fff"></path><path d="M401,126.47c.18-.26.4-.42.49-.36s0,.32-.12.59-.38.42-.49.36S400.79,126.72,401,126.47Z" style="fill:#fff"></path><path d="M397.44,120.77c.31,0,.57,0,.59.13s-.22.24-.52.3-.57,0-.59-.12S397.13,120.81,397.44,120.77Z" style="fill:#fff"></path><path d="M399.33,114.36c.23.2.37.43.3.52s-.32,0-.57-.19-.38-.42-.3-.52S399.1,114.16,399.33,114.36Z" style="fill:#fff"></path><path d="M405.37,111.48c0,.31-.07.57-.18.57s-.22-.24-.25-.55.06-.56.19-.57S405.37,111.17,405.37,111.48Z" style="fill:#fff"></path><path d="M411.55,114.06c-.23.21-.48.32-.55.24s0-.32.24-.54.46-.34.55-.24S411.77,113.85,411.55,114.06Z" style="fill:#fff"></path><rect x="378.83" y="117.73" width="26.86" height="1" transform="translate(61.85 360.46) rotate(-53.02)" style="fill:#FF725E"></rect><path d="M412.11,90.23c-1.27,1.77-2.55,3.54-3.82,5.32q-3,4.2-6.07,8.42l-1.41,2a1.1,1.1,0,0,0,.11,1.52,1.08,1.08,0,0,0,1.52-.1l3.82-5.32,6.07-8.43,1.41-2a1.11,1.11,0,0,0-.11-1.52,1.09,1.09,0,0,0-1.52.11Z" style="fill:#e0e0e0"></path><path d="M384.55,106.2l14,1.89,2,.27a1.11,1.11,0,0,0,1.27-.85,1.09,1.09,0,0,0-.84-1.27l-14-1.88-2-.27a1.11,1.11,0,0,0-1.27.84,1.08,1.08,0,0,0,.84,1.27Z" style="fill:#e0e0e0"></path><path d="M403,106.71a2.2,2.2,0,1,1-2.89-1.16A2.19,2.19,0,0,1,403,106.71Z" style="fill:#e0e0e0"></path><rect x="356.03" y="30.82" width="36.93" height="34.93" transform="translate(11.38 151.83) rotate(-23.26)" style="fill:#263238"></rect><rect x="406.61" y="148.48" width="36.93" height="34.93" transform="translate(-30.98 181.38) rotate(-23.26)" style="fill:#263238"></rect><path d="M358,47.24a23.16,23.16,0,0,1-2.22-4.49,24.17,24.17,0,0,1-1.73-4.7,24.94,24.94,0,0,1,2.21,4.5A24.7,24.7,0,0,1,358,47.24Z" style="fill:#455a64"></path><path d="M366,65.43s0,0-.11.11l0,0,0-.06a37.75,37.75,0,0,1-2.11-4.38,23.4,23.4,0,0,1-1.73-4.7,24.21,24.21,0,0,1,2.21,4.49,36.2,36.2,0,0,1,1.73,4.54l-.07,0Q366,65.4,366,65.43Z" style="fill:#455a64"></path><path d="M384.36,57.53a24.21,24.21,0,0,1-4.49,2.21,23.89,23.89,0,0,1-4.69,1.74,24.21,24.21,0,0,1,4.49-2.21A24.7,24.7,0,0,1,384.36,57.53Z" style="fill:#455a64"></path><path d="M387.3,43.48A24.21,24.21,0,0,1,389.51,48a23.44,23.44,0,0,1,1.73,4.69A24.21,24.21,0,0,1,389,48.17,23.68,23.68,0,0,1,387.3,43.48Z" style="fill:#455a64"></path><path d="M380.15,26.84A16.49,16.49,0,0,1,382,30.46a16.06,16.06,0,0,1,1.37,3.83,15.78,15.78,0,0,1-1.84-3.62A15.26,15.26,0,0,1,380.15,26.84Z" style="fill:#455a64"></path><path d="M440.58,167.41a24.21,24.21,0,0,1,2.21,4.49,24.64,24.64,0,0,1,1.74,4.7,23.93,23.93,0,0,1-2.22-4.49A23.4,23.4,0,0,1,440.58,167.41Z" style="fill:#455a64"></path><path d="M432.68,149a24.21,24.21,0,0,1,2.21,4.49,24.7,24.7,0,0,1,1.74,4.69,23.16,23.16,0,0,1-2.22-4.49A23.44,23.44,0,0,1,432.68,149Z" style="fill:#455a64"></path><path d="M415.14,154.83a25,25,0,0,1,4.49-2.21,23.85,23.85,0,0,1,4.7-1.74,24.21,24.21,0,0,1-4.49,2.21A24.64,24.64,0,0,1,415.14,154.83Z" style="fill:#455a64"></path><path d="M409.92,168a24.21,24.21,0,0,1-2.21-4.49,23.85,23.85,0,0,1-1.74-4.7,24.94,24.94,0,0,1,2.21,4.5A24.7,24.7,0,0,1,409.92,168Z" style="fill:#455a64"></path><path d="M417.82,186.35a24.66,24.66,0,0,1-2.22-4.49,24.17,24.17,0,0,1-1.73-4.7,24.21,24.21,0,0,1,2.21,4.49A24.64,24.64,0,0,1,417.82,186.35Z" style="fill:#455a64"></path></g><g id="wristwatch-1"><rect x="109.13" y="322.31" width="3.95" height="17.37" rx="1.16" transform="translate(-32.73 12.86) rotate(-5.77)" style="fill:#263238"></rect><path d="M112.79,339.56s.14,0,.37-.16a1.13,1.13,0,0,0,.56-.9c-.09-1-.3-2.48-.49-4.3s-.45-4-.71-6.42c-.13-1.21-.26-2.48-.4-3.79a4.31,4.31,0,0,0-.13-.91.92.92,0,0,0-.58-.51.87.87,0,0,0-.4,0l-.52,0-1,.11a.93.93,0,0,0-.67.41,1.07,1.07,0,0,0-.11.83c.07.68.13,1.35.2,2,.13,1.32.25,2.59.37,3.8l.59,6.43c.08.9.15,1.73.21,2.47a1.06,1.06,0,0,0,1.15,1,9.21,9.21,0,0,1,1.6-.06,11.54,11.54,0,0,1-1.58.26,1.3,1.3,0,0,1-1.46-1.15c-.08-.74-.18-1.56-.29-2.46-.2-1.86-.44-4-.7-6.42-.13-1.21-.26-2.48-.4-3.79q-.1-1-.21-2a2.57,2.57,0,0,1,0-.57,1.45,1.45,0,0,1,1.27-1.24l1-.11L111,322a1.58,1.58,0,0,1,.61.05,1.44,1.44,0,0,1,.9.8,4.07,4.07,0,0,1,.17,1.06c.13,1.32.25,2.59.37,3.8l.59,6.43c.15,1.84.31,3.29.34,4.36a1.22,1.22,0,0,1-.73,1C112.94,339.6,112.78,339.57,112.79,339.56Z" style="fill:#455a64"></path><rect x="111.95" y="350.21" width="3.95" height="17.37" rx="1.89" transform="translate(-35.6 13.31) rotate(-5.79)" style="fill:#263238"></rect><path d="M114.88,367.53a2.3,2.3,0,0,0,1.23-.8,2,2,0,0,0,.28-1.65c-.09-.72-.18-1.52-.28-2.39-.2-1.8-.43-3.9-.69-6.22-.12-1.17-.25-2.4-.38-3.68,0-.31-.07-.65-.11-.94a1.56,1.56,0,0,0-.35-.76,1.68,1.68,0,0,0-1.58-.57,1.66,1.66,0,0,0-1.34,1,1.68,1.68,0,0,0-.12.83l.09,1c.13,1.27.25,2.5.36,3.68.21,2.32.41,4.43.58,6.23s0,3.35.9,3.89a2.41,2.41,0,0,0,1.41.43.91.91,0,0,1-.4.07,1.85,1.85,0,0,1-1.13-.33,2.11,2.11,0,0,1-.87-1.63c-.09-.72-.18-1.52-.28-2.39-.2-1.8-.43-3.91-.69-6.22-.12-1.18-.25-2.41-.38-3.68,0-.32-.07-.64-.1-1a2.21,2.21,0,0,1,.16-1.1A2.18,2.18,0,0,1,113,350a2.22,2.22,0,0,1,2,.75,2.32,2.32,0,0,1,.46,1c0,.36.07.66.1,1,.13,1.28.25,2.51.36,3.68.21,2.32.41,4.43.57,6.23q.12,1.32.21,2.4a2.9,2.9,0,0,1,0,1,1.91,1.91,0,0,1-.39.78,1.83,1.83,0,0,1-1,.64A.81.81,0,0,1,114.88,367.53Z" style="fill:#455a64"></path><path d="M42.51,309.27l.6-3.69a4,4,0,0,1,3.57-3.38l45.67-4.62a4,4,0,0,1,4,2.15l2,3.89Z" style="fill:#263238"></path><path d="M42.51,309.27l.3,0,.86-.11,3.24-.36,11.91-1.28,39.52-4.11-.21.37-1.84-3.53a4,4,0,0,0-2-2,3.72,3.72,0,0,0-1.39-.33,11.11,11.11,0,0,0-1.48.11l-5.94.59-11.23,1.12-19,1.87-7.31.7c-.53.06-1.07.09-1.55.16a4,4,0,0,0-1.3.49,3.91,3.91,0,0,0-1.61,1.81A8.76,8.76,0,0,0,43,306.6c-.11.56-.19,1-.27,1.44s-.13.68-.17.91a1.76,1.76,0,0,1-.07.32,1.1,1.1,0,0,1,0-.29l.12-.89c.05-.41.12-.9.2-1.48a9.51,9.51,0,0,1,.42-2,4.17,4.17,0,0,1,1.67-2,4,4,0,0,1,1.39-.53c.51-.09,1-.12,1.56-.19l7.3-.77,19-2L85.44,298l5.94-.61a12.87,12.87,0,0,1,1.56-.11,4.29,4.29,0,0,1,1.57.37A4.5,4.5,0,0,1,96.75,300l1.84,3.53.18.35-.38,0-39.76,3.9-11.85,1.13-3.19.28-.81.07Z" style="fill:#455a64"></path><path d="M88.25,304.65l-35.94,3.63L48.55,271a3.67,3.67,0,0,1,3.28-4l28.64-2.89a3.65,3.65,0,0,1,4,3.28Z" style="fill:#FF725E"></path><path d="M88.25,304.65s0-.15-.06-.41l-.13-1.15c-.12-1-.28-2.52-.49-4.41-.41-3.84-1-9.34-1.73-16.12-.35-3.4-.74-7.11-1.16-11.1-.1-1-.21-2-.31-3-.07-.51-.09-1.05-.2-1.52a3.54,3.54,0,0,0-.68-1.32,3.45,3.45,0,0,0-2.67-1.26c-1.06.08-2.2.22-3.32.33l-14.12,1.44-7.48.76-3.82.39a3.45,3.45,0,0,0-2.92,1.87,3.62,3.62,0,0,0-.36,1.2,6.45,6.45,0,0,0,.07,1.3l.27,2.68c.18,1.78.35,3.54.53,5.28q.53,5.22,1,10.19c.66,6.6,1.28,12.82,1.84,18.5l-.24-.2,26-2.52,7.32-.68,1.94-.17.68,0-.63.09-1.89.21-7.26.79L52.34,308.5l-.22,0,0-.23c-.58-5.67-1.22-11.89-1.9-18.49-.33-3.31-.68-6.71-1-10.19q-.27-2.61-.54-5.28l-.27-2.67a6.52,6.52,0,0,1-.06-1.41,3.65,3.65,0,0,1,.41-1.39A4,4,0,0,1,52,266.72l3.82-.38,7.47-.76,14.14-1.41c1.13-.1,2.21-.24,3.35-.32a3.92,3.92,0,0,1,3,1.44,3.79,3.79,0,0,1,.75,1.5,11.58,11.58,0,0,1,.21,1.59c.1,1,.2,2.07.3,3.07.39,4,.76,7.76,1.09,11.19.65,6.79,1.17,12.3,1.54,16.15.17,1.87.31,3.33.4,4.36,0,.47.07.85.09,1.13A2.07,2.07,0,0,1,88.25,304.65Z" style="fill:#263238"></path><path d="M106.94,386.9l-.59,3.7a4,4,0,0,1-3.58,3.37L57.1,398.59a4,4,0,0,1-4-2.15l-2-3.89Z" style="fill:#263238"></path><path d="M106.94,386.9a1.26,1.26,0,0,1-.3.05l-.85.1-3.25.36-11.91,1.28-39.52,4.12.21-.38c.58,1.13,1.21,2.33,1.84,3.54a4,4,0,0,0,2,2,3.93,3.93,0,0,0,1.39.33,13.08,13.08,0,0,0,1.48-.11l5.94-.6,11.23-1.12,19-1.87,7.31-.7c.53-.05,1.07-.08,1.55-.15a4,4,0,0,0,2.91-2.3,8.76,8.76,0,0,0,.45-1.92c.11-.56.2-1,.27-1.45s.13-.67.17-.9a2.5,2.5,0,0,1,.07-.33,1.06,1.06,0,0,1,0,.29l-.12.9c-.05.41-.12.9-.2,1.48a9,9,0,0,1-.42,2,4.19,4.19,0,0,1-3.06,2.48c-.51.09-1,.12-1.56.18l-7.3.78-19,2L64,398.15l-5.94.61a15.07,15.07,0,0,1-1.55.11,4.51,4.51,0,0,1-1.58-.37,4.58,4.58,0,0,1-2.24-2.29c-.63-1.21-1.26-2.41-1.84-3.54l-.18-.34.38,0,39.76-3.9,11.85-1.12,3.19-.29.81-.06Z" style="fill:#455a64"></path><path d="M62.49,391.29l35.94-3.63,3.83,37.86a3.68,3.68,0,0,1-3.28,4l-28.65,2.89a3.65,3.65,0,0,1-4-3.28Z" style="fill:#FF725E"></path><path d="M62.49,391.29s0,.15.06.41.08.68.13,1.17c.12,1,.28,2.53.5,4.44.41,3.87,1,9.41,1.73,16.25.36,3.42.75,7.17,1.18,11.19.1,1,.21,2,.31,3.06.06.51.1,1.06.18,1.56a3.33,3.33,0,0,0,.56,1.38,3.43,3.43,0,0,0,2.6,1.46,11.82,11.82,0,0,0,1.63-.12l1.69-.17,14.24-1.46,7.54-.76,3.85-.39a3.46,3.46,0,0,0,3-1.88,3.3,3.3,0,0,0,.36-1.22,6.65,6.65,0,0,0-.07-1.32c-.09-.92-.18-1.82-.28-2.73-.18-1.8-.36-3.59-.54-5.36-.35-3.53-.7-7-1-10.34-.67-6.71-1.3-13-1.87-18.78l.24.2-26,2.52-7.32.68-1.94.17c-.44,0-.68,0-.68,0l.63-.08L65,391l7.26-.79,26.13-2.76.22,0,0,.22c.59,5.75,1.24,12.06,1.92,18.77.35,3.35.7,6.81,1.06,10.34.18,1.77.36,3.56.54,5.36.09.9.18,1.81.28,2.72a8.26,8.26,0,0,1,.07,1.43,3.9,3.9,0,0,1-.42,1.41,4,4,0,0,1-3.36,2.15l-3.85.39-7.53.76L73.11,432.4l-1.69.16a11.87,11.87,0,0,1-1.71.12A3.92,3.92,0,0,1,66.77,431a3.79,3.79,0,0,1-.64-1.57c-.08-.56-.11-1.07-.17-1.59-.1-1.05-.21-2.08-.31-3.1-.39-4.05-.76-7.82-1.1-11.27-.65-6.85-1.18-12.41-1.55-16.28-.17-1.89-.3-3.36-.4-4.4,0-.47-.07-.85-.09-1.13A2.17,2.17,0,0,1,62.49,391.29Z" style="fill:#263238"></path><rect x="37.43" y="306.24" width="74.52" height="84.91" rx="10.03" transform="translate(-34.7 9.28) rotate(-5.77)" style="fill:#263238"></rect><path d="M106.05,388.19a13.29,13.29,0,0,0,2.94-.81,10.42,10.42,0,0,0,3-2.07,10.13,10.13,0,0,0,2.54-4.28,10,10,0,0,0,.39-2.95c0-1-.19-2.15-.3-3.3l-.78-7.52c-.56-5.39-1.19-11.53-1.89-18.32s-1.46-14.22-2.28-22.2q-.61-6-1.26-12.37a20.56,20.56,0,0,0-.45-3.16,9.68,9.68,0,0,0-1.29-2.9,9.89,9.89,0,0,0-5.08-3.9,10.3,10.3,0,0,0-3.27-.5c-1.1,0-2.27.21-3.41.31l-7,.71-14.38,1.46-30.23,3.06a9.81,9.81,0,0,0-6.52,3.45,9.7,9.7,0,0,0-2.24,6.93q.75,7.56,1.48,14.89c1,9.77,1.93,19.19,2.83,28.17q.68,6.74,1.32,13.12.32,3.19.63,6.28c.12,1,.17,2.08.34,3a9.46,9.46,0,0,0,.92,2.81,9.85,9.85,0,0,0,4,4.11,9.75,9.75,0,0,0,5.37,1.23c3.69-.32,7.26-.71,10.65-1l32.16-3.17,8.75-.83,2.28-.21.77-.05s-.26.05-.77.11l-2.27.25-8.74.94-32.15,3.33c-3.39.34-6.93.73-10.66,1.07a10.08,10.08,0,0,1-5.59-1.26,10.33,10.33,0,0,1-4.13-4.28,9.72,9.72,0,0,1-1-2.93c-.18-1-.23-2.05-.35-3.08-.21-2.06-.43-4.16-.65-6.28q-.65-6.39-1.33-13.12c-.92-9-1.87-18.4-2.87-28.17q-.74-7.33-1.49-14.91a10.27,10.27,0,0,1,9.22-10.93l30.24-3.05,14.38-1.45,7-.7c1.16-.1,2.27-.27,3.45-.3a10.2,10.2,0,0,1,8.75,4.62,10.16,10.16,0,0,1,1.35,3.05,20.27,20.27,0,0,1,.45,3.22q.64,6.39,1.24,12.38c.8,8,1.54,15.42,2.22,22.21s1.28,12.93,1.81,18.32q.39,4,.74,7.52c.1,1.16.26,2.25.28,3.33a10.73,10.73,0,0,1-.42,3,9.88,9.88,0,0,1-7.93,7C106.32,388.17,106.05,388.19,106.05,388.19Z" style="fill:#455a64"></path><path d="M48,308.5h53.3a7.51,7.51,0,0,1,7.51,7.51v63.79a7.52,7.52,0,0,1-7.52,7.52H48a7.52,7.52,0,0,1-7.52-7.52V316A7.51,7.51,0,0,1,48,308.5Z" transform="translate(-34.63 9.27) rotate(-5.77)" style="fill:#263238"></path><path d="M105.09,384.44a8.23,8.23,0,0,0,2.7-.86,7.44,7.44,0,0,0,2.56-2.25,7.52,7.52,0,0,0,1.4-4.38c-.67-7.06-1.79-17.32-3.08-30-.65-6.34-1.36-13.27-2.13-20.72q-.57-5.58-1.18-11.54a25.84,25.84,0,0,0-.38-2.95,7.2,7.2,0,0,0-1.26-2.65,7.31,7.31,0,0,0-5.12-2.86,17.51,17.51,0,0,0-3.12.18l-3.19.33-6.51.66-13.41,1.36-28.21,2.86a7.32,7.32,0,0,0-5.62,3.7,7.22,7.22,0,0,0-.9,3.3c0,1.13.19,2.35.28,3.51q.72,7.07,1.41,13.91c.91,9.11,1.8,17.9,2.64,26.28.42,4.18.83,8.27,1.22,12.24q.3,3,.59,5.86c.1,1,.18,1.92.3,2.85A7.23,7.23,0,0,0,49,389.24a7.48,7.48,0,0,0,2.56.39c.86,0,1.75-.16,2.61-.24l9.94-1,30-2.95,8.16-.77,2.13-.19.72-.05-.72.1-2.12.24-8.15.88-30,3.11-9.94,1c-.87.08-1.72.21-2.63.25a8.06,8.06,0,0,1-2.71-.4,7.71,7.71,0,0,1-4.27-3.54,7.58,7.58,0,0,1-.92-2.75c-.12-1-.2-1.9-.3-2.87q-.3-2.88-.6-5.86c-.41-4-.82-8.05-1.25-12.23-.85-8.38-1.74-17.17-2.67-26.28q-.69-6.84-1.41-13.9c-.1-1.19-.3-2.33-.29-3.58a7.8,7.8,0,0,1,1-3.55,7.78,7.78,0,0,1,6-4l28.21-2.85,13.41-1.35,6.51-.65,3.19-.32a17.16,17.16,0,0,1,3.22-.17,7.72,7.72,0,0,1,5.44,3.05,7.56,7.56,0,0,1,1.34,2.82,27.16,27.16,0,0,1,.39,3c.4,4,.78,7.82,1.15,11.54.74,7.45,1.43,14.38,2.07,20.72,1.24,12.67,2.3,22.91,2.91,30a7.62,7.62,0,0,1-4.11,6.72,7.76,7.76,0,0,1-2,.69Z" style="fill:#455a64"></path><rect x="63.14" y="321.66" width="2.39" height="9.65" rx="1.14" transform="translate(-32.59 8.15) rotate(-5.79)" style="fill:#fff"></rect><rect x="64.23" y="332.51" width="2.39" height="9.65" rx="1.14" transform="translate(-33.68 8.32) rotate(-5.79)" style="fill:#fff"></rect><path d="M66.76,346.14h.1A1.15,1.15,0,0,1,68,347.29v7.36a1.14,1.14,0,0,1-1.14,1.14h-.1a1.14,1.14,0,0,1-1.14-1.14v-7.36A1.14,1.14,0,0,1,66.76,346.14Z" transform="translate(-34.66 8.41) rotate(-5.72)" style="fill:#fff"></path><rect x="66.71" y="356.98" width="2.39" height="9.65" rx="1.14" transform="translate(-36.1 8.68) rotate(-5.78)" style="fill:#fff"></rect><path d="M69.78,321.11h.1A1.14,1.14,0,0,1,71,322.25v7.36a1.14,1.14,0,0,1-1.14,1.14h-.1a1.15,1.15,0,0,1-1.15-1.15v-7.36a1.14,1.14,0,0,1,1.14-1.14Z" transform="translate(-32.51 8.7) rotate(-5.79)" style="fill:#fff"></path><rect x="69.74" y="331.95" width="2.39" height="9.65" rx="1.14" transform="translate(-33.59 8.87) rotate(-5.79)" style="fill:#fff"></rect><path d="M79.8,320.09h.1A1.15,1.15,0,0,1,81,321.24v7.36a1.14,1.14,0,0,1-1.14,1.14h-.1a1.14,1.14,0,0,1-1.14-1.14v-7.36a1.14,1.14,0,0,1,1.14-1.14Z" transform="translate(-32.03 9.59) rotate(-5.73)" style="fill:#fff"></path><rect x="79.75" y="330.94" width="2.39" height="9.65" rx="1.14" transform="translate(-33.44 9.87) rotate(-5.79)" style="fill:#fff"></rect><path d="M81.66,347.76h.1a1.14,1.14,0,0,1,1.14,1.14v3.3a1.14,1.14,0,0,1-1.14,1.14h-.1a1.15,1.15,0,0,1-1.15-1.15v-3.29a1.14,1.14,0,0,1,1.14-1.14Z" transform="translate(-34.93 10.03) rotate(-5.79)" style="fill:#fff"></path><rect x="72.62" y="358.01" width="2.39" height="5.01" rx="1.14" transform="translate(-35.98 9.28) rotate(-5.79)" style="fill:#fff"></rect><path d="M74.39,318.1h.1a1.15,1.15,0,0,1,1.15,1.15v4.42a1.14,1.14,0,0,1-1.14,1.14h-.1a1.14,1.14,0,0,1-1.14-1.14v-4.42A1.14,1.14,0,0,1,74.39,318.1Z" transform="translate(-237.99 427.57) rotate(-95.72)" style="fill:#fff"></path><rect x="75.76" y="340.71" width="2.39" height="11.16" rx="1.14" transform="translate(-259.83 457.73) rotate(-95.78)" style="fill:#fff"></rect><rect x="76.63" y="350.03" width="2.39" height="11.33" rx="1.14" transform="translate(-268.22 468.97) rotate(-95.78)" style="fill:#fff"></rect><rect x="77.31" y="358.92" width="2.39" height="10.94" rx="1.14" transform="translate(-276.13 479.19) rotate(-95.78)" style="fill:#fff"></rect><path d="M76.28,336.76h.1a1.14,1.14,0,0,1,1.14,1.14v4.42a1.14,1.14,0,0,1-1.14,1.14h-.1a1.15,1.15,0,0,1-1.15-1.15v-4.42a1.14,1.14,0,0,1,1.14-1.14Z" transform="translate(-254.37 450.31) rotate(-95.78)" style="fill:#fff"></path><path d="M82.27,371.91a3.59,3.59,0,0,0-3.1-1.9c-1.27,0-3.42,1.19-3.37,3.06-.33-1.85-2.67-2.56-3.92-2.33a3.61,3.61,0,0,0-2.65,2.49,5.17,5.17,0,0,0,.35,3.72,9.55,9.55,0,0,0,2.35,3,18.11,18.11,0,0,0,4.85,2.87A18,18,0,0,0,81,379a9.69,9.69,0,0,0,1.71-3.39A5.2,5.2,0,0,0,82.27,371.91Z" style="fill:#FF725E"></path><g style="opacity:0.30000000000000004"><path d="M44,384.56l54.58-78.43-55.86,5.58c-2.64.27-5,3.37-5.3,7.74Z" style="fill:#fff"></path></g></g><g id="Character"><path d="M192.75,245.72c3.16-5.16,7.41-9.71,9.64-15.33a47.86,47.86,0,0,0,2.49-11.57c4-30.82-29-13.33,4.83-107.74h98.34a171.26,171.26,0,0,1,26.17,79.61c1,14.58.9,31.1,11.56,41.09,4.5,4.22,10.82,7.15,12.8,13,1.69,5-.43,10.52.52,15.7,1.12,6.07,6.13,10.52,9.83,15.47a40.44,40.44,0,0,1,7.95,24.85c-.1,4.26-1.18,9-4.74,11.31-2.21,1.44-4.95,1.69-7.58,1.89-57.45,4.44-115.53,8.86-172.45-.13-3-11.3-6-22.7-6.63-34.38S186.66,255.7,192.75,245.72Z" style="fill:#263238"></path><path d="M336,320.39s.09-.13.24-.39l.64-1.17A35.78,35.78,0,0,0,339,314.1a39.34,39.34,0,0,0,1.84-7.93,40.69,40.69,0,0,0-.09-10.78,38.77,38.77,0,0,0-4.08-12.4c-2.2-4.17-5.26-8.21-7.34-13A25.46,25.46,0,0,1,328,266.2a21.37,21.37,0,0,1-.52-4,34.48,34.48,0,0,1,1-8.31c.6-2.8,1.39-5.62,2-8.52a39,39,0,0,0,1-9c-.11-6.16-1.66-12-3.36-17.48s-3.62-10.69-5-15.78A158.43,158.43,0,0,1,318,175.6a164.39,164.39,0,0,1-.65-18.87c.07-2.23.13-4,.21-5.13,0-.57,0-1,.06-1.34s0-.46,0-.46a4.35,4.35,0,0,0-.05.46c0,.32-.07.76-.11,1.33-.11,1.17-.21,2.9-.3,5.13a152.26,152.26,0,0,0,.49,18.91,156,156,0,0,0,5,27.59c1.38,5.1,3.25,10.33,5,15.8s3.22,11.26,3.32,17.33-1.78,11.8-3,17.41a34.81,34.81,0,0,0-.95,8.44,21.51,21.51,0,0,0,.54,4.1,25.82,25.82,0,0,0,1.28,3.84c2.12,4.89,5.2,8.92,7.39,13a38.52,38.52,0,0,1,4.1,12.26,40.64,40.64,0,0,1-1.58,18.6,41.37,41.37,0,0,1-2,4.74c-.25.51-.45.91-.6,1.19Z" style="fill:#455a64"></path><path d="M205.45,134.72c1.12-17.27,12.61-38.43,29.81-36.57l39.8,10.15c12.77,3.26,21.28,14,22.21,27.19.05.65.12-.15.11.35l-6.69,101.43L258.61,298.2h0L232.25,242c0-8.4,0-21.12,0-21.08s-22.06-3.71-26.56-32.5C203.43,174.14,204.2,153.9,205.45,134.72Z" style="fill:#ffbf9d"></path><path d="M217,159.33a3.69,3.69,0,0,0,3.55,3.74,3.53,3.53,0,0,0,3.81-3.32,3.7,3.7,0,0,0-3.55-3.74A3.53,3.53,0,0,0,217,159.33Z" style="fill:#263238"></path><path d="M209.77,146c.46.49,3.26-1.58,7.23-1.56s6.88,2,7.31,1.53c.21-.22-.25-1.09-1.52-2a10.05,10.05,0,0,0-5.85-1.82,9.74,9.74,0,0,0-5.76,1.84C210,144.91,209.54,145.78,209.77,146Z" style="fill:#263238"></path><path d="M253.21,160.2a3.68,3.68,0,0,0,3.55,3.73,3.53,3.53,0,0,0,3.81-3.32,3.69,3.69,0,0,0-3.55-3.73A3.52,3.52,0,0,0,253.21,160.2Z" style="fill:#263238"></path><path d="M247.49,146c.46.49,3.26-1.58,7.23-1.56s6.88,2,7.31,1.53c.21-.22-.24-1.09-1.52-2a10,10,0,0,0-5.85-1.82,9.73,9.73,0,0,0-5.75,1.84C247.69,144.91,247.27,145.78,247.49,146Z" style="fill:#263238"></path><path d="M235.07,177.19c0-.23-2.45-.66-6.45-1.18-1-.11-2-.31-2.14-1s.19-1.83.69-3c1-2.45,2-5,3-7.71,4.19-11,7.23-20,6.78-20.19s-4.2,8.61-8.39,19.59l-2.89,7.77c-.38,1.15-1.05,2.45-.53,4a2.51,2.51,0,0,0,1.66,1.48,6.86,6.86,0,0,0,1.72.25C232.56,177.39,235.06,177.42,235.07,177.19Z" style="fill:#263238"></path><path d="M270.4,210.72s-9.37,19.77-38.17,17V221A72.46,72.46,0,0,0,270.4,210.72Z" style="fill:#ff9a6c"></path><path d="M248.74,131.64c.39,1.08,4.35.58,9,1.15s8.43,1.85,9.05.88c.28-.46-.38-1.48-1.89-2.53a15.83,15.83,0,0,0-13.76-1.55C249.43,130.28,248.57,131.13,248.74,131.64Z" style="fill:#263238"></path><path d="M211.06,133.84c.7.91,3.44,0,6.73-.06s6.08.62,6.72-.32c.28-.46-.16-1.37-1.37-2.22a9.74,9.74,0,0,0-10.83.31C211.14,132.47,210.76,133.4,211.06,133.84Z" style="fill:#263238"></path><path d="M244.84,184.73a7.68,7.68,0,0,1-3.84,12,4.47,4.47,0,0,1-2.89,0c-1.62-.61-2.43-2.39-3.07-4-.54-1.33-1.07-2.67-1.61-4a1.78,1.78,0,0,1-.15-1.4,1.85,1.85,0,0,1,1.3-.77l10-2.39" style="fill:#ff9a6c"></path><path d="M238.33,196.29c0,.1,1.76.3,4.52-.57a7.09,7.09,0,0,0,4-3.22,5.32,5.32,0,0,0,.61-3.08,9,9,0,0,0-.79-3.18,8.31,8.31,0,0,0-1.87-2.59l-.26-.24-.33.12c-6.59,2.32-11.75,3.5-11.69,3.78s5.35-.42,12.07-2.68l-.59-.12a7.21,7.21,0,0,1,1.58,2.23c.76,1.78,1.06,3.84.3,5.25a6.6,6.6,0,0,1-3.3,2.95C240.07,195.94,238.28,196.07,238.33,196.29Z" style="fill:#263238"></path><path d="M248.68,82.29c17.45-1.58,34.63,1.39,47.81,12.93,12.1,10.59,17.79,20.74,19.69,37.19.65,5.64-1.05,18.25-3,23.56s-7.57,18.81-12.78,21.05-8.32-6.67-12.26-10.75c-2.42-2.49-3.63-5.87-4.83-9.13-5-13.76-11-27.48-20.4-38.7S240,98.64,225.36,98l-9.32.33C227.24,86.08,237.18,83.34,248.68,82.29Z" style="fill:#455a64"></path><path d="M216,97.64c5.88-6,13.79-9.6,21.92-11.6a55,55,0,0,1,21.52-1.12h0c16,0,36.53,22.6,40.29,38.14,1.79,7.42,1.19,15.19.25,22.76-.47,3.85-1.05,7.76-2.72,11.25s-4.63,6.58-8.41,7.49-8.27-.91-9.62-4.54c-1-2.73-.18-5.87-1.14-8.62-2.21-6.28-11.85-6.7-15-12.59-2.24-4.25-.24-9.88-2.69-14s-7.78-4.81-12.17-6.5a24.64,24.64,0,0,1-14.77-16.92h-.36c-17.44.47-25.68,28.16-27.85,35.8C203.16,126.28,208.21,105.55,216,97.64Z" style="fill:#263238"></path><path d="M288.71,103.93a3.23,3.23,0,0,0-.55.07l-1.58.28c-.69.14-1.53.29-2.51.43s-2.08.35-3.32.49c-2.46.34-5.42.6-8.7.79s-6.91.18-10.7,0-7.4-.55-10.65-1-6.18-1-8.6-1.58c-1.22-.26-2.31-.55-3.26-.79s-1.79-.46-2.46-.66l-1.54-.43a3.8,3.8,0,0,0-.55-.12,2.06,2.06,0,0,0,.52.22l1.52.52c.66.22,1.47.48,2.43.74s2,.59,3.26.86c2.42.62,5.34,1.18,8.61,1.7s6.88.86,10.7,1.05,7.44.11,10.74-.06,6.26-.51,8.73-.9c1.24-.16,2.35-.38,3.32-.56s1.82-.35,2.49-.52l1.57-.37A1.82,1.82,0,0,0,288.71,103.93Z" style="fill:#455a64"></path><path d="M296.24,114a3.17,3.17,0,0,0-.66.16l-1.87.55-1.34.41c-.49.14-1,.25-1.62.39-1.17.26-2.48.64-4,.84l-2.33.39c-.81.14-1.67.18-2.55.28-1.76.22-3.65.24-5.64.3a68.37,68.37,0,0,1-12.85-1.27,69.86,69.86,0,0,1-12.34-3.86L248.42,111c-.87-.37-1.65-.85-2.44-1.25s-1.55-.78-2.25-1.22l-2-1.23c-1.3-.75-2.38-1.6-3.37-2.27-.49-.34-1-.65-1.36-1l-1.1-.87-1.54-1.19a4.46,4.46,0,0,0-.55-.4s.15.18.49.47.86.75,1.47,1.27l1.08.91c.4.33.86.64,1.34,1,1,.69,2.05,1.56,3.35,2.34l2,1.26c.7.45,1.48.82,2.25,1.26s1.58.9,2.45,1.28l2.66,1.22a68.35,68.35,0,0,0,12.42,3.92,66.13,66.13,0,0,0,13,1.24c2-.07,3.9-.11,5.67-.35.89-.11,1.75-.15,2.56-.31l2.34-.42a38.93,38.93,0,0,0,4-.92c.58-.15,1.13-.27,1.62-.43l1.33-.45,1.84-.65A4,4,0,0,0,296.24,114Z" style="fill:#455a64"></path><path d="M288.24,162.39c.1-2,2.61-6.47,4.57-6.67,5.21-.54,14.52.36,13.92,13.51-.81,18-18.69,13.45-18.7,12.93S287.87,169.16,288.24,162.39Z" style="fill:#ffbf9d"></path><path d="M293.83,175.6c.08,0,.3.23.82.5a3.13,3.13,0,0,0,2.34.15c1.93-.61,3.67-3.55,3.9-6.78a10.39,10.39,0,0,0-.67-4.53,3.62,3.62,0,0,0-2.25-2.51,1.59,1.59,0,0,0-1.88.77c-.27.5-.17.86-.27.89s-.37-.32-.19-1.06a2,2,0,0,1,.76-1.09,2.38,2.38,0,0,1,1.75-.38,4.43,4.43,0,0,1,3.15,2.94,10.67,10.67,0,0,1,.85,5.06c-.28,3.61-2.28,6.92-4.92,7.55a3.35,3.35,0,0,1-2.84-.61C293.84,176,293.77,175.63,293.83,175.6Z" style="fill:#ff9a6c"></path><path d="M297.35,180.21a4.54,4.54,0,1,1-.66-.19" style="fill:#e0e0e0"></path><path d="M212.6,238l24.55-5.31,53.55-1.14,21.07,7.07s-18.42,19.69-34,21.7c-15.19,2-39.38,2.71-49-3.27S212.6,238,212.6,238Z" style="fill:#ffbf9d"></path><path d="M341.11,377l-7.88-55.66L383,327.82l-14-43.05c-3.54-11.46-10.43-27.39-17.31-32.83-9.12-7.22-26-14.69-46.71-16.9,0,0-14.27,20.18-48.61,18.68S215,236.18,215,236.18c-1.18.74-34.07,9-44.65,17.92s-19.58,40.32-19.58,40.32l39.8,74.81s-23,48-23.44,97.66H362.37s-10.58-32.57-15.9-60.54C344.35,395.23,341.11,377,341.11,377Z" style="fill:#455a64"></path><path d="M314,237.93a1.76,1.76,0,0,1-.08.33c-.07.24-.17.55-.28.94a29.08,29.08,0,0,1-1.36,3.54,32.1,32.1,0,0,1-3.06,5.17,34.94,34.94,0,0,1-5.34,5.9,46.21,46.21,0,0,1-18.1,9.77,64.87,64.87,0,0,1-12.05,2.07,92.64,92.64,0,0,1-13.12,0c-4.48-.31-8.84-.84-13-1.46s-8.22-1.29-12-2.14a63.44,63.44,0,0,1-19.32-7.25,39,39,0,0,1-10.51-9.09,24.08,24.08,0,0,1-2.8-4.28s.08.09.2.27l.53.83a34.3,34.3,0,0,0,2.23,3.05,39.38,39.38,0,0,0,10.54,8.9,64,64,0,0,0,19.23,7.11c3.79.83,7.81,1.49,12,2.1s8.53,1.13,13,1.44a93,93,0,0,0,13,0,64.61,64.61,0,0,0,12-2,46.29,46.29,0,0,0,18-9.59,35.43,35.43,0,0,0,5.34-5.79,33.37,33.37,0,0,0,3.12-5.08,34,34,0,0,0,1.44-3.49c.13-.39.24-.69.33-.93A1.72,1.72,0,0,1,314,237.93Z" style="fill:#263238"></path><path d="M300.07,381l-.2.13-.6.32-2.34,1.18c-2,1-5,2.45-8.72,4.15-7.41,3.38-17.81,7.73-29.56,11.79s-22.63,7.05-30.56,8.95c-4,1-7.17,1.67-9.41,2.11l-2.57.51-.67.12a.87.87,0,0,1-.24,0l.22-.07.67-.17,2.55-.61c2.22-.5,5.42-1.27,9.37-2.27,7.89-2,18.72-5,30.47-9.08s22.14-8.34,29.58-11.64c3.72-1.65,6.72-3,8.78-4l2.38-1.1.63-.27C300,381,300.06,381,300.07,381Z" style="fill:#263238"></path><path d="M303.28,363.53a5.18,5.18,0,0,1-.71.45l-2.09,1.22c-1.82,1.05-4.48,2.51-7.81,4.27-6.64,3.51-16,8.08-26.55,12.5s-20.41,7.84-27.58,10.09c-3.58,1.13-6.5,2-8.52,2.55l-2.34.63a6.78,6.78,0,0,1-.82.19,4.3,4.3,0,0,1,.79-.29l2.31-.73c2-.61,4.9-1.53,8.47-2.7,7.13-2.33,16.91-5.81,27.48-10.22s19.92-8.92,26.6-12.35c3.34-1.71,6-3.12,7.87-4.12l2.14-1.13A5.19,5.19,0,0,1,303.28,363.53Z" style="fill:#263238"></path><path d="M220.07,243a42.28,42.28,0,0,1-5.78,3,40.15,40.15,0,0,1-6,2.53,41.76,41.76,0,0,1,5.77-3A40,40,0,0,1,220.07,243Z" style="fill:#263238"></path><path d="M220,256.38a33.33,33.33,0,0,1,9.2-8c.08.12-2.09,1.75-4.63,4S220.09,256.48,220,256.38Z" style="fill:#263238"></path><path d="M232.66,261.76a64.74,64.74,0,0,1,5.16-10.31,31.56,31.56,0,0,1-2.34,5.27A32.3,32.3,0,0,1,232.66,261.76Z" style="fill:#263238"></path><path d="M248,263.87a32.3,32.3,0,0,1,2-10.4,40.43,40.43,0,0,1-.93,5.22A40.51,40.51,0,0,1,248,263.87Z" style="fill:#263238"></path><path d="M260.59,265a29.23,29.23,0,0,1-.13-5.45,29.45,29.45,0,0,1,.38-5.45,27.8,27.8,0,0,1,.14,5.46A27.87,27.87,0,0,1,260.59,265Z" style="fill:#263238"></path><path d="M274.51,263.72a27,27,0,0,1-1.39-5.07,26.4,26.4,0,0,1-.88-5.18,27,27,0,0,1,1.39,5.07A27.33,27.33,0,0,1,274.51,263.72Z" style="fill:#263238"></path><path d="M286.63,263.38a7.13,7.13,0,0,1-1-1.8,39.25,39.25,0,0,1-1.72-4.61,40.17,40.17,0,0,1-1.14-4.79,7.21,7.21,0,0,1-.19-2c.15,0,.71,3,1.83,6.68S286.77,263.31,286.63,263.38Z" style="fill:#263238"></path><path d="M298.07,257.58c-.14.06-1.58-2.53-3.56-5.62s-3.73-5.49-3.61-5.58a27.47,27.47,0,0,1,4.05,5.3A28.12,28.12,0,0,1,298.07,257.58Z" style="fill:#263238"></path><path d="M309,250.12a41,41,0,0,1-4.31-4.82,40,40,0,0,1-3.91-5.16,81.72,81.72,0,0,1,8.22,10Z" style="fill:#263238"></path><path d="M206.33,314.18a43.51,43.51,0,0,1,13.34-20.54c5.7-4.9,12.1-10.27,13.76-11.16a24.9,24.9,0,0,1,7.74-2.17s38.94-6.29,46.93-5.81,6.29,8.23-1.21,8.47-23.95,5.31-23.95,5.31a5.17,5.17,0,0,1,2.9,5.33c-.24,4.11-2.66,4.6-2.66,4.6s1.69,3.63,1.45,5.8-2.42,5.06-2.42,5.06,2.42,3.17,1.21,6.07-5.56,6.53-5.56,6.53-17.45,9.68-20.94,9.44a71,71,0,0,0-7.61,0l-3.38,3.39-19.6-20.32Z" style="fill:#ffbf9d"></path><path d="M263,288.1a11.62,11.62,0,0,1-3.36.52,11.46,11.46,0,0,1-3.39,0,10.83,10.83,0,0,1,3.35-.52A11.52,11.52,0,0,1,263,288.1Z" style="fill:#ff9a6c"></path><path d="M263.43,298.18a15.18,15.18,0,0,1-3.29.74,15,15,0,0,1-3.33.5,9,9,0,0,1,3.24-1A8.92,8.92,0,0,1,263.43,298.18Z" style="fill:#ff9a6c"></path><path d="M263.29,307.64a21.91,21.91,0,0,1-3.59,1.22,22.29,22.29,0,0,1-3.65,1.08,10.56,10.56,0,0,1,3.49-1.58A10.39,10.39,0,0,1,263.29,307.64Z" style="fill:#ff9a6c"></path><g style="opacity:0.30000000000000004"><path d="M174.9,426.24a64,64,0,0,0,20-7.66c11.19-6.62,20.13-16.57,27.22-27.47s12.46-22.83,17.8-34.69l-6.37-3.7L180,395.64l-5.07,19.24Z" style="fill:#263238"></path></g><path d="M150.73,294.94s-16.39,53.18-18.26,60.67-4.87,28.45-1.87,39.31,14.34,30.34,30,28.83,24.91-9.34,37.1-19.2c16.39-13.27,40.6-56.44,39.27-56.8L207,305.07l-29.19,34.12Z" style="fill:#455a64"></path><path d="M160.48,358.32s.06-.09.2-.26l.64-.76,2.5-2.92,9.5-11,33.47-38.49.2-.23.17.25c8.69,12.36,18.43,26.23,28.69,40.84l1.28,1.83.09.13-.07.13c-7.34,14.67-15.21,28.24-23.82,39.54A140.47,140.47,0,0,1,200,402.51,115.09,115.09,0,0,1,186.81,414c-8.68,6.34-17.17,9.21-23.12,9.77l-2.11.23-1.86.05-1.59,0-1.31-.08-1.79-.12c-.4,0-.6-.06-.6-.06s.2,0,.61,0l1.78.07,1.31,0,1.59-.06,1.85-.08,2.09-.25c5.91-.62,14.33-3.52,22.94-9.86a114.84,114.84,0,0,0,13.12-11.51A140.68,140.68,0,0,0,213,387.11c8.56-11.28,16.4-24.83,23.74-39.48l0,.27-1.29-1.83L206.78,305.2l.37,0-33.62,38.37-9.59,10.89-2.56,2.87-.67.73A2.92,2.92,0,0,1,160.48,358.32Z" style="fill:#263238"></path><path d="M148.05,356.82a5.33,5.33,0,0,1,.68-1c.23-.32.55-.68.92-1.1s.81-.89,1.32-1.38a41.89,41.89,0,0,1,8.91-6.46,43.42,43.42,0,0,1,10.22-4.08c.69-.17,1.31-.31,1.87-.39a12,12,0,0,1,1.42-.2,5.45,5.45,0,0,1,1.23-.06c0,.1-1.73.25-4.42,1a48.73,48.73,0,0,0-10.07,4.18,46.56,46.56,0,0,0-8.91,6.27C149.16,355.47,148.13,356.88,148.05,356.82Z" style="fill:#263238"></path><path d="M180.36,335.55a9.93,9.93,0,0,1-1-1.33c-.59-.87-1.43-2.15-2.42-3.75-2-3.21-4.61-7.73-7.25-12.85s-4.84-9.85-6.38-13.29c-.78-1.73-1.39-3.12-1.79-4.1a10.58,10.58,0,0,1-.59-1.53,9.18,9.18,0,0,1,.77,1.45l1.94,4c1.63,3.4,3.88,8.1,6.51,13.21s5.19,9.65,7.1,12.9l2.28,3.83A9.3,9.3,0,0,1,180.36,335.55Z" style="fill:#263238"></path><path d="M337.29,201.05l11.15,13.61a8.82,8.82,0,0,1,2.27,5.35c.31,5,.83,14.59.25,16.07-.79,2-10,24.84-9.8,28s1.27,9.22,1.27,9.22l-28.2,7.93s-2.12-11.23-3.14-17.07-.13-21.1-.13-21.1-.57-4.19-.95-5.41-2.55-4.56-2.12-7.61a5.23,5.23,0,0,1,3.07-4l2.07-.5a4.16,4.16,0,0,1,2-2.83c1.77-1.1,5.86-.81,5.86-.81s.35-3.67,3.4-4.73a5.58,5.58,0,0,1,5.23.77s-.1-3.82,2.35-4.59a6.51,6.51,0,0,1,4.78.63s-2.72-5-2-9.06C335.39,201.05,337.29,201.05,337.29,201.05Z" style="fill:#ffbf9d"></path><path d="M319.36,233.38c-.08,0-.12-.6-.43-1.48a8.8,8.8,0,0,0-2-3.06,21.21,21.21,0,0,0-2.85-2.37c-.78-.57-1.25-.93-1.21-1a4.78,4.78,0,0,1,1.41.69,14.41,14.41,0,0,1,3,2.32,7.65,7.65,0,0,1,1.93,3.31A2.72,2.72,0,0,1,319.36,233.38Z" style="fill:#ff9a6c"></path><path d="M326.29,227.52c-.13.08-1.09-1.25-2.52-2.66s-2.76-2.37-2.68-2.5a8,8,0,0,1,3.05,2.13A7.87,7.87,0,0,1,326.29,227.52Z" style="fill:#ff9a6c"></path><path d="M333.65,223.72a21.27,21.27,0,0,1-2.23-3,21,21,0,0,1-2.11-3.13,16.34,16.34,0,0,1,4.34,6.17Z" style="fill:#ff9a6c"></path><path d="M345.9,224.94a23.4,23.4,0,0,0-3.64-6.33,27.7,27.7,0,0,0-5.65-4.66,6.09,6.09,0,0,1,2,.91,16.26,16.26,0,0,1,4,3.41,15.47,15.47,0,0,1,2.73,4.54A5.94,5.94,0,0,1,345.9,224.94Z" style="fill:#ff9a6c"></path><path d="M329.13,230.83a6.35,6.35,0,0,0-5.55,3.74c-.06,0-.05-.44.22-1.08a5,5,0,0,1,1.72-2,4.87,4.87,0,0,1,2.53-.84C328.73,230.62,329.14,230.77,329.13,230.83Z" style="fill:#ff9a6c"></path><path d="M338.44,226.06c0,.08-.43-.06-1.07-.13a4.76,4.76,0,0,0-4.4,1.89c-.39.52-.56.9-.64.87s0-.46.34-1.07a4.41,4.41,0,0,1,2-1.82,4.35,4.35,0,0,1,2.72-.23C338.12,225.74,338.47,226,338.44,226.06Z" style="fill:#ff9a6c"></path><path d="M320.19,235.09a6.72,6.72,0,0,0-2.66.9,6.86,6.86,0,0,0-1.76,2.19c-.07,0-.09-.37.1-.9a3.71,3.71,0,0,1,1.37-1.72,3.66,3.66,0,0,1,2.07-.68C319.88,234.88,320.21,235,320.19,235.09Z" style="fill:#ff9a6c"></path><path d="M312.62,272.63s4.9,23,5.86,27.38,9.92,53.51,9.92,53.51l.39,2.87,22,13.66c.55.11,7.4-18.36,7.4-18.36l6.76-21.35s-6.23-13.7-8.71-20-16-48.18-16-48.18l-14.2,10.47Z" style="fill:#ffbf9d"></path><rect x="341.64" y="273.79" width="6.38" height="8.24" transform="translate(-57.57 92.93) rotate(-14.18)" style="fill:#FF725E"></rect><path d="M348.93,281.13a23.65,23.65,0,0,1-.69-2.27c-.4-1.4-.95-3.35-1.56-5.66l.29.17L340.79,275l.19-.31h0v.13l0,.13.07.28.14.55.27,1.08q.25,1.06.51,2.07c.33,1.34.63,2.59.91,3.74l-.26-.15c1.83-.44,3.36-.78,4.46-1a12.85,12.85,0,0,1,1.78-.34,12.1,12.1,0,0,1-1.6.51c-1.06.31-2.62.75-4.53,1.26l-.21.05,0-.21c-.31-1.15-.63-2.4-1-3.72-.17-.68-.35-1.37-.53-2.08-.09-.35-.18-.71-.28-1.07l-.14-.55-.07-.28,0-.14,0-.07v-.05h0c-.16.28.23-.39.19-.32l6.19-1.54.23-.05.06.22c.59,2.43,1.05,4.47,1.36,5.87A18.63,18.63,0,0,1,348.93,281.13Z" style="fill:#263238"></path><path d="M344.62,282.18a8.94,8.94,0,0,1-.81-2.29l0-.12.09-.1.77-.83-.06.23-.26-1c-.1-.4-.19-.78-.28-1.16l.14.17-1.12-.54-.1-.05,0-.1a7.06,7.06,0,0,1-.31-2.14,7.08,7.08,0,0,1,.74,2l-.13-.14,1.15.48.1.05,0,.12c.09.38.19.76.3,1.15l.24,1,0,.14-.09.1-.81.8.05-.21A8.18,8.18,0,0,1,344.62,282.18Z" style="fill:#263238"></path><path d="M346.8,281.63a8.29,8.29,0,0,1-.82-2.29l0-.12.09-.09.77-.84-.06.23c-.08-.32-.17-.64-.25-1s-.19-.78-.29-1.16l.14.17-1.11-.54-.11-.05,0-.1a7,7,0,0,1-.31-2.14,7.08,7.08,0,0,1,.74,2l-.12-.14,1.14.48.11.05,0,.12.3,1.15q.12.51.24,1l0,.14-.1.1-.81.8.06-.21A8.62,8.62,0,0,1,346.8,281.63Z" style="fill:#263238"></path><path d="M335.94,272.17l4.45.68a2.93,2.93,0,0,1,1.94,1.4l0,0-3.25.82-3.59-2.3Z" style="fill:#FF725E"></path><path d="M335.94,272.17a2.87,2.87,0,0,1-.34.7l0-.16c.75.41,2.07,1.2,3.66,2.2l-.19,0,2.58-.66.67-.17-.16.38a2.75,2.75,0,0,0-2-1.38l-2.14-.39a12,12,0,0,1-2-.48,8.69,8.69,0,0,1,2,.13l2.26.28a3.2,3.2,0,0,1,2.4,1.58l.17.3-.33.08-.67.17-2.59.64-.1,0-.09-.05c-1.57-1-2.83-1.9-3.52-2.42l-.1-.07.06-.09C335.75,272.32,335.93,272.13,335.94,272.17Z" style="fill:#263238"></path><g style="opacity:0.30000000000000004"><path d="M339.94,274.9a12.24,12.24,0,0,0-3-2.57l-1-.16,2.64,2.35.52.59Z"></path></g><path d="M340.49,286.92l3.18-2.53a2.94,2.94,0,0,0,1-2.15v-.05l-3.25.82-2.07,3.74Z" style="fill:#FF725E"></path><path d="M340.49,286.92a3.76,3.76,0,0,1-1.12,0l-.18,0,.09-.18c.4-.85,1.1-2.2,2-3.79l.05-.09.11,0,2.2-.57,1-.26.33-.08v.34a3.17,3.17,0,0,1-1.22,2.42l-1.7,1.28a7.63,7.63,0,0,1-1.56,1,8.29,8.29,0,0,1,1.41-1.33c.76-.82,2.56-1.57,2.55-3.41l.33.26-1,.27-2.21.54.16-.12c-.9,1.58-1.67,2.89-2.17,3.68l-.1-.2A4.12,4.12,0,0,1,340.49,286.92Z" style="fill:#263238"></path><g style="opacity:0.30000000000000004"><path d="M340.56,286.87l.41-.34a5.37,5.37,0,0,0,1-3.65l-.53.13-1.06,3.22Z"></path></g><path d="M341.56,273.74c-.08.12-.47,0-.9-.19s-.8-.36-.77-.51.47-.17,1,0S341.64,273.62,341.56,273.74Z" style="fill:#fff"></path><path d="M344.18,282.88c.13.05.12.44-.15.8s-.63.5-.72.39.09-.39.3-.69S344,282.83,344.18,282.88Z" style="fill:#fff"></path><rect x="313.92" y="280.85" width="6.38" height="8.24" transform="translate(-60.14 86.36) rotate(-14.18)" style="fill:#FF725E"></rect><path d="M315,289.74a17.35,17.35,0,0,1-.66-2.11c-.39-1.39-1-3.4-1.59-5.82l-.06-.22.23-.06,6.18-1.59.32.19h0v.06l0,.07,0,.13.07.28.13.55.27,1.08.52,2.07c.32,1.34.63,2.59.91,3.74l.05.22-.21.05c-1.92.46-3.5.81-4.58,1a11.83,11.83,0,0,1-1.65.31,15,15,0,0,1,1.73-.54c1.07-.32,2.58-.75,4.4-1.23l-.16.26c-.3-1.15-.62-2.4-1-3.72-.18-.68-.35-1.37-.54-2.08l-.27-1.07-.14-.55-.07-.28,0-.14,0-.07v-.05h0c-.28-.17.39.22.32.18L313.07,282l.17-.28c.56,2.32,1,4.3,1.32,5.72S315.05,289.7,315,289.74Z" style="fill:#263238"></path><path d="M319.32,288.62a8.13,8.13,0,0,1-.82-2.29l.15.17-1.09-.33-.13,0,0-.14c-.08-.32-.17-.65-.26-1s-.19-.78-.28-1.16l0-.12.07-.09.78-1,0,.18a7,7,0,0,1-.31-2.13,6.77,6.77,0,0,1,.74,2l0,.09-.07.09-.72,1,0-.21.3,1.15.24,1-.17-.18,1.08.37.13,0,0,.12A8.66,8.66,0,0,1,319.32,288.62Z" style="fill:#263238"></path><path d="M317.14,289.17a8,8,0,0,1-.81-2.29l.15.17-1.1-.33-.13,0,0-.14-.25-1c-.1-.4-.19-.78-.28-1.16l0-.12.07-.09.77-1,0,.18a6.87,6.87,0,0,1-.32-2.13,6.77,6.77,0,0,1,.74,2l0,.09-.06.09-.73,1,0-.21.3,1.15c.09.34.17.66.25,1l-.17-.18,1.08.37.12,0,0,.12A8.22,8.22,0,0,1,317.14,289.17Z" style="fill:#263238"></path><path d="M322,275.73l-3.6,2.71a3,3,0,0,0-1,2.16v0l3.25-.82,2.07-3.74Z" style="fill:#FF725E"></path><path d="M322,275.73a2.47,2.47,0,0,1,.73.26l.1,0-.05.12c-.36.77-1.06,2.14-2,3.79l0,.1-.11,0-2.58.67-.67.17-.33.08v-.34a3.16,3.16,0,0,1,1.36-2.53l1.85-1.32a9.83,9.83,0,0,1,1.69-1.06,11.52,11.52,0,0,1-1.57,1.39c-.52.43-1.09.88-1.69,1.36a2.74,2.74,0,0,0-1.12,2.18l-.32-.26.67-.17,2.58-.64-.15.12c.93-1.64,1.71-2.95,2.18-3.67l.05.15A2.47,2.47,0,0,1,322,275.73Z" style="fill:#263238"></path><g style="opacity:0.30000000000000004"><path d="M319.81,280a12,12,0,0,1,1.39-3.68l.83-.63-1.21,3.33-.18.77Z"></path></g><path d="M325.24,290.87l-4.19-.71a3,3,0,0,1-1.94-1.41l0,0,3.25-.82,3.59,2.31Z" style="fill:#FF725E"></path><path d="M325.24,290.87a3.09,3.09,0,0,1,.61-.76l0,.19c-.8-.44-2.11-1.23-3.66-2.2l.19,0-2.36.61-.89.22.16-.38a2.78,2.78,0,0,0,1.93,1.38l2.06.41a10.86,10.86,0,0,1,1.94.5,8.3,8.3,0,0,1-1.91-.15l-2.17-.31a3.13,3.13,0,0,1-2.29-1.57l-.17-.29.33-.09.89-.22,2.36-.59.1,0,.09.05c1.54,1,2.8,1.87,3.53,2.41l.14.1-.12.1C325.52,290.72,325.25,290.91,325.24,290.87Z" style="fill:#263238"></path><g style="opacity:0.30000000000000004"><path d="M325.15,290.85l-.71-.09a5.34,5.34,0,0,1-2.63-2.73l.53-.14,2.46,2.34Z"></path></g><path d="M317.83,279.78c-.13-.06,0-.5.3-.91s.75-.6.83-.49-.13.45-.43.81S318,279.85,317.83,279.78Z" style="fill:#fff"></path><path d="M319.89,289.07c.1-.11.4,0,.73.17s.61.32.59.46-.4.2-.81,0S319.79,289.17,319.89,289.07Z" style="fill:#fff"></path><path d="M329.62,269.92l.31,1.22-2.72.68-.31-1.21A6.23,6.23,0,0,1,329.62,269.92Z" style="fill:#FF725E"></path><path d="M329.62,269.92a21.69,21.69,0,0,0-2.6.9l.12-.27c.11.39.21.79.32,1.2h0l-.31-.19c1.05-.27,2-.48,2.74-.62l-.14.23a5.4,5.4,0,0,1-.13-1.26c0-.06.23.35.49,1.17l.06.17-.19.06c-.69.22-1.65.49-2.71.76l-.25.06-.06-.25h0l-.29-1.21-.05-.19.17-.09a5.29,5.29,0,0,1,2-.55,5.4,5.4,0,0,1,.6,0C329.58,269.87,329.64,269.9,329.62,269.92Z" style="fill:#263238"></path><path d="M327.6,270.32c.14,0,.33.22.42.58s.05.67-.09.71-.33-.23-.42-.58S327.46,270.35,327.6,270.32Z" style="fill:#263238"></path><path d="M328.32,270.14c.14,0,.33.22.42.58s.05.67-.09.71-.33-.23-.42-.58S328.18,270.17,328.32,270.14Z" style="fill:#263238"></path><path d="M329,270c.14,0,.33.22.42.58s.05.67-.09.71-.33-.23-.42-.58S328.87,270,329,270Z" style="fill:#263238"></path><circle cx="331.01" cy="281.76" r="10.79" transform="translate(-23.04 533.97) rotate(-75.87)" style="fill:#FF725E"></circle><path d="M328.37,271.31a19.87,19.87,0,0,0-2.42,1.06,10.77,10.77,0,0,0-4.68,5.24,10.57,10.57,0,0,0,1,10.06,10.06,10.06,0,0,0,2,2.23,9.78,9.78,0,0,0,2.72,1.61,10.49,10.49,0,0,0,12.07-3.05,9.84,9.84,0,0,0,1.62-2.7,10,10,0,0,0,.75-2.94A10.67,10.67,0,0,0,331,271.09a22.42,22.42,0,0,0-2.64.22,8.21,8.21,0,0,1,2.64-.42,10.85,10.85,0,0,1,10,6.26,10.93,10.93,0,0,1,1,5.72,10.08,10.08,0,0,1-.76,3.08,10.72,10.72,0,0,1-1.69,2.84A11,11,0,0,1,326.86,292a10.22,10.22,0,0,1-2.83-1.69,10.55,10.55,0,0,1-2.14-2.35,11,11,0,0,1-1.85-5.5,10.92,10.92,0,0,1,5.81-10.25A8.23,8.23,0,0,1,328.37,271.31Z" style="fill:#263238"></path><path d="M328.51,271.86a10.22,10.22,0,1,1-7.4,12.41A10.22,10.22,0,0,1,328.51,271.86Z" style="fill:#fff"></path><path d="M324.22,283.51c0,.14-.24.33-.62.42s-.71.06-.74-.08.24-.33.62-.42S324.19,283.37,324.22,283.51Z" style="fill:#FF725E"></path><path d="M324.31,280c0,.13-.37.16-.74.06s-.65-.31-.61-.44.37-.17.75-.06S324.35,279.82,324.31,280Z" style="fill:#FF725E"></path><path d="M326.2,276.92c-.1.1-.4,0-.68-.3s-.42-.58-.32-.68.4,0,.68.3S326.3,276.82,326.2,276.92Z" style="fill:#FF725E"></path><path d="M337.71,280.07c0-.14.24-.33.61-.42s.71-.06.75.08-.24.33-.62.42S337.74,280.21,337.71,280.07Z" style="fill:#FF725E"></path><path d="M335.94,277c-.1-.1,0-.41.32-.68s.59-.4.69-.3-.05.41-.33.68S336,277.09,335.94,277Z" style="fill:#FF725E"></path><path d="M332.83,275.22c-.14-.05-.15-.38,0-.75s.32-.64.46-.6.16.38,0,.75S333,275.26,332.83,275.22Z" style="fill:#FF725E"></path><path d="M328.88,274c.14,0,.34.3.45.75s.1.84,0,.87-.35-.3-.46-.74S328.74,274,328.88,274Z" style="fill:#FF725E"></path><path d="M337.72,283.64c0-.14.37-.17.75-.06s.64.3.61.44-.38.16-.75.06S337.68,283.78,337.72,283.64Z" style="fill:#FF725E"></path><path d="M335.83,286.67c.1-.1.41,0,.69.31s.42.57.32.68-.41,0-.69-.31S335.73,286.78,335.83,286.67Z" style="fill:#FF725E"></path><path d="M326.1,286.6c.1.11-.05.41-.32.68s-.59.4-.69.3,0-.4.32-.67S326,286.5,326.1,286.6Z" style="fill:#FF725E"></path><path d="M329.2,288.38c.14,0,.16.38,0,.75s-.32.63-.45.59-.16-.38,0-.75S329.07,288.33,329.2,288.38Z" style="fill:#FF725E"></path><path d="M333.16,289.64c-.14,0-.35-.3-.46-.75s-.09-.83.05-.87.34.3.46.75S333.3,289.61,333.16,289.64Z" style="fill:#FF725E"></path><path d="M336.69,280h0a.07.07,0,0,0-.09-.05l-6.32,1.33.05.26,6.3-1.44A.08.08,0,0,0,336.69,280Z" style="fill:#e0e0e0"></path><path d="M330.3,281.49l1.54,3.89c0,.05-.06.09-.08,0l-2.08-3.69Z" style="fill:#FF725E"></path><polygon points="330.41 281.2 332.24 275.63 332.12 275.56 329.91 281.07 330.41 281.2" style="fill:#FF725E"></polygon><path d="M329.94,282a.51.51,0,0,1-.45-.54.5.5,0,0,1,1,.09A.51.51,0,0,1,329.94,282Z" style="fill:#FF725E"></path><path d="M329.94,282c0-.07.19-.11.28-.28a.29.29,0,1,0-.5-.05c.06.18.23.26.22.33s-.25.17-.53-.13a.69.69,0,0,1-.09-.68.73.73,0,0,1,1.38.13.66.66,0,0,1-.21.64C330.17,282.17,329.92,282,329.94,282Z" style="fill:#263238"></path><path d="M328.09,283.67c-.14,0-.39-.48-.56-1.15s-.19-1.23,0-1.27.39.48.56,1.15S328.23,283.63,328.09,283.67Z" style="fill:#e0e0e0"></path><path d="M327.72,284.9a5.82,5.82,0,0,1-.84-2.29,6,6,0,0,1-.35-2.42,11.34,11.34,0,0,1,1.19,4.71Z" style="fill:#e0e0e0"></path><path d="M317.68,314.7s-3.18,21.07-2.93,22.57,7.63,44.33,10.59,50.37,24.59,18.94,35.15,14.29,25.76-13.82,27-29.58,1.23-29-4.51-44.53-19.71-31.49-19.71-31.49Z" style="fill:#455a64"></path><path d="M355.78,402.91l-.54,0-1.58-.17a21.51,21.51,0,0,1-2.56-.39,30.9,30.9,0,0,1-3.45-.79l-2-.59-2.18-.83a24.31,24.31,0,0,1-2.32-1l-1.21-.59c-.41-.21-.81-.46-1.22-.69a40.63,40.63,0,0,1-10-8.16,46.91,46.91,0,0,1-8.18-13.34,162.38,162.38,0,0,1-4.92-17.35c-3-12.36-5.87-26.08-8.74-40.58l0-.22.21-.07,5.35-1.94c15.29-5.54,29.76-11,42.37-16.62l.15-.07.11.12a67.25,67.25,0,0,1,8.64,11.12c1.23,1.88,2.24,3.83,3.26,5.7s1.86,3.78,2.6,5.65a91.45,91.45,0,0,1,5.78,20.1,97,97,0,0,1,1.37,13.53c.07,1.58,0,2.79,0,3.61,0,.39,0,.7,0,.93s0,.31,0,.31a1.3,1.3,0,0,1,0-.31c0-.23,0-.54,0-.93,0-.82,0-2-.11-3.6a103.79,103.79,0,0,0-1.5-13.49,91.93,91.93,0,0,0-5.87-20c-.74-1.87-1.68-3.71-2.6-5.62s-2-3.79-3.26-5.66a67.48,67.48,0,0,0-8.61-11l.27.05c-12.62,5.7-27.09,11.14-42.38,16.68l-5.36,1.94.17-.3c2.86,14.49,5.74,28.21,8.68,40.57a167,167,0,0,0,4.86,17.31A46.58,46.58,0,0,0,329,389.39a40.17,40.17,0,0,0,9.83,8.15c.41.24.8.49,1.21.7l1.2.59a20.31,20.31,0,0,0,2.3,1.05l2.15.84,2,.61a31.06,31.06,0,0,0,3.43.83,20.38,20.38,0,0,0,2.54.43l1.58.23Z" style="fill:#263238"></path><g style="opacity:0.30000000000000004"><path d="M309.76,331.29l-2.61,8.38s4.62,46.34,16.33,57.95S347,408.48,347,408.48l-2-7.89s-19.15-6.31-25.63-29.46C314.05,352.16,309.76,331.29,309.76,331.29Z" style="fill:#263238"></path></g></g></svg>