<svg xmlns="http://www.w3.org/2000/svg" xmlns:xlink="http://www.w3.org/1999/xlink" viewBox="0 0 500 500"><defs><clippath id="clip-path"><path d="M148.2,403.7l12.35,7.13,55.54-32.07c0-8.66-13.16-30.54-35.5-21.64S149.71,392.88,148.2,403.7Z" style="fill:none"></path></clippath><clippath id="clip-path-2"><path d="M72.05,311.65,81.3,317l54-31.16s0-38.3-30.25-30C67.4,266.23,72.05,311.65,72.05,311.65Z" style="fill:none"></path></clippath><clippath id="clip-path-3"><path d="M352.4,397.5l12.34,7.13,55.55-32.07c0-8.66-13.17-30.54-35.5-21.64S353.91,386.68,352.4,397.5Z" style="fill:none"></path></clippath></defs><g id="Water"><g id="Floor"><ellipse id="floor" cx="253.48" cy="324.38" rx="227.63" ry="140.06" style="fill:#BA68C8"></ellipse><ellipse id="floor" cx="253.48" cy="324.38" rx="227.63" ry="140.06" style="fill:#fff;opacity:0.7000000000000001"></ellipse></g></g><g id="Arrow"><g id="arrow"><polygon points="197.71 246.75 223.16 232.08 220.49 262.64 197.71 246.75" style="fill:#263238"></polygon><polygon points="213.64 238.81 171.34 141.13 143.14 169.62 118.47 94.32 93.8 120.78 72.65 55.66 47.98 82.11 54.32 88.03 68.94 72.35 90.09 137.47 114.8 110.98 139.32 185.81 168.48 156.35 205.67 242.25 213.64 238.81" style="fill:#37474f"></polygon><polygon points="72.65 55.66 80.49 51.13 100.7 113.37 93.8 120.78 72.65 55.66" style="fill:#455a64"></polygon><polygon points="126.31 89.79 118.47 94.32 143.14 169.62 150.19 162.66 126.31 89.79" style="fill:#455a64"></polygon><polygon points="179.18 136.6 171.34 141.13 213.64 238.81 221.48 234.28 179.18 136.6" style="fill:#455a64"></polygon><polygon points="54.32 88.03 70.92 78.44 68.94 72.35 54.32 88.03" style="fill:#263238"></polygon><polygon points="90.09 137.47 102.44 130.35 117.33 118.73 114.8 110.98 90.09 137.47" style="fill:#263238"></polygon><polygon points="139.32 185.81 151.67 178.7 171.24 162.73 168.48 156.35 139.32 185.81" style="fill:#263238"></polygon><polygon points="204.84 243.88 230.28 229.21 227.93 259.74 204.84 243.88" style="fill:#455a64"></polygon><polygon points="220.49 262.64 227.93 259.74 204.84 243.88 197.71 246.75 220.49 262.64" style="fill:#37474f"></polygon><polygon points="223.16 232.08 230.28 229.21 221.48 234.28 221.05 233.29 223.16 232.08" style="fill:#263238"></polygon></g></g><g id="Coins"><g id="Coin"><path d="M152.51,410.05c2.55,1.45,4.33,2.88,7,3a16.22,16.22,0,0,0,10.61-3.86,11.89,11.89,0,0,1-9.25,5.37A8.91,8.91,0,0,1,152.51,410.05Z" style="opacity:0.15"></path><path d="M152.91,414.15a10.87,10.87,0,0,0,8.42,2.11s-1.29,1.16-4.45.63S152.91,414.15,152.91,414.15Z" style="opacity:0.15"></path><path d="M209,375.69c6,2.17,9.76,4.73,9,6.49s-4.47,4.55-4.47,4.55,5.12-2.79,6.51-4.36-.09-3.06-4-4.73A25.67,25.67,0,0,0,209,375.69Z" style="opacity:0.15"></path><path d="M169.06,418.78c8.81-3,18.35-9.34,26.53-13.63a292,292,0,0,0,25.18-14.89c2.4-1.58,4.95-3.5,5.5-6.32.44-2.25-.41-3.2-2.25-4.53a43.73,43.73,0,0,0-12.14-6.17,17.15,17.15,0,0,0-6.15-1.29c-2.43.11-4.84.45-7.25.79-3,.43-6,2-8.68,3.28-2.94,1.4-5.79,3-8.64,4.54l-18.77,10.33c-6.8,3.75-10.51,5.73-18.56,10.94-1.59,1-5.85,3.64-5.92,5.53s1.38,3.51,2.85,4.74C148.58,418.6,159.51,422,169.06,418.78Z" style="opacity:0.1"></path><g style="clip-path:url(#clip-path)"><path d="M195.92,361c-4-2.27-9.25-2.24-15.17.61-14,6.75-26.49,26.74-27.84,44.65-.76,10.14,2.2,17.44,7.45,20.65,1.35.82,6.57,3.78,7.82,4.52,4,2.38,9.34,2.4,15.37-.5,14-6.74,26.48-26.73,27.83-44.65.78-10.3-2.29-17.67-7.7-20.79Z" style="fill:#BA68C8"></path><path d="M195.92,361c-4-2.27-9.25-2.24-15.17.61-14,6.75-26.49,26.74-27.84,44.65-.76,10.14,2.2,17.44,7.45,20.65,1.35.82,6.57,3.78,7.82,4.52,4,2.38,9.34,2.4,15.37-.5,14-6.74,26.48-26.73,27.83-44.65.78-10.3-2.29-17.67-7.7-20.79Z" style="opacity:0.25"></path><path d="M209.28,397.25l-42.23-24.39c-7.66,9.2-13.26,21.75-14.14,33.41-.76,10.14,2.2,17.44,7.45,20.65,1.35.82,6.57,3.78,7.82,4.52,4,2.38,9.34,2.4,15.37-.5C194.75,425.56,204.94,411.72,209.28,397.25Z" style="opacity:0.1"></path><path d="M155.25,394.55a52.25,52.25,0,0,0-2.34,11.72c-.76,10.14,2.2,17.44,7.45,20.65,1.35.82,6.57,3.78,7.82,4.52,4,2.38,9.34,2.4,15.37-.5a43,43,0,0,0,14.19-11.85Z" style="opacity:0.1"></path><path d="M188.44,366.06c-14,6.75-26.48,26.74-27.83,44.66s8.92,27,22.94,20.22,26.48-26.73,27.83-44.65S202.46,359.32,188.44,366.06Z" style="fill:#BA68C8"></path><path d="M188.44,366.06c-14,6.75-26.48,26.74-27.83,44.66s8.92,27,22.94,20.22,26.48-26.73,27.83-44.65S202.46,359.32,188.44,366.06Z" style="opacity:0.2"></path><path d="M202.33,390.38a42.63,42.63,0,0,1-6.3,17c-3.41,5.47-7.61,9.77-11.82,12.1-4.47,2.48-8.47,2.47-11.28,0s-4-7-3.27-12.82a42.63,42.63,0,0,1,6.3-17c3.41-5.48,7.61-9.77,11.83-12.11,4.45-2.46,8.45-2.46,11.26,0S203,384.59,202.33,390.38Z" style="fill:#BA68C8"></path><path d="M202.33,390.38a42.63,42.63,0,0,1-6.3,17c-3.41,5.47-7.61,9.77-11.82,12.1-4.47,2.48-8.47,2.47-11.28,0s-4-7-3.27-12.82a42.63,42.63,0,0,1,6.3-17c3.41-5.48,7.61-9.77,11.83-12.11,4.45-2.46,8.45-2.46,11.26,0S203,384.59,202.33,390.38Z" style="opacity:0.4"></path><path d="M204.82,368.3c-3.88-3.42-9.47-3.63-15.75-.62-6.54,3.16-13,9.4-18.08,17.6a58.31,58.31,0,0,0-8.9,25.68c-.6,8,1.2,14.32,5.08,17.74s9.47,3.64,15.75.62c6.55-3.15,13-9.39,18.08-17.59A58.12,58.12,0,0,0,209.89,386C210.5,378,208.7,371.72,204.82,368.3Zm-5.77,9.26c2.8,2.47,4,7,3.28,12.82a42.63,42.63,0,0,1-6.3,17c-3.41,5.47-7.61,9.77-11.82,12.1-4.47,2.48-8.47,2.47-11.28,0s-4-7-3.27-12.82a42.63,42.63,0,0,1,6.3-17c3.41-5.48,7.61-9.77,11.83-12.11C192.24,375.09,196.24,375.09,199.05,377.56Z" style="fill:#BA68C8"></path><ellipse cx="186" cy="398.5" rx="23.51" ry="11.87" transform="translate(-252.9 370.79) rotate(-61.37)" style="opacity:0.2"></ellipse><ellipse cx="186" cy="398.5" rx="23.51" ry="11.87" transform="translate(-252.9 370.79) rotate(-61.37)" style="fill:#BA68C8"></ellipse><ellipse cx="186" cy="398.5" rx="23.51" ry="11.87" transform="translate(-252.9 370.79) rotate(-61.37)" style="opacity:0.6000000000000001"></ellipse><path d="M198.76,388c-1.29,10.88-9.13,23.45-17.51,28.08-3.46,1.92-6.47,2.17-8.72,1.05-1.56-2.24-2.23-5.74-1.7-10.24,1.29-10.87,9.13-23.45,17.51-28.08,3.46-1.92,6.47-2.17,8.72-1C198.62,380,199.29,383.5,198.76,388Z" style="fill:#BA68C8"></path><path d="M198.76,388c-1.29,10.88-9.13,23.45-17.51,28.08-3.46,1.92-6.47,2.17-8.72,1.05-1.56-2.24-2.23-5.74-1.7-10.24,1.29-10.87,9.13-23.45,17.51-28.08,3.46-1.92,6.47-2.17,8.72-1C198.62,380,199.29,383.5,198.76,388Z" style="opacity:0.5"></path><path d="M194.27,389.61c-.66-.48-2.3-1.31-3.09-1.79a2,2,0,0,0-2.26,0l.71-2.17a27,27,0,0,1-3.08-1.78,2.57,2.57,0,0,0-1.16.15,5.74,5.74,0,0,0-2.11,1.53,22,22,0,0,0-3.38,5.05l-1.68-.9-2.59,5.82.35.25,1.19.89a18.54,18.54,0,0,0-1.72,6.81c0,.17,0,.32,0,.47-.07,1.68.29,2.94,1.16,3.57h0c.65.47,2.66,1.51,3.08,1.77h0c.83.6,1.73.36,2.65-.38l-.6,1.85,3.09,1.78c1.88-.07,4.06-2.34,6.36-6.7l1.55,1.12,2.62-5.87L193.79,400a23.81,23.81,0,0,0,1.66-6.58v-.05C195.55,391.58,195.18,390.27,194.27,389.61Z" style="fill:#BA68C8"></path><path d="M179.06,397.58l1.2.88a18.5,18.5,0,0,0-1.73,6.81c0,.17,0,.32,0,.48-.06,1.68.3,2.93,1.16,3.56h0c.93.67,1.94.3,3-.64.09-.08.18-.19.27-.26l0,0,.28-.3a3.74,3.74,0,0,0,.25-.29,1.27,1.27,0,0,1,.1-.12c.06-.08.13-.15.19-.24a27.22,27.22,0,0,0,1.58-2.23c.25-.4.5-.8.74-1.22.36-.59.71-1.19,1-1.77.13-.24.26-.46.39-.68a30.2,30.2,0,0,1,2.19-3.51c.35-.44.64-.69.89-.73a.54.54,0,0,1,.39.09c.46.34.46,1.52-.63,4s-2.24,3.75-3.07,3.61l-2.48,7.61c1.88-.07,4.06-2.34,6.36-6.7l1.55,1.12,2.62-5.87L193.79,400a23.81,23.81,0,0,0,1.66-6.58v-.05c.1-1.79-.27-3.1-1.18-3.76-2-1.49-4.38,1.76-6.58,5.46-2,3.47-3.58,6.75-4.57,6-.61-.46-.32-2,.54-3.88,1.37-3.06,2.67-3.71,3.34-3.54l2.63-8a2.76,2.76,0,0,0-1.16.15,5.74,5.74,0,0,0-2.11,1.53,24,24,0,0,0-3.5,5.29l-1.55-1.14-2.6,5.82Z" style="fill:#BA68C8"></path><polygon points="178.71 397.32 181.47 392.23 182.86 392.64 181.31 391.5 178.71 397.32" style="fill:#f5f5f5"></polygon><path d="M188.92,386.3,187,393.68h0l2.63-8a2.76,2.76,0,0,0-1.16.15,5.74,5.74,0,0,0-2.11,1.53,15.71,15.71,0,0,0-1.38,1.72L185,389A8.08,8.08,0,0,1,188.92,386.3Z" style="fill:#f5f5f5"></path><path d="M187.29,405l-2.48,7.61h0l2.63-7.12a5.15,5.15,0,0,0,2.45-2.74,16.07,16.07,0,0,0,1-2.62h0c-.13.38-.29.78-.5,1.25C189.2,403.94,188.12,405.1,187.29,405Z" style="fill:#f5f5f5"></path><polygon points="191.17 405.87 192.63 406.64 195.34 401.12 192.72 406.99 191.17 405.87" style="fill:#f5f5f5"></polygon><path d="M178.51,405.75c0-.16,0-.31,0-.48a18.5,18.5,0,0,1,1.73-6.81l-1.2-.88-.35-.26,2.6-5.82,1.55,1.14a24,24,0,0,1,3.5-5.29,5.74,5.74,0,0,1,2.11-1.53,2.76,2.76,0,0,1,1.16-.15l-.34,1.06.34-1.06a27,27,0,0,1-3.08-1.78,2.57,2.57,0,0,0-1.16.15,5.74,5.74,0,0,0-2.11,1.53,22,22,0,0,0-3.38,5.05l-1.68-.9-2.59,5.82.35.25,1.19.89a18.54,18.54,0,0,0-1.72,6.81c0,.17,0,.32,0,.47-.07,1.68.29,2.94,1.16,3.57h0c.65.47,2.66,1.51,3.08,1.77C178.81,408.68,178.45,407.43,178.51,405.75Z" style="opacity:0.30000000000000004"></path><path d="M190.36,401.35c1.09-2.45,1.09-3.62.63-4a.54.54,0,0,0-.39-.09c-.25,0-.54.29-.89.73a30.2,30.2,0,0,0-2.19,3.51c-.13.22-.26.44-.39.68-.34.58-.69,1.18-1,1.77-.24.42-.49.82-.74,1.22a27.22,27.22,0,0,1-1.58,2.23c-.06.09-.13.16-.19.24a1.27,1.27,0,0,0-.1.12,3.74,3.74,0,0,1-.25.29l-.28.3,0,0c-.09.07-.18.18-.27.26l-.32.26h0l-.6,1.85,3.09,1.78,2.48-7.61C188.12,405.1,189.2,403.94,190.36,401.35Z" style="opacity:0.30000000000000004"></path><path d="M183.66,397.22c-.86,1.92-1.15,3.42-.54,3.88,1,.72,2.53-2.56,4.57-6,2.2-3.7,4.54-6.95,6.58-5.46-.66-.48-2.3-1.31-3.09-1.79a2,2,0,0,0-2.26,0L187,393.68C186.33,393.51,185,394.16,183.66,397.22Z" style="opacity:0.30000000000000004"></path><path d="M183.66,397.22c-.86,1.92-1.15,3.42-.54,3.88,1,.72,2.53-2.56,4.57-6,2.2-3.7,4.54-6.95,6.58-5.46-.66-.48-2.3-1.31-3.09-1.79a2,2,0,0,0-2.26,0L187,393.68C186.33,393.51,185,394.16,183.66,397.22Z" style="opacity:0.1"></path><polygon points="175.63 395.54 178.71 397.32 180.26 398.46 177.17 396.68 175.63 395.54" style="opacity:0.4"></polygon><path d="M178.53,405.27a18.5,18.5,0,0,1,1.73-6.81l-3.09-1.78a18.54,18.54,0,0,0-1.72,6.81c0,.17,0,.32,0,.47-.07,1.68.29,2.94,1.16,3.57h0c.65.47,2.66,1.51,3.08,1.77-.86-.63-1.22-1.88-1.16-3.56C178.52,405.59,178.52,405.44,178.53,405.27Z" style="opacity:0.1"></path><path d="M185.34,405.21a27.22,27.22,0,0,1-1.58,2.23c-.06.09-.13.16-.19.24a1.27,1.27,0,0,0-.1.12,3.74,3.74,0,0,1-.25.29l-.28.3,0,0c-.09.07-.18.18-.27.26l-.32.26h0l-.6,1.85,3.09,1.78,2.48-7.61L186,404.2Z" style="opacity:0.1"></path><path d="M182.69,428.74c9.73-4.37,18.31-17,18.31-17-5.11,8.2-11.53,14.44-18.08,17.59-6.28,3-11.87,2.8-15.75-.62C167.17,428.7,172.79,433.19,182.69,428.74Z" style="fill:#f5f5f5"></path><path d="M168.3,386.68c5.18-9.18,12.42-16.9,20.14-20.62,8-3.86,14.82-2.54,18.91,2.65,0,0-6.88-8.11-18.95-1.86S168.3,386.68,168.3,386.68Z" style="fill:#f5f5f5"></path></g></g><g id="coin"><path d="M75.78,306.77c-4.22,3.82-5.4,4.86-4.87,6.29S77.59,318,77.59,318s-5.58-1.56-7.52-3.06-1.81-2.72,0-4.73S75.78,306.77,75.78,306.77Z" style="opacity:0.15"></path><path d="M128.63,279.34c5.78,4.41,9.73,7.43,6.59,10.89s-14.81,9.33-14.81,9.33,11.82-3.58,16.86-7.86S136.33,283.23,128.63,279.34Z" style="opacity:0.15"></path><path d="M68.1,309.7c-1.15,1.63-1.68,3.79.29,5.66,0,0-2.33-.77-2.31-2.83A3.39,3.39,0,0,1,68.1,309.7Z" style="opacity:0.15"></path><path d="M89.6,322.69c8.82-3,18.35-9.33,26.53-13.62,8.64-4.54,17-9.53,25.19-14.89,2.39-1.59,4.94-3.51,5.49-6.33.44-2.25-.41-3.19-2.25-4.52a43.63,43.63,0,0,0-12.14-6.18,17.31,17.31,0,0,0-6.14-1.29c-2.43.12-4.85.45-7.25.8-3,.43-6,2-8.69,3.28-2.93,1.4-5.79,3-8.64,4.54L82.94,294.81c-6.81,3.74-10.51,5.72-18.57,10.94-1.58,1-5.85,3.63-5.92,5.52s1.38,3.52,2.85,4.74C69.12,322.51,80.05,325.92,89.6,322.69Z" style="opacity:0.1"></path><g style="clip-path:url(#clip-path-2)"><path d="M116.15,257.92c-4-2.27-9.25-2.25-15.18.61-14,6.74-26.48,26.73-27.83,44.65-.77,10.14,2.19,17.44,7.45,20.64,1.35.82,6.57,3.78,7.81,4.52,4,2.39,9.35,2.41,15.37-.49,14-6.75,26.49-26.74,27.84-44.65.77-10.3-2.29-17.67-7.7-20.79C122.62,261.67,117.47,258.67,116.15,257.92Z" style="fill:#BA68C8"></path><path d="M116.15,257.92c-4-2.27-9.25-2.25-15.18.61-14,6.74-26.48,26.73-27.83,44.65-.77,10.14,2.19,17.44,7.45,20.64,1.35.82,6.57,3.78,7.81,4.52,4,2.39,9.35,2.41,15.37-.49,14-6.75,26.49-26.74,27.84-44.65.77-10.3-2.29-17.67-7.7-20.79C122.62,261.67,117.47,258.67,116.15,257.92Z" style="opacity:0.25"></path><path d="M129.51,294.15,87.28,269.77C79.61,279,74,291.51,73.14,303.18c-.77,10.14,2.19,17.44,7.45,20.64,1.35.82,6.57,3.78,7.81,4.52,4,2.39,9.35,2.41,15.37-.49C115,322.46,125.17,308.63,129.51,294.15Z" style="opacity:0.1"></path><path d="M75.47,291.46a52.79,52.79,0,0,0-2.33,11.72c-.77,10.14,2.19,17.44,7.45,20.64,1.35.82,6.57,3.78,7.81,4.52,4,2.39,9.35,2.41,15.37-.49A43,43,0,0,0,118,316Z" style="opacity:0.1"></path><path d="M108.67,263c-14,6.74-26.49,26.73-27.84,44.65s8.92,27,22.94,20.23,26.49-26.74,27.84-44.65S122.69,256.22,108.67,263Z" style="fill:#BA68C8"></path><path d="M108.67,263c-14,6.74-26.49,26.73-27.84,44.65s8.92,27,22.94,20.23,26.49-26.74,27.84-44.65S122.69,256.22,108.67,263Z" style="opacity:0.2"></path><path d="M122.56,287.28a42.75,42.75,0,0,1-6.31,17c-3.41,5.47-7.61,9.77-11.82,12.1-4.46,2.47-8.47,2.47-11.27,0s-4-7-3.27-12.82a42.46,42.46,0,0,1,6.29-17c3.41-5.48,7.61-9.77,11.83-12.1,4.46-2.47,8.46-2.47,11.26,0S123.24,281.49,122.56,287.28Z" style="fill:#BA68C8"></path><path d="M122.56,287.28a42.75,42.75,0,0,1-6.31,17c-3.41,5.47-7.61,9.77-11.82,12.1-4.46,2.47-8.47,2.47-11.27,0s-4-7-3.27-12.82a42.46,42.46,0,0,1,6.29-17c3.41-5.48,7.61-9.77,11.83-12.1,4.46-2.47,8.46-2.47,11.26,0S123.24,281.49,122.56,287.28Z" style="opacity:0.4"></path><path d="M125,265.21c-3.87-3.42-9.47-3.64-15.75-.62-6.54,3.15-13,9.4-18.07,17.6S83,299.5,82.32,307.86c-.61,8,1.2,14.33,5.07,17.74s9.47,3.65,15.75.62c6.55-3.15,13-9.39,18.08-17.58s8.27-17.33,8.9-25.69C130.72,274.93,128.93,268.63,125,265.21Zm-5.77,9.25c2.81,2.47,4,7,3.29,12.82a42.75,42.75,0,0,1-6.31,17c-3.41,5.47-7.61,9.77-11.82,12.1-4.46,2.47-8.47,2.47-11.27,0s-4-7-3.27-12.82a42.46,42.46,0,0,1,6.29-17c3.41-5.48,7.61-9.77,11.83-12.1C112.47,272,116.47,272,119.27,274.46Z" style="fill:#BA68C8"></path><ellipse cx="106.22" cy="295.41" rx="23.51" ry="11.87" transform="translate(-203.96 247.08) rotate(-61.37)" style="opacity:0.2"></ellipse><ellipse cx="106.22" cy="295.41" rx="23.51" ry="11.87" transform="translate(-203.96 247.08) rotate(-61.37)" style="fill:#BA68C8"></ellipse><ellipse cx="106.22" cy="295.41" rx="23.51" ry="11.87" transform="translate(-203.96 247.08) rotate(-61.37)" style="opacity:0.6000000000000001"></ellipse><path d="M119,284.9c-1.29,10.88-9.13,23.45-17.5,28.09-3.47,1.91-6.48,2.17-8.73,1-1.56-2.23-2.23-5.73-1.7-10.23,1.3-10.88,9.13-23.45,17.51-28.09,3.46-1.91,6.48-2.17,8.73-1C118.85,276.9,119.52,280.4,119,284.9Z" style="fill:#BA68C8"></path><path d="M119,284.9c-1.29,10.88-9.13,23.45-17.5,28.09-3.47,1.91-6.48,2.17-8.73,1-1.56-2.23-2.23-5.73-1.7-10.23,1.3-10.88,9.13-23.45,17.51-28.09,3.46-1.91,6.48-2.17,8.73-1C118.85,276.9,119.52,280.4,119,284.9Z" style="opacity:0.5"></path><path d="M114.49,286.51c-.66-.48-2.29-1.31-3.08-1.78a2,2,0,0,0-2.26,0l.71-2.17a27.87,27.87,0,0,1-3.09-1.78,2.6,2.6,0,0,0-1.16.14,6,6,0,0,0-2.11,1.53,22,22,0,0,0-3.38,5l-1.67-.9-2.6,5.82.35.26,1.2.88a18.5,18.5,0,0,0-1.73,6.81c0,.17,0,.33,0,.48-.06,1.68.3,2.94,1.16,3.56v0c.65.46,2.67,1.5,3.09,1.76v0c.83.59,1.73.35,2.65-.38l-.6,1.85,3.08,1.78c1.89-.07,4.06-2.34,6.36-6.71l1.55,1.13,2.62-5.87L114,296.91a23.86,23.86,0,0,0,1.66-6.59v-.05C115.78,288.48,115.41,287.18,114.49,286.51Z" style="fill:#BA68C8"></path><path d="M99.29,294.48l1.19.88a18.62,18.62,0,0,0-1.72,6.81c0,.18,0,.33,0,.48-.06,1.68.29,2.94,1.16,3.56v0c.92.66,1.94.29,3-.65l.26-.26,0,0,.29-.3a3.7,3.7,0,0,0,.24-.29l.11-.12.19-.23c.53-.67,1.06-1.45,1.57-2.24.25-.39.5-.8.75-1.22.36-.59.71-1.19,1-1.76l.4-.69a31.11,31.11,0,0,1,2.19-3.51c.34-.43.63-.68.89-.72a.45.45,0,0,1,.38.09c.47.34.46,1.51-.62,3.95-1.16,2.6-2.24,3.75-3.08,3.61L105,309.48c1.89-.07,4.06-2.34,6.36-6.71l1.55,1.13,2.62-5.87L114,296.91a23.86,23.86,0,0,0,1.66-6.59v-.05c.1-1.79-.27-3.09-1.19-3.76-2-1.49-4.38,1.76-6.57,5.47-2,3.46-3.58,6.74-4.57,6-.62-.45-.32-1.95.54-3.87,1.36-3.07,2.66-3.71,3.34-3.55l2.63-8a2.56,2.56,0,0,0-1.16.14,5.9,5.9,0,0,0-2.11,1.54,24.2,24.2,0,0,0-3.51,5.28l-1.55-1.13-2.59,5.81Z" style="fill:#BA68C8"></path><polygon points="98.94 294.22 101.7 289.13 103.08 289.54 101.53 288.41 98.94 294.22" style="fill:#f5f5f5"></polygon><path d="M109.15,283.2l-1.92,7.38h0l2.63-8a2.56,2.56,0,0,0-1.16.14,5.9,5.9,0,0,0-2.11,1.54A15,15,0,0,0,105.2,286l.07-.08A8.05,8.05,0,0,1,109.15,283.2Z" style="fill:#f5f5f5"></path><path d="M107.51,301.86,105,309.48h0l2.63-7.12a5.15,5.15,0,0,0,2.45-2.74,15.85,15.85,0,0,0,1-2.63h0c-.13.38-.29.79-.49,1.25C109.43,300.85,108.35,302,107.51,301.86Z" style="fill:#f5f5f5"></path><polygon points="111.39 302.77 112.86 303.54 115.56 298.03 112.94 303.9 111.39 302.77" style="fill:#f5f5f5"></polygon><path d="M98.74,302.65c0-.15,0-.3,0-.48a18.62,18.62,0,0,1,1.72-6.81l-1.19-.88-.35-.26,2.59-5.81,1.55,1.13a24.2,24.2,0,0,1,3.51-5.28,5.9,5.9,0,0,1,2.11-1.54,2.56,2.56,0,0,1,1.16-.14l-.35,1.05.35-1.05a27.87,27.87,0,0,1-3.09-1.78,2.6,2.6,0,0,0-1.16.14,6,6,0,0,0-2.11,1.53,22,22,0,0,0-3.38,5l-1.67-.9-2.6,5.82.35.26,1.2.88a18.5,18.5,0,0,0-1.73,6.81c0,.17,0,.33,0,.48-.06,1.68.3,2.94,1.16,3.56v0c.65.46,2.67,1.5,3.09,1.76C99,305.59,98.68,304.33,98.74,302.65Z" style="opacity:0.30000000000000004"></path><path d="M110.59,298.25c1.08-2.44,1.09-3.61.62-3.95a.45.45,0,0,0-.38-.09c-.26,0-.55.29-.89.72a31.11,31.11,0,0,0-2.19,3.51l-.4.69c-.33.57-.68,1.17-1,1.76-.25.42-.5.83-.75,1.22-.51.79-1,1.57-1.57,2.24l-.19.23-.11.12a3.7,3.7,0,0,1-.24.29l-.29.3,0,0-.26.26-.32.27h0l-.6,1.85,3.08,1.78,2.48-7.62C108.35,302,109.43,300.85,110.59,298.25Z" style="opacity:0.30000000000000004"></path><path d="M103.89,294.13c-.86,1.92-1.16,3.42-.54,3.87,1,.72,2.53-2.56,4.57-6,2.19-3.71,4.53-7,6.57-5.47-.66-.48-2.29-1.31-3.08-1.78a2,2,0,0,0-2.26,0l-1.92,5.83C106.55,290.42,105.25,291.06,103.89,294.13Z" style="opacity:0.30000000000000004"></path><path d="M103.89,294.13c-.86,1.92-1.16,3.42-.54,3.87,1,.72,2.53-2.56,4.57-6,2.19-3.71,4.53-7,6.57-5.47-.66-.48-2.29-1.31-3.08-1.78a2,2,0,0,0-2.26,0l-1.92,5.83C106.55,290.42,105.25,291.06,103.89,294.13Z" style="opacity:0.1"></path><polygon points="95.85 292.44 98.94 294.22 100.48 295.36 97.4 293.58 95.85 292.44" style="opacity:0.4"></polygon><path d="M98.76,302.17a18.62,18.62,0,0,1,1.72-6.81l-3.08-1.78a18.5,18.5,0,0,0-1.73,6.81c0,.17,0,.33,0,.48-.06,1.68.3,2.94,1.16,3.56v0c.65.46,2.67,1.5,3.09,1.76-.87-.62-1.22-1.88-1.16-3.56C98.74,302.5,98.75,302.35,98.76,302.17Z" style="opacity:0.1"></path><path d="M105.56,302.11c-.51.79-1,1.57-1.57,2.24l-.19.23-.11.12a3.7,3.7,0,0,1-.24.29l-.29.3,0,0-.26.26-.32.27h0l-.6,1.85,3.08,1.78,2.48-7.62-1.33-.75C106,301.45,105.77,301.79,105.56,302.11Z" style="opacity:0.1"></path><path d="M102.92,325.65c9.73-4.38,18.3-17,18.3-17-5.11,8.19-11.53,14.43-18.08,17.58-6.28,3-11.86,2.81-15.75-.62C87.39,325.6,93,330.1,102.92,325.65Z" style="fill:#f5f5f5"></path><path d="M88.53,283.58c5.18-9.18,12.42-16.9,20.14-20.61,8-3.86,14.82-2.55,18.91,2.64,0,0-6.89-8.11-19-1.85S88.53,283.58,88.53,283.58Z" style="fill:#f5f5f5"></path></g><path d="M138.57,283.93c2.37,2,4.13,5.08,1.89,7.17,0,0,2.64-1.42,2.37-3.18S138.57,283.93,138.57,283.93Z" style="opacity:0.15"></path></g><g id="coin"><path d="M371,409.47c7.3-2.47,15.21-7.73,22-11.29q10.74-5.64,20.88-12.34c2-1.31,4.09-2.91,4.55-5.25.37-1.86-.34-2.64-1.86-3.75a36,36,0,0,0-10.07-5.11,14.32,14.32,0,0,0-5.09-1.07,60.34,60.34,0,0,0-6,.66c-2.46.35-5,1.65-7.2,2.71-2.43,1.17-4.8,2.47-7.16,3.77l-15.56,8.56c-5.64,3.11-8.71,4.75-15.39,9.07-1.31.85-4.85,3-4.9,4.58s1.14,2.91,2.36,3.93C354,409.33,363.1,412.15,371,409.47Z" style="opacity:0.1"></path><g style="clip-path:url(#clip-path-3)"><path d="M397.19,368.32c-4-2.28-9.25-2.25-15.18.6-14,6.75-26.48,26.74-27.83,44.66-.77,10.14,2.19,17.43,7.45,20.64,1.35.82,6.57,3.78,7.81,4.52,4,2.38,9.35,2.4,15.37-.49,14-6.75,26.49-26.74,27.84-44.66.77-10.3-2.29-17.66-7.7-20.79C403.66,372.06,398.51,369.07,397.19,368.32Z" style="fill:#BA68C8"></path><path d="M397.19,368.32c-4-2.28-9.25-2.25-15.18.6-14,6.75-26.48,26.74-27.83,44.66-.77,10.14,2.19,17.43,7.45,20.64,1.35.82,6.57,3.78,7.81,4.52,4,2.38,9.35,2.4,15.37-.49,14-6.75,26.49-26.74,27.84-44.66.77-10.3-2.29-17.66-7.7-20.79C403.66,372.06,398.51,369.07,397.19,368.32Z" style="opacity:0.25"></path><path d="M410.55,404.55l-42.23-24.38c-7.67,9.19-13.26,21.74-14.14,33.41-.77,10.14,2.19,17.43,7.45,20.64,1.35.82,6.57,3.78,7.81,4.52,4,2.38,9.35,2.4,15.37-.49C396,432.86,406.21,419,410.55,404.55Z" style="opacity:0.1"></path><path d="M356.51,401.85a52.87,52.87,0,0,0-2.33,11.73c-.77,10.14,2.19,17.43,7.45,20.64,1.35.82,6.57,3.78,7.81,4.52,4,2.38,9.35,2.4,15.37-.49A43,43,0,0,0,399,426.39Z" style="opacity:0.1"></path><path d="M389.71,373.37c-14,6.74-26.49,26.73-27.84,44.65s8.92,27,22.94,20.23,26.49-26.74,27.84-44.66S403.73,366.62,389.71,373.37Z" style="fill:#BA68C8"></path><path d="M389.71,373.37c-14,6.74-26.49,26.73-27.84,44.65s8.92,27,22.94,20.23,26.49-26.74,27.84-44.66S403.73,366.62,389.71,373.37Z" style="opacity:0.2"></path><path d="M403.6,397.68a42.66,42.66,0,0,1-6.31,17c-3.41,5.47-7.61,9.77-11.82,12.11-4.46,2.47-8.47,2.46-11.27,0s-4-7-3.27-12.82a42.46,42.46,0,0,1,6.29-17c3.41-5.48,7.61-9.77,11.83-12.11,4.46-2.46,8.46-2.46,11.26,0S404.28,391.89,403.6,397.68Z" style="fill:#BA68C8"></path><path d="M403.6,397.68a42.66,42.66,0,0,1-6.31,17c-3.41,5.47-7.61,9.77-11.82,12.11-4.46,2.47-8.47,2.46-11.27,0s-4-7-3.27-12.82a42.46,42.46,0,0,1,6.29-17c3.41-5.48,7.61-9.77,11.83-12.11,4.46-2.46,8.46-2.46,11.26,0S404.28,391.89,403.6,397.68Z" style="opacity:0.4"></path><path d="M406.08,375.6c-3.87-3.41-9.47-3.63-15.75-.62-6.54,3.16-13,9.41-18.07,17.6s-8.27,17.32-8.9,25.68c-.61,8,1.2,14.32,5.07,17.74s9.47,3.64,15.75.62c6.55-3.15,13-9.39,18.08-17.59s8.27-17.32,8.9-25.69C411.76,385.33,410,379,406.08,375.6Zm-5.77,9.26c2.81,2.47,4,7,3.29,12.82a42.66,42.66,0,0,1-6.31,17c-3.41,5.47-7.61,9.77-11.82,12.11-4.46,2.47-8.47,2.46-11.27,0s-4-7-3.27-12.82a42.46,42.46,0,0,1,6.29-17c3.41-5.48,7.61-9.77,11.83-12.11C393.51,382.39,397.51,382.39,400.31,384.86Z" style="fill:#BA68C8"></path><path d="M389.6,386.11c8.38-4.63,14.12.43,12.83,11.31s-9.13,23.45-17.51,28.08-14.12-.43-12.83-11.31S381.22,390.74,389.6,386.11Z" style="opacity:0.2"></path><path d="M389.6,386.11c8.38-4.63,14.12.43,12.83,11.31s-9.13,23.45-17.51,28.08-14.12-.43-12.83-11.31S381.22,390.74,389.6,386.11Z" style="fill:#BA68C8"></path><path d="M389.6,386.11c8.38-4.63,14.12.43,12.83,11.31s-9.13,23.45-17.51,28.08-14.12-.43-12.83-11.31S381.22,390.74,389.6,386.11Z" style="opacity:0.6000000000000001"></path><path d="M400,395.3c-1.29,10.88-9.13,23.45-17.5,28.08-3.47,1.92-6.48,2.17-8.73,1.05-1.56-2.24-2.23-5.74-1.7-10.24,1.3-10.87,9.13-23.45,17.51-28.08,3.46-1.92,6.48-2.17,8.73-1C399.89,387.3,400.56,390.8,400,395.3Z" style="fill:#BA68C8"></path><path d="M400,395.3c-1.29,10.88-9.13,23.45-17.5,28.08-3.47,1.92-6.48,2.17-8.73,1.05-1.56-2.24-2.23-5.74-1.7-10.24,1.3-10.87,9.13-23.45,17.51-28.08,3.46-1.92,6.48-2.17,8.73-1C399.89,387.3,400.56,390.8,400,395.3Z" style="opacity:0.5"></path><path d="M395.53,396.91c-.66-.48-2.29-1.31-3.08-1.78a2,2,0,0,0-2.26,0l.71-2.17a27.79,27.79,0,0,1-3.09-1.79,2.76,2.76,0,0,0-1.16.15,5.74,5.74,0,0,0-2.11,1.53,22,22,0,0,0-3.38,5.05l-1.67-.9-2.6,5.82.35.26,1.2.88a18.5,18.5,0,0,0-1.73,6.81c0,.17,0,.32,0,.48-.06,1.68.3,2.93,1.16,3.56h0c.65.47,2.67,1.51,3.09,1.77v0c.83.59,1.73.35,2.65-.38l-.6,1.84,3.08,1.78c1.89-.06,4.06-2.34,6.36-6.7l1.55,1.12,2.62-5.86-1.55-1.13a23.72,23.72,0,0,0,1.66-6.58v-.05C396.82,398.88,396.45,397.58,395.53,396.91Z" style="fill:#BA68C8"></path><path d="M380.33,404.88l1.19.88a18.62,18.62,0,0,0-1.72,6.81c0,.17,0,.33,0,.48-.06,1.68.29,2.93,1.16,3.56v0c.92.66,1.94.29,3-.65l.26-.26,0,0,.29-.3a3.7,3.7,0,0,0,.24-.29l.11-.12.19-.23c.53-.67,1.06-1.45,1.57-2.24.25-.39.5-.8.75-1.22.36-.59.71-1.19,1-1.76l.4-.69a31.11,31.11,0,0,1,2.19-3.51c.34-.44.63-.69.89-.73a.53.53,0,0,1,.38.09c.47.35.46,1.52-.62,4-1.16,2.6-2.24,3.75-3.08,3.61l-2.48,7.61c1.89-.06,4.06-2.34,6.36-6.7l1.55,1.12,2.62-5.86-1.55-1.13a23.72,23.72,0,0,0,1.66-6.58v-.05c.1-1.79-.27-3.09-1.19-3.76-2-1.49-4.38,1.76-6.57,5.47-2,3.46-3.58,6.74-4.57,6-.62-.45-.32-1.95.54-3.87,1.36-3.07,2.66-3.71,3.34-3.55l2.63-8a2.56,2.56,0,0,0-1.16.14,5.86,5.86,0,0,0-2.11,1.53,24,24,0,0,0-3.51,5.29l-1.55-1.14L380,404.62Z" style="fill:#BA68C8"></path><polygon points="379.98 404.62 382.74 399.53 384.12 399.94 382.57 398.8 379.98 404.62" style="fill:#f5f5f5"></polygon><path d="M390.19,393.6,388.27,401h0l2.63-8a2.56,2.56,0,0,0-1.16.14,5.86,5.86,0,0,0-2.11,1.53,16.13,16.13,0,0,0-1.39,1.73.31.31,0,0,0,.07-.09A8.08,8.08,0,0,1,390.19,393.6Z" style="fill:#f5f5f5"></path><path d="M388.55,412.26l-2.48,7.61h0l2.63-7.11a5.15,5.15,0,0,0,2.45-2.74,15.85,15.85,0,0,0,1-2.63h0c-.13.38-.29.78-.49,1.25C390.47,411.25,389.39,412.4,388.55,412.26Z" style="fill:#f5f5f5"></path><polygon points="392.43 413.17 393.9 413.94 396.6 408.43 393.99 414.29 392.43 413.17" style="fill:#f5f5f5"></polygon><path d="M379.78,413.05c0-.15,0-.31,0-.48a18.62,18.62,0,0,1,1.72-6.81l-1.19-.88-.35-.26,2.59-5.82,1.55,1.14a24,24,0,0,1,3.51-5.29,5.86,5.86,0,0,1,2.11-1.53,2.56,2.56,0,0,1,1.16-.14l-.35,1,.35-1a27.79,27.79,0,0,1-3.09-1.79,2.76,2.76,0,0,0-1.16.15,5.74,5.74,0,0,0-2.11,1.53,22,22,0,0,0-3.38,5.05l-1.67-.9-2.6,5.82.35.26,1.2.88a18.5,18.5,0,0,0-1.73,6.81c0,.17,0,.32,0,.48-.06,1.68.3,2.93,1.16,3.56h0c.65.47,2.67,1.51,3.09,1.77C380.07,416,379.72,414.73,379.78,413.05Z" style="opacity:0.30000000000000004"></path><path d="M391.63,408.65c1.08-2.44,1.09-3.61.62-4a.53.53,0,0,0-.38-.09c-.26,0-.55.29-.89.73a31.11,31.11,0,0,0-2.19,3.51l-.4.69c-.33.57-.68,1.17-1,1.76-.25.42-.5.83-.75,1.22-.51.79-1,1.57-1.57,2.24l-.19.23-.11.12a3.7,3.7,0,0,1-.24.29l-.29.3,0,0-.26.26-.32.27h0l-.6,1.84,3.08,1.78,2.48-7.61C389.39,412.4,390.47,411.25,391.63,408.65Z" style="opacity:0.30000000000000004"></path><path d="M384.93,404.53c-.86,1.92-1.16,3.42-.54,3.87,1,.72,2.53-2.56,4.57-6,2.19-3.71,4.53-7,6.57-5.47-.66-.48-2.29-1.31-3.08-1.78a2,2,0,0,0-2.26,0L388.27,401C387.59,400.82,386.29,401.46,384.93,404.53Z" style="opacity:0.30000000000000004"></path><path d="M384.93,404.53c-.86,1.92-1.16,3.42-.54,3.87,1,.72,2.53-2.56,4.57-6,2.19-3.71,4.53-7,6.57-5.47-.66-.48-2.29-1.31-3.08-1.78a2,2,0,0,0-2.26,0L388.27,401C387.59,400.82,386.29,401.46,384.93,404.53Z" style="opacity:0.1"></path><polygon points="376.89 402.84 379.98 404.62 381.52 405.76 378.44 403.98 376.89 402.84" style="opacity:0.4"></polygon><path d="M379.8,412.57a18.62,18.62,0,0,1,1.72-6.81L378.44,404a18.5,18.5,0,0,0-1.73,6.81c0,.17,0,.32,0,.48-.06,1.68.3,2.93,1.16,3.56h0c.65.47,2.67,1.51,3.09,1.77-.87-.63-1.22-1.88-1.16-3.56C379.78,412.9,379.79,412.74,379.8,412.57Z" style="opacity:0.1"></path><path d="M386.6,412.51c-.51.79-1,1.57-1.57,2.24l-.19.23-.11.12a3.7,3.7,0,0,1-.24.29l-.29.3,0,0-.26.26-.32.27h0l-.6,1.84,3.08,1.78,2.48-7.61-1.33-.76C387,411.85,386.81,412.18,386.6,412.51Z" style="opacity:0.1"></path><path d="M384,436.05c9.73-4.38,18.3-17,18.3-17-5.11,8.2-11.53,14.44-18.08,17.59-6.28,3-11.86,2.8-15.75-.62C368.43,436,374.06,440.5,384,436.05Z" style="fill:#f5f5f5"></path><path d="M369.57,394c5.18-9.18,12.42-16.9,20.14-20.61,8-3.86,14.82-2.55,18.91,2.64,0,0-6.89-8.11-19-1.86S369.57,394,369.57,394Z" style="fill:#f5f5f5"></path></g><path d="M356.6,397.94c-2.75,1.78-3.3,2.55-.34,4.73a95.42,95.42,0,0,0,9.86,5.59s-7-1.54-11.38-4.69S352.49,399.13,356.6,397.94Z" style="opacity:0.15"></path></g></g><g id="Bills"><g id="bills"><path d="M279.87,394.94c-4.07,3.06-8.85,5.49-13.94,5.57a30.15,30.15,0,0,0,7.66,6.86,15.17,15.17,0,0,0,9.91,2.15c4-.64,7.37-3.23,10.09-6.19s5-6.35,7.7-9.28c2.36-2.53,5.49-4.84,8.93-4.51a38.77,38.77,0,0,0-7.63-5.16c-3.83-1.8-7.81-1.95-11.22.77C287.45,388.28,283.89,391.91,279.87,394.94Z" style="opacity:0.1"></path><path d="M310,385.38c-18.27,4.26-11.91,16.73-30.18,21l-13.14-9.43c16.71-1,12.87-15,29.48-16.51Z" style="fill:#BA68C8"></path><path d="M302.17,386.18c-9.05,5.22-9.13,12.23-18.18,17.45a8,8,0,0,0-3.55-.22l-7-4.81a1.46,1.46,0,0,0,.82-.72.8.8,0,0,0-.14-.83c11.1-3.88,7.47-10.85,18.57-14.73a4.42,4.42,0,0,0,3.53,0l6.7,2.56a1.61,1.61,0,0,0-.86.63.49.49,0,0,0,.11.64m1.3-.05c-.82-.32-.51-.95.93-1.28l-8.13-3A3.79,3.79,0,0,1,293,382c-12.22,3.7-7.91,11.24-20.13,14.94.82.55.54,1.31-.84,1.58L280,404a5.6,5.6,0,0,1,3.89.3c10.05-5.35,9.57-12.81,19.63-18.16Z" style="opacity:0.30000000000000004"></path><g style="opacity:0.30000000000000004"><path d="M284.12,390.13A5.87,5.87,0,0,1,291,388.6c2.21,1,2.67,3.62,1.23,5.83a5.21,5.21,0,0,1-6.84,1.54A3.85,3.85,0,0,1,284.12,390.13Zm7.31,3.89a3.14,3.14,0,0,0-1-4.75,4.67,4.67,0,0,0-5.51,1.27,3.15,3.15,0,0,0,1.05,4.75A4.2,4.2,0,0,0,291.43,394Z"></path></g></g><g id="bills"><path d="M167.73,311.2h-.12c.21,2.74.55,5.86,2,8.25a14.23,14.23,0,0,0,4.6,5.4,13.13,13.13,0,0,0,8.68,2.07c4.34-.44,8.23-2.76,12.23-4.5,5.71-2.48,12.1-3.83,18.18-2.51-2.25-6.95-9.71-10-16.44-10.22-2.1-.07-4.32.61-6.42.91-2.36.34-4.74.59-7.12.76a99.06,99.06,0,0,1-14.31,0Z" style="opacity:0.1"></path><path d="M213.29,316.33c-18-5.14-18.53,8.84-36.57,3.7L169.8,305.4c15.11,7.21,18.54-6.85,33.8-.11Z" style="fill:#BA68C8"></path><path d="M206.06,313.24c-10.44.16-14.08,5.91-24.53,6.08a8.09,8.09,0,0,0-3-1.92c-1.52-3-2.11-4.22-3.62-7.26a1.49,1.49,0,0,0,1.07-.23.8.8,0,0,0,.28-.79c11.59,2,11.8-5.86,23.39-3.86a4.41,4.41,0,0,0,3.06,1.74l4.62,5.49a1.65,1.65,0,0,0-1.06.13.51.51,0,0,0-.22.62m1.16.58c-.55-.68,0-1.08,1.44-.67l-5.63-6.6a3.82,3.82,0,0,1-2.94-1.48c-12.48-2.7-12.37,6-24.85,3.29.44.88-.17,1.41-1.51,1,1.71,3.47,2.39,4.87,4.09,8.34a5.73,5.73,0,0,1,3.26,2.15c11.38.21,14.76-6.2,26.14-6Z" style="opacity:0.30000000000000004"></path><g style="opacity:0.30000000000000004"><path d="M188.68,308a6.3,6.3,0,0,1,6.73,1.79c1.41,1.8.57,4-1.76,5.15a5.53,5.53,0,0,1-6.73-1.79A3.34,3.34,0,0,1,188.68,308Zm4.5,6.28c1.88-.89,2.54-2.73,1.4-4.21a5,5,0,0,0-5.43-1.41,2.73,2.73,0,0,0-1.4,4.21A4.47,4.47,0,0,0,193.18,314.27Z"></path></g></g><g id="bills"><path d="M419.18,286.13c-5.43,2.3-10.42,4.23-16.49,3.42,1.72.23,3.35,3.42,4.27,4.71,2.86,4.05,6.58,7.72,11.84,7.88a20,20,0,0,0,9.61-2.52c3-1.53,5.74-3.46,8.62-5.17,4-2.38,9.14-4.92,13.87-3-.42-.17-1.24-2.38-1.54-2.84a18.75,18.75,0,0,0-2.28-2.82,20.14,20.14,0,0,0-5.64-4.08c-1.86-.9-4.14-1.95-6.25-1.89-2.3.06-4.7,1.28-6.78,2.16C425.3,283.28,422.29,284.81,419.18,286.13Z" style="opacity:0.1"></path><path d="M450.88,285.73c-19.7-.91-14.5,13.95-34.2,13-4.95-5.68-7.42-8.52-12.36-14.21,17.57,2.18,15.3-10.62,32.88-8.45Z" style="fill:#BA68C8"></path><g style="opacity:0.30000000000000004"><path d="M443.22,284.49c-10.31,2.56-13,10.6-23.08,12.14a9.58,9.58,0,0,0-3.39-1.33c-2.34-2.86-4.13-4.55-6.47-7.41a1.34,1.34,0,0,0,.88-.51,1,1,0,0,0,.09-.88c11.88-.52,10.74-8.6,22.62-9.12a13.21,13.21,0,0,0,3.4,1c2.55,2,4.37,2.95,6.92,5a1.46,1.46,0,0,0-.9.41.64.64,0,0,0-.07.69m1.73.5c-.76-.61-.31-1.18,1.22-1.05-3.05-2.39-5.11-3.48-8.17-5.87a8.73,8.73,0,0,1-3.87-1.28c-13.26-.18-11.26,9.1-24.52,8.92.71.86.26,1.57-1.21,1.39,2.76,3.41,4.75,5.38,7.51,8.78a6.21,6.21,0,0,1,3.88,1.62c11.92-1.07,13.48-10.16,25.16-12.51Z"></path></g><g style="opacity:0.30000000000000004"><path d="M430.43,289.18c-1.48,1.51-4.19,1.29-5.93-.4s-1.88-4.06-.39-5.38,4.19-1.09,5.93.41a3.61,3.61,0,0,1,.39,5.37m.73.68a4.4,4.4,0,0,0-.42-6.59c-2.14-1.82-5.53-2.13-7.37-.54s-1.73,4.47.42,6.58,5.55,2.44,7.37.55Z"></path></g></g></g><g id="Character"><g id="character"><g id="Waves"><path d="M295.51,290.54s-7.17,4.55-4.35,12.32c0,0-4.54-3.8-2.12-8.51A7.3,7.3,0,0,1,295.51,290.54Z" style="opacity:0.15"></path><path d="M373,305.74s1.92,8.48-7.52,10.78c0,0,6.21.11,8.62-3.69C376,309.89,373,305.74,373,305.74Z" style="opacity:0.15"></path><path d="M336.07,285.26s25.72-3.31,40.61,9.05,7.57,22.42,7.57,22.42,11.67-13.1-4.81-24.75C357.17,276.24,336.07,285.26,336.07,285.26Z" style="opacity:0.15"></path><path d="M281.26,301.39s-6.44,12.32,13.14,21.17c17.81,8.06,38.16,3.43,38.16,3.43s-16,9.19-38.83-.41C271.37,316.19,281.26,301.39,281.26,301.39Z" style="opacity:0.15"></path></g><path d="M285.51,146.15c3.09-7,2.34-10.54-7.08-8.05-5.91,1.56-10.66,5.76-11.54,20-.26,4.08-.1,8.8,0,18.35a238.78,238.78,0,0,0,2.18,31.06,33.52,33.52,0,0,0,3.53,11.69c10.74,20.43,25.77,34.07,33,47.25,9.09-.61,21.72-15.58,15-24.95-7.73-3.27-29.05-26.79-32-38-1.37-5.17-2.84-10.33-4.08-15.54-.7-2.95-1.34-5.92-1.84-8.92s-1.45-6.08-.27-8.87a33.76,33.76,0,0,1,2.76-4.62,25.52,25.52,0,0,0,2.69-5.41,52.22,52.22,0,0,1,1.85-5.36c.35-.79.73-1.58,1.14-2.35.32-.6.8-1.28.48-2-.57-1.32-3.1-.43-3.91.22a17.13,17.13,0,0,0-3.23,4.18c-.22.32-.59.68-.94.5s-.29-.55-.25-.87A19.55,19.55,0,0,1,284.1,150C284.6,148.73,284.94,147.42,285.51,146.15Z" style="fill:#ffa8a7"></path><path d="M284.88,189.63s3.37,11.64,4.6,15.34,8.31,14.49,19.52,26.33c8.54,9,13.47,9.72,13.47,9.72l-17,29.17c-.42-4.83-16.84-24.85-23.9-34.77s-11.76-18.35-12.94-26a138.24,138.24,0,0,1-1.28-17.63S276.74,193.82,284.88,189.63Z" style="fill:#f5f5f5"></path><path d="M341,242c8.2,1.25,17.58,1.9,23.33,2.69,6.28.85,8.52,6,8.52,16.73,0,15.82-8.09,42.19-8.09,42.19,0,7.6-54.47,12.8-59.44-3.55,0,0-.26-23.35.25-32.39.89-15.91,10.09-26.09,16-26.54C321.5,241.17,326.87,239.9,341,242Z" style="fill:#fff"></path><path d="M357.19,195.35s4.29,1.49,5.25,5.14c.83,3.17-1.07,10-4.46,17.28s-6.07,11.46-7.59,13.35a5.92,5.92,0,0,1-3.9,2l2-9,1.57-6.22s-2.93-6.32-2.48-10.92c.59-5.93,2.28-8.06,2.28-8.06Z" style="fill:#263238"></path><path d="M358,196.66l6.78-1.6a3.72,3.72,0,0,0-4.32-2.87A3.56,3.56,0,0,0,358,196.66Z" style="fill:#263238"></path><path d="M348.33,202.67a17.18,17.18,0,1,1-13.43-20.25A17.17,17.17,0,0,1,348.33,202.67Z" style="fill:#263238"></path><path d="M350.05,216.89c1.25,1.62,3.16-1.54,4.7-2.62s6.06-2.05,7.25,2.74-4,10.28-7.39,10.94c-4.18.81-6.27-3-6.27-3l-.16,17.27c-6.51,7.68-15.9,10.88-18.19,14.53-.2-3.68-7.2-12.07-3.14-15.21L327,234s-5.26-.26-7.67-1.14c-4-1.48-5.56-5-5.91-9.77-.56-7.61,1.05-19.89,6.61-33.33,5.35-2.67,21.32,1.13,29.82,9.24C346.7,211.23,348.79,215.27,350.05,216.89Z" style="fill:#ffa8a7"></path><path d="M319.72,179.34a.79.79,0,0,1,.7-.34,1,1,0,0,1,.51.36,28.74,28.74,0,0,0,3.2,3.22,13.43,13.43,0,0,1,.94-5.05c.38-1,1.14-3.29,2.46-3.29.78,0,1.31.76,1.77,1.39,4.12,5.75,11.16,4.87,17.23,6.28,5.06,1.18,10.81,4.48,12.12,9.9.61,2.48.31,4.91-2.08,6.06a14.69,14.69,0,0,1-6.69,1.09c-10.51-.26-25.91,1-31.54-10a7.61,7.61,0,0,1-.58-5.28,10.46,10.46,0,0,1,1.92-4.33Z" style="fill:#263238"></path><path d="M327,234s9.61,0,13.19-1.05a10.83,10.83,0,0,0,5.36-3.52,14.87,14.87,0,0,1-3.59,4.7c-3,2.54-15,2.34-15,2.34Z" style="fill:#f28f8f"></path><path d="M333.9,210.76a1.89,1.89,0,1,0,2.24-1.56A1.94,1.94,0,0,0,333.9,210.76Z" style="fill:#263238"></path><path d="M341.64,207l-3-3.51a2.43,2.43,0,0,0-.24,3.35A2.25,2.25,0,0,0,341.64,207Z" style="fill:#263238"></path><path d="M323,199.59l-4.34,1.67a2.23,2.23,0,0,0,2.93,1.38A2.43,2.43,0,0,0,323,199.59Z" style="fill:#263238"></path><path d="M318.73,207.1a1.91,1.91,0,0,0,1.46,2.29,2,2,0,1,0-1.46-2.29Z" style="fill:#263238"></path><polygon points="327.99 208.47 325.27 218.92 319.86 215.76 327.99 208.47" style="fill:#f28f8f"></polygon><path d="M328.51,225.62c3.25-.5,4.34,0,4-1.38a4.66,4.66,0,0,0-5.18-2.88,3.89,3.89,0,0,0-3.14,4.12C324.38,227,325.59,226.08,328.51,225.62Z" style="fill:#b16668"></path><path d="M328.51,225.62c2.79-.43,4-.12,4-.91a2.09,2.09,0,0,0-.06-.47h0a2.74,2.74,0,0,0-.19-.49c-.05-.08-.1-.17-.16-.25a2.39,2.39,0,0,0-.13-.21,3.21,3.21,0,0,0-3.67,1.79,2.9,2.9,0,0,0-.18.62Z" style="fill:#f28f8f"></path><path d="M339.74,253.94c-5.6,5.54-7.45,6.6-9.95,6.73s-6.77-5.8-6.49-9l-1.56,2.51s1.47,8.57,7.33,9.75,13.61-8.33,13.61-8.33Z" style="fill:#37474f"></path><path d="M333,260.88c0,2,.76,2.26.76,2.26s-2.29,3.6-4.41,4.07c0,0-1.36-2.06-4.31-.81a6.22,6.22,0,0,1-.43-5.5,4.91,4.91,0,0,1,2.26-2.32c1.87-.63,4-.12,6.49.93A1.89,1.89,0,0,0,333,260.88Z" style="fill:#455a64"></path><path d="M329.31,267.21c-.32,5.42,0,26.83,1,35.5.77,7-1.5,9.38-10.06,16.23-1.23,1-9.08,1.78-15,1.37-2.3-.15-5.21-1-3.59-3.58s4.47-7.42,5.45-7.84c2.89-1.27,8.73-3.95,10.65-6.23s3.88-28.16,7.26-36.26S329.31,267.21,329.31,267.21Z" style="fill:#455a64"></path><path d="M348.23,236.77c1.2.09,1.81.27,2.79,2.22,1.11,2.22,2.07,4.24,2.07,4.24a23.91,23.91,0,0,1-4,8.61,33,33,0,0,1-7.37,7.52A48.67,48.67,0,0,0,337.5,255a4.33,4.33,0,0,0-5.22-.54,21,21,0,0,1,2.64-4c.73-.77,3.7-1.67,7.76-4.22a14.61,14.61,0,0,0,5.53-7Z" style="fill:#f0f0f0"></path><path d="M329.07,253.75c0-2.18-1.36-3.81-1.72-4.52-1.05-2-.49-3.62-.5-5.33s.07-5.55.07-5.55a3.42,3.42,0,0,0-3.32,2.56c-.86,2.14-2.67,4.77-2.67,9.59,0,4.34.4,5.13.4,5.13a27.75,27.75,0,0,1,4.12-3.09A2.44,2.44,0,0,1,329.07,253.75Z" style="fill:#f0f0f0"></path><path d="M394.54,163.48a38.39,38.39,0,0,0-2.66-11.43c-3.1-7-2.34-10.54,7.08-8.05,5.9,1.55,11,6.17,11.93,20.36a149.55,149.55,0,0,1-.09,18c-1,10.92-2.37,20.92-3.72,30a59.22,59.22,0,0,1-4.24,14.29c-13,26.42-22.67,33.82-31.51,50.4-10.4-1.22-11.4-25.35-9.06-31.48,0,0,21.48-21.18,25.11-32.16,3.34-10.12,8.16-27.79,7.91-36.26" style="fill:#ffa8a7"></path><path d="M361.33,244.36c6.79-4.84,17.92-19.77,21-23.2s9.78-24.07,9.78-24.07,6.68,4.16,17,1.12a118.28,118.28,0,0,1-1.15,16c-1.27,9.57-4.72,16.12-11.61,27.9s-25.71,38.08-25.71,38.08A21.85,21.85,0,0,1,359.85,263C359,250.85,361.33,244.36,361.33,244.36Z" style="fill:#f5f5f5"></path><path d="M377.64,72.64c5.26-3,12.18-3,20,.8,18.46,8.88,34.86,35.2,36.64,58.78,1,13.35-2.89,23-9.81,27.17-1.78,1.09-8.64,5-10.28,6-5.29,3.14-12.31,3.16-20.24-.65-18.46-8.88-34.86-35.2-36.64-58.78-1-13.56,3-23.26,10.14-27.37C369.12,77.58,375.9,73.63,377.64,72.64Z" style="fill:#BA68C8"></path><path d="M377.64,72.64c5.26-3,12.18-3,20,.8,18.46,8.88,34.86,35.2,36.64,58.78,1,13.35-2.89,23-9.81,27.17-1.78,1.09-8.64,5-10.28,6-5.29,3.14-12.31,3.16-20.24-.65-18.46-8.88-34.86-35.2-36.64-58.78-1-13.56,3-23.26,10.14-27.37C369.12,77.58,375.9,73.63,377.64,72.64Z" style="opacity:0.25"></path><path d="M360.05,120.34l55.6-32.1c10.09,12.11,17.45,28.62,18.61,44,1,13.35-2.89,23-9.81,27.17-1.78,1.09-8.64,5-10.28,6-5.29,3.14-12.31,3.16-20.24-.65C379.19,157.61,365.77,139.4,360.05,120.34Z" style="opacity:0.1"></path><path d="M431.19,116.79a69.27,69.27,0,0,1,3.07,15.43c1,13.35-2.89,23-9.81,27.17-1.78,1.09-8.64,5-10.28,6-5.29,3.14-12.31,3.16-20.24-.65-6.7-3.23-13.13-8.76-18.68-15.61Z" style="opacity:0.1"></path><path d="M357.29,105.92c1.78,23.58,18.18,49.9,36.64,58.78s32-3,30.2-26.63S406,88.17,387.49,79.29,355.51,82.33,357.29,105.92Z" style="fill:#BA68C8"></path><path d="M357.29,105.92c1.78,23.58,18.18,49.9,36.64,58.78s32-3,30.2-26.63S406,88.17,387.49,79.29,355.51,82.33,357.29,105.92Z" style="opacity:0.2"></path><path d="M369.21,111.29a56.21,56.21,0,0,0,8.29,22.35c4.49,7.2,10,12.86,15.57,15.93,5.87,3.26,11.14,3.25,14.83,0s5.22-9.25,4.31-16.88a56.14,56.14,0,0,0-8.28-22.34c-4.5-7.21-10-12.87-15.58-15.94-5.87-3.24-11.13-3.24-14.82,0S368.3,103.67,369.21,111.29Z" style="fill:#BA68C8"></path><path d="M369.21,111.29a56.21,56.21,0,0,0,8.29,22.35c4.49,7.2,10,12.86,15.57,15.93,5.87,3.26,11.14,3.25,14.83,0s5.22-9.25,4.31-16.88a56.14,56.14,0,0,0-8.28-22.34c-4.5-7.21-10-12.87-15.58-15.94-5.87-3.24-11.13-3.24-14.82,0S368.3,103.67,369.21,111.29Z" style="opacity:0.4"></path><path d="M359.25,105.59c.83,11,5,23,11.71,33.82s15.18,19,23.8,23.15c8.27,4,15.62,3.69,20.73-.82S423,149,422.18,138.39c-.84-11-5-23-11.72-33.8s-15.18-19-23.8-23.17c-8.26-4-15.62-3.68-20.73.82S358.46,95,359.25,105.59Zm29.1-11.18c5.56,3.07,11.08,8.73,15.58,15.94a56.14,56.14,0,0,1,8.28,22.34c.91,7.63-.62,13.62-4.31,16.88s-9,3.26-14.83,0c-5.55-3.07-11.08-8.73-15.57-15.93a56.21,56.21,0,0,1-8.29-22.35c-.91-7.62.63-13.62,4.32-16.87S382.48,91.17,388.35,94.41Z" style="fill:#BA68C8"></path><ellipse cx="390.71" cy="121.99" rx="15.62" ry="30.95" transform="translate(-10.68 202.14) rotate(-28.63)" style="opacity:0.2"></ellipse><ellipse cx="390.71" cy="121.99" rx="15.62" ry="30.95" transform="translate(-10.68 202.14) rotate(-28.63)" style="fill:#BA68C8"></ellipse><ellipse cx="390.71" cy="121.99" rx="15.62" ry="30.95" transform="translate(-10.68 202.14) rotate(-28.63)" style="opacity:0.6000000000000001"></ellipse><path d="M373.91,108.16c1.7,14.32,12,30.88,23,37,4.56,2.53,8.53,2.86,11.49,1.38,2.05-2.95,2.94-7.55,2.23-13.47-1.7-14.32-12-30.88-23-37-4.56-2.52-8.52-2.86-11.49-1.38C374.09,97.64,373.21,102.24,373.91,108.16Z" style="fill:#BA68C8"></path><path d="M373.91,108.16c1.7,14.32,12,30.88,23,37,4.56,2.53,8.53,2.86,11.49,1.38,2.05-2.95,2.94-7.55,2.23-13.47-1.7-14.32-12-30.88-23-37-4.56-2.52-8.52-2.86-11.49-1.38C374.09,97.64,373.21,102.24,373.91,108.16Z" style="opacity:0.5"></path><path d="M402.86,131.81c-.18-4.78-2.66-8.12-5.59-10.89l1.4.36,4.06-2.34a18.68,18.68,0,0,0-.72-2.6,18.14,18.14,0,0,0-2.12-4,21.59,21.59,0,0,0-5.2-5.17l-.16-4.21-5-2.91-4.07,2.35,0,1.07v.23a4.77,4.77,0,0,0-1,.45l-.31.22c-.47.34-2.81,1.56-3.75,2.13-.12.07-.21.14-.31.21-1.07.79-1.65,2.3-1.56,4.65h0a13.17,13.17,0,0,0,2,6.5l.31.47,0,0,.34.49.32.42a1.83,1.83,0,0,1,.13.16,2.6,2.6,0,0,0,.25.31,27.21,27.21,0,0,0,2.25,2.4c.35.33.71.66,1.07,1l-1.85-.46L379.38,125A19.41,19.41,0,0,0,387,136l.17,4.2,5.07,2.81,4.06-2.35-.05-1.31a3.15,3.15,0,0,0,.82-.34l0,0c.61-.4,3.33-1.89,4-2.33l0,0C402.35,135.87,403,134.3,402.86,131.81Z" style="fill:#BA68C8"></path><path d="M402.86,131.81c-.18-4.78-2.66-8.12-5.59-10.89l1.4.36,4.06-2.34a18.68,18.68,0,0,0-.72-2.6,18.14,18.14,0,0,0-2.12-4,21.59,21.59,0,0,0-5.2-5.17l-.16-4.21-5-2.91-4.07,2.35,0,1.07v.23a4.77,4.77,0,0,0-1,.45l-.31.22c-.47.34-2.81,1.56-3.75,2.13-.12.07-.21.14-.31.21-1.07.79-1.65,2.3-1.56,4.65h0a13.17,13.17,0,0,0,2,6.5l.31.47,0,0,.34.49.32.42a1.83,1.83,0,0,1,.13.16,2.6,2.6,0,0,0,.25.31,27.21,27.21,0,0,0,2.25,2.4c.35.33.71.66,1.07,1l-1.85-.46L379.38,125A19.41,19.41,0,0,0,387,136l.17,4.2,5.07,2.81,4.06-2.35-.05-1.31a3.15,3.15,0,0,0,.82-.34l0,0c.61-.4,3.33-1.89,4-2.33l0,0C402.35,135.87,403,134.3,402.86,131.81Z" style="opacity:0.30000000000000004"></path><polygon points="392.27 142.99 392.11 138.79 396.28 139.33 396.33 140.65 392.27 142.99" style="opacity:0.1"></polygon><polygon points="389.51 124.17 385.45 126.51 379.38 124.99 383.44 122.65 389.51 124.17" style="opacity:0.1"></polygon><polygon points="390.47 105.28 394.53 102.93 394.69 107.14 390.63 109.48 390.47 105.28" style="opacity:0.1"></polygon><path d="M385.48,103.44l.11,3.25a4.84,4.84,0,0,0-5.16-.22c-.12.07-.21.14-.31.21-1.07.79-1.65,2.3-1.56,4.65h0a13.17,13.17,0,0,0,2,6.5l.31.47,0,0,.34.49.32.42a1.83,1.83,0,0,1,.13.16,2.6,2.6,0,0,0,.25.31,27.21,27.21,0,0,0,2.25,2.4c.38.36.77.72,1.17,1.06.56.5,1.13,1,1.66,1.43l.65.53a25.6,25.6,0,0,1,3.38,3.13,4.63,4.63,0,0,1,.94,1.65,3.69,3.69,0,0,1,.15.94c.05,1.27-.68,1.9-2.79.74a7.47,7.47,0,0,1-3.93-5.11L379.38,125A19.41,19.41,0,0,0,387,136l.17,4.2,5.07,2.81-.16-4.2c2.11.83,3.83.92,5,.2l0,0c1.16-.76,1.76-2.33,1.67-4.82-.21-5.53-3.51-9.14-7-12.16-3.27-2.8-6.15-4.54-6.25-7.23-.06-1.67,1-1.81,2.69-.89a8.28,8.28,0,0,1,4,5.76l6.4,1.65a16.94,16.94,0,0,0-.73-2.59,17.3,17.3,0,0,0-2.11-4,21.82,21.82,0,0,0-5.2-5.18l-.16-4.21-5-2.9Z" style="fill:#BA68C8"></path><polygon points="385.44 102.37 390.01 105.52 390.63 109.48 390.47 105.28 385.44 102.37" style="fill:#fafafa"></polygon><path d="M380.59,117.84l.31.47,0,0,.34.49.32.42a1.83,1.83,0,0,1,.13.16,2.6,2.6,0,0,0,.25.31c.16.2.33.38.5.57-4-4.84-3.9-11.17-2.32-12.78,2.14-2.21,5.44-.84,5.44-.84a4.84,4.84,0,0,0-5.16-.22c-.12.07-.21.14-.31.21-1.07.79-1.65,2.3-1.56,4.65h0A13.17,13.17,0,0,0,380.59,117.84Z" style="fill:#fafafa"></path><path d="M391.59,132.16c.47-.1,1.41-.89.7-2.59s-1.75-2.35-4-3.91h0a20.93,20.93,0,0,1,2.78,2.62,4.63,4.63,0,0,1,.94,1.65,3.69,3.69,0,0,1,.15.94C392.2,131.51,392,132,391.59,132.16Z" style="fill:#fafafa"></path><polygon points="387.03 135.98 387.61 139.92 392.27 142.99 387.2 140.18 387.03 135.98" style="fill:#fafafa"></polygon><path d="M380.1,125.66l5.35.85L379.38,125a18.36,18.36,0,0,0,3.58,7.12A15.35,15.35,0,0,1,380.1,125.66Z" style="fill:#fafafa"></path><path d="M383.25,132.47l-.15-.17Z" style="fill:#fafafa"></path><path d="M395.06,161.8C382.25,156,371,139.41,371,139.41c6.73,10.79,15.18,19,23.8,23.15,8.27,4,15.62,3.69,20.73-.82C415.49,161.74,408.09,167.66,395.06,161.8Z" style="fill:#f5f5f5"></path><path d="M414,106.43c-6.82-12.09-16.35-22.25-26.51-27.14-10.56-5.08-19.51-3.35-24.89,3.48,0,0,9.06-10.68,24.95-2.44S414,106.43,414,106.43Z" style="fill:#f5f5f5"></path><path d="M395.21,179.72c.17-1.4-2.43-5.12-3.22-6.29-2.3-3.39-2.53-6.64-3.79-10.19-1-2.76-2.35-4-1.84-4.46.67-.65,2.57-1.35,4.53.36,1,.86,3,4.29,4.32,6.28C397.4,168.12,395.21,179.72,395.21,179.72Z" style="fill:#ffa8a7"></path></g></g></svg>