<svg xmlns="http://www.w3.org/2000/svg" viewBox="0 0 500 500"><g id="Floor"><path id="floor" d="M97.35,286.47c-82.64,47.72-82.64,125.08,0,172.8S314,507,396.64,459.27s82.65-125.08,0-172.8S180,238.76,97.35,286.47Z" style="fill:#f5f5f5"></path></g><g id="Plants"><g id="plants"><path d="M453.41,339.25c-2.07,3.63-5.17,8.63-8.08,14.05-4.37,8.1-8.31,17.11-7.71,23.76l0,.68h0L437.08,388l-.07,1.39-2.42-1.4-5.94-3.43a87.77,87.77,0,0,1-.14-33.39c2.33-13.37,11.68-28.05,19.57-28.85C455.44,321.54,458.58,330.19,453.41,339.25Z" style="fill:#BA68C8"></path><path d="M453.41,339.25c-2.07,3.63-5.17,8.63-8.08,14.05-4.37,8.1-8.31,17.11-7.71,23.76l0,.68h0L437.08,388l-.07,1.39-2.42-1.4-5.94-3.43a87.77,87.77,0,0,1-.14-33.39c2.33-13.37,11.68-28.05,19.57-28.85C455.44,321.54,458.58,330.19,453.41,339.25Z" style="fill:#fff;opacity:0.25"></path><path d="M431.93,384.14a.46.46,0,0,0,.28-.49c-3.08-24.75,7.11-47.57,17.47-55.83a.49.49,0,0,0,.07-.67.46.46,0,0,0-.66-.07c-10.53,8.39-20.95,31.59-17.82,56.69a.48.48,0,0,0,.53.41Z" style="fill:#fff"></path><path d="M462.48,354.91c-.82,4.8-9.53,10.44-15.29,18.21-5.19,7-7.46,14.13-7.27,17.91h0l-2.9-1.67-2.42-1.4c-1.32-17.55,3.93-29,10.74-34.66a19.49,19.49,0,0,1,5.19-3.16C458.16,347.08,463.46,349.16,462.48,354.91Z" style="fill:#BA68C8"></path><path d="M462.48,354.91c-.82,4.8-9.53,10.44-15.29,18.21-5.19,7-7.46,14.13-7.27,17.91h0l-2.9-1.67-2.42-1.4c-1.32-17.55,3.93-29,10.74-34.66a19.49,19.49,0,0,1,5.19-3.16C458.16,347.08,463.46,349.16,462.48,354.91Z" style="fill:#fff;opacity:0.6000000000000001"></path><path d="M437.19,387.93a.47.47,0,0,0,.28-.43c.3-20.11,11.83-31.07,17.88-34.05a.47.47,0,0,0,.21-.63.46.46,0,0,0-.63-.22c-6.69,3.3-18.1,14.36-18.4,34.89a.46.46,0,0,0,.46.48A.45.45,0,0,0,437.19,387.93Z" style="fill:#fff"></path></g><g id="plants"><path d="M42.11,339.25c2.07,3.63,5.17,8.63,8.08,14.05,4.37,8.1,8.3,17.11,7.71,23.76l0,.68h0L58.44,388l.07,1.39,2.42-1.4,5.94-3.43A87.77,87.77,0,0,0,67,351.14c-2.33-13.37-11.69-28.05-19.58-28.85C40.08,321.54,36.94,330.19,42.11,339.25Z" style="fill:#BA68C8"></path><path d="M42.11,339.25c2.07,3.63,5.17,8.63,8.08,14.05,4.37,8.1,8.3,17.11,7.71,23.76l0,.68h0L58.44,388l.07,1.39,2.42-1.4,5.94-3.43A87.77,87.77,0,0,0,67,351.14c-2.33-13.37-11.69-28.05-19.58-28.85C40.08,321.54,36.94,330.19,42.11,339.25Z" style="fill:#fff;opacity:0.25"></path><path d="M63.59,384.14a.48.48,0,0,1-.29-.49c3.09-24.75-7.1-47.57-17.46-55.83a.48.48,0,0,1-.07-.67.46.46,0,0,1,.66-.07c10.53,8.39,20.94,31.59,17.81,56.69a.46.46,0,0,1-.52.41Z" style="fill:#fff"></path><path d="M33,354.91c.82,4.8,9.53,10.44,15.28,18.21,5.2,7,7.47,14.13,7.28,17.91h0l2.9-1.67,2.42-1.4c1.32-17.55-3.94-29-10.74-34.66A19.49,19.49,0,0,0,45,350.14C37.36,347.08,32.06,349.16,33,354.91Z" style="fill:#BA68C8"></path><path d="M33,354.91c.82,4.8,9.53,10.44,15.28,18.21,5.2,7,7.47,14.13,7.28,17.91h0l2.9-1.67,2.42-1.4c1.32-17.55-3.94-29-10.74-34.66A19.49,19.49,0,0,0,45,350.14C37.36,347.08,32.06,349.16,33,354.91Z" style="fill:#fff;opacity:0.6000000000000001"></path><path d="M58.33,387.93a.47.47,0,0,1-.29-.43c-.29-20.11-11.82-31.07-17.87-34.05a.48.48,0,0,1-.22-.63.47.47,0,0,1,.64-.22c6.69,3.3,18.1,14.36,18.4,34.89a.47.47,0,0,1-.47.48A.43.43,0,0,1,58.33,387.93Z" style="fill:#fff"></path></g></g><g id="Shadows"><ellipse id="Shadow" cx="239.88" cy="446.98" rx="72.37" ry="41.78" style="fill:#e0e0e0"></ellipse><ellipse id="shadow" cx="110.88" cy="410.09" rx="64.65" ry="37.33" style="fill:#e0e0e0"></ellipse><ellipse id="shadow" cx="388.34" cy="410.09" rx="64.65" ry="37.33" style="fill:#e0e0e0"></ellipse></g><g id="Sparkles"><g id="Shine"><path d="M29.66,215.67h0a.61.61,0,0,1-.82-.16l-.35-.48h0a3.12,3.12,0,0,0-4-.95l-.53.28a.62.62,0,0,1-.64-1.05l.48-.35a3.11,3.11,0,0,0,1-4l-.28-.53a.63.63,0,0,1,.23-.8.61.61,0,0,1,.82.16l.35.48a3.09,3.09,0,0,0,4,.94l.53-.27a.61.61,0,0,1,.64,1l-.48.35a3.11,3.11,0,0,0-.94,4l.27.53A.63.63,0,0,1,29.66,215.67Zm-3.84-3.16A4.42,4.42,0,0,1,28,213a4.2,4.2,0,0,1,.52-2.19,4.17,4.17,0,0,1-2.19-.52A4.37,4.37,0,0,1,25.82,212.51Z" style="fill:#BA68C8"></path><path d="M55,248.29a3.94,3.94,0,1,1,1.74-3.14A4,4,0,0,1,55,248.29Zm-3.7-5.53a3,3,0,0,0-.35.27,2.72,2.72,0,0,0-.13,3.84,2.78,2.78,0,0,0,1.89.86,2.72,2.72,0,0,0,.19-5.43A2.65,2.65,0,0,0,51.29,242.76Z" style="fill:#BA68C8"></path><path d="M32.59,241.65h0L31,243a.62.62,0,0,1-.86-.09.61.61,0,0,1,.09-.86l1.59-1.29a.61.61,0,0,1,.79.94Z" style="fill:#BA68C8"></path><path d="M35.6,243.43h0a.62.62,0,0,1-.86-.09l-1.29-1.6a.61.61,0,0,1,1-.77l1.29,1.59A.61.61,0,0,1,35.6,243.43Z" style="fill:#BA68C8"></path><path d="M36.18,238.75h0L34.58,240a.61.61,0,0,1-.87-.09.64.64,0,0,1,.09-.86l1.6-1.29a.61.61,0,0,1,.78.95Z" style="fill:#BA68C8"></path><path d="M32.69,239.84h0a.6.6,0,0,1-.86-.09l-1.29-1.59a.62.62,0,1,1,1-.78l1.28,1.6A.61.61,0,0,1,32.69,239.84Z" style="fill:#BA68C8"></path></g><g id="shine"><path d="M463.33,177.22h0a.61.61,0,0,1,.68.48l.13.58h0a3.1,3.1,0,0,0,3.24,2.46l.59,0a.61.61,0,0,1,.65.53.62.62,0,0,1-.48.68l-.58.13a3.09,3.09,0,0,0-2.47,3.24l0,.59a.61.61,0,0,1-1.21.17l-.12-.59a3.11,3.11,0,0,0-3.25-2.46l-.59,0a.62.62,0,0,1-.65-.53.61.61,0,0,1,.48-.68l.59-.13a3.09,3.09,0,0,0,2.46-3.24l0-.59A.6.6,0,0,1,463.33,177.22Zm2.23,4.44a4.25,4.25,0,0,1-1.79-1.37,4.25,4.25,0,0,1-1.37,1.79,4.34,4.34,0,0,1,1.8,1.37A4.15,4.15,0,0,1,465.56,181.66Z" style="fill:#BA68C8"></path><path d="M443.78,140.14a3.95,3.95,0,1,1-2.87,2.17A3.93,3.93,0,0,1,443.78,140.14Zm1.14,6.56a3.25,3.25,0,0,0,.42-.11,2.72,2.72,0,0,0,.3-5,2.72,2.72,0,0,0-2.37,4.89A2.69,2.69,0,0,0,444.92,146.7Z" style="fill:#BA68C8"></path><path d="M465.33,154.52h0l2-.31a.6.6,0,0,1,.7.51.62.62,0,0,1-.51.7l-2,.32a.62.62,0,0,1-.7-.51A.61.61,0,0,1,465.33,154.52Z" style="fill:#BA68C8"></path><path d="M463.61,151.47h0a.61.61,0,0,1,.71.51l.31,2a.63.63,0,0,1-.51.71.62.62,0,0,1-.7-.52l-.32-2A.62.62,0,0,1,463.61,151.47Z" style="fill:#BA68C8"></path><path d="M460.76,155.23h0l2-.32a.61.61,0,0,1,.7.51.63.63,0,0,1-.51.71l-2,.31a.61.61,0,0,1-.2-1.21Z" style="fill:#BA68C8"></path><path d="M464.33,156h0a.62.62,0,0,1,.7.52l.32,2a.62.62,0,0,1-1.22.19l-.31-2A.61.61,0,0,1,464.33,156Z" style="fill:#BA68C8"></path></g><g id="shine"><path d="M186.34,127.8v0a.63.63,0,0,1,.76-.35l.56.19h0a3.11,3.11,0,0,0,3.76-1.56l.27-.53a.6.6,0,0,1,.78-.29.61.61,0,0,1,.35.76l-.19.56a3.12,3.12,0,0,0,1.56,3.76l.54.27a.65.65,0,0,1,.29.79.63.63,0,0,1-.76.35l-.57-.19a3.11,3.11,0,0,0-3.76,1.56l-.27.53a.61.61,0,0,1-1.13-.47l.18-.56a3.1,3.1,0,0,0-1.56-3.76l-.53-.27A.61.61,0,0,1,186.34,127.8Zm5,.3a4.27,4.27,0,0,1-2.08.86,4.21,4.21,0,0,1,.86,2.08,4.34,4.34,0,0,1,2.08-.86A4.4,4.4,0,0,1,191.3,128.1Z" style="fill:#BA68C8"></path><path d="M162.75,109.35a3.91,3.91,0,0,1,1.49-1.91,4,4,0,1,1-1.49,1.91Zm6.24,2.31a3,3,0,0,0,.12-.43,2.7,2.7,0,0,0-.42-2,2.71,2.71,0,0,0-3.76-.74,2.71,2.71,0,1,0,3,4.5A2.69,2.69,0,0,0,169,111.66Z" style="fill:#BA68C8"></path><path d="M165.54,78.77h0l.74-1.92a.62.62,0,0,1,1.15.45l-.75,1.91a.61.61,0,0,1-1.14-.43Z" style="fill:#BA68C8"></path><path d="M162,78.72h0a.61.61,0,0,1,.8-.35l1.91.74a.64.64,0,0,1,.35.8.63.63,0,0,1-.8.35l-1.91-.75A.61.61,0,0,1,162,78.72Z" style="fill:#BA68C8"></path><path d="M163.86,83.07h0l.75-1.91a.62.62,0,0,1,.79-.35.63.63,0,0,1,.35.8L165,83.51a.61.61,0,0,1-1.14-.44Z" style="fill:#BA68C8"></path><path d="M166.35,80.4h0a.6.6,0,0,1,.79-.35l1.92.74a.62.62,0,0,1-.45,1.15l-1.91-.75A.61.61,0,0,1,166.35,80.4Z" style="fill:#BA68C8"></path></g><g id="shine"><path d="M319.9,56.7l0,0a.62.62,0,0,1-.83-.13l-.37-.46h0a3.11,3.11,0,0,0-4-.77l-.52.3a.61.61,0,0,1-.69-1l.46-.37a3.11,3.11,0,0,0,.77-4l-.3-.52a.63.63,0,0,1,.19-.82.61.61,0,0,1,.82.13l.37.46a3.12,3.12,0,0,0,4,.77l.51-.3a.62.62,0,0,1,.82.19A.61.61,0,0,1,321,51l-.46.37a3.11,3.11,0,0,0-.76,4l.29.51A.61.61,0,0,1,319.9,56.7Zm-4-3a4.23,4.23,0,0,1,2.21.42,4.19,4.19,0,0,1,.42-2.21,4.32,4.32,0,0,1-2.21-.43A4.46,4.46,0,0,1,315.92,53.73Z" style="fill:#BA68C8"></path><path d="M329.49,85.07A3.94,3.94,0,0,1,323.21,82a3.94,3.94,0,1,1,6.28,3.12Zm-3.95-5.35a3,3,0,0,0-.33.29,2.66,2.66,0,0,0-.77,1.92,2.71,2.71,0,0,0,.81,1.91,2.71,2.71,0,1,0,1.87-4.65A2.7,2.7,0,0,0,325.54,79.72Z" style="fill:#BA68C8"></path><path d="M310.37,109.11h0l-1.67,1.19a.61.61,0,0,1-.71-1l1.67-1.19a.62.62,0,0,1,.72,1Z" style="fill:#BA68C8"></path><path d="M313.27,111.07h0a.61.61,0,0,1-.86-.14l-1.18-1.67a.62.62,0,0,1,.14-.86.61.61,0,0,1,.86.15l1.19,1.67A.62.62,0,0,1,313.27,111.07Z" style="fill:#BA68C8"></path><path d="M314.14,106.43h0l-1.67,1.19a.62.62,0,0,1-.86-.14.64.64,0,0,1,.15-.86l1.67-1.19a.62.62,0,0,1,.72,1Z" style="fill:#BA68C8"></path><path d="M310.59,107.3h0a.61.61,0,0,1-.85-.15l-1.19-1.67a.61.61,0,0,1,.14-.86.62.62,0,0,1,.86.15l1.19,1.67A.62.62,0,0,1,310.59,107.3Z" style="fill:#BA68C8"></path></g></g><g id="light-bulbs-2"><g id="Idea"><path d="M383.94,61.9a.09.09,0,0,0,0,.05c1.95,2.77,2.14,4.1,2,4.73L385.25,69a.62.62,0,0,0,0,.27c0,.22.58,2.13,5.25,3.47s6.15,0,6.3-.15a.58.58,0,0,0,.14-.24L397.6,70c.18-.64,1-1.66,4.1-2.94l.07,0h0a14.49,14.49,0,1,0-17.83-5.15Zm4.32-9.2a2.11,2.11,0,0,1,2.19.38,5.29,5.29,0,0,1,1.61,2.69,6,6,0,0,0,.92-.24,7.64,7.64,0,0,0,2-1.07,4.63,4.63,0,0,1,.11-3.67,1.7,1.7,0,0,1,3.07.88,4.65,4.65,0,0,1-1.86,3.17,8.32,8.32,0,0,0,1.18,2,6.19,6.19,0,0,0,.65.69A5.27,5.27,0,0,1,401,56.09a2.11,2.11,0,0,1,2.07.85,1.6,1.6,0,0,1-.37,2.3,4,4,0,0,1-4.38-.22,12.66,12.66,0,0,0-2.11,3.51c-2.08,5-2.15,6.76-2.15,6.77a.57.57,0,0,1-.57.56.4.4,0,0,1-.15,0,.56.56,0,0,1-.41-.54c0-.08.05-1.94,2.24-7.19a14,14,0,0,1,2.26-3.77,7.94,7.94,0,0,1-.74-.78,9.56,9.56,0,0,1-1.22-2,8.9,8.9,0,0,1-2.09,1.05,6.93,6.93,0,0,1-1,.27,13.64,13.64,0,0,1-.08,4.39c-.92,5.62-1.87,7.22-1.91,7.29a.56.56,0,0,1-1-.59s.89-1.56,1.76-6.88a13,13,0,0,0,.07-4.1,4,4,0,0,1-3.83-2.13A1.6,1.6,0,0,1,388.26,52.7Zm.14,1.75a2.8,2.8,0,0,0,2.51,1.4A3.89,3.89,0,0,0,389.76,54a1,1,0,0,0-1.07-.23A.49.49,0,0,0,388.4,54.45Zm7.68-3a3.21,3.21,0,0,0-.1,2.23,3.25,3.25,0,0,0,1.1-1.94c0-.16,0-.34-.42-.45S396.17,51.28,396.08,51.41Zm5,5.8a4,4,0,0,0-2,1,2.83,2.83,0,0,0,2.87.14.47.47,0,0,0,.13-.75.82.82,0,0,0-.49-.34A1.3,1.3,0,0,0,401.09,57.21Z" style="fill:#f0f0f0"></path><path d="M384.29,75.31c0,.19.51,1.85,4.59,3s5.37,0,5.5-.14a.31.31,0,0,0,.11-.19l1.06-3.68c-.9.3-2.55.49-5.41-.33s-4.19-1.88-4.78-2.61l-1.06,3.69A.6.6,0,0,0,384.29,75.31Z" style="fill:#e6e6e6"></path></g><g id="idea"><path d="M108.81,49.81A14.48,14.48,0,1,0,89.05,67.05h0l.06,0c3.06,1.28,3.92,2.3,4.1,2.94l.68,2.35a.56.56,0,0,0,.13.24c.16.15,1.62,1.5,6.3.15s5.21-3.25,5.25-3.47a.5.5,0,0,0,0-.27l-.67-2.35c-.19-.63,0-2,2-4.73l0-.05A14.43,14.43,0,0,0,108.81,49.81Zm-5.33,5A4,4,0,0,1,99.65,57a12.64,12.64,0,0,0,.06,4.1c.88,5.32,1.76,6.87,1.77,6.88a.56.56,0,0,1-.2.77.55.55,0,0,1-.77-.18c0-.07-1-1.67-1.91-7.29a13.93,13.93,0,0,1-.08-4.39,7.62,7.62,0,0,1-1-.27,9.3,9.3,0,0,1-2.09-1.05,9.16,9.16,0,0,1-1.22,2,6.85,6.85,0,0,1-.73.78A14.2,14.2,0,0,1,95.7,62.1c2.19,5.25,2.23,7.11,2.23,7.19a.54.54,0,0,1-.41.54.35.35,0,0,1-.14,0,.57.57,0,0,1-.58-.56s-.07-1.8-2.15-6.77A12.66,12.66,0,0,0,92.54,59a4,4,0,0,1-4.38.22,1.6,1.6,0,0,1-.36-2.3,2.1,2.1,0,0,1,2.06-.85,5.26,5.26,0,0,1,2.79,1.44,6.19,6.19,0,0,0,.65-.69,8.27,8.27,0,0,0,1.17-2,4.59,4.59,0,0,1-1.85-3.17,1.7,1.7,0,0,1,3.07-.88,4.63,4.63,0,0,1,.1,3.67,7.86,7.86,0,0,0,2.06,1.07,5.69,5.69,0,0,0,.92.24,5.22,5.22,0,0,1,1.6-2.69,2.12,2.12,0,0,1,2.2-.38A1.6,1.6,0,0,1,103.48,54.85Zm-1.35-1.11a1,1,0,0,0-1.06.23,3.75,3.75,0,0,0-1.15,1.88,2.81,2.81,0,0,0,2.51-1.4A.49.49,0,0,0,102.13,53.74Zm-8-2.49c-.37.11-.41.29-.41.45a3.28,3.28,0,0,0,1.09,1.94,3.28,3.28,0,0,0-.09-2.23C94.66,51.28,94.53,51.14,94.16,51.25Zm-5,6a.88.88,0,0,0-.49.34.48.48,0,0,0,.13.75,2.83,2.83,0,0,0,2.87-.14,4,4,0,0,0-2-1A1.35,1.35,0,0,0,89.2,57.25Z" style="fill:#f0f0f0"></path><path d="M106.52,75.08l-1.06-3.69c-.58.73-1.89,1.78-4.78,2.61s-4.51.63-5.4.33l1,3.68a.45.45,0,0,0,.11.19c.13.14,1.41,1.31,5.5.14s4.55-2.84,4.59-3A.45.45,0,0,0,106.52,75.08Z" style="fill:#e6e6e6"></path></g></g><g id="light-bulb-1"><g id="Light"><circle cx="244.46" cy="70.43" r="38.59" style="fill:#BA68C8;opacity:0.1"></circle><circle cx="244.46" cy="70.43" r="48.78" style="fill:#BA68C8;opacity:0.1"></circle><circle cx="244.46" cy="70.43" r="58.45" style="fill:#BA68C8;opacity:0.1"></circle><path d="M244.45,35.88a1.4,1.4,0,0,1-1.39-1.4V20.62a1.4,1.4,0,0,1,2.79,0V34.48A1.4,1.4,0,0,1,244.45,35.88Z" style="fill:#fff"></path><path d="M262,40.63a1.46,1.46,0,0,1-.7-.18,1.41,1.41,0,0,1-.51-1.91l6.93-12a1.4,1.4,0,0,1,2.42,1.39l-6.93,12A1.41,1.41,0,0,1,262,40.63Z" style="fill:#fff"></path><path d="M274.75,53.51a1.4,1.4,0,0,1-.7-2.61l12-6.93a1.4,1.4,0,0,1,1.4,2.42l-12,6.93A1.36,1.36,0,0,1,274.75,53.51Z" style="fill:#fff"></path><path d="M293.24,71.05H279.38a1.4,1.4,0,0,1,0-2.79h13.86a1.4,1.4,0,0,1,0,2.79Z" style="fill:#fff"></path><path d="M286.63,95.48a1.46,1.46,0,0,1-.7-.18l-12-6.93A1.4,1.4,0,0,1,275.32,86l12,6.93a1.39,1.39,0,0,1-.69,2.6Z" style="fill:#fff"></path><path d="M201.92,95.27a1.41,1.41,0,0,1-1.21-.69,1.39,1.39,0,0,1,.51-1.91l12-6.93a1.4,1.4,0,0,1,1.4,2.42l-12,6.93A1.42,1.42,0,0,1,201.92,95.27Z" style="fill:#fff"></path><path d="M209.29,70.8H195.43a1.4,1.4,0,1,1,0-2.79h13.86a1.4,1.4,0,0,1,0,2.79Z" style="fill:#fff"></path><path d="M214,53.3a1.37,1.37,0,0,1-.7-.19l-12-6.93a1.4,1.4,0,1,1,1.4-2.42l12,6.93a1.4,1.4,0,0,1-.7,2.61Z" style="fill:#fff"></path><path d="M226.92,40.51a1.39,1.39,0,0,1-1.21-.7l-6.93-12a1.39,1.39,0,1,1,2.41-1.39l6.93,12a1.39,1.39,0,0,1-.51,1.91A1.45,1.45,0,0,1,226.92,40.51Z" style="fill:#fff"></path></g><g id="Bulb"><g id="Socket"><path d="M241,116.2c-1.9-1.09-1.91-2.87,0-4a7.57,7.57,0,0,1,6.86,0c1.9,1.09,1.9,2.86,0,4A7.6,7.6,0,0,1,241,116.2Z" style="fill:#263238"></path><path d="M249.05,115.11h-.79a2.35,2.35,0,0,0-1-1,6.16,6.16,0,0,0-5.58,0,2.39,2.39,0,0,0-1,1h-.79l.91,1.42h0a2.58,2.58,0,0,0,.89.79,6.16,6.16,0,0,0,5.58,0,2.71,2.71,0,0,0,.89-.8h0Z" style="fill:#263238"></path><path d="M239.39,114.92c-2.8-1.62-2.8-4.24,0-5.86a11.27,11.27,0,0,1,10.15,0c2.8,1.62,2.8,4.24,0,5.86A11.21,11.21,0,0,1,239.39,114.92Z" style="fill:#455a64"></path><path d="M239.2,114c-2.9-1.67-2.9-4.39,0-6.07a11.63,11.63,0,0,1,10.53,0c2.9,1.68,2.9,4.4,0,6.07A11.63,11.63,0,0,1,239.2,114Z" style="fill:#37474f"></path><path d="M239.07,112.92c-3-1.73-3-4.51,0-6.23a11.93,11.93,0,0,1,10.79,0c3,1.72,3,4.5,0,6.23A11.93,11.93,0,0,1,239.07,112.92Z" style="fill:#455a64"></path><path d="M238.94,111.86c-3.06-1.77-3.06-4.62,0-6.39a12.22,12.22,0,0,1,11.05,0c3.06,1.77,3.06,4.62,0,6.39A12.22,12.22,0,0,1,238.94,111.86Z" style="fill:#37474f"></path><path d="M238.8,110.8c-3.12-1.81-3.12-4.73,0-6.54a12.56,12.56,0,0,1,11.33,0c3.12,1.81,3.12,4.73,0,6.54A12.56,12.56,0,0,1,238.8,110.8Z" style="fill:#455a64"></path><path d="M238.67,109.74c-3.2-1.85-3.2-4.84,0-6.69a12.8,12.8,0,0,1,11.59,0c3.2,1.85,3.2,4.84,0,6.69A12.8,12.8,0,0,1,238.67,109.74Z" style="fill:#37474f"></path></g><path d="M253,102.16c0-1.27-.84-2.53-2.52-3.5a13.41,13.41,0,0,0-12.12,0c-1.68,1-2.52,2.24-2.51,3.5v2.92c0,1.27.84,2.53,2.51,3.5a13.43,13.43,0,0,0,12.13,0c1.67-1,2.51-2.24,2.51-3.5Z" style="fill:#BA68C8"></path><path d="M244.46,43.62a25.79,25.79,0,0,0-25.79,25.79c0,20.47,16.9,23.87,16.9,32.12,0,1.32.86,2.63,2.6,3.64a14,14,0,0,0,12.59,0c1.73-1,2.6-2.32,2.6-3.64h0c0-8.25,16.9-11.65,16.9-32.12A25.79,25.79,0,0,0,244.46,43.62Z" style="fill:#fff"></path><path d="M239.2,104.62c-2.9-1.68-2.9-4.4,0-6.08a11.63,11.63,0,0,1,10.53,0c2.9,1.68,2.9,4.4,0,6.08A11.69,11.69,0,0,1,239.2,104.62Z" style="fill:#f5f5f5"></path><path d="M251,103.66a6.13,6.13,0,0,1-1.25,1,11.69,11.69,0,0,1-10.53,0,5.87,5.87,0,0,1-1.25-1,5.58,5.58,0,0,1,1.25-1,11.63,11.63,0,0,1,10.53,0A5.58,5.58,0,0,1,251,103.66Z" style="fill:#BA68C8;opacity:0.25"></path><path d="M251,103.66a6.13,6.13,0,0,1-1.25,1,11.69,11.69,0,0,1-10.53,0,5.87,5.87,0,0,1-1.25-1,5.58,5.58,0,0,1,1.25-1,11.63,11.63,0,0,1,10.53,0A5.58,5.58,0,0,1,251,103.66Z" style="fill:#ebebeb"></path><path d="M257.59,54a3.7,3.7,0,0,0-.91.54,3.79,3.79,0,0,0-1.25,3.51c.36,2.49,2.77,4.05,4.16,6a22.14,22.14,0,0,1,3.36,7,13.09,13.09,0,0,0,.86,2.68,2,2,0,0,0,2.57.86A3.77,3.77,0,0,0,268,71.87a19.75,19.75,0,0,0-3.3-14.69C263.13,54.73,260.61,52.73,257.59,54Z" style="fill:#BA68C8;opacity:0.1"></path><path d="M263.14,77.78a2.84,2.84,0,0,0,.27,2.31,1.66,1.66,0,0,0,2.27.52,2.67,2.67,0,0,0,1.22-2.23,2,2,0,0,0-1.67-2.06A2.12,2.12,0,0,0,263.14,77.78Z" style="fill:#BA68C8;opacity:0.1"></path><path d="M247.47,104.15h-.29c0-9.18.53-14.93,1.78-19.23a18.82,18.82,0,0,1,1.26-3.22,16,16,0,0,1-5.76-3.4,16,16,0,0,1-5.76,3.4A18,18,0,0,1,240,84.92c1.25,4.3,1.79,10,1.79,19.23h-.3c0-9.15-.53-14.87-1.78-19.15a17.3,17.3,0,0,0-1.27-3.21c-.29.08-.58.14-.86.19-3,.5-4.74-.37-5.38-1.34a2,2,0,0,1,2.11-3c1.3.2,2.93,1.33,4.29,3.82a15.62,15.62,0,0,0,5.69-3.33,7.44,7.44,0,0,1-.86-1c-1.4-2.13-1.32-4-.77-5a2.06,2.06,0,0,1,3.68,0c.55,1,.63,2.86-.77,5a7.44,7.44,0,0,1-.86,1,15.62,15.62,0,0,0,5.69,3.33c1.36-2.49,3-3.62,4.3-3.82a2,2,0,0,1,2.1,3c-.64,1-2.38,1.84-5.38,1.34-.28,0-.57-.11-.86-.19A17.3,17.3,0,0,0,249.25,85C248,89.28,247.47,95,247.47,104.15Zm3.2-22.63c.25.06.51.12.76.16,2.85.48,4.49-.31,5.08-1.21a1.64,1.64,0,0,0-.06-1.89,1.67,1.67,0,0,0-1.75-.67C253.53,78.08,252,79.16,250.67,81.52Zm-16.8-3.64a1.62,1.62,0,0,0-1.4.7,1.64,1.64,0,0,0-.06,1.89c.59.9,2.23,1.69,5.09,1.21.24,0,.5-.1.76-.16-1.31-2.36-2.87-3.44-4-3.61Zm10.59-6.63a1.74,1.74,0,0,0-1.58,1c-.63,1.18-.34,3,.76,4.69a7.47,7.47,0,0,0,.82,1,6.75,6.75,0,0,0,.82-1c1.1-1.67,1.4-3.51.76-4.69A1.74,1.74,0,0,0,244.46,71.25Z" style="fill:#455a64"></path></g></g><g id="character-3"><g id="Character"><g id="Bottom"><path d="M428.69,383.66c.49,2.38,1.37,5.13,2.18,10s-.26,5.09,3.21,17.28c2.09,7.32,1.8,10.25-2.56,16.55-4.67,6.74-9.73,5.5-13.17-1.8-2.94-6.23-2.83-9.16-3-15.68s-.26-8.42-.67-13.59c-.36-4.55-.05-7.67-.41-11.16Z" style="fill:#37474f"></path><path d="M430.56,401.49c-1-6.3-1.39-12.84-1.81-17.1-.94-9.56.59-28.51-1.09-42.87l-24.31-1.93c.94,5.6,8.19,30.82,11,46.08,0,0,1.41,20.77,2.95,29.89a1.76,1.76,0,0,0,2.49,1.31,15.89,15.89,0,0,1,11-.95,1.75,1.75,0,0,0,2.31-1.73C432.89,410.81,431.34,406.22,430.56,401.49Z" style="fill:#ffa8a7"></path><path d="M352.66,341.25c.47,26.53-.3,37.29-1.1,42.44s-1.12,6.9-2.51,10.49-3.68,8.37-5.7,10.67c0,0-5.8,6-4.54,6.62s13.16,2.11,18.52.59,6-6,8-14.28S369,377.5,369,377.5a5.42,5.42,0,0,1-.52-1.41c-.67-2.4,1.6-8.56,2.26-14.55Z" style="fill:#ffa8a7"></path><path d="M374.12,389.93c-.38,1.93-2.08,4.08-2.87,7.08a53.78,53.78,0,0,0-1.73,10.42l-.36,4.91-1.33-.09s.45-6.22.64-8.95.07-4.74-1.21-5.13C367.26,398.17,367.67,389.47,374.12,389.93Z" style="fill:#263238"></path><path d="M368.83,376.38c.83,2.3,3.67,5.56,4.88,7.75a8.17,8.17,0,0,1,1,3.76,3.88,3.88,0,0,1-1.23,2.91,44.15,44.15,0,0,0-4.22,4.52c-1.67,2.16-4.82,7.22-5.73,10.82s-1.45,6.76-4.58,8.5c-2.44,1.36-12.39,3.14-17.41,3.37-6.86.32-8.58-3-6-5.59s7-7,7.83-7.57a12.46,12.46,0,0,1,6.35,1c3.81,1.71,5,4,9.06,2,3.68-1.76,5.24-8.48,5.1-18.19C363.7,378.66,368.83,376.38,368.83,376.38Z" style="fill:#37474f"></path><path d="M405.6,202c.54,2.49,1.14,4.81,2.09,6,5.78,7.42,11.72,16.45,13.24,30.62A624.49,624.49,0,0,1,424.09,306c.37,3,3,10.27,4,27.53.84,13.76.83,35.19.83,35.19s-9.69,5.2-18.4,2.27c-3.93-13-10.85-44.37-14.81-59.27-4.17-15.71-8.53-34.46-8.53-34.46l-6.86,28a80.32,80.32,0,0,1,.54,17.9c-.71,9.24-10.71,42.63-10.71,42.63s-10.37,3.82-17.95-1c0,0-.37-48-.32-58.13.06-11,1.82-68.88,7.07-95.56a56.53,56.53,0,0,0,.15-6.17C366.59,210.57,396.18,208.9,405.6,202Z" style="fill:#37474f"></path><path d="M428.94,364c-3.62,3.58-15.08,4.91-19.68,2.68l1.67,7.1s3.05,1.9,9.56,1.07,8.5-3.52,8.5-3.52Z" style="fill:#455a64"></path><path d="M371.48,361.54c-3.84,1.45-15.19,1.28-19.54-1.17l.18,6.12s2.48,2.19,9,2.61,9.32-1.52,9.32-1.52Z" style="fill:#455a64"></path><path d="M387.2,277.27l-5.7-33.73A21.47,21.47,0,0,1,364,236s.08,8.49,14.17,11.79l6.43,31.05-4.29,26.37Z" style="fill:#263238"></path><path d="M359,210.53s7.24,5,23.77,3.65,24.34-7,24.22-7.24h0a23.42,23.42,0,0,1-1.29-4.27,4.68,4.68,0,0,1-.14-.63c-9.42,6.86-39,8.53-46.48,2.82,0,0,.08,4-.08,5.67Z" style="fill:#263238"></path></g><g id="Top"><g id="Hair"><path d="M414.53,128.35c1.87-3.79,3.32-8.77-.24-12.06,1.45-4.16,2.42-9.52-1.86-12.25,0-5.44-2.91-8.85-7.07-10.22-3.93-1.3-8.18-.79-11.12,2.77l2.92,1.31c.5,3.69,1.85,7.26,5.29,9.07-1.29,4.31-.46,7.87,3.91,9.76-2.31,4.31-2.45,9.15.84,13-1.38,3.62-.75,6.62,1.7,9.59-2.46,3.05-.9,7.26,2,9.5a7.47,7.47,0,0,0-2.06,6,5.08,5.08,0,0,0,4.82,4.82c-1.36-1-1.51-1.77-.85-3.83s1.83-4.5-.11-6.72c1.83-3.26,3.57-7,1.25-10.36C415.5,135.4,416.7,131.75,414.53,128.35Z" style="fill:#263238"></path><path d="M396,97.44c1-1.78,3.28-1.11,5.22.44s3.71,4.24,2.7,5.74C402.23,106.14,395.06,99.18,396,97.44Z" style="fill:#BA68C8"></path></g><g id="Chest"><path d="M367,150.19c-7.24.66-12.94,2.81-19.34,9.23-9.33,9.36-28,28.11-23.91,31.26,0,0,3.5,4,16.55-.83,9.9-3.65,23.93-11.34,23.93-11.34Z"></path><path d="M390,145.27l15,4.37c2.59.83,12.39,6.57,9.28,21.23-1,4.85-2.44,11.66-3.69,18.45-1,5.2,3.1,15.09,6.52,30.89,0,0-12.64,10.43-38.17,8-19.47-1.84-21.72-9.07-21.72-9.07.21-18.11,1.68-25.13,1.52-32a16.46,16.46,0,0,1-3.14-9.56c-.25-6.44,1.38-9.94,7-17.37a124.9,124.9,0,0,1,10.37-12Z" style="fill:#455a64"></path><path d="M362.75,168.28c-4.31,10.33-.18,68.69-.67,64.32,0,0-8.43-3.09-9.26-5.87-.2-10.52,1.35-31.69,1.34-38.92,0-8.31-.74-13.81,1.28-19.21,1.47-3.95,7.68-13.86,11.51-18.41,2-.79,3.81-1.09,6.06-1.94C368.94,151.93,364.34,162.12,362.75,168.28Z" style="fill:#BA68C8"></path><path d="M362.75,168.28c-4.31,10.33-.18,68.69-.67,64.32,0,0-8.43-3.09-9.26-5.87-.2-10.52,1.35-31.69,1.34-38.92,0-8.31-.74-13.81,1.28-19.21,1.47-3.95,7.68-13.86,11.51-18.41,2-.79,3.81-1.09,6.06-1.94C368.94,151.93,364.34,162.12,362.75,168.28Z" style="opacity:0.2"></path><path d="M378.77,148.73c-2.8,2-15.3,10.93-17.5,27.92-.14-7.47,2.5-16.67,5.09-21.06,3.15-5.35,7.38-10.36,12.21-11.89Z" style="fill:#263238"></path><path d="M396.54,145.08s.07,1,0,4.18-5.43,26.75-5.3,38.27a374.53,374.53,0,0,0,3.64,46.25s18.59,1.34,25.25-8c0,0-2.67-11.46-5.22-25.43-1.51-8.28,2.12-27.31.47-39.3-.69-5-.43-9.53-4.22-10.64-3.13-.92-8.11-2.13-8.11-2.13Z" style="fill:#BA68C8"></path><path d="M396.54,145.08s.07,1,0,4.18-5.43,26.75-5.3,38.27a374.53,374.53,0,0,0,3.64,46.25s18.59,1.34,25.25-8c0,0-2.67-11.46-5.22-25.43-1.51-8.28,2.12-27.31.47-39.3-.69-5-.43-9.53-4.22-10.64-3.13-.92-8.11-2.13-8.11-2.13Z" style="opacity:0.2"></path><path d="M395.73,142c1.41-.09,1.8.78,3.72,2.88a28,28,0,0,0,3.6,3.34c-1.54,10.59-9.61,23.91-11.75,36.36-.29-10,2.83-24,5.09-39.39Z" style="fill:#263238"></path></g><g id="Head"><path d="M378,134c-.9-1.73-1.7-3.69-3.12-5.07s-3.27-2.09-4.9-3.12l-5.23-3.32c-6.32-3.51-5.88-11.81-4.27-16.12C364,96.77,374.53,93.3,381,93c12.26-.49,18.2,2.76,19.38,9.13a8.07,8.07,0,0,1,6.81,3.3c3.06,4.07,2.81,10.33,1.52,14.82-2,6.92-4.21,9.25-7,11.69a20.26,20.26,0,0,0-5.87,7.76Z" style="fill:#37474f"></path><path d="M398.9,133.91a5.68,5.68,0,0,0,5.25-2.28c2.88-3.35,3.08-6.68,1.64-8.86-1.18-1.79-4-2.89-6-1.61s-2.11,2.45-2.87,4-3.83,1.45-4.71-4.53c-.83-5.59-1.8-10.7-4.61-13.16-4.18-3.68-8.72-3-10.3-.68-1.73-2.57-4.3-3.56-7.06-2s-4.79,5.79-5.49,16.44c-.72,10.85,2,17.55,4.52,19.31,1.92,1.33,4.05,1.9,8.11,2l0,7.19c-3.1,4.62,10.41,8.08,18.12.85l.82-5.31-.19-13A3.45,3.45,0,0,0,398.9,133.91Z" style="fill:#ffa8a7"></path><polygon points="377.74 116.38 376.85 128.65 370.18 126.28 377.74 116.38" style="fill:#f28f8f"></polygon><path d="M377.43,142.5A37.82,37.82,0,0,0,389,140.07c1.33-.56,3.15-3,4.63-5.68,0,0-1.06,5.32-3.95,7.15-4.41,2.77-12.19,3.14-12.19,3.14Z" style="fill:#f28f8f"></path><path d="M367.23,115l4.22-1.15a2.1,2.1,0,0,0-2.61-1.58A2.31,2.31,0,0,0,367.23,115Z" style="fill:#263238"></path><path d="M382.2,114.63l4.42,1.54a2.25,2.25,0,0,0-1.35-3A2.45,2.45,0,0,0,382.2,114.63Z" style="fill:#263238"></path><path d="M368.56,119.17c-.29.89.33,1.18,1.2,1.46s1.64.45,1.93-.45a1.67,1.67,0,0,0-1-2.13A1.68,1.68,0,0,0,368.56,119.17Z" style="fill:#263238"></path><path d="M371.48,118.36a3.93,3.93,0,0,0-1.25-.42,3.39,3.39,0,0,0-1.27,0,4.3,4.3,0,0,0-1.3.4s-.05.12,0,.11a11.55,11.55,0,0,1,1.16-.14,6.2,6.2,0,0,1,1.43.15,5.94,5.94,0,0,1,1.63.58l.54.28s.08-.1.06-.14A2.92,2.92,0,0,0,371.48,118.36Z" style="fill:#263238"></path><path d="M385.27,119.55c.23.92-.42,1.15-1.31,1.36s-1.67.32-1.89-.59a1.65,1.65,0,1,1,3.2-.77Z" style="fill:#263238"></path><path d="M382.43,118.52a4,4,0,0,1,1.27-.33,3.43,3.43,0,0,1,1.28.06,4.12,4.12,0,0,1,1.26.5s0,.12,0,.1a11.09,11.09,0,0,0-1.14-.22,5.78,5.78,0,0,0-1.44,0,6.3,6.3,0,0,0-1.68.45l-.55.23c-.05,0-.08-.1-.05-.13A2.78,2.78,0,0,1,382.43,118.52Z" style="fill:#263238"></path></g><path d="M355.39,136.87s.5-.27.62-1.36,0-1.84.1-3,.55-3.25,1.66-3.5,1.75,2.29,1.85,4.36a9.28,9.28,0,0,0,1.61,5.58c1.45,2.29,2.71,5.26,1.37,7.92Z" style="fill:#f28f8f"></path><path d="M347.83,133c.55-2,.4-4.58.57-6.19a17.6,17.6,0,0,1,1.23-4.62c.62-1.62,1.07-3.73,1.63-4s1.56.39,1.55,1.66c0,0,.73-1,1.34-1.94s1-2.21,1.92-2.45,1.37,1.19,1.08,2.21-.53,1.59-.53,1.59.9.38.17,2.21a8.93,8.93,0,0,1-1.2,2,8.67,8.67,0,0,1-.94,3.24,16.7,16.7,0,0,1-1.1,3.52,9.94,9.94,0,0,1,1.17,3.71c0,1.66-.23,2.05,1.72,4,1.32,1.3,3.54,2.78,4.79,4.59s2.12,3.73.62,6.15-2.66,4.17-4.07,6.72c-1.06,1.92-2.09,4.46-6.46,13.55-3.4,7.06-3.67,7.94-5.34,10.51-2.34,3.59-5,8.24-11.15,10.84s-13.22,1.91-12.41-3.27c1-6.21,2.71-11.08,5.42-14.46a66.21,66.21,0,0,1,7.28-7.67c3-2.86,5.25-5.82,8.88-9.9s6.07-7.92,6-9.27a30.51,30.51,0,0,0-1.7-7.25C347.5,136,347.1,136.09,347.83,133Z" style="fill:#ffa8a7"></path><path d="M352.81,119.9a10.11,10.11,0,0,1-.43,1.66c-.19.54-.4,1.07-.62,1.58l0,.08,0,.11a6.53,6.53,0,0,1,.09.9,7,7,0,0,1-.05.92,5.78,5.78,0,0,1-.5,1.77l-.06.13.06.12a4.89,4.89,0,0,1,.27.65c.07.23.14.46.19.7a5.41,5.41,0,0,1,.12.72c0,.25,0,.49,0,.75a4.54,4.54,0,0,0,.2-1.52,4.91,4.91,0,0,0-.1-.77,3.72,3.72,0,0,0-.22-.77v.25a5.17,5.17,0,0,0,.65-2,5,5,0,0,0,0-1,4.14,4.14,0,0,0-.15-1v.19a9.4,9.4,0,0,0,.46-1.71A6.11,6.11,0,0,0,352.81,119.9Z" style="fill:#f28f8f"></path><path d="M356.62,119.31a5.7,5.7,0,0,1-.59.78,8.37,8.37,0,0,1-.71.64l-.05,0,0,.09a7.57,7.57,0,0,1-.74,1.9,5.21,5.21,0,0,1-1.24,1.55l-.15.14.05.2a6.46,6.46,0,0,1,.15,1.11,9.14,9.14,0,0,1,0,1.17,11.74,11.74,0,0,1-.16,1.17c-.07.39-.19.78-.29,1.17a6.9,6.9,0,0,0,.92-2.27,6.45,6.45,0,0,0,.14-1.24,4.7,4.7,0,0,0-.12-1.28l-.11.33a4.38,4.38,0,0,0,.8-.81,4.77,4.77,0,0,0,.59-1,6.45,6.45,0,0,0,.4-1,6.67,6.67,0,0,0,.2-1.1l-.07.13a4,4,0,0,0,.62-.81A3.28,3.28,0,0,0,356.62,119.31Z" style="fill:#f28f8f"></path><path d="M353.12,132.56a4.77,4.77,0,0,0,.61,2.11,6.68,6.68,0,0,0,1.35,1.73c-.16-.33-.35-.64-.53-1s-.37-.62-.53-.94A15.74,15.74,0,0,1,353.12,132.56Z" style="fill:#f28f8f"></path><path d="M359.63,140.69a9.13,9.13,0,0,1,.55,3.86,6.86,6.86,0,0,1-.43,1.87,14.62,14.62,0,0,1-.85,1.8,5.37,5.37,0,0,0,1.32-1.59,5.28,5.28,0,0,0,.62-2A5.38,5.38,0,0,0,359.63,140.69Z" style="fill:#f28f8f"></path><path d="M380.49,131.9a1.38,1.38,0,1,1-2.75,0,1.38,1.38,0,1,1,2.75,0Z" style="fill:#9e6767"></path><g id="Arm"><path d="M475,252.64a5,5,0,0,1-2.92-1,7.91,7.91,0,0,1-.93-.9.43.43,0,0,0-.19-.14.51.51,0,0,0-.27,0,5.06,5.06,0,0,1-3.88-.63l-4.59-2.43a12.8,12.8,0,0,1-2.43-1.54,4.17,4.17,0,0,1-1.44-2.43,2.15,2.15,0,0,1,.33-1.59,2.21,2.21,0,0,1,.83-.65,6.1,6.1,0,0,1,3.2-.38,16.48,16.48,0,0,1,8.59,3.42c.92.72,1.79,1.5,2.65,2.28a6.31,6.31,0,0,1,1.32,2.8,10,10,0,0,0,.71,1.65c.18.31.67.66.56,1.07s-.41.4-.71.45A4.57,4.57,0,0,1,475,252.64Z" style="fill:#f28f8f"></path><path d="M460.63,249.05c-2-1.26-4.1-1.59-6.29-2.29a15.58,15.58,0,0,1-3-1.26,2.29,2.29,0,0,0-.66-.29,2.6,2.6,0,0,0-.56,0,10.15,10.15,0,0,1-4.59-1.32A10,10,0,0,1,442.6,241c-1-1.36-1.67-3.6-2.73-5-2.71-3.46-11.46-13.78-17.68-21.13-4.28-5-5.47-7.24-6.47-10.78-4.88-17.21-8.49-28.18-8.49-28.18-3-9,1.55-21.18,4.25-25.18,11.2,5.16,12.16,5.43,16.6,21.66,2.51,9.17,3.39,14.37,7.32,29.24,9.41,16.13,16.5,30,17.62,31.08,1.77,1.69,6.76,2.78,10.93,4.64,2.19,1,4.35,1.88,6.61,2.66a7.1,7.1,0,0,1,2.13,1,6.71,6.71,0,0,1,1.21,1.34l3.2,4.23c.91,1.21,2.1,2.11,3.08,3.27a1.26,1.26,0,0,1,.29.5c.45,1.89-3.09,1.21-3.86.88a14,14,0,0,1-2.7-1.69,24.93,24.93,0,0,1-3.41-3.17,6.94,6.94,0,0,0-4.11-2.35l-3.5-.53c-.21,0-.51,0-.48.23a.29.29,0,0,0,.11.18,44.12,44.12,0,0,0,5.26,4.59,2,2,0,0,1,.73.8c.26.7-.37,1.41-1,1.72C465,252.23,462.64,250.33,460.63,249.05Z" style="fill:#ffa8a7"></path><path d="M411.16,150.39c9.38,2.07,10.57,4.57,12.75,8.43,2.81,4.94,3.26,8.2,5.41,16.86,2,8.07,6.44,25.56,6.44,25.56L441.84,213a11.29,11.29,0,0,0-7.43,2.71,18.69,18.69,0,0,0-5.33,7.38s-8.62-9.11-10.36-11.52a19.89,19.89,0,0,1-3.9-7.43c-1.3-4.08-8.49-28.61-8.49-28.61S403.7,161.32,411.16,150.39Z"></path></g></g></g></g><g id="character-2"><g id="character"><g id="top"><g id="character"><g id="bottom"><path d="M197.38,422c2.82-12.12,3.35-34.09,4.79-45.06,1.68-12.84,10.46-25.52,10.46-25.52s-2.92-32.86-3.66-47.55c-1.56-30.69,2.05-46.51,5.69-51.66,1.72-2.43,1.77-3.08,2.67-6.43a24.69,24.69,0,0,1,4.11-8l47.64.73c3.25,6.24,4.6,16.78,5.94,26.5,4.87,17.91,3.75,74.69,2.86,95.23-.53,12.31-8.77,66.46-8.95,68.13-.08.72-2.26,3.82-7.14,3s-6.19-2.56-6.19-3.08c0-1.77-.22-3.75-.37-5.53-.95-11.58-5.27-36.39-6.64-48.2a30.55,30.55,0,0,1,4-18.63l-7.05-31.82a234.93,234.93,0,0,1-10.71,44.3C229.32,384,210.27,430,210.27,430c-1.75,4.83-12,2.33-13.33-6Z" style="fill:#9e6767"></path><path d="M197.38,422c-2.58-.45-2.26,8.5-3.81,13.93-1.66,5.82-4.6,9.74-6,14.5-1.63,5.44-1.43,7.89.14,12.91,1.23,3.91,9.45,10.52,13.68,6.07s5.9-10.13,6.4-15.76c.5-5.82.37-9.73,1.41-14,1.11-4.62,4-13.25,2.62-13.35L210.7,429c-1.52,1.84-13-.66-13.76-4.9Z" style="fill:#263238"></path><path d="M252.72,428.67c-.68,2.82.09,10.53.09,10.53s1.24,2.65,5.59,4.39l1.87-10.74Z" style="fill:#263238"></path><polygon points="258.4 443.59 267.95 440.38 270.19 431.88 259.55 437.01 258.4 443.59"></polygon><path d="M270.26,419.27l.37-2.52c1.3.63,1.18,11,8.09,18.37,5.1,5.43,10.91,8.63,13.2,11.47,3.07,3.79-4.18,10.13-13.68,8.16-4.71-1-11.86-3.93-13.81-7.09s-3.29-8.32-4.88-10.65-6-4.11-7.05-6.69c-1.15-2.84-.22-6.68.57-9.32.73-2.42.3-5,1.41-5.07l.24,2c.64,1.29,4.45,3,9.24,3.23C266.23,421.23,269.23,421.35,270.26,419.27Z" style="fill:#263238"></path><path d="M273.75,253.25s-10.38,5.86-30.84,4.38-28.56-5.29-28.56-5.29-6.88,10.12-8.25,20.69c-1.14,8.75-.47,22.42.49,48,.72,19.24,1.28,30,1.28,30s-2.41,7.58-4.37,14.82c-2.64,9.71-4.19,38.84-5,49.8,3.89,4.5,12.31,6.35,15.39,5.6,4.68-9.73,19.68-47.38,22.09-54.53s7.84-20.68,9.6-42.59l5.64,32a45.3,45.3,0,0,0-3.16,11.56c-1.09,6.92,4,35.2,5.89,44,3.05,2.37,10.47,4.28,17.4.09,1.11-8.17,6.15-39,6.88-47.68,0,0,2.36-20.24,1.79-51.36A377.12,377.12,0,0,0,273.75,253.25Z" style="fill:#455a64"></path><path d="M235.44,297.69c.63,4.92.75,9.88.89,14.83s0,9.91-.17,14.86-.49,9.91-.93,14.85l-.38,3.71-.48,3.7-.59,3.7c-.27,1.23-.46,2.47-.79,3.7l-.51,1.84-.59,1.78-1.2,3.52-2.5,7c-1.72,4.64-3.42,9.29-5.21,13.9q-5.28,13.86-11,27.55,4.62-14.12,9.52-28.11l4.87-14,2.43-7,1.18-3.5.57-1.76.46-1.73c.33-1.15.52-2.37.79-3.55l.6-3.62.49-3.65.43-3.67c.54-4.89.91-9.81,1.27-14.73s.59-9.85.77-14.79S235.6,302.64,235.44,297.69Z" style="fill:#37474f"></path><path d="M272.84,301.2c.69,4.27,1.2,8.57,1.72,12.87s.84,8.62,1.12,12.94a250.65,250.65,0,0,1,.48,26c-.46,8.71-1.45,17.28-2.45,25.88s-2.18,17.16-3.52,25.71q.8-13,1.9-25.87l1.07-12.92c.36-4.3.75-8.6.92-12.88.35-8.59.22-17.22,0-25.85S273.36,309.84,272.84,301.2Z" style="fill:#37474f"></path><path d="M221.89,263.72a13.2,13.2,0,0,0-4.38,4.28,26.05,26.05,0,0,0-2.64,5.47,52,52,0,0,0-1.71,5.95c-.46,2-.82,4.11-1.22,6.24a22,22,0,0,1-.39-6.48,24.52,24.52,0,0,1,1.36-6.42,17.89,17.89,0,0,1,3.31-5.75A9.29,9.29,0,0,1,221.89,263.72Z" style="fill:#37474f"></path><path d="M273.75,253.25l1.14,6.35s-8,10.94-28.59,10.55-29.09-5.46-34.68-13.15l3-5.47Z" style="fill:#37474f"></path><path d="M223,265.11a40.66,40.66,0,0,0-2,6.47,61.68,61.68,0,0,0-1.12,6.59c-.29,2.21-.42,4.43-.53,6.67s0,4.5,0,6.83a27.11,27.11,0,0,1-1.58-6.77,33.24,33.24,0,0,1,.08-7,30.07,30.07,0,0,1,1.64-6.81A17.28,17.28,0,0,1,223,265.11Z" style="fill:#37474f"></path><path d="M245.57,324.13l2.87-32s13-7.47,16.15-14.32c0,0-.54,10.74-10.19,16.56l-4.59,32.38,1.4,29.38Z" style="fill:#37474f"></path></g><g id="top"><path d="M226,233.48c-.25.82-5.14-2.86-5.49-3.18-1.68-1.51-3-3-3.32-5.34s.61-5.07.72-7.57a17.59,17.59,0,0,0-1.35-8.3c-1.18-2.57-3.19-4.73-4.1-7.4a13.85,13.85,0,0,1-.32-6.62c.75-4.63,6.46-9,6.74-18a36.23,36.23,0,0,0-1.49-8.58c-1.05-3.73-2.2-7.54-1.94-11.42a12.13,12.13,0,0,1,2.74-7.08,20.12,20.12,0,0,1,2.69-2.13c.88-.74.8-1.22,1-2.37.62-4.44,3.67-7.37,7.43-9.47,4.48-2.5,12.32-3.46,15.09-3.63A76.33,76.33,0,0,0,257,130.55c1.19-.25,3.95-1,5.08-.55a4,4,0,0,1,2.48,4.12c0,2.11-1.86,4.2-1.11,6.83,1.52,1.07,3.59,3.2,1.89,5a4.23,4.23,0,0,1-1.83,1.07,14.49,14.49,0,0,1,2.68,1.91,5.29,5.29,0,0,1,1.64,2.8,3.31,3.31,0,0,1-.9,3,5.18,5.18,0,0,1-1.18.76L263,157c.31.35.54.6.63.68,4.3,4,11.38,8.08,9,15.15-.53,1.59-1.51,3.21-1.05,4.82.63,2.2,3.39,2.8,5.65,3.2,4.58.81,12.32,3.69,10.94,9.82a7.38,7.38,0,0,0,.1,4.6,3.3,3.3,0,0,0,3.05,2.15,3.67,3.67,0,0,0,3.9-2.89c2,3.2,0,7.84-5,9.23-3.24.91-6.9-.06-7.08-.71,3.8,2.68,3.22,9.93-.38,11,1.88,1.69,4.77,7.3,1,13.94a11.88,11.88,0,0,1-12,6.05c-.67,2.59-1.63,6.26-3.92,7.64-3.4,2-7.58,3.68-11.24,2.17-2.59-1.06-4.42-3.53-7-4.53-1.73,2.1-3.52,4.26-5.95,5.48-4.8,2.4-10.88.37-14.65-3.45C226.82,239.25,225.2,236.28,226,233.48Z" style="fill:#263238"></path><path d="M296.79,127.64a5.24,5.24,0,0,0-2,2.37,34.84,34.84,0,0,0-1.41,4.91c-.74,2.49-1.92,6.52-3.87,8.3-.4.36-1.34,1-1.29,0a22.76,22.76,0,0,0,.07-3.87,4.64,4.64,0,0,0-1.77-3.32,1.55,1.55,0,0,0-1.09-.33c-.54.07-.61.44-.67.87a11,11,0,0,1-.34,1.34c-.26.92-.51,1.84-.76,2.76-1.43,5.37-2.52,11.09-1.07,16.58.21.8,2.41,6.54,3.51,9.92,1.11,3,7.53,22.14,7.53,22.14l-19.17.62a50,50,0,0,0-15.72,2.51c-2.54.87-7.22,3-7.22,3l24.8,15.79s20.72-3,24-3.54c4.81-.75,13.85-2.32,13.92-9.19.09-8.42-5.48-17-9.06-23.76-4-7.58-6.27-10.9-7-13.66s.8-4.53,1.6-6a25.74,25.74,0,0,0,2.6-6.55,23.79,23.79,0,0,0,.94-6.1,7.14,7.14,0,0,0-.26-3c-.37-.73-1.08-1.25-1.4-2.06a26.19,26.19,0,0,0-.71-2.84,8.58,8.58,0,0,0-1.51-1.74,3.86,3.86,0,0,1-.73-3.08,3.85,3.85,0,0,0-.13-1.66C298.11,127.17,297.42,127.29,296.79,127.64Z" style="fill:#9e6767"></path><path d="M257.87,189.17c7.93-.43,10.75-.51,16.32-.51,13.74,0,18.88.22,18.88.22l-.78-3.44s3.41,3,9.45,2.25,8.49-3.38,8.49-3.38a40.45,40.45,0,0,1,3.76,9.46c1.09,4.77,1,7.64-1.8,10.12s-11,4.2-19.32,5.26-18.2,2.95-18.2,2.95Z" style="fill:#ebebeb"></path><path d="M283.86,207.11c-7.89-2-17.62-10.44-17.62-10.44l-4.15-1.74,12.58,17.17s9.9-1.9,18.2-2.95a82.64,82.64,0,0,0,14.82-3C307.34,206.22,291.67,209.08,283.86,207.11Z" style="fill:#e0e0e0"></path><path d="M293.07,188.88c1,1.89,10.24,4.49,15,2.85s5.45-3.45,5-4.5-1.64-.94-1.69-2.83-.4-2.37-1.36-3.21-1-4-3.24-3.3l.82,2a17.26,17.26,0,0,1-8.68,3.5c-5.48.67-7.87-1.44-7.87-1.44l-.41-1.23a1.56,1.56,0,0,0-.78,1.81c.34,1.21,1.59,2.33,1.26,3.59S292,188.07,293.07,188.88Z" style="fill:#e0e0e0"></path><path d="M288.94,147a17.09,17.09,0,0,1,1,9.42,7.08,7.08,0,0,0,1.54-4.68A6.63,6.63,0,0,0,288.94,147Z" style="fill:#874c4c"></path><path d="M217,237.11a37.08,37.08,0,0,0-2.2-12.37c-2.12-6.43-1.42-14-1.64-19.44-.33-8.1,5.51-14.35,8.11-15.88,0,0,6.37-1,16.06-2s20.5,1.71,20.5,1.71c5,4,8.4,6.62,14.51,15.31,3.66,5.22,6,14.25-1.5,21,.14,1.66,1,5.11.71,16.37,1.85,4.7,3.45,6,2.16,11.38,0,0-8.56,9.63-28.18,9.27-22.1-.4-29-8.52-31.22-10.18C211.49,250.1,217.08,241.53,217,237.11Z" style="fill:#f5f5f5"></path><path d="M214.35,252.34a2.14,2.14,0,0,1-.81-1.26,4.91,4.91,0,0,1-.09-1.53,16.81,16.81,0,0,1,.58-3c.57-1.94,1.3-3.82,1.86-5.73a19.67,19.67,0,0,0,.66-2.86,19.05,19.05,0,0,0,0-2.92,34.23,34.23,0,0,0-.94-5.86c-.22-1-.47-1.93-.75-2.89s-.6-1.9-.86-2.9a32.4,32.4,0,0,1-.9-6c-.11-2-.11-4-.07-6s.16-4,.2-6c.33,4,.23,8,.64,12a41,41,0,0,0,1,5.86c.26.94.59,1.88.89,2.86s.57,1.94.82,2.93a37.13,37.13,0,0,1,.87,6,20,20,0,0,1,0,3.09,15.45,15.45,0,0,1-.78,3c-.67,1.91-1.46,3.76-2.12,5.64a16.07,16.07,0,0,0-.79,2.87A3,3,0,0,0,214.35,252.34Z" style="fill:#e0e0e0"></path><path d="M259.75,227.25c1.12-9.58-.87-13.69-3-18-.33-.69-.67-1.38-1-2.11l-1,.43c.33.74.67,1.44,1,2.13,2.13,4.39,4,8.18,2.88,17.45-.9,7.69-.44,22.29.16,33.95l1-.28C259.31,249.22,258.86,234.82,259.75,227.25Z" style="fill:#e0e0e0"></path><path d="M221.31,189.42c-11.32,2.36-15.27,7-20.71,15.85s-13.19,34.95-13.19,34.95,5.14,3.55,13.19-2.4,19.63-21.38,19.63-21.38S228.88,202.78,221.31,189.42Z" style="fill:#ebebeb"></path><path d="M253.11,226.52s-6,6.67-14.41,5.31a14.38,14.38,0,0,1-8.43-4.36.58.58,0,0,0-.92.69c1.47,2.56,4.33,5.41,9.87,6.07C249.42,235.44,253.11,226.52,253.11,226.52Z" style="fill:#e0e0e0"></path><path d="M255.48,143.13c3.08,1.24,4.44,3,6.71,19.11,1.77,12.52-.88,16.34-4.25,18.13a18.28,18.28,0,0,1-7.69,2l.74,6.2s8.15,10.94,5.51,21.5c-16.44-9.4-24.58-21.28-24.58-21.28l-2-14.75a4.62,4.62,0,0,1-5.67.33c-2.72-1.77-4.77-6.51-2.68-9.4s6.27-2.05,7.91.25,3.82,2.28,3.4-2.23-2.09-12.65,3.2-16.9C246.31,145.05,246.88,153.35,255.48,143.13Z" style="fill:#9e6767"></path><path d="M245.61,170.4l5.52,1.4a2.74,2.74,0,0,1-3.36,2.11A3,3,0,0,1,245.61,170.4Z" style="fill:#874c4c"></path><polygon points="248.31 156.73 250.16 168.13 255.75 166.09 248.31 156.73" style="fill:#874c4c"></polygon><path d="M250.25,182.4c-4.15.09-11.78.1-16.54-5.44,0,0,1.78,4,4.76,5.54,4.18,2.08,12,1.75,12,1.75Z" style="fill:#874c4c"></path><path d="M249,173.92a2.55,2.55,0,0,0-2.76-2.29,2.36,2.36,0,0,0-.61.14,3,3,0,0,0,2.11,2.14A2.82,2.82,0,0,0,249,173.92Z" style="fill:#ffa8a7"></path></g><g id="Hand"><path d="M206,187.35c1.57-2.81,3.21-5.68,3.77-9.68s3.26-7.9,4.15-9.49,2.93-4,4.43-6.24,2-2.87,4.39-3.55c3.34-.93,5.95-1.74,7.32-1.48s1.43,1.15.4,2.45-3.44,1.83-4.18,2.14-2.31,1.21-2.31,1.21l-2.67,5s5.45.43,6.55.89,2.28,3.08,2,4.62c0,0,2.1,1.12,1.53,3.13,0,0,1.36,1.44.67,2.8a20.35,20.35,0,0,1-2.81,3.86c-.59.63-3.15,1-3.15,1a23.72,23.72,0,0,1-3.54,5.1c-1.69,1.55-2.9,1.58-4.61,4.63Z" style="fill:#9e6767"></path><path d="M223.75,167.9c1.21-.67,1.4-1.56,2.64-1.23s.93,1.74.93,1.74Z" style="fill:#874c4c"></path><path d="M229.81,173.3a12.5,12.5,0,0,0-2.78-1.4c-.91-.34-2.8-.79-2.8-.79a13,13,0,0,1,3.79.49,11.36,11.36,0,0,1,1.84.69,3.25,3.25,0,0,1,0,.89Z" style="fill:#874c4c"></path><path d="M230.17,175.08a11.23,11.23,0,0,1,1.29.49,4.12,4.12,0,0,1-.12.89c-.8-.92-3.57-1.75-3.57-1.75A11.06,11.06,0,0,1,230.17,175.08Z" style="fill:#874c4c"></path><path d="M225.66,184.76a26.83,26.83,0,0,1,2.17-4.47,1.94,1.94,0,0,1,2.59-.52c.39.47-1.35.59-1.83.86A16.64,16.64,0,0,0,225.66,184.76Z" style="fill:#874c4c"></path><path d="M219.82,167.69s.84-1.48,2.36-3.86,1.45-2.05,3.11-2.56,4.82-1.42,5.59-2.53a5.68,5.68,0,0,1-.42.62c-1,1.26-3.44,1.83-4.18,2.14s-2.31,1.21-2.31,1.21l-2.74,5.11Z" style="fill:#874c4c"></path><path d="M206,187.35c-5,7.48-18.65,25.64-21.53,32.61-2,4.81-1.5,15.47,1.41,19.06s9.93,1.23,15.21-4.48c4.56-4.93,7.64-16,10.5-23.9s6.33-16.9,6.33-16.9Z" style="fill:#9e6767"></path><path d="M206,187.35a35.61,35.61,0,0,0,2.81-5.92,19.11,19.11,0,0,0,.8-3.17,16.92,16.92,0,0,1,.72-3.21,29.92,29.92,0,0,1,2.9-5.9,45.91,45.91,0,0,1,3.71-5.42c.66-.88,1.26-1.78,1.88-2.7a5.75,5.75,0,0,1,2.4-2.26,28.63,28.63,0,0,1,3.15-1c1.06-.29,2.11-.59,3.19-.82a9.12,9.12,0,0,1,1.65-.24,2.8,2.8,0,0,1,1.68.34,1,1,0,0,1,.44.82,2,2,0,0,1-.26.85A3.89,3.89,0,0,1,230,160a10.33,10.33,0,0,1-3,1.41,17,17,0,0,0-2.92,1.41l.06-.07-2.67,5-.13-.22a59.06,59.06,0,0,1,5.92.73,3.3,3.3,0,0,1,.74.22,2.32,2.32,0,0,1,.62.49,5.46,5.46,0,0,1,.82,1.28,5.22,5.22,0,0,1,.54,3l-.06-.13a3.88,3.88,0,0,1,1.37,1.36,2.59,2.59,0,0,1,.3.94,2.86,2.86,0,0,1-.09,1l0-.11a2.87,2.87,0,0,1,.8,2.68,12.54,12.54,0,0,1-1.51,2.39c-.28.37-.57.74-.87,1.1a3.34,3.34,0,0,1-1.05,1,11.93,11.93,0,0,1-2.72.74l.06,0a32,32,0,0,1-1.67,2.75,13.19,13.19,0,0,1-2.06,2.47c-.81.72-1.76,1.22-2.56,1.94a10.2,10.2,0,0,0-1.94,2.53,10.18,10.18,0,0,1,1.91-2.56c.79-.74,1.74-1.26,2.53-2a12.93,12.93,0,0,0,2-2.47c.59-.89,1.13-1.82,1.63-2.76l0,0h0a10.91,10.91,0,0,0,2.66-.73c.43-.17.67-.57,1-.92s.58-.72.86-1.09a12,12,0,0,0,1.46-2.34,2.65,2.65,0,0,0-.75-2.45l-.05,0,0-.06a2.27,2.27,0,0,0-.2-1.73,3.51,3.51,0,0,0-1.28-1.26l-.07,0v-.08a5,5,0,0,0-.54-2.8c-.42-.86-1-1.76-2-1.84a57.52,57.52,0,0,0-5.88-.7l-.23,0,.11-.2,2.65-5,0,0,0,0a17.47,17.47,0,0,1,3-1.45,10,10,0,0,0,2.92-1.34,3.64,3.64,0,0,0,1-1.19c.26-.45.35-1-.08-1.26a4.59,4.59,0,0,0-3.09-.07c-1.06.22-2.12.51-3.17.81a26.12,26.12,0,0,0-3.11,1,5.42,5.42,0,0,0-2.32,2.16c-.61.9-1.23,1.81-1.89,2.69a46,46,0,0,0-3.72,5.38,30.43,30.43,0,0,0-2.92,5.85,16.35,16.35,0,0,0-.75,3.18,19.64,19.64,0,0,1-.85,3.18A37,37,0,0,1,206,187.35Z" style="fill:#874c4c"></path></g><path d="M231.54,186l.18,1.33S239,198.69,256.5,210.1c-7.06-.42-18.75-4.43-19.06-5.35a30.91,30.91,0,0,1-.31-4.86L224.41,189Z" style="fill:#e0e0e0"></path><path d="M256.5,210.1s4.4-5.72,4.4-10c0-1.38-4.4-4-4.4-4l-.3-6.88-5.42-2.47.21,1.83A36.3,36.3,0,0,1,256.5,210.1Z" style="fill:#e0e0e0"></path><path d="M187.69,214c-1,6.85,6.32,11.48,11.63,11.94s7.49-1.84,7.49-1.84l.55-1.44s1.64,1.15-.92,4.48-1.75,6.06-3.07,7.87c-4.14,5.68-10.8,7.78-16,5.17s-4.71-13.11-4.59-16.5.33-5.63,1.69-7.28,2.3-6.56,4.82-5Z" style="fill:#e0e0e0"></path><path d="M244.12,160.29a1.83,1.83,0,1,1-1.83-1.84A1.83,1.83,0,0,1,244.12,160.29Z" style="fill:#263238"></path><path d="M258.19,158.28a1.83,1.83,0,1,1-1.56-2.06A1.84,1.84,0,0,1,258.19,158.28Z" style="fill:#263238"></path><path d="M254.26,151.58a2.62,2.62,0,0,0-.83,3.61,8.14,8.14,0,0,1,4.44-2.78A2.62,2.62,0,0,0,254.26,151.58Z" style="fill:#263238"></path><path d="M237.56,152.21a2.62,2.62,0,0,0-.57,3.66,8.16,8.16,0,0,1,4.23-3.09A2.62,2.62,0,0,0,237.56,152.21Z" style="fill:#263238"></path></g></g></g></g><g id="character-1"><g id="Chartacter"><g id="bottom"><polygon points="129.53 400.08 135.41 397.84 133.47 393.87 129.86 397.26 129.53 400.08"></polygon><path d="M123.4,389.5s-.21,3.83-.26,5,5.12,4.93,6.4,5.54l.32-2.82a22.09,22.09,0,0,1,3,4.55c1,1.72,2.28,5,5,7.18,4.06,3.27,10.36,4.91,16.79,5.12s10.1-1.4,11.92-2.8,2.39-3,1.93-4.66S123.4,389.5,123.4,389.5Z" style="fill:#263238"></path><path d="M140.53,376.35l.07-2.23c1.18,0,1.34,3.18,3.08,6a57.37,57.37,0,0,0,9.1,11.53c6.54,5.9,12.37,9.6,15.29,12.26,3.91,3.56-2.9,9.28-13.39,8.74-5.2-.27-14.46-2.84-17.08-5.9s-4.23-7.85-6.32-10.08-6.57-4.46-7.88-7.16c-.72-1.49-.36-5,0-7.93.38-2.71.44-6.87,2-6.54l.12,1.39c.63,1.19,2.09,3.14,6.29,3.83C133.93,380.59,140.18,380.75,140.53,376.35Z" style="fill:#37474f"></path><path d="M135.2,380.34c2-.18,4.15-.85,5-2.66l0-.06a5.08,5.08,0,0,0,1.37,4.26c1.89,2.19,13.81,17.61,13.81,17.61s-11.09-12.71-13.21-15.11c-3.15-3.54-4.14-3.95-7-4Z" style="opacity:0.15"></path><path d="M137.84,384.43a.65.65,0,0,1-.71.57.64.64,0,1,1,.71-.57Z" style="opacity:0.15"></path><path d="M141,387.84a.64.64,0,1,1-.57-.71A.66.66,0,0,1,141,387.84Z" style="opacity:0.15"></path><path d="M144.06,391.24a.64.64,0,0,1-1.28-.13.65.65,0,0,1,.71-.57A.64.64,0,0,1,144.06,391.24Z" style="opacity:0.15"></path><path d="M147.17,394.65a.64.64,0,1,1-.57-.7A.63.63,0,0,1,147.17,394.65Z" style="opacity:0.15"></path><path d="M150.28,398.06a.64.64,0,1,1-.57-.71A.65.65,0,0,1,150.28,398.06Z" style="opacity:0.15"></path><path d="M137.18,384.62a.26.26,0,0,1-.16-.44c.13-.13,3.2-3.12,7.23-2.9h0a.26.26,0,0,1,0,.51c-3.82-.2-6.82,2.73-6.85,2.76A.26.26,0,0,1,137.18,384.62Z" style="fill:#263238"></path><path d="M140.29,388a.25.25,0,0,1-.16-.08.25.25,0,0,1,0-.36,10.56,10.56,0,0,1,7.24-2.91h0a.26.26,0,0,1,.24.27.26.26,0,0,1-.27.25c-3.81-.21-6.82,2.72-6.85,2.75A.26.26,0,0,1,140.29,388Z" style="fill:#263238"></path><path d="M143.4,391.43a.24.24,0,0,1-.16-.07.27.27,0,0,1,0-.37c.13-.12,3.2-3.11,7.24-2.9h0a.26.26,0,0,1,.24.27.27.27,0,0,1-.27.25c-3.81-.21-6.82,2.72-6.85,2.75A.25.25,0,0,1,143.4,391.43Z" style="fill:#263238"></path><path d="M146.51,394.84a.24.24,0,0,1-.16-.07.27.27,0,0,1,0-.37,10.52,10.52,0,0,1,7.24-2.9h0a.26.26,0,0,1,0,.51c-3.81-.2-6.82,2.73-6.85,2.76A.25.25,0,0,1,146.51,394.84Z" style="fill:#263238"></path><path d="M149.62,398.25a.27.27,0,0,1-.16-.08.25.25,0,0,1,0-.36,10.56,10.56,0,0,1,7.24-2.91h0a.26.26,0,0,1,.24.28.25.25,0,0,1-.27.24c-3.8-.2-6.82,2.72-6.84,2.75A.28.28,0,0,1,149.62,398.25Z" style="fill:#263238"></path><path d="M81.46,418.59c-.89,5-2.07,8.27-4.22,11s-6,3.06-8.85,2.46c-4-.84-8-3.63-9.51-9.38-.92-3.46-.29-7.42,1-12Z" style="fill:#263238"></path><path d="M70.3,380.09c-1.42-.06-2.65,6.67-4.27,13.36-1.73,7.17-4.44,11-5.75,15.79-1.82,6.68-1.71,9.8.19,14.2s11.77,9.78,16.63,4.38c4-4.41,4.75-9.73,5.25-16.57a173.07,173.07,0,0,1,1.74-17.36c.89-5.07,1.83-10,.67-10.68-.18.73-.39,1.67-.58,2.4-.14.55-.61,3.3-1.4,3.23a10.45,10.45,0,0,1,.21-1.92,2.29,2.29,0,0,0-.19-1.69,2.66,2.66,0,0,0-1.48-.89,41.92,41.92,0,0,0-4.12-1.15c-.69-.14-1.39-.26-2.1-.34a23.26,23.26,0,0,0-3.71-.28,1.24,1.24,0,0,0-.85.6,2.47,2.47,0,0,0-.17.77,5.57,5.57,0,0,1-.34,1.38c-.07.19-.24.42-.44.35s-.2-.27-.18-.44c.09-.83.27-1.41.42-2.36.07-.44.22-1,.27-1.48S70.22,380.52,70.3,380.09Z" style="fill:#37474f"></path><path d="M65.25,411.54a.49.49,0,0,0,.37.59.5.5,0,1,0,.22-1A.49.49,0,0,0,65.25,411.54Z" style="opacity:0.15"></path><path d="M66.28,406.89a.5.5,0,0,0,.38.6.5.5,0,1,0-.38-.6Z" style="opacity:0.15"></path><path d="M67.25,402.51a.5.5,0,1,0,1,.21.5.5,0,1,0-1-.21Z" style="opacity:0.15"></path><path d="M68.21,398.19a.5.5,0,1,0,.6-.38A.5.5,0,0,0,68.21,398.19Z" style="opacity:0.15"></path><path d="M79.29,400.21a.5.5,0,0,0,1,.22.5.5,0,0,0-.38-.6A.5.5,0,0,0,79.29,400.21Z" style="opacity:0.15"></path><path d="M78.32,404.56a.5.5,0,1,0,1,.22.49.49,0,0,0-.37-.59A.5.5,0,0,0,78.32,404.56Z" style="opacity:0.15"></path><path d="M77.35,409a.5.5,0,1,0,.59-.38A.49.49,0,0,0,77.35,409Z" style="opacity:0.15"></path><path d="M76.32,413.6a.49.49,0,1,0,.59-.38A.49.49,0,0,0,76.32,413.6Z" style="opacity:0.15"></path><polygon points="71.9 415.32 79.6 382.95 77.78 382.7 71.9 415.32" style="opacity:0.15"></polygon><path d="M65.68,411.9h.08c3.34-.34,8.86.66,10.91,2a.25.25,0,0,0,.35-.07.25.25,0,0,0-.08-.35c-2.17-1.4-7.73-2.41-11.23-2.06a.25.25,0,0,0-.23.27A.27.27,0,0,0,65.68,411.9Z" style="fill:#263238"></path><path d="M66.71,407.25a.19.19,0,0,0,.13,0c2.63-.88,8.52.49,10.86,2a.25.25,0,0,0,.35-.08.26.26,0,0,0-.07-.35c-2.45-1.57-8.53-3-11.3-2.05a.25.25,0,0,0-.15.32A.24.24,0,0,0,66.71,407.25Z" style="fill:#263238"></path><path d="M67.69,402.86h.13c2.62-.88,8.51.48,10.86,2a.26.26,0,0,0,.35-.07.26.26,0,0,0-.08-.35c-2.44-1.58-8.52-3-11.29-2.05a.25.25,0,0,0-.16.32A.24.24,0,0,0,67.69,402.86Z" style="fill:#263238"></path><path d="M68.65,398.54a.2.2,0,0,0,.13,0c2.63-.88,8.52.49,10.86,2a.25.25,0,0,0,.35-.08.25.25,0,0,0-.08-.34c-2.44-1.58-8.52-3-11.29-2.06a.26.26,0,0,0-.16.32A.25.25,0,0,0,68.65,398.54Z" style="fill:#263238"></path><path d="M79.16,219.83c-3.29,41.7-6.53,93.75-6.53,93.75-.29,3.17-3.34,16.68-4.87,32.31-1.61,16.48-2.92,47.35-2.92,47.35s11.53,6.2,20.86,3.08c0,0,10-52,14.81-71.41,4.53-18.38,11.62-47.78,11.62-47.78l4.83,29s-.64,11.89-.29,20.2c.41,9.68,6.58,56.17,6.58,56.17s12.54,7.38,22.24,0c0,0,1.68-64.12,1.95-75.75.54-22.83-2.13-61.63-3-91.1Z" style="fill:#263238"></path><path d="M94.9,268.53q-1.31,15-2.92,30c-.52,5-3.32,23.2-3.51,24.44-1.64,9.9-4.17,27.87-6,37.74s-3.7,19.72-5.74,29.55q2-14.93,4.28-29.78c1.54-9.9,4-27.89,5.66-37.77.19-1.23,3.27-19.39,3.94-24.36Q92.64,283.4,94.9,268.53Z"></path><path d="M141.09,265.7c1,9.32,1.6,18.7,2,28.07s.76,13.33.41,22.69-.47,25.09-.82,34.46-.77,18.74-1.33,28.11q-.22-14.07-.09-28.13c.06-9.37.23-25.08.42-34.45l.18-7,0-1.75,0-1.74,0-3.52-.17-8.6-.23-14.06C141.39,275.07,141.24,270.38,141.09,265.7Z"></path><path d="M112.13,277.13l4.07-22.84s11.32-1.65,17.12-6.86c0,0-3.74,6.89-14.42,9.59l-4,20.17,2.1,29Z"></path></g><g id="top"><path d="M130.57,149.07c7.9,1.18,13.4,3.58,19.91,9.88C160,168.14,179,186.54,175,189.77c0,0-3.43,4-16.56-.53-10-3.47-24.14-10.89-24.14-10.89Z"></path><path d="M142.28,136.55s-.5-.26-.63-1.35,0-1.84-.16-3-.63-3.2-1.73-3.46c-1.93-.45-1.7,2.32-1.77,4.39a9.27,9.27,0,0,1-1.51,5.61c-1.41,2.32-2.6,5.3-1.22,7.94Z" style="fill:#f0997a"></path><path d="M149.77,132.54c-.58-2-.48-4.57-.68-6.18a17.17,17.17,0,0,0-1.32-4.59c-.64-1.61-1.13-3.71-1.7-3.92s-1.55.42-1.52,1.69c0,0-.74-.94-1.37-1.92s-1.06-2.19-2-2.41-1.36,1.22-1,2.22.55,1.58.55,1.58-.89.4-.12,2.22a8.68,8.68,0,0,0,1.23,2,8.62,8.62,0,0,0,1,3.22A17.32,17.32,0,0,0,144,130a9.77,9.77,0,0,0-1.1,3.73c0,1.65.26,2-1.65,4-1.29,1.33-3.49,2.84-4.71,4.68s-2.05,3.77-.51,6.16,2.75,4.12,4.2,6.64c1.09,1.9,2.18,4.42,6.71,13.43,3.53,7,3.82,7.87,5.54,10.41,2.4,3.54,5.17,8.14,11.34,10.63s13.26,1.66,12.35-3.5c-1.1-6.19-2.92-11-5.69-14.35a63.68,63.68,0,0,0-7.42-7.54c-3-2.81-5.36-5.73-9.06-9.73s-6.21-7.81-6.2-9.16a30.77,30.77,0,0,1,1.57-7.29C150.16,135.52,150.56,135.62,149.77,132.54Z" style="fill:#ffbda7"></path><path d="M144.55,119.54a10.37,10.37,0,0,0,.47,1.65,16.51,16.51,0,0,0,.65,1.56l0,.08,0,.11a8.83,8.83,0,0,0-.07.91,7,7,0,0,0,.07.92,5.63,5.63,0,0,0,.53,1.75l.06.14-.05.11a4.32,4.32,0,0,0-.26.66,5.53,5.53,0,0,0-.18.7c0,.24-.09.48-.11.73s0,.49,0,.75a4.31,4.31,0,0,1-.22-1.52,4.11,4.11,0,0,1,.07-.78,4.94,4.94,0,0,1,.21-.77v.25a5.32,5.32,0,0,1-.69-1.93,5.81,5.81,0,0,1-.05-1,4.54,4.54,0,0,1,.13-1l0,.18a9.17,9.17,0,0,1-.49-1.7A5.73,5.73,0,0,1,144.55,119.54Z" style="fill:#f0997a"></path><path d="M140.73,119a4.59,4.59,0,0,0,.61.77,6,6,0,0,0,.72.63l.05,0,0,.09a7.59,7.59,0,0,0,.77,1.89,5.38,5.38,0,0,0,1.27,1.53l.16.13-.05.2a6.63,6.63,0,0,0-.12,1.12,9.06,9.06,0,0,0,0,1.16c.05.39.1.78.19,1.17s.2.77.3,1.17a7.42,7.42,0,0,1-.57-1.08,7.09,7.09,0,0,1-.39-1.18,6.48,6.48,0,0,1-.16-1.24,4.7,4.7,0,0,1,.1-1.28l.11.33a4.34,4.34,0,0,1-.81-.79,5.29,5.29,0,0,1-.61-1,6.51,6.51,0,0,1-.64-2.12l.08.13a4.47,4.47,0,0,1-.65-.8A3.48,3.48,0,0,1,140.73,119Z" style="fill:#f0997a"></path><path d="M144.47,132.2a4.78,4.78,0,0,1-.56,2.12,6.94,6.94,0,0,1-1.32,1.76c.15-.34.34-.65.51-1s.35-.62.51-.94A14.48,14.48,0,0,0,144.47,132.2Z" style="fill:#f0997a"></path><path d="M138.12,140.45a9.25,9.25,0,0,0-.49,3.86,7.23,7.23,0,0,0,.47,1.87A14.77,14.77,0,0,0,139,148a5.34,5.34,0,0,1-1.35-1.56,5.24,5.24,0,0,1-.66-2A5.35,5.35,0,0,1,138.12,140.45Z" style="fill:#f0997a"></path><g id="chest"><path id="chest" d="M95.61,146c-10.17,2.28-13.22,3.27-18,4.39,0,0-8.46,8.57-2.22,40.62.8,4.11,1.91,17.71,2.59,26.37a103.61,103.61,0,0,1,0,16.79s13.61,9.55,42.07,6.64c22.35-2.29,25-10.61,25-10.61s-1.41-27.06-2.44-43.56c-1.34-21.67-9.53-34.63-12-37.58-.8-.46-16-2.74-16-2.74Z" style="fill:#455a64"></path></g><g id="head"><path d="M90.67,101.64s-3.29.21-5.49,4.32c-1.11,2.07-1.94,5.86.89,16.76a43.8,43.8,0,0,0,5.07,12.05,5.38,5.38,0,0,0,3.09,2.53L94.12,129l-.24-5.82s4.75-4.2,5.2-8.37c.59-5.38-1.47-8.45-1.47-8.45Z" style="fill:#37474f"></path><path d="M89.53,101.9c.88-4.68,6.9-10.21,18.39-10.68,9.41-.38,14.88,2.92,18.08,8.45s1,12.61,1,12.61L97.43,110Z" style="fill:#37474f"></path><path d="M86.46,131.3c4.3,2.16,6.32-1.24,6.32-1.24l.43,18.75c8.16,11.22,30.38,7,21.39-1.41l0-5.28a31.44,31.44,0,0,0,3.76-.36,10,10,0,0,0,8.21-7.34c1.76-6.12,1.8-16-.38-26.45-.42-2-1.26-4.23-3.1-5.17-4.57-2.33-8.86.89-15.3,3.31-2.66,1-9.1,1.37-10.79.56,2.21,2.49.84,8.86.22,10.88-.9,2.91-2.15,4.31-2.75,4.43-2.63.52-2.91-1.74-4.07-3a4.83,4.83,0,0,0-7.53,1.63A7.86,7.86,0,0,0,86.46,131.3Z" style="fill:#ffbda7"></path><path d="M98.34,137c.85,4.25,6.55,7.11,16.28,7.46v-2.3a44.82,44.82,0,0,1-7.12-.74C103,140.57,98.34,137,98.34,137Z" style="fill:#f0997a"></path><path d="M107.66,112.33,103.89,115a2.4,2.4,0,0,1,.59-3.29A2.24,2.24,0,0,1,107.66,112.33Z" style="fill:#37474f"></path><path d="M124.55,112.57l-4.24-1.9a2.23,2.23,0,0,1,3-1.23A2.46,2.46,0,0,1,124.55,112.57Z" style="fill:#37474f"></path><path d="M106.48,118.55a1.88,1.88,0,1,0,1.84-1.92A1.89,1.89,0,0,0,106.48,118.55Z" style="fill:#263238"></path><path d="M111.34,130.82a1.41,1.41,0,1,0,2.81-.07,1.41,1.41,0,1,0-2.81.07Z" style="fill:#9e6767"></path><path d="M119.89,116.68a1.88,1.88,0,1,0,1.83-1.93A1.71,1.71,0,0,0,119.89,116.68Z" style="fill:#263238"></path><path d="M114.17,113.86,116.09,126l6.55-2.48C120.61,118.86,116.92,115.93,114.17,113.86Z" style="fill:#f0997a"></path></g><g id="hand"><path d="M77.57,150.4c-7.31,1.2-11.07,4.65-14.69,13.92-3.51,9-11.2,29.35-9.11,37.53S76,194.28,76,194.28l8.79-23.67S82.9,153.37,77.57,150.4Z" style="fill:#37474f"></path><path d="M78.36,161.71c1.7-2.71,3.47-5.48,4.23-9.42s3.63-7.68,4.59-9.21,3.1-3.81,4.7-6,2.08-2.76,4.53-3.31c3.36-.76,6-1.44,7.35-1.1s1.36,1.2.27,2.44-3.51,1.65-4.25,1.92-2.36,1.08-2.36,1.08l-2.89,4.8s5.38.7,6.45,1.21,2.12,3.17,1.74,4.68c0,0,2,1.22,1.36,3.18,0,0,1.28,1.5.53,2.82a20.82,20.82,0,0,1-3,3.69c-.62.59-3.18.87-3.18.87a23.51,23.51,0,0,1-3.76,4.88c-1.76,1.46-3,1.44-4.81,4.38Z" style="fill:#ffbda7"></path><path d="M97,143.29c1.23-.61,1.46-1.48,2.68-1.09s.83,1.77.83,1.77Z" style="fill:#f0997a"></path><path d="M102.69,149a12.34,12.34,0,0,0-2.68-1.53c-.9-.38-2.75-.92-2.75-.92a13.17,13.17,0,0,1,3.74.67,10.29,10.29,0,0,1,1.79.78,2.76,2.76,0,0,1-.07.88Z" style="fill:#f0997a"></path><path d="M103,150.74a8.16,8.16,0,0,1,1.25.55,3.53,3.53,0,0,1-.15.87c-.75-1-3.47-1.91-3.47-1.91A10.62,10.62,0,0,1,103,150.74Z" style="fill:#f0997a"></path><path d="M98,160.11a26.11,26.11,0,0,1,2.38-4.33,1.91,1.91,0,0,1,2.58-.38c.37.49-1.36.52-1.86.77A16.9,16.9,0,0,0,98,160.11Z" style="fill:#f0997a"></path><path d="M93.06,142.88s.9-1.43,2.53-3.71,1.54-2,3.22-2.39,4.85-1.16,5.67-2.23a6.2,6.2,0,0,1-.45.59c-1.06,1.2-3.51,1.65-4.25,1.92s-2.36,1.08-2.36,1.08l-3,4.94Z" style="fill:#f0997a"></path><path d="M78.36,161.71c-5.33,7.18-19.78,24.53-23,31.29-2.21,4.68-2.26,15.29.45,19s9.79,1.71,15.32-3.7c4.77-4.67,8.37-15.47,11.6-23.19s7.13-16.46,7.13-16.46Z" style="fill:#ffbda7"></path><path d="M78.36,161.71A36.07,36.07,0,0,0,81.45,156a19.49,19.49,0,0,0,1-3.1,16.34,16.34,0,0,1,.87-3.15A30,30,0,0,1,86.44,144a46.59,46.59,0,0,1,4-5.2c.69-.84,1.34-1.71,2-2.58a5.7,5.7,0,0,1,2.5-2.13,28,28,0,0,1,3.18-.82c1.06-.24,2.12-.49,3.2-.67a11.24,11.24,0,0,1,1.65-.15,2.81,2.81,0,0,1,1.65.42,1,1,0,0,1,.4.84,1.88,1.88,0,0,1-.3.83,4,4,0,0,1-1.15,1.24,10.29,10.29,0,0,1-3.06,1.25,17,17,0,0,0-3,1.25l.07-.06L94.66,143l-.11-.23a58.29,58.29,0,0,1,5.83,1,3,3,0,0,1,.73.26,2.07,2.07,0,0,1,.59.51,5.89,5.89,0,0,1,1.14,4.28l-.06-.14a3.74,3.74,0,0,1,1.29,1.42,2.39,2.39,0,0,1,.25,1,2.43,2.43,0,0,1-.13,1l0-.11a2.85,2.85,0,0,1,.65,2.69,12.55,12.55,0,0,1-1.61,2.31c-.3.35-.6.7-.92,1a3.08,3.08,0,0,1-1.09.9,11.29,11.29,0,0,1-2.74.6l.07,0c-.56.91-1.15,1.79-1.79,2.65a12.72,12.72,0,0,1-2.18,2.34c-.83.67-1.81,1.13-2.63,1.8a9.91,9.91,0,0,0-2.05,2.42,9.93,9.93,0,0,1,2-2.45c.82-.69,1.79-1.16,2.61-1.84A13.14,13.14,0,0,0,96.63,162c.62-.86,1.2-1.75,1.75-2.66l0,0h0a11.46,11.46,0,0,0,2.68-.6,3,3,0,0,0,1-.86c.31-.34.61-.69.91-1a12.58,12.58,0,0,0,1.56-2.25,2.64,2.64,0,0,0-.62-2.47l0-.05V152a2.4,2.4,0,0,0,.12-.88,2.11,2.11,0,0,0-.23-.85,3.52,3.52,0,0,0-1.2-1.31l-.08-.05,0-.09a5.08,5.08,0,0,0-.39-2.81c-.38-.87-.9-1.79-1.9-1.92-1.89-.46-3.86-.71-5.8-1l-.23,0,.12-.2,2.88-4.8,0,0,0,0a16.93,16.93,0,0,1,3-1.29,10.44,10.44,0,0,0,3-1.19,3.67,3.67,0,0,0,1-1.13c.28-.43.4-1,0-1.26a4.54,4.54,0,0,0-3.06-.22c-1.07.17-2.13.41-3.19.64a28.85,28.85,0,0,0-3.14.8,5.48,5.48,0,0,0-2.4,2c-.65.86-1.31,1.74-2,2.58a45.06,45.06,0,0,0-4,5.16,29.43,29.43,0,0,0-3.18,5.66,16.58,16.58,0,0,0-.91,3.11,19.86,19.86,0,0,1-1,3.12A36.48,36.48,0,0,1,78.36,161.71Z" style="fill:#f0997a"></path></g></g></g></g></svg>