<svg xmlns="http://www.w3.org/2000/svg" viewBox="0 0 500 500"><g id="background-simple"><path d="M473.36,228.6S430.92,94.2,338.69,52.7c-81.4-36.64-172.52-20.58-210.62,63.47-13.57,30-31.21,62.26-52.36,86.86C52,230.61,20.17,249.83,19.2,316.72s58.09,145.92,113.57,163S256,462.6,313.17,430.12,520.58,397.07,473.36,228.6Z" style="fill:#92E3A9"></path><path d="M473.36,228.6S430.92,94.2,338.69,52.7c-81.4-36.64-172.52-20.58-210.62,63.47-13.57,30-31.21,62.26-52.36,86.86C52,230.61,20.17,249.83,19.2,316.72s58.09,145.92,113.57,163S256,462.6,313.17,430.12,520.58,397.07,473.36,228.6Z" style="fill:#fff;opacity:0.7000000000000001"></path></g><g id="Hotel"><g style="opacity:0.30000000000000004"><path d="M394.15,135.84V119.42H327.6a33.22,33.22,0,1,0-62.22,0H198.83v16.42H155.31V338.59H437.67V135.84Z" style="fill:#fff"></path><path d="M437.67,339.09H155.31a.5.5,0,0,1-.5-.5V135.84a.51.51,0,0,1,.5-.5h43V119.42a.5.5,0,0,1,.5-.5h65.84a33.72,33.72,0,1,1,63.64,0h65.84a.5.5,0,0,1,.5.5v15.92h43a.51.51,0,0,1,.5.5V338.59A.5.5,0,0,1,437.67,339.09Zm-281.86-1H437.17V136.34h-43a.5.5,0,0,1-.5-.5V119.92h-66a.48.48,0,0,1-.41-.22.47.47,0,0,1-.06-.46,32.72,32.72,0,1,0-61.28,0,.47.47,0,0,1-.06.46.48.48,0,0,1-.41.22h-66v15.92a.5.5,0,0,1-.5.5h-43Z"></path><rect x="217.62" y="180.47" width="31.88" height="56.22" style="fill:#fff"></rect><path d="M249.5,237.19H217.62a.5.5,0,0,1-.5-.5V180.47a.5.5,0,0,1,.5-.5H249.5a.5.5,0,0,1,.5.5v56.22A.5.5,0,0,1,249.5,237.19Zm-31.38-1H249V181H218.12Z"></path><rect x="232.37" y="180.47" width="2.37" height="56.22" style="fill:#fff"></rect><path d="M234.74,237.19h-2.37a.5.5,0,0,1-.5-.5V180.47a.5.5,0,0,1,.5-.5h2.37a.5.5,0,0,1,.5.5v56.22A.5.5,0,0,1,234.74,237.19Zm-1.87-1h1.37V181h-1.37Z"></path><rect x="232.37" y="184.72" width="2.37" height="30.42" transform="translate(433.49 -33.62) rotate(90)" style="fill:#fff"></rect><path d="M248.76,201.62H218.35a.5.5,0,0,1-.5-.5v-2.37a.5.5,0,0,1,.5-.5h30.41a.5.5,0,0,1,.5.5v2.37A.5.5,0,0,1,248.76,201.62Zm-29.91-1h29.41v-1.37H218.85Z"></path><rect x="232.37" y="204.03" width="2.37" height="30.42" transform="translate(452.8 -14.31) rotate(90)" style="fill:#fff"></rect><path d="M248.76,220.93H218.35a.5.5,0,0,1-.5-.5v-2.37a.5.5,0,0,1,.5-.5h30.41a.5.5,0,0,1,.5.5v2.37A.5.5,0,0,1,248.76,220.93Zm-29.91-1h29.41v-1.37H218.85Z"></path><path d="M250,174.75c-2.43-3.76-8.39-6.42-15.38-6.42s-13,2.66-15.39,6.42h-8.14v6.06h47.06v-6.06Z" style="fill:#fff"></path><path d="M258.13,181.31H211.07a.5.5,0,0,1-.5-.5v-6.06a.5.5,0,0,1,.5-.5H219c2.69-3.91,8.79-6.42,15.65-6.42s13,2.51,15.65,6.42h7.88a.5.5,0,0,1,.5.5v6.06A.5.5,0,0,1,258.13,181.31Zm-46.56-1h46.06v-5.06H250a.5.5,0,0,1-.42-.23c-2.39-3.7-8.41-6.19-15-6.19s-12.57,2.49-15,6.19a.5.5,0,0,1-.42.23h-7.64Z"></path><rect x="166.16" y="180.47" width="31.88" height="56.22" style="fill:#fff"></rect><path d="M198,237.19H166.16a.5.5,0,0,1-.5-.5V180.47a.5.5,0,0,1,.5-.5H198a.5.5,0,0,1,.5.5v56.22A.5.5,0,0,1,198,237.19Zm-31.38-1h30.88V181H166.66Z"></path><rect x="180.92" y="180.47" width="2.37" height="56.22" style="fill:#fff"></rect><path d="M183.28,237.19h-2.36a.5.5,0,0,1-.5-.5V180.47a.5.5,0,0,1,.5-.5h2.36a.5.5,0,0,1,.5.5v56.22A.5.5,0,0,1,183.28,237.19Zm-1.86-1h1.36V181h-1.36Z"></path><rect x="180.92" y="184.72" width="2.37" height="30.42" transform="translate(382.03 17.83) rotate(90)" style="fill:#fff"></rect><path d="M197.31,201.62H166.89a.51.51,0,0,1-.5-.5v-2.37a.5.5,0,0,1,.5-.5h30.42a.5.5,0,0,1,.5.5v2.37A.51.51,0,0,1,197.31,201.62Zm-29.92-1h29.42v-1.37H167.39Z"></path><rect x="180.92" y="204.03" width="2.37" height="30.42" transform="translate(401.34 37.14) rotate(90)" style="fill:#fff"></rect><path d="M197.31,220.93H166.89a.51.51,0,0,1-.5-.5v-2.37a.5.5,0,0,1,.5-.5h30.42a.5.5,0,0,1,.5.5v2.37A.51.51,0,0,1,197.31,220.93Zm-29.92-1h29.42v-1.37H167.39Z"></path><path d="M197.38,174.75C195,171,189,168.33,182,168.33s-13,2.66-15.38,6.42h-8.15v6.06h47.06v-6.06Z" style="fill:#fff"></path><path d="M205.52,181.31H158.46a.5.5,0,0,1-.5-.5v-6.06a.5.5,0,0,1,.5-.5h7.88c2.7-3.91,8.8-6.42,15.65-6.42s13,2.51,15.65,6.42h7.88a.5.5,0,0,1,.5.5v6.06A.5.5,0,0,1,205.52,181.31Zm-46.56-1H205v-5.06h-7.64A.5.5,0,0,1,197,175c-2.4-3.7-8.41-6.19-15-6.19s-12.57,2.49-15,6.19a.5.5,0,0,1-.42.23H159Z"></path><rect x="217.62" y="270.95" width="31.88" height="56.22" style="fill:#fff"></rect><path d="M249.5,327.68H217.62a.5.5,0,0,1-.5-.5V271a.5.5,0,0,1,.5-.5H249.5a.51.51,0,0,1,.5.5v56.23A.51.51,0,0,1,249.5,327.68Zm-31.38-1H249V271.45H218.12Z"></path><rect x="232.37" y="270.95" width="2.37" height="56.22" style="fill:#fff"></rect><path d="M234.74,327.68h-2.37a.51.51,0,0,1-.5-.5V271a.51.51,0,0,1,.5-.5h2.37a.5.5,0,0,1,.5.5v56.23A.5.5,0,0,1,234.74,327.68Zm-1.87-1h1.37V271.45h-1.37Z"></path><rect x="232.37" y="275.21" width="2.37" height="30.42" transform="translate(523.97 56.86) rotate(90)" style="fill:#fff"></rect><path d="M248.76,292.1H218.35a.5.5,0,0,1-.5-.5v-2.36a.5.5,0,0,1,.5-.5h30.41a.5.5,0,0,1,.5.5v2.36A.5.5,0,0,1,248.76,292.1Zm-29.91-1h29.41v-1.36H218.85Z"></path><rect x="232.37" y="294.52" width="2.37" height="30.42" transform="translate(543.28 76.17) rotate(90)" style="fill:#fff"></rect><path d="M248.76,311.41H218.35a.5.5,0,0,1-.5-.5v-2.37a.5.5,0,0,1,.5-.5h30.41a.5.5,0,0,1,.5.5v2.37A.5.5,0,0,1,248.76,311.41Zm-29.91-1h29.41V309H218.85Z"></path><path d="M250,265.24c-2.43-3.76-8.39-6.42-15.38-6.42s-13,2.66-15.39,6.42h-8.14v6.06h47.06v-6.06Z" style="fill:#fff"></path><path d="M258.13,271.8H211.07a.5.5,0,0,1-.5-.5v-6.06a.5.5,0,0,1,.5-.5H219c2.69-3.91,8.79-6.42,15.65-6.42s13,2.51,15.65,6.42h7.88a.5.5,0,0,1,.5.5v6.06A.51.51,0,0,1,258.13,271.8Zm-46.56-1h46.06v-5.06H250a.5.5,0,0,1-.42-.23c-2.39-3.7-8.41-6.19-15-6.19s-12.57,2.49-15,6.19a.5.5,0,0,1-.42.23h-7.64Z"></path><rect x="166.16" y="270.95" width="31.88" height="56.22" style="fill:#fff"></rect><path d="M198,327.68H166.16a.51.51,0,0,1-.5-.5V271a.51.51,0,0,1,.5-.5H198a.5.5,0,0,1,.5.5v56.23A.5.5,0,0,1,198,327.68Zm-31.38-1h30.88V271.45H166.66Z"></path><rect x="180.92" y="270.95" width="2.37" height="56.22" style="fill:#fff"></rect><path d="M183.28,327.68h-2.36a.5.5,0,0,1-.5-.5V271a.5.5,0,0,1,.5-.5h2.36a.5.5,0,0,1,.5.5v56.23A.5.5,0,0,1,183.28,327.68Zm-1.86-1h1.36V271.45h-1.36Z"></path><rect x="180.92" y="275.21" width="2.37" height="30.42" transform="translate(472.52 108.32) rotate(90)" style="fill:#fff"></rect><path d="M197.31,292.1H166.89a.5.5,0,0,1-.5-.5v-2.36a.5.5,0,0,1,.5-.5h30.42a.5.5,0,0,1,.5.5v2.36A.5.5,0,0,1,197.31,292.1Zm-29.92-1h29.42v-1.36H167.39Z"></path><rect x="180.92" y="294.52" width="2.37" height="30.42" transform="translate(491.83 127.63) rotate(90)" style="fill:#fff"></rect><path d="M197.31,311.41H166.89a.5.5,0,0,1-.5-.5v-2.37a.51.51,0,0,1,.5-.5h30.42a.51.51,0,0,1,.5.5v2.37A.5.5,0,0,1,197.31,311.41Zm-29.92-1h29.42V309H167.39Z"></path><path d="M197.38,265.24c-2.43-3.76-8.39-6.42-15.39-6.42s-13,2.66-15.38,6.42h-8.15v6.06h47.06v-6.06Z" style="fill:#fff"></path><path d="M205.52,271.8H158.46a.51.51,0,0,1-.5-.5v-6.06a.5.5,0,0,1,.5-.5h7.88c2.7-3.91,8.8-6.42,15.65-6.42s13,2.51,15.65,6.42h7.88a.5.5,0,0,1,.5.5v6.06A.5.5,0,0,1,205.52,271.8Zm-46.56-1H205v-5.06h-7.64a.5.5,0,0,1-.42-.23c-2.4-3.7-8.41-6.19-15-6.19s-12.57,2.49-15,6.19a.5.5,0,0,1-.42.23H159Z"></path><rect x="394.52" y="180.47" width="31.88" height="56.22" style="fill:#fff"></rect><path d="M426.4,237.19H394.52a.5.5,0,0,1-.5-.5V180.47a.5.5,0,0,1,.5-.5H426.4a.5.5,0,0,1,.5.5v56.22A.5.5,0,0,1,426.4,237.19Zm-31.38-1H425.9V181H395Z"></path><rect x="409.27" y="180.47" width="2.37" height="56.22" style="fill:#fff"></rect><path d="M411.64,237.19h-2.37a.5.5,0,0,1-.5-.5V180.47a.5.5,0,0,1,.5-.5h2.37a.5.5,0,0,1,.5.5v56.22A.5.5,0,0,1,411.64,237.19Zm-1.87-1h1.37V181h-1.37Z"></path><rect x="409.27" y="184.72" width="2.37" height="30.42" transform="translate(610.39 -210.53) rotate(90)" style="fill:#fff"></rect><path d="M425.67,201.62H395.25a.5.5,0,0,1-.5-.5v-2.37a.5.5,0,0,1,.5-.5h30.42a.5.5,0,0,1,.5.5v2.37A.51.51,0,0,1,425.67,201.62Zm-29.92-1h29.42v-1.37H395.75Z"></path><rect x="409.27" y="204.03" width="2.37" height="30.42" transform="translate(629.7 -191.22) rotate(90)" style="fill:#fff"></rect><path d="M425.67,220.93H395.25a.5.5,0,0,1-.5-.5v-2.37a.5.5,0,0,1,.5-.5h30.42a.5.5,0,0,1,.5.5v2.37A.51.51,0,0,1,425.67,220.93Zm-29.92-1h29.42v-1.37H395.75Z"></path><path d="M426.88,174.75c-2.43-3.76-8.39-6.42-15.38-6.42s-12.95,2.66-15.39,6.42H388v6.06H435v-6.06Z" style="fill:#fff"></path><path d="M435,181.31H388a.5.5,0,0,1-.5-.5v-6.06a.5.5,0,0,1,.5-.5h7.88c2.69-3.91,8.79-6.42,15.65-6.42s12.95,2.51,15.65,6.42H435a.5.5,0,0,1,.5.5v6.06A.5.5,0,0,1,435,181.31Zm-46.56-1h46.06v-5.06h-7.65a.52.52,0,0,1-.42-.23c-2.39-3.7-8.41-6.19-15-6.19s-12.57,2.49-15,6.19a.5.5,0,0,1-.42.23h-7.64Z"></path><rect x="343.06" y="180.47" width="31.88" height="56.22" style="fill:#fff"></rect><path d="M374.94,237.19H343.06a.5.5,0,0,1-.5-.5V180.47a.5.5,0,0,1,.5-.5h31.88a.5.5,0,0,1,.5.5v56.22A.5.5,0,0,1,374.94,237.19Zm-31.38-1h30.88V181H343.56Z"></path><rect x="357.82" y="180.47" width="2.37" height="56.22" style="fill:#fff"></rect><path d="M360.19,237.19h-2.37a.5.5,0,0,1-.5-.5V180.47a.5.5,0,0,1,.5-.5h2.37a.5.5,0,0,1,.5.5v56.22A.5.5,0,0,1,360.19,237.19Zm-1.87-1h1.37V181h-1.37Z"></path><rect x="357.82" y="184.72" width="2.37" height="30.42" transform="translate(558.93 -159.07) rotate(90)" style="fill:#fff"></rect><path d="M374.21,201.62H343.79a.51.51,0,0,1-.5-.5v-2.37a.5.5,0,0,1,.5-.5h30.42a.5.5,0,0,1,.5.5v2.37A.5.5,0,0,1,374.21,201.62Zm-29.92-1h29.42v-1.37H344.29Z"></path><rect x="357.82" y="204.03" width="2.37" height="30.42" transform="translate(578.24 -139.76) rotate(90)" style="fill:#fff"></rect><path d="M374.21,220.93H343.79a.51.51,0,0,1-.5-.5v-2.37a.5.5,0,0,1,.5-.5h30.42a.5.5,0,0,1,.5.5v2.37A.5.5,0,0,1,374.21,220.93Zm-29.92-1h29.42v-1.37H344.29Z"></path><path d="M374.28,174.75c-2.43-3.76-8.39-6.42-15.39-6.42s-12.95,2.66-15.38,6.42h-8.15v6.06h47.06v-6.06Z" style="fill:#fff"></path><path d="M382.42,181.31H335.37a.5.5,0,0,1-.5-.5v-6.06a.5.5,0,0,1,.5-.5h7.87c2.7-3.91,8.8-6.42,15.65-6.42s13,2.51,15.65,6.42h7.88a.5.5,0,0,1,.5.5v6.06A.5.5,0,0,1,382.42,181.31Zm-46.55-1h46.05v-5.06h-7.64a.5.5,0,0,1-.42-.23c-2.4-3.7-8.41-6.19-15-6.19s-12.57,2.49-15,6.19a.5.5,0,0,1-.42.23h-7.64Z"></path><rect x="394.52" y="270.95" width="31.88" height="56.22" style="fill:#fff"></rect><path d="M426.4,327.68H394.52a.5.5,0,0,1-.5-.5V271a.5.5,0,0,1,.5-.5H426.4a.51.51,0,0,1,.5.5v56.23A.51.51,0,0,1,426.4,327.68Zm-31.38-1H425.9V271.45H395Z"></path><rect x="409.27" y="270.95" width="2.37" height="56.22" style="fill:#fff"></rect><path d="M411.64,327.68h-2.37a.51.51,0,0,1-.5-.5V271a.51.51,0,0,1,.5-.5h2.37a.5.5,0,0,1,.5.5v56.23A.5.5,0,0,1,411.64,327.68Zm-1.87-1h1.37V271.45h-1.37Z"></path><rect x="409.27" y="275.21" width="2.37" height="30.42" transform="translate(700.88 -120.04) rotate(90)" style="fill:#fff"></rect><path d="M425.67,292.1H395.25a.5.5,0,0,1-.5-.5v-2.36a.5.5,0,0,1,.5-.5h30.42a.5.5,0,0,1,.5.5v2.36A.5.5,0,0,1,425.67,292.1Zm-29.92-1h29.42v-1.36H395.75Z"></path><rect x="409.27" y="294.52" width="2.37" height="30.42" transform="translate(720.19 -100.73) rotate(90)" style="fill:#fff"></rect><path d="M425.67,311.41H395.25a.5.5,0,0,1-.5-.5v-2.37a.5.5,0,0,1,.5-.5h30.42a.51.51,0,0,1,.5.5v2.37A.5.5,0,0,1,425.67,311.41Zm-29.92-1h29.42V309H395.75Z"></path><path d="M426.88,265.24c-2.43-3.76-8.39-6.42-15.38-6.42s-12.95,2.66-15.39,6.42H388v6.06H435v-6.06Z" style="fill:#fff"></path><path d="M435,271.8H388a.5.5,0,0,1-.5-.5v-6.06a.5.5,0,0,1,.5-.5h7.88c2.69-3.91,8.79-6.42,15.65-6.42s12.95,2.51,15.65,6.42H435a.5.5,0,0,1,.5.5v6.06A.51.51,0,0,1,435,271.8Zm-46.56-1h46.06v-5.06h-7.65a.52.52,0,0,1-.42-.23c-2.39-3.7-8.41-6.19-15-6.19s-12.57,2.49-15,6.19a.5.5,0,0,1-.42.23h-7.64Z"></path><rect x="343.06" y="270.95" width="31.88" height="56.22" style="fill:#fff"></rect><path d="M374.94,327.68H343.06a.51.51,0,0,1-.5-.5V271a.51.51,0,0,1,.5-.5h31.88a.5.5,0,0,1,.5.5v56.23A.5.5,0,0,1,374.94,327.68Zm-31.38-1h30.88V271.45H343.56Z"></path><rect x="357.82" y="270.95" width="2.37" height="56.22" style="fill:#fff"></rect><path d="M360.19,327.68h-2.37a.5.5,0,0,1-.5-.5V271a.5.5,0,0,1,.5-.5h2.37a.51.51,0,0,1,.5.5v56.23A.51.51,0,0,1,360.19,327.68Zm-1.87-1h1.37V271.45h-1.37Z"></path><rect x="357.82" y="275.21" width="2.37" height="30.42" transform="translate(649.42 -68.58) rotate(90)" style="fill:#fff"></rect><path d="M374.21,292.1H343.79a.5.5,0,0,1-.5-.5v-2.36a.5.5,0,0,1,.5-.5h30.42a.5.5,0,0,1,.5.5v2.36A.5.5,0,0,1,374.21,292.1Zm-29.92-1h29.42v-1.36H344.29Z"></path><rect x="357.82" y="294.52" width="2.37" height="30.42" transform="translate(668.73 -49.27) rotate(90)" style="fill:#fff"></rect><path d="M374.21,311.41H343.79a.5.5,0,0,1-.5-.5v-2.37a.51.51,0,0,1,.5-.5h30.42a.5.5,0,0,1,.5.5v2.37A.5.5,0,0,1,374.21,311.41Zm-29.92-1h29.42V309H344.29Z"></path><path d="M374.28,265.24c-2.43-3.76-8.39-6.42-15.39-6.42s-12.95,2.66-15.38,6.42h-8.15v6.06h47.06v-6.06Z" style="fill:#fff"></path><path d="M382.42,271.8H335.37a.5.5,0,0,1-.5-.5v-6.06a.5.5,0,0,1,.5-.5h7.87c2.7-3.91,8.8-6.42,15.65-6.42s13,2.51,15.65,6.42h7.88a.5.5,0,0,1,.5.5v6.06A.5.5,0,0,1,382.42,271.8Zm-46.55-1h46.05v-5.06h-7.64a.5.5,0,0,1-.42-.23c-2.4-3.7-8.41-6.19-15-6.19s-12.57,2.49-15,6.19a.5.5,0,0,1-.42.23h-7.64Z"></path><rect x="275.66" y="174.61" width="39.15" height="72.39" style="fill:#fff"></rect><path d="M314.81,247.5H275.66a.5.5,0,0,1-.5-.5V174.61a.5.5,0,0,1,.5-.5h39.15a.51.51,0,0,1,.5.5V247A.5.5,0,0,1,314.81,247.5Zm-38.65-1h38.15V175.11H276.16Z"></path><rect x="151.37" y="222.45" width="3.88" height="24.82" style="fill:#fff"></rect><path d="M155.25,247.76h-3.88a.5.5,0,0,1-.5-.5V222.45a.5.5,0,0,1,.5-.5h3.88a.5.5,0,0,1,.5.5v24.81A.5.5,0,0,1,155.25,247.76Zm-3.38-1h2.88V223h-2.88Z"></path><rect x="164.22" y="222.45" width="3.88" height="24.82" style="fill:#fff"></rect><path d="M168.1,247.76h-3.88a.5.5,0,0,1-.5-.5V222.45a.5.5,0,0,1,.5-.5h3.88a.5.5,0,0,1,.5.5v24.81A.5.5,0,0,1,168.1,247.76Zm-3.38-1h2.88V223h-2.88Z"></path><rect x="177.08" y="222.45" width="3.88" height="24.82" style="fill:#fff"></rect><path d="M181,247.76h-3.87a.5.5,0,0,1-.5-.5V222.45a.5.5,0,0,1,.5-.5H181a.5.5,0,0,1,.5.5v24.81A.5.5,0,0,1,181,247.76Zm-3.37-1h2.87V223h-2.87Z"></path><rect x="189.93" y="222.45" width="3.88" height="24.82" style="fill:#fff"></rect><path d="M193.81,247.76h-3.88a.5.5,0,0,1-.5-.5V222.45a.5.5,0,0,1,.5-.5h3.88a.5.5,0,0,1,.5.5v24.81A.5.5,0,0,1,193.81,247.76Zm-3.38-1h2.88V223h-2.88Z"></path><rect x="202.78" y="222.45" width="3.88" height="24.82" style="fill:#fff"></rect><path d="M206.66,247.76h-3.88a.5.5,0,0,1-.5-.5V222.45a.5.5,0,0,1,.5-.5h3.88a.5.5,0,0,1,.5.5v24.81A.5.5,0,0,1,206.66,247.76Zm-3.38-1h2.88V223h-2.88Z"></path><rect x="215.64" y="222.45" width="3.88" height="24.82" style="fill:#fff"></rect><path d="M219.51,247.76h-3.87a.5.5,0,0,1-.5-.5V222.45a.5.5,0,0,1,.5-.5h3.87a.5.5,0,0,1,.5.5v24.81A.5.5,0,0,1,219.51,247.76Zm-3.37-1H219V223h-2.87Z"></path><rect x="228.49" y="222.45" width="3.88" height="24.82" style="fill:#fff"></rect><path d="M232.37,247.76h-3.88a.5.5,0,0,1-.5-.5V222.45a.5.5,0,0,1,.5-.5h3.88a.5.5,0,0,1,.5.5v24.81A.5.5,0,0,1,232.37,247.76Zm-3.38-1h2.88V223H229Z"></path><rect x="241.34" y="222.45" width="3.88" height="24.82" style="fill:#fff"></rect><path d="M245.22,247.76h-3.88a.5.5,0,0,1-.5-.5V222.45a.5.5,0,0,1,.5-.5h3.88a.5.5,0,0,1,.5.5v24.81A.5.5,0,0,1,245.22,247.76Zm-3.38-1h2.88V223h-2.88Z"></path><rect x="254.19" y="222.45" width="3.88" height="24.82" style="fill:#fff"></rect><path d="M258.07,247.76h-3.88a.5.5,0,0,1-.5-.5V222.45a.5.5,0,0,1,.5-.5h3.88a.5.5,0,0,1,.5.5v24.81A.5.5,0,0,1,258.07,247.76Zm-3.38-1h2.88V223h-2.88Z"></path><rect x="151.37" y="313.29" width="3.88" height="24.82" style="fill:#fff"></rect><path d="M155.25,338.61h-3.88a.5.5,0,0,1-.5-.5V313.29a.5.5,0,0,1,.5-.5h3.88a.5.5,0,0,1,.5.5v24.82A.5.5,0,0,1,155.25,338.61Zm-3.38-1h2.88V313.79h-2.88Z"></path><rect x="164.22" y="313.29" width="3.88" height="24.82" style="fill:#fff"></rect><path d="M168.1,338.61h-3.88a.5.5,0,0,1-.5-.5V313.29a.51.51,0,0,1,.5-.5h3.88a.5.5,0,0,1,.5.5v24.82A.5.5,0,0,1,168.1,338.61Zm-3.38-1h2.88V313.79h-2.88Z"></path><rect x="177.08" y="313.29" width="3.88" height="24.82" style="fill:#fff"></rect><path d="M181,338.61h-3.87a.5.5,0,0,1-.5-.5V313.29a.5.5,0,0,1,.5-.5H181a.5.5,0,0,1,.5.5v24.82A.5.5,0,0,1,181,338.61Zm-3.37-1h2.87V313.79h-2.87Z"></path><rect x="189.93" y="313.29" width="3.88" height="24.82" style="fill:#fff"></rect><path d="M193.81,338.61h-3.88a.5.5,0,0,1-.5-.5V313.29a.5.5,0,0,1,.5-.5h3.88a.51.51,0,0,1,.5.5v24.82A.5.5,0,0,1,193.81,338.61Zm-3.38-1h2.88V313.79h-2.88Z"></path><rect x="215.64" y="313.29" width="3.88" height="24.82" style="fill:#fff"></rect><path d="M219.51,338.61h-3.87a.5.5,0,0,1-.5-.5V313.29a.5.5,0,0,1,.5-.5h3.87a.5.5,0,0,1,.5.5v24.82A.5.5,0,0,1,219.51,338.61Zm-3.37-1H219V313.79h-2.87Z"></path><rect x="228.49" y="313.29" width="3.88" height="24.82" style="fill:#fff"></rect><path d="M232.37,338.61h-3.88a.5.5,0,0,1-.5-.5V313.29a.5.5,0,0,1,.5-.5h3.88a.51.51,0,0,1,.5.5v24.82A.5.5,0,0,1,232.37,338.61Zm-3.38-1h2.88V313.79H229Z"></path><rect x="241.34" y="313.29" width="3.88" height="24.82" style="fill:#fff"></rect><path d="M245.22,338.61h-3.88a.5.5,0,0,1-.5-.5V313.29a.5.5,0,0,1,.5-.5h3.88a.5.5,0,0,1,.5.5v24.82A.5.5,0,0,1,245.22,338.61Zm-3.38-1h2.88V313.79h-2.88Z"></path><rect x="254.19" y="313.29" width="3.88" height="24.82" style="fill:#fff"></rect><path d="M258.07,338.61h-3.88a.5.5,0,0,1-.5-.5V313.29a.51.51,0,0,1,.5-.5h3.88a.5.5,0,0,1,.5.5v24.82A.5.5,0,0,1,258.07,338.61Zm-3.38-1h2.88V313.79h-2.88Z"></path><rect x="336.35" y="313.29" width="3.88" height="24.82" style="fill:#fff"></rect><path d="M340.23,338.61h-3.88a.5.5,0,0,1-.5-.5V313.29a.51.51,0,0,1,.5-.5h3.88a.5.5,0,0,1,.5.5v24.82A.5.5,0,0,1,340.23,338.61Zm-3.38-1h2.88V313.79h-2.88Z"></path><rect x="349.2" y="313.29" width="3.88" height="24.82" style="fill:#fff"></rect><path d="M353.08,338.61h-3.87a.5.5,0,0,1-.5-.5V313.29a.5.5,0,0,1,.5-.5h3.87a.5.5,0,0,1,.5.5v24.82A.5.5,0,0,1,353.08,338.61Zm-3.37-1h2.87V313.79h-2.87Z"></path><rect x="362.06" y="313.29" width="3.88" height="24.82" style="fill:#fff"></rect><path d="M365.94,338.61h-3.88a.5.5,0,0,1-.5-.5V313.29a.5.5,0,0,1,.5-.5h3.88a.51.51,0,0,1,.5.5v24.82A.5.5,0,0,1,365.94,338.61Zm-3.38-1h2.88V313.79h-2.88Z"></path><rect x="374.91" y="313.29" width="3.88" height="24.82" style="fill:#fff"></rect><path d="M378.79,338.61h-3.88a.5.5,0,0,1-.5-.5V313.29a.5.5,0,0,1,.5-.5h3.88a.5.5,0,0,1,.5.5v24.82A.5.5,0,0,1,378.79,338.61Zm-3.38-1h2.88V313.79h-2.88Z"></path><rect x="400.62" y="313.29" width="3.88" height="24.82" style="fill:#fff"></rect><path d="M404.49,338.61h-3.87a.5.5,0,0,1-.5-.5V313.29a.5.5,0,0,1,.5-.5h3.87a.5.5,0,0,1,.5.5v24.82A.5.5,0,0,1,404.49,338.61Zm-3.37-1H404V313.79h-2.87Z"></path><rect x="413.47" y="313.29" width="3.88" height="24.82" style="fill:#fff"></rect><path d="M417.35,338.61h-3.88a.5.5,0,0,1-.5-.5V313.29a.5.5,0,0,1,.5-.5h3.88a.51.51,0,0,1,.5.5v24.82A.5.5,0,0,1,417.35,338.61Zm-3.38-1h2.88V313.79H414Z"></path><rect x="426.32" y="313.29" width="3.88" height="24.82" style="fill:#fff"></rect><path d="M430.2,338.61h-3.88a.5.5,0,0,1-.5-.5V313.29a.51.51,0,0,1,.5-.5h3.88a.5.5,0,0,1,.5.5v24.82A.5.5,0,0,1,430.2,338.61Zm-3.38-1h2.88V313.79h-2.88Z"></path><rect x="439.17" y="313.29" width="3.88" height="24.82" style="fill:#fff"></rect><path d="M443.05,338.61h-3.88a.5.5,0,0,1-.5-.5V313.29a.51.51,0,0,1,.5-.5h3.88a.5.5,0,0,1,.5.5v24.82A.5.5,0,0,1,443.05,338.61Zm-3.38-1h2.88V313.79h-2.88Z"></path><rect x="267.05" y="222.45" width="3.88" height="24.82" style="fill:#fff"></rect><path d="M270.92,247.76h-3.87a.5.5,0,0,1-.5-.5V222.45a.5.5,0,0,1,.5-.5h3.87a.5.5,0,0,1,.5.5v24.81A.5.5,0,0,1,270.92,247.76Zm-3.37-1h2.87V223h-2.87Z"></path><rect x="279.9" y="222.45" width="3.88" height="24.82" style="fill:#fff"></rect><path d="M283.78,247.76H279.9a.5.5,0,0,1-.5-.5V222.45a.5.5,0,0,1,.5-.5h3.88a.5.5,0,0,1,.5.5v24.81A.5.5,0,0,1,283.78,247.76Zm-3.38-1h2.88V223H280.4Z"></path><rect x="292.75" y="222.45" width="3.88" height="24.82" style="fill:#fff"></rect><path d="M296.63,247.76h-3.88a.5.5,0,0,1-.5-.5V222.45a.5.5,0,0,1,.5-.5h3.88a.5.5,0,0,1,.5.5v24.81A.5.5,0,0,1,296.63,247.76Zm-3.38-1h2.88V223h-2.88Z"></path><rect x="305.61" y="222.45" width="3.88" height="24.82" style="fill:#fff"></rect><path d="M309.48,247.76h-3.87a.5.5,0,0,1-.5-.5V222.45a.5.5,0,0,1,.5-.5h3.87a.5.5,0,0,1,.5.5v24.81A.5.5,0,0,1,309.48,247.76Zm-3.37-1H309V223h-2.87Z"></path><rect x="318.46" y="222.45" width="3.88" height="24.82" style="fill:#fff"></rect><path d="M322.34,247.76h-3.88a.5.5,0,0,1-.5-.5V222.45a.5.5,0,0,1,.5-.5h3.88a.5.5,0,0,1,.5.5v24.81A.5.5,0,0,1,322.34,247.76Zm-3.38-1h2.88V223H319Z"></path><rect x="331.31" y="222.45" width="3.88" height="24.82" style="fill:#fff"></rect><path d="M335.19,247.76h-3.88a.5.5,0,0,1-.5-.5V222.45a.5.5,0,0,1,.5-.5h3.88a.5.5,0,0,1,.5.5v24.81A.5.5,0,0,1,335.19,247.76Zm-3.38-1h2.88V223h-2.88Z"></path><rect x="344.16" y="222.45" width="3.88" height="24.82" style="fill:#fff"></rect><path d="M348,247.76h-3.88a.5.5,0,0,1-.5-.5V222.45a.5.5,0,0,1,.5-.5H348a.5.5,0,0,1,.5.5v24.81A.5.5,0,0,1,348,247.76Zm-3.38-1h2.88V223h-2.88Z"></path><rect x="357.02" y="222.45" width="3.88" height="24.82" style="fill:#fff"></rect><path d="M360.89,247.76H357a.5.5,0,0,1-.5-.5V222.45a.5.5,0,0,1,.5-.5h3.87a.5.5,0,0,1,.5.5v24.81A.5.5,0,0,1,360.89,247.76Zm-3.37-1h2.87V223h-2.87Z"></path><rect x="369.87" y="222.45" width="3.88" height="24.82" style="fill:#fff"></rect><path d="M373.75,247.76h-3.88a.5.5,0,0,1-.5-.5V222.45a.5.5,0,0,1,.5-.5h3.88a.5.5,0,0,1,.5.5v24.81A.5.5,0,0,1,373.75,247.76Zm-3.38-1h2.88V223h-2.88Z"></path><rect x="382.72" y="222.45" width="3.88" height="24.82" style="fill:#fff"></rect><path d="M386.6,247.76h-3.88a.5.5,0,0,1-.5-.5V222.45a.5.5,0,0,1,.5-.5h3.88a.5.5,0,0,1,.5.5v24.81A.5.5,0,0,1,386.6,247.76Zm-3.38-1h2.88V223h-2.88Z"></path><rect x="395.58" y="222.45" width="3.88" height="24.82" style="fill:#fff"></rect><path d="M399.45,247.76h-3.87a.5.5,0,0,1-.5-.5V222.45a.5.5,0,0,1,.5-.5h3.87a.5.5,0,0,1,.5.5v24.81A.5.5,0,0,1,399.45,247.76Zm-3.37-1H399V223h-2.87Z"></path><rect x="408.43" y="222.45" width="3.88" height="24.82" style="fill:#fff"></rect><path d="M412.31,247.76h-3.88a.5.5,0,0,1-.5-.5V222.45a.5.5,0,0,1,.5-.5h3.88a.5.5,0,0,1,.5.5v24.81A.5.5,0,0,1,412.31,247.76Zm-3.38-1h2.88V223h-2.88Z"></path><rect x="421.28" y="222.45" width="3.88" height="24.82" style="fill:#fff"></rect><path d="M425.16,247.76h-3.88a.5.5,0,0,1-.5-.5V222.45a.5.5,0,0,1,.5-.5h3.88a.5.5,0,0,1,.5.5v24.81A.5.5,0,0,1,425.16,247.76Zm-3.38-1h2.88V223h-2.88Z"></path><rect x="434.13" y="222.45" width="3.88" height="24.82" style="fill:#fff"></rect><path d="M438,247.76h-3.88a.5.5,0,0,1-.5-.5V222.45a.5.5,0,0,1,.5-.5H438a.5.5,0,0,1,.5.5v24.81A.5.5,0,0,1,438,247.76Zm-3.38-1h2.88V223h-2.88Z"></path><rect x="144.39" y="221.28" width="306.36" height="3.49" style="fill:#fff"></rect><path d="M450.75,225.27H144.39a.5.5,0,0,1-.5-.5v-3.49a.5.5,0,0,1,.5-.5H450.75a.5.5,0,0,1,.5.5v3.49A.5.5,0,0,1,450.75,225.27Zm-305.86-1H450.25v-2.49H144.89Z"></path><rect x="144.39" y="312.8" width="120.61" height="3.49" style="fill:#fff"></rect><path d="M265,316.79H144.39a.5.5,0,0,1-.5-.5V312.8a.5.5,0,0,1,.5-.5H265a.51.51,0,0,1,.5.5v3.49A.5.5,0,0,1,265,316.79Zm-120.11-1H264.5V313.3H144.89Z"></path><rect x="328.21" y="312.8" width="122.55" height="3.49" style="fill:#fff"></rect><path d="M450.75,316.79H328.21a.5.5,0,0,1-.5-.5V312.8a.5.5,0,0,1,.5-.5H450.75a.5.5,0,0,1,.5.5v3.49A.5.5,0,0,1,450.75,316.79Zm-122-1H450.25V313.3H328.71Z"></path><path d="M157.28,162.49h-27v3.85h4.15l.18.58a4.54,4.54,0,0,0,4.33,3.21h9.5a4.54,4.54,0,0,0,4.4-3.44l.08-.35h4.36Z" style="fill:#fff"></path><path d="M148.44,170.63h-9.5a5,5,0,0,1-4.81-3.57l-.07-.22h-3.78a.5.5,0,0,1-.5-.5v-3.85a.5.5,0,0,1,.5-.5h27a.5.5,0,0,1,.5.5v3.85a.5.5,0,0,1-.5.5h-4A5,5,0,0,1,148.44,170.63Zm-17.66-4.79h3.65a.5.5,0,0,1,.48.36l.18.57a4,4,0,0,0,3.85,2.86h9.5a4,4,0,0,0,3.91-3.06l.09-.35a.49.49,0,0,1,.48-.38h3.87V163h-26Z"></path><rect x="140.86" y="162.49" width="5.85" height="85.02" style="fill:#fff"></rect><path d="M146.71,248h-5.85a.5.5,0,0,1-.5-.5v-85a.5.5,0,0,1,.5-.5h5.85a.5.5,0,0,1,.5.5v85A.5.5,0,0,1,146.71,248Zm-5.35-1h4.85V163h-4.85Z"></path><path d="M218.55,162.49h-27v3.85h4.15l.18.58a4.54,4.54,0,0,0,4.33,3.21h9.5a4.52,4.52,0,0,0,4.39-3.44l.09-.35h4.36Z" style="fill:#fff"></path><path d="M209.71,170.63h-9.5a5,5,0,0,1-4.81-3.57l-.07-.22h-3.78a.5.5,0,0,1-.5-.5v-3.85a.5.5,0,0,1,.5-.5h27a.5.5,0,0,1,.5.5v3.85a.5.5,0,0,1-.5.5h-4A5,5,0,0,1,209.71,170.63Zm-17.66-4.79h3.65a.5.5,0,0,1,.48.36l.17.57a4,4,0,0,0,3.86,2.86h9.5a4,4,0,0,0,3.91-3.06l.08-.35a.51.51,0,0,1,.49-.38h3.86V163h-26Z"></path><rect x="202.13" y="162.49" width="5.85" height="85.02" style="fill:#fff"></rect><path d="M208,248h-5.85a.5.5,0,0,1-.5-.5v-85a.5.5,0,0,1,.5-.5H208a.5.5,0,0,1,.5.5v85A.5.5,0,0,1,208,248Zm-5.35-1h4.85V163h-4.85Z"></path><path d="M279.82,162.49h-27v3.85H257l.17.58a4.55,4.55,0,0,0,4.34,3.21H271a4.52,4.52,0,0,0,4.39-3.44l.09-.35h4.36Z" style="fill:#fff"></path><path d="M271,170.63h-9.5a5,5,0,0,1-4.81-3.57l-.07-.22h-3.78a.5.5,0,0,1-.5-.5v-3.85a.5.5,0,0,1,.5-.5h27a.5.5,0,0,1,.5.5v3.85a.5.5,0,0,1-.5.5h-4A5,5,0,0,1,271,170.63Zm-17.66-4.79H257a.51.51,0,0,1,.48.36l.17.57a4,4,0,0,0,3.86,2.86H271a4,4,0,0,0,3.91-3.06l.08-.35a.51.51,0,0,1,.49-.38h3.86V163h-26Z"></path><rect x="263.4" y="162.49" width="5.85" height="85.02" style="fill:#fff"></rect><path d="M269.24,248H263.4a.5.5,0,0,1-.5-.5v-85a.5.5,0,0,1,.5-.5h5.84a.5.5,0,0,1,.5.5v85A.5.5,0,0,1,269.24,248Zm-5.34-1h4.84V163H263.9Z"></path><path d="M341.09,162.49h-27v3.85h4.15l.17.58a4.54,4.54,0,0,0,4.33,3.21h9.5a4.54,4.54,0,0,0,4.4-3.44l.08-.35h4.37Z" style="fill:#fff"></path><path d="M332.24,170.63h-9.5a5,5,0,0,1-4.81-3.57l-.06-.22h-3.78a.5.5,0,0,1-.5-.5v-3.85a.5.5,0,0,1,.5-.5h27a.5.5,0,0,1,.5.5v3.85a.5.5,0,0,1-.5.5h-4A5,5,0,0,1,332.24,170.63Zm-17.65-4.79h3.65a.49.49,0,0,1,.47.36l.18.57a4,4,0,0,0,3.85,2.86h9.5a4,4,0,0,0,3.91-3.06l.09-.35a.49.49,0,0,1,.48-.38h3.87V163h-26Z"></path><rect x="324.66" y="162.49" width="5.85" height="85.02" style="fill:#fff"></rect><path d="M330.51,248h-5.85a.5.5,0,0,1-.5-.5v-85a.5.5,0,0,1,.5-.5h5.85a.5.5,0,0,1,.5.5v85A.5.5,0,0,1,330.51,248Zm-5.35-1H330V163h-4.85Z"></path><path d="M402.35,162.49h-27v3.85h4.15l.18.58a4.54,4.54,0,0,0,4.33,3.21h9.5a4.54,4.54,0,0,0,4.4-3.44l.08-.35h4.36Z" style="fill:#fff"></path><path d="M393.51,170.63H384a5,5,0,0,1-4.81-3.57l-.07-.22h-3.78a.5.5,0,0,1-.5-.5v-3.85a.5.5,0,0,1,.5-.5h27a.5.5,0,0,1,.5.5v3.85a.5.5,0,0,1-.5.5h-4A5,5,0,0,1,393.51,170.63Zm-17.66-4.79h3.65a.5.5,0,0,1,.48.36l.18.57a4,4,0,0,0,3.85,2.86h9.5a4,4,0,0,0,3.91-3.06l.09-.35a.49.49,0,0,1,.48-.38h3.86V163h-26Z"></path><rect x="385.93" y="162.49" width="5.85" height="85.02" style="fill:#fff"></rect><path d="M391.78,248h-5.85a.5.5,0,0,1-.5-.5v-85a.5.5,0,0,1,.5-.5h5.85a.5.5,0,0,1,.5.5v85A.5.5,0,0,1,391.78,248Zm-5.35-1h4.85V163h-4.85Z"></path><path d="M463.62,162.49h-27v3.85h4.15l.18.58a4.54,4.54,0,0,0,4.33,3.21h9.5a4.52,4.52,0,0,0,4.39-3.44l.09-.35h4.36Z" style="fill:#fff"></path><path d="M454.78,170.63h-9.5a5,5,0,0,1-4.81-3.57l-.07-.22h-3.78a.5.5,0,0,1-.5-.5v-3.85a.5.5,0,0,1,.5-.5h27a.5.5,0,0,1,.5.5v3.85a.5.5,0,0,1-.5.5h-4A5,5,0,0,1,454.78,170.63Zm-17.66-4.79h3.65a.5.5,0,0,1,.48.36l.17.57a4,4,0,0,0,3.86,2.86h9.5a4,4,0,0,0,3.91-3.06l.08-.35a.51.51,0,0,1,.49-.38h3.86V163h-26Z"></path><rect x="447.2" y="162.49" width="5.85" height="85.02" style="fill:#fff"></rect><path d="M453,248H447.2a.5.5,0,0,1-.5-.5v-85a.5.5,0,0,1,.5-.5H453a.5.5,0,0,1,.5.5v85A.5.5,0,0,1,453,248Zm-5.34-1h4.84V163H447.7Z"></path><path d="M157.28,252.59h-27v3.85h4.15l.18.58a4.54,4.54,0,0,0,4.33,3.21h9.5a4.54,4.54,0,0,0,4.4-3.44l.08-.35h4.36Z" style="fill:#fff"></path><path d="M148.44,260.73h-9.5a5,5,0,0,1-4.81-3.57l-.07-.22h-3.78a.5.5,0,0,1-.5-.5v-3.86a.51.51,0,0,1,.5-.5h27a.51.51,0,0,1,.5.5v3.86a.5.5,0,0,1-.5.5h-4A5,5,0,0,1,148.44,260.73Zm-17.66-4.79h3.65a.5.5,0,0,1,.48.36l.18.57a4,4,0,0,0,3.85,2.86h9.5a4,4,0,0,0,3.91-3.06l.09-.35a.49.49,0,0,1,.48-.38h3.87v-2.86h-26Z"></path><rect x="140.86" y="252.59" width="5.85" height="85.02" style="fill:#fff"></rect><path d="M146.71,338.1h-5.85a.5.5,0,0,1-.5-.5v-85a.5.5,0,0,1,.5-.5h5.85a.51.51,0,0,1,.5.5v85A.5.5,0,0,1,146.71,338.1Zm-5.35-1h4.85v-84h-4.85Z"></path><path d="M218.55,252.59h-27v3.85h4.15l.18.58a4.54,4.54,0,0,0,4.33,3.21h9.5a4.52,4.52,0,0,0,4.39-3.44l.09-.35h4.36Z" style="fill:#fff"></path><path d="M209.71,260.73h-9.5a5,5,0,0,1-4.81-3.57l-.07-.22h-3.78a.5.5,0,0,1-.5-.5v-3.86a.5.5,0,0,1,.5-.5h27a.5.5,0,0,1,.5.5v3.86a.5.5,0,0,1-.5.5h-4A5,5,0,0,1,209.71,260.73Zm-17.66-4.79h3.65a.5.5,0,0,1,.48.36l.17.57a4,4,0,0,0,3.86,2.86h9.5a4,4,0,0,0,3.91-3.06l.08-.35a.51.51,0,0,1,.49-.38h3.86v-2.86h-26Z"></path><rect x="202.13" y="252.59" width="5.85" height="85.02" style="fill:#fff"></rect><path d="M208,338.1h-5.85a.5.5,0,0,1-.5-.5v-85a.5.5,0,0,1,.5-.5H208a.51.51,0,0,1,.5.5v85A.5.5,0,0,1,208,338.1Zm-5.35-1h4.85v-84h-4.85Z"></path><path d="M279.82,252.59h-27v3.85H257l.17.58a4.55,4.55,0,0,0,4.34,3.21H271a4.52,4.52,0,0,0,4.39-3.44l.09-.35h4.36Z" style="fill:#fff"></path><path d="M271,260.73h-9.5a5,5,0,0,1-4.81-3.57l-.07-.22h-3.78a.5.5,0,0,1-.5-.5v-3.86a.5.5,0,0,1,.5-.5h27a.5.5,0,0,1,.5.5v3.86a.5.5,0,0,1-.5.5h-4A5,5,0,0,1,271,260.73Zm-17.66-4.79H257a.51.51,0,0,1,.48.36l.17.57a4,4,0,0,0,3.86,2.86H271a4,4,0,0,0,3.91-3.06l.08-.35a.51.51,0,0,1,.49-.38h3.86v-2.86h-26Z"></path><rect x="263.4" y="252.59" width="5.85" height="85.02" style="fill:#fff"></rect><path d="M269.24,338.1H263.4a.5.5,0,0,1-.5-.5v-85a.5.5,0,0,1,.5-.5h5.84a.5.5,0,0,1,.5.5v85A.5.5,0,0,1,269.24,338.1Zm-5.34-1h4.84v-84H263.9Z"></path><path d="M341.09,252.59h-27v3.85h4.15l.17.58a4.54,4.54,0,0,0,4.33,3.21h9.5a4.54,4.54,0,0,0,4.4-3.44l.08-.35h4.37Z" style="fill:#fff"></path><path d="M332.24,260.73h-9.5a5,5,0,0,1-4.81-3.57l-.06-.22h-3.78a.5.5,0,0,1-.5-.5v-3.86a.5.5,0,0,1,.5-.5h27a.51.51,0,0,1,.5.5v3.86a.5.5,0,0,1-.5.5h-4A5,5,0,0,1,332.24,260.73Zm-17.65-4.79h3.65a.49.49,0,0,1,.47.36l.18.57a4,4,0,0,0,3.85,2.86h9.5a4,4,0,0,0,3.91-3.06l.09-.35a.5.5,0,0,1,.48-.38h3.87v-2.86h-26Z"></path><rect x="324.66" y="252.59" width="5.85" height="85.02" style="fill:#fff"></rect><path d="M330.51,338.1h-5.85a.5.5,0,0,1-.5-.5v-85a.51.51,0,0,1,.5-.5h5.85a.5.5,0,0,1,.5.5v85A.5.5,0,0,1,330.51,338.1Zm-5.35-1H330v-84h-4.85Z"></path><path d="M402.35,252.59h-27v3.85h4.15l.18.58a4.54,4.54,0,0,0,4.33,3.21h9.5a4.54,4.54,0,0,0,4.4-3.44l.08-.35h4.36Z" style="fill:#fff"></path><path d="M393.51,260.73H384a5,5,0,0,1-4.81-3.57l-.07-.22h-3.78a.5.5,0,0,1-.5-.5v-3.86a.51.51,0,0,1,.5-.5h27a.5.5,0,0,1,.5.5v3.86a.5.5,0,0,1-.5.5h-4A5,5,0,0,1,393.51,260.73Zm-17.66-4.79h3.65a.5.5,0,0,1,.48.36l.18.57a4,4,0,0,0,3.85,2.86h9.5a4,4,0,0,0,3.91-3.06l.09-.35a.49.49,0,0,1,.48-.38h3.86v-2.86h-26Z"></path><rect x="385.93" y="252.59" width="5.85" height="85.02" style="fill:#fff"></rect><path d="M391.78,338.1h-5.85a.5.5,0,0,1-.5-.5v-85a.5.5,0,0,1,.5-.5h5.85a.51.51,0,0,1,.5.5v85A.5.5,0,0,1,391.78,338.1Zm-5.35-1h4.85v-84h-4.85Z"></path><path d="M463.62,252.59h-27v3.85h4.15l.18.58a4.54,4.54,0,0,0,4.33,3.21h9.5a4.52,4.52,0,0,0,4.39-3.44l.09-.35h4.36Z" style="fill:#fff"></path><path d="M454.78,260.73h-9.5a5,5,0,0,1-4.81-3.57l-.07-.22h-3.78a.5.5,0,0,1-.5-.5v-3.86a.5.5,0,0,1,.5-.5h27a.5.5,0,0,1,.5.5v3.86a.5.5,0,0,1-.5.5h-4A5,5,0,0,1,454.78,260.73Zm-17.66-4.79h3.65a.5.5,0,0,1,.48.36l.17.57a4,4,0,0,0,3.86,2.86h9.5a4,4,0,0,0,3.91-3.06l.08-.35a.51.51,0,0,1,.49-.38h3.86v-2.86h-26Z"></path><rect x="447.2" y="252.59" width="5.85" height="85.02" style="fill:#fff"></rect><path d="M453,338.1H447.2a.5.5,0,0,1-.5-.5v-85a.5.5,0,0,1,.5-.5H453a.5.5,0,0,1,.5.5v85A.5.5,0,0,1,453,338.1Zm-5.34-1h4.84v-84H447.7Z"></path><rect x="123.08" y="157.22" width="346.83" height="5.5" style="fill:#fff"></rect><path d="M469.9,163.22H123.08a.5.5,0,0,1-.5-.5v-5.5a.5.5,0,0,1,.5-.5H469.9a.5.5,0,0,1,.5.5v5.5A.5.5,0,0,1,469.9,163.22Zm-346.32-1H469.4v-4.5H123.58Z"></path><rect x="133.17" y="246.78" width="326.52" height="6.49" style="fill:#fff"></rect><path d="M459.69,253.77H133.17a.5.5,0,0,1-.5-.5v-6.49a.5.5,0,0,1,.5-.5H459.69a.5.5,0,0,1,.5.5v6.49A.51.51,0,0,1,459.69,253.77Zm-326-1H459.19v-5.49H133.67Z"></path><rect x="276.4" y="266.21" width="39.15" height="72.39" style="fill:#fff"></rect><path d="M315.55,339.09H276.4a.5.5,0,0,1-.5-.5V266.21a.5.5,0,0,1,.5-.5h39.15a.5.5,0,0,1,.5.5v72.38A.5.5,0,0,1,315.55,339.09Zm-38.65-1h38.15V266.71H276.9Z"></path><path d="M311.36,264.46c-2.43-3.75-8.39-6.41-15.39-6.41s-13,2.66-15.38,6.41h-8.15v6.06H319.5v-6.06Z" style="fill:#fff"></path><path d="M319.5,271H272.44a.5.5,0,0,1-.5-.5v-6.06a.51.51,0,0,1,.5-.5h7.88c2.7-3.9,8.8-6.41,15.65-6.41s13,2.51,15.65,6.41h7.88a.5.5,0,0,1,.5.5v6.06A.5.5,0,0,1,319.5,271Zm-46.56-1H319V265h-7.64a.48.48,0,0,1-.42-.23c-2.4-3.7-8.41-6.18-15-6.18s-12.57,2.48-15,6.18a.49.49,0,0,1-.42.23h-7.65Z"></path><path d="M331.24,135c-5.57-8.61-19.23-14.71-35.27-14.71s-29.7,6.1-35.27,14.71H242v13.9H349.91V135Z" style="fill:#fff"></path><path d="M349.92,149.39H242a.5.5,0,0,1-.5-.5V135a.5.5,0,0,1,.5-.5h18.4c6-8.94,19.87-14.71,35.54-14.71s29.58,5.77,35.54,14.71h18.41a.51.51,0,0,1,.5.5v13.9A.51.51,0,0,1,349.92,149.39Zm-107.39-1H349.42v-12.9H331.24a.49.49,0,0,1-.42-.23c-5.69-8.79-19.37-14.48-34.85-14.48s-29.16,5.69-34.85,14.48a.48.48,0,0,1-.42.23H242.53Z"></path><path d="M271.72,146.14V132.27H273v6.14h4.37v-6.14h1.3v13.87h-1.3v-6.75H273v6.75Z"></path><path d="M287.82,146.31a3.68,3.68,0,0,1-2.14-.54,2.84,2.84,0,0,1-1.1-1.51,7.12,7.12,0,0,1-.32-2.22v-5.75a6.6,6.6,0,0,1,.34-2.2,2.77,2.77,0,0,1,1.11-1.44,3.72,3.72,0,0,1,2.11-.52,3.79,3.79,0,0,1,2.14.52,2.81,2.81,0,0,1,1.1,1.44,6.63,6.63,0,0,1,.32,2.2v5.77a7.11,7.11,0,0,1-.31,2.21,2.89,2.89,0,0,1-1.09,1.5A3.71,3.71,0,0,1,287.82,146.31Zm0-1.05a2.26,2.26,0,0,0,1.41-.37,1.83,1.83,0,0,0,.66-1,5.87,5.87,0,0,0,.18-1.54v-6.28a5.71,5.71,0,0,0-.18-1.52,1.78,1.78,0,0,0-.66-1,2.33,2.33,0,0,0-1.41-.35,2.3,2.3,0,0,0-1.39.35,1.74,1.74,0,0,0-.67,1,5.71,5.71,0,0,0-.18,1.52v6.28a5.87,5.87,0,0,0,.18,1.54,1.79,1.79,0,0,0,.67,1A2.23,2.23,0,0,0,287.82,145.26Z"></path><path d="M298.68,146.14V133.28h-2.62v-1h6.45v1H300v12.86Z"></path><path d="M307.46,146.14V132.27h5v1h-3.69v5.2h3v1h-3v5.72h3.73v1Z"></path><path d="M317.71,146.14V132.27H319v12.89H323v1Z"></path><path d="M311.36,174.75c-2.43-3.76-8.39-6.42-15.39-6.42s-13,2.66-15.38,6.42h-8.15v6.06H319.5v-6.06Z" style="fill:#fff"></path><path d="M319.5,181.31H272.44a.5.5,0,0,1-.5-.5v-6.06a.5.5,0,0,1,.5-.5h7.88c2.7-3.91,8.8-6.42,15.65-6.42s13,2.51,15.65,6.42h7.88a.5.5,0,0,1,.5.5v6.06A.5.5,0,0,1,319.5,181.31Zm-46.56-1H319v-5.06h-7.64a.5.5,0,0,1-.42-.23c-2.4-3.7-8.41-6.19-15-6.19s-12.57,2.49-15,6.19a.52.52,0,0,1-.42.23h-7.65Z"></path><rect x="268.4" y="337.6" width="56.08" height="24.96" style="fill:#fff"></rect><path d="M324.48,363.06H268.4a.5.5,0,0,1-.5-.5v-25a.5.5,0,0,1,.5-.5h56.08a.5.5,0,0,1,.5.5v25A.5.5,0,0,1,324.48,363.06Zm-55.58-1H324v-24H268.9Z"></path><rect x="268.4" y="344.83" width="56.08" height="10.5" style="fill:#fff"></rect><path d="M324.48,355.83H268.4a.5.5,0,0,1-.5-.5v-10.5a.5.5,0,0,1,.5-.5h56.08a.5.5,0,0,1,.5.5v10.5A.5.5,0,0,1,324.48,355.83Zm-55.58-1H324v-9.5H268.9Z"></path><rect x="136.48" y="337.6" width="131.99" height="24.96" style="fill:#fff"></rect><path d="M268.47,363.06h-132a.5.5,0,0,1-.5-.5v-25a.5.5,0,0,1,.5-.5h132a.5.5,0,0,1,.5.5v25A.5.5,0,0,1,268.47,363.06Zm-131.49-1H268v-24H137Z"></path><rect x="324.74" y="337.6" width="131.99" height="24.96" style="fill:#fff"></rect><path d="M456.73,363.06h-132a.5.5,0,0,1-.5-.5v-25a.5.5,0,0,1,.5-.5h132a.5.5,0,0,1,.5.5v25A.5.5,0,0,1,456.73,363.06Zm-131.49-1h131v-24h-131Z"></path></g></g><g id="Floor"><path d="M490.16,363.06H24.56a.5.5,0,0,1-.5-.5.5.5,0,0,1,.5-.5h465.6a.5.5,0,0,1,.5.5A.5.5,0,0,1,490.16,363.06Z" style="fill:#263238"></path></g><g id="Clouds"><path d="M222.32,53.6H151.24a.49.49,0,0,1-.4-.2.53.53,0,0,1-.09-.42,18.8,18.8,0,0,1,2.49-5.3,4.13,4.13,0,0,1,3.5-1.85,7,7,0,0,1,5.5,3.05c.55.8.87.85,1,.84.67-.08,1.53-2.3,2.37-4.45.28-.74.59-1.53.93-2.35A7.31,7.31,0,0,1,172,38.29a6.12,6.12,0,0,1,5.6,1.77c.6.67,1.09,1,1.44.91.88-.2,1.67-2.95,2.24-4.95a11.84,11.84,0,0,1,16.09-7.29c8.07,3.17,12.29,14.85,12.92,16.72.79.22,1.64-.29,2.6-.88,1.69-1,3.8-2.32,6.43.31,4.06,4.06,3.49,8.12,3.47,8.29A.51.51,0,0,1,222.32,53.6Zm-70.41-1h70a9.75,9.75,0,0,0-3.22-7c-2.07-2.08-3.52-1.19-5.2-.16-1.17.72-2.39,1.46-3.72.86a.52.52,0,0,1-.28-.3c0-.13-4.26-13.12-12.41-16.32a10.84,10.84,0,0,0-14.76,6.62c-.94,3.31-1.62,5.35-3,5.66-.74.17-1.53-.23-2.41-1.23a5.11,5.11,0,0,0-4.68-1.44,6.32,6.32,0,0,0-4.77,4c-.33.82-.64,1.6-.92,2.33-1.16,3-1.92,4.93-3.18,5.08-.85.1-1.5-.67-1.91-1.26a6,6,0,0,0-4.67-2.62,3.14,3.14,0,0,0-2.68,1.4A19.42,19.42,0,0,0,151.91,52.6ZM463,94.5H339.26a.49.49,0,0,1-.39-.19.48.48,0,0,1-.09-.43,32.15,32.15,0,0,1,4.28-9.11,6.82,6.82,0,0,1,5.79-3,11.58,11.58,0,0,1,9.25,5.14c.8,1.14,1.52,1.68,2,1.62,1.38-.17,2.79-3.79,4.42-8,.5-1.28,1-2.65,1.62-4.08a12.37,12.37,0,0,1,9.33-7.84,10.29,10.29,0,0,1,9.41,3c1.15,1.3,2.12,1.87,2.86,1.71,1.76-.4,3-4.91,4.18-8.89a20.74,20.74,0,0,1,10.5-12.16c5.14-2.54,11-2.63,17-.28C433.68,57.51,441,78.43,441.83,81c1.6.57,3.18-.39,5-1.51,2.84-1.73,6.37-3.89,10.74.48,6.95,6.94,6,13.83,5.93,14.12A.49.49,0,0,1,463,94.5Zm-123.09-1H462.56c.08-1.57-.07-7.22-5.69-12.84-3.81-3.81-6.58-2.12-9.51-.32-2,1.19-4,2.43-6.13,1.48a.52.52,0,0,1-.28-.3c-.07-.23-7.47-23-21.82-28.66-5.73-2.25-11.34-2.16-16.21.25a19.7,19.7,0,0,0-10,11.54c-1.56,5.47-2.75,9.09-4.91,9.58-1.15.27-2.4-.4-3.84-2a9.26,9.26,0,0,0-8.49-2.64,11.38,11.38,0,0,0-8.58,7.23c-.58,1.42-1.11,2.79-1.61,4.06-2,5-3.26,8.37-5.23,8.61-1,.12-1.93-.53-3-2A10.71,10.71,0,0,0,349,82.73h-.09a5.84,5.84,0,0,0-5,2.6A33,33,0,0,0,339.93,93.5Z" style="opacity:0.30000000000000004"></path></g><g id="Sun"><path d="M61.77,63.61A15.67,15.67,0,1,1,77.44,47.94,15.69,15.69,0,0,1,61.77,63.61Zm0-30.33A14.67,14.67,0,1,0,76.44,47.94,14.68,14.68,0,0,0,61.77,33.28Zm.5,47.59V70.65a.5.5,0,0,0-.5-.5.5.5,0,0,0-.5.5V80.87a.51.51,0,0,0,.5.5A.5.5,0,0,0,62.27,80.87Zm0-51.09V19.56a.5.5,0,0,0-.5-.5.51.51,0,0,0-.5.5V29.78a.5.5,0,0,0,.5.5A.5.5,0,0,0,62.27,29.78ZM41.84,50.22a.5.5,0,0,0-.5-.5H31.12a.5.5,0,0,0-.5.5.51.51,0,0,0,.5.5H41.34A.5.5,0,0,0,41.84,50.22Zm51.09,0a.5.5,0,0,0-.5-.5H82.21a.5.5,0,0,0-.5.5.5.5,0,0,0,.5.5H92.43A.51.51,0,0,0,92.93,50.22Zm-52.48,22L47.68,65a.5.5,0,1,0-.71-.71l-7.22,7.23a.5.5,0,0,0,.35.85A.47.47,0,0,0,40.45,72.24ZM76.58,36.12,83.8,28.9a.5.5,0,0,0-.71-.71l-7.22,7.22a.5.5,0,0,0,0,.71.5.5,0,0,0,.35.15A.51.51,0,0,0,76.58,36.12ZM83.8,72.24a.48.48,0,0,0,0-.7l-7.22-7.23a.51.51,0,0,0-.71,0,.5.5,0,0,0,0,.71l7.22,7.22a.51.51,0,0,0,.36.15A.49.49,0,0,0,83.8,72.24ZM47.68,36.12a.51.51,0,0,0,0-.71l-7.23-7.22a.48.48,0,0,0-.7,0,.5.5,0,0,0,0,.71L47,36.12a.51.51,0,0,0,.36.15A.5.5,0,0,0,47.68,36.12Z" style="opacity:0.30000000000000004"></path></g><g id="Barrel"><path d="M146.25,430.71c12.46-18.85,20.11-46.95,20.11-78.35,0-31.92-7.89-60.44-20.72-79.29h-75C57.85,291.92,50,320.44,50,352.36c0,31.4,7.65,59.5,20.12,78.35Z" style="fill:#a3a3a3"></path><path d="M146.25,431.21H70.07a.5.5,0,0,1-.42-.23c-12.84-19.41-20.2-48.07-20.2-78.62,0-31.14,7.59-60.14,20.81-79.57a.51.51,0,0,1,.42-.22h75a.49.49,0,0,1,.41.22c13.23,19.43,20.81,48.43,20.81,79.57,0,30.55-7.36,59.21-20.2,78.62A.5.5,0,0,1,146.25,431.21Zm-75.91-1H146c12.64-19.25,19.88-47.6,19.88-77.85,0-30.83-7.46-59.52-20.49-78.79H70.94c-13,19.27-20.49,48-20.49,78.79C50.45,382.61,57.7,411,70.34,430.21Z" style="fill:#263238"></path><path d="M136.84,430.71c9.39-18.85,15.15-46.95,15.15-78.35,0-31.92-6-60.44-15.61-79.29H79.93c-9.66,18.85-15.6,47.37-15.6,79.29,0,31.4,5.76,59.5,15.14,78.35Z" style="fill:#a3a3a3"></path><path d="M136.84,431.21H79.48a.5.5,0,0,1-.45-.28c-9.66-19.4-15.2-48-15.2-78.57,0-31.12,5.7-60.1,15.66-79.52a.51.51,0,0,1,.44-.27h56.45a.52.52,0,0,1,.45.27c9.95,19.42,15.66,48.4,15.66,79.52,0,30.53-5.54,59.17-15.2,78.57A.51.51,0,0,1,136.84,431.21Zm-57-1h56.74c9.51-19.26,15-47.61,15-77.85,0-30.82-5.62-59.51-15.41-78.79H80.24c-9.8,19.28-15.41,48-15.41,78.79C64.83,382.6,70.27,411,79.79,430.21Z" style="fill:#263238"></path><path d="M120.73,430.71c4.12-18.85,6.65-46.95,6.65-78.35,0-31.92-2.61-60.44-6.85-79.29H95.78c-4.23,18.85-6.84,47.37-6.84,79.29,0,31.4,2.53,59.5,6.64,78.35Z" style="fill:#a3a3a3"></path><path d="M120.73,431.21H95.58a.51.51,0,0,1-.49-.4c-4.23-19.36-6.65-48-6.65-78.45,0-31.08,2.5-60,6.85-79.4a.5.5,0,0,1,.49-.39h24.75a.49.49,0,0,1,.49.39c4.36,19.39,6.86,48.33,6.86,79.4,0,30.49-2.43,59.09-6.66,78.45A.5.5,0,0,1,120.73,431.21Zm-24.75-1h24.35c4.16-19.29,6.55-47.63,6.55-77.85,0-30.8-2.46-59.48-6.75-78.79H96.18c-4.29,19.31-6.74,48-6.74,78.79C89.44,382.58,91.82,410.92,96,430.21Z" style="fill:#263238"></path><path d="M151.2,282.5a91.08,91.08,0,0,0-5.56-9.43h-75a91.13,91.13,0,0,0-5.57,9.43Z" style="fill:#263238"></path><path d="M151.2,283H65.11a.52.52,0,0,1-.43-.24.5.5,0,0,1,0-.49,92.09,92.09,0,0,1,5.59-9.48.51.51,0,0,1,.42-.22h75a.49.49,0,0,1,.41.22,93.92,93.92,0,0,1,5.6,9.48.5.5,0,0,1,0,.49A.5.5,0,0,1,151.2,283Zm-85.26-1h84.44a89.87,89.87,0,0,0-5-8.43H70.94A89.88,89.88,0,0,0,65.94,282Z" style="fill:#263238"></path><path d="M63.52,419a96.77,96.77,0,0,0,6.55,11.67h76.18A96.73,96.73,0,0,0,152.79,419Z" style="fill:#263238"></path><path d="M146.25,431.21H70.07a.5.5,0,0,1-.42-.23,96.06,96.06,0,0,1-6.58-11.73.51.51,0,0,1,0-.48.5.5,0,0,1,.42-.23h89.27a.5.5,0,0,1,.42.23.49.49,0,0,1,0,.48A95.32,95.32,0,0,1,146.66,431,.5.5,0,0,1,146.25,431.21Zm-75.91-1H146a96.44,96.44,0,0,0,6-10.67H64.32A95.75,95.75,0,0,0,70.34,430.21Z" style="fill:#263238"></path><path d="M166.25,358.68q.1-3.14.11-6.32c0-2.81-.08-5.58-.2-8.33h-116c-.12,2.75-.2,5.52-.2,8.33q0,3.18.11,6.32Z" style="fill:#263238"></path><path d="M166.25,359.18H50.06a.5.5,0,0,1-.5-.48c-.07-2.27-.11-4.34-.11-6.34,0-2.53.06-5.18.2-8.35a.5.5,0,0,1,.5-.48h116a.5.5,0,0,1,.5.48c.14,3.17.2,5.82.2,8.35,0,2,0,4.09-.11,6.34A.5.5,0,0,1,166.25,359.18Zm-115.71-1H165.77c.06-2.05.09-4,.09-5.82,0-2.38-.05-4.88-.18-7.83h-115c-.12,3-.18,5.45-.18,7.83C50.45,354.21,50.48,356.12,50.54,358.18Z" style="fill:#263238"></path></g><g id="Character"><path d="M244.78,289.63V266.7s-9.6,5.6-10.67,8.8,3.74,7.47,4.8,8.8A77,77,0,0,0,244.78,289.63Z" style="fill:#92E3A9"></path><path d="M244.78,290.13a.54.54,0,0,1-.32-.11,75.34,75.34,0,0,1-5.94-5.41c-.18-.22-.46-.53-.8-.89-1.77-1.91-5.06-5.45-4.08-8.38,1.11-3.34,10.49-8.84,10.89-9.08a.5.5,0,0,1,.75.44v22.93a.51.51,0,0,1-.29.46A.49.49,0,0,1,244.78,290.13Zm-.5-22.55c-3,1.83-8.94,5.81-9.69,8.08s2.23,5.62,3.86,7.38c.36.39.66.71.85.95a59.39,59.39,0,0,0,5,4.57Z" style="fill:#263238"></path><path d="M253.05,225.89V264s-17.6,11.2-16,13.6,8.53,9.07,7.73,12-11.47,8.27-20,9.34l-6.14-28V203.22h34.14Z" style="fill:#92E3A9"></path><path d="M224.78,299.47a.49.49,0,0,1-.49-.39l-6.14-28s0-.07,0-.11V203.22a.5.5,0,0,1,.5-.5h34.14a.49.49,0,0,1,.5.49l.27,22.67h0V264a.5.5,0,0,1-.23.42c-6.12,3.89-15.4,10.49-15.86,12.71a.25.25,0,0,0,0,.19,34,34,0,0,0,2.18,2.68c2.79,3.27,6.28,7.34,5.62,9.73-.9,3.32-12.16,8.67-20.42,9.7Zm-5.64-28.56,6,27.5c8.69-1.22,18.48-6.53,19.13-8.91.51-1.88-3.06-6.06-5.42-8.82-1-1.13-1.8-2.1-2.25-2.77a1.21,1.21,0,0,1-.15-1c.68-3.22,13.67-11.67,16.07-13.21V225.89l-.26-22.17H219.14Z" style="fill:#263238"></path><path d="M237.05,247.63a.5.5,0,0,1-.5-.5v-4.71a.5.5,0,0,1,.5-.5.51.51,0,0,1,.5.5v4.71A.5.5,0,0,1,237.05,247.63Z" style="fill:#263238"></path><path d="M237.05,278.13a.5.5,0,0,1-.5-.5v-25a.5.5,0,0,1,.5-.5.51.51,0,0,1,.5.5v25A.5.5,0,0,1,237.05,278.13Z" style="fill:#263238"></path><path d="M234.65,368.85s-3.47-23.47-4-34.41-6.93-77.61-6.93-77.61l-41.05,8.05-39-8.05s-6.4,66.68-6.93,77.61-4,34.41-4,34.41-4,2.13-3.47,4.27,3.2,10.93,3.2,10.93-2.93,2.4-2.67,4.27,1.07,5.34,1.07,5.34,2.13,11.46,3.73,13.6,7.21,10.93,10.94,9.6,17.34-18.14,19.2-20.8,3.47-2.67,3.47-6.41-2.67-1.06-.53-6.13,4-5.33,4-8.54a54.33,54.33,0,0,0-.53-7.2c-.27-2.4,6.93-61.34,6.93-61.34l4.8-3.74,6.4,3.74s7.2,58.94,6.94,61.34a52.52,52.52,0,0,0-.54,7.2c0,3.21,1.87,3.47,4,8.54s-.53,2.4-.53,6.13,1.6,3.74,3.47,6.41,15.47,19.47,19.2,20.8,9.34-7.47,10.94-9.6,3.73-13.6,3.73-13.6.8-3.47,1.07-5.34-2.67-4.27-2.67-4.27,2.67-8.8,3.2-10.93S234.65,368.85,234.65,368.85Z" style="fill:#92E3A9"></path><path d="M222.63,417.49a2.93,2.93,0,0,1-1-.16c-3.93-1.41-17.68-18.48-19.44-21a15.06,15.06,0,0,0-1.56-1.83,5.74,5.74,0,0,1-2-4.86,3.17,3.17,0,0,1,1-2.73c.38-.35.65-.6-.45-3.21a23.44,23.44,0,0,0-2.46-4.45A6.68,6.68,0,0,1,195.2,375a46.07,46.07,0,0,1,.4-6.08l.14-1.17c.21-1.91-4.88-44.43-6.9-61l-5.9-3.43-4.37,3.39c-2,16.53-7.12,59.11-6.91,61l.14,1.17a46.07,46.07,0,0,1,.4,6.08,6.63,6.63,0,0,1-1.58,4.28,23.44,23.44,0,0,0-2.46,4.45c-1.1,2.61-.83,2.86-.45,3.21a3.14,3.14,0,0,1,1,2.73,5.74,5.74,0,0,1-2,4.86,15.06,15.06,0,0,0-1.56,1.83c-1.75,2.51-15.5,19.58-19.44,21-3.65,1.3-8.46-5.49-10.77-8.75-.3-.42-.55-.77-.74-1-1.65-2.2-3.73-13.34-3.82-13.81,0-.13-.81-3.49-1.07-5.36s1.81-3.82,2.59-4.51c-.49-1.6-2.64-8.72-3.11-10.64-.56-2.2,2.55-4.17,3.49-4.71.37-2.53,3.46-23.92,4-34.11.53-10.82,6.87-77,6.94-77.64a.49.49,0,0,1,.2-.36.46.46,0,0,1,.39-.08l38.87,8,41-8a.48.48,0,0,1,.4.09.52.52,0,0,1,.2.35c.06.67,6.41,66.82,6.93,77.64.5,10.19,3.59,31.58,4,34.11,1,.54,4.05,2.51,3.5,4.71-.48,1.92-2.63,9-3.11,10.64.77.69,2.84,2.71,2.58,4.51s-1,5.23-1.07,5.38c-.08.45-2.17,11.59-3.82,13.79-.19.25-.44.6-.74,1C230.33,411.56,226.12,417.49,222.63,417.49ZM182.9,302.2a.55.55,0,0,1,.25.07l6.4,3.73a.51.51,0,0,1,.25.38c.29,2.41,7.2,59,6.93,61.46L196.6,369a44.74,44.74,0,0,0-.4,6,5.73,5.73,0,0,0,1.41,3.72,24.8,24.8,0,0,1,2.56,4.63c1.23,2.93,1,3.59.2,4.32-.34.32-.7.65-.7,2a4.8,4.8,0,0,0,1.72,4.17,15,15,0,0,1,1.66,1.95c2.07,3,15.5,19.38,19,20.62,2.93,1,7.62-5.57,9.62-8.39.3-.43.55-.78.75-1,1.25-1.68,3.05-10.24,3.64-13.4,0-.05.8-3.49,1.06-5.31.19-1.3-1.73-3.19-2.48-3.81a.51.51,0,0,1-.17-.53c0-.09,2.67-8.82,3.2-10.91.35-1.43-2.27-3.2-3.22-3.71a.48.48,0,0,1-.26-.37c0-.23-3.48-23.62-4-34.45-.51-10.28-6.27-70.62-6.89-77.05l-40.5,7.95h-.2l-38.42-7.94c-.62,6.45-6.38,66.77-6.88,77-.53,10.83-4,34.22-4,34.45a.48.48,0,0,1-.26.37c-1,.51-3.57,2.28-3.22,3.71.53,2.09,3.17,10.82,3.2,10.91a.51.51,0,0,1-.16.53c-.76.62-2.68,2.51-2.49,3.81.26,1.82,1.05,5.26,1.06,5.29.59,3.18,2.39,11.74,3.64,13.42.2.26.45.61.75,1,2,2.82,6.7,9.43,9.62,8.39,3.46-1.24,16.89-17.66,19-20.62a15,15,0,0,1,1.66-1.95,4.8,4.8,0,0,0,1.72-4.17c0-1.35-.35-1.68-.7-2-.79-.73-1-1.39.21-4.32a24.31,24.31,0,0,1,2.55-4.63A5.73,5.73,0,0,0,171.2,375a43.11,43.11,0,0,0-.4-6l-.13-1.17c-.27-2.43,6.64-59,6.93-61.46a.53.53,0,0,1,.19-.34l4.8-3.73A.51.51,0,0,1,182.9,302.2Z" style="fill:#263238"></path><path d="M221.56,305.65s-18.3,2.62-30.8,12.21l-.29-2.62s6.69-9,29.64-12.78Z" style="fill:#a3a3a3"></path><path d="M190.76,318.36a.65.65,0,0,1-.19,0,.5.5,0,0,1-.3-.41L190,315.3a.5.5,0,0,1,.09-.36c.28-.37,7.07-9.21,30-13a.48.48,0,0,1,.53.29l1.46,3.2a.49.49,0,0,1,0,.44.51.51,0,0,1-.37.26c-.18,0-18.32,2.71-30.56,12.1A.51.51,0,0,1,190.76,318.36Zm.23-3,.18,1.54c11.07-8.13,26.34-11.1,29.67-11.67l-1-2.25C199.26,306.47,192,314.23,191,315.39Z" style="fill:#263238"></path><path d="M145.87,305.65s18.3,2.62,30.79,12.21l.29-2.62s-6.68-9-29.63-12.78Z" style="fill:#a3a3a3"></path><path d="M176.66,318.36a.5.5,0,0,1-.3-.11c-12.25-9.4-30.38-12.08-30.56-12.1a.51.51,0,0,1-.37-.26.49.49,0,0,1,0-.44l1.45-3.2a.5.5,0,0,1,.54-.29c22.89,3.77,29.68,12.61,30,13a.5.5,0,0,1,.09.36l-.29,2.61a.5.5,0,0,1-.3.41A.65.65,0,0,1,176.66,318.36Zm-30.07-13.1c3.33.57,18.6,3.54,29.67,11.67l.17-1.54c-1-1.16-8.26-8.92-28.81-12.38Z" style="fill:#263238"></path><path d="M151.38,389.17c-.65,0-.89-.28-1-.54-.52-1.54,7.57-7.14,14.44-11.57a.5.5,0,0,1,.69.15.49.49,0,0,1-.15.69c-6.29,4.06-12.9,8.81-13.9,10.27,2.46-.18,6.8-3.05,9.68-4.94,2.65-1.74,3.16-2.06,3.62-1.73a.58.58,0,0,1,.21.64.49.49,0,0,1-.6.36l-.12,0c-.48.24-1.57,1-2.56,1.6-3.14,2.08-7.45,4.91-10.16,5.11Z" style="fill:#263238"></path><path d="M218.63,391.29a.84.84,0,0,1-.91-.54c-.18-.54-.49-1.46,9.41-9a.5.5,0,1,1,.6.8c-6.9,5.23-8.54,7.08-8.93,7.69a33.24,33.24,0,0,0,6.83-1.89c4.25-1.46,6.91-2.31,8.05-1.72a1.1,1.1,0,0,1,.54.66.49.49,0,0,1-.34.62.51.51,0,0,1-.62-.34c-.88-.49-4.44.74-7.3,1.72S220.25,391.29,218.63,391.29Z" style="fill:#263238"></path><path d="M230.49,380.39a.51.51,0,0,1-.4-.2.5.5,0,0,1,.1-.7c2.39-1.76,4.17-3,4.17-3a.5.5,0,0,1,.58.82s-1.77,1.25-4.15,3A.55.55,0,0,1,230.49,380.39Z" style="fill:#263238"></path><path d="M208.55,385.64a21.94,21.94,0,0,1-3.93-.41.5.5,0,1,1,.2-1c2.21.44,6,.73,6.74-.39-.09-1-6.83-4.35-13.07-6.82a.5.5,0,1,1,.37-.93c2.16.86,12.94,5.22,13.64,7.47a.91.91,0,0,1-.11.83C211.76,385.37,210.14,385.64,208.55,385.64Z" style="fill:#263238"></path><path d="M186.58,297.88a.51.51,0,0,1-.41-.79,38.46,38.46,0,0,1,4.84-5.21.51.51,0,0,1,.71,0,.49.49,0,0,1,0,.7,37.94,37.94,0,0,0-4.69,5.05A.52.52,0,0,1,186.58,297.88Z" style="fill:#263238"></path><path d="M194.57,289.82a.51.51,0,0,1-.37-.17.5.5,0,0,1,0-.7c5.82-5.14,12.53-10.36,12.59-10.41a.51.51,0,0,1,.71.09.5.5,0,0,1-.09.7c-.07.05-6.75,5.25-12.55,10.37A.5.5,0,0,1,194.57,289.82Z" style="fill:#263238"></path><path d="M197.77,292.44a.5.5,0,0,1-.34-.87l9.37-8.77a.5.5,0,0,1,.71,0,.48.48,0,0,1,0,.7l-9.37,8.77A.49.49,0,0,1,197.77,292.44Z" style="fill:#263238"></path><path d="M170.26,288.51a.53.53,0,0,1-.42-.23c-2.64-4.12-13.38-12.49-13.49-12.58a.49.49,0,0,1-.09-.7.52.52,0,0,1,.71-.08c.44.34,11,8.56,13.71,12.82a.5.5,0,0,1-.15.69A.53.53,0,0,1,170.26,288.51Z" style="fill:#263238"></path><path d="M170.56,292.13a.49.49,0,0,1-.38-.18L166,286.81a.5.5,0,1,1,.77-.63l4.23,5.14a.49.49,0,0,1-.07.7A.46.46,0,0,1,170.56,292.13Z" style="fill:#263238"></path><polygon points="141.33 254.7 139.17 271.56 147.81 275.66 153 256.86 141.33 254.7" style="fill:#a3a3a3"></polygon><path d="M147.81,276.16a.41.41,0,0,1-.21-.05L139,272a.51.51,0,0,1-.29-.52l2.16-16.85a.51.51,0,0,1,.21-.34.48.48,0,0,1,.38-.09l11.67,2.16a.49.49,0,0,1,.33.23.47.47,0,0,1,.06.4l-5.18,18.8a.49.49,0,0,1-.49.36Zm-8.1-4.9,7.78,3.7,4.88-17.7-10.61-2Z" style="fill:#263238"></path><path d="M135.72,269.5a3.39,3.39,0,0,1,4.47-2.67c4.94,1.72,13,4.56,13.89,5.16,1.3.86.65,4.32.65,5.83S143.06,316.93,141.55,318s-2.81,1.08-5,.44-7.35-2.6-7.57-4.33C128.84,312.71,133.9,280.87,135.72,269.5Z" style="fill:#a3a3a3"></path><path d="M139,319.38a8.73,8.73,0,0,1-2.56-.46c-.77-.23-7.61-2.34-7.91-4.73-.18-1.41,4.13-28.65,6.71-44.77h0a3.88,3.88,0,0,1,5.12-3.06c5.9,2.05,13.11,4.62,14,5.21,1.25.84,1.07,3.17.93,5,0,.46-.06.89-.06,1.21,0,1-3.51,12.48-6,20.41-4.1,12.85-6.57,19.64-7.34,20.19A4.72,4.72,0,0,1,139,319.38Zm-2.78-49.8c-4.22,26.4-6.79,43.44-6.7,44.49s3.84,2.89,7.21,3.9c2.15.64,3.25.55,4.54-.36,1.52-1.58,12.87-37.94,13-39.79,0-.34,0-.79.07-1.29.1-1.35.27-3.61-.5-4.12s-5.64-2.28-13.77-5.11a2.91,2.91,0,0,0-3.82,2.28Z" style="fill:#263238"></path><path d="M147.38,294.75a.35.35,0,0,1-.17,0L133,289.53a.5.5,0,1,1,.34-.94l13.72,5c.66-3,3.63-16.52,4.22-18.29a9.73,9.73,0,0,1,2.52-3.68.5.5,0,1,1,.66.76,8.59,8.59,0,0,0-2.23,3.23c-.64,1.9-4.27,18.58-4.31,18.75a.49.49,0,0,1-.25.33A.51.51,0,0,1,147.38,294.75Z" style="fill:#263238"></path><path d="M138,316.65a19.52,19.52,0,0,1-5.9-1.41.5.5,0,0,1-.28-.65.5.5,0,0,1,.65-.28c2,.8,5.58,1.81,6.68,1.12s4.4-10.12,7.14-19a.5.5,0,0,1,.62-.33.51.51,0,0,1,.33.63c-1,3.06-5.76,18.39-7.56,19.51A3.29,3.29,0,0,1,138,316.65Z" style="fill:#263238"></path><polygon points="224.03 254.7 226.19 271.56 217.55 275.66 212.36 256.86 224.03 254.7" style="fill:#a3a3a3"></polygon><path d="M217.55,276.16a.49.49,0,0,1-.49-.36L211.88,257a.47.47,0,0,1,.06-.4.49.49,0,0,1,.33-.23l11.67-2.16a.52.52,0,0,1,.59.43l2.16,16.85a.51.51,0,0,1-.29.52l-8.64,4.1A.41.41,0,0,1,217.55,276.16ZM213,257.26l4.88,17.7,7.78-3.7-2.05-16Z" style="fill:#263238"></path><path d="M229.64,269.5a3.39,3.39,0,0,0-4.47-2.67c-4.94,1.72-13,4.56-13.89,5.16-1.3.86-.65,4.32-.65,5.83S222.3,316.93,223.81,318s2.81,1.08,5,.44,7.35-2.6,7.57-4.33C236.52,312.71,231.46,280.87,229.64,269.5Z" style="fill:#a3a3a3"></path><path d="M226.37,319.38a4.72,4.72,0,0,1-2.85-1c-.77-.55-3.24-7.34-7.34-20.19-2.54-7.93-6.05-19.44-6.05-20.41,0-.32,0-.75-.06-1.21-.14-1.87-.32-4.2.93-5,.9-.59,8.11-3.16,14-5.21a3.88,3.88,0,0,1,5.12,3.06c2.58,16.11,6.89,43.36,6.71,44.77-.3,2.39-7.13,4.5-7.91,4.73A8.73,8.73,0,0,1,226.37,319.38Zm-.08-52.24a2.93,2.93,0,0,0-1,.16c-8.13,2.83-13.15,4.69-13.77,5.11-.77.51-.6,2.77-.5,4.12,0,.5.07,1,.07,1.29.1,1.85,11.45,38.21,13,39.81,1.26.89,2.36,1,4.51.34,3.37-1,7.07-2.82,7.21-3.91s-2.48-18.09-6.7-44.48h0a2.91,2.91,0,0,0-2.86-2.44Z" style="fill:#263238"></path><path d="M211.28,272a9.17,9.17,0,0,1,2.38,3.46c.65,1.94,4.32,18.8,4.32,18.8l14.26-5.19" style="fill:#a3a3a3"></path><path d="M218,294.75a.51.51,0,0,1-.24-.07.49.49,0,0,1-.25-.33c0-.17-3.67-16.85-4.31-18.75a8.61,8.61,0,0,0-2.23-3.23.5.5,0,1,1,.66-.76,9.73,9.73,0,0,1,2.52,3.68c.59,1.77,3.56,15.3,4.22,18.29l13.72-5a.5.5,0,0,1,.34.94l-14.26,5.18A.35.35,0,0,1,218,294.75Z" style="fill:#263238"></path><path d="M227.39,316.65a3.29,3.29,0,0,1-1.68-.37c-1.8-1.12-6.61-16.45-7.56-19.51a.51.51,0,0,1,.33-.63.5.5,0,0,1,.62.33c2.74,8.84,6.16,18.34,7.14,19s4.68-.32,6.68-1.12a.5.5,0,0,1,.65.28.5.5,0,0,1-.28.65A19.52,19.52,0,0,1,227.39,316.65Z" style="fill:#263238"></path><path d="M143.75,157.64l.08-1.27s-6.22-3.18-8.87-2c0,0-2.38,3.28-4.21,6.42s-29,49.46-29.31,54.17,14.13,7.59,17.27,5.76c2.7-1.58,17.82-23.52,22-29.59l-1,64.39s13.61,8.38,34.28,11.25,42.66-5.49,43.7-6.28l1-.78,2.88-103.1Z" style="fill:#a3a3a3"></path><path d="M183.07,267.9a66.92,66.92,0,0,1-9.22-.61c-20.54-2.86-34.33-11.24-34.47-11.32a.51.51,0,0,1-.24-.43l1-62.73c-6.18,9-18.63,26.87-21.19,28.36s-11.15.14-15.32-2.41c-1.87-1.15-2.78-2.43-2.7-3.81.22-4,18.25-35.37,29-53.71l.39-.68c1.83-3.12,4.22-6.44,4.25-6.47a.45.45,0,0,1,.2-.16c2.83-1.28,9,1.86,9.3,2a.52.52,0,0,1,.27.48l-.05.74,77.26-1a.43.43,0,0,1,.36.15.49.49,0,0,1,.15.36l-2.88,103.1a.49.49,0,0,1-.2.39l-1.05.79C217.14,261.5,201,267.9,183.07,267.9Zm-42.92-12.64a98.08,98.08,0,0,0,33.84,11c20.53,2.86,42.4-5.52,43.33-6.19l.86-.64L221,157.14l-77.27,1a.43.43,0,0,1-.37-.15.49.49,0,0,1-.14-.38l.06-.94c-1.84-.9-6.08-2.61-8-1.88-.44.61-2.5,3.52-4.11,6.28l-.4.68c-17.91,30.61-28.69,50.52-28.84,53.26-.07,1.22,1.17,2.25,2.22,2.89,4.08,2.5,12.25,3.6,14.3,2.41s12.61-16,21.8-29.44a.51.51,0,0,1,.92.29Z" style="fill:#263238"></path><path d="M122.25,215.15a.51.51,0,0,1-.42-.23c-3.88-6-11.35-7.86-11.43-7.88a.5.5,0,1,1,.24-1c.32.08,7.93,1.94,12,8.31a.49.49,0,0,1-.15.69A.5.5,0,0,1,122.25,215.15Z" style="fill:#263238"></path><path d="M123.06,211.31a.51.51,0,0,1-.45-.29,10.34,10.34,0,0,0-2.09-2.75.48.48,0,0,1,0-.7.5.5,0,0,1,.71,0,11.23,11.23,0,0,1,2.29,3,.51.51,0,0,1-.24.67A.54.54,0,0,1,123.06,211.31Z" style="fill:#263238"></path><path d="M119.84,207.45a.46.46,0,0,1-.33-.13,43.22,43.22,0,0,0-5.8-4.18.5.5,0,0,1,.5-.86,42.61,42.61,0,0,1,6,4.29.5.5,0,0,1-.33.88Z" style="fill:#263238"></path><path d="M182,259.32a.51.51,0,0,1-.5-.5V234.05a.5.5,0,0,1,.5-.5.5.5,0,0,1,.5.5v24.77A.5.5,0,0,1,182,259.32Z" style="fill:#263238"></path><path d="M184.44,238.5A1.53,1.53,0,1,1,186,237,1.53,1.53,0,0,1,184.44,238.5Zm0-2.06a.53.53,0,1,0,.53.53A.52.52,0,0,0,184.44,236.44Z" style="fill:#263238"></path><path d="M184.44,253.66a1.53,1.53,0,1,1,1.53-1.53A1.53,1.53,0,0,1,184.44,253.66Zm0-2.06a.53.53,0,1,0,.53.53A.52.52,0,0,0,184.44,251.6Z" style="fill:#263238"></path><path d="M142.2,157.25l-1.52,33.9-1.29,59s4.53,3.67,16.63,5.83,13.83,1.51,13.83,1.51l-1.08-99Z" style="fill:#263238"></path><path d="M168.66,258.1c-1.67,0-5.24-.27-12.72-1.61-12.09-2.16-16.68-5.78-16.87-5.94a.46.46,0,0,1-.18-.39l1.29-59,1.52-33.91a.48.48,0,0,1,.16-.35.49.49,0,0,1,.36-.13l26.58,1.3a.49.49,0,0,1,.47.49l1.08,99a.47.47,0,0,1-.32.47A4.4,4.4,0,0,1,168.66,258.1Zm-28.77-8.18c1,.68,5.76,3.72,16.22,5.59,9.16,1.63,12.3,1.65,13.24,1.57l-1.07-98-25.61-1.25-1.49,33.4Z" style="fill:#263238"></path><path d="M197.29,258.59l.87-101.77,23.39-.19,2.32,95.48S213.72,257.3,197.29,258.59Z" style="fill:#263238"></path><path d="M197.29,259.09A.55.55,0,0,1,197,259a.52.52,0,0,1-.16-.37l.87-101.77a.49.49,0,0,1,.49-.5l23.39-.19h0a.5.5,0,0,1,.5.49l2.32,95.48a.5.5,0,0,1-.27.46c-.1.05-10.43,5.24-26.77,6.53Zm1.36-101.77-.85,100.73c14.35-1.22,23.85-5.44,25.56-6.25l-2.3-94.67Z" style="fill:#263238"></path><path d="M153.43,255.35a70.14,70.14,0,0,0,12.32,4.11c6.7,1.51,9.94,1.08,10.37,3s.65,6.7-.65,8.21-5.18,1.52-9.51.44-18.36-6.49-18.36-6.49Z" style="fill:#263238"></path><path d="M171.4,272.39a23.74,23.74,0,0,1-5.56-.78c-4.3-1.07-17.85-6.28-18.42-6.5a.5.5,0,0,1-.25-.73l5.84-9.29a.48.48,0,0,1,.63-.19A70.17,70.17,0,0,0,165.86,259c2.21.5,4,.79,5.53,1,3.13.48,4.86.75,5.22,2.38.4,1.82.76,6.88-.76,8.65C175.07,271.93,173.51,272.39,171.4,272.39Zm-23.06-8c2.67,1,14,5.31,17.74,6.25,4.39,1.1,7.93,1,9-.27s1-5.78.54-7.78c-.21-.93-1.42-1.15-4.39-1.62-1.5-.23-3.36-.52-5.6-1a70.68,70.68,0,0,1-12-4Z" style="fill:#263238"></path><path d="M141.55,251.89s-2.16,11.67-.65,12.75,5.62,4.32,8,2.16,4.54-11.45,4.54-11.45Z" style="fill:#a3a3a3"></path><path d="M147,268c-2.25,0-4.77-1.83-6-2.76l-.31-.22c-1.6-1.14-.22-9.64.45-13.25a.47.47,0,0,1,.22-.33.58.58,0,0,1,.41-.06l11.88,3.46a.5.5,0,0,1,.35.59c-.09.39-2.23,9.47-4.69,11.71A3.22,3.22,0,0,1,147,268Zm-5-15.5c-1.06,5.91-1.4,11.21-.75,11.71l.32.22c1.53,1.12,5.12,3.73,7.05,2,1.75-1.59,3.58-7.9,4.27-10.73Z" style="fill:#263238"></path><path d="M213.08,255.35a70.2,70.2,0,0,1-12.31,4.11c-6.7,1.51-9.94,1.08-10.38,3s-.64,6.7.65,8.21,5.19,1.52,9.51.44,18.37-6.49,18.37-6.49Z" style="fill:#263238"></path><path d="M195.11,272.39c-2.11,0-3.67-.46-4.45-1.37-1.51-1.77-1.16-6.83-.75-8.65.36-1.63,2.08-1.9,5.21-2.38,1.48-.23,3.32-.52,5.53-1a69.81,69.81,0,0,0,12.22-4.07.48.48,0,0,1,.63.19l5.84,9.29a.48.48,0,0,1,0,.42.52.52,0,0,1-.29.31c-.58.22-14.13,5.43-18.43,6.5A23.67,23.67,0,0,1,195.11,272.39ZM212.89,256a70.46,70.46,0,0,1-12,4c-2.25.51-4.11.8-5.6,1-3,.47-4.19.69-4.4,1.62-.44,2-.58,6.47.54,7.78s4.62,1.37,9,.27c3.75-.94,15.07-5.23,17.74-6.25Z" style="fill:#263238"></path><path d="M225,251.89s2.16,11.67.64,12.75-5.61,4.32-8,2.16-4.54-11.45-4.54-11.45Z" style="fill:#a3a3a3"></path><path d="M219.55,268a3.25,3.25,0,0,1-2.27-.86c-2.46-2.24-4.6-11.32-4.69-11.71a.51.51,0,0,1,.35-.59l11.89-3.46a.56.56,0,0,1,.4.06.52.52,0,0,1,.23.33c.66,3.61,2,12.11.44,13.25l-.31.22C224.32,266.2,221.8,268,219.55,268Zm-5.87-12.33c.47,1.88,2.33,9,4.28,10.73s5.51-.85,7-2l.31-.22c.66-.5.31-5.8-.75-11.71Z" style="fill:#263238"></path><rect x="176.12" y="260.11" width="14.04" height="13.61" style="fill:#fff"></rect><path d="M190.16,274.22h-14a.5.5,0,0,1-.5-.5V260.11a.5.5,0,0,1,.5-.5h14a.5.5,0,0,1,.5.5v13.61A.5.5,0,0,1,190.16,274.22Zm-13.54-1h13V260.61h-13Z" style="fill:#263238"></path><circle cx="165.83" cy="458.47" r="3.47" style="fill:#fff"></circle><path d="M165.83,462.44a4,4,0,1,1,4-4A4,4,0,0,1,165.83,462.44Zm0-6.94a3,3,0,1,0,3,3A3,3,0,0,0,165.83,455.5Z" style="fill:#263238"></path><path d="M131.69,392.05s2.93,36.55,4,45.35a129.89,129.89,0,0,1,1.07,14.13s-6.4,10.67-7.74,13.07-5.33,5.07-8.8,6.67-3.47,4-1.87,4.8,14.41,1.34,18.94.54,8.27-1.6,9.34-3.47,2.4-4.27,2.4-4.27-1.34,5.07.26,5.6,6.67-.26,7.21-1.06.53-7.21,1.06-8.54,3.74-4.8,3.2-11.47a42,42,0,0,0-2.66-11.73s9.86-47.21,9.33-48.82-.53-1.06-1.87-.26-19.2,16.27-21.6,16.53S134.09,392.32,131.69,392.05Z" style="fill:#263238"></path><path d="M130.39,477.5c-5.24,0-11.14-.42-12.26-1a2.28,2.28,0,0,1-1.31-2.08c0-1.38,1.19-2.7,3.19-3.62,3.34-1.54,7.29-4.14,8.58-6.46s7-11.78,7.67-13a136,136,0,0,0-1.07-13.94c-1.05-8.71-4-45-4-45.37a.52.52,0,0,1,.15-.39.48.48,0,0,1,.41-.14c1.34.15,3.26,3.35,6.27,8.57,1.84,3.18,4.91,8.5,5.86,8.5h0c1.55-.17,11.76-8.61,16.67-12.66,2.83-2.34,4.33-3.57,4.74-3.81a6.53,6.53,0,0,0,.65-.44c.4-.27.71-.5,1.1-.37s.6.61.85,1.35c.54,1.63-7.57,40.68-9.29,48.92a42.69,42.69,0,0,1,2.64,11.74,16.71,16.71,0,0,1-2.7,10.73,7.35,7.35,0,0,0-.53,1,23.08,23.08,0,0,0-.49,4.2c-.2,2.71-.32,3.95-.63,4.42-.72,1.09-6.13,1.82-7.77,1.27-1-.35-1.23-1.81-1.12-3.26-.31.56-.65,1.15-1,1.7-1.18,2.06-4.92,2.87-9.68,3.71A46.34,46.34,0,0,1,130.39,477.5Zm1.88-84.5c.48,5.9,3,36.46,3.92,44.34a131.67,131.67,0,0,1,1.07,14.19.59.59,0,0,1-.07.26c-.07.11-6.42,10.69-7.73,13.06s-5.54,5.27-9,6.88c-1.62.74-2.59,1.76-2.61,2.72a1.26,1.26,0,0,0,.76,1.17c1.42.72,14,1.32,18.62.49,4.19-.74,8-1.54,9-3.22,1.07-1.86,2.4-4.26,2.4-4.26a.49.49,0,0,1,.62-.22.48.48,0,0,1,.3.59c-.57,2.18-.74,4.77-.06,5,1.49.5,6.16-.33,6.63-.88a22.1,22.1,0,0,0,.46-3.93,22.18,22.18,0,0,1,.56-4.51,8.34,8.34,0,0,1,.61-1.11,15.77,15.77,0,0,0,2.55-10.13,41.62,41.62,0,0,0-2.63-11.58.61.61,0,0,1,0-.3c3.89-18.63,9.59-46.94,9.34-48.58-.09-.25-.16-.45-.22-.57l-.19.13c-.19.13-.42.3-.72.48s-2.33,1.84-4.61,3.72c-8.09,6.68-15.5,12.69-17.2,12.88-1.4.14-3.25-2.76-6.86-9C135.64,398,133.49,394.28,132.27,393Z" style="fill:#263238"></path><path d="M136.76,451.53s10.13,3.74,17.34,9.87l-3.47,5.34s-12.81-8.27-18.14-8.27Z" style="fill:#fff"></path><path d="M150.63,467.24a.5.5,0,0,1-.27-.08c-.13-.08-12.74-8.19-17.87-8.19a.51.51,0,0,1-.44-.26.52.52,0,0,1,0-.5l4.27-6.94a.5.5,0,0,1,.6-.2c.1,0,10.3,3.83,17.49,9.95a.49.49,0,0,1,.09.65L151.05,467A.51.51,0,0,1,150.63,467.24ZM133.35,458c5.22.65,15,6.65,17.13,8l3-4.55c-6.24-5.18-14.6-8.62-16.47-9.35Z" style="fill:#263238"></path><polygon points="154.09 461.4 165.83 456.33 165.83 458.47 150.63 466.74 154.09 461.4" style="fill:#fff"></polygon><path d="M150.63,467.24a.52.52,0,0,1-.37-.16.5.5,0,0,1,0-.62l3.47-5.33a.51.51,0,0,1,.22-.19l11.73-5.06a.5.5,0,0,1,.7.45v2.14a.51.51,0,0,1-.26.44l-15.2,8.27A.53.53,0,0,1,150.63,467.24Zm3.8-5.44-2.31,3.56,13.21-7.19V457.1Z" style="fill:#263238"></path><circle cx="202.64" cy="458.47" r="3.47" style="fill:#fff"></circle><path d="M202.64,462.44a4,4,0,1,1,4-4A4,4,0,0,1,202.64,462.44Zm0-6.94a3,3,0,1,0,3,3A3,3,0,0,0,202.64,455.5Z" style="fill:#263238"></path><path d="M236.78,392.05s-2.93,36.55-4,45.35a129.89,129.89,0,0,0-1.07,14.13s6.4,10.67,7.74,13.07,5.33,5.07,8.8,6.67,3.47,4,1.87,4.8-14.41,1.34-18.94.54-8.27-1.6-9.34-3.47-2.4-4.27-2.4-4.27,1.34,5.07-.26,5.6-6.67-.26-7.21-1.06-.53-7.21-1.06-8.54-3.74-4.8-3.2-11.47a42,42,0,0,1,2.66-11.73s-9.87-47.21-9.33-48.82.53-1.06,1.87-.26,19.2,16.27,21.6,16.53S234.38,392.32,236.78,392.05Z" style="fill:#263238"></path><path d="M238.08,477.5a46.34,46.34,0,0,1-7-.4c-4.76-.84-8.5-1.65-9.68-3.71-.31-.55-.65-1.14-1-1.7.11,1.45-.07,2.91-1.12,3.26-1.65.55-7.05-.18-7.77-1.27-.31-.47-.43-1.71-.63-4.42a24,24,0,0,0-.49-4.2,7.35,7.35,0,0,0-.53-1,16.71,16.71,0,0,1-2.7-10.73,42.69,42.69,0,0,1,2.64-11.74c-1.72-8.24-9.83-47.29-9.29-48.92.25-.74.42-1.21.85-1.35s.7.1,1.1.37a6.53,6.53,0,0,0,.65.44c.41.24,1.91,1.47,4.74,3.81,4.91,4,15.12,12.49,16.66,12.66,1,.09,4-5.29,5.89-8.5,3-5.22,4.93-8.42,6.27-8.57a.48.48,0,0,1,.41.14.52.52,0,0,1,.15.39c0,.37-2.95,36.66-4,45.37a137.61,137.61,0,0,0-1.06,13.94c.71,1.18,6.43,10.72,7.67,13s5.24,4.92,8.58,6.46c2,.92,3.17,2.24,3.19,3.62a2.28,2.28,0,0,1-1.31,2.08C249.22,477.08,243.32,477.5,238.08,477.5Zm-18.64-9.13a.49.49,0,0,1,.44.26s1.33,2.4,2.4,4.26c1,1.68,4.8,2.48,9,3.22,4.66.83,17.2.23,18.63-.49a1.26,1.26,0,0,0,.76-1.17c0-1-1-2-2.61-2.72-3.49-1.61-7.63-4.36-9-6.88s-7.66-13-7.73-13.06a.59.59,0,0,1-.07-.26,131.67,131.67,0,0,1,1.07-14.19c1-7.88,3.44-38.44,3.92-44.34-1.22,1.28-3.37,5-4.89,7.63-3.6,6.23-5.47,9.13-6.86,9-1.7-.19-9.1-6.2-17.19-12.88-2.28-1.88-4.25-3.51-4.61-3.72s-.53-.35-.72-.48l-.2-.13c0,.13-.13.33-.22.6-.24,1.61,5.46,29.92,9.35,48.55a.51.51,0,0,1,0,.3,42.47,42.47,0,0,0-2.63,11.58,15.82,15.82,0,0,0,2.56,10.13,8.34,8.34,0,0,1,.61,1.11,22.18,22.18,0,0,1,.56,4.51,22.38,22.38,0,0,0,.46,3.94c.47.54,5.14,1.37,6.63.87.68-.23.51-2.82-.06-5a.48.48,0,0,1,.3-.59A.39.39,0,0,1,219.44,468.37Z" style="fill:#263238"></path><path d="M231.71,451.53s-10.13,3.74-17.34,9.87l3.47,5.34s12.8-8.27,18.14-8.27Z" style="fill:#fff"></path><path d="M217.84,467.24a.51.51,0,0,1-.42-.23L214,461.67a.49.49,0,0,1,.09-.65c7.19-6.12,17.39-9.92,17.49-9.95a.5.5,0,0,1,.6.2l4.26,6.94a.5.5,0,0,1,0,.5.51.51,0,0,1-.44.26c-5.13,0-17.74,8.11-17.87,8.19A.5.5,0,0,1,217.84,467.24ZM215,461.5l3,4.55c2.17-1.37,11.91-7.37,17.13-8l-3.62-5.88C229.63,452.88,221.27,456.32,215,461.5Z" style="fill:#263238"></path><polygon points="214.37 461.4 202.64 456.33 202.64 458.47 217.84 466.74 214.37 461.4" style="fill:#fff"></polygon><path d="M217.84,467.24a.53.53,0,0,1-.24-.06l-15.2-8.27a.51.51,0,0,1-.26-.44v-2.14a.49.49,0,0,1,.22-.41.51.51,0,0,1,.48,0l11.73,5.06a.51.51,0,0,1,.22.19l3.47,5.33a.51.51,0,0,1,0,.62A.52.52,0,0,1,217.84,467.24Zm-14.7-9.07,13.21,7.19L214,461.8l-10.9-4.7Z" style="fill:#263238"></path><path d="M160.45,97.35s5.89-21.3,7.22-22.82,12.55-6.46,25.87.38l6.65,24.15s-16,6.85-21.11,7.23S160.45,97.35,160.45,97.35Z" style="fill:#263238"></path><path d="M178.78,106.8c-5.46,0-18.07-8.66-18.62-9a.52.52,0,0,1-.2-.54c.61-2.19,6-21.46,7.34-23s12.85-6.74,26.46.27a.48.48,0,0,1,.26.31l6.65,24.15a.49.49,0,0,1-.28.59c-.66.28-16.11,6.89-21.27,7.27ZM161,97.14c2,1.34,13.51,9,18,8.65s18-6,20.54-7l-6.48-23.51c-12.81-6.49-23.79-1.85-25.06-.4C167.15,75.89,163.3,88.92,161,97.14Z" style="fill:#263238"></path><path d="M162.16,116.94a123.78,123.78,0,0,1-12.93-12.17c-4.95-5.71-10.65-15.41-4.19-14.83s27.39,12.93,35,13.31,33.66-16.36,37.85-13.5-5.52,15.78-8.56,18.82-11,8-11,8Z" style="fill:#263238"></path><path d="M162.16,117.44a.52.52,0,0,1-.32-.11,125.39,125.39,0,0,1-13-12.23c-3.61-4.16-8.42-11.43-6.91-14.4.5-1,1.56-1.41,3.15-1.26,3.1.27,9.31,3.12,15.87,6.14,7.44,3.43,15.14,7,19.1,7.17,3.49.17,11.28-3.52,18.81-7.08,10.49-5,17-7.88,19.29-6.34a2.92,2.92,0,0,1,1.23,2.25c.46,4.88-7.22,14.85-9.72,17.35-3,3-10.79,7.85-11.12,8a.44.44,0,0,1-.25.08l-36.14.38Zm-17.64-27a1.74,1.74,0,0,0-1.69.74c-1.08,2.13,2.67,8.56,6.77,13.29a123.26,123.26,0,0,0,12.73,12l35.81-.38c1-.62,8.06-5.07,10.83-7.84s9.82-12.32,9.42-16.55a1.89,1.89,0,0,0-.79-1.51c-2-1.34-10.64,2.78-18.31,6.41s-15.56,7.36-19.28,7.18c-4.15-.21-11.94-3.79-19.47-7.26-6.48-3-12.61-5.8-15.54-6.06Z" style="fill:#263238"></path><path d="M167.5,134.25l-.4,14.44s11.79,6.71,13.83,6.92,16.87-6.92,16.87-6.92l-2.23-16.47L167.5,132Z" style="fill:#fff"></path><path d="M181,156.11h-.11c-2.08-.2-12.82-6.28-14-7a.48.48,0,0,1-.25-.44l.4-14.44V132a.51.51,0,0,1,.15-.35.68.68,0,0,1,.36-.15l28.06.21a.49.49,0,0,1,.49.43l2.24,16.47a.49.49,0,0,1-.28.52C196.51,149.86,183.42,156.11,181,156.11ZM167.6,148.4c4.72,2.68,12,6.57,13.38,6.71s10.56-4,16.28-6.71l-2.13-15.69L168,132.52v1.75Zm-.1-14.15h0Z" style="fill:#263238"></path><path d="M161.78,103.06s1.52,26.43,2.47,28.71,12,16,14.45,16.55a19,19,0,0,0,8.18-.57c1.71-.57,10.27-15,11.41-17.31s1.71-23.39,1.33-24.34a28.62,28.62,0,0,1-.76-4.18s-12.55,4.75-17.88,4.94S161.78,103.06,161.78,103.06Z" style="fill:#fff"></path><path d="M181.18,149.05a12.2,12.2,0,0,1-2.59-.24c-2.7-.63-13.81-14.46-14.8-16.84s-2.36-26.17-2.51-28.88a.5.5,0,0,1,.18-.42.48.48,0,0,1,.46-.09c.13,0,13.86,4,19.05,3.78s17.59-4.86,17.71-4.91a.49.49,0,0,1,.44,0,.52.52,0,0,1,.24.37,25.1,25.1,0,0,0,.73,4c.56,1.41-.22,22.5-1.35,24.76-.69,1.38-9.59,16.85-11.7,17.55A21,21,0,0,1,181.18,149.05Zm-18.86-45.32c.45,7.79,1.66,26.1,2.39,27.85,1,2.32,12,15.76,14.1,16.25a18.34,18.34,0,0,0,7.91-.56c1.44-.54,9.73-14.26,11.12-17.05,1-2.08,1.68-22.55,1.31-24a22.94,22.94,0,0,1-.71-3.65c-2.58,1-12.7,4.58-17.44,4.75S165.2,104.54,162.32,103.73Z" style="fill:#263238"></path><path d="M162.54,112.76s-1.33-6.66-4.38-.76,5,10.07,5,10.07Z" style="fill:#fff"></path><path d="M163.11,122.57a.46.46,0,0,1-.23,0c-.09,0-8.39-4.49-5.16-10.75,1-2,2-2.84,3-2.7,1.59.23,2.23,3,2.34,3.59,0,0,0,0,0,.07l.57,9.31a.5.5,0,0,1-.23.45A.45.45,0,0,1,163.11,122.57Zm-2.61-12.51c-.23,0-.88.21-1.89,2.17-2.26,4.37,2.07,7.74,3.94,8.94l-.51-8.35c-.22-1.07-.84-2.67-1.49-2.76Z" style="fill:#263238"></path><path d="M199.81,111.23s3.42-5.32,4.19.19-4.76,10.46-4.76,10.46Z" style="fill:#fff"></path><path d="M199.24,122.38a.57.57,0,0,1-.22,0,.51.51,0,0,1-.28-.48l.57-10.65a.57.57,0,0,1,.08-.25c.31-.47,1.92-2.84,3.44-2.5.88.19,1.42,1.14,1.66,2.9.79,5.71-4.68,10.69-4.92,10.9A.5.5,0,0,1,199.24,122.38Zm1.06-11-.49,9.18c1.48-1.64,4.22-5.26,3.69-9.09-.17-1.2-.5-2-.88-2.06C202,109.3,200.91,110.49,200.3,111.4Z" style="fill:#263238"></path><path d="M181.33,130.37c-2.88,0-5.61-3.47-5.72-3.61a.51.51,0,0,1,.09-.71.5.5,0,0,1,.7.09s2.54,3.23,4.93,3.23c1.94,0,4-2.84,4.7-3.94a.51.51,0,0,1,.69-.17.5.5,0,0,1,.17.68C186.79,126.12,184.24,130.37,181.33,130.37Z" style="fill:#263238"></path><path d="M177.52,128.35s-7,5.71-6.27,8,8.56-1,10.84-1.14,7.41,4.37,8.75,2.09-5.71-9.32-5.71-9.32-1.9,2.28-3.8,1.9A14.12,14.12,0,0,1,177.52,128.35Z" style="fill:#263238"></path><path d="M189.66,138.43a10.73,10.73,0,0,1-4.09-1.46,9.4,9.4,0,0,0-3.44-1.28,24.19,24.19,0,0,0-3.08.74c-3.56,1-7.59,2.12-8.28.07C170,134,176,129,177.21,128a.5.5,0,0,1,.57,0,13.63,13.63,0,0,0,3.65,1.46c1.32.27,2.84-1.16,3.32-1.73a.5.5,0,0,1,.36-.18.48.48,0,0,1,.37.15c1.23,1.22,7.24,7.43,5.79,9.92A1.74,1.74,0,0,1,189.66,138.43Zm-7.43-3.74a10.07,10.07,0,0,1,3.79,1.38c1.79.9,3.82,1.93,4.38,1,.75-1.29-2.52-5.52-5.26-8.35-.7.69-2.27,2-3.91,1.67a13.49,13.49,0,0,1-3.65-1.41c-2.78,2.3-6.29,5.92-5.86,7.23.38,1.15,4.73-.06,7.06-.71a22.31,22.31,0,0,1,3.27-.77Z" style="fill:#263238"></path><path d="M167.48,112.76s7.61,1.52,8.37,1.33,2.28-1.14,0-1.9a37.31,37.31,0,0,0-8.37-1.34C166,110.85,167.48,112.76,167.48,112.76Z" style="fill:#263238"></path><path d="M175.68,114.6a79.35,79.35,0,0,1-8.3-1.35.59.59,0,0,1-.29-.18c-.25-.32-1.05-1.41-.69-2.16a1.08,1.08,0,0,1,1.08-.56,38.66,38.66,0,0,1,8.53,1.36c.39.13,1.58.53,1.54,1.44,0,.76-1,1.27-1.58,1.42A1,1,0,0,1,175.68,114.6Zm-7.91-2.3a66.68,66.68,0,0,0,8,1.3,1.45,1.45,0,0,0,.82-.5h0a2.16,2.16,0,0,0-.87-.44,37.87,37.87,0,0,0-8.21-1.31.46.46,0,0,0-.21,0A3,3,0,0,0,167.77,112.3Z" style="fill:#263238"></path><path d="M194.64,112.76s-7.61,1.52-8.37,1.33-2.28-1.14,0-1.9a37.23,37.23,0,0,1,8.37-1.34C196.16,110.85,194.64,112.76,194.64,112.76Z" style="fill:#263238"></path><path d="M186.44,114.6a1,1,0,0,1-.29,0c-.62-.15-1.56-.66-1.59-1.42,0-.91,1.16-1.31,1.55-1.44a38.66,38.66,0,0,1,8.53-1.36,1.08,1.08,0,0,1,1.08.56c.36.75-.44,1.84-.69,2.16a.58.58,0,0,1-.3.18A79.2,79.2,0,0,1,186.44,114.6Zm8.2-3.25a37.78,37.78,0,0,0-8.21,1.31c-.77.25-.87.47-.87.47a1.67,1.67,0,0,0,.83.47,68.59,68.59,0,0,0,8-1.3,2.44,2.44,0,0,0,.46-.94A1.49,1.49,0,0,1,194.64,111.35Zm0,1.41h0Z" style="fill:#263238"></path><path d="M173.57,118.27c0,1.26-.6,2.28-1.33,2.28s-1.33-1-1.33-2.28.59-2.28,1.33-2.28S173.57,117,173.57,118.27Z" style="fill:#263238"></path><path d="M192.2,118.27c0,1.26-.59,2.28-1.33,2.28s-1.33-1-1.33-2.28.6-2.28,1.33-2.28S192.2,117,192.2,118.27Z" style="fill:#263238"></path><path d="M167.1,127.33a.49.49,0,0,1-.38-.18l-4-4.75a.5.5,0,1,1,.76-.65l4,4.76a.49.49,0,0,1-.06.7A.47.47,0,0,1,167.1,127.33Z" style="fill:#263238"></path><path d="M196,128.09a.45.45,0,0,1-.25-.07.5.5,0,0,1-.19-.68l3.24-5.7a.49.49,0,0,1,.68-.19.51.51,0,0,1,.19.68l-3.24,5.71A.5.5,0,0,1,196,128.09Z" style="fill:#263238"></path><path d="M166.34,104.58a9.64,9.64,0,0,1-1,3.61,29.07,29.07,0,0,1-2.85,4.57l-.76-9.7Z" style="fill:#263238"></path><path d="M194.87,103.63s.38,4,1.9,6.08,3,1.52,3,1.52l.19-3.8-1.14-5.51Z" style="fill:#263238"></path><path d="M255,190.75s2.37,18.79,3,25.49,0,13.61-.86,16.42-9.29,1.08-11.89-3-6.26-17.5-8.21-22.47-3-8.86-3-8.86S248.94,190.53,255,190.75Z" style="fill:#a3a3a3"></path><path d="M254.21,234.54c-3.16,0-7.6-1.83-9.37-4.63s-3.89-9.41-5.78-15.27c-.94-2.88-1.82-5.61-2.47-7.29-1.94-4.94-3-8.87-3-8.91a.49.49,0,0,1,.25-.58c.6-.31,14.68-7.62,20.94-7.62H255a.49.49,0,0,1,.48.43c0,.19,2.39,18.88,3,25.51s.05,13.59-.89,16.62a2.7,2.7,0,0,1-2.48,1.67A6.81,6.81,0,0,1,254.21,234.54Zm-19.59-36c.33,1.11,1.34,4.43,2.9,8.42.67,1.71,1.55,4.45,2.49,7.35,1.78,5.52,4,12.39,5.68,15s6.51,4.5,9.32,4.12c.65-.09,1.46-.32,1.66-1,.9-2.94,1.47-9.81.84-16.23-.58-6-2.6-22.19-3-25C249,191.37,236.87,197.42,234.62,198.56Z" style="fill:#263238"></path><path d="M255.49,214.21a.52.52,0,0,1-.35-.14c-3.24-3.08-8.19-3.78-8.24-3.79a.49.49,0,0,1-.43-.56.5.5,0,0,1,.56-.43,17.54,17.54,0,0,1,8.8,4.06.49.49,0,0,1,0,.7A.48.48,0,0,1,255.49,214.21Z" style="fill:#263238"></path><path d="M254.46,208.42s-6.64-2.55-10.91-1.19" style="fill:#a3a3a3"></path><path d="M254.46,208.92a.57.57,0,0,1-.18,0c-.06,0-6.53-2.48-10.57-1.18a.5.5,0,0,1-.31-1c4.38-1.4,11,1.1,11.24,1.21a.5.5,0,0,1-.18,1Z" style="fill:#263238"></path><path d="M164.25,141.17s4.27,4.27,5.9,5.08,10.57,6.3,10.57,6.3,25.63-13.82,28.07-12.4,7.73,6.51,7.73,6.51a3.83,3.83,0,0,1,2-.82c1,0,5.29,4.48,5.29,4.48l3.45-1.63S239.9,167,240.51,167.6s4.07-1,5.09.61,12.2,22.17,12.61,23.19S232,203.19,230.55,204.21s-34.58,30.1-38.44,30.51-11.39-2.65-12.81-3.87-38.64-70.57-39.05-71.18-5.29-5.28-5.29-5.28,2.24-2.24,2.85-2.65,8.34-.41,8.34-.41,2.85-6.1,6.1-6.91a18.21,18.21,0,0,1,7.12-.41C160.79,144.22,164.25,141.17,164.25,141.17Z" style="fill:#92E3A9"></path><path d="M191.36,235.25c-4.13,0-10.92-2.76-12.39-4-.95-.82-14.06-24.89-33.45-60.79-3.22-6-5.55-10.26-5.69-10.5-.27-.4-3.34-3.4-5.21-5.19a.52.52,0,0,1-.16-.36.51.51,0,0,1,.15-.36,39.69,39.69,0,0,1,2.92-2.7c.62-.42,5.33-.49,8.31-.5.62-1.25,3.23-6.13,6.29-6.89a18.53,18.53,0,0,1,7.31-.42c.81.12,3.11-1.53,4.48-2.73a.51.51,0,0,1,.68,0c1.17,1.17,4.5,4.36,5.77,5,1.5.75,8.89,5.27,10.37,6.18,4.85-2.61,25.79-13.72,28.3-12.26,2.15,1.26,6.36,5.19,7.52,6.29a4,4,0,0,1,2-.67c1,0,3.95,2.88,5.4,4.37l3.13-1.47a.5.5,0,0,1,.63.17c5,7.28,12.66,18.3,13.16,18.84a5.58,5.58,0,0,0,1.24-.12c1.31-.19,3.11-.46,3.91.82,1.13,1.8,12.24,22.24,12.65,23.26.33.83-.43,1.47-18.71,9.35-4.45,1.91-8.64,3.71-9.12,4.06-.28.2-2,1.68-4.41,3.73-16.13,13.78-31.44,26.57-34.27,26.86A6.8,6.8,0,0,1,191.36,235.25Zm-55.68-80.87c1.29,1.24,4.62,4.46,5,5,.1.15,1.48,2.7,5.73,10.56,9.56,17.7,31.94,59.14,33.24,60.53,1.37,1.18,8.81,4.11,12.42,3.73,2.91-.31,25.29-19.43,33.72-26.63,2.81-2.41,4.18-3.57,4.48-3.79.54-.38,3.72-1.76,9.3-4.16,6.27-2.7,16.58-7.14,18.07-8.29-1.24-2.49-11.47-21.29-12.46-22.87-.45-.72-1.81-.52-2.91-.36s-1.69.25-2.1-.16c-.6-.6-11-15.62-13-18.64l-3.07,1.45a.51.51,0,0,1-.58-.11c-1.92-2-4.36-4.24-4.93-4.32a3.32,3.32,0,0,0-1.71.71.51.51,0,0,1-.66,0c0-.05-5.27-5.06-7.63-6.44-1.41-.77-15.14,5.7-27.58,12.41a.5.5,0,0,1-.5,0c-.09,0-9-5.49-10.54-6.28-1.42-.72-4.65-3.82-5.69-4.85-1,.87-3.57,2.84-4.93,2.66a17.75,17.75,0,0,0-6.93.39c-3,.75-5.74,6.59-5.77,6.65a.5.5,0,0,1-.45.28,57,57,0,0,0-8.09.35A30.45,30.45,0,0,0,135.68,154.38Z" style="fill:#263238"></path><path d="M175.84,176.44a.5.5,0,0,1-.29-.9l4.68-3.38a.5.5,0,0,1,.7.12.51.51,0,0,1-.11.7l-4.69,3.37A.52.52,0,0,1,175.84,176.44Z" style="fill:#263238"></path><path d="M184.87,169.94a.51.51,0,0,1-.41-.2.5.5,0,0,1,.12-.7l31.64-22.79a.5.5,0,0,1,.59.81l-31.65,22.79A.52.52,0,0,1,184.87,169.94Z" style="fill:#263238"></path><path d="M199.64,165.46a.51.51,0,0,1-.43-.24.5.5,0,0,1,.17-.69l24.2-14.64a.49.49,0,0,1,.68.17.5.5,0,0,1-.16.69l-24.21,14.64A.47.47,0,0,1,199.64,165.46Z" style="fill:#263238"></path><path d="M165.67,188a.48.48,0,0,1-.4-.2,91.28,91.28,0,0,1-5.78-9.48.5.5,0,0,1,.2-.68.51.51,0,0,1,.68.2,93.28,93.28,0,0,0,5.7,9.36.5.5,0,0,1-.1.7A.47.47,0,0,1,165.67,188Z" style="fill:#263238"></path><path d="M157.9,174.89a.49.49,0,0,1-.44-.26c-5.65-10.51-11.7-22.95-11.76-23.08a.5.5,0,0,1,.23-.67.51.51,0,0,1,.67.24c.06.12,6.1,12.55,11.74,23a.5.5,0,0,1-.2.68A.53.53,0,0,1,157.9,174.89Z" style="fill:#263238"></path><path d="M169.54,165.46a.52.52,0,0,1-.44-.25c-2-3.43-9.85-20.27-10.19-21a.51.51,0,0,1,.25-.66.49.49,0,0,1,.66.24c.08.18,8.15,17.51,10.15,20.91a.5.5,0,0,1-.18.68A.47.47,0,0,1,169.54,165.46Z" style="fill:#263238"></path><path d="M208.38,179.7a.5.5,0,0,1-.17-1l5.68-2a.5.5,0,0,1,.34.94l-5.68,2A.51.51,0,0,1,208.38,179.7Z" style="fill:#263238"></path><path d="M219.74,175.6a.5.5,0,0,1-.17-1l20.77-7.5a.5.5,0,0,1,.64.3.49.49,0,0,1-.3.64l-20.77,7.5Z" style="fill:#263238"></path><path d="M123.16,239.32s-33.9,26.4-34.55,29.21,3.46,19,5,21,3.46,2.59,5.18,1.73,31.34-44.08,31.34-44.08l13.18-8s2.28,4,5.78,2.52,3.72-4.25,3.94-6.2a8.14,8.14,0,0,0-.22-3.24l16.64-9.51-4.32-9.07-12.32,6.48s-2.59-3.24-7.56.43a75.73,75.73,0,0,0-10.16,9.73Z" style="fill:#b5b5b5"></path><path d="M97.2,292.1a5.23,5.23,0,0,1-4-2.3c-1.61-2.07-5.74-18.43-5.06-21.38s29.05-25.07,34.73-29.5h0l11.87-9a76.44,76.44,0,0,1,10.2-9.76c4.33-3.2,7.08-1.42,8-.64l12-6.31a.48.48,0,0,1,.39,0,.53.53,0,0,1,.29.26l4.32,9.08a.5.5,0,0,1-.2.65l-16.31,9.32a9.38,9.38,0,0,1,.14,3.05l0,.15c-.22,2-.54,4.93-4.23,6.46-2.81,1.16-5.09-.81-6.13-2.31l-12.67,7.68c-5.1,7.44-29.71,43.28-31.46,44.16A4,4,0,0,1,97.2,292.1Zm26.26-52.39c-13,10.15-33.86,27-34.36,28.94-.61,2.63,3.47,18.73,4.87,20.53s3.07,2.35,4.57,1.59c1.45-1,19.42-26.8,31.14-43.91a.46.46,0,0,1,.16-.15l13.18-8a.5.5,0,0,1,.38-.06.53.53,0,0,1,.31.24c.08.14,2.11,3.57,5.16,2.31s3.4-3.7,3.61-5.63l0-.16a8.05,8.05,0,0,0-.19-3,.49.49,0,0,1,.23-.59l16.23-9.28-3.9-8.19L153,220.57a.49.49,0,0,1-.63-.13c-.09-.11-2.37-2.8-6.87.53a75.54,75.54,0,0,0-10.08,9.64l-.07.08Z" style="fill:#263238"></path><path d="M107.72,210.27s7.85.26,11.51,3.67,10.21,11.51,11,12.29a11.19,11.19,0,0,0,2.36,1.57s-8.38,9.16-9.42,11.52l-1,2.35a95,95,0,0,1-12-8.37c-5.23-4.45-10.73-9.42-10.46-15.7s6.28-11,6.28-11" style="fill:#a3a3a3"></path><path d="M122.11,242.17a.54.54,0,0,1-.25-.06,96.33,96.33,0,0,1-12.11-8.43c-5.76-4.89-10.91-9.81-10.64-16.1.26-6.44,6.21-11.17,6.47-11.36a.5.5,0,1,1,.61.78c0,.05-5.84,4.65-6.08,10.62s4.72,10.57,10.29,15.3a94.56,94.56,0,0,0,11.48,8l.82-1.84c.94-2.12,7.33-9.25,9.08-11.18a9.68,9.68,0,0,1-1.91-1.35c-.24-.24-.89-1-1.87-2.17-2.43-2.88-6.5-7.69-9.11-10.12-3.48-3.24-11.11-3.53-11.19-3.53a.5.5,0,0,1-.48-.51.52.52,0,0,1,.51-.49c.33,0,8.08.31,11.84,3.8,2.66,2.46,6.75,7.31,9.19,10.2.9,1.07,1.61,1.91,1.82,2.11a10.88,10.88,0,0,0,2.22,1.48.5.5,0,0,1,.15.78c-2.88,3.15-8.53,9.58-9.34,11.38l-1,2.36a.5.5,0,0,1-.3.27A.47.47,0,0,1,122.11,242.17Z" style="fill:#263238"></path><path d="M132.58,227.8a12.74,12.74,0,0,0,5,2.1c3.4.78,7.06,2.35,7.85,3.14s5.76,3.92,5.5,5.23-.27,3.4-1.84,3.4-4.18-1.57-4.18-1.57l-4.45-1.3s3.4,2.61,3.4,3.66.26,2.62-1.31,3.4-4.19,3.66-6,4.45a14.32,14.32,0,0,1-5.23,1.05c-1.31,0-5-2.88-6.28-4.45a28.57,28.57,0,0,1-2.88-5.24S122.9,231.73,132.58,227.8Z" style="fill:#fff"></path><path d="M131.27,251.86c-1.59,0-5.38-3.09-6.67-4.63a29,29,0,0,1-2.95-5.36.61.61,0,0,1,0-.24c0-.1.93-10.29,10.78-14.29a.5.5,0,0,1,.51.08,12.39,12.39,0,0,0,4.76,2c3.22.74,7.15,2.33,8.09,3.27.19.19.71.57,1.3,1,2.6,1.93,4.57,3.5,4.34,4.67,0,.21-.08.45-.12.69-.19,1.24-.47,3.11-2.21,3.11-1.57,0-4-1.36-4.38-1.6l-2.11-.62c.92.86,1.76,1.83,1.76,2.51,0,.12,0,.25,0,.38,0,1,.07,2.63-1.59,3.47a15.44,15.44,0,0,0-2.54,1.92,16.7,16.7,0,0,1-3.51,2.54A14.81,14.81,0,0,1,131.27,251.86Zm-8.65-10.26a27.11,27.11,0,0,0,2.75,5c1.35,1.62,4.87,4.27,5.9,4.27a13.8,13.8,0,0,0,5-1,16.2,16.2,0,0,0,3.25-2.38,16.37,16.37,0,0,1,2.74-2.06c1-.51,1.07-1.37,1-2.54,0-.14,0-.28,0-.41,0-.43-1.51-2-3.21-3.27a.5.5,0,0,1,.45-.87l4.45,1.3.11,0a10.61,10.61,0,0,0,3.93,1.5c.82,0,1-.89,1.22-2.26,0-.26.08-.51.12-.74.11-.66-2.94-2.93-3.94-3.67a15.46,15.46,0,0,1-1.41-1.11c-.66-.65-4.14-2.2-7.61-3a14.57,14.57,0,0,1-4.93-2C124,232,122.75,240.49,122.62,241.6Z" style="fill:#263238"></path><path d="M142.52,246.36h-.08c-4.2-.71-10.22-7.09-10.47-7.36a.5.5,0,1,1,.73-.69c.06.07,6,6.41,9.9,7.07a.48.48,0,0,1,.41.57A.49.49,0,0,1,142.52,246.36Z" style="fill:#263238"></path><path d="M138.89,249.75c-3.82,0-9.55-5.5-9.8-5.73a.51.51,0,0,1,0-.71.5.5,0,0,1,.71,0c.06,0,5.68,5.45,9.1,5.45a.5.5,0,0,1,0,1Z" style="fill:#263238"></path><path d="M133.3,251.68h-.05c-2.06-.2-5.69-4-6.1-4.39a.5.5,0,0,1,.73-.69c1,1.09,4,3.95,5.47,4.09a.5.5,0,0,1,0,1Z" style="fill:#263238"></path><polygon points="165.1 213.65 282.32 155.1 284.48 160.72 168.77 221.43 165.1 213.65" style="fill:#263238"></polygon><path d="M168.77,221.93l-.16,0a.5.5,0,0,1-.29-.26l-3.67-7.78a.49.49,0,0,1,.23-.66l117.21-58.55a.53.53,0,0,1,.41,0,.55.55,0,0,1,.29.29l2.16,5.62a.5.5,0,0,1-.24.62L169,221.87A.46.46,0,0,1,168.77,221.93Zm-3-8.05,3.24,6.86,114.85-60.26-1.8-4.69Z" style="fill:#263238"></path><path d="M257.36,221.43c1.3,1.08.22,14.26-1.29,16s-8.86,1.73-12.75-.43-26.58-31.55-26.58-31.55,5,.43,6.92-.65,5.83-5.83,5.83-5.83,8,5.4,10.16,6.48,11.88,5.62,14.26,9.94" style="fill:#a3a3a3"></path><path d="M251,239.15a17.65,17.65,0,0,1-7.95-1.73c-3.94-2.18-25.81-30.47-26.73-31.68a.49.49,0,0,1,0-.54.5.5,0,0,1,.48-.26c1.34.12,5.15.24,6.63-.59,1.84-1,5.65-5.66,5.69-5.71a.51.51,0,0,1,.67-.1c.08.06,8,5.4,10.1,6.45l.57.28c3.18,1.56,11.62,5.72,13.9,9.87a.5.5,0,0,1-.19.68.51.51,0,0,1-.68-.2c-2.13-3.88-10.67-8.07-13.47-9.45l-.58-.28c-1.92-1-8.21-5.17-9.83-6.27-1,1.14-4,4.66-5.69,5.61-1.48.82-4.47.83-6.09.77,8,10.35,22.83,28.93,25.75,30.55,3.9,2.17,10.89,1.95,12.13.54,1.48-1.7,2.22-14.37,1.35-15.28a.5.5,0,0,1,.64-.77c.26.21.57.67.7,2.35.3,3.9-.57,12.8-1.94,14.36C255.62,238.69,253.47,239.15,251,239.15Z" style="fill:#263238"></path><path d="M221.31,180.63s-4.72,2.28-4.72,3.1.16,2.28.16,2.28-5.7,4.24-6.68,4.56-2.61,1-2.45,2.94,1.31,7.33,2.12,8.47a5.11,5.11,0,0,0,3.26,1.63c.49,0,6.49,4.48,7.63,4s6.48-.22,9.16-5.62a23.76,23.76,0,0,0,1.3-4.24s1.8-2.77,1.8-4.23-1.8-5.55-1.8-5.55l-3.75,1.8Z" style="fill:#fff"></path><path d="M220.42,208.14c-1,0-2.67-1-5.72-2.95a20.36,20.36,0,0,0-1.79-1.09,5.7,5.7,0,0,1-3.58-1.83c-.93-1.31-2.06-6.93-2.21-8.72-.2-2.46,2-3.21,2.79-3.45a65.61,65.61,0,0,0,6.31-4.32c0-.48-.13-1.43-.13-2.05s1.68-1.95,5-3.55a.5.5,0,0,1,.63.17l5.79,8.77,3.36-1.61a.51.51,0,0,1,.67.25c.19.43,1.84,4.22,1.84,5.75s-1.49,3.89-1.83,4.43a23.38,23.38,0,0,1-1.32,4.26c-2.27,4.58-6.43,5.3-8.43,5.64a6.87,6.87,0,0,0-1,.22A1.07,1.07,0,0,1,220.42,208.14Zm.72-26.87c-1.88.94-3.87,2.12-4.07,2.54,0,.69.18,2.13.18,2.14a.51.51,0,0,1-.2.46c-1,.71-5.82,4.3-6.82,4.64-1.17.38-2.23.95-2.11,2.41.17,2.07,1.33,7.25,2,8.23a4.61,4.61,0,0,0,2.85,1.42c.29,0,.63.2,2.24,1.24,1.36.88,4.55,2.93,5.21,2.78a5.94,5.94,0,0,1,1.19-.27c2-.34,5.66-1,7.7-5.1a22.18,22.18,0,0,0,1.26-4.12.87.87,0,0,1,.07-.17c.48-.74,1.72-2.88,1.72-4a20,20,0,0,0-1.55-4.87l-3.28,1.57a.5.5,0,0,1-.63-.18Z" style="fill:#263238"></path><path d="M220,194.33a.48.48,0,0,1-.46-.31l-3.26-7.82a.5.5,0,1,1,.92-.38l3.26,7.82a.49.49,0,0,1-.27.65A.43.43,0,0,1,220,194.33Z" style="fill:#263238"></path><line x1="212.35" y1="189.1" x2="215.61" y2="197.74" style="fill:#fff"></line><path d="M215.61,198.24a.51.51,0,0,1-.47-.32l-3.26-8.64a.49.49,0,0,1,.29-.64.5.5,0,0,1,.65.29l3.26,8.64a.51.51,0,0,1-.29.64Z" style="fill:#263238"></path><line x1="210.07" y1="190.57" x2="211.7" y2="199.54" style="fill:#fff"></line><path d="M211.7,200a.49.49,0,0,1-.49-.41l-1.63-9a.5.5,0,0,1,1-.18l1.63,9a.5.5,0,0,1-.4.58Z" style="fill:#263238"></path></g></svg>