<svg xmlns="http://www.w3.org/2000/svg" viewBox="0 0 500 500"><g id="background-simple"><path d="M64.69,321.87S93.25,386.25,164.94,407s147.87-7.77,210.18-29.22,94.85-75.68,80.66-131-66.76-51.07-116-100-55-69.44-123-83.62S74.58,106.56,56.39,187.69,64.69,321.87,64.69,321.87Z" style="fill:#92E3A9"></path><path d="M64.69,321.87S93.25,386.25,164.94,407s147.87-7.77,210.18-29.22,94.85-75.68,80.66-131-66.76-51.07-116-100-55-69.44-123-83.62S74.58,106.56,56.39,187.69,64.69,321.87,64.69,321.87Z" style="fill:#fff;opacity:0.7000000000000001"></path></g><g id="Trees"><path d="M205,245.14s24.54,2.42,37,17.64c0,0,13.15-17.63,36.75-17.26a47.71,47.71,0,1,0-73.74-.34Z" style="fill:#92E3A9"></path><path d="M205,245.14s24.54,2.42,37,17.64c0,0,13.15-17.63,36.75-17.26a47.71,47.71,0,1,0-73.74-.34Z" style="fill:#fff;opacity:0.5"></path><polygon points="241.17 170.73 240.34 419.74 244.49 419.74 241.17 170.73" style="fill:#828282"></polygon><path d="M242.41,258.14s8.29-14.91,23.2-19.47c0,0-15.74,3.73-23.61,16.57Z" style="fill:#828282"></path><path d="M241.51,216.29s9.19-15.32,24.1-19.87c0,0-16.23,4.67-24.1,17.51Z" style="fill:#828282"></path><path d="M241.83,238.08s8.87-16,23.78-20.54c0,0-16.12,4.47-24,17.32Z" style="fill:#828282"></path><path d="M241.19,226.66s-8-14.92-22.39-19.47c0,0,15.19,3.73,22.79,16.57Z" style="fill:#828282"></path><path d="M241.19,247.37s-8-14.91-22.39-19.47c0,0,15.19,3.73,22.79,16.57Z" style="fill:#828282"></path><path d="M73.15,208.83s42.87,4.24,64.59,30.82c0,0,23-30.79,64.18-30.16a83.32,83.32,0,1,0-128.78-.59Z" style="fill:#92E3A9"></path><path d="M73.15,208.83s42.87,4.24,64.59,30.82c0,0,23-30.79,64.18-30.16a83.32,83.32,0,1,0-128.78-.59Z" style="fill:#fff;opacity:0.30000000000000004"></path><polygon points="136.32 78.89 134.88 419.74 142.11 419.74 136.32 78.89" style="fill:#828282"></polygon><path d="M138.5,231.55S153,205.5,179,197.54c0,0-27.49,6.51-41.24,28.94Z" style="fill:#263238"></path><path d="M137.41,159.2S153,131.7,179,123.74c0,0-27.75,7.55-41.49,30Z" style="fill:#828282"></path><path d="M137.84,195.58S153,168.6,179,160.64c0,0-27.49,6.51-41.24,28.94Z" style="fill:#828282"></path><path d="M136.35,176.56s-14-26.05-39.09-34c0,0,26.52,6.51,39.79,28.94Z" style="fill:#828282"></path><path d="M136.35,212.74s-14-26.05-39.09-34c0,0,26.52,6.51,39.79,28.94Z" style="fill:#828282"></path></g><g id="Plants"><path d="M386.86,282.09c-.05,0,.61-3.25.67-3.45.76-2.33,3.58-6.37,6.31-6.37A3.24,3.24,0,0,1,397,276c-.19,1.92-1.92,3.56-3.48,4.5C391.64,281.56,386.87,282.09,386.86,282.09Z" style="fill:#92E3A9"></path><path d="M381.57,260.18c2.57.93,3.85,5.69,3.77,8.13,0,.21-.49,3.5-.54,3.48l-.05,0c.21.75.42,1.56.64,2.44.38,1.64.81,3.5,1.13,5.55a58.92,58.92,0,0,1,.73,6.67,42.46,42.46,0,0,1-.26,7.5s0,.06,0,.09c.33-.73,1.35-2.73,1.44-2.87,1.34-2.05,5.13-5.2,7.77-4.48a3.24,3.24,0,0,1,2,4.37c-.69,1.8-2.79,2.93-4.54,3.42-2,.57-6.39-.1-6.74-.15a58.5,58.5,0,0,1-1.63,7.47c-.4,1.43-.85,2.86-1.33,4.28.32-.62.6-1.17.65-1.24,1.34-2,5.13-5.2,7.76-4.47a3.22,3.22,0,0,1,2,4.36c-.7,1.8-2.79,2.93-4.55,3.43s-5.55,0-6.54-.13c-.19.54-.37,1.09-.56,1.63-.9,2.62-1.82,5.22-2.63,7.8-.29.91-.54,1.82-.8,2.72.28-.55.52-1,.56-1.07,1.34-2.05,5.13-5.2,7.77-4.48a3.24,3.24,0,0,1,2,4.37c-.7,1.8-2.8,2.92-4.55,3.42s-5.18.06-6.37-.1c-.23.94-.47,1.87-.65,2.79-.11.63-.26,1.23-.34,1.86s-.17,1.26-.26,1.87c-.12,1.2-.26,2.43-.35,3.6-.07.81-.12,1.59-.17,2.37.27-.91.85-2.68.92-2.82a12.57,12.57,0,0,1,4.18-4.76,3.94,3.94,0,0,1,.36-.63,3.24,3.24,0,0,1,4.76-.74c2.07,1.79,1.55,6.69.6,8.94-.06.14-.83,1.51-1.33,2.36.37-.46.72-.91,1.11-1.37.76-.93,1.55-1.84,2.39-2.82l1.28-1.39c.42-.47.92-.91,1.38-1.38,1.1-1.06,2.26-2.08,3.45-3.08-.81-.66-3.67-3.07-4.49-4.71s-1.4-3.94-.55-5.67a3.23,3.23,0,0,1,4.59-1.45c2.32,1.45,2.55,6.38,2,8.74,0,.15-.66,1.8-1,2.7.72-.6,1.44-1.19,2.19-1.77,2.16-1.67,4.4-3.3,6.63-4.93.68-.5,1.36-1,2-1.51-.29-.23-3.74-3-4.66-4.86-.82-1.63-1.41-3.93-.55-5.66a3.23,3.23,0,0,1,4.59-1.46c2.32,1.45,2.55,6.38,1.95,8.75-.05.18-.95,2.55-1.2,3.14,1.49-1.11,3-2.23,4.37-3.39a55.55,55.55,0,0,0,5.41-5c-.13-.1-3.75-3-4.69-4.88-.82-1.63-1.41-3.94-.55-5.67a3.23,3.23,0,0,1,4.59-1.45c2.32,1.45,2.55,6.38,1.95,8.74,0,.16-.73,2-1.07,2.82l.13.08a40.74,40.74,0,0,0,4.44-6c.73-1.15,1.37-2.3,2-3.43-.73-.47-4-2.66-5.08-4.25s-1.82-3.76-1.16-5.58a3.24,3.24,0,0,1,4.4-1.95c2.46,1.19,3.23,6.07,2.9,8.48,0,.14-.36,1.45-.61,2.41.26-.51.53-1,.77-1.54.9-1.86,1.61-3.62,2.23-5.18.34-.9.63-1.71.9-2.47-.48-.84-2.35-4.23-2.53-6.09s.11-4.18,1.53-5.48a3.24,3.24,0,0,1,4.81.3c1.64,2.19.08,6.86-1.34,8.86-.12.17-2.34,2.64-2.36,2.6l0-.05c-.24.74-.51,1.53-.82,2.39-.58,1.58-1.25,3.36-2.12,5.25a55.65,55.65,0,0,1-3.07,6,42.22,42.22,0,0,1-4.35,6.12l-.06.06c.68-.42,2.63-1.53,2.79-1.6,2.24-1,7.15-1.5,8.94.56a3.23,3.23,0,0,1-.71,4.76c-1.58,1.12-3.95.9-5.68.34-2-.62-5.28-3.61-5.54-3.84a58.94,58.94,0,0,1-5.48,5.33c-1.12,1-2.29,1.91-3.47,2.84.61-.34,1.15-.65,1.23-.68,2.24-1,7.14-1.51,8.94.55a3.24,3.24,0,0,1-.72,4.77c-1.57,1.11-3.94.89-5.68.34s-4.64-3.05-5.39-3.72L406,320.77c-2.19,1.68-4.39,3.35-6.49,5.05-.74.6-1.45,1.22-2.16,1.83.53-.3,1-.56,1.06-.59,2.24-1,7.14-1.5,8.94.56a3.23,3.23,0,0,1-.72,4.76c-1.57,1.12-3.94.9-5.68.34s-4.36-2.8-5.25-3.6c-.71.66-1.43,1.31-2.08,2-.44.47-.9.88-1.31,1.37L391,333.88c-.76.93-1.55,1.88-2.27,2.8-.51.64-1,1.26-1.45,1.88.73-.6,2.19-1.76,2.32-1.84,2.07-1.29,6.83-2.57,8.92-.81a3.24,3.24,0,0,1,0,4.82c-1.39,1.34-3.77,1.48-5.57,1.2-2-.31-5.57-2.65-6-2.94-.78,1-1.54,2-2.23,3-2.42,3.34-4.31,6.21-5.6,8.24a2.39,2.39,0,0,1-.13.21l-1.67-.82.26-.39c1.35-2,3.32-4.89,5.83-8.21.8-1,1.66-2.16,2.56-3.28a36.55,36.55,0,0,1-2.59-3.22c-1.92.75-5.92.78-6.44.78-.09,1.3-.16,2.56-.2,3.74-.18,4.12-.16,7.56-.12,10v.29l-1.84-.9c0-2.38.1-5.61.34-9.43.08-1.31.19-2.72.32-4.15-.51-.13-4.67-1.2-6.24-2.46s-2.93-3-2.87-4.91a3.23,3.23,0,0,1,3.56-3.24c2.71.34,5,4.72,5.43,7.12,0,.14.14,1.71.2,2.7,0-.58.1-1.16.16-1.76.12-1.19.28-2.38.44-3.66.1-.62.2-1.24.31-1.87s.26-1.27.38-1.92c.33-1.48.74-3,1.18-4.46-1.05-.11-4.76-.55-6.34-1.46s-3.35-2.51-3.59-4.42a3.24,3.24,0,0,1,3-3.75c2.73-.07,5.64,3.91,6.45,6.22.05.14.44,1.86.64,2.81.27-.89.54-1.79.84-2.68.89-2.59,1.86-5.18,2.82-7.77.29-.79.57-1.58.86-2.38-.37,0-4.79-.46-6.57-1.48-1.58-.91-3.35-2.51-3.59-4.42a3.24,3.24,0,0,1,3-3.75c2.73-.06,5.65,3.92,6.45,6.22.06.18.62,2.65.73,3.29.63-1.75,1.25-3.5,1.78-5.24a58.64,58.64,0,0,0,1.74-7.19c-.18,0-4.79-.44-6.62-1.48-1.58-.91-3.34-2.51-3.58-4.43a3.23,3.23,0,0,1,3-3.74c2.73-.07,5.64,3.91,6.45,6.22.05.15.48,2,.66,2.93h.16a42,42,0,0,0,.41-7.42c0-1.37-.13-2.67-.26-3.94-.87,0-4.83,0-6.58-.75s-3.6-2.13-4-4a3.24,3.24,0,0,1,2.6-4.06c2.71-.37,6,3.27,7.1,5.47.05.12.5,1.41.81,2.34-.06-.57-.12-1.16-.2-1.7-.27-2.05-.65-3.91-1-5.56-.21-.93-.42-1.77-.62-2.55-.85-.44-4.28-2.23-5.46-3.69s-2.21-3.54-1.75-5.41A3.25,3.25,0,0,1,381.57,260.18Z" style="fill:#92E3A9"></path><path d="M431,302.34c-2.14-.09-6.41-2.28-6.42-2.28s2.3-2.38,2.47-2.51c1.91-1.52,6.49-3.34,8.77-1.83a3.23,3.23,0,0,1,.57,4.78C435.17,302,432.83,302.41,431,302.34Z" style="fill:#92E3A9"></path><g style="opacity:0.5"><path d="M386.86,282.09c-.05,0,.61-3.25.67-3.45.76-2.33,3.58-6.37,6.31-6.37A3.24,3.24,0,0,1,397,276c-.19,1.92-1.92,3.56-3.48,4.5C391.64,281.56,386.87,282.09,386.86,282.09Z" style="fill:#fff"></path><path d="M381.57,260.18c2.57.93,3.85,5.69,3.77,8.13,0,.21-.49,3.5-.54,3.48l-.05,0c.21.75.42,1.56.64,2.44.38,1.64.81,3.5,1.13,5.55a58.92,58.92,0,0,1,.73,6.67,42.46,42.46,0,0,1-.26,7.5s0,.06,0,.09c.33-.73,1.35-2.73,1.44-2.87,1.34-2.05,5.13-5.2,7.77-4.48a3.24,3.24,0,0,1,2,4.37c-.69,1.8-2.79,2.93-4.54,3.42-2,.57-6.39-.1-6.74-.15a58.5,58.5,0,0,1-1.63,7.47c-.4,1.43-.85,2.86-1.33,4.28.32-.62.6-1.17.65-1.24,1.34-2,5.13-5.2,7.76-4.47a3.22,3.22,0,0,1,2,4.36c-.7,1.8-2.79,2.93-4.55,3.43s-5.55,0-6.54-.13c-.19.54-.37,1.09-.56,1.63-.9,2.62-1.82,5.22-2.63,7.8-.29.91-.54,1.82-.8,2.72.28-.55.52-1,.56-1.07,1.34-2.05,5.13-5.2,7.77-4.48a3.24,3.24,0,0,1,2,4.37c-.7,1.8-2.8,2.92-4.55,3.42s-5.18.06-6.37-.1c-.23.94-.47,1.87-.65,2.79-.11.63-.26,1.23-.34,1.86s-.17,1.26-.26,1.87c-.12,1.2-.26,2.43-.35,3.6-.07.81-.12,1.59-.17,2.37.27-.91.85-2.68.92-2.82a12.57,12.57,0,0,1,4.18-4.76,3.94,3.94,0,0,1,.36-.63,3.24,3.24,0,0,1,4.76-.74c2.07,1.79,1.55,6.69.6,8.94-.06.14-.83,1.51-1.33,2.36.37-.46.72-.91,1.11-1.37.76-.93,1.55-1.84,2.39-2.82l1.28-1.39c.42-.47.92-.91,1.38-1.38,1.1-1.06,2.26-2.08,3.45-3.08-.81-.66-3.67-3.07-4.49-4.71s-1.4-3.94-.55-5.67a3.23,3.23,0,0,1,4.59-1.45c2.32,1.45,2.55,6.38,2,8.74,0,.15-.66,1.8-1,2.7.72-.6,1.44-1.19,2.19-1.77,2.16-1.67,4.4-3.3,6.63-4.93.68-.5,1.36-1,2-1.51-.29-.23-3.74-3-4.66-4.86-.82-1.63-1.41-3.93-.55-5.66a3.23,3.23,0,0,1,4.59-1.46c2.32,1.45,2.55,6.38,1.95,8.75-.05.18-.95,2.55-1.2,3.14,1.49-1.11,3-2.23,4.37-3.39a55.55,55.55,0,0,0,5.41-5c-.13-.1-3.75-3-4.69-4.88-.82-1.63-1.41-3.94-.55-5.67a3.23,3.23,0,0,1,4.59-1.45c2.32,1.45,2.55,6.38,1.95,8.74,0,.16-.73,2-1.07,2.82l.13.08a40.74,40.74,0,0,0,4.44-6c.73-1.15,1.37-2.3,2-3.43-.73-.47-4-2.66-5.08-4.25s-1.82-3.76-1.16-5.58a3.24,3.24,0,0,1,4.4-1.95c2.46,1.19,3.23,6.07,2.9,8.48,0,.14-.36,1.45-.61,2.41.26-.51.53-1,.77-1.54.9-1.86,1.61-3.62,2.23-5.18.34-.9.63-1.71.9-2.47-.48-.84-2.35-4.23-2.53-6.09s.11-4.18,1.53-5.48a3.24,3.24,0,0,1,4.81.3c1.64,2.19.08,6.86-1.34,8.86-.12.17-2.34,2.64-2.36,2.6l0-.05c-.24.74-.51,1.53-.82,2.39-.58,1.58-1.25,3.36-2.12,5.25a55.65,55.65,0,0,1-3.07,6,42.22,42.22,0,0,1-4.35,6.12l-.06.06c.68-.42,2.63-1.53,2.79-1.6,2.24-1,7.15-1.5,8.94.56a3.23,3.23,0,0,1-.71,4.76c-1.58,1.12-3.95.9-5.68.34-2-.62-5.28-3.61-5.54-3.84a58.94,58.94,0,0,1-5.48,5.33c-1.12,1-2.29,1.91-3.47,2.84.61-.34,1.15-.65,1.23-.68,2.24-1,7.14-1.51,8.94.55a3.24,3.24,0,0,1-.72,4.77c-1.57,1.11-3.94.89-5.68.34s-4.64-3.05-5.39-3.72L406,320.77c-2.19,1.68-4.39,3.35-6.49,5.05-.74.6-1.45,1.22-2.16,1.83.53-.3,1-.56,1.06-.59,2.24-1,7.14-1.5,8.94.56a3.23,3.23,0,0,1-.72,4.76c-1.57,1.12-3.94.9-5.68.34s-4.36-2.8-5.25-3.6c-.71.66-1.43,1.31-2.08,2-.44.47-.9.88-1.31,1.37L391,333.88c-.76.93-1.55,1.88-2.27,2.8-.51.64-1,1.26-1.45,1.88.73-.6,2.19-1.76,2.32-1.84,2.07-1.29,6.83-2.57,8.92-.81a3.24,3.24,0,0,1,0,4.82c-1.39,1.34-3.77,1.48-5.57,1.2-2-.31-5.57-2.65-6-2.94-.78,1-1.54,2-2.23,3-2.42,3.34-4.31,6.21-5.6,8.24a2.39,2.39,0,0,1-.13.21l-1.67-.82.26-.39c1.35-2,3.32-4.89,5.83-8.21.8-1,1.66-2.16,2.56-3.28a36.55,36.55,0,0,1-2.59-3.22c-1.92.75-5.92.78-6.44.78-.09,1.3-.16,2.56-.2,3.74-.18,4.12-.16,7.56-.12,10v.29l-1.84-.9c0-2.38.1-5.61.34-9.43.08-1.31.19-2.72.32-4.15-.51-.13-4.67-1.2-6.24-2.46s-2.93-3-2.87-4.91a3.23,3.23,0,0,1,3.56-3.24c2.71.34,5,4.72,5.43,7.12,0,.14.14,1.71.2,2.7,0-.58.1-1.16.16-1.76.12-1.19.28-2.38.44-3.66.1-.62.2-1.24.31-1.87s.26-1.27.38-1.92c.33-1.48.74-3,1.18-4.46-1.05-.11-4.76-.55-6.34-1.46s-3.35-2.51-3.59-4.42a3.24,3.24,0,0,1,3-3.75c2.73-.07,5.64,3.91,6.45,6.22.05.14.44,1.86.64,2.81.27-.89.54-1.79.84-2.68.89-2.59,1.86-5.18,2.82-7.77.29-.79.57-1.58.86-2.38-.37,0-4.79-.46-6.57-1.48-1.58-.91-3.35-2.51-3.59-4.42a3.24,3.24,0,0,1,3-3.75c2.73-.06,5.65,3.92,6.45,6.22.06.18.62,2.65.73,3.29.63-1.75,1.25-3.5,1.78-5.24a58.64,58.64,0,0,0,1.74-7.19c-.18,0-4.79-.44-6.62-1.48-1.58-.91-3.34-2.51-3.58-4.43a3.23,3.23,0,0,1,3-3.74c2.73-.07,5.64,3.91,6.45,6.22.05.15.48,2,.66,2.93h.16a42,42,0,0,0,.41-7.42c0-1.37-.13-2.67-.26-3.94-.87,0-4.83,0-6.58-.75s-3.6-2.13-4-4a3.24,3.24,0,0,1,2.6-4.06c2.71-.37,6,3.27,7.1,5.47.05.12.5,1.41.81,2.34-.06-.57-.12-1.16-.2-1.7-.27-2.05-.65-3.91-1-5.56-.21-.93-.42-1.77-.62-2.55-.85-.44-4.28-2.23-5.46-3.69s-2.21-3.54-1.75-5.41A3.25,3.25,0,0,1,381.57,260.18Z" style="fill:#fff"></path><path d="M431,302.34c-2.14-.09-6.41-2.28-6.42-2.28s2.3-2.38,2.47-2.51c1.91-1.52,6.49-3.34,8.77-1.83a3.23,3.23,0,0,1,.57,4.78C435.17,302,432.83,302.41,431,302.34Z" style="fill:#fff"></path></g><path d="M406.05,355.85s-13-31.26-20.22-29.9,12.44,49.84,12.44,49.84-22.82-43-38.38-43,5.71,47.57,25.42,63.43c0,0-31.12-33.53-49.27-26.28s36.3,41.23,36.3,41.23-31.63-10-28-2.27,13.48,9.06,13.48,9.06L322,419.74H446.5l-28-2.72s29-14.5,21.26-20.39-24.89,6.8-24.89,6.8,29.56-32.63,23.86-44.86-31.12,22.2-31.12,22.2,20.74-43.95,16.59-51.65S406.05,355.85,406.05,355.85Z" style="fill:#92E3A9"></path><path d="M406.05,355.85s-13-31.26-20.22-29.9,12.44,49.84,12.44,49.84-22.82-43-38.38-43,5.71,47.57,25.42,63.43c0,0-31.12-33.53-49.27-26.28s36.3,41.23,36.3,41.23-31.63-10-28-2.27,13.48,9.06,13.48,9.06L322,419.74H446.5l-28-2.72s29-14.5,21.26-20.39-24.89,6.8-24.89,6.8,29.56-32.63,23.86-44.86-31.12,22.2-31.12,22.2,20.74-43.95,16.59-51.65S406.05,355.85,406.05,355.85Z" style="fill:#fff;opacity:0.4"></path><path d="M410.2,357.5c-11.41,33.71-11.41,57.57-11.41,57.57s13.49.52,27.49-9.86" style="fill:none;stroke:#787878;stroke-linecap:round;stroke-linejoin:round"></path><path d="M404.5,375.65a203,203,0,0,0-9.34-29.56" style="fill:none;stroke:#787878;stroke-linecap:round;stroke-linejoin:round"></path><path d="M370.79,356l29,43s19.71-16.59,26.45-25.93" style="fill:none;stroke:#787878;stroke-linecap:round;stroke-linejoin:round"></path><path d="M399.31,409.36s-30.6-14.52-43.05-22.82" style="fill:none;stroke:#787878;stroke-linecap:round;stroke-linejoin:round"></path><path d="M203.4,331.32s.39-2.09.43-2.22c.48-1.49,2.3-4.09,4-4.09a2.08,2.08,0,0,1,2,2.36,4.34,4.34,0,0,1-2.24,2.9A14.89,14.89,0,0,1,203.4,331.32Z" style="fill:#92E3A9"></path><path d="M200,317.25c1.65.59,2.47,3.65,2.42,5.22,0,.13-.32,2.24-.34,2.23l0,0c.14.49.27,1,.41,1.57.25,1.06.52,2.25.73,3.57a37.85,37.85,0,0,1,.47,4.28,27.22,27.22,0,0,1-.17,4.82.13.13,0,0,1,0,.06c.22-.47.87-1.76.93-1.85.86-1.31,3.29-3.34,5-2.87a2.07,2.07,0,0,1,1.3,2.8,4.33,4.33,0,0,1-2.92,2.2,14.37,14.37,0,0,1-4.33-.1,38.18,38.18,0,0,1-1,4.8c-.26.92-.55,1.84-.86,2.75.2-.4.39-.75.42-.8.86-1.31,3.29-3.34,5-2.87a2.08,2.08,0,0,1,1.3,2.81,4.37,4.37,0,0,1-2.92,2.19,13.73,13.73,0,0,1-4.21-.08c-.12.35-.23.7-.36,1.05-.58,1.68-1.16,3.35-1.69,5-.18.58-.34,1.17-.51,1.75.18-.35.33-.65.36-.69.86-1.31,3.3-3.34,5-2.88a2.08,2.08,0,0,1,1.3,2.81,4.31,4.31,0,0,1-2.92,2.2,13.14,13.14,0,0,1-4.09-.07c-.15.6-.3,1.2-.42,1.79-.07.41-.16.79-.21,1.2s-.12.81-.17,1.2c-.08.77-.17,1.56-.23,2.31,0,.52-.07,1-.11,1.52.18-.58.55-1.71.59-1.81a8.22,8.22,0,0,1,2.69-3.06,3.18,3.18,0,0,1,.23-.4,2.08,2.08,0,0,1,3.06-.47c1.33,1.14,1,4.3.38,5.74,0,.09-.53,1-.85,1.52l.71-.89c.49-.6,1-1.18,1.54-1.81l.82-.89c.27-.3.59-.59.89-.89.7-.68,1.45-1.33,2.21-2a13.86,13.86,0,0,1-2.88-3,4.33,4.33,0,0,1-.35-3.64,2.08,2.08,0,0,1,3-.94c1.48.94,1.63,4.1,1.25,5.62,0,.1-.43,1.16-.66,1.73.47-.38.93-.76,1.41-1.13,1.39-1.08,2.83-2.12,4.26-3.17l1.3-1a14.31,14.31,0,0,1-3-3.12,4.33,4.33,0,0,1-.36-3.64,2.07,2.07,0,0,1,3-.93c1.49.93,1.64,4.09,1.25,5.61,0,.12-.6,1.64-.77,2,1-.71,1.91-1.43,2.81-2.17a37.22,37.22,0,0,0,3.48-3.24,14.68,14.68,0,0,1-3-3.14,4.36,4.36,0,0,1-.35-3.64,2.08,2.08,0,0,1,2.95-.93c1.49.93,1.63,4.1,1.25,5.62,0,.1-.46,1.26-.69,1.81l.09.05a26.74,26.74,0,0,0,2.85-3.83c.47-.74.88-1.48,1.26-2.2a14,14,0,0,1-3.26-2.74,4.31,4.31,0,0,1-.75-3.58,2.08,2.08,0,0,1,2.83-1.25c1.58.77,2.07,3.89,1.86,5.45,0,.08-.23.93-.39,1.54.16-.33.34-.66.49-1,.58-1.2,1-2.33,1.43-3.34.22-.57.41-1.09.58-1.58a14,14,0,0,1-1.62-3.91,4.36,4.36,0,0,1,1-3.52,2.07,2.07,0,0,1,3.09.19c1.05,1.41.05,4.41-.86,5.69-.08.11-1.5,1.7-1.52,1.67l0,0c-.15.47-.32,1-.52,1.53-.38,1-.81,2.16-1.36,3.38a37.89,37.89,0,0,1-2,3.83,27.38,27.38,0,0,1-2.8,3.93s0,0,0,0c.44-.27,1.69-1,1.79-1,1.44-.62,4.59-1,5.75.36a2.07,2.07,0,0,1-.46,3.05,4.35,4.35,0,0,1-3.65.23,14.34,14.34,0,0,1-3.56-2.48,35.77,35.77,0,0,1-3.52,3.43c-.72.62-1.47,1.23-2.22,1.83.38-.23.73-.42.78-.44,1.44-.62,4.59-1,5.75.35a2.08,2.08,0,0,1-.46,3.06,4.32,4.32,0,0,1-3.65.22,13.59,13.59,0,0,1-3.47-2.38l-.87.68c-1.41,1.08-2.83,2.15-4.18,3.24-.47.38-.93.78-1.39,1.18l.68-.38c1.45-.62,4.6-1,5.75.35a2.08,2.08,0,0,1-.46,3.06,4.31,4.31,0,0,1-3.65.22,13.26,13.26,0,0,1-3.38-2.31c-.45.42-.91.84-1.33,1.27s-.58.56-.84.88l-.81.9c-.49.6-1,1.21-1.46,1.81l-.93,1.21c.47-.39,1.4-1.13,1.49-1.19,1.33-.83,4.39-1.65,5.73-.52a2.09,2.09,0,0,1,0,3.1,4.35,4.35,0,0,1-3.57.77,14.11,14.11,0,0,1-3.87-1.89c-.51.66-1,1.31-1.44,1.93-1.55,2.15-2.76,4-3.59,5.29l-.08.14-1.08-.52.17-.26c.87-1.3,2.13-3.14,3.75-5.27.51-.67,1.06-1.39,1.64-2.11a22.75,22.75,0,0,1-1.67-2.07,15,15,0,0,1-4.13.51c-.06.83-.1,1.64-.13,2.4-.11,2.65-.11,4.86-.08,6.4a1.09,1.09,0,0,0,0,.18l-1.19-.57c0-1.54.06-3.61.22-6.06,0-.85.12-1.75.21-2.67a14.13,14.13,0,0,1-4-1.58,4.33,4.33,0,0,1-1.85-3.15,2.08,2.08,0,0,1,2.29-2.09c1.74.23,3.2,3,3.49,4.58,0,.09.09,1.1.12,1.73,0-.37.07-.74.11-1.13.08-.77.18-1.53.28-2.35.07-.4.13-.8.2-1.2s.16-.82.25-1.23c.21-1,.47-1.91.75-2.87a13.58,13.58,0,0,1-4.07-.94,4.31,4.31,0,0,1-2.3-2.84,2.06,2.06,0,0,1,1.94-2.4c1.76-.05,3.63,2.51,4.14,4,0,.09.29,1.2.41,1.81.18-.58.35-1.15.55-1.73.56-1.66,1.19-3.32,1.8-5,.19-.5.37-1,.56-1.52a14.92,14.92,0,0,1-4.22-.95,4.39,4.39,0,0,1-2.31-2.85,2.08,2.08,0,0,1,1.95-2.4c1.75-.05,3.62,2.51,4.14,4,0,.11.4,1.7.47,2.11.41-1.12.8-2.24,1.14-3.36A36.47,36.47,0,0,0,203,339.2a14.76,14.76,0,0,1-4.25-.95,4.36,4.36,0,0,1-2.3-2.84,2.08,2.08,0,0,1,1.94-2.41c1.76,0,3.63,2.51,4.15,4,0,.09.31,1.3.42,1.88h.1a27,27,0,0,0,.27-4.77c0-.88-.08-1.71-.17-2.53a13.79,13.79,0,0,1-4.22-.48,4.35,4.35,0,0,1-2.6-2.57,2.08,2.08,0,0,1,1.66-2.61c1.75-.23,3.88,2.1,4.56,3.52,0,.08.33.9.53,1.5-.05-.36-.08-.74-.13-1.09-.18-1.32-.42-2.51-.65-3.57-.13-.6-.26-1.14-.39-1.64a14,14,0,0,1-3.51-2.37,4.33,4.33,0,0,1-1.12-3.48A2.07,2.07,0,0,1,200,317.25Z" style="fill:#92E3A9"></path><path d="M231.76,344.33a15.18,15.18,0,0,1-4.13-1.47s1.48-1.53,1.59-1.61c1.22-1,4.17-2.15,5.63-1.17a2.07,2.07,0,0,1,.37,3.07A4.37,4.37,0,0,1,231.76,344.33Z" style="fill:#92E3A9"></path><g style="opacity:0.5"><path d="M203.4,331.32s.39-2.09.43-2.22c.48-1.49,2.3-4.09,4-4.09a2.08,2.08,0,0,1,2,2.36,4.34,4.34,0,0,1-2.24,2.9A14.89,14.89,0,0,1,203.4,331.32Z" style="fill:#fff"></path><path d="M200,317.25c1.65.59,2.47,3.65,2.42,5.22,0,.13-.32,2.24-.34,2.23l0,0c.14.49.27,1,.41,1.57.25,1.06.52,2.25.73,3.57a37.85,37.85,0,0,1,.47,4.28,27.22,27.22,0,0,1-.17,4.82.13.13,0,0,1,0,.06c.22-.47.87-1.76.93-1.85.86-1.31,3.29-3.34,5-2.87a2.07,2.07,0,0,1,1.3,2.8,4.33,4.33,0,0,1-2.92,2.2,14.37,14.37,0,0,1-4.33-.1,38.18,38.18,0,0,1-1,4.8c-.26.92-.55,1.84-.86,2.75.2-.4.39-.75.42-.8.86-1.31,3.29-3.34,5-2.87a2.08,2.08,0,0,1,1.3,2.81,4.37,4.37,0,0,1-2.92,2.19,13.73,13.73,0,0,1-4.21-.08c-.12.35-.23.7-.36,1.05-.58,1.68-1.16,3.35-1.69,5-.18.58-.34,1.17-.51,1.75.18-.35.33-.65.36-.69.86-1.31,3.3-3.34,5-2.88a2.08,2.08,0,0,1,1.3,2.81,4.31,4.31,0,0,1-2.92,2.2,13.14,13.14,0,0,1-4.09-.07c-.15.6-.3,1.2-.42,1.79-.07.41-.16.79-.21,1.2s-.12.81-.17,1.2c-.08.77-.17,1.56-.23,2.31,0,.52-.07,1-.11,1.52.18-.58.55-1.71.59-1.81a8.22,8.22,0,0,1,2.69-3.06,3.18,3.18,0,0,1,.23-.4,2.08,2.08,0,0,1,3.06-.47c1.33,1.14,1,4.3.38,5.74,0,.09-.53,1-.85,1.52l.71-.89c.49-.6,1-1.18,1.54-1.81l.82-.89c.27-.3.59-.59.89-.89.7-.68,1.45-1.33,2.21-2a13.86,13.86,0,0,1-2.88-3,4.33,4.33,0,0,1-.35-3.64,2.08,2.08,0,0,1,3-.94c1.48.94,1.63,4.1,1.25,5.62,0,.1-.43,1.16-.66,1.73.47-.38.93-.76,1.41-1.13,1.39-1.08,2.83-2.12,4.26-3.17l1.3-1a14.31,14.31,0,0,1-3-3.12,4.33,4.33,0,0,1-.36-3.64,2.07,2.07,0,0,1,3-.93c1.49.93,1.64,4.09,1.25,5.61,0,.12-.6,1.64-.77,2,1-.71,1.91-1.43,2.81-2.17a37.22,37.22,0,0,0,3.48-3.24,14.68,14.68,0,0,1-3-3.14,4.36,4.36,0,0,1-.35-3.64,2.08,2.08,0,0,1,2.95-.93c1.49.93,1.63,4.1,1.25,5.62,0,.1-.46,1.26-.69,1.81l.09.05a26.74,26.74,0,0,0,2.85-3.83c.47-.74.88-1.48,1.26-2.2a14,14,0,0,1-3.26-2.74,4.31,4.31,0,0,1-.75-3.58,2.08,2.08,0,0,1,2.83-1.25c1.58.77,2.07,3.89,1.86,5.45,0,.08-.23.93-.39,1.54.16-.33.34-.66.49-1,.58-1.2,1-2.33,1.43-3.34.22-.57.41-1.09.58-1.58a14,14,0,0,1-1.62-3.91,4.36,4.36,0,0,1,1-3.52,2.07,2.07,0,0,1,3.09.19c1.05,1.41.05,4.41-.86,5.69-.08.11-1.5,1.7-1.52,1.67l0,0c-.15.47-.32,1-.52,1.53-.38,1-.81,2.16-1.36,3.38a37.89,37.89,0,0,1-2,3.83,27.38,27.38,0,0,1-2.8,3.93s0,0,0,0c.44-.27,1.69-1,1.79-1,1.44-.62,4.59-1,5.75.36a2.07,2.07,0,0,1-.46,3.05,4.35,4.35,0,0,1-3.65.23,14.34,14.34,0,0,1-3.56-2.48,35.77,35.77,0,0,1-3.52,3.43c-.72.62-1.47,1.23-2.22,1.83.38-.23.73-.42.78-.44,1.44-.62,4.59-1,5.75.35a2.08,2.08,0,0,1-.46,3.06,4.32,4.32,0,0,1-3.65.22,13.59,13.59,0,0,1-3.47-2.38l-.87.68c-1.41,1.08-2.83,2.15-4.18,3.24-.47.38-.93.78-1.39,1.18l.68-.38c1.45-.62,4.6-1,5.75.35a2.08,2.08,0,0,1-.46,3.06,4.31,4.31,0,0,1-3.65.22,13.26,13.26,0,0,1-3.38-2.31c-.45.42-.91.84-1.33,1.27s-.58.56-.84.88l-.81.9c-.49.6-1,1.21-1.46,1.81l-.93,1.21c.47-.39,1.4-1.13,1.49-1.19,1.33-.83,4.39-1.65,5.73-.52a2.09,2.09,0,0,1,0,3.1,4.35,4.35,0,0,1-3.57.77,14.11,14.11,0,0,1-3.87-1.89c-.51.66-1,1.31-1.44,1.93-1.55,2.15-2.76,4-3.59,5.29l-.08.14-1.08-.52.17-.26c.87-1.3,2.13-3.14,3.75-5.27.51-.67,1.06-1.39,1.64-2.11a22.75,22.75,0,0,1-1.67-2.07,15,15,0,0,1-4.13.51c-.06.83-.1,1.64-.13,2.4-.11,2.65-.11,4.86-.08,6.4a1.09,1.09,0,0,0,0,.18l-1.19-.57c0-1.54.06-3.61.22-6.06,0-.85.12-1.75.21-2.67a14.13,14.13,0,0,1-4-1.58,4.33,4.33,0,0,1-1.85-3.15,2.08,2.08,0,0,1,2.29-2.09c1.74.23,3.2,3,3.49,4.58,0,.09.09,1.1.12,1.73,0-.37.07-.74.11-1.13.08-.77.18-1.53.28-2.35.07-.4.13-.8.2-1.2s.16-.82.25-1.23c.21-1,.47-1.91.75-2.87a13.58,13.58,0,0,1-4.07-.94,4.31,4.31,0,0,1-2.3-2.84,2.06,2.06,0,0,1,1.94-2.4c1.76-.05,3.63,2.51,4.14,4,0,.09.29,1.2.41,1.81.18-.58.35-1.15.55-1.73.56-1.66,1.19-3.32,1.8-5,.19-.5.37-1,.56-1.52a14.92,14.92,0,0,1-4.22-.95,4.39,4.39,0,0,1-2.31-2.85,2.08,2.08,0,0,1,1.95-2.4c1.75-.05,3.62,2.51,4.14,4,0,.11.4,1.7.47,2.11.41-1.12.8-2.24,1.14-3.36A36.47,36.47,0,0,0,203,339.2a14.76,14.76,0,0,1-4.25-.95,4.36,4.36,0,0,1-2.3-2.84,2.08,2.08,0,0,1,1.94-2.41c1.76,0,3.63,2.51,4.15,4,0,.09.31,1.3.42,1.88h.1a27,27,0,0,0,.27-4.77c0-.88-.08-1.71-.17-2.53a13.79,13.79,0,0,1-4.22-.48,4.35,4.35,0,0,1-2.6-2.57,2.08,2.08,0,0,1,1.66-2.61c1.75-.23,3.88,2.1,4.56,3.52,0,.08.33.9.53,1.5-.05-.36-.08-.74-.13-1.09-.18-1.32-.42-2.51-.65-3.57-.13-.6-.26-1.14-.39-1.64a14,14,0,0,1-3.51-2.37,4.33,4.33,0,0,1-1.12-3.48A2.07,2.07,0,0,1,200,317.25Z" style="fill:#fff"></path><path d="M231.76,344.33a15.18,15.18,0,0,1-4.13-1.47s1.48-1.53,1.59-1.61c1.22-1,4.17-2.15,5.63-1.17a2.07,2.07,0,0,1,.37,3.07A4.37,4.37,0,0,1,231.76,344.33Z" style="fill:#fff"></path></g><path d="M215.73,378.7s-8.33-20.08-13-19.21,8,32,8,32-14.66-27.65-24.65-27.65,3.66,30.56,16.32,40.74c0,0-20-21.53-31.65-16.88s23.32,26.49,23.32,26.49-20.32-6.41-18-1.46,8.66,5.82,8.66,5.82l-23,1.17h80l-18-1.75s18.66-9.31,13.66-13.1-16,4.37-16,4.37,19-20.95,15.32-28.81-20,14.26-20,14.26,13.33-28.23,10.67-33.18S215.73,378.7,215.73,378.7Z" style="fill:#92E3A9"></path><path d="M215.73,378.7s-8.33-20.08-13-19.21,8,32,8,32-14.66-27.65-24.65-27.65,3.66,30.56,16.32,40.74c0,0-20-21.53-31.65-16.88s23.32,26.49,23.32,26.49-20.32-6.41-18-1.46,8.66,5.82,8.66,5.82l-23,1.17h80l-18-1.75s18.66-9.31,13.66-13.1-16,4.37-16,4.37,19-20.95,15.32-28.81-20,14.26-20,14.26,13.33-28.23,10.67-33.18S215.73,378.7,215.73,378.7Z" style="fill:#fff;opacity:0.4"></path><path d="M218.39,379.76c-7.33,21.65-7.33,37-7.33,37s8.66.33,17.66-6.33" style="fill:none;stroke:#787878;stroke-linecap:round;stroke-linejoin:round"></path><path d="M214.73,391.42a130.05,130.05,0,0,0-6-19" style="fill:none;stroke:#787878;stroke-linecap:round;stroke-linejoin:round"></path><path d="M193.07,378.76l18.66,27.65s12.66-10.66,17-16.66" style="fill:none;stroke:#787878;stroke-linecap:round;stroke-linejoin:round"></path><path d="M211.39,413.07s-19.65-9.32-27.65-14.65" style="fill:none;stroke:#787878;stroke-linecap:round;stroke-linejoin:round"></path></g><g id="Bench"><path d="M75,362.65a54.26,54.26,0,0,1-.6,42.2l-6.19,14a4.17,4.17,0,0,0-.28.89h5.76l5-11.41a62.94,62.94,0,0,0,.7-48.93L68.13,331.74a6,6,0,0,1,5.54-8.25H99.39c2.37,0,4.3,2.46,4.3.09a4.31,4.31,0,0,0-4.3-4.3H77.21a14.56,14.56,0,0,0-12.11,6.45c-2.72,4-3.24,4.75-1.4,9.26Z" style="fill:#a3a3a3"></path><rect x="95.98" y="296.18" width="3.41" height="123.24" style="fill:#a3a3a3"></rect><rect x="341.59" y="296.18" width="3.41" height="123.24" style="fill:#a3a3a3"></rect><rect x="94.28" y="287.66" width="248.81" height="17.89" style="fill:#bdbdbd"></rect><rect x="94.28" y="308.96" width="248.81" height="17.89" style="fill:#bdbdbd"></rect><rect x="75.86" y="350.72" width="267.24" height="5.96" style="fill:#bdbdbd"></rect><rect x="300.59" y="350.72" width="42.5" height="5.96" style="fill:#878787"></rect><path d="M306.37,331.74a6,6,0,0,1,5.55-8.25h31.16v-4.21H315.45a14.57,14.57,0,0,0-12.11,6.45c-2.71,4-3.24,4.75-1.4,9.26l11.28,27.66a54.21,54.21,0,0,1-.6,42.2l-6.19,14a4.79,4.79,0,0,0-.27.89h5.75l5-11.41a62.9,62.9,0,0,0,.7-48.93Z" style="fill:#a3a3a3"></path></g><g id="Clouds"><path d="M437.42,115.92c-4.69-2.56-6.83-.43-8.54-2.56s4.7-7.69-8.11-13.24c0,0-.86-12-18.37-12.39s-12.81,12-17.51,15-6-1.71-10.68,1.28-2.56,9-6.41,9.82-9-3.84-13.66-.85-4.7,5.55-6.84,5.55-6.4-1.71-9,0-5.55,3.85-5.55,3.85H440.84S442.12,118.48,437.42,115.92Z" style="fill:#92E3A9"></path><g style="opacity:0.5"><path d="M437.42,115.92c-4.69-2.56-6.83-.43-8.54-2.56s4.7-7.69-8.11-13.24c0,0-.86-12-18.37-12.39s-12.81,12-17.51,15-6-1.71-10.68,1.28-2.56,9-6.41,9.82-9-3.84-13.66-.85-4.7,5.55-6.84,5.55-6.4-1.71-9,0-5.55,3.85-5.55,3.85H440.84S442.12,118.48,437.42,115.92Z" style="fill:#fff"></path></g><path d="M357.81,186c-2.87-1.56-4.18-.26-5.23-1.56s2.88-4.71-5-8.1c0,0-.52-7.32-11.24-7.58s-7.84,7.31-10.71,9.14-3.66-1-6.54.79-1.57,5.49-3.92,6-5.49-2.35-8.36-.52-2.88,3.39-4.18,3.39-3.92-1-5.49,0-3.4,2.36-3.4,2.36H359.9S360.69,187.54,357.81,186Z" style="fill:#92E3A9"></path><g style="opacity:0.5"><path d="M357.81,186c-2.87-1.56-4.18-.26-5.23-1.56s2.88-4.71-5-8.1c0,0-.52-7.32-11.24-7.58s-7.84,7.31-10.71,9.14-3.66-1-6.54.79-1.57,5.49-3.92,6-5.49-2.35-8.36-.52-2.88,3.39-4.18,3.39-3.92-1-5.49,0-3.4,2.36-3.4,2.36H359.9S360.69,187.54,357.81,186Z" style="fill:#fff"></path></g></g><g id="Characters"><path d="M225.17,242.94s-1.5,15.75,3.5,28.26,6,17,7.26,23a56.23,56.23,0,0,1,.75,15c-.25,1.51-2,1.51-2.75,0s-3.26-3-4-6.5a34.06,34.06,0,0,1-.5-7.75s-4.25-15.76-9.5-26.52-5.76-18.76-3.76-22.51S222.42,239.18,225.17,242.94Z" style="fill:#fff;stroke:#263238;stroke-linecap:round;stroke-linejoin:round"></path><path d="M199.84,173.58s-1.31,7.51-6.19,19.14-8.07,14.07-8.07,20.45,18.58,12.94,33.77,12.57,16.14-11.07,13-18.76-6.19-7.32-6.57-16.14a105.58,105.58,0,0,1,1.5-19.32Z" style="fill:#263238;stroke:#263238;stroke-linecap:round;stroke-linejoin:round"></path><path d="M202,178.84s-1.68-3.38-2.81-1.13-.56,5.44.75,7.5a4.3,4.3,0,0,0,3.75,1.88S202.54,182.59,202,178.84Z" style="fill:#fff;stroke:#263238;stroke-linecap:round;stroke-linejoin:round"></path><path d="M226.67,179.4s2.63-1.5,2.25,2.06-3,7.13-4.13,7.32-1.5-1.88-1.12-2.44S226.67,179.4,226.67,179.4Z" style="fill:#fff;stroke:#263238;stroke-linecap:round;stroke-linejoin:round"></path><path d="M184.08,298.91s0,.32,0,.93c0,3,0,12.77,1,23.83,1.13,13.32,1.88,18.39,1.88,18.39s-13.14,9.75-17.08,17.44S159.69,380,156.13,385.58,141.87,397,141.31,398.71s1.69,1.51,3.56,8.07,2.25,9.76,6,11.45,10.88.56,10.31-1.32-3.93-2.62-3.93-4.69.18-10.13.18-12.94,3.75-6.57,5.26-8.63,20.63-21.77,29.08-31.33,9.56-14.07,10.88-17.64,5.25-34.89,5.62-35.46-24.2-7-24.2-7" style="fill:#fff;stroke:#263238;stroke-linecap:round;stroke-linejoin:round"></path><path d="M161.19,416.91c-.56-1.87-3.93-2.62-3.93-4.69s.18-10.13.18-12.94a3.58,3.58,0,0,1,.07-.64,12.82,12.82,0,0,0-1.76.07c-3,.38-3.94,3.57-3.94,3.57l-3.24-9.39c-3.57,2.71-6.95,4.89-7.26,5.82-.56,1.69,1.69,1.51,3.56,8.07s2.25,9.76,6,11.45S161.76,418.79,161.19,416.91Z" style="fill:#92E3A9;stroke:#263238;stroke-linecap:round;stroke-linejoin:round"></path><path d="M150.88,418.23c3.19,1.43,8.83.83,10.09-.54-12.43,1.41-11.74-6.07-13.85-12.22a22.8,22.8,0,0,0-4.69-8,3.84,3.84,0,0,0-1.12,1.23c-.56,1.69,1.69,1.51,3.56,8.07S147.12,416.54,150.88,418.23Z" style="fill:#fff;stroke:#263238;stroke-linecap:round;stroke-linejoin:round"></path><path d="M212.6,305.85s10.25,27,13.07,33.95,2.06,4.32,1.31,12.95,3,22.51,7.88,30.2,11.82,15.95,13.51,20.64,3,10.69,4.5,11.45,4.13.18,6.94-1.51,1.13-3.56,7.7-4.12,9.75-8.45,10.69-10.51-1.13-2.25-3.57-1.5-10.88,3.56-16.32,3.38-8.63-15.76-11.44-29.65a248.33,248.33,0,0,1-4.32-33.58c-.56-8.25-3.68-28.33-8.19-39.39Z" style="fill:#fff;stroke:#263238;stroke-linecap:round;stroke-linejoin:round"></path><path d="M274.63,397.4c-2.43.75-10.88,3.56-16.32,3.38a2.67,2.67,0,0,1-.83-.17,3.71,3.71,0,0,0,.08.54c.56,2.63,2.44,3.94,3,3.75a44.8,44.8,0,0,1-11,2.35c1.16,3.7,2.18,7.22,3.3,7.79,1.5.75,4.13.18,6.94-1.51s1.13-3.56,7.7-4.12,9.75-8.45,10.69-10.51S277.07,396.65,274.63,397.4Z" style="fill:#92E3A9;stroke:#263238;stroke-linecap:round;stroke-linejoin:round"></path><path d="M278.2,398.9c.47-1,.18-1.6-.54-1.81-1.8,5.91-7.19,9.39-10.15,10.44-3.19,1.13-3.57.19-7.7,3.57a12.08,12.08,0,0,1-8.07,2.41,3.31,3.31,0,0,0,1.13,1.53c1.5.75,4.13.18,6.94-1.51s1.13-3.56,7.7-4.12S277.26,401,278.2,398.9Z" style="fill:#fff;stroke:#263238;stroke-linecap:round;stroke-linejoin:round"></path><path d="M188,272.45l-7.13,27.39s3.38,2.07,12,3.19,16.7,2.63,16.7,2.63l25.51-9.38-6.94-18Z" style="fill:#263238;stroke:#263238;stroke-linecap:round;stroke-linejoin:round"></path><path d="M205.28,188.4s1.13,10.13-.56,13.7-5.63,2.81-12.94,4.88-11.26,8.44-10.51,22.32,8.07,32.83,8.07,35.65-3,15.6-4.32,17.63c-1.12,1.69,8,7.05,24.77,6.19,22-1.12,20.39-5.61,19.88-7.31-.56-1.88-6.38-15.95-7.13-23.08a55.75,55.75,0,0,1-.18-11.63s6.56-3.75,6.94-9.38-2.25-9.76-2.63-13.32-.94-10.32-3.19-13.32-4.88-3.19-6.19-6.19.19-10.7.19-10.7Z" style="fill:#92E3A9;stroke:#263238;stroke-linecap:round;stroke-linejoin:round"></path><path d="M196.87,244.93s6,2.77,15.23-.46" style="fill:none;stroke:#263238;stroke-linecap:round;stroke-linejoin:round"></path><path d="M195.67,215.36s-1.27-6.17-8.5-5.61S173,228.44,169,232.37s-10.89,9.57-10.49,14.26,7,6.53,10.45,1.58,12.61-14.55,12.61-14.55S198.54,235.71,195.67,215.36Z" style="fill:#fff;stroke:#263238;stroke-linecap:round;stroke-linejoin:round"></path><line x1="181.59" y1="233.66" x2="189.64" y2="225.4" style="fill:none;stroke:#263238;stroke-linecap:round;stroke-linejoin:round"></line><path d="M211.29,221.24c6.51,0,7.55-9.37,7.69-14.44a6.16,6.16,0,0,1-1.69-2.26c-1.31-3,.19-10.7.19-10.7l-12.2-5.44s1.13,10.13-.56,13.7c-1.19,2.52-3.52,2.88-7.36,3.61C199.56,210.76,204.88,221.24,211.29,221.24Z" style="fill:#fff;stroke:#263238;stroke-linecap:round;stroke-linejoin:round"></path><path d="M201,174.15s.56,9.75,2.62,15.94,5.82,10.32,10.32,9.76,12.57-8.26,13.32-25.52Z" style="fill:#fff;stroke:#263238;stroke-linecap:round;stroke-linejoin:round"></path><path d="M200,172.27s2.81-13.7,3.94-15.76,7.32-3,8.82-2.25,2.62,1.5,3.37,1.5,4.51-2.25,6.57-.19,6.38,18.58,6.38,18.58-1.13.37-11.63.37A62,62,0,0,1,200,172.27Z" style="fill:#fff;stroke:#263238;stroke-linecap:round;stroke-linejoin:round"></path><path d="M226.7,165.65c-9.14,2-20.72.76-25.27.15-.78,3.43-1.4,6.47-1.4,6.47a62,62,0,0,0,17.45,2.25c10.5,0,11.63-.37,11.63-.37S228,170,226.7,165.65Z" style="fill:#263238;stroke:#263238;stroke-linecap:round;stroke-linejoin:round"></path><path d="M199.28,174.52l-1.48,6.95a79,79,0,0,0,19.08-6.36Z" style="fill:#263238;stroke:#263238;stroke-linecap:round;stroke-linejoin:round"></path><path d="M224.42,175.55l2.81,4.29s3.1-2.36,1-4.58S224.42,175.55,224.42,175.55Z" style="fill:#263238;stroke:#263238;stroke-linecap:round;stroke-linejoin:round"></path><path d="M196.28,173a9.86,9.86,0,0,0,3,1.5c1.5.38,27.95,2.25,32.08,1.5a12.29,12.29,0,0,0,6.19-2.81s-22,.19-31-.75-12.57-2.07-12.2-1.32A8.6,8.6,0,0,0,196.28,173Z" style="fill:#fff;stroke:#263238;stroke-linecap:round;stroke-linejoin:round"></path><path d="M213.24,179.6l-.21,2a2,2,0,0,1-2.21,1.82l-7-.71a2,2,0,0,1-1.83-2.1l.05-1.93a2,2,0,0,1,2.21-2l7.18.69A2.06,2.06,0,0,1,213.24,179.6Z" style="fill:#263238;stroke:#263238;stroke-linecap:round;stroke-linejoin:round"></path><path d="M226.7,180.84l-.24,1.95a2,2,0,0,1-2.24,1.79l-7-.81a2.07,2.07,0,0,1-1.79-2.14l.08-1.92a2,2,0,0,1,2.24-2l7.17.8A2.05,2.05,0,0,1,226.7,180.84Z" style="fill:#263238;stroke:#263238;stroke-linecap:round;stroke-linejoin:round"></path><path d="M215,182.65a2.85,2.85,0,0,0-.14,2.52c.59,1.33.44,3.69-.74,3.69s-1.63-1.48-1.63-1.48" style="fill:none;stroke:#263238;stroke-linecap:round;stroke-linejoin:round"></path><path d="M210.52,190.34s1.92,1.78,5.76.89" style="fill:none;stroke:#263238;stroke-linecap:round;stroke-linejoin:round"></path><line x1="212" y1="177.38" x2="217.34" y2="177.81" style="fill:#fff;stroke:#263238;stroke-linecap:round;stroke-linejoin:round"></line><polygon points="180.52 295.53 179.77 301.35 209.97 308.1 210.16 303.03 180.52 295.53" style="fill:#fff;stroke:#263238;stroke-linecap:round;stroke-linejoin:round"></polygon><polygon points="210.16 303.03 211.29 308.66 236.99 299.09 234.93 293.84 210.16 303.03" style="fill:#fff;stroke:#263238;stroke-linecap:round;stroke-linejoin:round"></polygon><line x1="210.16" y1="303.03" x2="211.66" y2="294.03" style="fill:none;stroke:#263238;stroke-linecap:round;stroke-linejoin:round"></line><path d="M404.13,360.94s6,22.51,9,29.08,6.76,12.19,6,14.82-3.76,8.07-5.26,7.69-3-2.25-2.62-5.06,3.37-4.69,2.81-7.13-5.25-4.32-11.44-12.57-9.57-20.08-9.57-20.08Z" style="fill:#263238;stroke:#263238;stroke-linecap:round;stroke-linejoin:round"></path><path d="M412.18,387.7a4.62,4.62,0,0,1-2.24-.12c-4.12-1.31-7.69-9-10.5-11.07-1.19-.87-2.11-.23-2.78.79a55.5,55.5,0,0,0,6,10.47c6.19,8.25,10.88,10.13,11.44,12.57s-2.44,4.31-2.81,7.13,1.12,4.69,2.62,5.06,4.51-5.06,5.26-7.69-3-8.25-6-14.82C412.84,389.38,412.52,388.6,412.18,387.7Z" style="fill:#fff;stroke:#263238;stroke-linecap:round;stroke-linejoin:round"></path><path d="M355.07,366.57s-1.5,11.44-6.75,17.26-15.95,11.26-18,15.76S329,413.1,329.56,414s4.13,1.32,4.13,3.94c0,1.13-.38,1.88-4.51,1.51s-4.12-.57-4.69-5.45-.75-16.5,2.07-20.07,7.31-10.32,8.25-18.57,5.26-15.57,13.89-14.64S355.07,366.57,355.07,366.57Z" style="fill:#fff;stroke:#263238;stroke-linecap:round;stroke-linejoin:round"></path><path d="M411.07,295.84s.94-9.38,1.69-11.63,4.13,6.75,4.69,10.88-4.32,2.63-5.44,2.44S411.07,295.84,411.07,295.84Z" style="fill:#263238;stroke:#263238;stroke-linecap:round;stroke-linejoin:round"></path><path d="M379.35,363.5s.38,9.38,0,23.26,1.88,19.13,2.82,21.57,3.37,9.57,4.31,10.51,5.63,1.69,6.38,0,1.13-3-.75-3.75-2.81-.75-3.19-1.32-3.38-8.81-1.69-14.25,8.07-33.59,8.07-34.34" style="fill:#263238;stroke:#263238;stroke-linecap:round;stroke-linejoin:round"></path><path d="M392.11,415.09c-1.88-.75-2.81-.75-3.19-1.32s-3.38-8.81-1.69-14.25c.15-.49.34-1.16.56-2a4,4,0,0,1-2.81-1c-3.38-3,.19-13.13-2.44-19.88-1-2.68-2.11-3.35-3-3.19,0,3.66,0,8.18-.17,13.32-.37,13.88,1.88,19.13,2.82,21.57s3.37,9.57,4.31,10.51,5.63,1.69,6.38,0S394,415.84,392.11,415.09Z" style="fill:#fff;stroke:#263238;stroke-linecap:round;stroke-linejoin:round"></path><path d="M409.76,295.28s-8.26-12.2-8.82-9.57,1.31,15.2,1.31,15.2-.37,12.94-9.38,20.82S368.11,336,353.29,336.36s-21,.75-25-.93-7.31-2.82-6.94-.19,4.32,6.56,4.32,6.56.56,18.77-5.44,31.15S310,385.52,309,391.15s-1.13,25.32-.19,27,5.26,2.25,6.76.94.93-3.38-.19-5.07-2.07-1.87-2.07-3.19.94-12.38,2.82-15.19,18.38-16.89,22.89-22.51,5.25-8.45,5.25-8.45,15.57,1.13,25.33,3.94,18.76,7.69,28.14,1.5,14.44-15,14.44-25.32-.18-18.58.19-22.52.19-5.06,2.82-6,6.94.94,12.75-.19,8.45-7.5,8.45-9.38-3-.94-7.88-3.19-6.38-5.44-10.32-7.13A18.4,18.4,0,0,0,409.76,295.28Z" style="fill:#263238;stroke:#263238;stroke-linecap:round;stroke-linejoin:round"></path><path d="M436.39,306.66c-.92.64-2.62,1.19-7.31,1.19-6.75,0-10.69,2.62-14.63,2.25s-6.95-6.38-9.2-.19c-1.43,3.95,3.7,6.91,7.61,8.53.3-1.06.89-1.64,2.34-2.15,2.62-.94,6.94.94,12.75-.19s8.45-7.5,8.45-9.38C436.4,306.7,436.39,306.68,436.39,306.66Z" style="fill:#fff;stroke:#263238;stroke-linecap:round;stroke-linejoin:round"></path><path d="M412.19,344.81c0-3.88,0-7.46,0-10.63a34.86,34.86,0,0,1-5.59,10.44c-8.41,11.1-14.85,21.29-7.17,24.36C407.72,362.87,412.19,354.5,412.19,344.81Z" style="fill:#fff;stroke:#263238;stroke-linecap:round;stroke-linejoin:round"></path><path d="M417.64,302.41a1.51,1.51,0,1,1-1.51-1.5A1.51,1.51,0,0,1,417.64,302.41Z" style="fill:#fff;stroke:#263238;stroke-linecap:round;stroke-linejoin:round"></path><path d="M402.25,300.91s0,.43-.09,1.18c1.36.6,2.66-1,3.84-3.62,2.07-4.51-5.06-12.76-5.06-12.76C400.38,288.34,402.25,300.91,402.25,300.91Z" style="fill:#fff;stroke:#263238;stroke-linecap:round;stroke-linejoin:round"></path><path d="M434.71,305.22s-1.88-.56-1.88,1.88,1.5,4.31,2.82,3S437.33,305.6,434.71,305.22Z" style="fill:#263238;stroke:#263238;stroke-linecap:round;stroke-linejoin:round"></path><path d="M332,380.36a29.46,29.46,0,0,1-6.13.84c-3.68,0-6.23-2.39-7.69-4.32-4.92,8.57-8.36,9.31-9.19,14.27-.94,5.62-1.13,25.32-.19,27s5.26,2.25,6.76.94.93-3.38-.19-5.07-2.07-1.87-2.07-3.19.94-12.38,2.82-15.19C317.42,393.72,325.56,386.52,332,380.36Z" style="fill:#fff;stroke:#263238;stroke-linecap:round;stroke-linejoin:round"></path><path d="M412.89,327.56l-20.07-6.95a1.59,1.59,0,0,1-1-2h0a1.6,1.6,0,0,1,2-1l20.06,7a1.61,1.61,0,0,1,1,2h0A1.6,1.6,0,0,1,412.89,327.56Z" style="fill:#fff;stroke:#263238;stroke-linecap:round;stroke-linejoin:round"></path><path d="M171.76,247l3.23,5.34a51.73,51.73,0,0,1,11.79,11.22c4.77,6.6,10,12.78,12.91,15s9.41,3.23,10,4.64-1.69,7.15-2.95,8.7-5.75.7-8.28-1.55-3.23-5.89-5.76-7.44S177,271.32,172.88,268a69.56,69.56,0,0,1-6-5.48Z" style="fill:#fff;stroke:#263238;stroke-linecap:round;stroke-linejoin:round"></path><path d="M168.48,246.88a35.7,35.7,0,0,1,8.61-.25c3.79.51,10.12,7.6,10.88,9.87s.76,6.84,0,7.35-1.52-2.79-1.52-2.79-5.31.51-7.59-2.28a31.87,31.87,0,0,1-3.87-6.4L168.22,254Z" style="fill:#fff;stroke:#263238;stroke-linecap:round;stroke-linejoin:round"></path><path d="M153.37,182.34s-.14,10.94-1.54,14.17-3.23,5.76-7,6.74-14.32,1.4-18.67,5.33,2.81,26.53,5.06,36.5S133,259,131.9,266s0,9.41,5.19,11.23,16.56,3.37,22.88,2.53,8.42-.42,9.12-5.2,4.22-21.89,5.06-34.53,3.23-17,.42-23-10.53-9.26-11.23-11.79,1.26-11.79,1.26-11.79,2.67-6.87-.84-10.94S155.2,177.14,153.37,182.34Z" style="fill:#fff;stroke:#263238;stroke-linecap:round;stroke-linejoin:round"></path><path d="M165.74,207.89c-.14,4.56-1.41,11-7.59,9.82-7.83-1.52-12.73-11.1-14.16-14.27-4.31.86-13.78,1.47-17.85,5.14-4.35,3.93,2.81,26.53,5.06,36.5S133,259,131.9,266s0,9.41,5.19,11.23,16.56,3.37,22.88,2.53,8.42-.42,9.12-5.2,4.22-21.89,5.06-34.53,3.23-17,.42-23C172.65,212.88,168.44,210.07,165.74,207.89Z" style="fill:#92E3A9;stroke:#263238;stroke-linecap:round;stroke-linejoin:round"></path><path d="M186.51,176.51c0,2.24-2.18,6.08-4.88,6.08s-4.89-3-4.89-5.24,2.19-4.06,4.89-4.06S186.51,174.27,186.51,176.51Z" style="fill:#263238;stroke:#263238;stroke-linecap:round;stroke-linejoin:round"></path><path d="M180.88,170.55a3.33,3.33,0,0,1,0,2.52c-.56,1.27,0,4.91.57,5.9s2.94,4.35,2,5.19-4.91,1.12-4.91,1.12-2,10.15-4.79,12.95-3.74,2.69-8,1.13c-5.33-2-7.84-12.53-7.84-12.53a8.6,8.6,0,0,1-4.5-.56c-2.52-1-5.19-5.06-4.35-7.3s1.69-2.39,1.69-2.39l-.56-2.81s10.66-3.51,19.23-3.93S180.88,170.55,180.88,170.55Z" style="fill:#fff;stroke:#263238;stroke-linecap:round;stroke-linejoin:round"></path><path d="M165.71,199.36c4.26,1.56,5.2,1.68,8-1.13s4.79-12.95,4.79-12.95a12,12,0,0,0-5.62.42c-2.38,1-3.79,5.62-3.79,5.62s-3.22-1.26-6.45-5.76-3.93-4.49-4.35-7,2.66-1.83,4.35-4.5,1.82-3.22,1.82-3.65c0,0,0,0-.05,0a100.2,100.2,0,0,0-14.26,3.4l.56,2.81a3.11,3.11,0,0,1,3.65.56c1.54,1.69,2.66,4.92,3.08,6.6a13.88,13.88,0,0,1,.43,3.09S160.38,197.39,165.71,199.36Z" style="fill:#263238;stroke:#263238;stroke-linecap:round;stroke-linejoin:round"></path><path d="M176.27,190.65s-3.15.74-3.59-2" style="fill:none;stroke:#fff;stroke-linecap:round;stroke-linejoin:round"></path><path d="M179.24,176.51c0,2.24-2.19,5.25-4.89,5.25s-4.89-3-4.89-5.25,2.19-3.22,4.89-3.22S179.24,174.27,179.24,176.51Z" style="fill:#263238;stroke:#263238;stroke-linecap:round;stroke-linejoin:round"></path><line x1="169.46" y1="175.92" x2="154.36" y2="177.14" style="fill:none;stroke:#263238;stroke-linecap:round;stroke-linejoin:round"></line><line x1="179" y1="175.32" x2="181.15" y2="175.32" style="fill:none;stroke:#263238;stroke-linecap:round;stroke-linejoin:round"></line><path d="M147.2,171.53s.56-13.76,3.09-15.86,18.38-5.48,21.19-4.49,10.39,16.56,10.39,16.56l-34.53,4.91Z" style="fill:#fff;stroke:#263238;stroke-linecap:round;stroke-linejoin:round"></path><path d="M179.08,162.31c-12.83-.57-25,2.09-31.49,3.89-.29,2.94-.39,5.33-.39,5.33l.14,1.12,34.53-4.91S180.68,165.31,179.08,162.31Z" style="fill:#263238;stroke:#263238;stroke-linecap:round;stroke-linejoin:round"></path><path d="M142.57,177.84s7.72-3.36,20.91-4.91,22.88-1.82,22.88-1.82l2.38-4.92s-8.42-.84-25.4,1.55-24,6-24,6Z" style="fill:#fff;stroke:#263238;stroke-linecap:round;stroke-linejoin:round"></path><path d="M134.43,204.93s-7.3-.28-11.09,3.79-15.72,40.15-17.83,44.36,1,47.72,1.4,51.09.57,10.39,2.11,12.07,5.19,4.91,6.46,4.49.56-.84-.14-2a13,13,0,0,1-1.13-5.76,16.4,16.4,0,0,1,1.13-4.91s.42,5.89.84,6.74,1.68,1.68,1.82-.42-.7-.85.56-5.34-4.91-8.42-5-15.3,3.09-23.86,3.09-31-1-9.68-1-9.68l18.1-30.74" style="fill:#92E3A9;stroke:#263238;stroke-linecap:round;stroke-linejoin:round"></path><path d="M113.77,230.92c-3.71,10-7.21,20.06-8.26,22.16-2.1,4.21,1,47.72,1.4,51.09s.57,10.39,2.11,12.07,5.19,4.91,6.46,4.49.56-.84-.14-2a13,13,0,0,1-1.13-5.76,16.4,16.4,0,0,1,1.13-4.91s.42,5.89.84,6.74,1.68,1.68,1.82-.42-.7-.85.56-5.34-4.91-8.42-5-15.3,3.09-23.86,3.09-31-1-9.68-1-9.68l9.64-16.37C122.16,235.07,117.19,232.6,113.77,230.92Z" style="fill:#fff;stroke:#263238;stroke-linecap:round;stroke-linejoin:round"></path><path d="M206.63,285s97.12,35.34,185.09,34.26" style="fill:none;stroke:#263238;stroke-linecap:round;stroke-linejoin:round"></path><path d="M207.13,282.13s-.56,6.88-1.68,8.28-2.25,1.83-2.25.28.28-4.91.28-4.91-2.38,2.39-3.93-.14-1.4-3.65-1.4-3.65" style="fill:none;stroke:#263238;stroke-linecap:round;stroke-linejoin:round"></path><path d="M202.78,286.34s-1.68,4.07-1.26,5.9" style="fill:none;stroke:#263238;stroke-linecap:round;stroke-linejoin:round"></path><path d="M203.9,292.66s.28,22.6-1.12,26-4.63,3.79-5.75-.14,5.47-26,5.47-26" style="fill:none;stroke:#263238;stroke-linecap:round;stroke-linejoin:round"></path><path d="M205,292.8s2,18.53.56,23.16-4.49,3.37-4.49-3.51,2.1-19.65,2.1-19.65Z" style="fill:none;stroke:#263238;stroke-linecap:round;stroke-linejoin:round"></path><path d="M131.76,270.06s-3.79,3.37-5,15A24.54,24.54,0,0,0,132.18,304c.7,1.12,7.86,8.28,7.86,8.28l6.46,29.9s-14.18,10.52-22,23.16c-4.44,7.13-15.72,15.3-18.11,16.56s-2.52,2-4.35,1-6.45-4.07-7.72-1.68-1.26,9.4-2.38,11.09a14.19,14.19,0,0,0-2.81,7.58c-.28,3.79-.42,13.61.84,13.19s5.76-9.69,11.51-14.74,21.62-17,27.93-21.75,21.76-12.36,29.34-19.8,10.81-12.77,10.81-16-1-34.53-1-42,.7-21.48.7-23.16v-2.95s-7.29,2.95-20.77.7S131.76,270.06,131.76,270.06Z" style="fill:#fff;stroke:#263238;stroke-linecap:round;stroke-linejoin:round"></path><path d="M148.46,273.43c-13.47-2.25-16.7-3.37-16.7-3.37s-3.79,3.37-5,15A24.54,24.54,0,0,0,132.18,304c.7,1.12,7.86,8.28,7.86,8.28l2.42,11.2a34.45,34.45,0,0,1,26.63.28c-.27-9.81-.56-20.91-.56-25,0-7.44.7-21.48.7-23.16v-2.95S161.94,275.68,148.46,273.43Z" style="fill:#263238;stroke:#263238;stroke-linecap:round;stroke-linejoin:round"></path><path d="M132.46,299.68S138.21,318.21,144,328s15.44,18.39,17,23.58-1.12,13.9,2.39,23,17,29.62,18.25,33.41,3.79,11.51,5.47,11.65,22.74-13.2,24-14.32-1.54-1.54-3.37-1.26-16,1.54-17,1.26-2.25-2.95-3.09-5.05-8-33.27-11.79-43.8-4.35-23-5.89-29.19-6.18-24.42-13.2-34.11" style="fill:#263238;stroke:#fff;stroke-linecap:round;stroke-linejoin:round"></path><path d="M207.69,404.11c-1.82.28-16,1.54-17,1.26s-2.25-2.95-3.09-5.05-8-33.27-11.79-43.8-4.35-23-5.89-29.19c-.35-1.37-.84-3.34-1.48-5.68a49.2,49.2,0,0,0-25,5.48c.18.3.35.61.52.9,5.75,9.83,15.44,18.39,17,23.58s-1.12,13.9,2.39,23,17,29.62,18.25,33.41,3.79,11.51,5.47,11.65,22.74-13.2,24-14.32S209.52,403.83,207.69,404.11Z" style="fill:#fff;stroke:#263238;stroke-linecap:round;stroke-linejoin:round"></path><path d="M207.69,404.11c-1.68.25-13.84,1.35-16.51,1.3a2.32,2.32,0,0,0-.75,1.78,6.63,6.63,0,0,0,.42,2.39s-4.41,2.34-7.38,3.88c1.19,3.16,2.55,6.14,3.59,6.23,1.68.14,22.74-13.2,24-14.32S209.52,403.83,207.69,404.11Z" style="fill:#92E3A9;stroke:#263238;stroke-linecap:round;stroke-linejoin:round"></path><path d="M103.83,393.72c-2-3.09-4.07-2.39-4.07-2.39l3.85-8a2.59,2.59,0,0,1-1.61-.45c-1.82-1-6.45-4.07-7.72-1.68s-1.26,9.4-2.38,11.09a14.19,14.19,0,0,0-2.81,7.58c-.28,3.79-.42,13.61.84,13.19s5.76-9.69,11.51-14.74c.92-.81,2.11-1.8,3.48-2.91Z" style="fill:#92E3A9;stroke:#263238;stroke-linecap:round;stroke-linejoin:round"></path><line x1="161.37" y1="300.38" x2="166.01" y2="293.36" style="fill:none;stroke:#fff;stroke-linecap:round;stroke-linejoin:round"></line></g><g id="Floor"><line x1="47.62" y1="419.74" x2="465.46" y2="419.74" style="fill:none;stroke:#263238;stroke-linecap:round;stroke-linejoin:round"></line></g></svg>