<svg xmlns="http://www.w3.org/2000/svg" xmlns:xlink="http://www.w3.org/1999/xlink" viewBox="0 0 500 500"><defs><clippath id="clip-path"><path d="M275,154.33l3,5.83L276.48,164a4.75,4.75,0,0,1,0,2.56A6.19,6.19,0,0,1,275,169s-3.65-2.57-3.65-3.8v-6.35l1.78-2.4Z" style="fill:#fff"></path></clippath><clippath id="clip-path-2"><path d="M101.06,292.91l3,5.83-1.48,3.85a4.88,4.88,0,0,1,0,2.56,6.28,6.28,0,0,1-1.49,2.47s-3.65-2.56-3.65-3.8v-6.35l1.78-2.39Z" style="fill:#fff"></path></clippath><clippath id="clip-path-3"><path d="M87.91,403.19l-3.29,3.74-8.22,3.42-11.84-3.54,3.7-7.74s-.52-4.57,4.22-4.44,11.34,0,11.34,0,2.94,4.27,2.94,4.44S87.91,403.19,87.91,403.19Z" style="fill:#fff"></path></clippath><clippath id="clip-path-4"><path d="M194.62,412.27l-7.33,1.48s-6-2-6-2.79-4.87,1.07-4.87,1.07l-6-2.88a35.85,35.85,0,0,0,1.7-4.34c0-.45,1.51,1.35,3.12,0a10.64,10.64,0,0,1,1.68-1.11h0a27.14,27.14,0,0,1,3-1.41l.85-.23c1.65-.43,5.2-1.26,6.48-.86,1.69.54,7.43,5,7.33,6.07,0,.14,0,.34,0,.57C194.55,409.31,194.62,412.27,194.62,412.27Z" style="fill:#fff"></path></clippath><clippath id="clip-path-5"><path d="M222.43,437.53v5.86s-6.05,5-6.59,4.1a27.3,27.3,0,0,1-1.54-6.07l0-.21c-.27-1.9,3.16-7.06,3.16-7.19Z" style="fill:#fff"></path></clippath><clippath id="clip-path-6"><path d="M130,437.38c-.69,1.53-.1,6.65-.9,7.63s-3.42,3.51-3.61,3-2.45-4.5-3.22-5,2.62-10.56,3.22-11.09C125.45,431.9,130.65,435.86,130,437.38Z" style="fill:#fff"></path></clippath><clippath id="clip-path-7"><path d="M220.79,220.45v19.78s13.26,40.71,16.92,61.91c0,0,9.06,18.49,12,35.3s4.66,42,4.66,42H242.28s-3.44-20.93-9.13-35.95a188.23,188.23,0,0,1-7.76-24.66s-9.9-16.92-14.16-23.33c-11.14-16.75-20-39.29-20-39.29l-2.81,0c-5.64,7.69-21.95,35.66-28.42,43.71-4.89,6.07-8.25,15.62-14.94,34.44s-17.52,28-25.25,45.06H106.9s6.19-13.2,11.34-35.95,15.64-28.35,16.48-38.41c1.81-21.58,16-46.89,18-58.89s12.37-31.15,29.37-38.06Z" style="fill:#757575"></path></clippath><clippath id="clip-path-8"><path d="M182.12,208.15S192.42,149,201.18,144s42.7,11.62,42.7,11.62c1.86,1.52,1.86,11.24,1.86,11.24s3.79,16.81-.77,25.67c-4.8,9.33-15.46,10.92-24.18,28,0,0-2.69,4.59-17.61,0C187,215.47,182.12,208.15,182.12,208.15Z" style="fill:#92E3A9"></path></clippath><clippath id="clip-path-9"><path d="M313.67,460.8l11.46-66.43s8.32-9.2,7.64-12.68S334.93,355,334.93,355s-1.87-1.58-.13-4.82,7.69-20.45,7.69-20.45,5.21-61,6.23-62.67,1-40.61,1-40.61,8.92-1.49,8.84-4.62-.61-23.64-.61-23.64l5.32-18.78,5.66,15,.36,13.63,4.49,10.58.36,13.7L377.7,205l2.89-10.85s4.55,12.59,5.65,14.52-2.08,1.08.21,8.08-3,9.11.55,12.52S392.52,247,393.62,249s8.32-4.95,8.32-4.95,5,10.65,5.08,12.6-2.09.91.5,19.07,7.82,37.15,8.12,48.69-1.67,17.11.69,26.68,4.59,13.81,5.87,22.18a69.22,69.22,0,0,1,.41,16l6.23,16.21" style="fill:#fff"></path></clippath><clippath id="clip-path-10"><path d="M331.64,409.51c.67,1.54,4.87,4.54,5.06,5.79s.31,4.89-.2,4.69-5-1.2-5.88-1-6.08-9-6.07-9.83C324.55,409.18,331,408,331.64,409.51Z" style="fill:#fff"></path></clippath><clippath id="clip-path-11"><path d="M451.65,249.26H351.71a.48.48,0,0,1-.41-.22.49.49,0,0,1-.05-.47c.09-.21,2.32-5.26,17.95-3.66,1.23-1.3,8.64-8.71,18.94-8.92a10.08,10.08,0,0,1,8.49-8.44c6.77-1.3,9.09,3.51,9.69,5.23a17.76,17.76,0,0,1,13.32.23c6.8,2.69,6.71,9.77,6.52,11.88,3.63-.08,22.24-.34,25.86,3.53a.5.5,0,0,1-.37.84Zm-98.9-1h97.32c-4.86-2.4-18.92-2.53-24.45-2.35a.48.48,0,0,1-.4-.17.5.5,0,0,1-.11-.42c.06-.34,1.39-8.52-5.84-11.38a16.67,16.67,0,0,0-13,0,.52.52,0,0,1-.44,0,.5.5,0,0,1-.28-.35c-.06-.26-1.52-6.43-8.7-5a9.06,9.06,0,0,0-7.74,8,.5.5,0,0,1-.5.47c-11,0-18.73,8.68-18.81,8.77a.47.47,0,0,1-.43.17C358.11,244.74,354.06,247,352.75,248.26Z" style="fill:#263238"></path></clippath><clippath id="clip-path-12"><path d="M337.23,175.52H237.29a.51.51,0,0,1-.42-.22.52.52,0,0,1-.05-.47c.09-.21,2.32-5.26,18-3.66,1.22-1.31,8.64-8.71,18.94-8.92a10.08,10.08,0,0,1,8.49-8.44c6.77-1.3,9.08,3.51,9.68,5.23a17.77,17.77,0,0,1,13.32.23c6.8,2.69,6.72,9.77,6.53,11.88,3.62-.09,22.24-.34,25.85,3.53a.49.49,0,0,1,.1.54A.51.51,0,0,1,337.23,175.52Zm-98.91-1h97.33c-4.87-2.4-18.92-2.53-24.46-2.35a.47.47,0,0,1-.39-.17.54.54,0,0,1-.12-.42c.06-.35,1.4-8.53-5.83-11.38-7.41-2.92-13,0-13,0a.54.54,0,0,1-.45,0,.52.52,0,0,1-.28-.35c0-.26-1.51-6.44-8.69-5.05s-7.73,7.72-7.74,8a.51.51,0,0,1-.5.47c-11,0-18.73,8.68-18.81,8.77a.51.51,0,0,1-.43.17C243.69,171,239.64,173.3,238.32,174.52Z" style="fill:#263238"></path></clippath><clippath id="clip-path-13"><path d="M370.56,298.68H290.85a.51.51,0,0,1-.46-.3.49.49,0,0,1,.1-.54c2.87-3.08,17.43-2.92,20.58-2.85-.14-1.83-.09-7.35,5.28-9.47a14.4,14.4,0,0,1,10.6-.22c.54-1.47,2.46-5.16,7.8-4.14a8.14,8.14,0,0,1,6.84,6.74c8.23.2,14,5.94,15.07,7.1,12.5-1.27,14.3,2.82,14.37,3a.52.52,0,0,1,0,.47A.51.51,0,0,1,370.56,298.68Zm-78-1h76.91c-1.2-1-4.51-2.55-13-1.66a.48.48,0,0,1-.43-.17c-.06-.06-6.19-7-14.92-7a.5.5,0,0,1-.5-.47,7.07,7.07,0,0,0-6.1-6.27c-5.62-1.09-6.77,3.74-6.81,4a.51.51,0,0,1-.28.34.54.54,0,0,1-.45,0,13.22,13.22,0,0,0-10.31,0c-5.68,2.25-4.63,8.7-4.59,9a.47.47,0,0,1-.11.41.52.52,0,0,1-.4.18C307.35,295.87,296.75,296,292.57,297.68Z" style="fill:#263238"></path></clippath><clippath id="clip-path-14"><path d="M326.64,366.12H246.93a.51.51,0,0,1-.42-.22.49.49,0,0,1,0-.47c.07-.17,1.87-4.25,14.36-3,1.09-1.17,6.84-6.91,15.07-7.11a8.12,8.12,0,0,1,6.84-6.73c5.34-1,7.26,2.66,7.8,4.14a14.29,14.29,0,0,1,10.6.22c5.37,2.12,5.42,7.63,5.28,9.46,3.15-.07,17.71-.22,20.59,2.85a.5.5,0,0,1-.37.84Zm-78.62-1h76.9c-4.17-1.72-14.78-1.81-19-1.67a.54.54,0,0,1-.4-.17.53.53,0,0,1-.11-.42c.05-.27,1.09-6.72-4.59-9a13.12,13.12,0,0,0-10.31,0,.48.48,0,0,1-.45,0,.47.47,0,0,1-.27-.34c-.05-.21-1.2-5-6.82-4a7,7,0,0,0-6.09,6.27.5.5,0,0,1-.5.47c-8.74,0-14.87,6.9-14.93,7a.54.54,0,0,1-.43.17C252.53,362.57,249.22,364.14,248,365.12Z" style="fill:#263238"></path></clippath><clippath id="clip-path-15"><path d="M402.62,119.51H355.28a.48.48,0,0,1-.41-.22.45.45,0,0,1-.05-.46c.11-.28,1.28-2.64,8.64-1.92a13.74,13.74,0,0,1,8.86-4.2,5,5,0,0,1,4.19-4,4,4,0,0,1,4.79,2.39,8.77,8.77,0,0,1,6.25.21,5.44,5.44,0,0,1,3.28,5.6c2.38,0,10.44-.08,12.16,1.76a.49.49,0,0,1,.09.54A.51.51,0,0,1,402.62,119.51Zm-46-1h43.57a49.36,49.36,0,0,0-9.89-.59.42.42,0,0,1-.39-.17.47.47,0,0,1-.12-.41c0-.16.62-3.83-2.6-5.1a7.7,7.7,0,0,0-6,0,.46.46,0,0,1-.44,0,.51.51,0,0,1-.28-.34,3,3,0,0,0-3.81-2.19,4,4,0,0,0-3.45,3.54.51.51,0,0,1-.5.47c-5.11,0-8.68,4-8.71,4.07a.5.5,0,0,1-.43.16C359.62,117.51,357.61,118,356.62,118.51Z" style="fill:#263238"></path></clippath><clippath id="clip-path-16"><path d="M313.67,461.3h-.08a.5.5,0,0,1-.41-.58l11.46-66.43a.53.53,0,0,1,.12-.25c2.27-2.51,8-9.6,7.52-12.26-.66-3.37,1.81-24,2.12-26.6-.49-.57-1.61-2.31,0-5.23s7.26-19.22,7.64-20.33c.88-10.34,5.27-61.1,6.29-62.81.69-1.47,1-24.94,1-40.36a.5.5,0,0,1,.42-.49c3.28-.55,8.47-2.16,8.42-4.12l-.61-23.64a.76.76,0,0,1,0-.15l5.33-18.77a.5.5,0,0,1,.46-.37.48.48,0,0,1,.49.33l5.66,15a.47.47,0,0,1,0,.17l.35,13.54,4.46,10.49a.37.37,0,0,1,0,.18l.19,7.2,2.68-20.92L380.1,194a.51.51,0,0,1,.47-.37.49.49,0,0,1,.49.33c0,.12,4.54,12.57,5.61,14.45a1.75,1.75,0,0,1,0,2c-.43.77-1.08,1.94.29,6.13a11.24,11.24,0,0,1-.19,7.89c-.59,1.82-1,2.92.61,4.42,2.51,2.41,4.18,9.66,5.4,15a34.36,34.36,0,0,0,1.32,4.92.16.16,0,0,0,.16.1c1.2.16,5-2.92,7.37-5.17a.51.51,0,0,1,.44-.14.54.54,0,0,1,.36.28c.52,1.1,5.08,10.81,5.13,12.81a3.5,3.5,0,0,1-.24,1.27c-.44,1.31-1.26,3.74.73,17.74,1.08,7.6,2.61,15.24,4.08,22.63,2,10,3.87,19.37,4.05,26.11.11,4.21-.09,7.68-.26,10.73-.3,5.49-.55,9.83.94,15.85.95,3.87,1.91,6.93,2.74,9.63a78.9,78.9,0,0,1,3.13,12.6,70.07,70.07,0,0,1,.43,16l6.18,16.1a.5.5,0,1,1-.93.36l-6.22-16.21a.5.5,0,0,1,0-.24,69.89,69.89,0,0,0-.42-15.85,77.84,77.84,0,0,0-3.09-12.45c-.84-2.72-1.8-5.79-2.76-9.69-1.52-6.17-1.26-10.79-1-16.14.17-3,.37-6.48.26-10.65-.18-6.66-2.05-16-4-25.94-1.48-7.41-3-15.06-4.09-22.69-2-14.24-1.16-16.81-.69-18.2a2.42,2.42,0,0,0,.19-.93c0-1.29-2.75-7.52-4.74-11.77-1.64,1.53-5.8,5.23-7.71,5a1.17,1.17,0,0,1-.88-.6,28.83,28.83,0,0,1-1.42-5.19c-1.13-4.88-2.82-12.26-5.12-14.46-2-1.93-1.48-3.56-.87-5.45a10.45,10.45,0,0,0,.19-7.27c-1.5-4.6-.73-6-.21-6.93.25-.46.32-.58,0-1.06-.89-1.56-3.89-9.69-5.14-13.11l-2.48,9.31-3.49,27.3a.48.48,0,0,1-.52.44.52.52,0,0,1-.48-.49l-.35-13.6-4.46-10.49a.39.39,0,0,1,0-.18l-.36-13.55L363.39,181l-4.89,17.24.61,23.57c.09,3.15-6.88,4.68-8.84,5.05,0,7.38-.12,38.74-1.12,40.45-.74,1.65-4.09,38.25-6.16,62.45a.27.27,0,0,1,0,.12c-.24.7-6,17.31-7.72,20.53-1.51,2.81-.05,4.15,0,4.2a.53.53,0,0,1,.17.44c0,.23-2.82,23.17-2.17,26.53.68,3.52-6.43,11.64-7.66,13l-11.43,66.29A.51.51,0,0,1,313.67,461.3Z" style="fill:#263238;clip-path:url(#clip-path-9)"></path></clippath><clippath id="clip-path-17"><path d="M336.54,420.5a.59.59,0,0,1-.22-.05,26.47,26.47,0,0,0-5.58-.95.9.9,0,0,1-.74-.23c-1.44-1.14-6-9.09-5.95-10.09a.51.51,0,0,1,.41-.49c1.6-.3,6.88-1.13,7.64.62a13,13,0,0,0,2.44,2.7c1.57,1.49,2.54,2.45,2.65,3.21,0,0,.53,4.51-.27,5.14A.59.59,0,0,1,336.54,420.5Zm.13-1h0Zm-5.7-1a29.62,29.62,0,0,1,5.32.93,18.54,18.54,0,0,0-.09-4c-.07-.48-1.38-1.72-2.34-2.63a12.71,12.71,0,0,1-2.68-3h0c-.25-.58-3-.63-6-.13.75,1.86,4.5,8.28,5.45,8.92Z" style="fill:#263238;clip-path:url(#clip-path-10)"></path></clippath><clippath id="clip-path-18"><path d="M275,169.54a.52.52,0,0,1-.29-.09c-.9-.64-3.86-2.82-3.86-4.21v-6.35a.54.54,0,0,1,.1-.3l1.78-2.39,1.89-2.2a.51.51,0,0,1,.83.1l3,5.83a.51.51,0,0,1,0,.4L277,164a5.44,5.44,0,0,1,0,2.66,6.82,6.82,0,0,1-1.62,2.7A.52.52,0,0,1,275,169.54Zm-3.15-10.49v6.19c0,.54,1.53,2,3.08,3.13a5.6,5.6,0,0,0,1.07-1.94,4.35,4.35,0,0,0,0-2.26.5.5,0,0,1,0-.34l1.4-3.65-2.53-5-1.38,1.6Z" style="fill:#263238;clip-path:url(#clip-path)"></path></clippath><clippath id="clip-path-19"><path d="M101.06,308.12a.52.52,0,0,1-.29-.09c-.9-.64-3.86-2.82-3.86-4.2v-6.36a.54.54,0,0,1,.1-.3l1.78-2.39,1.89-2.2a.53.53,0,0,1,.44-.17.5.5,0,0,1,.39.27l3,5.83a.53.53,0,0,1,0,.41l-1.43,3.7a5.44,5.44,0,0,1,0,2.66,6.82,6.82,0,0,1-1.62,2.7A.52.52,0,0,1,101.06,308.12Zm-3.15-10.48v6.19c0,.53,1.53,2,3.08,3.12a5.5,5.5,0,0,0,1.07-1.94,4.35,4.35,0,0,0,0-2.26.56.56,0,0,1,0-.34l1.4-3.64-2.53-5-1.38,1.6Z" style="fill:#263238;clip-path:url(#clip-path-2)"></path></clippath><clippath id="clip-path-20"><path d="M76.4,410.85l-.14,0-11.84-3.54a.5.5,0,0,1-.32-.28.51.51,0,0,1,0-.42L67.75,399a5,5,0,0,1,1.12-3.55,4.46,4.46,0,0,1,3.62-1.3c4.69.13,11.25,0,11.32,0a.57.57,0,0,1,.42.22c2.93,4.25,3,4.52,3,4.7s.62,2.28,1.13,4a.5.5,0,0,1-.1.47L85,407.26a.59.59,0,0,1-.19.13l-8.22,3.42A.43.43,0,0,1,76.4,410.85ZM65.26,406.5l11.11,3.32,7.95-3.31,3-3.44c-.77-2.63-1-3.51-1.07-3.85s-1.49-2.3-2.72-4.09c-1.29,0-6.93.11-11.09,0a3.57,3.57,0,0,0-2.86,1,4.12,4.12,0,0,0-.85,2.91.54.54,0,0,1-.05.28Zm21-7.43Z" style="fill:#263238;clip-path:url(#clip-path-3)"></path></clippath><clippath id="clip-path-21"><path d="M187.29,414.25a.45.45,0,0,1-.16,0c-4.94-1.63-6-2.49-6.28-3a21,21,0,0,0-4.25,1.24.51.51,0,0,1-.4,0l-6-2.88A.5.5,0,0,1,170,409a36,36,0,0,0,1.66-4.14.52.52,0,0,1,.24-.48c.3-.2.58-.05.86.1a1.77,1.77,0,0,0,2.2,0,11,11,0,0,1,1.69-1.13l.07-.05a28.19,28.19,0,0,1,3.08-1.44l.9-.24c1.94-.51,5.38-1.28,6.76-.86s7.82,5.06,7.68,6.6c0,.12,0,.32,0,.54,0,1.44,0,4.38,0,4.41a.49.49,0,0,1-.4.5l-7.33,1.48Zm-5.5-3.39c.42.47,3.13,1.57,5.53,2.37l6.79-1.37c0-.87-.05-2.89,0-4,0-.25,0-.45,0-.59-.17-.88-5.39-5.06-7-5.56-.81-.25-3.18.08-6.2.86l-.85.23h0a27.46,27.46,0,0,0-2.83,1.33l-.08.05a9.44,9.44,0,0,0-1.6,1.06,2.62,2.62,0,0,1-3.08.23q-.33,1.05-1.41,3.48l5.35,2.58c4.31-1.62,4.89-1.21,5.08-1.07A.69.69,0,0,1,181.79,410.86Zm0,.12Z" style="fill:#263238;clip-path:url(#clip-path-4)"></path></clippath><clippath id="clip-path-22"><path d="M216,448.1h-.12a.74.74,0,0,1-.51-.34,27.83,27.83,0,0,1-1.6-6.25l0-.17c-.22-1.56,1.44-4.56,2.9-7,.14-.23.24-.4.28-.48a.52.52,0,0,1,.24-.27.51.51,0,0,1,.52,0l5,3.5a.52.52,0,0,1,.21.41v5.86a.5.5,0,0,1-.18.39C221.15,445.1,217.38,448.1,216,448.1Zm1.55-13.35-.05.1c-2,3.27-2.9,5.39-2.77,6.29l0,.21a29.5,29.5,0,0,0,1.4,5.74c.8-.17,3.48-2.09,5.73-3.93v-5.37Z" style="fill:#263238;clip-path:url(#clip-path-5)"></path></clippath><clippath id="clip-path-23"><path d="M125.52,448.57h-.07a.61.61,0,0,1-.47-.39,26.33,26.33,0,0,0-3-4.78.87.87,0,0,1-.33-.69c-.12-1.84,2.74-10.52,3.5-11.18a.5.5,0,0,1,.63,0c1.3,1,5.46,4.34,4.67,6.08h0a13.1,13.1,0,0,0-.36,3.63c-.06,2.16-.12,3.52-.61,4.12C129.42,445.36,126.6,448.57,125.52,448.57Zm.39-.75h0Zm-3.29-5.16a25.1,25.1,0,0,1,3.12,4.8,18.62,18.62,0,0,0,2.93-2.77c.31-.37.35-2.19.39-3.51a12.88,12.88,0,0,1,.44-4h0c.27-.58-1.53-2.64-3.92-4.54C124.71,434.44,122.45,441.53,122.62,442.66Z" style="fill:#263238;clip-path:url(#clip-path-6)"></path></clippath><clippath id="clip-path-24"><path d="M254.39,380H242.28a.49.49,0,0,1-.49-.42c0-.21-3.5-21.05-9.11-35.86A196.14,196.14,0,0,1,224.92,319c-.69-1.18-10-17.13-14.11-23.25-10.33-15.51-18.82-36.25-19.95-39.05h-2.22c-2.45,3.39-6.83,10.41-11.46,17.84-6.15,9.89-13.13,21.09-16.82,25.68-4.76,5.92-8,15.13-14.57,33.48l-.29.82c-3.77,10.57-8.92,18.27-13.89,25.71a131.61,131.61,0,0,0-11.37,19.39.5.5,0,0,1-.46.29H106.9a.48.48,0,0,1-.42-.23.51.51,0,0,1,0-.48c.06-.13,6.22-13.43,11.3-35.85,2.92-12.9,7.5-20.24,11.17-26.14,2.77-4.43,5-7.93,5.31-12.21,1.11-13.3,7-28.17,11.65-40.12,3-7.63,5.59-14.22,6.38-18.81,1.88-11,11.6-31.09,29.67-38.43a.5.5,0,0,1,.34,0L220.94,220a.49.49,0,0,1,.35.47v19.7c.65,2,13.34,41.26,16.9,61.83.59,1.23,9.18,19.19,12,35.37,2.93,16.64,4.64,41.83,4.65,42.08a.46.46,0,0,1-.13.37A.46.46,0,0,1,254.39,380Zm-11.68-1h11.14c-.26-3.73-1.92-26.19-4.61-41.43-2.92-16.54-11.89-35-12-35.17a.33.33,0,0,1,0-.14c-3.61-20.92-16.77-61.43-16.9-61.84a.4.4,0,0,1,0-.15V220.82l-38.15-12.14c-17.58,7.25-27,26.9-28.89,37.61-.81,4.69-3.42,11.33-6.44,19-4.67,11.89-10.49,26.68-11.59,39.84-.38,4.51-2.62,8.11-5.45,12.65-3.64,5.84-8.16,13.1-11,25.83-4.45,19.61-9.72,32.3-11,35.34h11.78a135.22,135.22,0,0,1,11.31-19.24c4.95-7.39,10.06-15,13.79-25.49l.28-.81c6.57-18.46,9.87-27.73,14.74-33.77,3.66-4.55,10.61-15.73,16.75-25.58,4.74-7.6,9.21-14.78,11.65-18.12a.51.51,0,0,1,.4-.2l2.82,0h0a.5.5,0,0,1,.46.32c.09.23,9,22.68,20,39.19,4.23,6.35,14.09,23.19,14.18,23.36a.47.47,0,0,1,.06.15,190.44,190.44,0,0,0,7.74,24.58C238.82,357.06,242.18,375.92,242.71,379Z" style="fill:#263238;clip-path:url(#clip-path-7)"></path></clippath><clippath id="clip-path-25"><path d="M214.35,223a39.49,39.49,0,0,1-11.32-2c-16.21-5-21.13-12.2-21.33-12.5a.48.48,0,0,1-.07-.37c.42-2.42,10.44-59.44,19.3-64.54s41.78,10.91,43.17,11.6l.1.06c2,1.6,2,10.32,2,11.57.28,1.25,3.68,17.21-.83,26-2.08,4-5.2,6.64-8.81,9.63-4.87,4-10.39,8.62-15.36,18.34C221.15,220.83,219.8,223,214.35,223ZM182.65,208c.81,1.07,6.14,7.48,20.67,11.95,14.22,4.36,17,.26,17.05.21,5-9.87,10.65-14.52,15.6-18.62,3.52-2.92,6.56-5.45,8.55-9.32,4.43-8.59.77-25.17.73-25.33s0-.07,0-.11c0-3.63-.45-9.72-1.63-10.82-1.59-.77-33.92-16.36-42.18-11.61S183.33,204.18,182.65,208Z" style="fill:#263238;clip-path:url(#clip-path-8)"></path></clippath></defs><g id="background-simple"><path d="M404.9,89.79l-.58-.53C350.83,41.1,279.78,38.92,228,90.78c-27,27-74.88,21.85-109.15,31.62C.69,156.11,21.12,316.44,79.49,394c52.68,69.94,166.81,85.74,243.5,51.33C390.37,415,437.82,347.48,454.7,276.85q2.55-10.64,4.15-21.45C467.74,195.27,450.67,131.41,404.9,89.79Z" style="fill:#92E3A9"></path><path d="M404.9,89.79l-.58-.53C350.83,41.1,279.78,38.92,228,90.78c-27,27-74.88,21.85-109.15,31.62C.69,156.11,21.12,316.44,79.49,394c52.68,69.94,166.81,85.74,243.5,51.33C390.37,415,437.82,347.48,454.7,276.85q2.55-10.64,4.15-21.45C467.74,195.27,450.67,131.41,404.9,89.79Z" style="fill:#fff;opacity:0.7000000000000001"></path></g><g id="Clouds"><path d="M451.65,249.26H351.71a.48.48,0,0,1-.41-.22.49.49,0,0,1-.05-.47c.09-.21,2.32-5.26,17.95-3.66,1.23-1.3,8.64-8.71,18.94-8.92a10.08,10.08,0,0,1,8.49-8.44c6.77-1.3,9.09,3.51,9.69,5.23a17.76,17.76,0,0,1,13.32.23c6.8,2.69,6.71,9.77,6.52,11.88,3.63-.08,22.24-.34,25.86,3.53a.5.5,0,0,1-.37.84Zm-98.9-1h97.32c-4.86-2.4-18.92-2.53-24.45-2.35a.48.48,0,0,1-.4-.17.5.5,0,0,1-.11-.42c.06-.34,1.39-8.52-5.84-11.38a16.67,16.67,0,0,0-13,0,.52.52,0,0,1-.44,0,.5.5,0,0,1-.28-.35c-.06-.26-1.52-6.43-8.7-5a9.06,9.06,0,0,0-7.74,8,.5.5,0,0,1-.5.47c-11,0-18.73,8.68-18.81,8.77a.47.47,0,0,1-.43.17C358.11,244.74,354.06,247,352.75,248.26Z" style="fill:#263238"></path><g style="clip-path:url(#clip-path-11)"><path d="M451.65,249.26H351.71a.48.48,0,0,1-.41-.22.49.49,0,0,1-.05-.47c.09-.21,2.32-5.26,17.95-3.66,1.23-1.3,8.64-8.71,18.94-8.92a10.08,10.08,0,0,1,8.49-8.44c6.77-1.3,9.09,3.51,9.69,5.23a17.76,17.76,0,0,1,13.32.23c6.8,2.69,6.71,9.77,6.52,11.88,3.63-.08,22.24-.34,25.86,3.53a.5.5,0,0,1-.37.84Zm-98.9-1h97.32c-4.86-2.4-18.92-2.53-24.45-2.35a.48.48,0,0,1-.4-.17.5.5,0,0,1-.11-.42c.06-.34,1.39-8.52-5.84-11.38a16.67,16.67,0,0,0-13,0,.52.52,0,0,1-.44,0,.5.5,0,0,1-.28-.35c-.06-.26-1.52-6.43-8.7-5a9.06,9.06,0,0,0-7.74,8,.5.5,0,0,1-.5.47c-11,0-18.73,8.68-18.81,8.77a.47.47,0,0,1-.43.17C358.11,244.74,354.06,247,352.75,248.26Z" style="fill:#263238;opacity:0.5"></path></g><path d="M337.23,175.52H237.29a.51.51,0,0,1-.42-.22.52.52,0,0,1-.05-.47c.09-.21,2.32-5.26,18-3.66,1.22-1.31,8.64-8.71,18.94-8.92a10.08,10.08,0,0,1,8.49-8.44c6.77-1.3,9.08,3.51,9.68,5.23a17.77,17.77,0,0,1,13.32.23c6.8,2.69,6.72,9.77,6.53,11.88,3.62-.09,22.24-.34,25.85,3.53a.49.49,0,0,1,.1.54A.51.51,0,0,1,337.23,175.52Zm-98.91-1h97.33c-4.87-2.4-18.92-2.53-24.46-2.35a.47.47,0,0,1-.39-.17.54.54,0,0,1-.12-.42c.06-.35,1.4-8.53-5.83-11.38-7.41-2.92-13,0-13,0a.54.54,0,0,1-.45,0,.52.52,0,0,1-.28-.35c0-.26-1.51-6.44-8.69-5.05s-7.73,7.72-7.74,8a.51.51,0,0,1-.5.47c-11,0-18.73,8.68-18.81,8.77a.51.51,0,0,1-.43.17C243.69,171,239.64,173.3,238.32,174.52Z" style="fill:#263238"></path><g style="clip-path:url(#clip-path-12)"><path d="M337.23,175.52H237.29a.51.51,0,0,1-.42-.22.52.52,0,0,1-.05-.47c.09-.21,2.32-5.26,18-3.66,1.22-1.31,8.64-8.71,18.94-8.92a10.08,10.08,0,0,1,8.49-8.44c6.77-1.3,9.08,3.51,9.68,5.23a17.77,17.77,0,0,1,13.32.23c6.8,2.69,6.72,9.77,6.53,11.88,3.62-.09,22.24-.34,25.85,3.53a.49.49,0,0,1,.1.54A.51.51,0,0,1,337.23,175.52Zm-98.91-1h97.33c-4.87-2.4-18.92-2.53-24.46-2.35a.47.47,0,0,1-.39-.17.54.54,0,0,1-.12-.42c.06-.35,1.4-8.53-5.83-11.38-7.41-2.92-13,0-13,0a.54.54,0,0,1-.45,0,.52.52,0,0,1-.28-.35c0-.26-1.51-6.44-8.69-5.05s-7.73,7.72-7.74,8a.51.51,0,0,1-.5.47c-11,0-18.73,8.68-18.81,8.77a.51.51,0,0,1-.43.17C243.69,171,239.64,173.3,238.32,174.52Z" style="fill:#263238;opacity:0.5"></path></g><path d="M370.56,298.68H290.85a.51.51,0,0,1-.46-.3.49.49,0,0,1,.1-.54c2.87-3.08,17.43-2.92,20.58-2.85-.14-1.83-.09-7.35,5.28-9.47a14.4,14.4,0,0,1,10.6-.22c.54-1.47,2.46-5.16,7.8-4.14a8.14,8.14,0,0,1,6.84,6.74c8.23.2,14,5.94,15.07,7.1,12.5-1.27,14.3,2.82,14.37,3a.52.52,0,0,1,0,.47A.51.51,0,0,1,370.56,298.68Zm-78-1h76.91c-1.2-1-4.51-2.55-13-1.66a.48.48,0,0,1-.43-.17c-.06-.06-6.19-7-14.92-7a.5.5,0,0,1-.5-.47,7.07,7.07,0,0,0-6.1-6.27c-5.62-1.09-6.77,3.74-6.81,4a.51.51,0,0,1-.28.34.54.54,0,0,1-.45,0,13.22,13.22,0,0,0-10.31,0c-5.68,2.25-4.63,8.7-4.59,9a.47.47,0,0,1-.11.41.52.52,0,0,1-.4.18C307.35,295.87,296.75,296,292.57,297.68Z" style="fill:#263238"></path><g style="clip-path:url(#clip-path-13)"><path d="M370.56,298.68H290.85a.51.51,0,0,1-.46-.3.49.49,0,0,1,.1-.54c2.87-3.08,17.43-2.92,20.58-2.85-.14-1.83-.09-7.35,5.28-9.47a14.4,14.4,0,0,1,10.6-.22c.54-1.47,2.46-5.16,7.8-4.14a8.14,8.14,0,0,1,6.84,6.74c8.23.2,14,5.94,15.07,7.1,12.5-1.27,14.3,2.82,14.37,3a.52.52,0,0,1,0,.47A.51.51,0,0,1,370.56,298.68Zm-78-1h76.91c-1.2-1-4.51-2.55-13-1.66a.48.48,0,0,1-.43-.17c-.06-.06-6.19-7-14.92-7a.5.5,0,0,1-.5-.47,7.07,7.07,0,0,0-6.1-6.27c-5.62-1.09-6.77,3.74-6.81,4a.51.51,0,0,1-.28.34.54.54,0,0,1-.45,0,13.22,13.22,0,0,0-10.31,0c-5.68,2.25-4.63,8.7-4.59,9a.47.47,0,0,1-.11.41.52.52,0,0,1-.4.18C307.35,295.87,296.75,296,292.57,297.68Z" style="fill:#263238;opacity:0.5"></path></g><path d="M326.64,366.12H246.93a.51.51,0,0,1-.42-.22.49.49,0,0,1,0-.47c.07-.17,1.87-4.25,14.36-3,1.09-1.17,6.84-6.91,15.07-7.11a8.12,8.12,0,0,1,6.84-6.73c5.34-1,7.26,2.66,7.8,4.14a14.29,14.29,0,0,1,10.6.22c5.37,2.12,5.42,7.63,5.28,9.46,3.15-.07,17.71-.22,20.59,2.85a.5.5,0,0,1-.37.84Zm-78.62-1h76.9c-4.17-1.72-14.78-1.81-19-1.67a.54.54,0,0,1-.4-.17.53.53,0,0,1-.11-.42c.05-.27,1.09-6.72-4.59-9a13.12,13.12,0,0,0-10.31,0,.48.48,0,0,1-.45,0,.47.47,0,0,1-.27-.34c-.05-.21-1.2-5-6.82-4a7,7,0,0,0-6.09,6.27.5.5,0,0,1-.5.47c-8.74,0-14.87,6.9-14.93,7a.54.54,0,0,1-.43.17C252.53,362.57,249.22,364.14,248,365.12Z" style="fill:#263238"></path><g style="clip-path:url(#clip-path-14)"><path d="M326.64,366.12H246.93a.51.51,0,0,1-.42-.22.49.49,0,0,1,0-.47c.07-.17,1.87-4.25,14.36-3,1.09-1.17,6.84-6.91,15.07-7.11a8.12,8.12,0,0,1,6.84-6.73c5.34-1,7.26,2.66,7.8,4.14a14.29,14.29,0,0,1,10.6.22c5.37,2.12,5.42,7.63,5.28,9.46,3.15-.07,17.71-.22,20.59,2.85a.5.5,0,0,1-.37.84Zm-78.62-1h76.9c-4.17-1.72-14.78-1.81-19-1.67a.54.54,0,0,1-.4-.17.53.53,0,0,1-.11-.42c.05-.27,1.09-6.72-4.59-9a13.12,13.12,0,0,0-10.31,0,.48.48,0,0,1-.45,0,.47.47,0,0,1-.27-.34c-.05-.21-1.2-5-6.82-4a7,7,0,0,0-6.09,6.27.5.5,0,0,1-.5.47c-8.74,0-14.87,6.9-14.93,7a.54.54,0,0,1-.43.17C252.53,362.57,249.22,364.14,248,365.12Z" style="fill:#263238;opacity:0.5"></path></g><path d="M402.62,119.51H355.28a.48.48,0,0,1-.41-.22.45.45,0,0,1-.05-.46c.11-.28,1.28-2.64,8.64-1.92a13.74,13.74,0,0,1,8.86-4.2,5,5,0,0,1,4.19-4,4,4,0,0,1,4.79,2.39,8.77,8.77,0,0,1,6.25.21,5.44,5.44,0,0,1,3.28,5.6c2.38,0,10.44-.08,12.16,1.76a.49.49,0,0,1,.09.54A.51.51,0,0,1,402.62,119.51Zm-46-1h43.57a49.36,49.36,0,0,0-9.89-.59.42.42,0,0,1-.39-.17.47.47,0,0,1-.12-.41c0-.16.62-3.83-2.6-5.1a7.7,7.7,0,0,0-6,0,.46.46,0,0,1-.44,0,.51.51,0,0,1-.28-.34,3,3,0,0,0-3.81-2.19,4,4,0,0,0-3.45,3.54.51.51,0,0,1-.5.47c-5.11,0-8.68,4-8.71,4.07a.5.5,0,0,1-.43.16C359.62,117.51,357.61,118,356.62,118.51Z" style="fill:#263238"></path><g style="clip-path:url(#clip-path-15)"><path d="M402.62,119.51H355.28a.48.48,0,0,1-.41-.22.45.45,0,0,1-.05-.46c.11-.28,1.28-2.64,8.64-1.92a13.74,13.74,0,0,1,8.86-4.2,5,5,0,0,1,4.19-4,4,4,0,0,1,4.79,2.39,8.77,8.77,0,0,1,6.25.21,5.44,5.44,0,0,1,3.28,5.6c2.38,0,10.44-.08,12.16,1.76a.49.49,0,0,1,.09.54A.51.51,0,0,1,402.62,119.51Zm-46-1h43.57a49.36,49.36,0,0,0-9.89-.59.42.42,0,0,1-.39-.17.47.47,0,0,1-.12-.41c0-.16.62-3.83-2.6-5.1a7.7,7.7,0,0,0-6,0,.46.46,0,0,1-.44,0,.51.51,0,0,1-.28-.34,3,3,0,0,0-3.81-2.19,4,4,0,0,0-3.45,3.54.51.51,0,0,1-.5.47c-5.11,0-8.68,4-8.71,4.07a.5.5,0,0,1-.43.16C359.62,117.51,357.61,118,356.62,118.51Z" style="fill:#263238;opacity:0.5"></path></g></g><g id="Mountain"><path d="M313.67,460.8l11.46-66.43s8.32-9.2,7.64-12.68S334.93,355,334.93,355s-1.87-1.58-.13-4.82,7.69-20.45,7.69-20.45,5.21-61,6.23-62.67,1-40.61,1-40.61,8.92-1.49,8.84-4.62-.61-23.64-.61-23.64l5.32-18.78,5.66,15,.36,13.63,4.49,10.58.36,13.7L377.7,205l2.89-10.85s4.55,12.59,5.65,14.52-2.08,1.08.21,8.08-3,9.11.55,12.52S392.52,247,393.62,249s8.32-4.95,8.32-4.95,5,10.65,5.08,12.6-2.09.91.5,19.07,7.82,37.15,8.12,48.69-1.67,17.11.69,26.68,4.59,13.81,5.87,22.18a69.22,69.22,0,0,1,.41,16l6.23,16.21" style="fill:#fff"></path><path d="M313.67,461.3h-.08a.5.5,0,0,1-.41-.58l11.46-66.43a.53.53,0,0,1,.12-.25c2.27-2.51,8-9.6,7.52-12.26-.66-3.37,1.81-24,2.12-26.6-.49-.57-1.61-2.31,0-5.23s7.26-19.22,7.64-20.33c.88-10.34,5.27-61.1,6.29-62.81.69-1.47,1-24.94,1-40.36a.5.5,0,0,1,.42-.49c3.28-.55,8.47-2.16,8.42-4.12l-.61-23.64a.76.76,0,0,1,0-.15l5.33-18.77a.5.5,0,0,1,.46-.37.48.48,0,0,1,.49.33l5.66,15a.47.47,0,0,1,0,.17l.35,13.54,4.46,10.49a.37.37,0,0,1,0,.18l.19,7.2,2.68-20.92L380.1,194a.51.51,0,0,1,.47-.37.49.49,0,0,1,.49.33c0,.12,4.54,12.57,5.61,14.45a1.75,1.75,0,0,1,0,2c-.43.77-1.08,1.94.29,6.13a11.24,11.24,0,0,1-.19,7.89c-.59,1.82-1,2.92.61,4.42,2.51,2.41,4.18,9.66,5.4,15a34.36,34.36,0,0,0,1.32,4.92.16.16,0,0,0,.16.1c1.2.16,5-2.92,7.37-5.17a.51.51,0,0,1,.44-.14.54.54,0,0,1,.36.28c.52,1.1,5.08,10.81,5.13,12.81a3.5,3.5,0,0,1-.24,1.27c-.44,1.31-1.26,3.74.73,17.74,1.08,7.6,2.61,15.24,4.08,22.63,2,10,3.87,19.37,4.05,26.11.11,4.21-.09,7.68-.26,10.73-.3,5.49-.55,9.83.94,15.85.95,3.87,1.91,6.93,2.74,9.63a78.9,78.9,0,0,1,3.13,12.6,70.07,70.07,0,0,1,.43,16l6.18,16.1a.5.5,0,1,1-.93.36l-6.22-16.21a.5.5,0,0,1,0-.24,69.89,69.89,0,0,0-.42-15.85,77.84,77.84,0,0,0-3.09-12.45c-.84-2.72-1.8-5.79-2.76-9.69-1.52-6.17-1.26-10.79-1-16.14.17-3,.37-6.48.26-10.65-.18-6.66-2.05-16-4-25.94-1.48-7.41-3-15.06-4.09-22.69-2-14.24-1.16-16.81-.69-18.2a2.42,2.42,0,0,0,.19-.93c0-1.29-2.75-7.52-4.74-11.77-1.64,1.53-5.8,5.23-7.71,5a1.17,1.17,0,0,1-.88-.6,28.83,28.83,0,0,1-1.42-5.19c-1.13-4.88-2.82-12.26-5.12-14.46-2-1.93-1.48-3.56-.87-5.45a10.45,10.45,0,0,0,.19-7.27c-1.5-4.6-.73-6-.21-6.93.25-.46.32-.58,0-1.06-.89-1.56-3.89-9.69-5.14-13.11l-2.48,9.31-3.49,27.3a.48.48,0,0,1-.52.44.52.52,0,0,1-.48-.49l-.35-13.6-4.46-10.49a.39.39,0,0,1,0-.18l-.36-13.55L363.39,181l-4.89,17.24.61,23.57c.09,3.15-6.88,4.68-8.84,5.05,0,7.38-.12,38.74-1.12,40.45-.74,1.65-4.09,38.25-6.16,62.45a.27.27,0,0,1,0,.12c-.24.7-6,17.31-7.72,20.53-1.51,2.81-.05,4.15,0,4.2a.53.53,0,0,1,.17.44c0,.23-2.82,23.17-2.17,26.53.68,3.52-6.43,11.64-7.66,13l-11.43,66.29A.51.51,0,0,1,313.67,461.3Z" style="fill:#263238"></path><g style="clip-path:url(#clip-path-16)"><path d="M407,256.63l-4.47,5.95-1.75,23.75s-3.05-25.66-4-26.82-2.32-2.56-2.32-2.56-.73,2.24-1.47,4.08-3.15,1.06-3.15,1.06l-2.11,40.07-6.37-61.79-3.15.08s-2.73,1.81-5.15.14-2.84-2.55-4.1-5.75-3-2.82-3-2.82-1,32.68-2.15,34.07-.69-41.72-1.2-46-.1-3.63-.1-3.63l-2.34-14.12L358,198.19l5.32-18.78,5.66,15,.36,13.63,4.49,10.58.36,13.7L377.7,205l2.89-10.85s4.55,12.59,5.65,14.52-2.08,1.08.21,8.08-3,9.11.55,12.52S392.52,247,393.62,249s8.32-4.95,8.32-4.95S407,254.68,407,256.63Z" style="fill:#92E3A9;opacity:0.4"></path></g><path d="M380.51,373.67h-.08a.5.5,0,0,1-.42-.57c1-6.3.51-12.55-.16-19.48-.11-1.25-.17-2.51-.23-3.73-.21-4.37-.4-8.5-3.18-12a.5.5,0,0,1,.79-.62c3,3.74,3.19,8.23,3.39,12.57.05,1.2.11,2.45.23,3.67.67,7,1.14,13.32.15,19.74A.5.5,0,0,1,380.51,373.67Z" style="fill:#263238"></path><path d="M373.31,333.76a.47.47,0,0,1-.39-.19c-4.79-6.23-6.51-17.29-6.09-25.48a.47.47,0,0,1,.52-.47.49.49,0,0,1,.47.52c-.4,8,1.26,18.79,5.89,24.82a.51.51,0,0,1-.09.7A.5.5,0,0,1,373.31,333.76Z" style="fill:#263238"></path><path d="M367,304.47a.5.5,0,0,1-.5-.46l-.82-10.12a.5.5,0,0,1,1-.08l.82,10.12a.52.52,0,0,1-.46.54Z" style="fill:#263238"></path><path d="M354.16,425.52a.5.5,0,0,1-.5-.48l-.26-10a.49.49,0,0,1,.49-.51.53.53,0,0,1,.51.48l.26,10a.49.49,0,0,1-.49.51Z" style="fill:#263238"></path><path d="M353.82,412.59h0a.5.5,0,0,1-.46-.54q.26-2.75.52-5.51l.42-4.51a.52.52,0,0,1,.54-.45.5.5,0,0,1,.46.54c-.14,1.51-.28,3-.43,4.52l-.51,5.5A.5.5,0,0,1,353.82,412.59Z" style="fill:#263238"></path><path d="M355.11,398.59H355a.5.5,0,0,1-.4-.58c.86-5,.68-10.4.5-15.6-.34-10.2-.7-20.74,6.52-29.76a.5.5,0,0,1,.79.62c-7,8.73-6.65,19.09-6.31,29.1.18,5.26.37,10.69-.52,15.81A.49.49,0,0,1,355.11,398.59Z" style="fill:#263238"></path><path d="M402.83,304.09a.51.51,0,0,1-.5-.49l-.28-10.68a.51.51,0,0,1,.49-.52.5.5,0,0,1,.51.49l.28,10.69a.5.5,0,0,1-.49.51Z" style="fill:#263238"></path><path d="M409.31,334.43c-2.24,0-3.37-2.11-4.46-4.16a.43.43,0,0,1-.05-.16c-.31-2.05-.69-4.06-1.06-6-1.07-5.63-2.08-10.95-1.3-16.67A.49.49,0,0,1,403,307a.5.5,0,0,1,.43.56c-.75,5.57.24,10.81,1.29,16.36.36,1.92.74,3.9,1,5.95,1,1.84,1.92,3.55,3.55,3.55h0c3.33-1,4.34-4.27,5.5-8.1l.34-1.09a.5.5,0,1,1,1,.3l-.34,1.08c-1.21,4-2.35,7.71-6.25,8.79A.78.78,0,0,1,409.31,334.43Z" style="fill:#263238"></path><path d="M402.43,394.71a.48.48,0,0,1-.2,0A.5.5,0,0,1,402,394c3.12-7.46,2.12-15.41,1.15-23.1-.33-2.63-.67-5.35-.83-8a.5.5,0,1,1,1-.06c.16,2.59.5,5.29.83,7.91,1,7.82,2,15.91-1.23,23.61A.51.51,0,0,1,402.43,394.71Z" style="fill:#263238"></path><path d="M402.37,359.6a.49.49,0,0,1-.49-.42,45.26,45.26,0,0,1,.73-18,.49.49,0,0,1,.6-.37.5.5,0,0,1,.37.6,44.37,44.37,0,0,0-.72,17.59.5.5,0,0,1-.4.58Z" style="fill:#263238"></path><path d="M404.39,337.12a.4.4,0,0,1-.15,0,.49.49,0,0,1-.32-.63c.56-1.72,1.22-3.44,1.95-5.1a.51.51,0,0,1,.66-.26.5.5,0,0,1,.26.66c-.72,1.64-1.37,3.32-1.92,5A.49.49,0,0,1,404.39,337.12Z" style="fill:#263238"></path><path d="M415.94,396.45a.51.51,0,0,1-.5-.43c-1.15-8-2-14.61-2-21.59a.5.5,0,0,1,.5-.5h0a.51.51,0,0,1,.5.5c0,6.92.84,13.53,2,21.45a.51.51,0,0,1-.42.57Z" style="fill:#263238"></path><path d="M413.83,369.58a.5.5,0,0,1-.48-.39c-1.1-4.64,0-8.38,1.12-12a26.74,26.74,0,0,0,1.36-6.17.48.48,0,0,1,.53-.47.49.49,0,0,1,.47.53,27.82,27.82,0,0,1-1.4,6.39c-1.06,3.49-2.15,7.09-1.11,11.47a.5.5,0,0,1-.37.6Z" style="fill:#263238"></path><path d="M361.74,342a.48.48,0,0,1-.5-.48l-.28-10.6a.51.51,0,0,1,.08-.29L367.89,320a.51.51,0,0,1,.69-.15.5.5,0,0,1,.15.69L362,331l.28,10.44a.5.5,0,0,1-.49.51Z" style="fill:#263238"></path><path d="M346.51,344.56a.5.5,0,0,1-.5-.49,20.63,20.63,0,0,0-1.89-7.1c-.23-.59-.47-1.19-.69-1.8a.5.5,0,1,1,.93-.35c.23.6.46,1.2.69,1.78a21.42,21.42,0,0,1,2,7.44.52.52,0,0,1-.49.52Z" style="fill:#263238"></path><path d="M355,368.45a.5.5,0,0,1-.42-.22l-6.67-9.93c-1.69-2.52-1.7-4.64-1.7-7.32,0-.56,0-1.14,0-1.76a.5.5,0,0,1,.49-.51.52.52,0,0,1,.51.49c0,.62,0,1.21,0,1.78,0,2.61,0,4.5,1.53,6.76l6.67,9.93a.51.51,0,0,1-.14.7A.53.53,0,0,1,355,368.45Z" style="fill:#263238"></path><path d="M336.26,427.44h0a.49.49,0,0,1-.46-.53l.92-11.5a.5.5,0,0,1,1,.08l-.93,11.5A.5.5,0,0,1,336.26,427.44Z" style="fill:#263238"></path><path d="M337.56,411.23h-.13a.51.51,0,0,1-.36-.61,33.38,33.38,0,0,0-.33-16.48.5.5,0,0,1,.36-.61.51.51,0,0,1,.61.36,34.31,34.31,0,0,1,.33,17A.5.5,0,0,1,337.56,411.23Z" style="fill:#263238"></path><path d="M335.92,390.12a.5.5,0,0,1-.47-.34c-.81-2.39-1.83-5-3.13-7.89a.5.5,0,0,1,.91-.41c1.31,2.95,2.35,5.56,3.17,8a.49.49,0,0,1-.32.63A.41.41,0,0,1,335.92,390.12Z" style="fill:#263238"></path><path d="M383.76,263.87a.49.49,0,0,1-.49-.45l-2.33-22.54-1.46,0-3.27.8a.6.6,0,0,1-.23,0l-3-.65a.52.52,0,0,1-.3-.2c-.17-.24-4.13-5.79-5.15-7.6-.42-.74-.76-.9-.92-.93a.37.37,0,0,0-.27.05.5.5,0,1,1-.65-.76,1.36,1.36,0,0,1,1.09-.27,2.51,2.51,0,0,1,1.62,1.42c.9,1.6,4.32,6.42,5,7.35l2.7.59,3.22-.79.11,0,2,0a.5.5,0,0,1,.51.45l2.37,23a.5.5,0,0,1-.45.55Z" style="fill:#263238"></path><path d="M362.66,240.66h0a.5.5,0,0,1-.5-.5v-20l-.66-7-1.76-10.63-2.19-4.1a.5.5,0,0,1,.21-.67.51.51,0,0,1,.68.2l2.22,4.18a.66.66,0,0,1,0,.15L362.5,213l.66,7v20.09A.51.51,0,0,1,362.66,240.66Z" style="fill:#263238"></path><path d="M389.08,277.56h0a.5.5,0,0,1-.48-.52l.8-15a.5.5,0,0,1,.34-.45l2.91-1,1.39-3.85a.49.49,0,0,1,.84-.17l2.32,2.55a.51.51,0,0,1,0,.71.49.49,0,0,1-.7,0l-1.76-1.93-1.19,3.3a.51.51,0,0,1-.31.3l-2.82.94-.78,14.63A.5.5,0,0,1,389.08,277.56Z" style="fill:#263238"></path><path d="M401.68,274.88h0a.5.5,0,0,1-.46-.54l.87-11.8a.49.49,0,0,1,.1-.26l4.47-5.95a.5.5,0,0,1,.7-.1.51.51,0,0,1,.1.7L403,262.76l-.86,11.66A.5.5,0,0,1,401.68,274.88Z" style="fill:#263238"></path><path d="M377.27,205.38c4.61-9.34,3.6-20.79-6.26-35s-14.87-30.84.69-40.2c0,0,4.35-3.51.93-10.24,0,0-5.41.52-5.69-7.9-.26-7.83,8.18-6.75,9.51-19.93.71-7-4.87-11.53-4.87-11.53s5.29,2.83,6.73,11.53-5.29,12.09-5,17.79c.24,4.76,8.42,11.37,11.58,16.77s5.77,13.72,3.87,17.47c0,0,5.56,4.8.65,11.4s-11.65,4.6-11.65,4.6,7.92,2.37,5.15,7.72-1.18,6.44-1.18,6.44a11.42,11.42,0,0,1,3.56,8.38c0,2.5-3.56,5.27-3.56,5.27C382.81,200.54,377.27,205.38,377.27,205.38Z" style="fill:#fff;opacity:0.7000000000000001"></path></g><g id="Cliff"><path d="M273.24,391.92c-4.18-6.38.88-4.59-3.55-10.33-4.22-5.48,0-10,.6-15.79.57-5.55-1.85-11.91-2.73-17.51-2.6-16.55-5.19-33.53-1.75-49.92a18.62,18.62,0,0,0,.5-3.15,19.45,19.45,0,0,0-.49-4,61.53,61.53,0,0,1-.93-15.16c.44-4.29,2.87-5.9,4.55-9.69,1.17-2.66.5-5.49,2.83-7.79.58-.58,1.32-1.15,1.43-2a3.49,3.49,0,0,0-1.09-2.41,13.26,13.26,0,0,1-2.39-10.69c.91-4.19,3.88-8,3.3-12.3-.51-3.72-2.82-7.06-3.58-10.75-1-4.8-1.13-10-1.68-14.87-.77-6.79-1.77-13.78-1.93-20.62-.1-4.12,2.54-10.6,1.12-14.12-7.87-19.53-1.65-39.43-3.4-59.4a5.51,5.51,0,0,1,.15-2.43c.65-1.69,2.87-2.59,3-4.39.11-1.45-1.22-2.55-2.06-3.73-2-2.77-1.13-7.94-2-11.3-1.21-4.55-3.23-8.76-3.86-13.49-.77-5.79.28-11.67.18-17.5h0c-3.41,1.71-6.84,3.37-10.35,4.89a165.2,165.2,0,0,1-30.18,9.33c-15.56,3.46-31.17,6.81-46.61,10.75-7.5,1.92-15,4-22.27,6.58q-2.73,1-5.42,2l-1.49.59c-.41.64-3.76,1.67-4.44,2q-2.59,1.25-5.13,2.61a113.09,113.09,0,0,0-9.91,6c-1.61,1.08-3.18,2.23-4.75,3.38l-.16.12-.63.53c-6,5-11.77,10.19-17.41,15.57C94.26,129,87.9,135.11,81.36,141l-1.09,1.37a6.21,6.21,0,0,1-1.14,1.1c-2.69,3.2-4.93,7.43-7.14,10.69q-4.41,6.53-8.53,13.24c-2.69,4.41-5.26,8.89-7.67,13.45-1.32,4-2.85,7.95-4.44,12.13a64.57,64.57,0,0,0-2.12,6.34c-.3,1.08-.55,2.16-.78,3.26-.06.31-.23,1.41-.33,2,0,.27,0,.49,0,.6-.09,1.19-.16,2.38-.22,3.57-.13,2.42-.22,4.83-.4,7.24-.39,5.08-1.2,10.12-2,15.15.34,9.56,1.16,19.1,2.24,28.6.37,3.22.76,6.42,1.17,9.63.08.58.14,1.16.22,1.74,0,.12.05.4.12.91.71,5.13,1.4,10.27,2.13,15.4a296.74,296.74,0,0,1,3.28,34.82c.35,15.26-.46,30.5-1,45.75,4,28.51,9.28,52.81,27,65.19,30.49,21.31,142.66,40.11,198.41-21.46C281.81,408.7,277.42,398.31,273.24,391.92Z" style="fill:#fff"></path><path d="M273.24,391.92c-4.18-6.38.88-4.59-3.55-10.33-4.22-5.48,0-10,.6-15.79.57-5.55-1.85-11.91-2.73-17.51-2.6-16.55-5.19-33.53-1.75-49.92a18.62,18.62,0,0,0,.5-3.15,19.45,19.45,0,0,0-.49-4,61.53,61.53,0,0,1-.93-15.16c.44-4.29,2.87-5.9,4.55-9.69,1.17-2.66.5-5.49,2.83-7.79.58-.58,1.32-1.15,1.43-2a3.49,3.49,0,0,0-1.09-2.41,13.26,13.26,0,0,1-2.39-10.69c.91-4.19,3.88-8,3.3-12.3-.51-3.72-2.82-7.06-3.58-10.75-1-4.8-1.13-10-1.68-14.87-.77-6.79-1.77-13.78-1.93-20.62-.1-4.12,2.54-10.6,1.12-14.12-7.87-19.53-1.65-39.43-3.4-59.4a5.51,5.51,0,0,1,.15-2.43c.65-1.69,2.87-2.59,3-4.39.11-1.45-1.22-2.55-2.06-3.73-2-2.77-1.13-7.94-2-11.3-1.21-4.55-3.23-8.76-3.86-13.49-.77-5.79.28-11.67.18-17.5h0c-3.41,1.71-6.84,3.37-10.35,4.89a165.2,165.2,0,0,1-30.18,9.33c-15.56,3.46-31.17,6.81-46.61,10.75-7.5,1.92-15,4-22.27,6.58q-2.73,1-5.42,2l-1.49.59c-.41.64-3.76,1.67-4.44,2q-2.59,1.25-5.13,2.61a113.09,113.09,0,0,0-9.91,6c-1.61,1.08-3.18,2.23-4.75,3.38l-.16.12-.63.53c-6,5-11.77,10.19-17.41,15.57C94.26,129,87.9,135.11,81.36,141l-1.09,1.37a6.21,6.21,0,0,1-1.14,1.1c-2.69,3.2-4.93,7.43-7.14,10.69q-4.41,6.53-8.53,13.24c-2.69,4.41-5.26,8.89-7.67,13.45-1.32,4-2.85,7.95-4.44,12.13a64.57,64.57,0,0,0-2.12,6.34c-.3,1.08-.55,2.16-.78,3.26-.06.31-.23,1.41-.33,2,0,.27,0,.49,0,.6-.09,1.19-.16,2.38-.22,3.57-.13,2.42-.22,4.83-.4,7.24-.39,5.08-1.2,10.12-2,15.15.34,9.56,1.16,19.1,2.24,28.6.37,3.22.76,6.42,1.17,9.63.08.58.14,1.16.22,1.74,0,.12.05.4.12.91.71,5.13,1.4,10.27,2.13,15.4a296.74,296.74,0,0,1,3.28,34.82c.35,15.26-.46,30.5-1,45.75,4,28.51,9.28,52.81,27,65.19,30.49,21.31,142.66,40.11,198.41-21.46C281.81,408.7,277.42,398.31,273.24,391.92Z" style="fill:#92E3A9;opacity:0.30000000000000004"></path><path d="M331.64,409.51c.67,1.54,4.87,4.54,5.06,5.79s.31,4.89-.2,4.69-5-1.2-5.88-1-6.08-9-6.07-9.83C324.55,409.18,331,408,331.64,409.51Z" style="fill:#fff"></path><path d="M336.54,420.5a.59.59,0,0,1-.22-.05,26.47,26.47,0,0,0-5.58-.95.9.9,0,0,1-.74-.23c-1.44-1.14-6-9.09-5.95-10.09a.51.51,0,0,1,.41-.49c1.6-.3,6.88-1.13,7.64.62a13,13,0,0,0,2.44,2.7c1.57,1.49,2.54,2.45,2.65,3.21,0,0,.53,4.51-.27,5.14A.59.59,0,0,1,336.54,420.5Zm.13-1h0Zm-5.7-1a29.62,29.62,0,0,1,5.32.93,18.54,18.54,0,0,0-.09-4c-.07-.48-1.38-1.72-2.34-2.63a12.71,12.71,0,0,1-2.68-3h0c-.25-.58-3-.63-6-.13.75,1.86,4.5,8.28,5.45,8.92Z" style="fill:#263238"></path><g style="clip-path:url(#clip-path-17)"><path d="M331.64,409.51c.67,1.54,4.87,4.54,5.06,5.79s.31,4.89-.2,4.69-5-1.2-5.88-1-6.08-9-6.07-9.83C324.55,409.18,331,408,331.64,409.51Z" style="fill:#92E3A9;opacity:0.4"></path><path d="M331.64,409.51c.67,1.54,4.87,4.54,5.06,5.79s.31,4.89-.2,4.69-5-1.2-5.88-1l2.16-2.39-1.73-2.78Z" style="fill-opacity:0.7000000000000001;opacity:0.2"></path></g><path d="M279.05,37.62S273.73,57,276.49,61.36s-1.08,9.27-.93,11.75,1.47,7.12,1.2,9.35,1.06,2.45,0,4.72-.66-.11-1.06,2.26.49,5.9-.15,7.7-2.22,15.93-2.22,15.93,2.66,12.81,2.32,13.78.34,7.52,0,10-.74,3.76-.34,6.16-1,22.25-1,22.25l-4-28.41s1.73-11,0-17.9-.87-13.46-1.3-16.53,1.62-15.31,0-17.89-.63-6.52-2.7-13.65-2.14-8.42-2.11-11.53,2.16-1-1.08-6.61-4.49-6.3-4.49-6.3" style="fill:#fff"></path><path d="M275,154.33l3,5.83L276.48,164a4.75,4.75,0,0,1,0,2.56A6.19,6.19,0,0,1,275,169s-3.65-2.57-3.65-3.8v-6.35l1.78-2.4Z" style="fill:#fff"></path><path d="M275,169.54a.52.52,0,0,1-.29-.09c-.9-.64-3.86-2.82-3.86-4.21v-6.35a.54.54,0,0,1,.1-.3l1.78-2.39,1.89-2.2a.51.51,0,0,1,.83.1l3,5.83a.51.51,0,0,1,0,.4L277,164a5.44,5.44,0,0,1,0,2.66,6.82,6.82,0,0,1-1.62,2.7A.52.52,0,0,1,275,169.54Zm-3.15-10.49v6.19c0,.54,1.53,2,3.08,3.13a5.6,5.6,0,0,0,1.07-1.94,4.35,4.35,0,0,0,0-2.26.5.5,0,0,1,0-.34l1.4-3.65-2.53-5-1.38,1.6Z" style="fill:#263238"></path><g style="clip-path:url(#clip-path-18)"><path d="M276.48,164a4.75,4.75,0,0,1,0,2.56A6.19,6.19,0,0,1,275,169s-3.65-2.57-3.65-3.8v-6.35l1.78-2.4,1.87-2.16,3,5.83Z" style="fill:#92E3A9;opacity:0.4"></path><path d="M276.48,164a4.75,4.75,0,0,1,0,2.56A6.19,6.19,0,0,1,275,169s-3.65-2.57-3.65-3.8v-6.35l2,4.53,1.33-.71s.78-2.65,1.18-2.55a16.5,16.5,0,0,0,2.13,0Z" style="fill-opacity:0.7000000000000001;opacity:0.2"></path></g><path d="M94.91,222.65c.4,4.46,0,23.36,0,23.36l4,13.95s-3.56,16.27-2,16.24,1.58,3.65,2,5.77,1.85,18.29,1.85,18.29,2.1-16.05,2.1-18.29V270.25s6-5.6,4-8.55S104,246,104,246l-5.14-6.39s.39-9.62,0-9.88S94.91,222.65,94.91,222.65Z" style="fill:#fff"></path><path d="M101.06,292.91l3,5.83-1.48,3.85a4.88,4.88,0,0,1,0,2.56,6.28,6.28,0,0,1-1.49,2.47s-3.65-2.56-3.65-3.8v-6.35l1.78-2.39Z" style="fill:#fff"></path><path d="M101.06,308.12a.52.52,0,0,1-.29-.09c-.9-.64-3.86-2.82-3.86-4.2v-6.36a.54.54,0,0,1,.1-.3l1.78-2.39,1.89-2.2a.53.53,0,0,1,.44-.17.5.5,0,0,1,.39.27l3,5.83a.53.53,0,0,1,0,.41l-1.43,3.7a5.44,5.44,0,0,1,0,2.66,6.82,6.82,0,0,1-1.62,2.7A.52.52,0,0,1,101.06,308.12Zm-3.15-10.48v6.19c0,.53,1.53,2,3.08,3.12a5.5,5.5,0,0,0,1.07-1.94,4.35,4.35,0,0,0,0-2.26.56.56,0,0,1,0-.34l1.4-3.64-2.53-5-1.38,1.6Z" style="fill:#263238"></path><g style="clip-path:url(#clip-path-19)"><path d="M102.54,302.59a4.75,4.75,0,0,1,0,2.56,6.19,6.19,0,0,1-1.48,2.47s-3.65-2.57-3.65-3.8v-6.35l1.78-2.4,1.87-2.16,3,5.83Z" style="fill:#92E3A9;opacity:0.4"></path><path d="M102.54,302.59a4.75,4.75,0,0,1,0,2.56,6.19,6.19,0,0,1-1.48,2.47s-3.65-2.57-3.65-3.8v-6.35l2,4.53,1.33-.71s.78-2.65,1.18-2.55a16.5,16.5,0,0,0,2.13,0Z" style="fill-opacity:0.7000000000000001;opacity:0.2"></path></g><path d="M279.05,412.25a.5.5,0,0,1-.49-.43l-.18-1.19c-.63-4.44-1.81-12.7-5.56-18.43-2.19-3.34-2-4.62-1.76-5.75s.33-1.84-1.76-4.56c-3.06-4-1.94-7.43-.75-11.12a24.58,24.58,0,0,0,1.24-5c.38-3.65-.59-7.72-1.52-11.66-.45-1.91-.92-3.88-1.21-5.73-2.45-15.65-5.24-33.4-1.74-50.09l.07-.31a16.34,16.34,0,0,0,.42-2.75,15.82,15.82,0,0,0-.37-3.3l-.11-.6a60.25,60.25,0,0,1-.93-15.3,13.24,13.24,0,0,1,2.6-6.38,22.83,22.83,0,0,0,2-3.47,12.21,12.21,0,0,0,.76-2.92,8.38,8.38,0,0,1,2.17-5l.29-.27a2.75,2.75,0,0,0,1-1.41,2.93,2.93,0,0,0-.89-1.89l-.11-.15a13.71,13.71,0,0,1-2.47-11.1,27.57,27.57,0,0,1,1.6-4.66c1-2.53,2-4.93,1.68-7.46a22.6,22.6,0,0,0-1.82-5.64,28,28,0,0,1-1.75-5.08,87.08,87.08,0,0,1-1.23-10c-.14-1.63-.28-3.31-.46-4.92-.15-1.35-.31-2.7-.47-4.05-.66-5.46-1.33-11.11-1.46-16.62a28.93,28.93,0,0,1,.75-5.78c.59-3,1.21-6.18.4-8.16-5.06-12.57-4.33-25.5-3.62-38,.4-7.07.82-14.37.19-21.56a5.89,5.89,0,0,1,.19-2.65,6.26,6.26,0,0,1,1.57-2.1,3.73,3.73,0,0,0,1.4-2.15,3.87,3.87,0,0,0-1.28-2.52c-.24-.29-.48-.59-.69-.88-1.3-1.83-1.45-4.53-1.6-7.13a22.77,22.77,0,0,0-.49-4.33c-.45-1.68-1-3.34-1.57-5a45.71,45.71,0,0,1-2.3-8.6,55.79,55.79,0,0,1,0-10.81,48.12,48.12,0,0,0-.26-12.05.5.5,0,1,1,1-.19,49.72,49.72,0,0,1,.27,12.3,55.31,55.31,0,0,0,0,10.61A44.54,44.54,0,0,0,262,84.45c.55,1.63,1.13,3.31,1.58,5a22.7,22.7,0,0,1,.53,4.52c.14,2.47.28,5,1.41,6.61.2.27.43.55.65.82a4.77,4.77,0,0,1,1.51,3.24,4.59,4.59,0,0,1-1.69,2.78,5.4,5.4,0,0,0-1.35,1.74,5,5,0,0,0-.12,2.22,150.81,150.81,0,0,1-.19,21.69c-.7,12.39-1.43,25.2,3.55,37.56.91,2.27.27,5.55-.35,8.74a28.64,28.64,0,0,0-.73,5.56c.13,5.46.8,11.08,1.45,16.52.16,1.36.32,2.71.47,4.05.19,1.63.33,3.32.47,5a84.46,84.46,0,0,0,1.21,9.87,27.59,27.59,0,0,0,1.69,4.9,23.76,23.76,0,0,1,1.89,5.88c.38,2.8-.7,5.44-1.75,8a27.85,27.85,0,0,0-1.55,4.5A12.73,12.73,0,0,0,273,253.9l.11.14a3.72,3.72,0,0,1,1.08,2.64,3.64,3.64,0,0,1-1.31,2l-.27.25a7.41,7.41,0,0,0-1.89,4.48,13.56,13.56,0,0,1-.83,3.16,25,25,0,0,1-2.06,3.61,12.25,12.25,0,0,0-2.45,5.93,59.62,59.62,0,0,0,.93,15l.1.59a17,17,0,0,1,.39,3.51,17.69,17.69,0,0,1-.44,2.93l-.07.31c-3.46,16.5-.69,34.15,1.75,49.73.28,1.81.73,3.67,1.19,5.65,1,4,1.94,8.17,1.54,12a25,25,0,0,1-1.28,5.23c-1.15,3.57-2.15,6.66.59,10.2,2.36,3.07,2.16,4.17,2,5.34-.18,1-.36,2,1.61,5,3.87,5.92,5.07,14.32,5.71,18.84l.17,1.19a.48.48,0,0,1-.42.56Z" style="fill:#263238"></path><path d="M231.9,399.82a.49.49,0,0,1-.47-.34l-6.51-18.9a.45.45,0,0,1,0-.16v-16.6l-1.35-23.71a1.1,1.1,0,0,1,0-.18c.2-.61,19.45-60.83,18.29-69.61s-2.08-30-2.09-30.26a.5.5,0,0,1,.48-.52.49.49,0,0,1,.52.47c0,.22.91,21.31,2.08,30.18s-17.16,66.43-18.29,70l1.34,23.64v16.54l6.48,18.83a.5.5,0,0,1-.31.63A.45.45,0,0,1,231.9,399.82Z" style="fill:#263238"></path><path d="M256.82,335.59a.5.5,0,0,1-.48-.36l-4.14-13.35c0-.1-1.53-6.75-3.45-12.42a41.76,41.76,0,0,1-2.3-12.6c0-1.43-3-18-4.6-26.52a.5.5,0,0,1,.4-.58.51.51,0,0,1,.59.4c.19,1,4.6,24.82,4.61,26.7a41.23,41.23,0,0,0,2.25,12.28c1.94,5.72,3.45,12.42,3.47,12.48l4.13,13.32a.5.5,0,0,1-.33.62Z" style="fill:#263238"></path><path d="M267.89,377.87a.51.51,0,0,1-.5-.5c0-1.08-2.72-8.59-4.52-13.38a.2.2,0,0,1,0-.11l-1.06-8.46-3.6-7.13a.5.5,0,0,1,.22-.67.49.49,0,0,1,.67.22l3.64,7.21a.33.33,0,0,1,.05.16l1.06,8.48c.56,1.48,4.54,12.09,4.57,13.67a.5.5,0,0,1-.49.51Z" style="fill:#263238"></path><path d="M254.25,267.93h-.07a.5.5,0,0,1-.43-.56l2.57-21.24c2-9.49,3.54-20.16,2.44-20.93a1.63,1.63,0,0,1-.91-1c-.45-1.4.82-3.64,2.29-6.24.57-1,1.17-2.08,1.68-3.12.95-1.93.71-3,.33-4.83a24.34,24.34,0,0,1-.38-8.92c1.06-8.89,4.87-22.26,4.91-22.39a.5.5,0,1,1,1,.27c0,.13-3.82,13.43-4.88,22.24a23,23,0,0,0,.37,8.59c.4,1.88.69,3.24-.41,5.49-.52,1.06-1.13,2.13-1.71,3.16-1.24,2.19-2.52,4.46-2.21,5.44a.67.67,0,0,0,.38.41c2.34,1.08-.53,15.74-1.87,22l-2.57,21.2A.49.49,0,0,1,254.25,267.93Z" style="fill:#263238"></path><path d="M259.88,305.8a.48.48,0,0,1-.26-.07.49.49,0,0,1-.16-.69L265.88,295a.5.5,0,0,1,.69-.16.49.49,0,0,1,.16.69l-6.42,10.08A.51.51,0,0,1,259.88,305.8Z" style="fill:#263238"></path><path d="M246.67,160.66a.51.51,0,0,1-.5-.41c-.28-1.51-6.88-37-5.59-42.13.75-3-1.65-11.09-3.4-17C236,97,235,93.67,235.09,92.45A4.3,4.3,0,0,0,234,89.28a7.34,7.34,0,0,1-1.31-2.75c-.54-2.57.64-10,.78-10.88L231.4,59.76a.5.5,0,0,1,1-.13l2.11,16a.38.38,0,0,1,0,.15c0,.08-1.33,8.1-.8,10.59a6,6,0,0,0,1.16,2.38,5.22,5.22,0,0,1,1.21,3.82c-.09,1,.95,4.56,2.06,8.28,1.88,6.38,4.23,14.32,3.41,17.56-1,4.06,3.45,29.78,5.06,38.67,1.49-10.19,6.1-39.64,9.94-42.09a36.56,36.56,0,0,0,7.27-6.26.52.52,0,0,1,.71-.06.51.51,0,0,1,.05.71,37.24,37.24,0,0,1-7.49,6.46c-3,1.93-7.59,27.62-9.93,44.42a.5.5,0,0,1-.48.44Z" style="fill:#263238"></path><path d="M252,219.29a.5.5,0,0,1-.45-.28L246,208a.46.46,0,0,1-.05-.2c0-.68-.88-16.8,0-19.81a29.12,29.12,0,0,0,1.56-7.68c.11-2.68-1.38-19.92-1.39-20.09a.49.49,0,0,1,.45-.54.48.48,0,0,1,.54.45c.06.71,1.51,17.48,1.4,20.22a29.93,29.93,0,0,1-1.6,7.93c-.68,2.26-.29,13.59,0,19.37l5.47,10.94a.51.51,0,0,1-.23.67A.54.54,0,0,1,252,219.29Z" style="fill:#263238"></path><path d="M200.08,377.87a.5.5,0,0,1-.49-.49c-.39-13.62-1.35-40-2.28-42.48a25.87,25.87,0,0,0-2-3.45c-3.05-4.74-7.65-11.9-5.13-17.33,3.1-6.72,2.36-23.77,2.35-23.94V264.67c-4.59-12.88-4.89-14.78-4.71-15.23.35-1.15,1.83-18.23,2.74-29.48a.5.5,0,0,1,.54-.46.51.51,0,0,1,.46.54c-2,24.33-2.59,28.81-2.83,29.73h0c0,.89,2.91,9.46,4.76,14.65a.47.47,0,0,1,0,.17v25.57c0,.69.76,17.44-2.45,24.38-2.28,4.93,2.14,11.82,5.07,16.37a25.8,25.8,0,0,1,2.11,3.64c1.21,3.22,2.29,41.19,2.34,42.8a.51.51,0,0,1-.49.52Z" style="fill:#263238"></path><path d="M176,402.14h-.06a.51.51,0,0,1-.44-.56c1.62-13.05,4.67-38,4.69-38.85h0a33.88,33.88,0,0,1,1.76-4.4c2.08-4.88,5.58-13.05,5.81-14.59.35-2.34,2.36-18,2.38-18.19a.5.5,0,0,1,1,.13c0,.16-2,15.86-2.39,18.21-.23,1.54-3,8.17-5.88,14.84-.85,2-1.65,3.85-1.72,4.08h-.06c0,1.47-.79,7.92-4.61,38.9A.51.51,0,0,1,176,402.14Z" style="fill:#263238"></path><path d="M165.19,233h0a.51.51,0,0,1-.48-.52c0-.35,1.32-34.31.93-40.54-.1-1.58-.15-2.43-.18-2.8-.2-.19-.36-.73-.74-3.19-.92-6-2.23-15.93-2.24-16V134.76c-.31-1.17-4.79-18.07-6.12-22.46-1.43-4.7.51-27.36,2.5-29.22a.49.49,0,0,1,.7,0,.5.5,0,0,1,0,.71c-1.48,1.38-3.67,23.46-2.23,28.2,1.38,4.54,6.1,22.38,6.15,22.56a.51.51,0,0,1,0,.13v35.15s1.31,10,2.23,15.94a23.06,23.06,0,0,0,.47,2.56c.25.15.26.29.46,3.52.39,6.28-.87,39.24-.93,40.64A.5.5,0,0,1,165.19,233Zm.43-44.66Z" style="fill:#263238"></path><path d="M135.66,179.17a.5.5,0,0,1-.48-.37c-.06-.2-5.55-20.39-6.7-23-.87-2-.56-6.25-.28-10,.12-1.62.23-3.15.23-4.28V126.85c0-7.16-3.9-24.25-3.94-24.42a.5.5,0,0,1,1-.22c.16.7,4,17.36,4,24.64v14.64c0,1.17-.11,2.72-.23,4.35-.26,3.46-.58,7.77.19,9.53.94,2.14,4.46,14.83,6,20.48.81-9,2.63-27.73,3.78-28.9.17-.18,4.34-4.64,3.88-22.11-.39-15.07,3-44,3-44.29a.5.5,0,0,1,.55-.44.51.51,0,0,1,.44.56c0,.29-3.39,29.14-3,44.15.37,14.28-2.45,21.07-4.17,22.83-.86,1.23-2.75,19.71-3.74,31.06a.51.51,0,0,1-.46.46Z" style="fill:#263238"></path><path d="M134.08,281.08a.5.5,0,0,1-.5-.5v-13c0-5.2,1.65-10.3,4.39-18.07,2.63-7.49,1.23-15.57.1-22.05l-.13-.75c-1.17-6.79-2.71-46.33-2.78-48a.5.5,0,1,1,1,0c0,.41,1.61,41.16,2.77,47.88l.13.75c1.14,6.6,2.57,14.81-.15,22.55s-4.33,12.69-4.33,17.74v13A.51.51,0,0,1,134.08,281.08Z" style="fill:#263238"></path><path d="M71.56,397.87a.5.5,0,0,1-.5-.48c-.21-4-1-14.64-2.33-16.45-1.08-1.53.5-3.48,2-5.36,1.1-1.34,2.34-2.86,1.93-3.58-.65-1.13.11-3.07,1.16-5.75,1.25-3.19,3-7.57,2.76-12.11a62,62,0,0,1-.11-6.65c0-1.12.11-2.81.11-7.41,0-7.29-.38-7.82-2-10a38.69,38.69,0,0,1-2.7-4.21c-2.43-4.36-3.52-12.66-3.25-24.68,0-.41,0-.73,0-.92,0-2,6.07-45.9,6.33-47.76a.5.5,0,1,1,1,.13c-2.19,15.79-6.32,46.07-6.32,47.63,0,.2,0,.52,0,.95-.26,11.83.79,20,3.12,24.16a36.15,36.15,0,0,0,2.64,4.11c1.79,2.46,2.17,3.24,2.17,10.6,0,4.62-.07,6.33-.12,7.45a65.15,65.15,0,0,0,.12,6.57c.2,4.75-1.55,9.24-2.83,12.52-.88,2.23-1.63,4.17-1.22,4.88.75,1.31-.6,3-2,4.71-1.24,1.52-2.64,3.24-2,4.15,1.68,2.38,2.44,15.49,2.52,17a.51.51,0,0,1-.47.53Z" style="fill:#263238"></path><path d="M89.61,406.85h0a.5.5,0,0,1-.47-.53s.16-2.83,0-7.11-.78-8.47-.79-8.51a31.88,31.88,0,0,1,0-5.23c.21-2.36-2.84-5.69-2.87-5.72a10.18,10.18,0,0,1-2.33-8.84c.91-5-6.32-14.59-6.39-14.69a.5.5,0,1,1,.79-.6c.31.41,7.57,10.06,6.58,15.47a9.4,9.4,0,0,0,2.07,8c.15.16,3.39,3.7,3.14,6.5a32.87,32.87,0,0,0,0,5,85.3,85.3,0,0,1,.8,8.6c.16,4.32,0,7.17,0,7.2A.51.51,0,0,1,89.61,406.85Z" style="fill:#263238"></path><path d="M72.22,277.24a.5.5,0,0,1-.48-.36c-.8-2.57-7.79-25.22-7.83-27.2a42.43,42.43,0,0,1,.56-4.78,118,118,0,0,0,1.46-15.28,59,59,0,0,0-1.21-10.77,30.73,30.73,0,0,1-.77-7.49c.39-4.16,0-28.36,0-28.61a.52.52,0,0,1,.49-.51h0a.5.5,0,0,1,.5.5c0,1,.39,24.5,0,28.71a29.36,29.36,0,0,0,.76,7.22,60.67,60.67,0,0,1,1.22,11A119.54,119.54,0,0,1,65.46,245a44,44,0,0,0-.55,4.62c0,1.39,4.67,16.87,7.78,26.93a.49.49,0,0,1-.32.62A.4.4,0,0,1,72.22,277.24Z" style="fill:#263238"></path><path d="M94.91,208.07a.51.51,0,0,1-.5-.46c0-.18-1.6-18.48-3.54-25.81-1.29-4.84-.93-9.79-.51-15.52.23-3.17.49-6.76.49-10.71a171.77,171.77,0,0,0-1.58-24c-.36-2.81-1.52-7.86-2.76-13.22-1.45-6.3-3-12.81-3.17-15.9a.5.5,0,0,1,.46-.54.49.49,0,0,1,.53.47c.22,3,1.71,9.49,3.16,15.75,1.24,5.38,2.41,10.46,2.78,13.32a173.38,173.38,0,0,1,1.58,24.13c0,4-.26,7.6-.49,10.78-.41,5.64-.77,10.51.47,15.2,2,7.41,3.56,25.79,3.58,26a.51.51,0,0,1-.45.55Z" style="fill:#263238"></path><path d="M302.6,428.22c1.59,5-4,16.79-4,16.79v9.3s-8.7,12.93-11.39,13.33-74.85-3.17-78.44-2.28-94.57,0-94.57,0-54.15-8-55.94-11.05-6.91-15.95-6.82-16.93-12.91-28.29-12.91-28.29l12.91-13c13-4,36.65-.66,36.65-.66s20.68,7.45,27.83.66,30.6,3.13,30.6,3.13,27.76,2.52,29.39,2.45,12.62-.68,19.39-.77-5.49.88,12.9,0,19.43-5.23,25.49-4.81,37.49,2.15,43.68,2.25,8.73,3.37,13,4.9c3.09,1.11,8.52,6.16,12.17,9.85h0c1.38,1.4,2.51,2.6,3.16,3.31C308.14,419,301,423.22,302.6,428.22Z" style="fill:#fff"></path><path d="M302.6,428.22c1.59,5-4,16.79-4,16.79v2.08l-2.77-6.28s-2.37-4.8-4-3.43-4.58,3.91-4.66,5.61,1.91,2.8-1.06,5a117,117,0,0,1-10.89,6.3l-2.77-6.3s-1.19-6.33,0-7.2-2.23-7.19-2.23-7.19l-9.61,7.19s.24-1.47-2.07-1l-15.26,3.25-3.49,8.1s.9-16.17,2.14-16.28,5-4.17,4.93-5.3-8-10.11-8-10.11l-5.7,4.5s-.55,6.45,0,8S229,443,229,443s-2.88-7.79-3.61-9.37-6.26-9-6.26-9l-6.72-1.29s-1.59-5.89-2.77-5.32-15.48,9.36-15.48,9.36-3.17,1.71-3.54,7.54-3.15,2.82-3.34,8.08-3.95,11.32-3.95,11.32l-2.68,5S175.91,449.2,176,443s1.42-3.23,1.33-8.08S174,424.62,174,424.62l-2.77-.62s-1.58,3.81-2.37,6.51-.15,1-2.45,3.82S160.16,439.7,159,443s-5.55.56-3.95,4.1,0,9.47,0,9.47-.95-6-4.23-8.55-16.87-10.19-11.26-13.68,8.45-4.11,7-7-3-6.72-3-6.72-2.37-5.44-9.49,0-11.83,4.39-11.85,9.86.81,8,0,9.33-6.31,6.09-8.31,7.25-7.29-.47-7,4.1-12,8.14-12,8.14l-11.51-5-6.69-23.46,15,9,10.7-4.93s6.85-4.33,7.59-4.4,2.44-6.51,2.44-6.51,5.08.93,1.49-3.63-9.91-8.62-9.91-8.62-8.31-.9-9.1,0-11.51,8.9-11.51,8.9l-6.27-1.15-4.91,5.12,4.91,15.22V448s-7.39-9.23-8.25-10.63-8-2.47-8-2.47l-7.52-5.3v-6.28l11-8.47s-5.11-1.63-6.1-3.11-8.34,0-8.34,0l-4.9-5.4L55,402.93c8.3-3.34,11.65,1.15,11.65,1.15l5.61,7.67s2.64.24,9.09-2.22,6.56-6.19,13.6-5.19S105.84,408,111.75,409s13.7-.54,13.7-.54l8.63-1.26,6.57-.8h8.08l12.42-2,8.14,2L176,414.2s11.12,3.2,11.32,2.4,8.51-3.77,9.7-4.85,9.1-2.54,9.1-2.54h13.45l5.86-5.13,13.53.26,3.1,7.41s9.81,4.32,11.06,5,11.34,3.29,13.23,2.77,5.83-.9,6.23.87,3.44,9.19,4.88,9.24,7-5,7-5l1.79-4,4.22-.28,3.09,3,4.35-2.68s1.58-2,1.58-2.64,3.15-4.95,3.15-4.95h0c1.38,1.4,2.51,2.6,3.16,3.31C308.14,419,301,423.22,302.6,428.22Z" style="fill:#92E3A9;opacity:0.4"></path><path d="M257.59,435.42a19.18,19.18,0,0,1-3.29-.26.49.49,0,0,1-.34-.22c-.25-.4-6.17-9.86-7.49-14.43-.8-2.77-3.1-4.47-5.14-6a12.29,12.29,0,0,1-2.82-2.5,30,30,0,0,1-2.1-3.78,15.67,15.67,0,0,0-1.84-3.18c-.59-.6-4-.4-6.9.12-1.66,1.48-8.68,7.6-11,7.3a1.08,1.08,0,0,1-.77-.48c-.75-1.19-5-1.87-7.59-2l-10.23,4.67-10.58,6.42a.48.48,0,0,1-.45,0c-5-2.1-14.72-6.14-15.94-6.42-1.58-.37-4-5.06-5-7-2.42.44-8.58,1.36-9.73-.23-1-.42-8.32,1.09-14.18,2.31-9.73,2-15.74,3.19-17.06,2.39-1.17-.71-4.86-1.3-8.42-1.87s-7.25-1.15-9.16-1.95c-.7-.29-1.47-.64-2.27-1-3.37-1.53-7.55-3.43-10.27-2.53-1.21.4-3.37,1.25-5.87,2.22a149.72,149.72,0,0,1-14.6,5.2c-5.2,1.27-16,5.17-16.12,5.21a.5.5,0,0,1-.64-.3.51.51,0,0,1,.31-.64c.1,0,11-4,16.22-5.25a148.83,148.83,0,0,0,14.46-5.15c2.52-1,4.69-1.83,5.92-2.24,3.09-1,7.48,1,11,2.57.79.36,1.55.71,2.25,1,1.79.75,5.42,1.33,8.92,1.89,3.83.61,7.45,1.18,8.79,2,1.08.65,9.9-1.17,16.33-2.51,11.44-2.37,14.62-2.88,15.2-1.92.48.8,5.1.52,9.11-.23a.5.5,0,0,1,.54.27c1.51,3.11,3.65,6.59,4.49,6.78,1.51.35,13.92,5.57,15.86,6.38l10.41-6.32L208,409a.69.69,0,0,1,.24,0c.74,0,7.22.47,8.51,2.5,1.52.2,7.12-4.25,10.32-7.12a.41.41,0,0,1,.24-.11c1.1-.21,6.65-1.17,7.93.14a15.41,15.41,0,0,1,2,3.43,27.82,27.82,0,0,0,2,3.64,12,12,0,0,0,2.59,2.28c2.06,1.51,4.62,3.39,5.51,6.49,1.18,4.09,6.4,12.59,7.26,14,1.23.17,7.38.87,10.43-2.14,1.56-1.53,2.64-2.12,3.53-1.92s1.41,1.35,1.85,2.55l.27.73c.48,1.21,5.66.8,10.23-.27l4.26-3.87.08-.06a17.23,17.23,0,0,1,10.22-2c3.91.59,8.36-7.74,9.75-11a.5.5,0,0,1,.92.4c-.22.5-5.36,12.43-10.82,11.6a16.41,16.41,0,0,0-9.52,1.89L281.58,434a.57.57,0,0,1-.22.11c-1.74.41-10.47,2.34-11.52-.3-.1-.26-.19-.51-.28-.76-.34-.93-.66-1.81-1.13-1.91s-1.07.14-2.61,1.66C263.62,435,260.15,435.42,257.59,435.42ZM156.46,407.49Z" style="fill:#263238"></path><path d="M263.12,429.37a.51.51,0,0,1-.42-.23l-4-6.06a19.52,19.52,0,0,1-12-2.28.5.5,0,1,1,.5-.86,18.92,18.92,0,0,0,11.68,2.11.49.49,0,0,1,.51.21l4.15,6.33a.51.51,0,0,1-.15.7A.53.53,0,0,1,263.12,429.37Z" style="fill:#263238"></path><path d="M278.23,404.85a1.15,1.15,0,0,1-.73-.25,28.12,28.12,0,0,0-5.13-2.43.51.51,0,0,1-.3-.65.49.49,0,0,1,.64-.29,27.61,27.61,0,0,1,5.42,2.59c.26.21,1.49-.54,2.31-1,2-1.19,4.67-2.82,7.06-1.52a.5.5,0,0,1,.2.68.51.51,0,0,1-.68.2c-1.89-1-4.2.37-6.06,1.5A6.57,6.57,0,0,1,278.23,404.85Z" style="fill:#263238"></path><path d="M277.42,448.51a.52.52,0,0,1-.29-.09.5.5,0,0,1-.11-.7l1.11-1.58a16.7,16.7,0,0,1,2.84-3.57,16.58,16.58,0,0,0-.18-2.82,19.93,19.93,0,0,1,0-6.26.5.5,0,0,1,.6-.36.51.51,0,0,1,.37.61,19.19,19.19,0,0,0,0,5.9c.25,2.33.33,3.38-.26,3.77a19.5,19.5,0,0,0-2.57,3.3c-.38.55-.77,1.11-1.12,1.6A.51.51,0,0,1,277.42,448.51Z" style="fill:#263238"></path><path d="M241.75,445.51a.54.54,0,0,1-.32-.11.51.51,0,0,1-.06-.71l3.54-4.2a.52.52,0,0,1,.19-.14,29.94,29.94,0,0,0,8.93-6,.5.5,0,1,1,.71.7,30.39,30.39,0,0,1-9.15,6.21l-3.46,4.11A.52.52,0,0,1,241.75,445.51Z" style="fill:#263238"></path><path d="M229,435.41a.51.51,0,0,1-.46-.31,20.26,20.26,0,0,1-1.6-6.23c0-2.51-.48-3.71-1.79-4.43a5.89,5.89,0,0,1-1.68-1.58,8.09,8.09,0,0,0-3.73-2.84c-2.52-1-2.75-2.8-3-4.71a10,10,0,0,0-.83-3.34.5.5,0,0,1,.24-.67.49.49,0,0,1,.66.23,11.55,11.55,0,0,1,.93,3.65c.23,1.82.4,3.14,2.37,3.91a9.17,9.17,0,0,1,4.14,3.14,5.09,5.09,0,0,0,1.38,1.33c1.92,1.06,2.31,2.89,2.31,5.31a19.72,19.72,0,0,0,1.52,5.84.5.5,0,0,1-.26.66A.51.51,0,0,1,229,435.41Z" style="fill:#263238"></path><path d="M89.61,443.49a.5.5,0,0,1-.34-.13c-.44-.4-11-9.82-12.94-12.19s-5.1-10.28-5.24-10.62a.51.51,0,0,1,.29-.65.5.5,0,0,1,.64.29c0,.08,3.17,8.05,5.08,10.34,1.77,2.12,11,10.39,12.59,11.86l10.81-5.27,9.24-2.66c1.91-1.74,7.82-6.89,9.85-6,1-.42,3.59-9,5.37-16.77a.5.5,0,1,1,1,.22c-.63,2.72-3.85,16.32-6,17.42a.84.84,0,0,1-.75.05c-1-.41-5.4,2.77-8.88,5.95a.43.43,0,0,1-.2.11l-9.27,2.66-11,5.39A.59.59,0,0,1,89.61,443.49Z" style="fill:#263238"></path><path d="M88.14,451.69a.5.5,0,0,1-.49-.42c0-.21-.75-5.15,1.54-8.56a.51.51,0,0,1,.7-.14.5.5,0,0,1,.13.7c-2.07,3.08-1.39,7.8-1.38,7.85a.51.51,0,0,1-.42.57Z" style="fill:#263238"></path><path d="M177.29,448.51a.52.52,0,0,1-.21,0,.5.5,0,0,1-.25-.66c.85-1.9,3.1-7.06,3.33-8.07.28-1.29,3.58-5.2,5.31-5.33.6-1,1.14-7.67,1.31-13.77a.55.55,0,0,1,.51-.49.5.5,0,0,1,.49.52c-.09,3.14-.47,13.46-1.69,14.55a.7.7,0,0,1-.54.19c-.87-.12-4.14,3.28-4.42,4.54s-3.26,8-3.38,8.27A.52.52,0,0,1,177.29,448.51Z" style="fill:#263238"></path><path d="M161.15,429.37a.5.5,0,0,1-.5-.48l-.17-4.87c.15-3.17.29-8.44,0-9.24s-3.07-5.64-4.11-7.37a.49.49,0,0,1,.17-.69.5.5,0,0,1,.68.17c.39.65,3.81,6.37,4.21,7.58s.07,8.71,0,9.56l.17,4.82a.5.5,0,0,1-.48.52Z" style="fill:#263238"></path><path d="M152.24,445.51a.39.39,0,0,1-.15,0,.5.5,0,0,1-.33-.62c.08-.27,2-6.69,2.81-8.67s3.56-2.87,4.18-3l7.14-6c-.18-.83-.55-3,.12-4.11a11.46,11.46,0,0,0,1.06-2.54.5.5,0,0,1,.05-.13l3.71-6.45a.49.49,0,0,1,.68-.18.51.51,0,0,1,.19.68l-3.68,6.4a12.35,12.35,0,0,1-1.15,2.74c-.44.73-.2,2.63.06,3.66a.5.5,0,0,1-.17.5L159.31,434a.54.54,0,0,1-.2.1s-2.94.76-3.61,2.47c-.77,1.93-2.76,8.52-2.78,8.59A.5.5,0,0,1,152.24,445.51Z" style="fill:#263238"></path><path d="M298.65,445.51a.49.49,0,0,1-.21,0,.5.5,0,0,1-.24-.67c.05-.12,5.43-11.67,3.93-16.43-.9-2.83.76-5.42,2.1-7.5s2-3.24,1.17-4.15c-3.58-3.92-11.35-11.68-15.15-13a25.3,25.3,0,0,1-4.07-2c-2.37-1.37-4.82-2.79-8.77-2.85-6.27-.1-37.89-1.84-43.7-2.25-2.33-.16-3.84.4-6.12,1.24-3.47,1.28-8.23,3-19.31,3.57-10.61.51-11.13.49-11.3,0-.3,0-.8,0-1.62,0-5.53.07-14,.5-17.64.69l-1.74.08c-1.63.07-28.32-2.34-29.45-2.45l-.15,0c-.23-.1-23.22-9.72-30.06-3.23-7.19,6.81-26.9,0-28.3-.54-1.22-.17-23.82-3.15-36.27.62L38.93,409.44a.48.48,0,0,1-.7,0,.49.49,0,0,1,0-.7l12.91-13a.45.45,0,0,1,.21-.12c12.92-4,36.64-.72,36.87-.68l.1,0c.21.07,20.47,7.27,27.32.77,7.18-6.8,29.36,2.29,31.06,3,9.61.88,28,2.51,29.25,2.44l1.73-.08c3.63-.19,12.13-.62,17.68-.69,2.18,0,2.6,0,2.75.37,1.57,0,6.4-.19,10.13-.37,10.93-.52,15.6-2.25,19-3.51a14,14,0,0,1,6.53-1.29c5.8.4,37.39,2.14,43.65,2.24,4.21.07,6.77,1.55,9.25,3a23.77,23.77,0,0,0,3.91,1.95c5,1.78,15.44,13.19,15.55,13.3,1.39,1.53.2,3.4-1.07,5.37s-2.74,4.27-2,6.66c1.62,5.13-3.75,16.67-4,17.16A.48.48,0,0,1,298.65,445.51Z" style="fill:#263238"></path><path d="M87.91,403.19l-3.29,3.74-8.22,3.42-11.84-3.54,3.7-7.74s-.52-4.57,4.22-4.44,11.34,0,11.34,0,2.94,4.27,2.94,4.44S87.91,403.19,87.91,403.19Z" style="fill:#fff"></path><path d="M76.4,410.85l-.14,0-11.84-3.54a.5.5,0,0,1-.32-.28.51.51,0,0,1,0-.42L67.75,399a5,5,0,0,1,1.12-3.55,4.46,4.46,0,0,1,3.62-1.3c4.69.13,11.25,0,11.32,0a.57.57,0,0,1,.42.22c2.93,4.25,3,4.52,3,4.7s.62,2.28,1.13,4a.5.5,0,0,1-.1.47L85,407.26a.59.59,0,0,1-.19.13l-8.22,3.42A.43.43,0,0,1,76.4,410.85ZM65.26,406.5l11.11,3.32,7.95-3.31,3-3.44c-.77-2.63-1-3.51-1.07-3.85s-1.49-2.3-2.72-4.09c-1.29,0-6.93.11-11.09,0a3.57,3.57,0,0,0-2.86,1,4.12,4.12,0,0,0-.85,2.91.54.54,0,0,1-.05.28Zm21-7.43Z" style="fill:#263238"></path><g style="clip-path:url(#clip-path-20)"><path d="M87.91,403.19l-3.29,3.74-8.22,3.42-11.84-3.54,3.7-7.74s-.52-4.57,4.22-4.44,11.34,0,11.34,0,2.94,4.27,2.94,4.44S87.91,403.19,87.91,403.19Z" style="fill:#92E3A9;opacity:0.4"></path><path d="M87.91,403.19l-3.29,3.74-8.22,3.42-11.84-3.54,3.7-7.74h4.22s-1.58,4.71,0,5.21,3.76,1.41,3.76,1.41v2.39l5.57-3.8L81,401.37l2.8-6.74s2.94,4.27,2.94,4.44S87.91,403.19,87.91,403.19Z" style="fill-opacity:0.7000000000000001;opacity:0.2"></path></g><path d="M194.62,412.27l-7.33,1.48s-6-2-6-2.79-4.87,1.07-4.87,1.07l-6-2.88a35.85,35.85,0,0,0,1.7-4.34c0-.45,1.51,1.35,3.12,0a10.64,10.64,0,0,1,1.68-1.11h0a27.14,27.14,0,0,1,3-1.41l.85-.23c1.65-.43,5.2-1.26,6.48-.86,1.69.54,7.43,5,7.33,6.07,0,.14,0,.34,0,.57C194.55,409.31,194.62,412.27,194.62,412.27Z" style="fill:#fff"></path><path d="M187.29,414.25a.45.45,0,0,1-.16,0c-4.94-1.63-6-2.49-6.28-3a21,21,0,0,0-4.25,1.24.51.51,0,0,1-.4,0l-6-2.88A.5.5,0,0,1,170,409a36,36,0,0,0,1.66-4.14.52.52,0,0,1,.24-.48c.3-.2.58-.05.86.1a1.77,1.77,0,0,0,2.2,0,11,11,0,0,1,1.69-1.13l.07-.05a28.19,28.19,0,0,1,3.08-1.44l.9-.24c1.94-.51,5.38-1.28,6.76-.86s7.82,5.06,7.68,6.6c0,.12,0,.32,0,.54,0,1.44,0,4.38,0,4.41a.49.49,0,0,1-.4.5l-7.33,1.48Zm-5.5-3.39c.42.47,3.13,1.57,5.53,2.37l6.79-1.37c0-.87-.05-2.89,0-4,0-.25,0-.45,0-.59-.17-.88-5.39-5.06-7-5.56-.81-.25-3.18.08-6.2.86l-.85.23h0a27.46,27.46,0,0,0-2.83,1.33l-.08.05a9.44,9.44,0,0,0-1.6,1.06,2.62,2.62,0,0,1-3.08.23q-.33,1.05-1.41,3.48l5.35,2.58c4.31-1.62,4.89-1.21,5.08-1.07A.69.69,0,0,1,181.79,410.86Zm0,.12Z" style="fill:#263238"></path><g style="clip-path:url(#clip-path-21)"><path d="M194.62,412.27l-7.33,1.48s-6-2-6-2.79-4.87,1.07-4.87,1.07l-6-2.88a35.85,35.85,0,0,0,1.7-4.34c0-.45,1.51,1.35,3.12,0a10.64,10.64,0,0,1,1.68-1.11h0a27.14,27.14,0,0,1,3-1.41l.85-.23c1.65-.43,5.2-1.26,6.48-.86,1.69.54,7.43,5,7.33,6.07,0,.14,0,.34,0,.57C194.55,409.31,194.62,412.27,194.62,412.27Z" style="fill:#92E3A9;opacity:0.4"></path><path d="M194.62,412.27l-7.33,1.48s-6-2-6-2.79-4.87,1.07-4.87,1.07l-6-2.88a35.85,35.85,0,0,0,1.7-4.34l1.81,3.54,5.71-.93-2.72-3.72h0a27.14,27.14,0,0,1,3-1.41l.85-.23,1.72,4,4.76,3.07,7.3-1.32C194.55,409.31,194.62,412.27,194.62,412.27Z" style="fill-opacity:0.7000000000000001;opacity:0.2"></path></g><path d="M138.44,408.43c-2.42-3.85-7.58,1.32-7.58,1.32s.16-.29-1.8,0-3.42.31-4.48,2-.79,6.08,0,6.26a2.12,2.12,0,0,1,1.49,2.36c-.17,1.25-1.18,1-.62,3l.56,2,.34,19.7,1.16-18.47s2.55,1.35,2.45-1.92a10.85,10.85,0,0,1,.9-5.12l2.16-2.9v10.77l1.58-11.29S140.42,411.59,138.44,408.43Z" style="fill:#92E3A9"></path><path d="M138.44,408.43c-2.42-3.85-7.58,1.32-7.58,1.32s.16-.29-1.8,0-3.42.31-4.48,2-.79,6.08,0,6.26a2.12,2.12,0,0,1,1.49,2.36c-.17,1.25-1.18,1-.62,3l.56,2,.34,19.7,1.16-18.47s2.55,1.35,2.45-1.92a10.85,10.85,0,0,1,.9-5.12l2.16-2.9v10.77l1.58-11.29S140.42,411.59,138.44,408.43Z" style="fill:#fff;opacity:0.4"></path><path d="M219.53,407.26c-.75-2.85-6.93.84-6.93.84s-3.49-2.68-4.35-.57,2.84,5.8,2.84,5.8-.27,12.92.79,10.72.79-10.72.79-10.72a2.29,2.29,0,0,1,1.83,2c.28,1.73-.27,1.66,0,3.41s-.67,5.35,0,7a7,7,0,0,1,.05,4.25c-.16.16-.05,13.11-.05,13.11l5.89-4.61-1.8-10.8v-6.27L217.42,430l-1.06-7.82v-9.88S220.85,412.26,219.53,407.26Z" style="fill:#92E3A9"></path><path d="M219.53,407.26c-.75-2.85-6.93.84-6.93.84s-3.49-2.68-4.35-.57,2.84,5.8,2.84,5.8-.27,12.92.79,10.72.79-10.72.79-10.72a2.29,2.29,0,0,1,1.83,2c.28,1.73-.27,1.66,0,3.41s-.67,5.35,0,7a7,7,0,0,1,.05,4.25c-.16.16-.05,13.11-.05,13.11l5.89-4.61-1.8-10.8v-6.27L217.42,430l-1.06-7.82v-9.88S220.85,412.26,219.53,407.26Z" style="fill:#fff;opacity:0.4"></path><path d="M222.43,437.53v5.86s-6.05,5-6.59,4.1a27.3,27.3,0,0,1-1.54-6.07l0-.21c-.27-1.9,3.16-7.06,3.16-7.19Z" style="fill:#fff"></path><path d="M216,448.1h-.12a.74.74,0,0,1-.51-.34,27.83,27.83,0,0,1-1.6-6.25l0-.17c-.22-1.56,1.44-4.56,2.9-7,.14-.23.24-.4.28-.48a.52.52,0,0,1,.24-.27.51.51,0,0,1,.52,0l5,3.5a.52.52,0,0,1,.21.41v5.86a.5.5,0,0,1-.18.39C221.15,445.1,217.38,448.1,216,448.1Zm1.55-13.35-.05.1c-2,3.27-2.9,5.39-2.77,6.29l0,.21a29.5,29.5,0,0,0,1.4,5.74c.8-.17,3.48-2.09,5.73-3.93v-5.37Z" style="fill:#263238"></path><g style="clip-path:url(#clip-path-22)"><path d="M222.43,437.53v5.86s-6.05,5-6.59,4.1a27.3,27.3,0,0,1-1.54-6.07l0-.21c-.27-1.9,3.16-7.06,3.16-7.19Z" style="fill:#92E3A9;opacity:0.4"></path><path d="M222.43,437.53v5.86s-6.05,5-6.59,4.1a27.3,27.3,0,0,1-1.54-6.07l4,2Z" style="fill-opacity:0.7000000000000001;opacity:0.2"></path></g><path d="M130,437.38c-.69,1.53-.1,6.65-.9,7.63s-3.42,3.51-3.61,3-2.45-4.5-3.22-5,2.62-10.56,3.22-11.09C125.45,431.9,130.65,435.86,130,437.38Z" style="fill:#fff"></path><path d="M125.52,448.57h-.07a.61.61,0,0,1-.47-.39,26.33,26.33,0,0,0-3-4.78.87.87,0,0,1-.33-.69c-.12-1.84,2.74-10.52,3.5-11.18a.5.5,0,0,1,.63,0c1.3,1,5.46,4.34,4.67,6.08h0a13.1,13.1,0,0,0-.36,3.63c-.06,2.16-.12,3.52-.61,4.12C129.42,445.36,126.6,448.57,125.52,448.57Zm.39-.75h0Zm-3.29-5.16a25.1,25.1,0,0,1,3.12,4.8,18.62,18.62,0,0,0,2.93-2.77c.31-.37.35-2.19.39-3.51a12.88,12.88,0,0,1,.44-4h0c.27-.58-1.53-2.64-3.92-4.54C124.71,434.44,122.45,441.53,122.62,442.66Z" style="fill:#263238"></path><g style="clip-path:url(#clip-path-23)"><path d="M130,437.38c-.69,1.53-.1,6.65-.9,7.63s-3.42,3.51-3.61,3-2.45-4.5-3.22-5,2.62-10.56,3.22-11.09C125.45,431.9,130.65,435.86,130,437.38Z" style="fill:#92E3A9;opacity:0.4"></path><path d="M130,437.38c-.69,1.53-.1,6.65-.9,7.63s-3.42,3.51-3.61,3-2.45-4.5-3.22-5h3.22l.9-3.15Z" style="fill-opacity:0.7000000000000001;opacity:0.2"></path></g></g><g id="Shadow"><path d="M269.69,381.59c-4.22-5.48,0-10,.6-15.79l-8-10.52L259,371.75l-15.6-43.92-4.85-40.53-6.62,16.46L229,255.25l2.9-10.32V230l6.62-7.81,3.2,42.11,4.37,26.81,2-20.83,10.58,23.12.34,21L266.15,339c-1.95-13.57-3.14-27.3-.34-40.64a18.62,18.62,0,0,0,.5-3.15,19.45,19.45,0,0,0-.49-4,61.53,61.53,0,0,1-.93-15.16c.44-4.29,2.87-5.9,4.55-9.69,1.17-2.66.5-5.49,2.83-7.79.59-.58,1.32-1.15,1.43-2a3.49,3.49,0,0,0-1.09-2.41,13.26,13.26,0,0,1-2.39-10.69c.91-4.19,3.88-8,3.3-12.3-.51-3.72-2.82-7.06-3.58-10.75-1-4.8-1.13-10-1.68-14.87-.77-6.79-1.77-13.78-1.93-20.62-.1-4.12,2.54-10.6,1.12-14.12-7.87-19.53-1.65-39.43-3.4-59.4a5.51,5.51,0,0,1,.15-2.43c.65-1.69,2.87-2.59,3-4.39.11-1.45-1.22-2.55-2.06-3.73-2-2.77-1.13-7.94-2-11.3-1.21-4.55-3.23-8.76-3.86-13.49-.59-4.5-.08-9.07.13-13.62L259,61.36l-7.79,18.25V92.8L245,88.21l-4.19-12.55-8-9-7.06,16.75V74.61L203.2,87.18l-3.11,15.22,8.16,19.06-14.09,15.1s-4.7-15.08-3.54-18.48S183.29,86,183.29,86l-1.78,17.62-4.22,10.54,2,11.45-6.9,13-1.16-10.78-14.44-18.66,4,17.35-9.66,18.71-4.54-5.34L144,109.16,137,134l2.51,13.27-5.46,19.27-3.22-1.33L125,186.12l-3.14-3.57-9.2,8.66-5.74-19.37L106.83,194l-6.11,12,6.11,16.15s4.3,11.68,5,13.83,2.12-8.48,2.12-8.48L120,241l2.26-12.65,6.83-3.77,6.63-15.87,2.75,12,2.21-19.61L155,181.68l-1.12,27-7.34,15.87v23.33L134.43,276.2l-1.27-11.93-5.65,21.05s-1.35,22.1-1.16,24-12.43,24.31-12.43,24.31l-3.42-11.88-3.67,33.17-6.11,11.17L93.3,397c6.61,1.74,17.79,3.74,22.67-.9,7.16-6.78,30.6,3.13,30.6,3.13l3.92.36L146.57,385l5.67-12-1.44-9.34,6-36.35s1,8.62,2.36,11.32,12.08,22.66,12.08,22.66l4.7-18.83L173,325.62l7.61-38.77s1.69,4.74,4.78,11.17.08,5.44,0,15.45,12.35,21.26,12.35,21.26l5.42-34.47,5.05,20s6.53,13.24,7.49,14.8-.17,55.4,0,59.06,6.94-4.5,6.94-4.5l2.75,8.39c3.44-1.17,5.22-2.19,8.31-2,5.75.41,34.24,2,42.49,2.22a28.08,28.08,0,0,0-3-6.36C269.06,385.54,274.12,387.33,269.69,381.59Z" style="fill-opacity:0.7000000000000001;opacity:0.2"></path><path d="M88.14,395.4s1.86.67,4.65,1.42l-3.11-24.23-1.48-7-6.89-13.71,2.09-16.75-6.27-9.47s-4-19-4.11-21.26-1.69-21,1.29-23.78S66.61,260,66.61,260l-8.3,57.94s6.53,22.57,10.57,23.31,0,9.53,0,9.53L58.31,374.09l3.41,20.26C74.1,393.43,88.14,395.4,88.14,395.4Z" style="fill-opacity:0.7000000000000001;opacity:0.2"></path><path d="M208.25,381.59c3-3.37-10.34-30.85-10.34-30.85l-3.75,12L190.62,373l-3.34,12.92-6.63-23.18-4.07,38.9c2.84-.14,12.57-.66,18.77-.74,6.68-.09-5.16.85,12.22,0C207,392.76,206.64,383.42,208.25,381.59Z" style="fill-opacity:0.7000000000000001;opacity:0.2"></path><path d="M237.22,396.29s-3.71,2.61-3.45,2.79,2.37,1.79,2.37,1.79l-.65.77,6.91,2s4.67,5.69,4.55,6.08,3.15,2.29,3.56,2.07,3.9-1,4.52-1.94,3.66-2.58,5.11-2.81,3-5.31,3-5.31,2.41,0,2.35-.41,4.17-3.27,4.17-3.27Z" style="opacity:0.30000000000000004"></path><path d="M96.63,397.68s2.43,1,1.87,3.19,0,1.94,0,1.94,8.91,3.82,11.49,3.37,9.06,1,9.06,1l12.32-2.81s-1.75-3-.51-3.18,5.19.26,6.78-.29a24.69,24.69,0,0,0,4.22-2.38,71.76,71.76,0,0,0-14.35-4.34c-7.15-1.22-14.87,3.86-14.87,3.86a8.71,8.71,0,0,1-4.83,1.07C105.07,398.87,96.63,397.68,96.63,397.68Z" style="opacity:0.30000000000000004"></path></g><g id="Character"><path d="M192.94,193.51c-6-2.3-13.65-2.57-10.82-13.13S200.67,140,205.82,140s31.8,7.2,34.44,10.29,4,22.25-3.75,32.5S222.3,204.85,192.94,193.51Z" style="fill:#263238"></path><path d="M196.8,205.23s-20.09-9.4-25-6.82-14.17,13.39-10.57,16.48c0,0-5.15,11.85.78,14.43s37.59,16.34,43.79,7.21S218.19,212.44,196.8,205.23Z" style="fill:#263238"></path><path d="M220.79,220.45v19.78s13.26,40.71,16.92,61.91c0,0,9.06,18.49,12,35.3s4.66,42,4.66,42H242.28s-3.44-20.93-9.13-35.95a188.23,188.23,0,0,1-7.76-24.66s-9.9-16.92-14.16-23.33c-11.14-16.75-20-39.29-20-39.29l-2.81,0c-5.64,7.69-21.95,35.66-28.42,43.71-4.89,6.07-8.25,15.62-14.94,34.44s-17.52,28-25.25,45.06H106.9s6.19-13.2,11.34-35.95,15.64-28.35,16.48-38.41c1.81-21.58,16-46.89,18-58.89s12.37-31.15,29.37-38.06Z" style="fill:#757575"></path><path d="M254.39,380H242.28a.49.49,0,0,1-.49-.42c0-.21-3.5-21.05-9.11-35.86A196.14,196.14,0,0,1,224.92,319c-.69-1.18-10-17.13-14.11-23.25-10.33-15.51-18.82-36.25-19.95-39.05h-2.22c-2.45,3.39-6.83,10.41-11.46,17.84-6.15,9.89-13.13,21.09-16.82,25.68-4.76,5.92-8,15.13-14.57,33.48l-.29.82c-3.77,10.57-8.92,18.27-13.89,25.71a131.61,131.61,0,0,0-11.37,19.39.5.5,0,0,1-.46.29H106.9a.48.48,0,0,1-.42-.23.51.51,0,0,1,0-.48c.06-.13,6.22-13.43,11.3-35.85,2.92-12.9,7.5-20.24,11.17-26.14,2.77-4.43,5-7.93,5.31-12.21,1.11-13.3,7-28.17,11.65-40.12,3-7.63,5.59-14.22,6.38-18.81,1.88-11,11.6-31.09,29.67-38.43a.5.5,0,0,1,.34,0L220.94,220a.49.49,0,0,1,.35.47v19.7c.65,2,13.34,41.26,16.9,61.83.59,1.23,9.18,19.19,12,35.37,2.93,16.64,4.64,41.83,4.65,42.08a.46.46,0,0,1-.13.37A.46.46,0,0,1,254.39,380Zm-11.68-1h11.14c-.26-3.73-1.92-26.19-4.61-41.43-2.92-16.54-11.89-35-12-35.17a.33.33,0,0,1,0-.14c-3.61-20.92-16.77-61.43-16.9-61.84a.4.4,0,0,1,0-.15V220.82l-38.15-12.14c-17.58,7.25-27,26.9-28.89,37.61-.81,4.69-3.42,11.33-6.44,19-4.67,11.89-10.49,26.68-11.59,39.84-.38,4.51-2.62,8.11-5.45,12.65-3.64,5.84-8.16,13.1-11,25.83-4.45,19.61-9.72,32.3-11,35.34h11.78a135.22,135.22,0,0,1,11.31-19.24c4.95-7.39,10.06-15,13.79-25.49l.28-.81c6.57-18.46,9.87-27.73,14.74-33.77,3.66-4.55,10.61-15.73,16.75-25.58,4.74-7.6,9.21-14.78,11.65-18.12a.51.51,0,0,1,.4-.2l2.82,0h0a.5.5,0,0,1,.46.32c.09.23,9,22.68,20,39.19,4.23,6.35,14.09,23.19,14.18,23.36a.47.47,0,0,1,.06.15,190.44,190.44,0,0,0,7.74,24.58C238.82,357.06,242.18,375.92,242.71,379Z" style="fill:#263238"></path><g style="clip-path:url(#clip-path-24)"><path d="M263.33,372.43l-9.3,2.15-12.11,2.81c-1-5.65-4.16-21.7-8.77-33.88a188.23,188.23,0,0,1-7.76-24.66s-9.9-16.92-14.16-23.33c-11.14-16.75-20-39.29-20-39.29l-2.81,0c-5.64,7.69-21.95,35.66-28.42,43.71-4.89,6.07-8.25,15.62-14.94,34.44-5.13,14.4-12.66,23.17-19.38,34.12l-4.23-1.85L134.08,340l-1.59,8.07s6.27-4.91,7.49-8.66,7.16-19.22,7.34-19.71c-.3.11-5.48,2-6.67,0s-1.6-8.85-1.6-8.85,4.79,4.5,7.52,3.77,7.09-9.17,7.09-9.3-.59-6.62-.59-6.62l6.11-9.53s-1.21,5.34,0,5.34,18.3-24.34,20.14-29.38a61.88,61.88,0,0,1,4-8.75S178,249.2,173,247.42s5.57-1.23,9.07,3.83c-.18-.4-3.14-6.89-6.15-9.77s2.79-4.48,4.69-1.44,7.58,11.23,7.58,11.23,7.92-2.67,7.54-2.67-5.8-1.8-7.54-3.67,9,.71,16.07-2.06-7.72,8.4-7.72,8.4l-1.23.8s2.93-.13,7.67-2.85-2.93,3.79-2.93,3.79,2,.85,6,0-3.06,4.65-3.06,4.65,5.48.93,4.27,4,2.94,26.46,10.66,35,7.47,15.82,11.05,19.19,8.46,1.89,8.13-8.31c0,0,2.78,9.69,1.79,19.19s3.48,18.39,3.48,18.39v-4.75l3.73,7.68,5.25.44a66.62,66.62,0,0,1,7.25.8C257.9,349.48,263.33,372.43,263.33,372.43Z" style="opacity:0.2"></path></g><path d="M243.88,155.57c12.11,5.35,14,9.13,14.21,14.71s-1.76,32.14,0,39.34,3.05,13.58,3.31,18.74c.55,10.7,0,14.17.15,22.47a38.55,38.55,0,0,0,1.78,9.52l-5.24,4.76S250,241,248.5,236a53.47,53.47,0,0,1-2.43-17.72s.12-5,0-8.64-4-23.94-4-23.94Z" style="fill:#fff"></path><path d="M258.09,265.61H258a.49.49,0,0,1-.35-.33c-.08-.24-8.09-24.16-9.6-29.15a54.47,54.47,0,0,1-2.45-17.9s.11-5,0-8.59-4-23.65-4-23.86a.49.49,0,0,1,0-.12l1.86-30.11a.5.5,0,0,1,.24-.4.52.52,0,0,1,.47,0c12,5.32,14.27,9.13,14.5,15.15.07,1.78-.08,5.56-.26,10.33-.4,10.15-.94,24,.25,28.91,2.06,8.42,3.09,14.23,3.32,18.84.35,6.72.28,10.56.2,14.61,0,2.36-.09,4.79-.05,7.87a38.14,38.14,0,0,0,1.76,9.38.48.48,0,0,1-.14.52l-5.24,4.76A.47.47,0,0,1,258.09,265.61Zm-15.57-80c.29,1.46,3.93,20.4,4,23.95s0,8.62,0,8.67A53.57,53.57,0,0,0,249,235.83c1.36,4.48,8,24.34,9.34,28.4l4.44-4a37.64,37.64,0,0,1-1.71-9.36c0-3.1,0-5.54.05-7.91.07-4,.15-7.85-.2-14.54-.23-4.55-1.25-10.3-3.29-18.65-1.23-5-.68-19-.28-29.19.18-4.56.33-8.51.26-10.25-.21-5.49-2.27-9-13.25-14Z" style="fill:#263238"></path><path d="M182.12,208.15S192.42,149,201.18,144s42.7,11.62,42.7,11.62c1.86,1.52,1.86,11.24,1.86,11.24s3.79,16.81-.77,25.67c-4.8,9.33-15.46,10.92-24.18,28,0,0-2.69,4.59-17.61,0C187,215.47,182.12,208.15,182.12,208.15Z" style="fill:#92E3A9"></path><path d="M214.35,223a39.49,39.49,0,0,1-11.32-2c-16.21-5-21.13-12.2-21.33-12.5a.48.48,0,0,1-.07-.37c.42-2.42,10.44-59.44,19.3-64.54s41.78,10.91,43.17,11.6l.1.06c2,1.6,2,10.32,2,11.57.28,1.25,3.68,17.21-.83,26-2.08,4-5.2,6.64-8.81,9.63-4.87,4-10.39,8.62-15.36,18.34C221.15,220.83,219.8,223,214.35,223ZM182.65,208c.81,1.07,6.14,7.48,20.67,11.95,14.22,4.36,17,.26,17.05.21,5-9.87,10.65-14.52,15.6-18.62,3.52-2.92,6.56-5.45,8.55-9.32,4.43-8.59.77-25.17.73-25.33s0-.07,0-.11c0-3.63-.45-9.72-1.63-10.82-1.59-.77-33.92-16.36-42.18-11.61S183.33,204.18,182.65,208Z" style="fill:#263238"></path><g style="clip-path:url(#clip-path-25)"><path d="M247.2,181.73c-.1,3.86-.69,7.76-2.23,10.75-4.8,9.33-15.46,10.92-24.18,28,0,0-2.69,4.59-17.61,0-16.23-5-21.06-12.3-21.06-12.3s2.82-16.22,6.77-32.4l6.88-3s5.16,6.44,7.12,11.59,8.73,5.72,10.26,5.14,9.34-1,12.62,0-4.66,3.55-2.89,4.74,8.32,2.37,14.83,0,5.36-11.43,6.46-17.76C244.17,176.45,245.61,178.91,247.2,181.73Z" style="opacity:0.2"></path></g><path d="M242.32,97.14s12.17-1.4,15.17,3.82,5.6,18.54,4.54,28.3S257.68,142,257.68,142s-6.24-4.36-10.72-3.86-5.22,2.6-12.08,1-10.72-1-13.71.29-8-1.75-8-1.75,3.38-9.84,2.22-18.2S213.44,90.52,242.32,97.14Z" style="fill:#263238"></path><path d="M248.06,141.71a6.09,6.09,0,0,0-3.83.74,7.72,7.72,0,0,0-1,.77,56.77,56.77,0,0,0-7.59,8.56c2.83,1.22,4.68,2.08,4.68,2.08s-1,12.07-12.77,8-11.76-17.14-11.76-17.27c1.48.38,3,.84,4.6,1.34,9.26-7.13,5.87-15.73,5.87-15.73,16.53-15.49,20.52-1.3,21.52,6.84.06.48.11.93.13,1.36C248,140.05,248.05,141.27,248.06,141.71Z" style="fill:#fff"></path><path d="M232,163.21a14,14,0,0,1-4.61-.86c-12-4.12-12.1-17.18-12.1-17.74a.51.51,0,0,1,.63-.48c1.3.34,2.74.75,4.37,1.27,8.59-6.77,5.64-14.67,5.51-15a.49.49,0,0,1,.12-.55c6.2-5.81,11.31-8,15.18-6.65,4.75,1.72,6.52,8.46,7.17,13.8.06.49.11.95.14,1.39.16,1.66.19,2.9.2,3.31a.55.55,0,0,1-.16.38.46.46,0,0,1-.39.13,5.68,5.68,0,0,0-3.52.66,8.63,8.63,0,0,0-1,.73,54.72,54.72,0,0,0-7.13,8c2.48,1.07,4.09,1.82,4.11,1.83a.48.48,0,0,1,.28.49c0,.23-.49,5.54-4.34,8A8,8,0,0,1,232,163.21Zm-15.68-17.94c.16,2.69,1.44,12.71,11.39,16.14,3.38,1.16,6.14,1.06,8.22-.29,2.91-1.91,3.68-5.78,3.85-7-.66-.29-2.23-1-4.34-1.92a.5.5,0,0,1-.29-.33.54.54,0,0,1,.09-.43c1.77-2.33,5.11-6.56,7.67-8.65A9.75,9.75,0,0,1,244,142a6.31,6.31,0,0,1,3.57-.84c0-.6-.06-1.55-.17-2.71,0-.44-.08-.88-.14-1.35-.62-5.06-2.25-11.43-6.52-13-3.44-1.25-8.12.85-13.92,6.22.51,1.69,2.28,9.5-6.14,16a.5.5,0,0,1-.46.08C218.74,146,217.45,145.59,216.27,145.27Z" style="fill:#263238"></path><path d="M248.06,141.71a6.09,6.09,0,0,0-3.83.74,7.72,7.72,0,0,0-1,.77,17.92,17.92,0,0,1-1.16-6.66l5.84,1.86C248,140.05,248.05,141.27,248.06,141.71Z" style="fill:#263238"></path><path d="M225.6,131.43c-1.53-2-5.55-9-6.2-11.64-4-16.45,5-17.65,11.74-21,12.74-6.32,24.33,6.5,23.34,17.91s4.38,10.06,4.14,11.63C258.41,129.67,255,131,255,131a16.54,16.54,0,0,0,.09,2.89l-.83.78c-.45,2.16-1.45,7.64-2.16,7.85-1.43.43-9.42-2.36-10.73-5.32" style="fill:#fff"></path><path d="M251.69,143.09c-2.53,0-9.52-2.79-10.79-5.66a.5.5,0,0,1,.25-.66.49.49,0,0,1,.66.26c1.2,2.69,8.66,5.33,10.07,5.06.51-.65,1.37-5,1.7-6.6l.17-.89a.65.65,0,0,1,.15-.27l.65-.6a18,18,0,0,1-.06-2.74.52.52,0,0,1,.32-.43c1.27-.5,3.21-1.58,3.32-2.29,0-.09-.23-.24-.59-.45-1.5-.89-4.3-2.56-3.56-11.15a18.89,18.89,0,0,0-8-16.46,14,14,0,0,0-14.62-.95c-.89.44-1.83.85-2.73,1.25-6.23,2.7-12.11,5.26-8.75,19.16.63,2.59,4.64,9.57,6.11,11.46a.5.5,0,0,1-.08.7.5.5,0,0,1-.7-.09c-1.56-2-5.63-9.09-6.3-11.84-3.56-14.71,3.28-17.69,9.32-20.31.89-.39,1.82-.8,2.68-1.22a15,15,0,0,1,15.63,1A19.66,19.66,0,0,1,255,116.76c-.69,8,1.76,9.42,3.07,10.2.58.34,1.18.7,1.06,1.47-.21,1.35-2.65,2.52-3.63,2.94a16.65,16.65,0,0,0,.09,2.49.49.49,0,0,1-.15.43l-.72.66-.14.73c-1.11,5.56-1.61,7.13-2.33,7.35A2.06,2.06,0,0,1,251.69,143.09Zm.16-1Z" style="fill:#263238"></path><path d="M253.24,121.53c-.12.83-.59,1.45-1.05,1.38s-.76-.78-.64-1.61.58-1.45,1-1.39S253.35,120.7,253.24,121.53Z" style="fill:#263238"></path><path d="M254.48,117.22a.49.49,0,0,1-.28-.09c-1.2-.8-3.16-1.64-3.54-1.07a.5.5,0,1,1-.84-.56c1.1-1.63,4.3.38,4.94.8a.5.5,0,0,1,.14.69A.51.51,0,0,1,254.48,117.22Z" style="fill:#263238"></path><path d="M249.47,98.87c-5.89-4.49-38.56-9.1-33.12,16.75-.73,3.2,2.07,24,2.07,24,5.64,1.52,11.12-2.89,14.92-.51,0,0-2.71-14.28,6.45-15.8,0,0,.63-4.35,1.27-5.06,7-1.84,10-9.66,9.86-13.13C251.58,104.16,254.33,102.57,249.47,98.87Z" style="fill:#263238"></path><path d="M251.11,135.2a.5.5,0,0,1-.47-.35.5.5,0,0,1,.31-.63,4.68,4.68,0,0,1,3.54,0,.5.5,0,0,1-.48.88,3.65,3.65,0,0,0-2.74,0Z" style="fill:#263238"></path><path d="M239.79,123.31s-1.45-5.27-5.28-3.49-.47,6.84,1.42,9.24a2.39,2.39,0,0,0,4.33-.67" style="fill:#fff"></path><path d="M237.9,130.71a3,3,0,0,1-2.36-1.34c-1.77-2.24-3.75-5.41-3.18-7.77a3.25,3.25,0,0,1,1.94-2.23,3.53,3.53,0,0,1,3.08-.11c2.05.94,2.85,3.8,2.89,3.92a.5.5,0,0,1-1,.27s-.72-2.54-2.34-3.29a2.58,2.58,0,0,0-2.24.11,2.28,2.28,0,0,0-1.39,1.56c-.5,2.08,1.66,5.23,3,6.92a1.92,1.92,0,0,0,1.88.93,2.31,2.31,0,0,0,1.58-1.41.5.5,0,1,1,1,.25,3.34,3.34,0,0,1-2.35,2.14A2.57,2.57,0,0,1,237.9,130.71Z" style="fill:#263238"></path><path d="M231.9,156.07a.5.5,0,0,1-.44-.27.49.49,0,0,1,.21-.67c1.54-.82,3.48-3.6,3.5-3.63a.5.5,0,0,1,.7-.13.51.51,0,0,1,.13.7c-.09.12-2.1,3-3.87,3.94A.46.46,0,0,1,231.9,156.07Z" style="fill:#263238"></path><g style="opacity:0.2"><path d="M222.88,115.88a.51.51,0,0,1-.5-.49.5.5,0,0,1,.49-.51,41.75,41.75,0,0,0,5.74-.59.49.49,0,0,1,.58.41.48.48,0,0,1-.41.57,40.61,40.61,0,0,1-5.88.61Z" style="fill:#fff"></path><path d="M231.87,114.56a.51.51,0,0,1-.14-1c6-1.69,13-6.09,14.73-13.39a.5.5,0,0,1,1,.23c-1.88,7.72-9.2,12.36-15.43,14.13Z" style="fill:#fff"></path><path d="M224.16,106.89h-.11a14.41,14.41,0,0,1-4-1.45.5.5,0,1,1,.48-.88,13.42,13.42,0,0,0,3.68,1.35.52.52,0,0,1,.39.6A.5.5,0,0,1,224.16,106.89Z" style="fill:#fff"></path><path d="M227.66,107.25c-.43,0-.85,0-1.26,0a.5.5,0,0,1-.47-.53.52.52,0,0,1,.53-.47,22.23,22.23,0,0,0,9.43-1.61.5.5,0,0,1,.64.29.51.51,0,0,1-.28.65A24.16,24.16,0,0,1,227.66,107.25Z" style="fill:#fff"></path><path d="M238.23,104.65a.5.5,0,0,1-.46-.29.49.49,0,0,1,.24-.66,30.65,30.65,0,0,0,4.71-2.68.5.5,0,1,1,.57.82,32.52,32.52,0,0,1-4.85,2.77A.52.52,0,0,1,238.23,104.65Z" style="fill:#fff"></path><path d="M226.76,135.8a.51.51,0,0,1-.5-.44,18.47,18.47,0,0,1,0-4.52.5.5,0,0,1,.55-.44.5.5,0,0,1,.44.55,18.56,18.56,0,0,0,0,4.28.49.49,0,0,1-.43.56Z" style="fill:#fff"></path><path d="M227.05,129.4H227a.5.5,0,0,1-.4-.58,43.61,43.61,0,0,1,2.73-9.14.5.5,0,0,1,.66-.26.49.49,0,0,1,.26.65,42.82,42.82,0,0,0-2.67,8.93A.49.49,0,0,1,227.05,129.4Z" style="fill:#fff"></path><path d="M217.79,135.2h-.07a.49.49,0,0,1-.42-.56c.83-6.09,5-13.17,5.15-13.47a.51.51,0,0,1,.69-.18.51.51,0,0,1,.17.69c0,.07-4.21,7.2-5,13.1A.51.51,0,0,1,217.79,135.2Z" style="fill:#fff"></path></g><path d="M208.39,143c-9.27-4.21-19.7,1.58-30.52,3.9S147,154,145,155.65s-7.73,12.25-12.37,22.61a198.28,198.28,0,0,1-10.82,20.36l6.57,3.57s13.14-18.67,18.16-23.46,7.34-11.92,7.34-11.92a77.34,77.34,0,0,0,10-.24c9.9-.79,15.46-4.78,18.17-4.23,8.5,1.75,9.09,4.47,9.09,4.47l-1.57,6S196,171.42,203,164,208.39,143,208.39,143Z" style="fill:#fff"></path><path d="M128.41,202.69a.53.53,0,0,1-.24-.06l-6.57-3.58a.48.48,0,0,1-.24-.31.54.54,0,0,1,.06-.39,201.7,201.7,0,0,0,10.79-20.29c4.66-10.41,10.49-21.06,12.49-22.79,2.23-1.93,25.2-7.18,33.06-8.87,2.92-.62,5.84-1.51,8.67-2.37,7.84-2.39,15.24-4.65,22.17-1.5a.49.49,0,0,1,.29.4c.06.56,1.49,13.88-5.54,21.4s-13.34,8.87-13.61,8.92a.48.48,0,0,1-.46-.14.51.51,0,0,1-.13-.47l1.54-5.81c-.22-.43-1.6-2.54-8.67-4-1-.21-2.65.37-4.9,1.16A48.79,48.79,0,0,1,164,167.07a85.5,85.5,0,0,1-9.72.26,32.69,32.69,0,0,1-7.34,11.76c-4.93,4.7-18,23.2-18.1,23.39A.52.52,0,0,1,128.41,202.69Zm-5.87-4.26,5.72,3.11c1.91-2.71,13.29-18.72,18-23.17,4.87-4.65,7.18-11.65,7.21-11.72a.52.52,0,0,1,.51-.34,78.51,78.51,0,0,0,10-.24,48.47,48.47,0,0,0,12.88-3c2.4-.85,4.13-1.46,5.43-1.2,8.57,1.77,9.41,4.54,9.48,4.85a.49.49,0,0,1,0,.24l-1.34,5.1c1.91-.62,6.94-2.7,12.27-8.4,6.17-6.59,5.47-18.35,5.3-20.32-6.51-2.81-13.65-.64-21.2,1.66-2.85.87-5.79,1.77-8.75,2.4-12.13,2.6-30.88,7.14-32.62,8.65s-7.7,12.31-12.23,22.43A200.51,200.51,0,0,1,122.54,198.43Z" style="fill:#263238"></path><path d="M217.52,145.1s-.59,25.38-29,32.23c0,0-1.13-1.59,1.36-5.49,0,0,14.27-5.71,18.52-28.85C208.39,143,216.21,142.92,217.52,145.1Z" style="fill:#263238"></path><path d="M240.27,153.86s1.57,10.42,1.75,16.79,7,12.9,0,26.06c0,0,6.3-7.13,6-16.4s-.76-18.85-2.15-23.82Z" style="fill:#263238"></path><path d="M180.65,205.23s8.18,8.12,24.16,13.33,16.57.77,16.57.77l1.5,1-.77,5.7s-6.88,4-20.35-1-23.12-13-24.47-15.67Z" style="fill:#263238"></path><path d="M197.83,222.76l1.5-4.81a1,1,0,0,1,1.3-.69l6.89,2.15a1,1,0,0,1,.68,1.32l-1.55,4.57a1,1,0,0,1-1.26.66l-6.85-1.89A1,1,0,0,1,197.83,222.76Z" style="fill:#fff"></path><path d="M205.66,226.5a2,2,0,0,1-.41-.05l-6.84-1.9a1.5,1.5,0,0,1-.94-.75,1.54,1.54,0,0,1-.12-1.19l1.5-4.81a1.56,1.56,0,0,1,1.93-1l6.89,2.15a1.51,1.51,0,0,1,.91.77,1.54,1.54,0,0,1,.09,1.19l-1.55,4.57A1.55,1.55,0,0,1,205.66,226.5Zm-5.34-8.79a.56.56,0,0,0-.52.38l-1.49,4.81h0a.54.54,0,0,0,.37.68l6.84,1.9a.53.53,0,0,0,.65-.34l1.55-4.57a.51.51,0,0,0,0-.42.54.54,0,0,0-.32-.27l-6.89-2.14A.45.45,0,0,0,200.32,217.71Zm-2.49,5h0Z" style="fill:#263238"></path><path d="M189.21,256.86a5.1,5.1,0,0,1-2.14-.41.49.49,0,0,1-.24-.66.5.5,0,0,1,.66-.25c1.44.66,4.51.47,8.45-2.23,6.62-4.54,10.81-7.09,12.45-7.6a.5.5,0,0,1,.3,1c-1.51.46-5.83,3.11-12.19,7.47A13.36,13.36,0,0,1,189.21,256.86Z" style="fill:#263238"></path><path d="M185.6,253.06a.51.51,0,0,1-.43-.23c-.08-.13-7.9-12.67-12.37-15.09a.5.5,0,0,1,.48-.88c4.7,2.55,12.41,14.92,12.74,15.44a.5.5,0,0,1-.16.69A.48.48,0,0,1,185.6,253.06Z" style="fill:#263238"></path><path d="M148.12,252.56s6.95-.06,8.5,1.49-6.44,26.78-8.5,26.53-7.47-4.12-7.47-4.12L145,260.74S143,261.09,148.12,252.56Z" style="fill:#263238"></path><path d="M154,258.94s19.21,3.09,26.61,12.36l-3.36,4.9s-8.31-4.9-25-8.63Z" style="fill:#263238"></path><path d="M146.57,318.4a.5.5,0,0,1-.25-.93c6.16-3.62,8.87-8.08,8.05-13.26,0-.21-.06-.36-.06-.45a.5.5,0,0,1,.5-.5.5.5,0,0,1,.5.5c0,.06,0,.16.05.3.89,5.62-2,10.42-8.53,14.27A.48.48,0,0,1,146.57,318.4Zm8.74-14.64h0Z" style="fill:#263238"></path><path d="M140.65,315.34a.49.49,0,0,1-.44-.26c-.14-.25-3.43-6.17-1.84-11.46a.49.49,0,0,1,.62-.34.5.5,0,0,1,.33.62c-1.46,4.89,1.73,10.63,1.76,10.69a.49.49,0,0,1-.19.68A.42.42,0,0,1,140.65,315.34Z" style="fill:#263238"></path><path d="M231.37,322.23c-1.35,0-3.56-.51-6.31-3a.49.49,0,0,1,0-.7.5.5,0,0,1,.71,0c4,3.66,6.65,2.61,6.67,2.6a.5.5,0,0,1,.41.91A3.79,3.79,0,0,1,231.37,322.23Z" style="fill:#263238"></path><path d="M236.21,318.4h-.11a.51.51,0,0,1-.38-.6c0-.09,2-8.84.06-12.24a.49.49,0,0,1,.18-.68.52.52,0,0,1,.69.19c2.13,3.73.14,12.58,0,12.95A.5.5,0,0,1,236.21,318.4Z" style="fill:#263238"></path><path d="M185.6,256.86a.49.49,0,0,1-.45-.28c-1.83-3.66-8-6.43-8.06-6.46a.49.49,0,0,1-.26-.66.5.5,0,0,1,.66-.25c.27.12,6.56,2.95,8.55,6.93a.49.49,0,0,1-.22.67A.59.59,0,0,1,185.6,256.86Z" style="fill:#263238"></path><path d="M195.77,256.86a.5.5,0,0,1-.07-1c.09,0,9.18-1.3,12.28-3.28a.49.49,0,0,1,.69.16.5.5,0,0,1-.15.69c-3.29,2.09-12.3,3.36-12.68,3.42Z" style="fill:#263238"></path><path d="M190.62,253.06a.49.49,0,0,1-.37-.16.5.5,0,0,1,0-.71c5.47-4.92,9.27-24.58,9.3-24.78a.5.5,0,0,1,1,.19c-.16.82-3.9,20.19-9.63,25.34A.5.5,0,0,1,190.62,253.06Z" style="fill:#263238"></path><path d="M197.78,244.24a.49.49,0,0,1-.48-.36.5.5,0,0,1,.35-.62c3.47-1,4.69-10.41,4.87-14a.48.48,0,0,1,.52-.47.5.5,0,0,1,.48.52c0,.55-.73,13.51-5.6,14.88A.34.34,0,0,1,197.78,244.24Z" style="fill:#263238"></path><path d="M234.92,356.82s4.76,17.26,5.41,20.35a26.2,26.2,0,0,0,2.58,6.44s-1.17,2.58-.77,4.12-.65,3.61-.52,4.9-.52,3.35-1.81,3.86,0,6.44,0,6.44c7.14,2.49,17.91,0,17.91,0,.72-1.08,1.67-8.24,1.06-10.3-1.19-4-1.7-12.75-1.7-12.75s.77-1.16.51-1.94-2.07-26-2.07-26h-6.17s-.62-3-7.33-2.58-4.26,5.93-4.26,5.93Z" style="fill:#263238"></path><path d="M250.76,392.35a.34.34,0,0,1-.14,0L246,390.92a.51.51,0,0,1-.34-.41.48.48,0,0,1,.2-.48,11.27,11.27,0,0,1,1.64-.94l-2.41-.48a.5.5,0,0,1-.41-.49.49.49,0,0,1,.41-.49l2.88-.56-1.92-.39a.51.51,0,0,1-.39-.41.49.49,0,0,1,.23-.51l2.63-1.56-3.08-1.29a.49.49,0,0,1-.31-.43.54.54,0,0,1,.26-.47l3.19-1.75-3.44-1.88a.46.46,0,0,1-.26-.41.47.47,0,0,1,.22-.44l3.32-2.22L244,374.18a.5.5,0,0,1-.19-.88,43.35,43.35,0,0,0,4-3.53,48.77,48.77,0,0,0-5.49-2.64.51.51,0,0,1-.13-.85l5.1-4.26a40.43,40.43,0,0,1-7.7-2.69.5.5,0,0,1,.43-.9,37.59,37.59,0,0,0,8.49,2.79.52.52,0,0,1,.41.36.51.51,0,0,1-.16.52l-5.3,4.43c5.48,2.37,5.48,2.85,5.48,3.17s0,.69-3.73,3.76l4.51,1.17a.49.49,0,0,1,.37.4.5.5,0,0,1-.22.5l-3.56,2.37,3.53,1.92a.51.51,0,0,1,.26.44.5.5,0,0,1-.26.44l-3.09,1.69,3,1.28a.51.51,0,0,1,.31.42.53.53,0,0,1-.25.47L247.5,386l3.11.64a.5.5,0,0,1,.4.49.49.49,0,0,1-.41.49l-2.8.54c.68.13,1.31.25,1.81.33a2.77,2.77,0,0,1,1,.09c.21.06.72.21.6.7s-.12.49-1.72.23a7.07,7.07,0,0,0-2.19.81l3.57,1.1a.5.5,0,0,1-.15,1Z" style="fill:#fff"></path><path d="M245.1,392.35a.51.51,0,0,1-.47-.32.49.49,0,0,1,.29-.64l2.87-1.1H245a.5.5,0,0,1-.16-1l3.59-1.17-2.67-.44a.5.5,0,0,1-.11-1l2.47-1c-1-.17-2-.33-2.28-.33a.58.58,0,0,1-.54-.41c-.1-.41-.14-.58,3.54-2.44l-3.25-1.85a.51.51,0,0,1-.05-.84l3.21-2.35-3.43-.91a.49.49,0,0,1-.35-.36.5.5,0,0,1,.14-.49l3.11-2.92-4.25-1.77a.47.47,0,0,1-.29-.32.54.54,0,0,1,.07-.43,41.35,41.35,0,0,1,4-4.95,50.32,50.32,0,0,0-6.09-1.74.52.52,0,0,1-.36-.3.49.49,0,0,1,.06-.47c.12-.18,3.07-4.5,6.88-6.47a.5.5,0,0,1,.67.21.51.51,0,0,1-.21.68,20.5,20.5,0,0,0-6.08,5.55c6.33,1.52,6.4,2.12,6.44,2.45a.62.62,0,0,1-.37.63c-.58.29-2.43,2.64-3.76,4.48l4.37,1.82a.51.51,0,0,1,.3.37.5.5,0,0,1-.15.46l-3,2.84,3.57.95a.5.5,0,0,1,.17.88l-3.43,2.51,3.38,1.94a.48.48,0,0,1,.25.44.49.49,0,0,1-.27.44c-1,.52-2.16,1.1-2.94,1.53,1.08.17,2.43.42,2.81.49a.5.5,0,0,1,.4.44.49.49,0,0,1-.31.51l-2.43,1,3,.49a.49.49,0,0,1,.42.45.53.53,0,0,1-.35.52l-2.54.82h2.39a.49.49,0,0,1,.49.41.51.51,0,0,1-.31.56l-5.41,2.06Z" style="fill:#fff"></path><g style="opacity:0.5"><path d="M243.42,395.57a.5.5,0,0,1-.23-.94c.27-.14,6.77-3.6,10.21-.85a.5.5,0,0,1-.63.78c-2.92-2.34-9.05.92-9.11.95A.5.5,0,0,1,243.42,395.57Z" style="fill:#fff"></path><path d="M244.07,384.11a.5.5,0,0,1,0-1,24.09,24.09,0,0,0,10-2.84.5.5,0,0,1,.7,0,.52.52,0,0,1,0,.72,24.36,24.36,0,0,1-10.65,3.1Z" style="fill:#fff"></path><path d="M244.07,386.56a.5.5,0,0,1-.12-1c.31-.07,7.68-1.82,10.61-.75a.5.5,0,1,1-.35.93c-2.64-1-10,.78-10,.79Z" style="fill:#fff"></path><path d="M247.67,355.77a.48.48,0,0,1-.46-.31,2.66,2.66,0,0,1,.7-2.87.5.5,0,0,1,.69.73,1.65,1.65,0,0,0-.46,1.77.51.51,0,0,1-.28.65Z" style="fill:#fff"></path><path d="M240.85,357.84a.5.5,0,0,1-.46-.31c-.24-.56-1.29-1-1.63-1.13a.51.51,0,0,1-.32-.64.5.5,0,0,1,.63-.31,4,4,0,0,1,2.24,1.69.51.51,0,0,1-.26.66A.79.79,0,0,1,240.85,357.84Z" style="fill:#fff"></path><path d="M251.1,401.66c-4.61,0-9.94-.27-10.28-.29a.5.5,0,0,1-.47-.53.48.48,0,0,1,.52-.47c.13,0,12.48.63,15.86,0a.5.5,0,0,1,.58.4.5.5,0,0,1-.4.58A39.18,39.18,0,0,1,251.1,401.66Z" style="fill:#fff"></path></g><path d="M113.86,348.06s-1.79,23.4-5.53,28.06-2.46,6.2-2.46,6.2-5.15,9-5.15,19.32c0,0,16.75,3.29,26.53,0a16.6,16.6,0,0,0,0-4.38c-.25-3.35-3.6-5.92-4.12-8a15.69,15.69,0,0,0-2.57-4.64s.51-2.83-.52-3.35c0,0,2.06,1.75,2.58-1.83s13.91-22.64,13.91-22.64l-4.9-2.83s0-2.93-5.66-4.68-7.35,1.07-7.35,1.07A11,11,0,0,0,113.86,348.06Z" style="fill:#263238"></path><g style="opacity:0.5"><path d="M119.4,355.78h-.1a.5.5,0,0,1-.39-.59,6.53,6.53,0,0,0,0-2.69.49.49,0,0,1,.29-.64.5.5,0,0,1,.65.29,7.4,7.4,0,0,1,0,3.23A.51.51,0,0,1,119.4,355.78Z" style="fill:#fff"></path><path d="M129.06,357.84a.46.46,0,0,1-.2,0,.49.49,0,0,1-.26-.65c1-2.25,2.05-2.36,2.26-2.36a.5.5,0,0,1,.5.5.51.51,0,0,1-.47.5s-.68.18-1.38,1.76A.49.49,0,0,1,129.06,357.84Z" style="fill:#fff"></path><path d="M109.09,381.92a.5.5,0,0,1-.19-1c.86-.37,8.49-3.54,10.85-1.18a.5.5,0,0,1,0,.71.51.51,0,0,1-.71,0c-1.42-1.42-6.73.1-9.75,1.39A.45.45,0,0,1,109.09,381.92Z" style="fill:#fff"></path><path d="M117.47,384.11h-.1c-2-.37-9.46,0-9.54,0a.49.49,0,0,1-.52-.47.5.5,0,0,1,.47-.53c.31,0,7.68-.38,9.78,0a.5.5,0,0,1,.4.58A.51.51,0,0,1,117.47,384.11Z" style="fill:#fff"></path><path d="M110,393.72a.5.5,0,0,1-.45-.27.49.49,0,0,1,.22-.67c.3-.16,7.44-3.76,12.6-2.31a.5.5,0,1,1-.28,1c-4.77-1.34-11.8,2.2-11.87,2.24A.59.59,0,0,1,110,393.72Z" style="fill:#fff"></path><path d="M118.14,400.78a134.32,134.32,0,0,1-15.81-1.09.5.5,0,0,1-.43-.56.49.49,0,0,1,.56-.43c.14,0,14.2,1.91,22.92.64a.5.5,0,0,1,.56.43.49.49,0,0,1-.42.56A51.78,51.78,0,0,1,118.14,400.78Z" style="fill:#fff"></path></g><path d="M113.92,392.15a.5.5,0,0,1-.21-.95c1-.46,1.75-.82,2.4-1.11l-2.86,0h-1.43a.61.61,0,0,1-.57-.46c-.06-.51-.06-.51,3.24-1.39l1.37-.37c-1.19,0-2.64.08-4,.15a.49.49,0,0,1-.52-.41.5.5,0,0,1,.34-.56c.71-.23,2.4-.75,3.81-1.1l-3.8-1.17a.5.5,0,0,1,.07-1l1.8-.26-1-.17a.49.49,0,0,1-.41-.48.49.49,0,0,1,.39-.5c1.08-.24,2.7-.64,3.74-1a27.31,27.31,0,0,0-4.31-.47.47.47,0,0,1-.55-.2.5.5,0,0,1,0-.59,1.13,1.13,0,0,1,.27-.14v0h.12a43.9,43.9,0,0,1,5.56-1.67c-.92-.63-2.37-1.59-3.72-2.46a.5.5,0,0,1,.25-.92c2-.1,3.39-.13,4.27-.13-.64-.67-1.58-1.75-3-3.44a.51.51,0,0,1-.09-.49.49.49,0,0,1,.39-.32l5.37-.93-4.13-2.47a.51.51,0,0,1-.22-.57.5.5,0,0,1,.48-.36h5.62l-4.25-3.29a.5.5,0,0,1,.25-.89l6.33-.63-6.55-4.31a.5.5,0,0,1,.55-.84l7.73,5.09a.51.51,0,0,1,.21.53.5.5,0,0,1-.44.38l-6.48.65,4.42,3.41a.5.5,0,0,1-.31.9h-5.27l3.73,2.23a.5.5,0,0,1,.23.52.49.49,0,0,1-.4.4l-5.84,1c1.38,1.59,2.77,3.15,3.2,3.53a.46.46,0,0,1,.28.19.54.54,0,0,1,.08.48.52.52,0,0,1-.39.34.43.43,0,0,1-.38-.08c-.48-.06-2,0-3.76,0,3.87,2.52,3.85,2.56,3.61,3a.55.55,0,0,1-.68.22,25.34,25.34,0,0,0-4,1c1.57.17,3.26.49,3.5,1a.59.59,0,0,1-.24.76,11.84,11.84,0,0,1-2.61.9l1.74.29a.51.51,0,0,1,.42.5.51.51,0,0,1-.43.49l-2.75.4c4,1.22,4,1.29,3.91,1.75a.57.57,0,0,1-.64.38,6.64,6.64,0,0,0-1.41.25c3-.05,3,.16,3.15.46a.59.59,0,0,1-.2.62,21,21,0,0,1-3.87,1.19c1.44,0,3,0,3.66,0a.83.83,0,0,1,.48,0,.52.52,0,0,1,.37.56c0,.23,0,.36-.61.42a44.35,44.35,0,0,0-4.81,2.06A.42.42,0,0,1,113.92,392.15Z" style="fill:#fff"></path><path d="M120,391.13h-.13l-6.19-1.74a.52.52,0,0,1-.36-.49.54.54,0,0,1,0-.21,5.77,5.77,0,0,0-.7-.06c-.55,0-.69-.27-.71-.49,0-.45,0-.57,2.64-1.05L112.41,386a.5.5,0,0,1,.15-.94l1.46-.23-.84-.29a.47.47,0,0,1-.33-.4.48.48,0,0,1,.21-.48l1.86-1.28-1.7-.43a.51.51,0,0,1-.37-.43.5.5,0,0,1,.27-.51l2.67-1.33-2.19-1.83a.51.51,0,0,1-.17-.48.52.52,0,0,1,.34-.38l3.33-1-2.41-2.1a.48.48,0,0,1-.15-.52.53.53,0,0,1,.41-.35c.61-.08,3.11-.42,4.43-.57-.5-.66-1.44-1.77-2.29-2.72a.52.52,0,0,1-.1-.48.52.52,0,0,1,.34-.34l3.83-1-3.5-2.86a.52.52,0,0,1-.15-.56.5.5,0,0,1,.47-.33h5.54c-1-.86-2.67-2.31-4.27-3.62a.5.5,0,0,1,.25-.88l7.94-1.16a.5.5,0,1,1,.14,1l-6.82,1c4.6,3.8,4.54,4,4.41,4.34a.53.53,0,0,1-.49.34h-5.3l3.17,2.59a.51.51,0,0,1,.17.49.5.5,0,0,1-.36.38l-4,1.08c2.52,2.87,2.42,3.09,2.29,3.39a.56.56,0,0,1-.49.31c-.24,0-2.27.27-4,.5l2.26,1.95a.51.51,0,0,1,.16.48.49.49,0,0,1-.34.37l-3.31,1,2.06,1.73a.51.51,0,0,1,.18.45.49.49,0,0,1-.27.38l-2.15,1.08,1.47.38a.47.47,0,0,1,.36.39.48.48,0,0,1-.2.5l-2,1.34,1.82.61a.51.51,0,0,1,.34.52.49.49,0,0,1-.42.45l-2,.31,2.12,1.1a.51.51,0,0,1,.27.52.52.52,0,0,1-.41.42l-1,.17.51.1a4.51,4.51,0,0,1,1.93.22c.16.06.64.26.5.72s-.18.43-.83.35l2.79.78a.5.5,0,0,1,.34.62A.49.49,0,0,1,120,391.13Z" style="fill:#fff"></path><path d="M129.58,200.55c-1.17,2.94.57,8.72,1,9.79s-.39,5.19-.68,6a25.92,25.92,0,0,1-2.41,3.55,4,4,0,0,1,0-3.55c1-1.67-.43-6-.43-6s-5.56.9-6.53,2.63a49.28,49.28,0,0,0-2.32,5.82v2.82c0,1.4-2.12,2.3-2.12.88a11.08,11.08,0,0,0-1.16-3.7l1.16-4.86-3.48,4.86a1.24,1.24,0,0,1,0,1.9c-1,1.16-2.32-1.9-2.32-1.9l2.13-6.58-3.67,2.49s.07,2.06-1.28,2.51,0-4.24,0-4.24l2.72-3.84-1.27.1s-1.52,1.44-1.75,1.32c-1.05-.61,1-3.55,1-3.55l2.89-2.06a143.74,143.74,0,0,0,12.12-8.48" style="fill:#fff"></path><path d="M116.66,223.71a1.08,1.08,0,0,1-.8-.33,1.26,1.26,0,0,1-.31-.89,10.19,10.19,0,0,0-1.11-3.47.6.6,0,0,1,0-.35l.57-2.38-1.76,2.47a1.62,1.62,0,0,1,.28.74A2,2,0,0,1,113,221a1.12,1.12,0,0,1-1,.43c-1-.15-1.91-1.91-2.14-2.45a.47.47,0,0,1,0-.35l1.67-5.2L109.2,215c0,.66-.26,2.26-1.62,2.72a.86.86,0,0,1-.89-.17c-.74-.71-.14-3.24.28-4.69a1,1,0,0,1,.07-.15l2.11-3h0c-1.67,1.57-1.94,1.42-2.21,1.27a1.12,1.12,0,0,1-.52-.72c-.26-1.15,1.07-3.15,1.34-3.54a.34.34,0,0,1,.12-.12l2.89-2.07c.08-.06,5.5-3.35,12.1-8.46a.5.5,0,0,1,.61.79,145.41,145.41,0,0,1-12.16,8.5l-2.79,2a6.6,6.6,0,0,0-1.14,2.55c.31-.24.8-.67,1.21-1a.48.48,0,0,1,.3-.13l1.27-.1a.53.53,0,0,1,.48.25.52.52,0,0,1,0,.54l-2.67,3.77a10.71,10.71,0,0,0-.56,3.51c.89-.41.86-2,.86-2a.46.46,0,0,1,.22-.43l3.67-2.49a.5.5,0,0,1,.58,0,.49.49,0,0,1,.17.55l-2.06,6.4c.38.79,1,1.65,1.29,1.69,0,0,.08-.06.11-.08a1.1,1.1,0,0,0,.31-.75.76.76,0,0,0-.24-.44.51.51,0,0,1-.1-.68l3.48-4.86a.5.5,0,0,1,.89.4l-1.11,4.69a10.9,10.9,0,0,1,1.13,3.76c0,.08,0,.22.11.22a1.2,1.2,0,0,0,1-1.1v-2.82a.45.45,0,0,1,0-.16,46.48,46.48,0,0,1,2.36-5.9c1-1.89,6.28-2.79,6.88-2.88a.49.49,0,0,1,.55.34c.15.47,1.44,4.62.39,6.43a3.11,3.11,0,0,0-.26,2.25,17.89,17.89,0,0,0,1.77-2.66c.32-1,1-4.85.68-5.7,0-.07-2.31-6.73-1-10.15a.5.5,0,0,1,.65-.28.49.49,0,0,1,.28.65c-1.06,2.68.49,8.13,1,9.44s-.43,5.64-.68,6.36a23.39,23.39,0,0,1-2.49,3.69.5.5,0,0,1-.84-.08,4.51,4.51,0,0,1,0-4c.63-1.09,0-3.83-.34-5.21-2.09.39-5.17,1.28-5.74,2.31a46.9,46.9,0,0,0-2.26,5.65v2.74A2.2,2.2,0,0,1,116.66,223.71Z" style="fill:#263238"></path><path d="M110.17,209.13l.66-1a2.53,2.53,0,0,1,0-2.14" style="fill:#fff"></path><path d="M110.17,209.63a.5.5,0,0,1-.41-.78l.5-.75a3.49,3.49,0,0,1,.1-2.25.49.49,0,0,1,.62-.32.5.5,0,0,1,.33.63,2.31,2.31,0,0,0-.06,1.72.52.52,0,0,1,0,.55l-.66,1A.52.52,0,0,1,110.17,209.63Z" style="fill:#263238"></path><path d="M111.8,208.71c.29,1.45.87.12,1.35,1.12s.58,2.45,2.22,2,1.45.48,2.71.58" style="fill:#fff"></path><path d="M118.08,212.88h0a2.42,2.42,0,0,1-1.28-.48c-.32-.22-.5-.34-1.25-.12-1.77.52-2.25-.78-2.57-1.65-.08-.2-.15-.4-.24-.58a.38.38,0,0,0-.09-.14s0,0-.09,0c-.67.08-1-.25-1.21-1.12a.5.5,0,0,1,1-.2,1.91,1.91,0,0,0,.09.33,1.07,1.07,0,0,1,1.22.68c.1.21.19.44.27.66.36,1,.53,1.28,1.36,1a2.08,2.08,0,0,1,2.09.25,1.42,1.42,0,0,0,.8.31.5.5,0,0,1,0,1Z" style="fill:#263238"></path><path d="M262.86,258.75c1.07,3.09,5.42,6.37,6.39,7.82a5.72,5.72,0,0,1,.53,3.67l.53,3-.63,3a6.3,6.3,0,0,1,0,2.25c-.24,1.16-1.4,5-2.17,6a4.57,4.57,0,0,1-1.93,1.35c-.87-2.61,1.35-6.08-.39-7.63s-2.86-2.38-3.83-1.68a3.74,3.74,0,0,0-1.58,4.1c.58,1.93.71,4.25-.13,4.44s-2.38-3.28-3-4.44-1-6.44-.65-8.7c.39-2.78,1.56-7.25.84-9.91" style="fill:#fff"></path><path d="M265.58,286.29a.46.46,0,0,1-.23-.05.51.51,0,0,1-.25-.29,8.41,8.41,0,0,1,0-4c.25-1.46.47-2.73-.28-3.39-1.67-1.49-2.58-2.11-3.2-1.65a3.27,3.27,0,0,0-1.4,3.54c.48,1.6.72,3.63.19,4.55a1.12,1.12,0,0,1-.68.53c-.95.22-1.85-1.24-3.27-4.19l-.26-.52c-.66-1.32-1-6.79-.69-9,.09-.65.22-1.4.37-2.2.44-2.48,1-5.58.48-7.51a.5.5,0,0,1,.35-.61.52.52,0,0,1,.62.35c.57,2.15,0,5.23-.47,8-.14.78-.27,1.52-.36,2.16-.33,2.32.11,7.42.6,8.4l.26.53c1.11,2.3,1.85,3.53,2.22,3.65a6.78,6.78,0,0,0-.32-3.81,4.29,4.29,0,0,1,1.76-4.64c1.4-1,2.95.37,4.46,1.71,1.17,1,.88,2.7.61,4.31a9.33,9.33,0,0,0-.21,3,3.86,3.86,0,0,0,1.2-1c.68-.85,1.81-4.54,2.07-5.78a5.78,5.78,0,0,0,0-2.05.37.37,0,0,1,0-.21l.61-2.86-.51-2.9a.54.54,0,0,1,0-.18,5.23,5.23,0,0,0-.46-3.3,16.11,16.11,0,0,0-1.76-1.89c-1.66-1.63-3.93-3.87-4.69-6a.5.5,0,0,1,.95-.33c.68,2,2.85,4.1,4.44,5.67a16,16,0,0,1,1.89,2,6,6,0,0,1,.63,3.95l.51,2.91a.61.61,0,0,1,0,.19l-.61,2.86a6.93,6.93,0,0,1,0,2.35c-.23,1.13-1.4,5.12-2.27,6.2a5.25,5.25,0,0,1-2.16,1.52Z" style="fill:#263238"></path><path d="M249.74,213.47a.34.34,0,0,1-.14,0,.5.5,0,0,1-.35-.61c1.23-4.49,4.76-5.16,4.91-5.18a.5.5,0,0,1,.58.41.49.49,0,0,1-.41.57h0c-.12,0-3.06.6-4.11,4.46A.49.49,0,0,1,249.74,213.47Z" style="fill:#263238"></path><path d="M153.91,167.31h-.06s-5.21-.7-6-5.84a.49.49,0,0,1,.41-.57.49.49,0,0,1,.57.41,6.17,6.17,0,0,0,5.17,5,.5.5,0,0,1-.06,1Z" style="fill:#263238"></path><path d="M244.17,177a.51.51,0,0,1-.46-.3,54.26,54.26,0,0,0-3.86-7.33.51.51,0,0,1,.14-.7.5.5,0,0,1,.69.14,54.79,54.79,0,0,1,3.94,7.48.49.49,0,0,1-.25.66A.46.46,0,0,1,244.17,177Z" style="fill:#263238"></path><path d="M198.91,206.51a.52.52,0,0,1-.4-.21.51.51,0,0,1,.11-.7c5.44-3.91,18.14-5.29,23.56-5.87l1.79-.21a.51.51,0,0,1,.57.43.5.5,0,0,1-.43.56l-1.82.21c-4.89.53-17.86,1.93-23.08,5.69A.54.54,0,0,1,198.91,206.51Z" style="fill:#263238"></path><path d="M227.67,168.41a25.36,25.36,0,0,1-10.39-2.72.5.5,0,1,1,.47-.89c.1,0,10,5.21,16,.81a.51.51,0,0,1,.7.11.5.5,0,0,1-.11.7A11,11,0,0,1,227.67,168.41Z" style="fill:#263238"></path><path d="M195.35,169.54a.51.51,0,0,1-.5-.49c0-.91,0-2.46,0-3.81a.5.5,0,0,1,.5-.5h0a.51.51,0,0,1,.5.5c0,1.34,0,2.89,0,3.79a.5.5,0,0,1-.49.51Z" style="fill:#263238"></path><path d="M193.51,162.92h-.07a43,43,0,0,0-11.25-.07.51.51,0,0,1-.57-.42.5.5,0,0,1,.43-.57,43.85,43.85,0,0,1,11.53.07.5.5,0,0,1,.42.57A.49.49,0,0,1,193.51,162.92Z" style="fill:#263238"></path></g></svg>