<svg xmlns="http://www.w3.org/2000/svg" viewBox="0 0 500 500"><g id="background-simple"><path d="M323.83,36.06S244.49,4.89,168.61,48.88,56.28,183.38,24.83,255.82,14.63,403.43,74.41,439.1s98.47-13.38,181-13.52,105.06,12.73,172.29-33.76,76.55-160.45,20.22-246.54S323.83,36.06,323.83,36.06Z" style="fill:#92E3A9"></path><path d="M323.83,36.06S244.49,4.89,168.61,48.88,56.28,183.38,24.83,255.82,14.63,403.43,74.41,439.1s98.47-13.38,181-13.52,105.06,12.73,172.29-33.76,76.55-160.45,20.22-246.54S323.83,36.06,323.83,36.06Z" style="fill:#fff;opacity:0.7000000000000001"></path></g><g id="Tree"><path d="M99,426.89s-8,7.21-17.64,8-2.41-13.64-2.41-13.64-15.24,24.87-24.06,23.26,18.44-31.28,18.44-31.28-10.42,8.82-17.64,13.64-1.61-11.23-1.61-11.23-19.25,12-22.46,6.41,19.26-20.85,19.26-20.85-19.26,6.41-22.46,1.6,32.08-10.43,32.08-10.43-11.23-1.6-12.83-6.41,20.05-.8,20.05-.8-8.82-4-10.43-12,18.39.93,18.39.93l-4-8.14s-10.43,4-16.84,4,1.6-6.42,1.6-6.42-12.83,3.21-20.85,0,21.65-12,21.65-12-17.64-2.41-20.85-6.42,32.88,2.41,32.88,2.41a16.27,16.27,0,0,1-12-8.83c-4-8,22.46-.8,22.46-.8L69.3,326.62s-23.26,3.21-28.87-.8,18.45-6.42,18.45-6.42-18.45-4-19.25-8.82S78.93,313,78.93,313s-25.67-12.84-28.07-21.66,30.48,7.22,30.48,7.22l-6.42-12s-16.85.8-24.06-5.62,32.08-8.82,32.08-8.82-12-7.22-15.24-15.24,19.25,4,19.25,4-8-23.26-4-32.89,9.62,25.67,9.62,25.67-8-44.12-4-45.72,8,5.62,8,5.62,4.81-34.5,9.62-27.28-1.6,37.7-1.6,37.7,9.62-28.07,13.63-17.64S109.41,248,109.41,248s11.23-12,9.62-2.41-4,19.25-4,19.25,25.67-20.85,24.87-10.43-4.81,13.64-4.81,13.64,24.86-6.42,19.25.8-36.1,12-36.1,12,24.07,3.21,19.25,8-9.62,4.82-9.62,4.82,9.62,3.2,8.82,5.61-4,8.82-4,8.82,13.64-9.62,15.24-3.2-20,15.24-20,15.24,37.7-1.61,32.88,4.81-18.44,7.22-18.44,7.22,15.24,4,8.82,7.22-25.67-3.21-25.67-3.21l1.61,6.41s27.27,8.83,17.64,11.23a40.49,40.49,0,0,1-18.45,0l11.23,6.42s22.46-8,18.45-1.6-13.63,9.62-13.63,9.62,21.65-5.61,16.84,1.61-25.67,8-25.67,8,28.88,12,16,13.63S119.84,386,119.84,386s35.29,13.63,31.28,19.25-11.23.8-11.23.8,20.85,14.44,14.44,19.25-24.87-10.43-24.87-10.43,8.82,8,2.41,8.83S103,412.45,103,412.45s15.24,13.63,8.83,13.63-15.24-5.61-15.24-5.61Z" style="fill:#92E3A9;stroke:#263238;stroke-miterlimit:10"></path><path d="M93,281.85a3.47,3.47,0,1,1-3.47-3.47A3.46,3.46,0,0,1,93,281.85Z" style="fill:#fff"></path><path d="M104.48,246.92a3.47,3.47,0,1,1-3.46-3.46A3.46,3.46,0,0,1,104.48,246.92Z" style="fill:#fff"></path><path d="M109.82,263.45a3.47,3.47,0,1,1-3.47-3.46A3.47,3.47,0,0,1,109.82,263.45Z" style="fill:#fff"></path><path d="M120.48,299.18a3.47,3.47,0,1,1-3.47-3.47A3.46,3.46,0,0,1,120.48,299.18Z" style="fill:#fff"></path><path d="M102.35,338.64a3.47,3.47,0,1,1-3.47-3.47A3.46,3.46,0,0,1,102.35,338.64Z" style="fill:#fff"></path><path d="M123.15,273.85a3.47,3.47,0,1,1-3.47-3.47A3.48,3.48,0,0,1,123.15,273.85Z" style="fill:#fff"></path><path d="M94.62,321a3.47,3.47,0,1,1-3.47-3.47A3.47,3.47,0,0,1,94.62,321Z" style="fill:#fff"></path><path d="M121,361a3.47,3.47,0,1,1-3.46-3.46A3.46,3.46,0,0,1,121,361Z" style="fill:#fff"></path><path d="M86.09,386.63a3.47,3.47,0,1,1-3.47-3.47A3.46,3.46,0,0,1,86.09,386.63Z" style="fill:#fff"></path><path d="M91.15,369a3.47,3.47,0,1,1-3.46-3.47A3.47,3.47,0,0,1,91.15,369Z" style="fill:#fff"></path><path d="M63.43,404.22A3.47,3.47,0,1,1,60,400.76,3.47,3.47,0,0,1,63.43,404.22Z" style="fill:#fff"></path><circle cx="105.82" cy="397.82" r="3.47" style="fill:#fff"></circle><circle cx="95.69" cy="305.04" r="3.47" style="fill:#263238"></circle><path d="M111.42,280.52a3.47,3.47,0,1,1-3.47-3.47A3.47,3.47,0,0,1,111.42,280.52Z" style="fill:#263238"></path><path d="M118.35,322.91a3.47,3.47,0,1,1-3.47-3.47A3.46,3.46,0,0,1,118.35,322.91Z" style="fill:#263238"></path><path d="M100.75,229.33a3.47,3.47,0,1,1-3.46-3.47A3.46,3.46,0,0,1,100.75,229.33Z" style="fill:#263238"></path><path d="M118.88,344a3.47,3.47,0,1,1-3.47-3.47A3.46,3.46,0,0,1,118.88,344Z" style="fill:#263238"></path><path d="M115.68,383.43a3.47,3.47,0,1,1-3.46-3.47A3.46,3.46,0,0,1,115.68,383.43Z" style="fill:#263238"></path><path d="M103.42,363.16A3.47,3.47,0,1,1,100,359.7,3.47,3.47,0,0,1,103.42,363.16Z" style="fill:#263238"></path><circle cx="87.15" cy="405.82" r="3.47" style="fill:#263238"></circle><path d="M137.54,371.7a3.47,3.47,0,1,1-3.46-3.47A3.46,3.46,0,0,1,137.54,371.7Z" style="fill:#263238"></path><path d="M74.62,358.37a3.47,3.47,0,1,1-3.46-3.47A3.46,3.46,0,0,1,74.62,358.37Z" style="fill:#263238"></path><path d="M76.22,401.56a3.47,3.47,0,1,1-3.46-3.47A3.46,3.46,0,0,1,76.22,401.56Z" style="fill:#263238"></path><path d="M131.68,405.29a3.47,3.47,0,1,1-3.47-3.47A3.46,3.46,0,0,1,131.68,405.29Z" style="fill:#263238"></path><path d="M94.35,264a3.47,3.47,0,1,1-3.46-3.47A3.46,3.46,0,0,1,94.35,264Z" style="fill:#263238"></path><path d="M85.29,347.7a3.47,3.47,0,1,1-3.47-3.47A3.47,3.47,0,0,1,85.29,347.7Z" style="fill:#263238"></path><rect x="23.4" y="431.25" width="47" height="35" style="fill:#263238;stroke:#263238;stroke-linecap:round;stroke-linejoin:round"></rect><rect x="42.9" y="431.25" width="8" height="35" style="fill:#fff;stroke:#263238;stroke-linecap:round;stroke-linejoin:round"></rect><path d="M46.56,430.74s-7.79-4.67-12.23-5.34-3.55,5.21.69,5.55C38.8,431.26,42.77,430.81,46.56,430.74Z" style="fill:#fff;stroke:#263238;stroke-linecap:round;stroke-linejoin:round"></path><path d="M45.84,430.74s7.78-4.67,12.23-5.34,3.55,5.21-.7,5.55C53.6,431.26,49.63,430.81,45.84,430.74Z" style="fill:#fff;stroke:#263238;stroke-linecap:round;stroke-linejoin:round"></path><path d="M44.78,430.74s-11.34-4.45-11.34-3.34S35.88,431.18,44.78,430.74Z" style="fill:#fff;stroke:#263238;stroke-linecap:round;stroke-linejoin:round"></path><path d="M45.67,430.75s12.23-3.39,12.23-2.55S55.26,431.09,45.67,430.75Z" style="fill:#fff;stroke:#263238;stroke-linecap:round;stroke-linejoin:round"></path><polygon points="36.55 430.96 36.55 442.52 41.22 439.63 45 442.52 45 430.96 36.55 430.96" style="fill:#fff;stroke:#263238;stroke-linecap:round;stroke-linejoin:round"></polygon><polygon points="52.12 430.96 52.12 454.08 56.78 451.19 60.56 454.08 60.56 430.96 52.12 430.96" style="fill:#fff;stroke:#263238;stroke-linecap:round;stroke-linejoin:round"></polygon><rect x="69.99" y="418.77" width="63.77" height="47.48" style="fill:#fff;stroke:#263238;stroke-linecap:round;stroke-linejoin:round"></rect><rect x="96.45" y="418.77" width="10.85" height="47.48" style="fill:#263238;stroke:#263238;stroke-linecap:round;stroke-linejoin:round"></rect><path d="M101.4,418.07s-10.55-6.34-16.59-7.24-4.81,7.07,1,7.53C90.88,418.77,96.26,418.17,101.4,418.07Z" style="fill:#263238;stroke:#263238;stroke-linecap:round;stroke-linejoin:round"></path><path d="M100.44,418.07S111,411.73,117,410.83s4.81,7.07-1,7.53C111,418.77,105.57,418.17,100.44,418.07Z" style="fill:#263238;stroke:#263238;stroke-linecap:round;stroke-linejoin:round"></path><path d="M99,418.07s-15.38-6-15.38-4.53S86.92,418.67,99,418.07Z" style="fill:#fff;stroke:#263238;stroke-linecap:round;stroke-linejoin:round"></path><path d="M100.2,418.08s16.59-4.6,16.59-3.45S113.21,418.54,100.2,418.08Z" style="fill:#fff;stroke:#263238;stroke-linecap:round;stroke-linejoin:round"></path><polygon points="87.83 418.37 87.83 434.06 94.16 430.13 99.29 434.06 99.29 418.37 87.83 418.37" style="fill:#263238;stroke:#263238;stroke-linecap:round;stroke-linejoin:round"></polygon><polygon points="108.95 418.37 108.95 449.74 115.28 445.82 120.41 449.74 120.41 418.37 108.95 418.37" style="fill:#263238;stroke:#263238;stroke-linecap:round;stroke-linejoin:round"></polygon><rect x="131.78" y="412.95" width="71.58" height="53.31" style="fill:#fff"></rect><polygon points="186.59 435.34 185.16 432.43 183.72 435.34 180.51 435.8 182.83 438.07 182.28 441.26 185.16 439.75 188.03 441.26 187.48 438.07 189.8 435.8 186.59 435.34" style="fill:#92E3A9"></polygon><polygon points="199.18 435.8 201.5 438.07 200.96 441.26 203.37 439.99 203.37 433.35 202.39 435.34 199.18 435.8" style="fill:#92E3A9"></polygon><polygon points="196.08 419.73 194.64 416.82 193.21 419.73 190 420.19 192.32 422.46 191.77 425.65 194.64 424.15 197.52 425.65 196.97 422.46 199.29 420.19 196.08 419.73" style="fill:#92E3A9"></polygon><polygon points="196.08 448.5 194.64 445.59 193.21 448.5 190 448.96 192.32 451.23 191.77 454.42 194.64 452.92 197.52 454.42 196.97 451.23 199.29 448.96 196.08 448.5" style="fill:#92E3A9"></polygon><polygon points="149.56 464.11 148.13 461.2 146.69 464.11 143.48 464.57 145.21 466.25 151.04 466.25 152.77 464.57 149.56 464.11" style="fill:#92E3A9"></polygon><polygon points="202.39 464.11 199.18 464.57 200.91 466.25 203.37 466.25 203.37 462.12 202.39 464.11" style="fill:#92E3A9"></polygon><polygon points="168.23 464.11 166.79 461.2 165.36 464.11 162.15 464.57 163.88 466.25 169.71 466.25 171.44 464.57 168.23 464.11" style="fill:#92E3A9"></polygon><polygon points="186.59 464.11 185.16 461.2 183.72 464.11 180.51 464.57 182.24 466.25 188.07 466.25 189.8 464.57 186.59 464.11" style="fill:#92E3A9"></polygon><polygon points="177.41 419.73 175.97 416.82 174.54 419.73 171.33 420.19 173.65 422.46 173.1 425.65 175.97 424.15 178.85 425.65 178.3 422.46 180.62 420.19 177.41 419.73" style="fill:#92E3A9"></polygon><polygon points="149.56 435.34 148.13 432.43 146.69 435.34 143.48 435.8 145.8 438.07 145.25 441.26 148.13 439.75 151 441.26 150.45 438.07 152.77 435.8 149.56 435.34" style="fill:#92E3A9"></polygon><polygon points="177.41 448.5 175.97 445.59 174.54 448.5 171.33 448.96 173.65 451.23 173.1 454.42 175.97 452.92 178.85 454.42 178.3 451.23 180.62 448.96 177.41 448.5" style="fill:#92E3A9"></polygon><polygon points="136.07 454.42 138.94 452.92 141.81 454.42 141.27 451.23 143.59 448.96 140.38 448.5 138.94 445.59 137.51 448.5 134.3 448.96 136.62 451.23 136.07 454.42" style="fill:#92E3A9"></polygon><polygon points="140.38 419.73 138.94 416.82 137.51 419.73 134.3 420.19 136.62 422.46 136.07 425.65 138.94 424.15 141.81 425.65 141.27 422.46 143.59 420.19 140.38 419.73" style="fill:#92E3A9"></polygon><polygon points="159.05 419.73 157.61 416.82 156.18 419.73 152.97 420.19 155.29 422.46 154.74 425.65 157.61 424.15 160.48 425.65 159.94 422.46 162.26 420.19 159.05 419.73" style="fill:#92E3A9"></polygon><polygon points="168.23 435.34 166.79 432.43 165.36 435.34 162.15 435.8 164.47 438.07 163.92 441.26 166.79 439.75 169.66 441.26 169.12 438.07 171.44 435.8 168.23 435.34" style="fill:#92E3A9"></polygon><polygon points="159.05 448.5 157.61 445.59 156.18 448.5 152.97 448.96 155.29 451.23 154.74 454.42 157.61 452.92 160.48 454.42 159.94 451.23 162.26 448.96 159.05 448.5" style="fill:#92E3A9"></polygon><rect x="131.78" y="412.95" width="71.58" height="53.31" style="fill:none;stroke:#263238;stroke-linecap:round;stroke-linejoin:round"></rect><rect x="161.48" y="404.15" width="12.18" height="70.89" transform="translate(607.18 272.02) rotate(90)" style="fill:#92E3A9;stroke:#263238;stroke-linecap:round;stroke-linejoin:round"></rect><rect x="161.48" y="412.95" width="12.18" height="53.31" style="fill:#92E3A9;stroke:#263238;stroke-linecap:round;stroke-linejoin:round"></rect></g><g id="Floor"><line x1="477" y1="466.25" x2="10.37" y2="466.25" style="fill:none;stroke:#263238;stroke-linecap:round;stroke-linejoin:round"></line></g><g id="Calendar"><polyline points="173.04 91.09 265.39 29.65 352.32 90.92" style="fill:none;stroke:#263238;stroke-linecap:round;stroke-linejoin:round"></polyline><circle cx="265.39" cy="29.65" r="1.88" style="fill:#263238"></circle><line x1="166.52" y1="93.06" x2="358.54" y2="93.06" style="fill:none;stroke:#263238;stroke-linecap:round;stroke-linejoin:round;stroke-width:5px"></line><line x1="166.52" y1="383.16" x2="358.54" y2="383.16" style="fill:none;stroke:#263238;stroke-linecap:round;stroke-linejoin:round;stroke-width:5px"></line><rect x="169.95" y="90.87" width="186.88" height="294.09" style="fill:#fff;stroke:#263238;stroke-linecap:round;stroke-linejoin:round"></rect><path d="M175.66,166.21s.32-.15.92-.4" style="fill:none;stroke:#263238;stroke-linecap:round;stroke-linejoin:round"></path><path d="M178.45,165.1a64.75,64.75,0,0,1,37.22-1.75c21.71,5.72,21.78,10.67,41.14,8,16.58-2.28,29.15-17.14,53.15-11.43,22.6,5.38,28.48,13.29,38.15,9.91" style="fill:none;stroke:#263238;stroke-linecap:round;stroke-linejoin:round;stroke-dasharray:2.0085198879241943,2.0085198879241943"></path><path d="M349.05,169.47c.3-.12.61-.26.92-.4" style="fill:none;stroke:#263238;stroke-linecap:round;stroke-linejoin:round"></path><path d="M196.54,156.21l.47-4.7a13.72,13.72,0,0,1-5.76-1.69,3.4,3.4,0,0,1-1.83-3c0-1.75,1.54-3.46,3.32-4.87a5.17,5.17,0,0,1-1.86-2c-.47-.94-1.72-3.43,6.84-9.88l1.38-1.38a4.6,4.6,0,0,1,3.66-1.67,6.61,6.61,0,0,1,4.13,1.54c8.58,7.1,9.64,9.41,8.62,11.41a5.23,5.23,0,0,1-1.88,2c1.81,1.41,3.35,3.12,3.36,4.87a3.38,3.38,0,0,1-1.85,3,14.28,14.28,0,0,1-5.89,1.69l.48,4.69Z" style="fill:#92E3A9;stroke:#263238;stroke-linecap:round;stroke-linejoin:round"></path><path d="M208.83,141.4s3.83-.47,4.79-2.35c.66-1.3-4.69-6-8.07-8.81-1.44-1.19-3.74-1.59-4.86-.1l-1.58,1.57s-7.28,5.46-6.34,7.34,4.7,2.35,4.7,2.35S189,146.1,192.3,148a12.65,12.65,0,0,0,7,1.41l-.47,4.7h8.51l-.48-4.7A13.13,13.13,0,0,0,214.1,148C217.46,146.1,208.83,141.4,208.83,141.4Z" style="fill:#92E3A9;stroke:#263238;stroke-linecap:round;stroke-linejoin:round;stroke-width:0.5px;stroke-dasharray:1"></path><path d="M290.27,156.21l.47-4.7a13.72,13.72,0,0,1-5.76-1.69,3.38,3.38,0,0,1-1.83-3c0-1.75,1.53-3.46,3.32-4.87a5.12,5.12,0,0,1-1.87-2c-.47-.94-1.72-3.43,6.85-9.88l1.38-1.38a4.59,4.59,0,0,1,3.65-1.67,6.63,6.63,0,0,1,4.14,1.54c8.58,7.1,9.63,9.41,8.61,11.41a5.16,5.16,0,0,1-1.88,2c1.81,1.41,3.36,3.12,3.37,4.87a3.37,3.37,0,0,1-1.86,3,14.24,14.24,0,0,1-5.88,1.69l.48,4.69Z" style="fill:#92E3A9;stroke:#263238;stroke-linecap:round;stroke-linejoin:round"></path><path d="M302.55,141.4s3.84-.47,4.8-2.35c.66-1.3-4.69-6-8.08-8.81-1.43-1.19-3.74-1.59-4.86-.1l-1.57,1.57s-7.29,5.46-6.35,7.34,4.71,2.35,4.71,2.35-8.47,4.7-5.18,6.58a12.69,12.69,0,0,0,7.06,1.41l-.47,4.7h8.51l-.48-4.7a13.14,13.14,0,0,0,7.19-1.41C311.18,146.1,302.55,141.4,302.55,141.4Z" style="fill:#92E3A9;stroke:#263238;stroke-linecap:round;stroke-linejoin:round;stroke-width:0.5px;stroke-dasharray:1"></path><path d="M327.92,156.21l.36-3.55a10.46,10.46,0,0,1-4.36-1.29,2.52,2.52,0,0,1-1.38-2.24c0-1.32,1.16-2.62,2.51-3.69a3.77,3.77,0,0,1-1.41-1.5c-.36-.71-1.3-2.6,5.17-7.48l1.05-1a3.45,3.45,0,0,1,2.76-1.26,5,5,0,0,1,3.13,1.16c6.49,5.37,7.29,7.12,6.52,8.63a3.91,3.91,0,0,1-1.42,1.49c1.37,1.07,2.54,2.37,2.55,3.69a2.56,2.56,0,0,1-1.41,2.25,10.88,10.88,0,0,1-4.45,1.28l.36,3.55Z" style="fill:#92E3A9;stroke:#263238;stroke-linecap:round;stroke-linejoin:round"></path><path d="M337.22,145s2.9-.35,3.62-1.77c.5-1-3.54-4.55-6.11-6.67-1.08-.9-2.82-1.2-3.67-.07l-1.19,1.19s-5.51,4.12-4.8,5.55,3.55,1.77,3.55,1.77-6.4,3.56-3.91,5a9.53,9.53,0,0,0,5.34,1.07l-.36,3.56h6.44l-.36-3.56a9.88,9.88,0,0,0,5.44-1.07C343.75,148.56,337.22,145,337.22,145Z" style="fill:#92E3A9;stroke:#263238;stroke-linecap:round;stroke-linejoin:round;stroke-dasharray:1"></path><circle cx="249.56" cy="136.85" r="5.48" style="fill:#fff;stroke:#263238;stroke-linecap:round;stroke-linejoin:round"></circle><circle cx="249.56" cy="136.85" r="3.92" style="fill:#fff;stroke:#263238;stroke-linecap:round;stroke-linejoin:round;stroke-width:0.5px;stroke-dasharray:1"></circle><path d="M256.23,147.21a6.67,6.67,0,1,1-6.67-6.67A6.68,6.68,0,0,1,256.23,147.21Z" style="fill:#fff;stroke:#263238;stroke-linecap:round;stroke-linejoin:round"></path><path d="M254.33,147.21a4.77,4.77,0,1,1-4.77-4.77A4.77,4.77,0,0,1,254.33,147.21Z" style="fill:#fff;stroke:#263238;stroke-linecap:round;stroke-linejoin:round;stroke-width:0.5px;stroke-dasharray:1"></path><circle cx="249.56" cy="158.77" r="9.42" transform="translate(-41.89 108.28) rotate(-22.64)" style="fill:#fff;stroke:#263238;stroke-linecap:round;stroke-linejoin:round"></circle><path d="M256.29,158.77a6.74,6.74,0,1,1-6.73-6.73A6.73,6.73,0,0,1,256.29,158.77Z" style="fill:#fff;stroke:#263238;stroke-linecap:round;stroke-linejoin:round;stroke-width:0.5px;stroke-dasharray:1"></path><circle cx="247.82" cy="136.17" r="0.97" style="fill:#263238"></circle><circle cx="251" cy="136.17" r="0.97" style="fill:#263238"></circle><path d="M247.24,138.18a3,3,0,0,0,4.15,0" style="fill:none;stroke:#263238;stroke-linecap:round;stroke-linejoin:round"></path><path d="M247.24,141.69a1.17,1.17,0,1,1-1.17-1.17A1.17,1.17,0,0,1,247.24,141.69Z" style="fill:#92E3A9;stroke:#263238;stroke-linecap:round;stroke-linejoin:round"></path><path d="M254.25,141.69a1.17,1.17,0,0,1-2.34,0,1.17,1.17,0,0,1,2.34,0Z" style="fill:#92E3A9;stroke:#263238;stroke-linecap:round;stroke-linejoin:round"></path><path d="M252.43,143.12a1.17,1.17,0,1,1-1.17-1.17A1.17,1.17,0,0,1,252.43,143.12Z" style="fill:#92E3A9;stroke:#263238;stroke-linecap:round;stroke-linejoin:round"></path><path d="M249.44,143.12a1.17,1.17,0,1,1-1.16-1.17A1.16,1.16,0,0,1,249.44,143.12Z" style="fill:#92E3A9;stroke:#263238;stroke-linecap:round;stroke-linejoin:round"></path><path d="M250.87,144.94a1.17,1.17,0,1,1-1.17-1.17A1.17,1.17,0,0,1,250.87,144.94Z" style="fill:#92E3A9;stroke:#263238;stroke-linecap:round;stroke-linejoin:round"></path><path d="M250.87,147.28a1.17,1.17,0,1,1-1.17-1.17A1.16,1.16,0,0,1,250.87,147.28Z" style="fill:#92E3A9;stroke:#263238;stroke-linecap:round;stroke-linejoin:round"></path><line x1="183.09" y1="122.2" x2="183.09" y2="130.2" style="fill:none;stroke:#92E3A9;stroke-linecap:round;stroke-linejoin:round"></line><line x1="187.09" y1="126.2" x2="179.09" y2="126.2" style="fill:none;stroke:#92E3A9;stroke-linecap:round;stroke-linejoin:round"></line><line x1="185.92" y1="129.03" x2="180.26" y2="123.37" style="fill:none;stroke:#92E3A9;stroke-linecap:round;stroke-linejoin:round"></line><line x1="185.92" y1="123.37" x2="180.26" y2="129.03" style="fill:none;stroke:#92E3A9;stroke-linecap:round;stroke-linejoin:round"></line><line x1="225.95" y1="143.92" x2="225.95" y2="151.92" style="fill:none;stroke:#92E3A9;stroke-linecap:round;stroke-linejoin:round"></line><line x1="229.95" y1="147.92" x2="221.95" y2="147.92" style="fill:none;stroke:#92E3A9;stroke-linecap:round;stroke-linejoin:round"></line><line x1="228.78" y1="150.75" x2="223.12" y2="145.09" style="fill:none;stroke:#92E3A9;stroke-linecap:round;stroke-linejoin:round"></line><line x1="228.78" y1="145.09" x2="223.12" y2="150.75" style="fill:none;stroke:#92E3A9;stroke-linecap:round;stroke-linejoin:round"></line><line x1="222.24" y1="95.06" x2="222.24" y2="103.06" style="fill:none;stroke:#92E3A9;stroke-linecap:round;stroke-linejoin:round"></line><line x1="226.24" y1="99.06" x2="218.24" y2="99.06" style="fill:none;stroke:#92E3A9;stroke-linecap:round;stroke-linejoin:round"></line><line x1="225.07" y1="101.89" x2="219.41" y2="96.23" style="fill:none;stroke:#92E3A9;stroke-linecap:round;stroke-linejoin:round"></line><line x1="225.07" y1="96.23" x2="219.41" y2="101.89" style="fill:none;stroke:#92E3A9;stroke-linecap:round;stroke-linejoin:round"></line><line x1="325.39" y1="120.49" x2="325.39" y2="128.49" style="fill:none;stroke:#92E3A9;stroke-linecap:round;stroke-linejoin:round"></line><line x1="329.39" y1="124.49" x2="321.39" y2="124.49" style="fill:none;stroke:#92E3A9;stroke-linecap:round;stroke-linejoin:round"></line><line x1="328.22" y1="127.32" x2="322.56" y2="121.66" style="fill:none;stroke:#92E3A9;stroke-linecap:round;stroke-linejoin:round"></line><line x1="328.22" y1="121.66" x2="322.56" y2="127.32" style="fill:none;stroke:#92E3A9;stroke-linecap:round;stroke-linejoin:round"></line><line x1="272.53" y1="135.92" x2="272.53" y2="143.92" style="fill:none;stroke:#92E3A9;stroke-linecap:round;stroke-linejoin:round"></line><line x1="276.53" y1="139.92" x2="268.53" y2="139.92" style="fill:none;stroke:#92E3A9;stroke-linecap:round;stroke-linejoin:round"></line><line x1="275.36" y1="142.75" x2="269.7" y2="137.09" style="fill:none;stroke:#92E3A9;stroke-linecap:round;stroke-linejoin:round"></line><line x1="275.36" y1="137.09" x2="269.7" y2="142.75" style="fill:none;stroke:#92E3A9;stroke-linecap:round;stroke-linejoin:round"></line><line x1="265.67" y1="157.35" x2="265.67" y2="165.35" style="fill:none;stroke:#92E3A9;stroke-linecap:round;stroke-linejoin:round"></line><line x1="269.67" y1="161.35" x2="261.67" y2="161.35" style="fill:none;stroke:#92E3A9;stroke-linecap:round;stroke-linejoin:round"></line><line x1="268.5" y1="164.18" x2="262.84" y2="158.52" style="fill:none;stroke:#92E3A9;stroke-linecap:round;stroke-linejoin:round"></line><line x1="268.5" y1="158.52" x2="262.84" y2="164.18" style="fill:none;stroke:#92E3A9;stroke-linecap:round;stroke-linejoin:round"></line><line x1="341.68" y1="99.34" x2="341.68" y2="107.34" style="fill:none;stroke:#92E3A9;stroke-linecap:round;stroke-linejoin:round"></line><line x1="345.68" y1="103.34" x2="337.68" y2="103.34" style="fill:none;stroke:#92E3A9;stroke-linecap:round;stroke-linejoin:round"></line><line x1="344.51" y1="106.17" x2="338.85" y2="100.52" style="fill:none;stroke:#92E3A9;stroke-linecap:round;stroke-linejoin:round"></line><line x1="344.51" y1="100.52" x2="338.85" y2="106.17" style="fill:none;stroke:#92E3A9;stroke-linecap:round;stroke-linejoin:round"></line><line x1="346.82" y1="152.21" x2="346.82" y2="160.21" style="fill:none;stroke:#92E3A9;stroke-linecap:round;stroke-linejoin:round"></line><line x1="350.82" y1="156.21" x2="342.82" y2="156.21" style="fill:none;stroke:#92E3A9;stroke-linecap:round;stroke-linejoin:round"></line><line x1="349.65" y1="159.04" x2="344" y2="153.38" style="fill:none;stroke:#92E3A9;stroke-linecap:round;stroke-linejoin:round"></line><line x1="349.65" y1="153.38" x2="344" y2="159.04" style="fill:none;stroke:#92E3A9;stroke-linecap:round;stroke-linejoin:round"></line><line x1="281.39" y1="97.06" x2="281.39" y2="105.06" style="fill:none;stroke:#92E3A9;stroke-linecap:round;stroke-linejoin:round"></line><line x1="285.39" y1="101.06" x2="277.39" y2="101.06" style="fill:none;stroke:#92E3A9;stroke-linecap:round;stroke-linejoin:round"></line><line x1="284.22" y1="103.89" x2="278.56" y2="98.23" style="fill:none;stroke:#92E3A9;stroke-linecap:round;stroke-linejoin:round"></line><line x1="284.22" y1="98.23" x2="278.56" y2="103.89" style="fill:none;stroke:#92E3A9;stroke-linecap:round;stroke-linejoin:round"></line><path d="M212.66,184.62c-17.66,4.89-30.28,1-33.71-.31v39.48h33.71Z" style="fill:#fff;stroke:#263238;stroke-linecap:round;stroke-linejoin:round"></path><path d="M246.34,184.62c-17.66,4.89-30.28,1-33.71-.31v39.48h33.71Z" style="fill:#fff;stroke:#263238;stroke-linecap:round;stroke-linejoin:round"></path><path d="M280,184.62c-17.66,4.89-30.28,1-33.71-.31v39.48H280Z" style="fill:#fff;stroke:#263238;stroke-linecap:round;stroke-linejoin:round"></path><path d="M313.71,184.62c-17.66,4.89-30.28,1-33.71-.31v39.48h33.71Z" style="fill:#fff;stroke:#263238;stroke-linecap:round;stroke-linejoin:round"></path><path d="M347.4,184.62c-17.66,4.89-30.28,1-33.71-.31v39.48H347.4Z" style="fill:#fff;stroke:#263238;stroke-linecap:round;stroke-linejoin:round"></path><path d="M212.66,223.62c-17.88,6.93-30.28,1-33.71-.3v39.47h33.71Z" style="fill:#fff;stroke:#263238;stroke-linecap:round;stroke-linejoin:round"></path><path d="M246.34,223.62c-17.66,4.89-30.28,1-33.71-.3v39.47h33.71Z" style="fill:#fff;stroke:#263238;stroke-linecap:round;stroke-linejoin:round"></path><path d="M280,223.62c-17.66,4.89-30.28,1-33.71-.3v39.47H280Z" style="fill:#fff;stroke:#263238;stroke-linecap:round;stroke-linejoin:round"></path><path d="M313.71,223.62c-17.66,4.89-30.28,1-33.71-.3v39.47h33.71Z" style="fill:#fff;stroke:#263238;stroke-linecap:round;stroke-linejoin:round"></path><path d="M347.4,223.62c-17.66,4.89-30.28,1-33.71-.3v39.47H347.4Z" style="fill:#fff;stroke:#263238;stroke-linecap:round;stroke-linejoin:round"></path><path d="M212.66,262.63c-18.74,9.27-30.28,1-33.71-.31v39.47h33.71Z" style="fill:#fff;stroke:#263238;stroke-linecap:round;stroke-linejoin:round"></path><path d="M246.34,262.63c-17.66,4.89-30.28,1-33.71-.31v39.47h33.71Z" style="fill:#fff;stroke:#263238;stroke-linecap:round;stroke-linejoin:round"></path><path d="M280,262.63c-19.54,10.44-30.28,1-33.71-.31v39.47H280Z" style="fill:#fff;stroke:#263238;stroke-linecap:round;stroke-linejoin:round"></path><path d="M313.71,262.63c-17.66,4.89-30.28,1-33.71-.31v39.47h33.71Z" style="fill:#fff;stroke:#263238;stroke-linecap:round;stroke-linejoin:round"></path><path d="M347.4,262.63c-17.66,4.89-30.28,1-33.71-.31v39.47H347.4Z" style="fill:#fff;stroke:#263238;stroke-linecap:round;stroke-linejoin:round"></path><path d="M212.66,301.63c-17.66,4.89-30.28,1-33.71-.3V340.8h33.71Z" style="fill:#fff;stroke:#263238;stroke-linecap:round;stroke-linejoin:round"></path><path d="M246.34,301.63c-17.66,4.89-30.28,1-33.71-.3V340.8h33.71Z" style="fill:#fff;stroke:#263238;stroke-linecap:round;stroke-linejoin:round"></path><path d="M280,301.63c-17.66,4.89-30.28,1-33.71-.3V340.8H280Z" style="fill:#fff;stroke:#263238;stroke-linecap:round;stroke-linejoin:round"></path><path d="M313.71,301.63c-19.91,11.67-30.28,1-33.71-.3V340.8h33.71Z" style="fill:#fff;stroke:#263238;stroke-linecap:round;stroke-linejoin:round"></path><path d="M347.4,301.63c-17.66,4.89-30.28,1-33.71-.3V340.8H347.4Z" style="fill:#fff;stroke:#263238;stroke-linecap:round;stroke-linejoin:round"></path><path d="M212.66,340.63c-17.66,4.9-30.28,1-33.71-.3V379.8h33.71Z" style="fill:#fff;stroke:#263238;stroke-linecap:round;stroke-linejoin:round"></path><path d="M246.34,340.63c-20,9.94-30.28,1-33.71-.3V379.8h33.71Z" style="fill:#fff;stroke:#263238;stroke-linecap:round;stroke-linejoin:round"></path><path d="M280,340.63c-17.66,4.9-30.28,1-33.71-.3V379.8H280Z" style="fill:#fff;stroke:#263238;stroke-linecap:round;stroke-linejoin:round"></path><path d="M313.71,340.63c-17.66,4.9-30.28,1-33.71-.3V379.8h33.71Z" style="fill:#fff;stroke:#263238;stroke-linecap:round;stroke-linejoin:round"></path><path d="M347.4,340.63c-17.66,4.9-30.28,1-33.71-.3V379.8H347.4Z" style="fill:#fff;stroke:#263238;stroke-linecap:round;stroke-linejoin:round"></path><path d="M270.24,255.69a4.64,4.64,0,0,0-8.38,1.26L259,267.25a17.76,17.76,0,0,0,2.89.27l2.73-9.81a1.78,1.78,0,0,1,2-1.28,1.77,1.77,0,0,1,1.45,2.28l-1.57,5.19a1.43,1.43,0,1,0,2.74.83l1.57-5.19A4.63,4.63,0,0,0,270.24,255.69Z" style="fill:#fff;stroke:#263238;stroke-linecap:round;stroke-linejoin:round"></path><path d="M266.87,256.5a1.75,1.75,0,0,1,1,.73,1.79,1.79,0,0,1,.26,1.21l.68-4.19a4.89,4.89,0,0,0-1.79-.66h-.13Z" style="fill:#92E3A9;stroke:#263238;stroke-linecap:round;stroke-linejoin:round;stroke-width:0.5px"></path><polygon points="259.81 264.3 262.12 266.71 262.71 264.57 260.41 262.17 259.81 264.3" style="fill:#92E3A9;stroke:#263238;stroke-linecap:round;stroke-linejoin:round;stroke-width:0.5px"></polygon><polygon points="261.01 260 263.14 263.03 263.8 260.65 261.67 257.62 261.01 260" style="fill:#92E3A9;stroke:#263238;stroke-linecap:round;stroke-linejoin:round;stroke-width:0.5px"></polygon><path d="M262.63,255.4l1.71,3.31.28-1a1.79,1.79,0,0,1,.81-1l-1.3-2.53A4.58,4.58,0,0,0,262.63,255.4Z" style="fill:#92E3A9;stroke:#263238;stroke-linecap:round;stroke-linejoin:round;stroke-width:0.5px"></path><path d="M270.77,259.54a4.63,4.63,0,0,0,.18-1.77l-3.14,1.67L267,262l3.57-1.89Z" style="fill:#92E3A9;stroke:#263238;stroke-linecap:round;stroke-linejoin:round;stroke-width:0.5px"></path><path d="M202.72,215a4.64,4.64,0,0,0-8.38,1.25l-2.86,10.31a16.77,16.77,0,0,0,2.89.26l2.73-9.8a1.79,1.79,0,0,1,2-1.29,1.76,1.76,0,0,1,1.25.81,1.7,1.7,0,0,1,.2,1.47l-1.57,5.2a1.43,1.43,0,0,0,2.74.83l1.57-5.2A4.6,4.6,0,0,0,202.72,215Z" style="fill:#fff;stroke:#263238;stroke-linecap:round;stroke-linejoin:round"></path><path d="M199.35,215.77a1.77,1.77,0,0,1,1,.74,1.7,1.7,0,0,1,.26,1.2l.68-4.19a4.7,4.7,0,0,0-1.79-.65h-.13Z" style="fill:#92E3A9;stroke:#263238;stroke-linecap:round;stroke-linejoin:round;stroke-width:0.5px"></path><polygon points="192.29 223.58 194.6 225.98 195.19 223.84 192.89 221.44 192.29 223.58" style="fill:#92E3A9;stroke:#263238;stroke-linecap:round;stroke-linejoin:round;stroke-width:0.5px"></polygon><polygon points="193.49 219.27 195.62 222.3 196.28 219.92 194.15 216.9 193.49 219.27" style="fill:#92E3A9;stroke:#263238;stroke-linecap:round;stroke-linejoin:round;stroke-width:0.5px"></polygon><path d="M195.11,214.67l1.71,3.31.28-1a1.73,1.73,0,0,1,.81-1.05l-1.3-2.54A4.71,4.71,0,0,0,195.11,214.67Z" style="fill:#92E3A9;stroke:#263238;stroke-linecap:round;stroke-linejoin:round;stroke-width:0.5px"></path><path d="M203.25,218.81a4.63,4.63,0,0,0,.18-1.77l-3.14,1.67-.78,2.58,3.57-1.9Z" style="fill:#92E3A9;stroke:#263238;stroke-linecap:round;stroke-linejoin:round;stroke-width:0.5px"></path><path d="M190.37,266.34a27.43,27.43,0,0,0,10.39-.18,7.39,7.39,0,1,0-10.39.18Z" style="fill:#fff;stroke:#263238;stroke-linecap:round;stroke-linejoin:round"></path><path d="M194.17,266.74c.9,0,1.87,0,2.92-.08a5.89,5.89,0,1,0-2.92.08Z" style="fill:#92E3A9;stroke:#263238;stroke-linecap:round;stroke-linejoin:round;stroke-width:0.5px"></path><circle cx="195.47" cy="261" r="4.39" style="fill:#fff;stroke:#263238;stroke-linecap:round;stroke-linejoin:round;stroke-width:0.5px"></circle><path d="M198.48,261a3,3,0,1,1-3-3A3,3,0,0,1,198.48,261Z" style="fill:#92E3A9;stroke:#263238;stroke-linecap:round;stroke-linejoin:round;stroke-width:0.5px"></path><path d="M197.71,261a2.24,2.24,0,1,1-2.24-2.25A2.24,2.24,0,0,1,197.71,261Z" style="fill:#fff;stroke:#263238;stroke-linecap:round;stroke-linejoin:round;stroke-width:0.5px"></path><path d="M326.47,342.6a27.27,27.27,0,0,0,10.39-.19,7.39,7.39,0,1,0-10.39.19Z" style="fill:#fff;stroke:#263238;stroke-linecap:round;stroke-linejoin:round"></path><path d="M330.27,343a27,27,0,0,0,2.92-.09,5.87,5.87,0,1,0-2.92.09Z" style="fill:#92E3A9;stroke:#263238;stroke-linecap:round;stroke-linejoin:round;stroke-width:0.5px"></path><circle cx="331.57" cy="337.25" r="4.39" style="fill:#fff;stroke:#263238;stroke-linecap:round;stroke-linejoin:round;stroke-width:0.5px"></circle><path d="M334.58,337.25a3,3,0,1,1-3-3A3,3,0,0,1,334.58,337.25Z" style="fill:#92E3A9;stroke:#263238;stroke-linecap:round;stroke-linejoin:round;stroke-width:0.5px"></path><path d="M333.81,337.25a2.24,2.24,0,1,1-2.24-2.24A2.24,2.24,0,0,1,333.81,337.25Z" style="fill:#fff;stroke:#263238;stroke-linecap:round;stroke-linejoin:round;stroke-width:0.5px"></path><path d="M288.39,305.52l2.55-10.35,16.7,3.34-1.2,6.68S296.45,309.14,288.39,305.52Z" style="fill:#92E3A9;stroke:#263238;stroke-linecap:round;stroke-linejoin:round"></path><path d="M295.69,307a24.47,24.47,0,0,0,2.59-.08l2.3-9.86-2.53-.5Z" style="fill:#fff;stroke:#263238;stroke-linecap:round;stroke-linejoin:round"></path><path d="M220.6,344.11l2.55-10.35,16.7,3.34-1.19,6.68S228.66,347.73,220.6,344.11Z" style="fill:#92E3A9;stroke:#263238;stroke-linecap:round;stroke-linejoin:round"></path><path d="M220.8,343.32l10,2.21a32.67,32.67,0,0,0,4.86-.83l-14.46-3Z" style="fill:#fff;stroke:#263238;stroke-linecap:round;stroke-linejoin:round"></path><path d="M227.91,345.63a24.28,24.28,0,0,0,2.58-.08l2.31-9.86-2.53-.51Z" style="fill:#fff;stroke:#263238;stroke-linecap:round;stroke-linejoin:round"></path><path d="M194.51,195.57a4.2,4.2,0,0,1-2,.61v-1.3A2.43,2.43,0,0,0,195,193h1.1v14.23h-1.57Z" style="fill:#263238"></path><path d="M231.71,196.45c0,4.29-4.81,5.83-4.83,9.1v.23h4.67v1.44h-6.24V206c0-4.59,4.82-5.49,4.82-9.49,0-1.47-.49-2.24-1.67-2.24s-1.66.84-1.66,2.1v1.26h-1.49v-1.16c0-2.18,1-3.62,3.19-3.62S231.71,194.27,231.71,196.45Z" style="fill:#263238"></path><path d="M266.66,196.43v.36a2.82,2.82,0,0,1-1.72,2.93,2.82,2.82,0,0,1,1.72,2.95v1.09c0,2.18-1,3.6-3.21,3.6s-3.19-1.42-3.19-3.6v-1h1.49v1.08c0,1.28.52,2,1.66,2s1.67-.75,1.67-2.2v-1.09c0-1.41-.59-2.08-1.79-2.12h-.85v-1.42h.93a1.71,1.71,0,0,0,1.71-2v-.65c0-1.47-.51-2.22-1.67-2.22s-1.66.79-1.66,2.08v.73h-1.49v-.65c0-2.18,1-3.58,3.19-3.58S266.66,194.25,266.66,196.43Z" style="fill:#263238"></path><path d="M299.32,204.35v2.87h-1.55v-2.87h-4.59v-1.44l4.41-9.92h1.73v9.92h1.14v1.44Zm-4.68-1.44h3.13V196Z" style="fill:#263238"></path><path d="M328.6,198.78a2.3,2.3,0,0,1,2.11-1.18c1.83,0,2.64,1.35,2.64,3.38v2.78c0,2.18-1,3.6-3.21,3.6s-3.19-1.42-3.19-3.6v-.95h1.49v1.06c0,1.28.52,2,1.66,2s1.67-.77,1.67-2V201.1c0-1.28-.53-2-1.67-2a1.53,1.53,0,0,0-1.6,1.52v.33H327l.39-7.91H333v1.42h-4.19Z" style="fill:#263238"></path><path d="M197.47,237.09v.26H196V237c0-1.28-.52-2-1.68-2s-1.73.77-1.73,2.3v3.19a2.29,2.29,0,0,1,2.3-1.52c1.83,0,2.64,1.32,2.64,3.37v2.15c0,2.18-1.08,3.6-3.25,3.6s-3.28-1.42-3.28-3.6v-7.25c0-2.26,1-3.66,3.28-3.66S197.47,234.91,197.47,237.09Zm-4.9,5.32v2.14c0,1.28.53,2,1.69,2s1.68-.77,1.68-2v-2.14c0-1.28-.54-2-1.68-2S192.57,241.13,192.57,242.41Z" style="fill:#263238"></path><path d="M230.05,235.09h-4.84v-1.42h6.44v1.38L228,247.9h-1.59Z" style="fill:#263238"></path><path d="M266.82,237.05v.44a2.81,2.81,0,0,1-1.63,2.93c1.18.47,1.63,1.58,1.63,3v1c0,2.2-1.14,3.56-3.36,3.56s-3.35-1.36-3.35-3.56v-1c0-1.45.45-2.52,1.65-3-1.16-.45-1.65-1.48-1.65-2.93v-.44c0-2.2,1.16-3.52,3.35-3.52S266.82,234.85,266.82,237.05Zm-5.15,0v.69c0,1.38.68,2,1.79,2s1.79-.61,1.79-2v-.69c0-1.47-.67-2.14-1.79-2.14S261.67,235.62,261.67,237.09Zm0,6.15v1.2c0,1.47.66,2.16,1.79,2.16s1.77-.69,1.79-2.16v-1.2c0-1.38-.61-2.05-1.79-2.05S261.67,241.86,261.67,243.24Z" style="fill:#263238"></path><path d="M300,237.11v7.25c0,2.26-1,3.68-3.29,3.68s-3.21-1.4-3.21-3.58v-.26H295v.37c0,1.28.55,2,1.69,2s1.74-.77,1.74-2.28v-3.19a2.25,2.25,0,0,1-2.29,1.5c-1.83,0-2.64-1.3-2.64-3.35v-2.17c0-2.18,1.05-3.58,3.25-3.58S300,234.93,300,237.11Zm-5-.08v2.13c0,1.28.55,2.05,1.69,2.05s1.68-.77,1.68-2.05V237c0-1.31-.52-2.06-1.68-2.06S295.08,235.72,295.08,237Z" style="fill:#263238"></path><path d="M326.46,236.25a4.16,4.16,0,0,1-2,.61v-1.3a2.42,2.42,0,0,0,2.44-1.89H328V247.9h-1.57Z" style="fill:#263238"></path><path d="M330.31,237.11c0-2.18,1.07-3.58,3.25-3.58s3.27,1.4,3.27,3.58v7.33c0,2.18-1.08,3.6-3.27,3.6s-3.25-1.42-3.25-3.6Zm1.56,7.44c0,1.28.55,2,1.69,2s1.69-.77,1.69-2V237c0-1.31-.53-2.08-1.69-2.08s-1.69.77-1.69,2.08Z" style="fill:#263238"></path><path d="M191.08,276.67a4.2,4.2,0,0,1-2,.61V276a2.42,2.42,0,0,0,2.44-1.89h1.1v14.23h-1.56Z" style="fill:#263238"></path><path d="M198,276.67a4.2,4.2,0,0,1-2,.61V276a2.42,2.42,0,0,0,2.43-1.89h1.1v14.23H198Z" style="fill:#263238"></path><path d="M224.78,276.67a4.16,4.16,0,0,1-2,.61V276a2.42,2.42,0,0,0,2.44-1.89h1.1v14.23h-1.57Z" style="fill:#263238"></path><path d="M235.15,277.55c0,4.29-4.82,5.83-4.84,9.1v.23H235v1.44h-6.24V287.1c0-4.59,4.82-5.49,4.82-9.49,0-1.47-.49-2.24-1.67-2.24s-1.67.84-1.67,2.1v1.26h-1.48v-1.16c0-2.18,1-3.62,3.19-3.62S235.15,275.37,235.15,277.55Z" style="fill:#263238"></path><path d="M259.81,276.67a4.16,4.16,0,0,1-2,.61V276a2.42,2.42,0,0,0,2.44-1.89h1.1v14.23h-1.57Z" style="fill:#263238"></path><path d="M270.1,277.53v.36a2.83,2.83,0,0,1-1.73,2.93,2.83,2.83,0,0,1,1.73,2.95v1.09c0,2.18-1,3.6-3.21,3.6s-3.19-1.42-3.19-3.6v-1h1.48V285c0,1.28.53,2,1.67,2s1.66-.75,1.66-2.2v-1.09c0-1.41-.59-2.08-1.78-2.12h-.86v-1.42h.94a1.7,1.7,0,0,0,1.7-1.95v-.65c0-1.47-.5-2.22-1.66-2.22s-1.67.8-1.67,2.08v.73H263.7v-.65c0-2.18,1-3.58,3.19-3.58S270.1,275.35,270.1,277.53Z" style="fill:#263238"></path><path d="M293,276.67a4.2,4.2,0,0,1-2,.61V276a2.42,2.42,0,0,0,2.44-1.89h1.1v14.23H293Z" style="fill:#263238"></path><path d="M302.75,285.45v2.87h-1.54v-2.87h-4.59V284l4.41-9.92h1.72V284h1.14v1.44ZM298.08,284h3.13v-6.95Z" style="fill:#263238"></path><path d="M326.48,276.67a4.16,4.16,0,0,1-2,.61V276a2.42,2.42,0,0,0,2.44-1.89h1.1v14.23h-1.57Z" style="fill:#263238"></path><path d="M332,279.88a2.29,2.29,0,0,1,2.12-1.17c1.83,0,2.64,1.34,2.64,3.37v2.78c0,2.18-1,3.6-3.21,3.6s-3.19-1.42-3.19-3.6v-.95h1.48V285c0,1.28.53,2,1.67,2s1.67-.77,1.67-2V282.2c0-1.28-.53-2.05-1.67-2.05a1.54,1.54,0,0,0-1.61,1.52V282h-1.48l.38-7.91h5.61v1.42h-4.18Z" style="fill:#263238"></path><path d="M190.56,314.53a4.32,4.32,0,0,1-2,.61v-1.3A2.43,2.43,0,0,0,191,312h1.1v14.22h-1.56Z" style="fill:#263238"></path><path d="M200.9,315.36v.27h-1.48v-.37c0-1.28-.53-2-1.69-2S196,314,196,315.52v3.19a2.28,2.28,0,0,1,2.29-1.52c1.83,0,2.64,1.32,2.64,3.37v2.16c0,2.17-1.07,3.6-3.25,3.6s-3.27-1.43-3.27-3.6v-7.26c0-2.25,1-3.66,3.27-3.66S200.9,313.19,200.9,315.36ZM196,320.69v2.13c0,1.28.52,2.05,1.68,2.05s1.69-.77,1.69-2.05v-2.13c0-1.28-.55-2.06-1.69-2.06S196,319.41,196,320.69Z" style="fill:#263238"></path><path d="M224.78,314.53a4.28,4.28,0,0,1-2,.61v-1.3a2.43,2.43,0,0,0,2.44-1.89h1.1v14.22h-1.57Z" style="fill:#263238"></path><path d="M233.48,313.37h-4.83V312h6.44v1.38l-3.66,12.84h-1.58Z" style="fill:#263238"></path><path d="M259.76,314.53a4.28,4.28,0,0,1-2,.61v-1.3a2.43,2.43,0,0,0,2.44-1.89h1.1v14.22h-1.57Z" style="fill:#263238"></path><path d="M270.25,315.32v.45a2.82,2.82,0,0,1-1.62,2.93c1.17.46,1.62,1.58,1.62,3v1.06c0,2.2-1.14,3.56-3.35,3.56s-3.36-1.36-3.36-3.56V321.7c0-1.44.45-2.52,1.65-3a2.79,2.79,0,0,1-1.65-2.93v-.45c0-2.19,1.16-3.52,3.36-3.52S270.25,313.13,270.25,315.32Zm-5.14,0v.69c0,1.38.67,2,1.79,2s1.79-.61,1.79-2v-.69c0-1.46-.67-2.13-1.79-2.13S265.11,313.9,265.11,315.36Zm0,6.16v1.2c0,1.46.65,2.15,1.79,2.15s1.77-.69,1.79-2.15v-1.2c0-1.38-.61-2-1.79-2S265.11,320.14,265.11,321.52Z" style="fill:#263238"></path><path d="M293.13,314.53a4.32,4.32,0,0,1-2,.61v-1.3A2.45,2.45,0,0,0,293.6,312h1.09v14.22h-1.56Z" style="fill:#263238"></path><path d="M303.48,315.38v7.26c0,2.25-1,3.68-3.3,3.68s-3.21-1.41-3.21-3.58v-.27h1.49v.37c0,1.28.54,2,1.68,2s1.75-.77,1.75-2.27v-3.19a2.28,2.28,0,0,1-2.3,1.5c-1.83,0-2.64-1.3-2.64-3.35v-2.18c0-2.17,1.06-3.58,3.25-3.58S303.48,313.21,303.48,315.38Zm-5-.08v2.13c0,1.28.54,2.06,1.68,2.06s1.69-.78,1.69-2.06V315.3c0-1.3-.53-2.05-1.69-2.05S298.52,314,298.52,315.3Z" style="fill:#263238"></path><path d="M329.46,315.4c0,4.29-4.82,5.84-4.84,9.11v.22h4.68v1.44h-6.24V325c0-4.6,4.82-5.49,4.82-9.5,0-1.46-.49-2.23-1.67-2.23s-1.67.83-1.67,2.09v1.26h-1.48v-1.16c0-2.17,1-3.62,3.19-3.62S329.46,313.23,329.46,315.4Z" style="fill:#263238"></path><path d="M330.8,315.38c0-2.17,1.08-3.58,3.26-3.58s3.27,1.41,3.27,3.58v7.34c0,2.17-1.08,3.6-3.27,3.6s-3.26-1.43-3.26-3.6Zm1.57,7.44c0,1.28.55,2.05,1.69,2.05s1.68-.77,1.68-2.05V315.3c0-1.3-.53-2.07-1.68-2.07s-1.69.77-1.69,2.07Z" style="fill:#263238"></path><path d="M194.07,355.52c0,4.29-4.81,5.83-4.83,9.1v.23h4.67v1.44h-6.24v-1.22c0-4.59,4.82-5.49,4.82-9.49,0-1.46-.49-2.24-1.67-2.24s-1.66.84-1.66,2.1v1.26h-1.49v-1.16c0-2.18,1-3.62,3.19-3.62S194.07,353.34,194.07,355.52Z" style="fill:#263238"></path><path d="M198.45,354.64a4.2,4.2,0,0,1-2,.61V354a2.42,2.42,0,0,0,2.44-1.89H200v14.23h-1.56Z" style="fill:#263238"></path><path d="M227.78,355.52c0,4.29-4.82,5.83-4.84,9.1v.23h4.68v1.44h-6.24v-1.22c0-4.59,4.82-5.49,4.82-9.49,0-1.46-.49-2.24-1.67-2.24s-1.67.84-1.67,2.1v1.26h-1.48v-1.16c0-2.18,1-3.62,3.19-3.62S227.78,353.34,227.78,355.52Z" style="fill:#263238"></path><path d="M235.65,355.52c0,4.29-4.82,5.83-4.84,9.1v.23h4.68v1.44h-6.24v-1.22c0-4.59,4.81-5.49,4.81-9.49,0-1.46-.48-2.24-1.66-2.24s-1.67.84-1.67,2.1v1.26h-1.48v-1.16c0-2.18,1-3.62,3.19-3.62S235.65,353.34,235.65,355.52Z" style="fill:#263238"></path><path d="M262.81,355.52c0,4.29-4.81,5.83-4.84,9.1v.23h4.68v1.44h-6.24v-1.22c0-4.59,4.82-5.49,4.82-9.49,0-1.46-.49-2.24-1.67-2.24s-1.67.84-1.67,2.1v1.26h-1.48v-1.16c0-2.18,1-3.62,3.19-3.62S262.81,353.34,262.81,355.52Z" style="fill:#263238"></path><path d="M270.6,355.5v.36a2.83,2.83,0,0,1-1.73,2.93,2.83,2.83,0,0,1,1.73,2.95v1.09c0,2.18-1,3.6-3.21,3.6s-3.19-1.42-3.19-3.6v-1h1.48v1.08c0,1.28.53,2.05,1.67,2.05s1.66-.75,1.66-2.2V361.7c0-1.41-.59-2.08-1.79-2.12h-.85v-1.42h.94a1.7,1.7,0,0,0,1.7-2v-.65c0-1.47-.51-2.22-1.66-2.22s-1.67.8-1.67,2.08v.73H264.2v-.65c0-2.18,1-3.58,3.19-3.58S270.6,353.32,270.6,355.5Z" style="fill:#263238"></path><path d="M296,355.52c0,4.29-4.81,5.83-4.83,9.1v.23h4.67v1.44h-6.24v-1.22c0-4.59,4.82-5.49,4.82-9.49,0-1.46-.49-2.24-1.67-2.24s-1.66.84-1.66,2.1v1.26h-1.49v-1.16c0-2.18,1-3.62,3.19-3.62S296,353.34,296,355.52Z" style="fill:#263238"></path><path d="M303.25,363.42v2.87h-1.54v-2.87h-4.6V362l4.41-9.92h1.73V362h1.14v1.44ZM298.58,362h3.13v-7Z" style="fill:#263238"></path><path d="M329.48,355.52c0,4.29-4.81,5.83-4.84,9.1v.23h4.68v1.44h-6.24v-1.22c0-4.59,4.82-5.49,4.82-9.49,0-1.46-.49-2.24-1.67-2.24s-1.67.84-1.67,2.1v1.26h-1.48v-1.16c0-2.18,1-3.62,3.19-3.62S329.48,353.34,329.48,355.52Z" style="fill:#263238"></path><path d="M332.53,357.86a2.28,2.28,0,0,1,2.12-1.18c1.83,0,2.64,1.34,2.64,3.37v2.78c0,2.18-1,3.6-3.21,3.6s-3.19-1.42-3.19-3.6v-.95h1.48v1.06c0,1.28.53,2.05,1.67,2.05s1.66-.77,1.66-2.05v-2.77c0-1.28-.53-2.05-1.66-2.05a1.53,1.53,0,0,0-1.61,1.52V360H331l.38-7.91h5.61v1.43h-4.18Z" style="fill:#263238"></path><path d="M212.41,120.19h-1.52l-2.36-11.32v11.34h-1.38V106h2.21l2.34,11.36L214,106h2.21v14.23h-1.5V108.77Z" style="fill:#263238"></path><path d="M222.86,112.28v1.42h-3.48v5.07h4.27v1.44H217.8V106h5.85v1.44h-4.27v4.86Z" style="fill:#263238"></path><path d="M228.29,106c2.23,0,3.17,1.14,3.17,3.25v1.16c0,1.57-.55,2.54-1.77,2.93,1.3.38,1.79,1.44,1.79,3v2.21a3.63,3.63,0,0,0,.28,1.71h-1.6a3.76,3.76,0,0,1-.27-1.73v-2.24c0-1.6-.75-2.11-2.07-2.11H226.7v6.08h-1.58V106Zm-.41,6.71c1.26,0,2-.41,2-2v-1.36c0-1.29-.46-2-1.64-2H226.7v5.27Z" style="fill:#263238"></path><path d="M236.3,106c2.23,0,3.17,1.14,3.17,3.25v1.16c0,1.57-.55,2.54-1.77,2.93,1.3.38,1.79,1.44,1.79,3v2.21a3.63,3.63,0,0,0,.28,1.71h-1.6a3.76,3.76,0,0,1-.27-1.73v-2.24c0-1.6-.75-2.11-2.07-2.11h-1.12v6.08h-1.58V106Zm-.41,6.71c1.26,0,2-.41,2-2v-1.36c0-1.29-.46-2-1.64-2h-1.55v5.27Z" style="fill:#263238"></path><path d="M243.45,115.11l-3-9.13h1.64l2.22,7,2.23-7h1.51l-3,9.13v5.1h-1.57Z" style="fill:#263238"></path><path d="M258.62,109.42v1.28h-1.51v-1.37c0-1.28-.5-2-1.66-2s-1.67.77-1.67,2v7.52c0,1.28.53,2.06,1.67,2.06s1.66-.78,1.66-2.06V115h1.51v1.77c0,2.16-1,3.58-3.21,3.58s-3.19-1.42-3.19-3.58v-7.35c0-2.16,1-3.58,3.19-3.58S258.62,107.26,258.62,109.42Z" style="fill:#263238"></path><path d="M261.65,113.81v6.4h-1.59V106h1.59v6.4h3.5V106h1.58v14.23h-1.58v-6.4Z" style="fill:#263238"></path><path d="M271.53,106c2.23,0,3.17,1.14,3.17,3.25v1.16c0,1.57-.55,2.54-1.77,2.93,1.3.38,1.79,1.44,1.79,3v2.21a3.63,3.63,0,0,0,.28,1.71h-1.6a3.76,3.76,0,0,1-.27-1.73v-2.24c0-1.6-.75-2.11-2.07-2.11h-1.12v6.08h-1.58V106Zm-.41,6.71c1.26,0,2-.41,2-2v-1.36c0-1.29-.46-2-1.64-2h-1.55v5.27Z" style="fill:#263238"></path><path d="M278,106v14.23h-1.58V106Z" style="fill:#263238"></path><path d="M285.74,109.4v.38h-1.51v-.47c0-1.28-.48-2-1.62-2s-1.63.75-1.63,2c0,3.19,4.78,3.5,4.78,7.5,0,2.16-1,3.56-3.21,3.56s-3.19-1.4-3.19-3.56V116h1.48v.9c0,1.28.53,2,1.67,2s1.66-.75,1.66-2c0-3.18-4.75-3.48-4.75-7.48,0-2.2,1-3.56,3.15-3.56S285.74,107.24,285.74,109.4Z" style="fill:#263238"></path><path d="M289.22,120.21V107.42h-2.63V106h6.83v1.44H290.8v12.79Z" style="fill:#263238"></path><path d="M299.77,120.19h-1.53l-2.36-11.32v11.34H294.5V106h2.22l2.33,11.36L301.31,106h2.22v14.23H302V108.77Z" style="fill:#263238"></path><path d="M306.76,117.34l-.55,2.87h-1.46L307.47,106h2.3l2.72,14.23h-1.58l-.55-2.87ZM307,116h3.17l-1.6-8.21Z" style="fill:#263238"></path><path d="M319.89,109.4v.38h-1.5v-.47c0-1.28-.49-2-1.63-2s-1.62.75-1.62,2c0,3.19,4.77,3.5,4.77,7.5,0,2.16-1,3.56-3.21,3.56s-3.19-1.4-3.19-3.56V116H315v.9c0,1.28.53,2,1.67,2s1.67-.75,1.67-2c0-3.18-4.76-3.48-4.76-7.48,0-2.2,1-3.56,3.15-3.56S319.89,107.24,319.89,109.4Z" style="fill:#263238"></path></g><g id="Character"><path d="M436.42,259.5s8.27,4.9,11.33,19.89,7,42.84,6.12,51.11-13.47,26-15.61,27.54-3.06-31.83-3.37-33.66-4-64.88-4-64.88S434.59,256.44,436.42,259.5Z" style="fill:#263238;stroke:#263238;stroke-linecap:round;stroke-linejoin:round"></path><path d="M434.89,455.65s2.76,12.24.31,14.38-10.1,3.37-15.91,2.76-12.55-4.9-13.47-5.2-1.22-12.86-1.22-12.86S422.35,459.63,434.89,455.65Z" style="fill:#fff;stroke:#263238;stroke-linecap:round;stroke-linejoin:round"></path><path d="M405.26,465.59c.16,1.14.34,1.92.56,2,.92.3,7.65,4.59,13.47,5.2s13.46-.61,15.91-2.76c.82-.71,1.05-2.56,1-4.7a31.83,31.83,0,0,1-10.8,3.17C418.31,469.42,409.34,466.91,405.26,465.59Z" style="fill:#fff;stroke:#263238;stroke-linecap:round;stroke-linejoin:round"></path><path d="M382,457.18s-11.93,7.35-18.66,8.88-5.51,5.5,0,7.95,13.16,3.67,22.64,3.67,21.12-2.44,26-3.06,2.14-6.73,1.53-10.71-.92-7-.92-7S391.13,460.55,382,457.18Z" style="fill:#fff;stroke:#263238;stroke-linecap:round;stroke-linejoin:round"></path><path d="M385.93,477.68c9.49,0,21.12-2.44,26-3.06,2.4-.29,3-1.91,2.84-3.95-9.58,1.52-25.79,3.78-37.11,2.73-11-1-16.29-3.52-18.61-5.09-1.16,1.81.59,4.09,4.23,5.7C368.8,476.46,376.45,477.68,385.93,477.68Z" style="fill:#fff;stroke:#263238;stroke-linecap:round;stroke-linejoin:round"></path><path d="M374.92,337.84s-.62,31.21-.62,49,8,53.86,8,56.61-2.45,3.67-2.45,7a50,50,0,0,0,.61,7s4,4.28,13.77,4.89a53.94,53.94,0,0,0,18.67-2.44s9.49,1.83,15.61,1.53a11.22,11.22,0,0,0,8.87-5.21s-3.06-41-3.06-45.28V400s6.43-44.68,6.43-51.41v-9.49s-22.65,5.51-39.78,3.37-25.4-6.73-25.4-6.73Z" style="fill:#92E3A9;stroke:#263238;stroke-linecap:round;stroke-linejoin:round"></path><path d="M419.9,365.69l-10.1,3.67s-1.53,37.94-1.84,43.15,5.21,35.49,4.9,47.43" style="fill:none;stroke:#263238;stroke-linecap:round;stroke-linejoin:round"></path><path d="M370.33,329.58s-.31,6.73,1.53,9.79,17.13,8,37.33,9.18,29.38-3.37,31.82-5.81.62-8.27.62-8.27-3.06,4.59-29.38,1.23-41.31-8-41.31-8Z" style="fill:#fff;stroke:#263238;stroke-linecap:round;stroke-linejoin:round"></path><path d="M441.14,278.92s4.06,54.68,1.08,57.66-12.72,5.68-39,3.79-33.29-8.93-34.92-12.45,8.39-48.73,12.45-59a46.35,46.35,0,0,1,12.46-17.05s6.76-2.71,19.49-2.44,15.7,2.71,20.84,7.31a23.83,23.83,0,0,1,7.85,13.53" style="fill:#263238;stroke:#263238;stroke-linecap:round;stroke-linejoin:round"></path><path d="M442.74,279.83c-.1-1.89-.22-3.75-.35-5.55" style="fill:none;stroke:#707070;stroke-miterlimit:10"></path><path d="M443,323.36c.25-9.27.49-24.12,0-38" style="fill:none;stroke:#707070;stroke-miterlimit:10"></path><path d="M442.69,332.57s.09-1.95.2-5.23" style="fill:none;stroke:#707070;stroke-miterlimit:10"></path><path d="M395.12,194.2s-4.06,5.41-3.79,9.2a13.39,13.39,0,0,1-2.16,8.39c-1.36,2.44-6.5,2.17-5.15,5.69s3,4.06,3,4.06,1.08,9.74,2.71,14.62,3,6.22,5.68,6.22a65.05,65.05,0,0,0,6.77-.54l-.27,6.5,23.82.27,1.89-10.29s7.58-25.44,1.09-37.08S403,188,395.12,194.2Z" style="fill:#fff;stroke:#263238;stroke-linecap:round;stroke-linejoin:round"></path><path d="M395.12,210.85c0,1.12-.48,2-1.08,2s-1.08-.91-1.08-2,.48-2,1.08-2S395.12,209.73,395.12,210.85Z" style="fill:#263238"></path><path d="M388.9,227s2.7,2.17,5.68-.81" style="fill:none;stroke:#263238;stroke-linecap:round;stroke-linejoin:round"></path><path d="M393.5,205s2.7-2.17,3.52,2.16" style="fill:none;stroke:#263238;stroke-linecap:round;stroke-linejoin:round"></path><path d="M414.07,176.33s3.25-6.49-2.71-6.22-13.8,8.66-13.8,10.56-3.25-7.31-6.23-1.36.54,14.08,3.52,16.51a14.49,14.49,0,0,0,7.31,2.71s-2.44-.81-2.17,3.79a5.57,5.57,0,0,0,4.06,5.41s-5.14,3.52-4.06,7.58,5.42.54,5.42.54-1.9,3.52.27,2.71S410,215,410,215s7.58,1.09,4.6,8.93-7,7.85-7,7.85.27,6.23,1.63,7.85,3.52-3.24,3.52-3.24,1.08,7.85,5.95,9.74,7.85-6.5,7.85-6.5,6.5,4.61,8.12,2.71,0-4.6,0-4.6,2.71,0,10.29-10.56,7.85-21.92,4.33-33.83S425.71,172,414.07,176.33Z" style="fill:#263238;stroke:#263238;stroke-linecap:round;stroke-linejoin:round"></path><path d="M431.12,250.77s-3.25-5.68-13.8-5.68-19.22-.27-22.2,3a16.76,16.76,0,0,0-3.79,6.22s16-4.06,26.8-1.89,14.62,2.7,14.62,2.7Z" style="fill:#fff;stroke:#263238;stroke-linecap:round;stroke-linejoin:round"></path><path d="M326.64,255.1s-6.23-13-8.66-14.61-11.64-5.15-12.73-2.71,2.44,4.33,4.06,4.87,2.71,2.71,2.71,2.71-3.79,1.62-5.14,3.25-3.79,7-2.17,8.39a24.41,24.41,0,0,0,6,3.79c1.62.54,2.16-1.36,2.16-1.36s.27,1.9,3,2.71a24,24,0,0,0,6.5.81C323.12,263,326.64,255.1,326.64,255.1Z" style="fill:#fff;stroke:#263238;stroke-linecap:round;stroke-linejoin:round"></path><path d="M312.83,259.43l-2.16-3-1.36.27" style="fill:#fff;stroke:#263238;stroke-linecap:round;stroke-linejoin:round"></path><path d="M333.68,256.19s-4.61-3.25-7.58-3-7.31,8.12-5.15,11.64,9.21,6.49,9.21,6.49,2.7-8.93,5.68-11.09S333.68,256.19,333.68,256.19Z" style="fill:#fff;stroke:#263238;stroke-linecap:round;stroke-linejoin:round"></path><path d="M413,256.73s-9.48-5.42-17.06-4.33-27.88,17.86-29,18.13-19-8.39-24.09-10.55-7.58-5.69-10.83-4.06-7,10.82-4.06,15.42,28.15,21.93,34.38,24.37,31.4-3,43.31-11.37" style="fill:#263238;stroke:#263238;stroke-linecap:round;stroke-linejoin:round"></path></g></svg>