<svg xmlns="http://www.w3.org/2000/svg" viewBox="0 0 500 500"><g id="background-simple"><path d="M480.72,218.26c-.55-41.1-15.59-80.77-38.48-111.4A206.78,206.78,0,0,0,395.13,61C376.87,48.35,357,34.14,335,32A40.33,40.33,0,0,0,318.6,33.4C298.05,40,338.71,63.43,344,66.86,287.19,40.75,228.36,14.22,166.24,16.72c-12,.49-24.41,2.22-34.94,9.36S112.62,47,114.19,60.64c1.29,11.29,8.39,23.9,1.73,32.72-1.9,2.52-4.6,4-7.24,5.3-13.59,6.65-28.27,10.13-41.14,18.58C47.6,130.33,34,154.37,27.69,179.67s-6,51.88-3.53,77.61c4.66,48.43,17.33,96.47,43,134.14,36.61,53.79,96.65,81.2,156.79,85.71,72.76,5.47,151.66-23.15,199.77-89.4,7.14-9.82,13.68-20.71,16.28-33s.54-26.36-7.45-34.45c-2.15-2.18-4.92-4.49-4.69-7.88.32-4.58,5.44-6.12,9.34-7.08,25.61-6.31,40.26-39.68,42.9-69.7A173.41,173.41,0,0,0,480.72,218.26Z" style="fill:#92E3A9"></path><path d="M480.72,218.26c-.55-41.1-15.59-80.77-38.48-111.4A206.78,206.78,0,0,0,395.13,61C376.87,48.35,357,34.14,335,32A40.33,40.33,0,0,0,318.6,33.4C298.05,40,338.71,63.43,344,66.86,287.19,40.75,228.36,14.22,166.24,16.72c-12,.49-24.41,2.22-34.94,9.36S112.62,47,114.19,60.64c1.29,11.29,8.39,23.9,1.73,32.72-1.9,2.52-4.6,4-7.24,5.3-13.59,6.65-28.27,10.13-41.14,18.58C47.6,130.33,34,154.37,27.69,179.67s-6,51.88-3.53,77.61c4.66,48.43,17.33,96.47,43,134.14,36.61,53.79,96.65,81.2,156.79,85.71,72.76,5.47,151.66-23.15,199.77-89.4,7.14-9.82,13.68-20.71,16.28-33s.54-26.36-7.45-34.45c-2.15-2.18-4.92-4.49-4.69-7.88.32-4.58,5.44-6.12,9.34-7.08,25.61-6.31,40.26-39.68,42.9-69.7A173.41,173.41,0,0,0,480.72,218.26Z" style="fill:#fff;opacity:0.7000000000000001"></path></g><g id="Floor"><path d="M493.29,453.82H9.32a.5.5,0,0,1-.5-.5.5.5,0,0,1,.5-.5h484a.5.5,0,0,1,.5.5A.5.5,0,0,1,493.29,453.82Z" style="fill:#263238"></path></g><g id="Bar"><path d="M113.48,168.29H105.1a3.31,3.31,0,0,1-3.31-3.3V137.88a5.8,5.8,0,0,1,1.35-3.71,5.05,5.05,0,0,0,1.13-2.54l2.42-17.42a.38.38,0,0,1,.37-.32h4.52a.38.38,0,0,1,.37.32l2.7,17.87a4.93,4.93,0,0,0,.86,2.15l.22.32a5.76,5.76,0,0,1,1.06,3.33V165A3.31,3.31,0,0,1,113.48,168.29Zm-6.09-53.65L105,131.73h0a5.82,5.82,0,0,1-1.29,2.92,5,5,0,0,0-1.18,3.23V165a2.56,2.56,0,0,0,2.56,2.55h8.38A2.56,2.56,0,0,0,116,165V137.88a5,5,0,0,0-.92-2.9l-.22-.31a5.73,5.73,0,0,1-1-2.47l-2.65-17.56Zm-2.75,17h0Z" style="fill:#263238"></path><path d="M111.33,115.27h-4a1.26,1.26,0,0,1,0-2.51h4a1.26,1.26,0,0,1,0,2.51Zm-4-1.76a.51.51,0,0,0,0,1h4a.51.51,0,0,0,0-1Z" style="fill:#263238"></path><path d="M140.12,168.29h-8.39a3.3,3.3,0,0,1-3.3-3.3V137.88a5.8,5.8,0,0,1,1.35-3.71,5.05,5.05,0,0,0,1.13-2.54h0l2.42-17.42a.37.37,0,0,1,.37-.32h4.52a.38.38,0,0,1,.37.32l2.69,17.87a5.07,5.07,0,0,0,.87,2.15l.22.32a5.75,5.75,0,0,1,1,3.33V165A3.3,3.3,0,0,1,140.12,168.29Zm-8.47-36.56h0a5.75,5.75,0,0,1-1.3,2.92,5.06,5.06,0,0,0-1.17,3.23V165a2.55,2.55,0,0,0,2.55,2.55h8.39a2.55,2.55,0,0,0,2.55-2.55V137.88a5,5,0,0,0-.92-2.9l-.22-.31a6,6,0,0,1-1-2.47l-2.65-17.56H134Z" style="fill:#263238"></path><path d="M138,115.27h-4a1.26,1.26,0,0,1,0-2.51h4a1.26,1.26,0,0,1,0,2.51Zm-4-1.76a.51.51,0,0,0,0,1h4a.51.51,0,0,0,0-1Z" style="fill:#263238"></path><path d="M166.76,168.29h-8.39a3.3,3.3,0,0,1-3.3-3.3V137.88a5.8,5.8,0,0,1,1.35-3.71,5.13,5.13,0,0,0,1.12-2.54h0L160,114.21a.39.39,0,0,1,.38-.32h4.51a.37.37,0,0,1,.37.32l2.7,17.87a5.05,5.05,0,0,0,.86,2.15l.22.32a5.69,5.69,0,0,1,1.06,3.33V165A3.3,3.3,0,0,1,166.76,168.29Zm-8.47-36.56h0a5.75,5.75,0,0,1-1.3,2.92,5,5,0,0,0-1.17,3.23V165a2.55,2.55,0,0,0,2.55,2.55h8.39a2.55,2.55,0,0,0,2.55-2.55V137.88a5,5,0,0,0-.92-2.9l-.22-.31a5.73,5.73,0,0,1-1-2.47l-2.65-17.56h-3.87Z" style="fill:#263238"></path><path d="M164.6,115.27h-4a1.26,1.26,0,1,1,0-2.51h4a1.26,1.26,0,1,1,0,2.51Zm-4-1.76a.51.51,0,1,0,0,1h4a.51.51,0,1,0,0-1Z" style="fill:#263238"></path><path d="M193.39,168.29H185a3.31,3.31,0,0,1-3.31-3.3V137.88a5.8,5.8,0,0,1,1.35-3.71,5.05,5.05,0,0,0,1.13-2.54h0l2.42-17.42a.38.38,0,0,1,.37-.32h4.52a.38.38,0,0,1,.37.32l2.7,17.87a4.93,4.93,0,0,0,.86,2.15l.22.32a5.76,5.76,0,0,1,1.06,3.33V165A3.31,3.31,0,0,1,193.39,168.29Zm-8.47-36.56h0a5.74,5.74,0,0,1-1.29,2.92,5,5,0,0,0-1.18,3.23V165a2.56,2.56,0,0,0,2.56,2.55h8.38A2.56,2.56,0,0,0,196,165V137.88A5,5,0,0,0,195,135l-.22-.31a5.73,5.73,0,0,1-1-2.47l-2.65-17.56H187.3Z" style="fill:#263238"></path><path d="M191.24,115.27h-4a1.26,1.26,0,0,1,0-2.51h4a1.26,1.26,0,0,1,0,2.51Zm-4-1.76a.51.51,0,0,0,0,1h4a.51.51,0,0,0,0-1Z" style="fill:#263238"></path><path d="M220,168.29h-8.39a3.3,3.3,0,0,1-3.3-3.3V137.88a5.8,5.8,0,0,1,1.35-3.71,5.05,5.05,0,0,0,1.13-2.54h0l2.42-17.42a.37.37,0,0,1,.37-.32h4.52a.38.38,0,0,1,.37.32l2.69,17.87a5.07,5.07,0,0,0,.87,2.15l.22.32a5.75,5.75,0,0,1,1.05,3.33V165A3.3,3.3,0,0,1,220,168.29Zm-8.47-36.56h0a5.75,5.75,0,0,1-1.3,2.92,5.06,5.06,0,0,0-1.17,3.23V165a2.55,2.55,0,0,0,2.55,2.55H220a2.55,2.55,0,0,0,2.55-2.55V137.88a5,5,0,0,0-.92-2.9l-.22-.31a6,6,0,0,1-1-2.47l-2.65-17.56h-3.86Z" style="fill:#263238"></path><path d="M217.88,115.27h-4a1.26,1.26,0,0,1,0-2.51h4a1.26,1.26,0,0,1,0,2.51Zm-4-1.76a.51.51,0,0,0,0,1h4a.51.51,0,0,0,0-1Z" style="fill:#263238"></path><path d="M246.67,168.29h-8.39A3.3,3.3,0,0,1,235,165V137.88a5.8,5.8,0,0,1,1.35-3.71,5.13,5.13,0,0,0,1.12-2.54h0l2.42-17.42a.39.39,0,0,1,.38-.32h4.51a.37.37,0,0,1,.37.32l2.7,17.87a5.05,5.05,0,0,0,.86,2.15l.22.32a5.76,5.76,0,0,1,1.06,3.33V165A3.3,3.3,0,0,1,246.67,168.29Zm-8.47-36.56h0a5.75,5.75,0,0,1-1.3,2.92,5,5,0,0,0-1.17,3.23V165a2.55,2.55,0,0,0,2.55,2.55h8.39a2.55,2.55,0,0,0,2.55-2.55V137.88a5,5,0,0,0-.92-2.9l-.22-.31a5.73,5.73,0,0,1-1-2.47l-2.65-17.56h-3.87Z" style="fill:#263238"></path><path d="M244.51,115.27h-4a1.26,1.26,0,1,1,0-2.51h4a1.26,1.26,0,1,1,0,2.51Zm-4-1.76a.51.51,0,1,0,0,1h4a.51.51,0,1,0,0-1Z" style="fill:#263238"></path><path d="M273.3,168.29h-8.38a3.31,3.31,0,0,1-3.31-3.3V137.88a5.8,5.8,0,0,1,1.35-3.71,5.05,5.05,0,0,0,1.13-2.54h0l2.42-17.42a.38.38,0,0,1,.37-.32h4.52a.38.38,0,0,1,.37.32l2.7,17.87a4.93,4.93,0,0,0,.86,2.15l.22.32a5.76,5.76,0,0,1,1.06,3.33V165A3.31,3.31,0,0,1,273.3,168.29Zm-8.47-36.56h0a5.82,5.82,0,0,1-1.29,2.92,5,5,0,0,0-1.18,3.23V165a2.56,2.56,0,0,0,2.56,2.55h8.38a2.56,2.56,0,0,0,2.56-2.55V137.88a5,5,0,0,0-.92-2.9l-.22-.31a5.87,5.87,0,0,1-1-2.47l-2.64-17.56h-3.87Z" style="fill:#263238"></path><path d="M271.15,115.27h-4a1.26,1.26,0,0,1,0-2.51h4a1.26,1.26,0,0,1,0,2.51Zm-4-1.76a.51.51,0,0,0,0,1h4a.51.51,0,0,0,0-1Z" style="fill:#263238"></path><path d="M299.94,168.29h-8.39a3.3,3.3,0,0,1-3.3-3.3V137.88a5.78,5.78,0,0,1,1.35-3.71,5.14,5.14,0,0,0,1.13-2.54h0l2.42-17.42a.37.37,0,0,1,.37-.32H298a.38.38,0,0,1,.37.32l2.69,17.87a5.07,5.07,0,0,0,.87,2.15l.22.32a5.75,5.75,0,0,1,1.05,3.33V165A3.3,3.3,0,0,1,299.94,168.29Zm-8.47-36.56h0a5.75,5.75,0,0,1-1.3,2.92,5.06,5.06,0,0,0-1.17,3.23V165a2.55,2.55,0,0,0,2.55,2.55h8.39a2.55,2.55,0,0,0,2.55-2.55V137.88a5,5,0,0,0-.92-2.9l-.22-.31a5.85,5.85,0,0,1-1-2.47l-2.65-17.56h-3.87Z" style="fill:#263238"></path><path d="M297.79,115.27h-4a1.26,1.26,0,0,1,0-2.51h4a1.26,1.26,0,0,1,0,2.51Zm-4-1.76a.51.51,0,0,0,0,1h4a.51.51,0,0,0,0-1Z" style="fill:#263238"></path><path d="M326.58,168.29h-8.39a3.3,3.3,0,0,1-3.3-3.3V137.88a5.8,5.8,0,0,1,1.35-3.71,5.13,5.13,0,0,0,1.12-2.54h0l2.42-17.42a.39.39,0,0,1,.38-.32h4.51a.37.37,0,0,1,.37.32l2.7,17.87a5.05,5.05,0,0,0,.86,2.15l.22.32a5.76,5.76,0,0,1,1.06,3.33V165A3.3,3.3,0,0,1,326.58,168.29Zm-8.48-36.56h0a5.65,5.65,0,0,1-1.29,2.92,5,5,0,0,0-1.17,3.23V165a2.55,2.55,0,0,0,2.55,2.55h8.39a2.55,2.55,0,0,0,2.55-2.55V137.88a5,5,0,0,0-.92-2.9l-.22-.31a5.73,5.73,0,0,1-1-2.47l-2.65-17.56h-3.87Z" style="fill:#263238"></path><path d="M324.42,115.27h-4a1.26,1.26,0,1,1,0-2.51h4a1.26,1.26,0,1,1,0,2.51Zm-4-1.76a.51.51,0,1,0,0,1h4a.51.51,0,1,0,0-1Z" style="fill:#263238"></path><path d="M353.21,168.29h-8.38a3.31,3.31,0,0,1-3.31-3.3V137.88a5.8,5.8,0,0,1,1.35-3.71,5.05,5.05,0,0,0,1.13-2.54h0l2.42-17.42a.38.38,0,0,1,.37-.32h4.52a.38.38,0,0,1,.37.32l2.7,17.87a4.93,4.93,0,0,0,.86,2.15l.22.32a5.76,5.76,0,0,1,1.06,3.33V165A3.31,3.31,0,0,1,353.21,168.29Zm-8.47-36.56h0a5.82,5.82,0,0,1-1.29,2.92,5,5,0,0,0-1.18,3.23V165a2.56,2.56,0,0,0,2.56,2.55h8.38a2.56,2.56,0,0,0,2.56-2.55V137.88a5,5,0,0,0-.92-2.9l-.22-.31a5.87,5.87,0,0,1-1-2.47L351,114.64h-3.87Z" style="fill:#263238"></path><path d="M351.06,115.27h-4a1.26,1.26,0,0,1,0-2.51h4a1.26,1.26,0,0,1,0,2.51Zm-4-1.76a.51.51,0,0,0,0,1h4a.51.51,0,0,0,0-1Z" style="fill:#263238"></path><path d="M379.85,168.29h-8.39a3.3,3.3,0,0,1-3.3-3.3V137.88a5.8,5.8,0,0,1,1.35-3.71,5.14,5.14,0,0,0,1.13-2.54h0l2.42-17.42a.37.37,0,0,1,.37-.32H378a.38.38,0,0,1,.37.32L381,132.08a5.07,5.07,0,0,0,.87,2.15l.22.32a5.75,5.75,0,0,1,1,3.33V165A3.3,3.3,0,0,1,379.85,168.29Zm-8.47-36.56h0a5.75,5.75,0,0,1-1.3,2.92,5.06,5.06,0,0,0-1.17,3.23V165a2.55,2.55,0,0,0,2.55,2.55h8.39A2.55,2.55,0,0,0,382.4,165V137.88a5,5,0,0,0-.92-2.9l-.22-.31a5.85,5.85,0,0,1-1-2.47l-2.65-17.56h-3.87Z" style="fill:#263238"></path><path d="M377.7,115.27h-4a1.26,1.26,0,0,1,0-2.51h4a1.26,1.26,0,0,1,0,2.51Zm-4-1.76a.51.51,0,0,0,0,1h4a.51.51,0,0,0,0-1Z" style="fill:#263238"></path><path d="M406.49,168.29H398.1a3.31,3.31,0,0,1-3.31-3.3V137.88a5.75,5.75,0,0,1,1.36-3.71,5.13,5.13,0,0,0,1.12-2.54h0l2.42-17.42a.38.38,0,0,1,.37-.32h4.52a.37.37,0,0,1,.37.32l2.7,17.87a5.05,5.05,0,0,0,.86,2.15l.22.32a5.76,5.76,0,0,1,1.06,3.33V165A3.3,3.3,0,0,1,406.49,168.29ZM398,131.73h0a5.65,5.65,0,0,1-1.29,2.92,5,5,0,0,0-1.18,3.23V165a2.56,2.56,0,0,0,2.56,2.55h8.39A2.55,2.55,0,0,0,409,165V137.88a5,5,0,0,0-.92-2.9l-.22-.31a5.73,5.73,0,0,1-1-2.47l-2.65-17.56h-3.87Z" style="fill:#263238"></path><path d="M404.33,115.27h-4a1.26,1.26,0,1,1,0-2.51h4a1.26,1.26,0,0,1,0,2.51Zm-4-1.76a.51.51,0,1,0,0,1h4a.51.51,0,0,0,0-1Z" style="fill:#263238"></path><path d="M433.41,168.29H425a3.3,3.3,0,0,1-3.3-3.3V137.88a5.8,5.8,0,0,1,1.35-3.71,5.05,5.05,0,0,0,1.13-2.54l2.42-17.42a.37.37,0,0,1,.37-.32h4.52a.38.38,0,0,1,.37.32l2.69,17.87a5.07,5.07,0,0,0,.87,2.15l.22.32a5.75,5.75,0,0,1,1,3.33V165A3.3,3.3,0,0,1,433.41,168.29Zm-6.09-53.65-2.38,17.09h0a5.75,5.75,0,0,1-1.3,2.92,5.06,5.06,0,0,0-1.17,3.23V165a2.55,2.55,0,0,0,2.55,2.55h8.39A2.55,2.55,0,0,0,436,165V137.88A5,5,0,0,0,435,135l-.22-.31a6,6,0,0,1-1-2.47l-2.64-17.56Zm-2.75,17h0Z" style="fill:#263238"></path><path d="M431.26,115.27h-4a1.26,1.26,0,0,1,0-2.51h4a1.26,1.26,0,0,1,0,2.51Zm-4-1.76a.51.51,0,0,0,0,1h4a.51.51,0,0,0,0-1Z" style="fill:#263238"></path><path d="M86.75,168.29H78.37a3.31,3.31,0,0,1-3.31-3.3V137.88a5.8,5.8,0,0,1,1.35-3.71,5.05,5.05,0,0,0,1.13-2.54h0L80,114.21a.38.38,0,0,1,.37-.32h4.52a.38.38,0,0,1,.37.32l2.7,17.87a4.93,4.93,0,0,0,.86,2.15l.22.32a5.76,5.76,0,0,1,1.06,3.33V165A3.31,3.31,0,0,1,86.75,168.29Zm-8.47-36.56h0A5.74,5.74,0,0,1,77,134.65a5,5,0,0,0-1.18,3.23V165a2.56,2.56,0,0,0,2.56,2.55h8.38A2.56,2.56,0,0,0,89.31,165V137.88a5,5,0,0,0-.92-2.9l-.22-.31a5.78,5.78,0,0,1-1-2.47l-2.65-17.56H80.66Z" style="fill:#263238"></path><path d="M84.6,115.27h-4a1.26,1.26,0,0,1,0-2.51h4a1.26,1.26,0,0,1,0,2.51Zm-4-1.76a.51.51,0,0,0,0,1h4a.51.51,0,0,0,0-1Z" style="fill:#263238"></path><path d="M113.48,243.72H105.1a3.31,3.31,0,0,1-3.31-3.31v-27.1a5.81,5.81,0,0,1,1.35-3.72,5,5,0,0,0,1.13-2.54l2.42-17.41a.38.38,0,0,1,.37-.32h4.52a.37.37,0,0,1,.37.31l2.7,17.88a5,5,0,0,0,.86,2.15l.22.31a5.79,5.79,0,0,1,1.06,3.34v27.1A3.31,3.31,0,0,1,113.48,243.72Zm-6.09-53.65L105,207.16h0a5.83,5.83,0,0,1-1.29,2.91,5.07,5.07,0,0,0-1.18,3.24v27.1A2.56,2.56,0,0,0,105.1,243h8.38a2.56,2.56,0,0,0,2.56-2.56v-27.1a5.05,5.05,0,0,0-.92-2.91l-.22-.31a5.68,5.68,0,0,1-1-2.47l-2.65-17.55Zm-2.75,17h0Z" style="fill:#263238"></path><path d="M111.33,190.69h-4a1.25,1.25,0,0,1,0-2.5h4a1.25,1.25,0,0,1,0,2.5Zm-4-1.75a.5.5,0,0,0,0,1h4a.5.5,0,0,0,0-1Z" style="fill:#263238"></path><path d="M140.12,243.72h-8.39a3.31,3.31,0,0,1-3.3-3.31v-27.1a5.81,5.81,0,0,1,1.35-3.72,5,5,0,0,0,1.13-2.54h0l2.42-17.41a.36.36,0,0,1,.37-.32h4.52a.38.38,0,0,1,.37.31l2.69,17.88a5.12,5.12,0,0,0,.87,2.15l.22.31a5.78,5.78,0,0,1,1,3.34v27.1A3.31,3.31,0,0,1,140.12,243.72Zm-8.47-36.56h0a5.76,5.76,0,0,1-1.3,2.91,5.11,5.11,0,0,0-1.17,3.24v27.1a2.56,2.56,0,0,0,2.55,2.56h8.39a2.56,2.56,0,0,0,2.55-2.56v-27.1a5,5,0,0,0-.92-2.91l-.22-.31a5.93,5.93,0,0,1-1-2.47l-2.65-17.55H134Z" style="fill:#263238"></path><path d="M138,190.69h-4a1.25,1.25,0,0,1,0-2.5h4a1.25,1.25,0,0,1,0,2.5Zm-4-1.75a.5.5,0,0,0,0,1h4a.5.5,0,0,0,0-1Z" style="fill:#263238"></path><path d="M166.76,243.72h-8.39a3.31,3.31,0,0,1-3.3-3.31v-27.1a5.81,5.81,0,0,1,1.35-3.72,5,5,0,0,0,1.12-2.54h0L160,189.64a.38.38,0,0,1,.38-.32h4.51a.36.36,0,0,1,.37.31l2.7,17.88a5.11,5.11,0,0,0,.86,2.15l.22.31a5.72,5.72,0,0,1,1.06,3.34v27.1A3.31,3.31,0,0,1,166.76,243.72Zm-8.47-36.56h0a5.76,5.76,0,0,1-1.3,2.91,5.06,5.06,0,0,0-1.17,3.24v27.1a2.56,2.56,0,0,0,2.55,2.56h8.39a2.56,2.56,0,0,0,2.55-2.56v-27.1a5.05,5.05,0,0,0-.92-2.91l-.22-.31a5.68,5.68,0,0,1-1-2.47l-2.65-17.55h-3.87Z" style="fill:#263238"></path><path d="M164.6,190.69h-4a1.25,1.25,0,1,1,0-2.5h4a1.25,1.25,0,1,1,0,2.5Zm-4-1.75a.5.5,0,1,0,0,1h4a.5.5,0,1,0,0-1Z" style="fill:#263238"></path><path d="M193.39,243.72H185a3.31,3.31,0,0,1-3.31-3.31v-27.1a5.81,5.81,0,0,1,1.35-3.72,5,5,0,0,0,1.13-2.54h0l2.42-17.41a.38.38,0,0,1,.37-.32h4.52a.37.37,0,0,1,.37.31l2.7,17.88a5,5,0,0,0,.86,2.15l.22.31a5.79,5.79,0,0,1,1.06,3.34v27.1A3.31,3.31,0,0,1,193.39,243.72Zm-8.47-36.56h0a5.74,5.74,0,0,1-1.29,2.91,5.07,5.07,0,0,0-1.18,3.24v27.1A2.56,2.56,0,0,0,185,243h8.38a2.56,2.56,0,0,0,2.56-2.56v-27.1a5.05,5.05,0,0,0-.92-2.91l-.22-.31a5.68,5.68,0,0,1-1-2.47l-2.65-17.55H187.3Z" style="fill:#263238"></path><path d="M191.24,190.69h-4a1.25,1.25,0,1,1,0-2.5h4a1.25,1.25,0,0,1,0,2.5Zm-4-1.75a.5.5,0,1,0,0,1h4a.5.5,0,0,0,0-1Z" style="fill:#263238"></path><path d="M220,243.72h-8.39a3.31,3.31,0,0,1-3.3-3.31v-27.1a5.81,5.81,0,0,1,1.35-3.72,5,5,0,0,0,1.13-2.54h0l2.42-17.41a.36.36,0,0,1,.37-.32h4.52a.38.38,0,0,1,.37.31l2.69,17.88a5.12,5.12,0,0,0,.87,2.15l.22.31a5.76,5.76,0,0,1,1.05,3.34v27.1A3.31,3.31,0,0,1,220,243.72Zm-8.47-36.56h0a5.76,5.76,0,0,1-1.3,2.91,5.11,5.11,0,0,0-1.17,3.24v27.1a2.56,2.56,0,0,0,2.55,2.56H220a2.56,2.56,0,0,0,2.55-2.56v-27.1a5,5,0,0,0-.92-2.91l-.22-.31a5.93,5.93,0,0,1-1-2.47l-2.65-17.55h-3.86Z" style="fill:#263238"></path><path d="M217.88,190.69h-4a1.25,1.25,0,0,1,0-2.5h4a1.25,1.25,0,0,1,0,2.5Zm-4-1.75a.5.5,0,0,0,0,1h4a.5.5,0,0,0,0-1Z" style="fill:#263238"></path><path d="M246.67,243.72h-8.39a3.31,3.31,0,0,1-3.3-3.31v-27.1a5.81,5.81,0,0,1,1.35-3.72,5,5,0,0,0,1.12-2.54h0l2.42-17.41a.38.38,0,0,1,.38-.32h4.51a.36.36,0,0,1,.37.31l2.7,17.88a5.11,5.11,0,0,0,.86,2.15l.22.31a5.79,5.79,0,0,1,1.06,3.34v27.1A3.31,3.31,0,0,1,246.67,243.72Zm-8.47-36.56h0a5.76,5.76,0,0,1-1.3,2.91,5.06,5.06,0,0,0-1.17,3.24v27.1a2.56,2.56,0,0,0,2.55,2.56h8.39a2.56,2.56,0,0,0,2.55-2.56v-27.1a5.05,5.05,0,0,0-.92-2.91l-.22-.31a5.68,5.68,0,0,1-1-2.47l-2.65-17.55h-3.87Z" style="fill:#263238"></path><path d="M244.51,190.69h-4a1.25,1.25,0,1,1,0-2.5h4a1.25,1.25,0,1,1,0,2.5Zm-4-1.75a.5.5,0,1,0,0,1h4a.5.5,0,1,0,0-1Z" style="fill:#263238"></path><path d="M273.3,243.72h-8.38a3.31,3.31,0,0,1-3.31-3.31v-27.1a5.81,5.81,0,0,1,1.35-3.72,5,5,0,0,0,1.13-2.54h0l2.42-17.41a.37.37,0,0,1,.37-.32h4.52a.37.37,0,0,1,.37.31l2.7,17.88a5,5,0,0,0,.86,2.15l.22.31a5.79,5.79,0,0,1,1.06,3.34v27.1A3.32,3.32,0,0,1,273.3,243.72Zm-8.47-36.56h0a5.83,5.83,0,0,1-1.29,2.91,5.07,5.07,0,0,0-1.18,3.24v27.1a2.56,2.56,0,0,0,2.56,2.56h8.38a2.56,2.56,0,0,0,2.56-2.56v-27.1a5.05,5.05,0,0,0-.92-2.91l-.22-.31a5.82,5.82,0,0,1-1-2.47l-2.64-17.55h-3.87Z" style="fill:#263238"></path><path d="M271.15,190.69h-4a1.25,1.25,0,0,1,0-2.5h4a1.25,1.25,0,0,1,0,2.5Zm-4-1.75a.5.5,0,0,0,0,1h4a.5.5,0,0,0,0-1Z" style="fill:#263238"></path><path d="M299.94,243.72h-8.39a3.31,3.31,0,0,1-3.3-3.31v-27.1a5.81,5.81,0,0,1,1.35-3.72,5.06,5.06,0,0,0,1.13-2.54h0l2.42-17.41a.36.36,0,0,1,.37-.32H298a.38.38,0,0,1,.37.31l2.69,17.88a5.12,5.12,0,0,0,.87,2.15l.22.31a5.78,5.78,0,0,1,1.05,3.34v27.1A3.31,3.31,0,0,1,299.94,243.72Zm-8.47-36.56h0a5.76,5.76,0,0,1-1.3,2.91,5.09,5.09,0,0,0-1.17,3.24v27.1a2.56,2.56,0,0,0,2.55,2.56h8.39a2.56,2.56,0,0,0,2.55-2.56v-27.1a5,5,0,0,0-.92-2.91l-.22-.31a5.8,5.8,0,0,1-1-2.47l-2.65-17.55h-3.87Z" style="fill:#263238"></path><path d="M297.79,190.69h-4a1.25,1.25,0,0,1,0-2.5h4a1.25,1.25,0,0,1,0,2.5Zm-4-1.75a.5.5,0,0,0,0,1h4a.5.5,0,0,0,0-1Z" style="fill:#263238"></path><path d="M326.58,243.72h-8.39a3.31,3.31,0,0,1-3.3-3.31v-27.1a5.81,5.81,0,0,1,1.35-3.72,5,5,0,0,0,1.12-2.54h0l2.42-17.41a.38.38,0,0,1,.38-.32h4.51a.36.36,0,0,1,.37.31l2.7,17.88a5.11,5.11,0,0,0,.86,2.15l.22.31a5.79,5.79,0,0,1,1.06,3.34v27.1A3.31,3.31,0,0,1,326.58,243.72Zm-8.48-36.56h0a5.66,5.66,0,0,1-1.29,2.91,5,5,0,0,0-1.17,3.24v27.1a2.56,2.56,0,0,0,2.55,2.56h8.39a2.56,2.56,0,0,0,2.55-2.56v-27.1a5.05,5.05,0,0,0-.92-2.91l-.22-.31a5.68,5.68,0,0,1-1-2.47l-2.65-17.55h-3.87Z" style="fill:#263238"></path><path d="M324.42,190.69h-4a1.25,1.25,0,1,1,0-2.5h4a1.25,1.25,0,1,1,0,2.5Zm-4-1.75a.5.5,0,1,0,0,1h4a.5.5,0,1,0,0-1Z" style="fill:#263238"></path><path d="M353.21,243.72h-8.38a3.31,3.31,0,0,1-3.31-3.31v-27.1a5.81,5.81,0,0,1,1.35-3.72,5,5,0,0,0,1.13-2.54h0l2.42-17.41a.37.37,0,0,1,.37-.32h4.52a.37.37,0,0,1,.37.31l2.7,17.88a5,5,0,0,0,.86,2.15l.22.31a5.76,5.76,0,0,1,1.06,3.34v27.1A3.32,3.32,0,0,1,353.21,243.72Zm-8.47-36.56h0a5.83,5.83,0,0,1-1.29,2.91,5,5,0,0,0-1.18,3.24v27.1a2.56,2.56,0,0,0,2.56,2.56h8.38a2.56,2.56,0,0,0,2.56-2.56v-27.1a5.05,5.05,0,0,0-.92-2.91l-.22-.31a5.82,5.82,0,0,1-1-2.47L351,190.07h-3.87Z" style="fill:#263238"></path><path d="M351.06,190.69h-4a1.25,1.25,0,0,1,0-2.5h4a1.25,1.25,0,0,1,0,2.5Zm-4-1.75a.5.5,0,0,0,0,1h4a.5.5,0,0,0,0-1Z" style="fill:#263238"></path><path d="M379.85,243.72h-8.39a3.31,3.31,0,0,1-3.3-3.31v-27.1a5.81,5.81,0,0,1,1.35-3.72,5,5,0,0,0,1.13-2.54h0l2.42-17.41a.36.36,0,0,1,.37-.32H378a.38.38,0,0,1,.37.31L381,207.51a5.12,5.12,0,0,0,.87,2.15l.22.31a5.78,5.78,0,0,1,1,3.34v27.1A3.31,3.31,0,0,1,379.85,243.72Zm-8.47-36.56h0a5.76,5.76,0,0,1-1.3,2.91,5.09,5.09,0,0,0-1.17,3.24v27.1a2.56,2.56,0,0,0,2.55,2.56h8.39a2.56,2.56,0,0,0,2.55-2.56v-27.1a5.05,5.05,0,0,0-.92-2.91l-.22-.31a5.8,5.8,0,0,1-1-2.47l-2.65-17.55h-3.87Z" style="fill:#263238"></path><path d="M377.7,190.69h-4a1.25,1.25,0,0,1,0-2.5h4a1.25,1.25,0,0,1,0,2.5Zm-4-1.75a.5.5,0,0,0,0,1h4a.5.5,0,0,0,0-1Z" style="fill:#263238"></path><path d="M406.49,243.72H398.1a3.32,3.32,0,0,1-3.31-3.31v-27.1a5.76,5.76,0,0,1,1.36-3.72,5,5,0,0,0,1.12-2.54h0l2.42-17.41a.38.38,0,0,1,.37-.32h4.52a.36.36,0,0,1,.37.31l2.7,17.88a5.11,5.11,0,0,0,.86,2.15l.22.31a5.79,5.79,0,0,1,1.06,3.34v27.1A3.31,3.31,0,0,1,406.49,243.72ZM398,207.16h0a5.66,5.66,0,0,1-1.29,2.91,5.07,5.07,0,0,0-1.18,3.24v27.1A2.56,2.56,0,0,0,398.1,243h8.39a2.56,2.56,0,0,0,2.55-2.56v-27.1a5.05,5.05,0,0,0-.92-2.91l-.22-.31a5.68,5.68,0,0,1-1-2.47l-2.65-17.55h-3.87Z" style="fill:#263238"></path><path d="M404.33,190.69h-4a1.25,1.25,0,1,1,0-2.5h4a1.25,1.25,0,0,1,0,2.5Zm-4-1.75a.5.5,0,1,0,0,1h4a.5.5,0,0,0,0-1Z" style="fill:#263238"></path><path d="M490.68,243.67H10.42a.38.38,0,0,1,0-.75H490.68a.38.38,0,1,1,0,.75Z" style="fill:#263238"></path><path d="M489.33,168.4H8.78a.38.38,0,0,1-.37-.38.37.37,0,0,1,.37-.37H489.33a.37.37,0,0,1,.38.37A.38.38,0,0,1,489.33,168.4Z" style="fill:#263238"></path><path d="M47.1,168.76a.38.38,0,0,1-.38-.37V101.75a.38.38,0,1,1,.75,0v66.64A.38.38,0,0,1,47.1,168.76Z" style="fill:#263238"></path><path d="M40.36,168.76a.38.38,0,0,1-.37-.37V101.75a.38.38,0,1,1,.75,0v66.64A.38.38,0,0,1,40.36,168.76Z" style="fill:#263238"></path><path d="M463.08,168.76a.38.38,0,0,1-.37-.37V101.75a.38.38,0,1,1,.75,0v66.64A.38.38,0,0,1,463.08,168.76Z" style="fill:#263238"></path><path d="M456.35,168.76a.37.37,0,0,1-.37-.37V101.75a.37.37,0,0,1,.37-.38.38.38,0,0,1,.38.38v66.64A.38.38,0,0,1,456.35,168.76Z" style="fill:#263238"></path><path d="M489.33,174.6H8.78a.38.38,0,0,1-.37-.38.37.37,0,0,1,.37-.37H489.33a.37.37,0,0,1,.38.37A.38.38,0,0,1,489.33,174.6Z" style="fill:#263238"></path><path d="M490.68,256.07H10.42a.38.38,0,0,1-.37-.38.37.37,0,0,1,.37-.37H490.68a.37.37,0,0,1,.38.37A.38.38,0,0,1,490.68,256.07Z" style="fill:#263238"></path><path d="M490.68,263.5H10.42a.38.38,0,0,1,0-.75H490.68a.38.38,0,1,1,0,.75Z" style="fill:#263238"></path><path d="M451.47,301c-19.24,0-39.15-2.93-39.15-7.82s19.91-7.81,39.15-7.81,39.15,2.92,39.15,7.81S470.72,301,451.47,301Zm0-14.88c-23,0-38.4,3.65-38.4,7.06s15.43,7.07,38.4,7.07,38.41-3.66,38.41-7.07S474.44,286.16,451.47,286.16Z" style="fill:#263238"></path><path d="M451.47,315.9c-19.24,0-39.15-2.92-39.15-7.81v-9.32a.38.38,0,0,1,.75,0v9.32c0,3.41,15.43,7.06,38.4,7.06s38.41-3.65,38.41-7.06a.37.37,0,0,1,.74,0C490.62,313,470.72,315.9,451.47,315.9Z" style="fill:#263238"></path><path d="M444.22,369.35a.37.37,0,0,1-.37-.38V316.3a.37.37,0,0,1,.37-.38.38.38,0,0,1,.38.38V369A.38.38,0,0,1,444.22,369.35Z" style="fill:#263238"></path><path d="M444.22,454.51a.37.37,0,0,1-.37-.37V379.75a.37.37,0,0,1,.37-.38.38.38,0,0,1,.38.38v74.39A.38.38,0,0,1,444.22,454.51Z" style="fill:#263238"></path><path d="M455.37,451.23a.38.38,0,0,1-.37-.37V315.77a.38.38,0,1,1,.75,0V450.86A.38.38,0,0,1,455.37,451.23Z" style="fill:#263238"></path><path d="M320.31,301c-19.25,0-39.16-2.93-39.16-7.82s19.91-7.81,39.16-7.81,39.15,2.92,39.15,7.81S339.55,301,320.31,301Zm0-14.88c-23,0-38.41,3.65-38.41,7.06s15.44,7.07,38.41,7.07,38.4-3.66,38.4-7.07S343.28,286.16,320.31,286.16Z" style="fill:#263238"></path><path d="M320.31,315.9c-19.25,0-39.16-2.92-39.16-7.81v-9.32a.38.38,0,0,1,.38-.37.37.37,0,0,1,.37.37v9.32c0,3.41,15.44,7.06,38.41,7.06s38.4-3.65,38.4-7.06a.38.38,0,0,1,.75,0C359.46,313,339.55,315.9,320.31,315.9Z" style="fill:#263238"></path><path d="M313.06,435.09a.38.38,0,0,1-.38-.37V316.3a.38.38,0,1,1,.75,0V434.72A.38.38,0,0,1,313.06,435.09Z" style="fill:#263238"></path><path d="M324.21,453.42a.38.38,0,0,1-.38-.37V315.77a.38.38,0,0,1,.38-.38.37.37,0,0,1,.37.38V453.05A.37.37,0,0,1,324.21,453.42Z" style="fill:#263238"></path><path d="M189.14,301c-19.24,0-39.15-2.93-39.15-7.82s19.91-7.81,39.15-7.81,39.15,2.92,39.15,7.81S208.39,301,189.14,301Zm0-14.88c-23,0-38.4,3.65-38.4,7.06s15.43,7.07,38.4,7.07,38.4-3.66,38.4-7.07S212.11,286.16,189.14,286.16Z" style="fill:#263238"></path><path d="M189.14,315.9C169.9,315.9,150,313,150,308.09v-9.32a.38.38,0,0,1,.75,0v9.32c0,3.41,15.43,7.06,38.4,7.06s38.4-3.65,38.4-7.06a.37.37,0,0,1,.38-.37.36.36,0,0,1,.37.37C228.29,313,208.39,315.9,189.14,315.9Z" style="fill:#263238"></path><path d="M181.89,452.87a.38.38,0,0,1-.37-.37V316.3a.38.38,0,1,1,.75,0V452.5A.38.38,0,0,1,181.89,452.87Z" style="fill:#263238"></path><path d="M193,453.69a.38.38,0,0,1-.37-.37v-27.8a.38.38,0,1,1,.75,0v27.8A.38.38,0,0,1,193,453.69Z" style="fill:#263238"></path><path d="M193,419.83a.37.37,0,0,1-.37-.37V315.77a.38.38,0,1,1,.75,0V419.46A.37.37,0,0,1,193,419.83Z" style="fill:#263238"></path><path d="M58,301c-19.25,0-39.16-2.93-39.16-7.82s19.91-7.81,39.16-7.81,39.15,2.92,39.15,7.81S77.22,301,58,301Zm0-14.88c-23,0-38.41,3.65-38.41,7.06S35,300.29,58,300.29s38.4-3.66,38.4-7.07S81,286.16,58,286.16Z" style="fill:#263238"></path><path d="M58,315.9c-19.25,0-39.16-2.92-39.16-7.81v-9.32a.38.38,0,0,1,.38-.37.37.37,0,0,1,.37.37v9.32c0,3.41,15.44,7.06,38.41,7.06s38.4-3.65,38.4-7.06a.38.38,0,0,1,.75,0C97.13,313,77.22,315.9,58,315.9Z" style="fill:#263238"></path><path d="M50.73,352.52a.38.38,0,0,1-.38-.37V316.3a.38.38,0,1,1,.75,0v35.85A.38.38,0,0,1,50.73,352.52Z" style="fill:#263238"></path><path d="M50.73,453.69a.38.38,0,0,1-.38-.37V361.57a.38.38,0,0,1,.75,0v91.75A.38.38,0,0,1,50.73,453.69Z" style="fill:#263238"></path><path d="M61.88,453.42a.38.38,0,0,1-.38-.37V315.77a.38.38,0,0,1,.38-.38.37.37,0,0,1,.37.38V453.05A.37.37,0,0,1,61.88,453.42Z" style="fill:#263238"></path><path d="M113.9,88.82c-19.07,0-39.34-1.84-39.34-5.25s20.27-5.24,39.34-5.24,39.33,1.84,39.33,5.24S133,88.82,113.9,88.82Zm0-9.74c-24.85,0-38.59,2.65-38.59,4.49s13.74,4.5,38.59,4.5,38.58-2.66,38.58-4.5S138.74,79.08,113.9,79.08Z" style="fill:#263238"></path><path d="M74.93,84a.38.38,0,0,1-.24-.09.37.37,0,0,1,0-.53L108,44V18.48a.38.38,0,0,1,.75,0V44.17a.38.38,0,0,1-.09.24L75.22,83.81A.38.38,0,0,1,74.93,84Z" style="fill:#263238"></path><path d="M152.86,84a.38.38,0,0,1-.29-.14l-33-39.4a.38.38,0,0,1-.09-.24V22.91a.38.38,0,0,1,.75,0V44l32.91,39.3a.38.38,0,0,1-.29.62Z" style="fill:#263238"></path><path d="M271.52,88.82c-19.07,0-39.34-1.84-39.34-5.25s20.27-5.24,39.34-5.24,39.34,1.84,39.34,5.24S290.59,88.82,271.52,88.82Zm0-9.74c-24.84,0-38.59,2.65-38.59,4.49s13.75,4.5,38.59,4.5,38.59-2.66,38.59-4.5S296.37,79.08,271.52,79.08Z" style="fill:#263238"></path><path d="M232.56,84a.36.36,0,0,1-.24-.09.38.38,0,0,1,0-.53L265.61,44V18.48a.37.37,0,0,1,.37-.37.38.38,0,0,1,.38.37V44.17a.38.38,0,0,1-.09.24l-33.42,39.4A.38.38,0,0,1,232.56,84Z" style="fill:#263238"></path><path d="M310.49,84a.37.37,0,0,1-.29-.14l-33-39.4a.38.38,0,0,1-.09-.24V22.91a.38.38,0,0,1,.75,0V44l32.9,39.3a.37.37,0,0,1,0,.53A.38.38,0,0,1,310.49,84Z" style="fill:#263238"></path><path d="M429.15,88.82c-19.07,0-39.34-1.84-39.34-5.25s20.27-5.24,39.34-5.24,39.34,1.84,39.34,5.24S448.22,88.82,429.15,88.82Zm0-9.74c-24.85,0-38.59,2.65-38.59,4.49s13.74,4.5,38.59,4.5,38.59-2.66,38.59-4.5S454,79.08,429.15,79.08Z" style="fill:#263238"></path><path d="M390.19,84a.38.38,0,0,1-.25-.09.39.39,0,0,1,0-.53L423.23,44V18.48a.38.38,0,0,1,.38-.37.37.37,0,0,1,.37.37V44.17a.43.43,0,0,1-.08.24l-33.43,39.4A.37.37,0,0,1,390.19,84Z" style="fill:#263238"></path><path d="M468.12,84a.37.37,0,0,1-.29-.14l-33-39.4a.43.43,0,0,1-.08-.24V22.91a.37.37,0,0,1,.37-.37.38.38,0,0,1,.38.37V44l32.9,39.3a.37.37,0,0,1-.28.62Z" style="fill:#263238"></path></g><g id="character-3"><path d="M394.88,277.93s4,10.77,4.46,13.53-.61,12.57-.76,16.41-5.6,52.5-5.6,56.74v6.7s4.47,13.17,4.24,22.32-1.56,57.08-1.56,57.08,1.56,6.92,1.79,8.48a25.05,25.05,0,0,1,.22,3.57c0,.67,3.79,9.6,4.24,12.95s-4.69,8.71-6.92,9.16-4.69.22-7.14-2.68-5.58-7.82-5.58-12.28-.45-7.59-.45-8.26-1.12-2.68-1.12-4.91v-6s-12.5-68.47-12.95-70-4.68-15.4-4.68-15.4l-6.7-39.52-4,47.33s1.34,13.62,1.79,21.88,0,54.4,0,54.4,2,5.13,1.78,5.8-1.11,3.13-1.34,3.8,0,5.8-.22,6.7-2.68,2.45-4.24,2.9-4.91,1.11-5.81,1.56-3.34,1.34-6.25,2.46-11.38,3.12-14.06,2-3.57-2.24-2.46-3.58,13.17-13.29,13.17-13.29a9.88,9.88,0,0,1,.44-4c.67-1.34,2.24-5.13,2.24-5.13s-9.82-48.25-10.71-51.82,1.34-17.42,1.12-19.65-7.6-47.55-7.15-65.41a197.32,197.32,0,0,1,4.47-35.05s26.79,2.9,40.63,2.46A178.46,178.46,0,0,0,392.53,276Z" style="fill:#263238"></path><path d="M393.32,485.54a7.48,7.48,0,0,1-5.86-3c-1.33-1.58-5.69-7.16-5.69-12.6,0-3.2-.24-5.74-.36-7.1-.06-.57-.09-1-.09-1.16a6,6,0,0,0-.29-1,12.05,12.05,0,0,1-.83-3.91v-6c-4.31-23.58-12.58-68.67-12.93-69.89-.44-1.54-4.64-15.26-4.68-15.4l-6-35.69-3.69,43.4c0,.05,1.34,13.64,1.79,21.81.43,8,0,52,0,54.34.94,2.4,2,5.37,1.76,6.05-.11.34-.39,1.12-.67,1.9s-.56,1.56-.67,1.9a26.25,26.25,0,0,0-.09,3.1,24.37,24.37,0,0,1-.12,3.56c-.31,1.23-3.17,2.85-4.59,3.26-.57.16-1.37.35-2.21.55a26.88,26.88,0,0,0-3.51,1c-.68.34-2.17.9-4.06,1.62l-2.24.85c-2.9,1.12-11.55,3.2-14.43,2-1.95-.81-3-1.62-3.19-2.55a2.06,2.06,0,0,1,.54-1.81c1.06-1.27,11.54-11.68,13-13.16a9.75,9.75,0,0,1,.52-4.05c.58-1.16,1.87-4.26,2.16-5-.61-3-9.82-48.23-10.68-51.65-.57-2.32.09-8.55.62-13.55a56.14,56.14,0,0,0,.49-6.17c0-.34-.26-1.81-.59-4-1.71-11.47-6.93-46.39-6.56-61.45a199,199,0,0,1,4.48-35.15.49.49,0,0,1,.54-.38c.27,0,26.93,2.9,40.56,2.45a178.51,178.51,0,0,0,26.7-3.12.49.49,0,0,1,.42.11l2.35,1.95a.45.45,0,0,1,.15.21c.17.44,4,10.84,4.48,13.62.33,1.95-.06,7-.41,11.51-.15,1.95-.3,3.79-.34,5-.07,1.65-1.09,11.35-2.27,22.58-1.56,14.87-3.33,31.74-3.33,34.14v6.61c.37,1.12,4.46,13.66,4.24,22.42s-1.5,55-1.56,57c.17.73,1.57,7,1.78,8.46a25.08,25.08,0,0,1,.23,3.64c0,.24.57,1.69,1.1,3.09,1.2,3.2,2.84,7.59,3.14,9.8.48,3.65-5,9.23-7.32,9.71A9.45,9.45,0,0,1,393.32,485.54ZM356.37,325.26a.5.5,0,0,1,.49.42l6.7,39.51c.16.51,4.23,13.81,4.68,15.35s12.44,67.28,13,70.08v6.12a11.16,11.16,0,0,0,.77,3.58,4.93,4.93,0,0,1,.35,1.33c0,.18,0,.54.08,1.06.13,1.39.37,4,.37,7.2,0,5.1,4.18,10.44,5.46,11.95,2.46,2.92,4.85,2.88,6.66,2.52,2-.4,6.94-5.53,6.53-8.6-.28-2.09-2-6.6-3.09-9.58a18.18,18.18,0,0,1-1.16-3.44,24.14,24.14,0,0,0-.22-3.5c-.22-1.52-1.76-8.37-1.78-8.44a.49.49,0,0,1,0-.12c0-.48,1.34-48,1.56-57.08s-4.17-22-4.21-22.15a.5.5,0,0,1,0-.16v-6.7c0-2.45,1.77-19.35,3.34-34.25,1.13-10.74,2.19-20.89,2.26-22.51,0-1.23.19-3.08.34-5,.33-4.21.73-9.44.43-11.27-.42-2.52-3.94-12.1-4.39-13.31l-2.06-1.71a181.2,181.2,0,0,1-26.64,3.09c-12.73.4-36.7-2-40.25-2.41a197.56,197.56,0,0,0-4.36,34.51c-.37,15,4.84,49.83,6.55,61.28.35,2.31.56,3.7.59,4.07a52.46,52.46,0,0,1-.49,6.37c-.49,4.67-1.17,11.06-.64,13.2.89,3.55,10.32,49.88,10.72,51.85a.48.48,0,0,1,0,.29c-.06.15-1.58,3.83-2.25,5.17a9.2,9.2,0,0,0-.39,3.75.5.5,0,0,1-.15.4c-.12.12-12,12-13.13,13.25-.44.53-.36.83-.34.93.1.4.63,1,2.6,1.86,2.48,1,10.83-.91,13.69-2l2.24-.85c1.87-.71,3.34-1.27,4-1.59a25.75,25.75,0,0,1,3.73-1.05c.82-.2,1.6-.38,2.16-.54,1.6-.46,3.75-1.95,3.9-2.54a30.65,30.65,0,0,0,.09-3.32,17.68,17.68,0,0,1,.14-3.42c.11-.34.39-1.13.68-1.92s.55-1.54.66-1.87a32.61,32.61,0,0,0-1.78-5.47.57.57,0,0,1,0-.18c0-.47.44-46.22,0-54.37s-1.77-21.72-1.79-21.86l4-47.42a.51.51,0,0,1,.48-.46Z" style="fill:#263238"></path><path d="M345.26,317.45a.51.51,0,0,1-.31-.11l-1.36-1.08a.5.5,0,1,1,.62-.78l1.36,1.08a.49.49,0,0,1,.08.7A.51.51,0,0,1,345.26,317.45Z" style="fill:#969696"></path><path d="M356.37,326.26a.5.5,0,0,1-.31-.1l-8.22-6.53a.49.49,0,0,1-.08-.7.49.49,0,0,1,.7-.08l8.22,6.52a.51.51,0,0,1,.08.71A.5.5,0,0,1,356.37,326.26Z" style="fill:#969696"></path><path d="M395.32,416.22a.5.5,0,0,1-.5-.5s0-1.77,0-4.34a.5.5,0,0,1,.5-.51h0a.5.5,0,0,1,.5.5c0,2.57,0,4.35,0,4.35A.51.51,0,0,1,395.32,416.22Z" style="fill:#969696"></path><path d="M395.25,408.65a.49.49,0,0,1-.5-.49c-.14-7.85-.42-13.06-.82-15.06-.88-4.41-5.32-18.05-5.37-18.18a.75.75,0,0,1,0-.21l5.72-48.94a.5.5,0,0,1,1,.11l-5.7,48.83c.45,1.37,4.5,13.88,5.36,18.19.52,2.6.74,9.73.84,15.24a.5.5,0,0,1-.49.51Z" style="fill:#969696"></path><path d="M395.07,323.66H395a.5.5,0,0,1-.44-.55l.85-7.29a.5.5,0,0,1,.55-.43.5.5,0,0,1,.44.55l-.85,7.28A.5.5,0,0,1,395.07,323.66Z" style="fill:#969696"></path><path d="M342.71,307.7h-.11a.5.5,0,0,1-.38-.6l2.66-11.81-3.24-8.83a.49.49,0,0,1,.3-.64.5.5,0,0,1,.64.3l3.29,9a.57.57,0,0,1,0,.29l-2.69,11.95A.5.5,0,0,1,342.71,307.7Z" style="fill:#969696"></path><path d="M324.17,290.37a.51.51,0,0,1-.32-.12.5.5,0,0,1-.07-.7l5.39-6.58a.5.5,0,0,1,.77.63l-5.38,6.58A.51.51,0,0,1,324.17,290.37Z" style="fill:#969696"></path><path d="M382.46,292.46a.51.51,0,0,1-.28-.09l-6.88-4.79a.49.49,0,0,1-.12-.69.5.5,0,0,1,.69-.13l6.88,4.79a.5.5,0,0,1-.29.91Z" style="fill:#969696"></path><path d="M365.73,292.74a.5.5,0,0,1-.06-1c1.66-.19,3.06-.39,4.15-.57a.5.5,0,0,1,.58.4.49.49,0,0,1-.41.58c-1.11.19-2.52.39-4.2.58Z" style="fill:#969696"></path><path d="M337,294.85a.5.5,0,0,1-.5-.48.49.49,0,0,1,.47-.52c.14,0,14.19-.71,24.59-1.69a.5.5,0,0,1,.1,1c-10.43,1-24.5,1.68-24.64,1.69Z" style="fill:#969696"></path><path d="M359.74,301.72a.5.5,0,0,1-.46-.3.52.52,0,0,1,.27-.66l8.67-3.58a.5.5,0,0,1,.66.27.5.5,0,0,1-.28.65l-8.66,3.59A.69.69,0,0,1,359.74,301.72Z" style="fill:#969696"></path><path d="M348,458.24c-4.08,0-13.25-.51-13.25-.51s-12,11.95-13.17,13.29-.22,2.46,2.46,3.58,11.16-.9,14.06-2,5.36-2,6.25-2.46,4.25-1.11,5.81-1.56,4-2,4.24-2.9,0-6,.22-6.7c.08-.22.22-.64.39-1.11C353.48,458,350.72,458.24,348,458.24Z" style="fill:#fff"></path><path d="M326.3,475.42a6.87,6.87,0,0,1-2.49-.36c-1.95-.81-3-1.62-3.19-2.55a2.06,2.06,0,0,1,.54-1.81c1.12-1.34,12.7-12.83,13.2-13.32a.48.48,0,0,1,.38-.15c.09,0,9.21.51,13.22.51,2.76,0,5.55-.24,7-.38a.5.5,0,0,1,.45.19.51.51,0,0,1,.07.48c-.16.47-.31.88-.38,1.1a26.25,26.25,0,0,0-.09,3.1,24.37,24.37,0,0,1-.12,3.56c-.31,1.23-3.17,2.85-4.59,3.26-.57.16-1.37.35-2.21.55a26.88,26.88,0,0,0-3.51,1c-.68.34-2.17.9-4.06,1.62l-2.24.85A42.7,42.7,0,0,1,326.3,475.42Zm8.6-17.18c-1.42,1.41-11.95,11.88-13,13.1-.44.53-.36.83-.34.93.1.4.63,1,2.6,1.86,2.48,1,10.83-.91,13.69-2l2.24-.85c1.87-.71,3.34-1.27,4-1.59a25.75,25.75,0,0,1,3.73-1.05c.82-.2,1.6-.38,2.16-.54,1.6-.46,3.75-1.95,3.9-2.54a30.65,30.65,0,0,0,.09-3.32,17.68,17.68,0,0,1,.14-3.42c0-.09.08-.22.13-.38-1.55.14-3.92.31-6.28.31C344.27,458.74,336.33,458.32,334.9,458.24Z" style="fill:#263238"></path><path d="M324,474.6c2.68,1.11,11.16-.9,14.06-2s5.36-2,6.25-2.46,4.25-1.11,5.81-1.56,4-2,4.24-2.9a12.34,12.34,0,0,0,.11-1.91,58.9,58.9,0,0,0-8.55,3.15,50.79,50.79,0,0,1-15.8,5.61c-7.39,1.27-8.58-1.5-8.58-1.5C320.43,472.36,321.32,473.48,324,474.6Z" style="fill:#fff"></path><path d="M326.3,475.42a6.87,6.87,0,0,1-2.49-.36c-1.95-.81-3-1.62-3.19-2.55a2.06,2.06,0,0,1,.54-1.81.52.52,0,0,1,.46-.17.47.47,0,0,1,.38.3s1.23,2.37,8,1.19a48.66,48.66,0,0,0,15.08-5.27l.58-.29a59.74,59.74,0,0,1,8.63-3.18.5.5,0,0,1,.64.49,11.36,11.36,0,0,1-.12,2c-.31,1.23-3.17,2.85-4.59,3.26-.57.16-1.37.35-2.21.55a26.88,26.88,0,0,0-3.51,1c-.68.34-2.17.9-4.06,1.62l-2.24.85A42.7,42.7,0,0,1,326.3,475.42Zm-4.69-3.52a.69.69,0,0,0,0,.37c.1.4.63,1,2.6,1.86,2.48,1,10.83-.91,13.69-2l2.24-.85c1.87-.71,3.34-1.27,4-1.59a25.75,25.75,0,0,1,3.73-1.05c.82-.2,1.6-.38,2.16-.54,1.6-.46,3.75-1.95,3.9-2.54a9.47,9.47,0,0,0,.08-1.11,53.74,53.74,0,0,0-7.81,2.92l-.58.29A50.51,50.51,0,0,1,330.21,473C324.79,473.94,322.5,472.74,321.61,471.9Z" style="fill:#263238"></path><path d="M401.91,475.71c-.45-3.35-4.24-12.28-4.24-12.95a9.79,9.79,0,0,0-5.61-1.71c-2.8.25-10.24.6-10.24.6,0,.67.45,3.79.45,8.26s3.12,9.37,5.58,12.28,4.91,3.12,7.14,2.68S402.36,479.06,401.91,475.71Z" style="fill:#fff"></path><path d="M393.32,485.54a7.48,7.48,0,0,1-5.86-3c-1.33-1.58-5.69-7.16-5.69-12.6,0-3.2-.24-5.74-.36-7.1-.06-.57-.09-1-.09-1.16a.5.5,0,0,1,.48-.5c.07,0,7.46-.35,10.22-.6a10.2,10.2,0,0,1,5.94,1.81.49.49,0,0,1,.21.4c0,.24.57,1.69,1.1,3.09,1.2,3.2,2.84,7.59,3.14,9.8h0c.48,3.65-5,9.23-7.32,9.71A9.45,9.45,0,0,1,393.32,485.54Zm-11-23.42c0,.17,0,.37,0,.59.13,1.39.37,4,.37,7.2,0,5.1,4.18,10.44,5.46,11.95,2.46,2.92,4.85,2.88,6.66,2.52,2-.4,6.94-5.53,6.53-8.6-.28-2.09-2-6.6-3.09-9.58-.7-1.88-1-2.71-1.11-3.13a9.08,9.08,0,0,0-5.11-1.53C389.75,461.76,384.08,462,382.35,462.12Z" style="fill:#263238"></path><path d="M395,484.87c2.23-.45,7.37-5.81,6.92-9.16,0,0,0-.08,0-.12-1.25,3.54-4,7.17-8.55,7.38-4.07.18-8.14-5.27-10.07-8.28a27.7,27.7,0,0,0,4.58,7.5C390.3,485.09,392.76,485.31,395,484.87Z" style="fill:#fff"></path><path d="M393.32,485.54a7.48,7.48,0,0,1-5.86-3,28.91,28.91,0,0,1-4.65-7.63.5.5,0,0,1,.88-.46c1.57,2.44,5.58,8.05,9.44,8.05h.18c5.15-.24,7.39-5,8.11-7.05a.5.5,0,0,1,1,.09l0,.14c.48,3.65-5,9.23-7.32,9.71A9.45,9.45,0,0,1,393.32,485.54Zm-6.5-5.48c.58.79,1.08,1.42,1.41,1.8,2.46,2.92,4.85,2.88,6.66,2.52,1-.21,2.88-1.7,4.34-3.51a8.74,8.74,0,0,1-5.87,2.6C391.06,483.57,388.76,482,386.82,480.06Z" style="fill:#263238"></path><path d="M346.68,180.47s-22.68,10.2-23.93,12.69a29.18,29.18,0,0,0-1.86,4.77s-6.43,36.68-8.08,43.73-3.53,11.4-.63,16.37,12,3.53,12,3.53-3.94,14.71-1.66,16.37a24.93,24.93,0,0,0,5,2.7s29.64,2.69,41.25,1.65,24.87-3.1,26.11-4.35-.62-9.53-.62-10.15,10.16-45.4,10.16-45.4l9.95,28.81-13.68,29.44,7,6.57s25.71-22.33,28.2-26.26,3.73-6.22,3.73-9.54-20.72-57.83-20.72-57.83-6-11.39-11.2-13.67S375,171.81,375,171.81Z" style="fill:#fff"></path><path d="M407.72,287.7a.5.5,0,0,1-.34-.13l-7-6.58a.51.51,0,0,1-.11-.57l13.6-29.25-9.31-27c-3.54,15.61-9.65,42.67-9.76,43.6,0,.08.11.65.2,1.2.89,5,1.24,8.31.28,9.28-1.53,1.53-16.33,3.59-26.43,4.49-11.52,1-41-1.63-41.33-1.66a.32.32,0,0,1-.14,0,25.28,25.28,0,0,1-5.09-2.75c-2.25-1.64.35-12.59,1.28-16.19-2.3.23-9.21.54-11.78-3.86s-1.56-8.29-.19-13.69c.25-1,.51-2,.76-3,1.64-7,8-43.34,8.08-43.71a28.36,28.36,0,0,1,1.91-4.9c1.28-2.58,21.83-11.87,24.17-12.92l.06,0,28.3-8.66a.7.7,0,0,1,.25,0c1.13.24,27.68,5.84,32.85,8.12s11.18,13.43,11.43,13.9c.87,2.29,20.78,54.69,20.78,58.06s-1.22,5.7-3.81,9.8-27.24,25.47-28.29,26.38A.5.5,0,0,1,407.72,287.7Zm-6.43-7.19,6.45,6c3-2.65,25.49-22.27,27.76-25.86,2.48-3.93,3.65-6.13,3.65-9.27,0-2.64-14.94-42.51-20.69-57.65,0-.05-6-11.21-10.93-13.4s-30.49-7.59-32.52-8l-28.15,8.61c-8.71,3.92-22.81,10.75-23.66,12.44a29.87,29.87,0,0,0-1.83,4.68c-.05.32-6.44,36.73-8.08,43.72-.25,1.08-.51,2.1-.76,3.07-1.36,5.36-2.27,8.9.09,12.93,2.69,4.62,11.42,3.3,11.51,3.28a.55.55,0,0,1,.45.16.53.53,0,0,1,.11.47c-1.6,6-3.23,14.83-1.85,15.84a24.67,24.67,0,0,0,4.8,2.61c1.63.14,29.93,2.65,41.08,1.65,13.14-1.18,24.86-3.26,25.81-4.21.53-.53.34-3.35-.55-8.4a11.62,11.62,0,0,1-.22-1.4c0-.63,7.78-35,10.17-45.51a.5.5,0,0,1,1-.05L414.84,251a.55.55,0,0,1,0,.38Z" style="fill:#263238"></path><path d="M327.86,212.46a.51.51,0,0,1-.5-.5l0-5.18a.48.48,0,0,1,.49-.5h0a.51.51,0,0,1,.5.49l0,5.18a.49.49,0,0,1-.49.51Z" style="fill:#263238"></path><path d="M324.21,262.06h-.09a.5.5,0,0,1-.41-.58l3.93-21.32-.23-23.56a.5.5,0,0,1,.49-.51.54.54,0,0,1,.51.5l.22,23.65-3.93,21.42A.51.51,0,0,1,324.21,262.06Z" style="fill:#263238"></path><path d="M404.42,222.88a.5.5,0,0,1-.45-.26l-4.76-9.12a.5.5,0,1,1,.88-.47l4.77,9.12a.51.51,0,0,1-.21.68A.46.46,0,0,1,404.42,222.88Z" style="fill:#263238"></path><path d="M398.61,216.25a.52.52,0,0,1-.38-.17c-.09-.12-2.38-2.88-3-8.56s2.19-12.6,2.31-12.89a.5.5,0,0,1,.92.38c0,.07-2.84,7-2.24,12.4s2.76,8,2.79,8a.5.5,0,0,1-.06.7A.52.52,0,0,1,398.61,216.25Z" style="fill:#263238"></path><path d="M418.18,251.88a11.1,11.1,0,0,1-2.26-.2.5.5,0,0,1,.21-1,13.75,13.75,0,0,0,9.17-1.81.51.51,0,0,1,.69.17.51.51,0,0,1-.17.69A14.73,14.73,0,0,1,418.18,251.88Z" style="fill:#263238"></path><path d="M375.55,244.88a.49.49,0,0,1-.32-.12.52.52,0,0,1-.06-.71,24.16,24.16,0,0,0,1.95-2.52.5.5,0,0,1,.84.54,25.08,25.08,0,0,1-2,2.63A.46.46,0,0,1,375.55,244.88Z" style="fill:#263238"></path><path d="M359.09,261.07a.5.5,0,0,1-.33-.88c.08-.07,8.05-7.22,13.63-13.08a.5.5,0,1,1,.72.69c-5.6,5.89-13.61,13.07-13.69,13.14A.51.51,0,0,1,359.09,261.07Z" style="fill:#263238"></path><path d="M364.41,262a.49.49,0,0,1-.37-.16.49.49,0,0,1,0-.7l10.94-10a.5.5,0,0,1,.71,0,.5.5,0,0,1,0,.71l-10.95,10A.46.46,0,0,1,364.41,262Z" style="fill:#263238"></path><path d="M395.1,220.11a6.62,6.62,0,0,1-1.77-.29.5.5,0,1,1,.28-1,4.89,4.89,0,0,0,1.71.24.5.5,0,1,1,.09,1Z" style="fill:#263238"></path><path d="M390.23,218.52a.64.64,0,0,1-.23-.05,63.88,63.88,0,0,1-6.81-4.09.52.52,0,0,1-.12-.7.51.51,0,0,1,.7-.12,60.9,60.9,0,0,0,6.68,4,.49.49,0,0,1,.22.67A.48.48,0,0,1,390.23,218.52Z" style="fill:#263238"></path><polygon points="342.49 185.95 344.59 202.88 338.78 258.98 347.49 277.51 355.87 257.53 348.29 203.69 355.23 186.44 348.45 183.53 342.49 185.95" style="fill:#92E3A9"></polygon><path d="M347.49,278a.49.49,0,0,1-.45-.28l-8.71-18.54a.48.48,0,0,1,0-.27l5.79-56L342,186a.5.5,0,0,1,.3-.53l6-2.42a.46.46,0,0,1,.38,0l6.77,2.9a.49.49,0,0,1,.27.64l-6.88,17.13,7.56,53.71a.46.46,0,0,1,0,.26l-8.38,20a.49.49,0,0,1-.45.3Zm-8.2-19.12,8.17,17.39,7.9-18.82-7.56-53.7a.57.57,0,0,1,0-.26l6.75-16.8-6.13-2.62L343,186.27l2.05,16.55a.21.21,0,0,1,0,.11Z" style="fill:#263238"></path><polygon points="345.88 173.86 336.69 180.96 346.52 192.08 347.97 190.15 349.1 178.22 345.88 173.86" style="fill:#fff"></polygon><path d="M346.52,192.58a.48.48,0,0,1-.37-.17l-9.84-11.12a.53.53,0,0,1-.12-.38.49.49,0,0,1,.19-.35l9.19-7.09a.5.5,0,0,1,.71.1l3.22,4.35a.47.47,0,0,1,.1.34l-1.13,11.93a.46.46,0,0,1-.1.25l-1.45,1.94a.51.51,0,0,1-.38.2ZM337.42,181l9.07,10.26,1-1.33,1.09-11.6-2.8-3.79Z" style="fill:#263238"></path><path d="M330.56,115.19a7.51,7.51,0,0,0,.65,5s-4.19-1.93-3.71.33,4.35,2.9,4.35,2.9-2.9,9-2.58,12.25,1.29,5,1.13,6.61S323,150,323.47,151s4.67,3.23,4.67,3.23,4.2,14.18,4.68,16.12,2.9,2.9,4,2.9,6.29-2.42,6.29-2.42l3.54,9.67,1.29,9.67,22.73-25.79-1.29-9.67s7.26-15,8.06-20.15-2.09-17.41-4.19-19.34-11.93-6-17.89-6a53,53,0,0,0-11.61,1.45s.65-2.58-1.29-2.09-6.77,4.19-6.77,4.19-1.61-2.26-3.06-1.13A7.77,7.77,0,0,0,330.56,115.19Z" style="fill:#fff"></path><path d="M348,190.64a.32.32,0,0,1-.14,0,.48.48,0,0,1-.35-.41l-1.29-9.62-3.34-9.11c-1.46.67-5,2.24-6,2.24-1.33,0-4-1.1-4.52-3.28-.44-1.78-4.1-14.17-4.61-15.9-1-.56-4.21-2.36-4.7-3.34-.36-.74.57-1.82,3.34-4.71,1.39-1.45,3.48-3.64,3.54-4.27a8,8,0,0,0-.4-2.65,24.87,24.87,0,0,1-.72-3.86c-.29-2.87,1.81-9.92,2.43-11.93-1.17-.29-3.77-1.15-4.2-3.17a1.29,1.29,0,0,1,.38-1.39c.67-.55,2-.26,3,.08a7.85,7.85,0,0,1-.45-2.18,12.17,12.17,0,0,1,.17-2s0,0,0,0a8.15,8.15,0,0,1,2.27-3.81,1.88,1.88,0,0,1,1.47-.4,3.54,3.54,0,0,1,2,1.23c1.21-.9,4.87-3.56,6.57-4a1.54,1.54,0,0,1,1.55.31,2.13,2.13,0,0,1,.46,1.62,53.4,53.4,0,0,1,11-1.3c6.12,0,16.11,4.14,18.23,6.1,2.37,2.19,5.13,14.76,4.35,19.79s-7.27,18.55-8,20.15l1.27,9.53a.5.5,0,0,1-.12.39l-22.73,25.8A.55.55,0,0,1,348,190.64Zm-4.83-20.34a.46.46,0,0,1,.19,0,.5.5,0,0,1,.28.29l3.54,9.67a.35.35,0,0,1,0,.11l1.14,8.58,21.86-24.8-1.26-9.44a.48.48,0,0,1,0-.29c.07-.15,7.23-15,8-20s-2.09-17.1-4-18.9-11.75-5.83-17.55-5.83a52.47,52.47,0,0,0-11.49,1.44.5.5,0,0,1-.47-.13.51.51,0,0,1-.14-.48c.11-.44.16-1.2-.08-1.45s-.39-.09-.6,0c-1.5.38-5.26,3.09-6.58,4.11a.48.48,0,0,1-.38.09.5.5,0,0,1-.34-.2,3.18,3.18,0,0,0-1.64-1.23.91.91,0,0,0-.71.21,7.18,7.18,0,0,0-1.91,3.26,10.91,10.91,0,0,0-.15,1.82,10.22,10.22,0,0,0,.77,2.87.51.51,0,0,1-.67.65c-1.14-.53-2.64-.92-3-.64-.09.07,0,.32,0,.4.34,1.58,3,2.35,3.94,2.52a.47.47,0,0,1,.35.23.53.53,0,0,1,.05.41c0,.09-2.87,9-2.56,12.05a24.34,24.34,0,0,0,.7,3.72,8.88,8.88,0,0,1,.43,3c-.09.91-1.5,2.44-3.82,4.86a23.65,23.65,0,0,0-3.12,3.64,20.81,20.81,0,0,0,4.42,2.94.45.45,0,0,1,.24.3c.17.58,4.2,14.21,4.68,16.14.41,1.63,2.56,2.52,3.55,2.52.74,0,4.12-1.46,6.07-2.37A.54.54,0,0,1,343.14,170.3Z" style="fill:#263238"></path><polygon points="371.67 162.26 349.75 182.09 354.1 191.6 377.79 171.12 371.67 162.26" style="fill:#fff"></polygon><path d="M354.1,192.1l-.11,0a.49.49,0,0,1-.35-.28l-4.35-9.51a.51.51,0,0,1,.12-.58l21.92-19.82a.49.49,0,0,1,.4-.13.5.5,0,0,1,.35.21l6.13,8.87a.51.51,0,0,1-.09.66L354.42,192A.48.48,0,0,1,354.1,192.1Zm-3.75-9.89,3.93,8.57L377.13,171l-5.55-8Z" style="fill:#263238"></path><path d="M355.71,161c1.61-2.42,2.74-6,1.61-8.71s.16-13.22.32-13.86,4.68-5.16,7.74-3.55,2.74,8.22,2.1,10.48-5.48,6.93-5.48,6.93,6.28,2.42,7.41,2.42c0,0,7.26-15,8.06-20.15s-2.09-17.41-4.19-19.34-11.93-6-17.89-6a53,53,0,0,0-11.61,1.45s.65-2.58-1.29-2.09-6.77,4.19-6.77,4.19-1.61-2.26-3.06-1.13a7.77,7.77,0,0,0-2.1,3.55,7.51,7.51,0,0,0,.65,5s-4.19-1.93-3.71.33,4.35,2.9,4.35,2.9a33.86,33.86,0,0,0,3.55-1,17.37,17.37,0,0,0,3.22-1.93s12.09.32,10.8,3.06-5.16,6.12-4.51,7.9,7.41,7.41,7.41,7.41-.16,11.45-.48,13.22-6.29,5.64-6.29,5.64-3.7-2.25-7.41-4.35-6.93-2.42-7.9-1.93-2.1,2.74-2.1,2.74,4.2,14.18,4.68,16.12,2.9,2.9,4,2.9,6.29-2.42,6.29-2.42S354.1,163.39,355.71,161Z" style="fill:#263238"></path><path d="M336.85,173.72c-1.33,0-4-1.1-4.52-3.28-.47-1.9-4.62-16-4.66-16.1a.48.48,0,0,1,0-.37c.12-.24,1.23-2.42,2.32-3,1.28-.64,4.76-.09,8.36,2,3.11,1.75,6.24,3.64,7.16,4.19,2.39-1.57,5.62-4.1,5.81-5.14.28-1.57.44-11.25.47-12.9-1.24-1-6.75-5.73-7.38-7.47-.49-1.34.82-3,2.33-5a20.1,20.1,0,0,0,2.2-3.26.35.35,0,0,0,0-.36c-.78-1.25-6.59-1.88-10.19-2a16.82,16.82,0,0,1-3.21,1.9,33.36,33.36,0,0,1-3.61,1h-.19c-.17,0-4.21-.73-4.76-3.29a1.29,1.29,0,0,1,.38-1.39c.67-.55,2-.26,3,.08a7.85,7.85,0,0,1-.45-2.18,12.17,12.17,0,0,1,.17-2,8.2,8.2,0,0,1,2.28-3.84,1.88,1.88,0,0,1,1.47-.4,3.54,3.54,0,0,1,2,1.23c1.21-.9,4.87-3.56,6.57-4a1.54,1.54,0,0,1,1.55.31,2.13,2.13,0,0,1,.46,1.62,53.4,53.4,0,0,1,11-1.3c6.12,0,16.11,4.14,18.23,6.1,2.37,2.19,5.13,14.76,4.35,19.79s-7.81,19.67-8.11,20.29a.5.5,0,0,1-.45.28c-1.16,0-6.53-2-7.59-2.45a.51.51,0,0,1-.17-.83c1.32-1.27,4.85-5,5.35-6.71.66-2.32.83-8.48-1.85-9.89a3.24,3.24,0,0,0-2.64,0,10.35,10.35,0,0,0-4.39,3.28c-.16.65-1.39,10.95-.34,13.52,1.26,3.05-.1,6.85-1.65,9.18h0c-1.65,2.47-12.26,9.66-12.71,10C342.47,171.67,338,173.72,336.85,173.72Zm-8.17-19.47c.52,1.77,4.17,14.12,4.62,15.95.41,1.63,2.56,2.52,3.55,2.52.74,0,4.12-1.46,6.07-2.37,3.7-2.51,11.14-7.81,12.37-9.66,1.42-2.12,2.68-5.55,1.57-8.24-1.23-3,.19-13.74.3-14.17.16-.66,2.27-2.75,4.42-3.71a4.47,4.47,0,0,1,4-.16c3.37,1.77,3,8.63,2.35,11.06-.55,1.91-3.75,5.28-5.06,6.6a59.88,59.88,0,0,0,6.21,2.07c1.05-2.19,7.15-15.07,7.87-19.69.77-4.93-2.09-17.1-4-18.9s-11.75-5.83-17.55-5.83a52.21,52.21,0,0,0-11.48,1.44.52.52,0,0,1-.48-.13.48.48,0,0,1-.13-.48c.1-.44.15-1.2-.09-1.45s-.39-.09-.6,0c-1.5.38-5.26,3.09-6.58,4.11a.48.48,0,0,1-.38.09.5.5,0,0,1-.34-.2,3.18,3.18,0,0,0-1.64-1.23.91.91,0,0,0-.71.21,7.14,7.14,0,0,0-1.91,3.28h0a7,7,0,0,0,.62,4.67.51.51,0,0,1-.67.65c-1.14-.53-2.64-.92-3-.64-.09.07,0,.32,0,.4.33,1.53,2.81,2.3,3.85,2.5a31.67,31.67,0,0,0,3.38-.93,17.35,17.35,0,0,0,3.1-1.86.46.46,0,0,1,.32-.1c1.64,0,9.88.37,11.18,2.47a1.31,1.31,0,0,1,.06,1.3,21.07,21.07,0,0,1-2.32,3.45c-1.16,1.52-2.48,3.24-2.18,4.07.44,1.2,4.58,5,7.26,7.2a.47.47,0,0,1,.18.39c0,.47-.16,11.51-.49,13.3s-5.48,5.31-6.5,6a.5.5,0,0,1-.54,0s-3.74-2.28-7.4-4.34-6.7-2.29-7.43-1.93A6.92,6.92,0,0,0,328.68,154.25Zm27,6.72h0Z" style="fill:#263238"></path><path d="M331.66,158.9h-.34a.5.5,0,0,1-.45-.55.52.52,0,0,1,.55-.45,7,7,0,0,0,5.54-2.58.5.5,0,0,1,.75.67A8.22,8.22,0,0,1,331.66,158.9Z" style="fill:#969696"></path><path d="M332.82,143.9a.5.5,0,0,1-.38-.82,3.7,3.7,0,0,1,4.64-.77.5.5,0,0,1,.21.68.5.5,0,0,1-.68.2,2.73,2.73,0,0,0-3.41.53A.49.49,0,0,1,332.82,143.9Z" style="fill:#263238"></path><path d="M331.37,138.72a2.86,2.86,0,0,1,1.77-2.42c1.61-.48,4.84,2.42,4.84,2.42a23.83,23.83,0,0,0-3.55,0A17.08,17.08,0,0,1,331.37,138.72Z" style="fill:#263238"></path><path d="M333,139.29c-.91,0-1.63-.07-1.67-.07a.51.51,0,0,1-.45-.54,3.33,3.33,0,0,1,2.13-2.85c1.83-.55,5,2.21,5.31,2.52a.51.51,0,0,1,.13.57.49.49,0,0,1-.5.3,24.17,24.17,0,0,0-3.45,0A13,13,0,0,1,333,139.29Zm-1-1a15.23,15.23,0,0,0,2.41,0,16.32,16.32,0,0,1,2.1-.08c-1.14-.82-2.48-1.58-3.19-1.37A2.08,2.08,0,0,0,332,138.26Z" style="fill:#263238"></path><polygon points="336.69 180.96 337.82 191.43 341.36 186.12 336.69 180.96" style="fill:#fff"></polygon><path d="M337.82,191.93h-.12a.49.49,0,0,1-.38-.43L336.19,181a.5.5,0,0,1,.87-.39l4.67,5.16a.48.48,0,0,1,0,.61l-3.55,5.32A.49.49,0,0,1,337.82,191.93Zm-.47-9.5.82,7.58,2.56-3.85Z" style="fill:#263238"></path><path d="M325.21,232.46a13,13,0,0,0,3.52-.31c1.45-.41,2.27,0,1.86,1.35a4.83,4.83,0,0,1-2.58,2.89c-.93.31-3.21.83-3.21.83Z" style="fill:#fff"></path><path d="M324.8,237.72a.51.51,0,0,1-.5-.55l.42-4.75a.5.5,0,0,1,.52-.46,12.56,12.56,0,0,0,3.35-.29c1.3-.37,1.94-.07,2.25.24a1.63,1.63,0,0,1,.23,1.73,5.34,5.34,0,0,1-2.91,3.22c-.94.32-3.15.82-3.25.85Zm.87-4.75-.31,3.6c.74-.17,1.9-.46,2.49-.65a4.37,4.37,0,0,0,2.26-2.57c.11-.36.12-.63,0-.74s-.52-.19-1.25,0A12.31,12.31,0,0,1,325.67,233Z" style="fill:#263238"></path><polygon points="324.16 250.52 310.16 250.52 308.41 219.53 325.91 219.53 324.16 250.52" style="fill:#fff"></polygon><path d="M324.16,251h-14a.49.49,0,0,1-.5-.47l-1.75-31a.5.5,0,0,1,.13-.37.52.52,0,0,1,.37-.16h17.5a.48.48,0,0,1,.36.16.47.47,0,0,1,.14.37l-1.75,31A.49.49,0,0,1,324.16,251Zm-13.53-1h13.06l1.69-30H308.94Z" style="fill:#263238"></path><polygon points="309.78 226.42 311.03 248.59 323.29 248.59 324.54 226.42 309.78 226.42" style="fill:#92E3A9"></polygon><path d="M323.29,249.09H311a.51.51,0,0,1-.5-.48l-1.25-22.16a.47.47,0,0,1,.14-.37.48.48,0,0,1,.36-.16h14.76a.48.48,0,0,1,.36.16.5.5,0,0,1,.14.37l-1.26,22.16A.5.5,0,0,1,323.29,249.09Zm-11.79-1h11.31l1.2-21.17h-13.7Z" style="fill:#263238"></path><path d="M308.16,230.81s-.93,4-.52,4.86,10.54-1.35,11.06-2.38a2.15,2.15,0,0,0-2-2.79C315.19,230.39,308.16,230.81,308.16,230.81Z" style="fill:#fff"></path><path d="M308.45,236.35h0c-.53,0-1.06-.06-1.26-.46-.46-.92.25-4.21.48-5.19a.49.49,0,0,1,.46-.39c.28,0,7.08-.41,8.64-.31a2.79,2.79,0,0,1,2.23,1.41,2.23,2.23,0,0,1,.15,2.1C318.52,234.77,310.59,236.35,308.45,236.35Zm-.36-.91h0Zm0-.11c1.37.31,9.53-1.5,10.22-2.3a1.26,1.26,0,0,0-.14-1.12,1.79,1.79,0,0,0-1.43-.91c-1.3-.09-6.66.2-8.14.29A16,16,0,0,0,308.05,235.33Z" style="fill:#263238"></path><path d="M307.85,239a31.15,31.15,0,0,0,.51,4.75c.31.62,0,3.21.42,4.24s-.42,1.65-.11,2.38,3.31,1.76,5.69,1.45,4.34-1.66,4.24-2.18-1.24-.72-2.07-.72-4.76-.41-4.76-.41,7.76-1.24,9.1-2.17a2.31,2.31,0,0,0,1.14-2.59,4,4,0,0,0-1-1.65,6.52,6.52,0,0,0,.31-2.59c-.21-1-2-1.55-2.59-1.55S308.26,238.46,307.85,239Z" style="fill:#fff"></path><path d="M313.49,252.35c-2.21,0-4.87-.86-5.28-1.81a1.82,1.82,0,0,1,.05-1.33,1.37,1.37,0,0,0,.05-1.05,8.54,8.54,0,0,1-.28-2.64,7.66,7.66,0,0,0-.11-1.57,25.32,25.32,0,0,1-.57-4.95.48.48,0,0,1,.11-.34c.65-.82,11.14-1.22,11.24-1.22.76,0,2.8.58,3.08,1.95a6.47,6.47,0,0,1-.24,2.56,3.84,3.84,0,0,1,1,1.71,2.77,2.77,0,0,1-1.34,3.07c-.8.55-3.43,1.16-5.7,1.61.48,0,.88.06,1.07.06.39,0,2.34,0,2.56,1.13a.92.92,0,0,1-.19.7,7.46,7.46,0,0,1-4.48,2.06A6.81,6.81,0,0,1,313.49,252.35Zm-5.13-13a26.48,26.48,0,0,0,.45,4.21,5.43,5.43,0,0,1,.22,2,8.13,8.13,0,0,0,.21,2.27,2.34,2.34,0,0,1,0,1.73c-.1.32-.14.49-.08.64.24.41,2.85,1.46,5.16,1.15a6.81,6.81,0,0,0,3.77-1.62,3.73,3.73,0,0,0-1.53-.28c-.84,0-4.65-.4-4.81-.42a.5.5,0,0,1-.45-.48.52.52,0,0,1,.43-.51c3.07-.49,8-1.45,8.89-2.09a1.8,1.8,0,0,0,.92-2.1,3.34,3.34,0,0,0-.89-1.37.5.5,0,0,1-.12-.51,5.92,5.92,0,0,0,.3-2.33c-.14-.66-1.54-1.15-2.1-1.15A103.18,103.18,0,0,0,308.36,239.3Z" style="fill:#263238"></path><line x1="320.98" y1="242.08" x2="309.5" y2="243.94" style="fill:#fff"></line><path d="M309.5,244.44a.5.5,0,0,1-.08-1l11.48-1.86a.51.51,0,0,1,.57.42.5.5,0,0,1-.41.57l-11.48,1.86Z" style="fill:#263238"></path><path d="M400.69,280.63l-7.31,6.15-9.07,6.9L396.84,306s3.32-2.81,4.34-6,3.2-7.54,3.32-7.92,3.22-4.82,3.22-4.82Z" style="fill:#fff"></path><path d="M396.83,306.45a.49.49,0,0,1-.34-.14L384,294a.52.52,0,0,1-.15-.39.49.49,0,0,1,.2-.37l9.07-6.9,7.28-6.14a.52.52,0,0,1,.67,0l7,6.58a.49.49,0,0,1,.06.65c-1.43,2.05-3,4.39-3.16,4.71,0,.08-.19.44-.44,1a65.1,65.1,0,0,0-2.87,6.92c-1.06,3.29-4.36,6.11-4.5,6.23A.52.52,0,0,1,396.83,306.45Zm-11.76-12.72,11.78,11.53a14.66,14.66,0,0,0,3.85-5.47,69.12,69.12,0,0,1,2.92-7c.22-.48.38-.8.41-.9.12-.37,1.85-2.89,3-4.59l-6.4-6-7,5.87Z" style="fill:#263238"></path></g><g id="character-2"><path d="M241.68,464.44s4-1.49,5.12-1.32,3.29,0,3.12,1.81-.49,14.12-.49,14.12a26.05,26.05,0,0,1-6.57,1.15h-3s-17.41-1.31-19.55-3.28.33-4.44.33-4.44,7.88,1.48,10.18-1.81a35.26,35.26,0,0,1,6.41-6.4Z" style="fill:#fff"></path><path d="M242.86,480.7h-3c-1.84-.14-17.69-1.39-19.89-3.42a2.94,2.94,0,0,1-1-2.15,4.66,4.66,0,0,1,1.35-3,.48.48,0,0,1,.44-.14c.08,0,7.6,1.38,9.68-1.6a35.42,35.42,0,0,1,6.52-6.52.51.51,0,0,1,.32-.1l4.3.16c.86-.31,4.11-1.47,5.27-1.31a5.11,5.11,0,0,0,.59.06,3.7,3.7,0,0,1,2.58.89,1.87,1.87,0,0,1,.38,1.4c-.16,1.77-.49,14-.49,14.09a.49.49,0,0,1-.35.47A26.21,26.21,0,0,1,242.86,480.7Zm-22-7.68a3.48,3.48,0,0,0-.89,2.1,1.94,1.94,0,0,0,.71,1.43c1.47,1.36,12.31,2.63,19.24,3.15h2.92a25.06,25.06,0,0,0,6.08-1c.06-2.09.34-12.15.49-13.8a.92.92,0,0,0-.16-.67c-.33-.4-1.2-.47-1.9-.53l-.64-.07c-.75-.1-3.39.74-4.88,1.3a1.08,1.08,0,0,1-.19,0l-4.22-.16a34.24,34.24,0,0,0-6.16,6.18C229.05,474.14,222.36,473.26,220.88,473Z" style="fill:#263238"></path><path d="M215.05,278.3s-3.05,20.25-.56,51.32a407.35,407.35,0,0,0,8,54.65s.28,8.6,1.94,23.3,7.77,48,7.77,48-6.11,12.2-7.21,13.87-5.83,3.05-5,4.44,9.43,1.94,11.93.55,7.49-8.6,9.71-10,5-.56,5.27-2.5-2.5-10.82-2.5-11.93,2.78-31.34,3.33-40.22-1.11-28.57-1.11-28.57l5.27-41.89s6.66,41.33,9.43,46.6,25.25,65.75,25.25,65.75a54.06,54.06,0,0,0-1.11,8.32c0,3.05-.28,9.15-.28,9.15l-.56,3.05a5.37,5.37,0,0,0,3.61-4.44c.56-3.6.83-5,3.88-5.82s7.77,0,7.77,0c.83,13.32,5.3,12.29-1.39-7.77-1.1-3.33-3.32-7.21-3.32-8.32s-1.39-39.94-5.55-51.59-7.49-22.47-7.49-22.47l.55-11.93s7.77-46.33,6.38-57.7a78.11,78.11,0,0,0-5.54-20.53Z" style="fill:#fff"></path><path d="M226.88,475.72c-3.23,0-6.66-.59-7.27-1.6a1.11,1.11,0,0,1-.13-.87c.21-.84,1.34-1.5,2.65-2.26a8.92,8.92,0,0,0,2.49-1.84c1-1.52,6.4-12.27,7.11-13.66-.47-2.56-6.16-33.84-7.75-47.86-1.64-14.56-1.94-23.26-1.94-23.34a409.91,409.91,0,0,1-8-54.63c-2.48-30.77.52-51.23.55-51.43a.49.49,0,0,1,.52-.42l68.52,3.32a.51.51,0,0,1,.43.3,79.38,79.38,0,0,1,5.59,20.67c1.38,11.31-6.07,55.95-6.38,57.84l-.55,11.78c.32,1,3.54,11.39,7.46,22.37,4.28,12,5.58,51.4,5.58,51.76a16.18,16.18,0,0,0,1.31,3.37,51.86,51.86,0,0,1,2,4.79c3,8.9,4.35,16.09,3.28,17.1a.62.62,0,0,1-.68.13c-1.1-.43-1.88-4.82-2.16-8.87a20.61,20.61,0,0,0-7.16.05c-2.7.74-3,1.73-3.52,5.42a5.88,5.88,0,0,1-4,4.85.5.5,0,0,1-.47-.12.49.49,0,0,1-.16-.46l.56-3.05h0S285,463,285,460a52.54,52.54,0,0,1,1.09-8.29c-1.19-3.19-22.5-60.48-25.17-65.54-2.34-4.45-7.25-33.28-8.92-43.35l-4.84,38.41c.1,1.14,1.65,20,1.11,28.59C248,415.15,246.8,428.35,246,438c-.54,6.23-1,11.61-1,12a37,37,0,0,0,.86,3.67c1,4,1.81,7.12,1.63,8.33-.21,1.49-1.54,1.74-2.82,2a7.52,7.52,0,0,0-2.68.87,30,30,0,0,0-4.31,4.51c-2,2.32-4,4.71-5.42,5.49A12.67,12.67,0,0,1,226.88,475.72Zm-11.4-196.89c-.42,3.14-2.75,22.61-.49,50.75a410.52,410.52,0,0,0,8,54.58c0,.18.3,8.84,1.95,23.35s7.7,47.63,7.76,48a.47.47,0,0,1-.05.31c-.25.5-6.13,12.26-7.24,13.93a8.84,8.84,0,0,1-2.82,2.14c-.92.54-2.07,1.21-2.18,1.65a.12.12,0,0,0,0,.11c.59,1,8.75,1.77,11.26.38,1.24-.7,3.31-3.12,5.14-5.27a29.71,29.71,0,0,1,4.54-4.71,8.41,8.41,0,0,1,3-1c1.39-.26,1.92-.42,2-1.13.16-1.11-.9-5.22-1.61-7.94A28,28,0,0,1,244,450c0-.44.37-4.68,1-12.12.83-9.63,2-22.81,2.31-28.13.55-8.74-1.09-28.3-1.11-28.5a.31.31,0,0,1,0-.1l5.27-41.89a.49.49,0,0,1,.48-.44.52.52,0,0,1,.51.42c.06.41,6.67,41.31,9.38,46.45s24.35,63.33,25.26,65.8a.54.54,0,0,1,0,.28A52.55,52.55,0,0,0,286,460c0,3-.28,9.11-.28,9.17l-.4,2.2a4.93,4.93,0,0,0,2.46-3.68c.54-3.53.81-5.3,4.24-6.23,3.13-.86,7.79,0,8,0a.4.4,0,0,1,.21.09c-.53-2-1.23-4.42-2.16-7.21-.52-1.55-1.28-3.22-1.95-4.69a13,13,0,0,1-1.4-3.79c0-2.46-1.54-40.28-5.52-51.43-4.12-11.52-7.47-22.38-7.5-22.49a.47.47,0,0,1,0-.17l.55-11.93c.09-.52,7.75-46.44,6.39-57.61a79.08,79.08,0,0,0-5.39-20.1Zm85,183.64a28.66,28.66,0,0,0,1.2,7.12A34.83,34.83,0,0,0,300.47,462.47Z" style="fill:#263238"></path><path d="M284.67,472.2a3.36,3.36,0,0,0-.75,2.25c.17,1.15.5,1.32,1.48,2a16.18,16.18,0,0,0,3.29,1.32s.32,2.3,1.64,2.62a31.28,31.28,0,0,0,8.38.66c2.46-.33,3.77-14.29,3.77-16.59s-2.55-2.49-2.55-2.49-7.79-.63-10.26.69-2.3,5.09-2.63,5.91A35,35,0,0,1,284.67,472.2Z" style="fill:#fff"></path><path d="M297.08,481.61a36.12,36.12,0,0,1-6.87-.76c-1.31-.33-1.81-2-2-2.72a15.07,15.07,0,0,1-3.13-1.29l-.14-.09a2.65,2.65,0,0,1-1.55-2.23,3.74,3.74,0,0,1,.85-2.62,34.37,34.37,0,0,0,2.3-3.55,6,6,0,0,0,.16-.87c.22-1.56.59-4.17,2.7-5.3,2.56-1.36,10.21-.77,10.53-.74a3.08,3.08,0,0,1,3,3c0,.17-.91,16.65-4.21,17.09A14.37,14.37,0,0,1,297.08,481.61ZM296,462.29c-2.34,0-4.91.17-6,.78-1.67.88-2,3.18-2.18,4.55a5.09,5.09,0,0,1-.22,1.1,34.54,34.54,0,0,1-2.43,3.78l0,0a2.84,2.84,0,0,0-.64,1.86c.12.87.27,1,1.12,1.53l.14.1a16.5,16.5,0,0,0,3.14,1.25.49.49,0,0,1,.36.41c.08.51.47,2,1.27,2.21a31,31,0,0,0,8.19.65c1.76-.24,3.34-12.49,3.34-16.1,0-1.81-2-2-2.09-2C299,462.37,297.55,462.29,296,462.29Zm-11.29,9.91h0Z" style="fill:#263238"></path><path d="M286.55,471.33l-1.31-4.93a16,16,0,0,0-.57,5.8Z" style="fill:#92E3A9"></path><path d="M284.67,472.7a.46.46,0,0,1-.23-.06.51.51,0,0,1-.26-.36,16.18,16.18,0,0,1,.58-6,.5.5,0,0,1,.48-.36h0a.52.52,0,0,1,.48.37L287,471.2a.48.48,0,0,1-.27.58l-1.87.88A.54.54,0,0,1,284.67,472.7Zm.61-4.18a13.32,13.32,0,0,0-.18,2.94l.86-.41Z" style="fill:#263238"></path><path d="M294.94,439c-.59-11.93-2.15-36-5.27-44.73-4.16-11.66-7.49-22.47-7.49-22.47l.55-11.93s7.77-46.33,6.38-57.7a78.11,78.11,0,0,0-5.54-20.53l-68.52-3.33s-3.05,20.25-.56,51.32a407.35,407.35,0,0,0,8,54.65s.28,8.6,1.94,23.3c1,9,3.71,25,5.64,36.06H245c.83-9.63,2.41-27.38,2.81-33.84.56-8.88-1.11-28.57-1.11-28.57l5.27-41.89s6.66,41.33,9.43,46.6c2,3.76,13.95,35.53,20.67,53.49C286.13,438.39,290.78,437.87,294.94,439Z" style="fill:#263238"></path><path d="M245,444.13H230.12a.49.49,0,0,1-.49-.41c-2-11.56-4.64-27.2-5.65-36.09-1.64-14.56-1.94-23.26-1.94-23.34a409.91,409.91,0,0,1-8-54.63c-2.48-30.77.52-51.23.55-51.43a.49.49,0,0,1,.52-.42l68.52,3.32a.51.51,0,0,1,.43.3,79.38,79.38,0,0,1,5.59,20.67c1.38,11.31-6.07,55.95-6.38,57.84l-.55,11.78c.32,1,3.54,11.39,7.46,22.37,3.24,9.07,4.78,34.4,5.29,44.87a.51.51,0,0,1-.18.42.5.5,0,0,1-.44.09c-3.51-.94-7.76-.8-12.64.43a.49.49,0,0,1-.59-.31c-6.88-18.35-18.69-49.71-20.65-53.42-2.34-4.45-7.25-33.28-8.92-43.35l-4.84,38.41c.1,1.14,1.65,20,1.11,28.59C248,415.15,246.8,428.34,246,438l-.49,5.7A.5.5,0,0,1,245,444.13Zm-14.43-1h14l.46-5.25c.83-9.62,2-22.8,2.31-28.12.55-8.74-1.09-28.3-1.11-28.5a.31.31,0,0,1,0-.1l5.27-41.89a.49.49,0,0,1,.48-.44.52.52,0,0,1,.51.42c.06.41,6.67,41.31,9.38,46.45,2,3.73,13.64,34.69,20.54,53.13a26.62,26.62,0,0,1,12-.49c-.54-10.8-2.07-35.15-5.2-43.92-4.12-11.52-7.47-22.38-7.5-22.49a.47.47,0,0,1,0-.17l.55-11.93c.09-.52,7.75-46.44,6.39-57.61a79.08,79.08,0,0,0-5.39-20.1l-67.75-3.29c-.42,3.14-2.75,22.61-.49,50.75a410.52,410.52,0,0,0,8,54.58c0,.18.3,8.84,1.95,23.35C226,416.28,228.53,431.63,230.54,443.13Z" style="fill:#263238"></path><path d="M251.94,339.83a.52.52,0,0,1-.29-.09.51.51,0,0,1-.11-.7l7-9.82a.47.47,0,0,1,.23-.18l11-4.14a.5.5,0,0,1,.64.3.49.49,0,0,1-.29.64l-10.89,4.08-6.92,9.7A.49.49,0,0,1,251.94,339.83Z" style="fill:#969696"></path><path d="M223.32,470.84s-1.32,3-.82,3.61,4.1,1.15,4.1,1.15a38.6,38.6,0,0,1-.19-8.52c.05-.41,1.59-2.44,1.67-2.81C228.9,460.49,223.32,470.84,223.32,470.84Z" style="fill:#92E3A9"></path><path d="M226.6,476.1h-.07c-1.14-.16-3.88-.6-4.43-1.35s.22-2.91.76-4.12l0,0c4.32-8,5-7.78,5.37-7.62.58.21.41,1,.32,1.4a5.93,5.93,0,0,1-.84,1.44,10.39,10.39,0,0,0-.83,1.35,38,38,0,0,0,.2,8.36.53.53,0,0,1-.14.43A.54.54,0,0,1,226.6,476.1Zm-2.83-5a7.44,7.44,0,0,0-.86,3.11A9.88,9.88,0,0,0,226,475a39.5,39.5,0,0,1-.15-7.68C225.19,468.48,224.45,469.79,223.77,471.06Z" style="fill:#263238"></path><polygon points="204.26 250.48 189.96 250.48 188.17 218.83 206.05 218.83 204.26 250.48" style="fill:#fff"></polygon><path d="M204.26,251H190a.49.49,0,0,1-.49-.47l-1.79-31.66a.48.48,0,0,1,.5-.52h17.88a.48.48,0,0,1,.49.52l-1.78,31.66A.51.51,0,0,1,204.26,251Zm-13.83-1h13.36l1.73-30.65H188.7Z" style="fill:#263238"></path><polygon points="189.57 225.86 190.85 248.5 203.36 248.5 204.64 225.86 189.57 225.86" style="fill:#92E3A9"></polygon><path d="M203.36,249H190.85a.5.5,0,0,1-.5-.47l-1.28-22.64a.47.47,0,0,1,.14-.37.48.48,0,0,1,.36-.16h15.07a.52.52,0,0,1,.37.16.5.5,0,0,1,.13.37l-1.28,22.64A.5.5,0,0,1,203.36,249Zm-12-1h11.57l1.22-21.64h-14Z" style="fill:#263238"></path><path d="M200,237.51l2.64-3c.92-1,2.3-3.44,3.91-2.87.65.24.34,1.49-.58,3.91-.5,1.31-.8,1.95-1.15,3.1s-1.83,5.4-2.06,6.66,4.59,10,4.59,10l-11.49,14.93s-2.76-16.31-3-17-4-2.87-4.26-4a18,18,0,0,1-.23-5.52c.35-1.15.81-2.87.81-2.87a14.43,14.43,0,0,1-1.15-3.33c-.12-1.15.34-3.79.92-4s.69,0,1.15,1.26,2.07,2.53,4.71,3.22A8.63,8.63,0,0,0,200,237.51Z" style="fill:#fff"></path><path d="M195.87,270.75h-.12a.51.51,0,0,1-.37-.4c-1.1-6.5-2.8-16.36-3-16.93a10.23,10.23,0,0,0-1.48-1.24c-1.58-1.2-2.63-2-2.79-2.84-.22-1.11-.61-4.45-.21-5.76.27-.92.62-2.22.75-2.68a14.18,14.18,0,0,1-1.12-3.33c-.1-1,.25-4.14,1.23-4.54a1.1,1.1,0,0,1,.86,0c.44.2.62.7.95,1.6s1.67,2.2,4.36,2.91a8.13,8.13,0,0,0,4.75-.4l2.57-2.9c.17-.19.36-.43.56-.7.95-1.22,2.24-2.9,3.88-2.31a1,1,0,0,1,.57.52c.28.62.07,1.64-.84,4-.15.41-.29.75-.41,1.06-.28.69-.49,1.23-.73,2-.1.36-.32,1-.57,1.76-.56,1.69-1.33,4-1.48,4.85s2.24,5.51,4.54,9.67a.5.5,0,0,1,0,.54l-11.49,14.94A.53.53,0,0,1,195.87,270.75Zm-6.63-36.83-.07,0a8,8,0,0,0-.61,3.51,13.39,13.39,0,0,0,1.1,3.17.5.5,0,0,1,0,.34s-.46,1.73-.81,2.89a17.33,17.33,0,0,0,.24,5.27c.1.48,1.55,1.59,2.42,2.25,1.13.86,1.68,1.29,1.82,1.71.21.62,2.15,12.06,2.81,16l10.6-13.77c-1.31-2.37-4.73-8.76-4.5-10,.17-.91.92-3.17,1.52-5,.25-.74.46-1.38.56-1.72a22.15,22.15,0,0,1,.76-2.1l.41-1c.91-2.39,1-3.1.86-3.27-.95-.33-1.95,1-2.75,2-.22.28-.42.54-.61.74l-2.64,3a.38.38,0,0,1-.16.12,9,9,0,0,1-5.51.49c-2.61-.68-4.5-2-5.05-3.53A8.18,8.18,0,0,0,189.24,233.92ZM200,237.51h0Z" style="fill:#263238"></path><path d="M192.88,253.75a.49.49,0,0,1-.46-.33c0-.13-1.23-3.38.4-5.63s5-1.93,5.39-1.79a.49.49,0,0,1,.32.63.51.51,0,0,1-.63.32c-.33-.1-3-.35-4.27,1.42s-.29,4.68-.28,4.71a.49.49,0,0,1-.29.64A.57.57,0,0,1,192.88,253.75Z" style="fill:#263238"></path><path d="M208.15,252.44s-10.54,3.43-11.91,9.39-2.06,11-.69,13.75,8.71,5,11.69,3.89S208.15,252.44,208.15,252.44Z" style="fill:#fff"></path><path d="M205.24,280.27c-3.61,0-8.86-1.92-10.14-4.47s-1-6.71.65-14.08c1.42-6.16,11.81-9.61,12.25-9.76a.55.55,0,0,1,.43.06.5.5,0,0,1,.22.38c.49,6.16,1.85,26.35-1.23,27.54A6.14,6.14,0,0,1,205.24,280.27Zm2.47-27.14c-2.22.83-9.87,4-11,8.81s-2.17,10.54-.73,13.42c1.21,2.41,8.24,4.73,11.06,3.65C208.65,278.39,208.63,265.23,207.71,253.13Z" style="fill:#263238"></path><path d="M228.39,195.46s-15.65,5.88-15.88,8.4S205.4,252,205.4,252a24.75,24.75,0,0,0-4.81,13.29c-.46,8,2.75,13.52,4.81,15.81s8.94,5,15.58,3.43,9.4-3.2,9.4-3.2a100,100,0,0,0,33.68,4.35c19.48-.69,23.14-.92,23.14-3.44a35.86,35.86,0,0,1,.92-6.41s3.89-.23,9.62-7.33,3.9-16,2.52-20.85-7.56-29.79-7.56-29.79-6.64-20.39-8.71-26.35-14.43-7.1-20.85-7.79-16.79,5.83-16.79,5.83Z" style="fill:#fff"></path><path d="M260.44,286.22a101.35,101.35,0,0,1-30-4.37A42.12,42.12,0,0,1,221.1,285c-6.79,1.64-13.81-1.08-16.07-3.59-2.66-3-5.36-8.76-4.94-16.17a25.25,25.25,0,0,1,4.84-13.47c.41-2.73,6.86-45.54,7.08-48,.24-2.63,12.47-7.42,16.21-8.82h0l17.9-5.91c.9-.56,10.7-6.57,17.06-5.88l.57.06c7,.74,18.59,2,20.7,8.07,2,5.89,8.64,26.15,8.71,26.36s6.2,25.05,7.56,29.8c2.53,8.85,1.65,16-2.61,21.3-4.85,6-8.45,7.22-9.6,7.46a34.16,34.16,0,0,0-.83,6c0,3-3.36,3.22-23.62,3.94C262.84,286.2,261.63,286.22,260.44,286.22Zm-30.06-5.41.17,0A100,100,0,0,0,264,285.16c18-.63,22.66-.88,22.66-2.94a35.82,35.82,0,0,1,.93-6.53.5.5,0,0,1,.46-.38s3.79-.36,9.26-7.15c4.1-5.09,4.9-11.76,2.43-20.4-1.36-4.76-7.5-29.55-7.57-29.8s-6.65-20.42-8.69-26.31c-1.9-5.48-13.58-6.72-19.86-7.39l-.57-.06c-6.14-.66-16.37,5.69-16.47,5.76l-.11,0-17.95,5.93c-7.55,2.83-15.43,6.59-15.55,8-.23,2.51-6.83,46.28-7.11,48.14a.47.47,0,0,1-.11.25,24.53,24.53,0,0,0-4.7,13c-.52,9.16,3.81,14.47,4.69,15.44,1.83,2.05,8.45,4.89,15.09,3.29,6.47-1.56,9.23-3.14,9.26-3.16A.51.51,0,0,1,230.38,280.81ZM205.4,252h0Z" style="fill:#263238"></path><line x1="288.12" y1="275.81" x2="289.63" y2="236.78" style="fill:#92E3A9"></line><path d="M288.12,276.31h0a.5.5,0,0,1-.48-.52l1.51-39a.48.48,0,0,1,.52-.48.5.5,0,0,1,.48.52l-1.51,39A.5.5,0,0,1,288.12,276.31Z" style="fill:#263238"></path><path d="M230.38,281.31s2.75-3.67,2.75-4.81,1.6-34.14,1.6-42.16S234,219,234,219" style="fill:#fff"></path><path d="M230.38,281.81a.54.54,0,0,1-.3-.1.5.5,0,0,1-.1-.7c1.1-1.47,2.65-3.84,2.65-4.51,0-.33.12-3,.29-7,.46-10.26,1.31-29.36,1.31-35.17,0-7.9-.68-15.23-.68-15.31a.5.5,0,0,1,1-.09c0,.07.69,7.45.69,15.4,0,5.83-.85,25-1.31,35.22-.17,3.85-.29,6.63-.29,6.94,0,1.24-2.38,4.47-2.85,5.11A.51.51,0,0,1,230.38,281.81Z" style="fill:#263238"></path><path d="M234.73,234.84h-.1a.52.52,0,0,1-.39-.6l3.9-18.55a.49.49,0,0,1,.59-.39.51.51,0,0,1,.39.59l-3.9,18.56A.5.5,0,0,1,234.73,234.84Z" style="fill:#263238"></path><path d="M249.62,270.35a.51.51,0,0,1-.3-.1.5.5,0,0,1-.09-.7c1.9-2.54,8-14,11.42-20.55a.51.51,0,0,1,.68-.22.51.51,0,0,1,.21.68c-3.46,6.61-9.57,18.09-11.52,20.69A.48.48,0,0,1,249.62,270.35Z" style="fill:#263238"></path><path d="M262.23,247.55a.68.68,0,0,1-.23-.05.51.51,0,0,1-.21-.68c.85-1.62,1.37-2.63,1.37-2.63a.5.5,0,0,1,.67-.22.51.51,0,0,1,.22.68l-1.37,2.63A.49.49,0,0,1,262.23,247.55Z" style="fill:#263238"></path><path d="M243.21,273.56a.52.52,0,0,1-.37-.16.5.5,0,0,1,0-.71,71.73,71.73,0,0,0,6.58-7.72.5.5,0,0,1,.7-.1.51.51,0,0,1,.11.7,72.1,72.1,0,0,1-6.71,7.86A.5.5,0,0,1,243.21,273.56Z" style="fill:#263238"></path><path d="M203.11,266a.5.5,0,0,1-.48-.37c-.7-2.58,2-12.64,2.29-13.78a.5.5,0,0,1,1,.26c-.82,3-2.83,11.3-2.29,13.26a.5.5,0,0,1-.36.61Z" style="fill:#263238"></path><path d="M231.1,130.05s-4.74,6.61-6.1,11.19-.51,7.29-1.69,10.17-3.73,3.72-4.07,5.42a4.88,4.88,0,0,0,.68,3.56c.34.51,3.73,13.05,4.91,14.74s1.87,1.86,3.39,1.69a40.28,40.28,0,0,0,4.92-1.18l1.52,5.93L245,164Z" style="fill:#fff"></path><path d="M234.66,182.07h-.07a.48.48,0,0,1-.41-.37l-1.4-5.43a33.73,33.73,0,0,1-4.5,1.06c-1.73.19-2.57-.07-3.86-1.9-.76-1.09-2.21-5.84-3.76-11-.52-1.73-1-3.51-1.17-3.75a5.35,5.35,0,0,1-.74-3.91,4.83,4.83,0,0,1,1.71-2.39,8.83,8.83,0,0,0,2.39-3.12,13,13,0,0,0,.74-4.23,25,25,0,0,1,.93-5.89c1.37-4.61,6-11.06,6.18-11.34a.5.5,0,0,1,.87.11l13.89,33.89a.49.49,0,0,1,0,.44l-10.34,17.62A.48.48,0,0,1,234.66,182.07Zm-1.52-6.93a.5.5,0,0,1,.24.06.49.49,0,0,1,.24.31l1.22,4.76,9.6-16.36L231,131.09c-1.26,1.85-4.46,6.74-5.51,10.29a23.84,23.84,0,0,0-.89,5.68,13.61,13.61,0,0,1-.82,4.54,9.77,9.77,0,0,1-2.62,3.47,4.13,4.13,0,0,0-1.42,1.86,4.39,4.39,0,0,0,.61,3.18,34.15,34.15,0,0,1,1.28,4c1.08,3.62,2.89,9.69,3.62,10.73,1.09,1.55,1.61,1.63,2.93,1.49a40.86,40.86,0,0,0,4.82-1.17Z" style="fill:#263238"></path><path d="M222.93,165a5,5,0,0,1-.53,0,.5.5,0,0,1,.12-1,6.22,6.22,0,0,0,4.52-1.57.5.5,0,0,1,.68.74A7.16,7.16,0,0,1,222.93,165Z" style="fill:#263238"></path><path d="M226.7,152.06c-.09,1.07-.51,1.92-.93,1.88s-.68-.93-.59-2,.5-1.92.92-1.88S226.78,151,226.7,152.06Z" style="fill:#263238"></path><path d="M227.71,148.35a.5.5,0,0,1-.49-.43,1.54,1.54,0,0,0-.59-1.1,1.64,1.64,0,0,0-1.17-.18.49.49,0,0,1-.6-.37.48.48,0,0,1,.36-.6,2.66,2.66,0,0,1,2,.31,2.48,2.48,0,0,1,1,1.79.51.51,0,0,1-.42.57Z" style="fill:#263238"></path><path d="M230.09,124a52.08,52.08,0,0,0,3.56,26.44c5.76,13.73,6.94,15.76,6.94,15.76s-10.33,14.91-11,20-1.19,9.32-1.19,9.32l18-5.93s9.49,12,11.36,24.91-1.53,19.15-3.22,19.49,2,6.1,13.56,6.27,20.5-5.59,27.11-17.79-1.7-23.73-7-34.91A69.44,69.44,0,0,1,282,167.33s-1.11-36.43-3.82-41.51-23.38-8-31.69-7.63S229.24,117.18,230.09,124Z" style="fill:#263238"></path><path d="M268.55,240.71H268c-9.89-.14-14.27-4.41-14.43-6.16a1,1,0,0,1,.78-1.1c1.1-.22,4.73-5.74,2.82-18.92-1.67-11.53-9.63-22.53-11-24.4l-17.62,5.82a.5.5,0,0,1-.47-.09.47.47,0,0,1-.18-.44s.5-4.24,1.18-9.33c.65-4.84,9.52-17.92,10.93-20-.46-.91-2.12-4.33-6.83-15.54a53.3,53.3,0,0,1-3.6-26.64,4.75,4.75,0,0,1,1-3.82c2-2.3,6.71-2.32,11.68-2.35,1.4,0,2.85,0,4.26-.08,8.13-.32,29.21,2.38,32.15,7.89,2.74,5.13,3.83,40.24,3.88,41.73a69.82,69.82,0,0,0,6.13,20c.83,1.77,1.76,3.58,2.66,5.33,4.9,9.6,10,19.53,4.28,30C289,234.79,280.17,240.7,268.55,240.71ZM246.35,189a.51.51,0,0,1,.4.19c.09.13,9.59,12.29,11.45,25.15,1.81,12.51-1.34,19.6-3.61,20a1.68,1.68,0,0,0,.38.79c1.17,1.61,5.25,4.38,13.08,4.49h.49c11.22,0,19.79-5.75,26.18-17.54,5.43-10,.49-19.72-4.3-29.09-.89-1.76-1.82-3.58-2.66-5.37a70.69,70.69,0,0,1-6.23-20.33c0-.4-1.13-36.4-3.76-41.33-2.47-4.62-22.2-7.73-31.23-7.36-1.43.06-2.89.07-4.3.08-4.74,0-9.21,0-10.93,2a3.76,3.76,0,0,0-.73,3.11.38.38,0,0,1,0,.15,52.11,52.11,0,0,0,3.53,26.16c5.64,13.45,6.87,15.61,6.92,15.7a.51.51,0,0,1,0,.53c-.1.15-10.27,14.87-10.93,19.78-.5,3.78-.91,7.08-1.09,8.53l17.22-5.68A.4.4,0,0,1,246.35,189Z" style="fill:#263238"></path><path d="M242.54,163.81a.47.47,0,0,1-.25-.07.51.51,0,0,1-.18-.69c0-.05,3.31-5.7,3.31-18.51a.5.5,0,0,1,.5-.5.5.5,0,0,1,.5.5c0,13.13-3.31,18.79-3.45,19A.51.51,0,0,1,242.54,163.81Z" style="fill:#969696"></path><path d="M248.17,185.59a.59.59,0,0,1-.22-.05.49.49,0,0,1-.22-.67c3.66-7.33,4.07-24.4,4.08-24.57a.5.5,0,1,1,1,0c0,.71-.43,17.47-4.19,25A.49.49,0,0,1,248.17,185.59Z" style="fill:#969696"></path><path d="M264.15,237.06q-.31,0-.63,0a.5.5,0,0,1,.09-1c3.19.3,7.89-2,10.72-6.83A.51.51,0,0,1,275,229a.52.52,0,0,1,.18.69C272.33,234.63,267.61,237.06,264.15,237.06Z" style="fill:#969696"></path><path d="M276.34,226.42l-.15,0a.51.51,0,0,1-.32-.64,22.69,22.69,0,0,0,.73-2.84c1.37-7.43-3.1-17.95-7.43-28.12-1.45-3.42-2.95-7-4.19-10.29-2.81-7.56-2.78-20.25-2.27-29.56a.51.51,0,0,1,.53-.47.49.49,0,0,1,.47.52c-.51,9.22-.54,21.77,2.21,29.16,1.22,3.31,2.72,6.84,4.17,10.25,4.39,10.31,8.92,21,7.49,28.69a23.2,23.2,0,0,1-.76,3A.5.5,0,0,1,276.34,226.42Z" style="fill:#969696"></path><path d="M263.6,149.92h0a.5.5,0,0,1-.46-.54c.35-4.26.72-7.12.72-7.15a.51.51,0,0,1,.56-.43.5.5,0,0,1,.44.56s-.37,2.87-.73,7.11A.5.5,0,0,1,263.6,149.92Z" style="fill:#969696"></path><path d="M244,158.93a.51.51,0,0,1-.31-.11c-5.06-4.07-6.7-15.62-7.18-24.59a.49.49,0,0,1,.47-.53.52.52,0,0,1,.53.47c.47,8.77,2,20,6.81,23.87a.49.49,0,0,1,.07.7A.47.47,0,0,1,244,158.93Z" style="fill:#969696"></path><path d="M236.88,129.4a.5.5,0,0,1-.5-.5c0-2.58,0-4.27,0-4.28a.48.48,0,0,1,.52-.48.5.5,0,0,1,.48.52s-.06,1.67,0,4.23a.51.51,0,0,1-.5.51Z" style="fill:#969696"></path></g><g id="character-1"><path d="M80.12,461.07s-2,7.93-1.78,9.05,4.67,2.26,6.78,1.94,13,.16,13.53,0,10.3.16,10.3.16,10.59.48,11.75,0,1.39-1.45.86-2.9-17.67-11.76-18.42-12.56a3.17,3.17,0,0,1-.72-2Z" style="fill:#fff"></path><path d="M117,472.93c-3.07,0-6.93-.16-8-.21-3.63-.12-9.6-.28-10.15-.18a33.45,33.45,0,0,1-4.6,0c-3.27-.07-7.75-.16-9,0-2,.32-7-.7-7.35-2.32-.25-1.18,1.44-7.94,1.78-9.29a.5.5,0,0,1,.35-.35l22.31-6.32a.5.5,0,0,1,.63.5,2.68,2.68,0,0,0,.58,1.65c.28.27,2.87,1.92,5.37,3.51,8.64,5.5,12.81,8.28,13.15,9.21.82,2.2-.16,3.14-1.13,3.54A17.16,17.16,0,0,1,117,472.93Zm-16.9-1.42c2.2,0,6.23.12,8.9.21,4.36.2,10.82.34,11.55,0s1.15-.73.58-2.27c-.49-.9-8.47-6-12.75-8.71-3.82-2.43-5.29-3.38-5.57-3.68a3.38,3.38,0,0,1-.79-1.7l-21.45,6.07c-1,3.77-1.83,7.93-1.7,8.55s4.08,1.86,6.22,1.54c1.3-.2,5.65-.1,9.14,0,2,0,4.06.09,4.35,0A10,10,0,0,1,100.06,471.51Z" style="fill:#263238"></path><path d="M121.72,469.85c-7.34.08-23.27.27-24.38.27s-14.45-1.68-18.76-2.24a8.92,8.92,0,0,0-.24,2.24c.24,1.13,4.67,2.26,6.78,1.94s13,.16,13.53,0,10.3.16,10.3.16,10.59.48,11.75,0A1.76,1.76,0,0,0,121.72,469.85Z" style="fill:#fff"></path><path d="M117,472.93c-3.07,0-6.93-.16-8-.21-3.63-.12-9.6-.28-10.15-.18a33.45,33.45,0,0,1-4.6,0c-3.27-.07-7.76-.16-9,0-2,.32-7-.7-7.35-2.32a7.44,7.44,0,0,1,.24-2.44.49.49,0,0,1,.55-.4c8.42,1.08,17.76,2.23,18.7,2.23s15.73-.17,24.38-.27a.57.57,0,0,1,.49.37,2.25,2.25,0,0,1-1.32,3A17.16,17.16,0,0,1,117,472.93Zm-16.9-1.42c2.2,0,6.23.12,8.9.21,4.36.2,10.82.34,11.55,0a1.17,1.17,0,0,0,.8-1.41c-8.69.11-22.92.27-24,.27S84.48,469.14,79,468.44a5.77,5.77,0,0,0-.16,1.58c.16.65,4.08,1.86,6.22,1.54,1.3-.2,5.65-.1,9.14,0,2,0,4.06.09,4.35,0A10,10,0,0,1,100.06,471.51Z" style="fill:#263238"></path><path d="M100,365.22s-12.43,50-14.5,61.86-5.37,34-5.37,34A62.62,62.62,0,0,0,91,458.88c4.23-1.45,11.46-4.13,11.46-4.13L109,434.36Z" style="fill:#263238"></path><path d="M80.12,461.57a.48.48,0,0,1-.36-.16.5.5,0,0,1-.14-.42c0-.22,3.32-22.23,5.37-34S99.38,365.6,99.51,365.1a.5.5,0,0,1,.51-.38.51.51,0,0,1,.47.44l9,69.14a.5.5,0,0,1,0,.21l-6.57,20.4a.51.51,0,0,1-.3.31c-.08,0-7.29,2.69-11.48,4.13a62.32,62.32,0,0,1-11,2.21Zm19.72-93.65C97.27,378.3,87.75,417,86,427.16c-1.85,10.62-4.71,29.59-5.27,33.33a58.53,58.53,0,0,0,10.09-2.08c3.75-1.29,10-3.58,11.22-4l6.46-20.06Z" style="fill:#263238"></path><path d="M128.79,454.08l15,8.28s9,4.15,8.85,6.13-2.07,3.48-3.11,4.15-12.52,1-20,.83-23.36-.17-24.67-.34-.46-9.77-.46-9.77S125.94,452.25,128.79,454.08Z" style="fill:#fff"></path><path d="M133.6,474c-1.51,0-2.9,0-4.07,0-3.36-.08-8.56-.12-13.15-.16-5.8,0-10.82-.08-11.57-.18-1.19-.15-1.48-3.62-.89-10.32a.52.52,0,0,1,.27-.4c3.63-1.87,21.86-11.1,24.85-9.26l15,8.28c2.15,1,9.27,4.44,9.11,6.6s-2.16,3.78-3.34,4.53S140.1,474,133.6,474ZM105,472.65c.93.08,6,.12,11.38.16,4.59,0,9.8.08,13.17.16,8.08.17,18.76-.23,19.68-.76s2.76-1.93,2.89-3.75c.07-1-4.38-3.71-8.57-5.64l-15-8.31h0c-1.88-1.19-15.38,4.94-23.62,9.18C104.56,467.57,104.52,472,105,472.65Z" style="fill:#263238"></path><path d="M151.66,470.74l-47.51-1.06c0,1.84.21,3.39.73,3.45,1.31.17,17.22.17,24.67.34s18.92-.17,20-.83A9.11,9.11,0,0,0,151.66,470.74Z" style="fill:#fff"></path><path d="M133.6,474c-1.51,0-2.9,0-4.07,0-3.36-.08-8.56-.12-13.15-.16-5.8,0-10.82-.08-11.57-.18s-1.12-1.21-1.16-3.94a.48.48,0,0,1,.15-.36.51.51,0,0,1,.36-.15l47.51,1.06a.51.51,0,0,1,.44.29.49.49,0,0,1-.06.52,9.39,9.39,0,0,1-2.27,2C148.7,473.75,140.1,474,133.6,474ZM105,472.65c.94.08,6,.12,11.37.16,4.59,0,9.8.08,13.17.16,8.08.17,18.76-.23,19.68-.76a8.76,8.76,0,0,0,1.3-1l-45.88-1A5.9,5.9,0,0,0,105,472.65Z" style="fill:#263238"></path><path d="M84.77,279.1s-5,20.44-3,29.68,13.85,33.4,13.85,33.4.85,30.78,3.93,55.17,5,58.28,5,58.28-1.13,3.52-1,4.4.55,7.69.55,7.69,18-9.23,19.68-10.77,6.72-1.76,6.72-1.76.17-2.41.11-4.61-.87-3.08-1.37-5.28,9.12-92.35,9-97.18S140.33,298,140.33,298L142,284.16s-12.58.66-19.56,0S84.77,279.1,84.77,279.1Z" style="fill:#263238"></path><path d="M104.08,468.22a.54.54,0,0,1-.25-.06.51.51,0,0,1-.25-.41c-.11-1.88-.41-6.94-.54-7.63-.16-.91.72-3.78,1-4.55-.12-2-2-34.68-5-58.15s-3.87-53.07-3.93-55.11c-.94-1.92-11.92-24.45-13.84-33.43-2-9.24,2.82-29.06,3-29.89a.51.51,0,0,1,.56-.38c.31,0,30.74,4.4,37.63,5.05s19.37,0,19.49,0a.48.48,0,0,1,.39.16.53.53,0,0,1,.14.4l-1.66,13.85c0,.41-2.17,45.28-2.08,50,0,2.31-2.05,23.35-4.27,45.64-2.34,23.46-5,50.06-4.78,51.45a17.08,17.08,0,0,0,.65,2.07,9.3,9.3,0,0,1,.74,3.3c.06,2.19-.11,4.64-.11,4.66a.52.52,0,0,1-.48.47c-1.36.05-5.16.46-6.4,1.62-1.68,1.57-19,10.47-19.79,10.85A.48.48,0,0,1,104.08,468.22ZM85.15,279.66c-.71,3-4.68,20.74-2.91,29,1.93,9.07,13.69,33.05,13.81,33.29a.54.54,0,0,1,0,.21c0,.31.89,31,3.92,55.12s5,58,5,58.32a.55.55,0,0,1,0,.18,17.06,17.06,0,0,0-1,4.15c.13.73.4,5.17.5,7,5.43-2.79,17.63-9.17,18.89-10.34,1.48-1.38,5.27-1.77,6.59-1.87,0-.79.13-2.53.08-4.13a8.28,8.28,0,0,0-.67-3,16.11,16.11,0,0,1-.69-2.2c-.27-1.16,1.62-20.34,4.75-51.77,2.12-21.28,4.31-43.27,4.27-45.52-.09-4.8,2-48.3,2.08-50.15l1.59-13.29c-2.58.12-13,.54-19,0C115.93,284.05,89,280.21,85.15,279.66Z" style="fill:#263238"></path><path d="M112.51,364.22h-.05a.49.49,0,0,1-.45-.54l.73-7.72a.5.5,0,0,1,.55-.45.49.49,0,0,1,.45.54l-.74,7.72A.49.49,0,0,1,112.51,364.22Z" style="fill:#969696"></path><path d="M113.66,352.06h0a.51.51,0,0,1-.45-.55c.32-3.38.71-7.59.78-8.48.11-1.54-2.12-36.28-3.32-54.44a.5.5,0,0,1,1-.07c.14,2.15,3.46,52.59,3.32,54.58-.07.9-.46,5.12-.78,8.51A.49.49,0,0,1,113.66,352.06Z" style="fill:#969696"></path><path d="M114.22,304a.47.47,0,0,1-.3-.1.5.5,0,0,1-.1-.7s3.12-4.14,3.93-6.67a48.42,48.42,0,0,0,1.37-6.94.49.49,0,0,1,.55-.43.5.5,0,0,1,.44.55,47.26,47.26,0,0,1-1.41,7.13c-.86,2.69-4,6.79-4.08,7A.51.51,0,0,1,114.22,304Z" style="fill:#969696"></path><path d="M102.26,296.09h-.05L88.9,294.77a.5.5,0,0,1-.45-.55.53.53,0,0,1,.55-.45l12.9,1.28.29-1L88,292.57a.5.5,0,0,1,.1-1l14.83,1.54a.53.53,0,0,1,.37.22.52.52,0,0,1,.06.42l-.58,2A.5.5,0,0,1,102.26,296.09Z" style="fill:#969696"></path><path d="M117.73,392.36a.5.5,0,0,1-.39-.18c-10.66-12.91-17.92-41.24-18-41.52a.5.5,0,0,1,1-.25c.07.29,7.28,28.4,17.79,41.13a.49.49,0,0,1-.06.7A.51.51,0,0,1,117.73,392.36Z" style="fill:#969696"></path><path d="M116.69,420.77a.48.48,0,0,1-.42-.24c-.7-1.15-1.41-2.46-2.1-3.88a.49.49,0,0,1,.23-.66.5.5,0,0,1,.67.22c.68,1.4,1.37,2.68,2.05,3.81a.49.49,0,0,1-.43.75Z" style="fill:#969696"></path><path d="M112.92,413.18a.49.49,0,0,1-.46-.31c-6.65-15.74-10.82-38.5-10.86-38.73a.5.5,0,0,1,.4-.58.51.51,0,0,1,.58.41c0,.22,4.2,22.87,10.8,38.52a.49.49,0,0,1-.27.65A.41.41,0,0,1,112.92,413.18Z" style="fill:#969696"></path><path d="M83.17,216.59s-11.23,32.08-9.62,36.49S86,268.42,86,268.42Z" style="fill:#fff"></path><path d="M86,268.92a.47.47,0,0,1-.35-.15c-.45-.44-10.93-11-12.55-15.52s8.47-33.53,9.62-36.83a.51.51,0,0,1,.54-.33.5.5,0,0,1,.43.47l2.81,51.84a.5.5,0,0,1-.3.48A.45.45,0,0,1,86,268.92Zm-3.17-49.75c-3.46,10.16-10,30.54-8.79,33.74,1.28,3.51,8.75,11.46,11.39,14.21Z" style="fill:#263238"></path><path d="M98.29,172.61s-9.88,15-13.47,27.84S80,217.21,81.82,225s1.8,25.74,1.8,25.74-.9,28.88-.3,30.08,3.59,3,3.59,3,42.8,4.49,47,4.49,10.78-1.5,11.38-4.49.6-19,.6-19-11.38-70.34-11.68-73.63-5.33-12.43-5.33-12.43Z" style="fill:#fff"></path><path d="M133.9,288.79c-4.17,0-45.29-4.31-47-4.49a.48.48,0,0,1-.2-.07c-.32-.19-3.14-1.91-3.79-3.2s0-23.51.25-30.31c0-.17,0-18-1.78-25.62s-.65-11.74,2.71-23.76l.29-1c3.57-12.79,13.43-27.82,13.53-28a.49.49,0,0,1,.51-.22L129,178.25a.49.49,0,0,1,.34.25c.21.37,5.09,9.27,5.39,12.63s11.56,72.89,11.67,73.59,0,16.17-.6,19.18C145.1,287.23,138.29,288.79,133.9,288.79Zm-46.82-5.48c2.43.26,42.81,4.48,46.82,4.48s10.36-1.46,10.89-4.09c.58-2.91.59-18.74.59-18.9-.46-2.79-11.38-70.31-11.68-73.58-.26-2.89-4.42-10.68-5.15-12l-30-6c-1.36,2.12-10,15.73-13.22,27.41l-.29,1c-3.39,12.15-4.42,15.82-2.7,23.27,1.79,7.75,1.81,25.12,1.81,25.85-.35,11.37-.73,28.69-.34,29.88A11.79,11.79,0,0,0,87.08,283.31Z" style="fill:#263238"></path><path d="M89.67,235.12a.5.5,0,0,1-.06-1A47.72,47.72,0,0,0,102,230.62a.51.51,0,0,1,.42.92,48.85,48.85,0,0,1-12.65,3.58Z" style="fill:#263238"></path><path d="M90.41,243.14a.47.47,0,0,1-.42-.24.5.5,0,0,1,.16-.69c.11-.06,10.58-6.51,12.92-9.57a.5.5,0,0,1,.79.61c-2.45,3.21-12.75,9.55-13.19,9.82A.48.48,0,0,1,90.41,243.14Z" style="fill:#263238"></path><polygon points="125.43 189.39 129.98 198.71 131.28 256.97 137.43 272.44 142.3 256.35 132.36 199.14 131.71 188.74 127.81 185.49 125.43 189.39" style="fill:#92E3A9"></polygon><path d="M137.43,272.94a.49.49,0,0,1-.46-.31l-6.16-15.48a.47.47,0,0,1,0-.17l-1.3-58.15-4.5-9.22a.48.48,0,0,1,0-.48l2.38-3.9a.5.5,0,0,1,.35-.23.52.52,0,0,1,.4.11l3.9,3.25a.52.52,0,0,1,.18.35l.65,10.4,9.93,57.16a.45.45,0,0,1,0,.23l-4.87,16.09a.5.5,0,0,1-.46.35Zm-5.66-16.07,5.6,14.06,4.42-14.61-9.92-57.1L131.22,189l-3.29-2.74L126,189.42l4.42,9.07a.47.47,0,0,1,.06.2Z" style="fill:#263238"></path><polygon points="127.16 190.04 135.61 182.46 128.87 178.74 127.16 190.04" style="fill:#fff"></polygon><path d="M127.16,190.54a.53.53,0,0,1-.24-.06.48.48,0,0,1-.25-.51l1.71-11.31a.49.49,0,0,1,.27-.37.52.52,0,0,1,.47,0l6.73,3.72a.51.51,0,0,1,.09.81l-8.45,7.58A.46.46,0,0,1,127.16,190.54Zm2.1-11-1.4,9.22,6.89-6.18Z" style="fill:#263238"></path><polygon points="135.61 182.46 137.77 192.21 132.14 185.49 135.61 182.46" style="fill:#263238"></polygon><path d="M137.77,192.71a.49.49,0,0,1-.38-.18l-5.63-6.72a.49.49,0,0,1,.05-.69l3.47-3a.49.49,0,0,1,.48-.09.5.5,0,0,1,.34.36l2.16,9.75a.51.51,0,0,1-.27.56A.54.54,0,0,1,137.77,192.71Zm-4.93-7.16,4,4.77-1.54-6.93Z" style="fill:#263238"></path><path d="M95.18,114.75S88,119.23,88,130.54s5.56,21.53,10.76,24.58,4.85,4.84,4.85,4.84l-1.44,9.16,26,9.15,2-13.82s11.67.36,12.56-2,.18-7,.18-7.54.9-10.23.9-10.23,3.41-1.61,2.51-4.66-7.17-4-7.71-7.72.72-9.51-1.8-13.81-7.53-9.69-21.53-10S95.18,114.75,95.18,114.75Z" style="fill:#bababa"></path><path d="M128.19,178.77l-.17,0-26-9.15a.5.5,0,0,1-.33-.55l1.44-9.15s.06-1.6-4.61-4.34c-5.29-3.1-11-13.55-11-25,0-11,6.62-15.69,7.35-16.18.64-.66,6.86-6.72,20.43-6.39,14.51.37,19.48,6,22,10.29,1.77,3,1.74,6.71,1.71,10a30.25,30.25,0,0,0,.14,4c.26,1.8,2.11,2.93,3.91,4s3.33,2,3.79,3.62c.76,2.56-1.19,4.39-2.52,5.12-.35,3.88-.87,9.54-.87,9.91,0,.09,0,.3.06.6.15,1.52.51,5.09-.27,7.12-.91,2.38-9.85,2.36-12.59,2.3l-1.91,13.38a.53.53,0,0,1-.5.43Zm-25.46-10,25,8.81,1.89-13.21a.49.49,0,0,1,.51-.43c4.7.15,11.55-.27,12.08-1.65.69-1.81.35-5.21.2-6.66,0-.35-.06-.6-.06-.7,0-.54.81-9.28.9-10.27a.52.52,0,0,1,.29-.41c.12-.06,3-1.47,2.24-4.07-.35-1.22-1.81-2.11-3.35-3.05-1.9-1.16-4-2.47-4.38-4.74a29.42,29.42,0,0,1-.15-4.2c0-3.11.06-6.63-1.58-9.43-2.35-4-7.1-9.44-21.11-9.8-13.56-.35-19.66,6-19.72,6.12a.39.39,0,0,1-.1.08c-.07,0-6.94,4.5-6.94,15.37,0,11.11,5.46,21.18,10.52,24.15,5.24,3.07,5.15,5,5.08,5.37Zm-7.55-54h0Z" style="fill:#263238"></path><path d="M115.27,108.47c-14-.36-20.09,6.28-20.09,6.28S88,119.23,88,130.54s5.56,21.53,10.76,24.58c2.89,1.69,4.06,3,4.53,3.82.51-.17,1-.37,1.58-.59,2.15-.9,5.74-4.13,5.74-4.13a14,14,0,0,1-3-1.07,11.31,11.31,0,0,1-5.21-5.92c-.71-2.34-.54-6.28,3.41-7.36s7.54,3,8.26,2.87a10.88,10.88,0,0,0,2.87-1.79c.89-.72-1.8-6.64-1.8-6.64s6.82-5.21,7.9-6.28-5.74-8.08-5.74-8.08l13.49-7.69C127.41,110.21,122.56,108.66,115.27,108.47Z" style="fill:#263238"></path><path d="M103.29,159.44a.5.5,0,0,1-.43-.25c-.43-.75-1.53-2-4.35-3.64-5.29-3.1-11-13.55-11-25,0-11,6.62-15.69,7.35-16.18.64-.66,6.83-6.75,20.43-6.39,6.53.17,11.82,1.47,15.72,3.87a.5.5,0,0,1,.24.43.5.5,0,0,1-.25.43l-12.94,7.37c3.14,3.27,6.42,7.19,5.29,8.31-1,1-6.26,5-7.63,6.08,1.25,2.8,2.44,6.11,1.49,6.88a11,11,0,0,1-3.06,1.88c-.44.12-.87-.19-1.74-.8-1.48-1-4-2.77-6.51-2.07a4.29,4.29,0,0,0-2.76,2.06,6.33,6.33,0,0,0-.3,4.67,10.91,10.91,0,0,0,4.93,5.61,13.94,13.94,0,0,0,2.93,1,.51.51,0,0,1,.4.35.5.5,0,0,1-.15.51c-.15.14-3.68,3.3-5.88,4.22-.54.22-1.08.43-1.6.6A.51.51,0,0,1,103.29,159.44ZM114.2,109c-12.83,0-18.6,6.07-18.66,6.14a.39.39,0,0,1-.1.08c-.07,0-6.94,4.5-6.94,15.37,0,11.11,5.46,21.18,10.52,24.15a14.29,14.29,0,0,1,4.48,3.65q.59-.21,1.17-.45a24.93,24.93,0,0,0,4.9-3.42,19.31,19.31,0,0,1-2.22-.87,11.72,11.72,0,0,1-5.47-6.23,7.25,7.25,0,0,1,.38-5.44,5.21,5.21,0,0,1,3.37-2.54c3-.82,5.72,1.08,7.34,2.21a8.46,8.46,0,0,0,1,.64,10.71,10.71,0,0,0,2.61-1.69c.22-.44-.65-3.23-1.93-6a.48.48,0,0,1,.15-.6c.07,0,6.8-5.2,7.84-6.24.12-.63-2.49-4-5.74-7.37a.5.5,0,0,1-.14-.42.47.47,0,0,1,.25-.36l12.74-7.26c-3.67-2-8.54-3.14-14.48-3.29Z" style="fill:#263238"></path><path d="M131.24,138a.51.51,0,0,1-.39-.19.49.49,0,0,1,.08-.7c.12-.1,2.95-2.34,5.18-1.32a.49.49,0,0,1,.25.66.5.5,0,0,1-.66.25c-1.67-.76-4.12,1.17-4.15,1.19A.51.51,0,0,1,131.24,138Z" style="fill:#263238"></path><path d="M128.55,132.83a.49.49,0,0,1-.3-.1.48.48,0,0,1-.1-.69,7.49,7.49,0,0,1,7.7-3.24.5.5,0,0,1,.36.61.51.51,0,0,1-.61.36,6.52,6.52,0,0,0-6.65,2.86A.51.51,0,0,1,128.55,132.83Z" style="fill:#263238"></path><path d="M139.85,150.28l-7-2.34s-.54,4.31,2.15,4.67S139.85,150.28,139.85,150.28Z" style="fill:#fff"></path><path d="M135.51,153.14a3.82,3.82,0,0,1-.57,0c-3.14-.42-2.6-5-2.58-5.22a.49.49,0,0,1,.23-.36.48.48,0,0,1,.42-.05l7,2.33a.5.5,0,0,1,.23.79C140.16,150.7,138.17,153.14,135.51,153.14Zm-2.2-4.52c0,1.1.14,3.28,1.77,3.49A5,5,0,0,0,139,150.5Z" style="fill:#263238"></path><polygon points="130.16 164.45 124.06 163.55 128.91 171.09 130.16 164.45" style="fill:#263238"></polygon><path d="M128.91,171.59a.5.5,0,0,1-.42-.23l-4.85-7.54a.52.52,0,0,1,0-.54.51.51,0,0,1,.5-.22l6.1.9a.5.5,0,0,1,.33.2.52.52,0,0,1,.09.38l-1.26,6.64a.5.5,0,0,1-.4.4Zm-3.83-7.38,3.57,5.55.93-4.89Z" style="fill:#263238"></path><path d="M98.93,165.52l32.22,11.74-4.91,15.84s-15.56-11.47-16.66-12-13.92-6-13.92-6Z" style="fill:#fff"></path><path d="M126.24,193.6a.47.47,0,0,1-.3-.1c-6.24-4.6-15.81-11.58-16.58-12-1.07-.53-13.77-5.94-13.9-6a.49.49,0,0,1-.27-.62l3.27-9.56a.51.51,0,0,1,.65-.31l32.22,11.74a.5.5,0,0,1,.3.62l-4.91,15.84a.52.52,0,0,1-.32.33Zm-30-18.8c2.28,1,12.53,5.34,13.53,5.84S122.89,190,126,192.28l4.57-14.71-31.3-11.4Z" style="fill:#263238"></path><polygon points="183.68 196.71 169.38 196.71 167.59 165.06 185.47 165.06 183.68 196.71" style="fill:#fff"></polygon><path d="M183.68,197.21h-14.3a.5.5,0,0,1-.5-.47l-1.79-31.65a.47.47,0,0,1,.14-.37.48.48,0,0,1,.36-.16h17.88a.51.51,0,0,1,.5.53l-1.79,31.65A.51.51,0,0,1,183.68,197.21Zm-13.83-1h13.36l1.73-30.65H168.12Z" style="fill:#263238"></path><polygon points="168.99 172.09 170.27 194.73 182.78 194.73 184.06 172.09 168.99 172.09" style="fill:#92E3A9"></polygon><path d="M182.79,195.23H170.27a.5.5,0,0,1-.5-.47l-1.28-22.64a.47.47,0,0,1,.14-.37.48.48,0,0,1,.36-.16h15.07a.52.52,0,0,1,.37.16.5.5,0,0,1,.13.37l-1.28,22.64A.49.49,0,0,1,182.79,195.23Zm-12-1h11.57l1.23-21.64h-14Z" style="fill:#263238"></path><path d="M105.39,190.34s6.59-.22,10.77,3.73,22,32.53,22,32.53l27.25-44s1.54-2.85,3.08-3.29,14.72-2.64,16-2.42,1.76,2.2,1.76,3.73a6.37,6.37,0,0,1-1.54,3.3s1.32,4,.66,6.38-.66,3.29-2,3.95-13.62,2.2-14.5,2.2c0,0-18.69,42.86-18.91,43.74s-8.13,13.63-10.33,16.26a9,9,0,0,1-7.47,2.86c-1.54-.22-35.82-34.51-37.14-35.39" style="fill:#fff"></path><path d="M133,259.9a8,8,0,0,1-.9,0c-1-.14-8.87-7.73-26.18-24.68-5.5-5.38-10.7-10.47-11.17-10.79a.5.5,0,0,1,.55-.83c.5.33,4.22,4,11.32,10.91,9.7,9.49,24.36,23.84,25.69,24.41a8.56,8.56,0,0,0,6.95-2.7,169.62,169.62,0,0,0,10.23-16.07c.22-.89,17-39.42,18.93-43.81a.51.51,0,0,1,.46-.3c1.05,0,13.12-1.56,14.28-2.15.86-.43,1-.88,1.44-2.56.08-.32.17-.68.28-1.08.61-2.24-.64-6-.65-6.08a.49.49,0,0,1,.1-.49,5.93,5.93,0,0,0,1.41-3c0-1.45-.42-3.09-1.34-3.24-1.16-.2-14.28,2-15.82,2.41-1.1.31-2.38,2.31-2.78,3l-27.27,44a.49.49,0,0,1-.42.24h0a.51.51,0,0,1-.43-.23c-.18-.29-17.82-28.57-21.9-32.44s-10.34-3.6-10.41-3.6a.5.5,0,0,1-.51-.48.49.49,0,0,1,.48-.51c.28,0,6.85-.18,11.13,3.87,3.86,3.66,18.84,27.48,21.63,31.94L165,182.38c.15-.29,1.67-3,3.36-3.52s14.8-2.67,16.26-2.43,2.18,2.36,2.18,4.23a6.37,6.37,0,0,1-1.48,3.41c.29,1,1.18,4.21.58,6.4l-.27,1.05c-.42,1.65-.65,2.56-2,3.22s-12.26,2-14.39,2.22c-6.43,14.76-18.46,42.43-18.76,43.4s-8.27,13.86-10.43,16.45A9.44,9.44,0,0,1,133,259.9Z" style="fill:#263238"></path><path d="M184.51,176.93c-1.32-.22-14.5,2-16,2.42s-3.08,3.29-3.08,3.29l-20.73,33.43,11.55,9.65c5.51-12.74,12.7-29.23,12.7-29.23.88,0,13.18-1.54,14.5-2.2s1.32-1.54,2-3.95-.66-6.38-.66-6.38a6.37,6.37,0,0,0,1.54-3.3C186.27,179.13,185.83,177.15,184.51,176.93Z" style="fill:#bababa"></path><path d="M156.21,226.22a.47.47,0,0,1-.32-.12l-11.55-9.64a.51.51,0,0,1-.1-.65L165,182.38c.15-.29,1.67-3,3.36-3.52s14.81-2.67,16.26-2.43h0c1.61.27,2.18,2.36,2.18,4.23a6.37,6.37,0,0,1-1.48,3.41c.29,1,1.18,4.21.58,6.4l-.27,1.05c-.42,1.65-.65,2.56-2,3.22s-12.26,2-14.39,2.22c-1,2.21-7.49,17.19-12.58,28.95a.49.49,0,0,1-.35.29ZM145.32,216,156,224.9c5.48-12.64,12.44-28.61,12.44-28.61a.51.51,0,0,1,.46-.3c1.05,0,13.12-1.56,14.28-2.15.86-.43,1-.88,1.44-2.56.08-.32.17-.68.28-1.08.61-2.24-.64-6-.65-6.08a.49.49,0,0,1,.1-.49,5.93,5.93,0,0,0,1.41-3c0-1.45-.42-3.09-1.34-3.24-1.16-.2-14.28,2-15.83,2.41-1.09.31-2.37,2.31-2.77,3Z" style="fill:#263238"></path><polygon points="145.61 208.36 136.6 220.45 156.82 231.66 159.02 226.6 145.61 208.36" style="fill:#fff"></polygon><path d="M156.82,232.16a.4.4,0,0,1-.24-.07l-20.23-11.21a.51.51,0,0,1-.24-.33.48.48,0,0,1,.09-.4l9-12.09a.48.48,0,0,1,.4-.2h0a.48.48,0,0,1,.4.2l13.41,18.25a.51.51,0,0,1,.06.49l-2.2,5.06a.57.57,0,0,1-.3.27A.45.45,0,0,1,156.82,232.16Zm-19.48-11.87L156.58,231l1.86-4.28L145.61,209.2Z" style="fill:#263238"></path><path d="M144.73,234.79a.52.52,0,0,1-.38-.17l-6.59-7.69a.5.5,0,1,1,.76-.65l6.59,7.69a.49.49,0,0,1-.05.7A.52.52,0,0,1,144.73,234.79Z" style="fill:#263238"></path></g></svg>
