<svg xmlns="http://www.w3.org/2000/svg" viewBox="0 0 750 500"><g id="background-simple"><path d="M577.55,436.19c-48.31,26.65-115.1,45.3-172.23,29-84.43-24.06-126.31,15.91-245.81-59.3a316.86,316.86,0,0,1-48-36.65,247.88,247.88,0,0,1-20-21C36.48,283.34,32.61,206.5,65,143.7c44.76-86.92,135.22-93,194.31-94.34,60.62-1.36,183.66-74,324.93,6.57A314.18,314.18,0,0,1,644,99.59c40.43,38.06,70.23,90.5,69.11,142.54q-.14,5.79-.7,11.59C705.23,328,646,398.43,577.55,436.19Z" style="fill:#92E3A9"></path><path d="M577.55,436.19c-48.31,26.65-115.1,45.3-172.23,29-84.43-24.06-126.31,15.91-245.81-59.3a316.86,316.86,0,0,1-48-36.65,247.88,247.88,0,0,1-20-21C36.48,283.34,32.61,206.5,65,143.7c44.76-86.92,135.22-93,194.31-94.34,60.62-1.36,183.66-74,324.93,6.57A314.18,314.18,0,0,1,644,99.59c40.43,38.06,70.23,90.5,69.11,142.54q-.14,5.79-.7,11.59C705.23,328,646,398.43,577.55,436.19Z" style="fill:#fff;opacity:0.7000000000000001"></path></g><g id="Clouds"><path d="M443.13,100.89h-25a.49.49,0,0,1-.47-.35.5.5,0,0,1,.18-.56s1.64-1.17,3.05-2.11c1.14-.76,2.71-.48,4-.25a7.23,7.23,0,0,0,1.21.17c.33,0,.49-.17.95-.72a9.83,9.83,0,0,1,2.5-2.23c1.73-1.1,3.49-.53,5.05,0a5.48,5.48,0,0,0,2.57.43c.7-.16.89-.73,1.18-1.83A5.28,5.28,0,0,1,440.45,90a3.48,3.48,0,0,1,3.31-.41,2.58,2.58,0,0,0,2.51-.29,4.14,4.14,0,0,0,1.23-2.44c.72-2.52,1.69-5.94,8.6-5.79,3.74.09,6.59,1.12,8.46,3.06a.5.5,0,0,1-.72.7c-1.68-1.75-4.3-2.68-7.76-2.76-6.16-.15-6.92,2.62-7.62,5.06-.35,1.23-.68,2.39-1.65,3a3.5,3.5,0,0,1-3.32.41,2.55,2.55,0,0,0-2.51.29,4.3,4.3,0,0,0-1.72,2.89c-.3,1.1-.61,2.24-1.93,2.54a6.11,6.11,0,0,1-3.09-.46c-1.42-.45-2.88-.92-4.21-.08a9.29,9.29,0,0,0-2.28,2c-.48.57-.9,1.07-1.71,1.07a8.69,8.69,0,0,1-1.39-.18c-1.08-.2-2.42-.45-3.23.1-.58.38-1.2.81-1.73,1.18h23.44a.5.5,0,0,1,.5.5A.5.5,0,0,1,443.13,100.89Z" style="fill:#263238"></path><path d="M466.83,89.1a.41.41,0,0,1-.21,0l-.71-.32a.51.51,0,0,1-.3-.42,5.88,5.88,0,0,0-.79-2.24.51.51,0,0,1,.18-.69.49.49,0,0,1,.68.18,7.26,7.26,0,0,1,.89,2.37l.48.22a.5.5,0,0,1,.23.67A.48.48,0,0,1,466.83,89.1Z" style="fill:#263238"></path><path d="M477.06,100.89H446.33a.51.51,0,0,1-.5-.5.5.5,0,0,1,.5-.5h30.31A2.68,2.68,0,0,0,475,97.33a5.67,5.67,0,0,0-2.8-.73,2.31,2.31,0,0,1-2-.79A2.07,2.07,0,0,1,470,94c.22-1.2.49-2.68-2.19-4.34a.5.5,0,1,1,.52-.85c3.26,2,2.89,4,2.65,5.37-.08.42-.15.82,0,1,.29.37.58.4,1.27.42a6.61,6.61,0,0,1,3.24.85c2.31,1.27,2.38,3.23,2.1,4.1A.51.51,0,0,1,477.06,100.89Z" style="fill:#263238"></path><path d="M136.48,181.57H100.65a.51.51,0,0,1-.48-.34.5.5,0,0,1,.19-.56s2.36-1.69,4.35-3c1.57-1,3.76-.64,5.52-.32a11.7,11.7,0,0,0,1.76.24c.58,0,.87-.32,1.53-1.1a14.2,14.2,0,0,1,3.54-3.16c2.38-1.51,4.86-.72,7,0a8,8,0,0,0,3.79.62c1.12-.25,1.42-1.16,1.86-2.77s1-3.54,3-4.84a4.82,4.82,0,0,1,4.57-.55,3.88,3.88,0,0,0,3.77-.45c1-.64,1.4-2,1.86-3.61,1-3.54,2.38-8.37,12.1-8.14,5.29.13,9.32,1.58,12,4.33a.48.48,0,0,1,0,.7.5.5,0,0,1-.71,0c-2.45-2.55-6.24-3.9-11.27-4-9-.24-10.09,3.83-11.11,7.41-.49,1.72-1,3.34-2.28,4.19a4.85,4.85,0,0,1-4.58.56,3.85,3.85,0,0,0-3.77.44c-1.7,1.08-2.14,2.7-2.56,4.26s-.83,3.09-2.6,3.48a8.55,8.55,0,0,1-4.32-.65c-2.07-.66-4.21-1.35-6.2-.08a13.3,13.3,0,0,0-3.32,3c-.68.82-1.22,1.46-2.29,1.46a11.45,11.45,0,0,1-1.94-.26c-1.58-.29-3.55-.65-4.79.18-1,.69-2.19,1.49-3,2.08h34.26a.51.51,0,0,1,.5.5A.5.5,0,0,1,136.48,181.57Z" style="fill:#263238"></path><path d="M170.42,164.7a.59.59,0,0,1-.22,0c-.32-.16-.66-.31-1-.47a.49.49,0,0,1-.3-.42,8.82,8.82,0,0,0-1.17-3.3.5.5,0,1,1,.87-.51,10.08,10.08,0,0,1,1.26,3.43l.79.37a.5.5,0,0,1,.23.67A.51.51,0,0,1,170.42,164.7Z" style="fill:#263238"></path><path d="M185.07,181.57h-44a.5.5,0,0,1-.5-.5.51.51,0,0,1,.5-.5h43.6c.11-.76.07-2.66-2.5-4.06a8.28,8.28,0,0,0-4.1-1.07,3.14,3.14,0,0,1-2.73-1.06,2.89,2.89,0,0,1-.2-2.38c.33-1.77.73-4-3.23-6.43a.5.5,0,1,1,.52-.85c4.55,2.81,4,5.61,3.7,7.46-.13.72-.24,1.28,0,1.57.49.61,1,.65,2,.69a9.27,9.27,0,0,1,4.54,1.19c4,2.18,2.91,5.57,2.9,5.6A.49.49,0,0,1,185.07,181.57Z" style="fill:#263238"></path><path d="M657.34,181.57H621.51a.5.5,0,0,1-.29-.9s2.37-1.69,4.36-3c1.57-1,3.76-.64,5.51-.32a12,12,0,0,0,1.77.24c.57,0,.86-.32,1.52-1.1a14.29,14.29,0,0,1,3.55-3.16c2.38-1.51,4.86-.72,7,0a8,8,0,0,0,3.8.62c1.12-.25,1.42-1.16,1.85-2.77s1-3.54,3-4.84a4.84,4.84,0,0,1,4.58-.55,3.86,3.86,0,0,0,3.76-.45c1-.64,1.4-2,1.86-3.61,1-3.54,2.4-8.38,12.1-8.14,5.3.13,9.32,1.58,12,4.33a.5.5,0,0,1-.72.69c-2.46-2.55-6.25-3.9-11.27-4-8.95-.22-10.1,3.83-11.12,7.41-.49,1.72-.95,3.34-2.28,4.19a4.85,4.85,0,0,1-4.58.56,3.83,3.83,0,0,0-3.76.44c-1.71,1.08-2.14,2.7-2.56,4.25s-.84,3.1-2.61,3.49a8.53,8.53,0,0,1-4.31-.65c-2.07-.66-4.22-1.35-6.2-.08a13.3,13.3,0,0,0-3.32,3c-.69.82-1.23,1.46-2.29,1.46a11.69,11.69,0,0,1-2-.26c-1.58-.29-3.54-.65-4.78.18-1,.69-2.19,1.49-3,2.08h34.25a.5.5,0,0,1,.5.5A.5.5,0,0,1,657.34,181.57Z" style="fill:#263238"></path><path d="M691.29,164.7a.54.54,0,0,1-.22,0c-.32-.16-.66-.31-1-.47a.51.51,0,0,1-.3-.42,8.68,8.68,0,0,0-1.16-3.3.51.51,0,0,1,.18-.69.49.49,0,0,1,.68.18,10.08,10.08,0,0,1,1.26,3.43c.28.12.54.25.79.37a.5.5,0,0,1,.24.67A.52.52,0,0,1,691.29,164.7Z" style="fill:#263238"></path><path d="M705.93,181.57h-44a.5.5,0,0,1-.5-.5.5.5,0,0,1,.5-.5h43.6c.11-.76.07-2.66-2.51-4.06a8.24,8.24,0,0,0-4.1-1.07,3.12,3.12,0,0,1-2.72-1.06A2.85,2.85,0,0,1,696,172c.33-1.77.73-4-3.24-6.43a.51.51,0,0,1-.16-.69.5.5,0,0,1,.69-.16c4.55,2.81,4,5.61,3.69,7.46-.13.72-.23,1.28,0,1.57.48.61.95.65,2,.69a9.24,9.24,0,0,1,4.54,1.19c4,2.18,2.92,5.57,2.91,5.6A.5.5,0,0,1,705.93,181.57Z" style="fill:#263238"></path><path d="M657.61,100.89H596.68a.51.51,0,0,1-.5-.5.5.5,0,0,1,.5-.5h60.54c.29-1.32.83-6-5.39-9.44a17.57,17.57,0,0,0-8.74-2.29c-2.11-.08-3.77-.14-5.25-2-.92-1.15-.63-2.7-.3-4.5.81-4.43,1.92-10.49-12.66-16.81a.5.5,0,0,1-.3-.42c-.05-.77-1.71-18.93-29.26-19.6C585,44.58,578.54,47,575,52.42a.5.5,0,0,1-.69.15.49.49,0,0,1-.15-.69c3.74-5.75,10.47-8.3,21.17-8,26.52.65,29.86,17.7,30.21,20.22,15,6.6,13.79,13.33,13,17.79-.3,1.62-.53,2.9.1,3.69,1.19,1.5,2.51,1.55,4.51,1.62a18.72,18.72,0,0,1,9.18,2.41c7.89,4.3,5.79,10.91,5.77,11A.51.51,0,0,1,657.61,100.89Z" style="fill:#263238"></path><path d="M588.23,100.89H578.09a.51.51,0,0,1-.5-.5.5.5,0,0,1,.5-.5h10.14a.5.5,0,0,1,.5.5A.5.5,0,0,1,588.23,100.89Z" style="fill:#263238"></path><path d="M560.35,100.89H482.54a.5.5,0,0,1-.29-.91c.05,0,4.9-3.5,9-6.24,3.08-2,7.5-1.24,11.05-.59a24,24,0,0,0,3.76.51c1.48,0,2.23-.88,3.57-2.48a29.1,29.1,0,0,1,7.23-6.44c4.73-3,9.74-1.4,14.16,0,3,1,5.75,1.84,8.14,1.31,2.76-.61,3.42-3,4.25-6.12.91-3.36,1.93-7.16,6-9.73s6.57-1.81,9.06-1.1,4.63,1.33,8.24-1c2-1.3,2.92-3.85,3.73-6.58a.5.5,0,1,1,1,.29c-.85,2.91-1.81,5.65-4.14,7.13-4,2.54-6.57,1.81-9.06,1.1s-4.63-1.33-8.24,1-4.69,6-5.54,9.14-1.65,6.09-5,6.84c-2.65.59-5.58-.35-8.67-1.34-4.42-1.41-9-2.87-13.31-.11a27.71,27.71,0,0,0-7,6.24c-1.39,1.64-2.39,2.83-4.34,2.83a23.14,23.14,0,0,1-3.94-.53c-3.37-.61-7.57-1.39-10.32.45s-6,4.09-7.7,5.31h76.24a.5.5,0,0,1,.5.5A.51.51,0,0,1,560.35,100.89Z" style="fill:#263238"></path></g><g id="Shadows"><path d="M705.88,255.56c0,2.37-75.45,4.28-168.52,4.28s-168.51-1.91-168.51-4.28,75.44-4.28,168.51-4.28S705.88,253.2,705.88,255.56Z" style="fill:#263238"></path></g><g id="Runway"><polygon points="712.75 343.37 663.89 343.37 522.89 295.61 712.75 295.61 712.75 250.21 44.5 250.21 44.5 295.61 298.44 295.61 416.7 343.37 44.5 343.37 44.5 472.94 712.75 472.94 712.75 343.37" style="fill:#999"></polygon><polygon points="140.66 356.22 119.35 347.62 62.29 347.62 83.6 356.22 140.66 356.22" style="fill:#fff"></polygon><polygon points="165.18 367.78 143.87 359.17 86.81 359.17 108.12 367.78 165.18 367.78" style="fill:#fff"></polygon><polygon points="189.71 379.34 168.39 370.73 111.33 370.73 132.64 379.34 189.71 379.34" style="fill:#fff"></polygon><polygon points="214.23 390.89 192.91 382.29 135.85 382.29 157.16 390.89 214.23 390.89" style="fill:#fff"></polygon><polygon points="238.75 402.45 217.44 393.84 160.38 393.84 181.69 402.45 238.75 402.45" style="fill:#fff"></polygon><polygon points="263.27 414.01 241.96 405.4 184.9 405.4 206.21 414.01 263.27 414.01" style="fill:#fff"></polygon><polygon points="287.79 425.56 266.48 416.96 209.42 416.96 230.73 425.56 287.79 425.56" style="fill:#fff"></polygon><polygon points="312.32 437.12 291 428.51 233.94 428.51 255.25 437.12 312.32 437.12" style="fill:#fff"></polygon><polygon points="44.5 338.82 391.68 338.82 300.71 302.43 44.5 302.43 44.5 338.82" style="fill:#92E3A9"></polygon><polygon points="712.75 301.22 556.31 301.22 665.4 338.06 712.75 338.06 712.75 301.22" style="fill:#92E3A9"></polygon><rect x="678.67" y="399.73" width="25" height="2" style="fill:#fff"></rect><path d="M124.25,401.72v-2h46.2v2Zm508.22,0h-46.2v-2h46.2Zm-415.82,0v-2h46.2v2Zm323.42,0H493.86v-2h46.21Zm-231,0v-2h46.2v2Zm138.6,0h-46.2v-2h46.2Z" style="fill:#fff"></path><rect x="53.05" y="399.73" width="25" height="2" style="fill:#fff"></rect><rect x="695.17" y="279.51" width="2" height="15" transform="translate(408.07 982.74) rotate(-89.91)" style="fill:#fff"></rect><path d="M97.62,288l0-2,29.55,0v2Zm561.5,0-29.52,0,0-1v-1l29.55,0Zm-502.41-.06v-2l29.55,0v2Zm443.3,0-29.52,0,0-1v-1l29.55,0Zm-384.18-.05,0-2,29.56,0v2Zm325.07,0-29.55,0v-2l29.55,0Zm-266,0v-2l29.56,0v2Zm206.87,0H452.24v-2H481.8Zm-147.76,0v-2h29.55v2Zm88.65,0H393.14v-2h29.55Z" style="fill:#fff"></path><rect x="53.05" y="286.03" width="15" height="2" transform="translate(-0.42 0.09) rotate(-0.08)" style="fill:#fff"></rect><path d="M53.05,445.15v-2c214.34-.47,433.24-.47,650.62,0v2C486.29,444.68,267.39,444.68,53.05,445.15Z" style="fill:#92E3A9"></path><path d="M703.67,452.69H53.05v-2H703.67Z" style="fill:#92E3A9"></path><polygon points="689.4 281.17 596.98 281.17 596.86 281.14 500.66 257.09 501.15 255.15 597.22 279.17 689.4 279.17 689.4 281.17" style="fill:#fff"></polygon><rect x="547.05" y="266.17" width="116.99" height="2" style="fill:#fff"></rect><polygon points="195.64 270.77 55.03 270.77 55.03 268.77 195.2 268.77 224.85 255.13 225.69 256.94 195.64 270.77" style="fill:#fff"></polygon></g><g id="Tower"><rect x="358.02" y="113.75" width="14.46" height="136.25" style="fill:#b0b0b0"></rect><path d="M373,250.5H357.52V113.25H373Zm-14.45-1H372V114.25H358.52Z" style="fill:#263238"></path><rect x="358.02" y="113.75" width="14.46" height="7.68" style="fill:#263238"></rect><path d="M372.47,121.93H358a.5.5,0,0,1-.5-.5v-7.68a.5.5,0,0,1,.5-.5h14.45a.5.5,0,0,1,.5.5v7.68A.5.5,0,0,1,372.47,121.93Zm-14-1H372v-6.68H358.52Z" style="fill:#263238"></path><polygon points="385.04 116.05 345.45 116.05 336.97 93.43 393.52 93.43 385.04 116.05" style="fill:#b0b0b0"></polygon><path d="M385.39,116.55H345.1l-8.86-23.62h58Zm-39.59-1h38.89l8.11-21.62H337.69Z" style="fill:#263238"></path><polygon points="385.04 82.68 345.45 82.68 336.97 93.61 393.52 93.61 385.04 82.68" style="fill:#fff"></polygon><path d="M393.52,94.11H337a.49.49,0,0,1-.45-.28.47.47,0,0,1,.05-.52l8.48-10.93a.49.49,0,0,1,.4-.2H385a.47.47,0,0,1,.39.2l8.49,10.93a.49.49,0,0,1,.05.52A.5.5,0,0,1,393.52,94.11Zm-55.53-1H392.5l-7.71-9.93h-39.1Z" style="fill:#263238"></path><rect x="358.96" y="98.82" width="7.85" height="5.08" style="fill:#263238"></rect><path d="M366.81,104.4H359a.5.5,0,0,1-.5-.5V98.82a.5.5,0,0,1,.5-.5h7.85a.5.5,0,0,1,.5.5v5.08A.5.5,0,0,1,366.81,104.4Zm-7.35-1h6.85V99.32h-6.85Z" style="fill:#263238"></path><rect x="349.5" y="98.82" width="7.85" height="5.08" style="fill:#263238"></rect><path d="M357.35,104.4H349.5a.51.51,0,0,1-.5-.5V98.82a.5.5,0,0,1,.5-.5h7.85a.5.5,0,0,1,.5.5v5.08A.5.5,0,0,1,357.35,104.4Zm-7.35-1h6.85V99.32H350Z" style="fill:#263238"></path><rect x="368.42" y="98.82" width="7.85" height="5.08" style="fill:#263238"></rect><path d="M376.27,104.4h-7.85a.5.5,0,0,1-.5-.5V98.82a.5.5,0,0,1,.5-.5h7.85a.5.5,0,0,1,.5.5v5.08A.51.51,0,0,1,376.27,104.4Zm-7.35-1h6.85V99.32h-6.85Z" style="fill:#263238"></path><rect x="377.87" y="98.82" width="7.85" height="5.08" style="fill:#263238"></rect><path d="M385.72,104.4h-7.85a.51.51,0,0,1-.5-.5V98.82a.5.5,0,0,1,.5-.5h7.85a.5.5,0,0,1,.5.5v5.08A.5.5,0,0,1,385.72,104.4Zm-7.35-1h6.85V99.32h-6.85Z" style="fill:#263238"></path><rect x="349.5" y="105.5" width="7.85" height="4.72" style="fill:#263238"></rect><path d="M357.35,110.72H349.5a.5.5,0,0,1-.5-.5V105.5a.51.51,0,0,1,.5-.5h7.85a.5.5,0,0,1,.5.5v4.72A.5.5,0,0,1,357.35,110.72Zm-7.35-1h6.85V106H350Z" style="fill:#263238"></path><polygon points="387.33 103.9 389.6 103.9 391.5 98.82 387.33 98.82 387.33 103.9" style="fill:#263238"></polygon><path d="M389.6,104.4h-2.27a.5.5,0,0,1-.5-.5V98.82a.5.5,0,0,1,.5-.5h4.17a.49.49,0,0,1,.41.21A.48.48,0,0,1,392,99l-1.9,5.08A.51.51,0,0,1,389.6,104.4Zm-1.77-1h1.42l1.53-4.08h-2.95Z" style="fill:#263238"></path><polygon points="347.9 103.9 347.9 98.82 338.99 98.82 340.89 103.9 347.9 103.9" style="fill:#263238"></polygon><path d="M347.9,104.4h-7a.51.51,0,0,1-.47-.33L338.52,99a.5.5,0,0,1,.05-.46.53.53,0,0,1,.42-.21h8.91a.5.5,0,0,1,.5.5v5.08A.51.51,0,0,1,347.9,104.4Zm-6.66-1h6.16V99.32h-7.69Z" style="fill:#263238"></path><polygon points="347.9 105.5 341.49 105.5 343.26 110.22 347.9 110.22 347.9 105.5" style="fill:#263238"></polygon><path d="M347.9,110.72h-4.64a.48.48,0,0,1-.46-.32L341,105.68a.53.53,0,0,1,.06-.46.5.5,0,0,1,.41-.22h6.41a.51.51,0,0,1,.5.5v4.72A.5.5,0,0,1,347.9,110.72Zm-4.29-1h3.79V106h-5.19Z" style="fill:#263238"></path><polygon points="387.33 105.5 387.33 109.94 389 105.5 387.33 105.5" style="fill:#263238"></polygon><path d="M387.33,110.44h-.09a.49.49,0,0,1-.41-.49V105.5a.5.5,0,0,1,.5-.5H389a.5.5,0,0,1,.41.22.5.5,0,0,1,0,.46l-1.66,4.44A.51.51,0,0,1,387.33,110.44Zm.5-4.44v1.18l.44-1.18Z" style="fill:#263238"></path><rect x="368.42" y="105.5" width="7.85" height="4.72" style="fill:#263238"></rect><path d="M376.27,110.72h-7.85a.5.5,0,0,1-.5-.5V105.5a.5.5,0,0,1,.5-.5h7.85a.51.51,0,0,1,.5.5v4.72A.5.5,0,0,1,376.27,110.72Zm-7.35-1h6.85V106h-6.85Z" style="fill:#263238"></path><rect x="377.87" y="105.5" width="7.85" height="4.72" style="fill:#263238"></rect><path d="M385.72,110.72h-7.85a.5.5,0,0,1-.5-.5V105.5a.51.51,0,0,1,.5-.5h7.85a.5.5,0,0,1,.5.5v4.72A.5.5,0,0,1,385.72,110.72Zm-7.35-1h6.85V106h-6.85Z" style="fill:#263238"></path><rect x="358.96" y="105.5" width="7.85" height="4.72" style="fill:#263238"></rect><path d="M366.81,110.72H359a.5.5,0,0,1-.5-.5V105.5a.5.5,0,0,1,.5-.5h7.85a.5.5,0,0,1,.5.5v4.72A.5.5,0,0,1,366.81,110.72Zm-7.35-1h6.85V106h-6.85Z" style="fill:#263238"></path><polygon points="376.96 82.75 353.53 82.75 348.5 73.37 381.98 73.37 376.96 82.75" style="fill:#b0b0b0"></polygon><path d="M377.26,83.25h-24l-5.56-10.38h35.15Zm-23.43-1h22.83l4.49-8.38H349.34Z" style="fill:#263238"></path><polygon points="376.96 67.01 353.53 67.01 348.5 73.48 381.98 73.48 376.96 67.01" style="fill:#fff"></polygon><path d="M382,74H348.5a.5.5,0,0,1-.39-.81l5-6.47a.51.51,0,0,1,.4-.19H377a.51.51,0,0,1,.4.19l5,6.47a.49.49,0,0,1,.05.53A.5.5,0,0,1,382,74Zm-32.46-1H381l-4.24-5.47h-23Z" style="fill:#263238"></path><rect x="355.93" y="76.5" width="4.65" height="2.8" style="fill:#263238"></rect><polygon points="354.98 76.5 351.18 76.5 352.23 79.3 354.98 79.3 354.98 76.5" style="fill:#263238"></polygon><polygon points="378.32 76.5 378.32 79.13 379.3 76.5 378.32 76.5" style="fill:#263238"></polygon><rect x="367.12" y="76.5" width="4.65" height="2.8" style="fill:#263238"></rect><rect x="372.72" y="76.5" width="4.65" height="2.8" style="fill:#263238"></rect><rect x="361.52" y="76.5" width="4.65" height="2.8" style="fill:#263238"></rect><circle cx="365.24" cy="59.95" r="7.03" style="fill:#fff"></circle><path d="M365.24,67.48A7.53,7.53,0,1,1,372.77,60,7.54,7.54,0,0,1,365.24,67.48Zm0-14.06A6.53,6.53,0,1,0,371.77,60,6.54,6.54,0,0,0,365.24,53.42Z" style="fill:#263238"></path></g><g id="Airport"><rect x="204.22" y="198.22" width="371.79" height="51.91" style="fill:#fff"></rect><path d="M576.51,250.63H203.72V197.72H576.51Zm-371.79-1H575.51V198.72H204.72Z" style="fill:#263238"></path><rect x="204.22" y="206.96" width="371.79" height="18.42" style="fill:#263238"></rect><path d="M576.51,225.88H203.72V206.46H576.51Zm-371.79-1H575.51V207.46H204.72Z" style="fill:#263238"></path><rect x="204.22" y="232.18" width="371.79" height="9.21" style="fill:#263238"></rect><path d="M576.51,241.9H203.72V231.68H576.51Zm-371.79-1H575.51v-8.22H204.72Z" style="fill:#263238"></path><rect x="226.53" y="198.65" width="2.86" height="51.48" style="fill:#263238"></rect><rect x="256.27" y="198.65" width="2.86" height="51.48" style="fill:#263238"></rect><rect x="286.01" y="198.65" width="2.86" height="51.48" style="fill:#263238"></rect><rect x="315.76" y="198.65" width="2.86" height="51.48" style="fill:#263238"></rect><rect x="345.5" y="198.65" width="2.86" height="51.48" style="fill:#263238"></rect><rect x="375.24" y="198.65" width="2.86" height="51.48" style="fill:#263238"></rect><rect x="404.98" y="198.65" width="2.86" height="51.48" style="fill:#263238"></rect><rect x="434.73" y="198.65" width="2.86" height="51.48" style="fill:#263238"></rect><rect x="464.47" y="198.65" width="2.86" height="51.48" style="fill:#263238"></rect><rect x="494.21" y="198.65" width="2.86" height="51.48" style="fill:#263238"></rect><rect x="523.96" y="198.65" width="2.86" height="51.48" style="fill:#263238"></rect><rect x="553.7" y="198.65" width="2.86" height="51.48" style="fill:#263238"></rect><rect x="211.08" y="176.34" width="88.08" height="21.74" style="fill:#263238"></rect><path d="M299.17,198.58H211.08a.51.51,0,0,1-.5-.5V176.34a.51.51,0,0,1,.5-.5h88.09a.51.51,0,0,1,.5.5v21.74A.51.51,0,0,1,299.17,198.58Zm-87.59-1h87.09V176.84H211.58Z" style="fill:#263238"></path><rect x="306.6" y="188.61" width="38.35" height="9.46" style="fill:#263238"></rect><path d="M345,198.58H306.6a.51.51,0,0,1-.5-.5v-9.47a.51.51,0,0,1,.5-.5H345a.51.51,0,0,1,.5.5v9.47A.51.51,0,0,1,345,198.58Zm-37.86-1h37.36v-8.47H307.1Z" style="fill:#263238"></path><rect x="523.38" y="188.61" width="38.35" height="9.46" style="fill:#263238"></rect><path d="M561.74,198.58H523.38a.51.51,0,0,1-.5-.5v-9.47a.51.51,0,0,1,.5-.5h38.36a.51.51,0,0,1,.5.5v9.47A.51.51,0,0,1,561.74,198.58Zm-37.86-1h37.36v-8.47H523.88Z" style="fill:#263238"></path><rect x="70.25" y="223.49" width="122.45" height="26.63" style="fill:#263238"></rect><path d="M192.7,250.63H70.25a.5.5,0,0,1-.5-.5V223.49a.5.5,0,0,1,.5-.5H192.7a.5.5,0,0,1,.5.5v26.64A.5.5,0,0,1,192.7,250.63Zm-121.95-1H192.2V224H70.75Z" style="fill:#263238"></path><rect x="72.12" y="231.18" width="26.96" height="14.98" style="fill:#b0b0b0"></rect><path d="M99.58,246.66h-28v-16h28Zm-27-1h26v-14h-26Z" style="fill:#263238"></path><rect x="102.08" y="231.18" width="26.96" height="14.98" style="fill:#b0b0b0"></rect><path d="M129.54,246.66h-28v-16h28Zm-27-1h26v-14h-26Z" style="fill:#263238"></path><rect x="132.03" y="231.18" width="26.96" height="14.98" style="fill:#b0b0b0"></rect><path d="M159.49,246.66h-28v-16h28Zm-27-1h26v-14h-26Z" style="fill:#263238"></path><rect x="161.99" y="231.18" width="26.96" height="14.98" style="fill:#b0b0b0"></rect><path d="M189.45,246.66h-28v-16h28Zm-27-1h26v-14h-26Z" style="fill:#263238"></path></g><g id="Floor"><path d="M715.44,250.63H40.78a.5.5,0,0,1-.5-.5.5.5,0,0,1,.5-.5H715.44a.5.5,0,0,1,.5.5A.51.51,0,0,1,715.44,250.63Z" style="fill:#263238"></path></g><g id="airplane-4"><polygon points="596.3 250.63 599.83 252.13 599.87 253.19 598.08 253.75 598.08 255.75 599.29 255.75 599.29 254.65 601.91 254.65 601.91 255.75 604.01 255.75 604.01 253.82 602.16 253.12 602.16 251.97 605.92 250.44 596.3 250.63" style="fill:#263238"></polygon><path d="M604.51,256.25h-3.1v-1.1h-1.62v1.1h-2.21v-2.86l1.77-.56v-.36L594,250.18l14.65-.29-6,2.42v.46l1.85.7Zm-2.1-1h1.1v-1.09l-1.85-.7v-1.83l1.58-.64-4.6.09,1.67.71.07,1.76-1.8.57v1.13h.21v-1.1h3.62Z" style="fill:#263238"></path><path d="M596.54,255.75a1.38,1.38,0,1,0,1.37-1.38A1.37,1.37,0,0,0,596.54,255.75Z" style="fill:#263238"></path><path d="M597.91,257.63a1.88,1.88,0,1,1,1.88-1.88A1.88,1.88,0,0,1,597.91,257.63Zm0-2.75a.88.88,0,1,0,.88.87A.87.87,0,0,0,597.91,254.88Z" style="fill:#263238"></path><circle cx="597.91" cy="255.75" r="0.69" style="fill:#fff"></circle><path d="M597.91,256.94a1.19,1.19,0,1,1,1.19-1.19A1.19,1.19,0,0,1,597.91,256.94Zm0-1.38a.2.2,0,0,0-.19.19c0,.21.38.21.38,0A.19.19,0,0,0,597.91,255.56Z" style="fill:#263238"></path><circle cx="603.12" cy="255.75" r="1.38" style="fill:#263238"></circle><path d="M603.12,257.63a1.88,1.88,0,1,1,1.88-1.88A1.88,1.88,0,0,1,603.12,257.63Zm0-2.75a.88.88,0,1,0,.88.87A.88.88,0,0,0,603.12,254.88Z" style="fill:#263238"></path><path d="M602.43,255.75a.69.69,0,1,0,.69-.69A.69.69,0,0,0,602.43,255.75Z" style="fill:#fff"></path><path d="M603.12,256.94a1.19,1.19,0,1,1,1.19-1.19A1.19,1.19,0,0,1,603.12,256.94Zm0-1.38a.2.2,0,0,0-.19.19c0,.21.38.21.38,0A.19.19,0,0,0,603.12,255.56Z" style="fill:#263238"></path><path d="M689.48,233.15a35.55,35.55,0,0,1,6,3.61c2,1.73,4.87,4.09,5.81,6s-.15,3.93-2.2,5.34-12.11,2.52-12.89,2.36-94.34,0-94.34,0l-61.33-8.65-14.62-4.71-.31-3.62s-3.62-1.57-3-1.89,12.11,0,12.11,0l35.37-3.77H668.73S681.62,228.27,689.48,233.15Z" style="fill:#fff"></path><path d="M686.42,251a1.48,1.48,0,0,1-.34,0c-1.28-.11-62.21,0-94.24,0l-61.4-8.65-15-4.84-.32-3.65C512,232.44,512,232,512,231.69a.62.62,0,0,1,.35-.56c.65-.32,8-.17,12.35-.06L560,227.3h108.7c.55,0,13.12.53,21,5.41a34.57,34.57,0,0,1,6.06,3.67l.19.17c2.14,1.8,4.79,4,5.75,6s.09,4.29-2.36,6C697.38,249.86,688.43,251,686.42,251Zm-26.27-1.08c14.66,0,25.83,0,26.13.08.93.14,10.67-1,12.51-2.28,1.58-1.09,2.94-2.9,2-4.71s-3.55-4-5.5-5.65l-.2-.17a35.63,35.63,0,0,0-5.87-3.54l0,0c-7.66-4.75-20.39-5.27-20.51-5.27H560.07l-35.32,3.77c-3.56-.09-8.94-.18-11.09-.11.56.32,1.38.72,2.11,1l.28.12.31,3.58,14.31,4.62L591.91,250C601.63,249.93,635.73,249.87,660.15,249.87Z" style="fill:#263238"></path><polygon points="560.07 227.8 555.04 227.01 520.76 193.52 508.03 192.74 524.7 231.57 560.07 227.8" style="fill:#92E3A9"></polygon><path d="M524.38,232.11l-.14-.34-17-39.58L521,193l.13.13,34.17,33.38,8.63,1.35Zm-15.57-38.82L525,231l31.23-3.33-1.43-.23L520.55,194Z" style="fill:#263238"></path><polygon points="548.99 221.1 520.76 193.52 508.03 192.74 513.28 204.97 522.32 204.97 534.51 221.1 548.99 221.1" style="fill:#fff"></polygon><path d="M550.22,221.6h-16l-12.19-16.13H513l-5.7-13.28L521,193l.13.13Zm-15.46-1h13L520.55,194l-11.74-.72,4.8,11.18h9Z" style="fill:#263238"></path><path d="M517.93,233.62l27.68,1.73a4.13,4.13,0,0,1-1.73,1.57c-1.1.47-15.73.63-17.3.47s-19.5-3.46-19.5-3.46Z" style="fill:#263238"></path><path d="M530,237.94c-1.77,0-3.09,0-3.44-.05-1.57-.16-18.8-3.33-19.54-3.47l-4.64-.85,15.59-.45h0l28.48,1.78-.4.7a4.6,4.6,0,0,1-2,1.78C543.11,237.79,534.84,237.94,530,237.94Zm-18.13-3.65c5.42,1,13.76,2.5,14.79,2.6,1.67.17,16,0,17-.43a2.84,2.84,0,0,0,1-.67l-26.7-1.67Z" style="fill:#263238"></path><path d="M517.54,233.63h.39l27.68,1.73a4.13,4.13,0,0,1-1.73,1.57l-27.2-3.15Z" style="fill:#fff"></path><path d="M544,237.43l-30.82-3.56,4.39-.74h.4l28.52,1.78-.4.7a4.6,4.6,0,0,1-2,1.78Zm-12.8-2.49,12.65,1.47a3.39,3.39,0,0,0,.83-.62Z" style="fill:#263238"></path><polygon points="693.31 239.24 692 239.24 692.69 237.57 693.2 237.57 693.31 239.24" style="fill:#263238"></polygon><polygon points="695.2 237.57 696.12 237.57 698.28 239.24 696.4 239.24 695.2 237.57" style="fill:#263238"></polygon><polygon points="694.58 237.57 695.77 239.24 693.82 239.24 693.71 237.57 694.58 237.57" style="fill:#263238"></polygon><path d="M684.65,244.41a1.72,1.72,0,0,1-1.72-1.72v-3.43a1.72,1.72,0,0,1,3.44,0v3.43A1.72,1.72,0,0,1,684.65,244.41Zm0-6.37a1.22,1.22,0,0,0-1.22,1.22v3.43a1.22,1.22,0,0,0,2.44,0v-3.43A1.22,1.22,0,0,0,684.65,238Z" style="fill:#263238"></path><path d="M657.26,244.41a1.72,1.72,0,0,1-1.72-1.72v-3.43a1.72,1.72,0,0,1,3.44,0v3.43A1.72,1.72,0,0,1,657.26,244.41Zm0-6.37a1.22,1.22,0,0,0-1.22,1.22v3.43a1.22,1.22,0,0,0,2.44,0v-3.43A1.22,1.22,0,0,0,657.26,238Z" style="fill:#263238"></path><path d="M646.11,236.85a1.72,1.72,0,0,1-1.72-1.72v-2.62a1.72,1.72,0,0,1,3.44,0v2.62A1.72,1.72,0,0,1,646.11,236.85Zm0-5.56a1.22,1.22,0,0,0-1.22,1.22v2.62a1.22,1.22,0,0,0,2.44,0v-2.62A1.22,1.22,0,0,0,646.11,231.29Z" style="fill:#263238"></path><path d="M593.44,236.85a1.72,1.72,0,0,1-1.72-1.72v-2.62a1.72,1.72,0,1,1,3.44,0v2.62A1.73,1.73,0,0,1,593.44,236.85Zm0-5.56a1.22,1.22,0,0,0-1.22,1.22v2.62a1.22,1.22,0,1,0,2.44,0v-2.62A1.22,1.22,0,0,0,593.44,231.29Z" style="fill:#263238"></path><path d="M569.52,236.85a1.72,1.72,0,0,1-1.72-1.72v-2.62a1.72,1.72,0,0,1,3.44,0v2.62A1.73,1.73,0,0,1,569.52,236.85Zm0-5.56a1.22,1.22,0,0,0-1.22,1.22v2.62a1.22,1.22,0,0,0,2.44,0v-2.62A1.22,1.22,0,0,0,569.52,231.29Z" style="fill:#263238"></path><path d="M581.17,244.41a1.72,1.72,0,0,1-1.72-1.72v-3.43a1.72,1.72,0,0,1,3.44,0v3.43A1.73,1.73,0,0,1,581.17,244.41Zm0-6.37a1.22,1.22,0,0,0-1.22,1.22v3.43a1.22,1.22,0,1,0,2.44,0v-3.43A1.22,1.22,0,0,0,581.17,238Z" style="fill:#263238"></path><path d="M614.13,244.41a1.73,1.73,0,0,1-1.72-1.72v-3.43a1.72,1.72,0,0,1,3.44,0v3.43A1.72,1.72,0,0,1,614.13,244.41Zm0-6.37a1.22,1.22,0,0,0-1.22,1.22v3.43a1.22,1.22,0,0,0,2.44,0v-3.43A1.22,1.22,0,0,0,614.13,238Z" style="fill:#263238"></path><path d="M652.84,246.67s-5.81-1.89-8.8-2.52-43.56-2.83-44.66-2.83-38,.79-38,.79l-4.24-1.57v5.7l4.35-3.14,13.6.25,26.74,7.12h44.36S652.66,247.75,652.84,246.67Z" style="fill:#fff"></path><path d="M646.25,251h-44.6L575,243.84l-13.37-.24-5,3.62v-7.4l4.83,1.79c2.51-.06,36.89-.79,38-.79.32,0,41.43,2.14,44.76,2.84,3,.63,8.62,2.46,8.86,2.53l.41.14-.07.42c-.21,1.18-4.48,3.13-7,4.18Zm-44.4-1H646a33.71,33.71,0,0,0,6-3.05c-1.62-.51-5.74-1.79-8.06-2.28-3.1-.65-44.25-2.82-44.56-2.82-1,0-34.59.72-37.79.78l13.58.26Zm-44.26-8.72v4l3.68-2.66h0Z" style="fill:#263238"></path><path d="M652.84,246.67c-.18,1.08-6.7,3.8-6.7,3.8H601.78L575,243.35l24.06-.68Z" style="fill:#263238"></path><path d="M646.25,251h-44.6l-30.07-8,27.5-.77,54.35,4-.09.54c-.21,1.18-4.48,3.13-7,4.18Zm-44.4-1H646a38.69,38.69,0,0,0,5.74-2.88l-52.72-3.93-20.57.59Z" style="fill:#263238"></path><path d="M618.3,244.63v10.19s-11.07.29-17.64-2.84v-5.69S610.76,243.25,618.3,244.63Z" style="fill:#92E3A9"></path><path d="M617.44,255.33c-2.77,0-11.4-.23-17-2.9l-.29-.14v-6.37l.36-.11c.42-.12,10.3-3.05,17.87-1.68l.41.08v11.1h-1.36Zm-16.28-3.67c5.63,2.55,14.48,2.68,16.64,2.66v-9.27c-6.5-1-14.83,1.12-16.64,1.62Z" style="fill:#263238"></path><path d="M601.64,252.4c-.33-.13-.66-.27-1-.42v-5.69l1-.27Z" style="fill:#fff"></path><path d="M602.14,253.14l-.68-.27c-.35-.14-.69-.29-1-.44l-.29-.14v-6.37l.36-.11s.36-.11,1-.27l.62-.17Z" style="fill:#263238"></path><path d="M640.75,244.63v10.19s-11.08.29-17.64-2.84v-5.69S633.2,243.25,640.75,244.63Z" style="fill:#92E3A9"></path><path d="M639.88,255.33c-2.77,0-11.39-.23-17-2.9l-.28-.14v-6.37l.35-.11c.42-.12,10.3-3.05,17.88-1.68l.41.08v11.1h-1.37Zm-16.27-3.67c5.63,2.55,14.46,2.68,16.64,2.66v-9.27c-6.5-1-14.83,1.12-16.64,1.62Z" style="fill:#263238"></path><path d="M624.09,252.4c-.34-.13-.67-.27-1-.42v-5.69l1-.27Z" style="fill:#fff"></path><path d="M624.59,253.14l-.69-.27-1-.44-.28-.14v-6.37l.35-.11s.36-.11,1-.27l.63-.17Z" style="fill:#263238"></path><path d="M679.84,240.78a.44.44,0,1,0,.44-.43A.44.44,0,0,0,679.84,240.78Z" style="fill:#263238"></path><path d="M678.35,240.78a.44.44,0,0,0,.44.44.44.44,0,0,0,0-.87A.44.44,0,0,0,678.35,240.78Z" style="fill:#263238"></path><path d="M676.87,240.78a.43.43,0,1,0,.43-.43A.44.44,0,0,0,676.87,240.78Z" style="fill:#263238"></path><path d="M675.38,240.78a.44.44,0,0,0,.43.44.44.44,0,1,0,0-.87A.43.43,0,0,0,675.38,240.78Z" style="fill:#263238"></path><path d="M673.89,240.78a.44.44,0,0,0,.44.44.44.44,0,0,0,0-.87A.44.44,0,0,0,673.89,240.78Z" style="fill:#263238"></path><path d="M672.41,240.78a.43.43,0,1,0,.43-.43A.44.44,0,0,0,672.41,240.78Z" style="fill:#263238"></path><path d="M670.92,240.78a.44.44,0,0,0,.43.44.44.44,0,1,0,0-.87A.43.43,0,0,0,670.92,240.78Z" style="fill:#263238"></path><path d="M669.43,240.78a.44.44,0,1,0,.43-.43A.44.44,0,0,0,669.43,240.78Z" style="fill:#263238"></path><path d="M667.94,240.78a.44.44,0,0,0,.44.44.44.44,0,0,0,0-.87A.44.44,0,0,0,667.94,240.78Z" style="fill:#263238"></path><path d="M666.46,240.78a.43.43,0,1,0,.43-.43A.44.44,0,0,0,666.46,240.78Z" style="fill:#263238"></path><path d="M665,240.78a.44.44,0,0,0,.43.44.44.44,0,1,0,0-.87A.43.43,0,0,0,665,240.78Z" style="fill:#263238"></path><path d="M663.48,240.78a.44.44,0,0,0,.44.44.44.44,0,0,0,0-.87A.44.44,0,0,0,663.48,240.78Z" style="fill:#263238"></path><path d="M662,240.78a.43.43,0,1,0,.43-.43A.44.44,0,0,0,662,240.78Z" style="fill:#263238"></path><path d="M660.51,240.78a.44.44,0,0,0,.43.44.44.44,0,1,0,0-.87A.43.43,0,0,0,660.51,240.78Z" style="fill:#263238"></path><path d="M647.56,240.78a.43.43,0,1,0,.43-.43A.44.44,0,0,0,647.56,240.78Z" style="fill:#263238"></path><path d="M645.64,240.78a.43.43,0,1,0,.43-.43A.44.44,0,0,0,645.64,240.78Z" style="fill:#263238"></path><path d="M643.72,240.78a.43.43,0,1,0,.43-.43A.44.44,0,0,0,643.72,240.78Z" style="fill:#263238"></path><path d="M641.79,240.78a.44.44,0,0,0,.44.44.44.44,0,0,0,0-.87A.44.44,0,0,0,641.79,240.78Z" style="fill:#263238"></path><path d="M639.87,240.78a.44.44,0,0,0,.44.44.44.44,0,0,0,0-.87A.44.44,0,0,0,639.87,240.78Z" style="fill:#263238"></path><path d="M638,240.78a.44.44,0,0,0,.44.44.44.44,0,0,0,0-.87A.44.44,0,0,0,638,240.78Z" style="fill:#263238"></path><path d="M636,240.78a.44.44,0,1,0,.43-.43A.44.44,0,0,0,636,240.78Z" style="fill:#263238"></path><path d="M634.11,240.78a.44.44,0,0,0,.43.44.44.44,0,1,0,0-.87A.43.43,0,0,0,634.11,240.78Z" style="fill:#263238"></path><path d="M632.19,240.78a.44.44,0,0,0,.43.44.44.44,0,1,0,0-.87A.43.43,0,0,0,632.19,240.78Z" style="fill:#263238"></path><path d="M630.27,240.78a.44.44,0,0,0,.43.44.44.44,0,1,0,0-.87A.43.43,0,0,0,630.27,240.78Z" style="fill:#263238"></path><path d="M628.35,240.78a.43.43,0,1,0,.43-.43A.44.44,0,0,0,628.35,240.78Z" style="fill:#263238"></path><path d="M626.43,240.78a.43.43,0,1,0,.43-.43A.44.44,0,0,0,626.43,240.78Z" style="fill:#263238"></path><path d="M624.51,240.78a.43.43,0,1,0,.43-.43A.44.44,0,0,0,624.51,240.78Z" style="fill:#263238"></path><path d="M622.58,240.78a.44.44,0,0,0,.44.44.44.44,0,0,0,0-.87A.44.44,0,0,0,622.58,240.78Z" style="fill:#263238"></path><path d="M620.66,240.78a.44.44,0,0,0,.44.44.44.44,0,0,0,0-.87A.44.44,0,0,0,620.66,240.78Z" style="fill:#263238"></path><path d="M618.74,240.78a.44.44,0,0,0,.44.44.44.44,0,0,0,0-.87A.44.44,0,0,0,618.74,240.78Z" style="fill:#263238"></path><path d="M616.82,240.78a.44.44,0,1,0,.44-.43A.44.44,0,0,0,616.82,240.78Z" style="fill:#263238"></path><path d="M640.18,233.41a.44.44,0,0,0,.44.43.43.43,0,0,0,0-.86A.44.44,0,0,0,640.18,233.41Z" style="fill:#263238"></path><path d="M638.26,233.41a.44.44,0,0,0,.44.43.43.43,0,0,0,0-.86A.44.44,0,0,0,638.26,233.41Z" style="fill:#263238"></path><circle cx="636.77" cy="233.41" r="0.43" style="fill:#263238"></circle><path d="M634.42,233.41a.43.43,0,0,0,.43.43.43.43,0,1,0,0-.86A.43.43,0,0,0,634.42,233.41Z" style="fill:#263238"></path><path d="M632.5,233.41a.43.43,0,0,0,.43.43.43.43,0,1,0,0-.86A.43.43,0,0,0,632.5,233.41Z" style="fill:#263238"></path><path d="M630.58,233.41a.43.43,0,0,0,.43.43.43.43,0,1,0,0-.86A.43.43,0,0,0,630.58,233.41Z" style="fill:#263238"></path><path d="M628.66,233.41a.43.43,0,1,0,.43-.43A.43.43,0,0,0,628.66,233.41Z" style="fill:#263238"></path><path d="M626.74,233.41a.43.43,0,1,0,.43-.43A.43.43,0,0,0,626.74,233.41Z" style="fill:#263238"></path><path d="M624.82,233.41a.43.43,0,1,0,.43-.43A.43.43,0,0,0,624.82,233.41Z" style="fill:#263238"></path><circle cx="623.33" cy="233.41" r="0.43" style="fill:#263238"></circle><path d="M621,233.41a.44.44,0,0,0,.44.43.43.43,0,1,0,0-.86A.44.44,0,0,0,621,233.41Z" style="fill:#263238"></path><path d="M619.05,233.41a.44.44,0,0,0,.44.43.43.43,0,0,0,0-.86A.44.44,0,0,0,619.05,233.41Z" style="fill:#263238"></path><path d="M617.13,233.41a.44.44,0,1,0,.44-.43A.44.44,0,0,0,617.13,233.41Z" style="fill:#263238"></path><path d="M615.21,233.41a.43.43,0,0,0,.43.43.43.43,0,1,0,0-.86A.43.43,0,0,0,615.21,233.41Z" style="fill:#263238"></path><path d="M613.29,233.41a.43.43,0,0,0,.43.43.43.43,0,1,0,0-.86A.43.43,0,0,0,613.29,233.41Z" style="fill:#263238"></path><circle cx="611.8" cy="233.41" r="0.43" style="fill:#263238"></circle><path d="M609.45,233.41a.43.43,0,1,0,.43-.43A.43.43,0,0,0,609.45,233.41Z" style="fill:#263238"></path><path d="M607.34,233.41a.43.43,0,0,0,.43.43.43.43,0,1,0,0-.86A.43.43,0,0,0,607.34,233.41Z" style="fill:#263238"></path><path d="M605.23,233.41a.44.44,0,0,0,.44.43.43.43,0,1,0,0-.86A.44.44,0,0,0,605.23,233.41Z" style="fill:#263238"></path><circle cx="603.56" cy="233.41" r="0.43" style="fill:#263238"></circle><path d="M601,233.41a.43.43,0,0,0,.43.43.43.43,0,1,0,0-.86A.43.43,0,0,0,601,233.41Z" style="fill:#263238"></path><path d="M598.91,233.41a.44.44,0,0,0,.44.43.43.43,0,0,0,0-.86A.44.44,0,0,0,598.91,233.41Z" style="fill:#263238"></path><circle cx="597.24" cy="233.41" r="0.43" style="fill:#263238"></circle><path d="M609,240.78a.44.44,0,0,0,.44.44.44.44,0,0,0,0-.87A.44.44,0,0,0,609,240.78Z" style="fill:#263238"></path><path d="M607.34,240.78a.44.44,0,0,0,.43.44.44.44,0,1,0,0-.87A.43.43,0,0,0,607.34,240.78Z" style="fill:#263238"></path><path d="M605.67,240.78a.43.43,0,1,0,.43-.43A.44.44,0,0,0,605.67,240.78Z" style="fill:#263238"></path><path d="M604,240.78a.44.44,0,0,0,.44.44.44.44,0,0,0,0-.87A.44.44,0,0,0,604,240.78Z" style="fill:#263238"></path><path d="M602.32,240.78a.44.44,0,1,0,.43-.43A.44.44,0,0,0,602.32,240.78Z" style="fill:#263238"></path><path d="M600.65,240.78a.44.44,0,0,0,.43.44.44.44,0,1,0,0-.87A.43.43,0,0,0,600.65,240.78Z" style="fill:#263238"></path><path d="M599,240.78a.43.43,0,1,0,.43-.43A.44.44,0,0,0,599,240.78Z" style="fill:#263238"></path><path d="M597.3,240.78a.44.44,0,0,0,.44.44.44.44,0,0,0,0-.87A.44.44,0,0,0,597.3,240.78Z" style="fill:#263238"></path><path d="M595.63,240.78a.44.44,0,0,0,.43.44.44.44,0,1,0,0-.87A.43.43,0,0,0,595.63,240.78Z" style="fill:#263238"></path><path d="M594,240.78a.43.43,0,1,0,.43-.43A.44.44,0,0,0,594,240.78Z" style="fill:#263238"></path><path d="M592.28,240.78a.44.44,0,0,0,.44.44.44.44,0,0,0,0-.87A.44.44,0,0,0,592.28,240.78Z" style="fill:#263238"></path><path d="M590.61,240.78a.44.44,0,0,0,.43.44.44.44,0,1,0,0-.87A.43.43,0,0,0,590.61,240.78Z" style="fill:#263238"></path><path d="M588.94,240.78a.43.43,0,1,0,.43-.43A.44.44,0,0,0,588.94,240.78Z" style="fill:#263238"></path><path d="M587.26,240.78a.44.44,0,0,0,.44.44.44.44,0,0,0,0-.87A.44.44,0,0,0,587.26,240.78Z" style="fill:#263238"></path><path d="M575.18,240.78a.44.44,0,0,0,.43.44.44.44,0,1,0,0-.87A.43.43,0,0,0,575.18,240.78Z" style="fill:#263238"></path><path d="M573.32,240.78a.44.44,0,0,0,.43.44.44.44,0,1,0,0-.87A.43.43,0,0,0,573.32,240.78Z" style="fill:#263238"></path><path d="M571.46,240.78a.44.44,0,0,0,.44.44.44.44,0,0,0,0-.87A.44.44,0,0,0,571.46,240.78Z" style="fill:#263238"></path><path d="M569.6,240.78a.44.44,0,0,0,.44.44.44.44,0,0,0,0-.87A.44.44,0,0,0,569.6,240.78Z" style="fill:#263238"></path><path d="M567.74,240.78a.44.44,0,0,0,.44.44.44.44,0,0,0,0-.87A.44.44,0,0,0,567.74,240.78Z" style="fill:#263238"></path><path d="M565.88,240.78a.44.44,0,0,0,.44.44.44.44,0,0,0,0-.87A.44.44,0,0,0,565.88,240.78Z" style="fill:#263238"></path><path d="M564,240.78a.43.43,0,1,0,.43-.43A.44.44,0,0,0,564,240.78Z" style="fill:#263238"></path><path d="M562.17,240.78a.43.43,0,1,0,.43-.43A.44.44,0,0,0,562.17,240.78Z" style="fill:#263238"></path><path d="M586.52,233.41a.43.43,0,0,0,.43.43.43.43,0,1,0,0-.86A.43.43,0,0,0,586.52,233.41Z" style="fill:#263238"></path><path d="M584.66,233.41a.43.43,0,0,0,.43.43.43.43,0,1,0,0-.86A.43.43,0,0,0,584.66,233.41Z" style="fill:#263238"></path><circle cx="583.24" cy="233.41" r="0.43" style="fill:#263238"></circle><circle cx="581.38" cy="233.41" r="0.43" style="fill:#263238"></circle><circle cx="579.52" cy="233.41" r="0.43" style="fill:#263238"></circle><circle cx="577.66" cy="233.41" r="0.43" style="fill:#263238"></circle><circle cx="575.8" cy="233.41" r="0.43" style="fill:#263238"></circle><circle cx="573.94" cy="233.41" r="0.43" style="fill:#263238"></circle><path d="M565.2,233.41a.44.44,0,0,0,.44.43.43.43,0,1,0,0-.86A.44.44,0,0,0,565.2,233.41Z" style="fill:#263238"></path><path d="M563.34,233.41a.44.44,0,0,0,.44.43.43.43,0,1,0,0-.86A.44.44,0,0,0,563.34,233.41Z" style="fill:#263238"></path><path d="M561.49,233.41a.43.43,0,1,0,.43-.43A.43.43,0,0,0,561.49,233.41Z" style="fill:#263238"></path><path d="M559.63,233.41a.43.43,0,1,0,.43-.43A.43.43,0,0,0,559.63,233.41Z" style="fill:#263238"></path><path d="M557.77,233.41a.43.43,0,1,0,.43-.43A.43.43,0,0,0,557.77,233.41Z" style="fill:#263238"></path><path d="M666.39,233.41a.44.44,0,0,0,.44.43.43.43,0,0,0,0-.86A.44.44,0,0,0,666.39,233.41Z" style="fill:#263238"></path><path d="M664.54,233.41A.43.43,0,1,0,665,233,.43.43,0,0,0,664.54,233.41Z" style="fill:#263238"></path><path d="M662.68,233.41a.43.43,0,1,0,.43-.43A.43.43,0,0,0,662.68,233.41Z" style="fill:#263238"></path><path d="M660.82,233.41a.43.43,0,0,0,.43.43.43.43,0,1,0,0-.86A.43.43,0,0,0,660.82,233.41Z" style="fill:#263238"></path><path d="M659,233.41a.43.43,0,0,0,.43.43.43.43,0,1,0,0-.86A.43.43,0,0,0,659,233.41Z" style="fill:#263238"></path><circle cx="688.56" cy="255.75" r="1.38" style="fill:#263238"></circle><path d="M688.56,257.63a1.88,1.88,0,1,1,1.87-1.88A1.88,1.88,0,0,1,688.56,257.63Zm0-2.75a.88.88,0,1,0,.87.87A.87.87,0,0,0,688.56,254.88Z" style="fill:#263238"></path><circle cx="688.56" cy="255.75" r="0.69" style="fill:#fff"></circle><path d="M688.56,256.94a1.19,1.19,0,1,1,0-2.38,1.19,1.19,0,1,1,0,2.38Zm0-1.38a.19.19,0,0,0-.19.19c0,.21.38.21.38,0A.2.2,0,0,0,688.56,255.56Z" style="fill:#263238"></path><polygon points="690.93 250.09 690.93 251.31 688.02 251.31 689.25 254.3 688.56 254.3 687.87 252.69 686.95 252.69 687.71 254.53 687.18 255.14 685.34 250.47 686.87 250.47 690.93 250.09" style="fill:#263238"></polygon><path d="M687,256.09,684.6,250h2.27l4.56-.43v2.27h-2.67l1.23,3h-1.76l0-.07Zm-.46-3.9h1.29l-.52-1.26-.4,0h-.85Zm2-1.38h1.87v-.18Z" style="fill:#263238"></path></g><g id="airplane-3"><polygon points="462.26 250.63 465.79 252.13 465.83 253.19 464.05 253.75 464.05 255.75 465.26 255.75 465.26 254.65 467.87 254.65 467.87 255.75 469.98 255.75 469.98 253.82 468.13 253.12 468.13 251.97 471.89 250.44 462.26 250.63" style="fill:#263238"></polygon><path d="M470.48,256.25h-3.11v-1.1h-1.61v1.1h-2.21v-2.86l1.77-.56,0-.36-5.38-2.29,14.66-.29-5.95,2.41v.47l1.85.7Zm-2.11-1h1.11v-1.09l-1.85-.7v-1.83l1.57-.64-4.59.09,1.67.71.07,1.76-1.8.57v1.13h.21v-1.1h3.61Z" style="fill:#263238"></path><path d="M462.5,255.75a1.38,1.38,0,1,0,1.38-1.38A1.38,1.38,0,0,0,462.5,255.75Z" style="fill:#263238"></path><path d="M463.88,257.63a1.88,1.88,0,1,1,1.88-1.88A1.88,1.88,0,0,1,463.88,257.63Zm0-2.75a.88.88,0,1,0,.88.87A.88.88,0,0,0,463.88,254.88Z" style="fill:#263238"></path><path d="M463.19,255.75a.69.69,0,1,0,.69-.69A.69.69,0,0,0,463.19,255.75Z" style="fill:#fff"></path><path d="M463.88,256.94a1.19,1.19,0,1,1,1.19-1.19A1.19,1.19,0,0,1,463.88,256.94Zm0-1.38a.2.2,0,0,0-.19.19c0,.21.38.21.38,0A.19.19,0,0,0,463.88,255.56Z" style="fill:#263238"></path><circle cx="469.09" cy="255.75" r="1.38" style="fill:#263238"></circle><path d="M469.09,257.63a1.88,1.88,0,1,1,1.88-1.88A1.88,1.88,0,0,1,469.09,257.63Zm0-2.75a.88.88,0,1,0,.88.87A.87.87,0,0,0,469.09,254.88Z" style="fill:#263238"></path><circle cx="469.09" cy="255.75" r="0.69" style="fill:#fff"></circle><path d="M469.09,256.94a1.19,1.19,0,0,1,0-2.38,1.19,1.19,0,0,1,0,2.38Zm0-1.38a.19.19,0,0,0-.19.19c0,.21.38.21.38,0A.2.2,0,0,0,469.09,255.56Z" style="fill:#263238"></path><path d="M555.45,233.15a35.21,35.21,0,0,1,6,3.61c2.05,1.73,4.88,4.09,5.82,6s-.16,3.93-2.2,5.34-12.11,2.52-12.89,2.36-94.35,0-94.35,0l-61.32-8.65-14.62-4.71-.32-3.62s-3.61-1.57-3-1.89,12.11,0,12.11,0L426,227.8H534.69S547.59,228.27,555.45,233.15Z" style="fill:#fff"></path><path d="M552.38,251a1.38,1.38,0,0,1-.33,0c-1.28-.11-62.21,0-94.25,0l-61.39-8.65-15-4.84-.32-3.65C378,232.44,378,232,378,231.69a.6.6,0,0,1,.35-.56c.65-.32,8-.17,12.35-.06L426,227.3h108.7c.55,0,13.11.53,21,5.41a34.57,34.57,0,0,1,6.06,3.67l.19.17c2.14,1.8,4.79,4,5.75,6s.09,4.29-2.37,6C563.35,249.86,554.4,251,552.38,251Zm-26.27-1.08c14.67,0,25.84,0,26.13.08.93.14,10.67-1,12.51-2.28,1.58-1.09,3-2.9,2-4.71s-3.54-4-5.49-5.65l-.2-.17a35.63,35.63,0,0,0-5.87-3.54l-.05,0c-7.65-4.75-20.38-5.27-20.51-5.27H426l-35.33,3.77c-3.55-.09-8.94-.18-11.09-.11.57.32,1.39.72,2.12,1l.27.12.32,3.58,14.3,4.62L457.87,250C467.59,249.93,501.7,249.87,526.11,249.87Z" style="fill:#263238"></path><path d="M534.47,227.8H489.84l-47,20.53,15,2.11,41.25-.05Z" style="fill:#92E3A9"></path><path d="M457.8,250.94,441,248.58l48.82-21.28h46.34l-37,23.59h-.14Zm-13.14-2.86L457.87,250s19.67,0,41-.06l33.86-21.59H489.94Z" style="fill:#263238"></path><polygon points="426.04 227.8 421.01 227.01 386.73 193.52 374 192.74 390.66 231.57 426.04 227.8" style="fill:#92E3A9"></polygon><path d="M390.35,232.11l-17.14-39.92L387,193l.13.13,34.16,33.38,8.64,1.35Zm-15.58-38.82L391,231l31.22-3.33-1.43-.23L386.51,194Z" style="fill:#263238"></path><path d="M383.9,233.62l27.67,1.73a4.06,4.06,0,0,1-1.73,1.57c-1.1.47-15.72.63-17.29.47s-19.5-3.46-19.5-3.46Z" style="fill:#263238"></path><path d="M395.94,237.94c-1.77,0-3.09,0-3.44-.05-1.58-.16-18.81-3.33-19.54-3.47l-4.64-.85,15.59-.45h0l28.48,1.78-.4.7a4.66,4.66,0,0,1-2,1.78C409.08,237.79,400.81,237.94,395.94,237.94Zm-18.13-3.65c5.42,1,13.76,2.5,14.79,2.6,1.67.17,16,0,17-.43a3.06,3.06,0,0,0,1-.67l-26.71-1.67Z" style="fill:#263238"></path><path d="M383.5,233.63h.4l27.67,1.73a4.06,4.06,0,0,1-1.73,1.57l-27.2-3.15Z" style="fill:#fff"></path><path d="M409.92,237.43l-30.82-3.56,4.39-.74h.4l28.52,1.78-.4.7a4.66,4.66,0,0,1-2,1.78Zm-12.81-2.49,12.65,1.47a3.27,3.27,0,0,0,.84-.62Z" style="fill:#263238"></path><polygon points="559.28 239.24 557.97 239.24 558.66 237.57 559.17 237.57 559.28 239.24" style="fill:#263238"></polygon><polygon points="561.17 237.57 562.09 237.57 564.24 239.24 562.37 239.24 561.17 237.57" style="fill:#263238"></polygon><polygon points="560.54 237.57 561.74 239.24 559.79 239.24 559.68 237.57 560.54 237.57" style="fill:#263238"></polygon><path d="M550.62,244.41a1.72,1.72,0,0,1-1.72-1.72v-3.43a1.72,1.72,0,0,1,3.44,0v3.43A1.72,1.72,0,0,1,550.62,244.41Zm0-6.37a1.22,1.22,0,0,0-1.22,1.22v3.43a1.22,1.22,0,1,0,2.44,0v-3.43A1.22,1.22,0,0,0,550.62,238Z" style="fill:#263238"></path><path d="M523.23,244.41a1.72,1.72,0,0,1-1.72-1.72v-3.43a1.72,1.72,0,0,1,3.44,0v3.43A1.72,1.72,0,0,1,523.23,244.41Zm0-6.37a1.22,1.22,0,0,0-1.22,1.22v3.43a1.22,1.22,0,0,0,2.44,0v-3.43A1.22,1.22,0,0,0,523.23,238Z" style="fill:#263238"></path><path d="M512.08,236.85a1.72,1.72,0,0,1-1.72-1.72v-2.62a1.72,1.72,0,1,1,3.43,0v2.62A1.72,1.72,0,0,1,512.08,236.85Zm0-5.56a1.22,1.22,0,0,0-1.22,1.22v2.62a1.22,1.22,0,1,0,2.43,0v-2.62A1.22,1.22,0,0,0,512.08,231.29Z" style="fill:#263238"></path><path d="M459.4,236.85a1.73,1.73,0,0,1-1.72-1.72v-2.62a1.72,1.72,0,0,1,3.44,0v2.62A1.72,1.72,0,0,1,459.4,236.85Zm0-5.56a1.22,1.22,0,0,0-1.22,1.22v2.62a1.22,1.22,0,0,0,2.44,0v-2.62A1.22,1.22,0,0,0,459.4,231.29Z" style="fill:#263238"></path><path d="M435.48,236.85a1.73,1.73,0,0,1-1.72-1.72v-2.62a1.72,1.72,0,1,1,3.44,0v2.62A1.72,1.72,0,0,1,435.48,236.85Zm0-5.56a1.22,1.22,0,0,0-1.22,1.22v2.62a1.22,1.22,0,1,0,2.44,0v-2.62A1.22,1.22,0,0,0,435.48,231.29Z" style="fill:#263238"></path><path d="M447.13,244.41a1.72,1.72,0,0,1-1.71-1.72v-3.43a1.72,1.72,0,1,1,3.43,0v3.43A1.72,1.72,0,0,1,447.13,244.41Zm0-6.37a1.22,1.22,0,0,0-1.21,1.22v3.43a1.22,1.22,0,1,0,2.43,0v-3.43A1.22,1.22,0,0,0,447.13,238Z" style="fill:#263238"></path><path d="M480.1,244.41a1.72,1.72,0,0,1-1.72-1.72v-3.43a1.72,1.72,0,1,1,3.44,0v3.43A1.72,1.72,0,0,1,480.1,244.41Zm0-6.37a1.22,1.22,0,0,0-1.22,1.22v3.43a1.22,1.22,0,1,0,2.44,0v-3.43A1.22,1.22,0,0,0,480.1,238Z" style="fill:#263238"></path><path d="M518.81,246.67s-5.82-1.89-8.8-2.52-43.56-2.83-44.66-2.83-38.05.79-38.05.79l-4.25-1.57v5.7l4.36-3.14,13.59.25,26.75,7.12h44.36S518.62,247.75,518.81,246.67Z" style="fill:#fff"></path><path d="M512.21,251H467.62l-26.69-7.12-13.37-.24-5,3.62v-7.4l4.83,1.79c2.51-.06,36.89-.79,38-.79.31,0,41.42,2.14,44.76,2.84,3,.63,8.62,2.46,8.85,2.53l.42.14-.08.42c-.2,1.18-4.47,3.13-7,4.18Zm-44.4-1H512a34.08,34.08,0,0,0,6-3.05c-1.62-.51-5.74-1.79-8.07-2.28-3.1-.65-44.24-2.82-44.55-2.82-1,0-34.59.71-37.8.78l13.58.26Zm-44.26-8.72v4l3.68-2.66h0Z" style="fill:#263238"></path><path d="M518.81,246.67c-.19,1.08-6.7,3.8-6.7,3.8H467.75L441,243.35l24.06-.68Z" style="fill:#263238"></path><path d="M512.21,251H467.62l-30.07-8,27.5-.77,54.35,4-.1.54c-.2,1.18-4.47,3.13-7,4.18Zm-44.4-1H512a38,38,0,0,0,5.73-2.88L465,243.16l-20.57.59Z" style="fill:#263238"></path><path d="M484.27,244.63v10.19s-11.07.29-17.64-2.84v-5.69S476.72,243.25,484.27,244.63Z" style="fill:#b0b0b0"></path><path d="M483.41,255.33c-2.77,0-11.4-.23-17-2.9l-.28-.14v-6.37l.36-.11c.41-.12,10.29-3.05,17.87-1.68l.41.08v11.1h-1.36Zm-16.28-3.67c5.63,2.55,14.48,2.67,16.64,2.66v-9.27c-6.49-1-14.83,1.12-16.64,1.62Z" style="fill:#263238"></path><path d="M467.61,252.4c-.33-.13-.66-.27-1-.42v-5.69l1-.27Z" style="fill:#fff"></path><path d="M468.11,253.14l-.69-.27-1-.44-.28-.14v-6.37l.36-.11s.36-.11,1-.27l.63-.17Z" style="fill:#263238"></path><path d="M506.71,244.63v10.19s-11.07.29-17.64-2.84v-5.69S499.17,243.25,506.71,244.63Z" style="fill:#b0b0b0"></path><path d="M505.85,255.33c-2.77,0-11.4-.23-17-2.9l-.29-.14v-6.37l.36-.11c.42-.12,10.29-3.05,17.87-1.68l.41.08v11.1h-1.36Zm-16.28-3.67c5.63,2.55,14.47,2.68,16.64,2.66v-9.27c-6.49-1-14.83,1.12-16.64,1.62Z" style="fill:#263238"></path><path d="M490.05,252.4c-.33-.13-.66-.27-1-.42v-5.69l1-.27Z" style="fill:#fff"></path><path d="M490.55,253.14l-.68-.27c-.35-.14-.69-.29-1-.44l-.29-.14v-6.37l.36-.11s.36-.11,1-.27l.62-.17Z" style="fill:#263238"></path><path d="M545.81,240.78a.44.44,0,0,0,.43.44.44.44,0,1,0,0-.87A.43.43,0,0,0,545.81,240.78Z" style="fill:#263238"></path><path d="M544.32,240.78a.44.44,0,1,0,.43-.43A.44.44,0,0,0,544.32,240.78Z" style="fill:#263238"></path><path d="M542.83,240.78a.44.44,0,0,0,.44.44.44.44,0,0,0,0-.87A.44.44,0,0,0,542.83,240.78Z" style="fill:#263238"></path><path d="M541.35,240.78a.43.43,0,1,0,.43-.43A.44.44,0,0,0,541.35,240.78Z" style="fill:#263238"></path><path d="M539.86,240.78a.44.44,0,0,0,.43.44.44.44,0,1,0,0-.87A.43.43,0,0,0,539.86,240.78Z" style="fill:#263238"></path><path d="M538.37,240.78a.44.44,0,0,0,.44.44.44.44,0,0,0,0-.87A.44.44,0,0,0,538.37,240.78Z" style="fill:#263238"></path><path d="M536.89,240.78a.43.43,0,1,0,.43-.43A.44.44,0,0,0,536.89,240.78Z" style="fill:#263238"></path><path d="M535.4,240.78a.44.44,0,0,0,.43.44.44.44,0,1,0,0-.87A.43.43,0,0,0,535.4,240.78Z" style="fill:#263238"></path><path d="M533.91,240.78a.44.44,0,0,0,.43.44.44.44,0,1,0,0-.87A.43.43,0,0,0,533.91,240.78Z" style="fill:#263238"></path><path d="M532.42,240.78a.44.44,0,0,0,.44.44.44.44,0,0,0,0-.87A.44.44,0,0,0,532.42,240.78Z" style="fill:#263238"></path><path d="M530.94,240.78a.43.43,0,1,0,.43-.43A.44.44,0,0,0,530.94,240.78Z" style="fill:#263238"></path><path d="M529.45,240.78a.44.44,0,0,0,.43.44.44.44,0,1,0,0-.87A.43.43,0,0,0,529.45,240.78Z" style="fill:#263238"></path><path d="M528,240.78a.44.44,0,0,0,.44.44.44.44,0,0,0,0-.87A.44.44,0,0,0,528,240.78Z" style="fill:#263238"></path><path d="M526.47,240.78a.44.44,0,0,0,.44.44.44.44,0,0,0,0-.87A.44.44,0,0,0,526.47,240.78Z" style="fill:#263238"></path><path d="M513.52,240.78a.44.44,0,0,0,.44.44.44.44,0,0,0,0-.87A.44.44,0,0,0,513.52,240.78Z" style="fill:#263238"></path><path d="M511.6,240.78a.44.44,0,0,0,.44.44.44.44,0,0,0,0-.87A.44.44,0,0,0,511.6,240.78Z" style="fill:#263238"></path><path d="M509.68,240.78a.44.44,0,1,0,.44-.43A.44.44,0,0,0,509.68,240.78Z" style="fill:#263238"></path><path d="M507.76,240.78a.44.44,0,0,0,.43.44.44.44,0,1,0,0-.87A.43.43,0,0,0,507.76,240.78Z" style="fill:#263238"></path><path d="M505.84,240.78a.44.44,0,0,0,.43.44.44.44,0,1,0,0-.87A.43.43,0,0,0,505.84,240.78Z" style="fill:#263238"></path><path d="M503.92,240.78a.44.44,0,0,0,.43.44.44.44,0,1,0,0-.87A.43.43,0,0,0,503.92,240.78Z" style="fill:#263238"></path><path d="M502,240.78a.44.44,0,0,0,.43.44.44.44,0,1,0,0-.87A.43.43,0,0,0,502,240.78Z" style="fill:#263238"></path><path d="M500.08,240.78a.43.43,0,1,0,.43-.43A.44.44,0,0,0,500.08,240.78Z" style="fill:#263238"></path><path d="M498.16,240.78a.43.43,0,1,0,.43-.43A.44.44,0,0,0,498.16,240.78Z" style="fill:#263238"></path><path d="M496.23,240.78a.44.44,0,0,0,.44.44.44.44,0,0,0,0-.87A.44.44,0,0,0,496.23,240.78Z" style="fill:#263238"></path><path d="M494.31,240.78a.44.44,0,0,0,.44.44.44.44,0,0,0,0-.87A.44.44,0,0,0,494.31,240.78Z" style="fill:#263238"></path><path d="M492.39,240.78a.44.44,0,0,0,.44.44.44.44,0,0,0,0-.87A.44.44,0,0,0,492.39,240.78Z" style="fill:#263238"></path><path d="M490.47,240.78a.44.44,0,0,0,.44.44.44.44,0,0,0,0-.87A.44.44,0,0,0,490.47,240.78Z" style="fill:#263238"></path><path d="M488.55,240.78a.44.44,0,1,0,.43-.43A.44.44,0,0,0,488.55,240.78Z" style="fill:#263238"></path><path d="M486.63,240.78a.44.44,0,0,0,.43.44.44.44,0,1,0,0-.87A.43.43,0,0,0,486.63,240.78Z" style="fill:#263238"></path><path d="M484.71,240.78a.44.44,0,0,0,.43.44.44.44,0,1,0,0-.87A.43.43,0,0,0,484.71,240.78Z" style="fill:#263238"></path><path d="M482.79,240.78a.44.44,0,0,0,.43.44.44.44,0,1,0,0-.87A.43.43,0,0,0,482.79,240.78Z" style="fill:#263238"></path><path d="M506.15,233.41a.43.43,0,0,0,.43.43.43.43,0,1,0,0-.86A.43.43,0,0,0,506.15,233.41Z" style="fill:#263238"></path><path d="M504.23,233.41a.43.43,0,0,0,.43.43.43.43,0,1,0,0-.86A.43.43,0,0,0,504.23,233.41Z" style="fill:#263238"></path><circle cx="502.74" cy="233.41" r="0.43" style="fill:#263238"></circle><path d="M500.39,233.41a.43.43,0,1,0,.43-.43A.43.43,0,0,0,500.39,233.41Z" style="fill:#263238"></path><path d="M498.47,233.41a.43.43,0,1,0,.43-.43A.43.43,0,0,0,498.47,233.41Z" style="fill:#263238"></path><circle cx="496.98" cy="233.41" r="0.43" style="fill:#263238"></circle><path d="M494.62,233.41a.44.44,0,0,0,.44.43.43.43,0,0,0,0-.86A.44.44,0,0,0,494.62,233.41Z" style="fill:#263238"></path><path d="M492.7,233.41a.44.44,0,0,0,.44.43.43.43,0,0,0,0-.86A.44.44,0,0,0,492.7,233.41Z" style="fill:#263238"></path><circle cx="491.22" cy="233.41" r="0.43" style="fill:#263238"></circle><circle cx="489.29" cy="233.41" r="0.43" style="fill:#263238"></circle><path d="M486.94,233.41a.43.43,0,0,0,.43.43.43.43,0,1,0,0-.86A.43.43,0,0,0,486.94,233.41Z" style="fill:#263238"></path><path d="M485,233.41a.43.43,0,0,0,.43.43.43.43,0,1,0,0-.86A.43.43,0,0,0,485,233.41Z" style="fill:#263238"></path><circle cx="483.53" cy="233.41" r="0.43" style="fill:#263238"></circle><path d="M481.18,233.41a.43.43,0,1,0,.43-.43A.43.43,0,0,0,481.18,233.41Z" style="fill:#263238"></path><path d="M479.26,233.41a.43.43,0,1,0,.43-.43A.43.43,0,0,0,479.26,233.41Z" style="fill:#263238"></path><circle cx="477.77" cy="233.41" r="0.43" style="fill:#263238"></circle><path d="M475.41,233.41a.44.44,0,0,0,.44.43.43.43,0,0,0,0-.86A.44.44,0,0,0,475.41,233.41Z" style="fill:#263238"></path><path d="M473.31,233.41a.43.43,0,1,0,.43-.43A.43.43,0,0,0,473.31,233.41Z" style="fill:#263238"></path><path d="M471.2,233.41a.43.43,0,0,0,.43.43.43.43,0,1,0,0-.86A.43.43,0,0,0,471.2,233.41Z" style="fill:#263238"></path><path d="M469.09,233.41a.44.44,0,0,0,.44.43.43.43,0,1,0,0-.86A.44.44,0,0,0,469.09,233.41Z" style="fill:#263238"></path><path d="M467,233.41a.43.43,0,1,0,.43-.43A.43.43,0,0,0,467,233.41Z" style="fill:#263238"></path><path d="M464.88,233.41a.43.43,0,0,0,.43.43.43.43,0,1,0,0-.86A.43.43,0,0,0,464.88,233.41Z" style="fill:#263238"></path><circle cx="463.21" cy="233.41" r="0.43" style="fill:#263238"></circle><path d="M475,240.78a.44.44,0,0,0,.43.44.44.44,0,1,0,0-.87A.43.43,0,0,0,475,240.78Z" style="fill:#263238"></path><path d="M473.31,240.78a.43.43,0,1,0,.43-.43A.44.44,0,0,0,473.31,240.78Z" style="fill:#263238"></path><path d="M471.63,240.78a.44.44,0,0,0,.44.44.44.44,0,0,0,0-.87A.44.44,0,0,0,471.63,240.78Z" style="fill:#263238"></path><path d="M470,240.78a.44.44,0,1,0,.43-.43A.44.44,0,0,0,470,240.78Z" style="fill:#263238"></path><path d="M468.29,240.78a.44.44,0,0,0,.43.44.44.44,0,1,0,0-.87A.43.43,0,0,0,468.29,240.78Z" style="fill:#263238"></path><path d="M466.61,240.78a.44.44,0,0,0,.44.44.44.44,0,0,0,0-.87A.44.44,0,0,0,466.61,240.78Z" style="fill:#263238"></path><path d="M464.94,240.78a.44.44,0,1,0,.44-.43A.44.44,0,0,0,464.94,240.78Z" style="fill:#263238"></path><path d="M463.27,240.78a.44.44,0,0,0,.43.44.44.44,0,1,0,0-.87A.43.43,0,0,0,463.27,240.78Z" style="fill:#263238"></path><path d="M461.6,240.78a.43.43,0,1,0,.43-.43A.44.44,0,0,0,461.6,240.78Z" style="fill:#263238"></path><path d="M459.92,240.78a.44.44,0,0,0,.44.44.44.44,0,0,0,0-.87A.44.44,0,0,0,459.92,240.78Z" style="fill:#263238"></path><path d="M458.25,240.78a.44.44,0,0,0,.43.44.44.44,0,1,0,0-.87A.43.43,0,0,0,458.25,240.78Z" style="fill:#263238"></path><path d="M456.58,240.78a.43.43,0,1,0,.43-.43A.44.44,0,0,0,456.58,240.78Z" style="fill:#263238"></path><path d="M454.9,240.78a.44.44,0,0,0,.44.44.44.44,0,0,0,0-.87A.44.44,0,0,0,454.9,240.78Z" style="fill:#263238"></path><path d="M453.23,240.78a.44.44,0,0,0,.43.44.44.44,0,1,0,0-.87A.43.43,0,0,0,453.23,240.78Z" style="fill:#263238"></path><path d="M441.15,240.78a.43.43,0,1,0,.43-.43A.44.44,0,0,0,441.15,240.78Z" style="fill:#263238"></path><path d="M439.29,240.78a.43.43,0,1,0,.43-.43A.44.44,0,0,0,439.29,240.78Z" style="fill:#263238"></path><path d="M437.43,240.78a.44.44,0,0,0,.43.44.44.44,0,1,0,0-.87A.43.43,0,0,0,437.43,240.78Z" style="fill:#263238"></path><path d="M435.57,240.78a.44.44,0,0,0,.43.44.44.44,0,1,0,0-.87A.43.43,0,0,0,435.57,240.78Z" style="fill:#263238"></path><path d="M433.71,240.78a.44.44,0,0,0,.43.44.44.44,0,1,0,0-.87A.43.43,0,0,0,433.71,240.78Z" style="fill:#263238"></path><path d="M431.85,240.78a.44.44,0,1,0,.44-.43A.44.44,0,0,0,431.85,240.78Z" style="fill:#263238"></path><path d="M430,240.78a.44.44,0,0,0,.44.44.44.44,0,0,0,0-.87A.44.44,0,0,0,430,240.78Z" style="fill:#263238"></path><path d="M428.13,240.78a.44.44,0,0,0,.44.44.44.44,0,0,0,0-.87A.44.44,0,0,0,428.13,240.78Z" style="fill:#263238"></path><path d="M452.49,233.41a.43.43,0,1,0,.43-.43A.43.43,0,0,0,452.49,233.41Z" style="fill:#263238"></path><path d="M450.63,233.41a.43.43,0,1,0,.43-.43A.43.43,0,0,0,450.63,233.41Z" style="fill:#263238"></path><path d="M448.77,233.41a.43.43,0,0,0,.43.43.43.43,0,1,0,0-.86A.43.43,0,0,0,448.77,233.41Z" style="fill:#263238"></path><path d="M446.91,233.41a.43.43,0,0,0,.43.43.43.43,0,1,0,0-.86A.43.43,0,0,0,446.91,233.41Z" style="fill:#263238"></path><path d="M445.05,233.41a.43.43,0,0,0,.43.43.43.43,0,1,0,0-.86A.43.43,0,0,0,445.05,233.41Z" style="fill:#263238"></path><path d="M443.19,233.41a.44.44,0,1,0,.44-.43A.44.44,0,0,0,443.19,233.41Z" style="fill:#263238"></path><path d="M441.33,233.41a.44.44,0,0,0,.44.43.43.43,0,1,0,0-.86A.44.44,0,0,0,441.33,233.41Z" style="fill:#263238"></path><path d="M439.47,233.41a.44.44,0,0,0,.44.43.43.43,0,0,0,0-.86A.44.44,0,0,0,439.47,233.41Z" style="fill:#263238"></path><path d="M431.17,233.41a.43.43,0,0,0,.43.43.43.43,0,1,0,0-.86A.43.43,0,0,0,431.17,233.41Z" style="fill:#263238"></path><path d="M429.31,233.41a.43.43,0,0,0,.43.43.43.43,0,1,0,0-.86A.43.43,0,0,0,429.31,233.41Z" style="fill:#263238"></path><path d="M427.45,233.41a.44.44,0,0,0,.44.43.43.43,0,0,0,0-.86A.44.44,0,0,0,427.45,233.41Z" style="fill:#263238"></path><path d="M425.59,233.41a.44.44,0,0,0,.44.43.43.43,0,1,0,0-.86A.44.44,0,0,0,425.59,233.41Z" style="fill:#263238"></path><path d="M423.73,233.41a.44.44,0,0,0,.44.43.43.43,0,0,0,0-.86A.44.44,0,0,0,423.73,233.41Z" style="fill:#263238"></path><path d="M532.36,233.41a.44.44,0,1,0,.44-.43A.44.44,0,0,0,532.36,233.41Z" style="fill:#263238"></path><path d="M530.5,233.41a.44.44,0,0,0,.44.43.43.43,0,0,0,0-.86A.44.44,0,0,0,530.5,233.41Z" style="fill:#263238"></path><path d="M528.64,233.41a.44.44,0,0,0,.44.43.43.43,0,0,0,0-.86A.44.44,0,0,0,528.64,233.41Z" style="fill:#263238"></path><path d="M526.78,233.41a.44.44,0,0,0,.44.43.43.43,0,0,0,0-.86A.44.44,0,0,0,526.78,233.41Z" style="fill:#263238"></path><path d="M524.93,233.41a.43.43,0,1,0,.43-.43A.43.43,0,0,0,524.93,233.41Z" style="fill:#263238"></path><path d="M553.14,255.75a1.38,1.38,0,1,0,1.38-1.38A1.38,1.38,0,0,0,553.14,255.75Z" style="fill:#263238"></path><path d="M554.52,257.63a1.88,1.88,0,1,1,1.88-1.88A1.88,1.88,0,0,1,554.52,257.63Zm0-2.75a.88.88,0,1,0,.88.87A.88.88,0,0,0,554.52,254.88Z" style="fill:#263238"></path><circle cx="554.52" cy="255.75" r="0.69" style="fill:#fff"></circle><path d="M554.52,256.94a1.19,1.19,0,1,1,1.19-1.19A1.19,1.19,0,0,1,554.52,256.94Zm0-1.38a.2.2,0,0,0-.19.19c0,.21.38.21.38,0A.19.19,0,0,0,554.52,255.56Z" style="fill:#263238"></path><polygon points="556.9 250.09 556.9 251.31 553.99 251.31 555.21 254.3 554.52 254.3 553.83 252.69 552.91 252.69 553.68 254.53 553.14 255.14 551.3 250.47 552.84 250.47 556.9 250.09" style="fill:#263238"></polygon><path d="M553,256.09,550.57,250h2.27l4.56-.43v2.27h-2.67l1.23,3h-1.77l0-.07Zm-.46-3.9h1.29l-.52-1.26-.41,0H552Zm2-1.38h1.87v-.18Z" style="fill:#263238"></path><circle cx="394.96" cy="214.41" r="7.01" style="fill:#fff"></circle><path d="M395,221.93a7.52,7.52,0,1,1,7.52-7.52A7.53,7.53,0,0,1,395,221.93Zm0-14a6.52,6.52,0,1,0,6.52,6.51A6.52,6.52,0,0,0,395,207.9Z" style="fill:#263238"></path></g><g id="airplane-2"><path d="M649.07,382.17c0,2.54-80.23,4.59-179.2,4.59s-179.2-2.05-179.2-4.59,80.23-4.58,179.2-4.58S649.07,379.64,649.07,382.17Z" style="fill:#263238"></path><polygon points="496.24 370.08 489.31 373.03 489.23 375.11 492.73 376.21 492.73 380.14 490.35 380.14 490.35 377.97 485.22 377.97 485.22 380.14 481.08 380.14 481.08 376.34 484.72 374.96 484.72 372.71 477.33 369.71 496.24 370.08" style="fill:#263238"></polygon><path d="M493.23,380.64h-3.38v-2.17h-4.13v2.17h-5.14V376l3.64-1.37v-1.57l-9.57-3.9,23.93.48-8.78,3.73-.06,1.38,3.49,1.11Zm-2.38-1h1.38v-3.06l-3.52-1.11.11-2.78,5.07-2.15L480,370.26l5.2,2.11v2.94l-3.64,1.38v2.95h3.14v-2.17h6.13Z" style="fill:#263238"></path><circle cx="493.06" cy="380.14" r="2.71" style="fill:#263238"></circle><path d="M493.06,383.35a3.21,3.21,0,1,1,3.21-3.21A3.21,3.21,0,0,1,493.06,383.35Zm0-5.42a2.21,2.21,0,1,0,2.21,2.21A2.21,2.21,0,0,0,493.06,377.93Z" style="fill:#263238"></path><circle cx="493.06" cy="380.14" r="1.35" style="fill:#fff"></circle><path d="M493.06,382a1.86,1.86,0,1,1,1.86-1.86A1.85,1.85,0,0,1,493.06,382Zm0-2.71a.85.85,0,0,0-.85.85.86.86,0,1,0,.85-.85Z" style="fill:#263238"></path><circle cx="482.84" cy="380.14" r="2.71" style="fill:#263238"></circle><path d="M482.84,383.35a3.21,3.21,0,1,1,3.2-3.21A3.21,3.21,0,0,1,482.84,383.35Zm0-5.42a2.21,2.21,0,1,0,2.2,2.21A2.21,2.21,0,0,0,482.84,377.93Z" style="fill:#263238"></path><circle cx="482.84" cy="380.14" r="1.35" style="fill:#fff"></circle><path d="M482.84,382a1.86,1.86,0,1,1,1.85-1.86A1.86,1.86,0,0,1,482.84,382Zm0-2.71a.86.86,0,1,0,.85.85A.85.85,0,0,0,482.84,379.29Z" style="fill:#263238"></path><path d="M313.26,335.75s-7.72,3.7-11.74,7.1-9.57,8-11.42,11.73.31,7.72,4.32,10.5,23.78,4.94,25.32,4.63,185.26,0,185.26,0l120.42-17,28.71-9.26.62-7.1s7.1-3.09,5.87-3.71-23.78,0-23.78,0l-69.47-7.41H354S328.69,326.18,313.26,335.75Z" style="fill:#fff"></path><path d="M319.17,370.24c-3.87,0-21.21-2.1-25-4.75-4.61-3.19-6.33-7.45-4.49-11.13s7.23-8.24,11.17-11.57l.38-.32c3.94-3.34,11.25-6.89,11.81-7.16,15.38-9.52,40.73-10.55,41-10.56H567.37l69.52,7.41c5.25-.15,22.7-.57,24,0a.71.71,0,0,1,.42.66c0,.8-2,2.08-6,3.83l-.62,7.14-29,9.37-120.5,17h0c-3,0-182.65-.3-185.22,0A4.89,4.89,0,0,1,319.17,370.24Zm248.15-44.49H354c-.23,0-25.34,1-40.49,10.42l0,0c-.07,0-7.71,3.72-11.62,7l-.38.32c-3.87,3.28-9.18,7.76-10.92,11.26-1.92,3.82.89,7.6,4.16,9.86,4,2.75,23.53,4.84,24.93,4.55,1.55-.31,166.55,0,185.36,0l120.35-17,28.31-9.15.62-7.06.27-.12A33.44,33.44,0,0,0,660,333c-2.51-.3-15.2-.1-23.17.12Z" style="fill:#263238"></path><polygon points="567.37 325.25 577.25 323.71 644.56 257.94 669.57 256.4 636.84 332.66 567.37 325.25" style="fill:#92E3A9"></polygon><path d="M637.15,333.2l-73.62-7.86,13.48-2.1,67.33-65.79,26-1.6Zm-65.94-8,65.32,7,32.26-75.18-24,1.49-67.3,65.75Z" style="fill:#263238"></path><path d="M650.12,336.67l-54.35,3.4a8.18,8.18,0,0,0,3.4,3.09c2.16.92,30.88,1.23,34,.92s38.28-6.79,38.28-6.79Z" style="fill:#263238"></path><path d="M626.75,344.69c-9.5,0-26-.32-27.78-1.07a8.61,8.61,0,0,1-3.63-3.3l-.4-.7,55.19-3.45,26,.76-4.64.85c-1.44.27-35.25,6.5-38.32,6.8C632.46,344.65,630,344.69,626.75,344.69Zm-30.06-4.18a7.11,7.11,0,0,0,2.68,2.19c1.89.81,30.32,1.23,33.72.89,2.35-.24,23.91-4.16,33.59-5.94l-16.55-.48Z" style="fill:#263238"></path><path d="M650.9,336.7l-.78,0-54.35,3.4a8.18,8.18,0,0,0,3.4,3.09L652.59,337Z" style="fill:#fff"></path><path d="M599.1,343.67l-.13-.05a8.61,8.61,0,0,1-3.63-3.3l-.4-.7,55.15-3.44.89,0,5.16.88Zm-2.41-3.16a7.16,7.16,0,0,0,2.56,2.14l43.18-5Z" style="fill:#263238"></path><polygon points="305.73 347.71 308.3 347.71 306.95 344.43 305.95 344.43 305.73 347.71" style="fill:#263238"></polygon><polygon points="302.02 344.43 300.22 344.43 295.98 347.71 299.67 347.71 302.02 344.43" style="fill:#263238"></polygon><polygon points="303.25 344.43 300.9 347.71 304.73 347.71 304.95 344.43 303.25 344.43" style="fill:#263238"></polygon><path d="M324,357.63h-2.6a1.85,1.85,0,0,1-1.84-1.84v-9.33a1.84,1.84,0,0,1,1.84-1.83H324a1.83,1.83,0,0,1,1.83,1.83v9.33A1.84,1.84,0,0,1,324,357.63Zm-2.6-12.5a1.34,1.34,0,0,0-1.34,1.33v9.33a1.34,1.34,0,0,0,1.34,1.34H324a1.34,1.34,0,0,0,1.33-1.34v-9.33a1.34,1.34,0,0,0-1.33-1.33Z" style="fill:#263238"></path><path d="M377.82,357.63h-2.6a1.84,1.84,0,0,1-1.83-1.84v-9.33a1.83,1.83,0,0,1,1.83-1.83h2.6a1.84,1.84,0,0,1,1.84,1.83v9.33A1.85,1.85,0,0,1,377.82,357.63Zm-2.6-12.5a1.34,1.34,0,0,0-1.33,1.33v9.33a1.34,1.34,0,0,0,1.33,1.34h2.6a1.34,1.34,0,0,0,1.34-1.34v-9.33a1.34,1.34,0,0,0-1.34-1.33Z" style="fill:#263238"></path><path d="M399.72,342.78h-2.59a1.84,1.84,0,0,1-1.84-1.84V333.2a1.83,1.83,0,0,1,1.84-1.83h2.59a1.83,1.83,0,0,1,1.84,1.83v7.74A1.84,1.84,0,0,1,399.72,342.78Zm-2.59-10.91a1.34,1.34,0,0,0-1.34,1.33v7.74a1.34,1.34,0,0,0,1.34,1.34h2.59a1.34,1.34,0,0,0,1.34-1.34V333.2a1.34,1.34,0,0,0-1.34-1.33Z" style="fill:#263238"></path><path d="M503.15,342.78h-2.59a1.84,1.84,0,0,1-1.84-1.84V333.2a1.83,1.83,0,0,1,1.84-1.83h2.59A1.83,1.83,0,0,1,505,333.2v7.74A1.84,1.84,0,0,1,503.15,342.78Zm-2.59-10.91a1.34,1.34,0,0,0-1.34,1.33v7.74a1.34,1.34,0,0,0,1.34,1.34h2.59a1.34,1.34,0,0,0,1.34-1.34V333.2a1.34,1.34,0,0,0-1.34-1.33Z" style="fill:#263238"></path><path d="M550.12,342.78h-2.59a1.84,1.84,0,0,1-1.84-1.84V333.2a1.83,1.83,0,0,1,1.84-1.83h2.59A1.84,1.84,0,0,1,552,333.2v7.74A1.84,1.84,0,0,1,550.12,342.78Zm-2.59-10.91a1.34,1.34,0,0,0-1.34,1.33v7.74a1.34,1.34,0,0,0,1.34,1.34h2.59a1.34,1.34,0,0,0,1.34-1.34V333.2a1.34,1.34,0,0,0-1.34-1.33Z" style="fill:#263238"></path><path d="M527.25,357.63h-2.6a1.85,1.85,0,0,1-1.84-1.84v-9.33a1.84,1.84,0,0,1,1.84-1.83h2.6a1.83,1.83,0,0,1,1.83,1.83v9.33A1.84,1.84,0,0,1,527.25,357.63Zm-2.6-12.5a1.34,1.34,0,0,0-1.34,1.33v9.33a1.34,1.34,0,0,0,1.34,1.34h2.6a1.34,1.34,0,0,0,1.33-1.34v-9.33a1.34,1.34,0,0,0-1.33-1.33Z" style="fill:#263238"></path><path d="M462.51,357.63h-2.59a1.84,1.84,0,0,1-1.84-1.84v-9.33a1.83,1.83,0,0,1,1.84-1.83h2.59a1.84,1.84,0,0,1,1.84,1.83v9.33A1.85,1.85,0,0,1,462.51,357.63Zm-2.59-12.5a1.34,1.34,0,0,0-1.34,1.33v9.33a1.34,1.34,0,0,0,1.34,1.34h2.59a1.34,1.34,0,0,0,1.34-1.34v-9.33a1.34,1.34,0,0,0-1.34-1.33Z" style="fill:#263238"></path><path d="M385.2,362.3s11.42-3.7,17.29-4.94,85.53-5.56,87.69-5.56,74.72,1.55,74.72,1.55l8.34-3.09v11.21l-8.55-6.17-26.7.48-52.52,14H398.35S385.56,364.42,385.2,362.3Z" style="fill:#fff"></path><path d="M485.53,370.27l-87.37,0c-3.06-1.28-13.07-5.62-13.45-7.84l-.08-.43.41-.13c.12,0,11.52-3.73,17.34-5,6.13-1.29,87.18-5.57,87.8-5.57,2.12,0,70.53,1.46,74.63,1.55l8.93-3.31v12.91l-9.21-6.65-26.47.48Zm-87.08-1H485.4l52.58-14,26.86-.49,7.9,5.7V351L565,353.85h-.09c-.73,0-72.58-1.55-74.71-1.55-.61,0-81.49,4.27-87.59,5.55-5,1.06-14.31,4-16.68,4.75C387.12,364,393,367,398.45,369.27Z" style="fill:#263238"></path><path d="M385.2,362.3c.36,2.12,13.15,7.47,13.15,7.47h87.12l52.52-14-47.25-1.34Z" style="fill:#263238"></path><path d="M485.53,370.27l-87.37,0c-3.06-1.28-13.07-5.62-13.46-7.84l-.09-.55,106.1-7.9,50.73,1.44Zm-87.08-1H485.4l49.13-13.09-43.8-1.24-104.68,7.8C387.51,364.19,393.2,367.07,398.45,369.27Z" style="fill:#263238"></path><path d="M453,358.29v20s21.75.57,34.64-5.59V361.56S467.84,355.6,453,358.29Z" style="fill:#b0b0b0"></path><path d="M454.38,378.82c-.85,0-1.34,0-1.37,0h-.49V357.87l.41-.07c14.77-2.69,34.68,3.22,34.88,3.28l.35.11V373l-.28.13C476.89,378.42,459.37,378.82,454.38,378.82Zm-.86-1c3.27,0,22,0,33.64-5.4V361.94c-2.7-.77-20.24-5.5-33.64-3.23Z" style="fill:#263238"></path><path d="M485.74,373.56q1-.39,1.92-.84V361.56s-.69-.21-1.92-.53Z" style="fill:#878787"></path><path d="M485.24,374.3V360.38l.63.17c1.23.32,1.94.53,1.94.53l.35.11V373l-.28.13c-.57.28-1.21.55-1.95.86Zm1-12.62v11.14l.92-.41V361.94Z" style="fill:#263238"></path><path d="M409,358.29v20s21.75.57,34.64-5.59V361.56S423.77,355.6,409,358.29Z" style="fill:#b0b0b0"></path><path d="M410.31,378.82c-.85,0-1.34,0-1.37,0h-.49V357.87l.41-.07c14.77-2.69,34.68,3.22,34.88,3.28l.35.11V373l-.28.13C432.82,378.42,415.3,378.82,410.31,378.82Zm-.86-1c3.27,0,22,0,33.64-5.4V361.94c-2.7-.77-20.24-5.5-33.64-3.23Z" style="fill:#263238"></path><path d="M441.67,373.56q1-.39,1.92-.84V361.56s-.69-.21-1.92-.53Z" style="fill:#878787"></path><path d="M441.17,374.3V360.38l.62.17c1.24.32,1.95.53,1.95.53l.35.11V373l-.28.13c-.63.31-1.29.59-1.95.86Zm1-12.62v11.14l.92-.41V361.94Z" style="fill:#263238"></path><circle cx="331.33" cy="350.75" r="0.85" style="fill:#263238"></circle><circle cx="334.25" cy="350.75" r="0.85" style="fill:#263238"></circle><circle cx="337.17" cy="350.75" r="0.85" style="fill:#263238"></circle><path d="M340.94,350.75a.85.85,0,1,1-.85-.85A.85.85,0,0,1,340.94,350.75Z" style="fill:#263238"></path><path d="M343.86,350.75a.85.85,0,1,1-.85-.85A.85.85,0,0,1,343.86,350.75Z" style="fill:#263238"></path><circle cx="345.93" cy="350.75" r="0.85" style="fill:#263238"></circle><circle cx="348.85" cy="350.75" r="0.85" style="fill:#263238"></circle><circle cx="351.77" cy="350.75" r="0.85" style="fill:#263238"></circle><circle cx="354.69" cy="350.75" r="0.85" style="fill:#263238"></circle><path d="M358.47,350.75a.86.86,0,1,1-.85-.85A.85.85,0,0,1,358.47,350.75Z" style="fill:#263238"></path><path d="M361.39,350.75a.86.86,0,1,1-.85-.85A.85.85,0,0,1,361.39,350.75Z" style="fill:#263238"></path><circle cx="363.46" cy="350.75" r="0.85" style="fill:#263238"></circle><circle cx="366.38" cy="350.75" r="0.85" style="fill:#263238"></circle><circle cx="369.3" cy="350.75" r="0.85" style="fill:#263238"></circle><path d="M395.58,350.75a.85.85,0,1,1-.85-.85A.85.85,0,0,1,395.58,350.75Z" style="fill:#263238"></path><circle cx="398.5" cy="350.75" r="0.85" style="fill:#263238"></circle><path d="M403.12,350.75a.85.85,0,1,1-.85-.85A.85.85,0,0,1,403.12,350.75Z" style="fill:#263238"></path><circle cx="406.04" cy="350.75" r="0.85" style="fill:#263238"></circle><circle cx="409.82" cy="350.75" r="0.85" style="fill:#263238"></circle><path d="M414.44,350.75a.85.85,0,1,1-.85-.85A.85.85,0,0,1,414.44,350.75Z" style="fill:#263238"></path><circle cx="417.36" cy="350.75" r="0.85" style="fill:#263238"></circle><path d="M422,350.75a.86.86,0,0,1-.86.85.85.85,0,0,1,0-1.7A.86.86,0,0,1,422,350.75Z" style="fill:#263238"></path><circle cx="424.91" cy="350.75" r="0.85" style="fill:#263238"></circle><path d="M429.53,350.75a.85.85,0,1,1-.85-.85A.85.85,0,0,1,429.53,350.75Z" style="fill:#263238"></path><path d="M433.3,350.75a.85.85,0,1,1-.85-.85A.85.85,0,0,1,433.3,350.75Z" style="fill:#263238"></path><path d="M437.07,350.75a.85.85,0,1,1-.85-.85A.85.85,0,0,1,437.07,350.75Z" style="fill:#263238"></path><path d="M440.85,350.75a.86.86,0,0,1-.86.85.85.85,0,0,1,0-1.7A.86.86,0,0,1,440.85,350.75Z" style="fill:#263238"></path><circle cx="443.77" cy="350.75" r="0.85" style="fill:#263238"></circle><path d="M448.39,350.75a.85.85,0,1,1-.85-.85A.85.85,0,0,1,448.39,350.75Z" style="fill:#263238"></path><circle cx="451.31" cy="350.75" r="0.85" style="fill:#263238"></circle><circle cx="455.08" cy="350.75" r="0.85" style="fill:#263238"></circle><path d="M410.06,336.27a.85.85,0,1,1-.85-.85A.85.85,0,0,1,410.06,336.27Z" style="fill:#263238"></path><path d="M413.83,336.27a.85.85,0,1,1-.85-.85A.85.85,0,0,1,413.83,336.27Z" style="fill:#263238"></path><path d="M417.6,336.27a.85.85,0,1,1-.85-.85A.85.85,0,0,1,417.6,336.27Z" style="fill:#263238"></path><path d="M421.38,336.27a.86.86,0,1,1-.86-.85A.85.85,0,0,1,421.38,336.27Z" style="fill:#263238"></path><path d="M425.15,336.27a.85.85,0,1,1-.85-.85A.85.85,0,0,1,425.15,336.27Z" style="fill:#263238"></path><path d="M428.92,336.27a.85.85,0,1,1-.85-.85A.85.85,0,0,1,428.92,336.27Z" style="fill:#263238"></path><path d="M432.69,336.27a.85.85,0,1,1-.85-.85A.85.85,0,0,1,432.69,336.27Z" style="fill:#263238"></path><path d="M436.47,336.27a.86.86,0,0,1-.86.85.85.85,0,1,1,0-1.7A.86.86,0,0,1,436.47,336.27Z" style="fill:#263238"></path><path d="M440.24,336.27a.85.85,0,0,1-.85.85.85.85,0,1,1,0-1.7A.85.85,0,0,1,440.24,336.27Z" style="fill:#263238"></path><path d="M444,336.27a.85.85,0,1,1-.85-.85A.85.85,0,0,1,444,336.27Z" style="fill:#263238"></path><path d="M447.78,336.27a.85.85,0,1,1-.85-.85A.85.85,0,0,1,447.78,336.27Z" style="fill:#263238"></path><path d="M451.55,336.27a.85.85,0,1,1-.85-.85A.85.85,0,0,1,451.55,336.27Z" style="fill:#263238"></path><path d="M455.33,336.27a.86.86,0,0,1-.86.85.85.85,0,1,1,0-1.7A.86.86,0,0,1,455.33,336.27Z" style="fill:#263238"></path><path d="M459.1,336.27a.85.85,0,0,1-.85.85.85.85,0,1,1,0-1.7A.85.85,0,0,1,459.1,336.27Z" style="fill:#263238"></path><path d="M462.87,336.27a.85.85,0,1,1-.85-.85A.85.85,0,0,1,462.87,336.27Z" style="fill:#263238"></path><path d="M466.64,336.27a.85.85,0,1,1-.85-.85A.85.85,0,0,1,466.64,336.27Z" style="fill:#263238"></path><path d="M470.41,336.27a.85.85,0,1,1-.85-.85A.85.85,0,0,1,470.41,336.27Z" style="fill:#263238"></path><path d="M474.55,336.27a.85.85,0,1,1-.85-.85A.85.85,0,0,1,474.55,336.27Z" style="fill:#263238"></path><path d="M478.69,336.27a.85.85,0,1,1-.85-.85A.85.85,0,0,1,478.69,336.27Z" style="fill:#263238"></path><path d="M482.83,336.27a.86.86,0,1,1-.86-.85A.85.85,0,0,1,482.83,336.27Z" style="fill:#263238"></path><path d="M487,336.27a.85.85,0,1,1-.85-.85A.85.85,0,0,1,487,336.27Z" style="fill:#263238"></path><path d="M491.1,336.27a.85.85,0,1,1-.85-.85A.85.85,0,0,1,491.1,336.27Z" style="fill:#263238"></path><path d="M495.24,336.27a.85.85,0,0,1-.85.85.85.85,0,1,1,0-1.7A.85.85,0,0,1,495.24,336.27Z" style="fill:#263238"></path><circle cx="470.41" cy="350.75" r="0.85" style="fill:#263238"></circle><circle cx="473.7" cy="350.75" r="0.85" style="fill:#263238"></circle><path d="M477.84,350.75a.85.85,0,0,1-.85.85.85.85,0,1,1,0-1.7A.85.85,0,0,1,477.84,350.75Z" style="fill:#263238"></path><circle cx="480.27" cy="350.75" r="0.85" style="fill:#263238"></circle><circle cx="483.56" cy="350.75" r="0.85" style="fill:#263238"></circle><path d="M487.69,350.75a.85.85,0,1,1-.85-.85A.85.85,0,0,1,487.69,350.75Z" style="fill:#263238"></path><path d="M491,350.75a.85.85,0,1,1-.85-.85A.85.85,0,0,1,491,350.75Z" style="fill:#263238"></path><circle cx="493.41" cy="350.75" r="0.85" style="fill:#263238"></circle><circle cx="496.7" cy="350.75" r="0.85" style="fill:#263238"></circle><path d="M500.84,350.75a.86.86,0,0,1-.86.85.85.85,0,0,1,0-1.7A.86.86,0,0,1,500.84,350.75Z" style="fill:#263238"></path><circle cx="503.27" cy="350.75" r="0.85" style="fill:#263238"></circle><circle cx="506.55" cy="350.75" r="0.85" style="fill:#263238"></circle><path d="M510.69,350.75a.85.85,0,1,1-.85-.85A.85.85,0,0,1,510.69,350.75Z" style="fill:#263238"></path><path d="M514,350.75a.86.86,0,1,1-.85-.85A.85.85,0,0,1,514,350.75Z" style="fill:#263238"></path><path d="M537.71,350.75a.86.86,0,0,1-.86.85.85.85,0,1,1,0-1.7A.86.86,0,0,1,537.71,350.75Z" style="fill:#263238"></path><path d="M541.36,350.75a.86.86,0,0,1-.86.85.85.85,0,0,1,0-1.7A.86.86,0,0,1,541.36,350.75Z" style="fill:#263238"></path><circle cx="544.15" cy="350.75" r="0.85" style="fill:#263238"></circle><circle cx="547.8" cy="350.75" r="0.85" style="fill:#263238"></circle><circle cx="551.46" cy="350.75" r="0.85" style="fill:#263238"></circle><path d="M556,350.75a.85.85,0,0,1-.85.85.85.85,0,1,1,0-1.7A.85.85,0,0,1,556,350.75Z" style="fill:#263238"></path><path d="M559.61,350.75a.85.85,0,0,1-.85.85.85.85,0,1,1,0-1.7A.85.85,0,0,1,559.61,350.75Z" style="fill:#263238"></path><circle cx="562.41" cy="350.75" r="0.85" style="fill:#263238"></circle><path d="M515.44,336.27a.85.85,0,0,1-.85.85.85.85,0,1,1,0-1.7A.85.85,0,0,1,515.44,336.27Z" style="fill:#263238"></path><path d="M519.09,336.27a.85.85,0,0,1-.85.85.85.85,0,1,1,0-1.7A.85.85,0,0,1,519.09,336.27Z" style="fill:#263238"></path><path d="M522.74,336.27a.85.85,0,0,1-.85.85.85.85,0,1,1,0-1.7A.85.85,0,0,1,522.74,336.27Z" style="fill:#263238"></path><path d="M526.39,336.27a.85.85,0,1,1-.85-.85A.85.85,0,0,1,526.39,336.27Z" style="fill:#263238"></path><path d="M530,336.27a.85.85,0,1,1-.85-.85A.85.85,0,0,1,530,336.27Z" style="fill:#263238"></path><path d="M533.69,336.27a.85.85,0,1,1-.85-.85A.85.85,0,0,1,533.69,336.27Z" style="fill:#263238"></path><path d="M537.34,336.27a.85.85,0,1,1-.85-.85A.85.85,0,0,1,537.34,336.27Z" style="fill:#263238"></path><path d="M541,336.27a.85.85,0,1,1-.85-.85A.85.85,0,0,1,541,336.27Z" style="fill:#263238"></path><path d="M557.3,336.27a.86.86,0,0,1-.86.85.85.85,0,0,1,0-1.7A.86.86,0,0,1,557.3,336.27Z" style="fill:#263238"></path><path d="M561,336.27a.86.86,0,1,1-.86-.85A.85.85,0,0,1,561,336.27Z" style="fill:#263238"></path><path d="M564.6,336.27a.86.86,0,1,1-.85-.85A.85.85,0,0,1,564.6,336.27Z" style="fill:#263238"></path><path d="M568.25,336.27a.85.85,0,0,1-.85.85.85.85,0,1,1,0-1.7A.85.85,0,0,1,568.25,336.27Z" style="fill:#263238"></path><path d="M571.9,336.27a.85.85,0,0,1-.85.85.85.85,0,1,1,0-1.7A.85.85,0,0,1,571.9,336.27Z" style="fill:#263238"></path><path d="M358.59,336.27a.85.85,0,1,1-.85-.85A.85.85,0,0,1,358.59,336.27Z" style="fill:#263238"></path><path d="M362.24,336.27a.85.85,0,1,1-.85-.85A.85.85,0,0,1,362.24,336.27Z" style="fill:#263238"></path><path d="M365.89,336.27a.85.85,0,1,1-.85-.85A.85.85,0,0,1,365.89,336.27Z" style="fill:#263238"></path><path d="M369.54,336.27a.85.85,0,1,1-.85-.85A.85.85,0,0,1,369.54,336.27Z" style="fill:#263238"></path><path d="M373.19,336.27a.85.85,0,1,1-.85-.85A.85.85,0,0,1,373.19,336.27Z" style="fill:#263238"></path><path d="M317.78,380.14a2.71,2.71,0,1,1-2.71-2.71A2.71,2.71,0,0,1,317.78,380.14Z" style="fill:#263238"></path><path d="M315.07,383.35a3.21,3.21,0,1,1,3.21-3.21A3.21,3.21,0,0,1,315.07,383.35Zm0-5.42a2.21,2.21,0,1,0,2.21,2.21A2.21,2.21,0,0,0,315.07,377.93Z" style="fill:#263238"></path><path d="M316.43,380.14a1.36,1.36,0,1,1-1.36-1.35A1.36,1.36,0,0,1,316.43,380.14Z" style="fill:#fff"></path><path d="M315.07,382a1.86,1.86,0,1,1,1.86-1.86A1.85,1.85,0,0,1,315.07,382Zm0-2.71a.85.85,0,0,0-.85.85.86.86,0,1,0,.85-.85Z" style="fill:#263238"></path><polygon points="310.41 369.01 310.41 371.42 316.12 371.42 313.72 377.29 315.07 377.29 316.43 374.13 318.23 374.13 316.73 377.74 317.78 378.94 321.39 369.76 318.38 369.76 310.41 369.01" style="fill:#263238"></polygon><path d="M317.94,379.89l-1.79-2.06,1.33-3.2h-.73l-1.35,3.15H313l2.41-5.86h-5.47v-3.46l8.52.8h3.69Zm-.63-2.25.3.35,3.05-7.73h-2.28l-7.47-.7v1.36h6l-2.41,5.86h.28l1.36-3.15H319Z" style="fill:#263238"></path><circle cx="628.39" cy="298.96" r="13.77" style="fill:#fff"></circle><path d="M628.39,313.23A14.27,14.27,0,1,1,642.66,299,14.28,14.28,0,0,1,628.39,313.23Zm0-27.54A13.27,13.27,0,1,0,641.66,299,13.28,13.28,0,0,0,628.39,285.69Z" style="fill:#263238"></path></g><g id="airplane-1"><polygon points="164.37 123.16 160.55 123.88 160.28 124.92 161.93 125.87 161.5 127.85 160.3 127.59 160.54 126.49 157.95 125.92 157.71 127.02 155.62 126.57 156.04 124.65 158.03 124.36 158.27 123.22 154.88 120.89 164.37 123.16" style="fill:#263238"></polygon><path d="M161.88,128.44,159.7,128l.24-1.1-1.61-.35-.24,1.1L155,127l.6-2.74,2-.3.1-.47-5.34-3.66,14.38,3.44-5.79,1.1-.1.36,1.63.94Zm-1-1.24.22,0,.25-1.13-1.66-1,.45-1.72,1.83-.35L157.39,122l1.44,1-.39,1.8-2,.29-.24,1.09,1.11.25.24-1.1,3.56.78Z" style="fill:#263238"></path><path d="M163,128.18a1.4,1.4,0,1,1-2.73-.59,1.39,1.39,0,0,1,1.66-1.07A1.4,1.4,0,0,1,163,128.18Z" style="fill:#263238"></path><path d="M161.67,129.78a1.84,1.84,0,0,1-.41,0,1.89,1.89,0,0,1-1.19-.83,1.86,1.86,0,0,1-.26-1.43,1.9,1.9,0,0,1,3.45-.62,1.94,1.94,0,0,1,.26,1.43,1.92,1.92,0,0,1-.83,1.19A1.89,1.89,0,0,1,161.67,129.78Zm0-2.79a.89.89,0,0,0-.87.7.86.86,0,0,0,.12.68.9.9,0,1,0,.94-1.36A.58.58,0,0,0,161.66,127Z" style="fill:#263238"></path><path d="M162.34,128a.7.7,0,0,1-.83.54.71.71,0,0,1-.53-.84.7.7,0,0,1,.83-.53A.69.69,0,0,1,162.34,128Z" style="fill:#fff"></path><path d="M161.66,129.08a1.07,1.07,0,0,1-.25,0,1.17,1.17,0,0,1-.76-.52,1.2,1.2,0,1,1,1.66.36A1.17,1.17,0,0,1,161.66,129.08Zm0-1.4a.2.2,0,0,0-.19.16.22.22,0,0,0,0,.15.23.23,0,0,0,.13.09.21.21,0,0,0,.24-.15h0a.21.21,0,0,0-.16-.24Z" style="fill:#263238"></path><path d="M157.87,127.06a1.4,1.4,0,0,1-2.73-.6,1.41,1.41,0,0,1,1.67-1.07A1.4,1.4,0,0,1,157.87,127.06Z" style="fill:#263238"></path><path d="M156.51,128.66a2,2,0,0,1-.41,0,1.88,1.88,0,0,1-1.19-.83,1.93,1.93,0,0,1-.26-1.43,1.9,1.9,0,0,1,2.26-1.44,1.89,1.89,0,0,1,1.45,2.25h0a1.9,1.9,0,0,1-.83,1.2A2,2,0,0,1,156.51,128.66Zm0-2.8a.9.9,0,0,0-.88.71.88.88,0,0,0,.12.67.9.9,0,0,0,.57.4.93.93,0,0,0,.67-.13.9.9,0,0,0,.39-.56h0a.91.91,0,0,0-.12-.68.9.9,0,0,0-.56-.39Z" style="fill:#263238"></path><path d="M157.19,126.91a.7.7,0,1,1-.53-.83A.7.7,0,0,1,157.19,126.91Z" style="fill:#fff"></path><path d="M156.51,128a1.15,1.15,0,0,1-.26,0,1.18,1.18,0,0,1-.75-.52,1.2,1.2,0,1,1,2.18-.4h0A1.21,1.21,0,0,1,156.51,128Zm0-1.4a.2.2,0,0,0-.2.16.22.22,0,0,0,.15.23.19.19,0,0,0,.24-.15.2.2,0,0,0-.15-.24Z" style="fill:#263238"></path><path d="M75.9,85.73A36.2,36.2,0,0,0,69.2,88c-2.39,1.27-5.7,3-7,4.66s-.7,3.92,1,5.77,11.44,5.1,12.25,5.11,93.4,20.38,93.4,20.38l62.57,4.68,15.49-1.51,1.1-3.51s3.92-.78,3.36-1.23-12-2.61-12-2.61l-34.21-11.38L97.6,84.92S84.74,82.6,75.9,85.73Z" style="fill:#fff"></path><path d="M231.45,129.12l-62.66-4.68c-31.77-7-92.08-20.21-93.4-20.38-.93,0-10.79-3.36-12.58-5.27-2.06-2.21-2.46-4.67-1-6.43s4.48-3.34,7-4.67l.22-.11a35.84,35.84,0,0,1,6.79-2.33c8.86-3.12,21.4-.92,21.93-.82l107.57,23.46,34.26,11.39c4.25.81,11.58,2.25,12.14,2.7a.63.63,0,0,1,.23.63c-.07.26-.18.73-3.51,1.42l-1.11,3.54ZM87.42,84.6a35.23,35.23,0,0,0-11.35,1.6l0,0a35,35,0,0,0-6.58,2.24l-.22.12c-2.3,1.21-5.44,2.88-6.68,4.41s-.32,3.69,1,5.11c1.55,1.67,11,4.9,11.9,5s78,17,93.48,20.39l62.51,4.67,15.07-1.48,1.09-3.48.29,0c.81-.17,1.73-.39,2.36-.59-2.05-.52-7.46-1.6-11-2.27L205,108.86,97.49,85.41A64.34,64.34,0,0,0,87.42,84.6Z" style="fill:#263238"></path><polygon points="205.16 108.38 210.31 108.69 251.47 82.94 264.25 84.91 239.37 119.76 205.16 108.38" style="fill:#92E3A9"></polygon><path d="M239.56,120.35l-38.17-12.69,8.79.52,41.19-25.76,13.76,2.12Zm-30.63-11.24,30.24,10.06,24.2-33.89-11.79-1.82L210.44,109.2Z" style="fill:#263238"></path><path d="M245.62,123.24,217.85,119a4.18,4.18,0,0,0,1.37,1.93c1,.7,15.43,4,17,4.2s20.05.79,20.05.79Z" style="fill:#263238"></path><path d="M261,126.55l-4.72-.15c-.75,0-18.49-.61-20.09-.79-1.33-.16-16.07-3.45-17.25-4.29a4.79,4.79,0,0,1-1.56-2.19l-.24-.77,28.61,4.4Zm-42.28-6.93a3.12,3.12,0,0,0,.8.88c.93.62,15.1,3.92,16.79,4.11,1,.12,9.69.44,15.27.63l-6-1.51Z" style="fill:#263238"></path><path d="M246,123.34l-.39-.1L217.85,119a4.18,4.18,0,0,0,1.37,1.93l27.61,2.76Z" style="fill:#fff"></path><path d="M250.27,124.52,219,121.39l-.11-.07a4.79,4.79,0,0,1-1.56-2.19l-.24-.77,29.06,4.52Zm-30.86-4.1,13.11,1.32-13.81-2.12A3.05,3.05,0,0,0,219.41,120.42Z" style="fill:#263238"></path><polygon points="70.79 90.93 72.09 91.21 71.77 89.42 71.26 89.31 70.79 90.93" style="fill:#263238"></polygon><polygon points="69.28 88.87 68.37 88.67 65.88 89.86 67.73 90.26 69.28 88.87" style="fill:#263238"></polygon><polygon points="69.9 89.01 68.36 90.4 70.29 90.82 70.76 89.19 69.9 89.01" style="fill:#263238"></polygon><path d="M78.62,98a1.55,1.55,0,0,1-.37,0,1.75,1.75,0,0,1-1.33-2.07l.74-3.39a1.76,1.76,0,0,1,.76-1.1,1.75,1.75,0,0,1,2.64,1.84l-.74,3.39a1.74,1.74,0,0,1-.76,1.09A1.69,1.69,0,0,1,78.62,98Zm.74-6.37a1.22,1.22,0,0,0-.67.2,1.19,1.19,0,0,0-.54.77L77.41,96a1.24,1.24,0,0,0,1.88,1.3,1.21,1.21,0,0,0,.54-.78l.74-3.39a1.22,1.22,0,0,0-.17-.93,1.21,1.21,0,0,0-.78-.54A1.09,1.09,0,0,0,79.36,91.59Z" style="fill:#263238"></path><path d="M105.74,103.87a1.64,1.64,0,0,1-.38,0h0a1.7,1.7,0,0,1-1.09-.76,1.75,1.75,0,0,1-.24-1.3l.74-3.4a1.74,1.74,0,1,1,3.4.74l-.74,3.4a1.74,1.74,0,0,1-.76,1.09A1.71,1.71,0,0,1,105.74,103.87Zm.73-6.37a1.25,1.25,0,0,0-1.21,1l-.74,3.39a1.22,1.22,0,0,0,.17.93,1.29,1.29,0,0,0,.78.55h0a1.27,1.27,0,0,0,.93-.17,1.24,1.24,0,0,0,.54-.78l.74-3.39a1.24,1.24,0,0,0-1.21-1.51Z" style="fill:#263238"></path><path d="M118.41,98.8a1.55,1.55,0,0,1-.37,0,1.73,1.73,0,0,1-1.33-2.07l.56-2.59a1.74,1.74,0,1,1,3.4.74l-.56,2.59A1.75,1.75,0,0,1,118.41,98.8Zm.56-5.57a1.36,1.36,0,0,0-.67.19,1.27,1.27,0,0,0-.54.78l-.56,2.6a1.27,1.27,0,0,0,.16.93,1.24,1.24,0,0,0,2.26-.41l.56-2.59a1.27,1.27,0,0,0-.16-.93,1.26,1.26,0,0,0-1-.57Z" style="fill:#263238"></path><path d="M170.55,110.17a1.55,1.55,0,0,1-.37,0h0a1.74,1.74,0,0,1-1.33-2.07l.57-2.59a1.73,1.73,0,1,1,3.39.74l-.56,2.6a1.74,1.74,0,0,1-.76,1.09A1.77,1.77,0,0,1,170.55,110.17Zm-.27-.52a1.29,1.29,0,0,0,.94-.17,1.24,1.24,0,0,0,.54-.78l.56-2.59a1.28,1.28,0,0,0-.16-.94,1.24,1.24,0,0,0-2.26.41l-.56,2.59a1.25,1.25,0,0,0,.94,1.48Z" style="fill:#263238"></path><path d="M194.23,115.34a1.5,1.5,0,0,1-.37,0,1.73,1.73,0,0,1-1.33-2.07l.56-2.59a1.73,1.73,0,0,1,2.07-1.33,1.76,1.76,0,0,1,1.1.76,1.72,1.72,0,0,1,.23,1.31l-.57,2.59A1.73,1.73,0,0,1,194.23,115.34Zm.56-5.57a1.36,1.36,0,0,0-.67.19,1.24,1.24,0,0,0-.54.78l-.56,2.6a1.27,1.27,0,0,0,.16.93,1.24,1.24,0,0,0,2.26-.41l.56-2.59a1.22,1.22,0,0,0-.17-.93,1.19,1.19,0,0,0-.77-.54A1.24,1.24,0,0,0,194.79,109.77Z" style="fill:#263238"></path><path d="M181.06,120.31a2.46,2.46,0,0,1-.37,0h0a1.75,1.75,0,0,1-1.33-2.07l.74-3.4a1.74,1.74,0,0,1,2.07-1.32,1.71,1.71,0,0,1,1.09.76,1.68,1.68,0,0,1,.24,1.31l-.74,3.39a1.75,1.75,0,0,1-1.7,1.37Zm-.26-.53a1.22,1.22,0,0,0,.93-.17,1.21,1.21,0,0,0,.54-.78l.74-3.39a1.24,1.24,0,1,0-2.42-.53l-.74,3.39a1.25,1.25,0,0,0,1,1.48Z" style="fill:#263238"></path><path d="M148.43,113.19a2.33,2.33,0,0,1-.37,0h0a1.74,1.74,0,0,1-1.33-2.07l.74-3.39a1.74,1.74,0,0,1,3.16-.57,1.77,1.77,0,0,1,.24,1.31l-.74,3.39a1.74,1.74,0,0,1-.76,1.09A1.78,1.78,0,0,1,148.43,113.19Zm-.27-.53a1.24,1.24,0,0,0,.94-.17,1.21,1.21,0,0,0,.54-.78l.74-3.39a1.24,1.24,0,0,0-2.42-.53l-.74,3.4a1.24,1.24,0,0,0,.94,1.47Z" style="fill:#263238"></path><path d="M109.25,107s6.16-.61,9.26-.59,43.72,6.6,44.81,6.84,37.5,9,37.5,9l4.55-.64-1.24,5.65-3.63-4.06L187,120.54l-28,1.28-43.91-9.58S109.2,108.14,109.25,107Z" style="fill:#fff"></path><path d="M204.41,128.35l-4.17-4.66L187,121l-28,1.28h-.06l-44-9.6-.08-.06c-2.27-1.59-6.07-4.44-6-5.64l0-.44.43,0c.25,0,6.21-.63,9.31-.59,3.44,0,44.61,6.78,44.92,6.85,1.07.23,34.95,8.38,37.42,9L206,121ZM187,120h.06l13.67,2.73,3.09,3.45.87-4-3.92.55-.09,0c-.37-.09-36.42-8.76-37.49-9-.31-.07-41.52-6.81-44.72-6.83-2.42,0-6.78.36-8.49.52a35.07,35.07,0,0,0,5.25,4.31L159,121.32Z" style="fill:#263238"></path><path d="M109.25,107c0,1.11,5.81,5.21,5.81,5.21L159,121.82l28-1.28-23.67-5.87Z" style="fill:#263238"></path><path d="M158.93,122.32h-.06l-44-9.6-.08-.06c-2.27-1.59-6.07-4.44-6-5.64l0-.55,54.62,7.72,27.06,6.7Zm-43.67-10.55L159,121.32l24.51-1.12-20.33-5-53-7.49A38.71,38.71,0,0,0,115.26,111.77Z" style="fill:#263238"></path><path d="M143.88,112.46l-2.2,10.09s10.9,2.69,18.08,1l1.22-5.63S151.65,112.74,143.88,112.46Z" style="fill:#b0b0b0"></path><path d="M154.13,124.61A60,60,0,0,1,141.56,123l-.47-.12,2.39-11h.42c7.79.28,16.94,5.31,17.33,5.53l.32.18L160.18,124l-.31.08A25.88,25.88,0,0,1,154.13,124.61Zm-11.86-2.43c2.13.47,10.94,2.27,17.07.95l1.08-4.94c-1.68-.89-9.48-4.82-16.14-5.21Z" style="fill:#263238"></path><path d="M158.69,123.76c.36-.06.72-.13,1.07-.21l1.22-5.63s-.32-.18-.91-.48Z" style="fill:#fff"></path><path d="M158.05,124.38l1.67-7.68.58.3c.59.3.93.49.93.49l.32.18L160.18,124l-.31.08c-.35.08-.72.15-1.09.21Z" style="fill:#263238"></path><path d="M121.66,107.62l-2.2,10.09s10.9,2.68,18.08,1l1.23-5.62S129.43,107.89,121.66,107.62Z" style="fill:#b0b0b0"></path><path d="M131.91,119.76a59.31,59.31,0,0,1-12.57-1.57l-.47-.11,2.39-11,.42,0c7.8.27,16.94,5.3,17.33,5.52l.32.18-1.37,6.3-.31.07A25.29,25.29,0,0,1,131.91,119.76Zm-11.85-2.43c2.12.47,10.93,2.27,17.06,1l1.08-5c-1.68-.88-9.47-4.82-16.14-5.2Z" style="fill:#263238"></path><path d="M136.48,118.91c.36-.06.71-.13,1.06-.21l1.23-5.62s-.33-.19-.91-.48Z" style="fill:#fff"></path><path d="M135.83,119.53l1.67-7.67.58.29c.6.3.93.49.93.49l.32.18-1.37,6.3-.31.07-1.09.22Z" style="fill:#263238"></path><path d="M83.79,95.37a.44.44,0,0,1-.52.34.44.44,0,0,1-.34-.52.45.45,0,0,1,.53-.34A.44.44,0,0,1,83.79,95.37Z" style="fill:#263238"></path><path d="M85.26,95.69a.44.44,0,0,1-.52.34.43.43,0,0,1-.33-.52.44.44,0,0,1,.52-.34A.43.43,0,0,1,85.26,95.69Z" style="fill:#263238"></path><path d="M86.74,96a.45.45,0,0,1-.53.33.44.44,0,0,1,.19-.86A.45.45,0,0,1,86.74,96Z" style="fill:#263238"></path><path d="M88.21,96.34a.44.44,0,0,1-.52.33.44.44,0,0,1-.34-.52.44.44,0,0,1,.52-.34A.45.45,0,0,1,88.21,96.34Z" style="fill:#263238"></path><path d="M89.68,96.66a.43.43,0,0,1-.52.33.44.44,0,0,1-.34-.52.45.45,0,0,1,.53-.34A.45.45,0,0,1,89.68,96.66Z" style="fill:#263238"></path><path d="M91.15,97a.42.42,0,0,1-.52.33.44.44,0,1,1,.19-.85A.42.42,0,0,1,91.15,97Z" style="fill:#263238"></path><path d="M92.63,97.3a.44.44,0,1,1-.86-.19.44.44,0,0,1,.86.19Z" style="fill:#263238"></path><path d="M94.1,97.62a.44.44,0,0,1-.52.34.44.44,0,1,1,.18-.86A.44.44,0,0,1,94.1,97.62Z" style="fill:#263238"></path><path d="M95.57,97.94a.44.44,0,0,1-.52.34.44.44,0,1,1,.18-.86A.44.44,0,0,1,95.57,97.94Z" style="fill:#263238"></path><path d="M97,98.26a.44.44,0,0,1-.52.34.44.44,0,0,1-.34-.52.45.45,0,0,1,.53-.34A.44.44,0,0,1,97,98.26Z" style="fill:#263238"></path><path d="M98.51,98.58a.44.44,0,0,1-.52.34.43.43,0,0,1-.33-.52.44.44,0,0,1,.52-.34A.43.43,0,0,1,98.51,98.58Z" style="fill:#263238"></path><path d="M100,98.91a.45.45,0,0,1-.53.33.44.44,0,0,1,.19-.86A.45.45,0,0,1,100,98.91Z" style="fill:#263238"></path><path d="M101.46,99.23a.44.44,0,0,1-.52.33.44.44,0,0,1-.34-.52.44.44,0,0,1,.52-.34A.45.45,0,0,1,101.46,99.23Z" style="fill:#263238"></path><path d="M102.93,99.55a.42.42,0,0,1-.52.33.44.44,0,0,1-.34-.52.45.45,0,0,1,.53-.34A.45.45,0,0,1,102.93,99.55Z" style="fill:#263238"></path><path d="M115.75,102.34a.44.44,0,0,1-.52.34.44.44,0,0,1-.34-.52.44.44,0,1,1,.86.18Z" style="fill:#263238"></path><path d="M117.65,102.76a.44.44,0,0,1-.52.34.45.45,0,0,1-.34-.53.44.44,0,0,1,.53-.33A.42.42,0,0,1,117.65,102.76Z" style="fill:#263238"></path><circle cx="119.13" cy="103.08" r="0.44" transform="translate(-36.99 82.03) rotate(-33.19)" style="fill:#263238"></circle><path d="M121.46,103.59a.45.45,0,0,1-.53.34.45.45,0,0,1-.33-.53.42.42,0,0,1,.52-.33A.44.44,0,0,1,121.46,103.59Z" style="fill:#263238"></path><path d="M123.36,104a.44.44,0,1,1-.34-.52A.44.44,0,0,1,123.36,104Z" style="fill:#263238"></path><path d="M125.26,104.42a.43.43,0,0,1-.52.33.44.44,0,0,1-.34-.52.43.43,0,0,1,.52-.33A.44.44,0,0,1,125.26,104.42Z" style="fill:#263238"></path><path d="M127.16,104.83a.44.44,0,0,1-.52.34.44.44,0,0,1-.34-.52.44.44,0,1,1,.86.18Z" style="fill:#263238"></path><path d="M129.06,105.25a.42.42,0,0,1-.52.33.44.44,0,1,1,.19-.85A.43.43,0,0,1,129.06,105.25Z" style="fill:#263238"></path><path d="M131,105.66a.45.45,0,0,1-.53.34.43.43,0,0,1-.33-.52.44.44,0,0,1,.52-.34A.44.44,0,0,1,131,105.66Z" style="fill:#263238"></path><path d="M132.87,106.08a.44.44,0,0,1-.86-.19.42.42,0,0,1,.52-.33A.44.44,0,0,1,132.87,106.08Z" style="fill:#263238"></path><path d="M134.77,106.49a.44.44,0,1,1-.34-.52A.44.44,0,0,1,134.77,106.49Z" style="fill:#263238"></path><path d="M136.67,106.91a.43.43,0,0,1-.52.33.44.44,0,0,1-.34-.52.43.43,0,0,1,.52-.33A.44.44,0,0,1,136.67,106.91Z" style="fill:#263238"></path><path d="M138.57,107.32a.44.44,0,0,1-.52.34.44.44,0,0,1-.34-.52.44.44,0,1,1,.86.18Z" style="fill:#263238"></path><path d="M140.47,107.74a.43.43,0,0,1-.52.33.44.44,0,0,1-.34-.52.44.44,0,1,1,.86.19Z" style="fill:#263238"></path><path d="M142.37,108.15a.44.44,0,0,1-.52.34.43.43,0,0,1-.33-.52.44.44,0,0,1,.52-.34A.43.43,0,0,1,142.37,108.15Z" style="fill:#263238"></path><path d="M144.28,108.57a.45.45,0,0,1-.53.33.44.44,0,0,1,.19-.86A.45.45,0,0,1,144.28,108.57Z" style="fill:#263238"></path><path d="M146.18,109a.44.44,0,1,1-.34-.52A.44.44,0,0,1,146.18,109Z" style="fill:#263238"></path><path d="M124.64,96.64a.44.44,0,0,1-.52.33.42.42,0,0,1-.33-.52.44.44,0,1,1,.85.19Z" style="fill:#263238"></path><path d="M126.55,97.05a.45.45,0,0,1-.53.34.44.44,0,0,1-.33-.52.44.44,0,0,1,.52-.34A.44.44,0,0,1,126.55,97.05Z" style="fill:#263238"></path><path d="M128.45,97.47a.45.45,0,0,1-.53.33.44.44,0,0,1,.19-.86A.45.45,0,0,1,128.45,97.47Z" style="fill:#263238"></path><path d="M130.35,97.88a.44.44,0,0,1-.52.34.44.44,0,1,1,.18-.86A.44.44,0,0,1,130.35,97.88Z" style="fill:#263238"></path><path d="M132.25,98.3a.44.44,0,0,1-.52.33.44.44,0,0,1-.34-.52.45.45,0,0,1,.53-.34A.45.45,0,0,1,132.25,98.3Z" style="fill:#263238"></path><path d="M134.15,98.71a.44.44,0,0,1-.52.34.45.45,0,0,1-.34-.53.45.45,0,0,1,.53-.33A.44.44,0,0,1,134.15,98.71Z" style="fill:#263238"></path><path d="M136.05,99.13a.44.44,0,0,1-.52.33.42.42,0,0,1-.33-.52.44.44,0,1,1,.85.19Z" style="fill:#263238"></path><path d="M138,99.54a.44.44,0,1,1-.86-.19.44.44,0,0,1,.86.19Z" style="fill:#263238"></path><path d="M139.86,100a.45.45,0,0,1-.53.33.44.44,0,0,1,.19-.86A.45.45,0,0,1,139.86,100Z" style="fill:#263238"></path><path d="M141.76,100.37a.44.44,0,0,1-.52.34.44.44,0,1,1,.18-.86A.44.44,0,0,1,141.76,100.37Z" style="fill:#263238"></path><path d="M143.66,100.79a.44.44,0,0,1-.52.33.44.44,0,0,1-.34-.52.44.44,0,0,1,.52-.34A.45.45,0,0,1,143.66,100.79Z" style="fill:#263238"></path><path d="M145.56,101.2a.44.44,0,0,1-.52.34.44.44,0,1,1,.19-.86A.44.44,0,0,1,145.56,101.2Z" style="fill:#263238"></path><path d="M147.46,101.62a.44.44,0,0,1-.86-.19.45.45,0,0,1,.53-.34A.43.43,0,0,1,147.46,101.62Z" style="fill:#263238"></path><path d="M149.37,102a.45.45,0,0,1-.53.34.44.44,0,0,1-.33-.53.44.44,0,0,1,.86.19Z" style="fill:#263238"></path><path d="M151.27,102.45a.45.45,0,0,1-.53.33.44.44,0,0,1,.19-.86A.45.45,0,0,1,151.27,102.45Z" style="fill:#263238"></path><path d="M153.17,102.86a.44.44,0,0,1-.52.34.45.45,0,0,1-.34-.53.44.44,0,0,1,.52-.33A.44.44,0,0,1,153.17,102.86Z" style="fill:#263238"></path><path d="M155.07,103.27a.44.44,0,1,1-.34-.52A.44.44,0,0,1,155.07,103.27Z" style="fill:#263238"></path><path d="M157.16,103.73a.44.44,0,1,1-.86-.19.44.44,0,0,1,.86.19Z" style="fill:#263238"></path><path d="M159.24,104.18a.44.44,0,0,1-.52.34.44.44,0,0,1-.34-.52.44.44,0,1,1,.86.18Z" style="fill:#263238"></path><path d="M161.33,104.64a.45.45,0,0,1-.53.34.45.45,0,0,1-.33-.53.44.44,0,0,1,.86.19Z" style="fill:#263238"></path><path d="M163.41,105.09a.44.44,0,0,1-.52.34.44.44,0,0,1-.34-.52.45.45,0,0,1,.53-.34A.44.44,0,0,1,163.41,105.09Z" style="fill:#263238"></path><path d="M165.5,105.55a.44.44,0,0,1-.52.34.45.45,0,0,1-.34-.53.44.44,0,0,1,.52-.33A.44.44,0,0,1,165.5,105.55Z" style="fill:#263238"></path><path d="M167.58,106a.44.44,0,0,1-.52.34.43.43,0,0,1-.33-.52.44.44,0,0,1,.52-.34A.43.43,0,0,1,167.58,106Z" style="fill:#263238"></path><path d="M153.91,110.67a.43.43,0,0,1-.53.33.44.44,0,0,1-.33-.52.42.42,0,0,1,.52-.33A.44.44,0,0,1,153.91,110.67Z" style="fill:#263238"></path><path d="M155.56,111a.44.44,0,0,1-.52.34.45.45,0,0,1-.34-.53.44.44,0,0,1,.53-.33A.43.43,0,0,1,155.56,111Z" style="fill:#263238"></path><path d="M157.22,111.39a.44.44,0,0,1-.52.34.44.44,0,1,1,.18-.86A.44.44,0,0,1,157.22,111.39Z" style="fill:#263238"></path><path d="M158.88,111.75a.44.44,0,1,1-.86-.19.44.44,0,0,1,.86.19Z" style="fill:#263238"></path><path d="M160.53,112.11a.44.44,0,0,1-.52.34.44.44,0,0,1-.34-.52.45.45,0,0,1,.53-.34A.44.44,0,0,1,160.53,112.11Z" style="fill:#263238"></path><path d="M162.19,112.47a.44.44,0,1,1-.34-.52A.44.44,0,0,1,162.19,112.47Z" style="fill:#263238"></path><path d="M163.84,112.84a.44.44,0,0,1-.52.33.42.42,0,0,1-.33-.52.44.44,0,1,1,.85.19Z" style="fill:#263238"></path><path d="M165.5,113.2a.44.44,0,0,1-.86-.19.45.45,0,0,1,.53-.34A.45.45,0,0,1,165.5,113.2Z" style="fill:#263238"></path><path d="M167.16,113.56a.43.43,0,0,1-.53.33.44.44,0,0,1-.33-.52.42.42,0,0,1,.52-.33A.44.44,0,0,1,167.16,113.56Z" style="fill:#263238"></path><path d="M168.81,113.92a.44.44,0,0,1-.52.34.44.44,0,1,1,.19-.86A.43.43,0,0,1,168.81,113.92Z" style="fill:#263238"></path><path d="M170.47,114.28a.44.44,0,0,1-.52.34.44.44,0,1,1,.18-.86A.44.44,0,0,1,170.47,114.28Z" style="fill:#263238"></path><path d="M172.13,114.64a.45.45,0,0,1-.53.34.44.44,0,0,1-.33-.52.44.44,0,0,1,.52-.34A.44.44,0,0,1,172.13,114.64Z" style="fill:#263238"></path><path d="M173.78,115a.44.44,0,0,1-.52.34.44.44,0,0,1-.34-.52.45.45,0,0,1,.53-.34A.44.44,0,0,1,173.78,115Z" style="fill:#263238"></path><path d="M175.44,115.37a.44.44,0,0,1-.52.33.44.44,0,0,1-.34-.52.44.44,0,0,1,.52-.34A.45.45,0,0,1,175.44,115.37Z" style="fill:#263238"></path><path d="M187.4,118a.44.44,0,1,1-.34-.52A.44.44,0,0,1,187.4,118Z" style="fill:#263238"></path><path d="M189.24,118.38a.44.44,0,0,1-.52.33.44.44,0,0,1-.34-.52.44.44,0,0,1,.52-.34A.45.45,0,0,1,189.24,118.38Z" style="fill:#263238"></path><path d="M191.08,118.78a.44.44,0,0,1-.86-.19.44.44,0,0,1,.52-.34A.45.45,0,0,1,191.08,118.78Z" style="fill:#263238"></path><path d="M192.92,119.18a.44.44,0,0,1-.52.34.45.45,0,0,1-.34-.53.43.43,0,0,1,.53-.33A.44.44,0,0,1,192.92,119.18Z" style="fill:#263238"></path><path d="M194.76,119.58a.44.44,0,0,1-.52.34.44.44,0,1,1,.19-.86A.44.44,0,0,1,194.76,119.58Z" style="fill:#263238"></path><path d="M196.6,120a.44.44,0,0,1-.52.34.44.44,0,1,1,.19-.86A.44.44,0,0,1,196.6,120Z" style="fill:#263238"></path><path d="M198.44,120.38a.44.44,0,0,1-.52.34.44.44,0,0,1-.34-.52.44.44,0,1,1,.86.18Z" style="fill:#263238"></path><path d="M200.28,120.79a.44.44,0,0,1-.86-.19.44.44,0,1,1,.86.19Z" style="fill:#263238"></path><path d="M177.77,108.23a.45.45,0,0,1-.53.33.44.44,0,0,1,.19-.86A.45.45,0,0,1,177.77,108.23Z" style="fill:#263238"></path><path d="M179.61,108.63a.44.44,0,1,1-.34-.53A.45.45,0,0,1,179.61,108.63Z" style="fill:#263238"></path><path d="M181.45,109a.43.43,0,0,1-.53.33.44.44,0,0,1-.33-.52.42.42,0,0,1,.52-.33A.44.44,0,0,1,181.45,109Z" style="fill:#263238"></path><path d="M183.29,109.43a.45.45,0,0,1-.53.34.45.45,0,0,1-.33-.53.44.44,0,0,1,.86.19Z" style="fill:#263238"></path><path d="M185.13,109.83a.44.44,0,1,1-.34-.52A.44.44,0,0,1,185.13,109.83Z" style="fill:#263238"></path><path d="M187,110.23a.44.44,0,1,1-.34-.52A.44.44,0,0,1,187,110.23Z" style="fill:#263238"></path><path d="M188.81,110.64a.44.44,0,1,1-.34-.53A.44.44,0,0,1,188.81,110.64Z" style="fill:#263238"></path><path d="M190.65,111a.44.44,0,0,1-.52.33.44.44,0,0,1-.34-.52.44.44,0,0,1,.52-.34A.45.45,0,0,1,190.65,111Z" style="fill:#263238"></path><path d="M198.87,112.83a.44.44,0,0,1-.52.34.45.45,0,0,1-.34-.53.44.44,0,0,1,.86.19Z" style="fill:#263238"></path><path d="M200.71,113.23a.44.44,0,0,1-.52.34.44.44,0,1,1,.18-.86A.44.44,0,0,1,200.71,113.23Z" style="fill:#263238"></path><path d="M202.55,113.63a.44.44,0,1,1-.34-.52A.44.44,0,0,1,202.55,113.63Z" style="fill:#263238"></path><path d="M204.39,114a.44.44,0,1,1-.34-.52A.44.44,0,0,1,204.39,114Z" style="fill:#263238"></path><path d="M206.23,114.44a.44.44,0,0,1-.52.33.44.44,0,0,1-.34-.52.44.44,0,0,1,.52-.34A.45.45,0,0,1,206.23,114.44Z" style="fill:#263238"></path><path d="M98.7,91a.45.45,0,0,1-.53.33.44.44,0,0,1,.19-.86A.45.45,0,0,1,98.7,91Z" style="fill:#263238"></path><path d="M100.54,91.38a.44.44,0,0,1-.86-.19.42.42,0,0,1,.52-.33A.44.44,0,0,1,100.54,91.38Z" style="fill:#263238"></path><path d="M102.38,91.78a.45.45,0,0,1-.53.34.45.45,0,0,1-.33-.53.44.44,0,0,1,.86.19Z" style="fill:#263238"></path><path d="M104.22,92.18a.44.44,0,1,1-.86-.19.44.44,0,0,1,.86.19Z" style="fill:#263238"></path><path d="M106.06,92.58a.44.44,0,1,1-.86-.18.44.44,0,0,1,.52-.34A.44.44,0,0,1,106.06,92.58Z" style="fill:#263238"></path><path d="M73.3,108.61a1.4,1.4,0,1,1-1.07-1.67A1.39,1.39,0,0,1,73.3,108.61Z" style="fill:#263238"></path><path d="M71.94,110.21a1.93,1.93,0,0,1-1.86-2.31,1.89,1.89,0,0,1,2.26-1.44,1.87,1.87,0,0,1,1.19.82,1.9,1.9,0,0,1,.26,1.43,1.89,1.89,0,0,1-1.85,1.5Zm0-2.8a.9.9,0,0,0-.19,1.78.91.91,0,0,0,.68-.13.9.9,0,0,0,.39-.56.91.91,0,0,0-.12-.68.9.9,0,0,0-.56-.39Z" style="fill:#263238"></path><path d="M72.62,108.46a.71.71,0,0,1-.84.53.7.7,0,0,1-.53-.83.69.69,0,0,1,.83-.53A.7.7,0,0,1,72.62,108.46Z" style="fill:#fff"></path><path d="M71.93,109.51a1.07,1.07,0,0,1-.25,0,1.23,1.23,0,0,1-.76-.52,1.2,1.2,0,0,1,1.27-1.82,1.19,1.19,0,0,1,.91,1.42h0A1.21,1.21,0,0,1,71.93,109.51Zm0-1.4a.19.19,0,0,0-.19.16.22.22,0,0,0,.15.23.2.2,0,0,0,.24-.15.21.21,0,0,0-.15-.24Z" style="fill:#263238"></path><polygon points="70.81 102.18 70.54 103.4 73.42 104.03 71.56 106.72 72.25 106.87 73.28 105.42 74.19 105.62 73.03 107.28 73.43 108 76.26 103.77 74.74 103.44 70.81 102.18" style="fill:#263238"></polygon><path d="M73.39,109l-.88-1.6-.05.07-1.73-.38,1.86-2.69L70,103.78l.49-2.24L74.9,103l2.18.48Zm0-4,1.29.28.75-1.12-1.24-.31ZM71.14,103l2,.43-2-.62Z" style="fill:#263238"></path><circle cx="238.81" cy="101.84" r="7.11" transform="translate(-16.35 149.77) rotate(-33.73)" style="fill:#fff"></circle><path d="M238.81,109.45a7.52,7.52,0,0,1-1.62-.18,7.6,7.6,0,1,1,9.05-5.81h0A7.61,7.61,0,0,1,238.81,109.45Zm0-14.22a6.64,6.64,0,1,0,1.42.16A6.25,6.25,0,0,0,238.8,95.23Z" style="fill:#263238"></path></g></svg>
