<svg xmlns="http://www.w3.org/2000/svg" viewBox="0 0 500 500"><g id="background-simple"><path d="M325.83,44.06S246.49,12.89,170.61,56.88,58.28,191.38,26.83,263.82,16.63,411.43,76.41,447.1s98.47-13.38,181-13.52,105.06,12.73,172.29-33.76,76.55-160.45,20.22-246.54S325.83,44.06,325.83,44.06Z" style="fill:#92E3A9"></path><path d="M325.83,44.06S246.49,12.89,170.61,56.88,58.28,191.38,26.83,263.82,16.63,411.43,76.41,447.1s98.47-13.38,181-13.52,105.06,12.73,172.29-33.76,76.55-160.45,20.22-246.54S325.83,44.06,325.83,44.06Z" style="fill:#fff;opacity:0.7000000000000001"></path></g><g id="Window"><path d="M392.9,73h0A67.1,67.1,0,0,1,460,140.1V381.45a0,0,0,0,1,0,0H325.8a0,0,0,0,1,0,0V140.1A67.1,67.1,0,0,1,392.9,73Z" style="fill:none;stroke:#263238;stroke-linecap:round;stroke-linejoin:round"></path><path d="M341,380.73V142.26A52,52,0,0,1,392.9,90.31h0a52,52,0,0,1,52,51.95V380.73" style="fill:none;stroke:#263238;stroke-linecap:round;stroke-linejoin:round"></path><line x1="392.9" y1="73" x2="392.9" y2="381.09" style="fill:none;stroke:#263238;stroke-linecap:round;stroke-linejoin:round"></line><line x1="326.52" y1="132.34" x2="459.1" y2="132.34" style="fill:none;stroke:#263238;stroke-linecap:round;stroke-linejoin:round"></line><line x1="326.52" y1="174.19" x2="459.1" y2="174.19" style="fill:none;stroke:#263238;stroke-linecap:round;stroke-linejoin:round"></line><line x1="326.52" y1="216.04" x2="459.1" y2="216.04" style="fill:none;stroke:#263238;stroke-linecap:round;stroke-linejoin:round"></line><line x1="326.52" y1="257.89" x2="459.1" y2="257.89" style="fill:none;stroke:#263238;stroke-linecap:round;stroke-linejoin:round"></line><line x1="326.52" y1="299.74" x2="459.1" y2="299.74" style="fill:none;stroke:#263238;stroke-linecap:round;stroke-linejoin:round"></line><line x1="326.52" y1="341.58" x2="459.1" y2="341.58" style="fill:none;stroke:#263238;stroke-linecap:round;stroke-linejoin:round"></line><line x1="344.25" y1="93.94" x2="356.27" y2="104.89" style="fill:none;stroke:#263238;stroke-linecap:round;stroke-linejoin:round"></line><line x1="441.05" y1="93.94" x2="429.02" y2="104.89" style="fill:none;stroke:#263238;stroke-linecap:round;stroke-linejoin:round"></line></g><g id="Picture"><rect x="26.84" y="106.19" width="91.54" height="124.68" style="fill:none;stroke:#263238;stroke-linecap:round;stroke-linejoin:round"></rect><rect x="33.04" y="111.44" width="79.13" height="114.18" style="fill:none;stroke:#263238;stroke-linecap:round;stroke-linejoin:round"></rect><path d="M112.17,118.39c-1.29-.32-15.17-3.55-18.31,4-3.29,7.9,18.42,28.29,6.58,44.73s-45.38-8.55-50.65,4.6S45.19,202.61,36,205.9a20.23,20.23,0,0,1-2.94.78v18.94h79.13Z" style="fill:none;stroke:#263238;stroke-miterlimit:10"></path><path d="M52.63,111.44c6,3.28,10.36,8,5.71,14.21-9.86,13.16-24.33,21-15.12,28.29s33.54,1.31,30.25-19.08c-1.82-11.27-1.82-18.52-.13-23.42Z" style="fill:none;stroke:#263238;stroke-miterlimit:10"></path><circle cx="69.2" cy="195.7" r="12.17" transform="translate(-69.62 41.38) rotate(-22.5)" style="fill:none;stroke:#263238;stroke-miterlimit:10"></circle><path d="M107.67,184.52a4.93,4.93,0,1,1-4.93-4.93A4.93,4.93,0,0,1,107.67,184.52Z" style="fill:none;stroke:#263238;stroke-miterlimit:10"></path><path d="M59.66,144.07a3.95,3.95,0,1,1-3.95-3.95A4,4,0,0,1,59.66,144.07Z" style="fill:none;stroke:#263238;stroke-miterlimit:10"></path></g><g id="Plants"><path d="M96.74,257.8s0-4.61-6.46-11.08-10.62-10.15-10.62-10.15-3.23,10.62,2.77,17.08a113.53,113.53,0,0,0,14.31,12.46Z" style="fill:#92E3A9"></path><path d="M87.36,286.63s0-4.61-6.46-11.07S70.28,265.4,70.28,265.4,67.05,276,73.05,282.48a113.53,113.53,0,0,0,14.31,12.46Z" style="fill:#92E3A9"></path><path d="M96.33,265.67s.49-4.59,7.6-10.34,11.63-9,11.63-9,2.1,10.9-4.56,16.7a113.82,113.82,0,0,1-15.54,10.88Z" style="fill:#92E3A9"></path><path d="M85,299.72s1-4.52,8.64-9.48,12.52-7.71,12.52-7.71.93,11.06-6.29,16.12a113.62,113.62,0,0,1-16.61,9.19Z" style="fill:#92E3A9"></path><path d="M87.13,336.84s0-4.62,6.47-11.08,10.61-10.16,10.61-10.16,3.24,10.62-2.77,17.08a113.11,113.11,0,0,1-14.31,12.47Z" style="fill:#92E3A9"></path><path d="M87,345.9s.65-4.57-4.83-11.89-9.06-11.56-9.06-11.56-4.71,10.05.31,17.3a113.6,113.6,0,0,0,12.4,14.38Z" style="fill:#92E3A9"></path><path d="M80.65,372.75s0-4.61,6.47-11.08,10.61-10.15,10.61-10.15S101,362.14,95,368.6a113.53,113.53,0,0,1-14.31,12.46Z" style="fill:#92E3A9"></path><path d="M85,397.1s-1.17-4.46,3.45-12.35,7.69-12.52,7.69-12.52,5.82,9.46,1.65,17.23a113.63,113.63,0,0,1-10.69,15.68Z" style="fill:#92E3A9"></path><path d="M97.33,256.62A132,132,0,0,1,95.56,271c-2.56,13.2-9,21.72-11.5,33.64s4.78,27.29,2.82,42.6S79,371,80.65,381.24s10.65,37.9,10.65,37.9" style="fill:none;stroke:#263238;stroke-linecap:round;stroke-linejoin:round"></path><line x1="96.27" y1="268.73" x2="103.24" y2="263.39" style="fill:none;stroke:#263238;stroke-linecap:round;stroke-linejoin:round"></line><line x1="96.6" y1="262.58" x2="93.68" y2="257.4" style="fill:none;stroke:#263238;stroke-linecap:round;stroke-linejoin:round"></line><path d="M84.45,304.05s5.83-4.38,11.82-8.75" style="fill:none;stroke:#263238;stroke-linecap:round;stroke-linejoin:round"></path><path d="M87.36,294.94S82.5,285.42,77,279.1" style="fill:none;stroke:#263238;stroke-linecap:round;stroke-linejoin:round"></path><path d="M87.36,343.41a72.42,72.42,0,0,1,12.47-16.69" style="fill:none;stroke:#263238;stroke-linecap:round;stroke-linejoin:round"></path><path d="M86.23,349.89a81.76,81.76,0,0,0-6.32-12c-3.4-5-3.89-5.67-3.89-5.67" style="fill:none;stroke:#263238;stroke-linecap:round;stroke-linejoin:round"></path><path d="M80.65,381.24a78.3,78.3,0,0,1,5.25-10.62,68,68,0,0,1,6.81-8.91" style="fill:none;stroke:#263238;stroke-linecap:round;stroke-linejoin:round"></path><path d="M87.07,405.14a19.78,19.78,0,0,1,1.75-10.22c2.43-4.7,5.18-10.86,6.32-13.29" style="fill:none;stroke:#263238;stroke-linecap:round;stroke-linejoin:round"></path><path d="M54.42,319.48s-.5-2.9,2.85-7.65,5.55-7.52,5.55-7.52,3.18,6.3.12,11a72.5,72.5,0,0,1-7.62,9.37Z" style="fill:#92E3A9"></path><path d="M63.43,336.54s-.5-2.9,2.85-7.65,5.56-7.52,5.56-7.52,3.18,6.3.11,11a72.5,72.5,0,0,1-7.62,9.37Z" style="fill:#92E3A9"></path><path d="M55.53,324.36s-.81-2.82-5.89-5.65-8.27-4.37-8.27-4.37-.13,7.06,4.67,10A72.58,72.58,0,0,0,57,329.45Z" style="fill:#92E3A9"></path><path d="M66.33,344.49s-1.1-2.73-6.45-5S51.2,336,51.2,336s.61,7,5.69,9.43a72.37,72.37,0,0,0,11.41,4Z" style="fill:#92E3A9"></path><path d="M69,368s-.5-2.9-5.25-6.25S56,356.53,56,356.53s-.88,7,3.59,10.41a71.42,71.42,0,0,0,10.33,6.27Z" style="fill:#92E3A9"></path><path d="M70.07,373.67s-.9-2.8,1.74-8,4.43-8.24,4.43-8.24,4,5.8,1.68,10.89a72.34,72.34,0,0,1-6.21,10.36Z" style="fill:#92E3A9"></path><path d="M78.19,397s.33-2.92,4.89-6.54,7.45-5.65,7.45-5.65,1.27,6.95-3,10.6a72.51,72.51,0,0,1-10,6.84Z" style="fill:#92E3A9"></path><path d="M77,389.81s-.5-2.89-5.26-6.24S64,378.35,64,378.35s-.87,7,3.59,10.41A72.52,72.52,0,0,0,77.89,395Z" style="fill:#92E3A9"></path><path d="M76.92,405.55s.25-2.93-3.5-7.37-6.19-7-6.19-7-2.62,6.55.84,11a72.19,72.19,0,0,0,8.41,8.67Z" style="fill:#92E3A9"></path><path d="M53.92,318.8a85.75,85.75,0,0,0,2.67,8.8c3,8,8,12.64,10.86,19.84s0,17.63,2.86,27,7.56,14.08,7.6,20.67-2.56,24.92-2.56,24.92" style="fill:none;stroke:#263238;stroke-linecap:round;stroke-linejoin:round"></path><line x1="55.9" y1="326.28" x2="50.95" y2="323.68" style="fill:none;stroke:#263238;stroke-linecap:round;stroke-linejoin:round"></line><line x1="55.03" y1="322.46" x2="56.29" y2="318.89" style="fill:none;stroke:#263238;stroke-linecap:round;stroke-linejoin:round"></line><path d="M67.15,347.14S63,345,58.78,342.94" style="fill:none;stroke:#263238;stroke-linecap:round;stroke-linejoin:round"></path><path d="M64.33,341.75a59.75,59.75,0,0,1,4.78-11.06" style="fill:none;stroke:#263238;stroke-linecap:round;stroke-linejoin:round"></path><path d="M69.59,372.14A45.77,45.77,0,0,0,60,363" style="fill:none;stroke:#263238;stroke-linecap:round;stroke-linejoin:round"></path><path d="M71,376.08a51.39,51.39,0,0,1,2.66-8.2c1.59-3.52,1.82-4,1.82-4" style="fill:none;stroke:#263238;stroke-linecap:round;stroke-linejoin:round"></path><path d="M77.68,400.14A43.69,43.69,0,0,1,83,394.61a28.59,28.59,0,0,0,3.46-3" style="fill:none;stroke:#263238;stroke-linecap:round;stroke-linejoin:round"></path><path d="M77.91,395.13A49.42,49.42,0,0,0,73.46,389a44,44,0,0,0-5.23-4.84" style="fill:none;stroke:#263238;stroke-linecap:round;stroke-linejoin:round"></path><path d="M76.48,410.82a12.65,12.65,0,0,0-2.21-6.22c-2-2.68-4.43-6.25-5.4-7.65" style="fill:none;stroke:#263238;stroke-linecap:round;stroke-linejoin:round"></path><path d="M95.49,464h-27a2.12,2.12,0,0,1-2.12-2.12L59.7,417.2h44.6l-6.69,44.68A2.12,2.12,0,0,1,95.49,464Z" style="fill:#263238;stroke:#263238;stroke-linecap:round;stroke-linejoin:round"></path></g><g id="Mirror"><rect x="127.64" y="77.07" width="169.28" height="386.93" style="fill:#fff"></rect><path d="M171.61,263.38c-5,18.64-9,27.34-9,31.69s1.87,13.67,1.87,13.67,2.19,9.19,2.19,11.86-.33,11.64-2,12.31-2-4.66-2-4.66-.67,5,.33,7.65,1.66,5,0,5-7-4.32-8.65-7.32-3.33-8.65-3.66-16.3,1-21,1-21-1.67-26,0-37.93,1-16,2.66-27S158,199.48,168,192.49s26-9.44,26-9.44,3.59-1.87,3.92,6.12-10.65,27-15.64,42.25S171.61,263.38,171.61,263.38Z" style="fill:#fff;stroke:#263238;stroke-miterlimit:10"></path><path d="M163.22,326.67s.63-8,.63-8.92" style="fill:none;stroke:#263238;stroke-miterlimit:10"></path><path d="M265.09,189.75c-5.37-7.16-26.65-7.4-30.5-8.59s-6.81-6.81-7.41-8-.88-7.4-.88-7.4l.29-3.56-23.69-.89s1.48,8.29-1.18,15.4c-1,2.61-4,4.14-8.12,5.36a117.89,117.89,0,0,1-9.3,21.39c-6.66,11.65-12,20-9.65,28.29s4,10,4,10-5,7.65-6.66,15.64a29.24,29.24,0,0,0,.34,14s-8.65,18.63-7.66,29.28c.46,4.84,1.32,11.45,2.13,17.23.25-.42,4,16.68,7.39,24.69a58.12,58.12,0,0,1,4.44,25.17c-.29,8.29-1.48,21.32-1.18,34s5.33,37.61,5.33,42.64a69.88,69.88,0,0,1-1.19,13c-.59,2.67.89,3,3.26,3.85s15.1,0,15.1,0a5.53,5.53,0,0,0,1.48-3.55c0-2.07-5.62-10.66-5.62-13.62a65.49,65.49,0,0,1,.59-12.14c.89-6.52,12.14-37.61,15.1-53s5-28.13,5.33-30.79l2.37-21s1.78,23.39,1.78,30.2.88,11.26,1.77,16.88a22.09,22.09,0,0,0,3.26,8.89s-1.48,12.43,0,23.09,8,25.47,10.07,29.62,1.78,12.43,1.78,14.21-.3,8.29.88,9.18,24,0,24.88,0,1.77-3.26.29-4.74-4.44-2.07-7.7-6.81-4.14-13.62-3.84-16.29,3.25-21.61,3.25-36.12-2.07-22.51-2.07-22.51,15.1-28.72,13-53a202.74,202.74,0,0,0-10.07-46.2s3.55-7.1,2.37-13.62-2.07-8.59-2.07-8.59l-3-11.84,28.61,1.62S275.75,204,265.09,189.75Z" style="fill:#fff;stroke:#263238;stroke-miterlimit:10"></path><path d="M226.6,169.92c0-.18,0-.36,0-.54l-10.7-4.64c-1.74-.49-8.44-1-12.68-1.26a34.41,34.41,0,0,1-.66,10.65,30,30,0,0,0,10,.23C222.26,173.18,225.64,170.82,226.6,169.92Z" style="fill:#263238;stroke:#263238;stroke-miterlimit:10"></path><path d="M242.75,368.94s1.87,5.28-3.72,9.32" style="fill:none;stroke:#263238;stroke-miterlimit:10"></path><path d="M253,368.63s0,6.83-3.11,9" style="fill:none;stroke:#263238;stroke-miterlimit:10"></path><path d="M193.36,367.07s-1.55,6.84-6.84,9.32" style="fill:none;stroke:#263238;stroke-miterlimit:10"></path><path d="M188.7,380.12s3.11,7.46,9.63,5.9,8.08-6.21,8.08-6.21" style="fill:none;stroke:#263238;stroke-miterlimit:10"></path><line x1="219.19" y1="327.15" x2="218.89" y2="319.45" style="fill:none;stroke:#263238;stroke-miterlimit:10"></line><path d="M167.37,284.81s13.32,2.07,24,10.06,26.36,23.69,27.54,24.58,8.89-9.47,13.63-15.4,18.65-15.39,27.24-19.24c0,0-1.48-7.7-4.44-13,0,0-20.44,9.47-38.8,8s-41.75-13.92-41.75-13.92S168.85,279.48,167.37,284.81Z" style="fill:#92E3A9;stroke:#263238;stroke-miterlimit:10"></path><path d="M175.66,232.39s2.3,6.9-1.85,16.08-4.43,16.57-1.17,23.38,23.75,16.81,49.21,16.51,32-9.18,35.54-16.29,1.78-12.73-.59-20.73S253.24,238,253.24,238s-31.39-4.15-46.19-4.15S175.66,232.39,175.66,232.39Z" style="fill:#fff;stroke:#263238;stroke-miterlimit:10"></path><path d="M194,182.05s-6.81,11.55-12.14,21.62-9.18,13.92-9.18,22.8,3,14.81,13.62,18.36,20.43.89,28.72-1.48,20.78,5,28.73,4.14c10.66-1.18,17.17-9.18,17.17-19.54s-11.55-27.24-15.4-33.76a92.21,92.21,0,0,0-9.47-12.73l-4.15-2.07s5.63,11,7.11,15.4,3.26,9.47,3.26,9.47S226.59,209,217.12,209s-27.54-8-27.54-8l8.59-20.72Z" style="fill:#92E3A9;stroke:#263238;stroke-miterlimit:10"></path><path d="M209.31,200.67s7.29,6.32,9.24,15.56" style="fill:none;stroke:#263238;stroke-miterlimit:10"></path><path d="M265.84,233s-7.49,6.51-14.65,12.37-16.28,14.32-16.28,14.32-12.37-1.95-15.3-1.95-5.86,2.93-8.46,3.91,1.95,1.95,3.25,1.95,5.21-.65,5.21-.65-6.18,4.23-8.79,6.51-6.51,5.21-5.53,5.86,4.23-1.3,7.81-3.26a38.47,38.47,0,0,1,5.54-2.6s-8.79,8.14-10.1,9.11-.32,2.28,3.26.33l11.72-6.51-9.12,6.84s.65,1.62,3.26.32,8.79-4.56,8.79-4.56-5.54,4.24-3.91,4.24,4.89-2.28,7.49-4.24,7.49-6.83,7.49-6.83,22.79-6.19,32.55-10.42,13-11.4,12.38-16.61-6.84-21.48-6.84-21.48" style="fill:#fff;stroke:#263238;stroke-miterlimit:10"></path><path d="M196.1,105.4S184.55,116.07,183.37,125l3.26-.89s-8.29,11.25-8,23.69,27.84,21.32,37.61,21.62,19.25-4.15,29.61-10.37,6.22-20.73,3-29.91-4.74-18.36-19.84-26.65S202,101.56,196.1,105.4Z" style="fill:#263238;stroke:#263238;stroke-miterlimit:10"></path><path d="M194.62,140.35s1.19,14.51,6.52,23.69,16.88,8.88,21.91,8,9.47-3.85,11.84-14.21a59.94,59.94,0,0,0,.6-20.73l-5-8s-8.29,3.85-12.14,4.45-5.63.88-5.63.88l6.52-7.69a122.35,122.35,0,0,1-13,8.88C199.06,139.75,194.62,140.35,194.62,140.35Z" style="fill:#fff;stroke:#263238;stroke-miterlimit:10"></path><path d="M212.09,144.49c0,1.31-.66,2.37-1.48,2.37s-1.48-1.06-1.48-2.37.66-2.37,1.48-2.37S212.09,143.18,212.09,144.49Z" style="fill:#263238;stroke:#263238;stroke-miterlimit:10"></path><path d="M225.71,144.49c0,1.31-.66,2.37-1.48,2.37s-1.48-1.06-1.48-2.37.67-2.37,1.48-2.37S225.71,143.18,225.71,144.49Z" style="fill:#263238;stroke:#263238;stroke-miterlimit:10"></path><path d="M221,148.93a3.7,3.7,0,0,1-2.37,3c-2.08.59-4.15-1.49-4.15-1.49" style="fill:none;stroke:#263238;stroke-miterlimit:10"></path><line x1="215.94" y1="158.71" x2="219.5" y2="158.71" style="fill:none;stroke:#263238;stroke-miterlimit:10"></line><line x1="210.91" y1="136.2" x2="205.28" y2="142.12" style="fill:none;stroke:#263238;stroke-miterlimit:10"></line><line x1="223.05" y1="136.2" x2="228.97" y2="142.12" style="fill:none;stroke:#263238;stroke-miterlimit:10"></line><path d="M127.64,77.07V464H296.92V77.07ZM288.34,452.3H136.22V88.78H288.34Z" style="fill:#263238;stroke:#263238;stroke-miterlimit:10"></path><line x1="268.72" y1="124.38" x2="240.61" y2="176.24" style="fill:none;stroke:#263238;stroke-miterlimit:10"></line><line x1="284.54" y1="95.2" x2="274.69" y2="113.37" style="fill:none;stroke:#263238;stroke-miterlimit:10"></line><line x1="151.81" y1="403.34" x2="145.19" y2="415.56" style="fill:none;stroke:#263238;stroke-miterlimit:10"></line><line x1="189.11" y1="334.52" x2="156.19" y2="395.26" style="fill:none;stroke:#263238;stroke-miterlimit:10"></line><line x1="166.01" y1="360.48" x2="145.19" y2="398.9" style="fill:none;stroke:#263238;stroke-miterlimit:10"></line><line x1="272.42" y1="95.2" x2="255.46" y2="126.5" style="fill:none;stroke:#263238;stroke-miterlimit:10"></line></g><g id="Character"><path d="M381.21,222.26l-29.55,13.42-.32,7.08s40.49-6.09,47.89-8,3.12-6.94,0-13.52" style="fill:#fff;stroke:#263238;stroke-miterlimit:10"></path><path d="M388.14,234l-21.28-31.72c0,9.34-7.08,35.73-6.44,38.63S372,261.55,372,282.47s-13.52,72.1-13.52,72.1A119.6,119.6,0,0,0,363,368.73c2.89,7.4,4.5,19.31,4.5,31.22v41.52c0,3.22,2.45,13.25,2.9,15.13,1.61,6.76-1.61,7.08-1.61,7.08h-27l-.64-2.58,9.66-3.86,6.76-3.54s-4.19-26.71-6.76-37.34S337.25,371.63,336,366.15s-.64-51.82-.64-51.82L335,301.78l-2.9,5.47-2.25,45.39v31.22c0,14.8-3.87,54.39-3.87,60.83s1.61,12.23,1.61,15.77a3.26,3.26,0,0,1-3.22,3.54H300.23c-1.28,0-5.15-1.93-3.54-2.57s10.95-5.48,11.91-6.12,5.8-5.47,5.8-5.47,0-6.44-.65-12.23-4.18-34.12-6.11-44.74-2.58-28.65-2.58-37.34-1.93-15.45-4.5-25.1-5.8-41.52-3.22-54.72,9.65-23.82,12.23-29.29.32-10.3-.65-13.84-6.11-24.14-6.11-24.14l-5.47,38.95a93.51,93.51,0,0,1-1.93,18c-1.93,8.37-8.05,39.91-8.05,39.91s3.22,6.76,3.22,8.69.32,6.76-.32,9.66-2.26,1-2.26,1l1.93,6.44s-.32,2.9-1.6,3.86-5.48-2.25-5.48-2.25-1.93-7.73-2.25-10a96.54,96.54,0,0,1,.32-13.52c.32-2.57-1-35.4-1-41.2s2.57-16.09,3.22-19,3.21-61.47,5.79-68.23,8.37-10,15.77-10.62,16.42-1.93,18.35-4.19S325,155,325,155l19-.64s1,9.33,1.29,10.3,9.33,3.54,16.09,3.86,12.24-1.24,17.39,5.2,5.62,8.82,6.59,15.25,17,38.82,17,38.82" style="fill:#fff;stroke:#263238;stroke-miterlimit:10"></path><path d="M288.39,314.86a18.22,18.22,0,0,1-1.08,6.06,13.08,13.08,0,0,0-1.07,4.65l-.71,1.78s-.65,1,1.07,4.29" style="fill:none;stroke:#263238;stroke-miterlimit:10"></path><path d="M370.72,297.21A110.88,110.88,0,0,0,372,282.47a76.93,76.93,0,0,0-5-25.94c-31.31,9.76-53.36.92-61.14-3.16-3.06,5.76-6.83,13.46-8.56,22.34a61.23,61.23,0,0,0-.9,9.8C318.09,306.35,335,301.78,335,301.78,355.49,304.48,367.39,299,370.72,297.21Z" style="fill:#92E3A9;stroke:#263238;stroke-miterlimit:10"></path><path d="M335,301.78s4.5-7.72,5.15-15.13" style="fill:none;stroke:#263238;stroke-miterlimit:10"></path><path d="M339.82,252.54s-1.93-8.37-1.93-10.3,3.22-16.1,3.22-26.4" style="fill:none;stroke:#263238;stroke-miterlimit:10"></path><path d="M340.47,192.67s-.32-10.94-1.93-18.35" style="fill:none;stroke:#263238;stroke-miterlimit:10"></path><path d="M365,216c.77-4,1.4-7.85,1.68-10.83l.16-7-7.72-1.29-4.07-29.1c-1.39-.26-2.73-.55-3.95-.87l1.26,29H325.66l-4.33-28.78a20.4,20.4,0,0,1-3.33,1.08l.9,28.66-16.41,2.9.32,8.69s1.23,4.93,2.6,10.38A66.57,66.57,0,0,1,336.93,211C351.74,211.27,361.72,214.68,365,216Z" style="fill:#92E3A9;stroke:#263238;stroke-miterlimit:10"></path><path d="M302.49,199.75s-2.71-5.16-2.21-10.4" style="fill:none;stroke:#263238;stroke-miterlimit:10"></path><path d="M366.86,198.14s.82-2.3.82-9" style="fill:none;stroke:#263238;stroke-miterlimit:10"></path><path d="M332.84,89.91A19.5,19.5,0,0,0,316,91.27c-9.08,5-11.8,15-11.8,15l2.72.45s-5.9,14.08-7.72,25.88,5,18.17,9.54,20,21.34,7.27,32.69,5.91,25-7.27,28.15-15.9,1.82-31.78-8.17-43.59S341.92,83.1,332.84,89.91Z" style="fill:#263238;stroke:#263238;stroke-miterlimit:10"></path></g><g id="Floor"><line x1="470" y1="464" x2="481.94" y2="464" style="fill:none;stroke:#263238;stroke-miterlimit:10"></line><line x1="9" y1="464" x2="455" y2="464" style="fill:none;stroke:#263238;stroke-miterlimit:10"></line></g></svg>