<svg xmlns="http://www.w3.org/2000/svg" viewBox="0 0 500 500"><g id="background-simple"><path d="M472,260s-5-81-80-133-114.68-2.1-163,0S147,50,81,87,24,184,34,219s54,41,19,93S32,424,75,450s84,34,161,7,95.2-27.68,147.6-24.34S477,335,472,260Z" style="fill:#92E3A9"></path><path d="M472,260s-5-81-80-133-114.68-2.1-163,0S147,50,81,87,24,184,34,219s54,41,19,93S32,424,75,450s84,34,161,7,95.2-27.68,147.6-24.34S477,335,472,260Z" style="fill:#fff;opacity:0.7000000000000001"></path></g><g id="Floor"><path d="M479,450H32a.5.5,0,0,1,0-1H479a.5.5,0,0,1,0,1Z" style="fill:#263238"></path></g><g id="Plant"><path d="M402,340.77c2.36,1,8.14.9,8.14.9s-1.24-3.78-1.35-4c-1.27-2.65-5.28-7-8.54-6.59a3.89,3.89,0,0,0-3.12,4.88C397.66,338.21,400,339.89,402,340.77Z" style="fill:#263238"></path><path d="M477.65,321.11c-3.27-.36-7.16,4.13-8.35,6.81-.11.23-1.31,4.05-1.25,4.05h.07c-.62.7-1.27,1.46-2,2.31-1.28,1.57-2.71,3.36-4.14,5.41a68.91,68.91,0,0,0-4.29,6.83,51.34,51.34,0,0,0-3.67,8.25s0,.08,0,.11c0-1,0-3.66-.06-3.87-.38-2.91-2.82-8.32-6.05-8.92a3.91,3.91,0,0,0-4.5,3.66c-.18,2.32,1.49,4.64,3.13,6.1,1.85,1.65,7,3.24,7.38,3.37a70.29,70.29,0,0,0-2.17,8.94c-.31,1.76-.57,3.54-.81,5.33,0-.83,0-1.58,0-1.68-.38-2.91-2.82-8.32-6.06-8.92a3.89,3.89,0,0,0-4.49,3.66c-.19,2.32,1.49,4.63,3.12,6.1s6,2.93,7.16,3.3c-.08.69-.18,1.37-.26,2.06-.39,3.3-.77,6.6-1.24,9.82-.17,1.14-.37,2.25-.58,3.36,0-.74,0-1.36,0-1.45-.37-2.92-2.82-8.33-6-8.93a3.9,3.9,0,0,0-4.49,3.67c-.19,2.31,1.49,4.63,3.12,6.09s5.58,2.79,6.95,3.23c-.24,1.14-.48,2.28-.76,3.36-.21.74-.36,1.47-.62,2.2l-.69,2.16c-.5,1.36-1,2.77-1.51,4.08-.36.92-.71,1.78-1.06,2.66.18-1.13.48-3.35.48-3.54a15,15,0,0,0-2-7.35,4.91,4.91,0,0,0-.06-.86,3.89,3.89,0,0,0-4.76-3.31c-3.18.85-5.2,6.43-5.35,9.36,0,.18.11,2.07.2,3.26-.16-.69-.31-1.37-.48-2.08-.34-1.4-.71-2.8-1.11-4.3-.21-.72-.43-1.44-.66-2.17s-.51-1.48-.76-2.23c-.63-1.72-1.35-3.43-2.12-5.14,1.23-.29,5.59-1.4,7.34-2.75s3.59-3.52,3.57-5.84a3.9,3.9,0,0,0-4.21-4c-3.27.36-6.11,5.57-6.7,8.45,0,.18-.23,2.29-.32,3.45-.46-1-.93-2.05-1.43-3.07-1.46-2.94-3-5.88-4.59-8.81-.48-.9-.94-1.8-1.41-2.7.44-.1,5.64-1.31,7.6-2.81,1.75-1.34,3.59-3.52,3.58-5.85a3.89,3.89,0,0,0-4.21-4c-3.27.35-6.11,5.56-6.71,8.44,0,.22-.31,3.26-.35,4-1-2-2-4-2.95-6a68.45,68.45,0,0,1-3.21-8.3c.2,0,5.64-1.28,7.65-2.82,1.74-1.34,3.59-3.52,3.57-5.85a3.89,3.89,0,0,0-4.21-4c-3.27.35-6.11,5.56-6.7,8.44-.05.23-.34,3.5-.35,4.1-.05-.17-.12-.33-.17-.5a49.75,49.75,0,0,1-1.67-8.76c-.18-1.63-.26-3.2-.31-4.73,1-.13,5.77-.76,7.73-1.95s3.95-3.1,4.19-5.41a3.9,3.9,0,0,0-3.74-4.43c-3.3,0-6.69,4.86-7.6,7.66-.05.15-.38,1.75-.6,2.92,0-.69,0-1.4,0-2.07,0-2.49.16-4.76.32-6.78.09-1.15.21-2.18.32-3.15.95-.65,4.76-3.34,5.93-5.26s2.08-4.58,1.22-6.74a3.89,3.89,0,0,0-5.36-2.2c-2.92,1.51-3.69,7.39-3.21,10.29.05.25,1.15,4.1,1.2,4.06l.06,0c-.13.93-.26,1.93-.38,3-.2,2-.4,4.3-.46,6.8a67.39,67.39,0,0,0,.19,8.06,51,51,0,0,0,1.5,8.91.38.38,0,0,0,0,.1c-.52-.81-2-3-2.18-3.19-1.92-2.23-6.94-5.39-10-4.1a3.9,3.9,0,0,0-1.73,5.53c1.12,2,3.8,3,6,3.36,2.45.35,7.61-1.14,8-1.26a69.17,69.17,0,0,0,3.12,8.65c.71,1.64,1.48,3.27,2.26,4.9-.47-.69-.89-1.3-1-1.38-1.92-2.22-6.94-5.39-10-4.1a3.89,3.89,0,0,0-1.73,5.53c1.12,2,3.8,3,6,3.36s6.62-.87,7.79-1.19l.92,1.86c1.5,3,3,5.93,4.38,8.88.49,1,.93,2.08,1.38,3.12-.42-.61-.78-1.13-.84-1.2-1.92-2.22-6.94-5.38-10-4.1a3.91,3.91,0,0,0-1.73,5.54c1.12,2,3.8,3,6,3.35s6.2-.75,7.58-1.13c.43,1.08.86,2.16,1.22,3.22.23.73.51,1.42.7,2.17s.41,1.47.61,2.19c.34,1.41.69,2.85,1,4.23.21,1,.39,1.88.58,2.8-.47-1-1.44-3.05-1.54-3.21-1.57-2.49-6.05-6.38-9.24-5.56a3.88,3.88,0,0,0-2.54,5.2c.8,2.18,3.29,3.59,5.39,4.23,2.31.7,7.43.06,8.07,0,.3,1.53.59,3,.83,4.43q.56,3.18.94,5.87h-3V449.5h14.16V413.87h-1.87c.55-1.28,1.13-2.64,1.73-4.1s1.22-3,1.83-4.67c.62.13,5.69,1.16,8.05.63,2.14-.49,4.73-1.7,5.69-3.81a3.9,3.9,0,0,0-2.15-5.39c-3.12-1-7.88,2.5-9.62,4.86-.11.14-1,1.78-1.63,2.83.24-.67.49-1.31.74-2,.5-1.36.95-2.73,1.45-4.2.21-.72.43-1.44.65-2.18s.39-1.51.59-2.28c.42-1.78.76-3.6,1.07-5.45,1.19.43,5.43,1.91,7.63,1.76s4.94-1,6.21-2.91a3.89,3.89,0,0,0-1.31-5.64c-2.93-1.51-8.17,1.27-10.25,3.34-.13.13-1.46,1.79-2.17,2.71.17-1.11.35-2.22.49-3.35.41-3.26.72-6.58,1-9.89.1-1,.21-2,.31-3,.43.16,5.43,2,7.9,1.85,2.19-.15,4.93-.95,6.2-2.9a3.9,3.9,0,0,0-1.31-5.65c-2.92-1.5-8.17,1.28-10.25,3.35-.15.16-2.06,2.54-2.52,3.17.24-2.22.49-4.44.83-6.61a70,70,0,0,1,1.9-8.69c.2.08,5.41,2.05,7.94,1.87,2.19-.15,4.93-1,6.2-2.91a3.89,3.89,0,0,0-1.31-5.64c-2.92-1.51-8.17,1.27-10.25,3.34-.16.17-2.21,2.73-2.55,3.22.05-.16.08-.34.13-.5a49.69,49.69,0,0,1,3.44-8.22c.75-1.47,1.55-2.83,2.35-4.13.94.47,5.23,2.55,7.52,2.64s5-.41,6.49-2.2a3.91,3.91,0,0,0-.68-5.76c-2.75-1.82-8.26.37-10.56,2.2-.13.1-1.28,1.25-2.12,2.11.38-.59.75-1.2,1.12-1.75,1.37-2.07,2.76-3.88,4-5.48.71-.9,1.37-1.7,2-2.45,1.16,0,5.81-.16,7.85-1.11s4.26-2.68,4.74-5A3.89,3.89,0,0,0,477.65,321.11ZM441.42,409c-.76,1.76-1.49,3.37-2.19,4.86h-4.94c-.31-1.88-.68-4-1.13-6.23-.31-1.55-.66-3.2-1.05-4.9a39.44,39.44,0,0,0,4.5-2.12c1.69,1.83,6,4,6.56,4.23C442.58,406.3,442,407.7,441.42,409Z" style="fill:#263238"></path><path d="M460.41,342s1-3.84,1.09-4.09c.4-2.91-.53-8.78-3.49-10.21a3.9,3.9,0,0,0-5.3,2.35c-.79,2.18.22,4.86,1.41,6.7C455.52,339,460.41,342,460.41,342Z" style="fill:#263238"></path></g><g id="Graphics"><g style="opacity:0.30000000000000004"><path d="M240.22,132.35a.52.52,0,0,1-.38-.17.51.51,0,0,1,0-.68l0,0h0c3.36-2.65,6.24-7.4,9-12a76.46,76.46,0,0,1,4.69-7.17,142.32,142.32,0,0,1,13.2-15h0c14.24-13.85,28.57-19.65,43.83-17.73,13,1.64,19,11.25,18.19,19.9-.87,9.73-10.48,19.1-30,18.07-36.64-1.93-58,14.46-58.3,14.71h0A.45.45,0,0,1,240.22,132.35ZM267.52,98a141.43,141.43,0,0,0-13.11,14.92,78.46,78.46,0,0,0-4.62,7.07,80.09,80.09,0,0,1-5.87,8.8c7.87-4.69,26.94-13.73,55-12.26,18.86,1,28.14-7.9,29-17.16.73-8.17-5-17.26-17.32-18.82-14.92-1.88-29,3.83-43,17.45Z"></path><path d="M47.47,210.84c-6.58,0-11.3-3-13.61-7.27-3.26-6-1.95-14.78,6.87-20,10.33-6.12,22.4-6.44,36.91-.95a113,113,0,0,1,14.11,6.64,65.28,65.28,0,0,1,5.58,3.67c3.41,2.41,6.93,4.9,10.14,5.75a.53.53,0,0,1,.17.08.51.51,0,0,1,.18.54.5.5,0,0,1-.61.34h0c-.32-.08-20.63-5.14-46.15,7.59A30.79,30.79,0,0,1,47.47,210.84Zm11.16-31.12a33.45,33.45,0,0,0-17.4,4.7c-8.26,4.91-9.52,13.11-6.49,18.67,3.44,6.32,12.78,9.76,25.88,3.23,19.14-9.55,35.13-9.28,42.51-8.41a68.77,68.77,0,0,1-6.38-4.17,61.54,61.54,0,0,0-5.48-3.61,109.64,109.64,0,0,0-14-6.58A52.91,52.91,0,0,0,58.63,179.72Z"></path><path d="M37.4,303c-6.6,0-13.5-5-14.41-14.8-1.1-12,3.79-23,15-33.76h0a111.19,111.19,0,0,1,12-9.9,63.73,63.73,0,0,1,5.72-3.47c3.63-2,7.39-4.16,9.53-6.69a.44.44,0,0,1,.15-.12.5.5,0,0,1,.57.07.49.49,0,0,1,0,.69h0c-.23.28-13.49,16.46-12.93,45,.3,15.3-7.29,22.58-14.95,23Zm1.25-47.84C27.71,265.71,22.91,276.49,24,288.13c.89,9.57,7.76,14.23,14.08,13.87,7.18-.4,14.3-7.36,14-22-.42-21.39,6.67-35.72,10.62-42a70.38,70.38,0,0,1-6.49,4,59.7,59.7,0,0,0-5.62,3.41,112.73,112.73,0,0,0-11.94,9.81Z"></path><path d="M445.93,254h-.5c-5.18-.29-10.32-5.19-10.12-15.5.37-18.93-8.42-29.65-8.57-29.83h0a.5.5,0,0,1,.6-.77,1,1,0,0,1,.13.14l0,0c1.41,1.67,3.9,3.07,6.31,4.42a43,43,0,0,1,3.82,2.33,74.31,74.31,0,0,1,8,6.61h0c7.49,7.2,10.77,14.6,10,22.63C455.08,250.65,450.4,254,445.93,254Zm-16.34-42.92c2.74,4.54,7,13.84,6.72,27.43-.19,9.64,4.48,14.22,9.18,14.48,4.12.22,8.63-2.81,9.21-9.09.71-7.7-2.47-14.83-9.72-21.81h0a73.64,73.64,0,0,0-7.94-6.52,38.28,38.28,0,0,0-3.72-2.26C432,212.59,430.75,211.86,429.59,211.08Z"></path><path d="M178.8,88.5a.44.44,0,0,1-.22,0,.5.5,0,0,1-.25-.6l.07-.12h0c1.88-2.73,2.91-6.92,3.92-11a59.6,59.6,0,0,1,1.83-6.43,111.48,111.48,0,0,1,6.34-14.25h0c7.4-13.63,16.74-21.28,28.56-23.39,10.09-1.81,16.83,4,18.27,10.66,1.62,7.5-3.38,16.75-18.21,20.53C191.44,70.92,179.41,88,179.22,88.28h0A.51.51,0,0,1,178.8,88.5Zm43.86-55.15a19.89,19.89,0,0,0-3.44.31c-11.51,2.05-20.62,9.54-27.86,22.89h0a110.17,110.17,0,0,0-6.29,14.12A63.62,63.62,0,0,0,183.28,77a69.07,69.07,0,0,1-2.14,7.45c5.07-5.52,17.19-16.31,37.72-21.54,14.18-3.61,19-12.32,17.47-19.35C235.16,38.14,230.2,33.35,222.66,33.35Zm-31.74,23h0Z"></path><path d="M434.47,149.35c-6,0-13-3.88-18.5-13.62-14.08-24.8-33.24-31.75-34.07-32h0a.5.5,0,1,1,.33-1c3.13,1.09,7.45,1,11.61.89a60.87,60.87,0,0,1,6.69.07,111.64,111.64,0,0,1,15.41,2.35c15.1,3.54,24.95,10.54,30.11,21.39,4.4,9.25.58,17.28-5.47,20.43A13.19,13.19,0,0,1,434.47,149.35Zm-48.23-44.81c6.6,3.39,20,12.09,30.6,30.7,7.23,12.73,16.9,15.07,23.28,11.75,5.62-2.92,9.15-10.43,5-19.11-5-10.56-14.64-17.38-29.43-20.84h0a111,111,0,0,0-15.27-2.34,61.29,61.29,0,0,0-6.57-.06A68.78,68.78,0,0,1,386.24,104.54Z"></path><path d="M160.33,66.38a8,8,0,1,1,8-8A8,8,0,0,1,160.33,66.38Zm0-15a7,7,0,1,0,7,7A7,7,0,0,0,160.33,51.41Z"></path><path d="M68.3,90.09a8.3,8.3,0,1,1,8.3-8.3A8.31,8.31,0,0,1,68.3,90.09Zm0-15.6a7.3,7.3,0,1,0,7.3,7.3A7.31,7.31,0,0,0,68.3,74.49Z"></path><path d="M107.92,117.55a4.25,4.25,0,1,1,4.24-4.25A4.26,4.26,0,0,1,107.92,117.55Zm0-7.49a3.25,3.25,0,1,0,3.24,3.24A3.25,3.25,0,0,0,107.92,110.06Z"></path><path d="M444.39,270.1a4.24,4.24,0,1,1,4.24-4.24A4.25,4.25,0,0,1,444.39,270.1Zm0-7.48a3.24,3.24,0,1,0,3.24,3.24A3.25,3.25,0,0,0,444.39,262.62Z"></path><path d="M300,386.5a4.25,4.25,0,1,1,4.24-4.24A4.24,4.24,0,0,1,300,386.5Zm0-7.49a3.25,3.25,0,1,0,3.24,3.25A3.25,3.25,0,0,0,300,379Z"></path><path d="M121.33,51.41a4.56,4.56,0,1,1,4.56-4.56A4.56,4.56,0,0,1,121.33,51.41Zm0-8.11a3.56,3.56,0,1,0,3.56,3.55A3.55,3.55,0,0,0,121.33,43.3Z"></path><path d="M233.33,113.8a4.25,4.25,0,1,1,4.24-4.24A4.24,4.24,0,0,1,233.33,113.8Zm0-7.49a3.25,3.25,0,1,0,3.24,3.25A3.25,3.25,0,0,0,233.33,106.31Z"></path><path d="M330.67,143.75a4.87,4.87,0,1,1,4.86-4.87A4.87,4.87,0,0,1,330.67,143.75Zm0-8.73a3.87,3.87,0,1,0,3.86,3.86A3.86,3.86,0,0,0,330.67,135Z"></path><path d="M369.66,87.6a3.94,3.94,0,1,1,3.93-3.94A3.95,3.95,0,0,1,369.66,87.6Zm0-6.87a2.94,2.94,0,1,0,2.93,2.93A2.94,2.94,0,0,0,369.66,80.73Z"></path><path d="M409,145.62a2.68,2.68,0,1,1,2.69-2.68A2.68,2.68,0,0,1,409,145.62Zm0-4.36a1.68,1.68,0,1,0,1.69,1.68A1.68,1.68,0,0,0,409,141.26Z"></path><path d="M293.68,143.2a2.69,2.69,0,1,1,2.68-2.68A2.69,2.69,0,0,1,293.68,143.2Zm0-4.37a1.69,1.69,0,1,0,1.68,1.69A1.69,1.69,0,0,0,293.68,138.83Z"></path><path d="M384.82,376.68A2.68,2.68,0,1,1,387.5,374,2.69,2.69,0,0,1,384.82,376.68Zm0-4.36A1.68,1.68,0,1,0,386.5,374,1.69,1.69,0,0,0,384.82,372.32Z"></path><path d="M290.42,179.94a5.18,5.18,0,1,1,5.18-5.18A5.19,5.19,0,0,1,290.42,179.94Zm0-9.36a4.18,4.18,0,1,0,4.18,4.18A4.19,4.19,0,0,0,290.42,170.58Z"></path><path d="M260.5,264.85a5.18,5.18,0,1,1,5.18-5.18A5.18,5.18,0,0,1,260.5,264.85Zm0-9.36a4.18,4.18,0,1,0,4.18,4.18A4.19,4.19,0,0,0,260.5,255.49Z"></path></g></g><g id="character-2"><path d="M359.13,218.94s-8.05-2.86-9.87,4.41,8.83,9.87,10.13,9.87,3.37-1.82,2.08-6S359.13,218.94,359.13,218.94Z" style="fill:#263238"></path><path d="M359.39,233.72c-1,0-6.71-1.3-9.42-4.77a6.35,6.35,0,0,1-1.19-5.72,6.63,6.63,0,0,1,3.24-4.51c3.14-1.69,7.11-.31,7.28-.25a.48.48,0,0,1,.31.35s1.05,4.18,2.33,8.28c.93,3,.16,4.65-.39,5.38A2.81,2.81,0,0,1,359.39,233.72Zm-3.73-14.83a6.72,6.72,0,0,0-3.17.71,5.69,5.69,0,0,0-2.74,3.87,5.4,5.4,0,0,0,1,4.86c2.48,3.18,7.86,4.39,8.63,4.39a1.83,1.83,0,0,0,1.36-.83c.43-.58,1-1.95.24-4.5-1.1-3.51-2-7.07-2.28-8.06A11.18,11.18,0,0,0,355.66,218.89Z" style="fill:#263238"></path><path d="M404.83,201.28s-.78,10.39-.78,14.54,4.41,5.71,6.49,5.71,3.12,4.94,1.82,10.13S406.65,240,396,240s-17.14-4.68-17.4-8.05,2.34-17.92,6.75-21.81S404.83,201.28,404.83,201.28Z" style="fill:#263238"></path><path d="M396,240.47c-11.1,0-17.63-5-17.9-8.51-.24-3.16,2.28-18.13,6.92-22.23,4.44-3.91,19-8.72,19.65-8.92a.48.48,0,0,1,.47.08.5.5,0,0,1,.19.43c0,.1-.78,10.41-.78,14.5s4.39,5.21,6,5.21a2,2,0,0,1,1.62.89c1.38,1.77,1.67,5.91.68,9.86C411.36,237.71,406,240.47,396,240.47ZM404.27,202c-3,1-14.84,5.19-18.59,8.49-4.15,3.67-6.85,17.93-6.58,21.4.24,3.17,6.79,7.59,16.9,7.59,9.61,0,14.5-2.45,15.87-7.93,1-4.12.51-7.71-.5-9a1.09,1.09,0,0,0-.83-.5c-2.44,0-7-1.82-7-6.21C403.55,212.35,404.1,204.46,404.27,202Z" style="fill:#263238"></path><path d="M365.88,233.22s-7-3.64-11.94-3.12S327,257.18,327,257.18s-6.52-19.38-6.52-22.52v-3.14s.86-4.72,1.14-5.86.57-6.57,1.14-7.43,1.43-4.57-.57-2.57a11,11,0,0,0-2.57,5.14l-1.14-12.56s-1.71-1.15-1.71.57v9.71s-3.15-10.28-3.15-11.14-1.42-1.71-1.42.57.85,10.85.85,10.85l-4-10s-2.29,0-1.72,1.71,2.57,8.86,2.57,8.86-2.85-2-2.85-2.86-1.72,0-1.15,1.14,3.72,5.43,3.72,5.43.28,4.28,1.71,6.57a20.59,20.59,0,0,1,2,4s1.37,28.64,3.19,37.21,5.45,8.31,7.27,6.75l22.07-19,1.55,10.39S335,289,336,290.6s48.35,10.21,49.65,10.73,1,0,1.76-2-1-25.57-1-25.57l2.6-2.59,1.56,13s3.63,6.23,6.23,6.49,6.49,2.6,8.57-6.75-2.6-41.8-5.46-45.7-14.28-1.82-14.28-1.82Z" style="fill:#fff"></path><path d="M386.36,302a2.56,2.56,0,0,1-.88-.23c-.43-.16-5.52-1.15-11.41-2.31-28.49-5.57-37.83-7.66-38.47-8.61-1.05-1.58,6.6-14.35,11.32-21.94l-1.39-9.31L324.14,278a3.59,3.59,0,0,1-3.52.79c-2.08-.7-3.61-3.33-4.56-7.82-1.76-8.3-3.12-35.6-3.2-37.22a21.37,21.37,0,0,0-1.92-3.83c-1.35-2.14-1.72-5.86-1.78-6.65-.52-.71-3.14-4.31-3.67-5.38a1.47,1.47,0,0,1,.23-1.71,1.31,1.31,0,0,1,1.35-.45.8.8,0,0,1,.51.79,5,5,0,0,0,1.47,1.55c-.62-2.17-1.76-6.18-2.16-7.39a1.6,1.6,0,0,1,.15-1.53,2.71,2.71,0,0,1,2-.84.5.5,0,0,1,.46.31l2.71,6.77c-.25-2.66-.53-6.09-.53-7.44,0-1.77.81-2,1.16-2a1.4,1.4,0,0,1,1.26,1.39c0,.49,1.1,4.25,2.15,7.75v-6.32a1.32,1.32,0,0,1,.62-1.31c.73-.4,1.68.2,1.87.32a.55.55,0,0,1,.22.37l.92,10.1a9.63,9.63,0,0,1,1.94-3c.27-.27,1.09-1.09,1.75-.56.84.7,0,3.21-.41,3.76a23.38,23.38,0,0,0-.73,4.63c-.12,1.17-.23,2.18-.34,2.64-.28,1.12-1.13,5.78-1.14,5.83v3c0,2.32,3.91,14.62,6.21,21.51,4-4.78,22-26.07,26.67-26.57s11.35,2.73,12.16,3.14l19.57,3.09c1.15-.2,11.78-1.94,14.69,2,3.09,4.21,7.53,37.1,5.53,46.1-1.89,8.53-5.42,7.83-8,7.32-.39-.07-.76-.15-1.1-.18-2.77-.28-6.23-6.08-6.61-6.74a.44.44,0,0,1-.07-.19l-1.44-12-1.7,1.7c.25,3.3,1.76,23.49,1,25.55-.19.49-.31.89-.4,1.21-.2.65-.33,1.07-.74,1.27A.93.93,0,0,1,386.36,302Zm-49.91-11.72c1.9,1.18,25.22,5.74,37.82,8.2,7.52,1.47,11.16,2.19,11.58,2.36s.47.17.52.15a3.33,3.33,0,0,1,.17-.64c.1-.34.23-.75.42-1.27.54-1.45-.34-15.95-1.07-25.35a.52.52,0,0,1,.15-.39l2.59-2.6a.53.53,0,0,1,.52-.12.51.51,0,0,1,.33.42L391,284c1,1.73,3.91,6,5.8,6.15.37,0,.77.12,1.19.2,2.42.48,5.15,1,6.84-6.56,2.12-9.53-2.65-41.59-5.37-45.29s-13.68-1.64-13.79-1.62h-.16l-19.74-3.12a.44.44,0,0,1-.15-.05c-.07,0-6.94-3.55-11.66-3.06-3.88.41-20.51,19.55-26.59,26.9a.5.5,0,0,1-.47.17.51.51,0,0,1-.39-.33c-.26-.8-6.54-19.49-6.54-22.68v-3.14c0-.28.87-4.84,1.16-6,.09-.39.2-1.42.32-2.51.28-2.68.49-4.48.89-5.07a5.45,5.45,0,0,0,.6-2.29,2.91,2.91,0,0,0-.4.35,10.69,10.69,0,0,0-2.44,4.87.5.5,0,0,1-1,0L318,208.54a1.09,1.09,0,0,0-.65-.16s-.09.11-.09.43v9.71a.5.5,0,0,1-1,.15c-.53-1.73-3.17-10.4-3.17-11.29a.45.45,0,0,0-.26-.39,1.89,1.89,0,0,0-.16,1c0,2.24.84,10.72.85,10.8a.5.5,0,0,1-.38.54.5.5,0,0,1-.58-.3l-3.86-9.65a1.36,1.36,0,0,0-.9.39c0,.06-.15.22,0,.63.56,1.71,2.49,8.59,2.57,8.88a.5.5,0,0,1-.77.55c-1.06-.75-2.8-2.09-3-3.06a.74.74,0,0,0-.21.22.48.48,0,0,0,0,.49c.55,1.09,3.64,5.31,3.67,5.35a.52.52,0,0,1,.1.27s.29,4.18,1.63,6.33a20.52,20.52,0,0,1,2.05,4.11.31.31,0,0,1,0,.13c0,.29,1.39,28.7,3.18,37.13.84,4,2.23,6.52,3.9,7.09a2.69,2.69,0,0,0,2.55-.61l22.07-18.95a.48.48,0,0,1,.5-.09.49.49,0,0,1,.32.39L347.94,269a.49.49,0,0,1-.07.33C342.13,278.53,336.35,288.79,336.45,290.31Z" style="fill:#263238"></path><path d="M317.82,231.64a.49.49,0,0,1-.47-.34s-.25-.71-1.7-3.82c-1.67-3.59,3.5-7,3.72-7.1a.5.5,0,0,1,.69.15.51.51,0,0,1-.15.7s-4.66,3-3.36,5.82c1.51,3.22,1.74,3.9,1.75,3.93a.5.5,0,0,1-.32.63A.41.41,0,0,1,317.82,231.64Z" style="fill:#263238"></path><path d="M310.51,220.88a.51.51,0,0,1-.4-.2.5.5,0,0,1,.09-.7c.16-.12,4-3,6.77-1.93a.5.5,0,0,1,.28.65.5.5,0,0,1-.65.28c-2.24-.88-5.75,1.77-5.79,1.8A.49.49,0,0,1,310.51,220.88Z" style="fill:#263238"></path><path d="M321.33,349.67l2,27.33S316,386.67,314,396.33,311,431,311,431s-5,15.33-2.67,20.67,5.67,4,6.67-.67,2.33-22.67,2.33-22.67,21.34-43,21.67-50,3.67-26.66,3.67-26.66S329.33,344.67,321.33,349.67Z" style="fill:#fff"></path><path d="M311.8,455.62c-.95,0-2.53-.57-3.92-3.75-2.33-5.32,2.22-19.71,2.62-21,.06-1.47,1.08-25.33,3-34.68,1.86-9,8.37-18.09,9.31-19.38l-2-27.15a.51.51,0,0,1,.24-.46c8.15-5.09,21.27,1.69,21.83,2a.51.51,0,0,1,.26.53c0,.2-3.33,19.72-3.66,26.61s-20.32,47.37-21.68,50.11c-.11,1.58-1.36,18.11-2.33,22.63-.57,2.66-1.86,4.35-3.46,4.51Zm10.05-105.68,2,27a.51.51,0,0,1-.1.34c-.07.1-7.29,9.69-9.24,19.13s-3,34.34-3,34.59a.68.68,0,0,1,0,.14c-.05.15-4.92,15.21-2.69,20.31.92,2.11,2.06,3.26,3.14,3.14s2.12-1.57,2.58-3.71c1-4.58,2.31-22.42,2.32-22.6a1.05,1.05,0,0,1,.05-.19c.22-.43,21.3-43,21.62-49.8.31-6.42,3.16-23.63,3.61-26.36C340.07,351,328.86,345.85,321.85,349.94Z" style="fill:#263238"></path><path d="M367.41,350l-3.6,27.17S370.57,387.23,372,397s1,34.78,1,34.78,4.09,15.6,1.45,20.79-5.89,3.66-6.61-1.06-1-22.76-1-22.76-18.77-44.18-18.7-51.19S346,350.73,346,350.73,359.72,344.52,367.41,350Z" style="fill:#fff"></path><path d="M370.86,456.32a3.7,3.7,0,0,1-.37,0c-1.58-.26-2.78-2-3.19-4.7-.7-4.57-1-21.15-1-22.74-1.2-2.81-18.78-44.35-18.71-51.29s-2.07-26.58-2.09-26.78a.49.49,0,0,1,.29-.51c.57-.26,14.07-6.26,21.91-.7a.52.52,0,0,1,.21.48l-3.58,27c.87,1.34,6.83,10.8,8.16,19.9,1.38,9.44,1,33.32,1,34.79.33,1.27,4,15.9,1.4,21.07C373.35,455.75,371.82,456.32,370.86,456.32ZM346.53,351c.3,2.75,2.13,20.1,2.06,26.53-.07,6.82,18.48,50.54,18.66,51a.41.41,0,0,1,0,.19c0,.18.29,18.07,1,22.7.33,2.17,1.26,3.68,2.36,3.86s2.27-.91,3.32-3c2.52-5-1.45-20.28-1.49-20.43a.34.34,0,0,1,0-.14c0-.25.45-25.09-1-34.7s-8-19.54-8.1-19.64a.47.47,0,0,1-.08-.35l3.55-26.86C360.12,345.73,348.62,350.17,346.53,351Z" style="fill:#263238"></path><path d="M337.33,288.67S326,301.33,322.67,317s-1.34,37-1.34,37,11-1.33,27,2.67,19,7.66,19,7.66S386,338,386,326.33s-.33-25-.33-25S353.67,286.33,337.33,288.67Z" style="fill:#263238"></path><path d="M367.33,364.83a.46.46,0,0,1-.38-.18s-3.22-3.62-18.74-7.5c-15.71-3.92-26.71-2.67-26.82-2.65a.54.54,0,0,1-.37-.11.53.53,0,0,1-.19-.34c0-.22-2-21.59,1.35-37.15s14.67-28.44,14.78-28.57a.59.59,0,0,1,.3-.16c16.3-2.33,47.31,12.1,48.62,12.71a.51.51,0,0,1,.29.44c0,.13.33,13.47.33,25,0,11.69-18,37.21-18.76,38.29a.47.47,0,0,1-.39.21Zm-41.15-11.54a92.94,92.94,0,0,1,22.27,2.89c13,3.24,17.49,6.28,18.81,7.39,2.49-3.6,18.24-26.71,18.24-37.24s-.28-22.6-.33-24.67c-3.17-1.46-32.34-14.57-47.58-12.52-1.22,1.4-11.35,13.47-14.43,28-3,14.1-1.64,33-1.37,36.35C322.52,353.39,324,353.29,326.18,353.29Z" style="fill:#263238"></path><path d="M385.8,307.41c-.07-3.66-.13-6.08-.13-6.08s-32-15-48.34-12.66A69.43,69.43,0,0,0,331,297.3Z" style="fill:#92E3A9"></path><path d="M385.8,307.91h-.09L331,297.79a.5.5,0,0,1-.37-.29.52.52,0,0,1,0-.47,73.43,73.43,0,0,1,6.35-8.7.59.59,0,0,1,.3-.16c16.3-2.33,47.31,12.1,48.62,12.71a.51.51,0,0,1,.29.44s.06,2.42.13,6.08a.52.52,0,0,1-.18.39A.49.49,0,0,1,385.8,307.91Zm-53.94-11,53.42,9.87c0-2.58-.09-4.45-.11-5.15-3.17-1.46-32.34-14.57-47.58-12.52A70.12,70.12,0,0,0,331.86,296.94Z" style="fill:#263238"></path><path d="M316.22,441.36c-1.21,1.38-2.72,2.81-3.89,3-2.33.34-3-4.66-3-4.66l-.47-.66c-1,4.58-1.72,9.93-.53,12.66,2.34,5.33,5.67,4,6.67-.67C315.39,449.19,315.83,445.36,316.22,441.36Z" style="fill:#263238"></path><path d="M311.8,455.62c-.95,0-2.53-.57-3.92-3.75-1-2.35-.87-6.71.49-13a.52.52,0,0,1,.39-.39.53.53,0,0,1,.51.2l.47.65a.5.5,0,0,1,.09.23c.11.86.64,3.25,1.65,4a1,1,0,0,0,.78.22c.83-.12,2.1-1.12,3.58-2.81a.53.53,0,0,1,.58-.13.51.51,0,0,1,.3.51c-.48,4.84-.89,8.1-1.23,9.69-.57,2.66-1.86,4.35-3.46,4.51ZM309,440.72c-1,5.12-1.07,8.82-.23,10.75.92,2.11,2.06,3.26,3.14,3.14s2.12-1.57,2.58-3.71c.3-1.39.66-4.12,1.06-8.12a6.36,6.36,0,0,1-3.17,2.05,2,2,0,0,1-1.52-.41C309.83,443.62,309.28,441.84,309,440.72Z" style="fill:#263238"></path><path d="M371.67,447.67c-1.7.63-3.39-1.43-4.4-3,.14,2.9.31,5.46.53,6.85.72,4.72,4,6.25,6.61,1.06,1.21-2.38,1-6.93.43-11.17C374.52,443.25,373.65,446.92,371.67,447.67Z" style="fill:#263238"></path><path d="M370.86,456.32a3.7,3.7,0,0,1-.37,0c-1.58-.26-2.78-2-3.19-4.7-.19-1.26-.37-3.58-.53-6.91a.5.5,0,0,1,.35-.5.51.51,0,0,1,.57.21c.81,1.28,2.39,3.33,3.8,2.81h0c1.77-.67,2.59-4.34,2.86-5.89a.49.49,0,0,1,.49-.41h0a.5.5,0,0,1,.49.43c.75,5.51.58,9.37-.48,11.46C373.35,455.75,371.82,456.32,370.86,456.32Zm-3-10c.14,2.39.29,4.11.44,5.11.33,2.17,1.26,3.68,2.36,3.86s2.27-.91,3.32-3c.77-1.53,1-4.29.69-8.08-.56,1.69-1.44,3.36-2.82,3.87h0C370.59,448.6,369.23,448,367.85,446.33Zm3.82,1.34h0Z" style="fill:#263238"></path><path d="M385.61,236.33l-19.73-3.11s-7-3.64-11.94-3.12S327,257.18,327,257.18s-1.8-6.57-3.26-10.67a28.73,28.73,0,0,1-9.61,4.72,197.77,197.77,0,0,0,2.4,19.64c1.81,8.57,5.45,8.31,7.27,6.75l22.07-19,1.55,10.39S335,289,336,290.6s43.68,9.21,45,9.73,5.72,3,6.22.48c.92-4.52-.83-27.09-.83-27.09l2.6-2.59,1.56,13s3.63,6.23,6.23,6.49,6.49,2.6,8.57-6.75-2.6-41.8-5.46-45.7S385.61,236.33,385.61,236.33Z" style="fill:#92E3A9"></path><path d="M385.72,302.42a11.57,11.57,0,0,1-4.21-1.32l-.7-.3c-.41-.16-5-1.05-10.41-2.09-25.71-5-34.16-6.88-34.8-7.83-1.05-1.58,6.6-14.35,11.32-21.94l-1.39-9.31L324.14,278a3.59,3.59,0,0,1-3.52.79c-2.08-.7-3.61-3.33-4.56-7.82a196.76,196.76,0,0,1-2.41-19.71.49.49,0,0,1,.38-.51,28.1,28.1,0,0,0,9.41-4.63.52.52,0,0,1,.45-.09.5.5,0,0,1,.34.31c1.13,3.16,2.46,7.82,3,9.78,4.06-4.86,22-26,26.64-26.52s11.35,2.73,12.16,3.14l19.57,3.09c1.14-.2,11.78-1.94,14.69,2,3.09,4.21,7.53,37.1,5.53,46.1-1.89,8.53-5.42,7.83-8,7.32-.39-.07-.76-.15-1.1-.18-2.77-.28-6.23-6.08-6.61-6.74a.44.44,0,0,1-.07-.19l-1.44-12-1.7,1.71c.19,2.52,1.68,22.64.8,27a1.75,1.75,0,0,1-.91,1.28A2.38,2.38,0,0,1,385.72,302.42Zm-49.27-12.1c1.77,1.14,22.78,5.21,34.14,7.41,6.86,1.32,10.17,2,10.6,2.14l.73.32c1.13.52,3.48,1.59,4.42,1.11a.74.74,0,0,0,.39-.58c.9-4.41-.82-26.73-.84-27a.52.52,0,0,1,.15-.39l2.59-2.6a.53.53,0,0,1,.52-.12.51.51,0,0,1,.33.42L391,284c1,1.73,3.91,6,5.8,6.15.37,0,.77.12,1.19.2,2.42.48,5.15,1,6.84-6.56,2.12-9.53-2.65-41.59-5.37-45.29s-13.68-1.64-13.79-1.62h-.16l-19.74-3.12a.44.44,0,0,1-.15-.05c-.07,0-6.94-3.55-11.66-3.06-3.88.41-20.51,19.55-26.59,26.9a.5.5,0,0,1-.49.17.49.49,0,0,1-.37-.36c0-.06-1.63-5.94-3-10a30.52,30.52,0,0,1-8.85,4.28c.44,6.22,1.68,15.94,2.37,19.15.84,4,2.23,6.52,3.9,7.09a2.69,2.69,0,0,0,2.55-.61l22.07-18.95a.48.48,0,0,1,.5-.09.49.49,0,0,1,.32.39L347.94,269a.49.49,0,0,1-.07.33C342.12,278.53,336.34,288.81,336.45,290.32Z" style="fill:#263238"></path><line x1="388.99" y1="271.13" x2="387.35" y2="259.23" style="fill:#fff"></line><path d="M389,271.63a.51.51,0,0,1-.5-.43l-1.64-11.91a.5.5,0,0,1,.43-.56.51.51,0,0,1,.56.43l1.64,11.9a.5.5,0,0,1-.42.56Z" style="fill:#263238"></path><path d="M345.89,259.16a.49.49,0,0,1-.49-.39c-1.38-6.22,5.16-15.49,5.44-15.88a.5.5,0,1,1,.81.58c-.06.09-6.56,9.3-5.27,15.09a.51.51,0,0,1-.38.59Z" style="fill:#263238"></path><path d="M365.88,233.22v3.91a3.28,3.28,0,0,0,1.93,3,18.29,18.29,0,0,0,5.86,1.41c4.06.37,9.16-1.49,11.78-2.6a2.83,2.83,0,0,0,1.72-2.61v-4.21a1.56,1.56,0,0,0-2.26-1.4l-.85.43S371.33,233,365.88,233.22Z" style="fill:#92E3A9"></path><path d="M374.76,242.07a10.75,10.75,0,0,1-1.14,0,18.8,18.8,0,0,1-6-1.45,3.78,3.78,0,0,1-2.22-3.44v-3.91a.5.5,0,0,1,.48-.5c5.14-.25,16.95-1.91,18-2.06l.78-.39a2.07,2.07,0,0,1,3,1.84v4.21a3.32,3.32,0,0,1-2,3.07C383.18,240.43,378.68,242.07,374.76,242.07Zm-8.38-8.38v3.44a2.79,2.79,0,0,0,1.63,2.53,17.67,17.67,0,0,0,5.7,1.37c3.93.35,8.92-1.45,11.54-2.56a2.31,2.31,0,0,0,1.42-2.15v-4.21a1.05,1.05,0,0,0-.5-.9,1.07,1.07,0,0,0-1-.05l-.85.43-.15,0C384,231.65,372,233.36,366.38,233.69Z" style="fill:#263238"></path><path d="M360.17,199.2a109.63,109.63,0,0,0-2.86,17.4c-.78,9.61,0,18.44,3.9,18.69a14.18,14.18,0,0,0,7.53-2.07s9.08,1,12.2-.52l3.12-1.56,2.33-15.32s.26-23.63-4.15-25.19S360.17,199.2,360.17,199.2Z" style="fill:#fff"></path><path d="M361.82,235.82l-.65,0a3.14,3.14,0,0,1-2.23-1.18c-2.86-3.31-2.56-12.73-2.13-18.05a112.68,112.68,0,0,1,2.87-17.49.54.54,0,0,1,.24-.3c1.83-1.05,18-10.2,22.48-8.61s4.52,23.21,4.49,25.67l-2.34,15.39a.49.49,0,0,1-.27.37l-3.12,1.56c-3,1.5-11,.72-12.31.58A14.71,14.71,0,0,1,361.82,235.82Zm-1.22-36.29a111.19,111.19,0,0,0-2.79,17.11c-.71,8.79,0,15.1,1.89,17.32a2.21,2.21,0,0,0,1.54.84,13.61,13.61,0,0,0,7.22-2,.49.49,0,0,1,.33-.08c.09,0,9,1,11.93-.47l2.88-1.44,2.3-15.06c.09-8.93-.86-23.6-3.83-24.64C378.65,189.9,365.6,196.68,360.6,199.53Z" style="fill:#263238"></path><path d="M364.3,220.69a3.17,3.17,0,0,1-3.32-2.15c-.19-.77,0-1.89,1.87-2.9a10.2,10.2,0,0,1,1.87-.75l2-5.22a.5.5,0,1,1,.93.36l-2.07,5.45a.52.52,0,0,1-.35.31c-1,.24-3.59,1.21-3.27,2.51.41,1.63,2.7,1.37,2.73,1.37a.5.5,0,0,1,.12,1A3.84,3.84,0,0,1,364.3,220.69Z" style="fill:#263238"></path><path d="M364.84,225.82c0,1.5-.58,2.72-1.3,2.72s-1.3-1.22-1.3-2.72.59-2.73,1.3-2.73S364.84,224.31,364.84,225.82Z" style="fill:#263238"></path><path d="M373.86,212.2c-.43,1.15-1.27,1.89-1.87,1.66s-.75-1.33-.32-2.47,1.26-1.89,1.86-1.66S374.28,211.06,373.86,212.2Z" style="fill:#263238"></path><path d="M364.06,209.59c-.42,1.14-1.26,1.88-1.86,1.66s-.75-1.34-.33-2.48,1.26-1.88,1.87-1.66S364.49,208.45,364.06,209.59Z" style="fill:#263238"></path><path d="M377.3,208.79a.49.49,0,0,1-.49-.44,3.32,3.32,0,0,0-1.31-2.52,4.87,4.87,0,0,0-3.52-.43.5.5,0,0,1-.26-1,5.87,5.87,0,0,1,4.35.58,4.24,4.24,0,0,1,1.73,3.23.5.5,0,0,1-.44.55Z" style="fill:#263238"></path><path d="M359.65,206.19a.48.48,0,0,1-.47-.66c1.16-3.25,4.66-3,6.35-2.38a.49.49,0,0,1,.3.63.5.5,0,0,1-.64.31c-.16-.06-4-1.35-5.07,1.77A.5.5,0,0,1,359.65,206.19Z" style="fill:#263238"></path><path d="M368.74,233.72a.5.5,0,0,1-.19-1l7-2.85a.5.5,0,1,1,.37.92l-7,2.86A.39.39,0,0,1,368.74,233.72Z" style="fill:#263238"></path><path d="M374.42,264.75s6,5.5,17.75,11.75c7.53,4,12,4.5,12,9s-1.25,9.5-5.25,10.75-9.75-4-15.75-9.75-16-19.75-16.25-21.75S371.17,262.5,374.42,264.75Z" style="fill:#fff"></path><path d="M397.63,296.94c-3.94,0-8.89-4.41-14.81-10.08-5.77-5.53-16.11-19.76-16.4-22.05a1.63,1.63,0,0,1,.86-1.65c1.47-.9,4.8-.63,7.42,1.18l.05,0c.06.06,6.1,5.54,17.65,11.68,1.93,1,3.65,1.81,5.16,2.51,4.43,2,7.11,3.27,7.11,6.93,0,2.85-.55,9.65-5.6,11.23A5,5,0,0,1,397.63,296.94Zm-28.14-33.28a3.41,3.41,0,0,0-1.69.35.66.66,0,0,0-.39.68c.22,1.74,9.85,15.46,16.1,21.45s11.64,10.76,15.26,9.63c4.42-1.38,4.9-7.64,4.9-10.27,0-3-2.18-4-6.52-6-1.53-.7-3.26-1.5-5.22-2.54-11.27-6-17.37-11.39-17.82-11.8A8.51,8.51,0,0,0,369.49,263.66Z" style="fill:#263238"></path><path d="M392.17,276.5l-.13-.07c.48,1.7.61,4.4-1.49,7.68a8,8,0,0,1-6.1,3.61c5.53,5.25,10.75,9.69,14.47,8.53,4-1.25,5.25-6.25,5.25-10.75S399.7,280.51,392.17,276.5Z" style="fill:#92E3A9"></path><path d="M397.68,296.93c-3.89,0-8.81-4.33-13.57-8.84a.5.5,0,0,1,.28-.86,7.52,7.52,0,0,0,5.74-3.39,8.75,8.75,0,0,0,1.43-7.27.51.51,0,0,1,.16-.53.52.52,0,0,1,.55-.05l.09,0-.14.35h0l.17-.32c1.93,1,3.65,1.81,5.16,2.51,4.43,2,7.11,3.27,7.11,6.93,0,2.85-.55,9.65-5.6,11.23A4.63,4.63,0,0,1,397.68,296.93Zm-12.15-8.88c4.89,4.6,9.86,8.78,13.24,7.72,4.42-1.38,4.9-7.64,4.9-10.27,0-3-2.18-4-6.52-6-1.32-.6-2.78-1.28-4.4-2.11a10.11,10.11,0,0,1-1.78,7A8.2,8.2,0,0,1,385.53,288.05Z" style="fill:#263238"></path><path d="M368.17,267s-2.25-2.25-2.25-4.25,1-4-.75-8-2.75-6-1.25-5.5,2.75,1,3.5,3l.75,2s.25.5,1-.75.75-8,1.75-9.75,1.25-2,1.5,0,0,8.5,0,8.5a1.55,1.55,0,0,0,2-1c.5-1.5,1-9.25,2-10.25s1-.5,1.25,1.5-.5,11-.5,11,3.25-8,4-9.25,1.25-1.5,2.25-.5-3.5,11.5-3.5,11.5a45.53,45.53,0,0,0,4-3.25c1.25-1.25,2.5-.5,2.25.5s-6.5,8.5-6.75,9.5a10.1,10.1,0,0,1-4,5" style="fill:#fff"></path><path d="M375.42,267.5a.49.49,0,0,1-.45-.28.51.51,0,0,1,.22-.67,9.66,9.66,0,0,0,3.74-4.67c.14-.54,1.21-2,3.46-4.93a44.94,44.94,0,0,0,3.29-4.57.4.4,0,0,0-.17-.47c-.23-.13-.7-.1-1.24.44a43.55,43.55,0,0,1-4.06,3.3.48.48,0,0,1-.6,0,.5.5,0,0,1-.15-.59c2-4.66,3.93-10.19,3.57-11-.41-.41-.61-.45-.68-.44s-.34.18-.75.88c-.58,1-2.85,6.42-4,9.18a.5.5,0,0,1-1-.23c0-.09.74-9,.5-10.9l0-.3c-.05-.41-.1-.83-.15-1.1l-.21.19c-.51.51-1,4.18-1.27,6.37a29,29,0,0,1-.61,3.69,2,2,0,0,1-2.63,1.31.5.5,0,0,1-.34-.49c0-.06.24-6.48,0-8.42,0-.26-.06-.46-.09-.62l-.48.81c-.48.84-.73,3.21-1,5.29-.25,2.35-.42,3.82-.8,4.47s-.88,1.09-1.29,1.09a.69.69,0,0,1-.59-.38l-.77-2c-.65-1.75-1.69-2.2-3.19-2.71l-.07,0a24.34,24.34,0,0,0,1.5,3.87l.43,1a11.26,11.26,0,0,1,.92,6.73,12.83,12.83,0,0,0-.12,1.47c0,1.77,2.08,3.88,2.1,3.9a.48.48,0,0,1,0,.7.5.5,0,0,1-.71,0c-.09-.09-2.39-2.42-2.39-4.6a12.32,12.32,0,0,1,.13-1.59,10.22,10.22,0,0,0-.84-6.21l-.43-1c-1.37-3.12-1.94-4.41-1.37-5a1,1,0,0,1,1.17-.15c1.66.55,3,1.15,3.8,3.29l.59,1.57a4.41,4.41,0,0,0,.27-.4,17.79,17.79,0,0,0,.67-4.05c.24-2.29.49-4.66,1.07-5.69s1-1.77,1.61-1.65.69.8.82,1.84c.22,1.74.07,6.65,0,8.15a1,1,0,0,0,1-.75,30,30,0,0,0,.56-3.5c.49-3.74.87-6.25,1.56-6.94.4-.4.83-.77,1.3-.61s.6.78.77,2.1l0,.3a67,67,0,0,1-.26,8c1-2.44,2.37-5.63,2.84-6.41s.88-1.27,1.49-1.35a2,2,0,0,1,1.54.76c.91.9-.8,5.8-2.67,10.33a29.28,29.28,0,0,0,2.46-2.08A2,2,0,0,1,386,251a1.38,1.38,0,0,1,.65,1.58c-.13.54-1.21,2-3.46,4.93a48.51,48.51,0,0,0-3.29,4.57c-.26,1.06-2.08,4.24-4.26,5.33A.59.59,0,0,1,375.42,267.5Z" style="fill:#263238"></path><path d="M371.41,266.29h-.09a.51.51,0,0,1-.41-.58,5.28,5.28,0,0,1,2.89-3.82.5.5,0,1,1,.37.93,4.32,4.32,0,0,0-2.27,3.06A.5.5,0,0,1,371.41,266.29Z" style="fill:#263238"></path><path d="M379.92,255.75a.5.5,0,0,1-.33-.12c-2.33-2-7.21-2.88-7.26-2.89a.5.5,0,1,1,.17-1c.21,0,5.2.9,7.75,3.11a.5.5,0,0,1,0,.71A.48.48,0,0,1,379.92,255.75Z" style="fill:#263238"></path><path d="M363.54,187.26s-8.31-9.87-14.54-2.6-4.41,18.18,6.75,18.7S379.38,193,379.38,193s-1.3,14.28,1.82,19.22,5.45,8.3,5.45,8.3,4.42,2.86,11.69-2.85,9.08-19.48,3.89-28.82S388,174.28,377,177.91,363.54,187.26,363.54,187.26Z" style="fill:#263238"></path><path d="M389.77,221.72a6.43,6.43,0,0,1-3.39-.81.57.57,0,0,1-.14-.13s-2.38-3.44-5.46-8.33c-2.67-4.22-2.23-14.76-2-18.34-3.11,2.51-13.44,10.21-23.06,9.75-4.83-.23-8.36-2.36-9.94-6-1.78-4.12-.67-9.42,2.83-13.5a7.33,7.33,0,0,1,5.66-2.85h0c4.1,0,7.83,3.55,9.13,4.92,1-1.63,4.48-6,13.44-9,10.35-3.45,20,.71,25.78,11.13,5.32,9.58,3.4,23.63-4,29.46C394.91,221,391.88,221.72,389.77,221.72Zm-2.77-1.6c.61.34,4.6,2.18,11-2.87,7.07-5.56,8.87-19,3.76-28.19-5.54-10-14.73-14-24.59-10.67-10.57,3.52-13.18,9-13.2,9.08a.5.5,0,0,1-.39.28.48.48,0,0,1-.45-.17c0-.05-4.33-5.07-8.85-5.09h0a6.35,6.35,0,0,0-4.9,2.5c-3.25,3.79-4.3,8.69-2.67,12.46,1.42,3.28,4.64,5.2,9.07,5.41,10.8.51,23.15-10.16,23.27-10.26a.49.49,0,0,1,.56-.07.49.49,0,0,1,.27.49c0,.14-1.25,14.17,1.74,18.9C384.42,216.35,386.61,219.55,387,220.12Z" style="fill:#263238"></path><path d="M381.46,220.23s9.35-8.56,9.35-3.63-4.42,9.35-7.79,8.31" style="fill:#fff"></path><path d="M384.06,225.56a4.28,4.28,0,0,1-1.19-.17.51.51,0,0,1-.33-.63.5.5,0,0,1,.62-.33,4.18,4.18,0,0,0,3.68-.92,8.87,8.87,0,0,0,3.47-6.91c0-.54-.13-.87-.37-1-1.25-.56-5.52,2.57-8.14,5a.5.5,0,1,1-.68-.73c1.13-1,6.91-6.18,9.22-5.16.44.19,1,.68,1,1.89a9.88,9.88,0,0,1-3.88,7.72A5.73,5.73,0,0,1,384.06,225.56Z" style="fill:#263238"></path><path d="M341.91,204.26a.5.5,0,0,1-.26-.08l-9.56-5.83a.51.51,0,0,1,.53-.86l9.55,5.84a.5.5,0,0,1,.16.69A.49.49,0,0,1,341.91,204.26Z" style="fill:#263238"></path><path d="M340.85,212.22h-.05l-6.36-.53a.51.51,0,0,1-.46-.54.5.5,0,0,1,.54-.46l6.37.53a.5.5,0,0,1,0,1Z" style="fill:#263238"></path></g><g id="character-1"><path d="M140.81,254.58h-33.6a.5.5,0,0,1-.5-.5.5.5,0,0,1,.5-.5h33.6a.5.5,0,0,1,.5.5A.5.5,0,0,1,140.81,254.58Z" style="fill:#263238"></path><path d="M127.37,261.41H106.18a.51.51,0,0,1-.5-.5.5.5,0,0,1,.5-.5h21.19a.5.5,0,0,1,.5.5A.51.51,0,0,1,127.37,261.41Z" style="fill:#263238"></path><path d="M233.58,237a.48.48,0,0,1-.45-.28.5.5,0,0,1,.24-.67l23.37-11a.5.5,0,1,1,.43.9l-23.38,11A.52.52,0,0,1,233.58,237Z" style="fill:#263238"></path><path d="M234.31,245.81a.5.5,0,0,1-.44-.27.49.49,0,0,1,.21-.67l16.8-8.77a.5.5,0,0,1,.46.89l-16.8,8.76A.46.46,0,0,1,234.31,245.81Z" style="fill:#263238"></path><path d="M130.76,158.08s-4.43,11.26-4.43,14.33-.34,17.05-.34,17.05S99,235.17,98.36,239.26s21.49,3.41,21.49,3.41l3.75-16.37-2.39-.34,11.6-34.11,5.12-3.41-3.76-32.75Z" style="fill:#fff"></path><path d="M116.08,243.23c-5.69,0-15.75-.35-17.8-2.69a1.63,1.63,0,0,1-.42-1.36c.68-4.08,25.82-46.8,27.63-49.86,0-1.42.34-14,.34-16.91,0-3.13,4.28-14,4.47-14.51a.44.44,0,0,1,.18-.23l3.41-2.39a.5.5,0,0,1,.49,0,.49.49,0,0,1,.29.4l3.75,32.74a.48.48,0,0,1-.22.47l-5,3.32-11.35,33.38,1.79.26a.48.48,0,0,1,.34.21.49.49,0,0,1,.08.39l-3.76,16.38a.48.48,0,0,1-.47.38C119.38,243.19,118,243.23,116.08,243.23Zm15.09-84.83c-.5,1.3-4.34,11.25-4.34,14,0,3-.34,16.92-.34,17.06a.72.72,0,0,1-.07.25c-9.31,15.78-27,46.46-27.57,49.62a.62.62,0,0,0,.18.54c2,2.29,15,2.45,20.42,2.3L123,226.72l-1.85-.27a.49.49,0,0,1-.36-.23.52.52,0,0,1,0-.42l11.59-34.11a.52.52,0,0,1,.2-.26l4.86-3.24-3.62-31.61ZM126,189.46h0Z" style="fill:#263238"></path><path d="M244.69,200,221.15,183l-4.43-1.7-1-22.18a13.8,13.8,0,0,1,6.82,5.12c2.39,3.75,4.09,10.57,4.09,10.57s45,23.2,46.39,23.88-.34,3.41-2.05,4.09L250.49,211Z" style="fill:#fff"></path><path d="M250.49,211.45a.51.51,0,0,1-.44-.26l-5.75-10.82-23.39-17-4.37-1.68a.49.49,0,0,1-.32-.44l-1-22.17a.48.48,0,0,1,.19-.42.49.49,0,0,1,.45-.08,14.08,14.08,0,0,1,7.1,5.32c2.19,3.44,3.78,9.28,4.1,10.5,3.27,1.69,44.88,23.12,46.18,23.77a1.39,1.39,0,0,1,.77,1.38,5,5,0,0,1-2.85,3.63l-20.47,8.19A.57.57,0,0,1,250.49,211.45ZM217.2,180.93l4.13,1.58.12.07,23.53,17a.61.61,0,0,1,.15.17l5.59,10.52,20-8a4,4,0,0,0,2.23-2.74c0-.29-.1-.38-.22-.44-1.36-.68-45.95-23.65-46.4-23.88a.47.47,0,0,1-.25-.32c0-.07-1.72-6.79-4-10.43a13,13,0,0,0-5.87-4.65Z" style="fill:#263238"></path><path d="M166.92,211.63s-13,2.39-22.51,6.83-23.2,7.5-23.2,7.5l.68,18.42,32.41-1.71,10.57,62.77h51.85l1.7-71.29L248.78,215l-8.18-15.35s-21.83,2.05-34.46,3.42S169,211,166.92,211.63Z" style="fill:#fff"></path><path d="M216.72,305.94H164.87a.5.5,0,0,1-.49-.42l-10.5-62.32-32,1.68a.52.52,0,0,1-.36-.13.53.53,0,0,1-.17-.35L120.71,226a.51.51,0,0,1,.39-.51c.14,0,13.7-3.11,23.1-7.47s21.85-6.71,22.59-6.85c2-.65,26.61-7.17,39.3-8.54,12.48-1.35,34.24-3.39,34.46-3.41a.48.48,0,0,1,.49.26l8.18,15.35a.5.5,0,0,1-.17.66l-30.13,19-1.7,71A.51.51,0,0,1,216.72,305.94Zm-51.43-1h50.94l1.69-70.81a.54.54,0,0,1,.24-.41l30-18.85-7.81-14.65c-2.79.27-22.48,2.13-34.11,3.38-12.71,1.38-37.4,7.93-39.12,8.51H167c-.13,0-13,2.43-22.39,6.79-8.57,4-20.55,6.89-22.89,7.44l.64,17.5,31.9-1.68a.5.5,0,0,1,.52.42Zm1.63-93.31h0Z" style="fill:#263238"></path><path d="M218.42,234.65a.46.46,0,0,1-.23-.06A.5.5,0,0,1,218,234l5.45-17.74a.51.51,0,0,1,.63-.33.51.51,0,0,1,.33.63l-4.69,15.22L229,220.19a.5.5,0,0,1,.7-.08.5.5,0,0,1,.08.7l-10.92,13.65A.49.49,0,0,1,218.42,234.65Z" style="fill:#263238"></path><path d="M154.3,243.17a.53.53,0,0,1-.3-.09l-9.21-6.83a.5.5,0,0,1-.1-.7.5.5,0,0,1,.7-.1l7.85,5.82-4.87-13.09a.5.5,0,0,1,.3-.64.5.5,0,0,1,.64.29l5.46,14.67a.5.5,0,0,1-.17.57A.49.49,0,0,1,154.3,243.17Z" style="fill:#263238"></path><path d="M173.06,207.2s-2.73,9.89-1,13.3,4.78,8.53,4.78,8.53,7.85-11.26,9.21-11.94,6.14,0,7.16.34S198,226.3,198,226.3s4.09-8.53,3.75-13-10.57-11.26-10.57-11.26Z" style="fill:#fff"></path><path d="M176.81,229.53h0a.52.52,0,0,1-.41-.24s-3.1-5.18-4.79-8.56c-1.77-3.55.87-13.25,1-13.66a.48.48,0,0,1,.34-.35L191,201.6a.5.5,0,0,1,.41.07c.43.28,10.44,7,10.8,11.63s-3.63,12.86-3.8,13.22a.5.5,0,0,1-.46.28.49.49,0,0,1-.45-.3c-1.73-3.94-3.89-8.23-4.51-8.61-1-.32-5.57-.93-6.75-.35-.81.4-5.25,6.37-9,11.78A.51.51,0,0,1,176.81,229.53Zm-3.34-21.93c-.42,1.6-2.44,9.78-1,12.68,1.32,2.63,3.48,6.33,4.36,7.83,2-2.81,7.67-10.82,9-11.47,1.58-.79,6.59,0,7.54.32s3.15,4.85,4.62,8.12c1-2.36,3.51-8.33,3.25-11.7s-7.24-8.78-10.16-10.75Z" style="fill:#263238"></path><polygon points="179.2 212.31 187.38 225.62 191.82 208.9 179.2 212.31" style="fill:#fff"></polygon><path d="M187.38,226.12a.49.49,0,0,1-.42-.24l-8.19-13.3a.55.55,0,0,1,0-.45.51.51,0,0,1,.34-.3l12.62-3.41a.5.5,0,0,1,.48.13.48.48,0,0,1,.13.48l-4.43,16.72a.51.51,0,0,1-.41.36Zm-7.4-13.5,7.22,11.74,3.91-14.75Z" style="fill:#263238"></path><circle cx="174.45" cy="169.31" r="45" transform="translate(-33.67 43.68) rotate(-13.03)" style="fill:#92E3A9"></circle><path d="M174.45,214.82A45.51,45.51,0,1,1,220,169.31,45.56,45.56,0,0,1,174.45,214.82Zm0-90A44.51,44.51,0,1,0,219,169.31,44.55,44.55,0,0,0,174.45,124.81Z" style="fill:#263238"></path><circle cx="150.3" cy="155.04" r="19.39" style="fill:#fff"></circle><path d="M150.3,175.43A20.39,20.39,0,1,1,170.69,155,20.41,20.41,0,0,1,150.3,175.43Zm0-38.78A18.39,18.39,0,1,0,168.69,155,18.41,18.41,0,0,0,150.3,136.65Z" style="fill:#263238"></path><path d="M151.07,169.13a14.83,14.83,0,0,1-3.24-.36,14.59,14.59,0,0,1-9.21-6.48,11.86,11.86,0,0,1,3.66-16.37,9.59,9.59,0,0,1,13.24,3,7.76,7.76,0,0,1-2.4,10.73,6.32,6.32,0,0,1-8.72-2,5.17,5.17,0,0,1,1.59-7.12,4.23,4.23,0,0,1,5.83,1.31,3.48,3.48,0,0,1-1.07,4.8,2.89,2.89,0,0,1-4-.89.5.5,0,0,1,.84-.54,1.89,1.89,0,0,0,2.6.59,2.49,2.49,0,0,0,.77-3.43,3.24,3.24,0,0,0-2-1.42,3.15,3.15,0,0,0-2.43.43,4.16,4.16,0,0,0-1.29,5.73,5.34,5.34,0,0,0,7.35,1.65,6.78,6.78,0,0,0,2.09-9.35,8.59,8.59,0,0,0-11.86-2.66,10.86,10.86,0,0,0-3.36,15A13.69,13.69,0,0,0,158.38,166a17.27,17.27,0,0,0,5.34-23.82.5.5,0,0,1,.15-.69.49.49,0,0,1,.69.16,18.26,18.26,0,0,1-5.64,25.2A14.64,14.64,0,0,1,151.07,169.13Z" style="fill:#263238"></path><circle cx="193.48" cy="146.99" r="19.39" style="fill:#fff"></circle><path d="M193.48,167.38A20.39,20.39,0,1,1,213.87,147,20.4,20.4,0,0,1,193.48,167.38Zm0-38.78A18.39,18.39,0,1,0,211.87,147,18.41,18.41,0,0,0,193.48,128.6Z" style="fill:#263238"></path><path d="M192.72,161.07a14.59,14.59,0,0,1-7.86-2.28,18.26,18.26,0,0,1-5.64-25.2.49.49,0,0,1,.69-.16.5.5,0,0,1,.15.69A17.28,17.28,0,0,0,185.4,158a13.73,13.73,0,0,0,18.92-4.24,10.86,10.86,0,0,0-3.36-15,8.59,8.59,0,0,0-11.86,2.66,6.79,6.79,0,0,0,2.09,9.35,5.34,5.34,0,0,0,7.35-1.65,4.16,4.16,0,0,0-1.29-5.73,3.2,3.2,0,0,0-2.43-.43,3.24,3.24,0,0,0-2,1.42,2.5,2.5,0,0,0,.77,3.43,1.89,1.89,0,0,0,2.6-.59.5.5,0,1,1,.84.54,2.88,2.88,0,0,1-4,.89,3.48,3.48,0,0,1-1.07-4.8,4.13,4.13,0,0,1,2.64-1.86,4.2,4.2,0,0,1,3.19.55,5.16,5.16,0,0,1,1.59,7.12,6.32,6.32,0,0,1-8.72,1.95,7.78,7.78,0,0,1-2.4-10.73,9.59,9.59,0,0,1,13.24-3,11.88,11.88,0,0,1,3.67,16.37A14.71,14.71,0,0,1,192.72,161.07Z" style="fill:#263238"></path><path d="M168.92,150.18a1,1,0,0,1-.2-2l5-1a1,1,0,1,1,.4,2l-5,1Z" style="fill:#263238"></path><path d="M155.31,203.37s7.68,10,25.45,8.31c18.4-1.76,25.21-19.4,25.21-19.4L176,184Z" style="fill:#fff"></path><path d="M176.82,212.38c-15,0-21.84-8.62-21.91-8.71A.5.5,0,0,1,155,203l20.66-19.41a.52.52,0,0,1,.48-.11l30,8.31a.55.55,0,0,1,.32.26.49.49,0,0,1,0,.41c-.06.18-7.13,17.95-25.62,19.72C179.42,212.31,178.09,212.38,176.82,212.38Zm-20.82-9c1.55,1.72,9.31,9.26,24.72,7.79,16.12-1.55,23.27-15.7,24.56-18.58l-29.17-8.09Z" style="fill:#263238"></path><path d="M163.12,209.16a.5.5,0,0,1-.49-.44l-1.52-12.35a.51.51,0,0,1,.44-.56.48.48,0,0,1,.55.44l1.52,12.35a.51.51,0,0,1-.44.56Z" style="fill:#263238"></path><path d="M171.19,211.18a.5.5,0,0,1-.5-.47L169.43,190a.5.5,0,0,1,.47-.53.52.52,0,0,1,.53.47l1.26,20.67a.5.5,0,0,1-.47.52Z" style="fill:#263238"></path><path d="M180.26,211.68a.51.51,0,0,1-.5-.45l-2.52-23.18a.5.5,0,1,1,1-.11l2.52,23.19a.5.5,0,0,1-.45.55Z" style="fill:#263238"></path><path d="M188.83,209.41a.51.51,0,0,1-.5-.44L185.81,186a.5.5,0,0,1,1-.11l2.52,22.94a.5.5,0,0,1-.45.55Z" style="fill:#263238"></path><path d="M196.64,204.62a.5.5,0,0,1-.5-.48l-.75-18.4a.51.51,0,0,1,.48-.52.5.5,0,0,1,.52.48l.75,18.4a.5.5,0,0,1-.48.52Z" style="fill:#263238"></path><path d="M168.67,171.36S164.13,183.71,152,185s-18.65-12.6-18.65-12.6-.76,12.6,6.05,22.17,15.63,11.09,24.7,8.83S179,189,179,189s3.53,8.32,15.37,8.57S216.3,187,217.56,176.65A20.68,20.68,0,0,0,212.27,160a14.45,14.45,0,0,1-4.29,12.6c-5.79,5.79-24.19,6.55-29-6.05Z" style="fill:#263238"></path><path d="M157.17,204.78c-7.36,0-13.45-3.33-18.15-9.95-6.83-9.61-6.15-22.37-6.14-22.49a.52.52,0,0,1,.41-.47.5.5,0,0,1,.54.28c.07.14,6.54,13.51,18.15,12.32s16.17-13.17,16.22-13.29a.51.51,0,0,1,.26-.28l10.33-4.79a.51.51,0,0,1,.4,0,.48.48,0,0,1,.28.28c1.81,4.76,5.91,8.05,11.54,9.26,6.22,1.33,13.36-.13,16.62-3.39a14.06,14.06,0,0,0,4.15-12.14.49.49,0,0,1,.25-.54.5.5,0,0,1,.59.07,21.06,21.06,0,0,1,5.44,17.06c-1.26,10.31-11.29,21.59-23.7,21.36-9.7-.21-14-5.8-15.35-8-1.53,2.85-6.88,11.81-14.76,13.78A29.21,29.21,0,0,1,157.17,204.78Zm-23.3-30.51c.09,3.84.88,12.83,6,20,5.95,8.38,13.86,11.2,24.17,8.62,8.74-2.18,14.48-14,14.54-14.1a.55.55,0,0,1,.46-.28.49.49,0,0,1,.45.3c.14.33,3.57,8,14.93,8.27,11.86.28,21.47-10.59,22.68-20.48a20.56,20.56,0,0,0-4.13-15,15.08,15.08,0,0,1-4.6,11.41c-3.48,3.48-11,5.05-17.54,3.65-5.78-1.24-10.05-4.56-12.07-9.38l-9.67,4.49c-.66,1.61-5.56,12.55-17,13.73C142.39,186.48,136.13,178,133.87,174.27Z" style="fill:#263238"></path><path d="M169.2,149.09s-4.4,22.79-2.54,26.89,7.47,2.56,12.55,1.49,5.74-5.07,3.91-9.94-9.61-19-9.61-19Z" style="fill:#fff"></path><path d="M171.71,179.15c-2.43,0-4.48-.69-5.51-3-1.9-4.21,2.33-26.26,2.51-27.19a.49.49,0,0,1,.42-.4l4.31-.6a.51.51,0,0,1,.51.26c.32.58,7.82,14.26,9.64,19.1,1.2,3.18,1.29,5.75.25,7.64a6.28,6.28,0,0,1-4.53,3l-1.09.23A32.43,32.43,0,0,1,171.71,179.15Zm-2.09-29.61c-1.25,6.55-4,23-2.51,26.24,1.56,3.44,6.31,2.42,10.9,1.44l1.1-.24a5.34,5.34,0,0,0,3.85-2.46c.88-1.6.77-4-.3-6.81-1.66-4.38-8.29-16.59-9.42-18.67Z" style="fill:#263238"></path><path d="M162.6,134.51s-.76-11.55-13.89-16.08S126.72,129,126.59,130s7.56-3.32,7.56-3.32-4.66,4.47-4.82,9.53a13.17,13.17,0,0,0,2.94,8.53S140.34,126,162.6,134.51Z" style="fill:#263238"></path><path d="M132.27,145.23a.48.48,0,0,1-.37-.17,13.48,13.48,0,0,1-3.07-8.87,14.37,14.37,0,0,1,3.13-7.75c-4.87,2.58-5.37,2.24-5.61,2.08a.59.59,0,0,1-.25-.59c.1-.81,3.64-6.84,9.22-10.28A15.26,15.26,0,0,1,148.88,118c13.29,4.59,14.22,16.39,14.22,16.51a.5.5,0,0,1-.2.44.51.51,0,0,1-.48.06c-21.53-8.26-29.37,9.21-29.69,10a.52.52,0,0,1-.38.29Zm1.88-19.06a.5.5,0,0,1,.35.86c-.05,0-4.52,4.39-4.67,9.19a12.69,12.69,0,0,0,2.35,7.57c1.81-3.39,10.5-17,29.81-10-.46-2.64-2.77-11.16-13.44-14.85A14.18,14.18,0,0,0,136.7,120a26,26,0,0,0-9.36,9.51,58.11,58.11,0,0,0,6.56-3.27A.47.47,0,0,1,134.15,126.17Z" style="fill:#263238"></path><path d="M173.46,132.29s-4.33-10.73,5.53-20.51,24.4,0,24.95.82-8.25.28-8.25.28,6.14,2,8.48,6.5a13.19,13.19,0,0,1,1.05,9S189.8,114.94,173.46,132.29Z" style="fill:#263238"></path><path d="M173.46,132.79h-.1a.49.49,0,0,1-.37-.3c0-.11-4.33-11.15,5.65-21a15.25,15.25,0,0,1,12.94-4.37c6.53.69,12.33,4.58,12.78,5.26a.63.63,0,0,1,0,.65c-.15.25-.45.77-6,.56a14.27,14.27,0,0,1,6.18,5.62,13.52,13.52,0,0,1,1.09,9.33.49.49,0,0,1-.34.34.51.51,0,0,1-.47-.11c-.61-.53-15.25-12.87-31.07,3.92A.52.52,0,0,1,173.46,132.79ZM189.58,108a14,14,0,0,0-10.24,4.18c-8,8-6.4,16.63-5.67,19.2,14.39-14.65,28.12-6.16,31.23-3.89a12.81,12.81,0,0,0-1.17-7.84c-2.22-4.25-8.13-6.23-8.19-6.25a.5.5,0,0,1,.18-1,58.36,58.36,0,0,0,7.35.09A26.23,26.23,0,0,0,190.5,108C190.19,108,189.89,108,189.58,108Z" style="fill:#263238"></path><path d="M121.21,226l-4.43,19.44,10.91-.68.68-20.47S122.58,224.59,121.21,226Z" style="fill:#fff"></path><path d="M116.78,245.9a.49.49,0,0,1-.38-.17.48.48,0,0,1-.11-.44l4.43-19.44a.45.45,0,0,1,.14-.24c1.45-1.46,6.87-1.82,7.48-1.86a.52.52,0,0,1,.38.15.46.46,0,0,1,.15.37l-.68,20.47a.51.51,0,0,1-.47.48l-10.91.68Zm4.88-19.68-4.25,18.64,9.8-.61.65-19.46C125.73,225,122.62,225.45,121.66,226.22Z" style="fill:#263238"></path><polygon points="236.16 199.69 245.37 219.82 254.92 214.02 244.69 198.67 236.16 199.69" style="fill:#fff"></polygon><path d="M245.37,220.32l-.15,0a.5.5,0,0,1-.3-.27l-9.21-20.13a.48.48,0,0,1,0-.45.47.47,0,0,1,.37-.25l8.53-1a.5.5,0,0,1,.47.22l10.24,15.35a.54.54,0,0,1,.07.39.5.5,0,0,1-.23.32l-9.55,5.8A.59.59,0,0,1,245.37,220.32Zm-8.47-20.21,8.69,19,8.63-5.24-9.78-14.66Z" style="fill:#263238"></path><rect x="81" y="296.5" width="57" height="153" transform="translate(219 746) rotate(180)" style="fill:#92E3A9"></rect><path d="M138,450H81a.5.5,0,0,1-.5-.5v-153a.5.5,0,0,1,.5-.5h57a.5.5,0,0,1,.5.5v153A.5.5,0,0,1,138,450Zm-56.5-1h56V297h-56Z" style="fill:#263238"></path><polygon points="138 296.5 121.19 361.04 81.46 361.04 81.46 337.2 138 296.5" style="fill:#263238"></polygon><path d="M121.19,361.54H81.46a.5.5,0,0,1-.5-.5V337.2a.49.49,0,0,1,.21-.4l56.54-40.71a.5.5,0,0,1,.57,0,.48.48,0,0,1,.2.54l-16.8,64.54A.5.5,0,0,1,121.19,361.54Zm-39.23-1h38.85l16.36-62.82L82,337.46Z" style="fill:#263238"></path><polygon points="213 296.5 239.5 353.5 301.5 353.5 270 296.5 213 296.5" style="fill:#263238"></polygon><path d="M301.5,354h-62a.49.49,0,0,1-.45-.29l-26.5-57a.49.49,0,0,1,0-.48A.5.5,0,0,1,213,296h57a.51.51,0,0,1,.44.26l31.5,57a.5.5,0,0,1,0,.49A.48.48,0,0,1,301.5,354Zm-61.68-1h60.83l-30.94-56H213.78Z" style="fill:#263238"></path><rect x="138" y="296.5" width="132" height="153" style="fill:#92E3A9"></rect><path d="M270,450H138a.5.5,0,0,1-.5-.5v-153a.5.5,0,0,1,.5-.5H270a.5.5,0,0,1,.5.5v153A.5.5,0,0,1,270,450Zm-131.5-1h131V297h-131Z" style="fill:#263238"></path><polygon points="138 296.5 111.5 353.5 49.5 353.5 81 296.5 138 296.5" style="fill:#92E3A9"></polygon><path d="M111.5,354h-62a.48.48,0,0,1-.43-.25.5.5,0,0,1,0-.49l31.5-57A.51.51,0,0,1,81,296h57a.5.5,0,0,1,.42.23.49.49,0,0,1,0,.48l-26.5,57A.49.49,0,0,1,111.5,354Zm-61.15-1h60.83l26-56H81.29Z" style="fill:#263238"></path><path d="M53.16,324a.48.48,0,0,1-.24-.06.49.49,0,0,1-.2-.68l12.42-22.65a.5.5,0,0,1,.87.49L53.59,323.71A.49.49,0,0,1,53.16,324Z" style="fill:#263238"></path><path d="M42.2,336.39a.46.46,0,0,1-.23-.06.5.5,0,0,1-.22-.67l15.34-30a.52.52,0,0,1,.68-.22.51.51,0,0,1,.21.68L42.64,336.12A.49.49,0,0,1,42.2,336.39Z" style="fill:#263238"></path><path d="M289.83,313a.5.5,0,0,1-.39-.18l-16.07-19.72a.5.5,0,0,1,.07-.71.5.5,0,0,1,.7.07l16.07,19.73a.49.49,0,0,1-.07.7A.45.45,0,0,1,289.83,313Z" style="fill:#263238"></path><path d="M303,321.78a.51.51,0,0,1-.4-.2L285,298.2a.5.5,0,0,1,.8-.6L303.37,321a.5.5,0,0,1-.1.7A.47.47,0,0,1,303,321.78Z" style="fill:#263238"></path></g></svg>