<svg xmlns="http://www.w3.org/2000/svg" viewBox="0 0 500 500"><g id="background-simple"><path d="M324.18,40.36S251.45,14.49,180.05,55.67,72.62,178.59,41.69,244.06,28.56,376.14,83.06,406.51s91.56-14.4,168-16.58,97,8.75,160.47-34.44,74.92-145.2,24.87-220.68S324.18,40.36,324.18,40.36Z" style="fill:#92E3A9"></path><path d="M324.18,40.36S251.45,14.49,180.05,55.67,72.62,178.59,41.69,244.06,28.56,376.14,83.06,406.51s91.56-14.4,168-16.58,97,8.75,160.47-34.44,74.92-145.2,24.87-220.68S324.18,40.36,324.18,40.36Z" style="fill:#fff;opacity:0.7000000000000001"></path></g><g id="Clouds"><path d="M413.21,91.37c-6.29-3.43-9.14-.57-11.43-3.43s6.29-10.29-10.86-17.72c0,0-1.14-16-24.58-16.58s-17.15,16-23.44,20-8-2.29-14.29,1.71-3.43,12-8.58,13.15-12-5.14-18.29-1.14-6.29,7.43-9.15,7.43-8.57-2.29-12,0-7.43,5.15-7.43,5.15H417.79S419.5,94.8,413.21,91.37Z" style="fill:none;stroke:#263238;stroke-linecap:round;stroke-linejoin:round"></path><path d="M327.66,89a21,21,0,0,1-2.56,1.21" style="fill:none;stroke:#263238;stroke-linecap:round;stroke-linejoin:round"></path><path d="M358.6,62.32a9.76,9.76,0,0,0-5.59,7c-1,5.23-3.48,8.72-6.28,9.07s-13.25-.7-15,3.14a15.09,15.09,0,0,0-1,3.5" style="fill:none;stroke:#263238;stroke-linecap:round;stroke-linejoin:round"></path><path d="M431.61,124.57c-2.46-1.34-3.58-.23-4.47-1.34s2.46-4-4.24-6.93c0,0-.45-6.25-9.61-6.47s-6.7,6.25-9.16,7.81-3.12-.89-5.58.67-1.34,4.69-3.35,5.14-4.69-2-7.15-.45-2.45,2.91-3.57,2.91-3.35-.9-4.69,0-2.91,2-2.91,2h56.51S434.06,125.91,431.61,124.57Z" style="fill:none;stroke:#263238;stroke-linecap:round;stroke-linejoin:round"></path><path d="M398.18,123.65a8,8,0,0,1-1,.47" style="fill:none;stroke:#263238;stroke-linecap:round;stroke-linejoin:round"></path><path d="M410.27,113.22a3.79,3.79,0,0,0-2.18,2.72c-.41,2-1.37,3.41-2.46,3.55s-5.18-.28-5.86,1.22a6.11,6.11,0,0,0-.38,1.37" style="fill:none;stroke:#263238;stroke-linecap:round;stroke-linejoin:round"></path><path d="M116.52,203.62c-2.46-1.34-3.57-.22-4.47-1.34s2.46-4-4.24-6.92c0,0-.45-6.25-9.6-6.48s-6.71,6.26-9.16,7.82-3.13-.89-5.59.67-1.34,4.69-3.35,5.14-4.69-2-7.14-.45S70.51,205,69.39,205s-3.35-.9-4.69,0-2.9,2-2.9,2h56.51S119,205,116.52,203.62Z" style="fill:none;stroke:#263238;stroke-linecap:round;stroke-linejoin:round"></path><path d="M83.09,202.71a7.8,7.8,0,0,1-1,.47" style="fill:none;stroke:#263238;stroke-linecap:round;stroke-linejoin:round"></path><path d="M95.18,192.27A3.84,3.84,0,0,0,93,195c-.41,2-1.36,3.41-2.45,3.54s-5.18-.27-5.86,1.23a6.2,6.2,0,0,0-.39,1.37" style="fill:none;stroke:#263238;stroke-linecap:round;stroke-linejoin:round"></path></g><g id="Plants"><path d="M48.57,429.45c2.1-.31,6.09-2.9,6.09-2.91s-2.51-2.1-2.68-2.22c-2-1.3-6.75-2.63-8.84-.9a3.21,3.21,0,0,0-.07,4.77C44.43,429.54,46.78,429.7,48.57,429.45Z" style="fill:#263238"></path><path d="M87.44,409.66s-.93-3.14-1-3.33c-1-2.21-4.18-5.91-6.87-5.63a3.2,3.2,0,0,0-2.69,3.94c.39,1.87,2.26,3.31,3.89,4.08C82.68,409.63,87.44,409.66,87.44,409.66Z" style="fill:#263238"></path><path d="M92.52,462.71c.93,1.15,1.77,2.24,2.53,3.23H97c-1-1.23-2.08-2.62-3.35-4.13-.73-.88-1.54-1.8-2.37-2.74a29.14,29.14,0,0,0,2.11-2.91,20.71,20.71,0,0,0,5.64.39c.13,1.12.25,2.21.34,3.25.22,2.33.35,4.4.44,6.14h1.55c-.13-1.78-.31-3.9-.59-6.29-.12-1.14-.28-2.35-.46-3.6.44-.13,4-1.24,5.32-2.41s2.41-2.72,2.28-4.4a2.81,2.81,0,0,0-3.24-2.66c-2.34.42-4.13,4.33-4.41,6.44,0,.12,0,1.49,0,2.35-.07-.5-.14-1-.22-1.52-.16-1-.35-2.06-.55-3.17-.11-.53-.23-1.07-.34-1.61s-.29-1.09-.43-1.65c-.35-1.28-.77-2.55-1.22-3.83.91-.14,4.12-.68,5.46-1.55s2.79-2.33,2.92-4a2.83,2.83,0,0,0-2.8-3.13c-2.38.06-4.74,3.66-5.34,5.7,0,.12-.3,1.64-.43,2.47-.27-.77-.55-1.53-.85-2.3-.88-2.21-1.84-4.42-2.79-6.63-.29-.67-.57-1.35-.86-2,.32,0,4.15-.61,5.65-1.58,1.34-.86,2.8-2.33,2.92-4a2.82,2.82,0,0,0-2.79-3.13c-2.38.07-4.74,3.66-5.34,5.7,0,.15-.42,2.33-.49,2.89-.63-1.49-1.24-3-1.78-4.48a50.36,50.36,0,0,1-1.83-6.18c.15,0,4.15-.59,5.69-1.58,1.33-.86,2.8-2.33,2.92-4a2.82,2.82,0,0,0-2.8-3.13c-2.38.06-4.73,3.66-5.33,5.7,0,.13-.33,1.79-.45,2.58H89a35.52,35.52,0,0,1-.68-6.43c0-1.19,0-2.33,0-3.44.75,0,4.2-.2,5.69-.94s3-2,3.34-3.66A2.83,2.83,0,0,0,94.91,403c-2.37-.2-5.11,3.12-5.93,5.08,0,.1-.37,1.24-.6,2.07,0-.5.05-1,.1-1.49.15-1.8.39-3.43.63-4.88.13-.82.27-1.56.41-2.25.73-.42,3.63-2.13,4.59-3.44s1.77-3.19,1.28-4.79a2.81,2.81,0,0,0-3.73-1.91c-2.2.92-3.1,5.12-2.93,7.24,0,.18.59,3,.63,3l0,0c-.15.66-.3,1.37-.45,2.15-.26,1.45-.54,3.08-.73,4.88a48.17,48.17,0,0,0-.34,5.83,36.07,36.07,0,0,0,.55,6.51.24.24,0,0,0,0,.08c-.33-.62-1.3-2.31-1.38-2.43-1.26-1.72-4.7-4.3-7-3.55A2.82,2.82,0,0,0,78.54,419c.69,1.53,2.56,2.42,4.11,2.77,1.75.41,5.55-.37,5.86-.43a48.21,48.21,0,0,0,1.74,6.42c.41,1.23.87,2.45,1.34,3.67L91,430.36c-1.26-1.72-4.69-4.3-7-3.55a2.83,2.83,0,0,0-1.58,3.89c.69,1.54,2.56,2.42,4.11,2.78s4.83-.24,5.69-.4c.19.46.37.93.56,1.39.9,2.24,1.81,4.46,2.63,6.67.29.78.55,1.55.81,2.33-.26-.47-.49-.86-.53-.91-1.26-1.72-4.69-4.3-7-3.55a2.83,2.83,0,0,0-1.58,3.89c.69,1.54,2.56,2.42,4.11,2.78s4.51-.18,5.54-.38c.24.81.49,1.61.69,2.4.12.54.28,1.06.37,1.61s.21,1.08.31,1.61c.16,1,.33,2.1.47,3.12.09.7.17,1.37.25,2-.28-.78-.86-2.29-.92-2.41a11,11,0,0,0-3.85-4,3.67,3.67,0,0,0-.34-.53,2.81,2.81,0,0,0-4.17-.43c-1.72,1.64-1.06,5.89-.13,7.8.06.11.79,1.27,1.26,2-.34-.39-.67-.76-1-1.15-.7-.78-1.42-1.53-2.2-2.35-.39-.37-.78-.76-1.17-1.15s-.85-.75-1.27-1.14c-1-.87-2-1.7-3.13-2.52.68-.62,3-2.84,3.69-4.3s1-3.49.23-4.95a2.82,2.82,0,0,0-4.06-1.07c-2,1.37-1.93,5.66-1.3,7.7,0,.12.65,1.53,1,2.3-.65-.49-1.3-1-2-1.45-2-1.35-4-2.67-6-4-.62-.4-1.23-.81-1.84-1.22.24-.22,3.12-2.8,3.84-4.43.64-1.46,1-3.49.23-5a2.83,2.83,0,0,0-4.06-1.06c-2,1.37-1.93,5.66-1.31,7.7,0,.15.94,2.17,1.19,2.68-1.35-.9-2.68-1.81-4-2.76a50.16,50.16,0,0,1-4.93-4.14c.12-.1,3.14-2.78,3.87-4.46.64-1.45,1-3.48.23-4.95a2.81,2.81,0,0,0-4.06-1.06c-2,1.36-1.93,5.66-1.31,7.69.05.14.72,1.68,1.06,2.41l-.11.07a36.16,36.16,0,0,1-4.13-5c-.69-1-1.29-1.94-1.85-2.89.61-.44,3.39-2.49,4.22-3.93s1.43-3.35.77-4.9a2.83,2.83,0,0,0-3.92-1.5c-2.08,1.15-2.54,5.42-2.14,7.51,0,.11.37,1.24.64,2.06-.25-.44-.52-.88-.74-1.3-.87-1.58-1.56-3.08-2.17-4.41-.34-.77-.63-1.46-.89-2.11.37-.75,1.85-3.78,1.92-5.41s-.27-3.63-1.57-4.7a2.82,2.82,0,0,0-4.17.47c-1.32,2,.24,6,1.56,7.65.11.15,2.15,2.2,2.17,2.16l0,0c.25.64.51,1.31.82,2,.58,1.35,1.24,2.87,2.07,4.47A49.51,49.51,0,0,0,58,431.23,37,37,0,0,0,62,436.36l.06.05c-.61-.33-2.36-1.21-2.5-1.27-2-.74-6.28-1-7.75.88a2.82,2.82,0,0,0,.83,4.11c1.42.9,3.47.61,5,.05,1.68-.63,4.43-3.37,4.64-3.59a50.63,50.63,0,0,0,5,4.39c1,.8,2.08,1.57,3.15,2.32l-1.1-.54c-2-.74-6.28-1-7.75.88a2.82,2.82,0,0,0,.83,4.11c1.42.9,3.47.61,5,.05s3.9-2.86,4.53-3.47l1.23.86c2,1.36,4,2.71,5.87,4.1.68.49,1.32,1,2,1.5l-1-.47c-2-.74-6.28-1-7.76.88a2.82,2.82,0,0,0,.84,4.11c1.42.9,3.47.61,5,.05s3.67-2.64,4.42-3.36c.64.53,1.29,1.07,1.89,1.62.4.38.82.72,1.2,1.13l1.15,1.17c.71.78,1.44,1.57,2.11,2.35l1.34,1.57c-.66-.5-2-1.44-2.1-1.5-1.86-1-6.06-1.94-7.8-.31a2.81,2.81,0,0,0,.21,4.19c1.26,1.1,3.33,1.12,4.89.8s4.73-2.55,5.11-2.83C91.17,461.05,91.87,461.9,92.52,462.71Z" style="fill:#263238"></path><path d="M199.44,430.85c-2.1-.3-6.09-2.9-6.09-2.9s2.51-2.11,2.68-2.22c2-1.31,6.75-2.63,8.84-.91a3.21,3.21,0,0,1,.07,4.77C203.58,430.94,201.23,431.11,199.44,430.85Z" style="fill:#263238"></path><path d="M161.51,411.07s.93-3.15,1-3.34c1-2.21,4.17-5.91,6.87-5.63a3.22,3.22,0,0,1,2.69,3.95c-.39,1.87-2.26,3.31-3.89,4.08C166.27,411,161.51,411.07,161.51,411.07Z" style="fill:#263238"></path><path d="M157.13,462.71c-.93,1.15-1.77,2.24-2.53,3.23h-1.91c1-1.23,2.08-2.62,3.35-4.13.73-.88,1.54-1.8,2.37-2.74a30.37,30.37,0,0,1-2.12-2.91,20.62,20.62,0,0,1-5.63.39c-.13,1.12-.25,2.21-.34,3.25-.22,2.33-.35,4.4-.44,6.14h-1.55c.12-1.78.31-3.9.58-6.29.13-1.14.29-2.35.47-3.6-.44-.13-4-1.24-5.32-2.41s-2.41-2.72-2.28-4.4a2.81,2.81,0,0,1,3.24-2.66c2.34.42,4.12,4.33,4.41,6.44,0,.12,0,1.49,0,2.35.07-.5.14-1,.22-1.52.16-1,.35-2.06.54-3.17.12-.53.23-1.07.35-1.61s.28-1.09.42-1.65c.36-1.28.77-2.55,1.22-3.83-.9-.14-4.11-.68-5.45-1.55s-2.8-2.33-2.92-4a2.82,2.82,0,0,1,2.8-3.13c2.38.06,4.73,3.66,5.33,5.7,0,.12.3,1.64.43,2.47.28-.77.55-1.53.86-2.3.88-2.21,1.84-4.42,2.79-6.63.29-.67.57-1.35.86-2-.33,0-4.15-.61-5.66-1.58-1.33-.86-2.79-2.33-2.92-4a2.83,2.83,0,0,1,2.8-3.13c2.38.07,4.74,3.66,5.34,5.7,0,.15.42,2.33.49,2.89.62-1.49,1.23-3,1.78-4.48a48.6,48.6,0,0,0,1.82-6.18c-.15,0-4.14-.59-5.68-1.58-1.34-.86-2.8-2.33-2.92-4a2.81,2.81,0,0,1,2.79-3.13c2.39.06,4.74,3.66,5.34,5.7,0,.13.33,1.79.45,2.58h.13a36.47,36.47,0,0,0,.69-6.43c0-1.19,0-2.33,0-3.44-.76,0-4.21-.2-5.69-.94s-3-2-3.34-3.66a2.82,2.82,0,0,1,2.43-3.42c2.38-.2,5.11,3.12,5.93,5.08.05.1.38,1.24.61,2.07,0-.5-.06-1-.1-1.49-.15-1.8-.4-3.43-.63-4.88-.14-.82-.28-1.56-.42-2.25-.72-.42-3.63-2.13-4.59-3.44s-1.76-3.19-1.28-4.79a2.82,2.82,0,0,1,3.74-1.91c2.2.92,3.1,5.12,2.92,7.24,0,.18-.58,3-.62,3l0,0c.14.66.29,1.37.44,2.15.27,1.45.55,3.08.74,4.88a48.17,48.17,0,0,1,.34,5.83,37,37,0,0,1-.55,6.51.24.24,0,0,0,0,.08c.32-.62,1.29-2.31,1.38-2.43,1.26-1.72,4.69-4.3,6.95-3.55A2.81,2.81,0,0,1,171.1,419c-.68,1.53-2.55,2.42-4.1,2.77-1.75.41-5.56-.37-5.86-.43a49.78,49.78,0,0,1-1.74,6.42c-.42,1.23-.87,2.45-1.35,3.67.3-.52.57-1,.62-1.05,1.25-1.72,4.69-4.3,7-3.55a2.81,2.81,0,0,1,1.57,3.89c-.68,1.54-2.56,2.42-4.11,2.78s-4.82-.24-5.69-.4c-.18.46-.36.93-.55,1.39-.9,2.24-1.81,4.46-2.63,6.67-.3.78-.55,1.55-.81,2.33.26-.47.49-.86.53-.91,1.25-1.72,4.69-4.3,6.95-3.55a2.81,2.81,0,0,1,1.57,3.89c-.68,1.54-2.56,2.42-4.11,2.78s-4.51-.18-5.53-.38c-.24.81-.49,1.61-.69,2.4-.12.54-.28,1.06-.37,1.61s-.21,1.08-.31,1.61c-.17,1-.34,2.1-.47,3.12-.09.7-.17,1.37-.25,2,.28-.78.86-2.29.92-2.41a11,11,0,0,1,3.85-4,3.67,3.67,0,0,1,.34-.53,2.81,2.81,0,0,1,4.17-.43c1.72,1.64,1.05,5.89.12,7.8-.05.11-.78,1.27-1.25,2,.34-.39.67-.76,1-1.15.7-.78,1.42-1.53,2.2-2.35l1.17-1.15c.39-.39.84-.75,1.26-1.14,1-.87,2.06-1.7,3.14-2.52-.68-.62-3.06-2.84-3.7-4.3s-1-3.49-.22-4.95a2.81,2.81,0,0,1,4.05-1.07c2,1.37,1.94,5.66,1.31,7.7,0,.12-.65,1.53-1,2.3.65-.49,1.3-1,2-1.45,1.95-1.35,4-2.67,6-4,.62-.4,1.23-.81,1.84-1.22-.25-.22-3.13-2.8-3.85-4.43-.63-1.46-1-3.49-.22-5a2.82,2.82,0,0,1,4-1.06c2,1.37,1.94,5.66,1.31,7.7,0,.15-.93,2.17-1.18,2.68,1.34-.9,2.68-1.81,3.95-2.76a49,49,0,0,0,4.93-4.14c-.11-.1-3.13-2.78-3.87-4.46-.63-1.45-1-3.48-.22-4.95a2.8,2.8,0,0,1,4.05-1.06c2,1.36,1.94,5.66,1.31,7.69,0,.14-.71,1.68-1,2.41l.11.07a36.16,36.16,0,0,0,4.13-5c.68-1,1.29-1.94,1.85-2.89-.61-.44-3.4-2.49-4.22-3.93s-1.43-3.35-.77-4.9a2.82,2.82,0,0,1,3.91-1.5c2.09,1.15,2.55,5.42,2.15,7.51,0,.11-.37,1.24-.64,2.06.25-.44.51-.88.74-1.3.87-1.58,1.56-3.08,2.17-4.41.33-.77.62-1.46.89-2.11-.38-.75-1.85-3.78-1.93-5.41s.28-3.63,1.58-4.7a2.81,2.81,0,0,1,4.16.47c1.33,2-.23,6-1.55,7.65-.11.15-2.15,2.2-2.17,2.16l0,0c-.24.64-.51,1.31-.81,2-.58,1.35-1.24,2.87-2.08,4.47a49.34,49.34,0,0,1-2.93,5.05,37,37,0,0,1-4.05,5.13l-.06.05c.61-.33,2.35-1.21,2.49-1.27,2-.74,6.29-1,7.76.88a2.82,2.82,0,0,1-.84,4.11c-1.42.9-3.47.61-4.95.05-1.68-.63-4.43-3.37-4.65-3.59a49.51,49.51,0,0,1-5,4.39c-1,.8-2.07,1.57-3.14,2.32l1.09-.54c2-.74,6.29-1,7.76.88a2.82,2.82,0,0,1-.84,4.11c-1.42.9-3.47.61-4.95.05s-3.9-2.86-4.53-3.47l-1.23.86c-2,1.36-4,2.71-5.88,4.1-.67.49-1.31,1-2,1.5l1-.47c2-.74,6.28-1,7.75.88a2.81,2.81,0,0,1-.83,4.11c-1.42.9-3.47.61-5,.05S168,452.72,167.2,452c-.64.53-1.29,1.07-1.89,1.62-.41.38-.82.72-1.2,1.13L163,455.92c-.71.78-1.44,1.57-2.11,2.35-.47.53-.9,1.05-1.35,1.57.67-.5,2-1.44,2.11-1.5,1.86-1,6-1.94,7.79-.31a2.81,2.81,0,0,1-.2,4.19c-1.26,1.1-3.34,1.12-4.89.8-1.71-.36-4.73-2.55-5.11-2.83C158.47,461.05,157.77,461.9,157.13,462.71Z" style="fill:#263238"></path><path d="M437.5,430.38c-2.1-.31-6.08-2.9-6.09-2.91s2.51-2.1,2.69-2.22c2-1.3,6.74-2.63,8.83-.9a3.2,3.2,0,0,1,.07,4.77C441.64,430.47,439.29,430.63,437.5,430.38Z" style="fill:#263238"></path><path d="M398.39,410.25c-.05,0,.93-3.15,1-3.34,1-2.21,4.17-5.91,6.87-5.63a3.22,3.22,0,0,1,2.69,4c-.39,1.87-2.26,3.31-3.9,4.08C403.16,410.21,398.4,410.25,398.39,410.25Z" style="fill:#263238"></path><path d="M394.48,462.71c-.93,1.15-1.77,2.24-2.53,3.23H390c1-1.23,2.08-2.62,3.35-4.13.73-.88,1.54-1.8,2.37-2.74a30.37,30.37,0,0,1-2.12-2.91,20.62,20.62,0,0,1-5.63.39c-.13,1.12-.25,2.21-.34,3.25-.22,2.33-.35,4.4-.44,6.14h-1.55c.12-1.78.31-3.9.58-6.29.13-1.14.29-2.35.47-3.6-.44-.13-4-1.24-5.32-2.41s-2.41-2.72-2.28-4.4a2.81,2.81,0,0,1,3.23-2.66c2.35.42,4.13,4.33,4.42,6.44,0,.12,0,1.49.05,2.35.07-.5.14-1,.22-1.52.16-1,.35-2.06.54-3.17.12-.53.23-1.07.35-1.61s.28-1.09.42-1.65c.36-1.28.77-2.55,1.22-3.83-.9-.14-4.11-.68-5.45-1.55s-2.8-2.33-2.92-4a2.82,2.82,0,0,1,2.8-3.13c2.38.06,4.73,3.66,5.33,5.7,0,.12.3,1.64.43,2.47.28-.77.55-1.53.86-2.3.88-2.21,1.84-4.42,2.79-6.63.29-.67.57-1.35.86-2-.33,0-4.15-.61-5.66-1.58-1.33-.86-2.79-2.33-2.92-4a2.83,2.83,0,0,1,2.8-3.13c2.38.07,4.74,3.66,5.34,5.7,0,.15.42,2.33.49,2.89.62-1.49,1.23-3,1.78-4.48a48.6,48.6,0,0,0,1.82-6.18c-.15,0-4.14-.59-5.68-1.58-1.34-.86-2.8-2.33-2.92-4a2.81,2.81,0,0,1,2.79-3.13c2.39.06,4.74,3.66,5.34,5.7,0,.13.33,1.79.45,2.58H398a36.47,36.47,0,0,0,.69-6.43c0-1.19,0-2.33-.05-3.44-.76,0-4.21-.2-5.69-.94s-3-2-3.34-3.66a2.82,2.82,0,0,1,2.43-3.42c2.38-.2,5.11,3.12,5.93,5.08.05.1.38,1.24.61,2.07,0-.5-.06-1-.1-1.49-.15-1.8-.4-3.43-.63-4.88-.14-.82-.28-1.56-.42-2.25-.72-.42-3.63-2.13-4.59-3.44s-1.76-3.19-1.28-4.79a2.82,2.82,0,0,1,3.74-1.91c2.2.92,3.1,5.12,2.92,7.24,0,.18-.58,3-.62,3l0,0c.14.66.29,1.37.44,2.15.27,1.45.55,3.08.74,4.88a48.17,48.17,0,0,1,.34,5.83,38,38,0,0,1-.55,6.51.24.24,0,0,0,0,.08c.32-.62,1.29-2.31,1.38-2.43,1.26-1.72,4.69-4.3,6.95-3.55a2.81,2.81,0,0,1,1.57,3.89c-.68,1.53-2.55,2.42-4.1,2.77-1.75.41-5.56-.37-5.86-.43a49.78,49.78,0,0,1-1.74,6.42c-.42,1.23-.87,2.45-1.35,3.67.3-.52.57-1,.62-1.05,1.25-1.72,4.69-4.3,7-3.55a2.81,2.81,0,0,1,1.57,3.89c-.68,1.54-2.56,2.42-4.11,2.78s-4.83-.24-5.69-.4c-.18.46-.36.93-.55,1.39-.9,2.24-1.81,4.46-2.63,6.67-.3.78-.55,1.55-.82,2.33.27-.47.5-.86.54-.91,1.25-1.72,4.69-4.3,7-3.55a2.81,2.81,0,0,1,1.57,3.89c-.68,1.54-2.56,2.42-4.11,2.78s-4.51-.18-5.53-.38c-.24.81-.49,1.61-.69,2.4-.12.54-.28,1.06-.37,1.61s-.21,1.08-.32,1.61c-.16,1-.33,2.1-.46,3.12-.09.7-.17,1.37-.25,2,.28-.78.86-2.29.92-2.41a11,11,0,0,1,3.85-4,3.67,3.67,0,0,1,.34-.53,2.81,2.81,0,0,1,4.17-.43c1.72,1.64,1,5.89.12,7.8-.05.11-.78,1.27-1.25,2,.34-.39.67-.76,1-1.15.7-.78,1.42-1.53,2.2-2.35l1.17-1.15c.39-.39.84-.75,1.26-1.14,1-.87,2.06-1.7,3.14-2.52-.68-.62-3.06-2.84-3.7-4.3s-1-3.49-.22-4.95a2.81,2.81,0,0,1,4-1.07c2,1.37,1.94,5.66,1.31,7.7,0,.12-.65,1.53-1,2.3.65-.49,1.3-1,2-1.45,1.95-1.35,4-2.67,6-4,.62-.4,1.23-.81,1.84-1.22-.25-.22-3.13-2.8-3.85-4.43-.63-1.46-1-3.49-.22-5a2.82,2.82,0,0,1,4.05-1.06c2,1.37,1.94,5.66,1.31,7.7-.05.15-.93,2.17-1.18,2.68,1.34-.9,2.68-1.81,3.95-2.76a49,49,0,0,0,4.93-4.14c-.11-.1-3.13-2.78-3.87-4.46-.63-1.45-1-3.48-.22-4.95a2.8,2.8,0,0,1,4-1.06c2,1.36,1.94,5.66,1.31,7.69,0,.14-.71,1.68-1,2.41l.11.07a36.16,36.16,0,0,0,4.13-5c.68-1,1.29-1.94,1.85-2.89-.61-.44-3.4-2.49-4.22-3.93s-1.43-3.35-.77-4.9a2.82,2.82,0,0,1,3.91-1.5c2.09,1.15,2.55,5.42,2.15,7.51,0,.11-.37,1.24-.64,2.06.25-.44.51-.88.74-1.3.87-1.58,1.56-3.08,2.17-4.41.33-.77.62-1.46.89-2.11-.38-.75-1.85-3.78-1.93-5.41s.28-3.63,1.58-4.7a2.81,2.81,0,0,1,4.16.47c1.33,2-.23,6-1.55,7.65-.11.15-2.15,2.2-2.17,2.16l0,0c-.24.64-.51,1.31-.81,2-.58,1.35-1.24,2.87-2.08,4.47a49.34,49.34,0,0,1-2.93,5.05,37,37,0,0,1-4,5.13l-.06.05c.61-.33,2.35-1.21,2.49-1.27,2-.74,6.29-1,7.76.88a2.82,2.82,0,0,1-.84,4.11c-1.42.9-3.47.61-4.95.05-1.68-.63-4.43-3.37-4.65-3.59a49.51,49.51,0,0,1-5,4.39c-1,.8-2.07,1.57-3.14,2.32l1.09-.54c2-.74,6.29-1,7.76.88a2.82,2.82,0,0,1-.84,4.11c-1.42.9-3.47.61-5,.05s-3.9-2.86-4.53-3.47l-1.23.86c-2,1.36-4,2.71-5.88,4.1-.67.49-1.31,1-2,1.5l.95-.47c2-.74,6.28-1,7.75.88a2.81,2.81,0,0,1-.83,4.11c-1.42.9-3.47.61-5,.05s-3.66-2.64-4.41-3.36c-.64.53-1.29,1.07-1.89,1.62-.41.38-.82.72-1.2,1.13l-1.15,1.17c-.71.78-1.44,1.57-2.11,2.35-.47.53-.9,1.05-1.35,1.57.67-.5,2-1.44,2.11-1.5,1.86-1,6.05-1.94,7.79-.31a2.81,2.81,0,0,1-.2,4.19c-1.27,1.1-3.34,1.12-4.89.8-1.71-.36-4.73-2.55-5.11-2.83C395.82,461.05,395.12,461.9,394.48,462.71Z" style="fill:#263238"></path></g><g id="Target"><polygon points="278.47 465.94 264.87 465.94 275.85 381.74 289.45 381.74 278.47 465.94" style="fill:#263238"></polygon><polygon points="378.88 465.94 392.48 465.94 381.5 381.74 367.9 381.74 378.88 465.94" style="fill:#263238"></polygon><rect x="321.5" y="381.74" width="14.64" height="83.68" style="fill:#263238"></rect><circle cx="328.82" cy="324.7" r="86.7" style="fill:#b8b8b8"></circle><circle cx="328.82" cy="324.7" r="70.58" style="fill:#8f8f8f"></circle><circle cx="328.82" cy="324.7" r="55.31" transform="translate(-68.55 88.8) rotate(-13.94)" style="fill:#b8b8b8"></circle><circle cx="328.82" cy="324.7" r="40.01" style="fill:#8f8f8f"></circle><circle cx="328.82" cy="324.7" r="26.12" style="fill:#92E3A9"></circle></g><g id="Character"><path d="M152.63,249.32l-3.94,34.16L134.6,356.4,124,436.83s-2.5,2.19-2.5,4.07V449l16.9,6.26s3.13-6.17,3.13-8.68-.63-7.82-.31-9.7,11.58-30.36,13.77-37.55,3.75-23.79,4.38-26.29,21.28-69.8,21.28-69.8l3.13-.31L200,376.43s6.58,27.85,8.45,38.81,7.2,24.41,7.2,24.41a7.29,7.29,0,0,0-.94,5.32c.63,3.13,6.18,13.28,6.18,13.28L236,446.36s2.24-7.65,1.3-9.22-2.19-3.75-2.19-3.75-1.88-43.5-2.82-46.95a52.55,52.55,0,0,1-1.25-10c0-.94-13.15-92.64-13.15-92.64l-5.63-36.62s-29.73,2.51-42.25.94-15.34-1.88-15.34-1.88l-1.56,1.88Z" style="fill:#fff;stroke:#263238;stroke-linecap:round;stroke-linejoin:round"></path><path d="M121.46,449a70.59,70.59,0,0,1-4.81,7.84c-1.62,1.88-4.58,3.77-5.12,5.38a8,8,0,0,0,0,3.77h26.66s1.62-3.5.81-5.92a13.91,13.91,0,0,1-.64-4.81Z" style="fill:#92E3A9;stroke:#263238;stroke-linecap:round;stroke-linejoin:round"></path><path d="M111.53,465.94h26.66a12.72,12.72,0,0,0,1-3.77H111.53A8,8,0,0,0,111.53,465.94Z" style="fill:#fff;stroke:#263238;stroke-linecap:round;stroke-linejoin:round"></path><path d="M236,446.85s8.3,5.9,14.49,9.67,8.08,5.12,8.08,7.27v2.15h-38s-.54-5.11.27-8.08C220.88,457.86,236.32,445.52,236,446.85Z" style="fill:#92E3A9;stroke:#263238;stroke-linecap:round;stroke-linejoin:round"></path><path d="M220.61,465.94h38v-2.15a3,3,0,0,0-.19-1.08h-38C220.46,464.5,220.61,465.94,220.61,465.94Z" style="fill:#fff;stroke:#263238;stroke-linecap:round;stroke-linejoin:round"></path><path d="M254.06,166.88s7.8.76,11,0,11.29-2.33,13.4-2.27,26.3,3.46,29.32,3.21,15.09-1.71,15.09-1.71l-1.68,13.73s-18.66,1.06-26.47,2.88-36.53,3.24-44.25,3.4Z" style="fill:#fff;stroke:#263238;stroke-linecap:round;stroke-linejoin:round"></path><path d="M120.41,176s-5.84-13-4.9-18,17.22-1.26,16.59,3.13S125.93,175.54,120.41,176Z" style="fill:#6b6b6b;stroke:#263238;stroke-linecap:round;stroke-linejoin:round"></path><path d="M183.74,261.88c15.83-.43,25.22-4.8,29.58-7.53l-1.1-7.18s-29.73,2.51-42.25.94-15.34-1.88-15.34-1.88l-1.56,1.88-.44,1.21L152,254.7C155.84,257.17,166,262.36,183.74,261.88Z" style="fill:#6b6b6b;stroke:#263238;stroke-linecap:round;stroke-linejoin:round"></path><path d="M200.9,253.09c0,.5.17,6.15.17,6.15l2.65-.67-.17-6.31Z" style="fill:#92E3A9;stroke:#263238;stroke-linecap:round;stroke-linejoin:round"></path><path d="M160.57,252.26s-4,2.83,0,6.64c0,0,7.8,3.32,19.75,3,0,0,3.44-1.68.81-6.73A132,132,0,0,1,160.57,252.26Z" style="fill:#92E3A9;stroke:#263238;stroke-linecap:round;stroke-linejoin:round"></path><polyline points="159.57 257.41 128.2 302.39 129.53 308.37" style="fill:none;stroke:#263238;stroke-linecap:round;stroke-linejoin:round"></polyline><line x1="180.65" y1="261.23" x2="191.77" y2="285.96" style="fill:none;stroke:#263238;stroke-linecap:round;stroke-linejoin:round"></line><line x1="175.36" y1="292.95" x2="212.62" y2="285.15" style="fill:none;stroke:#263238;stroke-linecap:round;stroke-linejoin:round"></line><path d="M204.82,286.59c.35-.59,3.87-6.63,6.21-6.35s-.29,5.19-.29,5.19S204.8,286.62,204.82,286.59Z" style="fill:#92E3A9;stroke:#263238;stroke-linecap:round;stroke-linejoin:round"></path><path d="M204.82,286.59s3.18,2.89,5.63,3.32,2.46-2.74.29-4.48Z" style="fill:#fff;stroke:#263238;stroke-linecap:round;stroke-linejoin:round"></path><line x1="176.66" y1="298.14" x2="213.92" y2="290.35" style="fill:none;stroke:#263238;stroke-linecap:round;stroke-linejoin:round"></line><path d="M206.12,291.79c.35-.59,3.87-6.63,6.21-6.36s-.29,5.2-.29,5.2S206.1,291.82,206.12,291.79Z" style="fill:#92E3A9;stroke:#263238;stroke-linecap:round;stroke-linejoin:round"></path><path d="M206.12,291.79s3.18,2.89,5.63,3.32,2.46-2.74.29-4.48Z" style="fill:#fff;stroke:#263238;stroke-linecap:round;stroke-linejoin:round"></path><line x1="177.96" y1="303.34" x2="215.22" y2="295.54" style="fill:none;stroke:#263238;stroke-linecap:round;stroke-linejoin:round"></line><path d="M207.42,297c.35-.59,3.87-6.63,6.21-6.36s-.29,5.2-.29,5.2S207.4,297,207.42,297Z" style="fill:#92E3A9;stroke:#263238;stroke-linecap:round;stroke-linejoin:round"></path><path d="M207.42,297s3.18,2.89,5.63,3.32,2.46-2.74.29-4.48Z" style="fill:#92E3A9;stroke:#263238;stroke-linecap:round;stroke-linejoin:round"></path><line x1="175.21" y1="295.54" x2="212.47" y2="287.75" style="fill:none;stroke:#263238;stroke-linecap:round;stroke-linejoin:round"></line><path d="M204.68,289.19c.35-.59,3.86-6.63,6.21-6.35s-.29,5.19-.29,5.19S204.66,289.22,204.68,289.19Z" style="fill:#92E3A9;stroke:#263238;stroke-linecap:round;stroke-linejoin:round"></path><path d="M204.68,289.19s3.17,2.89,5.63,3.32,2.45-2.74.29-4.48Z" style="fill:#92E3A9;stroke:#263238;stroke-linecap:round;stroke-linejoin:round"></path><line x1="176.66" y1="300.46" x2="213.92" y2="292.66" style="fill:none;stroke:#263238;stroke-linecap:round;stroke-linejoin:round"></line><path d="M206.12,294.1c.35-.59,3.87-6.63,6.21-6.35S212,293,212,293,206.1,294.13,206.12,294.1Z" style="fill:#92E3A9;stroke:#263238;stroke-linecap:round;stroke-linejoin:round"></path><path d="M206.12,294.1s3.18,2.89,5.63,3.32,2.46-2.74.29-4.47Z" style="fill:#92E3A9;stroke:#263238;stroke-linecap:round;stroke-linejoin:round"></path><path d="M192.49,283.06l-68.7,25.67,1.64,6.93,72.45-13Zm-17.1,8,16.15-5.81,1.05,3Z" style="fill:#263238;stroke:#263238;stroke-linecap:round;stroke-linejoin:round"></path><path d="M169.45,157.31A110.35,110.35,0,0,1,150.3,155c-9.11-2.1-19.15-3.5-19.15-3.5s-3.74,13.54-5.61,18.21a12.21,12.21,0,0,1-5.13,6.31s19.85,5.14,20.78,5.6,7.71,28.26,8.41,36.67,3.27,23.82,2.57,25.69a8,8,0,0,0,.46,5.37c.47.94,18,5.84,28.5,5.84a113,113,0,0,0,26.85-4c2.57-.93,4.21-2.8,4.21-5.14a61.64,61.64,0,0,0,0-6.54c-.24-1.63,7.47-39,7.47-39l27.6-3.44,6.8-30.19s-27-2.65-33.1-4.34c-8.77-2.44-17.65-3.37-24-4.07S169.45,157.31,169.45,157.31Z" style="fill:#263238;stroke:#263238;stroke-linecap:round;stroke-linejoin:round"></path><polyline points="224.74 177.38 219.66 200.51 232.56 179.57" style="fill:none;stroke:#6e6e6e;stroke-linecap:round;stroke-linejoin:round"></polyline><line x1="219.66" y1="200.51" x2="238.2" y2="186.14" style="fill:none;stroke:#6e6e6e;stroke-linecap:round;stroke-linejoin:round"></line><path d="M141.19,181.59a45.5,45.5,0,0,0-1.89-13.91" style="fill:none;stroke:#6e6e6e;stroke-linecap:round;stroke-linejoin:round"></path><path d="M142.43,182.7s2.19-9.7.94-15" style="fill:none;stroke:#6e6e6e;stroke-linecap:round;stroke-linejoin:round"></path><line x1="139.92" y1="181.14" x2="128.03" y2="169.24" style="fill:none;stroke:#6e6e6e;stroke-linecap:round;stroke-linejoin:round"></line><path d="M211.11,160.16c-5.2-1.35-9.69-1.12-13.22-1.58-11.61,25.88-48.29,59.68-48.29,59.68.11,1.33.27,2.82.45,4.42,10.94-10.57,26.49-21.51,26.49-21.51l39,19.65c2-10,4.11-20.31,4.11-20.31C208.73,186.9,210.34,165.3,211.11,160.16Z" style="fill:#92E3A9;stroke:#263238;stroke-linecap:round;stroke-linejoin:round"></path><path d="M167.35,147.5a27,27,0,0,1,1.4,5.6c0,1.64-4.2,9.34-3.74,10.74s11.21,11,17.28,8.65S193,163.84,193,162.21s-1.87-7.47-1.87-11.68-11-13.54-15.65-14S167.58,142.13,167.35,147.5Z" style="fill:#fff;stroke:#263238;stroke-linecap:round;stroke-linejoin:round"></path><path d="M198.41,115.74s3.5,11.91,2.8,13.07a23.18,23.18,0,0,0-1.4,3s4.9,5.37,4.2,6.54-2.8,2.8-3,3.74-3.27,13.07-4.67,14-8.41-1.17-13.08-3.27a15.26,15.26,0,0,1-6.77-6.07s-4.44,2.57-8.88-2.11-2.8-13.54.94-18S184.4,110.6,190,110.6,198.41,115.74,198.41,115.74Z" style="fill:#fff;stroke:#263238;stroke-linecap:round;stroke-linejoin:round"></path><path d="M183.23,119.47s-1.87,1.4-1.17,2.57,4.2,3.5,1.87,5.14-4,2.8-4,4.2.23,5.37-.7,5.84-2.34,0-3.74-2.1-3.27-2.57-5.14-1.17.47,8.41,1.4,9.58a18.92,18.92,0,0,0,3.74,2.8s-5.6,4-6.54,4-1.17-.93-4.43-5.14-8-12.84-8.18-21.48,6.77-13.55,9.34-14.25a33.48,33.48,0,0,1,4.91-.93s-1.64-4.91,2.57-6.08,4.2,2.57,6.07,1.4.7-7,4.44-7.94,7.7,1.41,7.7,3.51,3.51,3.27,5.61,1.4,8.17,2.57,9.81,5.84-2.57,9.11-6.54,9.57-8.64-2.8-10.75-1.17S183.23,119.47,183.23,119.47Z" style="fill:#263238;stroke:#263238;stroke-linecap:round;stroke-linejoin:round"></path><path d="M316.62,214.92c-7.62,14.28-18.57,26.51-31,36.73-10.17,8.34-30.23,16.4-31.06,31.59" style="fill:none;stroke:#263238;stroke-linecap:round;stroke-linejoin:round;stroke-width:3px"></path><path d="M314.19,118.36c-7.91-14.12-19.11-26.13-31.78-36.1-10.34-8.12-30.56-15.77-31.7-30.95" style="fill:none;stroke:#263238;stroke-linecap:round;stroke-linejoin:round;stroke-width:3px"></path><path d="M314.14,115.62s-3.3.61-3.19,1.94-1.54,13.84,0,16.05,8.44,9,6.25,14.87-1.62,8.83-.82,10.44,2.7,10.48,2.34,13.18-6.21,8.88-5.19,13.14,1.87,10.55-.79,14.78-1.36,7.81-1.06,11.46a21.29,21.29,0,0,0,1.9,6.87l3,.09s9.88-30.25,9.25-58.29S314.14,115.62,314.14,115.62Z" style="fill:#92E3A9;stroke:#263238;stroke-linecap:round;stroke-linejoin:round"></path><polyline points="252.34 55.66 194.81 155.21 255.4 275.65" style="fill:none;stroke:#263238;stroke-linecap:round;stroke-linejoin:round"></polyline><line x1="192.17" y1="155.08" x2="335.03" y2="166.24" style="fill:none;stroke:#263238;stroke-linecap:round;stroke-linejoin:round;stroke-width:2px"></line><path d="M172.81,153.41s5.34-3.48,7.53-5.3,8.6-.94,9.57-.55,8.47,3.28,9.2,3.69,2,1,.93,2.74-4.09,1.5-4.23,2.69.54,3.7-.31,4.71a6.88,6.88,0,0,0-1.19,2.67s3.2,1.85,2.38,3.32-.64.76-3.22.74a150.77,150.77,0,0,1-18.94-2.43,35.92,35.92,0,0,0-12.73-.83c-5.12.43-40.42,4.27-46.64,2.67s-14.27-8.2-15.1-12.58,12.23-10.85,16.42-11.19,49.83,10.42,51.52,11S172.81,153.41,172.81,153.41Z" style="fill:#fff;stroke:#263238;stroke-linecap:round;stroke-linejoin:round"></path><path d="M322.89,166.14s8.63-.48,8.56,1.4a107.93,107.93,0,0,1-2.68,13.11c-.4.74-7.56-.78-7.56-.78Z" style="fill:#fff;stroke:#263238;stroke-linecap:round;stroke-linejoin:round"></path><path d="M331.12,170.05s-7-1.19-8.71-.89" style="fill:none;stroke:#263238;stroke-linecap:round;stroke-linejoin:round"></path><path d="M330.41,174a75.39,75.39,0,0,0-8.32-.92" style="fill:#fff;stroke:#263238;stroke-linecap:round;stroke-linejoin:round"></path><path d="M329.61,177.85s-7.31-1.24-8-1.18" style="fill:#fff;stroke:#263238;stroke-linecap:round;stroke-linejoin:round"></path><path d="M308.19,169.69l6.64-7.58,9.62,3s-1.22,13.69-1.9,14-2.71-1.65-3.06-3-.79-3.92-.79-3.92-3.53,2.64-5.61,3" style="fill:#fff;stroke:#263238;stroke-linecap:round;stroke-linejoin:round"></path></g><g id="Floor"><line x1="41.65" y1="465.94" x2="473" y2="465.94" style="fill:none;stroke:#263238;stroke-linecap:round;stroke-linejoin:round"></line></g></svg>