<svg xmlns="http://www.w3.org/2000/svg" xmlns:xlink="http://www.w3.org/1999/xlink" viewBox="0 0 500 500"><defs><clippath id="clip-path"><path d="M364.23,335.94a6.27,6.27,0,0,1,4.06-3.18c1.7-.4,4,.56,4.22,2.29.45,3,3.35,5.2,6.35,5.49a11.51,11.51,0,0,0,8.28-3,28.08,28.08,0,0,0,5.7-7.07c3.5-5.75,4.92-13,2.87-19.38s-8.2-12-14.94-11.79c-11.82.32-31.8,15.25-30.34,36.45C350.88,342.39,361.37,341.62,364.23,335.94Zm6.7-7.33a3.08,3.08,0,1,1,3.74-1.18A2.81,2.81,0,0,1,370.93,328.61Z" style="fill:#92E3A9;stroke:#263238;stroke-miterlimit:10"></path></clippath><clippath id="clip-path-2"><path d="M289.39,186.19a18,18,0,0,0-5-4.74c-2.66-2.25-20.26-9-25.94-11.1v.06c2.52,1,5.57,2.16,8.59,3.31-2.18,3.73-6.9,9.64-15.28,10.35-7.92.67-12.83-6.5-15.33-11.72-.22.07-16,1.6-19.58,9.33l-1.4,15.08c10.9,7.29,8.2,6.27,9.93,16.61a155.77,155.77,0,0,1,2.12,24.4c.06,7.83,4.51,12.89,6.14,11.82h0a5.15,5.15,0,0,1,.79-.46h0a2.08,2.08,0,0,1,.82-.26c1.38-.09,6.59.54,11.87.2.46,0,.91-.07,1.37-.12q1.16-.1,2.28-.3c.74-.14,1.47-.29,2.17-.49a134.32,134.32,0,0,0,14.71-5.68h0l2.38-1,1.18-.5,1.08-.47.76-.32c.25-.12.5-.21.74-.32h0c1.24-.53,2.4-1,3.47-1.41a10.74,10.74,0,0,1,1.5-.46c.07,1.12.18,2.27.32,3.39.67,5.36,2.13,10.31,4.74,11l.18,0a3.94,3.94,0,0,0,.69.07H285a5.45,5.45,0,0,0,1.7-.33h0a11,11,0,0,0,5.51-5.15,7.23,7.23,0,0,0,.85-3.15c0-4,1.12-27.51,1.12-34.37S292.74,190.64,289.39,186.19Z" style="fill:#92E3A9;stroke:#263238;stroke-linecap:round;stroke-linejoin:round"></path></clippath><clippath id="clip-path-3"><path d="M282.69,419.77c.45,2.05,2.12,4.82.3,5.61a16.09,16.09,0,0,0-19.5-.45,23.35,23.35,0,0,1-3.48,2.5,3.81,3.81,0,0,1-4-.13c-1.79-1.42.41-6.74,1.59-8.77.68-1.15.86-7.66.75-7.81a7.43,7.43,0,0,1-.42-8.32c.53-.89-.77-10.77-1.84-23.27-1-11.13-1.64-34-1.25-44.91.37-10.41-.55-21-1.69-31.5-1.15,10.47-2.06,21.09-1.69,31.5.39,10.88-.73,38.3-1.79,49.43-1.32,13.9-.6,19.41-.6,19.41.94,2.3-.93,6.23,0,7.53,3.25,4.53-.41,6.37.6,10.31.59,2.28,2.42,5,.64,6.4a3.83,3.83,0,0,1-4,.13,23.27,23.27,0,0,1-3.47-2.5,16.1,16.1,0,0,0-19.51.45c-1.82-.79-2.27-3.39-1.81-5.44s1.53-3.91,1.78-6c.21-1.83-.23-3.68-.26-5.53a3.63,3.63,0,0,1,.47-1.68c2-3.82,4.29-4.76,4.15-9.07l-4.76-119,5.91-31.28,24.34.27,24.35-.27,5.92,31.28-3.18,90.68q-.21,6.11-.8,12.19l-2.08,21.53c1.53.88,3.85,3.34,3.82,5.19s-.47,3.7-.26,5.53C281.16,415.86,282.23,417.73,282.69,419.77Z" style="fill:#c9cccd;stroke:#263238;stroke-linecap:round;stroke-linejoin:round"></path></clippath><clippath id="clip-path-4"><path d="M218.55,179.28s-5,4.43-9.3,28.69-3.2,21.76-3.2,21.76-2.14,8.51,3.2,9.42,13.6-3.38,13.6-3.38,1.36-25,4.58-39.06" style="fill:#92E3A9;stroke:#263238;stroke-linecap:round;stroke-linejoin:round"></path></clippath></defs><g id="background-simple"><path d="M449.53,135.52c5.45,12.88,33,71.66,29.25,150.61-2.88,61.15-42.27,123.87-81.63,144-80.33,41.16-224.09,38.56-307.46,4-39.92-16.57-65.93-58.74-69.54-101.81s9-90.78,44.28-115.78c45.42-32.2,67.49-54.28,72.06-75.4C144,106.48,172.63,66.05,205.63,53,329.79,4.07,432.18,94.5,449.53,135.52Z" style="fill:#92E3A9"></path><g style="opacity:0.7000000000000001"><path d="M449.53,135.52c5.45,12.88,33,71.66,29.25,150.61-2.88,61.15-42.27,123.87-81.63,144-80.33,41.16-224.09,38.56-307.46,4-39.92-16.57-65.93-58.74-69.54-101.81s9-90.78,44.28-115.78c45.42-32.2,67.49-54.28,72.06-75.4C144,106.48,172.63,66.05,205.63,53,329.79,4.07,432.18,94.5,449.53,135.52Z" style="fill:#fff"></path></g></g><g id="plant"><path d="M46.19,257.56c.74,4.51,4.67,10.21,9.06,8.47a8.41,8.41,0,0,0,2-1.17c-1.39-3.13-.49-7.29-2.92-9.66-1.33-1.31-4.38-3.58-6.17-3.33C45.7,252.2,45.8,255.07,46.19,257.56Z" style="fill:#92E3A9"></path><path d="M55.17,269.91c2.45,2.83,5.26,4.82,10.06,3.27A6.38,6.38,0,0,0,68,271.34a3.87,3.87,0,0,0,1-3,3.6,3.6,0,0,0-2.89-2.78,10.23,10.23,0,0,0-4.27.17,14.55,14.55,0,0,0-4.25,1.72A10,10,0,0,0,55.17,269.91Z" style="fill:#92E3A9"></path><path d="M62.47,255.11c-3.38,7.29-7.48,14.09-10.9,21.14" style="fill:none;stroke:#92E3A9;stroke-miterlimit:10"></path><path d="M35.17,280.05A12.08,12.08,0,0,0,39,286.51c1.86,1.55,4.09,2.16,6.11,1a10,10,0,0,0,1.78-1.41,16.24,16.24,0,0,1-1.58-5,8.32,8.32,0,0,0-2-4.59c-1.35-1.3-4.37-3.68-6.26-3.18C34.57,274,34.55,277.4,35.17,280.05Z" style="fill:#92E3A9"></path><path d="M45.66,291.32a11.47,11.47,0,0,0,4.66,2.52,9.12,9.12,0,0,0,5.79-.8,5.63,5.63,0,0,0,2.35-1.92,2.91,2.91,0,0,0,.49-2.71,4,4,0,0,0-3.2-2.39,9.13,9.13,0,0,0-4.14.42,11.2,11.2,0,0,0-4,2.1A9.88,9.88,0,0,0,45.66,291.32Z" style="fill:#92E3A9"></path><path d="M51.57,276.25c-1.77,3.5-3.27,7.11-4.7,10.75s-2.59,7.38-3.57,11.17" style="fill:none;stroke:#92E3A9;stroke-miterlimit:10"></path><path d="M27.93,305c2,4.51,7.59,8.51,11.2,5.47a8.93,8.93,0,0,0,1.49-1.71,9.78,9.78,0,0,1-1.43-2.18c-.38-.79-.7-1.63-1-2.44a8.47,8.47,0,0,0-2.9-4.12c-1.59-1-5-2.75-6.76-1.91C26.19,299.21,26.85,302.54,27.93,305Z" style="fill:#92E3A9"></path><path d="M40.3,314.12c3.28,1.87,6.56,2.71,10.58-.16,1.74-1.2,3-3.45,2-5.24A3.91,3.91,0,0,0,49.29,307a9.51,9.51,0,0,0-4,1.21A12.46,12.46,0,0,0,41.78,311,9.09,9.09,0,0,0,40.3,314.12Z" style="fill:#92E3A9"></path><path d="M43.3,298.17A159.62,159.62,0,0,0,39,321.28" style="fill:none;stroke:#92E3A9;stroke-miterlimit:10"></path><path d="M24.84,330.72a11.48,11.48,0,0,0,6,4.76c2.31.73,4.59.4,6-1.44a9.93,9.93,0,0,0,1.13-2,13.33,13.33,0,0,1-3.25-4.15,8.11,8.11,0,0,0-3.4-3.69c-1.69-.77-5.32-2-6.95-.94a2.89,2.89,0,0,0-1.17,3.08A10.67,10.67,0,0,0,24.84,330.72Z" style="fill:#92E3A9"></path><path d="M38.84,337.35c3.62,1.07,7,1,10.28-2.44,1.4-1.45,2.21-3.61.91-4.9a4.61,4.61,0,0,0-3.82-1,8.43,8.43,0,0,0-3.73,1.68A10.39,10.39,0,0,0,39.59,334,9.11,9.11,0,0,0,38.84,337.35Z" style="fill:#92E3A9"></path><path d="M39,321.28l-.59,5.87a50.3,50.3,0,0,0-.15,5.77,85.41,85.41,0,0,0,1.1,11.61" style="fill:none;stroke:#92E3A9;stroke-miterlimit:10"></path><path d="M28.52,357.52a11.83,11.83,0,0,0,7.08,2.87c2.44.07,4.52-.87,5.4-3.05a10.4,10.4,0,0,0,.54-2.2c-3.23-1.17-5.32-5.05-8.67-5.56-1.86-.25-5.71-.44-6.93,1.12C24.3,352.79,26.42,355.7,28.52,357.52Z" style="fill:#92E3A9"></path><path d="M43.8,360A11.22,11.22,0,0,0,49,358.93a9.57,9.57,0,0,0,4-4.13c1-1.74,1.14-4-.51-5.08a4.2,4.2,0,0,0-4,.07,9.25,9.25,0,0,0-3.07,2.79,11.07,11.07,0,0,0-1.84,4A8.71,8.71,0,0,0,43.8,360Z" style="fill:#92E3A9"></path><path d="M39.4,344.53a74.28,74.28,0,0,0,7,22.1" style="fill:none;stroke:#92E3A9;stroke-miterlimit:10"></path><path d="M41,382.91a12,12,0,0,0,4.05.75,10,10,0,0,0,3.83-.69,5.2,5.2,0,0,0,3.62-5.05,13.07,13.07,0,0,0-.39-2.22A13.13,13.13,0,0,1,47,374.51a9.46,9.46,0,0,0-5-.94c-1.83.37-5.57,1.39-6.15,3.36C35,379.59,38.22,381.87,41,382.91Z" style="fill:#92E3A9"></path><path d="M56.1,379.09a11.27,11.27,0,0,0,4.13-3.27,11.16,11.16,0,0,0,2-5.28c.28-1.88-.22-3.7-2-3.92a4.74,4.74,0,0,0-3.61,1.62,8.79,8.79,0,0,0-1.89,3.63,9.58,9.58,0,0,0-.18,4.3A7.43,7.43,0,0,0,56.1,379.09Z" style="fill:#92E3A9"></path><path d="M46.42,366.63a50.36,50.36,0,0,0,6.42,9.55,39.34,39.34,0,0,0,8.64,7.44" style="fill:none;stroke:#92E3A9;stroke-miterlimit:10"></path><path d="M63.42,400a13.39,13.39,0,0,0,6.71-3c1.8-1.61,2.75-3.71,1.91-5.89a8.83,8.83,0,0,0-1.15-2c-3.14,1.36-7.31.36-9.7,2.77a28.13,28.13,0,0,0-2.41,2.79,4.44,4.44,0,0,0-1,3.32C58,400.41,60.89,400.38,63.42,400Z" style="fill:#92E3A9"></path><path d="M75.9,391.18c2.8-2.49,4.65-5.35,3.29-10.05-.57-2-2.43-4-4.65-3.7a3.57,3.57,0,0,0-2.83,2.84,10.1,10.1,0,0,0,.09,4.26,13.45,13.45,0,0,0,1.64,4.25A9.66,9.66,0,0,0,75.9,391.18Z" style="fill:#92E3A9"></path><path d="M61.48,383.62c.78.54,1.64.95,2.46,1.43l2.64,1.4,5.21,2.87c1.73.95,3.45,1.89,5.2,2.76.87.44,1.74.87,2.62,1.27s1.78.8,2.71,1.25" style="fill:none;stroke:#92E3A9;stroke-miterlimit:10"></path><path d="M83,410.57a19.21,19.21,0,0,0,3.22-.84,16.93,16.93,0,0,0,3.27-1.56c2-1.23,3.54-3,3.1-5.33a8.32,8.32,0,0,0-.81-2.16c-3.36.86-7.27-.36-9.71,2.06-1.35,1.27-3.63,4.28-3.61,6a1.77,1.77,0,0,0,1.44,1.86A9.85,9.85,0,0,0,83,410.57Z" style="fill:#92E3A9"></path><path d="M96.42,403.84a11.52,11.52,0,0,0,4.35-3c1.07-1.4,1.61-3.26,1.06-6.12-.44-2.39-2.67-5.23-5.23-5.34a3.18,3.18,0,0,0-3.24,2.45,11.22,11.22,0,0,0-.13,4.4,19.6,19.6,0,0,0,1.2,4.63A14,14,0,0,0,96.42,403.84Z" style="fill:#92E3A9"></path><path d="M82.32,394.6a54.48,54.48,0,0,1,19,15" style="fill:none;stroke:#92E3A9;stroke-miterlimit:10"></path><path d="M95.14,424.34a18.16,18.16,0,0,0,6.89.59c2.38-.3,4.48-1.23,5.08-3.51a6.79,6.79,0,0,0,.17-2.29c-3.37-.66-6.43-3.41-9.66-2.3-1.76.56-5.11,2.29-5.84,3.89C90.81,422.79,93.05,423.65,95.14,424.34Z" style="fill:#92E3A9"></path><path d="M110.13,424c3.73,0,7.31-.35,8.81-6a8.33,8.33,0,0,0-.15-4,5.32,5.32,0,0,0-2.32-3.09,3.27,3.27,0,0,0-4,.85,11.51,11.51,0,0,0-2,3.93,20.35,20.35,0,0,0-.88,4.7,7.3,7.3,0,0,0,.16,1.82C109.86,422.78,110,423.37,110.13,424Z" style="fill:#92E3A9"></path><path d="M101.33,409.58a54.34,54.34,0,0,1,10.79,21.67" style="fill:none;stroke:#92E3A9;stroke-miterlimit:10"></path><path d="M101.89,299.91c-.4,3.22,1.11,7.9,4.44,7.61a6.47,6.47,0,0,0,1.57-.4c-.31-2.42,1.15-5.07,0-7.17-.64-1.16-2.25-3.32-3.52-3.52C102.65,296.16,102.13,298.14,101.89,299.91Z" style="fill:#92E3A9"></path><path d="M105.49,310.14c1.09,2.42,2.6,4.34,6.18,4.27a4.57,4.57,0,0,0,2.26-.69,2.73,2.73,0,0,0,1.29-1.87,2.54,2.54,0,0,0-1.4-2.47,7.09,7.09,0,0,0-2.94-.76,9.93,9.93,0,0,0-3.24.31A7.2,7.2,0,0,0,105.49,310.14Z" style="fill:#92E3A9"></path><path d="M113.47,301.56c-3.79,4.26-8,8.06-11.72,12.15" style="fill:none;stroke:#92E3A9;stroke-miterlimit:10"></path><path d="M89.83,313a8.48,8.48,0,0,0,1.32,5.18,3.7,3.7,0,0,0,3.95,1.91,7.42,7.42,0,0,0,1.5-.59,11.35,11.35,0,0,1-.06-3.73,6,6,0,0,0-.44-3.54c-.66-1.16-2.23-3.39-3.61-3.44C90.65,308.72,90,311,89.83,313Z" style="fill:#92E3A9"></path><path d="M94.67,322.76a8,8,0,0,0,2.66,2.66,6.49,6.49,0,0,0,4.1.64,4,4,0,0,0,2-.83,2.06,2.06,0,0,0,.88-1.75,2.86,2.86,0,0,0-1.69-2.27,6.68,6.68,0,0,0-2.9-.56,8,8,0,0,0-3.11.63A7.24,7.24,0,0,0,94.67,322.76Z" style="fill:#92E3A9"></path><path d="M101.75,313.71c-1.91,2-3.66,4.18-5.38,6.36s-3.26,4.49-4.7,6.87" style="fill:none;stroke:#92E3A9;stroke-miterlimit:10"></path><path d="M79.83,328.44c.46,3.48,3.44,7.33,6.51,6a6.45,6.45,0,0,0,1.37-.86,6.73,6.73,0,0,1-.54-1.77c-.09-.62-.14-1.25-.21-1.88a6,6,0,0,0-1.14-3.39c-.87-1-2.82-2.88-4.21-2.67C79.82,324.17,79.6,326.57,79.83,328.44Z" style="fill:#92E3A9"></path><path d="M86.39,337.18c1.85,1.94,3.91,3.18,7.23,2,1.42-.46,2.71-1.74,2.4-3.16A2.76,2.76,0,0,0,94,334.15a6.69,6.69,0,0,0-3,0A8.85,8.85,0,0,0,88,335.37,6.41,6.41,0,0,0,86.39,337.18Z" style="fill:#92E3A9"></path><path d="M91.67,326.94a114.13,114.13,0,0,0-7.59,14.86" style="fill:none;stroke:#92E3A9;stroke-miterlimit:10"></path><path d="M72.5,345.33a8.21,8.21,0,0,0,3.13,4.46A3.71,3.71,0,0,0,80,350a6.78,6.78,0,0,0,1.16-1.11,9.72,9.72,0,0,1-1.37-3.48,5.69,5.69,0,0,0-1.55-3.2c-1-.87-3.22-2.43-4.54-2.05a2.06,2.06,0,0,0-1.43,1.86A7.62,7.62,0,0,0,72.5,345.33Z" style="fill:#92E3A9"></path><path d="M80.68,352.68c2.24,1.47,4.55,2.09,7.48.43,1.25-.7,2.24-2,1.62-3.15a3.35,3.35,0,0,0-2.4-1.44,5.91,5.91,0,0,0-2.88.39,7.34,7.34,0,0,0-2.64,1.68A6,6,0,0,0,80.68,352.68Z" style="fill:#92E3A9"></path><path d="M84.08,341.8l-1.6,3.87a34.65,34.65,0,0,0-1.27,3.89,60.73,60.73,0,0,0-1.61,8.12" style="fill:none;stroke:#92E3A9;stroke-miterlimit:10"></path><path d="M69.55,364.3a8.45,8.45,0,0,0,4.23,3.4,3.72,3.72,0,0,0,4.3-1,7.11,7.11,0,0,0,.81-1.39c-2-1.45-2.59-4.52-4.77-5.54-1.21-.55-3.79-1.47-4.94-.65C67.64,360.23,68.5,362.64,69.55,364.3Z" style="fill:#92E3A9"></path><path d="M79.44,369.08a8,8,0,0,0,3.74.34,6.77,6.77,0,0,0,3.58-2c1-1,1.59-2.5.68-3.55a3,3,0,0,0-2.71-.77,6.66,6.66,0,0,0-2.66,1.28A7.77,7.77,0,0,0,80,366.75,6.17,6.17,0,0,0,79.44,369.08Z" style="fill:#92E3A9"></path><path d="M79.6,357.68a52.5,52.5,0,0,0,.28,16.46" style="fill:none;stroke:#92E3A9;stroke-miterlimit:10"></path><path d="M72.86,384.1a8.35,8.35,0,0,0,2.6,1.34,7.38,7.38,0,0,0,2.75.31,3.69,3.69,0,0,0,3.48-2.7,8.53,8.53,0,0,0,.19-1.59,9.09,9.09,0,0,1-3.24-1.86,6.76,6.76,0,0,0-3.24-1.66c-1.32-.12-4.08-.18-4.87,1C69.44,380.62,71.2,382.84,72.86,384.1Z" style="fill:#92E3A9"></path><path d="M83.93,384.58a8.06,8.06,0,0,0,3.47-1.38A7.86,7.86,0,0,0,89.83,380c.57-1.22.6-2.56-.57-3.07a3.32,3.32,0,0,0-2.78.37,6.14,6.14,0,0,0-2,2.08,6.7,6.7,0,0,0-1,2.89A5.13,5.13,0,0,0,83.93,384.58Z" style="fill:#92E3A9"></path><path d="M79.88,374.14a35.65,35.65,0,0,0,2.42,7.8,28.17,28.17,0,0,0,4.36,6.82" style="fill:none;stroke:#92E3A9;stroke-miterlimit:10"></path><path d="M84.64,400.32a9.6,9.6,0,0,0,5.19-.7A3.73,3.73,0,0,0,92.32,396a6.18,6.18,0,0,0-.38-1.58c-2.41.29-5-1.24-7.16-.09a18.8,18.8,0,0,0-2.2,1.42,3.12,3.12,0,0,0-1.38,2.05C80.89,399.47,82.85,400,84.64,400.32Z" style="fill:#92E3A9"></path><path d="M94.94,396.83c2.41-1.13,4.25-2.69,4.28-6.17,0-1.47-.84-3.22-2.42-3.46a2.55,2.55,0,0,0-2.5,1.36,7.23,7.23,0,0,0-.8,2.91,9.42,9.42,0,0,0,.25,3.23A6.64,6.64,0,0,0,94.94,396.83Z" style="fill:#92E3A9"></path><path d="M86.66,388.76c.42.52.93,1,1.39,1.47l1.51,1.49,3,3c1,1,2,2,3,2.94.5.47,1,.94,1.53,1.39s1,.91,1.58,1.4" style="fill:none;stroke:#92E3A9;stroke-miterlimit:10"></path><path d="M95.83,411.46a12,12,0,0,0,2.36.09,11.58,11.58,0,0,0,2.55-.4c1.6-.43,3-1.34,3.19-3a5.61,5.61,0,0,0-.12-1.63c-2.45-.1-4.86-1.73-7-.58-1.17.59-3.33,2.18-3.67,3.36a1.24,1.24,0,0,0,0,.94,1.2,1.2,0,0,0,.58.62A6.63,6.63,0,0,0,95.83,411.46Z" style="fill:#92E3A9"></path><path d="M106.32,409.61a8,8,0,0,0,3.57-1.18,5.08,5.08,0,0,0,2-3.94c.18-1.72-.76-4.11-2.47-4.7a2.26,2.26,0,0,0-2.7,1,7.94,7.94,0,0,0-1,3,14.11,14.11,0,0,0-.13,3.4A10.1,10.1,0,0,0,106.32,409.61Z" style="fill:#92E3A9"></path><path d="M98.6,400.46a38.63,38.63,0,0,1,9.89,14.05" style="fill:none;stroke:#92E3A9;stroke-miterlimit:10"></path><path d="M101.28,423.29a12.76,12.76,0,0,0,4.57,1.81c1.67.28,3.29.07,4.16-1.36a4.86,4.86,0,0,0,.59-1.52c-2.17-1.14-3.68-3.63-6.11-3.53-1.31,0-3.94.52-4.76,1.46C98.65,421.36,100,422.4,101.28,423.29Z" style="fill:#92E3A9"></path><path d="M111.55,426.08c2.55.74,5,1.24,7.21-2.29a5.77,5.77,0,0,0,.71-2.74,3.82,3.82,0,0,0-1-2.57,2.32,2.32,0,0,0-2.89-.23,8.26,8.26,0,0,0-2.15,2.27,14.74,14.74,0,0,0-1.56,3,5.1,5.1,0,0,0-.25,1.27C111.61,425.23,111.58,425.66,111.55,426.08Z" style="fill:#92E3A9"></path><path d="M108.49,414.51a38.68,38.68,0,0,1,2.93,16.94" style="fill:none;stroke:#92E3A9;stroke-miterlimit:10"></path></g><g id="Studio"><polygon points="199.21 337.39 199.31 323.9 204.23 323.9 208.37 337.39 199.21 337.39" style="fill:none;stroke:#263238;stroke-linecap:round;stroke-linejoin:round"></polygon><polygon points="187.61 337.39 189.5 323.9 194.99 323.9 194.94 337.39 187.61 337.39" style="fill:none;stroke:#263238;stroke-linecap:round;stroke-linejoin:round"></polygon><polygon points="198.52 430.48 194.6 430.48 194.92 343.77 199.16 343.77 198.52 430.48" style="fill:none;stroke:#263238;stroke-linecap:round;stroke-linejoin:round"></polygon><polygon points="194.94 337.39 194.99 323.9 199.31 323.9 199.21 337.39 194.94 337.39" style="fill:none;stroke:#263238;stroke-linecap:round;stroke-linejoin:round"></polygon><polygon points="216.51 343.77 216.48 343.77 214.62 337.4 216.51 343.77" style="fill:none;stroke:#263238;stroke-linecap:round;stroke-linejoin:round"></polygon><polygon points="194.94 337.39 199.21 337.39 208.37 337.39 210.32 343.77 199.16 343.77 194.92 343.77 186.72 343.77 187.61 337.39 194.94 337.39" style="fill:none;stroke:#263238;stroke-linecap:round;stroke-linejoin:round"></polygon><polygon points="180.98 343.77 181.2 341.87 180.98 343.77 180.98 343.77" style="fill:none;stroke:#263238;stroke-linecap:round;stroke-linejoin:round"></polygon><polygon points="204.23 323.9 210.68 323.9 214.62 337.4 216.48 343.77 242.46 432.75 237.63 432.75 210.32 343.77 208.37 337.39 204.23 323.9" style="fill:none;stroke:#263238;stroke-linecap:round;stroke-linejoin:round"></polygon><polygon points="187.61 337.39 186.72 343.77 174.28 432.75 170.57 432.75 180.98 343.77 181.2 341.87 183.3 323.9 189.5 323.9 187.61 337.39" style="fill:none;stroke:#263238;stroke-linecap:round;stroke-linejoin:round"></polygon><polygon points="235.15 323.9 234.02 323.9 235.04 322.61 235.15 323.9" style="fill:none;stroke:#263238;stroke-linecap:round;stroke-linejoin:round"></polygon><path d="M238.36,318.38l-6.46-73.83H158.07l6.46,73.83ZM166,251.81h59.31l5.19,59.31H171.15Z" style="fill:none;stroke:#263238;stroke-linecap:round;stroke-linejoin:round"></path><polygon points="230.46 311.12 171.15 311.12 165.96 251.81 225.27 251.81 230.46 311.12" style="fill:none;stroke:#263238;stroke-linecap:round;stroke-linejoin:round"></polygon><polygon points="158.07 244.55 164.53 318.38 238.36 318.38 235.04 322.61 234.02 323.9 210.68 323.9 204.23 323.9 199.31 323.9 194.99 323.9 189.5 323.9 183.3 323.9 161.32 323.9 160.19 323.9 153.73 250.06 158.07 244.55" style="fill:none;stroke:#263238;stroke-linecap:round;stroke-linejoin:round"></polygon><path d="M440.93,161.07h-.05a7.12,7.12,0,0,1-4.05,5.71l-1.41.66V403.39h5.51Z" style="fill:none;stroke:#263238;stroke-linecap:round;stroke-linejoin:round"></path><path d="M440.88,161.08l-5.46,1v5.41l1.41-.66A7.12,7.12,0,0,0,440.88,161.08Z" style="fill:none;stroke:#263238;stroke-linecap:round;stroke-linejoin:round"></path><path d="M440.93,161.07l5.57-1c4.49-.79,6.86-8.72,5.28-17.72s-6.5-15.65-11-14.86l-16.9,3,1.47,11-3.89-5.26-.41,1.39-3.13-4.22.42-1.39-.37-.5-5.29.93c4.5-.79,9.43,5.87,11,14.86s-.79,16.93-5.29,17.72l5.29-.92.17-.6-.86-1.16,1.5-5,.86,1.16,1.87-6.27,2.37,10.86,5.82-1,5.46-1Z" style="fill:none;stroke:#263238;stroke-linecap:round;stroke-linejoin:round"></path><path d="M423.69,147.3c-1.58-9-6.51-15.65-11-14.86s-6.86,8.73-5.29,17.72,6.51,15.65,11,14.86S425.26,156.3,423.69,147.3Z" style="fill:none;stroke:#263238;stroke-linecap:round;stroke-linejoin:round"></path><path d="M417.28,158.64c-2.74.48-5.73-3.57-6.69-9s.48-10.29,3.21-10.77,5.73,3.56,6.69,9S420,158.16,417.28,158.64Z" style="fill:none;stroke:#263238;stroke-linecap:round;stroke-linejoin:round"></path><path d="M413.8,138.83c-2.73.48-4.17,5.3-3.21,10.77s4,9.52,6.69,9,4.17-5.3,3.21-10.78S416.54,138.35,413.8,138.83Z" style="fill:none;stroke:#263238;stroke-linecap:round;stroke-linejoin:round"></path><polygon points="425.36 158.47 424.5 157.31 423 162.34 423.86 163.5 423.69 164.1 421.99 169.77 427.53 185.34 431.53 171.93 429.6 163.06 427.24 152.2 425.36 158.47" style="fill:none;stroke:#263238;stroke-linecap:round;stroke-linejoin:round"></polygon><polygon points="405.72 138.99 406.58 140.16 408.08 135.13 407.22 133.97 409.09 127.69 389.12 114.66 385.12 128.07 403.85 145.27 405.72 138.99" style="fill:none;stroke:#263238;stroke-linecap:round;stroke-linejoin:round"></polygon><polygon points="412.74 165.45 413.16 164.07 410.03 159.85 409.62 161.24 405.73 155.98 393.98 178.53 402.3 189.77 416.64 170.71 412.74 165.45" style="fill:none;stroke:#263238;stroke-linecap:round;stroke-linejoin:round"></polygon><polygon points="417.92 133.4 421.05 137.62 421.46 136.23 425.36 141.49 423.88 130.48 422.68 121.47 414.35 110.23 414.44 126.75 417.97 131.51 418.34 132.01 417.92 133.4" style="fill:none;stroke:#263238;stroke-linecap:round;stroke-linejoin:round"></polygon><polygon points="443.34 403.38 438.28 406.76 438.18 406.92 454.76 431.38 461.84 431.17 443.34 403.38" style="fill:none;stroke:#263238;stroke-linecap:round;stroke-linejoin:round"></polygon><polygon points="433.01 403.38 414.51 431.17 421.59 431.38 438.18 406.92 438.28 406.76 433.01 403.38" style="fill:none;stroke:#263238;stroke-linecap:round;stroke-linejoin:round"></polygon><polygon points="443.34 403.38 440.93 403.38 435.42 403.38 433.01 403.38 438.28 406.76 443.34 403.38" style="fill:none;stroke:#263238;stroke-linecap:round;stroke-linejoin:round"></polygon><path d="M279.68,53.05a4,4,0,0,0-1.22-.68,1.07,1.07,0,0,0,.31.29A5.31,5.31,0,0,0,279.68,53.05Z" style="fill:none;stroke:#263238;stroke-linecap:round;stroke-linejoin:round"></path><path d="M346.3,157.92c1.24-1.23,1.93-5,0-7-.41-.41-1.14-.46-1.38-1-2.05-4.13,1.59-12,1.59-20.53s-3.63-16.4-1.59-20.53c.82-1.66,2.83-2.48,2.83-4.45s-2-2.79-2.83-4.45c-2-4.14,1.59-12,1.59-20.53s-3.64-16.4-1.59-20.54c.24-.49,1-.54,1.38-1,1.42-1.42,1.42-3.87.82-5.55A3.67,3.67,0,0,0,346.3,51c-1.23-1.24-5.05-1.93-7,0-.49.48-.53,1.33-1.09,1.64-5.29,2.9-17-1.86-29.73-1.86-12,0-23.17,4.25-28.82,2.25a5.31,5.31,0,0,1-.91-.39,1.07,1.07,0,0,1-.31-.29c-.29-.39-.4-1-.78-1.35-1.93-1.93-5.75-1.24-7,0s-1.93,5,0,7c.41.41,1.14.46,1.38,1,2,4.14-1.59,12-1.59,20.54s3.63,16.39,1.59,20.53c-.82,1.66-2.83,2.48-2.83,4.45s2,2.79,2.83,4.45c2,4.13-1.59,12-1.59,20.53s3.63,16.4,1.59,20.53c-.24.5-1,.55-1.38,1-1.93,1.93-1.24,5.75,0,7a3.74,3.74,0,0,0,1.43.82c1.68.6,4.13.6,5.55-.82a4.76,4.76,0,0,0,1.09-1.64c5.93,1.11,17,1.85,29.73,1.85s23.8-.74,29.73-1.85a4.76,4.76,0,0,0,1.09,1.64,3.39,3.39,0,0,0,.9.65,2.64,2.64,0,0,0,.38.18A6,6,0,0,0,346.3,157.92Zm-8.05-9.11h-59.5V60.13h59.5Z" style="fill:none;stroke:#263238;stroke-linecap:round;stroke-linejoin:round"></path><path d="M282.85,66.24h51.29v76.45H282.85Z" style="fill:none;stroke:#263238;stroke-linecap:round;stroke-linejoin:round"></path><path d="M292.86,89.65c-.63,8.26,3.38,16.85,8.66,23,1.25,1.46-.86,3.59-2.12,2.12C291.22,105.23,286,90.67,293.21,79c1-1.65,3.61-.14,2.59,1.51a21.22,21.22,0,0,0-1.26,2.4m-.84,2.25a19.36,19.36,0,0,0-.49,2m7.25,44.66,15.05-18,5.53,18ZM310.75,102A10.29,10.29,0,1,1,321,91.73,10.29,10.29,0,0,1,310.75,102Zm12.76-20.58L318,76.73l5.5-5.62,5,5.17Z" style="fill:none;stroke:#263238;stroke-linecap:round;stroke-linejoin:round"></path></g><g id="Painting"><rect x="357.96" y="180.39" width="7.92" height="251.42" style="fill:#c9cccd;stroke:#263238;stroke-linecap:round;stroke-linejoin:round"></rect><polygon points="338.97 431.81 333.28 431.81 343.21 186.8 348.89 186.8 338.97 431.81" style="fill:#c9cccd;stroke:#263238;stroke-linecap:round;stroke-linejoin:round"></polygon><polygon points="387.11 431.81 392.8 431.81 382.87 186.8 377.18 186.8 387.11 431.81" style="fill:#c9cccd;stroke:#263238;stroke-linecap:round;stroke-linejoin:round"></polygon><polygon points="399.39 296.27 325.13 296.27 332.28 194.03 406.54 194.03 399.39 296.27" style="fill:#fff;stroke:#263238;stroke-linecap:round;stroke-linejoin:round"></polygon><polygon points="331.57 204.16 342.42 194.03 332.28 194.03 331.57 204.16" style="fill:#c9cccd;stroke:#263238;stroke-linecap:round;stroke-linejoin:round"></polygon><polygon points="325.13 296.27 335.27 296.27 325.84 286.13 325.13 296.27" style="fill:#c9cccd;stroke:#263238;stroke-linecap:round;stroke-linejoin:round"></polygon><rect x="315.27" y="295.07" width="94.91" height="13.48" style="fill:#c9cccd;stroke:#263238;stroke-linecap:round;stroke-linejoin:round"></rect><rect x="333.41" y="340.59" width="59.05" height="6.43" style="fill:#c9cccd;stroke:#263238;stroke-linecap:round;stroke-linejoin:round"></rect><polygon points="403.28 194.03 396.07 295.07 321.13 295.07 328.35 194.03 403.28 194.03" style="fill:#263238"></polygon><g style="opacity:0.6000000000000001"><path d="M360.31,215.5a32.7,32.7,0,0,0-19.14,7.12c-1.8,1.42-3.59,3.23-3.94,5.51-.46,3,1.63,5.39,2.81,8,2.19,4.85,1,11.36-2.76,15.48-2.34,2.56-5.76,4.65-6.21,8.07-.33,2.48,1.13,4.68,2.77,6.33,4.63,4.66,11.08,6.92,17.58,7.86,5.56.81,11.55.86,16.84-1.74,13.64-6.68,24.15-27.08,21.33-39.57C385.44,214.22,360.31,215.5,360.31,215.5Z" style="fill:#fff"></path></g><polygon points="374.42 262.21 344.87 262.21 347.27 227.78 376.83 227.78 374.42 262.21" style="fill:#263238;stroke:#263238;stroke-linecap:round;stroke-linejoin:round"></polygon><path d="M345.78,271.06h-.49l.14-2a.29.29,0,0,0-.3-.32h-1.46a.76.76,0,0,1-.76-.82l.11-1.46a.29.29,0,0,0-.3-.32h-1.46a.75.75,0,0,1-.76-.81l.1-1.47a.3.3,0,0,0-.3-.32h-1.46a.75.75,0,0,1-.76-.81l.11-1.46a.29.29,0,0,0-.3-.32h-2l0-.5h2a.76.76,0,0,1,.76.82l-.1,1.46a.29.29,0,0,0,.3.32h1.46a.75.75,0,0,1,.76.81L341,265.3a.3.3,0,0,0,.3.32h1.46a.75.75,0,0,1,.76.81l-.1,1.46a.29.29,0,0,0,.3.32h1.46a.76.76,0,0,1,.76.82Z" style="fill:#263238"></path><path d="M358.59,226.63h.5l.14-2a.35.35,0,0,1,.34-.32H361a.89.89,0,0,0,.87-.82L362,222a.35.35,0,0,1,.34-.32h1.46a.91.91,0,0,0,.88-.81l.1-1.47a.35.35,0,0,1,.34-.32h1.46a.88.88,0,0,0,.87-.81l.11-1.46a.34.34,0,0,1,.34-.32h2l0-.5h-2a.89.89,0,0,0-.87.82l-.1,1.46a.36.36,0,0,1-.34.32h-1.47a.89.89,0,0,0-.87.81l-.1,1.47a.34.34,0,0,1-.34.31h-1.46a.89.89,0,0,0-.87.82l-.11,1.46a.34.34,0,0,1-.34.32h-1.46a.89.89,0,0,0-.87.82Z" style="fill:#263238"></path><polygon points="386.92 250.55 381.8 245.05 387.69 239.55 392.81 245.05 386.92 250.55" style="fill:#92E3A9"></polygon><polygon points="341.31 239.38 335.66 243.44 340.57 250.61 341.31 239.38" style="fill:#92E3A9"></polygon><polygon points="347.81 259.47 362.32 228.32 374.12 263.02 347.81 259.47" style="fill:#fff;stroke:#263238;stroke-linecap:round;stroke-linejoin:round"></polygon><path d="M383,271.41a4.2,4.2,0,0,0-4,.38,3.63,3.63,0,0,0-1.29,1.42,9.88,9.88,0,0,1-.41.94c-.83,1.4-2.86.92-3.91,2.09a.94.94,0,0,0-.21,1.09.79.79,0,0,0,.9.43c.77-.17,1.13-1,1.7-1.53a1.49,1.49,0,0,1,1.78-.36c.9.67-3.18,3-4.87,5.6-.19.3-1.56,1.41-1.39,1.74.53,1.06,2-.59,2.79-1.88a6.14,6.14,0,0,1,2-2.22c.45-.26.82.5.4.81-.23.17-.49.32-.72.47-.62.41-1.22,1.33-.77,2a9.32,9.32,0,0,0,2.24-2.49,4.42,4.42,0,0,1,1.48-1.29c.49-.23,1,.44.66.95a11.61,11.61,0,0,1-1.57,2.13.76.76,0,0,0,1.22.16,4.32,4.32,0,0,0,.75-1.35c.22-.47.57-.94,1-1a1.69,1.69,0,0,1,.75.21C386.24,281.54,387.49,273.36,383,271.41Z" style="fill:#92E3A9"></path><path d="M383,271.41a4.2,4.2,0,0,0-4,.38,3.63,3.63,0,0,0-1.29,1.42,9.88,9.88,0,0,1-.41.94c-.83,1.4-2.86.92-3.91,2.09a.94.94,0,0,0-.21,1.09.79.79,0,0,0,.9.43c.77-.17,1.13-1,1.7-1.53a1.49,1.49,0,0,1,1.78-.36c.9.67-3.18,3-4.87,5.6-.19.3-1.56,1.41-1.39,1.74.53,1.06,2-.59,2.79-1.88a6.14,6.14,0,0,1,2-2.22c.45-.26.82.5.4.81-.23.17-.49.32-.72.47-.62.41-1.22,1.33-.77,2a9.32,9.32,0,0,0,2.24-2.49,4.42,4.42,0,0,1,1.48-1.29c.49-.23,1,.44.66.95a11.61,11.61,0,0,1-1.57,2.13.76.76,0,0,0,1.22.16,4.32,4.32,0,0,0,.75-1.35c.22-.47.57-.94,1-1a1.69,1.69,0,0,1,.75.21C386.24,281.54,387.49,273.36,383,271.41Z" style="fill:#92E3A9;opacity:0.7000000000000001"></path><path d="M371.07,279.48a.66.66,0,0,0-1,.27,1,1,0,0,0,.42,1.16.75.75,0,0,0,.94-.36,1.3,1.3,0,0,0,0-1.2c-.08-.14-.34-.19-.3,0Z" style="fill:#92E3A9"></path><path d="M371.07,279.48a.66.66,0,0,0-1,.27,1,1,0,0,0,.42,1.16.75.75,0,0,0,.94-.36,1.3,1.3,0,0,0,0-1.2c-.08-.14-.34-.19-.3,0Z" style="fill:#92E3A9"></path><path d="M371.07,279.48a.66.66,0,0,0-1,.27,1,1,0,0,0,.42,1.16.75.75,0,0,0,.94-.36,1.3,1.3,0,0,0,0-1.2c-.08-.14-.34-.19-.3,0Z" style="fill:#92E3A9"></path><path d="M371.07,279.48a.66.66,0,0,0-1,.27,1,1,0,0,0,.42,1.16.75.75,0,0,0,.94-.36,1.3,1.3,0,0,0,0-1.2c-.08-.14-.34-.19-.3,0Z" style="fill:#92E3A9;opacity:0.7000000000000001"></path><path d="M345.68,215.62c1.4-.5,2.9-1.53,2.86-3.23a3.83,3.83,0,0,1,0-1.31c.21-.58.94-.85.93-1.5l-.43-.26a13.55,13.55,0,0,0,3.74-1.54l-3.23.82,2.2-1.41a11.4,11.4,0,0,1-3.7,1.11,3.68,3.68,0,0,1,1.37-1.29c-.44-.56-1.24-.1-1.83-.41a3.55,3.55,0,0,1-.71-.69,1.68,1.68,0,0,0-1.77-.41,1.77,1.77,0,0,0-1,1.57c-1.24-.56-2.56.27-3.29,1.41a4.77,4.77,0,0,1-.8,1.11c-.84.71-1.37,1-.58.91-.53.37-.1,1.05.64,1-1,.34-.9,1.13,0,.85a3.67,3.67,0,0,0,.77.8C339.65,216,344.56,216,345.68,215.62Z" style="fill:#92E3A9"></path><path d="M351.1,213.62a.62.62,0,0,0,.85,0,1.92,1.92,0,0,0,.52-.8,1,1,0,0,0,.12-.42c0-.42-.4-.74-.77-.87a1.56,1.56,0,0,0-1.22,0,1.08,1.08,0,0,0-.53,1.12c.08.46.57.85.95.69Z" style="fill:#92E3A9"></path><g style="opacity:0.4"><path d="M345.68,215.62c1.4-.5,2.9-1.53,2.86-3.23a3.83,3.83,0,0,1,0-1.31c.21-.58.94-.85.93-1.5l-.43-.26a13.55,13.55,0,0,0,3.74-1.54l-3.23.82,2.2-1.41a11.4,11.4,0,0,1-3.7,1.11,3.68,3.68,0,0,1,1.37-1.29c-.44-.56-1.24-.1-1.83-.41a3.55,3.55,0,0,1-.71-.69,1.68,1.68,0,0,0-1.77-.41,1.77,1.77,0,0,0-1,1.57c-1.24-.56-2.56.27-3.29,1.41a4.77,4.77,0,0,1-.8,1.11c-.84.71-1.37,1-.58.91-.53.37-.1,1.05.64,1-1,.34-.9,1.13,0,.85a3.67,3.67,0,0,0,.77.8C339.65,216,344.56,216,345.68,215.62Z" style="fill:#92E3A9"></path><path d="M351.1,213.62a.62.62,0,0,0,.85,0,1.92,1.92,0,0,0,.52-.8,1,1,0,0,0,.12-.42c0-.42-.4-.74-.77-.87a1.56,1.56,0,0,0-1.22,0,1.08,1.08,0,0,0-.53,1.12c.08.46.57.85.95.69Z" style="fill:#92E3A9"></path></g><path d="M369.56,332.7a7.76,7.76,0,0,0-3.12,1.56c-1,1-1.68,3.75-3.41,4.69s-5.88,3.8-10.56.54,6.15-1.34,6.15-1.34,6.62-6.85,8.37-6.69A3.75,3.75,0,0,1,369.56,332.7Z" style="fill:#263238"></path><path d="M373.59,323.26a3.12,3.12,0,0,0-2,1c-2.73,3.37,1.39,4.56,1.6,4.46s-3.17,1.23-3.27-1.91S372.26,323,373.59,323.26Z" style="fill:#263238"></path><path d="M364.23,335.94a6.27,6.27,0,0,1,4.06-3.18c1.7-.4,4,.56,4.22,2.29.45,3,3.35,5.2,6.35,5.49a11.51,11.51,0,0,0,8.28-3,28.08,28.08,0,0,0,5.7-7.07c3.5-5.75,4.92-13,2.87-19.38s-8.2-12-14.94-11.79c-11.82.32-31.8,15.25-30.34,36.45C350.88,342.39,361.37,341.62,364.23,335.94Zm6.7-7.33a3.08,3.08,0,1,1,3.74-1.18A2.81,2.81,0,0,1,370.93,328.61Z" style="fill:#92E3A9"></path><g style="clip-path:url(#clip-path)"><path d="M364.23,335.94a6.27,6.27,0,0,1,4.06-3.18c1.7-.4,4,.56,4.22,2.29.45,3,3.35,5.2,6.35,5.49a11.51,11.51,0,0,0,8.28-3,28.08,28.08,0,0,0,5.7-7.07c3.5-5.75,4.92-13,2.87-19.38s-8.2-12-14.94-11.79c-11.82.32-31.8,15.25-30.34,36.45C350.88,342.39,361.37,341.62,364.23,335.94Zm6.7-7.33a3.08,3.08,0,1,1,3.74-1.18A2.81,2.81,0,0,1,370.93,328.61Z" style="fill:#92E3A9;opacity:0.2"></path></g><path d="M364.23,335.94a6.27,6.27,0,0,1,4.06-3.18c1.7-.4,4,.56,4.22,2.29.45,3,3.35,5.2,6.35,5.49a11.51,11.51,0,0,0,8.28-3,28.08,28.08,0,0,0,5.7-7.07c3.5-5.75,4.92-13,2.87-19.38s-8.2-12-14.94-11.79c-11.82.32-31.8,15.25-30.34,36.45C350.88,342.39,361.37,341.62,364.23,335.94Zm6.7-7.33a3.08,3.08,0,1,1,3.74-1.18A2.81,2.81,0,0,1,370.93,328.61Z" style="fill:none;stroke:#263238;stroke-miterlimit:10"></path><path d="M388.59,319.6a3.72,3.72,0,0,1,3.67,1.64c.66,1.32,0,2.91-.83,4.13a15.5,15.5,0,0,1-4.39,4.3c-3.93,2.56-6.9-.41-5.67-4.68C382.21,322.08,385.62,319.79,388.59,319.6Z" style="fill:#263238"></path><path d="M388.39,309.64s-5.28-2.84-8.52,2.54,1.84,6.63,1.84,6.63Z" style="opacity:0.2"></path><path d="M389.2,310.58c.58,1.25-.05,2.73-.82,3.87a12.82,12.82,0,0,1-3.75,3.66c-3.28,2.08-5.72-.33-4.88-3.88.59-2.51,3.31-4.67,5.84-5.1C386.93,308.9,388.6,309.28,389.2,310.58Z" style="fill:#263238"></path><path d="M389.2,310.58c.58,1.25-.05,2.73-.82,3.87a12.82,12.82,0,0,1-3.75,3.66c-3.28,2.08-5.72-.33-4.88-3.88.59-2.51,3.31-4.67,5.84-5.1C386.93,308.9,388.6,309.28,389.2,310.58Z" style="fill:#fff;opacity:0.2"></path><path d="M379.45,305.65l-.9-.46s-5-.2-6.38,4.3,2.53,4.3,2.53,4.3Z" style="opacity:0.2"></path><path d="M380.65,306.58c.51,1.18-.07,2.54-.79,3.61a10.21,10.21,0,0,1-3.12,3c-2.62,1.6-4.54-.27-4.1-3.08a6.69,6.69,0,0,1,4.47-4.81C378.38,304.93,380.09,305.26,380.65,306.58Z" style="fill:#263238"></path><path d="M380.65,306.58c.51,1.18-.07,2.54-.79,3.61a10.21,10.21,0,0,1-3.12,3c-2.62,1.6-4.54-.27-4.1-3.08a6.69,6.69,0,0,1,4.47-4.81C378.38,304.93,380.09,305.26,380.65,306.58Z" style="fill:#fff;opacity:0.4"></path><path d="M364.49,308.82a5.1,5.1,0,0,0-1.44,4,2.44,2.44,0,0,0,.53,1.4,1.22,1.22,0,0,0,1.38.32,1.34,1.34,0,0,0,.61-.93,7.32,7.32,0,0,0,.06-1.15,5.89,5.89,0,0,1,.61-2.42c.3-.63,1.3-1.37,1.43-2C368,306.44,365,308.32,364.49,308.82Z" style="opacity:0.1"></path><path d="M370.29,308.66a3.83,3.83,0,0,1-.78,3.35,7.52,7.52,0,0,1-2.48,2.38c-2,1.12-3.4-.22-3.32-2.28a5.8,5.8,0,0,1,3.09-4.52A2.57,2.57,0,0,1,370.29,308.66Z" style="fill:#263238"></path><path d="M370.29,308.66a3.83,3.83,0,0,1-.78,3.35,7.52,7.52,0,0,1-2.48,2.38c-2,1.12-3.4-.22-3.32-2.28a5.8,5.8,0,0,1,3.09-4.52A2.57,2.57,0,0,1,370.29,308.66Z" style="fill:#fff;opacity:0.6000000000000001"></path><path d="M360.16,314.89a3.87,3.87,0,0,0-2,6.21c-.87-.37-1.32-.25-1.54-1.16C356.07,317.74,357.92,314.55,360.16,314.89Z" style="opacity:0.1"></path><path d="M362.16,316.17a3.6,3.6,0,0,1-.76,3.08,4.83,4.83,0,0,1-1.84,1.75c-1.31.65-2.33-.2-2.53-1.48a4.81,4.81,0,0,1,1.71-4.23A2.26,2.26,0,0,1,362.16,316.17Z" style="fill:#263238"></path><path d="M362.16,316.17a3.6,3.6,0,0,1-.76,3.08,4.83,4.83,0,0,1-1.84,1.75c-1.31.65-2.33-.2-2.53-1.48a4.81,4.81,0,0,1,1.71-4.23A2.26,2.26,0,0,1,362.16,316.17Z" style="fill:#fff;opacity:0.8"></path><path d="M357.09,323.29c-.12.1-3-.21-3.13,2.82a2.23,2.23,0,0,0,2.73,2.5Z" style="opacity:0.1"></path><path d="M358.63,324.68a3.48,3.48,0,0,1-.74,2.82,2.43,2.43,0,0,1-1.2,1.11,1.63,1.63,0,0,1-1.76-.67,3.75,3.75,0,0,1,.34-3.95A2,2,0,0,1,358.63,324.68Z" style="fill:#fff"></path><path d="M382.24,329.86c-1.06-1-1.48-2.76-.87-4.87.84-2.91,4.25-5.2,7.22-5.39a4.64,4.64,0,0,1,2.55.51,4.3,4.3,0,0,0-3.11-.91c-3,.19-6.38,2.48-7.22,5.39C380.1,327.05,380.78,329.07,382.24,329.86Z" style="opacity:0.2"></path><path d="M372.58,332.15a11.37,11.37,0,0,1,1.58,2.33,9.19,9.19,0,0,0,2.14,2.89,3.07,3.07,0,0,0,3.38.44" style="fill:none;stroke:#263238;stroke-linecap:round;stroke-linejoin:round"></path><path d="M369.11,330.74a4.44,4.44,0,0,1,1.36.15" style="fill:none;stroke:#263238;stroke-linecap:round;stroke-linejoin:round"></path></g><g id="Statue"><path d="M126.67,200.78l-1,.71A2.09,2.09,0,0,1,126.67,200.78Z" style="fill:#92E3A9"></path><path d="M121.63,145.46c0-1.84-3.34-5.08-4.27-6.32,1.66-.67,3.66-.08,5.46.13,2.74.32,5.73.78,7.54,2.87L121,141.07A9.1,9.1,0,0,1,121.63,145.46Z" style="fill:#92E3A9"></path><path d="M141.94,179.41c-3.75,3.74-7.68,7.75-9.12,13-.34,1.21-.59,2.57-1.52,3.36-1.48,1.25-3.68.37-5.22-.77s-3.16-2.59-5-2.33c-1.13.15-2.25.92-3.32.55a3.39,3.39,0,0,1-1.63-1.83c-5.09-10.24-3.55-23-9-32.65-3.82-6.78-10.6-11.1-15.73-16.73a36.14,36.14,0,0,1-2.51-3l4.05-5.6a56.45,56.45,0,0,0,5,7.07,53.41,53.41,0,0,0,10.16,9.35,14.61,14.61,0,0,0-2.57-6.95A26.58,26.58,0,0,1,119,161.42a8.61,8.61,0,0,0-2.23-2.63,3,3,0,0,0-3.24-.29,4.28,4.28,0,0,0-1.59,2.9,19.52,19.52,0,0,0,8.53,20.14A18.39,18.39,0,0,0,141.94,179.41Z" style="fill:#92E3A9"></path><path d="M129.85,164.91c2.81.21,4.35,4.29,7.17,4.21,1.1,0,2.06-.72,3.11-1s2.48.05,2.69,1.16a2.46,2.46,0,0,1-.64,1.82A13.76,13.76,0,0,1,127.3,176a13.94,13.94,0,0,1-8.13-7.28c-2.81-5.81,2-.42,4.73-1.16C126,167,127.67,164.76,129.85,164.91Z" style="fill:#92E3A9"></path><path d="M147.29,186l6.87,11.7a12,12,0,0,0-2,.28l-.41.08c-2.68.65-6.19,2.27-10.89,5.84l-.68.54c-8.76,6.84-12.82,8.85-14.45,9.43l0,0a4.57,4.57,0,0,1-.72.19l-.07,0h-.1l-9.36.64-5,.34-7.21,2.48-.88.3a12.86,12.86,0,0,1,4.76-6.62,1.54,1.54,0,0,0,1.59,1.67,4.32,4.32,0,0,0,2.35-1l14.6-10.35a4,4,0,0,0,1.2,5.43c2.18,1.22,4.87.36,7.09-.8C141.37,202.25,147.35,194.52,147.29,186Z" style="fill:#92E3A9"></path><path d="M155,183.86a23.29,23.29,0,0,0-6.24-7.63,1.47,1.47,0,0,1-.69-.92c-.32-3.14,4.82,1.06,5.31,1.74a9.22,9.22,0,0,1,1.52,3.32C155.08,181.22,154.67,183.25,155,183.86Z" style="fill:#92E3A9"></path><path d="M161.52,173.85c-.21.32-.42.62-.66.92-.7.89-1.54,1.81-2.65,1.78a3.85,3.85,0,0,1-2.52-1.9,86.24,86.24,0,0,1-5.47-8.54,2.66,2.66,0,0,1-.47-1.38c0-.48.38-1,.87-.92s.65.44.9.77a7.51,7.51,0,0,0,5.7,3.17,7.12,7.12,0,0,0,4.1-1.1c.81-.47,1.59-1.82,2.47-2.11a1.57,1.57,0,0,1,1.5.05l.49.92a5.52,5.52,0,0,1-.8,3.3c-.69,1.06-1.39,2.12-2.11,3.15" style="fill:#92E3A9"></path><path d="M135.81,355.6s-5,5.41-2.16,24.34l-2.33-.68a29.15,29.15,0,0,0-14.79,16.95c-4.3,12.68-7,13.48-8.22,14.28s-5.58.6-6.92,2.92-1.94,5.15-2.88,6.17c-.35.4-2.7,1-5.43,1.67a48.4,48.4,0,0,1-4.83-3.9S91,400,96,397.34s14-10.6,12.25-13.23-6.77-14-6.59-22.25,8.95-15.18,8.95-15.18l8-20.29s-1.63-5.32-5.49-2.44-9.29-3.87-13.85-8.7,3.82-19,3.82-19l1-9.34-3.61-5.1a21.88,21.88,0,0,1-10.25-3.2c-4.6-2.84-3.68-10.26-3.39-11.94a27.42,27.42,0,0,1-2.76-.37c-5.31-.88-9-11.63-9.9-18.27s9.65-10.1,16.45-8.77a62.33,62.33,0,0,0,10.4,1.29s13.08,13,14.38,22.32c1.28,9.43-.31,12,7.45,18.77,0,0,2,1.11-.09,10.1,0,0,5.31,1.64,6.35,3.55s2.11,4.4.13,13.59c0,0-.41,12.94,4.53,24.62C138.76,345.38,142.64,347.75,135.81,355.6Z" style="fill:#92E3A9"></path><path d="M135.81,355.6s-5,5.41-2.16,24.34l-2.33-.68a29.15,29.15,0,0,0-14.79,16.95c-4.3,12.68-7,13.48-8.22,14.28s-5.58.6-6.92,2.92-1.94,5.15-2.88,6.17c-.35.4-2.7,1-5.43,1.67a48.4,48.4,0,0,1-4.83-3.9S91,400,96,397.34s14-10.6,12.25-13.23-6.77-14-6.59-22.25,8.95-15.18,8.95-15.18l8-20.29s-1.63-5.32-5.49-2.44-9.29-3.87-13.85-8.7,3.82-19,3.82-19l1-9.34-3.61-5.1a21.88,21.88,0,0,1-10.25-3.2c-4.6-2.84-3.68-10.26-3.39-11.94a27.42,27.42,0,0,1-2.76-.37c-5.31-.88-9-11.63-9.9-18.27s9.65-10.1,16.45-8.77a62.33,62.33,0,0,0,10.4,1.29s13.08,13,14.38,22.32c1.28,9.43-.31,12,7.45,18.77,0,0,2,1.11-.09,10.1,0,0,5.31,1.64,6.35,3.55s2.11,4.4.13,13.59c0,0-.41,12.94,4.53,24.62C138.76,345.38,142.64,347.75,135.81,355.6Z" style="opacity:0.2"></path><path d="M193.24,275.83a1.31,1.31,0,0,1-.47.32c-1.6.69-5.32-.59-6,1l0,0c-.78,1.87-.24,5.54-.24,5.54-3.59,4.16-10.24,4.16-11.42,6.48s.6,8-2.28,8.89c-2.23.74-3.83-3.47-4.47-6.34,0,0,0-.13,0-.21-.09-.48-.13-1-.22-1.47,0-.13-.05-.27-.05-.39a.86.86,0,0,0,0-.21,20.66,20.66,0,0,0-5.44-10.72,38.79,38.79,0,0,0-5.37-4.93,77.81,77.81,0,0,0-19.44-10.45h0l-.08,0c-5.18-3.17-9.26-5.75-12.5-7.9-7.2-4.76-10.32-7.4-12.26-9.61a60.75,60.75,0,0,1-3.65-4.88l0,0c-1.78-2.37-5.18-3.55-8.48-4.07l-.34-4.56L96,231c-5.37-8.13.45-9.55,2.94-12h0l3.4-1.17.88-.3,7.21-2.48,5-.34,9.36-.64h.1l.07,0a4.57,4.57,0,0,0,.72-.19l0,0c1.63-.58,5.69-2.59,14.45-9.43l.68-.54c4.7-3.57,8.21-5.19,10.89-5.84l.41-.08a12,12,0,0,1,2-.28c2.58-.13,4.22.64,5.52.75.25,1.84.38,3.46.6,3,.37-.84,5.13,2.88,6.77,4.57s7.82,13.43,7.89,16,7.29,4.71,7.29,4.71,12.12,14.26,15,26.12C200.22,264.93,194.45,274.48,193.24,275.83Z" style="fill:#92E3A9"></path><path d="M193.24,275.83a1.31,1.31,0,0,1-.47.32c-1.6.69-5.32-.59-6,1l0,0c-.78,1.87-.24,5.54-.24,5.54-3.59,4.16-10.24,4.16-11.42,6.48s.6,8-2.28,8.89c-2.23.74-3.83-3.47-4.47-6.34,0,0,0-.13,0-.21-.09-.48-.13-1-.22-1.47,0-.13-.05-.27-.05-.39a.86.86,0,0,0,0-.21,20.66,20.66,0,0,0-5.44-10.72,38.79,38.79,0,0,0-5.37-4.93,77.81,77.81,0,0,0-19.44-10.45h0l-.08,0c-5.18-3.17-9.26-5.75-12.5-7.9-7.2-4.76-10.32-7.4-12.26-9.61a60.75,60.75,0,0,1-3.65-4.88l0,0c-1.78-2.37-5.18-3.55-8.48-4.07l-.34-4.56L96,231c-5.37-8.13.45-9.55,2.94-12h0l3.4-1.17.88-.3,7.21-2.48,5-.34,9.36-.64h.1l.07,0a4.57,4.57,0,0,0,.72-.19l0,0c1.63-.58,5.69-2.59,14.45-9.43l.68-.54c4.7-3.57,8.21-5.19,10.89-5.84l.41-.08a12,12,0,0,1,2-.28c2.58-.13,4.22.64,5.52.75.25,1.84.38,3.46.6,3,.37-.84,5.13,2.88,6.77,4.57s7.82,13.43,7.89,16,7.29,4.71,7.29,4.71,12.12,14.26,15,26.12C200.22,264.93,194.45,274.48,193.24,275.83Z" style="opacity:0.2"></path><path d="M177.56,422.27l.23,9.37H96.72s.47-11.05-.45-9.37c-.39.66-1.71,0-3.19-1,2.73-.66,5.08-1.27,5.43-1.67.94-1,1.58-3.85,2.88-6.17s5.7-2.06,6.92-2.92,3.92-1.6,8.22-14.28a29.15,29.15,0,0,1,14.79-16.95l2.33.68c-2.84-18.93,2.16-24.34,2.16-24.34,6.83-7.85,2.95-10.22-2.1-22.13-4.94-11.68-4.53-24.62-4.53-24.62,2-9.19.9-11.63-.13-13.59s-6.35-3.55-6.35-3.55c2.11-9,.09-10.1.09-10.1-7.76-6.76-6.17-9.34-7.45-18.77C114,253.57,101,240.52,101,240.52l-.25-3.67c3.3.53,6.7,1.7,8.48,4.08,4.09,5.52,3.32,7,28.44,22.41,0,0,28.16,9.69,30.37,26.34,0-1.86-6.71-2.8-8.7,2.33s-8.15,18.92-8.15,18.92a51.16,51.16,0,0,1,.6,16.95c-1.17,9.85-2.45,12.79-2.45,12.79s-.75,11-1.62,12.54,2.8,21.52,2.8,21.52l3.15,5.74c2.45,9.84,12.17,21.23,18.39,27.76A21.22,21.22,0,0,1,177.56,422.27Z" style="fill:#92E3A9"></path><path d="M141.94,179.41c-3.75,3.74-7.68,7.75-9.12,13-.34,1.21-.59,2.57-1.52,3.36-1.48,1.25-3.68.37-5.22-.77s-3.16-2.59-5-2.33c-1.13.15-2.25.92-3.32.55a3.39,3.39,0,0,1-1.63-1.83c-5.09-10.24-3.55-23-9-32.65-3.82-6.78-10.6-11.1-15.73-16.73a36.14,36.14,0,0,1-2.51-3l4.05-5.6a56.45,56.45,0,0,0,5,7.07,53.41,53.41,0,0,0,10.16,9.35,14.61,14.61,0,0,0-2.57-6.95A26.58,26.58,0,0,1,119,161.42a8.61,8.61,0,0,0-2.23-2.63,3,3,0,0,0-3.24-.29,4.28,4.28,0,0,0-1.59,2.9,19.52,19.52,0,0,0,8.53,20.14A18.39,18.39,0,0,0,141.94,179.41Z" style="opacity:0.30000000000000004"></path><path d="M142.18,171.08A13.76,13.76,0,0,1,127.3,176a13.94,13.94,0,0,1-8.13-7.28c-2.81-5.81,2-.42,4.73-1.16,2.12-.58,3.77-2.83,5.95-2.68,2.81.21,4.35,4.29,7.17,4.21,1.1,0,2.06-.72,3.11-1s2.48.05,2.69,1.16A2.46,2.46,0,0,1,142.18,171.08Z" style="opacity:0.2"></path><path d="M165,168.81c-.69,1.06-1.39,2.12-2.11,3.15-.45.63-.86,1.29-1.35,1.89-.21.32-.42.62-.66.92-.7.89-1.54,1.81-2.65,1.78a3.85,3.85,0,0,1-2.52-1.9,86.24,86.24,0,0,1-5.47-8.54,2.66,2.66,0,0,1-.47-1.38c0-.48.38-1,.87-.92s.65.44.9.77a7.51,7.51,0,0,0,5.7,3.17,7.12,7.12,0,0,0,4.1-1.1c.81-.47,1.59-1.82,2.47-2.11a1.57,1.57,0,0,1,1.5.05,1.33,1.33,0,0,1,.49.92A5.52,5.52,0,0,1,165,168.81Z" style="opacity:0.2"></path><path d="M155,183.86a23.29,23.29,0,0,0-6.24-7.63,1.47,1.47,0,0,1-.69-.92c-.32-3.14,4.82,1.06,5.31,1.74a9.22,9.22,0,0,1,1.52,3.32C155.08,181.22,154.67,183.25,155,183.86Z" style="opacity:0.2"></path><path d="M139.5,216.69c2.68-3.22,5.27-7.09,9.21-7.91a63.21,63.21,0,0,0-8,11.45,27.13,27.13,0,0,0,19.89-13.75,4.25,4.25,0,0,1,.41,3.91,10.35,10.35,0,0,1-2.22,3.32,56.87,56.87,0,0,1-22.38,14.69,87.56,87.56,0,0,1-26.31,5,3.76,3.76,0,0,0,2.61,2.72l-2.65.34a5.13,5.13,0,0,1,3.22,1.58c-.07-.07-3.88.22-4.45,0a8,8,0,0,1-4-2.57c-3.41-4.3,3.39-3.58,5.71-3.76a42.36,42.36,0,0,0,28.88-15Z" style="opacity:0.2"></path><path d="M126.67,200.78l-1,.71A2.09,2.09,0,0,1,126.67,200.78Z" style="opacity:0.2"></path><path d="M154.2,197.73a15.16,15.16,0,0,0-2,.21l-.41.08c-4,.8-7.47,3.15-10.89,5.84l-.68.54c-4.57,3.65-9.08,7.78-14.45,9.43l0,0-.72.19-.07,0-.11,0a38,38,0,0,1-9.35.62c-.76,0-1.51,0-2.26,0a15.58,15.58,0,0,0-2.71.32,39.66,39.66,0,0,0-7.21,2.48l-.89.35s0,0,0,0a12.86,12.86,0,0,1,4.76-6.62,1.54,1.54,0,0,0,1.59,1.67,4.32,4.32,0,0,0,2.35-1l14.6-10.35a4,4,0,0,0,1.2,5.43c2.18,1.22,4.87.36,7.09-.8,7.41-3.87,13.39-11.6,13.33-20.16l6.87,11.7Z" style="opacity:0.30000000000000004"></path><path d="M121,141.07a9.1,9.1,0,0,1,.59,4.39c0-1.84-3.34-5.08-4.27-6.32,1.66-.67,3.66-.08,5.46.13,2.74.32,5.73.78,7.54,2.87Z" style="opacity:0.2"></path><path d="M183.59,273.61a5.42,5.42,0,0,0,1,2.62c1,1.08,2.51,1,3.85.84l3.54-.43c.28,0,.6-.1.73-.38s-.27-.88-.65-1.14c-4-2.68-6.54-8.95-10.24-10.85C182.15,267.36,183,270.52,183.59,273.61Z" style="opacity:0.2"></path><path d="M132.54,235.77c3.29,5.37,9.26,8,13.68,12.39a26.37,26.37,0,0,1,5.93,9.26c1.41,3.7,2,7.74,3.47,11.47s4,7.35,7.65,8.27c-4.07-4.46-6.32-10.48-7.56-16.55a22.56,22.56,0,0,0,10.14,4.78,1.09,1.09,0,0,0,1.05-1.56,3.46,3.46,0,0,0-1.88-1.38c-6.11-2.76-9.55-9.69-13.73-15.2a43.42,43.42,0,0,0-14.51-12.34C135.25,234.12,134.22,235.5,132.54,235.77Z" style="opacity:0.2"></path><path d="M161.27,240.19a21.9,21.9,0,0,1,5.51,5.48c2.33,3.54,3.14,8,3.51,12.35s.35,8.84,1.3,13.18,3.08,8.72,6.63,11c-.81-1.59-.66-4.39-.61-6.18.4-.38,1.07-.1,1.4.39a5.31,5.31,0,0,1,.54,1.69,7,7,0,0,0,3,4.2c-1.64-2.87-2.35-6.44-4-9.29a23,23,0,0,1-2-4.2c-2-6.3,1.47-13.8-1.75-19.38a16.59,16.59,0,0,0-3.68-4c-2.05-1.79-4.11-3.57-6.15-5.36C164,239.22,162.41,239.84,161.27,240.19Z" style="opacity:0.2"></path><path d="M108.79,259.33c-3,1.59-6.33,1.93-9.6,2.25-2.32.23-4.78.42-6.79-.77s-3.13-3.41-4.08-5.62c-.33-.76-.91-1.68-1.67-1.43s-.85,1.36-.73,2.19c1,6.93,6.69,12.6,13.14,13-1.52.88-3.9-1.07-3.53-2.9a21.47,21.47,0,0,0,10.74-1.78A4.26,4.26,0,0,0,108.79,259.33Z" style="opacity:0.2"></path><path d="M110,267.76q2,6.5,4.06,13.07a7.58,7.58,0,0,1,.45,4.17c-.44,1.57-1.8,2.56-3,3.58-5.1,4.43-8.08,11.86-7.62,19.11a26.64,26.64,0,0,1,2.63-8.32c1.46-2.45,4-4.34,6.54-4,2.4.34,4.31,2.58,5.21,5.12a26.2,26.2,0,0,1,1.07,8.14c.38-2,3.41-1.81,4.12.09s-.25,4.12-1.53,5.63-2.91,2.66-3.95,4.39c2-3.2,7.32-2.05,8.13,1.79.6,2.81-.88,5.61-2.19,8.13a93.57,93.57,0,0,0-9.12,27.4c.32.45,1.19,1.37,1.66,1.13a169.59,169.59,0,0,1,12.28-23.77c-2.1,3.72-4.53,8.69-5.05,13.13,1.07.77,2-1.11,2.46-2.5a13.88,13.88,0,0,1,4.38-6.8c-.45,1.69,0,3.89-.46,5.59a1.74,1.74,0,0,0-.07.93c.27.84,1.39.42,1.92-.24,1.74-2.19,2.15-5.42,1.79-8.34a53.45,53.45,0,0,0-2.19-8.4,59.25,59.25,0,0,1-2.39-14.67,32.26,32.26,0,0,1,.6-8.22,23,23,0,0,0,.77-3.92,6.9,6.9,0,0,0-3.87-6.61c-1.47-.6-3.48-.9-3.78-2.61-.35-2,.55-4.09.8-6.13a5,5,0,0,0-1.73-4,41.89,41.89,0,0,1-3.23-2.87c-2.31-2.74-2.26-6.92-2.45-10.66a9.81,9.81,0,0,0-.94-4.26,3.06,3.06,0,0,0-3.38-1.72c-1.29.42-2,2.48-1.06,3.5Z" style="opacity:0.2"></path><path d="M135,344.47c-.44,1.29,0,2.77-.25,4.14-.51,3-3.69,4.09-6.19,5.18-7.18,3.14-12.42,11.82-12.56,20.91a1.64,1.64,0,0,0,2.33.18,8.16,8.16,0,0,0,2-2.27,38.17,38.17,0,0,1,8.71-9.1c1.09-.81,2.55-1.53,3.57-.62a23.39,23.39,0,0,0-6,4.43,9.15,9.15,0,0,0-2.33,7.07c1.82-1.44,3-3.72,4.46-5.62s3.52-3.56,5.65-3.09c.19-4.7.33-9.69,3.24-12.86a4,4,0,0,0,1.31-2.06,3.59,3.59,0,0,0-.52-1.93C137.48,347.1,135.81,346.2,135,344.47Z" style="opacity:0.2"></path><path d="M105,360.27c-.69.94,0,2.35.73,3.19s1.65,1.89,1.36,3.08c-.11.44-.38.88-.25,1.3a1.06,1.06,0,0,0,.67.59,9.73,9.73,0,0,0,2.53.71,4.45,4.45,0,0,0,2.28,3.41c-.35-5.48-3.17-10.59-7.24-13.11Z" style="opacity:0.2"></path><path d="M121.33,383.41c-3.07,4.41-5.15,9.79-8.57,13.9a4.55,4.55,0,0,1-1.84,1.51c-2.53.87-5-3.19-7.39-1.88-.57,1.69,1.11,3.12,2.54,3.69s3.22,1.54,3.08,3.36-2.42,2.49-3.94,1.86-3-1.88-4.59-1.51c-3.18.72-3.43,6.55-6.15,8.75-1.57,1.28-4.29,2.11-3.86,4.3A3.23,3.23,0,0,0,92,419.2c1.68,1.31,3.82,2.64,5.59,1.4,2.08-1.45,2-5.32,3.83-7.2,1.53-1.57,3.82-1.18,5.68-2.08a9.54,9.54,0,0,0,3.38-3.39c3.63-5.4,5.81-11.93,9-17.6,1.83-3.21,12-15.66,14.86-9.36,2.12-2.65-1.71-4-3.76-4C127,376.8,123.5,380.3,121.33,383.41Z" style="opacity:0.2"></path><path d="M135.52,380.38c-.33,1.41,1.06,2.47,2.21,3l6.49,3,1.26-7.4c-.16,1.44-.29,3,.43,4.21s2.64,1.21,2.9-.21a3.48,3.48,0,0,1,.82,3.17l-3.5.2a2.4,2.4,0,0,1-1.92,2.9,5.41,5.41,0,0,1-3.37-1.23l-6.12-3.94a2.3,2.3,0,0,1-.88-.82c-.74-1.37.89-2.78,2.19-3.26Z" style="opacity:0.2"></path><path d="M164.76,163.61v0a11.41,11.41,0,0,0-3.4-2.93q-.43-.27-.87-.51a1.63,1.63,0,0,1-.17.2c-.24-.23-.47-.47-.71-.72a11.15,11.15,0,0,1-3.93-3.3,7.62,7.62,0,0,1-1.13-3.05l0,0s0,0,0,0a15.63,15.63,0,0,1,.35-5.4c.16-.73.35-1.48.53-2.22-.17-.33-.33-.66-.49-1-4.49-9.21-15.44-6.48-15.06-7.59s-1.25-3-1.06-7.44a4,4,0,0,0,1.19-2.75l-1.3-.77c-2.65-1.58-7.91-1.68-10.65-.26,0,0,1.09,11.15-3.11,10.44-2.66-.45-10.64,0-10.64,0S103.39,130.7,98,126.4l-5.07,7a56.45,56.45,0,0,0,5,7.07,53.41,53.41,0,0,0,10.16,9.35,14.61,14.61,0,0,0-2.57-6.95A26.58,26.58,0,0,1,119,161.42a8.61,8.61,0,0,0-2.23-2.63,3,3,0,0,0-3.24-.29,4.28,4.28,0,0,0-1.59,2.9,19.52,19.52,0,0,0,8.53,20.14,18.39,18.39,0,0,0,21.43-2.13c-3.75,3.74-7.68,7.75-9.12,13-.34,1.21-.59,2.57-1.52,3.36-1.48,1.25-3.68.37-5.22-.77s-3.16-2.59-5-2.33c-1.13.15-2.25.92-3.32.55a3.39,3.39,0,0,1-1.63-1.83c-5.09-10.24-3.55-23-9-32.65-3.82-6.78-10.6-11.1-15.73-16.73a36.14,36.14,0,0,1-2.51-3l-.31.43c4,6.06,8.76,12.55,12.22,14,6.92,2.92,12.24,39.91,12.24,39.91s-12.58,20.22-13.08,24A2.85,2.85,0,0,1,99,219l3.4-1.17a12.86,12.86,0,0,1,4.76-6.62,1.54,1.54,0,0,0,1.59,1.67,4.32,4.32,0,0,0,2.35-1l14.6-10.35a2.09,2.09,0,0,1,1-.71l-1,.71a4,4,0,0,0,1.2,5.43c2.18,1.22,4.87.36,7.09-.8,7.41-3.87,13.39-11.6,13.33-20.16l6.87,11.7c2.58-.13,4.22.64,5.52.75-8.11-11.87-2.3-3.23-3.23-20.14a8.6,8.6,0,0,0-.72-2.82,3.16,3.16,0,0,0,2.1,1,4.43,4.43,0,0,1-2.14-1.83,86.24,86.24,0,0,1-5.47-8.54,2.66,2.66,0,0,1-.47-1.38c0-.48.38-1,.87-.92s.65.44.9.77a7.51,7.51,0,0,0,5.7,3.17,7.12,7.12,0,0,0,4.1-1.1c.81-.47,1.59-1.82,2.47-2.11a1.57,1.57,0,0,1,1.5.05C165.11,164.27,165,164,164.76,163.61Zm-47.4-24.47c1.66-.67,3.66-.08,5.46.13,2.74.32,5.73.78,7.54,2.87L121,141.07a9.1,9.1,0,0,1,.59,4.39C121.65,143.62,118.29,140.38,117.36,139.14Zm24.82,31.94A13.76,13.76,0,0,1,127.3,176a13.94,13.94,0,0,1-8.13-7.28c-2.81-5.81,2-.42,4.73-1.16,2.12-.58,3.77-2.83,5.95-2.68,2.81.21,4.35,4.29,7.17,4.21,1.1,0,2.06-.72,3.11-1s2.48.05,2.69,1.16A2.46,2.46,0,0,1,142.18,171.08Zm11.18,6a9.22,9.22,0,0,1,1.52,3.32c.2.85-.21,2.88.1,3.49a23.29,23.29,0,0,0-6.24-7.63,1.47,1.47,0,0,1-.69-.92C147.73,172.17,152.87,176.37,153.36,177.05Z" style="fill:#92E3A9"></path><path d="M127.91,125.9h0c2.74-1.42,8-1.32,10.65.25l1.29.77s-2,3.31-5.11,3.48S128.7,127.49,127.91,125.9Z" style="opacity:0.2"></path><path d="M88.4,136.74c-.13,2-.53,2.81,1.25,3.75,2,1,4.46,0,6.18-1.54a10.72,10.72,0,0,0,3.86-7.26c.21-3.68-1.32-6.44-5.22-4.42A11.85,11.85,0,0,0,88.4,136.74Z" style="fill:#92E3A9"></path><path d="M88.4,136.74c-.13,2-.53,2.81,1.25,3.75,2,1,4.46,0,6.18-1.54a10.72,10.72,0,0,0,3.86-7.26c.21-3.68-1.32-6.44-5.22-4.42A11.85,11.85,0,0,0,88.4,136.74Z" style="opacity:0.2"></path><path d="M197.26,252.83c-2.91-11.86-15-26.12-15-26.12s-7.22-2.14-7.29-4.71-6.28-14.33-7.89-16-6.4-5.41-6.77-4.57c-.22.43-.35-1.19-.6-3-8.11-11.87-2.3-3.23-3.23-20.14a8.6,8.6,0,0,0-.72-2.82,3.16,3.16,0,0,0,2.1,1h0a1.77,1.77,0,0,0,.4.08c1.11,0,1.95-.89,2.65-1.78.24-.3.45-.6.66-.92.49-.6.9-1.26,1.35-1.89.72-1,1.42-2.09,2.11-3.15a5.52,5.52,0,0,0,.8-3.3,1.33,1.33,0,0,0-.49-.92c-.18-.32-.34-.64-.53-1v0a11.41,11.41,0,0,0-3.4-2.93q-.43-.27-.87-.51a1.63,1.63,0,0,1-.17.2c-.24-.23-.47-.47-.71-.72a11.15,11.15,0,0,1-3.93-3.3,7.62,7.62,0,0,1-1.13-3.05l0,0s0,0,0,0a15.63,15.63,0,0,1,.35-5.4c.16-.73.35-1.48.53-2.22-.17-.33-.33-.66-.49-1-4.49-9.21-15.44-6.48-15.06-7.59s-1.25-3-1.06-7.44a4,4,0,0,0,1.19-2.75l-1.3-.77c-2.65-1.58-7.91-1.68-10.65-.26v0l-.14.07h0a3.27,3.27,0,0,0,.17.31c.14,2,.55,10.63-3.15,10-2.66-.45-10.64,0-10.64,0S103.39,130.7,98,126.4l-.25.35a4,4,0,0,0-3.25.52,11.85,11.85,0,0,0-6.07,9.47c-.11,1.7-.38,2.52.54,3.28,3.9,5.89,8.48,12,11.82,13.39,6.92,2.92,12.24,39.91,12.24,39.91s-12.58,20.22-13.08,24A2.85,2.85,0,0,1,99,219h0c-2.49,2.44-8.31,3.86-2.94,12l4.38,1.29.34,4.56.25,3.67a62.33,62.33,0,0,1-10.4-1.29c-6.8-1.33-17.41,2.18-16.45,8.77s4.59,17.39,9.9,18.27a27.42,27.42,0,0,0,2.76.37c-.29,1.68-1.21,9.1,3.39,11.94a21.88,21.88,0,0,0,10.25,3.2l3.61,5.1-1,9.34s-8.31,14.23-3.82,19,10,11.63,13.85,8.7,5.49,2.44,5.49,2.44l-8,20.29s-8.78,7-8.95,15.18,4.84,19.63,6.59,22.25S100.92,394.68,96,397.34s-7.71,20-7.71,20a48.4,48.4,0,0,0,4.83,3.9c1.48,1,2.8,1.68,3.19,1s.55,1.18.57,3.5l-.14,6h81.09l-.3-12.14h-.18A20.65,20.65,0,0,0,172,408.23c-6.22-6.53-15.94-17.92-18.39-27.76l-3.15-5.74s-3.63-20-2.8-21.52,1.62-12.54,1.62-12.54,1.28-2.94,2.45-12.79a51.16,51.16,0,0,0-.6-16.95s6.14-13.75,8.15-18.92,8.56-4.2,8.69-2.37v0c0,.12.05.26.05.39.09.51.13,1,.22,1.47,0,.08,0,.17,0,.21.64,2.87,2.24,7.08,4.47,6.34,2.88-.91,1.07-6.55,2.28-8.89s7.83-2.32,11.42-6.48c0,0-.54-3.67.24-5.54l0,0h0a9.86,9.86,0,0,0,1.72-.07l3.54-.43c.28,0,.6-.1.73-.38,0,0,0-.07,0-.1s0,0,0,0a1.31,1.31,0,0,0,.47-.32C194.45,274.48,200.22,264.93,197.26,252.83Z" style="fill:none;stroke:#263238;stroke-linecap:round;stroke-linejoin:round"></path><line x1="165.08" y1="419.69" x2="171.91" y2="419.69" style="stroke:#263238;stroke-linecap:round;stroke-linejoin:round"></line><line x1="103.97" y1="419.69" x2="160.96" y2="419.69" style="stroke:#263238;stroke-linecap:round;stroke-linejoin:round"></line><path d="M152.47,399.62c.52.73,1,1.47,1.53,2.22,1.92,3,11.52,11.2,11.06,14.69" style="fill:none;stroke:#263238;stroke-linecap:round;stroke-linejoin:round"></path><path d="M148.31,393a26,26,0,0,0,2.25,3.94" style="fill:none;stroke:#263238;stroke-linecap:round;stroke-linejoin:round"></path><path d="M133.26,269.45c4.55,9.37,9.28,19.36,9.4,30.31,0,3.58-.42,7.16-.52,10.78-.3,11.33,3,22.52,6.3,33.55q-1.12-10.29-2.23-20.39c2.68-.12,4,3.61,4.66,6.63,1.34-3.25-.33-7-1.84-10.16s-2.85-7.12-1.06-10l3.43,1.58A221.16,221.16,0,0,1,149,288.56a23.47,23.47,0,0,1-3.17,6.95c-1.18-6.24-1-12.71-2.6-18.71s-5.85-11.71-11.42-11.89C131.22,266,133.26,269.45,133.26,269.45Z" style="opacity:0.2"></path></g><g id="Floor"><path d="M393.05,432.24C312,471.14,171.84,468,90,434c-1.37-.57-2.73-1.17-4.06-1.8Z" style="fill:#c9cccd"></path><line x1="36.49" y1="432.24" x2="463.5" y2="432.24" style="fill:none;stroke:#263238;stroke-linecap:round;stroke-linejoin:round"></line></g><g id="Character"><path d="M285.28,113.58c-.15,2-2.94,3.73-4.74,2.8a3.47,3.47,0,0,0-1.46,1.85,4,4,0,0,1-4.1,3.07,5.73,5.73,0,0,1-4.05,3.33,4.07,4.07,0,0,1-3.77,3.46,1.27,1.27,0,0,0-.06-.18l-1.34,12h-28l-1.44-13.55-.06.08c-1.63.41-3.93-1.34-4.39-2.94-1.69.64-4.39-.42-5.67-1.69-1.74.91-4.63-.56-4.91-2.49A2,2,0,0,1,218,117a6.76,6.76,0,0,1-.4-2.5c1.83-.87,4.71.68,4.8,2.71a3.47,3.47,0,0,0,2.32.34,6,6,0,0,1,2.38,0,5.75,5.75,0,0,1,2.34,2,5.74,5.74,0,0,1,4.91,1.85,4.21,4.21,0,0,1,3.95.52,19,19,0,0,1,2.45-3,4.88,4.88,0,0,1-1.19-4c-1.78-.28-3.59-2.56-4.07-4.3-1.95-.08-3.72-2.79-3-4.61a2,2,0,0,1-1.69-3.64,6.67,6.67,0,0,1,.9-2.36c2,.16,3.73,2.94,2.8,4.74a3.51,3.51,0,0,0,1.85,1.46,4,4,0,0,1,3.08,4.1,5.73,5.73,0,0,1,3.33,4.06,4.25,4.25,0,0,1,2.55,1.44,14.52,14.52,0,0,1,4.14-1.09,4.79,4.79,0,0,1,1.06-3.37c-1.4-1.14-1.83-4-1.37-5.76-1.65-1-1.83-4.28-.29-5.49a2,2,0,0,1,.36-4,6.77,6.77,0,0,1,2-1.6c1.67,1.16,1.77,4.42.06,5.52a3.42,3.42,0,0,0,.87,2.18,5.86,5.86,0,0,1,1.17,2.07,5.8,5.8,0,0,1-.56,3,5.76,5.76,0,0,1,.86,5.18,4.23,4.23,0,0,1,1.48,2.56,21.07,21.07,0,0,1,4,1.31,4.81,4.81,0,0,1,2.71-2.6c-.65-1.69.42-4.39,1.68-5.68-.9-1.73.57-4.62,2.49-4.9a2,2,0,0,1,2.31-3.29,7,7,0,0,1,2.5-.4c.87,1.84-.68,4.71-2.71,4.81a3.46,3.46,0,0,0-.33,2.32,5.9,5.9,0,0,1,0,2.37,5.78,5.78,0,0,1-2,2.35,5.75,5.75,0,0,1-1.85,4.91,4.19,4.19,0,0,1-.37,3.73,29.88,29.88,0,0,1,2.14,3.86s0,0,0-.06c.46-1.61,3.12-2.73,4.74-2.32.29-1.79,2.57-3.59,4.3-4.07.08-2,2.8-3.73,4.61-3a2,2,0,0,1,3.64-1.69A6.48,6.48,0,0,1,285.28,113.58Z" style="fill:#263238;stroke:#263238;stroke-linecap:round;stroke-linejoin:round"></path><path d="M289.39,186.19a18,18,0,0,0-5-4.74c-2.66-2.25-20.26-9-25.94-11.1v.06c2.52,1,5.57,2.16,8.59,3.31-2.18,3.73-6.9,9.64-15.28,10.35-7.92.67-12.83-6.5-15.33-11.72-.22.07-16,1.6-19.58,9.33l-1.4,15.08c10.9,7.29,8.2,6.27,9.93,16.61a155.77,155.77,0,0,1,2.12,24.4c.06,7.83,4.51,12.89,6.14,11.82h0a5.15,5.15,0,0,1,.79-.46h0a2.08,2.08,0,0,1,.82-.26c1.38-.09,6.59.54,11.87.2.46,0,.91-.07,1.37-.12q1.16-.1,2.28-.3c.74-.14,1.47-.29,2.17-.49a134.32,134.32,0,0,0,14.71-5.68h0l2.38-1,1.18-.5,1.08-.47.76-.32c.25-.12.5-.21.74-.32h0c1.24-.53,2.4-1,3.47-1.41a10.74,10.74,0,0,1,1.5-.46c.07,1.12.18,2.27.32,3.39.67,5.36,2.13,10.31,4.74,11l.18,0a3.94,3.94,0,0,0,.69.07H285a5.45,5.45,0,0,0,1.7-.33h0a11,11,0,0,0,5.51-5.15,7.23,7.23,0,0,0,.85-3.15c0-4,1.12-27.51,1.12-34.37S292.74,190.64,289.39,186.19Z" style="fill:#92E3A9"></path><g style="clip-path:url(#clip-path-2)"><path d="M284.64,219.9a8.69,8.69,0,0,0,1.61,3.7,3,3,0,0,0,3.64.8L286,230.72a1.32,1.32,0,0,0-.28,1.2c.14.31.48.46.76.65a2.32,2.32,0,0,1-.6,3.9,5.79,5.79,0,0,1,3,3.63l-6.36-1.85a5.43,5.43,0,0,1-2.24-1c-1-1-1.18-2.53-1.26-4L277.94,210c-.12-2.29,0-12.35,2.64-5.78C282.54,209.12,283.34,214.83,284.64,219.9Z" style="opacity:0.2"></path><path d="M274.83,190.93c-.05-.89.18-2.09,1.07-2.13s1.24,1.12,1.26,2c0,2.44-.05,5.46-1,7.67C275,196.39,275,193.29,274.83,190.93Z" style="opacity:0.2"></path></g><path d="M289.39,186.19a18,18,0,0,0-5-4.74c-2.66-2.25-20.26-9-25.94-11.1v.06c2.52,1,5.57,2.16,8.59,3.31-2.18,3.73-6.9,9.64-15.28,10.35-7.92.67-12.83-6.5-15.33-11.72-.22.07-16,1.6-19.58,9.33l-1.4,15.08c10.9,7.29,8.2,6.27,9.93,16.61a155.77,155.77,0,0,1,2.12,24.4c.06,7.83,4.51,12.89,6.14,11.82h0a5.15,5.15,0,0,1,.79-.46h0a2.08,2.08,0,0,1,.82-.26c1.38-.09,6.59.54,11.87.2.46,0,.91-.07,1.37-.12q1.16-.1,2.28-.3c.74-.14,1.47-.29,2.17-.49a134.32,134.32,0,0,0,14.71-5.68h0l2.38-1,1.18-.5,1.08-.47.76-.32c.25-.12.5-.21.74-.32h0c1.24-.53,2.4-1,3.47-1.41a10.74,10.74,0,0,1,1.5-.46c.07,1.12.18,2.27.32,3.39.67,5.36,2.13,10.31,4.74,11l.18,0a3.94,3.94,0,0,0,.69.07H285a5.45,5.45,0,0,0,1.7-.33h0a11,11,0,0,0,5.51-5.15,7.23,7.23,0,0,0,.85-3.15c0-4,1.12-27.51,1.12-34.37S292.74,190.64,289.39,186.19Z" style="fill:none;stroke:#263238;stroke-linecap:round;stroke-linejoin:round"></path><path d="M236.46,172.33v0l.62-.22Z" style="fill:#fff;stroke:#263238;stroke-linecap:round;stroke-linejoin:round"></path><path d="M252.39,191.41H232.6s-8.73,24.24-9.62,25.31c-.54.65.69,3.94,1.75,6.42a31.39,31.39,0,0,1,2.53,12.11v.18c0,6.06.89,16.22.89,16.22l49-.33,2.19-23.73L278.41,216l-8.2-25.31Z" style="fill:#c9cccd;stroke:#263238;stroke-linecap:round;stroke-linejoin:round"></path><path d="M282.69,419.77c.45,2.05,2.12,4.82.3,5.61a16.09,16.09,0,0,0-19.5-.45,23.35,23.35,0,0,1-3.48,2.5,3.81,3.81,0,0,1-4-.13c-1.79-1.42.41-6.74,1.59-8.77.68-1.15.86-7.66.75-7.81a7.43,7.43,0,0,1-.42-8.32c.53-.89-.77-10.77-1.84-23.27-1-11.13-1.64-34-1.25-44.91.37-10.41-.55-21-1.69-31.5-1.15,10.47-2.06,21.09-1.69,31.5.39,10.88-.73,38.3-1.79,49.43-1.32,13.9-.6,19.41-.6,19.41.94,2.3-.93,6.23,0,7.53,3.25,4.53-.41,6.37.6,10.31.59,2.28,2.42,5,.64,6.4a3.83,3.83,0,0,1-4,.13,23.27,23.27,0,0,1-3.47-2.5,16.1,16.1,0,0,0-19.51.45c-1.82-.79-2.27-3.39-1.81-5.44s1.53-3.91,1.78-6c.21-1.83-.23-3.68-.26-5.53a3.63,3.63,0,0,1,.47-1.68c2-3.82,4.29-4.76,4.15-9.07l-4.76-119,5.91-31.28,24.34.27,24.35-.27,5.92,31.28-3.18,90.68q-.21,6.11-.8,12.19l-2.08,21.53c1.53.88,3.85,3.34,3.82,5.19s-.47,3.7-.26,5.53C281.16,415.86,282.23,417.73,282.69,419.77Z" style="fill:#c9cccd"></path><g style="clip-path:url(#clip-path-3)"><path d="M224.92,330.8a5.93,5.93,0,0,0,5.63-.87c2-1.74,2.3-4.72,3-7.31s2.18-5.35,4.71-6.46,6.12.19,6.57,2.91c.51,3.11-2.82,5.31-5.6,6.8s-5.89,4.25-4.72,7.17,5.65,2.68,8.7,1.47a50.09,50.09,0,0,0,9.85-5.26c2.05-1.41,4.79-3,6.8-1.53,2.22,1.64.85,5.43-1.54,6.82-3.55,2.06-12.08,1.8-11.44,7.89.17,1.6,1.86,2.93,2.29,4.49.76,2.76,1.93,8.92-.74,9.68-7.9,2.25-17.68,4.21-15.79,12.43.85,3.71-3.28,3.53-6,3.2Z" style="fill:#92E3A9"></path><path d="M270.15,248.82a5.9,5.9,0,0,0,.86,5.63c1.74,2,4.72,2.29,7.31,3s5.35,2.19,6.46,4.72-.19,6.11-2.91,6.56c-3.1.52-5.31-2.82-6.8-5.59s-4.25-5.9-7.17-4.72-2.67,5.65-1.47,8.7a50.29,50.29,0,0,0,5.26,9.84c1.41,2.06,3,4.8,1.54,6.8-1.64,2.23-5.44.86-6.83-1.53-2.06-3.55-1.79-12.08-7.89-11.44-1.59.16-2.93,1.85-4.48,2.28-2.77.76-8.92,1.94-9.69-.74-2.25-7.89-4.2-17.68-12.42-15.78-3.71.85-3.54-3.29-3.21-6Z" style="fill:#92E3A9"></path><path d="M277.19,346.36c.73.85,1.56,1.58,2.3,2.41a.7.7,0,0,1,.2.39c0,.34-.36.51-.66.46-1.2-.2-1.89-1.67-2.4-2.95-.27.16-.25.61-.24,1s-.12.82-.43.78-.33-.28-.41-.51a21.79,21.79,0,0,1-1.19-5.12C275.34,342.43,276.54,345.6,277.19,346.36Z" style="fill:#92E3A9"></path><path d="M281.93,342.29a.9.9,0,0,0-1.43.37,1.32,1.32,0,0,0,.58,1.62,1,1,0,0,0,1.32-.51,1.79,1.79,0,0,0,0-1.67c-.11-.2-.46-.27-.42,0Z" style="fill:#92E3A9"></path><path d="M279.2,342.13a.31.31,0,0,0-.48.12.45.45,0,0,0,.19.54.35.35,0,0,0,.44-.17.59.59,0,0,0,0-.55c0-.07-.16-.09-.14,0Z" style="fill:#92E3A9"></path><path d="M274,340a.64.64,0,0,0-1,.26.94.94,0,0,0,.41,1.16.75.75,0,0,0,.95-.36,1.3,1.3,0,0,0,0-1.2c-.08-.14-.33-.19-.3,0Z" style="fill:#92E3A9"></path><path d="M271.53,342.21a4.2,4.2,0,0,0-4,.37,3.73,3.73,0,0,0-1.29,1.43,9.88,9.88,0,0,1-.41.94c-.83,1.4-2.86.91-3.91,2.09a.94.94,0,0,0-.21,1.09.81.81,0,0,0,.9.43c.77-.18,1.13-1,1.7-1.53a1.49,1.49,0,0,1,1.78-.36c.9.67-3.18,3-4.87,5.59-.19.31-1.56,1.42-1.39,1.75.53,1.06,2-.59,2.79-1.88a6.19,6.19,0,0,1,2-2.23c.45-.26.81.51.39.82-.23.17-.49.32-.72.47-.62.4-1.22,1.33-.77,2a9.47,9.47,0,0,0,2.24-2.49,4.42,4.42,0,0,1,1.48-1.29c.49-.24,1,.43.66.95a12,12,0,0,1-1.57,2.13.75.75,0,0,0,1.22.15,4.16,4.16,0,0,0,.75-1.34c.22-.48.57-.95,1-1a2,2,0,0,1,.75.21C274.79,352.34,276,344.15,271.53,342.21Z" style="fill:#92E3A9"></path><path d="M271.53,342.21a4.2,4.2,0,0,0-4,.37,3.73,3.73,0,0,0-1.29,1.43,9.88,9.88,0,0,1-.41.94c-.83,1.4-2.86.91-3.91,2.09a.94.94,0,0,0-.21,1.09.81.81,0,0,0,.9.43c.77-.18,1.13-1,1.7-1.53a1.49,1.49,0,0,1,1.78-.36c.9.67-3.18,3-4.87,5.59-.19.31-1.56,1.42-1.39,1.75.53,1.06,2-.59,2.79-1.88a6.19,6.19,0,0,1,2-2.23c.45-.26.81.51.39.82-.23.17-.49.32-.72.47-.62.4-1.22,1.33-.77,2a9.47,9.47,0,0,0,2.24-2.49,4.42,4.42,0,0,1,1.48-1.29c.49-.24,1,.43.66.95a12,12,0,0,1-1.57,2.13.75.75,0,0,0,1.22.15,4.16,4.16,0,0,0,.75-1.34c.22-.48.57-.95,1-1a2,2,0,0,1,.75.21C274.79,352.34,276,344.15,271.53,342.21Z" style="fill:#92E3A9;opacity:0.7000000000000001"></path><path d="M259.62,350.28a.65.65,0,0,0-1,.27,1,1,0,0,0,.42,1.16.77.77,0,0,0,.95-.37,1.31,1.31,0,0,0,0-1.19c-.08-.15-.34-.2-.3,0Z" style="fill:#92E3A9"></path><path d="M259.62,350.28a.65.65,0,0,0-1,.27,1,1,0,0,0,.42,1.16.77.77,0,0,0,.95-.37,1.31,1.31,0,0,0,0-1.19c-.08-.15-.34-.2-.3,0Z" style="fill:#92E3A9"></path><path d="M259.62,350.28a.65.65,0,0,0-1,.27,1,1,0,0,0,.42,1.16.77.77,0,0,0,.95-.37,1.31,1.31,0,0,0,0-1.19c-.08-.15-.34-.2-.3,0Z" style="fill:#92E3A9"></path><path d="M259.62,350.28a.65.65,0,0,0-1,.27,1,1,0,0,0,.42,1.16.77.77,0,0,0,.95-.37,1.31,1.31,0,0,0,0-1.19c-.08-.15-.34-.2-.3,0Z" style="fill:#92E3A9;opacity:0.7000000000000001"></path><path d="M245,295.87c8.86,2.73,17.06,2.66,25.66-.8-.83,2.06-4.36,3-5.9,4.62,2.63-.2,5.46-1.08,8.08-1.27a5.25,5.25,0,0,1,2.34.09c.63.29,1.45,1.65,1.19,2.29s-1.88,1-2.55,1.14c-4.53.81-10.82,1.32-15.35,2.13l3.19,2.12,4,1.74a39.12,39.12,0,0,1-13.11-3.3c-3.26,3.24-10.53,3.4-14.73,1.56l10.51-1.06L245.21,304a.51.51,0,0,1,0-1l2.71-.7c-.08,0-3.69-1.74-4.16-2a16.26,16.26,0,0,0-4.84-2,7,7,0,0,1-5.41-6.36C236.25,291.37,238.75,294,245,295.87Z" style="opacity:0.2"></path><path d="M231.49,365.81a9.31,9.31,0,0,0,2.11,4,4,4,0,0,0,4.18,1.09q-1.42-2.75-2.86-5.47a44.38,44.38,0,0,1-2.57-5.56c-.47-1.35-.5-4.46-1.76-5C229.7,358.21,230.5,362.51,231.49,365.81Z" style="opacity:0.2"></path><path d="M267.79,372.8c.55.95,1.87,1.1,2.65,1.87,1.38,1.36.38,3.68-.68,5.3l-9,13.85a31.81,31.81,0,0,0,14.46-15.5c.81-1.89,1.45-4,.92-6-.26-1-.8-1.89-1.08-2.87-1.27-4.43,2.87-9.28,1.09-13.52-1.15,3.26-1.93,7.26-3.68,10.25C271.43,368,266.41,370.37,267.79,372.8Z" style="opacity:0.2"></path><path d="M239.09,390.63a4.17,4.17,0,0,1,.67,2.13,2.81,2.81,0,0,1-2,2.28,8.23,8.23,0,0,1-3.21.19,1.66,1.66,0,0,0,.72,2,4.18,4.18,0,0,0,2.26.51,25.46,25.46,0,0,0,4.45-.27c1.3-.19,2.87-.79,3-2.09a3.24,3.24,0,0,0-1.19-2.27,70.88,70.88,0,0,1-5.48-6.63c-1.33-1.84-2.72-5.42-4.67-6.45C235.1,383.67,237.25,387.14,239.09,390.63Z" style="opacity:0.2"></path><path d="M228.59,410.83a14.57,14.57,0,0,0,5.68,1,14,14,0,0,1,5.67,1.11,4.87,4.87,0,0,1,2.88,4.63,33.23,33.23,0,0,0-7-1.86,11,11,0,0,0-7,1.31,19,19,0,0,1,19.95,10.23c.7.85,2.25.19,2.54-.87a4.06,4.06,0,0,0-.82-3.11,6.24,6.24,0,0,1-1.28-3c0-1.16.7-2.24.67-3.4,0-1.62-1.51-2.85-3-3.46s-3.15-.87-4.52-1.73a2.15,2.15,0,0,1-1.21-1.86c.15-1.59,3-1.46,3.06-2.66.13-1.89-2.36-1-3.13-.78C236.74,407.64,233.12,410,228.59,410.83Z" style="opacity:0.2"></path><path d="M236.81,401.13a1.52,1.52,0,0,1,1.1.46c.5.68-.37,1.54-1.16,1.83-1.75.62-6.62.78-7.12-2C229.22,399.16,235.11,400.92,236.81,401.13Z" style="opacity:0.2"></path><path d="M261,402.39a1.77,1.77,0,0,0-1.09.16,1.2,1.2,0,0,0-.13,1.67,3.21,3.21,0,0,0,1.58,1,29.73,29.73,0,0,0,12.93,1.48,6.08,6.08,0,0,1-1.25-1.72c.53,0,1.27-.6,1.75-.66C273,401.68,264.05,402.59,261,402.39Z" style="opacity:0.2"></path><path d="M258.6,414.22c-.9,3-1.79,6-2.69,9-.42,1.43-.74,3.25.42,4.19s2.61.38,3.87-.13a19.64,19.64,0,0,0,4.31-2.19,6.48,6.48,0,0,0,2.67-3.9l-4.29-.48c.92-1.32,2.61-1.8,4.1-2.41s3-1.62,3.05-3.28C266.14,414.26,262.47,416,258.6,414.22Z" style="opacity:0.2"></path><path d="M266.85,411.9a3.26,3.26,0,0,1,1.76.57,1.13,1.13,0,0,1,.15,1.64c-.38.31-.94.22-1.42.28s-1,.57-.76,1A15.89,15.89,0,0,0,278.76,409c-3.53.08-7.17.42-10.69.24-2.45-.12-4.17-1.44-6.45-1.9-1.41-.28-4.67.29-3.85,2.62C258.48,411.93,265.11,411.68,266.85,411.9Z" style="opacity:0.2"></path><path d="M260.94,421.38l7.13-1.13c3.58-.56,7.4-1.1,10.72.34a3.28,3.28,0,0,0,1.65.45c.57-.06,1.12-.66.88-1.18a1.38,1.38,0,0,0-.92-.59c-3.23-.95-6.61-2.58-10-2a25.07,25.07,0,0,0-5.05,1.65C264.09,419.48,262.25,421.17,260.94,421.38Z" style="opacity:0.2"></path></g><path d="M282.69,419.77c.45,2.05,2.12,4.82.3,5.61a16.09,16.09,0,0,0-19.5-.45,23.35,23.35,0,0,1-3.48,2.5,3.81,3.81,0,0,1-4-.13c-1.79-1.42.41-6.74,1.59-8.77.68-1.15.86-7.66.75-7.81a7.43,7.43,0,0,1-.42-8.32c.53-.89-.77-10.77-1.84-23.27-1-11.13-1.64-34-1.25-44.91.37-10.41-.55-21-1.69-31.5-1.15,10.47-2.06,21.09-1.69,31.5.39,10.88-.73,38.3-1.79,49.43-1.32,13.9-.6,19.41-.6,19.41.94,2.3-.93,6.23,0,7.53,3.25,4.53-.41,6.37.6,10.31.59,2.28,2.42,5,.64,6.4a3.83,3.83,0,0,1-4,.13,23.27,23.27,0,0,1-3.47-2.5,16.1,16.1,0,0,0-19.51.45c-1.82-.79-2.27-3.39-1.81-5.44s1.53-3.91,1.78-6c.21-1.83-.23-3.68-.26-5.53a3.63,3.63,0,0,1,.47-1.68c2-3.82,4.29-4.76,4.15-9.07l-4.76-119,5.91-31.28,24.34.27,24.35-.27,5.92,31.28-3.18,90.68q-.21,6.11-.8,12.19l-2.08,21.53c1.53.88,3.85,3.34,3.82,5.19s-.47,3.7-.26,5.53C281.16,415.86,282.23,417.73,282.69,419.77Z" style="fill:none;stroke:#263238;stroke-linecap:round;stroke-linejoin:round"></path><path d="M224.21,437.51l-.05,5.83c-2.42.46-4.11.63-4.48.7a29.91,29.91,0,0,1-7.24.66l-5.58-.17.1-6.1s11,.76,16.63-.75Z" style="fill:none;stroke:#263238;stroke-linecap:round;stroke-linejoin:round"></path><path d="M248.34,431v3.87a1.54,1.54,0,0,1-1.25,1.59l-7.11.71c-.11,0-11.77,5.42-15.81,6.2l.05-5.83c5.18-1.39,7.63-1.85,13.45-4.77Z" style="fill:none;stroke:#263238;stroke-linecap:round;stroke-linejoin:round"></path><path d="M248.35,425.38V431l-5.1.85a43.09,43.09,0,0,0-9.57,2.77,67,67,0,0,1-9.46,2.92l-.62.17c-5.62,1.51-16.63.75-16.63.75a9.73,9.73,0,0,1,9.45-6.84h.68l5.08-6.21C232.84,415.31,248.35,425.38,248.35,425.38Z" style="fill:#263238;stroke:#263238;stroke-linecap:round;stroke-linejoin:round"></path><path d="M217.26,431.79s-6.53-2-10.3,6.64c0,0,10,1.24,14.86-.38C221.82,438.05,222.45,433.77,217.26,431.79Z" style="fill:#fff;stroke:#263238;stroke-linecap:round;stroke-linejoin:round"></path><path d="M225.09,440.39c4.68-.55,8.8-3.49,13.28-5a45.31,45.31,0,0,1,9.94-1.8l-.27,0" style="fill:none;stroke:#263238;stroke-linecap:round;stroke-linejoin:round"></path><path d="M223.78,424a53.62,53.62,0,0,1-3.66,5.77,5.26,5.26,0,0,0,4.17,0,18.86,18.86,0,0,0,2.67-3.37,36.65,36.65,0,0,1,4.79-5.44" style="fill:none;stroke:#263238;stroke-linecap:round;stroke-linejoin:round"></path><path d="M281.74,438.32l.06,5.83c2.42.46,4.11.64,4.48.71a29.41,29.41,0,0,0,7.24.65l5.58-.17-.09-6.09s-11,.75-16.65-.76Z" style="fill:none;stroke:#263238;stroke-linecap:round;stroke-linejoin:round"></path><path d="M257.61,431.78v3.87a1.53,1.53,0,0,0,1.25,1.59L266,438c.11,0,11.78,5.41,15.82,6.19l-.06-5.83c-5.17-1.39-7.62-1.85-13.45-4.77Z" style="fill:none;stroke:#263238;stroke-linecap:round;stroke-linejoin:round"></path><path d="M257.6,426.19v5.59l5.1.85a43.17,43.17,0,0,1,9.58,2.77,65.59,65.59,0,0,0,9.45,2.92l.62.17c5.63,1.51,16.65.76,16.65.76-1.67-4.53-5.22-6.85-9.46-6.85h-.68l-5.08-6.21C273.11,416.11,257.6,426.19,257.6,426.19Z" style="fill:#263238;stroke:#263238;stroke-linecap:round;stroke-linejoin:round"></path><path d="M288.7,432.6s6.53-2,10.3,6.64c0,0-10,1.24-14.87-.37C284.13,438.87,283.51,434.58,288.7,432.6Z" style="fill:#fff;stroke:#263238;stroke-linecap:round;stroke-linejoin:round"></path><path d="M280.87,441.2c-4.68-.55-8.8-3.49-13.29-5a45.31,45.31,0,0,0-9.94-1.8l.27,0" style="fill:none;stroke:#263238;stroke-linecap:round;stroke-linejoin:round"></path><path d="M274.2,421.8a37.69,37.69,0,0,1,4.79,5.44,19.45,19.45,0,0,0,2.68,3.38,5.26,5.26,0,0,0,4.17,0,52.63,52.63,0,0,1-3.66-5.78" style="fill:none;stroke:#263238;stroke-linecap:round;stroke-linejoin:round"></path><path d="M223.68,252.86s0,.11,0,.16a1,1,0,0,0,1.38.61c.66-.28,1.93-2.42,1.93-2.42l1.22-1,.81-.65v0c-.14.25-1.27,2.23-1,3.24a.64.64,0,0,0,.08.19,2.47,2.47,0,0,0,.45.61,3.24,3.24,0,0,0,2,1h0c.59.06,2.28.51,3.76.81l.15,0h0c.51.09,1,.17,1.4.2a9.66,9.66,0,0,0,3.57-.7,41.6,41.6,0,0,0,7.25-.75,3.39,3.39,0,0,0,.45-.15l.39-.18a4.88,4.88,0,0,0,.74-.42,9.53,9.53,0,0,0,2.3-2.25l0-.06h0s5.55.5,13,.91c2.73.15,5.72.29,8.79.39,4.74.14,8.6.68,11.68.66h.22c.61,0,1.19,0,1.73-.1h0a7.07,7.07,0,0,0,6.14-4.37,16.86,16.86,0,0,0,.68-1.77l-1.82-4.4a15.68,15.68,0,0,0-3.8-2.92,12.17,12.17,0,0,0-7.13-1.61,10.72,10.72,0,0,0-1.54.25c-1.12.27-2.34.59-3.63.94l-.79.21-.8.22-1.13.32c-6.49,1.82-14.07,4.07-19.08,4.76a26.72,26.72,0,0,1-4.51.2c-.46,0-.92,0-1.37-.07-5.28-.34-10.36-1.65-11.75-1.75s-5.15,2.64-7.55,4.33c-.66.46-1.23.85-1.63,1.07l-.18.11-.14.09a6.3,6.3,0,0,0-2,2.68s0,0,0,0a7.53,7.53,0,0,0-.36,1.08A3.1,3.1,0,0,0,223.68,252.86Z" style="fill:#fff;stroke:#263238;stroke-linecap:round;stroke-linejoin:round"></path><path d="M236.48,172.35c2.49,5.22,7.39,12.39,15.32,11.72,8.39-.71,13.1-6.61,15.27-10.35l-8.57-3.32v-.06c0-2.54.08-5.6.35-8.63.06-.65.14-1.32.22-2s.14-1.05.22-1.57H243.36s.1.64.22,1.7a.08.08,0,0,0,0,0c.1.94.23,2.2.31,3.63.13,1.89.22,4,.16,6.2-.77.27-1.55.55-2.33.85l-1.51.53-1.82.61-1.31.41A6.37,6.37,0,0,0,236.48,172.35Z" style="fill:#999;stroke:#263238;stroke-linecap:round;stroke-linejoin:round"></path><path d="M259.07,159.72s-3,7.73-7.29,9.05-8.2-8.87-8.2-8.87,6.08,6.5,8.34,5.43,7.15-5.61,7.15-5.61Z" style="fill:#263238"></path><path d="M265.35,138.54s2-3.95,4.19-.19c1.55,2.71-.68,7.05-1.63,8.65a3.24,3.24,0,0,1-2.88,1.43Z" style="fill:#999;stroke:#263238;stroke-linecap:round;stroke-linejoin:round"></path><path d="M238.17,138.54s-2-3.95-4.19-.19c-1.55,2.71.68,7.05,1.64,8.65a3.22,3.22,0,0,0,2.87,1.43Z" style="fill:#999;stroke:#263238;stroke-linecap:round;stroke-linejoin:round"></path><path d="M238.53,152.89c.37,1.22,2.5,4.24,5.05,7,.41.43.81.86,1.23,1.27,2.55,2.52,5.31,4.52,7.11,4.16,1.57-.32,3.63-1.94,5.65-4,.5-.51,1-1.06,1.5-1.61h0a39.09,39.09,0,0,0,5.6-7.94,12.82,12.82,0,0,0,.81-3.35,77.84,77.84,0,0,0,.35-10.34c0-1.21,0-9,0-9.5,0-2.4-27-1.35-27.58.63C237.41,132.08,237.72,150.31,238.53,152.89Z" style="fill:#999;stroke:#263238;stroke-linecap:round;stroke-linejoin:round"></path><path d="M256.27,141.89c0,1,.35,1.75.75,1.75s.8-.76.8-1.75-.36-1.76-.8-1.76S256.27,140.93,256.27,141.89Z" style="fill:#263238"></path><path d="M246.06,140.14c-.44,0-.8.78-.8,1.75s.36,1.75.8,1.75.8-.78.8-1.75S246.5,140.14,246.06,140.14Z" style="fill:#263238"></path><path d="M261.37,137.58s-1.44-2.71-6.23-1.91" style="fill:none;stroke:#263238;stroke-linecap:round;stroke-linejoin:round"></path><path d="M241.55,137.58s1.43-2.71,6.22-1.91" style="fill:none;stroke:#263238;stroke-linecap:round;stroke-linejoin:round"></path><path d="M277.11,198.36q1.35,19.56,2.69,39.12v-1" style="fill:#263238;stroke:#263238;stroke-linecap:round;stroke-linejoin:round"></path><path d="M247.12,152.22c.79.16,1.58.32,2.38.42,2.67.34,5.67-.08,7.46-2.08-.14,1.79-1.4,8.58-5,8.76C248.08,159.51,247.12,152.22,247.12,152.22Z" style="fill:#fff;stroke:#263238;stroke-linecap:round;stroke-linejoin:round"></path><path d="M232.25,171.48v28.39l3,3.84,2.13-4.7-.93-26.45S234.38,170.63,232.25,171.48Z" style="fill:#263238;stroke:#263238;stroke-linecap:round;stroke-linejoin:round"></path><path d="M266.47,173,265.4,198.8l2.31,4,2.5-4.69.36-24.12S268.07,171.27,266.47,173Z" style="fill:#263238;stroke:#263238;stroke-linecap:round;stroke-linejoin:round"></path><path d="M278.46,219.28a75.76,75.76,0,0,0-1.16,15.26" style="fill:none;stroke:#263238;stroke-linecap:round;stroke-linejoin:round"></path><path d="M235.86,198.75a1.47,1.47,0,1,1-1.47-1.47A1.47,1.47,0,0,1,235.86,198.75Z" style="fill:#fff;stroke:#263238;stroke-linecap:round;stroke-linejoin:round"></path><path d="M269.36,198.18a1.47,1.47,0,1,1-1.47-1.47A1.46,1.46,0,0,1,269.36,198.18Z" style="fill:#fff;stroke:#263238;stroke-linecap:round;stroke-linejoin:round"></path><rect x="249.55" y="202.32" width="2.41" height="24.91" transform="translate(475.72 456.43) rotate(-173.53)" style="fill:#c9cccd;stroke:#263238;stroke-linecap:round;stroke-linejoin:round"></rect><polygon points="253.1 204.78 254.87 200.6 249.91 199.99 250.71 204.51 253.1 204.78" style="fill:#263238;stroke:#263238;stroke-linecap:round;stroke-linejoin:round"></polygon><polygon points="249.91 199.99 253.99 193.64 254.87 200.6 249.91 199.99" style="fill:#fff;stroke:#263238;stroke-linecap:round;stroke-linejoin:round"></polygon><path d="M242.59,203.06c.12,0,2.09-1.25.73-5s-2.63-3.14-3.4-5.37a12.71,12.71,0,0,0-.48,6.38C240,202.91,242.14,203.18,242.59,203.06Z" style="fill:#263238;stroke:#263238;stroke-linecap:round;stroke-linejoin:round"></path><path d="M243.38,215c1.25,5,5.75,19.45,6.83,19.18S248.52,219,247.27,214s-3.14-8.91-4.21-8.65S242.12,209.92,243.38,215Z" style="fill:#fff;stroke:#263238;stroke-linecap:round;stroke-linejoin:round"></path><path d="M243.38,215c1.25,5,5.75,19.45,6.83,19.18S248.52,219,247.27,214s-3.14-8.91-4.21-8.65S242.12,209.92,243.38,215Z" style="fill:#c9cccd;stroke:#263238;stroke-linecap:round;stroke-linejoin:round"></path><path d="M242.5,202.23h.83a.81.81,0,0,1,.81.81v4.27a0,0,0,0,1,0,0h-2.45a0,0,0,0,1,0,0V203a.81.81,0,0,1,.81-.81Z" transform="translate(528.03 344.94) rotate(166.05)" style="fill:#fff;stroke:#263238;stroke-linecap:round;stroke-linejoin:round"></path><path d="M242.5,202.23h.83a.81.81,0,0,1,.81.81v4.27a0,0,0,0,1,0,0h-2.45a0,0,0,0,1,0,0V203a.81.81,0,0,1,.81-.81Z" transform="translate(528.03 344.94) rotate(166.05)" style="fill:#fff;stroke:#263238;stroke-linecap:round;stroke-linejoin:round;opacity:0.5"></path><path d="M239.92,192.72c.77,2.23,2,1.65,3.4,5.37a8.57,8.57,0,0,1,.33,1.12c0,.28-.11.48-.31.51-.86.1-1.35-2.91-2-2.84s.1,1.51-.67,1.62-.4,1.48-1.08,1.53a9.49,9.49,0,0,1-.19-.93A12.71,12.71,0,0,1,239.92,192.72Z" style="fill:#92E3A9;stroke:#263238;stroke-linecap:round;stroke-linejoin:round"></path><rect x="246.35" y="211.73" width="21.39" height="4.14" transform="translate(-1.06 426.32) rotate(-79.22)" style="fill:#263238;stroke:#263238;stroke-linecap:round;stroke-linejoin:round"></rect><polygon points="261.08 203.68 257.01 202.91 259.89 197.6 260.33 199.82 261.08 203.68" style="fill:#fff;stroke:#263238;stroke-linecap:round;stroke-linejoin:round"></polygon><line x1="258.43" y1="205.28" x2="255.29" y2="221.78" style="fill:none;stroke:#fff;stroke-linecap:round;stroke-linejoin:round"></line><polygon points="259.89 197.6 258.85 199.54 260.38 199.83 259.89 197.6" style="fill:#263238"></polygon><path d="M263.44,232.94l-.6.26a26.09,26.09,0,0,1-21.5-.26h0V208.7h22.1Z" style="fill:#263238;stroke:#263238;stroke-linecap:round;stroke-linejoin:round"></path><path d="M248.8,293.51a1.85,1.85,0,0,0,1.48-.37,1.72,1.72,0,0,0,.72-1.26,2,2,0,0,0-.72-1.44,2,2,0,0,0-1.32-.62,1.55,1.55,0,0,0-1.28.76A2,2,0,0,0,248.8,293.51Z" style="fill:#92E3A9"></path><path d="M249.34,136.68s.23,8.19-1.61,9.71,1,3.23,2.27,3.31,5.43-.68,4.51-1.93" style="fill:none;stroke:#263238;stroke-linecap:round;stroke-linejoin:round"></path><path d="M218.55,179.28s-5,4.43-9.3,28.69-3.2,21.76-3.2,21.76-2.14,8.51,3.2,9.42,13.6-3.38,13.6-3.38,1.36-25,4.58-39.06" style="fill:#92E3A9"></path><g style="clip-path:url(#clip-path-4)"><path d="M221.34,190.7c3.85-1,2.78,4.72,4,3.8,1.52-1.15,0-12,3.23-8.86-1.54,2.85.5,6.26.64,9.5.13,3.05-1.48,5.89-3,8.52l.27-6.25a136,136,0,0,0-5.28,27.32,10.43,10.43,0,0,0-9.74-1.68c4.93-1.7,8.48-12.13,8.68-16.57C220.36,201.05,216,192.07,221.34,190.7Z" style="opacity:0.2"></path></g><path d="M218.55,179.28s-5,4.43-9.3,28.69-3.2,21.76-3.2,21.76-2.14,8.51,3.2,9.42,13.6-3.38,13.6-3.38,1.36-25,4.58-39.06" style="fill:none;stroke:#263238;stroke-linecap:round;stroke-linejoin:round"></path><path d="M222,224.32s-12.18,2.93-14.84,10.37,1.45,8.21,1.45,8.21h6s5.27-9.59,10.3-12.92C224.93,230,227,225.16,222,224.32Z" style="fill:#fff;stroke:#263238;stroke-linecap:round;stroke-linejoin:round"></path><path d="M283.36,192.31c.15.12,3.76,1.34,7.07-4.26s1.25-6.62,3.28-9.92a20.94,20.94,0,0,0-8.62,6.05C280.89,188.9,282.74,191.85,283.36,192.31Z" style="fill:#263238;stroke:#263238;stroke-linecap:round;stroke-linejoin:round"></path><path d="M269.05,205.71c-5.09,6.85-18.7,27.59-17.23,28.67s17.42-17.88,22.52-24.73,8.05-13.28,6.59-14.36S274.15,198.87,269.05,205.71Z" style="fill:#fff;stroke:#263238;stroke-linecap:round;stroke-linejoin:round"></path><path d="M269.05,205.71c-5.09,6.85-18.7,27.59-17.23,28.67s17.42-17.88,22.52-24.73,8.05-13.28,6.59-14.36S274.15,198.87,269.05,205.71Z" style="fill:#c9cccd;stroke:#263238;stroke-linecap:round;stroke-linejoin:round"></path><path d="M280.31,190.33h2.41a.81.81,0,0,1,.81.81v7.53a0,0,0,0,1,0,0h-4a0,0,0,0,1,0,0v-7.53A.81.81,0,0,1,280.31,190.33Z" transform="translate(391.13 518.64) rotate(-143.33)" style="fill:#fff;stroke:#263238;stroke-linecap:round;stroke-linejoin:round"></path><path d="M280.31,190.33h2.41a.81.81,0,0,1,.81.81v7.53a0,0,0,0,1,0,0h-4a0,0,0,0,1,0,0v-7.53A.81.81,0,0,1,280.31,190.33Z" transform="translate(391.13 518.64) rotate(-143.33)" style="fill:#fff;stroke:#263238;stroke-linecap:round;stroke-linejoin:round;opacity:0.5"></path><path d="M293.71,178.13c-2,3.3,0,4.32-3.28,9.92a13.14,13.14,0,0,1-1.09,1.58c-.37.28-.71.37-1,.14-1-1,2.28-4.74,1.56-5.44s-1.81,1.69-2.76.83-2.29,1.05-3.06.23c.29-.39.6-.79,1-1.21A20.94,20.94,0,0,1,293.71,178.13Z" style="fill:#92E3A9;stroke:#263238;stroke-linecap:round;stroke-linejoin:round"></path><path d="M273.74,218.25a.61.61,0,0,1,.07.14,1,1,0,0,1-1,1.12c-.71,0-2.77-1.37-2.77-1.37l-1.51-.35-1-.23h0c.19.14,2.1,1.46,2.25,2.53a.74.74,0,0,1,0,.21,3.12,3.12,0,0,1-.14.74,3.41,3.41,0,0,1-1.36,1.75h0l0,0c-.52.3-1.84,1.41-3,2.31l-.15.1a13.15,13.15,0,0,1-1.18.78,9.83,9.83,0,0,1-3.53.89,42.87,42.87,0,0,1-6.88,2.4l-.44.06h-.44a5.85,5.85,0,0,1-.85-.07,9.77,9.77,0,0,1-3-1.06l-.06,0h0s-17.46,8.29-20.31,9.73c-3.88,2-13.33,4.87-13.65,5-.92-1.1-1.16-3.09-1-5,.53-9.38,10-11.52,10.32-11.57s14.8-1.43,19.62-3a25.68,25.68,0,0,0,4.17-1.75c.42-.2.82-.41,1.21-.64,4.64-2.55,8.68-5.88,9.89-6.57s5.78.21,8.66.72c.81.13,1.5.24,1.95.27l.21,0,.16,0a6,6,0,0,1,2.92,1.59h0a6.5,6.5,0,0,1,.79.82A2.15,2.15,0,0,1,273.74,218.25Z" style="fill:#999;stroke:#263238;stroke-linecap:round;stroke-linejoin:round"></path><rect x="227.23" y="222.17" width="4.35" height="45.03" transform="translate(564.38 227.74) rotate(130.26)" style="fill:#c9cccd;stroke:#263238;stroke-linecap:round;stroke-linejoin:round"></rect><polygon points="216.75 231.12 212.24 224.25 206.33 231.08 213.94 234.43 216.75 231.12" style="fill:#263238;stroke:#263238;stroke-linecap:round;stroke-linejoin:round"></polygon><polygon points="206.33 231.08 200.9 218.57 212.24 224.25 206.33 231.08" style="fill:#fff;stroke:#263238;stroke-linecap:round;stroke-linejoin:round"></polygon><path d="M223.68,252.86s0,.11,0,.16a1,1,0,0,0,1.38.58c.66-.28,1.93-2.41,1.93-2.41l1.22-1,.8-.63h0c-.12.21-1.28,2.21-1,3.25a.64.64,0,0,0,.08.19,2.47,2.47,0,0,0,.45.61,3.3,3.3,0,0,0,2,1h.05c.61.06,2.28.5,3.74.8l.18,0c.52.09,1,.17,1.4.2a9.7,9.7,0,0,0,3.57-.7,42.65,42.65,0,0,0,7.25-.75l.43-.13.39-.18a5.27,5.27,0,0,0,.74-.42,9.53,9.53,0,0,0,2.3-2.25l0-.06h0s0,0,0,0,5.38.49,12.71.89c2.81.16,5.91.3,9.11.41,4.34.14,7.92.49,10.83.42l.91,0,1-.1a10.52,10.52,0,0,0,.15-5c-.53-2.24-2-4.57-5.36-6.37l-.05,0a37,37,0,0,0-5-2.19h0l-.78.22-.8.22-1.13.32c-6.5,1.84-14.06,4.1-19.07,4.77a25.89,25.89,0,0,1-4.52.19c-.46,0-.92,0-1.37-.07-5.28-.33-10.35-1.63-11.74-1.74s-5.15,2.64-7.54,4.32c-.68.47-1.25.86-1.65,1.08l-.18.1-.14.09a6.11,6.11,0,0,0-2,2.68s0,0,0,0a5.91,5.91,0,0,0-.36,1.08A3.1,3.1,0,0,0,223.68,252.86Z" style="fill:#999;stroke:#263238;stroke-linecap:round;stroke-linejoin:round"></path><path d="M240.42,251.4s-3.29,1.2-4.59,1.58-1.49,2.65-1.49,2.65" style="fill:none;stroke:#263238;stroke-linecap:round;stroke-linejoin:round"></path><path d="M237.42,248.79a70.71,70.71,0,0,0-6.19,3.7,2.18,2.18,0,0,0-.65,2.21" style="fill:none;stroke:#263238;stroke-linecap:round;stroke-linejoin:round"></path><path d="M229,249.57s5.13-4.09,5.75-4.21" style="fill:#fff;stroke:#263238;stroke-linecap:round;stroke-linejoin:round"></path><path d="M258,224s3.48-.31,4.83-.52,2.47,1.77,2.47,1.77" style="fill:none;stroke:#263238;stroke-linecap:round;stroke-linejoin:round"></path><path d="M259.58,220.39a71.3,71.3,0,0,1,7.17.72,2.19,2.19,0,0,1,1.53,1.73" style="fill:none;stroke:#263238;stroke-linecap:round;stroke-linejoin:round"></path><path d="M267.49,217.55s-6.38-1.53-7-1.38" style="fill:#fff;stroke:#263238;stroke-linecap:round;stroke-linejoin:round"></path><path d="M227.4,417.7a9.94,9.94,0,0,1,7.65-2.3,29.79,29.79,0,0,1,7.92,2.18" style="fill:none;stroke:#263238;stroke-linecap:round;stroke-linejoin:round"></path><path d="M242.4,406.05c.67-.39,1.34-.79,2-1.21" style="fill:none;stroke:#263238;stroke-linecap:round;stroke-linejoin:round"></path><path d="M229,411a43.27,43.27,0,0,0,11.45-3.89" style="fill:none;stroke:#263238;stroke-linecap:round;stroke-linejoin:round"></path><path d="M261.3,404.84a30.6,30.6,0,0,0,12.84,1.6" style="fill:none;stroke:#263238;stroke-linecap:round;stroke-linejoin:round"></path><path d="M262,411a45.21,45.21,0,0,0,14-.6A1.44,1.44,0,0,1,276,412a3.67,3.67,0,0,1-1.4.83,37.16,37.16,0,0,1-8,2.17" style="fill:none;stroke:#263238;stroke-linecap:round;stroke-linejoin:round"></path><path d="M270.15,417.78a12.93,12.93,0,0,1,10.54,1.91" style="fill:none;stroke:#263238;stroke-linecap:round;stroke-linejoin:round"></path><path d="M228.59,401.94a7.28,7.28,0,0,0,7.73,1.55" style="fill:none;stroke:#263238;stroke-linecap:round;stroke-linejoin:round"></path><path d="M249.66,278.85l.72,18.18c2.4,1.18,3.28,4.88,2.72,7.48" style="fill:none;stroke:#263238;stroke-linecap:round;stroke-linejoin:round"></path><path d="M259.2,301.74a60.31,60.31,0,0,1,13.63-3.32,5.27,5.27,0,0,1,2.34.09,1.87,1.87,0,0,1,1.34,1.73c-.07,1.26-1.65,1.76-2.9,1.92l-8.36,1.11" style="fill:none;stroke:#263238;stroke-linecap:round;stroke-linejoin:round"></path><path d="M233.89,296.27l13.8,5.59" style="fill:none;stroke:#263238;stroke-linecap:round;stroke-linejoin:round"></path><path d="M235.66,305.87a40.17,40.17,0,0,0,11.06-.14" style="fill:none;stroke:#263238;stroke-linecap:round;stroke-linejoin:round"></path><path d="M256,305.94a19,19,0,0,0,8.55,2.14" style="fill:none;stroke:#263238;stroke-linecap:round;stroke-linejoin:round"></path><path d="M232.15,359.92a24.77,24.77,0,0,0,3.37,7.17" style="fill:none;stroke:#263238;stroke-linecap:round;stroke-linejoin:round"></path><path d="M231.21,351.93a24.28,24.28,0,0,0,.39,5.64" style="fill:none;stroke:#263238;stroke-linecap:round;stroke-linejoin:round"></path><path d="M275.2,356.92a10,10,0,0,1-3.91,9.61" style="fill:none;stroke:#263238;stroke-linecap:round;stroke-linejoin:round"></path><path d="M274.88,379.64a59.44,59.44,0,0,1-12.63,14.92" style="fill:none;stroke:#263238;stroke-linecap:round;stroke-linejoin:round"></path><path d="M277.45,374.84c-.45,1-.93,1.88-1.43,2.8" style="fill:none;stroke:#263238;stroke-linecap:round;stroke-linejoin:round"></path><path d="M233.92,380A63.17,63.17,0,0,0,244,394.09c.57.6,1.19,1.44.79,2.16a1.79,1.79,0,0,1-1,.69,12.37,12.37,0,0,1-9.57-.31" style="fill:none;stroke:#263238;stroke-linecap:round;stroke-linejoin:round"></path><path d="M231.78,375.47c.33.77.67,1.52,1,2.28" style="fill:none;stroke:#263238;stroke-linecap:round;stroke-linejoin:round"></path><path d="M281.55,236a7.83,7.83,0,0,1,6.41,1.11" style="fill:none;stroke:#263238;stroke-linecap:round;stroke-linejoin:round"></path><path d="M281.91,232.81a7.74,7.74,0,0,0,6.39-2.9" style="fill:none;stroke:#263238;stroke-linecap:round;stroke-linejoin:round"></path><path d="M291.87,192.15a31.45,31.45,0,0,1-.69,15.68" style="fill:none;stroke:#263238;stroke-linecap:round;stroke-linejoin:round"></path><path d="M212.07,222.87a9.33,9.33,0,0,1,8.05,1.87" style="fill:none;stroke:#263238;stroke-linecap:round;stroke-linejoin:round"></path><path d="M216.3,182.51a32.5,32.5,0,0,0-1.89,18.79" style="fill:none;stroke:#263238;stroke-linecap:round;stroke-linejoin:round"></path><path d="M259.5,317.16a1.41,1.41,0,0,0,1.1-.27,1.3,1.3,0,0,0,.53-.94,1.73,1.73,0,0,0-1.51-1.52,1.16,1.16,0,0,0-.95.56A1.46,1.46,0,0,0,259.5,317.16Z" style="fill:#92E3A9"></path><path d="M259.5,317.16a1.41,1.41,0,0,0,1.1-.27,1.3,1.3,0,0,0,.53-.94,1.73,1.73,0,0,0-1.51-1.52,1.16,1.16,0,0,0-.95.56A1.46,1.46,0,0,0,259.5,317.16Z" style="fill:#92E3A9"></path><path d="M215,185.35a21.34,21.34,0,0,0,1.32,19.44s-.4-4.28-.81-6.89c-.33-2.09.5-4.72.23-6.82C215.56,189.83,214.49,186.47,215,185.35Z" style="opacity:0.2"></path></g></svg>
