<svg xmlns="http://www.w3.org/2000/svg" viewBox="0 0 500 500"><g id="background-simple"><path d="M160.19,65.92S84.42,104.52,46.63,164,11.83,300,57.75,356.8s133.69,49.34,207.18,85.32,154.57,28.57,189.32-47.66S436.6,289.74,427.6,201.52,339.07-15.88,160.19,65.92Z" style="fill:#92E3A9"></path><path d="M160.19,65.92S84.42,104.52,46.63,164,11.83,300,57.75,356.8s133.69,49.34,207.18,85.32,154.57,28.57,189.32-47.66S436.6,289.74,427.6,201.52,339.07-15.88,160.19,65.92Z" style="fill:#fff;opacity:0.8"></path></g><g id="Floor"><ellipse cx="250.36" cy="457.66" rx="150.36" ry="9.85" style="fill:#92E3A9"></ellipse><ellipse cx="250.36" cy="457.66" rx="150.36" ry="9.85" style="fill:#fff;opacity:0.5"></ellipse></g><g id="Plants"><path d="M321.34,348.29c-2.48,6.11-5,1.19-4.61-24.43.19-12,1-36.55,14.31-31.15,12.77,5.19-4.05,41.47-4.05,41.47Zm18.24,3.63s27.69-28.85,17.31-37.91c-10.81-9.42-19.58,13.52-23.66,24.81-8.7,24.11-7.9,29.58-3.57,24.61Zm5.84,25.9s25.35-18.05,18.73-26.48c-6.9-8.77-16.93,7.5-21.69,15.54-10.14,17.17-10.32,21.48-6.29,18.3Zm6.87,25.82s25.35-18.05,18.72-26.48c-6.9-8.77-16.93,7.5-21.68,15.54C339.18,409.87,339,414.17,343,411ZM308,351.73s-35.47-18.47-41.24-6c-6,13,18.47,15,30.46,15.73,25.58,1.58,30.61-.73,24.61-3.49Zm5,20.32s-38.44-11-41.61,2.37c-3.29,13.95,21.09,11,33,9.36,25.39-3.54,29.85-6.81,23.43-8.32Zm8.8,22.16s-32.76-8.45-35.13,3c-2.47,11.88,18.08,8.84,28.1,7.16,21.39-3.58,25.09-6.45,19.62-7.57Zm5.12,18.3s-31.67-11.88-35.24-.79c-3.71,11.55,17,10.7,27.19,10.1,21.64-1.29,25.63-3.75,20.31-5.45Zm-21.21-92.68s-14.46-44.95-30.87-36.78c-17.09,8.49,2.65,28.76,12.53,38.46,21.07,20.71,27.58,22.16,24.81,14.93Z" style="fill:#92E3A9"></path><path d="M321.34,348.29c-2.48,6.11-5,1.19-4.61-24.43.19-12,1-36.55,14.31-31.15,12.77,5.19-4.05,41.47-4.05,41.47Zm18.24,3.63s27.69-28.85,17.31-37.91c-10.81-9.42-19.58,13.52-23.66,24.81-8.7,24.11-7.9,29.58-3.57,24.61Zm5.84,25.9s25.35-18.05,18.73-26.48c-6.9-8.77-16.93,7.5-21.69,15.54-10.14,17.17-10.32,21.48-6.29,18.3Zm6.87,25.82s25.35-18.05,18.72-26.48c-6.9-8.77-16.93,7.5-21.68,15.54C339.18,409.87,339,414.17,343,411ZM308,351.73s-35.47-18.47-41.24-6c-6,13,18.47,15,30.46,15.73,25.58,1.58,30.61-.73,24.61-3.49Zm5,20.32s-38.44-11-41.61,2.37c-3.29,13.95,21.09,11,33,9.36,25.39-3.54,29.85-6.81,23.43-8.32Zm8.8,22.16s-32.76-8.45-35.13,3c-2.47,11.88,18.08,8.84,28.1,7.16,21.39-3.58,25.09-6.45,19.62-7.57Zm5.12,18.3s-31.67-11.88-35.24-.79c-3.71,11.55,17,10.7,27.19,10.1,21.64-1.29,25.63-3.75,20.31-5.45Zm-21.21-92.68s-14.46-44.95-30.87-36.78c-17.09,8.49,2.65,28.76,12.53,38.46,21.07,20.71,27.58,22.16,24.81,14.93Z" style="fill:#fff;opacity:0.65"></path><path d="M281.71,299.06s36.32,44.31,45,66.5c10,25.48,16.63,54.84,18,78.62" style="fill:none;stroke:#ccc;stroke-linecap:round;stroke-linejoin:round;stroke-width:1.25197px"></path><line x1="319.49" y1="351.09" x2="324.55" y2="308.83" style="fill:none;stroke:#ccc;stroke-linecap:round;stroke-linejoin:round;stroke-width:1.25197px"></line><line x1="326.72" y1="365.56" x2="345" y2="330.04" style="fill:none;stroke:#ccc;stroke-linecap:round;stroke-linejoin:round;stroke-width:1.25197px"></line><line x1="324.06" y1="360.29" x2="285.79" y2="352.5" style="fill:none;stroke:#ccc;stroke-linecap:round;stroke-linejoin:round;stroke-width:1.25197px"></line><line x1="333.91" y1="385.71" x2="356.41" y2="360.08" style="fill:none;stroke:#ccc;stroke-linecap:round;stroke-linejoin:round;stroke-width:1.25197px"></line><line x1="330.77" y1="377.27" x2="301.88" y2="377.02" style="fill:none;stroke:#ccc;stroke-linecap:round;stroke-linejoin:round;stroke-width:1.25197px"></line><line x1="336.33" y1="398.24" x2="314.18" y2="399.12" style="fill:none;stroke:#ccc;stroke-linecap:round;stroke-linejoin:round;stroke-width:1.25197px"></line><line x1="340.88" y1="411.63" x2="352.75" y2="395.81" style="fill:none;stroke:#ccc;stroke-linecap:round;stroke-linejoin:round;stroke-width:1.25197px"></line><line x1="341.75" y1="417.51" x2="315.84" y2="416.22" style="fill:none;stroke:#ccc;stroke-linecap:round;stroke-linejoin:round;stroke-width:1.25197px"></line><path d="M391.2,383.29c-4.47,1.68-3.11-2.08,10.72-14.46,6.48-5.81,19.95-17.42,23.61-7.7,3.51,9.34-24,18.23-24,18.23Zm7,11.49s29,.54,28.67-9.43c-.3-10.38-16.81-3.77-24.82-.39-17.1,7.22-19.62,10.34-14.85,10.2Zm-10.9,15.83s22.06,4.62,23.28-3.05c1.28-8-12.3-5.32-18.92-3.9-14.12,3-16.5,5.07-12.83,5.65ZM377,427s22.06,4.62,23.28-3.05c1.28-8-12.31-5.32-18.92-3.89-14.12,3-16.5,5.06-12.83,5.64Zm5.85-49.06S375.2,349.94,365.71,353c-9.88,3.21,1.11,17.2,6.61,23.94,11.73,14.38,15.43,15.92,13.95,11.38Zm-8.36,12.65s-13-25.88-21.71-21c-9,5.1,4.5,16.63,11.23,22.14,14.36,11.76,18.3,12.54,15.94,8.38ZM367,406.11s-11.61-21.58-18.85-17.23c-7.52,4.53,4.2,14,10,18.46,12.42,9.62,15.76,10.18,13.68,6.72Zm-7.21,11.72s-9.26-22.69-16.91-19.13c-8,3.7,2.68,14.32,8,19.42,11.33,10.88,14.59,11.79,12.88,8.13ZM398.66,361s16.8-29.78,4.39-34.5c-12.92-4.91-14,15.55-14.31,25.57-.65,21.38,1.78,25.57,4.26,20.54Z" style="fill:#92E3A9"></path><path d="M391.2,383.29c-4.47,1.68-3.11-2.08,10.72-14.46,6.48-5.81,19.95-17.42,23.61-7.7,3.51,9.34-24,18.23-24,18.23Zm7,11.49s29,.54,28.67-9.43c-.3-10.38-16.81-3.77-24.82-.39-17.1,7.22-19.62,10.34-14.85,10.2Zm-10.9,15.83s22.06,4.62,23.28-3.05c1.28-8-12.3-5.32-18.92-3.9-14.12,3-16.5,5.07-12.83,5.65ZM377,427s22.06,4.62,23.28-3.05c1.28-8-12.31-5.32-18.92-3.89-14.12,3-16.5,5.06-12.83,5.64Zm5.85-49.06S375.2,349.94,365.71,353c-9.88,3.21,1.11,17.2,6.61,23.94,11.73,14.38,15.43,15.92,13.95,11.38Zm-8.36,12.65s-13-25.88-21.71-21c-9,5.1,4.5,16.63,11.23,22.14,14.36,11.76,18.3,12.54,15.94,8.38ZM367,406.11s-11.61-21.58-18.85-17.23c-7.52,4.53,4.2,14,10,18.46,12.42,9.62,15.76,10.18,13.68,6.72Zm-7.21,11.72s-9.26-22.69-16.91-19.13c-8,3.7,2.68,14.32,8,19.42,11.33,10.88,14.59,11.79,12.88,8.13ZM398.66,361s16.8-29.78,4.39-34.5c-12.92-4.91-14,15.55-14.31,25.57-.65,21.38,1.78,25.57,4.26,20.54Z" style="fill:#e5e5e5;opacity:0.65"></path><path d="M397.9,338s-5.72,41.1-13.24,56.63c-8.65,17.84-21,35.8-33,48.21" style="fill:none;stroke:#ccc;stroke-linecap:round;stroke-linejoin:round;stroke-width:1.25197px"></path><line x1="388.8" y1="383.68" x2="413.76" y2="365.6" style="fill:none;stroke:#ccc;stroke-linecap:round;stroke-linejoin:round;stroke-width:1.25197px"></line><line x1="384.66" y1="394.64" x2="412.53" y2="386.9" style="fill:none;stroke:#ccc;stroke-linecap:round;stroke-linejoin:round;stroke-width:1.25197px"></line><line x1="386.15" y1="390.63" x2="371.48" y2="366.45" style="fill:none;stroke:#ccc;stroke-linecap:round;stroke-linejoin:round;stroke-width:1.25197px"></line><line x1="377.47" y1="408.37" x2="402.16" y2="407.74" style="fill:none;stroke:#ccc;stroke-linecap:round;stroke-linejoin:round;stroke-width:1.25197px"></line><line x1="380.42" y1="402.55" x2="366.35" y2="387.06" style="fill:none;stroke:#ccc;stroke-linecap:round;stroke-linejoin:round;stroke-width:1.25197px"></line><line x1="371.99" y1="415.81" x2="360.64" y2="404.46" style="fill:none;stroke:#ccc;stroke-linecap:round;stroke-linejoin:round;stroke-width:1.25197px"></line><line x1="367.11" y1="424.82" x2="381.36" y2="423.35" style="fill:none;stroke:#ccc;stroke-linecap:round;stroke-linejoin:round;stroke-width:1.25197px"></line><line x1="364.41" y1="428.17" x2="352.36" y2="413.75" style="fill:none;stroke:#ccc;stroke-linecap:round;stroke-linejoin:round;stroke-width:1.25197px"></line><path d="M165.18,335.54c2.81,6.93,5.69,1.36,5.23-27.68-.21-13.6-1.17-41.41-16.22-35.29-14.46,5.88,4.6,47,4.6,47Zm-20.66,4.12s-31.37-32.69-19.61-43c12.25-10.68,22.18,15.31,26.8,28.11,9.86,27.31,8.95,33.51,4,27.87ZM137.9,369s-28.72-20.45-21.21-30c7.82-9.93,19.18,8.49,24.56,17.61,11.5,19.45,11.7,24.32,7.13,20.72Zm-7.77,29.25s-28.73-20.45-21.22-30c7.82-9.93,19.18,8.49,24.57,17.61,11.49,19.45,11.7,24.33,7.13,20.73Zm50.16-58.81s40.19-20.92,46.72-6.75c6.81,14.75-20.92,17-34.51,17.82-29,1.79-34.67-.83-27.88-3.95Zm-5.66,23s43.54-12.51,47.13,2.68c3.74,15.81-23.88,12.49-37.36,10.61-28.76-4-33.82-7.71-26.55-9.42Zm-10,25.11s37.11-9.57,39.8,3.36c2.79,13.45-20.49,10-31.85,8.1-24.22-4.06-28.42-7.3-22.23-8.58Zm-5.81,20.73s35.89-13.46,39.93-.89c4.2,13.08-19.31,12.12-30.8,11.44-24.52-1.46-29-4.25-23-6.17Zm24-105s16.38-50.92,35-41.67c19.36,9.62-3,32.59-14.2,43.58-23.87,23.45-31.25,25.1-28.11,16.91Z" style="fill:#92E3A9"></path><path d="M165.18,335.54c2.81,6.93,5.69,1.36,5.23-27.68-.21-13.6-1.17-41.41-16.22-35.29-14.46,5.88,4.6,47,4.6,47Zm-20.66,4.12s-31.37-32.69-19.61-43c12.25-10.68,22.18,15.31,26.8,28.11,9.86,27.31,8.95,33.51,4,27.87ZM137.9,369s-28.72-20.45-21.21-30c7.82-9.93,19.18,8.49,24.56,17.61,11.5,19.45,11.7,24.32,7.13,20.72Zm-7.77,29.25s-28.73-20.45-21.22-30c7.82-9.93,19.18,8.49,24.57,17.61,11.49,19.45,11.7,24.33,7.13,20.73Zm50.16-58.81s40.19-20.92,46.72-6.75c6.81,14.75-20.92,17-34.51,17.82-29,1.79-34.67-.83-27.88-3.95Zm-5.66,23s43.54-12.51,47.13,2.68c3.74,15.81-23.88,12.49-37.36,10.61-28.76-4-33.82-7.71-26.55-9.42Zm-10,25.11s37.11-9.57,39.8,3.36c2.79,13.45-20.49,10-31.85,8.1-24.22-4.06-28.42-7.3-22.23-8.58Zm-5.81,20.73s35.89-13.46,39.93-.89c4.2,13.08-19.31,12.12-30.8,11.44-24.52-1.46-29-4.25-23-6.17Zm24-105s16.38-50.92,35-41.67c19.36,9.62-3,32.59-14.2,43.58-23.87,23.45-31.25,25.1-28.11,16.91Z" style="fill:#fff;opacity:0.65"></path><path d="M210.08,279.77s-41.15,50.2-51,75.34c-11.32,28.87-18.84,62.13-20.37,89.07" style="fill:none;stroke:#ccc;stroke-linecap:round;stroke-linejoin:round;stroke-width:1.25197px"></path><line x1="167.28" y1="338.71" x2="161.55" y2="290.84" style="fill:none;stroke:#ccc;stroke-linecap:round;stroke-linejoin:round;stroke-width:1.25197px"></line><line x1="159.09" y1="355.11" x2="138.39" y2="314.87" style="fill:none;stroke:#ccc;stroke-linecap:round;stroke-linejoin:round;stroke-width:1.25197px"></line><line x1="162.11" y1="349.14" x2="205.46" y2="340.31" style="fill:none;stroke:#ccc;stroke-linecap:round;stroke-linejoin:round;stroke-width:1.25197px"></line><line x1="150.94" y1="377.94" x2="125.45" y2="348.9" style="fill:none;stroke:#ccc;stroke-linecap:round;stroke-linejoin:round;stroke-width:1.25197px"></line><line x1="154.5" y1="368.37" x2="187.23" y2="368.09" style="fill:none;stroke:#ccc;stroke-linecap:round;stroke-linejoin:round;stroke-width:1.25197px"></line><line x1="148.2" y1="392.13" x2="173.3" y2="393.13" style="fill:none;stroke:#ccc;stroke-linecap:round;stroke-linejoin:round;stroke-width:1.25197px"></line><line x1="143.05" y1="407.3" x2="129.6" y2="389.38" style="fill:none;stroke:#ccc;stroke-linecap:round;stroke-linejoin:round;stroke-width:1.25197px"></line><line x1="142.06" y1="413.96" x2="171.42" y2="412.5" style="fill:none;stroke:#ccc;stroke-linecap:round;stroke-linejoin:round;stroke-width:1.25197px"></line><path d="M86,375.19c5.07,1.91,3.52-2.35-12.15-16.38-7.34-6.58-22.6-19.73-26.74-8.72-4,10.58,27.25,20.65,27.25,20.65Zm-8,13s-32.81.62-32.48-10.68c.34-11.76,19-4.27,28.13-.44,19.37,8.18,22.22,11.71,16.81,11.55Zm12.36,17.94s-25,5.23-26.38-3.46c-1.45-9,13.94-6,21.44-4.41,16,3.44,18.69,5.73,14.53,6.39Zm11.74,18.51s-25,5.23-26.39-3.46c-1.44-9,14-6,21.44-4.41,16,3.45,18.69,5.74,14.53,6.4Zm-6.63-55.59s8.62-31.66,19.38-28.17c11.19,3.64-1.25,19.48-7.49,27.12-13.29,16.29-17.48,18-15.81,12.89ZM105,383.4s14.75-29.31,24.6-23.75c10.24,5.78-5.1,18.84-12.73,25.09-16.26,13.32-20.72,14.2-18.05,9.49Zm8.46,17.65s13.15-24.45,21.35-19.52c8.53,5.13-4.75,15.81-11.34,20.92C109.4,413.34,105.61,414,108,410.06Zm8.17,13.28s10.48-25.71,19.15-21.68c9,4.19-3,16.23-9.05,22C118.9,427,115.2,428,117.13,423.87Zm-44-64.4s-19-33.74-5-39.09c14.63-5.56,15.85,17.62,16.2,29,.75,24.22-2,29-4.82,23.26Z" style="fill:#92E3A9"></path><path d="M86,375.19c5.07,1.91,3.52-2.35-12.15-16.38-7.34-6.58-22.6-19.73-26.74-8.72-4,10.58,27.25,20.65,27.25,20.65Zm-8,13s-32.81.62-32.48-10.68c.34-11.76,19-4.27,28.13-.44,19.37,8.18,22.22,11.71,16.81,11.55Zm12.36,17.94s-25,5.23-26.38-3.46c-1.45-9,13.94-6,21.44-4.41,16,3.44,18.69,5.73,14.53,6.39Zm11.74,18.51s-25,5.23-26.39-3.46c-1.44-9,14-6,21.44-4.41,16,3.45,18.69,5.74,14.53,6.4Zm-6.63-55.59s8.62-31.66,19.38-28.17c11.19,3.64-1.25,19.48-7.49,27.12-13.29,16.29-17.48,18-15.81,12.89ZM105,383.4s14.75-29.31,24.6-23.75c10.24,5.78-5.1,18.84-12.73,25.09-16.26,13.32-20.72,14.2-18.05,9.49Zm8.46,17.65s13.15-24.45,21.35-19.52c8.53,5.13-4.75,15.81-11.34,20.92C109.4,413.34,105.61,414,108,410.06Zm8.17,13.28s10.48-25.71,19.15-21.68c9,4.19-3,16.23-9.05,22C118.9,427,115.2,428,117.13,423.87Zm-44-64.4s-19-33.74-5-39.09c14.63-5.56,15.85,17.62,16.2,29,.75,24.22-2,29-4.82,23.26Z" style="fill:#e5e5e5;opacity:0.65"></path><path d="M78.44,323.9s6.48,46.56,15,64.15c9.8,20.21,23.79,40.57,37.37,54.62" style="fill:none;stroke:#ccc;stroke-linecap:round;stroke-linejoin:round;stroke-width:1.25197px"></path><line x1="88.76" y1="375.64" x2="60.48" y2="355.15" style="fill:none;stroke:#ccc;stroke-linecap:round;stroke-linejoin:round;stroke-width:1.25197px"></line><line x1="93.45" y1="388.05" x2="61.87" y2="379.29" style="fill:none;stroke:#ccc;stroke-linecap:round;stroke-linejoin:round;stroke-width:1.25197px"></line><line x1="91.77" y1="383.52" x2="108.38" y2="356.11" style="fill:none;stroke:#ccc;stroke-linecap:round;stroke-linejoin:round;stroke-width:1.25197px"></line><line x1="101.59" y1="403.61" x2="73.62" y2="402.89" style="fill:none;stroke:#ccc;stroke-linecap:round;stroke-linejoin:round;stroke-width:1.25197px"></line><line x1="98.26" y1="397.01" x2="114.19" y2="379.47" style="fill:none;stroke:#ccc;stroke-linecap:round;stroke-linejoin:round;stroke-width:1.25197px"></line><line x1="107.8" y1="412.04" x2="120.66" y2="399.18" style="fill:none;stroke:#ccc;stroke-linecap:round;stroke-linejoin:round;stroke-width:1.25197px"></line><line x1="113.33" y1="422.24" x2="97.19" y2="420.58" style="fill:none;stroke:#ccc;stroke-linecap:round;stroke-linejoin:round;stroke-width:1.25197px"></line><line x1="116.39" y1="426.04" x2="130.04" y2="409.7" style="fill:none;stroke:#ccc;stroke-linecap:round;stroke-linejoin:round;stroke-width:1.25197px"></line><path d="M267.4,369c1.94,4.79,3.94.93,3.62-19.17-.15-9.42-.81-28.67-11.23-24.43-10,4.07,3.18,32.53,3.18,32.53Zm-14.31,2.85s-21.72-22.64-13.58-29.74c8.48-7.39,15.36,10.6,18.56,19.46,6.83,18.91,6.2,23.21,2.8,19.3Zm-4.58,20.31S228.62,378,233.82,371.35c5.41-6.88,13.28,5.88,17,12.19,8,13.47,8.1,16.85,4.94,14.35Zm-5.39,20.26s-19.88-14.16-14.68-20.77c5.41-6.88,13.28,5.88,17,12.19,8,13.47,8.1,16.84,4.93,14.35Zm34.74-40.73s27.82-14.48,32.35-4.67c4.71,10.22-14.49,11.76-23.89,12.34-20.07,1.24-24-.57-19.31-2.73Zm-3.92,16s30.15-8.67,32.63,1.85c2.59,10.95-16.53,8.65-25.87,7.35-19.91-2.78-23.41-5.34-18.38-6.52ZM267,405s25.69-6.63,27.55,2.33c1.94,9.31-14.18,6.92-22,5.61-16.77-2.81-19.68-5.06-15.39-5.94Zm-4,14.35s24.85-9.32,27.65-.61c2.91,9.06-13.37,8.39-21.33,7.92-17-1-20.1-2.94-15.93-4.27Zm16.64-72.7s11.35-35.26,24.22-28.85c13.41,6.66-2.08,22.56-9.83,30.17-16.52,16.24-21.64,17.38-19.46,11.71Z" style="fill:#92E3A9"></path><path d="M267.4,369c1.94,4.79,3.94.93,3.62-19.17-.15-9.42-.81-28.67-11.23-24.43-10,4.07,3.18,32.53,3.18,32.53Zm-14.31,2.85s-21.72-22.64-13.58-29.74c8.48-7.39,15.36,10.6,18.56,19.46,6.83,18.91,6.2,23.21,2.8,19.3Zm-4.58,20.31S228.62,378,233.82,371.35c5.41-6.88,13.28,5.88,17,12.19,8,13.47,8.1,16.85,4.94,14.35Zm-5.39,20.26s-19.88-14.16-14.68-20.77c5.41-6.88,13.28,5.88,17,12.19,8,13.47,8.1,16.84,4.93,14.35Zm34.74-40.73s27.82-14.48,32.35-4.67c4.71,10.22-14.49,11.76-23.89,12.34-20.07,1.24-24-.57-19.31-2.73Zm-3.92,16s30.15-8.67,32.63,1.85c2.59,10.95-16.53,8.65-25.87,7.35-19.91-2.78-23.41-5.34-18.38-6.52ZM267,405s25.69-6.63,27.55,2.33c1.94,9.31-14.18,6.92-22,5.61-16.77-2.81-19.68-5.06-15.39-5.94Zm-4,14.35s24.85-9.32,27.65-.61c2.91,9.06-13.37,8.39-21.33,7.92-17-1-20.1-2.94-15.93-4.27Zm16.64-72.7s11.35-35.26,24.22-28.85c13.41,6.66-2.08,22.56-9.83,30.17-16.52,16.24-21.64,17.38-19.46,11.71Z" style="fill:#fff;opacity:0.65"></path><path d="M298.49,330.34S270,365.1,263.18,382.5c-7.84,20-13.05,43-14.1,61.68" style="fill:none;stroke:#ccc;stroke-linecap:round;stroke-linejoin:round;stroke-width:1.25197px"></path><line x1="268.85" y1="371.15" x2="264.89" y2="338" style="fill:none;stroke:#ccc;stroke-linecap:round;stroke-linejoin:round;stroke-width:1.25197px"></line><line x1="263.18" y1="382.5" x2="248.84" y2="354.64" style="fill:none;stroke:#ccc;stroke-linecap:round;stroke-linejoin:round;stroke-width:1.25197px"></line><line x1="265.27" y1="378.37" x2="295.29" y2="372.26" style="fill:none;stroke:#ccc;stroke-linecap:round;stroke-linejoin:round;stroke-width:1.25197px"></line><line x1="257.54" y1="398.31" x2="239.89" y2="378.21" style="fill:none;stroke:#ccc;stroke-linecap:round;stroke-linejoin:round;stroke-width:1.25197px"></line><line x1="260" y1="391.69" x2="282.66" y2="391.49" style="fill:none;stroke:#ccc;stroke-linecap:round;stroke-linejoin:round;stroke-width:1.25197px"></line><line x1="255.64" y1="408.14" x2="273.02" y2="408.83" style="fill:none;stroke:#ccc;stroke-linecap:round;stroke-linejoin:round;stroke-width:1.25197px"></line><line x1="252.07" y1="418.64" x2="242.76" y2="406.24" style="fill:none;stroke:#ccc;stroke-linecap:round;stroke-linejoin:round;stroke-width:1.25197px"></line><line x1="251.39" y1="423.26" x2="271.72" y2="422.24" style="fill:none;stroke:#ccc;stroke-linecap:round;stroke-linejoin:round;stroke-width:1.25197px"></line><path d="M212.6,396.41c3.51,1.33,2.43-1.63-8.41-11.34-5.09-4.56-15.65-13.67-18.52-6-2.76,7.33,18.87,14.3,18.87,14.3Zm-5.52,9s-22.72.42-22.49-7.4c.24-8.14,13.19-3,19.48-.31,13.41,5.67,15.38,8.12,11.64,8Zm8.56,12.42s-17.31,3.62-18.27-2.4c-1-6.26,9.65-4.17,14.84-3.05,11.08,2.38,12.95,4,10.07,4.42Zm8.12,12.82s-17.3,3.62-18.26-2.4c-1-6.26,9.65-4.17,14.84-3,11.08,2.38,12.94,4,10.06,4.42Zm-4.59-38.49s6-21.93,13.42-19.51c7.75,2.52-.86,13.49-5.18,18.78-9.2,11.28-12.11,12.48-10.95,8.92Zm6.56,9.92s10.21-20.3,17-16.45c7.09,4-3.53,13.05-8.81,17.37-11.27,9.23-14.35,9.83-12.5,6.57Zm5.85,12.21s9.11-16.92,14.79-13.51c5.9,3.55-3.29,10.95-7.86,14.48-9.74,7.55-12.36,8-10.72,5.27Zm5.66,9.2s7.26-17.8,13.26-15c6.25,2.9-2.1,11.24-6.27,15.24-8.88,8.53-11.44,9.25-10.1,6.37Zm-30.49-44.59s-13.18-23.36-3.45-27.07c10.14-3.85,11,12.2,11.22,20.07.52,16.77-1.39,20.05-3.33,16.11Z" style="fill:#92E3A9"></path><path d="M212.6,396.41c3.51,1.33,2.43-1.63-8.41-11.34-5.09-4.56-15.65-13.67-18.52-6-2.76,7.33,18.87,14.3,18.87,14.3Zm-5.52,9s-22.72.42-22.49-7.4c.24-8.14,13.19-3,19.48-.31,13.41,5.67,15.38,8.12,11.64,8Zm8.56,12.42s-17.31,3.62-18.27-2.4c-1-6.26,9.65-4.17,14.84-3.05,11.08,2.38,12.95,4,10.07,4.42Zm8.12,12.82s-17.3,3.62-18.26-2.4c-1-6.26,9.65-4.17,14.84-3,11.08,2.38,12.94,4,10.06,4.42Zm-4.59-38.49s6-21.93,13.42-19.51c7.75,2.52-.86,13.49-5.18,18.78-9.2,11.28-12.11,12.48-10.95,8.92Zm6.56,9.92s10.21-20.3,17-16.45c7.09,4-3.53,13.05-8.81,17.37-11.27,9.23-14.35,9.83-12.5,6.57Zm5.85,12.21s9.11-16.92,14.79-13.51c5.9,3.55-3.29,10.95-7.86,14.48-9.74,7.55-12.36,8-10.72,5.27Zm5.66,9.2s7.26-17.8,13.26-15c6.25,2.9-2.1,11.24-6.27,15.24-8.88,8.53-11.44,9.25-10.1,6.37Zm-30.49-44.59s-13.18-23.36-3.45-27.07c10.14-3.85,11,12.2,11.22,20.07.52,16.77-1.39,20.05-3.33,16.11Z" style="fill:#e5e5e5;opacity:0.65"></path><path d="M207.34,360.9s4.49,32.24,10.39,44.42c6.79,14,16.48,28.08,25.88,37.81" style="fill:none;stroke:#ccc;stroke-linecap:round;stroke-linejoin:round;stroke-width:1.25197px"></path><line x1="214.48" y1="396.72" x2="194.9" y2="382.53" style="fill:none;stroke:#ccc;stroke-linecap:round;stroke-linejoin:round;stroke-width:1.25197px"></line><line x1="217.73" y1="405.32" x2="195.86" y2="399.25" style="fill:none;stroke:#ccc;stroke-linecap:round;stroke-linejoin:round;stroke-width:1.25197px"></line><line x1="216.56" y1="402.17" x2="228.07" y2="383.2" style="fill:none;stroke:#ccc;stroke-linecap:round;stroke-linejoin:round;stroke-width:1.25197px"></line><line x1="223.37" y1="416.09" x2="204" y2="415.59" style="fill:none;stroke:#ccc;stroke-linecap:round;stroke-linejoin:round;stroke-width:1.25197px"></line><line x1="221.06" y1="411.52" x2="232.09" y2="399.37" style="fill:none;stroke:#ccc;stroke-linecap:round;stroke-linejoin:round;stroke-width:1.25197px"></line><line x1="227.66" y1="421.93" x2="236.57" y2="413.02" style="fill:none;stroke:#ccc;stroke-linecap:round;stroke-linejoin:round;stroke-width:1.25197px"></line><line x1="231.49" y1="428.99" x2="220.32" y2="427.84" style="fill:none;stroke:#ccc;stroke-linecap:round;stroke-linejoin:round;stroke-width:1.25197px"></line><line x1="233.61" y1="431.62" x2="243.07" y2="420.31" style="fill:none;stroke:#ccc;stroke-linecap:round;stroke-linejoin:round;stroke-width:1.25197px"></line></g><g id="Clouds"><path d="M408.47,77.63s.6-21.56-20.62-24.74-25.53,12-31.37,16.25-6.89-8.49-20.16-3.71S328.37,80.81,322,84.53s-8.63-6.13-18.57-4.78-7.87,12-12.2,14.32-9.16-.18-17.57-.88-9.66,9-9.66,9H432.87s4.25-15-4.24-20.33S410.59,80.81,408.47,77.63Z" style="fill:none;stroke:#828282;stroke-linecap:round;stroke-linejoin:round"></path><path d="M429.7,139.62s4.45-12-7.45-13.74-18.43,6.6-21.7,9-3.87-4.76-11.31-2.08-4.46,8.63-8,10.71-4.84-3.44-10.41-2.68-4.41,6.74-6.84,8-5.13-.1-9.85-.5-5.42,5.06-5.42,5.06h94.69S445.76,145,441,142,430.89,141.41,429.7,139.62Z" style="fill:none;stroke:#828282;stroke-linecap:round;stroke-linejoin:round"></path><path d="M127.7,209.62s4.45-12-7.45-13.74-18.43,6.6-21.7,9-3.87-4.76-11.31-2.08-4.46,8.63-8,10.71-4.84-3.44-10.41-2.68-4.41,6.74-6.84,8-5.13-.1-9.85-.5-5.42,5.06-5.42,5.06h94.69S143.76,215,139,212,128.89,211.41,127.7,209.62Z" style="fill:none;stroke:#828282;stroke-linecap:round;stroke-linejoin:round"></path></g><g id="character-2"><line x1="246.84" y1="199.42" x2="140.07" y2="146.9" style="fill:none;stroke:#263238;stroke-linecap:round;stroke-linejoin:round"></line><polyline points="165.33 151.29 248.19 199.69 171.92 140.86" style="fill:none;stroke:#263238;stroke-linecap:round;stroke-linejoin:round"></polyline><polyline points="200.48 133.17 248.19 199.69 229.58 134.27" style="fill:none;stroke:#263238;stroke-linecap:round;stroke-linejoin:round"></polyline><polyline points="252.65 126.58 248.19 199.69 273.52 138.11" style="fill:none;stroke:#263238;stroke-linecap:round;stroke-linejoin:round"></polyline><polyline points="164.78 176 244.41 199.43 154.1 160.7" style="fill:none;stroke:#263238;stroke-linecap:round;stroke-linejoin:round"></polyline><polyline points="167.1 122.22 246.84 199.43 244.57 112.87" style="fill:none;stroke:#263238;stroke-linecap:round;stroke-linejoin:round"></polyline><line x1="246.13" y1="197.1" x2="208.69" y2="118.59" style="fill:none;stroke:#263238;stroke-linecap:round;stroke-linejoin:round"></line><path d="M265.8,47.67c.3,13.64-10.29,36.15-23.93,36.45s-25.51-21.74-25.48-35.39c0-17.66,10.47-27.85,24.12-28.14S265.44,30.85,265.8,47.67Z" style="fill:#263238;stroke:#263238;stroke-linecap:round;stroke-linejoin:round"></path><path d="M257.16,34.47c1.38,3.62-.11,7.55-3.33,8.78s-7-.71-8.33-4.33.11-7.56,3.33-8.78S255.78,30.85,257.16,34.47Z" style="fill:#696969"></path><path d="M307.54,83.56c-2.87,13.34-18.37,32.79-31.71,29.92s-19.79-27-16.61-40.31c4.11-17.17,16.62-24.68,30-21.81S311.07,67.11,307.54,83.56Z" style="fill:#92E3A9;stroke:#263238;stroke-linecap:round;stroke-linejoin:round"></path><path d="M302.91,69.05c1.39,3.62-.1,7.55-3.32,8.78s-6.95-.71-8.34-4.34.11-7.55,3.33-8.78S301.53,65.42,302.91,69.05Z" style="fill:#fff"></path><path d="M217.32,101.58c5.43,12.52,4.16,37.36-8.36,42.79s-31.84-10.47-37-23.11c-6.65-16.36-.85-29.74,11.67-35.18S210.62,86.15,217.32,101.58Z" style="fill:#92E3A9;stroke:#263238;stroke-linecap:round;stroke-linejoin:round"></path><path d="M237.61,68.34c3.75,13.12-.78,37.58-13.9,41.32S193.52,95.11,190.09,81.9c-4.45-17.09,3.06-29.59,16.18-33.34S233,52.16,237.61,68.34Z" style="fill:#92E3A9;stroke:#263238;stroke-linecap:round;stroke-linejoin:round"></path><path d="M231.16,61.77c1.38,3.62-.11,7.55-3.33,8.78s-7-.71-8.33-4.33.11-7.56,3.33-8.79S229.78,58.15,231.16,61.77Z" style="fill:#fff"></path><path d="M141.64,70.37c10,9.32,18.69,32.62,9.37,42.59s-33.37,3.07-43.12-6.49c-12.61-12.35-12.62-26.94-3.3-36.91S129.36,58.88,141.64,70.37Z" style="fill:#92E3A9;stroke:#263238;stroke-linecap:round;stroke-linejoin:round"></path><path d="M209.07,46.55c3.74,13.12-.78,37.58-13.91,41.33S165,73.32,161.54,60.11C157.1,43,164.6,30.52,177.72,26.77S204.45,30.38,209.07,46.55Z" style="fill:#92E3A9;stroke:#263238;stroke-linecap:round;stroke-linejoin:round"></path><path d="M201.53,38.63c1.38,3.62-.11,7.55-3.33,8.78s-6.95-.71-8.33-4.33.1-7.56,3.32-8.78S200.14,35,201.53,38.63Z" style="fill:#fff"></path><path d="M177.65,70.62c7.19,11.6,9.52,36.36-2.08,43.55s-33-5.75-39.93-17.52c-8.94-15.22-5.14-29.3,6.46-36.49S168.79,56.32,177.65,70.62Z" style="fill:#263238;stroke:#263238;stroke-linecap:round;stroke-linejoin:round"></path><path d="M165.13,67.75c1.38,3.62-.11,7.55-3.33,8.78s-7-.71-8.33-4.34.11-7.55,3.33-8.78S163.75,64.12,165.13,67.75Z" style="fill:#696969"></path><path d="M249.88,104c2.56,13.41-4.14,37.36-17.54,39.92s-28.77-17.2-31-30.66c-2.9-17.42,5.7-29.2,19.1-31.76S246.73,87.44,249.88,104Z" style="fill:#263238;stroke:#263238;stroke-linecap:round;stroke-linejoin:round"></path><path d="M206.42,81c5.28,12.59,3.68,37.41-8.9,42.68s-31.7-10.87-36.68-23.58c-6.44-16.44-.47-29.75,12.12-35S199.92,65.45,206.42,81Z" style="fill:#92E3A9;stroke:#263238;stroke-linecap:round;stroke-linejoin:round"></path><path d="M195.29,75c1.38,3.62-.11,7.55-3.33,8.78s-7-.71-8.33-4.34.1-7.55,3.32-8.78S193.9,71.4,195.29,75Z" style="fill:#fff"></path><path d="M148,108.85c10.76,8.4,21.51,30.83,13.11,41.58s-33,6-43.52-2.63c-13.66-11.19-15-25.71-6.56-36.47S134.76,98.5,148,108.85Z" style="fill:#92E3A9;stroke:#263238;stroke-linecap:round;stroke-linejoin:round"></path><path d="M144.38,143c12.84,4.61,30.06,22.57,25.44,35.41s-29.44,16-42.17,11.09c-16.46-6.36-22.24-19.76-17.62-32.6S128.55,137.26,144.38,143Z" style="fill:#263238;stroke:#263238;stroke-linecap:round;stroke-linejoin:round"></path><path d="M136.7,153.39c3.25,2.11,4.37,6.17,2.49,9.06s-6,3.51-9.29,1.4-4.36-6.17-2.48-9.06S133.46,151.28,136.7,153.39Z" style="fill:#696969"></path><path d="M280.08,96.44c-.73,13.63-13,35.28-26.6,34.55s-23.8-23.6-22.75-37.2c1.36-17.61,12.53-27,26.16-26.26S281,79.64,280.08,96.44Z" style="fill:#92E3A9;stroke:#263238;stroke-linecap:round;stroke-linejoin:round"></path><path d="M270.68,81c1.38,3.62-.11,7.55-3.33,8.78s-7-.71-8.33-4.34.11-7.55,3.33-8.78S269.3,77.38,270.68,81Z" style="fill:#fff"></path><path d="M305.68,126.44c-5.16,12.63-23.83,29.07-36.46,23.91s-14.75-30.09-9.3-42.6c7.06-16.18,20.69-21.39,33.32-16.22S312,110.87,305.68,126.44Z" style="fill:#263238;stroke:#263238;stroke-linecap:round;stroke-linejoin:round"></path><path d="M301.87,108.3c1.39,3.62-.1,7.56-3.32,8.78s-6.95-.71-8.34-4.33.11-7.55,3.33-8.78S300.49,104.68,301.87,108.3Z" style="fill:#696969"></path><path d="M168.6,105.82c10.76,8.4,21.51,30.83,13.11,41.59s-33,6-43.53-2.63c-13.65-11.19-15-25.72-6.56-36.48S155.34,95.47,168.6,105.82Z" style="fill:#92E3A9;stroke:#263238;stroke-linecap:round;stroke-linejoin:round"></path><path d="M162.55,107.6c2.47,3,2.32,7.19-.34,9.38s-6.82,1.55-9.28-1.44-2.32-7.2.34-9.39S160.09,104.6,162.55,107.6Z" style="fill:#fff"></path><path d="M277,241.67l-15.78-29.9s-4.4-7.6-6.45-9.07-7.9-.73-8.6-.76-2.23,10.88.25,13.3,10.06,5.93,10.06,5.93l6.81,26.33a15.55,15.55,0,0,0,6.89,3C274.53,251.38,278.44,245.92,277,241.67Z" style="fill:#fff;stroke:#263238;stroke-linecap:round;stroke-linejoin:round"></path><path d="M287.14,250.64l-3-.1s1-1.14-1.31-2.61a27.15,27.15,0,0,0-3.43-2L277,241.67s-5.11,6.59-13.71,5.83a74.56,74.56,0,0,1,2.54,7.55c.19,1.4-1.8,5.07-.67,6s3,2,3.18,2.67.76,5.15,2.13,5.9l5.49,3s3.09,5.23,7.73,5.85,9.22-3.65,9.22-3.65l-3-23.18Z" style="fill:#92E3A9;stroke:#263238;stroke-linecap:round;stroke-linejoin:round"></path><path d="M241.85,199.44s-.62,2.6.76,3.17,6.24,1.43,7.47.95,1-3.46,0-3.84-6.61-.57-6.61-.57Z" style="fill:#fff;stroke:#263238;stroke-linecap:round;stroke-linejoin:round"></path><path d="M261.1,213.18s-1.3-7.9-2.81-9.87a29.19,29.19,0,0,0-5.05-5.4c-2-1.64-2.25-5.67-4.42-3.64s-.23,7,.79,7.88l2.88,2.54s-.57,6.43,2.84,9" style="fill:#fff;stroke:#263238;stroke-linecap:round;stroke-linejoin:round"></path><path d="M243.23,212.69s0,2.14,1.19,2.33,5.14-.05,6-.66.12-2.89-.76-3a39,39,0,0,0-5.27.79Z" style="fill:#fff;stroke:#263238;stroke-linecap:round;stroke-linejoin:round"></path><path d="M241.67,208.13s-.42,2.45,1,2.89,6.2.9,7.38.37.73-3.27-.31-3.56a50.13,50.13,0,0,0-6.5-.08Z" style="fill:#fff;stroke:#263238;stroke-linecap:round;stroke-linejoin:round"></path><path d="M241.33,204.53s-.42,2.45,1,2.89,6.19.9,7.37.37.73-3.27-.31-3.56a52,52,0,0,0-6.5-.08Z" style="fill:#fff;stroke:#263238;stroke-linecap:round;stroke-linejoin:round"></path><path d="M287.17,306.59s2.72,47.54,5.58,63.35a226.42,226.42,0,0,0,7.32,29.82C301.19,403.19,305,428,305,428a2.52,2.52,0,0,0-2.24,2.39c-.07,2.16,1.43,3.13,1.39,4.36a16.7,16.7,0,0,0,.51,3.41l-3.38,8.82s-16.51,5.3-16,8.09,11.89,3.79,11.89,3.79-2.53,2.07,3,3.18,17.21,1.19,21.89-.5,3.73-1.1,7.13-1.3,4.36-1.39,4.86-7.23a68.46,68.46,0,0,0-.21-12l-1.19-1.28s2.87-3,3.56-5.11-1.37-5-1.37-5a12.14,12.14,0,0,0,1.37-4.27l.1-2.77a96.83,96.83,0,0,0-1.16-20.68c-1.83-9.61-3.85-13.69-3.85-13.69s.44-4,.52-6.45a6.5,6.5,0,0,0-.5-3.4l-1.06-5s3.33-25.77,4.08-29.75,3.08-18.38,3.08-18.38a34,34,0,0,0,.82-15.38c-1.58-8.06-45.4-5.84-46.32-6.18S287.57,303.83,287.17,306.59Z" style="fill:#263238;stroke:#263238;stroke-linecap:round;stroke-linejoin:round"></path><path d="M302.51,327.13s4.56,47.6,6.71,56.92,4.79,22.65,5,25.12,3.11,17.67,3.11,17.67-.4,2.76-.47,4.91a4.38,4.38,0,0,0,1.73,3.45s-3.43,1.12-2.26,3l1.17,1.89s3.9,3.21,16.3.86" style="fill:none;stroke:#7d7d7d;stroke-linecap:round;stroke-linejoin:round"></path><path d="M316.84,439.93a20.82,20.82,0,0,1-4.86-.5c-2.42-.48-6-1.12-7.35-1.35v0l-3.38,8.82s-16.51,5.3-16,8.09,11.89,3.79,11.89,3.79l-.1.1c1.32,0,2.49.08,3.32.14,3.23.25,14-.87,16.37-1.47s1.38-1,1.49-4.32.74-12.09.74-12.09Z" style="fill:#616161;stroke:#263238;stroke-linecap:round;stroke-linejoin:round"></path><path d="M334,453a68.8,68.8,0,0,0-.18-11.74c-3,.36-10.8,1-16.18-.6,0,0-1.84-.39-1.89,1.12s-.77,7.88-.77,7.88-12.5,6.48-14.88,7.41a6.69,6.69,0,0,0-3.28,2.41,1,1,0,0,0-.2.13c-.23.71.13,1.74,3.5,2.42,5.51,1.11,17.21,1.19,21.89-.5s3.73-1.1,7.13-1.3S333.52,458.81,334,453Z" style="fill:#616161;stroke:#263238;stroke-linecap:round;stroke-linejoin:round"></path><path d="M306.32,211.1s-12.76,8.35-16.73,23.47-3.79,23.44-3.86,25.52,1.07,37,1,38.85-.27,7.85-.32,9.47,13.52,10.39,26.67,10.83,24.8-2.17,25.76-3.06,1.83-27,2.38-36.67,10.18-41.71,9.25-48.21-7-12-13.56-16.17a34.14,34.14,0,0,0-18.29-5.93A27.81,27.81,0,0,0,306.32,211.1Z" style="fill:#fff;stroke:#263238;stroke-linecap:round;stroke-linejoin:round"></path><path d="M341.72,275.55c2.07-12.48,9.59-38.47,8.76-44.25-.94-6.5-7-12-13.56-16.17a34.14,34.14,0,0,0-18.29-5.93,27.81,27.81,0,0,0-12.31,1.9s-11.43,7.49-16,21.12c5.27-3.93,14.13-10.43,18.29-13,6.13-3.72,21.75,33.55,27.61,45.06C338.4,268.66,340.09,272.55,341.72,275.55Z" style="fill:#92E3A9;stroke:#263238;stroke-linecap:round;stroke-linejoin:round"></path><path d="M330.17,211.57a35.25,35.25,0,0,0-11.54-2.37,28.37,28.37,0,0,0-11.91,1.73,15.4,15.4,0,0,0-.94,2.69,26.79,26.79,0,0,0-2.92,11.23c-.22,6.46-.13,10.62,2.68,9.56s17.19-16.52,20.3-19.65C327.51,213.08,329.26,212.34,330.17,211.57Z" style="fill:#fff;stroke:#263238;stroke-linecap:round;stroke-linejoin:round"></path><path d="M302.57,205.89s2.24,8.85,2.07,13.93.13,10.17,1.74,10.23,17.69-17.66,18.22-19.49-2.78-13.5-2.76-14.19-3-7.73-8.09-6.75S302.57,205.89,302.57,205.89Z" style="fill:#fff;stroke:#263238;stroke-linecap:round;stroke-linejoin:round"></path><path d="M284.67,172.68s-1.13,7.75-.32,9.29a8.18,8.18,0,0,1,1.09,6.3c-.55,3.45-2.72,3.81-1.91,5.35s5.11,2.33,5.11,2.33,4.63,10.32,5.88,11.88,3.62,1.63,5.58,1,11.25-6.54,12.87-9.52,2.6-6.61,3.27-7.46-2.67-10.47-7.25-15.81-14.37-10-17.65-8.81S285.43,169.24,284.67,172.68Z" style="fill:#fff;stroke:#263238;stroke-linecap:round;stroke-linejoin:round"></path><path d="M292.91,197.61a6.52,6.52,0,0,0,5.94-2.83" style="fill:none;stroke:#263238;stroke-linecap:round;stroke-linejoin:round"></path><path d="M292.21,186.17c.29,1.11.14,2.12-.33,2.24s-1.09-.68-1.38-1.8-.14-2.11.33-2.24S291.92,185.05,292.21,186.17Z" style="fill:#263238"></path><path d="M288.08,182.49s1.25-3.1,4.87-1.41" style="fill:none;stroke:#263238;stroke-linecap:round;stroke-linejoin:round"></path><path d="M287.54,158.07a8.38,8.38,0,0,0-8.08,2.11c-3.58,3.55-1.81,9,.76,9.75s5.17.61,3.6,2.07-2,3,2.65,4.85,7.06-4.09,8.07-1.89.55,2.83,2.91,3.34a21.64,21.64,0,0,0,3.45.54,2.7,2.7,0,0,0,.1,3.47c1.44,2,4.06,1.22,3.8,2.72s-2.14,5.77.82,7.6,7.81-.6,7.31,1.32-2.53,4.68,0,5.41a25.79,25.79,0,0,0,6.9.45s-1.42,3.63,2.53,2,6.38-3.24,6.45-5.4-1.85-2.66-.09-3.68,6.32-1.52,6.93-6.69-1.07-6.74-1-8,2.68-2.5,2-7.72-5.57-8-5.57-8a14.66,14.66,0,0,0-5-6.65c-3.59-2.5-5.75-2.58-7.05-2.62s-4.37-5.12-11.34-3.62-8.34,3.82-8.34,3.82S291.71,149.56,287.54,158.07Z" style="fill:#263238;stroke:#263238;stroke-linecap:round;stroke-linejoin:round"></path><path d="M329.21,238.44l1.44,32.63s-2.6,2-1.5,3.42a7.77,7.77,0,0,1,1.32,2.12s-3.28,1.28-3.33,2.89S327,283,327,283l-6.43,12.49L331,302.74s12.87-11.58,15.24-13.35A7.09,7.09,0,0,0,349,283.7c0-1.38.51-1.6,2.16-2.47s.61-4.37.61-4.37.23,0,.77-2.28a8.11,8.11,0,0,0-.54-4.64s1.46-15.9,1.72-23.52,1.36-13.12-.8-17.58-7.39-7.19-9.46-7.25" style="fill:#92E3A9;stroke:#263238;stroke-linecap:round;stroke-linejoin:round"></path><path d="M320.59,295.46s-17.31,26.92-19.49,30.08-4.08,4.48-3.47,6.82,0,7.62.85,9.27,3.8,3.82,4.72,3.85l6.23.21s1.18-.65,1-1.58-1.22-4.9-1.22-4.9l.81-10.37,21-26.1Z" style="fill:#fff;stroke:#263238;stroke-linecap:round;stroke-linejoin:round"></path><path d="M300.14,332.8s0,8.56.47,9.1,4,3.77,4,3.77" style="fill:none;stroke:#263238;stroke-linecap:round;stroke-linejoin:round"></path><path d="M303.37,333.3s.62,8.58,1,8.85,3,3.22,3,3.22" style="fill:none;stroke:#263238;stroke-linecap:round;stroke-linejoin:round"></path><path d="M306.87,333.29s-.67,8.54.08,9.21a27.88,27.88,0,0,1,2.48,3.19" style="fill:none;stroke:#263238;stroke-linecap:round;stroke-linejoin:round"></path></g><g id="character-1"><path d="M232,404.82s-3.46,25.55-3.37,30.64a76.76,76.76,0,0,1-.49,9.69s14.09,8.47,16.6,9.69,5,1.75,3.84,3.34-11.83,1.76-16,1.65-7.13-1.12-11.05-1.23-7.21,1.43-7.31-3.43,1.64-17.74.87-23.31-3.6-12.34-3.88-19.05-.67-9.26-.67-9.26Z" style="fill:#adadad;stroke:#263238;stroke-linecap:round;stroke-linejoin:round"></path><path d="M244.7,454.84c-2.51-1.22-16.6-9.69-16.6-9.69s-2.3-.52-2.35,1.32a17.09,17.09,0,0,1-.31,3,24.47,24.47,0,0,1-6.92-.42c-1.35-.35-2.78-.79-4-1.18-.22,3-.41,5.62-.38,7.3.1,4.86,3.38,3.33,7.31,3.43s6.9,1.11,11.05,1.23,14.79-.07,16-1.65S247.21,456.06,244.7,454.84Z" style="fill:#fff;stroke:#263238;stroke-linecap:round;stroke-linejoin:round"></path><path d="M234.1,402.57s-3.95,9.13-3.51,10.07,2.92,3.31,3.7-.13S234.1,402.57,234.1,402.57Z" style="fill:#92E3A9;stroke:#263238;stroke-linecap:round;stroke-linejoin:round"></path><path d="M234.1,402.57s.43,9.71,1.8,10.21,3.21,1,2.16-2.94A20.68,20.68,0,0,0,234.1,402.57Z" style="fill:#92E3A9;stroke:#263238;stroke-linecap:round;stroke-linejoin:round"></path><path d="M170.18,399.46s.54,14.57,2.16,22.7.87,27.75.87,27.75-8.75,7.61-8.66,12.93,6.78,5.5,10.08,3.05,4-4.05,5.75-7.47,2.25-6.41,3.06-10.78,5.54-25.5,6.15-31,1.52-13.59,1.54-14.29S170.18,399.46,170.18,399.46Z" style="fill:#adadad;stroke:#263238;stroke-linecap:round;stroke-linejoin:round"></path><path d="M180,453.56s.11-3.93-2.17-5.15-4.66,1.5-4.66,1.5-8.75,7.61-8.66,12.93,6.78,5.5,10.08,3.05,4-4.05,5.75-7.47a30.09,30.09,0,0,0,2.53-8A16.69,16.69,0,0,1,180,453.56Z" style="fill:#fff;stroke:#263238;stroke-linecap:round;stroke-linejoin:round"></path><path d="M220.21,271s5,11.16,9.68,15.48,7,4.23,9,1.49,1.46-14.1-1.45-21.32a66.34,66.34,0,0,0-6.5-12.3s-8.61,2.57-11.17,5S218.56,268.61,220.21,271Z" style="fill:#adadad;stroke:#263238;stroke-linecap:round;stroke-linejoin:round"></path><path d="M177.93,232.47s-17.21,9.7-21,14.84S152.21,261,152.21,261l17.3,9.4,5.43,15.86-3.62,19.62s-4.64,12.19-5.53,22.34,1,21,2,30.24,4.47,16.75,4.4,19.52-4.6,22.06-4.6,22.06a61.9,61.9,0,0,0,11.9,4c6.44,1.4,16.6,1.37,16.6,1.37l-.26-24.34,7.27-30s5.15,26.33,5.69,29.11-1.61,25.22-1.61,25.22a86.47,86.47,0,0,0,15.66,2c8.31.23,13.31-2.41,13.31-2.41l-3.71-22.28s5.37-27.89,2.54-48.29-8.71-31-8.71-31-4.1-19.52-4.67-21.08.56-20.62.56-20.62l10.94-6.18s.73-4-4.66-9.67-25.23-12.7-27.07-13S184.27,225.87,177.93,232.47Z" style="fill:#92E3A9;stroke:#263238;stroke-linecap:round;stroke-linejoin:round"></path><path d="M203.06,351.13l2.35-15.64s-2.63-5.16-4.2-6.82" style="fill:none;stroke:#263238;stroke-linecap:round;stroke-linejoin:round"></path><path d="M209.25,330.28a88.86,88.86,0,0,0,8.56-9" style="fill:none;stroke:#263238;stroke-linecap:round;stroke-linejoin:round"></path><path d="M206.65,305.76a.79.79,0,0,1-1.58,0,.79.79,0,1,1,1.58,0Z" style="fill:none;stroke:#263238;stroke-linecap:round;stroke-linejoin:round"></path><path d="M206.9,309.64a.8.8,0,1,1-.77-.81A.79.79,0,0,1,206.9,309.64Z" style="fill:none;stroke:#263238;stroke-linecap:round;stroke-linejoin:round"></path><path d="M172.15,304.74s.84,1.43,15.35,5.7" style="fill:none;stroke:#263238;stroke-linecap:round;stroke-linejoin:round"></path><path d="M225.71,304.42s-4.28,2.18-10.52,4.65" style="fill:none;stroke:#263238;stroke-linecap:round;stroke-linejoin:round"></path><path d="M143.29,354.51s2.53,3.57,3.85,3.28.5-2.07-.14-2.85a16.69,16.69,0,0,1-1.05-1.45,23.11,23.11,0,0,0,3.9,1.42c.76,0,1.76-.5.7-1.63a8.32,8.32,0,0,0-3.57-1.62s3.94.21,4.5-.43.58-1.41-.73-1.33-3.62.12-3.62.12.28-2.18-.26-2.42-2.05-1-3.11,1.56A8.45,8.45,0,0,0,143.29,354.51Z" style="fill:#adadad;stroke:#263238;stroke-linecap:round;stroke-linejoin:round"></path><path d="M153.18,259.22S152,290.61,152,292.15s-1.1,29.54-1.2,33.24-2.23,14.11-2.23,14.11-8.21,7.17-8.26,9a49.66,49.66,0,0,0,1,7.73c.27,1.24,2.38,2.84,3.34,1.63s-.86-2.18-.86-2.18l.42-4.3,2.24-3a9.36,9.36,0,0,0,6.3-5.06c2-4.26,12.66-35.4,12.91-44.63s.42-15.7.46-17.24,1.72-18.13,1.72-18.13Z" style="fill:#adadad;stroke:#263238;stroke-linecap:round;stroke-linejoin:round"></path><path d="M146.69,346.29a63.39,63.39,0,0,1-1.94,6.95c-.95,2.45-.87,3.7.33,3.84s1.3-3.25,1.87-4.11,3.84-4.71,4.83-8.85" style="fill:#adadad;stroke:#263238;stroke-linecap:round;stroke-linejoin:round"></path><path d="M221.56,282.32c-.58-1.55.56-20.62.56-20.62l10.94-6.18s.73-4-4.66-9.67-25.23-12.7-27.07-13-17.06-6.93-23.4-.33c0,0-17.21,9.7-21,14.84S152.21,261,152.21,261l17.3,9.4,5.43,15.86-1.83,9.9c5.53,3.63,25.84,14.71,51.95,1.71C223.81,292,221.93,283.34,221.56,282.32Z" style="fill:#263238;stroke:#263238;stroke-linecap:round;stroke-linejoin:round"></path><path d="M170.18,399.46s-3.94,9.13-3.5,10.07,2.91,3.31,3.7-.13S170.18,399.46,170.18,399.46Z" style="fill:#92E3A9;stroke:#263238;stroke-linecap:round;stroke-linejoin:round"></path><path d="M170.18,399.46s.44,9.71,1.81,10.21,3.21,1,2.16-2.94A20.62,20.62,0,0,0,170.18,399.46Z" style="fill:#92E3A9;stroke:#263238;stroke-linecap:round;stroke-linejoin:round"></path><path d="M200.9,189.18s4.77,1.15,6.75,4.71,2.24,7.56,4.09,9.4c1.15,1.14,3.58,1.42,4.3,3,.8,1.72-1.36,3.28-2.29,4.55,0,0-.55,4.51-.93,6.94-.42,2.65-.89,4-3.31,4.67a47,47,0,0,0-4.54,1.53s-2.29,10.26-2.06,13.45,2.4,9.7-2.88,11.79-10.53-2.47-11.93-8.29-1.3-20.63-1.3-20.63-6-.81-6.85-6.18,5.06-19.35,10.71-23.19S200.9,189.18,200.9,189.18Z" style="fill:#adadad;stroke:#263238;stroke-linecap:round;stroke-linejoin:round"></path><path d="M191.54,218.38s1.81,2.56,7.11,4" style="fill:#fff;stroke:#263238;stroke-linecap:round;stroke-linejoin:round"></path><path d="M191.29,214s-4.88-6.36-6.77-4.43,0,7.49,2.18,9.44,5.14-2.46,5.14-2.46" style="fill:none;stroke:#263238;stroke-linecap:round;stroke-linejoin:round"></path><path d="M206.11,212.62a5.2,5.2,0,0,0,5,.39" style="fill:none;stroke:#263238;stroke-linecap:round;stroke-linejoin:round"></path><path d="M207.8,202.68c.22.89,0,1.71-.54,1.84s-1.11-.5-1.32-1.39,0-1.72.54-1.84S207.58,201.78,207.8,202.68Z" style="fill:#263238"></path><path d="M203.17,200.37s0-3.21,4-2.5" style="fill:none;stroke:#263238;stroke-linecap:round;stroke-linejoin:round"></path><path d="M170.86,221.62s0,13.51-2,24,1.1,12.25,2.35,12.41,2.88-1.18,2.88-1.18a3.78,3.78,0,0,0,2.54,1.05c1.73.13,3.33-1.71,3.33-1.71s.38,1.94,3.34,2,3.86-1.25,3.86-1.25a3.2,3.2,0,0,0,3.28,1,5.34,5.34,0,0,0,2.81-2.17s2.24.34,2.74-3.15-10-40.43-10-40.43Z" style="fill:#616161;stroke:#263238;stroke-linecap:round;stroke-linejoin:round"></path><path d="M174.14,256.86s.54-16.55,0-24-.67-12.14-.67-12.14" style="fill:none;stroke:#263238;stroke-linecap:round;stroke-linejoin:round"></path><path d="M180,256.2s-.13-15.1-.73-23.68-.69-14.2-.69-14.2" style="fill:none;stroke:#263238;stroke-linecap:round;stroke-linejoin:round"></path><path d="M187.21,256.93s-3.24-25.51-4-32.79-1.14-7.73-1.14-7.73" style="fill:none;stroke:#263238;stroke-linecap:round;stroke-linejoin:round"></path><path d="M193.3,255.76s-5.67-27.17-6.2-31a71.73,71.73,0,0,0-2.13-9.08" style="fill:none;stroke:#263238;stroke-linecap:round;stroke-linejoin:round"></path><path d="M192.86,201.68s1.43,7.07.08,10.12-4.11,3.55-5.58,2.57,0-1.87,1.56-4.47a50,50,0,0,0,3.18-8S192.31,200.48,192.86,201.68Z" style="fill:#616161;stroke:#263238;stroke-linecap:round;stroke-linejoin:round"></path><path d="M202.92,189.78s-8.52,1.58-8.9,6.79-.38,12.11-4.54,16.1S174.6,222.1,172.93,223s-5.58,1.37-6.41-3.5-1.13-13.82,1.06-20.05c3.91-11.13,10.17-13.29,18.2-14.84S204.82,185.21,202.92,189.78Z" style="fill:#616161;stroke:#263238;stroke-linecap:round;stroke-linejoin:round"></path><path d="M166.52,219.46s2.16-3.15,9.51-6.49,10.91-7.71,13.88-15,7.92-6.34,7.92-6.34" style="fill:none;stroke:#263238;stroke-linecap:round;stroke-linejoin:round"></path><path d="M165.93,212a38.36,38.36,0,0,0,14.55-9c7.24-6.94,8.65-12.45,14.63-13.51s7.35.26,7.35.26" style="fill:none;stroke:#263238;stroke-linecap:round;stroke-linejoin:round"></path><path d="M166.59,204.88s9.27-3.61,13.59-8,9.52-9.16,15.3-9.43,6.48,2.63,6.48,2.63" style="fill:none;stroke:#263238;stroke-linecap:round;stroke-linejoin:round"></path><path d="M170.07,194s3.48-1.79,11.2-5.42,16.78-4.78,21.57-.74" style="fill:none;stroke:#263238;stroke-linecap:round;stroke-linejoin:round"></path><path d="M224.25,230.39s-.21,2.33-1.47,2.91a6.49,6.49,0,0,1-5.58-.46c-2.15-1.14-6.32-1.88-5.6.16s3.67,2.12,5.05,2.93,3.48,3.52,4.85,4.33a11.63,11.63,0,0,0,3.86,1s1.47,3,2.24,3.16.1,19.58-.69,25.78,0,12.73,3,16.23,7,5.47,9.77.58,3-13.75,1.21-21.88-6.68-17.26-7.37-20.55-1.34-7.8-3-11.26S224.31,228.22,224.25,230.39Z" style="fill:#adadad;stroke:#263238;stroke-linecap:round;stroke-linejoin:round"></path><path d="M228.74,231.29s-3.45-4.6-4.53-4.94-6.24.92-7,1.52-1,1.53-.21,1.7a37.2,37.2,0,0,0,5.46-.63l2.26,2.55" style="fill:#adadad;stroke:#263238;stroke-linecap:round;stroke-linejoin:round"></path><path d="M229.94,232.88s-2.72-2.87-4.42-3.23-7.38,2.75-7.71,3.36.59,1.26,2,1.15,4.1-2.07,4.1-2.07l3.35,2.42" style="fill:#adadad;stroke:#263238;stroke-linecap:round;stroke-linejoin:round"></path><path d="M228.42,237l-1.21-1.12s-2,.57-3.13,1-3.91,1-4.66,0,8.83-4.89,8.83-4.89a3.52,3.52,0,0,1,1.69.83,32.15,32.15,0,0,1,2.2,4.72" style="fill:#adadad;stroke:#263238;stroke-linecap:round;stroke-linejoin:round"></path><path d="M229,238.44l-2.44-1.77a16.81,16.81,0,0,1-2.54,2c-1.26.74-2.51.86-2.65.39s3.52-3.63,4.46-4.23,3.88.27,3.88.27l1.21,1.12" style="fill:#adadad;stroke:#263238;stroke-linecap:round;stroke-linejoin:round"></path></g></svg>