<svg xmlns="http://www.w3.org/2000/svg" viewBox="0 0 500 500"><g id="background-simple"><path d="M212.92,491.76S23.86,386.57,27.86,375.26s27.29-13.32,24-21.31S5.89,113,17.21,99,264.85,1.13,281.49,7.79s-8,30.62-8,30.62S479.21,121,483.2,130.28s-22.63,12.65-24.63,13.31,19.3,28,20.64,47.93-19.31,242.32-26,263-19.3,20-22,14.64-2.67-13.31-2.67-13.31S238.22,498.41,212.92,491.76Z" style="fill:#92E3A9"></path><path d="M212.92,491.76S23.86,386.57,27.86,375.26s27.29-13.32,24-21.31S5.89,113,17.21,99,264.85,1.13,281.49,7.79s-8,30.62-8,30.62S479.21,121,483.2,130.28s-22.63,12.65-24.63,13.31,19.3,28,20.64,47.93-19.31,242.32-26,263-19.3,20-22,14.64-2.67-13.31-2.67-13.31S238.22,498.41,212.92,491.76Z" style="fill:#fff;opacity:0.7000000000000001"></path></g><g id="Floor"><line x1="33.58" y1="441.13" x2="469.45" y2="441.13" style="fill:none;stroke:#263238;stroke-linecap:round;stroke-linejoin:round"></line></g><g id="Stations"><rect x="291.26" y="35.74" width="150" height="216.84" style="fill:none;stroke:#263238;stroke-linecap:round;stroke-linejoin:round"></rect><line x1="414.09" y1="74.11" x2="331.44" y2="166.94" style="fill:none;stroke:#263238;stroke-linecap:round;stroke-linejoin:round"></line><line x1="430.6" y1="55.56" x2="421.4" y2="65.89" style="fill:none;stroke:#263238;stroke-linecap:round;stroke-linejoin:round"></line><line x1="410.76" y1="90.73" x2="364.66" y2="142.51" style="fill:none;stroke:#263238;stroke-linecap:round;stroke-linejoin:round"></line><line x1="347.75" y1="40.9" x2="301.64" y2="92.68" style="fill:none;stroke:#263238;stroke-linecap:round;stroke-linejoin:round"></line><line x1="437.63" y1="177.68" x2="391.53" y2="229.46" style="fill:none;stroke:#263238;stroke-linecap:round;stroke-linejoin:round"></line><rect x="61.41" y="35.74" width="150" height="216.84" style="fill:none;stroke:#263238;stroke-linecap:round;stroke-linejoin:round"></rect><line x1="142.09" y1="55.07" x2="95.99" y2="106.85" style="fill:none;stroke:#263238;stroke-linecap:round;stroke-linejoin:round"></line><line x1="138.86" y1="192.24" x2="129.21" y2="203.08" style="fill:none;stroke:#263238;stroke-linecap:round;stroke-linejoin:round"></line><line x1="175.31" y1="151.3" x2="143.16" y2="187.41" style="fill:none;stroke:#263238;stroke-linecap:round;stroke-linejoin:round"></line><line x1="144.07" y1="74.77" x2="86.78" y2="138.6" style="fill:none;stroke:#263238;stroke-linecap:round;stroke-linejoin:round"></line><line x1="173.77" y1="40.9" x2="150.47" y2="67.07" style="fill:none;stroke:#263238;stroke-linecap:round;stroke-linejoin:round"></line><line x1="114.53" y1="184.03" x2="74.08" y2="229.46" style="fill:none;stroke:#263238;stroke-linecap:round;stroke-linejoin:round"></line><line x1="198.06" y1="91.22" x2="125.86" y2="172.31" style="fill:none;stroke:#263238;stroke-linecap:round;stroke-linejoin:round"></line><rect x="46.19" y="259.18" width="412.5" height="18.15" style="fill:none;stroke:#263238;stroke-linecap:round;stroke-linejoin:round"></rect><rect x="46.19" y="277.33" width="412.5" height="16.31" style="fill:none;stroke:#263238;stroke-linecap:round;stroke-linejoin:round"></rect><rect x="48.94" y="293.65" width="140.25" height="44.55" style="fill:none;stroke:#263238;stroke-linecap:round;stroke-linejoin:round"></rect><rect x="107.24" y="311.8" width="23.65" height="8.25" style="fill:none;stroke:#263238;stroke-linecap:round;stroke-linejoin:round"></rect><polyline points="429.38 321.75 429.38 338.2 289.13 338.2 289.13 293.65 429.38 293.65 429.38 315.33" style="fill:none;stroke:#263238;stroke-linecap:round;stroke-linejoin:round"></polyline><rect x="347.43" y="311.8" width="23.65" height="8.25" style="fill:none;stroke:#263238;stroke-linecap:round;stroke-linejoin:round"></rect><rect x="216.34" y="37.12" width="31.27" height="41.24" style="fill:none;stroke:#263238;stroke-linecap:round;stroke-linejoin:round"></rect><rect x="216.34" y="37.12" width="13.66" height="41.24" style="fill:none;stroke:#263238;stroke-linecap:round;stroke-linejoin:round"></rect><rect x="254.86" y="37.12" width="31.27" height="41.24" style="fill:none;stroke:#263238;stroke-linecap:round;stroke-linejoin:round"></rect><rect x="254.86" y="37.12" width="13.15" height="41.24" style="fill:none;stroke:#263238;stroke-linecap:round;stroke-linejoin:round"></rect><rect x="216.34" y="86.97" width="31.27" height="41.24" style="fill:none;stroke:#263238;stroke-linecap:round;stroke-linejoin:round"></rect><rect x="216.34" y="86.97" width="13.66" height="41.24" style="fill:none;stroke:#263238;stroke-linecap:round;stroke-linejoin:round"></rect><rect x="254.86" y="86.97" width="31.27" height="41.24" style="fill:none;stroke:#263238;stroke-linecap:round;stroke-linejoin:round"></rect><rect x="254.86" y="86.97" width="13.15" height="41.24" style="fill:none;stroke:#263238;stroke-linecap:round;stroke-linejoin:round"></rect><rect x="216.34" y="136.82" width="31.27" height="41.24" style="fill:none;stroke:#263238;stroke-linecap:round;stroke-linejoin:round"></rect><rect x="216.34" y="136.82" width="13.66" height="41.24" style="fill:none;stroke:#263238;stroke-linecap:round;stroke-linejoin:round"></rect><rect x="254.86" y="136.82" width="31.27" height="41.24" style="fill:none;stroke:#263238;stroke-linecap:round;stroke-linejoin:round"></rect><rect x="254.86" y="136.82" width="13.15" height="41.24" style="fill:none;stroke:#263238;stroke-linecap:round;stroke-linejoin:round"></rect><rect x="216.34" y="186.66" width="31.27" height="41.24" style="fill:none;stroke:#263238;stroke-linecap:round;stroke-linejoin:round"></rect><rect x="216.34" y="186.66" width="13.66" height="41.24" style="fill:none;stroke:#263238;stroke-linecap:round;stroke-linejoin:round"></rect><rect x="254.86" y="186.66" width="31.27" height="41.24" style="fill:none;stroke:#263238;stroke-linecap:round;stroke-linejoin:round"></rect><rect x="254.86" y="186.66" width="13.15" height="41.24" style="fill:none;stroke:#263238;stroke-linecap:round;stroke-linejoin:round"></rect><rect x="233.22" y="153.52" width="8.17" height="24.51" style="fill:#ccc;stroke:#263238;stroke-linecap:round;stroke-linejoin:round"></rect><rect x="233.22" y="150.69" width="8.17" height="2.84" style="fill:#fff;stroke:#263238;stroke-linecap:round;stroke-linejoin:round"></rect><rect x="235.61" y="145.36" width="3.61" height="5.36" style="fill:#fff;stroke:#263238;stroke-linecap:round;stroke-linejoin:round"></rect><rect x="263.68" y="153.52" width="8.17" height="24.51" style="fill:#263238;stroke:#263238;stroke-linecap:round;stroke-linejoin:round"></rect><rect x="263.68" y="150.69" width="8.17" height="2.84" style="fill:#fff;stroke:#263238;stroke-linecap:round;stroke-linejoin:round"></rect><rect x="266.06" y="145.36" width="3.61" height="5.36" style="fill:#fff;stroke:#263238;stroke-linecap:round;stroke-linejoin:round"></rect><rect x="274.21" y="159.25" width="8.17" height="18.78" style="fill:#fff;stroke:#263238;stroke-linecap:round;stroke-linejoin:round"></rect><rect x="274.21" y="157.07" width="8.17" height="2.17" style="fill:#fff;stroke:#263238;stroke-linecap:round;stroke-linejoin:round"></rect><rect x="276.6" y="152.99" width="3.61" height="4.11" style="fill:#fff;stroke:#263238;stroke-linecap:round;stroke-linejoin:round"></rect><rect x="222.54" y="64.19" width="21.06" height="14.25" style="fill:#ccc;stroke:#263238;stroke-linecap:round;stroke-linejoin:round"></rect><rect x="222.54" y="64.19" width="21.06" height="4.98" style="fill:#fff;stroke:#263238;stroke-linecap:round;stroke-linejoin:round"></rect><rect x="416.08" y="245.53" width="9.3" height="31.6" style="fill:#fff;stroke:#263238;stroke-linecap:round;stroke-linejoin:round"></rect><rect x="416.08" y="245.53" width="9.3" height="8.58" style="fill:#263238;stroke:#263238;stroke-linecap:round;stroke-linejoin:round"></rect><rect x="428.18" y="251.39" width="13.97" height="25.74" style="fill:#fff;stroke:#263238;stroke-linecap:round;stroke-linejoin:round"></rect><rect x="428.18" y="251.39" width="13.97" height="6.99" style="fill:#263238;stroke:#263238;stroke-linecap:round;stroke-linejoin:round"></rect><rect x="57.94" y="238.77" width="13.98" height="38.36" style="fill:#263238;stroke:#263238;stroke-linecap:round;stroke-linejoin:round"></rect><rect x="57.94" y="238.77" width="13.98" height="10.41" style="fill:#fff;stroke:#263238;stroke-linecap:round;stroke-linejoin:round"></rect></g><g id="Chair"><path d="M232.57,273.1s9.54-.14,13.49,1.63,7.49,8.31,8.31,14.58S257.09,337.66,257,342s-3,9.54-5.86,11.17-8.45,3-8.45,3l-.82-.35s6.27-5.65,6.68-10.41-2.18-34.74-2.18-34.74l-2-25.06s-3.82-6-6.81-8.58S232.57,273.1,232.57,273.1Z" style="fill:#ccc;stroke:#263238;stroke-linecap:round;stroke-linejoin:round"></path><path d="M239.4,275.12s4.53,3.91,5.46,5.62a18,18,0,0,1,1.41,3.44h4.53s-2.35-6.25-4.84-7.81S239.4,275.12,239.4,275.12Z" style="fill:#fff"></path><path d="M189.83,273.44a14.93,14.93,0,0,0-4.66,7.69c-1.36,5.18-.41,15.26-.41,15.67s1.64,32.28,2.32,36.09,3,12.13,8.17,14.17S245.51,352,245.51,352a27.34,27.34,0,0,1-2.45,2.72c-1.23,1.15-4.49,0-4.49,0l-50.27-4.9s-5.17-1.78-8.17-11.45-3.95-41.68-3.95-41.68-1.09-12.94.95-16.75,5.73-7.09,8-7.22,5.72,0,5.72,0Z" style="fill:#263238;stroke:#263238;stroke-linecap:round;stroke-linejoin:round"></path><path d="M239.89,356c-9.34,0-46-4-50.94-5.13-6.6-1.52-10.3-12.42-11.08-16.11-.88-4.17-2.86-40-2.86-43,0-.27,0-.6,0-1-.07-3.25-.22-10,3.5-15.15,4.06-5.64,10.71-4.58,11.71-4.39,2.66.06,39.19.91,43.78,2.22,4.83,1.38,10.51,8.19,11.47,13.74.9,5.18,4.41,52.2,3.71,57s-3.67,10.54-7.33,11.59A9,9,0,0,1,239.89,356Zm-52-82.71a9,9,0,0,0-7.58,3.67c-3.29,4.56-3.15,10.81-3.08,13.81,0,.39,0,.73,0,1,0,3.18,2,38.71,2.81,42.51.85,4,4.4,13.25,9.42,14.41,5.51,1.27,48.86,5.78,51.78,5,2.37-.68,5.11-5.34,5.74-9.78s-2.84-51.43-3.7-56.34-5.82-10.83-9.89-12c-3.65-1-32.52-1.9-43.33-2.14l-.22,0h0A9.73,9.73,0,0,0,187.87,273.26Z" style="fill:#ccc;stroke:#263238;stroke-linecap:round;stroke-linejoin:round"></path><path d="M234,273.47s7.54,1.16,8.55.4.25-5.8-.89-6.18-19.79-1.3-32-2.18-20.6,0-21.49,2.81S191,271.6,191,271.6l39.64,1.52Z" style="fill:#263238;stroke:#263238;stroke-linecap:round;stroke-linejoin:round"></path><path d="M175.35,221.82a4.91,4.91,0,0,0-1.15-1.08,4.17,4.17,0,0,0-3-.66v-.17L84.1,227l9.54,90.35L176,307.67a12.33,12.33,0,0,0,5.71-1.93c3.2-1.92,6.41-2.89,6.73-17.94S177.27,224.39,175.35,221.82Z" style="fill:#263238;stroke:#263238;stroke-linecap:round;stroke-linejoin:round"></path><path d="M79.45,232.3l8.75,85.38s2.24,1.66,5.44-.33,6.41-3,6.73-18.58-10.89-67.33-12.81-70a4.88,4.88,0,0,0-1.15-1.12C83.24,225.48,79.05,228.38,79.45,232.3Z" style="fill:#263238;stroke:#263238;stroke-linecap:round;stroke-linejoin:round"></path><path d="M90,233.43s9.68,54.39,10.41,65.34-2.7,14.39-2.7,14.39" style="fill:none;stroke:#707070;stroke-linecap:round;stroke-linejoin:round"></path><ellipse cx="172.71" cy="453.68" rx="62.53" ry="15.81" style="fill:#ccc;stroke:#263238;stroke-linecap:round;stroke-linejoin:round"></ellipse><path d="M136,447.86c7.4-1.11,19.23-5.18,22.74-7.77s3.15-4.43,3.15-4.43h22s-2.41,9.24,23.85,11.65" style="fill:#ccc;stroke:#263238;stroke-linecap:round;stroke-linejoin:round"></path><path d="M176.92,442.62s6.12,9,14.51,11.6,18-1.29,16.44-3.22-14.83-3.23-20.31-7.1A10.82,10.82,0,0,0,176.92,442.62Z" style="fill:#fff"></path><path d="M174.7,442.06s-4.61.19-6.53,0l-1.92-.2a11.82,11.82,0,0,1-.19,6.53c-1.15,3.26-5.37,5.37-5,9s1.34,4.8-.38,6.33-2.69,2.31-1.54,2.88,10.36,1.73,17.85.77a4.07,4.07,0,0,0,.77-4.61,7,7,0,0,1-.58-6.71c1-2.69.58-3.46-1-6.53A19.86,19.86,0,0,1,174.7,442.06Z" style="fill:#263238;stroke:#263238;stroke-linecap:round;stroke-linejoin:round"></path><path d="M161,440.3a13.38,13.38,0,0,1-3.94,4.08c-2.31,1.36-7.2,3.12-7.33,4.35s1.35,3-1.5,3.67-8.15,1.49-13.18,4.07,1.23,3.94.82,4.62-2.31.41-1.5,1.63,4.62,1.36,4.62,1.36-3-.14-2.17-1.36,2.31-2.58,1.09-3-4.62-.27-2.45-1.9a15.27,15.27,0,0,1,9-3.26c4.19-.2,6.78-1.7,7-3s-2.09-2.3-.4-3.39,6.09-2.5,7.48-3.69S161.2,440.8,161,440.3Z" style="fill:#263238;stroke:#263238;stroke-linecap:round;stroke-linejoin:round"></path><path d="M172.84,440.19c5.18,0,9.63-.58,11.67-1.41a4.48,4.48,0,0,1-.67-3.12h-22s.21,1.11-1.32,2.8C162.1,439.46,167,440.19,172.84,440.19Z" style="fill:#263238;stroke:#263238;stroke-linecap:round;stroke-linejoin:round"></path><path d="M161.84,392.3v43.36c0,.87,4.92,1.57,11,1.57s11-.7,11-1.57V392.3Z" style="fill:#ccc;stroke:#263238;stroke-linecap:round;stroke-linejoin:round"></path><rect x="169.59" y="394.57" width="4.2" height="40.46" style="fill:#fff"></rect><rect x="165.65" y="394.57" width="4.2" height="40.46" style="fill:#263238;stroke:#263238;stroke-linecap:round;stroke-linejoin:round"></rect><path d="M183.84,392.3c0,.87-4.93,1.57-11,1.57s-11-.7-11-1.57,4.92-1.57,11-1.57S183.84,391.43,183.84,392.3Z" style="fill:#ccc;stroke:#263238;stroke-linecap:round;stroke-linejoin:round"></path><path d="M171,369.73h5.16a0,0,0,0,1,0,0v21.58a1.63,1.63,0,0,1-1.63,1.63h-1.89a1.63,1.63,0,0,1-1.63-1.63V369.73A0,0,0,0,1,171,369.73Z" style="fill:#ccc;stroke:#263238;stroke-linecap:round;stroke-linejoin:round"></path><path d="M259.48,445.55a2.59,2.59,0,0,1-.55-.07c-5.66-1.44-19.08-5-21.34-7.28-2.12-2.12-17.3-45.71-26.16-71.5a2.22,2.22,0,1,1,4.19-1.44c8.65,25.2,23,66,25.19,69.88,1.63,1.13,11.14,4,19.21,6.05a2.21,2.21,0,0,1-.54,4.36Z" style="fill:#ccc;stroke:#263238;stroke-linecap:round;stroke-linejoin:round"></path><path d="M247.92,447a2,2,0,0,1-.54-.07c-5.67-1.43-21.38-6.41-23.64-8.68-2.13-2.12-17.31-45.71-26.16-71.5a2.21,2.21,0,1,1,4.18-1.44c8.66,25.2,23,66,25.19,69.88,1.63,1.13,13.44,5.41,21.51,7.45a2.21,2.21,0,0,1-.54,4.36Z" style="fill:#ccc;stroke:#263238;stroke-linecap:round;stroke-linejoin:round"></path><polygon points="221.08 439.85 221.08 444.21 225.97 445.71 225.97 441.26 221.08 439.85" style="fill:#fff;stroke:#263238;stroke-linecap:round;stroke-linejoin:round"></polygon><polygon points="225.97 441.26 283.6 433.6 278.72 432.19 221.08 439.85 225.97 441.26" style="fill:#fff;stroke:#263238;stroke-linecap:round;stroke-linejoin:round"></polygon><polygon points="225.97 445.71 283.6 438.04 283.6 433.6 225.97 441.26 225.97 445.71" style="fill:#263238;stroke:#263238;stroke-linecap:round;stroke-linejoin:round"></polygon><path d="M201.76,365.26a2.21,2.21,0,1,0-4.18,1.44c.95,2.77,2,5.75,3,8.85l4.49-.57Z" style="fill:#263238;stroke:#263238;stroke-linecap:round;stroke-linejoin:round"></path><path d="M215.62,365.26a2.22,2.22,0,1,0-4.19,1.44c.78,2.26,1.6,4.66,2.47,7.16l4.48-.58Z" style="fill:#263238;stroke:#263238;stroke-linecap:round;stroke-linejoin:round"></path><path d="M197.58,366.7c.95,2.77,2,5.75,3,8.85l.18,0Z" style="fill:#263238;stroke:#263238;stroke-linecap:round;stroke-linejoin:round"></path><path d="M174.6,321.46s-74.9,8.92-79.36,10.93-4.91,2.89-4.68,4.23.22,26.09,2,26.53,74.24,10,76.69,9.81,86.5-10.92,87.62-12.26S258,359.36,258,358s-1.34-26.75-2.23-28.53-73.57-8-77.36-8Z" style="fill:#263238;stroke:#263238;stroke-linecap:round;stroke-linejoin:round"></path><path d="M95.23,337.23s71.45,6.88,76.69,6.88S251.24,332,251.24,332" style="fill:none;stroke:#707070;stroke-linecap:round;stroke-linejoin:round"></path><path d="M132,282.24s9.53-.14,13.48,1.63,7.5,8.31,8.31,14.58,2.73,48.35,2.59,52.71-3,9.54-5.86,11.17-9.26,2.65-9.26,2.65,6.27-5.65,6.68-10.41-2.18-34.74-2.18-34.74l-2-25.06s-3.81-6-6.81-8.58S132,282.24,132,282.24Z" style="fill:#ccc;stroke:#263238;stroke-linecap:round;stroke-linejoin:round"></path><path d="M138.7,284s4.53,3.9,5.46,5.62a18,18,0,0,1,1.41,3.44h4.53s-2.35-6.25-4.84-7.81S138.7,284,138.7,284Z" style="fill:#fff"></path><ellipse cx="87.35" cy="296.26" rx="10.95" ry="15.47" style="fill:#ccc;stroke:#263238;stroke-linecap:round;stroke-linejoin:round"></ellipse><path d="M89.29,282.58a14.93,14.93,0,0,0-4.66,7.69c-1.37,5.18-.41,15.26-.41,15.67s1.63,32.28,2.31,36.1,3,12.12,8.18,14.16S145,361.11,145,361.11a27.34,27.34,0,0,1-2.45,2.72c-1.23,1.15-4.5,0-4.5,0l-50.26-4.9s-5.18-1.77-8.17-11.45-4-41.68-4-41.68-1.09-12.94,1-16.75,5.72-7.09,8-7.22,5.72,0,5.72,0Z" style="fill:#263238;stroke:#263238;stroke-linecap:round;stroke-linejoin:round"></path><path d="M139.34,365.11c-9.34,0-46-4-50.93-5.13-6.6-1.52-10.31-12.42-11.09-16.11-.87-4.17-2.85-40-2.85-43,0-.27,0-.6,0-1-.07-3.25-.22-10,3.49-15.15,4.06-5.64,10.71-4.58,11.71-4.39,2.67.06,39.2.91,43.79,2.22,4.82,1.38,10.5,8.19,11.47,13.74.9,5.18,4.4,52.2,3.71,57s-3.68,10.54-7.33,11.59A9.08,9.08,0,0,1,139.34,365.11Zm-52-82.71a9,9,0,0,0-7.58,3.67c-3.28,4.56-3.14,10.81-3.08,13.81,0,.39,0,.73,0,1,0,3.18,2,38.71,2.81,42.51.85,4,4.4,13.26,9.41,14.41,5.52,1.27,48.87,5.78,51.78,5,2.37-.68,5.12-5.34,5.75-9.78s-2.85-51.43-3.7-56.34-5.83-10.82-9.9-12c-3.64-1-32.51-1.9-43.33-2.14l-.21,0h0A9.89,9.89,0,0,0,87.32,282.4Z" style="fill:#ccc;stroke:#263238;stroke-linecap:round;stroke-linejoin:round"></path><path d="M133.44,282.61s7.53,1.16,8.54.41.25-5.81-.88-6.19-19.79-1.3-32-2.18-20.61,0-21.49,2.81,2.9,3.28,2.9,3.28l39.64,1.52Z" style="fill:#263238;stroke:#263238;stroke-linecap:round;stroke-linejoin:round"></path><polygon points="169.41 397.16 169.41 409.59 185.1 409.59 185.1 398.18 183.06 395.12 169.62 395.12 169.41 397.16" style="fill:#263238;stroke:#263238;stroke-linecap:round;stroke-linejoin:round"></polygon><polygon points="169.62 395.12 174.3 399.2 174.3 409.18 169.41 409.18 169.62 395.12" style="fill:#ccc;stroke:#263238;stroke-linecap:round;stroke-linejoin:round"></polygon><polyline points="172.19 400.75 135.05 406.19 125.98 402.66 151.95 398.84 158.82 401.61" style="fill:none;stroke:#263238;stroke-linecap:round;stroke-linejoin:round;stroke-width:2px"></polyline></g><g id="Character"><path d="M289.65,259.7l-1,55.23,6.26,68.78,2.58,52.06-1.89,4.72s-1.88,6.6-3.3,8.48-17.44,8.49-16,13.21,13.67,1.88,16,1.88,14.15-5.18,14.15-5.18,6.6.47,8.48-1.89a8.89,8.89,0,0,0,1.42-7.54c-.47-2.36-.47-9-.47-13.21s-.95-13.67-.95-15.08,5.19-94.77,5.19-94.77l5.18-21.69,9.43,31.59,8,75.44.94,26.87,2.36,8.49s.47,9.43.94,10.84,7.55,7.07,10.85,9,16,4.72,17-.47-2.83-10.84-5.66-13.67l-2.83-2.83s-1.41-9.43-1.88-12.26-1.89-1.89-1.42-6.13.95-65.54.95-72.14,2.82-59.4,1.88-66S363.44,258,363.44,258l-71.66-6.6Z" style="fill:#263238;stroke:#263238;stroke-linecap:round;stroke-linejoin:round"></path><path d="M308,151.53l-15.79,9.77s3.74,12.46.83,24.72-3.53,16.83-3.53,16.83l.83,40.93-2.5,18.07s11.64,3.12,16.83,4.78,15.58,4.57,15.58,4.57l4.37-9.14,2.9,9.55s15.79,0,21.4-2.28,17.66-8.52,17.66-8.52l-3.74-49.65V199.32l-1.24-41.76-15-5.2-5.61-2.7-30.75.63Z" style="fill:#263238;stroke:#263238;stroke-linecap:round;stroke-linejoin:round"></path><path d="M361.57,157.56s7.36,1.65,11.68,7.82,16.88,32.53,16.88,32.53,3.91,8.44,5.35,11.12l1.45,2.68s2.47,7.61,1.23,11.32-8,6.38-10.09,7a46.12,46.12,0,0,1-6.38,1l-7.82-15-11.53-20S361,159.41,361.57,157.56Z" style="fill:none;stroke:#263238;stroke-linecap:round;stroke-linejoin:round"></path><path d="M397.1,212.28c-.1-.36-.17-.57-.17-.57L395.48,209c-1.44-2.68-5.35-11.12-5.35-11.12s-12.56-26.35-16.88-32.53-11.68-7.82-11.68-7.82c-.57,1.85.77,38.5.77,38.5l10.07,17.44C378.05,212.27,389,210.41,397.1,212.28Z" style="fill:#92E3A9;stroke:#263238;stroke-linecap:round;stroke-linejoin:round"></path><path d="M383.54,205.94c-7.61,3.5-11.13,7.56-11.13,7.56" style="fill:none;stroke:#263238;stroke-linecap:round;stroke-linejoin:round"></path><path d="M386.43,204.71s4.11-.21,6,.61" style="fill:none;stroke:#263238;stroke-linecap:round;stroke-linejoin:round"></path><line x1="362.34" y1="196.06" x2="365.63" y2="174.24" style="fill:none;stroke:#263238;stroke-linecap:round;stroke-linejoin:round"></line><line x1="368.51" y1="173.62" x2="365.63" y2="187" style="fill:none;stroke:#263238;stroke-linecap:round;stroke-linejoin:round"></line><polygon points="331.46 175.62 348.34 152.97 346.61 152.37 341 149.66 310.25 150.29 307.97 151.53 303.43 154.34 326.06 181.64 331.46 175.62" style="fill:#92E3A9;stroke:#263238;stroke-linecap:round;stroke-linejoin:round"></polygon><polygon points="318.45 154.63 322.01 157.33 325.2 162.24 322.26 176.73 326.06 181.64 331.46 175.62 327.29 162 328.64 157.21 333.55 154.63 325.45 147.02 319.93 152.79 318.45 154.63" style="fill:#263238;stroke:#263238;stroke-linecap:round;stroke-linejoin:round"></polygon><polygon points="312.08 137.94 312.24 145.88 325.19 155.1 336.52 145.07 335.71 135.19 312.08 137.94" style="fill:#fff;stroke:#263238;stroke-linecap:round;stroke-linejoin:round"></polygon><path d="M315.11,98.5s-7.09,3.42-9.05,8.8,1.47,26.65,2.69,28.37,8.84,9.44,12,10.17,7.33-.24,8.56-.49,7.3-8,8.28-10.42,1.95-23.72.24-28.85S325.81,94.37,315.11,98.5Z" style="fill:#fff;stroke:#263238;stroke-linecap:round;stroke-linejoin:round"></path><path d="M305.58,120.19a3.15,3.15,0,0,0-3,2.79c-.52,2.79,4.54,8.54,4.54,8.54Z" style="fill:#fff;stroke:#263238;stroke-linecap:round;stroke-linejoin:round"></path><path d="M339.24,118.09s3.14-2.27,3.14,1.4-3.83,10.29-3.83,10.29Z" style="fill:#fff;stroke:#263238;stroke-linecap:round;stroke-linejoin:round"></path><path d="M318.6,115.44a9.5,9.5,0,0,0-8.45,1.07" style="fill:none;stroke:#263238;stroke-linecap:round;stroke-linejoin:round"></path><path d="M325,114.1s6.31-2,8.45.4" style="fill:none;stroke:#263238;stroke-linecap:round;stroke-linejoin:round"></path><path d="M319.8,127.51s3.09,1.34,4.43,1.08a8.82,8.82,0,0,0,2.82-1.35" style="fill:none;stroke:#263238;stroke-linecap:round;stroke-linejoin:round"></path><path d="M317.52,133.42s7.38,1.74,11.54-1.21" style="fill:none;stroke:#263238;stroke-linecap:round;stroke-linejoin:round"></path><ellipse cx="315.38" cy="120.07" rx="1.07" ry="1.54" style="fill:#263238"></ellipse><ellipse cx="328.92" cy="119.06" rx="1.07" ry="1.54" style="fill:#263238"></ellipse><path d="M318.46,121.34a12.63,12.63,0,0,1-3.08,3.09" style="fill:none;stroke:#263238;stroke-linecap:round;stroke-linejoin:round"></path><path d="M326.38,120.94a38.34,38.34,0,0,0,4.69,2" style="fill:none;stroke:#263238;stroke-linecap:round;stroke-linejoin:round"></path><path d="M338.79,117.54c0-4.9-.26-9.44-.94-11.46-1.71-5.14-12-11.71-22.74-7.58,0,0-7.09,3.42-9.05,8.8-.75,2.07-.71,6.51-.29,11.28l.08.08s3.36-3,3.09-4.83-1.34-4.56-1.34-6.17,1.47-6.44,4.56-6.71,8.72,3.49,11.26,2.82,5.1-2.82,7.65-3.22a4.39,4.39,0,0,1,4.7,3.76c0,1.61-1.08,6.7-.68,8a66.5,66.5,0,0,0,3.09,6.17Z" style="fill:#263238;stroke:#263238;stroke-linecap:round;stroke-linejoin:round"></path><polygon points="321.63 152.51 315.15 161.09 305.77 151.71 310.95 144.58 321.63 152.51" style="fill:#92E3A9;stroke:#263238;stroke-linecap:round;stroke-linejoin:round"></polygon><polygon points="329.08 151.71 335.71 160.28 342.68 148.79 337.36 143.34 329.08 151.71" style="fill:#92E3A9;stroke:#263238;stroke-linecap:round;stroke-linejoin:round"></polygon><path d="M292.18,161.3s-7.9,3.11-11.22,6.23-8.73,15.17-8.73,16-15.79,26.59-15.79,26.59l-39.68,32.41s-11.42-1-12.46-.62-5,.41-6.65.41-3.12.62-2.7,1.87,4.15,1.66,4.15,1.66l4.92,1.88L196.4,255s-9.14,6.65-9.35,7.69.42,1,1.87.62,7.53-3.44,7.53-3.44-7.72,5.66-7.58,6.35.27,1.65,1.51,1.38,8.28-4.14,8.28-4.14-7.45,5-6.07,6.07,2.76-.69,2.76-.69l9.66-4.69s-6.49,5.52-7,5.79,1,.83,3,.14,9.1-5.66,9.1-5.66,3.59-2.48,5.66-3.72,5.79-5.38,6.21-5.94,43.18-21.24,46.49-25.38,21-26.52,21-26.52a207.55,207.55,0,0,0,4.66-22.32C295.79,169.08,292.18,161.3,292.18,161.3Z" style="fill:#fff;stroke:#263238;stroke-linecap:round;stroke-linejoin:round"></path><path d="M272.23,183.53c0,.6-8.32,14.34-12.88,21.82l18.65,12,11.48-14.5a207.55,207.55,0,0,0,4.66-22.32c1.65-11.45-2-19.23-2-19.23s-7.9,3.11-11.22,6.23S272.23,182.7,272.23,183.53Z" style="fill:#92E3A9;stroke:#263238;stroke-linecap:round;stroke-linejoin:round"></path><line x1="263.31" y1="197.5" x2="282.25" y2="211.29" style="fill:none;stroke:#263238;stroke-linecap:round;stroke-linejoin:round"></line><polyline points="280.19 181.85 289.48 202.85 283.69 180.21" style="fill:none;stroke:#263238;stroke-linecap:round;stroke-linejoin:round"></polyline><path d="M204.84,249.18s3.71,3.7,6,3.91,4.94-1.86,4.94-1.86" style="fill:none;stroke:#263238;stroke-linecap:round;stroke-linejoin:round"></path><line x1="196.45" y1="259.86" x2="201.55" y2="263.38" style="fill:none;stroke:#263238;stroke-linecap:round;stroke-linejoin:round"></line><path d="M343.72,233.19s.08.4.21,1.11c.83,4.47,3.84,21.35,3.84,31.28a85,85,0,0,0,2.65,20.86l12.76-2.8-6.38-53.72Z" style="fill:#ccc;stroke:#263238;stroke-linecap:round;stroke-linejoin:round"></path><path d="M377.66,212.49s-6.85,1.4-8.72,2.33-25.22,6.23-26.31,6.39-8.1-2-9.5-2-9.65,2-10.74,2-3.12-1.56-3.43-.47a2.64,2.64,0,0,0,.63,2.8l.77.78s-1.86,2-1.71,3.27a12.77,12.77,0,0,0,1.09,3.11l2,.31s5.13,8.1,6.22,8.72,3.74.63,8.88.16,10.28-4.52,10.28-4.52l34.54-4.31s10-.78,13.26-4.4a13.35,13.35,0,0,0,3.27-10.28,21.68,21.68,0,0,0-1.29-4.67S382.8,210.46,377.66,212.49Z" style="fill:#fff;stroke:#263238;stroke-linecap:round;stroke-linejoin:round"></path><line x1="321.77" y1="231.01" x2="327.53" y2="230.39" style="fill:none;stroke:#263238;stroke-linecap:round;stroke-linejoin:round"></line><line x1="320.36" y1="224.32" x2="324.41" y2="221.67" style="fill:none;stroke:#263238;stroke-linecap:round;stroke-linejoin:round"></line><path d="M346.06,221.05s5.13,5.29,5.76,10.9,6.22,43.44,7.31,49.82,2.5,12.93,2.5,12.93,15.88-4.52,20.7-7.94,11.84-7.32,11.84-7.32-5.61-33.79-6.54-41.11,0-17-4.21-21.33-7-4.67-7-4.67Z" style="fill:#fff;stroke:#263238;stroke-linecap:round;stroke-linejoin:round"></path></g><g id="Plant"><path d="M417.16,317.68s-2.15,5.93-6.73,6.73-12.65-8.07-7.53-12.65S415,314.46,417.16,317.68Z" style="fill:#92E3A9;stroke:#263238;stroke-linecap:round;stroke-linejoin:round;stroke-width:0.75px"></path><path d="M424.16,288.62s-6.73,16.42-4,24.49,19.38,14,24.23,3.5-5.92-25.3-10-28.53S425.51,285.93,424.16,288.62Z" style="fill:#92E3A9;stroke:#263238;stroke-linecap:round;stroke-linejoin:round;stroke-width:0.75px"></path><path d="M463.46,295.62s-11.58,10.49-12.92,21,6.46,14.26,14.53,12.92,12.11-21.8,9.69-31.22S463.46,295.62,463.46,295.62Z" style="fill:#92E3A9;stroke:#263238;stroke-linecap:round;stroke-linejoin:round;stroke-width:0.75px"></path><path d="M465.61,353.75s-12.92.54-13.46,6.73S457.8,368,464,362.63,471,354,465.61,353.75Z" style="fill:#92E3A9;stroke:#263238;stroke-linecap:round;stroke-linejoin:round;stroke-width:0.75px"></path><path d="M452.37,362s10.18-4.65,14.76-5.46" style="fill:none;stroke:#263238;stroke-miterlimit:10;stroke-width:0.75px"></path><path d="M468.49,394.25s-9.49-8.78-14.26-4.8-1.36,9.33,6.82,9.92S472.09,398.26,468.49,394.25Z" style="fill:#92E3A9;stroke:#263238;stroke-linecap:round;stroke-linejoin:round;stroke-width:0.75px"></path><path d="M453.33,390.65s10.49,3.93,14.29,6.61" style="fill:none;stroke:#263238;stroke-miterlimit:10;stroke-width:0.75px"></path><path d="M418.43,391.67s13.08-12.11,19.66-6.62,1.87,12.85-9.4,13.67S413.46,397.19,418.43,391.67Z" style="fill:#92E3A9;stroke:#263238;stroke-linecap:round;stroke-linejoin:round;stroke-width:0.75px"></path><path d="M439.32,386.69s-14.45,5.43-19.69,9.13" style="fill:none;stroke:#263238;stroke-miterlimit:10;stroke-width:0.75px"></path><path d="M433.58,366.67s-1.34,6.46-6.19,8.88-13.46-2.69-8.88-10.5S431.16,363.44,433.58,366.67Z" style="fill:#92E3A9;stroke:#263238;stroke-linecap:round;stroke-linejoin:round;stroke-width:0.75px"></path><path d="M422.28,346.48s-2.43-5.38-11.85-1.88-13.18,8.88-7.26,10.76S422.28,346.48,422.28,346.48Z" style="fill:#92E3A9;stroke:#263238;stroke-linecap:round;stroke-linejoin:round;stroke-width:0.75px"></path><path d="M420.47,346.24s-10,1.08-15.37,5.66" style="fill:none;stroke:#263238;stroke-miterlimit:10;stroke-width:0.75px"></path><path d="M449.19,281.89s1.62,3.77,4.85,3,4-5.65,9.15-4.31,9.42,7.27,9.42,4.58-6.46-9.69-13.73-9.69S449.46,278.39,449.19,281.89Z" style="fill:#92E3A9;stroke:#263238;stroke-linecap:round;stroke-linejoin:round;stroke-width:0.75px"></path><path d="M422.28,346.48s11.59-2.22,16.41,10.65a32.81,32.81,0,0,1,1.21,3.94" style="fill:none;stroke:#263238;stroke-miterlimit:10;stroke-width:0.75px"></path><path d="M470.64,334s2.43-5.39,11.85-1.89,13.18,8.88,7.26,10.77S470.64,334,470.64,334Z" style="fill:#92E3A9;stroke:#263238;stroke-linecap:round;stroke-linejoin:round;stroke-width:0.75px"></path><path d="M472.8,334.37s9.7-.54,14.29,5.13" style="fill:none;stroke:#263238;stroke-miterlimit:10;stroke-width:0.75px"></path><path d="M470.64,334a14.9,14.9,0,0,0-8,1.09" style="fill:none;stroke:#263238;stroke-miterlimit:10;stroke-width:0.75px"></path><path d="M428.45,324.36c-5.68-5.8-11.29-6.68-11.29-6.68s-8.28-2.19-11.52.78" style="fill:none;stroke:#263238;stroke-miterlimit:10;stroke-width:0.75px"></path><line x1="429.61" y1="294.55" x2="429.1" y2="292.3" style="fill:none;stroke:#263238;stroke-miterlimit:10;stroke-width:0.75px"></line><path d="M442.71,413.53s1.21-46.35,0-60.42-6.83-30.57-6.83-30.57l-5.74-25.61" style="fill:none;stroke:#263238;stroke-miterlimit:10;stroke-width:0.75px"></path><line x1="466.63" y1="304.5" x2="467.67" y2="302.28" style="fill:none;stroke:#263238;stroke-miterlimit:10;stroke-width:0.75px"></line><path d="M445.53,413.48s.4-42.28,2-54.34,8-31,8-31L465.46,307" style="fill:none;stroke:#263238;stroke-miterlimit:10;stroke-width:0.75px"></path><path d="M452.37,362s-2.82,24.24-4.43,51.59" style="fill:none;stroke:#263238;stroke-miterlimit:10;stroke-width:0.75px"></path><path d="M438.69,413.48s.81-38.66-.8-43.89-4.31-2.92-4.31-2.92-7.44.87-10.14,5.19" style="fill:none;stroke:#263238;stroke-miterlimit:10;stroke-width:0.75px"></path><path d="M440.54,364.08c2.1,11.79.16,49.44.16,49.44" style="fill:none;stroke:#263238;stroke-miterlimit:10;stroke-width:0.75px"></path><path d="M460.34,336.37a16.78,16.78,0,0,0-6.11,8.29c-4.83,12.87-4.28,68.88-4.28,68.88" style="fill:none;stroke:#263238;stroke-miterlimit:10;stroke-width:0.75px"></path><path d="M429.86,325.9a38,38,0,0,1,6.82,12.33c6.44,18.5,8.85,66.4,7.64,75.25" style="fill:none;stroke:#263238;stroke-miterlimit:10;stroke-width:0.75px"></path><path d="M446.2,343.21c-.39,23.35-.67,70.27-.67,70.27" style="fill:none;stroke:#263238;stroke-miterlimit:10;stroke-width:0.75px"></path><path d="M446.25,340.3c.26-15.44.57-30.55.89-38.67.8-20.91,2.05-19.74,2.05-19.74s1.49-4.7,9.85-4.16" style="fill:none;stroke:#263238;stroke-miterlimit:10;stroke-width:0.75px"></path><path d="M436,357.93s-6.73-6-4-8.95,19.38-5.11,24.22-1.28-5.92,9.25-9.95,10.43S437.29,358.92,436,357.93Z" style="fill:#92E3A9;stroke:#263238;stroke-linecap:round;stroke-linejoin:round;stroke-width:0.75px"></path><path d="M442.16,353a12.35,12.35,0,0,0-.15,1.79" style="fill:none;stroke:#263238;stroke-miterlimit:10;stroke-width:0.75px"></path><path d="M444.48,346a29.52,29.52,0,0,0-1.73,4.45" style="fill:none;stroke:#263238;stroke-miterlimit:10;stroke-width:0.75px"></path><path d="M436,397.16s-6.73-6-4-9,19.38-5.11,24.22-1.28-5.92,9.25-9.95,10.43S437.29,398.15,436,397.16Z" style="fill:#92E3A9;stroke:#263238;stroke-linecap:round;stroke-linejoin:round;stroke-width:0.75px"></path><path d="M444.48,385.25S442,390.17,442,394" style="fill:none;stroke:#263238;stroke-miterlimit:10;stroke-width:0.75px"></path><path d="M441,380.57s-4.57-4.07-2.74-6.07,13.15-3.48,16.44-.87-4,6.27-6.76,7.08S441.87,381.24,441,380.57Z" style="fill:#92E3A9;stroke:#263238;stroke-linecap:round;stroke-linejoin:round;stroke-width:0.75px"></path><path d="M446.75,372.48a16.54,16.54,0,0,0-1.68,6" style="fill:none;stroke:#263238;stroke-miterlimit:10;stroke-width:0.75px"></path><rect x="434.64" y="406.81" width="18.21" height="40.39" style="fill:#263238;stroke:#263238;stroke-linecap:round;stroke-linejoin:round;stroke-width:0.75px"></rect></g></svg>
