<svg xmlns="http://www.w3.org/2000/svg" viewBox="0 0 750 500"><g id="background-simple"><path d="M692.41,149.05c-13-20.69-29.06-39.37-48.52-54.7C577,41.65,476.86,37,398.59,63.81,375.45,71.75,353.36,83,334.47,98.7c-13.73,11.39-25.49,24.93-39.18,36.36-14.38,12-32.16,12.28-50.22,11.29q-39-2.16-77.81-6.6c-22.54-2.57-43.77-6.8-66.1-.57C63.46,149.7,33.58,182.54,22,219.34c-14.5,46.22-4.58,97.13,15.38,141.27,6.91,15.28,15.21,30.2,18.81,46.64,3.74,17.09,11.29,34.54,24,47.24,14.85,14.76,38,19.92,58.09,23.74,38.87,7.4,78.86,3.3,117-6,36-8.75,72.69-23.89,110.57-24.15,42.5-.29,82.91,17.08,124.68,24.93,37.38,7,76.05,6.65,113.46,0,33.94-6.06,71-15.62,95.89-41,65.82-67.06,43.57-179.61,7.26-255.64A265.62,265.62,0,0,0,692.41,149.05Z" style="fill:#92E3A9"></path><path d="M692.41,149.05c-13-20.69-29.06-39.37-48.52-54.7C577,41.65,476.86,37,398.59,63.81,375.45,71.75,353.36,83,334.47,98.7c-13.73,11.39-25.49,24.93-39.18,36.36-14.38,12-32.16,12.28-50.22,11.29q-39-2.16-77.81-6.6c-22.54-2.57-43.77-6.8-66.1-.57C63.46,149.7,33.58,182.54,22,219.34c-14.5,46.22-4.58,97.13,15.38,141.27,6.91,15.28,15.21,30.2,18.81,46.64,3.74,17.09,11.29,34.54,24,47.24,14.85,14.76,38,19.92,58.09,23.74,38.87,7.4,78.86,3.3,117-6,36-8.75,72.69-23.89,110.57-24.15,42.5-.29,82.91,17.08,124.68,24.93,37.38,7,76.05,6.65,113.46,0,33.94-6.06,71-15.62,95.89-41,65.82-67.06,43.57-179.61,7.26-255.64A265.62,265.62,0,0,0,692.41,149.05Z" style="fill:#fff;opacity:0.7000000000000001"></path></g><g id="Clouds"><path d="M641.5,18.74S634,6.39,622.29,7.07,606.5,15.31,603.07,20.8s-4.8,2.05-13.72-.69-13,2.06-15.1,6.86-1.37,1.37-9.6,0-8.45,3.54-13.73,6.18c-4.3,2.15-5.22,2.24-10,1-5.93-1.6-7.87-.27-9.24,2.48H670.9s-2.64-11-8.82-13.73S647.67,25.6,641.5,18.74Z" style="fill:none;stroke:#000;stroke-miterlimit:10;opacity:0.30000000000000004"></path><path d="M81.67,91.57s-4.2-6.88-10.69-6.5-8.78,4.59-10.69,7.64-2.68,1.15-7.64-.38-7.26,1.15-8.4,3.82-.77.76-5.35,0-4.7,2-7.64,3.44c-2.39,1.19-2.9,1.24-5.55.53-3.3-.9-4.38-.15-5.14,1.37H98s-1.46-6.11-4.9-7.63S85.11,95.38,81.67,91.57Z" style="fill:none;stroke:#000;stroke-miterlimit:10;opacity:0.30000000000000004"></path><path d="M719.4,132.05s-2.19-3.58-5.57-3.38-4.57,2.39-5.57,4-1.39.59-4-.2a3.22,3.22,0,0,0-4.37,2c-.6,1.39-.4.4-2.79,0s-2.45,1-4,1.79a3,3,0,0,1-2.89.27c-1.72-.46-2.28-.07-2.68.72h40.35s-.76-3.18-2.55-4S721.19,134,719.4,132.05Z" style="fill:none;stroke:#000;stroke-miterlimit:10;opacity:0.30000000000000004"></path><path d="M444.73,116.09s-3.51-5.74-8.93-5.42-7.33,3.83-8.93,6.38-2.23,1-6.38-.32-6.06,1-7,3.19-.64.63-4.47,0-3.92,1.64-6.38,2.87c-2,1-2.42,1-4.63.44-2.76-.75-3.66-.12-4.3,1.15h64.7s-1.23-5.1-4.1-6.38S447.6,119.28,444.73,116.09Z" style="fill:none;stroke:#000;stroke-miterlimit:10;opacity:0.30000000000000004"></path><path d="M463.39,57.45s-2.19-3.58-5.57-3.38-4.58,2.38-5.57,4-1.4.59-4-.2a3.22,3.22,0,0,0-4.38,2c-.59,1.39-.4.39-2.78,0s-2.45,1-4,1.79a3,3,0,0,1-2.89.27c-1.72-.46-2.28-.07-2.68.72h40.35s-.76-3.18-2.55-4S465.18,59.44,463.39,57.45Z" style="fill:none;stroke:#000;stroke-miterlimit:10;opacity:0.30000000000000004"></path></g><g id="City"><g style="opacity:0.2"><polyline points="25.99 429.03 57.63 429.03 57.63 142.92 140.85 142.92 140.85 279.1 158.73 279.1 158.73 448.29 179.37 448.29 179.37 195.74 217.88 195.74 217.88 93.4 279.78 93.4 279.78 281.85 303.17 281.85 303.17 206.88 355.44 206.88 355.44 223.39 400.14 223.39 400.14 446.23 418.02 446.23 418.02 405.65 466.86 405.65 466.86 445.54 490.24 445.54 490.24 244.71 569.33 244.71 569.33 433.16 592.03 433.16 592.03 170.43 619.54 170.43 619.54 122.28 633.3 122.28 633.3 94.77 655.31 94.77 655.31 272.91 691.07 272.91 691.07 442.79 718.58 442.79" style="fill:none;stroke:#000;stroke-miterlimit:10"></polyline><rect x="57.63" y="133.98" width="83.22" height="8.94" style="fill:none;stroke:#000;stroke-miterlimit:10"></rect><rect x="179.13" y="195.73" width="38.75" height="4.53" style="fill:none;stroke:#000;stroke-miterlimit:10"></rect><rect x="217.7" y="93.4" width="62.08" height="4.4" style="fill:none;stroke:#000;stroke-miterlimit:10"></rect><rect x="308.09" y="197.53" width="9.04" height="9.34" style="fill:none;stroke:#000;stroke-miterlimit:10"></rect><rect x="336.11" y="201.45" width="4.52" height="5.42" style="fill:none;stroke:#000;stroke-miterlimit:10"></rect><rect x="355.44" y="223.39" width="44.85" height="5.48" style="fill:none;stroke:#000;stroke-miterlimit:10"></rect><rect x="490.24" y="240.62" width="79.08" height="4.09" style="fill:none;stroke:#000;stroke-miterlimit:10"></rect><rect x="510.57" y="232.48" width="31.34" height="8.14" style="fill:none;stroke:#000;stroke-miterlimit:10"></rect><polyline points="535.27 232.79 535.27 225.25 558.17 225.25 558.17 240.32" style="fill:none;stroke:#000;stroke-miterlimit:10"></polyline><polyline points="384.35 221.14 384.35 160.25 456.83 160.25 456.83 210.7 481.76 210.7 481.76 124.88 561.78 124.88 561.78 228.67 586.72 228.67" style="fill:none;stroke:#000;stroke-miterlimit:10"></polyline><polyline points="332.16 190.98 332.16 123.72 282.87 123.72" style="fill:none;stroke:#000;stroke-miterlimit:10"></polyline><polyline points="176.76 207.8 160.52 207.8 160.52 160.83 144.86 160.83" style="fill:none;stroke:#000;stroke-miterlimit:10"></polyline><polyline points="54.99 195.04 41.65 195.04 41.65 377.7" style="fill:none;stroke:#000;stroke-miterlimit:10"></polyline><polyline points="611.07 161.41 611.07 139.38 618.03 139.38" style="fill:none;stroke:#000;stroke-miterlimit:10"></polyline><polyline points="658.04 139.96 682.97 139.96 682.97 232.15 725.3 232.15 725.3 338.85" style="fill:none;stroke:#000;stroke-miterlimit:10"></polyline><rect x="222.57" y="106.32" width="6.22" height="12.18" style="fill:none;stroke:#000;stroke-miterlimit:10"></rect><rect x="233.77" y="106.32" width="6.22" height="12.18" style="fill:none;stroke:#000;stroke-miterlimit:10"></rect><rect x="244.97" y="106.32" width="6.22" height="12.18" style="fill:none;stroke:#000;stroke-miterlimit:10"></rect><rect x="256.17" y="106.32" width="6.22" height="12.18" style="fill:none;stroke:#000;stroke-miterlimit:10"></rect><rect x="267.37" y="106.32" width="6.22" height="12.18" style="fill:none;stroke:#000;stroke-miterlimit:10"></rect><rect x="222.57" y="126.91" width="6.22" height="12.18" style="fill:none;stroke:#000;stroke-miterlimit:10"></rect><rect x="233.77" y="126.91" width="6.22" height="12.18" style="fill:none;stroke:#000;stroke-miterlimit:10"></rect><rect x="244.97" y="126.91" width="6.22" height="12.18" style="fill:none;stroke:#000;stroke-miterlimit:10"></rect><rect x="256.17" y="126.91" width="6.22" height="12.18" style="fill:none;stroke:#000;stroke-miterlimit:10"></rect><rect x="267.37" y="126.91" width="6.22" height="12.18" style="fill:none;stroke:#000;stroke-miterlimit:10"></rect><rect x="222.57" y="147.49" width="6.22" height="12.18" style="fill:none;stroke:#000;stroke-miterlimit:10"></rect><rect x="233.77" y="147.49" width="6.22" height="12.18" style="fill:none;stroke:#000;stroke-miterlimit:10"></rect><rect x="244.97" y="147.49" width="6.22" height="12.18" style="fill:none;stroke:#000;stroke-miterlimit:10"></rect><rect x="256.17" y="147.49" width="6.22" height="12.18" style="fill:none;stroke:#000;stroke-miterlimit:10"></rect><rect x="267.37" y="147.49" width="6.22" height="12.18" style="fill:none;stroke:#000;stroke-miterlimit:10"></rect><rect x="222.57" y="168.08" width="6.22" height="12.18" style="fill:none;stroke:#000;stroke-miterlimit:10"></rect><rect x="233.77" y="168.08" width="6.22" height="12.18" style="fill:none;stroke:#000;stroke-miterlimit:10"></rect><rect x="244.97" y="168.08" width="6.22" height="12.18" style="fill:none;stroke:#000;stroke-miterlimit:10"></rect><rect x="256.17" y="168.08" width="6.22" height="12.18" style="fill:none;stroke:#000;stroke-miterlimit:10"></rect><rect x="267.37" y="168.08" width="6.22" height="12.18" style="fill:none;stroke:#000;stroke-miterlimit:10"></rect><rect x="222.57" y="188.66" width="6.22" height="12.18" style="fill:none;stroke:#000;stroke-miterlimit:10"></rect><rect x="233.77" y="188.66" width="6.22" height="12.18" style="fill:none;stroke:#000;stroke-miterlimit:10"></rect><rect x="244.97" y="188.66" width="6.22" height="12.18" style="fill:none;stroke:#000;stroke-miterlimit:10"></rect><rect x="256.17" y="188.66" width="6.22" height="12.18" style="fill:none;stroke:#000;stroke-miterlimit:10"></rect><rect x="267.37" y="188.66" width="6.22" height="12.18" style="fill:none;stroke:#000;stroke-miterlimit:10"></rect><rect x="222.57" y="209.25" width="6.22" height="12.18" style="fill:none;stroke:#000;stroke-miterlimit:10"></rect><rect x="233.77" y="209.25" width="6.22" height="12.18" style="fill:none;stroke:#000;stroke-miterlimit:10"></rect><rect x="244.97" y="209.25" width="6.22" height="12.18" style="fill:none;stroke:#000;stroke-miterlimit:10"></rect><rect x="256.17" y="209.25" width="6.22" height="12.18" style="fill:none;stroke:#000;stroke-miterlimit:10"></rect><rect x="267.37" y="209.25" width="6.22" height="12.18" style="fill:none;stroke:#000;stroke-miterlimit:10"></rect><rect x="184.38" y="209.25" width="6.22" height="12.18" style="fill:none;stroke:#000;stroke-miterlimit:10"></rect><rect x="195.58" y="209.25" width="6.22" height="12.18" style="fill:none;stroke:#000;stroke-miterlimit:10"></rect><rect x="206.78" y="209.25" width="6.22" height="12.18" style="fill:none;stroke:#000;stroke-miterlimit:10"></rect><rect x="184.38" y="229.25" width="6.22" height="12.18" style="fill:none;stroke:#000;stroke-miterlimit:10"></rect><rect x="195.58" y="229.25" width="6.22" height="12.18" style="fill:none;stroke:#000;stroke-miterlimit:10"></rect><rect x="206.78" y="229.25" width="6.22" height="12.18" style="fill:none;stroke:#000;stroke-miterlimit:10"></rect><rect x="184.38" y="249.26" width="6.22" height="12.18" style="fill:none;stroke:#000;stroke-miterlimit:10"></rect><rect x="195.58" y="249.26" width="6.22" height="12.18" style="fill:none;stroke:#000;stroke-miterlimit:10"></rect><rect x="206.78" y="249.26" width="6.22" height="12.18" style="fill:none;stroke:#000;stroke-miterlimit:10"></rect><rect x="184.38" y="269.26" width="6.22" height="12.18" style="fill:none;stroke:#000;stroke-miterlimit:10"></rect><rect x="195.58" y="269.26" width="6.22" height="12.18" style="fill:none;stroke:#000;stroke-miterlimit:10"></rect><rect x="206.78" y="269.26" width="6.22" height="12.18" style="fill:none;stroke:#000;stroke-miterlimit:10"></rect><rect x="184.38" y="289.27" width="6.22" height="12.18" style="fill:none;stroke:#000;stroke-miterlimit:10"></rect><rect x="195.58" y="289.27" width="6.22" height="12.18" style="fill:none;stroke:#000;stroke-miterlimit:10"></rect><rect x="206.78" y="289.27" width="6.22" height="12.18" style="fill:none;stroke:#000;stroke-miterlimit:10"></rect><rect x="184.38" y="309.27" width="6.22" height="12.18" style="fill:none;stroke:#000;stroke-miterlimit:10"></rect><rect x="195.58" y="309.27" width="6.22" height="12.18" style="fill:none;stroke:#000;stroke-miterlimit:10"></rect><rect x="206.78" y="309.27" width="6.22" height="12.18" style="fill:none;stroke:#000;stroke-miterlimit:10"></rect><rect x="184.38" y="329.28" width="6.22" height="12.18" style="fill:none;stroke:#000;stroke-miterlimit:10"></rect><rect x="195.58" y="329.28" width="6.22" height="12.18" style="fill:none;stroke:#000;stroke-miterlimit:10"></rect><rect x="206.78" y="329.28" width="6.22" height="12.18" style="fill:none;stroke:#000;stroke-miterlimit:10"></rect><rect x="184.38" y="349.28" width="6.22" height="12.18" style="fill:none;stroke:#000;stroke-miterlimit:10"></rect><rect x="195.58" y="349.28" width="6.22" height="12.18" style="fill:none;stroke:#000;stroke-miterlimit:10"></rect><rect x="206.78" y="349.28" width="6.22" height="12.18" style="fill:none;stroke:#000;stroke-miterlimit:10"></rect><rect x="184.38" y="369.29" width="6.22" height="12.18" style="fill:none;stroke:#000;stroke-miterlimit:10"></rect><rect x="195.58" y="369.29" width="6.22" height="12.18" style="fill:none;stroke:#000;stroke-miterlimit:10"></rect><rect x="206.78" y="369.29" width="6.22" height="12.18" style="fill:none;stroke:#000;stroke-miterlimit:10"></rect><rect x="184.38" y="389.29" width="6.22" height="12.18" style="fill:none;stroke:#000;stroke-miterlimit:10"></rect><rect x="195.58" y="389.29" width="6.22" height="12.18" style="fill:none;stroke:#000;stroke-miterlimit:10"></rect><rect x="206.78" y="389.29" width="6.22" height="12.18" style="fill:none;stroke:#000;stroke-miterlimit:10"></rect><rect x="184.38" y="409.3" width="6.22" height="12.18" style="fill:none;stroke:#000;stroke-miterlimit:10"></rect><rect x="195.58" y="409.3" width="6.22" height="12.18" style="fill:none;stroke:#000;stroke-miterlimit:10"></rect><rect x="206.78" y="409.3" width="6.22" height="12.18" style="fill:none;stroke:#000;stroke-miterlimit:10"></rect><rect x="284.25" y="291.59" width="6.22" height="12.18" style="fill:none;stroke:#000;stroke-miterlimit:10"></rect><rect x="295.45" y="291.59" width="6.22" height="12.18" style="fill:none;stroke:#000;stroke-miterlimit:10"></rect><rect x="284.25" y="311.59" width="6.22" height="12.18" style="fill:none;stroke:#000;stroke-miterlimit:10"></rect><rect x="295.45" y="311.59" width="6.22" height="12.18" style="fill:none;stroke:#000;stroke-miterlimit:10"></rect><rect x="284.25" y="331.6" width="6.22" height="12.18" style="fill:none;stroke:#000;stroke-miterlimit:10"></rect><rect x="295.45" y="331.6" width="6.22" height="12.18" style="fill:none;stroke:#000;stroke-miterlimit:10"></rect><rect x="284.25" y="351.6" width="6.22" height="12.18" style="fill:none;stroke:#000;stroke-miterlimit:10"></rect><rect x="295.45" y="351.6" width="6.22" height="12.18" style="fill:none;stroke:#000;stroke-miterlimit:10"></rect><rect x="284.25" y="371.61" width="6.22" height="12.18" style="fill:none;stroke:#000;stroke-miterlimit:10"></rect><rect x="295.45" y="371.61" width="6.22" height="12.18" style="fill:none;stroke:#000;stroke-miterlimit:10"></rect><rect x="284.25" y="391.61" width="6.22" height="12.18" style="fill:none;stroke:#000;stroke-miterlimit:10"></rect><rect x="295.45" y="391.61" width="6.22" height="12.18" style="fill:none;stroke:#000;stroke-miterlimit:10"></rect><rect x="284.25" y="411.62" width="6.22" height="12.18" style="fill:none;stroke:#000;stroke-miterlimit:10"></rect><rect x="295.45" y="411.62" width="6.22" height="12.18" style="fill:none;stroke:#000;stroke-miterlimit:10"></rect><rect x="222.57" y="229.83" width="6.22" height="12.18" style="fill:none;stroke:#000;stroke-miterlimit:10"></rect><rect x="233.77" y="229.83" width="6.22" height="12.18" style="fill:none;stroke:#000;stroke-miterlimit:10"></rect><rect x="244.97" y="229.83" width="6.22" height="12.18" style="fill:none;stroke:#000;stroke-miterlimit:10"></rect><rect x="256.17" y="229.83" width="6.22" height="12.18" style="fill:none;stroke:#000;stroke-miterlimit:10"></rect><rect x="267.37" y="229.83" width="6.22" height="12.18" style="fill:none;stroke:#000;stroke-miterlimit:10"></rect><rect x="222.57" y="250.42" width="6.22" height="12.18" style="fill:none;stroke:#000;stroke-miterlimit:10"></rect><rect x="233.77" y="250.42" width="6.22" height="12.18" style="fill:none;stroke:#000;stroke-miterlimit:10"></rect><rect x="244.97" y="250.42" width="6.22" height="12.18" style="fill:none;stroke:#000;stroke-miterlimit:10"></rect><rect x="256.17" y="250.42" width="6.22" height="12.18" style="fill:none;stroke:#000;stroke-miterlimit:10"></rect><rect x="267.37" y="250.42" width="6.22" height="12.18" style="fill:none;stroke:#000;stroke-miterlimit:10"></rect><rect x="222.57" y="271" width="6.22" height="12.18" style="fill:none;stroke:#000;stroke-miterlimit:10"></rect><rect x="233.77" y="271" width="6.22" height="12.18" style="fill:none;stroke:#000;stroke-miterlimit:10"></rect><rect x="244.97" y="271" width="6.22" height="12.18" style="fill:none;stroke:#000;stroke-miterlimit:10"></rect><rect x="256.17" y="271" width="6.22" height="12.18" style="fill:none;stroke:#000;stroke-miterlimit:10"></rect><rect x="267.37" y="271" width="6.22" height="12.18" style="fill:none;stroke:#000;stroke-miterlimit:10"></rect><rect x="222.57" y="291.59" width="6.22" height="12.18" style="fill:none;stroke:#000;stroke-miterlimit:10"></rect><rect x="233.77" y="291.59" width="6.22" height="12.18" style="fill:none;stroke:#000;stroke-miterlimit:10"></rect><rect x="244.97" y="291.59" width="6.22" height="12.18" style="fill:none;stroke:#000;stroke-miterlimit:10"></rect><rect x="256.17" y="291.59" width="6.22" height="12.18" style="fill:none;stroke:#000;stroke-miterlimit:10"></rect><rect x="267.37" y="291.59" width="6.22" height="12.18" style="fill:none;stroke:#000;stroke-miterlimit:10"></rect><rect x="222.57" y="312.17" width="6.22" height="12.18" style="fill:none;stroke:#000;stroke-miterlimit:10"></rect><rect x="233.77" y="312.17" width="6.22" height="12.18" style="fill:none;stroke:#000;stroke-miterlimit:10"></rect><rect x="244.97" y="312.17" width="6.22" height="12.18" style="fill:none;stroke:#000;stroke-miterlimit:10"></rect><rect x="256.17" y="312.17" width="6.22" height="12.18" style="fill:none;stroke:#000;stroke-miterlimit:10"></rect><rect x="267.37" y="312.17" width="6.22" height="12.18" style="fill:none;stroke:#000;stroke-miterlimit:10"></rect><rect x="222.57" y="332.76" width="6.22" height="12.18" style="fill:none;stroke:#000;stroke-miterlimit:10"></rect><rect x="233.77" y="332.76" width="6.22" height="12.18" style="fill:none;stroke:#000;stroke-miterlimit:10"></rect><rect x="244.97" y="332.76" width="6.22" height="12.18" style="fill:none;stroke:#000;stroke-miterlimit:10"></rect><rect x="256.17" y="332.76" width="6.22" height="12.18" style="fill:none;stroke:#000;stroke-miterlimit:10"></rect><rect x="267.37" y="332.76" width="6.22" height="12.18" style="fill:none;stroke:#000;stroke-miterlimit:10"></rect><rect x="222.57" y="353.34" width="6.22" height="12.18" style="fill:none;stroke:#000;stroke-miterlimit:10"></rect><rect x="233.77" y="353.34" width="6.22" height="12.18" style="fill:none;stroke:#000;stroke-miterlimit:10"></rect><rect x="244.97" y="353.34" width="6.22" height="12.18" style="fill:none;stroke:#000;stroke-miterlimit:10"></rect><rect x="256.17" y="353.34" width="6.22" height="12.18" style="fill:none;stroke:#000;stroke-miterlimit:10"></rect><rect x="267.37" y="353.34" width="6.22" height="12.18" style="fill:none;stroke:#000;stroke-miterlimit:10"></rect><rect x="222.57" y="373.93" width="6.22" height="12.18" style="fill:none;stroke:#000;stroke-miterlimit:10"></rect><rect x="233.77" y="373.93" width="6.22" height="12.18" style="fill:none;stroke:#000;stroke-miterlimit:10"></rect><rect x="244.97" y="373.93" width="6.22" height="12.18" style="fill:none;stroke:#000;stroke-miterlimit:10"></rect><rect x="256.17" y="373.93" width="6.22" height="12.18" style="fill:none;stroke:#000;stroke-miterlimit:10"></rect><rect x="267.37" y="373.93" width="6.22" height="12.18" style="fill:none;stroke:#000;stroke-miterlimit:10"></rect><rect x="222.57" y="394.51" width="6.22" height="12.18" style="fill:none;stroke:#000;stroke-miterlimit:10"></rect><rect x="233.77" y="394.51" width="6.22" height="12.18" style="fill:none;stroke:#000;stroke-miterlimit:10"></rect><rect x="244.97" y="394.51" width="6.22" height="12.18" style="fill:none;stroke:#000;stroke-miterlimit:10"></rect><rect x="256.17" y="394.51" width="6.22" height="12.18" style="fill:none;stroke:#000;stroke-miterlimit:10"></rect><rect x="267.37" y="394.51" width="6.22" height="12.18" style="fill:none;stroke:#000;stroke-miterlimit:10"></rect><rect x="222.57" y="415.68" width="6.22" height="12.18" style="fill:none;stroke:#000;stroke-miterlimit:10"></rect><rect x="233.77" y="415.68" width="6.22" height="12.18" style="fill:none;stroke:#000;stroke-miterlimit:10"></rect><rect x="244.97" y="415.68" width="6.22" height="12.18" style="fill:none;stroke:#000;stroke-miterlimit:10"></rect><rect x="256.17" y="415.68" width="6.22" height="12.18" style="fill:none;stroke:#000;stroke-miterlimit:10"></rect><rect x="267.37" y="415.68" width="6.22" height="12.18" style="fill:none;stroke:#000;stroke-miterlimit:10"></rect><line x1="217.88" y1="200.26" x2="217.88" y2="448.44" style="fill:none;stroke:#000;stroke-miterlimit:10"></line><line x1="313.02" y1="211.86" x2="313.02" y2="444.96" style="fill:none;stroke:#000;stroke-miterlimit:10"></line><line x1="325.2" y1="211.86" x2="325.2" y2="444.96" style="fill:none;stroke:#000;stroke-miterlimit:10"></line><line x1="337.38" y1="211.86" x2="337.38" y2="444.96" style="fill:none;stroke:#000;stroke-miterlimit:10"></line><line x1="349.55" y1="211.86" x2="349.55" y2="444.96" style="fill:none;stroke:#000;stroke-miterlimit:10"></line><line x1="361.73" y1="235.05" x2="361.73" y2="444.96" style="fill:none;stroke:#000;stroke-miterlimit:10"></line><line x1="373.91" y1="235.05" x2="373.91" y2="444.96" style="fill:none;stroke:#000;stroke-miterlimit:10"></line><line x1="386.09" y1="235.05" x2="386.09" y2="444.96" style="fill:none;stroke:#000;stroke-miterlimit:10"></line><line x1="60.79" y1="156.19" x2="136.75" y2="156.19" style="fill:none;stroke:#000;stroke-miterlimit:10"></line><line x1="60.79" y1="171.27" x2="136.75" y2="171.27" style="fill:none;stroke:#000;stroke-miterlimit:10"></line><line x1="60.79" y1="186.34" x2="136.75" y2="186.34" style="fill:none;stroke:#000;stroke-miterlimit:10"></line><line x1="60.79" y1="201.42" x2="136.75" y2="201.42" style="fill:none;stroke:#000;stroke-miterlimit:10"></line><line x1="60.79" y1="216.5" x2="136.75" y2="216.5" style="fill:none;stroke:#000;stroke-miterlimit:10"></line><line x1="60.79" y1="231.57" x2="136.75" y2="231.57" style="fill:none;stroke:#000;stroke-miterlimit:10"></line><line x1="60.79" y1="246.65" x2="136.75" y2="246.65" style="fill:none;stroke:#000;stroke-miterlimit:10"></line><line x1="60.79" y1="261.73" x2="136.75" y2="261.73" style="fill:none;stroke:#000;stroke-miterlimit:10"></line><line x1="60.79" y1="276.8" x2="136.75" y2="276.8" style="fill:none;stroke:#000;stroke-miterlimit:10"></line><line x1="60.79" y1="291.88" x2="136.75" y2="291.88" style="fill:none;stroke:#000;stroke-miterlimit:10"></line><line x1="60.79" y1="306.96" x2="136.75" y2="306.96" style="fill:none;stroke:#000;stroke-miterlimit:10"></line><line x1="60.79" y1="322.03" x2="136.75" y2="322.03" style="fill:none;stroke:#000;stroke-miterlimit:10"></line><line x1="60.79" y1="337.11" x2="136.75" y2="337.11" style="fill:none;stroke:#000;stroke-miterlimit:10"></line><line x1="60.79" y1="352.18" x2="136.75" y2="352.18" style="fill:none;stroke:#000;stroke-miterlimit:10"></line><line x1="60.79" y1="367.26" x2="136.75" y2="367.26" style="fill:none;stroke:#000;stroke-miterlimit:10"></line><line x1="60.79" y1="382.34" x2="136.75" y2="382.34" style="fill:none;stroke:#000;stroke-miterlimit:10"></line><line x1="60.79" y1="397.41" x2="136.75" y2="397.41" style="fill:none;stroke:#000;stroke-miterlimit:10"></line><line x1="60.79" y1="412.49" x2="136.75" y2="412.49" style="fill:none;stroke:#000;stroke-miterlimit:10"></line><line x1="60.79" y1="427.57" x2="136.75" y2="427.57" style="fill:none;stroke:#000;stroke-miterlimit:10"></line><line x1="60.79" y1="442.64" x2="136.75" y2="442.64" style="fill:none;stroke:#000;stroke-miterlimit:10"></line><line x1="60.79" y1="457.72" x2="136.75" y2="457.72" style="fill:none;stroke:#000;stroke-miterlimit:10"></line><line x1="70.64" y1="133.58" x2="70.64" y2="461.2" style="fill:none;stroke:#000;stroke-miterlimit:10"></line><polyline points="592.51 197.94 609.33 197.94 609.33 206.06 592.51 206.06" style="fill:none;stroke:#000;stroke-miterlimit:10"></polyline><polyline points="690.51 288.98 671.38 288.98 671.38 297.1 690.51 297.1" style="fill:none;stroke:#000;stroke-miterlimit:10"></polyline><polyline points="690.51 308.12 671.38 308.12 671.38 316.23 690.51 316.23" style="fill:none;stroke:#000;stroke-miterlimit:10"></polyline><polyline points="690.51 327.25 671.38 327.25 671.38 335.37 690.51 335.37" style="fill:none;stroke:#000;stroke-miterlimit:10"></polyline><polyline points="690.51 346.38 671.38 346.38 671.38 354.5 690.51 354.5" style="fill:none;stroke:#000;stroke-miterlimit:10"></polyline><polyline points="690.51 365.52 671.38 365.52 671.38 373.64 690.51 373.64" style="fill:none;stroke:#000;stroke-miterlimit:10"></polyline><polyline points="690.51 384.66 671.38 384.66 671.38 392.77 690.51 392.77" style="fill:none;stroke:#000;stroke-miterlimit:10"></polyline><polyline points="690.51 403.79 671.38 403.79 671.38 411.91 690.51 411.91" style="fill:none;stroke:#000;stroke-miterlimit:10"></polyline><polyline points="690.51 422.93 671.38 422.93 671.38 431.05 690.51 431.05" style="fill:none;stroke:#000;stroke-miterlimit:10"></polyline><polyline points="592.51 219.98 609.33 219.98 609.33 228.09 592.51 228.09" style="fill:none;stroke:#000;stroke-miterlimit:10"></polyline><polyline points="592.51 242.01 609.33 242.01 609.33 250.13 592.51 250.13" style="fill:none;stroke:#000;stroke-miterlimit:10"></polyline><polyline points="592.51 264.05 609.33 264.05 609.33 272.16 592.51 272.16" style="fill:none;stroke:#000;stroke-miterlimit:10"></polyline><polyline points="592.51 286.08 609.33 286.08 609.33 294.2 592.51 294.2" style="fill:none;stroke:#000;stroke-miterlimit:10"></polyline><polyline points="592.51 308.12 609.33 308.12 609.33 316.23 592.51 316.23" style="fill:none;stroke:#000;stroke-miterlimit:10"></polyline><polyline points="592.51 330.15 609.33 330.15 609.33 338.27 592.51 338.27" style="fill:none;stroke:#000;stroke-miterlimit:10"></polyline><polyline points="592.51 352.18 609.33 352.18 609.33 360.3 592.51 360.3" style="fill:none;stroke:#000;stroke-miterlimit:10"></polyline><polyline points="592.51 374.22 609.33 374.22 609.33 382.34 592.51 382.34" style="fill:none;stroke:#000;stroke-miterlimit:10"></polyline><polyline points="592.51 396.25 609.33 396.25 609.33 404.37 592.51 404.37" style="fill:none;stroke:#000;stroke-miterlimit:10"></polyline><rect x="492.78" y="250.71" width="73.06" height="6.96" style="fill:none;stroke:#000;stroke-miterlimit:10"></rect><rect x="492.78" y="262.89" width="73.06" height="6.96" style="fill:none;stroke:#000;stroke-miterlimit:10"></rect><rect x="492.78" y="275.06" width="73.06" height="6.96" style="fill:none;stroke:#000;stroke-miterlimit:10"></rect><rect x="492.78" y="287.24" width="73.06" height="6.96" style="fill:none;stroke:#000;stroke-miterlimit:10"></rect><rect x="492.78" y="299.42" width="73.06" height="6.96" style="fill:none;stroke:#000;stroke-miterlimit:10"></rect><rect x="492.78" y="311.59" width="73.06" height="6.96" style="fill:none;stroke:#000;stroke-miterlimit:10"></rect><rect x="492.78" y="323.77" width="73.06" height="6.96" style="fill:none;stroke:#000;stroke-miterlimit:10"></rect><rect x="492.78" y="335.95" width="73.06" height="6.96" style="fill:none;stroke:#000;stroke-miterlimit:10"></rect><rect x="492.78" y="348.13" width="73.06" height="6.96" style="fill:none;stroke:#000;stroke-miterlimit:10"></rect><rect x="492.78" y="360.3" width="73.06" height="6.96" style="fill:none;stroke:#000;stroke-miterlimit:10"></rect><rect x="492.78" y="372.48" width="73.06" height="6.96" style="fill:none;stroke:#000;stroke-miterlimit:10"></rect><rect x="492.78" y="384.66" width="73.06" height="6.96" style="fill:none;stroke:#000;stroke-miterlimit:10"></rect><rect x="492.78" y="396.83" width="73.06" height="6.96" style="fill:none;stroke:#000;stroke-miterlimit:10"></rect><rect x="492.78" y="409.01" width="73.06" height="6.96" style="fill:none;stroke:#000;stroke-miterlimit:10"></rect><rect x="492.78" y="421.19" width="73.06" height="6.96" style="fill:none;stroke:#000;stroke-miterlimit:10"></rect><rect x="492.78" y="433.36" width="73.06" height="6.96" style="fill:none;stroke:#000;stroke-miterlimit:10"></rect><rect x="492.78" y="445.54" width="73.06" height="6.96" style="fill:none;stroke:#000;stroke-miterlimit:10"></rect><line x1="619.77" y1="178.81" x2="619.77" y2="447.86" style="fill:none;stroke:#000;stroke-miterlimit:10"></line><line x1="634.84" y1="127.78" x2="634.84" y2="447.86" style="fill:none;stroke:#000;stroke-miterlimit:10"></line><rect x="424.94" y="386.4" width="36.53" height="19.14" style="fill:none;stroke:#000;stroke-miterlimit:10"></rect><rect x="433.63" y="352.76" width="19.14" height="33.63" style="fill:none;stroke:#000;stroke-miterlimit:10"></rect><line x1="279.78" y1="281.85" x2="279.78" y2="447.98" style="fill:none;stroke:#000;stroke-miterlimit:10"></line><line x1="489.61" y1="263.64" x2="400.9" y2="263.64" style="fill:none;stroke:#000;stroke-miterlimit:10"></line><line x1="489.61" y1="273.55" x2="400.9" y2="273.55" style="fill:none;stroke:#000;stroke-miterlimit:10"></line><rect x="404.86" y="280.98" width="13.53" height="9.91" style="fill:none;stroke:#000;stroke-miterlimit:10"></rect><rect x="421.55" y="280.98" width="13.53" height="9.91" style="fill:none;stroke:#000;stroke-miterlimit:10"></rect><rect x="438.24" y="280.98" width="13.53" height="9.91" style="fill:none;stroke:#000;stroke-miterlimit:10"></rect><rect x="454.93" y="280.98" width="13.53" height="9.91" style="fill:none;stroke:#000;stroke-miterlimit:10"></rect><rect x="471.62" y="280.98" width="13.53" height="9.91" style="fill:none;stroke:#000;stroke-miterlimit:10"></rect><rect x="404.86" y="296.35" width="13.53" height="9.91" style="fill:none;stroke:#000;stroke-miterlimit:10"></rect><rect x="421.55" y="296.35" width="13.53" height="9.91" style="fill:none;stroke:#000;stroke-miterlimit:10"></rect><rect x="438.24" y="296.35" width="13.53" height="9.91" style="fill:none;stroke:#000;stroke-miterlimit:10"></rect><rect x="454.93" y="296.35" width="13.53" height="9.91" style="fill:none;stroke:#000;stroke-miterlimit:10"></rect><rect x="471.62" y="296.35" width="13.53" height="9.91" style="fill:none;stroke:#000;stroke-miterlimit:10"></rect><rect x="404.86" y="311.71" width="13.53" height="9.91" style="fill:none;stroke:#000;stroke-miterlimit:10"></rect><rect x="421.55" y="311.71" width="13.53" height="9.91" style="fill:none;stroke:#000;stroke-miterlimit:10"></rect><rect x="438.24" y="311.71" width="13.53" height="9.91" style="fill:none;stroke:#000;stroke-miterlimit:10"></rect><rect x="454.93" y="311.71" width="13.53" height="9.91" style="fill:none;stroke:#000;stroke-miterlimit:10"></rect><rect x="471.62" y="311.71" width="13.53" height="9.91" style="fill:none;stroke:#000;stroke-miterlimit:10"></rect><rect x="404.86" y="339.46" width="13.53" height="9.91" style="fill:none;stroke:#000;stroke-miterlimit:10"></rect><rect x="421.55" y="339.46" width="13.53" height="9.91" style="fill:none;stroke:#000;stroke-miterlimit:10"></rect><rect x="438.24" y="339.46" width="13.53" height="9.91" style="fill:none;stroke:#000;stroke-miterlimit:10"></rect><rect x="454.93" y="339.46" width="13.53" height="9.91" style="fill:none;stroke:#000;stroke-miterlimit:10"></rect><rect x="471.62" y="339.46" width="13.53" height="9.91" style="fill:none;stroke:#000;stroke-miterlimit:10"></rect></g></g><g id="Crane"><line x1="228.92" y1="70.66" x2="245.6" y2="5.87" style="fill:none;stroke:#263238;stroke-linecap:round;stroke-linejoin:round"></line><line x1="284.97" y1="70.66" x2="268.3" y2="5.87" style="fill:none;stroke:#263238;stroke-linecap:round;stroke-linejoin:round"></line><line x1="257.18" y1="67.99" x2="257.18" y2="5.2" style="fill:none;stroke:#263238;stroke-linecap:round;stroke-linejoin:round"></line><polygon points="270.94 16.4 242.95 16.4 257.27 9.98 270.94 16.4" style="fill:none;stroke:#263238;stroke-linecap:round;stroke-linejoin:round"></polygon><polygon points="270.94 16.61 242.95 16.61 257.27 23.02 270.94 16.61" style="fill:none;stroke:#263238;stroke-linecap:round;stroke-linejoin:round"></polygon><polygon points="274.57 29.59 239.31 29.59 257.35 23.17 274.57 29.59" style="fill:none;stroke:#263238;stroke-linecap:round;stroke-linejoin:round"></polygon><polygon points="274.57 29.79 239.31 29.79 257.35 36.2 274.57 29.79" style="fill:none;stroke:#263238;stroke-linecap:round;stroke-linejoin:round"></polygon><polygon points="277.76 42.77 236.13 42.77 257.43 36.36 277.76 42.77" style="fill:none;stroke:#263238;stroke-linecap:round;stroke-linejoin:round"></polygon><polygon points="277.76 42.98 236.13 42.98 257.43 49.39 277.76 42.98" style="fill:none;stroke:#263238;stroke-linecap:round;stroke-linejoin:round"></polygon><polygon points="281.17 55.96 232.72 55.96 257.51 49.55 281.17 55.96" style="fill:none;stroke:#263238;stroke-linecap:round;stroke-linejoin:round"></polygon><polygon points="281.17 56.17 232.72 56.17 257.51 62.58 281.17 56.17" style="fill:none;stroke:#263238;stroke-linecap:round;stroke-linejoin:round"></polygon><path d="M294.91,152.52h-2.16v23.79l-.92.92-14.95-15,14.42-14.42h-4.24l-12.3,12.3-12.3-12.3h-4.25l14.42,14.42-17.19,17.19-13.93-13.93L255.08,152,253,149.83l-13.57,13.58-15.56-15.56h-4.24l17.67,17.68-14.95,14.95-.87-.87V152.52h-5V499.85h5v-8.64l9.26,9.26h4.24l-11.53-11.53,15-14.95,14.95,14.95L241.8,500.47H246l9.4-9.41,9.41,9.41h4.24l-11.52-11.53L272.52,474l15,14.95L276,500.47h4.24l9.41-9.41,3.15,3.16v5.63H298V152.52Zm-20.15,11.87,14.95,15-17.19,17.19-14.95-14.95Zm-51.35,153.8,15-15,14.95,15-14.95,14.95Zm29.91,34.15-14.95,15-15-15,15-15ZM223.41,284l15-15,14.95,15L238.37,299Zm0-34.15,15-15,14.95,15-14.95,14.95ZM236.25,267l-14.81,14.81V252.16Zm0,34.15-14.81,14.81V286.31Zm0,34.15-14.81,14.81V320.46Zm0,34.15-14.81,14.81V354.61Zm-12.84,17.08,15-14.95,14.95,14.95-14.95,14.95Zm12.84,17.08-14.81,14.8V388.76Zm19.19-15,15,15-15,14.95-14.95-14.95Zm-14.95-19.2,14.95-15,15,15-15,15Zm0-34.15,14.95-14.95,15,14.95-15,15Zm0-34.15,14.95-14.95,15,14.95-15,15Zm0-34.15L255.44,252l15,14.95-15,15Zm0-34.15,14.95-14.95,15,14.95-15,15Zm-2.12-2.12-15-14.95,15-15,14.95,15Zm-2.12,2.12-14.81,14.81V218Zm-14.81,190.1,14.81,14.81-14.81,14.8Zm2-2.27,15-14.95,14.95,14.95-14.95,15Zm32,2.12,15,15-15,14.95-14.95-14.95Zm2.13-2.12,14.95-14.95,15,14.95-15,15Zm0-34.15,14.95-14.95,15,14.95-15,14.95Zm0-34.15,14.95-15,15,15-15,15Zm0-34.15,14.95-15,15,15-15,14.95Zm0-34.15,14.95-15,15,15-15,14.95Zm0-34.15,14.95-15,15,15-15,14.95Zm0-34.15,14.95-15,15,15-15,14.95Zm12.83-17.08-15,15-14.95-15,14.95-14.95Zm-31-31,13.93,13.94-14.95,14.95L224.43,182.6Zm-17.08,17.07,13.94,13.94-14.81,14.8V185.59Zm-.87,302V457.06l14.81,14.81Zm2-31.88,15-15,14.95,15-14.95,15Zm32,32-14.95-14.95,14.95-15,15,15Zm2.13-32,14.95-15,15,15-15,15ZM292.75,490l-1-1,1-1Zm0-6.31-3.15,3.15-15-14.95,14.95-15,3.16,3.16Zm0-27.84-1-1,1-1Zm0-6.32-3.16,3.16-14.95-14.95,15-15,3.15,3.16Zm0-27.83-1-1,1-1Zm0-6.32-3.15,3.16-15-14.95,14.95-15,3.16,3.16Zm0-27.83-1-1,1-1Zm0-6.32-3.16,3.16-14.95-15,15-15,3.15,3.16Zm0-27.84-1-1,1-1Zm0-6.31-3.15,3.16-15-15,14.95-14.95,3.16,3.16Zm0-27.84-1-1,1-1Zm0-6.31-3.16,3.16-14.95-15,14.95-14.95,3.16,3.16Zm0-27.84-1-1,1-1Zm0-6.31-3.16,3.16-14.95-15,15-14.95,3.15,3.15Zm0-27.84-1-1,1-1Zm0-6.31-3.15,3.16-15-15,15-14.95,3.15,3.15Zm0-27.84-1-1,1-1Zm0-6.31-3.15,3.16-15-15,17.19-17.19.92.92Z" style="fill:#263238"></path><rect x="375.41" y="266.37" width="148.59" height="29.08" transform="translate(899.42 561.82) rotate(180)" style="fill:#92E3A9;stroke:#263238;stroke-miterlimit:10"></rect><rect x="375.41" y="243.68" width="13.21" height="22.69" style="fill:#fff;stroke:#263238;stroke-miterlimit:10"></rect><rect x="375.41" y="261.06" width="13.21" height="5.31" style="fill:#263238;stroke:#263238;stroke-miterlimit:10"></rect><polygon points="388.63 250.16 375.41 263.37 375.41 266.37 377.28 266.37 388.63 255.02 388.63 250.16" style="fill:#263238"></polygon><polygon points="388.63 247.15 388.63 243.68 387.23 243.68 375.41 255.49 375.41 260.36 388.63 247.15" style="fill:#263238"></polygon><polygon points="379.35 243.68 375.41 247.62 375.41 252.48 384.21 243.68 379.35 243.68" style="fill:#263238"></polygon><line x1="382.02" y1="243.68" x2="382.02" y2="86.55" style="fill:none;stroke:#263238;stroke-miterlimit:10"></line><rect x="379.35" y="239.45" width="5.51" height="4.23" style="fill:#263238"></rect><rect x="510.8" y="243.68" width="13.21" height="22.69" style="fill:#fff;stroke:#263238;stroke-miterlimit:10"></rect><rect x="510.8" y="261.06" width="13.21" height="5.31" style="fill:#263238;stroke:#263238;stroke-miterlimit:10"></rect><polygon points="524.01 250.16 510.8 263.37 510.8 266.37 512.66 266.37 524.01 255.02 524.01 250.16" style="fill:#263238"></polygon><polygon points="524.01 247.15 524.01 243.68 522.61 243.68 510.8 255.49 510.8 260.36 524.01 247.15" style="fill:#263238"></polygon><polygon points="514.73 243.68 510.8 247.62 510.8 252.48 519.59 243.68 514.73 243.68" style="fill:#263238"></polygon><line x1="517.4" y1="243.68" x2="517.4" y2="86.55" style="fill:none;stroke:#263238;stroke-miterlimit:10"></line><rect x="514.73" y="239.45" width="5.51" height="4.23" style="fill:#263238"></rect><polygon points="296.52 46.17 279.34 65.28 313.7 65.28 296.52 46.17" style="fill:none;stroke:#263238;stroke-miterlimit:10;stroke-width:2px"></polygon><polygon points="329.88 46.17 312.7 65.28 347.06 65.28 329.88 46.17" style="fill:none;stroke:#263238;stroke-miterlimit:10;stroke-width:2px"></polygon><polygon points="363.25 46.17 346.07 65.28 380.42 65.28 363.25 46.17" style="fill:none;stroke:#263238;stroke-miterlimit:10;stroke-width:2px"></polygon><polygon points="396.61 46.17 379.43 65.28 413.79 65.28 396.61 46.17" style="fill:none;stroke:#263238;stroke-miterlimit:10;stroke-width:2px"></polygon><polygon points="429.97 46.17 412.79 65.28 447.15 65.28 429.97 46.17" style="fill:none;stroke:#263238;stroke-miterlimit:10;stroke-width:2px"></polygon><polygon points="463.33 46.17 446.16 65.28 480.51 65.28 463.33 46.17" style="fill:none;stroke:#263238;stroke-miterlimit:10;stroke-width:2px"></polygon><polygon points="496.7 46.17 479.52 65.28 513.87 65.28 496.7 46.17" style="fill:none;stroke:#263238;stroke-miterlimit:10;stroke-width:2px"></polygon><polygon points="530.06 46.17 512.88 65.28 547.24 65.28 530.06 46.17" style="fill:none;stroke:#263238;stroke-miterlimit:10;stroke-width:2px"></polygon><polygon points="563.42 46.17 546.25 65.28 580.6 65.28 563.42 46.17" style="fill:none;stroke:#263238;stroke-miterlimit:10;stroke-width:2px"></polygon><polygon points="596.79 46.17 579.61 65.28 613.96 65.28 596.79 46.17" style="fill:none;stroke:#263238;stroke-miterlimit:10;stroke-width:2px"></polygon><line x1="596.79" y1="46.17" x2="296.52" y2="46.17" style="fill:none;stroke:#263238;stroke-miterlimit:10;stroke-width:2px"></line><polygon points="394.55 88.43 369.41 88.43 366.89 73.34 397.06 73.34 394.55 88.43" style="fill:#263238;stroke:#263238;stroke-miterlimit:10"></polygon><polygon points="529.78 88.43 504.64 88.43 502.13 73.34 532.3 73.34 529.78 88.43" style="fill:#263238;stroke:#263238;stroke-miterlimit:10"></polygon><rect x="211.2" y="114.77" width="18.8" height="19.1" style="fill:#92E3A9;stroke:#263238;stroke-miterlimit:10"></rect><rect x="227.06" y="73.12" width="59.77" height="60.75" style="fill:#92E3A9;stroke:#263238;stroke-miterlimit:10"></rect><rect x="248.39" y="73.12" width="38.44" height="31.99" style="fill:#fff;stroke:#263238;stroke-miterlimit:10"></rect><polygon points="285.24 138.86 228.55 138.86 227.06 133.88 286.73 133.88 285.24 138.86" style="fill:#92E3A9;stroke:#263238;stroke-miterlimit:10"></polygon><rect x="233.29" y="141.74" width="47.35" height="2.95" style="fill:#92E3A9;stroke:#263238;stroke-miterlimit:10"></rect><rect x="230.61" y="138.86" width="52.71" height="2.95" style="fill:#92E3A9;stroke:#263238;stroke-miterlimit:10"></rect><rect x="210.93" y="144.2" width="91.18" height="8.56" style="fill:#92E3A9;stroke:#263238;stroke-miterlimit:10"></rect><rect x="144.36" y="65.26" width="485.88" height="8.14" style="fill:#92E3A9;stroke:#263238;stroke-miterlimit:10"></rect><line x1="478.94" y1="45.34" x2="385.69" y2="6.44" style="fill:none;stroke:#263238;stroke-miterlimit:10"></line><line x1="117.08" y1="45.34" x2="210.33" y2="6.44" style="fill:none;stroke:#263238;stroke-miterlimit:10"></line><line x1="139.71" y1="45.34" x2="220.66" y2="6.44" style="fill:none;stroke:#263238;stroke-miterlimit:10"></line><polygon points="310.49 73.4 327.77 73.4 335.91 65.26 318.63 65.26 310.49 73.4" style="fill:#263238;stroke:#263238;stroke-miterlimit:10"></polygon><polygon points="409.2 65.26 391.93 65.26 383.79 73.4 401.07 73.4 409.2 65.26" style="fill:#263238;stroke:#263238;stroke-miterlimit:10"></polygon><polygon points="372.56 65.26 355.28 65.26 347.14 73.4 364.42 73.4 372.56 65.26" style="fill:#263238;stroke:#263238;stroke-miterlimit:10"></polygon><polygon points="445.85 65.26 428.58 65.26 420.44 73.4 437.71 73.4 445.85 65.26" style="fill:#263238;stroke:#263238;stroke-miterlimit:10"></polygon><polygon points="482.5 65.26 465.22 65.26 457.09 73.4 474.36 73.4 482.5 65.26" style="fill:#263238;stroke:#263238;stroke-miterlimit:10"></polygon><polygon points="592.44 65.26 575.17 65.26 567.03 73.4 584.3 73.4 592.44 65.26" style="fill:#263238;stroke:#263238;stroke-miterlimit:10"></polygon><polygon points="555.8 65.26 538.52 65.26 530.38 73.4 547.66 73.4 555.8 65.26" style="fill:#263238;stroke:#263238;stroke-miterlimit:10"></polygon><polygon points="519.15 65.26 501.87 65.26 493.73 73.4 511.01 73.4 519.15 65.26" style="fill:#263238;stroke:#263238;stroke-miterlimit:10"></polygon><polygon points="629.09 65.26 611.82 65.26 603.68 73.4 620.95 73.4 629.09 65.26" style="fill:#263238;stroke:#263238;stroke-miterlimit:10"></polygon><rect x="107.52" y="43.25" width="56.93" height="62.77" style="fill:#263238;stroke:#263238;stroke-miterlimit:10"></rect><rect x="466.36" y="42.39" width="18.55" height="3.09" style="fill:#fff;stroke:#263238;stroke-miterlimit:10"></rect><rect x="227.06" y="73.12" width="60" height="5.29" style="fill:#263238;stroke:#263238;stroke-miterlimit:10"></rect></g><g id="character-3"><path d="M564.07,217l-11.68-3.68L529.5,204.7,527.39,211l25.46,17.1s8.92,3.59,9.56,4S565.72,218,565.72,218Z" style="fill:#fff;stroke:#263238;stroke-miterlimit:10"></path><path d="M530.6,204.06l-2.11,9.47L524.35,211s-7.35-.27-8.18-.46a4.38,4.38,0,0,1-1.28-.46s-1.11-9.19-.37-9.46a34.36,34.36,0,0,1,5.42-.46c.83,0,8.18,3.4,8.18,3.4Z" style="fill:#92E3A9;stroke:#263238;stroke-miterlimit:10"></path><path d="M527.29,203.6s-4.5-4.6-5.23-4.87a7,7,0,0,0-3.13.09c-.55.18-.83.64-.55,1.38s.09,5.05.46,5.42a1.57,1.57,0,0,0,1.65.28,2.37,2.37,0,0,0,.74-1,3.83,3.83,0,0,0,1.19,1.47,3,3,0,0,0,2.67-.18" style="fill:#92E3A9;stroke:#263238;stroke-miterlimit:10"></path><line x1="521.23" y1="204.88" x2="521.04" y2="201.57" style="fill:none;stroke:#263238;stroke-miterlimit:10"></line><path d="M516.17,202.49h-1.74a1.37,1.37,0,0,1-1.38-1.37h0a1.37,1.37,0,0,1,1.38-1.38h1.74a1.38,1.38,0,0,1,1.38,1.38h0A1.37,1.37,0,0,1,516.17,202.49Z" style="fill:#92E3A9;stroke:#263238;stroke-miterlimit:10"></path><path d="M516.54,205.56h-1.75a1.38,1.38,0,0,1-1.38-1.38h0a1.38,1.38,0,0,1,1.38-1.38h1.75a1.38,1.38,0,0,1,1.38,1.38h0A1.38,1.38,0,0,1,516.54,205.56Z" style="fill:#92E3A9;stroke:#263238;stroke-miterlimit:10"></path><path d="M517.28,208.12h-1.92a1.18,1.18,0,0,1-1.18-1.18h0a1.17,1.17,0,0,1,1.18-1.17h1.92a1.17,1.17,0,0,1,1.17,1.17h0A1.17,1.17,0,0,1,517.28,208.12Z" style="fill:#92E3A9;stroke:#263238;stroke-miterlimit:10"></path><path d="M517.39,210.6h-1.91a1.17,1.17,0,0,1-1.18-1.17h0a1.18,1.18,0,0,1,1.18-1.18h1.91a1.18,1.18,0,0,1,1.18,1.18h0A1.17,1.17,0,0,1,517.39,210.6Z" style="fill:#92E3A9;stroke:#263238;stroke-miterlimit:10"></path><path d="M557,326.38s-8,5.71-8.56,5.84-4.15.77-4.54,1.55a3.45,3.45,0,0,0-.39,2.72c.39.78,25.55,0,25.55,0a6.18,6.18,0,0,0,.26-3,44.37,44.37,0,0,1-.26-4.93Z" style="fill:#fff;stroke:#263238;stroke-miterlimit:10"></path><path d="M569.34,335.07H543.41a2.19,2.19,0,0,0,.08,1.42c.39.78,25.55,0,25.55,0A5.7,5.7,0,0,0,569.34,335.07Z" style="fill:#fff;stroke:#263238;stroke-miterlimit:10"></path><path d="M620,325.34l-1.56,4.41-5.83,5.06s-.39,1.43.26,1.68,11.8,0,11.8,0a13.15,13.15,0,0,0,2.46-1.55c.65-.65,6.23-8.69,6.1-9.6s-3.5-3.76-3.5-3.76Z" style="fill:#fff;stroke:#263238;stroke-miterlimit:10"></path><path d="M627.14,334.94c.65-.65,6.23-8.69,6.1-9.6a4.17,4.17,0,0,0-1.07-1.48c-2,3.34-5.86,9.69-6.71,10.17s-9.57.79-12.87.88c-.07.32-.26,1.37.29,1.58s11.8,0,11.8,0A13.15,13.15,0,0,0,627.14,334.94Z" style="fill:#fff;stroke:#263238;stroke-miterlimit:10"></path><path d="M578.38,261.28a36.28,36.28,0,0,0-1,3.76c0,.52.13,2.2.13,2.2s-16.86,20-17.89,21.92-1.69,35.4-1.69,35.4-1.56.39-1.56.91a9.19,9.19,0,0,1-.26,1.56,36.75,36.75,0,0,0,5.19,2.59c2,.65,7.13,1.56,7.13,1.56a6.72,6.72,0,0,0,.65-2.6c0-1.29-.39-3.63-.39-4S574,295.51,574,295.51l16.47-18.15s7,20.23,8.43,21.4,19.19,24.64,19.19,24.64-1.29.77-.64,1.16a12.27,12.27,0,0,1,1.94,2.6s5.19-.78,7.26-2.08a9.24,9.24,0,0,0,3.12-3.5s-1.56-2.72-2.21-3.5S626,316,626,316l-14.91-26.19s-3.5-29.31-4.54-32-4.67-7-4.67-7Z" style="fill:#a1a1a1;stroke:#263238;stroke-miterlimit:10"></path><polygon points="577.6 263.87 603.54 252.59 601.85 250.77 578.25 260.24 577.6 263.87" style="fill:#263238;stroke:#263238;stroke-miterlimit:10"></polygon><path d="M583.31,262.57l.65,2.08s-1.3.78-1,1.43a12.26,12.26,0,0,0,1.94,2.2" style="fill:none;stroke:#263238;stroke-miterlimit:10"></path><path d="M585.38,261.67l1,2.33s-1.3,1-.65,1.95a17.6,17.6,0,0,0,1.56,1.81" style="fill:none;stroke:#263238;stroke-miterlimit:10"></path><rect x="593.29" y="253.11" width="8.69" height="12.19" rx="3.15" transform="translate(-53.3 284.47) rotate(-25.67)" style="fill:#263238;stroke:#263238;stroke-miterlimit:10"></rect><line x1="585.89" y1="271.62" x2="584.99" y2="270.49" style="fill:none;stroke:#263238;stroke-miterlimit:10"></line><line x1="590.44" y1="277.36" x2="587.6" y2="273.77" style="fill:none;stroke:#263238;stroke-miterlimit:10"></line><line x1="619.29" y1="309.51" x2="621.44" y2="313.28" style="fill:none;stroke:#263238;stroke-miterlimit:10"></line><path d="M603.28,266.85l4.93,22.44-.39,1.82s1.55.25,1.55.64v.39L617.85,307" style="fill:none;stroke:#263238;stroke-miterlimit:10"></path><line x1="565.99" y1="317.46" x2="565.15" y2="323.66" style="fill:none;stroke:#263238;stroke-miterlimit:10"></line><path d="M586,276.45,569.82,295s-2.59-.26-2.2.38a15.41,15.41,0,0,0,1.16,1.56l-2.5,18.42" style="fill:none;stroke:#263238;stroke-miterlimit:10"></path><path d="M560.85,229.06s1.28,12.78,2.39,14.16,11.67,11.58,11.67,11.58,2.12,6.34,2.21,6.8-.56,1.25,1,1,23.17-10.07,23.91-10.8a4.38,4.38,0,0,0,1.1-2.67,4.21,4.21,0,0,0-1-2,17.66,17.66,0,0,0-2.11-1.66s-10-17-12.23-19.12-10.29-9.19-14-9.93a44.55,44.55,0,0,0-8.55-.55Z" style="fill:#92E3A9;stroke:#263238;stroke-miterlimit:10"></path><path d="M543.11,225.75s3.31,3.86,3.67,3.68a13.75,13.75,0,0,0,1.66-2.12s5.33,2.95,5.88,2.49a30.08,30.08,0,0,0,2.39-3.77l2.94,1.93,4-11.77-4.69-1-2.67-4Z" style="fill:#fff;stroke:#263238;stroke-miterlimit:10"></path><path d="M547.72,220.62c.53.1,2.9.49,3.48.17s1.28-.83,1.19-1.66c0,0-.64-2.57.55-3.31s2.12-.18,2.58,1.11a4.92,4.92,0,0,1,0,2.75s2.39-1.37,2.66-2.66a4.55,4.55,0,0,1,.74-1.84l-2.67-4Z" style="fill:#263238;stroke:#263238;stroke-miterlimit:10"></path><path d="M538.6,211.14a11.12,11.12,0,0,0-2.11,5.42c-.09,2.76,4.13,7.63,4.23,7.9s.18,5.06.18,5.06l17.93-19a13.2,13.2,0,0,1-4-1.1c-1.1-.74-3.77-3.4-7-3.31S540.26,208.84,538.6,211.14Z" style="fill:#fff;stroke:#263238;stroke-miterlimit:10"></path><polygon points="562.87 215.27 558.55 229.24 562.41 232.09 566.36 215.36 562.87 215.27" style="fill:#fff;stroke:#263238;stroke-miterlimit:10"></polygon><path d="M562.87,242.37,587,225.57c-1.1-1-2.77-2.46-4.59-3.92l-20.72,14.43A49.21,49.21,0,0,0,562.87,242.37Z" style="fill:#fff;stroke:#263238;stroke-miterlimit:10"></path><path d="M595.68,238.23l-24.36,13.08c2,2,3.59,3.49,3.59,3.49l.34,1,23.45-12.59C597.92,241.92,596.86,240.14,595.68,238.23Z" style="fill:#fff;stroke:#263238;stroke-miterlimit:10"></path><path d="M568,238.8s6.16,3.41,10.11,2,4-9,2.48-13.15-8.09-7.63-12.22-7.26-10,9.56-10.39,9.74-8.18,7.54-8.18,7.54l-20.41-4.14-2.21,7.18s24.55,8,25.56,8.18a9.14,9.14,0,0,0,3.68-.56C557.08,248.09,568,238.8,568,238.8Z" style="fill:#fff;stroke:#263238;stroke-miterlimit:10"></path><line x1="568.02" y1="238.41" x2="575.19" y2="233.26" style="fill:none;stroke:#263238;stroke-miterlimit:10"></line><line x1="569.67" y1="237.79" x2="575.83" y2="235.4" style="fill:none;stroke:#263238;stroke-miterlimit:10"></line><path d="M533.5,233.49l-7.12-3.05-3.87-3.31a17,17,0,0,1-2.75-1.47c-.65-.55-.83-1.84-1.66-1.2s-1.28,1.48-1,2.12a7.49,7.49,0,0,0,1.38,1.65l.55.83-3.12.09s-1,1-.56,2a5.63,5.63,0,0,0,1.57,1.84s-.19,3.77.64,4.78,7.26,2.3,7.26,2.3l5.61,2.48Z" style="fill:#92E3A9;stroke:#263238;stroke-miterlimit:10"></path></g><g id="character-2"><path d="M159.34,254.45l-15.71.69-15.71-.69,1.79,32.39,2.76,36.52s-1.38,1-1.11,1.93,1,4.55,1,4.55h22.6s.69-3.58,1-4.55-1.11-1.93-1.11-1.93l2.76-36.52Z" style="fill:#a1a1a1;stroke:#263238;stroke-miterlimit:10"></path><path d="M159,210.55l11.76,10.5s10.62-10.28,11.76-10.05,4.34,3.54,4.23,4.11-12.33,18.73-13.36,19.3a5.79,5.79,0,0,1-5.14.69C165.63,234.3,159,228,159,228Z" style="fill:#fff;stroke:#263238;stroke-miterlimit:10"></path><path d="M134.41,206.31l-10,5.09,1.28,35.49s-1.66.93-1.24,1.66a16.61,16.61,0,0,0,1.24,1.76s3.07,1,3.38,2.6l.29,1.14H158s2.28-2.08,2.59-3a7.57,7.57,0,0,0-.41-3.53c-.21-.62-1.25-3.11-1.25-3.11s1.21-34,.9-34.43-10.9-3.55-10.9-3.55l-7.06-1.87Z" style="fill:#92E3A9;stroke:#263238;stroke-miterlimit:10"></path><polygon points="158.94 240.03 125.64 240.03 125.3 232.22 159.21 232.22 158.94 240.03" style="fill:#fff;stroke:#263238;stroke-miterlimit:10"></polygon><polygon points="159.68 217.46 124.73 217.46 124.46 213.18 159.88 213.18 159.68 217.46" style="fill:#fff;stroke:#263238;stroke-miterlimit:10"></polygon><path d="M148.94,206.42l-7.06-1.87-7.47,1.76-.88.45a24.23,24.23,0,0,0,3.27,7.54c2.7,3.84,4.67,6.69,6.12,6.69s6-6.17,6.85-8.87a47.2,47.2,0,0,0,1.19-5.34Z" style="fill:#fff;stroke:#263238;stroke-miterlimit:10"></path><path d="M152.89,189.4s.41,2.59,1.14,3.42,2.28.1,2.8,1.66-2.28,2.91-2.28,2.91-.11,4.15-.32,5.19-.62,1.35-2.18,1.76a16.74,16.74,0,0,1-4,.31l-5.4,7.37-6.54-8.3.21-3.43-2.7-4.36Z" style="fill:#fff;stroke:#263238;stroke-miterlimit:10"></path><path d="M135.87,199.57s2.8,2,3.73,1.55,1-2.59,1.14-3,.42-3,.42-3,1.14-.1,1.87,2.18a18.27,18.27,0,0,0,3.21,6c1.25,1.46,1.77,1.35,1.77,1.35s4.36.42,5.71-.62,1.45-1.25,1.34-2.49.42-3.84-.51-4.15-3.53,1.14-4.67,1.76-.73,1.25-2,.62a8,8,0,0,1-3.21-2.49c-.52-.93-.31-4.56-.31-4.56l-10.8,3.21A5.85,5.85,0,0,0,135.87,199.57Z" style="fill:#263238;stroke:#263238;stroke-miterlimit:10"></path><polygon points="138.56 194.07 134.1 199.77 136.38 201.85 141.78 193.55 138.56 194.07" style="fill:#fff;stroke:#263238;stroke-miterlimit:10"></polygon><path d="M132.93,197.05l24.46-8.27a17.61,17.61,0,0,1-5.34-2.8c-1-1-1.36-2.41-2.06-3.59-2.07-3.47-7.71-3.75-11.13-2.63-4.4,1.44-8.44,5.9-7.46,10.8a33.36,33.36,0,0,0,1.14,3.82A9.84,9.84,0,0,1,132.93,197.05Z" style="fill:#fff;stroke:#263238;stroke-miterlimit:10"></path><path d="M142.51,196.45s-1.35-2.59-3.12-1.35-.1,3.84.83,4.78,2.6-.31,2.81-.62" style="fill:#fff;stroke:#263238;stroke-miterlimit:10"></path><polygon points="142.61 212.02 138.56 215.34 133.69 206.1 136.07 203.72 142.61 212.02" style="fill:#fff;stroke:#263238;stroke-miterlimit:10"></polygon><polygon points="142.61 212.02 146.97 215.44 150.4 206.62 148.01 204.65 142.61 212.02" style="fill:#fff;stroke:#263238;stroke-miterlimit:10"></polygon><line x1="142.83" y1="222.03" x2="142.83" y2="252.51" style="fill:#fff;stroke:#263238;stroke-miterlimit:10"></line><rect x="129.11" y="252.89" width="30.47" height="3.43" style="fill:#263238;stroke:#263238;stroke-miterlimit:10"></rect><rect x="124.07" y="250.89" width="5.62" height="12.19" style="fill:#263238;stroke:#263238;stroke-miterlimit:10"></rect><line x1="143.82" y1="301.74" x2="144.04" y2="267.68" style="fill:none;stroke:#263238;stroke-miterlimit:10"></line><line x1="143.63" y1="329.84" x2="143.79" y2="305.62" style="fill:none;stroke:#263238;stroke-miterlimit:10"></line><line x1="141.29" y1="267.68" x2="146.25" y2="267.68" style="fill:none;stroke:#263238;stroke-miterlimit:10"></line><path d="M143.44,331.36s.69-3.65,3.08-4.8,5.49.69,6.63,1.72,1.79,1.56,1.79,1.56a17.09,17.09,0,0,0,2,2.55c.68.57,2.05.8,2.39,1.71a12.39,12.39,0,0,1,.46,2.74H143.21Z" style="fill:#fff;stroke:#263238;stroke-miterlimit:10"></path><path d="M159.77,336.84H143.21l.08-1.83h16.26A18.28,18.28,0,0,1,159.77,336.84Z" style="fill:#fff;stroke:#263238;stroke-miterlimit:10"></path><path d="M143.82,331.36s-.68-3.65-3.08-4.8-5.48.69-6.62,1.72-1.79,1.56-1.79,1.56a17.81,17.81,0,0,1-2,2.55c-.69.57-2.06.8-2.4,1.71a13.05,13.05,0,0,0-.46,2.74h16.56Z" style="fill:#fff;stroke:#263238;stroke-miterlimit:10"></path><path d="M127.49,336.84h16.56L144,335H127.72A16.71,16.71,0,0,0,127.49,336.84Z" style="fill:#fff;stroke:#263238;stroke-miterlimit:10"></path><path d="M124.45,211.4a74,74,0,0,0-5.06,13.3c-2.06,7.54-3.43,13.94-3.77,18.85s-.92,13.13-.69,13.59,5.71.11,6.17-.12,3.65-13,3.65-13l1.94-7-.57-24.21Z" style="fill:#fff;stroke:#263238;stroke-miterlimit:10"></path><path d="M113.75,255.29a18.08,18.08,0,0,1,.9,2.72,64.85,64.85,0,0,1,.74,7,33.24,33.24,0,0,0,1.94,5.71c.46.69,2.17,1.6,3.08,1.26s1.6-.8,1.37-1.37a8,8,0,0,0-.68-1.26s1.25-.68,1.37-1.59a26.06,26.06,0,0,0,.23-6.17c-.17-.92-.81-3-1-4.14a4.74,4.74,0,0,1,.62-2.58Z" style="fill:#92E3A9;stroke:#263238;stroke-miterlimit:10"></path><path d="M121.1,269.35s-.69-2.51-.69-2.85L121,264" style="fill:none;stroke:#263238;stroke-miterlimit:10"></path><path d="M197.34,202.45c-.28,0-4.05,2.44-4.05,2.44l-.9-.07a63.21,63.21,0,0,0,3.9-5.16c.14-.56-.49-.7-.77-.7s-4.6,3.35-4.6,3.35l-.83-.14s2.09-3.21,2.37-3.77.14-.77-.28-.9a1.38,1.38,0,0,0-1.54.76c-.34.7-7.66,7.53-7.8,7.88a33.92,33.92,0,0,0-.25,3.46l-2.47,2.74,6.27,5.58,2.58-5.09h0a4.58,4.58,0,0,1,1.2-.62,17,17,0,0,0,2.51-2.17,49.88,49.88,0,0,0,4.81-2.37c.41-.41.07-1.18.07-1.18l-4,1a49.17,49.17,0,0,0,4.39-3.9A.84.84,0,0,0,197.34,202.45Z" style="fill:#92E3A9;stroke:#263238;stroke-miterlimit:10"></path><path d="M182.84,207.39s-.07-3.48,0-3.69,2.09-2.65,2.37-3.21.9-2.09,1.46-2a1.67,1.67,0,0,1,1.25,1.67,14.54,14.54,0,0,1-1.32,2.79,23.31,23.31,0,0,0-.07,3.35,4.08,4.08,0,0,1,.07,2.23" style="fill:#92E3A9;stroke:#263238;stroke-miterlimit:10"></path></g><g id="character-1"><path d="M65.7,202.35s-5.87,9.21-6.78,12.85,2.43,22,2.43,22-1.32,8.4-.91,9.21a4.65,4.65,0,0,0,1.21,1.42H87.16a10.89,10.89,0,0,0,1.21-2.93,8.73,8.73,0,0,0-.2-3.85c-.51-1.72-1.72-21.45-2.94-25.1s-6.47-10.32-6.47-10.32Z" style="fill:#fff;stroke:#263238;stroke-miterlimit:10"></path><path d="M78.76,184.54s2.22,2.22,2.93,2.83,2.23.81,2,1.52S81.79,191,81.79,191,82.7,195,83,196.08s-.1,1.61-1.42,1.92a18.92,18.92,0,0,1-3.34.3l-.51,5.06-11.43-2.93-.41-3.24s-3.54-.41-4.25-2.84Z" style="fill:#fff;stroke:#263238;stroke-miterlimit:10"></path><path d="M68.53,197.19A3.66,3.66,0,0,0,69.65,195a3.07,3.07,0,0,1-1.42-.61,5.59,5.59,0,0,1-1.11-1.92c-.1-.61,1-1.62,2.22-1.82s1,.81,1.73.81.91,0,1.31-.3.4-2.68.41-3.15l-11.14,6.38c.71,2.43,4.25,2.84,4.25,2.84S67.42,198.4,68.53,197.19Z" style="fill:#263238;stroke:#263238;stroke-miterlimit:10"></path><polygon points="66.31 192.23 63.37 198.2 65.19 199.31 69.34 190.61 66.31 192.23" style="fill:#fff;stroke:#263238;stroke-miterlimit:10"></polygon><path d="M60.11,196.4l23-13.18a21.92,21.92,0,0,1-4.44-.4c-1.21-.4-3.23-3.23-4.84-4.57s-6.32-.67-9.41.27-6.59,6-6.59,7.66,2.55,6.73,3,7.26S60.11,196.4,60.11,196.4Z" style="fill:#fff;stroke:#263238;stroke-miterlimit:10"></path><polygon points="65.9 199.21 79.97 203.87 79.47 209.54 64.79 202.75 65.9 199.21" style="fill:#fff;stroke:#263238;stroke-miterlimit:10"></polygon><polygon points="78.25 198.3 75.52 198.1 77.75 201.44 78.25 198.3" style="fill:#263238;stroke:#263238;stroke-miterlimit:10"></polygon><polygon points="116.2 210.04 102.54 200.02 95.96 226.44 97.99 228.66 116.2 210.04" style="fill:#dedede;stroke:#263238;stroke-miterlimit:10"></polygon><path d="M110.23,196.28,97.28,227,84.83,241.31l7.59,6.28,11.33-17.41s14.48-18.22,14.88-19.43S110.23,196.28,110.23,196.28Z" style="fill:#fff;stroke:#263238;stroke-miterlimit:10"></path><path d="M68.64,272.25l-2.38,18s-2.91,22.24-3.57,27.4-.4,18.79-.4,18.79H72.48l.13-19.19-.26-32.82Z" style="fill:gray;stroke:#263238;stroke-miterlimit:10"></path><path d="M62.24,330.91c0,3.15,0,5.53,0,5.53H72.48l.06-8.06Z" style="fill:#fff;stroke:#263238;stroke-miterlimit:10"></path><path d="M62.26,334.33c0,.87,0,1.53,0,1.86v.14h0v.1H72.48v-2.11Z" style="fill:#fff;stroke:#263238;stroke-miterlimit:10"></path><path d="M83.73,326.65s3.84,3.84,5.69,4.63,4.77,1.06,5.16,2a11.24,11.24,0,0,1,.13,3.57H69.44A10.52,10.52,0,0,1,69,333a9,9,0,0,1,.66-2.38S82.14,326.52,83.73,326.65Z" style="fill:#fff;stroke:#263238;stroke-miterlimit:10"></path><path d="M69.44,336.84H94.71a20.47,20.47,0,0,0,.09-2.12H69A13.6,13.6,0,0,0,69.44,336.84Z" style="fill:#fff;stroke:#263238;stroke-miterlimit:10"></path><path d="M62.16,246.71s.13,8.07,1.32,10.32,3.57,6.09,3.57,6.09,3,25,2.52,27.4-2.25,8.6-2.12,13,2.38,22.76,2.38,22.76-.66,1.19-.53,1.59.4,2.78.4,2.78,4.1-.66,7-1.46a70.82,70.82,0,0,0,7-2.51,4.47,4.47,0,0,0,.13-2.51c-.4-.93-1.45-3.58-1.45-3.58s.39-15.62.39-18.26,2.12-14.16,2.12-16.55,2.52-24.48,2.12-27-.66-6.35-.66-6.35l.66-6Z" style="fill:#a1a1a1;stroke:#263238;stroke-miterlimit:10"></path><path d="M62.35,250.81h24.2l.49-4.37-24.88.27S62.19,248.6,62.35,250.81Z" style="fill:#263238;stroke:#263238;stroke-miterlimit:10"></path><rect x="69.83" y="246.18" width="10.59" height="13.1" rx="3.7" style="fill:#263238;stroke:#263238;stroke-miterlimit:10"></rect><path d="M76,266.46c-.1,7.28-.25,20.51-.06,22.6" style="fill:none;stroke:#263238;stroke-miterlimit:10"></path><path d="M76.05,261.66s0,.9,0,2.36" style="fill:none;stroke:#263238;stroke-miterlimit:10"></path><path d="M75.66,292s-.8,5.3-1.06,11.78.92,20.25.92,20.25a8.28,8.28,0,0,0-.53,1.86,10.48,10.48,0,0,0,.8,2.25" style="fill:none;stroke:#263238;stroke-miterlimit:10"></path><path d="M88.37,244.86a8.73,8.73,0,0,0-.2-3.85c-.51-1.72-1.72-21.45-2.94-25.1,0-.13-.09-.26-.14-.4a4.79,4.79,0,0,1-3-.21c-3.24-1.11-7.29-6.27-11.44-8.8-3.46-2.11-5.71-2-6.37-1.86-1.8,3-4.75,8.07-5.37,10.56-.91,3.65,2.43,22,2.43,22s-1.32,8.4-.91,9.21a4.65,4.65,0,0,0,1.21,1.42H87.16A10.89,10.89,0,0,0,88.37,244.86Z" style="fill:#92E3A9;stroke:#263238;stroke-miterlimit:10"></path><path d="M85.23,215.91c0-.13-.09-.26-.14-.4a4.79,4.79,0,0,1-3-.21,10.49,10.49,0,0,1-2.9-1.74H59.49a14.21,14.21,0,0,0-.57,1.64,12,12,0,0,0-.14,2.86H85.7A14.62,14.62,0,0,0,85.23,215.91Z" style="fill:#fff;stroke:#263238;stroke-miterlimit:10"></path><path d="M87.78,238c-.21-2.12-.47-5.09-.75-8.18H60.13c.62,4,1.22,7.32,1.22,7.32l-.13.86Z" style="fill:#fff;stroke:#263238;stroke-miterlimit:10"></path><path d="M77.54,230.89S76.94,215.81,76,214s-4.65-5-8.6-4.45-5.46,5.76-5.36,7.69,5.46,24.59,5.87,26,3.74,2.22,4.75,1.92,19.54-11.23,19.74-11.74-1.72-5.47-2.73-5.77S77.54,230.89,77.54,230.89Z" style="fill:#fff;stroke:#263238;stroke-miterlimit:10"></path><path d="M85.8,226.7l3.68-.46,4.13-2.6a36.84,36.84,0,0,1,3.93-2c.4,0,7.34.39,7.47.91s.39,1.84-.26,2.36a8.29,8.29,0,0,1-2.36.92s-.66,4.19-1.44,4.84a7.45,7.45,0,0,1-3.54.92H95.32l-2.66,2.1-2.54,3.12Z" style="fill:#fff;stroke:#263238;stroke-miterlimit:10"></path><line x1="76.94" y1="231.09" x2="72.38" y2="233.52" style="fill:none;stroke:#263238;stroke-miterlimit:10"></line><line x1="72.28" y1="232" x2="75.32" y2="231.29" style="fill:none;stroke:#263238;stroke-miterlimit:10"></line></g><g id="Bridge"><rect x="87.46" y="387.18" width="37.17" height="112.83" style="fill:#92E3A9;stroke:#263238;stroke-miterlimit:10"></rect><rect x="87.46" y="387.18" width="37.5" height="3.85" style="fill:#263238;stroke:#263238;stroke-miterlimit:10"></rect><rect x="74.41" y="364.34" width="63.28" height="14.54" style="fill:#92E3A9;stroke:#263238;stroke-miterlimit:10"></rect><rect x="74.34" y="362.38" width="63.34" height="6.03" style="fill:#263238;stroke:#263238;stroke-miterlimit:10"></rect><rect x="83.82" y="378.88" width="44.47" height="8.55" style="fill:#92E3A9;stroke:#263238;stroke-miterlimit:10"></rect><rect x="83.82" y="378.88" width="43.95" height="2.24" style="fill:#263238;stroke:#263238;stroke-miterlimit:10"></rect><rect x="281.31" y="387.18" width="37.17" height="112.83" style="fill:#92E3A9;stroke:#263238;stroke-miterlimit:10"></rect><rect x="281.31" y="387.18" width="37.5" height="3.85" style="fill:#263238;stroke:#263238;stroke-miterlimit:10"></rect><rect x="268.26" y="364.34" width="63.28" height="14.54" style="fill:#92E3A9;stroke:#263238;stroke-miterlimit:10"></rect><rect x="268.19" y="362.38" width="63.34" height="6.03" style="fill:#263238;stroke:#263238;stroke-miterlimit:10"></rect><rect x="277.67" y="378.88" width="44.47" height="8.55" style="fill:#92E3A9;stroke:#263238;stroke-miterlimit:10"></rect><rect x="277.67" y="378.88" width="43.95" height="2.24" style="fill:#263238;stroke:#263238;stroke-miterlimit:10"></rect><rect x="-0.02" y="336.26" width="376.73" height="29.08" style="fill:#92E3A9;stroke:#263238;stroke-miterlimit:10"></rect><rect x="579.29" y="387.18" width="37.17" height="112.83" style="fill:#92E3A9;stroke:#263238;stroke-miterlimit:10"></rect><rect x="579.29" y="387.18" width="37.5" height="3.85" style="fill:#263238;stroke:#263238;stroke-miterlimit:10"></rect><rect x="566.23" y="364.34" width="63.28" height="14.54" style="fill:#92E3A9;stroke:#263238;stroke-miterlimit:10"></rect><rect x="566.16" y="362.38" width="63.34" height="6.03" style="fill:#263238;stroke:#263238;stroke-miterlimit:10"></rect><rect x="575.64" y="378.88" width="44.47" height="8.55" style="fill:#92E3A9;stroke:#263238;stroke-miterlimit:10"></rect><rect x="575.64" y="378.88" width="43.95" height="2.24" style="fill:#263238;stroke:#263238;stroke-miterlimit:10"></rect><rect x="522.95" y="336.26" width="227.16" height="29.08" transform="translate(1273.06 701.6) rotate(180)" style="fill:#92E3A9;stroke:#263238;stroke-miterlimit:10"></rect></g></svg>
