<svg xmlns="http://www.w3.org/2000/svg" viewBox="0 0 750 500"><g id="background-simple"><path d="M663.13,107.19C642,93,616.24,83.21,595.38,73c-38.45-18.81-79.54-39.31-121.75-47.93-53.25-10.86-110.9-1.63-161.3,17.55C268.92,59.14,227.82,87.4,208.2,130.89q-1.48,3.3-2.79,6.67c-38.54,99.17-135.95,121-154.66,164.63S153.62,473.63,282.2,479.87s127.58-48,244.7-45.2c103,2.46,163-92.44,177.5-184,5.38-34.12,7.88-72.82-6.5-105.14C690.75,129.4,678.07,117.2,663.13,107.19Z" style="fill:#92E3A9"></path><path d="M663.13,107.19C642,93,616.24,83.21,595.38,73c-38.45-18.81-79.54-39.31-121.75-47.93-53.25-10.86-110.9-1.63-161.3,17.55C268.92,59.14,227.82,87.4,208.2,130.89q-1.48,3.3-2.79,6.67c-38.54,99.17-135.95,121-154.66,164.63S153.62,473.63,282.2,479.87s127.58-48,244.7-45.2c103,2.46,163-92.44,177.5-184,5.38-34.12,7.88-72.82-6.5-105.14C690.75,129.4,678.07,117.2,663.13,107.19Z" style="fill:#fff;opacity:0.7000000000000001"></path></g><g id="Clouds"><path d="M574.66,49.38a26.71,26.71,0,0,0-3,7.82c-1.16,5.22-5.22,8.12-13.93,4.06s-16.84-1.74-19.16,4.64-3.49,11.62-13.36,9.29-15.09-2.9-18,1.17a20.32,20.32,0,0,0-3.48,7H634" style="fill:none;stroke:#263238;stroke-miterlimit:10"></path><path d="M640.43,83.32h18.94c1.16,0-1.84-9-2.18-9.52-6.62-10.74-16-2.55-25.1-5.57,0,0-12.2-31.36-33.68-30.78-10.09.28-16.34,3.5-20.25,7.38" style="fill:none;stroke:#263238;stroke-miterlimit:10"></path><path d="M100.72,142.41h84.74c.8,0-1.29-6.25-1.52-6.63-4.61-7.48-11.16-1.78-17.48-3.88,0,0-4.8-12.36-13.55-18.3" style="fill:none;stroke:#263238;stroke-miterlimit:10"></path><path d="M148.31,111.28a15.21,15.21,0,0,0-5.3-.81c-14.95.4-17.78,10.11-18.59,13.75s-3.64,5.65-9.71,2.83-11.72-1.22-13.34,3.23-2.42,8.08-9.29,6.47-10.51-2-12.54.81a14.1,14.1,0,0,0-2.42,4.85H93.91" style="fill:none;stroke:#263238;stroke-miterlimit:10"></path><path d="M419.14,227.3a15.4,15.4,0,0,0-6.09-1.09c-14.95.41-17.78,10.11-18.59,13.75s-3.64,5.66-9.7,2.83S373,241.57,371.42,246s-2.43,8.09-9.3,6.47-10.51-2-12.53.81a14,14,0,0,0-2.43,4.85H455.5c.8,0-1.28-6.24-1.52-6.63-4.61-7.48-11.16-1.78-17.48-3.88,0,0-4.11-10.56-11.64-16.86" style="fill:none;stroke:#263238;stroke-miterlimit:10"></path></g><g id="plant-2"><path d="M661.25,449c0,.76.09,1.51.14,2.27.12,1.52.21,3,.35,4.54.18,1.87.42,3.73.69,5.58H663c0-.37,0-.74,0-1.12,0-1.51-.17-3-.15-4.52s0-3-.05-4.53l0-2.26,0-2.25,0-4.52.12-4.52,0-2.25c0-.76.08-1.51.13-2.26l.27-4.51a161,161,0,0,1,2.56-17.9,104.31,104.31,0,0,1,4.89-17.42h0a.09.09,0,0,0,0-.1.08.08,0,0,0-.11,0,104.7,104.7,0,0,0-5.52,17.31,160,160,0,0,0-3,17.94l-.43,4.54c-.07.76-.15,1.51-.2,2.27l-.13,2.28c-.06,1.51-.16,3-.2,4.55l0,4.56Z" style="fill:#263238"></path><path d="M666.17,461.37c.31-3.09.53-6.18.75-9.27.28-4,.31-7.9.57-11.85a105.61,105.61,0,0,1,1.41-11.74,106.89,106.89,0,0,1,2.58-11.58.08.08,0,1,0-.15-.05,105.51,105.51,0,0,0-5.11,23.26c-.4,4-.84,7.91-.9,11.89-.05,3.11,0,6.23.21,9.34Z" style="fill:#263238"></path><path d="M669.34,461.37l.57-6.58a101.75,101.75,0,0,1,1.46-11.35c.1-.47.23-.92.35-1.38a11.71,11.71,0,0,1,.4-1.35l.47-1.34.6-1.25a34.73,34.73,0,0,1,3.14-4.77,40,40,0,0,1,8.22-8h0a.09.09,0,0,0,0-.11.07.07,0,0,0-.11,0,40.06,40.06,0,0,0-8.76,7.63,35.23,35.23,0,0,0-3.42,4.76l-.7,1.33-.56,1.38c-.19.45-.33.93-.48,1.4s-.3.94-.42,1.41a55.34,55.34,0,0,0-1.81,11.55q-.15,3.35,0,6.69Z" style="fill:#263238"></path><path d="M671.06,461.37h.77c.08-.45.15-.9.21-1.34.16-1,.32-2,.44-3s.28-2,.36-3,.21-2,.43-3a27.13,27.13,0,0,1,1.71-5.81,13,13,0,0,1,3.34-5h0a.08.08,0,0,0,0-.1.07.07,0,0,0-.11,0,12.74,12.74,0,0,0-4,4.78,28.16,28.16,0,0,0-2.23,5.87c-.16.5-.28,1-.39,1.52l-.36,1.53a25.17,25.17,0,0,0-.39,3.11c0,1,0,2.09,0,3.13C671,460.44,671,460.91,671.06,461.37Z" style="fill:#263238"></path><path d="M656.54,436.52c.63,5.07,1.11,10.16,1.75,15.22l1.18,9.63h.92l-.06-2.12c0-2.57-.26-5.12-.45-7.68-.43-5.11-1.28-10.17-2.07-15.23s-1.68-10.1-2.61-15.14-2-10.05-3-15.05a.08.08,0,0,0-.1-.06.08.08,0,0,0-.06.09q1.31,7.56,2.41,15.16C655.18,426.39,655.9,431.45,656.54,436.52Z" style="fill:#263238"></path><path d="M647.24,422.62c.44.91.91,1.8,1.29,2.74l.6,1.39.54,1.42a83.34,83.34,0,0,1,3.4,11.63c.47,2,.78,4,1.16,5.95l.48,3c.17,1,.38,2,.52,3,.32,2,.69,4,1,6,.19,1.21.4,2.43.63,3.64h.6c0-1.26,0-2.51-.12-3.77-.12-2-.36-4.07-.57-6.1s-.64-4-1-6.05l-.72-3c-.23-1-.46-2-.75-3a84.8,84.8,0,0,0-3.9-11.62l-.62-1.41-.68-1.37c-.43-.93-1-1.81-1.45-2.71a22.85,22.85,0,0,0-3.69-4.89.08.08,0,0,0-.11,0,.09.09,0,0,0,0,.12h0A22.49,22.49,0,0,1,647.24,422.62Z" style="fill:#263238"></path><path d="M651.37,452.16c.8,2.69,1.37,5.43,2.09,8.14.1.36.19.71.28,1.07h1.52c-.08-.47-.15-.95-.25-1.43a53,53,0,0,0-2.43-8.18c-1-2.68-2-5.31-3.24-7.88a70,70,0,0,0-4.07-7.47.08.08,0,0,0-.13.09,69.81,69.81,0,0,1,3.47,7.69C649.65,446.81,650.58,449.46,651.37,452.16Z" style="fill:#263238"></path><path d="M642.39,449.42a11.78,11.78,0,0,1,3.92,3A18.67,18.67,0,0,1,649,456.6c.78,1.47,1.18,3.09,1.85,4.6,0,.06.05.12.07.17h1.6l-.15-.68a18.64,18.64,0,0,0-2.26-4.72,19.74,19.74,0,0,0-3.27-4.07,15.75,15.75,0,0,0-2.08-1.57,8.59,8.59,0,0,0-2.37-1.07.08.08,0,0,0-.09.05.07.07,0,0,0,0,.1Z" style="fill:#263238"></path><path d="M652.72,413.47a14.54,14.54,0,0,1-10.31-11c-1.93-9,4.3-5.16-1.29-19.33s-4.29-17.4-2.36-21.48,3-2.79,4.73,2.58,7.94,13.74,10.31,29.42S652.72,413.47,652.72,413.47Z" style="fill:#92E3A9"></path><path d="M669.26,398.22s-5.58-1.93-5.8-12.46,4.08-8.37,4.73-21.47,1.5-22.34,3.86-22.56,8.59,6.45,10.74,21-2.79,24.27-7.09,28.57S669.26,398.22,669.26,398.22Z" style="fill:#92E3A9"></path><path d="M649.71,426.14s-1.28-7.73-3.86-11.38-8.16-6.87-11.82-14-7.73-10.52-7.51-.43,4.72,15.25,10.31,18.69S649.71,426.14,649.71,426.14Z" style="fill:#92E3A9"></path><path d="M647.35,439.46a77.11,77.11,0,0,0-12.67-17.18c-7.52-7.3-13.53-11-11.38-7.3s4.72,3.43,8.37,9.88,2.58,11.16,7.73,14.82S647.35,439.46,647.35,439.46Z" style="fill:#92E3A9"></path><path d="M646.71,452.13c-.22-.64-.43-5.37-7.73-9.23s-14.18-2.37-13.32-.43,5.37,5.15,9.88,7.09S646.71,452.13,646.71,452.13Z" style="fill:#92E3A9"></path><path d="M668.83,426.57s-3.22-4.08-1.5-12.67,5.58-6.44,9.88-10.95,3.43-5.16,7.73-9.88,8.16-7.31,9.88-5.37-.86,7.94-3.44,11.38-6.66,5.16-8.59,9.45-1.07,11.17-6,14.39S668.83,426.57,668.83,426.57Z" style="fill:#92E3A9"></path><path d="M679.57,428.94s7.73-8.81,13.32-15.25,7.73-11.39,7.94-7.09,1.94,7.73-2.57,13.32S679.57,428.94,679.57,428.94Z" style="fill:#92E3A9"></path><path d="M675.49,443.11s-.22-3.43,12-11.38,17.39-9.45,16.11-6.23-6.66,6.44-12.46,12.24S675.49,443.11,675.49,443.11Z" style="fill:#92E3A9"></path><path d="M653.23,412.56s-2.87-15.41-5.88-26.37-4.94-17.61-4.94-17.61" style="fill:none;stroke:#263238;stroke-linecap:round;stroke-linejoin:round"></path><path d="M668.76,398.38s5.22-16.7,6.94-26.79-.21-17.61-1.07-22.12" style="fill:none;stroke:#263238;stroke-linecap:round;stroke-linejoin:round"></path><path d="M649,425.82a80.72,80.72,0,0,0-7.92-11.27c-4.72-5.59-8.37-8.6-10.52-14" style="fill:none;stroke:#263238;stroke-linecap:round;stroke-linejoin:round"></path><path d="M668.83,426.57s1.72-10.31,5.8-15.68,12.24-13.74,15.46-19.11" style="fill:none;stroke:#263238;stroke-linecap:round;stroke-linejoin:round"></path><path d="M646.2,451.9s-7.22-4.71-12.38-7.28" style="fill:none;stroke:#263238;stroke-linecap:round;stroke-linejoin:round"></path></g><g id="plant-1"><path d="M95.23,274.64c0,.76.09,1.52.14,2.28.12,1.51.21,3,.35,4.54.18,1.87.42,3.73.69,5.58H97c0-.37,0-.75,0-1.12,0-1.51-.18-3-.16-4.53s0-3,0-4.52l0-2.26,0-2.26,0-4.52.12-4.51,0-2.26c0-.75.09-1.5.13-2.25l.27-4.52a161.18,161.18,0,0,1,2.56-17.89A104.31,104.31,0,0,1,104.82,219h0a.09.09,0,0,0,0-.11.1.1,0,0,0-.11,0,105.34,105.34,0,0,0-5.52,17.31,160,160,0,0,0-3.05,17.94l-.43,4.54c-.07.75-.15,1.51-.2,2.27l-.13,2.27c-.06,1.52-.15,3-.2,4.56l0,4.56Z" style="fill:#263238"></path><path d="M100.16,287c.3-3.1.52-6.19.74-9.28.28-3.94.31-7.9.57-11.84a118.52,118.52,0,0,1,4-23.32.07.07,0,0,0,0-.1.09.09,0,0,0-.1.05A107.68,107.68,0,0,0,102.1,254a106.4,106.4,0,0,0-1.9,11.79c-.4,3.95-.84,7.91-.9,11.88,0,3.12,0,6.24.21,9.35Z" style="fill:#263238"></path><path d="M103.32,287l.57-6.58a102.23,102.23,0,0,1,1.46-11.36c.1-.46.23-.91.35-1.37a12.55,12.55,0,0,1,.41-1.36l.46-1.33.6-1.26a35.25,35.25,0,0,1,3.14-4.76,39.47,39.47,0,0,1,8.22-8h0a.09.09,0,0,0,0-.11.08.08,0,0,0-.11,0,40.1,40.1,0,0,0-8.76,7.64,35.23,35.23,0,0,0-3.42,4.76l-.7,1.32L105,266a14.53,14.53,0,0,0-.49,1.4c-.14.47-.29.94-.42,1.41a55.55,55.55,0,0,0-1.81,11.55q-.14,3.36,0,6.7Z" style="fill:#263238"></path><path d="M105,287h.78c.07-.45.14-.9.2-1.35.16-1,.32-2,.44-3s.28-2,.36-3,.21-2,.43-3a27.47,27.47,0,0,1,1.71-5.81,12.88,12.88,0,0,1,3.34-5h0a.08.08,0,0,0,0-.1.08.08,0,0,0-.11,0,12.77,12.77,0,0,0-4,4.79,28.08,28.08,0,0,0-2.23,5.86c-.16.5-.28,1-.39,1.52l-.36,1.53a25.17,25.17,0,0,0-.39,3.11c0,1.05,0,2.09,0,3.13C104.94,286.11,105,286.58,105,287Z" style="fill:#263238"></path><path d="M90.52,262.19c.63,5.07,1.11,10.15,1.75,15.21L93.45,287h.92c0-.71,0-1.41-.05-2.12,0-2.57-.27-5.13-.46-7.68-.43-5.11-1.28-10.18-2.07-15.23s-1.68-10.11-2.61-15.14-2-10.05-3-15.05a.08.08,0,0,0-.1-.06.08.08,0,0,0-.06.09q1.3,7.56,2.41,15.15C89.16,252.06,89.88,257.12,90.52,262.19Z" style="fill:#263238"></path><path d="M81.22,248.28c.44.91.91,1.81,1.29,2.74l.6,1.4.54,1.42a83.6,83.6,0,0,1,3.4,11.62c.47,2,.78,4,1.16,6l.48,3c.17,1,.38,2,.52,3,.32,2,.69,4,1,6,.19,1.22.4,2.44.63,3.65h.6c0-1.26,0-2.52-.12-3.78-.11-2-.36-4.06-.57-6.1s-.64-4-1-6l-.72-3c-.23-1-.46-2-.75-3a84.8,84.8,0,0,0-3.9-11.62l-.62-1.41-.68-1.38c-.43-.92-1-1.81-1.45-2.7A22.85,22.85,0,0,0,78,243.16a.08.08,0,0,0-.11.11h0A22.66,22.66,0,0,1,81.22,248.28Z" style="fill:#263238"></path><path d="M85.35,277.82c.8,2.69,1.37,5.44,2.09,8.14.1.36.19.72.29,1.08h1.51c-.08-.48-.15-1-.25-1.43a53.11,53.11,0,0,0-2.43-8.19c-1-2.68-2-5.3-3.24-7.88a68.15,68.15,0,0,0-4.07-7.46.07.07,0,0,0-.1,0,.07.07,0,0,0,0,.11,70.82,70.82,0,0,1,3.47,7.7C83.63,272.47,84.56,275.13,85.35,277.82Z" style="fill:#263238"></path><path d="M76.37,275.08a11.68,11.68,0,0,1,3.92,3.05A18.84,18.84,0,0,1,83,282.26c.78,1.47,1.18,3.1,1.85,4.61a1.22,1.22,0,0,1,.07.17h1.6l-.15-.68a18.78,18.78,0,0,0-2.25-4.72,20.12,20.12,0,0,0-3.28-4.07A15.75,15.75,0,0,0,78.78,276a8.59,8.59,0,0,0-2.37-1.07.09.09,0,0,0-.09,0,.08.08,0,0,0,0,.11Z" style="fill:#263238"></path><path d="M86.7,239.14a14.58,14.58,0,0,1-10.31-11c-1.93-9,4.3-5.15-1.29-19.33s-4.29-17.39-2.36-21.48,3-2.79,4.73,2.58,7.94,13.75,10.31,29.43S86.7,239.14,86.7,239.14Z" style="fill:#92E3A9"></path><path d="M103.24,223.89s-5.58-1.93-5.8-12.46,4.08-8.38,4.73-21.48,1.5-22.34,3.86-22.55,8.59,6.44,10.74,21S114,212.72,109.68,217,103.24,223.89,103.24,223.89Z" style="fill:#92E3A9"></path><path d="M83.7,251.81s-1.29-7.73-3.87-11.38-8.16-6.88-11.81-14-7.74-10.53-7.52-.43,4.72,15.25,10.31,18.68S83.7,251.81,83.7,251.81Z" style="fill:#92E3A9"></path><path d="M81.33,265.13a77.29,77.29,0,0,0-12.67-17.19c-7.52-7.3-13.53-10.95-11.38-7.3s4.72,3.44,8.37,9.88,2.58,11.17,7.74,14.82S81.33,265.13,81.33,265.13Z" style="fill:#92E3A9"></path><path d="M80.69,277.8c-.22-.65-.43-5.37-7.73-9.24s-14.18-2.36-13.32-.43,5.37,5.16,9.88,7.09S80.69,277.8,80.69,277.8Z" style="fill:#92E3A9"></path><path d="M102.81,252.24s-3.22-4.08-1.5-12.67,5.58-6.45,9.88-11,3.43-5.15,7.73-9.88,8.16-7.3,9.88-5.37-.86,7.95-3.44,11.39-6.65,5.15-8.59,9.45-1.07,11.17-6,14.39S102.81,252.24,102.81,252.24Z" style="fill:#92E3A9"></path><path d="M113.55,254.6s7.73-8.8,13.32-15.25,7.73-11.38,7.94-7.09,1.94,7.74-2.57,13.32S113.55,254.6,113.55,254.6Z" style="fill:#92E3A9"></path><path d="M109.47,268.78s-.22-3.44,12-11.39,17.4-9.45,16.11-6.22-6.66,6.44-12.46,12.24S109.47,268.78,109.47,268.78Z" style="fill:#92E3A9"></path><path d="M87.21,238.22s-2.87-15.41-5.88-26.36-4.94-17.61-4.94-17.61" style="fill:none;stroke:#263238;stroke-linecap:round;stroke-linejoin:round"></path><path d="M102.75,224.05s5.22-16.7,6.93-26.79-.21-17.62-1.07-22.13" style="fill:none;stroke:#263238;stroke-linecap:round;stroke-linejoin:round"></path><path d="M83,251.49a81.14,81.14,0,0,0-7.92-11.28c-4.72-5.58-8.37-8.59-10.52-14" style="fill:none;stroke:#263238;stroke-linecap:round;stroke-linejoin:round"></path><path d="M102.81,252.24s1.72-10.31,5.8-15.68,12.24-13.75,15.46-19.12" style="fill:none;stroke:#263238;stroke-linecap:round;stroke-linejoin:round"></path><path d="M80.18,277.56s-7.22-4.7-12.38-7.28" style="fill:none;stroke:#263238;stroke-linecap:round;stroke-linejoin:round"></path></g><g id="floor-2"><line x1="37.7" y1="461.37" x2="704.07" y2="461.37" style="fill:none;stroke:#263238;stroke-miterlimit:10"></line></g><g id="floor-1"><line x1="68.07" y1="287.04" x2="702.72" y2="287.04" style="fill:none;stroke:#263238;stroke-miterlimit:10"></line></g><g id="Hashtag"><polygon points="545.46 66.12 523.19 149.76 504.25 220.86 442.69 452.03 371.6 452.03 433.16 220.86 452.09 149.76 474.36 66.12 545.46 66.12" style="fill:#263238"></polygon><polygon points="545.46 66.12 523.19 149.76 504.25 220.86 442.69 452.03 371.6 452.03 433.16 220.86 452.09 149.76 474.36 66.12 545.46 66.12" style="fill:#fff;opacity:0.14"></polygon><polygon points="523.19 149.76 504.25 220.86 433.16 220.86 452.09 149.76 523.19 149.76" style="fill:#263238"></polygon><polygon points="479.51 314.68 460.57 385.78 389.48 385.78 408.41 314.68 479.51 314.68" style="fill:#263238"></polygon><polygon points="379.88 66.12 357.61 149.76 338.67 220.86 277.11 452.03 206.01 452.03 267.57 220.86 286.51 149.76 308.78 66.12 379.88 66.12" style="fill:#263238"></polygon><polygon points="379.88 66.12 357.61 149.76 338.67 220.86 277.11 452.03 206.01 452.03 267.57 220.86 286.51 149.76 308.78 66.12 379.88 66.12" style="fill:#fff;opacity:0.14"></polygon><polygon points="313.93 314.68 294.99 385.78 223.89 385.78 242.83 314.68 313.93 314.68" style="fill:#263238"></polygon><polygon points="357.61 149.76 338.67 220.86 267.57 220.86 286.51 149.76 357.61 149.76" style="fill:#263238"></polygon><polygon points="149.74 377.7 169.31 306.61 555.23 306.61 535.66 377.7 149.74 377.7" style="fill:#263238"></polygon><polygon points="202.99 213.33 222.55 142.23 608.47 142.23 588.91 213.33 202.99 213.33" style="fill:#263238"></polygon></g><g id="character-4"><path d="M538.1,273.73s.43,10.5-.43,11.57-2.57,2.79-1.5,3.86a9.5,9.5,0,0,0,3.43,1.71s2.57,7.5,4.71,7.5,5.14-1.93,5.14-1.93l4.07,3.86,9.22-8.14-1.5-4.07s-.43-7.93-2.14-11.36-6.86-6.86-11.57-7.28A11,11,0,0,0,538.1,273.73Z" style="fill:#fff;stroke:#263238;stroke-linejoin:round"></path><path d="M542.17,265.8s-11.36,5.36-10.29,8.36,13.72,0,14.57-.43-1.5,3,.22,4.29a17.8,17.8,0,0,0,4.71,2.14s1.07-2.36,2.79-2.57,3,1.5,2.78,4.5-1.71,4.07-1.71,4.07,5.36,3,6,1.93,5.36-10.93,2.36-17.36S551.81,262,542.17,265.8Z" style="fill:#263238;stroke:#263238;stroke-linejoin:round"></path><path d="M542.51,283.44c0,.84-.35,1.53-.77,1.53s-.77-.69-.77-1.53.34-1.54.77-1.54S542.51,282.59,542.51,283.44Z" style="fill:#263238"></path><path d="M540.2,279.72a2.27,2.27,0,0,1,3.33.39" style="fill:none;stroke:#263238;stroke-linejoin:round"></path><path d="M542.38,291.38s3.07-1.16,3.84-3.08" style="fill:none;stroke:#263238;stroke-linejoin:round"></path><path d="M551.64,357.72s-9.13,35.73-9.13,39.57-3.18,52.19-3.18,52.19l7.21,3.36s13.11-48.82,13.27-49.62,7.05-15.7,7.05-15.7L571,410.43l9.81,41.45s5.6.48,7.37.32L590,452l-3.72-47.38s5.61-36.36,5.61-43.57a40,40,0,0,0-1.76-12.18,81.69,81.69,0,0,1-20.67,7.37c-10.89,2.08-17.62-1.12-17.62-1.12Z" style="fill:#263238;stroke:#263238;stroke-linejoin:round"></path><path d="M553.4,305.34s-3.53,48.22-3,50.78,4.32,5.13,10.89,6.89,22.59-6.25,25.79-9.45,4-4.17,2.73-7.37-6.41-11.86-6.41-11.86-3.85-12.33-8-23.71-9.46-15.7-9.46-15.7Z" style="fill:#92E3A9;stroke:#263238;stroke-linejoin:round"></path><polygon points="563.78 290.4 549.81 302.97 551.77 308.41 567.13 294.31 563.78 290.4" style="fill:#92E3A9;stroke:#263238;stroke-linejoin:round"></polygon><path d="M551,335.78l-11.47,33.7s-2.58.08-3.86,0-1.66.65-3.14,1-2.83-.74-2.92.22a1.89,1.89,0,0,0,1.59,1.91c.8.08,2.57.08,3,.12a24,24,0,0,1,2.8,1.06s-1.53,2.6-1.89,3.05-4.11.91-4.11.91-4.1-.86-3.88.28,5.49,1.47,7.22,1.95,3.64-1.11,4.21-2,5.24-8.05,5.62-8.65,11.74-19.2,13.34-22.59,3.35-6.77,3.35-6.77Z" style="fill:#fff;stroke:#263238;stroke-linejoin:round"></path><polyline points="558.78 307.38 549.62 336.94 562.8 344.11 572.03 322.43" style="fill:#92E3A9;stroke:#263238;stroke-linejoin:round"></polyline><path d="M539.33,449.48s-14.89-1.44-14.09.64,10.57,7.37,13.29,8.65,4.81,3,6.25,1.44,1.76-7.37,1.76-7.37Z" style="fill:#fff;stroke:#263238;stroke-linejoin:round"></path><path d="M580.83,451.88s-4.17,1.76-5.77,2.73-8.33,2.72-8,3.84,4.81,1.92,12,1.92,11,.32,11.69-1.28-.8-7-.8-7Z" style="fill:#fff;stroke:#263238;stroke-linejoin:round"></path></g><g id="character-3"><polygon points="130.63 294.89 132.79 312.34 142.4 307.04 141.41 301.75 130.63 294.89" style="fill:#fff;stroke:#263238;stroke-linejoin:round"></polygon><path d="M128.28,275.67s-1.38-3.14-6.08-2.94-9.61,9-10.39,13.53,5.09,10,5.68,11.76-4.31,2-4.51,4.71,5.49,7.06,5.49,7.06-4.51,2.16-2.74,4.9a14.43,14.43,0,0,0,3.92,4.12s-3.14,2.55-1.37,4.31,6.66,3.73,6.86,1.77-3.33-4.12-2-5.49,6.08-4.32,5.49-8.24-3.14-6.47-2.35-7.45,9.8-8.24,9.8-12.35S128.28,275.67,128.28,275.67Z" style="fill:#263238;stroke:#263238;stroke-linejoin:round"></path><path d="M129.85,297.63s4.51,3.33,6.66,4.71,4.51,2.35,5.69,1.17a18.08,18.08,0,0,0,6.27-10.19c1.38-6.28-1.17-11.18-1.37-13.34s.2-7.84-9.41-7.84-13.14,7.06-13.73,11,2,9.81,2.75,10.2S129.85,297.63,129.85,297.63Z" style="fill:#fff;stroke:#263238;stroke-linejoin:round"></path><path d="M137.69,272.14c-9.61,0-13.14,7.06-13.73,11s2,9.81,2.75,10.2a8.65,8.65,0,0,1,1.76,2.16l1.38-2.75s-1.38-6.47,1-11,6.66-5.1,9.6-4.71S147.1,280,147.1,280C146.9,277.83,147.3,272.14,137.69,272.14Z" style="fill:#263238;stroke:#263238;stroke-linejoin:round"></path><ellipse cx="137.81" cy="288.81" rx="0.84" ry="1.62" style="fill:#263238"></ellipse><path d="M147.08,288.46c0,.89-.38,1.62-.84,1.62s-.85-.73-.85-1.62.38-1.62.85-1.62S147.08,287.57,147.08,288.46Z" style="fill:#263238"></path><path d="M144.41,289.73l.84,3.37s-.84,1.54-3.51.84" style="fill:none;stroke:#263238;stroke-linejoin:round"></path><path d="M142.72,297s-3.79,0-4.91-2" style="fill:none;stroke:#263238;stroke-linejoin:round"></path><path d="M135.28,285.23a4.53,4.53,0,0,1,3.79-.56" style="fill:none;stroke:#263238;stroke-linejoin:round"></path><path d="M143.85,284.81s2.67-1.13,3.93.42" style="fill:none;stroke:#263238;stroke-linejoin:round"></path><path d="M131.22,291.75s-3.14-5.1-4.71-2.16,1.77,7.26,3.34,8a3.75,3.75,0,0,0,3.13,0" style="fill:#fff;stroke:#263238;stroke-linejoin:round"></path><path d="M142.39,307s-10.95,3.76-15.54,9.62-2.8,15.28-1.78,17.57,2.8,16,2.8,16a18.22,18.22,0,0,0,7.39,2c4.33.25,13-3.32,13-3.32s.76-25.47-.51-31.84A20.18,20.18,0,0,0,142.39,307Z" style="fill:#92E3A9;stroke:#263238;stroke-linejoin:round"></path><path d="M144.79,405.32a110,110,0,0,0,6.74,15.93c3.68,6.59,8.89,24.52,9.81,27.43s1.53,4.9,0,6.43a27.64,27.64,0,0,1-6.13,4c-1.53.77-2.14,1.23.46,1.38a50.3,50.3,0,0,0,6.59.16,19.55,19.55,0,0,0,4.59-1.08c1.84-.61,4.14-.61,3.68-2.91a10.45,10.45,0,0,0-2.3-4.29s-2-23.59-4-27.88-3.68-6.44-4-8.89-.92-12.26-.92-12.26Z" style="fill:#fff;stroke:#263238;stroke-linejoin:round"></path><path d="M126.26,404.53s-1.26,29.57-1.54,36.79c-.3,8-2,11.19-2.45,10.88a24.16,24.16,0,0,1-5.94,3.54c-4.44,2.09-7.84,2.35-6.79,3.13s4.44.52,8.36,1.05,8.88,1,9.66,0,0-6.17.23-6.95,7.35-17.87,9.18-27.54,2.61-18.29,3.14-20.12S126.26,404.53,126.26,404.53Z" style="fill:#fff;stroke:#263238;stroke-linejoin:round"></path><path d="M109.54,458.87c1,.79,4.44.52,8.36,1.05s8.88,1,9.66,0a6.4,6.4,0,0,0,.33-3.12l-8.54-.19L118,454.92c-.49.26-1,.53-1.64.82C111.89,457.83,108.49,458.09,109.54,458.87Z" style="fill:#fff;stroke:#263238;stroke-linejoin:round"></path><path d="M170.53,456.64a7.06,7.06,0,0,0-.69-1.9c-3.58,1.52-8.38,3.68-8.38,3.68L160,456.23a35.39,35.39,0,0,1-4.79,2.86c-1.53.77-2.14,1.23.46,1.38a50.3,50.3,0,0,0,6.59.16,19.55,19.55,0,0,0,4.59-1.08C168.69,458.94,171,458.94,170.53,456.64Z" style="fill:#fff;stroke:#263238;stroke-linejoin:round"></path><path d="M127.87,350.28s-2.31,9.75-2.51,15.11-3.1,40.63-3.1,40.63,3.92,3.71,14.85,3.71,25.37-4.12,25.37-4.12-3.3-34.65-7.42-44.55S148.25,349,148.25,349,136.78,352.28,127.87,350.28Z" style="fill:#263238;stroke:#263238;stroke-linejoin:round"></path><path d="M141,310.3s-5.74.35-6.78,5.39,4.17,25.73,4.86,28.86,7.83,26.42,8.52,28.34a43.17,43.17,0,0,0,3.48,6.08c1,1.74,6.61,2.43,7.48,2.43a9,9,0,0,0,4.17-2.26c.69-.87.35-1.73-.87-1.39a23.52,23.52,0,0,0-2.43.87s-2.44-.35-3-.52-1-1.22-2.26-2.43a19.88,19.88,0,0,0-3.3-2.44s-2.79-24.51-3-25.9-1.39-28.86-2.26-32S142.91,310.3,141,310.3Z" style="fill:#fff;stroke:#263238;stroke-linejoin:round"></path></g><g id="character-2"><path d="M589.46,97.76s-3.57,6.78-3.39,8.39a10.11,10.11,0,0,0,1.25,3.39s-4.11,5.53-3.39,5.89a22.05,22.05,0,0,1,2.32,1.6s2.67,7.32,3.56,7.5,6.43-1.79,6.43-1.79l.89,3.21,12.13-4.81-1.6-7.32s4.64-8.92,2.14-14.45S593.56,93.12,589.46,97.76Z" style="fill:#ccc;stroke:#263238;stroke-linejoin:round"></path><path d="M591.24,109.54c0,.89-.4,1.61-.89,1.61s-.89-.72-.89-1.61.4-1.61.89-1.61S591.24,108.65,591.24,109.54Z" style="fill:#263238"></path><path d="M588,100.8a21.42,21.42,0,0,1,0-8c.89-3.75,6.42-7.5,16.59-5.89s13.74,11.06,13.74,14.45-2.67,8.92-4.46,10.89-5.53,4.1-6.42,4.64-4.11-4.64-4.11-4.64,2.15-4.46.72-6.25-3.21-1.07-3.75,0-1.07,2-1.07,2-2.14-2.67-1.61-3.39-2.85-.53-2.67-2.49,2.32-3,1.6-4.29S588,100.8,588,100.8Z" style="fill:#263238;stroke:#263238;stroke-linejoin:round"></path><path d="M588.74,106.15s1.43-1.25,2.68-.36" style="fill:none;stroke:#263238;stroke-linejoin:round"></path><path d="M588.39,117.57a7.92,7.92,0,0,0,3.92-2" style="fill:none;stroke:#263238;stroke-linejoin:round"></path><line x1="623.84" y1="138.2" x2="623.61" y2="135.37" style="fill:none;stroke:#263238;stroke-linejoin:round"></line><path d="M624.48,129.12c-2.44-2.61-9.21-5.22-9.21-5.22s-5-2.6-8.69-2.6-12.69,7-12.69,7l-11.64,9.56L570,164.56l-17.25-4-1.37-4-1.76-3.72-1.11-2.07s-1.39,0-1.19,1.06a19.74,19.74,0,0,0,.85,2.73,5.2,5.2,0,0,0,0,1.39c.08.44-6.38-3.52-8.72-5a.79.79,0,0,0-.87,1.33l4.75,3.32-.38.66-6.26-2.58a.84.84,0,0,0-1.2.64.83.83,0,0,0,.4.84l5.69,3.64,0,.23-5.67-1.62a.92.92,0,0,0-1.14.68.91.91,0,0,0,.57,1.05l5.62,2.11-.19.52-1.15-.17-2.09-.2a.82.82,0,0,0-.73,1.08.83.83,0,0,0,.61.54l14.63,3,22.75,12.24,11.5-12.18L589,185.94l37.18-4.87.49-9s9.3-5.36,9.65-7.17C637.24,160.28,626.91,131.72,624.48,129.12Z" style="fill:#92E3A9;stroke:#263238;stroke-linejoin:round"></path><line x1="624.48" y1="145.73" x2="624.08" y2="140.95" style="fill:none;stroke:#263238;stroke-linejoin:round"></line><line x1="626.7" y1="172.11" x2="624.91" y2="150.87" style="fill:none;stroke:#263238;stroke-linejoin:round"></line><path d="M609.18,118.34l-11.4,4.5-6.95,7.64,18.87-7.62,5.57,1S613.35,118.34,609.18,118.34Z" style="fill:#92E3A9;stroke:#263238;stroke-linejoin:round"></path><path d="M552.74,160.59l-1.37-4-1.76-3.72-1.11-2.07s-1.39,0-1.19,1.06a19.74,19.74,0,0,0,.85,2.73,5.2,5.2,0,0,0,0,1.39c.08.44-6.38-3.52-8.72-5a.79.79,0,0,0-.87,1.33l4.75,3.32-.38.66-6.26-2.58a.84.84,0,0,0-1.2.64.83.83,0,0,0,.4.84l5.69,3.64,0,.23-5.67-1.62a.92.92,0,0,0-1.14.68.91.91,0,0,0,.57,1.05l5.62,2.11-.19.52-1.15-.17-2.09-.2a.82.82,0,0,0-.73,1.08.83.83,0,0,0,.61.54l14.63,3,.11.05,2.13-5.18Z" style="fill:#ccc;stroke:#263238;stroke-linejoin:round"></path><path d="M589,185.94s-2.13,43.15-1.53,49.13,8.16,44.8,8.16,44.8-7.37,2.19-9.75,3.19-3.39,3-1.4,3.38,14.54.6,18.72.6,2-4,1.79-6a29.64,29.64,0,0,0-1.19-5s-1.4-41.22-1.2-41.82S609.8,208,609.8,208l5,25.89,20.91,40.82s-4.58,5.58-5.38,6.18-6.17,3.38-5.57,4.78,7.36.59,7.36.59,10-4.38,11.75-4.78,1.6-4.18.6-5.77a25.76,25.76,0,0,1-2-3.39c-.2-.59-13.14-47.39-13.14-47.39l-3.11-43.84Z" style="fill:#263238;stroke:#263238;stroke-linejoin:round"></path><path d="M613.82,148.45c-3.12,6.65-8.38,17.41-11.91,22.12" style="fill:none;stroke:#263238;stroke-linejoin:round"></path><path d="M616.39,142.85s-.44,1-1.18,2.59" style="fill:none;stroke:#263238;stroke-linejoin:round"></path><line x1="610.03" y1="163.51" x2="602.08" y2="176.58" style="fill:none;stroke:#263238;stroke-linejoin:round"></line><path d="M584.51,286.44c2,.4,14.54.6,18.72.6s2-4,1.79-6c-3.66.26-9.36-1.2-9.36-1.2s-7.37,2.19-9.75,3.19S582.52,286,584.51,286.44Z" style="fill:#fff;stroke:#263238;stroke-linejoin:round"></path><path d="M643.85,281.46c1.79-.39,1.6-4.18.6-5.77l-.87-1.38a10.07,10.07,0,0,1-7.89.38s-4.58,5.58-5.38,6.18-6.17,3.38-5.57,4.78,7.36.59,7.36.59S642.06,281.86,643.85,281.46Z" style="fill:#fff;stroke:#263238;stroke-linejoin:round"></path><line x1="583.49" y1="149.75" x2="583.12" y2="147.54" style="fill:none;stroke:#263238;stroke-linejoin:round"></line><line x1="586.25" y1="166.13" x2="583.94" y2="152.41" style="fill:none;stroke:#263238;stroke-linejoin:round"></line><line x1="569.99" y1="164.56" x2="567.78" y2="167.96" style="fill:none;stroke:#263238;stroke-linejoin:round"></line></g><g id="character-1"><path d="M234.87,108s1.32,4.13-.19,6.57a8.72,8.72,0,0,0-1.31,6.39c.37,1.5.94,3.56.19,3.94a9.39,9.39,0,0,1-2.82.38s-2.82,4.69-4.69,6-6-2.06-6-2.06l-4.32,8.45L206,127.29l3.38-4.69s-.75-8.45-1.5-13.33,9.57-12.21,16.89-10.7S234.87,108,234.87,108Z" style="fill:#fff;stroke:#263238;stroke-linejoin:round"></path><path d="M239.75,107.58s-3.38,1.69-7.32,3.38-14.83,4.88-16.15,6-4.88,4.13-4.31,6.19a7,7,0,0,0,1.5,3s-2.25,5.64-9.2.38-5.82-21.78,1.88-28.16,17.27-5.63,24.4-3.19S242.19,105.32,239.75,107.58Z" style="fill:#263238;stroke:#263238;stroke-linejoin:round"></path><path d="M225.92,123.53a2.87,2.87,0,0,0,1.71,2.24" style="fill:none;stroke:#263238;stroke-miterlimit:10"></path><path d="M231.29,118.68c-.26.69-.69,1.16-1,1.06s-.3-.74,0-1.43.69-1.17,1-1.07S231.55,118,231.29,118.68Z" style="fill:#263238"></path><path d="M230.27,115.67a1.53,1.53,0,0,1,2.59.14" style="fill:none;stroke:#263238;stroke-miterlimit:10"></path><path d="M219.1,118.65s-.56-6.57-3.75-5.25-.94,6.38,0,6.94,2.06-.37,2.06-.37" style="fill:#fff;stroke:#263238;stroke-linejoin:round"></path><path d="M185.29,177S181,188.59,181,193.69A62.71,62.71,0,0,0,182,204l.85,28.35-7,46.33h7.13s12.39-42.77,13.75-45.49c.75-1.5,2.54-19.18,2.54-19.18l1.19,18.67,5.43,46h7.13l1.7-62.29-2-25.12L214,181S196.69,181.77,185.29,177Z" style="fill:#263238;stroke:#263238;stroke-linejoin:round"></path><path d="M206,127.29s-6.91,6.18-9.75,11.21S184.63,174.11,185.29,177s2,4.15,12.89,6.56,15.95-.44,15.95-.44l.44-13.55s3.93-5,3.49-9.17-2.34-22.73-2.34-22.73Z" style="fill:#92E3A9;stroke:#263238;stroke-linejoin:round"></path><path d="M258.49,150.34l-4.93,1.55,0-.21,4.9-3.31a.73.73,0,0,0,.33-.74.74.74,0,0,0-1.07-.54l-5.42,2.41-.34-.57,4.08-3a.7.7,0,0,0-.8-1.15c-2,1.32-7.57,4.93-7.51,4.55a4.62,4.62,0,0,0-.05-1.22,18.38,18.38,0,0,0,.69-2.41c.15-.94-1.07-.9-1.07-.9l-.93,1.84-1.45,3.3-1.11,3.55-21.95,11.07-1.68-1.87-6.43,4.72s5.48,9.22,5.93,9.15,24.91-18.3,24.91-18.3l12.73-3a.73.73,0,0,0,.53-.48.73.73,0,0,0-.66-.94l-1.83.23-1,.18-.17-.45,4.87-2a.8.8,0,0,0-.54-1.5Z" style="fill:#fff;stroke:#263238;stroke-linejoin:round"></path><path d="M204.37,136.8s-3.52,3.66-3.56,6.58,8.54,30.35,8.54,30.35l14.18-10.88L211,138.3" style="fill:#92E3A9;stroke:#263238;stroke-linejoin:round"></path><path d="M213.1,278.72s4.07,3.57,4.92,4.25,4.76,1.86,4.76,2.71a1.79,1.79,0,0,1-.85,1.36H204.61s-.85-.51,1.36-8.32Z" style="fill:#fff;stroke:#263238;stroke-linejoin:round"></path><path d="M183.06,278.72s4.07,3.57,4.92,4.25,4.75,1.86,4.75,2.71a1.79,1.79,0,0,1-.85,1.36H174.57s-.85-.51,1.36-8.32Z" style="fill:#fff;stroke:#263238;stroke-linejoin:round"></path></g></svg>
