<svg xmlns="http://www.w3.org/2000/svg" xmlns:xlink="http://www.w3.org/1999/xlink" viewBox="0 0 500 500"><defs><clippath id="clip-path"><path d="M309.67,225s14.08-.27,18.4,7.85,11.91,26,12.45,27.6,7,8.93,11.91,15.15S364.61,292.06,366,294s-1.35,7.31-1.35,7.31,1.89,0-11.37-7.31-21.65-12.17-26.52-18.67-8.39-12.18-8.39-12.18S312.65,234.42,311,232s-2.71-7-2.71-7Z" style="fill:gray;stroke:#263238;stroke-linecap:round;stroke-linejoin:round"></path></clippath><clippath id="clip-path-2"><path d="M274.78,204.26a27.12,27.12,0,0,1,0,10.57c-1.2,5.18-1.59,6.38-1.59,6.38L295.32,229s2.19-1,2.39-5.38-1.2-15.95-1.2-15.95S280.16,209.05,274.78,204.26Z" style="fill:#fff;stroke:#263238;stroke-linecap:round;stroke-linejoin:round"></path></clippath><clippath id="clip-path-3"><path d="M303.58,183.42c.72,7.9,2.11,12.27-.29,17.45s-1.39,11.37-10.17,12.56a27.14,27.14,0,0,1-14.7-2.35c-5-2.39-7-7.07-9.08-11.91-.23-.54-1-1.27-2.92-2.16-4.39-2-6.38-7.77-4.19-10.76s4.78-.8,5.58.39,1.8,2.8,3.59,1,3.3-3.72,3.3-4.52a12.38,12.38,0,0,1,7.21-10.42C295.23,166.55,303.07,177.8,303.58,183.42Z" style="fill:#fff;stroke:#263238;stroke-linecap:round;stroke-linejoin:round"></path></clippath><clippath id="clip-path-4"><path d="M252.45,298.37s-3.79,12.76-1.8,14.75,8.78,5.19,29.71,5.19,35.1-6.18,41.08-9.17,6.18-5.39,5.38-8.78a115,115,0,0,0-4-11.16,88.34,88.34,0,0,1-35.89,8.17c-19.74,0-30.9-5-33.1-5S252.45,298.37,252.45,298.37Z" style="fill:#92E3A9;stroke:#263238;stroke-linecap:round;stroke-linejoin:round"></path></clippath><clippath id="clip-path-5"><path d="M260.42,224.4s9,3.59,12.37,16.35-1.4,21.73-9,24.72-13.95-1.39-16.74,1.2-1.6,13.76.59,22.33,6.18,16.35,22.34,18.34,40.27-2.19,48.45-7,8.37-11.16,8.37-18.14-.2-29.91-6.18-44.66-13.36-15.36-17.55-15.36-10,3.79-20.33,2.6S268.6,216,260.42,224.4Z" style="fill:#92E3A9;stroke:#263238;stroke-linecap:round;stroke-linejoin:round"></path></clippath><clippath id="clip-path-6"><path d="M326.42,204.86s-24.92,13.56-34.29,18.74-15.75,5.78-17.95,5.18-8.17-4.38-15.75-3.39-14.75,11.17-12.36,19.35,20.14,13.75,24.52,13.55,19.94-10.17,27.52-18.54a125.26,125.26,0,0,0,10.37-12.56,5.71,5.71,0,0,0,4.18,1.59,18.29,18.29,0,0,0,5.79-1.19s-5.59,5.38-3.39,5.78,7.17-4,11.56-5.18,10.57-6.58,11.37-9.37-4.39-6.19-7-10S328.81,204.66,326.42,204.86Z" style="fill:#fff;stroke:#263238;stroke-linecap:round;stroke-linejoin:round"></path></clippath><clippath id="clip-path-7"><path d="M292.13,223.6c-9.37,5.18-15.75,5.78-17.95,5.18s-8.17-4.38-15.75-3.39-14.75,11.17-12.36,19.35,20.14,13.75,24.52,13.55,19.94-10.17,27.52-18.54c2.92-3.23,5.12-5.83,6.74-7.81a12.66,12.66,0,0,1-4-5.55,9.32,9.32,0,0,1,.78-8C297.93,220.4,294.52,222.28,292.13,223.6Z" style="fill:gray;stroke:#263238;stroke-linecap:round;stroke-linejoin:round"></path></clippath><clippath id="clip-path-8"><path d="M138.2,242.34s-9.57,1.4-12.36,6.18-1.4,54,1.19,57.83,4.19,4.78,4.19,4.78-4,5.38-.8,10.17,19.74,9.17,42.27,5.18,32.5-9.77,35.89-14.15,3.59-7,2.6-10.17S210,298,210,298s2.19-4,0-13.16-12-37.88-15.15-42.47-7.38-5-17.55-6.58S138.2,242.34,138.2,242.34Z" style="fill:#92E3A9;stroke:#263238;stroke-linecap:round;stroke-linejoin:round"></path></clippath><clippath id="clip-path-9"><path d="M154,226.19s1.8,12.76,4.39,18.74,12.76,10.17,17.74,7.38,7.18-9.57,7.18-14.15-.6-10.77-.6-10.77-15.95,2.59-20.93.2S154,226.19,154,226.19Z" style="fill:#fff;stroke:#263238;stroke-linecap:round;stroke-linejoin:round"></path></clippath><clippath id="clip-path-10"><path d="M184,198.68s3.86,13,4.41,21-3,12.15-11,15.46-14.62,1.1-19.59-2.49-5.8-8.28-7.18-13.25-3-15.45-3-15.45,7.46-8.56,18.22-11.6,16.29.83,16.29.83Z" style="fill:#fff;stroke:#263238;stroke-linecap:round;stroke-linejoin:round"></path></clippath><clippath id="clip-path-11"><path d="M151.16,206.14l-5.24,2.48s-3-12.42-3.59-16.84,13-13,22.08-13,16,2.21,16.84,4.14,4.14,13.8,4.14,13.8,0,1.66-1.38,1.93-10.21.83-17.39,3.59A79.18,79.18,0,0,1,151.16,206.14Z" style="fill:#92E3A9;stroke:#263238;stroke-linecap:round;stroke-linejoin:round"></path></clippath><clippath id="clip-path-12"><path d="M151.16,206.14a21.18,21.18,0,0,0,12.42,2.76c7.46-.56,13.53-6.08,19-8.56a18.59,18.59,0,0,1,11-1.11s.55-2.48-9.94-2.76S156.68,200.89,151.16,206.14Z" style="fill:#92E3A9;stroke:#263238;stroke-linecap:round;stroke-linejoin:round"></path></clippath><clippath id="clip-path-13"><path d="M132.22,272.65s-15.55.8-23.73,10.77-1.19,15.15,6.78,15.75,18-6.58,23.93-11.57,12.56-9.37,12.56-9.37,5.38,3.79,8.77,4.79,8,2.19,10.57,1.59,7.78-8,8-9.77-5.18-10.76-7.77-12-18.15,6.38-19.34,6.58Z" style="fill:#fff;stroke:#263238;stroke-linecap:round;stroke-linejoin:round"></path></clippath><clippath id="clip-path-14"><path d="M126.74,336.44s1.08,24.9,2.44,33.28,12.17,30.85,74.14,46,135,0,137.74-5.68,25.44-62.24,16.51-144.24c0,0-47.08,34.37-75.5,49.52s-62,31.39-84.16,36.8-42.76.82-55.47-5.41S126.74,336.44,126.74,336.44Z" style="fill:#fff;stroke:#263238;stroke-linecap:round;stroke-linejoin:round"></path></clippath></defs><g id="background-simple"><path d="M460.89,357.84s-32,72.19-112.42,95.4-165.79-8.72-235.66-32.76S6.45,335.61,22.36,273.64s74.85-57.26,130.12-112.13,61.66-77.86,138-93.76S449.8,116.41,470.19,207.38,460.89,357.84,460.89,357.84Z" style="fill:#92E3A9"></path><path d="M460.89,357.84s-32,72.19-112.42,95.4-165.79-8.72-235.66-32.76S6.45,335.61,22.36,273.64s74.85-57.26,130.12-112.13,61.66-77.86,138-93.76S449.8,116.41,470.19,207.38,460.89,357.84,460.89,357.84Z" style="fill:#fff;opacity:0.8"></path></g><g id="Clouds"><path d="M380.39,121.49a10.36,10.36,0,0,0,1.92-6A10.46,10.46,0,0,0,371.84,105a10.61,10.61,0,0,0-3.44.58,10.83,10.83,0,0,0-20.47-3.07,6.39,6.39,0,0,0-9.26-.82,8.49,8.49,0,0,0-16.89.28,9.24,9.24,0,0,0-3.94.09A18.29,18.29,0,0,0,318.3,98a18.59,18.59,0,0,0-24.57-17.59,26.83,26.83,0,1,0-51.18,14A12.18,12.18,0,0,0,230.9,106.6c0,.32,0,.63,0,.94a7.39,7.39,0,0,0-2.87-.57A7.5,7.5,0,0,0,221,112.1a6.54,6.54,0,0,0-5.44-2.91,6.46,6.46,0,0,0-5,2.31,2.46,2.46,0,0,0-4.5,1.38,2.41,2.41,0,0,0,.34,1.25,4.92,4.92,0,0,0-4.53,4.9,4.86,4.86,0,0,0,.66,2.46Z" style="fill:#fff;stroke:#c7c7c7;stroke-linecap:round;stroke-linejoin:round"></path><path d="M201.61,134.49a3.28,3.28,0,0,0,.61-1.93,3.35,3.35,0,0,0-3.35-3.35,3.3,3.3,0,0,0-1.1.19,3.47,3.47,0,0,0-6.56-1,2.07,2.07,0,0,0-1.61-.78,2.05,2.05,0,0,0-1.36.52,2.72,2.72,0,0,0-5.41.09,2.6,2.6,0,0,0-.56-.06,2.69,2.69,0,0,0-.7.09,6.26,6.26,0,0,0,.14-1.31,6,6,0,0,0-6-5.95,6.08,6.08,0,0,0-1.92.31,8.6,8.6,0,1,0-16.4,4.5,3.9,3.9,0,0,0-3.73,3.9c0,.1,0,.2,0,.3a2.51,2.51,0,0,0-.92-.18,2.41,2.41,0,0,0-2.28,1.65,2.06,2.06,0,0,0-1.74-.94,2.11,2.11,0,0,0-1.6.74.78.78,0,0,0-.65-.35.79.79,0,0,0-.79.79.75.75,0,0,0,.11.4,1.58,1.58,0,0,0-1.24,2.36Z" style="fill:#fff;stroke:#c7c7c7;stroke-linecap:round;stroke-linejoin:round"></path><path d="M471.79,283.75a6.6,6.6,0,0,0-5.39-10.41,6.78,6.78,0,0,0-2.18.36,6.84,6.84,0,0,0-12.92-1.94,4,4,0,0,0-5.84-.51,5.36,5.36,0,0,0-10.67.17,5.8,5.8,0,0,0-1.11-.1,5.65,5.65,0,0,0-1.37.16,11.5,11.5,0,0,0,.29-2.57,11.72,11.72,0,0,0-15.51-11.11,16.94,16.94,0,1,0-32.31,8.86,7.69,7.69,0,0,0-7.35,7.69,5.83,5.83,0,0,0,0,.59,4.74,4.74,0,0,0-6.31,2.88,4.11,4.11,0,0,0-6.57-.38,1.55,1.55,0,0,0-2.84.87,1.6,1.6,0,0,0,.21.79,3.11,3.11,0,0,0-2.86,3.09,3.16,3.16,0,0,0,.42,1.56Z" style="fill:#fff;stroke:#c7c7c7;stroke-linecap:round;stroke-linejoin:round"></path><path d="M154.79,283.75a6.6,6.6,0,0,0-5.39-10.41,6.78,6.78,0,0,0-2.18.36,6.84,6.84,0,0,0-12.92-1.94,4,4,0,0,0-5.84-.51,5.36,5.36,0,0,0-10.67.17,5.8,5.8,0,0,0-1.11-.1,5.65,5.65,0,0,0-1.37.16,11.5,11.5,0,0,0,.29-2.57,11.72,11.72,0,0,0-15.51-11.11,16.94,16.94,0,1,0-32.31,8.86,7.69,7.69,0,0,0-7.35,7.69,5.83,5.83,0,0,0,0,.59,4.74,4.74,0,0,0-6.31,2.88,4.11,4.11,0,0,0-6.57-.38,1.55,1.55,0,0,0-2.84.87,1.6,1.6,0,0,0,.21.79,3.11,3.11,0,0,0-2.86,3.09,3.16,3.16,0,0,0,.42,1.56Z" style="fill:#fff;stroke:#c7c7c7;stroke-linecap:round;stroke-linejoin:round"></path></g><g id="Trees"><path d="M410.9,287.72c1.21-1.48-10.34-23.05-10.34-23.05s5.17,1.18,5.47-2.07-7.9-19.8-7.9-19.8,4.25.59,5.77-2.36-8.51-26.6-8.51-26.6,4.26,1.77,4.86-2.66c.58-4.17-8.42-33.39-8.42-33.39l-.05.14c0-.08,0,.15,0,.15-.33,1.06-1.54,4.93-2.94,9.69-1.62-5.6-3-10-3-10l0,.14c0-.08-.05.15-.05.15-.46,1.48-2.64,8.48-4.66,15.72-2.26-8.15-4.68-16-4.68-16l0,.14c0-.08-.05.15-.05.15-.55,1.76-3.5,11.24-5.76,19.7-.33-1.14-.64-2.19-.92-3.1-1.31-9.18-9.52-35.86-9.52-35.86l-.05.17c0-.1-.06.17-.06.17-.44,1.42-2.26,7.28-4.21,14-2.2-7.76-4.24-14.36-4.24-14.36l-.05.17c0-.1-.05.17-.05.17-.84,2.69-6.58,21.16-8.82,31.57-2.42-11.2-8.79-31.91-8.79-31.91l0,.17c0-.1-.06.17-.06.17-.63,2-4,12.91-6.61,22.63-1.31-4.48-2.31-7.69-2.31-7.69l0,.14c0-.08,0,.16,0,.16-.37,1.19-1.82,5.83-3.42,11.34-2.85-11.44-7.62-26.92-7.62-26.92l-.05.17c0-.1-.06.17-.06.17-.44,1.42-2.26,7.28-4.21,14-2.2-7.76-4.23-14.36-4.23-14.36l-.06.17c0-.1-.05.17-.05.17-.84,2.69-6.58,21.16-8.82,31.57-2.42-11.2-8.79-31.91-8.79-31.91l-.05.17c0-.1-.06.17-.06.17-.63,2-4,12.91-6.61,22.63-1.31-4.48-2.3-7.69-2.3-7.69l-.05.14c0-.08,0,.16,0,.16-1,3.1-9.26,29.76-8.67,34,.63,4.57,5,2.74,5,2.74s-3.21,7.57-5.78,14.79c-2.31-6.26-4.81-12.14-4.81-12.14s4.26,1.77,4.87-2.66c.57-4.17-8.43-33.39-8.43-33.39l0,.14c0-.08-.05.15-.05.15-.33,1.06-1.53,4.93-2.93,9.69-1.62-5.6-3-10-3-10l-.05.14c0-.08,0,.15,0,.15-.47,1.48-2.64,8.48-4.67,15.72-2.25-8.15-4.67-16-4.67-16l-.05.14c0-.08,0,.15,0,.15-.55,1.76-3.5,11.24-5.76,19.7-1.14-3.89-2-6.69-2-6.69l0,.12c0-.07,0,.14,0,.14-.75,2.41-6.56,21.08-7.45,27.77-1.21-8.44-11-31.6-11-31.6s5.48,2.28,6.26-3.42c.74-5.38-10.84-43-10.84-43a1.51,1.51,0,0,0-.06.18c0-.11-.06.2-.06.2-.43,1.36-2,6.34-3.78,12.47-2.09-7.22-3.82-12.85-3.82-12.85l-.06.18c0-.11-.06.2-.06.2-.6,1.9-3.4,10.91-6,20.23-2.9-10.49-6-20.61-6-20.61a1.51,1.51,0,0,0-.06.18c0-.11-.06.2-.06.2-.71,2.25-4.5,14.47-7.42,25.36-1.47-5-2.58-8.63-2.58-8.63l0,.17c0-.1-.05.17-.05.17-.77,2.46-5.64,18.12-8.19,28.78-2.42-11.46-9.18-33.42-9.18-33.42l0,.17c0-.1-.06.18-.06.18-.39,1.26-1.82,5.85-3.48,11.5-1.92-6.65-3.52-11.85-3.52-11.85l-.06.17c0-.1-.05.18-.05.18-.55,1.76-3.14,10.07-5.54,18.66-2.68-9.68-5.55-19-5.55-19l0,.17c0-.1-.06.18-.06.18-.65,2.08-4.15,13.35-6.83,23.39C140,173,139,169.71,139,169.71l-.05.15c0-.09,0,.16,0,.16-.84,2.68-6.93,22.28-8.58,31.29-2.48-10-6.65-23.52-6.65-23.52l0,.14c0-.08,0,.15,0,.15-.33,1.06-1.54,4.93-2.94,9.69-1.62-5.6-3-10-3-10l-.05.14c0-.08,0,.15,0,.15-.46,1.48-2.64,8.48-4.66,15.72-2.26-8.15-4.68-16-4.68-16l0,.14c0-.08,0,.15,0,.15-.55,1.76-3.5,11.24-5.76,19.7-1.14-3.89-2-6.69-2-6.69l0,.12c0-.07,0,.14,0,.14-.85,2.7-8.06,25.91-7.55,29.65.55,4,4.36,2.38,4.36,2.38s-9,21.18-7.63,23.83,5.18,2.12,5.18,2.12-7.36,14.82-7.09,17.73,4.91,1.85,4.91,1.85-10.35,19.33-9.26,20.65,7.9-.26,7.9-.26-9.54,14.82-7.63,15.62c.93.38,11.57.55,20.67.48,2.88,0,5.89,0,8.75,0,2.51,0,5.15,0,7.71,0,3.54,0,7.22,0,10.54,0,3.89.05,8.22.06,12.31,0,3.42,0,7,0,10.39,0,3,0,6.11,0,9.15,0,4.15,0,8.46,0,12.36-.05,4.26.06,9,.07,13.54,0,3.72,0,7.62,0,11.31,0,3.24,0,6.63,0,9.93,0,5.68,0,11.65,0,16.62-.1,4,.1,9.35.13,14.23.09,2.88,0,5.89,0,8.75,0,2.52,0,5.15,0,7.71,0,4,0,8.24,0,11.88-.06,4.12.07,8.92.08,13.41,0s9.26,0,13.49,0,8.74.07,13.13,0c3.31,0,6.76,0,10,0s6.57,0,9.79,0c4.49,0,9.25,0,13.49,0s8.74.07,13.13,0c2.89,0,5.88,0,8.76,0,2.55,0,5.23,0,7.79,0,2.88,0,5.89,0,8.75,0,2.51,0,5.15,0,7.71,0,9.85,0,20.81-.14,21.8-.55,1.84-.76-5.8-13.14-7.95-16.56a4.17,4.17,0,0,0,2-.38C407,288.31,410.15,288.63,410.9,287.72Z" style="fill:#a1a1a1"></path><path d="M417.7,284.36c1.4-1.76-12-27.42-12-27.42s6,1.41,6.33-2.46-9.14-23.56-9.14-23.56,4.92.71,6.68-2.81-9.84-31.64-9.84-31.64,4.92,2.11,5.62-3.17c.66-5-9.74-39.73-9.74-39.73l0,.17c0-.1-.06.19-.06.19-1.09,3.58-10.4,34.41-9.73,39.37.7,5.28,5.62,3.17,5.62,3.17s-11.6,28.12-9.84,31.64,6.68,2.81,6.68,2.81-9.5,19.69-9.14,23.56,6.32,2.46,6.32,2.46-13.36,25.66-11.95,27.42,10.2-.35,10.2-.35-12.31,19.69-9.85,20.74c2.07.89,41.43.89,43.49,0,2.47-1.05-9.84-20.74-9.84-20.74S416.29,286.12,417.7,284.36Z" style="fill:#bdbdbd"></path><path d="M205.58,284.36c1.4-1.76-12-27.42-12-27.42s6,1.41,6.33-2.46-9.14-23.56-9.14-23.56,4.92.71,6.68-2.81-9.84-31.64-9.84-31.64,4.92,2.11,5.62-3.17c.66-5-9.74-39.73-9.74-39.73l-.05.17c0-.1-.06.19-.06.19-1.09,3.58-10.4,34.41-9.73,39.37.7,5.28,5.62,3.17,5.62,3.17s-11.6,28.12-9.84,31.64,6.68,2.81,6.68,2.81-9.5,19.69-9.14,23.56,6.32,2.46,6.32,2.46-13.36,25.66-12,27.42,10.2-.35,10.2-.35-12.31,19.69-9.85,20.74c2.07.89,41.43.89,43.49,0,2.47-1.05-9.84-20.74-9.84-20.74S204.17,286.12,205.58,284.36Z" style="fill:#e8e8e8"></path><path d="M367,281.3c1.66-2-14.09-31.42-14.09-31.42s7,1.61,7.46-2.82-10.78-27-10.78-27,5.8.81,7.88-3.22-11.61-36.25-11.61-36.25,5.8,2.42,6.63-3.62c.78-5.69-11.48-45.52-11.48-45.52l-.06.2c0-.12-.07.2-.07.2-1.28,4.12-12.26,39.43-11.48,45.12.83,6,6.64,3.62,6.64,3.62s-13.68,32.22-11.61,36.25,7.87,3.22,7.87,3.22-11.19,22.56-10.77,27,7.46,2.82,7.46,2.82-15.75,29.4-14.09,31.42,12-.41,12-.41-14.51,22.56-11.61,23.77c2.43,1,48.84,1,51.28,0,2.9-1.21-11.61-23.77-11.61-23.77S365.35,283.31,367,281.3Z" style="fill:#e8e8e8"></path><path d="M256.34,281.3c1.66-2-14.09-31.42-14.09-31.42s7.05,1.61,7.46-2.82-10.78-27-10.78-27,5.81.81,7.88-3.22S235.2,180.6,235.2,180.6,241,183,241.84,177c.78-5.69-11.49-45.52-11.49-45.52l-.06.2c0-.12-.06.2-.06.2C228.94,136,218,171.29,218.75,177c.83,6,6.63,3.62,6.63,3.62s-13.68,32.22-11.61,36.25,7.88,3.22,7.88,3.22-11.19,22.56-10.78,27,7.46,2.82,7.46,2.82-15.75,29.4-14.09,31.42,12-.41,12-.41-14.51,22.56-11.61,23.77c2.44,1,48.85,1,51.28,0,2.9-1.21-11.61-23.77-11.61-23.77S254.69,283.31,256.34,281.3Z" style="fill:#e8e8e8"></path><path d="M151.68,281.3c1.66-2-14.1-31.42-14.1-31.42s7,1.61,7.47-2.82-10.78-27-10.78-27,5.8.81,7.87-3.22-11.6-36.25-11.6-36.25,5.8,2.42,6.63-3.62c.78-5.69-11.48-45.52-11.48-45.52l-.07.2c0-.12-.06.2-.06.2C124.27,136,113.3,171.29,114.08,177c.83,6,6.63,3.62,6.63,3.62s-13.68,32.22-11.6,36.25,7.87,3.22,7.87,3.22-11.19,22.56-10.78,27,7.47,2.82,7.47,2.82-15.76,29.4-14.1,31.42,12-.41,12-.41-14.5,22.56-11.6,23.77c2.43,1,48.84,1,51.27,0,2.9-1.21-11.6-23.77-11.6-23.77S150,283.31,151.68,281.3Z" style="fill:#bdbdbd"></path><path d="M307.66,277.88c1.89-2.3-16.09-35.88-16.09-35.88s8,1.84,8.52-3.22S287.78,208,287.78,208s6.63.92,9-3.68-13.25-41.39-13.25-41.39,6.63,2.76,7.58-4.14c.89-6.49-13.12-52-13.12-52l-.07.22c0-.13-.07.24-.07.24-1.47,4.69-14,45-13.11,51.5.95,6.9,7.57,4.14,7.57,4.14s-15.61,36.79-13.25,41.39,9,3.68,9,3.68-12.77,25.76-12.3,30.81,8.52,3.22,8.52,3.22-18,33.58-16.09,35.88,13.72-.46,13.72-.46-16.56,25.75-13.25,27.13c2.78,1.16,55.77,1.16,58.55,0,3.31-1.38-13.26-27.13-13.26-27.13S305.77,280.17,307.66,277.88Z" style="fill:#bdbdbd"></path><polygon points="49.06 308.97 467.98 308.97 462.06 307.3 464.38 304.51 458.01 303.95 457.43 298.94 447 301.72 445.84 298.38 440.62 301.17 437.14 300.61 434.24 300.61 431.35 297.26 427.29 300.05 420.91 300.61 419.96 300.61 413.83 300.05 409.92 297.26 407.13 300.61 404.35 300.61 401 301.17 395.98 298.38 394.87 301.72 384.83 298.94 384.27 303.95 380.51 304.3 376.6 303.95 376.02 298.94 365.59 301.72 364.43 298.38 359.21 301.17 355.74 300.61 352.84 300.61 349.94 297.26 345.88 300.05 339.51 300.61 338.55 300.61 332.42 300.05 328.52 297.26 325.73 300.61 322.94 300.61 319.6 301.17 314.58 298.38 313.46 301.72 303.43 298.94 302.87 303.95 299.11 304.3 295.2 303.95 294.62 298.94 284.19 301.72 283.03 298.38 277.81 301.17 274.33 300.61 271.43 300.61 268.54 297.26 264.48 300.05 258.1 300.61 257.15 300.61 251.02 300.05 247.11 297.26 244.32 300.61 241.54 300.61 238.19 301.17 233.17 298.38 232.06 301.72 222.02 298.94 221.47 303.95 217.7 304.3 213.79 303.95 213.21 298.94 202.78 301.72 201.62 298.38 196.41 301.17 192.93 300.61 190.03 300.61 187.13 297.26 183.07 300.05 176.7 300.61 175.74 300.61 169.61 300.05 165.71 297.26 162.92 300.61 160.13 300.61 156.79 301.17 151.77 298.38 150.65 301.72 140.62 298.94 140.06 303.95 136.3 304.3 132.39 303.95 131.81 298.94 121.38 301.72 120.22 298.38 115 301.17 111.52 300.61 108.62 300.61 105.73 297.26 101.67 300.05 95.29 300.61 94.34 300.61 88.21 300.05 84.3 297.26 81.52 300.61 78.73 300.61 75.38 301.17 70.36 298.38 69.25 301.72 59.21 298.94 58.66 303.95 52.52 304.51 54.75 307.3 49.06 308.97" style="fill:#92E3A9"></polygon><line x1="40.1" y1="308.97" x2="467.21" y2="308.97" style="fill:none;stroke:#263238;stroke-linecap:round;stroke-linejoin:round"></line></g><g id="Characters"><path d="M309.67,225s14.08-.27,18.4,7.85,11.91,26,12.45,27.6,7,8.93,11.91,15.15S364.61,292.06,366,294s-1.35,7.31-1.35,7.31,1.89,0-11.37-7.31-21.65-12.17-26.52-18.67-8.39-12.18-8.39-12.18S312.65,234.42,311,232s-2.71-7-2.71-7Z" style="fill:gray"></path><g style="clip-path:url(#clip-path)"><path d="M336,264.68c-3.15-2.87-3.44-9.46-8.88-19.77S316.83,232,316.83,232l-4.12,5.29c2.29,9,5.62,25.8,5.62,25.8s3.52,5.69,8.39,12.18S340,286.65,353.24,294l.77.43c.32-.66.16-1.47-.79-2.48C348.92,287.32,339.18,267.54,336,264.68Z" style="opacity:0.2"></path></g><path d="M309.67,225s14.08-.27,18.4,7.85,11.91,26,12.45,27.6,7,8.93,11.91,15.15S364.61,292.06,366,294s-1.35,7.31-1.35,7.31,1.89,0-11.37-7.31-21.65-12.17-26.52-18.67-8.39-12.18-8.39-12.18S312.65,234.42,311,232s-2.71-7-2.71-7Z" style="fill:none;stroke:#263238;stroke-linecap:round;stroke-linejoin:round"></path><path d="M394.37,342.12s-6.49,31.93-5.95,33.83,9.74,14.88,9.74,14.88h56.29S430.37,355.92,426,351.59,397.89,340,394.37,342.12Z" style="fill:#92E3A9;stroke:#263238;stroke-linecap:round;stroke-linejoin:round"></path><line x1="379.96" y1="390.92" x2="471.96" y2="390.92" style="fill:none;stroke:#263238;stroke-linecap:round;stroke-linejoin:round"></line><path d="M366.53,291.5s-3.26-1.65-4.72-.46-6.07,5.53-4.67,7.14,4.43,7.19,6.52,6.45,1.84-2.19,1.31-4.13l-.53-1.95s4.13-1.84,4.1-4.07A3.3,3.3,0,0,0,366.53,291.5Z" style="fill:#fff;stroke:#263238;stroke-linecap:round;stroke-linejoin:round"></path><line x1="324.56" y1="221.16" x2="411.15" y2="368.91" style="fill:none;stroke:#263238;stroke-linecap:round;stroke-linejoin:round;stroke-width:5px"></line><path d="M308.38,169.19a22.64,22.64,0,0,0-4.1-3.07c-.89-.84-1.5-1.34-1.5-1.34s-8.33-6-16.66-9-16.67-2.66-23.34,5.67-7,28.33-6.33,42.67-10.23,32.2-.57,35.86,34.9-4.53,41-8.8,12.54-8.06,8.54-13.06-3.33-24.67-3.33-26.67,6-5.33,9-11.33c1.43-2.87-.42-6.51-2.73-9.52a13.65,13.65,0,0,1,4.12,9.47c0,8.71-6.27,9.68-6.53,9.72a.5.5,0,0,0,.06,1h.07c.07,0,7.4-1.1,7.4-10.71a13.14,13.14,0,0,0-1-5.1,16.3,16.3,0,0,1,2.35,7,.49.49,0,0,0,.49.45h.05a.5.5,0,0,0,.45-.55A17.26,17.26,0,0,0,308.38,169.19Z" style="fill:#263238"></path><path d="M274.78,204.26a27.12,27.12,0,0,1,0,10.57c-1.2,5.18-1.59,6.38-1.59,6.38L295.32,229s2.19-1,2.39-5.38-1.2-15.95-1.2-15.95S280.16,209.05,274.78,204.26Z" style="fill:#fff"></path><g style="clip-path:url(#clip-path-2)"><path d="M296.79,212.43l0-1.93c-.19-1.7-.33-2.85-.33-2.85s-16.35,1.4-21.73-3.39a27.12,27.12,0,0,1,0,10.57c-1.2,5.18-1.59,6.38-1.59,6.38l9.75,3.42Z" style="opacity:0.2"></path></g><path d="M274.78,204.26a27.12,27.12,0,0,1,0,10.57c-1.2,5.18-1.59,6.38-1.59,6.38L295.32,229s2.19-1,2.39-5.38-1.2-15.95-1.2-15.95S280.16,209.05,274.78,204.26Z" style="fill:none;stroke:#263238;stroke-linecap:round;stroke-linejoin:round"></path><path d="M303.58,183.42c.72,7.9,2.11,12.27-.29,17.45s-1.39,11.37-10.17,12.56a27.14,27.14,0,0,1-14.7-2.35c-5-2.39-7-7.07-9.08-11.91-.23-.54-1-1.27-2.92-2.16-4.39-2-6.38-7.77-4.19-10.76s4.78-.8,5.58.39,1.8,2.8,3.59,1,3.3-3.72,3.3-4.52a12.38,12.38,0,0,1,7.21-10.42C295.23,166.55,303.07,177.8,303.58,183.42Z" style="fill:#fff"></path><g style="clip-path:url(#clip-path-3)"><path d="M294.26,212.48c-5.19,0-9.74-3.25-13.31-7.47s-6.17-13.31-1.62-16.56c3.4-2.43,9.63-12.44,12.54-17.31a16.4,16.4,0,0,0-10,1.56,12.38,12.38,0,0,0-7.21,10.42c0,.8-1.5,2.73-3.3,4.52s-2.79.2-3.59-1-3.39-3.38-5.58-.39S262,195,266.42,197c1.95.89,2.69,1.62,2.92,2.16,2,4.84,4,9.52,9.08,11.91a27.14,27.14,0,0,0,14.7,2.35,13,13,0,0,0,3.67-1C296,212.46,295.18,212.48,294.26,212.48Z" style="opacity:0.2"></path></g><path d="M303.58,183.42c.72,7.9,2.11,12.27-.29,17.45s-1.39,11.37-10.17,12.56a27.14,27.14,0,0,1-14.7-2.35c-5-2.39-7-7.07-9.08-11.91-.23-.54-1-1.27-2.92-2.16-4.39-2-6.38-7.77-4.19-10.76s4.78-.8,5.58.39,1.8,2.8,3.59,1,3.3-3.72,3.3-4.52a12.38,12.38,0,0,1,7.21-10.42C295.23,166.55,303.07,177.8,303.58,183.42Z" style="fill:none;stroke:#263238;stroke-linecap:round;stroke-linejoin:round"></path><path d="M264,190.21s-.89-2.07.88-2.07,3.55,4,3.55,4-2.22-.73-1.48.6a2.23,2.23,0,0,0,1.77,1.32" style="fill:none;stroke:#263238;stroke-linecap:round;stroke-linejoin:round"></path><ellipse cx="286.64" cy="186.71" rx="1.3" ry="2.59" style="fill:#263238"></ellipse><path d="M299.7,185.72c0,1.43-.58,2.59-1.29,2.59s-1.3-1.16-1.3-2.59.58-2.6,1.3-2.6S299.7,184.29,299.7,185.72Z" style="fill:#263238"></path><path d="M282.12,183.49s1.7-4.09,6.8-2.43" style="fill:none;stroke:#263238;stroke-linecap:round;stroke-linejoin:round"></path><path d="M296.47,180s3.63-1.71,4.85,3.11" style="fill:none;stroke:#263238;stroke-linecap:round;stroke-linejoin:round"></path><path d="M296.33,190.22c1.35,4.65-3.32,5.06-6.54,3.55a1.31,1.31,0,0,1-.62-.49.47.47,0,0,1,.19-.67" style="fill:none;stroke:#263238;stroke-linecap:round;stroke-linejoin:round"></path><path d="M295.44,199s-1.05,1.06-5.71.21a10.2,10.2,0,0,1-6.76-4.86" style="fill:none;stroke:#263238;stroke-linecap:round;stroke-linejoin:round"></path><path d="M261.62,223.2s-10.57,5.39-12.56,14-.2,32.3,2.59,35.09,16,3.19,23.73-3.59,16.75-21.53,13.36-31.7S272.39,220,261.62,223.2Z" style="fill:#263238;stroke:#263238;stroke-linecap:round;stroke-linejoin:round"></path><path d="M255,307.54s-.4,19.74-.4,27.12v10.17s21.74-1.2,39.88-9.77a203.84,203.84,0,0,0,33.7-20.74L323,299s-32.7,6.78-50.24,7-18-.8-18-.8Z" style="fill:#263238;stroke:#263238;stroke-linecap:round;stroke-linejoin:round"></path><path d="M252.45,298.37s-3.79,12.76-1.8,14.75,8.78,5.19,29.71,5.19,35.1-6.18,41.08-9.17,6.18-5.39,5.38-8.78a115,115,0,0,0-4-11.16,88.34,88.34,0,0,1-35.89,8.17c-19.74,0-30.9-5-33.1-5S252.45,298.37,252.45,298.37Z" style="fill:#92E3A9"></path><g style="clip-path:url(#clip-path-4)"><path d="M253.84,292.39c-2.19,0-1.39,6-1.39,6s-3.79,12.76-1.8,14.75c1.06,1.06,3.45,2.44,8.55,3.52a21.27,21.27,0,0,0,3.72-10.41A121.4,121.4,0,0,0,269.73,296C260.64,294.54,255.29,292.39,253.84,292.39Z" style="opacity:0.2"></path></g><path d="M252.45,298.37s-3.79,12.76-1.8,14.75,8.78,5.19,29.71,5.19,35.1-6.18,41.08-9.17,6.18-5.39,5.38-8.78a115,115,0,0,0-4-11.16,88.34,88.34,0,0,1-35.89,8.17c-19.74,0-30.9-5-33.1-5S252.45,298.37,252.45,298.37Z" style="fill:none;stroke:#263238;stroke-linecap:round;stroke-linejoin:round"></path><path d="M260.42,224.4s9,3.59,12.37,16.35-1.4,21.73-9,24.72-13.95-1.39-16.74,1.2-1.6,13.76.59,22.33,6.18,16.35,22.34,18.34,40.27-2.19,48.45-7,8.37-11.16,8.37-18.14-.2-29.91-6.18-44.66-13.36-15.36-17.55-15.36-10,3.79-20.33,2.6S268.6,216,260.42,224.4Z" style="fill:#92E3A9"></path><g style="clip-path:url(#clip-path-5)"><path d="M263.12,306c1.76-2.35,14.62-20,17.92-36.86,3.53-18.12,5.3-38-5.31-43.75a32.24,32.24,0,0,0-12.25-3.49,16.58,16.58,0,0,0-3.06,2.54s9,3.59,12.37,16.35-1.4,21.73-9,24.72-13.95-1.39-16.74,1.2-1.6,13.76.59,22.33C249.51,296.2,252.61,302.83,263.12,306Z" style="opacity:0.2"></path></g><path d="M260.42,224.4s9,3.59,12.37,16.35-1.4,21.73-9,24.72-13.95-1.39-16.74,1.2-1.6,13.76.59,22.33,6.18,16.35,22.34,18.34,40.27-2.19,48.45-7,8.37-11.16,8.37-18.14-.2-29.91-6.18-44.66-13.36-15.36-17.55-15.36-10,3.79-20.33,2.6S268.6,216,260.42,224.4Z" style="fill:none;stroke:#263238;stroke-linecap:round;stroke-linejoin:round"></path><path d="M300.1,231.18s11.57,36.48,3.59,72.17" style="fill:none;stroke:#263238;stroke-linecap:round;stroke-linejoin:round"></path><path d="M295.32,227s-.4-5.18-13-9-22.53,2.19-25.13,5.18.6,3.19,8.38,3.19,29.71,5.58,31.3,4.79,14.36-4.59,15.16-10.17-10.17-2.39-12.17-1.4S295.32,227,295.32,227Z" style="fill:#92E3A9;stroke:#263238;stroke-linecap:round;stroke-linejoin:round"></path><path d="M326.42,204.86s-24.92,13.56-34.29,18.74-15.75,5.78-17.95,5.18-8.17-4.38-15.75-3.39-14.75,11.17-12.36,19.35,20.14,13.75,24.52,13.55,19.94-10.17,27.52-18.54a125.26,125.26,0,0,0,10.37-12.56,5.71,5.71,0,0,0,4.18,1.59,18.29,18.29,0,0,0,5.79-1.19s-5.59,5.38-3.39,5.78,7.17-4,11.56-5.18,10.57-6.58,11.37-9.37-4.39-6.19-7-10S328.81,204.66,326.42,204.86Z" style="fill:#fff"></path><g style="clip-path:url(#clip-path-6)"><path d="M322.51,227.09c0-2.92-5.19-6.49-8.77-6.49s-15.25,5.84-15.25,5.84l-3.58,13.31a14.76,14.76,0,0,0,2.59.65l.61-.65a125.26,125.26,0,0,0,10.37-12.56,5.71,5.71,0,0,0,4.18,1.59,18.29,18.29,0,0,0,5.79-1.19s-5.59,5.38-3.39,5.78c1.25.23,3.43-1.11,5.88-2.52A7.34,7.34,0,0,0,322.51,227.09Z" style="opacity:0.2"></path></g><path d="M326.42,204.86s-24.92,13.56-34.29,18.74-15.75,5.78-17.95,5.18-8.17-4.38-15.75-3.39-14.75,11.17-12.36,19.35,20.14,13.75,24.52,13.55,19.94-10.17,27.52-18.54a125.26,125.26,0,0,0,10.37-12.56,5.71,5.71,0,0,0,4.18,1.59,18.29,18.29,0,0,0,5.79-1.19s-5.59,5.38-3.39,5.78,7.17-4,11.56-5.18,10.57-6.58,11.37-9.37-4.39-6.19-7-10S328.81,204.66,326.42,204.86Z" style="fill:none;stroke:#263238;stroke-linecap:round;stroke-linejoin:round"></path><path d="M325,209.64s5.38,5.59,7.57,7.38,3.1,4.87,2.1,6.26" style="fill:none;stroke:#263238;stroke-linecap:round;stroke-linejoin:round"></path><path d="M321,213.43a77.08,77.08,0,0,0,7,6.78c2.19,1.6,3.42,5.63,1.43,6.82" style="fill:none;stroke:#263238;stroke-linecap:round;stroke-linejoin:round"></path><path d="M317.65,219s6.78,4,8.37,6.19-1,3.58-1,3.58" style="fill:none;stroke:#263238;stroke-linecap:round;stroke-linejoin:round"></path><path d="M292.13,223.6c-9.37,5.18-15.75,5.78-17.95,5.18s-8.17-4.38-15.75-3.39-14.75,11.17-12.36,19.35,20.14,13.75,24.52,13.55,19.94-10.17,27.52-18.54c2.92-3.23,5.12-5.83,6.74-7.81a12.66,12.66,0,0,1-4-5.55,9.32,9.32,0,0,1,.78-8C297.93,220.4,294.52,222.28,292.13,223.6Z" style="fill:gray"></path><g style="clip-path:url(#clip-path-7)"><path d="M300.9,226.39a.65.65,0,0,1,0-.13c-2.6,2.54-8,7.31-14.12,9.77-8.59,3.43-18.34,8.88-17.48,5.15s2.58-10,.29-6.3-3.95,7-8.88,5.44c-4-1.25-7.4-8.1-11.16-9.32-3.09,3.88-4.79,9.12-3.44,13.74,2.39,8.17,20.14,13.75,24.52,13.55s19.94-10.17,27.52-18.54c2.92-3.23,5.12-5.83,6.74-7.81A12.66,12.66,0,0,1,300.9,226.39Z" style="opacity:0.2"></path></g><path d="M292.13,223.6c-9.37,5.18-15.75,5.78-17.95,5.18s-8.17-4.38-15.75-3.39-14.75,11.17-12.36,19.35,20.14,13.75,24.52,13.55,19.94-10.17,27.52-18.54c2.92-3.23,5.12-5.83,6.74-7.81a12.66,12.66,0,0,1-4-5.55,9.32,9.32,0,0,1,.78-8C297.93,220.4,294.52,222.28,292.13,223.6Z" style="fill:none;stroke:#263238;stroke-linecap:round;stroke-linejoin:round"></path><path d="M371.75,290.37a3,3,0,0,0-4.39-.05c-1.9,2-4.38,4.85-4.09,5.84.47,1.59,7.77,15.51,9.5,14.83s7.22-2.21,7.59-6.36C380.66,301.38,375.24,294.14,371.75,290.37Z" style="fill:#fff;stroke:#263238;stroke-linecap:round;stroke-linejoin:round"></path><line x1="364.97" y1="300.5" x2="373.32" y2="292.48" style="fill:none;stroke:#263238;stroke-linecap:round;stroke-linejoin:round"></line><line x1="367.59" y1="304.89" x2="376.67" y2="297.75" style="fill:none;stroke:#263238;stroke-linecap:round;stroke-linejoin:round"></line><line x1="370.31" y1="308.55" x2="379.79" y2="301.69" style="fill:none;stroke:#263238;stroke-linecap:round;stroke-linejoin:round"></line><path d="M194,241.35a28.13,28.13,0,0,1,10,13.35c3.19,9,11,33.7,12,35.1s7.78,9,9.37,13.75-2,11.57-11.56,10.57S203.2,308.94,200,292.79s-8.77-43.07-9.17-47.46Z" style="fill:#fff;stroke:#263238;stroke-linecap:round;stroke-linejoin:round"></path><path d="M216,289.85l0-.05c-1-1.4-8.77-26.12-12-35.1a28.13,28.13,0,0,0-10-13.35l-3.19,4c.37,4.14,5.35,28.27,8.59,44.56l6.62,4.83Z" style="fill:#707070;stroke:#263238;stroke-linecap:round;stroke-linejoin:round"></path><path d="M206.76,286.51s6.43-2.86,8.57-2.86,5,7.5,5,9.29-15,10-17.14,6.07S196.41,288.29,206.76,286.51Z" style="fill:#fff;stroke:#263238;stroke-linecap:round;stroke-linejoin:round"></path><path d="M132.82,320.9s-.8,12.16,0,19.94,5,10.37,17,15.55,45.26-2.79,54.63-7.77,13-22.14,10.17-28.52-5.39-11.76-5.39-11.76-14.35,7.18-36.88,9.37a209.31,209.31,0,0,1-38.69.4C132.82,318.11,132.82,320.9,132.82,320.9Z" style="fill:#707070;stroke:#263238;stroke-linecap:round;stroke-linejoin:round"></path><path d="M138.2,242.34s-9.57,1.4-12.36,6.18-1.4,54,1.19,57.83,4.19,4.78,4.19,4.78-4,5.38-.8,10.17,19.74,9.17,42.27,5.18,32.5-9.77,35.89-14.15,3.59-7,2.6-10.17S210,298,210,298s2.19-4,0-13.16-12-37.88-15.15-42.47-7.38-5-17.55-6.58S138.2,242.34,138.2,242.34Z" style="fill:#92E3A9"></path><g style="clip-path:url(#clip-path-8)"><path d="M193.53,302.25c-16.45,4.28-46.85,9.72-50.82,7.51s-1.77-11.93.44-26.51-4-20.33-4-20.33l-14.72-3.11c-.59,16.16.67,43.74,2.58,46.54,2.6,3.78,4.19,4.78,4.19,4.78s-4,5.38-.8,10.17c2.49,3.73,13.11,7.22,28.35,6.68-2.83-1.35-13.15-6.58-14.3-11.15-1.32-5.3,8-4,12.38-4s30.05-5.31,38.89-8.4S210,298,193.53,302.25Z" style="opacity:0.2"></path></g><path d="M138.2,242.34s-9.57,1.4-12.36,6.18-1.4,54,1.19,57.83,4.19,4.78,4.19,4.78-4,5.38-.8,10.17,19.74,9.17,42.27,5.18,32.5-9.77,35.89-14.15,3.59-7,2.6-10.17S210,298,210,298s2.19-4,0-13.16-12-37.88-15.15-42.47-7.38-5-17.55-6.58S138.2,242.34,138.2,242.34Z" style="fill:none;stroke:#263238;stroke-linecap:round;stroke-linejoin:round"></path><path d="M210,298c-44.06,21.73-78.76,13.16-78.76,13.16" style="fill:none;stroke:#263238;stroke-linecap:round;stroke-linejoin:round"></path><path d="M174.89,256.7s12.56,39.68,6.38,66" style="fill:none;stroke:#263238;stroke-linecap:round;stroke-linejoin:round"></path><path d="M158.14,231.38s-14.95-.2-20.54,4.18-3.59,8.18,2,11.37,25.72,10.37,35.89,7.58,22.93-12.57,19.93-21.54-17.54-5-24.12-4.58A49.24,49.24,0,0,0,158.14,231.38Z" style="fill:#263238;stroke:#263238;stroke-linecap:round;stroke-linejoin:round"></path><path d="M154,226.19s1.8,12.76,4.39,18.74,12.76,10.17,17.74,7.38,7.18-9.57,7.18-14.15-.6-10.77-.6-10.77-15.95,2.59-20.93.2S154,226.19,154,226.19Z" style="fill:#fff"></path><g style="clip-path:url(#clip-path-9)"><path d="M182.66,227.39s-15.95,2.59-20.93.2-7.78-1.4-7.78-1.4,1.8,12.76,4.39,18.74a11,11,0,0,0,2.65,3.59c3.41.6,5.63-.53,10.41-3.1a63.38,63.38,0,0,0,11.85-8.4C183.17,232.62,182.66,227.39,182.66,227.39Z" style="opacity:0.2"></path></g><path d="M154,226.19s1.8,12.76,4.39,18.74,12.76,10.17,17.74,7.38,7.18-9.57,7.18-14.15-.6-10.77-.6-10.77-15.95,2.59-20.93.2S154,226.19,154,226.19Z" style="fill:none;stroke:#263238;stroke-linecap:round;stroke-linejoin:round"></path><path d="M193.67,199.23s.83,1.66-2.48,3.87-10.49,2.48-10.49,2.48L179,199.51S187.87,195.65,193.67,199.23Z" style="fill:#263238;stroke:#263238;stroke-linecap:round;stroke-linejoin:round"></path><path d="M149.51,210.55s-3.32-4.41-5.52-.27,1.93,9.1,4.69,10.21,3.59,2.48,3.31-.83S149.51,210.55,149.51,210.55Z" style="fill:#fff;stroke:#263238;stroke-linecap:round;stroke-linejoin:round"></path><path d="M184,198.68s3.86,13,4.41,21-3,12.15-11,15.46-14.62,1.1-19.59-2.49-5.8-8.28-7.18-13.25-3-15.45-3-15.45,7.46-8.56,18.22-11.6,16.29.83,16.29.83Z" style="fill:#fff"></path><g style="clip-path:url(#clip-path-10)"><path d="M164.58,214.58c12-2.58,18.5-7,21.21-9.29-.95-3.81-1.78-6.61-1.78-6.61l-1.93-5.52s-5.52-3.86-16.29-.83-18.22,11.6-18.22,11.6.92,5.78,2,10.79A35.92,35.92,0,0,0,164.58,214.58Z" style="opacity:0.2"></path></g><path d="M184,198.68s3.86,13,4.41,21-3,12.15-11,15.46-14.62,1.1-19.59-2.49-5.8-8.28-7.18-13.25-3-15.45-3-15.45,7.46-8.56,18.22-11.6,16.29.83,16.29.83Z" style="fill:none;stroke:#263238;stroke-linecap:round;stroke-linejoin:round"></path><path d="M188.43,219.66a102.58,102.58,0,0,0-3.16-16.4c0,.31.08.61.12.94,1.1,9.39,1.1,11.6,0,14.08s-3,.83-8.56-1.38S163.58,223,160,224.08s-4.14-1.11-5.79-5.25-3-14.63-3-14.63l-.61-3.18a34.56,34.56,0,0,0-3,2.91s1.66,10.49,3,15.45,2.21,9.66,7.18,13.25,11.59,5.8,19.59,2.49S189,227.66,188.43,219.66Z" style="fill:#263238;stroke:#263238;stroke-linecap:round;stroke-linejoin:round"></path><path d="M173.52,208.34s2.48,6.08,1.66,8.56-1.66,4.14-4.42,2.76a3.41,3.41,0,0,1-1.66-4.14" style="fill:#fff;stroke:#263238;stroke-linecap:round;stroke-linejoin:round"></path><path d="M167.17,224.08s3.59,2.48,9.66-.83" style="fill:none;stroke:#fff;stroke-linecap:round;stroke-linejoin:round"></path><path d="M166.29,210.43c.18,1.11-.26,2.1-1,2.21s-1.43-.7-1.6-1.81.26-2.1,1-2.21S166.12,209.32,166.29,210.43Z" style="fill:#263238"></path><path d="M177.86,207.66c.18,1.11-.26,2.1-1,2.21s-1.43-.7-1.6-1.81.26-2.1,1-2.21S177.69,206.55,177.86,207.66Z" style="fill:#263238"></path><path d="M151.16,206.14l-5.24,2.48s-3-12.42-3.59-16.84,13-13,22.08-13,16,2.21,16.84,4.14,4.14,13.8,4.14,13.8,0,1.66-1.38,1.93-10.21.83-17.39,3.59A79.18,79.18,0,0,1,151.16,206.14Z" style="fill:#92E3A9"></path><g style="clip-path:url(#clip-path-11)"><path d="M159.13,195.62c0-3.12-.26-12.62-.35-15.94-8.17,2.28-16.9,8.54-16.45,12.1.55,4.42,3.59,16.84,3.59,16.84l5.24-2.48a84.7,84.7,0,0,0,12-2.67c2.56-2.36,4.36-4.05,4.36-4.05S159.13,199.42,159.13,195.62Z" style="opacity:0.2"></path></g><path d="M151.16,206.14l-5.24,2.48s-3-12.42-3.59-16.84,13-13,22.08-13,16,2.21,16.84,4.14,4.14,13.8,4.14,13.8,0,1.66-1.38,1.93-10.21.83-17.39,3.59A79.18,79.18,0,0,1,151.16,206.14Z" style="fill:none;stroke:#263238;stroke-linecap:round;stroke-linejoin:round"></path><path d="M151.16,206.14a21.18,21.18,0,0,0,12.42,2.76c7.46-.56,13.53-6.08,19-8.56a18.59,18.59,0,0,1,11-1.11s.55-2.48-9.94-2.76S156.68,200.89,151.16,206.14Z" style="fill:#92E3A9"></path><g style="clip-path:url(#clip-path-12)"><path d="M163.58,208.9a24.9,24.9,0,0,0,10.23-3.55,107.88,107.88,0,0,0-12-4.41l-1-.11c-4.12,1.55-7.6,3.39-9.62,5.31A21.18,21.18,0,0,0,163.58,208.9Z" style="opacity:0.2"></path></g><path d="M151.16,206.14a21.18,21.18,0,0,0,12.42,2.76c7.46-.56,13.53-6.08,19-8.56a18.59,18.59,0,0,1,11-1.11s.55-2.48-9.94-2.76S156.68,200.89,151.16,206.14Z" style="fill:none;stroke:#263238;stroke-linecap:round;stroke-linejoin:round"></path><path d="M129.43,285.61s14.55-12.16,13-26.72-8.18-16.75-16.75-12-17.35,27.51-19.54,36.89,3,14.95,11.76,12.36A18.26,18.26,0,0,0,129.43,285.61Z" style="fill:#707070;stroke:#263238;stroke-linecap:round;stroke-linejoin:round"></path><path d="M134.61,279.23a44.53,44.53,0,0,0-18.74-9.37c-10.77-2.2-12.56,6.38-13.36,11.56s-1,9.37,5.58,12,11.17,1.59,16.15-1.6S134.81,280,134.81,280Z" style="fill:#fff;stroke:#263238;stroke-linecap:round;stroke-linejoin:round"></path><path d="M140.19,349.61s20.94-29.11,35.1-32.1,17.34,18.74,20.13,29.31,4,14.56,4,14.56-29.11,3.19-42.27,1.59-25.52-10.57-25.52-10.57Z" style="fill:#707070;stroke:#263238;stroke-linecap:round;stroke-linejoin:round"></path><path d="M162.53,363c.39-2-1.2-17.94,3-31.9" style="fill:none;stroke:#263238;stroke-linecap:round;stroke-linejoin:round"></path><line x1="171.1" y1="277.24" x2="280.16" y2="339.24" style="fill:none;stroke:#263238;stroke-linecap:round;stroke-linejoin:round;stroke-width:5px"></line><path d="M215.56,302.56s-2.79.4-3.19,1.79-1.39,6.18.2,6.58,6,2.59,7,1.2.2-2.2-1-3.19l-1.19-1s1.79-3,.79-4.39A2.55,2.55,0,0,0,215.56,302.56Z" style="fill:#fff;stroke:#263238;stroke-linecap:round;stroke-linejoin:round"></path><path d="M218.37,299.53a2.32,2.32,0,0,0-2.8,1.91c-.32,2.11-.63,5,0,5.5,1,.8,11.77,6.38,12.56,5.19s3.59-4.59,2-7.38C228.87,302.56,222.24,300.38,218.37,299.53Z" style="fill:#fff;stroke:#263238;stroke-linecap:round;stroke-linejoin:round"></path><line x1="218.55" y1="308.94" x2="220.29" y2="300.18" style="fill:none;stroke:#263238;stroke-linecap:round;stroke-linejoin:round"></line><line x1="222.15" y1="310.56" x2="224.75" y2="302.03" style="fill:none;stroke:#263238;stroke-linecap:round;stroke-linejoin:round"></line><line x1="225.49" y1="311.67" x2="228.45" y2="303.14" style="fill:none;stroke:#263238;stroke-linecap:round;stroke-linejoin:round"></line><path d="M197.62,335.85s10.37-17.34,23.53-22.92,22.53-.6,23.92,7,4.79,25.33,4.79,25.33S226.33,354,218.15,357s-19.54,3.19-22.13,1.4-.4-7.38-.4-7.38" style="fill:#707070;stroke:#263238;stroke-linecap:round;stroke-linejoin:round"></path><path d="M218.15,357s1-20.34,7-33.3" style="fill:none;stroke:#263238;stroke-linecap:round;stroke-linejoin:round"></path><path d="M132.22,272.65s-15.55.8-23.73,10.77-1.19,15.15,6.78,15.75,18-6.58,23.93-11.57,12.56-9.37,12.56-9.37,5.38,3.79,8.77,4.79,8,2.19,10.57,1.59,7.78-8,8-9.77-5.18-10.76-7.77-12-18.15,6.38-19.34,6.58Z" style="fill:#fff"></path><g style="clip-path:url(#clip-path-13)"><path d="M162.45,280.66c-2.92-2,1-7.47,6.17-14.29,1.07-1.4,1.93-2.58,2.52-3.54-3-.88-18,6.43-19.18,6.63l-4.36.71c-5.79,3.92-10.9,8-14.69,10.16-6.82,3.9-14,6.82-17.21,3.58-2.14-2.14-.48-5.11.91-6.9a25.77,25.77,0,0,0-8.12,6.41c-8.17,10-1.19,15.15,6.78,15.75s18-6.58,23.93-11.57,12.56-9.37,12.56-9.37,5.38,3.79,8.77,4.79,8,2.19,10.57,1.59a2.78,2.78,0,0,0,.71-.3C170.1,283.11,164.54,282.05,162.45,280.66Z" style="opacity:0.2"></path></g><path d="M132.22,272.65s-15.55.8-23.73,10.77-1.19,15.15,6.78,15.75,18-6.58,23.93-11.57,12.56-9.37,12.56-9.37,5.38,3.79,8.77,4.79,8,2.19,10.57,1.59,7.78-8,8-9.77-5.18-10.76-7.77-12-18.15,6.38-19.34,6.58Z" style="fill:none;stroke:#263238;stroke-linecap:round;stroke-linejoin:round"></path><path d="M164.36,277.45c1.08,1.35,8.65,5.95,8.65,5.95" style="fill:none;stroke:#263238;stroke-linecap:round;stroke-linejoin:round"></path><line x1="168.69" y1="273.12" x2="174.91" y2="279.61" style="fill:none;stroke:#263238;stroke-linecap:round;stroke-linejoin:round"></line><line x1="171.39" y1="267.7" x2="178.43" y2="277.45" style="fill:none;stroke:#263238;stroke-linecap:round;stroke-linejoin:round"></line><path d="M138.82,439C96.51,431.38,69,419,69,405c0-8.95,11.26-17.24,30.44-24.05" style="fill:none;stroke:#263238;stroke-linecap:round;stroke-linejoin:round"></path><path d="M378.66,428.29C348.36,439.57,296.67,447,238,447c-32.93,0-63.65-2.34-89.64-6.39" style="fill:none;stroke:#263238;stroke-linecap:round;stroke-linejoin:round"></path><path d="M107.72,378.24C138.72,368.93,185.57,363,238,363c93.34,0,169,18.8,169,42,0,6.88-6.66,13.38-18.47,19.11" style="fill:none;stroke:#263238;stroke-linecap:round;stroke-linejoin:round"></path><path d="M252.21,436.84q-7,.17-14.21.16c-56.86,0-106.43-7.39-132.49-18.34" style="fill:none;stroke:#263238;stroke-linecap:round;stroke-linejoin:round"></path><path d="M94.79,413.09C89.1,409.31,86,405.24,86,401c0-19.88,68.05-36,152-36s152,16.12,152,36c0,17.66-53.71,32.36-124.56,35.42" style="fill:none;stroke:#263238;stroke-linecap:round;stroke-linejoin:round"></path><ellipse cx="238" cy="401" rx="126.67" ry="30" style="fill:none;stroke:#263238;stroke-linecap:round;stroke-linejoin:round"></ellipse><path d="M138,380.84s-15.28,3.06-12.74,5.6,14.27,20.38,70.83,36.69,137.06,0,148.78-4.59,5.1-10.19-4.59-12.23S138,380.84,138,380.84Z" style="opacity:0.2"></path><path d="M139.92,376.25s-14.79,3.12-12.32,5.72,13.8,20.8,68.5,37.45,132.57,0,143.9-4.68,4.93-10.41-4.44-12.49S139.92,376.25,139.92,376.25Z" style="opacity:0.2"></path><path d="M126.74,336.44s1.08,24.9,2.44,33.28,12.17,30.85,74.14,46,135,0,137.74-5.68,25.44-62.24,16.51-144.24c0,0-47.08,34.37-75.5,49.52s-62,31.39-84.16,36.8-42.76.82-55.47-5.41S126.74,336.44,126.74,336.44Z" style="fill:#fff"></path><g style="clip-path:url(#clip-path-14)"><path d="M174,365.39c-21.39-1.13-37.22-10.34-47.28-13,2.11,9.11-7.62,54.14,76.61,63.3,35.87,3.9,73.64,7.44,101.05,3.82,32.94-19.86,38-43.92,30.52-60.26C313.54,312.77,246.43,369.2,174,365.39Z" style="opacity:0.2"></path><path d="M124.51,340.24s20.12,22.46,56.16,20.59,85.16-22.93,126.81-51,54.75-39.31,54.75-39.31L357.08,264a696.35,696.35,0,0,1-80,51c-43.52,23.39-66.45,36-89.37,38.84s-41.18-7-49.61-11.7a115.71,115.71,0,0,1-12.66-7.91S123.11,335.09,124.51,340.24Z" style="opacity:0.2"></path></g><path d="M126.74,336.44s1.08,24.9,2.44,33.28,12.17,30.85,74.14,46,135,0,137.74-5.68,25.44-62.24,16.51-144.24c0,0-47.08,34.37-75.5,49.52s-62,31.39-84.16,36.8-42.76.82-55.47-5.41S126.74,336.44,126.74,336.44Z" style="fill:none;stroke:#263238;stroke-linecap:round;stroke-linejoin:round"></path><path d="M338.64,327.28c12.93-8,20.81-13.83,20.81-13.83" style="fill:none;stroke:#263238;stroke-linecap:round;stroke-linejoin:round"></path><path d="M202.18,373.32l3.94.13c45.2,1.3,96.64-24.6,127-42.78" style="fill:none;stroke:#263238;stroke-linecap:round;stroke-linejoin:round"></path><path d="M128,355.92c6.17,4.88,23,14,63.93,16.85" style="fill:none;stroke:#263238;stroke-linecap:round;stroke-linejoin:round"></path><path d="M261.16,406.84c62.61-1,87.71-19.47,87.71-19.47" style="fill:none;stroke:#263238;stroke-linecap:round;stroke-linejoin:round"></path><path d="M130.63,374.55c11.76,9.8,41.14,27.74,101.49,31.57,7.42.47,14.44.71,21.08.76" style="fill:none;stroke:#263238;stroke-linecap:round;stroke-linejoin:round"></path><path d="M179.94,356.94c-37.05,0-54.11-19.28-54.6-19.8a2.08,2.08,0,1,1,3-2.86c.16.17,19.66,18.26,58.26,16,17.8-1.06,48.24-13,85.7-33.6,31.7-17.44,64.88-39.33,84.52-55.77a3.25,3.25,0,0,1,4.17,5c-35.56,29.75-131,88.3-174,90.86C184.58,356.88,182.22,356.94,179.94,356.94Z" style="fill:#263238"></path><path d="M378.66,299.82c-3.32-9.44-11-16.22-19.05-16.88a1.78,1.78,0,0,0-.51.06c.07,1.05.15,2.12.21,3.17h0c6.82.55,13.35,6.47,16.25,14.72,3.71,10.57.27,21.44-7.68,24.23s-17.43-3.53-21.15-14.1c-2.74-7.79-1.67-16,2.71-20.88a1.62,1.62,0,0,0-2.42-2.16c-5.16,5.76-6.48,15.23-3.35,24.12C347.3,322.32,355.77,329,364.07,329a15,15,0,0,0,4.93-.83C378.64,324.81,383,312.08,378.66,299.82Z" style="fill:#fff;stroke:#263238;stroke-linecap:round;stroke-linejoin:round"></path><path d="M293.45,168.45s-.33,4.67-8.33,9-13.34,5.67-16,5.33.66-2.66,3.66-5.66,8-14.34,14.67-14.67S293.45,168.45,293.45,168.45Z" style="fill:#263238"></path></g></svg>