<svg xmlns="http://www.w3.org/2000/svg" viewBox="0 0 500 500"><g id="background-simple"><path d="M156.87,466.82s-89.36-33.92-130.73-139S133.7,149.1,132,133.38s-105.9-24-43.85-74.47S367.85,2.65,447.29,111,444,255,435.7,274s73.64,26.47,16.55,124.11S222.23,493.3,156.87,466.82Z" style="fill:#92E3A9"></path><path d="M156.87,466.82s-89.36-33.92-130.73-139S133.7,149.1,132,133.38s-105.9-24-43.85-74.47S367.85,2.65,447.29,111,444,255,435.7,274s73.64,26.47,16.55,124.11S222.23,493.3,156.87,466.82Z" style="fill:#fff;opacity:0.7000000000000001"></path></g><g id="Floor"><path d="M85.06,462a20.94,20.94,0,0,1,11.36-2.47c6.41.49,8.88,3.95,8.88,3.95s5.43-1.48,8.89-.5l3.45,1s5.92-2,10.37-.49" style="fill:none;stroke:#263238;stroke-linecap:round;stroke-linejoin:round"></path><path d="M194.27,455.27a17.74,17.74,0,0,1,9.56-2.08c5.41.42,7.48,3.33,7.48,3.33s4.58-1.25,7.49-.42l2.9.84s5-1.67,8.73-.42" style="fill:none;stroke:#263238;stroke-linecap:round;stroke-linejoin:round"></path><path d="M76.76,422.74a13.23,13.23,0,0,1,7.16-1.56c4,.32,5.6,2.49,5.6,2.49s3.42-.93,5.6-.31l2.18.62s3.73-1.24,6.53-.31" style="fill:none;stroke:#263238;stroke-linecap:round;stroke-linejoin:round"></path><path d="M115.81,470.35A13.15,13.15,0,0,1,123,468.8c4.05.31,5.6,2.48,5.6,2.48s3.43-.93,5.6-.31l2.18.63s3.74-1.25,6.54-.32" style="fill:none;stroke:#263238;stroke-linecap:round;stroke-linejoin:round"></path><path d="M198.51,370.74a11.66,11.66,0,0,1,6.31-1.38c3.57.28,4.94,2.2,4.94,2.2a11.6,11.6,0,0,1,4.94-.27l1.93.54s3.29-1.09,5.76-.27" style="fill:none;stroke:#263238;stroke-linecap:round;stroke-linejoin:round"></path><path d="M370.49,441.45a11.6,11.6,0,0,1,6.31-1.37c3.57.27,4.94,2.2,4.94,2.2s3-.83,4.94-.28l1.93.55s3.29-1.1,5.76-.27" style="fill:none;stroke:#263238;stroke-linecap:round;stroke-linejoin:round"></path><path d="M454.14,365.44a9.54,9.54,0,0,1,5.13-1.11,5.42,5.42,0,0,1,4,1.78,9.35,9.35,0,0,1,4-.22l1.56.45a8.75,8.75,0,0,1,4.68-.23" style="fill:none;stroke:#263238;stroke-linecap:round;stroke-linejoin:round"></path><path d="M436.8,369.3a8.08,8.08,0,0,1,4.37-.95,4.64,4.64,0,0,1,3.42,1.52,8,8,0,0,1,3.42-.19l1.33.38a7.51,7.51,0,0,1,4-.19" style="fill:none;stroke:#263238;stroke-linecap:round;stroke-linejoin:round"></path><path d="M459.2,369.07a8.08,8.08,0,0,1,4.37-.95,4.64,4.64,0,0,1,3.42,1.52,8,8,0,0,1,3.42-.19l1.33.38a7.51,7.51,0,0,1,4-.19" style="fill:none;stroke:#263238;stroke-linecap:round;stroke-linejoin:round"></path><path d="M390.44,446a8.08,8.08,0,0,1,4.37-1,4.64,4.64,0,0,1,3.42,1.52,8,8,0,0,1,3.42-.19l1.33.38a7.51,7.51,0,0,1,4-.19" style="fill:none;stroke:#263238;stroke-linecap:round;stroke-linejoin:round"></path><path d="M234.59,455.78a8.08,8.08,0,0,1,4.37-.95,4.64,4.64,0,0,1,3.42,1.52,8,8,0,0,1,3.42-.19l1.33.38a7.51,7.51,0,0,1,4-.19" style="fill:none;stroke:#263238;stroke-linecap:round;stroke-linejoin:round"></path><path d="M428.47,445.28a8.13,8.13,0,0,1,4.37-.94,4.65,4.65,0,0,1,3.42,1.51,7.91,7.91,0,0,1,3.42-.18l1.33.38a7.47,7.47,0,0,1,4-.2" style="fill:none;stroke:#263238;stroke-linecap:round;stroke-linejoin:round"></path><path d="M300.28,446.72a8.08,8.08,0,0,1,4.37-1,4.64,4.64,0,0,1,3.42,1.52,8,8,0,0,1,3.42-.19l1.33.38a7.51,7.51,0,0,1,4-.19" style="fill:none;stroke:#263238;stroke-linecap:round;stroke-linejoin:round"></path><path d="M120.87,439.47a8.08,8.08,0,0,1,4.37-1,4.64,4.64,0,0,1,3.42,1.52,8,8,0,0,1,3.42-.19l1.33.38a7.51,7.51,0,0,1,4-.19" style="fill:none;stroke:#263238;stroke-linecap:round;stroke-linejoin:round"></path><path d="M192.47,365.52a8.08,8.08,0,0,1,4.37-.95,4.64,4.64,0,0,1,3.42,1.52,8,8,0,0,1,3.42-.19l1.33.38a7.51,7.51,0,0,1,4-.19" style="fill:none;stroke:#263238;stroke-linecap:round;stroke-linejoin:round"></path><path d="M62.43,446.72a8.08,8.08,0,0,1,4.37-1,4.64,4.64,0,0,1,3.42,1.52,8,8,0,0,1,3.42-.19l1.33.38a7.51,7.51,0,0,1,4-.19" style="fill:none;stroke:#263238;stroke-linecap:round;stroke-linejoin:round"></path><path d="M370.48,424.44a8.08,8.08,0,0,1,4.37-.95,4.64,4.64,0,0,1,3.42,1.52,8,8,0,0,1,3.42-.19l1.33.38a7.48,7.48,0,0,1,4-.19" style="fill:none;stroke:#263238;stroke-linecap:round;stroke-linejoin:round"></path><path d="M213.93,460.18a8.08,8.08,0,0,1,4.37-.95,4.64,4.64,0,0,1,3.42,1.52,8,8,0,0,1,3.42-.19l1.33.38a7.51,7.51,0,0,1,4-.19" style="fill:none;stroke:#263238;stroke-linecap:round;stroke-linejoin:round"></path><line x1="9.02" y1="353.69" x2="491.6" y2="284.65" style="fill:none;stroke:#263238;stroke-linecap:round;stroke-linejoin:round"></line></g><g id="Windows"><polygon points="112.73 213.12 63.23 216.58 63.23 29.03 112.73 32.49 112.73 213.12" style="fill:none;stroke:#263238;stroke-linecap:round;stroke-linejoin:round"></polygon><polygon points="63.23 29.03 63.23 216.58 99.51 214.04 99.51 31.56 63.23 29.03" style="fill:none;stroke:#263238;stroke-linecap:round;stroke-linejoin:round"></polygon><polygon points="169.05 209.18 123.85 212.34 123.85 33.26 169.05 36.42 169.05 209.18" style="fill:none;stroke:#263238;stroke-linecap:round;stroke-linejoin:round"></polygon><polygon points="123.85 33.26 123.85 212.34 156.96 210.03 156.96 35.58 123.85 33.26" style="fill:none;stroke:#263238;stroke-linecap:round;stroke-linejoin:round"></polygon><polygon points="322.32 196.87 288.68 199.22 288.68 45.12 322.32 47.48 322.32 196.87" style="fill:none;stroke:#263238;stroke-linecap:round;stroke-linejoin:round"></polygon><polygon points="288.68 45.12 288.68 199.22 313.29 197.5 313.29 46.84 288.68 45.12" style="fill:none;stroke:#263238;stroke-linecap:round;stroke-linejoin:round"></polygon><polygon points="361.14 194.16 329.94 196.34 329.94 48.01 361.14 50.19 361.14 194.16" style="fill:none;stroke:#263238;stroke-linecap:round;stroke-linejoin:round"></polygon><polygon points="329.94 48.01 329.94 196.34 352.76 194.75 352.76 49.6 329.94 48.01" style="fill:none;stroke:#263238;stroke-linecap:round;stroke-linejoin:round"></polygon><polygon points="439.9 189.59 419.07 191.65 419.07 56.34 439.9 58.41 439.9 189.59" style="fill:none;stroke:#263238;stroke-linecap:round;stroke-linejoin:round"></polygon><polygon points="419.07 56.34 419.07 191.65 434.31 190.14 434.31 57.86 419.07 56.34" style="fill:none;stroke:#263238;stroke-linecap:round;stroke-linejoin:round"></polygon><polygon points="463.94 187.2 444.62 189.12 444.62 58.88 463.94 60.79 463.94 187.2" style="fill:none;stroke:#263238;stroke-linecap:round;stroke-linejoin:round"></polygon><polygon points="444.62 58.88 444.62 189.12 458.75 187.72 458.75 60.28 444.62 58.88" style="fill:none;stroke:#263238;stroke-linecap:round;stroke-linejoin:round"></polygon></g><g id="hens-2"><path d="M348.69,335.19s1.28,5.82,1.42,7a8.21,8.21,0,0,1-.64,3,10.41,10.41,0,0,0,.57,4c.5,1.42-.43,1.71-.64.85s-.71-4.11-.71-4.11a6.65,6.65,0,0,0-.42,3c0,2.27.49,2.77-.15,2.77s-.92-1.35-.85-2.49a28.93,28.93,0,0,1,.71-3.62,28.3,28.3,0,0,0-1.84,4.19c-.14.92-1,.71-.43-1.28a27.23,27.23,0,0,1,2.2-4.89c.57-1.14-.64-.85-.78-2.13s.57-.71,1.06-.43l.5.29-2.55-7.1Z" style="fill:#263238"></path><path d="M367.79,286.17s-4.17,0-5.94,3-2.65,8.51-3.69,12.52-3.53,4.5-3.53,4.5-5.21-.16-6.9-1.29-2.41-3.53-3.61-5.05-4.33-3.37-3.77-2a6,6,0,0,1,.56,1.85s-2-4.34-2.41-2.25a13.4,13.4,0,0,0-.24,4.89c.24.89-1.28-3.45-1.52-.64a11.18,11.18,0,0,0,.88,6c.56.88.56,2.09.88,6.58a14.91,14.91,0,0,0,2.41,7.3,40.74,40.74,0,0,0,1.6,8.67,7.53,7.53,0,0,0,5.22,5l1.52.32a17.71,17.71,0,0,0,5.3.89c2.81,0,2.73-.48,2.73-.48s-1.2,2,1,1.92,2.89-.64,3.13-1.36,3.37-2.89,6.42-6,6.58-3.13,8.91-9.31.64-14.44-2.57-19.18-5.06-4.17-5-8.1,2.17-3.69,1.61-6.34S367.79,286.17,367.79,286.17Z" style="fill:#fff;stroke:#263238;stroke-linecap:round;stroke-linejoin:round"></path><path d="M357.78,307.1a3.56,3.56,0,0,1,0-1.91l-.79-.79a8.26,8.26,0,0,0,1.17-2.67c1-4,1.93-9.47,3.69-12.52s5.94-3,5.94-3,2.49-1.21,3,1.44-1.52,2.41-1.61,6.34,1.77,3.37,5,8.1a20,20,0,0,1,1.14,1.95l-.13.36s1.08,3.07,0,3.07-3.41-2.41-3.41-2.41.25,2.24-.5,2.41-2-2.33-2-2.33.25,2.41-1,2.41-1.5-1.49-1.5-1.49-2.08,2.74-2.82,2.41-1.42-1.83-1.42-1.83-1.16,1.41-1.57,1.16-.42-2-.42-2S358.11,307.68,357.78,307.1Z" style="fill:#fff;stroke:#263238;stroke-linecap:round;stroke-linejoin:round"></path><path d="M370.6,288.89s-.64-1.76-1.45-2.08-2.24-.89-1.52-2.17,1-1.44,1.44-.64,1.21-.32,1.61.16a2.14,2.14,0,0,1,.24,1.84c-.16.57.72.25.64,1.37s.4,2-.08,2A1.36,1.36,0,0,1,370.6,288.89Z" style="fill:#92E3A9;stroke:#263238;stroke-linecap:round;stroke-linejoin:round"></path><path d="M371.48,289.37s1.37.09,1.61.89l.24.8a4.49,4.49,0,0,0-1.85-.32,29.75,29.75,0,0,0-3.05,1.2c-1,.48-2.65.24-2.89-.8s.16-1.36,1.45-1.36a13.15,13.15,0,0,0,2.16-.08C369.64,289.62,370.68,289,371.48,289.37Z" style="fill:#c4c4c4;stroke:#263238;stroke-linecap:round;stroke-linejoin:round;stroke-width:0.5px"></path><path d="M370.92,290.9s1.28,1.76.56,2.81-1.68,1-2.25.24a5.63,5.63,0,0,1-.8-2Z" style="fill:#92E3A9;stroke:#263238;stroke-linecap:round;stroke-linejoin:round"></path><path d="M367.08,288.53a.59.59,0,0,0,1.18,0,.59.59,0,0,0-1.18,0Z" style="fill:#263238"></path><path d="M373.33,291.06a2.78,2.78,0,0,0-2.59-.69c-1.76.28-3.15.74-3.77.77" style="fill:none;stroke:#263238;stroke-linecap:round;stroke-linejoin:round;stroke-width:0.5px"></path><path d="M366.54,288a.74.74,0,0,0-.11.94" style="fill:none;stroke:#263238;stroke-linecap:round;stroke-linejoin:round;stroke-width:0.5px"></path><path d="M361.32,313s3.34,2.83,2.56,6.88-7.95,7.95-11.07,9.22-5.75,3.55-8.8,2.77-5.25-4.33-4.68-4.33h1.34a3,3,0,0,1-2.05-2.77c0-2.12,2.41-2.41,2.41-2.41s-1.42-2.69-1-3,3.84-2.34,3.84-2.34a1.24,1.24,0,0,1-1.14-1.42c.07-1.35,2.84-4.33,8.23-5.18s7,.71,7.31,1.07" style="fill:#fff;stroke:#263238;stroke-linecap:round;stroke-linejoin:round"></path><path d="M352.52,315S347,315.68,347,317s1.49,1.63,1.49,1.63-6.39,1.85-6.46,3.12a1.57,1.57,0,0,0,.85,1.64s-2.76,3.19-2.2,4.18,5.68-.07,5.89-.07-1.84,1.56-1,2.06,3.33-.43,3.33-.43" style="fill:none;stroke:#263238;stroke-linecap:round;stroke-linejoin:round"></path><path d="M373.53,313s1.27,3.05.92,4.61-1.28.07-1.28.07.5,4.26-.85,5.39" style="fill:none;stroke:#263238;stroke-linecap:round;stroke-linejoin:round"></path><path d="M359.12,337.61s.14,8.58.64,9.65,2.91,2.34,4.61,3,3.05,0,2.7.64-1.42.92-2.84.42a35.12,35.12,0,0,1-3.41-1.49s3.41,2.34,3.27,3.12-1.28.22-2-.35a33.3,33.3,0,0,1-2.69-3.12s1.06,3.54.35,3.47-1.42-2.55-1.42-3.33.14-1.85-.21-1.85-1.63.5-1.92.07-.07-1,.5-1.34a4,4,0,0,0,1.13-.93c.22-.28-.49-8.51-.49-8.51Z" style="fill:#263238"></path><path d="M62.92,344.62s-3.37,6.42-3.77,6.55-5.49,1.06-5.22,1.65,1.65.14,2.25.07,1.72-.33,1.72-.33-3.44,1.65-4,2.05-2.38,1.06-1.78,1.32.19,1.46,3-.39a28.68,28.68,0,0,1,3.5-2.12,25.49,25.49,0,0,1-1.78,2.18c-.73.73-1.85,2-1.39,2.32s2.18-1,2.84-1.85a18.45,18.45,0,0,1,2.12-2.72c.73-.59,1.45-.46,2.45-.53s1.19-.33.33-.72a17.8,17.8,0,0,0-2.65-.8l4.63-5.16S63.39,344.09,62.92,344.62Z" style="fill:#263238"></path><path d="M69.52,349.27s-.06,5.39-.12,5.84a26,26,0,0,0,1.2,5.26c.45,1-1.2.89-1.58-.12s.12-3.68-.45-4-1.77,1.59-3.8,2.92-2.61.7-2.54-.13.19-1,1.9-1.71a14.39,14.39,0,0,0,3.3-2.22s-4,1.08-5.2.95-.76-1.08.44-1.46,4.76-.25,5.33-.7.19-4.88.19-4.88Z" style="fill:#263238"></path><path d="M33.39,335.12c5.26-10.05,18.34-16.59,20.68-17.41a34.18,34.18,0,0,0,5.28-3,30.49,30.49,0,0,1,4.75-3.25A16,16,0,0,0,65.67,308c.25-1.25,0-2.64,1.46-1.06a31.21,31.21,0,0,1,3,4.33s-.8-3.51.87-.85a11.7,11.7,0,0,1,1.58,5.77,77,77,0,0,1,2.4,8.91c1.09,5.3,2.83,6.84.3,11.29a107,107,0,0,0-4.82,9.93c-.11.25,1.13,1.85-.12,2.94a3.88,3.88,0,0,1-2.22,1.12,7.41,7.41,0,0,1-3.59-.68,9.67,9.67,0,0,0-3.88-.84,22.54,22.54,0,0,1-4.83,2,25.28,25.28,0,0,0-3.78-.29c-2.43,0-10.63-3.91-12.12-6.52a6.88,6.88,0,0,1-.55-1.24C35,342.75,30,341.53,33.39,335.12Z" style="fill:#fff;stroke:#263238;stroke-linecap:round;stroke-linejoin:round"></path><path d="M27.8,342.5a39.77,39.77,0,0,1,4.42-7.15,80,80,0,0,1,6.31-7.71,8.65,8.65,0,0,1,4-2.1c1.06,0,0,1.61,0,1.61,1.66-1.25,2.63-.71,2.16.48a5.92,5.92,0,0,1-1.53,2.07s3.78-2.11,3.91-1.29-1.24,2.83-1.24,2.83,3.83-.7,3.83-.32-2.65,2-2.65,2,5.78,3.45,4,4.4A15.65,15.65,0,0,1,48,338.53s3.58.87,2.3,1.3-2.26.79-2.26.79,2.32.11,1.56.7a21.14,21.14,0,0,1-2.71,1.53s3.73.8,2.59,1.54a9.71,9.71,0,0,1-3.23,1s2.9,1.09,1.63,1.14a20.36,20.36,0,0,0-2.47.19l-.11.08-.86-.09c-6.8-.93-8,.49-8.78.42a1.89,1.89,0,0,0-1.34.55,21.36,21.36,0,0,0-2.09,4.16c-.21,1.12-.34,1.72,0,2.24s.63,1.71-.88.84a4.48,4.48,0,0,1-1.91-1.76s-2.38-3.25-2.25-4.68A7.18,7.18,0,0,1,27.8,342.5Z" style="fill:#fff;stroke:#263238;stroke-linecap:round;stroke-linejoin:round"></path><path d="M34.29,347.68s1.72.05,2.19.86A1.52,1.52,0,0,1,35,350.66c-1.35-.05-2.18,0-2.18,0S33.4,347.92,34.29,347.68Z" style="fill:#92E3A9;stroke:#263238;stroke-linecap:round;stroke-linejoin:round"></path><path d="M29.61,349.26a.6.6,0,0,0,0-1.19.6.6,0,1,0,0,1.19Z" style="fill:#263238"></path><path d="M31.36,354.92a4.48,4.48,0,0,1-1.91-1.76s-.14-.19-.34-.5c.1-.42.3-.77.69-.78,0,0,1.05-.09,1.19-.55s.34-2.17.94-2.11a1.24,1.24,0,0,1,1,.91,7.23,7.23,0,0,0-.7,1.71c-.21,1.12-.34,1.72,0,2.24S32.87,355.79,31.36,354.92Z" style="fill:#c4c4c4;stroke:#263238;stroke-linecap:round;stroke-linejoin:round;stroke-width:0.5px"></path><path d="M26.69,349.32s.52-.39-.34-2.17-2.15-2.88-2.49-1.37a4.12,4.12,0,0,0,.5,2.83c.16.6-1.5.18-1.33,1a2.44,2.44,0,0,0,1.82,1.61c.6.06-.13.75.62,1.26a2.57,2.57,0,0,0,2.19.64c1.42,0,2.24.1,2-.49a8.33,8.33,0,0,0-2.23-2.95Z" style="fill:#92E3A9;stroke:#263238;stroke-linecap:round;stroke-linejoin:round"></path><path d="M30.07,350a2.34,2.34,0,0,0,.79-1.66" style="fill:none;stroke:#263238;stroke-linecap:round;stroke-linejoin:round;stroke-width:0.5px"></path><path d="M53.33,330.92s2.47-5.22,5.2-8,5.76-4.18,7-5.44,2.85-5,3.33-3.64-.49,4.81-.49,4.81,1.66-2.09,2-.61-.45,5.41-.6,5.6,1.15-2.74,1.71-.95,2.35,2.2-1.17,8.4S66,340.19,60.06,343.25s-9.87-2.71-8.88-6" style="fill:#fff;stroke:#263238;stroke-linecap:round;stroke-linejoin:round"></path><path d="M62.53,322.86s2.67-4.37,3.16-2.55a15.75,15.75,0,0,1,.47,3.82s1.13-2.36,1.64-1.71a8.49,8.49,0,0,1,1,2s1-1.26,1.6-.43.06,2.39.06,2.39" style="fill:none;stroke:#263238;stroke-linecap:round;stroke-linejoin:round"></path><path d="M232,328.51s3.63,6.91,4.06,7.06,5.91,1.14,5.63,1.78-1.78.14-2.42.07-1.85-.36-1.85-.36,3.7,1.78,4.34,2.21,2.57,1.14,1.92,1.42-.21,1.57-3.27-.42a31.42,31.42,0,0,0-3.78-2.28,26.15,26.15,0,0,0,1.93,2.35c.78.78,2,2.21,1.49,2.49s-2.35-1.07-3.06-2a19.6,19.6,0,0,0-2.28-2.92c-.79-.64-1.57-.5-2.64-.57s-1.28-.36-.35-.79a19.81,19.81,0,0,1,2.85-.85l-5-5.56S231.48,327.94,232,328.51Z" style="fill:#263238"></path><path d="M224.87,333.52s.07,5.81.14,6.29a28.35,28.35,0,0,1-1.3,5.67c-.48,1.09,1.3.95,1.71-.14s-.14-4,.48-4.3,1.91,1.7,4.1,3.14,2.8.75,2.73-.14-.21-1-2-1.84a15.27,15.27,0,0,1-3.55-2.39s4.3,1.16,5.6,1,.82-1.16-.48-1.57-5.12-.27-5.74-.75-.2-5.26-.2-5.26Z" style="fill:#263238"></path><path d="M251,285.1a7.82,7.82,0,0,0-7,1.13c-3.63,2.49-6.13,6.68-7.42,8.78s-1.93,3.38-1.93,3.38-7.57,1.62-8.38,1.78-2-1-7.74-2.5a34,34,0,0,0-11-1,17.32,17.32,0,0,1-3.46-2.17c-1-1-1.61-2.34-1.94-.08a33.57,33.57,0,0,0-.08,5.64s-1.37-3.63-1.29-.25a12.77,12.77,0,0,0,2,6.13,85.62,85.62,0,0,0,3.14,9.43c2.18,5.4,1.53,7.81,6.45,10.31a115.74,115.74,0,0,1,10.23,6.05c.24.16.08,2.33,1.86,2.58a4.16,4.16,0,0,0,2.66-.33,8.08,8.08,0,0,0,2.82-2.74,10.28,10.28,0,0,1,3-3.06s8.38-.32,13-5.48,6.53-9.51,5.64-16.84-1.69-10.88-1.77-11.69a2,2,0,0,1,.56-1.45,23.28,23.28,0,0,1,4.44-2.33c1.21-.25,1.85-.41,2.41,0s1.86.64.89-1a4.92,4.92,0,0,0-1.93-2S252.56,284.94,251,285.1Z" style="fill:#fff;stroke:#263238;stroke-linecap:round;stroke-linejoin:round"></path><path d="M257.15,290.42c.57.4,1.86.64.89-1a4.92,4.92,0,0,0-1.93-2s-3.55-2.49-5.08-2.33a7.82,7.82,0,0,0-7,1.13c-3.63,2.49-6.13,6.68-7.42,8.78s-1.93,3.38-1.93,3.38-2.82,3.31-4.19,5.08-.81,2.82.48,2.34a6.47,6.47,0,0,0,2.26-1.61s-2.34,4-1.45,4.19,3.06-1.29,3.06-1.29-.8,4.11-.4,4.11,2.17-2.82,2.17-2.82,3.63,6.28,4.68,4.35a16.17,16.17,0,0,0,1.37-3.14s.89,3.86,1.37,2.49.89-2.41.89-2.41.08,2.49.72,1.69a23.17,23.17,0,0,0,1.69-2.9s.81,4,1.61,2.82a10.38,10.38,0,0,0,1.13-3.47s1.13,3.15,1.21,1.78a21.1,21.1,0,0,1,.24-2.66l.1-.12c0-.31-.06-.61-.1-.93-.88-7.33-1.69-10.88-1.77-11.69a2,2,0,0,1,.56-1.45,23.28,23.28,0,0,1,4.44-2.33C256,290.17,256.59,290,257.15,290.42Z" style="fill:#fff;stroke:#263238;stroke-linecap:round;stroke-linejoin:round"></path><path d="M250.3,292.75s.09,1.86,1,2.34a1.64,1.64,0,0,0,2.26-1.69c-.08-1.45-.08-2.34-.08-2.34S250.55,291.79,250.3,292.75Z" style="fill:#92E3A9;stroke:#263238;stroke-linecap:round;stroke-linejoin:round"></path><path d="M251.92,287.68a.65.65,0,1,1-.65-.65A.65.65,0,0,1,251.92,287.68Z" style="fill:#263238"></path><path d="M258,289.45a4.92,4.92,0,0,0-1.93-2l-.54-.36c-.45.12-.83.35-.83.77,0,0-.08,1.13-.57,1.29s-2.33.4-2.25,1a1.29,1.29,0,0,0,1,1,7.6,7.6,0,0,1,1.82-.78c1.21-.25,1.85-.41,2.41,0S259,291.06,258,289.45Z" style="fill:#c4c4c4;stroke:#263238;stroke-linecap:round;stroke-linejoin:round;stroke-width:0.5px"></path><path d="M251.92,284.53s-.41.57-2.34-.32-3.14-2.26-1.53-2.66a4.49,4.49,0,0,1,3.06.48c.65.17.16-1.61,1-1.45a2.68,2.68,0,0,1,1.77,1.94c.08.64.81-.16,1.37.64a2.75,2.75,0,0,1,.73,2.34c0,1.53.16,2.42-.49,2.18s-2.82-1.54-3.22-2.34Z" style="fill:#92E3A9;stroke:#263238;stroke-linecap:round;stroke-linejoin:round"></path><path d="M252.72,288.16a2.54,2.54,0,0,1-1.77.89" style="fill:none;stroke:#263238;stroke-linecap:round;stroke-linejoin:round;stroke-width:0.5px"></path><path d="M228.79,307.82s-5.32-3.22-9.43-4.11-7.66-.32-9.51-.72-5.56-2.82-5.16-1.29,3.31,4,3.31,4-2.74-.89-2.18.64,3.63,4.6,3.87,4.68-2.66-1.78-2.1.16-.8,3.38,6,6.85,9.27,5.64,16.44,4.83,7.25-8.3,4.43-10.64" style="fill:#fff;stroke:#263238;stroke-linecap:round;stroke-linejoin:round"></path><path d="M215.73,306.05s-5-2.34-4.35-.4a17.61,17.61,0,0,0,1.85,3.7s-2.41-1.45-2.49-.56a9.45,9.45,0,0,0,.32,2.42s-1.61-.57-1.69.56,1.37,2.18,1.37,2.18" style="fill:none;stroke:#263238;stroke-linecap:round;stroke-linejoin:round"></path><path d="M105.14,344s3.8,7.24,4.25,7.38,6.19,1.2,5.89,1.87-1.86.15-2.53.08-1.94-.38-1.94-.38,3.88,1.87,4.55,2.32,2.68,1.19,2,1.49-.22,1.64-3.43-.45a34.52,34.52,0,0,0-4-2.39,26.84,26.84,0,0,0,2,2.46c.82.83,2.09,2.32,1.57,2.62s-2.47-1.12-3.21-2.09a21,21,0,0,0-2.39-3.06c-.82-.67-1.64-.52-2.76-.6s-1.34-.37-.37-.82a20.12,20.12,0,0,1,3-.9l-5.22-5.82S104.61,343.4,105.14,344Z" style="fill:#263238"></path><path d="M97.69,349.24s.07,6.09.14,6.59a30,30,0,0,1-1.36,5.94c-.5,1.14,1.36,1,1.79-.15s-.14-4.15.5-4.51,2,1.79,4.3,3.3,2.93.78,2.86-.15-.22-1.07-2.15-1.93a16.31,16.31,0,0,1-3.72-2.5s4.51,1.21,5.87,1.07.86-1.22-.5-1.65-5.37-.28-6-.78-.21-5.52-.21-5.52Z" style="fill:#263238"></path><path d="M138.45,333.27c-5.93-11.33-20.69-18.71-23.33-19.63a39.42,39.42,0,0,1-6-3.45,35,35,0,0,0-5.37-3.67,18.35,18.35,0,0,1-1.77-3.9c-.28-1.41,0-3-1.64-1.19a35.16,35.16,0,0,0-3.33,4.88s.9-4-1-1a13.39,13.39,0,0,0-1.78,6.52,87.5,87.5,0,0,0-2.71,10.05c-1.22,6-3.18,7.71-.33,12.74a120.31,120.31,0,0,1,5.44,11.19c.12.28-1.28,2.09.13,3.33a4.39,4.39,0,0,0,2.51,1.25,8.38,8.38,0,0,0,4-.76,10.78,10.78,0,0,1,4.37-.95,25.19,25.19,0,0,0,5.45,2.3,29.47,29.47,0,0,1,4.27-.32c2.74,0,12-4.42,13.67-7.36a8.29,8.29,0,0,0,.62-1.4C136.63,341.89,142.24,340.51,138.45,333.27Z" style="fill:#fff;stroke:#263238;stroke-linecap:round;stroke-linejoin:round"></path><path d="M144.76,341.6a43.73,43.73,0,0,0-5-8.06,87.94,87.94,0,0,0-7.12-8.7,9.58,9.58,0,0,0-4.48-2.37c-1.19,0,.07,1.81.07,1.81-1.88-1.41-3-.8-2.44.54a6.52,6.52,0,0,0,1.72,2.34s-4.26-2.38-4.41-1.45,1.39,3.18,1.39,3.18-4.31-.78-4.31-.35,3,2.23,3,2.23-6.53,3.9-4.49,5a17.07,17.07,0,0,0,3.32,1.39s-4,1-2.6,1.47,2.55.89,2.55.89-2.62.13-1.76.79a25,25,0,0,0,3.06,1.73s-4.21.9-2.93,1.73a11.12,11.12,0,0,0,3.65,1.13s-3.28,1.23-1.84,1.29a21.69,21.69,0,0,1,2.79.21l.12.1,1-.11c7.66-1,9.05.55,9.9.48a2.13,2.13,0,0,1,1.51.62s2.13,3.41,2.36,4.69.39,1.94-.05,2.53-.71,1.93,1,.94a5.06,5.06,0,0,0,2.15-2s2.68-3.67,2.54-5.28A8.11,8.11,0,0,0,144.76,341.6Z" style="fill:#fff;stroke:#263238;stroke-linecap:round;stroke-linejoin:round"></path><path d="M137.44,347.45s-1.95.05-2.47,1a1.71,1.71,0,0,0,1.73,2.39c1.52-.05,2.45,0,2.45,0S138.44,347.72,137.44,347.45Z" style="fill:#92E3A9;stroke:#263238;stroke-linecap:round;stroke-linejoin:round"></path><path d="M142.72,349.23a.66.66,0,0,1-.66-.68.68.68,0,1,1,1.35,0A.67.67,0,0,1,142.72,349.23Z" style="fill:#263238"></path><path d="M140.75,355.61a5.06,5.06,0,0,0,2.15-2l.38-.56c-.11-.48-.34-.88-.78-.89,0,0-1.18-.1-1.34-.61s-.38-2.46-1-2.38a1.36,1.36,0,0,0-1.1,1,8.51,8.51,0,0,1,.79,1.93c.23,1.27.39,1.94-.05,2.53S139,356.6,140.75,355.61Z" style="fill:#c4c4c4;stroke:#263238;stroke-linecap:round;stroke-linejoin:round;stroke-width:0.5px"></path><path d="M146,349.29s-.58-.43.39-2.44,2.42-3.25,2.81-1.55-.38,2.52-.56,3.2,1.68.2,1.49,1.12a2.76,2.76,0,0,1-2,1.82c-.68.07.15.85-.71,1.42a2.83,2.83,0,0,1-2.46.72c-1.6,0-2.53.12-2.27-.55s1.66-2.92,2.51-3.33Z" style="fill:#92E3A9;stroke:#263238;stroke-linecap:round;stroke-linejoin:round"></path><path d="M142.2,350.07a2.7,2.7,0,0,1-.89-1.88" style="fill:none;stroke:#263238;stroke-linecap:round;stroke-linejoin:round;stroke-width:0.5px"></path><path d="M116,328.54s-2.78-5.89-5.86-9-6.5-4.71-7.88-6.14-3.23-5.68-3.76-4.11.56,5.43.56,5.43-1.89-2.35-2.28-.69.51,6.11.68,6.32-1.3-3.09-1.93-1.07-2.66,2.49,1.32,9.47,4.83,10.29,11.56,13.73,11.14-3.05,10-6.72" style="fill:#fff;stroke:#263238;stroke-linecap:round;stroke-linejoin:round"></path><path d="M105.58,319.44s-3-4.93-3.57-2.87a18,18,0,0,0-.53,4.31s-1.27-2.66-1.85-1.94a9.65,9.65,0,0,0-1.12,2.3s-1.08-1.42-1.8-.49-.07,2.7-.07,2.7" style="fill:none;stroke:#263238;stroke-linecap:round;stroke-linejoin:round"></path><path d="M420.55,304.41s3.08,5.86,3.44,6,5,1,4.77,1.51-1.51.12-2.05.06-1.57-.3-1.57-.3,3.14,1.51,3.68,1.87,2.18,1,1.63,1.21-.18,1.33-2.78-.36a26.19,26.19,0,0,0-3.2-1.93,22.15,22.15,0,0,0,1.63,2c.67.66,1.7,1.87,1.27,2.11s-2-.9-2.59-1.69a16.84,16.84,0,0,0-1.94-2.47c-.66-.55-1.33-.43-2.23-.49s-1.09-.3-.3-.66a16.73,16.73,0,0,1,2.41-.73l-4.23-4.71S420.12,303.93,420.55,304.41Z" style="fill:#263238"></path><path d="M414.52,308.66s.06,4.92.11,5.33a23.72,23.72,0,0,1-1.1,4.81c-.4.93,1.1.81,1.45-.12s-.11-3.36.41-3.65,1.62,1.45,3.47,2.67,2.38.63,2.32-.12-.17-.87-1.74-1.56a13.3,13.3,0,0,1-3-2,24.74,24.74,0,0,0,4.75.87c1.1-.12.7-1-.4-1.33s-4.35-.24-4.87-.64-.18-4.46-.18-4.46Z" style="fill:#263238"></path><path d="M447.52,295.73c-4.8-9.17-16.75-15.15-18.89-15.89a31.55,31.55,0,0,1-4.82-2.79,27.75,27.75,0,0,0-4.34-3,14.77,14.77,0,0,1-1.43-3.16c-.23-1.14-.05-2.41-1.33-1a28.17,28.17,0,0,0-2.7,3.95s.73-3.2-.8-.77a10.74,10.74,0,0,0-1.44,5.27,72.29,72.29,0,0,0-2.19,8.14c-1,4.84-2.58,6.24-.27,10.31a96.8,96.8,0,0,1,4.4,9.07c.1.22-1,1.69.11,2.69a3.5,3.5,0,0,0,2,1,6.79,6.79,0,0,0,3.27-.61,8.65,8.65,0,0,1,3.54-.77,20.91,20.91,0,0,0,4.41,1.86,23.53,23.53,0,0,1,3.46-.26c2.22,0,9.71-3.58,11.07-6a6.7,6.7,0,0,0,.5-1.13C446,302.71,450.58,301.59,447.52,295.73Z" style="fill:#fff;stroke:#263238;stroke-linecap:round;stroke-linejoin:round"></path><path d="M452.62,302.47a35.36,35.36,0,0,0-4-6.52,70.46,70.46,0,0,0-5.76-7.05,7.87,7.87,0,0,0-3.63-1.92c-1,0,.06,1.47.06,1.47-1.52-1.14-2.41-.65-2,.44a5.45,5.45,0,0,0,1.4,1.9s-3.45-1.94-3.58-1.18,1.14,2.58,1.14,2.58-3.5-.63-3.49-.29,2.41,1.81,2.41,1.81-5.28,3.15-3.63,4a13.87,13.87,0,0,0,2.68,1.13s-3.26.8-2.1,1.19,2.06.72,2.06.72-2.11.1-1.42.64a20.47,20.47,0,0,0,2.48,1.39s-3.41.74-2.37,1.41a9,9,0,0,0,2.95.91s-2.65,1-1.49,1.05a17,17,0,0,1,2.26.17s.05,0,.1.08l.79-.09c6.2-.85,7.33.44,8,.39a1.68,1.68,0,0,1,1.22.5,19.75,19.75,0,0,1,1.92,3.79c.18,1,.31,1.58,0,2.05s-.58,1.56.81.77a4.08,4.08,0,0,0,1.73-1.61s2.18-3,2.06-4.27A6.56,6.56,0,0,0,452.62,302.47Z" style="fill:#fff;stroke:#263238;stroke-linecap:round;stroke-linejoin:round"></path><path d="M446.69,307.21s-1.57,0-2,.78a1.39,1.39,0,0,0,1.4,1.94c1.23-.05,2,0,2,0S447.51,307.43,446.69,307.21Z" style="fill:#92E3A9;stroke:#263238;stroke-linecap:round;stroke-linejoin:round"></path><path d="M451,308.65a.55.55,0,0,1,0-1.09.54.54,0,0,1,.54.55A.55.55,0,0,1,451,308.65Z" style="fill:#263238"></path><path d="M449.38,313.82a4.08,4.08,0,0,0,1.73-1.61l.32-.45c-.1-.39-.28-.71-.64-.72,0,0-1-.09-1.08-.5s-.31-2-.85-1.93a1.13,1.13,0,0,0-.89.83,7.12,7.12,0,0,1,.64,1.56c.18,1,.31,1.58,0,2.05S448,314.61,449.38,313.82Z" style="fill:#c4c4c4;stroke:#263238;stroke-linecap:round;stroke-linejoin:round;stroke-width:0.5px"></path><path d="M453.64,308.7s-.47-.35.31-2,2-2.63,2.28-1.25a3.88,3.88,0,0,1-.46,2.59c-.15.54,1.36.16,1.21.91a2.27,2.27,0,0,1-1.67,1.47c-.54.06.13.68-.56,1.15a2.32,2.32,0,0,1-2,.58c-1.29,0-2.05.1-1.83-.44a7.47,7.47,0,0,1,2-2.7Z" style="fill:#92E3A9;stroke:#263238;stroke-linecap:round;stroke-linejoin:round"></path><path d="M450.55,309.33a2.16,2.16,0,0,1-.72-1.52" style="fill:none;stroke:#263238;stroke-linecap:round;stroke-linejoin:round;stroke-width:0.5px"></path><path d="M429.3,291.9a32.91,32.91,0,0,0-4.74-7.32c-2.49-2.55-5.26-3.81-6.38-5s-2.61-4.6-3-3.33.45,4.39.45,4.39-1.53-1.9-1.84-.56a15.16,15.16,0,0,0,.54,5.12c.13.17-1.05-2.5-1.55-.87s-2.16,2,1.06,7.67,3.91,8.33,9.36,11.12,9-2.48,8.11-5.45" style="fill:#fff;stroke:#263238;stroke-linecap:round;stroke-linejoin:round"></path><path d="M420.9,284.53s-2.43-4-2.88-2.32a14.79,14.79,0,0,0-.43,3.49s-1-2.16-1.5-1.57a8.18,8.18,0,0,0-.91,1.86s-.87-1.15-1.46-.39-.05,2.18-.05,2.18" style="fill:none;stroke:#263238;stroke-linecap:round;stroke-linejoin:round"></path></g><g id="Feeders"><path d="M115.77,387.88c-7.2-1.81-17.39-2.94-28.69-2.94s-21.49,1.13-28.69,2.94h-13l2.19,6.46c0,5.19,17.69,9.4,39.53,9.4s39.53-4.21,39.53-9.4l2.18-6.46Z" style="fill:#92E3A9;stroke:#263238;stroke-linecap:round;stroke-linejoin:round"></path><ellipse cx="87.08" cy="387.88" rx="41.71" ry="9.4" style="fill:#92E3A9;stroke:#263238;stroke-linecap:round;stroke-linejoin:round"></ellipse><ellipse cx="87.08" cy="387.88" rx="38.12" ry="7.4" style="fill:#92E3A9;stroke:#263238;stroke-linecap:round;stroke-linejoin:round"></ellipse><ellipse cx="87.08" cy="390.12" rx="36.33" ry="5.16" style="fill:#92E3A9;stroke:#263238;stroke-linecap:round;stroke-linejoin:round"></ellipse><path d="M108,323.25H67l-7.64,64.83c0,4.36,12.6,7.9,28.15,7.9s28.14-3.54,28.14-7.9Z" style="fill:#92E3A9;stroke:#263238;stroke-linecap:round;stroke-linejoin:round"></path><ellipse cx="87.54" cy="322.96" rx="20.51" ry="4.46" style="fill:#92E3A9;stroke:#263238;stroke-linecap:round;stroke-linejoin:round"></ellipse><line x1="87.54" y1="322.96" x2="87.54" y2="21.96" style="fill:none;stroke:#263238;stroke-linecap:round;stroke-linejoin:round;stroke-width:2px"></line><path d="M288.3,360.44A104.52,104.52,0,0,0,264.25,358a104.55,104.55,0,0,0-24.06,2.46H229.27l1.83,5.42c0,4.36,14.84,7.88,33.15,7.88s33.14-3.52,33.14-7.88l1.83-5.42Z" style="fill:#92E3A9;stroke:#263238;stroke-linecap:round;stroke-linejoin:round"></path><ellipse cx="264.25" cy="360.44" rx="34.97" ry="7.88" style="fill:#92E3A9;stroke:#263238;stroke-linecap:round;stroke-linejoin:round"></ellipse><path d="M296.2,360.44c0,3.43-14.3,6.21-31.95,6.21s-32-2.78-32-6.21,14.31-6.2,32-6.2S296.2,357,296.2,360.44Z" style="fill:#92E3A9;stroke:#263238;stroke-linecap:round;stroke-linejoin:round"></path><path d="M233.79,362.32c4.1,2.51,16.18,4.33,30.46,4.33s26.36-1.82,30.46-4.33c-4.1-2.5-16.19-4.32-30.46-4.32S237.89,359.82,233.79,362.32Z" style="fill:#92E3A9;stroke:#263238;stroke-linecap:round;stroke-linejoin:round"></path><path d="M281.82,306.26H247.44L241,360.61c0,3.66,10.57,6.63,23.6,6.63s23.6-3,23.6-6.63Z" style="fill:#92E3A9;stroke:#263238;stroke-linecap:round;stroke-linejoin:round"></path><ellipse cx="264.63" cy="306.02" rx="17.19" ry="3.74" style="fill:#92E3A9;stroke:#263238;stroke-linecap:round;stroke-linejoin:round"></ellipse><line x1="264.63" y1="306.02" x2="264.63" y2="20.58" style="fill:none;stroke:#263238;stroke-linecap:round;stroke-linejoin:round;stroke-width:2px"></line><path d="M427.3,335.35a102.3,102.3,0,0,0-41.34,0h-9.39l1.58,4.66c0,3.74,12.75,6.77,28.48,6.77s28.48-3,28.48-6.77l1.57-4.66Z" style="fill:#92E3A9;stroke:#263238;stroke-linecap:round;stroke-linejoin:round"></path><ellipse cx="406.63" cy="335.35" rx="30.05" ry="6.77" style="fill:#92E3A9;stroke:#263238;stroke-linecap:round;stroke-linejoin:round"></ellipse><path d="M434.09,335.35c0,2.95-12.3,5.33-27.46,5.33s-27.46-2.38-27.46-5.33S391.46,330,406.63,330,434.09,332.41,434.09,335.35Z" style="fill:#92E3A9;stroke:#263238;stroke-linecap:round;stroke-linejoin:round"></path><ellipse cx="406.63" cy="336.97" rx="26.18" ry="3.72" style="fill:#92E3A9;stroke:#263238;stroke-linecap:round;stroke-linejoin:round"></ellipse><path d="M421.73,288.79H392.18l-5.5,46.71c0,3.14,9.08,5.69,20.28,5.69s20.28-2.55,20.28-5.69Z" style="fill:#92E3A9;stroke:#263238;stroke-linecap:round;stroke-linejoin:round"></path><path d="M421.73,288.59c0,1.77-6.61,3.21-14.77,3.21s-14.78-1.44-14.78-3.21,6.62-3.22,14.78-3.22S421.73,286.81,421.73,288.59Z" style="fill:#92E3A9;stroke:#263238;stroke-linecap:round;stroke-linejoin:round"></path><line x1="406.96" y1="288.59" x2="406.96" y2="20.58" style="fill:none;stroke:#263238;stroke-linecap:round;stroke-linejoin:round;stroke-width:2px"></line></g><g id="Character"><path d="M238.85,253.87s-8,.63-10.83,1.1-6.27,3.45-7.37,4.24a18.08,18.08,0,0,1-6,2c-1.57.15-1.88.78-.63,1.88a5.2,5.2,0,0,0,4.24,1.26c1.1-.32,5.18-1.73,5.18-1.73l-11.77,10.2s.47,1.41.94,1.41,9.42-6,9.42-6,.31,1.57-.16,1.88-7.22,7.54-6.75,8.17.47,1.09,1.26.78,9.89-7.22,9.89-7.22-6.75,7.22-6.6,7.69a1.9,1.9,0,0,0,2.05.94c.78-.31,7.06-6.59,7.06-6.59s-3.93,5.65-3.14,5.81a2.18,2.18,0,0,0,2-.63c.31-.47,5-5,5-5a30.22,30.22,0,0,0,3.93-3c1.88-1.73,6.9-9.58,6.9-9.58Z" style="fill:#fff;stroke:#263238;stroke-miterlimit:10"></path><path d="M225.36,262.19a7.5,7.5,0,0,0,5.8-.47,8.59,8.59,0,0,0,3.93-4.08" style="fill:none;stroke:#263238;stroke-linecap:round;stroke-linejoin:round"></path><line x1="222.06" y1="268.31" x2="228.81" y2="273.96" style="fill:none;stroke:#263238;stroke-linecap:round;stroke-linejoin:round"></line><path d="M298.83,377.48s5.46,38.72,5.64,40.18-5.64,8.36-7.46,9.81-2.36,2-2.36,4.37,1.45,4.72,2.55,5.27,6.36,1.45,11.27.73,7.27-3.64,7.45-4.55,2.91-.54,3.64-1.82,1.27-7.63.73-10.36a32.75,32.75,0,0,0-1.82-6.36c-.37-.55,2.72-39.64,2.72-39.64Z" style="fill:#263238;stroke:#263238;stroke-miterlimit:10"></path><path d="M336.1,374.2l1.28,40.73s-1.64,7.27-1.64,11.27.54,5.64,2.36,6.36,6,1.82,6.91,1.28a8.46,8.46,0,0,1,7.46.54c2.9,1.82,10,2.91,12.54,2.91s5.45-1.09,5.82-4-1.64-5.09-3.64-6.18-8.54-3.64-11.82-6.73-3.45-5.81-3.45-5.81l7.27-39.82Z" style="fill:#263238;stroke:#263238;stroke-miterlimit:10"></path><path d="M373.55,172.66A18.81,18.81,0,0,0,362.11,165c-6.95-3.14-19.67-8.67-21.89-9-3-.46-31.94,3.24-31.94,3.24S285.13,170.81,284,172.66s-20.13,54.85-20.13,54.85L237,253.67l7.4,11.8,33.1-19.9,11.11-20.83s2.55,67.58,2.09,82.86,3,50.69,3,52.31-2.54,10.65-1.15,12.27a45.87,45.87,0,0,0,4.16,3.94s-1.39,3,6.25,3.7,15.51-.93,17.36-2.55,4.4-4.86,3.94-8.1-3.94-9-3.94-9L328,305.29s8.8,56.24,8.8,58.09S332.58,371,334.2,374s10.42,7.64,16.2,7,13.43-7,13.43-9-1.39-3.7-1.39-4.63,2.08-1.39,1.62-5.56-2.78-7.63-3.47-13.42,2.08-52.77,2.08-52.77,2.55-38.66,2.55-43.52c0-4.46.39-46.41.45-53.23l.24,1.61s17.46,23.7,18.15,24.16,13.89-7.41,14.35-8.8S379.1,180.3,373.55,172.66Z" style="fill:#92E3A9;stroke:#263238;stroke-linecap:round;stroke-linejoin:round"></path><line x1="327.24" y1="300.44" x2="326.58" y2="282.59" style="fill:none;stroke:#263238;stroke-linecap:round;stroke-linejoin:round"></line><path d="M316.66,197.64l-24-.46.91,3.66s11,2.52,12.13,3,11.44-2.06,12.59-2.06a11.17,11.17,0,0,0,3-.69v-2.75" style="fill:none;stroke:#263238;stroke-linecap:round;stroke-linejoin:round"></path><line x1="284.9" y1="182.15" x2="288.6" y2="220.8" style="fill:none;stroke:#263238;stroke-linecap:round;stroke-linejoin:round"></line><path d="M356.6,196.36l-24,.44,1.06,3.63s11.07,2.1,12.23,2.52,11.36-2.49,12.5-2.54a11.28,11.28,0,0,0,2.95-.79l-.1-2.75" style="fill:none;stroke:#263238;stroke-linecap:round;stroke-linejoin:round"></path><line x1="301.55" y1="247.3" x2="291.94" y2="280.03" style="fill:none;stroke:#263238;stroke-linecap:round;stroke-linejoin:round"></line><line x1="302.92" y1="250.28" x2="296.06" y2="274.54" style="fill:none;stroke:#263238;stroke-linecap:round;stroke-linejoin:round"></line><line x1="346.64" y1="258.98" x2="358.31" y2="283.92" style="fill:none;stroke:#263238;stroke-linecap:round;stroke-linejoin:round"></line><line x1="353.05" y1="267.9" x2="359.23" y2="280.03" style="fill:none;stroke:#263238;stroke-linecap:round;stroke-linejoin:round"></line><path d="M307.27,328.78s6.87,20.37,11.45,28.84" style="fill:none;stroke:#263238;stroke-linecap:round;stroke-linejoin:round"></path><path d="M338.17,362.2s4.12-24.26,4.81-32.73" style="fill:none;stroke:#263238;stroke-linecap:round;stroke-linejoin:round"></path><path d="M357.63,365.17s-22.2,8.47-17.86,8,19-3.44,17.17-4.12" style="fill:none;stroke:#263238;stroke-linecap:round;stroke-linejoin:round"></path><path d="M315.06,369.52s-18.54,1.83-15.57,3.21,13.05.23,14.65-.23" style="fill:none;stroke:#263238;stroke-linecap:round;stroke-linejoin:round"></path><path d="M314.06,149.74s-4.86,1.39-5.78,3.24-6.72,9-6.72,9l8.34-.23-4.86,9s12,7.87,16,9.72a35.07,35.07,0,0,1,6,3.47s16.43-13,17.59-14.12,3.7-3.94,3.7-3.94l-4.4-5.09,5.56-1.16s-5.09-7.4-7.64-9.49a10.36,10.36,0,0,0-5.09-2.31Z" style="fill:#92E3A9;stroke:#263238;stroke-linecap:round;stroke-linejoin:round"></path><path d="M312.74,141s1.55,16.57,2.63,19,10.22,20.6,12.54,18.74,9.91-21.83,10.22-22.61.16-17.65.16-17.65Z" style="fill:#fff;stroke:#263238;stroke-linecap:round;stroke-linejoin:round"></path><polygon points="321.56 152.7 315.37 160 313.5 146.72 321.56 152.7" style="fill:#263238;stroke:#263238;stroke-miterlimit:10"></polygon><path d="M327.3,167.75a18.41,18.41,0,0,1-9.08-2.08c3.2,6.05,8.08,14.36,9.69,13.07,1.25-1,4-7.19,6.34-12.85A19.29,19.29,0,0,1,327.3,167.75Z" style="fill:#fff;stroke:#263238;stroke-linecap:round;stroke-linejoin:round"></path><path d="M313.21,97.11S306,101,304.3,108.9s2.44,20.42,3.16,25.45,4.6,11.22,6,12.37,5.75,6.32,8.48,7.62,6.76,1,8.63-.86,9.49-12.22,9.92-15,.86-17.83.86-21.28-.57-13.08-4.17-17.11S320,92.37,313.21,97.11Z" style="fill:#fff;stroke:#263238;stroke-miterlimit:10"></path><path d="M337.22,100.13c-3.59-4-17.25-7.76-24-3,0,0-7.19,3.89-8.91,11.79-1.27,5.79.63,14,2,20a2.35,2.35,0,0,0,1.44-2.32c-.15-1.87-.87-4-.15-5.18s1.73-.57,1.73-2.87-1.15-4.32-1.15-6.62,7-5.46,7-5.46l-1.29,3.88s2.73.29,8.19-2.15a27.3,27.3,0,0,0,8.63-6s-2.87,4.17-1.58,3.74,3.59-2.88,3.59-2.88-1.43,3.45-.71,6.18,2.3,0,2.73-1-.43,5.75,1.44,8.62,3.3,4.75,3.3,4.75.15,3.74.86,5a.7.7,0,0,0,.78.38c.14-4.15.23-8.15.23-9.73C341.39,113.79,340.82,104.16,337.22,100.13Z" style="fill:#263238;stroke:#263238;stroke-miterlimit:10"></path><path d="M322.27,139.24a4.89,4.89,0,0,0,2.87,1.15c1.3-.14,3-2,3-2" style="fill:none;stroke:#263238;stroke-miterlimit:10"></path><path d="M320,142.84s6.32,3.73,10.49-1" style="fill:none;stroke:#263238;stroke-miterlimit:10"></path><path d="M317.67,130.33c0,1-.49,1.87-1.08,1.87s-1.08-.84-1.08-1.87.48-1.87,1.08-1.87S317.67,129.3,317.67,130.33Z" style="fill:#263238"></path><path d="M332.05,129.61c0,1-.49,1.87-1.08,1.87s-1.08-.84-1.08-1.87.48-1.87,1.08-1.87S332.05,128.58,332.05,129.61Z" style="fill:#263238"></path><path d="M320,131.77s-1.73,2.73-3.31,3.3" style="fill:none;stroke:#263238;stroke-miterlimit:10"></path><path d="M328.88,131.91s3.6,2.44,4.46,2.87" style="fill:none;stroke:#263238;stroke-miterlimit:10"></path><path d="M319.54,125.44s-4-2.3-7.34.14" style="fill:none;stroke:#263238;stroke-linecap:round;stroke-linejoin:round"></path><path d="M328,125.3s4.17-2.88,7.48-.58" style="fill:none;stroke:#263238;stroke-linecap:round;stroke-linejoin:round"></path><path d="M304.58,122.42a3.17,3.17,0,0,0-2.87,3.31c-.15,3.16,5.75,8.62,5.75,8.62Z" style="fill:#fff;stroke:#263238;stroke-linecap:round;stroke-linejoin:round"></path><path d="M341.25,120.84s3.74-1.15,3.74,2.87-4,9.49-4,9.49Z" style="fill:#fff;stroke:#263238;stroke-linecap:round;stroke-linejoin:round"></path><path d="M380.77,243.39l-15.54-27.55c2.88,4.22-2.15,12.67-11.23,18.86s-18.78,7.79-21.66,3.57L352,263c2.52,3.7,11,2.3,19-3.12S383.29,247.09,380.77,243.39Z" style="fill:#263238;stroke:#263238;stroke-miterlimit:10"></path><ellipse cx="348.78" cy="227.05" rx="19.91" ry="9.26" transform="translate(-67.3 235.95) rotate(-34.29)" style="fill:#6b6b6b;stroke:#263238;stroke-linecap:round;stroke-linejoin:round"></ellipse><path d="M369.56,239.72s-6.73,2.25-8.69,3.89-2.7,3.3-4.74,5.23-4.43,4.08-2.35,4.32,5.87-2.48,5.87-2.48-6.11,5.79-7.14,7.37,3.52,1.84,3.52,1.84,3.74,1,6.05.34,4.83.33,8.27-4.62,7.24-11.34,7.24-11.34Z" style="fill:#fff;stroke:#263238;stroke-miterlimit:10"></path><path d="M354.6,259.48s5.15-2,5.6-2.91,3.13-4.25,3.13-4.25" style="fill:none;stroke:#263238;stroke-linecap:round;stroke-linejoin:round"></path><polyline points="359.3 260.16 362.89 258.14 366.47 254.33" style="fill:none;stroke:#263238;stroke-linecap:round;stroke-linejoin:round"></polyline><path d="M364,259.74s3.22-1.8,4.35-4" style="fill:none;stroke:#263238;stroke-linecap:round;stroke-linejoin:round"></path><line x1="359.65" y1="250.68" x2="361.55" y2="246.13" style="fill:none;stroke:#263238;stroke-linecap:round;stroke-linejoin:round"></line><path d="M382,215.79,364.06,240s8.43,6.8,11,7.5a17.7,17.7,0,0,0,4.17.69s15.05-18.52,16.67-22.45,3-5.79,2.54-10-5.55-9.95-5.55-9.95" style="fill:#92E3A9;stroke:#263238;stroke-linecap:round;stroke-linejoin:round"></path><path d="M229,267.39a.88.88,0,1,1-.88-.89A.89.89,0,0,1,229,267.39Z" style="fill:#92E3A9;stroke:#263238;stroke-linecap:round;stroke-linejoin:round"></path><path d="M211.52,289.89a.88.88,0,1,1-.88-.88A.88.88,0,0,1,211.52,289.89Z" style="fill:#92E3A9;stroke:#263238;stroke-linecap:round;stroke-linejoin:round"></path><path d="M210.89,282.6a.88.88,0,1,1-.88-.88A.87.87,0,0,1,210.89,282.6Z" style="fill:#92E3A9;stroke:#263238;stroke-linecap:round;stroke-linejoin:round"></path><path d="M202.59,277.82a.88.88,0,1,1-.88-.88A.87.87,0,0,1,202.59,277.82Z" style="fill:#92E3A9;stroke:#263238;stroke-linecap:round;stroke-linejoin:round"></path><path d="M234.66,267a.88.88,0,0,1-1.76,0,.88.88,0,0,1,1.76,0Z" style="fill:#92E3A9;stroke:#263238;stroke-linecap:round;stroke-linejoin:round"></path><path d="M198.94,294.17a.88.88,0,1,1-.88-.88A.87.87,0,0,1,198.94,294.17Z" style="fill:#92E3A9;stroke:#263238;stroke-linecap:round;stroke-linejoin:round"></path></g><g id="hens-1"><path d="M246.52,400.67s-4.1,7.79-4.58,7.95-6.66,1.29-6.34,2,2,.16,2.73.08,2.09-.4,2.09-.4-4.18,2-4.9,2.49-2.89,1.29-2.17,1.61.24,1.76,3.69-.49a38.84,38.84,0,0,1,4.26-2.57,30.52,30.52,0,0,1-2.17,2.66c-.88.88-2.25,2.48-1.69,2.81s2.65-1.21,3.46-2.25a21.81,21.81,0,0,1,2.57-3.3c.88-.72,1.76-.56,3-.64s1.44-.4.4-.88a21.66,21.66,0,0,0-3.21-1l5.62-6.27S247.08,400,246.52,400.67Z" style="fill:#263238"></path><path d="M254.53,406.32s-.07,6.55-.15,7.08a31.66,31.66,0,0,0,1.46,6.4c.54,1.23-1.46,1.08-1.92-.16s.15-4.46-.54-4.85-2.16,1.93-4.62,3.54-3.16.85-3.08-.15.23-1.15,2.31-2.08a17.11,17.11,0,0,0,4-2.7s-4.85,1.31-6.31,1.16-.93-1.31.53-1.77,5.78-.31,6.48-.85.23-5.93.23-5.93Z" style="fill:#263238"></path><path d="M225.05,351.73A8.83,8.83,0,0,1,233,353c4.09,2.82,6.9,7.54,8.36,9.91s2.18,3.81,2.18,3.81,8.54,1.82,9.45,2,2.27-1.09,8.72-2.82a38.43,38.43,0,0,1,12.44-1.09,19.42,19.42,0,0,0,3.91-2.45c1.09-1.09,1.82-2.63,2.18-.09a38,38,0,0,1,.09,6.36s1.54-4.09,1.45-.27a14.29,14.29,0,0,1-2.27,6.9,95.06,95.06,0,0,1-3.54,10.63c-2.45,6.09-1.73,8.81-7.27,11.63a130.89,130.89,0,0,0-11.54,6.81c-.27.18-.09,2.64-2.09,2.91a4.68,4.68,0,0,1-3-.37,9,9,0,0,1-3.18-3.08,11.7,11.7,0,0,0-3.36-3.46s-9.45-.36-14.63-6.17-7.36-10.72-6.36-19,1.91-12.26,2-13.17a2.29,2.29,0,0,0-.64-1.64s-3.63-2.36-5-2.63-2.09-.46-2.73,0-2.09.72-1-1.09a5.41,5.41,0,0,1,2.18-2.27S223.32,351.55,225.05,351.73Z" style="fill:#fff;stroke:#263238;stroke-linecap:round;stroke-linejoin:round"></path><path d="M218.14,357.73c-.63.45-2.09.72-1-1.09a5.41,5.41,0,0,1,2.18-2.27s4-2.82,5.73-2.64A8.83,8.83,0,0,1,233,353c4.09,2.82,6.9,7.54,8.36,9.91s2.18,3.81,2.18,3.81,3.18,3.73,4.72,5.72.91,3.18-.54,2.64a7.2,7.2,0,0,1-2.55-1.82s2.64,4.54,1.64,4.73-3.45-1.46-3.45-1.46.9,4.64.45,4.64-2.45-3.18-2.45-3.18-4.09,7.08-5.27,4.9a18.62,18.62,0,0,1-1.55-3.54s-1,4.36-1.54,2.81-1-2.72-1-2.72-.09,2.82-.82,1.91a27.89,27.89,0,0,1-1.91-3.27s-.9,4.54-1.81,3.18a11.77,11.77,0,0,1-1.27-3.91s-1.28,3.54-1.37,2a23.73,23.73,0,0,0-.27-3l-.1-.13c0-.35.06-.69.1-1.05,1-8.27,1.91-12.26,2-13.17a2.29,2.29,0,0,0-.64-1.64s-3.63-2.36-5-2.63S218.78,357.27,218.14,357.73Z" style="fill:#fff;stroke:#263238;stroke-linecap:round;stroke-linejoin:round"></path><path d="M225.86,360.36s-.09,2.09-1.09,2.64a1.85,1.85,0,0,1-2.54-1.91c.09-1.64.09-2.64.09-2.64S225.59,359.27,225.86,360.36Z" style="fill:#92E3A9;stroke:#263238;stroke-linecap:round;stroke-linejoin:round"></path><path d="M224.05,354.64a.72.72,0,0,0,.72.72.73.73,0,0,0,.73-.72.73.73,0,0,0-.73-.73A.73.73,0,0,0,224.05,354.64Z" style="fill:#263238"></path><path d="M217.14,356.64a5.41,5.41,0,0,1,2.18-2.27l.61-.41c.51.13.94.38.94.86,0,0,.09,1.27.63,1.45s2.64.46,2.55,1.18a1.49,1.49,0,0,1-1.13,1.16,9,9,0,0,0-2-.88c-1.37-.28-2.09-.46-2.73,0S216.05,358.45,217.14,356.64Z" style="fill:#c4c4c4;stroke:#263238;stroke-linecap:round;stroke-linejoin:round;stroke-width:0.5px"></path><path d="M224.05,351.1s.45.63,2.63-.37,3.54-2.54,1.73-3-2.73.37-3.46.55-.18-1.82-1.18-1.64a3,3,0,0,0-2,2.18c-.1.73-.91-.18-1.55.73a3.07,3.07,0,0,0-.82,2.64c0,1.72-.18,2.72.55,2.45s3.18-1.73,3.63-2.64Z" style="fill:#92E3A9;stroke:#263238;stroke-linecap:round;stroke-linejoin:round"></path><path d="M223.14,355.18a2.89,2.89,0,0,0,2,1" style="fill:none;stroke:#263238;stroke-linecap:round;stroke-linejoin:round;stroke-width:0.5px"></path><path d="M250.12,377.35s6-3.63,10.63-4.63,8.63-.37,10.72-.82,6.27-3.18,5.81-1.45-3.72,4.54-3.72,4.54,3.09-1,2.45.72-4.09,5.18-4.36,5.27,3-2,2.36.19.91,3.81-6.81,7.72-10.45,6.36-18.53,5.45-8.18-9.36-5-12" style="fill:#fff;stroke:#263238;stroke-linecap:round;stroke-linejoin:round"></path><path d="M264.84,375.35s5.63-2.63,4.9-.45a19.16,19.16,0,0,1-2.09,4.18s2.73-1.64,2.82-.64a10.72,10.72,0,0,1-.36,2.73s1.81-.64,1.9.63-1.54,2.45-1.54,2.45" style="fill:none;stroke:#263238;stroke-linecap:round;stroke-linejoin:round"></path><path d="M426.35,394.75s-1.52,6.92-1.69,8.27.59,2.79.76,3.55a12.44,12.44,0,0,1-.67,4.82c-.59,1.68.5,2,.76,1s.84-4.9.84-4.9.51.84.51,3.55-.59,3.29.17,3.29,1.1-1.6,1-2.95a33.54,33.54,0,0,0-.84-4.31,33.65,33.65,0,0,1,2.19,5c.17,1.1,1.19.85.51-1.52a32.59,32.59,0,0,0-2.62-5.83c-.67-1.35.76-1,.93-2.53s-.67-.85-1.27-.51l-.59.34,3-8.44Z" style="fill:#263238"></path><path d="M403.62,336.39s5,0,7.07,3.63,3.15,10.12,4.39,14.9,4.2,5.35,4.2,5.35,6.21-.19,8.22-1.53,2.86-4.2,4.3-6,5.15-4,4.48-2.39a7.29,7.29,0,0,0-.66,2.2s2.38-5.16,2.86-2.67a16,16,0,0,1,.29,5.82c-.29,1.05,1.53-4.1,1.81-.76s-.38,6.11-1.05,7.16-.67,2.48-1,7.83a17.76,17.76,0,0,1-2.86,8.69s-.48,6.4-1.91,10.32a9,9,0,0,1-6.21,5.92l-1.82.38a21.2,21.2,0,0,1-6.3,1c-3.34,0-3.25-.57-3.25-.57s1.43,2.39-1.24,2.29-3.44-.76-3.72-1.62-4-3.44-7.65-7.16-7.83-3.73-10.6-11.08-.76-17.19,3.06-22.83,6-5,5.92-9.65-2.58-4.39-1.91-7.54S403.62,336.39,403.62,336.39Z" style="fill:#fff;stroke:#263238;stroke-linecap:round;stroke-linejoin:round"></path><path d="M415.54,361.3a4.26,4.26,0,0,0,0-2.27l.94-.94a9.71,9.71,0,0,1-1.4-3.17c-1.24-4.78-2.29-11.27-4.39-14.9s-7.07-3.63-7.07-3.63-3-1.43-3.63,1.72,1.82,2.86,1.91,7.54-2.1,4-5.92,9.65a21.41,21.41,0,0,0-1.35,2.32l.15.42s-1.29,3.66,0,3.66,4.05-2.87,4.05-2.87-.29,2.67.59,2.87,2.38-2.77,2.38-2.77-.3,2.87,1.18,2.87,1.78-1.78,1.78-1.78,2.47,3.26,3.36,2.86,1.68-2.17,1.68-2.17,1.39,1.68,1.88,1.38.5-2.37.5-2.37S415.14,362,415.54,361.3Z" style="fill:#fff;stroke:#263238;stroke-linecap:round;stroke-linejoin:round"></path><path d="M400.28,339.64s.76-2.1,1.72-2.49,2.67-1,1.81-2.58-1.24-1.71-1.72-.76-1.43-.38-1.91.19a2.51,2.51,0,0,0-.28,2.2c.19.67-.86.28-.77,1.62s-.48,2.39.1,2.39A1.64,1.64,0,0,0,400.28,339.64Z" style="fill:#92E3A9;stroke:#263238;stroke-linecap:round;stroke-linejoin:round"></path><path d="M399.23,340.21s-1.63.1-1.91,1.05l-.29,1a5.29,5.29,0,0,1,2.2-.39,33.64,33.64,0,0,1,3.63,1.44c1.24.57,3.15.28,3.43-1s-.19-1.62-1.71-1.62a15,15,0,0,1-2.58-.1C401.42,340.5,400.18,339.73,399.23,340.21Z" style="fill:#c4c4c4;stroke:#263238;stroke-linecap:round;stroke-linejoin:round;stroke-width:0.5px"></path><path d="M399.9,342s-1.53,2.11-.67,3.35,2,1.14,2.67.28a6.71,6.71,0,0,0,1-2.38Z" style="fill:#92E3A9;stroke:#263238;stroke-linecap:round;stroke-linejoin:round"></path><circle cx="403.76" cy="339.21" r="0.7" style="fill:#263238"></circle><path d="M397,342.22a3.3,3.3,0,0,1,3.07-.83c2.1.34,3.76.88,4.5.92" style="fill:none;stroke:#263238;stroke-linecap:round;stroke-linejoin:round;stroke-width:0.5px"></path><path d="M405.11,338.59a.87.87,0,0,1,.13,1.11" style="fill:none;stroke:#263238;stroke-linecap:round;stroke-linejoin:round;stroke-width:0.5px"></path><path d="M411.32,368.31s-4,3.38-3,8.2,9.46,9.45,13.17,11,6.85,4.23,10.48,3.3,6.25-5.15,5.57-5.15h-1.6a3.57,3.57,0,0,0,2.45-3.3c0-2.53-2.88-2.87-2.88-2.87s1.69-3.21,1.19-3.55-4.56-2.78-4.56-2.78a1.48,1.48,0,0,0,1.35-1.69c-.09-1.61-3.38-5.15-9.8-6.17s-8.28.85-8.7,1.27" style="fill:#fff;stroke:#263238;stroke-linecap:round;stroke-linejoin:round"></path><path d="M421.79,370.76s6.59.76,6.59,2.28-1.77,1.95-1.77,1.95,7.6,2.19,7.68,3.71a1.84,1.84,0,0,1-1,1.94s3.29,3.8,2.62,5-6.76-.09-7-.09,2.19,1.86,1.18,2.45-4-.51-4-.51" style="fill:none;stroke:#263238;stroke-linecap:round;stroke-linejoin:round"></path><path d="M396.79,368.31s-1.52,3.63-1.09,5.49,1.52.09,1.52.09-.6,5.06,1,6.42" style="fill:none;stroke:#263238;stroke-linecap:round;stroke-linejoin:round"></path><path d="M413.94,397.62s-.17,10.22-.76,11.48-3.46,2.79-5.49,3.55-3.63,0-3.21.76,1.69,1.1,3.38.51a43.47,43.47,0,0,0,4.05-1.77s-4.05,2.78-3.88,3.71,1.52.25,2.36-.42a39.34,39.34,0,0,0,3.21-3.72s-1.27,4.23-.42,4.14,1.69-3,1.69-4-.17-2.19.25-2.19,1.94.59,2.28.08.09-1.18-.59-1.6a4.91,4.91,0,0,1-1.35-1.1c-.26-.34.59-10.14.59-10.14Z" style="fill:#263238"></path><path d="M187.8,355.92s-1.4,6.39-1.56,7.63a8.75,8.75,0,0,0,.7,3.28,11.48,11.48,0,0,1-.62,4.44c-.55,1.56.46,1.87.7.94s.78-4.52.78-4.52a7.18,7.18,0,0,1,.47,3.27c0,2.49-.55,3,.15,3s1-1.48.94-2.73a31.83,31.83,0,0,0-.78-4,30.22,30.22,0,0,1,2,4.6c.16,1,1.1.77.47-1.41a30.19,30.19,0,0,0-2.41-5.38c-.63-1.24.7-.93.85-2.33s-.62-.78-1.17-.47l-.54.31,2.8-7.8Z" style="fill:#263238"></path><path d="M166.82,302.05s4.58,0,6.52,3.35,2.91,9.35,4,13.76,3.88,4.93,3.88,4.93,5.73-.17,7.58-1.41,2.65-3.88,4-5.55,4.76-3.7,4.14-2.21a6.68,6.68,0,0,0-.61,2s2.2-4.76,2.64-2.47a14.87,14.87,0,0,1,.27,5.38c-.27,1,1.41-3.79,1.67-.7a12.17,12.17,0,0,1-1,6.61c-.62,1-.62,2.29-1,7.22a16.43,16.43,0,0,1-2.64,8,44.34,44.34,0,0,1-1.77,9.52,8.24,8.24,0,0,1-5.73,5.46l-1.67.35a19.54,19.54,0,0,1-5.82,1c-3.08,0-3-.52-3-.52s1.33,2.2-1.14,2.11-3.17-.7-3.44-1.5-3.7-3.17-7.05-6.61-7.23-3.44-9.79-10.22-.7-15.87,2.82-21.07,5.56-4.59,5.47-8.91-2.38-4.05-1.76-7S166.82,302.05,166.82,302.05Z" style="fill:#fff;stroke:#263238;stroke-linecap:round;stroke-linejoin:round"></path><path d="M177.82,325.05a3.94,3.94,0,0,0,0-2.1l.87-.87a9.08,9.08,0,0,1-1.3-2.92c-1.14-4.41-2.11-10.41-4-13.76s-6.52-3.35-6.52-3.35-2.74-1.32-3.35,1.59,1.67,2.65,1.76,7-1.94,3.71-5.47,8.91a18.21,18.21,0,0,0-1.24,2.14l.14.39s-1.19,3.37,0,3.37,3.74-2.64,3.74-2.64-.28,2.46.55,2.64,2.18-2.55,2.18-2.55-.27,2.64,1.1,2.64,1.64-1.64,1.64-1.64,2.28,3,3.1,2.65,1.55-2,1.55-2,1.28,1.55,1.74,1.28.45-2.19.45-2.19S177.45,325.69,177.82,325.05Z" style="fill:#fff;stroke:#263238;stroke-linecap:round;stroke-linejoin:round"></path><path d="M163.73,305.05s.71-1.94,1.59-2.29,2.47-1,1.67-2.38-1.14-1.59-1.58-.71-1.33-.35-1.77.18a2.35,2.35,0,0,0-.26,2c.18.62-.79.26-.71,1.5s-.44,2.2.09,2.2A1.5,1.5,0,0,0,163.73,305.05Z" style="fill:#92E3A9;stroke:#263238;stroke-linecap:round;stroke-linejoin:round"></path><path d="M162.76,305.58s-1.5.09-1.76,1l-.27.88a4.84,4.84,0,0,1,2-.35,31.52,31.52,0,0,1,3.35,1.32c1.15.53,2.91.27,3.18-.88s-.18-1.5-1.59-1.5a14.21,14.21,0,0,1-2.38-.09C164.79,305.84,163.64,305.14,162.76,305.58Z" style="fill:#c4c4c4;stroke:#263238;stroke-linecap:round;stroke-linejoin:round;stroke-width:0.5px"></path><path d="M163.38,307.26s-1.41,1.93-.62,3.08,1.85,1.06,2.47.26a6.08,6.08,0,0,0,.88-2.2Z" style="fill:#92E3A9;stroke:#263238;stroke-linecap:round;stroke-linejoin:round"></path><path d="M167.6,304.65A.65.65,0,1,1,167,304,.65.65,0,0,1,167.6,304.65Z" style="fill:#263238"></path><path d="M160.73,307.43a3.08,3.08,0,0,1,2.84-.76c1.94.31,3.47.81,4.15.84" style="fill:none;stroke:#263238;stroke-linecap:round;stroke-linejoin:round;stroke-width:0.5px"></path><path d="M168.19,304.08a.82.82,0,0,1,.13,1" style="fill:none;stroke:#263238;stroke-linecap:round;stroke-linejoin:round;stroke-width:0.5px"></path><path d="M173.92,331.52s-3.66,3.12-2.8,7.56,8.73,8.73,12.16,10.13,6.31,3.9,9.66,3,5.77-4.75,5.15-4.75h-1.48a3.29,3.29,0,0,0,2.26-3c0-2.34-2.65-2.65-2.65-2.65s1.56-3,1.09-3.28S193.1,336,193.1,336a1.37,1.37,0,0,0,1.25-1.56c-.08-1.48-3.12-4.75-9-5.69s-7.63.78-8,1.17" style="fill:#fff;stroke:#263238;stroke-linecap:round;stroke-linejoin:round"></path><path d="M183.59,333.78s6.08.7,6.08,2.1-1.64,1.8-1.64,1.8,7,2,7.1,3.43a1.72,1.72,0,0,1-.94,1.79s3,3.51,2.42,4.6-6.24-.08-6.47-.08,2,1.71,1.09,2.26-3.67-.47-3.67-.47" style="fill:none;stroke:#263238;stroke-linecap:round;stroke-linejoin:round"></path><path d="M160.52,331.52s-1.41,3.35-1,5.07,1.41.07,1.41.07-.55,4.68.93,5.93" style="fill:none;stroke:#263238;stroke-linecap:round;stroke-linejoin:round"></path><path d="M176.34,358.57s-.16,9.43-.7,10.6-3.2,2.57-5.07,3.27-3.35,0-3,.7,1.56,1,3.12.47,3.74-1.64,3.74-1.64-3.74,2.58-3.59,3.43,1.41.24,2.19-.39a36,36,0,0,0,3-3.43s-1.17,3.9-.39,3.82,1.56-2.8,1.56-3.66-.16-2,.23-2,1.79.55,2.11.08.07-1.09-.55-1.48a4.78,4.78,0,0,1-1.25-1c-.23-.32.55-9.36.55-9.36Z" style="fill:#263238"></path><path d="M136.5,406.06s-1.52,6.93-1.69,8.28.6,2.78.76,3.54a12.44,12.44,0,0,1-.67,4.82c-.59,1.69.51,2,.76,1s.84-4.9.84-4.9.51.85.51,3.55-.59,3.29.17,3.29,1.1-1.6,1-2.95a33.92,33.92,0,0,0-.84-4.31,34.14,34.14,0,0,1,2.19,5c.17,1.1,1.19.85.51-1.52a32.45,32.45,0,0,0-2.62-5.82c-.67-1.35.76-1,.93-2.54s-.67-.84-1.27-.5l-.59.33,3-8.44Z" style="fill:#263238"></path><path d="M113.77,347.7s5,0,7.07,3.63,3.15,10.13,4.39,14.9,4.2,5.35,4.2,5.35,6.21-.19,8.22-1.53,2.86-4.2,4.3-6,5.15-4,4.48-2.38a7.21,7.21,0,0,0-.66,2.19s2.38-5.15,2.86-2.67a16.06,16.06,0,0,1,.29,5.83c-.29,1.05,1.53-4.11,1.81-.77s-.38,6.11-1,7.16-.67,2.49-1.05,7.84a17.76,17.76,0,0,1-2.86,8.69s-.48,6.4-1.91,10.31a9,9,0,0,1-6.21,5.92l-1.82.39a21.2,21.2,0,0,1-6.3,1c-3.34,0-3.25-.58-3.25-.58s1.43,2.39-1.24,2.3-3.44-.77-3.72-1.63-4-3.44-7.65-7.16-7.83-3.73-10.6-11.08-.76-17.19,3.06-22.83,6-5,5.92-9.64-2.58-4.4-1.91-7.55S113.77,347.7,113.77,347.7Z" style="fill:#fff;stroke:#263238;stroke-linecap:round;stroke-linejoin:round"></path><path d="M125.69,372.62a4.29,4.29,0,0,0,0-2.28l.94-.94a9.82,9.82,0,0,1-1.4-3.17c-1.24-4.77-2.29-11.27-4.39-14.9s-7.07-3.63-7.07-3.63-3-1.43-3.63,1.72,1.82,2.87,1.91,7.55-2.1,4-5.92,9.64a21.41,21.41,0,0,0-1.35,2.32l.15.42s-1.29,3.66,0,3.66,4-2.86,4-2.86-.29,2.66.6,2.86,2.37-2.77,2.37-2.77-.3,2.87,1.18,2.87,1.78-1.78,1.78-1.78,2.47,3.26,3.36,2.87S120,372,120,372s1.39,1.68,1.88,1.39.5-2.38.5-2.38S125.29,373.31,125.69,372.62Z" style="fill:#fff;stroke:#263238;stroke-linecap:round;stroke-linejoin:round"></path><path d="M110.43,351s.76-2.1,1.72-2.48,2.67-1.05,1.81-2.58-1.24-1.72-1.72-.77-1.43-.38-1.91.2a2.49,2.49,0,0,0-.28,2.19c.19.67-.86.29-.77,1.63s-.48,2.38.1,2.38A1.64,1.64,0,0,0,110.43,351Z" style="fill:#92E3A9;stroke:#263238;stroke-linecap:round;stroke-linejoin:round"></path><path d="M109.38,351.52s-1.63.1-1.91,1.05l-.29,1a5.33,5.33,0,0,1,2.2-.38,35.41,35.41,0,0,1,3.63,1.43c1.24.57,3.15.29,3.43-1s-.19-1.62-1.71-1.62a16.64,16.64,0,0,1-2.58-.09C111.57,351.81,110.33,351.05,109.38,351.52Z" style="fill:#c4c4c4;stroke:#263238;stroke-linecap:round;stroke-linejoin:round;stroke-width:0.5px"></path><path d="M110.05,353.34s-1.53,2.1-.67,3.34,2,1.15,2.67.29a6.73,6.73,0,0,0,1-2.39Z" style="fill:#92E3A9;stroke:#263238;stroke-linecap:round;stroke-linejoin:round"></path><path d="M114.62,350.52a.7.7,0,0,1-.71.7.7.7,0,1,1,0-1.4A.7.7,0,0,1,114.62,350.52Z" style="fill:#263238"></path><path d="M107.18,353.53a3.33,3.33,0,0,1,3.08-.82c2.09.33,3.75.87,4.49.91" style="fill:none;stroke:#263238;stroke-linecap:round;stroke-linejoin:round;stroke-width:0.5px"></path><path d="M115.26,349.9a.88.88,0,0,1,.14,1.11" style="fill:none;stroke:#263238;stroke-linecap:round;stroke-linejoin:round;stroke-width:0.5px"></path><path d="M121.47,379.63s-4,3.38-3,8.19,9.46,9.46,13.17,11,6.85,4.22,10.48,3.29,6.25-5.15,5.57-5.15h-1.6a3.57,3.57,0,0,0,2.45-3.29c0-2.54-2.88-2.88-2.88-2.88s1.69-3.2,1.19-3.54-4.56-2.79-4.56-2.79a1.48,1.48,0,0,0,1.35-1.69c-.09-1.6-3.38-5.15-9.8-6.16s-8.28.84-8.7,1.26" style="fill:#fff;stroke:#263238;stroke-linecap:round;stroke-linejoin:round"></path><path d="M131.94,382.08s6.59.76,6.59,2.28-1.77,1.94-1.77,1.94,7.6,2.19,7.68,3.71a1.86,1.86,0,0,1-1,1.95s3.29,3.8,2.62,5-6.76-.08-7-.08,2.19,1.85,1.18,2.44-4-.5-4-.5" style="fill:none;stroke:#263238;stroke-linecap:round;stroke-linejoin:round"></path><path d="M106.94,379.63s-1.52,3.63-1.09,5.49,1.52.08,1.52.08-.59,5.07,1,6.42" style="fill:none;stroke:#263238;stroke-linecap:round;stroke-linejoin:round"></path><path d="M124.09,408.93s-.17,10.22-.76,11.49-3.46,2.79-5.49,3.55-3.63,0-3.21.76,1.69,1.09,3.38.5a43.47,43.47,0,0,0,4-1.77s-4,2.79-3.88,3.71,1.52.26,2.36-.42a38.25,38.25,0,0,0,3.21-3.71s-1.27,4.22-.42,4.13,1.69-3,1.69-4-.17-2.2.25-2.2,1.94.59,2.28.08.09-1.18-.59-1.6a4.73,4.73,0,0,1-1.35-1.1c-.25-.34.59-10.13.59-10.13Z" style="fill:#263238"></path><path d="M152.94,452.7s4.91,9.34,5.49,9.53,8,1.54,7.61,2.41-2.41.19-3.28.09-2.5-.48-2.5-.48,5,2.41,5.87,3,3.47,1.54,2.6,1.92-.29,2.12-4.43-.57a44.47,44.47,0,0,0-5.1-3.09,34.82,34.82,0,0,0,2.6,3.18c1.06,1.06,2.7,3,2,3.37s-3.18-1.44-4.14-2.69a25.77,25.77,0,0,0-3.08-3.95c-1.06-.87-2.12-.68-3.56-.77s-1.74-.48-.49-1.06a26.29,26.29,0,0,1,3.86-1.16l-6.74-7.51S152.27,451.93,152.94,452.7Z" style="fill:#263238"></path><path d="M143.33,459.46s.09,7.86.18,8.5a38.2,38.2,0,0,1-1.75,7.67c-.65,1.48,1.75,1.29,2.31-.19s-.19-5.35.64-5.82,2.59,2.31,5.55,4.25,3.78,1,3.69-.18-.28-1.39-2.77-2.49a20.89,20.89,0,0,1-4.8-3.24s5.82,1.57,7.57,1.39,1.11-1.57-.65-2.13-6.92-.37-7.75-1-.28-7.12-.28-7.12Z" style="fill:#263238"></path><path d="M178.69,394a10.59,10.59,0,0,0-9.48,1.52c-4.9,3.38-8.28,9.05-10,11.88s-2.62,4.57-2.62,4.57l-11.32,2.4c-1.09.22-2.73-1.31-10.46-3.38a46,46,0,0,0-14.93-1.31,23.29,23.29,0,0,1-4.68-2.94c-1.31-1.3-2.18-3.16-2.62-.11a45.37,45.37,0,0,0-.1,7.63s-1.86-4.9-1.75-.33,2.4,7.41,2.73,8.28A112.08,112.08,0,0,0,117.68,435c2.95,7.3,2.07,10.56,8.72,13.94a155.43,155.43,0,0,1,13.83,8.17c.33.22.11,3.16,2.51,3.49a5.65,5.65,0,0,0,3.59-.44s2.84-1.63,3.82-3.7,4-4.14,4-4.14,11.33-.44,17.54-7.41,8.82-12.85,7.62-22.77-2.29-14.7-2.39-15.79a2.72,2.72,0,0,1,.76-2s4.36-2.84,6-3.16,2.51-.55,3.27,0,2.5.87,1.2-1.31a6.51,6.51,0,0,0-2.62-2.72S180.76,393.79,178.69,394Z" style="fill:#fff;stroke:#263238;stroke-linecap:round;stroke-linejoin:round"></path><path d="M187,401.2c.76.54,2.5.87,1.2-1.31a6.51,6.51,0,0,0-2.62-2.72s-4.79-3.38-6.86-3.16a10.59,10.59,0,0,0-9.48,1.52c-4.9,3.38-8.28,9.05-10,11.88s-2.62,4.57-2.62,4.57-3.81,4.47-5.66,6.87-1.09,3.81.65,3.15a8.49,8.49,0,0,0,3.05-2.17s-3.16,5.44-2,5.66,4.14-1.74,4.14-1.74-1.09,5.55-.54,5.55,2.94-3.81,2.94-3.81,4.9,8.5,6.32,5.88a22.07,22.07,0,0,0,1.85-4.25s1.2,5.23,1.85,3.38,1.2-3.27,1.2-3.27.11,3.38,1,2.29a32.38,32.38,0,0,0,2.29-3.92s1.09,5.45,2.18,3.81a14,14,0,0,0,1.52-4.68s1.53,4.25,1.64,2.39a27,27,0,0,1,.32-3.59.63.63,0,0,1,.13-.16c0-.41-.08-.83-.13-1.26-1.2-9.91-2.29-14.7-2.39-15.79a2.72,2.72,0,0,1,.76-2s4.36-2.84,6-3.16S186.2,400.65,187,401.2Z" style="fill:#fff;stroke:#263238;stroke-linecap:round;stroke-linejoin:round"></path><path d="M177.71,404.36s.11,2.5,1.31,3.16a2.22,2.22,0,0,0,3-2.29c-.11-2-.11-3.16-.11-3.16S178,403.05,177.71,404.36Z" style="fill:#92E3A9;stroke:#263238;stroke-linecap:round;stroke-linejoin:round"></path><path d="M179.89,397.49a.88.88,0,1,1-.87-.87A.87.87,0,0,1,179.89,397.49Z" style="fill:#263238"></path><path d="M188.17,399.89a6.51,6.51,0,0,0-2.62-2.72s-.28-.2-.73-.49c-.61.16-1.12.46-1.12,1,0,0-.11,1.53-.76,1.74s-3.16.55-3.05,1.42a1.74,1.74,0,0,0,1.35,1.39,10.66,10.66,0,0,1,2.46-1.06c1.63-.33,2.5-.55,3.27,0S189.47,402.07,188.17,399.89Z" style="fill:#c4c4c4;stroke:#263238;stroke-linecap:round;stroke-linejoin:round;stroke-width:0.5px"></path><path d="M179.89,393.25s-.55.76-3.16-.44-4.25-3.05-2.07-3.59,3.27.43,4.14.65.22-2.18,1.41-2a3.6,3.6,0,0,1,2.4,2.61c.11.87,1.09-.22,1.85.87s1,1.09,1,3.16.22,3.27-.65,2.94-3.81-2.07-4.36-3.15Z" style="fill:#92E3A9;stroke:#263238;stroke-linecap:round;stroke-linejoin:round"></path><path d="M181,398.15a3.46,3.46,0,0,1-2.4,1.2" style="fill:none;stroke:#263238;stroke-linecap:round;stroke-linejoin:round;stroke-width:0.5px"></path><path d="M148.62,424.73s-7.19-4.36-12.74-5.56-10.35-.43-12.86-1-7.51-3.81-7-1.74,4.47,5.45,4.47,5.45-3.71-1.2-2.94.87,4.9,6.21,5.22,6.32-3.59-2.4-2.83.21-1.09,4.58,8.17,9.26,12.53,7.63,22.23,6.54,9.8-11.22,6-14.38" style="fill:#fff;stroke:#263238;stroke-linecap:round;stroke-linejoin:round"></path><path d="M131,422.33s-6.75-3.16-5.88-.54a23.29,23.29,0,0,0,2.51,5s-3.27-2-3.38-.76a12.56,12.56,0,0,0,.44,3.26s-2.18-.76-2.29.77,1.85,2.94,1.85,2.94" style="fill:none;stroke:#263238;stroke-linecap:round;stroke-linejoin:round"></path><path d="M209.38,428s4.46,8.49,5,8.66,7.26,1.4,6.91,2.19-2.19.17-3,.09-2.28-.44-2.28-.44,4.55,2.19,5.34,2.71,3.15,1.4,2.36,1.75-.26,1.92-4-.52a38.89,38.89,0,0,0-4.64-2.8,32,32,0,0,0,2.36,2.88c1,1,2.45,2.71,1.84,3.06s-2.89-1.31-3.76-2.44a24.84,24.84,0,0,0-2.8-3.59c-1-.79-1.92-.61-3.24-.7s-1.57-.44-.43-1a22.8,22.8,0,0,1,3.49-1.05L206.4,430S208.76,427.27,209.38,428Z" style="fill:#263238"></path><path d="M200.65,434.12s.08,7.13.16,7.72a34.06,34.06,0,0,1-1.59,7c-.59,1.34,1.59,1.18,2.1-.17s-.17-4.86.59-5.28,2.34,2.1,5,3.86,3.44.92,3.35-.17-.25-1.26-2.51-2.26a18.85,18.85,0,0,1-4.36-2.94s5.28,1.43,6.87,1.26,1-1.43-.58-1.93-6.29-.34-7.05-.93-.25-6.46-.25-6.46Z" style="fill:#263238"></path><path d="M248.43,415.41c-7-13.29-24.26-21.94-27.35-23a45.91,45.91,0,0,1-7-4,40.52,40.52,0,0,0-6.29-4.3,21.48,21.48,0,0,1-2.07-4.58c-.33-1.64-.06-3.48-1.92-1.39a41,41,0,0,0-3.91,5.72s1.06-4.64-1.16-1.12-1.89,6.81-2.08,7.63a102.71,102.71,0,0,0-3.18,11.79c-1.43,7-3.73,9-.39,14.93a140.53,140.53,0,0,1,6.38,13.12c.14.33-1.5,2.45.15,3.9a5.18,5.18,0,0,0,2.94,1.47,9.83,9.83,0,0,0,4.74-.9c1.79-1.07,5.13-1.11,5.13-1.11a30,30,0,0,0,6.39,2.7,33.11,33.11,0,0,1,5-.38c3.2,0,14-5.18,16-8.63a9.09,9.09,0,0,0,.72-1.63C246.29,425.5,252.86,423.89,248.43,415.41Z" style="fill:#fff;stroke:#263238;stroke-linecap:round;stroke-linejoin:round"></path><path d="M255.82,425.16c-.81-1.94-2.51-4.84-5.85-9.44a104.54,104.54,0,0,0-8.34-10.2c-.31-.62-3.86-2.78-5.25-2.78s.07,2.13.07,2.13c-2.2-1.65-3.48-.94-2.86.63a7.88,7.88,0,0,0,2,2.74s-5-2.79-5.17-1.7,1.64,3.73,1.64,3.73-5.06-.91-5.05-.42,3.5,2.62,3.5,2.62-7.65,4.57-5.26,5.82a19.58,19.58,0,0,0,3.88,1.62s-4.73,1.16-3,1.73,3,1,3,1-3.06.15-2.06.93a29.72,29.72,0,0,0,3.59,2s-4.93,1.06-3.43,2a12.73,12.73,0,0,0,4.27,1.32s-3.84,1.44-2.15,1.52a24,24,0,0,1,3.27.25l.14.11,1.14-.13c9-1.22,10.62.65,11.61.56a2.45,2.45,0,0,1,1.76.73s2.5,4,2.77,5.49.46,2.29-.05,3-.83,2.26,1.17,1.11a5.88,5.88,0,0,0,2.51-2.33s3.15-4.3,3-6.18A9.52,9.52,0,0,0,255.82,425.16Z" style="fill:#fff;stroke:#263238;stroke-linecap:round;stroke-linejoin:round"></path><path d="M247.23,432s-2.27.06-2.89,1.13a2,2,0,0,0,2,2.81c1.78-.06,2.87,0,2.87,0S248.42,432.34,247.23,432Z" style="fill:#92E3A9;stroke:#263238;stroke-linecap:round;stroke-linejoin:round"></path><path d="M253.43,434.11a.79.79,0,1,1,.81-.78A.8.8,0,0,1,253.43,434.11Z" style="fill:#263238"></path><path d="M251.12,441.59a5.88,5.88,0,0,0,2.51-2.33s.19-.25.46-.65c-.14-.56-.4-1-.92-1,0,0-1.38-.12-1.57-.72s-.44-2.88-1.24-2.79a1.61,1.61,0,0,0-1.28,1.2,9.48,9.48,0,0,1,.92,2.25c.27,1.49.46,2.29-.05,3S249.12,442.74,251.12,441.59Z" style="fill:#c4c4c4;stroke:#263238;stroke-linecap:round;stroke-linejoin:round;stroke-width:0.5px"></path><path d="M257.29,434.18s-.68-.51.45-2.86,2.84-3.81,3.3-1.82-.45,3-.67,3.75,2,.23,1.76,1.32a3.28,3.28,0,0,1-2.41,2.13c-.8.08.18,1-.82,1.67s-1,.87-2.89.83-3,.15-2.66-.64,1.94-3.43,2.94-3.9Z" style="fill:#92E3A9;stroke:#263238;stroke-linecap:round;stroke-linejoin:round"></path><path d="M252.82,435.09a3.15,3.15,0,0,1-1-2.2" style="fill:none;stroke:#263238;stroke-linecap:round;stroke-linejoin:round;stroke-width:0.5px"></path><path d="M222.05,409.85s-3.25-6.9-6.86-10.59-7.62-5.52-9.24-7.19-3.78-6.66-4.41-4.82.65,6.37.65,6.37-2.2-2.77-2.66-.82.6,7.16.79,7.41-1.52-3.62-2.26-1.26-3.11,2.92,1.55,11.11,5.66,12.06,13.55,16.09,13.05-3.58,11.75-7.88" style="fill:#fff;stroke:#263238;stroke-linecap:round;stroke-linejoin:round"></path><path d="M209.89,399.19s-3.53-5.78-4.18-3.36a21.13,21.13,0,0,0-.61,5.05s-1.5-3.12-2.18-2.27a11.64,11.64,0,0,0-1.31,2.69s-1.27-1.67-2.11-.57-.08,3.16-.08,3.16" style="fill:none;stroke:#263238;stroke-linecap:round;stroke-linejoin:round"></path><path d="M462.15,444.59s-4.46,8.48-5,8.65-7.26,1.4-6.91,2.19,2.19.18,3,.09,2.27-.44,2.27-.44-4.55,2.19-5.34,2.71-3.14,1.4-2.36,1.75.27,1.93,4-.52a39.79,39.79,0,0,1,4.63-2.8,32,32,0,0,1-2.36,2.88c-1,1-2.45,2.72-1.84,3.07s2.89-1.32,3.76-2.45a24.84,24.84,0,0,1,2.8-3.59c1-.79,1.93-.61,3.24-.7s1.57-.44.44-1a23.14,23.14,0,0,0-3.5-1.05l6.12-6.82S462.76,443.89,462.15,444.59Z" style="fill:#263238"></path><path d="M470.88,450.73s-.09,7.13-.17,7.72a34.74,34.74,0,0,0,1.59,7c.59,1.35-1.59,1.18-2.1-.16s.17-4.87-.58-5.29-2.35,2.1-5,3.86-3.44.92-3.35-.17.25-1.26,2.52-2.26a19.12,19.12,0,0,0,4.36-2.94s-5.29,1.43-6.88,1.26-1-1.43.59-1.93,6.29-.34,7-.92.25-6.46.25-6.46Z" style="fill:#263238"></path><path d="M423.1,432c6.95-13.29,24.25-21.94,27.34-23a45.91,45.91,0,0,0,7-4,40.52,40.52,0,0,1,6.29-4.3,21.06,21.06,0,0,0,2.07-4.57c.34-1.65.07-3.49,1.93-1.4a40.52,40.52,0,0,1,3.9,5.72s-1.05-4.64,1.16-1.12a15.68,15.68,0,0,1,2.09,7.64A103.38,103.38,0,0,1,478,418.71c1.43,7,3.73,9,.39,14.93A141.86,141.86,0,0,0,472,446.76c-.14.33,1.5,2.45-.15,3.9a5.1,5.1,0,0,1-2.94,1.47,9.9,9.9,0,0,1-4.74-.89c-1.78-1.08-5.13-1.12-5.13-1.12a29.47,29.47,0,0,1-6.38,2.7,34.63,34.63,0,0,0-5-.38c-3.21,0-14.05-5.18-16-8.63a10.77,10.77,0,0,1-.72-1.63C425.24,442.12,418.66,440.5,423.1,432Z" style="fill:#fff;stroke:#263238;stroke-linecap:round;stroke-linejoin:round"></path><path d="M415.71,441.77a51.9,51.9,0,0,1,5.84-9.44,106.51,106.51,0,0,1,8.34-10.2c.31-.62,3.87-2.78,5.26-2.78s-.08,2.13-.08,2.13c2.2-1.65,3.48-.94,2.86.63a7.64,7.64,0,0,1-2,2.74s5-2.79,5.17-1.7-1.64,3.73-1.64,3.73,5.06-.91,5.06-.42-3.5,2.62-3.5,2.62,7.65,4.57,5.25,5.82a19.58,19.58,0,0,1-3.88,1.62s4.73,1.16,3,1.73-3,1.05-3,1.05,3.06.14,2.06.92a29.72,29.72,0,0,1-3.59,2s4.93,1.06,3.44,2a12.76,12.76,0,0,1-4.28,1.32s3.84,1.45,2.16,1.52a23.78,23.78,0,0,0-3.27.25.65.65,0,0,0-.15.11l-1.14-.13c-9-1.22-10.61.65-11.6.57a2.5,2.5,0,0,0-1.77.72s-2.5,4-2.77,5.49-.46,2.29.05,3,.83,2.26-1.17,1.11a5.88,5.88,0,0,1-2.51-2.33s-3.15-4.29-3-6.18A9.52,9.52,0,0,1,415.71,441.77Z" style="fill:#fff;stroke:#263238;stroke-linecap:round;stroke-linejoin:round"></path><path d="M424.29,448.63s2.28.06,2.89,1.14a2,2,0,0,1-2,2.8c-1.78-.06-2.87,0-2.87,0S423.11,449,424.29,448.63Z" style="fill:#92E3A9;stroke:#263238;stroke-linecap:round;stroke-linejoin:round"></path><path d="M418.09,450.72a.79.79,0,1,0-.8-.77A.78.78,0,0,0,418.09,450.72Z" style="fill:#263238"></path><path d="M420.4,458.2a5.88,5.88,0,0,1-2.51-2.33l-.46-.65c.14-.56.41-1,.92-1,0,0,1.39-.12,1.57-.72s.45-2.88,1.24-2.79a1.6,1.6,0,0,1,1.28,1.2,9.48,9.48,0,0,0-.92,2.25c-.27,1.49-.46,2.29.05,3S422.4,459.35,420.4,458.2Z" style="fill:#c4c4c4;stroke:#263238;stroke-linecap:round;stroke-linejoin:round;stroke-width:0.5px"></path><path d="M414.23,450.79s.69-.5-.44-2.86-2.84-3.81-3.3-1.82.45,3,.66,3.75-2,.23-1.76,1.32a3.26,3.26,0,0,0,2.42,2.13c.79.09-.18,1,.82,1.67s1,.87,2.88.84,3,.14,2.66-.65-1.94-3.42-2.94-3.9Z" style="fill:#92E3A9;stroke:#263238;stroke-linecap:round;stroke-linejoin:round"></path><path d="M418.7,451.7a3.11,3.11,0,0,0,1.05-2.19" style="fill:none;stroke:#263238;stroke-linecap:round;stroke-linejoin:round;stroke-width:0.5px"></path><path d="M449.47,426.47s3.26-6.91,6.86-10.6,7.62-5.52,9.25-7.19,3.78-6.66,4.4-4.82-.65,6.37-.65,6.37,2.21-2.77,2.67-.82-.6,7.16-.8,7.41,1.52-3.62,2.26-1.25,3.12,2.91-1.55,11.1-5.66,12.06-13.55,16.1-13.05-3.58-11.74-7.89" style="fill:#fff;stroke:#263238;stroke-linecap:round;stroke-linejoin:round"></path><path d="M461.63,415.8s3.53-5.78,4.18-3.36a21.43,21.43,0,0,1,.62,5.05s1.49-3.12,2.17-2.27a11.22,11.22,0,0,1,1.31,2.69s1.27-1.67,2.12-.57.07,3.16.07,3.16" style="fill:none;stroke:#263238;stroke-linecap:round;stroke-linejoin:round"></path><path d="M472.73,340.22s-3.37,6.41-3.77,6.55-5.49,1.06-5.22,1.65,1.65.13,2.25.07,1.72-.33,1.72-.33-3.44,1.65-4,2-2.38,1.05-1.78,1.32.19,1.45,3-.4a29,29,0,0,1,3.5-2.11,23.56,23.56,0,0,1-1.78,2.18c-.73.73-1.85,2.05-1.39,2.31s2.18-1,2.84-1.85a17.83,17.83,0,0,1,2.12-2.71c.73-.6,1.45-.46,2.45-.53s1.19-.33.33-.73a18.65,18.65,0,0,0-2.65-.79l4.63-5.16S473.2,339.69,472.73,340.22Z" style="fill:#263238"></path><path d="M479.33,344.87s-.06,5.39-.12,5.83a26.11,26.11,0,0,0,1.2,5.27c.45,1-1.2.89-1.58-.13s.12-3.68-.45-4-1.77,1.58-3.8,2.91-2.61.7-2.54-.12.19-.95,1.9-1.72a14.39,14.39,0,0,0,3.3-2.22,27.07,27.07,0,0,1-5.2,1c-1.21-.13-.76-1.08.44-1.46s4.76-.26,5.33-.7.19-4.89.19-4.89Z" style="fill:#263238"></path><path d="M443.2,330.71c5.26-10,18.34-16.58,20.68-17.4a34.42,34.42,0,0,0,5.28-3.06,31,31,0,0,1,4.75-3.25,15.72,15.72,0,0,0,1.57-3.46c.25-1.24,0-2.63,1.46-1.05a31.36,31.36,0,0,1,2.95,4.32s-.8-3.51.88-.84a11.76,11.76,0,0,1,1.57,5.77,75.68,75.68,0,0,1,2.4,8.91c1.09,5.29,2.83,6.84.3,11.29a106.09,106.09,0,0,0-4.82,9.92c-.11.25,1.13,1.85-.12,2.95a3.82,3.82,0,0,1-2.22,1.11,7.48,7.48,0,0,1-3.59-.67,9.46,9.46,0,0,0-3.88-.84,22.59,22.59,0,0,1-4.82,2,25.57,25.57,0,0,0-3.79-.29c-2.43,0-10.63-3.92-12.12-6.53a7.56,7.56,0,0,1-.55-1.23C444.82,338.35,439.85,337.13,443.2,330.71Z" style="fill:#fff;stroke:#263238;stroke-linecap:round;stroke-linejoin:round"></path><path d="M437.61,338.09A40.17,40.17,0,0,1,442,331a80,80,0,0,1,6.31-7.71,8.55,8.55,0,0,1,4-2.1c1.05,0-.06,1.6-.06,1.6,1.66-1.24,2.63-.71,2.16.48a6,6,0,0,1-1.53,2.08s3.78-2.12,3.91-1.29-1.23,2.82-1.23,2.82,3.82-.69,3.82-.32-2.65,2-2.65,2,5.78,3.45,4,4.39a14.81,14.81,0,0,1-2.93,1.23s3.58.88,2.3,1.31-2.26.79-2.26.79,2.32.11,1.56.7a22.5,22.5,0,0,1-2.71,1.53s3.73.8,2.59,1.53a9.71,9.71,0,0,1-3.23,1s2.9,1.09,1.63,1.15a16.7,16.7,0,0,0-2.47.19s-.06,0-.11.08l-.86-.1c-6.8-.92-8,.49-8.78.43a1.89,1.89,0,0,0-1.34.55,21.51,21.51,0,0,0-2.09,4.15c-.21,1.13-.34,1.73,0,2.25s.63,1.71-.88.83a4.48,4.48,0,0,1-1.91-1.76s-2.37-3.25-2.25-4.67A7.2,7.2,0,0,1,437.61,338.09Z" style="fill:#fff;stroke:#263238;stroke-linecap:round;stroke-linejoin:round"></path><path d="M444.1,343.28s1.73,0,2.19.86a1.52,1.52,0,0,1-1.53,2.12c-1.35-.05-2.17,0-2.17,0S443.21,343.52,444.1,343.28Z" style="fill:#92E3A9;stroke:#263238;stroke-linecap:round;stroke-linejoin:round"></path><path d="M439.42,344.86a.6.6,0,1,0,0-1.2.6.6,0,0,0-.59.61A.6.6,0,0,0,439.42,344.86Z" style="fill:#263238"></path><path d="M441.17,350.52a4.53,4.53,0,0,1-1.91-1.77l-.34-.49c.1-.42.3-.78.69-.78,0,0,1.05-.1,1.19-.55s.34-2.18.94-2.11a1.21,1.21,0,0,1,1,.91,7.36,7.36,0,0,0-.7,1.7c-.21,1.13-.34,1.73,0,2.25S442.68,351.39,441.17,350.52Z" style="fill:#c4c4c4;stroke:#263238;stroke-linecap:round;stroke-linejoin:round;stroke-width:0.5px"></path><path d="M436.5,344.91s.52-.38-.34-2.16-2.15-2.88-2.49-1.38a4.15,4.15,0,0,0,.5,2.84c.16.59-1.5.17-1.33,1a2.47,2.47,0,0,0,1.82,1.62c.6.06-.13.75.63,1.26a2.51,2.51,0,0,0,2.18.63c1.42,0,2.24.11,2-.48a8.37,8.37,0,0,0-2.22-3Z" style="fill:#92E3A9;stroke:#263238;stroke-linecap:round;stroke-linejoin:round"></path><path d="M439.88,345.6a2.37,2.37,0,0,0,.79-1.66" style="fill:none;stroke:#263238;stroke-linecap:round;stroke-linejoin:round;stroke-width:0.5px"></path><path d="M463.15,326.52s2.46-5.23,5.19-8,5.76-4.17,7-5.43,2.86-5,3.33-3.65-.49,4.82-.49,4.82,1.66-2.09,2-.62-.45,5.42-.6,5.6,1.15-2.73,1.71-1,2.36,2.21-1.17,8.4-4.28,9.12-10.25,12.17-9.87-2.71-8.88-6" style="fill:#fff;stroke:#263238;stroke-linecap:round;stroke-linejoin:round"></path><path d="M472.34,318.45s2.67-4.37,3.16-2.54a15.75,15.75,0,0,1,.47,3.82s1.13-2.36,1.64-1.72a8.68,8.68,0,0,1,1,2s1-1.26,1.6-.43.06,2.38.06,2.38" style="fill:none;stroke:#263238;stroke-linecap:round;stroke-linejoin:round"></path><path d="M33.41,429s1.6,7.27,1.77,8.69-.62,2.93-.79,3.73a12.8,12.8,0,0,0,.71,5.05c.62,1.78-.54,2.13-.8,1.07s-.89-5.15-.89-5.15-.53.89-.53,3.73.62,3.46-.18,3.46-1.15-1.69-1.06-3.11a37,37,0,0,1,.88-4.52,34.7,34.7,0,0,0-2.3,5.23c-.18,1.16-1.24.89-.53-1.59a34,34,0,0,1,2.74-6.12c.71-1.42-.79-1.07-1-2.66s.71-.89,1.33-.54l.62.36-3.19-8.87Z" style="fill:#263238"></path><path d="M57.28,367.74s-5.21,0-7.42,3.81-3.31,10.63-4.61,15.65-4.42,5.61-4.42,5.61-6.52-.2-8.62-1.6-3-4.42-4.52-6.32-5.41-4.21-4.71-2.51a7.58,7.58,0,0,1,.7,2.31s-2.5-5.42-3-2.81a16.78,16.78,0,0,0-.3,6.12c.3,1.1-1.6-4.32-1.9-.8s.4,6.41,1.1,7.52.7,2.61,1.1,8.22a18.76,18.76,0,0,0,3,9.13s.5,6.72,2,10.83a9.39,9.39,0,0,0,6.52,6.22l1.9.4a22.33,22.33,0,0,0,6.62,1.1c3.51,0,3.41-.6,3.41-.6s-1.5,2.51,1.31,2.41,3.61-.8,3.91-1.71,4.21-3.61,8-7.52,8.23-3.91,11.14-11.63.8-18.06-3.21-24-6.32-5.22-6.22-10.13,2.71-4.62,2-7.93S57.28,367.74,57.28,367.74Z" style="fill:#fff;stroke:#263238;stroke-linecap:round;stroke-linejoin:round"></path><path d="M44.77,393.9a4.38,4.38,0,0,1,0-2.39l-1-1a10.24,10.24,0,0,0,1.47-3.32c1.3-5,2.4-11.84,4.61-15.65s7.42-3.81,7.42-3.81,3.11-1.51,3.81,1.8-1.9,3-2,7.93,2.21,4.21,6.22,10.13A22.5,22.5,0,0,1,66.73,390l-.16.44s1.35,3.85,0,3.85-4.26-3-4.26-3,.31,2.8-.62,3-2.49-2.91-2.49-2.91.31,3-1.25,3-1.87-1.87-1.87-1.87-2.59,3.43-3.53,3-1.76-2.28-1.76-2.28-1.45,1.76-2,1.45-.52-2.49-.52-2.49S45.18,394.63,44.77,393.9Z" style="fill:#fff;stroke:#263238;stroke-linecap:round;stroke-linejoin:round"></path><path d="M60.79,371.15s-.8-2.21-1.8-2.61-2.81-1.1-1.91-2.71,1.31-1.8,1.81-.8,1.5-.4,2,.2a2.62,2.62,0,0,1,.3,2.31c-.2.7.91.3.81,1.7s.5,2.51-.1,2.51A1.74,1.74,0,0,1,60.79,371.15Z" style="fill:#92E3A9;stroke:#263238;stroke-linecap:round;stroke-linejoin:round"></path><path d="M61.9,371.75s1.7.1,2,1.1l.3,1a5.5,5.5,0,0,0-2.3-.41A35.69,35.69,0,0,0,58.09,375c-1.31.6-3.31.3-3.62-1s.21-1.71,1.81-1.71a16.59,16.59,0,0,0,2.71-.1C59.59,372.05,60.89,371.25,61.9,371.75Z" style="fill:#c4c4c4;stroke:#263238;stroke-linecap:round;stroke-linejoin:round;stroke-width:0.5px"></path><path d="M61.19,373.65s1.61,2.21.71,3.52-2.11,1.2-2.81.3a7.1,7.1,0,0,1-1-2.51Z" style="fill:#92E3A9;stroke:#263238;stroke-linecap:round;stroke-linejoin:round"></path><circle cx="57.13" cy="370.7" r="0.74" style="fill:#263238"></circle><path d="M64.2,373.86A3.49,3.49,0,0,0,61,373c-2.2.36-3.94.92-4.72,1" style="fill:none;stroke:#263238;stroke-linecap:round;stroke-linejoin:round;stroke-width:0.5px"></path><path d="M55.72,370a1,1,0,0,0-.14,1.18" style="fill:none;stroke:#263238;stroke-linecap:round;stroke-linejoin:round;stroke-width:0.5px"></path><path d="M49.2,401.26s4.17,3.55,3.19,8.61-9.93,9.93-13.84,11.52-7.18,4.44-11,3.46-6.57-5.41-5.86-5.41h1.69A3.73,3.73,0,0,1,20.82,416c0-2.66,3-3,3-3s-1.77-3.37-1.24-3.73,4.79-2.92,4.79-2.92A1.56,1.56,0,0,1,26,404.54c.09-1.68,3.55-5.41,10.29-6.47s8.69.89,9.13,1.33" style="fill:#fff;stroke:#263238;stroke-linecap:round;stroke-linejoin:round"></path><path d="M38.2,403.83s-6.92.8-6.92,2.4,1.86,2,1.86,2-8,2.3-8.07,3.9a1.94,1.94,0,0,0,1.07,2s-3.46,4-2.75,5.23,7.09-.09,7.36-.09-2.31,2-1.24,2.58,4.17-.54,4.17-.54" style="fill:none;stroke:#263238;stroke-linecap:round;stroke-linejoin:round"></path><path d="M64.45,401.26s1.6,3.82,1.15,5.77-1.59.09-1.59.09.62,5.32-1.07,6.74" style="fill:none;stroke:#263238;stroke-linecap:round;stroke-linejoin:round"></path><path d="M46.45,432s.17,10.73.8,12.06S50.88,447,53,447.82s3.81,0,3.37.8-1.77,1.16-3.55.53a46,46,0,0,1-4.25-1.86s4.25,2.93,4.08,3.9-1.6.27-2.49-.44a42.81,42.81,0,0,1-3.37-3.9s1.33,4.43.45,4.34S45.47,448,45.47,447s.18-2.31-.26-2.31-2,.62-2.4.09-.09-1.24.62-1.69A4.94,4.94,0,0,0,44.85,442c.27-.35-.62-10.64-.62-10.64Z" style="fill:#263238"></path><path d="M335.89,431.12s-4.61,10-5.06,10.66-8.53.68-7.41,1.24a9.11,9.11,0,0,0,3.6.33s-7.53,1.8-5.84,1.91,9.76-1.57,9.76-1.57-4.15,2.25-3,2a62.1,62.1,0,0,0,6.66-3c.6-.3,1.7-.55,1.15-1s-2.61-.2-2.61-.2l4.36-9.63Z" style="fill:#263238"></path><path d="M339.93,431.79s-3.6,12.57-3.71,13.36,2,.56,2.81,1.46-2.58,0-3,.34,0,.56-1.46,2.47-2.58,1.91-1.91.45,1.12-2.59,1.12-2.59-2.24.57-4.71,1.24-7,.56-4.38,0,7-2,7-2-6.51.67-5.84-.11,6.51-1.24,7.52-1.58l1-.33,3.6-13.14Z" style="fill:#263238"></path><path d="M327.85,389.4s4,1.58,7.14,2.43,14.67,1.85,16.81,1.71,5.41-10.11,10.82-15.09,8-4.13,6.69-1.14-2.28,5-2.28,5,6.13-3.13,6.55-.57-3,6.69-3,6.69,4.28-.71,2.28,7-4.27,9.69-4.7,10.68a12.11,12.11,0,0,1-3.7,4.7,11.05,11.05,0,0,0-2.56,2.28s1,5.84-5.27,10.11a28.12,28.12,0,0,1-13.25,4.56s-1.42,3.85-3.13,4.84a4.08,4.08,0,0,1-4.42,0c-1.13-.71-3.27-4.41-4.27-5.27s-4.41-3-9-6.83-9.66-5.5-11.39-9.83a42,42,0,0,1-2.28-9.83l16.23-13.24Z" style="fill:#fff;stroke:#263238;stroke-miterlimit:10"></path><path d="M341.11,400.38s6.27,2.28,9.26,5.41,11,8,9,10-8.54-2.14-8.54-2.14,2.56,3.42-1,2.57a21.68,21.68,0,0,1-5.84-2.28s3.56.71-2.42,2.85-14.38-2.28-14.38-2.28-6.55,4.41-9.4-3.71,1.42-12.39,6.12-12.81" style="fill:#fff;stroke:#263238;stroke-miterlimit:10"></path><path d="M365.89,383.15s-3.13,5.41-3.84,9" style="fill:none;stroke:#263238;stroke-linecap:round;stroke-linejoin:round"></path><path d="M369.74,389.55s-1.42,1.86-1.71,2.28" style="fill:none;stroke:#263238;stroke-linecap:round;stroke-linejoin:round"></path><path d="M304.14,371.51a7,7,0,0,1,2.54-2.38c1.4-.57,2.38-1,2.38-1s.91-2.79.25-2.46a9,9,0,0,0-1.72,1.48s.24-2.54-1.07-1.39-1.72.73-1.81,1.72-.82-1-1.64.9-.24,2.38-.24,2.38-1.48.41-.74.82A3.07,3.07,0,0,0,304.14,371.51Z" style="fill:#92E3A9;stroke:#263238;stroke-linecap:round;stroke-linejoin:round"></path><path d="M305.7,375s2.95.57,3.12,1.47-.82,1.81-1.64,1.4S305.7,375,305.7,375Z" style="fill:#92E3A9;stroke:#263238;stroke-linecap:round;stroke-linejoin:round"></path><path d="M304.14,371.51a14.83,14.83,0,0,0-2.71,1.89,4.42,4.42,0,0,0-1,2.54s2.05-1.48,3.28-1.48a3.75,3.75,0,0,1,2,.5s2.87.9,3.12,2.38-.66,6.64-1.15,8.45-.82,13.62.08,16.33,1.4,4.18,1.72,4.18.17-3.12.33-2.87-.08.16.9.57,1.07-2.62,1.56-2.62a8.62,8.62,0,0,0,1.56,0c1.32-.08,1.56-2.46,1.48-2.87s7.14-.33,7.06-1.48a13.82,13.82,0,0,0-1.07-3.28s2.22.82,2.79.08a1.45,1.45,0,0,0,.08-1.56s1.89.57,2,.08a11.63,11.63,0,0,0,0-2.46s2.3,1.15,2.63.82-1-1.31-1-1.31l2,.16s-4.76-3.2-5.9-7.88a21,21,0,0,0-7.64-11.48c-3.28-2.3-6.31-2.47-8.61-1.64A7.39,7.39,0,0,0,304.14,371.51Z" style="fill:#fff;stroke:#263238;stroke-miterlimit:10"></path><circle cx="308.08" cy="371.84" r="0.82" style="fill:#263238"></circle><path d="M300.45,375.94a4.42,4.42,0,0,1,1-2.54,14.1,14.1,0,0,1,2.55-1.8l.32.57a1.08,1.08,0,0,0,.74,1c.74.25,2.79.08,2.88,1s-1.24.91-1.24.91l-1-.08a3.75,3.75,0,0,0-2-.5C302.5,374.46,300.45,375.94,300.45,375.94Z" style="fill:#c4c4c4;stroke:#263238;stroke-linecap:round;stroke-linejoin:round"></path></g></svg>
