<svg xmlns="http://www.w3.org/2000/svg" viewBox="0 0 500 500"><g id="background-simple"><path d="M482.27,186.06c-16.92-55.28-60.4-99.54-111.87-122.87-49.1-22.25-111.17-33.25-157.69,1-30.63,22.56-48,58.7-76,84-13.94,12.57-29.2,16.66-45.78,24.18-40.42,18.33-74.25,53.68-77,100.32C9.21,350.66,71,404.59,140,422.28c91.14,23.37,159.27,23.37,221.87-1.87,32.51-13.11,65.59-29.7,89-56.85,35.45-41.06,45.24-99.38,37.18-152.12A178.72,178.72,0,0,0,482.27,186.06Z" style="fill:#92E3A9"></path><path d="M482.27,186.06c-16.92-55.28-60.4-99.54-111.87-122.87-49.1-22.25-111.17-33.25-157.69,1-30.63,22.56-48,58.7-76,84-13.94,12.57-29.2,16.66-45.78,24.18-40.42,18.33-74.25,53.68-77,100.32C9.21,350.66,71,404.59,140,422.28c91.14,23.37,159.27,23.37,221.87-1.87,32.51-13.11,65.59-29.7,89-56.85,35.45-41.06,45.24-99.38,37.18-152.12A178.72,178.72,0,0,0,482.27,186.06Z" style="fill:#fff;opacity:0.8"></path></g><g id="Plants"><path d="M200.18,450.13c-.66-1.38-1.23-2.79-1.82-4.2,9.1-16.59,16.62-32.21,20.38-50.94-1.74-3-5.9-4.37-6.91,0-3.59,15.47-8.56,29.4-16.45,43.22-.31-1-.63-2.07-1-3.08,8.59-16,13.58-32.61,16.09-50.57-1.76-2.9-6.43-4.15-7.08.14-2.31,15.13-5.47,29.18-12,43.07-.31-.82-.67-1.63-1-2.44A141.7,141.7,0,0,0,201.46,376c-1.92-2.61-6.82-3.76-7.13.44-1.06,14.43-2.64,28.26-7.47,41.89-.36-.76-.87-1.46-1.3-2.19,5.2-16.07,6.2-32.76,6.31-49.52-2.14-2.53-7.22-3.14-7.37.93-.53,14.19.46,28.2-3.36,41.94-.39-.59-.83-1.16-1.24-1.75,3.78-15.17,2.45-31.82,2-47.3-2.22-2.41-7.41-2.7-7.45,1.25-.12,13.3,1.83,26.5.26,39.59-.46-.59-1-1.14-1.45-1.71,1.44-14.52-.95-30.18-1.52-44.77-2.34-2.31-7.55-2.33-7.56,1.58-.05,12.67,1.37,24.8,1.94,37.32-.67-.51-1.39-1-2.07-1.48-1-14.18-2-28.39-2.58-42.58-2.42-2.24-7.57-2-7.59,1.86-.06,12,1.49,23.5,2.2,35.37-.68-.48-1.4-.92-2.11-1.37-1.22-13.52-2.07-27.06-2.76-40.6-2.49-2.16-7.56-1.77-7.56,2,0,11.44,1.34,22.35,2.2,33.63-.68-.43-1.41-.83-2.11-1.25-1.27-12.95-2-25.94-2.75-38.91-2.47-2-7.58-1.66-7.57,2.14,0,10.9,1.33,21.37,2.24,32.12-.67-.41-1.4-.8-2.1-1.21-1.2-12.4-2.15-24.85-2.74-37.3-2.88-1.73-6.91-1.79-7.79,2.14.6,10.24,1.64,20.45,2.62,30.66l-2.07-1.16c-1.15-11.8-3.1-24-2.78-35.83-2.72-1.79-6.46-2.16-7.74,1.49-.43,10,2,20,2.77,29.94l-2-1.18c-1-11.82-3.83-23.25-2.07-35.16-2.37-2.12-5.73-3.11-7.38.35-1.74,10-.46,19.47,1.19,29.42-.8-.56-1.59-1.15-2.39-1.72-1.88-11.86-2.29-22.77,1.26-34.35-1.59-3-4.67-3.88-6.9-1-3.69,9-4.12,18.27-3.37,27.83L92,345.57c-.51-11.58,1.49-22.45,7-32.72-1.13-3.26-3.9-4.79-6.55-2-4.39,8.24-7.52,16.56-8.15,26-.6-.78-1.17-1.56-1.71-2.38,1.43-11.4,6.71-20.74,12.09-30.67-.87-3.5-3.52-5.2-6.43-2.44-4.19,7.45-9.29,14.9-11.16,23.35a38.85,38.85,0,0,1-2-4.64c3.12-7.61,7.82-14.47,12-21.56-.65-2.61-2.75-4.15-5-2-3.07,5.5-6.29,10.9-9.5,16.31-.2-.69-.4-1.39-.61-2.08,2-5.32,3.75-10.68,5.62-16-.87-1.77-2.63-2.52-3.92-.66-1.47,4.42-2.92,8.93-4.31,13.33-3.24-2.41-7.78-6.93-10.64-8.92s-3,.93-3.19,2.33c4.61,3.82,9.06,7.51,13.72,11.15.18.71.49,1.55.6,2.19-5.13-2.26-12.55-7.1-17-8.95s-3.62,2.38-3.51,4.25c7.87,4,15.51,7.85,23.16,12.07.66,1.73,1.56,3.58,2.28,5.12-7.41-3.23-18-10.62-24.48-13.28s-4.35,4-4.19,6.29c11.48,6.13,22.46,12.21,34.44,17,.53.78,1.36,1.73,1.78,2.36-9.25-2.09-21.91-10.41-29.24-13.53s-3.23,5.57-3.28,7.18c13,6.8,26.07,13,40.48,15.32.7.66,1.65,1.55,2.19,2.09-10.75-.7-25.8-7.56-34.27-10.91s-2.06,6.53-1.91,7.87a123.1,123.1,0,0,0,45.36,10.63c.7.52,1.74,1.23,2.24,1.62-11.54.8-28.57-4.06-38-6.33s-1,6.77-.87,8a114.92,114.92,0,0,0,47.22,3.79c.59.39,1.55.91,1.92,1.22-11.37,2.62-28.94.51-38.62-.57s-.51,6.38-.28,7.77c16.09,1.75,31.29.39,46.89-2.67a19.65,19.65,0,0,1,1.91,1.14c-10.76,3.07-28.83,3.9-38.16,4.2s-.69,5.61-.15,7.14c16-.45,31.08-3.66,46.42-6.87.69.39,1.38.81,2.09,1.18-13.12,2.94-26,5-39.36,7-4.54.65-2.55,5.14.7,6.54C111.4,389,126.9,385,142.4,381.89c.7.41,1.41.85,2.11,1.24-13.36,2.86-26.77,5.42-40.15,8.22-4.35.92-2.85,4.9.32,6.35,16-2.89,31.93-6.6,47.95-9.63l2.11,1.35c-13.91,2.63-28,5.34-41.73,8.6-4.29,1-2.93,4.8.08,6.35,16.53-3.29,33-7.08,49.63-9.58l2.07,1.46c-14.53,2.39-29.28,5-43.53,8.45-4.29,1-3.05,4.79-.06,6.36,16.73-3.27,33.51-7.13,50.46-8.92l1.41,1.68a389.06,389.06,0,0,0-43.75,7.7c-4.15.93-3.37,4.75-.38,6.48,16.3-3.19,32.57-6.08,49.09-7.76.4.56.81,1.14,1.21,1.68-14.23,1.67-28.4,3.64-42.4,6.67-3.91.85-3.8,4.64-.87,6.59,15.77-3.06,31.54-5.91,47.61-6.62.51.85,1,1.73,1.43,2.61a209.18,209.18,0,0,0-39.1,4.79c-3.6.76-4.18,4.38-1.48,6.55,14.5-2.6,29.19-4.94,44-4.45l.63,1.5a162.54,162.54,0,0,0-36.49,3.07c-3.39.64-4.24,4.26-2,6.6,13.53-2.09,27.59-4.16,41.26-2.39.3.9.59,1.83.89,2.72-11.46-1.52-22.63-.58-34.09,1.07-3.26.47-4,4.44-1.9,6.71,13.09-1.09,25.57-2.51,38.62-.21.65,1.54,1.37,3,2.15,4.47Z" style="fill:#92E3A9"></path><g style="opacity:0.30000000000000004"><path d="M200.18,450.13c-.66-1.38-1.23-2.79-1.82-4.2,9.1-16.59,16.62-32.21,20.38-50.94-1.74-3-5.9-4.37-6.91,0-3.59,15.47-8.56,29.4-16.45,43.22-.31-1-.63-2.07-1-3.08,8.59-16,13.58-32.61,16.09-50.57-1.76-2.9-6.43-4.15-7.08.14-2.31,15.13-5.47,29.18-12,43.07-.31-.82-.67-1.63-1-2.44A141.7,141.7,0,0,0,201.46,376c-1.92-2.61-6.82-3.76-7.13.44-1.06,14.43-2.64,28.26-7.47,41.89-.36-.76-.87-1.46-1.3-2.19,5.2-16.07,6.2-32.76,6.31-49.52-2.14-2.53-7.22-3.14-7.37.93-.53,14.19.46,28.2-3.36,41.94-.39-.59-.83-1.16-1.24-1.75,3.78-15.17,2.45-31.82,2-47.3-2.22-2.41-7.41-2.7-7.45,1.25-.12,13.3,1.83,26.5.26,39.59-.46-.59-1-1.14-1.45-1.71,1.44-14.52-.95-30.18-1.52-44.77-2.34-2.31-7.55-2.33-7.56,1.58-.05,12.67,1.37,24.8,1.94,37.32-.67-.51-1.39-1-2.07-1.48-1-14.18-2-28.39-2.58-42.58-2.42-2.24-7.57-2-7.59,1.86-.06,12,1.49,23.5,2.2,35.37-.68-.48-1.4-.92-2.11-1.37-1.22-13.52-2.07-27.06-2.76-40.6-2.49-2.16-7.56-1.77-7.56,2,0,11.44,1.34,22.35,2.2,33.63-.68-.43-1.41-.83-2.11-1.25-1.27-12.95-2-25.94-2.75-38.91-2.47-2-7.58-1.66-7.57,2.14,0,10.9,1.33,21.37,2.24,32.12-.67-.41-1.4-.8-2.1-1.21-1.2-12.4-2.15-24.85-2.74-37.3-2.88-1.73-6.91-1.79-7.79,2.14.6,10.24,1.64,20.45,2.62,30.66l-2.07-1.16c-1.15-11.8-3.1-24-2.78-35.83-2.72-1.79-6.46-2.16-7.74,1.49-.43,10,2,20,2.77,29.94l-2-1.18c-1-11.82-3.83-23.25-2.07-35.16-2.37-2.12-5.73-3.11-7.38.35-1.74,10-.46,19.47,1.19,29.42-.8-.56-1.59-1.15-2.39-1.72-1.88-11.86-2.29-22.77,1.26-34.35-1.59-3-4.67-3.88-6.9-1-3.69,9-4.12,18.27-3.37,27.83L92,345.57c-.51-11.58,1.49-22.45,7-32.72-1.13-3.26-3.9-4.79-6.55-2-4.39,8.24-7.52,16.56-8.15,26-.6-.78-1.17-1.56-1.71-2.38,1.43-11.4,6.71-20.74,12.09-30.67-.87-3.5-3.52-5.2-6.43-2.44-4.19,7.45-9.29,14.9-11.16,23.35a38.85,38.85,0,0,1-2-4.64c3.12-7.61,7.82-14.47,12-21.56-.65-2.61-2.75-4.15-5-2-3.07,5.5-6.29,10.9-9.5,16.31-.2-.69-.4-1.39-.61-2.08,2-5.32,3.75-10.68,5.62-16-.87-1.77-2.63-2.52-3.92-.66-1.47,4.42-2.92,8.93-4.31,13.33-3.24-2.41-7.78-6.93-10.64-8.92s-3,.93-3.19,2.33c4.61,3.82,9.06,7.51,13.72,11.15.18.71.49,1.55.6,2.19-5.13-2.26-12.55-7.1-17-8.95s-3.62,2.38-3.51,4.25c7.87,4,15.51,7.85,23.16,12.07.66,1.73,1.56,3.58,2.28,5.12-7.41-3.23-18-10.62-24.48-13.28s-4.35,4-4.19,6.29c11.48,6.13,22.46,12.21,34.44,17,.53.78,1.36,1.73,1.78,2.36-9.25-2.09-21.91-10.41-29.24-13.53s-3.23,5.57-3.28,7.18c13,6.8,26.07,13,40.48,15.32.7.66,1.65,1.55,2.19,2.09-10.75-.7-25.8-7.56-34.27-10.91s-2.06,6.53-1.91,7.87a123.1,123.1,0,0,0,45.36,10.63c.7.52,1.74,1.23,2.24,1.62-11.54.8-28.57-4.06-38-6.33s-1,6.77-.87,8a114.92,114.92,0,0,0,47.22,3.79c.59.39,1.55.91,1.92,1.22-11.37,2.62-28.94.51-38.62-.57s-.51,6.38-.28,7.77c16.09,1.75,31.29.39,46.89-2.67a19.65,19.65,0,0,1,1.91,1.14c-10.76,3.07-28.83,3.9-38.16,4.2s-.69,5.61-.15,7.14c16-.45,31.08-3.66,46.42-6.87.69.39,1.38.81,2.09,1.18-13.12,2.94-26,5-39.36,7-4.54.65-2.55,5.14.7,6.54C111.4,389,126.9,385,142.4,381.89c.7.41,1.41.85,2.11,1.24-13.36,2.86-26.77,5.42-40.15,8.22-4.35.92-2.85,4.9.32,6.35,16-2.89,31.93-6.6,47.95-9.63l2.11,1.35c-13.91,2.63-28,5.34-41.73,8.6-4.29,1-2.93,4.8.08,6.35,16.53-3.29,33-7.08,49.63-9.58l2.07,1.46c-14.53,2.39-29.28,5-43.53,8.45-4.29,1-3.05,4.79-.06,6.36,16.73-3.27,33.51-7.13,50.46-8.92l1.41,1.68a389.06,389.06,0,0,0-43.75,7.7c-4.15.93-3.37,4.75-.38,6.48,16.3-3.19,32.57-6.08,49.09-7.76.4.56.81,1.14,1.21,1.68-14.23,1.67-28.4,3.64-42.4,6.67-3.91.85-3.8,4.64-.87,6.59,15.77-3.06,31.54-5.91,47.61-6.62.51.85,1,1.73,1.43,2.61a209.18,209.18,0,0,0-39.1,4.79c-3.6.76-4.18,4.38-1.48,6.55,14.5-2.6,29.19-4.94,44-4.45l.63,1.5a162.54,162.54,0,0,0-36.49,3.07c-3.39.64-4.24,4.26-2,6.6,13.53-2.09,27.59-4.16,41.26-2.39.3.9.59,1.83.89,2.72-11.46-1.52-22.63-.58-34.09,1.07-3.26.47-4,4.44-1.9,6.71,13.09-1.09,25.57-2.51,38.62-.21.65,1.54,1.37,3,2.15,4.47Z" style="fill:#fff"></path></g><path d="M291.14,469.33c.51-1.44.92-2.91,1.36-4.37-10.87-15.5-20.07-30.19-25.87-48.4,1.41-3.15,5.39-5,6.87-.77,5.27,15,11.74,28.28,21.1,41.15.2-1.05.4-2.12.67-3.16-10.3-15-17.08-30.93-21.55-48.5,1.43-3.08,5.93-4.84,7-.64,4,14.78,8.65,28.4,16.62,41.49.22-.84.49-1.69.73-2.54a141.79,141.79,0,0,1-16.4-47.79c1.63-2.81,6.37-4.49,7.14-.35,2.64,14.23,5.73,27.8,12,40.82a25.37,25.37,0,0,1,1.05-2.32c-6.94-15.41-9.77-31.88-11.72-48.53,1.86-2.75,6.84-3.92,7.44.11,2.08,14.05,2.63,28.09,7.95,41.32.32-.63.69-1.24,1-1.87-5.42-14.67-5.93-31.36-7.22-46.79,1.95-2.65,7.07-3.5,7.55.42,1.58,13.21,1.09,26.55,4.1,39.38.38-.63.83-1.24,1.24-1.86-3-14.27-2.37-30.1-3.41-44.66,2.08-2.56,7.25-3.15,7.7.74C318,384.8,318,397,318.77,409.51c.6-.58,1.27-1.13,1.89-1.7-.57-14.2-1.11-28.44-2.11-42.6,2.16-2.49,7.3-2.82,7.74,1,1.39,11.94,1.1,23.52,1.71,35.39.62-.54,1.29-1.06,1.94-1.58-.27-13.57-.91-27.13-1.72-40.66,2.24-2.43,7.33-2.59,7.75,1.21,1.25,11.37,1.12,22.36,1.5,33.67.63-.51,1.32-1,2-1.48-.16-13-.85-26-1.54-39,2.24-2.29,7.35-2.48,7.76,1.3,1.16,10.83,1,21.38,1.3,32.17.62-.49,1.31-.95,1.95-1.43-.16-12.46-.59-24.94-1.37-37.38,2.68-2,6.67-2.54,8,1.27.53,10.24.62,20.51.77,30.77l1.93-1.39c-.16-11.85.44-24.15-1.18-35.91,2.51-2.08,6.18-2.86,7.86.63,1.53,9.91.24,20.08.53,30.06l1.83-1.39c-.35-11.85,1.25-23.53-1.8-35.17,2.12-2.37,5.35-3.72,7.37-.47,2.83,9.78,2.59,19.31,2.05,29.38l2.19-2c.56-12-.23-22.88-5-34,1.26-3.14,4.22-4.37,6.75-1.72,4.66,8.52,6.1,17.71,6.41,27.3l2-2.32c-.77-11.56-4-22.15-10.6-31.74.77-3.36,3.36-5.19,6.3-2.68,5.27,7.71,9.29,15.63,10.95,24.92.51-.84,1-1.68,1.44-2.56-2.68-11.17-8.95-19.87-15.39-29.15.48-3.58,2.93-5.56,6.13-3.14,5,6.95,10.87,13.79,13.66,22a38.63,38.63,0,0,0,1.48-4.84c-3.95-7.21-9.37-13.52-14.29-20.1.36-2.67,2.28-4.44,4.73-2.53,3.66,5.13,7.44,10.14,11.23,15.17.13-.71.25-1.43.37-2.14-2.52-5.07-4.89-10.2-7.34-15.3.67-1.86,2.34-2.8,3.83-1.09,1.94,4.23,3.88,8.56,5.75,12.77,2.95-2.74,7-7.74,9.59-10s3.06.6,3.42,2c-4.15,4.3-8.18,8.45-12.4,12.59-.11.72-.33,1.59-.36,2.23,4.85-2.8,11.69-8.42,15.94-10.76s3.85,2,3.95,3.84c-7.38,4.87-14.55,9.51-21.69,14.55-.47,1.79-1.16,3.73-1.71,5.34,7-4,16.75-12.55,22.87-15.89s4.77,3.53,4.86,5.79c-10.73,7.35-21,14.6-32.37,20.63-.44.83-1.15,1.87-1.51,2.54,9-3.09,20.64-12.76,27.58-16.66s3.82,5.17,4,6.77c-12.17,8.19-24.47,15.77-38.55,19.68-.61.74-1.46,1.72-1.94,2.32,10.61-1.88,24.82-10.36,32.87-14.61s2.76,6.26,2.75,7.61a123,123,0,0,1-43.91,15.55c-.64.6-1.59,1.41-2,1.86,11.56-.47,27.95-7.18,37-10.47s1.76,6.62,1.74,7.83a115.1,115.1,0,0,1-46.51,9c-.54.44-1.44,1.07-1.78,1.41,11.59,1.36,28.82-2.67,38.33-4.81s1.21,6.3,1.13,7.7c-15.8,3.5-31.05,3.82-46.9,2.5a19.69,19.69,0,0,0-1.77,1.34c11,1.87,29.08.7,38.38,0s1.31,5.5.94,7.08c-15.92,1.31-31.29-.22-46.89-1.73-.64.46-1.29,1-1.94,1.41,13.35,1.48,26.35,2.15,39.88,2.6,4.58.15,3.1,4.83,0,6.58-15.81,0-31.65-2.27-47.4-3.64-.66.48-1.32,1-2,1.46,13.6,1.37,27.2,2.44,40.81,3.76,4.43.43,3.38,4.56.38,6.34-16.26-1.11-32.46-3.05-48.71-4.3L329.64,404c14.12,1.09,28.41,2.24,42.42,4,4.37.54,3.44,4.45.62,6.33-16.79-1.46-33.54-3.42-50.38-4.07l-1.9,1.68c14.7.78,29.65,1.79,44.19,3.61,4.38.55,3.56,4.43.76,6.32-17-1.41-34.09-3.41-51.13-3.33L313,420.32a390.72,390.72,0,0,1,44.34,2.84c4.22.47,3.86,4.36,1.08,6.41-16.55-1.38-33-2.46-49.64-2.32l-1,1.8c14.32.1,28.63.49,42.87,2,4,.41,4.29,4.19,1.59,6.45-16-1.3-32-2.4-48-1.34-.42.9-.79,1.83-1.14,2.74a209,209,0,0,1,39.39.48c3.66.35,4.64,3.89,2.19,6.34-14.7-1-29.55-1.71-44.18.41-.15.51-.31,1-.47,1.55a163.09,163.09,0,0,1,36.62-.95c3.43.26,4.68,3.77,2.68,6.34-13.68-.59-27.89-1.1-41.28,2.16-.2.93-.38,1.89-.58,2.81,11.22-2.78,22.43-3.07,34-2.69,3.29.11,4.42,4,2.62,6.46-13.13.36-25.68.31-38.41,4-.47,1.6-1,3.13-1.64,4.68Z" style="fill:#92E3A9"></path><g style="opacity:0.30000000000000004"><path d="M291.14,469.33c.51-1.44.92-2.91,1.36-4.37-10.87-15.5-20.07-30.19-25.87-48.4,1.41-3.15,5.39-5,6.87-.77,5.27,15,11.74,28.28,21.1,41.15.2-1.05.4-2.12.67-3.16-10.3-15-17.08-30.93-21.55-48.5,1.43-3.08,5.93-4.84,7-.64,4,14.78,8.65,28.4,16.62,41.49.22-.84.49-1.69.73-2.54a141.79,141.79,0,0,1-16.4-47.79c1.63-2.81,6.37-4.49,7.14-.35,2.64,14.23,5.73,27.8,12,40.82a25.37,25.37,0,0,1,1.05-2.32c-6.94-15.41-9.77-31.88-11.72-48.53,1.86-2.75,6.84-3.92,7.44.11,2.08,14.05,2.63,28.09,7.95,41.32.32-.63.69-1.24,1-1.87-5.42-14.67-5.93-31.36-7.22-46.79,1.95-2.65,7.07-3.5,7.55.42,1.58,13.21,1.09,26.55,4.1,39.38.38-.63.83-1.24,1.24-1.86-3-14.27-2.37-30.1-3.41-44.66,2.08-2.56,7.25-3.15,7.7.74C318,384.8,318,397,318.77,409.51c.6-.58,1.27-1.13,1.89-1.7-.57-14.2-1.11-28.44-2.11-42.6,2.16-2.49,7.3-2.82,7.74,1,1.39,11.94,1.1,23.52,1.71,35.39.62-.54,1.29-1.06,1.94-1.58-.27-13.57-.91-27.13-1.72-40.66,2.24-2.43,7.33-2.59,7.75,1.21,1.25,11.37,1.12,22.36,1.5,33.67.63-.51,1.32-1,2-1.48-.16-13-.85-26-1.54-39,2.24-2.29,7.35-2.48,7.76,1.3,1.16,10.83,1,21.38,1.3,32.17.62-.49,1.31-.95,1.95-1.43-.16-12.46-.59-24.94-1.37-37.38,2.68-2,6.67-2.54,8,1.27.53,10.24.62,20.51.77,30.77l1.93-1.39c-.16-11.85.44-24.15-1.18-35.91,2.51-2.08,6.18-2.86,7.86.63,1.53,9.91.24,20.08.53,30.06l1.83-1.39c-.35-11.85,1.25-23.53-1.8-35.17,2.12-2.37,5.35-3.72,7.37-.47,2.83,9.78,2.59,19.31,2.05,29.38l2.19-2c.56-12-.23-22.88-5-34,1.26-3.14,4.22-4.37,6.75-1.72,4.66,8.52,6.1,17.71,6.41,27.3l2-2.32c-.77-11.56-4-22.15-10.6-31.74.77-3.36,3.36-5.19,6.3-2.68,5.27,7.71,9.29,15.63,10.95,24.92.51-.84,1-1.68,1.44-2.56-2.68-11.17-8.95-19.87-15.39-29.15.48-3.58,2.93-5.56,6.13-3.14,5,6.95,10.87,13.79,13.66,22a38.63,38.63,0,0,0,1.48-4.84c-3.95-7.21-9.37-13.52-14.29-20.1.36-2.67,2.28-4.44,4.73-2.53,3.66,5.13,7.44,10.14,11.23,15.17.13-.71.25-1.43.37-2.14-2.52-5.07-4.89-10.2-7.34-15.3.67-1.86,2.34-2.8,3.83-1.09,1.94,4.23,3.88,8.56,5.75,12.77,2.95-2.74,7-7.74,9.59-10s3.06.6,3.42,2c-4.15,4.3-8.18,8.45-12.4,12.59-.11.72-.33,1.59-.36,2.23,4.85-2.8,11.69-8.42,15.94-10.76s3.85,2,3.95,3.84c-7.38,4.87-14.55,9.51-21.69,14.55-.47,1.79-1.16,3.73-1.71,5.34,7-4,16.75-12.55,22.87-15.89s4.77,3.53,4.86,5.79c-10.73,7.35-21,14.6-32.37,20.63-.44.83-1.15,1.87-1.51,2.54,9-3.09,20.64-12.76,27.58-16.66s3.82,5.17,4,6.77c-12.17,8.19-24.47,15.77-38.55,19.68-.61.74-1.46,1.72-1.94,2.32,10.61-1.88,24.82-10.36,32.87-14.61s2.76,6.26,2.75,7.61a123,123,0,0,1-43.91,15.55c-.64.6-1.59,1.41-2,1.86,11.56-.47,27.95-7.18,37-10.47s1.76,6.62,1.74,7.83a115.1,115.1,0,0,1-46.51,9c-.54.44-1.44,1.07-1.78,1.41,11.59,1.36,28.82-2.67,38.33-4.81s1.21,6.3,1.13,7.7c-15.8,3.5-31.05,3.82-46.9,2.5a19.69,19.69,0,0,0-1.77,1.34c11,1.87,29.08.7,38.38,0s1.31,5.5.94,7.08c-15.92,1.31-31.29-.22-46.89-1.73-.64.46-1.29,1-1.94,1.41,13.35,1.48,26.35,2.15,39.88,2.6,4.58.15,3.1,4.83,0,6.58-15.81,0-31.65-2.27-47.4-3.64-.66.48-1.32,1-2,1.46,13.6,1.37,27.2,2.44,40.81,3.76,4.43.43,3.38,4.56.38,6.34-16.26-1.11-32.46-3.05-48.71-4.3L329.64,404c14.12,1.09,28.41,2.24,42.42,4,4.37.54,3.44,4.45.62,6.33-16.79-1.46-33.54-3.42-50.38-4.07l-1.9,1.68c14.7.78,29.65,1.79,44.19,3.61,4.38.55,3.56,4.43.76,6.32-17-1.41-34.09-3.41-51.13-3.33L313,420.32a390.72,390.72,0,0,1,44.34,2.84c4.22.47,3.86,4.36,1.08,6.41-16.55-1.38-33-2.46-49.64-2.32l-1,1.8c14.32.1,28.63.49,42.87,2,4,.41,4.29,4.19,1.59,6.45-16-1.3-32-2.4-48-1.34-.42.9-.79,1.83-1.14,2.74a209,209,0,0,1,39.39.48c3.66.35,4.64,3.89,2.19,6.34-14.7-1-29.55-1.71-44.18.41-.15.51-.31,1-.47,1.55a163.09,163.09,0,0,1,36.62-.95c3.43.26,4.68,3.77,2.68,6.34-13.68-.59-27.89-1.1-41.28,2.16-.2.93-.38,1.89-.58,2.81,11.22-2.78,22.43-3.07,34-2.69,3.29.11,4.42,4,2.62,6.46-13.13.36-25.68.31-38.41,4-.47,1.6-1,3.13-1.64,4.68Z" style="fill:#fff"></path></g><path d="M273.85,374.28c.63-1.73,1.16-3.49,1.7-5.24-12.82-18.83-23.65-36.68-30.33-58.69,1.75-3.77,6.57-5.92,8.29-.81,6.09,18.12,13.66,34.24,24.71,49.89.26-1.26.52-2.55.86-3.8-12.15-18.2-20.05-37.51-25.14-58.74,1.77-3.69,7.22-5.73,8.5-.66,4.52,17.86,9.94,34.33,19.31,50.23.29-1,.63-2,.93-3-9.62-18.17-16.26-37.38-18.95-57.81,2-3.36,7.74-5.3,8.6-.3,2.95,17.17,6.43,33.56,13.81,49.34a29.22,29.22,0,0,1,1.3-2.78c-8.1-18.66-11.23-38.54-13.3-58.61,2.28-3.29,8.29-4.61,8.95.25,2.27,16.95,2.7,33.86,8.88,49.88.39-.76.86-1.49,1.28-2.24-6.28-17.75-6.62-37.85-7.92-56.45,2.39-3.15,8.57-4.09,9.08.64,1.68,15.92.87,32,4.28,47.46.48-.75,1-1.47,1.53-2.21-3.41-17.23-2.35-36.28-3.36-53.82,2.54-3,8.77-3.67,9.24,1,1.53,15.17,1.23,29.86,2,44.93.74-.68,1.55-1.33,2.31-2-.46-17.12-.87-34.26-1.84-51.32,2.65-3,8.84-3.28,9.31,1.34,1.46,14.4.93,28.33,1.46,42.64.75-.65,1.57-1.27,2.37-1.88-.1-16.34-.65-32.67-1.4-49,2.74-2.88,8.87-3,9.31,1.59,1.32,13.71,1,26.94,1.25,40.55.76-.59,1.6-1.16,2.39-1.74,0-15.67-.6-31.33-1.21-47,2.72-2.72,8.89-2.87,9.31,1.69,1.22,13.06.88,25.76,1,38.75.75-.58,1.59-1.13,2.37-1.69,0-15-.3-30-1-45,3.26-2.4,8.07-2.94,9.58,1.66.47,12.34.41,24.7.42,37.05l2.34-1.63c0-14.28.94-29.07-.82-43.25,3.05-2.46,7.49-3.35,9.45.88,1.68,12,0,24.18.14,36.2.75-.54,1.49-1.09,2.23-1.64-.22-14.27,1.9-28.3-1.59-42.37,2.59-2.82,6.51-4.39,8.88-.44,3.25,11.82,2.81,23.28,2,35.4.9-.78,1.78-1.57,2.67-2.35.88-14.42.11-27.55-5.48-41,1.56-3.75,5.14-5.19,8.15-1.95,5.46,10.33,7.05,21.42,7.26,33l2.41-2.76c-.73-13.93-4.39-26.73-12.23-38.39,1-4,4.12-6.19,7.63-3.12,6.21,9.37,10.92,19,12.76,30.18.63-1,1.23-2,1.78-3.05-3-13.5-10.45-24.08-18-35.36.63-4.29,3.61-6.63,7.42-3.67,5.88,8.45,12.87,16.78,16.08,26.7a45.51,45.51,0,0,0,1.86-5.8c-4.62-8.75-11-16.43-16.86-24.44.48-3.2,2.82-5.3,5.74-3,4.31,6.23,8.79,12.33,13.27,18.44l.48-2.57c-2.95-6.14-5.72-12.36-8.59-18.54.85-2.22,2.87-3.32,4.63-1.25,2.27,5.13,4.53,10.37,6.71,15.48,3.6-3.26,8.51-9.21,11.71-11.92s3.67.77,4.09,2.42c-5.07,5.12-10,10.05-15.14,15-.14.88-.42,1.91-.47,2.69,5.89-3.29,14.22-10,19.36-12.69s4.61,2.43,4.69,4.69c-9,5.73-17.66,11.2-26.35,17.15-.59,2.14-1.45,4.47-2.14,6.4,8.5-4.73,20.37-14.82,27.8-18.75s5.68,4.34,5.75,7.05c-13,8.68-25.5,17.23-39.31,24.3-.54,1-1.42,2.23-1.86,3,10.84-3.57,25.05-15,33.48-19.6s4.51,6.3,4.75,8.22c-14.78,9.66-29.72,18.58-46.73,23.05-.76.88-1.79,2-2.38,2.76,12.8-2.08,30.05-12,39.81-17s3.22,7.59,3.19,9.21a148,148,0,0,1-53.13,18c-.77.71-1.93,1.67-2.49,2.2,13.93-.38,33.76-8.17,44.78-12s2,8,2,9.45a138.23,138.23,0,0,1-56.14,10c-.66.53-1.75,1.27-2.16,1.68,13.93,1.83,34.74-2.74,46.22-5.16s1.35,7.6,1.23,9.29c-19.08,3.95-37.45,4.08-56.5,2.23a22.83,22.83,0,0,0-2.15,1.58c13.25,2.44,35,1.33,46.2.61s1.49,6.65,1,8.54c-19.19,1.32-37.67-.78-56.43-2.85-.77.54-1.56,1.13-2.36,1.66,16.06,2,31.69,3,48,3.79,5.52.26,3.66,5.87-.08,7.92-19-.26-38.06-3.25-57-5.17-.8.57-1.6,1.18-2.4,1.73,16.35,1.87,32.71,3.39,49.07,5.2,5.32.59,4,5.54.36,7.64-19.56-1.6-39-4.21-58.58-6-.79.62-1.59,1.26-2.37,1.86,17,1.55,34.16,3.17,51,5.48,5.27.72,4.08,5.41.65,7.62-20.19-2-40.32-4.67-60.58-5.73l-2.31,2c17.68,1.19,35.66,2.66,53.14,5.09,5.25.73,4.21,5.39.8,7.62-20.42-2-41-4.67-61.5-4.85-.49.72-1,1.47-1.49,2.17,17.72.18,35.8,2,53.32,4.16,5.08.64,4.59,5.31,1.2,7.73-19.9-1.94-39.73-3.51-59.72-3.61l-1.26,2.15c17.25.35,34.46,1.07,51.58,3.08,4.79.56,5.1,5.12,1.8,7.8-19.24-1.84-38.47-3.43-57.81-2.42-.52,1.08-1,2.19-1.41,3.28A252.06,252.06,0,0,1,336.09,339c4.4.48,5.52,4.76,2.53,7.67-17.67-1.44-35.55-2.54-53.19-.24-.2.61-.39,1.26-.59,1.86a196.39,196.39,0,0,1,44.09-.54c4.13.37,5.57,4.62,3.13,7.68-16.46-.93-33.55-1.78-49.73,1.91-.25,1.12-.49,2.27-.75,3.37,13.55-3.15,27.05-3.31,41-2.67,4,.19,5.25,4.87,3.05,7.83-15.81.21-30.93-.05-46.3,4.22-.6,1.91-1.29,3.75-2.06,5.61Z" style="fill:#92E3A9"></path><g style="opacity:0.30000000000000004"><path d="M273.85,374.28c.63-1.73,1.16-3.49,1.7-5.24-12.82-18.83-23.65-36.68-30.33-58.69,1.75-3.77,6.57-5.92,8.29-.81,6.09,18.12,13.66,34.24,24.71,49.89.26-1.26.52-2.55.86-3.8-12.15-18.2-20.05-37.51-25.14-58.74,1.77-3.69,7.22-5.73,8.5-.66,4.52,17.86,9.94,34.33,19.31,50.23.29-1,.63-2,.93-3-9.62-18.17-16.26-37.38-18.95-57.81,2-3.36,7.74-5.3,8.6-.3,2.95,17.17,6.43,33.56,13.81,49.34a29.22,29.22,0,0,1,1.3-2.78c-8.1-18.66-11.23-38.54-13.3-58.61,2.28-3.29,8.29-4.61,8.95.25,2.27,16.95,2.7,33.86,8.88,49.88.39-.76.86-1.49,1.28-2.24-6.28-17.75-6.62-37.85-7.92-56.45,2.39-3.15,8.57-4.09,9.08.64,1.68,15.92.87,32,4.28,47.46.48-.75,1-1.47,1.53-2.21-3.41-17.23-2.35-36.28-3.36-53.82,2.54-3,8.77-3.67,9.24,1,1.53,15.17,1.23,29.86,2,44.93.74-.68,1.55-1.33,2.31-2-.46-17.12-.87-34.26-1.84-51.32,2.65-3,8.84-3.28,9.31,1.34,1.46,14.4.93,28.33,1.46,42.64.75-.65,1.57-1.27,2.37-1.88-.1-16.34-.65-32.67-1.4-49,2.74-2.88,8.87-3,9.31,1.59,1.32,13.71,1,26.94,1.25,40.55.76-.59,1.6-1.16,2.39-1.74,0-15.67-.6-31.33-1.21-47,2.72-2.72,8.89-2.87,9.31,1.69,1.22,13.06.88,25.76,1,38.75.75-.58,1.59-1.13,2.37-1.69,0-15-.3-30-1-45,3.26-2.4,8.07-2.94,9.58,1.66.47,12.34.41,24.7.42,37.05l2.34-1.63c0-14.28.94-29.07-.82-43.25,3.05-2.46,7.49-3.35,9.45.88,1.68,12,0,24.18.14,36.2.75-.54,1.49-1.09,2.23-1.64-.22-14.27,1.9-28.3-1.59-42.37,2.59-2.82,6.51-4.39,8.88-.44,3.25,11.82,2.81,23.28,2,35.4.9-.78,1.78-1.57,2.67-2.35.88-14.42.11-27.55-5.48-41,1.56-3.75,5.14-5.19,8.15-1.95,5.46,10.33,7.05,21.42,7.26,33l2.41-2.76c-.73-13.93-4.39-26.73-12.23-38.39,1-4,4.12-6.19,7.63-3.12,6.21,9.37,10.92,19,12.76,30.18.63-1,1.23-2,1.78-3.05-3-13.5-10.45-24.08-18-35.36.63-4.29,3.61-6.63,7.42-3.67,5.88,8.45,12.87,16.78,16.08,26.7a45.51,45.51,0,0,0,1.86-5.8c-4.62-8.75-11-16.43-16.86-24.44.48-3.2,2.82-5.3,5.74-3,4.31,6.23,8.79,12.33,13.27,18.44l.48-2.57c-2.95-6.14-5.72-12.36-8.59-18.54.85-2.22,2.87-3.32,4.63-1.25,2.27,5.13,4.53,10.37,6.71,15.48,3.6-3.26,8.51-9.21,11.71-11.92s3.67.77,4.09,2.42c-5.07,5.12-10,10.05-15.14,15-.14.88-.42,1.91-.47,2.69,5.89-3.29,14.22-10,19.36-12.69s4.61,2.43,4.69,4.69c-9,5.73-17.66,11.2-26.35,17.15-.59,2.14-1.45,4.47-2.14,6.4,8.5-4.73,20.37-14.82,27.8-18.75s5.68,4.34,5.75,7.05c-13,8.68-25.5,17.23-39.31,24.3-.54,1-1.42,2.23-1.86,3,10.84-3.57,25.05-15,33.48-19.6s4.51,6.3,4.75,8.22c-14.78,9.66-29.72,18.58-46.73,23.05-.76.88-1.79,2-2.38,2.76,12.8-2.08,30.05-12,39.81-17s3.22,7.59,3.19,9.21a148,148,0,0,1-53.13,18c-.77.71-1.93,1.67-2.49,2.2,13.93-.38,33.76-8.17,44.78-12s2,8,2,9.45a138.23,138.23,0,0,1-56.14,10c-.66.53-1.75,1.27-2.16,1.68,13.93,1.83,34.74-2.74,46.22-5.16s1.35,7.6,1.23,9.29c-19.08,3.95-37.45,4.08-56.5,2.23a22.83,22.83,0,0,0-2.15,1.58c13.25,2.44,35,1.33,46.2.61s1.49,6.65,1,8.54c-19.19,1.32-37.67-.78-56.43-2.85-.77.54-1.56,1.13-2.36,1.66,16.06,2,31.69,3,48,3.79,5.52.26,3.66,5.87-.08,7.92-19-.26-38.06-3.25-57-5.17-.8.57-1.6,1.18-2.4,1.73,16.35,1.87,32.71,3.39,49.07,5.2,5.32.59,4,5.54.36,7.64-19.56-1.6-39-4.21-58.58-6-.79.62-1.59,1.26-2.37,1.86,17,1.55,34.16,3.17,51,5.48,5.27.72,4.08,5.41.65,7.62-20.19-2-40.32-4.67-60.58-5.73l-2.31,2c17.68,1.19,35.66,2.66,53.14,5.09,5.25.73,4.21,5.39.8,7.62-20.42-2-41-4.67-61.5-4.85-.49.72-1,1.47-1.49,2.17,17.72.18,35.8,2,53.32,4.16,5.08.64,4.59,5.31,1.2,7.73-19.9-1.94-39.73-3.51-59.72-3.61l-1.26,2.15c17.25.35,34.46,1.07,51.58,3.08,4.79.56,5.1,5.12,1.8,7.8-19.24-1.84-38.47-3.43-57.81-2.42-.52,1.08-1,2.19-1.41,3.28A252.06,252.06,0,0,1,336.09,339c4.4.48,5.52,4.76,2.53,7.67-17.67-1.44-35.55-2.54-53.19-.24-.2.61-.39,1.26-.59,1.86a196.39,196.39,0,0,1,44.09-.54c4.13.37,5.57,4.62,3.13,7.68-16.46-.93-33.55-1.78-49.73,1.91-.25,1.12-.49,2.27-.75,3.37,13.55-3.15,27.05-3.31,41-2.67,4,.19,5.25,4.87,3.05,7.83-15.81.21-30.93-.05-46.3,4.22-.6,1.91-1.29,3.75-2.06,5.61Z" style="fill:#fff"></path></g><path d="M259,276c-.13-1.83-.15-3.66-.19-5.5,17.54-14.55,32.88-28.7,45.39-48-.64-4.11-4.68-7.51-7.74-3.07-10.87,15.73-22.6,29.12-37.55,41.11.1-1.28.21-2.6.23-3.9,16.71-14.12,29.64-30.5,40.41-49.49-.69-4-5.36-7.5-8-3-9.27,15.92-19,30.24-32.45,42.93,0-1,0-2.13-.05-3.18,14.27-14.8,26-31.42,34.2-50.31-1-3.78-6-7.24-8.17-2.67-7.59,15.69-15.47,30.47-26.92,43.59-.06-1-.32-2-.48-3,12.94-15.7,21.45-33.93,29-52.65-1.28-3.79-6.7-6.72-8.67-2.23-6.87,15.66-12,31.78-22.33,45.47-.17-.84-.42-1.67-.61-2.5,10.94-15.32,16.83-34.55,23.22-52.06-1.42-3.69-7.1-6.31-8.89-1.9-6,14.83-9.69,30.48-17.25,44.43-.25-.85-.58-1.7-.86-2.55,8-15.61,12.3-34.21,18.12-50.79-1.6-3.63-7.42-5.95-9.17-1.58-5.66,14.16-9.44,28.36-14.35,42.63-.52-.86-1.12-1.71-1.66-2.57,5.17-16.32,10.31-32.68,16-48.81-1.72-3.58-7.58-5.59-9.31-1.28-5.39,13.43-8.74,27-13.21,40.57-.54-.83-1.16-1.65-1.75-2.46,4.62-15.68,9.66-31.22,14.89-46.68-1.83-3.52-7.69-5.33-9.38-1.05-5.06,12.81-8.4,25.62-12.42,38.62-.57-.78-1.22-1.55-1.81-2.33,4.31-15.06,9.24-29.94,14.15-44.79-1.87-3.37-7.75-5.21-9.42-1-4.79,12.22-8,24.51-11.72,37-.57-.76-1.21-1.52-1.81-2.28q6.22-21.63,13.44-43c-2.46-3.21-6.94-5.07-9.66-1.06-3.87,11.73-7.23,23.63-10.65,35.49l-1.8-2.22c3.94-13.72,7.14-28.19,12.76-41.33-2.26-3.21-6.28-5.29-9.33-1.77-4.93,11-6.66,23.24-10.16,34.75l-1.68-2.19c4.16-13.66,6-27.73,13.25-40.28-1.71-3.43-5-6-8.42-2.88-6.39,10.46-9.13,21.6-11.69,33.47-.65-1-1.28-2-1.92-3,3.15-14.11,7.52-26.51,16.62-37.9-.46-4-3.51-6.42-7.3-4.13-8.1,8.41-12.7,18.63-16.09,29.67l-1.55-3.32c4.56-13.19,11.61-24.47,22.37-33.51.17-4.15-2.25-7.09-6.47-5.1-8.56,7.28-15.75,15.21-20.61,25.46-.33-1.13-.63-2.26-.87-3.42,6.66-12.13,16.7-20.25,27.12-29,.58-4.3-1.64-7.38-6.12-5.59-8,6.49-17,12.57-22.84,21.21a45.75,45.75,0,0,1-.18-6.08c6.87-7.13,15.16-12.75,23-18.83.42-3.21-1.24-5.87-4.7-4.43C189,56.61,183,61.24,177,65.87l.24-2.6c4.54-5.08,8.92-10.3,13.39-15.44-.2-2.38-1.84-4-4.1-2.48-3.6,4.3-7.23,8.71-10.73,13-2.56-4.12-5.64-11.2-8-14.7s-3.74-.26-4.6,1.21c3.46,6.32,6.82,12.41,10.42,18.55-.12.88-.14,2-.3,2.71-4.74-4.79-10.91-13.49-15.1-17.55s-5.1,1.06-5.8,3.21c7,8,13.88,15.66,20.58,23.77,0,2.23.16,4.7.28,6.74-6.86-6.9-15.47-19.87-21.52-25.7s-6.66,2.59-7.47,5.18c10.13,12,19.73,23.61,31,34.22.25,1.11.75,2.54,1,3.43-9.43-6.43-19.92-21.35-26.74-28.09s-6.08,4.8-6.85,6.58C154.25,91.29,166.14,104,181.25,113c.48,1,1.15,2.46,1.52,3.31-11.73-5.54-25.54-19.89-33.54-27.39s-5.2,6.4-5.62,8a148.07,148.07,0,0,0,46.08,32c.55.9,1.39,2.14,1.79,2.81-13.28-4.22-30.19-17.2-39.72-23.9s-4.13,7.12-4.51,8.54a138.44,138.44,0,0,0,51.19,25.16c.49.69,1.33,1.7,1.61,2.21-13.89-2.1-32.62-12.25-43-17.74s-3.39,6.92-3.75,8.58c17.24,9.08,34.85,14.28,53.68,17.77a25.59,25.59,0,0,1,1.63,2.11c-13.41-1.32-34-8.39-44.58-12.19s-3.26,6-3.33,7.93c18.07,6.57,36.41,9.67,55,12.86.6.74,1.19,1.53,1.81,2.25-16-2.51-31.29-5.85-47.14-9.62-5.38-1.28-5.14,4.63-2.12,7.63,18.36,5,37.47,7.41,56.2,10.8.61.77,1.21,1.57,1.82,2.33-16.22-2.73-32.37-5.79-48.59-8.58-5.27-.91-5.36,4.22-2.46,7.25,19.24,3.86,38.68,6.74,57.95,10.44.59.81,1.18,1.65,1.77,2.45-16.75-3.21-33.71-6.41-50.52-8.85-5.26-.76-5.41,4.07-2.74,7.15,20,3.63,40.05,6.66,59.81,11.25.56.84,1.13,1.71,1.67,2.54-17.32-3.75-35-7.31-52.47-9.81-5.25-.75-5.54,4-2.88,7.1,20.17,3.75,40.67,6.85,60.44,12.35.28.83.56,1.69.83,2.51-17.08-4.74-34.94-8-52.39-10.76-5.06-.79-5.88,3.83-3.29,7.1,19.66,3.64,39.15,7.61,58.39,13l.61,2.42c-16.67-4.43-33.41-8.51-50.41-11.31-4.76-.78-6.32,3.51-3.89,7,19,3.56,37.92,7.36,56.22,13.68.2,1.17.34,2.37.45,3.54A251.68,251.68,0,0,0,208.89,225c-4.37-.75-6.62,3-4.55,6.68,17.38,3.5,34.86,7.39,51.18,14.48,0,.64,0,1.32,0,1.95-13.44-6-27.81-9.93-42.22-12.71-4.08-.79-6.64,2.89-5.13,6.51,16.07,3.66,32.73,7.57,47.26,15.59-.07,1.15-.16,2.32-.21,3.45-12.16-6.78-25.09-10.67-38.65-13.9-3.85-.92-6.39,3.22-5.09,6.68,15.13,4.57,29.73,8.5,43.33,16.86,0,2,.2,4,.42,6C256.51,276.35,257.73,276.21,259,276Z" style="fill:#92E3A9"></path><g style="opacity:0.30000000000000004"><path d="M259,276c-.13-1.83-.15-3.66-.19-5.5,17.54-14.55,32.88-28.7,45.39-48-.64-4.11-4.68-7.51-7.74-3.07-10.87,15.73-22.6,29.12-37.55,41.11.1-1.28.21-2.6.23-3.9,16.71-14.12,29.64-30.5,40.41-49.49-.69-4-5.36-7.5-8-3-9.27,15.92-19,30.24-32.45,42.93,0-1,0-2.13-.05-3.18,14.27-14.8,26-31.42,34.2-50.31-1-3.78-6-7.24-8.17-2.67-7.59,15.69-15.47,30.47-26.92,43.59-.06-1-.32-2-.48-3,12.94-15.7,21.45-33.93,29-52.65-1.28-3.79-6.7-6.72-8.67-2.23-6.87,15.66-12,31.78-22.33,45.47-.17-.84-.42-1.67-.61-2.5,10.94-15.32,16.83-34.55,23.22-52.06-1.42-3.69-7.1-6.31-8.89-1.9-6,14.83-9.69,30.48-17.25,44.43-.25-.85-.58-1.7-.86-2.55,8-15.61,12.3-34.21,18.12-50.79-1.6-3.63-7.42-5.95-9.17-1.58-5.66,14.16-9.44,28.36-14.35,42.63-.52-.86-1.12-1.71-1.66-2.57,5.17-16.32,10.31-32.68,16-48.81-1.72-3.58-7.58-5.59-9.31-1.28-5.39,13.43-8.74,27-13.21,40.57-.54-.83-1.16-1.65-1.75-2.46,4.62-15.68,9.66-31.22,14.89-46.68-1.83-3.52-7.69-5.33-9.38-1.05-5.06,12.81-8.4,25.62-12.42,38.62-.57-.78-1.22-1.55-1.81-2.33,4.31-15.06,9.24-29.94,14.15-44.79-1.87-3.37-7.75-5.21-9.42-1-4.79,12.22-8,24.51-11.72,37-.57-.76-1.21-1.52-1.81-2.28q6.22-21.63,13.44-43c-2.46-3.21-6.94-5.07-9.66-1.06-3.87,11.73-7.23,23.63-10.65,35.49l-1.8-2.22c3.94-13.72,7.14-28.19,12.76-41.33-2.26-3.21-6.28-5.29-9.33-1.77-4.93,11-6.66,23.24-10.16,34.75l-1.68-2.19c4.16-13.66,6-27.73,13.25-40.28-1.71-3.43-5-6-8.42-2.88-6.39,10.46-9.13,21.6-11.69,33.47-.65-1-1.28-2-1.92-3,3.15-14.11,7.52-26.51,16.62-37.9-.46-4-3.51-6.42-7.3-4.13-8.1,8.41-12.7,18.63-16.09,29.67l-1.55-3.32c4.56-13.19,11.61-24.47,22.37-33.51.17-4.15-2.25-7.09-6.47-5.1-8.56,7.28-15.75,15.21-20.61,25.46-.33-1.13-.63-2.26-.87-3.42,6.66-12.13,16.7-20.25,27.12-29,.58-4.3-1.64-7.38-6.12-5.59-8,6.49-17,12.57-22.84,21.21a45.75,45.75,0,0,1-.18-6.08c6.87-7.13,15.16-12.75,23-18.83.42-3.21-1.24-5.87-4.7-4.43C189,56.61,183,61.24,177,65.87l.24-2.6c4.54-5.08,8.92-10.3,13.39-15.44-.2-2.38-1.84-4-4.1-2.48-3.6,4.3-7.23,8.71-10.73,13-2.56-4.12-5.64-11.2-8-14.7s-3.74-.26-4.6,1.21c3.46,6.32,6.82,12.41,10.42,18.55-.12.88-.14,2-.3,2.71-4.74-4.79-10.91-13.49-15.1-17.55s-5.1,1.06-5.8,3.21c7,8,13.88,15.66,20.58,23.77,0,2.23.16,4.7.28,6.74-6.86-6.9-15.47-19.87-21.52-25.7s-6.66,2.59-7.47,5.18c10.13,12,19.73,23.61,31,34.22.25,1.11.75,2.54,1,3.43-9.43-6.43-19.92-21.35-26.74-28.09s-6.08,4.8-6.85,6.58C154.25,91.29,166.14,104,181.25,113c.48,1,1.15,2.46,1.52,3.31-11.73-5.54-25.54-19.89-33.54-27.39s-5.2,6.4-5.62,8a148.07,148.07,0,0,0,46.08,32c.55.9,1.39,2.14,1.79,2.81-13.28-4.22-30.19-17.2-39.72-23.9s-4.13,7.12-4.51,8.54a138.44,138.44,0,0,0,51.19,25.16c.49.69,1.33,1.7,1.61,2.21-13.89-2.1-32.62-12.25-43-17.74s-3.39,6.92-3.75,8.58c17.24,9.08,34.85,14.28,53.68,17.77a25.59,25.59,0,0,1,1.63,2.11c-13.41-1.32-34-8.39-44.58-12.19s-3.26,6-3.33,7.93c18.07,6.57,36.41,9.67,55,12.86.6.74,1.19,1.53,1.81,2.25-16-2.51-31.29-5.85-47.14-9.62-5.38-1.28-5.14,4.63-2.12,7.63,18.36,5,37.47,7.41,56.2,10.8.61.77,1.21,1.57,1.82,2.33-16.22-2.73-32.37-5.79-48.59-8.58-5.27-.91-5.36,4.22-2.46,7.25,19.24,3.86,38.68,6.74,57.95,10.44.59.81,1.18,1.65,1.77,2.45-16.75-3.21-33.71-6.41-50.52-8.85-5.26-.76-5.41,4.07-2.74,7.15,20,3.63,40.05,6.66,59.81,11.25.56.84,1.13,1.71,1.67,2.54-17.32-3.75-35-7.31-52.47-9.81-5.25-.75-5.54,4-2.88,7.1,20.17,3.75,40.67,6.85,60.44,12.35.28.83.56,1.69.83,2.51-17.08-4.74-34.94-8-52.39-10.76-5.06-.79-5.88,3.83-3.29,7.1,19.66,3.64,39.15,7.61,58.39,13l.61,2.42c-16.67-4.43-33.41-8.51-50.41-11.31-4.76-.78-6.32,3.51-3.89,7,19,3.56,37.92,7.36,56.22,13.68.2,1.17.34,2.37.45,3.54A251.68,251.68,0,0,0,208.89,225c-4.37-.75-6.62,3-4.55,6.68,17.38,3.5,34.86,7.39,51.18,14.48,0,.64,0,1.32,0,1.95-13.44-6-27.81-9.93-42.22-12.71-4.08-.79-6.64,2.89-5.13,6.51,16.07,3.66,32.73,7.57,47.26,15.59-.07,1.15-.16,2.32-.21,3.45-12.16-6.78-25.09-10.67-38.65-13.9-3.85-.92-6.39,3.22-5.09,6.68,15.13,4.57,29.73,8.5,43.33,16.86,0,2,.2,4,.42,6C256.51,276.35,257.73,276.21,259,276Z" style="fill:#fff"></path></g><path d="M213.51,248.93c1.54-1,3.13-1.9,4.72-2.83,21.22,8.29,41,14.86,64,16.45,3.28-2.55,4.3-7.73-1.06-8.26-19-1.88-36.43-5.66-54.15-12.93,1.17-.53,2.37-1.08,3.51-1.69,20.45,7.77,41,11.15,62.87,11.37,3.2-2.55,4-8.32-1.26-8.43-18.42-.41-35.68-2-53.27-7.6.92-.5,1.83-1.06,2.75-1.58,19.86,5.31,40.07,7.49,60.58,5.55,2.83-2.71,3.44-8.73-1.62-8.45-17.4,1-34.16,1.23-51.18-2.43a29,29,0,0,0,2.41-1.89c20,3.72,40.08,2.33,60.11-.14,2.69-2.95,2.63-9.11-2.25-8.66-17,1.57-33.61,4.93-50.6,2.49.65-.56,1.26-1.17,1.89-1.75,18.71,2.16,38.38-2,56.79-4.9,2.54-3,2.08-9.27-2.64-8.7-15.9,1.91-31.36,6.29-47.22,6.43.62-.63,1.2-1.33,1.8-2,17.56-.52,35.9-5.81,53.22-8.75,2.4-3.16,1.61-9.37-3.06-8.78-15.13,1.9-29.38,5.48-44.25,8.09.51-.87,1-1.8,1.45-2.7,16.78-3.37,33.58-6.81,50.43-9.67,2.3-3.24,1.22-9.35-3.39-8.78-14.36,1.8-27.83,5.43-41.89,8.11.46-.88.88-1.82,1.3-2.73,16-3.55,32-6.67,48.05-9.59,2.2-3.3.94-9.3-3.62-8.71-13.66,1.78-26.48,5.06-39.81,7.84.41-.87.77-1.81,1.17-2.71,15.26-3.52,30.66-6.42,46-9.32,2-3.26.8-9.3-3.73-8.7-13,1.73-25.31,4.9-38,7.65.39-.86.74-1.8,1.11-2.69,14.63-3.36,29.34-6.42,44.11-9.05,1.62-3.72,1.07-8.53-3.75-9-12.14,2.3-24.17,5.12-36.21,7.87.35-.88.71-1.76,1.07-2.64,13.91-3.2,28.12-7.42,42.34-8.87,1.71-3.53,1.58-8-3-9-12,1-23.55,5.44-35.32,8l1.11-2.54c14-3,27.16-8.18,41.65-7.92,2.17-3.16,2.83-7.33-1.56-8.76-12.24-.52-23.31,2.47-34.94,6,.55-1,1.13-2.08,1.69-3.12,13.86-4.09,26.83-6.27,41.2-3.83,3.32-2.36,3.92-6.17.08-8.38-11.29-3-22.45-2.08-33.75.3l2.15-3c13.75-2.4,27-1.7,40.15,3.34,3.71-1.86,5.12-5.41,1.34-8.13-10.52-4-20.94-6.41-32.27-5.7.83-.84,1.68-1.64,2.58-2.42,13.83-.05,25.8,4.81,38.49,9.69,4-1.58,5.66-5,1.92-8.06-9.55-3.84-19.23-8.79-29.62-9.71a47.53,47.53,0,0,1,5.24-3.11c9.56,2.56,18.49,7.1,27.59,11,3-1.18,4.53-3.93,1.6-6.26-7-2.81-14-5.81-20.94-8.81l2.4-1c6.64,1.51,13.32,2.81,20,4.22,2-1.32,2.6-3.53.18-4.78-5.51-1.07-11.12-2.11-16.58-3.09,2.37-4.23,7.07-10.35,9-14.07s-1.58-3.41-3.28-3.45c-3.85,6.09-7.56,12-11.19,18.1-.82.33-1.77.83-2.51,1,1.9-6.47,6.52-16.07,8-21.7s-3.4-4-5.62-3.53c-3.58,10-7,19.73-10.82,29.52-2,1.06-4,2.42-5.76,3.52,2.71-9.35,9.89-23.16,12.06-31.29s-5.5-4.57-8.16-4c-5.54,14.65-11.09,28.7-14.9,43.74-.84.75-1.86,1.89-2.54,2.49,1.06-11.36,9-27.77,11.63-37s-7.15-3-9.08-2.79c-6.11,16.56-11.47,33.12-12,50.7-.69.93-1.6,2.2-2.16,2.93-.83-12.94,5-32,7.71-42.61s-8.11-1.44-9.69-1A148.13,148.13,0,0,0,308.7,117c-.51.92-1.19,2.26-1.59,2.93-2.74-13.66.42-34.74,1.67-46.33s-8.23-.16-9.65.2a138.27,138.27,0,0,0,2.79,57c-.38.77-.85,2-1.16,2.49-4.9-13.17-5.09-34.48-5.3-46.21s-7.71.39-9.33.88c.41,19.48,4.39,37.41,10.46,55.57a25.46,25.46,0,0,1-1.06,2.45c-5.34-12.37-9.13-33.81-10.93-44.9s-6.81,0-8.55.92c3,19,9.18,36.54,15.4,54.35-.36.89-.76,1.78-1.09,2.68-5.55-15.2-10-30.21-14.42-45.91-1.49-5.32-6.54-2.25-7.71,1.85,4.51,18.49,11.68,36.37,17.79,54.4-.38.9-.8,1.82-1.16,2.72-5.47-15.52-10.62-31.13-16-46.67-1.76-5-6.29-2.64-7.52,1.37,5.94,18.7,12.83,37.09,18.93,55.75-.42.9-.87,1.83-1.28,2.73-5.31-16.2-10.72-32.59-16.74-48.48-1.88-5-6.18-2.76-7.58,1.07,6.5,19.22,13.57,38.26,19.13,57.77-.46.89-.95,1.82-1.41,2.69-5.11-17-10.56-34.16-16.84-50.66-1.88-5-6.19-2.89-7.6.93,6.49,19.46,13.71,38.9,18.47,58.85l-1.79,1.95c-4.13-17.24-9.91-34.46-16-51-1.76-4.81-6.2-3.28-7.8.56,6.34,19,12.3,37.94,16.87,57.4L255.88,218c-4.21-16.73-8.75-33.35-14.54-49.59-1.61-4.54-6.12-3.82-8,0,6.1,18.35,11.94,36.74,15.28,55.81-.93.74-1.91,1.44-2.89,2.11a251.1,251.1,0,0,0-11.79-45.94c-1.46-4.18-5.87-4.31-8-.74,5.36,16.9,10.42,34.07,12.13,51.78l-1.69,1a196,196,0,0,0-9.33-43.1c-1.28-3.94-5.75-4.39-8.18-1.33,4.59,15.84,9.23,32.31,9.25,48.9-1,.5-2.1,1-3.12,1.49,0-13.92-2.81-27.11-6.56-40.54-1.06-3.82-5.91-4-8.3-1.22,3.33,15.45,7,30.13,6.23,46.07-1.73,1-3.37,2.09-5,3.26Z" style="fill:#92E3A9"></path><g style="opacity:0.30000000000000004"><path d="M213.51,248.93c1.54-1,3.13-1.9,4.72-2.83,21.22,8.29,41,14.86,64,16.45,3.28-2.55,4.3-7.73-1.06-8.26-19-1.88-36.43-5.66-54.15-12.93,1.17-.53,2.37-1.08,3.51-1.69,20.45,7.77,41,11.15,62.87,11.37,3.2-2.55,4-8.32-1.26-8.43-18.42-.41-35.68-2-53.27-7.6.92-.5,1.83-1.06,2.75-1.58,19.86,5.31,40.07,7.49,60.58,5.55,2.83-2.71,3.44-8.73-1.62-8.45-17.4,1-34.16,1.23-51.18-2.43a29,29,0,0,0,2.41-1.89c20,3.72,40.08,2.33,60.11-.14,2.69-2.95,2.63-9.11-2.25-8.66-17,1.57-33.61,4.93-50.6,2.49.65-.56,1.26-1.17,1.89-1.75,18.71,2.16,38.38-2,56.79-4.9,2.54-3,2.08-9.27-2.64-8.7-15.9,1.91-31.36,6.29-47.22,6.43.62-.63,1.2-1.33,1.8-2,17.56-.52,35.9-5.81,53.22-8.75,2.4-3.16,1.61-9.37-3.06-8.78-15.13,1.9-29.38,5.48-44.25,8.09.51-.87,1-1.8,1.45-2.7,16.78-3.37,33.58-6.81,50.43-9.67,2.3-3.24,1.22-9.35-3.39-8.78-14.36,1.8-27.83,5.43-41.89,8.11.46-.88.88-1.82,1.3-2.73,16-3.55,32-6.67,48.05-9.59,2.2-3.3.94-9.3-3.62-8.71-13.66,1.78-26.48,5.06-39.81,7.84.41-.87.77-1.81,1.17-2.71,15.26-3.52,30.66-6.42,46-9.32,2-3.26.8-9.3-3.73-8.7-13,1.73-25.31,4.9-38,7.65.39-.86.74-1.8,1.11-2.69,14.63-3.36,29.34-6.42,44.11-9.05,1.62-3.72,1.07-8.53-3.75-9-12.14,2.3-24.17,5.12-36.21,7.87.35-.88.71-1.76,1.07-2.64,13.91-3.2,28.12-7.42,42.34-8.87,1.71-3.53,1.58-8-3-9-12,1-23.55,5.44-35.32,8l1.11-2.54c14-3,27.16-8.18,41.65-7.92,2.17-3.16,2.83-7.33-1.56-8.76-12.24-.52-23.31,2.47-34.94,6,.55-1,1.13-2.08,1.69-3.12,13.86-4.09,26.83-6.27,41.2-3.83,3.32-2.36,3.92-6.17.08-8.38-11.29-3-22.45-2.08-33.75.3l2.15-3c13.75-2.4,27-1.7,40.15,3.34,3.71-1.86,5.12-5.41,1.34-8.13-10.52-4-20.94-6.41-32.27-5.7.83-.84,1.68-1.64,2.58-2.42,13.83-.05,25.8,4.81,38.49,9.69,4-1.58,5.66-5,1.92-8.06-9.55-3.84-19.23-8.79-29.62-9.71a47.53,47.53,0,0,1,5.24-3.11c9.56,2.56,18.49,7.1,27.59,11,3-1.18,4.53-3.93,1.6-6.26-7-2.81-14-5.81-20.94-8.81l2.4-1c6.64,1.51,13.32,2.81,20,4.22,2-1.32,2.6-3.53.18-4.78-5.51-1.07-11.12-2.11-16.58-3.09,2.37-4.23,7.07-10.35,9-14.07s-1.58-3.41-3.28-3.45c-3.85,6.09-7.56,12-11.19,18.1-.82.33-1.77.83-2.51,1,1.9-6.47,6.52-16.07,8-21.7s-3.4-4-5.62-3.53c-3.58,10-7,19.73-10.82,29.52-2,1.06-4,2.42-5.76,3.52,2.71-9.35,9.89-23.16,12.06-31.29s-5.5-4.57-8.16-4c-5.54,14.65-11.09,28.7-14.9,43.74-.84.75-1.86,1.89-2.54,2.49,1.06-11.36,9-27.77,11.63-37s-7.15-3-9.08-2.79c-6.11,16.56-11.47,33.12-12,50.7-.69.93-1.6,2.2-2.16,2.93-.83-12.94,5-32,7.71-42.61s-8.11-1.44-9.69-1A148.13,148.13,0,0,0,308.7,117c-.51.92-1.19,2.26-1.59,2.93-2.74-13.66.42-34.74,1.67-46.33s-8.23-.16-9.65.2a138.27,138.27,0,0,0,2.79,57c-.38.77-.85,2-1.16,2.49-4.9-13.17-5.09-34.48-5.3-46.21s-7.71.39-9.33.88c.41,19.48,4.39,37.41,10.46,55.57a25.46,25.46,0,0,1-1.06,2.45c-5.34-12.37-9.13-33.81-10.93-44.9s-6.81,0-8.55.92c3,19,9.18,36.54,15.4,54.35-.36.89-.76,1.78-1.09,2.68-5.55-15.2-10-30.21-14.42-45.91-1.49-5.32-6.54-2.25-7.71,1.85,4.51,18.49,11.68,36.37,17.79,54.4-.38.9-.8,1.82-1.16,2.72-5.47-15.52-10.62-31.13-16-46.67-1.76-5-6.29-2.64-7.52,1.37,5.94,18.7,12.83,37.09,18.93,55.75-.42.9-.87,1.83-1.28,2.73-5.31-16.2-10.72-32.59-16.74-48.48-1.88-5-6.18-2.76-7.58,1.07,6.5,19.22,13.57,38.26,19.13,57.77-.46.89-.95,1.82-1.41,2.69-5.11-17-10.56-34.16-16.84-50.66-1.88-5-6.19-2.89-7.6.93,6.49,19.46,13.71,38.9,18.47,58.85l-1.79,1.95c-4.13-17.24-9.91-34.46-16-51-1.76-4.81-6.2-3.28-7.8.56,6.34,19,12.3,37.94,16.87,57.4L255.88,218c-4.21-16.73-8.75-33.35-14.54-49.59-1.61-4.54-6.12-3.82-8,0,6.1,18.35,11.94,36.74,15.28,55.81-.93.74-1.91,1.44-2.89,2.11a251.1,251.1,0,0,0-11.79-45.94c-1.46-4.18-5.87-4.31-8-.74,5.36,16.9,10.42,34.07,12.13,51.78l-1.69,1a196,196,0,0,0-9.33-43.1c-1.28-3.94-5.75-4.39-8.18-1.33,4.59,15.84,9.23,32.31,9.25,48.9-1,.5-2.1,1-3.12,1.49,0-13.92-2.81-27.11-6.56-40.54-1.06-3.82-5.91-4-8.3-1.22,3.33,15.45,7,30.13,6.23,46.07-1.73,1-3.37,2.09-5,3.26Z" style="fill:#fff"></path></g><path d="M242.54,362.21c-.85-1.62-1.6-3.3-2.37-5,10.29-20.33,18.71-39.43,22.49-62.12-2.22-3.51-7.28-5-8.32.27-3.7,18.76-9.12,35.72-18.06,52.66-.41-1.21-.84-2.46-1.34-3.66,9.7-19.61,15-39.78,17.34-61.49-2.24-3.43-7.91-4.74-8.52.45-2.17,18.29-5.41,35.33-12.66,52.3-.41-1-.88-1.93-1.31-2.9C237,313.5,241.08,293.59,241.11,273c-2.43-3.07-8.36-4.25-8.57.82-.7,17.41-2,34.11-7.31,50.71a30.61,30.61,0,0,0-1.65-2.59c5.62-19.55,6.15-39.67,5.61-59.84-2.68-3-8.82-3.49-8.84,1.41-.06,17.1,1.7,33.92-2.36,50.61-.49-.7-1-1.37-1.55-2.06,3.93-18.41,1.67-38.39.54-57-2.77-2.81-9-2.95-8.91,1.81.38,16,3.27,31.81,1.89,47.62-.57-.68-1.21-1.33-1.81-2,1.16-17.53-2.35-36.29-3.62-53.82-2.91-2.68-9.17-2.49-9,2.21.45,15.25,2.65,29.78,3.83,44.82-.82-.58-1.7-1.12-2.55-1.69-1.75-17-3.56-34.08-4.81-51.13-3-2.6-9.18-2.11-9.05,2.53.41,14.47,2.74,28.22,4.06,42.47-.83-.54-1.72-1.05-2.59-1.55-2-16.22-3.58-32.48-4.95-48.75-3.08-2.5-9.17-1.82-9,2.78.46,13.76,2.51,26.84,4,40.37-.83-.49-1.74-.94-2.59-1.42-2-15.53-3.46-31.14-4.87-46.71-3.06-2.35-9.19-1.69-9,2.88.48,13.11,2.46,25.66,4,38.56-.82-.47-1.72-.91-2.57-1.37-1.94-14.88-3.58-29.82-4.8-44.77-3.54-2-8.38-1.88-9.28,2.88,1.12,12.3,2.79,24.55,4.38,36.79l-2.54-1.31c-1.85-14.16-4.69-28.7-4.78-43-3.35-2-7.86-2.34-9.25,2.1-.12,12.08,3.16,24,4.53,35.92l-2.42-1.34c-1.62-14.18-5.54-27.82-3.9-42.23-2.93-2.45-7-3.51-8.86.72-1.7,12.14.22,23.45,2.61,35.36-1-.65-2-1.32-3-2-2.74-14.19-3.67-27.31.13-41.39-2-3.52-5.77-4.48-8.33-.88-4.08,10.95-4.22,22.15-2.94,33.63l-2.74-2.42c-1.08-13.91.89-27.07,7.16-39.65-1.5-3.87-4.89-5.61-8-2.11-5,10.09-8.38,20.23-8.75,31.58-.76-.91-1.48-1.84-2.16-2.8,1.27-13.78,7.25-25.22,13.32-37.39-1.19-4.17-4.44-6.11-7.84-2.68-4.74,9.13-10.58,18.3-12.49,28.55a46.18,46.18,0,0,1-2.6-5.51c3.46-9.27,8.83-17.72,13.57-26.42-.89-3.11-3.48-4.88-6.08-2.19-3.47,6.74-7.12,13.37-10.77,20l-.81-2.49c2.13-6.47,4.07-13,6.12-19.49-1.13-2.1-3.27-2.93-4.75-.65-1.59,5.38-3.16,10.87-4.66,16.22-4-2.76-9.63-8-13.15-10.31s-3.54,1.25-3.74,2.94c5.69,4.41,11.2,8.67,16.95,12.86.25.85.65,1.84.8,2.61-6.25-2.51-15.38-8-20.84-10.09s-4.25,3-4,5.26c9.63,4.53,19,8.83,28.35,13.6.87,2,2,4.25,3,6.07-9-3.59-22.11-12.06-30-15s-5.07,5-4.79,7.74c14.06,6.91,27.52,13.78,42.12,19,.67.91,1.7,2,2.24,2.77C85.14,231,69.56,221.53,60.62,218.07S57,224.9,57,226.84c15.91,7.66,31.87,14.58,49.32,16.81.86.77,2,1.8,2.71,2.43-13-.41-31.35-8.07-41.68-11.76s-2.21,8-2,9.55a147.94,147.94,0,0,0,55,11c.86.6,2.13,1.41,2.76,1.87-13.87,1.42-34.54-3.75-46-6.1s-1,8.18-.72,9.63a138.28,138.28,0,0,0,57,2.67c.73.45,1.9,1,2.37,1.39-13.58,3.62-34.81,1.77-46.51.86s-.35,7.71,0,9.37c19.44,1.45,37.67-.79,56.32-5.1.71.42,1.9.92,2.34,1.29-12.82,4.13-34.53,5.85-45.74,6.59s-.61,6.78.1,8.6c19.19-1.18,37.25-5.65,55.58-10.13.84.44,1.7.92,2.56,1.34-15.67,4.06-31,7.1-47.08,10-5.44,1-2.87,6.29,1.1,7.85,18.84-2.72,37.32-8.15,55.85-12.5.87.46,1.74,1,2.6,1.41-16,4-32,7.59-48,11.5-5.19,1.27-3.23,6,.64,7.62,19.19-4.12,38.15-9.22,57.31-13.51.86.5,1.74,1,2.59,1.54-16.63,3.73-33.46,7.55-49.86,12-5.12,1.4-3.34,5.89.35,7.64,19.75-4.62,39.38-9.84,59.33-13.51l2.55,1.66c-17.39,3.47-35,7.24-52,11.92-5.12,1.4-3.48,5.89.19,7.66,20-4.61,40-9.93,60.35-12.76l1.77,2c-17.55,2.47-35.25,6.57-52.34,11-5,1.29-3.86,5.86-.19,7.82,19.48-4.5,38.94-8.62,58.75-11.31l1.53,2c-17.06,2.59-34,5.52-50.75,9.73-4.68,1.17-4.39,5.73-.78,8,18.85-4.31,37.71-8.37,57-9.87.66,1,1.26,2,1.83,3.07a251.75,251.75,0,0,0-46.86,7.35c-4.3,1.05-4.85,5.43-1.51,7.93,17.34-3.71,34.92-7.12,52.71-7.11.27.58.55,1.2.83,1.77-14.71-.11-29.46,2-43.8,5.16-4,.9-4.92,5.3-2.1,8,16.2-3,33-6.1,49.56-4.53.39,1.07.78,2.19,1.18,3.24-13.85-1.37-27.26.21-41,2.65-3.9.7-4.57,5.51-2,8.16,15.71-1.84,30.66-4.05,46.46-1.8.84,1.82,1.77,3.55,2.77,5.29C240.42,363.47,241.48,362.85,242.54,362.21Z" style="fill:#92E3A9"></path><g style="opacity:0.30000000000000004"><path d="M242.54,362.21c-.85-1.62-1.6-3.3-2.37-5,10.29-20.33,18.71-39.43,22.49-62.12-2.22-3.51-7.28-5-8.32.27-3.7,18.76-9.12,35.72-18.06,52.66-.41-1.21-.84-2.46-1.34-3.66,9.7-19.61,15-39.78,17.34-61.49-2.24-3.43-7.91-4.74-8.52.45-2.17,18.29-5.41,35.33-12.66,52.3-.41-1-.88-1.93-1.31-2.9C237,313.5,241.08,293.59,241.11,273c-2.43-3.07-8.36-4.25-8.57.82-.7,17.41-2,34.11-7.31,50.71a30.61,30.61,0,0,0-1.65-2.59c5.62-19.55,6.15-39.67,5.61-59.84-2.68-3-8.82-3.49-8.84,1.41-.06,17.1,1.7,33.92-2.36,50.61-.49-.7-1-1.37-1.55-2.06,3.93-18.41,1.67-38.39.54-57-2.77-2.81-9-2.95-8.91,1.81.38,16,3.27,31.81,1.89,47.62-.57-.68-1.21-1.33-1.81-2,1.16-17.53-2.35-36.29-3.62-53.82-2.91-2.68-9.17-2.49-9,2.21.45,15.25,2.65,29.78,3.83,44.82-.82-.58-1.7-1.12-2.55-1.69-1.75-17-3.56-34.08-4.81-51.13-3-2.6-9.18-2.11-9.05,2.53.41,14.47,2.74,28.22,4.06,42.47-.83-.54-1.72-1.05-2.59-1.55-2-16.22-3.58-32.48-4.95-48.75-3.08-2.5-9.17-1.82-9,2.78.46,13.76,2.51,26.84,4,40.37-.83-.49-1.74-.94-2.59-1.42-2-15.53-3.46-31.14-4.87-46.71-3.06-2.35-9.19-1.69-9,2.88.48,13.11,2.46,25.66,4,38.56-.82-.47-1.72-.91-2.57-1.37-1.94-14.88-3.58-29.82-4.8-44.77-3.54-2-8.38-1.88-9.28,2.88,1.12,12.3,2.79,24.55,4.38,36.79l-2.54-1.31c-1.85-14.16-4.69-28.7-4.78-43-3.35-2-7.86-2.34-9.25,2.1-.12,12.08,3.16,24,4.53,35.92l-2.42-1.34c-1.62-14.18-5.54-27.82-3.9-42.23-2.93-2.45-7-3.51-8.86.72-1.7,12.14.22,23.45,2.61,35.36-1-.65-2-1.32-3-2-2.74-14.19-3.67-27.31.13-41.39-2-3.52-5.77-4.48-8.33-.88-4.08,10.95-4.22,22.15-2.94,33.63l-2.74-2.42c-1.08-13.91.89-27.07,7.16-39.65-1.5-3.87-4.89-5.61-8-2.11-5,10.09-8.38,20.23-8.75,31.58-.76-.91-1.48-1.84-2.16-2.8,1.27-13.78,7.25-25.22,13.32-37.39-1.19-4.17-4.44-6.11-7.84-2.68-4.74,9.13-10.58,18.3-12.49,28.55a46.18,46.18,0,0,1-2.6-5.51c3.46-9.27,8.83-17.72,13.57-26.42-.89-3.11-3.48-4.88-6.08-2.19-3.47,6.74-7.12,13.37-10.77,20l-.81-2.49c2.13-6.47,4.07-13,6.12-19.49-1.13-2.1-3.27-2.93-4.75-.65-1.59,5.38-3.16,10.87-4.66,16.22-4-2.76-9.63-8-13.15-10.31s-3.54,1.25-3.74,2.94c5.69,4.41,11.2,8.67,16.95,12.86.25.85.65,1.84.8,2.61-6.25-2.51-15.38-8-20.84-10.09s-4.25,3-4,5.26c9.63,4.53,19,8.83,28.35,13.6.87,2,2,4.25,3,6.07-9-3.59-22.11-12.06-30-15s-5.07,5-4.79,7.74c14.06,6.91,27.52,13.78,42.12,19,.67.91,1.7,2,2.24,2.77C85.14,231,69.56,221.53,60.62,218.07S57,224.9,57,226.84c15.91,7.66,31.87,14.58,49.32,16.81.86.77,2,1.8,2.71,2.43-13-.41-31.35-8.07-41.68-11.76s-2.21,8-2,9.55a147.94,147.94,0,0,0,55,11c.86.6,2.13,1.41,2.76,1.87-13.87,1.42-34.54-3.75-46-6.1s-1,8.18-.72,9.63a138.28,138.28,0,0,0,57,2.67c.73.45,1.9,1,2.37,1.39-13.58,3.62-34.81,1.77-46.51.86s-.35,7.71,0,9.37c19.44,1.45,37.67-.79,56.32-5.1.71.42,1.9.92,2.34,1.29-12.82,4.13-34.53,5.85-45.74,6.59s-.61,6.78.1,8.6c19.19-1.18,37.25-5.65,55.58-10.13.84.44,1.7.92,2.56,1.34-15.67,4.06-31,7.1-47.08,10-5.44,1-2.87,6.29,1.1,7.85,18.84-2.72,37.32-8.15,55.85-12.5.87.46,1.74,1,2.6,1.41-16,4-32,7.59-48,11.5-5.19,1.27-3.23,6,.64,7.62,19.19-4.12,38.15-9.22,57.31-13.51.86.5,1.74,1,2.59,1.54-16.63,3.73-33.46,7.55-49.86,12-5.12,1.4-3.34,5.89.35,7.64,19.75-4.62,39.38-9.84,59.33-13.51l2.55,1.66c-17.39,3.47-35,7.24-52,11.92-5.12,1.4-3.48,5.89.19,7.66,20-4.61,40-9.93,60.35-12.76l1.77,2c-17.55,2.47-35.25,6.57-52.34,11-5,1.29-3.86,5.86-.19,7.82,19.48-4.5,38.94-8.62,58.75-11.31l1.53,2c-17.06,2.59-34,5.52-50.75,9.73-4.68,1.17-4.39,5.73-.78,8,18.85-4.31,37.71-8.37,57-9.87.66,1,1.26,2,1.83,3.07a251.75,251.75,0,0,0-46.86,7.35c-4.3,1.05-4.85,5.43-1.51,7.93,17.34-3.71,34.92-7.12,52.71-7.11.27.58.55,1.2.83,1.77-14.71-.11-29.46,2-43.8,5.16-4,.9-4.92,5.3-2.1,8,16.2-3,33-6.1,49.56-4.53.39,1.07.78,2.19,1.18,3.24-13.85-1.37-27.26.21-41,2.65-3.9.7-4.57,5.51-2,8.16,15.71-1.84,30.66-4.05,46.46-1.8.84,1.82,1.77,3.55,2.77,5.29C240.42,363.47,241.48,362.85,242.54,362.21Z" style="fill:#fff"></path></g></g><g id="Character"><path d="M281.87,178.09s-.42-14.7,28.13-33.59,44.93-21.84,63.41-40.32,20.16-32.75,23.51-22.67-4.61,32.33-13,43.25-30.66,24.36-30.66,24.36,23.1-5.46,31.5-10.08,12.17-8.4,11.75,0-11.33,23.09-27.29,30.65a237.58,237.58,0,0,0-27.29,15.12,88.36,88.36,0,0,0,19.31-3.36c9.66-2.94,15.54-2.94,10.5,5.46s-16.38,13-28.14,18.48c-6.76,3.14-15.17,6.53-20.75,11.41,10.44,4,18-8.07,27.67-6.54,3.71.58,1.44,5.51.42,7.31-12.87,22.68-48.05,29.7-67,10.77-7.84-7.83-14.08-19.55-13-30.93C272.63,180.19,281.87,178.09,281.87,178.09Z" style="fill:#fff;stroke:#263238;stroke-linecap:round;stroke-linejoin:round"></path><path d="M327.84,236.38c-15.47-12.23-33-39.63-33-39.63l-13.36-18.54c-1.76.61-9.06,4.07-10.54,19.2-1.11,11.38,5.13,23.1,13,30.93C295.45,239.85,313,241.75,327.84,236.38Z" style="fill:#263238;stroke:#263238;stroke-linecap:round;stroke-linejoin:round"></path><path d="M220,178.09s.42-14.7-28.13-33.59S147,122.66,128.48,104.18,108.32,71.43,105,81.51s4.62,32.33,13,43.25,30.65,24.36,30.65,24.36-23.09-5.46-31.49-10.08-12.18-8.4-11.76,0,11.34,23.09,27.3,30.65A238.66,238.66,0,0,1,160,184.81a88.27,88.27,0,0,1-19.31-3.36c-9.66-2.94-15.54-2.94-10.5,5.46s16.38,13,28.14,18.48c6.76,3.14,15.17,6.53,20.75,11.41-10.45,4-18-8.07-27.67-6.54-3.71.58-1.44,5.51-.42,7.31,12.87,22.68,48,29.7,67,10.77,7.84-7.83,14.08-19.55,13-30.93C229.26,180.19,220,178.09,220,178.09Z" style="fill:#fff;stroke:#263238;stroke-linecap:round;stroke-linejoin:round"></path><path d="M218,228.34c7.84-7.83,14.08-19.55,13-30.93C229.26,180.19,220,178.09,220,178.09s-23.87,38.62-44.39,55.81c-.89.75-1.69,1.46-2.44,2.17C188.23,241.83,206.22,240.07,218,228.34Z" style="fill:#263238;stroke:#263238;stroke-linecap:round;stroke-linejoin:round"></path><path d="M198.3,160.05S195.4,166.39,203,172c4.09,3,5.24,3.2,4.37,7.86s8.71,14.54,21.82,18.33,29.88,3.37,42.4-.71,19.94-15.58,19.65-19.37,1.16-6.11,3.49-10.48,1.16-7.72-1.17-11.5-7.27-3.35-5.82-12.38,6.12-9-2.91-17.47S263.24,108.19,256,107.9s-28.54,2-35.82,9.61-13.39,14.85-14.56,20.09.87,5.24-.29,11.65S195.68,151.32,198.3,160.05Z" style="fill:#263238;stroke:#263238;stroke-linecap:round;stroke-linejoin:round"></path><path d="M215.19,252.08s-29.41,114.15-38.73,135.7-15.73,29.7-14,35,4.66,9.9,14.56,14.56,13.4,5.82,13.4,5.82-9.9,19.22,21.55,26.21,34.36-6.41,44.26-6.41,20.39,13.4,41.94,5.83,16.3-21,25.62-26.21,16.89-5.83,21.55-12.82S350,416.9,350,416.9L302.84,307.41,283,250.91Z" style="fill:#92E3A9;stroke:#263238;stroke-linecap:round;stroke-linejoin:round"></path><path d="M345.36,429.71c4.66-7,4.66-12.81,4.66-12.81l-6.2-14.38c-10.95,27.88-36.34,25.79-36.34,25.79s-5.51,18.81-27.54,21.57-30.29-7.8-30.29-7.8-22.49,14.22-40.85,2.75-14.22-19.28-14.22-19.28-13.31-5.05-21.12-11a27.94,27.94,0,0,1-6.39-6.78c-3.73,7.58-5.64,11.8-4.59,15,1.75,5.24,4.66,9.9,14.56,14.56s13.4,5.82,13.4,5.82-9.9,19.22,21.55,26.21,34.36-6.41,44.26-6.41,20.39,13.4,41.94,5.83,16.3-21,25.62-26.21S340.7,436.7,345.36,429.71Z" style="fill:#fff;stroke:#263238;stroke-linecap:round;stroke-linejoin:round"></path><path d="M214.52,349.51c.53-2.4,1-4.79,1.54-7.16" style="fill:none;stroke:#263238;stroke-linecap:round;stroke-linejoin:round"></path><path d="M191.6,438.45s12.66-43.33,22-84.58" style="fill:none;stroke:#263238;stroke-linecap:round;stroke-linejoin:round"></path><line x1="248.73" y1="317.7" x2="249.84" y2="457.09" style="fill:none;stroke:#263238;stroke-linecap:round;stroke-linejoin:round"></line><line x1="290.61" y1="377.78" x2="310.69" y2="437.49" style="fill:none;stroke:#263238;stroke-linecap:round;stroke-linejoin:round"></line><line x1="287.7" y1="369.14" x2="288.9" y2="372.69" style="fill:none;stroke:#263238;stroke-linecap:round;stroke-linejoin:round"></line><path d="M313.62,235.77c-3.2-2.62-5.24-4.08-7.57-14.27s-8.45-24.75-8.45-24.75l-52.12,1.16v.4L201.79,200s-3.78,11.36-6.11,21.55-4.37,11.65-7.57,14.27-.29,4.95-.29,4.95L219,245.38s-4.66,3.78-3.79,6.7c0,0,.29,2,7.57,2.62l17.47,4a47.54,47.54,0,0,0,10.63,1.21h0a47.63,47.63,0,0,0,10.64-1.21l17.47-4c7.28-.59,7.57-2.62,7.57-2.62.87-2.92-3.79-6.7-3.79-6.7l31.16-4.66S316.82,238.39,313.62,235.77Z" style="fill:#92E3A9;stroke:#263238;stroke-linecap:round;stroke-linejoin:round"></path><path d="M237.59,143.8s.88,20.46-.44,24.42-14.93,1.39-24,6.82c-6.6,4-14.3,27.51-14.3,27.51s11.8,8,35,11.09c17.76,2.33,30.57,1.74,47.47-4.08,8.49-2.93,19.88-12.29,19.88-12.29s-8.8-18.26-12.1-21.79-18.27-5.06-23.77-5.94-4.62-.44-6.38-3.3S257.61,144,257.61,144Z" style="fill:#92E3A9;stroke:#263238;stroke-linecap:round;stroke-linejoin:round"></path><path d="M287.3,174.24c-5.17-2.66-17.18-3.93-22-4.7-5.5-.88-4.62-.44-6.38-3.3S257.61,144,257.61,144l-20-.22s.88,20.46-.44,24.42-14.93,1.39-24,6.82a13.11,13.11,0,0,0-3.51,3.65c5.72,5.24,19.59,15.73,39,15.73C269.22,194.42,282.62,180.16,287.3,174.24Z" style="fill:#fff;stroke:#263238;stroke-linecap:round;stroke-linejoin:round"></path><path d="M279.51,171.83c-5.25-1.11-11.16-1.8-14.2-2.29-5.5-.88-4.62-.44-6.38-3.3S257.61,144,257.61,144l-20-.22s.88,20.46-.44,24.42c-1.12,3.35-11,2-19.54,4.83,1.49,2.31,9.76,13.33,31.42,14.32C265.57,188.12,275.11,178.19,279.51,171.83Z" style="fill:#fff;stroke:#263238;stroke-linecap:round;stroke-linejoin:round"></path><path d="M257.66,155.8c-.17-5.26-.07-10.64-.05-11.62-3.11-.11-6.67-.22-8.45-.22-1.33,0-6.11.06-11.56.14.05,1.24.24,6.17.27,11.32,2.64,2.11,7.23,5.42,10,5.42C251,160.84,254.7,159.14,257.66,155.8Z" style="fill:#263238;stroke:#263238;stroke-linecap:round;stroke-linejoin:round"></path><path d="M223.91,112.68s-2.23,18.61,3.73,28.66S242.89,156.22,252.2,154s14.51-10.42,15.63-17.12,0-27.91,0-27.91-3.72-17.5-14.51-19.73S226.89,88.86,223.91,112.68Z" style="fill:#fff;stroke:#263238;stroke-linecap:round;stroke-linejoin:round"></path><path d="M238.45,127.4a1.7,1.7,0,1,1-1.69-1.7A1.69,1.69,0,0,1,238.45,127.4Z" style="fill:#263238"></path><path d="M257.7,127.4a1.7,1.7,0,1,1-1.69-1.7A1.69,1.69,0,0,1,257.7,127.4Z" style="fill:#263238"></path><path d="M232.61,127.68s4.24-4.52,7.91,0" style="fill:none;stroke:#263238;stroke-linecap:round;stroke-linejoin:round"></path><path d="M251.82,127.68s4.24-4.52,7.91,0" style="fill:none;stroke:#263238;stroke-linecap:round;stroke-linejoin:round"></path><path d="M244.41,135.58s2,2.2,5.72-.22" style="fill:none;stroke:#263238;stroke-linecap:round;stroke-linejoin:round"></path><path d="M243.53,141.74s3.3,2.87,7.92,0" style="fill:none;stroke:#263238;stroke-linecap:round;stroke-linejoin:round"></path><path d="M240.45,119.74s-4.84-2.2-9.9,2" style="fill:none;stroke:#263238;stroke-linecap:round;stroke-linejoin:round"></path><path d="M252.11,119.74s4.84-2.2,9.9,2" style="fill:none;stroke:#263238;stroke-linecap:round;stroke-linejoin:round"></path><path d="M247.05,98.17s-5.5,13.21-11.66,19.15-8.37,9.24-16.51,15.84-9.9,7.92-8.8,11.67,5.28,7.48.22,11.66S200,162,199.52,164.41s1.1,5.5,1.1,5.5-6.3-4.23-4.75-14.32c1.13-7.3,8.93-5.92,8-11.65s-4.4-7.48-3.08-12.76S211.62,118.64,216,109.4s7-18.49,15.63-22.89,16.5-4,17.38-.22S247.05,98.17,247.05,98.17Z" style="fill:#263238;stroke:#263238;stroke-linecap:round;stroke-linejoin:round"></path><path d="M247.07,98.17s5.5,13.21,11.67,19.15,8.36,9.24,16.5,15.84,9.9,7.92,8.8,11.67-5.28,7.48-.22,11.66,10.34,5.5,10.78,7.92-1.1,5.5-1.1,5.5,8.14-10.93,6.82-18.19-11-2.05-10.12-7.78,4.4-7.48,3.08-12.76S282.5,118.64,278.1,109.4s-7-18.49-15.62-22.89-14.31-4-15.19-.22S247.07,98.17,247.07,98.17Z" style="fill:#263238;stroke:#263238;stroke-linecap:round;stroke-linejoin:round"></path><polygon points="277.64 108.74 216.24 108.74 217.56 104.78 275.88 104.78 277.64 108.74" style="fill:#fff;stroke:#263238;stroke-linecap:round;stroke-linejoin:round"></polygon><polygon points="291.2 300.13 286.32 241.51 291.2 239.84 291.2 300.13" style="fill:#263238;stroke:#263238;stroke-linecap:round;stroke-linejoin:round"></polygon><path d="M296.44,241.3l-9.32-2s-1.75-8.15-2.33-13.68-2-7-4.08-8.74-8.15-4.37-8.15-4.37-3.2-.58-3.2.29,0,3.5,3.2,8.45,3.2,4.95,3.49,6.4-1.45,7.58,1.46,11.94,10.19,6.7,10.19,6.7l11.36,4.37Z" style="fill:#fff;stroke:#263238;stroke-linecap:round;stroke-linejoin:round"></path><path d="M271.69,219.75s7.86,2.62,8.15,4.66.58,5.53.58,5.53" style="fill:none;stroke:#263238;stroke-linecap:round;stroke-linejoin:round"></path><path d="M270.23,215.67s9.9,3.21,10.77,5a20,20,0,0,1,1.17,5.53" style="fill:none;stroke:#263238;stroke-linecap:round;stroke-linejoin:round"></path><path d="M291.2,239.85v60.28s17.57-2,27.52-25.92-3.65-36.11-3.65-36.11Z" style="fill:#92E3A9;stroke:#263238;stroke-linecap:round;stroke-linejoin:round"></path><path d="M299,239.27l-7.81.58v60.28a25.24,25.24,0,0,0,7.81-2.75Z" style="fill:#fff;stroke:#263238;stroke-linecap:round;stroke-linejoin:round"></path><path d="M252.07,208.65l5.71,11.57a1.51,1.51,0,0,0,1.14.83l12.77,1.85a1.51,1.51,0,0,1,.83,2.58l-9.23,9a1.49,1.49,0,0,0-.44,1.33L265,248.54a1.51,1.51,0,0,1-2.19,1.59l-11.42-6a1.51,1.51,0,0,0-1.4,0l-11.42,6a1.52,1.52,0,0,1-2.2-1.59l2.19-12.72a1.49,1.49,0,0,0-.44-1.33l-9.24-9a1.52,1.52,0,0,1,.84-2.58l12.77-1.85a1.49,1.49,0,0,0,1.13-.83l5.71-11.57A1.51,1.51,0,0,1,252.07,208.65Z" style="fill:#fff;stroke:#263238;stroke-linecap:round;stroke-linejoin:round"></path><line x1="250.52" y1="197.33" x2="250.52" y2="202.55" style="fill:none;stroke:#263238;stroke-linecap:round;stroke-linejoin:round"></line><line x1="250.52" y1="249.47" x2="250.52" y2="254.68" style="fill:none;stroke:#263238;stroke-linecap:round;stroke-linejoin:round"></line><line x1="270.79" y1="205.73" x2="267.11" y2="209.42" style="fill:none;stroke:#263238;stroke-linecap:round;stroke-linejoin:round"></line><line x1="233.93" y1="242.6" x2="230.24" y2="246.29" style="fill:none;stroke:#263238;stroke-linecap:round;stroke-linejoin:round"></line><line x1="230.24" y1="205.73" x2="233.93" y2="209.42" style="fill:none;stroke:#263238;stroke-linecap:round;stroke-linejoin:round"></line><line x1="267.11" y1="242.6" x2="270.79" y2="246.29" style="fill:none;stroke:#263238;stroke-linecap:round;stroke-linejoin:round"></line><polygon points="210.53 300.13 215.94 242.89 209.04 242.89 210.53 300.13" style="fill:#263238;stroke:#263238;stroke-linecap:round;stroke-linejoin:round"></polygon><path d="M205.29,241.3l9.32-2s1.74-8.15,2.33-13.68,2-7,4.07-8.74,8.16-4.37,8.16-4.37,3.2-.58,3.2.29,0,3.5-3.2,8.45-3.2,4.95-3.5,6.4,1.46,7.58-1.45,11.94-10.19,6.7-10.19,6.7l-11.36,4.37Z" style="fill:#fff;stroke:#263238;stroke-linecap:round;stroke-linejoin:round"></path><path d="M230,219.75s-7.86,2.62-8.15,4.66-.58,5.53-.58,5.53" style="fill:none;stroke:#263238;stroke-linecap:round;stroke-linejoin:round"></path><path d="M231.5,215.67s-9.9,3.21-10.78,5a20.29,20.29,0,0,0-1.16,5.53" style="fill:none;stroke:#263238;stroke-linecap:round;stroke-linejoin:round"></path><path d="M210.53,239.85v60.28s-17.57-2-27.52-25.92,3.65-36.11,3.65-36.11Z" style="fill:#92E3A9;stroke:#263238;stroke-linecap:round;stroke-linejoin:round"></path><path d="M200.92,296.37a27,27,0,0,0,9.61,3.76V239.85l-9.61-.71Z" style="fill:#fff;stroke:#263238;stroke-linecap:round;stroke-linejoin:round"></path></g><g id="Stars"><circle cx="248.82" cy="44.39" r="14.38" style="fill:#fff"></circle><circle cx="248.82" cy="44.39" r="14.38" style="fill:none;stroke:#263238;stroke-linecap:round;stroke-linejoin:round"></circle><circle cx="377.6" cy="262.18" r="14.38" style="fill:#fff"></circle><circle cx="377.6" cy="262.18" r="14.38" style="fill:none;stroke:#263238;stroke-linecap:round;stroke-linejoin:round"></circle><circle cx="109.07" cy="214.44" r="14.38" transform="translate(-33.48 20.64) rotate(-9.38)" style="fill:#fff"></circle><circle cx="109.07" cy="214.44" r="14.38" transform="translate(-33.48 20.64) rotate(-9.38)" style="fill:none;stroke:#263238;stroke-linecap:round;stroke-linejoin:round"></circle><circle cx="417.11" cy="73.77" r="7.19" style="fill:#fff"></circle><circle cx="417.11" cy="73.77" r="7.19" style="fill:none;stroke:#263238;stroke-linecap:round;stroke-linejoin:round"></circle><circle cx="390.08" cy="383.84" r="7.19" style="fill:#fff"></circle><circle cx="390.08" cy="383.84" r="7.19" style="fill:none;stroke:#263238;stroke-linecap:round;stroke-linejoin:round"></circle><circle cx="271.54" cy="364.08" r="7.19" style="fill:#fff"></circle><circle cx="271.54" cy="364.08" r="7.19" style="fill:none;stroke:#263238;stroke-linecap:round;stroke-linejoin:round"></circle><circle cx="397.36" cy="243.47" r="7.19" style="fill:#fff"></circle><circle cx="397.36" cy="243.47" r="7.19" style="fill:none;stroke:#263238;stroke-linecap:round;stroke-linejoin:round"></circle><circle cx="111.12" cy="378.73" r="7.19" style="fill:#fff"></circle><circle cx="111.12" cy="378.73" r="7.19" style="fill:none;stroke:#263238;stroke-linecap:round;stroke-linejoin:round"></circle><circle cx="163.4" cy="270.5" r="7.19" style="fill:#fff"></circle><circle cx="163.4" cy="270.5" r="7.19" style="fill:none;stroke:#263238;stroke-linecap:round;stroke-linejoin:round"></circle></g></svg>