<svg xmlns="http://www.w3.org/2000/svg" viewBox="0 0 750 500"><g id="background-simple"><path d="M680.43,171.16c-7.86-6.17-16.23-11.92-24.75-17.61A1044,1044,0,0,0,503.39,70c-16.07-7.17-35.73-17.28-53.86-16.68C403.8,54.88,39.5,176.06,33.4,202S57,428.33,107.33,448.9s580-29,588.37-41.15S733,254.56,723.13,226.36C714.8,202.64,699,185.74,680.43,171.16Z" style="fill:#92E3A9"></path><path d="M680.43,171.16c-7.86-6.17-16.23-11.92-24.75-17.61A1044,1044,0,0,0,503.39,70c-16.07-7.17-35.73-17.28-53.86-16.68C403.8,54.88,39.5,176.06,33.4,202S57,428.33,107.33,448.9s580-29,588.37-41.15S733,254.56,723.13,226.36C714.8,202.64,699,185.74,680.43,171.16Z" style="fill:#fff;opacity:0.7000000000000001"></path></g><g id="Floor"><line x1="12.89" y1="469.67" x2="740.6" y2="469.67" style="fill:none;stroke:#263238;stroke-linecap:round;stroke-linejoin:round"></line></g><g id="Window"><path d="M157.57,61.65h0a77,77,0,0,1,77,77v277a0,0,0,0,1,0,0h-154a0,0,0,0,1,0,0v-277a77,77,0,0,1,77-77Z" style="fill:none;stroke:#263238;stroke-linecap:round;stroke-linejoin:round"></path><path d="M98,414.85V141.15a59.62,59.62,0,0,1,59.62-59.62h0a59.62,59.62,0,0,1,59.63,59.62v273.7" style="fill:none;stroke:#263238;stroke-linecap:round;stroke-linejoin:round"></path><line x1="157.57" y1="61.65" x2="157.57" y2="415.26" style="fill:none;stroke:#263238;stroke-linecap:round;stroke-linejoin:round"></line><line x1="81.39" y1="129.77" x2="233.55" y2="129.77" style="fill:none;stroke:#263238;stroke-linecap:round;stroke-linejoin:round"></line><line x1="81.39" y1="177.8" x2="233.55" y2="177.8" style="fill:none;stroke:#263238;stroke-linecap:round;stroke-linejoin:round"></line><line x1="81.39" y1="225.83" x2="233.55" y2="225.83" style="fill:none;stroke:#263238;stroke-linecap:round;stroke-linejoin:round"></line><line x1="81.39" y1="273.86" x2="233.55" y2="273.86" style="fill:none;stroke:#263238;stroke-linecap:round;stroke-linejoin:round"></line><line x1="81.39" y1="321.89" x2="233.55" y2="321.89" style="fill:none;stroke:#263238;stroke-linecap:round;stroke-linejoin:round"></line><line x1="81.39" y1="369.92" x2="233.55" y2="369.92" style="fill:none;stroke:#263238;stroke-linecap:round;stroke-linejoin:round"></line><line x1="101.73" y1="85.69" x2="115.53" y2="98.25" style="fill:none;stroke:#263238;stroke-linecap:round;stroke-linejoin:round"></line><line x1="212.84" y1="85.69" x2="199.04" y2="98.25" style="fill:none;stroke:#263238;stroke-linecap:round;stroke-linejoin:round"></line></g><g id="Lights"><path d="M716.65,131.8a128,128,0,0,1-20.24,9.06,214.77,214.77,0,0,1-21.25,6.42c-3.58,1-7.21,1.68-10.82,2.52l-5.45,1.06c-1.82.36-3.63.73-5.46,1-3.66.59-7.31,1.25-11,1.69l-5.51.74c-1.83.25-3.68.4-5.52.61a438.17,438.17,0,0,1-44.36,2.34c-14.82,0-29.63-.7-44.4-1.82a725.52,725.52,0,0,1-87.87-13c-7.23-1.62-14.47-3.18-21.69-4.86s-14.39-3.52-21.56-5.4-14.3-3.86-21.43-5.88l-10.65-3.17-5.34-1.58-2.68-.8-1.34-.4-.68-.2-.33-.1-.34.1-.67.2-1.34.4-2.69.8-5.33,1.58-10.65,3.17c-7.13,2-14.29,3.92-21.43,5.88s-14.38,3.59-21.56,5.4-14.46,3.24-21.69,4.86a725.82,725.82,0,0,1-87.87,13c-14.78,1.12-29.58,1.85-44.4,1.82a438.17,438.17,0,0,1-44.36-2.34c-1.84-.21-3.69-.36-5.52-.61l-5.51-.74c-3.68-.44-7.32-1.1-11-1.69-1.83-.27-3.64-.64-5.46-1l-5.45-1.06c-3.61-.84-7.25-1.55-10.82-2.52a215.77,215.77,0,0,1-21.26-6.42,128.25,128.25,0,0,1-20.23-9.06" style="fill:none;stroke:#263238;stroke-linecap:round;stroke-linejoin:round"></path><path d="M687,143.75l2.85-.91-.11-5.09c-1.86.59-3.7,1.2-5.57,1.76Z" style="fill:#263238"></path><path d="M682.38,137c1,3.26,2.66,2.63,4.77,1.93s3.88-1.07,2.79-4.3c-.77-2.26-3.75-5-5.37-6.47a.92.92,0,0,0-1.5.48C682.58,130.78,681.71,134.69,682.38,137Z" style="fill:#92E3A9"></path><path d="M685.65,134.48a1.49,1.49,0,1,0,2.78-.89,1.49,1.49,0,1,0-2.78.89Z" style="fill:#fff"></path><path d="M655.14,152.09l-3,.48-.69,5.06c2-.34,4-.62,6-1Z" style="fill:#263238"></path><path d="M659,159.28c-.62-3.35-2.42-2.81-4.7-2.46s-4.14.53-3.61,3.88c.38,2.38,3,5.52,4.6,7.15a1.13,1.13,0,0,0,1.77-.29C658,165.54,659.48,161.63,659,159.28Z" style="fill:#92E3A9"></path><path d="M655.23,161.44a1.71,1.71,0,0,0-1.85-1.52,1.81,1.81,0,1,0,1.85,1.52Z" style="fill:#fff"></path><polygon points="609.28 156.39 612.27 156.25 613.46 151.3 607.55 151.58 609.28 156.39" style="fill:#263238"></polygon><path d="M606.42,148.73c.15,3.39,2,3.16,4.21,3.05s4.07-.08,3.85-3.47c-.17-2.4-2.37-5.77-3.64-7.6a1,1,0,0,0-1.64.08C608.15,142.71,606.32,146.33,606.42,148.73Z" style="fill:#92E3A9"></path><path d="M610.28,147.09a1.7,1.7,0,0,0,1.6,1.73,1.65,1.65,0,0,0,1.39-1.88,1.7,1.7,0,0,0-1.6-1.71A1.64,1.64,0,0,0,610.28,147.09Z" style="fill:#fff"></path><path d="M576.36,157.63c-1,0-2,0-3,0l-1.63,4.82c2,.1,4,.1,6,.13Z" style="fill:#263238"></path><path d="M578.76,165.44c0-3.4-1.81-3.26-4.1-3.29s-4.14-.29-4.25,3.11c-.07,2.4,1.92,6,3.12,7.92a1.1,1.1,0,0,0,1.76,0C576.58,171.35,578.73,167.84,578.76,165.44Z" style="fill:#92E3A9"></path><path d="M574.65,166.85a1.71,1.71,0,0,0-1.51-1.83,1.67,1.67,0,0,0-1.6,1.74,1.7,1.7,0,0,0,1.51,1.85A1.68,1.68,0,0,0,574.65,166.85Z" style="fill:#fff"></path><polygon points="530.43 154.06 533.4 154.33 535.35 149.61 529.44 149.06 530.43 154.06" style="fill:#263238"></polygon><path d="M528.75,146.08c-.36,3.38,1.47,3.4,3.72,3.61s4,.52,4.35-2.86c.22-2.4-1.46-6.1-2.44-8.06a1,1,0,0,0-1.66-.15C531.37,140.36,529,143.69,528.75,146.08Z" style="fill:#92E3A9"></path><path d="M532.83,145a1.65,1.65,0,0,0,1.33,1.92,1.82,1.82,0,1,0-1.33-1.92Z" style="fill:#fff"></path><polygon points="497.66 150.63 494.7 150.2 492.45 154.8 498.42 155.67 497.66 150.63" style="fill:#263238"></polygon><path d="M499,158.69c.49-3.36-1.36-3.48-3.63-3.81s-4.06-.75-4.6,2.59c-.38,2.39,1.12,6.2,2.06,8.21a1.09,1.09,0,0,0,1.73.25C496.07,164.26,498.66,161.07,499,158.69Z" style="fill:#92E3A9"></path><path d="M494.77,159.54a1.67,1.67,0,0,0-1.26-2,1.7,1.7,0,0,0-1.81,1.55,1.67,1.67,0,0,0,1.26,2A1.71,1.71,0,0,0,494.77,159.54Z" style="fill:#fff"></path><path d="M452.47,141.62l2.92.65,2.46-4.5c-2-.36-3.88-.82-5.82-1.24Z" style="fill:#263238"></path><path d="M451.66,133.47c-.71,3.32,1.11,3.57,3.31,4.06s4,.95,4.66-2.37c.48-2.35-.79-6.2-1.56-8.26a1,1,0,0,0-1.64-.36C454.89,128.11,452.17,131.12,451.66,133.47Z" style="fill:#92E3A9"></path><path d="M455.85,132.91A1.68,1.68,0,0,0,457,135a1.7,1.7,0,0,0,1.85-1.47,1.65,1.65,0,0,0-1.12-2.05A1.67,1.67,0,0,0,455.85,132.91Z" style="fill:#fff"></path><polygon points="420.23 134.84 417.32 134.12 414.65 138.49 420.49 139.94 420.23 134.84" style="fill:#263238"></polygon><path d="M420.78,143c.82-3.3-1-3.59-3.23-4.14s-4-1.14-4.82,2.15c-.6,2.32.53,6.24,1.26,8.34a1.07,1.07,0,0,0,1.69.42C417.33,148.26,420.2,145.33,420.78,143Z" style="fill:#92E3A9"></path><path d="M416.49,143.44a1.67,1.67,0,0,0-1.06-2.11,1.69,1.69,0,0,0-1.94,1.36,1.66,1.66,0,0,0,1.06,2.11A1.68,1.68,0,0,0,416.49,143.44Z" style="fill:#fff"></path><path d="M51.18,143.75l-2.84-.91.11-5.09c1.86.59,3.7,1.2,5.57,1.76Z" style="fill:#263238"></path><path d="M55.79,137c-1,3.26-2.66,2.63-4.76,1.93s-3.88-1.07-2.79-4.3c.77-2.26,3.74-5,5.36-6.47a.93.93,0,0,1,1.51.48C55.6,130.78,56.47,134.69,55.79,137Z" style="fill:#92E3A9"></path><path d="M52.53,134.48a1.64,1.64,0,0,1-1.94,1.26,1.62,1.62,0,0,1-.84-2.15,1.49,1.49,0,1,1,2.78.89Z" style="fill:#fff"></path><path d="M83,152.09l2.95.48.69,5.06c-2-.34-4-.62-6-1Z" style="fill:#263238"></path><path d="M79.15,159.28c.62-3.35,2.42-2.81,4.7-2.46s4.14.53,3.6,3.88c-.37,2.38-3,5.52-4.6,7.15a1.12,1.12,0,0,1-1.76-.29C80.15,165.54,78.7,161.63,79.15,159.28Z" style="fill:#92E3A9"></path><path d="M83,161.44a1.71,1.71,0,0,1,1.85-1.52A1.81,1.81,0,1,1,83,161.44Z" style="fill:#fff"></path><polygon points="128.9 156.39 125.91 156.25 124.72 151.3 130.62 151.58 128.9 156.39" style="fill:#263238"></polygon><path d="M131.76,148.73c-.16,3.39-2,3.16-4.21,3.05s-4.07-.08-3.85-3.47c.16-2.4,2.37-5.77,3.63-7.6a1,1,0,0,1,1.65.08C130,142.71,131.86,146.33,131.76,148.73Z" style="fill:#92E3A9"></path><path d="M127.9,147.09a1.7,1.7,0,0,1-1.6,1.73,1.65,1.65,0,0,1-1.39-1.88,1.7,1.7,0,0,1,1.6-1.71A1.65,1.65,0,0,1,127.9,147.09Z" style="fill:#fff"></path><path d="M161.82,157.63c1,0,2,0,3,0l1.63,4.82c-2,.1-4,.1-6,.13Z" style="fill:#263238"></path><path d="M159.41,165.44c0-3.4,1.82-3.26,4.11-3.29s4.14-.29,4.24,3.11c.08,2.4-1.91,6-3.11,7.92a1.1,1.1,0,0,1-1.76,0C161.6,171.35,159.44,167.84,159.41,165.44Z" style="fill:#92E3A9"></path><path d="M163.53,166.85A1.7,1.7,0,0,1,165,165a1.67,1.67,0,0,1,1.6,1.74,1.71,1.71,0,0,1-1.51,1.85A1.68,1.68,0,0,1,163.53,166.85Z" style="fill:#fff"></path><polygon points="207.75 154.06 204.77 154.33 202.83 149.61 208.74 149.06 207.75 154.06" style="fill:#263238"></polygon><path d="M209.43,146.08c.36,3.38-1.47,3.4-3.72,3.61s-4.05.52-4.35-2.86c-.22-2.4,1.46-6.1,2.44-8.06a1,1,0,0,1,1.66-.15C206.81,140.36,209.18,143.69,209.43,146.08Z" style="fill:#92E3A9"></path><path d="M205.35,145a1.53,1.53,0,1,1-3,.28,1.53,1.53,0,1,1,3-.28Z" style="fill:#fff"></path><polygon points="240.52 150.63 243.48 150.2 245.72 154.8 239.76 155.67 240.52 150.63" style="fill:#263238"></polygon><path d="M239.17,158.69c-.49-3.36,1.36-3.48,3.62-3.81s4.07-.75,4.61,2.59c.38,2.39-1.13,6.2-2.06,8.21a1.09,1.09,0,0,1-1.73.25C242.1,164.26,239.52,161.07,239.17,158.69Z" style="fill:#92E3A9"></path><path d="M243.41,159.54a1.66,1.66,0,0,1,1.26-2,1.71,1.71,0,0,1,1.81,1.55,1.67,1.67,0,0,1-1.26,2A1.71,1.71,0,0,1,243.41,159.54Z" style="fill:#fff"></path><path d="M285.71,141.62l-2.92.65-2.46-4.5c1.95-.36,3.88-.82,5.81-1.24Z" style="fill:#263238"></path><path d="M286.51,133.47c.72,3.32-1.1,3.57-3.3,4.06s-4,.95-4.66-2.37c-.48-2.35.79-6.2,1.56-8.26a1,1,0,0,1,1.64-.36C283.28,128.11,286,131.12,286.51,133.47Z" style="fill:#92E3A9"></path><path d="M282.33,132.91a1.68,1.68,0,0,1-1.11,2.08,1.7,1.7,0,0,1-1.85-1.47,1.65,1.65,0,0,1,1.12-2.05A1.67,1.67,0,0,1,282.33,132.91Z" style="fill:#fff"></path><polygon points="317.95 134.84 320.86 134.12 323.53 138.49 317.69 139.94 317.95 134.84" style="fill:#263238"></polygon><path d="M317.4,143c-.82-3.3,1-3.59,3.22-4.14s4-1.14,4.83,2.15c.6,2.32-.53,6.24-1.26,8.34a1.07,1.07,0,0,1-1.69.42C320.85,148.26,318,145.33,317.4,143Z" style="fill:#92E3A9"></path><path d="M321.69,143.44a1.67,1.67,0,0,1,1.05-2.11,1.7,1.7,0,0,1,1.95,1.36,1.66,1.66,0,0,1-1.06,2.11A1.68,1.68,0,0,1,321.69,143.44Z" style="fill:#fff"></path><polygon points="383.37 118.28 375.8 125.34 377.32 135.58 368.26 130.56 359 135.16 360.98 125 353.73 117.61 364 116.35 368.8 107.18 373.17 116.56 383.37 118.28" style="fill:#92E3A9"></polygon></g><g id="Tree"><polygon points="592.07 447.63 579.59 445.62 579.59 445.44 579.03 445.53 578.48 445.44 578.48 445.62 565.92 447.63 513.3 465.13 513.3 468.93 527.92 468.93 528.73 466.22 570.29 458.56 570.29 468.93 578.48 468.93 579.59 468.93 587.72 468.93 587.72 458.56 629.04 466.22 629.84 468.93 644.37 468.93 644.37 465.13 592.07 447.63" style="fill:#263238;stroke:#263238;stroke-linecap:round;stroke-linejoin:round"></polygon><path d="M452.88,440.21c10.49.8,43.91-10.29,43.91-10.29S481.35,444.11,469.46,452l.8-.12s-1,.54-2.62,1.29c-1.27.8-2.49,1.5-3.62,2.09a92.32,92.32,0,0,1-12.19,4.82c2.25,1.23,8.07,2.43,12.76,2.12,7.74-.52,21.66-3.61,21.66-3.61s-10.83,4.12,2.06,3.61,26.3-5.16,27.85-6.19-9.8,6.7,1.54,6.19,37.65-9.28,39.19-9.8-1,9.28,5.68,8.25,16-7.22,16-7.22,1,8.77,8.77,7.22,6.7-4.64,9.28-4.12,9.8,6.7,14.95,5.67,5.16-4.64,5.16-4.64,9.28,6.7,16.5,4.64,7.22-3.61,7.22-3.61,26.81,5.67,30.94,3.61-4.64-4.64-4.64-4.64,33.51,8.25,38.16,8.25-4.65-3.61-4.65-3.61a115.63,115.63,0,0,0,19.33,1c.22-2-10-3.76-18.08-8-11.9-6.15-32.76-25.34-32.76-25.34s33.42,11.09,43.9,10.29,6.55-9.5-10.48-19.79c-14.48-8.75-32.77-29.3-28.18-26.92s24.25,8.71,28.83,4-17.95-17.61-27.52-24.55c-13.1-9.5-16.38-19-16.38-19s17,9.5,35.38,9.5c4.77,0-7.2-11.88-21.62-28.5a163.74,163.74,0,0,1-22.93-35.63s22.93,14.25,27.52,10.29-15.07-19-26.87-34.05S634,247.81,634,247.81s26.86,23,34.07,19-7.86-9.5-18.34-26.13S634,218.51,634,218.51s15.07,10.3,21.62,4.76-7.21-9.51-19.66-24.55-15.72-20.59-15.72-20.59,16.38,5.55,18.35.8-8.52-4.76-19-12.67-15.72-15-15.72-15,5.89,5.55,13.76,5.55-2-6.34-13.77-25.35a141.72,141.72,0,0,1-12.5-24.75C587.9,97.47,583,83.13,576.43,100c-4.34,11.08-8.62,21.46-14.77,31.38-11.8,19-21.63,25.34-13.76,25.34s13.76-5.55,13.76-5.55-5.25,7.13-15.73,15-21,7.91-19,12.67,18.35-.8,18.35-.8-3.28,5.55-15.73,20.59-26.21,19-19.66,24.55,21.62-4.76,21.62-4.76-5.24,5.55-15.72,22.17-25.56,22.17-18.35,26.13,34.07-19,34.07-19-4.58,12.67-16.38,27.71-31.45,30.09-26.86,34.05,27.52-10.29,27.52-10.29a164,164,0,0,1-22.94,35.63c-14.41,16.62-26.39,28.5-21.62,28.5,18.35,0,35.38-9.5,35.38-9.5s-3.27,9.5-16.38,19c-9.57,6.94-32.11,19.8-27.52,24.55s24.25-1.59,28.83-4-13.7,18.17-28.17,26.92C446.33,430.71,442.4,439.42,452.88,440.21Z" style="fill:#c7c7c7;stroke:#263238;stroke-linecap:round;stroke-linejoin:round"></path><path d="M628.05,217.47l-9.63-5.93s3.67,7.54-1.83,7S601,209.39,601,209.39s3.67,9.69,0,8.08-8.71-7.55-8.71-7.55-2.3,7.55-5.51,4.31c-1.42-1.43-4.71-5.74-6.64-3.24a23.38,23.38,0,0,1-3,3.22c-3.21,2.91-5.5-3.88-5.5-3.88s-5,5.33-8.71,6.79,0-7.27,0-7.27-10.09,7.75-15.59,8.24-1.84-6.31-1.84-6.31l-9.63,5.34" style="fill:none;stroke:#263238;stroke-linecap:round;stroke-linejoin:round"></path><path d="M603.82,152.15l-4.57-2.81s1.74,3.57-.87,3.32-7.39-4.34-7.39-4.34,1.74,4.59,0,3.83-4.13-3.58-4.13-3.58-1.09,3.58-2.61,2.05c-.68-.68-2.24-2.73-3.15-1.54a10.79,10.79,0,0,1-1.42,1.52c-1.52,1.38-2.6-1.84-2.6-1.84a16.47,16.47,0,0,1-4.14,3.22c-1.74.69,0-3.45,0-3.45s-4.78,3.68-7.39,3.91-.87-3-.87-3L560.12,152" style="fill:none;stroke:#263238;stroke-linecap:round;stroke-linejoin:round"></path><path d="M645.07,302.81l-13.19-8.12s5,10.33-2.51,9.59S608,291.74,608,291.74s5,13.28,0,11.07-11.93-10.33-11.93-10.33-3.13,10.33-7.53,5.9c-1.95-2-6.46-7.87-9.1-4.44a32.17,32.17,0,0,1-4.09,4.4c-4.39,4-7.53-5.31-7.53-5.31s-6.91,7.31-11.93,9.3,0-10,0-10S542.1,303,534.56,303.65s-2.51-8.63-2.51-8.63l-13.19,7.31" style="fill:none;stroke:#263238;stroke-linecap:round;stroke-linejoin:round"></path><path d="M671.37,394.8l-18.68-11.5s7.11,14.63-3.56,13.59-30.25-17.77-30.25-17.77,7.12,18.81,0,15.68S602,380.17,602,380.17s-4.45,14.63-10.67,8.36c-2.77-2.79-9.15-11.15-12.89-6.29a46.29,46.29,0,0,1-5.79,6.24C566.4,394.12,562,381,562,381s-9.78,10.34-16.9,13.16,0-14.1,0-14.1-19.57,15-30.24,16-3.56-12.22-3.56-12.22l-18.68,10.34" style="fill:none;stroke:#263238;stroke-linecap:round;stroke-linejoin:round"></path><polygon points="602.92 77.37 592.66 86.93 594.71 100.8 582.45 94 569.88 100.24 572.57 86.47 562.75 76.45 576.67 74.75 583.17 62.32 589.09 75.03 602.92 77.37" style="fill:#fff;stroke:#263238;stroke-linecap:round;stroke-linejoin:round"></polygon><path d="M570,201.51a11.2,11.2,0,1,1-11.2-11.2A11.19,11.19,0,0,1,570,201.51Z" style="fill:#263238;stroke:#263238;stroke-linecap:round;stroke-linejoin:round"></path><rect x="555.66" y="186.97" width="6.17" height="4.04" style="fill:#fff;stroke:#263238;stroke-linecap:round;stroke-linejoin:round"></rect><line x1="558.58" y1="186.73" x2="558.58" y2="181.98" style="fill:none;stroke:#263238;stroke-linecap:round;stroke-linejoin:round"></line><polyline points="547.66 202.4 553.12 197.89 558.11 202.88 564.04 197.65 568.32 202.16 569.74 201.2" style="fill:none;stroke:#fff;stroke-linecap:round;stroke-linejoin:round"></polyline><polyline points="548.61 205.73 553.12 202.16 558.11 207.15 564.04 201.93 568.32 206.44" style="fill:none;stroke:#fff;stroke-linecap:round;stroke-linejoin:round"></polyline><circle cx="639.71" cy="391.43" r="11.2" transform="translate(151.18 960.46) rotate(-80.81)" style="fill:#263238;stroke:#263238;stroke-linecap:round;stroke-linejoin:round"></circle><rect x="636.63" y="376.89" width="6.17" height="4.04" style="fill:#fff;stroke:#263238;stroke-linecap:round;stroke-linejoin:round"></rect><line x1="639.55" y1="376.65" x2="639.55" y2="371.9" style="fill:none;stroke:#263238;stroke-linecap:round;stroke-linejoin:round"></line><polyline points="628.62 392.32 634.08 387.81 639.07 392.8 645.01 387.57 649.28 392.09 650.7 391.12" style="fill:none;stroke:#fff;stroke-linecap:round;stroke-linejoin:round"></polyline><polyline points="629.57 395.65 634.08 392.09 639.07 397.07 645.01 391.85 649.28 396.36" style="fill:none;stroke:#fff;stroke-linecap:round;stroke-linejoin:round"></polyline><path d="M643.41,313.25A11.2,11.2,0,1,1,632.21,302,11.21,11.21,0,0,1,643.41,313.25Z" style="fill:#263238;stroke:#263238;stroke-linecap:round;stroke-linejoin:round"></path><rect x="629.12" y="298.7" width="6.17" height="4.04" style="fill:#fff;stroke:#263238;stroke-linecap:round;stroke-linejoin:round"></rect><line x1="632.04" y1="298.46" x2="632.04" y2="293.71" style="fill:none;stroke:#263238;stroke-linecap:round;stroke-linejoin:round"></line><polyline points="621.12 314.14 626.58 309.62 631.56 314.61 637.5 309.39 641.77 313.9 643.19 312.93" style="fill:none;stroke:#fff;stroke-linecap:round;stroke-linejoin:round"></polyline><polyline points="622.07 317.46 626.58 313.9 631.56 318.88 637.5 313.66 641.77 318.17" style="fill:none;stroke:#fff;stroke-linecap:round;stroke-linejoin:round"></polyline><path d="M596,139.32a11.2,11.2,0,1,1-11.2-11.2A11.19,11.19,0,0,1,596,139.32Z" style="fill:#fff;stroke:#263238;stroke-linecap:round;stroke-linejoin:round"></path><rect x="581.74" y="124.78" width="6.17" height="4.04" style="fill:#fff;stroke:#263238;stroke-linecap:round;stroke-linejoin:round"></rect><line x1="584.66" y1="124.54" x2="584.66" y2="119.79" style="fill:none;stroke:#263238;stroke-linecap:round;stroke-linejoin:round"></line><polyline points="573.74 140.21 579.2 135.7 584.19 140.69 590.12 135.46 594.4 139.97 595.82 139.01" style="fill:none;stroke:#263238;stroke-linecap:round;stroke-linejoin:round"></polyline><polyline points="574.69 143.53 579.2 139.97 584.19 144.96 590.12 139.74 594.4 144.25" style="fill:none;stroke:#263238;stroke-linecap:round;stroke-linejoin:round"></polyline><path d="M590.88,333.12a11.21,11.21,0,1,1-11.2-11.2A11.21,11.21,0,0,1,590.88,333.12Z" style="fill:#fff;stroke:#263238;stroke-linecap:round;stroke-linejoin:round"></path><rect x="576.59" y="318.58" width="6.17" height="4.04" style="fill:#fff;stroke:#263238;stroke-linecap:round;stroke-linejoin:round"></rect><line x1="579.51" y1="318.34" x2="579.51" y2="313.59" style="fill:none;stroke:#263238;stroke-linecap:round;stroke-linejoin:round"></line><polyline points="568.58 334.01 574.04 329.5 579.03 334.49 584.97 329.26 589.24 333.77 590.66 332.81" style="fill:none;stroke:#263238;stroke-linecap:round;stroke-linejoin:round"></polyline><polyline points="569.53 337.34 574.04 333.77 579.03 338.76 584.97 333.54 589.24 338.05" style="fill:none;stroke:#263238;stroke-linecap:round;stroke-linejoin:round"></polyline><path d="M589,243.29a11.21,11.21,0,1,1-11.2-11.21A11.21,11.21,0,0,1,589,243.29Z" style="fill:#fff;stroke:#263238;stroke-linecap:round;stroke-linejoin:round"></path><rect x="574.66" y="228.74" width="6.17" height="4.04" style="fill:#fff;stroke:#263238;stroke-linecap:round;stroke-linejoin:round"></rect><line x1="577.58" y1="228.5" x2="577.58" y2="223.75" style="fill:none;stroke:#263238;stroke-linecap:round;stroke-linejoin:round"></line><polyline points="566.65 244.17 572.12 239.66 577.1 244.65 583.04 239.43 587.31 243.94 588.73 242.97" style="fill:none;stroke:#263238;stroke-linecap:round;stroke-linejoin:round"></polyline><polyline points="567.61 247.5 572.12 243.94 577.1 248.92 583.04 243.7 587.31 248.21" style="fill:none;stroke:#263238;stroke-linecap:round;stroke-linejoin:round"></polyline><circle cx="517.76" cy="410.81" r="11.2" style="fill:#fff;stroke:#263238;stroke-linecap:round;stroke-linejoin:round"></circle><rect x="514.67" y="396.27" width="6.17" height="4.04" style="fill:#fff;stroke:#263238;stroke-linecap:round;stroke-linejoin:round"></rect><line x1="517.59" y1="396.03" x2="517.59" y2="391.28" style="fill:none;stroke:#263238;stroke-linecap:round;stroke-linejoin:round"></line><polyline points="506.67 411.7 512.13 407.19 517.12 412.18 523.05 406.95 527.33 411.47 528.75 410.5" style="fill:none;stroke:#263238;stroke-linecap:round;stroke-linejoin:round"></polyline><polyline points="507.62 415.03 512.13 411.47 517.12 416.45 523.05 411.23 527.33 415.74" style="fill:none;stroke:#263238;stroke-linecap:round;stroke-linejoin:round"></polyline><circle cx="605.7" cy="421.16" r="11.2" transform="translate(95.49 954.01) rotate(-81.06)" style="fill:#fff;stroke:#263238;stroke-linecap:round;stroke-linejoin:round"></circle><rect x="602.61" y="406.61" width="6.17" height="4.04" style="fill:#fff;stroke:#263238;stroke-linecap:round;stroke-linejoin:round"></rect><line x1="605.53" y1="406.38" x2="605.53" y2="401.63" style="fill:none;stroke:#263238;stroke-linecap:round;stroke-linejoin:round"></line><polyline points="594.6 422.05 600.07 417.54 605.05 422.52 610.99 417.3 615.26 421.81 616.68 420.84" style="fill:none;stroke:#263238;stroke-linecap:round;stroke-linejoin:round"></polyline><polyline points="595.55 425.37 600.07 421.81 605.05 426.8 610.99 421.57 615.26 426.08" style="fill:none;stroke:#263238;stroke-linecap:round;stroke-linejoin:round"></polyline><path d="M577.41,403.44a11.2,11.2,0,1,1-11.2-11.2A11.2,11.2,0,0,1,577.41,403.44Z" style="fill:#263238;stroke:#263238;stroke-linecap:round;stroke-linejoin:round"></path><rect x="563.13" y="388.9" width="6.17" height="4.04" style="fill:#fff;stroke:#263238;stroke-linecap:round;stroke-linejoin:round"></rect><line x1="566.04" y1="388.66" x2="566.04" y2="383.91" style="fill:none;stroke:#263238;stroke-linecap:round;stroke-linejoin:round"></line><path d="M565.74,399.47a3.21,3.21,0,1,1-3.21-3.21A3.21,3.21,0,0,1,565.74,399.47Z" style="fill:#fff"></path><path d="M572.62,398.4a1.9,1.9,0,1,1-1.9-1.9A1.9,1.9,0,0,1,572.62,398.4Z" style="fill:#fff"></path><circle cx="559.33" cy="407.18" r="1.66" style="fill:#fff"></circle><path d="M572.86,407.78a3,3,0,1,1-3-3A3,3,0,0,1,572.86,407.78Z" style="fill:#fff"></path><path d="M564.79,410.86a1.07,1.07,0,1,1-1.07-1.07A1.07,1.07,0,0,1,564.79,410.86Z" style="fill:#fff"></path><path d="M575.71,403.26a1.55,1.55,0,1,1-1.54-1.54A1.54,1.54,0,0,1,575.71,403.26Z" style="fill:#fff"></path><circle cx="598.11" cy="175.23" r="11.2" transform="translate(329.65 737.7) rotate(-80.81)" style="fill:#fff;stroke:#263238;stroke-linecap:round;stroke-linejoin:round"></circle><rect x="595.02" y="160.69" width="6.17" height="4.04" style="fill:#fff;stroke:#263238;stroke-linecap:round;stroke-linejoin:round"></rect><line x1="597.94" y1="160.45" x2="597.94" y2="155.7" style="fill:none;stroke:#263238;stroke-linecap:round;stroke-linejoin:round"></line><path d="M597.63,171.25a3.21,3.21,0,1,1-3.2-3.2A3.21,3.21,0,0,1,597.63,171.25Z" style="fill:none;stroke:#263238;stroke-linecap:round;stroke-linejoin:round"></path><path d="M604.52,170.19a1.9,1.9,0,1,1-1.9-1.9A1.91,1.91,0,0,1,604.52,170.19Z" style="fill:none;stroke:#263238;stroke-linecap:round;stroke-linejoin:round"></path><path d="M592.88,179a1.66,1.66,0,1,1-1.66-1.66A1.66,1.66,0,0,1,592.88,179Z" style="fill:none;stroke:#263238;stroke-linecap:round;stroke-linejoin:round"></path><path d="M604.75,179.56a3,3,0,1,1-3-3A3,3,0,0,1,604.75,179.56Z" style="fill:none;stroke:#263238;stroke-linecap:round;stroke-linejoin:round"></path><path d="M596.68,182.65a1.07,1.07,0,1,1-1.07-1.07A1.07,1.07,0,0,1,596.68,182.65Z" style="fill:none;stroke:#263238;stroke-linecap:round;stroke-linejoin:round"></path><path d="M607.6,175.05a1.54,1.54,0,1,1-1.54-1.54A1.54,1.54,0,0,1,607.6,175.05Z" style="fill:none;stroke:#263238;stroke-linecap:round;stroke-linejoin:round"></path><path d="M564.06,280.62a11.2,11.2,0,1,1-11.2-11.2A11.19,11.19,0,0,1,564.06,280.62Z" style="fill:#fff;stroke:#263238;stroke-linecap:round;stroke-linejoin:round"></path><rect x="549.77" y="266.07" width="6.17" height="4.04" style="fill:#fff;stroke:#263238;stroke-linecap:round;stroke-linejoin:round"></rect><line x1="552.69" y1="265.84" x2="552.69" y2="261.09" style="fill:none;stroke:#263238;stroke-linecap:round;stroke-linejoin:round"></line><path d="M552.38,276.64a3.21,3.21,0,1,1-3.2-3.21A3.21,3.21,0,0,1,552.38,276.64Z" style="fill:none;stroke:#263238;stroke-linecap:round;stroke-linejoin:round"></path><path d="M559.27,275.57a1.9,1.9,0,1,1-1.9-1.9A1.9,1.9,0,0,1,559.27,275.57Z" style="fill:none;stroke:#263238;stroke-linecap:round;stroke-linejoin:round"></path><path d="M547.63,284.36A1.66,1.66,0,1,1,546,282.7,1.66,1.66,0,0,1,547.63,284.36Z" style="fill:none;stroke:#263238;stroke-linecap:round;stroke-linejoin:round"></path><path d="M559.51,285a3,3,0,1,1-3-3A3,3,0,0,1,559.51,285Z" style="fill:none;stroke:#263238;stroke-linecap:round;stroke-linejoin:round"></path><path d="M551.43,288a1.07,1.07,0,1,1-1.06-1.07A1.06,1.06,0,0,1,551.43,288Z" style="fill:none;stroke:#263238;stroke-linecap:round;stroke-linejoin:round"></path><path d="M562.36,280.44a1.55,1.55,0,1,1-1.55-1.54A1.54,1.54,0,0,1,562.36,280.44Z" style="fill:none;stroke:#263238;stroke-linecap:round;stroke-linejoin:round"></path><circle cx="528.43" cy="355.14" r="11.2" style="fill:#263238;stroke:#263238;stroke-linecap:round;stroke-linejoin:round"></circle><rect x="525.34" y="340.59" width="6.17" height="4.04" style="fill:#fff;stroke:#263238;stroke-linecap:round;stroke-linejoin:round"></rect><line x1="528.26" y1="340.36" x2="528.26" y2="335.61" style="fill:none;stroke:#263238;stroke-linecap:round;stroke-linejoin:round"></line><path d="M528,351.16a3.21,3.21,0,1,1-3.2-3.21A3.21,3.21,0,0,1,528,351.16Z" style="fill:#fff"></path><path d="M534.84,350.09a1.9,1.9,0,1,1-1.9-1.9A1.9,1.9,0,0,1,534.84,350.09Z" style="fill:#fff"></path><path d="M523.2,358.88a1.66,1.66,0,1,1-1.66-1.67A1.66,1.66,0,0,1,523.2,358.88Z" style="fill:#fff"></path><path d="M535.08,359.47a3,3,0,1,1-3-3A3,3,0,0,1,535.08,359.47Z" style="fill:#fff"></path><path d="M527,362.56a1.07,1.07,0,1,1-1.07-1.07A1.07,1.07,0,0,1,527,362.56Z" style="fill:#fff"></path><circle cx="536.38" cy="354.96" r="1.54" style="fill:#fff"></circle><circle cx="613.97" cy="232.53" r="11.2" transform="translate(15.4 502.25) rotate(-45)" style="fill:#263238;stroke:#263238;stroke-linecap:round;stroke-linejoin:round"></circle><rect x="610.88" y="217.99" width="6.17" height="4.04" style="fill:#fff;stroke:#263238;stroke-linecap:round;stroke-linejoin:round"></rect><line x1="613.8" y1="217.75" x2="613.8" y2="213" style="fill:none;stroke:#263238;stroke-linecap:round;stroke-linejoin:round"></line><circle cx="610.29" cy="228.55" r="3.21" style="fill:#fff"></circle><path d="M620.38,227.48a1.9,1.9,0,1,1-1.9-1.89A1.9,1.9,0,0,1,620.38,227.48Z" style="fill:#fff"></path><path d="M608.75,236.27a1.67,1.67,0,1,1-1.66-1.66A1.66,1.66,0,0,1,608.75,236.27Z" style="fill:#fff"></path><path d="M620.62,236.86a3,3,0,1,1-3-3A3,3,0,0,1,620.62,236.86Z" style="fill:#fff"></path><path d="M612.55,240a1.07,1.07,0,1,1-1.07-1.07A1.07,1.07,0,0,1,612.55,240Z" style="fill:#fff"></path><path d="M623.47,232.35a1.55,1.55,0,1,1-1.54-1.54A1.54,1.54,0,0,1,623.47,232.35Z" style="fill:#fff"></path></g><g id="Bag"><rect x="333.91" y="244.43" width="53.18" height="71.42" transform="translate(-95.89 268.17) rotate(-36.35)" style="fill:#92E3A9;stroke:#263238;stroke-linecap:round;stroke-linejoin:round"></rect><rect x="334.54" y="246.35" width="46.7" height="71.42" transform="translate(-97.54 267) rotate(-36.35)" style="fill:#92E3A9;stroke:#263238;stroke-linecap:round;stroke-linejoin:round"></rect><rect x="333.91" y="276.38" width="53.18" height="7.51" transform="translate(-95.89 268.17) rotate(-36.35)" style="fill:#fff;stroke:#263238;stroke-linecap:round;stroke-linejoin:round"></rect><rect x="376.07" y="262.55" width="6.48" height="7.51" transform="translate(-84.03 276.62) rotate(-36.35)" style="fill:#fff;stroke:#263238;stroke-linecap:round;stroke-linejoin:round"></rect><rect x="354.53" y="245.9" width="7.95" height="71.42" transform="translate(-97.15 267.28) rotate(-36.35)" style="fill:#fff;stroke:#263238;stroke-linecap:round;stroke-linejoin:round"></rect><path d="M350,349a7.08,7.08,0,0,1-9.36-3.5L291.48,237.74A26.21,26.21,0,0,1,339.17,216l10.62,23.28a7.06,7.06,0,0,1-12.85,5.86l-10.62-23.28a12.08,12.08,0,1,0-22,10l49.16,107.79A7.07,7.07,0,0,1,350,349Z" style="fill:#fff;stroke:#263238;stroke-linecap:round;stroke-linejoin:round"></path><path d="M309.24,242.64l-4.64-10.18-15.47-4.8a26,26,0,0,0,2.05,9.38Z" style="fill:#263238"></path><path d="M303.62,223.89a12.08,12.08,0,0,1,4.74-6.9l-11.15-9.07a26.43,26.43,0,0,0-5,6.67Z" style="fill:#263238"></path><path d="M308.93,201.45l3.24,13.76a12.08,12.08,0,0,1,8.81,1l-3.65-15.46A26,26,0,0,0,308.93,201.45Z" style="fill:#263238"></path><path d="M337.31,212.6a26.07,26.07,0,0,0-5.88-6.4L324,218.45a11.89,11.89,0,0,1,2.34,3.4l2.29,5Z" style="fill:#263238"></path><polygon points="347.39 326.29 329.3 320.67 333.95 330.85 352.03 336.46 347.39 326.29" style="fill:#263238"></polygon><polygon points="301.85 260.48 319.94 266.1 315.29 255.92 297.21 250.31 301.85 260.48" style="fill:#263238"></polygon><path d="M344.72,228.15l-10.24,11.6,2.46,5.38a6.9,6.9,0,0,0,1.8,2.4l9.77-11.06Z" style="fill:#263238"></path><polygon points="323.25 307.4 341.33 313.01 336.69 302.83 318.61 297.22 323.25 307.4" style="fill:#263238"></polygon><polygon points="312.55 283.94 330.63 289.55 325.99 279.37 307.91 273.76 312.55 283.94" style="fill:#263238"></polygon><rect x="383.78" y="218.44" width="70.16" height="94.23" transform="translate(121.17 -131.11) rotate(20.74)" style="fill:#92E3A9;stroke:#263238;stroke-linecap:round;stroke-linejoin:round"></rect><rect x="384.05" y="216.92" width="61.62" height="94.23" transform="translate(120.37 -129.79) rotate(20.74)" style="fill:#92E3A9;stroke:#263238;stroke-linecap:round;stroke-linejoin:round"></rect><rect x="383.78" y="260.59" width="70.16" height="9.91" transform="translate(121.17 -131.11) rotate(20.74)" style="fill:#fff;stroke:#263238;stroke-linecap:round;stroke-linejoin:round"></rect><rect x="443.39" y="271.5" width="8.55" height="9.91" transform="translate(126.9 -140.61) rotate(20.74)" style="fill:#fff;stroke:#263238;stroke-linecap:round;stroke-linejoin:round"></rect><rect x="410.56" y="217.28" width="10.49" height="94.23" transform="translate(120.56 -130.11) rotate(20.74)" style="fill:#fff;stroke:#263238;stroke-linecap:round;stroke-linejoin:round"></rect><path d="M501.18,253.73c-10.64-7.53-27.83-7.18-42.78,2-16.33,10-24.56,27.11-20.48,40.68a39.45,39.45,0,0,1,26-69.15c1.21,0,2.4.06,3.58.17A39.45,39.45,0,0,1,501.18,253.73Z" style="fill:#7d7d7d;stroke:#263238;stroke-linecap:round;stroke-linejoin:round"></path><path d="M501.18,253.73c-10.64-7.53-27.83-7.18-42.78,2,0-11.11,3.48-21.14,9.08-28.3A39.45,39.45,0,0,1,501.18,253.73Z" style="fill:#92E3A9;stroke:#263238;stroke-linecap:round;stroke-linejoin:round"></path><path d="M503.36,266.67a39.5,39.5,0,0,1-28.29,37.86,22.87,22.87,0,0,0,5-10.9c2.29-13.19-6.16-28.79-21.69-37.94,15-9.14,32.14-9.49,42.78-2A39.31,39.31,0,0,1,503.36,266.67Z" style="fill:#263238;stroke:#263238;stroke-linecap:round;stroke-linejoin:round"></path><path d="M480.09,293.63a22.87,22.87,0,0,1-5,10.9,39.46,39.46,0,0,1-37.15-8.16c-4.08-13.57,4.15-30.7,20.48-40.68C473.93,264.84,482.38,280.44,480.09,293.63Z" style="fill:#fff;stroke:#263238;stroke-linecap:round;stroke-linejoin:round"></path><path d="M437.92,296.37a39.47,39.47,0,0,1-9.44-47.1c9.23-1.46,20,.58,29.92,6.42C442.07,265.67,433.84,282.8,437.92,296.37Z" style="fill:#cfcfcf;stroke:#263238;stroke-linecap:round;stroke-linejoin:round"></path><path d="M464.75,255.69a6.35,6.35,0,1,1-6.35-6.35A6.34,6.34,0,0,1,464.75,255.69Z" style="fill:#fff;stroke:#263238;stroke-linecap:round;stroke-linejoin:round"></path><path d="M431.7,247a9.49,9.49,0,1,0-10.8,8A9.49,9.49,0,0,0,431.7,247Z" style="fill:#a3a3a3;stroke:#263238;stroke-linecap:round;stroke-linejoin:round"></path><path d="M427.1,246.31a4.84,4.84,0,1,0-5.51,4.07A4.83,4.83,0,0,0,427.1,246.31Z" style="fill:#fff;stroke:#263238;stroke-linecap:round;stroke-linejoin:round"></path><path d="M392.46,233.43a9.49,9.49,0,1,0-10.79,8A9.48,9.48,0,0,0,392.46,233.43Z" style="fill:#a3a3a3;stroke:#263238;stroke-linecap:round;stroke-linejoin:round"></path><path d="M387.86,232.74a4.84,4.84,0,1,0-5.5,4.07A4.84,4.84,0,0,0,387.86,232.74Z" style="fill:#fff;stroke:#263238;stroke-linecap:round;stroke-linejoin:round"></path><circle cx="396.6" cy="250.14" r="22.7" transform="translate(23.14 533.68) rotate(-69.45)" style="fill:#a3a3a3;stroke:#263238;stroke-linecap:round;stroke-linejoin:round"></circle><path d="M373.81,259.92s-4.7-2.08-16-2.13-21.53,3.09-24.06,7.65-1.22,11.63,3.39,14.24,14.66-4.66,24.08-6,15.65-.68,19.85-.6,5.09-5.82,2.06-8.48S373.81,259.92,373.81,259.92Z" style="fill:#a3a3a3;stroke:#263238;stroke-linecap:round;stroke-linejoin:round"></path><path d="M408.33,268.2s5.08.57,14.62,6.5,16.4,14.2,16,19.72-5.34,11.31-10.65,11.27-9.76-12-16.94-18.21-12.77-8.88-16.35-11-1.08-8,2.91-8.87S408.33,268.2,408.33,268.2Z" style="fill:#a3a3a3;stroke:#263238;stroke-linecap:round;stroke-linejoin:round"></path><circle cx="380.83" cy="296.01" r="33.09" transform="translate(-101.51 294.99) rotate(-37.73)" style="fill:#a3a3a3;stroke:#263238;stroke-linecap:round;stroke-linejoin:round"></circle><ellipse cx="384.47" cy="280.94" rx="17.48" ry="22.54" transform="translate(-21.47 529.85) rotate(-67.67)" style="fill:#fff;stroke:#263238;stroke-linecap:round;stroke-linejoin:round"></ellipse><path d="M407.29,254.87a11.51,11.51,0,1,0-13.09,9.67A11.52,11.52,0,0,0,407.29,254.87Z" style="fill:#fff;stroke:#263238;stroke-linecap:round;stroke-linejoin:round"></path><path d="M401.86,247.56a3.57,3.57,0,1,1-3-4.28A3.68,3.68,0,0,1,401.86,247.56Z" style="fill:#263238;stroke:#263238;stroke-linecap:round;stroke-linejoin:round"></path><path d="M396.39,237.62a1.9,1.9,0,1,1-1.59-2.16A1.9,1.9,0,0,1,396.39,237.62Z" style="fill:#263238"></path><path d="M407.92,240.79a1.9,1.9,0,1,1-1.6-2.16A1.91,1.91,0,0,1,407.92,240.79Z" style="fill:#263238"></path><path d="M368.87,294.61S359.78,283,352.72,282s-13,4.07-16.32,10.48-4.06,9-4.06,9-6.75-3.12-9.27,1.62,3.31,14,16.4,19,19.55-10,20.53-10.46" style="fill:#a3a3a3;stroke:#263238;stroke-linecap:round;stroke-linejoin:round"></path><path d="M343.58,317.85c-1.59,2.2-6.27,1.54-10.48-1.48s-6.33-7.25-4.74-9.45,6.27-1.54,10.47,1.48S345.16,315.65,343.58,317.85Z" style="fill:#fff;stroke:#263238;stroke-linecap:round;stroke-linejoin:round"></path><path d="M404.66,309.25s-9.3-12.69-16.6-13.78-13.45,4.62-17,11.73-4.29,10-4.29,10-7-3.37-9.62,1.88,3.28,15.45,16.79,20.8,21.72-14.91,22.73-15.43" style="fill:#a3a3a3;stroke:#263238;stroke-linecap:round;stroke-linejoin:round"></path><path d="M378.22,335.14c-1.66,2.45-6.51,1.77-10.83-1.52s-6.48-7.94-4.82-10.38,6.51-1.76,10.83,1.53S379.88,332.7,378.22,335.14Z" style="fill:#fff;stroke:#263238;stroke-linecap:round;stroke-linejoin:round"></path><path d="M331.93,311.49a134.67,134.67,0,0,1-18.07-3.37c-3.06-.79-6.3-1.82-8.23-4.32a4,4,0,0,0-1.19-1.22c-1.17-.59-2.59.63-2.73,1.94-.66,6.47,8.5,14.44,11.53,19.61,9.2,15.69,21.1,46,25.43,55.19s-2.21,45.59,14.55,74.5c12.1,20.89,52.75,15.11,74.24,15.11,25.63,0,40.05.15,48.7.15s41.93,1.53,65.11-1.37c10.42-1.3,21.63-2.29,31.2-15.23,20.07-27.16,3.46-75-8.44-92.84S522.65,324.13,520,322,501,304.11,490.73,302.48s-67.64,5.42-100.11,6.5C371,309.63,351.56,313.77,331.93,311.49Z" style="fill:#92E3A9;stroke:#263238;stroke-linecap:round;stroke-linejoin:round"></path><path d="M390.62,309c-19.61.65-39.06,4.79-58.69,2.51a134.67,134.67,0,0,1-18.07-3.37c-3.06-.79-6.3-1.82-8.23-4.32a4,4,0,0,0-1.19-1.22c-1.17-.59-2.59.63-2.73,1.94-.64,6.32,8.07,14.06,11.3,19.24,9.48,5,24.33,13.86,47.74,14.84,30.47,1.27,58.65-8.88,79.38-15.65s57.13-6.77,74.48-3.39l3.31.64c-5.35-4.74-18.43-16.33-27.19-17.72C480.45,300.86,423.09,307.9,390.62,309Z" style="fill:#263238;stroke:#263238;stroke-linecap:round;stroke-linejoin:round"></path><line x1="424.49" y1="447.41" x2="430.11" y2="450.23" style="fill:none;stroke:#263238;stroke-linecap:round;stroke-linejoin:round"></line><path d="M435.27,452.77s5.4,4.32,17.83,7" style="fill:none;stroke:#263238;stroke-linecap:round;stroke-linejoin:round"></path><path d="M369.59,362.55a118.92,118.92,0,0,0,15,7.23" style="fill:none;stroke:#263238;stroke-linecap:round;stroke-linejoin:round"></path><path d="M325.58,330.59s18.44,16.56,39.17,29.13" style="fill:none;stroke:#263238;stroke-linecap:round;stroke-linejoin:round"></path><path d="M355.59,378.51a40.13,40.13,0,0,0,3.52,3.39" style="fill:none;stroke:#263238;stroke-linecap:round;stroke-linejoin:round"></path><path d="M334.87,350s8.93,14.47,17.27,24.59" style="fill:none;stroke:#263238;stroke-linecap:round;stroke-linejoin:round"></path><path d="M300.39,298.92s-6.32,12.27,23.48,27.42c22.07,11.22,53.24,9.06,89.18,4.77,29.52-3.53,50.7-13.5,67.59-15.43a49.76,49.76,0,0,1,23.22,2.89c6.64,2.51,14.25,4.88,16.09,3.39,3.41-2.76,1.25-9.58.89-14.25s12.41-15.84-1.79-27.3c-9.2-7.42-26.58,1.08-40.59,4.67s-69,17.63-104.95,18.44C292.42,305.35,313.68,292.7,300.39,298.92Z" style="fill:#fff;stroke:#263238;stroke-linecap:round;stroke-linejoin:round"></path><path d="M342.4,318.79c26.66,4,54.16-1.3,55.1-1.54" style="fill:none;stroke:#263238;stroke-linecap:round;stroke-linejoin:round"></path><path d="M304.44,302.58s5.32,7.28,23.35,12.92a91.53,91.53,0,0,0,9.69,2.44" style="fill:none;stroke:#263238;stroke-linecap:round;stroke-linejoin:round"></path><path d="M514.26,316.45S488.4,305.94,469,310.79s-21.41,8.08-40.4,12.52" style="fill:none;stroke:#263238;stroke-linecap:round;stroke-linejoin:round"></path><path d="M422.14,324.93s-6.87.81-13.73,2" style="fill:none;stroke:#263238;stroke-linecap:round;stroke-linejoin:round"></path><line x1="401.54" y1="316.45" x2="407.19" y2="314.83" style="fill:none;stroke:#263238;stroke-linecap:round;stroke-linejoin:round"></line></g><g id="Character"><path d="M290.59,447.64s4.21,1.06,5.53,1.41,15.82.14,17.78-.28,3.2-.92,3.61.52.52,2.48-3,5.58a40.38,40.38,0,0,1-11.67,7c-3.92,1.55-11.46,6.1-13.21,6.51s-4,.51-4.75-.83-4.3-14.21-4.3-14.21S287.52,451.15,290.59,447.64Z" style="fill:#fff;stroke:#263238;stroke-linecap:round;stroke-linejoin:round"></path><path d="M314.52,454.87c3.51-3.1,3.4-4.13,3-5.58a2.1,2.1,0,0,0-.19-.45c-3,3.4-11,9.78-21.31,12.45A103.92,103.92,0,0,0,284,465a22.89,22.89,0,0,0,.92,2.59c.72,1.34,3,1.24,4.75.83s9.29-5,13.21-6.51A40.38,40.38,0,0,0,314.52,454.87Z" style="fill:#fff;stroke:#263238;stroke-linecap:round;stroke-linejoin:round"></path><path d="M288.37,443.08l2.81,4.81s-.41,3.79-6.29,5.72c-5,1.64-4.95.5-4.95.5l-2.81-6.42S285.56,446.09,288.37,443.08Z" style="fill:#fff;stroke:#263238;stroke-linecap:round;stroke-linejoin:round"></path><path d="M254.93,326.89s17,33.07,20.81,51,12.63,60.55,13.44,62.56,1.6,4.41-1.81,6.42-6.62,3.41-8.83,3.21-4.22-2.61-7.23-10.44-12.1-38.14-14-44.51-9.68-23.38-10.63-26-18.65-2.83-29.51-8.5-16.76-24.08-16.76-24.08l52.18-11.33Z" style="fill:#a3a3a3;stroke:#263238;stroke-linecap:round;stroke-linejoin:round"></path><path d="M233.75,197.39s1.62,1,5.53,0,6.34-3,3.78-7.28a30.2,30.2,0,0,0-5.53-6.88s6.48,2.83,2.43-2.43-15-12-33.72-8.09-27.52,19.69-29,25.36-7.68,18.34-5.26,25,5.4.81,5.4.81,2.7,6.34,12.68,8.9,26-2.15,26-2.15,10.52.53,14-1.76a19.71,19.71,0,0,0,5.53-5.66s-.4,3.23,1.76-.41,4.18-7,2-15.24S233.75,197.39,233.75,197.39Z" style="fill:#263238;stroke:#263238;stroke-linecap:round;stroke-linejoin:round"></path><path d="M220.26,186.87s-20,14.57-21.44,16.73,1.35,3.1.13,3.77-2.16-1.34-2.56-2.15-5.94-4.32-6.21,3.1,4.32,9.31,6.21,9.58a25.38,25.38,0,0,0,3.24.27l5.53,17,19.69-1.89-.67-4.18a23.31,23.31,0,0,0,6.07-7.42c2.29-4.58,3.5-11.06,1.88-16.72s-2-7.83-2-7.83S222.83,188.49,220.26,186.87Z" style="fill:#fff;stroke:#263238;stroke-linecap:round;stroke-linejoin:round"></path><path d="M223.1,201.57s-.54,4.46,1.48,7,3.37,3.37,2.56,4.31-2,1.49-4.45,1.62-3.1-.67-3.1-.67" style="fill:none;stroke:#263238;stroke-linecap:round;stroke-linejoin:round"></path><path d="M220.13,217.63a11.24,11.24,0,0,1-5.8-1.62,23.42,23.42,0,0,1-3.64-2.57s1.48,6.48,3.1,6.88S220.13,217.63,220.13,217.63Z" style="fill:none;stroke:#263238;stroke-linecap:round;stroke-linejoin:round"></path><path d="M210.82,200.36a7.52,7.52,0,0,1,7.15-1.48" style="fill:none;stroke:#263238;stroke-linecap:round;stroke-linejoin:round"></path><path d="M223.91,199.28a5.06,5.06,0,0,1,5.53,1.21" style="fill:none;stroke:#263238;stroke-linecap:round;stroke-linejoin:round"></path><ellipse cx="215.01" cy="204.7" rx="1.34" ry="1.78" style="fill:#263238"></ellipse><path d="M228.62,205a1.39,1.39,0,1,1-2.68,0c0-1,.6-1.78,1.34-1.78S228.62,204,228.62,205Z" style="fill:#263238"></path><path d="M224.18,229.09a9,9,0,0,1-4.19,1.22c-1.88-.14-7.82-1.22-7.82-1.22l7.42,4.59,5.26-.41Z" style="fill:#263238;stroke:#263238;stroke-linecap:round;stroke-linejoin:round"></path><path d="M244.9,429.65a37.52,37.52,0,0,0-.67,13.11c.89,7.44,3.44,16.43,4.11,17.77s-.33,4-2.33,4.22-2.34,1.11-6.89-3.44-9.33-9-11.11-14.89-5.33-13.44-4.55-14.66,13.22-6.89,13.22-6.89Z" style="fill:#fff;stroke:#263238;stroke-linecap:round;stroke-linejoin:round"></path><path d="M246,464.75a1.4,1.4,0,0,0,.28-.06c-6-4.15-12.09-13.77-15-22.55a112.5,112.5,0,0,0-4.78-12.32,12.08,12.08,0,0,0-3,1.94c-.78,1.22,2.77,8.77,4.55,14.66s6.56,10.33,11.11,14.89S244,465,246,464.75Z" style="fill:#fff;stroke:#263238;stroke-linecap:round;stroke-linejoin:round"></path><path d="M239.12,419.1l-3.78,6.22a9.92,9.92,0,0,0,3.34,4.22A17.25,17.25,0,0,0,243,431.9a2.45,2.45,0,0,0,3.13-1.31l3.11-7.16S241,420.76,239.12,419.1Z" style="fill:#fff;stroke:#263238;stroke-linecap:round;stroke-linejoin:round"></path><path d="M227.33,336.12s31.56,10.94,53.84,26.44c2.36,1.65,4,4.49,2.36,8.5s-32.82,54.78-35.18,54.78-6.61-3.3-8.27-4.25-1.89-2.6-.23-6.37,15.34-39.91,15.34-39.91-10.86-1.89-32.34-10.39-22.91-27.86-22.91-27.86l21.25-4.48" style="fill:#a3a3a3;stroke:#263238;stroke-linecap:round;stroke-linejoin:round"></path><path d="M195.44,330.13s1.89,7.95,3.24,8.36,53.82-10.66,56.25-11.6.95-2.57.68-3.24-2.43-5.67-2.43-5.67Z" style="fill:#92E3A9;stroke:#263238;stroke-linecap:round;stroke-linejoin:round"></path><path d="M300.51,284.53s10.11-3.32,10.83-2.16a119.25,119.25,0,0,1,4.77,12.56c.28,1.44-1.59,2.6-2.75,3.32a2.86,2.86,0,0,1-3.18.15c-1.15-.58-2.74-3.33-2.74-3.33s-5.77,2.6-7.36,2.6S300.51,284.53,300.51,284.53Z" style="fill:#fff;stroke:#263238;stroke-linecap:round;stroke-linejoin:round"></path><path d="M294.16,286.12c-.36.12-3.62,0-4.7,0-3.89-3-28.31-22.1-40.33-32.76-13.08-11.6-16.59-14.57-24-14.57s-23.88,2.15-24,2.16c-17.05,2.22-16.66,28.61-15.6,41.08.74,8.66,2,17.31,2.89,25.95.71,6.55.36,14.62,2.46,20.92.54,1.62,6.2,2.16,7.15,1.89s54.63-10.12,55.71-10.52,2.29-1.35,1.62-5.53-12.28-37-12.28-37l37.54,14.43-.16.11s9.82,4.62,13,5.2a25.15,25.15,0,0,0,6.65.14l.43-13.14S294.59,286,294.16,286.12Z" style="fill:#92E3A9;stroke:#263238;stroke-linecap:round;stroke-linejoin:round"></path><polygon points="210.57 243.56 211.04 317.46 228.28 315.57 219.07 243.56 210.57 243.56" style="fill:#fff;stroke:#263238;stroke-linecap:round;stroke-linejoin:round"></polygon><polygon points="210.92 298.85 210.94 302.53 226.38 300.78 225.92 297.15 210.92 298.85" style="fill:#263238"></polygon><polygon points="210.85 288.56 210.88 292.24 225.09 290.62 224.62 286.99 210.85 288.56" style="fill:#263238"></polygon><polygon points="211.01 312.82 227.68 310.93 227.22 307.3 210.99 309.14 211.01 312.82" style="fill:#263238"></polygon><polygon points="210.72 267.97 210.75 271.65 222.49 270.32 222.03 266.69 210.72 267.97" style="fill:#263238"></polygon><polygon points="210.59 247.39 210.62 251.07 219.89 250.01 219.43 246.38 210.59 247.39" style="fill:#263238"></polygon><polygon points="210.66 257.68 210.68 261.36 221.19 260.17 220.73 256.54 210.66 257.68" style="fill:#263238"></polygon><polygon points="210.79 278.26 210.81 281.95 223.79 280.47 223.32 276.84 210.79 278.26" style="fill:#263238"></polygon><polygon points="222.85 243.09 235.6 303.53 219.3 306.84 216 243.32 222.85 243.09" style="fill:#fff;stroke:#263238;stroke-linecap:round;stroke-linejoin:round"></polygon><polygon points="218.1 283.62 218.29 287.28 231.84 285.74 231.08 282.14 218.1 283.62" style="fill:#263238"></polygon><polygon points="218.82 297.52 233.97 295.8 233.21 292.2 218.63 293.86 218.82 297.52" style="fill:#263238"></polygon><polygon points="217.56 273.38 217.75 277.04 229.72 275.68 228.96 272.08 217.56 273.38" style="fill:#263238"></polygon><polygon points="216 243.32 216.16 246.32 223.36 245.5 222.85 243.09 216 243.32" style="fill:#263238"></polygon><polygon points="216.5 252.9 216.69 256.56 225.48 255.56 224.72 251.97 216.5 252.9" style="fill:#263238"></polygon><polygon points="217.03 263.14 217.22 266.8 227.6 265.62 226.84 262.02 217.03 263.14" style="fill:#263238"></polygon><path d="M217.57,232.06s-11.87.4-14,.4-3.37.27-3.51,1.89-1.35,7.56-.27,8.91,12.82,3.77,19.43,2.42,8.36-2.42,8.49-5.39-1.35-9.31-2.16-9.85S217.57,232.06,217.57,232.06Z" style="fill:#fff;stroke:#263238;stroke-linecap:round;stroke-linejoin:round"></path><path d="M204.26,244.89c1,.21,2,.42,3.13.59v-13.1l-3.13.08Z" style="fill:#263238"></path><path d="M221.69,245.12a20,20,0,0,0,3-1l-1.66-13.54c-1,.2-2.09.48-3.06.74Z" style="fill:#263238"></path><path d="M216,246.05l-.83-13.91-3.13.1.83,13.8C213.89,246.09,214.94,246.09,216,246.05Z" style="fill:#263238"></path><path d="M302.29,287.55s6-2.3,8-2.78,2.22,2.41,5.05,6.1,2.47,7,1.49,8.63-1.68,2.06-3.57,1.81-3.24-3-3.24-3a15.26,15.26,0,0,1-4,1.54,11.06,11.06,0,0,1-2.89.21Z" style="fill:#fff;stroke:#263238;stroke-linecap:round;stroke-linejoin:round"></path><path d="M310.05,298.35s1.12-1.61,1.69-1.77,1.76,1.12,1.91,1.55" style="fill:#fff;stroke:#263238;stroke-linecap:round;stroke-linejoin:round"></path><path d="M196.12,281.27s37.19,9.69,61.31,14.27c4.77.91,9.57,1.69,14.39,2.28,4.21.52,8.44.92,12.64,1.6s8.08,1.78,12.22,1.69a43.44,43.44,0,0,0,6.47-1l.13-13.58c0,.47-5.17.93-5.67,1-.95.12-1.89.21-2.83.24a15.69,15.69,0,0,1-6.11-.91c-3.68-1.4-7.15-3.7-10.62-5.55L266,274.88c-12.57-6.64-25.15-13.26-37.8-19.75-5-2.54-9.94-5.08-15-7.51a55.65,55.65,0,0,0-7.89-3.52h0a12.87,12.87,0,0,0-10.72,1.78" style="fill:#92E3A9;stroke:#263238;stroke-linecap:round;stroke-linejoin:round"></path></g><g id="Text"><path d="M321.35,46.35a5.08,5.08,0,0,1-3.16-.85,4.29,4.29,0,0,1-1.54-2.29,11,11,0,0,1-.43-3.19V32a11.32,11.32,0,0,1,.44-3.3,4.15,4.15,0,0,1,1.56-2.23,5.37,5.37,0,0,1,3.13-.8,5.1,5.1,0,0,1,2.86.7,3.87,3.87,0,0,1,1.49,2,9.33,9.33,0,0,1,.45,3.07v1.22h-1.8V31.45a10.67,10.67,0,0,0-.21-2.28,2.52,2.52,0,0,0-.87-1.48,3,3,0,0,0-1.92-.52,3.2,3.2,0,0,0-2,.56,2.76,2.76,0,0,0-.92,1.59,10.45,10.45,0,0,0-.24,2.38v8.62a8.84,8.84,0,0,0,.29,2.5,2.67,2.67,0,0,0,1,1.5,3.23,3.23,0,0,0,1.93.5,2.88,2.88,0,0,0,1.92-.55,2.63,2.63,0,0,0,.87-1.53,11.27,11.27,0,0,0,.21-2.32V39.1h1.8v1.2a11.19,11.19,0,0,1-.41,3.15,4,4,0,0,1-1.45,2.14A5,5,0,0,1,321.35,46.35Z" style="fill:#263238"></path><path d="M329.1,46.1V25.84H331v9h6.37v-9h1.9V46.1h-1.9V36.25H331V46.1Z" style="fill:#263238"></path><path d="M342.85,46.1V25.84h4.58a6.11,6.11,0,0,1,3,.62A3.55,3.55,0,0,1,352,28.23a7.25,7.25,0,0,1,.48,2.76,9.08,9.08,0,0,1-.25,2.13,4.13,4.13,0,0,1-.85,1.7,2.93,2.93,0,0,1-1.7.93l3.1,10.35h-1.85l-3-10h-3.18v10Zm1.9-11.35h2.58a3.88,3.88,0,0,0,2-.43,2.37,2.37,0,0,0,1-1.25,6.14,6.14,0,0,0,.3-2.08,4.93,4.93,0,0,0-.65-2.8,3,3,0,0,0-2.58-.92h-2.63Z" style="fill:#263238"></path><path d="M355.71,46.1V25.84h1.9V46.1Z" style="fill:#263238"></path><path d="M365.51,46.35a5,5,0,0,1-2.74-.69,4.34,4.34,0,0,1-1.64-1.92,8.83,8.83,0,0,1-.67-2.89l1.67-.5a11.89,11.89,0,0,0,.45,2.26,3.35,3.35,0,0,0,1,1.6,2.9,2.9,0,0,0,1.92.59,3,3,0,0,0,2.1-.7,2.93,2.93,0,0,0,.75-2.23,4.07,4.07,0,0,0-.66-2.31,11.65,11.65,0,0,0-1.81-2.06l-3.58-3.43a6.49,6.49,0,0,1-1.4-1.91,5.17,5.17,0,0,1-.45-2.17,4.12,4.12,0,0,1,1.25-3.22,4.8,4.8,0,0,1,3.33-1.13,6.54,6.54,0,0,1,1.94.28,3.57,3.57,0,0,1,1.47.89,4.14,4.14,0,0,1,1,1.58,9.25,9.25,0,0,1,.48,2.38l-1.63.43a8.63,8.63,0,0,0-.41-2.19,2.76,2.76,0,0,0-1-1.39,3.65,3.65,0,0,0-3.89.17,2.45,2.45,0,0,0-.8,2,3.5,3.5,0,0,0,.31,1.5,5.24,5.24,0,0,0,1.11,1.45l3.58,3.38a12.69,12.69,0,0,1,2.07,2.5,5.58,5.58,0,0,1,.88,3.1,5.12,5.12,0,0,1-.59,2.55,3.81,3.81,0,0,1-1.64,1.54A5.45,5.45,0,0,1,365.51,46.35Z" style="fill:#263238"></path><path d="M375.21,46.1V27.32h-3.83V25.84h9.43v1.48h-3.7V46.1Z" style="fill:#263238"></path><path d="M382.74,46.1l.5-20.26h1.87l4,17.58,4.07-17.58h1.9l.5,20.26H394L393.64,30,389.76,46.1h-1.22L384.71,30l-.4,16.11Z" style="fill:#263238"></path><path d="M397.87,46.1l4.27-20.26h2l4.3,20.26h-1.87l-1-5.43h-4.83l-1,5.43ZM401,39.3h4.3l-2.18-10.93Z" style="fill:#263238"></path><path d="M415.19,46.35a5,5,0,0,1-2.73-.69,4.22,4.22,0,0,1-1.64-1.92,8.83,8.83,0,0,1-.68-2.89l1.68-.5a10.51,10.51,0,0,0,.45,2.26,3.34,3.34,0,0,0,1,1.6,2.93,2.93,0,0,0,1.93.59,3,3,0,0,0,2.1-.7,2.93,2.93,0,0,0,.75-2.23,4.07,4.07,0,0,0-.66-2.31,11.74,11.74,0,0,0-1.82-2.06L412,34.07a6.31,6.31,0,0,1-1.4-1.91,5.17,5.17,0,0,1-.45-2.17,4.08,4.08,0,0,1,1.25-3.22,4.77,4.77,0,0,1,3.32-1.13,6.44,6.44,0,0,1,1.94.28,3.54,3.54,0,0,1,1.48.89,4.14,4.14,0,0,1,1,1.58,9.72,9.72,0,0,1,.47,2.38L418,31.2a9.61,9.61,0,0,0-.41-2.19,2.78,2.78,0,0,0-1-1.39,3.07,3.07,0,0,0-1.84-.48,3.18,3.18,0,0,0-2.05.65,2.48,2.48,0,0,0-.8,2,3.51,3.51,0,0,0,.32,1.5,4.87,4.87,0,0,0,1.11,1.45l3.57,3.38a12.74,12.74,0,0,1,2.08,2.5,5.66,5.66,0,0,1,.87,3.1,5.12,5.12,0,0,1-.58,2.55,3.81,3.81,0,0,1-1.64,1.54A5.5,5.5,0,0,1,415.19,46.35Z" style="fill:#263238"></path><path d="M255,99.78V59.42h-7.34V52.2H272v7.22h-7.23V99.78Z" style="fill:#263238"></path><path d="M289.19,100.43a15.77,15.77,0,0,1-8.28-1.88,10.44,10.44,0,0,1-4.38-5.38,23.72,23.72,0,0,1-1.32-8.37V67.06a23.47,23.47,0,0,1,1.32-8.34,10.16,10.16,0,0,1,4.38-5.29,19.8,19.8,0,0,1,16.65,0A10.27,10.27,0,0,1,302,58.75a23.22,23.22,0,0,1,1.32,8.31V84.8A23.72,23.72,0,0,1,302,93.17a10.4,10.4,0,0,1-4.41,5.38A16,16,0,0,1,289.19,100.43Zm0-7a3.82,3.82,0,0,0,2.76-.85,4.3,4.3,0,0,0,1.18-2.29,15.9,15.9,0,0,0,.29-3.09V64.71a15.34,15.34,0,0,0-.29-3A4.31,4.31,0,0,0,292,59.39a3.86,3.86,0,0,0-2.76-.85,3.71,3.71,0,0,0-2.64.85,4.31,4.31,0,0,0-1.18,2.27,15.34,15.34,0,0,0-.29,3v22.5a17.71,17.71,0,0,0,.26,3.09,4.14,4.14,0,0,0,1.15,2.29A3.75,3.75,0,0,0,289.19,93.44Z" style="fill:#263238"></path><path d="M315.22,99.78V80.93L305.94,52.2H315l5.11,16.74,4.76-16.74h8.82l-9.17,28.73V99.78Z" style="fill:#263238"></path><path d="M352.11,99.78V52.2h11.64a23.25,23.25,0,0,1,9.43,1.55A9.19,9.19,0,0,1,378,58.63a21.87,21.87,0,0,1,1.41,8.49V84.45A22.89,22.89,0,0,1,378,93.14a9.39,9.39,0,0,1-4.73,5c-2.21,1.08-5.29,1.61-9.25,1.61Zm9.7-6.75h2.05a6.68,6.68,0,0,0,3.85-.85,3.86,3.86,0,0,0,1.44-2.53,24.19,24.19,0,0,0,.29-4.14V65.89a16.36,16.36,0,0,0-.38-4,3.41,3.41,0,0,0-1.53-2.2A7.38,7.38,0,0,0,363.8,59h-2Z" style="fill:#263238"></path><path d="M385.78,99.78V52.2h12.33a27.72,27.72,0,0,1,8.26,1.08,9.7,9.7,0,0,1,5.29,3.85,13.64,13.64,0,0,1,1.85,7.64A24.47,24.47,0,0,1,413,70a10,10,0,0,1-1.77,3.93,8.64,8.64,0,0,1-3.55,2.68l6.58,23.2h-9.93l-5.46-21.56h-3.41V99.78Zm9.69-27.31h2.82a7.52,7.52,0,0,0,3.7-.77,4.17,4.17,0,0,0,1.91-2.32,11.56,11.56,0,0,0,.56-3.85,8.72,8.72,0,0,0-1.21-5c-.8-1.16-2.3-1.73-4.49-1.73h-3.29Z" style="fill:#263238"></path><path d="M420,99.78V52.2h9.63V99.78Z" style="fill:#263238"></path><path d="M443.64,99.78l-9-47.58H443l5.64,32.9,5.29-32.9h8.75l-9.05,47.58Z" style="fill:#263238"></path><path d="M467.55,99.78V52.2h20.74v6.69h-11V71.53h8.52v6.75h-8.52V93.2h11.16v6.58Z" style="fill:#263238"></path></g></svg>