<svg xmlns="http://www.w3.org/2000/svg" viewBox="0 0 750 500"><g id="background-simple"><path d="M634.74,160.41S505.06,39.33,388,32.72,239.09,63.15,206,108.8,95.52,162.39,53.84,242.45,35.32,456.14,172.27,470s153.49-60.21,253.4-43.67,114.46,52.27,199.8,21.84S743.24,255.68,634.74,160.41Z" style="fill:#92E3A9"></path><path d="M634.74,160.41S505.06,39.33,388,32.72,239.09,63.15,206,108.8,95.52,162.39,53.84,242.45,35.32,456.14,172.27,470s153.49-60.21,253.4-43.67,114.46,52.27,199.8,21.84S743.24,255.68,634.74,160.41Z" style="fill:#fff;opacity:0.7000000000000001"></path></g><g id="Wall"><rect x="458.55" y="178.83" width="27.38" height="11.08" style="opacity:0.2"></rect><rect x="448.12" y="139.39" width="27.38" height="11.08" style="opacity:0.2"></rect><rect x="349.02" y="178.51" width="27.38" height="11.08" style="opacity:0.2"></rect><rect x="388.79" y="101.39" width="27.38" height="11.08" style="opacity:0.2"></rect><rect x="418.78" y="101.39" width="27.38" height="11.08" style="opacity:0.2"></rect><rect x="302.08" y="260.47" width="27.38" height="11.08" style="opacity:0.2"></rect><rect x="287.74" y="274.16" width="27.38" height="11.08" style="opacity:0.2"></rect><rect x="433.12" y="154.71" width="27.38" height="11.08" style="opacity:0.1"></rect><rect x="474.2" y="216.97" width="27.38" height="11.08" style="opacity:0.1"></rect><rect x="313.81" y="233.92" width="27.38" height="11.08" style="opacity:0.1"></rect><rect x="345.11" y="233.92" width="27.38" height="11.08" style="opacity:0.1"></rect><rect x="347.72" y="218.28" width="27.38" height="11.08" style="opacity:0.1"></rect><rect x="464.42" y="154.71" width="27.38" height="11.08" style="opacity:0.1"></rect><rect x="382.92" y="273.04" width="27.38" height="11.08" style="opacity:0.2"></rect><rect x="367.93" y="288.36" width="27.38" height="11.08" style="opacity:0.1"></rect><rect x="399.22" y="288.36" width="27.38" height="11.08" style="opacity:0.1"></rect><rect x="250.18" y="135.09" width="27.38" height="11.08" style="opacity:0.2"></rect><rect x="235.18" y="150.41" width="27.38" height="11.08" style="opacity:0.1"></rect><rect x="266.48" y="150.41" width="27.38" height="11.08" style="opacity:0.1"></rect><rect x="239.49" y="217.62" width="27.38" height="11.08" style="opacity:0.2"></rect><rect x="360.75" y="164.63" width="27.38" height="11.08" style="opacity:0.1"></rect><rect x="319.68" y="273.5" width="27.38" height="11.08" style="opacity:0.1"></rect><rect x="404.44" y="87.7" width="27.38" height="11.08" style="opacity:0.1"></rect><rect x="393.85" y="57.26" width="27.38" height="11.08" style="opacity:0.1"></rect><rect x="223.84" y="180.93" width="27.38" height="11.08" style="opacity:0.2"></rect><rect x="239.49" y="167.23" width="27.38" height="11.08" style="opacity:0.1"></rect><rect x="309.25" y="100.6" width="27.38" height="11.08" style="opacity:0.1"></rect><rect x="404.44" y="178.83" width="27.38" height="11.08" style="opacity:0.2"></rect><rect x="430.76" y="241.02" width="27.38" height="11.08" style="opacity:0.2"></rect><rect x="420.33" y="201.58" width="27.38" height="11.08" style="opacity:0.2"></rect><rect x="405.33" y="216.9" width="27.38" height="11.08" style="opacity:0.1"></rect><rect x="436.63" y="216.9" width="27.38" height="11.08" style="opacity:0.1"></rect><rect x="376.65" y="241.02" width="27.38" height="11.08" style="opacity:0.2"></rect><rect x="110.37" y="290.14" width="27.38" height="11.08" style="opacity:0.2"></rect><rect x="99.94" y="250.69" width="27.38" height="11.08" style="opacity:0.2"></rect><rect x="84.94" y="266.01" width="27.38" height="11.08" style="opacity:0.1"></rect><rect x="116.24" y="266.01" width="27.38" height="11.08" style="opacity:0.1"></rect><rect x="56.26" y="290.14" width="27.38" height="11.08" style="opacity:0.2"></rect><rect x="189.76" y="231.92" width="27.38" height="11.08" style="opacity:0.2"></rect><rect x="179.33" y="192.47" width="27.38" height="11.08" style="opacity:0.2"></rect><rect x="164.34" y="207.79" width="27.38" height="11.08" style="opacity:0.1"></rect><rect x="195.63" y="207.79" width="27.38" height="11.08" style="opacity:0.1"></rect><rect x="135.65" y="231.92" width="27.38" height="11.08" style="opacity:0.2"></rect><rect x="586.07" y="241.18" width="27.38" height="11.08" style="opacity:0.2"></rect><rect x="575.63" y="201.73" width="27.38" height="11.08" style="opacity:0.2"></rect><rect x="560.64" y="217.06" width="27.38" height="11.08" style="opacity:0.1"></rect><rect x="591.93" y="217.06" width="27.38" height="11.08" style="opacity:0.1"></rect><rect x="557.11" y="141.53" width="27.38" height="11.08" style="opacity:0.2"></rect><rect x="542.11" y="156.85" width="27.38" height="11.08" style="opacity:0.1"></rect><rect x="573.41" y="156.85" width="27.38" height="11.08" style="opacity:0.1"></rect><rect x="531.95" y="241.18" width="27.38" height="11.08" style="opacity:0.2"></rect><rect x="264.33" y="64.72" width="27.38" height="11.08" style="opacity:0.2"></rect><rect x="145.85" y="165.88" width="27.38" height="11.08" style="opacity:0.1"></rect><rect x="177.14" y="165.88" width="27.38" height="11.08" style="opacity:0.1"></rect><rect x="179.75" y="150.23" width="27.38" height="11.08" style="opacity:0.1"></rect><rect x="206.24" y="124.86" width="27.38" height="11.08" style="opacity:0.1"></rect><rect x="301.49" y="76.13" width="27.38" height="11.08" style="opacity:0.2"></rect><rect x="381.98" y="43.39" width="27.38" height="11.08" style="opacity:0.2"></rect><rect x="425.21" y="55.62" width="27.38" height="11.08" style="opacity:0.2"></rect></g><g id="Lamps"><rect x="568.82" y="19.75" width="3.75" height="28.79" style="fill:#bababa;stroke:#b2b2b2;stroke-linecap:round;stroke-miterlimit:10"></rect><circle cx="570.7" cy="67.55" r="22.95" transform="translate(2.8 155.56) rotate(-15.56)" style="fill:#fff;stroke:#b2b2b2;stroke-linecap:round;stroke-miterlimit:10"></circle><rect x="155.78" y="19.75" width="3.75" height="28.79" style="fill:#bababa;stroke:#b2b2b2;stroke-linecap:round;stroke-miterlimit:10"></rect><circle cx="157.66" cy="67.55" r="22.95" transform="translate(-13.58 57.71) rotate(-19.9)" style="fill:#fff;stroke:#b2b2b2;stroke-linecap:round;stroke-miterlimit:10"></circle></g><g id="Floor"><line x1="663.26" y1="373.67" x2="53.13" y2="373.67" style="fill:none;stroke:#263238;stroke-linecap:round;stroke-miterlimit:10"></line></g><g id="Carpet"><polygon points="620.36 445.81 33.36 445.81 121.41 379.48 532.31 379.48 620.36 445.81" style="fill:none;stroke:#263238;stroke-linecap:round;stroke-miterlimit:10"></polygon><polygon points="500.95 432.32 152.77 432.32 205 392.97 448.72 392.97 500.95 432.32" style="fill:none;stroke:#263238;stroke-linecap:round;stroke-miterlimit:10"></polygon></g><g id="Sofa"><path d="M475.88,264.14c-3.28-13.87-17.52-15.33-17.52-15.33H166.24s-14.23,1.46-17.52,15.33,7.3,20.44,12.05,22.26a23.67,23.67,0,0,0,7.66,1.83v99.65H456.17V288.23a23.74,23.74,0,0,0,7.67-1.83C468.58,284.58,479.17,278,475.88,264.14Z" style="fill:#bababa;stroke:#263238;stroke-linecap:round;stroke-miterlimit:10"></path><path d="M168.43,288.23s-1.82-1.83-8-7.3-2.92-19.35,9.49-16.79,12.05,11.31,12.05,22.63,2.92,101.11,2.92,101.11H168.43Z" style="fill:#263238;stroke:#263238;stroke-linecap:round;stroke-miterlimit:10"></path><path d="M456.17,288.23s1.83-1.83,8-7.3,2.92-19.35-9.49-16.79-12,11.31-12,22.63-2.92,101.11-2.92,101.11h16.42Z" style="fill:#263238;stroke:#263238;stroke-linecap:round;stroke-miterlimit:10"></path><polygon points="440.94 344.81 183.4 344.81 182.8 318.16 442.03 318.16 440.94 344.81" style="fill:#263238;stroke:#263238;stroke-linecap:round;stroke-miterlimit:10"></polygon><line x1="184.13" y1="362.33" x2="441.1" y2="362.33" style="fill:none;stroke:#263238;stroke-linecap:round;stroke-miterlimit:10"></line><path d="M176.1,249.17s13.87,2.56,17.52,18.62,2.92,50.37,2.92,50.37" style="fill:none;stroke:#263238;stroke-linecap:round;stroke-miterlimit:10"></path><path d="M458.36,248.81S443.29,247,436,259.39s-5.48,59.13-5.48,59.13" style="fill:none;stroke:#263238;stroke-linecap:round;stroke-miterlimit:10"></path><path d="M241.6,260.18s3.34-2-18.41-1.67-28.11,4.35-28.11,4.35-7-.67-7.7,2,3.68,12.05,3.68,12.05l6,36.48s-4.68,4.68-3,5.69,10.38-1.34,10.38-1.34,22.75,3.68,33.46,1.67,18.41-3,18.41-3,3.68,0,4-1.34-1.34-5-1.34-5-2.34-28.11-8.7-44.18c0,0,2.34-5-.67-7S241.6,260.18,241.6,260.18Z" style="fill:#92E3A9;stroke:#263238;stroke-linecap:round;stroke-miterlimit:10"></path><path d="M273.39,260.52s3.35-2-18.41-1.67-28.11,4.35-28.11,4.35-7-.67-7.7,2,3.68,12.05,3.68,12.05l6,36.48s-4.69,4.69-3,5.69,10.37-1.34,10.37-1.34,22.76,3.69,33.47,1.68,18.41-3,18.41-3,3.68,0,4-1.33-1.34-5-1.34-5-2.34-28.12-8.7-44.18c0,0,2.34-5-.67-7S273.39,260.52,273.39,260.52Z" style="fill:#fff;stroke:#263238;stroke-linecap:round;stroke-miterlimit:10"></path></g><g id="Table"><path d="M432.18,399.61h0a2.19,2.19,0,0,0,2.18-2.18V347.64H430v49.79A2.19,2.19,0,0,0,432.18,399.61Z" style="fill:#fff;stroke:#263238;stroke-linecap:round;stroke-linejoin:round"></path><path d="M435.55,405.56h0a2.19,2.19,0,0,0,2.18-2.18V353.59h-4.36v49.79A2.18,2.18,0,0,0,435.55,405.56Z" style="fill:#fff;stroke:#263238;stroke-linecap:round;stroke-linejoin:round"></path><path d="M296.9,399.61h0a2.18,2.18,0,0,1-2.18-2.18V347.64h4.36v49.79A2.19,2.19,0,0,1,296.9,399.61Z" style="fill:#fff;stroke:#263238;stroke-linecap:round;stroke-linejoin:round"></path><path d="M293.53,405.56h0a2.19,2.19,0,0,1-2.19-2.18V353.59h4.37v49.79A2.19,2.19,0,0,1,293.53,405.56Z" style="fill:#fff;stroke:#263238;stroke-linecap:round;stroke-linejoin:round"></path><polygon points="440.9 347.75 287.77 347.75 295.43 338.2 433.25 338.2 440.9 347.75" style="fill:#fff;stroke:#263238;stroke-linecap:round;stroke-linejoin:round"></polygon><rect x="287.77" y="347.75" width="153.17" height="7.29" style="fill:#fff;stroke:#263238;stroke-linecap:round;stroke-linejoin:round"></rect></g><g id="plant-2"><path d="M629.25,254.57h0a.09.09,0,0,0-.06-.12.09.09,0,0,0-.13.05,132.55,132.55,0,0,0-6.92,21.69,203.46,203.46,0,0,0-3.82,22.49l-.54,5.68c-.08.95-.18,1.9-.25,2.85l-.16,2.85c-.08,1.9-.2,3.8-.25,5.71l0,5.71.07,2.85c0,.95.11,1.9.17,2.85.15,1.9.26,3.8.44,5.69.36,3.79.93,7.56,1.51,11.31a.1.1,0,0,0,.1.08.09.09,0,0,0,.1-.1h0c0-1.91-.09-3.8-.13-5.7s-.22-3.77-.19-5.67,0-3.78-.06-5.67l-.06-2.83,0-2.83,0-5.66.15-5.66.06-2.83c0-.94.11-1.88.16-2.82l.35-5.66a199.82,199.82,0,0,1,3.2-22.43A131.15,131.15,0,0,1,629.25,254.57Z" style="fill:#263238"></path><path d="M630.07,284.17A.12.12,0,0,0,630,284a.09.09,0,0,0-.12.06,135.07,135.07,0,0,0-4,14.38,133.59,133.59,0,0,0-2.38,14.77c-.5,5-1.06,9.92-1.13,14.9a126.28,126.28,0,0,0,.53,14.93c0,.05,0,.09.09.09a.09.09,0,0,0,.11-.09c.58-5,.93-9.9,1.27-14.85s.4-9.9.72-14.84a148.23,148.23,0,0,1,5-29.22Z" style="fill:#263238"></path><path d="M646.47,294.58a.09.09,0,0,0-.13,0,50.26,50.26,0,0,0-11,9.56,45.38,45.38,0,0,0-4.29,6l-.88,1.66-.69,1.73a15.71,15.71,0,0,0-.6,1.75c-.18.59-.37,1.18-.53,1.77a70.07,70.07,0,0,0-2.27,14.48,83.43,83.43,0,0,0,.54,14.57.11.11,0,0,0,.09.09.1.1,0,0,0,.11-.09l1.25-14.43a129.61,129.61,0,0,1,1.83-14.23c.13-.58.3-1.15.44-1.72a15.24,15.24,0,0,1,.51-1.7l.59-1.67.75-1.58a42.89,42.89,0,0,1,3.93-6,49.48,49.48,0,0,1,10.3-10h0A.09.09,0,0,0,646.47,294.58Z" style="fill:#263238"></path><path d="M638.53,313.12a16,16,0,0,0-5,6,35.23,35.23,0,0,0-2.79,7.34c-.2.63-.35,1.27-.49,1.91l-.45,1.92a34.06,34.06,0,0,0-.49,3.9c0,1.31-.05,2.61,0,3.92a34.23,34.23,0,0,0,.51,3.89s0,.08.08.08a.09.09,0,0,0,.12-.08,34.64,34.64,0,0,0,.69-3.83c.2-1.27.4-2.53.55-3.8s.36-2.51.45-3.78.27-2.53.55-3.76a34,34,0,0,1,2.14-7.28,16.1,16.1,0,0,1,4.18-6.26h0a.09.09,0,0,0,0-.13A.1.1,0,0,0,638.53,313.12Z" style="fill:#263238"></path><path d="M615.52,327.57c-.54-6.4-1.6-12.74-2.59-19.08s-2.11-12.66-3.27-19-2.46-12.59-3.82-18.86a.1.1,0,0,0-.11-.08.1.1,0,0,0-.08.12c1.1,6.31,2.09,12.65,3,19s1.87,12.68,2.67,19,1.39,12.73,2.19,19.07l2.34,19.07a.11.11,0,0,0,.1.09.09.09,0,0,0,.1-.09c.08-1.61.08-3.22.12-4.83s-.07-3.21-.09-4.82C616,334,615.76,330.78,615.52,327.57Z" style="fill:#263238"></path><path d="M611.68,327.48c-.34-2.54-.81-5.06-1.29-7.57l-.9-3.74c-.3-1.25-.58-2.5-.94-3.73a105.68,105.68,0,0,0-4.9-14.57l-.77-1.76-.85-1.73c-.54-1.16-1.2-2.26-1.82-3.38a28.48,28.48,0,0,0-4.63-6.13.09.09,0,0,0-.13,0,.11.11,0,0,0,0,.14h0a28.18,28.18,0,0,1,4.23,6.27c.56,1.14,1.15,2.26,1.63,3.43l.75,1.75.67,1.78A104.84,104.84,0,0,1,607,312.82c.59,2.46,1,5,1.45,7.46L609,324c.22,1.24.49,2.48.66,3.74.4,2.5.86,5,1.3,7.51s.85,5,1.38,7.53a.09.09,0,0,0,.09.08.1.1,0,0,0,.11-.1q0-3.84-.18-7.67C612.25,332.57,612,330,611.68,327.48Z" style="fill:#263238"></path><path d="M606.38,327.81c-1.19-3.36-2.56-6.65-4.06-9.88a86.22,86.22,0,0,0-5.1-9.35.11.11,0,0,0-.14,0,.11.11,0,0,0,0,.14,85.23,85.23,0,0,1,4.35,9.65c1.3,3.27,2.48,6.6,3.46,10s1.72,6.81,2.61,10.2,1.71,6.81,2.75,10.24a.11.11,0,0,0,.1.07.09.09,0,0,0,.1-.1,50.87,50.87,0,0,0-1-10.66A65.53,65.53,0,0,0,606.38,327.81Z" style="fill:#263238"></path><path d="M606.16,339a23.09,23.09,0,0,0-2.82-5.91,24.66,24.66,0,0,0-4.11-5.1,17.86,17.86,0,0,0-2.61-2,10.69,10.69,0,0,0-3-1.34.1.1,0,0,0-.11.06.09.09,0,0,0,.05.13h0a14.79,14.79,0,0,1,4.91,3.82,23.14,23.14,0,0,1,3.42,5.18c1,1.84,1.48,3.88,2.32,5.77.38,1,.75,1.95,1.18,2.92a23.09,23.09,0,0,0,1.29,3h0a.09.09,0,0,0,.08.05.1.1,0,0,0,.11-.1,23.84,23.84,0,0,0-.12-3.27C606.64,341.13,606.42,340.07,606.16,339Z" style="fill:#263238"></path><path d="M606.55,279.83a18.24,18.24,0,0,1-12.92-13.73c-2.42-11.3,5.39-6.46-1.61-24.22s-5.38-21.8-3-26.92,3.77-3.5,5.92,3.23,10,17.23,12.92,36.88S606.55,279.83,606.55,279.83Z" style="fill:#92E3A9"></path><path d="M627.28,260.72s-7-2.42-7.27-15.61,5.12-10.5,5.92-26.92,1.89-28,4.85-28.26,10.76,8.08,13.46,26.38-3.5,30.41-8.89,35.8S627.28,260.72,627.28,260.72Z" style="fill:#92E3A9"></path><path d="M602.79,295.71s-1.62-9.69-4.85-14.27-10.23-8.61-14.8-17.49-9.69-13.19-9.42-.54,5.92,19.11,12.92,23.42S602.79,295.71,602.79,295.71Z" style="fill:#92E3A9"></path><path d="M599.83,312.4S593.37,300,584,290.87s-17-13.73-14.27-9.16,5.92,4.31,10.5,12.38,3.23,14,9.69,18.58S599.83,312.4,599.83,312.4Z" style="fill:#92E3A9"></path><path d="M599,328.28c-.27-.81-.54-6.73-9.69-11.58s-17.77-3-16.69-.53,6.73,6.46,12.38,8.88S599,328.28,599,328.28Z" style="fill:#92E3A9"></path><path d="M626.74,296.25s-4-5.12-1.88-15.88,7-8.08,12.38-13.73,4.3-6.46,9.69-12.38,10.23-9.15,12.38-6.73-1.08,10-4.31,14.27-8.34,6.46-10.76,11.84-1.35,14-7.54,18S626.74,296.25,626.74,296.25Z" style="fill:#92E3A9"></path><path d="M640.2,299.21s9.69-11,16.69-19.11,9.69-14.27,10-8.88,2.43,9.69-3.23,16.68S640.2,299.21,640.2,299.21Z" style="fill:#92E3A9"></path><path d="M635.08,317s-.26-4.3,15.08-14.26,21.8-11.84,20.18-7.81S662,303,654.73,310.24,635.08,317,635.08,317Z" style="fill:#92E3A9"></path><path d="M607.19,278.68s-3.6-19.31-7.36-33-6.2-22.07-6.2-22.07" style="fill:none;stroke:#263238;stroke-linecap:round;stroke-linejoin:round"></path><path d="M626.66,260.92s6.54-20.93,8.69-33.58-.27-22.07-1.34-27.72" style="fill:none;stroke:#263238;stroke-linecap:round;stroke-linejoin:round"></path><path d="M601.94,295.31A101.26,101.26,0,0,0,592,281.18c-5.92-7-10.5-10.77-13.19-17.5" style="fill:none;stroke:#263238;stroke-linecap:round;stroke-linejoin:round"></path><path d="M626.74,296.25s2.15-12.92,7.27-19.65,15.34-17.23,19.38-24" style="fill:none;stroke:#263238;stroke-linecap:round;stroke-linejoin:round"></path><path d="M598.39,328s-9.06-5.89-15.52-9.12" style="fill:none;stroke:#263238;stroke-linecap:round;stroke-linejoin:round"></path><polygon points="628.15 385.07 609.45 385.07 600.1 338.24 637.51 338.24 628.15 385.07" style="fill:#263238;stroke:#263238;stroke-linecap:round;stroke-linejoin:round"></polygon></g><g id="plant-1"><path d="M304.84,319.82s-3.78-4.77-4.38-7.36,4.18,1.19,4.18,1.19-2.19-5.56-2.19-7.75,4.38,3.18,4.38,3.18-4.78-14.91-3.38-14.71,4.57,5.17,4.57,5.17-1-16.7.59-15.9,3.38,16.69,3,17.49,2-5.17,2.18-2-2.18,10.74-2.18,10.74,3-5.37,3.38-2-.6,7.35-1.2,8.15,2.59-3.18,1.79-1a25.22,25.22,0,0,1-3.38,5.36Z" style="fill:#92E3A9;stroke:#263238;stroke-linecap:round;stroke-miterlimit:10"></path><rect x="301.36" y="319.14" width="14.81" height="22.5" style="fill:#fff;stroke:#263238;stroke-linecap:round;stroke-linejoin:round"></rect></g><g id="picture-2"><rect x="496.22" y="101.05" width="66.36" height="92.09" style="fill:#fff;stroke:#b2b2b2;stroke-linecap:round;stroke-miterlimit:10"></rect><rect x="510.42" y="120.76" width="37.95" height="52.66" style="fill:#bababa;stroke:#b2b2b2;stroke-linecap:round;stroke-miterlimit:10"></rect></g><g id="picture-1"><rect x="238.88" y="104.25" width="155.83" height="92.3" style="fill:#92E3A9"></rect><path d="M394.71,175.4v21.15H238.88V132.41C267.91,135.67,343.35,146.54,394.71,175.4Z" style="fill:#9e9e9e"></path><path d="M353.76,196.55H238.88V139.9A628.19,628.19,0,0,1,327,181C337.88,187.2,346.67,192.33,353.76,196.55Z" style="fill:#92E3A9"></path><path d="M394.71,104.25v22.14c-11.6.58-29.63,2.22-57.54,6-48.6,6.65-82.23,22.51-98.29,31.62V104.25Z" style="fill:#9e9e9e"></path><path d="M238.88,104.25h89c-5.65,3-11.35,6.42-17.05,10.19-36.6,24.17-59.27,33-71.92,36.19Z" style="fill:#92E3A9"></path><path d="M238.88,130.85c11.71-5.74,25.82-14.68,32.39-26.6H238.88Z" style="fill:#9e9e9e"></path><path d="M272.44,173.18c-19.18-12-28.17-7.19-18.58,7.79,4.53,7.08,8.11,12.14,10.46,15.58h31.22C291,189.59,283.39,180,272.44,173.18Z" style="fill:#9e9e9e"></path><rect x="238.88" y="104.25" width="155.83" height="92.3" style="fill:none;stroke:#b2b2b2;stroke-linecap:round;stroke-miterlimit:10"></rect></g><g id="character-3"><path d="M493.76,246s1.14,5.72,2.86,8,6.11,3.44,6.49,4.77.19,7.26,2.1,7.83,4.58-.95,4.58-.95l1.91,1.52s5.53,2.86,6.1,2.86,1.72.58,3.25-1.33a24,24,0,0,1,5-4l4,6.11,13.36-15.65-8.21-8.4s-5.34-17.36-10.5-21.37-13.35-3.06-19.46,1.33-10.31,8.4-11.45,11.07S493.76,246,493.76,246Z" style="fill:#fff;stroke:#263238;stroke-linecap:round;stroke-miterlimit:10"></path><path d="M508.19,255.62c.91.86,1.29,1.95.84,2.43s-1.57.17-2.49-.69-1.29-2-.83-2.43S507.27,254.75,508.19,255.62Z" style="fill:#263238"></path><path d="M502.35,255a3.41,3.41,0,0,1,2.1-4.58" style="fill:none;stroke:#263238;stroke-linecap:round;stroke-miterlimit:10"></path><path d="M498.15,226.37s-9.73,9.16-9.73,13.55,5.34,6.11,5.34,6.11.38-5.92,3.24-8,5.16-2.29,5.35,1.72-.58,5.73,1.52,5.92,4.58-.77,6.49-.19,9.54,10.87,9.54,10.87a23.13,23.13,0,0,1-3.81,5c-2.1,1.9-5.16,4.58-4.39,5.91s2.48,7.83,6.87,8.21,7.63-13.36,7.44-17.75-4-8.4-4-8.4-6.87-6.68-6.29-9.35,4.19-3.82,7.06.57a14.65,14.65,0,0,1,2.29,9s7.82,0,8.78-.76,1.33-.19,1.33-1.91S534,225,528.87,221.41s-13.93-5.15-21.18-2.48S498.15,226.37,498.15,226.37Z" style="fill:#263238;stroke:#263238;stroke-linecap:round;stroke-miterlimit:10"></path><path d="M503.68,319.12s-3.62-1.14-5.53-1.91a47.47,47.47,0,0,1-8.21-4.2c-2.86-1.9-7.06-2.29-8.59-1.52a9.38,9.38,0,0,0-4.39,4.58c-.95,2.29,2.49,4.58,3.44,5.34s10.31,1.72,10.31,1.72,2.09,2.48,4.19,3.05,8.21,0,8.21,0Z" style="fill:#fff;stroke:#263238;stroke-linecap:round;stroke-miterlimit:10"></path><path d="M492.42,315.11s-2.67-2.86-4.58-1.71-3.62,5.53-3.81,6.1" style="fill:none;stroke:#263238;stroke-linecap:round;stroke-miterlimit:10"></path><line x1="484.03" y1="317.98" x2="491.66" y2="305.76" style="fill:none;stroke:#263238;stroke-linecap:round;stroke-miterlimit:10;stroke-width:2px"></line><path d="M523.53,316.26s-12.4,2.67-13.55,2.86-6.3,0-6.3,0l-.57,7.06,20.61,1.15Z" style="fill:#92E3A9;stroke:#263238;stroke-linecap:round;stroke-miterlimit:10"></path><line x1="509.98" y1="319.12" x2="509.41" y2="326.95" style="fill:none;stroke:#263238;stroke-linecap:round;stroke-miterlimit:10"></line><path d="M469.71,417.4s-.38,10.5-1.91,11.26-2.1,2.1-7.25.58a76.36,76.36,0,0,0-9.73-2.48c-1.53-.2.19.95-7.83-1s-12.59-4-12.4-5.15,2.29-2.1,4.77-2.29a90.35,90.35,0,0,0,15.08-3.63,24.76,24.76,0,0,0,5.72-4Z" style="fill:#fff;stroke:#263238;stroke-linecap:round;stroke-miterlimit:10"></path><path d="M443,425.8c8,1.91,6.3.76,7.83,1a76.36,76.36,0,0,1,9.73,2.48c5.15,1.52,5.73.19,7.25-.58.43-.21.77-1.18,1-2.47-5.79.06-16.91-2.3-19.92-2.3-3.63,0-18.32-3.24-18.32-3.24C430.4,421.79,435,423.89,443,425.8Z" style="fill:#fff;stroke:#263238;stroke-linecap:round;stroke-miterlimit:10"></path><path d="M483.45,360.15,469.71,417.4a4,4,0,0,1-3.62,2.68c-3.06.38-9.16-3.82-9.74-3.82s1.53-4.2,2.48-8.21,21-52.86,21-52.86Z" style="fill:#263238;stroke:#263238;stroke-linecap:round;stroke-miterlimit:10"></path><path d="M438.22,409.39s-8,3.43-9,3.62-11.64-2.29-13.16-1.9a3.12,3.12,0,0,0-2.1,4c.57,1.91,18.32,11.84,24.81,13.74s12,5.16,13.55,3.44,3-12,3-12l-15.84-11.64Z" style="fill:#fff;stroke:#263238;stroke-linecap:round;stroke-miterlimit:10"></path><path d="M452.35,432.29a7.72,7.72,0,0,0,1.07-2.44A124.77,124.77,0,0,1,436.89,425c-8.79-3.34-21-10.88-22.84-12.06a3.28,3.28,0,0,0-.06,2.13c.57,1.91,18.32,11.84,24.81,13.74S450.82,434,452.35,432.29Z" style="fill:#fff;stroke:#263238;stroke-linecap:round;stroke-miterlimit:10"></path><path d="M517.8,341.45s-25.19-12.21-34.16-13.93A13.44,13.44,0,0,0,468,337.06c-1.15,4.58-20,63.36-20,63.36L444.14,402s-4,3.62-4.39,4.19-1.53,3.25-1.53,3.25,7.26,8,10.88,10.11A19.79,19.79,0,0,0,455,422s10.3-18.89,11.26-21.94,14.31-29.77,16.41-33.59a21.72,21.72,0,0,0,2.48-6.11s15.27,9.16,19.08,10.31S518,362.82,518,362.82s1.9-13.74,2.09-15.26S517.8,341.45,517.8,341.45Z" style="fill:#263238;stroke:#263238;stroke-linecap:round;stroke-miterlimit:10"></path><line x1="485.17" y1="360.34" x2="480.87" y2="347.31" style="fill:none;stroke:#919191;stroke-linecap:round;stroke-miterlimit:10"></line><path d="M528.3,273.51s-4.77,9.92-5,14.5a88.22,88.22,0,0,0,1.91,24.43c2.48,10.5,5.34,25.57,5.34,26.72s-.19,2.29-1.72,2.67a32.62,32.62,0,0,1-8.58-.19,23.25,23.25,0,0,1-3.82-1.34l-15.08,30.54s7.83,5.53,27.29,5.53,32.06-4,38.36-11.83,9.54-21.76,9.54-41.6-6.1-37.79-13.16-48.67a36,36,0,0,0-17.94-14.12Z" style="fill:#92E3A9;stroke:#263238;stroke-linecap:round;stroke-miterlimit:10"></path><polygon points="542.61 252.71 526.97 269.5 528.11 275.8 548.15 259.2 542.61 252.71" style="fill:#92E3A9;stroke:#263238;stroke-linecap:round;stroke-miterlimit:10"></polygon><path d="M476,318.36s-18.89-6.3-19.85-6.49-4.58,2.86-5.91,3.62-3.63,5.16-.58,7.45,8.21,0,10.12-.19,10.5,2.86,10.5,2.86,9.35,1.91,10.68,0-.57-2.86-.57-4.2S476,318.36,476,318.36Z" style="fill:#fff;stroke:#263238;stroke-linecap:round;stroke-miterlimit:10"></path><path d="M455,317.78c-4-1.9-5.73-.95-5.73-.95l-.27.08c-1,1.69-1.53,4.39.65,6,3.06,2.29,8.21,0,10.12-.19s10.5,2.86,10.5,2.86a45.25,45.25,0,0,0,7.26.84C471.22,324.12,458,319.22,455,317.78Z" style="fill:#fff;stroke:#263238;stroke-linecap:round;stroke-miterlimit:10"></path><path d="M500.63,325.23l-5.54-1a12.25,12.25,0,0,0-4-4.58A10.66,10.66,0,0,0,484,318c-1.91.19-8.59.57-9.36,0s5.73,3.43,5.73,3.43-2.67,2.48-3.82,2.86-5.15,1.15-6.29,1.34-1.15,2.1,1.33,2.67a13.76,13.76,0,0,0,4.77.19s.77.77,5.73.77a32,32,0,0,0,6.49-.39l9.16,5.54Z" style="fill:#fff;stroke:#263238;stroke-linecap:round;stroke-miterlimit:10"></path><path d="M497.77,334.39l2.86-9.16-5.54-1a51.4,51.4,0,0,0-2,7.26Z" style="fill:#92E3A9;stroke:#263238;stroke-linecap:round;stroke-miterlimit:10"></path><path d="M542.42,274.85s-11.64-6.3-16,.76-4.58,48.85-4.58,48.85-18.89.39-21.18.77-3.44,6.3-2.86,9.16-.77,2.86,13.74,6.3,23.09,5,26.52,3.24,3.82-23.28,5.54-32.44a110.22,110.22,0,0,0,1.91-15.27" style="fill:#92E3A9;stroke:#263238;stroke-linecap:round;stroke-miterlimit:10"></path><line x1="544.71" y1="307.1" x2="548.34" y2="296.6" style="fill:none;stroke:#263238;stroke-linecap:round;stroke-miterlimit:10"></line><path d="M521.81,324.46s1.53,6.3,4,8" style="fill:none;stroke:#263238;stroke-linecap:round;stroke-miterlimit:10"></path><line x1="539.84" y1="382.77" x2="571.89" y2="398.08" style="fill:none;stroke:#263238;stroke-linecap:round;stroke-miterlimit:10"></line><line x1="566.5" y1="384.47" x2="535.01" y2="397.23" style="fill:none;stroke:#263238;stroke-linecap:round;stroke-miterlimit:10"></line><path d="M520.63,377l-14.52,55.2a1.66,1.66,0,0,0,1.61,2.09h0a1.68,1.68,0,0,0,1.58-1.12l19.38-55.5Z" style="fill:#fff;stroke:#263238;stroke-linecap:round;stroke-miterlimit:10"></path><path d="M560.33,377l14.53,55.2a1.67,1.67,0,0,1-1.62,2.09h0a1.66,1.66,0,0,1-1.57-1.12l-19.38-55.5Z" style="fill:#fff;stroke:#263238;stroke-linecap:round;stroke-miterlimit:10"></path><path d="M533.37,377l-14.53,55.2a1.66,1.66,0,0,0,1.61,2.09h0a1.67,1.67,0,0,0,1.58-1.12l19.38-55.5Z" style="fill:#bababa;stroke:#263238;stroke-linecap:round;stroke-miterlimit:10"></path><path d="M573.06,377l14.53,55.2A1.67,1.67,0,0,1,586,434.3h0a1.66,1.66,0,0,1-1.57-1.12L565,377.68Z" style="fill:#bababa;stroke:#263238;stroke-linecap:round;stroke-miterlimit:10"></path><line x1="527.07" y1="382.2" x2="559.12" y2="397.52" style="fill:none;stroke:#263238;stroke-linecap:round;stroke-miterlimit:10"></line><line x1="553.73" y1="383.9" x2="522.25" y2="396.67" style="fill:none;stroke:#263238;stroke-linecap:round;stroke-miterlimit:10"></line><path d="M591.33,315.7s-7.07-1.14-18.43,6.36c-5.94,3.93-12.06,6.37-25.13,10.39s-21.19,2.59-25.33,9-15.88,34.22-15.88,34.22,51.26,8.71,68.35,1.68,18.64-29.42,16.3-39.47S591.33,315.7,591.33,315.7Z" style="fill:#263238;stroke:#263238;stroke-linecap:round;stroke-miterlimit:10"></path></g><g id="character-2"><path d="M351.28,229.47s-14.12,6.63-20.11,10.9-9.83,6.63-10.9,11.34-6.85,28-7.06,29.3,8.13,6.63,12,5.35a6.45,6.45,0,0,0,4.49-4.28h8.12l.22,10.48h51.75l2.79-11.34,12.19.22s10.25-2.84,8.11-8.4S400,246.36,393.2,240.37,376.73,231,376.73,231C372.67,228.61,366.89,225.19,351.28,229.47Z" style="fill:#fff;stroke:#263238;stroke-linecap:round;stroke-miterlimit:10"></path><path d="M402.18,256.84l.08,0c-2.45-6.57-5.53-13.32-9.06-16.42-6.85-6-16.47-9.41-16.47-9.41-4.06-2.35-9.84-5.77-25.45-1.49,0,0-14.12,6.63-20.11,10.9s-9.83,6.63-10.9,11.34c-.31,1.33-.76,4.23-1.27,7.73L337.59,268l.21,14.12.22,10.48h51.75l2.79-11.34-.86-15.61Z" style="fill:#263238;stroke:#263238;stroke-linecap:round;stroke-miterlimit:10"></path><path d="M344.86,265.18s-21,6.85-24.59,8.13-6.63,3.64-7.06,7.7,2.35,8.13,7.7,8.34S335.45,281,338,278.87s6.84-5.77,6.84-5.77Z" style="fill:#fff;stroke:#263238;stroke-linecap:round;stroke-miterlimit:10"></path><path d="M399.61,263.26s7.7,4.92,11.55,7.27,3.21,7.91,1.5,10.26-6.42,2.57-10.27,0-8.77-9.19-8.77-9.19l5.57-6.85Z" style="fill:#fff;stroke:#263238;stroke-linecap:round;stroke-miterlimit:10"></path><polygon points="400.27 284.22 341.02 284.22 344 248.29 403.24 248.29 400.27 284.22" style="fill:#bababa;stroke:#263238;stroke-linecap:round;stroke-miterlimit:10"></polygon><path d="M393.7,272.24,376,292.34H356.7L334,273.1a47.42,47.42,0,0,0-3.85,13.47c-.86,7.27-.64,28.23,3.21,32.72s17.11,7.49,28.23,6.85,18.18-3.43,23.1-7.7,15.82-19.47,17.53-32.51S400.54,270.1,393.7,272.24Z" style="fill:#fff;stroke:#263238;stroke-linecap:round;stroke-miterlimit:10"></path><path d="M376,292.34s-7.49,9.2-8.56,12.62" style="fill:#fff;stroke:#263238;stroke-linecap:round;stroke-miterlimit:10"></path><path d="M351.06,226.9s2.36,12.19,3.85,15.83,4.07,7.91,9.41,5.77S371.6,237,372.24,234a13,13,0,0,1,1.92-4.71S358.55,220.7,351.06,226.9Z" style="fill:#fff;stroke:#263238;stroke-linecap:round;stroke-miterlimit:10"></path><path d="M348.93,213.21s1.28,11.12,2.13,13.69,6.42,10,8.77,11.55,4.92,2.35,7.49.85,5.56-5.56,6.84-10.05,1.93-14.11,1.93-14.11-1.07-3.43-7.92-6S348.93,213.21,348.93,213.21Z" style="fill:#fff;stroke:#263238;stroke-linecap:round;stroke-miterlimit:10"></path><path d="M357.2,218.34s.9-1.36,3.31-1.06" style="fill:none;stroke:#263238;stroke-linecap:round;stroke-miterlimit:10"></path><path d="M368.47,217.58s3-.45,4.51,1.06" style="fill:none;stroke:#263238;stroke-linecap:round;stroke-miterlimit:10"></path><polyline points="366.46 218.13 366.46 228.82 363.25 228.82" style="fill:none;stroke:#263238;stroke-linecap:round;stroke-miterlimit:10"></polyline><path d="M360.05,221.77c0,.94-.43,1.71-1,1.71s-1-.77-1-1.71.43-1.71,1-1.71S360.05,220.82,360.05,221.77Z" style="fill:#263238"></path><path d="M370.74,221.77c0,.94-.43,1.71-1,1.71s-1-.77-1-1.71.43-1.71,1-1.71S370.74,220.82,370.74,221.77Z" style="fill:#263238"></path><path d="M362.19,232.46a3.25,3.25,0,0,0,4.7,0" style="fill:none;stroke:#263238;stroke-linecap:round;stroke-miterlimit:10"></path><path d="M349.57,215.78s-2.14-2.35-3.42.43,4.06,7.7,4.06,7.7Z" style="fill:#fff;stroke:#263238;stroke-linecap:round;stroke-miterlimit:10"></path><path d="M375.87,217.49s3.85-2.57,3.21,1.07a10.69,10.69,0,0,1-3.85,6Z" style="fill:#fff;stroke:#263238;stroke-linecap:round;stroke-miterlimit:10"></path><path d="M348.93,213.21a47.48,47.48,0,0,1,13.68-3.42c9.41-.64,14.12,2.14,14.12,2.14s-1.28-13.48-1.71-15.4-5.78-6.2-12.62-6-15.19,5.35-15.19,8.13S348.93,213.21,348.93,213.21Z" style="fill:#92E3A9;stroke:#263238;stroke-linecap:round;stroke-miterlimit:10"></path><path d="M348.93,213.21s.64,4.28,3.63,4.28,3.64-3,11.34-2.78,10.48,4.7,13,2.57-.21-5.35-.21-5.35S365.82,203.37,348.93,213.21Z" style="fill:#fff;stroke:#263238;stroke-linecap:round;stroke-miterlimit:10"></path><path d="M363.92,321.14s-3.37-19.6-9.57-33.72S346.86,269,340,269s-8.13,7.49-9,10.91,4.28,20.1,7.28,24.59S357.5,338.6,357.5,338.6l8-9.62Z" style="fill:#fff;stroke:#263238;stroke-linecap:round;stroke-miterlimit:10"></path><path d="M381.28,322.59s2.06-19,6.4-33.82,5.06-19.2,11.85-20.08,9,6.38,10.31,9.66-1.66,20.49-4.06,25.33-17.61,32.08-17.61,32.08l-9.25-6.39Z" style="fill:#fff;stroke:#263238;stroke-linecap:round;stroke-miterlimit:10"></path><path d="M373.33,313.46c-1.62-1.53-7.15-3.88-11.39,1.77s-4.25,14.2-4.25,14.2-1.6,6.94-.19,9.17,7.38,3.28,9.58-.13,3-9,3-9,1.93-3.88,3.47-6.94S374.87,314.91,373.33,313.46Z" style="fill:#fff;stroke:#263238;stroke-linecap:round;stroke-miterlimit:10"></path><line x1="363.57" y1="315.19" x2="373.3" y2="315.19" style="fill:none;stroke:#263238;stroke-linecap:round;stroke-miterlimit:10"></line><line x1="360.82" y1="319.85" x2="371.81" y2="319.85" style="fill:none;stroke:#263238;stroke-linecap:round;stroke-miterlimit:10"></line><line x1="359.97" y1="325.77" x2="370.12" y2="325.77" style="fill:none;stroke:#263238;stroke-linecap:round;stroke-miterlimit:10"></line><line x1="358.91" y1="332.11" x2="367.16" y2="332.11" style="fill:none;stroke:#263238;stroke-linecap:round;stroke-miterlimit:10"></line><path d="M383.57,311.26c2.22-.86,8.4-1.2,9.63,5.39s-2.8,14.44-2.8,14.44-1.81,6.91-4.16,8.49-8.33.58-8.74-3.28S379,327,379,327s.06-4.2.09-7.52S381.47,312.09,383.57,311.26Z" style="fill:#fff;stroke:#263238;stroke-linecap:round;stroke-miterlimit:10"></path><line x1="381.75" y1="315.41" x2="390.64" y2="315.41" style="fill:none;stroke:#263238;stroke-linecap:round;stroke-miterlimit:10"></line><line x1="381.33" y1="320.9" x2="391.06" y2="320.9" style="fill:none;stroke:#263238;stroke-linecap:round;stroke-miterlimit:10"></line><line x1="380.91" y1="326.19" x2="389.79" y2="326.19" style="fill:none;stroke:#263238;stroke-linecap:round;stroke-miterlimit:10"></line><line x1="379.22" y1="331.69" x2="387.46" y2="331.69" style="fill:none;stroke:#263238;stroke-linecap:round;stroke-miterlimit:10"></line></g><g id="character-1"><path d="M158.85,151.53a51.52,51.52,0,0,1-3,7.25c-1.81,3.49-3.75,3.54-2.23,5.82s3.76,1.18,2.51,3.22a9.19,9.19,0,0,1-3.7,3.11s-4.51,7.34-6.4,9.32-9.88,0-11.7-1.24-1.7-.15-1.7-.15-1.81,8.43-1.87,9.07,0,2.58,0,2.58l-14.68-11.37.38-6.84s7.16-3.24,14.61-19.76-1.28-22.23,14.51-16.13S158.85,151.53,158.85,151.53Z" style="fill:#fff;stroke:#263238;stroke-linecap:round;stroke-miterlimit:10"></path><path d="M151.27,162.14c-.14,1.58-.73,2.83-1.31,2.78s-1-1.38-.82-3,.73-2.83,1.32-2.78S151.41,160.55,151.27,162.14Z" style="fill:#263238"></path><path d="M148.61,155.78s3.32-1.21,5.29.9" style="fill:none;stroke:#263238;stroke-linecap:round;stroke-miterlimit:10"></path><path d="M148.78,173.4a4.86,4.86,0,0,1-3-2.41" style="fill:none;stroke:#263238;stroke-linecap:round;stroke-miterlimit:10"></path><path d="M146.21,141.41s.48,4.33-6.18,14.27-9,11.88-9.93,17.81S129,180.7,129,180.7s-10-5.39-16.39-8.95-13-13.59-11.12-22.65,4-21.34,19.32-24.51,23.81,5.09,23.81,5.09,5.86-3.14,15.65.29,3.11,20.88,1.51,22a30.38,30.38,0,0,1-3.4,2.07,17.45,17.45,0,0,0-5.31-5.62A33.12,33.12,0,0,1,146.21,141.41Z" style="fill:#263238;stroke:#263238;stroke-linecap:round;stroke-miterlimit:10"></path><path d="M143.05,337.35A269.4,269.4,0,0,0,136,366.79c-2.27,13.76-7.46,36.27-7.46,41.21s2.71,13.12,2.71,13.12a113.71,113.71,0,0,0,9.27,7c3.86,2.49,8.61,4.62,7.86,5.84s-1.43,1.6-6.76,1.13l-25.14-2.19s-.49-1.76.7-5.53a79.17,79.17,0,0,0,2.53-11.8c.53-3.6-.32,1.26-1.41-15.79s-5.9-16-.42-32,6.53-20.68,6.59-21.32S124,334.4,124,334.4Z" style="fill:#fff;stroke:#263238;stroke-linecap:round;stroke-miterlimit:10"></path><path d="M137.07,425.76l-.78,3.75-18.35-4.92c-.24,1-.5,1.91-.79,2.81-1.19,3.77-.7,5.53-.7,5.53l25.14,2.19c5.33.47,6,.1,6.76-1.13s-4-3.35-7.86-5.84C139.42,427.47,138.23,426.62,137.07,425.76Z" style="fill:#263238;stroke:#263238;stroke-linecap:round;stroke-miterlimit:10"></path><path d="M110,332.53l4,16s-7.66,13.93-9,22.4-4.83,40.52-6.4,46.18-4.16,18.1-3.45,22.24,3.3,6.52,5.58,5,5.17-5.13,5.09-11.58-.07-14,1.08-17.3,19.74-46.52,22.71-55.92a86.11,86.11,0,0,0,3.6-16.64c.43-2.54.09-10.95.09-10.95Z" style="fill:#fff;stroke:#263238;stroke-linecap:round;stroke-miterlimit:10"></path><path d="M96.81,424.26c-1.2,5.72-2.23,12.31-1.75,15.11.71,4.14,3.3,6.52,5.58,5s5.17-5.13,5.09-11.58c0-1,0-2,0-3.08-2,6-3.73,8.07-6.52,6.8C95.94,435,96.68,425.68,96.81,424.26Z" style="fill:#263238;stroke:#263238;stroke-linecap:round;stroke-miterlimit:10"></path><polygon points="164.22 230.14 160.32 233.02 139.83 235.48 139.73 250.87 162.11 239.62 165.57 239.28 172.04 238.98 173.63 228.17 164.22 230.14" style="fill:#fff;stroke:#263238;stroke-linecap:round;stroke-miterlimit:10"></polygon><polygon points="151.93 234.03 139.83 235.48 139.73 250.87 152.82 244.29 151.93 234.03" style="fill:#92E3A9;stroke:#263238;stroke-linecap:round;stroke-miterlimit:10"></polygon><path d="M175.65,224.7s7.53-5.14,10.85-8.71a88.24,88.24,0,0,0,6.77-8.64s4.85,8.36,6.49,9.15,5.7,1.14,5.7,1.14a82.87,82.87,0,0,1-11.78,9.49c-7.53,5.14-18.15,13.66-19.61,15.68a29.42,29.42,0,0,1-2.65,3.2l-2.1-15.21Z" style="fill:#fff;stroke:#263238;stroke-linecap:round;stroke-miterlimit:10"></path><path d="M191.9,228.27a57.2,57.2,0,0,0,6.45-10,21.23,21.23,0,0,0,1.79-8.22s5.83,4.59,5.57,7.57C205.71,217.66,194.12,227.39,191.9,228.27Z" style="fill:#fff;stroke:#263238;stroke-linecap:round;stroke-miterlimit:10"></path><path d="M162.3,232.55s3.47-7.85,8.68-8.47,8.17-.15,9.29-.69,1.38,1.4-.65,2.52a39.45,39.45,0,0,1-6,2.26s-3,4.68-5,5.36l-2,.69" style="fill:#fff;stroke:#263238;stroke-linecap:round;stroke-miterlimit:10"></path><path d="M106.36,246.13S95.18,258.67,92,273s5.34,37.17,7.54,41.44,7.77,24.63,7.77,24.63l36.21.26s2.51-45.94,0-63.55-.27-26.43-.27-26.43Z" style="fill:#263238;stroke:#263238;stroke-linecap:round;stroke-miterlimit:10"></path><path d="M116.08,179.14S105,190.4,102.45,200.06s.38,32.45,1.45,37.48a59.38,59.38,0,0,0,2.46,8.59l36.86,3.22s5.58-12.18,5.59-19.7-3.14-18.09-6.24-24.37-11.8-17.35-11.8-17.35S119.87,177.53,116.08,179.14Z" style="fill:#92E3A9;stroke:#263238;stroke-linecap:round;stroke-miterlimit:10"></path><path d="M142.57,205.28c-3.11-6.28-11.8-17.35-11.8-17.35s-10.9-10.4-14.69-8.79c0,0-2.33,2.37-5.09,5.86,4.63.87,11.72,2.36,18.65,7.91,4.45,3.55,10.47,11.41,14.34,15.53C143.51,207.31,143,206.24,142.57,205.28Z" style="fill:#92E3A9;stroke:#263238;stroke-linecap:round;stroke-miterlimit:10"></path><path d="M184.56,208.73s.71-5.73-1.55-4.43-.1,3.64-1.69,4.58S184.56,208.73,184.56,208.73Z" style="fill:#fff;stroke:#263238;stroke-linecap:round;stroke-miterlimit:10"></path><path d="M177.82,214.58a52.55,52.55,0,0,0,6.6-1.78c1.56-.72,4.28-4.78,2.79-4.91s-3.19,2.08-4.1,2.65a13.93,13.93,0,0,1-3.31,1Z" style="fill:#fff;stroke:#263238;stroke-linecap:round;stroke-miterlimit:10"></path><path d="M153.1,212.43s10.76-7.65,12.47-7.5,4.34,1.88,6.24,2.26,7.22-1.52,6.62.36-4.89,1.94-4.89,1.94,4.94,0,6.27-.53,5.29-4,6-2.27-5.64,5.52-8,7.89-9.47.25-11.33-.56a21.32,21.32,0,0,0-3.55-1.16l-7.91,7Z" style="fill:#fff;stroke:#263238;stroke-linecap:round;stroke-miterlimit:10"></path><polyline points="173.54 209.49 169.01 209.74 167.13 209.14" style="fill:#fff;stroke:#263238;stroke-linecap:round;stroke-miterlimit:10"></polyline><path d="M113.35,195.64s-6.78,3.92-6.14,11.27,8.42,48.61,11,48.84,39.51-36.91,39.51-36.91l-4.6-6.41L132,223l-6.37-20.52" style="fill:#92E3A9;stroke:#263238;stroke-linecap:round;stroke-miterlimit:10"></path><line x1="132" y1="223.03" x2="119.65" y2="231.62" style="fill:#fff;stroke:#263238;stroke-linecap:round;stroke-miterlimit:10"></line></g></svg>