<svg xmlns="http://www.w3.org/2000/svg" viewBox="0 0 500 500"><g id="background-simple"><path d="M329.89,54.31S252.82,26.9,177.16,70.54,63.33,200.78,30.55,270.16s-13.91,140,43.84,172.13,97-15.25,178-17.56,102.81,9.27,170-36.5,79.38-153.86,26.35-233.83S329.89,54.31,329.89,54.31Z" style="fill:#263238"></path></g><g id="character-3"><path d="M303.82,410.06c-.23-2,1-4.45-2.11-5.43,0,0-6.91-.8-8.69-1.32s-10.93-.54-13.66-.51-5.53-.13-3.81.87a5.22,5.22,0,0,0,3.06.68c-1.26.17-5.36.75-4.19,1.31,1.37.67,2.95,1.26,2.95,1.26s-5.05-.07-3.54,1a8.34,8.34,0,0,0,3.64,1.25s-6,1.17-4,1.63,6.44,2.1,8.29,2.14,3.6-.8,5.93,0,3.51,1.53,5.14,1,2.57-1.12,3.4-.73,2,.46,3.89,0S304.05,412,303.82,410.06Zm-24-6,10.38.27C285.54,405.45,279.79,404,279.79,404Zm-.23,3.27s9.32-2.09,12.07-.77Zm.37,2.39c-2.53-.72,10.71-.75,10.71-.75C293.87,411,282.46,410.41,279.93,409.69Z" style="fill:#fff;stroke:#263238;stroke-miterlimit:10"></path><path d="M343.58,402.18c2.71-1.4,3.43-3.94,1.27-7.53s-4.9-4.23-4.9-4.23-2.35-2.16-3.55.32a5.74,5.74,0,0,1-2.82,3L308,402.91a22.23,22.23,0,0,1-5.17.89c-3.34.25-2.7,2.76-1.71,5.62s3.54,4.25,6.45,2.1,4.25-3.54,5.07-3.82,20.4-5.73,23.47-5.42S340.87,403.58,343.58,402.18Zm-30.89,2.51a7,7,0,0,1-6.35-.53l27.54-8.2c.95.12,1,1.69,0,2S316.57,403.35,312.69,404.69Z" style="fill:#fff;stroke:#263238;stroke-miterlimit:10"></path><path d="M384.25,354s2.8,1.63,3.45-2.49-1.92-6.12-4-5.58-3.45,2.49-5.59,2.73-1.54-1.64-3.4-2.73-5.17.72-7.52,5.6,1.19,3.95-.69,7.6S349.14,386.75,345,389.09s-6.32.56-7.29,3.49-1,5.16,1.29,5.5,6.12-1.92,6.07.3-1.46,4.65.93,3.55,5.16-2,5.94-5-.29-2.92,1.56-6.09,17.65-28.93,19.59-30.55,4.41-2.42,4.69-3.75-1-2.1.67-2.86S384.25,354,384.25,354Z" style="fill:#fff;stroke:#263238;stroke-miterlimit:10"></path><path d="M397.83,450.14c1.94.45,4.53-.47,5.17,2.7,0,0,0,7,.35,8.78s-.67,10.92-1,13.63-.48,5.51-1.28,3.69a5.22,5.22,0,0,1-.34-3.11c-.3,1.23-1.34,5.24-1.77,4-.51-1.44-.92-3.07-.92-3.07s-.49,5-1.39,3.4a8.39,8.39,0,0,1-.84-3.75s-1.82,5.83-2.05,3.8-1.38-6.63-1.22-8.47,1.19-3.5.67-5.9-1.13-3.65-.39-5.21,1.41-2.43,1.1-3.3-.23-2,.41-3.87S395.9,449.69,397.83,450.14Zm3.35,24.55.87-10.34C400.39,468.82,401.18,474.69,401.18,474.69Zm-3.29-.13s3.12-9,2.1-11.91Zm-2.33-.63c.44,2.59,1.94-10.56,1.94-10.56C395.79,459.92,395.13,471.33,395.56,473.93Z" style="fill:#fff;stroke:#263238;stroke-miterlimit:10"></path><path d="M410.07,411.5c1.69-2.54,4.29-3,7.62-.43s3.67,5.34,3.67,5.34,1.88,2.57-.71,3.49a5.76,5.76,0,0,0-3.34,2.47L405.4,446.82a22,22,0,0,0-1.45,5c-.62,3.29-3.05,2.37-5.78,1.07s-3.83-4-1.37-6.63,4-3.84,4.36-4.62,7.94-19.64,8-22.73S408.38,414,410.07,411.5Zm-5.92,30.42a7,7,0,0,0-.17,6.37l11.2-26.46c0-1-1.57-1.23-2-.25S405.92,438.21,404.15,441.92Z" style="fill:#fff;stroke:#263238;stroke-miterlimit:10"></path><path d="M403.74,352.77s-3.24,0-1.73-3.88,4.75-4.32,6.26-2.81,1.72,3.89,3.45,5.18,2.16-.65,4.32-.65,4.1,3.24,3.67,8.64-3,2.8-3.24,6.9,1.08,32.59,3.45,36.69,5.18,3.67,4.53,6.69-1.72,5-3.88,4.1-4.32-4.75-5.4-2.8-1.08,4.74-2.59,2.59-3.45-4.32-2.59-7.34,1.73-2.38,1.73-6.05-.65-33.88-1.51-36.25-2.59-4.32-2.16-5.61,1.94-1.3.86-2.81S403.74,352.77,403.74,352.77Z" style="fill:#fff;stroke:#263238;stroke-miterlimit:10"></path><path d="M391.83,241.11l-.41,3.11a9.7,9.7,0,0,1-4.16,1.45c-1.87,0-6.85-1.24-12.46-1.24s-11.83,1-12.66,2.7,5.19,5.6,6,8.72.42,7.68,2.49,10,5.4,5.19,9.76.42,2.08-10.8,1.25-12.87-6.23-1.87-8.1-2.5-5.61-3.53-5.61-3.53a54.86,54.86,0,0,1,9.14-1.45c3.11,0,21,1.45,26,1.45h13.71c4.56,0,5.19.63,2.7,2.08s-3.74,1.45-6.86,1.66-7.06,3.12-5.39,6.85,3.53,9.56,7.89,10.59,6-1.45,7.26-5.6,1.87-10.59,5.19-12.88,5.82-2.28,1.87-3.32-15.36-1.45-20.76-1.45-7.89.21-8.72-1,0-3.74,0-3.74l-8.31-.62Z" style="fill:#b5b5b5;stroke:#263238;stroke-linejoin:round"></path><path d="M421.44,276.2c1.66-1.67-21-1.25-22.64-1.87a2,2,0,0,1-1-2.49c-.29-1.49-1.55-1.17-2.24-.86-.68-.31-1.94-.63-2.24.86a2,2,0,0,1-1,2.49c-1.67.62-24.3.2-22.64,1.87s8.93,3.32,13.5,3.53l9.14.41-.21,4.57s-10,.62-14.33,1.45-2.7,2.49.83,3.12,10.38-.83,11.21-.83,2.5-1,2.7-.42,1.25,1.87-.41,2.29-14.33,1.66-17.24,1.86-1.66,1.87,1.67,1.87,9.13.42,11,0a40.16,40.16,0,0,1,4.15-.62s.42.62-.41,1.25a6.52,6.52,0,0,1-4.36,1.86c-2.7.21-7.69.21-11.22.83s-6.64,2.5-2.69,2.7a39.93,39.93,0,0,0,9.75-.41c4.78-.62,9.56-3.53,9.76-2.49a3.39,3.39,0,0,1-.41,2.9c-.62.63-5,.21-8.1,1s-7.68,2.7-4.36,3.12,11.63-2.91,12.25-.21-2.7,2.08-3.32,3.53,2.28,1.66,2.28,1.66a3,3,0,0,1-.83,2.49c-1,.83-1.45,1.87-.41,2.49s2.28,1.46,1.45,2.08-1.66,1-2.91,2.08.42,1.45,1.66,1.45,1.67.62,1.25,1.66-3.53-.21-2.49,1.45,2.49.21,2.49,1.25,0,2.08-1.45,2.28-1.66,1.66-1,1.66,1.66-.83,1.45.21l-.21,1s1.25-1.25,1.25,1-2.7-1.25-6-4.15-10.38,2.28-12.46,5.19-2.7,8.93.62,12,7.06,2.08,7.48,4.15,3.53,2.91,3.74,6,2.07,5,5.39,5.4c3.08.39,5.44-2.43,5.77-2.85.33.42,2.7,3.24,5.77,2.85,3.33-.41,5.2-2.28,5.4-5.4s3.33-3.94,3.74-6,4.15-1,7.48-4.15,2.69-9.14.62-12-9.14-8.1-12.46-5.19-6,6.43-6,4.15,1.24-1,1.24-1l-.2-1c-.21-1,.83-.21,1.45-.21s.42-1.45-1-1.66-1.45-1.24-1.45-2.28,1.45.42,2.49-1.25-2.08-.41-2.49-1.45,0-1.66,1.24-1.66,2.91-.42,1.67-1.45-2.08-1.46-2.91-2.08.41-1.45,1.45-2.08.63-1.66-.41-2.49a3,3,0,0,1-.83-2.49s2.9-.21,2.28-1.66-3.94-.83-3.32-3.53,8.93.62,12.25.21-1.25-2.29-4.36-3.12-7.48-.41-8.1-1a3.39,3.39,0,0,1-.41-2.9c.2-1,5,1.87,9.75,2.49a40,40,0,0,0,9.76.41c3.95-.2.83-2.07-2.7-2.7s-8.51-.62-11.21-.83a6.52,6.52,0,0,1-4.36-1.86c-.83-.63-.41-1.25-.41-1.25a40.16,40.16,0,0,1,4.15.62c1.87.42,7.68,0,11,0s4.57-1.66,1.66-1.87-15.57-1.45-17.23-1.86-.62-1.67-.41-2.29,1.86.42,2.69.42,7.69,1.45,11.22.83,5.19-2.29.83-3.12S399,284.71,399,284.71l-.21-4.57,9.14-.41C412.51,279.52,419.77,277.86,421.44,276.2Zm-34.29,78.3c-1.94-3.67,5.83.21,5.83.21C393.84,356.44,389.1,358.17,387.15,354.5ZM401,356.44a2.52,2.52,0,0,1-2.81-.65c-.43-.64,4.53-1.94,4.53-1.94C405.28,352.77,402,356,401,356.44Zm-.51-19.2c1.67-.83,4.16.83,5.61,3.53s-.42,2.7-4.15,7.48c-3.36,4.29-5.88,4.55-6.35,4.56h-.09c-.47,0-3-.27-6.35-4.56-3.74-4.78-5.61-4.78-4.15-7.48s3.94-4.36,5.6-3.53,2.08,3.32,3.74,3.74l.75.18v.23l.45-.11.46.11v-.23l.75-.18C398.39,340.56,398.8,338.07,400.46,337.24Z" style="fill:#fff;stroke:#263238;stroke-linejoin:round"></path><path d="M398.8,274.33a2,2,0,0,1-1-2.49c-.29-1.49-1.55-1.17-2.24-.86-.68-.31-1.94-.63-2.24.86a2,2,0,0,1-1,2.49c-1.67.62-24.3.2-22.64,1.87s8.93,3.32,13.5,3.53l9.14.41-.21,4.57s-10,.62-14.33,1.45-2.7,2.49.83,3.12,10.38-.83,11.21-.83,2.5-1,2.7-.42,1.25,1.87-.41,2.29-14.33,1.66-17.24,1.86-1.66,1.87,1.67,1.87,9.13.42,11,0a40.16,40.16,0,0,1,4.15-.62s.42.62-.41,1.25a6.52,6.52,0,0,1-4.36,1.86c-2.7.21-7.69.21-11.22.83s-6.64,2.5-2.69,2.7a39.93,39.93,0,0,0,9.75-.41c4.78-.62,9.56-3.53,9.76-2.49a3.39,3.39,0,0,1-.41,2.9c-.62.63-5,.21-8.1,1s-7.68,2.7-4.36,3.12,11.63-2.91,12.25-.21-2.7,2.08-3.32,3.53,2.28,1.66,2.28,1.66a3,3,0,0,1-.83,2.49c-1,.83-1.45,1.87-.41,2.49s2.28,1.46,1.45,2.08-1.66,1-2.91,2.08.42,1.45,1.66,1.45,1.67.62,1.25,1.66-3.53-.21-2.49,1.45,2.49.21,2.49,1.25,0,2.08-1.45,2.28-1.66,1.66-1,1.66,1.66-.83,1.45.21l-.21,1s1.25-1.25,1.25,1-2.7-1.25-6-4.15a3.45,3.45,0,0,0-1.87-.8c-2.07,1-8.92,4.84-9.2,9.82-.32,5.87,6.2,7.5,11.09,8.81l.51.12c-1.1-1.2-1.37-1.86-.53-3.42,1.45-2.7,3.94-4.36,5.6-3.53s2.08,3.32,3.74,3.74l.75.18v.23l.45-.11.46.11v-.23l.75-.18c1.66-.42,2.07-2.91,3.73-3.74s4.16.83,5.61,3.53c1.06,2,.34,2.51-1.59,4.53a24.45,24.45,0,0,0,3.35-.58c6.19-1.63,10.43-4.57,8.8-12.39a31.6,31.6,0,0,0-1.05-3.83c-3-2.35-7.18-4.31-9.51-2.26-3.32,2.9-6,6.43-6,4.15s1.24-1,1.24-1l-.2-1c-.21-1,.83-.21,1.45-.21s.42-1.45-1-1.66-1.45-1.24-1.45-2.28,1.45.42,2.49-1.25-2.08-.41-2.49-1.45,0-1.66,1.24-1.66,2.91-.42,1.67-1.45-2.08-1.46-2.91-2.08.41-1.45,1.45-2.08.63-1.66-.41-2.49a3,3,0,0,1-.83-2.49s2.9-.21,2.28-1.66-3.94-.83-3.32-3.53,8.93.62,12.25.21-1.25-2.29-4.36-3.12-7.48-.41-8.1-1a3.39,3.39,0,0,1-.41-2.9c.2-1,5,1.87,9.75,2.49a40,40,0,0,0,9.76.41c3.95-.2.83-2.07-2.7-2.7s-8.51-.62-11.21-.83a6.52,6.52,0,0,1-4.36-1.86c-.83-.63-.41-1.25-.41-1.25a40.16,40.16,0,0,1,4.15.62c1.87.42,7.68,0,11,0s4.57-1.66,1.66-1.87-15.57-1.45-17.23-1.86-.62-1.67-.41-2.29,1.86.42,2.69.42,7.69,1.45,11.22.83,5.19-2.29.83-3.12S399,284.71,399,284.71l-.21-4.57,9.14-.41c4.57-.21,11.83-1.87,13.5-3.53S400.46,275,398.8,274.33Z" style="fill:#b5b5b5;stroke:#263238;stroke-linejoin:round"></path><path d="M367.68,246l4.8,4.74s1,.59-.36,1.65l-1.36,1.06-5.67-5.15Z" style="fill:#fff;stroke:#263238;stroke-linejoin:round"></path><path d="M368.29,248.29s2-2.9.69-5.49a5,5,0,0,0-7.62-1.23c-2.4,2.16-1.93,2.16-4.05,3.94s-34.53,21.41-37.59,22.27-5.2-.13-6.66,2,1.44,5.09,1.44,5.09a3.08,3.08,0,0,0,1.24,3.33c1.87,1.38,3.55,2.38,4.64.42s.88-5.58,4.21-7.28,33.42-19.91,36.49-20.31S366.27,250.26,368.29,248.29Z" style="fill:#fff;stroke:#263238;stroke-linejoin:round"></path><path d="M321.69,275.8a1.45,1.45,0,0,0,.12,2.5c1.74,1.19,14.51,13.4,20.91,18.47a69.75,69.75,0,0,1,9.72,9.08c1.3,1.34,3.21,1.51,2.51-1.29s-2.61-2.68-3.48-3.57-23.21-22.32-25.24-24.4S322.43,275.08,321.69,275.8Z" style="fill:#fff;stroke:#263238;stroke-linejoin:round"></path><path d="M319.88,279.59s-2.94.56-1.51,2.92,11,10.42,14.8,14.29,13.05,13.37,15.08,14.87,4.85-.38,2.69-3.2-5.81-5.36-7.84-7.44-15.23-14.43-18.28-17.55S320.91,279.75,319.88,279.59Z" style="fill:#fff;stroke:#263238;stroke-linejoin:round"></path><path d="M353.42,309.53s-4.46-2.54-7.22-2-7.35,2.58-7.69,3.24.06,1.86,1.7,1,3.45-2.35,4.86-1.93-1,1.7-3.88,3.29-3.17,2.44-3.17,2.44a28.85,28.85,0,0,1-2.81,1.77,5.81,5.81,0,0,0-2.16,2.12s-3.46,1.89-2,2,3.05-.48,3.4-1.14,1.62-1.36,2.9-2.05,1.52-1.54,2.53-1.86a7.62,7.62,0,0,0,2.29-1l3.65-2c1.09-.59,2-1.09,1.67,0s-3.91,2.37-5.37,3.16-2,2-2.52,2.32l-2,1.09a3.35,3.35,0,0,0-1.17,1.34,2.21,2.21,0,0,0-2.1.92c-.8,1.14-2.15,2.12-1.33,1.9a23.72,23.72,0,0,0,4.05-1.26,4.57,4.57,0,0,0,1.51-2,5,5,0,0,0,2-.63c1.09-.6,1.36-1,1.9-1.28a12.8,12.8,0,0,0,2.56-1.39c1-.78,1.6-1.82,2.9-2.05s.79,1.46-.67,2.25-3.84,1.62-4.19,2.29a2.59,2.59,0,0,1-1.62,1.36,3.55,3.55,0,0,0-1.73,1.17,6.48,6.48,0,0,1-1.72,1.18c-.73.4-2.82,1.77-1.71,1.64a29.51,29.51,0,0,0,3.95-1.44c1-.32,1.24-1.63,2.17-1.66a3,3,0,0,0,2.2-.73,10.07,10.07,0,0,1,2-1.55c.73-.4,1-.32,2.1-.92l2.19-1.19s-5.12,4.92-5.67,5.22-1.29.23-2,1.09-3.47,1.89-2.26,1.94,2.94-1.12,4.31-1.64a9.34,9.34,0,0,0,3.55-2.17,9.27,9.27,0,0,1,2.62-2.13,10.27,10.27,0,0,0,3.4-3.75C356,314.74,356,310.74,353.42,309.53Z" style="fill:#fff;stroke:#263238;stroke-linejoin:round"></path><path d="M338.19,312.39a1.42,1.42,0,0,0-2.07-.76c-1.46.8-3.17,2.44-2.14,2.59S337.2,313.17,338.19,312.39Z" style="fill:#fff;stroke:#263238;stroke-linejoin:round"></path><path d="M427.53,245.14l-3.89,5.5s-.89.75.63,1.56l1.53.81,4.68-6.06Z" style="fill:#fff;stroke:#263238;stroke-linejoin:round"></path><path d="M430,245.91s-3.09-1.71-3.05-4.61a5,5,0,0,1,6.29-4.48c3.11.88,2.69,1.08,5.38,1.74s40.43,3.92,43.56,3.34,4.6-2.42,6.87-1.14,1,5.2,1,5.2a3.09,3.09,0,0,1,.36,3.54c-1.07,2.06-2.13,3.7-4,2.43s-3.25-4.62-7-4.67-38.79-3.06-41.71-2.07S432.63,246.78,430,245.91Z" style="fill:#fff;stroke:#263238;stroke-linejoin:round"></path><path d="M490.35,244.09a1.45,1.45,0,0,1-2.46-.47c-.93-1.9-11.2-16.26-15.32-23.31A70,70,0,0,0,465,209.39c-1.14-1.48-1-3.39,1.63-2.3s2.28,3,3,3.95,18.81,26.14,20.58,28.44S491.17,243.46,490.35,244.09Z" style="fill:#fff;stroke:#263238;stroke-linejoin:round"></path><path d="M486.34,245.34s-1,2.84-3.1,1.08-8.75-12.39-12.05-16.67-11.4-14.81-12.59-17,1.07-4.74,3.55-2.2,4.48,6.51,6.25,8.81,12.14,17.12,14.8,20.58S486.32,244.3,486.34,245.34Z" style="fill:#fff;stroke:#263238;stroke-linejoin:round"></path><path d="M458.2,205.5s2.15-4.66,4.73-5.8,7.48-2.16,8.15-1.82,1,1.55-.83,1.77-4.17.09-5.08,1.24,1.77.83,5.07.43,4,.15,4,.15a30.23,30.23,0,0,0,3.33-.19,5.74,5.74,0,0,1,3,.47s3.92-.47,2.78.51-2.76,1.37-3.43,1-2.11-.17-3.55,0-2.14-.37-3.14,0a8,8,0,0,1-2.45.5l-4.13.5c-1.23.15-2.26.27-1.34,1s4.56-.34,6.21-.54,2.78.5,3.4.43l2.27-.28a3.27,3.27,0,0,1,1.72.42,2.21,2.21,0,0,1,2.24-.48c1.31.47,3,.48,2.19.78a24.73,24.73,0,0,1-4,1.33,4.62,4.62,0,0,1-2.39-.76,5,5,0,0,1-2,.66c-1.24.15-1.67,0-2.29.07a14.08,14.08,0,0,1-2.89.35c-1.26-.06-2.37-.56-3.55,0s.2,1.65,1.85,1.45,4.07-.91,4.74-.58a2.55,2.55,0,0,0,2.11.17,3.59,3.59,0,0,1,2.08-.05,6.17,6.17,0,0,0,2.09,0c.83-.1,3.32-.19,2.34.35a29.57,29.57,0,0,1-4,1.11c-1,.33-2-.6-2.73-.09a3,3,0,0,1-2.22.69,10.27,10.27,0,0,0-2.53-.11c-.82.1-1,.33-2.24.48l-2.47.29s7,1,7.64,1,1.19-.56,2.27-.27,3.92-.47,3,.27-3,.79-4.46,1.17a9.36,9.36,0,0,1-4.15.29,9.22,9.22,0,0,0-3.37-.22,10.16,10.16,0,0,1-4.94-1.08C459.1,211.24,456.82,208,458.2,205.5Z" style="fill:#fff;stroke:#263238;stroke-linejoin:round"></path><path d="M472.26,199a1.41,1.41,0,0,1,1.24-1.82c1.65-.2,4,.14,3.25.86S473.52,199.05,472.26,199Z" style="fill:#fff;stroke:#263238;stroke-linejoin:round"></path><path d="M392.66,253.15s-7.47-.42-9.76-.62S391.83,252.32,392.66,253.15Z" style="fill:#fff;stroke:#263238;stroke-miterlimit:10"></path><path d="M429.72,286.79c1-2.5-.63-2.29-2.5-1s-5.6.62-8.72.41-2.9-1.45-4.57-2.7,5,1.25,7.69,1.66a7.83,7.83,0,0,0,6.23-1.24c1.87-1.25,1.66-5.19.41-5s-2.91,1.66-4.77,2.9-6.65-.21-9.14-.83-8.1-4.36-10-5.6,6.23,2.49,6.23,2.49a60.75,60.75,0,0,0,9.14,2.7c3.74.62,5-.83,7.27-3.12s1.45-5-.21-4.15-7.48,2.7-10.8,2.28-8.3-2.7-11-3.73,2.28,0,5,.83a33.18,33.18,0,0,0,12.46,1c4.15-.62,5.4-4.36,3.94-6s-3.53,1.66-7.47,2.29-8.1-.83-11-1-7.47-.83-5.19-1.45,10.8.83,15.78.83,6.23-3.12,5.19-5.2-1.24-1.86-3.73-.41-10.59,1-12,1-3.32-.42-3.73-1.66,4.56-1,7.68-1,6.44-.21,8.72-1.66,2.08-3.53,0-3.95-3.12,1.46-6,2.08a96.18,96.18,0,0,1-10.8,1c-.62,0-1.25-1-1-1.66s5.61-.42,8.72-.42,8.93-1.25,8.93-3.32-16.82-1.66-16.82-1.66l-.41-1.87h10.17c3.32,0,2.49-.83.62-1.46s-11.21-.2-11.21-.2c-2.49-.21-5.49-.21-5.49-.21s-1.25,0-3.74.21c0,0-9.34-.42-11.21.2s-2.7,1.46.62,1.46h10.18l-.42,1.87s-16.82-.42-16.82,1.66,5.82,3.32,8.93,3.32,8.51-.21,8.72.42-.41,1.66-1,1.66a95.84,95.84,0,0,1-10.79-1c-2.91-.62-4-2.49-6-2.08s-2.28,2.49,0,3.95,5.61,1.66,8.73,1.66,8.09-.21,7.68,1-2.29,1.66-3.74,1.66-9.55.41-12-1-2.7-1.66-3.74.41.21,5.2,5.19,5.2,13.5-1.46,15.78-.83-2.28,1.24-5.19,1.45-7.06,1.66-11,1-6-4-7.48-2.29-.21,5.4,3.95,6a33.13,33.13,0,0,0,12.45-1c2.7-.83,7.69-1.87,5-.83s-7.69,3.32-11,3.73-9.13-1.45-10.79-2.28-2.5,1.87-.21,4.15,3.53,3.74,7.27,3.12a60.88,60.88,0,0,0,9.13-2.7s8.1-3.74,6.23-2.49-7.47,5-10,5.6-7.26,2.08-9.13.83-3.53-2.7-4.78-2.9-1.45,3.73.42,5a7.83,7.83,0,0,0,6.23,1.24c2.7-.41,9.34-2.9,7.68-1.66s-1.45,2.49-4.57,2.7-6.85.83-8.72-.41-3.53-1.46-2.49,1,5.19,3.53,7.06,3.53,7.06-1.87,5-1-3.53,1.87-6.64,1.66-3.53-1-4.16-.83-.83,2.7,1,3.94a6.1,6.1,0,0,0,4.36.63s-3.11,1.45-4.56,1.45.2,2.7,3.52,1.87,4.16-2.91,6.86-5.61,5.19-9.34,7.89-11.63,8.72-6.43,10-6.64a6.34,6.34,0,0,0,1.3-.35,6.22,6.22,0,0,0,1.29.35c1.25.21,7.27,4.36,10,6.64s5.19,8.93,7.89,11.63,3.53,4.78,6.85,5.61,5-1.87,3.53-1.87-4.57-1.45-4.57-1.45a6.1,6.1,0,0,0,4.36-.63c1.87-1.24,1.66-3.73,1-3.94s-1,.62-4.15.83-4.57-.83-6.65-1.66,3.12,1,5,1S428.68,289.28,429.72,286.79Z" style="fill:#fff;stroke:#263238;stroke-miterlimit:10"></path><path d="M403.55,253.15s7.48-.42,9.76-.62S404.38,252.32,403.55,253.15Z" style="fill:#fff;stroke:#263238;stroke-miterlimit:10"></path><path d="M374.14,221.48s-5.46-8.47-5.6-16.08,5.89-11.83,12-13.21,13-3,16.35,3.72,5.4,12.21,5.27,14.44-.26,3.81-.26,3.81,2.76-.27,3.55,1.44,2.1,3.67,1.38,5.45-3.15,2.36-3.47,3.35,1.91,9,1.39,11.36-3.34,4.4-6.69,6.18-9.39,1.39-11.16,0-5.33-8.73-6.12-9.78-5.39-.39-7-3.34S372.49,222.46,374.14,221.48Z" style="fill:#fff;stroke:#263238;stroke-linejoin:round"></path><path d="M389.17,221.26s-1.9,2.83-1,4.27a2.19,2.19,0,0,0,2.5.92Z" style="fill:#263238"></path><path d="M390.11,221s3.22,1.11,3.36,2.82A2.2,2.2,0,0,1,392,226Z" style="fill:#263238"></path><path d="M381.11,231.19l3.09,5.31a5.84,5.84,0,0,0,1.24-4.79C384.91,228.82,381.43,230.2,381.11,231.19Z" style="fill:#263238"></path><path d="M402.37,224.07l.47,5.32s-4.27-2.29-4.27-4.26S402.37,224.07,402.37,224.07Z" style="fill:#263238"></path><path d="M387,217.21a4.68,4.68,0,1,1-5.92-3A4.68,4.68,0,0,1,387,217.21Z" style="fill:#263238"></path><path d="M399.49,212.63a5.85,5.85,0,1,1-7.41-3.7A5.86,5.86,0,0,1,399.49,212.63Z" style="fill:#263238"></path><path d="M396.12,233.82a6.21,6.21,0,0,1-1.24.27,1.16,1.16,0,0,1-.91-.37c-.06,1-1,1.15-1.77,1.23l-.62.09a1.36,1.36,0,0,1-1.45-.88,1.3,1.3,0,0,1-.32,1,2.67,2.67,0,0,1-1.92.62,1.61,1.61,0,0,1-1.25-.61,3,3,0,0,1-.51-2.08.43.43,0,0,1,.48-.37.44.44,0,0,1,.37.49h0a2.24,2.24,0,0,0,.35,1.44.82.82,0,0,0,.62.27,1.81,1.81,0,0,0,1.25-.37c.1-.1.06-.54,0-.78a1.28,1.28,0,0,1,.15-1,.6.6,0,0,1,.44-.19c.46,0,.67.44.87.87.29.59.46.85.72.8l.68-.09c.92-.11,1-.19,1-.48a6.87,6.87,0,0,0-.31-1.82.42.42,0,0,1,.26-.54.45.45,0,0,1,.55.24c.38.95.95,1.72,1.16,1.73,1.49-.18,1.78-.59,1.83-.75a4.14,4.14,0,0,0-.24-1.87.43.43,0,0,1,.26-.54.42.42,0,0,1,.55.24c.35.85.94,1.64,1.18,1.56,1-.35,1.49-.58,1.42-1.05a7,7,0,0,0-.58-1.72.43.43,0,0,1,.19-.58.43.43,0,0,1,.58.19,7.77,7.77,0,0,1,.66,2c.2,1.26-1.12,1.7-2,2a1.15,1.15,0,0,1-1.13-.31,1.51,1.51,0,0,1-.07.37A1.82,1.82,0,0,1,396.12,233.82Z" style="fill:#263238"></path><path d="M395.29,236.93h0a.43.43,0,0,1-.53-.23c-.65-1.43-1.11-1.67-1.32-1.68-.66-.05-1.47.15-1.68.58a1.91,1.91,0,0,0,0,1.2c.05.21.1.41.13.6a.43.43,0,0,1-.33.47.42.42,0,0,1-.51-.27c-.35-1-.8-1.59-1.22-1.6a1.79,1.79,0,0,0-1,.21.63.63,0,0,0-.38.52,2.9,2.9,0,0,0,.2,1.12c.07.2.14.42.2.66a.44.44,0,0,1-.85.19,4,4,0,0,0-.17-.58,3.9,3.9,0,0,1-.25-1.43,1.48,1.48,0,0,1,.82-1.23,2.72,2.72,0,0,1,1.43-.33,1.59,1.59,0,0,1,1,.42,1.35,1.35,0,0,1,.11-.32,2.54,2.54,0,0,1,2.52-1.07,1.34,1.34,0,0,1,.8.34c.06-1.06,1.07-1.3,1.88-1.49l.29-.07c.74-.19,1.15.41,1.4.84a1.55,1.55,0,0,1,.13-1.23,2.49,2.49,0,0,1,1.74-.9,1.38,1.38,0,0,1,1.14.37,2.26,2.26,0,0,1,.68,1.55c0,.09,0,.19.05.3a.44.44,0,0,1-.37.49.43.43,0,0,1-.49-.36c0-.12,0-.22,0-.33a1.47,1.47,0,0,0-.45-1,.6.6,0,0,0-.45-.11,1.7,1.7,0,0,0-1.11.54,1.54,1.54,0,0,0,.05.72,1.37,1.37,0,0,1-.06,1.08.62.62,0,0,1-.47.26c-.54.06-.82-.42-1-.8s-.37-.57-.5-.53l-.3.07c-.9.21-1.2.34-1.21.7a3.17,3.17,0,0,0,.21,1.2,5.53,5.53,0,0,1,.19.68A.43.43,0,0,1,395.29,236.93Z" style="fill:#263238"></path></g><g id="character-2"><path d="M243.9,271c-1.59-1.2-2.55-3.77-5.39-2.22,0,0-5.34,4.45-6.95,5.38s-7.93,7.54-9.79,9.54-3.91,3.91-2,3.35a5.25,5.25,0,0,0,2.61-1.74c-.75,1-3.16,4.4-1.94,3.94,1.42-.53,2.94-1.27,2.94-1.27s-3.53,3.61-1.71,3.25a8.37,8.37,0,0,0,3.41-1.76s-3.29,5.14-1.59,4,6-3.21,7.27-4.52,1.91-3.16,4.09-4.3,3.52-1.48,4.23-3.05,1-2.65,1.82-3,1.7-1.13,2.7-2.8S245.49,272.15,243.9,271Zm-21,13.23,7.36-7.32C228,281,223,284.19,223,284.19Zm2.22,2.43s4.91-8.2,7.77-9.27Zm2,1.38c-2.27,1.34,6.84-8.27,6.84-8.27C237.72,278.81,229.42,286.66,227.15,288Z" style="fill:#fff;stroke:#263238;stroke-miterlimit:10"></path><path d="M213.74,243.77c-2.81-1.18-5.22-.1-6.58,3.86s-.09,6.48-.09,6.48-.14,3.18,2.52,2.51a5.79,5.79,0,0,1,4.15.21l23.46,13.75a21.93,21.93,0,0,1,4,3.39c2.34,2.4,3.85.29,5.4-2.31s1-5.44-2.53-6.28-5.44-1-6.18-1.43-17.5-11.95-19.25-14.5S216.56,244.94,213.74,243.77Zm21.78,22A7,7,0,0,1,239.2,271l-24-15.82c-.52-.81.63-1.89,1.55-1.34S232,263.71,235.52,265.81Z" style="fill:#fff;stroke:#263238;stroke-miterlimit:10"></path><path d="M251,203.65s2.79,1.63,3.45-2.49-1.92-6.12-4-5.58-3.45,2.49-5.59,2.73-1.54-1.64-3.4-2.73-5.18.72-7.53,5.6,1.2,3.95-.69,7.6-17.37,27.59-21.48,29.93-6.33.56-7.29,3.49-1,5.16,1.28,5.5,6.13-1.92,6.08.3-1.47,4.65.93,3.55,5.16-2,5.93-5-.29-2.92,1.56-6.09,17.65-28.93,19.6-30.55,4.41-2.42,4.69-3.75-1-2.1.67-2.86S251,203.65,251,203.65Z" style="fill:#fff;stroke:#263238;stroke-miterlimit:10"></path><path d="M283,272.15c1.42-1.39,2-4.07,5.06-2.89,0,0,5.87,3.72,7.58,4.44s8.84,6.45,10.94,8.2,4.38,3.37,2.41,3.07a5.22,5.22,0,0,1-2.8-1.39c.87.91,3.69,3.95,2.43,3.65-1.49-.35-3.09-.88-3.09-.88s4,3.13,2.12,3A8.41,8.41,0,0,1,304,288s3.92,4.68,2.09,3.78-6.33-2.42-7.79-3.54-2.3-2.89-4.61-3.75-3.68-1-4.59-2.48-1.29-2.5-2.18-2.71-1.83-.9-3-2.43S281.54,273.54,283,272.15Zm22.48,10.43-8.24-6.32C300.08,280.07,305.45,282.58,305.45,282.58Zm-1.89,2.69s-5.92-7.5-8.9-8.19Zm-1.79,1.62c2.42,1-7.84-7.32-7.84-7.32C290.11,279.15,299.35,285.85,301.77,286.89Z" style="fill:#fff;stroke:#263238;stroke-miterlimit:10"></path><path d="M313.08,243.77c2.81-1.18,5.22-.1,6.58,3.86s.09,6.48.09,6.48.14,3.18-2.52,2.51a5.79,5.79,0,0,0-4.15.21l-23.46,13.75a22.15,22.15,0,0,0-4,3.39c-2.33,2.4-3.85.29-5.39-2.31s-1-5.44,2.53-6.28,5.44-1,6.18-1.43,17.5-11.95,19.25-14.5S310.26,244.94,313.08,243.77Zm-21.78,22a7,7,0,0,0-3.68,5.21l24-15.82c.52-.81-.63-1.89-1.55-1.34S294.82,263.71,291.3,265.81Z" style="fill:#fff;stroke:#263238;stroke-miterlimit:10"></path><path d="M275.79,203.65s-2.79,1.63-3.45-2.49,1.92-6.12,4-5.58,3.45,2.49,5.59,2.73,1.54-1.64,3.4-2.73,5.18.72,7.53,5.6-1.2,3.95.68,7.6,17.38,27.59,21.49,29.93,6.33.56,7.29,3.49,1,5.16-1.28,5.5-6.13-1.92-6.08.3,1.46,4.65-.93,3.55-5.16-2-5.94-5,.3-2.92-1.55-6.09-17.65-28.93-19.6-30.55-4.41-2.42-4.69-3.75,1-2.1-.67-2.86S275.79,203.65,275.79,203.65Z" style="fill:#fff;stroke:#263238;stroke-miterlimit:10"></path><path d="M258.61,90.72l-.42,3.12A9.63,9.63,0,0,1,254,95.29c-1.87,0-6.85-1.24-12.46-1.24s-11.84,1-12.67,2.7,5.19,5.6,6,8.72.42,7.68,2.5,10,5.39,5.19,9.76.42,2.07-10.8,1.24-12.88-6.23-1.86-8.1-2.49-5.6-3.53-5.6-3.53a54.87,54.87,0,0,1,9.13-1.45c3.12,0,21,1.45,26,1.45h13.7c4.57,0,5.19.63,2.7,2.08s-3.74,1.45-6.85,1.66-7.06,3.12-5.4,6.85,3.53,9.55,7.89,10.59,6-1.45,7.27-5.6,1.87-10.59,5.19-12.88,5.81-2.28,1.87-3.32-15.37-1.45-20.77-1.45-7.89.2-8.72-1,0-3.74,0-3.74l-8.3-.62Z" style="fill:#b5b5b5;stroke:#263238;stroke-linejoin:round"></path><path d="M288.21,125.81c1.66-1.66-21-1.24-22.63-1.86s-1-2.5-1-2.5c-.3-1.48-1.55-1.16-2.24-.86-.69-.3-1.94-.62-2.24.86,0,0,.62,1.87-1,2.5s-24.29.2-22.63,1.86,8.93,3.33,13.49,3.53l9.14.42-.21,4.57s-10,.62-14.32,1.45-2.7,2.49.83,3.12,10.38-.83,11.21-.83,2.49-1,2.7-.42,1.24,1.87-.42,2.28-14.32,1.67-17.23,1.87-1.66,1.87,1.66,1.87,9.14.42,11,0a40.17,40.17,0,0,1,4.16-.62s.41.62-.42,1.24a6.47,6.47,0,0,1-4.36,1.87c-2.7.21-7.68.21-11.21.83s-6.64,2.5-2.7,2.7a40,40,0,0,0,9.76-.41c4.77-.63,9.55-3.53,9.76-2.49a3.37,3.37,0,0,1-.42,2.9c-.62.63-5,.21-8.09,1s-7.69,2.7-4.37,3.12,11.63-2.91,12.26-.21-2.7,2.07-3.33,3.53,2.29,1.66,2.29,1.66a3.05,3.05,0,0,1-.83,2.49c-1,.83-1.46,1.87-.42,2.49s2.29,1.46,1.45,2.08-1.66,1-2.9,2.08.41,1.45,1.66,1.45,1.66.62,1.24,1.66-3.53-.21-2.49,1.45,2.49.21,2.49,1.25,0,2.08-1.45,2.28-1.66,1.66-1,1.66,1.66-.83,1.46.21l-.21,1s1.24-1.25,1.24,1-2.69-1.25-6-4.15-10.38,2.28-12.45,5.19-2.7,8.92.62,12,7.06,2.08,7.47,4.15,3.53,2.91,3.74,6,2.08,5,5.4,5.4c3.08.39,5.44-2.43,5.77-2.85.33.42,2.69,3.24,5.77,2.85,3.32-.41,5.19-2.28,5.4-5.4s3.32-3.94,3.74-6,4.15-1,7.47-4.15,2.7-9.14.62-12-9.13-8.1-12.45-5.19-6,6.43-6,4.15,1.25-1,1.25-1l-.21-1c-.21-1,.83-.21,1.46-.21s.41-1.45-1-1.66-1.46-1.24-1.46-2.28,1.46.41,2.5-1.25-2.08-.41-2.5-1.45,0-1.66,1.25-1.66S271,169,269.73,168s-2.08-1.46-2.91-2.08.42-1.45,1.46-2.08.62-1.66-.42-2.49a3,3,0,0,1-.83-2.49s2.91-.21,2.29-1.66-3.95-.83-3.33-3.53,8.93.62,12.25.21-1.24-2.29-4.36-3.12-7.47-.41-8.09-1a3.37,3.37,0,0,1-.42-2.9c.21-1,5,1.86,9.76,2.49a40,40,0,0,0,9.76.41c3.94-.2.83-2.07-2.7-2.7s-8.51-.62-11.21-.83a6.47,6.47,0,0,1-4.36-1.87c-.83-.62-.42-1.24-.42-1.24a40.16,40.16,0,0,1,4.15.62c1.87.42,7.69,0,11,0s4.57-1.66,1.66-1.87-15.57-1.45-17.23-1.87-.63-1.66-.42-2.28,1.87.42,2.7.42,7.68,1.45,11.21.83,5.19-2.29.83-3.12-14.32-1.45-14.32-1.45l-.21-4.57,9.13-.42C279.28,129.14,286.55,127.48,288.21,125.81Zm-34.28,78.31c-1.94-3.67,5.83.21,5.83.21C260.62,206.06,255.87,207.79,253.93,204.12Zm13.81,1.94a2.52,2.52,0,0,1-2.81-.65c-.43-.64,4.54-1.94,4.54-1.94C272.06,202.39,268.82,205.63,267.74,206.06Zm-.5-19.2c1.66-.83,4.15.83,5.61,3.53s-.42,2.7-4.16,7.47c-3.36,4.3-5.87,4.56-6.35,4.57h-.08c-.48,0-3-.27-6.35-4.57-3.74-4.77-5.61-4.77-4.16-7.47s3.95-4.36,5.61-3.53,2.08,3.32,3.74,3.74l.74.18V191l.46-.11.46.11v-.23l.74-.18C265.16,190.18,265.58,187.69,267.24,186.86Z" style="fill:#fff;stroke:#263238;stroke-linejoin:round"></path><path d="M265.58,124c-1.66-.63-1-2.5-1-2.5-.3-1.48-1.55-1.16-2.24-.86-.69-.3-1.94-.62-2.24.86,0,0,.62,1.87-1,2.5s-24.29.2-22.63,1.86,8.93,3.33,13.49,3.53l9.14.42-.21,4.57s-10,.62-14.32,1.45-2.7,2.49.83,3.12,10.38-.83,11.21-.83,2.49-1,2.7-.42,1.24,1.87-.42,2.28-14.32,1.67-17.23,1.87-1.66,1.87,1.66,1.87,9.14.42,11,0a40.17,40.17,0,0,1,4.16-.62s.41.62-.42,1.24a6.47,6.47,0,0,1-4.36,1.87c-2.7.21-7.68.21-11.21.83s-6.64,2.5-2.7,2.7a40,40,0,0,0,9.76-.41c4.77-.63,9.55-3.53,9.76-2.49a3.37,3.37,0,0,1-.42,2.9c-.62.63-5,.21-8.09,1s-7.69,2.7-4.37,3.12,11.63-2.91,12.26-.21-2.7,2.07-3.33,3.53,2.29,1.66,2.29,1.66a3.05,3.05,0,0,1-.83,2.49c-1,.83-1.46,1.87-.42,2.49s2.29,1.46,1.45,2.08-1.66,1-2.9,2.08.41,1.45,1.66,1.45,1.66.62,1.24,1.66-3.53-.21-2.49,1.45,2.49.21,2.49,1.25,0,2.08-1.45,2.28-1.66,1.66-1,1.66,1.66-.83,1.46.21l-.21,1s1.24-1.25,1.24,1-2.69-1.25-6-4.15a3.39,3.39,0,0,0-1.87-.8c-2.07,1-8.91,4.84-9.19,9.82-.33,5.87,6.19,7.5,11.09,8.8.15,0,.33.09.5.13-1.09-1.2-1.37-1.86-.53-3.42,1.46-2.7,3.95-4.36,5.61-3.53s2.08,3.32,3.74,3.74l.74.18V191l.46-.11.46.11v-.23l.74-.18c1.66-.42,2.08-2.91,3.74-3.74s4.15.83,5.61,3.53c1.06,2,.34,2.51-1.59,4.53a24.29,24.29,0,0,0,3.34-.58c6.2-1.63,10.44-4.57,8.81-12.39a29.8,29.8,0,0,0-1.06-3.83c-3-2.35-7.17-4.31-9.5-2.26-3.33,2.9-6,6.43-6,4.15s1.25-1,1.25-1l-.21-1c-.21-1,.83-.21,1.46-.21s.41-1.45-1-1.66-1.46-1.24-1.46-2.28,1.46.41,2.5-1.25-2.08-.41-2.5-1.45,0-1.66,1.25-1.66S271,169,269.73,168s-2.08-1.46-2.91-2.08.42-1.45,1.46-2.08.62-1.66-.42-2.49a3,3,0,0,1-.83-2.49s2.91-.21,2.29-1.66-3.95-.83-3.33-3.53,8.93.62,12.25.21-1.24-2.29-4.36-3.12-7.47-.41-8.09-1a3.37,3.37,0,0,1-.42-2.9c.21-1,5,1.86,9.76,2.49a40,40,0,0,0,9.76.41c3.94-.2.83-2.07-2.7-2.7s-8.51-.62-11.21-.83a6.47,6.47,0,0,1-4.36-1.87c-.83-.62-.42-1.24-.42-1.24a40.16,40.16,0,0,1,4.15.62c1.87.42,7.69,0,11,0s4.57-1.66,1.66-1.87-15.57-1.45-17.23-1.87-.63-1.66-.42-2.28,1.87.42,2.7.42,7.68,1.45,11.21.83,5.19-2.29.83-3.12-14.32-1.45-14.32-1.45l-.21-4.57,9.13-.42c4.57-.2,11.84-1.86,13.5-3.53S267.24,124.57,265.58,124Z" style="fill:#b5b5b5;stroke:#263238;stroke-linejoin:round"></path><path d="M234.45,95.64l4.8,4.74s1,.59-.35,1.65l-1.36,1.06-5.68-5.15Z" style="fill:#fff;stroke:#263238;stroke-linejoin:round"></path><path d="M233.07,99.15s3.18-1.54,3.29-4.45a5,5,0,0,0-6.06-4.8c-3.14.72-2.73.94-5.45,1.46s-40.59,1.8-43.68,1.07-4.47-2.67-6.8-1.51-1.23,5.15-1.23,5.15a3.07,3.07,0,0,0-.55,3.51c1,2.12,1.94,3.82,3.85,2.64s3.49-4.44,7.23-4.3,38.89-1,41.76.11S230.34,99.88,233.07,99.15Z" style="fill:#fff;stroke:#263238;stroke-linejoin:round"></path><path d="M179,100.38a1.45,1.45,0,0,0-1.12,2.24c.94,1.89,6.12,18.78,9.22,26.33a70.35,70.35,0,0,1,4.05,12.67c.48,1.81,2.06,2.89,2.82.11s-1-3.61-1.29-4.82-9.35-30.81-10.1-33.62S180,100.11,179,100.38Z" style="fill:#fff;stroke:#263238;stroke-linejoin:round"></path><path d="M175.54,102.81s-2.84-1-2.74,1.81,4.53,14.48,5.93,19.69,4.84,18.05,5.89,20.35,4.42,2,3.9-1.48-2.44-7.51-3.2-10.32-6.24-20-7.37-24.25S176.35,103.45,175.54,102.81Z" style="fill:#fff;stroke:#263238;stroke-linejoin:round"></path><path d="M190.17,145.32s-3.51,3.73-3.61,6.56.79,7.74,1.35,8.23,1.82.37,1.33-1.43-1.47-3.9-.74-5.18,1.43,1.34,2.29,4.55,1.63,3.65,1.63,3.65a30.87,30.87,0,0,1,1.06,3.15,5.67,5.67,0,0,0,1.56,2.59s1,3.81,1.5,2.4.25-3.08-.31-3.58-.94-1.89-1.32-3.3-1.14-1.84-1.21-2.9a7.7,7.7,0,0,0-.45-2.46c-.43-1.6-.75-2.8-1.07-4s-.59-2.2.42-1.62,1.39,4.36,1.82,6,1.5,2.39,1.66,3,.38,1.4.59,2.2a3.29,3.29,0,0,0,1,1.45,2.2,2.2,0,0,0,.39,2.26c.92,1,1.55,2.59,1.54,1.73a25.94,25.94,0,0,0-.27-4.22,4.56,4.56,0,0,0-1.6-1.94,4.92,4.92,0,0,0-.14-2.11c-.32-1.21-.63-1.55-.79-2.15a13.22,13.22,0,0,0-.75-2.81c-.53-1.15-1.4-2-1.32-3.3s1.6-.43,2,1.17.67,4.12,1.23,4.61a2.54,2.54,0,0,1,.94,1.9,3.59,3.59,0,0,0,.74,1.95,6.35,6.35,0,0,1,.74,2c.22.81,1.06,3.16,1.19,2a27.29,27.29,0,0,0-.47-4.17c-.07-1.06-1.29-1.59-1.1-2.5a3.11,3.11,0,0,0-.19-2.32,10.34,10.34,0,0,1-1-2.3c-.21-.8-.07-1-.39-2.26s-.65-2.4-.65-2.4,3.58,6.13,3.75,6.73-.08,1.31.59,2.21,1,3.81,1.35,2.64-.4-3.11-.58-4.57a9.43,9.43,0,0,0-1.28-4,9.57,9.57,0,0,1-1.46-3,10.15,10.15,0,0,0-2.84-4.18C195.84,144,192,143.12,190.17,145.32Z" style="fill:#fff;stroke:#263238;stroke-linejoin:round"></path><path d="M189.38,160.79a1.42,1.42,0,0,0-1.23,1.84c.43,1.6,1.63,3.65,2,2.68S189.9,161.94,189.38,160.79Z" style="fill:#fff;stroke:#263238;stroke-linejoin:round"></path><path d="M293.7,95.64l-4.8,4.74s-1,.59.35,1.65l1.36,1.06,5.68-5.15Z" style="fill:#fff;stroke:#263238;stroke-linejoin:round"></path><path d="M295.08,99.15s-3.18-1.54-3.29-4.45a5,5,0,0,1,6.06-4.8c3.14.72,2.73.94,5.45,1.46s40.59,1.8,43.68,1.07,4.47-2.67,6.8-1.51S355,96.07,355,96.07a3.07,3.07,0,0,1,.55,3.51c-1,2.12-1.94,3.82-3.85,2.64s-3.49-4.44-7.23-4.3-38.89-1-41.76.11S297.8,99.88,295.08,99.15Z" style="fill:#fff;stroke:#263238;stroke-linejoin:round"></path><path d="M349.18,100.38a1.45,1.45,0,0,1,1.12,2.24c-.94,1.89-6.12,18.78-9.22,26.33A70.35,70.35,0,0,0,337,141.62c-.48,1.81-2.06,2.89-2.82.11s1-3.61,1.29-4.82,9.35-30.81,10.1-33.62S348.18,100.11,349.18,100.38Z" style="fill:#fff;stroke:#263238;stroke-linejoin:round"></path><path d="M352.61,102.81s2.84-1,2.74,1.81-4.53,14.48-5.93,19.69-4.84,18.05-5.89,20.35-4.42,2-3.9-1.48,2.44-7.51,3.2-10.32,6.24-20,7.37-24.25S351.8,103.45,352.61,102.81Z" style="fill:#fff;stroke:#263238;stroke-linejoin:round"></path><path d="M338,145.32s3.51,3.73,3.61,6.56-.79,7.74-1.35,8.23-1.82.37-1.34-1.43,1.48-3.9.75-5.18-1.43,1.34-2.3,4.55-1.62,3.65-1.62,3.65a30.87,30.87,0,0,0-1.06,3.15,5.67,5.67,0,0,1-1.56,2.59s-1,3.81-1.5,2.4-.25-3.08.31-3.58.94-1.89,1.32-3.3,1.14-1.84,1.21-2.9a7.91,7.91,0,0,1,.44-2.46c.43-1.6.76-2.8,1.08-4s.59-2.2-.42-1.62-1.39,4.36-1.82,6-1.5,2.39-1.66,3-.38,1.4-.6,2.2a3.22,3.22,0,0,1-1,1.45,2.2,2.2,0,0,1-.39,2.26c-.92,1-1.56,2.59-1.54,1.73a23.88,23.88,0,0,1,.27-4.22,4.56,4.56,0,0,1,1.6-1.94,4.92,4.92,0,0,1,.14-2.11c.32-1.21.63-1.55.79-2.15a13.22,13.22,0,0,1,.75-2.81c.53-1.15,1.4-2,1.32-3.3s-1.61-.43-2,1.17-.67,4.12-1.23,4.61a2.54,2.54,0,0,0-.94,1.9,3.67,3.67,0,0,1-.74,1.95,6.35,6.35,0,0,0-.74,2c-.22.81-1.06,3.16-1.2,2a28.61,28.61,0,0,1,.48-4.17c.07-1.06,1.29-1.59,1.1-2.5a3.07,3.07,0,0,1,.19-2.32,10.34,10.34,0,0,0,1.05-2.3c.21-.8.07-1,.39-2.26l.65-2.4s-3.59,6.13-3.75,6.73.08,1.31-.59,2.21-1,3.81-1.35,2.64.4-3.11.58-4.57a9.43,9.43,0,0,1,1.28-4,9.57,9.57,0,0,0,1.46-3,10.05,10.05,0,0,1,2.84-4.18C332.31,144,336.2,143.12,338,145.32Z" style="fill:#fff;stroke:#263238;stroke-linejoin:round"></path><path d="M338.77,160.79a1.42,1.42,0,0,1,1.23,1.84c-.44,1.6-1.63,3.65-2,2.68S338.24,161.94,338.77,160.79Z" style="fill:#fff;stroke:#263238;stroke-linejoin:round"></path><path d="M259.44,102.77s-7.48-.42-9.76-.63S258.61,101.94,259.44,102.77Z" style="fill:#fff;stroke:#263238;stroke-miterlimit:10"></path><path d="M296.49,136.4c1-2.49-.62-2.28-2.49-1s-5.61.62-8.72.41-2.91-1.45-4.57-2.7,5,1.25,7.68,1.66a7.83,7.83,0,0,0,6.23-1.24c1.87-1.25,1.66-5.19.42-5s-2.91,1.67-4.78,2.91-6.64-.21-9.13-.83-8.1-4.36-10-5.61,6.23,2.5,6.23,2.5a60.88,60.88,0,0,0,9.13,2.7c3.74.62,5-.84,7.27-3.12s1.45-5-.21-4.15-7.47,2.7-10.79,2.28-8.31-2.7-11-3.74,2.29,0,5,.84a33.18,33.18,0,0,0,12.46,1c4.16-.62,5.4-4.36,3.95-6s-3.53,1.66-7.48,2.29-8.09-.83-11-1-7.48-.83-5.19-1.46,10.79.83,15.78.83,6.23-3.11,5.19-5.19-1.25-1.86-3.74-.41-10.59,1-12,1-3.32-.42-3.74-1.66,4.57-1,7.68-1,6.44-.21,8.72-1.66,2.08-3.53,0-4-3.11,1.45-6,2.08a95.84,95.84,0,0,1-10.79,1c-.63,0-1.25-1-1-1.67s5.6-.41,8.72-.41,8.93-1.25,8.93-3.32-16.82-1.66-16.82-1.66l-.42-1.87h10.18c3.32,0,2.49-.83.62-1.46s-11.21-.2-11.21-.2c-2.49-.21-5.5-.21-5.5-.21s-1.24,0-3.73.21c0,0-9.35-.42-11.22.2s-2.7,1.46.63,1.46h10.17l-.41,1.87s-16.82-.42-16.82,1.66,5.81,3.32,8.93,3.32,8.51-.21,8.72.41-.42,1.67-1,1.67a96.18,96.18,0,0,1-10.8-1c-2.91-.63-3.94-2.49-6-2.08s-2.28,2.49,0,4,5.61,1.66,8.72,1.66,8.1-.21,7.68,1-2.28,1.66-3.73,1.66-9.56.41-12.05-1-2.7-1.66-3.73.41.2,5.19,5.19,5.19,13.49-1.45,15.78-.83-2.29,1.25-5.19,1.46-7.06,1.66-11,1-6-4-7.47-2.29-.21,5.4,3.94,6a33.18,33.18,0,0,0,12.46-1c2.7-.84,7.68-1.87,5-.84s-7.68,3.33-11,3.74-9.14-1.45-10.8-2.28-2.49,1.87-.21,4.15,3.53,3.74,7.27,3.12a60.75,60.75,0,0,0,9.14-2.7s8.09-3.74,6.23-2.5-7.48,5-10,5.61-7.27,2.08-9.14.83-3.53-2.7-4.77-2.91-1.46,3.74.41,5a7.83,7.83,0,0,0,6.23,1.24c2.7-.41,9.35-2.9,7.68-1.66s-1.45,2.49-4.56,2.7-6.86.83-8.72-.41-3.53-1.46-2.5,1,5.19,3.53,7.06,3.53,7.06-1.86,5-1-3.53,1.86-6.65,1.66-3.53-1-4.15-.83-.83,2.7,1,3.94a6.07,6.07,0,0,0,4.36.62s-3.12,1.46-4.57,1.46.21,2.7,3.53,1.87,4.15-2.91,6.85-5.61,5.19-9.34,7.89-11.63,8.72-6.43,10-6.64a6.22,6.22,0,0,0,1.29-.35,6.34,6.34,0,0,0,1.3.35c1.24.21,7.26,4.36,10,6.64s5.19,8.93,7.89,11.63,3.53,4.78,6.85,5.61,5-1.87,3.53-1.87-4.56-1.46-4.56-1.46a6.07,6.07,0,0,0,4.36-.62c1.87-1.24,1.66-3.74,1-3.94s-1,.62-4.15.83-4.57-.83-6.64-1.66,3.11,1,5,1S295.45,138.9,296.49,136.4Z" style="fill:#fff;stroke:#263238;stroke-miterlimit:10"></path><path d="M270.33,102.77s7.47-.42,9.76-.63S271.16,101.94,270.33,102.77Z" style="fill:#fff;stroke:#263238;stroke-miterlimit:10"></path><path d="M252.48,62.08s-.13-10.07,3.8-16.6,11.28-6.89,17.18-4.82S286.09,45,285.34,52.51s-1.91,13.21-3.2,15-2.25,3.09-2.25,3.09,2.48,1.24,2.24,3.1S282,78,280.41,79.08s-3.92.34-4.72,1-3.16,8.64-4.86,10.36-5.17,2-8.95,1.68-8.69-3.81-9.46-5.92.12-10.22,0-11.53-4.36-3.19-4.18-6.56S250.57,62.05,252.48,62.08Z" style="fill:#fff;stroke:#263238;stroke-linejoin:round"></path><path d="M265.33,69.89s-3.11,1.38-3.09,3.09a2.2,2.2,0,0,0,1.62,2.11Z" style="fill:#263238"></path><path d="M266.3,70.12s2.14,2.65,1.34,4.17a2.18,2.18,0,0,1-2.4,1.13Z" style="fill:#263238"></path><path d="M253.23,74l-.2,6.15a5.88,5.88,0,0,0,3.6-3.41C257.71,74,254,73.35,253.23,74Z" style="fill:#263238"></path><path d="M275,79.28,272.6,84s-2.4-4.21-1.36-5.88S275,79.28,275,79.28Z" style="fill:#263238"></path><circle cx="261.13" cy="64.21" r="4.68" transform="translate(114.6 289.69) rotate(-70.8)" style="fill:#263238"></circle><path d="M278.66,68.05A5.85,5.85,0,1,1,274.35,61,5.85,5.85,0,0,1,278.66,68.05Z" style="fill:#263238"></path><path d="M264.55,84.22a6.22,6.22,0,0,1-1.19-.43,1.17,1.17,0,0,1-.58-.8c-.6.84-1.49.42-2.15.11a6.29,6.29,0,0,0-.58-.26,1.38,1.38,0,0,1-.76-1.52,1.29,1.29,0,0,1-.77.64,2.65,2.65,0,0,1-2-.5,1.64,1.64,0,0,1-.73-1.18,3,3,0,0,1,.67-2,.43.43,0,0,1,.66.55h0a2.23,2.23,0,0,0-.47,1.41.84.84,0,0,0,.38.56,1.93,1.93,0,0,0,1.25.35c.14,0,.34-.43.45-.65s.35-.68.67-.77a.6.6,0,0,1,.47.08c.39.24.34.73.28,1.2-.07.65-.07,1,.18,1s.43.19.63.29c.84.39.95.38,1.11.12a7,7,0,0,0,.7-1.7.43.43,0,0,1,.5-.32.44.44,0,0,1,.34.5,3.61,3.61,0,0,0,.07,2.08c1.36.63,1.82.44,1.95.33a4,4,0,0,0,.79-1.7.44.44,0,0,1,.51-.33.43.43,0,0,1,.33.5c-.15.91-.07,1.89.17,2,1.07.25,1.58.3,1.76-.14a6.88,6.88,0,0,0,.43-1.77.44.44,0,0,1,.47-.39.45.45,0,0,1,.39.48,8.1,8.1,0,0,1-.49,2c-.5,1.18-1.86.85-2.76.64a1.15,1.15,0,0,1-.79-.87,1.76,1.76,0,0,1-.26.28A1.83,1.83,0,0,1,264.55,84.22Z" style="fill:#263238"></path><path d="M262.19,86.41h0a.43.43,0,0,1-.32-.48c.21-1.55-.05-2-.23-2.12-.53-.4-1.33-.66-1.73-.4a1.87,1.87,0,0,0-.6,1c-.07.2-.13.39-.21.57a.43.43,0,0,1-.53.23.44.44,0,0,1-.29-.51c.23-1,.17-1.76-.18-2a1.87,1.87,0,0,0-.93-.33.65.65,0,0,0-.6.24,3.21,3.21,0,0,0-.42,1c0,.21-.1.43-.18.67a.44.44,0,0,1-.56.26.43.43,0,0,1-.26-.55c.07-.21.12-.4.17-.58a3.56,3.56,0,0,1,.54-1.34,1.48,1.48,0,0,1,1.35-.61,2.7,2.7,0,0,1,1.38.48,1.51,1.51,0,0,1,.59.86,1.94,1.94,0,0,1,.27-.21,2.57,2.57,0,0,1,2.71.43,1.47,1.47,0,0,1,.49.71c.61-.86,1.59-.53,2.38-.26l.28.1c.73.23.76,1,.74,1.45a1.6,1.6,0,0,1,.77-1,2.53,2.53,0,0,1,1.95.16,1.41,1.41,0,0,1,.77.92,2.25,2.25,0,0,1-.24,1.67l-.13.28a.43.43,0,1,1-.79-.34c.05-.11.09-.21.14-.3a1.46,1.46,0,0,0,.17-1.13.57.57,0,0,0-.32-.34,1.76,1.76,0,0,0-1.23-.12c-.11,0-.26.43-.34.63-.15.39-.29.75-.62.88a.64.64,0,0,1-.54,0c-.49-.24-.47-.79-.45-1.24s0-.67-.14-.71l-.3-.1c-.87-.3-1.19-.35-1.4,0a3.22,3.22,0,0,0-.45,1.13c-.06.21-.11.43-.2.67A.43.43,0,0,1,262.19,86.41Z" style="fill:#263238"></path></g><g id="character-1"><path d="M89,404.69c-1.36,1.45-4,2.12-2.8,5.12,0,0,3.83,5.8,4.57,7.5s6.61,8.72,8.4,10.78,3.45,4.33,3.11,2.37a5.24,5.24,0,0,0-1.44-2.79c.93.86,4,3.63,3.7,2.37-.38-1.48-.94-3.07-.94-3.07s3.2,3.92,3,2.07a8.45,8.45,0,0,0-1.37-3.59s4.74,3.84,3.81,2-2.53-6.29-3.68-7.73-2.93-2.25-3.82-4.54-1.09-3.66-2.57-4.55-2.52-1.25-2.74-2.14-.93-1.81-2.49-3S90.4,403.24,89,404.69ZM99.86,427l-6.46-8.12C97.26,421.66,99.86,427,99.86,427Zm2.66-1.93s-7.6-5.79-8.35-8.75Zm1.59-1.82c1.08,2.41-7.46-7.71-7.46-7.71C96.16,411.71,103,420.83,104.11,423.23Z" style="fill:#fff;stroke:#263238;stroke-miterlimit:10"></path><path d="M57.44,379.31c-2.82-1.18-5.22-.1-6.58,3.86s-.1,6.48-.1,6.48-.14,3.18,2.53,2.51a5.76,5.76,0,0,1,4.14.21l23.46,13.75a22.15,22.15,0,0,1,4,3.39c2.34,2.4,3.85.29,5.4-2.3s1-5.45-2.53-6.29-5.45-1-6.19-1.43S64.08,387.54,62.34,385,60.25,380.48,57.44,379.31Zm21.78,22a7,7,0,0,1,3.67,5.21l-24-15.82c-.52-.81.62-1.89,1.55-1.34S75.7,399.25,79.22,401.35Z" style="fill:#fff;stroke:#263238;stroke-miterlimit:10"></path><path d="M94.72,339.19s2.8,1.63,3.45-2.49-1.92-6.12-4-5.58-3.46,2.49-5.6,2.73-1.54-1.64-3.4-2.73-5.17.72-7.52,5.6,1.19,3.95-.69,7.6-17.37,27.59-21.49,29.93-6.32.56-7.29,3.49-1,5.16,1.29,5.5,6.12-1.92,6.07.3-1.46,4.65.93,3.55,5.16-2,5.94-5S62.14,379.14,64,376,81.64,347,83.58,345.42s4.41-2.42,4.7-3.75-1-2.1.67-2.86S94.72,339.19,94.72,339.19Z" style="fill:#fff;stroke:#263238;stroke-miterlimit:10"></path><path d="M108.3,435.3c1.94.45,4.53-.47,5.17,2.7,0,0,0,6.95.35,8.78s-.67,10.92-1,13.63-.48,5.51-1.28,3.69a5.22,5.22,0,0,1-.34-3.11c-.3,1.23-1.33,5.24-1.77,4-.51-1.44-.92-3.07-.92-3.07s-.49,5-1.39,3.4a8.39,8.39,0,0,1-.84-3.75s-1.82,5.83-2,3.8-1.38-6.63-1.22-8.47,1.19-3.5.67-5.9-1.13-3.65-.39-5.21,1.41-2.43,1.1-3.3-.23-2,.41-3.87S106.37,434.85,108.3,435.3Zm3.35,24.55.87-10.34C110.86,454,111.65,459.85,111.65,459.85Zm-3.29-.13s3.12-9,2.1-11.91Zm-2.33-.63c.44,2.59,1.94-10.56,1.94-10.56C106.26,445.08,105.6,456.49,106,459.09Z" style="fill:#fff;stroke:#263238;stroke-miterlimit:10"></path><path d="M120.54,396.66c1.69-2.54,4.29-3,7.62-.43s3.67,5.34,3.67,5.34,1.88,2.57-.71,3.49a5.76,5.76,0,0,0-3.34,2.47L115.87,432a22,22,0,0,0-1.45,5c-.62,3.29-3,2.37-5.77,1.07s-3.84-4-1.38-6.63,4-3.84,4.36-4.62,7.94-19.64,8-22.73S118.85,399.2,120.54,396.66Zm-5.92,30.41a7,7,0,0,0-.17,6.38L125.65,407c0-1-1.57-1.23-2-.25S116.39,423.37,114.62,427.07Z" style="fill:#fff;stroke:#263238;stroke-miterlimit:10"></path><path d="M114.21,337.93s-3.24,0-1.73-3.88,4.75-4.32,6.26-2.81,1.72,3.89,3.45,5.18,2.16-.65,4.32-.65,4.1,3.24,3.67,8.64-3,2.8-3.24,6.9S128,383.9,130.39,388s5.18,3.67,4.53,6.69-1.72,5-3.88,4.1-4.32-4.75-5.4-2.8-1.08,4.74-2.59,2.59-3.45-4.32-2.59-7.34,1.73-2.38,1.73-6.05-.65-33.88-1.51-36.25-2.59-4.32-2.16-5.61,1.94-1.3.87-2.81S114.21,337.93,114.21,337.93Z" style="fill:#fff;stroke:#263238;stroke-miterlimit:10"></path><path d="M102.3,226.27l-.41,3.11a9.7,9.7,0,0,1-4.16,1.45c-1.87,0-6.85-1.24-12.46-1.24s-11.83,1-12.66,2.7,5.19,5.6,6,8.72.42,7.68,2.49,10,5.4,5.19,9.76.42,2.08-10.8,1.25-12.87S85.9,236.65,84,236s-5.61-3.53-5.61-3.53A54.86,54.86,0,0,1,87.56,231c3.11,0,21,1.45,26,1.45h13.71c4.57,0,5.19.63,2.7,2.08s-3.74,1.45-6.86,1.66-7.06,3.12-5.39,6.85,3.53,9.55,7.89,10.59,6-1.45,7.26-5.6,1.87-10.59,5.19-12.88,5.82-2.28,1.87-3.32-15.36-1.45-20.76-1.45-7.89.21-8.72-1,0-3.74,0-3.74l-8.31-.62Z" style="fill:#b5b5b5;stroke:#263238;stroke-linejoin:round"></path><path d="M131.91,261.36c1.66-1.67-21-1.25-22.64-1.87a2,2,0,0,1-1-2.49c-.3-1.49-1.56-1.17-2.25-.86-.68-.31-1.94-.63-2.24.86a2,2,0,0,1-1,2.49c-1.66.62-24.3.2-22.64,1.87s8.93,3.32,13.5,3.53l9.14.41-.21,4.57s-10,.62-14.33,1.45-2.7,2.49.83,3.12,10.38-.83,11.21-.83,2.5-1,2.7-.42,1.25,1.87-.41,2.28-14.33,1.67-17.24,1.87-1.66,1.87,1.67,1.87,9.13.42,11,0a40.16,40.16,0,0,1,4.15-.62s.42.62-.41,1.25a6.52,6.52,0,0,1-4.36,1.86c-2.7.21-7.69.21-11.21.83s-6.65,2.5-2.7,2.7a39.93,39.93,0,0,0,9.75-.41c4.78-.62,9.56-3.53,9.76-2.49a3.39,3.39,0,0,1-.41,2.9c-.62.63-5,.21-8.1,1s-7.68,2.7-4.36,3.12,11.63-2.91,12.25-.21-2.7,2.08-3.32,3.53,2.28,1.66,2.28,1.66a3,3,0,0,1-.83,2.49c-1,.83-1.45,1.87-.41,2.49s2.28,1.46,1.45,2.08-1.66,1-2.91,2.08S99,305,100.22,305s1.67.62,1.25,1.66-3.53-.21-2.49,1.45,2.49.21,2.49,1.25,0,2.08-1.45,2.28-1.66,1.66-1,1.66,1.66-.83,1.45.21l-.21,1s1.25-1.25,1.25,1-2.7-1.25-6-4.15S85.07,313.68,83,316.59s-2.7,8.93.62,12,7.06,2.08,7.48,4.15,3.53,2.91,3.74,6,2.07,5,5.39,5.4c3.08.39,5.44-2.43,5.77-2.85.34.42,2.7,3.24,5.78,2.85,3.32-.41,5.19-2.28,5.39-5.4s3.33-3.94,3.74-6,4.15-1,7.48-4.15,2.7-9.14.62-12-9.14-8.1-12.46-5.19-6,6.43-6,4.15,1.25-1,1.25-1l-.21-1c-.21-1,.83-.21,1.45-.21s.42-1.45-1-1.66-1.45-1.24-1.45-2.28,1.45.42,2.49-1.25-2.08-.41-2.49-1.45,0-1.66,1.25-1.66,2.9-.42,1.66-1.45-2.08-1.46-2.91-2.08.41-1.45,1.45-2.08.63-1.66-.41-2.49a3,3,0,0,1-.83-2.49s2.9-.21,2.28-1.66-3.94-.83-3.32-3.53,8.93.62,12.25.21-1.25-2.29-4.36-3.12-7.48-.41-8.1-1a3.39,3.39,0,0,1-.41-2.9c.2-1,5,1.87,9.75,2.49a40,40,0,0,0,9.76.41c3.95-.2.83-2.07-2.7-2.7s-8.51-.62-11.21-.83a6.52,6.52,0,0,1-4.36-1.86c-.83-.63-.41-1.25-.41-1.25a40.16,40.16,0,0,1,4.15.62c1.87.42,7.68,0,11,0s4.57-1.66,1.66-1.87-15.57-1.45-17.23-1.87-.62-1.66-.41-2.28,1.86.42,2.7.42,7.68,1.45,11.21.83,5.19-2.29.83-3.12-14.33-1.45-14.33-1.45l-.21-4.57,9.14-.41C123,264.68,130.24,263,131.91,261.36Zm-34.29,78.3c-1.94-3.67,5.83.21,5.83.21C104.31,341.6,99.57,343.33,97.62,339.66Zm13.82,1.94a2.52,2.52,0,0,1-2.81-.65c-.43-.64,4.53-1.94,4.53-1.94C115.75,337.93,112.51,341.17,111.44,341.6Zm-.51-19.2c1.67-.83,4.16.83,5.61,3.53s-.41,2.7-4.15,7.48C109,337.7,106.51,338,106,338H106c-.47,0-3-.27-6.35-4.56-3.74-4.78-5.6-4.78-4.15-7.48s3.94-4.36,5.61-3.53,2.07,3.32,3.73,3.74l.75.18v.23l.45-.11.46.11v-.23l.75-.18C108.86,325.72,109.27,323.23,110.93,322.4Z" style="fill:#fff;stroke:#263238;stroke-linejoin:round"></path><path d="M109.27,259.49a2,2,0,0,1-1-2.49c-.3-1.49-1.56-1.17-2.25-.86-.68-.31-1.94-.63-2.24.86a2,2,0,0,1-1,2.49c-1.66.62-24.3.2-22.64,1.87s8.93,3.32,13.5,3.53l9.14.41-.21,4.57s-10,.62-14.33,1.45-2.7,2.49.83,3.12,10.38-.83,11.21-.83,2.5-1,2.7-.42,1.25,1.87-.41,2.28-14.33,1.67-17.24,1.87-1.66,1.87,1.67,1.87,9.13.42,11,0a40.16,40.16,0,0,1,4.15-.62s.42.62-.41,1.25a6.52,6.52,0,0,1-4.36,1.86c-2.7.21-7.69.21-11.21.83s-6.65,2.5-2.7,2.7a39.93,39.93,0,0,0,9.75-.41c4.78-.62,9.56-3.53,9.76-2.49a3.39,3.39,0,0,1-.41,2.9c-.62.63-5,.21-8.1,1s-7.68,2.7-4.36,3.12,11.63-2.91,12.25-.21-2.7,2.08-3.32,3.53,2.28,1.66,2.28,1.66a3,3,0,0,1-.83,2.49c-1,.83-1.45,1.87-.41,2.49s2.28,1.46,1.45,2.08-1.66,1-2.91,2.08S99,305,100.22,305s1.67.62,1.25,1.66-3.53-.21-2.49,1.45,2.49.21,2.49,1.25,0,2.08-1.45,2.28-1.66,1.66-1,1.66,1.66-.83,1.45.21l-.21,1s1.25-1.25,1.25,1-2.7-1.25-6-4.15a3.45,3.45,0,0,0-1.87-.8c-2.07,1-8.92,4.84-9.2,9.82-.32,5.87,6.2,7.5,11.09,8.81l.51.12c-1.1-1.2-1.37-1.86-.53-3.42,1.45-2.7,3.94-4.36,5.61-3.53s2.07,3.32,3.73,3.74l.75.18v.23l.45-.11.46.11v-.23l.75-.18c1.66-.42,2.07-2.91,3.73-3.74s4.16.83,5.61,3.53c1.07,2,.34,2.51-1.59,4.53a24.45,24.45,0,0,0,3.35-.58c6.19-1.63,10.43-4.57,8.8-12.39a29.87,29.87,0,0,0-1-3.83c-3-2.35-7.17-4.31-9.51-2.26-3.32,2.9-6,6.43-6,4.15s1.25-1,1.25-1l-.21-1c-.21-1,.83-.21,1.45-.21s.42-1.45-1-1.66-1.45-1.24-1.45-2.28,1.45.42,2.49-1.25-2.08-.41-2.49-1.45,0-1.66,1.25-1.66,2.9-.42,1.66-1.45-2.08-1.46-2.91-2.08.41-1.45,1.45-2.08.63-1.66-.41-2.49a3,3,0,0,1-.83-2.49s2.9-.21,2.28-1.66-3.94-.83-3.32-3.53,8.93.62,12.25.21-1.25-2.29-4.36-3.12-7.48-.41-8.1-1a3.39,3.39,0,0,1-.41-2.9c.2-1,5,1.87,9.75,2.49a40,40,0,0,0,9.76.41c3.95-.2.83-2.07-2.7-2.7s-8.51-.62-11.21-.83a6.52,6.52,0,0,1-4.36-1.86c-.83-.63-.41-1.25-.41-1.25a40.16,40.16,0,0,1,4.15.62c1.87.42,7.68,0,11,0s4.57-1.66,1.66-1.87-15.57-1.45-17.23-1.87-.62-1.66-.41-2.28,1.86.42,2.7.42,7.68,1.45,11.21.83,5.19-2.29.83-3.12-14.33-1.45-14.33-1.45l-.21-4.57,9.14-.41c4.57-.21,11.83-1.87,13.5-3.53S110.93,260.11,109.27,259.49Z" style="fill:#b5b5b5;stroke:#263238;stroke-linejoin:round"></path><path d="M78.15,231.18l4.8,4.74s1,.59-.36,1.65l-1.36,1.06-5.67-5.15Z" style="fill:#fff;stroke:#263238;stroke-linejoin:round"></path><path d="M76.77,234.69s3.17-1.54,3.28-4.45a5,5,0,0,0-6-4.8c-3.15.72-2.74.94-5.46,1.46S28,228.71,24.87,228s-4.47-2.66-6.8-1.5-1.23,5.14-1.23,5.14a3.09,3.09,0,0,0-.55,3.52c1,2.11,1.93,3.81,3.85,2.63s3.49-4.44,7.22-4.3,38.9-1,41.76.11S74,235.42,76.77,234.69Z" style="fill:#fff;stroke:#263238;stroke-linejoin:round"></path><path d="M22.66,235.92a1.45,1.45,0,0,0-1.11,2.24c.93,1.89,6.11,18.78,9.21,26.33a68.56,68.56,0,0,1,4.05,12.67c.49,1.81,2.07,2.89,2.82.11s-1-3.61-1.29-4.82S27,241.64,26.24,238.83,23.67,235.65,22.66,235.92Z" style="fill:#fff;stroke:#263238;stroke-linejoin:round"></path><path d="M19.23,238.35s-2.84-1-2.74,1.81,4.53,14.48,5.93,19.69,4.85,18,5.9,20.35,4.41,2,3.9-1.48-2.45-7.51-3.2-10.32-6.24-20-7.37-24.25S20.05,239,19.23,238.35Z" style="fill:#fff;stroke:#263238;stroke-linejoin:round"></path><path d="M33.87,280.86s-3.51,3.73-3.62,6.56.79,7.74,1.35,8.23,1.82.37,1.34-1.43-1.48-3.9-.74-5.17,1.43,1.33,2.29,4.54,1.62,3.65,1.62,3.65a29.59,29.59,0,0,1,1.07,3.15A5.7,5.7,0,0,0,38.73,303s1,3.81,1.5,2.4.25-3.08-.31-3.57-.94-1.9-1.32-3.31-1.14-1.84-1.2-2.9a8,8,0,0,0-.45-2.46c-.43-1.6-.75-2.8-1.08-4s-.59-2.2.43-1.62,1.38,4.36,1.81,6,1.51,2.39,1.67,3,.37,1.4.59,2.2a3.31,3.31,0,0,0,1,1.45,2.23,2.23,0,0,0,.39,2.26c.93,1,1.56,2.59,1.55,1.73a24.92,24.92,0,0,0-.28-4.22A4.63,4.63,0,0,0,41.47,298a5.12,5.12,0,0,0-.14-2.11c-.32-1.21-.63-1.55-.79-2.15a13.37,13.37,0,0,0-.76-2.81c-.52-1.15-1.39-2-1.31-3.3s1.6-.43,2,1.17.68,4.12,1.24,4.61a2.59,2.59,0,0,1,.94,1.9,3.59,3.59,0,0,0,.74,1.95,6.62,6.62,0,0,1,.74,2c.21.81,1.06,3.16,1.19,2a28.61,28.61,0,0,0-.48-4.17c-.06-1.06-1.28-1.59-1.1-2.5a3,3,0,0,0-.19-2.32,10.3,10.3,0,0,1-1-2.3c-.22-.8-.07-1.05-.4-2.26l-.64-2.4s3.58,6.13,3.74,6.73-.08,1.31.59,2.21,1,3.81,1.36,2.64-.41-3.11-.58-4.57a9.43,9.43,0,0,0-1.28-4,9.16,9.16,0,0,1-1.46-3A10.09,10.09,0,0,0,41,281.09C39.54,279.55,35.64,278.66,33.87,280.86Z" style="fill:#fff;stroke:#263238;stroke-linejoin:round"></path><path d="M33.08,296.33a1.42,1.42,0,0,0-1.23,1.84c.43,1.6,1.62,3.65,2,2.68S33.6,297.48,33.08,296.33Z" style="fill:#fff;stroke:#263238;stroke-linejoin:round"></path><path d="M138,230.3l-3.89,5.5s-.89.75.63,1.56l1.53.81,4.68-6.06Z" style="fill:#fff;stroke:#263238;stroke-linejoin:round"></path><path d="M138,232s-2-2.93-.61-5.49a5,5,0,0,1,7.64-1.12c2.36,2.2,1.9,2.18,4,4s34.21,21.91,37.25,22.82,5.21-.06,6.64,2.11-1.51,5.08-1.51,5.08a3.08,3.08,0,0,1-1.29,3.31c-1.89,1.35-3.59,2.33-4.66.35s-.79-5.59-4.09-7.34-33.13-20.41-36.19-20.85S140,234,138,232Z" style="fill:#fff;stroke:#263238;stroke-linejoin:round"></path><path d="M192.58,257.86a1.46,1.46,0,0,1-2-1.54c0-2.12-2.56-19.59-3-27.74a69.48,69.48,0,0,0-1.8-13.18c-.34-1.84.62-3.49,2.5-1.3s.68,3.67.9,4.9,4.83,31.83,5.36,34.69S193.6,257.67,192.58,257.86Z" style="fill:#fff;stroke:#263238;stroke-linejoin:round"></path><path d="M188.43,257.14s-2.14,2.09-3.25-.45-2.14-15-3.12-20.33-3.4-18.37-3.44-20.9,3.11-3.74,4.16-.35,1,7.84,1.55,10.7,3,20.77,3.79,25.06S188.9,256.21,188.43,257.14Z" style="fill:#fff;stroke:#263238;stroke-linejoin:round"></path><path d="M183.34,212.48s-4.77-1.87-6.08-4.37-2.62-7.33-2.33-8,1.48-1.11,1.82.72.35,4.16,1.56,5,.72-1.82.12-5.08-.11-4-.11-4a31.2,31.2,0,0,0-.4-3.3,5.75,5.75,0,0,1,.29-3s-.72-3.88.32-2.81,1.55,2.67,1.26,3.36,0,2.12.23,3.55-.23,2.15.16,3.14a7.84,7.84,0,0,1,.66,2.41c.3,1.63.53,2.86.75,4.08s.42,2.25,1.08,1.28-.62-4.53-.93-6.16.33-2.81.22-3.42-.27-1.43-.42-2.25a3.28,3.28,0,0,1,.31-1.74,2.23,2.23,0,0,1-.62-2.21c.39-1.34.29-3,.65-2.23a25.15,25.15,0,0,1,1.57,3.93,4.59,4.59,0,0,1-.61,2.44,5.05,5.05,0,0,1,.79,2c.23,1.23.1,1.67.21,2.29a13.2,13.2,0,0,1,.53,2.85c0,1.27-.4,2.4.23,3.55s1.64-.3,1.33-1.94-1.16-4-.87-4.69a2.58,2.58,0,0,0,0-2.12,3.57,3.57,0,0,1-.18-2.08,6.46,6.46,0,0,0-.17-2.08c-.15-.81-.4-3.3.2-2.36a29.55,29.55,0,0,1,1.36,4c.4,1-.47,2,.09,2.73a3.05,3.05,0,0,1,.82,2.17,10.67,10.67,0,0,0,0,2.53c.16.82.4,1,.62,2.21l.46,2.45s.59-7.08.48-7.69-.64-1.15-.42-2.25-.72-3.88.08-3,1,3,1.45,4.38a9.42,9.42,0,0,1,.55,4.12,9.37,9.37,0,0,0,0,3.38,10.11,10.11,0,0,1-.77,5C189,211.21,185.89,213.69,183.34,212.48Z" style="fill:#fff;stroke:#263238;stroke-linejoin:round"></path><path d="M176,198.85a1.42,1.42,0,0,1-1.9-1.13c-.3-1.63-.1-4,.66-3.29S176,197.58,176,198.85Z" style="fill:#fff;stroke:#263238;stroke-linejoin:round"></path><path d="M103.13,238.31s-7.47-.42-9.76-.62S102.3,237.48,103.13,238.31Z" style="fill:#fff;stroke:#263238;stroke-miterlimit:10"></path><path d="M140.19,272c1-2.5-.63-2.29-2.5-1s-5.6.62-8.72.41-2.9-1.45-4.56-2.7,5,1.25,7.68,1.66a7.83,7.83,0,0,0,6.23-1.24c1.87-1.25,1.66-5.19.41-5s-2.9,1.67-4.77,2.91-6.65-.21-9.14-.83-8.1-4.36-10-5.6,6.23,2.49,6.23,2.49a60.75,60.75,0,0,0,9.14,2.7c3.74.62,5-.83,7.27-3.12s1.45-5-.21-4.15-7.48,2.7-10.8,2.28-8.3-2.7-11-3.73,2.28,0,5,.83a33.18,33.18,0,0,0,12.46,1c4.15-.62,5.4-4.36,3.94-6s-3.53,1.66-7.47,2.29-8.1-.83-11-1-7.47-.83-5.19-1.46,10.8.84,15.78.84,6.23-3.12,5.19-5.2-1.24-1.86-3.73-.41-10.59,1-12.05,1-3.32-.42-3.73-1.66,4.56-1,7.68-1,6.44-.21,8.72-1.66,2.08-3.53,0-3.95-3.11,1.46-6,2.08a96.18,96.18,0,0,1-10.8,1c-.62,0-1.24-1-1-1.66s5.61-.42,8.72-.42,8.93-1.25,8.93-3.32S114,236.65,114,236.65l-.41-1.87h10.17c3.32,0,2.49-.83.63-1.46s-11.22-.2-11.22-.2c-2.49-.21-5.49-.21-5.49-.21s-1.25,0-3.74.21c0,0-9.34-.42-11.21.2s-2.7,1.46.62,1.46h10.18l-.42,1.87s-16.82-.42-16.82,1.66,5.82,3.32,8.93,3.32,8.51-.21,8.72.42-.41,1.66-1,1.66a95.84,95.84,0,0,1-10.79-1c-2.91-.62-3.95-2.49-6-2.08s-2.29,2.49,0,3.95,5.6,1.66,8.72,1.66,8.09-.21,7.68,1-2.29,1.66-3.74,1.66-9.55.41-12-1-2.7-1.66-3.74.41.21,5.2,5.19,5.2,13.5-1.46,15.78-.84-2.28,1.25-5.19,1.46-7.06,1.66-11,1-6-3.95-7.48-2.29-.21,5.4,3.95,6a33.11,33.11,0,0,0,12.45-1c2.7-.83,7.69-1.87,5-.83s-7.68,3.32-11,3.73-9.13-1.45-10.79-2.28-2.5,1.87-.21,4.15,3.53,3.74,7.27,3.12a60.88,60.88,0,0,0,9.13-2.7s8.1-3.74,6.23-2.49-7.47,5-10,5.6-7.26,2.08-9.13.83-3.53-2.7-4.78-2.91-1.45,3.74.42,5a7.83,7.83,0,0,0,6.23,1.24c2.7-.41,9.34-2.9,7.68-1.66s-1.45,2.49-4.57,2.7-6.85.83-8.72-.41-3.53-1.46-2.49,1,5.19,3.52,7.06,3.52,7.06-1.86,5-1-3.53,1.87-6.64,1.66-3.53-1-4.16-.83-.83,2.7,1,3.94a6.1,6.1,0,0,0,4.36.63s-3.11,1.45-4.56,1.45.2,2.7,3.53,1.87,4.15-2.91,6.85-5.61,5.19-9.34,7.89-11.63,8.72-6.43,10-6.64a6.34,6.34,0,0,0,1.3-.35,6.22,6.22,0,0,0,1.29.35c1.25.21,7.27,4.36,10,6.64s5.19,8.93,7.89,11.63,3.53,4.78,6.85,5.61,5-1.87,3.53-1.87-4.57-1.45-4.57-1.45a6.1,6.1,0,0,0,4.36-.63c1.87-1.24,1.66-3.74,1-3.94s-1,.62-4.15.83-4.57-.83-6.65-1.66,3.12,1,5,1S139.15,274.44,140.19,272Z" style="fill:#fff;stroke:#263238;stroke-miterlimit:10"></path><path d="M114,238.31s7.48-.42,9.76-.62S114.85,237.48,114,238.31Z" style="fill:#fff;stroke:#263238;stroke-miterlimit:10"></path><path d="M84.61,206.64s-5.46-8.47-5.6-16.08,5.89-11.83,12-13.21,13-3,16.35,3.72,5.4,12.21,5.27,14.44-.26,3.81-.26,3.81,2.76-.27,3.55,1.44,2.1,3.67,1.38,5.45-3.14,2.36-3.47,3.35,1.91,9,1.39,11.36-3.34,4.4-6.69,6.18-9.39,1.39-11.16,0-5.33-8.73-6.12-9.78-5.38-.39-7-3.34S83,207.62,84.61,206.64Z" style="fill:#fff;stroke:#263238;stroke-linejoin:round"></path><path d="M99.64,206.42s-1.9,2.83-1,4.27a2.19,2.19,0,0,0,2.5.92Z" style="fill:#263238"></path><path d="M100.59,206.11s3.21,1.11,3.35,2.82a2.2,2.2,0,0,1-1.44,2.23Z" style="fill:#263238"></path><path d="M91.58,216.35l3.09,5.31a5.84,5.84,0,0,0,1.24-4.79C95.38,214,91.9,215.36,91.58,216.35Z" style="fill:#263238"></path><path d="M112.84,209.23l.47,5.32s-4.27-2.29-4.27-4.26S112.84,209.23,112.84,209.23Z" style="fill:#263238"></path><path d="M97.5,202.37a4.68,4.68,0,1,1-5.92-3A4.68,4.68,0,0,1,97.5,202.37Z" style="fill:#263238"></path><path d="M110,197.79a5.85,5.85,0,1,1-7.41-3.7A5.86,5.86,0,0,1,110,197.79Z" style="fill:#263238"></path><path d="M106.59,219a6.21,6.21,0,0,1-1.24.27,1.16,1.16,0,0,1-.91-.37c-.06,1-1,1.15-1.77,1.23l-.62.09a1.36,1.36,0,0,1-1.45-.88,1.3,1.3,0,0,1-.32,1,2.67,2.67,0,0,1-1.92.62,1.61,1.61,0,0,1-1.25-.61,3,3,0,0,1-.51-2.08.43.43,0,0,1,.49-.37.44.44,0,0,1,.36.49h0a2.24,2.24,0,0,0,.35,1.44.82.82,0,0,0,.62.27,1.81,1.81,0,0,0,1.25-.37c.1-.1.06-.54,0-.78a1.28,1.28,0,0,1,.15-1,.61.61,0,0,1,.44-.19c.46,0,.67.44.88.87.28.59.45.85.71.8l.68-.09c.92-.11,1-.19,1-.48a6.87,6.87,0,0,0-.31-1.82.42.42,0,0,1,.26-.54.45.45,0,0,1,.55.24c.39,1,1,1.72,1.16,1.73,1.49-.18,1.78-.59,1.83-.75a4.14,4.14,0,0,0-.24-1.87.43.43,0,0,1,.26-.54.42.42,0,0,1,.55.24c.35.85.94,1.64,1.18,1.56,1-.35,1.49-.58,1.42-1.05a7,7,0,0,0-.58-1.72.43.43,0,0,1,.19-.58.43.43,0,0,1,.58.19,7.77,7.77,0,0,1,.66,2c.2,1.26-1.12,1.7-2,2a1.15,1.15,0,0,1-1.13-.31,1.51,1.51,0,0,1-.07.37A1.82,1.82,0,0,1,106.59,219Z" style="fill:#263238"></path><path d="M105.76,222.09h0a.43.43,0,0,1-.53-.23c-.65-1.43-1.11-1.67-1.32-1.68-.66-.05-1.47.15-1.68.58a1.85,1.85,0,0,0,0,1.2c0,.21.09.41.12.6a.44.44,0,0,1-.84.2c-.35-1-.8-1.59-1.22-1.6a1.79,1.79,0,0,0-1,.21.63.63,0,0,0-.38.52,2.9,2.9,0,0,0,.2,1.12c.07.2.14.42.2.66a.44.44,0,0,1-.85.19,4,4,0,0,0-.17-.58,3.71,3.71,0,0,1-.24-1.43,1.49,1.49,0,0,1,.81-1.23,2.72,2.72,0,0,1,1.43-.33,1.59,1.59,0,0,1,1,.42,1.35,1.35,0,0,1,.11-.32,2.55,2.55,0,0,1,2.53-1.07,1.39,1.39,0,0,1,.8.34c0-1.06,1.06-1.3,1.87-1.49l.29-.07c.74-.19,1.15.41,1.4.84a1.55,1.55,0,0,1,.13-1.23,2.49,2.49,0,0,1,1.74-.9,1.38,1.38,0,0,1,1.14.37,2.26,2.26,0,0,1,.68,1.55c0,.09,0,.19,0,.3a.44.44,0,0,1-.37.49.43.43,0,0,1-.49-.36c0-.12,0-.22,0-.33a1.47,1.47,0,0,0-.45-1.05.6.6,0,0,0-.45-.11,1.72,1.72,0,0,0-1.11.54c-.07.1,0,.51,0,.72a1.37,1.37,0,0,1-.06,1.08.62.62,0,0,1-.47.26c-.54.06-.82-.42-1-.8s-.37-.57-.5-.53l-.3.07c-.9.21-1.2.34-1.21.7a3.17,3.17,0,0,0,.21,1.2,5.53,5.53,0,0,1,.19.68A.43.43,0,0,1,105.76,222.09Z" style="fill:#263238"></path></g><g id="Skulls"><path d="M412.15,107.6S412,97.53,416,91s11.28-6.88,17.18-4.82S445.76,90.52,445,98s-1.91,13.21-3.2,15-2.25,3.09-2.25,3.09,2.48,1.24,2.24,3.1-.16,4.24-1.72,5.36-3.92.33-4.72,1-3.16,8.64-4.86,10.36-5.17,2-8.95,1.68-8.69-3.81-9.46-5.92.12-10.22,0-11.53-4.36-3.19-4.18-6.56S410.24,107.57,412.15,107.6Z" style="fill:#fff;stroke:#263238;stroke-linejoin:round"></path><path d="M425,115.41s-3.11,1.38-3.09,3.09a2.19,2.19,0,0,0,1.62,2.11Z" style="fill:#263238"></path><path d="M426,115.64s2.14,2.65,1.34,4.17a2.19,2.19,0,0,1-2.41,1.13Z" style="fill:#263238"></path><path d="M412.9,119.53l-.2,6.15a5.86,5.86,0,0,0,3.59-3.41C417.38,119.55,413.7,118.87,412.9,119.53Z" style="fill:#263238"></path><path d="M434.7,124.8l-2.43,4.75s-2.4-4.21-1.36-5.88S434.7,124.8,434.7,124.8Z" style="fill:#263238"></path><path d="M425.35,110.83a4.69,4.69,0,1,1-3.46-5.65A4.7,4.7,0,0,1,425.35,110.83Z" style="fill:#263238"></path><path d="M438.33,113.57a5.85,5.85,0,1,1-4.31-7.06A5.85,5.85,0,0,1,438.33,113.57Z" style="fill:#263238"></path><path d="M424.22,129.74a6.22,6.22,0,0,1-1.19-.43,1.17,1.17,0,0,1-.58-.8c-.6.84-1.49.42-2.15.11l-.58-.26a1.38,1.38,0,0,1-.76-1.52,1.29,1.29,0,0,1-.77.64,2.65,2.65,0,0,1-2-.5,1.64,1.64,0,0,1-.73-1.18,3,3,0,0,1,.67-2,.43.43,0,0,1,.66.55h0a2.17,2.17,0,0,0-.47,1.41.84.84,0,0,0,.38.56,1.93,1.93,0,0,0,1.25.35c.14,0,.34-.43.45-.65s.35-.68.67-.77a.6.6,0,0,1,.47.08c.39.24.34.73.28,1.2-.08.65-.07,1,.18,1.06a6,6,0,0,1,.63.28c.84.39.95.38,1.11.12a7,7,0,0,0,.7-1.7.44.44,0,0,1,.5-.32.44.44,0,0,1,.34.5,3.6,3.6,0,0,0,.07,2.08c1.36.63,1.82.44,1.95.33a4.29,4.29,0,0,0,.79-1.7.43.43,0,0,1,.84.17c-.15.91-.07,1.89.17,2,1.07.25,1.58.3,1.76-.13a7,7,0,0,0,.43-1.78.42.42,0,0,1,.47-.38.44.44,0,0,1,.39.47,8.1,8.1,0,0,1-.49,2c-.51,1.18-1.86.85-2.76.64a1.15,1.15,0,0,1-.79-.87,1.76,1.76,0,0,1-.26.28A1.83,1.83,0,0,1,424.22,129.74Z" style="fill:#263238"></path><path d="M421.86,131.93h0a.43.43,0,0,1-.32-.48c.21-1.55-.05-2-.23-2.12-.53-.4-1.33-.66-1.73-.4a1.87,1.87,0,0,0-.6,1c-.07.2-.13.39-.21.57a.43.43,0,0,1-.82-.27c.23-1,.17-1.77-.18-2a1.87,1.87,0,0,0-.93-.33.65.65,0,0,0-.6.24,3,3,0,0,0-.42,1.05,4.9,4.9,0,0,1-.19.67.43.43,0,1,1-.81-.29c.07-.21.12-.4.17-.58a3.56,3.56,0,0,1,.54-1.34,1.47,1.47,0,0,1,1.35-.61,2.7,2.7,0,0,1,1.38.48,1.54,1.54,0,0,1,.59.86,1.94,1.94,0,0,1,.27-.21,2.57,2.57,0,0,1,2.71.43,1.52,1.52,0,0,1,.49.72c.61-.87,1.59-.54,2.38-.27l.28.1c.73.23.76,1,.74,1.45a1.6,1.6,0,0,1,.77-1,2.53,2.53,0,0,1,1.95.16,1.41,1.41,0,0,1,.77.92,2.29,2.29,0,0,1-.24,1.68c0,.08-.09.17-.13.27a.43.43,0,1,1-.79-.34l.13-.3a1.42,1.42,0,0,0,.18-1.13.57.57,0,0,0-.32-.34,1.76,1.76,0,0,0-1.23-.12c-.11,0-.26.43-.34.63-.15.39-.29.75-.62.89a.69.69,0,0,1-.54,0c-.49-.24-.47-.79-.45-1.24s0-.67-.14-.71l-.3-.1c-.87-.3-1.2-.35-1.4-.05a3.22,3.22,0,0,0-.45,1.13c-.06.21-.11.43-.2.68A.44.44,0,0,1,421.86,131.93Z" style="fill:#263238"></path><path d="M76.39,125.32s-6-8.09-6.63-15.68,5.11-12.19,11.11-14,12.77-3.88,16.56,2.65,6.19,11.83,6.2,14.07,0,3.81,0,3.81,2.74-.44,3.64,1.21,2.34,3.53,1.74,5.34-3,2.57-3.25,3.58,2.49,8.85,2.13,11.24-3,4.61-6.28,6.6-9.27,2-11.13.74-5.89-8.36-6.75-9.35-5.4,0-7.23-2.88S74.82,126.41,76.39,125.32Z" style="fill:#fff;stroke:#263238;stroke-linejoin:round"></path><path d="M91.38,124.12s-1.71,2.95-.69,4.33a2.19,2.19,0,0,0,2.55.75Z" style="fill:#263238"></path><path d="M92.31,123.75s3.28.9,3.52,2.59a2.19,2.19,0,0,1-1.29,2.33Z" style="fill:#263238"></path><path d="M84,134.55l3.44,5.11a5.86,5.86,0,0,0,.92-4.87C87.63,131.94,84.25,133.55,84,134.55Z" style="fill:#263238"></path><path d="M104.74,126.07l.81,5.27s-4.41-2-4.54-4S104.74,126.07,104.74,126.07Z" style="fill:#263238"></path><path d="M89,120.22a4.68,4.68,0,1,1-6.11-2.56A4.68,4.68,0,0,1,89,120.22Z" style="fill:#263238"></path><path d="M101.12,114.83a5.86,5.86,0,1,1-7.63-3.2A5.86,5.86,0,0,1,101.12,114.83Z" style="fill:#263238"></path><path d="M99.14,136.21a7.26,7.26,0,0,1-1.22.34,1.13,1.13,0,0,1-.93-.31c0,1-1,1.22-1.69,1.35a4.9,4.9,0,0,0-.62.13,1.37,1.37,0,0,1-1.5-.79,1.29,1.29,0,0,1-.26,1,2.66,2.66,0,0,1-1.87.75,1.63,1.63,0,0,1-1.29-.54,3.07,3.07,0,0,1-.65-2,.44.44,0,0,1,.47-.39.43.43,0,0,1,.4.46h0a2.2,2.2,0,0,0,.44,1.41.82.82,0,0,0,.63.23,1.78,1.78,0,0,0,1.22-.45c.1-.1,0-.55,0-.78-.06-.41-.12-.76.09-1a.59.59,0,0,1,.43-.21c.46,0,.7.39.93.81.32.57.5.81.76.75s.46-.1.68-.14c.91-.17,1-.25,1-.55a6.74,6.74,0,0,0-.43-1.78.43.43,0,0,1,.79-.36c.45.92,1.07,1.66,1.28,1.65,1.46-.28,1.73-.7,1.77-.87a4.13,4.13,0,0,0-.36-1.85.42.42,0,0,1,.22-.55.43.43,0,0,1,.57.2c.4.83,1.05,1.57,1.27,1.48,1-.42,1.46-.68,1.35-1.14a7.14,7.14,0,0,0-.69-1.68.43.43,0,1,1,.74-.44,7.48,7.48,0,0,1,.79,1.93c.29,1.25-1,1.78-1.86,2.13a1.12,1.12,0,0,1-1.14-.24,2.32,2.32,0,0,1,0,.38A1.87,1.87,0,0,1,99.14,136.21Z" style="fill:#263238"></path><path d="M98.51,139.36h0a.43.43,0,0,1-.54-.2c-.74-1.38-1.21-1.59-1.43-1.59-.66,0-1.46.25-1.64.69a1.85,1.85,0,0,0,.13,1.2c.06.2.12.4.16.58a.44.44,0,0,1-.3.5.42.42,0,0,1-.52-.24c-.41-1-.91-1.53-1.32-1.52a1.83,1.83,0,0,0-1,.28.64.64,0,0,0-.35.54,3,3,0,0,0,.28,1.1c.08.2.16.41.24.65a.45.45,0,0,1-.3.54.43.43,0,0,1-.53-.3c-.06-.21-.14-.39-.21-.57a3.55,3.55,0,0,1-.34-1.4,1.49,1.49,0,0,1,.73-1.28,2.68,2.68,0,0,1,1.41-.42,1.51,1.51,0,0,1,1,.35,2,2,0,0,1,.09-.33,2.55,2.55,0,0,1,2.45-1.23,1.45,1.45,0,0,1,.82.28c0-1.05,1-1.36,1.78-1.6l.28-.09c.72-.23,1.17.34,1.45.75a1.61,1.61,0,0,1,.05-1.24,2.52,2.52,0,0,1,1.68-1,1.35,1.35,0,0,1,1.16.3,2.21,2.21,0,0,1,.78,1.49l.06.3a.43.43,0,0,1-.32.52.44.44,0,0,1-.52-.33c0-.12,0-.22-.06-.32a1.44,1.44,0,0,0-.52-1,.58.58,0,0,0-.46-.09,1.73,1.73,0,0,0-1.07.62c-.07.1,0,.5.1.71a1.39,1.39,0,0,1,0,1.08.69.69,0,0,1-.45.3c-.54.09-.85-.37-1.09-.74s-.41-.54-.54-.5l-.29.09c-.88.27-1.18.42-1.17.78a3.41,3.41,0,0,0,.29,1.18,5.22,5.22,0,0,1,.24.67A.43.43,0,0,1,98.51,139.36Z" style="fill:#263238"></path><path d="M205.05,415.1s0-10.07,4-16.55,11.35-6.76,17.24-4.63,12.57,4.48,11.74,12-2.06,13.19-3.37,15-2.28,3.07-2.28,3.07,2.47,1.27,2.21,3.13-.22,4.23-1.78,5.33-3.93.29-4.74.94-3.25,8.6-5,10.31-5.19,1.89-9,1.58-8.65-3.91-9.4-6,.24-10.22.14-11.53-4.32-3.23-4.1-6.61S203.13,415.05,205.05,415.1Z" style="fill:#fff;stroke:#263238;stroke-linejoin:round"></path><path d="M217.81,423.05s-3.12,1.35-3.13,3.06a2.19,2.19,0,0,0,1.6,2.13Z" style="fill:#263238"></path><path d="M218.78,423.3s2.1,2.67,1.29,4.18a2.19,2.19,0,0,1-2.42,1.1Z" style="fill:#263238"></path><path d="M205.66,427l-.27,6.14a5.84,5.84,0,0,0,3.64-3.36C210.14,427.11,206.47,426.39,205.66,427Z" style="fill:#263238"></path><path d="M227.4,432.55l-2.48,4.73s-2.36-4.24-1.29-5.9S227.4,432.55,227.4,432.55Z" style="fill:#263238"></path><path d="M218.21,418.49a4.68,4.68,0,1,1-3.39-5.69A4.68,4.68,0,0,1,218.21,418.49Z" style="fill:#263238"></path><path d="M231.16,421.37a5.85,5.85,0,1,1-4.23-7.11A5.85,5.85,0,0,1,231.16,421.37Z" style="fill:#263238"></path><path d="M216.87,437.38a6.41,6.41,0,0,1-1.19-.45,1.16,1.16,0,0,1-.57-.8c-.61.83-1.5.4-2.15.08l-.57-.27a1.37,1.37,0,0,1-.75-1.52,1.32,1.32,0,0,1-.78.63,2.69,2.69,0,0,1-2-.52,1.62,1.62,0,0,1-.72-1.19,3.12,3.12,0,0,1,.69-2,.43.43,0,0,1,.61,0,.44.44,0,0,1,0,.61h0a2.16,2.16,0,0,0-.49,1.4.83.83,0,0,0,.37.56,1.92,1.92,0,0,0,1.26.37c.13,0,.34-.43.45-.65s.36-.67.68-.76a.6.6,0,0,1,.47.08c.39.25.33.74.27,1.2-.09.66-.08,1,.16,1.07s.43.19.63.28c.83.41.94.4,1.11.14a6.42,6.42,0,0,0,.71-1.69.44.44,0,0,1,.85.19,3.53,3.53,0,0,0,0,2.08c1.35.65,1.81.46,1.95.35a4.13,4.13,0,0,0,.81-1.7.43.43,0,0,1,.51-.31.43.43,0,0,1,.33.5c-.17.9-.09,1.89.15,1.95,1.06.27,1.57.31,1.76-.12a7.08,7.08,0,0,0,.44-1.76.44.44,0,0,1,.48-.39.44.44,0,0,1,.38.48,7.53,7.53,0,0,1-.51,2c-.52,1.17-1.87.83-2.77.6a1.11,1.11,0,0,1-.77-.87,2.42,2.42,0,0,1-.27.28A1.87,1.87,0,0,1,216.87,437.38Z" style="fill:#263238"></path><path d="M214.49,439.54h0a.42.42,0,0,1-.32-.48c.22-1.55,0-2-.2-2.13-.54-.4-1.33-.67-1.73-.42a1.88,1.88,0,0,0-.61,1c-.07.2-.14.39-.22.57a.45.45,0,0,1-.54.22.43.43,0,0,1-.28-.51c.25-1,.19-1.76-.15-2a1.8,1.8,0,0,0-.93-.34.63.63,0,0,0-.6.23,2.72,2.72,0,0,0-.43,1c-.06.21-.11.42-.2.66a.44.44,0,0,1-.55.26.44.44,0,0,1-.26-.56,4.69,4.69,0,0,0,.17-.58,3.84,3.84,0,0,1,.56-1.33,1.47,1.47,0,0,1,1.35-.6,2.79,2.79,0,0,1,1.38.5,1.51,1.51,0,0,1,.58.87,1.39,1.39,0,0,1,.27-.21,2.57,2.57,0,0,1,2.71.46,1.52,1.52,0,0,1,.49.72c.61-.86,1.59-.51,2.38-.24l.28.1c.72.24.74,1,.72,1.46a1.61,1.61,0,0,1,.77-1,2.61,2.61,0,0,1,2,.18,1.42,1.42,0,0,1,.75.93,2.24,2.24,0,0,1-.26,1.67l-.12.28a.43.43,0,1,1-.79-.35,2.09,2.09,0,0,1,.14-.3,1.44,1.44,0,0,0,.19-1.12.61.61,0,0,0-.32-.35,1.78,1.78,0,0,0-1.23-.14c-.11.05-.27.43-.35.64-.15.38-.29.74-.63.87a.65.65,0,0,1-.54,0c-.48-.24-.46-.8-.44-1.24s0-.68-.13-.72l-.29-.1c-.87-.31-1.2-.36-1.4-.07a3.13,3.13,0,0,0-.47,1.12,5.12,5.12,0,0,1-.2.68A.44.44,0,0,1,214.49,439.54Z" style="fill:#263238"></path></g><g id="Stars"><path d="M391.5,163a21.5,21.5,0,0,1-19-31.52,21.5,21.5,0,1,0,29,29A21.42,21.42,0,0,1,391.5,163Z" style="fill:#92E3A9"></path><path d="M61.36,143.43A14.86,14.86,0,0,1,46.53,164.1a14.86,14.86,0,1,0,10.52-26.36A14.82,14.82,0,0,1,61.36,143.43Z" style="fill:#92E3A9"></path><path d="M260.36,434.43a14.86,14.86,0,0,1-14.83,20.67,14.86,14.86,0,1,0,10.52-26.36A14.82,14.82,0,0,1,260.36,434.43Z" style="fill:#92E3A9"></path><polygon points="132.31 56 135.54 65.95 146 65.95 137.53 72.09 140.77 82.04 132.31 75.89 123.84 82.04 127.08 72.09 118.61 65.95 129.07 65.95 132.31 56" style="fill:#92E3A9"></polygon><polygon points="200.31 309 203.54 318.95 214 318.95 205.53 325.1 208.77 335.04 200.31 328.89 191.84 335.04 195.08 325.1 186.62 318.95 197.07 318.95 200.31 309" style="fill:#92E3A9"></polygon><polygon points="364.9 57.67 371.33 60.09 375.62 54.72 375.31 61.58 381.75 64 375.12 65.83 374.81 72.7 371.02 66.96 364.39 68.78 368.68 63.41 364.9 57.67" style="fill:#92E3A9"></polygon><polygon points="320.59 358.09 327.02 360.5 331.31 355.13 331 362 337.44 364.42 330.81 366.25 330.5 373.11 326.71 367.37 320.08 369.2 324.37 363.83 320.59 358.09" style="fill:#92E3A9"></polygon><polygon points="439.63 213.44 440.03 206.58 433.63 204.07 440.28 202.33 440.69 195.47 444.39 201.26 451.05 199.53 446.68 204.84 450.39 210.63 443.99 208.13 439.63 213.44" style="fill:#92E3A9"></polygon><polygon points="52.64 438.31 53.04 431.45 46.64 428.94 53.3 427.21 53.7 420.35 57.41 426.14 64.06 424.4 59.7 429.72 63.4 435.51 57 433 52.64 438.31" style="fill:#92E3A9"></polygon></g></svg>