<svg xmlns="http://www.w3.org/2000/svg" xmlns:xlink="http://www.w3.org/1999/xlink" viewBox="0 0 500 500"><defs><clippath id="clip-path--inject-1"><path d="M399.74,341.69c-2.93-16.21-16.64-29.32-21.23-33.32-3.38-7.87-4.57-16.84-.23-30.4,5.13-16,19.25-32.39,8.78-48.29-6.91-10.48-18.11-12-29.12-13.91-16.29-2.91-13.3-12.8-26.75-9,0,0-10.77,6.43-18.32,6.41-9.76,0-21-.89-26.8,5.2s-9,17.93-10.24,26.25-16.65,43.23-19.86,49,12.49,12.17,17,7.68,17.93-41,19.86-44.82,1.28-10.25,4.8-7-4.48,28.18.32,34.58,15.27,7.78,16.55,11,6.08,10.57,5.76,18.89-6.3,7.6-6.3,7.6,14.76,3.84,29.23,7.13a27.41,27.41,0,0,0-3,7.59c-4.16,18.89-6.72,49.63,11.21,52.83s27.86-.32,38.1-8S403.26,361.22,399.74,341.69Z" style="fill:#fff;stroke:#2e353a;stroke-linecap:round;stroke-linejoin:round"></path></clippath><clippath id="clip-path-2--inject-1"><path d="M399.74,341.69c-2.93-16.21-16.64-29.32-21.23-33.32-3.38-7.87-4.57-16.84-.23-30.4l.12-.37c-10.2-5.85-19.76-15.79-20.17-26.35-.44-11.61,3.45-26.06,6.06-34.34-2.1-.41-4.23-.77-6.35-1.14-.61-.11-1.18-.23-1.73-.36-3,12.08-10.26,40.48-13.64,47.51-4.34,9-18.67,12.33-32,7.33s-2.34-30,.66-42a117.89,117.89,0,0,1,5.12-15.4c-.58.12-1.16.21-1.73.27h-.08a16,16,0,0,1-1.67.09l-3,0h0c-3.55,10.05-10,28.89-11.68,37.34h0c.92,2.92-.31,10-1.16,17l-.12,1c0,.2,0,.4-.07.6s-.07.68-.11,1c0,.19,0,.38-.05.57,0,.36-.07.72-.1,1.08,0,.16,0,.32,0,.48-.05.51-.08,1-.11,1.51,0,0,0,.08,0,.12,0,.38,0,.75-.05,1.12a2.72,2.72,0,0,0,0,.28c0,.16,0,.32,0,.47s0,.31,0,.46v.36c0,.27,0,.54,0,.8s0,.27,0,.4a2.83,2.83,0,0,0,0,.29c0,.14,0,.29,0,.43s0,.27,0,.41,0,.2,0,.31l0,.34c0,.13,0,.27.05.4a.5.5,0,0,0,0,.12c0,.16,0,.32.07.47s0,.26.07.39.08.37.12.54.06.25.09.36.08.23.11.34l.06.17c0,.1.07.21.11.31a4.31,4.31,0,0,0,.22.49c0,.08.07.16.11.23a4,4,0,0,0,.4.63c4.8,6.41,15.27,7.78,16.55,11s6.08,10.57,5.76,18.89-6.3,7.6-6.3,7.6,14.76,3.84,29.23,7.13a27.41,27.41,0,0,0-3,7.59c-4.16,18.89-6.72,49.63,11.21,52.83s27.86-.32,38.1-8S403.26,361.22,399.74,341.69Z" style="fill:#92E3A9;stroke:#2e353a;stroke-linecap:round;stroke-linejoin:round"></path></clippath><clippath id="clip-path-3--inject-1"><path d="M347.32,179.46s2.54-9.91,4-7.36.56,11.6-.85,13.87-2.26,2.54-2.26,2.54,0,9.06-1.7,13.3-7.93,14.15-11.89,16.42-8.49-.28-16.69-6.79-10.76-18.12-13-21.51-1.13-15,1.13-18.4,8.49-6.22,10.19-3.68,2.54,1.14,6.51-.84,7.64-3.12,11,3.39S343.35,180.87,347.32,179.46Z" style="fill:#fff;stroke:#2e353a;stroke-linecap:round;stroke-linejoin:round;stroke-width:0.8838619999999999px"></path></clippath><clippath id="clip-path-4--inject-1"><path d="M254.19,330.24s.7.75,2,2.06c9.8,10,53.68,52.66,85.07,51.64,35.52-1.16-4.89-61-19.53-64.27s-63.46-13-72.41-4.07S254.19,330.24,254.19,330.24Z" style="fill:#fff;stroke:#2e353a;stroke-linecap:round;stroke-linejoin:round"></path></clippath><clippath id="clip-path-5--inject-1"><path d="M258.9,317.25s-35.33-3.33-41.67,3.67-5.66,13.67.67,20.67,40.33,27.66,54,37.33,18,13.33,29.67,19,29.33,7.33,35,11.67,6.33,2,6.66-2.34-2.66-9.66-8.66-14.66-8-4-9.34-8.34-4-7.33-7-7.33-11,2.33-14.66-.33-15.34-10.67-20-18-12.34-21.34-12.34-21.34Z" style="fill:#fff;stroke:#2e353a;stroke-linecap:round;stroke-linejoin:round"></path></clippath><clippath id="clip-path-6--inject-1"><path d="M360.87,390.42a18.24,18.24,0,0,0,15.9-7.64,31.6,31.6,0,0,0,5.36-13.24c2.24-14.08-1.28-33.62-10.25-39.06s-57.31-17.29-73.64-19.21-34.9,1-41.95,4.8-35.54,25-54.43,33.94-60.11,23.63-72.92,28.75S100.45,390,91.48,391.57s-10.88-1.28-8.64,3.52,12.12,4,13.72,4,3.57,2.1,10.93,4.35,15.37,1.28,21.77,1.28,22.42-2.24,27.22-2.24,9.6-1,9.93-3.85-1-16.33,10.48-18.57,42.7-2.29,58.68-4.12c23.33-2.67,32.89-30.07,42.5-30.71s36.82,33.3,56.35,40A97.53,97.53,0,0,0,360.87,390.42Z" style="fill:#fff;stroke:#2e353a;stroke-linecap:round;stroke-linejoin:round"></path></clippath><clippath id="clip-path-7--inject-1"><path d="M366.12,247.87s-7.37,29.46-8,37.78-2.56,11.53-2.56,11.53-25.93,2.56-41,1.28-28.5-3.84-34.26-2.24-17,6.08-21.13,9.29-9,12.8-8,14.08,4.48-2.24,4.48-2.24-.64,4.81,2.25,3.53,5.76-8.33,5.76-8.33l2.88-3.52s-7,10.24-3.2,10.24,8-8.32,9.28-9.6a14.3,14.3,0,0,1,3.21-2.24s-2.89,6.08-3.53,8-1.6,2.88,0,2.88,3.85-4.8,5.77-6.72,2.24-2.24,6.08-2.24,10.89-3.2,10.89-3.2,18.25,6.72,28.49,9.92,36.82,7.37,40.67,7.37,6.08-1.6,9-7.69,21-45.52,19.21-66c-1.48-17.1-4.94-21.37-9.77-25.14" style="fill:#fff;stroke:#2e353a;stroke-linecap:round;stroke-linejoin:round"></path></clippath></defs><!--Depi--><g id="background-simple--inject-1"><path d="M410.12,269.83c.1-.24.22-.48.34-.71a12.77,12.77,0,0,1-.93-1c0,1.06,0,2.12,0,3.18C409.71,270.8,409.9,270.31,410.12,269.83Z" style="fill:#92E3A9"></path><path d="M406.94,289.26q2-3.79,3.84-7.69c.53-1.12,1-2.25,1.51-3.39-.11-.58-.21-1.18-.31-1.77a19.64,19.64,0,0,1-2.84.53,72.64,72.64,0,0,1-1.41,8.3c-.31,1.4-.68,2.78-1.07,4.16Z" style="fill:#92E3A9"></path><path d="M405.48,248.72a54.11,54.11,0,0,1,3.19,10.9,3.64,3.64,0,0,1,2.16-.81,55.15,55.15,0,0,1,.88-7.47c.19-1,.4-2,.65-3,.07-.26.15-.51.22-.77a6.44,6.44,0,0,1-1.46-3.38A18.43,18.43,0,0,1,405.48,248.72Z" style="fill:#92E3A9"></path><path d="M412.19,314.71l2.64-1.71c1.84-1.21,3.59-2.53,5.37-3.81-1.77-6.78-3.74-13.5-5.47-20.15q-.69-2.62-1.3-5.3c-.86,1.94-1.77,3.85-2.71,5.75,3,1.57,3.41,5.94-.51,8.43a17.36,17.36,0,0,1-5.31,2.18q-3.52,5.85-7.45,11.44a3.71,3.71,0,0,1,3.59.92c1.62,1.49,1.68,3.44,1,5.47a4.22,4.22,0,0,1-.34,3.1c2.49-1.36,4.92-2.81,7.33-4.32a20.11,20.11,0,0,1-1.88-8c-.07-5.38,4.37-7.71,7.19-5.11,2.29,2.11,1.47,5.14-.13,8A34.47,34.47,0,0,1,412.19,314.71Z" style="fill:#92E3A9"></path><path d="M416.41,324a18.15,18.15,0,0,1-6.05-4.91c-2.5,1.67-5.05,3.29-7.66,4.81-1,.59-2,1.16-3,1.72a30.13,30.13,0,0,1,3.71-.78c3.11-.43,6,0,6.94,3.07,1.11,3.79-2.66,7.21-7.25,5a18.24,18.24,0,0,1-6.57-5.59c-1.29.67-2.61,1.31-3.94,1.91.67,2.83-1.59,5.85-5.77,5.54a17.41,17.41,0,0,1-5.88-1.57c-.3.06-.6.11-.91.15l-.15,0c-6.35,7-13.08,13.59-20.09,19.89q-6.65,6-13.62,11.52c-4.69,3.7-9.38,7.26-14.43,10.67l-3.18-5c4.8-3.09,9.58-6.56,14.21-10.07s9.19-7.23,13.62-11c5.89-5.08,11.59-10.38,17-15.93h0c-.41-.11-.79-.16-1.21-.31a5.5,5.5,0,0,1-1.44-.68l2.33-3.16-.06,0,0,0,.1.05.3.12a6.35,6.35,0,0,0,.73.21,9.77,9.77,0,0,0,1.67.21l.68,0a19.69,19.69,0,0,1-3.9-6c-2-5,1.25-8.78,4.82-7.39,2.91,1.13,3.25,4.25,2.81,7.52-.13.93-.32,1.86-.53,2.77.58-.63,1.16-1.26,1.73-1.9,1.68-1.88,3.32-3.8,4.94-5.73a20.08,20.08,0,0,1-4.28-6.39c-2-5,1.26-8.78,4.83-7.39,2.9,1.13,3.25,4.25,2.81,7.52-.13.94-.33,1.89-.54,2.81q1.72-2.13,3.39-4.32c.82-1.08,1.62-2.17,2.42-3.27,1-1.66,1.86-3.35,2.72-5.05.47-.95.92-1.9,1.37-2.85a19.91,19.91,0,0,1-6.78-2.49c-4.6-2.78-4.24-7.78-.55-8.81,3-.83,5.15,1.47,6.75,4.35a38.34,38.34,0,0,1,1.87,4,85.63,85.63,0,0,0,4.34-12.76,71.28,71.28,0,0,0,1.51-7.81,20,20,0,0,1-7.32-2.57c-4.6-2.79-4.24-7.78-.55-8.81,3-.83,5.15,1.47,6.75,4.35a34.35,34.35,0,0,1,1.52,3.19,58.3,58.3,0,0,0,.06-7.93,52.32,52.32,0,0,0-3.41-15.51,20.18,20.18,0,0,1-8.29.46c-5.31-.87-6.83-5.64-3.79-8,2.48-1.9,5.33-.56,7.88,1.52a35.45,35.45,0,0,1,2.76,2.55.36.36,0,0,1,0-.09,81.52,81.52,0,0,0-8.45-14.37,20.39,20.39,0,0,1-8.41,1.92c-5.38,0-7.65-4.48-5-7.27,2.14-2.26,5.17-1.39,8,.25a36.78,36.78,0,0,1,3.22,2.15c-3.56-4.67-7.28-9.28-10.64-14.15h0v0a.61.61,0,0,1-.07-.1,20.19,20.19,0,0,1-9.17,0c-5.23-1.27-6.4-6.14-3.19-8.23,2.62-1.7,5.35-.16,7.75,2.11.67.63,1.3,1.32,1.91,2a118.82,118.82,0,0,1-5.95-10.55l-.38.13v-.14a20.22,20.22,0,0,1-9.24,0c-5.23-1.26-6.4-6.13-3.19-8.22,2.62-1.7,5.35-.16,7.75,2.1a64.16,64.16,0,0,1,4.68,5.33c-.64-1.31-1.26-2.64-1.86-4a166.82,166.82,0,0,1-7-18.93,161.73,161.73,0,0,0,8.88,21.39,37.81,37.81,0,0,1,.13-5.17c.36-3.12,1.47-5.86,4.69-6,3.95-.13,6.33,4.37,3.05,8.27a18.13,18.13,0,0,1-6.82,4.89,110.32,110.32,0,0,0,7.78,12.63c.09.13.18.26.28.38a42.16,42.16,0,0,1,.11-5.57c.36-3.12,1.48-5.86,4.7-6,3.95-.13,6.33,4.37,3,8.27a18.12,18.12,0,0,1-6.73,4.86c3.5,4.75,7.34,9.24,11.06,13.88l.54.68a35.66,35.66,0,0,1-.95-4.58c-.38-3.12.07-6,3.17-6.9,3.81-1.05,7.17,2.77,4.9,7.33a18.28,18.28,0,0,1-5.44,6.31A82.2,82.2,0,0,1,403.81,245l.08.16a27.79,27.79,0,0,1-.1-3.42c.12-3.14,1-6,4.23-6.3a4.36,4.36,0,0,1,4.9,4.84,3.9,3.9,0,0,1,1.87-.54,5.9,5.9,0,0,1,.6,0c1.15-2.57,2.44-5.08,3.79-7.56a19.57,19.57,0,0,1-5.39-1.84c-4.76-2.49-4.72-7.5-1.09-8.75,2.94-1,5.22,1.14,7,3.91.58.92,1.11,1.9,1.59,2.85a80,80,0,0,0-2.92-14.5,20.3,20.3,0,0,1-8.57-.11c-5.23-1.26-6.39-6.14-3.18-8.23,2.61-1.7,5.35-.15,7.74,2.11a38.65,38.65,0,0,1,3.15,3.46c-.63-1.89-1.32-3.75-2-5.61-1-2.39-2-4.76-3.13-7.11a20.22,20.22,0,0,1-8.42-.13c-5.23-1.27-6.39-6.14-3.18-8.23,2.61-1.7,5.35-.16,7.75,2.11.55.53,1.09,1.09,1.61,1.67-2-3.9-4.09-7.76-6.16-11.64a20.16,20.16,0,0,1-8.92,0c-5.23-1.26-6.39-6.14-3.18-8.23,2.61-1.7,5.35-.15,7.75,2.11a36.55,36.55,0,0,1,2.62,2.84h0l-.88-1.74c-.53-1.07-1.06-2.14-1.57-3.23-.64-1.34-1.17-2.72-1.75-4.08-.34-.77-.65-1.55-.94-2.34a20.2,20.2,0,0,1-9,0c-5.23-1.26-6.39-6.14-3.18-8.23,2.61-1.7,5.35-.15,7.74,2.11a43.49,43.49,0,0,1,3.67,4.09c-1-2.73-1.86-5.51-2.6-8.33,0-.13-.07-.27-.1-.41-17.43-6.19-36.86-10-49.59-15.2-24.42-9.89-47.36-26.16-73.63-32.4-30.47-7.24-60.28,1.47-70.29,33-6.61,20.77-2.33,49.22-24.64,61.61-25.42,14.11-59.83,4.45-71.79,22.28-11,16.33,3.82,42.37,8.95,58.58,2,6.39,3.11,13.42.88,19.75C105.85,326,72.93,328.85,67.78,353c-5.23,24.51,35.9,55.71,86,47.54s80-49,109.19-31.2,71.79,42.34,116.66,31.2C400.49,395.32,417.3,382,423.12,361c3.58-12.91,2.7-25.83.18-38.61C422.17,324.38,419.48,325.42,416.41,324Z" style="fill:#92E3A9"></path><path d="M390.46,322l-.15.2-.57-.46c-1.18,1.48-2.39,2.94-3.61,4.39a4.84,4.84,0,0,1,4.56.24c1.52-.62,3-1.31,4.52-2-.12-.3-.24-.63-.35-1A18,18,0,0,1,390.46,322Z" style="fill:#92E3A9"></path><path d="M397.75,158.19c-1.16-.45-2.33-.88-3.51-1.31.82,2.88,1.78,5.72,2.85,8.51l.24.62a46.36,46.36,0,0,1,.11-6.06A13.73,13.73,0,0,1,397.75,158.19Z" style="fill:#92E3A9"></path><path d="M422.05,316.61q-.6-2.53-1.24-5.05c-1.51,1.17-3,2.36-4.59,3.46l-1.89,1.31c.79-.18,1.6-.35,2.39-.46C418.74,315.6,420.68,315.68,422.05,316.61Z" style="fill:#92E3A9"></path><path d="M405.19,162.25a18.46,18.46,0,0,1-7.34,5.1c.43,1.05.88,2.08,1.34,3.12l.19.42c.46,1,.94,2,1.43,3,.05.1.1.19.14.29,1.06,2.11,2.17,4.19,3.31,6.26h0a44,44,0,0,1,.11-5.8c.36-3.12,1.48-5.86,4.69-6,4-.13,6.33,4.36,3.06,8.27a18.32,18.32,0,0,1-7,5h0l2.4,4.26c.53.92,1,1.84,1.56,2.77.11.18.21.37.31.56.62,1.1,1.23,2.2,1.82,3.31l.13.24c.63,1.18,1.26,2.37,1.86,3.58a43.86,43.86,0,0,1,.11-5.9c.36-3.12,1.48-5.86,4.69-6,4-.13,6.33,4.37,3.06,8.27a18.26,18.26,0,0,1-7.16,5c1.1,2.23,2.16,4.48,3.14,6.77.7,1.7,1.37,3.4,2,5.13a30.77,30.77,0,0,1,.15-3.71c.36-3.12,1.48-5.86,4.69-6,4-.13,6.33,4.36,3.06,8.27a18.27,18.27,0,0,1-6.73,4.85A82,82,0,0,1,423,225.31a98.9,98.9,0,0,0,6.08-12.46c10.39-27.13-3.25-41.77-23.41-51.28C405.54,161.8,405.37,162,405.19,162.25Z" style="fill:#92E3A9"></path><path d="M410.12,269.83c.1-.24.22-.48.34-.71a12.77,12.77,0,0,1-.93-1c0,1.06,0,2.12,0,3.18C409.71,270.8,409.9,270.31,410.12,269.83Z" style="fill:#fff;opacity:0.7000000000000001"></path><path d="M412.19,314.71l2.64-1.71c1.84-1.21,3.59-2.53,5.37-3.81-1.77-6.78-3.74-13.5-5.47-20.15q-.69-2.62-1.3-5.3c-.86,1.94-1.77,3.85-2.71,5.75,3,1.57,3.41,5.94-.51,8.43a17.36,17.36,0,0,1-5.31,2.18q-3.52,5.85-7.45,11.44a3.71,3.71,0,0,1,3.59.92c1.62,1.49,1.68,3.44,1,5.47a4.22,4.22,0,0,1-.34,3.1c2.49-1.36,4.92-2.81,7.33-4.32a20.11,20.11,0,0,1-1.88-8c-.07-5.38,4.37-7.71,7.19-5.11,2.29,2.11,1.47,5.14-.13,8A34.47,34.47,0,0,1,412.19,314.71Z" style="fill:#fff;opacity:0.7000000000000001"></path><path d="M405.48,248.72a54.11,54.11,0,0,1,3.19,10.9,3.64,3.64,0,0,1,2.16-.81,55.15,55.15,0,0,1,.88-7.47c.19-1,.4-2,.65-3,.07-.26.15-.51.22-.77a6.44,6.44,0,0,1-1.46-3.38A18.43,18.43,0,0,1,405.48,248.72Z" style="fill:#fff;opacity:0.7000000000000001"></path><path d="M406.94,289.26q2-3.79,3.84-7.69c.53-1.12,1-2.25,1.51-3.39-.11-.58-.21-1.18-.31-1.77a19.64,19.64,0,0,1-2.84.53,72.64,72.64,0,0,1-1.41,8.3c-.31,1.4-.68,2.78-1.07,4.16Z" style="fill:#fff;opacity:0.7000000000000001"></path><path d="M416.41,324a18.15,18.15,0,0,1-6.05-4.91c-2.5,1.67-5.05,3.29-7.66,4.81-1,.59-2,1.16-3,1.72a30.13,30.13,0,0,1,3.71-.78c3.11-.43,6,0,6.94,3.07,1.11,3.79-2.66,7.21-7.25,5a18.24,18.24,0,0,1-6.57-5.59c-1.29.67-2.61,1.31-3.94,1.91.67,2.83-1.59,5.85-5.77,5.54a17.41,17.41,0,0,1-5.88-1.57c-.3.06-.6.11-.91.15l-.15,0c-6.35,7-13.08,13.59-20.09,19.89q-6.65,6-13.62,11.52c-4.69,3.7-9.38,7.26-14.43,10.67l-3.18-5c4.8-3.09,9.58-6.56,14.21-10.07s9.19-7.23,13.62-11c5.89-5.08,11.59-10.38,17-15.93h0c-.41-.11-.79-.16-1.21-.31a5.5,5.5,0,0,1-1.44-.68l2.33-3.16-.06,0,0,0,.1.05.3.12a6.35,6.35,0,0,0,.73.21,9.77,9.77,0,0,0,1.67.21l.68,0a19.69,19.69,0,0,1-3.9-6c-2-5,1.25-8.78,4.82-7.39,2.91,1.13,3.25,4.25,2.81,7.52-.13.93-.32,1.86-.53,2.77.58-.63,1.16-1.26,1.73-1.9,1.68-1.88,3.32-3.8,4.94-5.73a20.08,20.08,0,0,1-4.28-6.39c-2-5,1.26-8.78,4.83-7.39,2.9,1.13,3.25,4.25,2.81,7.52-.13.94-.33,1.89-.54,2.81q1.72-2.13,3.39-4.32c.82-1.08,1.62-2.17,2.42-3.27,1-1.66,1.86-3.35,2.72-5.05.47-.95.92-1.9,1.37-2.85a19.91,19.91,0,0,1-6.78-2.49c-4.6-2.78-4.24-7.78-.55-8.81,3-.83,5.15,1.47,6.75,4.35a38.34,38.34,0,0,1,1.87,4,85.63,85.63,0,0,0,4.34-12.76,71.28,71.28,0,0,0,1.51-7.81,20,20,0,0,1-7.32-2.57c-4.6-2.79-4.24-7.78-.55-8.81,3-.83,5.15,1.47,6.75,4.35a34.35,34.35,0,0,1,1.52,3.19,58.3,58.3,0,0,0,.06-7.93,52.32,52.32,0,0,0-3.41-15.51,20.18,20.18,0,0,1-8.29.46c-5.31-.87-6.83-5.64-3.79-8,2.48-1.9,5.33-.56,7.88,1.52a35.45,35.45,0,0,1,2.76,2.55.36.36,0,0,1,0-.09,81.52,81.52,0,0,0-8.45-14.37,20.39,20.39,0,0,1-8.41,1.92c-5.38,0-7.65-4.48-5-7.27,2.14-2.26,5.17-1.39,8,.25a36.78,36.78,0,0,1,3.22,2.15c-3.56-4.67-7.28-9.28-10.64-14.15h0v0a.61.61,0,0,1-.07-.1,20.19,20.19,0,0,1-9.17,0c-5.23-1.27-6.4-6.14-3.19-8.23,2.62-1.7,5.35-.16,7.75,2.11.67.63,1.3,1.32,1.91,2a118.82,118.82,0,0,1-5.95-10.55l-.38.13v-.14a20.22,20.22,0,0,1-9.24,0c-5.23-1.26-6.4-6.13-3.19-8.22,2.62-1.7,5.35-.16,7.75,2.1a64.16,64.16,0,0,1,4.68,5.33c-.64-1.31-1.26-2.64-1.86-4a166.82,166.82,0,0,1-7-18.93,161.73,161.73,0,0,0,8.88,21.39,37.81,37.81,0,0,1,.13-5.17c.36-3.12,1.47-5.86,4.69-6,3.95-.13,6.33,4.37,3.05,8.27a18.13,18.13,0,0,1-6.82,4.89,110.32,110.32,0,0,0,7.78,12.63c.09.13.18.26.28.38a42.16,42.16,0,0,1,.11-5.57c.36-3.12,1.48-5.86,4.7-6,3.95-.13,6.33,4.37,3,8.27a18.12,18.12,0,0,1-6.73,4.86c3.5,4.75,7.34,9.24,11.06,13.88l.54.68a35.66,35.66,0,0,1-.95-4.58c-.38-3.12.07-6,3.17-6.9,3.81-1.05,7.17,2.77,4.9,7.33a18.28,18.28,0,0,1-5.44,6.31A82.2,82.2,0,0,1,403.81,245l.08.16a27.79,27.79,0,0,1-.1-3.42c.12-3.14,1-6,4.23-6.3a4.36,4.36,0,0,1,4.9,4.84,3.9,3.9,0,0,1,1.87-.54,5.9,5.9,0,0,1,.6,0c1.15-2.57,2.44-5.08,3.79-7.56a19.57,19.57,0,0,1-5.39-1.84c-4.76-2.49-4.72-7.5-1.09-8.75,2.94-1,5.22,1.14,7,3.91.58.92,1.11,1.9,1.59,2.85a80,80,0,0,0-2.92-14.5,20.3,20.3,0,0,1-8.57-.11c-5.23-1.26-6.39-6.14-3.18-8.23,2.61-1.7,5.35-.15,7.74,2.11a38.65,38.65,0,0,1,3.15,3.46c-.63-1.89-1.32-3.75-2-5.61-1-2.39-2-4.76-3.13-7.11a20.22,20.22,0,0,1-8.42-.13c-5.23-1.27-6.39-6.14-3.18-8.23,2.61-1.7,5.35-.16,7.75,2.11.55.53,1.09,1.09,1.61,1.67-2-3.9-4.09-7.76-6.16-11.64a20.16,20.16,0,0,1-8.92,0c-5.23-1.26-6.39-6.14-3.18-8.23,2.61-1.7,5.35-.15,7.75,2.11a36.55,36.55,0,0,1,2.62,2.84h0l-.88-1.74c-.53-1.07-1.06-2.14-1.57-3.23-.64-1.34-1.17-2.72-1.75-4.08-.34-.77-.65-1.55-.94-2.34a20.2,20.2,0,0,1-9,0c-5.23-1.26-6.39-6.14-3.18-8.23,2.61-1.7,5.35-.15,7.74,2.11a43.49,43.49,0,0,1,3.67,4.09c-1-2.73-1.86-5.51-2.6-8.33,0-.13-.07-.27-.1-.41-17.43-6.19-36.86-10-49.59-15.2-24.42-9.89-47.36-26.16-73.63-32.4-30.47-7.24-60.28,1.47-70.29,33-6.61,20.77-2.33,49.22-24.64,61.61-25.42,14.11-59.83,4.45-71.79,22.28-11,16.33,3.82,42.37,8.95,58.58,2,6.39,3.11,13.42.88,19.75C105.85,326,72.93,328.85,67.78,353c-5.23,24.51,35.9,55.71,86,47.54s80-49,109.19-31.2,71.79,42.34,116.66,31.2C400.49,395.32,417.3,382,423.12,361c3.58-12.91,2.7-25.83.18-38.61C422.17,324.38,419.48,325.42,416.41,324Z" style="fill:#fff;opacity:0.7000000000000001"></path><path d="M422.05,316.61q-.6-2.53-1.24-5.05c-1.51,1.17-3,2.36-4.59,3.46l-1.89,1.31c.79-.18,1.6-.35,2.39-.46C418.74,315.6,420.68,315.68,422.05,316.61Z" style="fill:#fff;opacity:0.7000000000000001"></path><path d="M390.46,322l-.15.2-.57-.46c-1.18,1.48-2.39,2.94-3.61,4.39a4.84,4.84,0,0,1,4.56.24c1.52-.62,3-1.31,4.52-2-.12-.3-.24-.63-.35-1A18,18,0,0,1,390.46,322Z" style="fill:#fff;opacity:0.7000000000000001"></path><path d="M397.75,158.19c-1.16-.45-2.33-.88-3.51-1.31.82,2.88,1.78,5.72,2.85,8.51l.24.62a46.36,46.36,0,0,1,.11-6.06A13.73,13.73,0,0,1,397.75,158.19Z" style="fill:#fff;opacity:0.7000000000000001"></path><path d="M405.19,162.25a18.46,18.46,0,0,1-7.34,5.1c.43,1.05.88,2.08,1.34,3.12l.19.42c.46,1,.94,2,1.43,3,.05.1.1.19.14.29,1.06,2.11,2.17,4.19,3.31,6.26h0a44,44,0,0,1,.11-5.8c.36-3.12,1.48-5.86,4.69-6,4-.13,6.33,4.36,3.06,8.27a18.32,18.32,0,0,1-7,5h0l2.4,4.26c.53.92,1,1.84,1.56,2.77.11.18.21.37.31.56.62,1.1,1.23,2.2,1.82,3.31l.13.24c.63,1.18,1.26,2.37,1.86,3.58a43.86,43.86,0,0,1,.11-5.9c.36-3.12,1.48-5.86,4.69-6,4-.13,6.33,4.37,3.06,8.27a18.26,18.26,0,0,1-7.16,5c1.1,2.23,2.16,4.48,3.14,6.77.7,1.7,1.37,3.4,2,5.13a30.77,30.77,0,0,1,.15-3.71c.36-3.12,1.48-5.86,4.69-6,4-.13,6.33,4.36,3.06,8.27a18.27,18.27,0,0,1-6.73,4.85A82,82,0,0,1,423,225.31a98.9,98.9,0,0,0,6.08-12.46c10.39-27.13-3.25-41.77-23.41-51.28C405.54,161.8,405.37,162,405.19,162.25Z" style="fill:#fff;opacity:0.7000000000000001"></path></g><g id="Shadow--inject-1"><ellipse cx="254.19" cy="387.6" rx="157.03" ry="21.56" style="fill:#92E3A9"></ellipse><ellipse cx="254.19" cy="387.6" rx="157.03" ry="21.56" style="fill:#fff;opacity:0.30000000000000004"></ellipse></g><g id="Plants--inject-1"><path d="M237.51,115.3c1.58-.58,3.1-1.3,4.65-2s3.05-1.39,4.56-2.12a108.43,108.43,0,0,0,17.17-10.43A75.88,75.88,0,0,0,278.36,87a76.1,76.1,0,0,1-14.72,13.5,108.16,108.16,0,0,1-17.28,10c-12,5.77-25.11,8.44-37.72,12.88a49.85,49.85,0,0,0,4.55-4.9c2.16-2.83,3.41-5.95.87-8.57-3.13-3.22-8.61-1.41-9,4.35a20.74,20.74,0,0,0,1.89,9.74c-2.65,1-5.29,2-7.89,3.06-1.9.84-3.8,1.7-5.67,2.61a32.59,32.59,0,0,0,2.8-3.15c2.16-2.83,3.41-5.94.87-8.56-3.13-3.22-8.61-1.42-9,4.35a20.69,20.69,0,0,0,1.68,9.26,94.75,94.75,0,0,0-15.18,10.19,33.76,33.76,0,0,0,2.11-4c1.42-3.27,1.87-6.59-1.23-8.52-3.81-2.37-8.69.71-7.68,6.4a20.71,20.71,0,0,0,3.91,8.64,98,98,0,0,0-13,14.25,33.17,33.17,0,0,0,.71-3.73c.43-3.53-.07-6.85-3.59-7.82-4.32-1.19-8.14,3.14-5.56,8.31a20.59,20.59,0,0,0,5.81,6.89,123.68,123.68,0,0,0-7.61,12.63c-.36.68-.7,1.38-1.05,2.07a4.63,4.63,0,0,0-.58.31c0-.69,0-1.37,0-2-.12-3.56-1.13-6.76-4.76-7.17-4.45-.52-7.55,4.35-4.21,9.06a20.54,20.54,0,0,0,6.46,5.73c0,.13,0,.27.05.41q-2.25,5-4.14,10.18c-.95,2.57-1.82,5.17-2.65,7.79-3.67-1.08-7.45,2.16-6.21,7.28a19.58,19.58,0,0,0,2.63,6q-1.74,7.54-2.93,15.2a4.22,4.22,0,0,0-3.65-2.07c-2.5-.05-4.08,1.49-5.14,3.67a4.85,4.85,0,0,0-2.15,2.8c-1-3.06-1.81-6.17-2.6-9.29a22.83,22.83,0,0,0,7.88-5.1c4.28-4.34,2.5-9.73-1.85-9.83-3.54-.08-5.25,3-6.21,6.66a38.15,38.15,0,0,0-.81,4.16l-.81-3.48c-.66-2.94-1.1-5.91-1.67-8.86-.15-.72-.25-1.45-.34-2.19a22.84,22.84,0,0,0,8.68-3.52c5-3.46,4.28-9.1,0-10-3.46-.74-5.73,2-7.35,5.38a39.92,39.92,0,0,0-1.79,4.54l-.38-3.15a151,151,0,0,1-.57-21.27,23,23,0,0,0,9.63-2.68c5.35-2.94,5.18-8.62,1-10-3.37-1.08-5.9,1.43-7.85,4.61a48.58,48.58,0,0,0-2.69,5.34q.35-6.09,1.1-12.15c.26-2.53.71-5,1.11-7.53a23.12,23.12,0,0,0,10.27-1.38c5.68-2.22,6.24-7.88,2.31-9.74-3.2-1.51-6,.65-8.38,3.56a57.19,57.19,0,0,0-3.91,5.84c.57-2.87,1.11-5.76,1.81-8.61A137.38,137.38,0,0,1,122,127.91a135.42,135.42,0,0,0-5.76,17.26c-.75,2.69-1.36,5.42-2,8.15a45.1,45.1,0,0,0-1-6c-.88-3.45-2.56-6.36-6.19-6-4.46.46-6.44,5.88-2.16,9.76a20.81,20.81,0,0,0,8.85,4.57c-.48,2.45-1,4.91-1.32,7.39-.62,3.92-1.09,7.87-1.45,11.83a38.94,38.94,0,0,0-1.5-4.93c-1.33-3.3-3.36-6-6.91-5.13-4.37,1-5.63,6.66-.89,9.95a20.77,20.77,0,0,0,9,3.35,152.55,152.55,0,0,0-.07,21.38l.19,2.15a30.74,30.74,0,0,0-1.42-3.23c-1.65-3.15-3.94-5.6-7.39-4.41-4.24,1.46-4.94,7.19.12,10a20.69,20.69,0,0,0,9.12,2.42c.06.74.14,1.47.27,2.2.48,3,.84,6.07,1.42,9.06l.51,2.56a25.33,25.33,0,0,0-1.59-2.25c-2.21-2.79-4.92-4.77-8.09-3-3.89,2.24-3.49,8,2,9.8a20.62,20.62,0,0,0,8.8.75c.73,3.34,1.53,6.66,2.47,10,.34,1.26.71,2.51,1.09,3.76a34.25,34.25,0,0,0-2.41-3.56c-2.21-2.79-4.92-4.77-8.09-2.95-3.89,2.23-3.49,8,2,9.79a20.62,20.62,0,0,0,9.75.61q.79,2.34,1.72,4.66c-2.77,1.78-3.3,6,.36,9.07a19.67,19.67,0,0,0,6,3.34c.19.28.4.56.61.83l.11.15a320.25,320.25,0,0,0,.75,32.05q.73,10.1,2.07,20.13c.91,6.71,1.94,13.32,3.38,20.07l6.5-1.55c-1.48-6.3-2.66-12.89-3.68-19.41s-1.82-13.13-2.44-19.73c-.81-8.78-1.3-17.59-1.39-26.41l0,0c.41.23.76.49,1.23.7a6.29,6.29,0,0,0,1.71.58l.58-4.42.08,0,0,0-.13,0-.34-.14c-.23-.09-.5-.28-.76-.4a12,12,0,0,1-1.53-1.15l-.58-.51a22.45,22.45,0,0,0,7.92-1.83c5.57-2.48,5.88-8.15,1.87-9.83-3.26-1.37-6,.92-8.21,3.93-.63.86-1.21,1.77-1.75,2.68,0-1,0-1.94.08-2.91.11-2.86.28-5.72.48-8.57a22.69,22.69,0,0,0,8.52-1.86c5.58-2.48,5.88-8.15,1.87-9.83-3.26-1.36-6,.92-8.21,3.93-.63.87-1.22,1.8-1.77,2.72.18-2.06.39-4.13.62-6.19.19-1.53.39-3.06.61-4.58.53-2.1,1.11-4.19,1.76-6.27.35-1.14.73-2.27,1.12-3.4a22.67,22.67,0,0,0,7.49,3.3c5.95,1.35,9.59-3,7.38-6.76-1.8-3.05-5.36-2.86-8.93-1.76a41.13,41.13,0,0,0-4.71,1.83,97,97,0,0,1,6.5-13.84,78.19,78.19,0,0,1,4.91-7.56,22.69,22.69,0,0,0,8,3.65c5.95,1.35,9.59-3,7.38-6.76-1.8-3-5.36-2.85-8.93-1.76a38.3,38.3,0,0,0-3.76,1.41,64.75,64.75,0,0,1,6.2-6.52,58.61,58.61,0,0,1,15-10,22.72,22.72,0,0,0,6.4,6.89c5,3.47,10,.77,9.36-3.52-.53-3.5-3.91-4.65-7.63-5a38,38,0,0,0-4.26-.08l.1,0a92,92,0,0,1,18.21-5.1,22.85,22.85,0,0,0,5.37,8.19c4.4,4.22,9.77,2.36,9.8-2,0-3.54-3.12-5.21-6.75-6.11a36.61,36.61,0,0,0-4.32-.77c6.58-1,13.25-1.86,19.83-3.19h0v0l.14,0a23,23,0,0,0,7.47,7.24c5.27,3.09,10.05,0,9.08-4.21-.8-3.45-4.25-4.34-8-4.38-1,0-2.1.05-3.14.14A133.76,133.76,0,0,0,240,158.37c.12.26.21.41.21.41l.1-.12a23,23,0,0,0,7.52,7.31c5.26,3.08,10,0,9.07-4.21-.79-3.45-4.25-4.34-8-4.38a71.72,71.72,0,0,0-8,.67c1.56-.57,3.11-1.16,4.65-1.79a192.07,192.07,0,0,0,20.66-9.92,183.52,183.52,0,0,1-24.09,10.48,42.77,42.77,0,0,0,4-4.32c2.16-2.83,3.41-5.95.87-8.56-3.13-3.22-8.61-1.42-9,4.34a20.58,20.58,0,0,0,1.72,9.37,127.36,127.36,0,0,1-16.3,4.19l-.52.1a46.58,46.58,0,0,0,4.29-4.65c2.16-2.83,3.4-5.95.86-8.56-3.12-3.22-8.6-1.42-9,4.34a20.82,20.82,0,0,0,1.67,9.26c-6.59,1.13-13.26,1.78-20,2.64l-1,.13a39.54,39.54,0,0,0,4.38-3c2.76-2.25,4.7-5,2.84-8.13-2.29-3.86-8-3.38-9.77,2.14a20.67,20.67,0,0,0-.52,9.43,93.1,93.1,0,0,0-18.45,4.66l-.19.07a32.18,32.18,0,0,0,2.77-2.71c2.37-2.66,3.85-5.68,1.51-8.48a5,5,0,0,0-7.82.1,4.34,4.34,0,0,0-1.1-1.91c-2.43-2.57-5.86-1.59-9.1.27-.84.49-1.66,1-2.46,1.59A94.77,94.77,0,0,1,173.53,146a22.6,22.6,0,0,0,8.07,4.4c5.86,1.72,9.76-2.41,7.79-6.29-1.61-3.15-5.17-3.18-8.8-2.31a35.5,35.5,0,0,0-3.55,1.08,91.71,91.71,0,0,1,13.8-9.56,22.79,22.79,0,0,0,7.09,6.66c5.26,3.09,10,0,9.07-4.21-.8-3.45-4.25-4.34-8-4.37a43,43,0,0,0-5.29.35c2-1.05,4-2,6.08-3,2.68-1.19,5.4-2.3,8.14-3.34a22.93,22.93,0,0,0,7,6.51c5.26,3.08,10.05,0,9.07-4.22-.8-3.44-4.25-4.33-8-4.37-.88,0-1.76,0-2.64.1,4.84-1.68,9.74-3.21,14.63-4.8C231.21,117.6,234.38,116.51,237.51,115.3Zm-83.69,69.38c.5,0,1,0,1.54-.08-.85.84-1.68,1.71-2.49,2.59.24-.55.47-1.1.67-1.66C153.64,185.25,153.73,185,153.82,184.68Zm-31,57.15,1.06-.53a20.77,20.77,0,0,0,4.67,2.34c0,.09,0,.18,0,.28l.83.07q-.28,3.22-.51,6.43c-.87-1.77-2.1-3.09-3.91-3.39C124.13,245.32,123.44,243.58,122.78,241.83ZM143.36,200c-.84,1.39-1.63,2.81-2.4,4.24a2.19,2.19,0,0,0-.12-.33q1.33-4.69,2.92-9.31c.73-2.15,1.53-4.28,2.37-6.4a21.49,21.49,0,0,0,2.61,3.91A85.72,85.72,0,0,0,143.36,200Zm24.36-34.48a7.84,7.84,0,0,0,5.18-1.71,21.13,21.13,0,0,0,1,8.14,61.93,61.93,0,0,0-11.18,6.38,4.26,4.26,0,0,0-1.7-2.89c-2.79-2.16-6-.67-8.94,1.67l-.14.12-.19-.12a4.91,4.91,0,0,0-.62-.28l.24-.5a121.82,121.82,0,0,1,7.33-12.74A22.68,22.68,0,0,0,167.72,165.51Z" style="fill:#92E3A9"></path><path d="M278.36,87a76.1,76.1,0,0,1-14.72,13.5,108.16,108.16,0,0,1-17.28,10l-.68.31a50.68,50.68,0,0,0,4.68-5c2.16-2.83,3.41-5.94.87-8.56-3.13-3.22-8.61-1.42-9,4.35a20.82,20.82,0,0,0,2,9.94,137.08,137.08,0,0,1-15.53,5.65,49.42,49.42,0,0,0,4.47-4.83c2.16-2.83,3.41-6,.87-8.57-3.13-3.22-8.61-1.41-9,4.35a20.73,20.73,0,0,0,1.82,9.61c-6.06,1.84-12.18,3.56-18.19,5.67a49.85,49.85,0,0,0,4.55-4.9c2.16-2.83,3.41-5.95.87-8.57-3.13-3.22-8.61-1.41-9,4.35a20.74,20.74,0,0,0,1.89,9.74c-2.65,1-5.29,2-7.89,3.06-1.9.84-3.8,1.7-5.67,2.61a32.59,32.59,0,0,0,2.8-3.15c2.16-2.83,3.41-5.94.87-8.56-3.13-3.22-8.61-1.42-9,4.35a20.69,20.69,0,0,0,1.68,9.26,94.75,94.75,0,0,0-15.18,10.19,33.76,33.76,0,0,0,2.11-4c1.42-3.27,1.87-6.59-1.23-8.52-3.81-2.37-8.69.71-7.68,6.4a20.71,20.71,0,0,0,3.91,8.64,98,98,0,0,0-13,14.25,33.17,33.17,0,0,0,.71-3.73c.43-3.53-.07-6.85-3.59-7.82-4.32-1.19-8.14,3.14-5.56,8.31a20.59,20.59,0,0,0,5.81,6.89,123.68,123.68,0,0,0-7.61,12.63c-.36.68-.7,1.38-1.05,2.07a4.63,4.63,0,0,0-.58.31c0-.69,0-1.37,0-2-.12-3.56-1.13-6.76-4.76-7.17-4.45-.52-7.55,4.35-4.21,9.06a20.54,20.54,0,0,0,6.46,5.73c0,.13,0,.27.05.41q-2.25,5-4.14,10.18c-.95,2.57-1.82,5.17-2.65,7.79-3.67-1.08-7.45,2.16-6.21,7.28a19.58,19.58,0,0,0,2.63,6q-1.74,7.54-2.93,15.2a4.22,4.22,0,0,0-3.65-2.07c-2.5-.05-4.08,1.49-5.14,3.67a4.85,4.85,0,0,0-2.15,2.8c-1-3.06-1.81-6.17-2.6-9.29a22.83,22.83,0,0,0,7.88-5.1c4.28-4.34,2.5-9.73-1.85-9.83-3.54-.08-5.25,3-6.21,6.66a38.15,38.15,0,0,0-.81,4.16l-.81-3.48c-.66-2.94-1.1-5.91-1.67-8.86-.15-.72-.25-1.45-.34-2.19a22.84,22.84,0,0,0,8.68-3.52c5-3.46,4.28-9.1,0-10-3.46-.74-5.73,2-7.35,5.38a39.92,39.92,0,0,0-1.79,4.54l-.38-3.15a151,151,0,0,1-.57-21.27,23,23,0,0,0,9.63-2.68c5.35-2.94,5.18-8.62,1-10-3.37-1.08-5.9,1.43-7.85,4.61a48.58,48.58,0,0,0-2.69,5.34q.35-6.09,1.1-12.15c.26-2.53.71-5,1.11-7.53a23.12,23.12,0,0,0,10.27-1.38c5.68-2.22,6.24-7.88,2.31-9.74-3.2-1.51-6,.65-8.38,3.56a57.19,57.19,0,0,0-3.91,5.84c.57-2.87,1.11-5.76,1.81-8.61A137.38,137.38,0,0,1,122,127.91a135.42,135.42,0,0,0-5.76,17.26c-.75,2.69-1.36,5.42-2,8.15a45.1,45.1,0,0,0-1-6c-.88-3.45-2.56-6.36-6.19-6-4.46.46-6.44,5.88-2.16,9.76a20.81,20.81,0,0,0,8.85,4.57c-.48,2.45-1,4.91-1.32,7.39-.62,3.92-1.09,7.87-1.45,11.83a38.94,38.94,0,0,0-1.5-4.93c-1.33-3.3-3.36-6-6.91-5.13-4.37,1-5.63,6.66-.89,9.95a20.77,20.77,0,0,0,9,3.35,152.55,152.55,0,0,0-.07,21.38l.19,2.15a30.74,30.74,0,0,0-1.42-3.23c-1.65-3.15-3.94-5.6-7.39-4.41-4.24,1.46-4.94,7.19.12,10a20.69,20.69,0,0,0,9.12,2.42c.06.74.14,1.47.27,2.2.48,3,.84,6.07,1.42,9.06l.51,2.56a25.33,25.33,0,0,0-1.59-2.25c-2.21-2.79-4.92-4.77-8.09-3-3.89,2.24-3.49,8,2,9.8a20.62,20.62,0,0,0,8.8.75c.73,3.34,1.53,6.66,2.47,10,.34,1.26.71,2.51,1.09,3.76a34.25,34.25,0,0,0-2.41-3.56c-2.21-2.79-4.92-4.77-8.09-2.95-3.89,2.23-3.49,8,2,9.79a20.62,20.62,0,0,0,9.75.61q.79,2.34,1.72,4.66c-2.77,1.78-3.3,6,.36,9.07a19.67,19.67,0,0,0,6,3.34c.19.28.4.56.61.83l.11.15a320.25,320.25,0,0,0,.75,32.05q.73,10.1,2.07,20.13c.91,6.71,1.94,13.32,3.38,20.07l6.5-1.55c-1.48-6.3-2.66-12.89-3.68-19.41s-1.82-13.13-2.44-19.73c-.81-8.78-1.3-17.59-1.39-26.41l0,0c.41.23.76.49,1.23.7a6.29,6.29,0,0,0,1.71.58l.58-4.42.08,0,0,0-.13,0-.34-.14c-.23-.09-.5-.28-.76-.4a12,12,0,0,1-1.53-1.15l-.58-.51a22.45,22.45,0,0,0,7.92-1.83c5.57-2.48,5.88-8.15,1.87-9.83-3.26-1.37-6,.92-8.21,3.93-.63.86-1.21,1.77-1.75,2.68,0-1,0-1.94.08-2.91.11-2.86.28-5.72.48-8.57a22.69,22.69,0,0,0,8.52-1.86c5.58-2.48,5.88-8.15,1.87-9.83-3.26-1.36-6,.92-8.21,3.93-.63.87-1.22,1.8-1.77,2.72.18-2.06.39-4.13.62-6.19.19-1.53.39-3.06.61-4.58.53-2.1,1.11-4.19,1.76-6.27.35-1.14.73-2.27,1.12-3.4a22.67,22.67,0,0,0,7.49,3.3c5.95,1.35,9.59-3,7.38-6.76-1.8-3.05-5.36-2.86-8.93-1.76a41.13,41.13,0,0,0-4.71,1.83,97,97,0,0,1,6.5-13.84,78.19,78.19,0,0,1,4.91-7.56,22.69,22.69,0,0,0,8,3.65c5.95,1.35,9.59-3,7.38-6.76-1.8-3-5.36-2.85-8.93-1.76a38.3,38.3,0,0,0-3.76,1.41,64.75,64.75,0,0,1,6.2-6.52,58.61,58.61,0,0,1,15-10,22.72,22.72,0,0,0,6.4,6.89c5,3.47,10,.77,9.36-3.52-.53-3.5-3.91-4.65-7.63-5a38,38,0,0,0-4.26-.08l.1,0a92,92,0,0,1,18.21-5.1,22.85,22.85,0,0,0,5.37,8.19c4.4,4.22,9.77,2.36,9.8-2,0-3.54-3.12-5.21-6.75-6.11a36.61,36.61,0,0,0-4.32-.77c6.58-1,13.25-1.86,19.83-3.19h0v0l.14,0a23,23,0,0,0,7.47,7.24c5.27,3.09,10.05,0,9.08-4.21-.8-3.45-4.25-4.34-8-4.38-1,0-2.1.05-3.14.14A133.76,133.76,0,0,0,240,158.37c.12.26.21.41.21.41l.1-.12a23,23,0,0,0,7.52,7.31c5.26,3.08,10,0,9.07-4.21-.79-3.45-4.25-4.34-8-4.38a71.72,71.72,0,0,0-8,.67c1.56-.57,3.11-1.16,4.65-1.79a192.07,192.07,0,0,0,20.66-9.92,183.52,183.52,0,0,1-24.09,10.48,42.77,42.77,0,0,0,4-4.32c2.16-2.83,3.41-5.95.87-8.56-3.13-3.22-8.61-1.42-9,4.34a20.58,20.58,0,0,0,1.72,9.37,127.36,127.36,0,0,1-16.3,4.19l-.52.1a46.58,46.58,0,0,0,4.29-4.65c2.16-2.83,3.4-5.95.86-8.56-3.12-3.22-8.6-1.42-9,4.34a20.82,20.82,0,0,0,1.67,9.26c-6.59,1.13-13.26,1.78-20,2.64l-1,.13a39.54,39.54,0,0,0,4.38-3c2.76-2.25,4.7-5,2.84-8.13-2.29-3.86-8-3.38-9.77,2.14a20.67,20.67,0,0,0-.52,9.43,93.1,93.1,0,0,0-18.45,4.66l-.19.07a32.18,32.18,0,0,0,2.77-2.71c2.37-2.66,3.85-5.68,1.51-8.48a5,5,0,0,0-7.82.1,4.34,4.34,0,0,0-1.1-1.91c-2.43-2.57-5.86-1.59-9.1.27-.84.49-1.66,1-2.46,1.59A94.77,94.77,0,0,1,173.53,146a22.6,22.6,0,0,0,8.07,4.4c5.86,1.72,9.76-2.41,7.79-6.29-1.61-3.15-5.17-3.18-8.8-2.31a35.5,35.5,0,0,0-3.55,1.08,91.71,91.71,0,0,1,13.8-9.56,22.79,22.79,0,0,0,7.09,6.66c5.26,3.09,10,0,9.07-4.21-.8-3.45-4.25-4.34-8-4.37a43,43,0,0,0-5.29.35c2-1.05,4-2,6.08-3,2.68-1.19,5.4-2.3,8.14-3.34a22.93,22.93,0,0,0,7,6.51c5.26,3.08,10.05,0,9.07-4.22-.8-3.44-4.25-4.33-8-4.37-.88,0-1.76,0-2.64.1,4.7-1.63,9.45-3.12,14.19-4.66a23,23,0,0,0,7.31,7c5.26,3.08,10.05,0,9.07-4.22-.79-3.44-4.25-4.33-8-4.37a41.91,41.91,0,0,0-4.38.25c2-.67,4-1.37,5.91-2.13,1.58-.58,3.1-1.3,4.65-2,.88-.36,1.74-.76,2.6-1.17a23,23,0,0,0,7.35,7c5.26,3.08,10.05,0,9.07-4.22-.79-3.45-4.25-4.34-8-4.37a48.44,48.44,0,0,0-6.22.46,108,108,0,0,0,16.91-10.3A75.88,75.88,0,0,0,278.36,87ZM128.79,250.42c-.87-1.77-2.1-3.09-3.91-3.39-.75-1.71-1.44-3.45-2.1-5.2l1.06-.53a20.77,20.77,0,0,0,4.67,2.34c0,.09,0,.18,0,.28l.83.07Q129,247.21,128.79,250.42ZM143.36,200c-.84,1.39-1.63,2.81-2.4,4.24a2.19,2.19,0,0,0-.12-.33q1.33-4.69,2.92-9.31c.73-2.15,1.53-4.28,2.37-6.4a21.49,21.49,0,0,0,2.61,3.91A85.72,85.72,0,0,0,143.36,200Zm9.51-12.8c.24-.55.47-1.1.67-1.66.1-.28.19-.57.28-.85.5,0,1,0,1.54-.08C154.51,185.44,153.68,186.31,152.87,187.19Zm14.85-21.68a7.84,7.84,0,0,0,5.18-1.71,21.13,21.13,0,0,0,1,8.14,61.93,61.93,0,0,0-11.18,6.38,4.26,4.26,0,0,0-1.7-2.89c-2.79-2.16-6-.67-8.94,1.67l-.14.12-.19-.12a4.91,4.91,0,0,0-.62-.28l.24-.5a121.82,121.82,0,0,1,7.33-12.74A22.68,22.68,0,0,0,167.72,165.51Z" style="fill:#92E3A9"></path><path d="M128.79,250.42c-.87-1.77-2.1-3.09-3.91-3.39-.75-1.71-1.44-3.45-2.1-5.2l1.06-.53a20.77,20.77,0,0,0,4.67,2.34c0,.09,0,.18,0,.28l.83.07Q129,247.21,128.79,250.42ZM143.36,200c-.84,1.39-1.63,2.81-2.4,4.24a2.19,2.19,0,0,0-.12-.33q1.33-4.69,2.92-9.31c.73-2.15,1.53-4.28,2.37-6.4a21.49,21.49,0,0,0,2.61,3.91A85.72,85.72,0,0,0,143.36,200Zm9.51-12.8c.24-.55.47-1.1.67-1.66.1-.28.19-.57.28-.85.5,0,1,0,1.54-.08C154.51,185.44,153.68,186.31,152.87,187.19Zm14.85-21.68a7.84,7.84,0,0,0,5.18-1.71,21.13,21.13,0,0,0,1,8.14,61.93,61.93,0,0,0-11.18,6.38,4.26,4.26,0,0,0-1.7-2.89c-2.79-2.16-6-.67-8.94,1.67l-.14.12-.19-.12a4.91,4.91,0,0,0-.62-.28l.24-.5a121.82,121.82,0,0,1,7.33-12.74A22.68,22.68,0,0,0,167.72,165.51Z" style="fill:#fff;opacity:0.5"></path><g style="opacity:0.5"><path d="M278.36,87a76.1,76.1,0,0,1-14.72,13.5,108.16,108.16,0,0,1-17.28,10l-.68.31a50.68,50.68,0,0,0,4.68-5c2.16-2.83,3.41-5.94.87-8.56-3.13-3.22-8.61-1.42-9,4.35a20.82,20.82,0,0,0,2,9.94,137.08,137.08,0,0,1-15.53,5.65,49.42,49.42,0,0,0,4.47-4.83c2.16-2.83,3.41-6,.87-8.57-3.13-3.22-8.61-1.41-9,4.35a20.73,20.73,0,0,0,1.82,9.61c-6.06,1.84-12.18,3.56-18.19,5.67a49.85,49.85,0,0,0,4.55-4.9c2.16-2.83,3.41-5.95.87-8.57-3.13-3.22-8.61-1.41-9,4.35a20.74,20.74,0,0,0,1.89,9.74c-2.65,1-5.29,2-7.89,3.06-1.9.84-3.8,1.7-5.67,2.61a32.59,32.59,0,0,0,2.8-3.15c2.16-2.83,3.41-5.94.87-8.56-3.13-3.22-8.61-1.42-9,4.35a20.69,20.69,0,0,0,1.68,9.26,94.75,94.75,0,0,0-15.18,10.19,33.76,33.76,0,0,0,2.11-4c1.42-3.27,1.87-6.59-1.23-8.52-3.81-2.37-8.69.71-7.68,6.4a20.71,20.71,0,0,0,3.91,8.64,98,98,0,0,0-13,14.25,33.17,33.17,0,0,0,.71-3.73c.43-3.53-.07-6.85-3.59-7.82-4.32-1.19-8.14,3.14-5.56,8.31a20.59,20.59,0,0,0,5.81,6.89,123.68,123.68,0,0,0-7.61,12.63c-.36.68-.7,1.38-1.05,2.07a4.63,4.63,0,0,0-.58.31c0-.69,0-1.37,0-2-.12-3.56-1.13-6.76-4.76-7.17-4.45-.52-7.55,4.35-4.21,9.06a20.54,20.54,0,0,0,6.46,5.73c0,.13,0,.27.05.41q-2.25,5-4.14,10.18c-.95,2.57-1.82,5.17-2.65,7.79-3.67-1.08-7.45,2.16-6.21,7.28a19.58,19.58,0,0,0,2.63,6q-1.74,7.54-2.93,15.2a4.22,4.22,0,0,0-3.65-2.07c-2.5-.05-4.08,1.49-5.14,3.67a4.85,4.85,0,0,0-2.15,2.8c-1-3.06-1.81-6.17-2.6-9.29a22.83,22.83,0,0,0,7.88-5.1c4.28-4.34,2.5-9.73-1.85-9.83-3.54-.08-5.25,3-6.21,6.66a38.15,38.15,0,0,0-.81,4.16l-.81-3.48c-.66-2.94-1.1-5.91-1.67-8.86-.15-.72-.25-1.45-.34-2.19a22.84,22.84,0,0,0,8.68-3.52c5-3.46,4.28-9.1,0-10-3.46-.74-5.73,2-7.35,5.38a39.92,39.92,0,0,0-1.79,4.54l-.38-3.15a151,151,0,0,1-.57-21.27,23,23,0,0,0,9.63-2.68c5.35-2.94,5.18-8.62,1-10-3.37-1.08-5.9,1.43-7.85,4.61a48.58,48.58,0,0,0-2.69,5.34q.35-6.09,1.1-12.15c.26-2.53.71-5,1.11-7.53a23.12,23.12,0,0,0,10.27-1.38c5.68-2.22,6.24-7.88,2.31-9.74-3.2-1.51-6,.65-8.38,3.56a57.19,57.19,0,0,0-3.91,5.84c.57-2.87,1.11-5.76,1.81-8.61A137.38,137.38,0,0,1,122,127.91a135.42,135.42,0,0,0-5.76,17.26c-.75,2.69-1.36,5.42-2,8.15a45.1,45.1,0,0,0-1-6c-.88-3.45-2.56-6.36-6.19-6-4.46.46-6.44,5.88-2.16,9.76a20.81,20.81,0,0,0,8.85,4.57c-.48,2.45-1,4.91-1.32,7.39-.62,3.92-1.09,7.87-1.45,11.83a38.94,38.94,0,0,0-1.5-4.93c-1.33-3.3-3.36-6-6.91-5.13-4.37,1-5.63,6.66-.89,9.95a20.77,20.77,0,0,0,9,3.35,152.55,152.55,0,0,0-.07,21.38l.19,2.15a30.74,30.74,0,0,0-1.42-3.23c-1.65-3.15-3.94-5.6-7.39-4.41-4.24,1.46-4.94,7.19.12,10a20.69,20.69,0,0,0,9.12,2.42c.06.74.14,1.47.27,2.2.48,3,.84,6.07,1.42,9.06l.51,2.56a25.33,25.33,0,0,0-1.59-2.25c-2.21-2.79-4.92-4.77-8.09-3-3.89,2.24-3.49,8,2,9.8a20.62,20.62,0,0,0,8.8.75c.73,3.34,1.53,6.66,2.47,10,.34,1.26.71,2.51,1.09,3.76a34.25,34.25,0,0,0-2.41-3.56c-2.21-2.79-4.92-4.77-8.09-2.95-3.89,2.23-3.49,8,2,9.79a20.62,20.62,0,0,0,9.75.61q.79,2.34,1.72,4.66c-2.77,1.78-3.3,6,.36,9.07a19.67,19.67,0,0,0,6,3.34c.19.28.4.56.61.83l.11.15a320.25,320.25,0,0,0,.75,32.05q.73,10.1,2.07,20.13c.91,6.71,1.94,13.32,3.38,20.07l6.5-1.55c-1.48-6.3-2.66-12.89-3.68-19.41s-1.82-13.13-2.44-19.73c-.81-8.78-1.3-17.59-1.39-26.41l0,0c.41.23.76.49,1.23.7a6.29,6.29,0,0,0,1.71.58l.58-4.42.08,0,0,0-.13,0-.34-.14c-.23-.09-.5-.28-.76-.4a12,12,0,0,1-1.53-1.15l-.58-.51a22.45,22.45,0,0,0,7.92-1.83c5.57-2.48,5.88-8.15,1.87-9.83-3.26-1.37-6,.92-8.21,3.93-.63.86-1.21,1.77-1.75,2.68,0-1,0-1.94.08-2.91.11-2.86.28-5.72.48-8.57a22.69,22.69,0,0,0,8.52-1.86c5.58-2.48,5.88-8.15,1.87-9.83-3.26-1.36-6,.92-8.21,3.93-.63.87-1.22,1.8-1.77,2.72.18-2.06.39-4.13.62-6.19.19-1.53.39-3.06.61-4.58.53-2.1,1.11-4.19,1.76-6.27.35-1.14.73-2.27,1.12-3.4a22.67,22.67,0,0,0,7.49,3.3c5.95,1.35,9.59-3,7.38-6.76-1.8-3.05-5.36-2.86-8.93-1.76a41.13,41.13,0,0,0-4.71,1.83,97,97,0,0,1,6.5-13.84,78.19,78.19,0,0,1,4.91-7.56,22.69,22.69,0,0,0,8,3.65c5.95,1.35,9.59-3,7.38-6.76-1.8-3-5.36-2.85-8.93-1.76a38.3,38.3,0,0,0-3.76,1.41,64.75,64.75,0,0,1,6.2-6.52,58.61,58.61,0,0,1,15-10,22.72,22.72,0,0,0,6.4,6.89c5,3.47,10,.77,9.36-3.52-.53-3.5-3.91-4.65-7.63-5a38,38,0,0,0-4.26-.08l.1,0a92,92,0,0,1,18.21-5.1,22.85,22.85,0,0,0,5.37,8.19c4.4,4.22,9.77,2.36,9.8-2,0-3.54-3.12-5.21-6.75-6.11a36.61,36.61,0,0,0-4.32-.77c6.58-1,13.25-1.86,19.83-3.19h0v0l.14,0a23,23,0,0,0,7.47,7.24c5.27,3.09,10.05,0,9.08-4.21-.8-3.45-4.25-4.34-8-4.38-1,0-2.1.05-3.14.14A133.76,133.76,0,0,0,240,158.37c.12.26.21.41.21.41l.1-.12a23,23,0,0,0,7.52,7.31c5.26,3.08,10,0,9.07-4.21-.79-3.45-4.25-4.34-8-4.38a71.72,71.72,0,0,0-8,.67c1.56-.57,3.11-1.16,4.65-1.79a192.07,192.07,0,0,0,20.66-9.92,183.52,183.52,0,0,1-24.09,10.48,42.77,42.77,0,0,0,4-4.32c2.16-2.83,3.41-5.95.87-8.56-3.13-3.22-8.61-1.42-9,4.34a20.58,20.58,0,0,0,1.72,9.37,127.36,127.36,0,0,1-16.3,4.19l-.52.1a46.58,46.58,0,0,0,4.29-4.65c2.16-2.83,3.4-5.95.86-8.56-3.12-3.22-8.6-1.42-9,4.34a20.82,20.82,0,0,0,1.67,9.26c-6.59,1.13-13.26,1.78-20,2.64l-1,.13a39.54,39.54,0,0,0,4.38-3c2.76-2.25,4.7-5,2.84-8.13-2.29-3.86-8-3.38-9.77,2.14a20.67,20.67,0,0,0-.52,9.43,93.1,93.1,0,0,0-18.45,4.66l-.19.07a32.18,32.18,0,0,0,2.77-2.71c2.37-2.66,3.85-5.68,1.51-8.48a5,5,0,0,0-7.82.1,4.34,4.34,0,0,0-1.1-1.91c-2.43-2.57-5.86-1.59-9.1.27-.84.49-1.66,1-2.46,1.59A94.77,94.77,0,0,1,173.53,146a22.6,22.6,0,0,0,8.07,4.4c5.86,1.72,9.76-2.41,7.79-6.29-1.61-3.15-5.17-3.18-8.8-2.31a35.5,35.5,0,0,0-3.55,1.08,91.71,91.71,0,0,1,13.8-9.56,22.79,22.79,0,0,0,7.09,6.66c5.26,3.09,10,0,9.07-4.21-.8-3.45-4.25-4.34-8-4.37a43,43,0,0,0-5.29.35c2-1.05,4-2,6.08-3,2.68-1.19,5.4-2.3,8.14-3.34a22.93,22.93,0,0,0,7,6.51c5.26,3.08,10.05,0,9.07-4.22-.8-3.44-4.25-4.33-8-4.37-.88,0-1.76,0-2.64.1,4.7-1.63,9.45-3.12,14.19-4.66a23,23,0,0,0,7.31,7c5.26,3.08,10.05,0,9.07-4.22-.79-3.44-4.25-4.33-8-4.37a41.91,41.91,0,0,0-4.38.25c2-.67,4-1.37,5.91-2.13,1.58-.58,3.1-1.3,4.65-2,.88-.36,1.74-.76,2.6-1.17a23,23,0,0,0,7.35,7c5.26,3.08,10.05,0,9.07-4.22-.79-3.45-4.25-4.34-8-4.37a48.44,48.44,0,0,0-6.22.46,108,108,0,0,0,16.91-10.3A75.88,75.88,0,0,0,278.36,87ZM128.79,250.42c-.87-1.77-2.1-3.09-3.91-3.39-.75-1.71-1.44-3.45-2.1-5.2l1.06-.53a20.77,20.77,0,0,0,4.67,2.34c0,.09,0,.18,0,.28l.83.07Q129,247.21,128.79,250.42ZM143.36,200c-.84,1.39-1.63,2.81-2.4,4.24a2.19,2.19,0,0,0-.12-.33q1.33-4.69,2.92-9.31c.73-2.15,1.53-4.28,2.37-6.4a21.49,21.49,0,0,0,2.61,3.91A85.72,85.72,0,0,0,143.36,200Zm9.51-12.8c.24-.55.47-1.1.67-1.66.1-.28.19-.57.28-.85.5,0,1,0,1.54-.08C154.51,185.44,153.68,186.31,152.87,187.19Zm14.85-21.68a7.84,7.84,0,0,0,5.18-1.71,21.13,21.13,0,0,0,1,8.14,61.93,61.93,0,0,0-11.18,6.38,4.26,4.26,0,0,0-1.7-2.89c-2.79-2.16-6-.67-8.94,1.67l-.14.12-.19-.12a4.91,4.91,0,0,0-.62-.28l.24-.5a121.82,121.82,0,0,1,7.33-12.74A22.68,22.68,0,0,0,167.72,165.51Z" style="fill:#fff"></path></g><path d="M103.9,312.79c10,26.14,38.88,39.38,38.88,39.38s12.57-29.15,2.53-55.28-38.88-39.38-38.88-39.38S93.86,286.65,103.9,312.79Z" style="fill:#92E3A9"></path><path d="M103.9,312.79c10,26.14,38.88,39.38,38.88,39.38s12.57-29.15,2.53-55.28-38.88-39.38-38.88-39.38S93.86,286.65,103.9,312.79Z" style="fill:#fff;opacity:0.5"></path><line x1="142.78" y1="352.17" x2="106.43" y2="257.51" style="fill:none;stroke:#fff;stroke-linecap:round;stroke-linejoin:round;stroke-width:0.8983869999999999px"></line><line x1="119.35" y1="291.16" x2="103.87" y2="285.49" style="fill:none;stroke:#fff;stroke-linecap:round;stroke-linejoin:round;stroke-width:0.8983869999999999px"></line><line x1="125.54" y1="306.73" x2="131.91" y2="280.42" style="fill:none;stroke:#fff;stroke-linecap:round;stroke-linejoin:round;stroke-width:0.8983869999999999px"></line><line x1="128.82" y1="315.81" x2="105.84" y2="307.11" style="fill:none;stroke:#fff;stroke-linecap:round;stroke-linejoin:round;stroke-width:0.8983869999999999px"></line><line x1="133.67" y1="327.89" x2="144.8" y2="306.3" style="fill:none;stroke:#fff;stroke-linecap:round;stroke-linejoin:round;stroke-width:0.8983869999999999px"></line><line x1="137.7" y1="338.38" x2="120.42" y2="332.98" style="fill:none;stroke:#fff;stroke-linecap:round;stroke-linejoin:round;stroke-width:0.8983869999999999px"></line><path d="M105,358.61c14.41,7.48,32,2.12,32,2.12s-5.76-17.47-20.17-25-32-2.12-32-2.12S90.62,351.13,105,358.61Z" style="fill:#92E3A9"></path><path d="M105,358.61c14.41,7.48,32,2.12,32,2.12s-5.76-17.47-20.17-25-32-2.12-32-2.12S90.62,351.13,105,358.61Z" style="fill:#fff;opacity:0.5"></path><line x1="137.05" y1="360.73" x2="84.87" y2="333.66" style="fill:none;stroke:#fff;stroke-linecap:round;stroke-linejoin:round;stroke-width:0.8983869999999999px"></line><line x1="103.41" y1="343.28" x2="94.52" y2="346.78" style="fill:none;stroke:#fff;stroke-linecap:round;stroke-linejoin:round;stroke-width:0.8983869999999999px"></line><line x1="112.09" y1="347.65" x2="104.73" y2="333.79" style="fill:none;stroke:#fff;stroke-linecap:round;stroke-linejoin:round;stroke-width:0.8983869999999999px"></line><line x1="117.01" y1="350.34" x2="103.69" y2="355.4" style="fill:none;stroke:#fff;stroke-linecap:round;stroke-linejoin:round;stroke-width:0.8983869999999999px"></line><line x1="123.76" y1="353.71" x2="120.28" y2="340.06" style="fill:none;stroke:#fff;stroke-linecap:round;stroke-linejoin:round;stroke-width:0.8983869999999999px"></line><line x1="129.54" y1="356.71" x2="119.97" y2="361.01" style="fill:none;stroke:#fff;stroke-linecap:round;stroke-linejoin:round;stroke-width:0.8983869999999999px"></line><path d="M151.52,322c-6.38,14.93.28,32.09.28,32.09s17-7.05,23.37-22-.27-32.08-.27-32.08S157.91,307.09,151.52,322Z" style="fill:#92E3A9"></path><path d="M151.52,322c-6.38,14.93.28,32.09.28,32.09s17-7.05,23.37-22-.27-32.08-.27-32.08S157.91,307.09,151.52,322Z" style="fill:#fff;opacity:0.5"></path><line x1="151.8" y1="354.11" x2="174.9" y2="300.05" style="fill:none;stroke:#fff;stroke-linecap:round;stroke-linejoin:round;stroke-width:0.8983869999999999px"></line><line x1="166.69" y1="319.26" x2="162.54" y2="310.65" style="fill:none;stroke:#fff;stroke-linecap:round;stroke-linejoin:round;stroke-width:0.8983869999999999px"></line><line x1="162.98" y1="328.24" x2="176.25" y2="319.87" style="fill:none;stroke:#fff;stroke-linecap:round;stroke-linejoin:round;stroke-width:0.8983869999999999px"></line><line x1="160.67" y1="333.34" x2="154.62" y2="320.44" style="fill:none;stroke:#fff;stroke-linecap:round;stroke-linejoin:round;stroke-width:0.8983869999999999px"></line><line x1="157.81" y1="340.33" x2="171.16" y2="335.84" style="fill:none;stroke:#fff;stroke-linecap:round;stroke-linejoin:round;stroke-width:0.8983869999999999px"></line><line x1="155.25" y1="346.32" x2="150.24" y2="337.09" style="fill:none;stroke:#fff;stroke-linecap:round;stroke-linejoin:round;stroke-width:0.8983869999999999px"></line></g><g id="Character--inject-1"><path d="M361.57,222.59c4.75-3.42,9.88-7.47,10.71-13.26,1.2-8.38-7.14-15.19-8.44-23.55-1-6.53,2.4-13,2.19-19.59s-4.14-12.72-8.86-17.44c-14.49-14.49-38-19-56.86-10.94-5.38,2.31-10.49,5.66-13.86,10.46A29.09,29.09,0,0,0,281.63,165c0,2.3.19,4.66-.51,6.85-1.26,3.95-5.21,6.49-9.23,7.51s-8.22.82-12.35,1.13c-6.84.5-13.77,2.53-19,7S232,199,233.38,205.69c1,5,4.33,9.26,6.08,14.07,1.11,3.05,1.58,7.36-.1,10.38-2.61,4.69-8,3-12.4,3.1a76.82,76.82,0,0,0-10.28.78c-6.41,1-12.73,3.14-17.7,7.43-9.7,8.38-11.88,23.15-8.16,35.41A47.24,47.24,0,0,0,223,308.11c19.63,5.36,64.16,24,81.46,13.26,7.44-4.61,7.14-12.75,15.6-15,8.15-2.17.67-25.15,9.09-25.48a97.1,97.1,0,0,0,32.76-7.12c6-2.45,12.22-6,14.64-12,1.47-3.65,1.33-7.76.67-11.64a46.68,46.68,0,0,0-15.67-27.49Z" style="fill:#2e353a;stroke:#2e353a;stroke-linecap:round;stroke-linejoin:round"></path><path d="M243.55,210.47A14.35,14.35,0,0,0,241,221.56" style="fill:none;stroke:#fff;stroke-linecap:round;stroke-linejoin:round"></path><path d="M316.19,167.85s.89-6.27-7.68-6.27-12,6.51-20.56,23-10.63,19.2-26.74,19.2a29.24,29.24,0,0,0-11,1.87" style="fill:none;stroke:#fff;stroke-linecap:round;stroke-linejoin:round"></path><path d="M193.33,277.2a15.21,15.21,0,0,1,3.44-13.14c8.23-9.6,35.31.34,41.82-4.45s5.48-17.14,8.91-28.45,19.2-6.17,31.88-16.46,16.45-36,16.45-36,3.09-15.42,11.31-16.79" style="fill:none;stroke:#fff;stroke-linecap:round;stroke-linejoin:round"></path><path d="M196.43,285a18.8,18.8,0,0,1-1.57-2.91" style="fill:none;stroke:#fff;stroke-linecap:round;stroke-linejoin:round"></path><path d="M298.92,146.49S313,139,320.17,144.44s2.4,19.88,2.4,19.88" style="fill:none;stroke:#fff;stroke-linecap:round;stroke-linejoin:round"></path><path d="M323.25,141s8.78,4.85,4.11,15.42" style="fill:none;stroke:#fff;stroke-linecap:round;stroke-linejoin:round"></path><path d="M353.24,152a20.38,20.38,0,0,1,6.34,3.11c8.57,6.17-.68,16.8-2.05,26.05s7.54,11.66,11,21.94-3.09,11.65-3.09,11.65" style="fill:none;stroke:#fff;stroke-linecap:round;stroke-linejoin:round"></path><path d="M342.79,152a16.12,16.12,0,0,1,5-.77" style="fill:none;stroke:#fff;stroke-linecap:round;stroke-linejoin:round"></path><path d="M338.68,172.54s2.47,3.88,7.54,1.72,7.88-6.86,11-4.11" style="fill:none;stroke:#fff;stroke-linecap:round;stroke-linejoin:round"></path><path d="M399.74,341.69c-2.93-16.21-16.64-29.32-21.23-33.32-3.38-7.87-4.57-16.84-.23-30.4,5.13-16,19.25-32.39,8.78-48.29-6.91-10.48-18.11-12-29.12-13.91-16.29-2.91-13.3-12.8-26.75-9,0,0-10.77,6.43-18.32,6.41-9.76,0-21-.89-26.8,5.2s-9,17.93-10.24,26.25-16.65,43.23-19.86,49,12.49,12.17,17,7.68,17.93-41,19.86-44.82,1.28-10.25,4.8-7-4.48,28.18.32,34.58,15.27,7.78,16.55,11,6.08,10.57,5.76,18.89-6.3,7.6-6.3,7.6,14.76,3.84,29.23,7.13a27.41,27.41,0,0,0-3,7.59c-4.16,18.89-6.72,49.63,11.21,52.83s27.86-.32,38.1-8S403.26,361.22,399.74,341.69Z" style="fill:#fff"></path><g style="clip-path:url(#clip-path--inject-1)"><path d="M334.9,222.25c14.49,4.29,26.71.43,39.54-2.56-5.15-2-10.85-2.92-16.5-3.92-16.29-2.91-13.3-12.8-26.75-9,0,0-10.77,6.43-18.32,6.41-9.76,0-21-.89-26.8,5.2s-9,17.93-10.24,26.25a53.43,53.43,0,0,1-2.33,7.94c4.85-3.59,11.73-8.52,20.4-14.36" style="fill:#92E3A9;opacity:0.5;mix-blend-mode:multiply"></path></g><path d="M399.74,341.69c-2.93-16.21-16.64-29.32-21.23-33.32-3.38-7.87-4.57-16.84-.23-30.4,5.13-16,19.25-32.39,8.78-48.29-6.91-10.48-18.11-12-29.12-13.91-16.29-2.91-13.3-12.8-26.75-9,0,0-10.77,6.43-18.32,6.41-9.76,0-21-.89-26.8,5.2s-9,17.93-10.24,26.25-16.65,43.23-19.86,49,12.49,12.17,17,7.68,17.93-41,19.86-44.82,1.28-10.25,4.8-7-4.48,28.18.32,34.58,15.27,7.78,16.55,11,6.08,10.57,5.76,18.89-6.3,7.6-6.3,7.6,14.76,3.84,29.23,7.13a27.41,27.41,0,0,0-3,7.59c-4.16,18.89-6.72,49.63,11.21,52.83s27.86-.32,38.1-8S403.26,361.22,399.74,341.69Z" style="fill:none;stroke:#2e353a;stroke-linecap:round;stroke-linejoin:round"></path><path d="M325.15,259.25c.35-.88.74-1.78,1.18-2.69" style="fill:none;stroke:#2e353a;stroke-linecap:round;stroke-linejoin:round;stroke-width:0.8838619999999999px"></path><path d="M323.83,277.63s-2.2-6.34.26-15.19" style="fill:none;stroke:#2e353a;stroke-linecap:round;stroke-linejoin:round;stroke-width:0.8838619999999999px"></path><path d="M262.38,293a22.86,22.86,0,0,0-15.06.16c-13.94,4.79-20.84,4.27-33.09,2.59-12.73-1.74-2.76,13.26,1.4,15.5s20.81,3.84,28.82,6.4,19.21,4.17,25.61-6.72,4.49-16.33,3.2-16.33" style="fill:#fff;stroke:#2e353a;stroke-linecap:round;stroke-linejoin:round"></path><path d="M399.74,341.69c-2.93-16.21-16.64-29.32-21.23-33.32-3.38-7.87-4.57-16.84-.23-30.4l.12-.37c-10.2-5.85-19.76-15.79-20.17-26.35-.44-11.61,3.45-26.06,6.06-34.34-2.1-.41-4.23-.77-6.35-1.14-.61-.11-1.18-.23-1.73-.36-3,12.08-10.26,40.48-13.64,47.51-4.34,9-18.67,12.33-32,7.33s-2.34-30,.66-42a117.89,117.89,0,0,1,5.12-15.4c-.58.12-1.16.21-1.73.27h-.08a16,16,0,0,1-1.67.09l-3,0h0c-3.55,10.05-10,28.89-11.68,37.34h0c.92,2.92-.31,10-1.16,17l-.12,1c0,.2,0,.4-.07.6s-.07.68-.11,1c0,.19,0,.38-.05.57,0,.36-.07.72-.1,1.08,0,.16,0,.32,0,.48-.05.51-.08,1-.11,1.51,0,0,0,.08,0,.12,0,.38,0,.75-.05,1.12a2.72,2.72,0,0,0,0,.28c0,.16,0,.32,0,.47s0,.31,0,.46v.36c0,.27,0,.54,0,.8s0,.27,0,.4a2.83,2.83,0,0,0,0,.29c0,.14,0,.29,0,.43s0,.27,0,.41,0,.2,0,.31l0,.34c0,.13,0,.27.05.4a.5.5,0,0,0,0,.12c0,.16,0,.32.07.47s0,.26.07.39.08.37.12.54.06.25.09.36.08.23.11.34l.06.17c0,.1.07.21.11.31a4.31,4.31,0,0,0,.22.49c0,.08.07.16.11.23a4,4,0,0,0,.4.63c4.8,6.41,15.27,7.78,16.55,11s6.08,10.57,5.76,18.89-6.3,7.6-6.3,7.6,14.76,3.84,29.23,7.13a27.41,27.41,0,0,0-3,7.59c-4.16,18.89-6.72,49.63,11.21,52.83s27.86-.32,38.1-8S403.26,361.22,399.74,341.69Z" style="fill:#92E3A9"></path><g style="clip-path:url(#clip-path-2--inject-1)"><path d="M351.39,389.07c17.93,3.21,27.86-.32,38.1-8a27,27,0,0,0,8.76-10.9c-9.67,2.81-25.18,4.52-46.37-3a156.89,156.89,0,0,1-14.71-6.1C337.1,374.74,340.37,387.11,351.39,389.07Z" style="opacity:0.1;mix-blend-mode:multiply"></path></g><path d="M399.74,341.69c-2.93-16.21-16.64-29.32-21.23-33.32-3.38-7.87-4.57-16.84-.23-30.4l.12-.37c-10.2-5.85-19.76-15.79-20.17-26.35-.44-11.61,3.45-26.06,6.06-34.34-2.1-.41-4.23-.77-6.35-1.14-.61-.11-1.18-.23-1.73-.36-3,12.08-10.26,40.48-13.64,47.51-4.34,9-18.67,12.33-32,7.33s-2.34-30,.66-42a117.89,117.89,0,0,1,5.12-15.4c-.58.12-1.16.21-1.73.27h-.08a16,16,0,0,1-1.67.09l-3,0h0c-3.55,10.05-10,28.89-11.68,37.34h0c.92,2.92-.31,10-1.16,17l-.12,1c0,.2,0,.4-.07.6s-.07.68-.11,1c0,.19,0,.38-.05.57,0,.36-.07.72-.1,1.08,0,.16,0,.32,0,.48-.05.51-.08,1-.11,1.51,0,0,0,.08,0,.12,0,.38,0,.75-.05,1.12a2.72,2.72,0,0,0,0,.28c0,.16,0,.32,0,.47s0,.31,0,.46v.36c0,.27,0,.54,0,.8s0,.27,0,.4a2.83,2.83,0,0,0,0,.29c0,.14,0,.29,0,.43s0,.27,0,.41,0,.2,0,.31l0,.34c0,.13,0,.27.05.4a.5.5,0,0,0,0,.12c0,.16,0,.32.07.47s0,.26.07.39.08.37.12.54.06.25.09.36.08.23.11.34l.06.17c0,.1.07.21.11.31a4.31,4.31,0,0,0,.22.49c0,.08.07.16.11.23a4,4,0,0,0,.4.63c4.8,6.41,15.27,7.78,16.55,11s6.08,10.57,5.76,18.89-6.3,7.6-6.3,7.6,14.76,3.84,29.23,7.13a27.41,27.41,0,0,0-3,7.59c-4.16,18.89-6.72,49.63,11.21,52.83s27.86-.32,38.1-8S403.26,361.22,399.74,341.69Z" style="fill:none;stroke:#2e353a;stroke-linecap:round;stroke-linejoin:round"></path><path d="M371.88,330.48s11.69,1.44,17,8.77" style="fill:none;stroke:#2e353a;stroke-linecap:round;stroke-linejoin:round;stroke-width:0.8838619999999999px"></path><path d="M380.9,330.59s8.67,4,14,10.66" style="fill:none;stroke:#2e353a;stroke-linecap:round;stroke-linejoin:round;stroke-width:0.8838619999999999px"></path><path d="M380.85,310.51c-.91-.87-1.71-1.59-2.34-2.14a36.37,36.37,0,0,1-2.55-20.6,59.91,59.91,0,0,1-9.38,4c-16,5.11-29.39-2.56-39.62-7-6.36-2.78-18.66-.62-27,1.42,5.23,4.62,13.43,6,14.55,8.83,1.28,3.2,6.08,10.57,5.76,18.89s-6.3,7.6-6.3,7.6,14.76,3.84,29.23,7.13L343,329c7.35-.06,14.87-1.14,21-3.94C374.41,320.32,377.36,313.48,380.85,310.51Z" style="opacity:0.1;mix-blend-mode:multiply"></path><path d="M351.65,217.33s-3.67-6-5.5-20.62S320,200.84,320,200.84s1.38,10.07,3.67,16.49" style="fill:#fff;stroke:#2e353a;stroke-linecap:round;stroke-linejoin:round"></path><path d="M351.65,217.33s-3.67-6-5.5-20.62S320,200.84,320,200.84s1.38,10.07,3.67,16.49" style="fill:#92E3A9;opacity:0.5;mix-blend-mode:multiply"></path><path d="M347.32,179.46s2.54-9.91,4-7.36.56,11.6-.85,13.87-2.26,2.54-2.26,2.54,0,9.06-1.7,13.3-7.93,14.15-11.89,16.42-8.49-.28-16.69-6.79-10.76-18.12-13-21.51-1.13-15,1.13-18.4,8.49-6.22,10.19-3.68,2.54,1.14,6.51-.84,7.64-3.12,11,3.39S343.35,180.87,347.32,179.46Z" style="fill:#fff"></path><g style="clip-path:url(#clip-path-3--inject-1)"><path d="M341.9,198.25c1.5,9.5-3,16.5-8.5,18s-12.5-4-17-11.5-4.5-22.5-4.5-28c0-4.26,3.89-6.71,5.65-7.6a3,3,0,0,1-1.36-1.3c-1.7-2.54-7.93.29-10.19,3.68s-3.4,15-1.13,18.4,4.81,15,13,21.51,12.73,9.05,16.69,6.79,10.19-12.17,11.89-16.42,1.7-13.3,1.7-13.3.84-.28,2.26-2.54,2.26-11.32.85-13.87-4,7.36-4,7.36c-4,1.41-10.19-2.55-13.59-9.06A29.36,29.36,0,0,0,330,165c-4.85,0-7.3,2-7.3,2a136.58,136.58,0,0,1,11.7,7.74C338.9,178.25,340.4,188.75,341.9,198.25Z" style="fill:#92E3A9;opacity:0.5;mix-blend-mode:multiply"></path></g><path d="M347.32,179.46s2.54-9.91,4-7.36.56,11.6-.85,13.87-2.26,2.54-2.26,2.54,0,9.06-1.7,13.3-7.93,14.15-11.89,16.42-8.49-.28-16.69-6.79-10.76-18.12-13-21.51-1.13-15,1.13-18.4,8.49-6.22,10.19-3.68,2.54,1.14,6.51-.84,7.64-3.12,11,3.39S343.35,180.87,347.32,179.46Z" style="fill:none;stroke:#2e353a;stroke-linecap:round;stroke-linejoin:round;stroke-width:0.8838619999999999px"></path><path d="M324.73,185.78s1.26,7.79,1.51,9.8,1.26-5.27,1.26-5.27l5.52-3s-3.77.25-4-2,2-4.52,2-4.52S324.73,183,324.73,185.78Z" style="fill:#92E3A9;opacity:0.5;mix-blend-mode:multiply"></path><path d="M318.73,189.36s-5.09,3.12-9.62,1.13" style="fill:none;stroke:#2e353a;stroke-linecap:round;stroke-linejoin:round;stroke-width:0.8838619999999999px"></path><path d="M327.71,187.16s5.74,1.07,8.57-2.61" style="fill:none;stroke:#2e353a;stroke-linecap:round;stroke-linejoin:round;stroke-width:0.8838619999999999px"></path><path d="M317.32,184.55a58.28,58.28,0,0,0-8.49-.28c-3.11.28-2.83,1.7-2.83,1.7" style="fill:none;stroke:#2e353a;stroke-linecap:round;stroke-linejoin:round;stroke-width:0.8838619999999999px"></path><path d="M325.24,183.42s6.23-5.38,8.49-5.38a4.47,4.47,0,0,1,3.4,1.42" style="fill:none;stroke:#2e353a;stroke-linecap:round;stroke-linejoin:round;stroke-width:0.8838619999999999px"></path><path d="M328.64,201.81s-2,2.27-5.38.29" style="fill:none;stroke:#2e353a;stroke-linecap:round;stroke-linejoin:round;stroke-width:0.8838619999999999px"></path><path d="M321.85,207.47s5.94,1.7,10.47-1.69,2.83-2.55,2.83-2.55" style="fill:none;stroke:#2e353a;stroke-linecap:round;stroke-linejoin:round;stroke-width:0.8838619999999999px"></path><path d="M254.19,330.24s.7.75,2,2.06c9.8,10,53.68,52.66,85.07,51.64,35.52-1.16-4.89-61-19.53-64.27s-63.46-13-72.41-4.07S254.19,330.24,254.19,330.24Z" style="fill:#fff"></path><g style="clip-path:url(#clip-path-4--inject-1)"><path d="M254.19,330.24s.7.75,2,2.06c9.8,10,53.68,52.66,85.07,51.64,35.52-1.16-4.89-61-19.53-64.27s-63.46-13-72.41-4.07S254.19,330.24,254.19,330.24Z" style="fill:#92E3A9;opacity:0.5;mix-blend-mode:multiply"></path></g><path d="M254.19,330.24s.7.75,2,2.06c9.8,10,53.68,52.66,85.07,51.64,35.52-1.16-4.89-61-19.53-64.27s-63.46-13-72.41-4.07S254.19,330.24,254.19,330.24Z" style="fill:none;stroke:#2e353a;stroke-linecap:round;stroke-linejoin:round"></path><path d="M258.9,317.25s-35.33-3.33-41.67,3.67-5.66,13.67.67,20.67,40.33,27.66,54,37.33,18,13.33,29.67,19,29.33,7.33,35,11.67,6.33,2,6.66-2.34-2.66-9.66-8.66-14.66-8-4-9.34-8.34-4-7.33-7-7.33-11,2.33-14.66-.33-15.34-10.67-20-18-12.34-21.34-12.34-21.34Z" style="fill:#fff"></path><g style="clip-path:url(#clip-path-5--inject-1)"><path d="M334.57,392.59c-6-5-8-4-9.34-8.34s-4-7.33-7-7.33-11,2.33-14.66-.33-15.34-10.67-20-18-12.34-21.34-12.34-21.34l-5-8c-11.66-.69-21.38-1.16-21.85-1-.66.22-6.92,13-12.35,24.29,9,6.16,20.33,13.42,29.46,19.43,3.42-3.55,9.54-9.31,13.61-9.86,5.9-.78,20.08,13.79,28.35,18.12s14.18,7.48,20.08,12.21c5.33,4.26-1.82,7.87-6.17,10.85,8.11,2.11,15.78,3.75,19.17,6.34,5.66,4.33,6.33,2,6.66-2.34S340.57,397.59,334.57,392.59Z" style="fill:#92E3A9;opacity:0.5;mix-blend-mode:multiply"></path></g><path d="M258.9,317.25s-35.33-3.33-41.67,3.67-5.66,13.67.67,20.67,40.33,27.66,54,37.33,18,13.33,29.67,19,29.33,7.33,35,11.67,6.33,2,6.66-2.34-2.66-9.66-8.66-14.66-8-4-9.34-8.34-4-7.33-7-7.33-11,2.33-14.66-.33-15.34-10.67-20-18-12.34-21.34-12.34-21.34Z" style="fill:none;stroke:#2e353a;stroke-linecap:round;stroke-linejoin:round"></path><path d="M336.11,404.86s2.88,1.27,2.88,2.87,2.4,2.72,4,.64" style="fill:none;stroke:#2e353a;stroke-linecap:round;stroke-linejoin:round"></path><path d="M360.87,390.42a18.24,18.24,0,0,0,15.9-7.64,31.6,31.6,0,0,0,5.36-13.24c2.24-14.08-1.28-33.62-10.25-39.06s-57.31-17.29-73.64-19.21-34.9,1-41.95,4.8-35.54,25-54.43,33.94-60.11,23.63-72.92,28.75S100.45,390,91.48,391.57s-10.88-1.28-8.64,3.52,12.12,4,13.72,4,3.57,2.1,10.93,4.35,15.37,1.28,21.77,1.28,22.42-2.24,27.22-2.24,9.6-1,9.93-3.85-1-16.33,10.48-18.57,42.7-2.29,58.68-4.12c23.33-2.67,32.89-30.07,42.5-30.71s36.82,33.3,56.35,40A97.53,97.53,0,0,0,360.87,390.42Z" style="fill:#fff"></path><g style="clip-path:url(#clip-path-6--inject-1)"><path d="M376.77,382.78a31.63,31.63,0,0,0,4.71-10.23,86.21,86.21,0,0,1-29.6-5.34c-32.59-11.5-60.7-35.78-74.12-35.78s-15.33,21.08-39.62,30-54.31,7.67-67.73,12.78S157.63,387.66,146.77,396a56.29,56.29,0,0,1-17.1,8.73c6.65-.09,22.1-2.23,26.81-2.23s9.6-1,9.93-3.85-1-16.33,10.48-18.57,42.7-2.29,58.68-4.12c23.33-2.67,32.89-30.07,42.5-30.71s36.82,33.3,56.35,40a97.53,97.53,0,0,0,26.45,5.19A18.24,18.24,0,0,0,376.77,382.78Z" style="fill:#92E3A9;opacity:0.5;mix-blend-mode:multiply"></path></g><path d="M360.87,390.42a18.24,18.24,0,0,0,15.9-7.64,31.6,31.6,0,0,0,5.36-13.24c2.24-14.08-1.28-33.62-10.25-39.06s-57.31-17.29-73.64-19.21-34.9,1-41.95,4.8-35.54,25-54.43,33.94-60.11,23.63-72.92,28.75S100.45,390,91.48,391.57s-10.88-1.28-8.64,3.52,12.12,4,13.72,4,3.57,2.1,10.93,4.35,15.37,1.28,21.77,1.28,22.42-2.24,27.22-2.24,9.6-1,9.93-3.85-1-16.33,10.48-18.57,42.7-2.29,58.68-4.12c23.33-2.67,32.89-30.07,42.5-30.71s36.82,33.3,56.35,40A97.53,97.53,0,0,0,360.87,390.42Z" style="fill:none;stroke:#2e353a;stroke-linecap:round;stroke-linejoin:round"></path><path d="M97.57,399.25s-3.77-3.78-.84-5c2.77-1.14,8,0,8,0l4-1.5" style="fill:none;stroke:#2e353a;stroke-linecap:round;stroke-linejoin:round"></path><path d="M103.73,402.25s-1.5-4,3-4a15.21,15.21,0,0,0,8-2.5" style="fill:none;stroke:#2e353a;stroke-linecap:round;stroke-linejoin:round"></path><path d="M112.23,404.25s0-3.5,2.5-4a55.28,55.28,0,0,0,6.5-2" style="fill:none;stroke:#2e353a;stroke-linecap:round;stroke-linejoin:round"></path><path d="M121.17,404.59a5.71,5.71,0,0,1,3.61-3.18,24.81,24.81,0,0,0,4.87-2.12" style="fill:none;stroke:#2e353a;stroke-linecap:round;stroke-linejoin:round"></path><path d="M221.57,324.25s3,3,10.66,3,36.67-6.33,36.67-6.33l-16-8.67s-22,3.34-28.33,4.67S217.23,320.59,221.57,324.25Z" style="fill:#92E3A9;stroke:#2e353a;stroke-linecap:round;stroke-linejoin:round"></path><path d="M366.12,247.87s-7.37,29.46-8,37.78-2.56,11.53-2.56,11.53-25.93,2.56-41,1.28-28.5-3.84-34.26-2.24-17,6.08-21.13,9.29-9,12.8-8,14.08,4.48-2.24,4.48-2.24-.64,4.81,2.25,3.53,5.76-8.33,5.76-8.33l2.88-3.52s-7,10.24-3.2,10.24,8-8.32,9.28-9.6a14.3,14.3,0,0,1,3.21-2.24s-2.89,6.08-3.53,8-1.6,2.88,0,2.88,3.85-4.8,5.77-6.72,2.24-2.24,6.08-2.24,10.89-3.2,10.89-3.2,18.25,6.72,28.49,9.92,36.82,7.37,40.67,7.37,6.08-1.6,9-7.69,21-45.52,19.21-66c-1.48-17.1-4.94-21.37-9.77-25.14" style="fill:#fff"></path><g style="clip-path:url(#clip-path-7--inject-1)"><path d="M392.37,249.79a70.28,70.28,0,0,0-2.43-14.34,59.93,59.93,0,0,1-.21,21.48c-3.15,15.36-18.11,44.5-22.84,50.8s-22.84,6.3-36.23,3.54-30.32-10.63-37.8-7.48-13,2-15.36,6.3a41.68,41.68,0,0,0-2.31,5.4,30.9,30.9,0,0,1,2.88-3.9c1.92-1.92,2.24-2.24,6.08-2.24s10.89-3.2,10.89-3.2,18.25,6.72,28.49,9.92,36.82,7.37,40.67,7.37,6.08-1.6,9-7.69S394.14,270.23,392.37,249.79Z" style="fill:#92E3A9;opacity:0.5;mix-blend-mode:multiply"></path></g><path d="M366.12,247.87s-7.37,29.46-8,37.78-2.56,11.53-2.56,11.53-25.93,2.56-41,1.28-28.5-3.84-34.26-2.24-17,6.08-21.13,9.29-9,12.8-8,14.08,4.48-2.24,4.48-2.24-.64,4.81,2.25,3.53,5.76-8.33,5.76-8.33l2.88-3.52s-7,10.24-3.2,10.24,8-8.32,9.28-9.6a14.3,14.3,0,0,1,3.21-2.24s-2.89,6.08-3.53,8-1.6,2.88,0,2.88,3.85-4.8,5.77-6.72,2.24-2.24,6.08-2.24,10.89-3.2,10.89-3.2,18.25,6.72,28.49,9.92,36.82,7.37,40.67,7.37,6.08-1.6,9-7.69,21-45.52,19.21-66c-1.48-17.1-4.94-21.37-9.77-25.14" style="fill:none;stroke:#2e353a;stroke-linecap:round;stroke-linejoin:round"></path><path d="M255.65,317.35s2.92-7.75,3.67-9.25,4.13-4.31,4.13-4.31" style="fill:none;stroke:#2e353a;stroke-linecap:round;stroke-linejoin:round"></path><line x1="266.54" y1="309.03" x2="270.6" y2="303.65" style="fill:none;stroke:#2e353a;stroke-linecap:round;stroke-linejoin:round"></line><path d="M223.93,297s-13-3-16.66.7c-4.17,4.18-8.93,7.8-9.57,10S198,318,200.26,319s10.25,1.93,10.25,1.93,6.72,3.84,7.36,5.44,4.16,1.92,4.16,1.92a4.49,4.49,0,0,0,1.93-5.76c-1.61-3.85-4.81-11.85-4.81-11.85s4.81,11.21,7,11.21,2.24-2.89.32-5.77-2.24-3.84.32-7.36-.32-6.73-1.6-7.69" style="fill:#fff;stroke:#2e353a;stroke-linecap:round;stroke-linejoin:round"></path><path d="M207.75,304.73s3.56,9.56,6.75,12.56,4.88,10.5,8.44,10.5" style="fill:none;stroke:#2e353a;stroke-linecap:round;stroke-linejoin:round"></path><path d="M204.19,310s.37,4.5,3,7.12a64.65,64.65,0,0,0,5.25,4.69" style="fill:none;stroke:#2e353a;stroke-linecap:round;stroke-linejoin:round"></path><path d="M219.15,310.63a14.3,14.3,0,0,0-1.27-5.15" style="fill:none;stroke:#2e353a;stroke-linecap:round;stroke-linejoin:round"></path><path d="M199.58,308.76s-.3,6.69,1.52,8.82a6.94,6.94,0,0,0,3.65,2.43" style="fill:none;stroke:#2e353a;stroke-linecap:round;stroke-linejoin:round"></path></g></svg>