<svg xmlns="http://www.w3.org/2000/svg" viewBox="0 0 750 500"><g id="background-simple"><path d="M568.54,56.72s-102.39-29.14-179.11-10S83.76,233.52,67.14,245.23,16.59,282.11,27,365.55s69.64,102.32,116.9,102.06,390.1.19,462-16.75S716.34,297.7,713.9,236.3,650.81,78.47,568.54,56.72Z" style="fill:#92E3A9"></path><path d="M568.54,56.72s-102.39-29.14-179.11-10S83.76,233.52,67.14,245.23,16.59,282.11,27,365.55s69.64,102.32,116.9,102.06,390.1.19,462-16.75S716.34,297.7,713.9,236.3,650.81,78.47,568.54,56.72Z" style="fill:#fff;opacity:0.7000000000000001"></path></g><g id="Floor"><path d="M707.63,441.89h0l-13.13,0a.36.36,0,0,1-.37-.37.37.37,0,0,1,.37-.38h0l13.13,0a.36.36,0,0,1,.37.37A.37.37,0,0,1,707.63,441.89Z" style="fill:#263238"></path><path d="M36.37,441.9a.36.36,0,0,1-.34-.27.4.4,0,0,1,.26-.48c1.79-.56,496.67-.17,648.3,0a.37.37,0,0,1,.38.37.38.38,0,0,1-.38.38h0c-107.5-.1-643.95-.55-648.11,0Z" style="fill:#263238"></path></g><g id="Window"><g style="opacity:0.30000000000000004"><polygon points="579.2 65.36 455.64 65.36 461.78 54.1 462.66 54.58 457.32 64.36 578.53 64.36 582.23 55.11 583.15 55.48 579.2 65.36"></polygon><polygon points="579.2 76.83 455.64 76.83 461.78 65.57 462.66 66.05 457.32 75.83 578.53 75.83 582.23 66.58 583.15 66.95 579.2 76.83"></polygon><polygon points="579.2 88.3 455.64 88.3 461.78 77.05 462.66 77.52 457.32 87.3 578.53 87.3 582.23 78.06 583.15 78.43 579.2 88.3"></polygon><polygon points="579.2 99.78 455.64 99.78 461.78 88.52 462.66 89 457.32 98.78 578.53 98.78 582.23 89.53 583.15 89.9 579.2 99.78"></polygon><polygon points="579.2 111.25 455.64 111.25 461.78 99.99 462.66 100.47 457.32 110.25 578.53 110.25 582.23 101 583.15 101.37 579.2 111.25"></polygon><polygon points="579.2 122.72 455.64 122.72 461.78 111.47 462.66 111.94 457.32 121.72 578.53 121.72 582.23 112.48 583.15 112.85 579.2 122.72"></polygon><polygon points="579.2 134.2 455.64 134.2 461.78 122.94 462.66 123.42 457.32 133.2 578.53 133.2 582.23 123.95 583.15 124.32 579.2 134.2"></polygon><polygon points="579.2 145.67 455.64 145.67 461.78 134.41 462.66 134.89 457.32 144.67 578.53 144.67 582.23 135.42 583.15 135.79 579.2 145.67"></polygon><polygon points="579.2 157.14 455.64 157.14 461.78 145.89 462.66 146.37 457.32 156.14 578.53 156.14 582.23 146.9 583.15 147.27 579.2 157.14"></polygon><polygon points="579.2 168.62 455.64 168.62 461.78 157.36 462.66 157.84 457.32 167.62 578.53 167.62 582.23 158.37 583.15 158.74 579.2 168.62"></polygon><polygon points="579.2 180.09 455.64 180.09 461.78 168.83 462.66 169.31 457.32 179.09 578.53 179.09 582.23 169.84 583.15 170.22 579.2 180.09"></polygon><polygon points="579.2 191.56 455.64 191.56 461.78 180.31 462.66 180.79 457.32 190.56 578.53 190.56 582.23 181.32 583.15 181.69 579.2 191.56"></polygon><polygon points="579.2 203.04 455.64 203.04 461.78 191.78 462.66 192.26 457.32 202.04 578.53 202.04 582.23 192.79 583.15 193.16 579.2 203.04"></polygon><polygon points="579.2 214.51 455.64 214.51 461.78 203.25 462.66 203.73 457.32 213.51 578.53 213.51 582.23 204.26 583.15 204.63 579.2 214.51"></polygon><polygon points="579.2 225.98 455.64 225.98 461.78 214.73 462.66 215.21 457.32 224.98 578.53 224.98 582.23 215.74 583.15 216.11 579.2 225.98"></polygon><polygon points="709.76 65.36 586.2 65.36 592.34 54.1 593.22 54.58 587.88 64.36 709.09 64.36 712.79 55.11 713.71 55.48 709.76 65.36"></polygon><polygon points="709.76 76.83 586.2 76.83 592.34 65.57 593.22 66.05 587.88 75.83 709.09 75.83 712.79 66.58 713.71 66.95 709.76 76.83"></polygon><polygon points="709.76 88.3 586.2 88.3 592.34 77.05 593.22 77.52 587.88 87.3 709.09 87.3 712.79 78.06 713.71 78.43 709.76 88.3"></polygon><polygon points="709.76 99.78 586.2 99.78 592.34 88.52 593.22 89 587.88 98.78 709.09 98.78 712.79 89.53 713.71 89.9 709.76 99.78"></polygon><polygon points="709.76 111.25 586.2 111.25 592.34 99.99 593.22 100.47 587.88 110.25 709.09 110.25 712.79 101 713.71 101.37 709.76 111.25"></polygon><polygon points="709.76 122.72 586.2 122.72 592.34 111.47 593.22 111.94 587.88 121.72 709.09 121.72 712.79 112.48 713.71 112.85 709.76 122.72"></polygon><polygon points="709.76 134.2 586.2 134.2 592.34 122.94 593.22 123.42 587.88 133.2 709.09 133.2 712.79 123.95 713.71 124.32 709.76 134.2"></polygon><polygon points="709.76 145.67 586.2 145.67 592.34 134.41 593.22 134.89 587.88 144.67 709.09 144.67 712.79 135.42 713.71 135.79 709.76 145.67"></polygon><polygon points="709.76 157.14 586.2 157.14 592.34 145.89 593.22 146.37 587.88 156.14 709.09 156.14 712.79 146.9 713.71 147.27 709.76 157.14"></polygon><polygon points="709.76 168.62 586.2 168.62 592.34 157.36 593.22 157.84 587.88 167.62 709.09 167.62 712.79 158.37 713.71 158.74 709.76 168.62"></polygon><polygon points="709.76 180.09 586.2 180.09 592.34 168.83 593.22 169.31 587.88 179.09 709.09 179.09 712.79 169.84 713.71 170.22 709.76 180.09"></polygon><polygon points="709.76 191.56 586.2 191.56 592.34 180.31 593.22 180.79 587.88 190.56 709.09 190.56 712.79 181.32 713.71 181.69 709.76 191.56"></polygon><polygon points="709.76 203.04 586.2 203.04 592.34 191.78 593.22 192.26 587.88 202.04 709.09 202.04 712.79 192.79 713.71 193.16 709.76 203.04"></polygon><polygon points="709.76 214.51 586.2 214.51 592.34 203.25 593.22 203.73 587.88 213.51 709.09 213.51 712.79 204.26 713.71 204.63 709.76 214.51"></polygon><polygon points="709.76 225.98 586.2 225.98 592.34 214.73 593.22 215.21 587.88 224.98 709.09 224.98 712.79 215.74 713.71 216.11 709.76 225.98"></polygon></g></g><g id="Clock"><g style="opacity:0.30000000000000004"><path d="M123.31,162.62a47,47,0,1,1,47-47A47,47,0,0,1,123.31,162.62Zm0-93a46,46,0,1,0,46,46A46,46,0,0,0,123.31,69.65Z"></path><path d="M123.31,159.37a43.74,43.74,0,1,1,43.74-43.74A43.79,43.79,0,0,1,123.31,159.37Zm0-86.47a42.74,42.74,0,1,0,42.74,42.73A42.78,42.78,0,0,0,123.31,72.9Z"></path><rect x="135.58" y="112.89" width="1" height="29.76" transform="translate(-50.28 138.41) rotate(-46.46)"></rect><rect x="107.5" y="122.53" width="16.01" height="1" transform="translate(-52.97 113.29) rotate(-43.5)"></rect><path d="M123.31,118.88a3.25,3.25,0,1,1,3.25-3.25,3.14,3.14,0,0,1-.91,2.24A3.21,3.21,0,0,1,123.31,118.88Zm0-5.5a2.26,2.26,0,0,0-1.64,3.8,2.31,2.31,0,0,0,3.26,0,2.19,2.19,0,0,0,.63-1.55A2.25,2.25,0,0,0,123.31,113.38Z"></path></g></g><g id="Device"><rect x="195.05" y="248.5" width="3.21" height="50.74" transform="translate(-67.59 64.47) rotate(-15.92)" style="fill:#fff"></rect><path d="M201.73,299.33l-14.19-49.76,4-1.15,14.2,49.75Zm-13-49.07,13.65,47.83,2.12-.61-13.65-47.82Z" style="fill:#263238"></path><rect x="202.07" y="296.73" width="47.91" height="1.98" style="fill:#fff"></rect><path d="M250.48,299.21H201.57v-3h48.91Zm-47.91-1h46.91v-1H202.57Z" style="fill:#263238"></path></g><g id="Character"><path d="M290.25,442.88a2.06,2.06,0,0,1-.42,0,2.69,2.69,0,0,1-2.25-3.08C291.79,412.68,294,360,294,359.45a2.7,2.7,0,1,1,5.39.23c0,.53-2.26,53.53-6.51,80.91A2.71,2.71,0,0,1,290.25,442.88Z" style="fill:#fff"></path><path d="M290.25,443.38a4.22,4.22,0,0,1-.49,0,3.2,3.2,0,0,1-2.67-3.66c4.21-27.1,6.43-79.72,6.45-80.25a3.2,3.2,0,1,1,6.39.27c0,.53-2.24,53.38-6.52,81A3.18,3.18,0,0,1,290.25,443.38Zm6.49-86a2.2,2.2,0,0,0-2.2,2.1c0,.53-2.25,53.21-6.46,80.37a2.19,2.19,0,0,0,1.83,2.51,2.23,2.23,0,0,0,2.51-1.84c4.28-27.53,6.49-80.32,6.52-80.85a2.22,2.22,0,0,0-2.11-2.29Z" style="fill:#263238"></path><path d="M371.06,442.88a2,2,0,0,0,.42,0,2.69,2.69,0,0,0,2.25-3.08c-4.2-27.08-6.43-79.78-6.46-80.31a2.7,2.7,0,0,0-5.39.23c0,.53,2.26,53.53,6.52,80.91A2.7,2.7,0,0,0,371.06,442.88Z" style="fill:#fff"></path><path d="M371.06,443.38a3.19,3.19,0,0,1-3.16-2.71c-4.22-27.16-6.43-78.79-6.52-81a3.2,3.2,0,1,1,6.39-.27c0,.53,2.25,53.15,6.46,80.25a3.21,3.21,0,0,1-2.67,3.66A4.38,4.38,0,0,1,371.06,443.38Zm-6.49-86h-.09a2.2,2.2,0,0,0-2.1,2.29c.09,2.18,2.3,53.75,6.51,80.85a2.2,2.2,0,1,0,4.35-.67c-4.22-27.16-6.44-79.84-6.47-80.37A2.19,2.19,0,0,0,364.57,357.37Z" style="fill:#263238"></path><path d="M375.69,264.28S372,337,368.27,353.4H290.73v8.49h79.39l3.45-4.78s6.9-66.84,6.9-92.83Z" style="fill:#fff"></path><path d="M370.12,362.38H290.73a.5.5,0,0,1-.5-.5V353.4a.5.5,0,0,1,.5-.5h77.13c3.64-16.95,7.3-87.93,7.33-88.65a.51.51,0,0,1,.5-.47h4.78a.5.5,0,0,1,.5.5c0,25.72-6.83,92.21-6.9,92.88a.5.5,0,0,1-.09.24l-3.45,4.78A.51.51,0,0,1,370.12,362.38Zm-78.89-1h78.64l3.22-4.45c.34-3.35,6.79-66.69,6.88-92.15h-3.8c-.33,6.32-3.89,73.13-7.42,88.73a.49.49,0,0,1-.48.39h-77Z" style="fill:#263238"></path><path d="M304,318.38s-54.4-5.64-57.1-4.17,25,105.38,25,105.38l5.64.49s-2.95,6.86-3.44,7.84-8.33,5.64-14.45,6.86S248.1,438,251,439.2s23.28,2,25.49,1.71,13-.73,13.72-.73,4.9.49,5.39-1.47a46.25,46.25,0,0,0,.49-8.34c0-2.2-1.47-8.08-1.47-8.08l-2.21-15.2-11.51-66.17s20.34,7.85,27.44,9.32a48.88,48.88,0,0,0,12.75,1l-2.45-35.05Z" style="fill:#8a8a8a"></path><path d="M274.82,441.46c-5.59,0-21.33-.7-24-1.8-.81-.34-1.19-.79-1.13-1.34.18-1.83,6.21-3.31,9.8-4,6.09-1.21,13.64-5.81,14.11-6.59s2.4-5.46,3.14-7.18l-4.94-.43a.5.5,0,0,1-.44-.37c-.07-.26-7-26.28-13.52-52.15-13.26-52.69-12-53.41-11.24-53.8,2.74-1.5,51.45,3.49,57.33,4.1l14.64-2.19a.5.5,0,0,1,.39.1.52.52,0,0,1,.19.36l2.45,35a.5.5,0,0,1-.46.53,49.27,49.27,0,0,1-12.89-1c-6.33-1.31-22.77-7.52-26.7-9L293,407l2.2,15.2a52.5,52.5,0,0,1,1.48,8.16,46.78,46.78,0,0,1-.5,8.46c-.53,2.12-4,1.94-5.5,1.86h-.38c-.67,0-11.42.48-13.67.73C276.28,441.44,275.67,441.46,274.82,441.46Zm-24.11-3a1.28,1.28,0,0,0,.52.31c2.85,1.19,23.07,1.93,25.24,1.69s13.1-.74,13.78-.74h.43c1,.06,4.14.22,4.48-1.11a46.35,46.35,0,0,0,.47-8.21c0-2.12-1.44-7.9-1.45-8L292,407.16,280.44,341a.49.49,0,0,1,.18-.47.48.48,0,0,1,.5-.08c.2.08,20.38,7.84,27.37,9.29a50,50,0,0,0,12.1,1l-2.37-34-14.17,2.12h-.13c-21.46-2.22-54-5.15-56.71-4.26-1,3.86,14.34,64.29,25,104.51l5.29.46a.52.52,0,0,1,.38.24.47.47,0,0,1,0,.46c-.12.28-2.95,6.88-3.44,7.87-.59,1.19-8.66,5.9-14.81,7.13-6,1.2-8.91,2.58-9,3.14Z" style="fill:#263238"></path><path d="M303,316.76s-54.17-7.21-69.85-6,13,48.52,21.07,62,27.45,43.38,27.45,43.38l13-5.64,3.43,5.39s-6.13,14.71-7.6,16.67-7.35,3.92-8.82,4.66-.73,2.69,1.72,2.94,17.64.24,19.85-.25,12.5-15.19,16.66-17.4,2.45-6.62.25-9.31-10.3-6.62-10.3-6.62l-6.12-4.41S280.45,363.72,279,361.26s-9.07-22.05-9.07-22.05,40.19,14.46,59.3,14.46,34.31-3.92,36.77-8.34S367.5,315,367.5,315l-61.08-2.53Z" style="fill:#263238"></path><path d="M291.26,440.84c-3.64,0-6.93-.07-7.92-.17-1.77-.17-2.73-1.15-2.9-2.05a1.7,1.7,0,0,1,1-1.83c.37-.19,1-.43,1.73-.74,2.2-.9,5.88-2.39,6.91-3.77s5.3-11.18,7.44-16.32l-3.06-4.81-12.6,5.47a.51.51,0,0,1-.62-.19c-.19-.3-19.46-30.06-27.45-43.39l-.42-.7c-12.75-21.23-29.16-50.49-24.56-59.42a4.92,4.92,0,0,1,4.29-2.64c15-1.17,65.44,5.39,69.67,6l3.25-4.05a.52.52,0,0,1,.41-.18l61.09,2.53a.48.48,0,0,1,.47.48c0,1.06.9,26.09-1.59,30.57-2.72,4.89-18.71,8.59-37.2,8.59-17.27,0-52-11.88-58.44-14.13,1.58,4,7.39,18.9,8.63,21,1.42,2.36,23.46,38.78,24.7,40.83l6,4.36c.26.11,8.14,3.95,10.38,6.7,1.85,2.26,2.71,4.76,2.32,6.71a4.86,4.86,0,0,1-2.71,3.36c-2.13,1.13-6.08,5.84-9.56,10-3.86,4.59-6.09,7.21-7.23,7.46A108.28,108.28,0,0,1,291.26,440.84Zm3.4-30.82a.5.5,0,0,1,.42.23l3.43,5.4a.47.47,0,0,1,0,.46c-.25.6-6.17,14.78-7.66,16.77-1.2,1.6-4.89,3.1-7.33,4.09-.71.29-1.33.54-1.67.71a.73.73,0,0,0-.46.76c.09.51.76,1.11,2,1.24,2.51.25,17.61.23,19.69-.24.87-.19,4-3.87,6.68-7.12,3.72-4.43,7.56-9,9.86-10.23a3.92,3.92,0,0,0,2.2-2.67c.33-1.66-.45-3.86-2.11-5.88-2.11-2.58-10-6.45-10.12-6.49l-6.2-4.45a.4.4,0,0,1-.14-.15c-.23-.39-23.3-38.5-24.75-40.93s-8.8-21.33-9.11-22.13a.5.5,0,0,1,.64-.65c.4.14,40.33,14.43,59.13,14.43,19.93,0,34.12-4.11,36.33-8.08S367.13,319,367,315.51L306.65,313l-3.26,4.07a.5.5,0,0,1-.46.18c-.54-.07-54.29-7.17-69.74-6a3.93,3.93,0,0,0-3.48,2.09c-4.88,9.48,17.25,46.34,24.52,58.46l.42.7c7.52,12.52,25,39.58,27.21,43l12.6-5.47A.71.71,0,0,1,294.66,410Z" style="fill:#263238"></path><path d="M261.76,335.06a.46.46,0,0,1-.22-.06c-5.79-2.92-13.3-6.92-16.22-9.38a.5.5,0,1,1,.65-.76c3,2.52,11.32,6.88,16,9.25a.5.5,0,0,1-.23.95Z" style="fill:#fff"></path><path d="M267.21,337.75a.54.54,0,0,1-.21-.05l-2.63-1.28a.51.51,0,0,1-.23-.67.5.5,0,0,1,.67-.23l2.62,1.28a.5.5,0,0,1-.22.95Z" style="fill:#fff"></path><path d="M297.11,399a.52.52,0,0,1-.17,0c-.86-.31-1.84-.72-2.93-1.23a.5.5,0,1,1,.42-.9c1.06.49,2,.89,2.85,1.18a.5.5,0,0,1,.3.64A.48.48,0,0,1,297.11,399Z" style="fill:#fff"></path><path d="M289.84,395.58a.38.38,0,0,1-.23-.06c-12.67-6.89-31.32-20.24-31.51-20.37a.5.5,0,1,1,.58-.81c.19.13,18.79,13.44,31.4,20.31a.48.48,0,0,1,.2.67A.49.49,0,0,1,289.84,395.58Z" style="fill:#fff"></path><path d="M294.9,403.67a.51.51,0,0,1-.2,0c-4.88-2.2-23.54-14.71-24.34-15.24a.5.5,0,0,1,.56-.83c.2.13,19.38,13,24.19,15.15a.51.51,0,0,1,.25.67A.5.5,0,0,1,294.9,403.67Z" style="fill:#fff"></path><path d="M351.52,331.87a.52.52,0,0,1-.29-.09,35.19,35.19,0,0,0-4.08-2.43.5.5,0,1,1,.45-.89,34.27,34.27,0,0,1,4.2,2.5.5.5,0,0,1,.13.69A.52.52,0,0,1,351.52,331.87Z" style="fill:#fff"></path><path d="M343.25,327.46a.45.45,0,0,1-.2,0,148.39,148.39,0,0,0-22.52-7.08.5.5,0,0,1,.22-1,150.78,150.78,0,0,1,22.69,7.14.5.5,0,0,1-.19,1Z" style="fill:#fff"></path><path d="M359.6,335.3a.5.5,0,0,1-.4-.21C357,332,347,326.72,346.87,326.66a.5.5,0,1,1,.47-.88c.42.22,10.29,5.4,12.67,8.73a.49.49,0,0,1-.12.69A.45.45,0,0,1,359.6,335.3Z" style="fill:#fff"></path><path d="M294.72,235.31l9.82,46.6S301.27,316,303,316.76a24.27,24.27,0,0,0,5.39,1.15s41.4,1.93,48.33,1,10.21-1.54,10.78-3.85a17.77,17.77,0,0,0,.77-4.24c0-1-8.66-42.75-9-43.9s-19.25-43.14-23.1-46.41-20.49-13.06-20.49-13.06Z" style="fill:#fff"></path><path d="M349,319.65c-13.86,0-39.25-1.17-40.59-1.24a23.56,23.56,0,0,1-5.57-1.2c-.56-.24-1.41-.62-.18-18.2.57-8.1,1.33-16.21,1.41-17.08l-9.8-46.52a.48.48,0,0,1,.09-.4l20.91-27.89a.51.51,0,0,1,.66-.13c.68.4,16.71,9.84,20.55,13.11,4,3.41,23.13,46.25,23.26,46.63.51,1.52,9.08,43.11,9.08,44.06a18.24,18.24,0,0,1-.79,4.36c-.66,2.65-4.1,3.24-11.2,4.22A70.66,70.66,0,0,1,349,319.65Zm-45.68-3.32a25.22,25.22,0,0,0,5.16,1.09c.39,0,41.4,1.9,48.21,1,6.47-.9,9.87-1.46,10.37-3.48a17.46,17.46,0,0,0,.76-4.11c-.08-1.13-8.6-42.43-9-43.75-.8-2.39-19.35-43.12-23-46.18-3.45-2.93-17.51-11.29-20-12.78l-20.51,27.35L305,281.8a.76.76,0,0,1,0,.15C303.84,294.37,302.33,314.55,303.28,316.33Z" style="fill:#263238"></path><path d="M320,214.09s-8.86,1.94-10.58,2.59-24,44.69-24,44.69l9.72,35.4,37.35-46.41" style="fill:#fff"></path><path d="M295.2,297.27h-.1a.5.5,0,0,1-.38-.36L285,261.5a.5.5,0,0,1,0-.36c5.23-10.37,22.46-44.27,24.23-44.93s10.29-2.53,10.65-2.61a.5.5,0,1,1,.21,1c-.09,0-8.83,2-10.51,2.58-1.45,1.08-14.88,27-23.6,44.27l9.4,34.28L332.16,250a.5.5,0,0,1,.78.63l-37.35,46.41A.51.51,0,0,1,295.2,297.27Z" style="fill:#263238"></path><path d="M316.57,270.72a.51.51,0,0,1-.42-.23.5.5,0,0,1,.15-.69l23.32-14.9a.5.5,0,0,1,.54.84l-23.32,14.9A.53.53,0,0,1,316.57,270.72Z" style="fill:#263238"></path><path d="M332.35,272.76a.5.5,0,0,1,0-1c3.05-.06,5.5-.16,7.29-.31a.5.5,0,1,1,.08,1c-1.8.16-4.28.26-7.35.32Z" style="fill:#263238"></path><path d="M327,272.8c-6,0-11.47-.14-11.53-.14a.5.5,0,0,1-.49-.51.49.49,0,0,1,.52-.49c.06,0,6.76.18,13.49.14h0a.5.5,0,0,1,.5.49.51.51,0,0,1-.5.51Z" style="fill:#263238"></path><path d="M346.8,291.23h-.09c-.8-.15-1.69-.35-2.67-.62a.5.5,0,1,1,.26-1c.95.25,1.82.45,2.59.59a.5.5,0,0,1,.4.59A.51.51,0,0,1,346.8,291.23Z" style="fill:#263238"></path><path d="M341.16,289.71a.44.44,0,0,1-.16,0c-10.2-3.33-24.51-10.32-24.65-10.39a.5.5,0,1,1,.44-.9c.14.07,14.39,7,24.52,10.34a.5.5,0,0,1-.15,1Z" style="fill:#263238"></path><path d="M333.84,246.54l-.14,0a.51.51,0,0,1-.34-.63c1.69-5.48,1.71-17.86,1.71-18a.5.5,0,0,1,1,0c0,.52,0,12.66-1.75,18.28A.5.5,0,0,1,333.84,246.54Z" style="fill:#263238"></path><path d="M311.17,266.83h-.07l-3.89-.62a.49.49,0,0,1-.41-.57.5.5,0,0,1,.57-.42l3.87.62a.5.5,0,0,1,.43.56A.51.51,0,0,1,311.17,266.83Z" style="fill:#263238"></path><path d="M302.6,265.46h-.08l-10.21-1.66a.5.5,0,1,1,.16-1l10.21,1.65a.5.5,0,0,1-.08,1Z" style="fill:#263238"></path><path d="M288.29,261.65a.49.49,0,0,1-.47-.34.51.51,0,0,1,.31-.64c4.56-1.51,17.74-1.33,18.3-1.32a.5.5,0,0,1,.49.51.49.49,0,0,1-.5.49c-.14,0-13.57-.19-18,1.27A.45.45,0,0,1,288.29,261.65Z" style="fill:#263238"></path><polygon points="271.04 199.37 249.45 174.24 275.66 162.19 294.56 180.68 271.04 199.37" style="fill:#fff"></polygon><path d="M271,199.87a.52.52,0,0,1-.38-.17l-21.59-25.14a.5.5,0,0,1-.11-.43.51.51,0,0,1,.28-.34l26.21-12.06a.52.52,0,0,1,.56.1l18.9,18.5a.54.54,0,0,1,.15.38.5.5,0,0,1-.19.36l-23.52,18.69A.51.51,0,0,1,271,199.87Zm-20.78-25.45,20.84,24.26,22.7-18-18.24-17.85Z" style="fill:#263238"></path><path d="M248.27,164.15s34-29,59.65-37.75l5-20.65s6.59-10.68,7.66-12.82,3-2.14,3-.53-2.5,5.87-2.5,5.87,3.74-2.85,4.63-4.45,2.67,0,1.61,2.85-7.13,9.08-7.13,9.08,5.88-2.31,7.48-4.45,3.74-1.07,2.5,1.07a28.51,28.51,0,0,1-5,6,58,58,0,0,1-5.16,3.74s5.34-.18,7.3-.36,4.27-1.24,3.38.89a5,5,0,0,1-4.27,3.57c-2.5.53-6.95,1.6-6.95,1.6s-1.24,6-3.2,9.26a9.88,9.88,0,0,1-4.28,4.09l-39.17,32.41Z" style="fill:#fff"></path><path d="M248.27,164.65a.5.5,0,0,1-.32-.88c.34-.29,34.14-29,59.55-37.75l4.92-20.39a.35.35,0,0,1,.06-.14c.07-.11,6.59-10.69,7.63-12.78.8-1.6,2-2.12,2.86-1.91a1.51,1.51,0,0,1,1.12,1.6,11.37,11.37,0,0,1-1.36,3.88,13.39,13.39,0,0,0,2.56-2.7,1.37,1.37,0,0,1,1.8-.78c.92.43,1.48,2,.7,4s-3.66,5.37-5.56,7.46c1.8-.85,4.16-2.13,5-3.31,1.05-1.4,2.36-1.62,3.12-1.12s1,1.45.21,2.74a28.33,28.33,0,0,1-5.09,6.17,42.58,42.58,0,0,1-3.75,2.81c1.74-.07,4.3-.18,5.51-.29.45,0,.92-.14,1.38-.22,1.1-.22,2.06-.4,2.53.18a1.62,1.62,0,0,1,0,1.62,5.44,5.44,0,0,1-4.63,3.85c-2.08.45-5.58,1.28-6.62,1.53-.29,1.3-1.46,6.25-3.21,9.11a10.5,10.5,0,0,1-4.43,4.26L273.16,164a.53.53,0,0,1-.3.12l-24.58.53Zm65.1-58.7-5,20.57a.52.52,0,0,1-.33.36c-22.7,7.72-52.38,31.75-58.39,36.74l23-.5,39-32.29a.26.26,0,0,1,.13-.08,9.48,9.48,0,0,0,4-3.9c1.89-3.09,3.13-9,3.14-9.09a.52.52,0,0,1,.38-.39s4.48-1.07,6.95-1.6a4.54,4.54,0,0,0,3.92-3.27c.19-.47.15-.62.15-.62a5.56,5.56,0,0,0-1.55.19,14.26,14.26,0,0,1-1.48.23c-1.95.18-7.11.35-7.33.36a.5.5,0,0,1-.29-.92,58.67,58.67,0,0,0,5.11-3.69,28.05,28.05,0,0,0,4.88-5.93c.43-.73.36-1.23.11-1.4s-1.06-.07-1.77.88c-1.67,2.22-7.45,4.52-7.69,4.62a.52.52,0,0,1-.6-.19.5.5,0,0,1,.06-.63c.06-.06,6-6.19,7-8.91.6-1.6.16-2.62-.19-2.78s-.43.21-.51.35c-.93,1.68-4.61,4.49-4.76,4.61a.53.53,0,0,1-.64,0,.52.52,0,0,1-.1-.63c.68-1.16,2.43-4.42,2.43-5.62,0-.25-.06-.56-.35-.63-.45-.1-1.21.34-1.73,1.38C320,95.22,314,105,313.37,106Z" style="fill:#263238"></path><path d="M316.11,103.76a.47.47,0,0,1-.35-.15.5.5,0,0,1,0-.71l5-5a.5.5,0,0,1,.71,0,.51.51,0,0,1,0,.71l-5,5A.47.47,0,0,1,316.11,103.76Z" style="fill:#263238"></path><path d="M317,108.74a.47.47,0,0,1-.39-.19.49.49,0,0,1,.08-.7l3.21-2.49a.5.5,0,1,1,.61.79l-3.2,2.49A.5.5,0,0,1,317,108.74Z" style="fill:#263238"></path><path d="M244.18,163.44s3.74,14.95,4.09,15.49,30.27-14.78,30.27-14.78l-2-3.21Z" style="fill:#fff"></path><path d="M248.22,179.41a.35.35,0,0,1-.36-.21c-.37-.54-3-11.12-4.17-15.64a.57.57,0,0,1,.08-.42.53.53,0,0,1,.37-.2l32.41-2.49a.48.48,0,0,1,.46.23l2,3.21a.51.51,0,0,1,0,.4.47.47,0,0,1-.25.3c-.08,0-7.57,3.88-15,7.6C251.73,178.2,249,179.41,248.22,179.41Zm-3.41-15.52c1.33,5.32,3.24,12.75,3.78,14.46,2.63-.93,18.44-8.87,29.24-14.4l-1.51-2.48Z" style="fill:#263238"></path><path d="M275.88,174.05s-7.69,12.09-7.25,13.41a7.22,7.22,0,0,0,1.54,2.41L262.7,202l3.51,1.75.66,4.84s-2.2,1.1-2.2,2,4.4,9.66,5.94,11,4.83,1.76,6.81,1.1l2-.66,11.87,10.77,20.43-27L308,202l8.35-9.67-22-24.17-15.82,2.64Z" style="fill:#fff"></path><path d="M291.26,233.22a.55.55,0,0,1-.34-.13l-11.64-10.57-1.7.56c-2,.67-5.56.3-7.3-1.19-1.53-1.31-6.11-10.16-6.11-11.36,0-.95,1.4-1.84,2.16-2.26l-.58-4.23-3.28-1.64a.46.46,0,0,1-.25-.31.51.51,0,0,1,0-.4l7.27-11.76a7.39,7.39,0,0,1-1.39-2.32c-.46-1.39,5-10.13,7.31-13.83l0,0,2.64-3.29a.46.46,0,0,1,.3-.19l15.82-2.63a.52.52,0,0,1,.46.15l22,24.17a.5.5,0,0,1,0,.67l-8,9.31,3.41,3.41a.5.5,0,0,1,0,.65l-20.43,27a.49.49,0,0,1-.35.19Zm-11.87-11.77a.51.51,0,0,1,.34.13L291.19,232,311,205.74l-3.43-3.43a.51.51,0,0,1,0-.68l8.06-9.33-21.49-23.64-15.36,2.56-2.5,3.12c-3.6,5.66-7.26,12-7.18,13a6.68,6.68,0,0,0,1.41,2.19.51.51,0,0,1,.07.62l-7.18,11.61,3,1.52a.49.49,0,0,1,.27.38l.66,4.83a.5.5,0,0,1-.28.52c-1,.49-1.92,1.23-1.92,1.53.09.8,4.3,9.35,5.76,10.6a7.76,7.76,0,0,0,6.33,1l2-.66Z" style="fill:#263238"></path><path d="M280.27,188.61h0l-8.56-.66a.49.49,0,0,1-.46-.53.49.49,0,0,1,.53-.46l8.57.66a.5.5,0,0,1,0,1Z" style="fill:#263238"></path><path d="M279.83,193.67h-5.71a.49.49,0,0,1-.44-.27.51.51,0,0,1,0-.53l1.75-2.41a.5.5,0,0,1,.81.59l-1.18,1.62h4.73a.5.5,0,0,1,.5.5A.5.5,0,0,1,279.83,193.67Z" style="fill:#263238"></path><path d="M270,211a.5.5,0,0,1-.27-.08l-3.08-2a.5.5,0,0,1,.54-.84l3.08,2a.51.51,0,0,1,.15.7A.53.53,0,0,1,270,211Z" style="fill:#263238"></path><path d="M276,193.36a1.33,1.33,0,0,0,1.31.88,1.31,1.31,0,0,0,1.32-.79Z" style="fill:#263238"></path><path d="M277.34,194.74a1.84,1.84,0,0,1-1.79-1.24.5.5,0,0,1,.5-.64l2.62.09a.49.49,0,0,1,.4.21.51.51,0,0,1,.06.45A1.8,1.8,0,0,1,277.34,194.74Z" style="fill:#263238"></path><path d="M278.3,166.58s.22-7.47-2.64-4.39-5.93,7.69-3.74,10.54,2.2,1.54,4,1.32,15.38-2.41,14.28-.88-7.47,6.38-6.37,7.91,5.71,3.74,6.37,5.06-2.2,5.71-.22,6.15,2.64,1.1,3.3.22,1.53-4,2.85-4.61,7.69-.22,9.23,1.31.44,7.91-.44,9.45-4.61,4.4-4.61,4.4a52.81,52.81,0,0,0,5.49,2.19c2.2.66,5.05,1.32,5.93.44s11-12.08,11.65-14.5-.88-13.4-1.54-15.38S310.15,163.29,306,162.63s-15.38.66-15.38.66,2.2-3.3-.88-3.08S278.3,166.58,278.3,166.58Z" style="fill:#263238"></path><path d="M310.17,206.61a17,17,0,0,1-4.55-.88,51.79,51.79,0,0,1-5.56-2.22.52.52,0,0,1-.29-.4.49.49,0,0,1,.19-.45c1-.78,3.81-3.06,4.49-4.25.91-1.59,1.77-7.59.52-8.84-1.41-1.41-7.53-1.79-8.65-1.23-.72.36-1.39,1.84-1.88,2.92a10.22,10.22,0,0,1-.8,1.55c-.68.9-1.45.66-2.42.35-.37-.11-.83-.26-1.39-.38a1.31,1.31,0,0,1-.88-.62c-.48-.82-.08-2.09.33-3.44a5.27,5.27,0,0,0,.43-2.36,11.84,11.84,0,0,0-2.93-2.31,14.31,14.31,0,0,1-3.4-2.68c-.94-1.31,1.19-3.48,4.3-6.39.73-.7,1.44-1.36,1.84-1.81-1-.15-4,0-12.23,1.19l-1.35.19a3.75,3.75,0,0,0-1,.27c-1.13.45-1.76.41-3.44-1.78-2.71-3.52,1.73-9,3.76-11.19.74-.79,1.42-1.07,2-.82,1.19.49,1.44,3,1.48,4.57,2.19-1.55,8.25-5.7,10.89-5.89a2,2,0,0,1,2,.74,2.55,2.55,0,0,1-.16,2.23c2.83-.3,11-1.1,14.56-.55,4.31.69,15.43,11.18,16.21,13.52.67,2,2.26,13.07,1.55,15.67s-11.22,14.18-11.77,14.73A2.62,2.62,0,0,1,310.17,206.61Zm-8.95-3.67a45,45,0,0,0,4.68,1.83c4.17,1.25,5.19.81,5.44.57,1.21-1.22,10.93-12.12,11.51-14.28.64-2.32-.91-13.24-1.53-15.09-.56-1.69-11.28-12.19-15.42-12.85s-15.13.65-15.24.66a.49.49,0,0,1-.49-.23.52.52,0,0,1,0-.54c.39-.59.86-1.64.62-2s-.72-.27-1-.25c-2.41.17-8.88,4.59-11.17,6.28a.53.53,0,0,1-.53,0,.49.49,0,0,1-.26-.46c.06-2-.27-4.37-.86-4.61-.14-.06-.45.06-.91.57-1.46,1.56-6,6.9-3.71,9.9,1.39,1.81,1.64,1.72,2.29,1.46a4.49,4.49,0,0,1,1.21-.33l1.32-.19c10.75-1.56,13-1.45,13.49-.7a.72.72,0,0,1-.06.79,20,20,0,0,1-2.21,2.24c-1.4,1.32-4.67,4.38-4.16,5.09a14.54,14.54,0,0,0,3.13,2.43c1.55,1,2.88,1.9,3.28,2.69s0,1.83-.37,3.11c-.3,1-.68,2.2-.43,2.63a.3.3,0,0,0,.24.15c.6.14,1.08.29,1.47.41,1,.32,1.09.3,1.32,0a9.2,9.2,0,0,0,.69-1.36c.61-1.35,1.31-2.89,2.34-3.4,1.42-.71,8.08-.32,9.8,1.41s.52,8.52-.35,10A21.18,21.18,0,0,1,301.22,202.94Z" style="fill:#263238"></path><path d="M279.22,269.79s-8.85,8.85-9.06,9.93,6.47,13.6,6.47,13.6l11.66-8.21,9.93,5.18,7.56,4.32s4.75-13.17,4.75-15.76-16.2-13.38-17.49-13.6S279.22,269.79,279.22,269.79Z" style="fill:#fff"></path><path d="M305.78,295.11a.54.54,0,0,1-.25-.06L298,290.73l-9.64-5-11.41,8a.47.47,0,0,1-.4.07.49.49,0,0,1-.33-.25c-2.53-4.73-6.74-12.84-6.52-13.93s6.51-7.5,9.2-10.19a.42.42,0,0,1,.18-.11c3-1.13,12.75-4.8,14.07-4.56,1.15.19,17.91,11,17.91,14.09,0,2.65-4.59,15.39-4.78,15.93a.5.5,0,0,1-.3.3A.51.51,0,0,1,305.78,295.11Zm-17.49-10.5a.46.46,0,0,1,.23.06l9.93,5.18,7.06,4c1.43-4,4.52-13.07,4.52-15S294.77,266.17,293,265.74c-.86-.11-8.36,2.55-13.45,4.47-4.17,4.18-8.61,8.9-8.86,9.62,0,.78,3.14,7.07,6.17,12.75L288,284.7A.52.52,0,0,1,288.29,284.61Z" style="fill:#263238"></path><path d="M282.52,214.29s-3.48-4-2.75-4.57S292.21,205,292.21,205s9.15,9.51,9.15,10.24-20.85,16.65-20.85,16.65S301,282.5,301.17,284.51s-5.67,13.54-7.13,14.64-14.81-6.22-15.36-8.23-8.42-65.29-8.23-66.39S282.52,214.29,282.52,214.29Z" style="fill:#fff"></path><path d="M293.57,299.76a6.7,6.7,0,0,1-2-.44c-3.76-1.29-12.86-6.3-13.4-8.27-.12-.44-8.51-64.94-8.24-66.6.19-1.09,7.31-6.74,11.85-10.24-1-1.22-2.72-3.4-2.62-4.35a.75.75,0,0,1,.29-.54c.76-.57,10.61-4.12,12.57-4.83a.48.48,0,0,1,.53.13c9.29,9.65,9.29,10.35,9.29,10.58s0,1-20.75,16.81c2.68,6.62,20.38,50.47,20.56,52.46.2,2.24-5.73,13.87-7.33,15.08A1.26,1.26,0,0,1,293.57,299.76Zm-13.39-89.71A15.7,15.7,0,0,0,282.9,214a.53.53,0,0,1,.12.38.55.55,0,0,1-.2.35c-5.49,4.22-11.53,9.15-11.89,10-.06,1.67,7.69,64.16,8.23,66.12.24.88,4.95,4.07,9.91,6.4,3.14,1.49,4.44,1.67,4.68,1.56,1.29-1,7.09-12.31,6.92-14.18C300.49,283,288.24,252.3,280,232a.5.5,0,0,1,.16-.58c7.67-5.85,19.14-14.77,20.58-16.3-.7-1.08-4.84-5.58-8.7-9.61C287.8,207.08,281.25,209.5,280.18,210.05Z" style="fill:#263238"></path><path d="M282.52,214.79a.49.49,0,0,1-.46-.3.5.5,0,0,1,.26-.66l2.07-.89-.86-1.72a.5.5,0,0,1,.23-.67.51.51,0,0,1,.67.22l1.1,2.2a.48.48,0,0,1,0,.39.51.51,0,0,1-.27.29l-2.57,1.1A.43.43,0,0,1,282.52,214.79Z" style="fill:#263238"></path><path d="M297,214.06a.51.51,0,0,1-.44-.26l-4.76-8.6a.5.5,0,0,1,.88-.48l4.75,8.6a.5.5,0,0,1-.19.68A.53.53,0,0,1,297,214.06Z" style="fill:#263238"></path><polygon points="312.22 204.63 287.14 230.96 292.73 241.22 317.8 208.23 312.22 204.63" style="fill:#fff"></polygon><path d="M292.73,241.72h0a.51.51,0,0,1-.4-.25L286.7,231.2a.5.5,0,0,1,.07-.59l25.09-26.32a.49.49,0,0,1,.63-.08l5.58,3.6a.45.45,0,0,1,.22.33.49.49,0,0,1-.09.39l-25.07,33A.51.51,0,0,1,292.73,241.72Zm-5-10.68,5.05,9.26,24.27-32-4.77-3.07Z" style="fill:#263238"></path></g><g id="Table"><rect x="132.08" y="298.6" width="178.69" height="4.98" style="fill:#fff"></rect><path d="M310.76,304.08H132.08a.5.5,0,0,1-.5-.5v-5a.5.5,0,0,1,.5-.5H310.76a.5.5,0,0,1,.5.5v5A.5.5,0,0,1,310.76,304.08Zm-178.18-1H310.26v-4H132.58Z" style="fill:#263238"></path><path d="M212,417.18a27.69,27.69,0,0,1-10.53,10.24c-8.62,4.79-16.92,2.55-23.95,5.11a11.38,11.38,0,0,0-7.66,8.94H212Z" style="fill:#263238"></path><path d="M212,442H169.83a.49.49,0,0,1-.37-.16.52.52,0,0,1-.13-.38,12,12,0,0,1,8-9.36,34.56,34.56,0,0,1,9.38-1.57c4.68-.37,9.51-.74,14.49-3.51a27.27,27.27,0,0,0,10.35-10.05.51.51,0,0,1,.56-.23.5.5,0,0,1,.37.48v24.28A.5.5,0,0,1,212,442Zm-41.54-1h41v-22a28.66,28.66,0,0,1-9.79,8.93c-5.17,2.87-10.12,3.25-14.9,3.62a34.19,34.19,0,0,0-9.12,1.52A11,11,0,0,0,170.43,441Z" style="fill:#263238"></path><path d="M230.39,417.18a27.69,27.69,0,0,0,10.53,10.24c8.62,4.79,16.92,2.55,24,5.11a11.38,11.38,0,0,1,7.66,8.94H230.39Z" style="fill:#263238"></path><path d="M272.53,442H230.39a.5.5,0,0,1-.5-.5V417.18a.5.5,0,0,1,.37-.48.51.51,0,0,1,.56.23A27.27,27.27,0,0,0,241.17,427c5,2.77,9.81,3.14,14.49,3.51a34.56,34.56,0,0,1,9.38,1.57,12,12,0,0,1,8,9.36.52.52,0,0,1-.13.38A.49.49,0,0,1,272.53,442Zm-41.64-1h41.05a10.89,10.89,0,0,0-7.24-8,34.19,34.19,0,0,0-9.12-1.52c-4.78-.37-9.73-.75-14.9-3.62a28.66,28.66,0,0,1-9.79-8.93Z" style="fill:#263238"></path><rect x="212.01" y="303.83" width="18.83" height="137.68" style="fill:#8a8a8a"></rect><path d="M230.83,442H212a.5.5,0,0,1-.5-.5V303.83a.5.5,0,0,1,.5-.5h18.82a.5.5,0,0,1,.5.5V441.51A.5.5,0,0,1,230.83,442Zm-18.32-1h17.82V304.33H212.51Z" style="fill:#263238"></path><rect x="191.89" y="303.83" width="59.06" height="8.3" style="fill:#263238"></rect><path d="M251,312.63H191.89a.5.5,0,0,1-.5-.5v-8.3a.5.5,0,0,1,.5-.5H251a.5.5,0,0,1,.5.5v8.3A.5.5,0,0,1,251,312.63Zm-58.56-1h58.06v-7.3H192.39Z" style="fill:#263238"></path><rect x="219.33" y="417.56" width="4.43" height="23.93" style="fill:#263238"></rect><path d="M223.75,442h-4.42a.5.5,0,0,1-.5-.5V417.56a.5.5,0,0,1,.5-.5h4.42a.5.5,0,0,1,.5.5v23.93A.5.5,0,0,1,223.75,442Zm-3.92-1h3.42V418.06h-3.42Z" style="fill:#263238"></path></g><g id="Plant"><path d="M79.63,279.05s-2.7,7.43-8.44,8.44-15.87-10.13-9.46-15.87S76.93,275,79.63,279.05Z" style="fill:#92E3A9"></path><path d="M70.46,288.05c-3.47,0-8.14-3.47-10.24-7.79-1.71-3.52-1.28-6.81,1.18-9a7.28,7.28,0,0,1,6-1.91c5.08.65,10.33,6,12.62,9.43a.51.51,0,0,1,.06.45c-.12.31-2.87,7.71-8.82,8.76A4.47,4.47,0,0,1,70.46,288.05ZM66.4,270.28A6.33,6.33,0,0,0,62.07,272c-2.88,2.58-1.83,6-1,7.83,2.05,4.23,6.9,7.71,10,7.18,4.83-.86,7.46-6.65,8-7.89-2.26-3.29-7.13-8.19-11.77-8.78A6.88,6.88,0,0,0,66.4,270.28Z" style="fill:#263238"></path><path d="M88.41,242.58s-8.44,20.6-5.07,30.73,24.31,17.55,30.39,4.39S106.3,246,101.24,241.91,90.09,239.21,88.41,242.58Z" style="fill:#92E3A9"></path><path d="M102,285.27l-1.07,0c-8-.44-16.09-5.72-18.1-11.77-3.4-10.19,4.73-30.23,5.07-31.07l0,0a6.53,6.53,0,0,1,4.57-3.24,10.83,10.83,0,0,1,9,2.4c5.18,4.14,18.83,23,12.63,36.39C112,282.68,107.69,285.27,102,285.27ZM88.86,242.79c-.28.7-8.28,20.65-5,30.36,1.86,5.6,9.74,10.68,17.21,11.09,3.33.18,9.33-.45,12.24-6.75,6-12.92-7.31-31.16-12.35-35.19a9.8,9.8,0,0,0-8.17-2.2A5.55,5.55,0,0,0,88.86,242.79Z" style="fill:#263238"></path><path d="M137.7,251.36s-14.52,13.17-16.21,26.34,8.11,17.89,18.24,16.2,15.19-27.34,12.15-39.16S137.7,251.36,137.7,251.36Z" style="fill:#92E3A9"></path><path d="M135.82,294.74c-4.5,0-8.43-1.38-11.11-4-3.14-3-4.43-7.57-3.71-13.15,1.69-13.19,15.77-26.09,16.36-26.64l0,0c.23-.17,5.66-4.23,10.17-2.66,2.31.81,3.92,2.93,4.79,6.31,2.2,8.54.24,25.4-5.58,34.35-2.08,3.18-4.42,5-7,5.44A25.2,25.2,0,0,1,135.82,294.74Zm2.2-43c-.57.52-14.41,13.38-16,26-.67,5.25.51,9.5,3.41,12.3,3.22,3.1,8.41,4.32,14.24,3.35,2.27-.38,4.39-2.06,6.3-5,5.68-8.74,7.6-25.21,5.46-33.55-.79-3-2.18-4.92-4.16-5.61C143.36,247.89,138.35,251.5,138,251.75Z" style="fill:#263238"></path><path d="M140.4,324.29s-16.21.67-16.88,8.44,7.09,9.45,14.86,2.7S147.15,324.63,140.4,324.29Z" style="fill:#92E3A9"></path><path d="M129.13,340.16a6.58,6.58,0,0,1-3-.69c-2.25-1.15-3.34-3.55-3.06-6.78.71-8.11,16.68-8.87,17.36-8.9h.05c2.73.14,4.36.89,4.83,2.25.72,2.11-1.42,5.3-6.56,9.77C135.44,338.64,132,340.16,129.13,340.16Zm11.27-15.37c-.67,0-15.76.87-16.38,8-.25,2.8.65,4.86,2.52,5.81,2.85,1.45,7.37.07,11.51-3.53,6.2-5.39,6.58-7.75,6.26-8.68C143.91,325.21,142,324.87,140.4,324.79Z" style="fill:#263238"></path><path d="M124,335l-.42-.92c.52-.23,12.9-5.88,18.64-6.89l.18,1C136.78,329.21,124.12,335,124,335Z" style="fill:#263238"></path><path d="M144,375.1s-11.9-11-17.88-6-1.71,11.69,8.55,12.44S148.53,380.13,144,375.1Z" style="fill:#92E3A9"></path><path d="M138.37,382.17q-1.68,0-3.72-.15c-6-.44-10.37-2.88-11.5-6.37-.77-2.41.17-4.88,2.66-6.95,6.25-5.22,18,5.57,18.54,6l0,0c1.84,2,2.44,3.72,1.81,5C145.41,381.38,142.84,382.17,138.37,382.17ZM130,368.28a5.28,5.28,0,0,0-3.5,1.18c-2.16,1.8-3,3.89-2.35,5.88,1,3.05,5.15,5.28,10.62,5.68,8.19.6,10.14-.8,10.58-1.68.53-1.1-.59-2.72-1.64-3.89C143.25,375.08,135.69,368.28,130,368.28Z" style="fill:#263238"></path><path d="M142.64,379.29C138,376,125,371.09,124.83,371l.35-.93c.54.2,13.26,5,18,8.36Z" style="fill:#263238"></path><path d="M81.22,371.86s16.41-15.19,24.66-8.3,2.35,16.11-11.8,17.14S75,378.79,81.22,371.86Z" style="fill:#92E3A9"></path><path d="M89.1,381.4c-6.08,0-9.68-1.06-10.71-3.18-.84-1.7,0-4,2.46-6.7l0,0c.69-.63,16.83-15.4,25.32-8.32,3.36,2.81,4.64,6.14,3.6,9.38-1.53,4.75-7.54,8.06-15.68,8.65C92.29,381.33,90.62,381.4,89.1,381.4Zm-7.52-9.19c-2.16,2.4-2.93,4.28-2.3,5.57s3.36,3.26,14.77,2.42c7.61-.55,13.42-3.67,14.8-7.95.91-2.83-.26-5.78-3.29-8.31C97.85,357.51,82.17,371.66,81.58,372.21Z" style="fill:#263238"></path><path d="M83,377.47l-.58-.82c6.56-4.62,24.08-11.22,24.82-11.5l.35.93C107.42,366.15,89.46,372.92,83,377.47Z" style="fill:#263238"></path><path d="M100.22,340.5s-1.68,8.1-7.76,11.14-16.88-3.38-11.14-13.17S97.19,336.44,100.22,340.5Z" style="fill:#92E3A9"></path><path d="M89.07,352.89a10.57,10.57,0,0,1-7.56-3.26c-2.86-3.05-3.09-7.21-.62-11.41,1.83-3.14,4.26-4.81,7.21-5,5.11-.27,10.39,4.11,12.52,7a.48.48,0,0,1,.09.4c-.07.34-1.81,8.37-8,11.48A8,8,0,0,1,89.07,352.89Zm-.5-18.66h-.41c-2.6.15-4.75,1.66-6.41,4.48-2.23,3.8-2,7.52.49,10.23s7,3.75,10,2.24c5.24-2.62,7.13-9.29,7.45-10.58C97.52,337.85,92.84,334.23,88.57,334.23Z" style="fill:#263238"></path><path d="M86,315.17s-3-6.75-14.85-2.36S54.64,324,62.07,326.32,86,315.17,86,315.17Z" style="fill:#92E3A9"></path><path d="M64,327.09a6.69,6.69,0,0,1-2.09-.3c-3.18-1-3.88-2.68-3.91-3.9-.08-3.44,5-7.58,13-10.55,12.12-4.5,15.46,2.56,15.49,2.63a.5.5,0,0,1-.14.59C85.73,316.07,72.14,327.09,64,327.09Zm14.41-15.27a20.34,20.34,0,0,0-7.06,1.46c-8.57,3.18-12.41,7.2-12.35,9.59,0,1.62,1.77,2.51,3.21,3,6.53,2.08,20.84-8.94,23.18-10.79C84.84,314.15,83,311.82,78.42,311.82Z" style="fill:#263238"></path><path d="M64.82,322.35l-.65-.76c6.81-5.79,19-7.17,19.56-7.22l.1,1C83.71,315.38,71.39,316.77,64.82,322.35Z" style="fill:#263238"></path><path d="M119.81,234.14s2,4.73,6.07,3.72,5.07-7.09,11.48-5.4,11.82,9.11,11.82,5.74S141.08,226,132,226,120.14,229.75,119.81,234.14Z" style="fill:#92E3A9"></path><path d="M148.67,239.57c-.75,0-1.76-.78-3.38-2-2.1-1.61-5-3.81-8.06-4.62-3.68-1-5.4.77-7.22,2.62a8.84,8.84,0,0,1-4,2.78c-4.41,1.11-6.63-4-6.65-4a.37.37,0,0,1,0-.23c.43-5.69,4.69-8.57,12.65-8.57,9.15,0,17.72,8.7,17.72,12.66a1.35,1.35,0,0,1-.58,1.27A.91.91,0,0,1,148.67,239.57Zm-13.41-7.91a9,9,0,0,1,2.23.31c3.27.86,6.24,3.14,8.41,4.8a10.81,10.81,0,0,0,2.75,1.8,2.39,2.39,0,0,0,0-.37c0-2.86-7.52-11.66-16.72-11.66-7.39,0-11.2,2.46-11.65,7.52.33.68,2.14,4.13,5.45,3.31a7.94,7.94,0,0,0,3.54-2.52C130.79,233.34,132.44,231.66,135.26,231.66Z" style="fill:#263238"></path><path d="M107.67,333.59a45.49,45.49,0,0,0-1.5-4.89c-5.84-15.57-19.89-13.06-20-13l-.19-1c.15,0,15-2.68,21.15,13.67a44.63,44.63,0,0,1,1.54,5Z" style="fill:#263238"></path><path d="M146.72,299.53s3-6.75,14.85-2.36,16.55,11.14,9.12,13.51S146.72,299.53,146.72,299.53Z" style="fill:#92E3A9"></path><path d="M168.75,311.45c-8.13,0-21.72-11-22.35-11.53a.49.49,0,0,1-.14-.59c0-.07,3.37-7.13,15.49-2.63,8,3,13.08,7.11,13,10.55,0,1.22-.73,2.89-3.91,3.9A6.69,6.69,0,0,1,168.75,311.45Zm-21.39-12c2.34,1.85,16.64,12.87,23.18,10.79,1.44-.46,3.17-1.35,3.21-3,.06-2.39-3.78-6.41-12.35-9.59C151.6,294,148.15,298.14,147.36,299.41Z" style="fill:#263238"></path><path d="M167,306.72c-5.52-6.82-17.4-6.25-17.52-6.24l-.05-1c.51,0,12.5-.61,18.35,6.61Z" style="fill:#263238"></path><path d="M136.85,301.36l-.4-.91A19.11,19.11,0,0,1,146.81,299l-.19,1A18.36,18.36,0,0,0,136.85,301.36Z" style="fill:#263238"></path><path d="M93.44,287.77c-6.93-7.07-13.82-8.22-13.89-8.23s-10.23-2.65-14,.85l-.67-.74c4.21-3.86,14.48-1.2,14.92-1.09.24,0,7.23,1.2,14.39,8.51Z" style="fill:#263238"></path><rect x="94.42" y="247.17" width="1" height="2.89" transform="translate(-52.07 26.77) rotate(-12.63)" style="fill:#263238"></rect><path d="M112.18,399.29l-1,0c0-.58,1.5-58.32,0-75.75s-8.48-38-8.55-38.22l-7.21-32.18,1-.22L103.59,285c.06.16,7.09,20.89,8.59,38.41S112.2,398.71,112.18,399.29Z" style="fill:#263238"></path><rect x="140.8" y="260.61" width="3.08" height="1" transform="translate(-154.49 279.43) rotate(-64.94)" style="fill:#263238"></rect><path d="M115.71,399.22h-1c0-.53.53-53.24,2.53-68.23s10-38.7,10.11-38.94l12.41-26.58.9.42-12.38,26.54c-.06.18-8.06,23.78-10,38.7S115.72,398.69,115.71,399.22Z" style="fill:#263238"></path><path d="M118.74,399.32l-1-.06c2-33.93,5.52-64.43,5.55-64.74l1,.12C124.25,334.94,120.73,365.42,118.74,399.32Z" style="fill:#263238"></path><path d="M107.13,399.23l-1,0c0-.49,1-48.49-1-54.9-.69-2.22-1.61-3.56-2.68-3.88a2.24,2.24,0,0,0-1.92.45l-.12.09-.15,0c-.09,0-9.14,1.14-12.35,6.28l-.85-.53c3.28-5.25,11.72-6.56,13-6.72a3.19,3.19,0,0,1,2.72-.55c1.42.42,2.55,1.95,3.35,4.55C108.12,350.58,107.18,397.25,107.13,399.23Z" style="fill:#263238"></path><path d="M109.66,399.29l-1-.05c0-.47,2.4-47.34-.2-61.91l1-.17C112.06,351.83,109.68,398.82,109.66,399.29Z" style="fill:#263238"></path><path d="M120.26,399.3c0-2.88-.62-70.54,5.4-86.59a21.68,21.68,0,0,1,7.85-10.63l.56.82a20.84,20.84,0,0,0-7.48,10.16c-6,15.88-5.34,85.52-5.33,86.23Z" style="fill:#263238"></path><path d="M114.19,399.29l-1-.14c1.42-10.42-1.45-70.86-9.56-94.17a47.35,47.35,0,0,0-8.47-15.31l.76-.65a48.68,48.68,0,0,1,8.66,15.63C112.73,328.07,115.62,388.82,114.19,399.29Z" style="fill:#263238"></path><path d="M115.71,399.22h-1c0-.58.36-59.2.84-88.15h1C116.06,340,115.71,398.63,115.71,399.22Z" style="fill:#263238"></path><path d="M116.61,307.43l-1,0c.4-23.36.78-39.69,1.12-48.52.88-23,2.17-24.87,2.7-25.17.53-1.21,3.18-5.91,12.76-5.29l-.06,1c-10-.65-11.83,4.81-11.85,4.87l-.24.75-.2-.19c-.42,1.09-1.4,5.59-2.11,24.07C117.39,267.75,117,284.07,116.61,307.43Z" style="fill:#263238"></path><path d="M103.19,329.54s-8.44-7.53-5.06-11.23,24.31-6.42,30.38-1.61-7.42,11.6-12.49,13.08S104.88,330.77,103.19,329.54Z" style="fill:#92E3A9"></path><path d="M109.32,331.19c-2.88,0-5.37-.48-6.42-1.25l0,0c-.24-.21-5.81-5.23-6-9.25a3.54,3.54,0,0,1,.92-2.69c3.65-4,24.74-6.67,31.07-1.66a3.76,3.76,0,0,1,1.66,3.79c-.88,4.51-10.47,9-14.33,10.16A24.78,24.78,0,0,1,109.32,331.19Zm-5.81-2c1.52,1.08,7.35,1.62,12.37.15,4.37-1.27,12.89-5.62,13.63-9.39a2.8,2.8,0,0,0-1.31-2.81c-5.75-4.56-26.48-2-29.7,1.55a2.54,2.54,0,0,0-.66,2C98,324.11,103.16,328.83,103.51,329.15Z" style="fill:#263238"></path><path d="M111.3,325.62h-1a16.32,16.32,0,0,1,.19-2.32l1,.15A14.4,14.4,0,0,0,111.3,325.62Z" style="fill:#263238"></path><path d="M112.2,320.32l-1-.28a40,40,0,0,1,2.2-5.68l.9.45A36.85,36.85,0,0,0,112.2,320.32Z" style="fill:#263238"></path><path d="M103.19,378.75s-8.44-7.53-5.06-11.23,24.31-6.41,30.38-1.6S121.09,377.52,116,379,104.88,380,103.19,378.75Z" style="fill:#92E3A9"></path><path d="M109.32,380.4c-2.88,0-5.37-.48-6.42-1.25,0,0,0,0,0,0-.24-.21-5.82-5.23-6-9.25a3.52,3.52,0,0,1,.92-2.68c3.65-4,24.74-6.68,31.07-1.66a3.74,3.74,0,0,1,1.66,3.78c-.88,4.52-10.47,9-14.33,10.17A25.15,25.15,0,0,1,109.32,380.4Zm-5.81-2c1.52,1.08,7.35,1.62,12.37.16,4.37-1.28,12.89-5.63,13.63-9.4a2.81,2.81,0,0,0-1.31-2.81c-5.76-4.56-26.48-2-29.7,1.55a2.54,2.54,0,0,0-.66,2C98,373.32,103.16,378,103.51,378.36Z" style="fill:#263238"></path><path d="M111.3,374.83h-1c0-4.91,3-11,3.14-11.25l.9.44C114.31,364.08,111.3,370.16,111.3,374.83Z" style="fill:#263238"></path><path d="M109.48,357.94s-5.73-5.11-3.44-7.63,16.5-4.35,20.63-1.09-5,7.88-8.48,8.88S110.62,358.78,109.48,357.94Z" style="fill:#92E3A9"></path><path d="M113.62,359.23a8.62,8.62,0,0,1-4.44-.89l0,0c-.16-.14-4-3.6-4.14-6.39a2.57,2.57,0,0,1,.67-1.94c2.5-2.75,17-4.58,21.31-1.15a2.72,2.72,0,0,1,1.19,2.73c-.65,3.32-7.54,6.35-9.84,7A17.09,17.09,0,0,1,113.62,359.23Zm-3.83-1.68c1,.69,5,1,8.26.07,2.85-.83,8.66-3.79,9.14-6.25a1.76,1.76,0,0,0-.83-1.75c-3.87-3.07-17.79-1.34-20,1a1.59,1.59,0,0,0-.41,1.22C106.12,354.16,109.51,357.29,109.79,357.55Z" style="fill:#263238"></path><path d="M115.14,355.28h-1c0-3.38,2.06-7.54,2.15-7.72l.9.45S115.14,352.14,115.14,355.28Z" style="fill:#263238"></path><rect x="101.55" y="390.85" width="22.85" height="50.66" style="fill:#263238"></rect><path d="M124.4,442H101.55a.5.5,0,0,1-.5-.5V390.85a.5.5,0,0,1,.5-.5H124.4a.5.5,0,0,1,.5.5v50.66A.5.5,0,0,1,124.4,442Zm-22.35-1H123.9V391.35H102.05Z" style="fill:#263238"></path></g><g id="trash-can"><path d="M534.75,334.41a12.42,12.42,0,1,0-21.8,8.36,12.21,12.21,0,0,1,3,7.75l0,1.71,13.42-.26,0-1.7a12.23,12.23,0,0,1,2.67-7.86A12.34,12.34,0,0,0,534.75,334.41Z" style="fill:#92E3A9"></path><path d="M516,352.6a.4.4,0,0,1-.26-.1.39.39,0,0,1-.11-.27l0-1.7a11.83,11.83,0,0,0-2.88-7.52,12.66,12.66,0,0,1-3.09-9.23,12.79,12.79,0,0,1,25.55.62h0a12.8,12.8,0,0,1-2.81,8.25,11.71,11.71,0,0,0-2.59,7.61l0,1.7a.39.39,0,0,1-.11.27.35.35,0,0,1-.26.11L516,352.6Zm6.4-30c-.37,0-.74,0-1.1,0a12,12,0,0,0-8,19.87,12.53,12.53,0,0,1,3.07,8l0,1.32L529,351.6l0-1.32a12.59,12.59,0,0,1,2.75-8.11,12.05,12.05,0,0,0,2.65-7.76h0a12.06,12.06,0,0,0-4-8.73A11.89,11.89,0,0,0,522.36,322.6Z" style="fill:#263238"></path><rect x="515.99" y="352.1" width="13.42" height="3.32" transform="translate(-6.65 10.04) rotate(-1.09)" style="fill:#fff"></rect><path d="M516,355.92a.37.37,0,0,1-.26-.1.36.36,0,0,1-.11-.26l-.06-3.32a.38.38,0,0,1,.37-.39l13.42-.25a.38.38,0,0,1,.38.37l.06,3.32a.38.38,0,0,1-.37.38l-13.42.25Zm.32-3.32,0,2.57,12.68-.24-.05-2.57Z" style="fill:#263238"></path><path d="M516.06,355.43h13.42a0,0,0,0,1,0,0v.81a2.51,2.51,0,0,1-2.51,2.51h-8.41a2.51,2.51,0,0,1-2.51-2.51v-.81A0,0,0,0,1,516.06,355.43Z" transform="translate(-6.71 10.03) rotate(-1.09)" style="fill:#fff"></path><path d="M518.55,359.21a2.88,2.88,0,0,1-2.88-2.83l0-.82a.38.38,0,0,1,.37-.38l13.42-.25c.21,0,.38.16.38.36l0,.82a2.85,2.85,0,0,1-.81,2.05,2.81,2.81,0,0,1-2,.88l-8.41.17Zm-2.14-3.28v.43a2.13,2.13,0,0,0,2.17,2.1l8.41-.17h0a2.13,2.13,0,0,0,2.09-2.17v-.44Z" style="fill:#263238"></path><path d="M517.81,358.75h10a0,0,0,0,1,0,0v.81a2.51,2.51,0,0,1-2.51,2.51h-5a2.51,2.51,0,0,1-2.51-2.51v-.81a0,0,0,0,1,0,0Z" transform="matrix(1, -0.02, 0.02, 1, -6.78, 10.04)" style="fill:#fff"></path><path d="M520.3,362.49a2.9,2.9,0,0,1-2.88-2.83v-.81a.38.38,0,0,1,.1-.27.39.39,0,0,1,.27-.11l10-.19a.37.37,0,0,1,.38.36l0,.82a2.89,2.89,0,0,1-2.83,2.93l-5,.1Zm-2.14-3.28v.44a2.1,2.1,0,0,0,.66,1.49,2.22,2.22,0,0,0,1.52.6l5-.1h0a2.13,2.13,0,0,0,2.1-2.17V359Z" style="fill:#263238"></path><path d="M508,336.58a12.42,12.42,0,1,0-23.3-1.53,12.17,12.17,0,0,1-.54,8.3l-.68,1.55,12.3,5.39.68-1.56a12.12,12.12,0,0,1,5.71-6A12.32,12.32,0,0,0,508,336.58Z" style="fill:#92E3A9"></path><path d="M495.81,350.66l-.15,0-12.3-5.38a.37.37,0,0,1-.2-.21.37.37,0,0,1,0-.29l.69-1.55a11.84,11.84,0,0,0,.52-8,12.79,12.79,0,1,1,24,1.57h0a12.77,12.77,0,0,1-6,6.31,11.84,11.84,0,0,0-5.54,5.84l-.68,1.56A.37.37,0,0,1,495.81,350.66Zm-11.81-6,11.61,5.08.54-1.21a12.53,12.53,0,0,1,5.89-6.21,12,12,0,0,0,5.65-5.94h0a12.09,12.09,0,0,0,0-9.6,12,12,0,0,0-7-6.58,12,12,0,0,0-15.6,14.7,12.59,12.59,0,0,1-.56,8.55Z" style="fill:#263238"></path><rect x="482.28" y="347.46" width="13.42" height="3.32" transform="translate(180.98 -166.76) rotate(23.64)" style="fill:#fff"></rect><path d="M494.47,353.71l-.15,0L482,348.29a.37.37,0,0,1-.2-.49l1.33-3a.39.39,0,0,1,.5-.2L496,350a.39.39,0,0,1,.2.2.41.41,0,0,1,0,.29l-1.33,3A.38.38,0,0,1,494.47,353.71Zm-11.8-5.95,11.61,5.08,1-2.36L483.7,345.4Z" style="fill:#263238"></path><path d="M480.94,350.51h13.42a0,0,0,0,1,0,0v.81a2.51,2.51,0,0,1-2.51,2.51h-8.41a2.51,2.51,0,0,1-2.51-2.51v-.81A0,0,0,0,1,480.94,350.51Z" transform="translate(182.1 -165.97) rotate(23.64)" style="fill:#fff"></path><path d="M491.85,356a2.9,2.9,0,0,1-1.16-.24l-7.7-3.37a2.89,2.89,0,0,1-1.49-3.8l.33-.74a.35.35,0,0,1,.21-.2.34.34,0,0,1,.28,0l12.3,5.39a.36.36,0,0,1,.19.49l-.32.74a2.84,2.84,0,0,1-1.59,1.53A2.76,2.76,0,0,1,491.85,356Zm-9.48-7.51-.18.4a2.14,2.14,0,0,0,1.1,2.81L491,355h0a2.1,2.1,0,0,0,1.63,0,2.05,2.05,0,0,0,1.18-1.13l.18-.4Z" style="fill:#263238"></path><path d="M481.31,353.55h10a0,0,0,0,1,0,0v.81a2.51,2.51,0,0,1-2.51,2.51h-5a2.51,2.51,0,0,1-2.51-2.51v-.81A0,0,0,0,1,481.31,353.55Z" transform="translate(183.2 -165.18) rotate(23.63)" style="fill:#fff"></path><path d="M489,358.32a2.93,2.93,0,0,1-1.15-.24h0l-4.6-2a2.91,2.91,0,0,1-1.53-1.59,2.87,2.87,0,0,1,.05-2.21l.32-.75a.36.36,0,0,1,.21-.19.37.37,0,0,1,.29,0l9.19,4a.36.36,0,0,1,.19.49l-.32.74A2.91,2.91,0,0,1,489,358.32Zm-.85-.93a2.13,2.13,0,0,0,2.81-1.1l.17-.4-8.5-3.72-.18.4a2.1,2.1,0,0,0,0,1.63,2.14,2.14,0,0,0,1.13,1.18Z" style="fill:#263238"></path><path d="M525.13,349.31a12.42,12.42,0,1,0,23.31-1.44,12.13,12.13,0,0,1-.51-8.29l.48-1.63-12.88-3.78-.48,1.63a12.17,12.17,0,0,1-4.91,6.69A12.44,12.44,0,0,0,525.13,349.31Z" style="fill:#92E3A9"></path><path d="M537,365.6a12.46,12.46,0,0,1-2.7-.29,12.72,12.72,0,0,1-8.28-6,12.79,12.79,0,0,1,3.89-17.15,11.8,11.8,0,0,0,4.76-6.49l.48-1.63a.36.36,0,0,1,.46-.25l12.88,3.78a.38.38,0,0,1,.23.18.39.39,0,0,1,0,.28l-.48,1.64a11.86,11.86,0,0,0,.49,8A12.78,12.78,0,0,1,537,365.6Zm-11.53-16.18a12.08,12.08,0,0,0,1.2,9.52,11.9,11.9,0,0,0,7.8,5.64A12,12,0,0,0,548.1,348a12.58,12.58,0,0,1-.53-8.55l.37-1.27-12.16-3.57-.37,1.27a12.54,12.54,0,0,1-5.06,6.9,12.13,12.13,0,0,0-4.86,6.62Zm-.36-.11h0Z" style="fill:#263238"></path><rect x="535.72" y="332.8" width="13.42" height="3.32" transform="translate(968.68 808.18) rotate(-163.64)" style="fill:#fff"></rect><path d="M548.41,338.32l-.11,0-12.88-3.78a.35.35,0,0,1-.22-.18.34.34,0,0,1,0-.28l.93-3.19a.38.38,0,0,1,.47-.25l12.88,3.78a.33.33,0,0,1,.22.18.35.35,0,0,1,0,.28l-.93,3.19A.38.38,0,0,1,548.41,338.32ZM536,333.91l12.16,3.57.73-2.47-12.16-3.57Z" style="fill:#263238"></path><path d="M536.66,329.61h13.42a0,0,0,0,1,0,0v.81a2.51,2.51,0,0,1-2.51,2.51h-8.41a2.51,2.51,0,0,1-2.51-2.51v-.81A0,0,0,0,1,536.66,329.61Z" transform="translate(971.41 802.19) rotate(-163.64)" style="fill:#fff"></path><path d="M549.35,335.12h-.11l-12.88-3.78a.38.38,0,0,1-.25-.47l.22-.78a2.9,2.9,0,0,1,3.58-1.95L548,330.5a2.88,2.88,0,0,1,1.95,3.58l-.22.78A.38.38,0,0,1,549.35,335.12Zm-12.42-4.41,12.16,3.57.12-.41a2.13,2.13,0,0,0-1.44-2.65l-8.07-2.37h0a2.14,2.14,0,0,0-2.65,1.44Z" style="fill:#263238"></path><path d="M539.29,326.42h10a0,0,0,0,1,0,0v.81a2.51,2.51,0,0,1-2.51,2.51h-5a2.51,2.51,0,0,1-2.51-2.51v-.81a0,0,0,0,1,0,0Z" transform="translate(974.15 796.22) rotate(-163.64)" style="fill:#263238"></path><path d="M548.66,331.47l-.11,0-9.63-2.83a.31.31,0,0,1-.22-.18.34.34,0,0,1,0-.28l.22-.78a2.9,2.9,0,0,1,3.58-2l4.82,1.42a2.87,2.87,0,0,1,2,3.58l-.23.78a.37.37,0,0,1-.17.22A.41.41,0,0,1,548.66,331.47ZM539.49,328l8.91,2.61.12-.41a2.15,2.15,0,0,0-.17-1.63,2.12,2.12,0,0,0-1.27-1l-4.82-1.42h0a2.13,2.13,0,0,0-1.62.18,2.11,2.11,0,0,0-1,1.27Z" style="fill:#263238"></path><path d="M512.33,333.65A12.42,12.42,0,1,0,523,354.41a12.17,12.17,0,0,1,7.39-3.8l1.68-.22-1.72-13.32-1.68.22a12.13,12.13,0,0,1-8.11-1.8A12.37,12.37,0,0,0,512.33,333.65Z" style="fill:#fff"></path><path d="M513.9,358.89a13,13,0,0,1-12.64-10.36,12.79,12.79,0,0,1,2.16-10.09,13,13,0,0,1,8.84-5.28h0a12.91,12.91,0,0,1,8.59,1.91,11.77,11.77,0,0,0,7.77,1.73l1.69-.22a.5.5,0,0,1,.56.43l1.72,13.31a.48.48,0,0,1-.1.37.45.45,0,0,1-.33.19l-1.69.22a11.72,11.72,0,0,0-7.08,3.65,12.88,12.88,0,0,1-8.93,4.13Zm-1.51-24.74h0a12,12,0,0,0-8.16,4.87,11.85,11.85,0,0,0-2,9.31,12,12,0,0,0,12.18,9.55,11.86,11.86,0,0,0,8.23-3.81,12.77,12.77,0,0,1,7.69-4l1.19-.15-1.59-12.33-1.19.16a12.75,12.75,0,0,1-8.44-1.87A11.87,11.87,0,0,0,512.39,334.15Z" style="fill:#263238"></path><rect x="526.17" y="341.86" width="13.42" height="3.32" transform="translate(260.5 916.04) rotate(-97.36)" style="fill:#fff"></rect><path d="M532.1,350.76a.39.39,0,0,1-.38-.33L530,337.12a.39.39,0,0,1,.33-.42l3.29-.42a.36.36,0,0,1,.42.32l1.72,13.31a.4.4,0,0,1-.07.28.35.35,0,0,1-.25.14l-3.3.43Zm-1.3-13.36L532.42,350l2.55-.33-1.63-12.57Z" style="fill:#263238"></path><path d="M529.47,341.43H542.9a0,0,0,0,1,0,0v.81a2.51,2.51,0,0,1-2.51,2.51H532a2.51,2.51,0,0,1-2.51-2.51v-.81A0,0,0,0,1,529.47,341.43Z" transform="translate(264.65 918.83) rotate(-97.36)" style="fill:#fff"></path><path d="M535.4,350.34a.4.4,0,0,1-.23-.08A.35.35,0,0,1,535,350l-1.72-13.32a.34.34,0,0,1,.07-.27.41.41,0,0,1,.25-.15l.8-.1a2.92,2.92,0,0,1,2.14.58,2.82,2.82,0,0,1,1.09,1.91l1.08,8.34a2.86,2.86,0,0,1-.57,2.13,2.89,2.89,0,0,1-1.92,1.1l-.8.1ZM534.1,337l1.62,12.57.44-.06a2.14,2.14,0,0,0,1.84-2.39l-1.08-8.33h0a2.12,2.12,0,0,0-2.39-1.84Z" style="fill:#263238"></path><path d="M534.46,341h10a0,0,0,0,1,0,0v.81a2.51,2.51,0,0,1-2.51,2.51h-5a2.51,2.51,0,0,1-2.51-2.51V341A0,0,0,0,1,534.46,341Z" transform="translate(268.79 921.61) rotate(-97.36)" style="fill:#263238"></path><path d="M538.47,348.23a.4.4,0,0,1-.23-.08.35.35,0,0,1-.14-.25L536.81,338a.4.4,0,0,1,.08-.28.35.35,0,0,1,.25-.14l.8-.1a2.87,2.87,0,0,1,3.23,2.49h0l.64,5a2.87,2.87,0,0,1-2.49,3.23l-.8.11Zm-.87-10,1.2,9.21.43-.06a2.09,2.09,0,0,0,1.41-.81,2.15,2.15,0,0,0,.43-1.58l-.64-5a2.15,2.15,0,0,0-2.39-1.84Z" style="fill:#263238"></path><polygon points="551.27 351.16 479 351.16 486.22 441.51 544.05 441.51 551.27 351.16" style="fill:#263238"></polygon><path d="M544.51,442H485.76l0-.46-7.28-90.89h73.37l-.05.54Zm-57.82-1h56.9l7.14-89.35H479.54Z" style="fill:#263238"></path></g><g id="light-bulb-3"><path d="M593.64,313a12.42,12.42,0,1,1-23.26-2,12.22,12.22,0,0,0,.72-8.27l-.44-1.65,13-3.46.44,1.64a12.14,12.14,0,0,0,4.74,6.82A12.36,12.36,0,0,1,593.64,313Z" style="fill:#fff"></path><path d="M581.67,329.12a12.92,12.92,0,0,1-11.75-18.35,11.68,11.68,0,0,0,.69-7.94l-.44-1.64a.5.5,0,0,1,.36-.61l13-3.46a.5.5,0,0,1,.61.35l.44,1.65a11.74,11.74,0,0,0,4.54,6.53,12.92,12.92,0,0,1-5,23.24A13.19,13.19,0,0,1,581.67,329.12Zm-10.4-27.7.31,1.16a12.72,12.72,0,0,1-.75,8.61,11.84,11.84,0,0,0-.39,9.07,12,12,0,0,0,13.45,7.64,11.82,11.82,0,0,0,7.86-5.38,12,12,0,0,0,1.41-9.39h0a12,12,0,0,0-4.64-6.66,12.74,12.74,0,0,1-4.94-7.1l-.31-1.16Z" style="fill:#263238"></path><rect x="570" y="296.06" width="13.42" height="3.32" transform="translate(-57.26 158.76) rotate(-14.94)" style="fill:#fff"></rect><path d="M570.66,301.43a.38.38,0,0,1-.37-.28l-.85-3.2a.38.38,0,0,1,.26-.46l13-3.46a.37.37,0,0,1,.46.26l.86,3.21a.38.38,0,0,1,0,.28.38.38,0,0,1-.23.18l-13,3.46Zm-.4-3.31.66,2.48,12.25-3.27-.66-2.48Z" style="fill:#263238"></path><path d="M571.65,292.85h8.41a2.51,2.51,0,0,1,2.51,2.51v.81a0,0,0,0,1,0,0H569.14a0,0,0,0,1,0,0v-.81A2.51,2.51,0,0,1,571.65,292.85Z" transform="translate(-56.46 158.43) rotate(-14.94)" style="fill:#fff"></path><path d="M569.8,298.22a.41.41,0,0,1-.19-.05.36.36,0,0,1-.17-.23l-.21-.79a2.89,2.89,0,0,1,2-3.53l8.12-2.16a2.87,2.87,0,0,1,3.53,2l.21.78a.37.37,0,0,1-.26.46l-13,3.46Zm10.34-6.11a2,2,0,0,0-.55.07h0l-8.13,2.17A2.14,2.14,0,0,0,570,297l.11.42,12.25-3.26-.11-.43a2.16,2.16,0,0,0-2.06-1.58Zm-.65-.29h0Z" style="fill:#263238"></path><path d="M572.49,289.64h5a2.51,2.51,0,0,1,2.51,2.51V293a0,0,0,0,1,0,0H570a0,0,0,0,1,0,0v-.81A2.51,2.51,0,0,1,572.49,289.64Z" transform="translate(-55.67 158.1) rotate(-14.94)" style="fill:#263238"></path><path d="M570.58,294.58a.33.33,0,0,1-.19-.06.34.34,0,0,1-.17-.22l-.21-.79a2.85,2.85,0,0,1,.29-2.19,2.88,2.88,0,0,1,1.75-1.34l4.85-1.29h0a2.88,2.88,0,0,1,3.53,2l.21.79a.35.35,0,0,1,0,.28.33.33,0,0,1-.23.17l-9.69,2.59Zm6.51-5.17-4.85,1.3a2.14,2.14,0,0,0-1.51,2.61l.11.42,9-2.39-.11-.43A2.15,2.15,0,0,0,577.09,289.41Z" style="fill:#263238"></path><path d="M344.62,112.63h-.05l-2-.25a.37.37,0,1,1,.09-.74l2,.25a.37.37,0,0,1,.32.42A.37.37,0,0,1,344.62,112.63Z" style="fill:#263238"></path><path d="M523.32,309.88a.38.38,0,0,1-.38-.37q0-2-.12-4a.38.38,0,0,1,.36-.4h0a.38.38,0,0,1,.38.36q.09,2,.12,4a.38.38,0,0,1-.36.38Zm-.49-9.92a.37.37,0,0,1-.38-.34c-.1-1.31-.22-2.63-.36-3.94a.37.37,0,0,1,.34-.41.37.37,0,0,1,.41.33c.13,1.32.26,2.64.36,4a.36.36,0,0,1-.34.4Zm-1.08-9.85a.37.37,0,0,1-.37-.33c-.18-1.3-.38-2.6-.59-3.91a.37.37,0,1,1,.74-.12c.21,1.31.41,2.62.59,3.93a.36.36,0,0,1-.32.42Zm-1.64-9.78a.38.38,0,0,1-.37-.3c-.25-1.3-.52-2.59-.81-3.88a.38.38,0,1,1,.74-.16c.28,1.3.55,2.59.8,3.89a.38.38,0,0,1-.29.44Zm-2.18-9.68a.36.36,0,0,1-.36-.28c-.33-1.28-.66-2.55-1-3.83a.37.37,0,0,1,.72-.2c.35,1.28.69,2.57,1,3.85a.38.38,0,0,1-.28.45Zm-2.68-9.54a.38.38,0,0,1-.36-.27c-.39-1.26-.8-2.51-1.21-3.77a.37.37,0,0,1,.24-.47.37.37,0,0,1,.47.24c.42,1.26.82,2.52,1.21,3.78a.37.37,0,0,1-.24.47Zm-3.18-9.4a.37.37,0,0,1-.35-.24c-.45-1.24-.92-2.48-1.4-3.71a.38.38,0,0,1,.22-.49.38.38,0,0,1,.48.22c.48,1.24,1,2.48,1.4,3.72a.38.38,0,0,1-.22.48A.3.3,0,0,1,512.07,251.71Zm-3.64-9.22a.38.38,0,0,1-.34-.23c-.51-1.22-1-2.43-1.58-3.64a.38.38,0,0,1,.69-.3c.54,1.21,1.06,2.43,1.58,3.64a.38.38,0,0,1-.2.5Zm-4.08-9a.39.39,0,0,1-.34-.21c-.57-1.19-1.15-2.38-1.75-3.56a.37.37,0,1,1,.67-.33c.6,1.18,1.19,2.37,1.76,3.56a.37.37,0,0,1-.18.5A.29.29,0,0,1,504.35,233.45Zm-4.51-8.84a.39.39,0,0,1-.33-.19c-.62-1.16-1.26-2.32-1.91-3.47a.37.37,0,0,1,.65-.37c.65,1.16,1.3,2.32,1.92,3.48a.38.38,0,0,1-.15.51A.39.39,0,0,1,499.84,224.61ZM494.93,216a.36.36,0,0,1-.32-.18c-.68-1.13-1.37-2.26-2.07-3.38a.36.36,0,0,1,.12-.51.37.37,0,0,1,.51.11c.71,1.13,1.4,2.26,2.08,3.39a.38.38,0,0,1-.13.52A.41.41,0,0,1,494.93,216Zm-5.3-8.38a.4.4,0,0,1-.32-.17c-.72-1.09-1.46-2.19-2.22-3.28a.37.37,0,1,1,.62-.42c.75,1.09,1.5,2.19,2.23,3.29a.38.38,0,0,1-.11.52A.36.36,0,0,1,489.63,207.62ZM484,199.49a.4.4,0,0,1-.31-.16c-.77-1.06-1.56-2.12-2.36-3.17a.37.37,0,1,1,.59-.46c.81,1.06,1.6,2.12,2.38,3.19a.38.38,0,0,1-.08.52A.4.4,0,0,1,484,199.49Zm-6-7.88a.41.41,0,0,1-.3-.14c-.82-1-1.65-2.05-2.5-3.07a.38.38,0,0,1,.58-.48c.85,1,1.68,2.05,2.51,3.08a.38.38,0,0,1-.06.53A.4.4,0,0,1,477.93,191.61ZM471.56,184a.39.39,0,0,1-.28-.12c-.87-1-1.74-2-2.63-3a.38.38,0,0,1,0-.53.39.39,0,0,1,.54,0q1.34,1.49,2.64,3a.38.38,0,0,1,0,.53A.38.38,0,0,1,471.56,184Zm-6.68-7.32a.36.36,0,0,1-.27-.12l-.87-.9-1.89-1.94a.39.39,0,0,1,0-.53.38.38,0,0,1,.53,0l1.9,1.95.87.91a.38.38,0,0,1,0,.53A.39.39,0,0,1,464.88,176.68Zm-7-7a.36.36,0,0,1-.26-.11c-1-.92-1.92-1.83-2.88-2.72a.38.38,0,0,1,0-.53.37.37,0,0,1,.53,0c1,.9,1.93,1.81,2.89,2.73a.38.38,0,0,1,0,.53A.37.37,0,0,1,457.89,169.65Zm-7.29-6.73a.38.38,0,0,1-.25-.09c-1-.88-2-1.75-3-2.6a.38.38,0,1,1,.49-.57c1,.86,2,1.72,3,2.6a.38.38,0,0,1,0,.53A.35.35,0,0,1,450.6,162.92Zm-7.57-6.4a.36.36,0,0,1-.24-.09c-1-.83-2.06-1.65-3.1-2.46a.38.38,0,0,1-.06-.53.37.37,0,0,1,.52-.06c1,.81,2.08,1.63,3.11,2.47a.38.38,0,0,1,.06.53A.37.37,0,0,1,443,156.52Zm-7.85-6.07a.36.36,0,0,1-.22-.07c-1.07-.79-2.14-1.56-3.21-2.32a.38.38,0,0,1,.44-.62c1.07.77,2.15,1.55,3.21,2.33a.37.37,0,0,1,.08.53A.36.36,0,0,1,435.18,150.45Zm-8.11-5.71a.42.42,0,0,1-.21-.06c-1.1-.74-2.2-1.46-3.31-2.18a.38.38,0,0,1,.41-.63c1.11.72,2.22,1.45,3.32,2.19a.37.37,0,0,1,.1.52A.36.36,0,0,1,427.07,144.74Zm-8.36-5.33a.41.41,0,0,1-.19,0c-1.14-.69-2.27-1.36-3.41-2a.39.39,0,0,1-.14-.52.38.38,0,0,1,.52-.13c1.14.66,2.28,1.34,3.41,2a.37.37,0,0,1-.19.69Zm-8.6-4.94a.31.31,0,0,1-.18-.05c-1.16-.63-2.33-1.25-3.5-1.85a.38.38,0,0,1,.35-.67c1.17.61,2.34,1.23,3.51,1.87a.36.36,0,0,1,.15.5A.38.38,0,0,1,410.11,134.47Zm-8.82-4.53a.51.51,0,0,1-.17,0c-1.19-.58-2.38-1.14-3.58-1.69a.38.38,0,0,1-.18-.5.37.37,0,0,1,.5-.18c1.2.55,2.4,1.11,3.59,1.69a.37.37,0,0,1,.18.5A.39.39,0,0,1,401.29,129.94Zm-9-4.09a.4.4,0,0,1-.15,0c-1.22-.52-2.44-1-3.66-1.51a.38.38,0,1,1,.28-.7c1.23.49,2.45,1,3.67,1.52a.37.37,0,0,1,.2.49A.38.38,0,0,1,392.26,125.85ZM383,122.2l-.13,0c-1.24-.46-2.48-.9-3.73-1.32a.38.38,0,0,1-.23-.48.37.37,0,0,1,.48-.23c1.25.43,2.5.87,3.74,1.33a.37.37,0,0,1,.23.48A.38.38,0,0,1,383,122.2ZM373.64,119h-.11c-1.27-.39-2.53-.77-3.8-1.13a.38.38,0,1,1,.21-.72c1.27.36,2.54.74,3.81,1.13a.37.37,0,0,1,.24.47A.36.36,0,0,1,373.64,119Zm-9.55-2.67H364c-1.28-.32-2.56-.62-3.85-.92a.37.37,0,0,1-.28-.45.38.38,0,0,1,.45-.28q1.94.43,3.87.93a.37.37,0,0,1-.09.73Zm-9.69-2.14h-.07c-1.3-.25-2.6-.48-3.89-.7a.38.38,0,0,1-.31-.43.37.37,0,0,1,.43-.31c1.31.22,2.61.46,3.91.71a.37.37,0,0,1,.3.44A.38.38,0,0,1,354.4,114.22Z" style="fill:#263238"></path><path d="M523.27,317.85h0a.38.38,0,0,1-.37-.38c0-.67,0-1.33.05-2a.37.37,0,0,1,.39-.36.36.36,0,0,1,.36.38c0,.67,0,1.34-.05,2A.37.37,0,0,1,523.27,317.85Z" style="fill:#263238"></path><path d="M525.38,319.52a.36.36,0,0,1-.2-.06.38.38,0,0,1-.11-.52s.42-.64,1.23-1.62a.37.37,0,0,1,.58.47,18.12,18.12,0,0,0-1.18,1.56A.37.37,0,0,1,525.38,319.52Z" style="fill:#263238"></path><path d="M534.72,310.82a.37.37,0,0,1-.31-.17.38.38,0,0,1,.11-.52,37.57,37.57,0,0,1,3.81-2.15.38.38,0,0,1,.51.17.37.37,0,0,1-.18.5,36.87,36.87,0,0,0-3.73,2.11A.42.42,0,0,1,534.72,310.82Zm14.06-5.47a.38.38,0,0,1-.37-.31.37.37,0,0,1,.3-.43,41.49,41.49,0,0,1,4.34-.54.35.35,0,0,1,.4.34.38.38,0,0,1-.35.41,40,40,0,0,0-4.26.53Z" style="fill:#263238"></path><path d="M565.87,305.63h-.07l-2-.33a.38.38,0,0,1-.31-.43.38.38,0,0,1,.43-.31c.65.1,1.31.21,2,.34a.37.37,0,0,1-.07.74Z" style="fill:#263238"></path><path d="M519.77,318.93h0l-3.55-.3a.36.36,0,0,1-.34-.4.36.36,0,0,1,.4-.34l3.55.29a.38.38,0,0,1,0,.75Z" style="fill:#263238"></path><path d="M520.36,315.09a.37.37,0,0,1-.34-.22l-1.48-3.25a.39.39,0,0,1,.19-.5.37.37,0,0,1,.49.19l1.48,3.25a.37.37,0,0,1-.18.49A.34.34,0,0,1,520.36,315.09Z" style="fill:#263238"></path><path d="M529.23,319.82a.39.39,0,0,1-.38-.34.37.37,0,0,1,.34-.41l2.95-.3a.38.38,0,0,1,.08.75l-3,.29Z" style="fill:#263238"></path></g><g id="light-bulbs-2"><path d="M565.82,416.28a12.42,12.42,0,1,0,2,23.27,12.13,12.13,0,0,1,8.28-.7l1.64.44,3.48-13-1.64-.44a12.16,12.16,0,0,1-6.8-4.75A12.39,12.39,0,0,0,565.82,416.28Z" style="fill:#92E3A9"></path><path d="M562.61,441.07A12.81,12.81,0,0,1,550,425.84a12.69,12.69,0,0,1,5.79-8.42,12.83,12.83,0,0,1,10.09-1.5h0a12.8,12.8,0,0,1,7.14,5,11.8,11.8,0,0,0,6.6,4.61l1.64.44a.38.38,0,0,1,.23.18.38.38,0,0,1,0,.28l-3.49,13a.36.36,0,0,1-.46.26l-1.64-.44a11.83,11.83,0,0,0-8,.68A12.74,12.74,0,0,1,562.61,441.07Zm0-24.84a12.11,12.11,0,0,0-6.39,1.82,12,12,0,0,0-5.45,7.93,12,12,0,0,0,16.86,13.23,12.6,12.6,0,0,1,8.53-.73l1.29.35,3.28-12.24-1.28-.35a12.52,12.52,0,0,1-7-4.9,12,12,0,0,0-9.83-5.11Z" style="fill:#263238"></path><rect x="574.36" y="431.58" width="13.42" height="3.32" transform="translate(11.84 881.92) rotate(-74.95)" style="fill:#fff"></rect><path d="M580.93,440.53l-.1,0-3.2-.86a.37.37,0,0,1-.27-.46l3.49-13A.33.33,0,0,1,581,426a.37.37,0,0,1,.29,0l3.2.86a.38.38,0,0,1,.27.46l-3.49,13a.39.39,0,0,1-.17.23A.41.41,0,0,1,580.93,440.53ZM578.18,439l2.49.67L584,427.45l-2.49-.67Z" style="fill:#263238"></path><path d="M577.57,432.44H591a0,0,0,0,1,0,0v.81a2.51,2.51,0,0,1-2.51,2.51h-8.41a2.51,2.51,0,0,1-2.51-2.51v-.81A0,0,0,0,1,577.57,432.44Z" transform="matrix(0.26, -0.97, 0.97, 0.26, 13.39, 885.66)" style="fill:#fff"></path><path d="M582.38,440.83a3.3,3.3,0,0,1-.76-.1l-.78-.21a.38.38,0,0,1-.23-.18.35.35,0,0,1,0-.28l3.48-13a.44.44,0,0,1,.17-.23.37.37,0,0,1,.29,0l.78.21a2.82,2.82,0,0,1,1.75,1.34,2.85,2.85,0,0,1,.29,2.19l-2.18,8.12a2.89,2.89,0,0,1-1.35,1.75A2.8,2.8,0,0,1,582.38,440.83Zm-1-.94.42.11a2.12,2.12,0,0,0,2.61-1.51l2.19-8.11h0a2.13,2.13,0,0,0-.22-1.62,2.09,2.09,0,0,0-1.29-1l-.42-.11Z" style="fill:#263238"></path><path d="M582.47,433.3h10a0,0,0,0,1,0,0v.81a2.51,2.51,0,0,1-2.51,2.51h-5a2.51,2.51,0,0,1-2.51-2.51v-.81a0,0,0,0,1,0,0Z" transform="translate(14.93 889.4) rotate(-74.95)" style="fill:#263238"></path><path d="M586,440.05a2.74,2.74,0,0,1-.74-.1l-.79-.21a.37.37,0,0,1-.26-.46l2.6-9.69a.38.38,0,0,1,.18-.23.39.39,0,0,1,.28,0l.79.21a2.89,2.89,0,0,1,2,3.54h0l-1.3,4.85A2.89,2.89,0,0,1,586,440.05Zm-1-.94.42.12a2.15,2.15,0,0,0,2.62-1.51l1.3-4.85a2.14,2.14,0,0,0-1.51-2.61l-.42-.11Zm4.7-6.14h0Z" style="fill:#263238"></path><path d="M436,416.28a12.42,12.42,0,1,0,2,23.27,12.13,12.13,0,0,1,8.28-.7l1.65.44,3.48-13-1.64-.44a12.18,12.18,0,0,1-6.81-4.75A12.36,12.36,0,0,0,436,416.28Z" style="fill:#92E3A9"></path><path d="M432.8,441.07a12.81,12.81,0,0,1-12.57-15.23,12.66,12.66,0,0,1,5.79-8.42,12.83,12.83,0,0,1,10.09-1.5h0a12.84,12.84,0,0,1,7.14,5,11.78,11.78,0,0,0,6.59,4.61l1.65.44a.41.41,0,0,1,.23.18.34.34,0,0,1,0,.28l-3.48,13a.37.37,0,0,1-.46.26l-1.64-.44a11.83,11.83,0,0,0-8,.68A12.77,12.77,0,0,1,432.8,441.07Zm0-24.84a12,12,0,1,0,5,23,12.6,12.6,0,0,1,8.53-.73l1.28.35,3.29-12.24-1.28-.35a12.57,12.57,0,0,1-7-4.9,12,12,0,0,0-6.72-4.7h0A12.19,12.19,0,0,0,432.8,416.23Z" style="fill:#263238"></path><rect x="444.54" y="431.58" width="13.42" height="3.32" transform="translate(-84.27 756.56) rotate(-74.95)" style="fill:#fff"></rect><path d="M451.12,440.53l-.1,0-3.21-.86a.37.37,0,0,1-.26-.46l3.48-13a.38.38,0,0,1,.18-.23.34.34,0,0,1,.28,0l3.21.86a.37.37,0,0,1,.26.46l-3.48,13a.41.41,0,0,1-.18.23A.37.37,0,0,1,451.12,440.53ZM448.37,439l2.48.67,3.29-12.24-2.48-.67Z" style="fill:#263238"></path><path d="M447.76,432.44h13.42a0,0,0,0,1,0,0v.81a2.51,2.51,0,0,1-2.51,2.51h-8.41a2.51,2.51,0,0,1-2.51-2.51v-.81a0,0,0,0,1,0,0Z" transform="translate(-82.73 760.3) rotate(-74.95)" style="fill:#fff"></path><path d="M452.56,440.83a3.22,3.22,0,0,1-.75-.1l-.78-.21a.38.38,0,0,1-.23-.18.4.4,0,0,1,0-.28l3.49-13a.39.39,0,0,1,.17-.23.37.37,0,0,1,.29,0l.78.21a2.85,2.85,0,0,1,1.75,1.34,2.89,2.89,0,0,1,.29,2.19h0l-2.19,8.12a2.89,2.89,0,0,1-2.78,2.14Zm-1-.94.42.11a2.14,2.14,0,0,0,2.62-1.51l2.18-8.11a2.13,2.13,0,0,0-.21-1.62,2.09,2.09,0,0,0-1.29-1l-.43-.11Zm5.58-9.42h0Z" style="fill:#263238"></path><path d="M452.65,433.3h10a0,0,0,0,1,0,0v.81a2.51,2.51,0,0,1-2.51,2.51h-5a2.51,2.51,0,0,1-2.51-2.51v-.81a0,0,0,0,1,0,0Z" transform="translate(-81.18 764.04) rotate(-74.96)" style="fill:#263238"></path><path d="M456.2,440.05a2.76,2.76,0,0,1-.75-.1l-.78-.21a.38.38,0,0,1-.27-.46l2.61-9.69a.4.4,0,0,1,.17-.23.42.42,0,0,1,.29,0l.78.21a2.9,2.9,0,0,1,2,3.54l-1.3,4.85A2.9,2.9,0,0,1,456.2,440.05Zm-1-.94.42.12a2.13,2.13,0,0,0,2.61-1.51l1.3-4.85h0a2.12,2.12,0,0,0-1.5-2.61l-.42-.11Z" style="fill:#263238"></path><path d="M495.85,416.28a12.42,12.42,0,1,1-2,23.27,12.14,12.14,0,0,0-8.28-.7l-1.65.44-3.48-13,1.64-.44a12.18,12.18,0,0,0,6.81-4.75A12.36,12.36,0,0,1,495.85,416.28Z" style="fill:#fff"></path><path d="M499.06,441.19a12.7,12.7,0,0,1-5.39-1.19,11.75,11.75,0,0,0-7.94-.67l-1.65.44a.5.5,0,0,1-.61-.35l-3.48-13a.47.47,0,0,1,.05-.38.5.5,0,0,1,.3-.23l1.64-.44a11.66,11.66,0,0,0,6.53-4.56,12.87,12.87,0,0,1,7.21-5h0a12.92,12.92,0,1,1,3.34,25.39Zm-10.3-3.26a12.65,12.65,0,0,1,5.33,1.17,11.92,11.92,0,0,0,11.29-20.94,11.9,11.9,0,0,0-16.05,3.26,12.69,12.69,0,0,1-7.09,4.94l-1.16.32,3.23,12,1.16-.32A12.7,12.7,0,0,1,488.76,437.93Z" style="fill:#263238"></path><rect x="473.89" y="431.58" width="13.42" height="3.32" transform="translate(186.98 1009.83) rotate(-105.05)" style="fill:#fff"></rect><path d="M480.74,440.53a.37.37,0,0,1-.18,0,.41.41,0,0,1-.18-.23l-3.48-13a.37.37,0,0,1,.26-.46l3.21-.86a.34.34,0,0,1,.28,0,.38.38,0,0,1,.18.23l3.48,13a.37.37,0,0,1-.26.46l-3.21.86Zm-3-13.08L481,439.69l2.48-.67-3.29-12.24Z" style="fill:#263238"></path><path d="M473.19,432.44h8.41A2.51,2.51,0,0,1,484.1,435v.81a0,0,0,0,1,0,0H470.68a0,0,0,0,1,0,0V435A2.51,2.51,0,0,1,473.19,432.44Z" transform="translate(182.1 1007.82) rotate(-105.05)" style="fill:#fff"></path><path d="M479.3,440.83a2.83,2.83,0,0,1-1.44-.39,2.87,2.87,0,0,1-1.34-1.75l-2.19-8.12h0a2.89,2.89,0,0,1,.29-2.19,2.85,2.85,0,0,1,1.75-1.34l.78-.21a.37.37,0,0,1,.29,0,.39.39,0,0,1,.17.23l3.49,13a.4.4,0,0,1,0,.28.38.38,0,0,1-.23.18l-.78.21A3.22,3.22,0,0,1,479.3,440.83Zm-4.24-10.45,2.18,8.11a2.14,2.14,0,0,0,1,1.3,2.11,2.11,0,0,0,1.61.21l.43-.11L477,427.65l-.43.11a2.09,2.09,0,0,0-1.29,1,2.13,2.13,0,0,0-.21,1.62Z" style="fill:#263238"></path><path d="M471.68,433.3h5a2.51,2.51,0,0,1,2.51,2.51v.81a0,0,0,0,1,0,0h-10a0,0,0,0,1,0,0v-.81A2.51,2.51,0,0,1,471.68,433.3Z" transform="translate(177.24 1005.81) rotate(-105.05)" style="fill:#263238"></path><path d="M475.66,440.05a2.9,2.9,0,0,1-2.79-2.13l-1.3-4.85h0a2.9,2.9,0,0,1,2-3.54l.78-.21a.38.38,0,0,1,.28,0,.38.38,0,0,1,.18.23l2.61,9.69a.38.38,0,0,1-.27.46l-.78.21A2.76,2.76,0,0,1,475.66,440.05Zm-3.37-7.18,1.31,4.85a2.13,2.13,0,0,0,2.61,1.51l.42-.12-2.41-9-.42.11a2.11,2.11,0,0,0-1.29,1,2.14,2.14,0,0,0-.22,1.62Z" style="fill:#263238"></path><path d="M640.49,416.28a12.42,12.42,0,1,1-2,23.27,12.14,12.14,0,0,0-8.28-.7l-1.65.44-3.48-13,1.64-.44a12.18,12.18,0,0,0,6.81-4.75A12.33,12.33,0,0,1,640.49,416.28Z" style="fill:#fff"></path><path d="M643.7,441.19a12.7,12.7,0,0,1-5.39-1.19,11.75,11.75,0,0,0-7.94-.67l-1.65.44a.5.5,0,0,1-.61-.35l-3.48-13a.51.51,0,0,1,0-.38.56.56,0,0,1,.31-.23l1.64-.44a11.69,11.69,0,0,0,6.53-4.56,12.87,12.87,0,0,1,7.21-5h0a12.92,12.92,0,1,1,3.34,25.39Zm-10.3-3.26a12.65,12.65,0,0,1,5.33,1.17A11.92,11.92,0,0,0,650,418.16a11.9,11.9,0,0,0-16,3.26,12.69,12.69,0,0,1-7.09,4.94l-1.16.32,3.23,12,1.16-.32A12.7,12.7,0,0,1,633.4,437.93Z" style="fill:#263238"></path><rect x="618.53" y="431.58" width="13.42" height="3.32" transform="translate(369.17 1149.51) rotate(-105.05)" style="fill:#fff"></rect><path d="M625.38,440.53a.37.37,0,0,1-.18,0,.41.41,0,0,1-.18-.23l-3.48-13a.37.37,0,0,1,.26-.46L625,426a.35.35,0,0,1,.28,0,.38.38,0,0,1,.18.23l3.48,13a.37.37,0,0,1-.26.46l-3.21.86Zm-3-13.08,3.29,12.24,2.48-.67-3.29-12.24Z" style="fill:#263238"></path><path d="M617.83,432.44h8.41a2.51,2.51,0,0,1,2.51,2.51v.81a0,0,0,0,1,0,0H615.32a0,0,0,0,1,0,0V435A2.51,2.51,0,0,1,617.83,432.44Z" transform="translate(364.28 1147.5) rotate(-105.05)" style="fill:#fff"></path><path d="M623.93,440.83a2.82,2.82,0,0,1-1.43-.39,2.89,2.89,0,0,1-1.35-1.75L619,430.57h0a2.85,2.85,0,0,1,.29-2.19A2.82,2.82,0,0,1,621,427l.78-.21a.37.37,0,0,1,.29,0,.39.39,0,0,1,.17.23l3.49,13a.4.4,0,0,1,0,.28.38.38,0,0,1-.23.18l-.78.21A3.23,3.23,0,0,1,623.93,440.83Zm-4.23-10.45,2.18,8.11a2.16,2.16,0,0,0,1,1.3,2.14,2.14,0,0,0,1.62.21l.43-.11-3.29-12.24-.43.11a2.14,2.14,0,0,0-1.5,2.62Z" style="fill:#263238"></path><path d="M616.32,433.3h5a2.51,2.51,0,0,1,2.51,2.51v.81a0,0,0,0,1,0,0h-10a0,0,0,0,1,0,0v-.81A2.51,2.51,0,0,1,616.32,433.3Z" transform="matrix(-0.26, -0.97, 0.97, -0.26, 359.42, 1145.49)" style="fill:#263238"></path><path d="M620.3,440.05a2.9,2.9,0,0,1-2.79-2.13l-1.3-4.85a2.9,2.9,0,0,1,2-3.54l.78-.21a.38.38,0,0,1,.28,0,.38.38,0,0,1,.18.23l2.6,9.69a.37.37,0,0,1-.26.46l-.78.21A2.76,2.76,0,0,1,620.3,440.05Zm-1.44-9.9-.42.11a2.16,2.16,0,0,0-1.3,1,2.18,2.18,0,0,0-.21,1.62h0l1.31,4.85a2.13,2.13,0,0,0,2.61,1.51l.42-.12Z" style="fill:#263238"></path></g><g id="light-bulbs-1"><path d="M277.51,103.12a12.42,12.42,0,1,0-22,7.94,12.2,12.2,0,0,1,2.83,7.82v1.7H271.8v-1.7a12.16,12.16,0,0,1,2.82-7.81A12.36,12.36,0,0,0,277.51,103.12Z" style="fill:#fff"></path><path d="M271.8,121.08H258.38a.5.5,0,0,1-.5-.5v-1.7a11.74,11.74,0,0,0-2.72-7.5,12.84,12.84,0,0,1-2.94-9.38A12.92,12.92,0,1,1,275,111.39a11.68,11.68,0,0,0-2.71,7.49v1.7A.5.5,0,0,1,271.8,121.08Zm-12.92-1H271.3v-1.2a12.66,12.66,0,0,1,2.94-8.13,11.92,11.92,0,1,0-18.31,0,12.74,12.74,0,0,1,2.95,8.14Z" style="fill:#263238"></path><rect x="258.38" y="120.58" width="13.42" height="3.32" style="fill:#fff"></rect><path d="M271.8,124.4H258.38a.5.5,0,0,1-.5-.5v-3.32a.5.5,0,0,1,.5-.5H271.8a.5.5,0,0,1,.5.5v3.32A.5.5,0,0,1,271.8,124.4Zm-12.92-1H271.3v-2.32H258.88Z" style="fill:#263238"></path><path d="M258.38,123.91H271.8a0,0,0,0,1,0,0v.81a2.51,2.51,0,0,1-2.51,2.51h-8.41a2.51,2.51,0,0,1-2.51-2.51v-.81A0,0,0,0,1,258.38,123.91Z" style="fill:#fff"></path><path d="M269.29,127.73h-8.41a3,3,0,0,1-3-3v-.81a.5.5,0,0,1,.5-.5H271.8a.5.5,0,0,1,.5.5v.81A3,3,0,0,1,269.29,127.73Zm-10.41-3.32v.31a2,2,0,0,0,2,2h8.41a2,2,0,0,0,2-2v-.31Z" style="fill:#263238"></path><path d="M260.07,127.23h10a0,0,0,0,1,0,0V128a2.51,2.51,0,0,1-2.51,2.51h-5a2.51,2.51,0,0,1-2.51-2.51v-.81A0,0,0,0,1,260.07,127.23Z" style="fill:#fff"></path><path d="M267.6,131.05h-5a3,3,0,0,1-3-3v-.81a.5.5,0,0,1,.5-.5h10a.5.5,0,0,1,.5.5V128A3,3,0,0,1,267.6,131.05Zm-7-3.32V128a2,2,0,0,0,2,2h5a2,2,0,0,0,2-2v-.31Z" style="fill:#263238"></path><path d="M285,103.68h-5.69a.5.5,0,0,1-.5-.5.5.5,0,0,1,.5-.5H285a.51.51,0,0,1,.5.5A.5.5,0,0,1,285,103.68Z" style="fill:#263238"></path><path d="M250.45,103.68h-5.76a.5.5,0,0,1-.5-.5.5.5,0,0,1,.5-.5h5.76a.51.51,0,0,1,.5.5A.5.5,0,0,1,250.45,103.68Z" style="fill:#263238"></path><path d="M264.82,89.25a.5.5,0,0,1-.5-.5v-5.7a.5.5,0,0,1,1,0v5.7A.5.5,0,0,1,264.82,89.25Z" style="fill:#263238"></path><path d="M275.13,93.37a.52.52,0,0,1-.35-.14.5.5,0,0,1,0-.71l3.92-3.93a.51.51,0,0,1,.71,0,.5.5,0,0,1,0,.71l-3.93,3.93A.5.5,0,0,1,275.13,93.37Z" style="fill:#263238"></path><path d="M250.58,117.92a.5.5,0,0,1-.35-.15.48.48,0,0,1,0-.7l4-4a.51.51,0,0,1,.71,0,.5.5,0,0,1,0,.71l-4,4A.51.51,0,0,1,250.58,117.92Z" style="fill:#263238"></path><path d="M254.4,93.26a.51.51,0,0,1-.36-.15l-3.81-3.81a.5.5,0,0,1,0-.71.51.51,0,0,1,.71,0l3.81,3.81a.5.5,0,0,1,0,.71A.5.5,0,0,1,254.4,93.26Z" style="fill:#263238"></path><path d="M279.06,117.92a.51.51,0,0,1-.36-.15L274.91,114a.5.5,0,0,1,0-.71.48.48,0,0,1,.7,0l3.8,3.8a.5.5,0,0,1-.35.85Z" style="fill:#263238"></path><path d="M232.32,140.2a8,8,0,1,0-14.09,5.1,7.83,7.83,0,0,1,1.82,5v1.09h8.61v-1.09a7.77,7.77,0,0,1,1.81-5A8,8,0,0,0,232.32,140.2Z" style="fill:#fff"></path><path d="M228.66,151.9h-8.61a.5.5,0,0,1-.5-.5v-1.09a7.36,7.36,0,0,0-1.7-4.69,8.47,8.47,0,1,1,13,0,7.33,7.33,0,0,0-1.69,4.69v1.09A.5.5,0,0,1,228.66,151.9Zm-8.11-1h7.61v-.59a8.34,8.34,0,0,1,1.92-5.33,7.46,7.46,0,1,0-11.47,0,8.3,8.3,0,0,1,1.94,5.33Z" style="fill:#263238"></path><rect x="220.05" y="151.4" width="8.61" height="2.13" style="fill:#fff"></rect><path d="M228.66,154h-8.61a.5.5,0,0,1-.5-.5V151.4a.5.5,0,0,1,.5-.5h8.61a.51.51,0,0,1,.5.5v2.13A.5.5,0,0,1,228.66,154Zm-8.11-1h7.61V151.9h-7.61Z" style="fill:#263238"></path><path d="M226.53,155.67h-4.35a2.13,2.13,0,0,1-2.13-2.13h8.61A2.14,2.14,0,0,1,226.53,155.67Z" style="fill:#fff"></path><path d="M226.53,156.17h-4.35a2.63,2.63,0,0,1-2.63-2.63.5.5,0,0,1,.5-.5h8.61a.5.5,0,0,1,.5.5A2.63,2.63,0,0,1,226.53,156.17ZM220.62,154a1.65,1.65,0,0,0,1.56,1.13h4.35a1.64,1.64,0,0,0,1.55-1.13Z" style="fill:#263238"></path><path d="M225.44,157.79h-2.18a2.13,2.13,0,0,1-2.13-2.13h6.44A2.13,2.13,0,0,1,225.44,157.79Z" style="fill:#fff"></path><path d="M225.44,158.29h-2.18a2.63,2.63,0,0,1-2.63-2.63.51.51,0,0,1,.5-.5h6.44a.5.5,0,0,1,.5.5A2.63,2.63,0,0,1,225.44,158.29Zm-3.73-2.13a1.63,1.63,0,0,0,1.55,1.13h2.18a1.63,1.63,0,0,0,1.55-1.13Z" style="fill:#263238"></path><path d="M237.1,140.74h-3.65a.5.5,0,0,1-.5-.5.5.5,0,0,1,.5-.5h3.65a.51.51,0,0,1,.5.5A.5.5,0,0,1,237.1,140.74Z" style="fill:#263238"></path><path d="M215,140.74h-3.7a.5.5,0,0,1-.5-.5.51.51,0,0,1,.5-.5H215a.5.5,0,0,1,.5.5A.5.5,0,0,1,215,140.74Z" style="fill:#263238"></path><path d="M224.18,131.49a.5.5,0,0,1-.5-.5v-3.66a.5.5,0,1,1,1,0V131A.5.5,0,0,1,224.18,131.49Z" style="fill:#263238"></path><path d="M230.79,134.13a.5.5,0,0,1-.35-.15.51.51,0,0,1,0-.71l2.52-2.51a.5.5,0,0,1,.71,0,.5.5,0,0,1,0,.7L231.15,134A.51.51,0,0,1,230.79,134.13Z" style="fill:#263238"></path><path d="M215.05,149.88a.51.51,0,0,1-.36-.15.51.51,0,0,1,0-.71l2.56-2.55a.5.5,0,0,1,.71,0,.5.5,0,0,1,0,.7l-2.56,2.56A.49.49,0,0,1,215.05,149.88Z" style="fill:#263238"></path><path d="M217.49,134.06a.5.5,0,0,1-.35-.15l-2.45-2.45a.5.5,0,0,1,0-.7.5.5,0,0,1,.71,0l2.45,2.44a.51.51,0,0,1,0,.71A.51.51,0,0,1,217.49,134.06Z" style="fill:#263238"></path><path d="M233.31,149.88a.5.5,0,0,1-.35-.15l-2.44-2.44a.5.5,0,0,1,0-.7.5.5,0,0,1,.71,0l2.44,2.43a.51.51,0,0,1,0,.71A.51.51,0,0,1,233.31,149.88Z" style="fill:#263238"></path></g></svg>