<svg xmlns="http://www.w3.org/2000/svg" viewBox="0 0 500 500"><g id="background-simple"><path d="M485.64,269.71c.09-1.07.17-2.15.31-3.22,1.5-11.49,8.48-97.86-100-206.5C269.31-56.77,141.86,74.37,119.85,108.65s-28.43,86.92-45.42,52.28c-10.5-21.41,16.88-48.23-21.91-37-24.88,7.19-71.1,70.78-33.21,180s144.3,192.62,246.57,186.54c131.52-7.82,209-103.2,202.81-110.29s-55.13,14.06-44.37-.67C434.91,365,482.55,310.25,485.64,269.71Z" style="fill:#92E3A9"></path><path d="M485.64,269.71c.09-1.07.17-2.15.31-3.22,1.5-11.49,8.48-97.86-100-206.5C269.31-56.77,141.86,74.37,119.85,108.65s-28.43,86.92-45.42,52.28c-10.5-21.41,16.88-48.23-21.91-37-24.88,7.19-71.1,70.78-33.21,180s144.3,192.62,246.57,186.54c131.52-7.82,209-103.2,202.81-110.29s-55.13,14.06-44.37-.67C434.91,365,482.55,310.25,485.64,269.71Z" style="fill:#fff;opacity:0.8"></path></g><g id="Plant"><path d="M46.21,243.06s-3.12,8.58-9.75,9.75-18.34-11.7-10.93-18.34S43.09,238.38,46.21,243.06Z" style="fill:#92E3A9;stroke:#263238;stroke-linecap:round;stroke-linejoin:round;stroke-width:0.75px"></path><path d="M56.35,200.93s-9.75,23.79-5.85,35.5,28.08,20.28,35.1,5.07S77,204.83,71.17,200.15,58.3,197,56.35,200.93Z" style="fill:#92E3A9;stroke:#263238;stroke-linecap:round;stroke-linejoin:round;stroke-width:0.75px"></path><path d="M113.29,211.07S96.52,226.28,94.57,241.5s9.36,20.67,21.06,18.72,17.55-31.6,14-45.25S113.29,211.07,113.29,211.07Z" style="fill:#92E3A9;stroke:#263238;stroke-linecap:round;stroke-linejoin:round;stroke-width:0.75px"></path><path d="M116.41,295.32s-18.72.78-19.5,9.75,8.19,10.92,17.16,3.12S124.21,295.71,116.41,295.32Z" style="fill:#92E3A9;stroke:#263238;stroke-linecap:round;stroke-linejoin:round;stroke-width:0.75px"></path><path d="M97.22,307.21s14.75-6.75,21.4-7.93" style="fill:none;stroke:#263238;stroke-miterlimit:10;stroke-width:0.75px"></path><path d="M120.58,354s-13.75-12.73-20.66-7-2,13.51,9.89,14.37S125.81,359.82,120.58,354Z" style="fill:#92E3A9;stroke:#263238;stroke-linecap:round;stroke-linejoin:round;stroke-width:0.75px"></path><path d="M98.62,348.79s15.19,5.7,20.71,9.59" style="fill:none;stroke:#263238;stroke-miterlimit:10;stroke-width:0.75px"></path><path d="M48.05,350.27s19-17.55,28.48-9.59,2.72,18.62-13.63,19.81S40.85,358.27,48.05,350.27Z" style="fill:#92E3A9;stroke:#263238;stroke-linecap:round;stroke-linejoin:round;stroke-width:0.75px"></path><path d="M78.32,343.06s-20.94,7.86-28.54,13.22" style="fill:none;stroke:#263238;stroke-miterlimit:10;stroke-width:0.75px"></path><path d="M70,314s-2,9.36-9,12.87S41.53,323,48.16,311.7,66.49,309.36,70,314Z" style="fill:#92E3A9;stroke:#263238;stroke-linecap:round;stroke-linejoin:round;stroke-width:0.75px"></path><path d="M53.62,284.79s-3.51-7.8-17.16-2.73-19.12,12.87-10.54,15.6S53.62,284.79,53.62,284.79Z" style="fill:#92E3A9;stroke:#263238;stroke-linecap:round;stroke-linejoin:round;stroke-width:0.75px"></path><path d="M51,284.43S36.54,286,28.72,292.64" style="fill:none;stroke:#263238;stroke-miterlimit:10;stroke-width:0.75px"></path><path d="M92.62,191.18s2.34,5.46,7,4.29,5.85-8.19,13.26-6.24,13.65,10.53,13.65,6.63-9.36-14-19.89-14S93,186.11,92.62,191.18Z" style="fill:#92E3A9;stroke:#263238;stroke-linecap:round;stroke-linejoin:round;stroke-width:0.75px"></path><path d="M53.62,284.79s16.79-3.23,23.78,15.42a51.91,51.91,0,0,1,1.76,5.71" style="fill:none;stroke:#263238;stroke-miterlimit:10;stroke-width:0.75px"></path><path d="M123.71,266.72s3.51-7.8,17.16-2.73,19.11,12.87,10.53,15.6S123.71,266.72,123.71,266.72Z" style="fill:#92E3A9;stroke:#263238;stroke-linecap:round;stroke-linejoin:round;stroke-width:0.75px"></path><path d="M126.83,267.24s14.07-.79,20.71,7.42" style="fill:none;stroke:#263238;stroke-miterlimit:10;stroke-width:0.75px"></path><path d="M123.71,266.72a21.6,21.6,0,0,0-11.63,1.59" style="fill:none;stroke:#263238;stroke-miterlimit:10;stroke-width:0.75px"></path><path d="M62.57,252.73c-8.23-8.41-16.36-9.67-16.36-9.67s-12-3.18-16.7,1.12" style="fill:none;stroke:#263238;stroke-miterlimit:10;stroke-width:0.75px"></path><line x1="64.24" y1="209.52" x2="63.51" y2="206.26" style="fill:none;stroke:#263238;stroke-miterlimit:10;stroke-width:0.75px"></line><path d="M83.23,378s1.75-63.25,0-83.64-9.91-44.3-9.91-44.3L65,213" style="fill:none;stroke:#263238;stroke-miterlimit:10;stroke-width:0.75px"></path><line x1="117.9" y1="223.95" x2="119.4" y2="220.73" style="fill:none;stroke:#263238;stroke-miterlimit:10;stroke-width:0.75px"></line><path d="M87.31,378s.58-57.35,2.92-74.83,11.65-44.88,11.65-44.88l14.31-30.65" style="fill:none;stroke:#263238;stroke-miterlimit:10;stroke-width:0.75px"></path><path d="M97.22,307.21s-4.08,31.21-6.41,70.84" style="fill:none;stroke:#263238;stroke-miterlimit:10;stroke-width:0.75px"></path><path d="M77.4,378s1.17-52.1-1.16-59.68S70,314,70,314s-10.79,1.27-14.7,7.52" style="fill:none;stroke:#263238;stroke-miterlimit:10;stroke-width:0.75px"></path><path d="M80.08,310.29c3,17.08.24,67.73.24,67.73" style="fill:none;stroke:#263238;stroke-miterlimit:10;stroke-width:0.75px"></path><path d="M108.78,270.14c-3.38,2.31-6.62,6-8.86,12-7,18.65-6.2,95.9-6.2,95.9" style="fill:none;stroke:#263238;stroke-miterlimit:10;stroke-width:0.75px"></path><path d="M64.6,255a55.37,55.37,0,0,1,9.89,17.87C83.82,299.63,87.31,365.14,85.56,378" style="fill:none;stroke:#263238;stroke-miterlimit:10;stroke-width:0.75px"></path><path d="M88.28,280c-.57,33.84-1,97.92-1,97.92" style="fill:none;stroke:#263238;stroke-miterlimit:10;stroke-width:0.75px"></path><path d="M88.35,275.83c.39-22.37.84-44.27,1.29-56,1.17-30.31,3-28.61,3-28.61s2.16-6.8,14.27-6" style="fill:none;stroke:#263238;stroke-miterlimit:10;stroke-width:0.75px"></path><path d="M73.43,301.38s-9.75-8.69-5.85-13,28.08-7.41,35.1-1.85S94.1,300,88.25,301.67,75.38,302.81,73.43,301.38Z" style="fill:#92E3A9;stroke:#263238;stroke-linecap:round;stroke-linejoin:round;stroke-width:0.75px"></path><path d="M82.43,294.26a18,18,0,0,0-.21,2.6" style="fill:none;stroke:#263238;stroke-miterlimit:10;stroke-width:0.75px"></path><path d="M85.78,284.11a44,44,0,0,0-2.5,6.46" style="fill:none;stroke:#263238;stroke-miterlimit:10;stroke-width:0.75px"></path><path d="M73.43,358.23s-9.75-8.69-5.85-13,28.08-7.41,35.1-1.85-8.58,13.4-14.43,15.11S75.38,359.66,73.43,358.23Z" style="fill:#92E3A9;stroke:#263238;stroke-linecap:round;stroke-linejoin:round;stroke-width:0.75px"></path><path d="M85.78,341s-3.56,7.14-3.56,12.75" style="fill:none;stroke:#263238;stroke-miterlimit:10;stroke-width:0.75px"></path><path d="M80.69,334.19s-6.62-5.9-4-8.81,19.07-5,23.84-1.26-5.83,9.1-9.8,10.26S82,335.16,80.69,334.19Z" style="fill:#92E3A9;stroke:#263238;stroke-linecap:round;stroke-linejoin:round;stroke-width:0.75px"></path><path d="M89.08,322.46s-2.43,4.85-2.43,8.66" style="fill:none;stroke:#263238;stroke-miterlimit:10;stroke-width:0.75px"></path><rect x="71.53" y="372.21" width="26.4" height="5.7" style="fill:#263238;stroke:#263238;stroke-linecap:round;stroke-linejoin:round;stroke-width:0.75px"></rect></g><g id="Picture"><rect x="296.59" y="26.77" width="172.28" height="240.99" transform="translate(765.46 294.53) rotate(180)" style="fill:none;stroke:#263238;stroke-linecap:round;stroke-linejoin:round"></rect><polyline points="416.17 35.06 461.53 35.06 461.53 259.48 331.03 259.48" style="fill:none;stroke:#263238;stroke-linecap:round;stroke-linejoin:round"></polyline><polyline points="326.83 259.48 303.93 259.48 303.93 35.06 410.92 35.06" style="fill:none;stroke:#263238;stroke-linecap:round;stroke-linejoin:round"></polyline><path d="M303.93,35.06s21.34,47.32,39.51,44.52,15.38-43.34,15.38-43.34" style="fill:none;stroke:#263238;stroke-linecap:round;stroke-linejoin:round"></path><path d="M382.15,101.86c-1.25-29,.2-50.78,2.57-66.8" style="fill:none;stroke:#263238;stroke-linecap:round;stroke-linejoin:round"></path><path d="M434.93,259.47c-13.12-13.4-36.31-44-46.85-100.26-1.71-9.12-3.09-18.89-4-29.38-.68-7.5-1.2-14.6-1.57-21.35" style="fill:none;stroke:#263238;stroke-linecap:round;stroke-linejoin:round"></path><path d="M375.09,232.71c4.3-17.91,6.94-41.16,1-64.06a92.57,92.57,0,0,0-19.38-37.38c-19-22.21-37.51-17.82-52.8-4.78" style="fill:none;stroke:#263238;stroke-linecap:round;stroke-linejoin:round"></path><path d="M366.4,259.47A178.72,178.72,0,0,0,373.74,238" style="fill:none;stroke:#263238;stroke-linecap:round;stroke-linejoin:round"></path><path d="M327.25,199.77q-11.42,5.91-23.32,10.75" style="fill:none;stroke:#263238;stroke-linecap:round;stroke-linejoin:round"></path><path d="M461.52,85.14c-20.21,24.48-45,50.81-73.44,74.07q-5.9,4.81-12,9.44a348.32,348.32,0,0,1-43.88,28.49" style="fill:none;stroke:#263238;stroke-linecap:round;stroke-linejoin:round"></path><path d="M461.52,229.43c-18.8-14.2-40.44-37.14-33.62-64.37,4.88-19.57,19-24.17,33.62-23" style="fill:none;stroke:#263238;stroke-linecap:round;stroke-linejoin:round"></path><path d="M427,58.46a23.92,23.92,0,1,1-3.51-2" style="fill:none;stroke:#263238;stroke-linecap:round;stroke-linejoin:round"></path><circle cx="346.3" cy="218.63" r="10.43" transform="translate(-57.49 150.23) rotate(-22.65)" style="fill:none;stroke:#263238;stroke-linecap:round;stroke-linejoin:round"></circle><circle cx="428.98" cy="224.38" r="8.99" transform="translate(-33.01 369.05) rotate(-45)" style="fill:none;stroke:#263238;stroke-linecap:round;stroke-linejoin:round"></circle><circle cx="352.05" cy="155.36" r="6.11" style="fill:none;stroke:#263238;stroke-linecap:round;stroke-linejoin:round"></circle></g><g id="Table"><line x1="450.29" y1="378.01" x2="13.62" y2="378.01" style="fill:none;stroke:#263238;stroke-linecap:round;stroke-linejoin:round"></line><line x1="474.48" y1="378.01" x2="460.7" y2="378.01" style="fill:none;stroke:#263238;stroke-linecap:round;stroke-linejoin:round"></line></g><g id="Character"><path d="M278.3,70.36s-29.41,11-29.91,20.44S258.61,119,258.61,119s7,24.92,8,43.37-8,67.29-8,67.29H380.73s-5.48-60.81-8.23-83.74-4.73-46.61-13.2-60.07-31.66-16.2-31.66-16.2S301.23,57.65,278.3,70.36Z" style="fill:#263238;stroke:#263238;stroke-linecap:round;stroke-linejoin:round"></path><path d="M281.79,206.88s-12.4,7-11.8,9.38a21.05,21.05,0,0,0,2.73,5.45A279.66,279.66,0,0,1,244,225.64a22.24,22.24,0,0,0-19.37,14.23s-33.89,60.22-35.1,61.43-18.16,9.07-18.16,9.07-16.34,1.52-27.23,9.69-10.59,10.59-9.38,15.73,3.37,35.23,14,42.49a40.74,40.74,0,0,0,31.07,6.66c9.08-1.82,39.7-9.81,39.7-9.81l164.61,8.78s20.88-164,18.77-164.62-65.37-7.87-66-9.08-1.51-3.93-2.12-9.38,1.82-10.59-6.66-7.87S281.79,206.88,281.79,206.88Z" style="fill:#92E3A9;stroke:#263238;stroke-linecap:round;stroke-linejoin:round"></path><path d="M276.61,238.16c.3,1.23.62,2.5.95,3.82" style="fill:none;stroke:#263238;stroke-linecap:round;stroke-linejoin:round"></path><path d="M272.72,221.71s1.09,4.9,3,12.74" style="fill:none;stroke:#263238;stroke-linecap:round;stroke-linejoin:round"></path><path d="M280,221.64s-6.42-2.65-5.81-5.38" style="fill:none;stroke:#263238;stroke-linecap:round;stroke-linejoin:round"></path><path d="M315.59,249c-1.21,1.54-2.39,2.94-3.54,4.15" style="fill:none;stroke:#263238;stroke-linecap:round;stroke-linejoin:round"></path><path d="M335.36,217.17s-8.63,16.47-17.21,28.42" style="fill:none;stroke:#263238;stroke-linecap:round;stroke-linejoin:round"></path><path d="M325.08,285.78c-1.07,2-2.18,4-3.34,5.83" style="fill:none;stroke:#263238;stroke-linecap:round;stroke-linejoin:round"></path><path d="M343.53,233.81s-5.63,25.9-16.31,47.78" style="fill:none;stroke:#263238;stroke-linecap:round;stroke-linejoin:round"></path><path d="M235.07,261.72c-1.52,23.65-5.18,82.23-4.94,93" style="fill:none;stroke:#263238;stroke-linecap:round;stroke-linejoin:round"></path><path d="M235.71,251.81s-.14,2.06-.36,5.61" style="fill:none;stroke:#263238;stroke-linecap:round;stroke-linejoin:round"></path><path d="M233.65,281.5s-5-14.41-12.34-18.52" style="fill:none;stroke:#263238;stroke-linecap:round;stroke-linejoin:round"></path><path d="M188.9,362.47a19.18,19.18,0,0,1-1.69,3.1" style="fill:none;stroke:#263238;stroke-linecap:round;stroke-linejoin:round"></path><path d="M190.44,348.52a28.45,28.45,0,0,1-.1,8.94" style="fill:none;stroke:#263238;stroke-linecap:round;stroke-linejoin:round"></path><path d="M277.55,83.82s-18.19,16-19.19,19.94-2.74,13.46-3.24,14.7-7,7-7,16,2.49,45.36,5.48,46.11,17.7,1.74,19.44,3.24,5.24,16.2,6,24.17,1,13.71,1,13.71,21.44-2.49,34.4-9,15.95-16.45,15.95-16.45l1.74-29.41s10.72-5.73,15.45-11.46,5.73-16.95-1.49-19.69-9.72,4.73-9.72,4.73l-3.24-2.49s-2.74,4.74-4.24,4-.5-14-.75-14.7a207.5,207.5,0,0,1-9.47-23.68c-3.74-12-3.24-20.19-3.24-20.19S286.52,80.58,277.55,83.82Z" style="fill:#fff;stroke:#263238;stroke-linecap:round;stroke-linejoin:round"></path><path d="M271.07,106s2,6.73,1.5,8.72-15.46,9-16.45,12.22,4,5.48,5.73,6.72" style="fill:none;stroke:#263238;stroke-linecap:round;stroke-linejoin:round"></path><path d="M258.86,144.13s12.21,4,22.18-4.73" style="fill:none;stroke:#263238;stroke-linecap:round;stroke-linejoin:round"></path><path d="M279.79,135.91s2,7,5,8.47" style="fill:none;stroke:#263238;stroke-linecap:round;stroke-linejoin:round"></path><path d="M289.62,111.94c-4.94.22-2.42,4.14-2.42,4.14s10.7-3.45,17.27,5.18C304.47,121.26,304.81,111.25,289.62,111.94Z" style="fill:#263238"></path><path d="M259.37,112c-3.47.58-1.34,3.35-1.34,3.35s5.92-2.86,11,1a.59.59,0,0,0,.9-.72C268.89,113.61,266.16,110.91,259.37,112Z" style="fill:#263238"></path><path d="M307.17,178.11c2.75-.86,4.81-1.78,5.52-2.58" style="fill:none;stroke:#263238;stroke-linecap:round;stroke-linejoin:round"></path><path d="M253.62,180.52s23.93-.25,32.65.5c4.46.38,10.68-.41,16-1.61" style="fill:none;stroke:#263238;stroke-linecap:round;stroke-linejoin:round"></path><path d="M298.24,104a37.84,37.84,0,0,1,6.66,3.79c2.57,2,4.28,3,4.15,1.71-.1-1-1.29-2.8-2.43-4.15-10.46-10-21.61-3.88-21.73-3.81a1.84,1.84,0,0,0-.69,2.43,1.69,1.69,0,0,0,2.33.73,14.72,14.72,0,0,1,11.71-.62Z" style="fill:#263238"></path><path d="M270.34,100.79c-.28-.05-6.66-1.21-11,3.13a1.5,1.5,0,0,0-.32,1.64,19.69,19.69,0,0,0,3.36-1.25,14.84,14.84,0,0,1,7.37-.57,1.5,1.5,0,0,0,.56-2.95Z" style="fill:#263238"></path><path d="M288.25,118s4,3.09,11.89,2.37" style="fill:none;stroke:#263238;stroke-linecap:round;stroke-linejoin:round"></path><path d="M258.51,117.27a36.17,36.17,0,0,0,7.14.48" style="fill:none;stroke:#263238;stroke-linecap:round;stroke-linejoin:round"></path><path d="M374.09,244.1a234.05,234.05,0,0,0-17.25,43.28C349.58,312.49,342.62,347,342.62,347s-2.42-.3-3.33,1.21-2.72,6.05-2.72,6.05-101.68,2.73-104.4,1.82a37.41,37.41,0,0,1-5.45-2.42s-7-34.2-8.78-39.34a21.48,21.48,0,0,0-8.47-10.9c-3-1.81-7.26-3.32-9.68-6.35s-5.15,1.21-3.94,3.93l1.21,2.73a29.3,29.3,0,0,1-7.56-2.42c-3.63-1.82-7,1.51-7,2.72,0,0-3.94-1.82-5.45.6l-1.51,2.43a22.48,22.48,0,0,0-2.42,4.53c-.91,2.43-2.42,7,.3,8.78S182.54,330,184.35,334s11.5,30,21.19,36.31,19.67,11.5,56.28,17.25S375,402.06,381.65,398.43s11.2-13.61,11.5-17.85,19.07-89.27,20.58-116.2-7.87-43.27-10.89-45.09-7.57-1.51-11.81.6" style="fill:#92E3A9;stroke:#263238;stroke-linecap:round;stroke-linejoin:round"></path><path d="M340.5,353.34s18.76-4.53,28.14,6.66" style="fill:none;stroke:#263238;stroke-linecap:round;stroke-linejoin:round"></path><path d="M346,346.08s12.71-3.33,21.78-1.51" style="fill:none;stroke:#263238;stroke-linecap:round;stroke-linejoin:round"></path><path d="M264.85,374.83c1.07-7.85,5.6-14.74,9.15-19.09-21.56.44-40.67.71-41.83.33a37.41,37.41,0,0,1-5.45-2.42s-7-34.2-8.78-39.34a21.48,21.48,0,0,0-8.47-10.9c-3-1.81-7.26-3.32-9.68-6.35s-5.15,1.21-3.94,3.93l1.21,2.73a29.3,29.3,0,0,1-7.56-2.42c-3.63-1.82-7,1.51-7,2.72,0,0-3.94-1.82-5.45.6l-1.51,2.43a22.48,22.48,0,0,0-2.42,4.53c-.91,2.43-2.42,7,.3,8.78S182.54,330,184.35,334s11.5,30,21.19,36.31,19.67,11.5,56.28,17.25c2.6.41,5.4.83,8.36,1.26C266.75,384.89,264.13,380.07,264.85,374.83Z" style="fill:#fff;stroke:#263238;stroke-linecap:round;stroke-linejoin:round"></path><path d="M197.06,303.72s8.48,1.81,11.2,4.23,5.75,4.84,6.66,9.08" style="fill:none;stroke:#263238;stroke-linecap:round;stroke-linejoin:round"></path><path d="M182.54,304s9.68,4.54,11.8,5.75,5.14.6,5.75,2.72" style="fill:none;stroke:#263238;stroke-linecap:round;stroke-linejoin:round"></path><path d="M175.58,307.05s9.08,6.35,11.8,7.86a14.2,14.2,0,0,1,3.93,3" style="fill:none;stroke:#263238;stroke-linecap:round;stroke-linejoin:round"></path><path d="M153.56,174.6s-1.56,11.71-3.38,15.87-13,15.09-13,15.09l14.31,20.3s6.24-26.8,8.07-31.75,4.64-13.74,2.52-20.1S156.94,168.09,153.56,174.6Z" style="fill:#fff;stroke:#263238;stroke-linecap:round;stroke-linejoin:round"></path><line x1="92.61" y1="163.97" x2="235.12" y2="185.71" style="fill:none;stroke:#263238;stroke-linecap:round;stroke-linejoin:round;stroke-width:3px"></line><line x1="92.61" y1="167" x2="229.9" y2="209.09" style="fill:none;stroke:#263238;stroke-linecap:round;stroke-linejoin:round;stroke-width:3px"></line><path d="M143.37,171.69s-6.53,6.95-12.77,13.87c-5.69,6.31-9.31,12.06-9.31,13,0,1.93,9,54.12,9.35,56.05s4.63,58.61,5.59,68-3.73,15.43,6.48,20.25,20.47,5.65,31.06-.47c9.45-5.46,9.7-8.21,8.73-16.31S172.09,303,169.39,296.62,154.64,260.44,153.1,256s2.41-19,2.41-28.6-.19-10.41.39-11.38,6.94-4.24,6.94-4.24,5.84,7,8.54,8.54,5.21,1.54,4.82-.19-2.51-4.82-4.43-8.49S164,197.91,162.07,196s-10,2.32-13.31,3.09l-3.27.77,6.94-8.87,18,.88s8.29,1.93,9.44,1-3.08-3.85-5.59-5-13.92-4.15-20.28-5.5-8.68-.39-8.68-.39,15-7.13,16.78-7.9,6.36-.39,8.09-2.12S163,167.64,160,167.64,143.37,171.69,143.37,171.69Z" style="fill:#fff;stroke:#263238;stroke-linecap:round;stroke-linejoin:round"></path><path d="M145.29,181.91a31.81,31.81,0,0,0-2.7,2.7c-1.15,1.35-10,13.49-12.53,14.84" style="fill:none;stroke:#263238;stroke-linecap:round;stroke-linejoin:round"></path><line x1="145.49" y1="199.84" x2="138.74" y2="202.92" style="fill:none;stroke:#263238;stroke-linecap:round;stroke-linejoin:round"></line><path d="M171.77,211.65s-6-8.34-8.74-9.11-5.4,1.54-5.4,1.54-12.34,6-13.3,6.17" style="fill:none;stroke:#263238;stroke-linecap:round;stroke-linejoin:round"></path><line x1="155.9" y1="216.03" x2="152.04" y2="219.31" style="fill:#fff;stroke:#263238;stroke-linecap:round;stroke-linejoin:round"></line><path d="M127.54,200.36s-3.38,1.82-3.9,3.9a18,18,0,0,0,.78,3.91,24.65,24.65,0,0,1,.78,5.72" style="fill:none;stroke:#263238;stroke-linecap:round;stroke-linejoin:round"></path><path d="M132.22,208.43s-3.12,3.9-2.6,5.72,1.3,4.43,1.3,4.43" style="fill:none;stroke:#263238;stroke-linecap:round;stroke-linejoin:round"></path><path d="M138.21,215.45a4.08,4.08,0,0,0-1.82,4.43,17.59,17.59,0,0,0,2.86,5.46" style="fill:none;stroke:#263238;stroke-linecap:round;stroke-linejoin:round"></path></g><g id="Sushi"><ellipse cx="252.38" cy="435.69" rx="91.63" ry="47.91" style="fill:#fff;stroke:#263238;stroke-linecap:round;stroke-linejoin:round"></ellipse><ellipse cx="252.38" cy="433.01" rx="103.62" ry="47.91" style="fill:#fff;stroke:#263238;stroke-linecap:round;stroke-linejoin:round"></ellipse><ellipse cx="252.38" cy="430.33" rx="103.62" ry="47.91" style="fill:#fff;stroke:#263238;stroke-linecap:round;stroke-linejoin:round"></ellipse><ellipse cx="252.38" cy="430.33" rx="78.32" ry="36.21" style="fill:#fff;stroke:#263238;stroke-linecap:round;stroke-linejoin:round;stroke-width:0.5px"></ellipse><path d="M282.35,424.06S299.78,408,325.92,407.3s28.15,14.75,26.14,18.77-12.07,2-23.46,4.69-40.38,6.41-45.33,2.54S280.34,426.74,282.35,424.06Z" style="fill:#92E3A9;stroke:#263238;stroke-linecap:round;stroke-linejoin:round"></path><path d="M311.05,417.75s7.54,2.51,10.69,9.43" style="fill:none;stroke:#263238;stroke-linecap:round;stroke-linejoin:round"></path><path d="M321.43,416.49a20.34,20.34,0,0,1,9.43,8.49" style="fill:none;stroke:#263238;stroke-linecap:round;stroke-linejoin:round"></path><path d="M332.43,414s6,1.89,11,10.7" style="fill:none;stroke:#263238;stroke-linecap:round;stroke-linejoin:round"></path><path d="M289,424s21.39-13.21,41.2-12.27" style="fill:none;stroke:#263238;stroke-linecap:round;stroke-linejoin:round"></path><path d="M282.66,409.45a9.21,9.21,0,0,0,9.47-.35c3.74-2.34,10.92-5.87,21.72-7.16,16.76-2,14.75-10.06,6-13.41s-26.14-2.68-32.84,4.69C281.64,399.16,276.68,406,282.66,409.45Z" style="fill:#92E3A9;stroke:#263238;stroke-linecap:round;stroke-linejoin:round"></path><path d="M286.83,403.91s6.92-13.53,22.64-13.53" style="fill:none;stroke:#263238;stroke-linecap:round;stroke-linejoin:round"></path><path d="M294.69,395.42a27.94,27.94,0,0,1,11.95,4.4" style="fill:none;stroke:#263238;stroke-linecap:round;stroke-linejoin:round"></path><path d="M309.16,392.27a23.14,23.14,0,0,1,9.12,4.72" style="fill:none;stroke:#263238;stroke-linecap:round;stroke-linejoin:round"></path><path d="M290.6,400.13s5.66,1.58,6.92,3.15" style="fill:none;stroke:#263238;stroke-linecap:round;stroke-linejoin:round"></path><path d="M268.94,400.6s2-9.39-4.69-16.09-24.8-6-28.15-.67,12.74,8,12.74,15.42,7.37,14.07,14.07,11.39S268.94,400.6,268.94,400.6Z" style="fill:#92E3A9;stroke:#263238;stroke-linecap:round;stroke-linejoin:round"></path><path d="M254.43,383.47a22.51,22.51,0,0,0-12.26,2.83" style="fill:none;stroke:#263238;stroke-linecap:round;stroke-linejoin:round"></path><path d="M257.26,389.13s-6.92-.63-11,1.25" style="fill:none;stroke:#263238;stroke-linecap:round;stroke-linejoin:round"></path><path d="M258.52,394.79s-5.35.63-7.23,1.89" style="fill:none;stroke:#263238;stroke-linecap:round;stroke-linejoin:round"></path><path d="M236.62,409.45a9.21,9.21,0,0,1-9.47-.35c-3.74-2.34-10.92-5.87-21.72-7.16-16.76-2-14.75-10.06-6-13.41s26.14-2.68,32.84,4.69C237.64,399.16,242.6,406,236.62,409.45Z" style="fill:#92E3A9;stroke:#263238;stroke-linecap:round;stroke-linejoin:round"></path><path d="M207.88,392.27s9.44-3.14,15.1-2.2" style="fill:none;stroke:#263238;stroke-linecap:round;stroke-linejoin:round"></path><path d="M218.89,394.16a15.83,15.83,0,0,1,10.07,0" style="fill:none;stroke:#263238;stroke-linecap:round;stroke-linejoin:round"></path><path d="M223.61,399.51c.94,0,5.35-1.26,9.44,0" style="fill:none;stroke:#263238;stroke-linecap:round;stroke-linejoin:round"></path><path d="M154.33,420.71S171.76,404.62,197.9,404s28.15,14.74,26.14,18.77-12.07,2-23.46,4.69-40.38,6.41-45.33,2.53S152.32,423.39,154.33,420.71Z" style="fill:#92E3A9;stroke:#263238;stroke-linecap:round;stroke-linejoin:round"></path><path d="M160.39,423.72s.32-5,9.75-10.69" style="fill:none;stroke:#263238;stroke-linecap:round;stroke-linejoin:round"></path><path d="M171.4,420s1.26-4.72,9.44-10.69" style="fill:none;stroke:#263238;stroke-linecap:round;stroke-linejoin:round"></path><path d="M183,416.8s2.12-7.27,8.49-10.06" style="fill:none;stroke:#263238;stroke-linecap:round;stroke-linejoin:round"></path><path d="M199.71,406.43s-3.78,3.14-4.72,6" style="fill:none;stroke:#263238;stroke-linecap:round;stroke-linejoin:round"></path><ellipse cx="258.71" cy="416.36" rx="25.49" ry="13.74" style="fill:#fff;stroke:#263238;stroke-linecap:round;stroke-linejoin:round"></ellipse><ellipse cx="258.71" cy="412.77" rx="27.49" ry="13.74" style="fill:#fff;stroke:#263238;stroke-linecap:round;stroke-linejoin:round"></ellipse><ellipse cx="258.71" cy="415.76" rx="21.91" ry="10.76" style="fill:#263238;stroke:#263238;stroke-linecap:round;stroke-linejoin:round"></ellipse><path d="M194.28,419.09V430.9c0,4.18,6.88,7.57,15.37,7.57S225,435.08,225,430.9V419.09Z" style="fill:#263238;stroke:#263238;stroke-linecap:round;stroke-linejoin:round"></path><ellipse cx="209.65" cy="419.09" rx="15.37" ry="7.56" style="fill:#fff;stroke:#263238;stroke-linecap:round;stroke-linejoin:round"></ellipse><path d="M217,419.09c0,2-3.27,3.59-7.3,3.59s-7.3-1.61-7.3-3.59,3.27-3.59,7.3-3.59S217,417.1,217,419.09Z" style="fill:#92E3A9;stroke:#263238;stroke-linecap:round;stroke-linejoin:round"></path><path d="M170.52,431v11.82c0,4.18,6.88,7.56,15.36,7.56s15.37-3.38,15.37-7.56V431Z" style="fill:#263238;stroke:#263238;stroke-linecap:round;stroke-linejoin:round"></path><ellipse cx="185.88" cy="431.02" rx="15.37" ry="7.56" style="fill:#fff;stroke:#263238;stroke-linecap:round;stroke-linejoin:round"></ellipse><ellipse cx="185.88" cy="431.02" rx="7.3" ry="3.59" style="fill:#92E3A9;stroke:#263238;stroke-linecap:round;stroke-linejoin:round"></ellipse><path d="M220.69,432.58V444.4c0,4.17,6.89,7.56,15.37,7.56s15.37-3.39,15.37-7.56V432.58Z" style="fill:#263238;stroke:#263238;stroke-linecap:round;stroke-linejoin:round"></path><ellipse cx="236.06" cy="432.58" rx="15.37" ry="7.56" style="fill:#fff;stroke:#263238;stroke-linecap:round;stroke-linejoin:round"></ellipse><path d="M243.36,432.58c0,2-3.27,3.59-7.3,3.59s-7.29-1.61-7.29-3.59S232,429,236.06,429,243.36,430.6,243.36,432.58Z" style="fill:#92E3A9;stroke:#263238;stroke-linecap:round;stroke-linejoin:round"></path><path d="M283.27,433.3v11.81c0,4.18,6.89,7.56,15.37,7.56S314,449.29,314,445.11V433.3Z" style="fill:#263238;stroke:#263238;stroke-linecap:round;stroke-linejoin:round"></path><ellipse cx="298.64" cy="433.3" rx="15.37" ry="7.56" style="fill:#fff;stroke:#263238;stroke-linecap:round;stroke-linejoin:round"></ellipse><path d="M305.94,433.3c0,2-3.27,3.59-7.3,3.59s-7.29-1.61-7.29-3.59,3.26-3.6,7.29-3.6S305.94,431.31,305.94,433.3Z" style="fill:#92E3A9;stroke:#263238;stroke-linecap:round;stroke-linejoin:round"></path><path d="M197.09,443.69V455.5c0,4.18,6.89,7.57,15.37,7.57s15.37-3.39,15.37-7.57V443.69Z" style="fill:#263238;stroke:#263238;stroke-linecap:round;stroke-linejoin:round"></path><ellipse cx="212.46" cy="443.69" rx="15.37" ry="7.56" style="fill:#fff;stroke:#263238;stroke-linecap:round;stroke-linejoin:round"></ellipse><ellipse cx="212.46" cy="443.69" rx="7.3" ry="3.59" style="fill:#92E3A9;stroke:#263238;stroke-linecap:round;stroke-linejoin:round"></ellipse><path d="M253.08,439.7v11.82c0,4.18,6.88,7.56,15.37,7.56s15.37-3.38,15.37-7.56V439.7Z" style="fill:#263238;stroke:#263238;stroke-linecap:round;stroke-linejoin:round"></path><ellipse cx="268.45" cy="439.7" rx="15.37" ry="7.56" style="fill:#fff;stroke:#263238;stroke-linecap:round;stroke-linejoin:round"></ellipse><path d="M275.75,439.7c0,2-3.27,3.6-7.3,3.6s-7.3-1.61-7.3-3.6,3.27-3.59,7.3-3.59S275.75,437.72,275.75,439.7Z" style="fill:#92E3A9;stroke:#263238;stroke-linecap:round;stroke-linejoin:round"></path><path d="M231.51,451.19V463c0,4.18,6.88,7.56,15.37,7.56s15.37-3.38,15.37-7.56V451.19Z" style="fill:#263238;stroke:#263238;stroke-linecap:round;stroke-linejoin:round"></path><ellipse cx="246.88" cy="451.19" rx="15.37" ry="7.56" style="fill:#fff;stroke:#263238;stroke-linecap:round;stroke-linejoin:round"></ellipse><path d="M254.17,451.19c0,2-3.26,3.59-7.29,3.59s-7.3-1.61-7.3-3.59,3.27-3.6,7.3-3.6S254.17,449.2,254.17,451.19Z" style="fill:#92E3A9;stroke:#263238;stroke-linecap:round;stroke-linejoin:round"></path></g></svg>
