<svg xmlns="http://www.w3.org/2000/svg" viewBox="0 0 500 500"><g id="background-simple"><path d="M455.3,119.7S385.73,36.49,278,17.39,149.05,79.46,112.9,127.2,35.82,192.68,33.78,261.57s25.91,104.36,79.8,128.92,109.13,37.51,163,45,96.85,3.41,118-40.93,11.59-64.8,36.15-85.94S510.55,191.32,455.3,119.7Z" style="fill:#92E3A9"></path><path d="M455.3,119.7S385.73,36.49,278,17.39,149.05,79.46,112.9,127.2,35.82,192.68,33.78,261.57s25.91,104.36,79.8,128.92,109.13,37.51,163,45,96.85,3.41,118-40.93,11.59-64.8,36.15-85.94S510.55,191.32,455.3,119.7Z" style="fill:#fff;opacity:0.7000000000000001"></path></g><g id="Plants"><path d="M412.78,398.52c-1.35-11.34-10.15-33.83-22.78-40.14-13.38-6.69-23.41,8.6-47.31,19.59S325,369.85,300.16,355s-28.2,5.74-38.23,10.52c-10.38,4.94-16.51-13.23-19-20-4.78-13.19-10.36-24.49-22.75-32.32-19.14-12.09-51.87-11.13-62,12.29-3,7-1.94,19.94-9.58,23.75-11.47,5.73-41.09-.95-43,18.16a28.41,28.41,0,0,0,4.21,17.39c.84,2.53,1.48,5.21,1,6.51-1,2.86-7.17-3.83-12.42-.48a23.66,23.66,0,0,0-7.08,7.64Z" style="fill:#92E3A9"></path><path d="M412.78,398.52c-1.35-11.34-10.15-33.83-22.78-40.14-13.38-6.69-23.41,8.6-47.31,19.59S325,369.85,300.16,355s-28.2,5.74-38.23,10.52c-10.38,4.94-16.51-13.23-19-20-4.78-13.19-10.36-24.49-22.75-32.32-19.14-12.09-51.87-11.13-62,12.29-3,7-1.94,19.94-9.58,23.75-11.47,5.73-41.09-.95-43,18.16a28.41,28.41,0,0,0,4.21,17.39c.84,2.53,1.48,5.21,1,6.51-1,2.86-7.17-3.83-12.42-.48a23.66,23.66,0,0,0-7.08,7.64Z" style="fill:#fff;opacity:0.41000000000000003"></path><path d="M187.68,332.49a11.48,11.48,0,0,0,.89,7,22,22,0,0,0,4.06,5.28S194.34,338.73,187.68,332.49Z" style="fill:#fff"></path><path d="M155.64,366.26a11.38,11.38,0,0,0,6.55,2.6,21.79,21.79,0,0,0,6.58-1S164.31,363.45,155.64,366.26Z" style="fill:#fff"></path><path d="M124.34,361.94a11.42,11.42,0,0,0,6.55,2.6,21.54,21.54,0,0,0,6.59-1S133,359.13,124.34,361.94Z" style="fill:#fff"></path><path d="M151.15,382.1a11.41,11.41,0,0,0,7,.54,21.84,21.84,0,0,0,6-2.91S158.6,376.84,151.15,382.1Z" style="fill:#fff"></path><path d="M119.37,378.07a11.42,11.42,0,0,0,7,.54,21.7,21.7,0,0,0,6-2.92S126.82,372.81,119.37,378.07Z" style="fill:#fff"></path><path d="M172.51,383.75a11.41,11.41,0,0,0,6.62-2.43,21.71,21.71,0,0,0,4.24-5.14S177.1,375.87,172.51,383.75Z" style="fill:#fff"></path><path d="M128.06,395.07a11.39,11.39,0,0,0,6.61-2.43,21.87,21.87,0,0,0,4.24-5.15S132.65,387.19,128.06,395.07Z" style="fill:#fff"></path><path d="M163.5,336.45a11.43,11.43,0,0,0,3.79,5.94,21.68,21.68,0,0,0,5.93,3S172.18,339.24,163.5,336.45Z" style="fill:#fff"></path><path d="M227.26,333.62a11.45,11.45,0,0,0-6.26,3.26,21.71,21.71,0,0,0-3.54,5.64S223.71,342,227.26,333.62Z" style="fill:#fff"></path><path d="M240.68,353.75a11.4,11.4,0,0,0-7,.89,21.67,21.67,0,0,0-5.27,4.07S234.44,360.41,240.68,353.75Z" style="fill:#fff"></path><path d="M239.36,376.6a11.4,11.4,0,0,0-6.35-3.06,21.76,21.76,0,0,0-6.64.53S230.51,378.79,239.36,376.6Z" style="fill:#fff"></path><path d="M224.39,388.87a11.44,11.44,0,0,0-4.84-5.13,21.63,21.63,0,0,0-6.4-1.86S215.33,387.75,224.39,388.87Z" style="fill:#fff"></path><path d="M216.51,351.78a11.45,11.45,0,0,0-6.26,3.26,21.58,21.58,0,0,0-3.54,5.63S213,360.18,216.51,351.78Z" style="fill:#fff"></path><path d="M153.06,346.74a11.44,11.44,0,0,0,5,4.93,21.48,21.48,0,0,0,6.46,1.62S162.15,347.5,153.06,346.74Z" style="fill:#fff"></path><path d="M208.28,328.24a11.36,11.36,0,0,0-3.93,5.85,21.86,21.86,0,0,0-.41,6.65S209.19,337.31,208.28,328.24Z" style="fill:#fff"></path><path d="M196.46,317.17a11.43,11.43,0,0,0-.94,7,21.5,21.5,0,0,0,2.57,6.14S201.29,324.91,196.46,317.17Z" style="fill:#fff"></path><path d="M170.86,320.89a11.41,11.41,0,0,0,2.35,6.65,21.54,21.54,0,0,0,5.08,4.3S178.68,325.58,170.86,320.89Z" style="fill:#fff"></path><path d="M282.72,362.28a6.65,6.65,0,0,0,.51,4.06,12.85,12.85,0,0,0,2.36,3.07S286.58,365.9,282.72,362.28Z" style="fill:#fff"></path><path d="M264.11,381.89a6.64,6.64,0,0,0,3.81,1.51,12.8,12.8,0,0,0,3.82-.59S269.15,380.25,264.11,381.89Z" style="fill:#fff"></path><path d="M261.5,391.09a6.67,6.67,0,0,0,4.08.31,12.78,12.78,0,0,0,3.48-1.69S265.83,388,261.5,391.09Z" style="fill:#fff"></path><path d="M273.91,392a6.63,6.63,0,0,0,3.84-1.41,12.66,12.66,0,0,0,2.46-3S276.58,387.47,273.91,392Z" style="fill:#fff"></path><path d="M268.68,364.58a6.6,6.6,0,0,0,2.2,3.45,12.58,12.58,0,0,0,3.44,1.76S273.72,366.2,268.68,364.58Z" style="fill:#fff"></path><path d="M305.7,362.94a6.55,6.55,0,0,0-3.63,1.89A12.4,12.4,0,0,0,300,368.1S303.64,367.82,305.7,362.94Z" style="fill:#fff"></path><path d="M313.49,374.62a6.61,6.61,0,0,0-4.06.52,12.67,12.67,0,0,0-3.06,2.36S309.87,378.49,313.49,374.62Z" style="fill:#fff"></path><path d="M312.73,387.89a6.64,6.64,0,0,0-3.69-1.78,12.92,12.92,0,0,0-3.86.31S307.58,389.16,312.73,387.89Z" style="fill:#fff"></path><path d="M304,395a6.62,6.62,0,0,0-2.81-3,12.73,12.73,0,0,0-3.71-1.09S298.77,394.37,304,395Z" style="fill:#fff"></path><path d="M299.46,373.48a6.68,6.68,0,0,0-3.64,1.89,12.51,12.51,0,0,0-2.05,3.27S297.39,378.36,299.46,373.48Z" style="fill:#fff"></path><path d="M262.62,370.55a6.65,6.65,0,0,0,2.92,2.87,12.82,12.82,0,0,0,3.75.94S267.89,371,262.62,370.55Z" style="fill:#fff"></path><path d="M294.68,359.81a6.64,6.64,0,0,0-2.28,3.4,12.68,12.68,0,0,0-.24,3.86S295.21,365.08,294.68,359.81Z" style="fill:#fff"></path><path d="M287.81,353.38a6.64,6.64,0,0,0-.54,4.06,12.63,12.63,0,0,0,1.49,3.57S290.62,357.88,287.81,353.38Z" style="fill:#fff"></path><path d="M273,355.54a6.64,6.64,0,0,0,1.36,3.86,12.78,12.78,0,0,0,3,2.5S277.49,358.27,273,355.54Z" style="fill:#fff"></path><path d="M375.16,370.91a6.61,6.61,0,0,0,.52,4.06A12.61,12.61,0,0,0,378,378S379,374.54,375.16,370.91Z" style="fill:#fff"></path><path d="M356.56,390.52a6.63,6.63,0,0,0,3.8,1.51,12.61,12.61,0,0,0,3.82-.58S361.59,388.89,356.56,390.52Z" style="fill:#fff"></path><path d="M361.12,373.21a6.67,6.67,0,0,0,2.2,3.45,12.56,12.56,0,0,0,3.45,1.76S366.16,374.83,361.12,373.21Z" style="fill:#fff"></path><path d="M398.14,371.57a6.66,6.66,0,0,0-3.63,1.89,12.72,12.72,0,0,0-2.06,3.27S396.08,376.45,398.14,371.57Z" style="fill:#fff"></path><path d="M405.94,383.25a6.72,6.72,0,0,0-4.07.52,12.67,12.67,0,0,0-3.06,2.36S402.32,387.12,405.94,383.25Z" style="fill:#fff"></path><path d="M405.17,396.53a6.64,6.64,0,0,0-3.68-1.78,12.55,12.55,0,0,0-3.86.31S400,397.79,405.17,396.53Z" style="fill:#fff"></path><path d="M391.9,382.11a6.63,6.63,0,0,0-3.63,1.89,12.68,12.68,0,0,0-2.06,3.28S389.84,387,391.9,382.11Z" style="fill:#fff"></path><path d="M355.06,379.18a6.63,6.63,0,0,0,2.93,2.87,12.45,12.45,0,0,0,3.75.94S360.34,379.63,355.06,379.18Z" style="fill:#fff"></path><path d="M387.12,368.44a6.64,6.64,0,0,0-2.28,3.4,12.48,12.48,0,0,0-.23,3.86S387.66,373.71,387.12,368.44Z" style="fill:#fff"></path><path d="M380.26,362a6.59,6.59,0,0,0-.55,4.05,12.48,12.48,0,0,0,1.5,3.57S383.06,366.51,380.26,362Z" style="fill:#fff"></path><path d="M365.4,364.18a6.64,6.64,0,0,0,1.36,3.86,12.43,12.43,0,0,0,2.95,2.49S369.94,366.9,365.4,364.18Z" style="fill:#fff"></path><polygon points="179.73 398.52 188.24 398.52 184.51 379.41 202.19 365.55 182.12 375.11 176.38 347.87 181.16 397.57 168.74 392.79 145.32 383.71 171.13 398.05 179.73 398.52" style="fill:#a1a1a1"></polygon><polygon points="285.35 372.72 273.88 397.57 278.65 398.05 281.52 390.88 294.3 388.58 282.48 386.1 285.35 372.72" style="fill:#a1a1a1"></polygon><polygon points="369.93 384.67 376.62 398.05 377.79 390.81 369.93 384.67" style="fill:#a1a1a1"></polygon><polygon points="382.4 398.52 383.36 388.79 391.92 382.27 383.86 383.7 385.23 369.85 376.62 398.05 379.49 398.52 382.4 398.52" style="fill:#a1a1a1"></polygon></g><g id="Clouds"><path d="M351.77,61H240.32a.5.5,0,0,1-.45-.29.49.49,0,0,1,.06-.53l2.27-2.84c1.54-1.92,3.86-1.19,5.92-.55,1.32.41,2.57.8,3.35.41,1-.49,1.8-1.82,2.73-3.36a19.47,19.47,0,0,1,4-5.1c2.05-1.71,5.46.11,9.06,2,2.9,1.55,5.89,3.15,7.56,2.43a4.84,4.84,0,0,0,2.62-3,8.1,8.1,0,0,1,5.37-5c2.95-1.08,5.88.22,8.47,1.35,3.58,1.58,5.87,2.4,7.77-.58a32.19,32.19,0,0,0,2.5-5.2c2-4.9,3.9-9.52,12.08-10.38,10.6-1.11,23.38,17.78,24.81,20a9.36,9.36,0,0,0,4.63-.25,6.62,6.62,0,0,1,6.14.84c4.81,3,3.07,9.59,3.06,9.66A.52.52,0,0,1,351.77,61ZM241.36,60h110c.26-1.34.86-6-2.7-8.18a5.67,5.67,0,0,0-5.36-.72,10.25,10.25,0,0,1-5.29.22.5.5,0,0,1-.31-.22c-.14-.21-13.61-20.75-24-19.68-7.59.8-9.29,5-11.26,9.77a34.21,34.21,0,0,1-2.59,5.36c-2.45,3.85-5.79,2.38-9,1-2.53-1.11-5.15-2.27-7.72-1.33a7.16,7.16,0,0,0-4.8,4.47,5.78,5.78,0,0,1-3.14,3.48c-2.11.91-5.17-.73-8.42-2.47s-6.42-3.43-7.95-2.15a18.88,18.88,0,0,0-3.77,4.85c-1,1.67-1.9,3.11-3.15,3.74s-2.57.12-4.09-.36c-1.92-.6-3.73-1.16-4.84.22Z" style="opacity:0.30000000000000004"></path><path d="M128.52,122.55H74.4a.5.5,0,0,1-.39-.81l1.1-1.39c.86-1.06,2.13-.67,3.15-.35a2.56,2.56,0,0,0,1.44.22,4.23,4.23,0,0,0,1.22-1.54,9.79,9.79,0,0,1,2-2.54c1.13-.94,2.94,0,4.69,1,1.29.69,2.75,1.47,3.45,1.17A2.09,2.09,0,0,0,92.19,117a4.17,4.17,0,0,1,2.75-2.56c1.53-.56,3,.09,4.3.66,1.72.76,2.65,1.09,3.46-.18a16.21,16.21,0,0,0,1.19-2.49c1-2.34,2-4.77,6.08-5.2,5.16-.55,11.28,8.29,12.23,9.71a4.2,4.2,0,0,0,2-.14,3.48,3.48,0,0,1,3.18.45c2.49,1.56,1.63,4.83,1.6,5A.5.5,0,0,1,128.52,122.55Zm-53.08-1h52.68a3.41,3.41,0,0,0-1.24-3.5,2.51,2.51,0,0,0-2.4-.32,5.21,5.21,0,0,1-2.69.11.49.49,0,0,1-.31-.21c-.07-.1-6.5-9.94-11.41-9.44-3.53.37-4.33,2.32-5.25,4.58a16,16,0,0,1-1.28,2.64c-1.31,2.06-3.11,1.27-4.7.57-1.18-.52-2.41-1.06-3.56-.64a3.24,3.24,0,0,0-2.19,2,3,3,0,0,1-1.65,1.82c-1.14.49-2.68-.33-4.31-1.2-1.39-.75-3-1.59-3.58-1.08a8.82,8.82,0,0,0-1.77,2.29,4.64,4.64,0,0,1-1.64,1.91A3,3,0,0,1,78,121c-1-.32-1.67-.48-2.07,0Z" style="opacity:0.30000000000000004"></path><path d="M436.09,122.55H347.67a.52.52,0,0,1-.46-.28.51.51,0,0,1,.06-.53l1.81-2.26c1.26-1.58,3.22-1,4.8-.47a4.23,4.23,0,0,0,2.58.34,7.05,7.05,0,0,0,2.13-2.63,15.48,15.48,0,0,1,3.19-4.08c1.68-1.4,4.41.06,7.3,1.61,2.28,1.22,4.63,2.47,5.91,1.93a3.7,3.7,0,0,0,2-2.31,6.58,6.58,0,0,1,4.32-4c2.38-.87,4.73.17,6.8,1.08,2.87,1.26,4.57,1.87,6-.43a25,25,0,0,0,2-4.11c1.53-3.74,3.12-7.61,9.67-8.3,8.43-.89,18.5,14,19.75,15.84a7.19,7.19,0,0,0,3.59-.21,5.35,5.35,0,0,1,5,.69c3.88,2.42,2.53,7.55,2.47,7.77A.5.5,0,0,1,436.09,122.55Zm-87.38-1h87c.21-1.14.59-4.61-2.11-6.3a4.43,4.43,0,0,0-4.17-.56,8.22,8.22,0,0,1-4.25.18.5.5,0,0,1-.31-.22c-.11-.16-10.75-16.41-18.93-15.56-6,.62-7.29,3.89-8.84,7.68A27.84,27.84,0,0,1,395,111c-2,3.13-4.69,1.95-7.29.8-2-.87-4.05-1.78-6.05-1a5.61,5.61,0,0,0-3.75,3.49,4.66,4.66,0,0,1-2.54,2.81c-1.73.74-4.17-.57-6.77-2s-5-2.69-6.19-1.72a14.55,14.55,0,0,0-3,3.83,7.54,7.54,0,0,1-2.54,3c-.94.47-2.1.11-3.32-.28-1.75-.54-2.95-.83-3.73.15Z" style="opacity:0.30000000000000004"></path></g><g id="Floor"><path d="M479.41,398.34H12.56a.5.5,0,0,1-.5-.5.51.51,0,0,1,.5-.5H479.41a.5.5,0,0,1,.5.5A.5.5,0,0,1,479.41,398.34Z" style="fill:#263238"></path></g><g id="Symptoms"><path d="M400,265.22s15.81-5.65,28-1.58,16.26,14.68,19.19,19.87S457.82,295,457.82,295a174.56,174.56,0,0,0-17.62.68c-12.65.9-17.39.9-26.2-7.23S400,265.22,400,265.22Z" style="fill:#fff"></path><path d="M432.09,296.59c-7.31,0-11.73-1.56-18.43-7.74-8.79-8.12-14.08-23.31-14.13-23.47a.5.5,0,0,1,.3-.63c.65-.23,16.11-5.66,28.33-1.58,10.82,3.6,15.31,12.18,18.28,17.86.43.82.82,1.57,1.2,2.24,2.85,5.05,10.42,11.31,10.49,11.37a.5.5,0,0,1-.34.89c-.05,0-5.09-.21-17.55.68C437.11,296.43,434.45,296.59,432.09,296.59Zm-31.45-31.06c1,2.62,6,15.44,13.7,22.58,8.58,7.92,13,8,25.83,7.1,8.85-.63,14-.72,16.26-.7-2.23-1.95-7.35-6.65-9.66-10.75-.38-.67-.78-1.44-1.22-2.26-2.89-5.54-7.27-13.91-17.7-17.39C417.13,260.54,403.36,264.65,400.64,265.53Z" style="fill:#263238"></path><path d="M449.84,292.52a.49.49,0,0,1-.35-.15s-.85-.84-2.23-2.09a.5.5,0,0,1,.67-.74c1.4,1.26,2.26,2.12,2.26,2.13a.48.48,0,0,1,0,.7A.47.47,0,0,1,449.84,292.52Z" style="fill:#263238"></path><path d="M445.24,287.94a.49.49,0,0,1-.4-.2c-.3-.4-.62-.86-1-1.37a49.73,49.73,0,0,0-13.07-13.47c-5.19-3.56-12.53-5-17.76-5.63a.5.5,0,0,1,.11-1c5.35.61,12.85,2.12,18.22,5.79a51,51,0,0,1,13.32,13.73l1,1.35a.5.5,0,0,1-.11.7A.52.52,0,0,1,445.24,287.94Z" style="fill:#263238"></path><path d="M410.24,267h0c-3.44-.26-5.82-.19-5.84-.19h0a.5.5,0,0,1-.5-.48.5.5,0,0,1,.49-.52s2.46-.07,5.95.19a.52.52,0,0,1,.46.54A.5.5,0,0,1,410.24,267Z" style="fill:#263238"></path><path d="M442.64,293.29l-.15,0c-.07,0-1.89-.61-5.58-2.1a.5.5,0,1,1,.38-.92c3.64,1.47,5.49,2.06,5.5,2.06a.51.51,0,0,1,.33.63A.51.51,0,0,1,442.64,293.29Z" style="fill:#263238"></path><path d="M430.74,288.51a.45.45,0,0,1-.2,0q-2.42-1.07-5.33-2.42c-11.53-5.38-20.89-16-21-16.06a.51.51,0,0,1,0-.71.49.49,0,0,1,.7.05c.1.1,9.33,10.52,20.66,15.81q2.91,1.35,5.31,2.42a.49.49,0,0,1,.26.65A.5.5,0,0,1,430.74,288.51Z" style="fill:#263238"></path><path d="M442.64,268.36a.49.49,0,0,1-.38-.19c-6.72-8.21-18.3-9.06-18.41-9.07a.5.5,0,0,1-.47-.53.53.53,0,0,1,.53-.47c.49,0,12.12.89,19.12,9.44a.5.5,0,0,1-.07.7A.49.49,0,0,1,442.64,268.36Z" style="fill:#263238"></path><path d="M446.24,268.36a.49.49,0,0,1-.47-.34c-1.71-4.88-9.18-8.42-9.25-8.45a.5.5,0,0,1-.24-.67.5.5,0,0,1,.66-.24c.32.15,7.93,3.75,9.77,9a.5.5,0,0,1-.3.64A.51.51,0,0,1,446.24,268.36Z" style="fill:#263238"></path><path d="M418.74,297.4a.47.47,0,0,1-.17,0c-7.28-2.59-11.89-9.66-12.08-10a.51.51,0,0,1,.15-.7.5.5,0,0,1,.69.15c.05.07,4.63,7.09,11.57,9.57a.5.5,0,0,1-.16,1Z" style="fill:#263238"></path><path d="M423.88,301c-6.19,0-12.34-4.05-12.62-4.24a.5.5,0,0,1-.14-.69.51.51,0,0,1,.7-.14c.06,0,6.88,4.52,13.05,4a.51.51,0,0,1,.53.46.49.49,0,0,1-.45.54C424.59,301,424.23,301,423.88,301Z" style="fill:#263238"></path><path d="M430.89,200l-7.13,1.59a38.57,38.57,0,0,1-12.4,3.2,65.51,65.51,0,0,1-11.55-.37l-7.25.37-7.86,4.79s-3.07,1.1-3.8.61-.25-3.44,1.59-4.79,7.74-4.67,7.74-4.67l-1.35-.73s-7.49,3.31-7.86,3.44-3.93,4.17-3.93,4.17-3.93-.37-3.44-2.21,5.77-7.86,5.77-7.86l-3.93,3.32a13.43,13.43,0,0,1-3.07,3.19c-1.35.74-3.56-.49-2.82-3.07s1.1-3.93,1.1-3.93-3.44,0-2.95-2.83,7-9,8.23-10,14.37-3.56,16.58-4.42,12.29.37,12.29.37l14.74.74,13.26-4.06" style="fill:#fff"></path><path d="M381.52,210.77a1.69,1.69,0,0,1-.9-.2,1.52,1.52,0,0,1-.55-1.32A5.65,5.65,0,0,1,382.2,205c1.46-1.07,5.33-3.3,7-4.26l-.34-.19c-1.65.73-7.33,3.24-7.68,3.36s-2.1,2.2-3.72,4a.51.51,0,0,1-.42.17c-.28,0-2.8-.3-3.65-1.51a1.56,1.56,0,0,1-.22-1.33,9.4,9.4,0,0,1,1.32-2.37,7.59,7.59,0,0,1-1.83,1.59,2.48,2.48,0,0,1-2.7-.3,3.05,3.05,0,0,1-.84-3.35c.45-1.6.77-2.72.94-3.35a3.76,3.76,0,0,1-2.29-1.11,2.63,2.63,0,0,1-.51-2.24c.56-3.2,7.63-9.63,8.41-10.26s4.47-1.5,10.06-2.8c3-.7,5.77-1.35,6.65-1.69,2.26-.88,11.48.21,12.53.33l14.61.73,13.19-4a.49.49,0,0,1,.62.33.5.5,0,0,1-.33.62l-13.27,4.06-.17,0-14.74-.74c-2.8-.34-10.36-1.07-12.07-.4-.95.37-3.66,1-6.79,1.73-3.81.89-9,2.11-9.66,2.61-1.47,1.18-7.62,7.13-8.05,9.65a1.66,1.66,0,0,0,.28,1.42,3.32,3.32,0,0,0,2.17.82.48.48,0,0,1,.4.2.5.5,0,0,1,.08.43s-.37,1.35-1.1,3.94a2.05,2.05,0,0,0,.51,2.29,1.46,1.46,0,0,0,1.59.2,12.27,12.27,0,0,0,2.9-3l.09-.1,3.93-3.31a.5.5,0,0,1,.68,0,.51.51,0,0,1,0,.68c-1.45,1.65-5.29,6.24-5.67,7.66a.58.58,0,0,0,.08.5c.44.63,1.92.95,2.68,1,3.49-4,3.84-4.07,4-4.12.31-.11,4.84-2.1,7.82-3.42a.49.49,0,0,1,.44,0l1.35.73a.51.51,0,0,1,.26.44.52.52,0,0,1-.25.44c-.06,0-5.89,3.32-7.69,4.63a4.7,4.7,0,0,0-1.72,3.23,1.23,1.23,0,0,0,.11.75,7.72,7.72,0,0,0,3.31-.66l7.81-4.76a.55.55,0,0,1,.24-.07l7.25-.37a66.32,66.32,0,0,0,11.54.37,38.34,38.34,0,0,0,12.22-3.15l.1,0,7.13-1.59a.5.5,0,0,1,.6.38.49.49,0,0,1-.38.59L423.92,202a38.71,38.71,0,0,1-12.53,3.22,65.86,65.86,0,0,1-11.65-.38l-7,.37L385,210l-.09,0A11.9,11.9,0,0,1,381.52,210.77Z" style="fill:#263238"></path><path d="M401.9,180.79a43.56,43.56,0,0,0-6.39,2.09c-2.33,1.11-5.77,2-6.51,2.34s-7,2.21-8.23,2.58-3.56,3.8,1.72,5,12.16-2.21,12.16-2.21l5.53,2.09s4.54,3.32,7.25,3.32,6.38-2.34,6.38-2.34" style="fill:#fff"></path><path d="M407.43,196.53c-2.7,0-6.93-3-7.49-3.38l-5.26-2c-1.2.56-7.35,3.3-12.3,2.15-3-.7-3.66-2.07-3.69-3.1a3.2,3.2,0,0,1,1.94-2.9l.67-.2c1.7-.51,6.87-2.05,7.48-2.35a17.07,17.07,0,0,1,1.86-.65,39.29,39.29,0,0,0,4.66-1.69,42.57,42.57,0,0,1,6.48-2.12.5.5,0,0,1,.61.37.5.5,0,0,1-.37.6,42.19,42.19,0,0,0-6.29,2.05,38.94,38.94,0,0,1-4.79,1.75c-.79.25-1.47.46-1.71.58-.61.31-4.21,1.39-7.65,2.42l-.66.19a2.25,2.25,0,0,0-1.23,1.91c0,1,1.06,1.73,2.92,2.17,5,1.17,11.75-2.14,11.82-2.18a.51.51,0,0,1,.4,0l5.53,2.09a.41.41,0,0,1,.11.07s4.45,3.22,7,3.22,6.08-2.24,6.12-2.26a.5.5,0,1,1,.53.84C413.93,194.21,410.24,196.53,407.43,196.53Z" style="fill:#263238"></path><path d="M372.05,196.89a.5.5,0,0,1-.26-.92l6.88-4.3a.51.51,0,0,1,.69.16.5.5,0,0,1-.17.69l-1.59,1-5.28,3.32A.52.52,0,0,1,372.05,196.89Z" style="fill:#263238"></path><path d="M380.9,197.39a.5.5,0,0,1-.22-1l4.91-2.33a.5.5,0,0,1,.67.24.49.49,0,0,1-.24.66l-4.91,2.34A.54.54,0,0,1,380.9,197.39Z" style="fill:#263238"></path><path d="M392.69,202.91a.5.5,0,0,1-.33-.12l-4.91-4.3a.5.5,0,1,1,.65-.75L393,202a.5.5,0,0,1-.33.87Z" style="fill:#263238"></path><path d="M383.87,178.37a.5.5,0,0,1-.13-1c.4-.12,10-2.87,15-2.35a.5.5,0,0,1,.44.55.5.5,0,0,1-.55.45c-4.76-.5-14.48,2.29-14.58,2.31A.32.32,0,0,1,383.87,178.37Z" style="fill:#263238"></path><path d="M405.13,175.26H405c-3.82-.76-11.52-1.28-11.6-1.28a.5.5,0,1,1,.07-1c.31,0,7.85.53,11.72,1.3a.5.5,0,0,1,.39.59A.48.48,0,0,1,405.13,175.26Z" style="fill:#263238"></path><path d="M405.09,210.2a53,53,0,0,1-12-1.78.5.5,0,0,1,.27-1c.1,0,10.3,2.8,15.8,1.3a.5.5,0,0,1,.26,1A16.58,16.58,0,0,1,405.09,210.2Z" style="fill:#263238"></path><path d="M404.59,212.67c-1.35,0-2.27-.08-2.36-.09a.5.5,0,0,1,.09-1c.06,0,5.65.49,9.89-1a.5.5,0,0,1,.34,1A25.36,25.36,0,0,1,404.59,212.67Z" style="fill:#263238"></path><path d="M288.85,149.77S279,160,266.89,160s-22-10.19-22-10.19,9.84-17.29,22-17.29S288.85,149.77,288.85,149.77Z" style="fill:#263238"></path><path d="M266.89,160.46c-12.21,0-21.92-9.92-22.33-10.35a.5.5,0,0,1-.07-.59c.41-.72,10.12-17.54,22.4-17.54s22,16.82,22.4,17.54a.5.5,0,0,1-.08.59C288.8,150.54,279.09,160.46,266.89,160.46Zm-21.34-10.77c1.65,1.59,10.66,9.77,21.34,9.77s19.68-8.18,21.33-9.77c-1.43-2.37-10.55-16.71-21.33-16.71S247,147.32,245.55,149.69Z" style="fill:#263238"></path><path d="M288.85,149.77s-9.83,13.74-22,13.74-22-13.74-22-13.74,9.84-13.75,22-13.75S288.85,149.77,288.85,149.77Z" style="fill:#fff"></path><path d="M266.89,164c-12.25,0-22-13.38-22.37-13.95a.48.48,0,0,1,0-.58c.4-.57,10.12-14,22.37-14s22,13.39,22.37,14a.51.51,0,0,1,0,.58C288.85,150.63,279.13,164,266.89,164Zm-21.34-14.24c1.5,2,10.58,13.24,21.34,13.24s19.83-11.27,21.34-13.24c-1.51-2-10.58-13.25-21.34-13.25S247.05,147.8,245.55,149.77Z" style="fill:#263238"></path><circle cx="266.89" cy="149.77" r="10.18" transform="translate(-20.49 44.54) rotate(-9.19)" style="fill:#263238"></circle><path d="M266.89,160.45a10.69,10.69,0,1,1,10.68-10.68A10.7,10.7,0,0,1,266.89,160.45Zm0-20.37a9.69,9.69,0,1,0,9.68,9.69A9.7,9.7,0,0,0,266.89,140.08Z" style="fill:#263238"></path><path d="M156.84,187a2.11,2.11,0,1,1,4.22,0,2.11,2.11,0,0,1-4.22,0Zm3.95-19.25c0,1.24-.36,4.43-.8,9.12l-.44,4.66h-1.2l-.44-4.66c-.43-4.69-.8-7.88-.8-9.12,0-1.44.7-2,1.84-2S160.79,166.29,160.79,167.73Z" style="fill:#263238"></path><path d="M146.74,160.31l2.76-.92-5.3-4.83c-2.76-2.54-9.66-4.38-9.66-4.38s-6.22-1.84-9.44-1.15-12.43,3.92-14.27,6.45a21,21,0,0,0-3,13.12,21.05,21.05,0,0,0,1.64,4.94c.28.9,2.33,7.64,3.19,9.79a5.16,5.16,0,0,0,2.09,2.34,15.66,15.66,0,0,1-1.17,6.4c-.54,1.35-3,5.52-5,8.76a32.52,32.52,0,0,0,25.46,6l-.4-4.63s.23-1.61.23-2.3,2.3-5.75,3-5.52a21.76,21.76,0,0,0,5.52.23,4.29,4.29,0,0,0,3-3c.46-1.84,1.85-9.2,1.85-9.2s2.3-1.15,2.53-2.31-2.53-5.75-3.22-7.13,1.38-3.22,1.38-5.06a5.11,5.11,0,0,0-.92-3l3.22-1.15Z" style="fill:#fff"></path><path d="M128.16,207.87a32.9,32.9,0,0,1-19.9-6.64.5.5,0,0,1-.13-.66,94.35,94.35,0,0,0,5-8.68,15.28,15.28,0,0,0,1.14-5.95,5.43,5.43,0,0,1-2.06-2.43c-.85-2.11-2.82-8.56-3.21-9.83a21.34,21.34,0,0,1-1.66-5c-.69-4.59,1-10.68,3.08-13.49s11.23-5.92,14.57-6.64,9.43,1.09,9.69,1.16,7,1.9,9.86,4.49l5.29,4.83a.49.49,0,0,1-.17.84l-2,.67,2.88,2.88a.53.53,0,0,1,.14.46.49.49,0,0,1-.32.36l-2.64,1a5.91,5.91,0,0,1,.67,2.73,6.21,6.21,0,0,1-.88,2.67c-.42.84-.82,1.63-.56,2.17.15.29.4.74.69,1.27,1.53,2.79,2.78,5.19,2.58,6.18-.23,1.16-1.93,2.19-2.58,2.54-.24,1.3-1.38,7.32-1.8,9a4.76,4.76,0,0,1-3.36,3.36,22.32,22.32,0,0,1-5.64-.2,17.54,17.54,0,0,0-2.49,5c0,.64-.19,2-.23,2.3l.4,4.58a.5.5,0,0,1-.41.53A33.52,33.52,0,0,1,128.16,207.87Zm-18.93-7.17a31.85,31.85,0,0,0,24.25,5.72l-.36-4.18a.4.4,0,0,1,0-.11s.23-1.58.23-2.23,1.92-5.12,3-5.86a.74.74,0,0,1,.69-.14,22.33,22.33,0,0,0,5.24.22,3.79,3.79,0,0,0,2.63-2.63c.45-1.8,1.82-9.1,1.83-9.18A.5.5,0,0,1,147,182c.87-.43,2.14-1.33,2.27-2s-1.7-4.08-2.48-5.51c-.3-.54-.55-1-.7-1.31-.49-1,0-2,.56-3.06a5.37,5.37,0,0,0,.77-2.22,4.67,4.67,0,0,0-.82-2.69.46.46,0,0,1-.08-.44.5.5,0,0,1,.31-.34l2.48-.88-2.9-2.9a.49.49,0,0,1-.13-.46.48.48,0,0,1,.33-.36l1.95-.65c-.92-.84-2.74-2.5-4.66-4.27-2.64-2.41-9.39-4.24-9.46-4.25s-6.15-1.8-9.21-1.15c-3.31.71-12.25,3.89-14,6.25a20.6,20.6,0,0,0-2.9,12.75,20.22,20.22,0,0,0,1.61,4.81c.4,1.33,2.36,7.73,3.2,9.81a4.62,4.62,0,0,0,1.89,2.11.48.48,0,0,1,.23.39,16.15,16.15,0,0,1-1.2,6.62C113.53,193.58,111.19,197.5,109.23,200.7Z" style="fill:#263238"></path><polygon points="108.45 193.46 105.12 203.12 137.29 212.84 136.75 206.78 108.45 193.46" style="fill:#fff"></polygon><path d="M137.29,213.34l-.15,0L105,203.6a.53.53,0,0,1-.3-.25.48.48,0,0,1,0-.39L108,193.3a.47.47,0,0,1,.27-.3.53.53,0,0,1,.41,0L137,206.33a.49.49,0,0,1,.28.41l.54,6.06a.52.52,0,0,1-.19.43A.51.51,0,0,1,137.29,213.34Zm-31.53-10.55,31,9.36-.45-5-27.54-13Z" style="fill:#263238"></path><path d="M144.19,173.08c0,1.26-.47,2.27-1.06,2.27s-1-1-1-2.27.47-2.26,1-2.26S144.19,171.83,144.19,173.08Z" style="fill:#263238"></path><path d="M145.09,187.07c-.06,1.25-.57,2.24-1.15,2.22s-1-1.07-.95-2.32.57-2.24,1.15-2.21S145.15,185.82,145.09,187.07Z" style="fill:#263238"></path><path d="M149.5,159.39l-5.3-4.83c-2.76-2.54-9.66-4.38-9.66-4.38s-6.22-1.84-9.44-1.15-12.43,3.92-14.27,6.45a21,21,0,0,0-3,13.12,21.05,21.05,0,0,0,1.64,4.94c.28.9,2.33,7.64,3.19,9.79a5.16,5.16,0,0,0,2.09,2.34l1.68,2.68,2.71-3.44v2.71a7.07,7.07,0,0,0,2.7-1,27.39,27.39,0,0,1,4.43-2,36.27,36.27,0,0,1-3.94-4.18,6.69,6.69,0,0,1,0-7.13,3.36,3.36,0,0,1,5.66-.5c1,1.48,2.7,4.68,2.7,4.68s3.44-4.43,3.94-6.64-.5-5.66-.5-5.66l5.17,1.72-1.48-3,9.14.9,3.22-1.15-3.45-3.45Z" style="fill:#263238"></path><path d="M116.44,188.85h0a.49.49,0,0,1-.4-.23L114.4,186a5.54,5.54,0,0,1-2.19-2.52c-.85-2.11-2.82-8.56-3.21-9.83a21.34,21.34,0,0,1-1.66-5c-.69-4.59,1-10.68,3.08-13.49s11.23-5.92,14.57-6.64,9.43,1.09,9.69,1.16,7,1.9,9.86,4.49l5.29,4.83a.49.49,0,0,1-.17.84l-2,.67,2.88,2.88a.53.53,0,0,1,.14.46.49.49,0,0,1-.32.36l-3.23,1.15a.37.37,0,0,1-.21,0l-8.24-.81,1.07,2.14a.5.5,0,0,1-.06.55.53.53,0,0,1-.54.15l-4.3-1.44a13.17,13.17,0,0,1,.27,5c-.51,2.29-3.88,6.65-4,6.83a.48.48,0,0,1-.44.19.49.49,0,0,1-.4-.26s-1.72-3.19-2.68-4.63a2.88,2.88,0,0,0-2.26-1.1,3,3,0,0,0-2.55,1.58,6.24,6.24,0,0,0,0,6.59,36.35,36.35,0,0,0,3.85,4.09.5.5,0,0,1,.16.46.51.51,0,0,1-.33.38,25.47,25.47,0,0,0-4.29,1.89,7.44,7.44,0,0,1-2.93,1.08.5.5,0,0,1-.57-.49v-1.26l-1.81,2.3A.51.51,0,0,1,116.44,188.85Zm10.38-39.47a8.08,8.08,0,0,0-1.62.14c-3.31.71-12.25,3.89-14,6.25a20.6,20.6,0,0,0-2.9,12.75,20.22,20.22,0,0,0,1.61,4.81c.4,1.33,2.36,7.73,3.2,9.81a4.62,4.62,0,0,0,1.89,2.11.57.57,0,0,1,.16.15l1.3,2.08,2.26-2.88a.51.51,0,0,1,.9.31V187a5.47,5.47,0,0,0,1.9-.78,21.22,21.22,0,0,1,3.79-1.75,29.52,29.52,0,0,1-3.41-3.72,7.14,7.14,0,0,1,0-7.67,4.06,4.06,0,0,1,3.39-2.05,3.65,3.65,0,0,1,3.1,1.55c.72,1.07,1.8,3,2.36,4,.94-1.27,3-4.21,3.38-5.82.46-2.07-.48-5.38-.49-5.41a.49.49,0,0,1,.14-.5.49.49,0,0,1,.5-.11l4,1.34-.94-1.87a.52.52,0,0,1,0-.51.49.49,0,0,1,.46-.21l9,.88,2.38-.84-2.9-2.9a.49.49,0,0,1-.13-.46.48.48,0,0,1,.33-.36l1.95-.65c-.92-.84-2.74-2.5-4.66-4.27-2.64-2.41-9.39-4.24-9.46-4.25A33.16,33.16,0,0,0,126.82,149.38Z" style="fill:#263238"></path><path d="M141,168.23a.46.46,0,0,1-.28-.08.5.5,0,0,1-.14-.69,3.33,3.33,0,0,1,2-1.34,3,3,0,0,1,2.38.73.5.5,0,1,1-.61.79,2.11,2.11,0,0,0-1.6-.53,2.33,2.33,0,0,0-1.37.91A.48.48,0,0,1,141,168.23Z" style="fill:#263238"></path><path d="M57.15,253.18l-1.27-2.63-4.11,5.88c-2.16,3.06-3.1,10.15-3.1,10.15s-1,6.4.08,9.5S54.23,287.9,57,289.4a21,21,0,0,0,13.4,1.28,20.79,20.79,0,0,0,4.69-2.26c.86-.39,7.28-3.3,9.3-4.43a5.17,5.17,0,0,0,2-2.37,15.66,15.66,0,0,1,6.5.34c1.4.36,5.87,2.3,9.34,3.86a32.55,32.55,0,0,0,4-20.28,33.48,33.48,0,0,0-1.28-5.74l-4.54,1s-1.63,0-2.32.07-6-1.54-5.86-2.25a21.57,21.57,0,0,0-.48-5.51,4.27,4.27,0,0,0-3.35-2.58c-1.89-.22-9.37-.65-9.37-.65s-1.44-2.13-2.61-2.21-5.38,3.25-6.66,4.11-3.37-1-5.2-.71a5.06,5.06,0,0,0-2.85,1.29l-1.55-3Z" style="fill:#fff"></path><path d="M65.77,291.76a20.55,20.55,0,0,1-9-1.92c-2.93-1.6-7.31-10.36-8.46-13.59s-.13-9.49-.09-9.75,1-7.23,3.18-10.36,4.11-5.87,4.11-5.87a.47.47,0,0,1,.45-.21.5.5,0,0,1,.41.28l.91,1.89L59.73,249a.49.49,0,0,1,.44-.19.52.52,0,0,1,.4.27l1.27,2.5a5.86,5.86,0,0,1,2.63-1,6.26,6.26,0,0,1,2.76.52c.89.32,1.72.61,2.22.28l1.17-.84c2.58-1.88,4.81-3.42,5.8-3.36,1.18.08,2.42,1.64,2.85,2.23,1.32.07,7.44.43,9.15.63a4.74,4.74,0,0,1,3.76,2.9,22.25,22.25,0,0,1,.53,5.62,17.34,17.34,0,0,0,5.3,1.83,22.61,22.61,0,0,1,2.32-.08l4.48-1a.49.49,0,0,1,.58.34,33.14,33.14,0,0,1-2.71,26.41.49.49,0,0,1-.64.21,95.37,95.37,0,0,0-9.25-3.83,15.25,15.25,0,0,0-6.05-.37,5.39,5.39,0,0,1-2.14,2.36c-2,1.1-8.12,3.9-9.34,4.44a20.19,20.19,0,0,1-4.75,2.29A17.25,17.25,0,0,1,65.77,291.76Zm-10-40.22c-.71,1-2.12,3-3.63,5.17-2.06,2.93-3,9.86-3,9.93s-1,6.33,0,9.28c1.13,3.19,5.43,11.65,8,13.05a20.58,20.58,0,0,0,13,1.23A19.83,19.83,0,0,0,74.8,288c1.26-.57,7.37-3.35,9.31-4.43A4.64,4.64,0,0,0,86,281.41a.47.47,0,0,1,.35-.28,16,16,0,0,1,6.72.34c1.38.36,5.57,2.17,9,3.7a32.2,32.2,0,0,0,2.55-24.78l-4.1.89h-.11s-1.6,0-2.24.07-5.32-1.26-6.19-2.18a.74.74,0,0,1-.23-.67,22.51,22.51,0,0,0-.46-5.23A3.77,3.77,0,0,0,88.31,251c-1.85-.21-9.26-.63-9.34-.64a.48.48,0,0,1-.39-.22c-.54-.8-1.59-2-2.22-2s-3.83,2.2-5.15,3.17c-.5.36-.92.67-1.2.86-.91.61-2,.22-3.12-.16a5.37,5.37,0,0,0-2.3-.48A4.67,4.67,0,0,0,62,252.7a.5.5,0,0,1-.43.15.49.49,0,0,1-.37-.27L60,250.24l-2.5,3.24a.5.5,0,0,1-.84-.09Z" style="fill:#263238"></path><path d="M69.67,257.6a.41.41,0,0,1-.16,0,.5.5,0,0,1-.32-.63,2.62,2.62,0,0,0-.29-2.64.49.49,0,0,1,0-.7.5.5,0,0,1,.7,0,3.55,3.55,0,0,1,.53,3.65A.49.49,0,0,1,69.67,257.6Z" style="fill:#263238"></path><polygon points="94.95 286.88 104.95 288.94 110.45 255.78 104.52 257.09 94.95 286.88" style="fill:#fff"></polygon><path d="M105,289.44h-.1l-10-2.06a.51.51,0,0,1-.33-.24.49.49,0,0,1,0-.41L104,256.94a.49.49,0,0,1,.37-.34l5.94-1.31a.5.5,0,0,1,.45.13.51.51,0,0,1,.15.44L105.45,289a.52.52,0,0,1-.21.33A.52.52,0,0,1,105,289.44Zm-9.36-2.94,9,1.84,5.29-31.91-4.94,1.09Z" style="fill:#263238"></path><path d="M83.89,251.36c1.25-.1,2.3.28,2.35.86s-.92,1.13-2.17,1.24-2.3-.28-2.35-.86S82.65,251.47,83.89,251.36Z" style="fill:#263238"></path><path d="M55.88,250.55l-4.11,5.88c-2.16,3.06-3.1,10.15-3.1,10.15s-1,6.4.08,9.5S54.23,287.9,57,289.4a21,21,0,0,0,13.4,1.28,20.79,20.79,0,0,0,4.69-2.26c.86-.39,7.28-3.3,9.3-4.43a5.17,5.17,0,0,0,2-2.37l2.44-2-3.76-2.24,2.68-.35a7,7,0,0,0-1.32-2.56,27.37,27.37,0,0,1-2.52-4.13,35.41,35.41,0,0,1-3.64,4.44,6.71,6.71,0,0,1-7.07.92A3.36,3.36,0,0,1,72,270.14c1.33-1.16,4.28-3.28,4.28-3.28s-4.83-2.85-7.09-3.05S63.66,265,63.66,265l1-5.34L62,261.53l-.28-9.18-1.55-3-3,3.87Z" style="fill:#263238"></path><path d="M65.77,291.76a20.55,20.55,0,0,1-9-1.92c-2.93-1.6-7.31-10.36-8.46-13.59s-.13-9.49-.09-9.75,1-7.23,3.18-10.36,4.11-5.87,4.11-5.87a.47.47,0,0,1,.45-.21.5.5,0,0,1,.41.28l.91,1.89L59.73,249a.49.49,0,0,1,.44-.19.52.52,0,0,1,.4.27l1.56,3a.5.5,0,0,1,0,.21l.26,8.27,2-1.34a.52.52,0,0,1,.56,0,.49.49,0,0,1,.21.51l-.87,4.45a13.21,13.21,0,0,1,4.93-.92c2.34.21,7.09,3,7.3,3.12a.51.51,0,0,1,.24.41.48.48,0,0,1-.21.42s-2.94,2.12-4.24,3.26a2.71,2.71,0,0,0-.8,2.38,3,3,0,0,0,1.89,2.33,6.22,6.22,0,0,0,6.53-.84A34.52,34.52,0,0,0,83.52,270a.51.51,0,0,1,.86.06,25.56,25.56,0,0,0,2.43,4,7.43,7.43,0,0,1,1.45,2.77.54.54,0,0,1-.07.41.51.51,0,0,1-.35.22l-1.25.16,2.52,1.5a.5.5,0,0,1,.06.81l-2.36,1.95a5.56,5.56,0,0,1-2.21,2.49c-2,1.1-8.12,3.9-9.34,4.44a20.19,20.19,0,0,1-4.75,2.29A17.25,17.25,0,0,1,65.77,291.76Zm-10-40.22c-.71,1-2.12,3-3.63,5.17-2.06,2.93-3,9.86-3,9.93s-1,6.33,0,9.28c1.13,3.19,5.43,11.65,8,13.05a20.58,20.58,0,0,0,13,1.23A19.83,19.83,0,0,0,74.8,288c1.26-.57,7.37-3.35,9.31-4.43A4.64,4.64,0,0,0,86,281.41a.46.46,0,0,1,.13-.18l1.9-1.56-3.15-1.87a.5.5,0,0,1-.24-.53.52.52,0,0,1,.43-.4l2.08-.27a5.6,5.6,0,0,0-1-1.79,21.91,21.91,0,0,1-2.23-3.53,28.09,28.09,0,0,1-3.24,3.86,7.14,7.14,0,0,1-7.61,1,4,4,0,0,1-2.46-3.1,3.73,3.73,0,0,1,1.13-3.28c1-.84,2.74-2.16,3.69-2.85-1.39-.77-4.57-2.45-6.21-2.6-2.1-.2-5.27,1.16-5.3,1.18a.54.54,0,0,1-.52-.07.51.51,0,0,1-.17-.49l.81-4.16-1.74,1.17a.5.5,0,0,1-.5,0,.49.49,0,0,1-.28-.43l-.27-9.06L60,250.24l-2.5,3.24a.5.5,0,0,1-.84-.09Z" style="fill:#263238"></path><path d="M65.24,258.38a.59.59,0,0,1-.22-.05,3.33,3.33,0,0,1-1.58-1.84,3,3,0,0,1,.41-2.46.48.48,0,0,1,.68-.17.49.49,0,0,1,.18.68,2.15,2.15,0,0,0-.32,1.66,2.3,2.3,0,0,0,1.08,1.23.51.51,0,0,1,.22.67A.49.49,0,0,1,65.24,258.38Z" style="fill:#263238"></path><path d="M53.62,289.84h0l-6.79-.59a.5.5,0,0,1-.45-.54.5.5,0,0,1,.54-.45l6.78.59a.5.5,0,0,1,0,1Z" style="fill:#263238"></path><path d="M51,294.27a.5.5,0,0,1-.11-1l6.49-1.47a.49.49,0,0,1,.6.37.5.5,0,0,1-.38.6l-6.48,1.47Z" style="fill:#263238"></path><path d="M64.82,296.63a.51.51,0,0,1-.48-.36l-.88-2.95a.5.5,0,0,1,1-.29l.88,3a.51.51,0,0,1-.33.63Z" style="fill:#263238"></path><path d="M79.57,293.68a.57.57,0,0,1-.18,0l-4.72-1.77a.51.51,0,0,1-.29-.65.5.5,0,0,1,.64-.29l4.72,1.77a.5.5,0,0,1,.3.64A.52.52,0,0,1,79.57,293.68Z" style="fill:#263238"></path><path d="M100.66,231l2.22-10.46h1.41L106.52,231h-1.38l-.48-2.63h-2.13L102,231Zm2.07-3.68h1.74l-.88-4.71Z" style="fill:#263238"></path><path d="M107.58,231V220.57h1l3,7v-7h1.21V231h-.93l-3-7.14V231Z" style="fill:#263238"></path><path d="M113.75,231l2.19-5.47-2.15-5h1.36l1.59,3.7,1.44-3.7h1.36l-2.2,5.11,2.3,5.35h-1.35l-1.71-3.93L115.11,231Z" style="fill:#263238"></path><path d="M120.7,231V220.57h1.43V231Z" style="fill:#263238"></path><path d="M123.82,231V220.57h4.06v1.09h-2.6v3.46h2.11v1h-2.11V230h2.63v1Z" style="fill:#263238"></path><path d="M130.23,231v-9.37h-1.77v-1.09h4.95v1.09h-1.72V231Z" style="fill:#263238"></path><path d="M136,231v-3.69l-2.26-6.77h1.36l1.6,5.05,1.58-5.05h1.37l-2.25,6.77V231Z" style="fill:#263238"></path><path d="M249.56,181.47a2.76,2.76,0,0,1-1.51-.39,2.39,2.39,0,0,1-.91-1.07,4.65,4.65,0,0,1-.36-1.59l1.29-.34a6.29,6.29,0,0,0,.18,1.07,2,2,0,0,0,.44.84,1.15,1.15,0,0,0,.87.33,1.12,1.12,0,0,0,.86-.31,1.32,1.32,0,0,0,.29-.91,1.91,1.91,0,0,0-.32-1.15,6,6,0,0,0-.82-.87l-1.75-1.55a3,3,0,0,1-.77-1,3.18,3.18,0,0,1-.24-1.32,2.34,2.34,0,0,1,.66-1.78,2.47,2.47,0,0,1,1.79-.63,3.25,3.25,0,0,1,1.09.16,1.93,1.93,0,0,1,.79.49,2.45,2.45,0,0,1,.5.85,4.87,4.87,0,0,1,.26,1.19l-1.24.34a5.38,5.38,0,0,0-.16-1,1.47,1.47,0,0,0-.4-.7,1.26,1.26,0,0,0-.84-.26,1.17,1.17,0,0,0-.84.29,1.1,1.1,0,0,0-.31.86,1.82,1.82,0,0,0,.16.79,2.6,2.6,0,0,0,.53.63l1.77,1.55a5.46,5.46,0,0,1,1,1.23,3.15,3.15,0,0,1,.45,1.7,2.61,2.61,0,0,1-.32,1.34,2.12,2.12,0,0,1-.88.85A2.74,2.74,0,0,1,249.56,181.47Z" style="fill:#263238"></path><path d="M254.35,181.36V172h-1.77V170.9h4.95V172h-1.72v9.38Z" style="fill:#263238"></path><path d="M257.94,181.36l2.22-10.46h1.41l2.23,10.46h-1.38l-.48-2.64h-2.13l-.5,2.64Zm2.06-3.68h1.75l-.88-4.72Z" style="fill:#263238"></path><path d="M264.86,181.36V170.9H267a4.72,4.72,0,0,1,1.73.27,2,2,0,0,1,1,.89,3.41,3.41,0,0,1,.33,1.61,4.7,4.7,0,0,1-.13,1.11,2.35,2.35,0,0,1-.41.84,1.64,1.64,0,0,1-.75.49l1.48,5.25h-1.41l-1.37-4.91h-1.13v4.91Zm1.46-6h.55a2.83,2.83,0,0,0,1-.15,1.06,1.06,0,0,0,.57-.53,2.48,2.48,0,0,0,.18-1.05,2,2,0,0,0-.34-1.32,1.67,1.67,0,0,0-1.33-.41h-.64Z" style="fill:#263238"></path><path d="M271.64,181.36V170.9h1.43v10.46Z" style="fill:#263238"></path><path d="M274.76,181.36V170.9h1l3,6.94V170.9h1.21v10.46H279l-3-7.15v7.15Z" style="fill:#263238"></path><path d="M284.07,181.48a2.67,2.67,0,0,1-1.57-.42,2.31,2.31,0,0,1-.85-1.22,6,6,0,0,1-.26-1.92v-3.5a6.88,6.88,0,0,1,.24-1.95,2.18,2.18,0,0,1,.85-1.24,3,3,0,0,1,1.71-.42,3.28,3.28,0,0,1,1.58.33,1.91,1.91,0,0,1,.87,1,4.68,4.68,0,0,1,.27,1.71v.39h-1.37v-.32a5.68,5.68,0,0,0-.09-1.12,1,1,0,0,0-.36-.64,1.41,1.41,0,0,0-.88-.22,1.24,1.24,0,0,0-.93.3,1.32,1.32,0,0,0-.36.81,8,8,0,0,0-.07,1.15v3.88a5.63,5.63,0,0,0,.11,1.25,1.26,1.26,0,0,0,.42.75,1.37,1.37,0,0,0,.87.24,1.3,1.3,0,0,0,.88-.27,1.44,1.44,0,0,0,.43-.8,6.85,6.85,0,0,0,.11-1.32v-.72h-1.33v-1H287v5.18h-.92l-.14-1.21a2.23,2.23,0,0,1-.64,1A1.83,1.83,0,0,1,284.07,181.48Z" style="fill:#263238"></path><path d="M378.32,230.92l-1.7-10.46h1.21L379,228l1.4-7.47h1l1.42,7.51,1.1-7.55h1.18l-1.68,10.46h-1.05l-1.46-7.75-1.47,7.75Z" style="fill:#263238"></path><path d="M386.38,230.92V220.46h4.06v1.08h-2.6V225H390v1h-2.11v3.83h2.62v1Z" style="fill:#263238"></path><path d="M391.07,230.92l2.22-10.46h1.41l2.23,10.46h-1.38l-.48-2.64h-2.13l-.5,2.64Zm2.06-3.68h1.75l-.88-4.72Z" style="fill:#263238"></path><path d="M398,230.92V220.46h1.46v4.93l2.4-4.93h1.36l-2.07,4.61,2.4,5.85h-1.42l-2-4.91-.67,1.21v3.7Z" style="fill:#263238"></path><path d="M404.38,230.92V220.46h1l3,6.94v-6.94h1.22v10.46h-.93l-3-7.14v7.14Z" style="fill:#263238"></path><path d="M411.2,230.92V220.46h4.05v1.08h-2.59V225h2.1v1h-2.1v3.83h2.62v1Z" style="fill:#263238"></path><path d="M418.92,231a2.84,2.84,0,0,1-1.51-.38,2.54,2.54,0,0,1-.91-1.08,4.65,4.65,0,0,1-.36-1.58l1.29-.35a6.29,6.29,0,0,0,.18,1.07,1.92,1.92,0,0,0,.44.84,1.15,1.15,0,0,0,.87.33,1.12,1.12,0,0,0,.86-.31,1.32,1.32,0,0,0,.29-.91,1.91,1.91,0,0,0-.32-1.15,7.17,7.17,0,0,0-.82-.87l-1.75-1.55a3,3,0,0,1-.77-1,3.26,3.26,0,0,1-.24-1.33,2.35,2.35,0,0,1,.66-1.78,2.47,2.47,0,0,1,1.79-.63,3.25,3.25,0,0,1,1.09.16,1.85,1.85,0,0,1,.79.5,2.32,2.32,0,0,1,.5.84,4.85,4.85,0,0,1,.26,1.2l-1.24.33a5.38,5.38,0,0,0-.16-1,1.39,1.39,0,0,0-.4-.69,1.21,1.21,0,0,0-.84-.27,1.17,1.17,0,0,0-.84.29,1.12,1.12,0,0,0-.31.86,1.82,1.82,0,0,0,.16.79,2.43,2.43,0,0,0,.53.63l1.77,1.55a5.69,5.69,0,0,1,1,1.23,3.15,3.15,0,0,1,.45,1.7,2.61,2.61,0,0,1-.32,1.34,2.21,2.21,0,0,1-.88.86A2.86,2.86,0,0,1,418.92,231Z" style="fill:#263238"></path><path d="M425,231a2.79,2.79,0,0,1-1.51-.38,2.48,2.48,0,0,1-.91-1.08,4.42,4.42,0,0,1-.36-1.58l1.29-.35a6.29,6.29,0,0,0,.18,1.07,1.92,1.92,0,0,0,.44.84,1.15,1.15,0,0,0,.87.33,1.12,1.12,0,0,0,.86-.31,1.32,1.32,0,0,0,.29-.91,1.85,1.85,0,0,0-.33-1.15,6.34,6.34,0,0,0-.81-.87l-1.76-1.55a3.13,3.13,0,0,1-.76-1,3.26,3.26,0,0,1-.24-1.33,2.35,2.35,0,0,1,.66-1.78,2.46,2.46,0,0,1,1.79-.63,3.29,3.29,0,0,1,1.09.16,1.85,1.85,0,0,1,.79.5,2.32,2.32,0,0,1,.5.84,4.45,4.45,0,0,1,.25,1.2l-1.24.33a4.61,4.61,0,0,0-.15-1,1.33,1.33,0,0,0-.41-.69,1.17,1.17,0,0,0-.83-.27,1.22,1.22,0,0,0-.85.29,1.15,1.15,0,0,0-.3.86,1.68,1.68,0,0,0,.16.79,2.25,2.25,0,0,0,.53.63l1.76,1.55a5.46,5.46,0,0,1,1.05,1.23,3.15,3.15,0,0,1,.45,1.7,2.71,2.71,0,0,1-.32,1.34,2.23,2.23,0,0,1-.89.86A2.79,2.79,0,0,1,425,231Z" style="fill:#263238"></path><path d="M377,316.17l.2-10.46h1.43l1.85,8.48,1.86-8.48h1.41l.2,10.46h-1.18l-.11-7.59-1.77,7.59h-.83l-1.75-7.59-.12,7.59Z" style="fill:#263238"></path><path d="M388.27,316.29a2.86,2.86,0,0,1-1.74-.46,2.23,2.23,0,0,1-.83-1.27,7.29,7.29,0,0,1-.22-1.92v-6.93h1.39v7a7.72,7.72,0,0,0,.09,1.23,1.6,1.6,0,0,0,.4.87,1.16,1.16,0,0,0,.91.33,1.15,1.15,0,0,0,.91-.33,1.6,1.6,0,0,0,.39-.87,7.72,7.72,0,0,0,.09-1.23v-7H391v6.93a7.29,7.29,0,0,1-.22,1.92,2.17,2.17,0,0,1-.82,1.27A2.83,2.83,0,0,1,388.27,316.29Z" style="fill:#263238"></path><path d="M395.05,316.29a2.71,2.71,0,0,1-1.51-.39,2.51,2.51,0,0,1-.91-1.07,4.76,4.76,0,0,1-.36-1.59l1.29-.35a6.13,6.13,0,0,0,.18,1.07,2,2,0,0,0,.44.85,1.15,1.15,0,0,0,.87.33,1.12,1.12,0,0,0,.86-.32,1.31,1.31,0,0,0,.29-.91,1.84,1.84,0,0,0-.33-1.14,5.37,5.37,0,0,0-.81-.87l-1.76-1.55a2.76,2.76,0,0,1-1-2.32,2.35,2.35,0,0,1,.66-1.78,2.46,2.46,0,0,1,1.79-.63,3.29,3.29,0,0,1,1.09.16,1.85,1.85,0,0,1,.79.5,2.32,2.32,0,0,1,.5.84,4.45,4.45,0,0,1,.25,1.2l-1.24.33a4.4,4.4,0,0,0-.15-.94,1.36,1.36,0,0,0-.41-.7,1.17,1.17,0,0,0-.83-.27,1.22,1.22,0,0,0-.85.29,1.15,1.15,0,0,0-.3.86,1.68,1.68,0,0,0,.16.79,2.12,2.12,0,0,0,.53.63l1.76,1.55a5.52,5.52,0,0,1,1.05,1.24,3.09,3.09,0,0,1,.45,1.69,2.71,2.71,0,0,1-.32,1.34,2.23,2.23,0,0,1-.89.86A2.67,2.67,0,0,1,395.05,316.29Z" style="fill:#263238"></path><path d="M401.31,316.29a2.77,2.77,0,0,1-1.72-.47,2.42,2.42,0,0,1-.86-1.25,6,6,0,0,1-.24-1.76v-3.69a6.39,6.39,0,0,1,.24-1.85,2.27,2.27,0,0,1,.86-1.22,2.92,2.92,0,0,1,1.72-.43,3,3,0,0,1,1.56.36,2.05,2.05,0,0,1,.82,1,4.6,4.6,0,0,1,.25,1.62v.82h-1.38v-.73a7.83,7.83,0,0,0-.06-1,1.08,1.08,0,0,0-.31-.69,1.26,1.26,0,0,0-.87-.24,1.27,1.27,0,0,0-.9.26,1.33,1.33,0,0,0-.37.75,6.31,6.31,0,0,0-.08,1.13V313a4.64,4.64,0,0,0,.13,1.25,1,1,0,0,0,.42.65,1.46,1.46,0,0,0,.8.2,1.13,1.13,0,0,0,.85-.27,1.27,1.27,0,0,0,.33-.73,8.54,8.54,0,0,0,.06-1.08v-.78h1.38v.78a5.38,5.38,0,0,1-.23,1.68,2.11,2.11,0,0,1-.8,1.14A2.72,2.72,0,0,1,401.31,316.29Z" style="fill:#263238"></path><path d="M405.34,316.17V305.71h1.46v9.41h2.67v1.05Z" style="fill:#263238"></path><path d="M410.46,316.17V305.71h4.06v1.08h-2.6v3.47H414v1h-2.11v3.83h2.62v1.05Z" style="fill:#263238"></path><path d="M421.3,316.29a2.82,2.82,0,0,1-1.73-.47,2.41,2.41,0,0,1-.85-1.25,6,6,0,0,1-.24-1.76v-3.69a6.39,6.39,0,0,1,.24-1.85,2.25,2.25,0,0,1,.85-1.22,3,3,0,0,1,1.73-.43,2.89,2.89,0,0,1,1.55.36,2,2,0,0,1,.83,1,4.6,4.6,0,0,1,.25,1.62v.82h-1.38v-.73a7.83,7.83,0,0,0-.06-1,1.09,1.09,0,0,0-.32-.69,1.25,1.25,0,0,0-.86-.24,1.1,1.1,0,0,0-1.27,1,6.23,6.23,0,0,0-.09,1.13V313a5.08,5.08,0,0,0,.13,1.25,1.09,1.09,0,0,0,.43.65,1.43,1.43,0,0,0,.8.2,1.13,1.13,0,0,0,.85-.27,1.26,1.26,0,0,0,.32-.73,6.91,6.91,0,0,0,.07-1.08v-.78h1.38v.78a5.69,5.69,0,0,1-.23,1.68,2.17,2.17,0,0,1-.8,1.14A2.72,2.72,0,0,1,421.3,316.29Z" style="fill:#263238"></path><path d="M428,316.29a3,3,0,0,1-1.69-.42,2.21,2.21,0,0,1-.91-1.18,5.41,5.41,0,0,1-.27-1.8v-4a5,5,0,0,1,.28-1.77,2.28,2.28,0,0,1,.9-1.14,3.18,3.18,0,0,1,1.69-.39,3.07,3.07,0,0,1,1.68.4,2.26,2.26,0,0,1,.89,1.14,4.89,4.89,0,0,1,.28,1.76v4a5,5,0,0,1-.28,1.78,2.35,2.35,0,0,1-.89,1.19A3,3,0,0,1,428,316.29Zm0-1.15a1.38,1.38,0,0,0,.88-.24,1.26,1.26,0,0,0,.4-.67,4.4,4.4,0,0,0,.1-1v-4.58a4.17,4.17,0,0,0-.1-1,1.17,1.17,0,0,0-.4-.65,1.45,1.45,0,0,0-.88-.22,1.5,1.5,0,0,0-.89.22,1.12,1.12,0,0,0-.4.65,4.13,4.13,0,0,0-.11,1v4.58a4.36,4.36,0,0,0,.11,1,1.2,1.2,0,0,0,.4.67A1.43,1.43,0,0,0,428,315.14Z" style="fill:#263238"></path><path d="M432.28,316.17V305.71h1l3,7v-7h1.21v10.46h-.93l-3-7.14v7.14Z" style="fill:#263238"></path><path d="M440.25,316.17v-9.38h-1.77v-1.08h4.95v1.08h-1.72v9.38Z" style="fill:#263238"></path><path d="M444.43,316.17V305.71h2.11a4.54,4.54,0,0,1,1.73.28,1.89,1.89,0,0,1,1,.89,3.38,3.38,0,0,1,.33,1.61,4.2,4.2,0,0,1-.13,1.1,2.07,2.07,0,0,1-.41.84,1.66,1.66,0,0,1-.75.5l1.49,5.24H448.4L447,311.26h-1.14v4.91Zm1.46-5.95h.56a2.64,2.64,0,0,0,1-.16,1,1,0,0,0,.56-.53,2.44,2.44,0,0,0,.19-1,2.1,2.1,0,0,0-.34-1.33,1.69,1.69,0,0,0-1.33-.4h-.65Z" style="fill:#263238"></path><path d="M450.57,316.17l2.22-10.46h1.41l2.23,10.46h-1.38l-.48-2.64h-2.13l-.5,2.64Zm2.06-3.68h1.75l-.88-4.71Z" style="fill:#263238"></path><path d="M460.06,316.29a2.82,2.82,0,0,1-1.73-.47,2.46,2.46,0,0,1-.85-1.25,6,6,0,0,1-.24-1.76v-3.69a6.39,6.39,0,0,1,.24-1.85,2.3,2.3,0,0,1,.85-1.22,3,3,0,0,1,1.73-.43,2.89,2.89,0,0,1,1.55.36,2,2,0,0,1,.83,1,4.6,4.6,0,0,1,.25,1.62v.82h-1.38v-.73a7.83,7.83,0,0,0-.06-1,1.14,1.14,0,0,0-.31-.69,1.69,1.69,0,0,0-1.77,0,1.33,1.33,0,0,0-.37.75,6.31,6.31,0,0,0-.08,1.13V313a5.16,5.16,0,0,0,.12,1.25,1.09,1.09,0,0,0,.43.65,1.46,1.46,0,0,0,.8.2,1.13,1.13,0,0,0,.85-.27,1.27,1.27,0,0,0,.33-.73,8.54,8.54,0,0,0,.06-1.08v-.78h1.38v.78a5.69,5.69,0,0,1-.23,1.68,2.11,2.11,0,0,1-.8,1.14A2.72,2.72,0,0,1,460.06,316.29Z" style="fill:#263238"></path><path d="M465.24,316.17v-9.38h-1.77v-1.08h4.94v1.08h-1.72v9.38Z" style="fill:#263238"></path><path d="M469.5,316.17V305.71h1.43v10.46Z" style="fill:#263238"></path><path d="M475.29,316.29a3,3,0,0,1-1.69-.42,2.24,2.24,0,0,1-.9-1.18,5.41,5.41,0,0,1-.27-1.8v-4a5,5,0,0,1,.28-1.77,2.23,2.23,0,0,1,.9-1.14,3.17,3.17,0,0,1,1.68-.39,3,3,0,0,1,1.68.4,2.28,2.28,0,0,1,.9,1.14,5.12,5.12,0,0,1,.28,1.76v4a5.28,5.28,0,0,1-.28,1.78,2.36,2.36,0,0,1-.9,1.19A2.94,2.94,0,0,1,475.29,316.29Zm0-1.15a1.38,1.38,0,0,0,.88-.24,1.2,1.2,0,0,0,.4-.67,4.36,4.36,0,0,0,.11-1v-4.58a4.13,4.13,0,0,0-.11-1,1.12,1.12,0,0,0-.4-.65,1.45,1.45,0,0,0-.88-.22,1.47,1.47,0,0,0-.88.22,1.13,1.13,0,0,0-.41.65,4.17,4.17,0,0,0-.1,1v4.58a4.4,4.4,0,0,0,.1,1,1.22,1.22,0,0,0,.41.67A1.4,1.4,0,0,0,475.29,315.14Z" style="fill:#263238"></path><path d="M479.58,316.17V305.71h1l3,7v-7h1.22v10.46h-.93l-3-7.14v7.14Z" style="fill:#263238"></path><path d="M488.86,316.29a2.7,2.7,0,0,1-1.5-.39,2.51,2.51,0,0,1-.91-1.07,4.32,4.32,0,0,1-.36-1.59l1.29-.35a6.13,6.13,0,0,0,.17,1.07,1.88,1.88,0,0,0,.45.85,1.12,1.12,0,0,0,.86.33,1.11,1.11,0,0,0,.86-.32,1.26,1.26,0,0,0,.29-.91,1.83,1.83,0,0,0-.32-1.14,5.85,5.85,0,0,0-.81-.87l-1.76-1.55a3.13,3.13,0,0,1-.76-1,3.25,3.25,0,0,1-.25-1.33,2.35,2.35,0,0,1,.66-1.78,2.5,2.5,0,0,1,1.8-.63,3.33,3.33,0,0,1,1.09.16,2,2,0,0,1,.79.5,2.47,2.47,0,0,1,.5.84,4.87,4.87,0,0,1,.25,1.2l-1.24.33a5.14,5.14,0,0,0-.15-.94,1.44,1.44,0,0,0-.41-.7,1.17,1.17,0,0,0-.83-.27,1.2,1.2,0,0,0-.85.29,1.15,1.15,0,0,0-.3.86,1.68,1.68,0,0,0,.16.79,2.22,2.22,0,0,0,.52.63l1.77,1.55a5.52,5.52,0,0,1,1.05,1.24,3.09,3.09,0,0,1,.45,1.69,2.71,2.71,0,0,1-.32,1.34,2.23,2.23,0,0,1-.89.86A2.71,2.71,0,0,1,488.86,316.29Z" style="fill:#263238"></path><path d="M22.35,316.17V305.71h1.46v9.41h2.67v1.05Z" style="fill:#263238"></path><path d="M30.07,316.29a3,3,0,0,1-1.69-.42,2.26,2.26,0,0,1-.91-1.18,5.41,5.41,0,0,1-.27-1.8v-4a5.24,5.24,0,0,1,.28-1.78,2.33,2.33,0,0,1,.9-1.14,3.18,3.18,0,0,1,1.69-.39,3,3,0,0,1,1.68.4,2.33,2.33,0,0,1,.9,1.14,5.15,5.15,0,0,1,.27,1.77v4a5.29,5.29,0,0,1-.27,1.78,2.42,2.42,0,0,1-.9,1.19A3,3,0,0,1,30.07,316.29Zm0-1.15a1.38,1.38,0,0,0,.88-.24,1.2,1.2,0,0,0,.4-.67,4.4,4.4,0,0,0,.1-1v-4.58a4.17,4.17,0,0,0-.1-1A1.12,1.12,0,0,0,31,307a1.45,1.45,0,0,0-.88-.22,1.5,1.5,0,0,0-.89.22,1.12,1.12,0,0,0-.4.65,4.13,4.13,0,0,0-.11,1v4.58a4.36,4.36,0,0,0,.11,1,1.2,1.2,0,0,0,.4.67A1.43,1.43,0,0,0,30.07,315.14Z" style="fill:#263238"></path><path d="M36.82,316.29a2.7,2.7,0,0,1-1.5-.39,2.44,2.44,0,0,1-.91-1.07,4.32,4.32,0,0,1-.36-1.59l1.29-.35a5.31,5.31,0,0,0,.17,1.07,1.88,1.88,0,0,0,.45.85,1.3,1.3,0,0,0,1.72,0,1.31,1.31,0,0,0,.29-.91,1.9,1.9,0,0,0-.32-1.14,6,6,0,0,0-.82-.87l-1.75-1.55a2.89,2.89,0,0,1-.76-1,3.1,3.1,0,0,1-.25-1.33,2.35,2.35,0,0,1,.66-1.78,2.5,2.5,0,0,1,1.8-.63,3.33,3.33,0,0,1,1.09.16,1.87,1.87,0,0,1,.78.5,2.48,2.48,0,0,1,.51.84,4.87,4.87,0,0,1,.25,1.2l-1.24.33a5.11,5.11,0,0,0-.16-.94,1.35,1.35,0,0,0-.4-.7,1.4,1.4,0,0,0-1.68,0,1.15,1.15,0,0,0-.3.86,1.68,1.68,0,0,0,.16.79,2.22,2.22,0,0,0,.52.63l1.77,1.55a5.79,5.79,0,0,1,1.05,1.24,3.09,3.09,0,0,1,.45,1.69,2.61,2.61,0,0,1-.33,1.34,2.21,2.21,0,0,1-.88.86A2.71,2.71,0,0,1,36.82,316.29Z" style="fill:#263238"></path><path d="M42.93,316.29a2.7,2.7,0,0,1-1.5-.39,2.44,2.44,0,0,1-.91-1.07,4.53,4.53,0,0,1-.37-1.59l1.29-.35a6.13,6.13,0,0,0,.18,1.07,2,2,0,0,0,.44.85,1.15,1.15,0,0,0,.87.33,1.12,1.12,0,0,0,.86-.32,1.31,1.31,0,0,0,.29-.91,1.9,1.9,0,0,0-.32-1.14,6,6,0,0,0-.82-.87l-1.75-1.55a3.06,3.06,0,0,1-.77-1,3.26,3.26,0,0,1-.24-1.33,2.35,2.35,0,0,1,.66-1.78,2.49,2.49,0,0,1,1.79-.63,3.25,3.25,0,0,1,1.09.16,1.85,1.85,0,0,1,.79.5,2.32,2.32,0,0,1,.5.84,4.85,4.85,0,0,1,.26,1.2l-1.24.33a5.11,5.11,0,0,0-.16-.94,1.42,1.42,0,0,0-.4-.7,1.21,1.21,0,0,0-.84-.27,1.17,1.17,0,0,0-.84.29,1.12,1.12,0,0,0-.31.86,1.68,1.68,0,0,0,.17.79,2.07,2.07,0,0,0,.52.63l1.77,1.55a5.75,5.75,0,0,1,1,1.24,3.09,3.09,0,0,1,.45,1.69,2.61,2.61,0,0,1-.32,1.34,2.21,2.21,0,0,1-.88.86A2.74,2.74,0,0,1,42.93,316.29Z" style="fill:#263238"></path><path d="M52.2,316.29a3,3,0,0,1-1.69-.42,2.31,2.31,0,0,1-.91-1.18,5.41,5.41,0,0,1-.27-1.8v-4a5.24,5.24,0,0,1,.28-1.78,2.3,2.3,0,0,1,.91-1.14,3.12,3.12,0,0,1,1.68-.39,3,3,0,0,1,1.68.4,2.33,2.33,0,0,1,.9,1.14,5.15,5.15,0,0,1,.27,1.77v4a5.29,5.29,0,0,1-.27,1.78,2.42,2.42,0,0,1-.9,1.19A2.94,2.94,0,0,1,52.2,316.29Zm0-1.15a1.38,1.38,0,0,0,.88-.24,1.2,1.2,0,0,0,.4-.67,4.4,4.4,0,0,0,.1-1v-4.58a4.17,4.17,0,0,0-.1-1,1.12,1.12,0,0,0-.4-.65,1.87,1.87,0,0,0-1.76,0,1.08,1.08,0,0,0-.41.65,4.17,4.17,0,0,0-.1,1v4.58a4.4,4.4,0,0,0,.1,1,1.16,1.16,0,0,0,.41.67A1.38,1.38,0,0,0,52.2,315.14Z" style="fill:#263238"></path><path d="M56.49,316.17V305.71h4v1.05H58v3.48h2v1H58v4.89Z" style="fill:#263238"></path><path d="M67.11,316.29a2.79,2.79,0,0,1-1.72-.47,2.41,2.41,0,0,1-.85-1.25,6,6,0,0,1-.24-1.76v-3.69a6.39,6.39,0,0,1,.24-1.85,2.25,2.25,0,0,1,.85-1.22,2.94,2.94,0,0,1,1.72-.43,2.91,2.91,0,0,1,1.56.36,2.07,2.07,0,0,1,.83,1,4.84,4.84,0,0,1,.25,1.62v.82H68.37v-.73a7.83,7.83,0,0,0-.06-1A1.17,1.17,0,0,0,68,307a1.25,1.25,0,0,0-.86-.24,1.29,1.29,0,0,0-.91.26,1.33,1.33,0,0,0-.37.75,7.4,7.4,0,0,0-.08,1.13V313a4.64,4.64,0,0,0,.13,1.25,1.09,1.09,0,0,0,.43.65,1.41,1.41,0,0,0,.8.2,1.14,1.14,0,0,0,.85-.27,1.26,1.26,0,0,0,.32-.73,8.39,8.39,0,0,0,.07-1.08v-.78h1.38v.78a5.36,5.36,0,0,1-.24,1.68,2.11,2.11,0,0,1-.8,1.14A2.7,2.7,0,0,1,67.11,316.29Z" style="fill:#263238"></path><path d="M73.81,316.29a3,3,0,0,1-1.69-.42,2.24,2.24,0,0,1-.9-1.18,5.41,5.41,0,0,1-.27-1.8v-4a5,5,0,0,1,.28-1.78,2.23,2.23,0,0,1,.9-1.14,3.17,3.17,0,0,1,1.68-.39,3,3,0,0,1,1.68.4,2.28,2.28,0,0,1,.9,1.14,4.91,4.91,0,0,1,.28,1.77v4a5,5,0,0,1-.28,1.78,2.36,2.36,0,0,1-.9,1.19A2.94,2.94,0,0,1,73.81,316.29Zm0-1.15a1.38,1.38,0,0,0,.88-.24,1.2,1.2,0,0,0,.4-.67,4.36,4.36,0,0,0,.11-1v-4.58a4.13,4.13,0,0,0-.11-1,1.12,1.12,0,0,0-.4-.65,1.45,1.45,0,0,0-.88-.22,1.47,1.47,0,0,0-.88.22,1.13,1.13,0,0,0-.41.65,4.17,4.17,0,0,0-.1,1v4.58a4.4,4.4,0,0,0,.1,1,1.22,1.22,0,0,0,.41.67A1.4,1.4,0,0,0,73.81,315.14Z" style="fill:#263238"></path><path d="M78.1,316.17V305.71h1l3,7v-7h1.21v10.46h-.93l-3-7.14v7.14Z" style="fill:#263238"></path><path d="M87.38,316.29a2.7,2.7,0,0,1-1.5-.39,2.51,2.51,0,0,1-.91-1.07,4.32,4.32,0,0,1-.36-1.59l1.29-.35a6.13,6.13,0,0,0,.17,1.07,1.88,1.88,0,0,0,.45.85,1.12,1.12,0,0,0,.86.33,1.11,1.11,0,0,0,.86-.32,1.26,1.26,0,0,0,.29-.91,1.83,1.83,0,0,0-.32-1.14,5.85,5.85,0,0,0-.81-.87l-1.76-1.55a3,3,0,0,1-.76-1,3.25,3.25,0,0,1-.25-1.33,2.35,2.35,0,0,1,.66-1.78,2.5,2.5,0,0,1,1.8-.63,3.33,3.33,0,0,1,1.09.16,1.91,1.91,0,0,1,.79.5,2.32,2.32,0,0,1,.5.84,4.87,4.87,0,0,1,.25,1.2l-1.24.33a5.14,5.14,0,0,0-.15-.94,1.44,1.44,0,0,0-.41-.7,1.17,1.17,0,0,0-.83-.27,1.2,1.2,0,0,0-.85.29,1.15,1.15,0,0,0-.3.86,1.68,1.68,0,0,0,.16.79,2.22,2.22,0,0,0,.52.63l1.77,1.55a5.52,5.52,0,0,1,1,1.24,3.09,3.09,0,0,1,.45,1.69,2.71,2.71,0,0,1-.32,1.34,2.23,2.23,0,0,1-.89.86A2.68,2.68,0,0,1,87.38,316.29Z" style="fill:#263238"></path><path d="M93.65,316.29a2.82,2.82,0,0,1-1.73-.47,2.41,2.41,0,0,1-.85-1.25,6,6,0,0,1-.24-1.76v-3.69a6.39,6.39,0,0,1,.24-1.85,2.25,2.25,0,0,1,.85-1.22,3,3,0,0,1,1.73-.43,2.89,2.89,0,0,1,1.55.36,2,2,0,0,1,.83,1,4.6,4.6,0,0,1,.25,1.62v.82H94.9v-.73a7.83,7.83,0,0,0-.06-1,1.12,1.12,0,0,0-.32-.69,1.25,1.25,0,0,0-.86-.24,1.1,1.1,0,0,0-1.27,1,6.23,6.23,0,0,0-.09,1.13V313a5.08,5.08,0,0,0,.13,1.25,1.09,1.09,0,0,0,.43.65,1.43,1.43,0,0,0,.8.2,1.13,1.13,0,0,0,.85-.27,1.26,1.26,0,0,0,.32-.73,6.91,6.91,0,0,0,.07-1.08v-.78h1.38v.78a5.69,5.69,0,0,1-.23,1.68,2.17,2.17,0,0,1-.8,1.14A2.72,2.72,0,0,1,93.65,316.29Z" style="fill:#263238"></path><path d="M97.75,316.17V305.71h1.44v10.46Z" style="fill:#263238"></path><path d="M103.55,316.29a3,3,0,0,1-1.69-.42,2.31,2.31,0,0,1-.91-1.18,5.41,5.41,0,0,1-.27-1.8v-4a5.24,5.24,0,0,1,.28-1.78,2.3,2.3,0,0,1,.91-1.14,3.12,3.12,0,0,1,1.68-.39,3,3,0,0,1,1.68.4,2.33,2.33,0,0,1,.9,1.14,5.15,5.15,0,0,1,.27,1.77v4a5.29,5.29,0,0,1-.27,1.78,2.42,2.42,0,0,1-.9,1.19A2.94,2.94,0,0,1,103.55,316.29Zm0-1.15a1.38,1.38,0,0,0,.88-.24,1.2,1.2,0,0,0,.4-.67,4.4,4.4,0,0,0,.1-1v-4.58a4.17,4.17,0,0,0-.1-1,1.12,1.12,0,0,0-.4-.65,1.87,1.87,0,0,0-1.76,0,1.08,1.08,0,0,0-.41.65,4.17,4.17,0,0,0-.1,1v4.58a4.4,4.4,0,0,0,.1,1,1.16,1.16,0,0,0,.41.67A1.38,1.38,0,0,0,103.55,315.14Z" style="fill:#263238"></path><path d="M110.54,316.29a2.92,2.92,0,0,1-1.75-.46,2.22,2.22,0,0,1-.82-1.27,7.29,7.29,0,0,1-.22-1.92v-6.93h1.39v7a7.72,7.72,0,0,0,.09,1.23,1.6,1.6,0,0,0,.39.87,1.2,1.2,0,0,0,.92.33,1.16,1.16,0,0,0,.91-.33,1.6,1.6,0,0,0,.39-.87,7.72,7.72,0,0,0,.09-1.23v-7h1.38v6.93a7.29,7.29,0,0,1-.22,1.92,2.22,2.22,0,0,1-.82,1.27A2.85,2.85,0,0,1,110.54,316.29Z" style="fill:#263238"></path><path d="M117.31,316.29a2.7,2.7,0,0,1-1.5-.39,2.51,2.51,0,0,1-.91-1.07,4.32,4.32,0,0,1-.36-1.59l1.29-.35A6.13,6.13,0,0,0,116,314a1.88,1.88,0,0,0,.45.85,1.12,1.12,0,0,0,.86.33,1.11,1.11,0,0,0,.86-.32,1.26,1.26,0,0,0,.29-.91,1.83,1.83,0,0,0-.32-1.14,5.85,5.85,0,0,0-.81-.87l-1.76-1.55a3,3,0,0,1-.76-1,3.25,3.25,0,0,1-.25-1.33,2.35,2.35,0,0,1,.66-1.78,2.5,2.5,0,0,1,1.8-.63,3.33,3.33,0,0,1,1.09.16,2,2,0,0,1,.79.5,2.47,2.47,0,0,1,.5.84,4.87,4.87,0,0,1,.25,1.2l-1.24.33a5.14,5.14,0,0,0-.15-.94,1.44,1.44,0,0,0-.41-.7,1.17,1.17,0,0,0-.83-.27,1.2,1.2,0,0,0-.85.29,1.15,1.15,0,0,0-.3.86,1.68,1.68,0,0,0,.16.79,2.22,2.22,0,0,0,.52.63l1.77,1.55a5.52,5.52,0,0,1,1.05,1.24,3.09,3.09,0,0,1,.45,1.69,2.71,2.71,0,0,1-.32,1.34,2.23,2.23,0,0,1-.89.86A2.71,2.71,0,0,1,117.31,316.29Z" style="fill:#263238"></path><path d="M121,316.17V305.71h1l3,7v-7h1.21v10.46h-.93l-3-7.14v7.14Z" style="fill:#263238"></path><path d="M127.77,316.17V305.71h4.06v1.08h-2.6v3.47h2.11v1h-2.11v3.83h2.62v1.05Z" style="fill:#263238"></path><path d="M135.49,316.29a2.7,2.7,0,0,1-1.5-.39,2.51,2.51,0,0,1-.91-1.07,4.32,4.32,0,0,1-.36-1.59l1.29-.35a5.31,5.31,0,0,0,.17,1.07,1.88,1.88,0,0,0,.45.85,1.12,1.12,0,0,0,.86.33,1.11,1.11,0,0,0,.86-.32,1.26,1.26,0,0,0,.29-.91,1.83,1.83,0,0,0-.32-1.14,5.85,5.85,0,0,0-.81-.87l-1.76-1.55a3,3,0,0,1-.76-1,3.25,3.25,0,0,1-.25-1.33,2.35,2.35,0,0,1,.66-1.78,2.5,2.5,0,0,1,1.8-.63,3.33,3.33,0,0,1,1.09.16,2,2,0,0,1,.79.5,2.47,2.47,0,0,1,.5.84,4.87,4.87,0,0,1,.25,1.2l-1.24.33a5.14,5.14,0,0,0-.15-.94,1.44,1.44,0,0,0-.41-.7,1.17,1.17,0,0,0-.83-.27,1.2,1.2,0,0,0-.85.29,1.15,1.15,0,0,0-.3.86,1.68,1.68,0,0,0,.16.79,2.22,2.22,0,0,0,.52.63l1.77,1.55a5.52,5.52,0,0,1,1.05,1.24,3.09,3.09,0,0,1,.45,1.69,2.71,2.71,0,0,1-.32,1.34,2.23,2.23,0,0,1-.89.86A2.71,2.71,0,0,1,135.49,316.29Z" style="fill:#263238"></path><path d="M141.6,316.29a2.7,2.7,0,0,1-1.5-.39,2.44,2.44,0,0,1-.91-1.07,4.32,4.32,0,0,1-.36-1.59l1.29-.35a5.31,5.31,0,0,0,.17,1.07,1.88,1.88,0,0,0,.45.85,1.3,1.3,0,0,0,1.72,0,1.31,1.31,0,0,0,.29-.91,1.9,1.9,0,0,0-.32-1.14,6,6,0,0,0-.82-.87l-1.75-1.55a2.89,2.89,0,0,1-.76-1,3.1,3.1,0,0,1-.25-1.33,2.35,2.35,0,0,1,.66-1.78,2.49,2.49,0,0,1,1.79-.63,3.35,3.35,0,0,1,1.1.16,1.87,1.87,0,0,1,.78.5,2.48,2.48,0,0,1,.51.84,4.87,4.87,0,0,1,.25,1.2l-1.24.33a5.11,5.11,0,0,0-.16-.94,1.35,1.35,0,0,0-.4-.7,1.19,1.19,0,0,0-.84-.27,1.17,1.17,0,0,0-.84.29,1.15,1.15,0,0,0-.3.86,1.68,1.68,0,0,0,.16.79,2.07,2.07,0,0,0,.52.63l1.77,1.55a5.75,5.75,0,0,1,1,1.24,3,3,0,0,1,.46,1.69,2.61,2.61,0,0,1-.33,1.34,2.21,2.21,0,0,1-.88.86A2.74,2.74,0,0,1,141.6,316.29Z" style="fill:#263238"></path></g><g id="Text"><path d="M187.65,89.1V73.81h6.87v2.3H191v3.8h2.66v2.34H191v4.56h3.53V89.1Z" style="fill:#263238"></path><path d="M196.09,89.1V73.81h5.13a4.47,4.47,0,0,1,2.26.52,3.2,3.2,0,0,1,1.32,1.51,6,6,0,0,1,.44,2.41,5.1,5.1,0,0,1-.59,2.7,3,3,0,0,1-1.58,1.3,6.64,6.64,0,0,1-2.25.35h-1.36v6.5Zm3.37-8.85h1.14a1.63,1.63,0,0,0,.94-.23,1.11,1.11,0,0,0,.42-.68,5.14,5.14,0,0,0,.11-1.15,5.26,5.26,0,0,0-.09-1,1.18,1.18,0,0,0-.4-.71,1.62,1.62,0,0,0-1-.26h-1.12Z" style="fill:#263238"></path><path d="M206.73,89.1V73.81h3.38V89.1Z" style="fill:#263238"></path><path d="M212.39,89.1V73.81h3.38v13h3.5V89.1Z" style="fill:#263238"></path><path d="M220.6,89.1V73.81h6.86v2.3H224v3.8h2.66v2.34H224v4.56h3.53V89.1Z" style="fill:#263238"></path><path d="M229,89.1V73.81h5.13a4.54,4.54,0,0,1,2.27.52,3.2,3.2,0,0,1,1.32,1.51,6,6,0,0,1,.43,2.41,5.1,5.1,0,0,1-.59,2.7,3,3,0,0,1-1.58,1.3,6.64,6.64,0,0,1-2.25.35h-1.35v6.5Zm3.38-8.85h1.13a1.63,1.63,0,0,0,.94-.23,1.08,1.08,0,0,0,.43-.68,5.22,5.22,0,0,0,.1-1.15,6.25,6.25,0,0,0-.08-1,1.25,1.25,0,0,0-.41-.71,1.6,1.6,0,0,0-1-.26h-1.11Z" style="fill:#263238"></path><path d="M243.71,89.32a5.08,5.08,0,0,1-2.4-.51,3.27,3.27,0,0,1-1.45-1.57,7.26,7.26,0,0,1-.55-2.77L242.2,84a6.55,6.55,0,0,0,.18,1.58,1.69,1.69,0,0,0,.45.87,1,1,0,0,0,.71.27.68.68,0,0,0,.69-.36,2,2,0,0,0,.16-.76,2.64,2.64,0,0,0-.46-1.59,7,7,0,0,0-1.22-1.31l-1.32-1.15a7.22,7.22,0,0,1-1.46-1.67,4.24,4.24,0,0,1-.6-2.32,3.78,3.78,0,0,1,1.15-3,4.56,4.56,0,0,1,3.13-1,4,4,0,0,1,2,.42,3,3,0,0,1,1.13,1.08,4.61,4.61,0,0,1,.53,1.42,10.64,10.64,0,0,1,.16,1.42l-2.91.36c0-.45,0-.84-.08-1.18a1.66,1.66,0,0,0-.28-.77.76.76,0,0,0-.64-.27.74.74,0,0,0-.69.39,1.72,1.72,0,0,0-.22.8,2.24,2.24,0,0,0,.41,1.38,7.81,7.81,0,0,0,1.07,1.12l1.26,1.12A8.54,8.54,0,0,1,247,82.81a4.85,4.85,0,0,1,.69,2.66,4,4,0,0,1-.49,2,3.61,3.61,0,0,1-1.39,1.38A4.21,4.21,0,0,1,243.71,89.32Z" style="fill:#263238"></path><path d="M251.12,89.1V82.85l-2.9-9h3.19l1.45,4.83,1.3-4.83h3.06l-2.85,9V89.1Z" style="fill:#263238"></path><path d="M267.24,89.32a5.08,5.08,0,0,1-2.4-.51,3.22,3.22,0,0,1-1.45-1.57,7.26,7.26,0,0,1-.55-2.77l2.89-.43a6.55,6.55,0,0,0,.18,1.58,1.62,1.62,0,0,0,.45.87,1,1,0,0,0,.71.27.66.66,0,0,0,.68-.36,1.79,1.79,0,0,0,.16-.76,2.71,2.71,0,0,0-.45-1.59,7,7,0,0,0-1.22-1.31l-1.33-1.15a7.72,7.72,0,0,1-1.46-1.67,4.32,4.32,0,0,1-.59-2.32,3.78,3.78,0,0,1,1.15-3,4.56,4.56,0,0,1,3.13-1,4,4,0,0,1,2,.42,2.87,2.87,0,0,1,1.13,1.08,4.37,4.37,0,0,1,.53,1.42,8.13,8.13,0,0,1,.16,1.42l-2.9.36a9.64,9.64,0,0,0-.09-1.18,1.55,1.55,0,0,0-.27-.77.76.76,0,0,0-.64-.27.72.72,0,0,0-.69.39,1.61,1.61,0,0,0-.22.8,2.24,2.24,0,0,0,.41,1.38,7.69,7.69,0,0,0,1.06,1.12l1.27,1.12a8.8,8.8,0,0,1,1.69,1.92,4.85,4.85,0,0,1,.69,2.66,3.94,3.94,0,0,1-.5,2,3.52,3.52,0,0,1-1.38,1.38A4.24,4.24,0,0,1,267.24,89.32Z" style="fill:#263238"></path><path d="M274.65,89.1V82.85l-2.91-9h3.19l1.46,4.83,1.3-4.83h3.05l-2.84,9V89.1Z" style="fill:#263238"></path><path d="M281.82,89.1l.26-15.29h3.63l1.68,8.89,1.81-8.89h3.49L293,89.1h-2.39l-.29-10.17L288.5,89.1h-2.13l-1.89-10.25-.23,10.25Z" style="fill:#263238"></path><path d="M294.93,89.1V73.81h5.13a4.51,4.51,0,0,1,2.27.52,3.2,3.2,0,0,1,1.32,1.51,6,6,0,0,1,.43,2.41,5.11,5.11,0,0,1-.58,2.7,3,3,0,0,1-1.59,1.3,6.54,6.54,0,0,1-2.24.35h-1.36v6.5Zm3.38-8.85h1.13a1.66,1.66,0,0,0,.95-.23,1.11,1.11,0,0,0,.42-.68,5.22,5.22,0,0,0,.1-1.15,5.32,5.32,0,0,0-.08-1,1.19,1.19,0,0,0-.41-.71,1.58,1.58,0,0,0-1-.26h-1.11Z" style="fill:#263238"></path><path d="M307.08,89.1V76.32h-2.3V73.81h8v2.51h-2.28V89.1Z" style="fill:#263238"></path><path d="M318.33,89.32a5.27,5.27,0,0,1-2.72-.6A3.34,3.34,0,0,1,314.18,87a7.49,7.49,0,0,1-.44-2.7V78.6a7.39,7.39,0,0,1,.44-2.69,3.31,3.31,0,0,1,1.43-1.71,5.27,5.27,0,0,1,2.72-.6,5.35,5.35,0,0,1,2.74.6,3.3,3.3,0,0,1,1.45,1.71A7.4,7.4,0,0,1,323,78.6v5.68a7.5,7.5,0,0,1-.43,2.7,3.33,3.33,0,0,1-1.45,1.74A5.35,5.35,0,0,1,318.33,89.32Zm0-2.39a1,1,0,0,0,.77-.27,1.24,1.24,0,0,0,.32-.68,4.71,4.71,0,0,0,.08-.85V77.77a4.63,4.63,0,0,0-.08-.85,1.24,1.24,0,0,0-.32-.67,1,1,0,0,0-.77-.27,1,1,0,0,0-.74.27,1.32,1.32,0,0,0-.32.67,4.64,4.64,0,0,0-.07.85v7.36a5.87,5.87,0,0,0,.06.85,1.38,1.38,0,0,0,.3.68A1,1,0,0,0,318.33,86.93Z" style="fill:#263238"></path><path d="M325,89.1l.27-15.29h3.62l1.68,8.89,1.81-8.89h3.49l.26,15.29h-2.39l-.29-10.17L331.63,89.1H329.5l-1.89-10.25-.22,10.25Z" style="fill:#263238"></path><path d="M342.12,89.32a5.1,5.1,0,0,1-2.4-.51,3.27,3.27,0,0,1-1.45-1.57,7.26,7.26,0,0,1-.55-2.77l2.89-.43a6.55,6.55,0,0,0,.18,1.58,1.77,1.77,0,0,0,.45.87,1,1,0,0,0,.71.27.68.68,0,0,0,.69-.36,1.79,1.79,0,0,0,.16-.76,2.71,2.71,0,0,0-.45-1.59,6.71,6.71,0,0,0-1.23-1.31l-1.32-1.15a7.22,7.22,0,0,1-1.46-1.67,4.24,4.24,0,0,1-.6-2.32,3.81,3.81,0,0,1,1.15-3,4.59,4.59,0,0,1,3.14-1,4,4,0,0,1,2,.42,3,3,0,0,1,1.13,1.08,4.61,4.61,0,0,1,.53,1.42,9.22,9.22,0,0,1,.16,1.42l-2.91.36c0-.45,0-.84-.08-1.18a1.66,1.66,0,0,0-.28-.77.84.84,0,0,0-1.33.12,1.71,1.71,0,0,0-.21.8,2.24,2.24,0,0,0,.4,1.38,7.81,7.81,0,0,0,1.07,1.12l1.26,1.12a8.54,8.54,0,0,1,1.69,1.92,4.85,4.85,0,0,1,.69,2.66,3.93,3.93,0,0,1-.49,2,3.61,3.61,0,0,1-1.39,1.38A4.19,4.19,0,0,1,342.12,89.32Z" style="fill:#263238"></path></g><g id="character-2"><path d="M167.41,378h0a.71.71,0,0,1-.65-.49c-.24-.6.06-2,.82-5,.22-.84.42-1.63.47-2,.18-1.25,3.44-4.71,4.09-5.39a.52.52,0,0,1,.63-.08.51.51,0,0,1,.2.6L169.05,376C168.18,378,167.64,378,167.41,378Zm.25-.86h0Zm3.43-9.42a11.19,11.19,0,0,0-2.08,2.92c-.06.4-.25,1.15-.49,2.09s-.69,2.74-.83,3.72c.14-.25.3-.55.43-.84Z" style="fill:#263238"></path><path d="M233,246s-9.6,15.23-6.56,28.35,11,15.93,11.48,18-3,4.45-3,4.45,7,5.16,9.84,5.16,19.91-7.26,19.91-7.26,23-11,25.31-13.83S293,270.15,288,262.66,278,250,273.75,245.55A34.51,34.51,0,0,0,252,235.71C239.07,234.77,233,246,233,246Z" style="fill:#263238"></path><path d="M244.7,302.52c-2.94,0-9.85-5-10.14-5.25a.49.49,0,0,1-.2-.42.47.47,0,0,1,.22-.4c.9-.6,3.16-2.48,2.83-3.93-.09-.45-.85-1.11-1.8-1.95a28.1,28.1,0,0,1-9.67-16.09c-3.05-13.1,6.12-27.93,6.61-28.71.29-.51,6.63-11.49,19.45-10.56a34.84,34.84,0,0,1,22.11,10l1.27,1.33a107.22,107.22,0,0,1,13.08,15.84c5.05,7.7,4.32,15.9,1.84,18.87s-24.53,13.5-25.47,14C264.11,295.51,247.58,302.52,244.7,302.52Zm-9-5.66c2.26,1.6,7,4.66,9,4.66,2.22,0,15-5.22,19.72-7.22,7.89-3.79,23.32-11.53,25.11-13.69,2.22-2.66,2.82-10.49-1.9-17.68a105.64,105.64,0,0,0-13-15.7l-1.26-1.33a33.87,33.87,0,0,0-21.46-9.69c-12.42-.89-18.45,9.94-18.51,10s0,0,0,0-9.46,15.21-6.5,28a26.88,26.88,0,0,0,9.36,15.56c1.17,1,1.95,1.72,2.12,2.48C238.81,294.18,236.77,296,235.71,296.86ZM233,246h0Z" style="fill:#263238"></path><path d="M251.07,297.48S241.77,306,239,310.56a29.62,29.62,0,0,0-3.52,7.39l-8.8,23.94L183.72,360s-7.4,1.41-9.51,3.17-5.28,10.21-5.63,12.67,2.11.71,4.93-1.76,4.74-4.19,4.74-4.19-4.58,3.87-1.06,3.52,8.43-5,8.43-5l4-3.57s38.79-6.42,44.42-8.18,9.15-10.56,9.15-10.56l10.91-20.06Z" style="fill:#fff"></path><path d="M169.09,377.54a1.06,1.06,0,0,1-.5-.12c-.45-.25-.62-.8-.5-1.64.34-2.45,3.55-11.1,5.8-13s9-3.13,9.68-3.27l42.67-18L235,317.78a29.82,29.82,0,0,1,3.56-7.48c2.82-4.58,11.82-12.84,12.21-13.19a.53.53,0,0,1,.51-.1.5.5,0,0,1,.32.42l3,28.57a.49.49,0,0,1-.06.29l-10.91,20.06c-.12.32-3.65,9-9.44,10.8-5.49,1.71-41.37,7.67-44.34,8.17L186,368.8c-.2.18-5.06,4.75-8.71,5.11-.36,0-1.47.15-1.8-.62a1.27,1.27,0,0,1-.06-.18l-1.54,1.36C171.38,376.62,170,377.54,169.09,377.54Zm81.59-79c-2.24,2.1-9,8.57-11.3,12.29a30.08,30.08,0,0,0-3.46,7.26l-8.82,24a.46.46,0,0,1-.27.29l-42.92,18.12a.19.19,0,0,1-.1,0c-.07,0-7.29,1.41-9.28,3.06s-5.1,9.86-5.45,12.36c-.08.51,0,.63,0,.63s.88,0,4.09-2.83c1.77-1.55,3.19-2.81,4-3.53l.76-.68a.5.5,0,0,1,.7.06.49.49,0,0,1,0,.7l-.59.53c-.93.88-1.66,1.8-1.63,2.1a2.59,2.59,0,0,0,.4,0l.38,0c3.31-.33,8.08-4.81,8.13-4.86l4-3.59a.58.58,0,0,1,.25-.12c.39-.06,38.81-6.43,44.35-8.15,5.34-1.67,8.8-10.19,8.83-10.27l10.87-20Z" style="fill:#263238"></path><path d="M254.09,326.55a.56.56,0,0,1-.32-.11l-9.85-8.1a.5.5,0,0,1,.63-.77l9.86,8.09a.5.5,0,0,1-.32.89Z" style="fill:#263238"></path><path d="M234.73,343.45a.49.49,0,0,1-.38-.18c-2.21-2.53-7.51-.92-7.57-.9a.5.5,0,0,1-.29-1c.24-.08,6-1.82,8.62,1.21a.49.49,0,0,1-.05.7A.51.51,0,0,1,234.73,343.45Z" style="fill:#263238"></path><path d="M178.25,370.4a.54.54,0,0,1-.3-.1.5.5,0,0,1-.1-.7,48.48,48.48,0,0,0,3.33-5.2.49.49,0,0,1,.67-.2.49.49,0,0,1,.21.67,49.17,49.17,0,0,1-3.41,5.33A.51.51,0,0,1,178.25,370.4Z" style="fill:#263238"></path><path d="M170.33,377a.45.45,0,0,1-.2,0,.51.51,0,0,1-.26-.66,25.91,25.91,0,0,0,1.13-3.23c.31-1.13,1.39-3.72,2.26-5.81.48-1.16,1-2.36,1-2.58.18-.74,2.07-2.06,3.18-2.78a.51.51,0,0,1,.69.15.5.5,0,0,1-.15.69,12.25,12.25,0,0,0-2.76,2.2c-.07.26-.42,1.11-1.08,2.71-.81,1.95-1.92,4.62-2.21,5.69a27.71,27.71,0,0,1-1.18,3.36A.51.51,0,0,1,170.33,377Z" style="fill:#263238"></path><path d="M276.33,369.5l-1.41,8.9a171.79,171.79,0,0,0-26,25.54c-12.42,15.23-14.77,28.35-11.72,33.51s15.46,6.79,19.45,6.32,17.1-2.34,17.1-2.34,7.73,5.62,16.64,4,71.46-7.26,73.57-7.49,13.36-1.41,15.7-1.41,15.23,1.17,17.1.24.47-3.29-.93-4-11.49-10.31-13.36-12.65-5.86-10.08-9.61-10.78a8.62,8.62,0,0,0-8.67,3.75c-1.87,2.58-4.21,7.26-5.15,8.2s-19.21.47-25.31-.23-16.4-1.41-16.4-1.41,23.9-27.88,25.78-34,3-18.05-1.88-28.35-11-13.66-11-13.66a70.41,70.41,0,0,1-21.83,15.76c-13.12,5.86-25.31,8-28.12,8.2A5.51,5.51,0,0,0,276.33,369.5Z" style="fill:#fff"></path><path d="M287,446.22A25.24,25.24,0,0,1,273.63,442c-1.66.24-13.25,1.89-16.92,2.32-3.86.45-16.71-1.1-19.94-6.57-3.35-5.66-.38-19.19,11.76-34.07a175,175,0,0,1,25.93-25.5l1.38-8.71a.49.49,0,0,1,.08-.21,6,6,0,0,1,4.35-2.08,103.86,103.86,0,0,0,28-8.16,70.55,70.55,0,0,0,21.65-15.64.51.51,0,0,1,.62-.11c.25.14,6.25,3.54,11.18,13.88,5.16,10.8,3.62,23.13,1.9,28.71s-21.31,28.81-25.22,33.4c2.73.2,10.5.77,15.43,1.34,6.35.73,23.63,1.09,24.93.35a28.55,28.55,0,0,0,2.14-3.41c.93-1.6,2-3.41,2.93-4.7a9.05,9.05,0,0,1,9.17-4c3,.57,6,5.15,8.21,8.49.67,1,1.25,1.91,1.69,2.47,1.92,2.4,11.9,11.87,13.19,12.51a3.89,3.89,0,0,1,2.12,3.09,2,2,0,0,1-1.18,1.79c-1.38.69-7.22.4-13.6,0-1.74-.11-3.12-.19-3.73-.19-2.23,0-13,1.11-15.65,1.4-.37,0-2.69.26-6.3.59-16.39,1.53-59.95,5.56-67.23,6.91A19.77,19.77,0,0,1,287,446.22Zm-13.27-5.29a.47.47,0,0,1,.3.1c.07.05,7.67,5.47,16.25,3.89,7.33-1.35,50.91-5.39,67.32-6.91l6.28-.59c1.59-.18,13.33-1.41,15.76-1.41.64,0,2,.09,3.79.19,4.14.25,11.84.72,13.09.1a1,1,0,0,0,.63-.9,3,3,0,0,0-1.57-2.19c-1.53-.77-11.71-10.53-13.52-12.79-.47-.59-1.06-1.49-1.75-2.54-2-3-4.94-7.57-7.56-8.06a8.24,8.24,0,0,0-8.17,3.55c-.91,1.26-2,3.05-2.87,4.63a24,24,0,0,1-2.34,3.63c-1.26,1.27-20.82.48-25.71-.09-6-.69-16.28-1.39-16.38-1.4a.5.5,0,0,1-.35-.82c.24-.28,23.86-27.88,25.68-33.8,1.67-5.45,3.17-17.47-1.85-28-4.13-8.66-9.12-12.36-10.43-13.23a71.89,71.89,0,0,1-21.72,15.58,104.6,104.6,0,0,1-28.28,8.24,5.19,5.19,0,0,0-3.55,1.59l-1.38,8.77a.51.51,0,0,1-.19.32,172.62,172.62,0,0,0-25.93,25.46c-11.72,14.38-14.76,27.7-11.67,32.93,2.81,4.76,14.69,6.58,19,6.09,3.93-.46,17-2.33,17.09-2.34Zm1.17-62.53h0Z" style="fill:#263238"></path><path d="M273.75,441.93a.51.51,0,0,1-.17,0c-.22-.08-5.52-2.14-3.84-12.73,1.18-7.38,14.28-27.22,22-38.39a.5.5,0,0,1,.7-.13.51.51,0,0,1,.12.7c-7.66,11.1-20.68,30.79-21.82,38-1.54,9.71,3,11.56,3.2,11.63a.51.51,0,0,1,.29.64A.5.5,0,0,1,273.75,441.93Z" style="fill:#263238"></path><path d="M294,388.93a.52.52,0,0,1-.29-.09.5.5,0,0,1-.12-.69c1.5-2.15,2.61-3.72,3.13-4.44l-5.85-3.47a.51.51,0,0,1-.18-.69.51.51,0,0,1,.69-.17l6.32,3.75a.51.51,0,0,1,.24.33.5.5,0,0,1-.09.39s-1.35,1.87-3.44,4.87A.49.49,0,0,1,294,388.93Z" style="fill:#263238"></path><path d="M300,434.9a.52.52,0,0,1-.38-.17.51.51,0,0,1,.06-.71l3.29-2.8a.5.5,0,0,1,.65.76l-3.29,2.8A.52.52,0,0,1,300,434.9Z" style="fill:#263238"></path><path d="M306.13,429.68a.5.5,0,0,1-.32-.88l11.2-9.54a.5.5,0,0,1,.65.76l-11.2,9.54A.52.52,0,0,1,306.13,429.68Z" style="fill:#263238"></path><path d="M304.45,434a.49.49,0,0,1-.49-.39.49.49,0,0,1,.38-.59c4.23-.89,13-11.9,13.07-12a.5.5,0,0,1,.7-.08.49.49,0,0,1,.08.7c-.36.47-9.06,11.4-13.64,12.36Z" style="fill:#263238"></path><path d="M367.47,427.37a39.39,39.39,0,0,1,1.79,10c4-.4,8.94-.86,10.4-.86,2.34,0,15.23,1.17,17.1.24s.47-3.29-.93-4-11.49-10.31-13.36-12.65-5.86-10.08-9.61-10.78a8.62,8.62,0,0,0-8.67,3.75c-1.87,2.58-4.21,7.26-5.15,8.2C359,421.28,365.6,422,367.47,427.37Z" style="fill:#fff"></path><path d="M369.26,437.87a.55.55,0,0,1-.32-.12.49.49,0,0,1-.17-.35,39.09,39.09,0,0,0-1.77-9.86c-1.75-5-7.95-5.75-8-5.76a.49.49,0,0,1-.42-.33.48.48,0,0,1,.12-.52,27.41,27.41,0,0,0,2.17-3.44c.93-1.6,2-3.41,2.93-4.7a9.05,9.05,0,0,1,9.17-4c3,.57,6,5.15,8.21,8.49.67,1,1.25,1.91,1.69,2.47,1.92,2.4,11.9,11.87,13.19,12.51a3.89,3.89,0,0,1,2.12,3.09,2,2,0,0,1-1.18,1.79c-1.38.69-7.22.4-13.6,0-1.74-.11-3.12-.19-3.73-.19-1.57,0-7.15.53-10.35.85ZM360,420.93c1.91.39,6.44,1.79,8,6.28h0a39.06,39.06,0,0,1,1.78,9.61c3.26-.33,8.4-.81,9.93-.81.64,0,2,.09,3.79.19,4.14.25,11.84.72,13.09.1a1,1,0,0,0,.63-.9,3,3,0,0,0-1.57-2.19c-1.52-.76-11.71-10.53-13.52-12.79-.47-.59-1.06-1.49-1.75-2.54-2-3-4.94-7.57-7.56-8.06a8.24,8.24,0,0,0-8.17,3.55c-.91,1.26-2,3.05-2.87,4.63C361,419.2,360.42,420.23,360,420.93Z" style="fill:#263238"></path><path d="M326.47,367.23a.5.5,0,0,1-.09-1,30.3,30.3,0,0,1,4.29-.51.52.52,0,0,1,.52.48.5.5,0,0,1-.48.52,27.11,27.11,0,0,0-4.14.5Z" style="fill:#263238"></path><path d="M307.73,375.39a.51.51,0,0,1-.41-.21.5.5,0,0,1,.12-.7A60.71,60.71,0,0,1,322,367.35a.5.5,0,1,1,.3,1,59.64,59.64,0,0,0-14.31,7A.47.47,0,0,1,307.73,375.39Z" style="fill:#263238"></path><path d="M318.74,367a.51.51,0,0,1-.45-.27.5.5,0,0,1,.22-.67,58.35,58.35,0,0,1,15.39-4.74.51.51,0,0,1,.56.43.5.5,0,0,1-.42.56A56.84,56.84,0,0,0,319,366.9.44.44,0,0,1,318.74,367Z" style="fill:#263238"></path><path d="M255.77,292.94l-4.7,4.54s-3.33,19.68-.9,28.47,12.71,20,16.8,25.28,8.33,20.44,8.33,20.44,7.27,5,24.68-.61,25.74-15,27.4-18.62a56.11,56.11,0,0,0,2.88-8.78s-4.09-2.88-8.18-5.6-6.66-4.7-7.42-5.91-8.48-17.56-11.05-23.31-18-26.65-18.77-26.95-7.88,2.72-7.88,2.72S264.25,287.19,255.77,292.94Z" style="fill:#92E3A9"></path><path d="M285,374.23c-6.7,0-9.76-2-10-2.15a.47.47,0,0,1-.2-.28c0-.15-4.26-15.1-8.24-20.26-.77-1-1.74-2.18-2.87-3.56-4.79-5.84-12-14.67-14-21.9-2.42-8.79.76-27.87.9-28.68a.51.51,0,0,1,.15-.28l4.69-4.54a.18.18,0,0,1,.07-.05c8.19-5.56,20.43-8.21,21.32-8.4,3.33-1.41,7.44-3,8.21-2.71,1.11.45,16.54,21.61,19.05,27.21s10.27,22.06,11,23.26c.87,1.39,4.56,3.95,7.27,5.75,4.05,2.7,8.15,5.58,8.19,5.61a.5.5,0,0,1,.19.52,56.53,56.53,0,0,1-2.9,8.88c-1.5,3.25-9.38,13-27.71,18.89A49.68,49.68,0,0,1,285,374.23Zm-9.24-2.89c1.1.63,8.48,4.27,24.09-.75,17.9-5.76,25.76-15.43,27.11-18.36a54.34,54.34,0,0,0,2.76-8.36c-1-.69-4.46-3.11-7.89-5.4-4.54-3-6.8-4.84-7.56-6.05s-8.51-17.61-11.09-23.38-17.08-25.29-18.51-26.68a47.71,47.71,0,0,0-7.48,2.71.17.17,0,0,1-.1,0c-.12,0-12.68,2.62-21,8.23l-4.54,4.4c-.31,1.89-3.14,19.92-.89,28.08,1.94,7,9.1,15.76,13.83,21.54,1.14,1.38,2.11,2.57,2.89,3.57C271.27,356,275.2,369.49,275.73,371.34Z" style="fill:#263238"></path><path d="M287.87,346.11A133.13,133.13,0,0,1,271.92,345a.5.5,0,0,1-.43-.56.5.5,0,0,1,.56-.43c.14,0,14.17,2,22.44.74a.5.5,0,0,1,.56.43.49.49,0,0,1-.42.56A47.31,47.31,0,0,1,287.87,346.11Z" style="fill:#263238"></path><path d="M276.69,348.82a67.38,67.38,0,0,1-7.24-.39.49.49,0,0,1-.44-.55.5.5,0,0,1,.55-.44c.09,0,8.68,1,14.48-.24a.49.49,0,0,1,.59.39.5.5,0,0,1-.39.59A38.36,38.36,0,0,1,276.69,348.82Z" style="fill:#263238"></path><path d="M251.38,287.34s2.72,3.93,3.33,6.05-.15,1.82.75,7,4.09,13.47,10.75,17S273,318.68,273,309a92.7,92.7,0,0,0-2-18.32l-2-11.66Z" style="fill:#fff"></path><path d="M270.58,319.38a11.29,11.29,0,0,1-4.6-1.62c-6.47-3.38-10-11.44-11-17.31a24.63,24.63,0,0,1-.5-5,5.59,5.59,0,0,0-.24-2c-.58-2-3.24-5.87-3.26-5.91a.5.5,0,0,1-.08-.41.55.55,0,0,1,.27-.33l17.72-8.32a.46.46,0,0,1,.44,0,.47.47,0,0,1,.26.36l2,11.65a93.42,93.42,0,0,1,2,18.41c0,6.11-.07,9.09-1.7,10.07A2.38,2.38,0,0,1,270.58,319.38Zm-18.46-31.84a27.64,27.64,0,0,1,3.07,5.72,6.52,6.52,0,0,1,.28,2.24,23.39,23.39,0,0,0,.49,4.77c1,5.65,4.34,13.39,10.49,16.6,2.66,1.39,4.11,1.79,4.86,1.34,1.16-.71,1.22-3.8,1.22-9.22a92.91,92.91,0,0,0-2-18.21l-1.86-11Z" style="fill:#263238"></path><path d="M264.63,286.48s-2.34,3.7-3.7,5.46a35.62,35.62,0,0,1-5.07,4.48s-1.37-3.31-1.76-4.48a35.64,35.64,0,0,0-2.72-4.6Z" style="fill:#263238"></path><path d="M255.86,296.92a.34.34,0,0,1-.14,0,.48.48,0,0,1-.32-.29c-.06-.13-1.38-3.34-1.77-4.51a32.79,32.79,0,0,0-2.67-4.48.5.5,0,0,1,0-.5.5.5,0,0,1,.41-.28L264.6,286a.47.47,0,0,1,.46.24.49.49,0,0,1,0,.52c-.1.16-2.37,3.75-3.74,5.51a36.17,36.17,0,0,1-5.16,4.58A.55.55,0,0,1,255.86,296.92Zm-3.59-9.14a26.06,26.06,0,0,1,2.31,4c.28.84,1.09,2.84,1.5,3.85a30.59,30.59,0,0,0,4.46-4c.94-1.21,2.37-3.4,3.14-4.59Z" style="fill:#263238"></path><path d="M247,246.31a34.61,34.61,0,0,1-3.46,9.32c-2.27,3.63-7,5.67-7,5.67s4.39,16.65,7.42,21,6.66,7,13.17,7.57,10.3-7.27,12-10.9,1.67-14.23.91-16.81-3.18-7.87-3.18-7.87S251.68,253,247,246.31Z" style="fill:#fff"></path><path d="M257.84,290.44l-.76,0c-6.2-.58-10.12-2.83-13.53-7.79-3.05-4.41-7.31-20.51-7.49-21.2a.48.48,0,0,1,.28-.58s4.6-2,6.76-5.48,3.38-9.1,3.4-9.16a.5.5,0,0,1,.89-.18c4.51,6.4,19.33,7.8,19.47,7.81a.51.51,0,0,1,.41.29c.1.22,2.45,5.37,3.21,7.94s.76,13.45-.93,17.16C268.11,282.34,264.4,290.44,257.84,290.44Zm-20.71-28.87c.69,2.57,4.56,16.6,7.24,20.49,3.23,4.68,6.94,6.81,12.81,7.35,6.33.6,10.05-7.54,11.46-10.61,1.58-3.46,1.62-14,.88-16.45a78.93,78.93,0,0,0-3-7.55c-2.1-.22-14.26-1.72-19.24-7.37a32.48,32.48,0,0,1-3.29,8.46C242,259,238.34,261,237.13,261.57Z" style="fill:#263238"></path><path d="M250.36,274.9a.85.85,0,0,1-.7-.23c-.51-.51-.44-2.32-.29-3.74a.49.49,0,0,1,.55-.44.5.5,0,0,1,.44.55,10.1,10.1,0,0,0,0,2.87,12.43,12.43,0,0,0,3.09-1,.5.5,0,0,1,.4.92A10.17,10.17,0,0,1,250.36,274.9Zm0-.91h0Zm-.11-.09Z" style="fill:#263238"></path><path d="M253.33,280a1.77,1.77,0,0,1-.82-.18,1.17,1.17,0,0,1-.57-1.21c.18-1.65,3.4-2.29,4-2.4a.44.44,0,0,1,.23,0c.09,0,.88.28,1,1,.1.51-.18,1-.84,1.55A5.42,5.42,0,0,1,253.33,280Zm2.69-2.78c-1.29.24-3,.88-3.09,1.5,0,.18,0,.2.06.22a3.56,3.56,0,0,0,2.77-1c.43-.34.49-.54.48-.58S256.13,277.31,256,277.26Z" style="fill:#263238"></path><path d="M246.53,266.75c.28,1,.05,1.87-.51,2s-1.25-.49-1.53-1.46,0-1.88.52-2S246.25,265.78,246.53,266.75Z" style="fill:#263238"></path><path d="M256.48,264.94c.28,1,0,1.88-.51,2s-1.25-.49-1.52-1.45,0-1.88.51-2S256.21,264,256.48,264.94Z" style="fill:#263238"></path><path d="M240.93,265a.47.47,0,0,1-.35-.15.5.5,0,0,1,0-.71A7.85,7.85,0,0,1,246.1,262a.5.5,0,1,1,0,1,7,7,0,0,0-4.77,1.82A.47.47,0,0,1,240.93,265Z" style="fill:#263238"></path><path d="M258.49,261.19l-.18,0a7.27,7.27,0,0,0-5.64,0,.5.5,0,0,1-.68-.21.51.51,0,0,1,.21-.67,8.11,8.11,0,0,1,6.47,0,.5.5,0,0,1-.18,1Z" style="fill:#263238"></path><polygon points="268.33 263.72 259.1 277.19 267.43 286.43 275.75 272.05 268.33 263.72" style="fill:#263238"></polygon><path d="M267.43,286.93a.5.5,0,0,1-.38-.17l-8.32-9.23a.5.5,0,0,1,0-.62l9.23-13.47a.5.5,0,0,1,.38-.22.46.46,0,0,1,.41.17l7.42,8.32a.53.53,0,0,1,.06.59l-8.33,14.38a.51.51,0,0,1-.38.25Zm-7.7-9.78,7.61,8.43,7.8-13.47-6.75-7.58Z" style="fill:#263238"></path><path d="M275.9,266,270,262.2s-5.75,4.7-5.91,5.76-2.87,3.93-2.42,4.84,4.09-2.12,4.85-3,4.24-1.06,4.24-1.06l2.27,1.52s-4.54.91-5.3,1.51-4.39,4.7-3.94,5.3,2.12-.15,2.88-.76a12.62,12.62,0,0,1,3-2h4.08s-3.63,11.05-3,13,3.18,5.3,3.18,5.3S284.23,322.46,288,329s6.66,10.6,8.47,10,5-12,6.21-14.39,3.48-15,1.82-24.37-6.51-18.93-11-20-7.42-1.21-8.63,1.67-1.67,11.65-1.67,11.65L277.87,283s2.27-10.9,2.27-12S275.9,266,275.9,266Z" style="fill:#fff"></path><path d="M296.12,339.53c-1.84,0-4.26-3-8.54-10.31-3.7-6.37-13.39-34.31-14.09-36.34a23.72,23.72,0,0,1-3.21-5.4c-.57-1.84,2-10.1,2.82-12.66h-3.4a14.74,14.74,0,0,0-2.72,1.86,4.66,4.66,0,0,1-2.84,1.07,1.07,1.07,0,0,1-.75-.41c-.91-1.22,4-5.94,4-6a16.76,16.76,0,0,1,4.34-1.36l-1.14-.77c-1.33.08-3.32.39-3.72.87s-3.69,3.52-5,3.37a.82.82,0,0,1-.65-.43c-.39-.79.41-2,1.33-3.33a7.88,7.88,0,0,0,1.05-1.81c.16-1.13,4.31-4.62,6.08-6.07a.51.51,0,0,1,.59,0l5.9,3.79a.18.18,0,0,1,.07.05c1.33,1.23,4.4,4.21,4.4,5.37s-1.89,10.18-2.24,11.89l4.39,8.79c.21-2.76.69-7.85,1.59-10,1.45-3.45,5.18-2.89,9.2-2,5,1.18,9.85,11.5,11.43,20.39,1.65,9.31-.53,22-1.86,24.69-.38.75-1,2.46-1.66,4.43-2,5.69-3.48,9.75-4.84,10.2A1.6,1.6,0,0,1,296.12,339.53ZM269.7,273.82h4.08a.5.5,0,0,1,.41.2.52.52,0,0,1,.07.45c-1.39,4.22-3.43,11.4-3,12.72a24.51,24.51,0,0,0,3.1,5.14.64.64,0,0,1,.08.14c.1.3,10.32,29.86,14,36.25,1.65,2.84,6,10.4,7.89,9.77,1-.33,3.08-6.34,4.21-9.57.7-2,1.3-3.75,1.71-4.56,1.07-2.15,3.47-14.46,1.77-24.07s-6.61-18.63-10.68-19.58c-4.51-1.06-7-1.13-8.05,1.37-1.17,2.76-1.62,11.4-1.63,11.49a.48.48,0,0,1-.4.46.5.5,0,0,1-.55-.26l-5.3-10.6a.53.53,0,0,1,0-.33c.91-4.36,2.26-11.11,2.26-11.85-.05-.55-2.12-2.82-4-4.6L270,262.82c-2.56,2.1-5.29,4.63-5.45,5.22a7.23,7.23,0,0,1-1.21,2.22,10.08,10.08,0,0,0-1.26,2.2,13.86,13.86,0,0,0,4-3c.86-1,4-1.21,4.6-1.24a.55.55,0,0,1,.3.09l2.27,1.51a.51.51,0,0,1,.22.52.52.52,0,0,1-.39.39,25.06,25.06,0,0,0-5.09,1.41,22.12,22.12,0,0,0-3.76,4.64,4,4,0,0,0,2.08-.88C267.33,275.12,269.05,273.82,269.7,273.82Z" style="fill:#263238"></path><path d="M264.1,268.46a.49.49,0,0,1-.41-.21.51.51,0,0,1,.11-.7l4.24-3a.51.51,0,0,1,.46-.06l6.06,2.12a.5.5,0,0,1-.33.94l-5.82-2-4,2.88A.52.52,0,0,1,264.1,268.46Z" style="fill:#263238"></path><path d="M298.92,319.63a.49.49,0,0,1-.41-.21c-.76-1.06-14.28-23.45-14.86-24.41a.5.5,0,0,1,.17-.68.5.5,0,0,1,.69.17c4.86,8.06,14.22,23.52,14.81,24.34a.51.51,0,0,1-.11.7A.52.52,0,0,1,298.92,319.63Z" style="fill:#263238"></path></g><g id="character-1"><path d="M434.68,420.64s11.72,4.22,15.26,4.87,17,1.66,21.42,3.71,9,9,7.43,11.7-7.33,5.06-13.36,3.57-11.38-5.46-14.23-6.82-8-3.4-11.54-3.87-7.61-1.11-7.61-1.11Z" style="fill:#fff"></path><path d="M469.19,445.45a16.33,16.33,0,0,1-3.88-.47c-4.4-1.09-8.45-3.48-11.41-5.23-1.15-.67-2.14-1.26-2.92-1.63a45.79,45.79,0,0,0-11.39-3.83c-3.5-.46-7.57-1.1-7.61-1.11a.51.51,0,0,1-.34-.21.53.53,0,0,1-.08-.39l2.63-12.05a.5.5,0,0,1,.66-.36c.11,0,11.72,4.21,15.18,4.85,1,.17,2.76.39,4.82.63,5.67.68,13.44,1.6,16.72,3.11,3.51,1.62,6.73,5.89,7.69,8.93a4.34,4.34,0,0,1,0,3.48C477.86,443.52,473.79,445.45,469.19,445.45Zm-36.54-13.17c1.22.18,4.33.66,7.08,1a46.53,46.53,0,0,1,11.69,3.92c.82.39,1.82,1,3,1.67,2.9,1.72,6.88,4.07,11.14,5.12,5.9,1.46,11.44-1,12.81-3.34a3.47,3.47,0,0,0-.05-2.68c-.9-2.84-4-6.87-7.16-8.32s-11.13-2.39-16.42-3c-2.16-.26-3.88-.47-4.88-.65-3.15-.58-12.44-3.85-14.8-4.7Z" style="fill:#263238"></path><path d="M465.43,444.49c6,1.49,11.82-.9,13.36-3.57s-3-9.66-7.43-11.7c-3.21-1.48-11.08-2.42-16.56-3.07-.68.14-5.39,1.17-5.67,4-.3,3,2.58,6.14,2.58,6.14l-.51,1.42C454.05,439,459.41,443,465.43,444.49Z" style="fill:#fff"></path><path d="M469.19,445.45a16.33,16.33,0,0,1-3.88-.47h0c-4.4-1.09-8.45-3.48-11.41-5.23-1.15-.67-2.14-1.26-2.92-1.63a.5.5,0,0,1-.25-.62l.41-1.14c-.68-.81-2.78-3.56-2.5-6.3.31-3.1,5.11-4.21,6.07-4.4h.15c5.67.68,13.43,1.6,16.71,3.11,3.51,1.62,6.73,5.89,7.69,8.93a4.34,4.34,0,0,1,0,3.48C477.86,443.52,473.79,445.45,469.19,445.45ZM465.55,444c5.9,1.46,11.44-1,12.81-3.34a3.47,3.47,0,0,0-.05-2.68c-.9-2.84-4-6.87-7.16-8.32s-11-2.38-16.33-3c-.77.16-4.95,1.15-5.19,3.5-.28,2.75,2.42,5.72,2.44,5.75a.5.5,0,0,1,.11.51l-.36,1c.74.38,1.61.89,2.59,1.47,2.9,1.72,6.88,4.07,11.14,5.12Z" style="fill:#263238"></path><path d="M248.63,385.85s24.17-5,38.37-2.54,38.9,13,47.65,15,16.94,2.72,18.3,2.42,25.06-.14,39,2.9,45.51,17.51,45.51,17.51,1.64.51.36,5.17a83.78,83.78,0,0,1-4.71,11.52s-15.79.8-21-.2-27.22,1.81-27.22,1.81l-132.41-.55-8.18-50.53Z" style="fill:#263238"></path><path d="M385,440l-132.48-.54A.5.5,0,0,1,252,439l-8.19-50.53a.53.53,0,0,1,.24-.52l4.32-2.52a.47.47,0,0,1,.15-.06c.24-.05,24.42-5,38.56-2.54,8.66,1.52,21.38,6.06,31.6,9.71,6.79,2.43,12.66,4.52,16.08,5.31,8.78,2.05,16.87,2.68,18.07,2.43,1.42-.31,25-.2,39.22,2.9,13.83,3,45.29,17.39,45.61,17.53.16.05,2,.79.63,5.76a81.33,81.33,0,0,1-4.75,11.61.5.5,0,0,1-.42.28c-.65,0-15.91.79-21.1-.21S385.2,439.92,385,440Zm-132-1.54,132,.55c.84-.11,22.1-2.81,27.31-1.8,4.69.9,18.39.3,20.57.2a80.8,80.8,0,0,0,4.55-11.17c.91-3.3.27-4.42-.06-4.57s-31.7-14.49-45.44-17.48-37.43-3.19-38.79-2.9-9.76-.39-18.51-2.42c-3.47-.81-9.36-2.91-16.19-5.35-10.18-3.64-22.86-8.16-31.43-9.66-13.55-2.38-36.57,2.2-38.1,2.52l-4,2.3Z" style="fill:#263238"></path><path d="M378.11,426.51l17.08-2.75s17.73-6.12,19.85-5.62,2.89,4,3.46,6.3,5.23,6.8,5.66,11.38-1.1,8.14-2.32,9.22-3.49,2.52-5.61,2.21-3.59-3.3-5-5.57-6.44-5.54-8.22-6-18.8,5.25-19.5,5.44S378.11,426.51,378.11,426.51Z" style="fill:#fff"></path><path d="M416.85,447.79a4.2,4.2,0,0,1-.7-.05c-2-.3-3.39-2.54-4.71-4.71-.22-.37-.44-.73-.67-1.08-1.39-2.18-6.32-5.38-7.93-5.83-.61-.18-4.18.55-17.72,4.95l-1.52.49c-.56.14-1.17.3-6-14.89a.56.56,0,0,1,.05-.42A.52.52,0,0,1,378,426l17.08-2.75c1.74-.61,17.84-6.13,20.05-5.62s3.14,3.89,3.74,6.33l.09.34a13.83,13.83,0,0,0,1.87,3.26c1.57,2.32,3.52,5.21,3.8,8.19.47,5-1.28,8.57-2.49,9.64C421.5,446,419.28,447.79,416.85,447.79Zm-14.14-12.68a1.4,1.4,0,0,1,.4.05c2,.55,7,3.92,8.51,6.25l.68,1.1c1.2,2,2.44,4,4,4.24,1.8.27,3.87-.9,5.21-2.09,1.14-1,2.56-4.41,2.15-8.79-.25-2.73-2.13-5.51-3.63-7.73a13.79,13.79,0,0,1-2-3.58l-.09-.34c-.51-2.07-1.27-5.19-3-5.59-1.43-.34-12.77,3.26-19.58,5.6l-16.59,2.69c1.9,6,4.12,12.39,4.84,13.59l1.21-.39C395.46,436.65,401,435.11,402.71,435.11Z" style="fill:#263238"></path><path d="M416.85,447.79a4.2,4.2,0,0,1-.7-.05c-2-.3-3.39-2.54-4.71-4.71-.22-.37-.44-.73-.67-1.08-1-1.64-4.22-4-6.57-5.23a.51.51,0,0,1-.26-.51l.1-.7c-.31-.72-1.38-3.52.14-4.71a13.41,13.41,0,0,1,4.65-1.7,6.8,6.8,0,0,0-3.35-7.55l-.88-.51a.51.51,0,0,1,.1-.92c9-2.8,10.07-2.56,10.46-2.47,2.32.54,3.14,3.89,3.74,6.33l.09.34a13.83,13.83,0,0,0,1.87,3.26c1.57,2.32,3.52,5.21,3.8,8.19.47,5-1.28,8.57-2.49,9.64C421.5,446,419.28,447.79,416.85,447.79ZM405,436c2.14,1.19,5.43,3.52,6.64,5.41l.68,1.1c1.2,2,2.44,4,4,4.24,1.8.27,3.87-.9,5.21-2.09,1.14-1,2.56-4.41,2.15-8.79-.25-2.73-2.13-5.51-3.63-7.73a13.79,13.79,0,0,1-2-3.58l-.09-.34c-.51-2.07-1.27-5.19-3-5.59-.33-.08-1.85,0-8.84,2.11a8,8,0,0,1,3.62,8.94.5.5,0,0,1-.4.34s-3.23.58-4.51,1.57c-.88.69-.12,2.91.21,3.63a.48.48,0,0,1,0,.29Z" style="fill:#263238"></path><path d="M266.88,418.52c4.3-3.34,16.51-6.54,25.28-3.42S316,425.61,316,425.61s10.33-1.53,14.4-2.42,17.43-.56,25.08.68,23.18,1.52,23.18,1.52a32.44,32.44,0,0,1,5.61,10.26c1.73,5.7-.16,6.82-.16,6.82S354.3,450,348.35,452.59s-24.18,3.94-34.82,2.75-59.63-10.73-59.63-10.73-1-21.59-2.48-27.33" style="fill:#263238"></path><path d="M322.43,456.27a84,84,0,0,1-9-.43c-10.54-1.18-59.17-10.64-59.67-10.74a.5.5,0,0,1-.4-.47c0-.21-1-21.6-2.47-27.22a.5.5,0,1,1,1-.25c1.43,5.36,2.34,24,2.48,27,4.63.9,49.2,9.54,59.2,10.66,10.68,1.19,28.77-.23,34.57-2.72s33.57-9.56,35.77-10.12c.21-.21,1.32-1.55-.09-6.21a32.38,32.38,0,0,0-5.38-9.91c-2,0-15.94-.38-23-1.53-7.51-1.21-20.77-1.58-24.89-.68s-14.33,2.41-14.43,2.42a.51.51,0,0,1-.3,0c-.15-.08-15.18-7.41-23.82-10.49-8.45-3-20.52,0-24.8,3.34a.5.5,0,1,1-.62-.79c4.56-3.54,16.86-6.66,25.76-3.49,8.24,2.94,22.23,9.71,23.78,10.46,1.3-.19,10.48-1.58,14.22-2.39,4.2-.91,17.66-.55,25.26.68s23,1.51,23.11,1.51a.53.53,0,0,1,.37.18,32.75,32.75,0,0,1,5.71,10.44c1.79,5.9-.15,7.25-.38,7.39l-.13.05c-.3.08-29.88,7.59-35.72,10.1C344.07,455,332.49,456.27,322.43,456.27Z" style="fill:#263238"></path><path d="M373.92,426.8h-.08l-4.9-.75a.5.5,0,1,1,.14-1l4.92.74a.5.5,0,0,1-.08,1Z" style="fill:#fff"></path><path d="M313,426.37a.5.5,0,0,1-.27-.08c-.11-.07-11.16-7-16.82-8.78s-19.41-1.58-19.54-1.57h0a.5.5,0,0,1-.5-.5.49.49,0,0,1,.49-.5c.57,0,14.06-.21,19.86,1.61,5.45,1.72,15.39,7.86,16.88,8.79,2.14-.47,19-4.11,27.21-3.78,4.86.19,14.91,1.51,22.48,2.59a.49.49,0,0,1,.43.56.52.52,0,0,1-.57.43c-7.55-1.08-17.56-2.39-22.38-2.58-8.49-.35-27,3.75-27.16,3.8Z" style="fill:#fff"></path><path d="M260.85,436.82h-.12a.51.51,0,0,1-.37-.61c2.25-9.16,6.42-14,6.6-14.23a.5.5,0,1,1,.75.66c0,.05-4.19,4.9-6.38,13.81A.49.49,0,0,1,260.85,436.82Z" style="fill:#fff"></path><path d="M260.63,423.39h-.08a.51.51,0,0,1-.42-.57c.44-3,3.64-8.19,3.77-8.41a.5.5,0,0,1,.69-.16.49.49,0,0,1,.17.68c0,.06-3.23,5.28-3.64,8A.5.5,0,0,1,260.63,423.39Z" style="fill:#fff"></path><path d="M102.31,429.62l-5.82.3s-.62.43-6.46-.31-7.54-2.58-15-.17S57.71,438.89,52.1,439.6,41.09,441,38,441.09s-7.48.74-7.68,1.58-2.43,3.79-3.85,6.1.27,4.16,1.74,5a21.7,21.7,0,0,1,2.74,1.83s6.71,2.8,7.95,2.16a57.72,57.72,0,0,0,4.93-3.62,18.89,18.89,0,0,0,6.64-1.78c2.68-1.5,6.8-4.07,6.8-4.07S83.67,448,87.42,448s13.14,1.45,24.34-1,15.76-3.38,15.76-3.38l31.21-.93s84.53.48,87.24.85,7.93,1.12,7.93,1.12.65,1.24,1.14-6.89-1.35-18.5-3.15-27-3-20.56-3.71-22.63,1.82-3.36-4-1.81a49.08,49.08,0,0,1-10,1.83c-.62,0-46.74-6.93-53.65-9.31s-9.77,1-9.77,1-10.47,14.42-11.17,16.63-3.41,7.76-4.2,10.68-6.34,7-12.53,10-24,9.56-25.66,9.59S105.16,425.62,102.31,429.62Z" style="fill:#fff"></path><path d="M38.34,458.31c-2,0-6.21-1.7-7.61-2.28a.35.35,0,0,1-.12-.07,20.56,20.56,0,0,0-2.67-1.78,4.9,4.9,0,0,1-2.43-2.83,3.54,3.54,0,0,1,.5-2.84c.56-.91,1.23-1.9,1.88-2.85a21.55,21.55,0,0,0,1.92-3.1c.4-1.74,8.07-2,8.15-2,2.92,0,7.88-.69,13.14-1.36l.94-.12c3-.38,7.27-2.64,11.81-5a76.27,76.27,0,0,1,11-5.11c5.58-1.81,8.09-1.26,11.26-.57,1.13.24,2.4.52,3.94.72,5.23.66,6.15.36,6.19.35a.29.29,0,0,1,.18-.05l5.59-.29c2.78-3.48,10.7-3.14,14.13-3l1.06,0c1.44,0,18.89-6.34,25.45-9.53S154.28,409.51,155,407a59.17,59.17,0,0,1,2.57-6.66c.69-1.62,1.35-3.14,1.63-4,.72-2.26,10.82-16.18,11.25-16.77.15-.18,3.19-3.64,10.33-1.18s53.19,9.27,53.51,9.29a48.21,48.21,0,0,0,9.82-1.81c2.93-.79,3.82-.88,4.3-.45a1.29,1.29,0,0,1,.25,1.25,2.79,2.79,0,0,0,0,1.34c.3.95.68,3.66,1.22,7.42.66,4.67,1.48,10.5,2.49,15.26,1.61,7.56,3.68,18.59,3.17,27.14-.44,7.21-1,7.32-1.42,7.42a.6.6,0,0,1-.45-.09c-.88-.12-5.33-.76-7.77-1.09-2.65-.37-86.32-.85-87.17-.85l-31.19.93s-4.61.92-15.67,3.37a74.51,74.51,0,0,1-21,1.18c-1.44-.09-2.58-.16-3.42-.15-3.57.06-28,.27-30.05.29-.7.44-4.29,2.66-6.7,4A18.77,18.77,0,0,1,44,454.59a52.68,52.68,0,0,1-4.9,3.58A1.78,1.78,0,0,1,38.34,458.31Zm-7.16-3.18c3.12,1.3,6.85,2.47,7.46,2.15a56.88,56.88,0,0,0,4.85-3.56.43.43,0,0,1,.28-.11,18.53,18.53,0,0,0,6.42-1.72c2.64-1.47,6.74-4,6.78-4.05a.5.5,0,0,1,.26-.08c.27,0,26.48-.22,30.18-.29.89,0,2,.06,3.5.15a72,72,0,0,0,20.74-1.16c11.08-2.45,15.73-3.37,15.78-3.38l31.29-.94c3.47,0,84.61.48,87.32.86l7.76,1.09c.16-.47.47-1.94.74-6.4.51-8.43-1.55-19.37-3.14-26.88-1-4.79-1.85-10.63-2.51-15.32-.51-3.57-.91-6.39-1.18-7.26a3.81,3.81,0,0,1-.08-1.78c0-.12,0-.27,0-.36a14,14,0,0,0-3.34.67,50,50,0,0,1-10.09,1.84h0c-.28,0-46.82-6.92-53.82-9.34-6.46-2.23-9.12.72-9.23.84-2.87,4-10.52,14.71-11.08,16.46-.3.95-.93,2.42-1.66,4.14a61.37,61.37,0,0,0-2.53,6.52c-.92,3.47-7.47,7.72-12.79,10.31-5.86,2.85-24,9.61-25.87,9.64-.23,0-.62,0-1.13,0-3-.13-11.1-.47-13.41,2.78a.52.52,0,0,1-.38.21l-5.75.3c-.77.24-3.09.14-6.62-.31-1.59-.2-2.89-.48-4-.73-3.14-.69-5.41-1.19-10.75.54A74.46,74.46,0,0,0,64.32,435c-4.62,2.43-9,4.73-12.16,5.13l-.93.12c-5.29.68-10.28,1.32-13.25,1.37-3.51.05-6.88.8-7.22,1.25a16.27,16.27,0,0,1-2.05,3.38c-.64.95-1.3,1.92-1.85,2.81a2.57,2.57,0,0,0-.38,2.06,4.06,4.06,0,0,0,1.94,2.21A21.53,21.53,0,0,1,31.18,455.13Zm223.16-10.75Zm-152-14.76h0Z" style="fill:#263238"></path><path d="M248.18,388.08c-.66-2.07,1.82-3.36-4-1.81a49.08,49.08,0,0,1-10,1.83c-.62,0-46.74-6.93-53.65-9.31s-9.77,1-9.77,1-10.47,14.42-11.17,16.63-3.41,7.76-4.2,10.68-6.34,7-12.53,10-24,9.56-25.66,9.59-11.13-.95-14.48,2.44c2.92,2.8,6.49,6.72,7.82,10.16,1.72,4.47,0,7.05-1.16,8.14.77-.14,1.54-.29,2.33-.46,11.2-2.47,15.76-3.38,15.76-3.38l31.21-.93s84.53.48,87.24.85,7.93,1.12,7.93,1.12.65,1.24,1.14-6.89-1.35-18.5-3.15-27S248.84,390.15,248.18,388.08Z" style="fill:#92E3A9"></path><path d="M109.43,447.91a.5.5,0,0,1-.35-.86c1.08-1.05,2.65-3.44,1-7.6-1.3-3.39-4.9-7.3-7.7-10a.51.51,0,0,1-.15-.36.47.47,0,0,1,.15-.35c3-3.07,10.56-2.76,13.77-2.63.47,0,.84,0,1,0,1.44,0,18.89-6.34,25.45-9.53S154.28,409.51,155,407a59.17,59.17,0,0,1,2.57-6.66c.69-1.62,1.35-3.14,1.63-4,.72-2.26,10.82-16.18,11.25-16.77.15-.18,3.19-3.64,10.33-1.18s53.19,9.27,53.51,9.29a48.21,48.21,0,0,0,9.82-1.81c2.93-.79,3.82-.88,4.3-.45a1.29,1.29,0,0,1,.25,1.25,2.79,2.79,0,0,0,0,1.34h0c.3.95.68,3.66,1.22,7.42.66,4.67,1.48,10.5,2.49,15.26,1.61,7.56,3.68,18.59,3.17,27.14-.44,7.21-1,7.32-1.42,7.42a.6.6,0,0,1-.45-.09c-.88-.12-5.33-.76-7.77-1.09-2.65-.37-86.32-.85-87.17-.85l-31.19.93s-4.61.92-15.67,3.37c-.8.17-1.58.32-2.35.46Zm-5.93-18.79c2.81,2.74,6.25,6.57,7.56,10,1.39,3.61.63,6.07-.37,7.57l1-.2c11.08-2.45,15.73-3.37,15.78-3.38l31.29-.94c3.47,0,84.61.48,87.32.86l7.76,1.09c.16-.47.47-1.94.74-6.4.51-8.43-1.55-19.37-3.14-26.88-1-4.79-1.85-10.63-2.51-15.32-.51-3.57-.91-6.39-1.18-7.26h0a3.81,3.81,0,0,1-.08-1.78c0-.12,0-.27,0-.36a14,14,0,0,0-3.34.67,50,50,0,0,1-10.09,1.84h0c-.28,0-46.82-6.92-53.82-9.34-6.47-2.23-9.12.72-9.23.84-2.87,4-10.52,14.71-11.08,16.46-.3.95-.93,2.42-1.66,4.13a59.85,59.85,0,0,0-2.52,6.53c-.93,3.47-7.48,7.72-12.8,10.31-5.86,2.85-24,9.61-25.87,9.64-.23,0-.61,0-1.11,0C113.45,427,106.49,426.73,103.5,429.12Z" style="fill:#263238"></path><path d="M161.32,429.23l-1.15.58,7.52.77s-6.41,2.91-7.38,3.42-2.53,1.38-2.53,1.38a99.49,99.49,0,0,0,10.69,5.55c4.79,2,6.37,1.61,6.37,1.61L150,442.7a14.17,14.17,0,0,0-4.18-2.25c-2.08-.57-11.15-3.47-11.15-3.47l6.7-.23L154.9,431Z" style="fill:#263238"></path><path d="M150,443.2a.51.51,0,0,1-.31-.11,13.89,13.89,0,0,0-4-2.15c-2.07-.57-10.8-3.36-11.17-3.48a.5.5,0,0,1,.13-1l6.61-.23,13.48-5.67,6.47-1.83a.5.5,0,0,1,.58.72l6,.62a.5.5,0,0,1,.15,1c-.06,0-6.41,2.91-7.36,3.4l-1.76.95a92.56,92.56,0,0,0,9.89,5.08A19.25,19.25,0,0,0,174,442h.86a.5.5,0,0,1,.12,1,3.06,3.06,0,0,1-1.06,0L150,443.2Zm-12.43-5.82c2.85.9,7.06,2.23,8.38,2.59a14.25,14.25,0,0,1,4.22,2.23l19.88-.13c-.53-.19-1.11-.41-1.74-.67a103.45,103.45,0,0,1-10.76-5.59.49.49,0,0,1-.24-.44.5.5,0,0,1,.25-.43s1.58-.88,2.55-1.39c.66-.34,3.75-1.76,5.73-2.66l-5.69-.58a.44.44,0,0,1-.29-.14L155,431.52l-13.51,5.69a.47.47,0,0,1-.17,0Z" style="fill:#263238"></path><path d="M165.16,428.88a.49.49,0,0,1-.41-.22.5.5,0,0,1,.13-.7,99.53,99.53,0,0,0,14.29-12.24.49.49,0,0,1,.7,0,.5.5,0,0,1,0,.71,99.77,99.77,0,0,1-14.45,12.38A.47.47,0,0,1,165.16,428.88Z" style="fill:#263238"></path><path d="M159.8,432.29a.5.5,0,0,1-.5-.49.52.52,0,0,1,.5-.51c.15,0,15.35-.36,26.37-9.68a.51.51,0,0,1,.71.06.49.49,0,0,1-.06.7c-11.3,9.56-26.85,9.92-27,9.92Z" style="fill:#263238"></path><path d="M188.13,420.59a.48.48,0,0,1-.36-.16.49.49,0,0,1,0-.7l3.28-3.18a.5.5,0,0,1,.7.72l-3.28,3.18A.52.52,0,0,1,188.13,420.59Z" style="fill:#263238"></path><path d="M120.63,442.93a.49.49,0,0,1-.46-.31c-1.66-3.95-8.68-9.15-8.75-9.21a.51.51,0,0,1-.11-.7.5.5,0,0,1,.7-.1c.3.22,7.32,5.41,9.09,9.63a.51.51,0,0,1-.27.65A.45.45,0,0,1,120.63,442.93Z" style="fill:#263238"></path><path d="M124.57,441.83a.49.49,0,0,1-.43-.26,12.92,12.92,0,0,0-3.65-3.72A.5.5,0,1,1,121,437a13.65,13.65,0,0,1,4,4.07.51.51,0,0,1-.19.68A.45.45,0,0,1,124.57,441.83Z" style="fill:#263238"></path><path d="M41.38,446a14,14,0,0,0-2.87,2.75c-.81,1.26-5.76,3.84-7,4.49s.46,2.9,3.57,2.23a23.32,23.32,0,0,0,6.41-2.81s-1,2.72,2.31,1.42,6.21-2.4,7.63-4.5" style="fill:#fff"></path><path d="M34,456.12a3.36,3.36,0,0,1-3.26-1.75,1.21,1.21,0,0,1,.59-1.55c5.48-2.85,6.59-4,6.81-4.31a14,14,0,0,1,3-2.89.51.51,0,0,1,.7.11.5.5,0,0,1-.12.7,13.73,13.73,0,0,0-2.74,2.62c-.59.93-3,2.45-7.19,4.66-.11.05-.19.12-.11.32.2.55,1.38,1.4,3.35,1a22.87,22.87,0,0,0,6.24-2.74.48.48,0,0,1,.58,0,.5.5,0,0,1,.16.56c-.11.31-.18.83,0,1s.39.28,1.67-.22l.32-.12c3.1-1.23,5.79-2.28,7.08-4.19a.5.5,0,0,1,.69-.14.51.51,0,0,1,.14.7c-1.47,2.16-4.29,3.27-7.55,4.56l-.31.12c-1.32.52-2.21.52-2.73,0a1.39,1.39,0,0,1-.4-.93A21.62,21.62,0,0,1,35.19,456,6.23,6.23,0,0,1,34,456.12Z" style="fill:#263238"></path><path d="M28.18,454.24h-.1a.51.51,0,0,1-.39-.59l1.55-7.52a.49.49,0,0,1,.59-.39.5.5,0,0,1,.39.59l-1.55,7.52A.49.49,0,0,1,28.18,454.24Z" style="fill:#263238"></path><path d="M38.51,449.28l-.14,0-3.35-1a.5.5,0,0,1-.34-.62.52.52,0,0,1,.63-.34l3.34,1a.5.5,0,0,1,.34.62A.49.49,0,0,1,38.51,449.28Z" style="fill:#263238"></path><path d="M129.36,396.46a14.71,14.71,0,0,1,5.51-1c3.36-.06,5.56,2.07,5.82,3.74l.27,1.68s8.93,2.5,11.57,2.45a17.07,17.07,0,0,0,4.31-.55l2.1-4.12s3.79-3.18,7.94,1.31,3.81,12.43,1,18.48-5.11,10.65-7.74,11.41-7.17,1.8-7.17,1.8-7.63,3.49-12.41,5-14.67-1.2-16.6-1.89-6.77-2.53-6.77-2.53a32.7,32.7,0,0,1-.85-8.15c-.09-5.76,0-16.57,4.22-21A35.57,35.57,0,0,1,129.36,396.46Z" style="fill:#fff"></path><path d="M137,437.57a49.88,49.88,0,0,1-13.18-2.37c-1.91-.68-6.72-2.51-6.77-2.53a.48.48,0,0,1-.3-.32c0-.1-.79-2.52-.88-8.29-.12-7.1.21-17,4.36-21.32a35.9,35.9,0,0,1,8.91-6.73h0a14.82,14.82,0,0,1,5.71-1.1H135c3.41,0,5.87,2.14,6.19,4.17l.22,1.35c1.57.44,8.71,2.35,11.05,2.35h.06a18.59,18.59,0,0,0,4-.47l2-3.92a.48.48,0,0,1,.12-.16s4.21-3.43,8.64,1.35,3.75,13.29,1.11,19c-2.81,6.11-5.19,10.85-8.05,11.68-2.46.72-6.65,1.68-7.15,1.8-.65.29-7.86,3.56-12.42,5A12.48,12.48,0,0,1,137,437.57Zm-19.36-5.75c1,.38,4.86,1.85,6.52,2.44s11.54,3.39,16.28,1.88,12.27-4.95,12.35-5l.1,0s4.56-1,7.14-1.79,4.81-5.47,7.42-11.14c2.51-5.44,3.28-13.37-.93-17.93-3.53-3.81-6.66-1.72-7.19-1.32l-2,4a.5.5,0,0,1-.3.25,17.57,17.57,0,0,1-4.45.57c-2.66.06-11.34-2.36-11.71-2.47a.49.49,0,0,1-.36-.4l-.27-1.68c-.23-1.42-2.21-3.35-5.32-3.32a14.58,14.58,0,0,0-5.3,1,35.72,35.72,0,0,0-8.63,6.52c-3.89,4-4.19,13.69-4.08,20.61A36.23,36.23,0,0,0,117.64,431.82Z" style="fill:#263238"></path><path d="M153,431.61s3.55-2.94,4.5-3.44,1.4-2.9,1.58-6-5.94-10.71-5.94-10.71,4.79,3.21,6.46,5.68a72,72,0,0,1,4.26,8.6,10.16,10.16,0,0,1-2.54,3.51C159.82,430.34,153,431.61,153,431.61Z" style="fill:#263238"></path><path d="M153,432.11a.51.51,0,0,1-.46-.29.5.5,0,0,1,.14-.59,54,54,0,0,1,4.59-3.5c.3-.16,1-1,1.32-5.61.14-2.41-4.16-8.3-5.83-10.37a.5.5,0,0,1,.66-.73c.2.13,4.89,3.3,6.6,5.82a72.33,72.33,0,0,1,4.31,8.69.48.48,0,0,1,0,.39,10.53,10.53,0,0,1-2.7,3.72c-1.55,1.14-7.82,2.33-8.53,2.46Zm2.59-18.24c1.81,2.55,4.12,6.25,4,8.31-.23,3.91-.8,5.9-1.85,6.44a28.33,28.33,0,0,0-2.83,2.09c2.26-.49,5.27-1.25,6.12-1.88a9.23,9.23,0,0,0,2.3-3.12,69.92,69.92,0,0,0-4.13-8.31A18.9,18.9,0,0,0,155.59,413.87Z" style="fill:#263238"></path><path d="M129.22,433.24a.51.51,0,0,1-.46-.31.5.5,0,0,1,.26-.65s1.24-.69,1-3.78a.5.5,0,0,1,.47-.53.49.49,0,0,1,.53.46c.23,3.87-1.46,4.69-1.65,4.77A.48.48,0,0,1,129.22,433.24Z" style="fill:#263238"></path><path d="M132.34,421.85a.45.45,0,0,1-.16,0,.5.5,0,0,1-.31-.63c.44-1.26,1.34-4.84.27-6.32a.5.5,0,0,1,.81-.59c1.59,2.21-.06,7-.13,7.23A.51.51,0,0,1,132.34,421.85Z" style="fill:#263238"></path><path d="M128.26,422.39a.49.49,0,0,1-.44-.27c-.1-.19-2.39-4.68.21-8.39a.51.51,0,0,1,.7-.13.5.5,0,0,1,.12.7c-2.26,3.22-.17,7.32-.15,7.36a.5.5,0,0,1-.21.67A.46.46,0,0,1,128.26,422.39Z" style="fill:#263238"></path><path d="M124.17,432.53h-.12a.5.5,0,0,1-.36-.61c.94-3.67,4.76-5.38,4.92-5.45a.5.5,0,0,1,.66.26.5.5,0,0,1-.26.66s-3.54,1.58-4.35,4.78A.5.5,0,0,1,124.17,432.53Z" style="fill:#263238"></path><path d="M140.82,430.54c-1.18,0-4-1.2-5.69-2-1.46-.32-3.23-.41-3.57-.06a.5.5,0,1,1-.72-.7c.9-.93,3.71-.39,4.56-.21l.1,0c2.17,1,4.83,2,5.32,1.94a6.93,6.93,0,0,0,.72-2.9.5.5,0,0,1,.54-.46.51.51,0,0,1,.46.55c-.09,1-.4,3.33-1.36,3.74A.92.92,0,0,1,140.82,430.54Z" style="fill:#263238"></path><path d="M146.62,428.39a.49.49,0,0,1-.48-.4c-.37-1.68.67-4.86.72-5a.5.5,0,1,1,.95.32,11.93,11.93,0,0,0-.7,4.47.49.49,0,0,1-.38.59Z" style="fill:#263238"></path><path d="M156.84,403.23a.5.5,0,0,1-.43-.25.51.51,0,0,1,.19-.69s2.6-1.47,4.41-2.62a.51.51,0,0,1,.7.15.5.5,0,0,1-.16.69c-1.83,1.17-4.43,2.64-4.46,2.66A.54.54,0,0,1,156.84,403.23Z" style="fill:#263238"></path><path d="M129.36,396.46s-8.94-3.46-14-3.37-11.67,5.71-11.64,7.87a36.39,36.39,0,0,1-.17,4.09s-6.16,5.38-6.57,9.47,1.88,12.22,2.63,13.89,8.72,4.66,8.72,4.66l-1-3.83a18.9,18.9,0,0,0,4.38,3.77c2.43,1.4,4.61,2.33,6.29,2.3s6-.58,6-.58-3.6.3-3-5a54.34,54.34,0,0,0-.56-19.21l2.72,4.76s2.83-3.41,2.8-5.09-.06-3.6-.06-3.6,2.65.44,3.37.67,4.3-1.52,4.3-1.52-2.65-.67-3.92-4.49S129.36,396.46,129.36,396.46Z" style="fill:#263238"></path><path d="M117.92,435.81c-1.61,0-3.66-.75-6.46-2.37a17.59,17.59,0,0,1-3.14-2.42l.52,1.92a.52.52,0,0,1-.15.5.5.5,0,0,1-.51.09c-1.37-.51-8.21-3.15-9-4.92-.72-1.6-3.1-9.89-2.68-14.14.4-3.92,5.61-8.78,6.59-9.66a37,37,0,0,0,.15-3.84c0-1.52,2.2-3.71,4.12-5.13a14.92,14.92,0,0,1,8-3.25h.19c5.11,0,13.62,3.27,14,3.41a.49.49,0,0,1,.31.36.5.5,0,0,1-.11.44s-.66,1,.42,4.31c1.15,3.49,3.47,4.15,3.57,4.17a.51.51,0,0,1,.37.44.49.49,0,0,1-.28.49c-1.4.69-3.87,1.8-4.67,1.54-.45-.14-1.81-.39-2.71-.54l0,3c0,1.81-2.61,5.05-2.92,5.41a.49.49,0,0,1-.81-.07l-1.3-2.27a46.89,46.89,0,0,1,.61,5.88,62.47,62.47,0,0,1-.55,10.65c-.21,1.75,0,3,.74,3.75a2.25,2.25,0,0,0,1.69.68.52.52,0,0,1,.54.45.52.52,0,0,1-.44.55c-.17,0-4.36.55-6,.58Zm-10.59-7.07a.5.5,0,0,1,.39.18,18.1,18.1,0,0,0,4.24,3.66c2.6,1.5,4.55,2.23,6,2.23H118c.87,0,2.48-.18,3.81-.32a2.77,2.77,0,0,1-.25-.24c-.93-1-1.27-2.5-1-4.57a53.73,53.73,0,0,0-.55-19.05.49.49,0,0,1,.32-.56.48.48,0,0,1,.6.22l2.36,4.11c1-1.32,2.24-3.25,2.23-4.19l-.06-3.6a.52.52,0,0,1,.17-.39.5.5,0,0,1,.41-.11c.11,0,2.69.44,3.44.68a12,12,0,0,0,3-1,7.67,7.67,0,0,1-3.2-4.35c-.85-2.57-.76-4-.54-4.67-1.95-.72-9.06-3.21-13.28-3.15-2.11,0-4.89,1.18-7.44,3.06s-3.72,3.56-3.71,4.31a36.36,36.36,0,0,1-.17,4.14.53.53,0,0,1-.17.32c-.06.06-6,5.31-6.4,9.15-.4,4,1.92,12.14,2.59,13.63.41.93,4.38,2.8,7.53,4.05l-.77-2.88a.49.49,0,0,1,.25-.57A.46.46,0,0,1,107.33,428.74Z" style="fill:#263238"></path><path d="M168,384s4.24-8,6.09-9.26,23.34,1.49,34.64,5,25.74,8.32,25.77,10.19-2,7.11-2,7.11l-3.6,9a26.12,26.12,0,0,0-11.07-2.31,31.14,31.14,0,0,0-10.78,2.88l.34-4.79-27.29-1.43" style="fill:#92E3A9"></path><path d="M207.06,407.16a.57.57,0,0,1-.28-.08.51.51,0,0,1-.22-.45l.3-4.29-26.78-1.4a.49.49,0,0,1-.47-.52.48.48,0,0,1,.52-.48l27.29,1.43a.51.51,0,0,1,.35.17.49.49,0,0,1,.13.36l-.28,4a31.17,31.17,0,0,1,10.19-2.57,25.87,25.87,0,0,1,10.83,2.14l3.41-8.52c.54-1.43,1.95-5.46,1.92-6.92-.24-.85-4.86-3.24-25.42-9.72-12.05-3.8-32.73-6.13-34.2-5.12s-4.78,6.89-5.94,9.08a.5.5,0,0,1-.68.21.5.5,0,0,1-.2-.68c.44-.82,4.35-8.12,6.25-9.43,2.2-1.52,24.49,1.65,35.07,5C230.57,386.15,235,388.46,235,390c0,2-1.91,7.08-2,7.3l-3.61,9a.48.48,0,0,1-.28.28.51.51,0,0,1-.4,0,25.84,25.84,0,0,0-10.82-2.26,30.65,30.65,0,0,0-10.58,2.83A.64.64,0,0,1,207.06,407.16Z" style="fill:#263238"></path><path d="M207.4,402.37a.54.54,0,0,1-.21-.05.5.5,0,0,1-.25-.66c.18-.39,4.37-9.64,11.48-13.12a.5.5,0,1,1,.44.89c-6.78,3.33-11,12.55-11,12.64A.51.51,0,0,1,207.4,402.37Z" style="fill:#263238"></path><path d="M210.06,399.83a.51.51,0,0,1-.34-.14.5.5,0,0,1,0-.71c.32-.34,8-8.38,14.89-9.75a.5.5,0,0,1,.59.39.51.51,0,0,1-.4.59c-6.61,1.31-14.28,9.38-14.35,9.46A.52.52,0,0,1,210.06,399.83Z" style="fill:#263238"></path><path d="M207.49,395.08h-.09a.5.5,0,0,1-.41-.57c.78-4.49,5.21-9.11,5.4-9.31a.51.51,0,0,1,.71,0,.5.5,0,0,1,0,.71c0,.05-4.41,4.6-5.13,8.78A.49.49,0,0,1,207.49,395.08Z" style="fill:#263238"></path><path d="M207.06,406.66S190.18,443.58,189.57,444s-20-.08-21.65.36-7.24,2.83-8.25,4.51-1.21,2.31.66,2.07,7.24-2.41,7.24-2.41,13,3.32,16.5,3.27,9.3-4.32,9.3-4.32,20.09-18.65,26.43-25.83a50.51,50.51,0,0,0,9.11-15.56S220.05,399.16,207.06,406.66Z" style="fill:#fff"></path><path d="M184,452.3c-3.51,0-14.82-2.85-16.37-3.25a47.33,47.33,0,0,1-7.22,2.38c-.76.1-1.5.12-1.84-.39s0-1.34.69-2.43c1.13-1.88,6.86-4.28,8.55-4.73.84-.23,5.11-.23,11.54-.2,4,0,9,0,9.93-.11,1.12-1.85,10.9-23,17.35-37.12a.47.47,0,0,1,.2-.22c13.13-7.58,22.32-.6,22.41-.53a.5.5,0,0,1,.16.55A51.32,51.32,0,0,1,220.17,422c-6.28,7.12-26.26,25.68-26.46,25.87s-6,4.39-9.63,4.45ZM167.57,448h.13c.13,0,12.72,3.26,16.28,3.26h.08c3.34-.06,9-4.18,9-4.22s20.11-18.68,26.35-25.76a50.53,50.53,0,0,0,8.89-15c-1.6-1-9.69-5.64-20.86.73-7.71,16.87-17,37-17.6,37.41-.37.25-1.95.29-10.52.26-4.68,0-10.51-.05-11.28.16-1.81.49-7.09,2.86-8,4.28a6.57,6.57,0,0,0-.68,1.35,2.72,2.72,0,0,0,.84,0,52.81,52.81,0,0,0,7.13-2.37A.39.39,0,0,1,167.57,448Z" style="fill:#263238"></path></g></svg>
