<svg xmlns="http://www.w3.org/2000/svg" viewBox="0 0 750 500"><g id="background-simple"><path d="M713.57,188S697.55,106.35,583,55.9,415.5,55.65,357.93,76.6,269.12,68.71,173,55.1-6.36,176.82,20.87,282.53,108.16,425.87,239.49,449.9s209-55.26,301.91-40.84S744.8,342.59,713.57,188Z" style="fill:#92E3A9"></path><path d="M713.57,188S697.55,106.35,583,55.9,415.5,55.65,357.93,76.6,269.12,68.71,173,55.1-6.36,176.82,20.87,282.53,108.16,425.87,239.49,449.9s209-55.26,301.91-40.84S744.8,342.59,713.57,188Z" style="fill:#fff;opacity:0.7000000000000001"></path></g><g id="pictures-2"><rect x="510.72" y="78.65" width="59" height="82.13" style="fill:#263238;stroke:#263238;stroke-linecap:round;stroke-linejoin:round"></rect><rect x="515.79" y="85.71" width="48.86" height="68.02" style="fill:#fff;stroke:#263238;stroke-linecap:round;stroke-linejoin:round"></rect><rect x="583.52" y="108.06" width="37.87" height="52.72" style="fill:#263238;stroke:#263238;stroke-linecap:round;stroke-linejoin:round"></rect><rect x="586.77" y="112.59" width="31.36" height="43.66" style="fill:#fff;stroke:#263238;stroke-linecap:round;stroke-linejoin:round"></rect><rect x="528.84" y="175.42" width="37.87" height="52.72" style="fill:#263238;stroke:#263238;stroke-linecap:round;stroke-linejoin:round"></rect><rect x="532.09" y="179.95" width="31.36" height="43.66" style="fill:#fff;stroke:#263238;stroke-linecap:round;stroke-linejoin:round"></rect><circle cx="533.25" cy="106.27" r="11.55" transform="translate(-9.8 79.04) rotate(-8.4)" style="fill:#fff;stroke:#263238;stroke-linecap:round;stroke-linejoin:round"></circle><circle cx="603.08" cy="132.52" r="11.55" style="fill:#fff;stroke:#263238;stroke-linecap:round;stroke-linejoin:round"></circle><circle cx="547.43" cy="132.52" r="11.55" style="fill:#fff;stroke:#263238;stroke-linecap:round;stroke-linejoin:round"></circle><path d="M539.75,219.34V215.1l8.64-13.35c.63-1,1.23-1.92,1.79-2.81a14.82,14.82,0,0,0,1.39-2.79,9,9,0,0,0,.54-3.18,5.38,5.38,0,0,0-.69-3,2.41,2.41,0,0,0-2.16-1,2.93,2.93,0,0,0-2.17.78,4.07,4.07,0,0,0-1.05,2,12.53,12.53,0,0,0-.29,2.77V196h-5.87v-1.56a14.8,14.8,0,0,1,.93-5.46,7.6,7.6,0,0,1,3-3.7,9.5,9.5,0,0,1,5.31-1.34q4.5,0,6.75,2.42a9.56,9.56,0,0,1,2.24,6.74,12,12,0,0,1-.6,3.91,16.88,16.88,0,0,1-1.6,3.35c-.66,1.07-1.38,2.17-2.16,3.29l-7.18,10.89h10.64v4.8Z" style="fill:#263238"></path></g><g id="picture-1"><rect x="343.98" y="78.44" width="145.87" height="92.94" style="fill:#fff;stroke:#263238;stroke-linecap:round;stroke-linejoin:round"></rect><rect x="350.72" y="86.21" width="132.38" height="77.39" style="fill:#fff;stroke:#263238;stroke-linecap:round;stroke-linejoin:round"></rect><path d="M423.61,78.44c-3.11,2.2-6.43,4.77-9.94,7.77a198.09,198.09,0,0,0-29.13,31.55c-14.42,19.11-25.61,27.41-33.82,30.51a23.7,23.7,0,0,1-6.74,1.56V78.44Z" style="fill:none;stroke:#263238;stroke-linecap:round;stroke-linejoin:round"></path><path d="M481,78.44c-2.78,2.45-5.84,5.08-9.08,7.77-21.26,17.7-49.95,38.1-56.46,25.53C411,103.07,418.66,93.91,429,86.21a123.24,123.24,0,0,1,12-7.77Z" style="fill:none;stroke:#263238;stroke-linecap:round;stroke-linejoin:round"></path><path d="M489.85,127.81v43.57H362.1c1.48-2.3,3.19-4.94,5-7.77,12.41-18.79,31.88-45.87,38.46-35.1,9.45,15.47-4.72,32.19,12,25.79S459,82.89,474.38,110a86.72,86.72,0,0,0,8.72,13.23C485.74,126.33,487.87,127.65,489.85,127.81Z" style="fill:none;stroke:#263238;stroke-linecap:round;stroke-linejoin:round"></path><polygon points="350.72 86.21 350.72 163.61 343.98 171.38 343.98 78.44 350.72 86.21" style="fill:#8f8f8f;stroke:#263238;stroke-linecap:round;stroke-linejoin:round"></polygon><polygon points="489.85 78.44 483.1 86.21 350.72 86.21 343.98 78.44 489.85 78.44" style="fill:#bdbdbd;stroke:#263238;stroke-linecap:round;stroke-linejoin:round"></polygon><polygon points="483.1 86.21 483.1 163.6 489.84 171.38 489.84 78.44 483.1 86.21" style="fill:#bdbdbd;stroke:#263238;stroke-linecap:round;stroke-linejoin:round"></polygon><polygon points="350.72 163.61 343.98 171.38 489.84 171.38 483.1 163.6 350.72 163.61" style="fill:#8f8f8f;stroke:#263238;stroke-linecap:round;stroke-linejoin:round"></polygon></g><g id="Clock"><circle cx="668.52" cy="107.5" r="32.43" style="fill:#bdbdbd;stroke:#263238;stroke-linecap:round;stroke-linejoin:round"></circle><circle cx="668.52" cy="107.5" r="27.59" style="fill:#fff;stroke:#263238;stroke-linecap:round;stroke-linejoin:round"></circle><polyline points="658.41 96.49 668.52 107.5 647.84 120.28" style="fill:none;stroke:#263238;stroke-linecap:round;stroke-linejoin:round"></polyline><circle cx="668.52" cy="107.5" r="3.36" style="fill:#263238;stroke:#263238;stroke-linecap:round;stroke-linejoin:round"></circle></g><g id="earth-globe"><path d="M638.61,259.66a45.05,45.05,0,0,0,6.82.52,44.26,44.26,0,0,0,44-39.12,43.53,43.53,0,0,0,.3-5.14,44.26,44.26,0,0,0-36.24-43.53Z" style="fill:none;stroke:#263238;stroke-linecap:round;stroke-linejoin:round;stroke-width:4px"></path><path d="M669.4,186.27a38,38,0,0,0-24-8.48,37.28,37.28,0,0,0-4.75.3,37.83,37.83,0,0,0-9.71,2.54l-.57.24-.63.28a35.9,35.9,0,0,0-3.27,1.67l-2.13,1.31-.49.33a38.32,38.32,0,0,0-10.41,10.67,38.13,38.13,0,1,0,55.93-8.86Zm-18.63-1a15,15,0,0,1-3,.94c-.31,0-.4,1.55-.49,1.72a7.81,7.81,0,0,1-2.12.63,13.42,13.42,0,0,0-1.69,2.08,10.12,10.12,0,0,1,0,1.42c0,.57-.94,1.41-1.29,1.72s-1.55-.84-1.55-.84l-.58-1.28-.53-3.68a3.59,3.59,0,0,1,.62-1c.31-.26.58-.44.89-.66s.17-.58.22-.8-.4-.53-.4-.53-.66-.09-.66-.44.75-.71.75-.71a.68.68,0,0,0-.49-.45c-.35,0,1-2.7.89-2.92s-.89-.45-1-.8,1-.71,1-.71.22-.18.13-.35,1.55-.71,1.55-.71a22.09,22.09,0,0,1,2.88,0,4.22,4.22,0,0,1,1.42.4,24.86,24.86,0,0,1,2.44,1.77C650.68,180.92,650.9,185,650.77,185.26Z" style="fill:#92E3A9;stroke:#263238;stroke-linecap:round;stroke-linejoin:round"></path><path d="M624.54,220.85l-1.21-1-1.55,0-.68.66.32.23.87-.55,1.78,1.38,2,.13.27-.43Zm3.44.49-1.09.24.3,1-1-.07-.23.72,1.87-.08.25-.51,1,.17.15-.74ZM672.28,211l-.95,0-.26.4.85.32.22.43.29.16Zm-2.55-1.93-.73-.24.23,1.07.06.47-.11.14.51.16.39-.5Zm-.28-1.52-.3.29.14.55.46.09Zm-8.36-9.36-1.37-.4-.4.93.53.8-.49.71.4.39c.13.14,1.38-.39,1.38-.39Zm3,1.33-.76-1.95-1.11-.62.27-1.16-1.2-.22.49-.89-1.06.14-.49,1.06.53,1.38.44-.05,1.25,1.33-.09.8-.58-.09-.13,1.37.84.27-.93.53.35,1,1.38-1,1.33.09.44-1.64Zm18.26,17.37,0,2,.9,1.49a38.25,38.25,0,0,0-13.91-34.08l-.06.81,1.68,1.38.89,2.79-2.48-1.42-.45-1.2a3.42,3.42,0,0,0,.49-.57A28.4,28.4,0,0,0,667,185.8l-3.54-1.29-.4,1.38,1.59,4.6-.93,1.78,1.33,3.14,1,.23.62-1.25,2,3.2.84-.4-.84-1.73.35-1.38-1.64-1.59-.31-3.59.89.13,1.06,3.81,1.37,1.73,1.56-1,.26,1.24-.75.31s.75,1.42.8,1.55-.67.62-.67.62l0,1.64-3.42.31-.93-3-.88.35.66,2.66-.84.22-.36,1.46-3.05,2.27,1.06.84.31,3-3.55-.13-.17,2.39-.14,1.24,1.55.49s0,.4.14.53a7.44,7.44,0,0,0,1.59.18l.45-.36h.75l.89-1.28-.45-1,1.6-.88,0-1.11,1.16,0a7.1,7.1,0,0,1,.79-.58,13.12,13.12,0,0,1,1.73,1.2l1.11,1.15.44.8.45.93.09.66.57-.35-.26-1.07.62-.26,0-.45-.75-.48-1.24-1.55-1-1.16.49-.57.75.31,2.48,2.48.27,1.82.17,1.33.23.79.57-.62s.44-.17.44-.35a6.43,6.43,0,0,0-.7-1.15l.26-.85h.62l.27.58.62-.89-.4-1.1.31-2.44.8.13.09,1.11.44,0,0-1.28.8-.27.31.45-.49,1,1.47,2.17s.22.58.09.71-.27.36-.4.31-.67-.27-.67-.27L679,209l-.84.13-.49.49-.57.31a2,2,0,0,0-.45.44l0,.53.35,1.2v.35h.67l.44.45.67.22c.13,0,.62-.62.62-.62l.31.57-.49,2.84-1.06.05a9.77,9.77,0,0,0-1.16.48l-1.77-1.73-.62.18-.27,1.46-.13.4a11,11,0,0,0-1.33-.88c-.13,0-.57-1.16-.57-1.16l-2.09-1.06.54-.71-.23-1.51-1.15.27-5.45,1-.75-.31-1.69,1.77-.75.14-.09,2-1.95,1.47L657.19,220l-.8,1.38.05,4.78,2.74,3.59,6.12-.08,1.16.62.84.17-.93,2.57a22.41,22.41,0,0,0,1,3.46c.31.4-3.37,4.65-3.37,4.65s-.44,1.6-.44,1.73v.36l-2.75,4,.67,0,3.85-1.33,1.24-.66s1.47-2.13,1.6-2.17,2.57-2.26,2.57-2.26l1.42-.67.88-1.33,1.51-3.14,3.9-3.73,1.2-1.86.71-2.31-1.55.54v-5.63l-.71-3.95.17-1.19.62-.05.49.31.31,5.23-.09,3.28.71.93,2.18-5.45-.67-2.44.09-2.26Zm-27.66-28.23v-1h-1.42l-.13.57-1.86-.31-.36.8,1.2.62-.53.58,2.13.84,1.86-1.37Zm-16.35,13.07-1.51.45-.53-.54.09-.84-1.25.53-1.1,2,.75.89,1.28-.94-.17,1,.75.23.36-.85.44.8,1.42-1.46Zm-11-10.64-.45.67h.54l.84-.53Zm.84-2.08-1.11.09-1.15,1.24.84.67,1-.76.4.45.57-.45Zm7.14-7.49L635,182l.93.67.71-1Zm0,4.26.93-.62v-1l-.76-.4.18-.58-1.64-.44.27-1.2-1.51.58-1.95,2.08.53.53,1.24-.22.8,1a13.88,13.88,0,0,1-.44,2.08c-.14.09-.89.8-1.07.93s-.79.49-.79.49l-1.47.09-.31.66,2-.09,1,2.62h1.19l-.44-1.33.93-.14.62-1.1-.49-.67s.18-.88.23-1.06.71-.09.71-.09l.31,1.2,1-1.11.39-1Zm-8.87-1.73.07-1.25-2.13,1.31.29.6-.58.67,0,.66.93-.48.93.35,1.28-.31a6.35,6.35,0,0,0,.14-1.6Zm19.9,51.06-1.64-.8-5.63-2.22s.14-1.1.31-1.15a28.75,28.75,0,0,0-2.79-2l-1.68.13-1-.79-1.82-1.16-.75.4a4.24,4.24,0,0,0-.8-.66,4.31,4.31,0,0,0-.71-.05l-.71-.4-.75.32.09,1.1-.66-.13.08-1.73-.66.05a2.75,2.75,0,0,0-.4.53c0,.13-.89,0-.89,0l-.48,1-1-.53-1.16.35-.88-1L622,224l-2,.14.35-3.28-1.51.08-.17,1.25-.62.62-1.38.13-.84-1.82-.27-3.72,1.64-1.42.67.27.88.35v-.89l1.42-.22.53.36.63-.18.66.89,0,1.06.53,1.2.62-.18-1-3.72,3.06-2.44s-.09-1.07-.14-1.2.49-2.26.49-2.26l1.37-.58,1-.57v-.36l.22-1.06.84-.62.58-.49.8-.4.62.31-.71,1,.71.31.84-1.19,2-1-.71-.66-1.38,1-.57-1.33.44-.93h-.62l-2.31,1.73-.84-.49,2.66-1.81a25.3,25.3,0,0,1,3-.4,2.24,2.24,0,0,0,1.47-.58l1.59-1.15-.31-1.6-1.86-1a5.77,5.77,0,0,0,.36-1,25.6,25.6,0,0,0-.85-3,22.45,22.45,0,0,1-2.08,2,2.74,2.74,0,0,1-.75-.44s.57-2.09.53-2.22a5.58,5.58,0,0,0-1.46-1.33,3.61,3.61,0,0,0-1.11.27,13.12,13.12,0,0,0-.67,2.44s-.53.35-.75.53.09,2.17.09,2.44-1.86.7-1.86.7l-.27,2.89-1.2-.36s.45-2.39.05-2.44a19.4,19.4,0,0,1-2.79-2.17,7.81,7.81,0,0,1,.17-1.73c.14,0,2.53-2.44,2.71-2.48s3-3.15,3-3.15l1.64-.13,1.2-.75,1.07-1.42-1.29-.84-1.77,1.68.31-.66-.27-1.33,2-1.11.4-1.07-2.35.27,2.17-1.59-.24-.41,0,0-.61.32-2.54,1.32.18,1.15,2.26-.31-1.69.8-.17,1.29-.76.8-.8.53-2.08-.31-.66.84-.76-.27,1.29-2.21-.16-.32a38.32,38.32,0,0,0-10.41,10.67l-.47,1.61-.22.62-1.11,2.35-.18,3-1.5,4.08-.53,5.27.31,1.33,0,1.64,1.77,4.84.71.35-1.95-5.14.53-.09.62,1.29.58,1.86s2.48,5,2.75,5.23a7.24,7.24,0,0,1,.8,1.15l1.86-.44.71,1.15,2.35.4,1.28,2.17,2.57.71.27-.45.93.4.49,1.95-.85,2.4.89,1.42v1.42l.58.48,2.21,2.4,2.8,1.5,4.47,9.13,2.13,2,1.86,1.24,2.31,1,.08-.62-1.59-.48-.89-.71c-.22-.18-.66-.49-.66-.49l-.36-.71-.35-.35-.4-.94,1-.44.22-.53-.76-1.15h1.33l1-3.51,3-1.68.17-3,2.18-2.93ZM631,180.63l.07.33s1.91-.22,2.93-.44.35-.26.35-.26a1.72,1.72,0,0,1,.4-.31,8.76,8.76,0,0,1,1.15,0l-1.19.93h.88c.53,0,.93,0,.93,0l.4-.13.4-.49.4-.27,1.73-.71a6.29,6.29,0,0,0,1.26-1.23A37.83,37.83,0,0,0,631,180.63Zm19.8,4.63a15,15,0,0,1-3,.94c-.31,0-.4,1.55-.49,1.72a7.81,7.81,0,0,1-2.12.63,13.42,13.42,0,0,0-1.69,2.08,10.12,10.12,0,0,1,0,1.42c0,.57-.94,1.41-1.29,1.72s-1.55-.84-1.55-.84l-.58-1.28-.53-3.68a3.59,3.59,0,0,1,.62-1c.31-.26.58-.44.89-.66s.17-.58.22-.8-.4-.53-.4-.53-.66-.09-.66-.44.75-.71.75-.71a.68.68,0,0,0-.49-.45c-.35,0,1-2.7.89-2.92s-.89-.45-1-.8,1-.71,1-.71.22-.18.13-.35,1.55-.71,1.55-.71a22.09,22.09,0,0,1,2.88,0,4.22,4.22,0,0,1,1.42.4,24.86,24.86,0,0,1,2.44,1.77C650.68,180.92,650.9,185,650.77,185.26Z" style="fill:#fff;stroke:#263238;stroke-linecap:round;stroke-linejoin:round;stroke-width:0.5px"></path><path d="M643.64,251.89l.75,0M611,226.45a36,36,0,0,0,32.65,25.44M609.45,217.3a35.42,35.42,0,0,0,.89,6.72" style="fill:none;stroke:#263238;stroke-linecap:round;stroke-linejoin:round"></path><rect x="645.43" y="260.18" width="6.26" height="10.28" style="fill:#263238"></rect><rect x="625.71" y="269.92" width="46.01" height="3.52" style="fill:#263238"></rect></g><g id="Desk"><rect x="687.15" y="317" width="5.42" height="103.66" style="fill:#fff;stroke:#263238;stroke-linecap:round;stroke-linejoin:round"></rect><rect x="683.92" y="317" width="5.42" height="103.66" style="fill:#fff;stroke:#263238;stroke-linecap:round;stroke-linejoin:round"></rect><rect x="674.13" y="277.91" width="20.82" height="121.13" style="fill:#bdbdbd;stroke:#263238;stroke-linecap:round;stroke-linejoin:round"></rect><rect x="669.55" y="317" width="5.42" height="103.66" style="fill:#fff;stroke:#263238;stroke-linecap:round;stroke-linejoin:round"></rect><rect x="666.33" y="317" width="5.42" height="103.66" style="fill:#fff;stroke:#263238;stroke-linecap:round;stroke-linejoin:round"></rect><rect x="489.47" y="317" width="5.42" height="103.66" style="fill:#fff;stroke:#263238;stroke-linecap:round;stroke-linejoin:round"></rect><rect x="486.24" y="317" width="5.42" height="103.66" style="fill:#fff;stroke:#263238;stroke-linecap:round;stroke-linejoin:round"></rect><rect x="512.93" y="317" width="5.42" height="103.66" style="fill:#fff;stroke:#263238;stroke-linecap:round;stroke-linejoin:round"></rect><rect x="509.7" y="317" width="5.42" height="103.66" style="fill:#fff;stroke:#263238;stroke-linecap:round;stroke-linejoin:round"></rect><polygon points="587.51 273.61 483.92 273.61 483.92 319.46 587.51 319.46 587.51 398.93 677.99 398.93 677.99 327.68 677.99 273.61 587.51 273.61" style="fill:#fff;stroke:#263238;stroke-linecap:round;stroke-linejoin:round"></polygon><rect x="478.19" y="272.93" width="221.08" height="7.98" style="fill:#fff;stroke:#263238;stroke-linecap:round;stroke-linejoin:round"></rect><rect x="680.27" y="272.93" width="18.99" height="7.98" style="fill:#bdbdbd;stroke:#263238;stroke-linecap:round;stroke-linejoin:round"></rect><rect x="600.08" y="285.06" width="66.9" height="32.28" style="fill:#263238;stroke:#263238;stroke-linecap:round;stroke-linejoin:round"></rect><rect x="600.08" y="287.36" width="66.9" height="29.98" style="fill:#bdbdbd;stroke:#263238;stroke-linecap:round;stroke-linejoin:round"></rect><rect x="591.39" y="284.64" width="66.9" height="33.75" style="fill:#fff;stroke:#263238;stroke-linecap:round;stroke-linejoin:round"></rect><rect x="589.28" y="284.64" width="66.9" height="33.75" style="fill:#fff;stroke:#263238;stroke-linecap:round;stroke-linejoin:round"></rect><path d="M634.26,298a5.27,5.27,0,0,0-4,.27l-2.11,1.58-6.62-.13h-.27l-6.62.13-2.11-1.58a5.27,5.27,0,0,0-4-.27c-1.84.79.27,2.11,1.78,2.28s1.65,1.41,4.28,3c1.18.71,3.94,1,6.75.87,2.82.12,5.58-.16,6.76-.87,2.63-1.58,2.77-2.82,4.28-3S636.1,298.76,634.26,298Z" style="fill:#263238;stroke:#263238;stroke-linecap:round;stroke-linejoin:round"></path><rect x="507.24" y="288.23" width="66.9" height="22.72" style="fill:#263238;stroke:#263238;stroke-linecap:round;stroke-linejoin:round"></rect><rect x="507.24" y="289.85" width="66.9" height="21.11" style="fill:#bdbdbd;stroke:#263238;stroke-linecap:round;stroke-linejoin:round"></rect><rect x="498.55" y="287.94" width="66.9" height="23.76" style="fill:#fff;stroke:#263238;stroke-linecap:round;stroke-linejoin:round"></rect><rect x="496.44" y="287.94" width="66.9" height="23.76" style="fill:#fff;stroke:#263238;stroke-linecap:round;stroke-linejoin:round"></rect><path d="M541.41,296.27a5.3,5.3,0,0,0-3.95.26l-2.1,1.58-6.62-.12h-.27l-6.62.12-2.11-1.58a5.3,5.3,0,0,0-4-.26c-1.84.79.26,2.11,1.78,2.28s1.64,1.41,4.28,3c1.18.71,3.94,1,6.75.87,2.81.11,5.58-.16,6.76-.87,2.63-1.58,2.77-2.82,4.28-3S543.26,297.06,541.41,296.27Z" style="fill:#263238;stroke:#263238;stroke-linecap:round;stroke-linejoin:round"></path><rect x="600.08" y="324.36" width="66.9" height="32.28" style="fill:#263238;stroke:#263238;stroke-linecap:round;stroke-linejoin:round"></rect><rect x="600.08" y="326.66" width="66.9" height="29.98" style="fill:#bdbdbd;stroke:#263238;stroke-linecap:round;stroke-linejoin:round"></rect><rect x="579.07" y="323.95" width="66.9" height="33.75" style="fill:#fff;stroke:#263238;stroke-linecap:round;stroke-linejoin:round"></rect><rect x="576.96" y="323.95" width="66.9" height="33.75" style="fill:#fff;stroke:#263238;stroke-linecap:round;stroke-linejoin:round"></rect><path d="M621.94,337.28a5.29,5.29,0,0,0-4,.26l-2.11,1.58-6.62-.13H609l-6.62.13-2.11-1.58a5.29,5.29,0,0,0-4-.26c-1.84.79.27,2.1,1.78,2.27s1.65,1.41,4.28,3c1.18.71,3.94,1,6.75.87,2.82.12,5.58-.16,6.76-.87,2.63-1.58,2.77-2.82,4.28-3S623.78,338.07,621.94,337.28Z" style="fill:#263238;stroke:#263238;stroke-linecap:round;stroke-linejoin:round"></path><rect x="600.08" y="363.08" width="66.9" height="32.28" style="fill:#263238;stroke:#263238;stroke-linecap:round;stroke-linejoin:round"></rect><rect x="600.08" y="365.37" width="66.9" height="29.98" style="fill:#bdbdbd;stroke:#263238;stroke-linecap:round;stroke-linejoin:round"></rect><rect x="573.2" y="362.66" width="66.9" height="33.75" style="fill:#fff;stroke:#263238;stroke-linecap:round;stroke-linejoin:round"></rect><rect x="571.1" y="362.66" width="66.9" height="33.75" style="fill:#fff;stroke:#263238;stroke-linecap:round;stroke-linejoin:round"></rect><path d="M616.07,376a5.3,5.3,0,0,0-4,.26L610,377.83l-6.62-.12h-.27l-6.62.12-2.1-1.58a5.3,5.3,0,0,0-3.95-.26c-1.85.79.26,2.11,1.77,2.28s1.65,1.41,4.28,3c1.18.71,4,1,6.76.87,2.81.11,5.57-.16,6.75-.87,2.64-1.58,2.77-2.82,4.28-3S617.91,376.78,616.07,376Z" style="fill:#263238;stroke:#263238;stroke-linecap:round;stroke-linejoin:round"></path></g><g id="Bust"><path d="M279,178.39s-2.46-10.17,3.12-16.43,14-9.05,23.47-8.49a18.62,18.62,0,0,1,16.42,12.29,70,70,0,0,1,2.24,8.38s-10.28-6.7-15.2-6.81-13.52,2.79-19.78,6.14-8.6,6.71-8.6,6.71Z" style="fill:#fff;stroke:#263238;stroke-linecap:round;stroke-linejoin:round"></path><path d="M289.31,173.47c6.26-3.35,14.86-6.25,19.78-6.14s15.2,6.81,15.2,6.81a70,70,0,0,0-2.24-8.38.88.88,0,0,1-.05-.15c-3.56-3.06-10.55-7.27-21.74-6.33-10.29.87-18,7.47-21.62,11.23a25.24,25.24,0,0,0,.4,7.88l1.67,1.79S283.06,176.82,289.31,173.47Z" style="fill:#fff;stroke:#263238;stroke-linecap:round;stroke-linejoin:round"></path><path d="M302.05,163.64a85,85,0,0,0-11.39,4.47c-3.91,2.12-6.15,3.46-8.94,6.7s-5.25,5.59-5.37,8.05.34,7.82,2.8,10.83,11.73,6.6,11.73,6.6l-1.34-11.62s9.27-3.24,11.73-5.14,4.13-3.47,4.13-3.47l13,7.27s.34,10,.45,10.39,4.58-1.57,5.25-4.47,2.68-8.61,2.68-13-5.25-11.29-8.15-12.85S306.19,162.75,302.05,163.64Z" style="fill:#fff;stroke:#263238;stroke-linecap:round;stroke-linejoin:round"></path><path d="M305.61,174.46s3.48-3,3.48-4-2.57-3.69-2.57-3.69" style="fill:none;stroke:#263238;stroke-linecap:round;stroke-linejoin:round"></path><path d="M281.61,179s1.67,2.79,3.79,3.68,10-.56,10-.56" style="fill:none;stroke:#263238;stroke-linecap:round;stroke-linejoin:round"></path><path d="M277.58,187.66s2.46,2.57,3.69,2.79,5-.55,5-.55" style="fill:none;stroke:#263238;stroke-linecap:round;stroke-linejoin:round"></path><path d="M314.23,181a29.67,29.67,0,0,0,4.92.44c1.56-.11,5.14-1.78,5.69-2.57" style="fill:none;stroke:#263238;stroke-linecap:round;stroke-linejoin:round"></path><path d="M320.26,188.67a4.87,4.87,0,0,0,3.47.56" style="fill:none;stroke:#263238;stroke-linecap:round;stroke-linejoin:round"></path><rect x="292.89" y="224.98" width="27.71" height="17.32" style="fill:#fff;stroke:#263238;stroke-linecap:round;stroke-linejoin:round"></rect><path d="M290.32,197.6l2.79,18.78s-4.24,6.48-5.25,10.5,4.92,14,18.88,12,19.67-21.23,19.11-26.37-7.6-4.8-7.6-4.8l-.56-5.7s-.56,4-5.36,6.59-10.84,3.8-14.3-.22A114.22,114.22,0,0,1,290.32,197.6Z" style="fill:#fff;stroke:#263238;stroke-linecap:round;stroke-linejoin:round"></path><line x1="293.11" y1="216.38" x2="295.35" y2="226.32" style="fill:none;stroke:#263238;stroke-linecap:round;stroke-linejoin:round"></line><line x1="318.25" y1="207.66" x2="319.82" y2="215.26" style="fill:none;stroke:#263238;stroke-linecap:round;stroke-linejoin:round"></line><path d="M305.61,174.46s-11.31,9.14-14.79,10.22-4.35,2.61-4.35,2.61,1.74,9.57,2.83,12.62S297.35,214,301.48,216s8.26,2,10-.87,7.45-11.92,7.89-15.4,1-14.39,1-14.39S308,177.72,305.61,174.46Z" style="fill:#fff;stroke:#263238;stroke-linecap:round;stroke-linejoin:round"></path><path d="M303.87,204.26l5.22.22.65-13s4.15-2,7.06-1" style="fill:none;stroke:#263238;stroke-linecap:round;stroke-linejoin:round"></path><line x1="304.96" y1="208.39" x2="308.53" y2="208.44" style="fill:none;stroke:#263238;stroke-linecap:round;stroke-linejoin:round"></line><path d="M304,191a37.73,37.73,0,0,0-4.92-.67,11.33,11.33,0,0,0-4.35.78" style="fill:none;stroke:#263238;stroke-linecap:round;stroke-linejoin:round"></path><path d="M297,192.24s1,1.57,4.36.34" style="fill:none;stroke:#263238;stroke-linecap:round;stroke-linejoin:round"></path><path d="M311.66,192.24s1,.78,3.13-.11" style="fill:none;stroke:#263238;stroke-linecap:round;stroke-linejoin:round"></path><rect x="268.95" y="264.88" width="73.1" height="155.79" style="fill:#fff;stroke:#263238;stroke-linecap:round;stroke-linejoin:round"></rect><rect x="275.48" y="285.05" width="49.07" height="108.44" style="fill:#fff;stroke:#263238;stroke-linecap:round;stroke-linejoin:round"></rect><rect x="279.72" y="290.42" width="40.59" height="97.7" style="fill:#fff;stroke:#263238;stroke-linecap:round;stroke-linejoin:round"></rect><rect x="332.86" y="264.88" width="9.19" height="155.79" style="fill:#bdbdbd;stroke:#263238;stroke-linecap:round;stroke-linejoin:round"></rect><rect x="281.05" y="241.4" width="50.39" height="19.55" style="fill:#fff;stroke:#263238;stroke-linecap:round;stroke-linejoin:round"></rect><rect x="327.34" y="241.4" width="4.1" height="19.55" style="fill:#bdbdbd;stroke:#263238;stroke-linecap:round;stroke-linejoin:round"></rect><rect x="264.64" y="260.6" width="80.71" height="6.15" style="fill:#fff;stroke:#263238;stroke-linecap:round;stroke-linejoin:round"></rect><rect x="334.08" y="260.6" width="11.27" height="6.15" style="fill:#bdbdbd;stroke:#263238;stroke-linecap:round;stroke-linejoin:round"></rect></g><g id="Door"><rect x="58.8" y="54.62" width="166.45" height="366.04" style="fill:#bdbdbd;stroke:#263238;stroke-linecap:round;stroke-linejoin:round"></rect><rect x="70.6" y="66.74" width="63.52" height="48.31" style="fill:#bdbdbd;stroke:#263238;stroke-linecap:round;stroke-linejoin:round"></rect><rect x="79.44" y="73.46" width="45.84" height="34.86" style="fill:#bdbdbd;stroke:#263238;stroke-linecap:round;stroke-linejoin:round"></rect><line x1="70.6" y1="66.74" x2="79.44" y2="73.46" style="fill:#bdbdbd;stroke:#263238;stroke-linecap:round;stroke-linejoin:round"></line><line x1="79.44" y1="108.33" x2="70.6" y2="115.05" style="fill:#bdbdbd;stroke:#263238;stroke-linecap:round;stroke-linejoin:round"></line><line x1="125.28" y1="108.33" x2="134.12" y2="115.05" style="fill:#bdbdbd;stroke:#263238;stroke-linecap:round;stroke-linejoin:round"></line><line x1="125.28" y1="73.46" x2="134.12" y2="66.74" style="fill:#bdbdbd;stroke:#263238;stroke-linecap:round;stroke-linejoin:round"></line><rect x="150.36" y="66.74" width="63.52" height="48.31" style="fill:#bdbdbd;stroke:#263238;stroke-linecap:round;stroke-linejoin:round"></rect><rect x="159.2" y="73.46" width="45.84" height="34.86" style="fill:#bdbdbd;stroke:#263238;stroke-linecap:round;stroke-linejoin:round"></rect><line x1="150.36" y1="66.74" x2="159.2" y2="73.46" style="fill:#bdbdbd;stroke:#263238;stroke-linecap:round;stroke-linejoin:round"></line><line x1="159.2" y1="108.33" x2="150.36" y2="115.05" style="fill:#bdbdbd;stroke:#263238;stroke-linecap:round;stroke-linejoin:round"></line><line x1="205.04" y1="108.33" x2="213.89" y2="115.05" style="fill:#bdbdbd;stroke:#263238;stroke-linecap:round;stroke-linejoin:round"></line><line x1="205.04" y1="73.46" x2="213.89" y2="66.74" style="fill:#bdbdbd;stroke:#263238;stroke-linecap:round;stroke-linejoin:round"></line><rect x="70.6" y="129.29" width="63.52" height="96.7" style="fill:#bdbdbd;stroke:#263238;stroke-linecap:round;stroke-linejoin:round"></rect><rect x="79.44" y="136.01" width="45.84" height="83.25" style="fill:#bdbdbd;stroke:#263238;stroke-linecap:round;stroke-linejoin:round"></rect><line x1="70.6" y1="129.29" x2="79.44" y2="136.01" style="fill:#bdbdbd;stroke:#263238;stroke-linecap:round;stroke-linejoin:round"></line><line x1="79.44" y1="219.27" x2="70.6" y2="225.99" style="fill:#bdbdbd;stroke:#263238;stroke-linecap:round;stroke-linejoin:round"></line><line x1="125.28" y1="219.27" x2="134.12" y2="225.99" style="fill:#bdbdbd;stroke:#263238;stroke-linecap:round;stroke-linejoin:round"></line><line x1="125.28" y1="136.01" x2="134.12" y2="129.29" style="fill:#bdbdbd;stroke:#263238;stroke-linecap:round;stroke-linejoin:round"></line><rect x="150.36" y="129.29" width="63.52" height="96.7" style="fill:#bdbdbd;stroke:#263238;stroke-linecap:round;stroke-linejoin:round"></rect><rect x="159.2" y="136.01" width="45.84" height="83.25" style="fill:#bdbdbd;stroke:#263238;stroke-linecap:round;stroke-linejoin:round"></rect><line x1="150.36" y1="129.29" x2="159.2" y2="136.01" style="fill:#bdbdbd;stroke:#263238;stroke-linecap:round;stroke-linejoin:round"></line><line x1="159.2" y1="219.27" x2="150.36" y2="225.99" style="fill:#bdbdbd;stroke:#263238;stroke-linecap:round;stroke-linejoin:round"></line><line x1="205.04" y1="219.27" x2="213.89" y2="225.99" style="fill:#bdbdbd;stroke:#263238;stroke-linecap:round;stroke-linejoin:round"></line><line x1="205.04" y1="136.01" x2="213.89" y2="129.29" style="fill:#bdbdbd;stroke:#263238;stroke-linecap:round;stroke-linejoin:round"></line><rect x="70.6" y="358.77" width="63.52" height="48.31" style="fill:#bdbdbd;stroke:#263238;stroke-linecap:round;stroke-linejoin:round"></rect><rect x="79.44" y="365.49" width="45.84" height="34.86" style="fill:#bdbdbd;stroke:#263238;stroke-linecap:round;stroke-linejoin:round"></rect><line x1="70.6" y1="407.08" x2="79.44" y2="400.36" style="fill:#bdbdbd;stroke:#263238;stroke-linecap:round;stroke-linejoin:round"></line><line x1="79.44" y1="365.49" x2="70.6" y2="358.77" style="fill:#bdbdbd;stroke:#263238;stroke-linecap:round;stroke-linejoin:round"></line><line x1="125.28" y1="365.49" x2="134.12" y2="358.77" style="fill:#bdbdbd;stroke:#263238;stroke-linecap:round;stroke-linejoin:round"></line><line x1="125.28" y1="400.36" x2="134.12" y2="407.08" style="fill:#bdbdbd;stroke:#263238;stroke-linecap:round;stroke-linejoin:round"></line><rect x="150.36" y="358.77" width="63.52" height="48.31" style="fill:#bdbdbd;stroke:#263238;stroke-linecap:round;stroke-linejoin:round"></rect><rect x="159.2" y="365.49" width="45.84" height="34.86" style="fill:#bdbdbd;stroke:#263238;stroke-linecap:round;stroke-linejoin:round"></rect><line x1="150.36" y1="407.08" x2="159.2" y2="400.36" style="fill:#bdbdbd;stroke:#263238;stroke-linecap:round;stroke-linejoin:round"></line><line x1="159.2" y1="365.49" x2="150.36" y2="358.77" style="fill:#bdbdbd;stroke:#263238;stroke-linecap:round;stroke-linejoin:round"></line><line x1="205.04" y1="365.49" x2="213.89" y2="358.77" style="fill:#bdbdbd;stroke:#263238;stroke-linecap:round;stroke-linejoin:round"></line><line x1="205.04" y1="400.36" x2="213.89" y2="407.08" style="fill:#bdbdbd;stroke:#263238;stroke-linecap:round;stroke-linejoin:round"></line><rect x="70.6" y="247.83" width="63.52" height="96.7" style="fill:#bdbdbd;stroke:#263238;stroke-linecap:round;stroke-linejoin:round"></rect><rect x="79.44" y="254.55" width="45.84" height="83.25" style="fill:#bdbdbd;stroke:#263238;stroke-linecap:round;stroke-linejoin:round"></rect><line x1="70.6" y1="344.53" x2="79.44" y2="337.81" style="fill:#bdbdbd;stroke:#263238;stroke-linecap:round;stroke-linejoin:round"></line><line x1="79.44" y1="254.55" x2="70.6" y2="247.83" style="fill:#bdbdbd;stroke:#263238;stroke-linecap:round;stroke-linejoin:round"></line><line x1="125.28" y1="254.55" x2="134.12" y2="247.83" style="fill:#bdbdbd;stroke:#263238;stroke-linecap:round;stroke-linejoin:round"></line><line x1="125.28" y1="337.81" x2="134.12" y2="344.53" style="fill:#bdbdbd;stroke:#263238;stroke-linecap:round;stroke-linejoin:round"></line><rect x="150.36" y="247.83" width="63.52" height="96.7" style="fill:#bdbdbd;stroke:#263238;stroke-linecap:round;stroke-linejoin:round"></rect><rect x="159.2" y="254.55" width="45.84" height="83.25" style="fill:#bdbdbd;stroke:#263238;stroke-linecap:round;stroke-linejoin:round"></rect><line x1="150.36" y1="344.53" x2="159.2" y2="337.81" style="fill:#bdbdbd;stroke:#263238;stroke-linecap:round;stroke-linejoin:round"></line><line x1="159.2" y1="254.55" x2="150.36" y2="247.83" style="fill:#bdbdbd;stroke:#263238;stroke-linecap:round;stroke-linejoin:round"></line><line x1="205.04" y1="254.55" x2="213.89" y2="247.83" style="fill:#bdbdbd;stroke:#263238;stroke-linecap:round;stroke-linejoin:round"></line><line x1="205.04" y1="337.81" x2="213.89" y2="344.53" style="fill:#bdbdbd;stroke:#263238;stroke-linecap:round;stroke-linejoin:round"></line><rect x="211.24" y="120.17" width="24.95" height="5.99" style="fill:#263238;stroke:#263238;stroke-linecap:round;stroke-linejoin:round"></rect><rect x="211.24" y="313.27" width="24.95" height="5.99" style="fill:#263238;stroke:#263238;stroke-linecap:round;stroke-linejoin:round"></rect><polyline points="230.2 122.66 247.66 122.66 247.66 316.76 236.18 316.76" style="fill:none;stroke:#263238;stroke-linecap:round;stroke-linejoin:round"></polyline><rect x="230.65" y="187" width="35.22" height="35.22" style="fill:#263238;stroke:#263238;stroke-linecap:round;stroke-linejoin:round"></rect><rect x="233.31" y="189.34" width="29.91" height="9.61" style="fill:#92E3A9;stroke:#263238;stroke-linecap:round;stroke-linejoin:round"></rect><rect x="234.15" y="202.07" width="4.95" height="5.06" style="fill:#fff"></rect><rect x="241.95" y="202.07" width="4.95" height="5.06" style="fill:#fff"></rect><rect x="249.75" y="202.07" width="4.95" height="5.06" style="fill:#fff"></rect><rect x="257.56" y="202.07" width="4.95" height="5.06" style="fill:#fff"></rect><rect x="234.15" y="210.28" width="4.95" height="5.06" style="fill:#fff"></rect><rect x="241.95" y="210.28" width="4.95" height="5.06" style="fill:#fff"></rect><rect x="249.75" y="210.28" width="4.95" height="5.06" style="fill:#fff"></rect><rect x="257.56" y="210.28" width="4.95" height="5.06" style="fill:#fff"></rect><circle cx="211.13" cy="237.11" r="7.83" transform="translate(-88.72 341.43) rotate(-67.5)" style="fill:#263238;stroke:#263238;stroke-linecap:round;stroke-linejoin:round"></circle></g><g id="character-2"><path d="M432.74,118.13s-1.47,2.57-1.29,3.68.73,3.67.55,4.41-6.8,5.88-5.88,7.53a25.57,25.57,0,0,0,4,4.41l.55,4.05.19,2.76s.18,1.83.92,2.39,1.65,2.2,2.57,2,2.94-.37,2.94-.37l2.39-.37.37,9.38L462,156.18l-.73-12s.18.55-2.76-8.64-.18-21.32-4.23-24.63-9.56-2.94-14-.92S432.55,116.29,432.74,118.13Z" style="fill:#fff;stroke:#263238;stroke-linecap:round;stroke-linejoin:round"></path><path d="M440.64,106s-12.87,2.57-12.5,6.43,4.6,5.7,4.6,5.7l3.49-4.23s7-2.39,6.62-.55-7,7.17-6.25,9,2,5,2.39,6.06,1.1,14.16.18,14.71a32,32,0,0,1-6.62,2.39c-.92,0-1.65-4.6-1.84-3.31s-1.28,3.67-1.47,5.51,2.58,5,4.23,5,6.8-1.47,8.09-2.95,2.39-5.33,2-7.9a34.62,34.62,0,0,1,.37-9.74c.55-2.57,1.1-4.78,3.86-3.49s2.39,5.69,1.29,7.72a21.67,21.67,0,0,1-2.21,3.31s1.84,3.49,1.29,5.33-3.68,3.67-3.68,3.67,6.07,2.39,7.72,2,3.68-2.94,3.68-2.94l-1.11,3.68a35.31,35.31,0,0,0,4.6-.74,13.7,13.7,0,0,0,3.86-1.47,6,6,0,0,1-.37,1.66c-.37,1.1-.55,1.65,2.57-.55s4.42-2.94,4.42-7.54a34.53,34.53,0,0,1,.36-6.25,15.15,15.15,0,0,0,4.23-10.29c.19-6.62-3.86-13.79-7-16.36s-8.09-6.8-13.05-6.62S440.64,106,440.64,106Z" style="fill:#263238;stroke:#263238;stroke-linecap:round;stroke-linejoin:round"></path><line x1="439.1" y1="129.81" x2="428.51" y2="126.4" style="fill:none;stroke:#263238;stroke-linecap:round;stroke-linejoin:round"></line><path d="M431.27,123.09a4.61,4.61,0,0,0-2.39,6.07" style="fill:none;stroke:#263238;stroke-linecap:round;stroke-linejoin:round"></path><path d="M504.29,207.66S501.84,195,499,185.75s-5.74-21.1-5.74-21.1,4.31-5.53,4.51-7a31,31,0,0,0-.61-7.17,21.9,21.9,0,0,0-4.72-8.8l-2.66-3.08.21,4.72s-2.87-1.85-3.69.41-1,7.78-1.43,8.8-1.44,4.51-.41,7.38,1.84,13.31,1.84,13.31-1.64,33,.2,35.44,7.79,7.17,11.88,6.14S504.29,207.66,504.29,207.66Z" style="fill:#fff;stroke:#263238;stroke-linecap:round;stroke-linejoin:round"></path><path d="M490,143.35a19.29,19.29,0,0,1-.82,9" style="fill:none;stroke:#263238;stroke-linecap:round;stroke-linejoin:round"></path><path d="M426.7,402.12s-5.79,6.95-7.65,7.88-8.58,4.17-9,6,.7,4.64.7,4.64h38a9.62,9.62,0,0,0,.7-5.57,69.31,69.31,0,0,0-1.62-7.65Z" style="fill:#fff;stroke:#263238;stroke-linecap:round;stroke-linejoin:round"></path><path d="M410.71,420.67h38a7.54,7.54,0,0,0,.6-1.86h-39.2A13.1,13.1,0,0,0,410.71,420.67Z" style="fill:#fff;stroke:#263238;stroke-linecap:round;stroke-linejoin:round"></path><path d="M464.5,405.59s.23,13.45.7,14.15,19.7,0,19.7,0a23.77,23.77,0,0,0,.7-6.26,51.86,51.86,0,0,0-.7-7.89Z" style="fill:#fff;stroke:#263238;stroke-linecap:round;stroke-linejoin:round"></path><path d="M485.28,417.88H464.94a7,7,0,0,0,.26,1.86c.46.69,19.7,0,19.7,0A14.52,14.52,0,0,0,485.28,417.88Z" style="fill:#fff;stroke:#263238;stroke-linecap:round;stroke-linejoin:round"></path><path d="M419.52,258.59s-.93,39.42.46,57,5.8,50.55,5.8,50.55l2.32,30.14s-2.55,1.16-2.79,2.32-.69,4.87-.69,4.87.46,2.08,6.26,4.4,16.69,3,16.69,3,1.39-4.87.93-7-.69-2.55-.46-3.48,2.55-2.78,2.08-5.56S448,391,448,389.83s1.62-30.84.69-42.67-2.32-31.76-2.32-31.76l5.1-26.2,1.86-.93s1.62,33.39,2.78,39,6,40.81,7,43.36,2.78,17.39,2.55,20.87-1.86,7.19-1.62,9,.46,5.1.46,5.1,5.33,4.18,8.81,4.41,10.9-1.16,11.36-2.32,2.55-9,2.09-14.37-1.16-11.13-1.16-11.13.7-28.29-.7-31.31S481.19,334,481,331.4s.7-35.71,1.16-37.34,1.39-16.92.7-21.33-1.63-15.07-1.63-15.07a127.14,127.14,0,0,1-29,1.86,137.37,137.37,0,0,1-30.37-4.64Z" style="fill:#263238;stroke:#263238;stroke-linecap:round;stroke-linejoin:round"></path><path d="M467.63,156.05s-4.71-2.67-8.6-2.87-18.85,1-21.51,2.25-22.74,9.22-22.74,11.27-9.62,39.12-9.62,39.12-18.64-16.18-18.85-17.21-1.43-10.65-2.25-12.7-5.12-5.32-7.17-6.76-3.48-1.43-3.69-.2,2.87,3.69,2.87,3.69l2.05,2.66-6.35-4.51s-3.69-2.45-4.71-1,2.05,2.87,2.05,2.87l4.3,4.91-6.56-3.89s-3.48-.2-3.68,1a2.1,2.1,0,0,0,2,2.26h1l5.53,4.3s-5.12,1.23-6.76,1-4.1,1.44-2.87,2.67,4.92.2,5.74.2a40.82,40.82,0,0,1,4.3.82,74.88,74.88,0,0,0,4.3,6.15,28.27,28.27,0,0,0,3.69,2.66s16.18,26.63,18.84,29.49,8.4,7.58,9.83,7.58,5.33-1.64,8.4-5.53c.68-.86,7-11.67,7-11.67s-3.69,31.34-4.51,35.84a64.62,64.62,0,0,0-.82,9.83s10.65,5.33,37.07,5.33,25.81-5.74,25.81-5.74-2.25-13.1-3.27-17a52.46,52.46,0,0,1-1.23-9.42l3.07-26.83s8.19,15,10.65,16.79,8.81-.4,10.65-2.25,2.66-8.6,2.87-10.44-2.25-7.38-3.69-9.22S493,179,491,174.68a120.12,120.12,0,0,0-7.58-12.9C482,159.73,467.63,156.05,467.63,156.05Z" style="fill:#fff;stroke:#263238;stroke-linecap:round;stroke-linejoin:round"></path><path d="M491,174.68a120.12,120.12,0,0,0-7.58-12.9c-1.43-2.05-15.77-5.73-15.77-5.73s-4.71-2.67-8.6-2.87-18.85,1-21.51,2.25-22.74,9.22-22.74,11.27-9.62,39.12-9.62,39.12-2.33-2-5.35-4.68c-2.82.11-6.83,2-8.76,11.21,3.56,5.64,6.88,10.74,8,11.9,2.66,2.87,8.4,7.58,9.83,7.58s5.33-1.64,8.4-5.53c.68-.86,7-11.67,7-11.67s-3.69,31.34-4.51,35.84a64.62,64.62,0,0,0-.82,9.83s10.65,5.33,37.07,5.33,25.81-5.74,25.81-5.74-2.25-13.1-3.27-17a52.46,52.46,0,0,1-1.23-9.42l3.07-26.83s8.19,15,10.65,16.79,8.81-.4,10.65-2.25,2.66-8.6,2.87-10.44-2.25-7.38-3.69-9.22S493,179,491,174.68Z" style="fill:#92E3A9;stroke:#263238;stroke-linecap:round;stroke-linejoin:round"></path><line x1="480.33" y1="206.64" x2="482.58" y2="184.52" style="fill:none;stroke:#263238;stroke-linecap:round;stroke-linejoin:round"></line><path d="M457,193.73s-15.57,30.93-22.94,38.1" style="fill:none;stroke:#263238;stroke-linecap:round;stroke-linejoin:round"></path><path d="M451.86,214S446.33,224.66,441,230.6" style="fill:none;stroke:#263238;stroke-linecap:round;stroke-linejoin:round"></path><line x1="424.21" y1="214.63" x2="430.76" y2="195.37" style="fill:none;stroke:#263238;stroke-linecap:round;stroke-linejoin:round"></line></g><g id="character-1"><path d="M130.57,161.71s10.25,8.62,11.64,14.91.7,18.17,1.87,21.66,8.15,9.32,6.52,14.91-1.17,8.85-6.52,9.31-10.48,0-13.51-4.89-3.26-14-1.17-21,5.13-11,2.1-21.89S128.94,160.78,130.57,161.71Z" style="fill:#92E3A9;stroke:#263238;stroke-linecap:round;stroke-linejoin:round"></path><path d="M79.56,242.3S73.74,260.24,74,271.65s6.52,40.76,6.52,45.42-9.78,22.12-9.78,31.9,4.43,55.57,4.43,55.57-2.33,6.29-4,9.79-6.29,4.42-3.5,7,17.7.7,17.7.7S87,420.85,87,416.89s-.69-8.39-.69-12.81,4.42-38.8,8.85-52.31,6-33.07,7.68-37.27,4.66-23.05,4.66-23.05.93,14.67.7,19.79-2.56,13.51-4.19,21.9-1.87,17.93-.24,23.29,2.8,46.25,3.73,50,.23,12.57.93,13.27a3,3,0,0,0,2.56,1.4c1.87.23,19.34.7,21.66,1.17s10.25-.47,9.79-2.8-4.63-4-10-6.52c-5-2.3-10-6.78-10.71-10-.53-2.27-.93-.23-1.4-1.86s2.56-34.14,6.29-54.64,8.85-38,11.41-62.88-.46-43.56-.46-43.56l-53.11-3.49Z" style="fill:#fff;stroke:#263238;stroke-linecap:round;stroke-linejoin:round"></path><path d="M121.5,383.43c1.16-10.93,3-25.54,5.11-37,3.73-20.49,8.85-38,11.41-62.88s-.46-43.56-.46-43.56l-53.11-3.49-4.89,5.82S73.74,260.24,74,271.65s6.52,40.76,6.52,45.42-9.78,22.12-9.78,31.9c0,5.28,1.29,20.44,2.47,33.29a62.92,62.92,0,0,0,15.55.33c1.69-10.88,4.06-23.57,6.44-30.82,4.42-13.51,6-33.07,7.68-37.27s4.66-23.05,4.66-23.05.93,14.67.7,19.79-2.56,13.51-4.19,21.9-1.87,17.93-.24,23.29c.89,2.9,1.63,15.67,2.28,27.34A44.71,44.71,0,0,0,121.5,383.43Z" style="fill:#263238;stroke:#263238;stroke-linecap:round;stroke-linejoin:round"></path><path d="M132.66,422.24c2.33.47,10.25-.46,9.79-2.79s-4.63-4-10-6.52c-5-2.3-10-6.78-10.71-10-.53-2.27-.93-.23-1.4-1.86a3,3,0,0,0-3.26,1.86,28.37,28.37,0,0,0-1.86,5.59l-7.41-.45c.5,4.21,0,11,.65,11.63a3,3,0,0,0,2.56,1.4C112.87,421.31,130.34,421.78,132.66,422.24Z" style="fill:#fff;stroke:#263238;stroke-linecap:round;stroke-linejoin:round"></path><path d="M87,416.89c0-2.74-.33-5.71-.53-8.75l-2.26.13-.7-1.63s-1.4-3.49-3.73-3.73-4.65,1.63-4.65,1.63-2.33,6.29-4,9.79-6.29,4.42-3.5,7,17.7.7,17.7.7S87,420.85,87,416.89Z" style="fill:#fff;stroke:#263238;stroke-linecap:round;stroke-linejoin:round"></path><path d="M75,170.32s-3.82,3.27-4.06,6.77S52.64,216.94,54,219.73s8.15,3.5,11.88,0,17.37-22.15,17.37-22.15,3.49,14.21,4,17-8.62,30-8.62,30,10.48,14.67,30.05,16.3,30-15.83,30-15.83-2.79-24.23-3.49-29.82-1.87-4.19,0-8.61,4-13.28,3.72-17-3-20.73-5.59-24.45-10.61-2.73-17.3-6.61-28.58,4.05-30.21,4.51S75,170.32,75,170.32Z" style="fill:#92E3A9;stroke:#263238;stroke-linecap:round;stroke-linejoin:round"></path><path d="M124.35,152.54s-.66,7.64-.16,11S123,172,118.2,172s-9.14-5.48-11.13-10.64-3.66-17.28-3.66-17.28a110.9,110.9,0,0,0,8.81,7.15C117,154.7,124.35,152.54,124.35,152.54Z" style="fill:#fff;stroke:#263238;stroke-linecap:round;stroke-linejoin:round"></path><path d="M124.52,156.19s-1,5.15,1.33,8.48,5.15,5,2.32,9.14-3.49,6.48-2,8.47,5.15,5.15,8,3,3.32-4,3.32-4-2.82.49-2.82-1.5,3.32-1.16,2.49-7.48-3.16-4-1.83-8,3.49-2.5,2.82-8.81-5.31-12.13-5.15-15.46,1-3.47,1-3.47a47.29,47.29,0,0,1-4.12,9.62c-2.66,4.49-5.32,8.48-5.32,8.48Z" style="fill:#263238;stroke:#263238;stroke-linecap:round;stroke-linejoin:round"></path><path d="M127.25,118.52s-24.61,8.39-24.61,9.69,1.68,16.41,3.17,19,7.27,10.63,10.25,11.37,6-.93,10.07-4.29,6.71-11.37,7.83-17.71,1.49-9.69,1.49-9.69S128.93,119.08,127.25,118.52Z" style="fill:#fff;stroke:#263238;stroke-linecap:round;stroke-linejoin:round"></path><path d="M118.49,144.62a4,4,0,0,0,5.59.56" style="fill:none;stroke:#263238;stroke-linecap:round;stroke-linejoin:round"></path><path d="M115.69,149.09s4.85,1.87,8,.75" style="fill:none;stroke:#263238;stroke-linecap:round;stroke-linejoin:round"></path><path d="M111.59,137.16a6.46,6.46,0,0,0,6.15.75" style="fill:none;stroke:#263238;stroke-linecap:round;stroke-linejoin:round"></path><path d="M126.13,138.1a6,6,0,0,0,5.59.18" style="fill:none;stroke:#263238;stroke-linecap:round;stroke-linejoin:round"></path><path d="M119.05,132.32s-4.48-3-7.65-.19" style="fill:none;stroke:#263238;stroke-linecap:round;stroke-linejoin:round"></path><path d="M126.88,132.69a4.87,4.87,0,0,1,5.4.37" style="fill:none;stroke:#263238;stroke-linecap:round;stroke-linejoin:round"></path><path d="M113.45,138.65a1.58,1.58,0,0,0,2.61,0" style="fill:none;stroke:#263238;stroke-linecap:round;stroke-linejoin:round"></path><path d="M127.57,139.36a1.58,1.58,0,0,0,2.61,0" style="fill:none;stroke:#263238;stroke-linecap:round;stroke-linejoin:round"></path><path d="M135.32,129.44s4-.58,4.82-3.58,1-9.72-6.48-18S114.55,98,106.57,102s-13.46,8.47-15.45,15.79-1,15.62-1,15.62l13.46-6.32,23.67-8.59,8.2,8.39Z" style="fill:#263238;stroke:#263238;stroke-linecap:round;stroke-linejoin:round"></path><path d="M90.12,133.43s-1.5,8.14-2.33,10.63-9,4.16-10.13,8,1,8.31.83,9.64-2.83.83-3.49,4,0,4.66,0,4.66,15.62-8.15,17-8,1.49,2-.17,4.82-2,5-.66,6.65,7.31,3.82,6.81,6-3.49,3.32-1.83,5.48,7.48,3.16,7.48,3.16-1.66-1,.17-3.16,6.31-4.65,5-7.64-4.82-5.65-2.66-8.14,4.82-5.65,3.82-9.64-2.82-6.65-3.65-9a36.64,36.64,0,0,1-1.33-5.65l-2.27-17S91.78,131.43,90.12,133.43Z" style="fill:#263238;stroke:#263238;stroke-linecap:round;stroke-linejoin:round"></path><path d="M153.16,200.84s-4-1.63-5.12.24-1.17,7.68.23,8.15S153.16,200.84,153.16,200.84Z" style="fill:#fff;stroke:#263238;stroke-linecap:round;stroke-linejoin:round"></path><polygon points="107.98 192.46 92.84 230.42 107.05 240.67 128.47 246.96 141.98 211.09 124.51 201.78 107.98 192.46" style="fill:#fff;stroke:#263238;stroke-linecap:round;stroke-linejoin:round"></polygon><line x1="124.51" y1="201.77" x2="115.66" y2="226.93" style="fill:none;stroke:#263238;stroke-linecap:round;stroke-linejoin:round"></line><polygon points="141.98 211.09 156.89 203.87 142.68 239.97 128.47 246.96 141.98 211.09" style="fill:#fff;stroke:#263238;stroke-linecap:round;stroke-linejoin:round"></polygon><polygon points="156.89 203.87 160.85 188.97 150.83 206.67 156.89 203.87" style="fill:#fff;stroke:#263238;stroke-linecap:round;stroke-linejoin:round"></polygon><path d="M157.59,202s1.86.46,2.56,4-.93,6.05-2.8,7.92-5.82,3.49-5.82,3.49Z" style="fill:#fff;stroke:#263238;stroke-linecap:round;stroke-linejoin:round"></path><path d="M89.11,228.79s2.33-5.59,2.56-8.15-5.59-.23-5.59-.23Z" style="fill:#263238;stroke:#263238;stroke-linecap:round;stroke-linejoin:round"></path><path d="M89.11,213s1.4-.23,5.59-2.32,5.59-2.33,10-1.4,5.82,1.86,5.35,4-4.89,1.86-4.89,1.86a6.58,6.58,0,0,1-2.09,6.29,10,10,0,0,1-7.92,2.33c-1.63-.23-6.76-1.17-6.76-1.17S86.55,217.38,89.11,213Z" style="fill:#fff;stroke:#263238;stroke-linecap:round;stroke-linejoin:round"></path><path d="M60.33,216.24s1.86-6.76,5.12-7.45,10.15,1.6,15.74,2.77S89.11,213,89.11,213s-.93,7-.7,9.55.7,6.29.7,6.29-16-.44-23.66-2.77S53.34,223,54,217.87s3-6.75,3-6.75" style="fill:#92E3A9;stroke:#263238;stroke-linecap:round;stroke-linejoin:round"></path></g><g id="Floor"><line x1="15.18" y1="420.67" x2="723.75" y2="420.67" style="fill:none;stroke:#263238;stroke-linecap:round;stroke-linejoin:round"></line></g></svg>