<svg xmlns="http://www.w3.org/2000/svg" viewBox="0 0 500 500"><g id="background-simple"><path d="M353.16,445.09s-71.06,34.82-147.73.9S83.73,332.57,45.56,269.13s-27-133.63,25.06-171,94.34,4.21,172.09-2.34S340.18,75.71,409,112.61s91.05,140,48.15,222.94S353.16,445.09,353.16,445.09Z" style="fill:#92E3A9"></path><path d="M353.16,445.09s-71.06,34.82-147.73.9S83.73,332.57,45.56,269.13s-27-133.63,25.06-171,94.34,4.21,172.09-2.34S340.18,75.71,409,112.61s91.05,140,48.15,222.94S353.16,445.09,353.16,445.09Z" style="fill:#fff;opacity:0.7000000000000001"></path></g><g id="Clouds"><path d="M401.92,84.11S402.68,57,376,53s-32.1,15.1-39.44,20.43-8.67-10.67-25.34-4.66-10,19.34-18,24-10.86-7.71-23.34-6-9.9,15.11-15.34,18-11.52-.23-22.1-1.11S220.29,115,220.29,115H432.6s5.33-18.89-5.34-25.56S404.59,88.11,401.92,84.11Z" style="fill:none;stroke:#263238;stroke-linecap:round;stroke-linejoin:round"></path><path d="M181.16,245.38s-5.1-20.91-25.5-24-18.87,11.73-24.48,15.81-6.62-8.16-19.37-3.57S104.16,248.44,98,252s-8.3-5.89-17.85-4.59S72.62,259,68.47,261.19s-8.81-.18-16.9-.86S42.29,269,42.29,269H204.61s4.08-14.44-4.08-19.54S183.2,248.44,181.16,245.38Z" style="fill:none;stroke:#263238;stroke-linecap:round;stroke-linejoin:round"></path><path d="M461.7,153.62s4.45-12-7.45-13.74-18.43,6.6-21.7,9-3.87-4.76-11.31-2.08-4.46,8.63-8,10.71-4.84-3.44-10.41-2.68-4.41,6.74-6.84,8-5.13-.1-9.85-.5-5.42,5.06-5.42,5.06h94.69S477.76,159,473,156,462.89,155.41,461.7,153.62Z" style="fill:none;stroke:#263238;stroke-linecap:round;stroke-linejoin:round"></path></g><g id="characters-2"><path d="M336.93,286.76s7.82,38.2,9.84,44.86a55,55,0,0,1,2.32,10.13s1.45,13.89,3.18,25.47,10.13,42,10.42,44.86-1.73,8.68-4.05,12.16-11.29,10.13-11.29,12.15,9.55,2,14.76,2,13-.87,15.05-1.74,2.61-2.31,2.61-5.21-4.63-29.81-4.92-38.49,3.76-22.87,1.74-34.44-5.79-24.31-5.79-34.44-.29-43.71-.29-43.71S345.62,288.21,336.93,286.76Z" style="fill:#fff;stroke:#263238;stroke-linecap:round;stroke-linejoin:round"></path><path d="M369.06,415.55c-3.47-3.18-6.95.87-6.95.87h0a29.17,29.17,0,0,1-3.47,7.82c-2.31,3.47-11.29,10.13-11.29,12.15s9.55,2,14.76,2,13-.87,15.05-1.74,2.61-2.31,2.61-5.21c0-1.15-.73-6.1-1.63-12.19l-3.58,1.19S372.53,418.74,369.06,415.55Z" style="fill:#fff;stroke:#263238;stroke-linecap:round;stroke-linejoin:round"></path><path d="M300,260.67s-4.33,16.66-8.33,31-3,28-3.67,35.33-3.67,22.33-.67,37.33,8.34,38.34,8.34,40.34a13,13,0,0,1-4,9C288.33,417,280,424.33,280,428a6.06,6.06,0,0,0,8,6c5-1.33,10.33-6.67,12.33-11.33s8-6.34,8.34-11-1.34-9-2-13.67-2.67-24.33,0-37S308,330,308,330s6-16.67,9.33-24.33S327,280,327,280Z" style="fill:#fff;stroke:#263238;stroke-linecap:round;stroke-linejoin:round"></path><path d="M308.67,411.67a28.34,28.34,0,0,0-.9-8.1,23.6,23.6,0,0,1-6.44,9.43,15,15,0,0,0-3.33-4.67c-1.38-1.15-2.61-.07-3.23.71a13.9,13.9,0,0,1-3.1,4.63C288.33,417,280,424.33,280,428a6.06,6.06,0,0,0,8,6c5-1.33,10.33-6.67,12.33-11.33S308.33,416.33,308.67,411.67Z" style="fill:#fff;stroke:#263238;stroke-linecap:round;stroke-linejoin:round"></path><path d="M313.78,225.69a70.78,70.78,0,0,0-9,15.05c-3.19,7.81-6.95,18.81-6.08,20s8.68,12.45,13.89,15.92,14.47,6.66,14.47,6.66l3.19-3.19,1.15,9.26s5.5,1.45,17.66,2,28.65-6.66,28.65-6.66-3.64-24.38-7.41-33.06-10.82-17.3-10.82-17.3-24.31,2.61-34.73-1.15S313.78,225.69,313.78,225.69Z" style="fill:#263238;stroke:#263238;stroke-linecap:round;stroke-linejoin:round"></path><path d="M376.66,280.55c-4.05,2-13.78,6.41-23.52,7.08a56.11,56.11,0,0,1-22.28-2.9l.57,4.63s5.5,1.45,17.66,2,28.65-6.66,28.65-6.66S377.33,283.12,376.66,280.55Z" style="fill:#999;stroke:#263238;stroke-linecap:round;stroke-linejoin:round"></path><path d="M327.09,283.29l.86-.86a97.82,97.82,0,0,1-12.43-7.83c-6.28-4.54-13.36-13-16.54-16.93-.37,1.6-.5,2.71-.25,3,.87,1.16,8.68,12.45,13.89,15.92S327.09,283.29,327.09,283.29Z" style="fill:#999;stroke:#263238;stroke-linecap:round;stroke-linejoin:round"></path><path d="M332.3,272.87s10.13-12.45,17.37-17.37" style="fill:none;stroke:#6b6b6b;stroke-linecap:round;stroke-linejoin:round"></path><path d="M270.33,146s.67,9.33-3.33,11.33-23.67,0-30.67.67-45.66,26.33-47.66,28,1.33,11.33,6.66,13.33,35-12.66,35-12.66S240,211,241.33,213,235,234,230,242s-10.33,26.67-10.67,38.33,6,36.34,9.67,43.67,3,10,1.67,19-2.53,23-.17,31.5c2.5,9,11.17,43.17,11.17,43.17s-9.34,8.66-14.34,12.66-10.66,5-9.66,7.34,32.33,0,34.33,0a5,5,0,0,0,4.67-4.67c0-2.67-.67-15-.67-18s.67-40.67.67-52.33V333.33S258,311,258,306s2.67-18.33,2.67-18.33h5s17.33,31.33,21,37.66,7.33,13,7.33,13-.33,29,5.33,39.34,17,32.66,18.67,36S321,435,323,437s36.67,3,37.67,2.67,2-4.67-1-7-16-7.67-19.34-10.34-6.06-3-8-10.33c-.46-1.74-5.33-31.67-6-42.33s-7.66-36.34-7.66-36.34-5.34-38-8-49.66S296,240,295.67,238,291,224.33,291,224.33s1.67-5.66,3.67-8.33S301,203,301,198.67a31.52,31.52,0,0,1,.67-7s2.33-4.34,5-6.34,15-12.33,15-12.33-1-4.33-7.67-7.67-23.67-4.33-24.67-4.66-1.66-7-1-10.34S270.33,146,270.33,146Z" style="fill:#fff;stroke:#263238;stroke-linecap:round;stroke-linejoin:round"></path><path d="M359.67,432.67c-3-2.34-16-7.67-19.34-10.34s-6.06-3-8-10.33c-.36-1.36-3.43-20.08-5.07-33.23A151,151,0,0,1,302.21,383c6,11.25,14.37,27.82,15.79,30.66,1.67,3.33,3,21.33,5,23.33s36.67,3,37.67,2.67S362.67,435,359.67,432.67Z" style="fill:#999;stroke:#263238;stroke-linecap:round;stroke-linejoin:round"></path><path d="M232.48,381.91c3.49,13.29,9.19,35.76,9.19,35.76s-9.34,8.66-14.34,12.66-10.66,5-9.66,7.34,32.33,0,34.33,0a5,5,0,0,0,4.67-4.67c0-2.67-.67-15-.67-18,0-1.87.26-17.22.45-31.34C246.66,383.2,238.24,382.48,232.48,381.91Z" style="fill:#999;stroke:#263238;stroke-linecap:round;stroke-linejoin:round"></path><path d="M326.33,369.67c-.66-10.67-7.66-36.34-7.66-36.34s-5.34-38-8-49.66c-2.4-10.48-12.32-37.35-14.56-44.17-12,2.19-37.77,5-62.18-4.84A78.55,78.55,0,0,1,230,242c-5,8-10.33,26.67-10.67,38.33s6,36.34,9.67,43.67,3,10,1.67,19-2.53,23-.17,31.5c.8,2.89,2.24,8.37,3.82,14.48a84.29,84.29,0,0,0,22.05.91c.15-10.62.3-21.77.3-27.22V333.33S258,311,258,306s2.67-18.33,2.67-18.33h5s17.33,31.33,21,37.66,7.33,13,7.33,13-.33,29,5.33,39.34c1.69,3.08,3.89,7.24,6.19,11.64a100.61,100.61,0,0,0,22.75-2.61C327.35,380,326.58,373.55,326.33,369.67Z" style="fill:#263238;stroke:#263238;stroke-linecap:round;stroke-linejoin:round"></path><path d="M248,420c-1.5-4-6.33-2.33-6.33-2.33s-9.34,8.66-14.34,12.66-10.66,5-9.66,7.34,32.33,0,34.33,0a5,5,0,0,0,4.67-4.67c0-1.35-.17-5.17-.34-9H249.5Z" style="fill:#fff;stroke:#263238;stroke-linecap:round;stroke-linejoin:round"></path><path d="M359.67,432.67c-3-2.34-16-7.67-19.34-10.34-1.43-1.14-2.75-1.86-3.94-2.89a4.27,4.27,0,0,0-2.36,1.07c-1.93,1.69-2.18,6-2.18,6s-7.15-1.3-11.72-2.3C321,429.93,321.9,435.9,323,437c2,2,36.67,3,37.67,2.67S362.67,435,359.67,432.67Z" style="fill:#fff;stroke:#263238;stroke-linecap:round;stroke-linejoin:round"></path><path d="M311.46,171.86s-6.65,9.55-6.07,13.6,4.34,7.24,4.63,11.29-4.92,13-4,17.36,7.52,10.42,7.52,10.42-2,6.66.87,11.87,15.05,13.31,27.2,11.29,17.95-7.82,18.82-9.84,6.37-16.5,8.39-25.76.29-17.37-5.21-22.58-20.26-11.86-29.23-15.63S312.33,169,311.46,171.86Z" style="fill:#92E3A9;stroke:#263238;stroke-linecap:round;stroke-linejoin:round"></path><path d="M335.2,231.48s5.21,4.34,14.18,2.6a22.38,22.38,0,0,0,13.6-9" style="fill:none;stroke:#263238;stroke-linecap:round;stroke-linejoin:round"></path><path d="M357.48,208.9c-.45,8.12,1.21,15.53,7,17.73a145.26,145.26,0,0,0,4.27-14.54c1.86-8.5.54-16-3.94-21.23C362.24,194.5,357.89,201.63,357.48,208.9Z" style="fill:#fff;stroke:#263238;stroke-linecap:round;stroke-linejoin:round"></path><path d="M347.35,194.72a83.33,83.33,0,0,0,5.4-12.26c-6.14-3.27-13.24-6.41-18.42-8.58a49.1,49.1,0,0,0-18.19-3.63,2.86,2.86,0,0,0,.53.74c2.32,2.31,3.48,6.66,3.48,6.66s2.89,2.89.58,8.68-2.9,18.23,4.34,21.7S342.43,204.27,347.35,194.72Z" style="fill:#fff;stroke:#263238;stroke-linecap:round;stroke-linejoin:round"></path><path d="M362.42,214.49l31.18,27a77.59,77.59,0,0,0-3.53,15.75c-.65,7.4-6.11,29.9-6.76,31.19s-11.89,6.43-15.11,8.36-6.43,9.32-6.1,10.93,1.6-.65,2.57-2.25a15.61,15.61,0,0,1,2.89-3.22l2.57-1.61s-3.21,6.43-3.21,8.36-1,6.43.32,6.43,1.61-2.89,1.93-3.86,2.89-8.35,2.89-8.35l-2.25,13.18s-.64,2.57,1.29,1.28,2.57-8.36,2.89-9.32,4.5-6.11,4.5-6.11-1.93,6.43-1.93,8.36-1,5.46.32,4.18,2.9-6.43,2.9-6.43l2.89-7.07a22.87,22.87,0,0,0,5.15-6.11,20,20,0,0,0,1.92-5.79s14.47-31.83,16.4-37.93a84.93,84.93,0,0,0,3.21-12.54c0-1-7.39-10.29-14.78-19.94s-17.36-20.89-22.51-25.07-10.61-1.29-10.61.64" style="fill:#fff;stroke:#263238;stroke-linecap:round;stroke-linejoin:round"></path><path d="M371.83,193.31s3.61-3.63,4.67-2.31-.66,8-1.78,9.06-1.21.07-1.2-1.94a9.29,9.29,0,0,0-.63-3.49S372.83,195.23,371.83,193.31Z" style="fill:#999;stroke:#263238;stroke-linecap:round;stroke-linejoin:round"></path><path d="M377.15,192.48s3.27-.46,3.41,2-3,7.32-4.09,8-.32-4.46.14-6.82S377.15,192.48,377.15,192.48Z" style="fill:#999;stroke:#263238;stroke-linecap:round;stroke-linejoin:round"></path><path d="M380.41,195.84s3.26-.45,3.4,2-3,7.32-4.08,8-.32-4.46.13-6.83S380.41,195.84,380.41,195.84Z" style="fill:#999;stroke:#263238;stroke-linecap:round;stroke-linejoin:round"></path><path d="M383.55,199.71s2.75-.38,2.86,1.66-2.52,6.15-3.42,6.73-.28-3.75.11-5.73S383.55,199.71,383.55,199.71Z" style="fill:#999;stroke:#263238;stroke-linecap:round;stroke-linejoin:round"></path><path d="M265.33,117l-18.89,44.06s15.33,14.24,33.4,14.24,25.74-6.3,25.74-6.3l-1.37-40.25Z" style="fill:#263238;stroke:#263238;stroke-linecap:round;stroke-linejoin:round"></path><line x1="268.62" y1="118.07" x2="251.91" y2="166.54" style="fill:none;stroke:#6b6b6b;stroke-linecap:round;stroke-linejoin:round"></line><line x1="273.82" y1="119.44" x2="259.31" y2="169.27" style="fill:none;stroke:#6b6b6b;stroke-linecap:round;stroke-linejoin:round"></line><line x1="300.65" y1="127.1" x2="301.48" y2="170.92" style="fill:none;stroke:#6b6b6b;stroke-linecap:round;stroke-linejoin:round"></line><line x1="295.45" y1="125.74" x2="295.73" y2="173.11" style="fill:none;stroke:#6b6b6b;stroke-linecap:round;stroke-linejoin:round"></line><path d="M298.5,246.39c-1.61-4.55-2.73-7.8-2.83-8.39-.34-2-4.67-13.67-4.67-13.67s1.67-5.66,3.67-8.33S301,203,301,198.67a31.52,31.52,0,0,1,.67-7s2.33-4.34,5-6.34,15-12.33,15-12.33-1-4.33-7.67-7.67-23.67-4.33-24.67-4.66-1.66-7-1-10.34-18-4.33-18-4.33.67,9.33-3.33,11.33-23.67,0-30.67.67-45.66,26.33-47.66,28,1.33,11.33,6.66,13.33,35-12.66,35-12.66S240,211,241.33,213s-5.44,18.79-10.41,27.45C238.94,247.22,259.78,259.13,298.5,246.39Z" style="fill:#fff;stroke:#263238;stroke-linecap:round;stroke-linejoin:round"></path><path d="M217.54,167.41c-.9.53-1.8,1.08-2.71,1.63,1.61,6.29,4.31,14.71,8.37,21l2.73-1.27C221.83,182.58,219.09,173.7,217.54,167.41Z" style="fill:#263238"></path><path d="M218.36,192.23l2.82-1.26a123.18,123.18,0,0,1-11.44-18.79c-.86.54-1.72,1.07-2.56,1.61A124.56,124.56,0,0,0,218.36,192.23Z" style="fill:#263238"></path><path d="M232.2,191.34a216.88,216.88,0,0,1-4.65-29.63c-.92.48-1.88,1-2.87,1.56a220.21,220.21,0,0,0,3.64,24.37l2-1Z" style="fill:#263238"></path><path d="M239.13,222.39c-.33.92-.7,1.87-1.08,2.84a69.14,69.14,0,0,0,26.41,4.87,93.29,93.29,0,0,0,27.11-4.21l-.57-1.56s.19-.63.51-1.57C265.43,230.84,246.61,225.43,239.13,222.39Z" style="fill:#263238"></path><path d="M236,196.79a1.51,1.51,0,0,0-1.45.43c.35.84.7,1.7,1.05,2.56A201.71,201.71,0,0,0,278.94,205a110.8,110.8,0,0,0,21.27-1.89,22.91,22.91,0,0,0,.69-3.19C273.06,205.86,236.4,196.89,236,196.79Z" style="fill:#263238"></path><path d="M229.49,163.79a1.5,1.5,0,0,0,1.41,1.58l89.67,5.4a14,14,0,0,0-3-3.19l-86.49-5.2A1.51,1.51,0,0,0,229.49,163.79Z" style="fill:#263238"></path><path d="M240.05,210.33a25.23,25.23,0,0,0,1.28,2.67,1.83,1.83,0,0,1,.15,1,92.38,92.38,0,0,0,27.83,4.12,106.08,106.08,0,0,0,26.11-3.32,40,40,0,0,0,1.8-3.6C269.4,219,247.63,213,240.05,210.33Z" style="fill:#263238"></path><path d="M230.64,173.41a1.5,1.5,0,1,0-.16,3l81.81,4.39L315.7,178Z" style="fill:#263238"></path><path d="M295.68,238.09s0-.07,0-.09a24.89,24.89,0,0,0-.82-2.81,86.06,86.06,0,0,1-60-2.41c-.42.93-.85,1.83-1.28,2.71a89.06,89.06,0,0,0,62.15,2.6Z" style="fill:#263238"></path><path d="M274.7,188.26c-17.5,0-41.12-3.76-41.35-3.8a1.5,1.5,0,0,0-.48,3c.24,0,24.09,3.84,41.83,3.84,10.7,0,21-.31,27.53-.55a28.44,28.44,0,0,1,2.15-3.09C298.23,187.87,286.7,188.26,274.7,188.26Z" style="fill:#263238"></path><path d="M202.78,176.58c-7.46,4.79-13.36,8.8-14.11,9.42-2,1.67,1.33,11.33,6.66,13.33,2.76,1,12-2.37,20.29-5.92Z" style="fill:#999;stroke:#263238;stroke-linecap:round;stroke-linejoin:round"></path><path d="M218,243.85s-1.19-3.82-.24-4.3,2.15,3.34,2.15,3.34l2.86,3.1s1.2,2.15-1.43,2.15S218,243.85,218,243.85Z" style="fill:#999;stroke:#263238;stroke-linecap:round;stroke-linejoin:round"></path><path d="M216.28,246s-2.62-5.48-1.67-6,3.34,3.82,3.34,3.82l3.82,3.1Z" style="fill:#999;stroke:#263238;stroke-linecap:round;stroke-linejoin:round"></path><path d="M188.67,186s-5,4.33-5,7.67S224,234.91,224,234.91a7,7,0,0,0-2.34,4.66c0,2.67-.33,6-.33,6l-4.33-.66s-2.67-2.67-4-2.67,3.33,6,4,7,8.33.33,8.33.33,7.67-10,7.67-14.66-27.19-42.75-28.19-44.75" style="fill:#999;stroke:#263238;stroke-linecap:round;stroke-linejoin:round"></path><path d="M299.82,161.91c-5.32-.73-10-1.07-10.49-1.24-1-.34-1.66-7-1-10.34s-18-4.33-18-4.33.67,9.33-3.33,11.33c-1.52.76-5.3.94-9.78.92,1.27,7.8,2.8,21.69,16.45,23.42C291,183.87,298.49,169.88,299.82,161.91Z" style="fill:#999;stroke:#263238;stroke-linecap:round;stroke-linejoin:round"></path><path d="M266.4,117.29s-4.09-6-5.67-1.57,2.21,11.35,4.41,12S266.4,117.29,266.4,117.29Z" style="fill:#999;stroke:#263238;stroke-linecap:round;stroke-linejoin:round"></path><path d="M303.7,124.15s5.71-4.48,5.89.2-5.53,10.16-7.82,10.09S303.7,124.15,303.7,124.15Z" style="fill:#999;stroke:#263238;stroke-linecap:round;stroke-linejoin:round"></path><path d="M266.4,112.25s-1.57,16.08-1.57,21.12,6.93,16.39,10.4,19.54,8.51,3.47,16.7-2.21c2.93-2,9.14-10.71,10.4-15.76s4.73-16.7,4.73-26.79-4.73-17-15.76-18.27S269.24,92.71,266.4,112.25Z" style="fill:#999;stroke:#263238;stroke-linecap:round;stroke-linejoin:round"></path><path d="M291.3,89.88c-11-1.27-22.06,2.83-24.9,22.37,0,0-.08.85-.21,2.2,6.79-.13,23-1,36.77-6.61,0,0-.23,12.07,2.1,16.09a77,77,0,0,0,2-15.78C307.06,98.07,302.33,91.14,291.3,89.88Zm-18.91,22.69s6-5.68,25.53-5.68A78.29,78.29,0,0,1,272.39,112.57Z" style="fill:#263238;stroke:#263238;stroke-linecap:round;stroke-linejoin:round"></path><path d="M269.84,109.71s12.31-10.78,33.09-6.93" style="fill:none;stroke:#6b6b6b;stroke-linecap:round;stroke-linejoin:round"></path><path d="M272.92,100.47s18.08-9.61,30,0" style="fill:none;stroke:#6b6b6b;stroke-linecap:round;stroke-linejoin:round"></path><path d="M272.39,124.23s5.36-1.26,7.25,1.26" style="fill:none;stroke:#263238;stroke-linecap:round;stroke-linejoin:round;stroke-width:2px"></path><path d="M290.36,128s4.72-1.26,6.93,1.58" style="fill:none;stroke:#263238;stroke-linecap:round;stroke-linejoin:round;stroke-width:2px"></path><path d="M272.39,119.19s3.78-3.79,8.2-1" style="fill:none;stroke:#263238;stroke-linecap:round;stroke-linejoin:round"></path><path d="M292.56,121.71s5.05-3.15,7.25,3.15" style="fill:none;stroke:#263238;stroke-linecap:round;stroke-linejoin:round"></path><path d="M279.64,130.22s1.89,5,7.56,2.2" style="fill:none;stroke:#263238;stroke-linecap:round;stroke-linejoin:round"></path><path d="M276.16,138.48s.15,5.05,3.61,6.12c4.55,1.41,7.21-3.14,7.21-3.14S283.06,141.78,276.16,138.48Z" style="fill:#787878;stroke:#263238;stroke-linecap:round;stroke-linejoin:round"></path><path d="M275.07,137.54a24.37,24.37,0,0,0,6.11,3.45c3.14,1.1,7.52.32,7.52.32a13.1,13.1,0,0,1-4.07-1.1,4.28,4.28,0,0,0-2.82-.47s-1.41-1.57-2.67-1.57A28.11,28.11,0,0,1,275.07,137.54Z" style="fill:#595959;stroke:#263238;stroke-linecap:round;stroke-linejoin:round"></path><path d="M310.44,168.77s0,2.34-7.51,9.64-3.91,16.45-2.35,18.08a11.63,11.63,0,0,0,3.8,2.47l.42-3.74s.86,2.72,5.43,3.53,5.63-.81,3.14-4.59S311.32,184,313.12,181A24.92,24.92,0,0,1,317.2,176Z" style="fill:#92E3A9;stroke:#263238;stroke-linecap:round;stroke-linejoin:round"></path><path d="M314.65,135.06s-3.68,6.1-3.95,8.4,1.27,4.22,1.11,5.66-1.8,3-3.44,4.56-4.13,3-2.82,4.34a25.82,25.82,0,0,0,3.47,2.73s.33,3.28.83,6.63c.54,3.58,2.67,11.24,4.4,11.44s10.58-.83,14.65-3.28S338,170.16,340.4,164s5-13.12-3.74-23.44S317.84,130.65,314.65,135.06Z" style="fill:#fff;stroke:#263238;stroke-linecap:round;stroke-linejoin:round"></path><path d="M311.18,164a10.83,10.83,0,0,0,7.71-1.16s-2.92,4.05-4.74,4.05S311.18,164,311.18,164Z" style="fill:#fff;stroke:#263238;stroke-linecap:round;stroke-linejoin:round"></path><path d="M319.54,150.29c-.13,1.12-.81,2-1.53,1.87s-1.19-1-1.06-2.16.81-1.95,1.52-1.87S319.66,149.18,319.54,150.29Z" style="fill:#263238"></path><path d="M315.46,145.17s2.41-3.22,7.07-.65" style="fill:none;stroke:#263238;stroke-linecap:round;stroke-linejoin:round"></path><path d="M332.15,141.83s-1.62,21.95-5.42,32.3-5.17,17.18-2.39,18.37,4.39-2.71,4.39-2.71,2.56,10.78,11.21,14.1,8.63-1.64,8.63-1.64,3.16,3,11.6.45S371.52,190,372,186.27a60.26,60.26,0,0,0,.12-8.73s-1.44,2.46-5.76,2-11.17-6.81-11.17-6.81,4.67,0,5.47.63-5.49-7.09-5.49-7.09S337,142.38,332.15,141.83Z" style="fill:#92E3A9;stroke:#263238;stroke-linecap:round;stroke-linejoin:round"></path><path d="M336.92,151s-5.29,20-1.51,29.84" style="fill:none;stroke:#263238;stroke-linecap:round;stroke-linejoin:round"></path><path d="M341.83,154.81s-4.53,21.92,1.51,34,18.89,7.93,20,7.55" style="fill:none;stroke:#263238;stroke-linecap:round;stroke-linejoin:round"></path><path d="M349.55,162.48a15.57,15.57,0,0,0,6.64,18.4" style="fill:none;stroke:#263238;stroke-linecap:round;stroke-linejoin:round"></path><path d="M321,127.7s7.13-5.44,10.36-6.37,16.46-.47,18.61-1,8.66-.57,10.85,3.06.19,14.35.41,17,.14,10.18-1.29,13.66-2.79,6.2-2.79,6.2-6.75-11.71-16.84-19.12a134.36,134.36,0,0,0-19.49-11.85Z" style="fill:#263238;stroke:#263238;stroke-linecap:round;stroke-linejoin:round"></path><path d="M314.65,135.06s5.32-1,10.5,3.8,21.1,20.64,24.4,23.62a18.65,18.65,0,0,0,5.57,3.76s3.15-4.85,3.36-6.65-10.07-16.78-17.83-24.17-17.72-9.06-20.09-8.8S313.88,132.63,314.65,135.06Z" style="fill:#263238;stroke:#263238;stroke-linecap:round;stroke-linejoin:round"></path></g><g id="character-1"><path d="M200.87,220.76S205,220.44,205,223s-3.8,3.48-4.43,1.9S200.87,220.76,200.87,220.76Z" style="fill:#999;stroke:#263238;stroke-miterlimit:10"></path><path d="M201.21,217.3s4.11-.31,4.11,2.22-3.8,3.48-4.43,1.9S201.21,217.3,201.21,217.3Z" style="fill:#fff;stroke:#263238;stroke-miterlimit:10"></path><path d="M202,213.74s4.11-.32,4.11,2.22-3.8,3.48-4.43,1.9S202,213.74,202,213.74Z" style="fill:#999;stroke:#263238;stroke-miterlimit:10"></path><path d="M201.32,211.51s4.11-.31,4.11,2.22-3.79,3.48-4.43,1.9S201.32,211.51,201.32,211.51Z" style="fill:#999;stroke:#263238;stroke-miterlimit:10"></path><path d="M116.09,429.14s-.31,4.05-.31,5.92a22.17,22.17,0,0,0,.62,4.36h58.23s.31-3.43-3.12-6.85-14.32-6.23-17.12-6.23-11.83-7.47-13.39-8.4S116.09,429.14,116.09,429.14Z" style="fill:#92E3A9;stroke:#263238;stroke-linecap:round;stroke-linejoin:round"></path><path d="M116,437.33c.18,1.16.41,2.09.41,2.09h58.23s.31-3.43-3.12-6.85c-1.83-1.83-5.8-3.48-9.53-4.63a28,28,0,0,1-1.65,9.39Z" style="fill:#fff;stroke:#263238;stroke-linecap:round;stroke-linejoin:round"></path><path d="M136.33,279.39s-6.85,42.34-9,48.88-10,19.92-11.52,28.64-2.49,14-.93,18.06.62,36.74.62,36.74-1.25,9.34-.93,12.14.93,6.54.93,6.54a8.33,8.33,0,0,0,5.6.93c3.12-.62,8.72-4.67,8.72-4.67s9-4.67,10.59-6.85-.31-18.37-.31-25.84,3.11-40.78,5.29-45.45,8.72-22.42,13.08-43.9,7.55-31.37.93-44.53S137.26,263.82,136.33,279.39Z" style="fill:#263238;stroke:#263238;stroke-linecap:round;stroke-linejoin:round"></path><path d="M151.27,419.8S164,426,167.78,427.28s11.2,2.49,13.38,5.29,1.25,7.16,1.25,7.16h-54.8a18.62,18.62,0,0,1-.93-10C127.61,423.85,151.27,419.8,151.27,419.8Z" style="fill:#92E3A9;stroke:#263238;stroke-linecap:round;stroke-linejoin:round"></path><path d="M127.61,439.73h54.8s.93-4.36-1.25-7.16c-1.86-2.39-7.56-3.65-11.52-4.74v9.72H126.92A13,13,0,0,0,127.61,439.73Z" style="fill:#fff;stroke:#263238;stroke-linecap:round;stroke-linejoin:round"></path><path d="M126.6,239.69s-3,12.84-1.17,19.85S131,275,132.67,277.28s1.4,29.89,1.17,39-7,24.52-10.74,34.56,0,25.69,0,34.79-.24,14.71,0,20.09.7,11,.7,11a31.78,31.78,0,0,0-.7,4.44c-.24,2.57,2.33,3.73,2.33,3.73a24.46,24.46,0,0,1,.24,3.74,6.65,6.65,0,0,0,1.4,4s14-5.61,17.74-7.71,8.18-4.43,8.18-4.43a41.4,41.4,0,0,1,.23-7.24c.47-2.1-3-6.07-3-6.07s.24-12.61.47-17.52S160.23,352,163,333.33s8.64-42.27,10-56.28.7-35,.7-35.73-33.39-.93-36.43-1.4-9.81-1.87-9.81-1.87Z" style="fill:#263238;stroke:#263238;stroke-linecap:round;stroke-linejoin:round"></path><polygon points="173.53 211.2 191.05 213.3 191.28 223.34 174.94 224.04 173.53 211.2" style="fill:#999;stroke:#263238;stroke-miterlimit:10"></polygon><path d="M143.41,137.88s-4.2,2.1-4.9,5.14-11.68,14.71-14,22.88-1.4,24.29-.24,31.29,3,21,2.57,26.62-2.8,13.78-1.4,16.58,16.82,4.67,27.79,4.44,21,1.63,23.12-2.34.93-14.24.23-22.18S170,179.68,168.4,171s-5.37-14.71-8.64-19.85S147.62,138.35,143.41,137.88Z" style="fill:#92E3A9;stroke:#263238;stroke-linecap:round;stroke-linejoin:round"></path><path d="M172.36,87.43s5.25,4.59,7,9.39.22,9.18,1.75,11.37,4.15,3.71,4.59,6.12-3.06,3.49-3.06,3.49v2.84s1.31.44,1.31,1.32a4.88,4.88,0,0,1-1.09,2.18,3.49,3.49,0,0,1,.22,2.62,3,3,0,0,1-1.75,2,12.29,12.29,0,0,1-1.53,5c-1.31,2-5.24,3.06-8.3,3.06s-8.09-2-8.09-2-2.84,6.34-2.84,10.27.22,11.8.22,11.8-9.84-8.52-12.24-11.14a39.63,39.63,0,0,0-5.46-4.81s2-7.21.87-12.68-9.61-9.18-12.46-17.7-.65-20.32,8.09-26.22,19.89-6.78,25.35-6.12S177.82,84.37,172.36,87.43Z" style="fill:#999;stroke:#263238;stroke-linecap:round;stroke-linejoin:round"></path><path d="M172.36,87.43c5.46-3.06-2-8.53-7.43-9.18s-16.61.22-25.35,6.12-10.93,17.7-8.09,26.22c2.51,7.52,9.42,11.29,11.78,15.83,3.54-.71,3.71-3.38,3.3-6.43-.43-3.28,1.53-6.78,3.72-7.21s4.81-2,4.37-3.94-1.31-4.59.87-6.55,4.59-4.16,3.94-7.87-3.94-4.37.43-6.34S172.36,87.43,172.36,87.43Z" style="fill:#263238;stroke:#263238;stroke-linecap:round;stroke-linejoin:round"></path><path d="M179.79,104s-5.9-2.19-13.77.87c0,0-.22,9,5.25,9.18S181.1,113,179.79,104Z" style="fill:none;stroke:#263238;stroke-linecap:round;stroke-linejoin:round"></path><path d="M179.79,104s3.93,0,4.37.65.88,3.93-.44,5.25" style="fill:none;stroke:#263238;stroke-linecap:round;stroke-linejoin:round"></path><polygon points="166.02 104.91 147.23 111.47 147.45 112.34 157.72 108.84 159.47 109.28 166.06 107.82 166.02 104.91" style="fill:#263238;stroke:#263238;stroke-linecap:round;stroke-linejoin:round"></polygon><path d="M152,114.74a6.22,6.22,0,0,0-6.12-4.59c-5,0-3.72,6.78-2.41,9.62s4.81,6.12,8.31,3.5" style="fill:#999;stroke:#263238;stroke-linecap:round;stroke-linejoin:round"></path><path d="M169.33,102.62a9.86,9.86,0,0,1,6.54-1.87" style="fill:none;stroke:#263238;stroke-linecap:round;stroke-linejoin:round"></path><path d="M182.63,117.8s-2.32,2.33-4,.46-.93-2.8-.93-2.8" style="fill:none;stroke:#263238;stroke-linecap:round;stroke-linejoin:round"></path><path d="M173.54,124.57a5.81,5.81,0,0,0,3.26,4.2c3,1.64,6.23-.51,6.27-2a11.55,11.55,0,0,0-.22-2.62A17.54,17.54,0,0,1,173.54,124.57Z" style="fill:#787878;stroke:#263238;stroke-linecap:round;stroke-linejoin:round"></path><path d="M183.94,122c0-.88-1.31-1.32-1.31-1.32a46,46,0,0,1-4.42,2.29,13,13,0,0,1-6.08.7,31.16,31.16,0,0,0,5.14,1.64,7.52,7.52,0,0,0,5.58-1.13A4.88,4.88,0,0,0,183.94,122Z" style="fill:#595959;stroke:#263238;stroke-linecap:round;stroke-linejoin:round"></path><path d="M171.43,107.76a13.32,13.32,0,0,1,4.21-.7" style="fill:none;stroke:#263238;stroke-linecap:round;stroke-linejoin:round;stroke-width:2px"></path><path d="M126.83,234.09s14,16.81,16.82,20.08a50,50,0,0,1,4.9,7l2.34,3.5,4.9-9.8a61,61,0,0,1-3-7.94c-1.63-5.14-8.4-23.12-8.4-23.12S137.34,234.09,126.83,234.09Z" style="fill:#999;stroke:#263238;stroke-linecap:round;stroke-linejoin:round"></path><path d="M147.38,160.3a9.57,9.57,0,0,0-10.51,3c-4.67,5.37-6.3,9.81-7,14.95s-9.81,32.22-10.28,37.82,1.64,8.88,1.64,8.88a3.7,3.7,0,0,0,.47,4.67c2.1,2.57,3,2.8,3,2.8A4.34,4.34,0,0,0,126.6,235c1.4.7,8.64-.7,13.78-3.5s6.07-5.61,6.07-7.94a9,9,0,0,0-.7-3.74,7.14,7.14,0,0,1,0-2.57c.23-1.63-1.64-5.13-1.64-5.13s12.85-25.92,12.61-34.8" style="fill:#92E3A9;stroke:#263238;stroke-linecap:round;stroke-linejoin:round"></path><path d="M195.14,206.29a.93.93,0,0,1-.93-.86l-.61-7.23-7-6.4a.93.93,0,0,1,1.26-1.38l7.28,6.65a.92.92,0,0,1,.3.61l.64,7.6a1,1,0,0,1-.86,1Z" style="fill:#fff;stroke:#263238;stroke-miterlimit:10"></path><polygon points="201.26 231.62 188.85 231.62 186.53 205.67 203.59 205.67 201.26 231.62" style="fill:#92E3A9;stroke:#263238;stroke-linecap:round;stroke-linejoin:round"></polygon><rect x="185.56" y="204.09" width="18.99" height="4.75" style="fill:#fff;stroke:#263238;stroke-linecap:round;stroke-linejoin:round"></rect><path d="M186.91,211.37s-3.8-.32-3.8,1.9.63,7.91,3.16,8.23S187.86,215.8,186.91,211.37Z" style="fill:#999;stroke:#263238;stroke-miterlimit:10"></path></g><g id="Floor"><line x1="53" y1="439.73" x2="450" y2="439.73" style="fill:none;stroke:#263238;stroke-linecap:round;stroke-linejoin:round"></line></g></svg>