<svg xmlns="http://www.w3.org/2000/svg" viewBox="0 0 500 500"><g id="background-simple"><path d="M139.55,396.29s69.83,36.46,147.83,5,126-109,166.54-170.75,32-131.62-18.77-170S340.58,62,263,53.39s-96.8-22.6-167,12S-.35,201.55,39.52,284.92,139.55,396.29,139.55,396.29Z" style="fill:#92E3A9"></path><path d="M139.55,396.29s69.83,36.46,147.83,5,126-109,166.54-170.75,32-131.62-18.77-170S340.58,62,263,53.39s-96.8-22.6-167,12S-.35,201.55,39.52,284.92,139.55,396.29,139.55,396.29Z" style="fill:#fff;opacity:0.7000000000000001"></path></g><g id="Clouds"><path d="M389.11,99.26c.58-3.33,1.43-11.6-3.6-15.66-6.39-5.16-10.93,4.12-16.49-3.1s-7.22-22.88-23.71-22.67-17.73,9.48-17.73,12.57-4.95,5.36-6,5.36-6.8-2.68-8.86,3.3-.67,9.44-3.94,9.56-7.35-4.34-11.81-2.1-4.46,7-6.31,8.62-4.95-1.24-9.07.41a5,5,0,0,0-3.46,3.71Z" style="fill:#fff;stroke:#263238;stroke-linejoin:round"></path><path d="M297,95.59c4.46-2.23,8.53,2.24,11.81,2.11s1.88-3.58,3.94-9.56,7.83-3.3,8.86-3.3,6-2.27,6-5.36,1.24-12.37,17.73-12.58S363.45,82.36,369,89.58s10.1-2.06,16.49,3.09a10.85,10.85,0,0,1,3.62,6.43c.59-3.43,1.34-11.51-3.62-15.5-6.39-5.16-10.93,4.12-16.49-3.1s-7.22-22.88-23.71-22.67-17.73,9.48-17.73,12.57-4.95,5.36-6,5.36-6.8-2.68-8.86,3.3-.67,9.44-3.94,9.56-7.35-4.34-11.81-2.1-4.46,7-6.31,8.62-4.95-1.24-9.07.41a5,5,0,0,0-3.46,3.71H293.3A8.58,8.58,0,0,1,297,95.59Z" style="fill:#263238;stroke:#263238;stroke-linejoin:round"></path><path d="M136.25,138.31c.41-2.34,1-8.15-2.52-11-4.49-3.62-7.68,2.89-11.59-2.18s-5.07-16.07-16.65-15.93S93,115.87,93,118s-3.48,3.76-4.2,3.76-4.78-1.88-6.23,2.32-.47,6.63-2.77,6.72-5.16-3-8.29-1.48-3.13,4.9-4.43,6-3.48-.86-6.37.29a3.56,3.56,0,0,0-2.44,2.61Z" style="fill:#fff;stroke:#263238;stroke-linejoin:round"></path><path d="M71.55,135.73c3.13-1.57,6,1.57,8.29,1.48s1.32-2.52,2.77-6.72,5.5-2.31,6.23-2.31,4.2-1.6,4.2-3.77.86-8.69,12.45-8.83,12.74,10.86,16.65,15.93,7.1-1.45,11.59,2.17a7.68,7.68,0,0,1,2.54,4.51c.41-2.41.94-8.08-2.54-10.88-4.49-3.62-7.68,2.89-11.59-2.18s-5.07-16.07-16.65-15.93S93,115.87,93,118s-3.48,3.76-4.2,3.76-4.78-1.88-6.23,2.32-.47,6.63-2.77,6.72-5.16-3-8.29-1.48-3.13,4.9-4.43,6-3.48-.86-6.37.29a3.56,3.56,0,0,0-2.44,2.61H69A5.91,5.91,0,0,1,71.55,135.73Z" style="fill:#263238;stroke:#263238;stroke-linejoin:round"></path><path d="M214.26,85.37c.32-1.81.78-6.3-1.95-8.5-3.47-2.79-5.93,2.24-8.94-1.68s-3.92-12.4-12.86-12.29S180.9,68,180.9,69.72s-2.69,2.9-3.25,2.9-3.69-1.45-4.8,1.79-.36,5.12-2.14,5.19-4-2.36-6.4-1.15-2.42,3.79-3.43,4.68-2.68-.67-4.91.23a2.71,2.71,0,0,0-1.88,2Z" style="fill:#fff;stroke:#263238;stroke-linejoin:round"></path><path d="M164.31,83.38c2.42-1.22,4.62,1.21,6.4,1.14s1-1.94,2.14-5.19,4.24-1.79,4.8-1.79,3.25-1.22,3.25-2.9.67-6.71,9.61-6.82,9.84,8.38,12.86,12.3,5.47-1.12,8.94,1.67a5.87,5.87,0,0,1,2,3.49c.32-1.86.73-6.24-2-8.41-3.47-2.79-5.93,2.24-8.94-1.68s-3.92-12.4-12.86-12.29S180.9,68,180.9,69.72s-2.69,2.9-3.25,2.9-3.69-1.45-4.8,1.79-.36,5.12-2.14,5.19-4-2.36-6.4-1.15-2.42,3.79-3.43,4.68-2.68-.67-4.91.23a2.71,2.71,0,0,0-1.88,2h8.22A4.52,4.52,0,0,1,164.31,83.38Z" style="fill:#263238;stroke:#263238;stroke-linejoin:round"></path><path d="M417.33,139.8c.2-1.1.48-3.83-1.18-5.16-2.11-1.7-3.6,1.36-5.43-1s-2.38-7.53-7.81-7.47-5.83,3.13-5.83,4.14-1.63,1.77-2,1.77-2.24-.88-2.92,1.08-.22,3.11-1.3,3.15-2.42-1.43-3.88-.69-1.47,2.3-2.08,2.84-1.63-.41-3,.13a1.67,1.67,0,0,0-1.14,1.23Z" style="fill:#fff;stroke:#263238;stroke-linejoin:round"></path><path d="M387,138.59c1.46-.74,2.8.73,3.88.69s.62-1.18,1.3-3.15,2.58-1.08,2.92-1.08,2-.75,2-1.77.4-4.07,5.83-4.14,6,5.09,7.81,7.47,3.32-.68,5.43,1a3.58,3.58,0,0,1,1.19,2.11c.19-1.13.44-3.79-1.19-5.1-2.11-1.7-3.6,1.36-5.43-1s-2.38-7.53-7.81-7.47-5.83,3.13-5.83,4.14-1.63,1.77-2,1.77-2.24-.88-2.92,1.08-.22,3.11-1.3,3.15-2.42-1.43-3.88-.69-1.47,2.3-2.08,2.84-1.63-.41-3,.13a1.67,1.67,0,0,0-1.14,1.23h5A2.74,2.74,0,0,1,387,138.59Z" style="fill:#263238;stroke:#263238;stroke-linejoin:round"></path><path d="M355,81.94c.32-1.81.78-6.3-1.95-8.5-3.47-2.8-5.93,2.23-8.94-1.68s-3.92-12.41-12.86-12.29-9.61,5.14-9.61,6.81-2.69,2.91-3.25,2.91-3.69-1.45-4.8,1.79-.36,5.12-2.14,5.19-4-2.36-6.4-1.15-2.42,3.79-3.43,4.68-2.68-.67-4.91.22a2.71,2.71,0,0,0-1.88,2Z" style="fill:#fff;stroke:#263238;stroke-linejoin:round"></path><path d="M305,79.94c2.42-1.21,4.62,1.22,6.4,1.15s1-2,2.14-5.19,4.24-1.79,4.8-1.79,3.25-1.23,3.25-2.9.67-6.71,9.61-6.82,9.84,8.38,12.86,12.29,5.47-1.11,8.94,1.68a5.9,5.9,0,0,1,2,3.48c.32-1.86.73-6.23-2-8.4-3.47-2.8-5.93,2.23-8.94-1.68s-3.92-12.41-12.86-12.29-9.61,5.14-9.61,6.81-2.69,2.91-3.25,2.91-3.69-1.45-4.8,1.79-.36,5.12-2.14,5.19-4-2.36-6.4-1.15-2.42,3.79-3.43,4.68-2.68-.67-4.91.22a2.71,2.71,0,0,0-1.88,2H303A4.58,4.58,0,0,1,305,79.94Z" style="fill:#263238;stroke:#263238;stroke-linejoin:round"></path></g><g id="Explosion"><path d="M417.6,255.45a1.36,1.36,0,1,0,.19-1.92A1.36,1.36,0,0,0,417.6,255.45Z" style="fill:#263238;stroke:#263238;stroke-miterlimit:10"></path><path d="M411.85,260.19a1.56,1.56,0,0,0,2.41-2,1.55,1.55,0,0,0-2.19-.21A1.57,1.57,0,0,0,411.85,260.19Z" style="fill:#263238;stroke:#263238;stroke-miterlimit:10"></path><path d="M406.1,264.93a1.76,1.76,0,1,0,.24-2.48A1.76,1.76,0,0,0,406.1,264.93Z" style="fill:#263238;stroke:#263238;stroke-miterlimit:10"></path><path d="M400.35,269.67a2,2,0,1,0,.27-2.76A2,2,0,0,0,400.35,269.67Z" style="fill:#263238;stroke:#263238;stroke-miterlimit:10"></path><path d="M394.6,274.41a2.16,2.16,0,1,0,.3-3.05A2.17,2.17,0,0,0,394.6,274.41Z" style="fill:#263238;stroke:#263238;stroke-miterlimit:10"></path><path d="M349.35,316.84c1.56-1.57,1.65-2.5,2.16-2.92a3.72,3.72,0,0,1,.43-.26,3.71,3.71,0,0,0,2-.83,3.31,3.31,0,0,0,.49-.5,3.35,3.35,0,0,0,.44-.29c1-.84.55-2.45,2-2.47s3.38.64,4.15-.85c.55-1.06,1.12-3.15,1.89-4.67a3.33,3.33,0,0,0,2-.75,3.4,3.4,0,0,0,1.11-1.79,3.65,3.65,0,0,0,1.84-2.16.94.94,0,0,0,.06-.15,3.07,3.07,0,0,0,3.54-3.34c.64.22,1.31.23,2.44-.62a4.24,4.24,0,0,0,.93-.93,3,3,0,0,0,1-.54,2.94,2.94,0,0,0,.89-3.25c.49-.63.88-1.11,1.2-1.49a2.71,2.71,0,0,0,3.38,0,2.74,2.74,0,0,0,.48-3.69c.45-.43.93-.89,1.43-1.39a2.56,2.56,0,0,0,3.91-3.29,1.93,1.93,0,0,0-.28-.22l1.81-1.76a2.65,2.65,0,0,0,.26.5,2.37,2.37,0,1,0,.32-3.33,2.34,2.34,0,0,0-.65,2.7l-2,1.63a2.51,2.51,0,0,0-3.78,3l-1.83,1.4a2.73,2.73,0,0,0-4,3c-.67.48-1.28.91-1.83,1.28a2.89,2.89,0,0,0-3,.42,2.83,2.83,0,0,0-.94,1.56,2.9,2.9,0,0,0-1.55,2,1.12,1.12,0,0,1-.21.37,3.12,3.12,0,0,0-3,.5,3,3,0,0,0-1,1.73,4.89,4.89,0,0,1-.79,1c-.68.56-3.13,0-4.33,1s-2,3.4-3,3.93-3.19.63-4.13,2.27a6.9,6.9,0,0,0-.51,2.74,3.65,3.65,0,0,0-4.09,1.57A3.8,3.8,0,0,0,346,309a4.05,4.05,0,0,0-1,1.68,4,4,0,0,0-1.7.8,3.89,3.89,0,0,0-1.2,1.76,5.77,5.77,0,0,0-.84.47l.62.66a3.92,3.92,0,0,0,3.88,4.11l0,.06.38-.06a3.92,3.92,0,0,0,2.15-.89l0,0A5.25,5.25,0,0,0,349.35,316.84Z" style="fill:#263238;stroke:#263238;stroke-miterlimit:10"></path><path d="M399.59,344c0-21.77-17.43-39.58-39.57-41.26a40.41,40.41,0,0,0-3.88-8.66,29.13,29.13,0,0,0,2.08-10.74c0-16.6-14-30.06-31.21-30.06a31.27,31.27,0,0,0-3.22.16,43.84,43.84,0,0,0-73.17-2.79A44.43,44.43,0,0,0,214,249.17a31.39,31.39,0,0,0-27.5-15.86c-14.95,0-27.42,10.13-30.48,23.65a42.15,42.15,0,0,0-29.9,29.91c-.5,0-1-.07-1.5-.07-17.24,0-31.21,13.46-31.21,30.06a29.75,29.75,0,0,0,13.73,24.91,40.06,40.06,0,0,0-1.19,9.53c0,.27,0,.52,0,.79a39.83,39.83,0,0,0-4.46,18.26c0,22.88,19.26,41.43,43,41.43s43-18.55,43-41.43c0-.26,0-.52-.05-.78a39.71,39.71,0,0,0,.22-36.1,42.64,42.64,0,0,0,16-13.94,44,44,0,0,0,62.73-9.13,43.12,43.12,0,0,0,9.43,3.43c0,.26,0,.51,0,.76,0,17.58,11.38,32.56,27.41,38.58a40.06,40.06,0,0,0-4.34,18.06c0,22.88,19.25,41.42,43,41.42,22.33,0,40.68-16.4,42.79-37.38A40.68,40.68,0,0,0,399.59,344Z" style="fill:#263238;stroke:#263238;stroke-miterlimit:10"></path><path d="M241.23,144.9a1.89,1.89,0,1,0,0-3.77,1.89,1.89,0,0,0,0,3.77Z" style="fill:#263238;stroke:#263238;stroke-miterlimit:10"></path><path d="M241.2,155.25a2.17,2.17,0,1,0-2.16-2.18A2.17,2.17,0,0,0,241.2,155.25Z" style="fill:#263238;stroke:#263238;stroke-miterlimit:10"></path><path d="M241.16,165.59a2.45,2.45,0,1,0-2.43-2.45A2.43,2.43,0,0,0,241.16,165.59Z" style="fill:#263238;stroke:#263238;stroke-miterlimit:10"></path><path d="M241.13,175.94a2.73,2.73,0,1,0-2.71-2.73A2.73,2.73,0,0,0,241.13,175.94Z" style="fill:#263238;stroke:#263238;stroke-miterlimit:10"></path><path d="M241.09,186.28a3,3,0,1,0-3-3A3,3,0,0,0,241.09,186.28Z" style="fill:#263238;stroke:#263238;stroke-miterlimit:10"></path><path d="M246.31,272.24c-.29-3.06-1.21-4-1.21-4.9a4.48,4.48,0,0,1,.11-.68,5.18,5.18,0,0,0,.85-2.83,6.25,6.25,0,0,0-.09-1c0-.24.07-.49.07-.72,0-1.83-2.13-2.76-.91-4.28s3.69-3.05,2.78-5.2c-.65-1.52-2.37-4-3.31-6.16a4.57,4.57,0,0,0,1-2.8,4.65,4.65,0,0,0-.92-2.77A5.11,5.11,0,0,0,244,237l-.12-.2a4.23,4.23,0,0,0-.43-6.74c.8-.49,1.41-1.19,1.5-3.15a5.58,5.58,0,0,0-.17-1.83,4,4,0,0,0,.32-1.56,4.09,4.09,0,0,0-2.68-3.83c-.24-1.08-.41-1.92-.53-2.59a3.76,3.76,0,0,0-.55-7.43q-.09-1.29-.21-2.76a3.55,3.55,0,0,0-.06-7.09,2.73,2.73,0,0,0-.48.1c-.1-1.35-.2-2.55-.27-3.49a3.8,3.8,0,0,0,.76.16,3.28,3.28,0,1,0-3.27-3.29,3.25,3.25,0,0,0,2.31,3.09c0,.95,0,2.18-.08,3.64a3.49,3.49,0,0,0-.2,6.65l-.12,3.19a3.77,3.77,0,0,0-.38,7c-.08,1.15-.17,2.18-.26,3.1a3.9,3.9,0,0,0-1.36,5.93,4,4,0,0,0,.79,3.46,1.53,1.53,0,0,1,.21.56,4.16,4.16,0,0,0-1.2,6.29,6.44,6.44,0,0,1,.35,1.72c0,1.22-2.76,3.36-2.77,5.5s1.82,5.21,1.51,6.74-2.15,4-1.24,6.42c.49,1.34,1.71,2.14,2.47,3a5.22,5.22,0,0,0-2.2,4.22,5.11,5.11,0,0,0,.25,1.53,5.39,5.39,0,0,0-.87,3.51,5.74,5.74,0,0,0,1,2.51,5.33,5.33,0,0,0-.65,2.52,5.47,5.47,0,0,0,.81,2.85,6.88,6.88,0,0,0-.23,1.3l1.24-.07a5.44,5.44,0,0,0,7.83-.5h.11a3.5,3.5,0,0,0,.27-.45,5.39,5.39,0,0,0,1-3.09.22.22,0,0,0,0-.08A8.3,8.3,0,0,0,246.31,272.24Z" style="fill:#263238;stroke:#263238;stroke-miterlimit:10"></path><path d="M94.7,210.17a1.89,1.89,0,1,0-2.66-.29A1.89,1.89,0,0,0,94.7,210.17Z" style="fill:#92E3A9;stroke:#263238;stroke-miterlimit:10"></path><path d="M101.18,218.22a2.16,2.16,0,1,0-3-.33A2.16,2.16,0,0,0,101.18,218.22Z" style="fill:#92E3A9;stroke:#263238;stroke-miterlimit:10"></path><path d="M107.67,226.28a2.45,2.45,0,1,0-3.44-.37A2.45,2.45,0,0,0,107.67,226.28Z" style="fill:#92E3A9;stroke:#263238;stroke-miterlimit:10"></path><path d="M114.16,234.34a2.72,2.72,0,1,0-3.83-.41A2.73,2.73,0,0,0,114.16,234.34Z" style="fill:#92E3A9;stroke:#263238;stroke-miterlimit:10"></path><path d="M120.64,242.4a3,3,0,1,0-4.21-.46A3,3,0,0,0,120.64,242.4Z" style="fill:#92E3A9;stroke:#263238;stroke-miterlimit:10"></path><path d="M178.82,305.89c-2.15-2.19-3.45-2.33-4-3a3.82,3.82,0,0,1-.35-.6,5.12,5.12,0,0,0-1.12-2.73,4.94,4.94,0,0,0-.68-.69,7.15,7.15,0,0,0-.4-.61c-1.15-1.43-3.39-.8-3.4-2.76s.94-4.69-1.12-5.78c-1.46-.78-4.34-1.61-6.44-2.7a4.62,4.62,0,0,0-3.48-4.37,5.12,5.12,0,0,0-3-2.59c-.08,0-.15,0-.22-.08a4.37,4.37,0,0,0-.88-3.42,4.29,4.29,0,0,0-3.7-1.55c.31-.88.34-1.82-.82-3.4a5.91,5.91,0,0,0-1.28-1.31,4.22,4.22,0,0,0-.73-1.41,4.08,4.08,0,0,0-4.5-1.29c-.87-.68-1.53-1.23-2-1.68a3.76,3.76,0,0,0-5.11-5.42l-1.9-2a3.54,3.54,0,0,0-4.51-5.46,2.76,2.76,0,0,0-.31.37l-2.41-2.54a3.25,3.25,0,1,0-3.42-5.46,3.28,3.28,0,0,0-.5,4.61,3.23,3.23,0,0,0,3.74.94c.59.75,1.34,1.73,2.23,2.88a3.5,3.5,0,0,0,4,5.3l1.91,2.56a3.78,3.78,0,0,0,4.09,5.65c.66.94,1.24,1.8,1.75,2.57a4.07,4.07,0,0,0,.53,4.14,4,4,0,0,0,2.15,1.32,4,4,0,0,0,2.8,2.19,1.72,1.72,0,0,1,.51.3,4.17,4.17,0,0,0,3,5.65,6.22,6.22,0,0,1,1.36,1.11c.77.95,0,4.35,1.31,6s4.7,2.9,5.42,4.28.82,4.44,3.07,5.78c1.23.72,2.68.58,3.8.75a5.23,5.23,0,0,0,.95,4.67,5.64,5.64,0,0,0,1.16,1,5.35,5.35,0,0,0,1.53,3.27,5.83,5.83,0,0,0,2.32,1.35,5.52,5.52,0,0,0,1.09,2.36,5.37,5.37,0,0,0,2.42,1.71,8.74,8.74,0,0,0,.64,1.16l.92-.85a5.41,5.41,0,0,0,5.77-5.31l.08-.07a4.3,4.3,0,0,0-.07-.53,5.49,5.49,0,0,0-1.2-3l-.06-.06A7.71,7.71,0,0,0,178.82,305.89Z" style="fill:#92E3A9;stroke:#263238;stroke-miterlimit:10"></path><path d="M380.69,210.61a1.89,1.89,0,1,0-.41-2.64A1.89,1.89,0,0,0,380.69,210.61Z" style="fill:#92E3A9;stroke:#263238;stroke-miterlimit:10"></path><path d="M374.6,219a2.17,2.17,0,0,0,2.55-3.5,2.17,2.17,0,1,0-2.55,3.5Z" style="fill:#92E3A9;stroke:#263238;stroke-miterlimit:10"></path><path d="M368.5,227.32a2.44,2.44,0,1,0-.53-3.41A2.45,2.45,0,0,0,368.5,227.32Z" style="fill:#92E3A9;stroke:#263238;stroke-miterlimit:10"></path><path d="M362.4,235.68a2.72,2.72,0,1,0-.59-3.8A2.73,2.73,0,0,0,362.4,235.68Z" style="fill:#92E3A9;stroke:#263238;stroke-miterlimit:10"></path><path d="M356.31,244a3,3,0,1,0-.66-4.19A3,3,0,0,0,356.31,244Z" style="fill:#92E3A9;stroke:#263238;stroke-miterlimit:10"></path><path d="M310.1,316.71c1.56-2.65,1.36-3.93,1.9-4.67a4.47,4.47,0,0,1,.49-.5,5.2,5.2,0,0,0,2.34-1.78,4.56,4.56,0,0,0,.49-.85,6.13,6.13,0,0,0,.49-.54c1.08-1.48-.11-3.48,1.78-4s4.77-.31,5.29-2.58c.37-1.62.42-4.61.94-6.93a4.58,4.58,0,0,0,3.31-4.48,5.14,5.14,0,0,0,1.73-3.54,1.81,1.81,0,0,0,0-.23,4.35,4.35,0,0,0,3.07-1.75,4.3,4.3,0,0,0,.53-4c.93.07,1.85-.14,3.07-1.68a5.6,5.6,0,0,0,.93-1.58,4,4,0,0,0,1.18-1.07,4.09,4.09,0,0,0,.07-4.68c.44-1,.8-1.79,1.1-2.41a3.75,3.75,0,0,0,3.9-6.33c.46-.74.94-1.53,1.46-2.36a3.55,3.55,0,0,0,4.11-5.78,2.57,2.57,0,0,0-.45-.2l1.83-3a2.8,2.8,0,0,0,.52.57,3.27,3.27,0,1,0-.71-4.57,3.22,3.22,0,0,0,.05,3.85c-.57.76-1.31,1.74-2.2,2.9a3.5,3.5,0,0,0-4.07,5.27c-.65.84-1.3,1.68-2,2.52a3.77,3.77,0,0,0-4.39,5.42c-.74.88-1.42,1.66-2,2.35a4.05,4.05,0,0,0-3.86,1.6,3.94,3.94,0,0,0-.72,2.41,4.05,4.05,0,0,0-1.39,3.27,1.51,1.51,0,0,1-.16.57,4.16,4.16,0,0,0-4.66,4.39,6.58,6.58,0,0,1-.72,1.6c-.72,1-4.21,1.1-5.47,2.83s-1.59,5.28-2.73,6.34-4.08,1.95-4.78,4.47c-.38,1.38.13,2.73.25,3.86a5.2,5.2,0,0,0-4.25,2.13,5.34,5.34,0,0,0-.7,1.39,5.36,5.36,0,0,0-2.76,2.33,5.68,5.68,0,0,0-.69,2.59,5.33,5.33,0,0,0-3,4.44,8.36,8.36,0,0,0-1,.93l1.05.67a5.44,5.44,0,0,0,6.63,4.19l.1.05a4.49,4.49,0,0,0,.49-.2,5.43,5.43,0,0,0,2.58-1.94l.05-.07A7.44,7.44,0,0,0,310.1,316.71Z" style="fill:#92E3A9;stroke:#263238;stroke-miterlimit:10"></path><path d="M449.79,337.51a1.89,1.89,0,1,0,1.36-2.3A1.89,1.89,0,0,0,449.79,337.51Z" style="fill:#263238;stroke:#263238;stroke-miterlimit:10"></path><path d="M439.77,340.09a2.17,2.17,0,1,0,1.56-2.64A2.17,2.17,0,0,0,439.77,340.09Z" style="fill:#263238;stroke:#263238;stroke-miterlimit:10"></path><path d="M429.75,342.67a2.45,2.45,0,1,0,1.76-3A2.44,2.44,0,0,0,429.75,342.67Z" style="fill:#263238;stroke:#263238;stroke-miterlimit:10"></path><path d="M419.74,345.25a2.72,2.72,0,1,0,1.95-3.31A2.72,2.72,0,0,0,419.74,345.25Z" style="fill:#263238;stroke:#263238;stroke-miterlimit:10"></path><path d="M409.72,347.84a3,3,0,1,0,2.16-3.66A3,3,0,0,0,409.72,347.84Z" style="fill:#263238;stroke:#263238;stroke-miterlimit:10"></path><path d="M327.87,374.61c2.88-1.06,3.54-2.18,4.43-2.41a5.29,5.29,0,0,1,.69-.07,5.18,5.18,0,0,0,2.95.11,4.73,4.73,0,0,0,.91-.34,5.42,5.42,0,0,0,.72-.11c1.78-.46,2.13-2.76,3.92-2s3.88,2.8,5.72,1.37c1.32-1,3.26-3.29,5.13-4.75a4.65,4.65,0,0,0,3,.23,4.6,4.6,0,0,0,2.45-1.6,5.1,5.1,0,0,0,3.59-1.63l.16-.16a4.23,4.23,0,0,0,6.41-2.12c.68.65,1.51,1.06,3.44.65a5.44,5.44,0,0,0,1.72-.62,4.3,4.3,0,0,0,1.59-.08,4.11,4.11,0,0,0,3-3.57c1-.5,1.75-.88,2.37-1.16a3.76,3.76,0,0,0,7.05-2.41l2.61-.9a3.55,3.55,0,0,0,6.85-1.86,3.42,3.42,0,0,0-.21-.43l3.3-1.15a2.94,2.94,0,0,0,0,.78,3.28,3.28,0,1,0,2.36-4,3.23,3.23,0,0,0-2.41,3l-3.54.84a3.49,3.49,0,0,0-6.49,1.49l-3.12.69a3.77,3.77,0,0,0-6.84,1.39c-1.13.21-2.15.39-3.06.53a4.06,4.06,0,0,0-4-1.22,4,4,0,0,0-2.08,1.41,4,4,0,0,0-3.15,1.64,1.45,1.45,0,0,1-.49.34,4.17,4.17,0,0,0-6.39.43,7.05,7.05,0,0,1-1.57.78c-1.19.3-3.95-1.83-6-1.3s-4.58,3.08-6.14,3.17-4.39-1.09-6.53.41c-1.17.82-1.63,2.2-2.26,3.15a5.21,5.21,0,0,0-4.64-1.06,5.35,5.35,0,0,0-1.42.63,5.4,5.4,0,0,0-3.61,0,5.76,5.76,0,0,0-2.18,1.57,5.32,5.32,0,0,0-2.6,0,5.42,5.42,0,0,0-2.56,1.5,8.47,8.47,0,0,0-1.32.1l.39,1.19a5.42,5.42,0,0,0,2.46,7.45l0,.1s.19.07.51.15a5.45,5.45,0,0,0,3.23.15l.08,0A8.54,8.54,0,0,0,327.87,374.61Z" style="fill:#263238;stroke:#263238;stroke-miterlimit:10"></path><path d="M62.92,306.25a1.89,1.89,0,1,0-2.58.68A1.9,1.9,0,0,0,62.92,306.25Z" style="fill:#263238;stroke:#263238;stroke-miterlimit:10"></path><path d="M71.87,311.44a2.17,2.17,0,1,0-3,.78A2.16,2.16,0,0,0,71.87,311.44Z" style="fill:#263238;stroke:#263238;stroke-miterlimit:10"></path><path d="M80.81,316.63a2.44,2.44,0,1,0-3.34.89A2.44,2.44,0,0,0,80.81,316.63Z" style="fill:#263238;stroke:#263238;stroke-miterlimit:10"></path><path d="M89.76,321.82a2.72,2.72,0,1,0-3.72,1A2.72,2.72,0,0,0,89.76,321.82Z" style="fill:#263238;stroke:#263238;stroke-miterlimit:10"></path><path d="M98.71,327a3,3,0,1,0-4.1,1.09A3,3,0,0,0,98.71,327Z" style="fill:#263238;stroke:#263238;stroke-miterlimit:10"></path><path d="M175.81,365.39c-2.81-1.27-4.06-.93-4.85-1.4a4,4,0,0,1-.55-.43,5.13,5.13,0,0,0-2-2.14,4.79,4.79,0,0,0-.89-.41,7,7,0,0,0-.58-.42c-1.59-.92-3.46.47-4.17-1.36s-.8-4.71-3.12-5c-1.64-.2-4.63.06-7-.21a4.6,4.6,0,0,0-4.81-2.83,5.14,5.14,0,0,0-3.7-1.35,1.76,1.76,0,0,0-.23,0,4.34,4.34,0,0,0-2.06-2.87,4.27,4.27,0,0,0-4-.12c0-.94-.33-1.82-2-2.88a5.81,5.81,0,0,0-1.66-.76,4.2,4.2,0,0,0-1.19-1.06,4.08,4.08,0,0,0-4.66.42c-1.06-.33-1.87-.61-2.51-.84a3.76,3.76,0,0,0-6.71-3.23l-2.5-1.2a3.54,3.54,0,0,0-6.17-3.48,2.8,2.8,0,0,0-.16.46l-3.16-1.5a3.24,3.24,0,1,0-4,.6,3.24,3.24,0,0,0,3.83-.45l3.11,1.88a3.5,3.5,0,0,0,5.67,3.5l2.7,1.7a3.82,3.82,0,0,0,1.82,4,3.78,3.78,0,0,0,4-.16c1,.65,1.81,1.24,2.55,1.78a4.06,4.06,0,0,0,2,3.67,4,4,0,0,0,2.48.46,4,4,0,0,0,3.39,1,1.59,1.59,0,0,1,.59.1,4.34,4.34,0,0,0,2.11,3.7,4.27,4.27,0,0,0,2.74.48,7.06,7.06,0,0,1,1.67.55c1.06.62,1.53,4.07,3.38,5.15s5.42,1,6.59,2.05,2.37,3.85,4.95,4.29c1.41.24,2.7-.42,3.81-.66a5.18,5.18,0,0,0,2.56,4,5.09,5.09,0,0,0,1.46.55,5.34,5.34,0,0,0,2.6,2.51,5.76,5.76,0,0,0,2.65.42,5.32,5.32,0,0,0,4.73,2.54,8.29,8.29,0,0,0,1,.85l.56-1.12a5.43,5.43,0,0,0,3.47-7l.05-.1s-.09-.18-.26-.46a5.43,5.43,0,0,0-2.19-2.37l-.08,0A8.29,8.29,0,0,0,175.81,365.39Z" style="fill:#263238;stroke:#263238;stroke-miterlimit:10"></path><path d="M374.08,355c0-18.14-14.53-33-33-34.38a33.27,33.27,0,0,0-3.24-7.22,24.06,24.06,0,0,0,1.74-8.95c0-13.83-11.64-25.05-26-25.05-.9,0-1.8.05-2.68.13a36.54,36.54,0,0,0-61-2.32A37,37,0,0,0,219.4,276a26.15,26.15,0,0,0-22.92-13.22c-12.46,0-22.85,8.44-25.4,19.71a35.14,35.14,0,0,0-24.92,24.93c-.41,0-.82-.06-1.25-.06-14.36,0-26,11.21-26,25.05a24.81,24.81,0,0,0,11.44,20.76,33.53,33.53,0,0,0-1,7.94c0,.22,0,.43,0,.65a33.32,33.32,0,0,0-3.7,15.22c0,19.07,16,34.53,35.83,34.53s35.83-15.46,35.83-34.53c0-.22,0-.43,0-.65a33.06,33.06,0,0,0,.18-30.08,35.49,35.49,0,0,0,13.35-11.62,36.68,36.68,0,0,0,52.27-7.6,36.66,36.66,0,0,0,7.86,2.86c0,.21,0,.42,0,.63,0,14.65,9.48,27.13,22.84,32.15a33.34,33.34,0,0,0-3.62,15c0,19.07,16.05,34.53,35.84,34.53,18.61,0,33.9-13.67,35.65-31.16A33.92,33.92,0,0,0,374.08,355Z" style="fill:#7a7a7a;stroke:#263238;stroke-miterlimit:10"></path><path d="M348.92,378.24c12.35-2.39,21.08-11,19.49-19.23s-12.89-13-25.25-10.6a32.55,32.55,0,0,0-7.69,2.49,17.37,17.37,0,0,0-2.53-5.12,33.07,33.07,0,0,0,6.63-5.14c8.89-8.91,11.29-20.93,5.35-26.86s-17.95-3.52-26.85,5.39l-.23.25c0-4.51-1.47-8.42-4.58-10.76-3.48-2.62-8.27-2.77-13.13-.92-1.47-5-4.49-8.72-8.69-9.9-6.11-1.72-12.92,2.43-17.35,9.8-4.89.62-10.25,3.56-14.71,8.33,2.28-11.87-2.09-22.73-10-24.51-7.58-1.69-15.73,5.44-19.08,16.25-4.43-7.41-11.26-11.59-17.39-9.87-7.37,2.07-11.15,12-9.16,22.91a10.81,10.81,0,0,0-3,.38c-3.52,1-6.22,3.76-7.87,7.57a31.59,31.59,0,0,0-6.61-9.53c-8.89-8.91-20.91-11.32-26.85-5.39s-3.54,18,5.35,26.86a33.07,33.07,0,0,0,6.63,5.14,17.62,17.62,0,0,0-2.53,5.12,32.55,32.55,0,0,0-7.69-2.49C148.8,346,137.49,350.77,135.9,359s7.14,16.84,19.5,19.23c1.07.21,2.13.34,3.18.44-8.21,2.3-14,7.71-14,14,0,8.39,10.21,15.19,22.79,15.19a32.74,32.74,0,0,0,8.52-1.11A28.59,28.59,0,0,0,195.24,414c13.38,0,24.41-8.45,26.09-19.39,1.08.09,2.17.15,3.28.15a38.33,38.33,0,0,0,26.07-9.93,39.76,39.76,0,0,0,13.43,2.33c.93,0,1.84-.06,2.75-.12,4.47,9.79,14,17.19,25.7,19.56a39.91,39.91,0,0,0,34.58-.16,32.49,32.49,0,0,0,9.78,1.48c12.59,0,22.79-6.8,22.79-15.19,0-6.22-5.62-11.55-13.64-13.9a.92.92,0,0,1,0-.16C347,378.54,348,378.42,348.92,378.24ZM191.6,346c.11-.1.19-.23.3-.34.08.38.18.76.28,1.14-.09.16-.17.32-.26.47-.25-.3-.51-.6-.77-.88A5.46,5.46,0,0,0,191.6,346Zm-18.55,30.43c.4.61.82,1.2,1.26,1.76h0a32.44,32.44,0,0,0-4.17-.6A19.54,19.54,0,0,0,173.05,376.45Z" style="fill:#dbdbdb"></path><path d="M179.87,348.47a32.18,32.18,0,0,1,17.81-6.25,27.3,27.3,0,1,0-28.92,43.69A32.33,32.33,0,0,1,179.87,348.47Z" style="fill:#92E3A9;stroke:#263238;stroke-miterlimit:10"></path><path d="M227.22,327.7a15.34,15.34,0,0,1,8.59,2.62A13,13,0,1,0,212.39,339,15.42,15.42,0,0,1,227.22,327.7Z" style="fill:#92E3A9;stroke:#263238;stroke-miterlimit:10"></path><path d="M198,293.73a15.37,15.37,0,0,1,8.6,2.62A13,13,0,1,0,183.16,305,15.4,15.4,0,0,1,198,293.73Z" style="fill:#92E3A9;stroke:#263238;stroke-miterlimit:10"></path><path d="M276.83,288.18a15.3,15.3,0,0,1,6.09,6.61,13,13,0,0,0-22.87-12.36,12.85,12.85,0,0,0-1.69,7.93A15.39,15.39,0,0,1,276.83,288.18Z" style="fill:#92E3A9;stroke:#263238;stroke-miterlimit:10"></path><path d="M251.71,330.86a15.4,15.4,0,0,1,8.6,2.62,13,13,0,1,0-23.42,8.63A15.4,15.4,0,0,1,251.71,330.86Z" style="fill:#92E3A9;stroke:#263238;stroke-miterlimit:10"></path><path d="M243.14,316.87a15.34,15.34,0,0,1,6.75,5.93A13,13,0,1,0,225,321,15.41,15.41,0,0,1,243.14,316.87Z" style="fill:#92E3A9;stroke:#263238;stroke-miterlimit:10"></path><path d="M230.92,285.12a15.36,15.36,0,0,1,6.76,5.93,13,13,0,1,0-24.89-1.77A15.39,15.39,0,0,1,230.92,285.12Z" style="fill:#92E3A9;stroke:#263238;stroke-miterlimit:10"></path><path d="M369.94,339.12A20.3,20.3,0,0,1,368.75,351a17.23,17.23,0,1,0-17.26-28.2A20.4,20.4,0,0,1,369.94,339.12Z" style="fill:#92E3A9;stroke:#263238;stroke-miterlimit:10"></path><path d="M347.28,381.88a20.35,20.35,0,0,1-6.71,9.83,17.23,17.23,0,1,0-1.67-33A20.4,20.4,0,0,1,347.28,381.88Z" style="fill:#92E3A9;stroke:#263238;stroke-miterlimit:10"></path><path d="M296.6,273.69a20.32,20.32,0,0,1,6.27,10.12A17.23,17.23,0,1,0,272,271.93,20.41,20.41,0,0,1,296.6,273.69Z" style="fill:#92E3A9;stroke:#263238;stroke-miterlimit:10"></path><path d="M132.86,364.38a20.35,20.35,0,0,1,7.66-9.12,17.23,17.23,0,1,0-1.63,33A20.43,20.43,0,0,1,132.86,364.38Z" style="fill:#92E3A9;stroke:#263238;stroke-miterlimit:10"></path><path d="M147.75,324.41a15.28,15.28,0,0,1,8.63-2.52,13,13,0,1,0-14.86,20.05A15.39,15.39,0,0,1,147.75,324.41Z" style="fill:#92E3A9;stroke:#263238;stroke-miterlimit:10"></path><path d="M272.28,345.44a15.28,15.28,0,0,1,3.91,8.09A13,13,0,1,0,254,342.18,15.4,15.4,0,0,1,272.28,345.44Z" style="fill:#92E3A9;stroke:#263238;stroke-miterlimit:10"></path><path d="M312.82,334.32a32.22,32.22,0,0,1,8.2,17,27.3,27.3,0,1,0-46.66-23.83A32.34,32.34,0,0,1,312.82,334.32Z" style="fill:#92E3A9;stroke:#263238;stroke-miterlimit:10"></path><path d="M147.11,216.83a1.36,1.36,0,1,0-1.81-.63A1.35,1.35,0,0,0,147.11,216.83Z" style="fill:#92E3A9;stroke:#263238;stroke-miterlimit:10"></path><path d="M150.36,223.54a1.56,1.56,0,1,0-2.09-.73A1.57,1.57,0,0,0,150.36,223.54Z" style="fill:#92E3A9;stroke:#263238;stroke-miterlimit:10"></path><path d="M153.6,230.24a1.76,1.76,0,1,0-2.35-.81A1.76,1.76,0,0,0,153.6,230.24Z" style="fill:#92E3A9;stroke:#263238;stroke-miterlimit:10"></path><path d="M156.85,237a2,2,0,1,0-2.62-.91A2,2,0,0,0,156.85,237Z" style="fill:#92E3A9;stroke:#263238;stroke-miterlimit:10"></path><path d="M160.09,243.66a2.16,2.16,0,1,0-2.89-1A2.16,2.16,0,0,0,160.09,243.66Z" style="fill:#92E3A9;stroke:#263238;stroke-miterlimit:10"></path><path d="M190.61,297.67c-1.16-1.89-2-2.19-2.33-2.79a4,4,0,0,1-.15-.48,3.65,3.65,0,0,0-.34-2.09,3,3,0,0,0-.37-.6c-.06-.17-.11-.34-.18-.49-.57-1.19-2.25-1.12-1.94-2.49s1.43-3.14.16-4.24c-.9-.78-2.79-1.83-4.09-2.94a3.27,3.27,0,0,0-1.73-3.63,3.64,3.64,0,0,0-1.66-2.3l-.13-.1a3.17,3.17,0,0,0-.07-2.54,3.08,3.08,0,0,0-2.34-1.68,2.4,2.4,0,0,0,0-2.52,4.12,4.12,0,0,0-.68-1.13,2.82,2.82,0,0,0-.29-1.11,2.92,2.92,0,0,0-2.94-1.63c-.5-.63-.88-1.12-1.16-1.51a2.71,2.71,0,0,0-2.71-4.64l-1-1.72a2.55,2.55,0,0,0-2.28-4.57,1.86,1.86,0,0,0-.28.21l-1.28-2.17a2.52,2.52,0,0,0,.54-.14,2.48,2.48,0,1,0-.68.18l1.1,2.38a2.53,2.53,0,0,0-.59,3,2.55,2.55,0,0,0,2.56,1.41l.93,2.1A2.73,2.73,0,0,0,168.6,264c.31.76.58,1.46.81,2.08a2.94,2.94,0,0,0-.3,3,2.85,2.85,0,0,0,1.3,1.27,2.88,2.88,0,0,0,1.6,2,1,1,0,0,1,.31.3,3.1,3.1,0,0,0-.23,3.05,3.05,3.05,0,0,0,1.44,1.4,4.72,4.72,0,0,1,.77,1c.39.79-.73,3.05-.06,4.44s2.83,2.8,3.11,3.88-.14,3.26,1.22,4.56a6.82,6.82,0,0,0,2.54,1.14,3.63,3.63,0,0,0,.56,4.34,3.82,3.82,0,0,0,.54,2.55,4.15,4.15,0,0,0,1.41,1.32,3.88,3.88,0,0,0,.38,1.84,4.05,4.05,0,0,0,1.42,1.59,5.77,5.77,0,0,0,.27.92l.78-.45a3.9,3.9,0,0,0,4.91-2.79l.07,0s0-.15,0-.38a3.94,3.94,0,0,0-.35-2.3l0-.06A6.73,6.73,0,0,0,190.61,297.67Z" style="fill:#92E3A9;stroke:#263238;stroke-miterlimit:10"></path><path d="M115.6,286.51a1,1,0,1,0-1.48.08A1,1,0,0,0,115.6,286.51Z" style="fill:#92E3A9;stroke:#263238;stroke-miterlimit:10"></path><path d="M119.85,290.34a1.2,1.2,0,1,0-1.69.09A1.19,1.19,0,0,0,119.85,290.34Z" style="fill:#92E3A9;stroke:#263238;stroke-miterlimit:10"></path><path d="M124.11,294.17a1.35,1.35,0,1,0-1.91.1A1.36,1.36,0,0,0,124.11,294.17Z" style="fill:#92E3A9;stroke:#263238;stroke-miterlimit:10"></path><path d="M128.36,298a1.51,1.51,0,1,0-2.12.11A1.5,1.5,0,0,0,128.36,298Z" style="fill:#92E3A9;stroke:#263238;stroke-miterlimit:10"></path><path d="M132.62,301.84a1.66,1.66,0,1,0-2.35.12A1.66,1.66,0,0,0,132.62,301.84Z" style="fill:#92E3A9;stroke:#263238;stroke-miterlimit:10"></path><path d="M170,331.42a18.31,18.31,0,0,0-2.47-1.31,2.22,2.22,0,0,1-.24-.3,2.82,2.82,0,0,0-.85-1.39,2.24,2.24,0,0,0-.44-.32,3.85,3.85,0,0,0-.27-.3c-.75-.68-1.92-.14-2.1-1.21s.1-2.64-1.12-3.06c-.87-.29-2.51-.49-3.76-.91a2.56,2.56,0,0,0-2.28-2.08,2.8,2.8,0,0,0-1.85-1.15l-.13,0a2.34,2.34,0,0,0-2.93-2.31c.09-.51,0-1-.75-1.78a3.29,3.29,0,0,0-.82-.61,2.21,2.21,0,0,0-.52-.7,2.25,2.25,0,0,0-2.57-.31c-.54-.3-1-.54-1.27-.74a2.08,2.08,0,0,0-3.26-2.51l-1.22-.94a2,2,0,0,0-3-2.59c-.06.07-.08.16-.14.23l-1.54-1.17a1.77,1.77,0,0,0,.35-.26,1.81,1.81,0,1,0-2.56.13,1.78,1.78,0,0,0,2.13.19l1.47,1.38a1.93,1.93,0,0,0,2.67,2.54l1.27,1.23a2.09,2.09,0,0,0,2.74,2.73c.44.45.83.87,1.17,1.25a2.17,2.17,0,0,0,2,2.75,2.25,2.25,0,0,0,1.72.95.65.65,0,0,1,.31.12,2.39,2.39,0,0,0,.72,2.24,2.44,2.44,0,0,0,1.43.58,4.08,4.08,0,0,1,.84.48c.5.46.36,2.38,1.24,3.18s2.82,1.17,3.34,1.86.84,2.36,2.19,2.89a5.4,5.4,0,0,0,2.14.08,2.87,2.87,0,0,0,.93,2.46,2.56,2.56,0,0,0,.73.46,2.89,2.89,0,0,0,1.12,1.66,3.21,3.21,0,0,0,1.39.53,2.85,2.85,0,0,0,.8,1.19,3,3,0,0,0,1.47.72,4.58,4.58,0,0,0,.46.58l.42-.54a3.06,3.06,0,0,0,1.95-1,3,3,0,0,0,.74-2.43l0,0s0-.11-.09-.28a3.09,3.09,0,0,0-.92-1.54l0,0A4,4,0,0,0,170,331.42Z" style="fill:#92E3A9;stroke:#263238;stroke-miterlimit:10"></path><path d="M278.65,211.12a1,1,0,1,0-.93-1.14A1,1,0,0,0,278.65,211.12Z" style="fill:#92E3A9;stroke:#263238;stroke-miterlimit:10"></path><path d="M278.07,216.82a1.2,1.2,0,0,0,1.32-1.07,1.2,1.2,0,1,0-2.39-.24A1.2,1.2,0,0,0,278.07,216.82Z" style="fill:#92E3A9;stroke:#263238;stroke-miterlimit:10"></path><path d="M277.5,222.52a1.36,1.36,0,1,0-1.21-1.49A1.36,1.36,0,0,0,277.5,222.52Z" style="fill:#92E3A9;stroke:#263238;stroke-miterlimit:10"></path><path d="M276.92,228.21a1.5,1.5,0,1,0,.3-3,1.5,1.5,0,1,0-.3,3Z" style="fill:#92E3A9;stroke:#263238;stroke-miterlimit:10"></path><path d="M276.34,233.91a1.66,1.66,0,1,0-1.49-1.82A1.66,1.66,0,0,0,276.34,233.91Z" style="fill:#92E3A9;stroke:#263238;stroke-miterlimit:10"></path><path d="M274.56,281.55a18,18,0,0,0-.4-2.77,3,3,0,0,1,.1-.37,2.92,2.92,0,0,0,.62-1.51,2.44,2.44,0,0,0,0-.54A3,3,0,0,0,275,276c.1-1-1-1.64-.27-2.41s2.2-1.48,1.81-2.71c-.27-.88-1.09-2.33-1.49-3.57a2.58,2.58,0,0,0,.69-1.5,2.53,2.53,0,0,0-.36-1.58,2.78,2.78,0,0,0-.16-2.17l-.05-.12a2.35,2.35,0,0,0,.13-3.73c.46-.23.84-.59,1-1.66a2.85,2.85,0,0,0,0-1,2.41,2.41,0,0,0,.26-.85,2.25,2.25,0,0,0-1.27-2.25c-.08-.61-.12-1.08-.15-1.46a2.08,2.08,0,0,0,1.83-1.85,2.11,2.11,0,0,0-1.73-2.27q0-.72,0-1.53a2,2,0,0,0,.35-3.91,1.24,1.24,0,0,0-.27,0c0-.75,0-1.42,0-1.94a1.79,1.79,0,0,0,.41.13,1.92,1.92,0,1,0-.52-.16c-.06.52-.14,1.2-.24,2a1.94,1.94,0,0,0-1.58,1.7,2,2,0,0,0,1.11,1.95l-.24,1.75a2.12,2.12,0,0,0-1.58,1.83,2.07,2.07,0,0,0,1,2c-.11.63-.22,1.19-.32,1.69a2.28,2.28,0,0,0-1.4,1.84,2.2,2.2,0,0,0,.34,1.36,2.23,2.23,0,0,0,.25,1.95.89.89,0,0,1,.08.32,2.31,2.31,0,0,0-1,3.4,4.1,4.1,0,0,1,.1,1c-.07.68-1.7,1.7-1.82,2.88s.72,3,.46,3.8-1.4,2.07-1,3.47a5.22,5.22,0,0,0,1.2,1.77,2.89,2.89,0,0,0-1.44,2.21,2.75,2.75,0,0,0,.06.86,2.93,2.93,0,0,0-.67,1.88,3.08,3.08,0,0,0,.39,1.43,3,3,0,0,0-.49,1.36,2.94,2.94,0,0,0,.29,1.61,4.06,4.06,0,0,0-.2.71l.69,0a3,3,0,0,0,4.34.15h.06a2.43,2.43,0,0,0,.17-.23,3,3,0,0,0,.7-1.65v0A4.63,4.63,0,0,0,274.56,281.55Z" style="fill:#92E3A9;stroke:#263238;stroke-miterlimit:10"></path><path d="M197.37,150.84a1.53,1.53,0,1,0-1.72-1.31A1.53,1.53,0,0,0,197.37,150.84Z" style="fill:#92E3A9;stroke:#263238;stroke-miterlimit:10"></path><path d="M198.52,159.15a1.76,1.76,0,1,0-2-1.5A1.76,1.76,0,0,0,198.52,159.15Z" style="fill:#92E3A9;stroke:#263238;stroke-miterlimit:10"></path><path d="M199.66,167.47a2,2,0,1,0-2.24-1.7A2,2,0,0,0,199.66,167.47Z" style="fill:#92E3A9;stroke:#263238;stroke-miterlimit:10"></path><path d="M200.8,175.78a2.21,2.21,0,1,0-2.49-1.89A2.22,2.22,0,0,0,200.8,175.78Z" style="fill:#92E3A9;stroke:#263238;stroke-miterlimit:10"></path><path d="M201.94,184.09A2.43,2.43,0,1,0,199.2,182,2.43,2.43,0,0,0,201.94,184.09Z" style="fill:#92E3A9;stroke:#263238;stroke-miterlimit:10"></path><path d="M215.84,252.57c-.58-2.43-1.42-3.07-1.52-3.8a3.74,3.74,0,0,1,0-.57,4.18,4.18,0,0,0,.36-2.36,4.8,4.8,0,0,0-.18-.77,5.54,5.54,0,0,0,0-.59c-.2-1.47-2-2-1.21-3.34s2.62-2.87,1.64-4.49c-.69-1.15-2.35-2.93-3.35-4.57a3.74,3.74,0,0,0-.59-4.49,4.16,4.16,0,0,0-1-3l-.11-.15a3.54,3.54,0,0,0,.81-2.74,3.48,3.48,0,0,0-1.92-2.62c.58-.49,1-1.12.85-2.71a4.79,4.79,0,0,0-.35-1.45,3.22,3.22,0,0,0,.09-1.28,3.31,3.31,0,0,0-2.59-2.78c-.32-.84-.55-1.5-.72-2a3.05,3.05,0,0,0-1.28-5.91l-.48-2.19a2.88,2.88,0,0,0-.85-5.69,2,2,0,0,0-.37.13c-.24-1.07-.45-2-.62-2.77a2.44,2.44,0,1,0-.16,0l.35,2.93a2.83,2.83,0,0,0,.59,5.37c.09.85.17,1.71.26,2.58a3.06,3.06,0,0,0,.48,5.64c.07.93.11,1.77.14,2.52a3.18,3.18,0,0,0-.42,4.92,3.28,3.28,0,0,0,1,2.69,1.09,1.09,0,0,1,.23.42,3.39,3.39,0,0,0-.26,5.19,5.24,5.24,0,0,1,.48,1.34c.14,1-1.84,3-1.6,4.73s2.05,4,2,5.25-1.28,3.43-.27,5.3a7.77,7.77,0,0,0,2.32,2.11A4.22,4.22,0,0,0,206.3,247a4,4,0,0,0,.38,1.2,4.31,4.31,0,0,0-.31,2.92,4.58,4.58,0,0,0,1.06,1.9,4.32,4.32,0,0,0,.73,4.3,6.76,6.76,0,0,0,0,1.08l1-.21a4.41,4.41,0,0,0,6.24-1.28l.08,0a3.59,3.59,0,0,0,.17-.39,4.47,4.47,0,0,0,.43-2.59.19.19,0,0,1,0-.07A6.44,6.44,0,0,0,215.84,252.57Z" style="fill:#92E3A9;stroke:#263238;stroke-miterlimit:10"></path><path d="M347.38,273.82a.77.77,0,1,0-.14-1.08A.78.78,0,0,0,347.38,273.82Z" style="fill:#92E3A9;stroke:#263238;stroke-miterlimit:10"></path><path d="M344.8,277.16a.88.88,0,1,0-.16-1.24A.9.9,0,0,0,344.8,277.16Z" style="fill:#92E3A9;stroke:#263238;stroke-miterlimit:10"></path><path d="M342.22,280.5a1,1,0,0,0,1.4-.18A1,1,0,0,0,342,279.1,1,1,0,0,0,342.22,280.5Z" style="fill:#92E3A9;stroke:#263238;stroke-miterlimit:10"></path><path d="M339.64,283.83a1.11,1.11,0,1,0-.2-1.55A1.1,1.1,0,0,0,339.64,283.83Z" style="fill:#92E3A9;stroke:#263238;stroke-miterlimit:10"></path><path d="M337.07,287.17a1.21,1.21,0,0,0,1.71-.22,1.22,1.22,0,1,0-1.71.22Z" style="fill:#92E3A9;stroke:#263238;stroke-miterlimit:10"></path><path d="M317.41,316.28a15.19,15.19,0,0,0,.83-1.89,1.92,1.92,0,0,1,.2-.19,2.2,2.2,0,0,0,1-.71,2.3,2.3,0,0,0,.21-.33l.2-.22c.46-.59,0-1.42.77-1.61s1.95-.07,2.19-1c.17-.66.22-1.88.46-2.82a1.85,1.85,0,0,0,1.4-1.79,2.1,2.1,0,0,0,.75-1.42.28.28,0,0,1,0-.09,1.76,1.76,0,0,0,1.27-.68,1.74,1.74,0,0,0,.26-1.61c.38,0,.75,0,1.27-.65a2.28,2.28,0,0,0,.4-.63,1.81,1.81,0,0,0,.49-.43,1.66,1.66,0,0,0,.08-1.9c.19-.41.35-.73.48-1a1.53,1.53,0,0,0,1.86-.44,1.56,1.56,0,0,0-.2-2.1l.62-.95a1.44,1.44,0,0,0,2-.27,1.46,1.46,0,0,0-.26-2,1.42,1.42,0,0,0-.18-.08l.78-1.2a1.17,1.17,0,0,0,.21.24,1.33,1.33,0,0,0,1.63-2.11,1.32,1.32,0,0,0-1.89,1.81c-.25.3-.56.69-.93,1.16a1.42,1.42,0,0,0-1.72,2.1l-.83,1a1.54,1.54,0,0,0-1.86,2.16l-.85.94a4.38,4.38,0,0,0-2.51,2.9.57.57,0,0,1-.08.23,1.76,1.76,0,0,0-1.6.65,1.83,1.83,0,0,0-.35,1.08,2.64,2.64,0,0,1-.31.65c-.3.39-1.73.4-2.26,1.09s-.71,2.14-1.19,2.55-1.68.75-2,1.77a3.93,3.93,0,0,0,.06,1.58,2.13,2.13,0,0,0-1.76.82,1.79,1.79,0,0,0-.3.56,2.14,2.14,0,0,0-1.15.92,2.35,2.35,0,0,0-.32,1.05,2.24,2.24,0,0,0-.83.65,2.31,2.31,0,0,0-.45,1.12,3.5,3.5,0,0,0-.4.37l.43.28a2.19,2.19,0,0,0,.82,1.37,2.26,2.26,0,0,0,1.83.42l0,0,.2-.08a2.24,2.24,0,0,0,1.08-.76l0,0A4.13,4.13,0,0,0,317.41,316.28Z" style="fill:#92E3A9;stroke:#263238;stroke-miterlimit:10"></path><path d="M303.76,405.88c0-7.22,32.83-24.29,32.83-24.29s-32.83,10.5-42,7.88S309,354,309,354,277.49,379,267,379,251.23,354,251.23,354s-3.94,23.64-13.14,26.26-46-48.59-46-48.59,22.32,49.91,15.76,59.1l0,0c-1.77.52-3.47,1.08-5.1,1.66-8.67-1.2-23.72-14.18-29.39-19.32,2.44,2.69,6.09,8.19,6.95,17.62,1.31,14.45-19.7,11.82-19.7,11.82L179.73,409c-13.5,5.44-34.88,5.44-34.88,5.44h61.77c11.42.64,25.56,0,37.38,0s26.28.64,38,0h66.4S314.27,411.79,303.76,405.88Z" style="fill:#92E3A9;stroke:#263238;stroke-miterlimit:10"></path><path d="M171.11,371.08s.84.8,2.25,2.08A14,14,0,0,0,171.11,371.08Z" style="fill:#fff;stroke:#263238;stroke-miterlimit:10"></path><path d="M281.61,411.41c-5.47-1.56,10.94-14.07,10.94-14.07s-16.41,6.25-21.09,6.25,3.9-14.06,3.9-14.06-14.06,11.72-17.19,11.72-7.49-16.46-7.49-16.46-.32,19.59-9.7,21.15-22.66-22.66-22.66-22.66,5.47,18.75,2.34,21.1-25.78-7.82-25.78-7.82,10.94,7.82,8.59,7.82h-9.38l10,10h2.48c11.42.64,25.56,0,37.38,0s26.28.64,38,0H295.5C291.14,413.59,284.94,412.36,281.61,411.41Z" style="fill:#fff;stroke:#263238;stroke-miterlimit:10"></path><path d="M119.47,414.7h63.87a10.32,10.32,0,0,0-10.26-9.44,10.53,10.53,0,0,0-1.7.17c0-.24.07-.47.07-.71a13.58,13.58,0,0,0-27.08-1.47,9.72,9.72,0,0,0-9.78.12,10.28,10.28,0,0,0-15.42,9A10.17,10.17,0,0,0,119.47,414.7Z" style="fill:#263238;stroke:#263238;stroke-miterlimit:10"></path><path d="M81,414.7a7,7,0,0,0-14,0Z" style="fill:#263238;stroke:#263238;stroke-miterlimit:10"></path><path d="M109.33,414.7a9.85,9.85,0,0,0-.52-2.78,5.42,5.42,0,0,0,3.07,2.78h3.75a5.44,5.44,0,1,0-7.35-5.08,5.28,5.28,0,0,0,.22,1.44,9.78,9.78,0,0,0-18.7,3.64Z" style="fill:#263238;stroke:#263238;stroke-miterlimit:10"></path><path d="M366.24,414.7H302.37a10.32,10.32,0,0,1,10.26-9.44,10.53,10.53,0,0,1,1.7.17c0-.24-.07-.47-.07-.71a13.58,13.58,0,0,1,27.08-1.47,9.72,9.72,0,0,1,9.78.12,10.28,10.28,0,0,1,15.42,9A10.17,10.17,0,0,1,366.24,414.7Z" style="fill:#263238;stroke:#263238;stroke-miterlimit:10"></path><path d="M404.75,414.7a7,7,0,0,1,14,0Z" style="fill:#263238;stroke:#263238;stroke-miterlimit:10"></path><path d="M376.38,414.7a9.85,9.85,0,0,1,.52-2.78,5.39,5.39,0,0,1-3.07,2.78h-3.75a5.44,5.44,0,1,1,7.35-5.08,5.28,5.28,0,0,1-.22,1.44,9.78,9.78,0,0,1,18.7,3.64Z" style="fill:#263238;stroke:#263238;stroke-miterlimit:10"></path></g><g id="Buildings"><rect x="332.7" y="365.75" width="11.33" height="49.2" style="fill:#fff;stroke:#263238;stroke-miterlimit:10"></rect><rect x="335.22" y="365.75" width="11.33" height="49.2" style="fill:#263238;stroke:#263238;stroke-miterlimit:10"></rect><rect x="370.06" y="365.75" width="11.33" height="49.2" style="fill:#fff;stroke:#263238;stroke-miterlimit:10"></rect><rect x="384.75" y="390.13" width="25.6" height="24.82" style="fill:#fff;stroke:#263238;stroke-miterlimit:10"></rect><rect x="394.82" y="390.13" width="12.8" height="24.82" style="fill:#263238;stroke:#263238;stroke-miterlimit:10"></rect><rect x="422.52" y="390.13" width="23.5" height="24.82" style="fill:#263238;stroke:#263238;stroke-miterlimit:10"></rect><rect x="433.44" y="377.94" width="21.83" height="37.01" style="fill:#263238;stroke:#263238;stroke-miterlimit:10"></rect><rect x="439.31" y="409.98" width="21.83" height="4.96" style="fill:#263238;stroke:#263238;stroke-miterlimit:10"></rect><rect x="439.31" y="401.41" width="21.83" height="4.96" style="fill:#263238;stroke:#263238;stroke-miterlimit:10"></rect><rect x="439.31" y="392.83" width="21.83" height="4.96" style="fill:#263238;stroke:#263238;stroke-miterlimit:10"></rect><rect x="439.31" y="384.26" width="21.83" height="4.96" style="fill:#263238;stroke:#263238;stroke-miterlimit:10"></rect><rect x="375.72" y="365.75" width="9.86" height="49.2" style="fill:#263238;stroke:#263238;stroke-miterlimit:10"></rect><rect x="348.23" y="349.05" width="20.99" height="65.9" style="fill:#fff;stroke:#263238;stroke-miterlimit:10"></rect><rect x="358.31" y="349.05" width="10.91" height="65.9" style="fill:#263238;stroke:#263238;stroke-miterlimit:10"></rect><rect x="342.36" y="394.19" width="11.33" height="20.76" style="fill:#fff;stroke:#263238;stroke-miterlimit:10"></rect><rect x="346.34" y="394.19" width="11.33" height="20.76" style="fill:#263238;stroke:#263238;stroke-miterlimit:10"></rect><rect x="351.17" y="354.02" width="8.81" height="2.26" style="fill:#263238;stroke:#263238;stroke-miterlimit:10"></rect><rect x="351.17" y="359.43" width="8.81" height="2.26" style="fill:#263238;stroke:#263238;stroke-miterlimit:10"></rect><rect x="351.17" y="364.85" width="8.81" height="2.26" style="fill:#263238;stroke:#263238;stroke-miterlimit:10"></rect><rect x="351.17" y="370.27" width="8.81" height="2.26" style="fill:#263238;stroke:#263238;stroke-miterlimit:10"></rect><rect x="351.17" y="375.68" width="8.81" height="2.26" style="fill:#263238;stroke:#263238;stroke-miterlimit:10"></rect><rect x="351.17" y="381.1" width="8.81" height="2.26" style="fill:#263238;stroke:#263238;stroke-miterlimit:10"></rect><rect x="351.17" y="386.51" width="8.81" height="2.26" style="fill:#263238;stroke:#263238;stroke-miterlimit:10"></rect><rect x="408.25" y="364.85" width="20.99" height="50.1" style="fill:#fff;stroke:#263238;stroke-miterlimit:10"></rect><rect x="418.33" y="364.85" width="10.91" height="50.1" style="fill:#263238;stroke:#263238;stroke-miterlimit:10"></rect><line x1="411.61" y1="365.75" x2="411.61" y2="413.14" style="fill:none;stroke:#263238;stroke-miterlimit:10"></line><line x1="414.97" y1="365.75" x2="414.97" y2="413.14" style="fill:none;stroke:#263238;stroke-miterlimit:10"></line><rect x="163.79" y="365.75" width="11.33" height="49.2" transform="translate(338.9 780.7) rotate(180)" style="fill:#fff;stroke:#263238;stroke-linecap:round;stroke-linejoin:round"></rect><rect x="161.27" y="365.75" width="11.33" height="49.2" transform="translate(333.87 780.7) rotate(180)" style="fill:#263238;stroke:#263238;stroke-linecap:round;stroke-linejoin:round"></rect><rect x="126.43" y="365.75" width="11.33" height="49.2" transform="translate(264.19 780.7) rotate(180)" style="fill:#fff;stroke:#263238;stroke-linecap:round;stroke-linejoin:round"></rect><rect x="97.47" y="390.13" width="25.6" height="24.82" transform="translate(220.54 805.07) rotate(180)" style="fill:#fff;stroke:#263238;stroke-linecap:round;stroke-linejoin:round"></rect><rect x="100.2" y="390.13" width="12.8" height="24.82" transform="translate(213.19 805.07) rotate(180)" style="fill:#263238;stroke:#263238;stroke-linecap:round;stroke-linejoin:round"></rect><rect x="129.55" y="378.75" width="25.6" height="36.2" transform="translate(284.7 793.7) rotate(180)" style="fill:#fff;stroke:#263238;stroke-linecap:round;stroke-linejoin:round"></rect><rect x="132.28" y="378.75" width="12.8" height="36.2" transform="translate(277.36 793.7) rotate(180)" style="fill:#263238;stroke:#263238;stroke-linecap:round;stroke-linejoin:round"></rect><rect x="61.79" y="390.13" width="23.5" height="24.82" transform="translate(147.09 805.07) rotate(180)" style="fill:#263238;stroke:#263238;stroke-linecap:round;stroke-linejoin:round"></rect><rect x="52.56" y="377.94" width="21.83" height="37.01" transform="translate(126.94 792.89) rotate(180)" style="fill:#263238;stroke:#263238;stroke-linecap:round;stroke-linejoin:round"></rect><rect x="46.68" y="409.98" width="21.83" height="4.96" transform="translate(115.19 824.93) rotate(180)" style="fill:#263238;stroke:#263238;stroke-linecap:round;stroke-linejoin:round"></rect><rect x="46.68" y="401.41" width="21.83" height="4.96" transform="translate(115.19 807.78) rotate(180)" style="fill:#263238;stroke:#263238;stroke-linecap:round;stroke-linejoin:round"></rect><rect x="46.68" y="392.83" width="21.83" height="4.96" transform="translate(115.19 790.63) rotate(180)" style="fill:#263238;stroke:#263238;stroke-linecap:round;stroke-linejoin:round"></rect><rect x="46.68" y="384.26" width="21.83" height="4.96" transform="translate(115.19 773.48) rotate(180)" style="fill:#263238;stroke:#263238;stroke-linecap:round;stroke-linejoin:round"></rect><rect x="122.23" y="365.75" width="9.86" height="49.2" transform="translate(254.33 780.7) rotate(180)" style="fill:#263238;stroke:#263238;stroke-linecap:round;stroke-linejoin:round"></rect><rect x="154.13" y="394.19" width="11.33" height="20.76" transform="translate(319.6 809.14) rotate(180)" style="fill:#fff;stroke:#263238;stroke-linecap:round;stroke-linejoin:round"></rect><rect x="150.14" y="394.19" width="11.33" height="20.76" transform="translate(311.62 809.14) rotate(180)" style="fill:#263238;stroke:#263238;stroke-linecap:round;stroke-linejoin:round"></rect><rect x="30.75" y="349.05" width="20.99" height="65.9" transform="translate(82.5 764) rotate(180)" style="fill:#fff;stroke:#263238;stroke-linecap:round;stroke-linejoin:round"></rect><rect x="30.75" y="349.05" width="10.91" height="65.9" transform="translate(72.42 764) rotate(180)" style="fill:#263238;stroke:#263238;stroke-linecap:round;stroke-linejoin:round"></rect><rect x="39.99" y="354.02" width="8.81" height="2.26" transform="translate(88.79 710.29) rotate(180)" style="fill:#263238;stroke:#263238;stroke-linecap:round;stroke-linejoin:round"></rect><rect x="39.99" y="359.43" width="8.81" height="2.26" transform="translate(88.79 721.12) rotate(180)" style="fill:#263238;stroke:#263238;stroke-linecap:round;stroke-linejoin:round"></rect><rect x="39.99" y="364.85" width="8.81" height="2.26" transform="translate(88.79 731.96) rotate(180)" style="fill:#263238;stroke:#263238;stroke-linecap:round;stroke-linejoin:round"></rect><rect x="39.99" y="370.27" width="8.81" height="2.26" transform="translate(88.79 742.79) rotate(180)" style="fill:#263238;stroke:#263238;stroke-linecap:round;stroke-linejoin:round"></rect><rect x="39.99" y="375.68" width="8.81" height="2.26" transform="translate(88.79 753.62) rotate(180)" style="fill:#263238;stroke:#263238;stroke-linecap:round;stroke-linejoin:round"></rect><rect x="39.99" y="381.1" width="8.81" height="2.26" transform="translate(88.79 764.45) rotate(180)" style="fill:#263238;stroke:#263238;stroke-linecap:round;stroke-linejoin:round"></rect><rect x="87.51" y="338.34" width="12.05" height="50.1" transform="translate(187.08 726.79) rotate(180)" style="fill:#fff;stroke:#263238;stroke-linecap:round;stroke-linejoin:round"></rect><rect x="87.51" y="338.34" width="6.27" height="50.1" transform="translate(181.3 726.79) rotate(180)" style="fill:#263238;stroke:#263238;stroke-linecap:round;stroke-linejoin:round"></rect><line x1="97.64" y1="339.25" x2="97.64" y2="386.64" style="fill:none;stroke:#263238;stroke-linecap:round;stroke-linejoin:round"></line><line x1="95.71" y1="339.25" x2="95.71" y2="386.64" style="fill:none;stroke:#263238;stroke-linecap:round;stroke-linejoin:round"></line><rect x="78.58" y="364.85" width="20.99" height="50.1" transform="translate(178.15 779.8) rotate(180)" style="fill:#fff;stroke:#263238;stroke-linecap:round;stroke-linejoin:round"></rect><rect x="78.58" y="364.85" width="10.91" height="50.1" transform="translate(168.07 779.8) rotate(180)" style="fill:#263238;stroke:#263238;stroke-linecap:round;stroke-linejoin:round"></rect><line x1="96.21" y1="365.75" x2="96.21" y2="413.14" style="fill:none;stroke:#263238;stroke-linecap:round;stroke-linejoin:round"></line><line x1="92.85" y1="365.75" x2="92.85" y2="413.14" style="fill:none;stroke:#263238;stroke-linecap:round;stroke-linejoin:round"></line><polygon points="52.56 377.94 41.97 401.47 41.97 414.49 52.56 414.49 52.56 377.94" style="fill:#263238;stroke:#263238;stroke-linecap:round;stroke-linejoin:round"></polygon></g><g id="Floor"><line x1="8" y1="414.7" x2="486" y2="414.7" style="fill:none;stroke:#263238;stroke-miterlimit:10"></line></g></svg>