<svg xmlns="http://www.w3.org/2000/svg" viewBox="0 0 750 500"><g id="background-simple"><path d="M669.5,314.4s20.4-137.09-66.23-208c-76.48-62.61-191.91-81-280.6-18.58C291.07,110,269.76,150.39,232.06,165c-42.28,16.43-97.51,25.1-133.62,85.35s-16.55,133,39.7,168.5,147.19-9.33,231.36-18.09S636.9,484.1,669.5,314.4Z" style="fill:#92E3A9"></path><path d="M669.5,314.4s20.4-137.09-66.23-208c-76.48-62.61-191.91-81-280.6-18.58C291.07,110,269.76,150.39,232.06,165c-42.28,16.43-97.51,25.1-133.62,85.35s-16.55,133,39.7,168.5,147.19-9.33,231.36-18.09S636.9,484.1,669.5,314.4Z" style="fill:#fff;opacity:0.7000000000000001"></path></g><g id="Picture"><rect x="102.72" y="57.58" width="100.23" height="264.83" style="fill:#fff;stroke:#263238;stroke-linecap:round;stroke-linejoin:round"></rect><rect x="105.63" y="63.25" width="94.39" height="253.49" style="fill:#fff;stroke:#263238;stroke-linecap:round;stroke-linejoin:round"></rect><rect x="208.65" y="57.58" width="100.23" height="264.83" style="fill:#fff;stroke:#263238;stroke-linecap:round;stroke-linejoin:round"></rect><rect x="211.56" y="63.25" width="94.39" height="253.49" style="fill:#fff;stroke:#263238;stroke-linecap:round;stroke-linejoin:round"></rect><rect x="314.58" y="57.58" width="100.23" height="264.83" style="fill:#fff;stroke:#263238;stroke-linecap:round;stroke-linejoin:round"></rect><rect x="317.49" y="63.25" width="94.39" height="253.49" style="fill:#fff;stroke:#263238;stroke-linecap:round;stroke-linejoin:round"></rect><path d="M317.85,151.49c18.89-8.75,37.62-16,55.54-20.82" style="fill:none;stroke:#263238;stroke-linecap:round;stroke-linejoin:round"></path><path d="M211.54,213.25c29.16-19.81,61.41-39.69,93.59-55.66" style="fill:none;stroke:#263238;stroke-linecap:round;stroke-linejoin:round"></path><path d="M105.71,293.36s35.28-30.95,93.67-71.73" style="fill:none;stroke:#263238;stroke-linecap:round;stroke-linejoin:round"></path><path d="M144.24,263.31s9.8-67.1,28.9-120.26" style="fill:none;stroke:#263238;stroke-linecap:round;stroke-linejoin:round"></path><path d="M157.65,192.08s-4.64-40.25-1-66.58" style="fill:none;stroke:#263238;stroke-linecap:round;stroke-linejoin:round"></path><path d="M345.52,140a80.52,80.52,0,0,1,49.55,5.67" style="fill:none;stroke:#263238;stroke-linecap:round;stroke-linejoin:round"></path><path d="M226.3,204s-2.07-55.22,5.67-88.25" style="fill:none;stroke:#263238;stroke-linecap:round;stroke-linejoin:round"></path><path d="M226.81,165.25s48-63,64-80.52" style="fill:none;stroke:#263238;stroke-linecap:round;stroke-linejoin:round"></path><path d="M211.56,251.73c16.76,1.85,35.52,5.93,53.45,14.16" style="fill:none;stroke:#263238;stroke-linecap:round;stroke-linejoin:round"></path><path d="M157.14,252.47a209.59,209.59,0,0,1,42.52-1.71" style="fill:none;stroke:#263238;stroke-linecap:round;stroke-linejoin:round"></path><path d="M398.29,141.46a8.36,8.36,0,0,0,0-7.11c-1.78-3.86-6.82-2.37-7.71,1.48s2.67,5.33,2.37,6.52-4.15-.6-6.52,1.48-3.55,4.74-2.66,5.33a8.17,8.17,0,0,0,5.33,2.08c3,0,4.45-3.85,5-3s-1.78,4.45-1.19,6.23,2.67,3,4.74,4.15,5.93-3.86,4.45-6.52-3.85-2.08-3-3.56,1.77,0,4.74.89,4.74-3.56,4.44-5.63-3.26-3-5.33-2.08S398.29,141.46,398.29,141.46Z" style="fill:#fff;stroke:#263238;stroke-linecap:round;stroke-linejoin:round"></path><line x1="394.78" y1="140.73" x2="395.12" y2="142.6" style="fill:none;stroke:#263238;stroke-linecap:round;stroke-linejoin:round"></line><line x1="398.37" y1="143.12" x2="396.83" y2="144.48" style="fill:none;stroke:#263238;stroke-linecap:round;stroke-linejoin:round"></line><line x1="399.39" y1="145.68" x2="397" y2="147.21" style="fill:none;stroke:#263238;stroke-linecap:round;stroke-linejoin:round"></line><line x1="393.93" y1="146.87" x2="390.69" y2="147.21" style="fill:#fff;stroke:#263238;stroke-linecap:round;stroke-linejoin:round"></line><line x1="391.54" y1="144.31" x2="393.76" y2="144.82" style="fill:none;stroke:#263238;stroke-linecap:round;stroke-linejoin:round"></line><line x1="395.81" y1="148.75" x2="395.98" y2="151.14" style="fill:none;stroke:#263238;stroke-linecap:round;stroke-linejoin:round"></line><path d="M376.91,124.74a8.37,8.37,0,0,0,2.81-6.53c-.11-4.24-5.33-4.87-7.67-1.68s.35,6-.39,6.92-3.58-2.18-6.58-1.22-5.14,3-4.56,3.85a8.19,8.19,0,0,0,4.08,4c2.72,1.18,5.61-1.78,5.8-.73s-3.39,3.38-3.55,5.25,1.28,3.78,2.72,5.69,7-1.2,6.66-4.23-2.72-3.43-1.32-4.44,1.63.7,4,2.69,5.77-1.39,6.31-3.42-1.82-4-4.08-4S376.91,124.74,376.91,124.74Z" style="fill:#fff;stroke:#263238;stroke-linecap:round;stroke-linejoin:round"></path><line x1="373.98" y1="122.69" x2="373.55" y2="124.55" style="fill:none;stroke:#263238;stroke-linecap:round;stroke-linejoin:round"></line><line x1="376.32" y1="126.3" x2="374.37" y2="126.94" style="fill:none;stroke:#263238;stroke-linecap:round;stroke-linejoin:round"></line><line x1="376.25" y1="129.05" x2="373.45" y2="129.52" style="fill:none;stroke:#263238;stroke-linecap:round;stroke-linejoin:round"></line><line x1="370.76" y1="127.99" x2="367.65" y2="127.02" style="fill:#fff;stroke:#263238;stroke-linecap:round;stroke-linejoin:round"></line><line x1="369.58" y1="124.7" x2="371.42" y2="126.04" style="fill:none;stroke:#263238;stroke-linecap:round;stroke-linejoin:round"></line><line x1="371.74" y1="130.46" x2="370.96" y2="132.72" style="fill:none;stroke:#263238;stroke-linecap:round;stroke-linejoin:round"></line><path d="M294.06,82.43a8.37,8.37,0,0,0,2.81-6.53c-.11-4.24-5.32-4.87-7.66-1.69s.34,6-.4,6.93-3.58-2.18-6.57-1.22-5.14,3-4.56,3.85a8.19,8.19,0,0,0,4.08,4c2.72,1.17,5.6-1.78,5.8-.73s-3.39,3.38-3.55,5.25,1.28,3.78,2.71,5.69,7-1.2,6.66-4.23-2.72-3.43-1.31-4.44,1.63.7,4,2.69,5.76-1.39,6.31-3.42-1.82-4-4.08-4S294.06,82.43,294.06,82.43Z" style="fill:#fff;stroke:#263238;stroke-linecap:round;stroke-linejoin:round"></path><line x1="291.13" y1="80.37" x2="290.7" y2="82.23" style="fill:none;stroke:#263238;stroke-linecap:round;stroke-linejoin:round"></line><line x1="293.48" y1="83.99" x2="291.53" y2="84.63" style="fill:none;stroke:#263238;stroke-linecap:round;stroke-linejoin:round"></line><line x1="293.41" y1="86.74" x2="290.6" y2="87.21" style="fill:none;stroke:#263238;stroke-linecap:round;stroke-linejoin:round"></line><line x1="287.92" y1="85.68" x2="284.8" y2="84.71" style="fill:#fff;stroke:#263238;stroke-linecap:round;stroke-linejoin:round"></line><line x1="286.74" y1="82.39" x2="288.57" y2="83.73" style="fill:none;stroke:#263238;stroke-linecap:round;stroke-linejoin:round"></line><line x1="288.9" y1="88.15" x2="288.11" y2="90.41" style="fill:none;stroke:#263238;stroke-linecap:round;stroke-linejoin:round"></line><path d="M237.31,112.3a8.37,8.37,0,0,0,2.81-6.53c-.11-4.24-5.32-4.87-7.66-1.69s.34,6-.4,6.93-3.58-2.19-6.57-1.22-5.14,2.95-4.56,3.85a8.23,8.23,0,0,0,4.08,4c2.72,1.17,5.6-1.78,5.8-.73s-3.39,3.38-3.55,5.25,1.28,3.78,2.71,5.68,7-1.19,6.66-4.23-2.72-3.43-1.31-4.43,1.63.7,4,2.69,5.76-1.4,6.31-3.42-1.82-4-4.08-4S237.31,112.3,237.31,112.3Z" style="fill:#fff;stroke:#263238;stroke-linecap:round;stroke-linejoin:round"></path><line x1="234.38" y1="110.24" x2="233.95" y2="112.1" style="fill:none;stroke:#263238;stroke-linecap:round;stroke-linejoin:round"></line><line x1="236.73" y1="113.85" x2="234.78" y2="114.5" style="fill:none;stroke:#263238;stroke-linecap:round;stroke-linejoin:round"></line><line x1="236.66" y1="116.61" x2="233.86" y2="117.08" style="fill:none;stroke:#263238;stroke-linecap:round;stroke-linejoin:round"></line><line x1="231.17" y1="115.55" x2="228.05" y2="114.58" style="fill:#fff;stroke:#263238;stroke-linecap:round;stroke-linejoin:round"></line><line x1="229.99" y1="112.25" x2="231.82" y2="113.6" style="fill:none;stroke:#263238;stroke-linecap:round;stroke-linejoin:round"></line><line x1="232.15" y1="118.02" x2="231.36" y2="120.28" style="fill:none;stroke:#263238;stroke-linecap:round;stroke-linejoin:round"></line><path d="M232,163a8.37,8.37,0,0,0,2.81-6.53c-.11-4.24-5.32-4.87-7.66-1.69s.34,6-.4,6.93-3.58-2.19-6.57-1.22-5.15,2.95-4.56,3.85a8.19,8.19,0,0,0,4.08,4c2.72,1.17,5.6-1.78,5.8-.73s-3.4,3.38-3.55,5.25,1.27,3.78,2.71,5.69,7-1.2,6.66-4.24-2.72-3.42-1.31-4.43,1.63.7,4,2.69,5.76-1.39,6.31-3.42-1.82-4-4.08-4S232,163,232,163Z" style="fill:#fff;stroke:#263238;stroke-linecap:round;stroke-linejoin:round"></path><line x1="229.08" y1="160.97" x2="228.65" y2="162.83" style="fill:none;stroke:#263238;stroke-linecap:round;stroke-linejoin:round"></line><line x1="231.43" y1="164.59" x2="229.48" y2="165.23" style="fill:none;stroke:#263238;stroke-linecap:round;stroke-linejoin:round"></line><line x1="231.36" y1="167.34" x2="228.55" y2="167.81" style="fill:none;stroke:#263238;stroke-linecap:round;stroke-linejoin:round"></line><line x1="225.87" y1="166.28" x2="222.75" y2="165.31" style="fill:#fff;stroke:#263238;stroke-linecap:round;stroke-linejoin:round"></line><line x1="224.68" y1="162.98" x2="226.52" y2="164.33" style="fill:none;stroke:#263238;stroke-linecap:round;stroke-linejoin:round"></line><line x1="226.85" y1="168.75" x2="226.06" y2="171.01" style="fill:none;stroke:#263238;stroke-linecap:round;stroke-linejoin:round"></line><path d="M266.88,269.17a8.38,8.38,0,0,0,6.6,2.64c4.24-.23,4.73-5.46,1.48-7.71s-5.94.5-6.94-.21,2.09-3.64,1-6.61-3.09-5-4-4.45a8.26,8.26,0,0,0-3.9,4.19c-1.1,2.75,1.93,5.56.89,5.78s-3.47-3.3-5.34-3.41-3.74,1.39-5.61,2.87,1.38,6.94,4.41,6.55,3.35-2.82,4.4-1.44-.66,1.65-2.58,4.07,1.55,5.73,3.59,6.22,4-1.93,3.9-4.19S266.88,269.17,266.88,269.17Z" style="fill:#fff;stroke:#263238;stroke-linecap:round;stroke-linejoin:round"></path><line x1="268.85" y1="266.19" x2="266.98" y2="265.81" style="fill:none;stroke:#263238;stroke-linecap:round;stroke-linejoin:round"></line><line x1="265.31" y1="268.63" x2="264.61" y2="266.7" style="fill:none;stroke:#263238;stroke-linecap:round;stroke-linejoin:round"></line><line x1="262.55" y1="268.64" x2="262.01" y2="265.85" style="fill:none;stroke:#263238;stroke-linecap:round;stroke-linejoin:round"></line><line x1="263.46" y1="263.12" x2="264.34" y2="259.98" style="fill:#fff;stroke:#263238;stroke-linecap:round;stroke-linejoin:round"></line><line x1="266.72" y1="261.85" x2="265.43" y2="263.72" style="fill:none;stroke:#263238;stroke-linecap:round;stroke-linejoin:round"></line><line x1="261.02" y1="264.17" x2="258.74" y2="263.45" style="fill:none;stroke:#263238;stroke-linecap:round;stroke-linejoin:round"></line><path d="M177.21,145.92a8.37,8.37,0,0,0,6.61,2.63c4.23-.22,4.72-5.45,1.47-7.7s-5.94.5-6.93-.21,2.08-3.64,1-6.61-3.09-5.06-4-4.45a8.22,8.22,0,0,0-3.9,4.19c-1.09,2.75,1.94,5.55.89,5.77s-3.47-3.29-5.34-3.4-3.74,1.38-5.61,2.87,1.39,6.93,4.41,6.54,3.35-2.81,4.4-1.44-.66,1.66-2.58,4.08,1.55,5.72,3.59,6.21,4-1.93,3.9-4.18S177.21,145.92,177.21,145.92Z" style="fill:#fff;stroke:#263238;stroke-linecap:round;stroke-linejoin:round"></path><line x1="179.19" y1="142.93" x2="177.31" y2="142.56" style="fill:none;stroke:#263238;stroke-linecap:round;stroke-linejoin:round"></line><line x1="175.64" y1="145.38" x2="174.94" y2="143.45" style="fill:none;stroke:#263238;stroke-linecap:round;stroke-linejoin:round"></line><line x1="172.88" y1="145.38" x2="172.34" y2="142.6" style="fill:none;stroke:#263238;stroke-linecap:round;stroke-linejoin:round"></line><line x1="173.79" y1="139.87" x2="174.68" y2="136.73" style="fill:#fff;stroke:#263238;stroke-linecap:round;stroke-linejoin:round"></line><line x1="177.06" y1="138.6" x2="175.76" y2="140.47" style="fill:none;stroke:#263238;stroke-linecap:round;stroke-linejoin:round"></line><line x1="171.35" y1="140.92" x2="169.07" y2="140.19" style="fill:none;stroke:#263238;stroke-linecap:round;stroke-linejoin:round"></line><path d="M160,128.53a8.37,8.37,0,0,0,6.61,2.63c4.24-.22,4.73-5.45,1.48-7.7s-5.95.5-6.94-.21,2.09-3.64,1-6.61-3.09-5.06-4-4.45a8.22,8.22,0,0,0-3.9,4.19c-1.1,2.75,1.93,5.55.89,5.78s-3.48-3.3-5.35-3.41-3.74,1.38-5.61,2.87,1.39,6.93,4.42,6.54,3.35-2.81,4.4-1.43-.66,1.65-2.58,4.07,1.55,5.72,3.58,6.22,4-1.94,3.9-4.19S160,128.53,160,128.53Z" style="fill:#fff;stroke:#263238;stroke-linecap:round;stroke-linejoin:round"></path><line x1="162.02" y1="125.55" x2="160.15" y2="125.17" style="fill:none;stroke:#263238;stroke-linecap:round;stroke-linejoin:round"></line><line x1="158.47" y1="127.99" x2="157.77" y2="126.06" style="fill:none;stroke:#263238;stroke-linecap:round;stroke-linejoin:round"></line><line x1="155.72" y1="128" x2="155.17" y2="125.21" style="fill:none;stroke:#263238;stroke-linecap:round;stroke-linejoin:round"></line><line x1="156.63" y1="122.48" x2="157.51" y2="119.34" style="fill:#fff;stroke:#263238;stroke-linecap:round;stroke-linejoin:round"></line><line x1="159.89" y1="121.21" x2="158.59" y2="123.08" style="fill:none;stroke:#263238;stroke-linecap:round;stroke-linejoin:round"></line><line x1="154.19" y1="123.53" x2="151.9" y2="122.8" style="fill:none;stroke:#263238;stroke-linecap:round;stroke-linejoin:round"></line><path d="M163.36,199.88a8.39,8.39,0,0,0,6.61,2.64c4.24-.23,4.72-5.46,1.47-7.71s-5.94.5-6.93-.21,2.09-3.64,1-6.61-3.09-5.05-4-4.45a8.22,8.22,0,0,0-3.9,4.19c-1.1,2.75,1.93,5.56.88,5.78s-3.47-3.3-5.34-3.41-3.74,1.39-5.61,2.87,1.39,6.94,4.41,6.55,3.36-2.82,4.41-1.44-.66,1.65-2.59,4.07,1.55,5.73,3.59,6.22,4-1.93,3.9-4.19S163.36,199.88,163.36,199.88Z" style="fill:#fff;stroke:#263238;stroke-linecap:round;stroke-linejoin:round"></path><line x1="165.34" y1="196.9" x2="163.47" y2="196.52" style="fill:none;stroke:#263238;stroke-linecap:round;stroke-linejoin:round"></line><line x1="161.79" y1="199.34" x2="161.09" y2="197.41" style="fill:none;stroke:#263238;stroke-linecap:round;stroke-linejoin:round"></line><line x1="159.03" y1="199.35" x2="158.49" y2="196.56" style="fill:none;stroke:#263238;stroke-linecap:round;stroke-linejoin:round"></line><line x1="159.95" y1="193.83" x2="160.83" y2="190.69" style="fill:#fff;stroke:#263238;stroke-linecap:round;stroke-linejoin:round"></line><line x1="163.21" y1="192.56" x2="161.91" y2="194.43" style="fill:none;stroke:#263238;stroke-linecap:round;stroke-linejoin:round"></line><line x1="157.51" y1="194.88" x2="155.22" y2="194.16" style="fill:none;stroke:#263238;stroke-linecap:round;stroke-linejoin:round"></line><path d="M276.44,105.43a8.36,8.36,0,0,0,6.6,2.63c4.24-.22,4.73-5.45,1.48-7.7s-5.94.5-6.94-.21,2.09-3.64,1-6.61-3.09-5.06-4-4.45a8.26,8.26,0,0,0-3.9,4.19c-1.1,2.75,1.93,5.55.89,5.78s-3.47-3.3-5.34-3.41-3.74,1.38-5.61,2.87,1.38,6.93,4.41,6.54,3.35-2.81,4.4-1.43-.66,1.65-2.58,4.07,1.55,5.72,3.59,6.22,4-1.94,3.9-4.19S276.44,105.43,276.44,105.43Z" style="fill:#fff;stroke:#263238;stroke-linecap:round;stroke-linejoin:round"></path><line x1="278.41" y1="102.45" x2="276.54" y2="102.07" style="fill:none;stroke:#263238;stroke-linecap:round;stroke-linejoin:round"></line><line x1="274.87" y1="104.89" x2="274.17" y2="102.96" style="fill:none;stroke:#263238;stroke-linecap:round;stroke-linejoin:round"></line><line x1="272.11" y1="104.9" x2="271.57" y2="102.11" style="fill:none;stroke:#263238;stroke-linecap:round;stroke-linejoin:round"></line><line x1="273.02" y1="99.38" x2="273.9" y2="96.24" style="fill:#fff;stroke:#263238;stroke-linecap:round;stroke-linejoin:round"></line><line x1="276.28" y1="98.11" x2="274.99" y2="99.98" style="fill:none;stroke:#263238;stroke-linecap:round;stroke-linejoin:round"></line><line x1="270.58" y1="100.43" x2="268.3" y2="99.7" style="fill:none;stroke:#263238;stroke-linecap:round;stroke-linejoin:round"></line><path d="M246.29,150.09a8.4,8.4,0,0,0,6.61,2.63c4.24-.23,4.72-5.46,1.47-7.71s-5.94.5-6.93-.21,2.08-3.63,1-6.6-3.09-5.06-4-4.46a8.3,8.3,0,0,0-3.9,4.19c-1.09,2.76,1.94,5.56.89,5.78s-3.47-3.3-5.34-3.41-3.74,1.39-5.61,2.87,1.39,6.94,4.41,6.55,3.36-2.81,4.4-1.44-.65,1.65-2.58,4.08,1.55,5.72,3.59,6.21,4-1.93,3.9-4.19S246.29,150.09,246.29,150.09Z" style="fill:#fff;stroke:#263238;stroke-linecap:round;stroke-linejoin:round"></path><line x1="248.27" y1="147.1" x2="246.4" y2="146.72" style="fill:none;stroke:#263238;stroke-linecap:round;stroke-linejoin:round"></line><line x1="244.72" y1="149.54" x2="244.02" y2="147.61" style="fill:none;stroke:#263238;stroke-linecap:round;stroke-linejoin:round"></line><line x1="241.96" y1="149.55" x2="241.42" y2="146.76" style="fill:none;stroke:#263238;stroke-linecap:round;stroke-linejoin:round"></line><line x1="242.87" y1="144.03" x2="243.76" y2="140.89" style="fill:#fff;stroke:#263238;stroke-linecap:round;stroke-linejoin:round"></line><line x1="246.14" y1="142.76" x2="244.84" y2="144.63" style="fill:none;stroke:#263238;stroke-linecap:round;stroke-linejoin:round"></line><line x1="240.44" y1="145.08" x2="238.15" y2="144.36" style="fill:none;stroke:#263238;stroke-linecap:round;stroke-linejoin:round"></line><path d="M350.06,144.16a8.4,8.4,0,0,0,6.61,2.63c4.23-.23,4.72-5.46,1.47-7.71s-5.94.51-6.93-.21,2.08-3.63,1-6.6-3.09-5.06-4-4.46a8.26,8.26,0,0,0-3.9,4.19c-1.09,2.76,1.94,5.56.89,5.78s-3.47-3.3-5.34-3.4-3.74,1.38-5.61,2.87,1.39,6.93,4.41,6.54,3.35-2.81,4.4-1.44-.66,1.65-2.58,4.08,1.55,5.72,3.59,6.21,4-1.93,3.9-4.19S350.06,144.16,350.06,144.16Z" style="fill:#fff;stroke:#263238;stroke-linecap:round;stroke-linejoin:round"></path><line x1="352.04" y1="141.17" x2="350.16" y2="140.79" style="fill:none;stroke:#263238;stroke-linecap:round;stroke-linejoin:round"></line><line x1="348.49" y1="143.62" x2="347.79" y2="141.68" style="fill:none;stroke:#263238;stroke-linecap:round;stroke-linejoin:round"></line><line x1="345.73" y1="143.62" x2="345.19" y2="140.83" style="fill:none;stroke:#263238;stroke-linecap:round;stroke-linejoin:round"></line><line x1="346.64" y1="138.1" x2="347.53" y2="134.96" style="fill:#fff;stroke:#263238;stroke-linecap:round;stroke-linejoin:round"></line><line x1="349.91" y1="136.83" x2="348.61" y2="138.7" style="fill:none;stroke:#263238;stroke-linecap:round;stroke-linejoin:round"></line><line x1="344.2" y1="139.15" x2="341.92" y2="138.43" style="fill:none;stroke:#263238;stroke-linecap:round;stroke-linejoin:round"></line><path d="M246.8,259.24a8.39,8.39,0,0,0,6.61,2.64c4.24-.23,4.72-5.46,1.47-7.71s-5.94.5-6.93-.21,2.09-3.64,1-6.61-3.09-5-4-4.45a8.22,8.22,0,0,0-3.9,4.19c-1.1,2.75,1.93,5.56.88,5.78s-3.47-3.3-5.34-3.41-3.74,1.39-5.61,2.87,1.39,6.94,4.41,6.55,3.36-2.82,4.41-1.44-.66,1.65-2.59,4.07,1.55,5.73,3.59,6.22,4-1.93,3.9-4.19S246.8,259.24,246.8,259.24Z" style="fill:#fff;stroke:#263238;stroke-linecap:round;stroke-linejoin:round"></path><line x1="248.78" y1="256.26" x2="246.91" y2="255.88" style="fill:none;stroke:#263238;stroke-linecap:round;stroke-linejoin:round"></line><line x1="245.23" y1="258.7" x2="244.53" y2="256.77" style="fill:none;stroke:#263238;stroke-linecap:round;stroke-linejoin:round"></line><line x1="242.47" y1="258.71" x2="241.93" y2="255.92" style="fill:none;stroke:#263238;stroke-linecap:round;stroke-linejoin:round"></line><line x1="243.39" y1="253.19" x2="244.27" y2="250.05" style="fill:#fff;stroke:#263238;stroke-linecap:round;stroke-linejoin:round"></line><line x1="246.65" y1="251.92" x2="245.35" y2="253.79" style="fill:none;stroke:#263238;stroke-linecap:round;stroke-linejoin:round"></line><line x1="240.95" y1="254.24" x2="238.66" y2="253.52" style="fill:none;stroke:#263238;stroke-linecap:round;stroke-linejoin:round"></line><path d="M144.59,265.88a8.36,8.36,0,0,0,6.6,2.63c4.24-.22,4.73-5.45,1.48-7.7s-5.94.5-6.94-.21,2.09-3.64,1-6.61-3.09-5.06-4-4.45a8.26,8.26,0,0,0-3.9,4.19c-1.1,2.75,1.93,5.55.89,5.78s-3.47-3.3-5.34-3.41-3.74,1.38-5.61,2.87,1.38,6.93,4.41,6.54,3.35-2.81,4.4-1.43-.66,1.65-2.58,4.07,1.55,5.72,3.59,6.22,4-1.94,3.9-4.19S144.59,265.88,144.59,265.88Z" style="fill:#fff;stroke:#263238;stroke-linecap:round;stroke-linejoin:round"></path><line x1="146.56" y1="262.9" x2="144.69" y2="262.52" style="fill:none;stroke:#263238;stroke-linecap:round;stroke-linejoin:round"></line><line x1="143.02" y1="265.34" x2="142.32" y2="263.41" style="fill:none;stroke:#263238;stroke-linecap:round;stroke-linejoin:round"></line><line x1="140.26" y1="265.35" x2="139.72" y2="262.56" style="fill:none;stroke:#263238;stroke-linecap:round;stroke-linejoin:round"></line><line x1="141.17" y1="259.83" x2="142.05" y2="256.69" style="fill:#fff;stroke:#263238;stroke-linecap:round;stroke-linejoin:round"></line><line x1="144.43" y1="258.56" x2="143.14" y2="260.43" style="fill:none;stroke:#263238;stroke-linecap:round;stroke-linejoin:round"></line><line x1="138.73" y1="260.88" x2="136.45" y2="260.15" style="fill:none;stroke:#263238;stroke-linecap:round;stroke-linejoin:round"></line></g><g id="Plant"><line x1="604.89" y1="153.1" x2="617.53" y2="274.28" style="fill:none;stroke:#263238;stroke-linecap:round;stroke-linejoin:round"></line><line x1="615.73" y1="257.14" x2="610.09" y2="251.22" style="fill:none;stroke:#263238;stroke-linecap:round;stroke-linejoin:round"></line><path d="M612,253.15a6.94,6.94,0,0,0-2.44-5.19c-1.57-1.4-9.83-4.88-10.62-2C598,249.16,606.5,255.38,612,253.15Z" style="fill:#92E3A9;stroke:#263238;stroke-linecap:round;stroke-linejoin:round"></path><line x1="611.95" y1="253.15" x2="604.08" y2="248.25" style="fill:none;stroke:#263238;stroke-linecap:round;stroke-linejoin:round"></line><line x1="617.13" y1="270.5" x2="611.63" y2="265.92" style="fill:none;stroke:#263238;stroke-linecap:round;stroke-linejoin:round"></line><path d="M613.48,267.86a6.91,6.91,0,0,0-2.43-5.19c-1.57-1.4-9.84-4.88-10.62-2C599.58,263.87,608,270.09,613.48,267.86Z" style="fill:#92E3A9;stroke:#263238;stroke-linecap:round;stroke-linejoin:round"></path><line x1="613.48" y1="267.86" x2="605.62" y2="262.96" style="fill:none;stroke:#263238;stroke-linecap:round;stroke-linejoin:round"></line><line x1="611.9" y1="220.33" x2="606.35" y2="215.33" style="fill:none;stroke:#263238;stroke-linecap:round;stroke-linejoin:round"></line><path d="M608.2,217.26a6.91,6.91,0,0,0-2.43-5.19c-1.57-1.4-9.84-4.88-10.62-2C594.3,213.27,602.76,219.49,608.2,217.26Z" style="fill:#92E3A9;stroke:#263238;stroke-linecap:round;stroke-linejoin:round"></path><line x1="608.2" y1="217.26" x2="600.34" y2="212.36" style="fill:none;stroke:#263238;stroke-linecap:round;stroke-linejoin:round"></line><line x1="613.45" y1="235.97" x2="607.88" y2="230.03" style="fill:none;stroke:#263238;stroke-linecap:round;stroke-linejoin:round"></line><path d="M609.74,232a6.94,6.94,0,0,0-2.44-5.19c-1.57-1.4-9.83-4.88-10.62-2C595.83,228,604.29,234.2,609.74,232Z" style="fill:#92E3A9;stroke:#263238;stroke-linecap:round;stroke-linejoin:round"></path><line x1="609.74" y1="231.97" x2="601.87" y2="227.07" style="fill:none;stroke:#263238;stroke-linecap:round;stroke-linejoin:round"></line><line x1="609.43" y1="197.12" x2="603.85" y2="191.43" style="fill:none;stroke:#263238;stroke-linecap:round;stroke-linejoin:round"></line><path d="M605.71,193.37a6.91,6.91,0,0,0-2.43-5.19c-1.57-1.4-9.84-4.88-10.62-2C591.8,189.38,600.26,195.6,605.71,193.37Z" style="fill:#92E3A9;stroke:#263238;stroke-linecap:round;stroke-linejoin:round"></path><line x1="605.71" y1="193.37" x2="597.84" y2="188.47" style="fill:none;stroke:#263238;stroke-linecap:round;stroke-linejoin:round"></line><line x1="606.74" y1="171.57" x2="601.35" y2="167.44" style="fill:none;stroke:#263238;stroke-linecap:round;stroke-linejoin:round"></line><path d="M603.21,169.37a7,7,0,0,0-2.44-5.19c-1.57-1.4-9.83-4.88-10.62-2C589.3,165.38,597.76,171.6,603.21,169.37Z" style="fill:#92E3A9;stroke:#263238;stroke-linecap:round;stroke-linejoin:round"></path><line x1="603.21" y1="169.37" x2="595.34" y2="164.47" style="fill:none;stroke:#263238;stroke-linecap:round;stroke-linejoin:round"></line><line x1="615.18" y1="248.98" x2="619.83" y2="241.39" style="fill:none;stroke:#263238;stroke-linecap:round;stroke-linejoin:round"></line><path d="M618.41,243.67a6.92,6.92,0,0,1,1.32-5.58c1.24-1.7,8.61-6.81,10-4.12C631.2,236.89,624.2,244.72,618.41,243.67Z" style="fill:#92E3A9;stroke:#263238;stroke-linecap:round;stroke-linejoin:round"></path><line x1="618.41" y1="243.67" x2="623.95" y2="238.47" style="fill:none;stroke:#263238;stroke-linecap:round;stroke-linejoin:round"></line><line x1="611.14" y1="210.27" x2="615.79" y2="202.69" style="fill:none;stroke:#263238;stroke-linecap:round;stroke-linejoin:round"></line><path d="M614.37,205a6.92,6.92,0,0,1,1.32-5.58c1.24-1.69,7-5.94,8.38-3.26C625.56,199.05,620.17,206,614.37,205Z" style="fill:#92E3A9;stroke:#263238;stroke-linecap:round;stroke-linejoin:round"></path><line x1="614.37" y1="204.96" x2="621.46" y2="198.19" style="fill:none;stroke:#263238;stroke-linecap:round;stroke-linejoin:round"></line><line x1="609.37" y1="193.26" x2="614.02" y2="185.68" style="fill:none;stroke:#263238;stroke-linecap:round;stroke-linejoin:round"></line><path d="M612.6,188a7,7,0,0,1,1.31-5.59c1.25-1.69,8.62-6.8,10-4.11C625.38,181.18,618.39,189,612.6,188Z" style="fill:#92E3A9;stroke:#263238;stroke-linecap:round;stroke-linejoin:round"></path><line x1="612.6" y1="187.96" x2="619.69" y2="181.18" style="fill:none;stroke:#263238;stroke-linecap:round;stroke-linejoin:round"></line><line x1="606.76" y1="168.33" x2="611.42" y2="160.74" style="fill:none;stroke:#263238;stroke-linecap:round;stroke-linejoin:round"></line><path d="M610,163a6.94,6.94,0,0,1,1.31-5.58c1.25-1.7,8.62-6.81,10-4.12C622.78,156.24,615.79,164.07,610,163Z" style="fill:#92E3A9;stroke:#263238;stroke-linecap:round;stroke-linejoin:round"></path><line x1="610" y1="163.02" x2="617.08" y2="156.25" style="fill:none;stroke:#263238;stroke-linecap:round;stroke-linejoin:round"></line><path d="M604.77,152.39a6.94,6.94,0,0,1,1.32-5.59c1.24-1.69,8.61-6.8,10-4.11C617.56,145.61,610.57,153.44,604.77,152.39Z" style="fill:#92E3A9;stroke:#263238;stroke-linecap:round;stroke-linejoin:round"></path><line x1="604.77" y1="152.39" x2="611.86" y2="145.61" style="fill:none;stroke:#263238;stroke-linecap:round;stroke-linejoin:round"></line><path d="M605.18,152.68a6.91,6.91,0,0,1-5.41-1.89c-1.55-1.42-5.86-9.28-3-10.36C599.78,139.25,606.84,147,605.18,152.68Z" style="fill:#92E3A9;stroke:#263238;stroke-linecap:round;stroke-linejoin:round"></path><line x1="605.18" y1="152.68" x2="599.19" y2="144.92" style="fill:none;stroke:#263238;stroke-linecap:round;stroke-linejoin:round"></line><line x1="625.11" y1="118.25" x2="625.11" y2="273.99" style="fill:none;stroke:#263238;stroke-linecap:round;stroke-linejoin:round"></line><line x1="640.49" y1="170.91" x2="629.73" y2="274.59" style="fill:none;stroke:#263238;stroke-linecap:round;stroke-linejoin:round"></line><line x1="629.9" y1="273.82" x2="626.8" y2="270.27" style="fill:none;stroke:#263238;stroke-linecap:round;stroke-linejoin:round"></line><path d="M626.8,270.27a6.92,6.92,0,0,0-1.32-5.58c-1.25-1.69-8.62-6.8-10-4.11C614,263.5,621,271.33,626.8,270.27Z" style="fill:#92E3A9;stroke:#263238;stroke-linecap:round;stroke-linejoin:round"></path><line x1="626.8" y1="270.27" x2="620.11" y2="263.85" style="fill:none;stroke:#263238;stroke-linecap:round;stroke-linejoin:round"></line><line x1="633.69" y1="236.9" x2="629.08" y2="233.05" style="fill:none;stroke:#263238;stroke-linecap:round;stroke-linejoin:round"></line><path d="M630.52,234.38a6.94,6.94,0,0,0-1.31-5.58c-1.25-1.7-8.62-6.8-10-4.11C617.73,227.61,624.73,235.44,630.52,234.38Z" style="fill:#92E3A9;stroke:#263238;stroke-linecap:round;stroke-linejoin:round"></path><line x1="630.52" y1="234.38" x2="623.83" y2="227.96" style="fill:none;stroke:#263238;stroke-linecap:round;stroke-linejoin:round"></line><line x1="632.23" y1="254.4" x2="627.57" y2="246.81" style="fill:none;stroke:#263238;stroke-linecap:round;stroke-linejoin:round"></line><path d="M629,249.09a6.94,6.94,0,0,0-1.31-5.58c-1.25-1.7-8.62-6.8-10-4.11C616.21,242.32,623.2,250.15,629,249.09Z" style="fill:#92E3A9;stroke:#263238;stroke-linecap:round;stroke-linejoin:round"></path><line x1="628.99" y1="249.09" x2="622.3" y2="242.67" style="fill:none;stroke:#263238;stroke-linecap:round;stroke-linejoin:round"></line><line x1="636.03" y1="213.33" x2="631.58" y2="208.21" style="fill:none;stroke:#263238;stroke-linecap:round;stroke-linejoin:round"></line><path d="M633,210.49a6.94,6.94,0,0,0-1.31-5.58c-1.25-1.7-8.63-6.8-10-4.12C620.21,203.72,627.21,211.54,633,210.49Z" style="fill:#92E3A9;stroke:#263238;stroke-linecap:round;stroke-linejoin:round"></path><line x1="633" y1="210.49" x2="626.31" y2="204.07" style="fill:none;stroke:#263238;stroke-linecap:round;stroke-linejoin:round"></line><line x1="638.36" y1="190.87" x2="634.07" y2="184.21" style="fill:none;stroke:#263238;stroke-linecap:round;stroke-linejoin:round"></line><path d="M635.49,186.49a6.94,6.94,0,0,0-1.31-5.58c-1.25-1.7-8.63-6.8-10-4.11C622.7,179.72,629.7,187.55,635.49,186.49Z" style="fill:#92E3A9;stroke:#263238;stroke-linecap:round;stroke-linejoin:round"></path><line x1="635.49" y1="186.49" x2="628.8" y2="180.07" style="fill:none;stroke:#263238;stroke-linecap:round;stroke-linejoin:round"></line><line x1="630.82" y1="266.85" x2="636.93" y2="260.39" style="fill:none;stroke:#263238;stroke-linecap:round;stroke-linejoin:round"></line><path d="M635.07,262.32a6.94,6.94,0,0,1,2.44-5.19c1.57-1.4,9.83-4.88,10.62-2C649,258.32,640.52,264.55,635.07,262.32Z" style="fill:#92E3A9;stroke:#263238;stroke-linecap:round;stroke-linejoin:round"></path><line x1="635.07" y1="262.32" x2="643.4" y2="257.15" style="fill:none;stroke:#263238;stroke-linecap:round;stroke-linejoin:round"></line><line x1="634.83" y1="228.15" x2="640.95" y2="221.68" style="fill:none;stroke:#263238;stroke-linecap:round;stroke-linejoin:round"></line><path d="M639.09,223.62a6.91,6.91,0,0,1,2.43-5.19c1.57-1.41,9.84-4.89,10.62-2C653,219.62,644.54,225.84,639.09,223.62Z" style="fill:#92E3A9;stroke:#263238;stroke-linecap:round;stroke-linejoin:round"></path><line x1="639.09" y1="223.62" x2="647.42" y2="218.45" style="fill:none;stroke:#263238;stroke-linecap:round;stroke-linejoin:round"></line><line x1="636.6" y1="211.14" x2="642.71" y2="204.67" style="fill:none;stroke:#263238;stroke-linecap:round;stroke-linejoin:round"></line><path d="M640.86,206.61a6.91,6.91,0,0,1,2.43-5.19c1.57-1.41,9.83-4.89,10.62-2C654.76,202.61,646.31,208.83,640.86,206.61Z" style="fill:#92E3A9;stroke:#263238;stroke-linecap:round;stroke-linejoin:round"></path><line x1="640.86" y1="206.61" x2="649.18" y2="201.44" style="fill:none;stroke:#263238;stroke-linecap:round;stroke-linejoin:round"></line><line x1="639.12" y1="184.92" x2="645.3" y2="179.73" style="fill:none;stroke:#263238;stroke-linecap:round;stroke-linejoin:round"></line><path d="M643.44,181.67a6.94,6.94,0,0,1,2.44-5.19c1.57-1.41,9.83-4.89,10.61-2C657.35,177.67,648.89,183.89,643.44,181.67Z" style="fill:#92E3A9;stroke:#263238;stroke-linecap:round;stroke-linejoin:round"></path><line x1="643.44" y1="181.67" x2="651.77" y2="176.5" style="fill:#92E3A9;stroke:#263238;stroke-linecap:round;stroke-linejoin:round"></line><path d="M640.52,170.19A7,7,0,0,1,643,165c1.57-1.41,9.84-4.89,10.62-2C654.43,166.19,646,172.41,640.52,170.19Z" style="fill:#92E3A9;stroke:#263238;stroke-linecap:round;stroke-linejoin:round"></path><line x1="640.52" y1="170.19" x2="648.85" y2="165.02" style="fill:none;stroke:#263238;stroke-linecap:round;stroke-linejoin:round"></line><path d="M640.86,170.56a6.94,6.94,0,0,1-4.9-3c-1.24-1.71-3.83-10.3-.85-10.77C638.34,156.31,643.65,165.37,640.86,170.56Z" style="fill:#92E3A9;stroke:#263238;stroke-linecap:round;stroke-linejoin:round"></path><line x1="640.86" y1="170.56" x2="636.6" y2="161.73" style="fill:none;stroke:#263238;stroke-linecap:round;stroke-linejoin:round"></line><line x1="624.88" y1="256.91" x2="619.82" y2="250.15" style="fill:none;stroke:#263238;stroke-linecap:round;stroke-linejoin:round"></line><path d="M621.47,252.26a6.93,6.93,0,0,0-1.88-5.41c-1.42-1.56-9.28-5.88-10.36-3.06C608.05,246.85,615.82,253.91,621.47,252.26Z" style="fill:#92E3A9;stroke:#263238;stroke-linecap:round;stroke-linejoin:round"></path><line x1="621.47" y1="252.26" x2="614.15" y2="246.57" style="fill:none;stroke:#263238;stroke-linecap:round;stroke-linejoin:round"></line><line x1="625.06" y1="224.29" x2="619.82" y2="219.41" style="fill:none;stroke:#263238;stroke-linecap:round;stroke-linejoin:round"></line><path d="M621.47,221.53a7,7,0,0,0-1.88-5.42c-1.42-1.55-9.28-5.87-10.36-3.06C608.05,216.11,615.82,223.18,621.47,221.53Z" style="fill:#92E3A9;stroke:#263238;stroke-linecap:round;stroke-linejoin:round"></path><line x1="621.47" y1="221.53" x2="614.15" y2="215.83" style="fill:none;stroke:#263238;stroke-linecap:round;stroke-linejoin:round"></line><line x1="625.24" y1="190.39" x2="619.82" y2="183.32" style="fill:none;stroke:#263238;stroke-linecap:round;stroke-linejoin:round"></line><path d="M621.47,185.44a6.93,6.93,0,0,0-1.88-5.41c-1.42-1.56-9.28-5.88-10.36-3.06C608.05,180,615.82,187.09,621.47,185.44Z" style="fill:#92E3A9;stroke:#263238;stroke-linecap:round;stroke-linejoin:round"></path><line x1="621.47" y1="185.44" x2="614.15" y2="179.75" style="fill:none;stroke:#263238;stroke-linecap:round;stroke-linejoin:round"></line><line x1="624.88" y1="163.87" x2="619.82" y2="159.3" style="fill:none;stroke:#263238;stroke-linecap:round;stroke-linejoin:round"></line><path d="M621.47,161.42a6.93,6.93,0,0,0-1.88-5.41c-1.42-1.56-9.28-5.88-10.36-3.06C608.05,156,615.82,163.07,621.47,161.42Z" style="fill:#92E3A9;stroke:#263238;stroke-linecap:round;stroke-linejoin:round"></path><line x1="621.47" y1="161.42" x2="614.15" y2="155.73" style="fill:none;stroke:#263238;stroke-linecap:round;stroke-linejoin:round"></line><line x1="625.18" y1="139.83" x2="619.93" y2="135.98" style="fill:none;stroke:#263238;stroke-linecap:round;stroke-linejoin:round"></line><path d="M621.47,137.3a7,7,0,0,0-1.88-5.42c-1.42-1.56-9.28-5.87-10.36-3.06C608.05,131.88,615.82,138.94,621.47,137.3Z" style="fill:#92E3A9;stroke:#263238;stroke-linecap:round;stroke-linejoin:round"></path><line x1="621.47" y1="137.3" x2="614.15" y2="131.6" style="fill:none;stroke:#263238;stroke-linecap:round;stroke-linejoin:round"></line><line x1="626.17" y1="265.07" x2="630.53" y2="259.53" style="fill:none;stroke:#263238;stroke-linecap:round;stroke-linejoin:round"></line><path d="M628.88,261.65a6.93,6.93,0,0,1,1.89-5.42c1.41-1.55,9.27-5.87,10.36-3.06C642.3,256.23,634.53,263.3,628.88,261.65Z" style="fill:#92E3A9;stroke:#263238;stroke-linecap:round;stroke-linejoin:round"></path><line x1="628.88" y1="261.65" x2="636.63" y2="255.65" style="fill:none;stroke:#263238;stroke-linecap:round;stroke-linejoin:round"></line><line x1="625.12" y1="217.71" x2="630.53" y2="210.65" style="fill:none;stroke:#263238;stroke-linecap:round;stroke-linejoin:round"></line><path d="M628.88,212.77a6.93,6.93,0,0,1,1.89-5.42c1.41-1.56,9.27-5.87,10.36-3.06C642.3,207.35,634.53,214.41,628.88,212.77Z" style="fill:#92E3A9;stroke:#263238;stroke-linecap:round;stroke-linejoin:round"></path><line x1="628.88" y1="212.77" x2="636.63" y2="206.77" style="fill:none;stroke:#263238;stroke-linecap:round;stroke-linejoin:round"></line><line x1="625.12" y1="193.58" x2="630.53" y2="186.52" style="fill:none;stroke:#263238;stroke-linecap:round;stroke-linejoin:round"></line><path d="M628.88,188.64a6.91,6.91,0,0,1,1.89-5.41c1.41-1.56,9.27-5.88,10.36-3.07C642.3,183.23,634.53,190.29,628.88,188.64Z" style="fill:#92E3A9;stroke:#263238;stroke-linecap:round;stroke-linejoin:round"></path><line x1="628.88" y1="188.64" x2="636.63" y2="182.64" style="fill:none;stroke:#263238;stroke-linecap:round;stroke-linejoin:round"></line><line x1="625.12" y1="161.69" x2="630.53" y2="154.63" style="fill:none;stroke:#263238;stroke-linecap:round;stroke-linejoin:round"></line><path d="M628.88,156.75a6.91,6.91,0,0,1,1.89-5.41c1.41-1.56,9.27-5.88,10.36-3.06C642.3,151.34,634.53,158.4,628.88,156.75Z" style="fill:#92E3A9;stroke:#263238;stroke-linecap:round;stroke-linejoin:round"></path><line x1="628.88" y1="156.75" x2="636.63" y2="150.75" style="fill:none;stroke:#263238;stroke-linecap:round;stroke-linejoin:round"></line><line x1="625.35" y1="134.17" x2="630.66" y2="130.03" style="fill:none;stroke:#263238;stroke-linecap:round;stroke-linejoin:round"></line><path d="M628.88,131.68a6.91,6.91,0,0,1,1.89-5.41c1.41-1.56,9.27-5.88,10.36-3.07C642.3,126.27,634.53,133.33,628.88,131.68Z" style="fill:#92E3A9;stroke:#263238;stroke-linecap:round;stroke-linejoin:round"></path><line x1="628.88" y1="131.68" x2="636.63" y2="125.68" style="fill:none;stroke:#263238;stroke-linecap:round;stroke-linejoin:round"></line><path d="M624.79,120.56a6.91,6.91,0,0,1,1.89-5.41c1.41-1.56,9.27-5.88,10.35-3.06C638.21,115.15,630.44,122.21,624.79,120.56Z" style="fill:#92E3A9;stroke:#263238;stroke-linecap:round;stroke-linejoin:round"></path><line x1="624.79" y1="120.56" x2="632.54" y2="114.56" style="fill:none;stroke:#263238;stroke-linecap:round;stroke-linejoin:round"></line><path d="M625.17,120.89a6.9,6.9,0,0,1-5.19-2.44c-1.4-1.57-4.87-9.84-2-10.62C621.19,107,627.4,115.45,625.17,120.89Z" style="fill:#92E3A9;stroke:#263238;stroke-linecap:round;stroke-linejoin:round"></path><line x1="625.17" y1="120.89" x2="620.02" y2="112.56" style="fill:none;stroke:#263238;stroke-linecap:round;stroke-linejoin:round"></line><path d="M604.18,271a36.16,36.16,0,0,0-5.86,20.1c0,17.4,11.41,31.51,25.48,31.51s25.49-14.11,25.49-31.51a36.16,36.16,0,0,0-5.87-20.1Z" style="fill:#263238;stroke:#263238;stroke-linecap:round;stroke-linejoin:round"></path></g><g id="Candles"><rect x="515.23" y="263.83" width="35.19" height="58.78" style="fill:#e3e3e3;stroke:#263238;stroke-linecap:round;stroke-linejoin:round"></rect><path d="M537.14,254.88c0-4.89-4.32-8.85-4.32-8.85s-4.32,4-4.32,8.85,1.93,8.85,4.32,8.85S537.14,259.77,537.14,254.88Z" style="fill:#92E3A9;stroke:#263238;stroke-linecap:round;stroke-linejoin:round"></path><path d="M535.09,258.48c0,2.11-1,3.81-2.27,3.81s-2.26-1.7-2.26-3.81,1-3.8,2.26-3.8S535.09,256.38,535.09,258.48Z" style="fill:#fff;stroke:#263238;stroke-linecap:round;stroke-linejoin:round"></path><rect x="555.37" y="276.39" width="35.19" height="46.22" style="fill:#bfbfbf;stroke:#263238;stroke-linecap:round;stroke-linejoin:round"></rect><path d="M577.29,267.44c0-4.89-4.32-8.85-4.32-8.85s-4.33,4-4.33,8.85,1.94,8.85,4.33,8.85S577.29,272.33,577.29,267.44Z" style="fill:#92E3A9;stroke:#263238;stroke-linecap:round;stroke-linejoin:round"></path><path d="M575.23,271c0,2.11-1,3.81-2.26,3.81s-2.27-1.7-2.27-3.81,1-3.81,2.27-3.81S575.23,268.94,575.23,271Z" style="fill:#fff;stroke:#263238;stroke-linecap:round;stroke-linejoin:round"></path></g><g id="Furniture"><polyline points="662.79 443.53 662.79 327.32 450.08 327.32 450.08 441.53" style="fill:#fff;stroke:#263238;stroke-linecap:round;stroke-linejoin:round"></polyline><rect x="450.08" y="327.32" width="212.71" height="4.45" style="fill:#263238;stroke:#263238;stroke-linecap:round;stroke-linejoin:round"></rect><rect x="464.85" y="334.41" width="185.53" height="37.81" style="fill:#fff;stroke:#263238;stroke-linecap:round;stroke-linejoin:round"></rect><rect x="528.47" y="350.34" width="58.3" height="5.95" style="fill:#263238;stroke:#263238;stroke-linecap:round;stroke-linejoin:round"></rect><rect x="464.85" y="380.5" width="185.53" height="37.81" style="fill:#fff;stroke:#263238;stroke-linecap:round;stroke-linejoin:round"></rect><rect x="528.47" y="396.43" width="58.3" height="5.95" style="fill:#263238;stroke:#263238;stroke-linecap:round;stroke-linejoin:round"></rect><rect x="445.88" y="322" width="221.1" height="5.44" style="fill:#fff;stroke:#263238;stroke-linecap:round;stroke-linejoin:round"></rect></g><g id="Characters"><path d="M251.42,110.56s-19.66,8.53-19.8,27.41a203.92,203.92,0,0,0,2.17,32.4l-2.25-1a34.4,34.4,0,0,0,2.39,4.23c.42.28-4.08-.28-3.24.84s.42,1.41,3.38,3a7.29,7.29,0,0,1,3.66,4s-3.66-.85-4.93,0S240,195,255.91,195.16s13.1-9.58,19.3-20.28,34.23-18.88,39.16-18.74,15.07,3.38,21.41-5.21,2.4-14.09,2.4-14.09,1.13,2.25,2,1.13-1.14-8.56-14.24-20.39-39.16-20-56.49-16.5S251.42,110.56,251.42,110.56Z" style="fill:#263238;stroke:#263238;stroke-linecap:round;stroke-linejoin:round"></path><path d="M307.87,141.2a20.74,20.74,0,0,0,3-3.87" style="fill:none;stroke:#fff;stroke-linecap:round;stroke-linejoin:round"></path><path d="M246.14,164.87a244.55,244.55,0,0,0,38.21-9.54A65.45,65.45,0,0,0,303.8,145" style="fill:none;stroke:#fff;stroke-linecap:round;stroke-linejoin:round"></path><path d="M240.52,165.75s1.08-.14,3-.44" style="fill:none;stroke:#fff;stroke-linecap:round;stroke-linejoin:round"></path><path d="M286.08,134.37c-5.46,7.76-16.58,19.5-36.79,25.93" style="fill:none;stroke:#fff;stroke-linecap:round;stroke-linejoin:round"></path><path d="M290.5,126.67a31,31,0,0,1-1.94,3.82" style="fill:none;stroke:#fff;stroke-linecap:round;stroke-linejoin:round"></path><path d="M263.5,143.48s-16.11,11.14-22,14" style="fill:none;stroke:#fff;stroke-linecap:round;stroke-linejoin:round"></path><path d="M325.09,137.09s5-6.63,5-11.85" style="fill:none;stroke:#fff;stroke-linecap:round;stroke-linejoin:round"></path><path d="M288.65,202.74s17.43,1.42,26,12.68,10.14,34.47,10.14,43.7,12.85,56.73,12.85,56.73l-33.84,9.79s6.79-47.59.94-63.14-21-43.7-22.75-52S288.65,202.74,288.65,202.74Z" style="fill:#fff;stroke:#263238;stroke-linecap:round;stroke-linejoin:round"></path><path d="M313.51,260.93a58.67,58.67,0,0,0,15.55-4.06s-2.48-30-9.92-39S300,204.16,295.72,204.16h-4.28s-2.25,26.13-.23,27a83.44,83.44,0,0,0,9.24,3.38" style="fill:#263238;stroke:#263238;stroke-linecap:round;stroke-linejoin:round"></path><path d="M328.55,252a68.43,68.43,0,0,1-16.39,4.66l1.35,4.28a58.67,58.67,0,0,0,15.55-4.06S328.9,255,328.55,252Z" style="fill:#fff;stroke:#263238;stroke-linecap:round;stroke-linejoin:round"></path><path d="M142.41,438.34c-.34-9.68-1.66-61.47,9.79-85.38,12.62-26.35,30.45-28.06,28.9-33.82s-2.53-75,10.76-94,47.4-21,47.4-21l28.11-.15s23.27-3.33,29.62,4.23a64.48,64.48,0,0,1,6.61,26.2l3.37,3.87c4.65,11.52,10.6,37.12,6.77,45.91-2.41,5.51-5.6,10.31-12.9,24.26-6.68,12.74-18.34,113-20.31,130.29" style="fill:#263238;stroke:#263238;stroke-linecap:round;stroke-linejoin:round"></path><path d="M254.2,196.66s-15.91,1.64-19.65,6.32-4.21,20.58-1.87,33.68,2.1,22.46,5.61,21.76,13.57-14.74,18.48-14.74-1.17,1.4,3,6.78,14.74,9.13,14.74,9.13l8.66-2.58s5.61-2.1,6.55-6.31-1.87-8.89.47-10.3,11.93,1.41,14.5.94,3-7.25-1.4-22.22-7-18.25-23.4-21.53S254.2,196.66,254.2,196.66Z" style="fill:#fff;stroke:#263238;stroke-linecap:round;stroke-linejoin:round"></path><path d="M252.8,199.7s-8,3-9.13,8,8.66,26.91,18.25,38.84,12.87,19.65,15.91,18.95,13.33-31.35,14.74-41.64,3.27-11.7-3.75-20.12S264.49,194.09,252.8,199.7Z" style="fill:#fff;stroke:#263238;stroke-linecap:round;stroke-linejoin:round"></path><path d="M281.22,228c-1.89-8.37,2.7-19.71,2.7-19.71a13.25,13.25,0,0,0,9.18,3.24c7.86-.23,11.6-4.86,17-12.69s10-15.66,10.53-20.51,2.43-7.29,4.05-15.66-1.08-24-1.08-24-3.51,6.21-11.61,12.69-2.16-3.51-2.16-3.51-5.94,4.32-25.37,10.53-29.43,10-31,10.53-1.34,2.43.27,5.94a9.27,9.27,0,0,0,4.05,4.59s-4.59,19.43-9.17,26.18" style="fill:#fff;stroke:#263238;stroke-linecap:round;stroke-linejoin:round"></path><path d="M302.41,162.86s-9-5-17.25-.27" style="fill:none;stroke:#263238;stroke-linecap:round;stroke-linejoin:round;stroke-width:2px"></path><path d="M312.74,162.51a18.78,18.78,0,0,1,9.85-2.3" style="fill:none;stroke:#263238;stroke-linecap:round;stroke-linejoin:round;stroke-width:2px"></path><path d="M311,165.12s-2.89,4.79-2.89,8.32,2,13.62.29,15.13-11.29-.5-11.29-.5" style="fill:#fff;stroke:#263238;stroke-linecap:round;stroke-linejoin:round"></path><path d="M295,174.27c-.2,1.82-1.19,3.21-2.21,3.1s-1.68-1.69-1.48-3.51,1.19-3.2,2.21-3.09S295.18,172.45,295,174.27Z" style="fill:#263238"></path><path d="M315,173.35c-.52,1.76-1.74,3-2.72,2.66s-1.36-1.95-.85-3.71,1.74-3,2.72-2.66S315.48,171.59,315,173.35Z" style="fill:#263238"></path><path d="M302,196.1s-7.24,1.73-12.74-3.48" style="fill:none;stroke:#263238;stroke-linecap:round;stroke-linejoin:round"></path><path d="M264.74,163.26s2.8,3.14,3.5,3,.87-3,.87-3S270.68,157.5,264.74,163.26Z" style="fill:#263238;stroke:#263238;stroke-linecap:round;stroke-linejoin:round"></path><path d="M283.92,208.26l-6.78-5.74s1.16,12.89,3.66,19.7C280.8,222.22,280.72,213,283.92,208.26Z" style="fill:#263238;stroke:#263238;stroke-linecap:round;stroke-linejoin:round"></path><path d="M257.73,179.38l1.43-.24a11,11,0,0,0,2.79-1.22,25.38,25.38,0,0,0,1.4,5.06" style="fill:#fff;stroke:#263238;stroke-linecap:round;stroke-linejoin:round"></path><path d="M162.92,441.56s-13-47.23,15.63-64.38S256,356,299.45,350.67c32.56-4,66.31,2.94,92.24,23.74,19.2,15.41,30.81,39.89,37.68,63.14" style="fill:#fff;stroke:#263238;stroke-linecap:round;stroke-linejoin:round"></path><path d="M297.76,316.84s-.31,4.72-2.51,6-5.35-5.34-11.32-1.57-5,10.06-5.65,11.63-4.72-.63-7.23,2.83,2.2,16.65,2.2,16.65,12.57.63,33.63,4.72,39.59,14.46,39.59,14.46,5.35-.95,4.09-9.43-6.92-17.6-21.37-24.2S297.76,316.84,297.76,316.84Z" style="fill:#263238;stroke:#263238;stroke-linecap:round;stroke-linejoin:round"></path><path d="M390.94,301s6.52.82,7.07,4.89a27.85,27.85,0,0,1-.55,11.68c-1.08,3.53-11.95,5.43-11.95,5.43S389.88,304.39,390.94,301Z" style="fill:#fff;stroke:#263238;stroke-linecap:round;stroke-linejoin:round"></path><path d="M399.09,320.87A35.56,35.56,0,0,1,398,326c-.55,1.35-2.18,4.34-3.54,4.34s-1.08-.81-.54-2.44,2.45-6.79,2.45-6.79Z" style="fill:#fff;stroke:#263238;stroke-linecap:round;stroke-linejoin:round"></path><path d="M400.45,315.71a17,17,0,0,1-1.36,5.16c-1.08,2.17-11.4,6.51-11.4,6.51s-1.91-.81-.28-3S400.45,315.71,400.45,315.71Z" style="fill:#fff;stroke:#263238;stroke-linecap:round;stroke-linejoin:round"></path><path d="M398.55,310s2.71,3.81,1.9,5.71-9,7.6-10.86,8.14-3.39-2.38-1.63-3.25S398.55,310,398.55,310Z" style="fill:#fff;stroke:#263238;stroke-linecap:round;stroke-linejoin:round"></path><path d="M390.94,301l9,3.26s1.63,4.35,1.35,5.43-10.59,7.61-12.22,7.88-.54-3.53.28-4.62,6-6.24,6-6.24" style="fill:#fff;stroke:#263238;stroke-linecap:round;stroke-linejoin:round"></path><path d="M389.32,297a51.87,51.87,0,0,0,5.43,1.36c.81,0,3.26,2.44,5.7,1.63s4.89,1.35,3,3.53a6.57,6.57,0,0,1-5.43,2.44c-1.63,0-7.61-1.63-7.61-1.63Z" style="fill:#fff;stroke:#263238;stroke-linecap:round;stroke-linejoin:round"></path><path d="M363.39,275.8s-5.06,4.77-8.42,5.33-6.18-3.08-14.88-2.8-22.22,5-29.87,15.61c-16.13,22.39-13.07,29.85-13.63,31s-1.12,15.43,5.89,19.36,7.86,5.05,12.35,2.81,13.19-5,14.88-2.53,1.4,7.58,2.8,8.42,4.77-3.37,7.58,0a19.47,19.47,0,0,1,3.65,8.14c.28.84,3.93,2.81,3.93,2.81s-14.32,9.26-14.6,30,14.6,37.89,14.6,37.89,52.76-54.73,82.51-69.61,34-15.43,34-15.43-28.39-12.66-40.46-12.66-29.7,1.15-30.54,1.15-2.64-6.18-3.43-15.58,4.27-17.82,2.3-22-6.17-5.05-11.22-7.3a121.42,121.42,0,0,0-11.51-4.21s-.84-7.29-2.53-9.54S363.39,275.8,363.39,275.8Z" style="fill:#fff;stroke:#263238;stroke-linecap:round;stroke-linejoin:round"></path><path d="M370.12,289.27a24.53,24.53,0,0,0-3.93,4.49c-1.12,2-3.93,4.49-5.05,4.49" style="fill:none;stroke:#263238;stroke-linecap:round;stroke-linejoin:round"></path><path d="M337.38,295.21s.59-4.12,2.75-5.89,3.73-1.57,4.71-2-2.16,1.77-3.73,3.53S337.38,295.21,337.38,295.21Z" style="fill:#263238;stroke:#263238;stroke-linecap:round;stroke-linejoin:round"></path><path d="M330.91,292.66s-2-2.35,1-6.67,8.44-4.12,8.44-4.12-.4-2.16-4.32-.59S328.55,286,330.91,292.66Z" style="fill:#263238;stroke:#263238;stroke-linecap:round;stroke-linejoin:round"></path><path d="M397.37,361.7c.86.3,1.7.63,2.52,1" style="fill:none;stroke:#263238;stroke-linecap:round;stroke-linejoin:round"></path><path d="M370.92,359.65s12.84-1.71,24,1.28" style="fill:none;stroke:#263238;stroke-linecap:round;stroke-linejoin:round"></path><path d="M345.25,342.54c-13.57-9.37-25.41-26.4-26.15-42.68-.38-8.43,1.22-13.35,2.86-16.14a36.25,36.25,0,0,0-11.74,10.22c-16.13,22.39-13.07,29.85-13.63,31s-1.12,15.43,5.89,19.36,7.86,5.05,12.35,2.81,13.19-5,14.88-2.53,1.4,7.58,2.8,8.42,4.77-3.37,7.58,0a19.47,19.47,0,0,1,3.65,8.14c.28.84,3.93,2.81,3.93,2.81,8.58-4.27,19.79-5.11,19.79-5.11S358.82,351.92,345.25,342.54Z" style="fill:#92E3A9;stroke:#263238;stroke-linecap:round;stroke-linejoin:round"></path><path d="M393.14,335.3s3.61,6.58,14.46,11.55,27.14,6.56,28,5.21,3.17-5-2.71-7.92-11.31,0-13.58-2.26-.67-11.09-8.59-11.54-12.44,2.26-14-.45-6.11-3.62-6.11-3.62S391.11,333,393.14,335.3Z" style="fill:#263238;stroke:#263238;stroke-linecap:round;stroke-linejoin:round"></path><path d="M338.14,442s32.4-62.51,79.66-82.33,64.42-17.15,78.52-12.58,36.21,21.73,36.21,21.73S639,390,667.54,444.48" style="fill:#92E3A9;stroke:#263238;stroke-linecap:round;stroke-linejoin:round"></path><path d="M502.13,373.33c2.24-.41,4.54-.78,6.89-1.09" style="fill:none;stroke:#263238;stroke-linecap:round;stroke-linejoin:round"></path><path d="M422,425.46s19-37,70.69-50.09" style="fill:none;stroke:#263238;stroke-linecap:round;stroke-linejoin:round"></path><path d="M434.21,396.66a97.25,97.25,0,0,1,13.57-9.54" style="fill:none;stroke:#263238;stroke-linecap:round;stroke-linejoin:round"></path><path d="M407.72,427.75A123.19,123.19,0,0,1,429.28,401" style="fill:none;stroke:#263238;stroke-linecap:round;stroke-linejoin:round"></path><path d="M306.2,324.13s16.75-6.07,18.4-7S336,310.89,339,309.6s14.72-1.84,18-2.58,5.71-4,6.63-2.57,0,3.86-1.11,5-7.17,3.49-7.72,3.68,12.32-.19,17.66-.74,9.93.55,9.75,2-1.11,2.21-2.76,2.58-9,.92-11.59,1.29-7.55,1.47-7.55,1.47,8.28.18,12.33.18,10.67-1.1,11.59-.18,1.29,2.21-1.1,3.31A54.88,54.88,0,0,1,371.33,326c-3.12.37-13.43,1.84-13.43,1.84a26,26,0,0,0,10.31,1.84c6.44,0,9.56-.73,9.75.74s-.37,2.58-1.29,2.94A36.22,36.22,0,0,1,366.18,335h-9.93a82.41,82.41,0,0,0,9.38,2.21c2.39.18,7.18.55,7.54,1.65s-1.47,1.84-4,2.21S354,340.14,352.2,340s-4.23.18-8.1.18-16.19-2.94-16.19-2.94-37.9,12-39.18,12.32-4.05,1.11-4.05,1.11-17.11,2.57-34,5.7-52.43,7.18-54.09,5.89-14.54-62.37-15.82-69l38.45-.91s1.29,23.54,3.5,28.7c0,0,8.83-.37,27.22,2S294.8,328,306.2,324.13Z" style="fill:#fff;stroke:#263238;stroke-linecap:round;stroke-linejoin:round"></path><path d="M222.68,321a19.69,19.69,0,0,0-9.57,5.7" style="fill:none;stroke:#263238;stroke-linecap:round;stroke-linejoin:round"></path><path d="M219.58,210.24s-30.41-3.38-39.2,25.23S177,297,177,297s9.68,2,24.77.67,18.48-2.25,18.48-2.25l4.05-18s4.73-7.21,4.73-22.3" style="fill:#263238;stroke:#263238;stroke-linecap:round;stroke-linejoin:round"></path><path d="M221.36,290.46c-16.1,3.69-35.41,2.75-45,1.94.32,2.9.6,4.57.6,4.57s9.68,2,24.77.67,18.48-2.25,18.48-2.25Z" style="fill:#fff;stroke:#263238;stroke-linecap:round;stroke-linejoin:round"></path></g></svg>
