<svg xmlns="http://www.w3.org/2000/svg" viewBox="0 0 500 500"><g id="background-simple"><path d="M184.69,461.88C293.67,482,402.11,391.34,452,304.44c33.15-57.74,46.36-125.52,27-180.67C464.84,83.36,429.18,44.2,376.17,42.49c-59.09-1.92-106.65,55.92-167.34,54.74S76.48,121,41.74,166.05-.1,293.37,29.45,357.17c16.85,36.38,46.67,67.53,85.44,86.44,21.31,10.39,44.33,13.34,68.47,18Z" style="fill:#92E3A9"></path><path d="M184.69,461.88C293.67,482,402.11,391.34,452,304.44c33.15-57.74,46.36-125.52,27-180.67C464.84,83.36,429.18,44.2,376.17,42.49c-59.09-1.92-106.65,55.92-167.34,54.74S76.48,121,41.74,166.05-.1,293.37,29.45,357.17c16.85,36.38,46.67,67.53,85.44,86.44,21.31,10.39,44.33,13.34,68.47,18Z" style="fill:#fff;opacity:0.8"></path></g><g id="reproductive-system"><path d="M184.16,183.54s-8.17-.4-18,4.91-19.62,8.58-25.34,4.49-6.94-3.68-6.94-3.68l.41,19.62a118,118,0,0,0,18.38-9.4c9.81-6.13,24.52-13.08,36-11.44Z" style="fill:#263238;stroke:#263238;stroke-linecap:round;stroke-linejoin:round"></path><path d="M312.22,183.54s8.17-.4,18,4.91,19.61,8.58,25.33,4.49,7-3.68,7-3.68l-.41,19.62a118.32,118.32,0,0,1-18.39-9.4c-9.8-6.13-24.51-13.08-35.95-11.44Z" style="fill:#263238;stroke:#263238;stroke-linecap:round;stroke-linejoin:round"></path><path d="M184.16,157s-14.3,12.25-26.14,11.44-15.94-7-28.2-21.25S81.61,133.7,81.61,133.7s-10.22-9-23.29-6.13-22.47,12.25-13.89,33.91,23.69,30.64,24.1,33.91,2.86,2.05,2,8.18,2,6.94,2.86,5.31-.82-8.58-.41-10.22,0,5.72,4.08,9,6.54,4.09,6.54,1.23-1.22-7.77-1.63-10.63-.82-4.49-.82-4.49a95.37,95.37,0,0,0,14.3-.41c7.76-.82,13.08-13.07,8.58-13.07s-20.43-2.46-30.64-10.22-11.85-20.84-4.91-23.7,9.81,1.64,15.53,2,23.7,1.22,32.28,7.76,22.06,24.92,31.46,26.15S165,175.37,176,179.05s9.4,19.2,9.81,29,9.81,14.3,19.61,22.06,12.67,15.53,9.4,27.38-11,24.51-6.54,41.27,18.39,38.4,20.43,47.39,3.68,39.23,3.27,48.63-1.23,13.48,0,13.89,6.95-2.86,6.95-2.86,9,4.49,22.88,0c0,0,4.9,2.86,7.35,2s.41-5.72,0-13.07,2.45-42.09,6.54-56.39,17.57-24.92,17.57-48.62-11.44-35.55-9-45.76,18.8-15.53,24.92-26.56,6.13-29.42,9.4-34.32,13.89-6.13,22.47-3.27,18.8,2.86,27-8.58,22.47-19.21,35.55-20.84,13.48-3.68,21.65-3.68,11.85,3.27,10.63,11.44-11.44,15.12-20,18-14.71,4.49-14.71,4.49,15.52,9,15.93,11.44-.81,5.32-2,10.63.41,7.35,3.68,3.27,5.72-13.9,6.94-9.81-1.63,12.67,1.23,12.67,0-6.13,5.31-14.3,21.66-14.3,25.74-40.86S442,126.34,432.59,128s-4.5,2.86-21.25,6.12-31.87,9-40.45,16.76-14.3,16.75-27.78,16.34S311.24,152.9,299,140.64s-29-20-52.3-20.43S201.73,138.19,184.16,157Z" style="fill:#fff;stroke:#263238;stroke-linecap:round;stroke-linejoin:round"></path><path d="M332.63,167.6s-18-6.76-32.67-19.16S267.29,127.6,256,125.91s-20.28-2.25-34.36,6.2S198,150.7,193.5,155.2a105.5,105.5,0,0,1-10.7,9,285.4,285.4,0,0,1,67-8.45C285.88,155.77,332.63,167.6,332.63,167.6Z" style="fill:#d9d9d9"></path><path d="M322.49,176s-12.95-4.5-24.78-1.12-18,8.45-20.84,22.53-3.38,28.16-7.33,34.36-11.82,9.57-11.82,15.77,5.63,43.93,8.44,47.31,11.27.56,15.21-1.13,6.2-7.32,3.95-20.27-10.14-27.6-6.2-36.61,24.78-10.14,28.73-27S309.54,178.3,322.49,176Z" style="fill:#d9d9d9"></path><path d="M178.3,177.73s12.95-4.5,24.78-1.12,17.86,5.47,19.71,19.71c1.69,13,4,24.78,7.89,31s9.57,14.08,9.57,20.28-2.81,45.62-5.63,49-10.7-1.13-14.64-2.82-6.76-5.63-4.51-18.58,10.14-27.6,6.2-36.61-25.35-19.72-28.73-29.86C187.45,192.25,191.25,180,178.3,177.73Z" style="fill:#d9d9d9"></path><path d="M417.06,192.12c.41,2.46-.81,5.32-2,10.63a9.88,9.88,0,0,0-.27,4.31,23.59,23.59,0,0,0,3.54-4.31c2.45-4.09,4.9-9.81,9.4-11s15.52-6.54,21.65-19.62,6.54-24.1,1.64-33.5-17.16-8.17-25.75-5.72-22.06,4.49-31.87,7.76-19.61,10.22-24.92,14.71-9.4,12.26-18,14.71-25.74-.82-49.44-5.31a256.4,256.4,0,0,0-43.6-4.09,44.35,44.35,0,0,1-4.74-.3c-5.08-.58-19.14-1.47-42.37,2.35-29.82,4.9-48.62,11-57.2,10.21S135.54,161.48,123.28,150,98,139.82,89.78,138.6s-17.16-6.54-22.88-8.17-18.39,2.45-19.61,18.38,11.44,30.24,17.16,34.73,9,9,9.4,13.49a12.68,12.68,0,0,0,9.78,11.42c-.1-2.9-1.22-7.47-1.61-10.2s-.82-4.49-.82-4.49a95.37,95.37,0,0,0,14.3-.41c4.75-.5,8.58-5.28,9.81-8.92a70.39,70.39,0,0,1-19.21-4.56c-9.8-4.09-25.33-8.58-25.33-24.93s11.44-15.12,16.34-12.26S94.27,148,102.45,148s18,4.49,24.1,13.48,15.12,19.2,27.79,17.16,31-5.31,43.31-6.95,26.15,4.91,29.83,17.57-1.64,22.07,6.12,34.73,11.45,12.67,11.85,24.52-2,22.88-3.26,33.1-.82,11,0,16.75-1.64,7.76-4.91,7.76-18.38-7.35-18.38-7.35a82.17,82.17,0,0,0,8.17,31.05c7.76,15.53,11.85,29.83,11.85,44.95v31.05s9,4.49,22.88,0c0,0-.41-29.83,1.22-46.58s10.22-26.56,14.71-38.82,4.5-20.84,4.5-20.84-15.12,4.91-18.39,4.91-4.49-6.95-3.68-9.4-2-15.53-2.86-21.25-6.13-27.37-4.49-32.28,5.72-6.94,8.17-10.21,6.95-10.22,9.4-26.15,6.94-28.6,18.38-33.51,26.15.82,35.14.82,21.25,13.08,33.92,1.64,15.52-17.16,29.82-23.29,26.56-4.5,34.33-8.18,20-1.63,18.79,12.67S428.5,175,420.33,177.82s-19.2,2.86-19.2,2.86S416.65,189.67,417.06,192.12Z" style="fill:#92E3A9;stroke:#263238;stroke-linecap:round;stroke-linejoin:round"></path><path d="M242.22,302a4.56,4.56,0,0,1-4.94,4.12c-3.27,0-18.38-7.35-18.38-7.35s0,1.27.26,3.45c2,1,15.1,7.22,18.12,7.22C240.49,309.44,242.9,307.47,242.22,302Z" style="fill:#263238;stroke:#263238;stroke-linecap:round;stroke-linejoin:round"></path><path d="M257.3,273.84c-.65-4.59-4.21-19.46-4.73-27.68-.67,6.6,4,25.69,4.73,31,.62,4.32,2.41,12.86,2.89,17.82C260.91,292.33,258.11,279.5,257.3,273.84Z" style="fill:#263238;stroke:#263238;stroke-linecap:round;stroke-linejoin:round"></path><path d="M440.76,158.67a20.06,20.06,0,0,0,0-3.55,1.77,1.77,0,0,1,0,.23c-1.22,14.3-12.26,19.61-20.43,22.47s-19.2,2.86-19.2,2.86,2.28,1.33,5.11,3.09a58.92,58.92,0,0,0,14.09-2.62C428.5,178.29,439.54,173,440.76,158.67Z" style="fill:#263238;stroke:#263238;stroke-linecap:round;stroke-linejoin:round"></path><path d="M417.06,195.45a1.12,1.12,0,0,0-.13-.34c-.36,1.91-1.14,4.28-1.91,7.64a9.88,9.88,0,0,0-.27,4.31l.1-.09c0-.29.1-.58.17-.9C416.25,200.76,417.47,197.9,417.06,195.45Z" style="fill:#263238;stroke:#263238;stroke-linecap:round;stroke-linejoin:round"></path><path d="M47.29,152.14c1.22-15.94,13.89-20,19.61-18.39s14.71,6.95,22.88,8.17,21.25,0,33.5,11.44,21.25,22.07,29.83,22.88,27.38-5.31,57.2-10.21c23.23-3.82,37.29-2.93,42.37-2.35a44.35,44.35,0,0,0,4.74.3,256.4,256.4,0,0,1,43.6,4.09c23.7,4.5,40.86,7.77,49.44,5.31s12.67-10.21,18-14.71,15.12-11.44,24.92-14.7,23.29-5.32,31.87-7.77,20.84-3.68,25.75,5.72a29.3,29.3,0,0,1,3.3,12.29A29.74,29.74,0,0,0,451,138.6c-4.91-9.4-17.16-8.17-25.75-5.72s-22.06,4.49-31.87,7.76-19.61,10.22-24.92,14.71-9.4,12.26-18,14.71-25.74-.82-49.44-5.31a256.4,256.4,0,0,0-43.6-4.09,44.35,44.35,0,0,1-4.74-.3c-5.08-.58-19.14-1.47-42.37,2.35-29.82,4.9-48.62,11-57.2,10.21S135.54,161.48,123.28,150,98,139.82,89.78,138.6s-17.16-6.54-22.88-8.17-18.39,2.45-19.61,18.38a29.14,29.14,0,0,0,0,3.85C47.27,152.48,47.27,152.31,47.29,152.14Z" style="fill:#263238;stroke:#263238;stroke-linecap:round;stroke-linejoin:round"></path><path d="M81.84,197.11l-.64,0s.41,1.64.82,4.5c.25,1.79.82,4.36,1.21,6.74l.4.13c-.1-2.9-1.22-7.47-1.61-10.2Q81.93,197.65,81.84,197.11Z" style="fill:#263238;stroke:#263238;stroke-linecap:round;stroke-linejoin:round"></path><path d="M261.77,405.83h0s0-2.61-.05-6.7C261.75,401.81,261.76,404.11,261.77,405.83Z" style="fill:#263238;stroke:#263238;stroke-linecap:round;stroke-linejoin:round"></path><path d="M260.06,298.82c-.58,2.73.67,9,3.78,9S280.07,303.6,282,303c.24-2.18.24-3.41.24-3.41s-15.12,4.91-18.39,4.91C261.71,304.49,260.46,301.55,260.06,298.82Z" style="fill:#263238;stroke:#263238;stroke-linecap:round;stroke-linejoin:round"></path><path d="M241.46,292.6c.09-1.86.31-4.22.73-7.67,1.18-9.87,3.5-20.51,3.29-31.91-.23,10.15-2.23,19.68-3.29,28.59C241.48,287.46,241.32,290.23,241.46,292.6Z" style="fill:#263238;stroke:#263238;stroke-linecap:round;stroke-linejoin:round"></path><path d="M60.82,156.52c0,.56,0,1.14,0,1.75,0,16.34,15.53,20.83,25.33,24.92a67.31,67.31,0,0,0,17.64,4.38,14.38,14.38,0,0,0,1.57-3.14,70.39,70.39,0,0,1-19.21-4.56C76.62,175.92,61.79,171.58,60.82,156.52Z" style="fill:#263238;stroke:#263238;stroke-linecap:round;stroke-linejoin:round"></path><path d="M149.8,198.25c2.51-10-7.84-16.29-15.7-19.32-11.54-4.45-24-2.16-35.55,1-8.22,2.26-17.45,5.31-18.62,15-1.22,10.22,7.36,19.62,27.38,24.52C123.27,223.41,145.43,215.74,149.8,198.25Z" style="fill:#fff;stroke:#263238;stroke-linecap:round;stroke-linejoin:round"></path><path d="M98.37,199.55a3.88,3.88,0,0,1-7.7,0" style="fill:none;stroke:#263238;stroke-linecap:round;stroke-linejoin:round"></path><path d="M94.11,196.35a3.83,3.83,0,0,1-7.58-.78" style="fill:none;stroke:#263238;stroke-linecap:round;stroke-linejoin:round"></path><path d="M101.69,196.35a3.83,3.83,0,0,1-7.58-.78" style="fill:none;stroke:#263238;stroke-linecap:round;stroke-linejoin:round"></path><path d="M111.2,204.68a3.88,3.88,0,0,1-7.7,0" style="fill:none;stroke:#263238;stroke-linecap:round;stroke-linejoin:round"></path><path d="M107,201.49a3.83,3.83,0,0,1-7.58-.79" style="fill:none;stroke:#263238;stroke-linecap:round;stroke-linejoin:round"></path><path d="M114.53,201.49a3.83,3.83,0,0,1-7.58-.79" style="fill:none;stroke:#263238;stroke-linecap:round;stroke-linejoin:round"></path><path d="M100.51,210a3.88,3.88,0,0,1-7.7,0" style="fill:none;stroke:#263238;stroke-linecap:round;stroke-linejoin:round"></path><path d="M96.25,206.84a3.83,3.83,0,0,1-7.58-.79" style="fill:none;stroke:#263238;stroke-linecap:round;stroke-linejoin:round"></path><path d="M103.83,206.84a3.83,3.83,0,0,1-7.58-.79" style="fill:none;stroke:#263238;stroke-linecap:round;stroke-linejoin:round"></path><path d="M116.34,213.67a3.88,3.88,0,0,1-7.7,0" style="fill:none;stroke:#263238;stroke-linecap:round;stroke-linejoin:round"></path><path d="M112.08,210.47a3.83,3.83,0,0,1-7.58-.78" style="fill:none;stroke:#263238;stroke-linecap:round;stroke-linejoin:round"></path><path d="M119.66,210.47a3.83,3.83,0,0,1-7.58-.78" style="fill:none;stroke:#263238;stroke-linecap:round;stroke-linejoin:round"></path><path d="M127.25,207.46a3.88,3.88,0,0,1-7.7,0" style="fill:none;stroke:#263238;stroke-linecap:round;stroke-linejoin:round"></path><path d="M123,204.27a3.83,3.83,0,0,1-7.58-.79" style="fill:none;stroke:#263238;stroke-linecap:round;stroke-linejoin:round"></path><path d="M130.57,204.27a3.83,3.83,0,0,1-7.58-.79" style="fill:none;stroke:#263238;stroke-linecap:round;stroke-linejoin:round"></path><path d="M346.59,198.25c-2.51-10,7.84-16.29,15.7-19.32,11.53-4.45,24-2.16,35.55,1,8.21,2.26,17.45,5.31,18.62,15,1.22,10.22-7.36,19.62-27.38,24.52C373.12,223.41,351,215.74,346.59,198.25Z" style="fill:#fff;stroke:#263238;stroke-linecap:round;stroke-linejoin:round"></path><path d="M398,199.55a3.88,3.88,0,0,0,7.7,0" style="fill:none;stroke:#263238;stroke-linecap:round;stroke-linejoin:round"></path><path d="M402.27,196.35a3.84,3.84,0,0,0,7.59-.78" style="fill:none;stroke:#263238;stroke-linecap:round;stroke-linejoin:round"></path><path d="M394.7,196.35a3.83,3.83,0,0,0,7.58-.78" style="fill:none;stroke:#263238;stroke-linecap:round;stroke-linejoin:round"></path><path d="M385.18,204.68a3.88,3.88,0,0,0,7.7,0" style="fill:none;stroke:#263238;stroke-linecap:round;stroke-linejoin:round"></path><path d="M389.44,201.49a3.83,3.83,0,0,0,7.58-.79" style="fill:none;stroke:#263238;stroke-linecap:round;stroke-linejoin:round"></path><path d="M381.86,201.49a3.83,3.83,0,0,0,7.58-.79" style="fill:none;stroke:#263238;stroke-linecap:round;stroke-linejoin:round"></path><path d="M395.88,210a3.88,3.88,0,0,0,7.7,0" style="fill:none;stroke:#263238;stroke-linecap:round;stroke-linejoin:round"></path><path d="M400.14,206.84a3.83,3.83,0,0,0,7.58-.79" style="fill:none;stroke:#263238;stroke-linecap:round;stroke-linejoin:round"></path><path d="M392.56,206.84a3.83,3.83,0,0,0,7.58-.79" style="fill:none;stroke:#263238;stroke-linecap:round;stroke-linejoin:round"></path><path d="M380.05,213.67a3.88,3.88,0,0,0,7.7,0" style="fill:none;stroke:#263238;stroke-linecap:round;stroke-linejoin:round"></path><path d="M384.3,210.47a3.84,3.84,0,0,0,7.59-.78" style="fill:none;stroke:#263238;stroke-linecap:round;stroke-linejoin:round"></path><path d="M376.73,210.47a3.83,3.83,0,0,0,7.58-.78" style="fill:none;stroke:#263238;stroke-linecap:round;stroke-linejoin:round"></path><path d="M369.14,207.46a3.88,3.88,0,0,0,7.7,0" style="fill:none;stroke:#263238;stroke-linecap:round;stroke-linejoin:round"></path><path d="M373.39,204.27a3.83,3.83,0,0,0,7.58-.79" style="fill:none;stroke:#263238;stroke-linecap:round;stroke-linejoin:round"></path><path d="M365.82,204.27a3.83,3.83,0,0,0,7.58-.79" style="fill:none;stroke:#263238;stroke-linecap:round;stroke-linejoin:round"></path><path d="M273.29,310c1-.21,2.08-.43,3.13-.67" style="fill:none;stroke:#263238;stroke-linecap:round;stroke-linejoin:round"></path><path d="M232.46,311.21a114,114,0,0,0,36.26-.36" style="fill:none;stroke:#263238;stroke-linecap:round;stroke-linejoin:round"></path><path d="M224.1,309.35a46.09,46.09,0,0,0,4.63,1.17" style="fill:none;stroke:#263238;stroke-linecap:round;stroke-linejoin:round"></path><path d="M244.75,320.12a123.14,123.14,0,0,0,31.67-3.05" style="fill:none;stroke:#263238;stroke-linecap:round;stroke-linejoin:round"></path><path d="M224.1,317.07a74.85,74.85,0,0,0,16.18,2.79" style="fill:none;stroke:#263238;stroke-linecap:round;stroke-linejoin:round"></path><path d="M270.87,325.91c.89-.16,1.8-.33,2.71-.52" style="fill:none;stroke:#263238;stroke-linecap:round;stroke-linejoin:round"></path><path d="M228.85,326c6.87,1.43,20.81,3.3,39.1.42" style="fill:none;stroke:#263238;stroke-linecap:round;stroke-linejoin:round"></path><path d="M265.38,334.5c1-.14,2-.29,3.07-.46" style="fill:none;stroke:#263238;stroke-linecap:round;stroke-linejoin:round"></path><path d="M245,335.56a117.64,117.64,0,0,0,15.62-.51" style="fill:none;stroke:#263238;stroke-linecap:round;stroke-linejoin:round"></path><path d="M233.54,334.53c2.45.36,5.32.69,8.59.89" style="fill:none;stroke:#263238;stroke-linecap:round;stroke-linejoin:round"></path><path d="M236.65,342.65a115.55,115.55,0,0,0,28.75-.44" style="fill:none;stroke:#263238;stroke-linecap:round;stroke-linejoin:round"></path><path d="M254,351c2.77-.12,5.71-.34,8.78-.7" style="fill:none;stroke:#263238;stroke-linecap:round;stroke-linejoin:round"></path><path d="M238.28,350.54a109.29,109.29,0,0,0,11.21.51" style="fill:none;stroke:#263238;stroke-linecap:round;stroke-linejoin:round"></path><path d="M240,358.4a116.1,116.1,0,0,0,21.84-.32" style="fill:none;stroke:#263238;stroke-linecap:round;stroke-linejoin:round"></path><path d="M250.8,366.47c3.33-.05,6.92-.25,10.74-.65" style="fill:none;stroke:#263238;stroke-linecap:round;stroke-linejoin:round"></path><path d="M241.62,366.24q3,.21,6.45.24" style="fill:none;stroke:#263238;stroke-linecap:round;stroke-linejoin:round"></path><path d="M255.4,374c1.75-.09,3.56-.23,5.43-.41" style="fill:none;stroke:#263238;stroke-linecap:round;stroke-linejoin:round"></path><path d="M241.62,374c2.94.19,6.21.29,9.77.21" style="fill:none;stroke:#263238;stroke-linecap:round;stroke-linejoin:round"></path><path d="M250,381.91c3.12,0,6.49-.19,10.06-.52" style="fill:none;stroke:#263238;stroke-linecap:round;stroke-linejoin:round"></path><path d="M241.38,381.66c1.8.12,3.71.2,5.74.24" style="fill:none;stroke:#263238;stroke-linecap:round;stroke-linejoin:round"></path><path d="M241.37,389.37a117.24,117.24,0,0,0,18.73-.26" style="fill:none;stroke:#263238;stroke-linecap:round;stroke-linejoin:round"></path><path d="M257.53,397c.69,0,1.39-.1,2.09-.17" style="fill:none;stroke:#263238;stroke-linecap:round;stroke-linejoin:round"></path><path d="M240.92,397.05a112.62,112.62,0,0,0,12.83.2" style="fill:none;stroke:#263238;stroke-linecap:round;stroke-linejoin:round"></path></g><g id="Labels"><path d="M230.45,93.42c0,1.13.45,1.82,1.48,1.82s1.46-.69,1.46-1.82V83.76h1.32v9.58c0,1.92-.89,3.2-2.84,3.2s-2.81-1.28-2.81-3.2V83.76h1.39Z" style="fill:#263238"></path><path d="M237.92,96.39V85h-2.33V83.76h6V85h-2.33V96.39Z" style="fill:#263238"></path><path d="M247.09,89.36v1.26H244v4.49h3.79v1.28H242.6V83.76h5.19V85H244v4.32Z" style="fill:#263238"></path><path d="M251.91,83.76c2,0,2.81,1,2.81,2.89v1c0,1.39-.48,2.25-1.57,2.6,1.16.34,1.59,1.28,1.59,2.63v2a3.19,3.19,0,0,0,.25,1.51h-1.42a3.3,3.3,0,0,1-.24-1.53v-2c0-1.42-.66-1.87-1.84-1.87h-1v5.39h-1.41V83.76Zm-.36,6c1.12,0,1.78-.36,1.78-1.74V86.77c0-1.13-.41-1.73-1.46-1.73H250.5v4.68Z" style="fill:#263238"></path><path d="M257.54,93.42c0,1.13.45,1.82,1.48,1.82s1.46-.69,1.46-1.82V83.76h1.32v9.58c0,1.92-.88,3.2-2.83,3.2s-2.82-1.28-2.82-3.2V83.76h1.39Z" style="fill:#263238"></path><path d="M268.66,86.79v.35h-1.34v-.42c0-1.14-.43-1.8-1.44-1.8s-1.44.66-1.44,1.78c0,2.84,4.24,3.11,4.24,6.66,0,1.91-.92,3.16-2.86,3.16S263,95.27,263,93.36v-.72h1.32v.79c0,1.14.47,1.81,1.48,1.81s1.48-.67,1.48-1.81c0-2.81-4.23-3.08-4.23-6.64,0-2,.91-3.16,2.8-3.16S268.66,84.88,268.66,86.79Z" style="fill:#263238"></path><path d="M97.34,257.82c0-1.93,1-3.18,2.89-3.18s2.91,1.25,2.91,3.18v6.53c0,1.91-1,3.18-2.91,3.18s-2.89-1.27-2.89-3.18Zm1.39,6.6c0,1.16.49,1.83,1.5,1.83s1.5-.67,1.5-1.83v-6.68c0-1.13-.47-1.82-1.5-1.82s-1.5.69-1.5,1.82Z" style="fill:#263238"></path><path d="M105.52,254.77l2.06,11,2-11h1.3l-2.37,12.63h-2.07l-2.38-12.63Z" style="fill:#263238"></path><path d="M113,264.86l-.49,2.54h-1.3l2.42-12.63h2l2.42,12.63h-1.41l-.49-2.54Zm.18-1.21H116l-1.42-7.3Z" style="fill:#263238"></path><path d="M122,254.77c2,0,2.82,1,2.82,2.88v1c0,1.39-.49,2.26-1.57,2.6,1.15.34,1.59,1.28,1.59,2.64v2a3.11,3.11,0,0,0,.25,1.52h-1.43a3.36,3.36,0,0,1-.23-1.53v-2c0-1.42-.67-1.88-1.84-1.88h-1v5.4h-1.4V254.77Zm-.36,6c1.12,0,1.79-.36,1.79-1.73v-1.21c0-1.14-.42-1.73-1.46-1.73h-1.38v4.67Z" style="fill:#263238"></path><path d="M128.34,262.87l-2.67-8.1h1.46l2,6.2,2-6.2h1.34l-2.69,8.1v4.53h-1.39Z" style="fill:#263238"></path><path d="M341.93,257.82V259h-1.34v-1.21c0-1.13-.45-1.82-1.48-1.82s-1.48.69-1.48,1.82v6.68c0,1.14.47,1.83,1.48,1.83s1.48-.69,1.48-1.83v-1.64h1.34v1.57c0,1.91-.91,3.18-2.85,3.18s-2.84-1.27-2.84-3.18v-6.53c0-1.92.9-3.18,2.84-3.18S341.93,255.9,341.93,257.82Z" style="fill:#263238"></path><path d="M347.7,260.36v1.26h-3.08v4.5h3.79v1.28h-5.2V254.77h5.2v1.28h-3.79v4.31Z" style="fill:#263238"></path><path d="M352.52,254.77c2,0,2.82,1,2.82,2.88v1c0,1.39-.49,2.26-1.57,2.6,1.15.34,1.59,1.28,1.59,2.64v2a3.23,3.23,0,0,0,.25,1.52h-1.43a3.36,3.36,0,0,1-.23-1.53v-2c0-1.42-.67-1.88-1.84-1.88h-1v5.4h-1.41V254.77Zm-.36,6c1.12,0,1.79-.36,1.79-1.73v-1.21c0-1.14-.42-1.73-1.46-1.73h-1.37v4.67Z" style="fill:#263238"></path><path d="M357.85,254.77l2.06,11,2-11h1.3l-2.36,12.63H358.8l-2.38-12.63Z" style="fill:#263238"></path><path d="M365.74,254.77V267.4h-1.41V254.77Z" style="fill:#263238"></path><path d="M370.32,262l-2.11,5.45h-1.34l2.55-6.52L367,254.77h1.47l1.95,5,2-5h1.32l-2.36,6.11,2.52,6.52h-1.48Z" style="fill:#263238"></path><path d="M233.36,437.6l2.06,11,2-11h1.3l-2.37,12.63h-2.07l-2.38-12.63Z" style="fill:#263238"></path><path d="M240.82,447.69l-.49,2.54H239l2.42-12.63h2l2.42,12.63H244.5l-.49-2.54Zm.18-1.21h2.81l-1.42-7.29Z" style="fill:#263238"></path><path d="M252.57,440.65v1.08h-1.34v-1.15c0-1.14-.45-1.82-1.48-1.82s-1.48.68-1.48,1.82v6.68c0,1.13.47,1.82,1.48,1.82s1.48-.69,1.48-1.82v-2.53h-1.3v-1.26h2.64v3.71c0,1.92-.9,3.18-2.85,3.18s-2.84-1.26-2.84-3.18v-6.53c0-1.91.9-3.18,2.84-3.18S252.57,438.74,252.57,440.65Z" style="fill:#263238"></path><path d="M255.31,437.6v12.63H253.9V437.6Z" style="fill:#263238"></path><path d="M258,450.23h-1.26V437.6h1.78l2.93,9.13V437.6h1.24v12.63h-1.46L258,440Z" style="fill:#263238"></path><path d="M265.56,447.69l-.48,2.54h-1.3l2.41-12.63h2l2.42,12.63h-1.4l-.49-2.54Zm.18-1.21h2.82l-1.43-7.29Z" style="fill:#263238"></path><path d="M389.51,89.64v1.29H386.6v5.46h-1.41V83.76h5V85H386.6v4.6Z" style="fill:#263238"></path><path d="M392.52,93.85,392,96.39h-1.3l2.42-12.63h2l2.42,12.63H396.2l-.48-2.54Zm.18-1.21h2.82l-1.43-7.29Z" style="fill:#263238"></path><path d="M398.71,96.39V83.76h1.41V95.11h3.61v1.28Z" style="fill:#263238"></path><path d="M404.79,96.39V83.76h1.41V95.11h3.61v1.28Z" style="fill:#263238"></path><path d="M410.77,86.81c0-1.93,1-3.18,2.89-3.18s2.9,1.25,2.9,3.18v6.53c0,1.92-.95,3.18-2.9,3.18s-2.89-1.26-2.89-3.18Zm1.39,6.61c0,1.15.49,1.82,1.5,1.82s1.49-.67,1.49-1.82V86.74c0-1.14-.47-1.82-1.49-1.82s-1.5.68-1.5,1.82Z" style="fill:#263238"></path><path d="M420.66,83.76c2,0,2.83,1.17,2.83,3.09v1.51c0,2-.94,3-2.94,3h-1.24v5H417.9V83.76Zm-.11,6.39c1.05,0,1.55-.49,1.55-1.7V86.77c0-1.15-.41-1.73-1.44-1.73h-1.35v5.11Z" style="fill:#263238"></path><path d="M426,83.76V96.39h-1.41V83.76Z" style="fill:#263238"></path><path d="M428.87,93.85l-.48,2.54h-1.3l2.41-12.63h2L434,96.39h-1.41l-.48-2.54Zm.18-1.21h2.82l-1.43-7.29Z" style="fill:#263238"></path><path d="M436.31,96.39h-1.26V83.76h1.78l2.93,9.13V83.76H441V96.39h-1.46l-3.23-10.21Z" style="fill:#263238"></path><path d="M447.07,96.39V85h-2.33V83.76h6V85h-2.32V96.39Z" style="fill:#263238"></path><path d="M453.08,93.42c0,1.13.45,1.82,1.48,1.82s1.46-.69,1.46-1.82V83.76h1.32v9.58c0,1.92-.89,3.2-2.84,3.2s-2.81-1.28-2.81-3.2V83.76h1.39Z" style="fill:#263238"></path><path d="M461.56,83.76c2,0,2.74.94,2.74,2.8v.59c0,1.34-.38,2.17-1.48,2.51,1.23.34,1.7,1.32,1.7,2.71v1.06c0,1.9-.92,3-2.89,3h-2.9V83.76Zm-.34,5.36c1.12,0,1.69-.36,1.69-1.68V86.7c0-1.12-.38-1.66-1.39-1.66h-1.39v4.08Zm.41,6c1,0,1.5-.54,1.5-1.71V92.28c0-1.41-.56-1.88-1.77-1.88h-1.23v4.71Z" style="fill:#263238"></path><path d="M470.3,89.36v1.26h-3.09v4.49H471v1.28h-5.2V83.76H471V85h-3.79v4.32Z" style="fill:#263238"></path><line x1="328.2" y1="259.97" x2="274.05" y2="259.97" style="fill:none;stroke:#263238;stroke-miterlimit:10"></line><path d="M276.5,260a2.46,2.46,0,1,0-2.45,2.45A2.46,2.46,0,0,0,276.5,260Z" style="fill:#263238;stroke:#263238;stroke-miterlimit:10"></path><line x1="114.82" y1="248.35" x2="114.82" y2="220.42" style="fill:none;stroke:#263238;stroke-miterlimit:10"></line><path d="M114.82,222.88a2.46,2.46,0,1,1,2.46-2.46A2.46,2.46,0,0,1,114.82,222.88Z" style="fill:#263238;stroke:#263238;stroke-miterlimit:10"></path><line x1="249.6" y1="435.13" x2="249.6" y2="407.2" style="fill:none;stroke:#263238;stroke-miterlimit:10"></line><path d="M249.6,409.66a2.46,2.46,0,1,1,2.45-2.46A2.45,2.45,0,0,1,249.6,409.66Z" style="fill:#263238;stroke:#263238;stroke-miterlimit:10"></path><line x1="248.92" y1="99.68" x2="248.92" y2="127.61" style="fill:none;stroke:#263238;stroke-miterlimit:10"></line><path d="M248.92,125.16a2.46,2.46,0,1,1-2.45,2.45A2.46,2.46,0,0,1,248.92,125.16Z" style="fill:#263238;stroke:#263238;stroke-miterlimit:10"></path><line x1="432.59" y1="99.68" x2="432.59" y2="136.11" style="fill:none;stroke:#263238;stroke-miterlimit:10"></line><circle cx="432.59" cy="136.11" r="2.45" style="fill:#263238;stroke:#263238;stroke-miterlimit:10"></circle></g></svg>