<svg xmlns="http://www.w3.org/2000/svg" xmlns:xlink="http://www.w3.org/1999/xlink" viewBox="0 0 500 500"><defs><clippath id="clip-path"><path d="M357.75,150.84a39.15,39.15,0,0,1-18.94,33.51,39,39,0,0,1-20.16,5.59,39.11,39.11,0,1,1,39.1-39.1Z" style="fill:#92E3A9;stroke:#263238;stroke-linecap:round;stroke-linejoin:round;stroke-width:0.932619px"></path></clippath><clippath id="clip-path-2"><rect x="236.51" y="247.08" width="52.53" height="52.53" style="fill:#92E3A9;stroke:#263238;stroke-linecap:round;stroke-linejoin:round;stroke-width:0.932619px"></rect></clippath><clippath id="clip-path-3"><rect x="292.38" y="247.08" width="52.53" height="52.53" style="fill:#92E3A9;stroke:#263238;stroke-linecap:round;stroke-linejoin:round;stroke-width:0.932619px"></rect></clippath><clippath id="clip-path-4"><rect x="348.26" y="247.08" width="52.53" height="52.53" style="fill:#92E3A9;stroke:#263238;stroke-linecap:round;stroke-linejoin:round;stroke-width:0.932619px"></rect></clippath><clippath id="clip-path-5"><rect x="236.51" y="302.99" width="52.53" height="52.53" style="fill:#92E3A9;stroke:#263238;stroke-linecap:round;stroke-linejoin:round;stroke-width:0.932619px"></rect></clippath><clippath id="clip-path-6"><rect x="292.38" y="302.99" width="52.53" height="52.53" style="fill:#92E3A9;stroke:#263238;stroke-linecap:round;stroke-linejoin:round;stroke-width:0.932619px"></rect></clippath><clippath id="clip-path-7"><rect x="348.26" y="302.99" width="52.53" height="52.53" style="fill:#92E3A9;stroke:#263238;stroke-linecap:round;stroke-linejoin:round;stroke-width:0.932619px"></rect></clippath><clippath id="clip-path-8"><path d="M253.18,299.32c3.64-6,21.12-5.91,22.7-3.24,0,0-8.66,28-18.31,25.08S253.18,299.32,253.18,299.32Z" style="fill:#757575;stroke:#263238;stroke-linecap:round;stroke-linejoin:round"></path></clippath><clippath id="clip-path-9"><path d="M274,313.56a8.62,8.62,0,0,1,1.85,5.28c0,2.61-5,54.75-20.35,72.9-3.22,3.81-6.9,6.12-11.09,6.17-13,.14-19.31-10.18-27.59-34.12q-1.54-4.47-3.21-9.6c-8-24.71-17.94-76.25-17.94-76.25s17.55,4.07,28,14.39C228.21,296.84,233,309.64,236,319c1.49,4.62,2.57,8.41,3,10l.22.82a23.57,23.57,0,0,1,1.84-4.67s0,0,0,0a.34.34,0,0,0,.06-.12,57.08,57.08,0,0,1,8.25-11.35l3.79-14.37s1.34,2.62,7.4,3.55,15.3-6.79,15.3-6.79Z" style="fill:#757575;stroke:#263238;stroke-linecap:round;stroke-linejoin:round"></path></clippath><clippath id="clip-path-10"><path d="M117.13,271.16s18,2.54,29.63-2.59,3.43,38.79-13.24,32.46S117.13,271.16,117.13,271.16Z" style="fill:#999;stroke:#263238;stroke-linecap:round;stroke-linejoin:round"></path></clippath><clippath id="clip-path-11"><path d="M230.41,467.77c-2.65-.27-5.28-.57-7.91-.9q-3.15-.39-6.28-.86-4.8-.69-9.58-1.53l-.1,0c-23-4.1-44.71-11.2-64.23-21.92a165.88,165.88,0,0,1-21-13.67C108.51,395.42,80.5,318.38,87.82,305.22c9-16.12,28.05-29,63.06-30.75,32.47-1.62,59.24,9.89,65.64,23.27,6.11,12.77,5.86,98.44,4.31,138.21-.07,1.89-.15,3.67-.23,5.34l1.1,3.27Z" style="fill:#92E3A9;stroke:#263238;stroke-linecap:round;stroke-linejoin:round"></path></clippath><clippath id="clip-path-12"><path d="M200.86,316.48s-4.25-16.83-9.59-27.51a25.37,25.37,0,0,0-4.9-7.23c-6.55-5.85-25.29-7.35-25.29-7.35a15.26,15.26,0,0,1,5.66-6.14c8.25-5,20.86-1,31.07,8.65C210.81,289.22,200.86,316.48,200.86,316.48Z" style="fill:#999;stroke:#263238;stroke-linecap:round;stroke-linejoin:round"></path></clippath><clippath id="clip-path-13"><path d="M146.36,401.9c-.48,4.83-1,9.59-1.43,14.18-.82,7.85-1.75,17.47-2.62,26.46A163.13,163.13,0,0,1,101.48,411c.09-2.65.08-5.07-.06-7.13a124.3,124.3,0,0,0-2-12.84c-2.38-12.48-6.47-30-10-45.69-3.71-16.55-6.82-31.09-6.65-35.62C83.22,299.05,99,282.67,118,276.9c0,0,29.29,20.18,32.85,41.94C152.71,330.07,149.7,367.9,146.36,401.9Z" style="fill:#757575;stroke:#263238;stroke-linecap:round;stroke-linejoin:round"></path></clippath><clippath id="clip-path-14"><path d="M191.54,289.93c1.66-3,6.41-1.56,11.94,7.15s7.8,18.85,6.47,22.55-19.26,8.17-19.26,8.17L187,318.44Z" style="fill:#757575;stroke:#263238;stroke-linecap:round;stroke-linejoin:round"></path></clippath><clippath id="clip-path-15"><path d="M255.68,286.32l-11.61,3.85c-1.23.32-3.65-1.73-3.55-3L244,246.58a3.87,3.87,0,0,1,2.89-3.42l12.87-2.79c1.22-.32,4.32,1.15,4.21,2.42l-5.37,40.11A3.87,3.87,0,0,1,255.68,286.32Z" style="fill:#92E3A9;stroke:#263238;stroke-linecap:round;stroke-linejoin:round"></path></clippath></defs><g id="background-simple"><path d="M67.93,167.09s-27.88,72,11.3,144.5S199.11,422.39,263.7,455.14s131.66,16.8,163.53-36.84-11.84-91.93-11.9-168.42,11.45-96.74-30-161.36-143.06-78.93-219.9-31S67.93,167.09,67.93,167.09Z" style="fill:#fff;opacity:0.7000000000000001"></path><path d="M303.18,465.91c31.18-5.15,61.06-16.47,86.46-36,36.93-28.48,57.42-71,59.56-117.34,1.41-30.55-5.88-60.35-14.7-89.36-11.34-37.33-18.65-79.85-42.33-111.75-36.86-49.67-108.1-70.59-167.68-61.7-38.5,5.74-79.17,27.6-91,67.11-4.38,14.63-6.52,30.35-14,43.87-9,16.2-25.27,25.66-37.63,38.85-15.28,16.29-21.43,36.59-25.23,58.06-8.33,47,3,96.78,30.5,135.76,28.65,40.68,71.17,62.5,119.43,71.09q8,1.41,16,2.41C249,470.19,276.57,470.3,303.18,465.91Z" style="fill:#92E3A9"></path><path d="M303.18,465.91c31.18-5.15,61.06-16.47,86.46-36,36.93-28.48,57.42-71,59.56-117.34,1.41-30.55-5.88-60.35-14.7-89.36-11.34-37.33-18.65-79.85-42.33-111.75-36.86-49.67-108.1-70.59-167.68-61.7-38.5,5.74-79.17,27.6-91,67.11-4.38,14.63-6.52,30.35-14,43.87-9,16.2-25.27,25.66-37.63,38.85-15.28,16.29-21.43,36.59-25.23,58.06-8.33,47,3,96.78,30.5,135.76,28.65,40.68,71.17,62.5,119.43,71.09q8,1.41,16,2.41C249,470.19,276.57,470.3,303.18,465.91Z" style="fill:#fff;opacity:0.7000000000000001"></path></g><g id="Leaves"><path d="M243.11,429.57s15.31,8,11,20C254.07,449.58,234.86,450.09,243.11,429.57Z" style="fill:#263238"></path><path d="M273.21,445.89s14-8.17,25.66,4.09C298.87,450,283.94,460.71,273.21,445.89Z" style="fill:#263238"></path><path d="M311.34,417.51s-7.31,24.11-25.56,8.79C285.78,426.3,299.69,412.23,311.34,417.51Z" style="fill:#263238"></path><path d="M291.1,393.67s12.75,16-5.25,24.38C285.85,418.05,278.37,403.38,291.1,393.67Z" style="fill:#263238"></path><path d="M261.89,405.51s18.8,5.9,11.66,22.58C273.55,428.09,255.22,421.08,261.89,405.51Z" style="fill:#263238"></path><path d="M252,469.09s-1.3-13.19,14.11-27.37,24.41-27.83,24.76-40" style="fill:none;stroke:#263238;stroke-linecap:round;stroke-linejoin:round"></path><path d="M265.89,412.53s9,8.92,7.87,21.62" style="fill:none;stroke:#263238;stroke-linecap:round;stroke-linejoin:round"></path><path d="M301.7,424.28s-9.88,5.83-20.07.38" style="fill:none;stroke:#263238;stroke-linecap:round;stroke-linejoin:round"></path><path d="M290.91,449.47s-19.42-2.43-25.59-7" style="fill:none;stroke:#263238;stroke-linecap:round;stroke-linejoin:round"></path><path d="M246,437s3.81,11.34,11.64,14.54" style="fill:none;stroke:#263238;stroke-linecap:round;stroke-linejoin:round"></path><path d="M288.09,413.47a32.79,32.79,0,0,0,2.77-11.77" style="fill:none;stroke:#fff;stroke-linecap:round;stroke-linejoin:round"></path><path d="M265.89,412.53a29.78,29.78,0,0,1,7.13,13" style="fill:none;stroke:#fff;stroke-linecap:round;stroke-linejoin:round"></path><path d="M301.7,424.28a22.6,22.6,0,0,1-11.33,2.7" style="fill:none;stroke:#fff;stroke-linecap:round;stroke-linejoin:round"></path><path d="M290.91,449.47a130.82,130.82,0,0,1-14.17-2.62" style="fill:none;stroke:#fff;stroke-linecap:round;stroke-linejoin:round"></path><path d="M246,437a34.62,34.62,0,0,0,5.66,10" style="fill:none;stroke:#fff;stroke-linecap:round;stroke-linejoin:round"></path><path d="M96.26,331.44s-17.28.62-18.54,13.3C77.72,344.74,94.81,353.52,96.26,331.44Z" style="fill:#263238"></path><path d="M62.06,333.14s-9.07-13.42-24.9-7.42C37.16,325.72,46,341.86,62.06,333.14Z" style="fill:#263238"></path><path d="M40,291.05S36.13,316,59.2,310C59.2,310,52.76,291.33,40,291.05Z" style="fill:#263238"></path><path d="M68.53,278.31s-18.43,8.95-5.82,24.26C62.71,302.57,75.8,292.58,68.53,278.31Z" style="fill:#263238"></path><path d="M89.74,301.63s-19.5-2.82-20.28,15.31C69.46,316.94,89,318.56,89.74,301.63Z" style="fill:#263238"></path><path d="M70.66,364.69s7.37-12.78-.39-32.24-10-35.65-5-46.79" style="fill:none;stroke:#263238;stroke-linecap:round;stroke-linejoin:round"></path><path d="M83.1,306.23s-11.94,4.16-16.45,16.08" style="fill:none;stroke:#263238;stroke-linecap:round;stroke-linejoin:round"></path><path d="M45.73,301.33s6.39,9.53,17.92,9" style="fill:none;stroke:#263238;stroke-linecap:round;stroke-linejoin:round"></path><path d="M44.56,328.7s18.55,6.22,26.1,4.77" style="fill:none;stroke:#263238;stroke-linecap:round;stroke-linejoin:round"></path><path d="M90.4,336.93s-8.4,8.9-16.84,8.39" style="fill:none;stroke:#263238;stroke-linecap:round;stroke-linejoin:round"></path><path d="M62.67,297.47a32.89,32.89,0,0,1,2.6-11.81" style="fill:none;stroke:#fff;stroke-linecap:round;stroke-linejoin:round"></path><path d="M83.1,306.23a29.82,29.82,0,0,0-12,8.62" style="fill:none;stroke:#fff;stroke-linecap:round;stroke-linejoin:round"></path><path d="M45.73,301.33a22.5,22.5,0,0,0,9,7.33" style="fill:none;stroke:#fff;stroke-linecap:round;stroke-linejoin:round"></path><path d="M44.56,328.7a125.64,125.64,0,0,0,13.9,3.77" style="fill:none;stroke:#fff;stroke-linecap:round;stroke-linejoin:round"></path><path d="M90.4,336.93A34.64,34.64,0,0,1,81,343.54" style="fill:none;stroke:#fff;stroke-linecap:round;stroke-linejoin:round"></path><path d="M298.56,466.62c1.55-.22,3.09-.46,4.62-.71" style="fill:none;stroke:#263238;stroke-linecap:round;stroke-linejoin:round"></path><path d="M87.11,393.37c28.65,40.68,71.17,62.5,119.43,71.09q8,1.41,16,2.41a290.12,290.12,0,0,0,69.14.66" style="fill:none;stroke:#263238;stroke-linecap:round;stroke-linejoin:round"></path><path d="M64.51,349.53A182.46,182.46,0,0,0,82.81,387" style="fill:none;stroke:#263238;stroke-linecap:round;stroke-linejoin:round"></path></g><g id="Interface"><path d="M419.61,57.75V388.92a2.87,2.87,0,0,1-2.87,2.87H220.56a2.88,2.88,0,0,1-2.87-2.87V57.75a2.87,2.87,0,0,1,2.87-2.87H416.74A2.86,2.86,0,0,1,419.61,57.75Z" style="fill:#fff;stroke:#263238;stroke-linecap:round;stroke-linejoin:round;stroke-width:0.932619px"></path><path d="M419.61,57.75v29.8H217.69V57.75a2.87,2.87,0,0,1,2.87-2.87H416.74A2.86,2.86,0,0,1,419.61,57.75Z" style="fill:#999;stroke:#263238;stroke-linecap:round;stroke-linejoin:round;stroke-width:0.932619px"></path><path d="M357.75,150.84a39.15,39.15,0,0,1-18.94,33.51,39,39,0,0,1-20.16,5.59,39.11,39.11,0,1,1,39.1-39.1Z" style="fill:#92E3A9"></path><g style="clip-path:url(#clip-path)"><path d="M357.75,150.84a39.15,39.15,0,0,1-18.94,33.51,39,39,0,0,1-20.16,5.59,39.11,39.11,0,1,1,39.1-39.1Z" style="fill:#fff;opacity:0.5"></path></g><path d="M357.75,150.84a39.15,39.15,0,0,1-18.94,33.51,39,39,0,0,1-20.16,5.59,39.11,39.11,0,1,1,39.1-39.1Z" style="fill:none;stroke:#263238;stroke-linecap:round;stroke-linejoin:round;stroke-width:0.932619px"></path><path d="M322.09,123.47a7.15,7.15,0,0,0-8-2.35c-5.26,1.58-5.7,7.11-6.05,11s-5.36,4.08-5.53,11.08,11.5,10.52,13.69,17.63,4.3,7.81,11.76,5.09,14-9.7,10.57-13.26-6.65-7.09-5.15-11.47S334.73,122.92,322.09,123.47Z" style="fill:#263238"></path><path d="M335.14,158.34a73.5,73.5,0,0,1-4.06,8.73c-2,3.88-4.3,8-6,11.87a12.21,12.21,0,0,0,.5,10.39,38.52,38.52,0,0,1-6.91.61A39.09,39.09,0,0,1,306,187.86c-.26-3.74-1.05-12.91-2.69-17.32-2.1-5.62,1.36-9.3,1.63-13.16s-4.89-10.1-8.57-15.63a20.48,20.48,0,0,1-3.7-10.36s4.56,0,7,1.4S309,145.43,309,145.43c2.72.45,8.45,4.31,8.45,4.31a67.1,67.1,0,0,1,12.39,2.89C333.42,154,336,155.83,335.14,158.34Z" style="fill:#fff;stroke:#263238;stroke-linecap:round;stroke-linejoin:round;stroke-width:0.932619px"></path><path d="M313.62,154s.57-.35,1.62-3.11-.87-7.67-.87-7.67l10.28-2s-3.7,5.07-1.68,10.33" style="fill:#fff;stroke:#263238;stroke-linecap:round;stroke-linejoin:round;stroke-width:0.932619px"></path><path d="M324.29,142.79c2.2-2.56,7.37-9.76,2.6-14s-10.28-4.21-12.94-1.69c-2,1.86-4.9,9.37-4.05,15.14.37,2.5,5.53,2.74,7.52,2.24a13.93,13.93,0,0,0,2.8-.86" style="fill:#fff;stroke:#263238;stroke-linecap:round;stroke-linejoin:round;stroke-width:0.932619px"></path><path d="M311.06,130.47c1.1-.44,1.95.71,2.47.92s2.12-1.42,5.31.18l6.22,4.29s-5-2.64-6.31-2.89a2.82,2.82,0,0,1-2.84,2.1,2,2,0,0,1-2.34-2.29s-.19-.71-.74-.23-1.38,3.29-2.76,1.39C309.54,133.23,310.12,130.84,311.06,130.47Z" style="fill:#263238"></path><path d="M313,132.76a5.4,5.4,0,0,1-3,1,2.42,2.42,0,0,0,1.23,2.89" style="fill:#fff;stroke:#263238;stroke-linecap:round;stroke-linejoin:round;stroke-width:0.932619px"></path><path d="M320.72,126.76s-1.66,6.68,1.52,10.64c0,0,1.91-2.91,3.5-1s-.5,5.51-2.23,4.84c0,0-1.3,2.95-.59,3.47,1.83,1.33,3.92-2,6.19-6.61s4.39-8.85-1.9-12.1-8.15-4.42-12.41-3.07-2.52,6.81-2.52,6.81S315.64,125.31,320.72,126.76Z" style="fill:#263238"></path><path d="M315.24,130.26s2.21-1.46,3.47.12" style="fill:none;stroke:#263238;stroke-linecap:round;stroke-linejoin:round;stroke-width:0.932619px"></path><path d="M313.62,130.2a1,1,0,0,0-1.43-.73" style="fill:none;stroke:#263238;stroke-linecap:round;stroke-linejoin:round;stroke-width:0.932619px"></path><path d="M292.68,131.39c.85-3.74,13.06-4.69,16.29-4.87a26.29,26.29,0,0,0-.92,5.57,3.62,3.62,0,0,1-.15.77l-5.38,1.51c-3.69,1.06-5.44.33-5.44.33" style="fill:#fff;stroke:#263238;stroke-linecap:round;stroke-linejoin:round;stroke-width:0.932619px"></path><path d="M311,151.41a10.18,10.18,0,0,0,2.9,6" style="fill:none;stroke:#263238;stroke-linecap:round;stroke-linejoin:round;stroke-width:0.932619px"></path><path d="M316.39,157.81s7.81-.17,10.53-2.37" style="fill:none;stroke:#263238;stroke-linecap:round;stroke-linejoin:round;stroke-width:0.932619px"></path><path d="M303.32,159.28s4.33-2.81,6.43-1.47,2.73,5.91,2.73,5.91,7.38-2.92,9.17-2.57,5.14,7.59,8.2,8.24c0,0-.29,5.12-3.47,6.75s-11.55-.36-15-4.81c0,0-4.88,3.72-7.25,2.16S300.4,165.48,303.32,159.28Z" style="fill:#263238"></path><path d="M329.85,152.63c5.52,1,6.7,4.07,7.4,8.87.56,3.81,5.1,14.65,6.95,18.94a39.18,39.18,0,0,1-5.39,3.91c-1.66-2.82-5.12-9-6-13a12.13,12.13,0,0,0-1.72-4.26,5.26,5.26,0,0,0-2.24-2.06" style="fill:#fff;stroke:#263238;stroke-linecap:round;stroke-linejoin:round;stroke-width:0.932619px"></path><path d="M311.16,139l-.2-.72.45.2.43-.05,1.43,1.14A2.54,2.54,0,0,1,311,140C310.46,139.68,311.16,139,311.16,139Z" style="fill:#263238"></path><line x1="277.55" y1="102.08" x2="359.74" y2="102.08" style="fill:none;stroke:#263238;stroke-linecap:round;stroke-linejoin:round;stroke-width:4.6631px"></line><line x1="397.58" y1="67.34" x2="407.06" y2="67.34" style="fill:none;stroke:#263238;stroke-linecap:round;stroke-linejoin:round;stroke-width:1.8652400000000002px"></line><line x1="397.58" y1="71.77" x2="407.06" y2="71.77" style="fill:none;stroke:#263238;stroke-linecap:round;stroke-linejoin:round;stroke-width:1.8652400000000002px"></line><line x1="397.58" y1="76.21" x2="407.06" y2="76.21" style="fill:none;stroke:#263238;stroke-linecap:round;stroke-linejoin:round;stroke-width:1.8652400000000002px"></line><path d="M247.71,70.25l-8.47-5.56a.35.35,0,0,0-.37,0l-8.48,5.56a.34.34,0,0,0,.19.62H232a.34.34,0,0,1,.34.34v7.36a.34.34,0,0,0,.34.34h12.8a.35.35,0,0,0,.35-.34V71.21a.34.34,0,0,1,.34-.34h1.39A.34.34,0,0,0,247.71,70.25Z" style="fill:#263238"></path><path d="M255.94,201.63l-2.89,10.78h-2L254,201.7h-3.91v-1.79h5.89Z" style="fill:#263238"></path><path d="M260.11,199.77a2.83,2.83,0,0,1,2.18.81,3.33,3.33,0,0,1,.75,2.33v.32h-1.86v-.44c0-.82-.34-1.23-1-1.23a1,1,0,0,0-.82.34,2,2,0,0,0-.27,1.19v2.29a1.84,1.84,0,0,1,1.82-1.11,1.9,1.9,0,0,1,1.62.73,3.48,3.48,0,0,1,.55,2.12v2.29a3.28,3.28,0,0,1-.76,2.32,3.4,3.4,0,0,1-4.43,0,3.28,3.28,0,0,1-.77-2.32V203Q257.11,199.77,260.11,199.77Zm-1,7.51v2.25c0,.81.34,1.22,1,1.22s1-.41,1-1.22v-2.25q0-1.23-1-1.23C259.42,206.05,259.08,206.46,259.08,207.28Z" style="fill:#263238"></path><path d="M267.18,199.77a2.79,2.79,0,0,1,2.17.81,3.33,3.33,0,0,1,.75,2.33v.32h-1.85v-.44q0-1.23-1-1.23a1,1,0,0,0-.82.34,2,2,0,0,0-.27,1.19v2.29a1.85,1.85,0,0,1,1.82-1.11,1.91,1.91,0,0,1,1.63.73,3.48,3.48,0,0,1,.55,2.12v2.29a3.28,3.28,0,0,1-.77,2.32,3.39,3.39,0,0,1-4.42,0,3.28,3.28,0,0,1-.77-2.32V203Q264.18,199.77,267.18,199.77Zm-1,7.51v2.25c0,.81.34,1.22,1,1.22s1-.41,1-1.22v-2.25q0-1.23-1-1.23T266.14,207.28Z" style="fill:#263238"></path><path d="M370.88,201.87a.94.94,0,0,0-.76-.31q-1,0-1,1.23v.8h-1.86v-.68a3.31,3.31,0,0,1,.75-2.33,3.34,3.34,0,0,1,4.36,0,3.31,3.31,0,0,1,.75,2.33v.32a3.55,3.55,0,0,1-.34,1.65,2,2,0,0,1-1,.92,2.56,2.56,0,0,1,1.38,2.63v1a3.33,3.33,0,0,1-.75,2.33,3.34,3.34,0,0,1-4.36,0,3.33,3.33,0,0,1-.75-2.33v-1h1.86v1.16q0,1.23,1,1.23a.94.94,0,0,0,.76-.31,1.78,1.78,0,0,0,.25-1.1v-1a1.93,1.93,0,0,0-.3-1.22,1.22,1.22,0,0,0-1-.37h-.66V205H370a1.19,1.19,0,0,0,.88-.3,1.43,1.43,0,0,0,.29-1V203A1.81,1.81,0,0,0,370.88,201.87Z" style="fill:#263238"></path><path d="M377.52,199.91h2.14v8.44h.93v1.79h-.93v2.26h-1.92v-2.26H374v-1.79Zm.22,3.75-2,4.69h2Z" style="fill:#263238"></path><path d="M385,201.87a.93.93,0,0,0-.76-.31q-1,0-1,1.23v.8h-1.85v-.68a3.31,3.31,0,0,1,.75-2.33,3.33,3.33,0,0,1,4.35,0,3.31,3.31,0,0,1,.75,2.33v.32a3.43,3.43,0,0,1-.34,1.65,1.94,1.94,0,0,1-1,.92,2.57,2.57,0,0,1,1.37,2.63v1a3.33,3.33,0,0,1-.75,2.33,3.33,3.33,0,0,1-4.35,0,3.33,3.33,0,0,1-.75-2.33v-1h1.85v1.16q0,1.23,1,1.23a.93.93,0,0,0,.76-.31,1.77,1.77,0,0,0,.26-1.1v-1a1.86,1.86,0,0,0-.31-1.22,1.22,1.22,0,0,0-1-.37h-.66V205h.77a1.17,1.17,0,0,0,.88-.3,1.43,1.43,0,0,0,.3-1V203A1.81,1.81,0,0,0,385,201.87Z" style="fill:#263238"></path><path d="M307.42,201.28a1.55,1.55,0,0,0,.62-.53,4.14,4.14,0,0,0,.4-.84h1.32V212.4h-2v-9.52h-1.52v-1.4A2.59,2.59,0,0,0,307.42,201.28Z" style="fill:#263238"></path><path d="M315.66,201.87a.93.93,0,0,0-.76-.31q-1,0-1,1.23v.8H312v-.68a3.31,3.31,0,0,1,.75-2.33,3.33,3.33,0,0,1,4.35,0,3.31,3.31,0,0,1,.75,2.33v.32a3.43,3.43,0,0,1-.34,1.65,1.94,1.94,0,0,1-1,.92,2.57,2.57,0,0,1,1.37,2.63v1a3.33,3.33,0,0,1-.75,2.33,3.33,3.33,0,0,1-4.35,0,3.33,3.33,0,0,1-.75-2.33v-1h1.85v1.16q0,1.23,1,1.23a.93.93,0,0,0,.76-.31,1.77,1.77,0,0,0,.26-1.1v-1a1.86,1.86,0,0,0-.31-1.22,1.2,1.2,0,0,0-1-.37H314V205h.77a1.17,1.17,0,0,0,.88-.3,1.43,1.43,0,0,0,.3-1V203A1.81,1.81,0,0,0,315.66,201.87Z" style="fill:#263238"></path><path d="M321.55,201.28a1.43,1.43,0,0,0,.62-.53,4.14,4.14,0,0,0,.4-.84h1.32V212.4h-2v-9.52h-1.52v-1.4A2.59,2.59,0,0,0,321.55,201.28Z" style="fill:#263238"></path><path d="M328.23,208.57v3.83h-2V199.91h2v5.45l2.57-5.45h2L330,205.48l2.73,6.92h-2l-1.91-5Z" style="fill:#263238"></path><path d="M309,235.71H244a6.29,6.29,0,0,1-6.3-6.29h0a6.3,6.3,0,0,1,6.3-6.3h65a6.3,6.3,0,0,1,6.3,6.3h0A6.29,6.29,0,0,1,309,235.71Z" style="fill:#92E3A9;stroke:#263238;stroke-linecap:round;stroke-linejoin:round;stroke-width:0.932619px"></path><path d="M393.32,235.71h-65a6.29,6.29,0,0,1-6.29-6.29h0a6.3,6.3,0,0,1,6.29-6.3h65a6.3,6.3,0,0,1,6.3,6.3h0A6.29,6.29,0,0,1,393.32,235.71Z" style="fill:#92E3A9;stroke:#263238;stroke-linecap:round;stroke-linejoin:round;stroke-width:0.932619px"></path><path d="M313,229.42a4.45,4.45,0,1,1-4.44-4.45A4.44,4.44,0,0,1,313,229.42Z" style="fill:#fff;stroke:#263238;stroke-linecap:round;stroke-linejoin:round;stroke-width:0.932619px"></path><polyline points="306.47 229.19 308.11 230.93 310.66 227.91" style="fill:none;stroke:#263238;stroke-linecap:round;stroke-linejoin:round;stroke-width:0.932619px"></polyline><path d="M419.61,367.62v21.3a2.87,2.87,0,0,1-2.87,2.87H220.56a2.88,2.88,0,0,1-2.87-2.87v-21.3Z" style="fill:#92E3A9;stroke:#263238;stroke-linecap:round;stroke-linejoin:round;stroke-width:0.932619px"></path><rect x="236.51" y="247.08" width="52.53" height="52.53" style="fill:#92E3A9"></rect><g style="clip-path:url(#clip-path-2)"><rect x="236.51" y="247.08" width="52.53" height="52.53" style="fill:#fff;opacity:0.5"></rect><polygon points="286.88 297.27 286.88 274.49 279.39 267.56 264.65 282.23 256.68 276.74 238.67 297.27 286.88 297.27" style="fill:#92E3A9"></polygon><circle cx="252.29" cy="262.24" r="6.75" style="fill:#92E3A9"></circle></g><rect x="236.51" y="247.08" width="52.53" height="52.53" style="fill:none;stroke:#263238;stroke-linecap:round;stroke-linejoin:round;stroke-width:0.932619px"></rect><rect x="292.38" y="247.08" width="52.53" height="52.53" style="fill:#92E3A9"></rect><g style="clip-path:url(#clip-path-3)"><rect x="292.38" y="247.08" width="52.53" height="52.53" style="fill:#fff;opacity:0.5"></rect><polygon points="342.75 297.27 342.75 274.49 335.26 267.56 320.53 282.23 312.56 276.74 294.54 297.27 342.75 297.27" style="fill:#92E3A9"></polygon><circle cx="308.17" cy="262.24" r="6.75" style="fill:#92E3A9"></circle></g><rect x="292.38" y="247.08" width="52.53" height="52.53" style="fill:none;stroke:#263238;stroke-linecap:round;stroke-linejoin:round;stroke-width:0.932619px"></rect><rect x="348.26" y="247.08" width="52.53" height="52.53" style="fill:#92E3A9"></rect><g style="clip-path:url(#clip-path-4)"><rect x="348.26" y="247.08" width="52.53" height="52.53" style="fill:#fff;opacity:0.5"></rect><polygon points="398.63 297.27 398.63 274.49 391.14 267.56 376.4 282.23 368.43 276.74 350.42 297.27 398.63 297.27" style="fill:#92E3A9"></polygon><circle cx="364.04" cy="262.24" r="6.75" style="fill:#92E3A9"></circle></g><rect x="348.26" y="247.08" width="52.53" height="52.53" style="fill:none;stroke:#263238;stroke-linecap:round;stroke-linejoin:round;stroke-width:0.932619px"></rect><rect x="236.51" y="302.99" width="52.53" height="52.53" style="fill:#92E3A9"></rect><g style="clip-path:url(#clip-path-5)"><rect x="236.51" y="302.99" width="52.53" height="52.53" style="fill:#fff;opacity:0.5"></rect><polygon points="286.88 353.19 286.88 330.41 279.39 323.48 264.65 338.15 256.68 332.65 238.67 353.19 286.88 353.19" style="fill:#92E3A9"></polygon><path d="M259.05,318.15a6.76,6.76,0,1,1-6.76-6.75A6.76,6.76,0,0,1,259.05,318.15Z" style="fill:#92E3A9"></path></g><rect x="236.51" y="302.99" width="52.53" height="52.53" style="fill:none;stroke:#263238;stroke-linecap:round;stroke-linejoin:round;stroke-width:0.932619px"></rect><rect x="292.38" y="302.99" width="52.53" height="52.53" style="fill:#92E3A9"></rect><g style="clip-path:url(#clip-path-6)"><rect x="292.38" y="302.99" width="52.53" height="52.53" style="fill:#fff;opacity:0.5"></rect><polygon points="342.75 353.19 342.75 330.41 335.26 323.48 320.53 338.15 312.56 332.65 294.54 353.19 342.75 353.19" style="fill:#92E3A9"></polygon><path d="M314.92,318.15a6.76,6.76,0,1,1-6.75-6.75A6.76,6.76,0,0,1,314.92,318.15Z" style="fill:#92E3A9"></path></g><rect x="292.38" y="302.99" width="52.53" height="52.53" style="fill:none;stroke:#263238;stroke-linecap:round;stroke-linejoin:round;stroke-width:0.932619px"></rect><rect x="348.26" y="302.99" width="52.53" height="52.53" style="fill:#92E3A9"></rect><g style="clip-path:url(#clip-path-7)"><rect x="348.26" y="302.99" width="52.53" height="52.53" style="fill:#fff;opacity:0.5"></rect><polygon points="398.63 353.19 398.63 330.41 391.14 323.48 376.4 338.15 368.43 332.65 350.42 353.19 398.63 353.19" style="fill:#92E3A9"></polygon><path d="M370.8,318.15A6.76,6.76,0,1,1,364,311.4,6.76,6.76,0,0,1,370.8,318.15Z" style="fill:#92E3A9"></path></g><rect x="348.26" y="302.99" width="52.53" height="52.53" style="fill:none;stroke:#263238;stroke-linecap:round;stroke-linejoin:round;stroke-width:0.932619px"></rect></g><g id="Bubble"><path d="M160.72,98H109.05a6.88,6.88,0,0,0-6.88,6.88v44.38a6.88,6.88,0,0,0,6.88,6.88H132L145.07,172l-3.29-15.82h18.94a6.88,6.88,0,0,0,6.88-6.88V104.87A6.88,6.88,0,0,0,160.72,98Z" style="fill:#fff;stroke:#263238;stroke-linecap:round;stroke-linejoin:round"></path><path d="M145.06,114.92c-5.41-1.66-8.69,1.67-10.17,3.81-1.48-2.14-4.77-5.47-10.18-3.81-5.87,1.81-7.91,9.29-3,16.12C125.3,136,131,139.31,134,140.8c.35.18.67.33.93.45.26-.12.58-.27.93-.45,2.93-1.49,8.66-4.85,12.21-9.76C153,124.21,150.93,116.73,145.06,114.92Z" style="fill:#92E3A9"></path></g><g id="Character"><path d="M253.18,299.32c3.64-6,21.12-5.91,22.7-3.24,0,0-8.66,28-18.31,25.08S253.18,299.32,253.18,299.32Z" style="fill:#757575"></path><g style="clip-path:url(#clip-path-8)"><path d="M253.18,299.32c3.64-6,21.12-5.91,22.7-3.24,0,0-8.66,28-18.31,25.08S253.18,299.32,253.18,299.32Z" style="fill-opacity:0.7000000000000001;opacity:0.5"></path></g><path d="M253.18,299.32c3.64-6,21.12-5.91,22.7-3.24,0,0-8.66,28-18.31,25.08S253.18,299.32,253.18,299.32Z" style="fill:none;stroke:#263238;stroke-linecap:round;stroke-linejoin:round"></path><path d="M263,263.25s3,0,8.12,11.78a27.88,27.88,0,0,1,1.58,16.25l-2,22.41-17.87-2.57,4.7-21.19S252.13,273,263,263.25Z" style="fill:#fff;stroke:#263238;stroke-linecap:round;stroke-linejoin:round"></path><path d="M274,313.56a8.62,8.62,0,0,1,1.85,5.28c0,2.61-5,54.75-20.35,72.9-3.22,3.81-6.9,6.12-11.09,6.17-13,.14-19.31-10.18-27.59-34.12q-1.54-4.47-3.21-9.6c-8-24.71-17.94-76.25-17.94-76.25s17.55,4.07,28,14.39C228.21,296.84,233,309.64,236,319c1.49,4.62,2.57,8.41,3,10l.22.82a23.57,23.57,0,0,1,1.84-4.67s0,0,0,0a.34.34,0,0,0,.06-.12,57.08,57.08,0,0,1,8.25-11.35l3.79-14.37s1.34,2.62,7.4,3.55,15.3-6.79,15.3-6.79Z" style="fill:#757575"></path><g style="clip-path:url(#clip-path-9)"><path d="M255.53,391.74c-3.22,3.81-6.9,6.12-11.09,6.17-13,.14-19.31-10.18-27.59-34.12l.18-55.64s9.78,1.9,18.95,10.89c1.49,4.62,2.57,8.41,3,10-3.66,7.62-10,25.14-2.72,43.81C241,385,248.8,389.89,255.53,391.74Z" style="fill-opacity:0.7000000000000001;opacity:0.30000000000000004"></path></g><path d="M274,313.56a8.62,8.62,0,0,1,1.85,5.28c0,2.61-5,54.75-20.35,72.9-3.22,3.81-6.9,6.12-11.09,6.17-13,.14-19.31-10.18-27.59-34.12q-1.54-4.47-3.21-9.6c-8-24.71-17.94-76.25-17.94-76.25s17.55,4.07,28,14.39C228.21,296.84,233,309.64,236,319c1.49,4.62,2.57,8.41,3,10l.22.82a23.57,23.57,0,0,1,1.84-4.67s0,0,0,0a.34.34,0,0,0,.06-.12,57.08,57.08,0,0,1,8.25-11.35l3.79-14.37s1.34,2.62,7.4,3.55,15.3-6.79,15.3-6.79Z" style="fill:none;stroke:#263238;stroke-linecap:round;stroke-linejoin:round"></path><path d="M117.13,271.16s18,2.54,29.63-2.59,3.43,38.79-13.24,32.46S117.13,271.16,117.13,271.16Z" style="fill:#999"></path><g style="clip-path:url(#clip-path-10)"><path d="M117.13,271.16s18,2.54,29.63-2.59,3.43,38.79-13.24,32.46S117.13,271.16,117.13,271.16Z" style="fill-opacity:0.7000000000000001;opacity:0.5"></path></g><path d="M117.13,271.16s18,2.54,29.63-2.59,3.43,38.79-13.24,32.46S117.13,271.16,117.13,271.16Z" style="fill:none;stroke:#263238;stroke-linecap:round;stroke-linejoin:round"></path><path d="M230.41,467.77c-2.65-.27-5.28-.57-7.91-.9q-3.15-.39-6.28-.86-4.8-.69-9.58-1.53l-.1,0c-23-4.1-44.71-11.2-64.23-21.92a165.88,165.88,0,0,1-21-13.67C108.51,395.42,80.5,318.38,87.82,305.22c9-16.12,28.05-29,63.06-30.75,32.47-1.62,59.24,9.89,65.64,23.27,6.11,12.77,5.86,98.44,4.31,138.21-.07,1.89-.15,3.67-.23,5.34l1.1,3.27Z" style="fill:#92E3A9"></path><g style="clip-path:url(#clip-path-11)"><path d="M230.41,467.77c-2.65-.27-5.28-.57-7.91-.9q-3.15-.39-6.28-.86-4.8-.69-9.58-1.53l-5.2-20.41s4-21.76,3.54-25.61a13.49,13.49,0,0,0-3.54-6.89c5.87-18.65,0-68.92,0-68.92l8.88-10.2L220.83,436l.87,8.61Z" style="fill-opacity:0.7000000000000001;opacity:0.30000000000000004"></path></g><path d="M230.41,467.77c-2.65-.27-5.28-.57-7.91-.9q-3.15-.39-6.28-.86-4.8-.69-9.58-1.53l-.1,0c-23-4.1-44.71-11.2-64.23-21.92a165.88,165.88,0,0,1-21-13.67C108.51,395.42,80.5,318.38,87.82,305.22c9-16.12,28.05-29,63.06-30.75,32.47-1.62,59.24,9.89,65.64,23.27,6.11,12.77,5.86,98.44,4.31,138.21-.07,1.89-.15,3.67-.23,5.34l1.1,3.27Z" style="fill:none;stroke:#263238;stroke-linecap:round;stroke-linejoin:round"></path><path d="M232.56,468q-5.06-.47-10.06-1.1-3.15-.39-6.28-.86c-2-17.34-4.85-42.34-7.51-67.3h0c-2.16-20.17-4.23-40.33-5.73-56.39-.22-2.4-.44-4.7-.64-6.9-.53-6-1-11.3-1.26-15.49,0-.34-.05-.66-.07-1-.14-2-.24-3.81-.3-5.25a64.59,64.59,0,0,0-5.83-25.35c-4.74-10-10.63-14-10.63-14A91.94,91.94,0,0,1,200,278.77c5.68,2.19,11.87,5.28,16.65,9.54A28.33,28.33,0,0,1,220,291.8a23.12,23.12,0,0,1,2.48,3.69c8.71,16.22,4.75,141.55,4.75,141.55Z" style="fill:#757575;stroke:#263238;stroke-linecap:round;stroke-linejoin:round"></path><path d="M200.86,316.48s-4.25-16.83-9.59-27.51a25.37,25.37,0,0,0-4.9-7.23c-6.55-5.85-25.29-7.35-25.29-7.35a15.26,15.26,0,0,1,5.66-6.14c8.25-5,20.86-1,31.07,8.65C210.81,289.22,200.86,316.48,200.86,316.48Z" style="fill:#999"></path><g style="clip-path:url(#clip-path-12)"><path d="M191.27,289a25.37,25.37,0,0,0-4.9-7.23c-6.55-5.85-25.29-7.35-25.29-7.35a15.26,15.26,0,0,1,5.66-6.14c6,.34,12.25,1.15,16,2.91C189,274.06,191.72,280.65,191.27,289Z" style="fill-opacity:0.7000000000000001;opacity:0.5"></path></g><path d="M200.86,316.48s-4.25-16.83-9.59-27.51a25.37,25.37,0,0,0-4.9-7.23c-6.55-5.85-25.29-7.35-25.29-7.35a15.26,15.26,0,0,1,5.66-6.14c8.25-5,20.86-1,31.07,8.65C210.81,289.22,200.86,316.48,200.86,316.48Z" style="fill:none;stroke:#263238;stroke-linecap:round;stroke-linejoin:round"></path><path d="M133.52,248.26s7.95,10.5,1.74,30.09c0,0,15.83,6.78,33,1.16,0,0-6.51-10.77-3.62-22.3S141.24,234.92,133.52,248.26Z" style="fill:#fff;stroke:#263238;stroke-linecap:round;stroke-linejoin:round"></path><path d="M128.93,232.67c-6.32-27.09,6.78-38.84,15.36-42.39,13.74-5.69,31.61,3.25,35.68,18.31s.4,18.48.59,24.64c.13,4.32,2.8,6.44-.14,17.28-1.94,7.15-5.16,18.63-17.39,16.57a40.79,40.79,0,0,1-10.81-3.51" style="fill:#fff;stroke:#263238;stroke-linecap:round;stroke-linejoin:round"></path><path d="M164.61,219.4s-5.08-1.89-7.8,4.07" style="fill:none;stroke:#263238;stroke-linecap:round;stroke-linejoin:round"></path><path d="M181.89,218.51s-3.78-3.46-7.57,1.43" style="fill:none;stroke:#263238;stroke-linecap:round;stroke-linejoin:round"></path><path d="M163.6,230.87c0,1.26-.56,2.28-1.26,2.28s-1.26-1-1.26-2.28.56-2.28,1.26-2.28S163.6,229.61,163.6,230.87Z" style="fill:#263238"></path><path d="M178.11,229.62c0,1.26-.56,2.28-1.26,2.28s-1.26-1-1.26-2.28.56-2.28,1.26-2.28S178.11,228.36,178.11,229.62Z" style="fill:#263238"></path><path d="M144.29,230.87s8.09,19.59,9.74,20.63c3.71,2.32,12-12.17,20.21-9.11,0,0,3.66-1.75,4.64-.83,5.36,5,2.77-2.05,2.77-2.05s8.11,18.38,3.16,25.07c-9.88,13.38-28.94,6-34,.58s-5.24-20.81-5.24-20.81.58-4.84-3.91-10.74Z" style="fill:#263238"></path><path d="M145.36,233.15s-.79-5.27,5.52-11.21c0,0-1.11-9.43-5.55-12.92,0,0,18.91-10.37,34-2.42,0,0,13.88-6.89-5-19.4s-49.43-.59-53.5,23c0,0,2.32-3.19,4.94-4.35,0,0-11.83,19.21,10.67,49C136.43,254.84,136.46,237.5,145.36,233.15Z" style="fill:#263238"></path><path d="M173.18,224.29s-.55,7,3.67,12.38,1.49,6.38-4.25,5.53c-4.7-.7-2.48-2.76-2.48-2.76" style="fill:#fff;stroke:#263238;stroke-linecap:round;stroke-linejoin:round"></path><path d="M144.29,237.42s-5-9.26-10.16-7-1.58,13.32,2.93,16.93,7.23,0,7.23,0" style="fill:#fff;stroke:#263238;stroke-linecap:round;stroke-linejoin:round"></path><path d="M173.71,247.32c-2.05.38-3.26,3-3.46,4.7s1.29,5,3.27,4.72.8-4.76.8-4.76S176.29,246.85,173.71,247.32Z" style="fill:#fff"></path><path d="M146.36,401.9c-.48,4.83-1,9.59-1.43,14.18-.82,7.85-1.75,17.47-2.62,26.46A163.13,163.13,0,0,1,101.48,411c.09-2.65.08-5.07-.06-7.13a124.3,124.3,0,0,0-2-12.84c-2.38-12.48-6.47-30-10-45.69-3.71-16.55-6.82-31.09-6.65-35.62C83.22,299.05,99,282.67,118,276.9c0,0,29.29,20.18,32.85,41.94C152.71,330.07,149.7,367.9,146.36,401.9Z" style="fill:#757575"></path><g style="clip-path:url(#clip-path-13)"><path d="M146.36,401.9c-.48,4.83-1,9.59-1.43,14.18-.21.07-.42.12-.64.17-15.36,3.46-33.65-12.94-44.82-25.2-2.38-12.48-6.47-30-10-45.69l10.35,6.93S135.61,382.9,146.36,401.9Z" style="fill-opacity:0.7000000000000001;opacity:0.30000000000000004"></path></g><path d="M146.36,401.9c-.48,4.83-1,9.59-1.43,14.18-.82,7.85-1.75,17.47-2.62,26.46A163.13,163.13,0,0,1,101.48,411c.09-2.65.08-5.07-.06-7.13a124.3,124.3,0,0,0-2-12.84c-2.38-12.48-6.47-30-10-45.69-3.71-16.55-6.82-31.09-6.65-35.62C83.22,299.05,99,282.67,118,276.9c0,0,29.29,20.18,32.85,41.94C152.71,330.07,149.7,367.9,146.36,401.9Z" style="fill:none;stroke:#263238;stroke-linecap:round;stroke-linejoin:round"></path><path d="M216.74,282.42a4.7,4.7,0,0,0,5.6,3.18" style="fill:none;stroke:#263238;stroke-linecap:round;stroke-linejoin:round"></path><path d="M191.54,289.93c1.66-3,6.41-1.56,11.94,7.15s7.8,18.85,6.47,22.55-19.26,8.17-19.26,8.17L187,318.44Z" style="fill:#757575"></path><g style="clip-path:url(#clip-path-14)"><path d="M191.54,289.93c1.66-3,6.41-1.56,11.94,7.15s7.8,18.85,6.47,22.55-19.26,8.17-19.26,8.17L187,318.44Z" style="fill-opacity:0.7000000000000001;opacity:0.5"></path></g><path d="M191.54,289.93c1.66-3,6.41-1.56,11.94,7.15s7.8,18.85,6.47,22.55-19.26,8.17-19.26,8.17L187,318.44Z" style="fill:none;stroke:#263238;stroke-linecap:round;stroke-linejoin:round"></path><path d="M231.86,272.12s3,0,3.27,2.2-4.2,5-4.2,5" style="fill:#fff;stroke:#263238;stroke-linecap:round;stroke-linejoin:round"></path><path d="M184.24,308.29,201,276.9s11.07-13.36,15.56-15,29-2.42,29-2.42,1,2.66-2.79,4-15.4,2.43-15.4,2.43,3.42,1.48,4.21,2.68,0,11.15-1.58,13.17-7.65,3.86-7.65,3.86-.8,7-6.73,10.48-8.83,3.5-8.83,3.5L198.6,327Z" style="fill:#fff;stroke:#263238;stroke-linecap:round;stroke-linejoin:round"></path><path d="M217,271.16s8.61,1,9.7,1.79.56,6.92,0,9.07a3.86,3.86,0,0,1-1.88,2.7" style="fill:none;stroke:#263238;stroke-linecap:round;stroke-linejoin:round"></path><path d="M220.53,266.08s8.47,2.12,9,3.21a21.07,21.07,0,0,1,.4,9.11c-.69,3.35-.89,4.39-2.19,5" style="fill:none;stroke:#263238;stroke-linecap:round;stroke-linejoin:round"></path><path d="M227.36,265.89a28.29,28.29,0,0,0-3.7-1.25" style="fill:none;stroke:#263238;stroke-linecap:round;stroke-linejoin:round"></path><path d="M222.2,277.94a7.78,7.78,0,0,1-5.79,2.65s1.85,7.12-1.45,11.74" style="fill:none;stroke:#263238;stroke-linecap:round;stroke-linejoin:round"></path><path d="M220.53,279.36s1.92,1.55,1.67,2.38" style="fill:none;stroke:#263238;stroke-linecap:round;stroke-linejoin:round"></path><path d="M255.68,286.32l-11.61,3.85c-1.23.32-3.65-1.73-3.55-3L244,246.58a3.87,3.87,0,0,1,2.89-3.42l12.87-2.79c1.22-.32,4.32,1.15,4.21,2.42l-5.37,40.11A3.87,3.87,0,0,1,255.68,286.32Z" style="fill:#92E3A9"></path><g style="clip-path:url(#clip-path-15)"><path d="M255.68,286.32l-11.61,3.85c-1.23.32-3.65-1.73-3.55-3L244,246.58a3.87,3.87,0,0,1,2.89-3.42l12.87-2.79c1.22-.32,4.32,1.15,4.21,2.42l-5.37,40.11A3.87,3.87,0,0,1,255.68,286.32Z" style="fill-opacity:0.7000000000000001;opacity:0.30000000000000004"></path></g><path d="M255.68,286.32l-11.61,3.85c-1.23.32-3.65-1.73-3.55-3L244,246.58a3.87,3.87,0,0,1,2.89-3.42l12.87-2.79c1.22-.32,4.32,1.15,4.21,2.42l-5.37,40.11A3.87,3.87,0,0,1,255.68,286.32Z" style="fill:none;stroke:#263238;stroke-linecap:round;stroke-linejoin:round"></path><path d="M257.59,287.32l-12.86,2.79a1.83,1.83,0,0,1-2.29-1.94l3.44-40.59a3.87,3.87,0,0,1,2.89-3.42l12.87-2.79a1.83,1.83,0,0,1,2.29,1.94l-3.44,40.59A3.87,3.87,0,0,1,257.59,287.32Z" style="fill:#92E3A9;stroke:#263238;stroke-linecap:round;stroke-linejoin:round"></path><path d="M250.46,255.09l-2.07.46a.3.3,0,0,1-.37-.32l.55-6.54a.61.61,0,0,1,.47-.55l2.07-.46a.3.3,0,0,1,.37.32l-.55,6.54A.62.62,0,0,1,250.46,255.09Z" style="fill-opacity:0.7000000000000001;opacity:0.30000000000000004"></path><path d="M268.56,275.44c.5-5.69-4.69-14.23-8.13-14.23s-13.94,8.08-13.94,8.08c-4.06,2.94-2.05,5.74-2.05,5.74-2.39,1.58-3,3.72-1.95,4.71s4.57,0,4.57,0-3.48,2.54-2.62,3.79c2.05,3,8.8-.95,8.8-.95s-3.92,2.59-3.69,3.08c1.47,3.22,7.86-.54,7.86-.54l4.5,2.3a3.84,3.84,0,0,0,4.09,3.86" style="fill:#fff;stroke:#263238;stroke-linecap:round;stroke-linejoin:round"></path><path d="M244.44,275s9.83-6.35,11.06-6.52,5.79-1.16,5.79-1.16" style="fill:#fff;stroke:#263238;stroke-linecap:round;stroke-linejoin:round"></path><path d="M247.06,279.74s8-4.12,9.44-4.12a54,54,0,0,0,6.51-1.13" style="fill:#fff;stroke:#263238;stroke-linecap:round;stroke-linejoin:round"></path><path d="M253.24,282.58a19.28,19.28,0,0,1,2.95-1.73,40,40,0,0,1,5.72,0" style="fill:#fff;stroke:#263238;stroke-linecap:round;stroke-linejoin:round"></path><path d="M150.88,323.58s-18.92-32.52-48.83-39l-7.18,5.58s-1.36-5,12.48-18,34.81,13.06,41.14,25.73S150.88,323.58,150.88,323.58Z" style="fill:#999;stroke:#263238;stroke-linecap:round;stroke-linejoin:round"></path><path d="M113.49,298.24c12.49,8.23,20,28.11,20,28.11L153,362.61s16.39-40.36,21-40.87l17.49-31.81s-2.07,18.64,5.22,26.55S210,319.63,210,319.63l-5.45,15-1.35,7.14s-23,69-30.51,73.25-24.62,6.18-39.12-4.43S89,358.08,86.62,345s-8.8-41.62,9.42-48.87" style="fill:#757575;stroke:#263238;stroke-linecap:round;stroke-linejoin:round"></path><path d="M141.2,297.38a23.8,23.8,0,0,1,2.07,4.28" style="fill:none;stroke:#263238;stroke-linecap:round;stroke-linejoin:round"></path><path d="M111.42,275.31c11.77.88,20.68,11.87,28.23,19.76" style="fill:none;stroke:#263238;stroke-linecap:round;stroke-linejoin:round"></path><path d="M102.4,277.11a18.12,18.12,0,0,1,6.22-1.78" style="fill:none;stroke:#263238;stroke-linecap:round;stroke-linejoin:round"></path><path d="M181.82,274.18a18.2,18.2,0,0,0-5-2.06" style="fill:none;stroke:#263238;stroke-linecap:round;stroke-linejoin:round"></path><path d="M189.89,286.41a16.07,16.07,0,0,0-6-10.84" style="fill:none;stroke:#263238;stroke-linecap:round;stroke-linejoin:round"></path><path d="M181.08,326.51a33.21,33.21,0,0,1-1.74-2.93" style="fill:none;stroke:#263238;stroke-linecap:round;stroke-linejoin:round"></path><path d="M195.82,335.94a19.87,19.87,0,0,1-12.9-7" style="fill:none;stroke:#263238;stroke-linecap:round;stroke-linejoin:round"></path><path d="M204.5,334.66a17.45,17.45,0,0,1-6.12,1.36" style="fill:none;stroke:#263238;stroke-linecap:round;stroke-linejoin:round"></path><path d="M147.9,378.59a17.89,17.89,0,0,0,.4,5" style="fill:none;stroke:#263238;stroke-linecap:round;stroke-linejoin:round"></path><path d="M153,362.61a39.81,39.81,0,0,0-4.78,13" style="fill:none;stroke:#263238;stroke-linecap:round;stroke-linejoin:round"></path><path d="M142.23,369.1s3.55-4.44,7.59-6.49" style="fill:none;stroke:#263238;stroke-linecap:round;stroke-linejoin:round"></path><path d="M111.42,316.48s11-1.47,19.67,8.57" style="fill:none;stroke:#263238;stroke-linecap:round;stroke-linejoin:round"></path><path d="M99.82,347.15a10.31,10.31,0,0,0,6.15-1" style="fill:none;stroke:#263238;stroke-linecap:round;stroke-linejoin:round"></path><path d="M86.62,338.84a26.17,26.17,0,0,0,10.45,7.62" style="fill:none;stroke:#263238;stroke-linecap:round;stroke-linejoin:round"></path><path d="M232.66,346.86c-.94,4.88-1,10.18,1.29,14.72" style="fill:none;stroke:#263238;stroke-linecap:round;stroke-linejoin:round"></path><path d="M239.22,329.87a55.79,55.79,0,0,0-5.87,14" style="fill:none;stroke:#263238;stroke-linecap:round;stroke-linejoin:round"></path><path d="M230.93,336s1.83-5,6.77-6.15" style="fill:none;stroke:#263238;stroke-linecap:round;stroke-linejoin:round"></path><path d="M256.18,317.63a17.79,17.79,0,0,1-3.31-2.33" style="fill:none;stroke:#263238;stroke-linecap:round;stroke-linejoin:round"></path><path d="M274,313.56c-3.87,4.14-9.91,6.85-15.54,5.05" style="fill:none;stroke:#263238;stroke-linecap:round;stroke-linejoin:round"></path><path d="M144.29,285.14s18.2,4.23,28.35-2.56" style="fill:none;stroke:#263238;stroke-linecap:round;stroke-linejoin:round"></path><path d="M208.71,398.71s-9.05,25.84-32,30.59" style="fill:none;stroke:#263238;stroke-linecap:round;stroke-linejoin:round"></path><path d="M143.27,435.36s19.29,15.06,46.1,13.72" style="fill:none;stroke:#263238;stroke-linecap:round;stroke-linejoin:round"></path><path d="M241.15,325.05l-.07.11a.34.34,0,0,0,.06-.12Z" style="fill-opacity:0.7000000000000001;opacity:0.30000000000000004"></path></g></svg>