<svg xmlns="http://www.w3.org/2000/svg" viewBox="0 0 500 500"><g id="background-simple"><path d="M394.7,286c-32.31-20.11-54.63-52.76-63-89.9q-1.49-6.66-3.37-13.23c-11.22-39.38-34.18-78.51-72.76-96.44-16.16-7.52-34.17-10.88-52.12-12.2-14.87-1.1-29.94-.84-44.53,2.12A121.9,121.9,0,0,0,61.52,199.26c.31,13.06,2.62,26.06,2.14,39.11-.76,20.56-8.39,40.39-10.2,60.89-3,34.39,11.51,68.61,37.65,91,42.13,36.14,106.92,45.53,160.54,45.1,101.35-.81,183.19-42.48,182.78-93.08C434.26,320.93,419.43,301.37,394.7,286Z" style="fill:#92E3A9"></path><path d="M394.7,286c-32.31-20.11-54.63-52.76-63-89.9q-1.49-6.66-3.37-13.23c-11.22-39.38-34.18-78.51-72.76-96.44-16.16-7.52-34.17-10.88-52.12-12.2-14.87-1.1-29.94-.84-44.53,2.12A121.9,121.9,0,0,0,61.52,199.26c.31,13.06,2.62,26.06,2.14,39.11-.76,20.56-8.39,40.39-10.2,60.89-3,34.39,11.51,68.61,37.65,91,42.13,36.14,106.92,45.53,160.54,45.1,101.35-.81,183.19-42.48,182.78-93.08C434.26,320.93,419.43,301.37,394.7,286Z" style="fill:#fff;opacity:0.6000000000000001"></path></g><g id="Room"><line x1="48.44" y1="378.01" x2="317.67" y2="285.81" style="fill:none;stroke:#263238;stroke-linecap:round;stroke-linejoin:round"></line><line x1="316.14" y1="287.01" x2="316.14" y2="73.75" style="fill:none;stroke:#263238;stroke-linecap:round;stroke-linejoin:round"></line><line x1="315.64" y1="286.04" x2="467.82" y2="325.28" style="fill:none;stroke:#263238;stroke-linecap:round;stroke-linejoin:round"></line><line x1="240.64" y1="196.82" x2="268.31" y2="187.59" style="fill:none;stroke:#263238;stroke-linecap:round;stroke-linejoin:round"></line><polyline points="247.78 181.65 275.45 172.42 275.45 160.03 252.07 167.24" style="fill:none;stroke:#263238;stroke-linecap:round;stroke-linejoin:round"></polyline><line x1="259.84" y1="177.63" x2="259.84" y2="190.19" style="fill:none;stroke:#263238;stroke-linecap:round;stroke-linejoin:round"></line><line x1="265.61" y1="150.35" x2="265.61" y2="162.91" style="fill:none;stroke:#263238;stroke-linecap:round;stroke-linejoin:round"></line><line x1="249.05" y1="131.33" x2="276.72" y2="122.11" style="fill:none;stroke:#263238;stroke-linecap:round;stroke-linejoin:round"></line><line x1="256.19" y1="116.17" x2="283.87" y2="106.94" style="fill:none;stroke:#263238;stroke-linecap:round;stroke-linejoin:round"></line><line x1="268.25" y1="112.15" x2="268.25" y2="124.71" style="fill:none;stroke:#263238;stroke-linecap:round;stroke-linejoin:round"></line></g><g id="Plant"><path d="M428.64,232.52s.66-5.69,4.43-8.92,10.47-10,10.47-10,2.2,9.27-1.26,13.53-13.38,12.23-13.38,12.23Z" style="fill:#92E3A9"></path><path d="M428.64,232.52s.66-5.69,4.43-8.92,10.47-10,10.47-10,2.2,9.27-1.26,13.53-13.38,12.23-13.38,12.23Z" style="fill:#fff;opacity:0.4"></path><path d="M411.73,259.8a34.63,34.63,0,0,0-11.89-9.39s-.82,6.9,4,10.12a31.46,31.46,0,0,0,8.05,4.14" style="fill:#92E3A9"></path><path d="M408.7,238.15A47.43,47.43,0,0,0,395,232.09s1.29,6.67,5.75,8.22a90.75,90.75,0,0,0,9.82,2.65Z" style="fill:#92E3A9"></path><path d="M398.61,219.46a54.25,54.25,0,0,0-11.81-7.33s.21,6.29,4,8.65a39.67,39.67,0,0,0,9.07,3.77Z" style="fill:#92E3A9"></path><path d="M398.3,218.48s.14-4.72,2.47-7.67l5.62-7.13s2.2,7.43-.45,10.39-6.57,7.82-6.57,7.82Z" style="fill:#92E3A9"></path><path d="M428.82,240.92s-1.19-6.69-5.06-10.87A79.49,79.49,0,0,1,416,219.46s-3.72,9.27-.57,14.66,12,12.43,12,12.43Z" style="fill:#92E3A9"></path><path d="M412.38,265.21s1.48-8.2,6.27-13.85c0,0,3.52,6.81.7,11.62a21,21,0,0,1-5.77,6.73Z" style="fill:#92E3A9"></path><path d="M417.81,278.34s-5.24-7-10.33-8.14c0,0-.88,6.64,3.41,9.55s8.8,5.63,8.8,5.63Z" style="fill:#92E3A9"></path><path d="M419.35,293.68s-4.39-9.56-9.41-12.07c0,0-1.78,6.19,1.46,10.58a39.64,39.64,0,0,0,7.34,7.41Z" style="fill:#92E3A9"></path><path d="M426.2,290s.28-8.36,2.79-13.17,7.53-12.6,7.53-12.6,3.59,8.51,1.9,13.33S428,294.9,428,294.9Z" style="fill:#92E3A9"></path><path d="M422.69,263a30.43,30.43,0,0,1,6.13-8.48c3.73-3.35,8.63-8.58,8.63-8.58s2.18,8.79,0,12.66-13.64,12-15.34,13.71C422.11,272.29,420.83,266.26,422.69,263Z" style="fill:#92E3A9"></path><path d="M437.13,160.92s-3-8.58-8.49-11.93-7.63-7-7.63-7-3.17,9.21,1.1,13.92,14.81,11.66,14.81,11.66Z" style="fill:#92E3A9"></path><path d="M429.78,191.41s-1.66-8.72-6-13.32-10.66-10.54-10.66-10.54-2.52,8,1.15,13.47,14.41,14.19,14.41,14.19Z" style="fill:#92E3A9"></path><path d="M427.22,197.06a23.31,23.31,0,0,1,7.32-6.83c4.6-2.62,12.66-7,12.66-7s-2.72,12.36-7.43,15.08-14.42,7.85-14.42,7.85S424.86,200,427.22,197.06Z" style="fill:#92E3A9"></path><path d="M411.73,259.8a34.63,34.63,0,0,0-11.89-9.39s-.82,6.9,4,10.12a31.46,31.46,0,0,0,8.05,4.14" style="fill:#fff;opacity:0.4"></path><path d="M408.7,238.15A47.43,47.43,0,0,0,395,232.09s1.29,6.67,5.75,8.22a90.75,90.75,0,0,0,9.82,2.65Z" style="fill:#fff;opacity:0.4"></path><path d="M398.61,219.46a54.25,54.25,0,0,0-11.81-7.33s.21,6.29,4,8.65a39.67,39.67,0,0,0,9.07,3.77Z" style="fill:#fff;opacity:0.4"></path><path d="M398.3,218.48s.14-4.72,2.47-7.67l5.62-7.13s2.2,7.43-.45,10.39-6.57,7.82-6.57,7.82Z" style="fill:#fff;opacity:0.4"></path><path d="M428.82,240.92s-1.19-6.69-5.06-10.87A79.49,79.49,0,0,1,416,219.46s-3.72,9.27-.57,14.66,12,12.43,12,12.43Z" style="fill:#fff;opacity:0.4"></path><path d="M412.38,265.21s1.48-8.2,6.27-13.85c0,0,3.52,6.81.7,11.62a21,21,0,0,1-5.77,6.73Z" style="fill:#fff;opacity:0.4"></path><path d="M417.81,278.34s-5.24-7-10.33-8.14c0,0-.88,6.64,3.41,9.55s8.8,5.63,8.8,5.63Z" style="fill:#fff;opacity:0.4"></path><path d="M419.35,293.68s-4.39-9.56-9.41-12.07c0,0-1.78,6.19,1.46,10.58a39.64,39.64,0,0,0,7.34,7.41Z" style="fill:#fff;opacity:0.4"></path><path d="M426.2,290s.28-8.36,2.79-13.17,7.53-12.6,7.53-12.6,3.59,8.51,1.9,13.33S428,294.9,428,294.9Z" style="fill:#fff;opacity:0.4"></path><path d="M422.69,263a30.43,30.43,0,0,1,6.13-8.48c3.73-3.35,8.63-8.58,8.63-8.58s2.18,8.79,0,12.66-13.64,12-15.34,13.71C422.11,272.29,420.83,266.26,422.69,263Z" style="fill:#fff;opacity:0.4"></path><path d="M437.13,160.92s-3-8.58-8.49-11.93-7.63-7-7.63-7-3.17,9.21,1.1,13.92,14.81,11.66,14.81,11.66Z" style="fill:#fff;opacity:0.4"></path><path d="M429.78,191.41s-1.66-8.72-6-13.32-10.66-10.54-10.66-10.54-2.52,8,1.15,13.47,14.41,14.19,14.41,14.19Z" style="fill:#fff;opacity:0.4"></path><path d="M427.22,197.06a23.31,23.31,0,0,1,7.32-6.83c4.6-2.62,12.66-7,12.66-7s-2.72,12.36-7.43,15.08-14.42,7.85-14.42,7.85S424.86,200,427.22,197.06Z" style="fill:#fff;opacity:0.4"></path><path d="M437.05,328.49a40.39,40.39,0,0,1-24.61,0,5.13,5.13,0,0,1-5.13-5.13V307h34.87v16.33A5.13,5.13,0,0,1,437.05,328.49Z" style="fill:#263238"></path><path d="M397.7,216.19s2.52,11.32,8.05,18.11,6.54,13.59,6,20.38a37.72,37.72,0,0,0,1.79,15c1.46,4.22,4.49,7.8,5.49,12.19,1.22,5.33.35,10.82-.18,16.18-.38,3.91-.89,7.82-1.56,11.69" style="fill:none;stroke:#263238;stroke-linecap:round;stroke-linejoin:round"></path><path d="M433.43,309.77s-11.32-26.66-11.32-40,6.79-22.13,6.79-30.44-6-26.41-3.27-37.48S436.7,184.2,437.45,160" style="fill:none;stroke:#263238;stroke-linecap:round;stroke-linejoin:round"></path><line x1="413.3" y1="268.84" x2="418.65" y2="257.67" style="fill:none;stroke:#263238;stroke-linecap:round;stroke-linejoin:round"></line><line x1="402.81" y1="255.65" x2="412.15" y2="263.96" style="fill:none;stroke:#263238;stroke-linecap:round;stroke-linejoin:round"></line><line x1="402.35" y1="238.15" x2="410.42" y2="242.47" style="fill:none;stroke:#263238;stroke-linecap:round;stroke-linejoin:round"></line><line x1="417.92" y1="228.3" x2="428.04" y2="244.99" style="fill:none;stroke:#263238;stroke-linecap:round;stroke-linejoin:round"></line><line x1="428.82" y1="237.53" x2="439.74" y2="223.6" style="fill:none;stroke:#263238;stroke-linecap:round;stroke-linejoin:round"></line><line x1="425.35" y1="203.17" x2="436.61" y2="195.24" style="fill:none;stroke:#263238;stroke-linecap:round;stroke-linejoin:round"></line><line x1="428.64" y1="193.83" x2="418.84" y2="180.33" style="fill:none;stroke:#263238;stroke-linecap:round;stroke-linejoin:round"></line><line x1="437.13" y1="165.49" x2="433.75" y2="159.95" style="fill:none;stroke:#263238;stroke-linecap:round;stroke-linejoin:round"></line><path d="M422.18,271.77s5-11.64,10.46-16.12" style="fill:none;stroke:#263238;stroke-linecap:round;stroke-linejoin:round"></path><path d="M427.54,294.11s2.28-12.4,7.74-20.76" style="fill:none;stroke:#263238;stroke-linecap:round;stroke-linejoin:round"></path><path d="M411.86,286.75c.2.14,5.61,5.47,6.79,10.88" style="fill:none;stroke:#263238;stroke-linecap:round;stroke-linejoin:round"></path><path d="M410.89,275.25s6.93,5.33,8.59,9" style="fill:none;stroke:#263238;stroke-linecap:round;stroke-linejoin:round"></path><line x1="395.02" y1="220.78" x2="399.76" y2="223.01" style="fill:none;stroke:#263238;stroke-linecap:round;stroke-linejoin:round"></line><line x1="398.91" y1="220.5" x2="400.77" y2="215.58" style="fill:none;stroke:#263238;stroke-linecap:round;stroke-linejoin:round"></line></g><g id="Window"><polygon points="83.13 103.96 216.06 61.17 216.06 223.25 83.13 267.04 83.13 103.96" style="fill:#fff;opacity:0.4"></polygon><polyline points="211.68 96.04 211.68 67.22 83.13 105.86 83.13 156.33 83.13 208.14 83.13 211.16 83.13 267.04" style="fill:none;stroke:#263238;stroke-linecap:round;stroke-linejoin:round"></polyline><path d="M154.3,244.25a1,1,0,0,1-1-1V124.79a1,1,0,0,1,2,0V243.25A1,1,0,0,1,154.3,244.25Z" style="fill:#263238"></path><line x1="211.68" y1="96.04" x2="211.68" y2="224.01" style="fill:none;stroke:#263238;stroke-linecap:round;stroke-linejoin:round"></line><path d="M212.07,165.09l-128.94,44v3a1.51,1.51,0,0,0,.46-.07l128.48-43.77Z" style="fill:#263238"></path><polygon points="216.06 223.25 211.68 224.53 211.68 61.17 216.06 61.17 216.06 223.25" style="fill:#263238"></polygon><polygon points="217.78 59.21 217.78 67.87 81.41 113.27 81.41 104.61 217.78 59.21" style="fill:#fff;stroke:#263238;stroke-linecap:round;stroke-linejoin:round"></polygon><polygon points="217.78 74.21 217.78 81.55 81.41 128.95 81.41 120.61 217.78 74.21" style="fill:#fff;stroke:#263238;stroke-linecap:round;stroke-linejoin:round"></polygon><polygon points="217.78 87.89 217.78 95.23 81.41 143.63 81.41 135.29 217.78 87.89" style="fill:#fff;stroke:#263238;stroke-linecap:round;stroke-linejoin:round"></polygon><polygon points="217.78 101.57 217.78 108.91 81.41 158.31 81.41 149.97 217.78 101.57" style="fill:#fff;stroke:#263238;stroke-linecap:round;stroke-linejoin:round"></polygon><polygon points="83.13 267.04 216.06 223.25 243.34 226.65 243.34 250.38 107.98 299.6 83.13 267.04" style="fill:#fff;stroke:#263238;stroke-linejoin:round"></polygon><polygon points="82.69 267.04 107.98 274.87 107.98 300.1 82.69 291.82 82.69 267.04" style="fill:#263238"></polygon><line x1="243.34" y1="226.65" x2="88.49" y2="281.63" style="fill:none;stroke:#263238;stroke-linecap:round;stroke-linejoin:round"></line></g><g id="Shadow"><path d="M402.23,379c-63.7,63.48-82.16,22.24-149.29,35.26C188.79,426.65,163.07,420.69,161,403c-2.45-21,25.65-18.81,41.06-30.37,20.16-15.13,26.05-39.85,84.11-28.12C353.2,358.06,432.62,348.68,402.23,379Z" style="opacity:0.1"></path></g><g id="Character"><path d="M255.78,283.55l-11.53-3.31s-.72-8.56-4-9.16-4.93,11.71-4.93,11.71-21.89,9.13-34.56,23.83c0,0-16.12-5.6-16.51,2.05s12.67,10.46,12.67,10.46,10,30.2,30.71,37.31S269,345.2,269,345.2l25.19-21.38-8.1-15.15-11.47-14Z" style="fill:#92E3A9"></path><path d="M255.78,283.55l-11.53-3.31s-.72-8.56-4-9.16-4.93,11.71-4.93,11.71-21.89,9.13-34.56,23.83c0,0-16.12-5.6-16.51,2.05s12.67,10.46,12.67,10.46,10,30.2,30.71,37.31S269,345.2,269,345.2l25.19-21.38-8.1-15.15-11.47-14Z" style="fill:#fff;opacity:0.2"></path><path d="M255.78,283.55l-11.53-3.31s-.72-8.56-4-9.16-4.93,11.71-4.93,11.71-21.89,9.13-34.56,23.83c0,0-16.12-5.6-16.51,2.05s12.67,10.46,12.67,10.46,10,30.2,30.71,37.31S269,345.2,269,345.2l25.19-21.38-8.1-15.15-11.47-14Z" style="fill:none;stroke:#263238;stroke-linecap:round;stroke-linejoin:round"></path><path d="M209.94,310.78s19-2.28,31.68,6.92" style="fill:none;stroke:#263238;stroke-linecap:round;stroke-linejoin:round"></path><path d="M220.45,302.21s8.48.68,15.73,12.36" style="fill:none;stroke:#263238;stroke-linecap:round;stroke-linejoin:round"></path><path d="M352.73,353.75s-4.52-12.47-1.28-22.48" style="fill:none;stroke:#263238;stroke-linecap:round;stroke-linejoin:round"></path><path d="M339.08,318.28s18.17-8.09,26.74-8.42c0,0,2.55-5.94,6.22-5.61s2.35,7,2.35,7S393.17,338.2,396.47,356c0,0,9.23,4.5,8.57,10s-10.22,2.52-10.22,2.52S374.64,390.61,339.08,388,328.16,326.7,339.08,318.28Z" style="fill:#92E3A9"></path><path d="M339.08,318.28s18.17-8.09,26.74-8.42c0,0,2.55-5.94,6.22-5.61s2.35,7,2.35,7S393.17,338.2,396.47,356c0,0,9.23,4.5,8.57,10s-10.22,2.52-10.22,2.52S374.64,390.61,339.08,388,328.16,326.7,339.08,318.28Z" style="fill:#fff;opacity:0.2"></path><path d="M339.08,318.28s18.17-8.09,26.74-8.42c0,0,2.55-5.94,6.22-5.61s2.35,7,2.35,7S393.17,338.2,396.47,356c0,0,9.23,4.5,8.57,10s-10.22,2.52-10.22,2.52S374.64,390.61,339.08,388,328.16,326.7,339.08,318.28Z" style="fill:none;stroke:#263238;stroke-linecap:round;stroke-linejoin:round"></path><path d="M353.61,357.22c-.39-1.65,1.31-21,14.89-31.6" style="fill:none;stroke:#263238;stroke-linecap:round;stroke-linejoin:round"></path><path d="M352.73,353.75s-4.52-12.47-1.28-22.48" style="fill:none;stroke:#263238;stroke-linecap:round;stroke-linejoin:round"></path><path d="M326.51,211.54c3.68,1.2,7.66,0,11.53-.27a25.88,25.88,0,0,1,20.2,7.57,16.11,16.11,0,0,1,4.25,6.85,12,12,0,0,1-2,10.29,31.23,31.23,0,0,0-2.69,3.41,3.86,3.86,0,0,0-.06,4.11c.75,1,2,1.27,3.18,1.67a16.84,16.84,0,0,1,10.37,11.28,21.06,21.06,0,0,1-1.86,15.43,18.38,18.38,0,0,1-7.28,7.69,15.17,15.17,0,0,1-17.23-2.36c-3.1-3-4.74-7.16-7.45-10.51-3.16-3.91-7.61-6.52-11.53-9.67s-7.55-7.33-7.92-12.35c-.32-4.37,1.88-8.47,3.16-12.66s1.32-9.5-2.19-12.13c1.87-2,3.51-4,5.38-6C325.42,212.8,326.11,213,326.51,211.54Z" style="fill:#263238"></path><path d="M255.77,316.15l4.35-10s7.29-22.58,9-24.45,5,2.16,5,2.16l9-31s-4.95-.1-9.9-.31-12.54,3.76-15.45,11.74-11.59,37.75-11.59,37.75l2.16,12,5.06,4.29Z" style="fill:#fff"></path><path d="M354.16,360.43c0,7.12-1.59,13-5.23,17.42-.84-10-5.67-22.9-22.57-32.32-25.65-11.16-44.9-13.61-44.9-13.61l-16.69-4.63-.38-9.86,21.46,3.22-1.64-4.47s-12.26-2-13.56-12.41,10-51.45,10-51.45,7.78.11,11.31-5.69,4-16.32,4-16.32l16.55-4.93s-2.71,14.27-.43,20.57.23,6,7,8.31,17.66,2,23.81,11.31c6.6,11.29,3.94,27.82-1.48,45.83-5.19,13.08-5.93,14.75-5.93,14.75s1.18,6.37,4,8.85S354.19,348.54,354.16,360.43Z" style="fill:#fff"></path><path d="M319.11,397.76s24.45-1.1,34.4-21.45c0,0,0-.06-3.23-9.92s-15.88-20.68-29.16-23.72c0,0-7.69-19-16.75-19.79-9.91-.84-29.21,13.15-48.54,33,0,0-25-20-36.67-21.15-9.82-1-15.14,5.73-13.41,11.71s6.43,16.45,10.24,19.91,14.8,10,14.8,10-20.57,14.89-25,16.66-36.52,10-36.52,10,1.75,7.4,8.63,9.09,13.36,3.4,19.54,1.36,10.33-4,14.29-4.49,11-.64,10.44-7.89c0,0,13.74-11.57,28.22-18.39l31.11,9.6s25.89,19.46,46.25,22.82c0,0,3,.27,2.48-4.74S319.11,397.76,319.11,397.76Z" style="fill:#fff"></path><path d="M274.2,372.46a91.21,91.21,0,0,0,13.31-6.07l5.18,15.33S278.22,376.31,274.2,372.46Z" style="fill:#92E3A9;opacity:0.8"></path><path d="M295.43,192.67s-12,3.8-14.09,11.4c0,0,.79,18.14,2.31,25.83s1,9.5,3.73,10.62,12.91-2.59,15.43-3.36,6-6.75,6-6.75,4-1.56,5.47-4.15,4.39-8.66,3.7-14.36S302.08,192.45,295.43,192.67Z" style="fill:#fff"></path><path d="M335.58,326.62s-1.5,5.32,6.72,11.5c8,6,12.82,17.31,12.82,26.72,0,4.75,0,5.44-1.61,10.65,0,0-3.23-8.15-12-18.27-8.55-7.37-13.06-6.72-16.45-7A65.76,65.76,0,0,0,320.46,340c3.93.64,5.37.73,6.78.54C331.12,338.12,335.58,326.62,335.58,326.62Z" style="fill:#92E3A9"></path><path d="M285.85,252.11l-5.16.68a286.18,286.18,0,0,0-7.86,29.71c-3.26,15.95-3.37,24.41-1.3,26.94s12.68,7.21,12.68,7.21l1.5,4.1s22.39,1.48,32.13-1.38a19.94,19.94,0,0,0,1.81-7.09c.24-4-.11-3.4.91-8.23s2.88-12.5,2.88-12.5-8.12-8.68,1.42-35.42l-6.8-1.67s-5.34,18.23-6.55,24.28-1.42,23.16-17.86,22-15.1-7.18-15.4-9.19-.19-11.47,2-19.85S285.85,252.11,285.85,252.11Z" style="fill:#92E3A9"></path><path d="M287.34,212.2s1,4-1,6.67-3.81,2.46-3.39,3.78,6.34,1.13,6.34,1.13" style="fill:none;stroke:#263238;stroke-linecap:round;stroke-linejoin:round"></path><path d="M294.47,228.23s-2,2.49-6.32,1.39" style="fill:none;stroke:#263238;stroke-linecap:round;stroke-linejoin:round"></path><path d="M290,211.19s1.75-2.83,6,.3" style="fill:none;stroke:#263238;stroke-linecap:round;stroke-linejoin:round"></path><path d="M285.63,210.44s-1.35-2-3.79.44" style="fill:none;stroke:#263238;stroke-linecap:round;stroke-linejoin:round"></path><path d="M292.08,215.84c-.11,1.18.23,2.18.76,2.23s1.06-.86,1.17-2-.23-2.18-.76-2.23S292.2,214.66,292.08,215.84Z" style="fill:#263238"></path><path d="M283.5,215c-.11,1.18.23,2.17.76,2.22s1.06-.86,1.17-2-.22-2.17-.76-2.22S283.62,213.84,283.5,215Z" style="fill:#263238"></path><path d="M308.68,223.58s5.17-6.35,7.08-5.51.32,6.63-2.46,9.35-4.22,2.11-5.57-1.2" style="fill:none;stroke:#263238;stroke-linecap:round;stroke-linejoin:round"></path><path d="M281.34,202.75s1.6,34.19,4.94,37.13,13.92-1.37,17.17-3c2.26-1.16,5-5.56,6.08-7.71" style="fill:none;stroke:#263238;stroke-linecap:round;stroke-linejoin:round"></path><path d="M313.07,251.06c-2.69-9.75-.41-23.06-.41-23.06" style="fill:none;stroke:#263238;stroke-linecap:round;stroke-linejoin:round"></path><path d="M310.92,221.1s-6.28-3.8-6.31-7.36c-.07-7.91-6.72-2.13-10.49-8.41-2-3.34-1.08-7.33.4-11.09l-.16-6.2s14.68-12,27.91,1.6,4,28.31-6,32.29c0,0,1.41-2.68-.55-3.86S310.92,221.1,310.92,221.1Z" style="fill:#263238"></path><path d="M294.52,194.24s-7.44.84-13.18,10.88v4.54A3.93,3.93,0,0,1,277.7,206c-.26-3.4,3.65-4.83,2.47-9.39s2-12.38,14.19-8.61Z" style="fill:#263238"></path><path d="M298.7,191.67c-1.49,1.85-.93,4.74.63,6.52s3.86,2.73,6.09,3.53,4.56,1.57,6.35,3.14c3.55,3.13,3.86,6.34,4,11.08" style="fill:none;stroke:#fff;stroke-linecap:round;stroke-linejoin:round"></path><path d="M301.77,188.22a2,2,0,0,0,0,2.4,4.81,4.81,0,0,0,2.12,1.47c5.44,2.32,12.13,2.32,16.3,6.51a13.35,13.35,0,0,1,3.58,8.88c.15,3.27-.51,5.49-2.94,7.63" style="fill:none;stroke:#fff;stroke-linecap:round;stroke-linejoin:round"></path><path d="M367.47,264.54a15.92,15.92,0,0,1-.88,9.08" style="fill:none;stroke:#fff;stroke-linecap:round;stroke-linejoin:round"></path><path d="M327,214.77a35,35,0,0,1,14.24,3.84c3,1.53,5.84,3.63,7.21,6.67,1.51,3.36.95,7.25.51,10.91s-.65,7.67,1.4,10.74c2.39,3.58,7,4.74,10.58,7.19a15.92,15.92,0,0,1,5.36,6.6" style="fill:none;stroke:#fff;stroke-linecap:round;stroke-linejoin:round"></path><path d="M343.52,245.2l-.12,1.07a64.44,64.44,0,0,0-.78,8.42,14.38,14.38,0,0,0,2.21,8c1.6,2.31,4.05,3.87,6,5.89a14.28,14.28,0,0,1,4.06,12.24" style="fill:none;stroke:#fff;stroke-linecap:round;stroke-linejoin:round"></path><path d="M323.81,219a28.14,28.14,0,0,1,7.21,2,20.24,20.24,0,0,1,9,6.22,19.51,19.51,0,0,1,3.7,10.6" style="fill:none;stroke:#fff;stroke-linecap:round;stroke-linejoin:round"></path><path d="M324.86,255.66s-10,28.83-1.42,35.89" style="fill:none;stroke:#263238;stroke-linecap:round;stroke-linejoin:round"></path><path d="M239.23,315c5.86-7.5,15.46-39.12,18-49.43s10.07-13.59,19.21-12.89c3.81.3,8.12.31,11.64-1.54,4.1-2.15,5.11-6.73,5.93-11.06" style="fill:none;stroke:#263238;stroke-miterlimit:10"></path><path d="M272.26,281.8s-2.34-2.29-3.51,0c-.82,1.6-6.24,18-10.7,29.27" style="fill:none;stroke:#263238;stroke-linecap:round;stroke-linejoin:round"></path><path d="M285.71,320.75l-1.5-4.1s-11.48-3.52-13.12-8.9.93-30.74,9.6-55" style="fill:none;stroke:#263238;stroke-linecap:round;stroke-linejoin:round"></path><path d="M285.85,252.11s-5.85,17.56-7.61,29.69,2,19.07,13,19,16.4-1.8,19.44-17.92a215.43,215.43,0,0,1,7.38-28.42" style="fill:none;stroke:#263238;stroke-linecap:round;stroke-linejoin:round"></path><path d="M293.25,289.49c.23-.8.49-1.65.8-2.53" style="fill:none;stroke:#263238;stroke-linecap:round;stroke-linejoin:round"></path><path d="M292.42,300.64s-1.06-2.62.2-8.63" style="fill:none;stroke:#263238;stroke-linecap:round;stroke-linejoin:round"></path><path d="M282.38,332.38c-2.62-.47-5.21-.88-7.71-1.17-11.28-1.33-20.15-3.16-27.55-2.7" style="fill:none;stroke:#263238;stroke-linecap:round;stroke-linejoin:round"></path><path d="M335.58,326.62c.86,5.77,3.75,8.57,7.78,12.59,8.7,8.67,14,22.42,10.85,34.82-4,15.86-20.33,22-35.1,23.73" style="fill:none;stroke:#263238;stroke-linecap:round;stroke-linejoin:round"></path><path d="M331.12,343.89s8,.62,12.44,5.07" style="fill:none;stroke:#263238;stroke-linecap:round;stroke-linejoin:round"></path><path d="M325.1,350.21s18.46-1.25,28.41,26.1" style="fill:none;stroke:#263238;stroke-linecap:round;stroke-linejoin:round"></path><path d="M236.85,297.57s-7.37-1.37-8.23,1.59,3.77,2.59,3.77,2.59a7.1,7.1,0,0,0-1.23,2.69c-.13,1.19,2.5,1.54,2.5,1.54s-1.57.93-1,1.73a2.46,2.46,0,0,1,.59,1.26s-.61,2.92,3.81,3.95C237.08,312.92,236.27,300.2,236.85,297.57Z" style="fill:#fff;stroke:#263238;stroke-linecap:round;stroke-linejoin:round"></path><path d="M236.15,293.51H253.4a0,0,0,0,1,0,0v15.15a7.77,7.77,0,0,1-7.77,7.77h-1.7a7.77,7.77,0,0,1-7.77-7.77V293.51A0,0,0,0,1,236.15,293.51Z" style="fill:#fff;stroke:#263238;stroke-linecap:round;stroke-linejoin:round"></path><path d="M236.15,297.39s-7.43-.88-7.53,2.25,7.14,1.86,7.14,1.86" style="fill:none;stroke:#263238;stroke-linecap:round;stroke-linejoin:round"></path><path d="M236.15,301.67s-5-.66-5,2.27,5,2.15,5,2.15" style="fill:none;stroke:#263238;stroke-linecap:round;stroke-linejoin:round"></path><path d="M233,306s-1.35,3.56,3.15,3.46" style="fill:none;stroke:#263238;stroke-linecap:round;stroke-linejoin:round"></path><path d="M233.9,309s-.72,2.95,2.95,3.5" style="fill:none;stroke:#263238;stroke-linecap:round;stroke-linejoin:round"></path><path d="M242.64,267.73a8.44,8.44,0,0,1,2.36-3.24" style="fill:none;stroke:#263238;stroke-linecap:round;stroke-linejoin:round"></path><path d="M248.05,291.32a10.76,10.76,0,0,0-.64-7.05,43,43,0,0,0-3.11-4.93,14.79,14.79,0,0,1-2.44-7.64" style="fill:none;stroke:#263238;stroke-linecap:round;stroke-linejoin:round"></path><path d="M242,285.12a9.46,9.46,0,0,1,1.84,5.92" style="fill:none;stroke:#263238;stroke-linecap:round;stroke-linejoin:round"></path><path d="M240.67,256.68a15.16,15.16,0,0,0-6.08,11.11,19,19,0,0,0,3.57,12.31" style="fill:none;stroke:#263238;stroke-linecap:round;stroke-linejoin:round"></path><path d="M264.4,317.9l-4.83-6s-4.14-1.53-5.49-2.3-3.26-2.57-3.39-.6S256,314.3,256,314.3a31.5,31.5,0,0,1-5.34,1.14c-3,.38-12.41,2.09-12,2.95s4.87.15,4.87.15l4.48.5s-11.62,2.87-11.45,3.86,4.53.72,4.53.72-2.34.77-2.28,1.5,8.32,1.5,8.32,1.5,1.64,1.41,8.07,1.08,10-.33,10-.33l1.48-4.2Z" style="fill:#fff"></path><path d="M326.37,280.47s-6.56,23.6-6.56,29.07a26.5,26.5,0,0,1-2,9.83s-18.58,1.75-26,1.75-27.43-3.22-27.43-3.22-2.06-2.72-3.52-4.59-3.05-1.94-4.54-2.53-5.16-3.18-5.48-2.6-.45,2.44,2,3.92a17.73,17.73,0,0,1,3.48,2.52,19.34,19.34,0,0,1-5.37.82c-2.32-.11-12.2,2.12-12.35,2.95s4.87.15,4.87.15l4.48.5s-11.61,3-11.45,3.86,8.86,1,12.5.27" style="fill:none;stroke:#263238;stroke-linecap:round;stroke-linejoin:round"></path><path d="M242.73,323.64s-4.12.81-3.92,1.48,6.6,1.67,10.64.85" style="fill:none;stroke:#263238;stroke-linecap:round;stroke-linejoin:round"></path><path d="M282.38,332c-10.33-2.43-17.61-4.26-17.61-4.26s-13.13-.07-14.08-.11a30.51,30.51,0,0,1-4.51-1.37" style="fill:none;stroke:#263238;stroke-linecap:round;stroke-linejoin:round"></path><path d="M313.07,251.06s.62,2.09,5,3.4S336,255.33,343,266s3.5,28.42,1.31,37.16-12.89,35.63-17.05,37.38c-.87.36-2.31.22-6.93-.57" style="fill:none;stroke:#263238;stroke-linecap:round;stroke-linejoin:round"></path><path d="M321.45,255.11s-4.69,21.34-7.55,35.93C311.17,305,291,311.78,287.22,310.12s-6.09,3.05,2.79,3.66-5.8,2.87-5.8,2.87l1.64,4.47s26.1-.74,32-1.75a16.65,16.65,0,0,0,1.81-7.09c.06-3.92,3.79-20.73,3.79-20.73s-7.14-5.32,1.42-35.42Z" style="opacity:0.2"></path><path d="M320.32,339.73c1.74,2.56,2.19,4.93,4.54,10.12,0,0,12.48.33,19.16,10A44.46,44.46,0,0,0,336.18,349s8.75,7.45,10.64,7-1.07-7-9.48-10.43c0,0,3.36-2.44,0-12.38l-1.76-6.54s-4.75,12.41-8.34,14c-1.18.51-3,.06-6.78-.54" style="opacity:0.2"></path><path d="M306.36,350.48c-4,7.15-11.87,12.1-18.85,15.91-11.59,6.33-24.54,9.57-36.2,15.79-10,5.36-21.09,10.76-29.18,18.91,0,0-1.27,7-6.47,7.39-8.41.63-11.53,3.24-18.26,5s-26.45,1-28.17-10.45c12.7-2.37,32.79-8,36.52-10a293.06,293.06,0,0,0,39-27.28c19-15.64,48.57-50,62.59-41.48s13.18,22.22,22.81,33.86" style="fill:none;stroke:#263238;stroke-linecap:round;stroke-linejoin:round"></path><path d="M253.17,358.07s-19.25-17.8-34.09-16.37" style="fill:none;stroke:#263238;stroke-linecap:round;stroke-linejoin:round"></path><path d="M255.83,355.87a128,128,0,0,0-25.23-17.12c-4-2-8.36-3.89-12.85-4.17-8.31-.53-13.87,6.8-11.42,14.59,2.52,8,7.78,17.17,15.08,21.72,3.29,2.05,4.72,3.32,9.38,5.42" style="fill:none;stroke:#263238;stroke-linecap:round;stroke-linejoin:round"></path><path d="M250.35,382.7s22.7,6,31.11,9.6c12.76,11.42,44.17,26.38,47.66,22.06s-2-11.33-10-16.6c-7.57-5-4.24-18-17.73-13.14,0,0-17.67-5-27.18-12.16" style="fill:none;stroke:#263238;stroke-linecap:round;stroke-linejoin:round"></path><path d="M287.51,366.39a109.11,109.11,0,0,0,5.6,15.48" style="fill:none;stroke:#263238;stroke-linecap:round;stroke-linejoin:round"></path><path d="M182.27,413.17s-.09-2.74,4.14-3.67" style="fill:none;stroke:#263238;stroke-linecap:round;stroke-linejoin:round"></path><path d="M178.35,412.19s.21-4,6.72-5.38" style="fill:none;stroke:#263238;stroke-linecap:round;stroke-linejoin:round"></path><path d="M173.11,409.5s-.24-3.41,2.35-3.72a32.06,32.06,0,0,0,6.25-1.76" style="fill:none;stroke:#263238;stroke-linecap:round;stroke-linejoin:round"></path><path d="M323,407.29A20.77,20.77,0,0,1,325.7,411a5.32,5.32,0,0,0,3.6,2.56" style="fill:none;stroke:#263238;stroke-linecap:round;stroke-linejoin:round"></path><path d="M321,411.35a7.35,7.35,0,0,0,7.71,3.37" style="fill:none;stroke:#263238;stroke-linecap:round;stroke-linejoin:round"></path></g></svg>