<svg xmlns="http://www.w3.org/2000/svg" viewBox="0 0 500 500"><g id="background-simple"><path d="M435,116C400.75,69.5,345,42.17,288.75,37.23c-53.7-4.71-115.9,5.51-148.43,53.26-21.42,31.43-25.79,71.29-43.86,104.45-9,16.49-22,25.41-35.17,38-32.06,30.71-52.24,75.28-39.4,120.2,21.48,75.1,97.68,105.47,168.6,99.28,93.74-8.18,158-30.78,208.68-75.36,26.33-23.15,52-49.77,65.14-83.16,19.82-50.5,9.71-108.76-15.38-155.84A179.4,179.4,0,0,0,435,116Z" style="fill:#92E3A9"></path><path d="M435,116C400.75,69.5,345,42.17,288.75,37.23c-53.7-4.71-115.9,5.51-148.43,53.26-21.42,31.43-25.79,71.29-43.86,104.45-9,16.49-22,25.41-35.17,38-32.06,30.71-52.24,75.28-39.4,120.2,21.48,75.1,97.68,105.47,168.6,99.28,93.74-8.18,158-30.78,208.68-75.36,26.33-23.15,52-49.77,65.14-83.16,19.82-50.5,9.71-108.76-15.38-155.84A179.4,179.4,0,0,0,435,116Z" style="fill:#fff;opacity:0.8"></path></g><g id="Tablecloth"><path d="M140.32,90.49a138.72,138.72,0,0,0-11.61,21L245.94,444.87l18.1-6.36L141.21,89.21C140.92,89.63,140.61,90.06,140.32,90.49Z" style="opacity:0.15"></path><path d="M389.63,72.71A203.72,203.72,0,0,0,364.12,58l90.16,256.42a146.58,146.58,0,0,0,10-20.53c.56-1.42,1.08-2.84,1.59-4.27Z" style="opacity:0.15"></path><path d="M209.8,43.26a154,154,0,0,0-18.13,6.28L321.35,418.35l18.1-6.36Z" style="opacity:0.15"></path><path d="M164.06,453a201.93,201.93,0,0,0,20.29-.16L94.72,198a87.72,87.72,0,0,1-14.23,17.38Z" style="opacity:0.15"></path><path d="M408.84,368.35,292.55,37.61c-1.27-.13-2.54-.27-3.8-.38-5.59-.49-11.28-.81-17-.95L393.32,382c2-1.63,3.93-3.28,5.85-5Q404,372.79,408.84,368.35Z" style="opacity:0.15"></path><path d="M23,292.9,68,420.72A145.18,145.18,0,0,0,93.8,436.34L34.32,267.19A129.36,129.36,0,0,0,23,292.9Z" style="opacity:0.15"></path><path d="M177.43,453.14q6.54-.15,13.06-.72c93.74-8.18,158-30.78,208.68-75.36,1.18-1,2.36-2.08,3.53-3.13Z" style="opacity:0.05"></path><path d="M140.32,90.49a134.73,134.73,0,0,0-10.08,17.69L318.54,42a217.48,217.48,0,0,0-29.79-4.74c-23.08-2-47.73-1.28-70.93,4L183.5,53.3C166.58,61.78,151.65,73.85,140.32,90.49Z" style="opacity:0.05"></path><path d="M20.09,345.77,468.45,188.11a224.85,224.85,0,0,0-11-32.28L19.12,310A102.27,102.27,0,0,0,20.09,345.77Z" style="opacity:0.05"></path><path d="M46.21,399.86a131.78,131.78,0,0,0,28.95,26L466.37,288.27a154.21,154.21,0,0,0,7.93-38.94Z" style="opacity:0.05"></path><path d="M103.19,181c-2,4.76-4.25,9.43-6.73,14-8.56,15.72-20.81,24.57-33.33,36.27L425.22,103.89a187,187,0,0,0-28.49-26.14Z" style="opacity:0.05"></path></g><g id="cookie-3"><path d="M464.22,319.11c-5.4-10.82-23-17.92-33.51-18.91-5-.46-10-.38-14.85-1.57a11.1,11.1,0,0,1-5.79-3c-2.14-2.38-2.33-6-1.3-9.08,3.26-9.65,10.78-17.17,13.48-27.5,2.53-9.65,2.56-20.11-1.86-29.23a38.85,38.85,0,0,0-15.25-16.2c-13.14-7.8-30.36-7.68-43.72-.46-15.6,8.42-21.06,29.41-18.92,46,.79,6.18,2.14,13.73-2.78,17.55-3.49,2.72-8.48,2-12.77.88-7.22-1.87-14.3-4.43-21.7-5.45s-15.36-.35-21.57,3.78-10.07,12.34-7.53,19.36c1.6,4.41,5.36,7.71,9.37,10.14,11.58,7,20.93,7.07,33.43,12.29a4.77,4.77,0,0,1,2.53,1.85c.61,1.12.26,2.5-.12,3.72-6.55,21.58-7.72,29.14-18.84,48.75A15.88,15.88,0,0,1,299,376.8c-5,4-13,1.1-18.36,4.6-4.3,2.81-5.29,9-3.44,13.83s5.87,8.4,10,11.42a86.75,86.75,0,0,0,42.71,16.18,6.45,6.45,0,0,0,3.6-.38c1.53-.79,2.2-2.58,2.75-4.21q4.42-13.08,9.84-25.81c.63-1.47,1.52-3.14,3.1-3.37,2.82-.41,3.73,3.66,3.46,6.49l-2.46,25.34c-.19,2-.32,4.27.95,5.84a7.59,7.59,0,0,0,3.52,2.06,89.33,89.33,0,0,0,43.65,4c5.26-.84,10.68-2.28,14.61-5.87s5.8-9.91,3-14.41c-3.19-5.06-10.73-6-13.77-11.18-1.39-2.34-1.6-5.19-1.73-7.91-1.06-21.79,2.36-28.71,5.66-50.28.25-1.65.69-3.54,2.2-4.25a5.11,5.11,0,0,1,2.88-.17c9.43,1.24,13.6,1.92,23,3.16,5.26.7,10.62,1.39,15.87.55s10.46-3.44,13.2-8C466.6,328.78,466.47,323.62,464.22,319.11Z" style="fill:#92E3A9;stroke:#263238;stroke-miterlimit:10"></path><path d="M364.47,217.83a1.76,1.76,0,1,1-2.23.45A1.63,1.63,0,0,1,364.47,217.83Z" style="fill:none;stroke:#263238;stroke-miterlimit:10"></path><path d="M358.1,223.51a1.75,1.75,0,1,1-2.22.44A1.61,1.61,0,0,1,358.1,223.51Z" style="fill:none;stroke:#263238;stroke-miterlimit:10"></path><path d="M362.36,226.05a.88.88,0,1,1-1.11.22A.81.81,0,0,1,362.36,226.05Z" style="fill:none;stroke:#263238;stroke-miterlimit:10"></path><path d="M368.69,214.67a.88.88,0,1,1-1.13,0A.81.81,0,0,1,368.69,214.67Z" style="fill:none;stroke:#263238;stroke-miterlimit:10"></path><path d="M311.27,277.56a1.75,1.75,0,1,1-1.72-1.48A1.62,1.62,0,0,1,311.27,277.56Z" style="fill:none;stroke:#263238;stroke-miterlimit:10"></path><path d="M302.88,276a1.75,1.75,0,1,1-1.72-1.49A1.62,1.62,0,0,1,302.88,276Z" style="fill:none;stroke:#263238;stroke-miterlimit:10"></path><path d="M303.49,281a.88.88,0,1,1-.86-.74A.8.8,0,0,1,303.49,281Z" style="fill:none;stroke:#263238;stroke-miterlimit:10"></path><path d="M316.36,279a.87.87,0,1,1-.65-.93A.81.81,0,0,1,316.36,279Z" style="fill:none;stroke:#263238;stroke-miterlimit:10"></path><path d="M432.94,304.7a1.75,1.75,0,1,1-1.72-1.48A1.62,1.62,0,0,1,432.94,304.7Z" style="fill:none;stroke:#263238;stroke-miterlimit:10"></path><path d="M424.55,303.17a1.75,1.75,0,1,1-1.72-1.49A1.61,1.61,0,0,1,424.55,303.17Z" style="fill:none;stroke:#263238;stroke-miterlimit:10"></path><path d="M425.16,308.09a.88.88,0,1,1-.86-.74A.8.8,0,0,1,425.16,308.09Z" style="fill:none;stroke:#263238;stroke-miterlimit:10"></path><path d="M438,306.09a.79.79,0,0,1-1,.49.74.74,0,1,1,1-.49Z" style="fill:none;stroke:#263238;stroke-miterlimit:10"></path><path d="M293.4,383.56a1.61,1.61,0,0,1-1.13,2,1.49,1.49,0,1,1,1.13-2Z" style="fill:none;stroke:#263238;stroke-miterlimit:10"></path><path d="M285,385a1.75,1.75,0,1,1-2.12-.8A1.62,1.62,0,0,1,285,385Z" style="fill:none;stroke:#263238;stroke-miterlimit:10"></path><path d="M287.28,389.43a.82.82,0,0,1-.57,1,.74.74,0,1,1,.57-1Z" style="fill:none;stroke:#263238;stroke-miterlimit:10"></path><path d="M298.66,383.11a.88.88,0,0,1-1.72.17.87.87,0,0,1,1.72-.17Z" style="fill:none;stroke:#263238;stroke-miterlimit:10"></path><path d="M358.29,413.06a1.76,1.76,0,1,1-1.45,1.75A1.62,1.62,0,0,1,358.29,413.06Z" style="fill:none;stroke:#263238;stroke-miterlimit:10"></path><path d="M356.91,421.48a1.75,1.75,0,1,1-1.45,1.74A1.61,1.61,0,0,1,356.91,421.48Z" style="fill:none;stroke:#263238;stroke-miterlimit:10"></path><path d="M361.82,420.78a.88.88,0,1,1-.73.87A.81.81,0,0,1,361.82,420.78Z" style="fill:none;stroke:#263238;stroke-miterlimit:10"></path><path d="M359.58,408a.79.79,0,0,1,.51,1,.74.74,0,1,1-1.42-.34A.8.8,0,0,1,359.58,408Z" style="fill:none;stroke:#263238;stroke-miterlimit:10"></path><path d="M384.35,426.52a81.86,81.86,0,0,1-23.54-3.44,4.29,4.29,0,0,1-3-4.54l2.15-22.28c.16-1.66.41-7.38-3.2-11.36a9.63,9.63,0,0,0-8.62-3.11c-3.94.58-6.81,3.12-8.79,7.76-2.74,6.43-5.34,13.05-7.72,19.68a8,8,0,0,1-9.07,5.11,79.21,79.21,0,0,1-31-13.62c-2.61-1.9-6.23-4.81-7.51-8.13a4.22,4.22,0,0,1,.36-3.73,4.41,4.41,0,0,1,3.27-2c.82-.08,1.7-.14,2.38-.18,4.07-.26,9.14-.59,13.54-4.12a22.46,22.46,0,0,0,5.35-6.84c9.72-17.13,12.32-26,16.64-40.68.85-2.88,1.78-6,2.85-9.56.49-1.63,1.65-5.44-.45-9.34a11.9,11.9,0,0,0-6.16-5.13A119.85,119.85,0,0,0,307,306.08c-6.23-1.74-11.6-3.24-17.65-6.91-3.37-2-5.47-4.18-6.27-6.36-1.2-3.34.94-8.26,4.69-10.75,3-2,6.86-3,11.55-3a37.17,37.17,0,0,1,4.95.35,101.21,101.21,0,0,1,14,3.36c2.24.65,4.56,1.32,6.91,1.93a33.25,33.25,0,0,0,8.39,1.23h0a17,17,0,0,0,10.72-3.42c7.94-6.18,6.59-16.41,5.69-23.18l-.14-1.1c-1.83-14.17,2.78-32,15.13-38.66a38.41,38.41,0,0,1,18.19-4.51,35.85,35.85,0,0,1,18.3,4.83A31.66,31.66,0,0,1,413.79,233c4.13,8.52,3,17.84,1.36,24.17-1.19,4.56-3.7,8.72-6.35,13.13a71,71,0,0,0-7,13.88c-2,5.92-.93,12.18,2.79,16.33a18,18,0,0,0,9.5,5.24,65,65,0,0,0,11.65,1.45c1.52.09,2.91.17,4.27.3,9.81.93,24,7.63,27.64,14.88.89,1.79,1.61,4.33-.74,8.23-1.35,2.25-4.37,3.94-8.07,4.54a26.18,26.18,0,0,1-4,.29,76.45,76.45,0,0,1-9.73-.88c-4.69-.61-8.07-1.09-11.45-1.57l-.24,0c-3.34-.47-6.7-1-11.33-1.56a17.51,17.51,0,0,0-2.37-.18,10.78,10.78,0,0,0-4.6,1c-3.46,1.63-5.59,4.92-6.34,9.79-.92,6-1.87,11-2.7,15.32-2.14,11.18-3.83,20-3,36.43.13,2.72.35,7.26,2.74,11.29,2.53,4.29,6.63,6.62,9.62,8.32.57.33,1.31.75,2,1.17a4.36,4.36,0,0,1,2,3,4.21,4.21,0,0,1-.95,3.4,6.17,6.17,0,0,1-.5.53c-2.74,2.5-7.48,3.5-10.8,4A81.44,81.44,0,0,1,384.35,426.52ZM349.56,378a13.26,13.26,0,0,1,9.9,4.41c4.62,5.1,4.33,12.15,4.13,14.18l-2.15,22.29a.63.63,0,0,0,.43.67,78.53,78.53,0,0,0,34.7,2.32c1.65-.27,6.66-1.07,8.9-3.12a1.8,1.8,0,0,0,.19-.2.54.54,0,0,0,.11-.45.66.66,0,0,0-.31-.47c-.64-.4-1.34-.79-1.88-1.1-3.34-1.91-7.93-4.52-11-9.64-2.85-4.81-3.1-9.93-3.24-13-.83-16.88.9-25.88,3.08-37.28.83-4.34,1.77-9.25,2.68-15.21.94-6.15,3.77-10.37,8.41-12.55a14.44,14.44,0,0,1,6.16-1.33,21.69,21.69,0,0,1,2.85.21c4.64.62,8,1.09,11.36,1.56l.24,0c3.37.47,6.74.95,11.42,1.57a74.59,74.59,0,0,0,9.25.84,21.19,21.19,0,0,0,3.44-.25c2.92-.47,4.87-1.75,5.51-2.81,1.48-2.46,1.13-3.62.59-4.69-3-5.95-16.06-12-24.7-12.86-1.29-.13-2.65-.21-4.09-.3a66.79,66.79,0,0,1-12.35-1.55A21.53,21.53,0,0,1,401.86,303c-4.59-5.14-5.94-12.78-3.52-20,1.88-5.57,4.64-10.16,7.31-14.6,2.52-4.18,4.89-8.12,6-12.17,1.5-5.73,2.53-14.13-1.12-21.64a27.93,27.93,0,0,0-11-11.53,32.16,32.16,0,0,0-16.43-4.32,34.79,34.79,0,0,0-16.45,4.07c-10.89,5.88-14.9,22-13.24,34.95l.15,1.1c.88,6.67,2.53,19.08-7.08,26.55a20.52,20.52,0,0,1-13,4.2h0a36.78,36.78,0,0,1-9.31-1.35c-2.4-.62-4.74-1.3-7-2a96.76,96.76,0,0,0-13.45-3.24,32.94,32.94,0,0,0-4.45-.32c-4,0-7.16.79-9.52,2.36s-3.83,4.88-3.27,6.44c.48,1.32,2.2,2.95,4.72,4.47,5.62,3.41,10.77,4.85,16.73,6.51a123.5,123.5,0,0,1,15.24,5,15.35,15.35,0,0,1,8,6.78c2.83,5.24,1.3,10.26.73,12.15-1.07,3.51-2,6.65-2.84,9.53-4.39,14.94-7,24-17,41.45a25.8,25.8,0,0,1-6.26,7.89c-5.3,4.26-11.25,4.64-15.6,4.92-.64,0-1.47.1-2.24.17a.74.74,0,0,0-.52.33.52.52,0,0,0-.06.45c1.05,2.71,5,5.57,6.25,6.51a75.76,75.76,0,0,0,29.59,13,4.33,4.33,0,0,0,4.9-2.75c2.4-6.69,5-13.38,7.79-19.88,2.49-5.84,6.41-9.18,11.64-9.95A14.73,14.73,0,0,1,349.56,378Z" style="fill:#fff;stroke:#263238;stroke-miterlimit:10"></path><path d="M379,241.54a5.45,5.45,0,1,1-4.08-6.54A5.45,5.45,0,0,1,379,241.54Z" style="fill:#fff;stroke:#263238;stroke-miterlimit:10"></path><circle cx="369.59" cy="306.71" r="10.4" transform="translate(3.89 618.05) rotate(-80.1)" style="fill:#263238;stroke:#263238;stroke-miterlimit:10"></circle><path d="M370.55,341.47A10.4,10.4,0,1,1,362.77,329,10.41,10.41,0,0,1,370.55,341.47Z" style="fill:#263238;stroke:#263238;stroke-miterlimit:10"></path><path d="M400.23,246.46a5.45,5.45,0,1,1-4.08-6.54A5.44,5.44,0,0,1,400.23,246.46Z" style="fill:#fff;stroke:#263238;stroke-miterlimit:10"></path><path d="M378.5,268.77a20.23,20.23,0,0,1-15.16-15.42,2.75,2.75,0,0,1,5.38-1.15,14.64,14.64,0,0,0,25.06,6.9,2.75,2.75,0,0,1,4,3.75A20.2,20.2,0,0,1,378.5,268.77Z" style="fill:#fff;stroke:#263238;stroke-miterlimit:10"></path><path d="M312.88,310.91c1.89.45,3.65.83,5.22,1.14" style="fill:none;stroke:#263238;stroke-miterlimit:10"></path><path d="M280.51,291.65s-4.12,2.56,4.23,8.4c5.77,4,15.14,7.37,23.39,9.63" style="fill:none;stroke:#263238;stroke-miterlimit:10"></path><path d="M346.52,272.22a10.58,10.58,0,0,1-2.31,4.49" style="fill:none;stroke:#263238;stroke-miterlimit:10"></path><path d="M346.47,235.13a33.18,33.18,0,0,0-.74,16.66,64.71,64.71,0,0,1,1.48,16" style="fill:none;stroke:#263238;stroke-miterlimit:10"></path><path d="M320.57,416.75a33,33,0,0,0,5.35.55" style="fill:none;stroke:#263238;stroke-miterlimit:10"></path><path d="M281.34,393.86s-.79,4,15,13.44a75.44,75.44,0,0,0,21,8.79" style="fill:none;stroke:#263238;stroke-miterlimit:10"></path><path d="M446.73,338.73c1.28-.05,2.5-.14,3.63-.29" style="fill:none;stroke:#263238;stroke-miterlimit:10"></path><path d="M414.26,334.56s15.76,3.7,28.31,4.15" style="fill:none;stroke:#263238;stroke-miterlimit:10"></path><path d="M404.62,424.7c1.16-.55,2.3-1.16,3.43-1.82" style="fill:none;stroke:#263238;stroke-miterlimit:10"></path><path d="M358.31,425.74s21.27,7.7,41.22,1" style="fill:none;stroke:#263238;stroke-miterlimit:10"></path></g><g id="cookie-2"><path d="M353.24,125c-7.39-9.59-26.06-13.16-36.53-12.11-5,.49-9.9,1.54-14.88,1.31a11.17,11.17,0,0,1-6.25-1.84c-2.56-1.93-3.45-5.48-3-8.66,1.35-10.11,7.28-18.93,7.95-29.59.63-10-1.35-20.22-7.45-28.32a38.85,38.85,0,0,0-18.07-13c-14.4-5.12-31.28-1.69-43,8C218.29,52,217,73.7,222.26,89.6c2,5.92,4.74,13.06.65,17.77-2.9,3.33-7.94,3.57-12.36,3.31-7.45-.44-14.89-1.59-22.34-1.17s-15.14,2.6-20.45,7.85-7.5,14-3.66,20.45c2.42,4,6.73,6.53,11.14,8.15,12.72,4.66,21.91,2.91,35.17,5.63a4.81,4.81,0,0,1,2.84,1.33c.81,1,.73,2.4.6,3.67-2.28,22.44-2,30.08-9.12,51.47a15.73,15.73,0,0,1-2.59,5.33C198,218.28,189.61,217,185,221.44c-3.68,3.58-3.46,9.88-.73,14.23s7.38,7.11,12,9.28a86.56,86.56,0,0,0,45,7.66,6.36,6.36,0,0,0,3.46-1.06c1.35-1.07,1.66-3,1.89-4.66q1.83-13.69,4.7-27.22c.33-1.56.88-3.37,2.39-3.9,2.68-1,4.36,2.87,4.64,5.71l2.46,25.33c.2,2,.51,4.25,2.06,5.55a7.65,7.65,0,0,0,3.84,1.35,89.39,89.39,0,0,0,43.61-4.5c5-1.84,10-4.29,13.2-8.57s3.79-10.84.14-14.71c-4.1-4.36-11.69-3.85-15.67-8.32-1.81-2-2.56-4.79-3.21-7.44-5.24-21.18-3.2-28.63-4.12-50.43-.07-1.66,0-3.61,1.34-4.59a5.18,5.18,0,0,1,2.8-.72c9.5-.59,13.71-.73,23.2-1.32,5.31-.33,10.7-.68,15.68-2.51s9.61-5.4,11.42-10.39C357.43,134,356.31,129,353.24,125Z" style="fill:#92E3A9;stroke:#263238;stroke-miterlimit:10"></path><path d="M200.38,143.77c1.81.08,3.48.12,5,.12" style="fill:none;stroke:#263238;stroke-miterlimit:10"></path><path d="M167.4,131.1s-3.3,3.3,5.36,7.42c6,2.86,15.13,4.33,23.06,5" style="fill:none;stroke:#263238;stroke-miterlimit:10"></path><path d="M230.67,101.91a10.78,10.78,0,0,1-1.4,4.85" style="fill:none;stroke:#263238;stroke-miterlimit:10"></path><path d="M223.49,65.52A33.3,33.3,0,0,0,226,82,65.1,65.1,0,0,1,230.5,97.4" style="fill:none;stroke:#263238;stroke-miterlimit:10"></path><path d="M233,248.74a33.32,33.32,0,0,0,5.36-.5" style="fill:none;stroke:#263238;stroke-miterlimit:10"></path><path d="M190.08,233.81s0,4.12,17.33,10.31a75.57,75.57,0,0,0,22.27,4.59" style="fill:none;stroke:#263238;stroke-miterlimit:10"></path><path d="M341.57,145.88a31.15,31.15,0,0,0,4-1.58" style="fill:none;stroke:#263238;stroke-miterlimit:10"></path><path d="M304.34,148.42s18.4,1.65,32.56-1.33" style="fill:none;stroke:#263238;stroke-miterlimit:10"></path><path d="M317,240.38c1-.76,2-1.58,3-2.45" style="fill:none;stroke:#263238;stroke-miterlimit:10"></path><path d="M271.75,250.31s22.35,3.46,40.65-6.94" style="fill:none;stroke:#263238;stroke-miterlimit:10"></path><path d="M235.87,44.8a1.75,1.75,0,1,1-2.1.86A1.61,1.61,0,0,1,235.87,44.8Z" style="fill:none;stroke:#263238;stroke-miterlimit:10"></path><path d="M230.72,51.59a1.76,1.76,0,1,1-2.1.86A1.62,1.62,0,0,1,230.72,51.59Z" style="fill:none;stroke:#263238;stroke-miterlimit:10"></path><path d="M235.38,53.27a.8.8,0,0,1,.26,1.1.74.74,0,1,1-1.3-.67A.79.79,0,0,1,235.38,53.27Z" style="fill:none;stroke:#263238;stroke-miterlimit:10"></path><path d="M239.41,40.88a.88.88,0,0,1-1.14,1.3.79.79,0,0,1,0-1.13A.8.8,0,0,1,239.41,40.88Z" style="fill:none;stroke:#263238;stroke-miterlimit:10"></path><path d="M195.15,113.64a1.75,1.75,0,1,1-2-1.13A1.62,1.62,0,0,1,195.15,113.64Z" style="fill:none;stroke:#263238;stroke-miterlimit:10"></path><path d="M186.62,113.74a1.75,1.75,0,1,1-2-1.12A1.61,1.61,0,0,1,186.62,113.74Z" style="fill:none;stroke:#263238;stroke-miterlimit:10"></path><path d="M188.17,118.46a.88.88,0,0,1-1.7.32.79.79,0,0,1,.71-.88A.81.81,0,0,1,188.17,118.46Z" style="fill:none;stroke:#263238;stroke-miterlimit:10"></path><path d="M200.42,114a.81.81,0,0,1-.91.67.8.8,0,0,1-.82-.78.81.81,0,0,1,.91-.68A.82.82,0,0,1,200.42,114Z" style="fill:none;stroke:#263238;stroke-miterlimit:10"></path><path d="M319.77,116.88a1.76,1.76,0,1,1-2-1.13A1.63,1.63,0,0,1,319.77,116.88Z" style="fill:none;stroke:#263238;stroke-miterlimit:10"></path><path d="M311.24,117a1.61,1.61,0,0,1-1.43,1.76,1.49,1.49,0,1,1,1.43-1.76Z" style="fill:none;stroke:#263238;stroke-miterlimit:10"></path><path d="M312.79,121.7a.88.88,0,1,1-1-.56A.81.81,0,0,1,312.79,121.7Z" style="fill:none;stroke:#263238;stroke-miterlimit:10"></path><path d="M325,117.27a.81.81,0,0,1-.91.68.75.75,0,1,1,.09-1.47A.8.8,0,0,1,325,117.27Z" style="fill:none;stroke:#263238;stroke-miterlimit:10"></path><path d="M198,221.1a1.76,1.76,0,1,1-2.24-.37A1.62,1.62,0,0,1,198,221.1Z" style="fill:none;stroke:#263238;stroke-miterlimit:10"></path><path d="M190,224.15a1.75,1.75,0,1,1-2.24-.37A1.6,1.6,0,0,1,190,224.15Z" style="fill:none;stroke:#263238;stroke-miterlimit:10"></path><path d="M193.11,228a.87.87,0,1,1-1.12-.19A.81.81,0,0,1,193.11,228Z" style="fill:none;stroke:#263238;stroke-miterlimit:10"></path><path d="M203.07,219.64a.88.88,0,1,1-1-.45A.8.8,0,0,1,203.07,219.64Z" style="fill:none;stroke:#263238;stroke-miterlimit:10"></path><path d="M267.34,237.57a1.76,1.76,0,1,1-1.09,2A1.62,1.62,0,0,1,267.34,237.57Z" style="fill:none;stroke:#263238;stroke-miterlimit:10"></path><path d="M267.6,246.1a1.76,1.76,0,1,1-1.08,2A1.61,1.61,0,0,1,267.6,246.1Z" style="fill:none;stroke:#263238;stroke-miterlimit:10"></path><path d="M272.29,244.46a.88.88,0,0,1,.35,1.7.88.88,0,0,1-.35-1.7Z" style="fill:none;stroke:#263238;stroke-miterlimit:10"></path><path d="M267.63,232.3a.82.82,0,0,1,.7.9.75.75,0,1,1-.7-.9Z" style="fill:none;stroke:#263238;stroke-miterlimit:10"></path><path d="M255.17,64.55a5.45,5.45,0,1,1-5.26-5.63A5.45,5.45,0,0,1,255.17,64.55Z" style="fill:#fff;stroke:#263238;stroke-miterlimit:10"></path><path d="M277,65.29a5.45,5.45,0,1,1-5.25-5.63A5.44,5.44,0,0,1,277,65.29Z" style="fill:#fff;stroke:#263238;stroke-miterlimit:10"></path><path d="M259.92,91.37a20.23,20.23,0,0,1-17.84-12.22A2.75,2.75,0,1,1,247.14,77a14.65,14.65,0,0,0,25.92,2,2.75,2.75,0,0,1,4.67,2.91A20.22,20.22,0,0,1,259.92,91.37Z" style="fill:#fff;stroke:#263238;stroke-miterlimit:10"></path><path d="M278.92,113.83c-2.1-.07-16.51,3.62-19.28,4.34-2.72-.91-16.84-5.57-18.94-5.65-2.33-.07-5.33,19.42-1.15,20,3.75.55,17.15-5,19.81-6.11,2.57,1.3,15.56,7.73,19.34,7.44C282.91,133.56,281.25,113.91,278.92,113.83Z" style="fill:#263238;stroke:#263238;stroke-miterlimit:10"></path><path d="M217.56,110.06l-12.1,92.46A7,7,0,0,0,210,210l34.9,12.9a5.59,5.59,0,0,0,7-3h0a2.32,2.32,0,0,1,4.13-.19l1,1.73a5.67,5.67,0,0,0,6.42,2.68l37.32-10.09a7,7,0,0,0,5.17-7.14l-5-94.12a3,3,0,0,0-2.2-2.77h0a3.06,3.06,0,0,0-3.92,3.12l1.44,59a3.17,3.17,0,0,1-3.39,3.35l-71.16-5.06a3.17,3.17,0,0,1-2.94-3.41L223,110.63a2.74,2.74,0,0,0-3.59-2.82h0A2.75,2.75,0,0,0,217.56,110.06Z" style="fill:#fff;stroke:#263238;stroke-miterlimit:10"></path><path d="M226.76,183.13a6.47,6.47,0,1,1-6.25-6.69A6.47,6.47,0,0,1,226.76,183.13Z" style="fill:#263238;stroke:#263238;stroke-miterlimit:10"></path><path d="M298.26,187.64A6.47,6.47,0,1,1,292,181,6.48,6.48,0,0,1,298.26,187.64Z" style="fill:#263238;stroke:#263238;stroke-miterlimit:10"></path></g><g id="cookie-1"><path d="M233.54,276.76c-9.39-7.63-28.38-6.81-38.33-3.39-4.71,1.63-9.28,3.79-14.18,4.7a11.17,11.17,0,0,1-6.51-.35c-2.93-1.29-4.61-4.54-4.93-7.73-1-10.14,2.72-20.1.92-30.62-1.68-9.84-6-19.38-13.76-25.86a39,39,0,0,0-20.58-8.46c-15.18-1.67-30.82,5.55-40,17.63-10.73,14.11-7,35.49,1.77,49.75,3.28,5.3,7.62,11.62,4.72,17.14-2.06,3.91-6.9,5.3-11.27,6.06-7.35,1.29-14.85,1.88-22,4s-14.13,6-18.09,12.35-4.07,15.4,1.14,20.74c3.28,3.36,8.06,4.81,12.72,5.37,13.45,1.61,22-2.21,35.52-2.61a4.81,4.81,0,0,1,3.07.64c1,.77,1.26,2.17,1.43,3.44,2.94,22.35,5,29.72,3,52.18a15.76,15.76,0,0,1-1.29,5.78c-2.9,5.71-11.38,6.38-14.81,11.78-2.76,4.33-1.1,10.41,2.56,14s8.82,5.22,13.85,6.27a86.67,86.67,0,0,0,45.58-2.9,6.49,6.49,0,0,0,3.12-1.83c1.07-1.35.94-3.26.77-5-.92-9.16-1.48-18.37-1.7-27.57,0-1.6.09-3.49,1.43-4.35,2.4-1.54,4.91,1.79,5.84,4.49l8.22,24.09c.66,1.91,1.47,4,3.28,4.92a7.47,7.47,0,0,0,4,.43,89.42,89.42,0,0,0,41.41-14.41c4.44-2.93,8.78-6.48,10.87-11.38s1.2-11.41-3.24-14.34c-5-3.3-12.26-1.06-17.16-4.49-2.24-1.57-3.6-4.07-4.84-6.5-10-19.41-9.7-27.13-15.61-48.13-.45-1.61-.83-3.51.25-4.78a5.25,5.25,0,0,1,2.56-1.35c9.1-2.76,13.17-3.86,22.27-6.62,5.09-1.54,10.25-3.12,14.69-6.05s8.1-7.46,8.72-12.73C239.7,284.58,237.45,279.93,233.54,276.76Z" style="fill:#92E3A9;stroke:#263238;stroke-miterlimit:10"></path><path d="M89.74,330.1c1.77-.37,3.4-.75,4.84-1.11" style="fill:none;stroke:#263238;stroke-miterlimit:10"></path><path d="M54.65,325.94s-2.38,4,7,5.87c6.5,1.29,15.73.47,23.57-.87" style="fill:none;stroke:#263238;stroke-miterlimit:10"></path><path d="M108.79,282.07a10.63,10.63,0,0,1-.16,5.05" style="fill:none;stroke:#263238;stroke-miterlimit:10"></path><path d="M92.88,248.56a33.23,33.23,0,0,0,6.46,15.38,64.88,64.88,0,0,1,8.17,13.8" style="fill:none;stroke:#263238;stroke-miterlimit:10"></path><path d="M147.18,423.81a33.35,33.35,0,0,0,5.07-1.8" style="fill:none;stroke:#263238;stroke-miterlimit:10"></path><path d="M101.92,419.9s1,4,19.33,5.73a75.63,75.63,0,0,0,22.72-1" style="fill:none;stroke:#263238;stroke-miterlimit:10"></path><path d="M227.1,297.38a30,30,0,0,0,3.51-2.51" style="fill:none;stroke:#263238;stroke-miterlimit:10"></path><path d="M195.64,308.12a103.85,103.85,0,0,0,27.24-8.41" style="fill:none;stroke:#263238;stroke-miterlimit:10"></path><path d="M226.55,395c.81-1,1.59-2,2.32-3.12" style="fill:none;stroke:#263238;stroke-miterlimit:10"></path><path d="M185.14,415.78s22.51-2.14,37.69-16.72" style="fill:none;stroke:#263238;stroke-miterlimit:10"></path><path d="M100.87,225.69A1.76,1.76,0,1,1,99,227,1.61,1.61,0,0,1,100.87,225.69Z" style="fill:none;stroke:#263238;stroke-miterlimit:10"></path><path d="M97.42,233.49a1.76,1.76,0,1,1-1.85,1.33A1.63,1.63,0,0,1,97.42,233.49Z" style="fill:none;stroke:#263238;stroke-miterlimit:10"></path><path d="M102.35,234.05a.88.88,0,0,1-.42,1.68.88.88,0,0,1,.42-1.68Z" style="fill:none;stroke:#263238;stroke-miterlimit:10"></path><path d="M103.42,221.07a.88.88,0,1,1-1.06.42A.81.81,0,0,1,103.42,221.07Z" style="fill:none;stroke:#263238;stroke-miterlimit:10"></path><path d="M77.08,302.06a1.76,1.76,0,1,1-2.18-.64A1.62,1.62,0,0,1,77.08,302.06Z" style="fill:none;stroke:#263238;stroke-miterlimit:10"></path><path d="M68.8,304.12a1.76,1.76,0,0,1-3.17,1.4,1.62,1.62,0,0,1,1-2A1.6,1.6,0,0,1,68.8,304.12Z" style="fill:none;stroke:#263238;stroke-miterlimit:10"></path><path d="M71.39,308.35A.88.88,0,1,1,70.3,308,.8.8,0,0,1,71.39,308.35Z" style="fill:none;stroke:#263238;stroke-miterlimit:10"></path><path d="M82.29,301.22a.88.88,0,1,1-1-.57A.81.81,0,0,1,82.29,301.22Z" style="fill:none;stroke:#263238;stroke-miterlimit:10"></path><path d="M199.1,276.55a1.76,1.76,0,1,1-2.18-.64A1.62,1.62,0,0,1,199.1,276.55Z" style="fill:none;stroke:#263238;stroke-miterlimit:10"></path><path d="M190.82,278.61a1.75,1.75,0,1,1-2.17-.64A1.61,1.61,0,0,1,190.82,278.61Z" style="fill:none;stroke:#263238;stroke-miterlimit:10"></path><path d="M193.41,282.84a.88.88,0,0,1-1.58.7.81.81,0,0,1,.5-1A.8.8,0,0,1,193.41,282.84Z" style="fill:none;stroke:#263238;stroke-miterlimit:10"></path><path d="M204.31,275.71a.8.8,0,0,1-.73.87.79.79,0,0,1-1-.57.88.88,0,0,1,1.7-.3Z" style="fill:none;stroke:#263238;stroke-miterlimit:10"></path><path d="M104.57,406a1.76,1.76,0,1,1-2.27.15A1.62,1.62,0,0,1,104.57,406Z" style="fill:none;stroke:#263238;stroke-miterlimit:10"></path><path d="M97.52,410.78a1.76,1.76,0,1,1-2.27.15A1.62,1.62,0,0,1,97.52,410.78Z" style="fill:none;stroke:#263238;stroke-miterlimit:10"></path><path d="M101.41,413.86a.88.88,0,1,1-1.13.07A.81.81,0,0,1,101.41,413.86Z" style="fill:none;stroke:#263238;stroke-miterlimit:10"></path><path d="M109.17,403.39a.81.81,0,0,1-.39,1.07.74.74,0,1,1-.73-1.27A.81.81,0,0,1,109.17,403.39Z" style="fill:none;stroke:#263238;stroke-miterlimit:10"></path><path d="M175.84,406.06a1.76,1.76,0,1,1-.6,2.19A1.62,1.62,0,0,1,175.84,406.06Z" style="fill:none;stroke:#263238;stroke-miterlimit:10"></path><path d="M178.06,414.3a1.75,1.75,0,1,1-.6,2.19A1.6,1.6,0,0,1,178.06,414.3Z" style="fill:none;stroke:#263238;stroke-miterlimit:10"></path><path d="M182.24,411.63a.88.88,0,1,1-.3,1.09A.8.8,0,0,1,182.24,411.63Z" style="fill:none;stroke:#263238;stroke-miterlimit:10"></path><path d="M174.91,400.87a.8.8,0,0,1,.88.71.81.81,0,0,1-.56,1,.82.82,0,0,1-.88-.72A.8.8,0,0,1,174.91,400.87Z" style="fill:none;stroke:#263238;stroke-miterlimit:10"></path><path d="M124.2,240.48a5.45,5.45,0,1,1-6.42-4.28A5.45,5.45,0,0,1,124.2,240.48Z" style="fill:#fff;stroke:#263238;stroke-miterlimit:10"></path><path d="M145.57,236.19a5.45,5.45,0,1,1-6.42-4.27A5.45,5.45,0,0,1,145.57,236.19Z" style="fill:#fff;stroke:#263238;stroke-miterlimit:10"></path><path d="M150,315.67a5.45,5.45,0,1,1-6.41-4.27A5.46,5.46,0,0,1,150,315.67Z" style="fill:#fff;stroke:#263238;stroke-miterlimit:10"></path><path d="M155,340.74a5.45,5.45,0,1,1-6.41-4.27A5.46,5.46,0,0,1,155,340.74Z" style="fill:#fff;stroke:#263238;stroke-miterlimit:10"></path><path d="M135,265.49a20.25,20.25,0,0,1-20.18-7.79,2.75,2.75,0,0,1,4.43-3.27,14.64,14.64,0,0,0,25.67-4.06,2.75,2.75,0,0,1,5.22,1.75A20.22,20.22,0,0,1,135,265.49Z" style="fill:#fff;stroke:#263238;stroke-miterlimit:10"></path><path d="M154.72,398.15a8.51,8.51,0,0,1-6-3.49c-1-1.12-1.54-1.8-3-2s-2.17.39-3.35,1.29a8.32,8.32,0,0,1-12.49-1.29c-1-1.12-1.54-1.8-3-1.95s-2.18.39-3.35,1.29a8.32,8.32,0,0,1-12.49-1.29c-1-1.12-1.54-1.8-3-1.95a2.24,2.24,0,1,1,.46-4.46,8.43,8.43,0,0,1,5.95,3.49c1,1.12,1.55,1.79,3,1.94s2.18-.39,3.35-1.29a8.33,8.33,0,0,1,12.49,1.3c1,1.12,1.55,1.79,3,1.95s2.18-.39,3.35-1.29a8.32,8.32,0,0,1,12.49,1.29c1,1.12,1.55,1.8,3,1.95a2.24,2.24,0,0,1-.46,4.46Z" style="fill:#fff;stroke:#263238;stroke-miterlimit:10"></path><path d="M99.17,334.45c-.83-2.57.3-4.45,1.12-5.82.7-1.16,1.12-1.85.74-3s-1.12-1.48-2.36-2c-1.47-.64-3.49-1.5-4.32-4.07s.3-4.45,1.13-5.82c.69-1.16,1.11-1.86.74-3s-1.13-1.48-2.37-2c-1.47-.63-3.48-1.5-4.31-4.06s.3-4.45,1.12-5.82c.7-1.16,1.12-1.86.74-3a2.29,2.29,0,0,1,4.27-1.38c.83,2.57-.3,4.45-1.12,5.82-.7,1.16-1.12,1.86-.74,3s1.12,1.48,2.36,2c1.47.63,3.49,1.5,4.31,4.06s-.3,4.45-1.12,5.83c-.69,1.15-1.11,1.85-.74,3s1.13,1.49,2.37,2c1.47.63,3.48,1.5,4.31,4.07s-.3,4.45-1.12,5.82c-.7,1.16-1.12,1.85-.74,3a2.28,2.28,0,0,1-4.27,1.37Z" style="fill:#fff;stroke:#263238;stroke-miterlimit:10"></path><path d="M187.28,316.78c-.83-2.57.3-4.45,1.12-5.83.7-1.15,1.12-1.85.74-3s-1.12-1.49-2.36-2c-1.47-.63-3.49-1.5-4.31-4.07s.3-4.45,1.12-5.82c.69-1.16,1.11-1.85.74-3s-1.13-1.48-2.36-2c-1.48-.63-3.49-1.5-4.32-4.07s.3-4.45,1.13-5.82c.69-1.16,1.11-1.85.73-3a2.28,2.28,0,0,1,4.27-1.38c.83,2.57-.3,4.45-1.12,5.82-.7,1.15-1.11,1.85-.74,3s1.12,1.49,2.36,2c1.47.63,3.49,1.5,4.32,4.07s-.3,4.45-1.13,5.82c-.69,1.16-1.11,1.85-.74,3s1.13,1.48,2.37,2c1.47.64,3.48,1.5,4.31,4.07s-.3,4.45-1.12,5.82c-.7,1.16-1.12,1.86-.74,3a2.29,2.29,0,0,1-4.27,1.38Z" style="fill:#fff;stroke:#263238;stroke-miterlimit:10"></path><path d="M153,406.62a8.48,8.48,0,0,1-6-3.49c-1-1.12-1.54-1.8-3-1.95s-2.18.39-3.35,1.29a8.34,8.34,0,0,1-12.49-1.29c-1-1.12-1.54-1.8-3-1.95s-2.18.39-3.35,1.29a8.34,8.34,0,0,1-12.49-1.29c-1-1.12-1.54-1.8-3-2a2.24,2.24,0,1,1,.46-4.46,8.42,8.42,0,0,1,5.95,3.48c1,1.12,1.55,1.8,3,1.95s2.18-.39,3.35-1.29a8.33,8.33,0,0,1,12.49,1.3c1,1.12,1.55,1.79,3,1.94s2.18-.39,3.35-1.29a8.33,8.33,0,0,1,12.49,1.3c1,1.12,1.55,1.79,3,2a2.24,2.24,0,1,1-.47,4.46Z" style="fill:#fff;stroke:#263238;stroke-miterlimit:10"></path><path d="M164.74,396.14a8.45,8.45,0,0,0,4.15-5.52c.46-1.4.73-2.25,2-3s2.16-.47,3.58-.1a8.33,8.33,0,0,0,11-6c.46-1.4.73-2.25,2-3s2.16-.48,3.58-.1a8.34,8.34,0,0,0,11-6c.45-1.4.73-2.25,2-3a2.24,2.24,0,0,0-2.14-3.94,8.47,8.47,0,0,0-4.15,5.52c-.45,1.4-.73,2.25-2,3s-2.16.47-3.59.1a8.31,8.31,0,0,0-11,6c-.46,1.4-.74,2.25-2,3s-2.16.48-3.59.1a8.34,8.34,0,0,0-11,6c-.45,1.4-.73,2.25-2,3a2.24,2.24,0,1,0,2.14,3.94Z" style="fill:#fff;stroke:#263238;stroke-miterlimit:10"></path><path d="M169.6,403.29a8.49,8.49,0,0,0,4.14-5.52c.46-1.4.74-2.25,2-3s2.16-.48,3.59-.1a8.34,8.34,0,0,0,11-6c.45-1.41.73-2.25,2-3s2.16-.48,3.59-.1a8.33,8.33,0,0,0,11-6c.46-1.41.73-2.25,2-3a2.24,2.24,0,0,0-2.15-3.94,8.47,8.47,0,0,0-4.14,5.52c-.46,1.4-.73,2.25-2,2.95s-2.16.48-3.58.1a8.34,8.34,0,0,0-11,6c-.46,1.4-.73,2.25-2,3s-2.16.47-3.58.1a8.31,8.31,0,0,0-11,6c-.46,1.4-.73,2.25-2,3a2.24,2.24,0,0,0,2.15,3.94Z" style="fill:#fff;stroke:#263238;stroke-miterlimit:10"></path><path d="M158.65,283c-2.07.42-15.24,7.32-17.77,8.66-2.86-.25-17.67-1.55-19.73-1.13-2.29.46-.72,20.12,3.48,19.75,3.79-.33,15.54-8.8,17.88-10.5,2.8.67,16.92,3.94,20.54,2.79C167.07,301.26,160.93,282.51,158.65,283Z" style="fill:#263238;stroke:#263238;stroke-miterlimit:10"></path></g><g id="Candy"><circle cx="408.5" cy="151.5" r="7.5" style="fill:#fff;stroke:#263238;stroke-linejoin:round"></circle><circle cx="117" cy="186" r="7.5" style="fill:#263238;stroke:#263238;stroke-linejoin:round"></circle><circle cx="155" cy="80" r="7.5" style="fill:#fff;stroke:#263238;stroke-linejoin:round"></circle><circle cx="112" cy="88" r="7.5" style="fill:#fff;stroke:#263238;stroke-linejoin:round"></circle><circle cx="271" cy="333" r="7.5" style="fill:#263238;stroke:#263238;stroke-linejoin:round"></circle><circle cx="35" cy="379" r="7.5" style="fill:#fff;stroke:#263238;stroke-linejoin:round"></circle><circle cx="253" cy="450" r="7.5" style="fill:#fff;stroke:#263238;stroke-linejoin:round"></circle><circle cx="100" cy="453" r="7.5" style="fill:#fff;stroke:#263238;stroke-linejoin:round"></circle><circle cx="469" cy="229" r="7.5" style="fill:#fff;stroke:#263238;stroke-linejoin:round"></circle><circle cx="353" cy="55" r="7.5" style="fill:#fff;stroke:#263238;stroke-linejoin:round"></circle><circle cx="384" cy="90" r="7.5" style="fill:#263238;stroke:#263238;stroke-linejoin:round"></circle><circle cx="352" cy="92" r="7.5" style="fill:#fff;stroke:#263238;stroke-linejoin:round"></circle><circle cx="356" cy="448" r="7.5" style="fill:#263238;stroke:#263238;stroke-linejoin:round"></circle></g></svg>