<svg xmlns="http://www.w3.org/2000/svg" viewBox="0 0 500 500"><g id="background-simple"><path d="M490,238.77c6.44-56.58-12.69-113.41-52.86-153.78-19.75-19.85-46.76-38.56-82.64-47.6C253.87,12.05,188.65,35.27,156,96.93S29.88,148,15,254.29,72.41,477.56,195,483.94s106.84-54.66,173.91-80.85C420.25,383.07,480.41,323.21,490,238.77Z" style="fill:#92E3A9"></path><path d="M490,238.77c6.44-56.58-12.69-113.41-52.86-153.78-19.75-19.85-46.76-38.56-82.64-47.6C253.87,12.05,188.65,35.27,156,96.93S29.88,148,15,254.29,72.41,477.56,195,483.94s106.84-54.66,173.91-80.85C420.25,383.07,480.41,323.21,490,238.77Z" style="fill:#fff;opacity:0.7000000000000001"></path></g><g id="Floor"><line x1="14.01" y1="428.23" x2="486.73" y2="428.23" style="fill:none;stroke:#263238;stroke-linecap:round;stroke-linejoin:round"></line></g><g id="Plant"><path d="M125.77,296h0a.1.1,0,0,0,0-.14.11.11,0,0,0-.14,0,134,134,0,0,0-17.07,15.75,203.82,203.82,0,0,0-14.73,18l-3.35,4.77c-.55.79-1.12,1.58-1.66,2.39l-1.57,2.45c-1,1.65-2.09,3.27-3.1,4.94l-2.84,5.09L80,351.85c-.44.87-.86,1.74-1.28,2.62-.83,1.76-1.69,3.5-2.49,5.27-1.58,3.54-3,7.17-4.35,10.79a.09.09,0,0,0,0,.12.1.1,0,0,0,.14,0h0c1-1.69,1.83-3.41,2.75-5.12s1.71-3.46,2.69-5.12,1.87-3.38,2.8-5.06l1.38-2.54,1.48-2.49,2.87-5,3-4.94,1.48-2.48c.51-.82,1.05-1.61,1.57-2.42l3.16-4.84a204.79,204.79,0,0,1,14.14-18.28A134.39,134.39,0,0,1,125.77,296Z" style="fill:#263238"></path><path d="M111.57,322.7a.1.1,0,0,0,0-.14.09.09,0,0,0-.14,0,134.71,134.71,0,0,0-20.38,22.62c-2.94,4.14-5.93,8.26-8.51,12.65a126.41,126.41,0,0,0-7.06,13.51.1.1,0,0,0,0,.12.09.09,0,0,0,.14,0c3-4.11,5.82-8.32,8.61-12.53s5.35-8.58,8.13-12.81a150.28,150.28,0,0,1,19.17-23.39Z" style="fill:#263238"></path><path d="M120.87,340.21a.1.1,0,0,0-.1-.1,51.24,51.24,0,0,0-14.56,2.95,45,45,0,0,0-6.81,3.13l-1.62,1-1.49,1.19a15.34,15.34,0,0,0-1.41,1.25c-.46.43-.93.85-1.37,1.3a72,72,0,0,0-9.31,11.69,85.33,85.33,0,0,0-6.87,13.21.1.1,0,0,0,0,.12.1.1,0,0,0,.14,0l8.39-12.17a129.42,129.42,0,0,1,8.79-11.7c.41-.44.84-.86,1.26-1.3s.85-.87,1.31-1.25l1.36-1.19,1.46-1a43.68,43.68,0,0,1,6.5-3.32,51,51,0,0,1,14.19-3.7h0A.1.1,0,0,0,120.87,340.21Z" style="fill:#263238"></path><path d="M104.48,352.65a16.3,16.3,0,0,0-7.45,2.8,36.12,36.12,0,0,0-6.18,5.11c-.49.46-.95.95-1.4,1.45l-1.37,1.47a33.81,33.81,0,0,0-2.39,3.21c-.68,1.15-1.37,2.29-2,3.5a37.42,37.42,0,0,0-1.51,3.71.11.11,0,0,0,0,.11.1.1,0,0,0,.15,0A36.14,36.14,0,0,0,85,371c.82-1,1.63-2.05,2.4-3.09s1.58-2.05,2.31-3.13,1.51-2.1,2.38-3.06a34.93,34.93,0,0,1,5.56-5.38,16.58,16.58,0,0,1,6.87-3.44h0a.12.12,0,0,0,.09-.11A.1.1,0,0,0,104.48,352.65Z" style="fill:#263238"></path><path d="M76.78,353.87c2.75-6,5-12.12,7.32-18.24s4.52-12.29,6.67-18.47,4.17-12.41,6.12-18.66a.09.09,0,0,0-.06-.12.1.1,0,0,0-.13.06q-3.32,9.22-6.89,18.37c-2.34,6.1-4.73,12.18-7.23,18.22s-5.18,12-7.67,18l-7.54,18.1a.1.1,0,0,0,0,.12.1.1,0,0,0,.14,0c.88-1.39,1.69-2.81,2.54-4.22s1.56-2.88,2.35-4.33C74,359.81,75.38,356.83,76.78,353.87Z" style="fill:#263238"></path><path d="M73.42,351.85c1-2.43,1.83-4.9,2.67-7.37l1.09-3.77c.37-1.26.75-2.51,1-3.78a109,109,0,0,0,3-15.39l.21-2,.11-2c.1-1.31.08-2.62.09-3.93a29.18,29.18,0,0,0-1-7.77.09.09,0,0,0-.12-.06.1.1,0,0,0-.08.12h0a29.22,29.22,0,0,1,.59,7.7c-.08,1.29-.13,2.58-.3,3.86l-.21,1.93-.3,1.91a108.31,108.31,0,0,1-3.56,15.08c-.73,2.48-1.65,4.9-2.48,7.35l-1.36,3.63c-.44,1.22-.83,2.45-1.31,3.66-.9,2.42-1.75,4.87-2.63,7.31s-1.78,4.88-2.58,7.38a.12.12,0,0,0,0,.12.1.1,0,0,0,.14,0c1.3-2.26,2.54-4.57,3.71-6.9S72.37,354.24,73.42,351.85Z" style="fill:#263238"></path><path d="M68.55,349.46c.64-3.58,1.09-7.19,1.38-10.8a87.65,87.65,0,0,0,.19-10.87.11.11,0,0,0-.1-.1.1.1,0,0,0-.1.11,90.05,90.05,0,0,1-1,10.75c-.5,3.56-1.14,7.1-2,10.59s-1.91,6.91-2.82,10.37-1.92,6.9-2.72,10.47a.09.09,0,0,0,0,.11.1.1,0,0,0,.14,0,51.15,51.15,0,0,0,4.49-9.95A66.77,66.77,0,0,0,68.55,349.46Z" style="fill:#263238"></path><path d="M62.71,359.28a23.25,23.25,0,0,0,.48-6.66,25,25,0,0,0-1.07-6.6A18.83,18.83,0,0,0,60.8,343a11.15,11.15,0,0,0-1.95-2.68.11.11,0,0,0-.13,0,.09.09,0,0,0,0,.14h0a15,15,0,0,1,2.44,5.87,23.93,23.93,0,0,1,.42,6.32c-.07,2.12-.65,4.18-.85,6.29-.16,1.05-.32,2.1-.43,3.18a24.61,24.61,0,0,0-.35,3.27h0a.09.09,0,0,0,0,.09.1.1,0,0,0,.14,0,22.59,22.59,0,0,0,1.54-3C62.07,361.42,62.4,360.36,62.71,359.28Z" style="fill:#263238"></path><path d="M92.9,307a18.6,18.6,0,0,1-4.54-18.69c3.55-11.25,8-3,10.78-22.3s6.22-22.06,11-25.37,5.1-1.21,3.62,5.85.15,20.3-7.13,39.22S92.9,307,92.9,307Z" style="fill:#92E3A9"></path><path d="M120.92,300.5s-5-5.68,1.42-17.52,9.83-6.73,18.83-20.88,15.78-23.88,18.54-22.63,5.48,12.59-1.36,30.18-18.44,25.22-25.93,27.28S120.92,300.5,120.92,300.5Z" style="fill:#92E3A9"></path><path d="M81.55,319.18s3.45-9.41,2.9-15.09-4.73-12.8-4.31-23-2-16.58-8.09-5.22-4.38,19.93-.35,27.28S81.55,319.18,81.55,319.18Z" style="fill:#92E3A9"></path><path d="M70.51,332.49s.51-14.24-3.23-27.1-8.12-20.73-8-15.31,3.08,6.8,3.07,16.27-4.19,14-.77,21.36S70.51,332.49,70.51,332.49Z" style="fill:#92E3A9"></path><path d="M61.79,346.17C62,345.32,64.7,339.93,59,331s-14.27-11.58-14.53-8.89,2.71,9.12,6.5,14.12S61.79,346.17,61.79,346.17Z" style="fill:#92E3A9"></path><path d="M102.53,331.74s-1-6.57,6.33-15,10.28-3.63,17.91-5.93,7.07-3.56,14.83-6.1,13.69-3,14.38.28-6,8.29-11,10.48-10.66,1.52-15.52,5.07-8.26,11.74-15.78,12.2S102.53,331.74,102.53,331.74Z" style="fill:#92E3A9"></path><path d="M113,341.15s14.16-4.9,24.44-8.54,15.79-7.77,13.31-2.85-2.74,9.81-11.28,13.17S113,341.15,113,341.15Z" style="fill:#92E3A9"></path><path d="M99.48,354.33s1.93-4,20.56-5.06,25.31.49,21.84,3.26-11.47,3-21.58,5.74S99.48,354.33,99.48,354.33Z" style="fill:#92E3A9"></path><path d="M94.05,306.3s6.54-18.94,10.12-33,5.63-22.7,5.63-22.7" style="fill:none;stroke:#263238;stroke-linecap:round;stroke-linejoin:round"></path><path d="M120.27,300.36s16.35-15.26,24.64-25.4,10.89-19.71,12.78-25.27" style="fill:none;stroke:#263238;stroke-linecap:round;stroke-linejoin:round"></path><path d="M81,318.4a103.9,103.9,0,0,0-1.67-17.54c-1.72-9.19-3.88-14.84-2.88-22.17" style="fill:none;stroke:#263238;stroke-linecap:round;stroke-linejoin:round"></path><path d="M102.53,331.74S111,321.36,118.88,318s22.29-7.54,29.27-11.47" style="fill:none;stroke:#263238;stroke-linecap:round;stroke-linejoin:round"></path><path d="M61.37,345.59s-5.06-9.8-9.16-15.92" style="fill:none;stroke:#263238;stroke-linecap:round;stroke-linejoin:round"></path><path d="M56,409.51l-10.51-6a5.28,5.28,0,0,1-2.65-5.25c1.24-10.18,5.57-39.14,14.92-42.73,8.91-3.43,31.57,9.45,33.19,18.86,1.69,9.87-21,28.41-29.09,34.69A5.31,5.31,0,0,1,56,409.51Z" style="fill:#263238;stroke:#263238;stroke-linecap:round;stroke-linejoin:round"></path></g><g id="picture-2"><rect x="296.42" y="36.34" width="96.78" height="124" transform="translate(7.64 220.33) rotate(-35.81)" style="fill:#263238;stroke:#263238;stroke-linecap:round;stroke-linejoin:round"></rect><rect x="303.72" y="45.69" width="82.19" height="105.3" transform="translate(7.64 220.33) rotate(-35.81)" style="fill:#fff;stroke:#263238;stroke-linecap:round;stroke-linejoin:round"></rect><rect x="327.44" y="76.09" width="34.73" height="44.5" transform="translate(7.64 220.33) rotate(-35.81)" style="fill:#263238;stroke:#263238;stroke-linecap:round;stroke-linejoin:round"></rect></g><g id="picture-1"><rect x="138.5" y="83.16" width="55.03" height="70.5" transform="translate(-17.73 206.83) rotate(-61.2)" style="fill:#263238;stroke:#263238;stroke-linecap:round;stroke-linejoin:round"></rect><rect x="142.65" y="88.47" width="46.73" height="59.87" transform="translate(-17.73 206.83) rotate(-61.2)" style="fill:#fff;stroke:#263238;stroke-linecap:round;stroke-linejoin:round"></rect><rect x="156.14" y="105.76" width="19.75" height="25.3" transform="translate(-17.73 206.83) rotate(-61.2)" style="fill:#263238;stroke:#263238;stroke-linecap:round;stroke-linejoin:round"></rect></g><g id="Lamp"><path d="M456.13,216.27c.2-3.85-3.57-9.13-9.61-12.9-6.28-3.93-12.94-4.94-16.19-2.75l-.07,0-28.71,16.91,45.68,30.33,9-31.47Z" style="fill:#fff;stroke:#263238;stroke-linecap:round;stroke-linejoin:round"></path><path d="M447.22,247.81c-4.16,6.67-18,5.55-30.86-2.5s-19.94-20-15.77-26.66,17.93-5.54,30.77,2.45l.09.06a52.72,52.72,0,0,1,4.78,3.38C446,232.28,450.85,242,447.22,247.81Z" style="fill:#b2b2b2;stroke:#263238;stroke-linecap:round;stroke-linejoin:round"></path><path d="M436.23,224.54l-9,12.42-5.12-3.27,9.21-12.59.09.06A52.72,52.72,0,0,1,436.23,224.54Z" style="fill:#263238;stroke:#263238;stroke-linecap:round;stroke-linejoin:round"></path><path d="M416.76,228.29l-9,10.23s-11.36,2.84-13.64,5.68-8.24,17.76-8.1,22.88,6.68,12.5,15.92,15.49a14.27,14.27,0,0,0,14.78-3.13s11.51-9.66,12.07-13.64.86-16.06.57-16.63,5.26-7.81,5.26-7.81S428.55,229.42,416.76,228.29Z" style="fill:#fff;stroke:#263238;stroke-linecap:round;stroke-linejoin:round"></path><path d="M418.6,244.77s7.82,2.7,10.09,13.07" style="fill:none;stroke:#263238;stroke-linecap:round;stroke-linejoin:round"></path><path d="M412.08,279.5c-2.15,3.43-9.25,2.85-15.87-1.29s-10.25-10.28-8.11-13.7,9.25-2.85,15.87,1.29S414.22,276.07,412.08,279.5Z" style="fill:#fff;stroke:#263238;stroke-linecap:round;stroke-linejoin:round"></path></g><g id="Table"><path d="M455.25,323.75s4.12,13.17,4.53,23.86,2.67,31.89,3.5,34.57,3.49,3.29,3.91,1,4.11-2.88,4.32,1.65-2.68,6.17-7.82,4.53-5.15-4.12-7-10.08-6.58-36.83-6.58-36.83l-.82-11.31Z" style="fill:#263238;stroke:#263238;stroke-linecap:round;stroke-linejoin:round"></path><path d="M372.46,299.05s4.11,13.16,4.53,23.86,2.67,31.89,3.49,34.56,3.5,3.3,3.91,1,4.12-2.88,4.32,1.65-2.67,6.17-7.82,4.52-5.14-4.11-7-10.08-6.58-36.82-6.58-36.82l-.83-11.32Z" style="fill:#263238;stroke:#263238;stroke-linecap:round;stroke-linejoin:round"></path><polygon points="434.89 364.28 456.28 337.94 452.78 324.78 433.45 347.2 434.89 364.28" style="fill:#263238;stroke:#263238;stroke-linecap:round;stroke-linejoin:round"></polygon><path d="M351.57,329.51s7.81,24.48,10.9,35.8,3.7,16.45,2.47,18.51-2.26-2.88-4.32-1.23-1.24,5.35,2.06,6.38,7.2-.62,7.81-6.18-6.58-23.45-6.58-25.71a47.7,47.7,0,0,1,1-7l59.45,14.61s3.71,4.94,3.71,8.43,3.91,30,7.4,35.59,8,6.38,10.7,4.74,3.09-4.53.82-6.59-4.52.41-4.52,1.44-5.76-3.91-6.38-12.75a218,218,0,0,1-.21-22.84c.21-5.35-2.46-25.51-2.46-25.51Z" style="fill:#263238;stroke:#263238;stroke-linecap:round;stroke-linejoin:round"></path><polygon points="368.93 301.19 346.48 329.78 435.29 348.87 458.66 320.44 368.93 301.19" style="fill:#fff;stroke:#263238;stroke-linecap:round;stroke-linejoin:round"></polygon><polygon points="367.56 297.36 345.1 325.95 433.91 345.04 457.28 316.61 367.56 297.36" style="fill:#b2b2b2;stroke:#263238;stroke-linecap:round;stroke-linejoin:round"></polygon><polygon points="435.29 348.87 433.91 345.04 457.28 316.61 458.66 320.44 435.29 348.87" style="fill:#b2b2b2;stroke:#263238;stroke-linecap:round;stroke-linejoin:round"></polygon><polygon points="435.29 348.87 433.91 345.04 345.1 325.95 346.48 329.78 435.29 348.87" style="fill:#828282;stroke:#263238;stroke-linecap:round;stroke-linejoin:round"></polygon></g><g id="Sofa"><path d="M333.8,328.05S275.35,300.17,270.63,300s-8.11,6.45-8.37,11.66,3.34,24.79,3.34,24.79l52.92,82.25,18.92-61.31Z" style="fill:#878787;stroke:#263238;stroke-linecap:round;stroke-linejoin:round"></path><polygon points="248.51 391.66 319.24 359.83 318.52 418.67 255.84 448.24 248.51 391.66" style="fill:#b2b2b2;stroke:#263238;stroke-linecap:round;stroke-linejoin:round"></polygon><line x1="251.91" y1="420.94" x2="318.62" y2="386.73" style="fill:#fff;stroke:#263238;stroke-linecap:round;stroke-linejoin:round"></line><path d="M199.52,356.46l65.3-24.86s26.42,8,54.42,28.23L241.7,395Z" style="fill:#b2b2b2;stroke:#263238;stroke-linecap:round;stroke-linejoin:round"></path><path d="M214.46,251.9s-43.24,12.45-50.23,21.3-2.56,22.89,3.28,36.38,21.72,53.13,21.72,53.13l88.22-30.14s-16.42-70.8-21.27-81.4S214.46,251.9,214.46,251.9Z" style="fill:#b2b2b2;stroke:#263238;stroke-linecap:round;stroke-linejoin:round"></path><path d="M247.93,359.94s-46.5-26.8-51.69-29.89-23.09,1.64-25.18,19.85,10.32,60.11,19,67.09,43.23,37.14,48.26,38.6,16.62-4.85,17.51-7.35-4.34-81.82-4.34-81.82A10.67,10.67,0,0,0,247.93,359.94Z" style="fill:#878787;stroke:#263238;stroke-linecap:round;stroke-linejoin:round"></path><path d="M247.93,359.94l-5.47-3.16-.23,0s-13.55-1.48-19.4,15.67,9.59,68.66,13.87,82.29a7.86,7.86,0,0,0,1.63.82c5,1.45,16.62-4.85,17.51-7.35s-4.34-81.82-4.34-81.82A10.67,10.67,0,0,0,247.93,359.94Z" style="fill:#b2b2b2;stroke:#263238;stroke-linecap:round;stroke-linejoin:round"></path><path d="M318.52,418.67s-1.16-73-.58-78.93,9.5-13.05,15.86-11.69,7.5,12.71,7,20.4-4,49-4.5,54.22-3,10.19-6.22,12.62S319.73,419,318.52,418.67Z" style="fill:#b2b2b2;stroke:#263238;stroke-linecap:round;stroke-linejoin:round"></path></g><g id="Cushion"><path d="M95.94,182.07s30.4-16.17,49.32-18.82l5.59-1.21s7.25-4.53,8.28-1.79a13.64,13.64,0,0,1,.5,6.08s8.59,16.24,13.57,30,4.83,17,4.83,17a44.54,44.54,0,0,1,1.58,4.78A3.3,3.3,0,0,1,178,221c-1.3.71-5.3.2-5.3.2s-13.45,5.3-24.35,9.63-22.81,8.38-22.81,8.38,0,2.92-3.74,4.32-4.2-4-4.2-4-10.52-13.05-15.79-25.84-7.79-23-8.51-24.33-3.75-1.05-2.38-5.14S95.94,182.07,95.94,182.07Z" style="fill:#e0e0e0;stroke:#263238;stroke-linecap:round;stroke-linejoin:round"></path><path d="M129.52,219.73a24.23,24.23,0,0,0-.41-10.21l-.66-2.46-.76-2.34-1.51-4.66c-1-3.1-2-6.19-2.88-9.29-1.75-6.18-3-12.52-2.09-18.59.09-.64.21-1.27.35-1.89-1.41.55-2.79,1.12-4.14,1.68a37,37,0,0,0,.34,10,69.65,69.65,0,0,0,2.41,9.74c1,3.16,2.09,6.26,3.24,9.33l1.71,4.59.85,2.29.7,2.25a21.24,21.24,0,0,1,.75,9.19,23.63,23.63,0,0,1-3.47,8.7c-2.17,3.52-4.79,6.83-7.27,10.28.56.73.89,1.14.91,1.16,2.57-3.47,5.38-6.82,7.86-10.49A25.62,25.62,0,0,0,129.52,219.73Z" style="fill:#263238"></path><path d="M166.47,180.27c-.86-1.87-1.7-3.63-2.47-5.24a48.44,48.44,0,0,0-2.82,6.41,31.23,31.23,0,0,0-1.85,9.24,20.69,20.69,0,0,0,.41,4.88,19.08,19.08,0,0,0,.68,2.38l.79,2.11c2.2,5.59,5,10.8,7.25,16.11a58.56,58.56,0,0,1,2.2,5.83l1.88-.74a53.23,53.23,0,0,0-1.58-6c-.92-2.84-2-5.61-3-8.35s-2.08-5.46-3-8.18l-.65-2a13.84,13.84,0,0,1-.44-1.88,17.94,17.94,0,0,1-.19-3.89,29.49,29.49,0,0,1,1.79-7.94C165.73,182,166.09,181.15,166.47,180.27Z" style="fill:#263238"></path><path d="M159.17,223.17l-.39-3.34-.58-3.32a90.43,90.43,0,0,0-3.65-12.87,82.34,82.34,0,0,1-3.65-12.28c-1.61-8.26-.2-17.17,2.29-25.48.62-2,1.34-4,2.13-6-.56.19-1.12.43-1.65.67-.59,1.65-1.18,3.3-1.72,5-1.33,4.22-2.55,8.47-3.47,12.84a42.45,42.45,0,0,0-.89,13.52,41.9,41.9,0,0,0,1.31,6.71c.65,2.16,1.35,4.29,2.11,6.34a118.62,118.62,0,0,1,4,12.34l.72,3.15.62,3.17a27.78,27.78,0,0,1,.43,3.93l2.59-1A27.57,27.57,0,0,0,159.17,223.17Z" style="fill:#263238"></path><path d="M110.12,215.12l.89-2,.88-2.11c.31-.69.55-1.43.81-2.16a22.29,22.29,0,0,0,.7-2.23,17.28,17.28,0,0,0,.55-2.31l.21-1.19c0-.41.06-.83.1-1.24a16.13,16.13,0,0,0-.05-2.5,16.39,16.39,0,0,0-.52-2.45,33.25,33.25,0,0,0-1.73-4.34c-.64-1.35-1.21-2.65-1.72-4a39.87,39.87,0,0,1-2.13-8.32,31.58,31.58,0,0,1-.33-4l-2.47,1.16a25.92,25.92,0,0,0,.18,3.17,41.94,41.94,0,0,0,2,9c.49,1.46,1.06,2.9,1.64,4.26a28.11,28.11,0,0,1,1.48,4,13.45,13.45,0,0,1-.48,7.85,19.74,19.74,0,0,1-.69,2c-.25.67-.49,1.33-.8,2l-.86,2-.92,2c-.82,1.85-1.62,3.72-2.4,5.59.73,1.42,1.5,2.83,2.29,4.19Q108.32,219.24,110.12,215.12Z" style="fill:#263238"></path><path d="M142.94,227.61l1-4a33.17,33.17,0,0,0,.63-4.31,38.45,38.45,0,0,0-.37-8.59,74.89,74.89,0,0,0-1.67-8.28c-1.39-5.42-3.08-10.67-4.45-15.93-.66-2.63-1.3-5.26-1.74-7.89-.26-1.32-.36-2.61-.52-3.91s-.16-2.63-.17-4c0-1.78.08-3.57.2-5.36-1.49.42-3,.89-4.53,1.39,0,1.34-.06,2.69,0,4s.13,2.86.24,4.29.33,2.9.63,4.27c.49,2.81,1.21,5.53,2,8.22,1.54,5.37,3.36,10.58,4.83,15.81a68.71,68.71,0,0,1,1.86,7.85,35,35,0,0,1,.61,7.88A31.46,31.46,0,0,1,141,223l-.78,4c-.5,2.51-1,5-1.56,7.52l2.77-1C141.94,231.53,142.46,229.57,142.94,227.61Z" style="fill:#263238"></path></g><g id="Character"><path d="M211.64,241.55s-19.72,7.2-19.72,9.65,18,34.7,20.3,38,6.05,23.33,6.05,28.8.72,4,.72,4l48.23-24.62s-7.19-9.22-7.91-11.52a14.25,14.25,0,0,1-.72-4.75c0-1,2.3-8.07,2-10.8s-2.59-6.19-2.59-6.19,27.5,5.32,28.8,4.6,8.21-14.25,10.8-22.17,8.78-20.88,8.78-20.88,12.53-8.35,13.82-10.08a23.85,23.85,0,0,0,3.32-6.19c1.29-3.17,4.75-7.49,3.16-7.49s-4.17,1.87-4.17,1.87.72-2.88-1-1.29a13.55,13.55,0,0,0-3.46,5,2,2,0,0,1-.86,1.29s-4.61.87-6.05,1.3a22.43,22.43,0,0,1-2.3.58s1.58-2.6,1.58-4.32-1.73-5.19-2.88-2.31-1.15,4.32-2,5.76-3.75,3.31-4,5.9-.72,5.19-.86,5.76-19.73,30.82-19.73,30.82-19.58-7.63-24.33-13-6.34-9.5-10.08-8.21-19.3,6.34-19.3,6.34Z" style="fill:#fff;stroke:#263238;stroke-linecap:round;stroke-linejoin:round"></path><path d="M298.45,244.18c-5.53-.72-8.38-2.26-9.82-3.78l-7.73,11.95s-19.58-7.63-24.33-13-6.34-9.5-10.08-8.21-19.3,6.34-19.3,6.34l-15.55,4s-19.72,7.2-19.72,9.65,18,34.7,20.3,38,6.05,23.33,6.05,28.8.72,4,.72,4l48.23-24.62s-7.19-9.22-7.91-11.52a14.25,14.25,0,0,1-.72-4.75c0-1,2.3-8.07,2-10.8s-2.59-6.19-2.59-6.19,27.5,5.32,28.8,4.6,8.21-14.25,10.8-22.17C297.86,245.83,298.14,245,298.45,244.18Z" style="fill:#92E3A9;stroke:#263238;stroke-linecap:round;stroke-linejoin:round"></path><path d="M306.25,220.09a12.16,12.16,0,0,1,1.72-2c1.3-1.3,9.8-4.9,9.8-4.9s-.72-3.31.28-5.61" style="fill:none;stroke:#263238;stroke-linecap:round;stroke-linejoin:round"></path><path d="M322.52,203.82s-1.73,4.47-.72,8.5" style="fill:none;stroke:#263238;stroke-linecap:round;stroke-linejoin:round"></path><path d="M250.13,245.71c-.6-2.19-1-3.87-1-3.87" style="fill:none;stroke:#263238;stroke-linecap:round;stroke-linejoin:round"></path><path d="M258,264.16s-4-6.63-4.9-8.5c-.4-.86-1.29-3.89-2.13-6.88" style="fill:none;stroke:#263238;stroke-linecap:round;stroke-linejoin:round"></path><path d="M194.3,223.91a10.34,10.34,0,0,1-6.84-2c-2.89-2.36.79-3.81-1.18-5.79s-6.84-2.1-6.58-8.42,6.05-7,8.29-9.6-3.69-9,1-14.87,10.26-2.1,11.71-.92,3.82,1.84,3.55.13-3.55-4,.27-3.29,6.05,3.69,5,5.4-2.63,3-2,3.55,2.11-1.05,3.42-.13,4.08,2.37,4.08,2.37,1.19-3.29,0-5.53-6.57-2.63-8.15-7.76,1.71-8.16,4.34-9.74,5.39-2.37,3.81-4.21-8.15,1.84-10.26-1.84,6.45-9.34,7.63-8.56,0,.53.27,2.24,7.76,3.69,7.76,3.69,16.45-.27,19.87,7.76-5,6.84-4,10.26,11.31,12.11,8,20.26-3,9.74-8.69,7.5-9.74-1.71-8,.4,3.28,3.16,2.1,5.53-4.34,3-4.34,3-4,3.55-6.45,2.9-3.42-4.87-9.08-4.21-6.84,1.05-8.42,3.68S194.3,223.91,194.3,223.91Z" style="fill:#263238;stroke:#263238;stroke-linecap:round;stroke-linejoin:round"></path><path d="M189.37,215.85s6.36,13.79,7.95,16.26,6.72,8,10.78,9.37a37.68,37.68,0,0,0,7.07,1.77s6.37,8.66,11.14,11.66,6,3.18,6,3.18,2.83-10.78,1.41-14.84-2.83-7.07-2.83-7.07l-7.07-14.32-.35-1.77s5.3-5.3,4.6-8.66-3.72-4.06-4.78-2.47a10.64,10.64,0,0,0-1.41,3.53s-3.54,1.59-5.83.36-1.24-6.54-4.42-6.37a5.78,5.78,0,0,0-4.42,2s-3.18-3.18-5.13-1.77-.88,5.66-4.94,8.31A8.34,8.34,0,0,1,189.37,215.85Z" style="fill:#fff;stroke:#263238;stroke-linecap:round;stroke-linejoin:round"></path><path d="M205.26,232.36s2,1.7,2.72,1.7,1.61-2.21,1.61-2.21" style="fill:none;stroke:#263238;stroke-linecap:round;stroke-linejoin:round"></path><path d="M211.07,236.34a.86.86,0,1,1-1.1,1.29.93.93,0,0,1-.19-1.28A.91.91,0,0,1,211.07,236.34Z" style="fill:#263238"></path><path d="M212.25,222.21c.28.79.11,1.58-.37,1.75s-1.11-.34-1.39-1.13-.12-1.58.37-1.75S212,221.41,212.25,222.21Z" style="fill:#263238"></path><path d="M199.44,224.67c.28.79.11,1.58-.37,1.75s-1.11-.34-1.39-1.13-.12-1.58.37-1.75S199.16,223.87,199.44,224.67Z" style="fill:#263238"></path><path d="M199.15,220s-4.33-2.46-5.17,1.7" style="fill:none;stroke:#263238;stroke-miterlimit:10"></path><path d="M206,218.44s2.21-4.15,6.2-2.46" style="fill:none;stroke:#263238;stroke-miterlimit:10"></path><path d="M215.17,243.25a18.68,18.68,0,0,0,6.55-10.3s.59,9.68-2.38,15.19Z" style="fill:#263238;stroke:#263238;stroke-miterlimit:10"></path><path d="M191.92,251.2s-1.59,4.89-3.17,12.24-11.52,42.62-10.22,43.63,14.54,2.44,28.79-.44,17.28-3.31,18.58-3.31,7.92,0,9.79-1,5-6.48,5-6.48,7.92-3.45,8.5-4.6-.29-1.15-.29-1.15,2.45-1.73,3.6-2.45,3.6-1.59,1.58-1.87-12.67-1.44-14.54-.72-8.21,11.37-9.79,12.38-4.18,1.15-10.8.14-23.19-5.18-23.19-5.18L204.59,267" style="fill:#92E3A9;stroke:#263238;stroke-linecap:round;stroke-linejoin:round"></path><path d="M254.12,285.76c-2-.29-12.67-1.44-14.54-.72s-8.21,11.37-9.79,12.38-4.18,1.15-10.8.14c-3.81-.58-10.89-2.2-16.23-3.48a12.38,12.38,0,0,0-4.51,8.67,8,8,0,0,0,1.39,5.06c2.48-.27,5.07-.65,7.68-1.18,14.26-2.88,17.28-3.31,18.58-3.31s7.92,0,9.79-1,5-6.48,5-6.48,7.92-3.45,8.5-4.6-.29-1.16-.29-1.16,2.45-1.72,3.6-2.44S256.14,286,254.12,285.76Z" style="fill:#fff;stroke:#263238;stroke-linecap:round;stroke-linejoin:round"></path><line x1="239.39" y1="292.53" x2="248.94" y2="290.07" style="fill:#fff;stroke:#263238;stroke-linecap:round;stroke-linejoin:round"></line><path d="M240.14,289s11.75-2.15,11.83-1.07" style="fill:#fff;stroke:#263238;stroke-linecap:round;stroke-linejoin:round"></path><line x1="241.21" y1="285.83" x2="247.5" y2="285.25" style="fill:#fff;stroke:#263238;stroke-linecap:round;stroke-linejoin:round"></line><path d="M256.74,342.74s7.9-.79,17.85-6.63,22.9-12.95,22.9-12.95-15.16,33.48-17.53,39a46.81,46.81,0,0,1-3.16,6.63s-8.68,4.9-10.89,5.69-2.53,1.26-1.43,4.42,4.58,8.85,4.58,11.37.64,7.11,1.9,9.64,4.26,7.11,5.69,6.63,1.42-8.68,3-16.42,1.73-9.16,4.74-14.22,13.74-22,20.21-28.27,24.33-35.22,25.75-40.28-2.85-11.21-7.43-11.84-20.37-.32-35.53,5.53-39,34.74-43.12,39.64S256.74,342.74,256.74,342.74Z" style="fill:#263238;stroke:#263238;stroke-linecap:round;stroke-linejoin:round"></path><path d="M283.65,353.86c-1.73,3.86-3.1,6.94-3.69,8.31a46.81,46.81,0,0,1-3.16,6.63s-8.68,4.9-10.89,5.69-2.53,1.26-1.43,4.42,4.58,8.85,4.58,11.37.64,7.11,1.9,9.64,4.26,7.11,5.69,6.63,1.42-8.68,3-16.42,1.73-9.16,4.74-14.22c1.79-3,6.36-10.29,11.13-17A20.68,20.68,0,0,1,283.65,353.86Z" style="fill:#fff;stroke:#263238;stroke-linecap:round;stroke-linejoin:round"></path><path d="M276.65,406.55c1.42-.47,1.42-8.68,3-16.42,1.05-5.16,1.47-7.51,2.53-10a2.75,2.75,0,0,0-2.53-1.84c-2.37-.16-4.11-.16-4.11-.16l-1.7-7.67c-2.74,1.5-6.57,3.55-7.93,4-2.22.79-2.53,1.26-1.43,4.42s4.58,8.85,4.58,11.37.64,7.11,1.9,9.64S275.22,407,276.65,406.55Z" style="fill:#92E3A9;stroke:#263238;stroke-linecap:round;stroke-linejoin:round"></path><path d="M219,322s.16,19.76,18.8,23.23,36.33-13.58,40.12-20.85S291,303.89,291,303.89s2.84,12.63,12.79,20.85,31.59,24,36.33,28.59,13.43,17.84,14.37,17.69S367,363.12,373,357.75s8.85-10.43,7.27-10.74-10.74,3.63-15.8,4.58-11.84.31-13.42-.63-21-27.33-27.64-37.28-21-25.43-23.69-28.59-7.27-2.84-10.9-1.89-38.38,20.69-42.49,23.85-5.69,4.1-5.69,4.1Z" style="fill:#263238;stroke:#263238;stroke-linecap:round;stroke-linejoin:round"></path><path d="M380.26,347c-1.58-.32-10.74,3.63-15.8,4.58s-11.84.31-13.42-.63c-.59-.36-3.7-4.3-7.7-9.6l-7.5,8.29c1.91,1.54,3.41,2.81,4.3,3.68,4.74,4.58,13.43,17.84,14.37,17.69S367,363.12,373,357.75,381.84,347.32,380.26,347Z" style="fill:#fff;stroke:#263238;stroke-linecap:round;stroke-linejoin:round"></path><path d="M380.26,347c-1.58-.32-10.74,3.63-15.8,4.58a29.94,29.94,0,0,1-4.9.46,2.24,2.24,0,0,0,0,1.43,16.73,16.73,0,0,0,.95,2.53,48,48,0,0,1-12.19,7.38c3.07,4.11,5.69,7.71,6.18,7.63.95-.16,12.48-7.9,18.48-13.27S381.84,347.32,380.26,347Z" style="fill:#92E3A9;stroke:#263238;stroke-linecap:round;stroke-linejoin:round"></path></g><g id="Device"><rect x="297.55" y="172.56" width="14.75" height="29.78" rx="2.44" transform="translate(184.74 -149.7) rotate(38.8)" style="fill:#263238;stroke:#263238;stroke-linecap:round;stroke-linejoin:round"></rect><path d="M318.44,179.34a2.46,2.46,0,0,1-.48,1l-15.44,19.21a2.57,2.57,0,0,1-3.61.39l-7.49-6a2.27,2.27,0,0,1-.45-.48,2.56,2.56,0,0,0,.88,2.62l7.49,6a2.56,2.56,0,0,0,3.61-.39l15.44-19.2A2.57,2.57,0,0,0,318.44,179.34Z" style="fill:#fff;stroke:#263238;stroke-linecap:round;stroke-linejoin:round"></path></g></svg>