<svg xmlns="http://www.w3.org/2000/svg" viewBox="0 0 500 500"><g id="background-simple"><path d="M452.8,164.85c10.73-10.1,8.5-30,6.63-43.11C457,104.82,450.62,88.45,440,75a65.28,65.28,0,0,0-18-15.28c-38.26-23-83.32-33.78-127.4-38-30.25-2.86-53.6-.56-81.15,12,0,0-84.79,30-132.39,68.63s-41.84,51.73-18,36.8c-13.11,12.49-32.13,28.59-37.29,46.81C14.77,224.67,57.87,392.55,132.48,411.2s248.28-4.5,290.09-56,32.16-153.08,12.87-192.32S441.87,175.14,452.8,164.85Z" style="fill:#92E3A9"></path><path d="M452.8,164.85c10.73-10.1,8.5-30,6.63-43.11C457,104.82,450.62,88.45,440,75a65.28,65.28,0,0,0-18-15.28c-38.26-23-83.32-33.78-127.4-38-30.25-2.86-53.6-.56-81.15,12,0,0-84.79,30-132.39,68.63s-41.84,51.73-18,36.8c-13.11,12.49-32.13,28.59-37.29,46.81C14.77,224.67,57.87,392.55,132.48,411.2s248.28-4.5,290.09-56,32.16-153.08,12.87-192.32S441.87,175.14,452.8,164.85Z" style="fill:#fff;opacity:0.7000000000000001"></path></g><g id="Floor"><ellipse cx="252.96" cy="448.23" rx="217.8" ry="27.7" style="fill:#263238"></ellipse></g><g id="Stars"><polygon points="90.86 84.8 96.8 99.13 112.27 97.91 100.47 107.99 106.42 122.32 93.19 114.22 81.39 124.3 85.01 109.21 71.78 101.11 87.24 99.89 90.86 84.8" style="fill:none;stroke:#263238;stroke-miterlimit:10"></polygon><polygon points="410.97 71.19 413.82 79.96 423.04 79.96 415.58 85.39 418.43 94.16 410.97 88.74 403.5 94.16 406.35 85.39 398.89 79.96 408.12 79.96 410.97 71.19" style="fill:none;stroke:#263238;stroke-miterlimit:10"></polygon><polygon points="397.33 275.2 394.88 292.14 410.23 299.71 393.36 302.61 390.9 319.55 382.93 304.4 366.06 307.3 378 295.04 370.03 279.89 385.39 287.46 397.33 275.2" style="fill:none;stroke:#263238;stroke-miterlimit:10"></polygon><polygon points="107.17 333.55 105.26 341.68 112.39 346.01 104.08 346.7 102.17 354.83 98.93 347.13 90.61 347.83 96.94 342.37 93.7 334.68 100.84 339 107.17 333.55" style="fill:none;stroke:#263238;stroke-miterlimit:10"></polygon></g><g id="Scissor"><g id="lYMh7b"><path d="M248,303.29c5.43-13.23,10.21-25.69,15.61-37.88,6.15-13.88,10.56-28.27,14.35-42.92a6.85,6.85,0,0,1,2.69-4c43.28-23.72,84.23-51.06,124.22-79.88,10.75-7.74,21.31-15.73,31.95-23.62a3,3,0,0,0,1.18-2.17c-3.93,1.13-8,1.91-11.75,3.46-28,11.6-56.06,23.17-83.92,35.13-16.13,6.93-31.94,14.57-47.9,21.88-1,.47-2.08.88-3.61,1.52,12.57-52,27.68-103,35.06-155.7l-1.33-.42c-1.28,2.37-2.64,4.71-3.84,7.13-22.09,44.44-42.79,89.51-60.14,136-3.7,9.9-7,20-10.59,29.9-.51,1.39-1.5,3.15-2.71,3.66-25,10.44-46.58,26.55-69.34,40.71-1.74,1.08-3.47,2.18-5.72,3.6.26-1.61.4-2.58.57-3.55,2.57-14.32-4.08-26.24-17.7-31.36-12.43-4.67-25-3.79-37.31.21C99.14,211,84,221.6,75,239.52c-4.81,9.64-5.81,19.68.27,29.3,5.6,8.87,14.43,12.59,24.35,13.78,18.76,2.25,35.34-3.67,50.43-14.4C170,254,191.7,243.62,215.67,238.5c7.56-1.62,15.43-1.77,24-2.67.73,7.94,2.12,15.3,2,22.62-.55,25-6.87,48.69-17.46,71.28-7.91,16.89-10.87,34.37-5.18,52.52,3.39,10.8,9.58,19.48,21.3,22.47,10.23,2.61,19-1.08,27-7.14,21.34-16.19,31.49-52.65,21.51-77.5-4-10-10.51-17.54-21.63-19.89C260.72,298.84,254.68,300.4,248,303.29Zm22.57,77c-1.19,1.28-2.28,2.66-3.57,3.83-6.75,6.09-14.24,10.33-23.71,7.75-9.67-2.64-13.92-10.27-16.34-19.18-2.24-8.26-1.85-16.6.15-24.86,3-12.3,8.86-22.87,19.32-30.36,9.27-6.64,19.77-6.33,27.25.55a28,28,0,0,1,8.31,15.4C285.57,350.78,281.06,366.25,270.55,380.25ZM92.21,231.19c2.28-2.15,4.39-4.51,6.86-6.42,12.64-9.8,26.71-15.16,42.9-12.19s23.33,17,16.13,31.81c-6.43,13.27-17.55,21.28-31.2,25.91-10.15,3.45-20.46,4.42-30.65,0-9.55-4.16-14.13-13.19-12-23.31C85.52,241,88.46,235.93,92.21,231.19Z" style="fill:none;stroke:#263238;stroke-miterlimit:10"></path></g></g><g id="character-2"><path d="M290.34,251.71s-3.48,32.88-1.9,50.58,13.28,45.21,13,54.37,7,36,8.54,48.69a164.79,164.79,0,0,1,1.58,19.91c0,.95-13,10.44-15.49,12s-5.06,1.58-3.16,3.79S303,443.28,308,442.33s7.9-4.1,9.49-4.42,7.27.95,8.53-3.79-2.21-9.49-2.84-12,3.47-37.93,2.53-46.47-5.06-38.25-5.06-39.51,10.11-54.69,12-67S327.33,252,327.33,252Z" style="fill:#263238;stroke:#263238;stroke-linecap:round;stroke-linejoin:round"></path><path d="M292.87,441.07c-1.9-2.21.63-2.21,3.16-3.79s15.49-11.07,15.49-12a150.27,150.27,0,0,0-1.2-16.72,20,20,0,0,0,13.74-.84c-.62,7.44-1.09,13.42-.84,14.4.63,2.53,4.11,7.27,2.84,12s-6.95,3.47-8.53,3.79-4.43,3.48-9.49,4.42S294.76,443.28,292.87,441.07Z" style="fill:#fff;stroke:#263238;stroke-linecap:round;stroke-linejoin:round"></path><path d="M296,437.28c.9-.57,3.15-2.15,5.65-4l4.47,3.34A50.21,50.21,0,0,0,319.74,431c2.32-1.43,4.17-2.67,5.6-3.68a11.16,11.16,0,0,1,.72,6.85c-1.26,4.74-6.95,3.47-8.53,3.79s-4.43,3.48-9.49,4.42-13.28.95-15.17-1.26S293.5,438.86,296,437.28Z" style="fill:#92E3A9;stroke:#263238;stroke-linecap:round;stroke-linejoin:round"></path><path d="M358,245.39s5.69,13,5.06,24-10.43,35.09-16.44,44.89-16.44,29.09-15.49,32.56,12,8.22,14.22,18.66,7,35.72,10.75,47.73,6.64,15.81,5.69,19-5.37,9.8-8.22,13.91-12.64,7.9-15.17,5.06,7.27-19,8.22-24-3.48-11.06-4.43-13.91-17.7-30.35-25-45.84S308,346.55,308,342.12s13-67.33,13.28-68.6-2.53-19.91-2.53-19.91Z" style="fill:#263238;stroke:#263238;stroke-linecap:round;stroke-linejoin:round"></path><path d="M341.38,411.56c5.53-.55,9.91-3.65,12.56-6.07.73,2.91,1.46,5.56,2.15,7.76,3.8,12,6.64,15.81,5.69,19s-5.37,9.8-8.22,13.91-12.64,7.9-15.17,5.06,7.27-19,8.22-24-3.48-11.06-4.43-13.91A14.63,14.63,0,0,0,341.38,411.56Z" style="fill:#fff;stroke:#263238;stroke-linecap:round;stroke-linejoin:round"></path><path d="M348.82,441.07a39.26,39.26,0,0,0,4.43-3.79c1.38-1.38,5-7.08,7.49-11.16,1.05,2.8,1.51,4.53,1,6.1-.94,3.16-5.37,9.8-8.22,13.91s-12.64,7.9-15.17,5.06c-1.31-1.48.7-6.55,3.07-11.78Z" style="fill:#92E3A9;stroke:#263238;stroke-linecap:round;stroke-linejoin:round"></path><path d="M298.14,149.33s-8.12.62-11.87,7.29-7.5,24.79-9.59,33.54-4.79,14.8-5.21,17.92,16.67,3.13,18.13,3.33,3.33-14,4.38-19.58,8.12-37.92,8.54-41.25l.42-3.34Z" style="fill:#fff;stroke:#263238;stroke-linecap:round;stroke-linejoin:round"></path><path d="M281.32,170.81c1.55-5.79,3.25-11.17,4.95-14.19,3.75-6.67,9.11-7.54,9.11-7.54l7.56-1.84-.42,3.34c-.27,2.12-3.25,16-5.64,27.28C293.67,175.44,287.26,171.22,281.32,170.81Z" style="fill:#92E3A9;stroke:#263238;stroke-linecap:round;stroke-linejoin:round"></path><path d="M330.63,131.14s0,9.85,1.61,11.28,9.85,1.79,16.3,6.45,10,13.79,6.62,26.14-7.88,42.26-8.05,45.85,13.43,24,14.32,24.89-2.15,4.65-23.46,9.67-32.59,7.52-39.93,4.65-10.38-3-9.67-6.27,2.51-9,2.87-11.46,3.22-13.25,2.86-19.51-5.37-19.34-6.62-23.1S286,187.91,286.22,185s.18-4.65.18-4.65,3.94-18.27,4.66-21.67,2.43-8.77,4.32-9.64c5-2.3,16.81-4,18.24-7.55s.36-8.24.36-8.24Z" style="fill:#92E3A9;stroke:#263238;stroke-linecap:round;stroke-linejoin:round"></path><path d="M294.09,232.62s14.35,10.29,21.53,12.48" style="fill:none;stroke:#263238;stroke-linecap:round;stroke-linejoin:round"></path><path d="M314.45,240.87a67.3,67.3,0,0,0,14.9,5.47" style="fill:none;stroke:#263238;stroke-linecap:round;stroke-linejoin:round"></path><path d="M307.82,237.3s.71.43,1.94,1.12" style="fill:none;stroke:#263238;stroke-linecap:round;stroke-linejoin:round"></path><path d="M313.62,141.53c1.43-3.58.36-8.24.36-8.24l16.65-2.15s0,9.85,1.61,11.28c.8.71,3.21,1.16,6.22,2-4,8.33-14.65,28.07-23.59,25.23-8.39-2.66-9.45-16.24-9.44-23C309.29,145,312.87,143.4,313.62,141.53Z" style="fill:#fff;stroke:#263238;stroke-linecap:round;stroke-linejoin:round"></path><polygon points="331 139.71 324.93 135.34 330.63 131.14 331 139.71" style="fill:#263238;stroke:#263238;stroke-linecap:round;stroke-linejoin:round"></polygon><path d="M337.44,80.82s2.68-4.11,10.56-4.11,14.68,7,16.12,16.83-7.88,17.19-7.52,19.34,7.34,5.55,4.83,11.1-8.95,6.09-10.74,4.3a13,13,0,0,1-2.33-2.87s4.3,1.08,4.65-1.61-7.7-2.69-10.38-4.48-10.21-13.6-9.85-22.74A34.15,34.15,0,0,1,337.44,80.82Z" style="fill:#263238;stroke:#263238;stroke-linecap:round;stroke-linejoin:round"></path><path d="M342.12,112.42s4.27-4,5.52-1.69-1.61,7-3.76,8.77a8.12,8.12,0,0,1-3.94,2Z" style="fill:#fff;stroke:#263238;stroke-linecap:round;stroke-linejoin:round"></path><path d="M309,101.78s-2.14-3.76-3.76-.72,1.08,11.1,1.08,11.1Z" style="fill:#fff;stroke:#263238;stroke-linecap:round;stroke-linejoin:round"></path><path d="M312.9,86.91a9.25,9.25,0,0,0-6.08,5.55c-1.62,4.48.71,10.21.71,10.21l-.54,3.94s4.66-11.1,6.45-13.25a9.53,9.53,0,0,0,2.33-5.55C316,86.2,314.52,86.73,312.9,86.91Z" style="fill:#263238;stroke:#263238;stroke-linecap:round;stroke-linejoin:round"></path><path d="M343.35,108.76s-4.66,16.83-6.45,20-13.25,9.32-15.94,9.85-6.27,0-7.52-1.61-6.62-9.31-8.06-14.14,3.05-20.6,4.48-25.79,5.91-9.31,5.91-9.31,1.61-3.4,8.24-3S336.72,91,339.23,98,343.35,108.76,343.35,108.76Z" style="fill:#fff;stroke:#263238;stroke-linecap:round;stroke-linejoin:round"></path><path d="M315.19,89.28s6.52-4.84,10.94.21,4,13.67,5.68,18.3,8.41,7.57,8.41,7.57a14.85,14.85,0,0,1-2.52-5.47,20.32,20.32,0,0,1-.63-7.15s1.26,4.42,2.73,5.68a10.17,10.17,0,0,1,2.32,4,20.69,20.69,0,0,0,2.73-4A24.73,24.73,0,0,0,348,95.17c-.42-5-10.94-17.88-15.36-19.14s-14.51.63-17.88,3.79S311.2,88.65,315.19,89.28Z" style="fill:#263238;stroke:#263238;stroke-linecap:round;stroke-linejoin:round"></path><path d="M329.13,112.13c-.35,1.2,0,2.36.74,2.58s1.66-.57,2-1.77,0-2.37-.73-2.59S329.49,110.92,329.13,112.13Z" style="fill:#263238"></path><path d="M317.38,118.43a3.46,3.46,0,0,0,2.33,2.51c2.15.89,3.22-.18,3.22-.18" style="fill:none;stroke:#263238;stroke-linecap:round;stroke-linejoin:round"></path><path d="M326,125.59s-4.66,1.26-8.06,0a9.53,9.53,0,0,1-4.66-3.22" style="fill:none;stroke:#263238;stroke-linecap:round;stroke-linejoin:round"></path><path d="M319,104.46a4.84,4.84,0,0,0-6.8-2" style="fill:none;stroke:#263238;stroke-linecap:round;stroke-linejoin:round"></path><path d="M327.59,105.89s3.58-3.58,8.41,1.26" style="fill:none;stroke:#263238;stroke-linecap:round;stroke-linejoin:round"></path><path d="M317.92,110.91s-2.15-3.94-7-1.79" style="fill:#263238"></path><path d="M279.34,198.76C285,201,310,214.75,311.06,215s11.25-5.63,11.25-5.63L334.19,212s6.66,4.17,6,5-5-.83-5-.83,4.37,3.54,3.33,3.95-4.58-.62-4.58-.62,2.5,2.08.62,2.08-6.66-2.5-6.66-2.5,3.75,2.92,2.5,3.13-6.88-2.29-6.88-2.29a15.17,15.17,0,0,1-5.42,2.08c-3.75.83-8.54-1-8.54-1s-32.92-4-36.25-4.38-3.33-4.37-1.88-8.54a27,27,0,0,1,3.13-6.46" style="fill:#fff;stroke:#263238;stroke-linecap:round;stroke-linejoin:round"></path><line x1="327.94" y1="219.12" x2="322.42" y2="216.03" style="fill:none;stroke:#263238;stroke-linecap:round;stroke-linejoin:round"></line><line x1="333.98" y1="219.54" x2="325.69" y2="214.22" style="fill:none;stroke:#263238;stroke-linecap:round;stroke-linejoin:round"></line><path d="M354.1,234.33l-4,29.78h-4.34l5.52-34.41A17,17,0,0,1,354.1,234.33Z" style="fill:#9c9c9c;stroke:#263238;stroke-linecap:round;stroke-linejoin:round"></path><path d="M323.28,264.75l-31-26.75a21.13,21.13,0,0,1-1,4.34l28.83,24.5Z" style="fill:#9c9c9c;stroke:#263238;stroke-linecap:round;stroke-linejoin:round"></path><path d="M317.08,268.11a3.18,3.18,0,0,1,2.81-3.4c8.79-1,33.65-3.91,33.91-2.85.33,1.29,3.22,41.77,2.25,42.73s-31.32,4-33.41,3.7a3.44,3.44,0,0,1-2.73-2.9C319.78,304.86,317.76,277.41,317.08,268.11Z" style="fill:#9c9c9c;stroke:#263238;stroke-linecap:round;stroke-linejoin:round"></path><path d="M354.91,288.26,353.36,275a.8.8,0,0,0-.85-.7l-3.65.31-1-9.87a2.15,2.15,0,1,0-4.27.54l1.52,9.91-3.9.46a.79.79,0,0,0-.7.88l1.54,13.22a.81.81,0,0,0,.89.7l11.24-1.31A.8.8,0,0,0,354.91,288.26Zm-9.8-22.86a.81.81,0,0,1,1.61-.19.81.81,0,0,1-1.61.19Z" style="fill:#fff;stroke:#263238;stroke-linecap:round;stroke-linejoin:round;stroke-width:0.5px"></path><rect x="341.65" y="277.72" width="12.1" height="10.26" rx="0.87" transform="translate(588.3 -95.32) rotate(83.34)" style="fill:#263238;stroke:#263238;stroke-linecap:round;stroke-linejoin:round;stroke-width:0.5px"></rect><path d="M336.87,294.63l4.22-1.16-.1-1.15-4.34.38-.12-1.38,4.34-.38-.11-1.35-4.35.38-.12-1.38,4.35-.38-.12-1.35-4.35.38-.12-1.38,4.36-.38-.12-1.35-4.36.38-.12-1.38,4.36-.38-.11-1.35-4.37.38-.12-1.38,4.37-.38-.11-1.35-4.38.38-.12-1.38,4.38-.38-.11-1.35-4.39.38-.12-1.38,4.39-.38-.12-1.35-4.39.38-.12-1.38,4.4-.38-.12-1.35-4.4.38-.12-1.38,4.41-.38-.12-1.32-5,.17c-.49,0-.91.55-1.11,1.44a6,6,0,0,0-.11,1.87l1.7,19.38a7.17,7.17,0,0,0,.87,3C335.76,294.42,336.33,294.78,336.87,294.63Z" style="fill:#92E3A9;stroke:#263238;stroke-linecap:round;stroke-linejoin:round;stroke-width:0.5px"></path><path d="M327.49,278.8a8.61,8.61,0,0,1-3.34-5.4c-.74-3.73-1-6.67-1-6.67l.12-1.13a3.43,3.43,0,0,0,.47-.84,5.51,5.51,0,0,0-1.92-6.48,3.75,3.75,0,0,0-2.8-.66l-1.4-3-.83.38,1.36,2.88c-1.82.86-2.71,3.24-2,5.59a4.65,4.65,0,0,0,4.7,3.6l.09,0c.52,1.36,2.83,7.56,3.21,10.65.42,3.49,3.46,23.85,3.87,24.93s1.08,2.48,1.07,1.78-.54-13.73-.56-16.84A73.32,73.32,0,0,0,327.49,278.8Zm-6.38-12.7c-1.66.49-3.51-.79-4.13-2.86s.24-4.16,1.89-4.66a2.07,2.07,0,0,1,.42-.08,2.94,2.94,0,0,1,2,.53,4.62,4.62,0,0,1,1.6,5.38A2.85,2.85,0,0,1,321.11,266.1Z" style="fill:#fff;stroke:#263238;stroke-linecap:round;stroke-linejoin:round;stroke-width:0.5px"></path><path d="M329.64,256.68c-2.23-.11-4.14,2-4.26,4.63a5.35,5.35,0,0,0,1,3.44,4.17,4.17,0,0,0,1.06,1,33.34,33.34,0,0,1-.38,6.52c-.52,2.12-1.15,5.66-1.15,5.66l1.4,1.6a41.06,41.06,0,0,1,1.5-9.74c.8-2.27,1.11-3.17,1.23-3.53a3.79,3.79,0,0,0,2.11-1.24,5.33,5.33,0,0,0,1.32-3.33C333.58,259,331.87,256.78,329.64,256.68Zm2.91,5a4.47,4.47,0,0,1-1.08,2.76,2.7,2.7,0,0,1-4.37-.21,4.37,4.37,0,0,1-.82-2.84,3.76,3.76,0,0,1,2.9-3.76,2.88,2.88,0,0,1,.42,0C331.33,257.67,332.65,259.49,332.55,261.65Z" style="fill:#fff;stroke:#263238;stroke-linecap:round;stroke-linejoin:round;stroke-width:0.5px"></path><path d="M327.77,284a1,1,0,1,1-1.89.23,1,1,0,0,1,1.89-.23Z" style="fill:#fff;stroke:#263238;stroke-linecap:round;stroke-linejoin:round"></path><polyline points="327.98 286.31 326.58 286.48 328.54 302.58" style="fill:#fff;stroke:#263238;stroke-linecap:round;stroke-linejoin:round"></polyline><path d="M355.09,278.36c.78,11.8,1.52,25.67,1,26.23-1,1-31.32,4-33.41,3.7a3.44,3.44,0,0,1-2.73-2.9c-.09-.34-1-12.08-1.77-22.81C332.64,281.33,348.65,279.24,355.09,278.36Z" style="fill:#9c9c9c;stroke:#263238;stroke-linecap:round;stroke-linejoin:round"></path><path d="M275.88,145.85s-11,20.38-11,20.78.45,1.22-.08,1.17-6.72-5.17-7.18-5.62,0-1.15.75-1,1.72.26,1.72.26l4.21-7.1,3.9-13.37Z" style="fill:#263238;stroke:#263238;stroke-linecap:round;stroke-linejoin:round"></path><path d="M244.17,128.7l-3.63-1.21,2.68-8,3.62,1.21a73.5,73.5,0,0,0,26.21,3.37,23,23,0,0,1,8.11,1.22c8.54,2.85,13.93,9.72,12,15.35s-10.32,7.88-18.86,5a23,23,0,0,1-7.21-3.91A73.74,73.74,0,0,0,244.17,128.7Z" style="fill:#263238;stroke:#263238;stroke-linecap:round;stroke-linejoin:round"></path><polygon points="235.37 126.76 238.62 117.02 243.22 119.49 240.53 127.54 235.37 126.76" style="fill:none;stroke:#263238;stroke-linecap:round;stroke-linejoin:round"></polygon><path d="M345.43,146.82s9.27,2,12.73,8-1.09,19.45-1.09,19.45l-20.18-7.63,3.45-9.46" style="fill:#92E3A9;stroke:#263238;stroke-linecap:round;stroke-linejoin:round"></path><path d="M357.07,174.27s-6,15.09-11.09,24.36-9.82,19.45-12.55,19.45S302,198.81,296,193.72s-20.73-21.26-20.73-21.26-6.91-4.73-7.09-5.46-2.91-7.27-2.91-7.27l-2.88-1.89a2.78,2.78,0,0,1-.81-3.82c.77-1.19,1.6-2.47,1.87-2.83.55-.73.55-2.73.73-3.82s2.73-1.64,5.46-1.27,6.9,3.81,7.45,5.27,2.18,11.81,2.18,11.81c1.27,2.91,12.72,10.81,24,16,9,4.15,23.27,12,23.27,12l10.36-24.54Z" style="fill:#fff;stroke:#263238;stroke-linecap:round;stroke-linejoin:round"></path><path d="M264.19,150.15s3.42-1.14,4.22-1a45,45,0,0,1,5.12,2.39" style="fill:none;stroke:#263238;stroke-linecap:round;stroke-linejoin:round"></path><path d="M262.83,152.66a35.08,35.08,0,0,1,4.32.22,40.86,40.86,0,0,1,4.9,2.85" style="fill:none;stroke:#263238;stroke-linecap:round;stroke-linejoin:round"></path><path d="M261.35,155.73a6.18,6.18,0,0,1,2-.8c.68,0,4.44,2.62,4.44,2.62" style="fill:none;stroke:#263238;stroke-linecap:round;stroke-linejoin:round"></path></g><g id="character-1"><path d="M172.09,110.56l29.29,19.21s-.19,19.4.57,23a34.88,34.88,0,0,0,1.14,4.57s-19.21,1.71-20.73-.95-5.7-14.46-7.42-25.3S172.09,110.56,172.09,110.56Z" style="fill:#fff;stroke:#263238;stroke-linecap:round;stroke-linejoin:round"></path><path d="M232.8,183s12.2,29.69,12.75,33.7-21.5,5.83-22.59,4.92-3.46-17.67-3.46-17.67,2.55-27.88,4.92-28.06S232.8,183,232.8,183Z" style="fill:#fff;stroke:#263238;stroke-linecap:round;stroke-linejoin:round"></path><path d="M232.8,183s-6-7.29-8.38-7.11-4.92,28.06-4.92,28.06l.21,1.48c4.1-3.08,11.93-8.54,18-10.26C235.08,188.52,232.8,183,232.8,183Z" style="fill:#92E3A9;stroke:#263238;stroke-linecap:round;stroke-linejoin:round"></path><path d="M146.81,268.05s-.49,27.77,0,49.14.49,29-1.72,36.12-8.6,12.29-10.57,26.54-4.91,36.61-6.39,41.28-8.1,10.81-13,21.62-2.7,15.48,1.48,14.5,11-6.14,13-10.81,4.67-15.24,7.62-19.17,5.16-9.58,7.86-16.46,15.72-22.12,18.43-35.63,4.42-22.85,4.42-22.85l19.66-37.84s5.16,16.71,4.17,28S186.86,358,188.09,369,195,417,194.23,422.11s-3.19,10.32-2.46,13.27,4.67,3.93,8.6,2.95,11.31,1,16.47,1.47,17.69-.24,16.46-2.21-10.08-2.21-15.24-8.35-8.6-9.83-9.82-12.29a10.34,10.34,0,0,1-1.23-4.18l7.86-58.47s3.44-3.94,3.93-8.11.74-8.85.74-8.85,9.83-17.44,9.83-44-1.48-32.19-1.48-32.19l-79.12.49Z" style="fill:#263238;stroke:#263238;stroke-linecap:round;stroke-linejoin:round"></path><path d="M116.59,457.25c4.17-1,11-6.14,13-10.81s4.67-15.24,7.62-19.17c2.22-3,4-6.91,5.94-11.62a13.72,13.72,0,0,1-13-5.09,98.14,98.14,0,0,1-2,10.57c-1.47,4.67-8.1,10.81-13,21.62S112.41,458.23,116.59,457.25Z" style="fill:#fff;stroke:#263238;stroke-linecap:round;stroke-linejoin:round"></path><path d="M200.37,438.33c3.93-1,11.31,1,16.47,1.47s17.69-.24,16.46-2.21-10.08-2.21-15.24-8.35-8.6-9.83-9.82-12.29a10.34,10.34,0,0,1-1.23-4.18l.15-1.13c-4.84,1.46-10.35.28-13.65-.74.6,5.48.94,9.7.72,11.21-.74,5.16-3.19,10.32-2.46,13.27S196.44,439.31,200.37,438.33Z" style="fill:#fff;stroke:#263238;stroke-linecap:round;stroke-linejoin:round"></path><path d="M233.3,437.59c-.93-1.48-6.2-2-10.94-4.79-2.09,1.28-5.61,1.28-11.18-1.35-6.08-2.88-13.68-4.47-17.83-5.19-1,3.65-2.11,7-1.58,9.12.74,2.95,4.67,3.93,8.6,2.95s11.31,1,16.47,1.47S234.53,439.56,233.3,437.59Z" style="fill:#92E3A9;stroke:#263238;stroke-linecap:round;stroke-linejoin:round"></path><path d="M129.61,446.44c.49-1.16,1-2.69,1.59-4.39-2,2-5,3.81-8.72,3.16-4.4-.76-5.61-3.49-5.89-5.46-.51,1-1,1.95-1.48,3-4.91,10.81-2.7,15.48,1.48,14.5S127.64,451.11,129.61,446.44Z" style="fill:#92E3A9;stroke:#263238;stroke-linecap:round;stroke-linejoin:round"></path><path d="M158.4,148.41s-5.9,5.33-6.47,11.6,9.7,61.82,9.7,63.53-5.9,14.84-11.22,26.06-7,20.16-5.9,21.11,36.52,4.94,50.59,4.56,31.58-8.36,33.67-10.08a7.63,7.63,0,0,0,2.47-6.84c-.38-2.1-4.75-11.23-4.94-11.8s-1.52-4.75-2.09-6.46-1.72-19.21.19-33.1,2.85-22.06,2.85-22.06-18.45-28-19.59-30.81a12.21,12.21,0,0,0-2.09-3.81s-12.94,5.14-20.55,2.28-21.11-8.74-21.11-8.74Z" style="fill:#92E3A9;stroke:#263238;stroke-linecap:round;stroke-linejoin:round"></path><path d="M212.54,204.87c-9,4.34-24.32,11.71-25,12.15" style="fill:none;stroke:#263238;stroke-linecap:round;stroke-linejoin:round"></path><path d="M219.07,201.73l-3.77,1.81" style="fill:none;stroke:#263238;stroke-linecap:round;stroke-linejoin:round"></path><path d="M200.35,215.77s-10,3.43-13.73,4.37" style="fill:none;stroke:#263238;stroke-linecap:round;stroke-linejoin:round"></path><path d="M185.93,244.31a26.06,26.06,0,0,0,7.56,2.35" style="fill:none;stroke:#263238;stroke-linecap:round;stroke-linejoin:round"></path><path d="M172.27,236.67s4.53,3,9.76,5.74" style="fill:none;stroke:#263238;stroke-linecap:round;stroke-linejoin:round"></path><line x1="165.41" y1="236.36" x2="173.83" y2="241.66" style="fill:none;stroke:#263238;stroke-linecap:round;stroke-linejoin:round"></line><path d="M233.15,210.82s-16.81,9-23.85,11.68-21,2.24-21,2.24-7.85-5.6-12-8.64-7-3.36-7-3.36L168,229.54l9,4.17c4.49,2.08,12.33,2.56,15.69,2.24s30.57-.16,40.66-4.48,13.28-6.73,13.28-9.77-5.6-14.08-5.6-14.08" style="fill:#fff;stroke:#263238;stroke-linecap:round;stroke-linejoin:round"></path><path d="M154.78,151.64s-5.32,3.43-5.32,12.56,2.28,38.42,2.28,38.42,13.31,14.26,15.22,17.31,5.13,5.13,5.13.57-.19-46.6-.19-46.6" style="fill:#92E3A9;stroke:#263238;stroke-linecap:round;stroke-linejoin:round"></path><path d="M150.45,184.67c.62,9.34,1.29,18,1.29,18s13.31,14.26,15.22,17.31,5.13,5.13,5.13.57c0-2.37-.05-14.81-.1-26.25C165.29,183.87,155.73,183.75,150.45,184.67Z" style="fill:#fff;stroke:#263238;stroke-linecap:round;stroke-linejoin:round"></path><path d="M196.44,75.25S192.31,69,184.9,71,161.4,86.22,160,92.63s-9,50.84-8,56,10.54,13.53,17.66,16.1,8.69,6.55,8.12,8.26-2,2.7,1.85,2.7,6.55-5.12,6.7-12.82-4-16.66-6.13-21.5-4.27-22.22-4.27-22.22l6.84-28.34,14.52-4.85.15,45.87s-1,29.34,7.26,37,15.24,8.54,15.24,12.39-3.56,6.26-3.56,6.26,1.56,4,10,2,13.1-17.09,10.11-26.07-11.54-13.24-14.39-18.23-9.4-16.66-10.25-23.92-4-24.22-2.71-25.93,6.41-.85,4.85-8.4S201.57,70.12,196.44,75.25Z" style="fill:#263238;stroke:#263238;stroke-linecap:round;stroke-linejoin:round"></path><path d="M195.44,82.23s3.56.57,11.82,7.69c3.54,3,3.56,5.7,3.56,10.26s2.28,12.67,1.29,18.51-5.27,12.68-7.55,14.24-6.56,1-8.69.43-13.25-6.41-16.38-9.54-3.56-4.7-3.56-4.7,4.24-22,4.67-24.53-1.85-3.42,5.27-6.41S195.44,82.23,195.44,82.23Z" style="fill:#fff;stroke:#263238;stroke-linecap:round;stroke-linejoin:round"></path><path d="M205,100.18s-1.28,4,.15,6.83" style="fill:none;stroke:#263238;stroke-linecap:round;stroke-linejoin:round"></path><path d="M206.69,114.13a3.41,3.41,0,0,1-3,2.71" style="fill:none;stroke:#263238;stroke-linecap:round;stroke-linejoin:round"></path><path d="M205,121.4a9.13,9.13,0,0,1-8.54-2.71" style="fill:none;stroke:#263238;stroke-linecap:round;stroke-linejoin:round"></path><path d="M193.73,105.66c0,1.22-.57,2.21-1.28,2.21s-1.28-1-1.28-2.21.57-2.21,1.28-2.21S193.73,104.44,193.73,105.66Z" style="fill:#263238"></path><ellipse cx="206.84" cy="104.59" rx="1.28" ry="2.21" style="fill:#263238"></ellipse><path d="M188.6,101.32s2.28-3.56,8-2.14" style="fill:none;stroke:#263238;stroke-linecap:round;stroke-linejoin:round"></path><path d="M205.7,98.61s2.84-2,4.55.14" style="fill:none;stroke:#263238;stroke-linecap:round;stroke-linejoin:round"></path><path d="M175.64,103.59s-1.56-3.84-3.7-2.42-1.85,4.13-.85,6.84a12.2,12.2,0,0,0,3.56,4.7Z" style="fill:#fff;stroke:#263238;stroke-linecap:round;stroke-linejoin:round"></path><path d="M171.33,215.17l-4.56-6.09a40.41,40.41,0,0,0-3.35-3.93c-3-3.14-9.4-10-11.68-14.71-3-6.27-6.36-20.69-6.67-22.38s3.55-9.86,3.7-10.79-1.08-2.92-1.08-4.77,2.31-2.77,2.31-4.62-3.23-1.54-4.62,1.08-1.39,6.93-1.69,7.39-4.32-7.55-5.09-9.86-3.85-8.32-4-10.78-1.85-4.32-2.78-1.85a11.41,11.41,0,0,0,.16,7.24,13.18,13.18,0,0,1,.48,4.12c-.54-.45-3.08-1.08-4.47,0,0,0-.23,2-.25,3.07l-1,.51s-2.56-5-4.1-4.19-3.23,2.3-3.23,3.22S121.5,153,121.5,153s-3.39,2.31-2.46,4.62,7.7,9.4,10.94,12,4.56,9.51,4.56,9.51S143.8,216.88,152,224.3s15.08,10.9,18.51,5.19S171.33,215.17,171.33,215.17Z" style="fill:#fff;stroke:#263238;stroke-linecap:round;stroke-linejoin:round"></path><path d="M143,157.2s-6,3.24-6.21,5.42a6.11,6.11,0,0,0,1,3.76" style="fill:none;stroke:#263238;stroke-linecap:round;stroke-linejoin:round"></path><path d="M121.45,147.69a15.54,15.54,0,0,0,2.88,3.18c1.47,1.08,2.89,1.26,3.26-.69s-1-3.25-2.38-5.42-3.39-1.63-4.31-.11a24.6,24.6,0,0,0-1.47,2.82" style="fill:#fff;stroke:#263238;stroke-linecap:round;stroke-linejoin:round"></path><path d="M120.38,151.34s-2.71,2.54-2.53,3.94,5.07,4.54,6.47,4.19,1.31-3.06.35-4.37A29.52,29.52,0,0,0,120.38,151.34Z" style="fill:#fff;stroke:#263238;stroke-linecap:round;stroke-linejoin:round"></path><polygon points="149.42 135.58 164.72 133.02 146.26 139.35 144.84 138.99 134.14 142.32 133.58 141.52 145.33 136.63 149.42 135.58" style="fill:#fff;stroke:#263238;stroke-linecap:round;stroke-linejoin:round"></polygon><polyline points="145.4 146.28 145.39 145.79 145.33 136.63 156.1 121.61 148.8 136.39 146.85 139.52 146.91 146.72 145.02 146.9" style="fill:#fff;stroke:#263238;stroke-linecap:round;stroke-linejoin:round"></polyline><path d="M147.08,137.24a.47.47,0,1,0-.47.47A.47.47,0,0,0,147.08,137.24Z" style="fill:#263238"></path><path d="M130.77,149.72a4.77,4.77,0,1,1,4.76-4.77A4.78,4.78,0,0,1,130.77,149.72Zm0-7.73a3,3,0,1,0,3,3A3,3,0,0,0,130.77,142Z" style="fill:#fff;stroke:#263238;stroke-linecap:round;stroke-linejoin:round"></path><path d="M130.09,142.6s-2.54,1.66-2.1,2.62a18.55,18.55,0,0,0,3.41,4.72c1.14.88,2.54-.26,2.8-1.31s-1.75-4.37-2.19-5.25S130.09,142.6,130.09,142.6Z" style="fill:#fff;stroke:#263238;stroke-linecap:round;stroke-linejoin:round"></path><path d="M150.24,147.76c-.34.48-.47,1.32-.85,1.84a2.24,2.24,0,0,1,.46,1.4,3.07,3.07,0,1,1-3.8-3,4,4,0,0,1,1.79-1.29,1.6,1.6,0,0,0-1.05-.61,4.87,4.87,0,1,0,0,9.73,4.77,4.77,0,0,0,4.86-4.87A4.59,4.59,0,0,0,150.24,147.76Z" style="fill:#fff;stroke:#263238;stroke-linecap:round;stroke-linejoin:round"></path><path d="M153.92,240.89l4.19,31.52H163l-6.2-35.89A11.78,11.78,0,0,0,153.92,240.89Z" style="fill:#9c9c9c;stroke:#263238;stroke-linecap:round;stroke-linejoin:round"></path><path d="M188.53,273.14l36.61-31.52a25,25,0,0,0,1.16,4.93l-34.13,29Z" style="fill:#9c9c9c;stroke:#263238;stroke-linecap:round;stroke-linejoin:round"></path><path d="M195.56,277a3.61,3.61,0,0,0-3.18-3.86c-10-1.19-38.16-4.43-38.46-3.23-.37,1.46-3.64,47.36-2.55,48.45s35.52,4.56,37.89,4.19a3.91,3.91,0,0,0,3.1-3.27C192.51,318.62,194.79,287.49,195.56,277Z" style="fill:#9c9c9c;stroke:#263238;stroke-linecap:round;stroke-linejoin:round"></path><path d="M180.69,303l1.21-13.28a.79.79,0,0,0-.7-.86l-3.63-.46,1.08-9.85a2.16,2.16,0,1,0-4.3-.35l-.54,10-3.91-.35a.8.8,0,0,0-.87.72l-1.2,13.26a.79.79,0,0,0,.72.86l11.28,1A.79.79,0,0,0,180.69,303Zm-4.9-24.39a.82.82,0,0,1,.88-.74.82.82,0,0,1,.74.89.81.81,0,0,1-1.62-.15Z" style="fill:#fff;stroke:#263238;stroke-linecap:round;stroke-linejoin:round;stroke-width:0.5px"></path><rect x="168.7" y="291.06" width="12.1" height="10.26" rx="0.87" transform="translate(485.51 148.91) rotate(95.18)" style="fill:#263238;stroke:#263238;stroke-linecap:round;stroke-linejoin:round;stroke-width:0.5px"></rect><path d="M183.66,306.25,188,306l.14-1.14-4.32-.52.16-1.38,4.33.52.17-1.34-4.34-.52.17-1.38,4.34.52.16-1.34-4.34-.52.17-1.38L189,298l.17-1.34-4.35-.52.16-1.38,4.35.53.17-1.35-4.36-.52.17-1.38,4.36.53.16-1.35-4.36-.52.16-1.38,4.37.53.17-1.35-4.38-.52.17-1.38,4.37.53.17-1.35-4.38-.52.17-1.38,4.38.53.16-1.35-4.38-.52.16-1.38,4.39.53.16-1.31-4.89-.86c-.48-.09-1,.36-1.38,1.18a5.87,5.87,0,0,0-.5,1.81l-2.31,19.32a7.21,7.21,0,0,0,.24,3.11C182.62,305.81,183.1,306.28,183.66,306.25Z" style="fill:#92E3A9;stroke:#263238;stroke-linecap:round;stroke-linejoin:round;stroke-width:0.5px"></path><path d="M165.43,286.51a8.61,8.61,0,0,1-2.17-6c.05-3.8.37-6.74.37-6.74l.36-1.08a4.39,4.39,0,0,0,.63-.72,5.53,5.53,0,0,0-.55-6.75,3.79,3.79,0,0,0-2.6-1.21l-.77-3.21-.88.21.73,3.09c-2,.47-3.32,2.62-3.12,5.06a4.66,4.66,0,0,0,3.86,4.49h.1c.22,1.43,1.21,8,1,11.08-.3,3.5-1.51,24-1.33,25.19s.55,2.65.68,2,2.29-13.55,2.91-16.6A75.55,75.55,0,0,0,165.43,286.51Zm-3.64-13.73c-1.73.14-3.27-1.5-3.45-3.65s1.08-4,2.8-4.17h.43a2.93,2.93,0,0,1,1.85.94,4.62,4.62,0,0,1,.45,5.59A2.85,2.85,0,0,1,161.79,272.78Z" style="fill:#fff;stroke:#263238;stroke-linecap:round;stroke-linejoin:round;stroke-width:0.5px"></path><path d="M172.07,265.31c-2.15-.56-4.46,1.08-5.12,3.66a5.27,5.27,0,0,0,.27,3.56,4,4,0,0,0,.82,1.2,33.37,33.37,0,0,1-1.7,6.31c-1,2-2.29,5.3-2.29,5.3l1,1.85s1.41-5.8,3.47-9.22c1.24-2.06,1.73-2.88,1.93-3.2a3.83,3.83,0,0,0,2.32-.79,5.32,5.32,0,0,0,2-3C175.45,268.42,174.23,265.87,172.07,265.31Zm1.83,5.46a4.45,4.45,0,0,1-1.63,2.48,2.7,2.7,0,0,1-4.23-1.1,4.41,4.41,0,0,1-.21-2.95,3.72,3.72,0,0,1,3.6-3.08,2,2,0,0,1,.42.07C173.52,266.62,174.44,268.68,173.9,270.77Z" style="fill:#fff;stroke:#263238;stroke-linecap:round;stroke-linejoin:round;stroke-width:0.5px"></path><path d="M164.64,291.63a1,1,0,0,1-1,.86.95.95,0,0,1,.16-1.89A1,1,0,0,1,164.64,291.63Z" style="fill:#fff;stroke:#263238;stroke-linecap:round;stroke-linejoin:round"></path><polyline points="164.36 293.96 162.97 293.84 161.57 310.01" style="fill:#fff;stroke:#263238;stroke-linecap:round;stroke-linejoin:round"></polyline><path d="M152.46,288.57c-.89,13.38-1.73,29.11-1.09,29.74,1.09,1.1,35.52,4.56,37.89,4.19a3.91,3.91,0,0,0,3.1-3.27c.09-.4,1.1-13.71,2-25.87C177.91,291.94,159.76,289.56,152.46,288.57Z" style="fill:#9c9c9c;stroke:#263238;stroke-linecap:round;stroke-linejoin:round"></path></g></svg>
