<svg xmlns="http://www.w3.org/2000/svg" viewBox="0 0 500 500"><g id="background-simple"><path d="M446.74,113.18A184,184,0,0,0,394.5,63.75C324.55,20.47,229.58,30.46,166,81c-39,31-83,27-117,61S17,231,32,265c11.72,26.57,37.11,35.77,63.62,41.39,30.06,6.37,54.14,13.2,79.4,31.44,29.24,21.11,59.17,42.54,93.61,54.2,34.06,11.53,65.77,10.58,93.25-13.78C384.7,358,400.44,330.21,426,313,498.5,264.2,491.52,175.79,446.74,113.18Z" style="fill:#92E3A9"></path><path d="M446.74,113.18A184,184,0,0,0,394.5,63.75C324.55,20.47,229.58,30.46,166,81c-39,31-83,27-117,61S17,231,32,265c11.72,26.57,37.11,35.77,63.62,41.39,30.06,6.37,54.14,13.2,79.4,31.44,29.24,21.11,59.17,42.54,93.61,54.2,34.06,11.53,65.77,10.58,93.25-13.78C384.7,358,400.44,330.21,426,313,498.5,264.2,491.52,175.79,446.74,113.18Z" style="fill:#fff;opacity:0.7000000000000001"></path></g><g id="Plants"><path d="M35.81,374.11c2.53,1.11,8.7,1,8.7,1s-1.32-4-1.44-4.29c-1.35-2.83-5.64-7.5-9.12-7A4.16,4.16,0,0,0,30.61,369C31.19,371.38,33.67,373.18,35.81,374.11Z" style="fill:#92E3A9"></path><path d="M37.94,392c2.62.38,8.13-1.22,8.56-1.35a74.9,74.9,0,0,0,3.34,9.24c.76,1.76,1.58,3.5,2.42,5.23-.5-.73-1-1.39-1-1.47-2-2.37-7.42-5.75-10.65-4.38a4.16,4.16,0,0,0-1.85,5.91c1.2,2.17,4.06,3.25,6.38,3.59s7.08-.93,8.32-1.28c.33.67.65,1.33,1,2,1.59,3.18,3.19,6.34,4.67,9.49.53,1.11,1,2.22,1.48,3.33-.45-.65-.83-1.2-.9-1.28-2.05-2.37-7.42-5.75-10.65-4.38a4.15,4.15,0,0,0-1.84,5.91c1.19,2.18,4,3.25,6.37,3.59s6.62-.8,8.1-1.21c.45,1.15.91,2.3,1.3,3.44.25.78.54,1.52.74,2.32l.66,2.34c.36,1.5.74,3,1.05,4.52.23,1,.43,2,.63,3-.51-1.11-1.55-3.27-1.65-3.44-1.67-2.65-6.46-6.81-9.87-5.94a4.17,4.17,0,0,0-2.72,5.56c.86,2.33,3.52,3.83,5.76,4.52,2.47.75,7.94.06,8.62,0,.33,1.63.63,3.22.89,4.73.59,3.32,1,6.3,1.36,8.83h2.31c-.4-2.61-.93-5.72-1.62-9.21-.33-1.66-.71-3.43-1.12-5.24a43.82,43.82,0,0,0,4.81-2.26c1.8,1.95,6.41,4.23,7,4.52-.62,1.54-1.25,3-1.86,4.44-1.28,2.93-2.49,5.53-3.56,7.75h2.5c.91-2,1.92-4.37,3-6.94.64-1.57,1.3-3.25,2-5,.66.14,6.07,1.24,8.59.67,2.28-.51,5-1.81,6.08-4.07a4.17,4.17,0,0,0-2.3-5.75c-3.33-1.12-8.42,2.67-10.28,5.19-.11.15-1.12,1.9-1.74,3,.26-.71.53-1.4.79-2.14.54-1.44,1-2.91,1.55-4.48.23-.77.46-1.54.7-2.32s.41-1.62.63-2.44c.45-1.9.81-3.85,1.14-5.82,1.27.46,5.81,2,8.15,1.87s5.28-1,6.63-3.1a4.16,4.16,0,0,0-1.4-6c-3.12-1.61-8.72,1.36-11,3.57-.14.14-1.55,1.91-2.31,2.89.18-1.19.38-2.37.53-3.58.43-3.48.76-7,1.1-10.55.11-1.09.22-2.16.34-3.24.45.17,5.8,2.16,8.43,2,2.34-.17,5.27-1,6.62-3.11a4.16,4.16,0,0,0-1.39-6c-3.13-1.61-8.73,1.36-11,3.58-.17.16-2.21,2.71-2.69,3.38.25-2.37.52-4.73.88-7.05A73.48,73.48,0,0,1,92,390c.21.08,5.78,2.19,8.48,2,2.34-.17,5.27-1,6.62-3.11a4.16,4.16,0,0,0-1.39-6c-3.13-1.61-8.73,1.36-10.95,3.58-.18.17-2.37,2.91-2.73,3.44,0-.18.09-.37.14-.54a54.16,54.16,0,0,1,3.68-8.79c.8-1.56,1.65-3,2.51-4.4,1,.5,5.59,2.72,8,2.82s5.35-.44,6.93-2.36a4.15,4.15,0,0,0-.73-6.14c-2.93-1.95-8.82.39-11.28,2.34-.13.11-1.37,1.34-2.25,2.25.39-.62.79-1.27,1.18-1.86,1.48-2.21,3-4.15,4.29-5.85.76-1,1.47-1.82,2.14-2.62,1.23,0,6.21-.17,8.38-1.19s4.55-2.86,5.06-5.28a4.17,4.17,0,0,0-3.48-5.13c-3.49-.37-7.64,4.42-8.92,7.28-.11.25-1.39,4.33-1.33,4.33h.08c-.66.76-1.36,1.57-2.11,2.47-1.37,1.68-2.9,3.59-4.42,5.78a76.15,76.15,0,0,0-4.59,7.3,54.58,54.58,0,0,0-3.91,8.82l0,.11c0-1,0-3.91-.06-4.13-.4-3.11-3-8.89-6.47-9.53a4.16,4.16,0,0,0-4.8,3.91c-.2,2.47,1.6,4.95,3.34,6.51,2,1.76,7.45,3.47,7.89,3.6A74,74,0,0,0,89,399.1c-.33,1.88-.61,3.79-.87,5.7,0-.89,0-1.69,0-1.8-.41-3.11-3-8.89-6.47-9.53a4.16,4.16,0,0,0-4.8,3.91c-.2,2.48,1.59,4.95,3.34,6.51s6.41,3.14,7.64,3.53c-.09.74-.19,1.47-.27,2.2-.43,3.53-.83,7.05-1.34,10.49-.17,1.22-.39,2.41-.61,3.6,0-.79,0-1.46,0-1.56-.4-3.12-3-8.89-6.47-9.53a4.15,4.15,0,0,0-4.79,3.91c-.21,2.47,1.59,5,3.34,6.51s6,3,7.42,3.45c-.26,1.22-.51,2.43-.82,3.59-.22.79-.38,1.57-.65,2.35l-.75,2.31c-.53,1.45-1.06,2.95-1.61,4.35-.38,1-.76,1.91-1.13,2.84.19-1.2.51-3.57.52-3.77a16.28,16.28,0,0,0-2.17-7.86,4.69,4.69,0,0,0-.06-.92,4.16,4.16,0,0,0-5.08-3.53c-3.4.9-5.55,6.87-5.72,10,0,.19.12,2.2.21,3.48-.17-.74-.33-1.46-.51-2.22-.36-1.5-.76-3-1.18-4.6-.23-.76-.47-1.54-.7-2.32s-.55-1.58-.82-2.37c-.68-1.84-1.45-3.67-2.26-5.5,1.31-.31,6-1.5,7.83-2.93s3.84-3.76,3.82-6.24a4.16,4.16,0,0,0-4.49-4.26c-3.5.38-6.53,5.94-7.17,9,0,.19-.24,2.45-.33,3.69-.5-1.09-1-2.19-1.54-3.28-1.56-3.14-3.24-6.28-4.9-9.41-.51-1-1-1.93-1.5-2.89.47-.11,6-1.4,8.12-3,1.86-1.43,3.83-3.76,3.81-6.24a4.15,4.15,0,0,0-4.49-4.26c-3.49.38-6.53,5.94-7.16,9,0,.23-.34,3.48-.37,4.31-1.11-2.12-2.18-4.24-3.16-6.38a72.13,72.13,0,0,1-3.43-8.86c.22-.05,6-1.37,8.17-3,1.86-1.43,3.83-3.76,3.82-6.25a4.16,4.16,0,0,0-4.5-4.25c-3.49.38-6.52,5.94-7.16,9,0,.24-.36,3.73-.37,4.37-.06-.18-.13-.35-.18-.53a53.12,53.12,0,0,1-1.78-9.35c-.2-1.75-.29-3.43-.34-5.06,1.11-.14,6.16-.81,8.25-2.08s4.23-3.32,4.48-5.79a4.15,4.15,0,0,0-4-4.72c-3.52,0-7.15,5.19-8.11,8.18-.06.16-.41,1.87-.65,3.12,0-.74,0-1.5,0-2.21,0-2.66.17-5.09.34-7.25.1-1.22.22-2.33.34-3.36,1-.7,5.08-3.57,6.34-5.62s2.21-4.89,1.3-7.2a4.15,4.15,0,0,0-5.72-2.35c-3.13,1.62-3.95,7.9-3.43,11,0,.26,1.22,4.37,1.28,4.33l.06,0c-.14,1-.27,2.06-.4,3.22-.21,2.16-.44,4.59-.5,7.26a72.73,72.73,0,0,0,.21,8.62,54.26,54.26,0,0,0,1.59,9.51s0,.08,0,.11c-.55-.87-2.18-3.24-2.33-3.41-2.05-2.38-7.41-5.76-10.65-4.38a4.16,4.16,0,0,0-1.84,5.91C32.76,390.57,35.62,391.65,37.94,392Z" style="fill:#92E3A9"></path><path d="M98.22,375.47s1.12-4.1,1.16-4.37c.43-3.11-.56-9.37-3.73-10.9A4.16,4.16,0,0,0,90,362.71c-.85,2.33.22,5.19,1.5,7.16C93,372.18,98.22,375.47,98.22,375.47Z" style="fill:#92E3A9"></path><path d="M395.81,374.11c2.53,1.11,8.7,1,8.7,1s-1.32-4-1.44-4.29c-1.35-2.83-5.64-7.5-9.12-7a4.16,4.16,0,0,0-3.34,5.21C391.19,371.38,393.67,373.18,395.81,374.11Z" style="fill:#92E3A9"></path><path d="M397.94,392c2.62.38,8.13-1.22,8.56-1.35a74.9,74.9,0,0,0,3.34,9.24c.76,1.76,1.58,3.5,2.42,5.23-.5-.73-1-1.39-1-1.47-2.05-2.37-7.42-5.75-10.65-4.38a4.16,4.16,0,0,0-1.85,5.91c1.2,2.17,4.06,3.25,6.38,3.59s7.08-.93,8.32-1.28c.33.67.65,1.33,1,2,1.59,3.18,3.19,6.34,4.67,9.49.53,1.11,1,2.22,1.48,3.33-.45-.65-.83-1.2-.9-1.28-2.05-2.37-7.42-5.75-10.65-4.38a4.15,4.15,0,0,0-1.84,5.91c1.19,2.18,4.05,3.25,6.37,3.59s6.62-.8,8.1-1.21c.45,1.15.91,2.3,1.3,3.44.25.78.54,1.52.74,2.32l.66,2.34c.36,1.5.74,3,1,4.52.23,1,.43,2,.63,3-.51-1.11-1.55-3.27-1.65-3.44-1.67-2.65-6.46-6.81-9.87-5.94a4.17,4.17,0,0,0-2.72,5.56c.86,2.33,3.52,3.83,5.76,4.52,2.47.75,7.94.06,8.62,0,.33,1.63.63,3.22.89,4.73.59,3.32,1,6.3,1.36,8.83h2.31c-.4-2.61-.93-5.72-1.62-9.21-.33-1.66-.71-3.43-1.12-5.24a43.82,43.82,0,0,0,4.81-2.26c1.8,1.95,6.41,4.23,7,4.52-.62,1.54-1.25,3-1.86,4.44-1.28,2.93-2.49,5.53-3.56,7.75h2.5c.91-2,1.92-4.37,3-6.94.64-1.57,1.3-3.25,2-5,.66.14,6.07,1.24,8.59.67,2.28-.51,5-1.81,6.08-4.07a4.17,4.17,0,0,0-2.3-5.75c-3.33-1.12-8.42,2.67-10.28,5.19-.11.15-1.12,1.9-1.74,3,.26-.71.53-1.4.79-2.14.54-1.44,1-2.91,1.55-4.48.23-.77.46-1.54.7-2.32s.41-1.62.63-2.44c.45-1.9.81-3.85,1.14-5.82,1.27.46,5.81,2,8.15,1.87s5.28-1,6.63-3.1a4.16,4.16,0,0,0-1.4-6c-3.12-1.61-8.72,1.36-10.95,3.57-.14.14-1.55,1.91-2.31,2.89.18-1.19.38-2.37.53-3.58.43-3.48.76-7,1.1-10.55.11-1.09.22-2.16.34-3.24.45.17,5.8,2.16,8.43,2,2.34-.17,5.27-1,6.62-3.11a4.16,4.16,0,0,0-1.39-6c-3.13-1.61-8.73,1.36-11,3.58-.17.16-2.21,2.71-2.69,3.38.25-2.37.52-4.73.88-7.05a73.48,73.48,0,0,1,2-9.29c.21.08,5.78,2.19,8.48,2,2.34-.17,5.27-1,6.62-3.11a4.16,4.16,0,0,0-1.39-6c-3.13-1.61-8.73,1.36-10.95,3.58-.18.17-2.37,2.91-2.73,3.44.05-.18.09-.37.14-.54a54.16,54.16,0,0,1,3.68-8.79c.8-1.56,1.65-3,2.51-4.4,1,.5,5.59,2.72,8,2.82s5.35-.44,6.93-2.36a4.15,4.15,0,0,0-.73-6.14c-2.93-1.95-8.82.39-11.28,2.34-.13.11-1.37,1.34-2.25,2.25.39-.62.79-1.27,1.18-1.86,1.48-2.21,3-4.15,4.29-5.85.76-1,1.47-1.82,2.14-2.62,1.23,0,6.21-.17,8.38-1.19s4.55-2.86,5.06-5.28a4.17,4.17,0,0,0-3.48-5.13c-3.49-.37-7.64,4.42-8.92,7.28-.11.25-1.39,4.33-1.33,4.33h.08c-.66.76-1.36,1.57-2.11,2.47-1.37,1.68-2.9,3.59-4.42,5.78a76.15,76.15,0,0,0-4.59,7.3,54.58,54.58,0,0,0-3.91,8.82l0,.11c0-1,0-3.91-.06-4.13-.4-3.11-3-8.89-6.47-9.53a4.16,4.16,0,0,0-4.8,3.91c-.2,2.47,1.6,4.95,3.34,6.51,2,1.76,7.45,3.47,7.89,3.6A74,74,0,0,0,449,399.1c-.33,1.88-.61,3.79-.87,5.7,0-.89,0-1.69,0-1.8-.41-3.11-3-8.89-6.47-9.53a4.16,4.16,0,0,0-4.8,3.91c-.2,2.48,1.59,4.95,3.34,6.51s6.41,3.14,7.64,3.53c-.09.74-.19,1.47-.27,2.2-.43,3.53-.83,7.05-1.34,10.49-.17,1.22-.39,2.41-.61,3.6,0-.79,0-1.46,0-1.56-.4-3.12-3-8.89-6.47-9.53a4.15,4.15,0,0,0-4.79,3.91c-.21,2.47,1.59,5,3.34,6.51s6,3,7.42,3.45c-.26,1.22-.51,2.43-.82,3.59-.22.79-.38,1.57-.65,2.35l-.75,2.31c-.53,1.45-1.06,2.95-1.61,4.35-.38,1-.76,1.91-1.13,2.84.19-1.2.51-3.57.52-3.77a16.28,16.28,0,0,0-2.17-7.86,4.69,4.69,0,0,0-.06-.92,4.16,4.16,0,0,0-5.08-3.53c-3.4.9-5.55,6.87-5.72,10,0,.19.12,2.2.21,3.48-.17-.74-.33-1.46-.51-2.22-.36-1.5-.76-3-1.18-4.6-.23-.76-.47-1.54-.7-2.32s-.55-1.58-.82-2.37c-.68-1.84-1.45-3.67-2.26-5.5,1.31-.31,6-1.5,7.83-2.93s3.84-3.76,3.82-6.24a4.16,4.16,0,0,0-4.49-4.26c-3.5.38-6.53,5.94-7.17,9,0,.19-.24,2.45-.33,3.69-.5-1.09-1-2.19-1.54-3.28-1.56-3.14-3.24-6.28-4.9-9.41-.51-1-1-1.93-1.5-2.89.47-.11,6-1.4,8.12-3,1.86-1.43,3.83-3.76,3.81-6.24a4.15,4.15,0,0,0-4.49-4.26c-3.49.38-6.53,5.94-7.16,9-.05.23-.34,3.48-.37,4.31-1.1-2.12-2.18-4.24-3.16-6.38a73.77,73.77,0,0,1-3.43-8.86c.22-.05,6-1.37,8.17-3,1.86-1.43,3.83-3.76,3.82-6.25a4.16,4.16,0,0,0-4.5-4.25c-3.49.38-6.52,5.94-7.16,9-.05.24-.36,3.73-.37,4.37-.06-.18-.13-.35-.18-.53a53.12,53.12,0,0,1-1.78-9.35c-.2-1.75-.29-3.43-.34-5.06,1.11-.14,6.16-.81,8.25-2.08s4.23-3.32,4.48-5.79a4.15,4.15,0,0,0-4-4.72c-3.52,0-7.15,5.19-8.11,8.18-.06.16-.41,1.87-.65,3.12,0-.74,0-1.5,0-2.21,0-2.66.17-5.09.34-7.25.1-1.22.22-2.33.34-3.36,1-.7,5.08-3.57,6.34-5.62s2.21-4.89,1.3-7.2a4.15,4.15,0,0,0-5.72-2.35c-3.13,1.62-4,7.9-3.43,11,0,.26,1.22,4.37,1.28,4.33l.06,0c-.14,1-.27,2.06-.4,3.22-.21,2.16-.44,4.59-.5,7.26a72.73,72.73,0,0,0,.21,8.62,54.26,54.26,0,0,0,1.59,9.51s0,.08,0,.11c-.55-.87-2.18-3.24-2.33-3.41-2.05-2.38-7.41-5.76-10.65-4.38a4.16,4.16,0,0,0-1.84,5.91C392.76,390.57,395.62,391.65,397.94,392Z" style="fill:#92E3A9"></path><path d="M458.22,375.47s1.12-4.1,1.16-4.37c.43-3.11-.56-9.37-3.73-10.9a4.16,4.16,0,0,0-5.65,2.51c-.85,2.33.22,5.19,1.5,7.16C453,372.18,458.22,375.47,458.22,375.47Z" style="fill:#92E3A9"></path><path d="M105.38,234.91c-.63-2.68-4.44-7.54-4.45-7.54s-2.43,3.48-2.56,3.72c-1.45,2.79-2.62,9-.16,11.52a4.15,4.15,0,0,0,6.17-.46C106,240.24,105.92,237.19,105.38,234.91Z" style="fill:#92E3A9"></path><path d="M118.4,222.48c-1.26-2.32-5.84-5.77-6.21-6a73.15,73.15,0,0,0,5.39-8.21c1-1.66,1.85-3.36,2.74-5.08-.29.85-.54,1.6-.56,1.71-.67,3.07-.16,9.39,2.88,11.15a4.17,4.17,0,0,0,5.84-2.07c1-2.26.16-5.19-1-7.25s-5-5.11-6-5.89c.33-.67.67-1.32,1-2,1.59-3.18,3.15-6.36,4.78-9.43.58-1.08,1.18-2.13,1.79-3.18-.26.75-.47,1.39-.49,1.49-.66,3.06-.15,9.38,2.89,11.15a4.16,4.16,0,0,0,5.83-2.07c1-2.26.17-5.2-.95-7.26s-4.61-4.81-5.83-5.75c.65-1,1.3-2.11,2-3.1.48-.67.89-1.35,1.41-2l1.48-1.92c1-1.19,2-2.43,3-3.56.68-.8,1.35-1.54,2-2.3-.58,1.08-1.68,3.2-1.75,3.39-1.13,2.93-1.58,9.25,1.16,11.45a4.15,4.15,0,0,0,6.08-1.16c1.35-2.08,1-5.11.16-7.31-.88-2.43-4.71-6.39-5.19-6.88,1.11-1.24,2.2-2.44,3.25-3.55,2.31-2.47,4.42-4.61,6.24-6.39L149,158.6c-1.85,1.88-4,4.17-6.4,6.82-1.13,1.25-2.31,2.62-3.52,4a44.77,44.77,0,0,0-4.69-2.49c.48-2.61-.46-7.66-.59-8.31,1.61-.43,3.19-.82,4.67-1.17,3.12-.74,5.92-1.33,8.33-1.81l-1.49-2c-2.18.49-4.65,1.07-7.34,1.78-1.64.42-3.38.9-5.16,1.42-.29-.61-2.65-5.6-4.62-7.28-1.79-1.52-4.48-3-6.91-2.42a4.17,4.17,0,0,0-3.22,5.29c1.1,3.33,7.18,5.13,10.32,5.11.19,0,2.19-.24,3.46-.42l-2.18.65c-1.48.44-3,.93-4.52,1.45l-2.28.84c-.77.26-1.54.64-2.32,1-1.8.77-3.58,1.65-5.35,2.57-.39-1.29-1.85-5.87-3.39-7.65s-4-3.6-6.46-3.44a4.17,4.17,0,0,0-4,4.74c.59,3.47,6.32,6.17,9.43,6.62.19,0,2.46.1,3.7.12-1.06.56-2.12,1.11-3.18,1.72-3,1.74-6.07,3.6-9.11,5.45l-2.79,1.67c-.13-.46-1.75-5.94-3.47-7.93-1.54-1.77-4-3.61-6.46-3.44a4.16,4.16,0,0,0-4,4.73c.59,3.47,6.32,6.17,9.43,6.62.23,0,3.49.14,4.32.12-2,1.23-4.1,2.43-6.17,3.53a72.29,72.29,0,0,1-8.65,3.94c-.06-.21-1.72-5.93-3.49-8-1.53-1.77-4-3.6-6.45-3.44a4.16,4.16,0,0,0-4,4.74c.58,3.47,6.32,6.16,9.43,6.62.24,0,3.75.14,4.38.11l-.51.21A53.24,53.24,0,0,1,74.5,183c-1.73.3-3.4.49-5,.64-.2-1.1-1.17-6.11-2.56-8.12s-3.56-4-6-4.13a4.16,4.16,0,0,0-4.48,4.27c.2,3.51,5.61,6.82,8.64,7.61.17.05,1.9.3,3.16.46-.74.06-1.5.13-2.21.17-2.65.15-5.09.12-7.25.08-1.23,0-2.34-.08-3.38-.14-.75-1-3.86-4.87-6-6s-5-1.93-7.26-.88a4.14,4.14,0,0,0-2,5.85c1.79,3,8.12,3.47,11.18,2.77.26-.06,4.29-1.48,4.25-1.53l-.05-.06c1,.08,2.07.16,3.24.21,2.17.09,4.61.17,7.28.07a75.4,75.4,0,0,0,8.59-.71,53.51,53.51,0,0,0,9.4-2.16l.11,0c-.84.6-3.11,2.37-3.27,2.52-2.25,2.19-5.31,7.75-3.75,10.9a4.17,4.17,0,0,0,6,1.49c2.1-1.32,3-4.24,3.21-6.58.22-2.63-1.69-8-1.85-8.46a74.4,74.4,0,0,0,9-3.88c1.7-.86,3.4-1.78,5.08-2.72-.71.54-1.33,1-1.41,1.11-2.25,2.19-5.31,7.75-3.74,10.89a4.16,4.16,0,0,0,6,1.5c2.1-1.33,3-4.24,3.21-6.58s-1.34-7-1.77-8.23l1.93-1.1c3.08-1.78,6.14-3.57,9.2-5.23,1.07-.59,2.15-1.12,3.23-1.67l-1.22,1c-2.24,2.19-5.3,7.75-3.74,10.89a4.17,4.17,0,0,0,6,1.5c2.1-1.32,3-4.25,3.2-6.58s-1.19-6.56-1.69-8c1.13-.52,2.25-1.05,3.36-1.5.77-.3,1.49-.63,2.27-.88l2.3-.79c1.48-.45,3-.92,4.45-1.32,1-.29,2-.54,2.95-.8-1.08.57-3.17,1.73-3.33,1.85a16.06,16.06,0,0,0-5,6.44,5.69,5.69,0,0,0-.7.6,4.16,4.16,0,0,0,.23,6.19c2.76,2.17,8.82.32,11.43-1.43.15-.11,1.69-1.41,2.65-2.25-.49.58-1,1.13-1.46,1.74-1,1.18-1.94,2.4-3,3.7-.48.64-1,1.3-1.44,2s-.93,1.39-1.41,2.09c-1.07,1.64-2.07,3.35-3,5.1-1-.87-4.78-3.88-7-4.51s-5.3-.81-7.28.69a4.16,4.16,0,0,0-.71,6.15c2.4,2.57,8.67,1.65,11.51.32.18-.09,2.11-1.27,3.16-2-.58,1.06-1.16,2.11-1.71,3.2-1.58,3.13-3.08,6.36-4.59,9.57-.46,1-.93,1.95-1.4,2.93-.37-.31-4.74-4-7.28-4.7-2.26-.63-5.31-.81-7.28.7a4.14,4.14,0,0,0-.71,6.14c2.4,2.57,8.67,1.66,11.51.32.21-.1,3-1.81,3.67-2.28-1,2.15-2.09,4.29-3.21,6.35a73.05,73.05,0,0,1-5,8.06c-.17-.15-4.71-4-7.31-4.73-2.26-.63-5.31-.81-7.29.69a4.16,4.16,0,0,0-.71,6.15c2.4,2.57,8.68,1.65,11.52.32.22-.11,3.2-1.95,3.72-2.33-.11.15-.2.32-.31.47a55.33,55.33,0,0,1-6.42,7c-1.28,1.2-2.57,2.28-3.85,3.31-.77-.81-4.34-4.45-6.61-5.36s-5.19-1.39-7.32-.11a4.15,4.15,0,0,0-1.38,6c2.1,2.82,8.44,2.6,11.41,1.58.16,0,1.74-.8,2.88-1.36l-1.74,1.36c-2.13,1.59-4.18,2.91-6,4.07-1,.65-2,1.22-2.89,1.74-1.17-.39-5.91-1.92-8.3-1.69s-5.24,1.15-6.54,3.27a4.16,4.16,0,0,0,1.55,6c3.17,1.53,8.69-1.58,10.85-3.85.19-.2,2.77-3.61,2.71-3.63l-.07,0c.87-.48,1.81-1,2.81-1.61,1.86-1.13,3.94-2.41,6.11-4a74.55,74.55,0,0,0,6.77-5.34,53.46,53.46,0,0,0,6.65-7l.07-.09c-.36,1-1.29,3.69-1.33,3.91-.67,3.06-.16,9.38,2.88,11.15a4.17,4.17,0,0,0,5.84-2.07C120.38,227.48,119.52,224.54,118.4,222.48Z" style="fill:#92E3A9"></path><path d="M69,184.16c0-.06-4,1.56-4.19,1.7-2.75,1.51-7.16,6.06-6.49,9.51a4.16,4.16,0,0,0,5.4,3c2.38-.72,4-3.3,4.83-5.5C69.53,190.32,69,184.17,69,184.16Z" style="fill:#92E3A9"></path><path d="M404.77,243.87c.9-2.61,5.18-7.05,5.18-7.06s2.08,3.71,2.18,4c1.17,2.92,1.71,9.23-1,11.48a4.17,4.17,0,0,1-6.1-1.07C403.66,249.12,404,246.08,404.77,243.87Z" style="fill:#92E3A9"></path><path d="M393.06,230.21c1.49-2.19,6.39-5.16,6.78-5.4a73.83,73.83,0,0,1-4.55-8.71c-.77-1.74-1.5-3.52-2.21-5.32.2.87.37,1.65.38,1.76.36,3.12-.78,9.35-4,10.8a4.15,4.15,0,0,1-5.6-2.64c-.79-2.35.35-5.18,1.68-7.12s5.46-4.58,6.57-5.26c-.27-.69-.54-1.38-.8-2.07-1.26-3.33-2.5-6.65-3.82-9.87-.47-1.13-1-2.23-1.46-3.34.18.78.32,1.43.33,1.53.36,3.12-.78,9.35-4,10.8a4.16,4.16,0,0,1-5.6-2.64c-.79-2.35.35-5.18,1.68-7.12s5.06-4.33,6.37-5.14c-.54-1.11-1.08-2.23-1.66-3.29-.41-.71-.75-1.42-1.2-2.11L380.71,183c-.86-1.28-1.74-2.61-2.61-3.83l-1.78-2.49c.47,1.13,1.36,3.35,1.41,3.54.83,3,.64,9.37-2.3,11.29a4.17,4.17,0,0,1-5.94-1.77c-1.14-2.2-.43-5.18.58-7.29,1.11-2.33,5.32-5.89,5.85-6.33-1-1.34-1.95-2.64-2.88-3.85-2.05-2.68-4-5-5.58-7l1.56-1.7c1.65,2.06,3.58,4.55,5.68,7.43,1,1.36,2.05,2.84,3.1,4.36a45.83,45.83,0,0,1,4.92-2c-.22-2.64,1.22-7.58,1.42-8.21-1.57-.59-3.09-1.14-4.53-1.63-3-1.05-5.76-1.92-8.11-2.63l1.68-1.83c2.12.7,4.52,1.53,7.13,2.5,1.58.58,3.27,1.24,5,1.93.35-.58,3.2-5.31,5.32-6.78,1.93-1.34,4.76-2.5,7.12-1.72a4.15,4.15,0,0,1,2.67,5.58c-1.43,3.21-7.65,4.39-10.77,4-.19,0-2.16-.45-3.4-.75.7.28,1.39.55,2.11.86,1.42.58,2.83,1.22,4.35,1.89l2.18,1.06c.74.34,1.47.79,2.22,1.19,1.7,1,3.39,2,5.06,3.09.52-1.24,2.43-5.65,4.14-7.27s4.32-3.19,6.76-2.78a4.16,4.16,0,0,1,3.5,5.11c-.93,3.39-6.9,5.51-10,5.65-.2,0-2.46-.15-3.7-.26,1,.67,2,1.33,3,2,2.86,2,5.69,4.19,8.53,6.33.86.65,1.74,1.29,2.61,1.94.18-.45,2.33-5.73,4.25-7.55,1.7-1.61,4.32-3.19,6.77-2.77a4.15,4.15,0,0,1,3.49,5.1c-.93,3.39-6.9,5.51-10,5.65-.24,0-3.49-.22-4.31-.31,1.91,1.42,3.84,2.82,5.79,4.12a73.21,73.21,0,0,0,8.21,4.79c.08-.21,2.3-5.74,4.27-7.59,1.7-1.61,4.32-3.19,6.76-2.78a4.16,4.16,0,0,1,3.5,5.11c-.93,3.39-6.91,5.5-10,5.64-.25,0-3.75-.23-4.38-.32.17.08.33.18.49.26a53.29,53.29,0,0,0,9,3.24c1.69.47,3.34.82,4.94,1.13.31-1.07,1.78-5.95,3.36-7.82s3.94-3.64,6.42-3.5a4.15,4.15,0,0,1,4,4.69c-.55,3.47-6.25,6.23-9.35,6.71-.17,0-1.92.11-3.19.14.73.13,1.48.28,2.18.39,2.62.41,5.05.63,7.21.81,1.22.09,2.33.15,3.37.19.85-.89,4.33-4.45,6.55-5.36s5.18-1.42,7.32-.16a4.16,4.16,0,0,1,1.41,6c-2.09,2.83-8.42,2.64-11.4,1.64-.25-.08-4.12-1.9-4.08-1.94l.06-.06c-1,0-2.08-.05-3.25-.11-2.16-.13-4.6-.3-7.25-.66a72.09,72.09,0,0,1-8.47-1.57,53.46,53.46,0,0,1-9.14-3.08l-.11,0c.77.68,2.87,2.67,3,2.84,2,2.4,4.51,8.23,2.64,11.21a4.16,4.16,0,0,1-6.13.88c-2-1.52-2.57-4.52-2.53-6.86,0-2.64,2.48-7.83,2.68-8.24a73.72,73.72,0,0,1-8.6-4.76c-1.61-1-3.2-2.11-4.78-3.21.64.61,1.22,1.16,1.29,1.25,2,2.4,4.51,8.23,2.64,11.21a4.16,4.16,0,0,1-6.13.88c-2-1.52-2.56-4.52-2.53-6.86s2-6.84,2.57-8l-1.81-1.29c-2.88-2.08-5.75-4.16-8.62-6.12-1-.69-2-1.33-3.06-2,.58.54,1.06,1,1.12,1.09,2,2.4,4.51,8.23,2.64,11.21a4.17,4.17,0,0,1-6.13.88c-1.95-1.52-2.56-4.52-2.53-6.86s1.84-6.41,2.48-7.8c-1.07-.64-2.13-1.27-3.19-1.83-.74-.37-1.42-.78-2.17-1.11l-2.21-1c-1.43-.59-2.89-1.21-4.3-1.76l-2.85-1.09c1,.68,3,2,3.13,2.17a16.3,16.3,0,0,1,4.32,6.92,4.92,4.92,0,0,1,.63.66,4.15,4.15,0,0,1-.84,6.13c-3,1.89-8.81-.56-11.23-2.56-.14-.12-1.54-1.57-2.41-2.5.42.62.85,1.23,1.28,1.88.87,1.27,1.69,2.58,2.59,4,.4.69.81,1.39,1.23,2.09s.79,1.47,1.19,2.22c.9,1.73,1.73,3.54,2.52,5.37,1.12-.75,5.14-3.37,7.46-3.78s5.37-.28,7.18,1.42a4.15,4.15,0,0,1,.1,6.18c-2.65,2.32-8.8.79-11.49-.83-.17-.1-2-1.47-2.95-2.25.47,1.11.94,2.22,1.38,3.35,1.26,3.28,2.43,6.64,3.61,10l1.11,3.06c.4-.27,5.11-3.49,7.71-3.95,2.31-.4,5.36-.27,7.18,1.42a4.16,4.16,0,0,1,.09,6.19c-2.64,2.31-8.79.78-11.49-.83-.2-.12-2.79-2.11-3.42-2.64.81,2.24,1.65,4.47,2.56,6.63a72.67,72.67,0,0,0,4.2,8.53c.18-.13,5.09-3.52,7.75-4,2.31-.41,5.36-.28,7.17,1.41a4.15,4.15,0,0,1,.1,6.19c-2.64,2.32-8.79.79-11.49-.83-.21-.12-3-2.26-3.47-2.68.09.16.17.33.27.49a53.19,53.19,0,0,0,5.68,7.64c1.15,1.33,2.33,2.53,3.5,3.67.85-.72,4.76-4,7.11-4.67s5.3-.87,7.29.62a4.16,4.16,0,0,1,.78,6.14c-2.38,2.59-8.66,1.74-11.51.43-.16-.07-1.66-1-2.74-1.63.54.5,1.08,1,1.61,1.52,2,1.79,3.86,3.31,5.56,4.65,1,.75,1.87,1.41,2.71,2,1.2-.28,6.07-1.33,8.42-.86s5.11,1.68,6.19,3.91a4.17,4.17,0,0,1-2.14,5.81c-3.3,1.2-8.49-2.45-10.42-4.92-.17-.21-2.39-3.86-2.33-3.88h.08c-.83-.57-1.7-1.19-2.65-1.89-1.73-1.3-3.67-2.78-5.68-4.54a76.23,76.23,0,0,1-6.21-6,54.51,54.51,0,0,1-5.92-7.61s0-.07-.05-.1c.26,1,.91,3.8.94,4,.35,3.12-.79,9.36-4,10.81a4.16,4.16,0,0,1-5.6-2.64C390.59,235,391.74,232.14,393.06,230.21Z" style="fill:#92E3A9"></path><path d="M446,197c0-.06,3.78,1.95,4,2.1,2.58,1.79,6.52,6.75,5.51,10.12a4.17,4.17,0,0,1-5.68,2.47c-2.29-.95-3.67-3.68-4.25-5.95C444.89,203.07,446,197,446,197Z" style="fill:#92E3A9"></path></g><g id="Floor"><line x1="470" y1="453.98" x2="480" y2="453.98" style="fill:#fff;stroke:#263238;stroke-linecap:round;stroke-linejoin:round"></line><line x1="39" y1="453.98" x2="458" y2="453.98" style="fill:#fff;stroke:#263238;stroke-linecap:round;stroke-linejoin:round"></line></g><g id="Graphics"><circle cx="445" cy="184" r="4" style="fill:none;stroke:#737373;stroke-linecap:round;stroke-miterlimit:10"></circle><circle cx="221" cy="322" r="4" style="fill:none;stroke:#737373;stroke-linecap:round;stroke-miterlimit:10"></circle><circle cx="309" cy="243" r="4" style="fill:none;stroke:#737373;stroke-linecap:round;stroke-miterlimit:10"></circle><circle cx="438" cy="327" r="4" style="fill:none;stroke:#737373;stroke-linecap:round;stroke-miterlimit:10"></circle><circle cx="81" cy="281" r="4" style="fill:none;stroke:#737373;stroke-linecap:round;stroke-miterlimit:10"></circle><circle cx="57" cy="229" r="4" style="fill:none;stroke:#737373;stroke-linecap:round;stroke-miterlimit:10"></circle><circle cx="369" cy="62" r="4" style="fill:none;stroke:#737373;stroke-linecap:round;stroke-miterlimit:10"></circle><circle cx="445" cy="108" r="4" style="fill:none;stroke:#737373;stroke-linecap:round;stroke-miterlimit:10"></circle><circle cx="165" cy="36" r="4" style="fill:none;stroke:#737373;stroke-linecap:round;stroke-miterlimit:10"></circle><circle cx="231" cy="249" r="4" style="fill:none;stroke:#737373;stroke-linecap:round;stroke-miterlimit:10"></circle><circle cx="81" cy="91" r="4" style="fill:none;stroke:#737373;stroke-linecap:round;stroke-miterlimit:10"></circle><line x1="445.42" y1="261.79" x2="438.21" y2="269.42" style="fill:none;stroke:#737373;stroke-linecap:round;stroke-miterlimit:10"></line><line x1="445.63" y1="269.22" x2="438" y2="262" style="fill:none;stroke:#737373;stroke-linecap:round;stroke-miterlimit:10"></line><line x1="118.42" y1="67.79" x2="111.21" y2="75.42" style="fill:none;stroke:#737373;stroke-linecap:round;stroke-miterlimit:10"></line><line x1="118.63" y1="75.22" x2="111" y2="68" style="fill:none;stroke:#737373;stroke-linecap:round;stroke-miterlimit:10"></line><line x1="186.42" y1="239.79" x2="179.21" y2="247.42" style="fill:none;stroke:#737373;stroke-linecap:round;stroke-miterlimit:10"></line><line x1="186.63" y1="247.22" x2="179" y2="240" style="fill:none;stroke:#737373;stroke-linecap:round;stroke-miterlimit:10"></line><line x1="270.22" y1="373.37" x2="263" y2="381" style="fill:none;stroke:#737373;stroke-linecap:round;stroke-miterlimit:10"></line><line x1="270.42" y1="380.79" x2="262.79" y2="373.58" style="fill:none;stroke:#737373;stroke-linecap:round;stroke-miterlimit:10"></line><line x1="421.22" y1="51.37" x2="414" y2="59" style="fill:none;stroke:#737373;stroke-linecap:round;stroke-miterlimit:10"></line><line x1="421.42" y1="58.79" x2="413.79" y2="51.58" style="fill:none;stroke:#737373;stroke-linecap:round;stroke-miterlimit:10"></line><line x1="71" y1="143" x2="63.78" y2="150.63" style="fill:none;stroke:#737373;stroke-linecap:round;stroke-miterlimit:10"></line><line x1="71.21" y1="150.42" x2="63.58" y2="143.21" style="fill:none;stroke:#737373;stroke-linecap:round;stroke-miterlimit:10"></line></g><g id="Balloons"><path d="M323.55,63.44C312.57,79,287.77,89.7,280,84.18c-6.7-4.73-6-32.46,5-48,7.83-11.08,23.39-14.77,34.05-7.24S331.37,52.37,323.55,63.44Z" style="fill:#92E3A9;stroke:#263238;stroke-linecap:round;stroke-linejoin:round"></path><path d="M294,81.58a37.85,37.85,0,0,1-5.83,1.52" style="fill:none;stroke:#263238;stroke-linecap:round;stroke-linejoin:round"></path><path d="M319.25,64.82a62.37,62.37,0,0,1-20.43,14.82" style="fill:none;stroke:#263238;stroke-linecap:round;stroke-linejoin:round"></path><path d="M326.7,49.42a26.7,26.7,0,0,1-2.84,8.93" style="fill:none;stroke:#263238;stroke-linecap:round;stroke-linejoin:round"></path><path d="M303.84,40.93c-3.4,2.37-7.62,2.21-9.41-.36s-.5-6.58,2.9-8.95,7.62-2.22,9.41.35S307.24,38.55,303.84,40.93Z" style="fill:#fff"></path><line x1="279.96" y1="84.18" x2="253.57" y2="121.58" style="fill:#fff;stroke:#263238;stroke-linecap:round;stroke-linejoin:round"></line><path d="M279.14,83.8S275.9,86.11,275.9,87s3.24,3.24,4,2.62,0-5.55,0-5.55Z" style="fill:#92E3A9;stroke:#263238;stroke-linecap:round;stroke-linejoin:round"></path><path d="M231,39.26c11.68,15,14.7,41.88,7.15,47.74-6.48,5-32.81-3.71-44.48-18.75-8.32-10.71-7.32-26.68,3-34.68S222.67,28.55,231,39.26Z" style="fill:#a3a3a3;stroke:#263238;stroke-linecap:round;stroke-linejoin:round"></path><path d="M239.72,72.85a39,39,0,0,1-.24,6" style="fill:none;stroke:#263238;stroke-linecap:round;stroke-linejoin:round"></path><path d="M231.06,43.78a62.48,62.48,0,0,1,8.23,23.85" style="fill:none;stroke:#263238;stroke-linecap:round;stroke-linejoin:round"></path><path d="M218.5,32.16a26.8,26.8,0,0,1,7.71,5.32" style="fill:none;stroke:#263238;stroke-linecap:round;stroke-linejoin:round"></path><path d="M203.71,51.56c1.28,3.95-.1,7.93-3.08,8.9s-6.44-1.45-7.72-5.39.1-7.93,3.08-8.9S202.43,47.62,203.71,51.56Z" style="fill:#fff"></path><line x1="238.14" y1="87" x2="266.22" y2="123.14" style="fill:#fff;stroke:#263238;stroke-linecap:round;stroke-linejoin:round"></line><path d="M237.42,87.17s1,2.6,1.78,2.73a1.63,1.63,0,0,0,1.8-1.74C241,86.92,237.36,85,237.42,87.17Z" style="fill:#a3a3a3;stroke:#263238;stroke-linecap:round;stroke-linejoin:round"></path><path d="M257.86,79.79s-1.7,3.55-1.24,4.16,3.24,0,4.32,0-1.39-4.78-1.39-4.78Z" style="fill:#263238;stroke:#263238;stroke-linecap:round;stroke-linejoin:round"></path><path d="M282.38,37.53c0,19-14.07,42.09-23.64,42.09-8.2,0-23.63-23.05-23.63-42.09C235.11,24,245.69,12,258.74,12S282.38,24,282.38,37.53Z" style="fill:#263238;stroke:#263238;stroke-linecap:round;stroke-linejoin:round"></path><path d="M253.75,28.55c-2,3.64-5.82,5.38-8.58,3.88s-3.38-5.67-1.4-9.31,5.82-5.38,8.58-3.88S255.73,24.91,253.75,28.55Z" style="fill:#fff"></path><line x1="258.74" y1="79.62" x2="258.74" y2="113.77" style="fill:#fff;stroke:#263238;stroke-linecap:round;stroke-linejoin:round"></line></g><g id="Announcement"><rect x="107.24" y="98" width="301.53" height="112" transform="translate(-4.16 7.19) rotate(-1.58)" style="fill:#263238;stroke:#263238;stroke-linecap:round;stroke-linejoin:round"></rect></g><g id="Text"><path d="M157.81,173.42l-4.88.14-1-5.56-5.93.16-.68,5.61-4.45.13L144.94,143l7.08-.2ZM146.5,164l4.66-.13-2.77-15.51Z" style="fill:#92E3A9"></path><path d="M165.5,150.89l.62,22.3-4.36.12-.85-30.79,6.07-.17,5.48,18.3L172,142.21l4.31-.12.86,30.8-5,.14Z" style="fill:#92E3A9"></path><path d="M186,150.32l.62,22.3-4.36.12L181.45,142l6.07-.17L193,160.07l-.51-18.43,4.31-.12.86,30.79-5,.14Z" style="fill:#92E3A9"></path><path d="M201.84,148.78c-.14-4.93,2.38-7.82,7.13-7.95s7.42,2.61,7.56,7.54l.45,16c.14,4.93-2.38,7.81-7.13,8s-7.43-2.62-7.56-7.54ZM207.13,165c.07,2.2,1.06,3,2.59,3s2.49-.91,2.43-3.11l-.47-16.63c-.06-2.2-1.05-3-2.59-3s-2.48.9-2.42,3.1Z" style="fill:#92E3A9"></path><path d="M225.82,140.71l.67,23.76c.06,2.19,1,3,2.59,2.92s2.48-.87,2.42-3.06l-.66-23.76,4.57-.13.66,23.45c.14,4.93-2.25,7.81-7,7.94s-7.29-2.61-7.43-7.54L221,140.85Z" style="fill:#92E3A9"></path><path d="M245,148.67l.62,22.31-4.36.12-.86-30.8,6.08-.17,5.48,18.3L251.47,140l4.31-.12.86,30.79-5,.14Z" style="fill:#92E3A9"></path><path d="M275.58,158.65l.11,4.09c.14,4.93-2.24,7.81-7,7.94s-7.29-2.61-7.43-7.54l-.44-16c-.14-4.93,2.25-7.81,7-7.94s7.29,2.61,7.43,7.54l.08,3-4.58.13-.09-3.3c-.06-2.2-1.05-3-2.59-3s-2.48.91-2.42,3.11l.46,16.63c.06,2.2,1.05,3,2.59,2.92s2.49-.86,2.43-3.06l-.13-4.4Z" style="fill:#92E3A9"></path><path d="M285,152.05l6.64-.19.12,4.4-6.64.19.25,9,8.36-.24.12,4.4-13.2.37-.85-30.79,13.19-.37.12,4.4-8.35.23Z" style="fill:#92E3A9"></path><path d="M308.55,160.28l2.69-21.95,6.73-.19.86,30.79-4.58.13L313.64,147l-2.73,22.17-4.58.13-4.21-21.67.61,21.77-4.23.12-.85-30.79,6.73-.19Z" style="fill:#92E3A9"></path><path d="M328.44,150.84l6.65-.19.12,4.4-6.64.18.25,9,8.35-.23.13,4.4-13.2.37-.86-30.8,13.2-.36.12,4.4-8.36.23Z" style="fill:#92E3A9"></path><path d="M345.73,145.86l.63,22.31-4.36.12-.86-30.8,6.07-.16,5.49,18.29-.52-18.43,4.32-.12.85,30.79-5,.14Z" style="fill:#92E3A9"></path><path d="M360.32,137l15-.42.12,4.4-5.06.14.74,26.4-4.84.13-.74-26.39-5.06.14Z" style="fill:#92E3A9"></path></g><g id="character-2"><ellipse cx="350" cy="474" rx="63" ry="12" style="fill:#92E3A9"></ellipse><ellipse cx="350" cy="474" rx="63" ry="12" style="fill:#fff;opacity:0.7000000000000001"></ellipse><polygon points="327.98 348.34 319.57 453.09 330.78 452.81 352.35 362.35 358.79 362.07 379.23 453.94 388.48 454.77 387.36 402.4 380.63 344.7 328.54 346.66 327.98 348.34" style="fill:#263238;stroke:#263238;stroke-linecap:round;stroke-linejoin:round"></polygon><path d="M338.68,405.32c-.16,1.69-3.3,2.77-7,2.42s-6.61-2-6.45-3.7,3.31-2.76,7-2.41S338.84,403.64,338.68,405.32Z" style="fill:#fff;stroke:#263238;stroke-linecap:round;stroke-linejoin:round"></path><path d="M386.68,404.76c.2,1.68-2.65,3.4-6.36,3.83s-6.88-.57-7.07-2.25,2.65-3.4,6.36-3.84S386.48,403.08,386.68,404.76Z" style="fill:#fff;stroke:#263238;stroke-linecap:round;stroke-linejoin:round"></path><path d="M320.13,456.21s-1.35,4.73-3.65,7.43-7.43,7.83-6.62,11.21,4.19,3.11,8,2,7.7-4.46,8.78-5,2.83-1.35,2.83-3.51V456.48Z" style="fill:#fff;stroke:#263238;stroke-linecap:round;stroke-linejoin:round"></path><path d="M325.93,470.39a26.63,26.63,0,0,1-9.72,5,8,8,0,0,1-6.41-1.06,3.07,3.07,0,0,0,.06.52c.81,3.38,4.19,3.11,8,2s7.7-4.46,8.78-5,2.69-1.31,2.81-3.3A13.7,13.7,0,0,0,325.93,470.39Z" style="fill:#fff;stroke:#263238;stroke-linecap:round;stroke-linejoin:round"></path><path d="M387.69,456.21s1.35,4.73,3.65,7.43,7.43,7.83,6.62,11.21-4.19,3.11-8,2-7.7-4.46-8.78-5-2.83-1.35-2.83-3.51V456.48Z" style="fill:#fff;stroke:#263238;stroke-linecap:round;stroke-linejoin:round"></path><path d="M381.89,470.39a26.63,26.63,0,0,0,9.72,5,8.08,8.08,0,0,0,6.42-1.06,4.63,4.63,0,0,1-.07.52c-.81,3.38-4.19,3.11-8,2s-7.7-4.46-8.78-5-2.69-1.31-2.81-3.3A13.7,13.7,0,0,1,381.89,470.39Z" style="fill:#fff;stroke:#263238;stroke-linecap:round;stroke-linejoin:round"></path><polygon points="317.89 449.45 318.73 457.3 331.62 457.86 333.3 448.61 317.89 449.45" style="fill:#fff;stroke:#263238;stroke-linecap:round;stroke-linejoin:round"></polygon><polygon points="375.31 451.41 377.83 458.98 388.2 458.7 390.44 451.13 375.31 451.41" style="fill:#fff;stroke:#263238;stroke-linecap:round;stroke-linejoin:round"></polygon><path d="M336.8,250l-2-8.28s-2.47-.87-2.84-2.35,1.36-3.59,1.36-3.59-5.07-2.22-4.7-3.83,8.41-6.43,8.41-6.43-9.52-1.61-6.43-4.2,13.72-4.21,17.43-2.85a28.66,28.66,0,0,1,7.42,4.58s-3-3.59-.12-3.71,7.67,6.43,7.79,10.63-2.23,9.77-2.23,9.77l-.12,5.57L359.18,250,356,234.75l-10.39-.37L338,240.57l1.23,10.75-2.22-.49Z" style="fill:#263238;stroke:#263238;stroke-miterlimit:10"></path><path d="M337.91,250.46s-2.84-2.84-3.83-.37,1.73,5.56,2.72,6.06a5.21,5.21,0,0,0,2.72.12Z" style="fill:none;stroke:#263238;stroke-miterlimit:10"></path><path d="M359.8,247.12s1-3.34,3.09-1.48.37,4.45-.12,5.81a9.24,9.24,0,0,1-1.86,2.72Z" style="fill:none;stroke:#263238;stroke-miterlimit:10"></path><path d="M344.36,269l-13.23,2.1-5.25,77.3a61.13,61.13,0,0,0,23.73,7.77c13.24,1.26,32.56-5.25,32.56-5.25l-10.92-79.4S352.13,268.59,344.36,269Z" style="fill:#fff;stroke:#263238;stroke-linecap:round;stroke-linejoin:round"></path><path d="M355.78,348.92a16.61,16.61,0,0,1-2,1.53" style="fill:#fff;stroke:#263238;stroke-linecap:round;stroke-linejoin:round"></path><path d="M369.51,325.61s-4.28,12.25-10.65,20.08" style="fill:#fff;stroke:#263238;stroke-linecap:round;stroke-linejoin:round"></path><path d="M334.17,324.89S341.57,338,348,343.76" style="fill:#fff;stroke:#263238;stroke-linecap:round;stroke-linejoin:round"></path><path d="M277.67,226.65s-.53-4.58-.14-5.36,3.4-4.7,3.92-6.53,2.09-6.79.79-6.14A5.41,5.41,0,0,0,280,212c0,.52-2.49,2.35-2.49,2.35s-3.91-9.41-4.31-9.54-1.69-.39-1.69.66a67.3,67.3,0,0,0,1.82,7l-1,.65-3-8.75s-1.7-.13-1.7.65,1.83,9.15,1.83,9.15l-1.31.39-2.48-7.71s-1.57.26-1.57,1.31,1.83,7.7,1.83,7.7-2-2.48-2.22-3a5,5,0,0,0-1.05-1.17,1.2,1.2,0,0,0-.91,1.3c.13,1.05,3.66,6.53,4.44,8a33.74,33.74,0,0,0,2.61,3.92,17.58,17.58,0,0,1,1.31,3.65Z" style="fill:#fff;stroke:#263238;stroke-linecap:round;stroke-linejoin:round"></path><path d="M277.53,214.37s-4.31,2-4.31,3.26v3.14" style="fill:#fff;stroke:#263238;stroke-linecap:round;stroke-linejoin:round"></path><path d="M331.34,269S316,270.06,315,270.48l-1.05.42L289.32,260l-11.76-34.45-9.66,2.31s13.44,46.85,13.44,47.69,37.39,23.53,37.39,23.53l-4,43.69s12.61,4.62,17.23,5.88,11.55,0,11.55,0L341,272.79l-.63-4Z" style="fill:#787878;stroke:#263238;stroke-linecap:round;stroke-linejoin:round"></path><path d="M333,273s-1.68,10.29-.21,11.13,5.67-1.05,6.51-.63,1.05,6.72,1.05,6.72" style="fill:none;stroke:#263238;stroke-linecap:round;stroke-linejoin:round"></path><line x1="316.16" y1="286.74" x2="315.79" y2="284.76" style="fill:#fff;stroke:#263238;stroke-linecap:round;stroke-linejoin:round"></line><line x1="318.31" y1="298.21" x2="316.61" y2="289.13" style="fill:#fff;stroke:#263238;stroke-linecap:round;stroke-linejoin:round"></line><line x1="318.73" y1="299.05" x2="312.22" y2="286.44" style="fill:#fff;stroke:#263238;stroke-linecap:round;stroke-linejoin:round"></line><path d="M362,273.21l6.51,76.46A23.17,23.17,0,0,0,379,348c6.09-2.31,16-10.08,16-10.08l-11.35-41.18,11.56,16.39,8.19-8.4s-15.33-27.94-19.54-32.14S361.38,268,361.38,268Z" style="fill:#787878;stroke:#263238;stroke-linecap:round;stroke-linejoin:round"></path><path d="M363.9,288.12l1.05-4.83s7.14.42,7.56-1.26-5-12.81-5-12.81" style="fill:none;stroke:#263238;stroke-linecap:round;stroke-linejoin:round"></path><path d="M342.74,261s-3.71.25-4.83,1.61-10.63,6.06-10.63,7.42,8.78,7.29,11.75,9.64,12.49,4.58,13.35,4.45,13-8.16,14.35-9.52,5.68-9.27,5.68-9.27-14.09-5.07-15.82-5.32S342.74,261,342.74,261Z" style="fill:#fff;stroke:#263238;stroke-linecap:round;stroke-linejoin:round"></path><path d="M341.5,259.61s1.36,12.37,1.73,14.59,7.91,9.15,9,8.9,5.56-8.78,6.06-11.25.37-10.88.37-10.88-4.08,3-6.68,3S341.5,259.61,341.5,259.61Z" style="fill:#fff;stroke:#263238;stroke-linecap:round;stroke-linejoin:round"></path><polygon points="352.36 267.76 342.79 270.63 341.84 261.45 352.36 267.76" style="fill:#263238;stroke:#263238;stroke-miterlimit:10"></polygon><path d="M336,240.17s3.4,17.37,4.34,19.45,6.29,8.32,8.55,9.45,5.67.57,6.23-.19S361,258.77,361,257.26s-3-23.13-3.54-23.69-7.74-2.65-11.89-1.51S336.17,237.91,336,240.17Z" style="fill:#fff;stroke:#263238;stroke-miterlimit:10"></path><ellipse cx="344.03" cy="247.06" rx="0.8" ry="1.05" style="fill:#263238"></ellipse><path d="M354.79,246a.83.83,0,1,1-.8-1A1,1,0,0,1,354.79,246Z" style="fill:#263238"></path><path d="M347.06,252.68a2.71,2.71,0,0,0,2.35,1,2.9,2.9,0,0,0,2.48-1.6" style="fill:none;stroke:#263238;stroke-linecap:round;stroke-linejoin:round"></path><path d="M340.51,243.53s.87-2.1,4.08-2.1" style="fill:none;stroke:#263238;stroke-linecap:round;stroke-linejoin:round"></path><path d="M350.77,240.81a4.27,4.27,0,0,1,4.46.75" style="fill:none;stroke:#263238;stroke-linecap:round;stroke-linejoin:round"></path><path d="M343.48,255.9s3.71,2.23,7.17,1.73a10.32,10.32,0,0,0,5.69-3s-1.49,4.83-3.22,6.93-3.21,2.22-5.19.62S343.48,255.9,343.48,255.9Z" style="fill:none;stroke:#263238;stroke-linecap:round;stroke-linejoin:round"></path><path d="M367.86,273.5l-1.91.9s1.27,4.85,1.4,5.36,2.69.51,2.69.51l.12-4.85Z" style="fill:#fff;stroke:#263238;stroke-linecap:round;stroke-linejoin:round"></path><path d="M377.76,274.05l-9.87-3.36-.21,4.2,2.1,1.05.84,8.61h2.73s.84,2.31,2.1,2.94,4.2-.21,4.2-1.47S377.76,274.05,377.76,274.05Z" style="fill:#fff;stroke:#263238;stroke-linecap:round;stroke-linejoin:round"></path><path d="M378.81,283.92,374.4,290s18.7,26.68,19.33,26.89-.84-.42,1.26.21,7.35-1.47,9-4.83.84-8,0-9.24S378.81,283.92,378.81,283.92Z" style="fill:#787878;stroke:#263238;stroke-linecap:round;stroke-linejoin:round"></path><path d="M358.93,255.81a5.42,5.42,0,0,0-4.34,5.6c0,3.09,1.58,4.73,4.34,5.6l29.17,12.05V245.38Z" style="fill:#92E3A9;stroke:#263238;stroke-linecap:round;stroke-linejoin:round"></path><ellipse cx="393.38" cy="262.25" rx="14.11" ry="18.21" style="fill:#92E3A9"></ellipse><ellipse cx="393.38" cy="262.25" rx="14.11" ry="18.21" style="fill:#263238;opacity:0.2"></ellipse><ellipse cx="393.38" cy="262.25" rx="14.11" ry="18.21" style="fill:none;stroke:#263238;stroke-linecap:round;stroke-linejoin:round"></ellipse></g><g id="character-1"><ellipse cx="143" cy="474" rx="49" ry="10" style="fill:#92E3A9"></ellipse><ellipse cx="143" cy="474" rx="49" ry="10" style="fill:#fff;opacity:0.7000000000000001"></ellipse><path d="M153.71,278s9.27,5.32,13.67,6.48,24.09,6.49,25,10.2-.7,8.1-5.56,8.1S160,297.89,160,297.89,153.94,282.6,153.71,278Z" style="fill:#fff;stroke:#263238;stroke-linecap:round;stroke-linejoin:round"></path><line x1="166.09" y1="289.61" x2="166.77" y2="288.59" style="fill:none;stroke:#263238;stroke-linecap:round;stroke-linejoin:round"></line><line x1="159.97" y1="297.89" x2="165.08" y2="290.9" style="fill:none;stroke:#263238;stroke-linecap:round;stroke-linejoin:round"></line><line x1="161.33" y1="296.75" x2="166.77" y2="294.03" style="fill:none;stroke:#263238;stroke-linecap:round;stroke-linejoin:round"></line><path d="M167.61,272.87s16.45,28.49,19.23,29.88,7.41,0,7.41-4.17-5.79-11.12-7.87-13.43-16.68-16.68-16.68-16.68-2.18-9.31-2.75-10.59-6.69-2.84-8.26-3.41-1.85,1-1.14,1.56a10.83,10.83,0,0,1,1.71,2.71l.29,1s-1.43-.14-1.43.71,1,2.14,1.57,4.56,2.7,3.7,4,4.56a11.47,11.47,0,0,0,2.85,1.28Z" style="fill:#fff;stroke:#263238;stroke-linecap:round;stroke-linejoin:round"></path><path d="M166.38,269a4.79,4.79,0,0,1-1.42-3.28c0-2,.14-4.41.14-4.41" style="fill:none;stroke:#263238;stroke-linecap:round;stroke-linejoin:round"></path><line x1="159.55" y1="259.73" x2="161.68" y2="262.3" style="fill:none;stroke:#263238;stroke-linecap:round;stroke-linejoin:round"></line><path d="M179.66,278.33a18.65,18.65,0,0,1-6.79,3.48c5.07,8.49,12.22,20.07,14,20.94,2.78,1.39,7.41,0,7.41-4.17s-5.79-11.12-7.87-13.43C185.55,284.23,182.74,281.4,179.66,278.33Z" style="fill:#fff;stroke:#263238;stroke-linecap:round;stroke-linejoin:round"></path><path d="M148.07,230.54a45.07,45.07,0,0,1,4.92,7.71c1.31,3.11,2.77,4.7,4.75,4.59,1.25-.08,3.28-.49,3.12.65s-2,3.12-2,3.12,1,9.34.66,10.49-3.61,2.46-6.23,3.12-5.09,1.14-5.09,1.14,0,3.77-.16,6.89-.16,4.75-.16,4.75-5.25-.16-6.56-.33a19.29,19.29,0,0,1-3.44-1l-3.28-1s4.92-4.1,3.6-9.35-6.06-8.19-5.57-15.57S135.45,229.56,148.07,230.54Z" style="fill:#fff;stroke:#263238;stroke-linecap:round;stroke-linejoin:round"></path><path d="M155.45,249.07l-3.77-.17s.16,3.45,1.8,3.77l1.64.33Z" style="fill:#263238;stroke:#263238;stroke-linecap:round;stroke-linejoin:round"></path><path d="M151.68,242.43c.29.95.13,1.84-.34,2s-1.1-.51-1.39-1.47-.14-1.84.34-2S151.39,241.48,151.68,242.43Z" style="fill:#263238"></path><path d="M147.81,240A1.94,1.94,0,0,1,150,238" style="fill:none;stroke:#263238;stroke-linecap:round;stroke-linejoin:round"></path><path d="M147.72,232.88a81.48,81.48,0,0,0-4.48,12.65c-1.22,4.94,1.84,11.32,2.37,14s2.63,5.8-3.43,9.49-14.22,2.89-19.76-.53-9-10-9-10,8.7-2.9,7.91-6.59-5.8-9.22-2.9-15.81,12.91-9,12.91-9-1.58-7.11,6.32-7.38S151.67,224.18,147.72,232.88Z" style="fill:#263238;stroke:#263238;stroke-linecap:round;stroke-linejoin:round"></path><path d="M136.2,316l2.56,10s-7.47,16-2.13,31.6,9.18,32,9.18,32-6.41,15.16-7.05,24.77-1.06,23.7-1.28,26.9S136,452,136,452s-7.69,5.12-7.26,7.26,7.68,8.33,8.75,11.1,5.13,6.41,7.26,6.83,3.63.86,3.21-.42-1.29-2.35-1.71-4.27-4.06-19.86-4.06-22.21,10.46-34.38,12.38-39.72,6.2-16.86,6.62-19.21,4.06-23.49,4.06-38.65a95.89,95.89,0,0,0-4.06-27.33l.64-13.88Z" style="fill:#fff;stroke:#263238;stroke-linecap:round;stroke-linejoin:round"></path><path d="M148,476.75c-.43-1.28-1.29-2.35-1.71-4.27-.25-1.1-1.54-7.42-2.6-13.08a8.36,8.36,0,0,0-5.22,2.5,6.36,6.36,0,0,1-3-4.17A7.76,7.76,0,0,1,136,452s-7.69,5.12-7.26,7.26,7.68,8.33,8.75,11.1,5.13,6.41,7.26,6.83S148.37,478,148,476.75Z" style="fill:#fff;stroke:#263238;stroke-linecap:round;stroke-linejoin:round"></path><path d="M161.18,391.34c.43-2.35,4.06-23.49,4.06-38.65a95.89,95.89,0,0,0-4.06-27.33l0-.82c-7.34,2.08-17.18,2-22.57,1.72-.92,2.11-7,16.9-2,31.34,5.34,15.59,9.18,32,9.18,32s-6.41,15.16-7.05,24.77c-.56,8.4-.95,20.23-1.19,25.21a15,15,0,0,0,6.93,2c3.2-10.56,8.72-27.35,10.06-31.09C156.49,405.22,160.76,393.69,161.18,391.34Z" style="fill:#263238;stroke:#263238;stroke-linecap:round;stroke-linejoin:round"></path><path d="M152.43,275.82s-1.92-2.35-8.11-4.06a13.43,13.43,0,0,0-14.1,4.27c-3,3.42-7.26,16.23-5.76,22s9,19,9,19a85.64,85.64,0,0,0,15.8,1.71c7.9,0,14.73-4.49,14.73-4.49s-.43-16-.85-22S154.35,277.31,152.43,275.82Z" style="fill:#fff;stroke:#263238;stroke-linecap:round;stroke-linejoin:round"></path><path d="M146.91,289a11.2,11.2,0,0,0,1-.53" style="fill:none;stroke:#263238;stroke-linecap:round;stroke-linejoin:round"></path><path d="M135.68,293.18s5.78-1.89,9.65-3.53" style="fill:none;stroke:#263238;stroke-linecap:round;stroke-linejoin:round"></path><path d="M140.6,294.14a21.75,21.75,0,0,0,3.74-.45" style="fill:none;stroke:#263238;stroke-linecap:round;stroke-linejoin:round"></path><path d="M134.83,294s1.47.13,3.4.15" style="fill:none;stroke:#263238;stroke-linecap:round;stroke-linejoin:round"></path><path d="M141.54,276.89s-4-6.3-9.61-2.78c-3.9,2.46-34.14,43.27-34.14,43.27L81.14,334.67s-7.26-.64-9.82.22-5.55,7-4.91,8.11,6.83-1.92,6.83-1.92-4.48,2.13-.85,2.13,7.26-2.34,8.32-2.34,3.42-1.5,4.7-3.21,57.41-51,57.41-51" style="fill:#fff;stroke:#263238;stroke-linecap:round;stroke-linejoin:round"></path><path d="M97.34,317.85l-16.2,16.82s-7.26-.64-9.82.22-5.55,7-4.91,8.11,6.83-1.92,6.83-1.92-4.48,2.13-.85,2.13,7.26-2.34,8.32-2.34,3.42-1.5,4.7-3.21c.46-.6,7.4-6.76,16.17-14.44A12.56,12.56,0,0,1,97.34,317.85Z" style="fill:#fff;stroke:#263238;stroke-linecap:round;stroke-linejoin:round"></path><line x1="73.24" y1="341.08" x2="76.02" y2="339.58" style="fill:none;stroke:#263238;stroke-linecap:round;stroke-linejoin:round"></line><path d="M67.47,343.43s3-4.91,6.2-5.77" style="fill:none;stroke:#263238;stroke-linecap:round;stroke-linejoin:round"></path><path d="M66.83,340.23s3.42-3.63,5.77-4.28" style="fill:none;stroke:#263238;stroke-linecap:round;stroke-linejoin:round"></path><path d="M139.4,328.56s-7.9,3.63-10.67,16.44,6.62,23.49,13.24,28.4S165,394.54,165,394.54s-10,7.26-12.39,14.73S143,436.6,143,436.6s-7.9,3-7.9,4.06a65,65,0,0,0,3,11.32c1.07,2.35,5.77,8.54,6.62,9s1.28,0,1.28-1.28S145,448.56,145.17,446s2.78-7.9,5.34-10.89,14.3-16.66,17.93-23.49,9.83-15.8,11.11-20.07c.31-1-3-5.55-3-5.55s-17.3-38-28.4-44.2" style="fill:#fff;stroke:#263238;stroke-linecap:round;stroke-linejoin:round"></path><path d="M139.71,328.15s-8.21,4-11,16.85,6.62,23.49,13.24,28.4S165,394.54,165,394.54s-10,7.26-12.39,14.73c-1,3.25-3,8.84-4.84,14.12a13.64,13.64,0,0,0,7.77,5.72c4.5-5.43,10.47-13,12.87-17.49,3.63-6.83,12.76-15.93,11.11-20.07a37.07,37.07,0,0,0-3-5.55s-17.33-38.63-28.44-44.82" style="fill:#263238;stroke:#263238;stroke-linecap:round;stroke-linejoin:round"></path><path d="M144.74,461c.86.42,1.28,0,1.28-1.28S145,448.56,145.17,446a5.34,5.34,0,0,1,.15-.89,5.44,5.44,0,0,0-3.66,2.66,55.52,55.52,0,0,1-.46-5.56c0-2.08,1.83-5.61,1.83-5.61s-7.9,3-7.9,4.06a65,65,0,0,0,3,11.32C139.19,454.33,143.89,460.52,144.74,461Z" style="fill:#fff;stroke:#263238;stroke-linecap:round;stroke-linejoin:round"></path></g></svg>