<svg xmlns="http://www.w3.org/2000/svg" viewBox="0 0 500 500"><g id="background-simple"><path d="M452.28,118.76q-2.49-4.14-5.18-8.12c-24-35.26-64-59.4-102.78-70.33a220.85,220.85,0,0,0-51.9-8C178.07,28.21,136.07,122.49,99.23,146.79S5.85,212.62,13,299.84c5.38,66.32,43.11,129.73,112,158.58a194.27,194.27,0,0,0,23.91,8.25,227.93,227.93,0,0,0,50.5,7.77c52.09,2.32,94.39-10.24,135.76-41.86,9.62-7.35,19.19-15.64,31.67-16.55,9.07-.66,17.67,2.6,8.19,11.37-11.15,10.3,1.71,30.57,30,16.49,47.25-23.52,66.69-74.26,75.85-125.85C492.08,254.71,486.63,176,452.28,118.76Z" style="fill:#92E3A9"></path><path d="M452.28,118.76q-2.49-4.14-5.18-8.12c-24-35.26-64-59.4-102.78-70.33a220.85,220.85,0,0,0-51.9-8C178.07,28.21,136.07,122.49,99.23,146.79S5.85,212.62,13,299.84c5.38,66.32,43.11,129.73,112,158.58a194.27,194.27,0,0,0,23.91,8.25,227.93,227.93,0,0,0,50.5,7.77c52.09,2.32,94.39-10.24,135.76-41.86,9.62-7.35,19.19-15.64,31.67-16.55,9.07-.66,17.67,2.6,8.19,11.37-11.15,10.3,1.71,30.57,30,16.49,47.25-23.52,66.69-74.26,75.85-125.85C492.08,254.71,486.63,176,452.28,118.76Z" style="fill:#fff;opacity:0.7000000000000001"></path></g><g id="Floor"><rect x="457.01" y="458.29" width="13.45" height="1" style="fill:#263238"></rect><rect x="29.38" y="458.29" width="417.52" height="1" style="fill:#263238"></rect></g><g id="Honeycomb"><g style="opacity:0.2"><path d="M291.79,130.21H271l-10.38-18,10.38-18h20.75l10.38,18Zm-20.17-1h19.6l9.8-17-9.8-17h-19.6l-9.8,17Z"></path><path d="M323.65,148.76H302.89l-10.37-18,10.37-18h20.76l10.37,18Zm-20.18-1h19.6l9.8-17-9.8-17h-19.6l-9.8,17Z"></path><polygon points="355.5 167.32 334.75 167.32 324.37 149.34 334.75 131.37 355.5 131.37 358.92 137.29 358.05 137.79 354.92 132.37 335.33 132.37 325.52 149.34 335.33 166.32 354.92 166.32 364.72 149.34 360.34 141.75 361.2 141.25 365.88 149.34 355.5 167.32"></polygon><path d="M387.36,185.87H366.6l-10.37-18,10.37-18h20.76l10.37,18Zm-20.18-1h19.6l9.8-17-9.8-17h-19.6l-9.8,17Z"></path><polygon points="419.21 204.42 398.45 204.42 388.08 186.45 398.45 168.48 419.21 168.48 429.58 186.45 425.26 193.94 424.4 193.44 428.43 186.45 418.63 169.48 399.03 169.48 389.23 186.45 399.03 203.42 418.63 203.42 422.82 196.16 423.69 196.66 419.21 204.42"></polygon><path d="M291.79,167H271l-10.38-18L271,131h20.75l10.38,18Zm-20.17-1h19.6l9.8-17-9.8-17h-19.6l-9.8,17Z"></path><path d="M323.65,185.52H302.89l-10.37-18,10.37-18h20.76l10.37,18Zm-20.18-1h19.6l9.8-17-9.8-17h-19.6l-9.8,17Z"></path><path d="M355.5,204.07H334.75l-10.38-18,10.38-18H355.5l10.38,18Zm-20.17-1h19.59l9.8-17-9.8-17H335.33l-9.8,17Z"></path><path d="M387.36,222.62H366.6l-10.37-18,10.37-18h20.76l10.37,18Zm-20.18-1h19.6l9.8-17-9.8-17h-19.6l-9.8,17Z"></path><path d="M419.21,241.18H398.46l-10.38-18,10.38-18h20.75l10.37,18Zm-20.18-1h19.6l9.8-17-9.8-17H399l-9.8,17Z"></path><path d="M291.79,203.72H271l-10.38-18,10.38-18h20.75l10.38,18Zm-20.17-1h19.6l9.8-17-9.8-17h-19.6l-9.8,17Z"></path><polygon points="323.65 222.27 302.89 222.27 292.52 204.3 295.15 199.74 296.01 200.24 293.67 204.3 303.47 221.27 323.07 221.27 332.87 204.3 323.07 187.33 303.47 187.33 300.17 193.05 299.3 192.55 302.89 186.33 323.65 186.33 334.02 204.3 323.65 222.27"></polygon><path d="M355.5,240.83H334.75l-10.38-18,10.38-18H355.5l10.38,18Zm-20.17-1h19.59l9.8-17-9.8-17H335.33l-9.8,17Z"></path><path d="M387.36,259.38H366.6l-10.37-18,10.37-18h20.76l10.37,18Zm-20.18-1h19.6l9.8-17-9.8-17h-19.6l-9.8,17Z"></path><path d="M419.21,277.93H398.46l-10.38-18,10.38-18h20.75l10.37,18Zm-20.18-1h19.6l9.8-17-9.8-17H399l-9.8,17Z"></path><path d="M291.79,240.48H271l-10.38-18,10.38-18h20.75l10.38,18Zm-20.17-1h19.6l9.8-17-9.8-17h-19.6l-9.8,17Z"></path><path d="M323.65,259H302.89l-10.37-18,10.37-18h20.76l10.37,18Zm-20.18-1h19.6l9.8-17-9.8-17h-19.6l-9.8,17Z"></path><path d="M355.5,277.58H334.75l-10.38-18,10.38-18H355.5l10.38,18Zm-20.17-1h19.59l9.8-17-9.8-17H335.33l-9.8,17Z"></path><path d="M387.36,296.13H366.6l-10.37-18,10.37-18h20.76l10.37,18Zm-20.18-1h19.6l9.8-17-9.8-17h-19.6l-9.8,17Z"></path><polygon points="419.21 314.69 398.45 314.69 388.08 296.71 391.06 291.55 391.93 292.05 389.23 296.71 399.03 313.69 418.63 313.69 428.43 296.71 418.63 279.74 399.03 279.74 396.47 284.18 395.61 283.68 398.45 278.74 419.21 278.74 429.58 296.71 419.21 314.69"></polygon><path d="M291.79,277.23H271l-10.38-18,10.38-18h20.75l10.38,18Zm-20.17-1h19.6l9.8-17-9.8-17h-19.6l-9.8,17Z"></path><path d="M323.65,295.78H302.89l-10.37-18,10.37-18h20.76l10.37,18Zm-20.18-1h19.6l9.8-17-9.8-17h-19.6l-9.8,17Z"></path><path d="M355.5,314.33H334.75l-10.38-18,10.38-18H355.5l10.38,18Zm-20.17-1h19.59l9.8-17-9.8-17H335.33l-9.8,17Z"></path><path d="M387.36,332.89H366.6l-10.37-18,10.37-18h20.76l10.37,18Zm-20.18-1h19.6l9.8-17-9.8-17h-19.6l-9.8,17Z"></path><path d="M451.09,259.38H430.33L420,241.4l10.37-18h20.76l10.37,18Zm-20.18-1h19.6l9.8-17-9.8-17h-19.6l-9.8,17Z"></path><path d="M451.09,296.13H430.33l-10.37-18,10.37-18h20.76l10.37,18Zm-20.18-1h19.6l9.8-17-9.8-17h-19.6l-9.8,17Z"></path><polygon points="451.09 332.89 430.33 332.89 419.95 314.91 423.41 308.94 424.27 309.44 421.11 314.91 430.91 331.89 450.51 331.89 460.31 314.91 450.51 297.94 430.91 297.94 427.95 303.06 427.09 302.56 430.33 296.94 451.09 296.94 461.46 314.91 451.09 332.89"></polygon><path d="M419.21,351.44H398.46l-10.38-18,10.38-18h20.75l10.37,18Zm-20.18-1h19.6l9.8-17-9.8-17H399l-9.8,17Z"></path><path d="M291.79,314H271l-10.38-18L271,278h20.75l10.38,18Zm-20.17-1h19.6l9.8-17-9.8-17h-19.6l-9.8,17Z"></path><path d="M323.65,332.54H302.89l-10.37-18,10.37-18h20.76l10.37,18Zm-20.18-1h19.6l9.8-17-9.8-17h-19.6l-9.8,17Z"></path><path d="M355.5,351.09H334.75l-10.38-18,10.38-18H355.5l10.38,18Zm-20.17-1h19.59l9.8-17-9.8-17H335.33l-9.8,17Z"></path><path d="M387.36,369.64H366.6l-10.37-18,10.37-18h20.76l10.37,18Zm-20.18-1h19.6l9.8-17-9.8-17h-19.6l-9.8,17Z"></path><path d="M419.21,388.19H398.46l-10.38-18,10.38-18h20.75l10.37,18Zm-20.18-1h19.6l9.8-17-9.8-17H399l-9.8,17Z"></path><path d="M291.79,350.61H271l-10.38-18,10.38-18h20.75l10.38,18Zm-20.17-1h19.6l9.8-17-9.8-17h-19.6l-9.8,17Z"></path><path d="M323.65,369.17H302.89l-10.37-18,10.37-18h20.76l10.37,18Zm-20.18-1h19.6l9.8-17-9.8-17h-19.6l-9.8,17Z"></path><path d="M355.5,387.72H334.75l-10.38-18,10.38-18H355.5l10.38,18Zm-20.17-1h19.59l9.8-17-9.8-17H335.33l-9.8,17Z"></path><path d="M387.36,406.27H366.6l-10.37-18,10.37-18h20.76l10.37,18Zm-20.18-1h19.6l9.8-17-9.8-17h-19.6l-9.8,17Z"></path></g><g style="opacity:0.2"><path d="M260.48,111.66H239.72l-10.37-18,10.37-18h20.76l10.37,18Zm-20.18-1h19.6l9.8-17-9.8-17H240.3l-9.8,17Z"></path><path d="M260.48,148.41H239.72l-10.37-18,10.37-18h20.76l10.37,18Zm-20.18-1h19.6l9.8-17-9.8-17H240.3l-9.8,17Z"></path><path d="M260.48,185.17H239.72l-10.37-18,10.37-18h20.76l10.37,18Zm-20.18-1h19.6l9.8-17-9.8-17H240.3l-9.8,17Z"></path><path d="M260.48,221.92H239.72l-10.37-18,10.37-18h20.76l10.37,18Zm-20.18-1h19.6l9.8-17-9.8-17H240.3l-9.8,17Z"></path><path d="M260.48,258.68H239.72l-10.37-18,10.37-18h20.76l10.37,18Zm-20.18-1h19.6l9.8-17-9.8-17H240.3l-9.8,17Z"></path><path d="M260.48,295.43H239.72l-10.37-18,10.37-18h20.76l10.37,18Zm-20.18-1h19.6l9.8-17-9.8-17H240.3l-9.8,17Z"></path><path d="M228.62,130.21H207.87l-10.38-18,10.38-18h20.75l10.38,18Zm-20.17-1H228l9.8-17-9.8-17H208.45l-9.8,17Z"></path><polygon points="196.77 148.76 176.02 148.76 165.64 130.79 170.66 122.1 171.52 122.6 166.79 130.79 176.59 147.76 196.19 147.76 205.99 130.79 196.19 113.82 176.59 113.82 174.06 118.21 173.19 117.71 176.02 112.82 196.77 112.82 207.15 130.79 196.77 148.76"></polygon><path d="M164.91,167.32H144.16l-10.37-18,10.37-18h20.75l10.38,18Zm-20.17-1h19.6l9.8-17-9.8-17h-19.6l-9.8,17Z"></path><path d="M133.06,185.87H112.31l-10.38-18,10.38-18h20.75l10.38,18Zm-20.17-1h19.59l9.8-17-9.8-17H112.89l-9.8,17Z"></path><path d="M101.21,204.42H80.45l-10.37-18,10.37-18h20.76l10.37,18Zm-20.18-1h19.6l9.8-17-9.8-17H81l-9.8,17Z"></path><polygon points="228.62 166.97 207.87 166.97 197.49 148.99 200.16 144.37 201.03 144.87 198.65 148.99 208.45 165.97 228.04 165.97 237.84 148.99 228.04 132.02 208.45 132.02 205.24 137.57 204.38 137.07 207.87 131.02 228.62 131.02 239 148.99 228.62 166.97"></polygon><path d="M196.77,185.52H176l-10.38-18,10.38-18h20.75l10.38,18Zm-20.18-1h19.6l9.8-17-9.8-17h-19.6l-9.8,17Z"></path><path d="M164.91,204.07H144.16l-10.37-18,10.37-18h20.75l10.38,18Zm-20.17-1h19.6l9.8-17-9.8-17h-19.6l-9.8,17Z"></path><path d="M133.06,222.62H112.31l-10.38-18,10.38-18h20.75l10.38,18Zm-20.17-1h19.59l9.8-17-9.8-17H112.89l-9.8,17Z"></path><polygon points="101.21 241.18 80.45 241.18 70.08 223.2 80.45 205.23 101.21 205.23 105.59 212.83 104.73 213.33 100.63 206.23 81.03 206.23 71.23 223.2 81.03 240.18 100.63 240.18 110.43 223.2 106.47 216.35 107.34 215.85 111.58 223.2 101.21 241.18"></polygon><path d="M228.62,203.72H207.87l-10.38-18,10.38-18h20.75l10.38,18Zm-20.17-1H228l9.8-17-9.8-17H208.45l-9.8,17Z"></path><polygon points="196.77 222.27 176.02 222.27 165.64 204.3 169.58 197.47 170.45 197.97 166.79 204.3 176.59 221.27 196.19 221.27 205.99 204.3 196.19 187.33 176.59 187.33 173.52 192.65 172.65 192.15 176.02 186.33 196.77 186.33 207.15 204.3 196.77 222.27"></polygon><path d="M164.91,240.83H144.16l-10.37-18,10.37-18h20.75l10.38,18Zm-20.17-1h19.6l9.8-17-9.8-17h-19.6l-9.8,17Z"></path><polygon points="133.06 259.38 112.31 259.38 101.93 241.41 112.31 223.43 133.06 223.43 143.44 241.41 140.74 246.08 139.87 245.58 142.28 241.41 132.48 224.43 112.89 224.43 103.08 241.41 112.89 258.38 132.48 258.38 136.71 251.06 137.57 251.56 133.06 259.38"></polygon><polygon points="101.21 277.93 91.45 277.93 91.45 276.93 100.63 276.93 110.43 259.96 100.63 242.98 81.03 242.98 71.23 259.96 81.03 276.93 85.31 276.93 85.31 277.93 80.45 277.93 70.08 259.96 80.45 241.98 101.21 241.98 111.58 259.96 101.21 277.93"></polygon><path d="M228.62,240.48H207.87l-10.38-18,10.38-18h20.75l10.38,18Zm-20.17-1H228l9.8-17-9.8-17H208.45l-9.8,17Z"></path><path d="M196.77,259H176l-10.38-18,10.38-18h20.75l10.38,18Zm-20.18-1h19.6l9.8-17-9.8-17h-19.6l-9.8,17Z"></path><path d="M164.91,277.58H144.16l-10.37-18,10.37-18h20.75l10.38,18Zm-20.17-1h19.6l9.8-17-9.8-17h-19.6l-9.8,17Z"></path><path d="M133.06,296.13H112.31l-10.38-18,10.38-18h20.75l10.38,18Zm-20.17-1h19.59l9.8-17-9.8-17H112.89l-9.8,17Z"></path><path d="M69.85,259.38H49.1l-10.38-18,10.38-18H69.85l10.38,18Zm-20.18-1h19.6l9.8-17-9.8-17H49.67l-9.8,17Z"></path><polygon points="69.85 296.13 49.09 296.13 38.72 278.16 41.9 272.66 42.76 273.16 39.87 278.16 49.67 295.13 69.27 295.13 79.07 278.16 69.27 261.19 49.67 261.19 46.44 266.78 45.58 266.28 49.09 260.19 69.85 260.19 80.22 278.16 69.85 296.13"></polygon><path d="M101.21,314.68H80.45l-10.37-18,10.37-18h20.76l10.37,18Zm-20.18-1h19.6l9.8-17-9.8-17H81l-9.8,17Z"></path><path d="M228.62,277.23H207.87l-10.38-18,10.38-18h20.75l10.38,18Zm-20.17-1H228l9.8-17-9.8-17H208.45l-9.8,17Z"></path><path d="M196.77,295.78H176l-10.38-18,10.38-18h20.75l10.38,18Zm-20.18-1h19.6l9.8-17-9.8-17h-19.6l-9.8,17Z"></path><path d="M164.91,314.33H144.16l-10.37-18,10.37-18h20.75l10.38,18Zm-20.17-1h19.6l9.8-17-9.8-17h-19.6l-9.8,17Z"></path><path d="M133.06,332.89H112.31l-10.38-18,10.38-18h20.75l10.38,18Zm-20.17-1h19.59l9.8-17-9.8-17H112.89l-9.8,17Z"></path><path d="M69.79,332.89H49l-10.38-18,10.38-18H69.79l10.38,18Zm-20.18-1h19.6l9.8-17-9.8-17H49.61l-9.8,17Z"></path><polygon points="101.21 351.44 93.58 351.44 93.58 350.44 100.63 350.44 110.43 333.47 100.63 316.49 81.03 316.49 71.23 333.47 81.03 350.44 88.79 350.44 88.79 351.44 80.45 351.44 70.08 333.47 80.45 315.49 101.21 315.49 111.58 333.47 101.21 351.44"></polygon><path d="M228.62,314H207.87l-10.38-18,10.38-18h20.75L239,296Zm-20.17-1H228l9.8-17L228,279H208.45l-9.8,17Z"></path><path d="M196.77,332.54H176l-10.38-18,10.38-18h20.75l10.38,18Zm-20.18-1h19.6l9.8-17-9.8-17h-19.6l-9.8,17Z"></path><path d="M164.91,351.09H144.16l-10.37-18,10.37-18h20.75l10.38,18Zm-20.17-1h19.6l9.8-17-9.8-17h-19.6l-9.8,17Z"></path><path d="M133.06,369.64H112.31l-10.38-18,10.38-18h20.75l10.38,18Zm-20.17-1h19.59l9.8-17-9.8-17H112.89l-9.8,17Z"></path><path d="M260.48,332.06H239.72l-10.37-18,10.37-18h20.76l10.37,18Zm-20.18-1h19.6l9.8-17-9.8-17H240.3l-9.8,17Z"></path><path d="M228.62,350.61H207.87l-10.38-18,10.38-18h20.75l10.38,18Zm-20.17-1H228l9.8-17-9.8-17H208.45l-9.8,17Z"></path><path d="M196.77,369.17H176l-10.38-18,10.38-18h20.75l10.38,18Zm-20.18-1h19.6l9.8-17-9.8-17h-19.6l-9.8,17Z"></path><path d="M164.91,387.72H144.16l-10.37-18,10.37-18h20.75l10.38,18Zm-20.17-1h19.6l9.8-17-9.8-17h-19.6l-9.8,17Z"></path><path d="M133.06,406.27H112.31l-10.38-18,10.38-18h20.75l10.38,18Zm-20.17-1h19.59l9.8-17-9.8-17H112.89l-9.8,17Z"></path><path d="M101.21,388.19H80.45l-10.37-18,10.37-18h20.76l10.37,18Zm-20.18-1h19.6l9.8-17-9.8-17H81l-9.8,17Z"></path></g></g><g id="honey-stick"><path d="M224.46,177s10.17,15,10.93,19.58,0,77.35,0,77.35h11.3V200.57s1.17-7.14,4.49-11.47,4.49.17,8-3.15,4.82-8.81,6.15-9.48l1.33-.66Z" style="fill:#92E3A9"></path><path d="M259.16,186c3.49-3.33,4.82-8.81,6.15-9.48l1.33-.66L224.46,177s10.17,15,10.93,19.58c.25,1.46.33,9.8.34,20.51h0L237,203s2.76-8.28,5.25-6.9,2.48,10.21,2.48,10.21l2,17.44V200.57s1.17-7.14,4.49-11.47S255.67,189.27,259.16,186Z" style="opacity:0.18"></path><path d="M367.24,5.48l-58.89,67s-10.6,15.16-19.48,25.22c0,0-8.08,5.46-10.22,6.83s-7.87,8.9-7.87,8.9l7.07,6.25,7.08,6.25s6.77-6.61,7.86-8.91,5.51-11,5.51-11c8.88-10.06,22.62-22.45,22.62-22.45l61.49-69.91" style="fill:#92E3A9"></path><path d="M284.94,126.57,270.1,113.46l.28-.37c.24-.31,5.8-7.62,8-9,2-1.3,9.45-6.31,10.16-6.79,8.75-9.92,19.29-25,19.4-25.13l58.92-67,.75.66-58.89,67C308.65,72.87,298,88,289.24,98l-.09.09c-.08,0-8.11,5.47-10.23,6.83-1.79,1.14-6.29,6.9-7.46,8.42l13.45,11.87c1.36-1.35,6.52-6.53,7.43-8.44,1.09-2.27,5.47-10.91,5.51-11l.07-.11c8.8-10,22.53-22.37,22.67-22.49L382,13.3l.75.66L321.3,83.87c-.18.17-13.82,12.49-22.58,22.4-.39.76-4.44,8.76-5.48,10.92-1.12,2.35-7.69,8.78-8,9Z" style="fill:#263238"></path><polygon points="291.2 144.99 293.81 138.25 277.75 119.76 257.99 107.09 251.05 109.53 237.98 117.43 224.68 133.5 218.71 152.11 216.6 162.1 229.95 173.88 243.29 185.67 253.46 182.33 271.55 172.86 284.98 158.94 291.2 144.99" style="fill:#263238"></polygon><path d="M243.17,186.23l-27.11-23.95L218.22,152l6.08-18.82L237.72,117l13.16-8,7.17-2.51,20.07,12.89,16.27,18.72-2.73,7-6.32,14.09-13.56,14-18.09,9.46Zm-26-24.31,26.26,23.18,9.9-3.25,17.94-9.39,13.31-13.81,6.18-13.85,2.5-6.45-15.82-18.21-19.5-12.5L251.26,110l-12.95,7.83-13.18,15.94-5.95,18.51Z" style="fill:#263238"></path><rect x="251.76" y="116.27" width="51.87" height="9.15" rx="4.28" transform="matrix(0.75, 0.66, -0.66, 0.75, 149.54, -153.55)" style="fill:#92E3A9"></rect><path d="M293.72,140.18a4.73,4.73,0,0,1-3.16-1.2L258.1,110.32a4.8,4.8,0,0,1-1.6-3.29,4.71,4.71,0,0,1,1.19-3.46l.38-.44a4.79,4.79,0,0,1,6.76-.42l32.45,28.66a4.78,4.78,0,0,1,.42,6.75l-.39.44a4.73,4.73,0,0,1-3.29,1.61Zm-2.5-2a3.78,3.78,0,0,0,2.74.94,3.73,3.73,0,0,0,2.6-1.27l.39-.44a3.79,3.79,0,0,0-.33-5.34l-32.46-28.66a3.79,3.79,0,0,0-5.34.33l-.38.44a3.79,3.79,0,0,0,.33,5.34Z" style="fill:#263238"></path><rect x="213.16" y="159.97" width="51.87" height="9.15" rx="4.28" transform="translate(168.81 -117.06) rotate(41.45)" style="fill:#92E3A9"></rect><path d="M255.12,183.88a4.74,4.74,0,0,1-3.16-1.19L219.51,154a4.78,4.78,0,0,1-.42-6.75l.39-.44a4.78,4.78,0,0,1,6.75-.42l32.45,28.67a4.78,4.78,0,0,1,.42,6.75l-.38.44a4.77,4.77,0,0,1-3.29,1.61Zm-32.05-37.66h-.24a3.81,3.81,0,0,0-2.6,1.27l-.39.44a3.79,3.79,0,0,0,.33,5.34l32.45,28.67a3.8,3.8,0,0,0,5.35-.33l.38-.44a3.78,3.78,0,0,0-.33-5.34l-32.45-28.67A3.79,3.79,0,0,0,223.07,146.22Z" style="fill:#263238"></path><rect x="208.09" y="170.9" width="42.71" height="9.15" rx="4.28" transform="translate(173.62 -107.93) rotate(41.45)" style="fill:#92E3A9"></rect><path d="M242.05,191.78a4.74,4.74,0,0,1-3.17-1.2L213.29,168a4.78,4.78,0,0,1-.42-6.75l.39-.44a4.78,4.78,0,0,1,6.75-.42L245.6,183a4.79,4.79,0,0,1,.42,6.76l-.38.43A4.8,4.8,0,0,1,242.05,191.78Zm-2.5-1.95a3.78,3.78,0,0,0,5.34-.33l.38-.44a3.78,3.78,0,0,0-.33-5.34l-25.59-22.6a3.79,3.79,0,0,0-5.34.33l-.39.44a3.79,3.79,0,0,0,.33,5.34Z" style="fill:#263238"></path><rect x="236.86" y="125.9" width="61.36" height="10.85" rx="4.28" transform="translate(153.93 -144.21) rotate(41.45)" style="fill:#92E3A9"></rect><path d="M286.56,154.43a4.77,4.77,0,0,1-3.16-1.19l-39.57-34.95a4.78,4.78,0,0,1-.42-6.75l1.51-1.71a4.78,4.78,0,0,1,6.75-.42l39.57,34.94a4.79,4.79,0,0,1,.42,6.76l-1.51,1.71a4.72,4.72,0,0,1-3.29,1.6Zm-2.5-1.94a3.77,3.77,0,0,0,5.34-.34l1.51-1.71a3.79,3.79,0,0,0-.33-5.34L251,110.16a3.79,3.79,0,0,0-5.34.33l-1.51,1.71a3.79,3.79,0,0,0,.33,5.34Z" style="fill:#263238"></path><rect x="217.56" y="147.75" width="61.36" height="10.85" rx="4.28" transform="translate(163.57 -125.96) rotate(41.45)" style="fill:#92E3A9"></rect><path d="M267.26,176.29a4.73,4.73,0,0,1-3.16-1.2l-39.57-35a4.79,4.79,0,0,1-.42-6.75l1.51-1.71a4.79,4.79,0,0,1,6.75-.42l39.57,35a4.78,4.78,0,0,1,.42,6.75l-1.51,1.71a4.73,4.73,0,0,1-3.29,1.61Zm-2.5-1.95a3.79,3.79,0,0,0,5.34-.33l1.51-1.71a3.79,3.79,0,0,0-.33-5.34l-39.57-35a3.79,3.79,0,0,0-5.34.33l-1.51,1.71a3.79,3.79,0,0,0,.33,5.34Z" style="fill:#263238"></path><rect x="222.64" y="136.82" width="70.49" height="10.85" rx="4.28" transform="translate(158.75 -135.08) rotate(41.45)" style="fill:#92E3A9"></rect><path d="M280.33,168.38a4.75,4.75,0,0,1-3.16-1.2l-46.41-41a4.78,4.78,0,0,1-.42-6.75l1.51-1.71a4.73,4.73,0,0,1,3.29-1.61,4.78,4.78,0,0,1,3.46,1.19l46.41,41a4.79,4.79,0,0,1,.42,6.76l-1.51,1.71a4.76,4.76,0,0,1-3.29,1.6Zm-2.5-1.95a3.78,3.78,0,0,0,2.74.94,3.73,3.73,0,0,0,2.6-1.27l1.51-1.71a3.77,3.77,0,0,0-.33-5.34l-46.41-41a3.77,3.77,0,0,0-2.74-.94,3.81,3.81,0,0,0-2.6,1.27l-1.51,1.71a3.79,3.79,0,0,0,.33,5.34Z" style="fill:#263238"></path><ellipse cx="244.65" cy="206.69" rx="0.64" ry="9.83" style="fill:#fff"></ellipse><path d="M223.56,168.1c4,3.7,7,6.92,6.75,7.18s-3.65-2.54-7.62-6.25-7-6.92-6.75-7.18S219.59,164.39,223.56,168.1Z" style="fill:#fff"></path><path d="M231.31,155.32c4,3.7,7,6.92,6.75,7.18s-3.66-2.54-7.63-6.25-7-6.92-6.75-7.18S227.34,151.61,231.31,155.32Z" style="fill:#fff"></path><path d="M236.92,138.28c4,3.7,7,6.92,6.75,7.18s-3.65-2.54-7.62-6.25-7-6.92-6.75-7.18S233,134.57,236.92,138.28Z" style="fill:#fff"></path><path d="M244.09,125.69c4,3.71,7,6.92,6.75,7.18s-3.66-2.54-7.63-6.24-7-6.93-6.75-7.18S240.12,122,244.09,125.69Z" style="fill:#fff"></path><ellipse cx="256.04" cy="116.86" rx="0.64" ry="9.83" transform="translate(-4.13 224.22) rotate(-46.95)" style="fill:#fff"></ellipse><path d="M269.46,109.62c4,3.7,7,6.92,6.74,7.18s-3.65-2.54-7.62-6.25-7-6.92-6.75-7.18S265.49,105.91,269.46,109.62Z" style="fill:#fff"></path></g><g id="flower-1"><path d="M151.94,400.22s-.06-1.45-2.31-3.06c-.67-1.76-5-2.63-3.3-5.26,4.38-5.25,14-13.13,4.75-20-.19-1.54-.33-2.92-.37-4.07-.09-2.32-.14-3.76-.14-3.76-.12-3.18,2.21-10.17,5.77-10.16,0,0,7.07,7.18,6.76,10.44,0,0-.31,3.23-.73,7.75-.05.8-.09,1.63-.11,2.52,3.33,6.8-4.55,12-2.56,18.48a6.09,6.09,0,0,1,.35,3.39c-.21,2.29-.35,3.73-.35,3.73Z" style="fill:#fff"></path><path d="M151.46,400.72l0-.48c0-.05-.15-1.28-2.1-2.68l-.12-.08-.05-.14a4.33,4.33,0,0,0-1.57-1.47c-1.29-.92-3.06-2.18-1.68-4.25.63-.77,1.34-1.54,2.08-2.36,3-3.35,6.82-7.51,6.44-11.5-.2-2-1.39-3.79-3.66-5.48l-.17-.13,0-.21c-.21-1.8-.33-3.07-.37-4.11l-.14-3.77c-.1-2.62,1.26-7.07,3.38-9.26a4,4,0,0,1,2.9-1.41h.2l.15.15c.74.75,7.22,7.44,6.9,10.84l-.74,7.74c0,.75-.07,1.53-.09,2.38,1.79,3.78.32,7.08-1.1,10.28-1.21,2.73-2.35,5.3-1.51,8.1a6.57,6.57,0,0,1,.39,3.64l-.39,4.18ZM150,396.83a5.84,5.84,0,0,1,2.31,2.89l6.9,0,.31-3.28a5.66,5.66,0,0,0-.3-3.1l0-.09c-1-3.18.3-6.07,1.54-8.86,1.4-3.15,2.72-6.13,1.05-9.55l-.05-.11v-.12c0-.9.06-1.74.11-2.54l.73-7.77c.23-2.42-4.44-7.8-6.46-9.88a3.21,3.21,0,0,0-2,1.09c-2,2.11-3.18,6.4-3.1,8.54l.14,3.76c0,1,.14,2.16.34,3.82,2.36,1.8,3.67,3.84,3.88,6.06.43,4.42-3.52,8.77-6.69,12.26-.73.81-1.43,1.57-2,2.29-.73,1.1-.12,1.71,1.46,2.83A5.41,5.41,0,0,1,150,396.83Z"></path><path d="M145.47,402.56l-1.84-3.38c-8.68-2.9-7.8-10.78-5.17-16.91,1.75-4.37-4.38-3.5-6.84-5.29-.8-1.31-1.49-2.54-2.05-3.58L127.72,370c-1.56-2.85,1.44-9.79,1.44-9.79,3.35-1.32,8.93,2.42,10.14,5.51l1.38,3.53c.42,1.09,1,2.36,1.71,3.76,11.82,2.25,6.57,11,1.32,18.88-1.75,1.75,2.62,4.38,5,5a15.56,15.56,0,0,1,3.51,1.86l.37,1Z" style="fill:#fff"></path><path d="M145.25,403.19l-2-3.6a10.1,10.1,0,0,1-6.28-5.28c-1.79-4-.45-8.86,1-12.23a2.24,2.24,0,0,0,.12-1.84c-.44-.86-1.94-1.23-3.38-1.58a10,10,0,0,1-3.42-1.28l-.13-.14c-.87-1.43-1.59-2.74-2.06-3.6l-1.85-3.39c-1.65-3,1.29-9.94,1.42-10.23l.08-.19.2-.08a6.77,6.77,0,0,1,5,.46c2.64,1.16,5,3.35,5.79,5.33l1.38,3.54c.37,1,.89,2.1,1.59,3.5,3.7.74,6,2.16,6.86,4.34,1.68,4-1.63,9.5-5.47,15.26a.83.83,0,0,0-.29.83c.34,1.29,3.21,2.94,5,3.43a13.69,13.69,0,0,1,3.16,1.61l.48.3.14.09.61,1.57ZM132,376.63a10.15,10.15,0,0,0,3,1.06c1.66.41,3.38.83,4,2.09a3.16,3.16,0,0,1-.09,2.68c-1.37,3.2-2.65,7.77-1,11.44a9.2,9.2,0,0,0,5.88,4.8l.18.06,1.73,3.17,6.21-2.48-.13-.34-.36-.23a12.84,12.84,0,0,0-2.91-1.49c-1.63-.44-5.13-2.19-5.64-4.13a1.7,1.7,0,0,1,.48-1.71c3.48-5.23,6.8-10.7,5.32-14.25-.79-1.88-2.88-3.12-6.38-3.79l-.24-.05-.11-.22c-.76-1.52-1.33-2.76-1.73-3.79l-1.38-3.54c-.67-1.73-2.89-3.74-5.26-4.78a6,6,0,0,0-4-.51c-.84,2-2.51,7.06-1.37,9.15l1.85,3.39C130.46,374,131.16,375.25,132,376.63Z"></path><path d="M140.64,407.05l-8.76-6.57-2.18-1.63c-3.5-4.32-10.5-6.07-13.95-10.24a29,29,0,0,0-3-2.44l-3.23-2.42c-2.72-2-4-9.17-4-9.17,2.46-2.42,10.11-1.33,12.62,1.06,0,0,3.39,3.21,7.78,7.39a7.18,7.18,0,0,0,2.74.39,3,3,0,0,1,3.62,1.48C133.2,391,135,398,142,399.19a20.45,20.45,0,0,1,3,2l.78.73Z" style="fill:#fff"></path><path d="M140.68,407.71l-11.37-8.55c-1.71-2.12-4.38-3.65-7-5.12s-5.22-3-7-5.11a29.48,29.48,0,0,0-2.86-2.36l-3.23-2.42c-2.85-2.14-4.14-9.18-4.2-9.48l0-.26.18-.19c2.65-2.6,10.55-1.59,13.33,1l7.72,7.34a7.3,7.3,0,0,0,2.39.31,3.44,3.44,0,0,1,4.13,1.75l0,.16c.9,6.25,2.7,12.78,9.28,13.86l.15.06a20.33,20.33,0,0,1,2.89,1.85l.2.15,1.19,1.13Zm-10.63-9.23,10.54,7.91,4.51-4.49-.56-.5a19.39,19.39,0,0,0-2.69-1.73c-7.12-1.22-9.06-8.06-10-14.62a2.51,2.51,0,0,0-3-1.15l-.07,0h-.07a7.43,7.43,0,0,1-2.94-.44l-.13-.08-7.78-7.4c-2.33-2.21-9.3-3.21-11.74-1.24.26,1.31,1.51,6.91,3.76,8.59l3.23,2.42a28.52,28.52,0,0,1,3,2.49c1.68,2,4.14,3.42,6.74,4.91S128.22,396.24,130.05,398.48Z"></path><path d="M138.27,412.9l-12.35-3.17-2.24-.64c-.1-2.31-2.73-2.31-3.6-3.19-8.76-6.12-31.48-2.51-30.41-4.82,5.47-11.8,30.41-6.55,41.33,1.61l3.83,1.44,5.82,2.18Z" style="fill:#fff"></path><path d="M138.58,413.5l-12.78-3.29-1.37-.39-1.24-.35v-.36c-.05-1.16-.84-1.57-2-2.06a4.49,4.49,0,0,1-1.42-.79c-5.21-3.65-15.91-3.71-23-3.75-5,0-7-.08-7.48-.87a.78.78,0,0,1,0-.77c1.49-3.21,4.39-5.38,8.63-6.45,10.23-2.58,25.5,2,33.4,7.83l10,3.77Zm-14.44-4.8.56.16,1.36.39L138,412.3l2.06-5.69-9.31-3.52c-7.54-5.63-22.79-10.18-32.62-7.7-3.86,1-6.52,2.91-7.89,5.76.73.32,3.81.34,6.55.36,7.2,0,18.08.11,23.62,4a3.64,3.64,0,0,0,1.16.63C122.53,406.54,123.9,407.1,124.14,408.7Z"></path><path d="M138.77,419.1l-40.21,5c-3.52.44-10.09-4-10.09-4-.37-3.25,5.43-7,9.1-7.1l40.37-.74Z" style="fill:#fff"></path><path d="M98.06,424.63c-3.73,0-9.61-4-9.87-4.16l-.19-.13,0-.22a4.77,4.77,0,0,1,1.43-3.58,12.74,12.74,0,0,1,8.16-4.08l40.82-.75.94,7.83-40.7,5.06A5.12,5.12,0,0,1,98.06,424.63ZM89,419.78c1.12.73,6.58,4.19,9.55,3.82l39.71-4.93-.72-5.94-39.91.73a11.78,11.78,0,0,0-7.43,3.74A4.21,4.21,0,0,0,89,419.78Z"></path><path d="M142.06,424.59l-34.45,19.15c-3,1.67-10.19,3-12,.25,0,0,2.65-8.68,6-10.07l36.54-15.31Z" style="fill:#fff"></path><path d="M99.94,446.06c-2,0-3.87-.48-4.71-1.8l-.13-.19.07-.22c.11-.37,2.76-8.93,6.25-10.39L138.35,418l4.42,6.79-34.92,19.4A18.6,18.6,0,0,1,99.94,446.06ZM96.2,443.9c1.79,2.21,8.39.94,11.17-.6l34-18.88L138,419.23l-36.16,15.15C99.35,435.41,97,441.39,96.2,443.9Z"></path><path d="M129.19,458.08c3.49-3,3.76-9,3.14-14.54-.88-4.38,5.25-3.5,8-6.78a8.47,8.47,0,0,0,2.29-1.87l4.91-6.48-6.29-4.05-11.23,11.58c-.83.74-2.1,1.56-3.28,2.44-5.82,2.53-5.82,11.28-11.66,13.75a2.3,2.3,0,0,0-1.5,1.52,29,29,0,0,0-1.28,4.43Z" style="fill:#fff"></path><path d="M129.37,458.58H111.73l.1-.58a26.39,26.39,0,0,1,1.12-4l.19-.54a2.78,2.78,0,0,1,1.83-1.84c2.71-1.15,4.09-3.81,5.55-6.63s3-5.73,6-7.08l1.18-.84c.77-.55,1.5-1.06,2-1.53l11.48-11.86,7.09,4.57-5.23,6.91a9.31,9.31,0,0,1-2.37,2,10.83,10.83,0,0,1-4.5,2.63c-2.43.94-3.79,1.56-3.37,3.65.82,7.4-.29,12.44-3.31,15Zm-16.44-1H129c2.65-2.39,3.6-7.09,2.83-14-.59-3,1.74-3.86,4-4.73a9.76,9.76,0,0,0,4.16-2.42l.14-.11a8,8,0,0,0,2.16-1.78l4.55-6L141.35,425l-10.94,11.29a26.42,26.42,0,0,1-2.14,1.62l-1.21.87-.09.06c-2.74,1.19-4.11,3.84-5.56,6.64s-3,5.8-6.11,7.11a1.83,1.83,0,0,0-1.22,1.23l-.18.54A28.41,28.41,0,0,0,112.93,457.58Z"></path><path d="M140.19,458.08h9c.12-.24.25-.5.39-.76,2.89-5-.61-10.28,1.52-15.62a5.35,5.35,0,0,0,1.25-1.76l2-10-7.59-1.42-1.22,3.58c-.37,1.11-.82,2.41-1.37,3.84-5.7,3.26-8.33,8.51-3.08,16.39C142.57,454.27,141.81,456.25,140.19,458.08Z" style="fill:#fff"></path><path d="M149.48,458.58h-10.4l.74-.83c1.74-2,2-3.62.86-5.16-2.5-3.76-3.41-7.16-2.7-10.14.63-2.71,2.58-5,5.77-6.89.5-1.31.93-2.53,1.31-3.66l1.35-4,8.52,1.59L152.83,440a5.41,5.41,0,0,1-1.32,1.94c-.91,2.36-.67,4.78-.45,7.12.27,2.78.55,5.66-1.06,8.47l-.38.73Zm-8.25-1h7.64l.25-.49c1.47-2.55,1.22-5.15.95-7.9-.24-2.48-.49-5.06.55-7.68l.11-.17a4.68,4.68,0,0,0,1.15-1.58l1.87-9.46-6.67-1.25L146,432.22c-.4,1.19-.84,2.47-1.38,3.86l-.06.17-.15.08c-3,1.74-4.88,3.88-5.46,6.35-.64,2.7.22,5.84,2.55,9.33C142.76,453.69,142.67,455.57,141.23,457.58Z"></path><path d="M155.4,442.84a68.48,68.48,0,0,1,1.49,10.57c.12.86.24,1.7.35,2.51s.21,1.47.31,2.16h11.81l-8.15-29.27-7.59,1.45s.62,4.38,1.42,10.07C155.16,441.14,155.28,442,155.4,442.84Z" style="fill:#fff"></path><path d="M170,458.58h-12.9l-.72-5.1a46.92,46.92,0,0,0-1-8.08c-.16-.84-.32-1.66-.45-2.48l-1.85-13.06,8.51-1.63Zm-12-1H168.7l-7.84-28.19-6.67,1.28,1.7,12.09q.21,1.22.45,2.46a46.41,46.41,0,0,1,1,8.18Z"></path><path d="M177.1,453.52c3.05,1,4,2.38,5.81,4.56h8.31a8.59,8.59,0,0,1,.62-3.17c2.63-6.12-5.25-7.87-8.68-11.1l-1.83-2.09L167,425.32l-6.27,4.08,15,22.12C176.21,452.21,176.67,452.88,177.1,453.52Z" style="fill:#fff"></path><path d="M191.7,458.58h-9l-.69-.82c-1.53-1.81-2.45-2.91-5.05-3.77l-.16-.05-1.46-2.13L160,429.26l7.06-4.6,16.46,18.82a21.11,21.11,0,0,0,3.47,2.39c3.45,2.08,7.35,4.43,5.29,9.24a8.61,8.61,0,0,0-.58,3Zm-8.56-1h7.62a8,8,0,0,1,.63-2.89c1.71-4-1.5-5.92-4.89-8a22.51,22.51,0,0,1-3.68-2.55L166.9,426l-5.48,3.57,16,23.56c2.75.94,3.84,2.24,5.33,4Z"></path><path d="M170.68,420l35.82,17a6.06,6.06,0,0,1,2,1.46c.59.6,1.66,1.41,2.6,2.38,3.54,2.64,0,10.51-2.59,8.76-5.25-4.37-11.38-7.87-17.11-8.4l-1.89-1.17-22.66-14Z" style="fill:#fff"></path><path d="M209.26,450.41a2,2,0,0,1-1.07-.33c-4.19-3.49-10.48-7.74-16.87-8.32h-.12l-25.09-15.56,4.38-6.8,36.22,17.22a6.55,6.55,0,0,1,2.12,1.57c.23.24.57.53.94.85s1.1,1,1.65,1.53c2.54,1.88,1.76,6.11.22,8.29A3.12,3.12,0,0,1,209.26,450.41Zm-17.73-9.63c6.61.64,13,5,17.26,8.5.81.54,1.7-.52,2-1,1.33-1.9,1.95-5.47-.07-7-.58-.59-1.15-1.08-1.65-1.52s-.75-.65-1-.91a5.61,5.61,0,0,0-1.82-1.36l-35.42-16.84-3.35,5.21Z"></path><path d="M171.63,413.87l12.81.81,2.44.25c9.34,5,19.84.6,29.47-.27,4.37-.88,3.5,4.37,1.57,8h0c-.4,3.25-3.82,5.5-7.42,4.89l-39.66-6.77Z" style="fill:#fff"></path><path d="M211.68,428.12a7.88,7.88,0,0,1-1.27-.11l-40.12-6.84.9-7.83,13.28.84,1.9.2.74.11c6.69,3.56,14.1,2.2,21.27.88,2.62-.48,5.32-1,7.92-1.21a2.84,2.84,0,0,1,3.1.88c1.25,1.68.36,5.17-1,7.74a5.86,5.86,0,0,1-2.4,3.93A7.21,7.21,0,0,1,211.68,428.12Zm-40.29-7.78L210.58,427a6.31,6.31,0,0,0,4.83-1.11,4.9,4.9,0,0,0,2-3.34l.06-.18c1.25-2.32,2.06-5.48,1.12-6.76q-.6-.79-2.16-.48c-2.6.24-5.29.73-7.88,1.21-7.31,1.34-14.86,2.72-21.83-.94l-.46-.05-1.88-.19-12.32-.78Z"></path><path d="M169.69,407.89l38.16-12.34c2.51-.81,9.24,1.8,10.9,3.48.47.55-3.18,1.85-3.76,2.56-6,8.62-17.9,13.07-28.12,9.84l-2.32.44-12.44,2.6Z" style="fill:#fff"></path><path d="M171.79,415.05,169,407.58l38.66-12.5c2.68-.88,9.6,1.77,11.4,3.6a.67.67,0,0,1,.18.59c-.11.55-.85,1-2.25,1.66a8.78,8.78,0,0,0-1.66,1c-6.27,9-18.26,13.21-28.53,10l-2.2.41Zm-1.45-6.84,2.09,5.68,14.47-3,.12,0c9.73,3.06,21.58-1.08,27.56-9.65a6.78,6.78,0,0,1,2-1.27,14,14,0,0,0,1.57-.88c-1.85-1.58-7.93-3.85-10.14-3.13Z"></path><path d="M165.19,403.13,194.43,378c2.56-2.2,13.89-1.22,13.89-1.22,2.44,2.44-2.82,7.74-5.74,9.72L170.4,408.27Z" style="fill:#fff"></path><path d="M170.34,408.91l-5.88-5.8,29.64-25.47c2.65-2.27,13.08-1.44,14.26-1.33h.18l.13.13a2.64,2.64,0,0,1,.76,2.23c-.29,3.07-4.55,6.89-6.57,8.25Zm-4.41-5.75,4.53,4.46L202.3,386.1c2.43-1.64,5.91-5.17,6.14-7.51a1.68,1.68,0,0,0-.36-1.3c-3.24-.27-11.4-.55-13.33,1.11Z"></path><path d="M158.91,400.42l4.3-9.45c.32-.71.61-1.41.88-2.05-.25-1.4,1.5-3.15,2.34-4.9.44-1,.85-2,1.25-2.88,3.4-7.47,6.48-14.26,6.48-14.26,1.34-2.94,7.32-7.45,10.56-6.15,0,0,2.53,8.09.76,10.95L166,403.22Z" style="fill:#fff"></path><path d="M166.22,403.84l-8-3.15,4.51-9.93c.3-.66.57-1.3.82-1.91-.11-1.06.62-2.16,1.38-3.33a16.28,16.28,0,0,0,1-1.72c.23-.51.45-1,.66-1.53s.39-.91.58-1.33l6.49-14.27c1.34-2.95,7.5-7.88,11.2-6.4l.22.09.07.22c.11.34,2.58,8.34.71,11.36Zm-6.63-3.69,6.22,2.45,19.25-31.18c1.3-2.12,0-7.93-.74-10.3-2.94-.88-8.41,3.14-9.7,6l-6.49,14.26-.57,1.31c-.22.51-.44,1-.68,1.56a15,15,0,0,1-1.1,1.85c-.65,1-1.33,2-1.2,2.76l0,.15,0,.13c-.29.69-.57,1.37-.88,2.07Z"></path><path d="M156,399.92s.34-1.41.87-3.68c-.92-1.71-1.8-3.46-.92-5.21,2.62-5.26,8.75-7.88,6.43-16.21a8.93,8.93,0,0,1,.17-2.66c1.06-4.46,1.81-7.65,1.81-7.65.73-3.11,4.59-9,8-8.22,0,0,5.22,8.06,4.05,11.16l-12.9,34.11Z" style="fill:#fff"></path><path d="M163.87,402.14l-8.46-1.83.94-4c-.85-1.59-1.83-3.53-.84-5.51a23.89,23.89,0,0,1,3.06-4.35c2.51-3.05,4.89-5.92,3.33-11.49a9.34,9.34,0,0,1,.17-2.89l1.81-7.68c.72-3.05,4.74-9.47,8.64-8.59l.2,0,.11.18c.55.84,5.33,8.37,4.1,11.61Zm-7.25-2.6,6.62,1.44L176,367.27c.86-2.28-2.41-8.2-3.89-10.53-3-.41-6.56,4.93-7.26,7.88l-1.8,7.65a8.63,8.63,0,0,0-.17,2.5c1.68,6-1,9.21-3.54,12.32a22.58,22.58,0,0,0-2.93,4.16c-.74,1.46,0,3,.91,4.75l.09.17Z"></path><path d="M149.11,400.83l-.24-1a14,14,0,0,0-3.13-2.21c-2-.47-4.66-2.22-4.66-4,.88-7.88,15.75-15.75,1.58-20.63-.5-1.45-.92-2.77-1.19-3.9-.55-2.26-.89-3.68-.89-3.68-.74-3.1,1.14-9.8,4.65-10.35,0,0,7.4,5.4,7.74,8.65,0,0,.15,1.44.4,3.73.12,1.15.3,2.51.54,4,3.29,13.32-1.45,14.25-2.33,21.26,0,.87,3.5,1.75,4.77,3.08l.39,3.72Z" style="fill:#fff"></path><path d="M148.73,401.39l-.31-1.28c-.11-.08-.21-.18-.33-.28a11.15,11.15,0,0,0-2.52-1.74c-2.06-.49-5-2.34-5-4.44.32-2.88,2.29-5.62,4.19-8.26,2.08-2.89,4-5.62,3.33-7.86-.5-1.59-2.33-2.91-5.6-4l-.23-.08-.08-.23c-.56-1.61-.95-2.9-1.21-3.95l-.88-3.68A12.59,12.59,0,0,1,142,357a4.87,4.87,0,0,1,3.2-2.36l.21,0,.16.13c.31.22,7.59,5.56,7.95,9l.39,3.73c.12,1.1.3,2.46.55,4,2.24,9.08.75,12.58-.69,16a19,19,0,0,0-1.63,5.34,7.06,7.06,0,0,0,1.76,1,10.12,10.12,0,0,1,2.86,1.75l.12.12.46,4.37Zm-5.67-28.76c3.44,1.22,5.4,2.72,6,4.6.86,2.72-1.25,5.64-3.48,8.74-1.83,2.54-3.72,5.17-4,7.74,0,1.32,2.34,3,4.28,3.42l.11,0a12.33,12.33,0,0,1,2.78,1.91l.43.36.13.11.17.71,6.72-1.09-.33-3.08a10.47,10.47,0,0,0-2.45-1.42c-1.36-.65-2.34-1.12-2.34-1.89A19.85,19.85,0,0,1,152.8,387c1.44-3.38,2.8-6.57.63-15.38-.26-1.63-.44-3-.56-4.12l-.39-3.73c-.26-2.41-5.25-6.59-7.37-8.17a4.31,4.31,0,0,0-2.33,1.89,11.63,11.63,0,0,0-1.71,7.81L142,369C142.19,370,142.55,371.16,143.06,372.63Z"></path><path d="M143.21,404.15l-2.49-3c-5.77-3.08-8.39-9.21-10.14-16.21-.88-.88-2.63-.88-4.52-1.92-.57-.58-1.1-1.19-1.61-1.75l-5.17-6.31c-2.1-2.57-.38-9.4-.38-9.4,3-1.83,9.13.5,10.92,3.35l2.06,3.27c.64,1,1.41,2.18,2.32,3.44,13,1.44,6,9.32,6,18.07,0,.88,2.62,2.63,4.65,3.75a13.9,13.9,0,0,1,4.21,2l.55.88Z" style="fill:#fff"></path><path d="M143.1,404.8l-2.7-3.3c-6.25-3.39-8.71-10.14-10.27-16.33a5.12,5.12,0,0,0-1.73-.74,12.4,12.4,0,0,1-2.58-1l-.12-.09c-.38-.39-.74-.79-1.09-1.18l-.53-.58-5.19-6.34c-2.23-2.72-.55-9.54-.47-9.83l0-.2.17-.11c3.29-2,9.63.38,11.61,3.52l2.06,3.26c.72,1.15,1.43,2.21,2.17,3.24,3.71.44,6,1.42,7.17,3.08,1.56,2.2.88,5.14.1,8.55a30.83,30.83,0,0,0-1,6.91c0,.37,1.45,1.68,4.39,3.31a14.38,14.38,0,0,1,4.28,2l.11.12.82,1.31Zm-16.74-22.22a12.55,12.55,0,0,0,2.33.9,5.14,5.14,0,0,1,2.24,1.06l.1.1,0,.14c1.52,6.05,3.88,12.67,9.9,15.89l.15.12,2.21,2.71,5.61-3.42-.24-.37a13.72,13.72,0,0,0-4-1.83c-1.92-1.06-5-3-5-4.23a32,32,0,0,1,1.06-7.14c.73-3.17,1.37-5.91.07-7.74-1-1.43-3.2-2.31-6.69-2.69l-.22,0-.13-.18c-.8-1.1-1.56-2.23-2.34-3.47l-2.06-3.26c-1.65-2.62-7.24-4.77-10.06-3.29-.47,2-1.21,6.88.33,8.75l5.68,6.88C125.68,381.84,126,382.21,126.36,382.58Z"></path><path d="M139.34,409.33l-5.5-2.82-3.63-1.85c-7.51-10.13-20.64-8.38-31.14-12.76-.87,0,0-2.63,2.11-4.1-.2-.71-3.43-1.37-3.31-2.11s3.6-1.54,4.08-2.21h0A6.74,6.74,0,0,1,111,382l9.12,6.06,2.28,1.51c4.66,2.38,9,5.88,13.42,9.14,1.09.54,1.8,1,2.51,1.42l5.06,3.36Z" style="fill:#fff"></path><path d="M139.5,410l-9.62-4.92-.07-.1c-4.85-6.54-12-8-19.59-9.52a61.72,61.72,0,0,1-11.27-3,.79.79,0,0,1-.66-.57c-.28-.88.6-2.77,2.13-4.06-.3-.16-.76-.35-1.07-.48-1.13-.48-2.1-.89-2-1.67s1-1,2.46-1.61a8.26,8.26,0,0,0,1.7-.81,7.23,7.23,0,0,1,9.75-1.65l11.41,7.56a82,82,0,0,1,11.37,7.61l2.06,1.55c.92.45,1.6.86,2.26,1.26l.22.13,5.51,3.65Zm-9-5.71,8.64,4.42,3.53-5.11-4.84-3.2c-.64-.38-1.3-.79-2.26-1.26l-2.14-1.6A81,81,0,0,0,122.19,390l-2.32-1.54-9.13-6.05a6.3,6.3,0,0,0-8.39,1.39,5.15,5.15,0,0,1-2.14,1.17,11.32,11.32,0,0,0-1.76.81,9.17,9.17,0,0,0,1.29.62c1.09.46,1.77.77,1.92,1.31l.09.34-.29.2a5.3,5.3,0,0,0-2.23,3.21l0,0a60.24,60.24,0,0,0,11.16,3C117.81,395.94,125.46,397.49,130.54,404.26Z"></path><path d="M138.17,415.46l-27.61-2.53-2.22-.21a24.24,24.24,0,0,0-7.27-.65l-3.29-.31a7.13,7.13,0,0,1-2.43-.69,3.31,3.31,0,0,1-1.49-1.23c2.59-8.31,16.59-9.19,25.34-9.19,4.38,0,6.13,4.38,9.79,5.91l4,.81,6.16,1.23Z" style="fill:#fff"></path><path d="M138.59,416l-30.3-2.78a24,24,0,0,0-7.22-.65l-3.33-.32a7.31,7.31,0,0,1-2.62-.73,4,4,0,0,1-1.71-1.46l-.08-.18.06-.19c2-6.42,10.44-9.54,25.81-9.54,2.81,0,4.6,1.66,6.33,3.27a13.09,13.09,0,0,0,3.65,2.68l10.59,2.11Zm-36.07-4.44a20.59,20.59,0,0,1,6,.68l2.13.19,27.13,2.49.9-5.92-9.75-1.95a13.58,13.58,0,0,1-4-2.89c-1.66-1.55-3.24-3-5.65-3-14.7,0-22.81,2.82-24.79,8.63a3.83,3.83,0,0,0,1.16.84,6.46,6.46,0,0,0,2.26.64l3.28.31Z"></path><path d="M139.89,421.49l-38.58,11.26c-3.38,1-10.15,1.64-11.13-1.41,0,0,4.35-8.76,7.94-9.4l39.59-7.09Z" style="fill:#fff"></path><path d="M95.48,434.08c-2.66,0-5.15-.62-5.78-2.58l-.06-.2.09-.18c.18-.37,4.5-9,8.3-9.67l40-7.17,2.48,7.55-39.08,11.4A22.78,22.78,0,0,1,95.48,434.08Zm-4.76-2.71c1,2.25,6.75,2,10.45.9l38.08-11.11-1.88-5.74-39.16,7C95.54,422.91,92,428.87,90.72,431.37Z"></path><path d="M144.22,426.37l-8.48,6.84-2.12,1.71c-8.29,2.49-10.92,13-19.43,16-.73.25-1.49.62-2.28.84-2.38.71-10.28,1.26-10.28,1.26-2.35-2.51,1.64-9.24,4.63-11.13l32.93-20.83Z" style="fill:#fff"></path><path d="M101.43,453.57l-.16-.17a3.74,3.74,0,0,1-.8-3.16,14.41,14.41,0,0,1,5.53-8.73l33.27-21.05,5.69,6-11.2,9c-4,1.21-6.68,4.39-9.47,7.75s-5.59,6.73-9.93,8.28l-.9.35a13.23,13.23,0,0,1-1.42.5c-2.39.72-10.05,1.25-10.37,1.27Zm37.68-31.83-32.58,20.61a13.76,13.76,0,0,0-5.07,8,3,3,0,0,0,.39,2.17c1.37-.1,7.85-.6,9.91-1.22a11.46,11.46,0,0,0,1.32-.47c.33-.13.64-.26,1-.36,4.07-1.46,6.82-4.77,9.48-8s5.58-6.72,9.86-8l10.1-8.15Z"></path><path d="M125.28,458.08h14.27c2.67-3.76,1.7-9.18-.22-13.67-1.75-3.5,3.5-4.37,5.53-6.14a4.47,4.47,0,0,0,2-1.86l3.55-7.15-7-3L137.6,435a15.86,15.86,0,0,1-3,2.24c-10.1,3.68-3.1,12.43-5.72,18.56A12.52,12.52,0,0,1,125.28,458.08Z" style="fill:#fff"></path><path d="M139.81,458.58H123l2-.95a12.24,12.24,0,0,0,3.34-2.13c.84-2.07.55-4.55.26-6.95-.55-4.57-1.12-9.3,5.71-11.79a15.34,15.34,0,0,0,2.84-2.1l6-9,7.86,3.37-3.78,7.62a5,5,0,0,1-2.16,2.06,12.69,12.69,0,0,1-2.38,1.42c-2.49,1.27-3.93,2.17-3,4.08,1.45,3.38,3.38,9.67.18,14.18Zm-12.5-1h12c2.71-4.1.91-9.87-.42-13-1.45-2.9,1.26-4.28,3.43-5.39a11.5,11.5,0,0,0,2.23-1.33l.12-.07a4,4,0,0,0,1.78-1.68l3.29-6.63-6.13-2.62-5.65,8.47a16.15,16.15,0,0,1-3.14,2.3c-6.16,2.26-5.69,6.2-5.14,10.77.31,2.57.63,5.22-.37,7.56l-.11.15A10.15,10.15,0,0,1,127.31,457.58Z"></path><path d="M147.15,458.08h10.28l-.07-28.42-7.76-.2-1,7.73a3.19,3.19,0,0,1-1,2c-3,.88-2.16,3.5-2.16,5.25C147.5,449.17,148.47,453.93,147.15,458.08Z" style="fill:#fff"></path><path d="M157.93,458.58H146.46l.21-.65c1.16-3.64.61-8-1.67-13.32l0-.2c0-.29,0-.62-.06-1-.13-1.64-.31-3.89,2.47-4.75a2.81,2.81,0,0,0,.73-1.62l1.07-8.14,8.69.23Zm-10.12-1h9.12l-.07-27.43L150,430l-.95,7.28a3.63,3.63,0,0,1-1.15,2.29l-.18.1c-2.11.61-2,2.13-1.86,3.74,0,.32,0,.64.06.93C148.17,449.51,148.78,453.87,147.81,457.58Z"></path><path d="M179,458.08a3.76,3.76,0,0,1-.32-1.43c-.42-.88-1.05-1.88-1.74-3.25l-13-25.9-7.18,2.63,9.8,27.95Z" style="fill:#fff"></path><path d="M179.73,458.58H166.17l-10.08-28.75,8.06-2.95,13.21,26.29c.34.68.66,1.26.95,1.78s.57,1,.79,1.49l.05.2a3.2,3.2,0,0,0,.28,1.24Zm-12.85-1h11.39a5.32,5.32,0,0,1-.12-.8c-.2-.42-.44-.85-.71-1.34s-.63-1.13-1-1.82l-12.81-25.5-6.3,2.31Z"></path><path d="M180.83,445.67c4.89,2.24,11,1.37,11,9.24a36.86,36.86,0,0,0,5.07,3.17h3.72c.84-1.24.72-4.16,0-9,0-4.37-1.78-7.33-6.34-7.56a10.61,10.61,0,0,1-3.67-1.05L168.9,423.16l-5.36,5s8.07,8.18,15.34,15.53Z" style="fill:#fff"></path><path d="M200.9,458.58l-4.2-.05a37.51,37.51,0,0,1-5.15-3.21l-.21-.15v-.26c0-5.54-3-6.4-6.89-7.48a26.6,26.6,0,0,1-3.83-1.3l-.15-.11-17.65-17.87,6.06-5.65,22,17.58a10.37,10.37,0,0,0,3.46,1c4.44.21,6.79,3,6.79,8.05.82,5.35.8,8-.08,9.24Zm-3.87-1h3.31c.71-1.46.3-5-.21-8.38,0-4.64-1.93-6.95-5.88-7.14a11.17,11.17,0,0,1-3.85-1.1l-.1-.06-21.37-17.08-4.67,4.36,16.86,17.07a26.31,26.31,0,0,0,3.6,1.22c3.7,1,7.51,2.11,7.62,8.18A36.29,36.29,0,0,0,197,457.58Z"></path><path d="M171.48,417.37l38.63,11.11c3.39,1,10.2,4.67,9,7.65l-5-.4a5.35,5.35,0,0,1-1.39,2A6.27,6.27,0,0,1,210.6,439a19.18,19.18,0,0,1-5-.08l-2.72-1.11-34-13.9Z" style="fill:#fff"></path><path d="M208.25,439.61a22,22,0,0,1-2.75-.21l-.12,0-37.16-15.19,3-7.4L210.25,428c2.52.73,7.79,3.25,9.16,6.08a2.65,2.65,0,0,1,.14,2.24l-.14.34-5-.4a6,6,0,0,1-1.37,1.82,6.87,6.87,0,0,1-2.25,1.37l-.13,0C209.68,439.56,209,439.61,208.25,439.61Zm-2.55-1.2a18.72,18.72,0,0,0,4.79.08,5.71,5.71,0,0,0,1.86-1.15,4.89,4.89,0,0,0,1.27-1.8l.14-.34,5,.4a1.82,1.82,0,0,0-.21-1.08c-1.08-2.23-5.7-4.74-8.53-5.56l-38.2-11-2.26,5.64Z"></path><path d="M171.2,411.16l15.18-1.46c.78,0,1.58-.07,2.37-.08a14.66,14.66,0,0,0,10.09,1.53c7-1.75,21.45-4.43,22.13-2.89,4.05,9.12-23,12.52-34,10l-2.45-.07-12.78-.13Z" style="fill:#fff"></path><path d="M195.78,419.57a41.37,41.37,0,0,1-8.88-.82l-.77,0-1.59,0-13.22-.14-.66-7.84,16-1.52c.69,0,1.39-.06,2.08-.07h.12l.11.05c3.5,1.74,6.78,2.24,9.75,1.5.22-.05,21.57-5.16,22.71-2.61a4.45,4.45,0,0,1-.7,5C217.16,417.36,205.39,419.57,195.78,419.57Zm-23.54-2,12.32.13,1.6,0,.87,0c8.86,2,28.4.13,32.93-5.37a3.5,3.5,0,0,0,.55-3.93c-1-.85-13,1.05-21.55,3.18-3.17.8-6.65.28-10.32-1.52-.64,0-1.29,0-1.94.07h-.3l-14.66,1.41Z"></path><path d="M168.1,405.58l35.12-18.16a6.67,6.67,0,0,1,8.69,2.21l3.93-2.57c1.72,2.89-3.62,9-7,10.34l-37.07,14.27Z" style="fill:#fff"></path><path d="M171.58,412.29l-4.18-6.91L203,387a7.2,7.2,0,0,1,9.07,2l3.94-2.58.27.45a3.78,3.78,0,0,1,.08,3.27,15.39,15.39,0,0,1-7.31,7.79Zm-2.77-6.51,3.19,5.27,36.68-14.12a14.44,14.44,0,0,0,6.73-7.18,3.51,3.51,0,0,0,.2-1.94l-3.86,2.53-.27-.45a6.22,6.22,0,0,0-8-2Z"></path><path d="M162.73,401.61l23.79-29.33c2.09-2.57,11.54-3.85,11.54-3.85,2.89,2,.65,8.52-1.83,10.92l-27.35,26.49Z" style="fill:#fff"></path><path d="M168.93,406.48,162,401.71,186.13,372c2.19-2.7,11.47-4,11.86-4l.2,0,.16.12a4,4,0,0,1,1.55,3.06,12.5,12.5,0,0,1-3.32,8.63Zm-5.47-5,5.36,3.69L195.88,379a11.54,11.54,0,0,0,3-7.83,3.07,3.07,0,0,0-1-2.22c-2.72.39-9.44,1.71-11,3.65Z"></path><rect x="151.08" y="447.41" width="1.97" height="1" transform="matrix(0.06, -1, 1, 0.06, -304.72, 570.79)"></rect><rect x="148.87" y="440.94" width="7.23" height="1" transform="matrix(0.06, -1, 1, 0.06, -297.86, 565.15)"></rect><rect x="180.72" y="421.91" width="1" height="5.86" transform="translate(-279.58 456.38) rotate(-70.81)"></rect><rect x="180.37" y="412.92" width="3.86" height="1" transform="translate(-25.48 12.2) rotate(-3.58)"></rect><rect x="177.82" y="400.89" width="12.8" height="1" transform="translate(-155.18 118.79) rotate(-25.56)"></rect><rect x="163.4" y="434.76" width="1" height="6.39" transform="matrix(0.94, -0.34, 0.34, 0.94, -138.65, 81.4)"></rect><rect x="171.99" y="429.08" width="1" height="5.62" transform="translate(-265.98 276.88) rotate(-48.76)"></rect><ellipse cx="154.8" cy="416.61" rx="30.48" ry="25.45" style="fill:#92E3A9"></ellipse><path d="M154.8,442.56c-17.08,0-31-11.64-31-25.95s13.9-25.95,31-25.95,31,11.64,31,25.95S171.88,442.56,154.8,442.56Zm0-50.9c-16.53,0-30,11.2-30,24.95s13.45,24.95,30,24.95,30-11.19,30-24.95S171.33,391.66,154.8,391.66Z" style="fill:#263238"></path><path d="M158,397.32a3.21,3.21,0,1,1-3.21-3.21A3.21,3.21,0,0,1,158,397.32Z" style="fill:#92E3A9"></path><path d="M154.78,401a3.71,3.71,0,1,1,3.71-3.71A3.72,3.72,0,0,1,154.78,401Zm0-6.42a2.71,2.71,0,1,0,2.71,2.71A2.72,2.72,0,0,0,154.78,394.61Z" style="fill:#263238"></path><path d="M140.1,420a3.21,3.21,0,1,1-3.2-3.21A3.2,3.2,0,0,1,140.1,420Z" style="fill:#92E3A9"></path><path d="M136.9,423.71a3.71,3.71,0,1,1,3.7-3.7A3.71,3.71,0,0,1,136.9,423.71Zm0-6.41a2.71,2.71,0,1,0,2.7,2.71A2.71,2.71,0,0,0,136.9,417.3Z" style="fill:#263238"></path><circle cx="127.01" cy="413.16" r="3.21" style="fill:#92E3A9"></circle><path d="M127,416.87a3.71,3.71,0,1,1,3.71-3.71A3.72,3.72,0,0,1,127,416.87Zm0-6.42a2.71,2.71,0,1,0,2.71,2.71A2.72,2.72,0,0,0,127,410.45Z" style="fill:#263238"></path><path d="M143.91,402.78a3.21,3.21,0,1,1-3.2-3.21A3.21,3.21,0,0,1,143.91,402.78Z" style="fill:#92E3A9"></path><path d="M140.71,406.49a3.71,3.71,0,1,1,3.7-3.71A3.72,3.72,0,0,1,140.71,406.49Zm0-6.42a2.71,2.71,0,1,0,2.7,2.71A2.71,2.71,0,0,0,140.71,400.07Z" style="fill:#263238"></path><path d="M143.59,426.47a3.21,3.21,0,1,1-3.21-3.2A3.21,3.21,0,0,1,143.59,426.47Z" style="fill:#92E3A9"></path><path d="M140.38,430.18a3.71,3.71,0,1,1,3.71-3.71A3.72,3.72,0,0,1,140.38,430.18Zm0-6.41a2.71,2.71,0,1,0,2.71,2.7A2.71,2.71,0,0,0,140.38,423.77Z" style="fill:#263238"></path><path d="M137.72,432.72a3.21,3.21,0,1,1-3.21-3.2A3.21,3.21,0,0,1,137.72,432.72Z" style="fill:#92E3A9"></path><path d="M134.51,436.43a3.71,3.71,0,1,1,3.71-3.71A3.72,3.72,0,0,1,134.51,436.43Zm0-6.41a2.71,2.71,0,1,0,2.71,2.7A2.71,2.71,0,0,0,134.51,430Z" style="fill:#263238"></path><path d="M140.65,407a3.21,3.21,0,1,1-3.2-3.21A3.2,3.2,0,0,1,140.65,407Z" style="fill:#92E3A9"></path><path d="M137.45,410.72a3.71,3.71,0,1,1,3.7-3.7A3.71,3.71,0,0,1,137.45,410.72Zm0-6.41a2.71,2.71,0,1,0,2.7,2.71A2.71,2.71,0,0,0,137.45,404.31Z" style="fill:#263238"></path><path d="M137.39,426.85a3.21,3.21,0,1,1-3.21-3.2A3.21,3.21,0,0,1,137.39,426.85Z" style="fill:#92E3A9"></path><path d="M134.18,430.56a3.71,3.71,0,1,1,3.71-3.71A3.71,3.71,0,0,1,134.18,430.56Zm0-6.41a2.71,2.71,0,1,0,2.71,2.7A2.7,2.7,0,0,0,134.18,424.15Z" style="fill:#263238"></path><circle cx="134.51" cy="412.51" r="3.21" style="fill:#92E3A9"></circle><path d="M134.51,416.21a3.71,3.71,0,1,1,3.71-3.7A3.71,3.71,0,0,1,134.51,416.21Zm0-6.41a2.71,2.71,0,1,0,2.71,2.71A2.71,2.71,0,0,0,134.51,409.8Z" style="fill:#263238"></path><path d="M153.94,394.77a3.21,3.21,0,1,1-3.21-3.2A3.21,3.21,0,0,1,153.94,394.77Z" style="fill:#92E3A9"></path><path d="M150.73,398.48a3.71,3.71,0,1,1,3.71-3.71A3.71,3.71,0,0,1,150.73,398.48Zm0-6.41a2.71,2.71,0,1,0,2.71,2.7A2.7,2.7,0,0,0,150.73,392.07Z" style="fill:#263238"></path><circle cx="130.14" cy="407.03" r="3.21" style="fill:#92E3A9"></circle><path d="M130.14,410.73a3.71,3.71,0,1,1,3.7-3.7A3.71,3.71,0,0,1,130.14,410.73Zm0-6.41a2.71,2.71,0,1,0,2.7,2.71A2.71,2.71,0,0,0,130.14,404.32Z" style="fill:#263238"></path><path d="M148.53,397.83a3.6,3.6,0,1,1-3.59-3.26A3.43,3.43,0,0,1,148.53,397.83Z" style="fill:#92E3A9"></path><path d="M144.94,401.6a3.78,3.78,0,1,1,4.09-3.77A3.94,3.94,0,0,1,144.94,401.6Zm0-6.53a2.78,2.78,0,1,0,3.09,2.76A2.94,2.94,0,0,0,144.94,395.07Z" style="fill:#263238"></path><ellipse cx="165" cy="398.25" rx="3.74" ry="3.5" style="fill:#92E3A9"></ellipse><path d="M165,402.25a4,4,0,1,1,4.25-4A4.13,4.13,0,0,1,165,402.25Zm0-7a3,3,0,1,0,3.25,3A3.12,3.12,0,0,0,165,395.25Z" style="fill:#263238"></path><path d="M175.42,404.12a3.75,3.75,0,1,1-3.74-3.5A3.63,3.63,0,0,1,175.42,404.12Z" style="fill:#92E3A9"></path><path d="M171.68,408.12a4,4,0,1,1,4.24-4A4.13,4.13,0,0,1,171.68,408.12Zm0-7a3,3,0,1,0,3.24,3A3.12,3.12,0,0,0,171.68,401.12Z" style="fill:#263238"></path><path d="M179.66,407.94a3.75,3.75,0,1,1-3.74-3.5A3.62,3.62,0,0,1,179.66,407.94Z" style="fill:#92E3A9"></path><path d="M175.92,411.94a4,4,0,1,1,4.24-4A4.13,4.13,0,0,1,175.92,411.94Zm0-7a3,3,0,1,0,3.24,3A3.13,3.13,0,0,0,175.92,404.94Z" style="fill:#263238"></path><ellipse cx="174.33" cy="414.74" rx="3.74" ry="3.5" style="fill:#92E3A9"></ellipse><path d="M174.33,418.74a4,4,0,1,1,4.24-4A4.13,4.13,0,0,1,174.33,418.74Zm0-7a3,3,0,1,0,3.24,3A3.14,3.14,0,0,0,174.33,411.74Z" style="fill:#263238"></path><ellipse cx="171.05" cy="422.28" rx="3.74" ry="3.5" style="fill:#92E3A9"></ellipse><path d="M171.05,426.28a4,4,0,1,1,4.25-4A4.13,4.13,0,0,1,171.05,426.28Zm0-7a3,3,0,1,0,3.25,3A3.13,3.13,0,0,0,171.05,419.28Z" style="fill:#263238"></path><path d="M177.27,427.36a3.75,3.75,0,1,1-3.75-3.5A3.63,3.63,0,0,1,177.27,427.36Z" style="fill:#92E3A9"></path><path d="M173.52,431.36a4,4,0,1,1,4.25-4A4.13,4.13,0,0,1,173.52,431.36Zm0-7a3,3,0,1,0,3.25,3A3.13,3.13,0,0,0,173.52,424.36Z" style="fill:#263238"></path><ellipse cx="168.05" cy="431.92" rx="3.74" ry="3.5" style="fill:#92E3A9"></ellipse><path d="M168.05,435.92a4,4,0,1,1,4.25-4A4.13,4.13,0,0,1,168.05,435.92Zm0-7a3,3,0,1,0,3.25,3A3.14,3.14,0,0,0,168.05,428.92Z" style="fill:#263238"></path><ellipse cx="178.06" cy="419.83" rx="3.74" ry="3.5" style="fill:#92E3A9"></ellipse><path d="M178.06,423.83a4,4,0,1,1,4.25-4A4.13,4.13,0,0,1,178.06,423.83Zm0-7a3,3,0,1,0,3.25,3A3.13,3.13,0,0,0,178.06,416.83Z" style="fill:#263238"></path><path d="M169.78,427.36a3.75,3.75,0,1,1-3.74-3.5A3.63,3.63,0,0,1,169.78,427.36Z" style="fill:#92E3A9"></path><path d="M166,431.36a4,4,0,1,1,4.24-4A4.14,4.14,0,0,1,166,431.36Zm0-7a3,3,0,1,0,3.24,3A3.13,3.13,0,0,0,166,424.36Z" style="fill:#263238"></path><ellipse cx="162.32" cy="434.39" rx="3.74" ry="3.5" style="fill:#92E3A9"></ellipse><path d="M162.32,438.39a4,4,0,1,1,4.25-4A4.13,4.13,0,0,1,162.32,438.39Zm0-7a3,3,0,1,0,3.25,3A3.13,3.13,0,0,0,162.32,431.39Z" style="fill:#263238"></path><path d="M159.77,431.28a3.75,3.75,0,1,1-3.74-3.5A3.63,3.63,0,0,1,159.77,431.28Z" style="fill:#92E3A9"></path><path d="M156,435.28a4,4,0,1,1,4.24-4A4.13,4.13,0,0,1,156,435.28Zm0-7a3,3,0,1,0,3.24,3A3.12,3.12,0,0,0,156,428.28Z" style="fill:#263238"></path><path d="M150.18,428.9a3.75,3.75,0,1,1-3.74-3.5A3.63,3.63,0,0,1,150.18,428.9Z" style="fill:#92E3A9"></path><path d="M146.44,432.9a4,4,0,1,1,4.24-4A4.14,4.14,0,0,1,146.44,432.9Zm0-7a3,3,0,1,0,3.24,3A3.13,3.13,0,0,0,146.44,425.9Z" style="fill:#263238"></path><path d="M143.33,432.26a3.75,3.75,0,1,1-3.74-3.5A3.63,3.63,0,0,1,143.33,432.26Z" style="fill:#92E3A9"></path><path d="M139.59,436.26a4,4,0,1,1,4.24-4A4.14,4.14,0,0,1,139.59,436.26Zm0-7a3,3,0,1,0,3.24,3A3.14,3.14,0,0,0,139.59,429.26Z" style="fill:#263238"></path><ellipse cx="148.56" cy="433.62" rx="3.74" ry="3.5" style="fill:#92E3A9"></ellipse><path d="M148.56,437.62a4,4,0,1,1,4.25-4A4.13,4.13,0,0,1,148.56,437.62Zm0-7a3,3,0,1,0,3.25,3A3.12,3.12,0,0,0,148.56,430.62Z" style="fill:#263238"></path><path d="M147,436.81a3.75,3.75,0,1,1-3.74-3.5A3.63,3.63,0,0,1,147,436.81Z" style="fill:#92E3A9"></path><path d="M143.25,440.81a4,4,0,1,1,4.24-4A4.13,4.13,0,0,1,143.25,440.81Zm0-7a3,3,0,1,0,3.24,3A3.14,3.14,0,0,0,143.25,433.81Z" style="fill:#263238"></path><path d="M154.21,438.13a3.75,3.75,0,1,1-3.74-3.5A3.63,3.63,0,0,1,154.21,438.13Z" style="fill:#92E3A9"></path><path d="M150.47,442.13a4,4,0,1,1,4.24-4A4.13,4.13,0,0,1,150.47,442.13Zm0-7a3,3,0,1,0,3.24,3A3.14,3.14,0,0,0,150.47,435.13Z" style="fill:#263238"></path><path d="M161.91,438.13a3.75,3.75,0,1,1-3.75-3.5A3.63,3.63,0,0,1,161.91,438.13Z" style="fill:#92E3A9"></path><path d="M158.16,442.13a4,4,0,1,1,4.25-4A4.13,4.13,0,0,1,158.16,442.13Zm0-7a3,3,0,1,0,3.25,3A3.13,3.13,0,0,0,158.16,435.13Z" style="fill:#263238"></path><ellipse cx="168.25" cy="436.27" rx="3.74" ry="3.5" style="fill:#92E3A9"></ellipse><path d="M168.25,440.27a4,4,0,1,1,4.24-4A4.13,4.13,0,0,1,168.25,440.27Zm0-7a3,3,0,1,0,3.24,3A3.12,3.12,0,0,0,168.25,433.28Z" style="fill:#263238"></path><path d="M179.48,431.7a3.75,3.75,0,1,1-3.75-3.5A3.63,3.63,0,0,1,179.48,431.7Z" style="fill:#92E3A9"></path><path d="M175.73,435.7a4,4,0,1,1,4.25-4A4.13,4.13,0,0,1,175.73,435.7Zm0-7a3,3,0,1,0,3.25,3A3.14,3.14,0,0,0,175.73,428.7Z" style="fill:#263238"></path><path d="M184,425a3.75,3.75,0,1,1-3.74-3.5A3.63,3.63,0,0,1,184,425Z" style="fill:#92E3A9"></path><path d="M180.3,429a4,4,0,1,1,4.24-4A4.13,4.13,0,0,1,180.3,429Zm0-7a3,3,0,1,0,3.24,3A3.12,3.12,0,0,0,180.3,422Z" style="fill:#263238"></path><ellipse cx="183.42" cy="416.33" rx="3.74" ry="3.5" style="fill:#92E3A9"></ellipse><path d="M183.42,420.33a4,4,0,1,1,4.24-4A4.13,4.13,0,0,1,183.42,420.33Zm0-7a3,3,0,1,0,3.24,3A3.14,3.14,0,0,0,183.42,413.33Z" style="fill:#263238"></path><path d="M185.53,409.16a3.75,3.75,0,1,1-3.74-3.5A3.63,3.63,0,0,1,185.53,409.16Z" style="fill:#92E3A9"></path><path d="M181.79,413.16a4,4,0,1,1,4.24-4A4.13,4.13,0,0,1,181.79,413.16Zm0-7a3,3,0,1,0,3.24,3A3.14,3.14,0,0,0,181.79,406.16Z" style="fill:#263238"></path><path d="M182.16,404.53a3.75,3.75,0,1,1-3.74-3.5A3.63,3.63,0,0,1,182.16,404.53Z" style="fill:#92E3A9"></path><path d="M178.42,408.53a4,4,0,1,1,4.24-4A4.13,4.13,0,0,1,178.42,408.53Zm0-7a3,3,0,1,0,3.24,3A3.14,3.14,0,0,0,178.42,401.53Z" style="fill:#263238"></path><ellipse cx="167.9" cy="395.54" rx="3.74" ry="3.5" style="fill:#92E3A9"></ellipse><path d="M167.9,399.54a4,4,0,1,1,4.24-4A4.14,4.14,0,0,1,167.9,399.54Zm0-7a3,3,0,1,0,3.24,3A3.13,3.13,0,0,0,167.9,392.54Z" style="fill:#263238"></path><path d="M159.17,392.48a3.75,3.75,0,1,1-3.74-3.49A3.62,3.62,0,0,1,159.17,392.48Z" style="fill:#92E3A9"></path><path d="M155.43,396.48a4,4,0,1,1,4.24-4A4.13,4.13,0,0,1,155.43,396.48Zm0-7a3,3,0,1,0,3.24,3A3.13,3.13,0,0,0,155.43,389.49Z" style="fill:#263238"></path><path d="M145.9,395.58a3.75,3.75,0,1,1-3.74-3.5A3.62,3.62,0,0,1,145.9,395.58Z" style="fill:#92E3A9"></path><path d="M142.16,399.58a4,4,0,1,1,4.24-4A4.13,4.13,0,0,1,142.16,399.58Zm0-7a3,3,0,1,0,3.24,3A3.14,3.14,0,0,0,142.16,392.58Z" style="fill:#263238"></path><path d="M139.2,400.08a3.75,3.75,0,1,1-3.75-3.5A3.63,3.63,0,0,1,139.2,400.08Z" style="fill:#92E3A9"></path><path d="M135.45,404.08a4,4,0,1,1,4.25-4A4.13,4.13,0,0,1,135.45,404.08Zm0-7a3,3,0,1,0,3.25,3A3.12,3.12,0,0,0,135.45,397.08Z" style="fill:#263238"></path><ellipse cx="127.23" cy="423.35" rx="3.74" ry="3.5" style="fill:#92E3A9"></ellipse><path d="M127.23,427.35a4,4,0,1,1,4.25-4A4.13,4.13,0,0,1,127.23,427.35Zm0-7a3,3,0,1,0,3.25,3A3.13,3.13,0,0,0,127.23,420.35Z" style="fill:#263238"></path><ellipse cx="129.95" cy="420.01" rx="3.74" ry="3.5" style="fill:#92E3A9"></ellipse><path d="M130,424a4,4,0,1,1,4.24-4A4.14,4.14,0,0,1,130,424Zm0-7a3,3,0,1,0,3.24,3A3.13,3.13,0,0,0,130,417Z" style="fill:#263238"></path><ellipse cx="161.26" cy="394.75" rx="3.74" ry="3.5" style="fill:#92E3A9"></ellipse><path d="M161.26,398.75a4,4,0,1,1,4.24-4A4.14,4.14,0,0,1,161.26,398.75Zm0-7a3,3,0,1,0,3.24,3A3.13,3.13,0,0,0,161.26,391.75Z" style="fill:#263238"></path><path d="M177.06,399.14a3.75,3.75,0,1,1-3.75-3.5A3.63,3.63,0,0,1,177.06,399.14Z" style="fill:#92E3A9"></path><path d="M173.31,403.14a4,4,0,1,1,4.25-4A4.13,4.13,0,0,1,173.31,403.14Zm0-7a3,3,0,1,0,3.25,3A3.13,3.13,0,0,0,173.31,396.14Z" style="fill:#263238"></path></g><g id="Jar"><path d="M338.77,318c-7.69-35.43-34.43-43.26-34.43-43.26h.5V218.31H183.07V274.7h.48s-26.74,7.83-34.43,43.26c-9.77,45,2.94,96.82,29.24,133.57a17.46,17.46,0,0,0,14.19,7.26H295.33a17.44,17.44,0,0,0,14.19-7.26C335.83,414.78,348.54,363,338.77,318Z" style="fill:#fff;opacity:0.36"></path><path d="M305.34,275.21H182.57v-57.4H305.34Zm-121.77-1H304.34v-55.4H183.57Z" style="fill:#263238"></path><path d="M206.23,250.33a2.23,2.23,0,0,1-.92-.19l-5.69-2.4a2.37,2.37,0,0,1-.84-3.75l4.4-4.93a2.4,2.4,0,0,1,1.34-.75l76.72-14.21a2.37,2.37,0,0,1,1.39.17l5.74,2.56a2.37,2.37,0,0,1,.77,3.77l-4.42,4.76a2.44,2.44,0,0,1-1.3.72l-76.76,14.21A2.15,2.15,0,0,1,206.23,250.33Zm75.44-25.27a1.07,1.07,0,0,0-.25,0l-76.72,14.2a1.37,1.37,0,0,0-.77.44l-4.4,4.92a1.38,1.38,0,0,0,.48,2.17l5.69,2.4a1.27,1.27,0,0,0,.77.09l76.77-14.22a1.3,1.3,0,0,0,.75-.41l4.41-4.76a1.36,1.36,0,0,0-.44-2.17l-5.74-2.57A1.3,1.3,0,0,0,281.67,225.06Z" style="fill:#263238"></path><rect x="274.94" y="230.32" width="6.4" height="1" transform="matrix(0.98, -0.18, 0.18, 0.98, -37.3, 54.36)" style="fill:#263238"></rect><rect x="204.05" y="237.81" width="67.35" height="1" transform="matrix(0.98, -0.18, 0.18, 0.98, -39.33, 47.14)" style="fill:#263238"></rect><path d="M298.41,252.65a2.6,2.6,0,0,1-.78-.13l-5.82-2.06a2.36,2.36,0,0,1-1.07-3.68l4.09-5.2a2.36,2.36,0,0,1,1.28-.83l6.05-1.58a2.31,2.31,0,0,1,1.4.08l5.89,2.2a2.33,2.33,0,0,1,1.45,1.6,2.37,2.37,0,0,1-.45,2.11l-4.12,5a2.34,2.34,0,0,1-1.25.79l-6.09,1.6A2.25,2.25,0,0,1,298.41,252.65Zm4.33-12.55a1.27,1.27,0,0,0-.34,0l-6,1.58a1.46,1.46,0,0,0-.75.48l-4.09,5.19a1.36,1.36,0,0,0-.23,1.23,1.34,1.34,0,0,0,.85.9l5.82,2a1.38,1.38,0,0,0,.78,0l6.1-1.6a1.33,1.33,0,0,0,.72-.46l4.11-5a1.35,1.35,0,0,0,.26-1.22,1.32,1.32,0,0,0-.83-.92l-5.89-2.21A1.26,1.26,0,0,0,302.74,240.1Z" style="fill:#263238"></path><rect x="296.29" y="245.57" width="6.4" height="1" transform="translate(-50.7 79.9) rotate(-14.02)" style="fill:#263238"></rect><rect x="292.23" y="246.87" width="4.42" height="1" transform="translate(-48.4 73.17) rotate(-13.1)" style="fill:#263238"></rect><path d="M184.93,242.8a3.05,3.05,0,0,1-.74-.08L177,241a2.32,2.32,0,0,1-1.76-1.55,2.26,2.26,0,0,1,.65-2.19l5.48-5.54a3.38,3.38,0,0,1,1.55-.86l7.71-2a3.37,3.37,0,0,1,1.64,0l7.26,1.86a2.15,2.15,0,0,1,1,3.76l-5.5,5.37a3.25,3.25,0,0,1-1.51.83l-7.77,2A3.53,3.53,0,0,1,184.93,242.8Zm6.55-13a2.47,2.47,0,0,0-.6.08l-7.72,2a2.3,2.3,0,0,0-1.08.6L176.6,238a1.25,1.25,0,0,0-.4,1.21,1.33,1.33,0,0,0,1,.85l7.2,1.71a2.41,2.41,0,0,0,1.1,0l7.77-2a2.27,2.27,0,0,0,1.06-.57l5.5-5.38a1.23,1.23,0,0,0,.42-1.21,1.28,1.28,0,0,0-1-.86L192,229.83A1.9,1.9,0,0,0,191.48,229.76Z" style="fill:#263238"></path><rect x="182.75" y="235.55" width="8.16" height="1" transform="translate(-51.8 52.53) rotate(-14.08)" style="fill:#263238"></rect><rect x="177.57" y="237.2" width="5.63" height="1" transform="translate(-49.94 48) rotate(-13.33)" style="fill:#263238"></rect><path d="M303.33,268.27H184.5a4.42,4.42,0,0,1-1.76-.35l-.1-.06-4.51-3.37a2.31,2.31,0,0,1-1.52-1.94,2.19,2.19,0,0,1,1.32-1.94l4.72-4.07a4.39,4.39,0,0,1,2-.44H303.38a4.52,4.52,0,0,1,1.82.37l.1.06,4.54,3.53a2.29,2.29,0,0,1,1.47,1.94,2.2,2.2,0,0,1-1.37,1.94l-4.7,3.91A4.42,4.42,0,0,1,303.33,268.27ZM183.19,267a3.47,3.47,0,0,0,1.31.25H303.33a3.47,3.47,0,0,0,1.42-.3l4.7-3.9a1.3,1.3,0,0,0,.86-1.06c0-.4-.36-.8-.93-1.06l-.1-.06-4.55-3.53a3.46,3.46,0,0,0-1.35-.26H184.62a3.44,3.44,0,0,0-1.46.31l-4.72,4.07c-.54.27-.84.65-.83,1s.38.82,1,1.08l.1.06Z" style="fill:#263238"></path><rect x="292.01" y="261.64" width="9.74" height="1" style="fill:#263238"></rect><rect x="183.07" y="261.64" width="102.52" height="1" style="fill:#263238"></rect><path d="M235.39,273.88s-7.46.79-5,2.17,18.9,3.43,17.18,6.52S220.37,298,208.35,301.82s21.65.69,36.08-3.09,44.68-7.91,34-11.34-20.27-1.72-12.71-4.82,12-5.49,7.56-5.84-26.61-2.85-26.61-2.85Z" style="fill:#92E3A9"></path><path d="M295.33,459.29H192.55A17.94,17.94,0,0,1,178,451.82c-27.23-38-38.74-90.61-29.33-134,7.66-35.32,34.5-43.56,34.77-43.63l.14,0,60.4-.67,60.48.67.06,0c.27.07,27.11,8.31,34.78,43.63,9.4,43.35-2.11,95.93-29.33,134A18,18,0,0,1,295.33,459.29ZM183.62,275.2c-1.44.46-26.66,9-34,42.87-9.35,43.09,2.09,95.36,29.16,133.17a17,17,0,0,0,13.78,7.05H295.33a17,17,0,0,0,13.79-7.05c27.06-37.81,38.51-90.09,29.16-133.17-7.36-33.92-32.58-42.41-34-42.87l-60.32-.66Z" style="fill:#263238"></path><path d="M207.59,274.44s48.77,2.41,43.95,10.23-34.18,14.81-50.57,12-32.11-7.06-32.11-7.06L163,307s104.15,1.2,127.63-.6S311.51,281,311.51,281l-11.21-5.36Z" style="opacity:0.18"></path><path d="M311.51,281c-40.75-.22-65.78,22.66-101.06,20.05-21.79-1.62-34.16-7.64-41-12.18A88.44,88.44,0,0,0,152.37,324c-9.44,41.95,2.83,90.58,28.24,124.82a17,17,0,0,0,13.7,6.76h99.26a17,17,0,0,0,13.71-6.76C332.68,414.62,345,366,335.52,324,331,304,319.69,289.37,311.51,281Z" style="fill:#92E3A9"></path><path d="M334.24,319.13C329.12,301.58,319,288.67,311.51,281c-40.75-.22-65.78,22.66-101.06,20.05-21.79-1.62-34.16-7.64-41-12.18a90.91,90.91,0,0,0-14.56,26.3c20.85-3.07,55.68-6.58,87.31-2.11C282.14,318.7,309.7,326.35,334.24,319.13Z" style="opacity:0.18"></path><path d="M323.94,296.64A98.1,98.1,0,0,0,311.51,281c-40.75-.22-65.78,22.66-101.06,20.05a114.68,114.68,0,0,1-18.37-2.78c-10.9-2.27-18.29-5.53-23.22-8.62-1.71,2.21-3.43,4.63-5.09,7.26,13.39,3.64,44.29,10.82,68,6.95C259,299.44,294.93,286.86,323.94,296.64Z" style="fill:#263238"></path><path d="M286.21,450c0,1.37-20.36,2.48-45.47,2.48s-45.48-1.11-45.48-2.48,20.36-2.48,45.48-2.48S286.21,448.61,286.21,450Z" style="fill:#fff"></path><path d="M304.49,446.52C328.74,412.42,340.26,365,331,324c-4.52-20.07-15.83-34.67-24-43a116.52,116.52,0,0,0-29.12,3.68c10.42,7.44,32.32,26.44,37.78,57.79,7.22,41.54-3.62,80.67-8.43,95.72C306.22,441.43,305.3,444.17,304.49,446.52Z" style="fill:#fff;opacity:0.5700000000000001"></path></g><g id="flower-2"><path d="M352.71,382.23s-.06-1.73-2.75-3.66c-.81-2.1-6-3.15-3.95-6.29,5.23-6.28,16.75-15.7,5.68-23.95-.23-1.84-.39-3.48-.44-4.86-.11-2.77-.18-4.5-.18-4.5-.14-3.8,2.65-12.16,6.91-12.14,0,0,8.45,8.58,8.08,12.47,0,0-.36,3.87-.87,9.27-.06,1-.1,2-.13,3,4,8.13-5.44,14.41-3.06,22.1a7.3,7.3,0,0,1,.42,4.05l-.42,4.47Z" style="fill:#fff"></path><path d="M352.23,382.73l0-.48c0-.05-.16-1.57-2.54-3.28l-.12-.08-.06-.14a5.28,5.28,0,0,0-1.9-1.81c-1.52-1.07-3.6-2.54-2-4.94.76-.91,1.6-1.83,2.49-2.81,3.64-4,8.18-9,7.72-13.83-.24-2.42-1.68-4.59-4.41-6.62l-.17-.13,0-.22c-.26-2.14-.4-3.65-.44-4.91l-.17-4.49c-.11-2.7,1.26-8.17,4-11a4.71,4.71,0,0,1,3.38-1.64h.22l.15.14c.35.36,8.61,8.8,8.22,12.88l-.88,9.27c-.05.9-.09,1.85-.12,2.87,2.15,4.5.4,8.43-1.29,12.23-1.46,3.28-2.84,6.39-1.81,9.78a7.72,7.72,0,0,1,.46,4.29l-.47,4.92Zm-1.87-4.49a6.76,6.76,0,0,1,2.76,3.49l8.42,0,.38-4a6.88,6.88,0,0,0-.36-3.77l0-.09c-1.17-3.77.36-7.2,1.83-10.52,1.69-3.8,3.28-7.38,1.26-11.51l-.05-.1v-.13c0-1.07.07-2.07.13-3l.88-9.28c.27-2.94-5.39-9.46-7.79-11.93a3.89,3.89,0,0,0-2.47,1.34c-2.46,2.54-3.83,7.7-3.73,10.28l.17,4.5c0,1.18.17,2.61.41,4.61,2.82,2.15,4.38,4.58,4.63,7.21.51,5.25-4.19,10.43-8,14.59-.88,1-1.72,1.89-2.43,2.74-1,1.47,0,2.3,1.78,3.53A6.44,6.44,0,0,1,350.36,378.24Z"></path><path d="M345,385l-2.21-4c-10.37-3.47-9.32-12.89-6.18-20.21,2.09-5.24-5.23-4.19-8.18-6.34-1-1.56-1.77-3-2.45-4.28l-2.21-4c-1.86-3.41,1.72-11.71,1.72-11.71,4-1.58,10.69,2.9,12.13,6.59l1.65,4.23c.5,1.3,1.21,2.82,2,4.49,14.14,2.69,7.86,13.16,1.58,22.58-2.09,2.09,3.14,5.23,5.95,6a18.35,18.35,0,0,1,4.19,2.22c.29.73.44,1.13.44,1.13Z" style="fill:#fff"></path><path d="M344.75,385.66l-2.32-4.27c-3.67-1.27-6.19-3.38-7.49-6.27-2.13-4.75-.53-10.54,1.19-14.55a2.73,2.73,0,0,0,.14-2.28c-.54-1.06-2.35-1.51-4.1-1.94a11.94,11.94,0,0,1-4.05-1.51l-.14-.15c-1-1.69-1.9-3.26-2.46-4.3l-2.21-4.05c-2-3.58,1.55-11.8,1.7-12.15l.08-.19.2-.08c2-.79,4.32-.13,5.89.55,3.14,1.37,6,4,6.88,6.33l1.65,4.23c.45,1.16,1.08,2.54,1.92,4.22,4.43.89,7.1,2.57,8.18,5.15,2,4.74-1.95,11.29-6.52,18.16a1,1,0,0,0-.36,1.07c.43,1.63,3.91,3.59,6,4.17a16.58,16.58,0,0,1,3.74,1.91l.58.37.15.09.68,1.75Zm-16-31.57a11.8,11.8,0,0,0,3.63,1.29c2,.48,4,1,4.75,2.45a3.65,3.65,0,0,1-.11,3.12c-1.64,3.84-3.18,9.34-1.2,13.76,1.2,2.68,3.58,4.63,7.08,5.8l.19.06,2.09,3.83,7.6-3-.2-.52-.46-.29a15.48,15.48,0,0,0-3.5-1.79c-2.07-.57-6.11-2.7-6.69-4.87a1.94,1.94,0,0,1,.56-2c4.18-6.29,8.17-12.86,6.37-17.14-1-2.29-3.47-3.8-7.69-4.6l-.24-.05-.11-.22c-.91-1.81-1.59-3.29-2.07-4.53l-1.65-4.23c-.82-2.09-3.49-4.52-6.35-5.77a7.1,7.1,0,0,0-4.93-.6c-.52,1.25-3.23,8.19-1.66,11.08l2.21,4C327,350.92,327.79,352.45,328.78,354.09Z"></path><path d="M339.2,390.4l-10.47-7.85-2.61-2c-4.19-5.17-12.56-7.26-16.69-12.24a33.07,33.07,0,0,0-3.52-2.92l-3.87-2.9c-3.26-2.44-4.79-11-4.79-11,2.95-2.9,12.1-1.59,15.1,1.26l9.31,8.85a8.44,8.44,0,0,0,3.28.45,3.57,3.57,0,0,1,4.32,1.78c1.05,7.32,3.14,15.7,11.59,17.09a24.5,24.5,0,0,1,3.62,2.35l.92.88Z" style="fill:#fff"></path><path d="M339.24,391.06,325.73,380.9c-2.06-2.55-5.27-4.38-8.36-6.15s-6.23-3.56-8.32-6.08a34.68,34.68,0,0,0-3.44-2.84l-3.87-2.89c-3.38-2.54-4.92-10.93-5-11.28l-.05-.26.19-.19c3.07-3,12.58-1.8,15.8,1.26l9.25,8.79a8.49,8.49,0,0,0,2.93.37,4,4,0,0,1,4.83,2.05l.05.16c1.07,7.51,3.24,15.36,11.17,16.66l.15.05a23.84,23.84,0,0,1,3.45,2.22l.24.18,1.34,1.27Zm-12.77-10.83,12.68,9.51,5.53-5.5-.76-.67a22.56,22.56,0,0,0-3.23-2.09c-8.48-1.45-10.79-9.6-11.91-17.42a3.1,3.1,0,0,0-3.71-1.44h-.15a8.78,8.78,0,0,1-3.48-.5l-.12-.09L312,353.19c-2.83-2.68-11.3-3.87-14.21-1.44.29,1.45,1.79,8.32,4.54,10.38l3.87,2.9a36.41,36.41,0,0,1,3.58,3c2,2.41,4.95,4.1,8.08,5.88S324.29,377.56,326.47,380.23Z"></path><path d="M336.36,397.39,321.6,393.6l-2.69-.76c-.12-2.77-3.26-2.77-4.3-3.81-10.47-7.33-37.65-3-36.37-5.77,6.54-14.11,36.37-7.84,49.43,1.92l4.58,1.73,7,2.61Z" style="fill:#fff"></path><path d="M336.68,398l-15.2-3.9-1.61-.46-1.44-.41,0-.36c-.06-1.55-1.24-2-2.5-2.56a5,5,0,0,1-1.66-.92c-6.27-4.38-19.08-4.46-27.56-4.51-5.88,0-8.3-.09-8.87-1a.84.84,0,0,1,0-.83c1.77-3.81,5.22-6.39,10.26-7.66,12.21-3.08,30.45,2.34,39.87,9.35l11.94,4.48Zm-17.3-5.54.76.22,1.6.45,14.31,3.68,2.52-7-11.2-4.23c-9.22-6.89-27.13-12.24-39.09-9.22-4.69,1.18-7.9,3.55-9.55,7,.71.43,4.56.46,8,.48,8.6.05,21.59.13,28.2,4.75a4.67,4.67,0,0,0,1.39.76C317.5,389.87,319.12,390.54,319.38,392.45Z"></path><path d="M337,404.82l-48.08,6c-4.22.53-12.07-4.83-12.07-4.83-.45-3.89,6.49-8.41,10.88-8.49l48.28-.88Z" style="fill:#fff"></path><path d="M288.27,411.33c-4.43,0-11.44-4.75-11.75-5l-.19-.13,0-.23a5.57,5.57,0,0,1,1.68-4.19c2.34-2.67,6.59-4.8,9.69-4.85l48.73-.89,1.11,9.17-48.58,6C288.73,411.31,288.5,411.33,288.27,411.33Zm-11-5.65c1.23.81,7.92,5.07,11.53,4.62l47.59-5.92-.88-7.29L287.7,398c-2.81,0-6.82,2.07-9,4.5A5.07,5.07,0,0,0,277.29,405.68Z"></path><path d="M340.9,411.38l-41.2,22.89c-3.62,2-12.19,3.61-14.31.31,0,0,3.17-10.38,7.14-12.05l43.71-18.31Z" style="fill:#fff"></path><path d="M290.63,437c-2.49,0-4.68-.59-5.66-2.12l-.12-.19.07-.22c.13-.44,3.28-10.64,7.42-12.37l44.09-18.47,5.18,8-41.67,23.15A21.33,21.33,0,0,1,290.63,437ZM286,434.5c2.13,2.72,10.15,1.2,13.5-.66l40.74-22.64L336,404.84,292.72,423C289.33,424.42,286.44,433,286,434.5Z"></path><path d="M347.49,416l-5.88,7.74a9.85,9.85,0,0,1-2.73,2.25c-3.34,3.91-10.66,2.86-9.62,8.1,1.05,9.42,0,19.88-11.1,19.69a9.49,9.49,0,0,1-2.8.92l-8.91,1.4c-2.65-1.73-.46-7.3.43-9.92a2.74,2.74,0,0,1,1.79-1.82c7-2.95,7-13.41,13.94-16.44,1.42-1.05,2.93-2,3.93-2.92L340,411.1Z" style="fill:#fff"></path><path d="M306.34,456.58l-.16-.11c-2.77-1.81-1-6.84,0-9.85l.22-.65a3.27,3.27,0,0,1,2.13-2.14c3.28-1.39,4.94-4.59,6.69-8s3.54-6.84,7.14-8.43c.47-.35.95-.69,1.42-1a29.62,29.62,0,0,0,2.42-1.83l13.69-14.12,8.32,5.36L342,424a10.51,10.51,0,0,1-2.81,2.34,12.91,12.91,0,0,1-5.35,3.14c-3,1.13-4.61,1.9-4.1,4.47.91,8.12-.13,13.86-3.08,17.09-1.93,2.12-4.69,3.2-8.2,3.2h-.19a9.56,9.56,0,0,1-2.85.91l-8.9,1.41ZM340,411.74,326.89,425.3c-.7.62-1.59,1.26-2.53,1.93-.48.34-1,.68-1.45,1l-.1.06c-3.3,1.44-4.95,4.62-6.7,8s-3.58,6.9-7.25,8.46a2.26,2.26,0,0,0-1.51,1.52l-.23.65c-.86,2.49-2.43,7.07-.54,8.58l8.7-1.37a9,9,0,0,0,2.65-.88l.11-.06h.13c3.39.08,6-.9,7.76-2.86,2.75-3,3.7-8.48,2.83-16.27-.69-3.48,2.06-4.53,4.73-5.55,1.84-.71,3.74-1.43,5-2.93l.14-.11a9.68,9.68,0,0,0,2.61-2.15l5.51-7.27Z"></path><path d="M355.59,417.73l-2.39,12a6.54,6.54,0,0,1-1.5,2.1c-2.55,6.38,1.64,12.66-1.82,18.68a22.21,22.21,0,0,0-1.45,3.17c-.79,4-1.32,6.66-1.32,6.66-.75,3.74-9.58,8.18-9.58,8.18-4.28-.83-6.28-7.55-5-11.29a7.3,7.3,0,0,1,.63-1.18c4.49-3.18,9.72-7.37,6.58-11.56-6.28-9.42-3.14-15.7,3.68-19.6.65-1.7,1.19-3.27,1.64-4.58L346.5,416Z" style="fill:#fff"></path><path d="M337.61,469.05l-.17,0a6.43,6.43,0,0,1-4.24-3.35,11.3,11.3,0,0,1-1.15-8.59,7.26,7.26,0,0,1,.68-1.28l.13-.14c3.53-2.51,6.85-5.21,7.28-7.94a3.76,3.76,0,0,0-.81-2.92c-3-4.46-4.06-8.5-3.22-12,.76-3.22,3.08-6,6.89-8.2.63-1.65,1.15-3.13,1.58-4.4l1.59-4.7,10,1.87-2.49,12.51a6.55,6.55,0,0,1-1.57,2.28c-1.1,2.85-.82,5.76-.55,8.58.32,3.31.65,6.74-1.26,10.07a21.65,21.65,0,0,0-1.4,3.08l-1.31,6.6c-.79,3.93-9.47,8.34-9.84,8.52Zm-4.09-12.64a6.5,6.5,0,0,0-.53,1,10.36,10.36,0,0,0,1.08,7.76,5.63,5.63,0,0,0,3.4,2.83c2.5-1.28,8.59-4.94,9.15-7.75l1.32-6.66a22.75,22.75,0,0,1,1.49-3.3c1.77-3.07,1.47-6.19,1.15-9.5-.29-3-.59-6,.65-9.14l.11-.17a5.72,5.72,0,0,0,1.4-1.93L355,418.13l-8.16-1.53-1.32,3.88c-.48,1.42-1,3-1.64,4.6l-.07.17-.15.09c-3.66,2.09-5.87,4.66-6.58,7.65-.77,3.26.26,7,3.06,11.24a4.69,4.69,0,0,1,1,3.64C340.65,451,337.2,453.79,333.52,456.41Z"></path><path d="M363.81,416.42l11.69,42c1,3.69-4.43,12.14-4.43,12.14-4.29.8-9.76-5.81-10.31-9.69l-1.7-12c-.14-1-.28-2-.42-3-.07-4.48-1.12-8.66-1.79-12.64q-.21-1.54-.42-3l-1.7-12Z" style="fill:#fff"></path><path d="M370.34,471.14a7.46,7.46,0,0,1-4.24-1.61c-2.89-2.08-5.45-5.84-5.84-8.58l-2.12-15a54.82,54.82,0,0,0-1.24-9.66c-.19-1-.38-2-.54-3l-2.19-15.52,10-1.92.12.45,11.69,42c1.07,3.86-4.26,12.19-4.49,12.54l-.12.18-.21,0A4.47,4.47,0,0,1,370.34,471.14Zm-15-52.58,2.06,14.57c.16,1,.35,1.95.54,2.95a57.07,57.07,0,0,1,1.25,9.76l0,.1,2.09,14.87c.35,2.46,2.79,6,5.44,7.91a6.09,6.09,0,0,0,4.08,1.39c1.55-2.45,5-8.77,4.25-11.54L363.45,417Z"></path><path d="M370.72,412.25l17.15,19.62,2.19,2.5c4.1,3.85,13.52,5.95,10.38,13.27-2.1,4.19,1.71,15.78-7.33,7.33-5.13-4.79-5.23-7.33-10.3-9l-1.64-2.38-17.95-26.46Z" style="fill:#fff"></path><path d="M397.84,458.48c-1.17,0-2.78-1-5.07-3.15a45.57,45.57,0,0,1-4-4.35c-1.83-2.18-2.93-3.5-6.07-4.53l-.16-.05-20-29.41,8.29-5.4L390.43,434a26.15,26.15,0,0,0,4.18,2.87c4.09,2.46,8.72,5.25,6.29,10.93a13.73,13.73,0,0,0-.77,5.07c-.1,2.6-.19,4.85-1.61,5.44A1.91,1.91,0,0,1,397.84,458.48Zm-14.72-12.93c3.29,1.12,4.58,2.66,6.36,4.78a43.42,43.42,0,0,0,4,4.27c2.92,2.73,4.16,3,4.68,2.82.84-.34.93-2.57,1-4.54s.16-4.06.86-5.46c2.08-4.85-1.79-7.18-5.9-9.65a26.63,26.63,0,0,1-4.38-3L370.62,412.9l-6.7,4.37Z"></path><path d="M375.12,405.93,418,426.29a7.5,7.5,0,0,1,2.35,1.74c.71.73,2,1.69,3.11,2.86,4.23,3.15.05,12.57-3.09,10.47-6.29-5.23-13.61-9.42-20.47-10l-2.26-1.41-27.1-16.8Z" style="fill:#fff"></path><path d="M421.26,442.16a2.11,2.11,0,0,1-1.21-.38c-5-4.18-12.56-9.27-20.23-10h-.12l-29.89-18.55,5.13-8,43.24,20.55a7.79,7.79,0,0,1,2.51,1.86c.28.29.68.63,1.12,1a26.68,26.68,0,0,1,2,1.82c3,2.23,2.08,7.22.26,9.8A3.63,3.63,0,0,1,421.26,442.16ZM400,430.83c7.88.76,15.56,5.93,20.62,10.15,1.05.7,2.15-.62,2.57-1.22,1.62-2.3,2.37-6.64-.1-8.47-.68-.71-1.36-1.29-2-1.82a15.8,15.8,0,0,1-1.2-1.09,7.08,7.08,0,0,0-2.21-1.64l-42.44-20.17L371.2,413Z"></path><path d="M376.27,398.55l15.32,1,2.91.29c11.17,6,23.73.72,35.25-.32,5.23-1.05,4.18,5.23,1.88,9.53h0c-.48,3.88-4.57,6.58-8.88,5.85l-47.43-8.09Z" style="fill:#fff"></path><path d="M424.17,415.5a8.44,8.44,0,0,1-1.5-.13l-47.9-8.17,1.05-9.17,15.8,1,2.21.22.91.13c8,4.28,16.9,2.65,25.49,1.07,3.13-.58,6.37-1.17,9.47-1.45,2.05-.41,3.1.32,3.62,1,1.46,2,.41,6.12-1.21,9.17a7,7,0,0,1-2.83,4.66A8.6,8.6,0,0,1,424.17,415.5Zm-48.3-9.12,47,8a7.66,7.66,0,0,0,5.85-1.34,6,6,0,0,0,2.45-4.07l.06-.18c1.5-2.8,2.48-6.63,1.32-8.19-.49-.66-1.39-.87-2.67-.61-3.11.28-6.32.87-9.42,1.44-8.73,1.61-17.76,3.26-26.07-1.12l-.62-.06-2.2-.23-14.82-.94Z"></path><path d="M374,391.41l45.64-14.76c3-1,11.05,2.15,13,4.16.57.66-3.8,2.21-4.5,3.06-7.19,10.31-21.4,15.63-33.63,11.77l-2.77.53-14.88,3.1Z" style="fill:#fff"></path><path d="M376.52,399.85l-3.22-8.76,46.13-14.92c3.19-1,11.4,2.11,13.54,4.29a.67.67,0,0,1,.18.62c-.12.6-1,1.07-2.63,1.92a10,10,0,0,0-2,1.19c-7.48,10.73-21.79,15.76-34,12l-2.65.5Zm-1.93-8.13,2.57,7,17.36-3.57.12,0c11.68,3.67,25.9-1.3,33.07-11.58a8.27,8.27,0,0,1,2.35-1.48,14.65,14.65,0,0,0,2-1.14c-2.14-1.91-9.62-4.72-12.32-3.85Z"></path><path d="M368.57,385.72l35-30c3.07-2.63,16.61-1.45,16.61-1.45,2.92,2.91-3.37,9.25-6.86,11.61l-38.48,26Z" style="fill:#fff"></path><path d="M374.74,392.5l-6.91-6.81L403.2,355.3c3.19-2.73,16.43-1.62,17-1.57h.18l.13.13a3.08,3.08,0,0,1,.88,2.59c-.35,3.64-5.42,8.17-7.82,9.79Zm-5.44-6.76,5.56,5.47L413,365.43c2.92-2,7.11-6.23,7.38-9.06a2.13,2.13,0,0,0-.47-1.66c-3.85-.32-13.71-.66-16.05,1.35Z"></path><path d="M361.06,382.47l5.13-11.3c.39-.85.73-1.68,1.05-2.45-.3-1.67,1.8-3.77,2.8-5.87.54-1.18,1-2.39,1.5-3.44l7.75-17.05c1.6-3.52,8.75-8.91,12.63-7.36,0,0,3,9.67.91,13.1l-23.28,37.72Z" style="fill:#fff"></path><path d="M369.75,386.44l-9.37-3.7L365.74,371c.36-.8.69-1.58,1-2.31-.14-1.25.72-2.56,1.63-3.94a20.45,20.45,0,0,0,1.23-2.07c.27-.6.53-1.22.79-1.82s.47-1.1.7-1.61l7.76-17.06c1.59-3.51,8.89-9.37,13.27-7.61l.22.09.07.23c.13.4,3.07,9.92.86,13.5Zm-8-4.24,7.61,3,23.07-37.36c1.79-2.91-.45-11-.89-12.45-3.55-1.12-10.21,3.74-11.77,7.17L372,359.62c-.22.5-.45,1-.69,1.6s-.52,1.22-.8,1.84a17.36,17.36,0,0,1-1.31,2.19c-.83,1.27-1.62,2.47-1.46,3.38l0,.14-.06.14c-.32.77-.66,1.61-1.05,2.47Z"></path><path d="M357.59,381.88l1-4.41c-1.11-2.05-2.15-4.14-1.11-6.24,3.14-6.28,10.47-9.42,7.69-19.37a10.37,10.37,0,0,1,.21-3.19l2.16-9.15c.88-3.72,5.49-10.75,9.62-9.83,0,0,6.25,9.64,4.84,13.35l-15.43,40.79Z" style="fill:#fff"></path><path d="M366.92,384.41,357,382.26l1.12-4.72c-1-1.88-2.19-4.2-1-6.53a28,28,0,0,1,3.64-5.18c3-3.67,5.88-7.13,4-13.84a10.78,10.78,0,0,1,.2-3.41l2.16-9.18c.86-3.62,5.61-11.23,10.22-10.2l.2.05.11.17c.26.4,6.37,9.9,4.89,13.79Zm-8.73-2.91,8.1,1.75,15.29-40.39c1.05-2.78-2.92-9.95-4.68-12.72-3.61-.54-8,5.92-8.83,9.49l-2.16,9.15a10.1,10.1,0,0,0-.2,3c2,7.12-1.16,10.95-4.22,14.65a27.1,27.1,0,0,0-3.52,5c-.9,1.79-.07,3.6,1.1,5.78l.09.16Z"></path><path d="M349.33,383s-.1-.42-.29-1.18a16.44,16.44,0,0,0-3.74-2.65c-2.43-.56-5.57-2.65-5.57-4.75,1-9.42,18.84-18.84,1.89-24.67-.6-1.73-1.1-3.31-1.43-4.66l-1.06-4.41c-.89-3.71,1.37-11.72,5.56-12.37,0,0,8.85,6.45,9.26,10.34,0,0,.18,1.72.47,4.46.15,1.37.37,3,.66,4.85,3.92,15.93-1.74,17-2.79,25.42,0,1,4.19,2.09,5.7,3.68l.47,4.46Z" style="fill:#fff"></path><path d="M349,383.52l-.35-1.47-.43-.36a13.38,13.38,0,0,0-3-2.1c-2.43-.58-5.9-2.75-5.9-5.22.37-3.41,2.72-6.67,5-9.82,2.5-3.48,4.87-6.76,4-9.49-.61-1.93-2.83-3.53-6.76-4.88l-.23-.08-.08-.23a48.85,48.85,0,0,1-1.44-4.72l-1.06-4.4c-.68-2.8.31-7.38,2.2-10.21a5.81,5.81,0,0,1,3.76-2.78l.21,0,.17.12c.36.27,9,6.63,9.46,10.7l.47,4.46c.14,1.31.36,2.93.65,4.82,2.68,10.85.9,15-.81,19a22.54,22.54,0,0,0-2,6.52A10.18,10.18,0,0,0,355,374.6a12,12,0,0,1,3.4,2.07l.11.12.54,5.1ZM342,349.31c4.12,1.45,6.46,3.23,7.17,5.45,1,3.2-1.49,6.69-4.15,10.37-2.19,3.05-4.46,6.2-4.8,9.3,0,1.67,2.79,3.65,5.19,4.2l.11,0a14.59,14.59,0,0,1,3.3,2.26l.52.45.14.11.22.9,8.21-1.34-.41-3.81a13,13,0,0,0-3-1.74c-1.59-.76-2.74-1.31-2.74-2.17a23.34,23.34,0,0,1,2-6.85c1.72-4.06,3.36-7.89.75-18.45-.31-1.95-.53-3.59-.67-4.92l-.46-4.45c-.31-3-6.36-8-8.89-9.87a5.12,5.12,0,0,0-2.89,2.31c-1.91,2.84-2.6,7.17-2.06,9.42l1.06,4.4C341,346.1,341.4,347.54,342,349.31Z"></path><path d="M342.27,386.93l-3-3.63c-6.9-3.69-10-11-12.13-19.39-1.05-1.05-3.14-1.05-5.41-2.29-.68-.71-1.31-1.44-1.92-2.1L313.65,352c-2.51-3.07-.45-11.24-.45-11.24,3.64-2.18,10.92.6,13.07,4l2.46,3.9c.76,1.2,1.68,2.61,2.77,4.12,15.56,1.73,7.18,11.15,7.18,21.61,0,1.05,3.14,3.14,5.57,4.49a16.5,16.5,0,0,1,5,2.35l.66,1.05Z" style="fill:#fff"></path><path d="M342.16,387.59l-3.19-3.9c-7.46-4.05-10.39-12.12-12.25-19.52a6.18,6.18,0,0,0-2.13-.91,15,15,0,0,1-3.07-1.21l-.12-.09c-.45-.46-.88-.94-1.3-1.4l-.63-.7-6.2-7.57c-2.64-3.23-.64-11.34-.55-11.68l0-.2.17-.11c3.82-2.29,11.45.53,13.75,4.17l2.46,3.91c.88,1.39,1.74,2.67,2.63,3.91,4.44.52,7.16,1.68,8.55,3.65,1.84,2.59,1,6.09.1,10.15a37,37,0,0,0-1.25,8.28c0,.45,1.69,2,5.31,4.05a17,17,0,0,1,5.1,2.41l.11.12.94,1.48Zm-20.09-26.38a14.14,14.14,0,0,0,2.81,1.09,6.07,6.07,0,0,1,2.64,1.25l.1.1,0,.14c1.82,7.25,4.65,15.19,11.88,19.07l.15.12,2.7,3.3,6.87-4.18-.35-.55a16.71,16.71,0,0,0-4.81-2.21c-1.84-1-5.91-3.44-5.91-5a38,38,0,0,1,1.28-8.51c.88-3.82,1.64-7.12.05-9.34-1.22-1.73-3.86-2.79-8.06-3.26l-.22,0-.13-.18c-1-1.32-1.86-2.68-2.8-4.15l-2.46-3.9c-2-3.18-8.79-5.77-12.2-3.95-.29,1.26-1.71,8,.4,10.59l6.8,8.24C321.24,360.32,321.65,360.77,322.07,361.21Z"></path><path d="M337.65,393.13l-6.58-3.37-4.34-2.22c-9-12.12-24.68-10-37.24-15.26-1.05,0,0-3.14,2.51-4.9-.23-.85-4.1-1.64-3.95-2.52s4.31-1.85,4.87-2.65h0a8.08,8.08,0,0,1,10.85-1.83l10.92,7.24,2.72,1.81c5.57,2.85,10.81,7,16,10.93,1.31.66,2.17,1.19,3,1.71l6,4Z" style="fill:#fff"></path><path d="M337.81,393.77l-11.41-5.84-.07-.1c-5.83-7.86-14.41-9.59-23.49-11.43a72.83,72.83,0,0,1-13.47-3.63.85.85,0,0,1-.73-.62c-.32-1,.76-3.32,2.62-4.83a14,14,0,0,0-1.4-.66c-1.31-.55-2.44-1-2.3-1.89.12-.71,1.17-1.17,2.88-1.85a8.45,8.45,0,0,0,2.07-1A8.56,8.56,0,0,1,304.05,360l13.64,9a97.8,97.8,0,0,1,13.6,9.11l2.46,1.84c1.12.55,1.93,1,2.72,1.52l.25.16,6.5,4.31Zm-10.75-6.63,10.42,5.34,4.34-6.27L336,382.34c-.77-.47-1.56-.95-2.72-1.53-.9-.66-1.72-1.28-2.54-1.9a96.65,96.65,0,0,0-13.51-9L303.5,360.8a7.54,7.54,0,0,0-10.17,1.69,6.1,6.1,0,0,1-2.52,1.36,10.52,10.52,0,0,0-2.22,1.06,8.5,8.5,0,0,0,1.66.83c1.27.54,2.07.9,2.24,1.51l.09.34-.29.2c-2,1.37-2.79,3.44-2.71,4l.1,0a72.15,72.15,0,0,0,13.36,3.6C311.87,377.21,321,379.05,327.06,387.14Z"></path><path d="M336.24,400.46l-33-3-2.66-.25a28.77,28.77,0,0,0-8.7-.78L288,396a8.37,8.37,0,0,1-2.92-.82,4.06,4.06,0,0,1-1.77-1.47c3.09-9.95,19.83-11,30.3-11,5.23,0,7.33,5.23,11.7,7.06l4.86,1,7.36,1.48Z" style="fill:#fff"></path><path d="M336.67,401l-36.25-3.34a28.44,28.44,0,0,0-8.54-.76l-4-.37a8.86,8.86,0,0,1-3.09-.88,4.41,4.41,0,0,1-2-1.7l-.08-.17.06-.19c2.37-7.63,12.44-11.34,30.78-11.34,3.32,0,5.45,2,7.5,3.88a15.4,15.4,0,0,0,4.4,3.22l12.59,2.51Zm-36-4.31,2.61.24,32.55,3,1.1-7.27-11.75-2.35a16.23,16.23,0,0,1-4.79-3.43c-2-1.87-3.89-3.62-6.82-3.62-17.67,0-27.41,3.41-29.76,10.43a4.24,4.24,0,0,0,1.46,1.08,7.67,7.67,0,0,0,2.73.77l3.93.38A28.86,28.86,0,0,1,300.66,396.69Z"></path><path d="M338.31,407.67l-46.15,13.46c-4,1.19-12.14,2-13.31-1.68,0,0,5.2-10.47,9.5-11.24l47.34-8.48Z" style="fill:#fff"></path><path d="M285.18,422.63c-3.15,0-6.07-.73-6.81-3l-.06-.2.09-.18c.22-.44,5.37-10.71,9.86-11.52L336,399.16l2.91,8.85L292.3,421.62A27.45,27.45,0,0,1,285.18,422.63Zm-5.79-3.15c1.28,3,8.92,2.26,12.63,1.17l45.65-13.31-2.32-7-46.91,8.4C285.19,409.28,280.9,416.5,279.39,419.48Z"></path><path d="M343.48,413.51l-10.14,8.18-2.53,2c-9.92,3-13.06,15.54-23.24,19.19-.88.3-1.78.74-2.73,1-2.84.85-12.29,1.5-12.29,1.5-2.82-3,2-11,5.54-13.31l39.38-24.91Z" style="fill:#fff"></path><path d="M292.35,445.94l-.16-.18a4.34,4.34,0,0,1-.93-3.69c.48-3.81,3.92-8.71,6.56-10.38l39.73-25.13,6.67,7L331,424.21c-4.87,1.46-8,5.27-11.38,9.3s-6.66,8-11.83,9.88c-.36.12-.72.27-1.08.41a14.64,14.64,0,0,1-1.69.6c-2.85.86-12,1.49-12.39,1.52Zm45-38.1-39,24.7c-2.46,1.55-5.66,6.1-6.11,9.65a3.57,3.57,0,0,0,.52,2.71c1.51-.11,9.42-.71,11.92-1.46a14.45,14.45,0,0,0,1.6-.57c.38-.15.75-.3,1.12-.42,4.9-1.76,8.2-5.73,11.39-9.57s6.67-8,11.77-9.6l12.18-9.82Z"></path><path d="M350.87,417l-4.24,8.55a5.32,5.32,0,0,1-2.38,2.21c-2.43,2.12-8.71,3.17-6.61,7.35,3.14,7.33,4.18,16.75-5.12,20.34a6.73,6.73,0,0,0-1.3,1.13C329.5,460,317.29,463,317.29,463c-2-.86.45-5.53-.13-7.25a5.09,5.09,0,0,1-.19-2.65c2.87-1.28,6-2.33,8.11-4.42,3.14-7.33-5.24-17.79,6.84-22.2a19.09,19.09,0,0,0,3.65-2.67l6.93-10.44Z" style="fill:#fff"></path><path d="M317.25,463.53l-.16-.07c-1.56-.67-1.1-2.85-.69-4.77a7,7,0,0,0,.28-2.77,5.69,5.69,0,0,1-.2-2.91l0-.25.24-.1c.55-.25,1.11-.49,1.68-.73a19.7,19.7,0,0,0,6.2-3.53c1-2.5.68-5.49.33-8.38-.65-5.43-1.32-11,6.77-14a18.35,18.35,0,0,0,3.44-2.53l7.13-10.73,9.24,4-4.48,9a5.94,5.94,0,0,1-2.55,2.42,15.67,15.67,0,0,1-2.84,1.7c-3,1.54-4.79,2.64-3.61,5,1.45,3.36,3.52,9.73,1.34,14.89a11.25,11.25,0,0,1-6.66,6.12,6.56,6.56,0,0,0-1.14,1c-1.76,3.56-13.7,6.52-14.21,6.64Zm.17-10.07a4.64,4.64,0,0,0,.21,2.14,7.07,7.07,0,0,1-.25,3.29c-.31,1.46-.66,3.1,0,3.58,3.47-.87,12.11-3.52,13.41-6.15a6.54,6.54,0,0,1,1.45-1.3l.12-.06a10.34,10.34,0,0,0,6.16-5.59c2-4.83,0-10.9-1.32-14.09-1.7-3.39,1.49-5,4.05-6.32a13.93,13.93,0,0,0,2.69-1.6l.12-.08a4.9,4.9,0,0,0,2.17-2l4-8-7.5-3.22-6.78,10.19a19.81,19.81,0,0,1-3.75,2.74c-7.42,2.71-6.82,7.7-6.19,13,.37,3.06.75,6.22-.43,9l-.11.15c-1.76,1.76-4.22,2.81-6.59,3.81Z"></path><path d="M359.2,417.44l.1,43.29c0,3.8-8.07,10.66-8.07,10.66-4.38-.14-7.4-7.54-6.89-11.42,0,0,.22-1.71.58-4.45,4.23-5.78,3.18-13.11,0-20.44,0-2.09-1-5.23,2.58-6.28a3.71,3.71,0,0,0,1.17-2.36c.71-5.39,1.21-9.24,1.21-9.24Z" style="fill:#fff"></path><path d="M351.41,471.9h-.19a5.94,5.94,0,0,1-4.24-2.36c-2.14-2.52-3.52-6.74-3.14-9.62l.6-4.58.07-.1c3.63-5,3.62-11.48,0-20l0-.2c0-.35,0-.74-.06-1.14-.16-1.94-.37-4.59,2.9-5.59a3.38,3.38,0,0,0,.92-2l1.26-9.65,10.22.27.1,43.77c0,4-7.9,10.75-8.24,11Zm-6-16.19-.57,4.32c-.34,2.59,1,6.56,2.92,8.85a5.18,5.18,0,0,0,3.31,2c2.3-2,7.75-7.29,7.74-10.15l-.1-42.8-8.34-.21-1.15,8.79a4.25,4.25,0,0,1-1.35,2.67l-.18.1c-2.59.75-2.44,2.61-2.28,4.58,0,.39.06.77.06,1.12C349.18,443.7,349.16,450.48,345.4,455.71Z"></path><path d="M367,414.86l15.55,31c.83,1.64,1.58,2.83,2.08,3.89.08,3.16,3.22,4.2,2.82,7.26a5.75,5.75,0,0,1-.5,2.63c-.73,1.62-3.23,7.69-3.23,7.69-4.07,1.46-9.59-4.47-10.9-8.2L358.44,418Z" style="fill:#fff"></path><path d="M382.4,468a6.44,6.44,0,0,1-2.77-.7,16.18,16.18,0,0,1-7.25-8.07l-14.57-41.55,9.47-3.47L383,445.61c.41.81.8,1.5,1.14,2.13s.68,1.23.94,1.77l.05.2a5.57,5.57,0,0,0,1.4,3.25,5.42,5.42,0,0,1,1.42,4.09,6.13,6.13,0,0,1-.54,2.76c-.73,1.6-3.21,7.62-3.23,7.68l-.09.21-.2.07A4.58,4.58,0,0,1,382.4,468Zm-23.32-49.72,14.24,40.62a15.34,15.34,0,0,0,6.74,7.5,4.71,4.71,0,0,0,3.31.47c.46-1.11,2.5-6,3.16-7.5A5.27,5.27,0,0,0,387,457a4.51,4.51,0,0,0-1.23-3.45,6.73,6.73,0,0,1-1.59-3.7c-.24-.5-.53-1-.86-1.62s-.75-1.35-1.16-2.17l-15.36-30.58Z"></path><path d="M373,409.66l26,20.76a13,13,0,0,0,4.39,1.26c5.46.26,7.59,3.8,7.59,9,2,13.1.21,14.52-10.5,6.92,0-9.42-7.33-8.37-13.17-11.05l-2.34-2.37-18.34-18.57Z" style="fill:#fff"></path><path d="M409.3,452.77c-1.79,0-4.54-1.45-9.15-4.72l-.21-.15v-.26c0-6.7-3.85-7.78-8.31-9a30.44,30.44,0,0,1-4.57-1.56l-.15-.1-21-21.31L373,409l26.25,21a12.29,12.29,0,0,0,4.18,1.19c5.24.25,8,3.55,8,9.54,1.13,7.45.92,10.63-.79,11.69A2.59,2.59,0,0,1,409.3,452.77Zm-8.36-5.39c3.71,2.63,7.65,5.12,9.18,4.18s1.05-6,.33-10.77c0-5.59-2.34-8.38-7.12-8.62a13,13,0,0,1-4.57-1.3l-.11-.06L373,410.32l-5.72,5.34,20.25,20.51a30.74,30.74,0,0,0,4.34,1.46C396.29,438.87,400.83,440.15,400.94,447.38Z"></path><path d="M376.08,402.75,422.29,416c4,1.17,12.19,5.58,10.73,9.15l-6-.48a6.55,6.55,0,0,1-1.67,2.37,7.55,7.55,0,0,1-2.49,1.52,23.32,23.32,0,0,1-6-.1l-3.25-1.33L373,410.54Z" style="fill:#fff"></path><path d="M420.07,429.24a25.47,25.47,0,0,1-3.28-.25l-.13,0-44.35-18.14,3.48-8.68,46.64,13.41c3,.87,9.26,3.87,10.89,7.22a3.11,3.11,0,0,1,.17,2.6l-.14.34-6-.48a7,7,0,0,1-1.64,2.21,7.81,7.81,0,0,1-2.66,1.61l-.13,0C421.76,429.18,420.91,429.24,420.07,429.24ZM417,428a22.44,22.44,0,0,0,5.79.09A7,7,0,0,0,425,426.7a6.06,6.06,0,0,0,1.54-2.19l.14-.34,5.94.48a2.28,2.28,0,0,0-.24-1.45c-1.31-2.69-6.86-5.7-10.27-6.68l-45.77-13.17-2.77,6.92Z"></path><path d="M375.75,395.31l18.16-1.74c.93,0,1.89-.09,2.83-.1,3.7,1.84,7.88,2.88,12.07,1.84,8.37-2.1,25.65-5.3,26.46-3.46,4.85,10.9-27.51,15-40.61,12l-2.93-.09-15.28-.15Z" style="fill:#fff"></path><path d="M405.17,405.28a49.3,49.3,0,0,1-10.62-1l-1,0-1.86,0L376,404.06l-.78-9.2,19.14-1.81c.79,0,1.59-.07,2.38-.08h.12l.11,0c4.21,2.09,8.15,2.7,11.73,1.8.26-.06,25.74-6.11,27-3.17a5.24,5.24,0,0,1-.81,5.83C430.66,402.64,416.63,405.28,405.17,405.28Zm-28.26-2.21,14.82.15,1.87,0,1.08,0c10.6,2.43,34,.14,39.46-6.46a4.27,4.27,0,0,0,.68-4.8c-1.08-1.13-15.5,1.15-25.89,3.74-3.79.95-7.92.33-12.3-1.82l-2.23.08-.47,0-17.64,1.69Z"></path><path d="M372.05,388.64l42-21.72a8,8,0,0,1,10.4,2.65l4.7-3.08c2.06,3.46-4.33,10.82-8.35,12.37l-44.34,17.07Z" style="fill:#fff"></path><path d="M376.24,396.54l-4.9-8.1,42.47-22a8.5,8.5,0,0,1,10.78,2.41l4.71-3.09.27.45a4.46,4.46,0,0,1,.09,3.83c-1.33,3.84-5.76,8.13-8.69,9.25Zm-3.49-7.7,3.91,6.47,43.95-16.92c2.67-1,6.88-5.12,8.11-8.65a4.09,4.09,0,0,0,.2-2.51l-4.64,3-.27-.44c-1.85-3.11-6.31-4.24-9.74-2.47Z"></path><path d="M365.62,383.89l28.46-35.07c2.49-3.08,13.79-4.61,13.79-4.61,3.46,2.4.79,10.19-2.18,13.07L373,389Z" style="fill:#fff"></path><path d="M373,389.59,364.89,384l28.8-35.5c2.59-3.19,13.65-4.73,14.12-4.79l.19,0,.16.12a4.61,4.61,0,0,1,1.82,3.59,14.88,14.88,0,0,1-4,10.25Zm-6.68-5.81,6.57,4.52,32.42-31.38a13.94,13.94,0,0,0,3.64-9.45,3.73,3.73,0,0,0-1.24-2.74c-1.51.22-11.11,1.73-13.28,4.4Z"></path><rect x="351.68" y="438.77" width="2.35" height="1" transform="matrix(0.06, -1, 1, 0.06, -108.24, 763.09)"></rect><rect x="349.05" y="431.02" width="8.64" height="1" transform="matrix(0.06, -1, 1, 0.06, -100.03, 756.35)"></rect><rect x="387.23" y="408.18" width="1" height="7" transform="translate(-128.46 642.68) rotate(-70.82)"></rect><rect x="386.72" y="397.52" width="4.61" height="1" transform="translate(-24.12 25.09) rotate(-3.58)"></rect><rect x="383.67" y="383.13" width="15.31" height="1" transform="translate(-127.24 206.43) rotate(-25.56)"></rect><rect x="366.52" y="423.53" width="1" height="7.64" transform="translate(-123.06 149.58) rotate(-19.8)"></rect><rect x="376.8" y="416.75" width="1" height="6.72" transform="translate(-187.32 426.92) rotate(-48.76)"></rect><ellipse cx="356.13" cy="401.84" rx="36.45" ry="30.44" style="fill:#92E3A9"></ellipse><path d="M356.13,432.77c-20.37,0-36.95-13.87-36.95-30.93s16.58-30.94,36.95-30.94,36.95,13.88,36.95,30.94S376.51,432.77,356.13,432.77Zm0-60.87c-19.82,0-35.95,13.43-35.95,29.94s16.13,29.93,35.95,29.93,35.95-13.43,35.95-29.93S376,371.9,356.13,371.9Z" style="fill:#263238"></path><path d="M360,378.76a3.84,3.84,0,1,1-3.84-3.83A3.84,3.84,0,0,1,360,378.76Z" style="fill:#92E3A9"></path><path d="M356.11,383.1a4.34,4.34,0,1,1,4.34-4.34A4.34,4.34,0,0,1,356.11,383.1Zm0-7.67a3.34,3.34,0,1,0,3.34,3.33A3.33,3.33,0,0,0,356.11,375.43Z" style="fill:#263238"></path><path d="M338.56,405.9a3.84,3.84,0,1,1-3.84-3.84A3.84,3.84,0,0,1,338.56,405.9Z" style="fill:#92E3A9"></path><path d="M334.72,410.23a4.34,4.34,0,1,1,4.34-4.33A4.33,4.33,0,0,1,334.72,410.23Zm0-7.67a3.34,3.34,0,1,0,3.34,3.34A3.34,3.34,0,0,0,334.72,402.56Z" style="fill:#263238"></path><path d="M326.74,397.71a3.84,3.84,0,1,1-3.84-3.84A3.84,3.84,0,0,1,326.74,397.71Z" style="fill:#92E3A9"></path><path d="M322.9,402a4.34,4.34,0,1,1,4.34-4.33A4.33,4.33,0,0,1,322.9,402Zm0-7.67a3.34,3.34,0,1,0,3.34,3.34A3.34,3.34,0,0,0,322.9,394.37Z" style="fill:#263238"></path><path d="M343.11,385.29a3.84,3.84,0,1,1-3.83-3.83A3.83,3.83,0,0,1,343.11,385.29Z" style="fill:#92E3A9"></path><path d="M339.28,389.63a4.34,4.34,0,1,1,4.34-4.34A4.35,4.35,0,0,1,339.28,389.63Zm0-7.67a3.34,3.34,0,1,0,3.34,3.33A3.34,3.34,0,0,0,339.28,382Z" style="fill:#263238"></path><path d="M342.73,413.63a3.84,3.84,0,1,1-3.84-3.84A3.84,3.84,0,0,1,342.73,413.63Z" style="fill:#92E3A9"></path><path d="M338.89,418a4.34,4.34,0,1,1,4.33-4.33A4.34,4.34,0,0,1,338.89,418Zm0-7.67a3.34,3.34,0,1,0,3.33,3.34A3.35,3.35,0,0,0,338.89,410.29Z" style="fill:#263238"></path><path d="M335.71,421.1a3.84,3.84,0,1,1-3.84-3.83A3.84,3.84,0,0,1,335.71,421.1Z" style="fill:#92E3A9"></path><path d="M331.87,425.44a4.34,4.34,0,1,1,4.34-4.34A4.34,4.34,0,0,1,331.87,425.44Zm0-7.67a3.34,3.34,0,1,0,3.34,3.33A3.33,3.33,0,0,0,331.87,417.77Z" style="fill:#263238"></path><path d="M339.22,390.36a3.84,3.84,0,1,1-3.84-3.83A3.84,3.84,0,0,1,339.22,390.36Z" style="fill:#92E3A9"></path><path d="M335.38,394.7a4.34,4.34,0,1,1,4.34-4.34A4.35,4.35,0,0,1,335.38,394.7Zm0-7.67a3.34,3.34,0,1,0,3.34,3.33A3.34,3.34,0,0,0,335.38,387Z" style="fill:#263238"></path><path d="M335.32,414.08a3.84,3.84,0,1,1-3.84-3.83A3.84,3.84,0,0,1,335.32,414.08Z" style="fill:#92E3A9"></path><path d="M331.48,418.42a4.34,4.34,0,1,1,4.34-4.34A4.34,4.34,0,0,1,331.48,418.42Zm0-7.67a3.34,3.34,0,1,0,3.34,3.33A3.34,3.34,0,0,0,331.48,410.75Z" style="fill:#263238"></path><path d="M335.71,396.93a3.84,3.84,0,1,1-3.84-3.84A3.84,3.84,0,0,1,335.71,396.93Z" style="fill:#92E3A9"></path><path d="M331.87,401.26a4.34,4.34,0,1,1,4.34-4.33A4.33,4.33,0,0,1,331.87,401.26Zm0-7.67a3.34,3.34,0,1,0,3.34,3.34A3.34,3.34,0,0,0,331.87,393.59Z" style="fill:#263238"></path><path d="M355.11,375.72a3.84,3.84,0,1,1-3.84-3.84A3.84,3.84,0,0,1,355.11,375.72Z" style="fill:#92E3A9"></path><path d="M351.27,380.05a4.34,4.34,0,1,1,4.34-4.33A4.33,4.33,0,0,1,351.27,380.05Zm0-7.67a3.34,3.34,0,1,0,3.34,3.34A3.34,3.34,0,0,0,351.27,372.38Z" style="fill:#263238"></path><path d="M330.48,390.37a3.84,3.84,0,1,1-3.84-3.83A3.84,3.84,0,0,1,330.48,390.37Z" style="fill:#92E3A9"></path><path d="M326.64,394.71a4.34,4.34,0,1,1,4.34-4.34A4.34,4.34,0,0,1,326.64,394.71Zm0-7.67a3.34,3.34,0,1,0,3.34,3.33A3.33,3.33,0,0,0,326.64,387Z" style="fill:#263238"></path><ellipse cx="344.35" cy="379.38" rx="4.29" ry="3.9" style="fill:#92E3A9"></ellipse><path d="M344.35,383.78a4.42,4.42,0,1,1,4.79-4.4A4.62,4.62,0,0,1,344.35,383.78Zm0-7.8a3.42,3.42,0,1,0,3.79,3.4A3.61,3.61,0,0,0,344.35,376Z" style="fill:#263238"></path><path d="M372.82,379.87a4.49,4.49,0,1,1-4.48-4.18A4.35,4.35,0,0,1,372.82,379.87Z" style="fill:#92E3A9"></path><path d="M368.34,384.56a4.69,4.69,0,1,1,5-4.69A4.84,4.84,0,0,1,368.34,384.56Zm0-8.37a3.7,3.7,0,1,0,4,3.68A3.84,3.84,0,0,0,368.34,376.19Z" style="fill:#263238"></path><ellipse cx="376.33" cy="386.89" rx="4.48" ry="4.19" style="fill:#92E3A9"></ellipse><path d="M376.33,391.58a4.69,4.69,0,1,1,5-4.69A4.84,4.84,0,0,1,376.33,391.58Zm0-8.37a3.7,3.7,0,1,0,4,3.68A3.84,3.84,0,0,0,376.33,383.21Z" style="fill:#263238"></path><path d="M385.87,391.47a4.48,4.48,0,1,1-4.48-4.19A4.33,4.33,0,0,1,385.87,391.47Z" style="fill:#92E3A9"></path><path d="M381.39,396.15a4.69,4.69,0,1,1,5-4.68A4.84,4.84,0,0,1,381.39,396.15Zm0-8.37a3.7,3.7,0,1,0,4,3.69A3.84,3.84,0,0,0,381.39,387.78Z" style="fill:#263238"></path><ellipse cx="379.49" cy="399.6" rx="4.48" ry="4.19" style="fill:#92E3A9"></ellipse><path d="M379.49,404.28a4.69,4.69,0,1,1,5-4.68A4.85,4.85,0,0,1,379.49,404.28Zm0-8.37a3.7,3.7,0,1,0,4,3.69A3.85,3.85,0,0,0,379.49,395.91Z" style="fill:#263238"></path><ellipse cx="375.58" cy="408.61" rx="4.48" ry="4.19" style="fill:#92E3A9"></ellipse><path d="M375.58,413.3a4.69,4.69,0,1,1,5-4.69A4.85,4.85,0,0,1,375.58,413.3Zm0-8.37a3.7,3.7,0,1,0,4,3.68A3.84,3.84,0,0,0,375.58,404.93Z" style="fill:#263238"></path><ellipse cx="378.53" cy="414.69" rx="4.48" ry="4.19" style="fill:#92E3A9"></ellipse><path d="M378.53,419.37a4.69,4.69,0,1,1,5-4.68A4.85,4.85,0,0,1,378.53,419.37Zm0-8.37a3.7,3.7,0,1,0,4,3.69A3.85,3.85,0,0,0,378.53,411Z" style="fill:#263238"></path><path d="M376.47,420.15A4.49,4.49,0,1,1,372,416,4.34,4.34,0,0,1,376.47,420.15Z" style="fill:#92E3A9"></path><path d="M372,424.83a4.69,4.69,0,1,1,5-4.68A4.84,4.84,0,0,1,372,424.83Zm0-8.37a3.7,3.7,0,1,0,4,3.69A3.85,3.85,0,0,0,372,416.46Z" style="fill:#263238"></path><path d="M388.44,405.69A4.49,4.49,0,1,1,384,401.5,4.34,4.34,0,0,1,388.44,405.69Z" style="fill:#92E3A9"></path><path d="M384,410.38a4.7,4.7,0,1,1,5-4.69A4.85,4.85,0,0,1,384,410.38Zm0-8.38a3.7,3.7,0,1,0,4,3.69A3.85,3.85,0,0,0,384,402Z" style="fill:#263238"></path><ellipse cx="369.57" cy="414.69" rx="4.48" ry="4.19" style="fill:#92E3A9"></ellipse><path d="M369.58,419.37a4.69,4.69,0,1,1,5-4.68A4.84,4.84,0,0,1,369.58,419.37Zm0-8.37a3.7,3.7,0,1,0,4,3.69A3.85,3.85,0,0,0,369.58,411Z" style="fill:#263238"></path><path d="M369.61,423.1a4.49,4.49,0,1,1-4.48-4.19A4.34,4.34,0,0,1,369.61,423.1Z" style="fill:#92E3A9"></path><path d="M365.13,427.78a4.69,4.69,0,1,1,5-4.68A4.85,4.85,0,0,1,365.13,427.78Zm0-8.37a3.7,3.7,0,1,0,4,3.69A3.85,3.85,0,0,0,365.13,419.41Z" style="fill:#263238"></path><ellipse cx="357.61" cy="419.37" rx="4.48" ry="4.19" style="fill:#92E3A9"></ellipse><path d="M357.61,424.06a4.69,4.69,0,1,1,5-4.69A4.84,4.84,0,0,1,357.61,424.06Zm0-8.37a3.7,3.7,0,1,0,4,3.68A3.85,3.85,0,0,0,357.61,415.69Z" style="fill:#263238"></path><path d="M350.61,416.53a4.48,4.48,0,1,1-4.47-4.19A4.33,4.33,0,0,1,350.61,416.53Z" style="fill:#92E3A9"></path><path d="M346.14,421.21a4.69,4.69,0,1,1,5-4.68A4.84,4.84,0,0,1,346.14,421.21Zm0-8.37a3.7,3.7,0,1,0,4,3.69A3.85,3.85,0,0,0,346.14,412.84Z" style="fill:#263238"></path><ellipse cx="337.94" cy="420.55" rx="4.48" ry="4.19" style="fill:#92E3A9"></ellipse><path d="M337.94,425.23a4.69,4.69,0,1,1,5-4.68A4.85,4.85,0,0,1,337.94,425.23Zm0-8.37a3.7,3.7,0,1,0,4,3.69A3.85,3.85,0,0,0,337.94,416.86Z" style="fill:#263238"></path><ellipse cx="348.68" cy="422.17" rx="4.48" ry="4.19" style="fill:#92E3A9"></ellipse><path d="M348.68,426.86a4.69,4.69,0,1,1,5-4.69A4.84,4.84,0,0,1,348.68,426.86Zm0-8.37a3.7,3.7,0,1,0,4,3.68A3.85,3.85,0,0,0,348.68,418.49Z" style="fill:#263238"></path><path d="M346.8,426a4.49,4.49,0,1,1-4.48-4.18A4.35,4.35,0,0,1,346.8,426Z" style="fill:#92E3A9"></path><path d="M342.32,430.68a4.69,4.69,0,1,1,5-4.69A4.85,4.85,0,0,1,342.32,430.68Zm0-8.37a3.7,3.7,0,1,0,4,3.68A3.85,3.85,0,0,0,342.32,422.31Z" style="fill:#263238"></path><ellipse cx="350.95" cy="427.57" rx="4.48" ry="4.19" style="fill:#92E3A9"></ellipse><path d="M351,432.26a4.69,4.69,0,1,1,5-4.69A4.85,4.85,0,0,1,351,432.26Zm0-8.37a3.7,3.7,0,1,0,4,3.68A3.85,3.85,0,0,0,351,423.89Z" style="fill:#263238"></path><ellipse cx="360.16" cy="427.57" rx="4.48" ry="4.19" style="fill:#92E3A9"></ellipse><path d="M360.16,432.26a4.69,4.69,0,1,1,5-4.69A4.84,4.84,0,0,1,360.16,432.26Zm0-8.37a3.7,3.7,0,1,0,4,3.68A3.84,3.84,0,0,0,360.16,423.89Z" style="fill:#263238"></path><ellipse cx="372.22" cy="425.35" rx="4.48" ry="4.19" style="fill:#92E3A9"></ellipse><path d="M372.22,430a4.69,4.69,0,1,1,5-4.69A4.85,4.85,0,0,1,372.22,430Zm0-8.37a3.7,3.7,0,1,0,4,3.68A3.85,3.85,0,0,0,372.22,421.67Z" style="fill:#263238"></path><path d="M385.65,419.88a4.49,4.49,0,1,1-4.48-4.18A4.34,4.34,0,0,1,385.65,419.88Z" style="fill:#92E3A9"></path><path d="M381.17,424.57a4.69,4.69,0,1,1,5-4.69A4.84,4.84,0,0,1,381.17,424.57Zm0-8.37a3.7,3.7,0,1,0,4,3.68A3.84,3.84,0,0,0,381.17,416.2Z" style="fill:#263238"></path><path d="M391.11,411.82a4.48,4.48,0,1,1-4.48-4.19A4.33,4.33,0,0,1,391.11,411.82Z" style="fill:#92E3A9"></path><path d="M386.63,416.5a4.69,4.69,0,1,1,5-4.68A4.84,4.84,0,0,1,386.63,416.5Zm0-8.37a3.7,3.7,0,1,0,4,3.69A3.84,3.84,0,0,0,386.63,408.13Z" style="fill:#263238"></path><ellipse cx="390.36" cy="401.5" rx="4.48" ry="4.19" style="fill:#92E3A9"></ellipse><path d="M390.36,406.19a4.69,4.69,0,1,1,5-4.69A4.85,4.85,0,0,1,390.36,406.19Zm0-8.37a3.7,3.7,0,1,0,4,3.68A3.84,3.84,0,0,0,390.36,397.82Z" style="fill:#263238"></path><path d="M392.89,392.92a4.49,4.49,0,1,1-4.48-4.18A4.34,4.34,0,0,1,392.89,392.92Z" style="fill:#92E3A9"></path><path d="M388.41,397.61a4.69,4.69,0,1,1,5-4.69A4.84,4.84,0,0,1,388.41,397.61Zm0-8.37a3.7,3.7,0,1,0,4,3.68A3.84,3.84,0,0,0,388.41,389.24Z" style="fill:#263238"></path><path d="M388.86,387.39a4.49,4.49,0,1,1-4.48-4.19A4.34,4.34,0,0,1,388.86,387.39Z" style="fill:#92E3A9"></path><path d="M384.38,392.07a4.69,4.69,0,1,1,5-4.68A4.85,4.85,0,0,1,384.38,392.07Zm0-8.37a3.7,3.7,0,1,0,4,3.69A3.85,3.85,0,0,0,384.38,383.7Z" style="fill:#263238"></path><path d="M376.28,376.63a4.49,4.49,0,1,1-4.48-4.19A4.35,4.35,0,0,1,376.28,376.63Z" style="fill:#92E3A9"></path><path d="M371.8,381.32a4.7,4.7,0,1,1,5-4.69A4.85,4.85,0,0,1,371.8,381.32Zm0-8.38a3.7,3.7,0,1,0,4,3.69A3.85,3.85,0,0,0,371.8,372.94Z" style="fill:#263238"></path><ellipse cx="356.89" cy="372.98" rx="4.48" ry="4.19" style="fill:#92E3A9"></ellipse><path d="M356.89,377.67a4.7,4.7,0,1,1,5-4.69A4.85,4.85,0,0,1,356.89,377.67Zm0-8.38a3.7,3.7,0,1,0,4,3.69A3.85,3.85,0,0,0,356.89,369.29Z" style="fill:#263238"></path><ellipse cx="341.01" cy="376.68" rx="4.48" ry="4.19" style="fill:#92E3A9"></ellipse><path d="M341,381.37a4.69,4.69,0,1,1,5-4.69A4.84,4.84,0,0,1,341,381.37Zm0-8.37a3.7,3.7,0,1,0,4,3.68A3.84,3.84,0,0,0,341,373Z" style="fill:#263238"></path><ellipse cx="333" cy="382.06" rx="4.48" ry="4.19" style="fill:#92E3A9"></ellipse><path d="M333,386.75a4.69,4.69,0,1,1,5-4.69A4.84,4.84,0,0,1,333,386.75Zm0-8.37a3.7,3.7,0,1,0,4,3.68A3.84,3.84,0,0,0,333,378.38Z" style="fill:#263238"></path><ellipse cx="323.17" cy="409.9" rx="4.48" ry="4.19" style="fill:#92E3A9"></ellipse><path d="M323.17,414.58a4.69,4.69,0,1,1,5-4.68A4.84,4.84,0,0,1,323.17,414.58Zm0-8.37a3.7,3.7,0,1,0,4,3.69A3.85,3.85,0,0,0,323.17,406.21Z" style="fill:#263238"></path><ellipse cx="326.41" cy="405.9" rx="4.48" ry="4.19" style="fill:#92E3A9"></ellipse><path d="M326.41,410.58a4.69,4.69,0,1,1,5-4.68A4.85,4.85,0,0,1,326.41,410.58Zm0-8.37a3.7,3.7,0,1,0,4,3.69A3.85,3.85,0,0,0,326.41,402.21Z" style="fill:#263238"></path><path d="M368.34,375.69a4.49,4.49,0,1,1-4.48-4.19A4.34,4.34,0,0,1,368.34,375.69Z" style="fill:#92E3A9"></path><path d="M363.86,380.37a4.69,4.69,0,1,1,5-4.68A4.85,4.85,0,0,1,363.86,380.37Zm0-8.37a3.7,3.7,0,1,0,4,3.69A3.85,3.85,0,0,0,363.86,372Z" style="fill:#263238"></path><ellipse cx="378.28" cy="380.94" rx="4.48" ry="4.19" style="fill:#92E3A9"></ellipse><path d="M378.28,385.62a4.69,4.69,0,1,1,5-4.68A4.84,4.84,0,0,1,378.28,385.62Zm0-8.37a3.7,3.7,0,1,0,4,3.69A3.85,3.85,0,0,0,378.28,377.25Z" style="fill:#263238"></path></g></svg>
