<svg xmlns="http://www.w3.org/2000/svg" viewBox="0 0 700 500"><g id="background-simple"><path d="M62.92,362.1c-6.4,14.62-26.49,11.88-28.31,41.1C33,428.88,46.6,453,76.68,462.57H619.41c14.3-33,73.14-180.72,34.43-292.81C617.57,64.74,541.93,56,475,72.62c2-4,2.45-7.44,1.1-10.1-6.22-12.16-48-3.24-93.34,19.94s-77,51.82-70.81,64c2.85,5.58,13.19,6.71,27.9,4.08A130.78,130.78,0,0,1,305,169.76c-53.89,20.09-138.83-22.83-191.8-15.53C81,158.66,54,174.84,42.09,203.38l-.18-.2s-18.26,20.1-11,60.28S69.31,347.49,62.92,362.1Z" style="fill:#92E3A9"></path><path d="M62.92,362.1c-6.4,14.62-26.49,11.88-28.31,41.1C33,428.88,46.6,453,76.68,462.57H619.41c14.3-33,73.14-180.72,34.43-292.81C617.57,64.74,541.93,56,475,72.62c2-4,2.45-7.44,1.1-10.1-6.22-12.16-48-3.24-93.34,19.94s-77,51.82-70.81,64c2.85,5.58,13.19,6.71,27.9,4.08A130.78,130.78,0,0,1,305,169.76c-53.89,20.09-138.83-22.83-191.8-15.53C81,158.66,54,174.84,42.09,203.38l-.18-.2s-18.26,20.1-11,60.28S69.31,347.49,62.92,362.1Z" style="fill:#fff;opacity:0.7000000000000001"></path></g><g id="Fireworks"><g style="opacity:0.1"><path d="M372.86,47.87c-.39-1.33-.68-2.66-1-4l-.41-2-.33-2c-.1-.67-.3-1.33-.47-2a4.5,4.5,0,0,1,0-2,7.74,7.74,0,0,1,2.21-4h.49a7.74,7.74,0,0,1,2.21,4,4.5,4.5,0,0,1,0,2c-.17.67-.37,1.33-.47,2l-.33,2-.41,2c-.3,1.34-.59,2.67-1,4Z"></path><path d="M372.86,79.4c-.39-1.44-.68-2.88-1-4.32l-.41-2.16-.33-2.15c-.1-.72-.3-1.45-.47-2.16a5.24,5.24,0,0,1,0-2.16,8.61,8.61,0,0,1,2.21-4.32h.49a8.61,8.61,0,0,1,2.21,4.32,5.24,5.24,0,0,1,0,2.16c-.17.71-.37,1.44-.47,2.16l-.33,2.15-.41,2.16c-.3,1.44-.59,2.88-1,4.32Z"></path><path d="M373.35,132.1c.39,1,.68,2,1,3l.41,1.51.33,1.51a12,12,0,0,0,.47,1.51,2.62,2.62,0,0,1,0,1.52,5.1,5.1,0,0,1-.73,1.51,5.64,5.64,0,0,1-1.48,1.51h-.49a5.8,5.8,0,0,1-1.48-1.51,5.1,5.1,0,0,1-.73-1.51,2.62,2.62,0,0,1,0-1.52,12,12,0,0,0,.47-1.51l.33-1.51.41-1.51c.3-1,.59-2,1-3Z"></path><path d="M373.35,107.48c.39,1.26.68,2.52,1,3.78l.41,1.89.33,1.89a18.62,18.62,0,0,0,.47,1.89,4,4,0,0,1,0,1.89,7.23,7.23,0,0,1-2.21,3.78h-.49a7.23,7.23,0,0,1-2.21-3.78,4,4,0,0,1,0-1.89,18.62,18.62,0,0,0,.47-1.89l.33-1.89.41-1.89c.3-1.26.59-2.52,1-3.78Z"></path><path d="M373.35,91.93c.39.83.68,1.66,1,2.49l.41,1.24.33,1.24a9,9,0,0,0,.47,1.24,1.77,1.77,0,0,1,0,1.24,3.87,3.87,0,0,1-.73,1.25,5.38,5.38,0,0,1-1.48,1.24h-.49a5.54,5.54,0,0,1-1.48-1.24,3.87,3.87,0,0,1-.73-1.25,1.77,1.77,0,0,1,0-1.24,9,9,0,0,0,.47-1.24l.33-1.24.41-1.24c.3-.83.59-1.66,1-2.49Z"></path><path d="M345.82,57.35c-1-.55-2-1.17-2.92-1.78l-1.4-1-1.34-1a15.92,15.92,0,0,0-1.44-.9,3.05,3.05,0,0,1-1.11-1.2,5.82,5.82,0,0,1-.55-1.71,6.06,6.06,0,0,1,0-2.21l.36-.33a6.36,6.36,0,0,1,2.2.23,5.73,5.73,0,0,1,1.64.74,2.9,2.9,0,0,1,1.07,1.23,15.5,15.5,0,0,0,.75,1.53l.85,1.44.79,1.49c.5,1,1,2,1.45,3.09Z"></path><path d="M367.31,81.3c-1.41-1-2.75-2-4.1-3.1l-2-1.6-1.93-1.66c-.63-.55-1.34-1-2-1.56a7.17,7.17,0,0,1-1.7-1.86,10.81,10.81,0,0,1-1.72-5.23l.37-.33a10.81,10.81,0,0,1,5,2.28,6.83,6.83,0,0,1,1.66,1.89c.44.74.86,1.49,1.34,2.19l1.44,2.09L365,76.56c.9,1.45,1.8,2.9,2.63,4.41Z"></path><path d="M401.9,114.11c1.34.79,2.61,1.65,3.88,2.5l1.89,1.31,1.83,1.36c.6.46,1.27.85,1.92,1.27a5.55,5.55,0,0,1,1.62,1.58,9.2,9.2,0,0,1,1.63,4.75l-.35.35a9.11,9.11,0,0,1-4.75-1.63A5.63,5.63,0,0,1,408,124c-.42-.65-.81-1.32-1.27-1.93l-1.36-1.83-1.31-1.88c-.85-1.28-1.71-2.55-2.5-3.89Z"></path><path d="M387.43,99.64a15.32,15.32,0,0,1,1.77.39l.83.25.77.31a6.93,6.93,0,0,0,.87.21.68.68,0,0,1,.56.52,2.41,2.41,0,0,1,0,1.05,5.58,5.58,0,0,1-.5,1.59l-.35.35a5.77,5.77,0,0,1-1.59.51,2.39,2.39,0,0,1-1.05,0,.7.7,0,0,1-.53-.56,4.81,4.81,0,0,0-.21-.87l-.3-.77-.26-.83a15.34,15.34,0,0,1-.38-1.77Z"></path><path d="M377.71,89.92c.83.29,1.6.64,2.37,1l1.12.55,1.07.61a9.57,9.57,0,0,0,1.17.5,1.59,1.59,0,0,1,.85.82,3.4,3.4,0,0,1,.32,1.35,5.22,5.22,0,0,1-.21,1.89l-.34.34a5.5,5.5,0,0,1-1.89.22,3.57,3.57,0,0,1-1.35-.33A1.59,1.59,0,0,1,380,96a8.79,8.79,0,0,0-.51-1.17l-.6-1.07-.55-1.12c-.34-.77-.7-1.54-1-2.37Z"></path><path d="M330.77,86c-1.15.39-2.31.68-3.46,1l-1.73.4-1.73.32c-.57.11-1.15.3-1.73.46a3.28,3.28,0,0,1-1.73,0,6.09,6.09,0,0,1-1.72-.74A6.19,6.19,0,0,1,317,85.91v-.49A6.42,6.42,0,0,1,318.68,84a5.85,5.85,0,0,1,1.74-.72,3.24,3.24,0,0,1,1.72,0,15.87,15.87,0,0,0,1.73.47l1.73.34,1.72.42c1.15.3,2.3.6,3.45,1Z"></path><path d="M349.35,86.08a24.61,24.61,0,0,1-2.28,1l-1.13.4-1.14.33a7.77,7.77,0,0,0-1.14.46,1.48,1.48,0,0,1-1.13,0,3.44,3.44,0,0,1-1.13-.73A5.28,5.28,0,0,1,340.28,86v-.49a5.12,5.12,0,0,1,1.14-1.48,3.6,3.6,0,0,1,1.14-.72,1.5,1.5,0,0,1,1.14,0,8.51,8.51,0,0,0,1.13.48l1.13.34,1.13.41c.75.31,1.51.6,2.26,1Z"></path><path d="M365.76,86.13a22.89,22.89,0,0,1-2.16,1l-1.08.4-1.08.32a9.19,9.19,0,0,0-1.09.47,1.29,1.29,0,0,1-1.07,0,3.27,3.27,0,0,1-1.08-.73,5.16,5.16,0,0,1-1.08-1.49v-.49a5.44,5.44,0,0,1,1.09-1.48,3.23,3.23,0,0,1,1.08-.72,1.31,1.31,0,0,1,1.08,0,10.09,10.09,0,0,0,1.08.47l1.08.33,1.08.41a22.86,22.86,0,0,1,2.15,1Z"></path><path d="M410.69,85.42c1.74-.39,3.49-.68,5.24-1l2.61-.4,2.62-.34c.88-.1,1.75-.3,2.62-.46a7.68,7.68,0,0,1,2.62,0,11.51,11.51,0,0,1,5.24,2.21v.49a11.4,11.4,0,0,1-5.24,2.21,7.44,7.44,0,0,1-2.62,0c-.87-.17-1.74-.36-2.62-.47l-2.62-.33-2.61-.4c-1.75-.31-3.5-.6-5.24-1Z"></path><path d="M379.37,85.42c1.31-.39,2.63-.68,3.94-1l2-.4,2-.34c.66-.1,1.32-.3,2-.46a4.37,4.37,0,0,1,2,0,7.72,7.72,0,0,1,3.95,2.21v.49a7.64,7.64,0,0,1-3.95,2.21,4.23,4.23,0,0,1-2,0c-.65-.17-1.31-.36-2-.47l-2-.33-2-.4c-1.31-.31-2.63-.6-3.94-1Z"></path><path d="M346.5,112.84c-1,1.57-2.11,3.07-3.2,4.58l-1.65,2.23-1.71,2.18c-.58.72-1.09,1.51-1.62,2.27a8.35,8.35,0,0,1-1.92,2,12.41,12.41,0,0,1-5.45,2.32l-.35-.35a12.41,12.41,0,0,1,2.32-5.45,8.35,8.35,0,0,1,2-1.92c.76-.53,1.55-1,2.27-1.62l2.18-1.71,2.23-1.65c1.51-1.09,3-2.18,4.58-3.2Z"></path><path d="M368.1,91.24c-.47,1-1,2-1.52,2.91l-.82,1.39-.88,1.34c-.29.45-.52,1-.77,1.44A2.82,2.82,0,0,1,363,99.45a5.51,5.51,0,0,1-1.63.59,6,6,0,0,1-2.15.06l-.35-.35A5.78,5.78,0,0,1,359,97.6a5.51,5.51,0,0,1,.59-1.63,2.82,2.82,0,0,1,1.13-1.09c.49-.25,1-.48,1.44-.77l1.34-.88,1.39-.82c1-.52,1.9-1,2.91-1.52Z"></path><path d="M399.17,59.25c1-1.53,2.05-3,3.1-4.48l1.6-2.18,1.66-2.13c.56-.7,1.05-1.47,1.57-2.22A7.89,7.89,0,0,1,409,46.33a11.76,11.76,0,0,1,5.35-2.22l.35.34a11.77,11.77,0,0,1-2.23,5.35,7.59,7.59,0,0,1-1.91,1.88c-.75.51-1.51,1-2.22,1.56l-2.13,1.66L404,56.51c-1.47,1.05-2.94,2.1-4.48,3.09Z"></path><path d="M377.36,81.07c.32-.87.71-1.67,1.09-2.48l.6-1.18.66-1.12a11.33,11.33,0,0,0,.56-1.22,1.76,1.76,0,0,1,.87-.91,4.1,4.1,0,0,1,1.41-.38,5.52,5.52,0,0,1,1.94.16l.34.35a5,5,0,0,1,.16,1.93,3.89,3.89,0,0,1-.37,1.41,1.79,1.79,0,0,1-.91.87,10.51,10.51,0,0,0-1.22.56l-1.13.66-1.18.61c-.8.38-1.6.76-2.47,1.08Z"></path></g><g style="opacity:0.1"><path d="M69.3,178.85c-.26-.9-.46-1.8-.66-2.69l-.28-1.35-.22-1.35c-.07-.45-.2-.89-.31-1.34a2.93,2.93,0,0,1,0-1.35,5.26,5.26,0,0,1,1.49-2.69h.33a5.19,5.19,0,0,1,1.49,2.69,2.93,2.93,0,0,1,0,1.35c-.11.45-.24.89-.31,1.34l-.22,1.35-.28,1.35c-.2.89-.4,1.79-.66,2.69Z"></path><path d="M69.3,200.1c-.26-1-.46-1.94-.66-2.91l-.28-1.45-.22-1.46c-.07-.49-.2-1-.31-1.46a3.38,3.38,0,0,1,0-1.45,5.89,5.89,0,0,1,1.49-2.91h.33a5.81,5.81,0,0,1,1.49,2.91,3.38,3.38,0,0,1,0,1.45c-.11.49-.24,1-.31,1.46l-.22,1.46-.28,1.45c-.2,1-.4,1.94-.66,2.91Z"></path><path d="M69.63,235.62c.26.68.46,1.36.66,2l.28,1,.22,1a9.91,9.91,0,0,0,.31,1,1.69,1.69,0,0,1,0,1,3.47,3.47,0,0,1-.49,1,4,4,0,0,1-1,1H69.3a4,4,0,0,1-1-1,3.47,3.47,0,0,1-.49-1,1.69,1.69,0,0,1,0-1,9.91,9.91,0,0,0,.31-1l.22-1,.28-1c.2-.68.4-1.36.66-2Z"></path><path d="M69.63,219c.26.85.46,1.69.66,2.54l.28,1.28.22,1.27c.07.43.2.85.31,1.28a2.6,2.6,0,0,1,0,1.27,4.89,4.89,0,0,1-1.49,2.55H69.3a5,5,0,0,1-1.49-2.55,2.6,2.6,0,0,1,0-1.27c.11-.43.24-.85.31-1.28l.22-1.27.28-1.28c.2-.85.4-1.69.66-2.54Z"></path><path d="M69.63,208.55c.26.55.46,1.11.66,1.67l.28.84.22.83a7.13,7.13,0,0,0,.31.84,1.16,1.16,0,0,1,0,.84,2.48,2.48,0,0,1-.49.83,3.67,3.67,0,0,1-1,.84H69.3a3.67,3.67,0,0,1-1-.84,2.48,2.48,0,0,1-.49-.83,1.16,1.16,0,0,1,0-.84,7.13,7.13,0,0,0,.31-.84l.22-.83.28-.84c.2-.56.4-1.12.66-1.67Z"></path><path d="M51.07,185.24c-.68-.37-1.32-.79-2-1.2l-.94-.64-.91-.67a9.38,9.38,0,0,0-1-.61,2.16,2.16,0,0,1-.75-.81,4,4,0,0,1-.37-1.15,4.14,4.14,0,0,1,0-1.49l.24-.22a3.92,3.92,0,0,1,1.48.15,3.64,3.64,0,0,1,1.11.5,1.94,1.94,0,0,1,.72.83,10.91,10.91,0,0,0,.5,1l.58,1,.53,1c.34.69.68,1.37,1,2.09Z"></path><path d="M65.56,201.38c-1-.67-1.86-1.38-2.76-2.09l-1.34-1.08-1.3-1.12c-.43-.37-.91-.7-1.37-1.05a4.88,4.88,0,0,1-1.15-1.25,7.39,7.39,0,0,1-1.16-3.53l.25-.22a7.21,7.21,0,0,1,3.37,1.54,4.57,4.57,0,0,1,1.13,1.27c.29.5.57,1,.9,1.48l1,1.41.93,1.45c.6,1,1.21,1.95,1.77,3Z"></path><path d="M88.87,223.49c.9.54,1.76,1.11,2.62,1.69l1.27.88L94,227c.41.31.86.57,1.3.85a3.83,3.83,0,0,1,1.09,1.07,6.22,6.22,0,0,1,1.1,3.2l-.24.24a6.22,6.22,0,0,1-3.2-1.1A4,4,0,0,1,93,230.15c-.28-.44-.54-.89-.85-1.3l-.92-1.23-.88-1.27c-.57-.86-1.15-1.72-1.68-2.62Z"></path><path d="M79.12,213.74a10.39,10.39,0,0,1,1.19.26l.56.17.52.21a3.4,3.4,0,0,0,.59.14.47.47,0,0,1,.37.35,1.64,1.64,0,0,1,0,.71,3.65,3.65,0,0,1-.34,1.07l-.24.24a3.65,3.65,0,0,1-1.07.34,1.65,1.65,0,0,1-.71,0,.47.47,0,0,1-.35-.37,3.4,3.4,0,0,0-.14-.59l-.21-.52-.17-.56a10.39,10.39,0,0,1-.26-1.19Z"></path><path d="M72.57,207.19c.56.19,1.07.43,1.59.66l.76.37.72.41a6.26,6.26,0,0,0,.79.34,1,1,0,0,1,.57.55,2.48,2.48,0,0,1,.22.91,3.38,3.38,0,0,1-.14,1.27l-.23.24a3.43,3.43,0,0,1-1.28.14,2.48,2.48,0,0,1-.91-.22,1.09,1.09,0,0,1-.55-.57,6.26,6.26,0,0,0-.34-.79l-.41-.72L73,209c-.23-.52-.47-1-.66-1.59Z"></path><path d="M40.93,204.53c-.78.26-1.55.45-2.33.65l-1.17.27-1.16.22c-.39.07-.78.2-1.17.31a2.28,2.28,0,0,1-1.16,0,3.78,3.78,0,0,1-1.16-.5,4,4,0,0,1-1.16-1v-.33A4.63,4.63,0,0,1,34,202.68a2.21,2.21,0,0,1,1.17,0c.39.11.77.25,1.16.32l1.16.23,1.17.28c.77.2,1.55.4,2.32.67Z"></path><path d="M53.45,204.6c-.51.26-1,.45-1.53.65l-.77.27-.76.22a6.2,6.2,0,0,0-.77.31,1,1,0,0,1-.76,0,2.13,2.13,0,0,1-.76-.5,3.29,3.29,0,0,1-.76-1v-.33a3.81,3.81,0,0,1,.77-1,2.5,2.5,0,0,1,.77-.48,1,1,0,0,1,.76,0,6.28,6.28,0,0,0,.77.32l.76.23.76.28a13.52,13.52,0,0,1,1.52.67Z"></path><path d="M64.52,204.64c-.49.26-1,.45-1.46.65l-.73.27-.73.22a5.79,5.79,0,0,0-.73.32.93.93,0,0,1-.73,0,2.2,2.2,0,0,1-.72-.49,3.59,3.59,0,0,1-.73-1v-.33a3.64,3.64,0,0,1,.73-1,2.34,2.34,0,0,1,.73-.49.89.89,0,0,1,.73,0,5.79,5.79,0,0,0,.73.32l.73.22.72.28a15.66,15.66,0,0,1,1.46.66Z"></path><path d="M94.79,204.16c1.18-.26,2.36-.46,3.53-.66l1.77-.28,1.76-.22c.59-.07,1.18-.2,1.77-.31a5,5,0,0,1,1.76,0,7.54,7.54,0,0,1,3.53,1.49v.33a7.75,7.75,0,0,1-3.53,1.49,5,5,0,0,1-1.76,0c-.59-.11-1.18-.24-1.77-.31l-1.76-.23-1.77-.27c-1.17-.2-2.35-.4-3.53-.66Z"></path><path d="M73.69,204.16c.88-.26,1.77-.46,2.65-.66l1.33-.28L79,203c.44-.07.89-.2,1.33-.31a2.85,2.85,0,0,1,1.33,0,5.06,5.06,0,0,1,2.65,1.49v.33A5.2,5.2,0,0,1,81.66,206a2.85,2.85,0,0,1-1.33,0c-.44-.11-.89-.24-1.33-.31l-1.33-.23-1.33-.27c-.88-.2-1.77-.4-2.65-.66Z"></path><path d="M51.53,222.64c-.69,1.06-1.42,2.07-2.15,3.09l-1.12,1.5-1.15,1.47c-.39.48-.73,1-1.09,1.53a5.62,5.62,0,0,1-1.3,1.32,8.31,8.31,0,0,1-3.67,1.57l-.23-.24a8.24,8.24,0,0,1,1.56-3.67,5.48,5.48,0,0,1,1.33-1.3c.51-.36,1-.7,1.53-1.09l1.47-1.15,1.5-1.11c1-.73,2-1.47,3.09-2.16Z"></path><path d="M66.09,208.08c-.31.68-.67,1.32-1,2l-.55.94-.59.9a10,10,0,0,0-.52,1,1.85,1.85,0,0,1-.73.76,3.58,3.58,0,0,1-1.1.4,4,4,0,0,1-1.45,0l-.23-.24a3.81,3.81,0,0,1,0-1.45,3.28,3.28,0,0,1,.4-1.09,1.84,1.84,0,0,1,.75-.74,8.18,8.18,0,0,0,1-.52l.91-.59.93-.55c.65-.35,1.28-.71,2-1Z"></path><path d="M87,186.52c.67-1,1.38-2,2.09-3L90.2,182l1.12-1.43c.38-.48.71-1,1.05-1.5a5.36,5.36,0,0,1,1.27-1.29,8,8,0,0,1,3.6-1.5l.24.24a8,8,0,0,1-1.5,3.6,5.36,5.36,0,0,1-1.29,1.27c-.5.34-1,.67-1.5,1.05l-1.43,1.12-1.47,1.08c-1,.71-2,1.42-3,2.08Z"></path><path d="M72.33,201.22c.22-.58.48-1.12.74-1.67l.4-.79.45-.76a6.8,6.8,0,0,0,.37-.82,1.21,1.21,0,0,1,.59-.61,2.65,2.65,0,0,1,1-.26,3.72,3.72,0,0,1,1.31.11l.23.23a3.72,3.72,0,0,1,.11,1.31,2.65,2.65,0,0,1-.26.95,1.21,1.21,0,0,1-.61.59,6.8,6.8,0,0,0-.82.37l-.76.45-.79.4c-.55.26-1.09.52-1.67.74Z"></path></g><g style="opacity:0.1"><path d="M522.93,248.2c-.26-.9-.46-1.8-.66-2.7l-.28-1.34-.22-1.35c-.07-.45-.2-.9-.31-1.35a2.89,2.89,0,0,1,0-1.34,5.25,5.25,0,0,1,1.49-2.7h.33a5.33,5.33,0,0,1,1.49,2.7,2.89,2.89,0,0,1,0,1.34c-.11.45-.24.9-.31,1.35l-.22,1.35-.28,1.34c-.2.9-.4,1.8-.66,2.7Z"></path><path d="M522.93,269.45c-.26-1-.46-1.94-.66-2.91l-.28-1.46-.22-1.45c-.07-.49-.2-1-.31-1.46a3.38,3.38,0,0,1,0-1.45,5.79,5.79,0,0,1,1.49-2.92h.33a5.87,5.87,0,0,1,1.49,2.92,3.38,3.38,0,0,1,0,1.45c-.11.49-.24,1-.31,1.46l-.22,1.45-.28,1.46c-.2,1-.4,1.94-.66,2.91Z"></path><path d="M523.26,305c.26.68.46,1.36.66,2l.28,1,.22,1a9.91,9.91,0,0,0,.31,1,1.69,1.69,0,0,1,0,1,3.4,3.4,0,0,1-.49,1,4,4,0,0,1-1,1h-.33a4,4,0,0,1-1-1,3.4,3.4,0,0,1-.49-1,1.69,1.69,0,0,1,0-1,9.91,9.91,0,0,0,.31-1l.22-1,.28-1c.2-.68.4-1.36.66-2Z"></path><path d="M523.26,288.37c.26.85.46,1.7.66,2.55l.28,1.27.22,1.28c.07.42.2.85.31,1.27a2.64,2.64,0,0,1,0,1.28,4.93,4.93,0,0,1-1.49,2.54h-.33a4.86,4.86,0,0,1-1.49-2.54,2.64,2.64,0,0,1,0-1.28c.11-.42.24-.85.31-1.27l.22-1.28.28-1.27c.2-.85.4-1.7.66-2.55Z"></path><path d="M523.26,277.89c.26.56.46,1.12.66,1.68l.28.83.22.84a7.13,7.13,0,0,0,.31.84,1.13,1.13,0,0,1,0,.83,2.62,2.62,0,0,1-.49.84,3.67,3.67,0,0,1-1,.84h-.33a3.67,3.67,0,0,1-1-.84,2.62,2.62,0,0,1-.49-.84,1.13,1.13,0,0,1,0-.83,7.13,7.13,0,0,0,.31-.84l.22-.84.28-.83c.2-.56.4-1.12.66-1.68Z"></path><path d="M504.7,254.59c-.68-.38-1.32-.79-2-1.2l-.94-.64-.91-.68c-.3-.22-.64-.41-1-.61a2,2,0,0,1-.75-.81,3.88,3.88,0,0,1-.37-1.15,4.09,4.09,0,0,1,0-1.48l.24-.23a4.12,4.12,0,0,1,1.48.16,3.63,3.63,0,0,1,1.11.49,2.06,2.06,0,0,1,.72.83,11.09,11.09,0,0,0,.5,1l.57,1,.54,1c.34.68.68,1.36,1,2.08Z"></path><path d="M519.19,270.72c-1-.66-1.86-1.37-2.76-2.08l-1.34-1.08-1.3-1.12c-.43-.37-.91-.71-1.37-1.05a4.77,4.77,0,0,1-1.15-1.26,7.24,7.24,0,0,1-1.16-3.52l.25-.22a7.2,7.2,0,0,1,3.37,1.53,4.76,4.76,0,0,1,1.13,1.28c.29.49.57,1,.9,1.47l1,1.42.93,1.44c.6,1,1.21,2,1.77,3Z"></path><path d="M542.5,292.84c.9.53,1.76,1.11,2.62,1.69l1.27.88,1.23.92c.41.31.86.57,1.3.85a3.93,3.93,0,0,1,1.09,1.06,6.22,6.22,0,0,1,1.1,3.21l-.24.23a6.13,6.13,0,0,1-3.2-1.1,3.8,3.8,0,0,1-1.07-1.08c-.28-.44-.54-.89-.85-1.3l-.92-1.24L544,295.7c-.57-.86-1.15-1.72-1.68-2.62Z"></path><path d="M532.75,283.09a10.39,10.39,0,0,1,1.19.26l.56.17.52.21a4.65,4.65,0,0,0,.59.14.46.46,0,0,1,.37.35,1.64,1.64,0,0,1,0,.71,3.84,3.84,0,0,1-.34,1.07l-.24.23a3.73,3.73,0,0,1-1.07.35,1.64,1.64,0,0,1-.71,0,.47.47,0,0,1-.35-.38,3.28,3.28,0,0,0-.14-.58l-.21-.52-.17-.56a10.57,10.57,0,0,1-.26-1.2Z"></path><path d="M526.2,276.54c.56.19,1.07.43,1.59.66l.76.37.72.41a8.16,8.16,0,0,0,.79.34,1,1,0,0,1,.57.55,2.43,2.43,0,0,1,.22.91,3.38,3.38,0,0,1-.14,1.27l-.24.23a3.62,3.62,0,0,1-1.27.15,2.48,2.48,0,0,1-.91-.22,1.08,1.08,0,0,1-.55-.58,6.81,6.81,0,0,0-.34-.78l-.41-.72-.37-.76c-.23-.52-.47-1-.66-1.6Z"></path><path d="M494.56,273.88c-.78.26-1.55.45-2.33.65l-1.17.27-1.16.22a10,10,0,0,0-1.17.3,2.18,2.18,0,0,1-1.16,0,4,4,0,0,1-1.16-.5,4.17,4.17,0,0,1-1.16-1v-.33a4.17,4.17,0,0,1,1.17-1,3.81,3.81,0,0,1,1.16-.48,2.21,2.21,0,0,1,1.17,0c.39.11.77.25,1.16.32l1.16.23,1.17.27c.77.21,1.55.41,2.32.68Z"></path><path d="M507.08,274c-.51.26-1,.45-1.53.65l-.77.27-.76.22a4.89,4.89,0,0,0-.77.3,1,1,0,0,1-.76,0,2.43,2.43,0,0,1-.76-.5,3.42,3.42,0,0,1-.76-1v-.33a3.65,3.65,0,0,1,.77-1,2.17,2.17,0,0,1,.77-.48,1,1,0,0,1,.76,0c.26.11.51.24.76.32l.77.23.76.27a15.72,15.72,0,0,1,1.52.68Z"></path><path d="M518.15,274c-.49.26-1,.46-1.46.66l-.73.27-.73.22a5.7,5.7,0,0,0-.73.31.89.89,0,0,1-.73,0,2.09,2.09,0,0,1-.72-.5,3.44,3.44,0,0,1-.73-1v-.33a3.72,3.72,0,0,1,.73-1,2.34,2.34,0,0,1,.73-.49.89.89,0,0,1,.73,0,5.7,5.7,0,0,0,.73.31l.73.23.72.27c.49.21,1,.41,1.46.67Z"></path><path d="M548.42,273.51c1.18-.27,2.36-.46,3.53-.67l1.77-.27,1.76-.22c.59-.07,1.18-.21,1.77-.32a5.2,5.2,0,0,1,1.76,0,7.54,7.54,0,0,1,3.53,1.49v.33a7.75,7.75,0,0,1-3.53,1.49,5.2,5.2,0,0,1-1.76,0c-.59-.11-1.18-.24-1.77-.32l-1.76-.22L552,274.5c-1.17-.2-2.35-.4-3.53-.66Z"></path><path d="M527.32,273.51c.88-.27,1.77-.46,2.65-.67l1.33-.27,1.33-.22c.44-.07.89-.21,1.33-.32a3,3,0,0,1,1.33,0,5.06,5.06,0,0,1,2.65,1.49v.33a5.2,5.2,0,0,1-2.65,1.49,3,3,0,0,1-1.33,0c-.44-.11-.89-.24-1.33-.32l-1.33-.22L530,274.5c-.88-.2-1.77-.4-2.65-.66Z"></path><path d="M505.16,292c-.69,1.06-1.42,2.08-2.15,3.09l-1.12,1.51L500.74,298c-.39.49-.73,1-1.09,1.54a5.62,5.62,0,0,1-1.3,1.32,8.31,8.31,0,0,1-3.67,1.57l-.23-.24a8.19,8.19,0,0,1,1.56-3.67,5.48,5.48,0,0,1,1.33-1.3c.51-.36,1-.7,1.53-1.09l1.47-1.15,1.5-1.12c1-.73,2-1.46,3.09-2.15Z"></path><path d="M519.72,277.43c-.31.68-.67,1.32-1,2l-.55.94-.59.9a10,10,0,0,0-.52,1,1.91,1.91,0,0,1-.73.76,3.58,3.58,0,0,1-1.1.4,4.26,4.26,0,0,1-1.45,0l-.23-.24a3.81,3.81,0,0,1,0-1.45,3.51,3.51,0,0,1,.39-1.09,1.93,1.93,0,0,1,.76-.74,10,10,0,0,0,1-.52l.9-.59.94-.55c.64-.36,1.28-.71,2-1Z"></path><path d="M540.66,255.87c.67-1,1.38-2,2.09-3l1.08-1.47,1.12-1.44c.38-.47.71-1,1-1.49a5,5,0,0,1,1.27-1.29,7.9,7.9,0,0,1,3.6-1.5l.24.23a8,8,0,0,1-1.5,3.61,5.51,5.51,0,0,1-1.29,1.26c-.5.35-1,.68-1.5,1.06l-1.43,1.11L543.92,254c-1,.7-2,1.42-3,2.08Z"></path><path d="M526,270.57c.22-.59.48-1.13.74-1.67l.4-.79.45-.76a6.8,6.8,0,0,0,.37-.82,1.23,1.23,0,0,1,.59-.62,2.65,2.65,0,0,1,1-.25,3.49,3.49,0,0,1,1.31.11l.23.23a3.7,3.7,0,0,1,.11,1.31,2.59,2.59,0,0,1-.26.94,1.17,1.17,0,0,1-.61.59,6.84,6.84,0,0,0-.82.38l-.76.44-.79.41c-.55.26-1.09.52-1.67.73Z"></path></g><g style="opacity:0.1"><path d="M285.53,261.23c-.2-.68-.35-1.37-.51-2.06l-.21-1-.17-1a9.05,9.05,0,0,0-.24-1,2.24,2.24,0,0,1,0-1,4,4,0,0,1,1.14-2.06h.25a4,4,0,0,1,1.14,2.06,2.39,2.39,0,0,1,0,1,9.05,9.05,0,0,0-.24,1l-.18,1-.2,1c-.16.69-.31,1.38-.51,2.06Z"></path><path d="M285.53,277.48c-.2-.75-.35-1.49-.51-2.23l-.21-1.11-.17-1.11a10.62,10.62,0,0,0-.24-1.12,2.6,2.6,0,0,1,0-1.11,4.39,4.39,0,0,1,1.14-2.22h.25a4.47,4.47,0,0,1,1.14,2.22,2.77,2.77,0,0,1,0,1.11,10.62,10.62,0,0,0-.24,1.12l-.18,1.11-.2,1.11c-.16.74-.31,1.48-.51,2.23Z"></path><path d="M285.78,304.62c.2.52.35,1,.51,1.56l.2.78.18.78a5.68,5.68,0,0,0,.24.77,1.38,1.38,0,0,1,0,.78,2.55,2.55,0,0,1-.38.78,2.91,2.91,0,0,1-.76.78h-.25a3,3,0,0,1-.77-.78,2.76,2.76,0,0,1-.37-.78,1.3,1.3,0,0,1,0-.78,5.68,5.68,0,0,0,.24-.77l.17-.78.21-.78c.16-.52.31-1,.51-1.56Z"></path><path d="M285.78,291.94c.2.65.35,1.3.51,1.94l.2,1,.18,1a8.74,8.74,0,0,0,.24,1,2.12,2.12,0,0,1,0,1,3.77,3.77,0,0,1-1.14,2h-.25a3.71,3.71,0,0,1-1.14-2,2,2,0,0,1,0-1,8.74,8.74,0,0,0,.24-1l.17-1,.21-1c.16-.64.31-1.29.51-1.94Z"></path><path d="M285.78,283.93c.2.42.35.85.51,1.28l.2.64.18.64a4.59,4.59,0,0,0,.24.64.94.94,0,0,1,0,.64,2.07,2.07,0,0,1-.38.64,2.85,2.85,0,0,1-.76.64h-.25a2.92,2.92,0,0,1-.77-.64,2.24,2.24,0,0,1-.37-.64.88.88,0,0,1,0-.64,4.59,4.59,0,0,0,.24-.64l.17-.64.21-.64c.16-.43.31-.86.51-1.28Z"></path><path d="M271.6,266.12c-.53-.29-1-.61-1.5-.92l-.72-.49-.69-.51a6.32,6.32,0,0,0-.75-.47,1.62,1.62,0,0,1-.57-.62,2.93,2.93,0,0,1-.28-.88,3.09,3.09,0,0,1,0-1.14l.19-.16a3,3,0,0,1,1.13.11,2.82,2.82,0,0,1,.84.38,1.51,1.51,0,0,1,.56.64,7,7,0,0,0,.38.78l.44.75.41.76c.26.53.52,1,.75,1.6Z"></path><path d="M282.67,278.45c-.73-.51-1.42-1.05-2.11-1.59l-1-.83-1-.85c-.33-.29-.69-.54-1.05-.81a3.47,3.47,0,0,1-.87-1,5.51,5.51,0,0,1-.89-2.69l.19-.17a5.6,5.6,0,0,1,2.58,1.17,3.51,3.51,0,0,1,.86,1c.22.38.44.77.69,1.12l.74,1.08.71,1.11c.46.75.93,1.49,1.36,2.27Z"></path><path d="M300.48,295.35c.69.41,1.35.85,2,1.29l1,.67.94.71c.31.23.66.43,1,.65a2.79,2.79,0,0,1,.83.81,4.73,4.73,0,0,1,.84,2.45l-.18.18a4.73,4.73,0,0,1-2.45-.84,3,3,0,0,1-.81-.83c-.21-.34-.42-.68-.65-1l-.7-.95-.68-1c-.44-.65-.88-1.31-1.28-2Z"></path><path d="M293,287.9a6.08,6.08,0,0,1,.91.2l.43.13.4.16a2.72,2.72,0,0,0,.45.1.37.37,0,0,1,.28.27,1.38,1.38,0,0,1,0,.55,2.93,2.93,0,0,1-.26.81l-.18.18a2.58,2.58,0,0,1-.82.26,1.19,1.19,0,0,1-.54,0,.35.35,0,0,1-.27-.29c0-.15-.06-.31-.11-.44l-.16-.4-.13-.43a8.1,8.1,0,0,1-.2-.91Z"></path><path d="M288,282.89c.43.15.83.33,1.22.51l.58.28.55.31a4.14,4.14,0,0,0,.61.26.86.86,0,0,1,.44.42,1.85,1.85,0,0,1,.16.7,2.54,2.54,0,0,1-.11,1l-.18.18a2.76,2.76,0,0,1-1,.11,1.75,1.75,0,0,1-.69-.17.84.84,0,0,1-.43-.44,4,4,0,0,0-.26-.6l-.31-.55-.28-.58a11.11,11.11,0,0,1-.5-1.22Z"></path><path d="M263.85,280.86c-.6.2-1.19.35-1.78.5l-.9.2-.89.17a7.87,7.87,0,0,0-.89.24,1.68,1.68,0,0,1-.89,0,3,3,0,0,1-.89-.38,3.14,3.14,0,0,1-.88-.76v-.25a3.14,3.14,0,0,1,.89-.76,3.22,3.22,0,0,1,.89-.38,1.79,1.79,0,0,1,.89,0c.3.09.6.19.89.25l.89.17.89.21c.59.16,1.19.31,1.78.52Z"></path><path d="M273.42,280.91c-.4.2-.79.35-1.18.5l-.58.21-.59.16a3.56,3.56,0,0,0-.58.24.8.8,0,0,1-.59,0,2.06,2.06,0,0,1-.58-.38,3.07,3.07,0,0,1-.58-.77v-.25a2.63,2.63,0,0,1,.58-.76,1.85,1.85,0,0,1,.59-.37.76.76,0,0,1,.59,0,4.23,4.23,0,0,0,.58.25l.58.17.58.22a11.85,11.85,0,0,1,1.17.51Z"></path><path d="M281.87,280.94a10.84,10.84,0,0,1-1.11.5l-.56.21-.56.17a3.28,3.28,0,0,0-.55.24.73.73,0,0,1-.56,0,1.69,1.69,0,0,1-.56-.38,3,3,0,0,1-.55-.76v-.26a2.77,2.77,0,0,1,.56-.76,1.65,1.65,0,0,1,.56-.37.66.66,0,0,1,.55,0,3.37,3.37,0,0,0,.56.24l.56.18.55.21a11,11,0,0,1,1.11.51Z"></path><path d="M305,280.58c.9-.2,1.8-.36,2.7-.51l1.35-.21,1.35-.17c.45-.05.9-.16,1.35-.24a3.83,3.83,0,0,1,1.35,0,5.84,5.84,0,0,1,2.69,1.14v.25a6,6,0,0,1-2.69,1.14,4.08,4.08,0,0,1-1.35,0c-.45-.08-.9-.18-1.35-.24l-1.35-.17-1.35-.21c-.9-.15-1.8-.3-2.7-.5Z"></path><path d="M288.88,280.58c.68-.2,1.35-.36,2-.51l1-.21,1-.17c.34-.05.68-.16,1-.24a2.15,2.15,0,0,1,1,0,3.9,3.9,0,0,1,2,1.14v.25a4,4,0,0,1-2,1.14,2.29,2.29,0,0,1-1,0c-.34-.08-.68-.18-1-.24l-1-.17-1-.21c-.68-.15-1.35-.3-2-.5Z"></path><path d="M272,294.7c-.53.81-1.09,1.58-1.65,2.36l-.85,1.15-.88,1.12c-.3.37-.56.78-.83,1.17a4.52,4.52,0,0,1-1,1,6.49,6.49,0,0,1-2.81,1.2l-.18-.18a6.32,6.32,0,0,1,1.2-2.81,4.13,4.13,0,0,1,1-1c.39-.27.8-.54,1.17-.83l1.12-.88,1.15-.86c.78-.55,1.55-1.12,2.36-1.64Z"></path><path d="M283.07,283.57c-.24.52-.51,1-.78,1.5l-.42.72-.45.69c-.15.23-.27.49-.4.74a1.42,1.42,0,0,1-.56.58,3,3,0,0,1-.84.3,2.86,2.86,0,0,1-1.11,0l-.18-.18a3.34,3.34,0,0,1,0-1.11,2.56,2.56,0,0,1,.31-.83,1.42,1.42,0,0,1,.58-.56c.25-.13.51-.25.74-.4l.69-.45.72-.42c.49-.27,1-.55,1.49-.79Z"></path><path d="M299.08,267.1c.51-.8,1.05-1.55,1.59-2.31l.83-1.13.86-1.09c.28-.37.54-.76.8-1.15a4.1,4.1,0,0,1,1-1,6.14,6.14,0,0,1,2.75-1.15l.18.18a6.07,6.07,0,0,1-1.14,2.76,4.1,4.1,0,0,1-1,1c-.38.27-.78.52-1.14.81l-1.1.85-1.12.83c-.76.54-1.52,1.09-2.31,1.59Z"></path><path d="M287.85,278.33a12.18,12.18,0,0,1,.56-1.27l.31-.61.34-.58a6,6,0,0,0,.28-.63,1,1,0,0,1,.45-.47,2,2,0,0,1,.73-.19,2.81,2.81,0,0,1,1,.08l.18.18a3.06,3.06,0,0,1,.08,1,2.17,2.17,0,0,1-.2.72.86.86,0,0,1-.47.45,5.88,5.88,0,0,0-.62.29l-.58.34-.61.31a13.38,13.38,0,0,1-1.28.56Z"></path></g></g><g id="Trees"><path d="M631.72,281.62c-1.36-1.69-4.06-2-7.45-3.72s-7.44.67-7.44.67l1.35,1c-2,0-9.14,2.71-9.14,2.71s.34-2.16.63-4.17l3.09,2.47,1-2.7,3.05.67,2.36-3a7.13,7.13,0,0,1,4.07-1c2.7,0,4.06-.34,5.75-.34a30.68,30.68,0,0,1,5.41,1,11.63,11.63,0,0,0-3-3.05,9,9,0,0,0-5.76-1.69h-6.76a26.1,26.1,0,0,0-3.05.34L627,266.73l2.71-.34L625,264l2-.34H614.79s-1-2.37,0-3,0-1,2.37-2a28.17,28.17,0,0,0,4.4-2c1.7-1,3.73-2.37,3.73-2.37l-8.8.67-3,.68-.68-3.05-2.36,1,.33-6.43-4.4,3.72-1,1.36-.68-2.71-7.78-.34,5.07,2.71-7.44-2.37h-2l4.74,3s-6.77-1-8.8-.67l6.09,2.37-3.39,1.35,2.37,2.71,1,2.37-3.72-2,1.69,5.07-2.56-2.81-.83-.91-2.94-1.13-1.46-.56-1.35,2.37-3.38-1.36,1,2-2.71.34-2.7.68a9.47,9.47,0,0,1,6.77,1.69,29.59,29.59,0,0,1,7.44,8.46,9.82,9.82,0,0,0,1,2l-8.13-5.07v1.69l-4.73-1.69v1.69a8.87,8.87,0,0,0-2.37.34c-1,.34-2.71,2.37-2.71,2.37l-1.69,3,2.43-1.22,1.63-.81,7.44.68a4,4,0,0,0,1.7.67,33.8,33.8,0,0,1,3.72,1.36s-9.82,1-10.83,1-1.69.68-2.71,1.36-2.71,4.06-2.71,4.06l5.42-2,4.06-.68-1,1.69,4.74-1.35,3.39-.68a6.7,6.7,0,0,0-.68,2.37v2.74c-1.69.18-3.38.31-3.38.31l8.46,1.69s-4.74,1-6.09,1.35a43.71,43.71,0,0,1-8.47.68c-3.72,0-4.73,2-4.73,2l3.38-.34-3.72,2.37a24.75,24.75,0,0,1-1.36,7.11,12.13,12.13,0,0,0-.33,7.11l3.38-6.43v2.36s2.71-4.06,3.72-4.73,7.45-4.06,6.77-2.37-.34,2-.34,3.38a13,13,0,0,0,1,3.72l1.35-1.35,2,6.43.68-3,1.35-3.05,1,3.72.34-3.38a9.15,9.15,0,0,1,1.35-3.39c1-1.35,4.74-6.43,4.74-6.43l1,3.39.6-.8,1.1,5.2-.68,3-2.71-4.4a81.88,81.88,0,0,0,0,9.48c.34,3.38,0,3.05.68,5.08a17.74,17.74,0,0,1,.68,4.73l1-3.38.68-1.35.34,10.83,3-4.74,1.69-4.4.68,5.07,1.69-4.39s.68,3.38,1,2.36.68,2,.34-5.07.34-8.46-.68-10.49-2-4.74-2-4.74L605,301.59v-5.28l2,1.22,1.69-6.43,2,2.7,1.7,1.36v-2s2,2.7,2.7,3.72a52.25,52.25,0,0,1,2.37,5.41l.68-2.36,3,4.06,1.7,3,2-3.72v3.05s3.38-7.11,3-9.48a17.27,17.27,0,0,0-5.41-9.48c-2.9-2.61-6.54-.75-7.52-.16l2.44-1.53h3l-2-3h2s3.72.33,5.07.33,4.07,4.06,4.07,4.06L629,283l4.74,3.39A14.11,14.11,0,0,0,631.72,281.62Zm-36.89.34,2.37,2.37-1.36.34s-3.72.67-5.41,1c-.61.12-1.57.24-2.55.35.52-1,2.31-4.35,4.58-5.76,2.71-1.7,4.4-2.71,4.4-2.71l1,3.38,1.7,1.7Z" style="fill:#263238"></path><rect x="602.5" y="283.33" width="3.77" height="179.23" style="fill:#263238"></rect><path d="M118.27,281.62c-1.35-1.69-4.06-2-7.44-3.72s-7.45.67-7.45.67l1.36,1c-2,0-9.14,2.71-9.14,2.71s.34-2.16.63-4.17l3.09,2.47,1-2.7,3,.67,2.37-3a7.12,7.12,0,0,1,4.06-1c2.71,0,4.07-.34,5.76-.34a30.68,30.68,0,0,1,5.41,1,11.63,11.63,0,0,0-3-3.05,9,9,0,0,0-5.76-1.69h-6.77a26.13,26.13,0,0,0-3,.34l11.17-4.06,2.7-.34L111.51,264l2-.34H101.35s-1-2.37,0-3,0-1,2.37-2a28.17,28.17,0,0,0,4.4-2c1.69-1,3.72-2.37,3.72-2.37l-8.79.67-3,.68-.68-3.05-2.37,1,.34-6.43-4.4,3.72-1,1.36-.68-2.71-7.78-.34,5.07,2.71-7.44-2.37H79l4.73,3s-6.76-1-8.79-.67l6.09,2.37-3.39,1.35L80,258.27l1,2.37-3.73-2,1.7,5.07-2.56-2.81-.83-.91-2.95-1.13-1.45-.56-1.35,2.37-3.39-1.36,1,2-2.71.34-2.7.68A9.45,9.45,0,0,1,68.86,264a29.51,29.51,0,0,1,7.45,8.46,10,10,0,0,0,1,2l-8.12-5.07v1.69l-4.74-1.69v1.69a8.82,8.82,0,0,0-2.36.34c-1,.34-2.71,2.37-2.71,2.37l-1.69,3,2.43-1.22,1.63-.81,7.44.68a4,4,0,0,0,1.69.67,33.42,33.42,0,0,1,3.73,1.36s-9.82,1-10.83,1-1.69.68-2.71,1.36S58.37,284,58.37,284l5.42-2,4.06-.68-1,1.69,4.74-1.35,3.39-.68a6.7,6.7,0,0,0-.68,2.37v2.74c-1.69.18-3.39.31-3.39.31l8.47,1.69s-4.74,1-6.1,1.35a43.5,43.5,0,0,1-8.46.68c-3.72,0-4.74,2-4.74,2l3.39-.34-3.72,2.37a24.75,24.75,0,0,1-1.36,7.11,12.19,12.19,0,0,0-.34,7.11l3.39-6.43v2.36s2.71-4.06,3.72-4.73,7.45-4.06,6.77-2.37-.34,2-.34,3.38a13,13,0,0,0,1,3.72l1.35-1.35,2,6.43.68-3L78,303.28,79,307l.34-3.38a9,9,0,0,1,1.35-3.39c1-1.35,4.74-6.43,4.74-6.43l1,3.39.6-.8,1.09,5.2-.67,3-2.71-4.4a81.88,81.88,0,0,0,0,9.48c.34,3.38,0,3.05.68,5.08a18,18,0,0,1,.67,4.73l1-3.38.68-1.35.33,10.83,3-4.74,1.69-4.4.68,5.07,1.69-4.39s.68,3.38,1,2.36.67,2,.34-5.07S97,306,95.94,304s-2-4.74-2-4.74l-2.37,2.37v-5.28l2,1.22,1.69-6.43,2,2.7L99,295.16v-2s2,2.7,2.71,3.72a52.25,52.25,0,0,1,2.37,5.41l.68-2.36,3,4.06,1.7,3,2-3.72v3.05s3.38-7.11,3-9.48a17.33,17.33,0,0,0-5.41-9.48c-2.9-2.61-6.54-.75-7.52-.16l2.44-1.53h3l-2-3h2s3.72.33,5.07.33,4.06,4.06,4.06,4.06l-.67-4.06,4.74,3.39A14,14,0,0,0,118.27,281.62ZM81.39,282l2.36,2.37-1.35.34s-3.72.67-5.41,1c-.61.12-1.57.24-2.55.35.52-1,2.31-4.35,4.58-5.76,2.7-1.7,4.4-2.71,4.4-2.71l1,3.38,1.69,1.7Z" style="fill:#263238"></path><rect x="89.06" y="283.33" width="3.77" height="179.23" style="fill:#263238"></rect><path d="M487.34,317c-1.22-1.52-3.65-1.82-6.69-3.34s-6.69.61-6.69.61l1.22.91c-1.82,0-8.21,2.43-8.21,2.43s.31-1.94.57-3.74l2.78,2.22.91-2.43,2.73.61,2.13-2.74a6.42,6.42,0,0,1,3.65-.91c2.43,0,3.65-.3,5.17-.3a27.69,27.69,0,0,1,4.86.91,10.42,10.42,0,0,0-2.74-2.74,8,8,0,0,0-5.16-1.52h-6.08a23.3,23.3,0,0,0-2.74.31l10-3.65,2.43-.31-4.25-2.12,1.82-.31H472.14s-.91-2.12,0-2.73,0-.91,2.13-1.83a24.52,24.52,0,0,0,4-1.82c1.52-.91,3.34-2.13,3.34-2.13l-7.9.61-2.74.61-.6-2.74-2.13.91.3-5.77-3.95,3.34-.91,1.22-.61-2.43-7-.31,4.56,2.44-6.69-2.13h-1.82l4.25,2.73s-6.07-.91-7.9-.6l5.47,2.12-3,1.22L453,296l.91,2.13-3.34-1.83,1.52,4.56-2.3-2.52-.74-.82-2.65-1-1.3-.5-1.22,2.13-3-1.22.92,1.83-2.44.3-2.43.61A8.51,8.51,0,0,1,443,301.2a26.36,26.36,0,0,1,6.69,7.6,8.77,8.77,0,0,0,.91,1.82l-7.3-4.56v1.52L439,306.06v1.52a8.12,8.12,0,0,0-2.13.3,9.16,9.16,0,0,0-2.43,2.13l-1.52,2.74,2.19-1.1,1.46-.73,6.68.61a3.59,3.59,0,0,0,1.52.61,29.78,29.78,0,0,1,3.35,1.21s-8.82.92-9.73.92-1.52.6-2.43,1.21-2.43,3.65-2.43,3.65l4.86-1.82,3.65-.61-.91,1.52,4.25-1.22,3-.61a6,6,0,0,0-.61,2.13V321c-1.51.16-3,.28-3,.28l7.6,1.52s-4.25.91-5.47,1.21a38.71,38.71,0,0,1-7.6.61c-3.34,0-4.25,1.82-4.25,1.82l3-.3-3.35,2.13a22.42,22.42,0,0,1-1.21,6.38,10.87,10.87,0,0,0-.31,6.38l3-5.77v2.13s2.44-3.65,3.35-4.26,6.68-3.65,6.08-2.13-.31,1.83-.31,3a11.82,11.82,0,0,0,.91,3.35l1.22-1.22,1.82,5.78.61-2.74,1.22-2.74.91,3.35.3-3a8.22,8.22,0,0,1,1.22-3c.91-1.22,4.25-5.78,4.25-5.78l.92,3,.53-.71,1,4.67-.61,2.73-2.43-3.95a72.35,72.35,0,0,0,0,8.51c.3,3,0,2.74.6,4.56a15.94,15.94,0,0,1,.61,4.25l.91-3,.61-1.21.31,9.73,2.73-4.26,1.52-3.95.61,4.56,1.52-3.95s.61,3,.91,2.12.61,1.83.3-4.55.31-7.6-.6-9.43-1.83-4.25-1.83-4.25l-2.12,2.13v-4.75l1.82,1.1,1.52-5.78,1.82,2.43,1.52,1.22v-1.82s1.83,2.43,2.43,3.34a47.44,47.44,0,0,1,2.13,4.86l.61-2.12,2.73,3.64,1.52,2.74,1.83-3.35v2.74s3-6.38,2.73-8.51a15.47,15.47,0,0,0-4.86-8.51c-2.61-2.35-5.87-.67-6.76-.15l2.2-1.37h2.74l-1.83-2.74h1.83s3.34.31,4.56.31,3.64,3.65,3.64,3.65l-.6-3.65,4.25,3A12.72,12.72,0,0,0,487.34,317Zm-33.13.31,2.12,2.12-1.21.31s-3.34.61-4.86.91c-.55.11-1.41.22-2.29.31.47-.93,2.07-3.9,4.11-5.17,2.43-1.52,3.95-2.44,3.95-2.44l.91,3,1.52,1.52Z" style="fill:#263238"></path><rect x="461.1" y="318.54" width="3.39" height="144.03" style="fill:#263238"></rect></g><g id="Clouds"><g style="opacity:0.1"><path d="M612,111.08c-1.48-7.46-9.15-10.31-14.84-12.81-7.13-3.13-11.13-6-14.78-11a67.94,67.94,0,0,1-5.22-8.81C571.24,67,561.21,58.62,550.07,55.78c-9-2.3-19.54-.43-25.36,8-4.87,7-7,18.58-14.63,19.82-3.69.59-7.22-1.74-10.46-3.9-4.58-3.06-9.35-6-14.55-7.06s-10.93-.07-14.91,4c-5.87,6-7.72,18-15.37,19.73-6.56,1.47-12.8-6.28-19.31-4.55-5.39,1.44-8,8.41-11.56,13.35a23,23,0,0,1-6.3,5.93Z" style="fill:none;stroke:#000;stroke-miterlimit:10"></path><path d="M390.22,270.61c-.66-3.33-4.08-4.6-6.63-5.72-3.18-1.39-5-2.65-6.59-4.89a30.24,30.24,0,0,1-2.33-3.93,19.46,19.46,0,0,0-12.08-10.14c-4-1-8.73-.19-11.32,3.56-2.17,3.14-3.12,8.3-6.53,8.85-1.65.26-3.22-.78-4.67-1.74a19,19,0,0,0-6.49-3.15,7.18,7.18,0,0,0-6.66,1.78c-2.62,2.68-3.44,8-6.85,8.81-2.93.65-5.72-2.81-8.62-2-2.41.64-3.56,3.75-5.16,5.95a10.22,10.22,0,0,1-2.81,2.65Z" style="fill:none;stroke:#000;stroke-miterlimit:10"></path><path d="M605.48,144.41c-.58-2.95-3.61-4.07-5.86-5.06a12.68,12.68,0,0,1-5.85-4.34,27.38,27.38,0,0,1-2.06-3.48,17.22,17.22,0,0,0-10.7-9c-3.56-.91-7.73-.17-10,3.15-1.92,2.78-2.77,7.35-5.78,7.84-1.46.24-2.85-.69-4.14-1.54a16.94,16.94,0,0,0-5.75-2.79,6.31,6.31,0,0,0-5.89,1.58c-2.32,2.37-3.06,7.12-6.08,7.8-2.59.58-5.06-2.48-7.63-1.8-2.13.57-3.16,3.32-4.57,5.28a9,9,0,0,1-2.49,2.34Z" style="fill:none;stroke:#000;stroke-miterlimit:10"></path></g></g><g id="hot-air-balloon"><path d="M632.33,130.53c0,10.61-6.57,20.93-12.89,29-4.05,5.18-11.35,14.63-18.8,14.63-6.74,0-13.24-8.68-16.88-13.35-6.89-8.83-14.31-20.54-14.31-32.16,0-16.63,15-28.25,31.19-28.25S632.33,113.9,632.33,130.53Z" style="fill:#fff;stroke:#263238;stroke-miterlimit:10"></path><path d="M623.62,130.53c0,10.61-4.75,20.93-9.32,29-2.93,5.18-8.21,14.63-13.59,14.63-4.87,0-9.57-8.68-12.21-13.35-5-8.83-10.34-20.54-10.34-32.16,0-16.63,10.84-28.25,22.55-28.25S623.62,113.9,623.62,130.53Z" style="fill:#92E3A9;stroke:#263238;stroke-miterlimit:10"></path><path d="M611.73,130.53c0,10.61-2.26,20.93-4.44,29-1.4,5.18-3.92,14.63-6.48,14.63-2.33,0-4.57-8.68-5.83-13.35-2.37-8.83-4.93-20.54-4.93-32.16,0-16.63,5.17-28.25,10.76-28.25S611.73,113.9,611.73,130.53Z" style="fill:#fff;stroke:#263238;stroke-miterlimit:10"></path><polygon points="609.95 169.59 591.84 169.59 594.38 180.81 607.98 180.81 609.95 169.59" style="fill:#fff;stroke:#263238;stroke-miterlimit:10"></polygon><rect x="594.83" y="186.26" width="12.68" height="12.15" style="fill:#263238;stroke:#263238;stroke-miterlimit:10"></rect><line x1="594.38" y1="180.81" x2="594.83" y2="186.26" style="fill:none;stroke:#263238;stroke-miterlimit:10"></line><line x1="607.98" y1="180.81" x2="607.51" y2="186.26" style="fill:none;stroke:#263238;stroke-miterlimit:10"></line><line x1="596.41" y1="180.72" x2="596.41" y2="186" style="fill:none;stroke:#263238;stroke-miterlimit:10"></line><line x1="605.66" y1="180.98" x2="605.66" y2="186" style="fill:none;stroke:#263238;stroke-miterlimit:10"></line></g><g id="Text"><path d="M378.78,168.45v18.26H377.6v-37.6h1.18v18.26h13.59V149.11h1.18v37.6h-1.18V168.45Z" style="fill:#263238"></path><path d="M401,177.85l-2.21,8.86h-1.07l9.08-37.65h1.66l9.3,37.65h-1.19l-2.2-8.86Zm.21-1.08h12.95l-6.56-26.32Z" style="fill:#263238"></path><path d="M429.27,149.11c5.81,0,7.79,3.81,7.79,9.08V162c0,6-2.68,8.81-8.64,8.81H423v16h-1.18v-37.6Zm-.85,20.52c5.26,0,7.46-2.31,7.46-7.63v-3.87c0-4.62-1.56-7.89-6.61-7.89H423v19.39Z" style="fill:#263238"></path><path d="M448.61,149.11c5.8,0,7.79,3.81,7.79,9.08V162c0,6-2.68,8.81-8.65,8.81h-5.37v16H441.2v-37.6Zm-.86,20.52c5.27,0,7.47-2.31,7.47-7.63v-3.87c0-4.62-1.56-7.89-6.61-7.89h-6.23v19.39Z" style="fill:#263238"></path><path d="M469,171.51l-8.75-22.4h1.18l8.22,20.79,8.21-20.79h1.24l-8.92,22.4v15.2H469Z" style="fill:#263238"></path><path d="M328.93,234.34c-.32-1-.54-1.56-.54-4.62v-5.91c0-3.49-1.18-4.78-3.86-4.78h-2v15.31h-5.91v-37.6h8.91c6.13,0,8.76,2.85,8.76,8.65v3c0,3.87-1.24,6.39-3.87,7.63,3,1.24,3.92,4.08,3.92,8v5.8a11.1,11.1,0,0,0,.65,4.57Zm-6.44-32.23v11.55h2.31c2.2,0,3.54-1,3.54-4V206c0-2.69-.91-3.87-3-3.87Z" style="fill:#263238"></path><path d="M344.08,212.59h8.11V218h-8.11v11h10.21v5.37H338.17v-37.6h16.12v5.37H344.08Z" style="fill:#263238"></path><path d="M375.45,206v4.89c0,6-2.9,9.29-8.81,9.29h-2.79v14.13h-5.91v-37.6h8.7C372.55,196.74,375.45,200,375.45,206Zm-11.6-3.92v12.73h2.79c1.88,0,2.9-.86,2.9-3.54v-5.64c0-2.69-1-3.55-2.9-3.55Z" style="fill:#263238"></path><path d="M384.1,196.74v29c0,2.68,1.18,3.65,3.06,3.65s3.06-1,3.06-3.65v-29h5.59v28.63c0,6-3,9.45-8.81,9.45s-8.81-3.43-8.81-9.45V196.74Z" style="fill:#263238"></path><path d="M417.51,205.39v1.34c0,3.87-1.18,6.34-3.81,7.58,3.17,1.23,4.4,4.08,4.4,8.05v3.06c0,5.81-3.06,8.92-9,8.92h-9.29v-37.6h8.92C414.88,196.74,417.51,199.59,417.51,205.39Zm-11.76-3.28v9.94h2.31c2.2,0,3.54-1,3.54-4V206c0-2.69-.91-3.87-3-3.87Zm0,15.31V229h3.38c2,0,3.06-.91,3.06-3.71V222c0-3.49-1.13-4.57-3.81-4.57Z" style="fill:#263238"></path><path d="M421.65,196.74h5.91V229h9.72v5.37H421.65Z" style="fill:#263238"></path><path d="M439.86,196.74h5.91v37.6h-5.91Z" style="fill:#263238"></path><path d="M467.2,220.32v5c0,6-3,9.45-8.81,9.45s-8.81-3.44-8.81-9.45V205.76c0-6,3-9.45,8.81-9.45s8.81,3.44,8.81,9.45v3.66h-5.59v-4c0-2.69-1.18-3.71-3.06-3.71s-3.06,1-3.06,3.71v20.3c0,2.69,1.18,3.66,3.06,3.66s3.06-1,3.06-3.66v-5.37Z" style="fill:#263238"></path><path d="M479.12,196.74h9.35c5.91,0,8.81,3.28,8.81,9.29v19c0,6-2.9,9.29-8.81,9.29h-9.35Zm5.91,5.37V229h3.33c1.88,0,3-1,3-3.65V205.76c0-2.68-1.13-3.65-3-3.65Z" style="fill:#263238"></path><path d="M520.11,234.34h-6l-1-6.82h-7.26l-1,6.82h-5.42l6-37.6h8.65Zm-13.48-11.92h5.69l-2.85-19Z" style="fill:#263238"></path><path d="M528.38,221.88l-7.46-25.14h6.17l4.52,17.14,4.51-17.14h5.64l-7.47,25.14v12.46h-5.91Z" style="fill:#263238"></path></g><g id="Character"><path d="M260.85,87.58A88.77,88.77,0,0,0,118.36,193.5Z" style="fill:#fff;stroke:#263238;stroke-miterlimit:10"></path><path d="M151.29,169a47.75,47.75,0,0,1,76.64-57l6.11-4.55a55.37,55.37,0,0,0-88.87,66.06Z" style="fill:#92E3A9;stroke:#263238;stroke-miterlimit:10"></path><path d="M166.8,157.49a28.42,28.42,0,0,1,45.61-33.9l6.11-4.54a36,36,0,0,0-57.83,43Z" style="fill:#92E3A9;stroke:#263238;stroke-miterlimit:10"></path><path d="M188.33,138.82,136.47,69.06" style="fill:#fff;stroke:#263238;stroke-miterlimit:10"></path><path d="M131.24,94.52c-3.83-3-7.67-6.11-11.51-9.22" style="fill:#fff;stroke:#263238;stroke-miterlimit:10"></path><path d="M187.87,139.27c-17.55-14.22-35-27.65-52.46-41.46" style="fill:#fff;stroke:#263238;stroke-miterlimit:10"></path><path d="M187.23,139.68c-26.22-12.56-53.6-22.87-79.48-34.35" style="fill:#fff;stroke:#263238;stroke-miterlimit:10"></path><path d="M107,128.59l-5.65-.83" style="fill:#fff;stroke:#263238;stroke-miterlimit:10"></path><path d="M186.43,140.29l-75.08-11.06" style="fill:#fff;stroke:#263238;stroke-miterlimit:10"></path><path d="M185.05,141.33c-28,4-56,6.22-84,9.76" style="fill:#fff;stroke:#263238;stroke-miterlimit:10"></path><path d="M119,168.65q-6.1,2.46-12.26,5.06" style="fill:#fff;stroke:#263238;stroke-miterlimit:10"></path><path d="M181.36,144.12c-18.79,7.94-37.26,14.61-55.93,22" style="fill:#fff;stroke:#263238;stroke-miterlimit:10"></path><path d="M242.34,74.25l2.91-3.53" style="fill:#fff;stroke:#263238;stroke-miterlimit:10"></path><path d="M195.4,133.68C211,114.89,224.69,96,240,77.16" style="fill:#fff;stroke:#263238;stroke-miterlimit:10"></path><path d="M191.67,136.41c12-25.63,22.08-51.78,33.56-77.66" style="fill:#fff;stroke:#263238;stroke-miterlimit:10"></path><path d="M199.31,76.07q1.74-11.88,3.48-23.7" style="fill:#fff;stroke:#263238;stroke-miterlimit:10"></path><path d="M190.27,137.43q4.24-28.77,8.42-57.16" style="fill:#fff;stroke:#263238;stroke-miterlimit:10"></path><path d="M180.46,60.27q-.48-4.14-1-8.25" style="fill:#fff;stroke:#263238;stroke-miterlimit:10"></path><path d="M189.46,138c-3.71-23.89-5.71-48.09-8.31-71.72" style="fill:#fff;stroke:#263238;stroke-miterlimit:10"></path><path d="M167.19,83.66q-5.07-12.94-10.34-25.95" style="fill:#fff;stroke:#263238;stroke-miterlimit:10"></path><path d="M188.88,138.51c-7-17.15-13.56-34.09-20.2-51.06" style="fill:#fff;stroke:#263238;stroke-miterlimit:10"></path><path d="M170.61,240a222.86,222.86,0,0,0-27.4,33.09c-13.52,19.93-12.45,48.4-12.09,50.18s.71,37.71.71,37.71H264.19s.72-24.9-9.6-48.39-26.33-46.26-26.33-46.26Z" style="fill:#696969;stroke:#263238;stroke-miterlimit:10"></path><path d="M260.32,329.54c-5.22-13.27-12.59-28.51-21.74-38.34-19.22-20.64-40.57-32-59.78-32.38-16.51-.3-28.55,7.53-37.71,17.64-7.75,13.49-9.72,29.73-10.08,39.12,4.31-8.84,15.3-28.43,31.06-35.76,20.64-9.61,38.08,1.77,49.46,11.38,9,7.57,39.59,43.64,52.18,58.59A135.08,135.08,0,0,0,260.32,329.54Z" style="fill:#92E3A9;stroke:#263238;stroke-miterlimit:10"></path><path d="M175.48,211.7s3.25,7.65,3.71,8.58-2.55,9-2.55,9a106.32,106.32,0,0,0,20.64,16.93,225.94,225.94,0,0,0,27.13,13.91,97.38,97.38,0,0,1,3.24-12.75,44.31,44.31,0,0,1,5.57-10S219.3,231.87,215.59,227s-12.28-24.57-12.28-24.57Z" style="fill:#c7c7c7;stroke:#263238;stroke-miterlimit:10"></path><path d="M254.47,168.21s5.22,7.59,5.22,10.91a12.59,12.59,0,0,1-.95,5.22s11.39,13.28,11.39,17.55S259.69,209,259.69,209s1.9,25.62.95,28.94-4.75,4.27-10.44,4.27-31.31-5.7-35.58-7.59-7.12-7.6-9-13.29-3.32-10.91-3.32-10.91-6.17,0-8.54-1.9S241.66,182.44,254.47,168.21Z" style="fill:#c7c7c7;stroke:#263238;stroke-miterlimit:10"></path><polyline points="250.14 185.96 240.17 189.67 248.99 188.98" style="fill:#fff;stroke:#263238;stroke-linecap:round;stroke-miterlimit:10;stroke-width:2px"></polyline><path d="M251.77,181.09a32.52,32.52,0,0,0-14.15,4.18s10.44-.93,12.76-2.09,1.85-2.78.46-2.78" style="fill:#263238;stroke:#263238;stroke-miterlimit:10"></path><path d="M234.38,224.92c-7.42.23-15.31.23-20.87-6.5a49.21,49.21,0,0,1-8.12-15.3l-5.1,1.62,2,5.69s1.42,5.22,3.32,10.91,4.75,11.39,9,13.29,29.89,7.59,35.58,7.59,9.49-.95,10.44-4.27c.66-2.33-.07-15.65-.57-23.38-2.27.94-5.06,3.1-8.53,5C244.81,223.29,241.8,224.69,234.38,224.92Z" style="fill:#263238;stroke:#263238;stroke-miterlimit:10"></path><path d="M259.69,209s-5.6.84-8.62,2.46-10.66,9.51-11.59,13.22-.93,3.94,3.48,2.78,8.11-4.18,11.13-6.26,3.24.23,5.56-3S260.42,209.79,259.69,209Z" style="fill:#263238;stroke:#263238;stroke-miterlimit:10"></path><path d="M171,142.47s3.56-23.13,6.4-23.13S200.15,124,200.15,124L171,145.31Z" style="fill:#fff;stroke:#263238;stroke-miterlimit:10"></path><path d="M150.33,173.07s-10,3.2-9.25,6.76,23.48,32.38,29.18,35.58,44.83-14.94,59.06-22.77,27.4-21.35,27.76-24.91-9.25-36.65-10.68-39.85-2.49-15.66-5.33-18.15-12.46-1.07-20.29,1.78-34.87,15.3-49.81,31S150.33,173.07,150.33,173.07Z" style="fill:#92E3A9;stroke:#263238;stroke-miterlimit:10"></path><path d="M245.36,124c-.74,1.38-1.68,3-2.87,4.94-3.56,5.69-37,36.65-61.2,46.25-22.86,9.08-37.77,6.72-39.35,6.44,4.28,7.31,23.2,30.89,28.32,33.77,5.69,3.2,44.83-14.94,59.06-22.77s27.4-21.35,27.76-24.91-9.25-36.65-10.68-39.85A23.45,23.45,0,0,1,245.36,124Z" style="fill:#fff;stroke:#263238;stroke-miterlimit:10"></path><path d="M208,159.54c-8.52,6.18-17.49,11.78-25.54,15.17l19.68,31.06c9.23-4,18.43-8.5,24.64-11.79Z" style="fill:#fff;stroke:#263238;stroke-miterlimit:10"></path><path d="M205.12,204.47c6.76-3,13.33-6.19,18.54-8.85l-18.81-33.81a139.07,139.07,0,0,1-19,11.38Z" style="fill:#92E3A9;stroke:#263238;stroke-miterlimit:10"></path><path d="M220.4,150l17.46,37.26c9.53-6.82,17.27-14.9,18.9-18.49l-15.43-38.26C238.17,134.25,230.24,141.89,220.4,150Z" style="fill:#fff;stroke:#263238;stroke-miterlimit:10"></path><path d="M223.05,147.77l17.18,37.71A86,86,0,0,0,254.61,172l-15.9-38.63C235.18,137,229.64,142.22,223.05,147.77Z" style="fill:#92E3A9;stroke:#263238;stroke-miterlimit:10"></path><path d="M170.21,178.94a79.31,79.31,0,0,1-22.65,3.17l-3.19-.15,27.19,33.79c3.57.34,11.56-2.2,20.69-5.82Z" style="fill:#fff;stroke:#263238;stroke-miterlimit:10"></path><path d="M150.14,182.1l24.42,33.47a86.23,86.23,0,0,0,15.17-4.66l-22.5-31.19A79.35,79.35,0,0,1,150.14,182.1Z" style="fill:#92E3A9;stroke:#263238;stroke-miterlimit:10"></path><polygon points="181.64 252.42 177.02 266.65 195.88 270.56 195.16 258.82 181.64 252.42" style="fill:#696969;stroke:#263238;stroke-miterlimit:10"></polygon><polygon points="173.1 262.02 198.37 266.65 198.01 281.24 170.97 277.32 173.1 262.02" style="fill:#fff;stroke:#263238;stroke-miterlimit:10"></polygon><path d="M175.94,224.69s16.7,16.92,27.37,23.41,28.28,11.37,28.28,11.37l.47,25.5a207.89,207.89,0,0,1-27.6-15.53c-13.68-9.28-38.72-28.29-38.72-28.29Z" style="fill:#696969;stroke:#263238;stroke-miterlimit:10"></path><polygon points="147.48 308.28 177.37 321.8 208.69 305.44 211.89 341.37 179.51 359.16 149.62 339.95 147.48 308.28" style="fill:#fff;stroke:#263238;stroke-miterlimit:10"></polygon><polyline points="148.91 322.16 178.09 335.32 209.75 320.38" style="fill:none;stroke:#263238;stroke-miterlimit:10"></polyline><polyline points="149.26 332.83 178.09 348.49 211.18 333.19" style="fill:none;stroke:#263238;stroke-miterlimit:10"></polyline></g><g id="building-3"><rect x="506.33" y="308.9" width="39.33" height="19.68" style="fill:#fff;stroke:#263238;stroke-miterlimit:10"></rect><rect x="485.81" y="313.5" width="80.39" height="20.93" style="fill:#fff;stroke:#263238;stroke-miterlimit:10"></rect><rect x="480.79" y="331" width="90.42" height="11.81" style="fill:#fff;stroke:#263238;stroke-miterlimit:10"></rect><path d="M474.81,353.61v109h35.57V390.88c0-7.91,7-14.33,15.62-14.33s15.62,6.42,15.62,14.33v71.69h35.57v-109Z" style="fill:#fff;stroke:#263238;stroke-miterlimit:10"></path><rect x="474.81" y="338.96" width="102.38" height="11.81" style="fill:#fff;stroke:#263238;stroke-miterlimit:10"></rect><polygon points="579.02 354.53 472.07 354.53 467.31 349.42 583.78 349.42 579.02 354.53" style="fill:#fff;stroke:#263238;stroke-miterlimit:10"></polygon><line x1="476.25" y1="360.67" x2="575.27" y2="360.67" style="fill:#fff;stroke:#263238;stroke-miterlimit:10"></line><line x1="500.28" y1="462.57" x2="500.28" y2="364.2" style="fill:#fff;stroke:#263238;stroke-miterlimit:10"></line><line x1="551.24" y1="369.3" x2="551.24" y2="364.2" style="fill:#fff;stroke:#263238;stroke-miterlimit:10"></line><line x1="551.24" y1="462.57" x2="551.24" y2="373.2" style="fill:#fff;stroke:#263238;stroke-miterlimit:10"></line><rect x="500.17" y="396.4" width="11.16" height="2.65" style="fill:#fff;stroke:#263238;stroke-miterlimit:10"></rect><rect x="540.21" y="396.4" width="11.16" height="2.65" style="fill:#fff;stroke:#263238;stroke-miterlimit:10"></rect><path d="M553,323.13A4.58,4.58,0,1,1,548.4,319,4.38,4.38,0,0,1,553,323.13Z" style="fill:#fff;stroke:#263238;stroke-miterlimit:10"></path><path d="M568.17,373.09a4.58,4.58,0,1,1-4.56-4.19A4.39,4.39,0,0,1,568.17,373.09Z" style="fill:#fff;stroke:#263238;stroke-miterlimit:10"></path><path d="M492.45,373.09a4.58,4.58,0,1,1-4.56-4.19A4.39,4.39,0,0,1,492.45,373.09Z" style="fill:#fff;stroke:#263238;stroke-miterlimit:10"></path><path d="M508.72,323.13a4.58,4.58,0,1,1-4.56-4.18A4.39,4.39,0,0,1,508.72,323.13Z" style="fill:#fff;stroke:#263238;stroke-miterlimit:10"></path><rect x="508.72" y="318.53" width="35.12" height="8.37" style="fill:#fff;stroke:#263238;stroke-miterlimit:10"></rect><path d="M533.75,305.13c0,1.62-3.47,2.93-7.75,2.93s-7.75-1.31-7.75-2.93,3.47-2.93,7.75-2.93S533.75,303.51,533.75,305.13Z" style="fill:#fff;stroke:#263238;stroke-miterlimit:10"></path><polygon points="512.38 308.9 517.86 305.13 533.89 305.13 541.19 308.9 512.38 308.9" style="fill:#fff;stroke:#263238;stroke-miterlimit:10"></polygon><rect x="472.68" y="419" width="28.74" height="2.93" style="fill:#fff;stroke:#263238;stroke-miterlimit:10"></rect><rect x="472.68" y="395.98" width="28.74" height="2.93" style="fill:#fff;stroke:#263238;stroke-miterlimit:10"></rect><rect x="550.23" y="419" width="28.74" height="2.93" style="fill:#fff;stroke:#263238;stroke-miterlimit:10"></rect><rect x="550.23" y="395.98" width="28.74" height="2.93" style="fill:#fff;stroke:#263238;stroke-miterlimit:10"></rect><line x1="479.52" y1="417.75" x2="479.52" y2="399.33" style="fill:#fff;stroke:#263238;stroke-miterlimit:10"></line><line x1="479.52" y1="395.14" x2="479.52" y2="381.32" style="fill:#fff;stroke:#263238;stroke-miterlimit:10"></line><line x1="479.52" y1="456.68" x2="479.52" y2="422.77" style="fill:#fff;stroke:#263238;stroke-miterlimit:10"></line><line x1="572.58" y1="417.75" x2="572.58" y2="399.33" style="fill:#fff;stroke:#263238;stroke-miterlimit:10"></line><line x1="572.58" y1="395.14" x2="572.58" y2="381.32" style="fill:#fff;stroke:#263238;stroke-miterlimit:10"></line><line x1="572.58" y1="456.68" x2="572.58" y2="422.77" style="fill:#fff;stroke:#263238;stroke-miterlimit:10"></line><line x1="555.25" y1="417.75" x2="555.25" y2="399.33" style="fill:#fff;stroke:#263238;stroke-miterlimit:10"></line><line x1="555.25" y1="395.14" x2="555.25" y2="381.32" style="fill:#fff;stroke:#263238;stroke-miterlimit:10"></line><line x1="555.25" y1="447.16" x2="555.25" y2="422.77" style="fill:#fff;stroke:#263238;stroke-miterlimit:10"></line><line x1="555.25" y1="456.68" x2="555.25" y2="451.05" style="fill:#fff;stroke:#263238;stroke-miterlimit:10"></line><line x1="496.86" y1="417.75" x2="496.86" y2="399.33" style="fill:#fff;stroke:#263238;stroke-miterlimit:10"></line><line x1="496.86" y1="395.14" x2="496.86" y2="381.32" style="fill:#fff;stroke:#263238;stroke-miterlimit:10"></line><line x1="496.86" y1="456.68" x2="496.86" y2="422.77" style="fill:#fff;stroke:#263238;stroke-miterlimit:10"></line><rect x="479.52" y="381.32" width="17.33" height="1.67" style="fill:#fff;stroke:#263238;stroke-miterlimit:10"></rect><rect x="555.26" y="381.32" width="17.33" height="1.67" style="fill:#fff;stroke:#263238;stroke-miterlimit:10"></rect></g><g id="building-1"><rect x="156.11" y="337.64" width="82.14" height="33.38" style="fill:#fff;stroke:#263238;stroke-miterlimit:10"></rect><rect x="86.91" y="358.88" width="63.01" height="19.55" style="fill:#fff;stroke:#263238;stroke-miterlimit:10"></rect><rect x="244.44" y="358.88" width="63.01" height="19.55" style="fill:#fff;stroke:#263238;stroke-miterlimit:10"></rect><rect x="86.91" y="364.79" width="63.01" height="19.55" style="fill:#fff;stroke:#263238;stroke-miterlimit:10"></rect><rect x="244.44" y="364.79" width="63.01" height="19.55" style="fill:#fff;stroke:#263238;stroke-miterlimit:10"></rect><rect x="85.08" y="363.24" width="224.9" height="1.69" style="fill:#fff;stroke:#263238;stroke-miterlimit:10"></rect><polygon points="83.42 386.12 85.79 395.03 85.79 461.98 106.1 461.98 106.1 428.56 130.95 428.56 130.95 461.98 167.79 461.98 167.79 386.35 227.22 386.35 227.22 461.98 265.7 461.98 265.7 428.56 287.91 428.56 287.91 461.98 308.02 461.98 308.02 393.34 310.27 386.12 83.42 386.12" style="fill:#fff;stroke:#263238;stroke-miterlimit:10"></polygon><polygon points="98.73 396.72 98.73 462 106.1 462 106.1 428.56 130.95 428.56 130.95 462 137.5 462 137.5 396.72 98.73 396.72" style="fill:#fff;stroke:#263238;stroke-miterlimit:10"></polygon><line x1="88.22" y1="394.32" x2="147.3" y2="394.32" style="fill:#fff;stroke:#263238;stroke-miterlimit:10"></line><rect x="89.92" y="386.03" width="2.53" height="8.04" style="fill:#fff;stroke:#263238;stroke-miterlimit:10"></rect><rect x="97.51" y="386.03" width="2.53" height="8.04" style="fill:#fff;stroke:#263238;stroke-miterlimit:10"></rect><rect x="105.09" y="386.03" width="2.53" height="8.04" style="fill:#fff;stroke:#263238;stroke-miterlimit:10"></rect><rect x="112.68" y="386.03" width="2.53" height="8.04" style="fill:#fff;stroke:#263238;stroke-miterlimit:10"></rect><rect x="120.26" y="386.03" width="2.53" height="8.04" style="fill:#fff;stroke:#263238;stroke-miterlimit:10"></rect><rect x="127.84" y="386.03" width="2.53" height="8.04" style="fill:#fff;stroke:#263238;stroke-miterlimit:10"></rect><rect x="135.43" y="386.03" width="2.53" height="8.04" style="fill:#fff;stroke:#263238;stroke-miterlimit:10"></rect><rect x="143.01" y="386.03" width="2.53" height="8.04" style="fill:#fff;stroke:#263238;stroke-miterlimit:10"></rect><path d="M103.93,426.79v35.36h6.49V444.83h.87v-2.58c0-5.09,3.23-11.42,7.22-11.42s7.22,6.33,7.22,11.42v2.58h.86v17.32h6.5V426.79c0-8.05-6.53-23.64-14.58-23.64h0C110.45,403.15,103.93,418.74,103.93,426.79Z" style="fill:#fff;stroke:#263238;stroke-miterlimit:10"></path><polygon points="256.82 396.72 256.82 462 265.7 462 265.7 428.56 287.91 428.56 287.91 462 295.6 462 295.6 396.72 256.82 396.72" style="fill:#fff;stroke:#263238;stroke-miterlimit:10"></polygon><line x1="246.32" y1="394.32" x2="305.39" y2="394.32" style="fill:#fff;stroke:#263238;stroke-miterlimit:10"></line><rect x="248.01" y="386.03" width="2.53" height="8.04" style="fill:#fff;stroke:#263238;stroke-miterlimit:10"></rect><rect x="255.6" y="386.03" width="2.53" height="8.04" style="fill:#fff;stroke:#263238;stroke-miterlimit:10"></rect><rect x="263.18" y="386.03" width="2.53" height="8.04" style="fill:#fff;stroke:#263238;stroke-miterlimit:10"></rect><rect x="270.77" y="386.03" width="2.53" height="8.04" style="fill:#fff;stroke:#263238;stroke-miterlimit:10"></rect><rect x="278.35" y="386.03" width="2.53" height="8.04" style="fill:#fff;stroke:#263238;stroke-miterlimit:10"></rect><rect x="285.94" y="386.03" width="2.53" height="8.04" style="fill:#fff;stroke:#263238;stroke-miterlimit:10"></rect><rect x="293.52" y="386.03" width="2.53" height="8.04" style="fill:#fff;stroke:#263238;stroke-miterlimit:10"></rect><rect x="301.11" y="386.03" width="2.53" height="8.04" style="fill:#fff;stroke:#263238;stroke-miterlimit:10"></rect><path d="M154.32,370.71v91.44h19V422.54h2.53v-5.9c0-11.63,9.43-26.12,21.06-26.12s21.07,14.49,21.07,26.12v5.9h2.53v39.61h19V370.71Z" style="fill:#fff;stroke:#263238;stroke-miterlimit:10"></path><path d="M262,426.79v35.36h6.5V444.83h.86v-2.58c0-5.09,3.23-11.42,7.22-11.42s7.22,6.33,7.22,11.42v2.58h.86v17.32h6.5V426.79c0-8.05-6.53-23.64-14.58-23.64h0C268.55,403.15,262,418.74,262,426.79Z" style="fill:#fff;stroke:#263238;stroke-miterlimit:10"></path><path d="M162.58,328.64c-.8-4.35-4.08-12.23-8-12.23s-7.23,7.88-8,12.23Z" style="fill:#fff;stroke:#263238;stroke-miterlimit:10"></path><polygon points="162.09 442.2 147.02 442.2 148.53 329.4 160.59 329.4 162.09 442.2" style="fill:#fff;stroke:#263238;stroke-miterlimit:10"></polygon><polygon points="158.4 442.2 150.72 442.2 151.49 329.4 157.63 329.4 158.4 442.2" style="fill:#fff;stroke:#263238;stroke-miterlimit:10"></polygon><path d="M146.82,442.2s-1.22,10.18-6.11,16.29h27.7c-4.89-6.11-6.11-16.29-6.11-16.29Z" style="fill:#fff;stroke:#263238;stroke-miterlimit:10"></path><rect x="140.3" y="458.49" width="28.52" height="4.07" style="fill:#fff;stroke:#263238;stroke-miterlimit:10"></rect><line x1="146.99" y1="393.88" x2="162.13" y2="393.88" style="fill:#fff;stroke:#263238;stroke-miterlimit:10"></line><line x1="146.99" y1="403.51" x2="162.13" y2="403.51" style="fill:#fff;stroke:#263238;stroke-miterlimit:10"></line><line x1="146.99" y1="413.14" x2="162.13" y2="413.14" style="fill:#fff;stroke:#263238;stroke-miterlimit:10"></line><line x1="146.99" y1="422.77" x2="162.13" y2="422.77" style="fill:#fff;stroke:#263238;stroke-miterlimit:10"></line><line x1="146.99" y1="432.4" x2="162.13" y2="432.4" style="fill:#fff;stroke:#263238;stroke-miterlimit:10"></line><rect x="146.13" y="327.43" width="16.86" height="3.33" style="fill:#fff;stroke:#263238;stroke-miterlimit:10"></rect><rect x="152.99" y="333.03" width="2.73" height="6.82" style="fill:#fff;stroke:#263238;stroke-miterlimit:10"></rect><rect x="158.88" y="333.03" width="1.19" height="6.82" style="fill:#fff;stroke:#263238;stroke-miterlimit:10"></rect><rect x="149.16" y="333.03" width="1.19" height="6.82" style="fill:#fff;stroke:#263238;stroke-miterlimit:10"></rect><line x1="154.46" y1="316.43" x2="154.46" y2="308.03" style="fill:#fff;stroke:#263238;stroke-miterlimit:10"></line><path d="M155.88,315a1.42,1.42,0,1,0-1.42,1.42A1.41,1.41,0,0,0,155.88,315Z" style="fill:#fff;stroke:#263238;stroke-miterlimit:10"></path><path d="M155.25,312.17a.79.79,0,0,0-1.58,0,.79.79,0,1,0,1.58,0Z" style="fill:#fff;stroke:#263238;stroke-miterlimit:10"></path><line x1="147.63" y1="325.41" x2="161.47" y2="325.41" style="fill:#fff;stroke:#263238;stroke-miterlimit:10"></line><line x1="148.08" y1="323.38" x2="161.02" y2="323.38" style="fill:#fff;stroke:#263238;stroke-miterlimit:10"></line><line x1="148.89" y1="321.54" x2="160.21" y2="321.54" style="fill:#fff;stroke:#263238;stroke-miterlimit:10"></line><line x1="150.11" y1="319.71" x2="158.99" y2="319.71" style="fill:#fff;stroke:#263238;stroke-miterlimit:10"></line><line x1="151.03" y1="318.29" x2="158.07" y2="318.29" style="fill:#fff;stroke:#263238;stroke-miterlimit:10"></line><path d="M248.12,328.64c-.79-4.35-4.08-12.23-8-12.23s-7.23,7.88-8,12.23Z" style="fill:#fff;stroke:#263238;stroke-miterlimit:10"></path><polygon points="247.64 442.2 232.57 442.2 234.08 329.4 246.14 329.4 247.64 442.2" style="fill:#fff;stroke:#263238;stroke-miterlimit:10"></polygon><polygon points="243.94 442.2 236.27 442.2 237.04 329.4 243.18 329.4 243.94 442.2" style="fill:#fff;stroke:#263238;stroke-miterlimit:10"></polygon><path d="M232.37,442.2s-1.23,10.18-6.12,16.29H254c-4.89-6.11-6.11-16.29-6.11-16.29Z" style="fill:#fff;stroke:#263238;stroke-miterlimit:10"></path><rect x="225.85" y="458.49" width="28.52" height="4.07" style="fill:#fff;stroke:#263238;stroke-miterlimit:10"></rect><line x1="232.54" y1="393.88" x2="247.68" y2="393.88" style="fill:#fff;stroke:#263238;stroke-miterlimit:10"></line><line x1="232.54" y1="403.51" x2="247.68" y2="403.51" style="fill:#fff;stroke:#263238;stroke-miterlimit:10"></line><line x1="232.54" y1="413.14" x2="247.68" y2="413.14" style="fill:#fff;stroke:#263238;stroke-miterlimit:10"></line><line x1="232.54" y1="422.77" x2="247.68" y2="422.77" style="fill:#fff;stroke:#263238;stroke-miterlimit:10"></line><line x1="232.54" y1="432.4" x2="247.68" y2="432.4" style="fill:#fff;stroke:#263238;stroke-miterlimit:10"></line><rect x="231.68" y="327.43" width="16.86" height="3.33" style="fill:#fff;stroke:#263238;stroke-miterlimit:10"></rect><rect x="238.54" y="333.03" width="2.73" height="6.82" style="fill:#fff;stroke:#263238;stroke-miterlimit:10"></rect><rect x="244.43" y="333.03" width="1.19" height="6.82" style="fill:#fff;stroke:#263238;stroke-miterlimit:10"></rect><rect x="234.71" y="333.03" width="1.19" height="6.82" style="fill:#fff;stroke:#263238;stroke-miterlimit:10"></rect><line x1="240.01" y1="316.43" x2="240.01" y2="308.03" style="fill:#fff;stroke:#263238;stroke-miterlimit:10"></line><circle cx="240.01" cy="315.01" r="1.42" style="fill:#fff;stroke:#263238;stroke-miterlimit:10"></circle><path d="M240.8,312.17a.79.79,0,1,0-.79.79A.79.79,0,0,0,240.8,312.17Z" style="fill:#fff;stroke:#263238;stroke-miterlimit:10"></path><line x1="233.18" y1="325.41" x2="247.02" y2="325.41" style="fill:#fff;stroke:#263238;stroke-miterlimit:10"></line><line x1="233.63" y1="323.38" x2="246.57" y2="323.38" style="fill:#fff;stroke:#263238;stroke-miterlimit:10"></line><line x1="234.44" y1="321.54" x2="245.76" y2="321.54" style="fill:#fff;stroke:#263238;stroke-miterlimit:10"></line><line x1="235.66" y1="319.71" x2="244.54" y2="319.71" style="fill:#fff;stroke:#263238;stroke-miterlimit:10"></line><line x1="236.58" y1="318.29" x2="243.62" y2="318.29" style="fill:#fff;stroke:#263238;stroke-miterlimit:10"></line><line x1="167.37" y1="385.47" x2="226.44" y2="385.47" style="fill:#fff;stroke:#263238;stroke-miterlimit:10"></line><rect x="169.06" y="371.56" width="2.53" height="13.48" style="fill:#fff;stroke:#263238;stroke-miterlimit:10"></rect><rect x="176.65" y="371.56" width="2.53" height="13.48" style="fill:#fff;stroke:#263238;stroke-miterlimit:10"></rect><rect x="184.23" y="371.56" width="2.53" height="13.48" style="fill:#fff;stroke:#263238;stroke-miterlimit:10"></rect><rect x="191.82" y="371.56" width="2.53" height="13.48" style="fill:#fff;stroke:#263238;stroke-miterlimit:10"></rect><rect x="199.4" y="371.56" width="2.53" height="13.48" style="fill:#fff;stroke:#263238;stroke-miterlimit:10"></rect><rect x="206.99" y="371.56" width="2.53" height="13.48" style="fill:#fff;stroke:#263238;stroke-miterlimit:10"></rect><rect x="214.57" y="371.56" width="2.53" height="13.48" style="fill:#fff;stroke:#263238;stroke-miterlimit:10"></rect><rect x="222.16" y="371.56" width="2.53" height="13.48" style="fill:#fff;stroke:#263238;stroke-miterlimit:10"></rect><polygon points="84.1 369.82 85.79 372.92 307.64 372.92 310.17 369.82 84.1 369.82" style="fill:#fff;stroke:#263238;stroke-miterlimit:10"></polygon><rect x="144.47" y="346.19" width="105.73" height="3.1" style="fill:#fff;stroke:#263238;stroke-miterlimit:10"></rect><polygon points="310.27 386.12 230.01 386.12 230.01 383.01 311.11 383.01 310.27 386.12" style="fill:#fff;stroke:#263238;stroke-miterlimit:10"></polygon><polygon points="83.42 386.12 165.36 386.12 165.36 383.01 82.57 383.01 83.42 386.12" style="fill:#fff;stroke:#263238;stroke-miterlimit:10"></polygon><line x1="264.98" y1="421.71" x2="287.85" y2="421.71" style="fill:#fff;stroke:#263238;stroke-miterlimit:10"></line><line x1="267.25" y1="412.55" x2="267.25" y2="420.63" style="fill:#fff;stroke:#263238;stroke-miterlimit:10"></line><line x1="270.33" y1="408.27" x2="270.33" y2="420.63" style="fill:#fff;stroke:#263238;stroke-miterlimit:10"></line><line x1="273.41" y1="405.47" x2="273.41" y2="420.63" style="fill:#fff;stroke:#263238;stroke-miterlimit:10"></line><line x1="276.48" y1="405.14" x2="276.48" y2="420.63" style="fill:#fff;stroke:#263238;stroke-miterlimit:10"></line><line x1="279.56" y1="405.47" x2="279.56" y2="420.63" style="fill:#fff;stroke:#263238;stroke-miterlimit:10"></line><line x1="282.64" y1="408.27" x2="282.64" y2="420.63" style="fill:#fff;stroke:#263238;stroke-miterlimit:10"></line><line x1="285.71" y1="412.55" x2="285.71" y2="420.63" style="fill:#fff;stroke:#263238;stroke-miterlimit:10"></line><line x1="271.7" y1="407.61" x2="281.1" y2="407.61" style="fill:#fff;stroke:#263238;stroke-miterlimit:10"></line><line x1="268.57" y1="410.58" x2="284.39" y2="410.58" style="fill:#fff;stroke:#263238;stroke-miterlimit:10"></line><line x1="266.43" y1="414.37" x2="285.71" y2="414.37" style="fill:#fff;stroke:#263238;stroke-miterlimit:10"></line><line x1="265.44" y1="418.16" x2="286.87" y2="418.16" style="fill:#fff;stroke:#263238;stroke-miterlimit:10"></line><line x1="106.74" y1="421.71" x2="129.61" y2="421.71" style="fill:#fff;stroke:#263238;stroke-miterlimit:10"></line><line x1="109.02" y1="412.55" x2="109.02" y2="420.63" style="fill:#fff;stroke:#263238;stroke-miterlimit:10"></line><line x1="112.1" y1="408.27" x2="112.1" y2="420.63" style="fill:#fff;stroke:#263238;stroke-miterlimit:10"></line><line x1="115.17" y1="405.47" x2="115.17" y2="420.63" style="fill:#fff;stroke:#263238;stroke-miterlimit:10"></line><line x1="118.25" y1="405.14" x2="118.25" y2="420.63" style="fill:#fff;stroke:#263238;stroke-miterlimit:10"></line><line x1="121.33" y1="405.47" x2="121.33" y2="420.63" style="fill:#fff;stroke:#263238;stroke-miterlimit:10"></line><line x1="124.4" y1="408.27" x2="124.4" y2="420.63" style="fill:#fff;stroke:#263238;stroke-miterlimit:10"></line><line x1="127.48" y1="412.55" x2="127.48" y2="420.63" style="fill:#fff;stroke:#263238;stroke-miterlimit:10"></line><line x1="113.47" y1="407.61" x2="122.87" y2="407.61" style="fill:#fff;stroke:#263238;stroke-miterlimit:10"></line><line x1="110.34" y1="410.58" x2="126.16" y2="410.58" style="fill:#fff;stroke:#263238;stroke-miterlimit:10"></line><line x1="108.2" y1="414.37" x2="127.48" y2="414.37" style="fill:#fff;stroke:#263238;stroke-miterlimit:10"></line><line x1="107.21" y1="418.16" x2="128.63" y2="418.16" style="fill:#fff;stroke:#263238;stroke-miterlimit:10"></line></g><g id="building-2"><path d="M365.63,373.17a10.58,10.58,0,0,0,.32-2.54c0-5.86-8.49-12.82-10.93-12.82-2.23,0-10.93,7-10.93,12.82a10.1,10.1,0,0,0,.32,2.54Z" style="fill:#fff;stroke:#263238;stroke-miterlimit:10"></path><line x1="355.02" y1="357.81" x2="355.02" y2="351.27" style="fill:none;stroke:#263238;stroke-miterlimit:10"></line><rect x="344.75" y="373.17" width="20.88" height="11.48" style="fill:#fff;stroke:#263238;stroke-miterlimit:10"></rect><path d="M355.71,376.11l-1.25-.61-1.32.62a3,3,0,0,0-1.71,2.69v6.05h6v-6.08A3,3,0,0,0,355.71,376.11Z" style="fill:#fff;stroke:#263238;stroke-miterlimit:10"></path><path d="M362.47,376.11l-.75-.61-.79.62a3.51,3.51,0,0,0-1,2.69v6.05h3.57v-6.08A3.5,3.5,0,0,0,362.47,376.11Z" style="fill:#fff;stroke:#263238;stroke-miterlimit:10"></path><path d="M348.57,376.11l-.72-.61-.75.62a3.61,3.61,0,0,0-1,2.69v6.05h3.39v-6.08A3.64,3.64,0,0,0,348.57,376.11Z" style="fill:#fff;stroke:#263238;stroke-miterlimit:10"></path><path d="M423.69,364.26a28.4,28.4,0,0,0,3.94-14.41c0-16.82-14.86-33-33.2-33s-33.2,16.19-33.2,33a28.31,28.31,0,0,0,3.95,14.41Z" style="fill:#fff;stroke:#263238;stroke-miterlimit:10"></path><path d="M444.58,373.17a10.1,10.1,0,0,0,.32-2.54c0-5.86-8.49-12.82-10.93-12.82-2.22,0-10.93,7-10.93,12.82a10.58,10.58,0,0,0,.32,2.54Z" style="fill:#fff;stroke:#263238;stroke-miterlimit:10"></path><line x1="433.97" y1="357.81" x2="433.97" y2="351.27" style="fill:none;stroke:#263238;stroke-miterlimit:10"></line><rect x="423.71" y="373.17" width="20.88" height="11.48" style="fill:#fff;stroke:#263238;stroke-miterlimit:10"></rect><path d="M434.67,376.11l-1.26-.61-1.32.62a3,3,0,0,0-1.7,2.69v6.05h5.95v-6.08A3,3,0,0,0,434.67,376.11Z" style="fill:#fff;stroke:#263238;stroke-miterlimit:10"></path><path d="M441.43,376.11l-.75-.61-.79.62a3.47,3.47,0,0,0-1,2.69v6.05h3.56v-6.08A3.54,3.54,0,0,0,441.43,376.11Z" style="fill:#fff;stroke:#263238;stroke-miterlimit:10"></path><path d="M427.52,376.11l-.71-.61-.75.62a3.61,3.61,0,0,0-1,2.69v6.05h3.39v-6.08A3.6,3.6,0,0,0,427.52,376.11Z" style="fill:#fff;stroke:#263238;stroke-miterlimit:10"></path><path d="M394,306.72l-14.16,14.16s9.1-2.78,14.92-2.78,14.16,2.53,14.16,2.53Z" style="fill:#fff;stroke:#263238;stroke-miterlimit:10"></path><line x1="394" y1="306.72" x2="394" y2="290.03" style="fill:none;stroke:#263238;stroke-miterlimit:10"></line><path d="M390.74,290.39a3.54,3.54,0,0,0,6.28.48" style="fill:none;stroke:#263238;stroke-miterlimit:10"></path><circle cx="394.25" cy="305.46" r="1.26" style="fill:none;stroke:#263238;stroke-miterlimit:10"></circle><path d="M395.52,301.41a1.27,1.27,0,1,0-2.53,0,1.27,1.27,0,0,0,2.53,0Z" style="fill:none;stroke:#263238;stroke-miterlimit:10"></path><rect x="457.12" y="377.25" width="7.42" height="7.58" style="fill:#fff;stroke:#263238;stroke-miterlimit:10"></rect><line x1="461.48" y1="377.09" x2="461.48" y2="365.31" style="fill:none;stroke:#263238;stroke-miterlimit:10"></line><line x1="463.25" y1="368.38" x2="460.35" y2="368.38" style="fill:none;stroke:#263238;stroke-miterlimit:10"></line><line x1="457.3" y1="371.85" x2="457.3" y2="377.09" style="fill:none;stroke:#263238;stroke-miterlimit:10"></line><line x1="458.65" y1="373.22" x2="456.23" y2="373.22" style="fill:none;stroke:#263238;stroke-miterlimit:10"></line><polygon points="457.12 377.25 451.48 384.67 457.12 384.67 457.12 377.25" style="fill:#263238;stroke:#263238;stroke-miterlimit:10"></polygon><rect x="324.92" y="377.25" width="7.42" height="7.58" transform="translate(657.27 762.08) rotate(180)" style="fill:#fff;stroke:#263238;stroke-miterlimit:10"></rect><line x1="327.99" y1="377.09" x2="327.99" y2="365.31" style="fill:none;stroke:#263238;stroke-miterlimit:10"></line><line x1="326.21" y1="368.38" x2="329.12" y2="368.38" style="fill:none;stroke:#263238;stroke-miterlimit:10"></line><line x1="332.16" y1="371.85" x2="332.16" y2="377.09" style="fill:none;stroke:#263238;stroke-miterlimit:10"></line><line x1="330.81" y1="373.22" x2="333.23" y2="373.22" style="fill:none;stroke:#263238;stroke-miterlimit:10"></line><polygon points="332.34 377.25 337.99 384.67 332.34 384.67 332.34 377.25" style="fill:#263238;stroke:#263238;stroke-miterlimit:10"></polygon><rect x="324.45" y="385.07" width="40.97" height="56.91" style="fill:#fff;stroke:#263238;stroke-miterlimit:10"></rect><rect x="424.1" y="385.07" width="40.97" height="56.91" style="fill:#fff;stroke:#263238;stroke-miterlimit:10"></rect><line x1="326.14" y1="389.88" x2="361.83" y2="389.88" style="fill:none;stroke:#263238;stroke-miterlimit:10"></line><line x1="426.61" y1="389.88" x2="462.3" y2="389.88" style="fill:none;stroke:#263238;stroke-miterlimit:10"></line><path d="M491.77,370.27a4,4,0,0,0,.12-.91c0-2.1-3.05-4.59-3.92-4.59s-3.91,2.49-3.91,4.59a4,4,0,0,0,.11.91Z" style="fill:#fff;stroke:#263238;stroke-miterlimit:10"></path><line x1="482.49" y1="370.33" x2="493.42" y2="370.33" style="fill:none;stroke:#263238;stroke-linecap:round;stroke-miterlimit:10"></line><line x1="487.97" y1="364.77" x2="487.97" y2="362.42" style="fill:none;stroke:#263238;stroke-miterlimit:10"></line><rect x="484.29" y="370.27" width="7.48" height="6.23" style="fill:#fff;stroke:#263238;stroke-miterlimit:10"></rect><path d="M488.22,371.32l-.45-.22-.47.22a1.06,1.06,0,0,0-.61,1v4.28h2.13v-4.29A1.06,1.06,0,0,0,488.22,371.32Z" style="fill:#fff;stroke:#263238;stroke-miterlimit:10"></path><path d="M490.64,371.32l-.27-.22-.28.22a1.28,1.28,0,0,0-.37,1v4.28H491v-4.29A1.26,1.26,0,0,0,490.64,371.32Z" style="fill:#fff;stroke:#263238;stroke-miterlimit:10"></path><path d="M485.66,371.32l-.26-.22-.26.22a1.27,1.27,0,0,0-.35,1v4.28H486v-4.29A1.3,1.3,0,0,0,485.66,371.32Z" style="fill:#fff;stroke:#263238;stroke-miterlimit:10"></path><polygon points="491.76 377.45 484.18 377.45 482.55 441.43 493.39 441.43 491.76 377.45" style="fill:#fff;stroke:#263238;stroke-miterlimit:10"></polygon><rect x="482.84" y="376.98" width="10.27" height="2.05" rx="0.71" style="fill:#fff;stroke:#263238;stroke-miterlimit:10"></rect><rect x="482.84" y="400.59" width="10.27" height="2.05" rx="0.71" style="fill:#fff;stroke:#263238;stroke-miterlimit:10"></rect><rect x="481.23" y="421.78" width="13.81" height="2.99" rx="1.04" style="fill:#fff;stroke:#263238;stroke-miterlimit:10"></rect><path d="M523,342.13a5.41,5.41,0,0,0,.16-1.28c0-2.92-4.24-6.4-5.46-6.4s-5.47,3.48-5.47,6.4a4.94,4.94,0,0,0,.17,1.28Z" style="fill:#fff;stroke:#263238;stroke-miterlimit:10"></path><line x1="517.74" y1="334.45" x2="517.74" y2="331.18" style="fill:none;stroke:#263238;stroke-miterlimit:10"></line><rect x="512.61" y="342.13" width="10.43" height="8.69" style="fill:#fff;stroke:#263238;stroke-miterlimit:10"></rect><path d="M518.08,343.6l-.62-.31-.66.31a1.48,1.48,0,0,0-.85,1.34v6h3v-6A1.45,1.45,0,0,0,518.08,343.6Z" style="fill:#fff;stroke:#263238;stroke-miterlimit:10"></path><path d="M521.46,343.6l-.37-.31-.4.31a1.74,1.74,0,0,0-.51,1.34v6H522v-6A1.72,1.72,0,0,0,521.46,343.6Z" style="fill:#fff;stroke:#263238;stroke-miterlimit:10"></path><path d="M514.51,343.6l-.35-.31-.38.31a1.81,1.81,0,0,0-.48,1.34v6H515v-6A1.75,1.75,0,0,0,514.51,343.6Z" style="fill:#fff;stroke:#263238;stroke-miterlimit:10"></path><polygon points="523.03 352.15 512.44 352.15 510.17 441.43 525.3 441.43 523.03 352.15" style="fill:#fff;stroke:#263238;stroke-miterlimit:10"></polygon><rect x="510.58" y="351.9" width="14.33" height="2.05" rx="0.71" style="fill:#fff;stroke:#263238;stroke-miterlimit:10"></rect><rect x="510.86" y="341.44" width="13.75" height="2.05" rx="0.71" style="fill:#fff;stroke:#263238;stroke-miterlimit:10"></rect><rect x="510.58" y="384.44" width="14.33" height="2.87" rx="0.97" style="fill:#fff;stroke:#263238;stroke-miterlimit:10"></rect><rect x="508.34" y="413.54" width="19.27" height="2.99" rx="1.04" style="fill:#fff;stroke:#263238;stroke-miterlimit:10"></rect><path d="M295.17,370.27a4,4,0,0,1-.12-.91c0-2.1,3.05-4.59,3.92-4.59s3.91,2.49,3.91,4.59a4,4,0,0,1-.11.91Z" style="fill:#fff;stroke:#263238;stroke-miterlimit:10"></path><line x1="293.5" y1="370.07" x2="304.28" y2="370.07" style="fill:none;stroke:#263238;stroke-linecap:round;stroke-miterlimit:10"></line><line x1="298.97" y1="364.77" x2="298.97" y2="362.42" style="fill:none;stroke:#263238;stroke-miterlimit:10"></line><rect x="295.17" y="370.27" width="7.48" height="6.23" transform="translate(597.82 746.76) rotate(180)" style="fill:#fff;stroke:#263238;stroke-miterlimit:10"></rect><path d="M298.72,371.32l.45-.22.47.22a1.08,1.08,0,0,1,.61,1v4.28h-2.13v-4.29A1.06,1.06,0,0,1,298.72,371.32Z" style="fill:#fff;stroke:#263238;stroke-miterlimit:10"></path><path d="M296.3,371.32l.27-.22.28.22a1.28,1.28,0,0,1,.37,1v4.28h-1.28v-4.29A1.26,1.26,0,0,1,296.3,371.32Z" style="fill:#fff;stroke:#263238;stroke-miterlimit:10"></path><path d="M301.28,371.32l.25-.22.27.22a1.27,1.27,0,0,1,.35,1v4.28h-1.21v-4.29A1.3,1.3,0,0,1,301.28,371.32Z" style="fill:#fff;stroke:#263238;stroke-miterlimit:10"></path><polygon points="295.18 377.45 302.76 377.45 304.39 441.43 293.55 441.43 295.18 377.45" style="fill:#fff;stroke:#263238;stroke-miterlimit:10"></polygon><rect x="293.84" y="376.98" width="10.27" height="2.05" rx="0.71" transform="translate(597.94 756.02) rotate(180)" style="fill:#fff;stroke:#263238;stroke-miterlimit:10"></rect><rect x="293.84" y="400.59" width="10.27" height="2.05" rx="0.71" transform="translate(597.94 803.24) rotate(180)" style="fill:#fff;stroke:#263238;stroke-miterlimit:10"></rect><rect x="291.89" y="421.78" width="13.81" height="2.99" rx="1.04" transform="translate(597.6 846.54) rotate(180)" style="fill:#fff;stroke:#263238;stroke-miterlimit:10"></rect><path d="M263.9,342.13a5.41,5.41,0,0,1-.16-1.28c0-2.92,4.24-6.4,5.46-6.4s5.47,3.48,5.47,6.4a4.94,4.94,0,0,1-.17,1.28Z" style="fill:#fff;stroke:#263238;stroke-miterlimit:10"></path><line x1="269.2" y1="334.45" x2="269.2" y2="331.18" style="fill:none;stroke:#263238;stroke-miterlimit:10"></line><rect x="263.9" y="342.13" width="10.43" height="8.69" transform="translate(538.23 692.94) rotate(180)" style="fill:#fff;stroke:#263238;stroke-miterlimit:10"></rect><path d="M268.86,343.6l.62-.31.66.31a1.48,1.48,0,0,1,.85,1.34v6h-3v-6A1.45,1.45,0,0,1,268.86,343.6Z" style="fill:#fff;stroke:#263238;stroke-miterlimit:10"></path><path d="M265.48,343.6l.37-.31.4.31a1.74,1.74,0,0,1,.51,1.34v6H265v-6A1.72,1.72,0,0,1,265.48,343.6Z" style="fill:#fff;stroke:#263238;stroke-miterlimit:10"></path><path d="M272.43,343.6l.35-.31.38.31a1.81,1.81,0,0,1,.48,1.34v6H272v-6A1.75,1.75,0,0,1,272.43,343.6Z" style="fill:#fff;stroke:#263238;stroke-miterlimit:10"></path><polygon points="263.91 352.15 274.5 352.15 276.76 441.43 261.64 441.43 263.91 352.15" style="fill:#fff;stroke:#263238;stroke-miterlimit:10"></polygon><rect x="262.04" y="351.9" width="14.33" height="2.05" rx="0.71" transform="translate(538.4 705.86) rotate(180)" style="fill:#fff;stroke:#263238;stroke-miterlimit:10"></rect><rect x="262.09" y="341.44" width="14.22" height="2.05" rx="0.71" transform="translate(538.4 684.94) rotate(180)" style="fill:#fff;stroke:#263238;stroke-miterlimit:10"></rect><rect x="262.04" y="384.44" width="14.33" height="2.87" rx="0.97" transform="translate(538.4 771.75) rotate(180)" style="fill:#fff;stroke:#263238;stroke-miterlimit:10"></rect><rect x="259.33" y="413.54" width="19.27" height="2.99" rx="1.04" transform="translate(537.93 830.07) rotate(180)" style="fill:#fff;stroke:#263238;stroke-miterlimit:10"></rect><rect x="365.18" y="364.26" width="58.81" height="77.71" style="fill:#fff;stroke:#263238;stroke-miterlimit:10"></rect><path d="M356.58,422l-2.83-1.38-3,1.4a6.68,6.68,0,0,0-3.86,6.06v13.66h13.44V428.06A6.68,6.68,0,0,0,356.58,422Z" style="fill:#fff;stroke:#263238;stroke-miterlimit:10"></path><path d="M356.58,396.24l-2.83-1.37-3,1.39a6.68,6.68,0,0,0-3.86,6.06V416h13.44V402.26A6.7,6.7,0,0,0,356.58,396.24Z" style="fill:#fff;stroke:#263238;stroke-miterlimit:10"></path><path d="M334.27,422l-1.93-1.38-2,1.4c-1.6,1.1-2.62,3.46-2.62,6.06v13.66h9.14V428.06C336.84,425.49,335.84,423.15,334.27,422Z" style="fill:#fff;stroke:#263238;stroke-miterlimit:10"></path><path d="M334.27,396.24l-1.93-1.37-2,1.39c-1.6,1.1-2.62,3.46-2.62,6.06V416h9.14V402.26A7.44,7.44,0,0,0,334.27,396.24Z" style="fill:#fff;stroke:#263238;stroke-miterlimit:10"></path><path d="M431.62,422l2.84-1.38,3,1.4a6.69,6.69,0,0,1,3.85,6.06v13.66H427.84V428.06A6.68,6.68,0,0,1,431.62,422Z" style="fill:#fff;stroke:#263238;stroke-miterlimit:10"></path><path d="M431.62,396.24l2.84-1.37,3,1.39a6.69,6.69,0,0,1,3.85,6.06V416H427.84V402.26A6.7,6.7,0,0,1,431.62,396.24Z" style="fill:#fff;stroke:#263238;stroke-miterlimit:10"></path><path d="M453.93,422l1.93-1.38,2,1.4c1.6,1.1,2.62,3.46,2.62,6.06v13.66h-9.13V428.06C451.37,425.49,452.36,423.15,453.93,422Z" style="fill:#fff;stroke:#263238;stroke-miterlimit:10"></path><path d="M453.93,396.24l1.93-1.37,2,1.39c1.6,1.1,2.62,3.46,2.62,6.06V416h-9.13V402.26C451.37,399.7,452.36,397.36,453.93,396.24Z" style="fill:#fff;stroke:#263238;stroke-miterlimit:10"></path><line x1="340.42" y1="418.8" x2="340.42" y2="389.61" style="fill:none;stroke:#263238;stroke-miterlimit:10"></line><line x1="340.42" y1="439.05" x2="340.42" y2="424.36" style="fill:none;stroke:#263238;stroke-miterlimit:10"></line><line x1="448.03" y1="439.05" x2="448.03" y2="389.61" style="fill:none;stroke:#263238;stroke-miterlimit:10"></line><polyline points="377.05 393.22 377.05 387.91 411.7 387.91 411.7 401.06" style="fill:none;stroke:#263238;stroke-miterlimit:10"></polyline><line x1="377.05" y1="402.83" x2="377.05" y2="398.22" style="fill:none;stroke:#263238;stroke-miterlimit:10"></line><line x1="367.19" y1="377.03" x2="421.57" y2="377.03" style="fill:none;stroke:#263238;stroke-miterlimit:10"></line><path d="M401.23,395l-6.72-3.25L387.46,395a15.86,15.86,0,0,0-9.14,14.37v32.4h31.87V409.25A15.9,15.9,0,0,0,401.23,395Z" style="fill:#fff;stroke:#263238;stroke-miterlimit:10"></path><rect x="258.55" y="441.47" width="271.06" height="21.1" style="fill:#fff;stroke:#263238;stroke-miterlimit:10"></rect></g><g id="Floor"><line x1="48" y1="462.57" x2="646.44" y2="462.57" style="fill:none;stroke:#263238;stroke-miterlimit:10"></line></g></svg>