<svg xmlns="http://www.w3.org/2000/svg" viewBox="0 0 500 500"><g id="background-simple"><path d="M420.69,131.2c-24.84-36.8-61.77-68.93-104.94-82.94A262.48,262.48,0,0,0,270,38C152,22,85,93,67,140c-10.3,26.89-.51,56.91,7.25,83.09C81.12,246.28,97.89,281.55,89,306c-12,33-29,79,22,102s93.16,38.26,175,9,128.76-58.68,152.94-101.94C471.54,256.74,457.77,186.13,420.69,131.2Z" style="fill:#92E3A9"></path><path d="M420.69,131.2c-24.84-36.8-61.77-68.93-104.94-82.94A262.48,262.48,0,0,0,270,38C152,22,85,93,67,140c-10.3,26.89-.51,56.91,7.25,83.09C81.12,246.28,97.89,281.55,89,306c-12,33-29,79,22,102s93.16,38.26,175,9,128.76-58.68,152.94-101.94C471.54,256.74,457.77,186.13,420.69,131.2Z" style="fill:#fff;opacity:0.7000000000000001"></path></g><g id="Picture"><polyline points="329 82.88 329 47 381.18 47" style="fill:none;stroke:#263238;stroke-miterlimit:10"></polyline><polyline points="385.02 47 407 47 407 136 329 136 329 88.32" style="fill:none;stroke:#263238;stroke-miterlimit:10"></polyline><polyline points="378.62 124 339.52 124 339.52 59 396.48 59 396.48 124 383.11 124" style="fill:none;stroke:#263238;stroke-miterlimit:10"></polyline><rect x="357.04" y="79" width="21.91" height="25" style="fill:none;stroke:#263238;stroke-miterlimit:10"></rect></g><g id="Furniture"><rect x="81.1" y="284.41" width="2.87" height="7.73" style="fill:none;stroke:#263238;stroke-miterlimit:10"></rect><rect x="256.09" y="284.41" width="2.87" height="7.73" style="fill:none;stroke:#263238;stroke-miterlimit:10"></rect><rect x="75.59" y="173.61" width="191.27" height="110.62" style="fill:none;stroke:#263238;stroke-miterlimit:10"></rect><rect x="83.56" y="178.22" width="175.33" height="101.4" style="fill:none;stroke:#263238;stroke-miterlimit:10"></rect><rect x="46.69" y="299.15" width="242.92" height="147.36" style="fill:none;stroke:#263238;stroke-miterlimit:10"></rect><rect x="38.72" y="292.22" width="258.87" height="6.91" style="fill:none;stroke:#263238;stroke-miterlimit:10"></rect><rect x="52.85" y="304.58" width="113.69" height="39.94" style="fill:none;stroke:#263238;stroke-miterlimit:10"></rect><rect x="170.38" y="304.58" width="113.69" height="39.94" style="fill:none;stroke:#263238;stroke-miterlimit:10"></rect><rect x="98.17" y="319.17" width="20.74" height="4.61" style="fill:none;stroke:#263238;stroke-miterlimit:10"></rect><rect x="216.77" y="319.17" width="20.74" height="4.61" style="fill:none;stroke:#263238;stroke-miterlimit:10"></rect><rect x="52.85" y="352.97" width="113.69" height="39.94" style="fill:none;stroke:#263238;stroke-miterlimit:10"></rect><rect x="170.38" y="352.97" width="113.69" height="39.94" style="fill:none;stroke:#263238;stroke-miterlimit:10"></rect><rect x="98.17" y="367.57" width="20.74" height="4.61" style="fill:none;stroke:#263238;stroke-miterlimit:10"></rect><rect x="216.77" y="367.57" width="20.74" height="4.61" style="fill:none;stroke:#263238;stroke-miterlimit:10"></rect><rect x="52.85" y="401.37" width="113.69" height="39.94" style="fill:none;stroke:#263238;stroke-miterlimit:10"></rect><rect x="170.38" y="401.37" width="113.69" height="39.94" style="fill:none;stroke:#263238;stroke-miterlimit:10"></rect><rect x="98.17" y="415.96" width="20.74" height="4.61" style="fill:none;stroke:#263238;stroke-miterlimit:10"></rect><rect x="216.77" y="415.96" width="20.74" height="4.61" style="fill:none;stroke:#263238;stroke-miterlimit:10"></rect></g><g id="Plant"><path d="M439.11,269.54s-13.24-7.35-14.22,9.31-3.43,125-3.43,125" style="fill:none;stroke:#263238;stroke-linecap:round;stroke-linejoin:round;stroke-width:2px"></path><path d="M418,280.32s10.79,24,5.89,122.07" style="fill:none;stroke:#263238;stroke-linecap:round;stroke-linejoin:round;stroke-width:2px"></path><path d="M428.62,272.89s-5.06,3.25-7.94-.46,1.95-10.52-2.31-13.43-11.6,1.53-11.6,1.53,5.66,1.67,5.47,4.75-2.9,4.26-3.27,2.91-3.06-8.15-7.65-5.32a11.37,11.37,0,0,0-5.3,7.21s10.69-1.14,11.34,2.89-4.38-.7-8.8-1-8.43.38-8.15,3.06a34.38,34.38,0,0,1-.42,7.06,13.18,13.18,0,0,1,8.6-3c4.85.29,4.67,3.38.26,3.12s-8.21,3.94-8.21,3.94,4,6.88,9.14,10.29,7,2.18,7.55-.44-.77-9.35,2.32-9.17-5.12,11.66-1.18,12.33,7.12-.46,8.16-3.06l1-2.6s-1.38-6.72-.78-9.34,1.32.08,2,3.22,1.14,10.69,2.49,10.33,5.66-5.86,6.68-8-5.69-8.75-5.61-10.07,5.24,1.19,6,2.57a34.53,34.53,0,0,1,1.58,3.19s3.22-2,3.15-8.23S428.62,272.89,428.62,272.89Z" style="fill:#92E3A9"></path><path d="M428.62,272.89s-5.06,3.25-7.94-.46,1.95-10.52-2.31-13.43-11.6,1.53-11.6,1.53,5.66,1.67,5.47,4.75-2.9,4.26-3.27,2.91-3.06-8.15-7.65-5.32a11.37,11.37,0,0,0-5.3,7.21s10.69-1.14,11.34,2.89-4.38-.7-8.8-1-8.43.38-8.15,3.06a34.38,34.38,0,0,1-.42,7.06,13.18,13.18,0,0,1,8.6-3c4.85.29,4.67,3.38.26,3.12s-8.21,3.94-8.21,3.94,4,6.88,9.14,10.29,7,2.18,7.55-.44-.77-9.35,2.32-9.17-5.12,11.66-1.18,12.33,7.12-.46,8.16-3.06l1-2.6s-1.38-6.72-.78-9.34,1.32.08,2,3.22,1.14,10.69,2.49,10.33,5.66-5.86,6.68-8-5.69-8.75-5.61-10.07,5.24,1.19,6,2.57a34.53,34.53,0,0,1,1.58,3.19s3.22-2,3.15-8.23S428.62,272.89,428.62,272.89Z" style="fill:#263238;opacity:0.30000000000000004"></path><path d="M403,287.44c3.3-4.08,8.16-9.6,12.24-12.24" style="fill:none;stroke:#263238;stroke-linecap:round;stroke-linejoin:round"></path><path d="M399.13,292.41s.85-1.18,2.22-2.94" style="fill:none;stroke:#263238;stroke-linecap:round;stroke-linejoin:round"></path><path d="M417.36,276.22s4.9,6.93,5.81,14.07" style="fill:none;stroke:#263238;stroke-linecap:round;stroke-linejoin:round"></path><path d="M411.8,280.32s1.38-.81.86,8" style="fill:none;stroke:#263238;stroke-linecap:round;stroke-linejoin:round"></path><path d="M415.38,272.11s2.81-2.49,1.33-7.45" style="fill:none;stroke:#263238;stroke-linecap:round;stroke-linejoin:round"></path><line x1="411.59" y1="276.32" x2="409.6" y2="272.66" style="fill:none;stroke:#263238;stroke-linecap:round;stroke-linejoin:round"></line><path d="M407.39,280.06s-6.36-4.81-10.33-5" style="fill:none;stroke:#263238;stroke-linecap:round;stroke-linejoin:round"></path><path d="M446.67,259.81s-.2,7.28-5.88,7.64-9.2-9.12-15-6.84-6.37,12.66-6.37,12.66,5.52-4.53,8.49-2.24,2.28,5.81.68,5.25-10.25-2.49-10.55,4a13.78,13.78,0,0,0,3.61,10.22s6.15-11.48,10.62-9.39-3.69,3.92-7,8.16-5.36,8.71-2.49,10.25a42,42,0,0,1,6.79,5.23s-.78-6,2.81-10.68,6.57-2.37,3.3,1.87-1.64,10.9-1.64,10.9,9.63.66,16.52-2.14,6.92-5.48,4.71-7.86-9.89-5.59-7.6-8.56,8.18,13.06,11.55,9.57,4.38-7.44,2.49-10.25l-1.89-2.81s-7.67-3.2-9.89-5.59,1-1.27,4.6.17S466,285.56,466.6,284s-2-9.67-3.49-12.15-12.63-.27-13.9-1.25,4.77-4.44,6.69-4.31a42.78,42.78,0,0,1,4.28.6s.17-4.61-6.1-8.76S446.67,259.81,446.67,259.81Z" style="fill:#92E3A9"></path><path d="M446.67,259.81s-.2,7.28-5.88,7.64-9.2-9.12-15-6.84-6.37,12.66-6.37,12.66,5.52-4.53,8.49-2.24,2.28,5.81.68,5.25-10.25-2.49-10.55,4a13.78,13.78,0,0,0,3.61,10.22s6.15-11.48,10.62-9.39-3.69,3.92-7,8.16-5.36,8.71-2.49,10.25a42,42,0,0,1,6.79,5.23s-.78-6,2.81-10.68,6.57-2.37,3.3,1.87-1.64,10.9-1.64,10.9,9.63.66,16.52-2.14,6.92-5.48,4.71-7.86-9.89-5.59-7.6-8.56,8.18,13.06,11.55,9.57,4.38-7.44,2.49-10.25l-1.89-2.81s-7.67-3.2-9.89-5.59,1-1.27,4.6.17S466,285.56,466.6,284s-2-9.67-3.49-12.15-12.63-.27-13.9-1.25,4.77-4.44,6.69-4.31a42.78,42.78,0,0,1,4.28.6s.17-4.61-6.1-8.76S446.67,259.81,446.67,259.81Z" style="fill:#263238;opacity:0.2"></path><path d="M443.74,295.43c-1.83-6.09-4.05-14.73-3.91-20.6" style="fill:none;stroke:#263238;stroke-linecap:round;stroke-linejoin:round"></path><path d="M446.11,302.65s-.61-1.65-1.44-4.23" style="fill:none;stroke:#263238;stroke-linecap:round;stroke-linejoin:round"></path><path d="M442.32,273.36s10.28-.19,18.05,3.77" style="fill:none;stroke:#263238;stroke-linecap:round;stroke-linejoin:round"></path><path d="M442.63,281.72s.14-1.93,8.62,4.61" style="fill:none;stroke:#263238;stroke-linecap:round;stroke-linejoin:round"></path><path d="M436.86,272.54s-.58-4.51-6.55-6.41" style="fill:none;stroke:#263238;stroke-linecap:round;stroke-linejoin:round"></path><line x1="438.49" y1="279.2" x2="433.46" y2="278.7" style="fill:none;stroke:#263238;stroke-linecap:round;stroke-linejoin:round"></line><path d="M439.36,286s-9.14,3.09-12.08,6.91" style="fill:none;stroke:#263238;stroke-linecap:round;stroke-linejoin:round"></path><path d="M385.67,308.27s28.93,19.12,28.44,93.14" style="fill:none;stroke:#263238;stroke-linecap:round;stroke-linejoin:round;stroke-width:2px"></path><path d="M421.34,303.22s-.93,8.38-7.51,8.25-9.76-11.39-16.68-9.31-8.56,14-8.56,14,6.8-4.71,10-1.79,2.09,6.93.29,6.13-11.59-3.84-12.55,3.67a16,16,0,0,0,3.2,12.13s8.18-12.67,13.14-9.83-4.63,4.17-8.8,8.75-7,9.55-3.84,11.59a49.09,49.09,0,0,1,7.34,6.68s-.33-7,4.26-12.05,7.79-2.12,3.62,2.46-2.92,12.43-2.92,12.43,11.05,1.67,19.26-.91,8.51-5.67,6.18-8.63-10.88-7.39-8-10.6,8.21,15.85,12.42,12.14,5.76-8.17,3.84-11.59l-1.91-3.42s-8.55-4.42-10.88-7.39,1.25-1.37,5.29.63,12.68,8.18,13.47,6.39-1.41-11.34-2.87-14.35-14.56-1.51-15.93-2.76,5.92-4.67,8.13-4.33a46.39,46.39,0,0,1,4.88,1.09s.63-5.3-6.21-10.68S421.34,303.22,421.34,303.22Z" style="fill:#92E3A9"></path><path d="M421.34,303.22s-.93,8.38-7.51,8.25-9.76-11.39-16.68-9.31-8.56,14-8.56,14,6.8-4.71,10-1.79,2.09,6.93.29,6.13-11.59-3.84-12.55,3.67a16,16,0,0,0,3.2,12.13s8.18-12.67,13.14-9.83-4.63,4.17-8.8,8.75-7,9.55-3.84,11.59a49.09,49.09,0,0,1,7.34,6.68s-.33-7,4.26-12.05,7.79-2.12,3.62,2.46-2.92,12.43-2.92,12.43,11.05,1.67,19.26-.91,8.51-5.67,6.18-8.63-10.88-7.39-8-10.6,8.21,15.85,12.42,12.14,5.76-8.17,3.84-11.59l-1.91-3.42s-8.55-4.42-10.88-7.39,1.25-1.37,5.29.63,12.68,8.18,13.47,6.39-1.41-11.34-2.87-14.35-14.56-1.51-15.93-2.76,5.92-4.67,8.13-4.33a46.39,46.39,0,0,1,4.88,1.09s.63-5.3-6.21-10.68S421.34,303.22,421.34,303.22Z" style="fill:#263238;opacity:0.30000000000000004"></path><path d="M414.59,344c-1.54-7.2-3.28-17.38-2.56-24.15" style="fill:none;stroke:#263238;stroke-linecap:round;stroke-linejoin:round"></path><path d="M416.64,352.59s-.54-2-1.25-5" style="fill:none;stroke:#263238;stroke-linecap:round;stroke-linejoin:round"></path><path d="M415,318.43s11.89.76,20.48,6.06" style="fill:none;stroke:#263238;stroke-linecap:round;stroke-linejoin:round"></path><path d="M414.61,328.11s.34-2.21,9.51,6.13" style="fill:none;stroke:#263238;stroke-linecap:round;stroke-linejoin:round"></path><path d="M408.82,317s-.25-5.25-7-8" style="fill:none;stroke:#263238;stroke-linecap:round;stroke-linejoin:round"></path><line x1="410.07" y1="324.81" x2="404.31" y2="323.77" style="fill:none;stroke:#263238;stroke-linecap:round;stroke-linejoin:round"></line><path d="M410.44,332.69s-10.85,2.71-14.6,6.84" style="fill:none;stroke:#263238;stroke-linecap:round;stroke-linejoin:round"></path><path d="M397,366.6s18.63,14.22,20.59,35.3l-3.92-70.59" style="fill:none;stroke:#263238;stroke-linecap:round;stroke-linejoin:round;stroke-width:2px"></path><path d="M442.05,356.31c-24.51-4.41-24.51,45.59-24.51,45.59" style="fill:none;stroke:#263238;stroke-linecap:round;stroke-linejoin:round;stroke-width:2px"></path><path d="M420.48,401.41S406.26,298,447.44,298" style="fill:none;stroke:#263238;stroke-linecap:round;stroke-linejoin:round;stroke-width:2px"></path><path d="M432.71,353.33c-3.35-3.76-10.46-3.76-14.65,5.86s-.42,8-.42,8,8-2.52,13-4.19,11.72-5.86,12.13-3.35-3.34,5-7.95,5.86-16.74,4.19-15.48,6.7,4.18,10,4.18,10a106.94,106.94,0,0,1,11.3-8.37c5.44-3.35,8.79-2.09,5.86,1.68s-11.3,8-9.62,13,11.71,11.3,11.71,11.3S444,389.33,446.94,386s2.93.42,2.09,6.28a68.76,68.76,0,0,0-.83,7.53L459.91,404s4.19-6.28,6.28-8.38l2.09-2.09s-9.2-7.95-9.62-13,6.28,0,8.37.84,5.44,6.69,5.44,6.69,2.09-9.62,2.51-13l.42-3.35s-8.79-3.35-12.14-3.35-5,2.51-5-.84,3.35-5.44,7.11-5a65.56,65.56,0,0,1,10,2.51s2.51-2.09,1.67-8.37-2.93-6.27-7.95-4.6-8.37,5.44-12.14,5.44-1.67-4.6.84-5.86,8.79-3.77,10.05-4.18-6.7-6.28-10.89-7.12-9.6,2.11-9.2,6.28C448.61,355.43,436.06,357.1,432.71,353.33Z" style="fill:#92E3A9"></path><path d="M459.65,396.43c.13,1.26.22,2.52.26,3.78" style="fill:none;stroke:#263238;stroke-linecap:round;stroke-linejoin:round"></path><path d="M451.24,366.38a110.83,110.83,0,0,1,7.88,25.94" style="fill:none;stroke:#263238;stroke-linecap:round;stroke-linejoin:round"></path><path d="M449.74,363c-2.08-4.46-3.64-7.17-3.64-7.17a12.39,12.39,0,0,0,5.44-5,14.06,14.06,0,0,1,4.19-5" style="fill:none;stroke:#263238;stroke-linecap:round;stroke-linejoin:round"></path><path d="M431.45,370.08s15.07-6.28,15.07-5" style="fill:none;stroke:#263238;stroke-linecap:round;stroke-linejoin:round"></path><path d="M454.89,362.12s6.7-3.34,12.56-3.34" style="fill:none;stroke:#263238;stroke-linecap:round;stroke-linejoin:round"></path><path d="M452.38,372.17a57.74,57.74,0,0,0-7.95,7.95,35.86,35.86,0,0,0-5.86,9.63" style="fill:none;stroke:#263238;stroke-linecap:round;stroke-linejoin:round"></path><path d="M457,373.84s8.79-2.51,13.4,1.68" style="fill:none;stroke:#263238;stroke-linecap:round;stroke-linejoin:round"></path><path d="M472.9,317.29c-4.55-2.69-9.59-2.75-12.06-5.6s2.38-4.28,5-3.21,8.61,4.17,9.75,4.85.35-9.18-1.76-12.89-7.89-5.86-10.78-2.83c-6.09,6.39-15.58-2-14.93-7s-4-10.37-14-7.22-6.28,4.9-6.28,4.9,7.11,4.36,11.67,7.05,12.1,5,10.48,7-6,.76-9.64-2.16-14.13-9.9-15.2-7.31-4.85,9.75-4.85,9.75a106.52,106.52,0,0,1,13.73,3c6.1,1.92,7.34,5.27,2.58,5.53s-13.41-3.32-16.11,1.23-.85,16.26-.85,16.26,8.73-5.91,13.17-5.89,1.61,2.48-3.36,5.69a66.71,66.71,0,0,0-6.24,4.31l4.52,11.59s7.48-.95,10.44-.75l2.95.21s0-12.16,3.48-15.77,4.12,4.74,4.86,6.87-1.49,8.5-1.49,8.5,8.64-4.73,11.44-6.61l2.81-1.88s-3.24-8.83-5.43-11.36-5.19-2.15-2.66-4.34,6.3-1,8.45,2.08a64.68,64.68,0,0,1,4.69,9.23s3.23.52,7.42-4.23S477.46,320,472.9,317.29Zm-39.6,13.4c-3.35-1.68,4.6-5,4.6-5C440.83,325.25,436.65,332.36,433.3,330.69Zm5.64-15.63c-1.43-.71,2.85-2.14,2.85-2.14C448,314.11,440.36,315.78,438.94,315.06Z" style="fill:#92E3A9"></path><path d="M433.21,339.21c-.87.92-1.77,1.82-2.69,2.68" style="fill:none;stroke:#263238;stroke-linecap:round;stroke-linejoin:round"></path><path d="M450.38,313.17A110.87,110.87,0,0,1,436,336.12" style="fill:none;stroke:#263238;stroke-linecap:round;stroke-linejoin:round"></path><path d="M451.93,309.83c2-4.49,3-7.45,3-7.45a12.37,12.37,0,0,0,7.36.82,13.89,13.89,0,0,1,6.54-.14" style="fill:none;stroke:#263238;stroke-linecap:round;stroke-linejoin:round"></path><path d="M448.29,308.73c.95-.82-13.67-8.08-13.67-8.08" style="fill:none;stroke:#263238;stroke-linecap:round;stroke-linejoin:round"></path><path d="M456,313.13s6.92,2.86,10.76,7.29" style="fill:none;stroke:#263238;stroke-linecap:round;stroke-linejoin:round"></path><path d="M446.76,317.82a58.25,58.25,0,0,0-11.22-.79,36.15,36.15,0,0,0-11.11,1.88" style="fill:none;stroke:#263238;stroke-linecap:round;stroke-linejoin:round"></path><path d="M448.51,322.39s7.66,5,7.52,11.21" style="fill:none;stroke:#263238;stroke-linecap:round;stroke-linejoin:round"></path><path d="M407.87,375.28c-3.67-2.17-7.72-2.21-9.71-4.5s1.92-3.45,4-2.58,6.93,3.35,7.85,3.89.28-7.38-1.42-10.36-6.35-4.73-8.67-2.29c-4.9,5.15-12.54-1.6-12-5.62s-3.23-8.35-11.29-5.81-5.05,3.94-5.05,3.94,5.72,3.51,9.39,5.68,9.74,4,8.43,5.6-4.81.62-7.75-1.74-11.38-8-12.24-5.87-3.9,7.84-3.9,7.84a85.45,85.45,0,0,1,11.05,2.45c4.91,1.54,5.91,4.24,2.08,4.44s-10.8-2.67-13,1-.68,13.08-.68,13.08,7-4.76,10.6-4.74,1.29,2-2.71,4.58a53.76,53.76,0,0,0-5,3.47l3.64,9.33a66.69,66.69,0,0,1,8.4-.6l2.37.16s0-9.79,2.81-12.69,3.31,3.81,3.9,5.53-1.19,6.84-1.19,6.84,7-3.81,9.2-5.32l2.26-1.51s-2.6-7.11-4.37-9.15-4.17-1.72-2.14-3.49,5.07-.84,6.81,1.67a52.73,52.73,0,0,1,3.77,7.43s2.6.42,6-3.4S411.54,377.45,407.87,375.28ZM376,386.06c-2.7-1.34,3.7-4,3.7-4C382.06,381.68,378.69,387.41,376,386.06Zm4.53-12.57c-1.14-.57,2.3-1.72,2.3-1.72C387.81,372.72,381.68,374.06,380.53,373.49Z" style="fill:#92E3A9"></path><path d="M375.93,392.92q-1.05,1.13-2.16,2.16" style="fill:none;stroke:#263238;stroke-linecap:round;stroke-linejoin:round"></path><path d="M389.75,372a89.61,89.61,0,0,1-11.6,18.47" style="fill:none;stroke:#263238;stroke-linecap:round;stroke-linejoin:round"></path><path d="M391,369.28c1.62-3.62,2.45-6,2.45-6a9.93,9.93,0,0,0,5.92.66,11.23,11.23,0,0,1,5.26-.11" style="fill:none;stroke:#263238;stroke-linecap:round;stroke-linejoin:round"></path><path d="M377.06,361.89s11.77,5.84,11,6.5" style="fill:none;stroke:#263238;stroke-linecap:round;stroke-linejoin:round"></path><path d="M394.26,371.93s5.57,2.31,8.66,5.87" style="fill:none;stroke:#263238;stroke-linecap:round;stroke-linejoin:round"></path><path d="M386.83,375.71a46.17,46.17,0,0,0-9-.64,29.09,29.09,0,0,0-8.94,1.52" style="fill:none;stroke:#263238;stroke-linecap:round;stroke-linejoin:round"></path><path d="M388.24,379.39s6.17,4,6.05,9" style="fill:none;stroke:#263238;stroke-linecap:round;stroke-linejoin:round"></path><path d="M392.92,306.17s-4.6,3.35-7.53,0,1.25-10-2.93-12.55-10.88,2.09-10.88,2.09S377,297,377,299.9s-2.51,4.18-2.93,2.92-3.35-7.53-7.54-4.6a10.79,10.79,0,0,0-4.6,7.12s10-1.68,10.88,2.09-4.18-.42-8.37-.42-7.95.84-7.53,3.35a32.8,32.8,0,0,1,0,6.69,12.45,12.45,0,0,1,7.95-3.34c4.6,0,4.6,2.93.42,2.93s-7.54,4.18-7.54,4.18S362,327.1,367,330s6.7,1.67,7.12-.84-1.26-8.79,1.67-8.79-4.18,11.3-.42,11.72,6.7-.84,7.54-3.35l.83-2.51s-1.67-6.28-1.25-8.79,1.25,0,2.09,2.93,1.67,10.05,2.93,9.63,5-5.86,5.86-7.95-5.86-8-5.86-9.21,5,.84,5.86,2.09a31.8,31.8,0,0,1,1.67,2.93s2.93-2.09,2.51-7.95S392.92,306.17,392.92,306.17Z" style="fill:#92E3A9"></path><path d="M369.47,321.35c2.9-4,7.19-9.53,10.89-12.25" style="fill:none;stroke:#263238;stroke-linecap:round;stroke-linejoin:round"></path><path d="M366.13,326.26s.74-1.16,1.94-2.91" style="fill:none;stroke:#263238;stroke-linecap:round;stroke-linejoin:round"></path><path d="M382.46,309.94s5,6.28,6.27,13" style="fill:none;stroke:#263238;stroke-linecap:round;stroke-linejoin:round"></path><path d="M377.43,314.12s1.26-.83,1.26,7.54" style="fill:none;stroke:#263238;stroke-linecap:round;stroke-linejoin:round"></path><path d="M380.36,306.17s2.52-2.51.84-7.11" style="fill:none;stroke:#263238;stroke-linecap:round;stroke-linejoin:round"></path><line x1="377.02" y1="310.36" x2="374.92" y2="307.01" style="fill:none;stroke:#263238;stroke-linecap:round;stroke-linejoin:round"></line><path d="M373.25,314.12s-6.28-4.18-10-4.18" style="fill:none;stroke:#263238;stroke-linecap:round;stroke-linejoin:round"></path><rect x="402.83" y="399.94" width="32.35" height="46.57" style="fill:#263238;stroke:#263238;stroke-linecap:round;stroke-linejoin:round;stroke-width:2px"></rect></g><g id="Character"><polygon points="314 321.38 322 442 319 442 310.67 319.33 314 321.38" style="fill:#263238;stroke:#263238;stroke-miterlimit:10"></polygon><path d="M247,222a242.74,242.74,0,0,1,24.67,23.33c10.66,12,19.66,30.67,17.33,33s-42.67,55-44.33,59.67S249,350,252,355.33,262.67,365,261.33,367s-5.66,3.67-11.33,2-16.33-9-19.67-11.33-9.66-5.34-8.33-10,9.33-13.34,9.33-13.34,4.67-20.66,5.34-26.66,6-21.67,8.66-24.67a37.24,37.24,0,0,0,4.67-7s-21.33-4.33-31-13.33S200,242,200,225.33s18.33-17.66,29-16.33S247,222,247,222Z" style="fill:#263238;stroke:#263238;stroke-miterlimit:10"></path><path d="M249.66,330.27a45,45,0,0,1-16.16-5.83c-1.15,5.4-2.17,9.89-2.17,9.89s-8,8.67-9.33,13.34,5,7.66,8.33,10,14,9.66,19.67,11.33,10,0,11.33-2S255,360.67,252,355.33s-9-12.66-7.33-17.33A60.07,60.07,0,0,1,249.66,330.27Z" style="fill:#fff;stroke:#263238;stroke-miterlimit:10"></path><path d="M252,355.33c-2.49-4.43-7.05-10.24-7.56-14.76-1.21.2-2.59.55-2.77,1.1a10.87,10.87,0,0,1-1.34,2.33l-10-8.5C228.08,338,223,344,222,347.67c-1.33,4.66,5,7.66,8.33,10s14,9.66,19.67,11.33,10,0,11.33-2S255,360.67,252,355.33Z" style="fill:#fff;stroke:#263238;stroke-miterlimit:10"></path><path d="M241,81s-5.71,5.43-16.55,8S198.13,96.11,197,104.1s7.71,12.28,2.57,15.13-17.13,10.28-13.42,17.7,14.85,16.85,30,2.86,10.27-19.41,16.84-21.7,6-11.7,4.85-19.7S243,85.55,243,85.55,245.24,81.84,241,81Z" style="fill:#263238;stroke:#263238;stroke-miterlimit:10"></path><path d="M338.58,205.45s8.85-4.57,11.42-6,8,.29,8,.29l2.28.85-9.42,12.56-16.75,1.39s-12.1.31-25.23-.55-33.9-11.9-36.75-15.9-7.48-17.19-7.48-17.19.85-40.26.85-44.82v-12s10,6.85,14,17.41,7.69,38.95,8.55,41.23,8.87,8.44,19.14,15S338.58,205.45,338.58,205.45Z" style="fill:#fff;stroke:#263238;stroke-miterlimit:10"></path><path d="M154.87,445,151.13,438c36.7-19.43,50.32-54.24,52.66-61L166.2,262.75l7.6-2.5,38.39,116.69-.36,1.2C211.3,379.92,198.35,422,154.87,445Z" style="fill:#ccc;stroke:#263238;stroke-miterlimit:10"></path><path d="M152.51,445,148.76,438c36.71-19.43,50.32-54.24,52.66-61L163.84,262.75l7.6-2.5,38.39,116.69-.36,1.2C208.94,379.92,196,422,152.51,445Z" style="fill:#ccc;stroke:#263238;stroke-miterlimit:10"></path><path d="M174.5,251s-20.5-2-24,1.5S148,264,153,267s40,0,40,0,3,1.5,3-3-7-5-10.5-8.5A15.83,15.83,0,0,0,174.5,251Z" style="fill:#92E3A9;stroke:#263238;stroke-miterlimit:10"></path><path d="M301.9,232.58c-4.19,0-7.56-.34-8.93-1.25-1.15-.77-4.65-3.11-5.45-7.33-.53-2.84.27-5.82,2.4-8.86s7.83-7.27,17-13.92c6.25-4.55,15.69-11.43,16.9-13.66,1.48-3.51,3.75-18.7,4.83-27.42a4,4,0,0,1,7.94,1c-.3,2.42-3,23.84-5.42,29.61-1.5,3.56-7.11,7.9-19.54,17-6.09,4.43-13.66,9.94-15.13,12a4.36,4.36,0,0,0-1.08,2.79c.1.55.66,1.19,1.67,1.91,4.18.82,26.34-1,31-2.28,4-1.11,20.73-12.55,24.53-21.17,2.3-5.2,4.6-18.82,6.86-40.48.13-1.3.23-2.15.27-2.44a4,4,0,0,1,7.92,1.13c0,.26-.12,1-.23,2.14-1.52,14.55-3.94,34.82-7.5,42.88-4.86,11-23.8,24-29.71,25.64C328.17,230.43,312.44,232.58,301.9,232.58Zm-4.49-7.91h0Zm-.6-.3" style="fill:#263238;stroke:#263238;stroke-miterlimit:10"></path><path d="M359.14,200s-8.57,12.85-7.42,14,3.71.57,4.85,0,7.42-8,7.14-11.42-3.43-2-3.43-2" style="fill:#fff;stroke:#263238;stroke-miterlimit:10"></path><path d="M346.86,204.88l6.28-2a16,16,0,0,1,4.29,2.28c1.14,1.14,4.56,2.86,2.28,4s-6-1.43-6-1.43-4.28,2.85-6.56,3.14a19.55,19.55,0,0,1-5.71-.57" style="fill:#fff;stroke:#263238;stroke-miterlimit:10"></path><circle cx="313.67" cy="381" r="51" style="fill:#fff;stroke:#263238;stroke-miterlimit:10"></circle><path d="M313.67,343.33A37.67,37.67,0,1,0,351.33,381,37.67,37.67,0,0,0,313.67,343.33Zm0,72A34.33,34.33,0,1,1,348,381,34.33,34.33,0,0,1,313.67,415.33Z" style="fill:#92E3A9;stroke:#263238;stroke-miterlimit:10"></path><rect x="272.24" y="304.09" width="3.32" height="10.92" transform="translate(-129.26 218.41) rotate(-35.76)" style="fill:#fff;stroke:#263238;stroke-miterlimit:10"></rect><rect x="265.06" y="300.86" width="10.63" height="7.53" transform="translate(-127.04 215.41) rotate(-35.76)" style="fill:#92E3A9;stroke:#263238;stroke-miterlimit:10"></rect><path d="M241.71,358c7.92-7.8,19.13-18.09,30.17-25.67,16.54-11.35,41.75-28.05,42-28.22L307.81,295c-.25.17-25.54,16.92-42.15,28.32-14.53,10-28.94,24-36.86,32.1Z" style="fill:#ccc;stroke:#263238;stroke-miterlimit:10"></path><path d="M238.56,356.85c7.92-7.8,19.13-18.09,30.17-25.67,16.54-11.35,41.75-28.05,42-28.22l-6.07-9.17c-.25.17-25.54,16.92-42.15,28.32-14.53,10-28.94,24-36.86,32.1Z" style="fill:#ccc;stroke:#263238;stroke-miterlimit:10"></path><path d="M311,394l-1.45-22.64-94-19.21v0a28,28,0,1,0-1.55,55v0Zm-77.27-25.41,35.55,7.56v9.39l-35.62,5a26.64,26.64,0,0,0,.07-22Z" style="fill:#92E3A9;stroke:#263238;stroke-miterlimit:10"></path><path d="M310.26,392.16l-1.44-22.65-94-19.2v0a27.7,27.7,0,0,0-6.08-.67,28,28,0,1,0,4.52,55.63v0ZM233,366.75l35.55,7.56v9.39l-35.62,5a26.51,26.51,0,0,0,.07-22Z" style="fill:#92E3A9;stroke:#263238;stroke-miterlimit:10"></path><circle cx="209.5" cy="379.5" r="10" style="fill:#263238;stroke:#263238;stroke-miterlimit:10"></circle><path d="M209.86,381.47l-.72-3.94L172,384.42l-2.39-10.13-13.18,3.08A4.64,4.64,0,0,0,153,383l4,16.74a4.64,4.64,0,0,0,5.57,3.46l13.2-3.08-2.78-11.77Z" style="fill:#263238;stroke:#263238;stroke-miterlimit:10"></path><path d="M247.8,228.57s2.86-8.57,4-13.42,7.14-25.69,7.14-25.69,2.28-.57,5.42-1.71,10.85-8,11.14-17.7-5.43-24-5.43-32.26-2-12.56-7.42-15.13-25.12-10.28-25.12-10.28S221,114.38,213,123s-9.71,32.54-9.14,35.39S199,175.47,196.71,178s-19.42,11.42-26.27,22.84-9.7,21.69-7.42,34.54,12.85,26.55,13.7,30.26S187.58,296.15,193,301c0,0-11.15,13.86-14,23s-11.7,34.46-14.27,37.88S154.74,373,153.31,375s6.57,12.85,8.28,17.42,13.13,10.28,15.7,10.28,4.86-1.72,4.29-4.57-4-14.85-5.43-20.27,1.71-8.56,2-9.42,16.47-21.36,22.18-26.78,15.15-19.15,20-26,4.64-15.16,5.21-20.3-1.43-43.11-1.71-44-.86-3.14-.86-3.14l9.13-4.86" style="fill:#263238;stroke:#263238;stroke-miterlimit:10"></path><path d="M183.76,361.07c-7.76-2.1-12.37-5.29-15-7.95-1.7,4.33-3.17,7.67-4,8.76-2.57,3.43-10,11.14-11.42,13.13s6.57,12.85,8.28,17.42,13.13,10.28,15.7,10.28,4.86-1.72,4.29-4.57-4-14.85-5.43-20.27,1.71-8.56,2-9.42C178.26,368.13,180.59,365.06,183.76,361.07Z" style="fill:#fff;stroke:#263238;stroke-miterlimit:10"></path><path d="M181.58,398.14c-.58-2.86-4-14.85-5.43-20.27a9.89,9.89,0,0,1,.4-6.53c-.19-1.33-.73-3.25-2.22-3.67-2.33-.67-8,4-8,4l-4.68-6.1c-3.19,3.63-7.31,8-8.34,9.44-1.42,2,6.57,12.85,8.28,17.42s13.13,10.28,15.7,10.28S182.15,401,181.58,398.14Z" style="fill:#fff;stroke:#263238;stroke-miterlimit:10"></path><path d="M270.07,137.79c0-8.28-2-12.56-7.42-15.13s-25.12-10.28-25.12-10.28S221,114.38,213,123s-9.71,32.54-9.14,35.39S199,175.47,196.71,178c-1.59,1.78-10.31,6.58-17.79,13.17,6.56,8.25,23.48,27.09,43.41,30.46a65.75,65.75,0,0,0,28.2-1.8c.49-1.68.95-3.35,1.27-4.72,1.14-4.85,7.14-25.69,7.14-25.69s2.28-.57,5.42-1.71,10.85-8,11.14-17.7S270.07,146.07,270.07,137.79Z" style="fill:#92E3A9;stroke:#263238;stroke-miterlimit:10"></path><path d="M208.82,193.41a22.84,22.84,0,0,0,3.75,1.74" style="fill:#92E3A9;stroke:#263238;stroke-miterlimit:10"></path><path d="M199.72,181.16a19.11,19.11,0,0,0,6.48,10.4" style="fill:#92E3A9;stroke:#263238;stroke-miterlimit:10"></path><path d="M205.15,162.89s1.14,3.42,5.71,6.28" style="fill:#92E3A9;stroke:#263238;stroke-miterlimit:10"></path><path d="M320.13,214.25a5,5,0,0,0-6.88,1.62L302,234.13l2,87.49a4.89,4.89,0,0,0,.69,2.37L311,442h5l-5.72-115.68a5,5,0,0,0,3.72-4.94l-2-84.51,9.72-15.74A5,5,0,0,0,320.13,214.25Z" style="fill:#ccc;stroke:#263238;stroke-miterlimit:10"></path><path d="M193.91,437.73H137.65a4.92,4.92,0,0,0-4.92,4.92v3.86h65.44V442A4.26,4.26,0,0,0,193.91,437.73Z" style="fill:#ccc;stroke:#263238;stroke-miterlimit:10"></path><path d="M329.42,441.59H176.56l3.34,4.92H333.67v-.67A4.25,4.25,0,0,0,329.42,441.59Z" style="fill:#ccc;stroke:#263238;stroke-miterlimit:10"></path><path d="M285.81,437.73h52.27a4.26,4.26,0,0,1,4.26,4.26v4.52a0,0,0,0,1,0,0H280.89a0,0,0,0,1,0,0v-3.86A4.92,4.92,0,0,1,285.81,437.73Z" style="fill:#ccc;stroke:#263238;stroke-miterlimit:10"></path><path d="M284.08,437.73h13.3a4.26,4.26,0,0,1,4.26,4.26v4.52a0,0,0,0,1,0,0H279a0,0,0,0,1,0,0v-3.72A5.05,5.05,0,0,1,284.08,437.73Z" style="fill:#263238;stroke:#263238;stroke-miterlimit:10"></path><path d="M137.52,437.73h13.3a4.26,4.26,0,0,1,4.26,4.26v4.52a0,0,0,0,1,0,0H132.46a0,0,0,0,1,0,0v-3.72A5.05,5.05,0,0,1,137.52,437.73Z" style="fill:#263238;stroke:#263238;stroke-miterlimit:10"></path><path d="M245.81,173.19a156.66,156.66,0,0,0-5.71-30c-4.57-14.84-7.14-25.4-15.13-24.83s-19.41,11.42-17.42,31.68,12.56,36.26,18.27,42.54,24.84,15.13,34.55,18.56,22,5.7,24.26,5.7a10.91,10.91,0,0,0,3.71-.57l11.13-4.85s3.14,2.28,2.86,3.43,2.85,2.28,3.43,1.14,7.7-6.57,7.7-9.71-5.42-8.28-7.7-8.85-18.27,10-18.27,10-23.13-12.56-29.41-18.84A114.85,114.85,0,0,1,245.81,173.19Z" style="fill:#fff;stroke:#263238;stroke-miterlimit:10"></path><path d="M296.33,208s5.14-2.86,7.43-.29,3.14,7.42,3.14,7.42" style="fill:none;stroke:#263238;stroke-miterlimit:10"></path><path d="M300.62,204s3.42-1.14,5.42,0,3.43,7.71,3.43,7.71" style="fill:none;stroke:#263238;stroke-miterlimit:10"></path><path d="M304,200.59s5.14,1.43,6.28,3.71a17.26,17.26,0,0,1,1.43,5.14" style="fill:none;stroke:#263238;stroke-miterlimit:10"></path><path d="M286.35,65.06s3.71,11.41,3.71,14-1.71,5.14-1.71,6,2.57,6,2.57,6,3.14,4.28.57,5.71-3.43,2-3.43,2-2.57,12.56-5.42,13.7-10,1.43-10,1.43-5.15,5.08-6.86,8.22,4.57,14.27-1.14,22.55-12.28,7.42-18.27-2.28-6-20.84-8-24-3.14-4.57-3.14-4.57S243,111,244.39,105s2.56-13.13,0-21.41,3.71-11.42,17.12-16.56A43.36,43.36,0,0,1,286.35,65.06Z" style="fill:#fff;stroke:#263238;stroke-miterlimit:10"></path><path d="M284.35,81.33S281.21,77,277.5,83" style="fill:none;stroke:#263238;stroke-miterlimit:10"></path><path d="M282.92,87c0,.94-.44,1.71-1,1.71s-1-.77-1-1.71.44-1.72,1-1.72S282.92,86.09,282.92,87Z" style="fill:#263238"></path><path d="M275.79,98.17s3.14,3.14,6.56,3.14" style="fill:none;stroke:#263238;stroke-miterlimit:10"></path><path d="M244.39,99.6s4.28-.29,5.13-3.14,7.71-12.28,8.57-11.71,4.85,2,6,0a8.93,8.93,0,0,0,1.14-4s13.14-6.28,18.56-9.14,6.85-7.14,3.71-13.7-21.41-8-33.68-3.43-11.43,6.79-13.71,15.07S240.67,96.46,244.39,99.6Z" style="fill:#263238;stroke:#263238;stroke-miterlimit:10"></path><path d="M260.09,86.18s-4.29-8.28-8-4.85-1.71,10.84.57,12a9.1,9.1,0,0,0,5.14.57s-1.71,7.42,4.28,12" style="fill:#fff;stroke:#263238;stroke-miterlimit:10"></path></g><g id="Floor"><line x1="30.07" y1="446.51" x2="18" y2="446.51" style="fill:#92E3A9;stroke:#263238;stroke-miterlimit:10"></line><line x1="478" y1="446.51" x2="37.08" y2="446.51" style="fill:#92E3A9;stroke:#263238;stroke-miterlimit:10"></line></g></svg>