<svg xmlns="http://www.w3.org/2000/svg" viewBox="0 0 500 500"><g id="background-simple"><path d="M461.12,112.7q-2.37-4-5-7.9C433,70.45,393.06,47,353.82,36.34a231.78,231.78,0,0,0-52.71-7.69c-116.62-4-163.06,87.95-201.61,111.67S1.67,204.56,5.62,289.55s65.23,165,183.82,170,126.49-48.43,192.71-68.19c43.81-13.08,75-57.26,90.19-98.09C493.12,237.61,492.14,165.33,461.12,112.7Z" style="fill:#92E3A9"></path><path d="M461.12,112.7q-2.37-4-5-7.9C433,70.45,393.06,47,353.82,36.34a231.78,231.78,0,0,0-52.71-7.69c-116.62-4-163.06,87.95-201.61,111.67S1.67,204.56,5.62,289.55s65.23,165,183.82,170,126.49-48.43,192.71-68.19c43.81-13.08,75-57.26,90.19-98.09C493.12,237.61,492.14,165.33,461.12,112.7Z" style="fill:#fff;opacity:0.7000000000000001"></path></g><g id="Floor"><line x1="31.66" y1="448.23" x2="484.41" y2="448.23" style="fill:none;stroke:#263238;stroke-linecap:round;stroke-linejoin:round"></line></g><g id="Gears"><path d="M484.48,247.16V231.77H474.25a32.92,32.92,0,0,0-4.06-10l7.39-7.39L466.7,203.51l-7.36,7.35a33.07,33.07,0,0,0-9.81-4.08V196.1H434.14v10.68a32.74,32.74,0,0,0-9.62,4L416.76,203l-10.88,10.88,7.72,7.72a33,33,0,0,0-4,9.45H398.47v15.39h10.95a32.87,32.87,0,0,0,3.79,9.53l-7.84,7.85,10.88,10.88,7.63-7.63a33.1,33.1,0,0,0,9.53,4.18V282.1H448.8V271.61a33,33,0,0,0,9.9-3.89l7.48,7.49,10.88-10.88-7.26-7.27a33.15,33.15,0,0,0,4.27-9.9Zm-42.64,9.47a17.54,17.54,0,1,1,17.53-17.53A17.53,17.53,0,0,1,441.84,256.63Z" style="fill:none;stroke:#000;stroke-linecap:round;stroke-linejoin:round;opacity:0.30000000000000004"></path><g style="opacity:0.30000000000000004"><path d="M115.08,396.52V381.13H104.86a32.84,32.84,0,0,0-4.07-10l7.4-7.39L97.3,352.87,90,360.22a33.09,33.09,0,0,0-9.81-4.09V345.45H64.75v10.68a33.21,33.21,0,0,0-9.63,4l-7.75-7.76L36.49,363.23,44.21,371a33,33,0,0,0-4,9.45H29.07v15.39H40a32.59,32.59,0,0,0,3.79,9.53L36,413.17l10.88,10.88,7.63-7.63A33,33,0,0,0,64,420.59v10.87H79.41V421a33,33,0,0,0,9.9-3.89l7.48,7.48,10.88-10.88-7.27-7.26a33,33,0,0,0,4.27-9.9ZM72.44,406A17.54,17.54,0,1,1,90,388.46,17.53,17.53,0,0,1,72.44,406Z" style="fill:none;stroke:#000;stroke-linecap:round;stroke-linejoin:round"></path><path d="M69.61,318.52V308.38H62.88a21.66,21.66,0,0,0-2.68-6.59l4.87-4.87-7.17-7.17-4.85,4.85a21.82,21.82,0,0,0-6.46-2.69v-7H36.44v7a22,22,0,0,0-6.34,2.61L25,289.41l-7.17,7.17,5.09,5.09a21.94,21.94,0,0,0-2.64,6.23H12.93V318h7.22a21.89,21.89,0,0,0,2.5,6.28l-5.17,5.17,7.17,7.17,5-5A21.84,21.84,0,0,0,36,334.39v7.16H46.1v-6.92a21.8,21.8,0,0,0,6.53-2.56L57.56,337l7.17-7.17L59.94,325a21.68,21.68,0,0,0,2.81-6.52Zm-28.09,6.24a11.56,11.56,0,1,1,11.55-11.55A11.55,11.55,0,0,1,41.52,324.76Z" style="fill:none;stroke:#000;stroke-linecap:round;stroke-linejoin:round"></path></g></g><g id="Plants"><g style="opacity:0.2"><path d="M330.64,55.24c3,3.15,12,6.76,12,6.76s.57-6.67.55-7.09c-.21-4.94-3.53-14.36-8.86-15.82a6.55,6.55,0,0,0-8.06,5.49C325.62,48.43,328.1,52.55,330.64,55.24Z"></path><path d="M420.2,95.72c.06.08,4.16-5.25,4.38-5.61,2.54-4.24,5-13.92,1.33-18.09a6.55,6.55,0,0,0-9.75.14c-2.67,2.85-2.87,7.66-2.24,11.3C414.66,87.73,420.2,95.71,420.2,95.72Z"></path><path d="M460.68,74.7c-4.84-2.7-13.81,1.67-17.43,5-.31.29-4.68,5.4-4.58,5.44l.1,0c-1.42.68-2.93,1.43-4.57,2.27-3,1.59-6.42,3.42-10,5.65a116.1,116.1,0,0,0-11.14,7.75A84.87,84.87,0,0,0,402,111.24l-.12.14c.66-1.48,2.38-5.68,2.47-6,1.34-4.75,1.12-14.73-3.49-17.79a6.54,6.54,0,0,0-9.36,2.7c-1.82,3.46-.75,8.15.82,11.49,1.76,3.77,8.64,9.62,9.19,10.09a114.43,114.43,0,0,0-9.24,12.4c-1.65,2.52-3.23,5.1-4.78,7.72.53-1.3,1-2.47,1-2.64,1.34-4.75,1.12-14.73-3.49-17.79a6.54,6.54,0,0,0-9.36,2.7c-1.82,3.46-.75,8.15.82,11.5s7.35,8.49,8.89,9.82c-.58,1-1.18,2-1.76,3-2.79,4.85-5.55,9.7-8.4,14.38-1,1.65-2.05,3.23-3.1,4.83.47-1.16.86-2.13.9-2.29,1.34-4.76,1.12-14.74-3.49-17.8a6.55,6.55,0,0,0-9.36,2.71c-1.82,3.46-.75,8.15.82,11.49s6.79,8,8.62,9.59c-1.12,1.59-2.24,3.2-3.4,4.69-.81,1-1.52,2-2.4,3l-2.5,2.89c-1.66,1.78-3.37,3.62-5,5.31-1.15,1.19-2.26,2.3-3.38,3.42,1-1.63,2.94-4.86,3.07-5.15a25.44,25.44,0,0,0,1.72-12.72,8.24,8.24,0,0,0,.48-1.37A6.55,6.55,0,0,0,353,153.3c-5.48-.78-12.28,6.52-14.45,11-.12.27-1.19,3.26-1.84,5.17.21-1.18.43-2.32.63-3.53.41-2.4.75-4.8,1.12-7.39.14-1.25.28-2.52.42-3.8s.18-2.62.28-3.94c.16-3.08.17-6.2.11-9.35,2.1.35,9.57,1.51,13.16.58s7.88-3.08,9.38-6.69a6.54,6.54,0,0,0-3.88-8.94C352.6,124.76,344.77,131,342,135c-.17.25-1.87,3.39-2.76,5.14-.05-1.9-.09-3.78-.2-5.7-.32-5.52-.82-11.09-1.29-16.66-.15-1.71-.27-3.41-.4-5.11.74.14,9.6,1.7,13.62.66,3.57-.92,7.87-3.08,9.38-6.69a6.56,6.56,0,0,0-3.88-8.94c-5.3-1.6-13.13,4.59-15.94,8.65-.22.31-2.65,4.83-3.21,6-.28-3.75-.53-7.49-.63-11.18a115.15,115.15,0,0,1,.5-15c.34.06,9.57,1.73,13.69.67,3.58-.92,7.88-3.08,9.38-6.69a6.54,6.54,0,0,0-3.88-8.94c-5.29-1.61-13.12,4.59-15.94,8.65-.18.27-2,3.71-2.88,5.37l-.3-.09a83.6,83.6,0,0,1,3.2-14.7c.79-2.65,1.7-5.14,2.64-7.54,1.68.49,9.42,2.63,13.23,2.08s8.17-2.2,10.06-5.61a6.56,6.56,0,0,0-2.87-9.32c-5.09-2.18-13.55,3.12-16.8,6.85-.17.2-1.74,2.46-2.86,4.12.44-1.08.88-2.2,1.32-3.22,1.64-3.85,3.39-7.27,5-10.29.91-1.71,1.76-3.23,2.57-4.65,1.91-.39,9.57-2,12.65-4.24s6.23-5.71,6.33-9.62a6.54,6.54,0,0,0-6.84-6.94c-5.52.41-10.59,9-11.75,13.81-.1.42-.93,7.09-.82,7.07l.11,0c-.81,1.35-1.66,2.81-2.56,4.42-1.64,3-3.47,6.38-5.21,10.21a118.71,118.71,0,0,0-5,12.61A86.46,86.46,0,0,0,336,85a1.09,1.09,0,0,1,0,.18c-.27-1.6-1.16-6-1.26-6.38-1.51-4.71-7.2-12.92-12.73-12.92a6.54,6.54,0,0,0-6.32,7.42c.39,3.89,3.87,7.21,7,9.13,3.56,2.17,12.52,3.26,13.23,3.34a115.22,115.22,0,0,0-.86,15.45c0,3,.12,6,.27,9.07-.28-1.38-.53-2.61-.58-2.77-1.51-4.71-7.2-12.91-12.73-12.92A6.54,6.54,0,0,0,315.7,102c.39,3.89,3.87,7.21,7,9.13s10.82,3,12.84,3.29c.07,1.16.13,2.33.2,3.49.35,5.58.72,11.15.92,16.63.08,1.93.07,3.83.08,5.73-.24-1.22-.46-2.24-.51-2.4-1.51-4.7-7.19-12.91-12.73-12.92a6.54,6.54,0,0,0-6.31,7.43c.38,3.89,3.87,7.21,7,9.13s10.08,2.92,12.48,3.24c-.06,1.95-.11,3.9-.24,5.79-.13,1.28-.16,2.53-.35,3.82s-.34,2.53-.5,3.79c-.41,2.39-.81,4.87-1.26,7.2-.31,1.62-.63,3.16-.94,4.72-.05-1.93-.23-5.68-.28-6-.78-4.88-5.15-13.85-10.62-14.69a6.55,6.55,0,0,0-7.37,6.38c-.2,3.9,2.73,7.71,5.56,10.09,3.11,2.61,11.45,5,12.49,5.28-.53,2.57-1.07,5.06-1.62,7.4-1.87,8.05-3.73,14.7-5.11,19.35l3.45,1.47.09-.31c1.29-4.75,3-11.55,4.77-19.8.55-2.6,1.09-5.4,1.62-8.27a72.4,72.4,0,0,0,8.35-.31c1.41,3.93,6.68,10.08,7.36,10.87-1.86,1.84-3.69,3.62-5.44,5.28-6,5.68-11.22,10.19-14.93,13.32l3.78,1.61c3.56-3.16,8.2-7.4,13.43-12.58,1.9-1.87,3.89-3.9,5.91-6,.88.61,8,5.54,12,6.27,3.63.67,8.44.5,11.32-2.14a6.55,6.55,0,0,0,.22-9.75c-4.13-3.67-13.84-1.33-18.1,1.18-.25.14-2.79,2-4.38,3.29.82-.87,1.63-1.7,2.47-2.6,1.66-1.77,3.27-3.59,5-5.54l2.44-2.94c.84-1,1.6-2.09,2.41-3.14,1.83-2.48,3.57-5.08,5.26-7.73,1.55,1.45,7.15,6.54,10.65,7.75s8.27,1.77,11.52-.41a6.55,6.55,0,0,0,1.69-9.6c-3.53-4.26-13.47-3.41-18.06-1.58-.29.11-3.44,1.8-5.14,2.76,1-1.6,2-3.2,3-4.86,2.78-4.78,5.44-9.71,8.12-14.61q1.23-2.25,2.48-4.48c.55.52,7.07,6.71,11,8.07,3.48,1.2,8.26,1.77,11.51-.41a6.55,6.55,0,0,0,1.7-9.6c-3.54-4.26-13.48-3.41-18.07-1.58-.35.14-4.87,2.57-6,3.25,1.83-3.29,3.68-6.54,5.64-9.68a116.36,116.36,0,0,1,8.67-12.2c.25.25,7,6.74,11.05,8.13,3.49,1.2,8.27,1.77,11.51-.41a6.55,6.55,0,0,0,1.7-9.6c-3.53-4.26-13.48-3.41-18.07-1.58-.3.12-3.75,2-5.37,2.89l-.2-.25a84.88,84.88,0,0,1,10.78-10.49c2.13-1.77,4.26-3.35,6.36-4.83,1.14,1.33,6.41,7.39,9.89,9s8,2.67,11.49.86a6.55,6.55,0,0,0,2.74-9.35c-3-4.63-13-4.88-17.78-3.56-.26.07-2.82,1.1-4.66,1.86,1-.65,1.94-1.35,2.87-2,3.5-2.3,6.84-4.19,9.81-5.84,1.7-.92,3.26-1.73,4.72-2.46,1.8.73,9.1,3.58,12.88,3.44s8.35-1.33,10.59-4.53A6.54,6.54,0,0,0,460.68,74.7Z"></path></g><g style="opacity:0.2"><path d="M170.93,57.17c-3,3.16-12,6.76-12,6.77s-.57-6.67-.55-7.1c.21-4.94,3.53-14.35,8.87-15.82a6.55,6.55,0,0,1,8,5.49C175.94,50.36,173.46,54.49,170.93,57.17Z"></path><path d="M81.36,97.65c0,.09-4.15-5.24-4.37-5.61C74.44,87.8,72,78.12,75.66,74a6.55,6.55,0,0,1,9.74.14c2.67,2.86,2.88,7.66,2.25,11.3C86.91,89.66,81.37,97.65,81.36,97.65Z"></path><path d="M40.89,76.63c4.83-2.7,13.8,1.67,17.42,5,.31.29,4.68,5.4,4.59,5.44l-.11,0c1.42.67,2.94,1.42,4.58,2.27,3,1.59,6.41,3.41,10,5.64a119.32,119.32,0,0,1,11.15,7.75A86.87,86.87,0,0,1,99.6,113.17l.11.15c-.66-1.48-2.37-5.69-2.47-6-1.33-4.76-1.12-14.74,3.49-17.8a6.55,6.55,0,0,1,9.37,2.71c1.82,3.45.75,8.15-.82,11.49-1.77,3.77-8.65,9.62-9.2,10.08a116,116,0,0,1,9.25,12.41c1.64,2.51,3.22,5.1,4.78,7.71-.54-1.3-1-2.46-1-2.63-1.33-4.76-1.12-14.74,3.49-17.8a6.55,6.55,0,0,1,9.37,2.71c1.82,3.46.75,8.15-.82,11.49s-7.36,8.5-8.9,9.83c.59,1,1.18,2,1.76,3,2.79,4.85,5.55,9.7,8.4,14.37,1,1.65,2.06,3.24,3.1,4.83-.47-1.15-.85-2.13-.9-2.28-1.33-4.76-1.12-14.74,3.49-17.8a6.55,6.55,0,0,1,9.37,2.71c1.82,3.45.75,8.15-.82,11.49s-6.8,8-8.62,9.58c1.12,1.6,2.24,3.2,3.39,4.7.82,1,1.53,2,2.4,3l2.51,2.88c1.66,1.78,3.36,3.62,5,5.32,1.15,1.18,2.27,2.29,3.39,3.41-1-1.63-2.95-4.86-3.08-5.15a25.32,25.32,0,0,1-1.71-12.72,8.17,8.17,0,0,1-.49-1.36,6.55,6.55,0,0,1,5.19-8.25c5.48-.79,12.28,6.52,14.45,11,.13.26,1.2,3.26,1.84,5.16-.21-1.18-.42-2.31-.62-3.53-.41-2.39-.75-4.8-1.13-7.38-.13-1.26-.27-2.52-.41-3.8s-.18-2.63-.28-4c-.16-3.08-.17-6.2-.12-9.35-2.1.36-9.57,1.51-13.16.59s-7.87-3.09-9.38-6.69a6.56,6.56,0,0,1,3.88-8.95c5.3-1.6,13.13,4.59,15.94,8.65.18.26,1.87,3.4,2.77,5.14.05-1.89.08-3.78.2-5.69.32-5.52.81-11.1,1.29-16.67.14-1.7.26-3.4.4-5.11-.75.14-9.6,1.7-13.62.67-3.58-.92-7.88-3.09-9.38-6.69a6.54,6.54,0,0,1,3.88-8.94c5.29-1.61,13.12,4.58,15.94,8.64.21.31,2.64,4.83,3.2,6,.29-3.74.54-7.48.64-11.18a115.15,115.15,0,0,0-.5-14.95c-.35.06-9.58,1.74-13.7.68-3.57-.92-7.87-3.09-9.38-6.69a6.56,6.56,0,0,1,3.88-9c5.3-1.6,13.13,4.59,15.94,8.65.19.27,2,3.72,2.89,5.37l.3-.09a84.71,84.71,0,0,0-3.21-14.7c-.79-2.65-1.7-5.14-2.63-7.54-1.69.49-9.43,2.63-13.24,2.09-3.65-.52-8.16-2.2-10.06-5.62a6.55,6.55,0,0,1,2.88-9.31c5.09-2.18,13.55,3.11,16.79,6.84.18.2,1.74,2.46,2.86,4.12-.44-1.07-.87-2.19-1.31-3.22-1.65-3.84-3.4-7.27-5-10.28-.9-1.71-1.76-3.24-2.57-4.66-1.91-.39-9.57-2-12.64-4.23S130,34.92,129.92,31a6.56,6.56,0,0,1,6.84-6.95c5.52.41,10.59,9,11.75,13.82.1.41.93,7.09.83,7.07l-.12,0c.81,1.35,1.67,2.81,2.57,4.42,1.64,3,3.46,6.39,5.2,10.21a114,114,0,0,1,5,12.62,84.73,84.73,0,0,1,3.56,14.76c0,.06,0,.12,0,.18.26-1.6,1.15-6.05,1.26-6.38C168.36,76,174,67.83,179.58,67.82a6.56,6.56,0,0,1,6.32,7.43c-.39,3.88-3.88,7.21-7,9.13-3.55,2.16-12.51,3.25-13.23,3.33a115.21,115.21,0,0,1,.87,15.45c0,3-.13,6-.27,9.07.27-1.37.53-2.6.58-2.77,1.51-4.71,7.19-12.91,12.73-12.92a6.56,6.56,0,0,1,6.32,7.43c-.39,3.88-3.88,7.21-7,9.13s-10.82,3-12.84,3.29c-.07,1.16-.12,2.32-.2,3.49-.35,5.58-.72,11.15-.92,16.62-.07,1.93-.07,3.83-.08,5.74.25-1.22.46-2.25.51-2.4,1.51-4.71,7.2-12.92,12.73-12.92a6.54,6.54,0,0,1,6.32,7.42c-.39,3.89-3.87,7.21-7,9.13s-10.08,2.92-12.48,3.24c0,1.95.1,3.9.24,5.79.12,1.29.15,2.53.35,3.82s.33,2.54.5,3.79c.4,2.4.8,4.87,1.26,7.2.3,1.63.62,3.17.94,4.72,0-1.92.22-5.68.27-6,.78-4.88,5.16-13.85,10.63-14.7a6.54,6.54,0,0,1,7.36,6.38c.21,3.9-2.73,7.71-5.55,10.09-3.11,2.62-11.46,5-12.5,5.28.53,2.57,1.08,5.06,1.63,7.4,1.87,8.06,3.73,14.7,5.11,19.36l-3.46,1.47c0-.11,0-.21-.08-.32-1.29-4.74-3.05-11.55-4.78-19.8-.55-2.6-1.09-5.4-1.61-8.27a70.2,70.2,0,0,1-8.36-.31c-1.4,3.93-6.67,10.08-7.36,10.87,1.86,1.85,3.69,3.63,5.44,5.28,6,5.68,11.22,10.2,14.94,13.32L166,203.7c-3.55-3.15-8.19-7.4-13.43-12.57-1.89-1.87-3.89-3.91-5.91-6-.87.6-8,5.54-12,6.27-3.64.66-8.45.49-11.32-2.15a6.54,6.54,0,0,1-.23-9.74c4.14-3.68,13.84-1.34,18.1,1.17.25.15,2.8,2.06,4.38,3.29-.82-.87-1.63-1.7-2.46-2.6-1.67-1.77-3.28-3.59-5-5.54l-2.44-2.94c-.84-1-1.6-2.09-2.41-3.14-1.83-2.47-3.56-5.07-5.25-7.73-1.56,1.46-7.15,6.54-10.66,7.75s-8.27,1.77-11.51-.41a6.54,6.54,0,0,1-1.7-9.59c3.53-4.27,13.48-3.42,18.07-1.59.28.12,3.43,1.81,5.14,2.77-1-1.61-2-3.21-3-4.86-2.77-4.78-5.44-9.71-8.11-14.61-.82-1.51-1.66-3-2.49-4.49-.54.53-7.07,6.71-11,8.07-3.49,1.21-8.27,1.77-11.52-.4a6.55,6.55,0,0,1-1.69-9.6c3.53-4.27,13.48-3.42,18.06-1.58.35.13,4.87,2.57,6,3.24-1.83-3.28-3.68-6.54-5.64-9.67a112.83,112.83,0,0,0-8.66-12.2c-.26.24-7,6.73-11,8.12-3.49,1.2-8.27,1.77-11.52-.41A6.54,6.54,0,0,1,75.07,113c3.53-4.27,13.47-3.42,18.06-1.59.3.12,3.75,2,5.37,2.89l.2-.24a84.32,84.32,0,0,0-10.78-10.5c-2.12-1.77-4.25-3.34-6.36-4.83-1.14,1.34-6.41,7.39-9.89,9-3.33,1.59-8,2.67-11.48.87a6.55,6.55,0,0,1-2.75-9.36c3.05-4.62,13-4.87,17.79-3.55.26.07,2.81,1.09,4.66,1.86-1-.66-1.94-1.35-2.87-2-3.5-2.3-6.84-4.19-9.82-5.85C65.5,88.82,64,88,62.48,87.28c-1.8.73-9.1,3.58-12.88,3.45S41.25,89.4,39,86.2A6.56,6.56,0,0,1,40.89,76.63Z"></path></g></g><g id="Clipboard"><rect x="140.5" y="119.34" width="222.2" height="329" rx="6.08" style="fill:#263238;stroke:#263238;stroke-linecap:round;stroke-linejoin:round"></rect><rect x="151.79" y="126.76" width="199.61" height="308.91" style="fill:#fff;stroke:#263238;stroke-linecap:round;stroke-linejoin:round"></rect><path d="M268.4,93.42a1.69,1.69,0,0,1-1.69-1.69V82.18a3.61,3.61,0,0,0-3.62-3.61H247.7a3.6,3.6,0,0,0-3.61,3.61v9.55a1.69,1.69,0,0,1-1.7,1.69h0a1.69,1.69,0,0,0-1.69,1.7V121h29.4V95.12A1.7,1.7,0,0,0,268.4,93.42Zm-13-.89a4.74,4.74,0,1,1,4.74-4.74A4.75,4.75,0,0,1,255.4,92.53Z" style="fill:#263238;stroke:#263238;stroke-linecap:round;stroke-linejoin:round"></path><path d="M218.13,112.77h74.53a8.65,8.65,0,0,1,8.65,8.65v7.64a0,0,0,0,1,0,0H209.48a0,0,0,0,1,0,0v-7.64A8.65,8.65,0,0,1,218.13,112.77Z" style="fill:#fff;stroke:#263238;stroke-linecap:round;stroke-linejoin:round"></path><path d="M211.76,115.59H299a8.63,8.63,0,0,0-6.38-2.82H218.13A8.61,8.61,0,0,0,211.76,115.59Z" style="fill:#263238;stroke:#263238;stroke-linecap:round;stroke-linejoin:round"></path><rect x="209.48" y="128.98" width="91.83" height="5.35" style="fill:#fff;stroke:#263238;stroke-linecap:round;stroke-linejoin:round"></rect></g><g id="Checklist"><line x1="279.47" y1="206.9" x2="294.97" y2="206.9" style="fill:none;stroke:#263238;stroke-miterlimit:10"></line><line x1="171.97" y1="206.9" x2="267.47" y2="206.9" style="fill:none;stroke:#263238;stroke-miterlimit:10"></line><line x1="256.47" y1="218.9" x2="294.97" y2="218.9" style="fill:none;stroke:#263238;stroke-miterlimit:10"></line><line x1="197.47" y1="218.9" x2="245.97" y2="218.9" style="fill:none;stroke:#263238;stroke-miterlimit:10"></line><line x1="171.97" y1="218.9" x2="188.47" y2="218.9" style="fill:none;stroke:#263238;stroke-miterlimit:10"></line><line x1="219.97" y1="230.9" x2="294.97" y2="230.9" style="fill:none;stroke:#263238;stroke-miterlimit:10"></line><line x1="171.97" y1="230.9" x2="203.47" y2="230.9" style="fill:none;stroke:#263238;stroke-miterlimit:10"></line><circle cx="330.47" cy="217.9" r="13" style="fill:none;stroke:#263238;stroke-miterlimit:10"></circle><line x1="187.47" y1="260.4" x2="171.97" y2="260.4" style="fill:none;stroke:#263238;stroke-miterlimit:10"></line><line x1="294.97" y1="260.4" x2="199.47" y2="260.4" style="fill:none;stroke:#263238;stroke-miterlimit:10"></line><line x1="210.47" y1="272.4" x2="171.97" y2="272.4" style="fill:none;stroke:#263238;stroke-miterlimit:10"></line><line x1="269.47" y1="272.4" x2="220.97" y2="272.4" style="fill:none;stroke:#263238;stroke-miterlimit:10"></line><line x1="294.97" y1="272.4" x2="278.47" y2="272.4" style="fill:none;stroke:#263238;stroke-miterlimit:10"></line><line x1="246.97" y1="284.4" x2="171.97" y2="284.4" style="fill:none;stroke:#263238;stroke-miterlimit:10"></line><line x1="294.97" y1="284.4" x2="263.47" y2="284.4" style="fill:none;stroke:#263238;stroke-miterlimit:10"></line><circle cx="330.47" cy="271.4" r="13" style="fill:none;stroke:#263238;stroke-miterlimit:10"></circle><line x1="279.47" y1="313.9" x2="294.97" y2="313.9" style="fill:none;stroke:#263238;stroke-miterlimit:10"></line><line x1="171.97" y1="313.9" x2="267.47" y2="313.9" style="fill:none;stroke:#263238;stroke-miterlimit:10"></line><line x1="256.47" y1="325.9" x2="294.97" y2="325.9" style="fill:none;stroke:#263238;stroke-miterlimit:10"></line><line x1="197.47" y1="325.9" x2="245.97" y2="325.9" style="fill:none;stroke:#263238;stroke-miterlimit:10"></line><line x1="171.97" y1="325.9" x2="188.47" y2="325.9" style="fill:none;stroke:#263238;stroke-miterlimit:10"></line><line x1="219.97" y1="337.9" x2="294.97" y2="337.9" style="fill:none;stroke:#263238;stroke-miterlimit:10"></line><line x1="171.97" y1="337.9" x2="203.47" y2="337.9" style="fill:none;stroke:#263238;stroke-miterlimit:10"></line><circle cx="330.47" cy="324.9" r="13" style="fill:none;stroke:#263238;stroke-miterlimit:10"></circle><polyline points="325.52 269.24 329.05 275.52 342.4 262.57" style="fill:none;stroke:#92E3A9;stroke-linecap:round;stroke-miterlimit:10;stroke-width:6px"></polyline><polyline points="325.52 215.17 329.05 221.46 342.4 208.5" style="fill:none;stroke:#92E3A9;stroke-linecap:round;stroke-miterlimit:10;stroke-width:6px"></polyline><polyline points="323.65 320.25 327.18 326.54 340.53 313.58" style="fill:none;stroke:#92E3A9;stroke-linecap:round;stroke-miterlimit:10;stroke-width:6px"></polyline></g><g id="Text"><path d="M180.28,188.34V157.05h6.92v31.29Z" style="fill:#92E3A9"></path><path d="M200.18,188.81a10.37,10.37,0,0,1-4.91-1.05,6.67,6.67,0,0,1-3-3.22,14.7,14.7,0,0,1-1.12-5.66l5.91-.89a13.86,13.86,0,0,0,.36,3.25,3.59,3.59,0,0,0,.93,1.77,2.09,2.09,0,0,0,1.45.54,1.38,1.38,0,0,0,1.41-.73,3.75,3.75,0,0,0,.33-1.55,5.57,5.57,0,0,0-.93-3.26,14.64,14.64,0,0,0-2.51-2.69l-2.7-2.35a15.18,15.18,0,0,1-3-3.42,8.67,8.67,0,0,1-1.22-4.74,7.73,7.73,0,0,1,2.36-6.08,9.29,9.29,0,0,1,6.41-2.11,8.36,8.36,0,0,1,4,.85,5.94,5.94,0,0,1,2.32,2.23,9,9,0,0,1,1.08,2.89,18.14,18.14,0,0,1,.33,2.92l-5.95.73c0-.92-.08-1.73-.17-2.41a3.33,3.33,0,0,0-.56-1.58,1.54,1.54,0,0,0-1.32-.56,1.5,1.5,0,0,0-1.41.81,3.41,3.41,0,0,0-.44,1.62,4.56,4.56,0,0,0,.83,2.84,16.22,16.22,0,0,0,2.18,2.3l2.59,2.28a17.47,17.47,0,0,1,3.46,3.94,9.9,9.9,0,0,1,1.41,5.45,8,8,0,0,1-1,4,7.25,7.25,0,0,1-2.84,2.84A8.58,8.58,0,0,1,200.18,188.81Z" style="fill:#92E3A9"></path><path d="M220.69,188.81a10.68,10.68,0,0,1-5.56-1.24,6.93,6.93,0,0,1-2.94-3.55,15.54,15.54,0,0,1-.88-5.53V166.86a15.29,15.29,0,0,1,.88-5.52,6.85,6.85,0,0,1,2.94-3.5,10.89,10.89,0,0,1,5.56-1.22,11.12,11.12,0,0,1,5.63,1.22,6.82,6.82,0,0,1,3,3.5,15.28,15.28,0,0,1,.89,5.52v11.63a15.53,15.53,0,0,1-.89,5.53,6.9,6.9,0,0,1-3,3.55A10.91,10.91,0,0,1,220.69,188.81Zm0-4.91a2.09,2.09,0,0,0,1.59-.54,2.69,2.69,0,0,0,.65-1.39,9.16,9.16,0,0,0,.16-1.74V165.16a9.07,9.07,0,0,0-.16-1.76,2.7,2.7,0,0,0-.65-1.37,2.09,2.09,0,0,0-1.59-.54,1.94,1.94,0,0,0-1.5.54,2.63,2.63,0,0,0-.66,1.37,10,10,0,0,0-.15,1.76v15.07a11.14,11.14,0,0,0,.13,1.74,2.66,2.66,0,0,0,.62,1.39A2,2,0,0,0,220.69,183.9Z" style="fill:#92E3A9"></path><path d="M252,188.81a10.19,10.19,0,0,1-4.76-.93,5.32,5.32,0,0,1-2.47-2.72,11.77,11.77,0,0,1-.73-4.43v-.5h6a8.82,8.82,0,0,0,.32,2.8c.22.61.77.91,1.65.91a1.56,1.56,0,0,0,1.31-.54,3.86,3.86,0,0,0,.56-1.91c.09-.92.13-2.17.13-3.77v-2.78a3.09,3.09,0,0,1-1.52,1.23,7.12,7.12,0,0,1-2.3.51,5.83,5.83,0,0,1-4-1.24,7,7,0,0,1-2.16-3.44,16.05,16.05,0,0,1-.66-4.71,17.28,17.28,0,0,1,.83-5.66,7.2,7.2,0,0,1,2.72-3.69,8.65,8.65,0,0,1,5-1.32,9,9,0,0,1,5,1.24,7.1,7.1,0,0,1,2.76,3.46,14.29,14.29,0,0,1,.87,5.23v11.67a19.3,19.3,0,0,1-.71,5.45,7.1,7.1,0,0,1-2.57,3.77A8.91,8.91,0,0,1,252,188.81Zm.07-17.08a1.77,1.77,0,0,0,1.24-.42,5.19,5.19,0,0,0,.73-.82v-5.1a12.3,12.3,0,0,0-.15-2,3.29,3.29,0,0,0-.58-1.46,1.52,1.52,0,0,0-1.31-.56,1.47,1.47,0,0,0-1.28.6,3.84,3.84,0,0,0-.56,1.77,26.56,26.56,0,0,0-.13,2.92c0,1,0,1.89.09,2.65a3.83,3.83,0,0,0,.52,1.77A1.59,1.59,0,0,0,252.1,171.73Z" style="fill:#92E3A9"></path><path d="M273.35,188.92a9,9,0,0,1-4.71-1.14,7.3,7.3,0,0,1-2.86-3.14,10.75,10.75,0,0,1-1-4.68V165.78a12,12,0,0,1,.9-4.81,7.05,7.05,0,0,1,2.8-3.23,9.19,9.19,0,0,1,4.83-1.15,9,9,0,0,1,4.81,1.15A7.09,7.09,0,0,1,281,161a12,12,0,0,1,.9,4.81V180a10.81,10.81,0,0,1-1,4.66,7.3,7.3,0,0,1-2.86,3.16A8.92,8.92,0,0,1,273.35,188.92Zm0-5.75a1.5,1.5,0,0,0,1.34-.6,3.05,3.05,0,0,0,.5-1.39,12.78,12.78,0,0,0,.1-1.37V165.94c0-.44,0-.94-.08-1.49a3.2,3.2,0,0,0-.48-1.47,1.8,1.8,0,0,0-2.75,0,3.2,3.2,0,0,0-.48,1.47c-.05.55-.08,1.05-.08,1.49v13.87a9.41,9.41,0,0,0,.12,1.37,3.32,3.32,0,0,0,.52,1.39A1.44,1.44,0,0,0,273.35,183.17Z" style="fill:#92E3A9"></path><path d="M294.6,188.92a9,9,0,0,1-4.71-1.14,7.3,7.3,0,0,1-2.86-3.14,10.75,10.75,0,0,1-1-4.68V165.78A12,12,0,0,1,287,161a7.05,7.05,0,0,1,2.8-3.23,9.16,9.16,0,0,1,4.83-1.15,9,9,0,0,1,4.81,1.15A7.09,7.09,0,0,1,302.2,161a12,12,0,0,1,.9,4.81V180a10.81,10.81,0,0,1-1,4.66,7.3,7.3,0,0,1-2.86,3.16A8.92,8.92,0,0,1,294.6,188.92Zm0-5.75a1.5,1.5,0,0,0,1.34-.6,3.17,3.17,0,0,0,.5-1.39,12.78,12.78,0,0,0,.1-1.37V165.94c0-.44,0-.94-.08-1.49A3.21,3.21,0,0,0,296,163a1.79,1.79,0,0,0-2.74,0,3.2,3.2,0,0,0-.48,1.47c-.05.55-.08,1.05-.08,1.49v13.87a9.41,9.41,0,0,0,.12,1.37,3.19,3.19,0,0,0,.52,1.39A1.44,1.44,0,0,0,294.6,183.17Z" style="fill:#92E3A9"></path><path d="M310.37,188.34V163.42c-.29.16-.61.31-1,.47l-1.14.48-1.16.48c-.37.16-.71.31-1,.47v-4.79c.28-.16.68-.37,1.2-.64s1.06-.57,1.66-.91,1.14-.67,1.66-1a8.55,8.55,0,0,0,1.16-.91h5.06v31.29Z" style="fill:#92E3A9"></path></g><g id="Icons"><circle cx="441.79" cy="391.79" r="18.77" style="fill:#92E3A9"></circle><rect x="428.89" y="388.28" width="7.93" height="13.48" rx="0.96" style="fill:#fff"></rect><path d="M453.13,390.23c2-3-.75-3.84-.75-3.84h-7.24l.12-.63s.63-4.92-.19-6.43-3.78-2.14-3.9-1.57.06,3.08-.19,4.47a45.32,45.32,0,0,1-2.77,6.61,1.65,1.65,0,0,1-.44.45V400.5a2.89,2.89,0,0,0,1.64.43h10.51a2.43,2.43,0,0,0,1.64-3.08,3.07,3.07,0,0,0,1.38-3.59C455.46,392.12,453.13,390.23,453.13,390.23Z" style="fill:#fff"></path><circle cx="50.98" cy="147.9" r="30.76" transform="translate(-23.03 10.08) rotate(-9.22)" style="fill:#92E3A9"></circle><rect x="29.84" y="142.14" width="13" height="22.08" rx="1.57" style="fill:#fff"></rect><path d="M69.57,145.34c3.3-4.85-1.24-6.3-1.24-6.3H56.46l.21-1s1-8-.31-10.53S50.17,124,50,124.9s.11,5.06-.31,7.33-4,9.91-4.54,10.84a3.14,3.14,0,0,1-.71.73v18.37a4.66,4.66,0,0,0,2.67.71H64.31A4,4,0,0,0,67,157.82c3.61-2.58,2.27-5.88,2.27-5.88C73.39,148.43,69.57,145.34,69.57,145.34Z" style="fill:#fff"></path><circle cx="285.15" cy="56.74" r="18.77" style="fill:#92E3A9"></circle><rect x="272.25" y="53.22" width="7.93" height="13.48" rx="0.96" style="fill:#fff"></rect><path d="M296.49,55.17c2-3-.75-3.84-.75-3.84H288.5l.12-.63s.63-4.91-.19-6.42-3.77-2.14-3.9-1.57.06,3.08-.19,4.47a46.28,46.28,0,0,1-2.77,6.61,1.8,1.8,0,0,1-.44.45v11.2a2.85,2.85,0,0,0,1.64.44h10.51a2.44,2.44,0,0,0,1.64-3.09,3.07,3.07,0,0,0,1.38-3.59C298.82,57.06,296.49,55.17,296.49,55.17Z" style="fill:#fff"></path></g><g id="Badge"><polygon points="192.98 398.85 182.81 460.52 198.4 442.9 215.34 461.2 209.24 397.49 192.98 398.85" style="fill:#92E3A9;stroke:#263238;stroke-miterlimit:10"></polygon><polygon points="201.81 399.37 204.4 461.82 216.08 441.4 236.39 455.87 217.47 394.73 201.81 399.37" style="fill:#92E3A9;stroke:#263238;stroke-miterlimit:10"></polygon><path d="M239.78,386c0-1.8,3.85-3.86,3.6-5.59s-4.53-2.67-5-4.35,2.61-4.78,1.87-6.38-5.09-1.27-6-2.76,1.16-5.31,0-6.64-5.24.22-6.58-.94-.37-5.42-1.86-6.39-5,1.69-6.58.95-1.88-5.09-3.59-5.6-4.27,3-6,2.78-3.22-4.36-5-4.36-3.29,4.11-5,4.36-4.35-3.27-6-2.78-2,4.87-3.59,5.6-5.09-1.9-6.58-.95-.52,5.23-1.86,6.39-5.42-.4-6.59.94,1,5.15,0,6.65-5.32,1.13-6.06,2.75,2.38,4.66,1.88,6.38-4.77,2.57-5,4.35,3.6,3.79,3.6,5.59-3.85,3.85-3.6,5.59,4.53,2.67,5,4.35-2.61,4.78-1.88,6.38,5.1,1.27,6.06,2.75-1.17,5.31,0,6.65,5.24-.22,6.58.94.37,5.42,1.86,6.38,5-1.68,6.58-.94,1.88,5.09,3.59,5.59,4.27-3,6-2.77,3.23,4.36,5,4.36,3.29-4.11,5-4.36,4.36,3.27,6,2.77,2-4.86,3.59-5.59,5.09,1.9,6.58.94.52-5.22,1.86-6.38,5.42.4,6.58-.94-1-5.15,0-6.65,5.31-1.13,6.06-2.75-2.39-4.66-1.88-6.38,4.77-2.58,5-4.35S239.78,387.77,239.78,386Z" style="fill:#263238"></path><circle cx="204.5" cy="385.97" r="28.01" style="fill:#fff;stroke:#263238;stroke-linecap:round;stroke-linejoin:round"></circle><circle cx="204.5" cy="385.97" r="19.56" transform="translate(-213.02 257.65) rotate(-45)" style="fill:#fff;stroke:#263238;stroke-linecap:round;stroke-linejoin:round"></circle><circle cx="204.53" cy="385.92" r="15.38" style="fill:#92E3A9"></circle><rect x="193.96" y="383.04" width="6.5" height="11.04" rx="0.79" style="fill:#fff"></rect><path d="M213.83,384.64c1.65-2.43-.62-3.15-.62-3.15h-5.93l.1-.52s.52-4-.15-5.26-3.1-1.75-3.2-1.29.05,2.53-.16,3.66a37.11,37.11,0,0,1-2.27,5.42,1.36,1.36,0,0,1-.36.37v9.18a2.38,2.38,0,0,0,1.34.36h8.62a2,2,0,0,0,1.34-2.53,2.51,2.51,0,0,0,1.14-2.94A2,2,0,0,0,213.83,384.64Z" style="fill:#fff"></path></g><g id="character-2"><path d="M383.81,300.8s-.56,25.55.29,33.69,5.72,49.6,7.62,64,2.73,42,2.73,42-2.18.55-2.18,2.45a24.51,24.51,0,0,1-.27,3.55,27.47,27.47,0,0,1-4.09,4.09c-1.64,1.09-10.63,3.27-9.27,5.45s22.9,1.09,22.9,1.09-7.09,3.27-11.18,4.09-2.72,4.36,2.45,4.63,11.45.82,17.18.82,8.18-2.18,12.81-2.45,6.27-.28,7.09-.82,1.36-8.45,1.36-8.45l-1.09-7.91s5.38-28.46,3.27-47.7a234.92,234.92,0,0,1,1.37-58.83s5.27-18.41,4.43-26.54S437,297.19,437,297.19l-51.8,1.71Z" style="fill:#263238;stroke:#263238;stroke-linecap:round;stroke-linejoin:round"></path><path d="M401.78,222.6s-9.49,7.18-12.2,12.06-2.86,31.91-3.15,39.47-3.06,17.53-3,21.81-.15,9.58,14.73,9.56,35.84-3.11,38.35-5.12,3.51-2.28,4.63-6.64,8.88-33.43,9.66-42.65.48-13.41-7.48-25.28S425.3,212.2,425.3,212.2l-18.44,7.4Z" style="fill:#fff;stroke:#263238;stroke-linecap:round;stroke-linejoin:round"></path><polygon points="401.78 222.6 402.21 231.74 390.62 290.34 395.31 302.04 405.43 289.51 404.82 231.15 409.1 225.35 406.86 219.6 401.78 222.6" style="fill:#263238;stroke:#263238;stroke-linecap:round;stroke-linejoin:round"></polygon><polygon points="405.57 215.61 401.45 217.94 397.24 227.61 401.78 222.6 403.88 223.47 409.2 218.01 405.57 215.61" style="fill:#fff;stroke:#263238;stroke-linecap:round;stroke-linejoin:round"></polygon><path d="M392.59,174.15s-.06,12.59.33,14.79.12,6.81,2.12,10.2,3.76,10.08,5.24,11a11.41,11.41,0,0,0,4,1.25l1.15,9.68L423,207.3l-.83-10.17a9.05,9.05,0,0,0,2.74-6.31c.07-4-.33-6.32-2.26-7a11.24,11.24,0,0,1-3.43-2.11l1.51-6.93s3.75-5.2-7.2-7.13S393.41,170.69,392.59,174.15Z" style="fill:#fff;stroke:#263238;stroke-linecap:round;stroke-linejoin:round"></path><path d="M388.6,170.9s-.51,2.74,9,5.49,14.62,2.39,14.62,2.39-1.34.92-.23,1.78a6.66,6.66,0,0,0,2.32,1.13s.42,7.73,1.26,8,2.43-.64,2.43-.64-.22-3,1.47-4.1a7.79,7.79,0,0,1,3.21-1.16s2.93-12-.76-16.05-8.48-5.17-19.75-3.33S387.57,169.57,388.6,170.9Z" style="fill:#263238;stroke:#263238;stroke-linecap:round;stroke-linejoin:round"></path><polyline points="402.5 198.27 398.77 198.65 398.4 188.32 395.6 185.23 393.55 184.55" style="fill:none;stroke:#263238;stroke-linecap:round;stroke-linejoin:round"></polyline><path d="M400.33,202.53a19.44,19.44,0,0,0,3.4-.12,32.26,32.26,0,0,0,3.25-.69s-2.55,2.29-4.4,2.65S400.33,202.53,400.33,202.53Z" style="fill:none;stroke:#263238;stroke-linecap:round;stroke-linejoin:round"></path><path d="M404.24,211.43s.15.34,2.32-.51a24.15,24.15,0,0,0,5.06-3.3" style="fill:none;stroke:#263238;stroke-linecap:round;stroke-linejoin:round"></path><path d="M409.15,184.05c-2.17-.79-7.71.65-7.71.65" style="fill:none;stroke:#263238;stroke-linecap:round;stroke-linejoin:round"></path><path d="M407,188.84c.05.81-.27,1.49-.72,1.52s-.86-.6-.92-1.41.26-1.48.72-1.52S407,188,407,188.84Z" style="fill:#263238"></path><path d="M397.54,189.44c0,.81-.27,1.49-.72,1.52s-.86-.59-.92-1.4.26-1.49.72-1.52S397.48,188.64,397.54,189.44Z" style="fill:#263238"></path><polygon points="405 219.12 409.68 227.76 427.83 210.59 424.28 206.36 405 219.12" style="fill:#fff;stroke:#263238;stroke-linecap:round;stroke-linejoin:round"></polygon><polygon points="355.73 245.97 389.24 251.49 394.39 294.94 364.2 290.15 355.73 245.97" style="fill:#92E3A9;stroke:#263238;stroke-miterlimit:10"></polygon><path d="M357.16,255.7s-2.18.18-2.73,1.81a4.59,4.59,0,0,0,.55,4.18c.73.91,4.18,2,6,1.45s2.37-2,1.09-2.9a13,13,0,0,0-3.81-1.46Z" style="fill:#fff;stroke:#263238;stroke-linecap:round;stroke-linejoin:round"></path><path d="M355,261.69s-.73,2.36.54,3.63,4.73,1.64,5.82.37-.37-2.55-.37-2.55S356.25,262.78,355,261.69Z" style="fill:#fff;stroke:#263238;stroke-linecap:round;stroke-linejoin:round"></path><path d="M356.07,267s-.18,3.81,1.27,5.45,3.09.73,2.73-.73a9.28,9.28,0,0,0-1.09-2.54Z" style="fill:#fff;stroke:#263238;stroke-linecap:round;stroke-linejoin:round"></path><path d="M355.52,265.32a3,3,0,0,0,1.28,2.91c1.63,1.09,4,2.18,4.72.55a3.5,3.5,0,0,0-.18-3.09S357.7,266.6,355.52,265.32Z" style="fill:#fff;stroke:#263238;stroke-linecap:round;stroke-linejoin:round"></path><path d="M364.33,248.48l.28,1.77,16.53,2.9v-2.69a2.27,2.27,0,0,0-1.59-2.17l-1.86-.59-.38-1.33a2,2,0,0,0-1.59-1.42l-6.06-1a2,2,0,0,0-2.33,2h0l-.64,0A2.27,2.27,0,0,0,364.33,248.48Z" style="fill:#263238;stroke:#263238;stroke-linecap:round;stroke-linejoin:round"></path><path d="M400.93,271.49s-2.26-2.45-3.28-3.27-6.56-.82-6.56-.82v3.48s-8.6.61-11.06,1-2.87,1.64-2.25,2.67,6.76.41,6.76.41l3.07.41s-4.71,1.23-6.15,1.43-4.3,0-4.3,1,.41,1.63,2.66,1.84,5.95.2,8.4.82-4.09,1-5.94,1-2,1.64-.82,2.05,5.13,1,5.13,1a18.71,18.71,0,0,0,4.71,1.84c3.07.82,1,.41,7.78,0a43.29,43.29,0,0,0,9.84-1.43l.2-9.43-6.35-2Z" style="fill:#fff;stroke:#263238;stroke-linecap:round;stroke-linejoin:round"></path><line x1="391.09" y1="270.88" x2="394.78" y2="271.29" style="fill:#fff;stroke:#263238;stroke-linecap:round;stroke-linejoin:round"></line><line x1="386.59" y1="284.61" x2="392.73" y2="284.81" style="fill:#fff;stroke:#263238;stroke-linecap:round;stroke-linejoin:round"></line><polygon points="409.12 275.59 408.3 287.27 412.6 287.48 413.01 275.8 409.12 275.59" style="fill:#fff;stroke:#263238;stroke-linecap:round;stroke-linejoin:round"></polygon><path d="M434,217c3.07,1,20.41,11,20.41,19.76s-2.45,42-3.27,49.74-3.28,6.15-12.09,6.15-22.12-.41-24.58-1.44a3.24,3.24,0,0,1-1.85-3.69L413,275.8s.62-2.87,2.67-3.28S431,274,431,274s2.46-22.33,2.87-26.63-1.14-12,2.14-13.83" style="fill:#fff;stroke:#263238;stroke-linecap:round;stroke-linejoin:round"></path><path d="M440.67,280.51C437.6,279.28,431,274,431,274s7.79,2.05,8.81,1.85" style="fill:none;stroke:#263238;stroke-linecap:round;stroke-linejoin:round"></path></g><g id="character-1"><path d="M79.64,216a15.39,15.39,0,0,1,2.4,5.34c.53,2.8-.54,4.54-2.67,4.4a3.63,3.63,0,0,1-2.94-2.26s.41,4.53,2,6.67,2.8,1.86,12.14,2.93,23.35,0,27.22-.53,6.4-1.2,7.73-3.2a60.11,60.11,0,0,0,3.21-6s-4,2.94-6.14,2.27-2.14-4.94-1.47-6.67a31.37,31.37,0,0,1,1.74-3.6,28.74,28.74,0,0,0,1.46-7.61c0-3.33-1.2-6.8-3.33-14.54s-8.67-14.54-13.61-19.48-10.27-1.6-16.28,1.47-12.81,19.74-14,26.55S79.64,216,79.64,216Z" style="fill:#263238;stroke:#263238;stroke-miterlimit:10"></path><polygon points="90.53 228.7 101.79 220.5 113.61 228.7 102.36 255.98 90.53 228.7" style="fill:#fff;stroke:#263238;stroke-miterlimit:10"></polygon><polygon points="98.05 230.65 101.65 236.52 98.45 249.86 102.85 257.74 107.52 248.66 103.79 236.52 106.45 231.05 102.19 224.51 98.05 230.65" style="fill:#263238;stroke:#263238;stroke-miterlimit:10"></polygon><path d="M94.71,209s.14,11.07.4,12,5.61,6.41,6.67,6.81,5.88-6.81,6.28-7.34.13-11.21.13-11.21Z" style="fill:#fff;stroke:#263238;stroke-miterlimit:10"></path><path d="M103.79,173.28s-4.54,5.34-9.88,10.54-11.6,11.87-14,18.55-.26,13.6-.26,13.6a23.29,23.29,0,0,1-4.94-14c.13-8,1.6-22.69,8.54-31.09s17.88-8.81,23-7.61,11.21,7.34,14,14.81,5.47,21.75,5.2,27.75a20.24,20.24,0,0,1-2.53,9.48,35.57,35.57,0,0,0-3.61-18.41c-4.67-8.94-9.34-12.81-12.81-16.15A8.72,8.72,0,0,1,103.79,173.28Z" style="fill:#263238;stroke:#263238;stroke-miterlimit:10"></path><polygon points="101.78 227.85 95.65 236.52 90.33 224.02 95.11 219.98 101.78 227.85" style="fill:#fff;stroke:#263238;stroke-miterlimit:10"></polygon><polygon points="101.78 227.85 108.06 237.19 112.99 224.25 108.06 220.51 101.78 227.85" style="fill:#fff;stroke:#263238;stroke-miterlimit:10"></polygon><path d="M70.09,230.13s-25,33.62-26.33,35.66-2.45,2-1.77,3.66,5.3,6.66,8.7,6.8,4.34-.95,5.84-3.13S76.61,248,76.61,248,71.59,230.81,70.09,230.13Z" style="fill:#92E3A9;stroke:#263238;stroke-miterlimit:10"></path><polygon points="99.8 446.7 98.88 465.65 97.03 465.65 96.56 453.99 99.8 446.7" style="fill:#263238;stroke:#263238;stroke-miterlimit:10"></polygon><path d="M81.53,355.9s2.08,14,1.62,22.7S82,393,82.92,400.88s5.78,35.61,5.78,41.86-2.08,12.08-3.47,14.16-9.25,7.29-9.71,9.58,5.55,1.67,11.1.84,8.79-1.05,9.48-1.88-.23-5.83,1.39-11.66,3.23-5.62,2.54-9.16-3.47-7.5-3.47-13.33,3.7-40.61,2.78-49.57S98,356.11,98,356.11Z" style="fill:#fff;stroke:#263238;stroke-miterlimit:10"></path><path d="M93.79,459.4a26.06,26.06,0,0,0-6.24-1.46,12.72,12.72,0,0,0-3.14-.09c-2.46,2.42-8.48,6.64-8.89,8.63-.46,2.29,5.55,1.67,11.1.84s8.79-1.05,9.48-1.88-.23-5.83,1.39-11.66,3.23-5.62,2.54-9.16c-1.62,3.74-2.77,4.16-4.39,7.28A21.68,21.68,0,0,0,93.79,459.4Z" style="fill:#263238;stroke:#263238;stroke-miterlimit:10"></path><polygon points="130.63 448.24 132.57 467.12 134.4 467.04 134.22 455.37 130.63 448.24" style="fill:#263238;stroke:#263238;stroke-miterlimit:10"></polygon><path d="M125.68,355.69a97,97,0,0,0,6.31,23.4c3.33,8.22,3.74,13.14,5.34,21,1.57,7.66.26,34.32.68,42.07.34,6.24,6.06,13.64,7.55,15.66s9.52,6.86,10.1,9.13-5.39,1.91-10.91,1.33-8.72-.65-9.45-1.45-.09-5.84-2-11.59-3.5-5.47-3-9-.27-8.43-1.41-13.84c-1.21-5.73-9.31-37.27-11.23-46.09S109,356.32,109,356.32Z" style="fill:#fff;stroke:#263238;stroke-miterlimit:10"></path><path d="M137.25,460.65a25.26,25.26,0,0,1,6.08-1.73,12.51,12.51,0,0,1,3.09-.24c2.56,2.32,8.73,6.25,9.24,8.23.58,2.27-5.39,1.91-10.91,1.33s-8.72-.65-9.45-1.45-.09-5.84-2-11.59-3.5-5.47-3-9c1.8,3.67,3,4,4.73,7.08A22.18,22.18,0,0,1,137.25,460.65Z" style="fill:#263238;stroke:#263238;stroke-miterlimit:10"></path><path d="M73,300.92a73.7,73.7,0,0,0-2.71,15.62c-.42,8.12.83,53.74.83,53.74S79,372.78,94,373.19s42.48-2.71,42.48-2.71-1.25-46.23-4.37-57.89-5-15-5-15S96.74,277.39,73,300.92Z" style="fill:#263238;stroke:#263238;stroke-miterlimit:10"></path><path d="M131.82,230.76S155.8,265,157.17,267s2.45,2,1.78,3.66-5.27,6.67-8.67,6.82-4.35-.93-5.85-3.1-20.22-25.17-20.22-25.17S130.33,231.44,131.82,230.76Z" style="fill:#92E3A9;stroke:#263238;stroke-miterlimit:10"></path><path d="M90.33,224l12,28L113,224.25l18.73,6.49-15,43.4,16.7,35.05S126,313,113,314.67s-24.41.5-30-1.27-13.45-6-13-6,14.12-34.92,14.12-34.92l-14-42.38Z" style="fill:#92E3A9;stroke:#263238;stroke-miterlimit:10"></path><polygon points="102.47 259.27 115.87 243.04 112.13 237.63 119.99 234.41 117.35 226.18 112.99 224.25 102.29 252 90.33 224.02 86.26 225.25 84.19 236.08 93.07 237.89 89.34 243.81 102.47 259.27" style="fill:#92E3A9;stroke:#263238;stroke-miterlimit:10"></polygon><path d="M73.62,295.93a37.37,37.37,0,0,0,5.21-1.46c2.91-1,4.37-.42,6.25,1s6.66,4.52,6,5.56-1,1.52-2.08.89-6.24-4.79-7.29-4.79A15.24,15.24,0,0,0,78,298.42a12.23,12.23,0,0,1,5,1.46c1.88,1.25,6,4.38,5.83,5.42s-1,1.19-2.07,1-5.21-3.9-5.84-3.9H76.33a36.16,36.16,0,0,1,5.08,2.9c.83.84,2,1.68,2,2.3s-.38,2.22-1.62,1.81S77,305.92,77,305.92s3.33,3.53,3.13,4.13c-.29.88-.84.87-1.46.45s-5.13-3.08-6.59-4.33c-1.06-.91-.91-1.08-2.16-1.29s-2.5-2.92-2.5-2.92Z" style="fill:#fff;stroke:#263238;stroke-miterlimit:10"></path><path d="M77,305.92s-2.09-2.05-3.33-2.05" style="fill:none;stroke:#263238;stroke-miterlimit:10"></path><path d="M130,295.93a37.37,37.37,0,0,1-5.21-1.46c-2.91-1-4.37-.42-6.24,1s-6.66,4.52-6,5.56,1,1.52,2.08.89,6.25-4.79,7.29-4.79a15.35,15.35,0,0,1,3.75,1.25,12.26,12.26,0,0,0-5,1.46c-1.87,1.25-6,4.38-5.83,5.42s1,1.19,2.07,1,5.22-3.9,5.84-3.9a17.76,17.76,0,0,0,2.73-.64l-3.36,3.37c-.83.83-2,2.2-2,2.83s.51,1.86,1.76,1.45,4.79-4.81,4.79-4.81-3.34,4.87-3.14,5.47c.29.88.84.87,1.46.45s4.17-3.33,5.63-4.58c1.06-.91,1.87-.83,3.12-1s2.5-2.92,2.5-2.92Z" style="fill:#fff;stroke:#263238;stroke-miterlimit:10"></path><path d="M126.72,304.58a4.91,4.91,0,0,1,2.83-2.31" style="fill:none;stroke:#263238;stroke-miterlimit:10"></path><polygon points="134.02 291.34 129 295.93 135.87 304.25 141.23 299.19 134.02 291.34" style="fill:#fff;stroke:#263238;stroke-miterlimit:10"></polygon><path d="M147.11,268,132,292.47l7.9,10.18s7.12-9.42,10.64-14.43,9.07-16.77,8.86-18.23-5.24-6.44-5.24-6.44" style="fill:#92E3A9;stroke:#263238;stroke-miterlimit:10"></path><polygon points="68.6 291.34 73.62 295.93 66.75 304.25 61.39 299.19 68.6 291.34" style="fill:#fff;stroke:#263238;stroke-miterlimit:10"></polygon><path d="M53.82,266.7l15.85,25.48-7.5,9.46S51,288.41,47.48,283.41s-6.16-13.17-5.95-14.63,5.2-6.46,5.2-6.46" style="fill:#92E3A9;stroke:#263238;stroke-miterlimit:10"></path><path d="M103.39,178s-6.15,8.53-8.93,11.51l-2.78,3-6,1.19a24.51,24.51,0,0,0,1.59,4.17c.79,1.39,3,1.78,3,1.78s.6,5,2.38,7.55,6.62,6.62,13.89,7.93c2.19.39,6.72-2.6,8.9-12.53s0-12.87-1.16-16.24S106,178,103.39,178Z" style="fill:#fff;stroke:#263238;stroke-miterlimit:10"></path><path d="M114.83,190.73s-2.58-2.4-3.87,1.29c-.47,1.32,2.21,7.75,1.29,8.3s-1.29-.18-2.59.74" style="fill:none;stroke:#263238;stroke-miterlimit:10"></path><path d="M111.14,204.94s-5,1.48-7-2" style="fill:none;stroke:#263238;stroke-miterlimit:10"></path><path d="M106.34,189.25s-4.06-1.48-6.46.74" style="fill:none;stroke:#263238;stroke-miterlimit:10"></path><path d="M105.6,194.12c0,1-.5,1.77-1.13,1.77s-1.13-.79-1.13-1.77.51-1.78,1.13-1.78S105.6,193.14,105.6,194.12Z" style="fill:#263238"></path><path d="M114.46,194.42c0,1-.5,1.77-1.13,1.77s-1.12-.79-1.12-1.77.5-1.78,1.12-1.78S114.46,193.44,114.46,194.42Z" style="fill:#263238"></path></g></svg>