<svg xmlns="http://www.w3.org/2000/svg" xmlns:xlink="http://www.w3.org/1999/xlink" viewBox="0 0 500 500"><defs><clippath id="clip-path"><rect x="163.77" y="296.39" width="303.39" height="150.74" transform="translate(630.92 743.53) rotate(180)" style="fill:#263238;stroke:#263238;stroke-linecap:round;stroke-linejoin:round"></rect></clippath></defs><g id="background-simple"><path d="M468.3,312.81S490.77,194,429.55,126.53C375.52,67,290,43.85,220.23,93.07c-24.85,17.54-42.94,51.59-72,62.12-32.55,11.8-74.39,16-104.61,66.59s-19.37,115.47,20.92,150,110.81.85,174.35-1.68S435,459.48,468.3,312.81Z" style="fill:#92E3A9"></path><path d="M468.3,312.81S490.77,194,429.55,126.53C375.52,67,290,43.85,220.23,93.07c-24.85,17.54-42.94,51.59-72,62.12-32.55,11.8-74.39,16-104.61,66.59s-19.37,115.47,20.92,150,110.81.85,174.35-1.68S435,459.48,468.3,312.81Z" style="fill:#fff;opacity:0.7000000000000001"></path></g><g id="Plants"><path d="M94.07,205.49s0-5.41-7.58-13S74.05,180.6,74.05,180.6s-3.79,12.45,3.25,20a132.46,132.46,0,0,0,16.77,14.61Z" style="fill:#92E3A9"></path><path d="M83.07,239.28s0-5.41-7.57-13-12.44-11.9-12.44-11.9-3.79,12.44,3.24,20A134.18,134.18,0,0,0,83.07,249Z" style="fill:#92E3A9"></path><path d="M93.59,214.7s.57-5.38,8.9-12.11,13.64-10.52,13.64-10.52,2.45,12.78-5.35,19.57a133.52,133.52,0,0,1-18.22,12.75Z" style="fill:#92E3A9"></path><path d="M80.31,254.61s1.13-5.29,10.13-11.11,14.66-9,14.66-9,1.09,13-7.37,18.89a133.16,133.16,0,0,1-19.46,10.77Z" style="fill:#92E3A9"></path><path d="M82.81,298.11s0-5.41,7.57-13,12.45-11.9,12.45-11.9,3.78,12.44-3.25,20a132.46,132.46,0,0,1-16.77,14.61Z" style="fill:#92E3A9"></path><path d="M82.68,308.73s.77-5.35-5.65-13.93S66.4,281.25,66.4,281.25s-5.51,11.78.37,20.28A133,133,0,0,0,81.3,318.37Z" style="fill:#92E3A9"></path><path d="M75.21,340.2s0-5.41,7.58-13,12.44-11.9,12.44-11.9,3.79,12.44-3.25,20a132.46,132.46,0,0,1-16.77,14.61Z" style="fill:#92E3A9"></path><path d="M80.27,368.74s-1.37-5.24,4-14.48,9-14.67,9-14.67,6.82,11.08,1.93,20.19a132.67,132.67,0,0,1-12.52,18.38Z" style="fill:#92E3A9"></path><path d="M94.75,204.1a154.28,154.28,0,0,1-2.07,16.8c-3,15.47-10.48,25.45-13.47,39.42s5.6,32,3.29,49.92-9.28,27.93-7.29,39.91,12.48,44.41,12.48,44.41" style="fill:none;stroke:#263238;stroke-linecap:round;stroke-linejoin:round"></path><line x1="93.52" y1="218.3" x2="101.68" y2="212.04" style="fill:none;stroke:#263238;stroke-linecap:round;stroke-linejoin:round"></line><line x1="93.9" y1="211.09" x2="90.48" y2="205.01" style="fill:none;stroke:#263238;stroke-linecap:round;stroke-linejoin:round"></line><path d="M79.66,259.68s6.83-5.12,13.86-10.25" style="fill:none;stroke:#263238;stroke-linecap:round;stroke-linejoin:round"></path><path d="M83.07,249s-5.69-11.17-12.14-18.57" style="fill:none;stroke:#263238;stroke-linecap:round;stroke-linejoin:round"></path><path d="M83.08,305.81a84.43,84.43,0,0,1,14.61-19.55" style="fill:none;stroke:#263238;stroke-linecap:round;stroke-linejoin:round"></path><path d="M81.75,313.4a95.39,95.39,0,0,0-7.41-14c-4-5.89-4.55-6.65-4.55-6.65" style="fill:none;stroke:#263238;stroke-linecap:round;stroke-linejoin:round"></path><path d="M75.21,350.15a91,91,0,0,1,6.16-12.45,79.47,79.47,0,0,1,8-10.44" style="fill:none;stroke:#263238;stroke-linecap:round;stroke-linejoin:round"></path><path d="M82.74,378.16s-.8-6.48,2-12,6.08-12.71,7.41-15.56" style="fill:none;stroke:#263238;stroke-linecap:round;stroke-linejoin:round"></path><path d="M44.47,277.77s-.59-3.4,3.34-9S54.32,260,54.32,260s3.72,7.39.14,12.9a84.34,84.34,0,0,1-8.93,11Z" style="fill:#92E3A9"></path><path d="M55,297.76s-.59-3.39,3.34-9S64.88,280,64.88,280s3.73,7.39.14,12.91a85.13,85.13,0,0,1-8.93,11Z" style="fill:#92E3A9"></path><path d="M45.77,283.49s-1-3.31-6.9-6.62-9.69-5.12-9.69-5.12S29,280,34.65,283.43a84,84,0,0,0,12.81,6Z" style="fill:#92E3A9"></path><path d="M58.43,307.07s-1.29-3.19-7.56-5.86-10.17-4.07-10.17-4.07.72,8.24,6.67,11a84.76,84.76,0,0,0,13.37,4.64Z" style="fill:#92E3A9"></path><path d="M61.58,334.63s-.58-3.4-6.16-7.32-9.09-6.12-9.09-6.12-1,8.22,4.21,12.2a84.21,84.21,0,0,0,12.1,7.34Z" style="fill:#92E3A9"></path><path d="M62.82,341.27s-1.07-3.27,2-9.35S70,322.27,70,322.27s4.74,6.79,2,12.76a84.75,84.75,0,0,1-7.28,12.14Z" style="fill:#92E3A9"></path><path d="M72.32,368.64s.4-3.42,5.73-7.66,8.73-6.62,8.73-6.62,1.5,8.14-3.5,12.42a84.93,84.93,0,0,1-11.66,8Z" style="fill:#92E3A9"></path><path d="M70.92,360.2s-.59-3.4-6.16-7.32-9.1-6.12-9.1-6.12-1,8.22,4.21,12.2A84.21,84.21,0,0,0,72,366.3Z" style="fill:#92E3A9"></path><path d="M70.84,378.64s.29-3.43-4.1-8.64-7.25-8.22-7.25-8.22-3.07,7.69,1,12.87a84.33,84.33,0,0,0,9.85,10.16Z" style="fill:#92E3A9"></path><path d="M43.89,277A96.11,96.11,0,0,0,47,287.28c3.56,9.38,9.34,14.82,12.73,23.26s0,20.66,3.35,31.66S72,358.7,72,366.43s-3,29.21-3,29.21" style="fill:none;stroke:#263238;stroke-linecap:round;stroke-linejoin:round"></path><line x1="46.2" y1="285.74" x2="40.41" y2="282.7" style="fill:none;stroke:#263238;stroke-linecap:round;stroke-linejoin:round"></line><line x1="45.18" y1="281.26" x2="46.67" y2="277.08" style="fill:none;stroke:#263238;stroke-linecap:round;stroke-linejoin:round"></line><path d="M59.39,310.19s-4.85-2.48-9.81-4.93" style="fill:none;stroke:#263238;stroke-linecap:round;stroke-linejoin:round"></path><path d="M56.09,303.87a68.68,68.68,0,0,1,5.6-13" style="fill:none;stroke:#263238;stroke-linecap:round;stroke-linejoin:round"></path><path d="M62.25,339.48A53.83,53.83,0,0,0,51,328.81" style="fill:none;stroke:#263238;stroke-linecap:round;stroke-linejoin:round"></path><path d="M63.91,344.1A59.83,59.83,0,0,1,67,334.49c1.86-4.13,2.13-4.66,2.13-4.66" style="fill:none;stroke:#263238;stroke-linecap:round;stroke-linejoin:round"></path><path d="M71.73,372.29s3.84-4.71,6.24-6.47a33.29,33.29,0,0,0,4-3.52" style="fill:none;stroke:#263238;stroke-linecap:round;stroke-linejoin:round"></path><path d="M72,366.43a58.44,58.44,0,0,0-5.21-7.14,50.79,50.79,0,0,0-6.13-5.68" style="fill:none;stroke:#263238;stroke-linecap:round;stroke-linejoin:round"></path><path d="M70.32,384.81a14.7,14.7,0,0,0-2.59-7.29c-2.38-3.14-5.19-7.31-6.33-9" style="fill:none;stroke:#263238;stroke-linecap:round;stroke-linejoin:round"></path><path d="M92.6,447.14H61a2.5,2.5,0,0,1-2.49-2.49l-7.84-52.36h52.28l-7.84,52.36A2.5,2.5,0,0,1,92.6,447.14Z" style="fill:#263238;stroke:#263238;stroke-linecap:round;stroke-linejoin:round"></path></g><g id="Desk"><path d="M279.44,182.92l35.86.29s2.37-.29,3,1.49c0,0,6.23,15.7,6.52,21.33s-1.18,4.74,1.19,12.15,9.18,24.89,13,39.12c5.17,19.11,6.52,39.4,6.85,59.13.05,3.17,1.95,30.41-3,30.41-4.09,0-41.82,5-42.27-2.27-1.81-29,3.42-57.31-6.65-85.5-3.91-10.95-8.39-22.51-11.71-34s-3.9-23.36-6.06-35.08C274.7,182,279.44,182.92,279.44,182.92Z" style="fill:#263238;stroke:#263238;stroke-linecap:round;stroke-linejoin:round"></path><path d="M275.93,186.47c.36-4.14,3.51-3.55,3.51-3.55l35.86.29s2.37-.29,3,1.49c0,0,6.23,15.7,6.52,21.33a25.5,25.5,0,0,1-.13,4.46l-.76,1.17s-1.18,10.37-15.41,11-22.22-5.92-25.18-12.14-4.15-16.3-6.52-22.23A18,18,0,0,0,275.93,186.47Z" style="fill:#d1d1d1;stroke:#263238;stroke-linecap:round;stroke-linejoin:round"></path><path d="M284.25,198c2.4,8.66,1,11.06,3.36,26s11.06,31.74,14.43,47.13,1.92,69.74,1.44,72.14a22.48,22.48,0,0,0-.21,3.86c-1.61-.6-2.59-1.43-2.66-2.57-1.81-29,3.42-57.31-6.65-85.5-3.91-10.95-8.39-22.51-11.71-34s-3.9-23.36-6.06-35.08c-.92-4.92.52-6.47,1.77-6.94l0,0A64.47,64.47,0,0,1,284.25,198Z" style="fill:#d1d1d1;stroke:#263238;stroke-linecap:round;stroke-linejoin:round"></path><path d="M353.5,416.86l.24-.19V383.2h-4.81V362h17.79V383.2h-4.81v34l42.57,13.57v3.36a3.85,3.85,0,1,1-7.7,0v-.48l-35.59-4.13v5.1a3.37,3.37,0,0,1-6.73,0v-5.27l-37,4.3v.48a3.85,3.85,0,0,1-7.7,0v-3.36Z" style="fill:#263238;stroke:#263238;stroke-linecap:round;stroke-linejoin:round"></path><rect x="297.88" y="341.39" width="115.44" height="24.54" rx="4" transform="translate(711.21 707.33) rotate(180)" style="fill:#263238;stroke:#263238;stroke-linecap:round;stroke-linejoin:round"></rect><rect x="388.77" y="242.8" width="42.51" height="49.1" style="fill:#fff;stroke:#263238;stroke-linecap:round;stroke-linejoin:round"></rect><polygon points="385.47 294.1 433.48 294.1 433.48 249.76 410.76 249.76 385.47 294.1" style="fill:#d1d1d1;stroke:#263238;stroke-linecap:round;stroke-linejoin:round"></polygon><path d="M443.77,296.57H416.31a2,2,0,0,1,0-4h27.46a4.7,4.7,0,0,0,4.53-6l-9.75-34.91a2,2,0,0,1,1.38-2.45,2,2,0,0,1,2.45,1.38l9.74,34.91a8.67,8.67,0,0,1-8.35,11Z" style="fill:#d1d1d1;stroke:#263238;stroke-linecap:round;stroke-linejoin:round"></path><rect x="429.31" y="205.15" width="6.26" height="80.96" transform="translate(32.3 -49.71) rotate(6.83)" style="fill:#fff;stroke:#263238;stroke-linecap:round;stroke-linejoin:round"></rect><path d="M440.37,205.81s11,39.42-9.64,80.39Z" style="fill:#d1d1d1;stroke:#263238;stroke-linecap:round;stroke-linejoin:round"></path><rect x="163.77" y="296.39" width="303.39" height="150.74" transform="translate(630.92 743.53) rotate(180)" style="fill:#263238"></rect><g style="clip-path:url(#clip-path)"><rect x="163.77" y="296.39" width="303.39" height="150.74" transform="translate(630.92 743.53) rotate(180)" style="fill:#fff;stroke:#263238;stroke-linecap:round;stroke-linejoin:round"></rect></g><rect x="163.77" y="296.39" width="303.39" height="150.74" transform="translate(630.92 743.53) rotate(180)" style="fill:none;stroke:#263238;stroke-linecap:round;stroke-linejoin:round"></rect><rect x="163.96" y="299.79" width="303.08" height="3.92" transform="translate(631 603.5) rotate(180)" style="fill:#263238"></rect><rect x="161.94" y="294.07" width="310.7" height="6.19" transform="translate(634.58 594.33) rotate(180)" style="fill:#fff;stroke:#263238;stroke-linecap:round;stroke-linejoin:round"></rect></g><g id="Papers"><path d="M167,233.45a94.93,94.93,0,0,1-8.61,19.14c-5.75,9.57-16.27,22-16.27,22l-38.27-16.26a164.4,164.4,0,0,0,18.18-23c9.57-14.36,11.81-17.32,11.81-17.32S158,230.29,167,233.45Z" style="fill:#fff;stroke:#263238;stroke-linecap:round;stroke-miterlimit:10"></path><path d="M177.44,330.62a94.74,94.74,0,0,1-20,6.25c-11,2.05-27.25,2.43-27.25,2.43l-13.23-39.43a164.37,164.37,0,0,0,29.24-1.63c17.09-2.36,20.79-2.65,20.79-2.65S173.87,321.83,177.44,330.62Z" style="fill:#fff;stroke:#263238;stroke-linecap:round;stroke-miterlimit:10"></path><path d="M374.54,346.88a94.74,94.74,0,0,1-20,6.25c-11,2.06-27.25,2.44-27.25,2.44L314,316.14a163.9,163.9,0,0,0,29.24-1.64c17.09-2.36,20.79-2.65,20.79-2.65S371,338.1,374.54,346.88Z" style="fill:#fff;stroke:#263238;stroke-linecap:round;stroke-miterlimit:10"></path><path d="M371.07,256.53a94.61,94.61,0,0,1-18.39-10.11c-9.08-6.48-20.64-18-20.64-18L351.3,191.6a164.46,164.46,0,0,0,21.44,20c13.54,10.68,16.32,13.16,16.32,13.16S374.93,247.87,371.07,256.53Z" style="fill:#fff;stroke:#263238;stroke-linecap:round;stroke-miterlimit:10"></path><path d="M297.85,251.51l24.45,21.73s6.34-19.47,17.2-25.35a153.56,153.56,0,0,1,21.73-9.51l-33.5-20.82S293.78,230.69,297.85,251.51Z" style="fill:#fff;stroke:#263238;stroke-linecap:round;stroke-miterlimit:10"></path><path d="M124.67,195.06l24.45,21.73s6.34-19.47,17.2-25.35a153.56,153.56,0,0,1,21.73-9.51l-33.5-20.82S120.6,174.23,124.67,195.06Z" style="fill:#fff;stroke:#263238;stroke-linecap:round;stroke-miterlimit:10"></path></g><g id="Clock"><circle cx="107.38" cy="93.47" r="38.93" style="fill:#fff;stroke:#263238;stroke-linecap:round;stroke-linejoin:round"></circle><circle cx="107.38" cy="93.47" r="35.51" transform="translate(-9.04 175.41) rotate(-76.18)" style="fill:#fff;stroke:#263238;stroke-linecap:round;stroke-linejoin:round"></circle><polyline points="112.86 105.74 107.38 93.47 107.38 64.93" style="fill:#fff;stroke:#263238;stroke-linecap:round;stroke-linejoin:round"></polyline><path d="M109.54,93.47a2.16,2.16,0,1,1-2.16-2.16A2.16,2.16,0,0,1,109.54,93.47Z" style="fill:#263238;stroke:#263238;stroke-linecap:round;stroke-linejoin:round"></path></g><g id="Character"><ellipse cx="249.72" cy="461.97" rx="113.38" ry="13.87" style="fill:#92E3A9"></ellipse><ellipse cx="249.72" cy="461.97" rx="113.38" ry="13.87" style="fill:#fff;opacity:0.5"></ellipse><path d="M183,442.56l-3.58,4.52s-10.75,4.2-12.77,6.07-6.08,9.81-6.08,9.81l1.72,2.34s7.16.46,11.52.31,9.81-1.87,11.06-2.65,5.29-6.54,6.07-7.47,2.49-.47,4.67-1.56,1.87-9.66,1.87-9.66Z" style="fill:#263238;stroke:#263238;stroke-linecap:round;stroke-miterlimit:10"></path><path d="M190.18,443.49s0,.29.14.7c.24,1.06.75,3,1.42,3.2.93.31,5.76-3.12,5.76-3.12" style="fill:#fff;stroke:#263238;stroke-linecap:round;stroke-miterlimit:10"></path><path d="M319.62,442.56l3.59,4.52s10.74,4.2,12.77,6.07,6.07,9.81,6.07,9.81l-1.71,2.34s-7.17.46-11.53.31S319,463.74,317.76,463s-5.3-6.54-6.08-7.47-2.49-.47-4.67-1.56-1.87-9.66-1.87-9.66Z" style="fill:#263238;stroke:#263238;stroke-linecap:round;stroke-miterlimit:10"></path><path d="M312.46,443.49s0,.29-.14.7c-.23,1.06-.75,3-1.42,3.2-.93.31-5.76-3.12-5.76-3.12" style="fill:#fff;stroke:#263238;stroke-linecap:round;stroke-miterlimit:10"></path><polygon points="320.29 444.1 287.41 301.89 280.92 264.84 251.32 265.23 221.72 264.84 215.24 301.89 182.35 444.1 197.63 445.49 251.32 315.9 305.01 445.49 320.29 444.1" style="fill:#263238;stroke:#263238;stroke-linecap:round;stroke-miterlimit:10"></polygon><line x1="243.16" y1="302.65" x2="244.74" y2="305.05" style="fill:none;stroke:#858585;stroke-linecap:round;stroke-miterlimit:10"></line><line x1="191.31" y1="432.08" x2="189.6" y2="437.57" style="fill:none;stroke:#858585;stroke-linecap:round;stroke-miterlimit:10"></line><line x1="229.15" y1="310.63" x2="193.7" y2="424.41" style="fill:none;stroke:#858585;stroke-linecap:round;stroke-miterlimit:10"></line><line x1="312.41" y1="431.13" x2="313.35" y2="434.38" style="fill:none;stroke:#858585;stroke-linecap:round;stroke-miterlimit:10"></line><line x1="290.21" y1="353.81" x2="311.4" y2="427.59" style="fill:none;stroke:#858585;stroke-linecap:round;stroke-miterlimit:10"></line><line x1="276.35" y1="305.53" x2="289.26" y2="350.51" style="fill:none;stroke:#858585;stroke-linecap:round;stroke-miterlimit:10"></line><line x1="229.41" y1="281.87" x2="240.49" y2="298.61" style="fill:none;stroke:#858585;stroke-linecap:round;stroke-miterlimit:10"></line><path d="M266.88,290.8a9.07,9.07,0,0,0-1.1,2.12" style="fill:none;stroke:#858585;stroke-linecap:round;stroke-miterlimit:10"></path><path d="M276.12,276.88s-4.14,6-7.18,10.67" style="fill:none;stroke:#858585;stroke-linecap:round;stroke-miterlimit:10"></path><rect x="163.09" y="58.56" width="4.45" height="10.04" rx="2.11" transform="translate(-11.78 66.51) rotate(-21.98)" style="fill:#fff;stroke:#263238;stroke-linecap:round;stroke-miterlimit:10"></rect><rect x="159.07" y="61.29" width="4.45" height="10.04" rx="2.11" transform="translate(-13.1 65.2) rotate(-21.98)" style="fill:#fff;stroke:#263238;stroke-linecap:round;stroke-miterlimit:10"></rect><rect x="155.43" y="64.51" width="4.45" height="10.04" rx="2.11" transform="translate(-14.57 64.07) rotate(-21.98)" style="fill:#fff;stroke:#263238;stroke-linecap:round;stroke-miterlimit:10"></rect><rect x="151.98" y="67.87" width="4.45" height="8.51" rx="2.11" transform="translate(-15.78 62.94) rotate(-21.97)" style="fill:#fff;stroke:#263238;stroke-linecap:round;stroke-miterlimit:10"></rect><path d="M335.67,64.85,327.25,84.5l-51.57,84.9L268,174.31l-16.49.62L235,174.31l-7.71-4.91L175.7,84.5l-8.42-19.65-13,11.23s6,9.82,7.36,10.53,7,2.8,7,2.8l22.45,72.27,26.66,61,3.7,28.58s-3.82,11.17-1.91,14c2.62,3.92,12.06,5.6,16.21,7a48.71,48.71,0,0,0,29.26.68c5.52-1.54,14.85-2.45,18.32-7.64,1.91-2.87-1.92-14-1.92-14l3.7-28.58,26.67-61,22.45-72.27s5.61-2.1,7-2.8,7.37-10.53,7.37-10.53Z" style="fill:#fff;stroke:#263238;stroke-linecap:round;stroke-miterlimit:10"></path><rect x="335.41" y="58.56" width="4.45" height="10.04" rx="2.11" transform="translate(626.95 248.89) rotate(-158.03)" style="fill:#fff;stroke:#263238;stroke-linecap:round;stroke-miterlimit:10"></rect><rect x="339.43" y="61.29" width="4.45" height="10.04" rx="2.11" transform="translate(633.67 255.65) rotate(-158.03)" style="fill:#fff;stroke:#263238;stroke-linecap:round;stroke-miterlimit:10"></rect><rect x="343.07" y="64.51" width="4.45" height="10.04" rx="2.11" transform="translate(639.49 263.22) rotate(-158.03)" style="fill:#fff;stroke:#263238;stroke-linecap:round;stroke-miterlimit:10"></rect><rect x="346.52" y="67.87" width="4.45" height="8.51" rx="2.11" transform="translate(645.16 269.5) rotate(-158.03)" style="fill:#fff;stroke:#263238;stroke-linecap:round;stroke-miterlimit:10"></rect><path d="M311.82,161.68,325,119.22l-15.1-6.16L275.68,169.4,268,174.31l-16.49.62L235,174.31l-7.71-4.91-29.46-48.49-16.54,9,9.86,31.74,26.66,61,3.7,28.58s-3.82,11.17-1.91,14c2.2,3.29,9.68,4.75,13.14,5.93,10.84,3.72,19.86,5.6,31,2.13,4.92-1.54,16.57-3.45,19.65-8.06,1.91-2.87-1.92-14-1.92-14l3.7-28.58Z" style="fill:#fff;stroke:#263238;stroke-linecap:round;stroke-miterlimit:10"></path><line x1="224.25" y1="188.95" x2="223.79" y2="192.13" style="fill:none;stroke:#263238;stroke-linecap:round;stroke-miterlimit:10"></line><line x1="226.63" y1="172.63" x2="224.72" y2="185.71" style="fill:none;stroke:#263238;stroke-linecap:round;stroke-miterlimit:10"></line><line x1="286.88" y1="198.26" x2="287.17" y2="194.16" style="fill:none;stroke:#263238;stroke-linecap:round;stroke-miterlimit:10"></line><line x1="285.15" y1="222.73" x2="286.57" y2="202.62" style="fill:none;stroke:#263238;stroke-linecap:round;stroke-miterlimit:10"></line><line x1="217.79" y1="222.73" x2="217.69" y2="201.88" style="fill:none;stroke:#263238;stroke-linecap:round;stroke-miterlimit:10"></line><path d="M231.12,175.36s-2.86,20.83-.83,33.43" style="fill:none;stroke:#263238;stroke-linecap:round;stroke-miterlimit:10"></path><path d="M267.66,177.1a131.41,131.41,0,0,1,3.25,23.16" style="fill:none;stroke:#263238;stroke-linecap:round;stroke-miterlimit:10"></path><path d="M301.3,161.67a32,32,0,0,0,.49,3.65" style="fill:none;stroke:#263238;stroke-linecap:round;stroke-miterlimit:10"></path><path d="M304.63,125.5s-3.33,17.7-3.48,30.88" style="fill:none;stroke:#263238;stroke-linecap:round;stroke-miterlimit:10"></path><path d="M300.17,134.85s-2,15-2,21.53" style="fill:none;stroke:#263238;stroke-linecap:round;stroke-miterlimit:10"></path><path d="M205.51,135.66s2,22.35,3.65,34.94" style="fill:none;stroke:#263238;stroke-linecap:round;stroke-miterlimit:10"></path><path d="M212.12,179.13c0,1.78,0,3.55-.11,5.28" style="fill:none;stroke:#263238;stroke-linecap:round;stroke-miterlimit:10"></path><path d="M209.16,148.26a206.69,206.69,0,0,1,2.91,27.64" style="fill:none;stroke:#263238;stroke-linecap:round;stroke-miterlimit:10"></path><path d="M196.62,118.15,180,127.22a2.1,2.1,0,0,0-1,2.37l2.06,7.79a2.1,2.1,0,0,0,3,1.31l18.3-9.72a2.08,2.08,0,0,0,.87-2.8L199.48,119A2.1,2.1,0,0,0,196.62,118.15Z" style="fill:#fff;stroke:#263238;stroke-linecap:round;stroke-miterlimit:10"></path><path d="M310.06,108.36l17.59,7.13a2.1,2.1,0,0,1,1.28,2.25l-1.17,8a2.09,2.09,0,0,1-2.84,1.64l-19.27-7.6a2.09,2.09,0,0,1-1.19-2.69l2.86-7.51A2.09,2.09,0,0,1,310.06,108.36Z" style="fill:#fff;stroke:#263238;stroke-linecap:round;stroke-miterlimit:10"></path><path d="M174.29,82.75l-3.17-15.86a1.85,1.85,0,0,0-2-1.46c-2.39.31-6.64.83-8.12.83-2.1,0-2.81,4.21-1.05,4.21a21.54,21.54,0,0,1,4.91,1s-2.46,8.77,3.16,11.93" style="fill:#fff;stroke:#263238;stroke-linecap:round;stroke-miterlimit:10"></path><path d="M328.66,82.75l3.17-15.86a1.84,1.84,0,0,1,2-1.46c2.4.31,6.65.83,8.13.83,2.1,0,2.8,4.21,1.05,4.21a21.4,21.4,0,0,0-4.91,1s2.45,8.77-3.16,11.93" style="fill:#fff;stroke:#263238;stroke-linecap:round;stroke-miterlimit:10"></path><polygon points="243.18 190.4 248.6 202.2 243.18 262.16 252.11 272.36 259.77 260.24 252.43 202.84 259.13 188.8 251.16 182.74 243.18 190.4" style="fill:#263238;stroke:#263238;stroke-linecap:round;stroke-miterlimit:10"></polygon><path d="M237.61,170.44s-3.13-.68-4.47,1.34a25.39,25.39,0,0,0-2,3.58l5.82,27.74L250.81,191l13.65,14.1s2.69-13.88,2.69-23.94S260,168.65,258.2,168,237.61,170.44,237.61,170.44Z" style="fill:#fff;stroke:#263238;stroke-linecap:round;stroke-miterlimit:10"></path><path d="M234.48,164l2,13.42s6.49,13.2,11.86,13.87,9.62-3.35,11.86-9.39l2.24-6L264,163.5Z" style="fill:#fff;stroke:#263238;stroke-linecap:round;stroke-miterlimit:10"></path><path d="M264,165.7s-11.53,11.53-15.19,13.1-13.89-12.57-13.89-12.57Z" style="fill:#263238"></path><path d="M231.17,153a17.61,17.61,0,0,1-6-12.81c-.21-8.32,1.71-15.15,2.57-14.08a8.57,8.57,0,0,1,1.28,2.77s.42-11.31,5.12-14.51,4.05,4.48,4.05,4.48,12.38-11.1,20.92-9.61,3.2,4.27,3.2,4.27,12.38,4.7,14.52,9.61-8.75,8.75-8.75,8.75,6,1.49,5.12,3S269.8,137,269.8,137s-.42,11.31-1.7,12.38-1.93,2.78-3.63-.64S260,137.17,253.8,136.11s-17.08-1.5-18.57,2.35,1.06,13-.86,14.94A1.88,1.88,0,0,1,231.17,153Z" style="fill:#263238;stroke:#263238;stroke-linecap:round;stroke-miterlimit:10"></path><path d="M253.21,126.66s-8.93-1.58-14.18,1.57-7.62,9.46-7.62,11.83V150.3s-5.78-4.2-6.84-.26.27,9.72,2.37,10.25a4.91,4.91,0,0,0,3.94-1s1.05,6.3,5.78,8.41,11.2,5.27,13.83,5,13-6.85,14-7.91,2.11-6.83,2.11-6.83,2.28,2.2,3.48,1.45c3.34-2.09,3.87-6.18,3.87-9.33s-6.3-1.84-6.3-1.84-2.63-15-5-18.39S253.21,126.66,253.21,126.66Z" style="fill:#fff;stroke:#263238;stroke-linecap:round;stroke-miterlimit:10"></path><path d="M248,130.6s2.63-5.52,5.25-3.94,1.06,7.88,1.06,7.88" style="fill:none;stroke:#263238;stroke-linecap:round;stroke-miterlimit:10"></path><path d="M240.08,139.53s5,3.15,8.93,3.15,8.67-2.62,8.67-2.62" style="fill:none;stroke:#263238;stroke-linecap:round;stroke-miterlimit:10"></path><path d="M241.81,139.17s-2.37-.7-3.21,1.25" style="fill:none;stroke:#263238;stroke-linecap:round;stroke-miterlimit:10"></path><path d="M256,139.31a4.27,4.27,0,0,1,2.65,1.81" style="fill:none;stroke:#263238;stroke-linecap:round;stroke-miterlimit:10"></path><path d="M242.37,141.26s2.36,12,7.24,12.4,5.71-12.12,5.71-12.12a34.51,34.51,0,0,1-6.31,1.14c-1.91,0-6.78-2-6.78-2Z" style="fill:#263238;stroke:#263238;stroke-linecap:round;stroke-miterlimit:10"></path><path d="M242.23,140.7l.14.56s.16.81.48,2a16.13,16.13,0,0,0,12.26.28c.16-1.19.21-2,.21-2a34.51,34.51,0,0,1-6.31,1.14C247.1,142.65,242.23,140.7,242.23,140.7Z" style="fill:#fff;stroke:#263238;stroke-linecap:round;stroke-miterlimit:10"></path><path d="M253.07,151.08a21.19,21.19,0,0,1-7.19-.32c1,1.59,2.26,2.77,3.73,2.9S252.24,152.68,253.07,151.08Z" style="fill:#fff;stroke:#263238;stroke-linecap:round;stroke-miterlimit:10"></path><path d="M238.19,133.32s2.36-2.93,5.57-2.23" style="fill:none;stroke:#263238;stroke-linecap:round;stroke-miterlimit:10"></path><path d="M255.32,131.23a6.88,6.88,0,0,1,5.44,1.25" style="fill:none;stroke:#263238;stroke-linecap:round;stroke-miterlimit:10"></path><path d="M243.2,127.88s-4.18.28-5.85,3.07" style="fill:none;stroke:#263238;stroke-linecap:round;stroke-miterlimit:10;stroke-width:2px"></path><path d="M256.3,127.74s4,.14,6,3.35" style="fill:none;stroke:#263238;stroke-linecap:round;stroke-miterlimit:10;stroke-width:2px"></path></g><g id="speech-bubble"><path d="M297.51,36.69h-85a10.72,10.72,0,0,0-10.73,10.73V73.47a10.72,10.72,0,0,0,10.73,10.72h32.08l10.33,16.46,8.16-16.46h34.46a10.72,10.72,0,0,0,10.73-10.72v-26A10.72,10.72,0,0,0,297.51,36.69Z" style="fill:none;stroke:#263238;stroke-linecap:round;stroke-miterlimit:10"></path><path d="M218.41,51.06V67.72h-1.86V51.06Z" style="fill:#263238"></path><path d="M222.72,67.72v-15h-3.07V51.06h8v1.69h-3.07v15Z" style="fill:#263238"></path><path d="M229.86,55.46h-.76l.59-2.09H229V51.06h1.79v2.12Z" style="fill:#263238"></path><path d="M239.78,55.06v.45H238V55c0-1.5-.57-2.38-1.9-2.38s-1.91.88-1.91,2.36c0,3.73,5.6,4.09,5.6,8.78,0,2.52-1.22,4.16-3.76,4.16s-3.74-1.64-3.74-4.16v-.95h1.74v1c0,1.5.62,2.38,1.95,2.38s1.95-.88,1.95-2.38c0-3.71-5.57-4.07-5.57-8.75,0-2.57,1.19-4.17,3.69-4.17S239.78,52.53,239.78,55.06Z" style="fill:#263238"></path><path d="M250.8,58.82V60.5H247v7.22h-1.85V51.06h6.61v1.69H247v6.07Z" style="fill:#263238"></path><path d="M256.92,51.06c2.62,0,3.71,1.33,3.71,3.81v1.35c0,1.83-.64,3-2.07,3.43,1.52.45,2.09,1.69,2.09,3.47v2.6a4.2,4.2,0,0,0,.34,2h-1.88a4.33,4.33,0,0,1-.31-2V63.07c0-1.88-.88-2.47-2.43-2.47h-1.31v7.12h-1.85V51.06Zm-.48,7.85c1.48,0,2.36-.48,2.36-2.28V55c0-1.5-.55-2.28-1.93-2.28h-1.81v6.16Z" style="fill:#263238"></path><path d="M264.44,51.06V67.72h-1.86V51.06Z" style="fill:#263238"></path><path d="M270.25,51.06c2.59,0,3.78,1.57,3.78,4.14v8.4c0,2.54-1.19,4.12-3.78,4.12h-3.91V51.06Zm0,15c1.34,0,2-.84,2-2.36V55.1c0-1.52-.64-2.35-2-2.35h-2V66Z" style="fill:#263238"></path><path d="M277.63,64.36,277,67.72h-1.71l3.19-16.66h2.69l3.19,16.66h-1.86l-.64-3.36Zm.23-1.59h3.72l-1.88-9.62Z" style="fill:#263238"></path><path d="M287.58,61.74l-3.53-10.68H286l2.6,8.18,2.61-8.18H293l-3.54,10.68v6h-1.83Z" style="fill:#263238"></path><path d="M294.29,58.89V51.06h1.85v7.83L295.91,64h-1.38Zm1.81,6.52v2.31h-1.79V65.41Z" style="fill:#263238"></path></g><g id="Calendar"><polygon points="408.45 109 406.17 151.25 377 141.26 408.45 109" style="fill:#263238;stroke:#263238;stroke-linecap:round;stroke-linejoin:round"></polygon><polygon points="407.16 109.58 398.83 152.49 390.5 148.45 404.13 108.82 407.16 109.58" style="fill:#fff;stroke:#263238;stroke-linecap:round;stroke-linejoin:round"></polygon><polygon points="407.16 109.58 392.78 152.24 350.37 135.32 369.81 99.73 407.16 109.58" style="fill:#fff;stroke:#263238;stroke-linecap:round;stroke-linejoin:round"></polygon><polygon points="367.92 96.01 346.57 136.53 385.47 152.45 408.45 109 367.92 96.01" style="fill:#fff;stroke:#263238;stroke-linecap:round;stroke-linejoin:round"></polygon><polygon points="359.32 112.33 398.97 126.93 408.45 109 367.92 96.01 359.32 112.33" style="fill:#92E3A9"></polygon><polygon points="367.92 96.01 346.57 136.53 385.47 152.45 408.45 109 367.92 96.01" style="fill:none;stroke:#263238;stroke-linecap:round;stroke-linejoin:round"></polygon><path d="M372.34,109.86l-.54.91-1.89-.66L367.63,114l-.92-.32,5.28-9,3.26,1.15-.53.91-2.35-.82-1.92,3.28Z" style="fill:#263238"></path><path d="M377.82,106.73c1.29.45,1.41,1.36.63,2.7l-.43.73a2.45,2.45,0,0,1-2.11,1.49c.61.51.5,1.28-.07,2.24l-.82,1.4a3,3,0,0,0-.47,1.14l-.93-.33a3.18,3.18,0,0,1,.49-1.14l.83-1.41c.6-1,.35-1.49-.41-1.76l-.65-.23-2.26,3.84-.91-.32,5.27-9Zm-2.72,4.16c.72.25,1.31.15,1.88-.83l.51-.86c.47-.81.45-1.33-.23-1.57l-.9-.31-1.95,3.33Z" style="fill:#263238"></path><path d="M381.53,108l-5.27,9-.92-.32,5.28-9Z" style="fill:#263238"></path><path d="M384.4,109c1.28.44,1.37,1.5.56,2.89l-2.66,4.53c-.81,1.38-1.89,2-3.17,1.57l-1.93-.67,5.27-9Zm-4.75,8.08c.66.23,1.24-.11,1.72-.93l2.72-4.63c.48-.82.42-1.39-.25-1.62l-1-.35-4.21,7.18Z" style="fill:#263238"></path><path d="M383.83,117.5l-1.38,1.7-.84-.3,6.85-8.44,1.33.46-3.7,9.55-.92-.32.75-1.92Zm.63-.82,1.83.64,2.12-5.52Z" style="fill:#263238"></path><path d="M390.15,118l1.65-6.38.95.33-1.31,4.87,3.89-4,.87.31-5.14,5.16-1.89,3.22-.91-.31Z" style="fill:#263238"></path><polygon points="362.95 115.14 393.12 125.91 382.52 145.4 353.62 133.57 362.95 115.14" style="fill:none;stroke:#263238;stroke-linecap:round;stroke-linejoin:round"></polygon><line x1="367.05" y1="116.96" x2="357.49" y2="134.93" style="fill:none;stroke:#263238;stroke-linecap:round;stroke-linejoin:round"></line><line x1="372.05" y1="118.55" x2="362.5" y2="136.53" style="fill:none;stroke:#263238;stroke-linecap:round;stroke-linejoin:round"></line><line x1="377.06" y1="120.15" x2="367.08" y2="138.59" style="fill:none;stroke:#263238;stroke-linecap:round;stroke-linejoin:round"></line><line x1="382.29" y1="122.65" x2="372.73" y2="140.62" style="fill:none;stroke:#263238;stroke-linecap:round;stroke-linejoin:round"></line><line x1="387.98" y1="124.7" x2="377.96" y2="143.32" style="fill:none;stroke:#263238;stroke-linecap:round;stroke-linejoin:round"></line><line x1="361.13" y1="119.46" x2="390.25" y2="130.61" style="fill:none;stroke:#263238;stroke-linecap:round;stroke-linejoin:round"></line><line x1="358.86" y1="124.47" x2="387.1" y2="136.08" style="fill:none;stroke:#263238;stroke-linecap:round;stroke-linejoin:round"></line><line x1="355.9" y1="129.25" x2="384.56" y2="141.53" style="fill:none;stroke:#263238;stroke-linecap:round;stroke-linejoin:round"></line><path d="M371.86,100.76a3.25,3.25,0,1,1,5-2.76,2.74,2.74,0,0,1,0,.5" style="fill:none;stroke:#263238;stroke-linecap:round;stroke-linejoin:round"></path><path d="M378.16,102.86a3.25,3.25,0,1,1,5-2.76,2.74,2.74,0,0,1,0,.5" style="fill:none;stroke:#263238;stroke-linecap:round;stroke-linejoin:round"></path><path d="M384.46,105a3.25,3.25,0,1,1,5-2.76,2.74,2.74,0,0,1,0,.5" style="fill:none;stroke:#263238;stroke-linecap:round;stroke-linejoin:round"></path><path d="M390.76,107.06a3.25,3.25,0,1,1,5-2.76,2.74,2.74,0,0,1,0,.5" style="fill:none;stroke:#263238;stroke-linecap:round;stroke-linejoin:round"></path><path d="M397.06,109.16a3.25,3.25,0,1,1,5-2.76,2.74,2.74,0,0,1,0,.5" style="fill:none;stroke:#263238;stroke-linecap:round;stroke-linejoin:round"></path></g><g id="Floor"><line x1="480.79" y1="447.14" x2="25.35" y2="447.14" style="fill:none;stroke:#263238;stroke-linecap:round;stroke-miterlimit:10"></line></g></svg>