<svg xmlns="http://www.w3.org/2000/svg" viewBox="0 0 500 500"><g id="background-simple"><path d="M323.83,50.06S244.49,18.89,168.61,62.88,56.28,197.38,24.83,269.82,14.63,417.43,74.41,453.1s98.47-13.38,181-13.52,105.06,12.73,172.29-33.76,76.55-160.45,20.22-246.54S323.83,50.06,323.83,50.06Z" style="fill:#92E3A9"></path><path d="M323.83,50.06S244.49,18.89,168.61,62.88,56.28,197.38,24.83,269.82,14.63,417.43,74.41,453.1s98.47-13.38,181-13.52,105.06,12.73,172.29-33.76,76.55-160.45,20.22-246.54S323.83,50.06,323.83,50.06Z" style="fill:#fff;opacity:0.7000000000000001"></path></g><g id="character-2"><path d="M223.3,231.44a166.25,166.25,0,0,1,9.28-14.78c5.51-7.83,22.61-14.5,28.12-16.53s9.85-2.31,29,1.74,25.22,7,27.83,10.73,4.34,18.84,6.37,24.64-2.89,3.47-2.89,3.47l-96.82-6.66S222.44,234.05,223.3,231.44Z" style="fill:#92E3A9;stroke:#263238;stroke-linecap:round;stroke-linejoin:round"></path><path d="M261.32,210.2c-.79-.39-1.54-.8-2.21-1.21" style="fill:none;stroke:#263238;stroke-linecap:round;stroke-linejoin:round"></path><path d="M272.13,214.27s-3.67-1.07-7.48-2.6" style="fill:none;stroke:#263238;stroke-linecap:round;stroke-linejoin:round"></path><path d="M258.41,473.76H438.17c-1.72-7.33-6.15-24.63-12-35.37-7.53-13.91-31.88-52.46-32.46-53.33s-7.83-22.9-14.78-30.43-42.61-40.58-44.35-43.19a20.54,20.54,0,0,0-3.48-4.06s-12.17,7.54-21.45,11.88-34.49,11.6-34.49,11.6-7.5,11.19-8.66,18.15-.91,10.25-7,25.33-10.73,49.56-6.09,69.56A222.07,222.07,0,0,1,258.41,473.76Z" style="fill:#92E3A9"></path><path d="M381.76,447.06a.48.48,0,0,0-.48-.48h-4.2l2.43-1.41a.48.48,0,0,0,.17-.66.47.47,0,0,0-.65-.17l-3.83,2.23h-1l2.43-1.41a.48.48,0,0,0,.17-.66.47.47,0,0,0-.65-.17l-3.83,2.23h-.77l4.45-4.45a.46.46,0,0,0,0-.67.48.48,0,0,0-.68,0l-4.67,4.67v-1h0l2.4-3.83a.48.48,0,0,0-.16-.66.47.47,0,0,0-.65.15l-1.59,2.54v-1.07h0l2.4-3.83a.48.48,0,0,0-.16-.66.47.47,0,0,0-.65.15l-1.59,2.54v-4.1a.48.48,0,0,0-1,0v3.75l-1.27-2.17a.48.48,0,1,0-.82.48l2.09,3.58v1l-1.27-2.17a.48.48,0,1,0-.82.48l2.09,3.58v1.28l-4.66-4.65a.47.47,0,0,0-.67.67l4.45,4.45h-.57l0,0-3.7-2.21a.48.48,0,0,0-.65.17.46.46,0,0,0,.17.65l2.38,1.42h-.86l-.11-.1-3.81-2.14a.48.48,0,0,0-.65.18.47.47,0,0,0,.19.65l2.51,1.41h-4.6a.48.48,0,0,0-.48.48.47.47,0,0,0,.48.48h4.27L361.15,449a.48.48,0,0,0-.14.66.47.47,0,0,0,.4.22.5.5,0,0,0,.26-.08l3.44-2.24h1.1L364,449a.48.48,0,0,0-.14.66.49.49,0,0,0,.4.22.5.5,0,0,0,.26-.08l3.42-2.24h1.29l-4.87,4.87a.48.48,0,0,0,.34.82.47.47,0,0,0,.33-.14l4.66-4.66v.95l-2.09,3.5a.48.48,0,0,0,.16.66.54.54,0,0,0,.25.06.48.48,0,0,0,.41-.23l1.27-2.13v.8l-2.1,3.72a.48.48,0,0,0,.18.65.53.53,0,0,0,.24.06.45.45,0,0,0,.41-.24l1.27-2.24v4.53a.48.48,0,1,0,1,0v-4.7l1.59,2.44a.48.48,0,0,0,.66.14.47.47,0,0,0,.14-.66l-2.39-3.67V451l1.59,2.43a.48.48,0,1,0,.8-.53l-2.39-3.64v-.81l4.67,4.68a.51.51,0,0,0,.34.14.49.49,0,0,0,.34-.14.48.48,0,0,0,0-.68l-4.87-4.87h1.42l3.59,2.24a.45.45,0,0,0,.65-.15.47.47,0,0,0-.15-.66l-2.29-1.43h1.07l3.59,2.24a.46.46,0,0,0,.25.08.49.49,0,0,0,.41-.23.48.48,0,0,0-.16-.66l-2.29-1.43h4A.47.47,0,0,0,381.76,447.06Z" style="fill:#fff"></path><path d="M406.2,416.72a.48.48,0,0,0-.48-.48h-4.2l2.43-1.41a.48.48,0,0,0,.17-.66.47.47,0,0,0-.65-.17l-3.83,2.23h-1l2.43-1.41a.48.48,0,0,0,.17-.66.47.47,0,0,0-.65-.17l-3.83,2.23H396l4.45-4.45a.46.46,0,0,0,0-.67.48.48,0,0,0-.68,0l-4.67,4.67v-1h0l2.39-3.83a.48.48,0,1,0-.81-.51L395.1,413v-1.07h0l2.39-3.83a.48.48,0,1,0-.81-.51l-1.59,2.54V406a.48.48,0,0,0-1,0v3.75l-1.27-2.17a.48.48,0,1,0-.82.48l2.09,3.58v1l-1.27-2.17a.48.48,0,1,0-.82.48l2.09,3.58v1.28l-4.66-4.65a.47.47,0,0,0-.67.67l4.45,4.45h-.57l0,0L389,414a.49.49,0,0,0-.66.17.47.47,0,0,0,.17.65l2.38,1.42H390s-.06-.07-.11-.1L386.08,414a.47.47,0,1,0-.46.83l2.51,1.41h-4.6a.48.48,0,0,0-.48.48.47.47,0,0,0,.48.48h4.27l-2.21,1.44a.48.48,0,0,0-.14.66.47.47,0,0,0,.4.22.5.5,0,0,0,.26-.08l3.44-2.24h1.11l-2.2,1.44a.48.48,0,0,0-.14.66.49.49,0,0,0,.4.22.5.5,0,0,0,.26-.08l3.42-2.24h1.29l-4.87,4.87a.48.48,0,0,0,.34.82.47.47,0,0,0,.33-.14l4.66-4.66v1l-2.09,3.5a.48.48,0,0,0,.16.66.54.54,0,0,0,.25.06.48.48,0,0,0,.41-.23l1.27-2.13v.8l-2.1,3.72a.48.48,0,0,0,.18.65.53.53,0,0,0,.24.06.45.45,0,0,0,.41-.24l1.27-2.24v4.53a.48.48,0,1,0,1,0v-4.7l1.59,2.44a.48.48,0,0,0,.66.14.47.47,0,0,0,.14-.66l-2.39-3.67v-1.11l1.59,2.43a.49.49,0,0,0,.67.14.48.48,0,0,0,.13-.67l-2.39-3.64v-.8l4.67,4.67a.51.51,0,0,0,.34.14.49.49,0,0,0,.34-.14.48.48,0,0,0,0-.68l-4.87-4.87H397l3.59,2.24a.46.46,0,0,0,.25.08.48.48,0,0,0,.25-.89l-2.29-1.43h1.07l3.59,2.24a.46.46,0,0,0,.25.08.48.48,0,0,0,.25-.89l-2.29-1.43h4.05A.47.47,0,0,0,406.2,416.72Z" style="fill:#fff"></path><path d="M360.58,416.72a.48.48,0,0,0-.47-.48H355.9l2.44-1.41a.5.5,0,0,0,.17-.66.49.49,0,0,0-.66-.17L354,416.23h-1l2.43-1.41A.48.48,0,1,0,355,414l-3.82,2.23h-.78l4.45-4.45a.47.47,0,0,0-.67-.67l-4.67,4.67v-1h0l2.39-3.83a.48.48,0,1,0-.81-.51L349.49,413v-1.07h0l2.39-3.83a.48.48,0,1,0-.81-.51l-1.58,2.54V406a.48.48,0,0,0-.48-.47.47.47,0,0,0-.48.47v3.75l-1.27-2.17a.48.48,0,0,0-.65-.18.49.49,0,0,0-.17.66l2.09,3.58v1l-1.27-2.17a.48.48,0,0,0-.65-.18.49.49,0,0,0-.17.66l2.09,3.58v1.28l-4.65-4.65a.48.48,0,0,0-.68,0,.46.46,0,0,0,0,.67l4.45,4.45h-.57l0,0L343.35,414a.49.49,0,0,0-.66.17.47.47,0,0,0,.17.65l2.38,1.42h-.86a.55.55,0,0,0-.11-.1l-3.8-2.14a.48.48,0,0,0-.47.83l2.51,1.41h-4.6a.49.49,0,0,0-.48.48.48.48,0,0,0,.48.48h4.27L340,418.64a.48.48,0,0,0-.14.66.49.49,0,0,0,.4.22.5.5,0,0,0,.26-.08l3.44-2.24H345l-2.2,1.44a.48.48,0,0,0-.14.66.5.5,0,0,0,.4.22.53.53,0,0,0,.27-.08l3.41-2.24h1.29l-4.87,4.87a.48.48,0,0,0,0,.68.49.49,0,0,0,.34.14.51.51,0,0,0,.34-.14l4.65-4.66v1l-2.09,3.5a.49.49,0,0,0,.17.66.5.5,0,0,0,.24.06.48.48,0,0,0,.41-.23l1.27-2.13v.8l-2.09,3.72a.48.48,0,0,0,.18.65.46.46,0,0,0,.23.06.47.47,0,0,0,.42-.24l1.26-2.24v4.53a.48.48,0,0,0,.48.48.49.49,0,0,0,.48-.48v-4.7l1.59,2.44a.48.48,0,1,0,.8-.52l-2.39-3.67v-1.11l1.59,2.43a.48.48,0,0,0,.66.14.49.49,0,0,0,.14-.67l-2.39-3.64v-.8l4.67,4.67a.48.48,0,0,0,.34.14.47.47,0,0,0,.33-.14.48.48,0,0,0,0-.68L350,417.2h1.42l3.59,2.24a.49.49,0,0,0,.25.08.48.48,0,0,0,.41-.23.48.48,0,0,0-.15-.66l-2.3-1.43h1.07l3.59,2.24a.49.49,0,0,0,.25.08.48.48,0,0,0,.41-.23.48.48,0,0,0-.15-.66l-2.3-1.43h4.06A.47.47,0,0,0,360.58,416.72Z" style="fill:#fff"></path><path d="M427.38,447.06a.49.49,0,0,0-.48-.48h-4.2l2.43-1.41a.49.49,0,0,0,.17-.66.48.48,0,0,0-.65-.17l-3.83,2.23h-1l2.43-1.41a.49.49,0,0,0,.17-.66.48.48,0,0,0-.65-.17L418,446.57h-.78l4.46-4.45a.48.48,0,0,0,0-.67.48.48,0,0,0-.68,0l-4.67,4.67v-1h0l2.39-3.83a.47.47,0,0,0-.15-.66.49.49,0,0,0-.66.15l-1.58,2.54v-1.07h0l2.39-3.83a.47.47,0,0,0-.15-.66.49.49,0,0,0-.66.15l-1.58,2.54v-4.1a.47.47,0,0,0-.48-.47.48.48,0,0,0-.48.47v3.75l-1.26-2.17a.49.49,0,0,0-.66-.18.5.5,0,0,0-.17.66l2.09,3.58v1l-1.26-2.17a.49.49,0,0,0-.66-.18.5.5,0,0,0-.17.66l2.09,3.58v1.28l-4.65-4.65a.48.48,0,0,0-.68,0,.48.48,0,0,0,0,.67l4.46,4.45h-.58l0,0-3.7-2.21a.48.48,0,0,0-.65.17.47.47,0,0,0,.16.65l2.38,1.42h-.86a.94.94,0,0,0-.1-.1l-3.81-2.14a.48.48,0,0,0-.47.83l2.51,1.41h-4.6a.48.48,0,0,0-.47.48.47.47,0,0,0,.47.48H409l-2.2,1.44a.48.48,0,0,0,.26.88.5.5,0,0,0,.26-.08l3.43-2.24h1.11l-2.2,1.44a.48.48,0,0,0,.27.88.5.5,0,0,0,.26-.08l3.41-2.24h1.3L410,452.41a.5.5,0,0,0,0,.68.51.51,0,0,0,.34.14.49.49,0,0,0,.34-.14l4.65-4.66v.95l-2.09,3.5a.49.49,0,0,0,.17.66.53.53,0,0,0,.24.06.45.45,0,0,0,.41-.23l1.27-2.13v.8l-2.09,3.72a.48.48,0,0,0,.18.65.46.46,0,0,0,.23.06.47.47,0,0,0,.42-.24l1.26-2.24v4.53a.49.49,0,0,0,.48.48.48.48,0,0,0,.48-.48v-4.7l1.59,2.44a.48.48,0,1,0,.8-.52l-2.39-3.67V451l1.59,2.43a.48.48,0,0,0,.66.14.49.49,0,0,0,.14-.67l-2.39-3.64v-.81l4.67,4.68a.49.49,0,0,0,.34.14.51.51,0,0,0,.34-.14.5.5,0,0,0,0-.68l-4.88-4.87h1.42l3.59,2.24a.5.5,0,0,0,.26.08.46.46,0,0,0,.4-.23.48.48,0,0,0-.15-.66L420,447.54H421l3.59,2.24a.5.5,0,0,0,.26.08.46.46,0,0,0,.4-.23.48.48,0,0,0-.15-.66l-2.29-1.43h4A.48.48,0,0,0,427.38,447.06Z" style="fill:#fff"></path><path d="M258.5,419.3a.5.5,0,0,0,.4.22.53.53,0,0,0,.27-.08l3.41-2.24h1.29L259,422.07a.5.5,0,0,0,0,.68.48.48,0,0,0,.68,0l4.65-4.66v1l-2.09,3.5a.49.49,0,0,0,.17.66.5.5,0,0,0,.24.06.48.48,0,0,0,.41-.23l1.27-2.13v.8l-2.09,3.72a.48.48,0,0,0,.18.65.46.46,0,0,0,.23.06.47.47,0,0,0,.42-.24l1.26-2.24v4.53a.48.48,0,0,0,.48.48.49.49,0,0,0,.48-.48v-4.7l1.59,2.44a.48.48,0,0,0,.8-.52l-2.39-3.67v-1.11l1.59,2.43a.48.48,0,0,0,.66.14.49.49,0,0,0,.14-.67l-2.39-3.64v-.8l4.67,4.67a.48.48,0,0,0,.34.14.47.47,0,0,0,.33-.14.48.48,0,0,0,0-.68l-4.87-4.87h1.42l3.59,2.24a.49.49,0,0,0,.25.08.48.48,0,0,0,.41-.23.48.48,0,0,0-.15-.66L269,417.2h1.07l3.59,2.24a.49.49,0,0,0,.25.08.48.48,0,0,0,.41-.23.48.48,0,0,0-.15-.66l-2.3-1.43h4.06a.48.48,0,0,0,.48-.48.49.49,0,0,0-.48-.48H271.7l2.44-1.41a.5.5,0,0,0,.17-.66.49.49,0,0,0-.66-.17l-3.82,2.23h-1l2.44-1.41a.5.5,0,0,0,.17-.66.49.49,0,0,0-.66-.17L267,416.23h-.78l4.45-4.45a.47.47,0,0,0-.67-.67l-4.67,4.67v-1h0l2.39-3.83a.48.48,0,0,0-.81-.51L265.29,413v-1.07h0l2.39-3.83a.48.48,0,0,0-.81-.51l-1.58,2.54V406a.48.48,0,0,0-.48-.47.47.47,0,0,0-.48.47v3.75l-1.27-2.17a.48.48,0,0,0-.65-.18.49.49,0,0,0-.17.66l2.09,3.58v1l-1.27-2.17a.48.48,0,0,0-.65-.18.49.49,0,0,0-.17.66l2.09,3.58v1.28l-4.65-4.65a.48.48,0,0,0-.68,0,.48.48,0,0,0,0,.67l4.45,4.45h-.57l0,0L259.15,414a.49.49,0,0,0-.66.17.47.47,0,0,0,.17.65l2.38,1.42h-.86a.55.55,0,0,0-.11-.1l-3.8-2.14a.48.48,0,0,0-.47.83l2.51,1.41h-4.6a.49.49,0,0,0-.48.48.48.48,0,0,0,.48.48H258l-2.21,1.44a.48.48,0,0,0-.14.66.5.5,0,0,0,.4.22.56.56,0,0,0,.27-.08l3.43-2.24h1.11l-2.2,1.44A.48.48,0,0,0,258.5,419.3Z" style="fill:#fff"></path><path d="M372.33,386.57h-.77l4.45-4.46a.46.46,0,0,0,0-.67.48.48,0,0,0-.68,0l-4.67,4.67v-1h0l2.4-3.83a.48.48,0,1,0-.81-.5l-1.59,2.53v-1.07h0l2.4-3.83a.48.48,0,0,0-.16-.66.47.47,0,0,0-.65.16l-1.59,2.53v-4.09a.48.48,0,1,0-1,0v3.74l-1.27-2.17a.48.48,0,0,0-.82.48l2.09,3.59v1l-1.27-2.17a.48.48,0,1,0-.82.48l2.09,3.59v1.27l-4.66-4.65a.47.47,0,0,0-.67.67l4.45,4.46h-.58l0,0-3.7-2.2a.46.46,0,0,0-.65.16.48.48,0,0,0,.17.66l2.38,1.42h-.86a1.14,1.14,0,0,0-.11-.11l-3.81-2.14a.48.48,0,0,0-.65.18.47.47,0,0,0,.19.65l2.51,1.42h-4.6a.48.48,0,1,0,0,.95h4.27L361.15,389a.48.48,0,0,0-.14.66.47.47,0,0,0,.4.22.5.5,0,0,0,.26-.08l3.44-2.24h1.11L364,389a.48.48,0,0,0,.26.88.5.5,0,0,0,.26-.08l3.42-2.24h1.29l-4.87,4.88a.46.46,0,0,0,0,.67.48.48,0,0,0,.34.14.47.47,0,0,0,.33-.14l4.66-4.65v.94l-2.09,3.5a.48.48,0,0,0,.16.66.45.45,0,0,0,.25.07.49.49,0,0,0,.41-.24l1.27-2.12v.8l-2.1,3.72a.48.48,0,0,0,.18.65.53.53,0,0,0,.24.06.46.46,0,0,0,.41-.25l1.27-2.24v4.53a.48.48,0,1,0,1,0v-4.7l1.59,2.44a.48.48,0,0,0,.66.14.47.47,0,0,0,.14-.66l-2.39-3.67V391l1.59,2.43a.48.48,0,0,0,.66.14.47.47,0,0,0,.14-.66l-2.39-3.65v-.8l4.67,4.67a.51.51,0,0,0,.34.14.49.49,0,0,0,.34-.14.46.46,0,0,0,0-.67l-4.87-4.88h1.42l3.59,2.25a.45.45,0,0,0,.25.07.48.48,0,0,0,.25-.88l-2.29-1.44h1.07l3.59,2.25a.45.45,0,0,0,.25.07.49.49,0,0,0,.41-.23.47.47,0,0,0-.16-.65l-2.29-1.44h4a.48.48,0,1,0,0-.95h-4.2l2.43-1.42a.47.47,0,0,0,.17-.65.48.48,0,0,0-.65-.18l-3.83,2.24h-1l2.43-1.42a.47.47,0,0,0,.17-.65.48.48,0,0,0-.65-.18Z" style="fill:#fff"></path><path d="M274.31,350.1a.48.48,0,0,0-.66-.17l-3.82,2.23h-1l2.44-1.42a.48.48,0,1,0-.49-.82L267,352.16h-.78l4.45-4.45a.48.48,0,0,0,0-.68.48.48,0,0,0-.67,0l-3.71,3.71c-.12.82-.23,1.6-.35,2.38h1.28l3.59,2.24a.47.47,0,0,0,.25.07.49.49,0,0,0,.41-.22.48.48,0,0,0-.15-.66l-2.3-1.43h1.07l3.59,2.24a.47.47,0,0,0,.25.07.49.49,0,0,0,.41-.22.48.48,0,0,0-.15-.66l-2.3-1.43h4.06a.48.48,0,0,0,0-1H271.7l2.44-1.42A.48.48,0,0,0,274.31,350.1Z" style="fill:#fff"></path><path d="M330.54,384.33l-3.82,2.24h-.78l4.45-4.46a.47.47,0,1,0-.67-.67l-4.67,4.67v-1h0l2.39-3.83a.48.48,0,1,0-.81-.5l-1.58,2.53v-1.07h0l2.39-3.83a.48.48,0,0,0-.15-.66.48.48,0,0,0-.66.16l-1.58,2.53v-4.09a.48.48,0,0,0-.48-.48.47.47,0,0,0-.48.48v3.74l-1.27-2.17a.46.46,0,0,0-.65-.17.47.47,0,0,0-.17.65l2.09,3.59v1l-1.27-2.17a.46.46,0,0,0-.65-.17.47.47,0,0,0-.17.65l2.09,3.59v1.27l-4.65-4.65a.48.48,0,0,0-.68,0,.46.46,0,0,0,0,.67l4.45,4.46h-.57l0,0-3.69-2.2a.48.48,0,0,0-.66.16.49.49,0,0,0,.17.66l2.38,1.42h-.86a.38.38,0,0,0-.11-.11l-3.8-2.14a.48.48,0,1,0-.47.83l2.51,1.42h-4.6a.48.48,0,1,0,0,.95h4.27L315.53,389a.48.48,0,0,0-.14.66.49.49,0,0,0,.4.22.5.5,0,0,0,.26-.08l3.44-2.24h1.11L318.4,389a.48.48,0,0,0-.14.66.5.5,0,0,0,.4.22.56.56,0,0,0,.27-.08l3.41-2.24h1.29l-4.87,4.88a.46.46,0,0,0,0,.67.49.49,0,0,0,.34.14.51.51,0,0,0,.34-.14l4.65-4.65v.94l-2.09,3.5a.49.49,0,0,0,.17.66.42.42,0,0,0,.24.07.49.49,0,0,0,.41-.24l1.27-2.12v.8l-2.1,3.72a.49.49,0,0,0,.19.65.46.46,0,0,0,.23.06.48.48,0,0,0,.42-.25l1.26-2.24v4.53a.47.47,0,0,0,.48.48.48.48,0,0,0,.48-.48v-4.7l1.59,2.44a.48.48,0,0,0,.8-.52l-2.39-3.67V391l1.59,2.43a.48.48,0,0,0,.66.14.47.47,0,0,0,.13-.66l-2.38-3.65v-.8l4.67,4.67a.48.48,0,0,0,.34.14.47.47,0,0,0,.33-.14.46.46,0,0,0,0-.67l-4.87-4.88h1.42l3.59,2.25A.48.48,0,0,0,331,389l-2.3-1.44h1.07l3.59,2.25a.48.48,0,0,0,.51-.81l-2.3-1.44h4.06a.48.48,0,0,0,0-.95h-4.21l2.43-1.42a.48.48,0,0,0,.18-.65.49.49,0,0,0-.66-.18l-3.82,2.24h-1l2.43-1.42a.48.48,0,0,0,.18-.65A.49.49,0,0,0,330.54,384.33Z" style="fill:#fff"></path><path d="M337.43,352.65a.49.49,0,0,0,.48.48h4.27L340,354.57a.48.48,0,0,0,.52.8l3.44-2.24H345l-2.2,1.44a.48.48,0,0,0-.14.66.49.49,0,0,0,.4.21.52.52,0,0,0,.27-.07l3.41-2.24h1.29L343.2,358a.49.49,0,0,0,.34.82.48.48,0,0,0,.34-.15l4.65-4.65v1l-2.09,3.5a.47.47,0,0,0,.17.65.42.42,0,0,0,.24.07.48.48,0,0,0,.41-.23l1.27-2.13v.8l-2.09,3.72a.48.48,0,0,0,.18.65.46.46,0,0,0,.23.06.49.49,0,0,0,.42-.24l1.26-2.24v4.53a.48.48,0,0,0,.48.48.49.49,0,0,0,.48-.48v-4.7l1.59,2.44a.47.47,0,0,0,.66.13.48.48,0,0,0,.14-.66l-2.39-3.66v-1.11l1.59,2.43a.47.47,0,0,0,.66.13.48.48,0,0,0,.14-.66l-2.39-3.64V354l4.67,4.67a.45.45,0,0,0,.34.15.44.44,0,0,0,.33-.15.46.46,0,0,0,0-.67L350,353.13h1.42l3.59,2.24a.47.47,0,0,0,.25.07.49.49,0,0,0,.41-.22.48.48,0,0,0-.15-.66l-2.3-1.43h1.07l3.59,2.24a.47.47,0,0,0,.25.07.49.49,0,0,0,.41-.22.48.48,0,0,0-.15-.66l-2.3-1.43h4.06a.48.48,0,0,0,0-1H355.9l2.44-1.42a.48.48,0,1,0-.49-.82L354,352.16h-1l2.43-1.42a.48.48,0,1,0-.48-.82l-3.82,2.23h-.78l4.45-4.45a.48.48,0,0,0,0-.68.48.48,0,0,0-.67,0l-4.67,4.67v-1h0l2.39-3.82a.48.48,0,1,0-.81-.51l-1.58,2.54v-1.07h0l2.39-3.82a.48.48,0,1,0-.81-.51L349.49,346v-4.1a.49.49,0,0,0-.48-.48.48.48,0,0,0-.48.48v3.74l-1.27-2.17a.48.48,0,0,0-.82.48l2.09,3.59v1l-1.27-2.18a.48.48,0,0,0-.82.48l2.09,3.59v1.28L343.88,347a.5.5,0,0,0-.68,0,.48.48,0,0,0,0,.68l4.45,4.45h-.57s0,0,0,0l-3.69-2.21a.49.49,0,0,0-.66.17.48.48,0,0,0,.17.65l2.38,1.42h-.86s-.06-.08-.11-.1l-3.8-2.15a.49.49,0,0,0-.65.19.48.48,0,0,0,.18.65l2.51,1.41h-4.6A.49.49,0,0,0,337.43,352.65Z" style="fill:#fff"></path><path d="M267.54,359.11a.48.48,0,0,0,.14-.66l-2.11-3.22c-.08.45-.16.9-.25,1.36l1.56,2.39A.47.47,0,0,0,267.54,359.11Z" style="fill:#fff"></path><path d="M336.14,447.06a.48.48,0,0,0-.47-.48h-4.21l2.43-1.41a.48.48,0,1,0-.48-.83l-3.82,2.23h-1l2.43-1.41a.48.48,0,1,0-.48-.83l-3.82,2.23h-.78l4.45-4.45a.47.47,0,1,0-.67-.67l-4.67,4.67v-1h0l2.39-3.83a.48.48,0,1,0-.81-.51l-1.58,2.54v-1.07h0l2.39-3.83a.48.48,0,1,0-.81-.51l-1.58,2.54v-4.1a.48.48,0,0,0-.48-.47.47.47,0,0,0-.48.47v3.75l-1.27-2.17a.48.48,0,0,0-.65-.18.49.49,0,0,0-.17.66l2.09,3.58v1l-1.27-2.17a.48.48,0,0,0-.65-.18.49.49,0,0,0-.17.66l2.09,3.58v1.28l-4.65-4.65a.48.48,0,0,0-.68,0,.46.46,0,0,0,0,.67l4.46,4.45h-.58l0,0-3.69-2.21a.49.49,0,0,0-.66.17.47.47,0,0,0,.17.65l2.38,1.42h-.86a.55.55,0,0,0-.11-.1l-3.8-2.14a.48.48,0,0,0-.47.83l2.51,1.41h-4.6a.49.49,0,0,0-.48.48.48.48,0,0,0,.48.48h4.27L315.53,449a.48.48,0,0,0-.14.66.49.49,0,0,0,.4.22.5.5,0,0,0,.26-.08l3.44-2.24h1.11L318.4,449a.48.48,0,0,0-.14.66.5.5,0,0,0,.4.22.56.56,0,0,0,.27-.08l3.41-2.24h1.29l-4.87,4.87a.48.48,0,0,0,0,.68.49.49,0,0,0,.34.14.51.51,0,0,0,.34-.14l4.65-4.66v.95l-2.09,3.5a.49.49,0,0,0,.17.66.5.5,0,0,0,.24.06.48.48,0,0,0,.41-.23l1.27-2.13v.8l-2.1,3.72a.49.49,0,0,0,.19.65.46.46,0,0,0,.23.06.47.47,0,0,0,.42-.24l1.26-2.24v4.53a.48.48,0,0,0,.48.48.49.49,0,0,0,.48-.48v-4.7l1.59,2.44a.48.48,0,0,0,.8-.52l-2.39-3.67V451l1.59,2.43a.48.48,0,1,0,.79-.53l-2.38-3.64v-.81l4.67,4.68a.48.48,0,0,0,.34.14.47.47,0,0,0,.33-.14.48.48,0,0,0,0-.68l-4.87-4.87h1.42l3.59,2.24a.49.49,0,0,0,.25.08.48.48,0,0,0,.41-.23A.48.48,0,0,0,331,449l-2.3-1.43h1.07l3.59,2.24a.49.49,0,0,0,.25.08.48.48,0,0,0,.41-.23.48.48,0,0,0-.15-.66l-2.3-1.43h4.06A.47.47,0,0,0,336.14,447.06Z" style="fill:#fff"></path><path d="M267.68,346.85a.47.47,0,0,0-.41-.73,20.1,20.1,0,0,0-.65,2.43Z" style="fill:#fff"></path><path d="M264.33,360.78v3.33a.48.48,0,0,0,.48.48.49.49,0,0,0,.48-.48V359.4l1.59,2.45a.47.47,0,0,0,.66.13.48.48,0,0,0,.14-.66l-2.39-3.67v-.9C265.05,358,264.74,359.28,264.33,360.78Z" style="fill:#fff"></path><path d="M270.3,358.82a.44.44,0,0,0,.33-.15.46.46,0,0,0,0-.67l-4.75-4.75-.18,1.17,4.26,4.25A.45.45,0,0,0,270.3,358.82Z" style="fill:#fff"></path><path d="M315,416.72a.49.49,0,0,0-.48-.48h-4.2l2.43-1.41a.49.49,0,0,0,.17-.66.48.48,0,0,0-.65-.17l-3.83,2.23h-1l2.43-1.41a.49.49,0,0,0,.17-.66.48.48,0,0,0-.65-.17l-3.83,2.23h-.78l4.46-4.45a.48.48,0,0,0,0-.67.48.48,0,0,0-.68,0l-4.67,4.67v-1h0l2.39-3.83a.47.47,0,0,0-.15-.66.48.48,0,0,0-.66.15L303.87,413v-1.07h0l2.39-3.83a.47.47,0,0,0-.15-.66.48.48,0,0,0-.66.15l-1.58,2.54V406a.47.47,0,0,0-.48-.47.48.48,0,0,0-.48.47v3.75l-1.26-2.17a.49.49,0,0,0-.66-.18.5.5,0,0,0-.17.66l2.09,3.58v1l-1.26-2.17a.49.49,0,0,0-.66-.18.5.5,0,0,0-.17.66l2.09,3.58v1.28l-4.65-4.65a.48.48,0,0,0-.68,0,.48.48,0,0,0,0,.67l4.46,4.45h-.58l0,0-3.7-2.21a.48.48,0,0,0-.65.17.47.47,0,0,0,.16.65l2.38,1.42h-.86l-.1-.1L294.85,414a.48.48,0,0,0-.47.83l2.51,1.41h-4.6a.48.48,0,0,0-.47.48.47.47,0,0,0,.47.48h4.27l-2.2,1.44a.48.48,0,0,0,.26.88.5.5,0,0,0,.26-.08l3.43-2.24h1.11l-2.2,1.44a.48.48,0,0,0,.27.88.5.5,0,0,0,.26-.08l3.42-2.24h1.29l-4.88,4.87a.5.5,0,0,0,0,.68.51.51,0,0,0,.34.14.49.49,0,0,0,.34-.14l4.65-4.66v1l-2.09,3.5a.49.49,0,0,0,.17.66.53.53,0,0,0,.24.06.45.45,0,0,0,.41-.23l1.27-2.13v.8l-2.09,3.72a.48.48,0,0,0,.18.65.46.46,0,0,0,.23.06.47.47,0,0,0,.42-.24l1.26-2.24v4.53a.49.49,0,0,0,.48.48.48.48,0,0,0,.48-.48v-4.7l1.59,2.44a.48.48,0,0,0,.8-.52l-2.39-3.67v-1.11l1.59,2.43a.48.48,0,0,0,.66.14.49.49,0,0,0,.14-.67l-2.39-3.64v-.8l4.67,4.67a.49.49,0,0,0,.34.14.51.51,0,0,0,.34-.14.5.5,0,0,0,0-.68l-4.88-4.87h1.42l3.59,2.24a.5.5,0,0,0,.26.08.46.46,0,0,0,.4-.23.48.48,0,0,0-.15-.66l-2.29-1.43h1.06l3.59,2.24a.5.5,0,0,0,.26.08.46.46,0,0,0,.4-.23.48.48,0,0,0-.15-.66l-2.29-1.43h4.05A.48.48,0,0,0,315,416.72Z" style="fill:#fff"></path><path d="M297.56,447.06a.48.48,0,0,0-.48-.48h-4.2l2.43-1.41a.48.48,0,0,0,.17-.66.47.47,0,0,0-.65-.17L291,446.57h-1l2.43-1.41a.48.48,0,0,0,.17-.66.47.47,0,0,0-.65-.17l-3.83,2.23h-.77l4.45-4.45a.47.47,0,1,0-.67-.67l-4.68,4.67v-1h0l2.39-3.83a.48.48,0,1,0-.81-.51l-1.59,2.54v-1.07h0l2.39-3.83a.48.48,0,1,0-.81-.51l-1.59,2.54v-4.1a.48.48,0,0,0-.95,0v3.75l-1.27-2.17a.48.48,0,1,0-.82.48l2.09,3.58v1l-1.27-2.17a.48.48,0,1,0-.82.48l2.09,3.58v1.28l-4.66-4.65a.47.47,0,1,0-.67.67l4.45,4.45h-.57l0,0-3.69-2.21a.49.49,0,0,0-.66.17.47.47,0,0,0,.17.65l2.38,1.42h-.86s-.06-.07-.11-.1l-3.81-2.14a.47.47,0,1,0-.46.83l2.51,1.41h-4.6a.48.48,0,0,0-.48.48.47.47,0,0,0,.48.48h4.27L277,449a.48.48,0,0,0-.14.66.47.47,0,0,0,.4.22.5.5,0,0,0,.26-.08l3.44-2.24H282l-2.2,1.44a.48.48,0,0,0-.14.66.49.49,0,0,0,.4.22.5.5,0,0,0,.26-.08l3.42-2.24h1.29l-4.87,4.87a.48.48,0,0,0,.34.82.47.47,0,0,0,.33-.14l4.66-4.66v.95l-2.09,3.5a.48.48,0,0,0,.16.66.54.54,0,0,0,.25.06.48.48,0,0,0,.41-.23l1.27-2.13v.8l-2.1,3.72a.48.48,0,0,0,.18.65.53.53,0,0,0,.24.06.45.45,0,0,0,.41-.24l1.27-2.24v4.53a.48.48,0,1,0,.95,0v-4.7l1.59,2.44a.48.48,0,0,0,.66.14.47.47,0,0,0,.14-.66l-2.39-3.67V451l1.59,2.43a.49.49,0,0,0,.67.14.48.48,0,0,0,.13-.67l-2.39-3.64v-.81l4.68,4.68a.47.47,0,0,0,.33.14.48.48,0,0,0,.34-.82l-4.87-4.87h1.42l3.59,2.24a.46.46,0,0,0,.25.08.49.49,0,0,0,.41-.23.48.48,0,0,0-.16-.66l-2.29-1.43h1.07l3.59,2.24a.46.46,0,0,0,.25.08.48.48,0,0,0,.25-.89L293,447.54h4.05A.47.47,0,0,0,297.56,447.06Z" style="fill:#fff"></path><path d="M274.41,387.05a.47.47,0,0,0,.48.48h4.27L277,389a.48.48,0,0,0-.14.66.47.47,0,0,0,.4.22.5.5,0,0,0,.26-.08l3.44-2.24H282l-2.2,1.44a.48.48,0,0,0,.26.88.5.5,0,0,0,.26-.08l3.42-2.24h1.29l-4.87,4.88a.46.46,0,0,0,0,.67.48.48,0,0,0,.34.14.47.47,0,0,0,.33-.14l4.66-4.65v.94l-2.09,3.5a.48.48,0,0,0,.16.66.45.45,0,0,0,.25.07.49.49,0,0,0,.41-.24l1.27-2.12v.8l-2.1,3.72a.48.48,0,0,0,.18.65.53.53,0,0,0,.24.06.46.46,0,0,0,.41-.25l1.27-2.24v4.53a.48.48,0,1,0,.95,0v-4.7l1.59,2.44a.48.48,0,0,0,.66.14.47.47,0,0,0,.14-.66l-2.39-3.67V391l1.59,2.43a.49.49,0,0,0,.67.14.47.47,0,0,0,.13-.66l-2.39-3.65v-.8l4.68,4.67a.47.47,0,0,0,.33.14.48.48,0,0,0,.34-.14.46.46,0,0,0,0-.67l-4.87-4.88h1.42l3.59,2.25a.45.45,0,0,0,.25.07.49.49,0,0,0,.41-.23.47.47,0,0,0-.16-.65l-2.29-1.44h1.07l3.59,2.25a.45.45,0,0,0,.25.07.48.48,0,0,0,.41-.23.47.47,0,0,0-.16-.65L293,387.53h4.05a.48.48,0,1,0,0-.95h-4.2l2.43-1.42a.47.47,0,0,0,.17-.65.48.48,0,0,0-.65-.18L291,386.57h-1l2.43-1.42a.47.47,0,0,0,.17-.65.48.48,0,0,0-.65-.18l-3.83,2.24h-.77l4.45-4.46a.47.47,0,1,0-.67-.67l-4.68,4.67v-1h0l2.39-3.83a.48.48,0,1,0-.81-.5l-1.59,2.53v-1.07h0l2.39-3.83a.48.48,0,0,0-.15-.66.48.48,0,0,0-.66.16l-1.59,2.53v-4.09a.48.48,0,1,0-.95,0v3.74l-1.27-2.17a.48.48,0,0,0-.82.48l2.09,3.59v1l-1.27-2.17a.48.48,0,1,0-.82.48l2.09,3.59v1.27l-4.66-4.65a.47.47,0,1,0-.67.67l4.45,4.46h-.57l0,0-3.69-2.2a.48.48,0,0,0-.66.16.49.49,0,0,0,.17.66l2.38,1.42h-.86a.57.57,0,0,0-.11-.11l-3.81-2.14a.47.47,0,1,0-.46.83l2.51,1.42h-4.6A.47.47,0,0,0,274.41,387.05Z" style="fill:#fff"></path><path d="M309.37,349.93l-3.83,2.23h-.78l4.46-4.45a.48.48,0,0,0-.68-.68l-4.67,4.68v-1h0l2.39-3.82a.47.47,0,0,0-.15-.66.48.48,0,0,0-.66.15l-1.58,2.54v-1.07h0l2.39-3.82a.47.47,0,0,0-.15-.66.48.48,0,0,0-.66.15L303.87,346v-4.1a.48.48,0,0,0-.48-.48.49.49,0,0,0-.48.48v3.74l-1.26-2.17a.48.48,0,0,0-.83.48l2.09,3.59v1l-1.26-2.18a.48.48,0,0,0-.83.48l2.09,3.59v1.28L298.26,347a.48.48,0,1,0-.68.68l4.46,4.45h-.58l0,0-3.7-2.21a.48.48,0,0,0-.49.82l2.38,1.42h-.86s-.06-.08-.1-.1l-3.81-2.15a.49.49,0,0,0-.65.19.48.48,0,0,0,.18.65l2.51,1.41h-4.6a.48.48,0,0,0,0,1h4.27l-2.2,1.44a.47.47,0,0,0-.14.66.46.46,0,0,0,.4.21.48.48,0,0,0,.26-.07l3.43-2.24h1.11l-2.2,1.44a.47.47,0,0,0-.13.66.46.46,0,0,0,.4.21.48.48,0,0,0,.26-.07l3.42-2.24h1.29L297.58,358a.49.49,0,0,0,.34.82.46.46,0,0,0,.34-.15l4.65-4.65v1l-2.09,3.5a.47.47,0,0,0,.17.65.44.44,0,0,0,.24.07.45.45,0,0,0,.41-.23l1.27-2.13v.8l-2.09,3.72a.48.48,0,0,0,.18.65.46.46,0,0,0,.23.06.49.49,0,0,0,.42-.24l1.26-2.24v4.53a.49.49,0,0,0,.48.48.48.48,0,0,0,.48-.48V359.4l1.59,2.45a.47.47,0,0,0,.66.13.48.48,0,0,0,.14-.66l-2.39-3.67v-1.1l1.59,2.43a.47.47,0,0,0,.66.13.48.48,0,0,0,.14-.66l-2.39-3.65V354l4.67,4.67a.46.46,0,0,0,.34.15.49.49,0,0,0,.34-.82l-4.88-4.87h1.42l3.59,2.24a.48.48,0,0,0,.26.07.47.47,0,0,0,.4-.22.48.48,0,0,0-.15-.66l-2.29-1.43h1.06l3.59,2.24a.48.48,0,0,0,.26.07.47.47,0,0,0,.4-.22.48.48,0,0,0-.15-.66l-2.29-1.43h4.05a.48.48,0,1,0,0-1h-4.2l2.43-1.42a.47.47,0,0,0,.17-.65.47.47,0,0,0-.65-.17l-3.83,2.23h-1l2.43-1.42a.47.47,0,0,0,.17-.65A.47.47,0,0,0,309.37,349.93Z" style="fill:#fff"></path><path d="M336.93,373.18c-5.68,14-10.46,31.21-1.86,45.54,11.47,19.11,24.84,34.39,36,52.43" style="fill:none;stroke:#263238;stroke-linecap:round;stroke-linejoin:round"></path><path d="M326.88,420.12c-1.51-1.21-3.06-2.45-4.67-3.71" style="fill:none;stroke:#263238;stroke-linecap:round;stroke-linejoin:round"></path><path d="M348.36,438.59s-7.25-6.8-18.06-15.69" style="fill:none;stroke:#263238;stroke-linecap:round;stroke-linejoin:round"></path><path d="M406.51,440c.26,2.24.45,4.49.54,6.73" style="fill:none;stroke:#263238;stroke-linecap:round;stroke-linejoin:round"></path><path d="M393,393.94s9.21,19.23,12.75,40.77" style="fill:none;stroke:#263238;stroke-linecap:round;stroke-linejoin:round"></path><path d="M421.77,444.22a146.67,146.67,0,0,1,5,21.08" style="fill:none;stroke:#263238;stroke-linecap:round;stroke-linejoin:round"></path><path d="M413.23,420.35s2.85,6.75,6,16" style="fill:none;stroke:#263238;stroke-linecap:round;stroke-linejoin:round"></path><path d="M258.41,473.76H438.17c-1.72-7.33-6.15-24.63-12-35.37-7.53-13.91-31.88-52.46-32.46-53.33s-7.83-22.9-14.78-30.43-42.61-40.58-44.35-43.19a20.54,20.54,0,0,0-3.48-4.06s-12.17,7.54-21.45,11.88-34.49,11.6-34.49,11.6-7.5,11.19-8.66,18.15-.91,10.25-7,25.33-10.73,49.56-6.09,69.56A222.07,222.07,0,0,1,258.41,473.76Z" style="fill:none;stroke:#263238;stroke-linecap:round;stroke-linejoin:round"></path><path d="M274.67,335.31s-4.75,6.52-2.15,9.42,2.36,2.55,2.36,3.42a106.25,106.25,0,0,1-6.07,18.36c-2.9,6.09-2.32,20.87-.29,22.32s2-10.73,7-17.39S282.14,350,282.14,350s17.69-10.44,29.86-18,19.42-22,20.58-22-4.35-7.25-5.8-6.67-2,1.74-2.9,2.32-28.25,13.3-36.37,19.39S274.67,335.31,274.67,335.31Z" style="fill:#fff;stroke:#263238;stroke-linecap:round;stroke-linejoin:round"></path><path d="M221.57,257.24s-.87,8.4.87,11.59,4.63,6.67,5.79,10.72S224.17,299,225,301s9.28,4.06,9.28,4.06-1.74,3.48-.29,4.64A25.91,25.91,0,0,0,237.8,312s.58,3.77,1.74,4.35a11.72,11.72,0,0,0,3.76.57s2.32,7.25,3.48,9.57,5.8,2.61,9,1.74,12.17-6.67,12.17-6.67,4.64,12.18,7.25,15.65,12.17-.58,24.93-6.08,26.08-20.58,26.66-22,1.74-1.74.58-3.19-11-16.23-11-16.23,4.64-19.42,4.92-26.38,2.9-5.22-29.85-9.56-64.93-5.51-68.12-4.35S221.57,257.24,221.57,257.24Z" style="fill:#fff;stroke:#263238;stroke-linecap:round;stroke-linejoin:round"></path><path d="M316.35,289.7s4.64-19.42,4.92-26.38,2.9-5.22-29.85-9.56c-3.91-.52-7.81-1-11.65-1.42l-4.29,0a53.57,53.57,0,0,0-16.52,2.9l1.45,5.79s.29,8.7,4.92,8.7,3.19-6.38,8.12-7.83,10.72.87,11,6.67-4.92,7.54-3.47,11,20.28,10.73,26.66,10.73c4.76,0,6.29,1,8.93-.23Z" style="fill:#263238;stroke:#263238;stroke-linecap:round;stroke-linejoin:round"></path><path d="M234,268.06a10,10,0,0,1,10.1-1.11,1.12,1.12,0,0,0,1.51-1.31h0s-7.24-3.48-11.59-2c-2.42.81-3.31,2-3.23,3.14A2,2,0,0,0,234,268.06Z" style="fill:#263238;stroke:#263238;stroke-linecap:round;stroke-linejoin:round"></path><path d="M237.51,275.79V281s5.21,2,8.4-1.45" style="fill:none;stroke:#263238;stroke-linecap:round;stroke-linejoin:round"></path><polygon points="267.94 321.58 277.08 316.79 270.41 326.19 267.94 321.58" style="fill:#263238;stroke:#263238;stroke-linecap:round;stroke-linejoin:round"></polygon><path d="M217.51,230.28s.87,19.42.58,24.35,1.16,7.24,3.77,7.24-.58-2,13.62-1.45,53.91,2.9,65.79,6.67,17.4,5.51,19.72,4.35,2-.87,3.18-6.38,4.06-19.71,3.77-23.48-2.61-5.5-4.35-5.5-42-2-64.63-5.8S218.38,226.8,217.51,230.28Z" style="fill:#fff;stroke:#263238;stroke-linecap:round;stroke-linejoin:round"></path><path d="M266.49,204.48S278.38,223.9,280.41,232s-.58,15.36-.87,27.24-.29,14.5-.29,15.66a6,6,0,0,0,.58,2.32,41.59,41.59,0,0,0,9,2c4.06.29,6.09-.29,7.25-2.31s14.78-29.57,18.26-39.13,4.64-15.37,4.35-18.27a40.72,40.72,0,0,0-.87-5.21" style="fill:#92E3A9;stroke:#263238;stroke-linecap:round;stroke-linejoin:round"></path><path d="M281.28,276.37s-7.54,0-10.15,7.24-1.45,15.65,1.16,19.42,11.59,8.12,17.1,7,13.62-9.28,13.91-18.55-5.5-13.91-8.4-14.78S281.28,276.37,281.28,276.37Z" style="fill:#fff;stroke:#263238;stroke-linecap:round;stroke-linejoin:round"></path></g><g id="character-1"><path d="M251.58,473.76a61.78,61.78,0,0,0-10-9.86c-7.83-6.09-32.76-27-35.37-35.07s.29-23.77.87-27,4.64-11.88,6.67-25.51S219,347.67,219,347.67a40.92,40.92,0,0,0,5.79-4.06c4.06-3.19,17.69-8.4,17.69-15.36s-5.51-8.12-5.51-8.12,2.61-5.21,2-7.53a3.06,3.06,0,0,0-2.9-2.32,4,4,0,0,0,0-2.9c-.58-1.74-4.93-3.19-4.93-3.19a18.26,18.26,0,0,0,.29-6.67c-.58-3.18-3.77-1.73-9-3.18s-11.89-4.93-13.34-8.41a57.77,57.77,0,0,0-5.22-8.69l-51,62.89s15.07,19.71,15.07,32.47S157.51,404.19,152,409.7a99.65,99.65,0,0,0-22.61,32.17c-5.7,12.93-12.88,26.19-16,31.89Z" style="fill:#fff;stroke:#263238;stroke-linecap:round;stroke-linejoin:round"></path><path d="M251.58,473.76a61.78,61.78,0,0,0-10-9.86c-7.83-6.09-32.76-27-35.37-35.07,0-.15-.09-.31-.13-.47l-50.24-23.5A34.41,34.41,0,0,1,152,409.7a99.65,99.65,0,0,0-22.61,32.17c-5.7,12.93-12.88,26.19-16,31.89Z" style="fill:#949494"></path><path d="M138.07,458.09l24.19,12.39,19.93-12.89L201,469.94l21.73-13.51,19.74,14.36,2.93-3.61c-.68-.63-1.39-1.27-2.14-1.9l-1.3,1.59-17.54-12.76H221l-20,12.43L182.2,454.17l-20.1,13L138,454.85,117.55,466l-1.61,3,.47.88Z" style="fill:#92E3A9"></path><path d="M229.74,454.11c-3-2.59-6.15-5.41-9.15-8.24h-93c-1.29,2.8-2.62,5.57-3.94,8.24Z" style="fill:#92E3A9"></path><path d="M251.58,473.76a61.78,61.78,0,0,0-10-9.86c-7.83-6.09-32.76-27-35.37-35.07,0-.15-.09-.31-.13-.47l-50.24-23.5A34.41,34.41,0,0,1,152,409.7a99.65,99.65,0,0,0-22.61,32.17c-5.7,12.93-12.88,26.19-16,31.89Z" style="fill:none;stroke:#263238;stroke-linecap:round;stroke-linejoin:round"></path><path d="M231,339.84c-2.56.9-8.62,2.66-16.69,4.56-3.55.83-10.92,0-10.92,0s8.79,3.64,10.61,6.06,2.87,7,2.87,7l2.11-9.79S227,342.26,231,339.84Z" style="fill:#263238;stroke:#263238;stroke-linecap:round;stroke-linejoin:round"></path><path d="M207.94,292.89l4.35,5.21a6.64,6.64,0,0,1-6.09,4.64" style="fill:none;stroke:#263238;stroke-linecap:round;stroke-linejoin:round"></path><path d="M204.17,285.64s-5.79,0-7.53,8.7" style="fill:none;stroke:#263238;stroke-linecap:round;stroke-linejoin:round;stroke-width:3px"></path><path d="M186.2,299.26s7.83,27.83,15.66,48.41,10.72,30.14,10.43,37.39-8.41-4.64-8.41-4.64,9.57,27.83,9.57,42.9a59.36,59.36,0,0,1-7.54,29.28c-2,3.47-4.92-6.67-8.4-14.5,0,0,1.45,6.38-1.16,5.51s-9.28-14.2-15.94-21.45-16.52-10.43-25.8-6.38S134,441,130,449.7s-13.37,18.94-14.24,18.94,0-16.62,2.94-32,22.32-51.59,26.08-64.34a80,80,0,0,0,3.48-22.61Z" style="fill:#263238;stroke:#263238;stroke-linecap:round;stroke-linejoin:round"></path><path d="M166.3,261.09s-29.3-.32-31.85,0-8.27,2.23-10.5,6.37-22.61,47.45-23.57,58S102,345.16,106.75,356s15.6,39.49,15.92,43.62-.32,7,1,8.6,3.82,3.19,5.09,2.87,14.65-24.84,17.2-36-3.5-31.52-3.5-31.52Z" style="fill:#92E3A9;stroke:#263238;stroke-linecap:round;stroke-linejoin:round"></path><path d="M114.21,350.26a36.39,36.39,0,0,1-1.41-4.46" style="fill:none;stroke:#263238;stroke-linecap:round;stroke-linejoin:round"></path><path d="M126.26,398.1a44.29,44.29,0,0,0-1.36-15.68c-2-7.37-5.58-17.69-8.34-25.51" style="fill:none;stroke:#263238;stroke-linecap:round;stroke-linejoin:round"></path><path d="M124.58,406.3a29.58,29.58,0,0,0,1-3.8" style="fill:none;stroke:#263238;stroke-linecap:round;stroke-linejoin:round"></path><path d="M139.33,383.53a27.43,27.43,0,0,1-1.31,6.26" style="fill:none;stroke:#263238;stroke-linecap:round;stroke-linejoin:round"></path><path d="M140.08,340.25s-1.17,15.1-.85,22.11c.17,3.81.55,9.51.46,15.05" style="fill:none;stroke:#263238;stroke-linecap:round;stroke-linejoin:round"></path><path d="M136.66,413.37c-7-12.24-18.39-7.62-26.1.71a10.41,10.41,0,0,0-2.85,4.62,9.45,9.45,0,0,0,.38,4.65,15.3,15.3,0,0,0,3.7,6.68,16.56,16.56,0,0,0,7.53,3.87,18.41,18.41,0,0,0,9.57.28c6.85-1.94,11-10,9.33-16.94A15.1,15.1,0,0,0,136.66,413.37Z" style="fill:#fff;stroke:#263238;stroke-linecap:round;stroke-linejoin:round"></path><path d="M141.86,348.83s4.44,3.63,6.66,3.19c2.9-.58,56.23-71.89,58-74.21s-.29-6.37-2.9-8.4-15.94-10.73-21.73-13a26.25,26.25,0,0,0-16.24-.58c-3.18,1.16-9,12.46-9.56,18s-11,45.5-13.33,54.49S139.54,348.25,141.86,348.83Z" style="fill:#fff;stroke:#263238;stroke-linecap:round;stroke-linejoin:round"></path></g><g id="Mistletoe"><polyline points="241.12 20.22 241.12 88.52 245.9 88.52 245.9 20.22" style="fill:#fff;stroke:#263238;stroke-linecap:round;stroke-linejoin:round"></polyline><path d="M241.68,98.7S240.55,136,218.5,156.93" style="fill:none;stroke:#263238;stroke-linecap:round;stroke-linejoin:round;stroke-width:2px"></path><line x1="236.59" y1="124.42" x2="220.48" y2="128.66" style="fill:none;stroke:#263238;stroke-linecap:round;stroke-linejoin:round;stroke-width:2px"></line><path d="M223.59,127.53s-6.78-5.09-17.52-.28-13,11.59-6.22,12.15,7.63-4,13.28-7.63A27.21,27.21,0,0,1,223.59,127.53Z" style="fill:#92E3A9;stroke:#263238;stroke-linecap:round;stroke-linejoin:round"></path><path d="M222.46,128.66a154,154,0,0,1-11,11.31c-5.09,4.52-2,9.33,4.24,5.37S222.46,128.66,222.46,128.66Z" style="fill:#92E3A9;stroke:#263238;stroke-linecap:round;stroke-linejoin:round"></path><path d="M216,157.78s-13.85,8.48-18.94,16.39-1.41,12.16,3.39,10.75,5.94-6.79,9.33-12.72S218.5,156.37,216,157.78Z" style="fill:#92E3A9;stroke:#263238;stroke-linecap:round;stroke-linejoin:round"></path><path d="M216,160.61s-3.39,18.09-1.41,23.46,7.91,2.82,7.91-1.42-3.39-14.41-4-18.65S217.09,158.63,216,160.61Z" style="fill:#92E3A9;stroke:#263238;stroke-linecap:round;stroke-linejoin:round"></path><circle cx="214.26" cy="155.23" r="3.67" style="fill:#fff;stroke:#263238;stroke-linecap:round;stroke-linejoin:round"></circle><path d="M223.31,158.91a3.68,3.68,0,1,0-3.68,3.67A3.68,3.68,0,0,0,223.31,158.91Z" style="fill:#fff;stroke:#263238;stroke-linecap:round;stroke-linejoin:round"></path><circle cx="222.74" cy="151.56" r="3.67" style="fill:#fff;stroke:#263238;stroke-linecap:round;stroke-linejoin:round"></circle><path d="M244.23,95.87s-3.68,32.51-3.68,45.8a136.34,136.34,0,0,0,2,23.46" style="fill:none;stroke:#263238;stroke-linecap:round;stroke-linejoin:round;stroke-width:2px"></path><path d="M244.51,93.33s-1.13,19.22,6.22,32.51,12.15,18.09,12.15,18.09" style="fill:none;stroke:#263238;stroke-linecap:round;stroke-linejoin:round;stroke-width:2px"></path><path d="M242.53,167.11s.28,11.59-1.41,19.5,4.24,7.35,6.5,2S243.94,168,243.94,168,242.81,165.69,242.53,167.11Z" style="fill:#92E3A9;stroke:#263238;stroke-linecap:round;stroke-linejoin:round"></path><path d="M244.23,166.26s7.35,12.72,11.3,13.85.29-8.48-2.26-11-11.87-7.35-11.3-5.66A6.32,6.32,0,0,0,244.23,166.26Z" style="fill:#92E3A9;stroke:#263238;stroke-linecap:round;stroke-linejoin:round"></path><path d="M249.6,123.86s-.85,13.57-.85,17.81" style="fill:none;stroke:#263238;stroke-linecap:round;stroke-linejoin:round;stroke-width:2px"></path><path d="M245.64,98.13s.57,20.92,16.68,27.14" style="fill:none;stroke:#263238;stroke-linecap:round;stroke-linejoin:round;stroke-width:2px"></path><path d="M248.47,138.56s-10.18,13.28-11,17.52,4.53,8.48,7.92,4.53S249.6,136.86,248.47,138.56Z" style="fill:#92E3A9;stroke:#263238;stroke-linecap:round;stroke-linejoin:round"></path><path d="M248.47,138.56s6.22,9,7.91,12.72S258.64,162,255,164s-7.07-1.7-7.35-7.07S248.47,138.56,248.47,138.56Z" style="fill:#92E3A9;stroke:#263238;stroke-linecap:round;stroke-linejoin:round"></path><path d="M260.34,141.38s2.83,10.18,2.26,17-2,11.88,2,13,6.22-5.94,4.52-14.14S262,141.1,260.34,141.38Z" style="fill:#92E3A9;stroke:#263238;stroke-linecap:round;stroke-linejoin:round"></path><path d="M260.34,141.38s8.76,1.13,13.85,7.64,7.07,11.59,3.11,15-4.81-1.7-8.2-9.05A66.11,66.11,0,0,0,260.34,141.38Z" style="fill:#92E3A9;stroke:#263238;stroke-linecap:round;stroke-linejoin:round"></path><path d="M259.77,123.86a40.87,40.87,0,0,1,17.25.28c8.48,2.26,15.26,7.92,12.15,9.61s-6.22,1.7-13-.85S259.77,123.86,259.77,123.86Z" style="fill:#92E3A9;stroke:#263238;stroke-linecap:round;stroke-linejoin:round"></path><path d="M261.19,125a169.89,169.89,0,0,1,9.61,15.55c3.67,7.06,8.76,9.61,7.91,2.54S264.3,126.4,261.19,125Z" style="fill:#92E3A9;stroke:#263238;stroke-linecap:round;stroke-linejoin:round"></path><path d="M260.06,136.58a4,4,0,1,0-4,4A4,4,0,0,0,260.06,136.58Z" style="fill:#fff;stroke:#263238;stroke-linecap:round;stroke-linejoin:round"></path><path d="M240.27,170.5a4,4,0,1,0-4,4A4,4,0,0,0,240.27,170.5Z" style="fill:#fff;stroke:#263238;stroke-linecap:round;stroke-linejoin:round"></path><path d="M246.21,164.56a4,4,0,1,0-4,4A4,4,0,0,0,246.21,164.56Z" style="fill:#fff;stroke:#263238;stroke-linecap:round;stroke-linejoin:round"></path><path d="M244.79,155.52a4,4,0,1,0-4,3.95A4,4,0,0,0,244.79,155.52Z" style="fill:#fff;stroke:#263238;stroke-linecap:round;stroke-linejoin:round"></path><path d="M264.3,126.4a4,4,0,1,0-4,4A4,4,0,0,0,264.3,126.4Z" style="fill:#fff;stroke:#263238;stroke-linecap:round;stroke-linejoin:round"></path><path d="M237.44,97s-7.06,7.35-9,12.16a75.57,75.57,0,0,0-3.11,9.33l7.91-6.79,2,9s5.94-17,7.63-20.92,1.13-1.7,1.13-1.7l8.77,19.51,2.26-6.79,6.5,5.09s-3.68-11.3-7.92-16.39a25.17,25.17,0,0,0-10.17-7.07Z" style="fill:#fff;stroke:#263238;stroke-linecap:round;stroke-linejoin:round"></path><path d="M241.12,88.52S227,76.37,225,74.39s-6.21,7.91-6.78,9.89,24,11,24,11Z" style="fill:#fff;stroke:#263238;stroke-linecap:round;stroke-linejoin:round"></path><path d="M240,92.76l-22.62.85a27.23,27.23,0,0,0-.56,5.09c0,2.54.28,8.76,2.82,8.76s22.05-8.76,22.05-8.76Z" style="fill:#fff;stroke:#263238;stroke-linecap:round;stroke-linejoin:round"></path><path d="M217.37,93.61s.57,2,4,2S240,92.76,240,92.76Z" style="fill:#fff;stroke:#263238;stroke-linecap:round;stroke-linejoin:round"></path><path d="M247.34,88.52s14.13-12.15,16.11-14.13,6.22,7.91,6.78,9.89-24,11-24,11Z" style="fill:#fff;stroke:#263238;stroke-linecap:round;stroke-linejoin:round"></path><path d="M248.47,92.76l22.61.85a26.78,26.78,0,0,1,.57,5.09c0,2.54-.29,8.76-2.83,8.76s-22-8.76-22-8.76Z" style="fill:#fff;stroke:#263238;stroke-linecap:round;stroke-linejoin:round"></path><path d="M271.08,93.61s-.56,2-4,2-18.65-2.83-18.65-2.83Z" style="fill:#fff;stroke:#263238;stroke-linecap:round;stroke-linejoin:round"></path><path d="M246.77,87.39s-8.2-1.69-8.48,3.11.85,9.61,2.26,11,7.07,1.69,7.92-.85.84-9.05.84-11.31S246.77,87.39,246.77,87.39Z" style="fill:#fff;stroke:#263238;stroke-linecap:round;stroke-linejoin:round"></path></g><g id="Floor"><line x1="26" y1="473.76" x2="481" y2="473.76" style="fill:none;stroke:#263238;stroke-linecap:round;stroke-linejoin:round"></line></g><g id="Snowflakes"><path d="M404.69,139.06l-7.11,4.15,0,0h-1.42l8.27-8.28a.88.88,0,0,0-1.25-1.25l-8.68,8.68v-1.93h0l4.45-7.11a.89.89,0,0,0-.28-1.22.9.9,0,0,0-1.23.28l-2.94,4.71v-2h0l4.45-7.11a.89.89,0,0,0-.28-1.22.9.9,0,0,0-1.23.28l-2.94,4.71v-7.61a.89.89,0,0,0-1.78,0v7l-2.35-4a.89.89,0,1,0-1.53.9l3.88,6.66v1.81l-2.35-4a.89.89,0,1,0-1.53.89L392.7,140v2.37l-8.64-8.64a.88.88,0,0,0-1.25,1.25l8.27,8.28H390s0-.06-.07-.07l-6.86-4.1a.89.89,0,0,0-.91,1.53l4.42,2.64H385a.9.9,0,0,0-.19-.2l-7.07-4a.89.89,0,1,0-.87,1.55l4.66,2.63H373a.89.89,0,1,0,0,1.77h7.93l-4.1,2.67a.89.89,0,0,0-.26,1.23.9.9,0,0,0,1.23.26l6.38-4.16h2.06l-4.08,2.67a.89.89,0,0,0,.48,1.63.87.87,0,0,0,.49-.14l6.35-4.16h2.4l-9.05,9.05a.89.89,0,1,0,1.25,1.26l8.64-8.65v1.76l-3.88,6.5a.89.89,0,0,0,.31,1.22.84.84,0,0,0,.46.13.89.89,0,0,0,.76-.44l2.35-4v1.49l-3.89,6.91a.9.9,0,0,0,.78,1.32.91.91,0,0,0,.77-.45L392.7,157v8.42a.89.89,0,0,0,1.78,0v-8.74l2.95,4.54a.9.9,0,0,0,1.23.25.88.88,0,0,0,.26-1.22l-4.44-6.82v-2.06l2.95,4.51a.89.89,0,0,0,1.49-1l-4.44-6.78v-1.48l8.68,8.68a.89.89,0,0,0,1.25-1.26L395.36,145H398l6.67,4.17a.9.9,0,0,0,1.22-.28.9.9,0,0,0-.28-1.23L401.35,145h2l6.67,4.17a.9.9,0,0,0,.47.13.87.87,0,0,0,.75-.41.89.89,0,0,0-.28-1.23L406.68,145h7.53a.89.89,0,1,0,0-1.77H406.4l4.52-2.64a.89.89,0,1,0-.9-1.53l-7.11,4.15v0h-1.83l4.51-2.64a.89.89,0,1,0-.89-1.53Z" style="opacity:0.1"></path><path d="M317.21,164.94l-7.11,4.15,0,0h-1.42l8.27-8.27a.89.89,0,0,0-1.25-1.26L307,168.26v-1.93h0l4.44-7.11a.89.89,0,0,0-1.51-.94L307,163v-2h0l4.44-7.11a.89.89,0,1,0-1.51-.94L307,157.66v-7.61a.89.89,0,1,0-1.77,0V157l-2.36-4a.89.89,0,1,0-1.53.89l3.89,6.66v1.82l-2.36-4a.89.89,0,0,0-1.21-.32.89.89,0,0,0-.32,1.22l3.89,6.66v2.37l-8.65-8.65a.89.89,0,1,0-1.25,1.26l8.27,8.27h-1.07s0-.05-.07-.07L295.6,165a.89.89,0,1,0-.91,1.52l4.42,2.64h-1.6a.86.86,0,0,0-.19-.19l-7.07-4a.88.88,0,1,0-.87,1.54l4.66,2.63H285.5a.89.89,0,0,0,0,1.78h7.93l-4.1,2.67a.88.88,0,1,0,1,1.48l6.38-4.15h2.06l-4.08,2.67a.88.88,0,1,0,1,1.48l6.35-4.15h2.4l-9.05,9.05a.88.88,0,0,0,0,1.25.88.88,0,0,0,1.25,0l8.65-8.64v1.75l-3.89,6.51a.9.9,0,0,0,.31,1.22.93.93,0,0,0,.46.12.88.88,0,0,0,.76-.43l2.36-3.95v1.48l-3.9,6.91a.89.89,0,0,0,.34,1.21.87.87,0,0,0,.44.11.89.89,0,0,0,.77-.45l2.35-4.16v8.41a.89.89,0,1,0,1.77,0v-8.73l2.95,4.53a.89.89,0,0,0,1.49-1L307,179.3v-2.06l2.95,4.51a.89.89,0,0,0,1.23.25.88.88,0,0,0,.26-1.22L307,174v-1.49l8.68,8.68a.88.88,0,0,0,1.25,0,.88.88,0,0,0,0-1.25l-9.05-9.05h2.64l6.67,4.16a.89.89,0,1,0,.94-1.5l-4.26-2.66h2l6.67,4.16a.92.92,0,0,0,.47.14.87.87,0,0,0,.75-.42.88.88,0,0,0-.28-1.22l-4.26-2.66h7.53a.89.89,0,0,0,0-1.78h-7.81l4.52-2.63a.89.89,0,0,0-.9-1.54l-7.11,4.15v0h-1.83l4.52-2.63a.89.89,0,0,0-.9-1.54Z" style="opacity:0.1"></path><path d="M163.21,60.62l-7.11,4.14,0,0h-1.42l8.27-8.27a.89.89,0,0,0,0-1.26.91.91,0,0,0-1.26,0L153,63.93V62h0l4.44-7.11a.89.89,0,0,0-1.5-.94L153,58.66v-2h0l4.44-7.11a.89.89,0,1,0-1.5-.94L153,53.33V45.72a.89.89,0,1,0-1.77,0v7l-2.35-4a.89.89,0,0,0-1.54.89l3.89,6.67V58l-2.35-4a.89.89,0,1,0-1.54.9l3.89,6.66V63.9l-8.64-8.65a.91.91,0,0,0-1.26,0,.89.89,0,0,0,0,1.26l8.27,8.27h-1.07l-.06-.07-6.87-4.09a.89.89,0,0,0-.91,1.52l4.43,2.64h-1.6a.9.9,0,0,0-.2-.19l-7.07-4A.89.89,0,0,0,135,61a.88.88,0,0,0,.34,1.2L140,64.78h-8.54a.89.89,0,1,0,0,1.78h7.93l-4.1,2.67a.89.89,0,0,0,.49,1.63,1,1,0,0,0,.48-.14l6.38-4.16h2.06l-4.08,2.67a.89.89,0,1,0,1,1.48L148,66.56h2.4l-9.05,9a.88.88,0,0,0,0,1.25.85.85,0,0,0,.63.26.87.87,0,0,0,.63-.26l8.64-8.64V70l-3.88,6.51a.88.88,0,0,0,.76,1.34.87.87,0,0,0,.76-.43l2.36-4v1.48l-3.89,6.91a.89.89,0,0,0,.34,1.21.81.81,0,0,0,.43.11.87.87,0,0,0,.77-.45l2.35-4.16V87A.89.89,0,1,0,153,87V78.22l3,4.53a.88.88,0,1,0,1.48-1L153,75V72.91l3,4.51a.9.9,0,0,0,1.23.26.89.89,0,0,0,.25-1.23L153,69.67V68.18l8.68,8.68a.87.87,0,0,0,.63.26.85.85,0,0,0,.63-.26.88.88,0,0,0,0-1.25l-9.05-9h2.64l6.66,4.16a.83.83,0,0,0,.47.14.9.9,0,0,0,.76-.42.88.88,0,0,0-.29-1.22l-4.26-2.66h2l6.67,4.16a.79.79,0,0,0,.47.14.89.89,0,0,0,.47-1.64l-4.27-2.66h7.53a.89.89,0,0,0,0-1.78h-7.8l4.51-2.63a.89.89,0,0,0,.32-1.22.87.87,0,0,0-1.21-.31l-7.11,4.14,0,0h-1.83l4.52-2.63a.89.89,0,0,0,.32-1.22A.87.87,0,0,0,163.21,60.62Z" style="opacity:0.1"></path><path d="M75.21,154.94l-7.11,4.15s0,0,0,0H66.66l8.27-8.27a.89.89,0,0,0-1.25-1.26L65,158.26v-1.93h0l4.44-7.11a.89.89,0,0,0-1.51-.94L65,153v-2h0l4.44-7.11a.89.89,0,1,0-1.51-.94L65,147.66v-7.61a.89.89,0,1,0-1.77,0V147l-2.36-4a.89.89,0,0,0-1.53.89l3.89,6.66v1.82l-2.36-4a.89.89,0,0,0-1.21-.32.89.89,0,0,0-.32,1.22l3.89,6.66v2.37l-8.65-8.65a.89.89,0,1,0-1.25,1.26l8.27,8.27H60.53l-.07-.07L53.6,155a.89.89,0,1,0-.91,1.52l4.42,2.64h-1.6a.86.86,0,0,0-.19-.19l-7.07-4a.88.88,0,1,0-.87,1.54L52,159.11H43.5a.89.89,0,1,0,0,1.78h7.93l-4.1,2.67a.88.88,0,1,0,1,1.48l6.38-4.15h2.06l-4.08,2.67a.88.88,0,1,0,1,1.48L60,160.89h2.4l-9.05,9.05a.88.88,0,0,0,0,1.25.88.88,0,0,0,1.25,0l8.65-8.64v1.75l-3.89,6.51a.9.9,0,0,0,.31,1.22.93.93,0,0,0,.46.12.88.88,0,0,0,.76-.43l2.36-3.95v1.48l-3.9,6.91a.89.89,0,0,0,.34,1.21.87.87,0,0,0,.44.11.89.89,0,0,0,.77-.45l2.35-4.16v8.41a.89.89,0,1,0,1.77,0v-8.73l3,4.53a.89.89,0,1,0,1.49-1L65,169.3v-2.06l3,4.51a.89.89,0,0,0,1.23.25.88.88,0,0,0,.26-1.22L65,164v-1.49l8.68,8.68a.88.88,0,0,0,1.25,0,.88.88,0,0,0,0-1.25l-9.05-9.05h2.64l6.67,4.16a.89.89,0,0,0,.94-1.5l-4.26-2.66h2l6.67,4.16a.92.92,0,0,0,.47.14.87.87,0,0,0,.75-.42.88.88,0,0,0-.28-1.22l-4.26-2.66h7.53a.89.89,0,0,0,0-1.78H76.92l4.52-2.63a.89.89,0,1,0-.9-1.54l-7.11,4.15v0H71.59l4.52-2.63a.89.89,0,0,0-.9-1.54Z" style="opacity:0.1"></path><path d="M317.11,58.58l-5.39,3.15h-1.09l6.27-6.27a.67.67,0,0,0-.95-.95l-6.59,6.58V59.64h0l3.37-5.39a.67.67,0,1,0-1.14-.71l-2.24,3.57V55.59h0l3.37-5.39a.67.67,0,0,0-1.14-.72l-2.24,3.58V47.29a.67.67,0,1,0-1.34,0v5.27l-1.79-3.06a.67.67,0,0,0-1.16.68l2.95,5v1.38l-1.79-3.06a.66.66,0,0,0-.92-.25.67.67,0,0,0-.24.92L308,59.28v1.79l-6.56-6.55a.67.67,0,0,0-.95.95l6.27,6.27H306s0,0-.05-.05l-5.2-3.1a.68.68,0,0,0-.93.23.67.67,0,0,0,.24.92l3.35,2h-1.21a.66.66,0,0,0-.15-.14l-5.36-3a.68.68,0,0,0-.92.26.66.66,0,0,0,.26.91l3.54,2h-6.48a.68.68,0,1,0,0,1.35h6l-3.11,2a.66.66,0,0,0-.19.93.67.67,0,0,0,.93.19l4.84-3.15h1.56l-3.1,2a.67.67,0,0,0,.37,1.23.62.62,0,0,0,.37-.11l4.82-3.15h1.82L300.51,70a.69.69,0,0,0,0,1,.69.69,0,0,0,.95,0L308,64.35v1.33l-2.95,4.94a.67.67,0,0,0,.24.92.69.69,0,0,0,.34.09.66.66,0,0,0,.58-.33l1.79-3v1.12l-2.95,5.24a.67.67,0,0,0,.25.92.68.68,0,0,0,.33.09.67.67,0,0,0,.59-.35L308,72.18v6.38a.67.67,0,1,0,1.34,0V71.94l2.24,3.43a.69.69,0,0,0,.94.2.68.68,0,0,0,.19-.93l-3.37-5.17V67.91l2.25,3.42a.67.67,0,0,0,1.12-.74l-3.37-5.14V64.32L316,70.91a.66.66,0,0,0,.47.19.68.68,0,0,0,.48-.19.69.69,0,0,0,0-1L310,63.09h2l5.06,3.16a.67.67,0,1,0,.71-1.14l-3.23-2h1.51l5.06,3.16a.64.64,0,0,0,.35.1.67.67,0,0,0,.57-.31.68.68,0,0,0-.21-.93l-3.23-2h5.71a.68.68,0,0,0,0-1.35h-5.92l3.42-2a.67.67,0,0,0,.24-.92.66.66,0,0,0-.92-.25l-5.39,3.15h-1.4l3.43-2a.68.68,0,0,0-.68-1.17Z" style="opacity:0.1"></path><path d="M465,353l-5.39,3.14v0h-1.08l6.27-6.28a.66.66,0,0,0,0-1,.68.68,0,0,0-.95,0l-6.58,6.59V354h0l3.37-5.39a.67.67,0,0,0-.21-.93.68.68,0,0,0-.93.21l-2.23,3.58V350h0l3.37-5.39a.66.66,0,0,0-.21-.92.67.67,0,0,0-.93.21l-2.23,3.57v-5.77a.67.67,0,0,0-.67-.67.68.68,0,0,0-.68.67V347l-1.78-3.06a.67.67,0,1,0-1.16.67l2.94,5.06V351l-1.78-3.06a.67.67,0,0,0-1.16.68l2.94,5.05v1.8l-6.55-6.56a.68.68,0,0,0-.95,0,.66.66,0,0,0,0,1l6.27,6.28h-.81l0-.05L448.64,353a.66.66,0,0,0-.92.24.67.67,0,0,0,.23.92l3.36,2H450.1A1.06,1.06,0,0,0,450,356l-5.37-3a.66.66,0,0,0-.91.26.68.68,0,0,0,.25.92l3.54,2H441a.67.67,0,1,0,0,1.34h6l-3.11,2a.68.68,0,0,0-.2.93.67.67,0,0,0,.56.31.7.7,0,0,0,.37-.11l4.84-3.16H451l-3.1,2a.67.67,0,0,0-.19.93.65.65,0,0,0,.56.31.72.72,0,0,0,.37-.11l4.81-3.16h1.82l-6.86,6.87a.66.66,0,0,0,0,1,.67.67,0,0,0,.47.2.69.69,0,0,0,.48-.2l6.55-6.56v1.34L453,365a.67.67,0,0,0,.23.92.64.64,0,0,0,.35.1.68.68,0,0,0,.58-.33l1.78-3v1.13L453,369.06a.66.66,0,0,0,.26.91.66.66,0,0,0,.91-.25l1.78-3.16v6.38a.68.68,0,0,0,.68.68.67.67,0,0,0,.67-.68v-6.62l2.24,3.44a.68.68,0,0,0,1.13-.74l-3.37-5.17v-1.56l2.24,3.42a.67.67,0,0,0,.93.2.68.68,0,0,0,.2-.93l-3.37-5.14v-1.13l6.58,6.58a.69.69,0,0,0,.48.2.67.67,0,0,0,.47-.2.66.66,0,0,0,0-1L458,357.47h2l5.06,3.17a.74.74,0,0,0,.35.1.65.65,0,0,0,.57-.32.68.68,0,0,0-.21-.93l-3.23-2H464l5.06,3.17a.78.78,0,0,0,.36.1.67.67,0,0,0,.57-.32.68.68,0,0,0-.22-.93l-3.23-2h5.71a.67.67,0,1,0,0-1.34h-5.92l3.43-2a.67.67,0,1,0-.68-1.16l-5.39,3.14,0,0h-1.38l3.42-2A.67.67,0,1,0,465,353Z" style="opacity:0.1"></path><path d="M249.07,371.49l-5.39,3.15h-1.09l6.27-6.27a.66.66,0,0,0,0-.95.68.68,0,0,0-1,0L241.33,374v-1.46h0l3.37-5.39a.66.66,0,0,0-.21-.92.67.67,0,0,0-.93.21L241.33,370V368.5h0l3.37-5.39a.67.67,0,0,0-.21-.93.68.68,0,0,0-.93.22L241.33,366V360.2a.67.67,0,0,0-.67-.67.68.68,0,0,0-.68.67v5.27l-1.78-3.06a.67.67,0,0,0-1.16.68l2.94,5.05v1.38l-1.78-3.06a.67.67,0,1,0-1.16.67l2.94,5.06V374l-6.55-6.56a.68.68,0,0,0-1,0,.66.66,0,0,0,0,.95l6.27,6.27h-.81l-.05,0-5.21-3.1a.67.67,0,1,0-.69,1.15l3.36,2h-1.21a.66.66,0,0,0-.15-.14l-5.37-3a.67.67,0,0,0-.66,1.17l3.54,2H225a.68.68,0,0,0-.67.68.67.67,0,0,0,.67.67h6l-3.11,2a.68.68,0,0,0-.2.93.66.66,0,0,0,.56.3.62.62,0,0,0,.37-.11L233.5,376h1.57l-3.1,2a.66.66,0,0,0-.19.93.67.67,0,0,0,.93.19l4.81-3.15h1.82l-6.86,6.86a.67.67,0,0,0,0,1,.66.66,0,0,0,.47.19.68.68,0,0,0,.48-.19l6.55-6.56v1.33L237,383.53a.67.67,0,0,0,.23.92.73.73,0,0,0,.35.09.66.66,0,0,0,.58-.33l1.78-3v1.12L237,387.58a.67.67,0,0,0,.26.92.66.66,0,0,0,.33.09.67.67,0,0,0,.58-.35l1.78-3.15v6.38a.68.68,0,0,0,.68.67.67.67,0,0,0,.67-.67v-6.62l2.24,3.43a.67.67,0,0,0,1.13-.73l-3.37-5.17v-1.56l2.24,3.42a.66.66,0,0,0,.93.19.68.68,0,0,0,.2-.93l-3.37-5.14v-1.13l6.58,6.59a.68.68,0,0,0,.48.19.66.66,0,0,0,.47-.19.67.67,0,0,0,0-1L242,376h2l5.06,3.16a.64.64,0,0,0,.35.1A.66.66,0,0,0,250,379a.68.68,0,0,0-.21-.93l-3.23-2H248l5.06,3.16a.67.67,0,1,0,.71-1.14l-3.23-2h5.71a.68.68,0,0,0,.68-.67.69.69,0,0,0-.68-.68h-5.92l3.43-2a.68.68,0,0,0-.68-1.17l-5.39,3.15h-1.4l3.42-2a.67.67,0,0,0,.24-.92A.66.66,0,0,0,249.07,371.49Z" style="opacity:0.1"></path><path d="M55.07,395.49l-5.39,3.15H48.59l6.27-6.27a.66.66,0,0,0,0-.95.68.68,0,0,0-1,0L47.33,398v-1.46h0l3.37-5.39a.66.66,0,0,0-.21-.92.67.67,0,0,0-.93.21L47.33,394V392.5h0l3.37-5.39a.67.67,0,0,0-.21-.93.68.68,0,0,0-.93.22L47.33,390V384.2a.67.67,0,0,0-.67-.67.68.68,0,0,0-.68.67v5.27l-1.78-3.06a.67.67,0,0,0-1.16.68L46,392.14v1.38l-1.78-3.06a.67.67,0,1,0-1.16.67L46,396.19V398l-6.55-6.56a.68.68,0,0,0-1,0,.66.66,0,0,0,0,.95l6.27,6.27h-.81l0,0-5.21-3.1a.67.67,0,0,0-.69,1.15l3.36,2H40.14a.66.66,0,0,0-.15-.14l-5.37-3a.67.67,0,0,0-.66,1.17l3.54,2H31a.68.68,0,0,0-.67.68A.67.67,0,0,0,31,400h6l-3.11,2a.68.68,0,0,0-.2.93.66.66,0,0,0,.56.3.62.62,0,0,0,.37-.11L39.5,400h1.57L38,402a.66.66,0,0,0-.19.93.67.67,0,0,0,.93.19L43.52,400h1.82l-6.86,6.86a.67.67,0,0,0,0,1A.66.66,0,0,0,39,408a.68.68,0,0,0,.48-.19L46,401.26v1.33L43,407.53a.67.67,0,0,0,.23.92.73.73,0,0,0,.35.09.66.66,0,0,0,.58-.33l1.78-3v1.12L43,411.58a.67.67,0,0,0,.26.92.66.66,0,0,0,.33.09.67.67,0,0,0,.58-.35L46,409.09v6.38a.68.68,0,0,0,.68.67.67.67,0,0,0,.67-.67v-6.62l2.24,3.43a.67.67,0,0,0,1.13-.73l-3.37-5.17v-1.56l2.24,3.42a.66.66,0,0,0,.93.19.68.68,0,0,0,.2-.93l-3.37-5.14v-1.13l6.58,6.59a.68.68,0,0,0,.48.19.66.66,0,0,0,.47-.19.67.67,0,0,0,0-1L48,400h2l5.06,3.16a.64.64,0,0,0,.35.1A.66.66,0,0,0,56,403a.68.68,0,0,0-.21-.93l-3.23-2H54l5.06,3.16a.67.67,0,1,0,.71-1.14l-3.23-2h5.71a.68.68,0,0,0,.68-.67.69.69,0,0,0-.68-.68H56.37l3.43-2a.68.68,0,0,0-.68-1.17l-5.39,3.15h-1.4l3.42-2a.67.67,0,0,0,.24-.92A.66.66,0,0,0,55.07,395.49Z" style="opacity:0.1"></path><path d="M397.74,236.68l-5.39,3.14v0h-1.08l6.27-6.28a.66.66,0,0,0,0-.95.68.68,0,0,0-.95,0L390,239.19v-1.46h0l3.37-5.4a.66.66,0,0,0-.21-.92.67.67,0,0,0-.93.21L390,235.19v-1.5h0l3.37-5.39a.67.67,0,0,0-.21-.93.68.68,0,0,0-.93.22L390,231.15v-5.77a.67.67,0,0,0-.67-.67.68.68,0,0,0-.68.67v5.27l-1.78-3.06a.67.67,0,1,0-1.16.68l2.94,5v1.38l-1.78-3.06a.67.67,0,1,0-1.16.68l2.94,5.05v1.8l-6.55-6.56a.68.68,0,0,0-1,0,.66.66,0,0,0,0,.95l6.27,6.28h-.81l-.05-.06-5.21-3.1a.67.67,0,0,0-.92.23.68.68,0,0,0,.23.93l3.36,2h-1.21a.71.71,0,0,0-.15-.15l-5.37-3a.67.67,0,0,0-.66,1.17l3.54,2h-6.48a.67.67,0,0,0,0,1.34h6l-3.11,2a.68.68,0,0,0-.2.93.66.66,0,0,0,.56.3.69.69,0,0,0,.37-.1l4.84-3.16h1.57l-3.1,2a.66.66,0,0,0-.19.93.67.67,0,0,0,.93.19l4.81-3.15H388l-6.86,6.87a.67.67,0,0,0,.47,1.14.68.68,0,0,0,.48-.19l6.55-6.56v1.33l-2.94,4.94a.67.67,0,0,0,.23.92.73.73,0,0,0,.35.09.67.67,0,0,0,.58-.32l1.78-3v1.13l-2.95,5.24a.66.66,0,0,0,.26.91.66.66,0,0,0,.91-.25l1.78-3.16v6.38a.68.68,0,0,0,.68.67.67.67,0,0,0,.67-.67V250l2.24,3.43a.67.67,0,1,0,1.13-.73L390,247.56V246l2.24,3.42a.66.66,0,0,0,.93.19.68.68,0,0,0,.2-.93L390,243.54v-1.12l6.58,6.58a.68.68,0,0,0,.48.19.67.67,0,0,0,.47-1.14l-6.86-6.87h2l5.06,3.16a.64.64,0,0,0,.35.1.66.66,0,0,0,.57-.31.68.68,0,0,0-.21-.93l-3.23-2h1.5l5.06,3.16a.67.67,0,1,0,.71-1.14l-3.23-2H405a.67.67,0,1,0,0-1.34H399l3.43-2a.67.67,0,0,0-.68-1.16l-5.39,3.14,0,0H395l3.42-2a.67.67,0,0,0-.68-1.16Z" style="opacity:0.1"></path><path d="M418.74,332.13l-5.39,3.15h-1.09l6.27-6.27a.67.67,0,0,0-.95-.95L411,334.65v-1.46h0l3.37-5.39a.67.67,0,0,0-.21-.93.68.68,0,0,0-.93.22L411,330.65v-1.51h0l3.37-5.39a.67.67,0,0,0-.21-.93.68.68,0,0,0-.93.21L411,326.61v-5.77a.67.67,0,0,0-.67-.68.68.68,0,0,0-.68.68v5.27l-1.78-3.06a.67.67,0,0,0-1.16.68l2.94,5v1.37l-1.78-3.06a.67.67,0,1,0-1.16.68l2.94,5.05v1.8l-6.55-6.55a.67.67,0,1,0-1,.95l6.27,6.27h-.81l-.05-.05-5.21-3.11a.67.67,0,0,0-.69,1.16l3.36,2h-1.21a.66.66,0,0,0-.15-.14l-5.37-3a.66.66,0,0,0-.91.25.68.68,0,0,0,.25.92l3.54,2h-6.48a.68.68,0,0,0,0,1.35h6l-3.11,2a.69.69,0,0,0-.2.94.68.68,0,0,0,.56.3.62.62,0,0,0,.37-.11l4.84-3.15h1.57l-3.1,2a.67.67,0,0,0,.37,1.23.64.64,0,0,0,.37-.11l4.81-3.15H409l-6.86,6.86a.66.66,0,0,0,0,.95.63.63,0,0,0,.47.2.65.65,0,0,0,.48-.2l6.55-6.55v1.33l-2.94,4.93a.68.68,0,0,0,.23.93.73.73,0,0,0,.35.09.68.68,0,0,0,.58-.33l1.78-3V343l-2.95,5.24a.67.67,0,0,0,.26.92.66.66,0,0,0,.33.09.67.67,0,0,0,.58-.35l1.78-3.16v6.39a.68.68,0,0,0,.68.67.67.67,0,0,0,.67-.67v-6.63l2.24,3.44a.68.68,0,0,0,.93.2.69.69,0,0,0,.2-.94L411,343v-1.56l2.24,3.42a.68.68,0,0,0,1.13-.74L411,339v-1.13l6.58,6.58a.65.65,0,0,0,.48.2.63.63,0,0,0,.47-.2.66.66,0,0,0,0-.95l-6.86-6.86h2l5.06,3.16a.67.67,0,0,0,.92-.22.66.66,0,0,0-.21-.92l-3.23-2h1.5l5.06,3.16a.68.68,0,0,0,.36.1.67.67,0,0,0,.57-.32.66.66,0,0,0-.22-.92l-3.23-2H426a.68.68,0,1,0,0-1.35H420l3.43-2a.67.67,0,0,0-.68-1.16l-5.39,3.15H416l3.42-2a.67.67,0,0,0-.68-1.16Z" style="opacity:0.1"></path><path d="M146.39,219.85,141,223h-1.09l6.27-6.27a.67.67,0,0,0-1-1l-6.58,6.58v-1.46h0l3.37-5.39a.67.67,0,0,0-1.14-.71l-2.23,3.57v-1.51h0l3.37-5.39a.67.67,0,1,0-1.14-.71l-2.23,3.57v-5.77a.68.68,0,0,0-1.35,0v5.27l-1.78-3.06a.67.67,0,0,0-.92-.24.68.68,0,0,0-.25.92l3,5.05v1.38l-1.78-3.06a.65.65,0,0,0-.92-.24.68.68,0,0,0-.25.92l3,5.05v1.8l-6.55-6.56a.69.69,0,0,0-1,0,.68.68,0,0,0,0,1l6.28,6.27h-.81l0,0-5.21-3.1a.67.67,0,1,0-.69,1.15l3.35,2h-1.21a.41.41,0,0,0-.15-.14l-5.36-3a.67.67,0,0,0-.66,1.17l3.54,2h-6.48a.68.68,0,0,0-.67.68.67.67,0,0,0,.67.67h6l-3.11,2a.67.67,0,0,0-.19.93.66.66,0,0,0,.56.3.62.62,0,0,0,.37-.11l4.84-3.15h1.56l-3.09,2a.67.67,0,0,0,.37,1.23.66.66,0,0,0,.37-.11l4.81-3.15h1.82l-6.87,6.87a.68.68,0,0,0,0,1,.7.7,0,0,0,1,0l6.55-6.56V227l-2.94,4.94a.67.67,0,0,0,.23.92.73.73,0,0,0,.35.09.65.65,0,0,0,.57-.33l1.79-3v1.13l-3,5.23a.67.67,0,0,0,.26.92.63.63,0,0,0,.33.09.67.67,0,0,0,.58-.35l1.78-3.15v6.38a.68.68,0,0,0,1.35,0v-6.62l2.24,3.43a.68.68,0,0,0,.93.2.66.66,0,0,0,.19-.93l-3.36-5.17v-1.56l2.24,3.42a.67.67,0,1,0,1.12-.74l-3.36-5.14v-1.13l6.58,6.59a.69.69,0,0,0,1,0,.68.68,0,0,0,0-1l-6.86-6.87h2l5.05,3.16a.67.67,0,0,0,.72-1.14l-3.23-2h1.5l5.06,3.16a.64.64,0,0,0,.35.1.69.69,0,0,0,.58-.31.68.68,0,0,0-.22-.93l-3.23-2h5.71a.67.67,0,0,0,.67-.67.68.68,0,0,0-.67-.68h-5.92l3.42-2a.68.68,0,0,0,.25-.92.67.67,0,0,0-.92-.25L145,223h-1.39l3.42-2a.68.68,0,0,0-.68-1.17Z" style="opacity:0.1"></path><path d="M413.09,67.15l-5.39,3.14,0,0h-1.07L412.88,64a.69.69,0,0,0,0-1,.68.68,0,0,0-.95,0l-6.58,6.59V68.2h0l3.37-5.39a.67.67,0,1,0-1.14-.72l-2.23,3.58V64.16h0l3.37-5.4a.66.66,0,0,0-.21-.92.68.68,0,0,0-.93.21l-2.23,3.57V55.85a.68.68,0,0,0-.68-.67.67.67,0,0,0-.67.67v5.28l-1.78-3.06a.68.68,0,0,0-1.17.68l2.95,5v1.37l-1.78-3.06a.68.68,0,0,0-1.17.68L404,67.84v1.8l-6.56-6.56a.68.68,0,0,0-.95,0,.69.69,0,0,0,0,1l6.28,6.27H402s0,0-.05,0l-5.2-3.11a.66.66,0,0,0-.92.24.67.67,0,0,0,.23.92l3.35,2h-1.21a.71.71,0,0,0-.15-.15l-5.36-3a.68.68,0,0,0-.92.26.69.69,0,0,0,.26.92l3.54,2H389a.68.68,0,0,0-.68.67.69.69,0,0,0,.68.68h6l-3.11,2a.68.68,0,0,0,.37,1.24.72.72,0,0,0,.37-.11l4.84-3.15h1.56l-3.09,2a.68.68,0,0,0-.2.94.67.67,0,0,0,.93.19l4.82-3.15h1.82l-6.87,6.86a.68.68,0,0,0,0,1,.69.69,0,0,0,.48.2.67.67,0,0,0,.47-.2L404,72.92v1.33l-2.94,4.93a.67.67,0,0,0,.23.92.63.63,0,0,0,.34.1.67.67,0,0,0,.58-.33l1.79-3V78l-2.95,5.24a.68.68,0,0,0,.25.92.69.69,0,0,0,.92-.26L404,80.74v6.39a.67.67,0,0,0,.67.67.68.68,0,0,0,.68-.67V80.5l2.24,3.44a.67.67,0,0,0,1.12-.74L405.35,78V76.47l2.24,3.42a.67.67,0,1,0,1.12-.73L405.35,74V72.89l6.58,6.58a.66.66,0,0,0,.95,0,.68.68,0,0,0,0-1L406,71.66h2l5.05,3.16a.68.68,0,0,0,.36.1.67.67,0,0,0,.36-1.24l-3.24-2h1.51l5.06,3.16a.67.67,0,0,0,.92-.22.66.66,0,0,0-.21-.92l-3.23-2h5.71A.68.68,0,0,0,421,71a.67.67,0,0,0-.67-.67h-5.92l3.42-2a.67.67,0,1,0-.68-1.16l-5.39,3.14v0h-1.39l3.43-2a.67.67,0,1,0-.68-1.16Z" style="opacity:0.1"></path><path d="M75.31,251.76l-5.39,3.15H68.83l6.27-6.27a.66.66,0,0,0,0-1,.68.68,0,0,0-.95,0l-6.58,6.58v-1.46h0l3.37-5.39a.67.67,0,1,0-1.14-.71l-2.23,3.57v-1.51h0l3.37-5.39a.67.67,0,0,0-1.14-.72l-2.23,3.58v-5.77a.68.68,0,0,0-1.35,0v5.27l-1.78-3.06a.67.67,0,1,0-1.16.68l2.94,5v1.38l-1.78-3.06a.67.67,0,1,0-1.16.67l2.94,5.06v1.79l-6.55-6.55a.68.68,0,0,0-1,0,.66.66,0,0,0,0,1L65,254.92h-.81s0,0-.05,0l-5.21-3.1a.67.67,0,0,0-.69,1.15l3.36,2H60.38a.66.66,0,0,0-.15-.14l-5.37-3A.67.67,0,0,0,54,252a.68.68,0,0,0,.25.92l3.54,2H51.26a.68.68,0,0,0,0,1.35h6l-3.11,2a.67.67,0,0,0,.36,1.23.62.62,0,0,0,.37-.11l4.84-3.15H61.3l-3.09,2a.66.66,0,0,0-.19.93.67.67,0,0,0,.93.19l4.81-3.15h1.82l-6.86,6.86a.67.67,0,0,0,0,1,.66.66,0,0,0,.47.19.68.68,0,0,0,.48-.19l6.55-6.56v1.33l-2.94,4.93a.68.68,0,0,0,.23.93.73.73,0,0,0,.35.09.66.66,0,0,0,.58-.33l1.78-3v1.12l-2.95,5.24a.67.67,0,0,0,.26.92.63.63,0,0,0,.33.09.67.67,0,0,0,.58-.35l1.78-3.16v6.39a.68.68,0,0,0,1.35,0v-6.63l2.24,3.44a.67.67,0,1,0,1.13-.73l-3.37-5.17v-1.56l2.24,3.42a.68.68,0,0,0,1.13-.74l-3.37-5.14V257.5l6.58,6.59a.68.68,0,0,0,.48.19.66.66,0,0,0,.47-.19.67.67,0,0,0,0-1l-6.86-6.86h2l5.06,3.16a.64.64,0,0,0,.35.1.66.66,0,0,0,.57-.31.68.68,0,0,0-.21-.93l-3.23-2h1.5l5.06,3.16a.65.65,0,0,0,.36.1.67.67,0,0,0,.35-1.24l-3.23-2h5.71a.68.68,0,1,0,0-1.35H76.61l3.43-2a.68.68,0,0,0-.68-1.17L74,254.91h-1.4l3.42-2a.67.67,0,0,0,.24-.92A.66.66,0,0,0,75.31,251.76Z" style="opacity:0.1"></path></g></svg>