<svg xmlns="http://www.w3.org/2000/svg" viewBox="0 0 500 500"><g id="background-simple"><path d="M455.2,192.7a264.57,264.57,0,0,0-9.75-29.33C418.75,96.51,361.51,46.07,290.2,32,219.32,18.1,96.69,37.23,78.79,123.51c-3.71,17.86-.25,36.34-.34,54.58-.18,34.71-15,60.17-31.19,89.42-12.17,22-22.53,47.3-16.76,71.79,3.75,15.89,14,29.56,25.87,40.76,40.24,37.9,94.13,45.66,147,37,25-4.1,49.45-15.05,74.22-18.15,31.72-4,63.75,6.22,95.33-.7,30.32-6.64,56-28.72,70.94-55.91C468.75,297,468.33,241.48,455.2,192.7Z" style="fill:#92E3A9"></path><path d="M455.2,192.7a264.57,264.57,0,0,0-9.75-29.33C418.75,96.51,361.51,46.07,290.2,32,219.32,18.1,96.69,37.23,78.79,123.51c-3.71,17.86-.25,36.34-.34,54.58-.18,34.71-15,60.17-31.19,89.42-12.17,22-22.53,47.3-16.76,71.79,3.75,15.89,14,29.56,25.87,40.76,40.24,37.9,94.13,45.66,147,37,25-4.1,49.45-15.05,74.22-18.15,31.72-4,63.75,6.22,95.33-.7,30.32-6.64,56-28.72,70.94-55.91C468.75,297,468.33,241.48,455.2,192.7Z" style="fill:#fff;opacity:0.7000000000000001"></path></g><g id="Device"><rect x="96.08" y="92.2" width="350.56" height="180.79" rx="20.5" style="fill:#fff;stroke:#263238;stroke-miterlimit:10"></rect><path d="M434.17,87.34H423.4V84H392.8v3.34h-6.95V84h-30.6v3.34h-7V84h-30.6v3.34H108.54a19.93,19.93,0,0,0-19.92,19.93V257.93a19.92,19.92,0,0,0,19.92,19.93H368.32v2.39h30.6v-2.39h35.25a19.92,19.92,0,0,0,19.92-19.93V107.27A19.93,19.93,0,0,0,434.17,87.34Zm12.47,42.88-8.76,5.88a9.52,9.52,0,0,0-4.2,7.89v77.22a9.52,9.52,0,0,0,4.2,7.89l8.76,5.88v18.09A19.93,19.93,0,0,1,426.71,273H116a19.92,19.92,0,0,1-19.92-19.93V112.13A19.93,19.93,0,0,1,116,92.2H426.71a19.94,19.94,0,0,1,19.93,19.93Z" style="fill:#263238;stroke:#263238;stroke-miterlimit:10"></path><rect x="112.84" y="217.13" width="95.94" height="48.99" style="fill:none;stroke:#263238;stroke-miterlimit:10"></rect><polygon points="171.35 240.06 150.84 230.37 150.84 249.76 171.35 240.06" style="fill:#fff;stroke:#263238;stroke-miterlimit:10"></polygon><rect x="222.57" y="217.13" width="95.94" height="48.99" style="fill:none;stroke:#263238;stroke-miterlimit:10"></rect><polygon points="281.08 240.06 260.57 230.37 260.57 249.76 281.08 240.06" style="fill:#fff;stroke:#263238;stroke-miterlimit:10"></polygon><rect x="332.29" y="217.13" width="95.94" height="48.99" style="fill:none;stroke:#263238;stroke-miterlimit:10"></rect><polygon points="390.8 240.06 370.29 230.37 370.29 249.76 390.8 240.06" style="fill:#fff;stroke:#263238;stroke-miterlimit:10"></polygon><rect x="112.91" y="197.26" width="313.55" height="7.96" style="fill:none;stroke:#263238;stroke-miterlimit:10"></rect><rect x="112.91" y="197.26" width="58.79" height="7.96" style="fill:#92E3A9;stroke:#263238;stroke-miterlimit:10"></rect><polyline points="105.56 192.97 195.99 137.75 292.96 191.14 365.83 131.12 427.69 184.4" style="fill:none;stroke:#263238;stroke-miterlimit:10"></polyline><polyline points="156.46 161.73 172.66 157.19 184.97 165.62 199.23 156.55 210.89 162.38 218.67 156.55 230.84 156.97" style="fill:none;stroke:#263238;stroke-miterlimit:10"></polyline><polyline points="337.9 154.6 354.1 161.73 363.82 151.36 374.19 159.79 385.85 148.77" style="fill:none;stroke:#263238;stroke-miterlimit:10"></polyline><path d="M135.3,129.28h62.18s0-3.77-1.88-5.18a3.41,3.41,0,0,0-1.29-.52,12,12,0,0,1-8.27-6.17,7.31,7.31,0,0,0-5.52-4.14c-7.54-1.42-6.59,5.18-10.83,5.65s-7.07-8-14.14-8-9.42,11.31-9.42,11.31-4.71-5.19-8.95.47S135.3,129.28,135.3,129.28Z" style="fill:#fff;stroke:#263238;stroke-miterlimit:10"></path><path d="M268,129.28h29s0-1.76-.88-2.42a1.75,1.75,0,0,0-.6-.24,5.6,5.6,0,0,1-3.86-2.88,3.42,3.42,0,0,0-2.58-1.93c-3.51-.66-3.07,2.42-5.05,2.64s-3.3-3.74-6.6-3.74-4.39,5.27-4.39,5.27-2.2-2.41-4.18.22S268,129.28,268,129.28Z" style="fill:#fff;stroke:#263238;stroke-miterlimit:10"></path><path d="M112.43,129.28h29s0-1.76-.88-2.42a1.75,1.75,0,0,0-.6-.24,5.58,5.58,0,0,1-3.86-2.88,3.42,3.42,0,0,0-2.58-1.93c-3.51-.66-3.07,2.42-5.05,2.64s-3.3-3.74-6.6-3.74-4.4,5.27-4.4,5.27-2.19-2.41-4.17.22S112.43,129.28,112.43,129.28Z" style="fill:#fff;stroke:#263238;stroke-miterlimit:10"></path><path d="M347.68,149.76c0,16.76-4.57,30.35-10.21,30.35s-10.22-13.59-10.22-30.35S331.83,103,337.47,103,347.68,133,347.68,149.76Z" style="fill:#92E3A9;stroke:#263238;stroke-miterlimit:10"></path><polygon points="335.83 196.65 337.05 123.77 339.5 197.26 335.83 196.65" style="fill:#263238"></polygon><path d="M251.07,162c0,12.46-3.4,22.56-7.59,22.56s-7.6-10.1-7.6-22.56,3.4-34.8,7.6-34.8S251.07,149.48,251.07,162Z" style="fill:#92E3A9;stroke:#263238;stroke-miterlimit:10"></path><polygon points="242.26 196.81 243.17 142.63 244.99 197.26 242.26 196.81" style="fill:#263238"></polygon><path d="M417.61,162c0,12.46-3.4,22.56-7.6,22.56s-7.59-10.1-7.59-22.56,3.4-34.8,7.59-34.8S417.61,149.48,417.61,162Z" style="fill:#92E3A9;stroke:#263238;stroke-miterlimit:10"></path><polygon points="408.8 196.81 409.71 142.63 411.53 197.26 408.8 196.81" style="fill:#263238"></polygon></g><g id="Icon"><g style="opacity:0.30000000000000004"><path d="M272.27,50.7V28.34a3.57,3.57,0,0,1,3.57-3.57h19.38a3.57,3.57,0,0,1,3.57,3.57V73.65a3.57,3.57,0,0,1-3.57,3.58H275.84" style="fill:none;stroke:#000;stroke-miterlimit:10"></path><polyline points="274.64 50.7 274.64 30.44 296.4 30.44 296.4 71.57 279.42 71.57" style="fill:none;stroke:#000;stroke-miterlimit:10"></polyline><rect x="226.96" y="50.7" width="52.46" height="26.53" rx="2.57" style="fill:none;stroke:#000;stroke-miterlimit:10"></rect><rect x="232.62" y="53.09" width="41.13" height="21.76" style="fill:none;stroke:#000;stroke-miterlimit:10"></rect><path d="M268.55,30.79a17.12,17.12,0,0,0-12.68,13.66" style="fill:none;stroke:#000;stroke-linecap:round;stroke-miterlimit:10"></path><polygon points="256 48.08 258.77 43.28 253.23 43.28 256 48.08" style="stroke:#000;stroke-miterlimit:10"></polygon></g></g><g id="Floor"><line x1="29" y1="455.1" x2="478" y2="455.1" style="fill:none;stroke:#263238;stroke-miterlimit:10"></line></g><g id="Sofa"><rect x="220.79" y="298.19" width="106.77" height="101.15" rx="11.67" style="fill:#fff;stroke:#b2b2b2;stroke-miterlimit:10"></rect><rect x="114.03" y="298.19" width="106.77" height="101.15" rx="11.67" style="fill:#fff;stroke:#b2b2b2;stroke-miterlimit:10"></rect><path d="M174.64,342.47s-39.16,10.8-45.92,14.18-12.15,6.08-9.45,8.1,17.56,17.56,29.71,23,32.41,0,52,1.35,29.7-1.35,29.7-3.38-8.1-18.23-20.93-27.68a176.48,176.48,0,0,0-27.68-16.2S176,337.07,174.64,342.47Z" style="fill:#fff;stroke:#b2b2b2;stroke-miterlimit:10"></path><polygon points="117.21 341.79 123.15 386.75 115.2 386.75 117.21 341.79" style="fill:#b2b2b2;stroke:#b2b2b2;stroke-miterlimit:10"></polygon><rect x="327.56" y="298.19" width="106.77" height="101.15" rx="11.67" style="fill:#fff;stroke:#b2b2b2;stroke-miterlimit:10"></rect><path d="M432.39,338.11s-17.55-3-26.57-5-26.06-3-26.06-3-3.51,1-3,3a34.36,34.36,0,0,1,.5,6s-4.51,16-9,26.06-8,17-8,17-6.51,2.51-2.5,4.51,14.53,2,14.53,2h63.15l1-43.61Z" style="fill:#fff;stroke:#b2b2b2;stroke-miterlimit:10"></path><polygon points="111.62 462.91 437.42 462.91 437.42 396.15 114.59 396.15 111.62 462.91" style="fill:#fff;stroke:#b2b2b2;stroke-miterlimit:10"></polygon><path d="M109.58,408s82.84-1,112.92-1,85.79,1.27,99.6,1.27,110,.62,110,.62l.17-5.64-324.61-2.28Z" style="fill:#b2b2b2;stroke:#b2b2b2;stroke-miterlimit:10"></path><path d="M108.49,404.91s232.32,2,246.53,2,76.62-1.07,76.62-1.07V387.12S270.37,389,264.2,389s-135.32-4-140.26-4.38-15.45,0-15.45,0Z" style="fill:#fff;stroke:#b2b2b2;stroke-miterlimit:10"></path><rect x="430.65" y="337.61" width="29.87" height="126.49" rx="7" style="fill:#fff;stroke:#b2b2b2;stroke-miterlimit:10"></rect><rect x="87.34" y="337.61" width="29.87" height="126.49" rx="7" style="fill:#fff;stroke:#b2b2b2;stroke-miterlimit:10"></rect></g><g id="Plant"><line x1="39.88" y1="313.2" x2="51.43" y2="423.85" style="fill:none;stroke:#b2b2b2;stroke-linecap:round;stroke-linejoin:round"></line><line x1="49.15" y1="402.22" x2="44.33" y2="397.15" style="fill:none;stroke:#b2b2b2;stroke-linecap:round;stroke-linejoin:round"></line><path d="M45.92,398.8a5.94,5.94,0,0,0-2.08-4.44c-1.35-1.2-8.42-4.17-9.09-1.68C34,395.39,41.26,400.71,45.92,398.8Z" style="fill:#fff;stroke:#b2b2b2;stroke-miterlimit:10"></path><line x1="45.92" y1="398.8" x2="39.19" y2="394.61" style="fill:none;stroke:#b2b2b2;stroke-linecap:round;stroke-linejoin:round"></line><line x1="50.35" y1="413.64" x2="45.64" y2="409.73" style="fill:none;stroke:#b2b2b2;stroke-linecap:round;stroke-linejoin:round"></line><path d="M47.23,411.39A5.92,5.92,0,0,0,45.15,407c-1.34-1.2-8.42-4.18-9.09-1.69C35.33,408,42.57,413.29,47.23,411.39Z" style="fill:#fff;stroke:#b2b2b2;stroke-miterlimit:10"></path><line x1="47.23" y1="411.39" x2="40.5" y2="407.19" style="fill:none;stroke:#b2b2b2;stroke-linecap:round;stroke-linejoin:round"></line><line x1="45.88" y1="370.72" x2="41.12" y2="366.44" style="fill:none;stroke:#b2b2b2;stroke-linecap:round;stroke-linejoin:round"></line><path d="M42.72,368.1a5.91,5.91,0,0,0-2.09-4.44c-1.34-1.2-8.41-4.18-9.08-1.69C30.82,364.68,38.05,370,42.72,368.1Z" style="fill:#fff;stroke:#b2b2b2;stroke-miterlimit:10"></path><line x1="42.72" y1="368.1" x2="35.98" y2="363.9" style="fill:none;stroke:#b2b2b2;stroke-linecap:round;stroke-linejoin:round"></line><line x1="47.2" y1="384.1" x2="42.44" y2="379.02" style="fill:none;stroke:#b2b2b2;stroke-linecap:round;stroke-linejoin:round"></line><path d="M44,380.68A5.92,5.92,0,0,0,42,376.24c-1.35-1.2-8.42-4.18-9.09-1.68C32.13,377.26,39.37,382.58,44,380.68Z" style="fill:#fff;stroke:#b2b2b2;stroke-miterlimit:10"></path><line x1="44.03" y1="380.68" x2="37.3" y2="376.49" style="fill:none;stroke:#b2b2b2;stroke-linecap:round;stroke-linejoin:round"></line><line x1="43.76" y1="350.86" x2="38.99" y2="346" style="fill:none;stroke:#b2b2b2;stroke-linecap:round;stroke-linejoin:round"></line><path d="M40.58,347.65a5.94,5.94,0,0,0-2.08-4.44c-1.35-1.2-8.42-4.17-9.09-1.68C28.68,344.24,35.92,349.56,40.58,347.65Z" style="fill:#fff;stroke:#b2b2b2;stroke-miterlimit:10"></path><line x1="40.58" y1="347.65" x2="33.85" y2="343.46" style="fill:none;stroke:#b2b2b2;stroke-linecap:round;stroke-linejoin:round"></line><line x1="41.46" y1="329" x2="36.85" y2="325.47" style="fill:none;stroke:#b2b2b2;stroke-linecap:round;stroke-linejoin:round"></line><path d="M38.44,327.12a5.94,5.94,0,0,0-2.08-4.44c-1.35-1.2-8.42-4.17-9.09-1.68C26.54,323.71,33.78,329,38.44,327.12Z" style="fill:#fff;stroke:#b2b2b2;stroke-miterlimit:10"></path><line x1="38.44" y1="327.12" x2="31.71" y2="322.93" style="fill:none;stroke:#b2b2b2;stroke-linecap:round;stroke-linejoin:round"></line><line x1="48.68" y1="395.23" x2="52.67" y2="388.74" style="fill:none;stroke:#b2b2b2;stroke-linecap:round;stroke-linejoin:round"></line><path d="M51.45,390.69a6,6,0,0,1,1.12-4.78c1.07-1.45,7.37-5.82,8.55-3.52C62.39,384.89,56.41,391.59,51.45,390.69Z" style="fill:#fff;stroke:#b2b2b2;stroke-miterlimit:10"></path><line x1="51.45" y1="390.69" x2="56.19" y2="386.24" style="fill:none;stroke:#b2b2b2;stroke-linecap:round;stroke-linejoin:round"></line><line x1="45.23" y1="362.12" x2="49.21" y2="355.62" style="fill:none;stroke:#b2b2b2;stroke-linecap:round;stroke-linejoin:round"></line><path d="M48,357.57a5.91,5.91,0,0,1,1.13-4.77c1.06-1.45,6-5.09,7.17-2.79C57.56,352.51,53,358.47,48,357.57Z" style="fill:#fff;stroke:#b2b2b2;stroke-miterlimit:10"></path><line x1="47.99" y1="357.57" x2="54.06" y2="351.78" style="fill:none;stroke:#b2b2b2;stroke-linecap:round;stroke-linejoin:round"></line><line x1="43.71" y1="347.56" x2="47.69" y2="341.07" style="fill:none;stroke:#b2b2b2;stroke-linecap:round;stroke-linejoin:round"></line><path d="M46.48,343a5.88,5.88,0,0,1,1.12-4.77c1.06-1.46,7.37-5.83,8.54-3.53C57.41,337.22,51.43,343.92,46.48,343Z" style="fill:#fff;stroke:#b2b2b2;stroke-miterlimit:10"></path><line x1="46.48" y1="343.02" x2="52.54" y2="337.23" style="fill:none;stroke:#b2b2b2;stroke-linecap:round;stroke-linejoin:round"></line><line x1="41.48" y1="326.23" x2="45.46" y2="319.74" style="fill:none;stroke:#b2b2b2;stroke-linecap:round;stroke-linejoin:round"></line><path d="M44.25,321.69a6,6,0,0,1,1.12-4.78c1.07-1.45,7.37-5.82,8.54-3.52C55.19,315.89,49.2,322.59,44.25,321.69Z" style="fill:#fff;stroke:#b2b2b2;stroke-miterlimit:10"></path><line x1="44.25" y1="321.69" x2="50.31" y2="315.89" style="fill:none;stroke:#b2b2b2;stroke-linecap:round;stroke-linejoin:round"></line><path d="M39.78,312.59a6,6,0,0,1,1.12-4.78c1.07-1.45,7.37-5.82,8.55-3.52C50.72,306.79,44.74,313.49,39.78,312.59Z" style="fill:#fff;stroke:#b2b2b2;stroke-miterlimit:10"></path><line x1="39.78" y1="312.59" x2="45.84" y2="306.79" style="fill:none;stroke:#b2b2b2;stroke-linecap:round;stroke-linejoin:round"></line><path d="M40.13,312.84a5.92,5.92,0,0,1-4.63-1.62c-1.33-1.21-5-7.94-2.61-8.86C35.51,301.35,41.55,308,40.13,312.84Z" style="fill:#fff;stroke:#b2b2b2;stroke-miterlimit:10"></path><line x1="40.13" y1="312.84" x2="35.01" y2="306.2" style="fill:none;stroke:#b2b2b2;stroke-linecap:round;stroke-linejoin:round"></line><line x1="57.18" y1="283.38" x2="57.18" y2="423.31" style="fill:none;stroke:#b2b2b2;stroke-linecap:round;stroke-linejoin:round"></line><line x1="70.34" y1="328.44" x2="58.85" y2="439.1" style="fill:none;stroke:#b2b2b2;stroke-linecap:round;stroke-linejoin:round"></line><line x1="61.28" y1="416.49" x2="58.62" y2="413.45" style="fill:none;stroke:#b2b2b2;stroke-linecap:round;stroke-linejoin:round"></line><path d="M58.62,413.45a5.93,5.93,0,0,0-1.12-4.77c-1.07-1.45-7.38-5.82-8.55-3.52C47.68,407.66,53.67,414.36,58.62,413.45Z" style="fill:#fff;stroke:#b2b2b2;stroke-miterlimit:10"></path><line x1="58.62" y1="413.45" x2="52.9" y2="407.96" style="fill:none;stroke:#b2b2b2;stroke-linecap:round;stroke-linejoin:round"></line><line x1="64.52" y1="384.9" x2="60.58" y2="381.6" style="fill:none;stroke:#b2b2b2;stroke-linecap:round;stroke-linejoin:round"></line><path d="M61.81,382.74A5.91,5.91,0,0,0,60.68,378c-1.06-1.45-7.37-5.82-8.54-3.52C50.87,377,56.85,383.65,61.81,382.74Z" style="fill:#fff;stroke:#b2b2b2;stroke-miterlimit:10"></path><line x1="61.81" y1="382.74" x2="56.08" y2="377.25" style="fill:none;stroke:#b2b2b2;stroke-linecap:round;stroke-linejoin:round"></line><line x1="63.27" y1="399.87" x2="59.29" y2="393.38" style="fill:none;stroke:#b2b2b2;stroke-linecap:round;stroke-linejoin:round"></line><path d="M60.5,395.33a6,6,0,0,0-1.12-4.78c-1.07-1.45-7.38-5.82-8.55-3.52C49.56,389.53,55.55,396.23,60.5,395.33Z" style="fill:#fff;stroke:#b2b2b2;stroke-miterlimit:10"></path><line x1="60.5" y1="395.33" x2="54.78" y2="389.84" style="fill:none;stroke:#b2b2b2;stroke-linecap:round;stroke-linejoin:round"></line><line x1="66.52" y1="364.73" x2="62.71" y2="360.35" style="fill:none;stroke:#b2b2b2;stroke-linecap:round;stroke-linejoin:round"></line><path d="M63.93,362.3a5.93,5.93,0,0,0-1.12-4.77c-1.07-1.46-7.38-5.82-8.55-3.52C53,356.51,59,363.2,63.93,362.3Z" style="fill:#fff;stroke:#b2b2b2;stroke-miterlimit:10"></path><line x1="63.93" y1="362.3" x2="58.21" y2="356.81" style="fill:none;stroke:#b2b2b2;stroke-linecap:round;stroke-linejoin:round"></line><line x1="68.52" y1="345.52" x2="64.85" y2="339.82" style="fill:none;stroke:#b2b2b2;stroke-linecap:round;stroke-linejoin:round"></line><path d="M66.06,341.77A6,6,0,0,0,64.94,337c-1.07-1.45-7.38-5.82-8.55-3.52C55.12,336,61.11,342.67,66.06,341.77Z" style="fill:#fff;stroke:#b2b2b2;stroke-miterlimit:10"></path><line x1="66.06" y1="341.77" x2="60.34" y2="336.28" style="fill:none;stroke:#b2b2b2;stroke-linecap:round;stroke-linejoin:round"></line><line x1="62.06" y1="410.52" x2="67.3" y2="404.99" style="fill:none;stroke:#b2b2b2;stroke-linecap:round;stroke-linejoin:round"></line><path d="M65.71,406.65a5.88,5.88,0,0,1,2.08-4.44c1.34-1.2,8.41-4.18,9.08-1.69C77.6,403.23,70.37,408.55,65.71,406.65Z" style="fill:#fff;stroke:#b2b2b2;stroke-miterlimit:10"></path><line x1="65.71" y1="406.65" x2="72.83" y2="402.23" style="fill:none;stroke:#b2b2b2;stroke-linecap:round;stroke-linejoin:round"></line><line x1="65.5" y1="377.41" x2="70.73" y2="371.88" style="fill:none;stroke:#b2b2b2;stroke-linecap:round;stroke-linejoin:round"></line><path d="M69.14,373.53a5.94,5.94,0,0,1,2.08-4.44c1.35-1.2,8.42-4.18,9.09-1.69C81,370.11,73.8,375.43,69.14,373.53Z" style="fill:#fff;stroke:#b2b2b2;stroke-miterlimit:10"></path><line x1="69.14" y1="373.53" x2="76.27" y2="369.11" style="fill:none;stroke:#b2b2b2;stroke-linecap:round;stroke-linejoin:round"></line><line x1="67.01" y1="362.85" x2="72.24" y2="357.32" style="fill:none;stroke:#b2b2b2;stroke-linecap:round;stroke-linejoin:round"></line><path d="M70.65,359a5.92,5.92,0,0,1,2.08-4.44c1.35-1.2,8.42-4.18,9.09-1.69C82.55,355.56,75.31,360.88,70.65,359Z" style="fill:#fff;stroke:#b2b2b2;stroke-miterlimit:10"></path><line x1="70.65" y1="358.98" x2="77.78" y2="354.56" style="fill:none;stroke:#b2b2b2;stroke-linecap:round;stroke-linejoin:round"></line><line x1="69.16" y1="340.43" x2="74.46" y2="335.99" style="fill:none;stroke:#b2b2b2;stroke-linecap:round;stroke-linejoin:round"></line><path d="M72.87,337.64A5.89,5.89,0,0,1,75,333.2c1.34-1.2,8.41-4.18,9.08-1.69C84.76,334.22,77.53,339.55,72.87,337.64Z" style="fill:#fff;stroke:#b2b2b2;stroke-miterlimit:10"></path><line x1="72.87" y1="337.64" x2="79.99" y2="333.22" style="fill:#fff;stroke:#b2b2b2;stroke-miterlimit:10"></line><path d="M70.37,327.82a5.92,5.92,0,0,1,2.08-4.44c1.34-1.2,8.41-4.18,9.08-1.69C82.26,324.4,75,329.72,70.37,327.82Z" style="fill:#fff;stroke:#b2b2b2;stroke-miterlimit:10"></path><line x1="70.37" y1="327.82" x2="77.49" y2="323.4" style="fill:none;stroke:#b2b2b2;stroke-linecap:round;stroke-linejoin:round"></line><path d="M70.66,328.14a5.94,5.94,0,0,1-4.2-2.54c-1-1.46-3.28-8.8-.73-9.21C68.5,316,73,323.7,70.66,328.14Z" style="fill:#fff;stroke:#b2b2b2;stroke-miterlimit:10"></path><line x1="70.66" y1="328.14" x2="67.01" y2="320.59" style="fill:none;stroke:#b2b2b2;stroke-linecap:round;stroke-linejoin:round"></line><line x1="56.99" y1="402.02" x2="52.66" y2="396.23" style="fill:none;stroke:#b2b2b2;stroke-linecap:round;stroke-linejoin:round"></line><path d="M54.07,398a5.93,5.93,0,0,0-1.62-4.63c-1.21-1.33-7.93-5-8.86-2.62C42.58,393.41,49.23,399.45,54.07,398Z" style="fill:#fff;stroke:#b2b2b2;stroke-miterlimit:10"></path><line x1="54.07" y1="398.04" x2="47.8" y2="393.17" style="fill:none;stroke:#b2b2b2;stroke-linecap:round;stroke-linejoin:round"></line><line x1="57.14" y1="374.11" x2="52.66" y2="369.93" style="fill:none;stroke:#b2b2b2;stroke-linecap:round;stroke-linejoin:round"></line><path d="M54.07,371.75a5.94,5.94,0,0,0-1.62-4.64c-1.21-1.33-7.93-5-8.86-2.61C42.58,367.11,49.23,373.16,54.07,371.75Z" style="fill:#fff;stroke:#b2b2b2;stroke-miterlimit:10"></path><line x1="54.07" y1="371.75" x2="47.8" y2="366.87" style="fill:none;stroke:#b2b2b2;stroke-linecap:round;stroke-linejoin:round"></line><line x1="57.29" y1="345.1" x2="52.66" y2="339.06" style="fill:none;stroke:#b2b2b2;stroke-linecap:round;stroke-linejoin:round"></line><path d="M54.07,340.87a5.93,5.93,0,0,0-1.62-4.63c-1.21-1.33-7.93-5-8.86-2.62C42.58,336.24,49.23,342.28,54.07,340.87Z" style="fill:#fff;stroke:#b2b2b2;stroke-miterlimit:10"></path><line x1="54.07" y1="340.87" x2="47.8" y2="336" style="fill:none;stroke:#b2b2b2;stroke-linecap:round;stroke-linejoin:round"></line><line x1="56.99" y1="322.41" x2="52.66" y2="318.51" style="fill:none;stroke:#b2b2b2;stroke-linecap:round;stroke-linejoin:round"></line><path d="M54.07,320.32a5.92,5.92,0,0,0-1.62-4.63c-1.21-1.34-7.93-5-8.86-2.62C42.58,315.69,49.23,321.73,54.07,320.32Z" style="fill:#fff;stroke:#b2b2b2;stroke-miterlimit:10"></path><line x1="54.07" y1="320.32" x2="47.8" y2="315.45" style="fill:none;stroke:#b2b2b2;stroke-linecap:round;stroke-linejoin:round"></line><line x1="57.24" y1="301.85" x2="52.74" y2="298.55" style="fill:none;stroke:#b2b2b2;stroke-linecap:round;stroke-linejoin:round"></line><path d="M54.07,299.68A5.94,5.94,0,0,0,52.45,295c-1.21-1.33-7.93-5-8.86-2.61C42.58,295,49.23,301.09,54.07,299.68Z" style="fill:#fff;stroke:#b2b2b2;stroke-miterlimit:10"></path><line x1="54.07" y1="299.68" x2="47.8" y2="294.81" style="fill:none;stroke:#b2b2b2;stroke-linecap:round;stroke-linejoin:round"></line><line x1="58.08" y1="409" x2="61.82" y2="404.26" style="fill:none;stroke:#b2b2b2;stroke-linecap:round;stroke-linejoin:round"></line><path d="M60.41,406.07A5.94,5.94,0,0,1,62,401.44c1.21-1.33,7.94-5,8.86-2.62C71.89,401.44,65.24,407.48,60.41,406.07Z" style="fill:#fff;stroke:#b2b2b2;stroke-miterlimit:10"></path><line x1="60.41" y1="406.07" x2="67.04" y2="400.94" style="fill:none;stroke:#b2b2b2;stroke-linecap:round;stroke-linejoin:round"></line><line x1="57.19" y1="368.48" x2="61.82" y2="362.44" style="fill:none;stroke:#b2b2b2;stroke-linecap:round;stroke-linejoin:round"></line><path d="M60.41,364.25A5.93,5.93,0,0,1,62,359.62c1.21-1.34,7.94-5,8.86-2.62C71.89,359.62,65.24,365.66,60.41,364.25Z" style="fill:#fff;stroke:#b2b2b2;stroke-miterlimit:10"></path><line x1="60.41" y1="364.25" x2="67.04" y2="359.12" style="fill:none;stroke:#b2b2b2;stroke-linecap:round;stroke-linejoin:round"></line><line x1="57.19" y1="347.84" x2="61.82" y2="341.79" style="fill:none;stroke:#b2b2b2;stroke-linecap:round;stroke-linejoin:round"></line><path d="M60.41,343.61A6,6,0,0,1,62,339c1.21-1.33,7.94-5,8.86-2.61C71.89,339,65.24,345,60.41,343.61Z" style="fill:#fff;stroke:#b2b2b2;stroke-miterlimit:10"></path><line x1="60.41" y1="343.61" x2="67.04" y2="338.47" style="fill:none;stroke:#b2b2b2;stroke-linecap:round;stroke-linejoin:round"></line><line x1="57.19" y1="320.55" x2="61.82" y2="314.51" style="fill:none;stroke:#b2b2b2;stroke-linecap:round;stroke-linejoin:round"></line><path d="M60.41,316.32A5.94,5.94,0,0,1,62,311.69c1.21-1.33,7.94-5,8.86-2.62C71.89,311.69,65.24,317.73,60.41,316.32Z" style="fill:#fff;stroke:#b2b2b2;stroke-miterlimit:10"></path><line x1="60.41" y1="316.32" x2="67.04" y2="311.19" style="fill:none;stroke:#b2b2b2;stroke-linecap:round;stroke-linejoin:round"></line><line x1="57.39" y1="297.01" x2="61.93" y2="293.46" style="fill:none;stroke:#b2b2b2;stroke-linecap:round;stroke-linejoin:round"></line><path d="M60.41,294.87A5.94,5.94,0,0,1,62,290.24c1.21-1.33,7.94-5,8.86-2.62C71.89,290.24,65.24,296.28,60.41,294.87Z" style="fill:#fff;stroke:#b2b2b2;stroke-miterlimit:10"></path><line x1="60.41" y1="294.87" x2="67.04" y2="289.74" style="fill:none;stroke:#b2b2b2;stroke-linecap:round;stroke-linejoin:round"></line><path d="M56.91,285.36a5.93,5.93,0,0,1,1.61-4.63c1.21-1.34,7.94-5,8.86-2.62C68.39,280.73,61.74,286.77,56.91,285.36Z" style="fill:#fff;stroke:#b2b2b2;stroke-miterlimit:10"></path><line x1="56.91" y1="285.36" x2="63.54" y2="280.23" style="fill:none;stroke:#b2b2b2;stroke-linecap:round;stroke-linejoin:round"></line><path d="M57.23,285.64a5.94,5.94,0,0,1-4.44-2.08c-1.2-1.35-4.16-8.42-1.67-9.09C53.83,273.74,59.14,281,57.23,285.64Z" style="fill:#fff;stroke:#b2b2b2;stroke-miterlimit:10"></path><line x1="57.23" y1="285.64" x2="52.82" y2="278.51" style="fill:none;stroke:#b2b2b2;stroke-linecap:round;stroke-linejoin:round"></line><polygon points="62.93 459.61 48.11 459.61 46.26 422.18 64.79 422.18 62.93 459.61" style="fill:#b2b2b2;stroke:#b2b2b2;stroke-miterlimit:10"></polygon></g><g id="Character"><ellipse cx="262.96" cy="472.95" rx="74.84" ry="14.9" style="fill:#263238;stroke:#263238;stroke-miterlimit:10"></ellipse><path d="M218.41,458.27s-2.67,2.67.84,7.58S232,472,235.94,471.18s6.46-2.1,11.09-1.4,5.19.7,5.19.7-14.87-6.87-22.87-10.38S218.55,457.85,218.41,458.27Z" style="fill:#fff;stroke:#263238;stroke-miterlimit:10"></path><path d="M243,430.05s-21.7-9-32.32-11.75-21.48-2.72-22.61,4.29-1.81,9.5,1.13,13.34S236.44,461,255,464.64s23.88,8.47,40.38,9.15,30.37-3.05,33.09-11.41,5-14.92,2.71-20.12a35.39,35.39,0,0,0-4.3-7.69s-15.59-11.3-31.87-10.4-32.32,6.11-39.78,6.56A46,46,0,0,1,243,430.05Z" style="fill:#92E3A9;stroke:#263238;stroke-miterlimit:10"></path><line x1="253.19" y1="439.55" x2="264.88" y2="450.41" style="fill:none;stroke:#263238;stroke-miterlimit:10"></line><path d="M219.94,362.46s-3.61,1.81-4.07,3.17S191,411.52,192.14,413.1s6.1,8.14,11.08,8.14S229,394.56,229,394.56s10.62,20.12,13.11,24.64c0,0-3.17,2.71-2.49,4.07a25.81,25.81,0,0,0,9,11.3c6.1,4.07,12.21,7,21,5.43s13.79-4.52,21-9.27,24.18-1.13,28.7,4.75,8.82,4.74,10,3.16,2.71-5.88,0-10.85-15.6-32.1-19.67-46.34-11.52-27.8-17.63-29.38-8.36-1.59-8.36-1.59l-31.27-3.06Z" style="fill:#fff;stroke:#263238;stroke-miterlimit:10"></path><path d="M250.87,382.89c1,6.12,2.72,14.6,4.66,19.54,3.26,8.34,4.71,13.06,4.71,13.06l-2.54,7.25,5.08,8.34" style="fill:none;stroke:#263238;stroke-miterlimit:10"></path><path d="M249.72,375.59s.22,1.6.61,4.06" style="fill:none;stroke:#263238;stroke-miterlimit:10"></path><line x1="228.99" y1="394.56" x2="219.48" y2="377.93" style="fill:#fff;stroke:#263238;stroke-miterlimit:10"></line><line x1="218.7" y1="382.21" x2="217.29" y2="380.78" style="fill:#fff;stroke:#263238;stroke-miterlimit:10"></line><line x1="226.7" y1="390.4" x2="220.43" y2="383.98" style="fill:#fff;stroke:#263238;stroke-miterlimit:10"></line><path d="M197.83,403.09s.43-1.31,7.43,0,9.19,7.44,8.75,9.84-5.68,7.88-7.87,8.75-4.16-1.09-7.88-3.72-8.09-7.43-6.78-10.28S197.83,403.09,197.83,403.09Z" style="fill:#fff;stroke:#263238;stroke-miterlimit:10"></path><path d="M237.57,357s-.45,7,0,9.94a49,49,0,0,0,1.36,5.88l6.33-5.42,5.43-3.17,13.11,6.11s0-9.27-.23-19-3.62-9-5.2-9.5S237.57,357,237.57,357Z" style="fill:#fff;stroke:#263238;stroke-miterlimit:10"></path><path d="M240.74,359.75s6.33,14.47,8.59,13.34,9.72-15.15,10.17-22.15-1.13-9.05-1.13-9.05-10.4,13.79-12,15.6S240.74,359.75,240.74,359.75Z" style="fill:#fff;stroke:#263238;stroke-miterlimit:10"></path><path d="M257.58,343.7l-.89.41c-3,4-9.12,12-10.3,13.38-1.58,1.81-5.65,2.26-5.65,2.26a99.74,99.74,0,0,0,4.9,9.65C249.63,361.34,257.58,343.7,257.58,343.7Z" style="fill:#263238;stroke:#263238;stroke-miterlimit:10"></path><path d="M219.42,318.17s-2.66,6.05-1.93,8.47,5.32,4.35,5.32,4.35l-1-13.3S220.88,316.72,219.42,318.17Z" style="fill:#263238;stroke:#263238;stroke-miterlimit:10"></path><path d="M220.88,317.44s.48,12.83,3.38,19.12,4.6,12.58,7.26,16.21,6.78,8.47,8.95,8.71,6.05-.24,7-1,8.47-12.34,10.4-15.73,1.7-9.19,1.7-9.19a48.71,48.71,0,0,0,0-13.06c-1-7.26-11.62-11.38-18.87-11.38S220.88,317.44,220.88,317.44Z" style="fill:#fff;stroke:#263238;stroke-miterlimit:10"></path><path d="M237.33,330.75s2.18-1.21,7.74-.24" style="fill:none;stroke:#263238;stroke-miterlimit:10"></path><path d="M230.55,331.72s-4.11-.48-6,1.21" style="fill:none;stroke:#263238;stroke-miterlimit:10"></path><polyline points="232.25 332.45 233.94 336.07 234.18 347.2 239.78 346.2" style="fill:none;stroke:#263238;stroke-miterlimit:10"></polyline><path d="M236,351.66s7.15.14,9.81-1.54,2.94-3.64,2.94-3.64" style="fill:none;stroke:#263238;stroke-miterlimit:10"></path><path d="M242.27,334.58c.26,1,0,1.88-.55,2s-1.22-.52-1.48-1.49,0-1.88.55-2S242,333.61,242.27,334.58Z" style="fill:#263238"></path><path d="M230.57,336c.26,1,0,1.88-.54,2s-1.23-.51-1.49-1.49,0-1.88.55-2S230.31,335,230.57,336Z" style="fill:#263238"></path><path d="M228.62,321.07s-9.44-.48-14-4.11.24-12.1,1.45-12.34.24,1.7.24,1.7,1.69-3.15,7-5.09,2.9,2.91,2.9,2.91a25.51,25.51,0,0,1,16.21-5.81c9.92,0,14.27,2.9,17.18,7.5s1.45,13.31.48,18.39-6.77,6.29-7.26,5.32-1-5.32-2.17-5.8-5.08.24-5.33-1.21,1-6-1-6.78-10.41,2.9-11.38,4.84S228.62,321.07,228.62,321.07Z" style="fill:#263238;stroke:#263238;stroke-miterlimit:10"></path><path d="M256,330.51s-1-9.92,3.39-9.92,4.35,7.26,2.9,10.65a15.34,15.34,0,0,1-4.36,5.56" style="fill:#fff;stroke:#263238;stroke-miterlimit:10"></path><path d="M208.19,423.72s5.2-.22,10.85,4.3,15.6,13.11,24.86,20.34a66.66,66.66,0,0,0,19.85,10.31s-6.74,4.84-6.74,8.68a47.77,47.77,0,0,0,1.36,9.27s-4.75-.23-6.78-1.36-2.26-4.52-4.07-4.75-14-4.29-26.45-9.94-32.77-14.95-35.52-26.87c-.83-3.61.27-8,.84-10.85.83-4.18,6-4.55,7.11-4.55" style="fill:#92E3A9;stroke:#263238;stroke-miterlimit:10"></path><path d="M283.91,407.67s-42.72,29.61-43.4,31.65-7.68,21-7.23,24,2.49,10.4,2.71,11.53.91,2.49,1.58,2.49.68-.91.91-1.81-1.13-6.78-1.13-6.78l.22-5.88s2,9,2.27,9.72,1.8,3.84,3.16,3.84,0-4.07,0-4.07L241.87,464s3.62,7.91,4.07,9.27a2.24,2.24,0,0,0,2.26,1.58c.68,0,0-2.94,0-2.94l-.68-1.36-2-7s3.16,3.84,4.07,5,2.71,1.81,2.93.68-2.48-2.94-2.48-2.94l-2.26-5.43s2-8.13,2.48-10.85a61.75,61.75,0,0,0,.46-7.68s44.75-17.18,47.92-18.09,6.33-1.8,6.33-4.52S283.91,407.67,283.91,407.67Z" style="fill:#fff;stroke:#263238;stroke-miterlimit:10"></path><path d="M280.07,375.12,286,396.37s-3.39,1.36-2.71,2.49,2.71,5,2.71,5v1.81l21.47,11.07s2,4.53,3.39,2.49,5-4.29,5-8.81-10-35.72-10.63-38.66-4.74-11.3-7-13.79a6.61,6.61,0,0,0-5.43-2" style="fill:#fff;stroke:#263238;stroke-miterlimit:10"></path><path d="M288,400.89s11.08-2.48,18.76-.45" style="fill:none;stroke:#263238;stroke-miterlimit:10"></path><path d="M299.32,391.71a17.72,17.72,0,0,1,3.13-.31" style="fill:none;stroke:#263238;stroke-miterlimit:10"></path><path d="M286,396.37a68.28,68.28,0,0,1,11-4.13" style="fill:none;stroke:#263238;stroke-miterlimit:10"></path><path d="M286.4,402.47s-4.52,5.66-3.39,6.56,18.31,10.4,19.67,11.75,4.74,2.26,6.1.68,5.88-4.75,5.88-7.91-17-9.95-20.8-11.53S287.76,400.67,286.4,402.47Z" style="fill:#fff;stroke:#263238;stroke-miterlimit:10"></path><path d="M202.6,388.79s-.11.23-.34.65A78.88,78.88,0,0,1,193,402.69c-6,6.88-4.21,12.49-2,16.19s8.29,4.34,10.58,3.83,5.23-4,5.87-6.89,1.15-12.62,1.66-15,.63-3.45.63-3.45Z" style="fill:#fff;stroke:#263238;stroke-miterlimit:10"></path><path d="M201.71,391.34v-4.08c0-1.66,1.91-3.95,3.06-6.12s.77-4.21,1.91-4.59,2.43,2.29,2.43,4.08-2.17,3.7-2.17,4.21-.13,1.91-.13,1.91,4.08,7.65,3.83,9.94-2.81,2.81-4.72,1.28S201.71,391.34,201.71,391.34Z" style="fill:#fff;stroke:#263238;stroke-miterlimit:10"></path><path d="M201.73,386.31l5.28,13a1.23,1.23,0,0,0,1,.75l25.7,2.85a1.21,1.21,0,0,0,1.24-1.68l-5.46-12.6a1.19,1.19,0,0,0-.95-.72L203,384.65A1.22,1.22,0,0,0,201.73,386.31Z" style="fill:#263238;stroke:#263238;stroke-miterlimit:10"></path><path d="M198.27,383.82s-.13,2.55.51,3.31,7.27.38,8.29.38,1.14-1.4.76-1.91-4.59-1.91-6.25-2.17S198.27,383.18,198.27,383.82Z" style="fill:#fff;stroke:#263238;stroke-miterlimit:10"></path><path d="M200.44,391s.76,3.19,1.53,3.7,9.05.25,9.69-.26.38-2-1.15-2.42-8.42-1.53-8.42-1.53S200.31,389.81,200.44,391Z" style="fill:#fff;stroke:#263238;stroke-miterlimit:10"></path><path d="M202,394.66s.63,4.08,1.53,4.59,7.9-1.79,8.67-2.81.12-2.29-.51-2S203.11,395,202,394.66Z" style="fill:#fff;stroke:#263238;stroke-miterlimit:10"></path><path d="M204.26,399.5s1.53,2.3,2.3,2.3,6-2.17,6.12-3.57-.51-1.79-.51-1.79S205,399.37,204.26,399.5Z" style="fill:#fff;stroke:#263238;stroke-miterlimit:10"></path><path d="M320.41,468.78c.91-.23,10.1-3.48,11.65-12.51,2-11.73-1.35-16.27-6.55-23.28s-9.5-17.63-22.16-15.82-18.53,11.53-25.09,19.21-21.92,19.21-21.92,19.21,13.77,5.48,25,8.82c6.78,2,12.71-4.29,19.71-8.14a111,111,0,0,0,11.31-7" style="fill:#92E3A9;stroke:#263238;stroke-miterlimit:10"></path><path d="M296.61,458.76s13.78-4.18,22.55-7.94" style="fill:none;stroke:#263238;stroke-miterlimit:10"></path><path d="M263.75,458.67s-4.27,0-6.14,5.47a13.17,13.17,0,0,0,4.94,14.69c4.41,3.07,13.08,3.34,16.82,1.6a54.46,54.46,0,0,0,10-6c2.13-1.73,2.13-2.8.26-5.34s-4.4-3.87-8.27-4.67S263.75,458.67,263.75,458.67Z" style="fill:#fff;stroke:#263238;stroke-miterlimit:10"></path><path d="M266.36,459.6l-2.61-.93s-4.27,0-6.14,5.47a13.17,13.17,0,0,0,4.94,14.69,16.66,16.66,0,0,0,7.23,2.45c-.76-.34-1.53-.71-2.29-1.11-4.27-2.27-7.74-6.15-7.34-12C260.46,463.48,264.65,460.59,266.36,459.6Z" style="fill:#fff;stroke:#263238;stroke-miterlimit:10"></path></g></svg>