<svg xmlns="http://www.w3.org/2000/svg" xmlns:xlink="http://www.w3.org/1999/xlink" viewBox="0 0 700 500"><defs><clippath id="clip-path"><path d="M231.94,231a21.85,21.85,0,0,0-5.44-.6c-2.51.26-2,1.92-5.08,1.94-3.77,0-11.11-3-14.89-1.24-9.46,4.3-11.05,4.72-12.43,6.61-3.64,5,.18,34.66,2.22,43.33,1.63,6.91,1.46,24.85,4.45,27.69,5.57,5.26,13.36,4.39,20.88,3,6.52-1.25,17.4-2.93,19.8-9.11.35-.89.27-4.61.07-10-.6-16.23.37-25.57.08-36l6.1-2.47S240.5,233.4,231.94,231Z" style="fill:#92E3A9;stroke:#263238;stroke-miterlimit:10"></path></clippath><clippath id="clip-path-2"><path d="M181,266a84.9,84.9,0,0,0,17.41,6.5c2.42-6.82,2.42-6.82,4.67-9.85,3.15-4.22,5.16-9.53,4.42-14.74a13.71,13.71,0,0,0-6.83-10C189.11,231.66,182.08,257.11,181,266Z" style="fill:#92E3A9;stroke:#263238;stroke-miterlimit:10"></path></clippath></defs><g id="background-simple"><path d="M183.56,60.31c-27,4.78-52.83,16.36-74.91,32.55S69,133,65.43,160.11c-3.67,28,7.58,55.81,22,80s32.41,46.41,44.35,71.95c10.51,22.48,16.29,47.37,30.45,67.75,19.27,27.75,52.3,43.74,85.75,48.46s67.54-.7,100.38-8.63c68.42-16.55,134.06-44.13,194.42-80.35,27.33-16.4,54.27-35.24,71.84-61.83A127,127,0,0,0,630.55,174c-8.13-28.35-27.15-54.57-52.17-70.41C567.7,96.79,460.94,11.11,183.56,60.31Z" style="fill:#92E3A9"></path><path d="M183.56,60.31c-27,4.78-52.83,16.36-74.91,32.55S69,133,65.43,160.11c-3.67,28,7.58,55.81,22,80s32.41,46.41,44.35,71.95c10.51,22.48,16.29,47.37,30.45,67.75,19.27,27.75,52.3,43.74,85.75,48.46s67.54-.7,100.38-8.63c68.42-16.55,134.06-44.13,194.42-80.35,27.33-16.4,54.27-35.24,71.84-61.83A127,127,0,0,0,630.55,174c-8.13-28.35-27.15-54.57-52.17-70.41C567.7,96.79,460.94,11.11,183.56,60.31Z" style="fill:#fff;opacity:0.7000000000000001"></path></g><g id="Page"><rect x="161.51" y="22.42" width="384.76" height="287.33" style="fill:#fff;stroke:#263238;stroke-linecap:round;stroke-linejoin:round"></rect><polyline points="226.81 49.22 220.63 53.45 227.07 57.36" style="fill:none;stroke:#263238;stroke-linecap:round;stroke-linejoin:round"></polyline><line x1="220.63" y1="53.45" x2="230.15" y2="53.45" style="fill:none;stroke:#263238;stroke-linecap:round;stroke-linejoin:round"></line><polyline points="245.49 57.36 251.68 53.12 245.23 49.22" style="fill:none;stroke:#263238;stroke-linecap:round;stroke-linejoin:round"></polyline><line x1="251.68" y1="53.12" x2="242.16" y2="53.12" style="fill:none;stroke:#263238;stroke-linecap:round;stroke-linejoin:round"></line><path d="M269.37,59.4a5.31,5.31,0,1,1,5.3-5.31" style="fill:none;stroke:#263238;stroke-linecap:round;stroke-linejoin:round"></path><polyline points="271.39 53.26 274.67 54.2 276.06 51.66" style="fill:none;stroke:#263238;stroke-linecap:round;stroke-linejoin:round"></polyline><path d="M438.12,55.67a4,4,0,1,1,0-5.61A4,4,0,0,1,438.12,55.67Z" style="fill:none;stroke:#263238;stroke-linecap:round;stroke-linejoin:round"></path><line x1="438.12" y1="55.67" x2="441.85" y2="59.4" style="fill:none;stroke:#263238;stroke-linecap:round;stroke-linejoin:round"></line><path d="M413.53,59.4H296.27a6.09,6.09,0,0,1-6.09-6.09h0a6.09,6.09,0,0,1,6.09-6.09H413.53a6.08,6.08,0,0,1,6.09,6.09h0A6.09,6.09,0,0,1,413.53,59.4Z" style="fill:none;stroke:#263238;stroke-linecap:round;stroke-linejoin:round"></path><rect x="161.51" y="22.42" width="384.76" height="16.16" style="fill:#263238"></rect><path d="M180.51,30.36a4.84,4.84,0,1,1-4.84-4.84A4.84,4.84,0,0,1,180.51,30.36Z" style="fill:#fff"></path><path d="M195.33,30.36a4.84,4.84,0,1,1-4.84-4.84A4.84,4.84,0,0,1,195.33,30.36Z" style="fill:#fff"></path><path d="M210.15,30.36a4.84,4.84,0,1,1-4.83-4.84A4.83,4.83,0,0,1,210.15,30.36Z" style="fill:#fff"></path></g><g id="Plant"><path d="M556.42,432.82s-3.16-90-32-121.95c0,0,23.57,56.11,25.69,123Z" style="fill:#92E3A9"></path><path d="M556.42,432.82s-3.16-90-32-121.95c0,0,23.57,56.11,25.69,123Z" style="opacity:0.1"></path><path d="M562.42,403.45c.11.18-.88,1.12,2.39,1.27,8.05.35,22.29-.15,27.66-7.46,7.66-10.43-10-9.52-8.22-15.28s20.63-1,24.35-9.22-10.05-6.65-9.4-10.88,15.07,1.3,19.86-7.42-7.84-4.08-5.79-7.69,18.11-18.62,11.63-22-21.56,12.3-26.53,14-6.07-13.75-12.6-8.61-2.33,28.42-9.94,31.29c-5.67,2.13-2.56-6.2-9.55-5.9C556.79,355.93,553.57,388.55,562.42,403.45Z" style="fill:#92E3A9"></path><g style="opacity:0.1"><path d="M562.42,403.45c.11.18-.88,1.12,2.39,1.27,8.05.35,22.29-.15,27.66-7.46,7.66-10.43-10-9.52-8.22-15.28s20.63-1,24.35-9.22-10.05-6.65-9.4-10.88,15.07,1.3,19.86-7.42-7.84-4.08-5.79-7.69,18.11-18.62,11.63-22-21.56,12.3-26.53,14-6.07-13.75-12.6-8.61-2.33,28.42-9.94,31.29c-5.67,2.13-2.56-6.2-9.55-5.9C556.79,355.93,553.57,388.55,562.42,403.45Z"></path></g><path d="M594.41,355.59s-31.27,21.35-38.09,75.82" style="fill:none;stroke:#263238;stroke-linecap:round;stroke-linejoin:round;stroke-width:0.75px"></path><path d="M599.19,362.26c-7.55-1.62-12.17-.13-12.17-.13" style="fill:none;stroke:#263238;stroke-linecap:round;stroke-linejoin:round;stroke-width:0.75px"></path><path d="M590.63,339.76s-9.5,12.55-9.39,28.92" style="fill:none;stroke:#263238;stroke-linecap:round;stroke-linejoin:round;stroke-width:0.75px"></path><path d="M571.92,382.5s6.76-6.34,15.74-3.1" style="fill:none;stroke:#263238;stroke-linecap:round;stroke-linejoin:round;stroke-width:0.75px"></path><path d="M567,392.15s-3.51-8.31-1.59-20" style="fill:none;stroke:#263238;stroke-linecap:round;stroke-linejoin:round;stroke-width:0.75px"></path><path d="M551,431.38s3.63-103.46,36.84-140.19c0,0-27.09,64.5-29.53,141.39Z" style="fill:#92E3A9"></path><path d="M551,431.38s3.63-103.46,36.84-140.19c0,0-27.09,64.5-29.53,141.39Z" style="fill:#fff;opacity:0.2"></path><path d="M558.35,431.91s5.9-108.84-25.37-153.6c0,0,22.28,72.62,17.61,153.44Z" style="fill:#92E3A9"></path><path d="M549.88,407.81c-6.63.13-17.94-6-22.38-12s8.17-2.3,6.87-7.07-16.94-1.25-19.82-8.08,8.39-5.26,7.94-8.75-12.13-2.78-15.88-10,6.53-3.19,4.92-6.2S497,340,502.42,337.35s17.47,10.55,21.51,12,5-7.64,10.26-3.28,1.32,23.4,7.52,25.91c4.62,1.88,2.65-6.84,8-4.64C559,371.21,552.57,407.76,549.88,407.81Z" style="fill:#92E3A9"></path><g style="opacity:0.30000000000000004"><path d="M549.88,407.81c-6.63.13-17.94-6-22.38-12s8.17-2.3,6.87-7.07-16.94-1.25-19.82-8.08,8.39-5.26,7.94-8.75-12.13-2.78-15.88-10,6.53-3.19,4.92-6.2S497,340,502.42,337.35s17.47,10.55,21.51,12,5-7.64,10.26-3.28,1.32,23.4,7.52,25.91c4.62,1.88,2.65-6.84,8-4.64C559,371.21,552.57,407.76,549.88,407.81Z" style="fill:#fff"></path></g><path d="M517.91,351.56s33,32.4,34.93,80.82" style="fill:none;stroke:#263238;stroke-linecap:round;stroke-linejoin:round;stroke-width:0.75px"></path><path d="M517.1,366.57A34.62,34.62,0,0,1,531,369.33l0,0" style="fill:none;stroke:#263238;stroke-linecap:round;stroke-linejoin:round;stroke-width:0.75px"></path><path d="M529.5,349.41s7.43,11.68,6.09,26.09" style="fill:none;stroke:#263238;stroke-linecap:round;stroke-linejoin:round;stroke-width:0.75px"></path><path d="M540.34,383.66a14.64,14.64,0,0,0-13.63-3.4" style="fill:none;stroke:#263238;stroke-linecap:round;stroke-linejoin:round;stroke-width:0.75px"></path><path d="M546.35,397.1a34.82,34.82,0,0,0,2.92-17.52" style="fill:none;stroke:#263238;stroke-linecap:round;stroke-linejoin:round;stroke-width:0.75px"></path><path d="M529,452.68c0,13.36,11.6,24.17,25.9,24.17s25.9-10.81,25.9-24.17c0-7.52-8.24-14.25-15.43-18.69H544.38C537.2,438.43,529,445.16,529,452.68Z" style="fill:#263238"></path><line x1="539.26" y1="453.68" x2="534.74" y2="453.68" style="fill:none;stroke:#bfbfbf;stroke-linecap:round;stroke-linejoin:round"></line><line x1="575.44" y1="453.68" x2="544.2" y2="453.68" style="fill:none;stroke:#bfbfbf;stroke-linecap:round;stroke-linejoin:round"></line></g><g id="load-more"><rect x="313.48" y="260.47" width="85.38" height="33.33" style="fill:#92E3A9;stroke:#263238;stroke-miterlimit:10"></rect><path d="M331.68,282.82V272.66h1.13v9.13h2.9v1Z" style="fill:#263238"></path><path d="M336.49,275.11c0-1.55.76-2.56,2.32-2.56s2.34,1,2.34,2.56v5.26c0,1.54-.77,2.56-2.34,2.56s-2.32-1-2.32-2.56Zm1.11,5.32c0,.93.4,1.46,1.21,1.46s1.21-.53,1.21-1.46v-5.38c0-.91-.38-1.46-1.21-1.46s-1.21.55-1.21,1.46Z" style="fill:#263238"></path><path d="M343.36,280.78l-.4,2h-1l1.95-10.16h1.64l1.94,10.16h-1.13l-.39-2Zm.14-1h2.27l-1.15-5.87Z" style="fill:#263238"></path><path d="M350.72,272.66c1.59,0,2.31.95,2.31,2.52v5.13c0,1.56-.72,2.51-2.31,2.51h-2.38V272.66Zm0,9.13c.81,0,1.2-.51,1.2-1.44v-5.22c0-.93-.39-1.44-1.22-1.44h-1.22v8.1Z" style="fill:#263238"></path><path d="M360.09,282.81H359l-1.68-8.09v8.1h-1V272.66h1.59l1.67,8.12,1.61-8.12h1.58v10.16h-1.07v-8.17Z" style="fill:#263238"></path><path d="M363.86,275.11c0-1.55.77-2.56,2.32-2.56s2.34,1,2.34,2.56v5.26c0,1.54-.77,2.56-2.34,2.56s-2.32-1-2.32-2.56Zm1.12,5.32c0,.93.39,1.46,1.2,1.46s1.21-.53,1.21-1.46v-5.38c0-.91-.38-1.46-1.21-1.46s-1.2.55-1.2,1.46Z" style="fill:#263238"></path><path d="M371.86,272.66c1.6,0,2.27.81,2.27,2.32v.83c0,1.12-.39,1.81-1.26,2.09.93.28,1.27,1,1.27,2.12v1.58a2.51,2.51,0,0,0,.21,1.22H373.2a2.65,2.65,0,0,1-.19-1.23V280c0-1.15-.54-1.51-1.48-1.51h-.8v4.34H369.6V272.66Zm-.29,4.79c.9,0,1.44-.29,1.44-1.4v-1c0-.91-.33-1.39-1.18-1.39h-1.1v3.76Z" style="fill:#263238"></path><path d="M378.94,277.16v1h-2.48v3.61h3.05v1h-4.19V272.66h4.19v1h-3.05v3.47Z" style="fill:#263238"></path><polyline points="316.83 296.67 401.26 296.67 401.26 265.64" style="fill:none;stroke:#263238;stroke-linecap:round;stroke-linejoin:round"></polyline></g><g id="Files"><rect x="196.94" y="70.04" width="92.7" height="82.28" style="fill:#fff;stroke:#263238;stroke-linecap:round;stroke-linejoin:round"></rect><rect x="200.58" y="73.97" width="85.52" height="49.17" style="fill:#92E3A9;stroke:#263238;stroke-miterlimit:10"></rect><rect x="205.83" y="126.57" width="22.34" height="5.34" style="fill:#999"></rect><rect x="232.12" y="126.57" width="22.34" height="5.34" style="fill:#999"></rect><rect x="258.4" y="126.57" width="22.34" height="5.34" style="fill:#999"></rect><rect x="212.62" y="136.52" width="3.44" height="3.05" style="fill:#bfbfbf"></rect><rect x="218.07" y="136.52" width="12.78" height="3.05" style="fill:#bfbfbf"></rect><rect x="233.11" y="136.52" width="12.78" height="3.05" style="fill:#bfbfbf"></rect><rect x="267.54" y="136.52" width="6.39" height="3.05" style="fill:#bfbfbf"></rect><rect x="248.23" y="136.52" width="17.44" height="3.05" style="fill:#bfbfbf"></rect><rect x="258.11" y="141.73" width="12.78" height="3.05" transform="translate(529 286.51) rotate(180)" style="fill:#bfbfbf"></rect><rect x="243.07" y="141.73" width="12.78" height="3.05" transform="translate(498.91 286.51) rotate(180)" style="fill:#bfbfbf"></rect><rect x="215.03" y="141.73" width="6.39" height="3.05" transform="translate(436.44 286.51) rotate(180)" style="fill:#bfbfbf"></rect><rect x="223.29" y="141.73" width="17.44" height="3.05" transform="translate(464.02 286.51) rotate(180)" style="fill:#bfbfbf"></rect><path d="M203.68,123.14,221.56,105a17.3,17.3,0,0,1,20.31-2.69l38,20.87Z" style="fill:#fff;stroke:#263238;stroke-linecap:round;stroke-linejoin:round"></path><path d="M249.93,119.87l1.56,2" style="fill:#fff;stroke:#263238;stroke-linecap:round;stroke-linejoin:round"></path><path d="M232,101.5c1.33-.17,2.72.21,4.67,1.8,1.31,1.07,7.61,9.18,11.56,14.34" style="fill:#fff;stroke:#263238;stroke-linecap:round;stroke-linejoin:round"></path><path d="M265.05,88.05a6.48,6.48,0,1,1-6.47-6.48A6.47,6.47,0,0,1,265.05,88.05Z" style="fill:#fff"></path><rect x="309.1" y="171.52" width="92.7" height="82.28" style="fill:#fff;stroke:#263238;stroke-linecap:round;stroke-linejoin:round"></rect><rect x="312.75" y="175.45" width="85.52" height="49.17" style="fill:#92E3A9;stroke:#263238;stroke-miterlimit:10"></rect><rect x="318" y="228.05" width="22.34" height="5.34" style="fill:#999"></rect><rect x="344.28" y="228.05" width="22.34" height="5.34" style="fill:#999"></rect><rect x="370.57" y="228.05" width="22.34" height="5.34" style="fill:#999"></rect><rect x="324.79" y="238" width="3.44" height="3.05" style="fill:#bfbfbf"></rect><rect x="330.23" y="238" width="12.78" height="3.05" style="fill:#bfbfbf"></rect><rect x="345.28" y="238" width="12.78" height="3.05" style="fill:#bfbfbf"></rect><rect x="379.71" y="238" width="6.39" height="3.05" style="fill:#bfbfbf"></rect><rect x="360.4" y="238" width="17.44" height="3.05" style="fill:#bfbfbf"></rect><rect x="370.27" y="243.21" width="12.78" height="3.05" transform="translate(753.33 489.47) rotate(180)" style="fill:#bfbfbf"></rect><rect x="355.23" y="243.21" width="12.78" height="3.05" transform="translate(723.25 489.47) rotate(180)" style="fill:#bfbfbf"></rect><rect x="327.19" y="243.21" width="6.39" height="3.05" transform="translate(660.78 489.47) rotate(180)" style="fill:#bfbfbf"></rect><rect x="335.45" y="243.21" width="17.44" height="3.05" transform="translate(688.35 489.47) rotate(180)" style="fill:#bfbfbf"></rect><polygon points="344.11 198.22 358.37 224.52 378.02 224.52 344.11 198.22" style="fill:#fff;stroke:#263238;stroke-linecap:round;stroke-linejoin:round"></polygon><polygon points="316.77 224.52 344.11 198.22 358.37 224.52 316.77 224.52" style="fill:#fff;stroke:#263238;stroke-linecap:round;stroke-linejoin:round"></polygon><line x1="342.83" y1="216.64" x2="345.96" y2="216.64" style="fill:#fff;stroke:#263238;stroke-linecap:round;stroke-linejoin:round"></line><line x1="331.4" y1="216.64" x2="340.8" y2="216.64" style="fill:#fff;stroke:#263238;stroke-linecap:round;stroke-linejoin:round"></line><line x1="362.25" y1="220.13" x2="365.17" y2="220.13" style="fill:#fff;stroke:#263238;stroke-linecap:round;stroke-linejoin:round"></line><line x1="356.29" y1="220.13" x2="360.73" y2="220.13" style="fill:#fff;stroke:#263238;stroke-linecap:round;stroke-linejoin:round"></line><line x1="339.66" y1="209.21" x2="350.02" y2="209.21" style="fill:#fff;stroke:#263238;stroke-linecap:round;stroke-linejoin:round"></line><path d="M375.59,189.53a6.48,6.48,0,1,1-6.47-6.48A6.47,6.47,0,0,1,375.59,189.53Z" style="fill:#fff"></path><rect x="420.99" y="70.04" width="92.7" height="82.28" style="fill:#fff;stroke:#263238;stroke-linecap:round;stroke-linejoin:round"></rect><rect x="424.64" y="73.97" width="85.52" height="49.17" style="fill:#92E3A9;stroke:#263238;stroke-miterlimit:10"></rect><rect x="429.89" y="126.57" width="22.34" height="5.34" style="fill:#999"></rect><rect x="456.17" y="126.57" width="22.34" height="5.34" style="fill:#999"></rect><rect x="482.46" y="126.57" width="22.34" height="5.34" style="fill:#999"></rect><rect x="436.68" y="136.52" width="3.44" height="3.05" style="fill:#bfbfbf"></rect><rect x="442.12" y="136.52" width="12.78" height="3.05" style="fill:#bfbfbf"></rect><rect x="457.17" y="136.52" width="12.78" height="3.05" style="fill:#bfbfbf"></rect><rect x="491.6" y="136.52" width="6.39" height="3.05" style="fill:#bfbfbf"></rect><rect x="472.29" y="136.52" width="17.44" height="3.05" style="fill:#bfbfbf"></rect><rect x="482.16" y="141.73" width="12.78" height="3.05" transform="translate(977.11 286.51) rotate(180)" style="fill:#bfbfbf"></rect><rect x="467.12" y="141.73" width="12.78" height="3.05" transform="translate(947.03 286.51) rotate(180)" style="fill:#bfbfbf"></rect><rect x="439.08" y="141.73" width="6.39" height="3.05" transform="translate(884.56 286.51) rotate(180)" style="fill:#bfbfbf"></rect><rect x="447.34" y="141.73" width="17.44" height="3.05" transform="translate(912.13 286.51) rotate(180)" style="fill:#bfbfbf"></rect><path d="M498.07,88.05a6.48,6.48,0,1,1-6.47-6.48A6.47,6.47,0,0,1,498.07,88.05Z" style="fill:#fff"></path><polygon points="436.89 123.28 464.23 96.98 498.14 123.28 436.89 123.28" style="fill:#fff;stroke:#263238;stroke-linecap:round;stroke-linejoin:round"></polygon><polygon points="454.82 106.04 466.11 101.95 475.9 106.04 464.23 96.98 454.82 106.04" style="fill:#fff;stroke:#263238;stroke-linecap:round;stroke-linejoin:round"></polygon><line x1="470.47" y1="110.13" x2="475.9" y2="119.71" style="fill:#fff;stroke:#263238;stroke-linecap:round;stroke-linejoin:round"></line><line x1="467.76" y1="105.34" x2="469.24" y2="107.97" style="fill:#fff;stroke:#263238;stroke-linecap:round;stroke-linejoin:round"></line><line x1="461.5" y1="106.66" x2="456.24" y2="116.74" style="fill:#fff;stroke:#263238;stroke-linecap:round;stroke-linejoin:round"></line><rect x="420.99" y="172.43" width="92.7" height="82.28" style="fill:#fff;stroke:#263238;stroke-linecap:round;stroke-linejoin:round"></rect><rect x="424.64" y="176.36" width="85.52" height="49.17" style="fill:#92E3A9;stroke:#263238;stroke-miterlimit:10"></rect><rect x="429.89" y="228.96" width="22.34" height="5.34" style="fill:#999"></rect><rect x="456.17" y="228.96" width="22.34" height="5.34" style="fill:#999"></rect><rect x="482.46" y="228.96" width="22.34" height="5.34" style="fill:#999"></rect><rect x="436.68" y="238.91" width="3.44" height="3.05" style="fill:#bfbfbf"></rect><rect x="442.12" y="238.91" width="12.78" height="3.05" style="fill:#bfbfbf"></rect><rect x="457.17" y="238.91" width="12.78" height="3.05" style="fill:#bfbfbf"></rect><rect x="491.6" y="238.91" width="6.39" height="3.05" style="fill:#bfbfbf"></rect><rect x="472.29" y="238.91" width="17.44" height="3.05" style="fill:#bfbfbf"></rect><rect x="482.16" y="244.12" width="12.78" height="3.05" transform="translate(977.11 491.3) rotate(180)" style="fill:#bfbfbf"></rect><rect x="467.12" y="244.12" width="12.78" height="3.05" transform="translate(947.03 491.3) rotate(180)" style="fill:#bfbfbf"></rect><rect x="439.08" y="244.12" width="6.39" height="3.05" transform="translate(884.56 491.3) rotate(180)" style="fill:#bfbfbf"></rect><rect x="447.34" y="244.12" width="17.44" height="3.05" transform="translate(912.13 491.3) rotate(180)" style="fill:#bfbfbf"></rect><path d="M474,190.44a6.48,6.48,0,1,1-6.48-6.47A6.48,6.48,0,0,1,474,190.44Z" style="fill:#fff"></path><path d="M498.85,225.53H437.6l10.62-11.76a14.2,14.2,0,0,1,10.54-4.68H475a14.17,14.17,0,0,1,9.46,3.61Z" style="fill:#fff;stroke:#263238;stroke-linecap:round;stroke-linejoin:round"></path><line x1="459.6" y1="216.24" x2="455.88" y2="222.8" style="fill:none;stroke:#263238;stroke-linecap:round;stroke-linejoin:round"></line><line x1="462.31" y1="211.46" x2="460.82" y2="214.08" style="fill:none;stroke:#263238;stroke-linecap:round;stroke-linejoin:round"></line><line x1="471.9" y1="211.39" x2="475.68" y2="218.64" style="fill:none;stroke:#263238;stroke-linecap:round;stroke-linejoin:round"></line><rect x="309.1" y="70.04" width="92.7" height="82.28" style="fill:#fff;stroke:#263238;stroke-linecap:round;stroke-linejoin:round"></rect><rect x="312.75" y="73.97" width="85.52" height="49.17" style="fill:#92E3A9;stroke:#263238;stroke-miterlimit:10"></rect><rect x="318" y="126.57" width="22.34" height="5.34" style="fill:#999"></rect><rect x="344.28" y="126.57" width="22.34" height="5.34" style="fill:#999"></rect><rect x="370.57" y="126.57" width="22.34" height="5.34" style="fill:#999"></rect><rect x="324.79" y="136.52" width="3.44" height="3.05" style="fill:#bfbfbf"></rect><rect x="330.23" y="136.52" width="12.78" height="3.05" style="fill:#bfbfbf"></rect><rect x="345.28" y="136.52" width="12.78" height="3.05" style="fill:#bfbfbf"></rect><rect x="379.71" y="136.52" width="6.39" height="3.05" style="fill:#bfbfbf"></rect><rect x="360.4" y="136.52" width="17.44" height="3.05" style="fill:#bfbfbf"></rect><rect x="370.27" y="141.73" width="12.78" height="3.05" transform="translate(753.33 286.51) rotate(180)" style="fill:#bfbfbf"></rect><rect x="355.23" y="141.73" width="12.78" height="3.05" transform="translate(723.25 286.51) rotate(180)" style="fill:#bfbfbf"></rect><rect x="327.19" y="141.73" width="6.39" height="3.05" transform="translate(660.78 286.51) rotate(180)" style="fill:#bfbfbf"></rect><rect x="335.45" y="141.73" width="17.44" height="3.05" transform="translate(688.35 286.51) rotate(180)" style="fill:#bfbfbf"></rect><polygon points="312.75 123.24 340.81 96.24 355.45 123.24 312.75 123.24" style="fill:#fff;stroke:#263238;stroke-linecap:round;stroke-linejoin:round"></polygon><polygon points="342.76 123.24 379.24 88.15 398.27 123.24 342.76 123.24" style="fill:#fff;stroke:#263238;stroke-linecap:round;stroke-linejoin:round"></polygon><path d="M362.1,88.5A6.48,6.48,0,1,1,355.62,82,6.48,6.48,0,0,1,362.1,88.5Z" style="fill:#fff"></path><line x1="374.23" y1="98.65" x2="376.67" y2="96.24" style="fill:#fff;stroke:#263238;stroke-linecap:round;stroke-linejoin:round"></line><line x1="355.45" y1="117.2" x2="371.79" y2="101.06" style="fill:#fff;stroke:#263238;stroke-linecap:round;stroke-linejoin:round"></line><line x1="337.74" y1="103.56" x2="339.42" y2="101.97" style="fill:#fff;stroke:#263238;stroke-linecap:round;stroke-linejoin:round"></line><line x1="326.51" y1="114.25" x2="336.07" y2="105.15" style="fill:#fff;stroke:#263238;stroke-linecap:round;stroke-linejoin:round"></line><rect x="197.11" y="172.43" width="92.7" height="82.28" style="fill:#fff;stroke:#263238;stroke-linecap:round;stroke-linejoin:round"></rect><rect x="200.75" y="176.36" width="85.52" height="49.17" style="fill:#92E3A9;stroke:#263238;stroke-miterlimit:10"></rect><rect x="206" y="228.96" width="22.34" height="5.34" style="fill:#999"></rect><rect x="232.29" y="228.96" width="22.34" height="5.34" style="fill:#999"></rect><rect x="258.58" y="228.96" width="22.34" height="5.34" style="fill:#999"></rect><rect x="212.79" y="238.91" width="3.44" height="3.05" style="fill:#bfbfbf"></rect><rect x="218.24" y="238.91" width="12.78" height="3.05" style="fill:#bfbfbf"></rect><rect x="233.28" y="238.91" width="12.78" height="3.05" style="fill:#bfbfbf"></rect><rect x="267.71" y="238.91" width="6.39" height="3.05" style="fill:#bfbfbf"></rect><rect x="248.4" y="238.91" width="17.44" height="3.05" style="fill:#bfbfbf"></rect><rect x="258.28" y="244.12" width="12.78" height="3.05" transform="translate(529.34 491.3) rotate(180)" style="fill:#bfbfbf"></rect><rect x="243.24" y="244.12" width="12.78" height="3.05" transform="translate(499.25 491.3) rotate(180)" style="fill:#bfbfbf"></rect><rect x="215.2" y="244.12" width="6.39" height="3.05" transform="translate(436.78 491.3) rotate(180)" style="fill:#bfbfbf"></rect><rect x="223.46" y="244.12" width="17.44" height="3.05" transform="translate(464.36 491.3) rotate(180)" style="fill:#bfbfbf"></rect><path d="M250.1,190.44a6.48,6.48,0,1,1-6.47-6.47A6.48,6.48,0,0,1,250.1,190.44Z" style="fill:#fff"></path><polygon points="237.15 225.48 249.1 204.46 261.43 225.48 237.15 225.48" style="fill:#fff;stroke:#263238;stroke-linecap:round;stroke-linejoin:round"></polygon><polygon points="240.54 225.53 249.14 210.4 257.94 225.41 240.54 225.53" style="fill:#fff;stroke:#263238;stroke-linecap:round;stroke-linejoin:round"></polygon><line x1="249.08" y1="210.4" x2="249.18" y2="225.4" style="fill:#fff;stroke:#263238;stroke-linecap:round;stroke-linejoin:round"></line><polygon points="249.1 204.46 261.43 225.48 286.81 225.4 274.43 204.28 249.1 204.46" style="fill:#fff;stroke:#263238;stroke-linecap:round;stroke-linejoin:round"></polygon><polygon points="260.52 209.8 265.37 218.05 275.39 217.98 270.55 209.73 260.52 209.8" style="fill:#fff;stroke:#263238;stroke-linecap:round;stroke-linejoin:round"></polygon></g><g id="Graphics"><path d="M150.1,169.11a4.43,4.43,0,0,1-4.43,4.43H127.42v18.25a4.43,4.43,0,0,1-8.86,0V173.54H100.3A4.43,4.43,0,0,1,97.17,166a4.38,4.38,0,0,1,3.13-1.3h18.26V146.43A4.43,4.43,0,0,1,123,142a4.44,4.44,0,0,1,4.43,4.43v18.25h18.25A4.43,4.43,0,0,1,150.1,169.11Z" style="fill:none;stroke:#263238;stroke-linecap:round;stroke-linejoin:round"></path><path d="M400.43,333.3a3.57,3.57,0,0,1,3.57,3.58v14.73h14.73a3.58,3.58,0,1,1,0,7.15H404V373.5a3.57,3.57,0,0,1-3.57,3.57,3.57,3.57,0,0,1-3.58-3.57V358.76H382.12a3.58,3.58,0,0,1,0-7.15h14.73V336.88A3.58,3.58,0,0,1,400.43,333.3Z" style="fill:none;stroke:#263238;stroke-linecap:round;stroke-linejoin:round"></path><path d="M319.38,337.29a1.85,1.85,0,0,1,1.85,1.85v7.64h7.63a1.85,1.85,0,1,1,0,3.7h-7.63v7.63a1.85,1.85,0,1,1-3.7,0v-7.63h-7.64a1.85,1.85,0,1,1,0-3.7h7.64v-7.64A1.85,1.85,0,0,1,319.38,337.29Z" style="fill:none;stroke:#263238;stroke-linecap:round;stroke-linejoin:round"></path><path d="M148,252.71a1.85,1.85,0,0,1-1.85,1.85h-7.63v7.63a1.86,1.86,0,1,1-3.71,0v-7.63h-7.63a1.86,1.86,0,1,1,0-3.71h7.63v-7.63a1.86,1.86,0,0,1,3.71,0v7.63h7.63A1.85,1.85,0,0,1,148,252.71Z" style="fill:none;stroke:#263238;stroke-linecap:round;stroke-linejoin:round"></path><path d="M359.72,361.79a1.85,1.85,0,0,1,1.85,1.86v7.63h7.63a1.86,1.86,0,1,1,0,3.71h-7.63v7.63a1.85,1.85,0,0,1-1.85,1.85,1.86,1.86,0,0,1-1.86-1.85V375h-7.63a1.86,1.86,0,1,1,0-3.71h7.63v-7.63A1.86,1.86,0,0,1,359.72,361.79Z" style="fill:none;stroke:#263238;stroke-linecap:round;stroke-linejoin:round"></path><path d="M148,128a1.85,1.85,0,0,1-1.85,1.86h-7.63v7.63a1.86,1.86,0,0,1-3.71,0v-7.63h-7.63a1.86,1.86,0,0,1-1.86-1.86,1.88,1.88,0,0,1,.54-1.31,1.84,1.84,0,0,1,1.32-.54h7.63v-7.64a1.86,1.86,0,0,1,3.71,0v7.64h7.63A1.85,1.85,0,0,1,148,128Z" style="fill:none;stroke:#263238;stroke-linecap:round;stroke-linejoin:round"></path><path d="M583.9,208.64c-.17,0-.33-.06-.49-.09A2.81,2.81,0,0,0,583.9,208.64Zm-.51-.09a8.21,8.21,0,0,1-.88-.28A6,6,0,0,0,583.39,208.55Z" style="fill:none;stroke:#263238;stroke-linecap:round;stroke-linejoin:round"></path><path d="M596.75,177.16c-6.54-2.87-15.09,2.23-19.08,11.35-3.56,8.14-2.32,16.74,2.6,20.55l.61.43c-1.67,3.73-9.78,22.11-9.78,22.11,1.81,3.24,3.92,1.18,3.92,1.18l.92-2.51,6.78-18.42.47-1.28c6.39,2.05,14.34-3,18.15-11.7C605.33,189.75,603.29,180,596.75,177.16Zm3.37,11.55a7.38,7.38,0,0,1-.06.93,23.44,23.44,0,0,1-1.93,7.48,24.31,24.31,0,0,1-1.17,2.34,1.09,1.09,0,0,0-.08.15c-.18.29-.35.6-.54.88s-.41.66-.64,1-.43.61-.65.9l0,0c-.22.3-.44.57-.68.85a19.88,19.88,0,0,1-2.79,2.73l-.33.25-.14.11-.6.42c-.29.19-.58.38-.87.54l-.67.36a10.79,10.79,0,0,1-2.29.84l-.34.07a5.43,5.43,0,0,1-.56.09h-.13a4.56,4.56,0,0,1-.73.05h-.06a3.77,3.77,0,0,1-.58,0,1,1,0,0,1-.25,0h-.1a2.81,2.81,0,0,1-.49-.09h0a6,6,0,0,1-.88-.28l-.08,0-.07,0-.21-.1s0,0-.07,0l-.08,0a2.16,2.16,0,0,1-.3-.18l-.16-.07-.27-.21h0l-.12-.09c-1.62-1.31-2.45-3.81-2.48-6.92a26.22,26.22,0,0,1,2.15-10c.07-.19.16-.4.25-.6a31.35,31.35,0,0,1,2.89-5.2h0c0-.05.07-.11.11-.15.26-.35.51-.69.77-1a5.71,5.71,0,0,1,.39-.47,15.64,15.64,0,0,1,5.18-4.3l.51-.22.18-.06.48-.17a5.54,5.54,0,0,1,1.16-.23,5,5,0,0,1,.54,0,4.93,4.93,0,0,1,.78.06,3.94,3.94,0,0,1,.88.23l0,0c.28.08.56.19.87.3l.84.36a4.94,4.94,0,0,1,2.1,2.2s0,0,0,0a0,0,0,0,1,0,0c.08.14.15.28.22.43l0,.1s0,0,0,0l0,.06c.08.2.16.39.24.61s.16.49.23.75v0a9.76,9.76,0,0,1,.23,1,15,15,0,0,1,.28,2.21A14.8,14.8,0,0,1,600.12,188.71Z" style="fill:none;stroke:#263238;stroke-linecap:round;stroke-linejoin:round"></path><line x1="598.78" y1="181.3" x2="580.81" y2="190.59" style="fill:none;stroke:#263238;stroke-linecap:round;stroke-linejoin:round"></line><path d="M599,181.8c-.07-.15-.14-.29-.22-.43" style="fill:none;stroke:#263238;stroke-linecap:round;stroke-linejoin:round"></path><path d="M599.12,182l.24.61c.08.24.15.49.23.75" style="fill:none;stroke:#263238;stroke-linecap:round;stroke-linejoin:round"></path><path d="M599.6,183.39c.09.32.16.66.23,1a18.25,18.25,0,0,1,.28,2.21,18.49,18.49,0,0,1,0,2.11l-.06.93c-6.1,3.29-16,8.27-21.39,10.93h0" style="fill:none;stroke:#263238;stroke-linecap:round;stroke-linejoin:round"></path><path d="M597,199.46a1.09,1.09,0,0,0-.08.15c-.18.3-.35.6-.54.88l-.64,1c-.21.31-.43.61-.65.9l0,0c-.22.29-.44.57-.68.85a19.88,19.88,0,0,1-2.79,2.73l-.33.25-.14.11-.6.42c-.29.19-.58.38-.87.54l-.67.36a10.79,10.79,0,0,1-2.29.84l-.34.07a5.43,5.43,0,0,1-.56.09h-.13a4.56,4.56,0,0,1-.73.05h-.06a3.69,3.69,0,0,1-.58,0l-.25,0h-.1a2.81,2.81,0,0,1-.49-.09h0a6,6,0,0,1-.88-.28l-.08,0-.35-.15-.38-.21-.16-.07-.27-.21h0Z" style="fill:none;stroke:#263238;stroke-miterlimit:10"></path><path d="M595.84,178.74c-3.77,2-8.11,4.18-11.88,6,0-.05.07-.11.11-.15.26-.35.51-.69.77-1a5.71,5.71,0,0,1,.39-.47,15.64,15.64,0,0,1,5.18-4.3l.51-.22.18-.06.48-.17a5.54,5.54,0,0,1,1.16-.23,5,5,0,0,1,.54,0,4.93,4.93,0,0,1,.78.06,3.94,3.94,0,0,1,.88.23l0,0C595.25,178.52,595.53,178.63,595.84,178.74Z" style="fill:none;stroke:#263238;stroke-miterlimit:10"></path><line x1="186.58" y1="336.5" x2="192.65" y2="330.42" style="fill:none;stroke:#263238;stroke-linecap:round;stroke-linejoin:round"></line><line x1="155.12" y1="367.96" x2="180.51" y2="342.57" style="fill:none;stroke:#263238;stroke-linecap:round;stroke-linejoin:round"></line><line x1="592.78" y1="131.9" x2="601.72" y2="122.96" style="fill:none;stroke:#263238;stroke-linecap:round;stroke-linejoin:round"></line><line x1="564.18" y1="160.49" x2="588.28" y2="136.39" style="fill:none;stroke:#263238;stroke-linecap:round;stroke-linejoin:round"></line></g><g id="Character"><path d="M289.56,271.44h0s0,0,0,0-3.63.62-3.78.63c-5.13.6-20.64,2.91-31.44,4.23-4.28.53-6.59,1.3-10.94-2.11-3.7-2.9-11.37-23.83-13.82-30a13.89,13.89,0,0,1,9.57-3.2c.43-.3,1,.14,1.37.47a3.66,3.66,0,0,1,.83,1.31q3.82,8.51,6.91,17.3c1,3,2.09,3.81,5.22,4,10.23.73,16.73,2.4,32.15,2.82l12.2-3.27,4.61.69,12.13,1.81s.36,1.78-2,2a64.64,64.64,0,0,1-8.7-.17l1.62,3.28L302,272.88l-3.63.7-8.86-2.14" style="fill:#fff;stroke:#263238;stroke-linecap:round;stroke-linejoin:round"></path><path d="M306.5,268.15l-6.46-1c-.63.59-2.48,1.81-3.11,2.4.78.42,2.92.34,3.7.75,0,0,2.17,2.26-2.23,3.24" style="fill:none;stroke:#263238;stroke-linecap:round;stroke-linejoin:round"></path><path d="M299,268c.64.57,2.59,2.26,3.81,2.28" style="fill:#fff;stroke:#263238;stroke-linecap:round;stroke-linejoin:round"></path><path d="M228.26,464.43l-1.73-11.61L216,452.11l1.38,12.69A8.4,8.4,0,0,0,228.26,464.43Z" style="fill:#263238"></path><path d="M227.66,476.7l-.35-.16a5.23,5.23,0,0,0-3.08-.82,15.39,15.39,0,0,0-1.61.57c-2.37.7-4.8-1.59-5.66-4.32s-.56-5.74-.25-8.62a6.89,6.89,0,0,0,.63.93,6.41,6.41,0,0,0,2.15,1.71l0,0a6.33,6.33,0,0,0,3.7.59h.06a5.94,5.94,0,0,0,3.44-1.8,3.79,3.79,0,0,1,1.44-1,3.56,3.56,0,0,1,3,.48c11.92,6.56,11.45,5.72,18.66,9a2.19,2.19,0,0,1,1,3.41Z" style="fill:#fff;stroke:#263238;stroke-linecap:round;stroke-linejoin:round"></path><path d="M227.23,438.19c-5.27,6.73-11.87,15.34-11.87,15.34l-5-10.36s11.09-13.49,16.68-27.65c0,2.76.29,5.8.39,7.48C227.71,428.17,227.25,433,227.23,438.19Z" style="fill:#263238"></path><path d="M216.21,466.52a1.92,1.92,0,0,1-.48,1.19c-.91.83-1.95-.64-2.74-1.61a80.6,80.6,0,0,1-6.53-9.89l-.67-5.35-1.75.76-.23,0c-.17-.31-.35-.6-.52-.9-4-6.76.66-8.15,5.62-8,.57,0,1.76.13,3.72,3.77a23.66,23.66,0,0,1,1.4,2.61A33,33,0,0,1,216.21,466.52Z" style="fill:#fff;stroke:#263238;stroke-linecap:round;stroke-linejoin:round"></path><path d="M245.11,325.85a84.07,84.07,0,0,1-.2-8.89,15,15,0,0,0-5.78-12s-4.24,5.86-16.56,6H222a58.31,58.31,0,0,1-16.21-2.48,59.14,59.14,0,0,1-6.55-2.42,166.59,166.59,0,0,0-1.44,29.3c.6,12.13,7,69.12,9.21,86.43,1.82,14.44,6.89,28.66,7.55,34.81.32,2.91,6.87,1.92,10,.76,4.09-1.52,4.37-2.41,4.37-2.41.22-4.48-1.07-12.31-1.05-16.78,11.06-14.11,28.25-36.51,28.7-39.93C260,371.67,245.55,328.59,245.11,325.85Zm-9.89,68.43c-.27,1.8-3.88,11.25-8,21.57-.07-4.55,1.9-9.31,2.39-16.65,1-14.13-2.1-29.6-1.84-41C230.2,368,235.7,390.94,235.22,394.28Z" style="fill:#263238"></path><path d="M253,402.48a16.8,16.8,0,0,1-6.12,3.41" style="fill:none;stroke:#bfbfbf;stroke-linecap:round;stroke-linejoin:round"></path><path d="M255.44,399.79c-.35.47-.73.93-1.12,1.36" style="fill:none;stroke:#bfbfbf;stroke-linecap:round;stroke-linejoin:round"></path><path d="M210.36,315.47c-.63,2.89-1.77,7.66-3.31,10.19a11.31,11.31,0,0,1-6.79,5.35" style="fill:none;stroke:#bfbfbf;stroke-linecap:round;stroke-linejoin:round"></path><path d="M235.23,391.65a42.13,42.13,0,0,0,3.51,11.56" style="fill:none;stroke:#bfbfbf;stroke-linecap:round;stroke-linejoin:round"></path><path d="M236,395.42a48.17,48.17,0,0,0,1.13,17.12" style="fill:none;stroke:#bfbfbf;stroke-linecap:round;stroke-linejoin:round"></path><path d="M202.79,330c1.78,22.42,4.09,39.48,6,56.49" style="fill:none;stroke:#bfbfbf;stroke-linecap:round;stroke-linejoin:round"></path><path d="M208.9,392.41c0-.71,0-1.42,0-2.14" style="fill:none;stroke:#bfbfbf;stroke-linecap:round;stroke-linejoin:round"></path><path d="M219.35,458.12c-1.21-3.58-9.57-31.2-10.1-42.65-.34-7.61-.72-13-.42-20.4" style="fill:none;stroke:#bfbfbf;stroke-linecap:round;stroke-linejoin:round"></path><line x1="227.89" y1="413.28" x2="227.91" y2="438.07" style="fill:none;stroke:#bfbfbf;stroke-linecap:round;stroke-linejoin:round"></line><path d="M207.05,325.66l6,62.68V404.8l-.21,5.05a45.4,45.4,0,0,0,1.07,11.85l8.21,36.35" style="fill:none;stroke:#bfbfbf;stroke-linecap:round;stroke-linejoin:round"></path><path d="M208.57,204.3c-1.65,6.34,1.83,15.1,1.83,15.1L210,232.55l12.76,2.36,1.11-9.16s4.54.73,6.94-.29,3.93-11.22,3.93-11.22a13.28,13.28,0,0,0,2.82-2.19c.43-.72-3.34-4.26-3.68-4.79a2.07,2.07,0,0,1-.29-1.14c0-.76.06-1.51,0-2.26a31.59,31.59,0,0,0-1.19-4.34,5.42,5.42,0,0,0-2.25-3C222.9,192,210.09,198.45,208.57,204.3Z" style="fill:#fff;stroke:#263238;stroke-linecap:round;stroke-linejoin:round"></path><path d="M231.7,206.6c.29-.08.66.46.85,1.19s.11,1.38-.17,1.45-.66-.46-.85-1.19S231.42,206.67,231.7,206.6Z" style="fill:#263238"></path><path d="M229.63,206.42h0a2.39,2.39,0,0,1,2.92-1.71" style="fill:#fff;stroke:#263238;stroke-linecap:round;stroke-linejoin:round"></path><path d="M229.56,217.56a4.45,4.45,0,0,0,4.62-.69" style="fill:#fff;stroke:#263238;stroke-linecap:round;stroke-linejoin:round"></path><path d="M231.94,231a21.85,21.85,0,0,0-5.44-.6c-2.51.26-2,1.92-5.08,1.94-3.77,0-11.11-3-14.89-1.24-9.46,4.3-11.05,4.72-12.43,6.61-3.64,5,.18,34.66,2.22,43.33,1.63,6.91,1.46,24.85,4.45,27.69,5.57,5.26,13.36,4.39,20.88,3,6.52-1.25,17.4-2.93,19.8-9.11.35-.89.27-4.61.07-10-.6-16.23.37-25.57.08-36l6.1-2.47S240.5,233.4,231.94,231Z" style="fill:#92E3A9"></path><g style="clip-path:url(#clip-path)"><path d="M222.87,290.69c4.27-1.73,13.2-9.75,14.53-20.85.33-2.77,2.29-10.09.4-12.4-1.34,3.88-2.22,11.12-3.68,15-.75,2-1.55,3.92-2.41,5.83C231.29,279.16,223.76,290.33,222.87,290.69Z" style="opacity:0.2"></path><path d="M198.21,293.22c2.85,6.61,9.26,11.24,16.19,13.19s15,1.77,22,.35c-9,5.28-20,9-29.85,5.27a21.14,21.14,0,0,1-5.89-4.24c-3-3.1-2.95-9.61-2.69-13.92l-1.64.09" style="opacity:0.2"></path><path d="M215.7,241a2.56,2.56,0,0,0,1.33,1,1.85,1.85,0,0,0,1.68-.76,11,11,0,0,0,.95-1.68,7.37,7.37,0,0,1,3.42-3.18,14.4,14.4,0,0,0,3.52,5l.51,0a10.63,10.63,0,0,0,.57-6.08,1.86,1.86,0,0,1-1,1.23,8.61,8.61,0,0,0-1.54-2.26,3.07,3.07,0,0,0-2.48-1,3.4,3.4,0,0,0-1.11.38,12.33,12.33,0,0,0-5,5.56,54.6,54.6,0,0,0-5.35-3.38C212.58,237.6,214.19,239.29,215.7,241Z" style="opacity:0.2"></path></g><path d="M231.94,231a21.85,21.85,0,0,0-5.44-.6c-2.51.26-2,1.92-5.08,1.94-3.77,0-11.11-3-14.89-1.24-9.46,4.3-11.05,4.72-12.43,6.61-3.64,5,.18,34.66,2.22,43.33,1.63,6.91,1.46,24.85,4.45,27.69,5.57,5.26,13.36,4.39,20.88,3,6.52-1.25,17.4-2.93,19.8-9.11.35-.89.27-4.61.07-10-.6-16.23.37-25.57.08-36l6.1-2.47S240.5,233.4,231.94,231Z" style="fill:none;stroke:#263238;stroke-miterlimit:10"></path><path d="M241.13,254.31a14.91,14.91,0,0,1,4.13-1.64l-6-10.06c-.6-1-1.48-2.17-2.64-2,0,2,2.35,5.27,3.05,7.31C239.94,248.68,241.75,254,241.13,254.31Z" style="opacity:0.2"></path><g id="freepik--character-2--inject-97"><path d="M210.29,228.3c-1.81.45-3.27.57-3.67,1.82-.26.8.36,1.54,1,2.22a38,38,0,0,0,9.2,6.84,25.84,25.84,0,0,1,5.32-6,29,29,0,0,1-11-4.44Z" style="fill:#fff;stroke:#263238;stroke-linecap:round;stroke-linejoin:round"></path><path d="M223.8,229a3.38,3.38,0,0,1,2.7,1.4c.79.88,1.46,4.48.7,6.79-1.79-2-2.91-5.09-5.45-4.26C223.74,232.28,223.8,229,223.8,229Z" style="fill:#fff;stroke:#263238;stroke-linecap:round;stroke-linejoin:round"></path></g><path d="M238.23,254.89c.58,14.14-.93,29-17.66,37" style="fill:none;stroke:#263238;stroke-linecap:round;stroke-linejoin:round"></path><path d="M213.77,298.44a58,58,0,0,0,22.53,1.31" style="fill:none;stroke:#263238;stroke-linecap:round;stroke-linejoin:round"></path><path d="M207.94,296.59c1,.36,1.95.7,2.93,1" style="fill:none;stroke:#263238;stroke-linecap:round;stroke-linejoin:round"></path><path d="M236.45,300c.39,0,.92-.37.67-.67-10.5.84-19.84-4.24-30.06-4.95.1,1-.31,1.48.31,2.1s3,1,4,1.27a69.57,69.57,0,0,0,8.46,1.81A74.92,74.92,0,0,0,236.45,300Z" style="opacity:0.2"></path><path d="M223.31,233.31,226.45,249l-1.95.48" style="fill:none;stroke:#263238;stroke-linecap:round;stroke-linejoin:round"></path><path d="M223.21,225.11c-2.08-1.05.39.91.39.91a5.37,5.37,0,0,0,1.06,0c.38,0,4.14,0,4.14,0A27.33,27.33,0,0,1,223.21,225.11Z" style="fill:#263238;stroke:#263238;stroke-linecap:round;stroke-linejoin:round"></path><polygon points="240.76 254.5 248.7 250.36 250.13 254.64 241.62 259.05 240.76 254.5" style="fill:#fff;stroke:#263238;stroke-linecap:round;stroke-linejoin:round"></polygon><path d="M215.32,225.21c1.26,3.21,1.57,4.73,3.43,7.18" style="fill:#263238;stroke:#263238;stroke-linecap:round;stroke-linejoin:round"></path><path d="M181,266a84.9,84.9,0,0,0,17.41,6.5c2.42-6.82,2.42-6.82,4.67-9.85,3.15-4.22,5.16-9.53,4.42-14.74a13.71,13.71,0,0,0-6.83-10C189.11,231.66,182.08,257.11,181,266Z" style="fill:#92E3A9"></path><g style="clip-path:url(#clip-path-2)"><path d="M191.43,242.26l3.06.5a7.9,7.9,0,0,0-3.87,6.18l2-1.57a64.89,64.89,0,0,1-.37,7.09c-.1,2.37.2,4.89,1.67,6.75a35.22,35.22,0,0,1,2.88-9.12c-.49,3.28-1,6.69,0,9.85.58,1.83,1.65,3.62,1.4,5.52-1.75-1.18-2.12-1-4.18-1.56-1.23-.3-4-1.67-5.21-1.95a9.13,9.13,0,0,1-4.18-1.72,6.65,6.65,0,0,1-1.55-1,7.3,7.3,0,0,1-.62-1.92,24.56,24.56,0,0,1,3.58-11.2c.9-1.58,4.07-8.53,5.87-8.19C191.9,240.06,191.37,242.25,191.43,242.26Z" style="opacity:0.2"></path></g><path d="M181,266a84.9,84.9,0,0,0,17.41,6.5c2.42-6.82,2.42-6.82,4.67-9.85,3.15-4.22,5.16-9.53,4.42-14.74a13.71,13.71,0,0,0-6.83-10C189.11,231.66,182.08,257.11,181,266Z" style="fill:none;stroke:#263238;stroke-miterlimit:10"></path><path d="M182.8,267.45,177.72,286l26.35,41.38s4.89-6.09,3.1-8.47c-3.57-4.74-9.48-23.71-13.43-32.38a10.11,10.11,0,0,1-.65-6.46L195,271.6S192.65,262.51,182.8,267.45Z" style="fill:#fff;stroke:#263238;stroke-linecap:round;stroke-linejoin:round"></path><path d="M194.16,242.92a27.62,27.62,0,0,0-11.68,16.39" style="fill:none;stroke:#263238;stroke-linecap:round;stroke-linejoin:round"></path><path d="M236.64,241.22c4.05,7.62,4,14.44,4.59,14.56" style="fill:none;stroke:#263238;stroke-linecap:round;stroke-linejoin:round"></path><path d="M196,256.32a25.75,25.75,0,0,0,2,11" style="fill:none;stroke:#263238;stroke-linecap:round;stroke-linejoin:round"></path><path d="M196.81,250.73c-.21.82-.38,1.64-.52,2.48" style="fill:none;stroke:#263238;stroke-linecap:round;stroke-linejoin:round"></path><polygon points="179.51 259.82 178.57 266.52 198.46 274.69 202.02 268.66 179.51 259.82" style="fill:#fff;stroke:#263238;stroke-linecap:round;stroke-linejoin:round"></polygon><path d="M213.08,211.64a9.39,9.39,0,0,0,1.43,4.83c.79,1.26,2.72,2.45,4.11,1.93a9.72,9.72,0,0,0,2.11,4.18" style="fill:#fff;stroke:#263238;stroke-linecap:round;stroke-linejoin:round"></path><path d="M233.72,189.21a3.8,3.8,0,0,0-2.67-1.1c-7.7-.86-15.37,1.41-22.79,3.65a10.85,10.85,0,0,0-4.28,2,9.32,9.32,0,0,0-2.14,3.48,15.34,15.34,0,0,0-1.23,5.91c.09,3.63,2,6.92,3,10.41s.58,8-2.6,9.73a14.56,14.56,0,0,0,5.27-3.07,4.53,4.53,0,0,1-2.5,3,8.78,8.78,0,0,0,5-1.26,7.21,7.21,0,0,1-2.4,2.42,6.59,6.59,0,0,0,6.14-3.09c1.92-3.19.78-7.24.1-10.9s-.38-8.3,3-10a9.8,9.8,0,0,1,2.83-.76c3.61-.58,8.49-.48,11.87-1.92C232.9,196.62,235.78,191.87,233.72,189.21Z" style="fill:#263238;stroke:#263238;stroke-linecap:round;stroke-linejoin:round"></path><path d="M225.05,192.5a2.52,2.52,0,0,1,1.59,2.81" style="fill:none;stroke:#bfbfbf;stroke-linecap:round;stroke-linejoin:round;stroke-width:0.75px"></path><path d="M226.73,191a2.09,2.09,0,0,1,1.78,1.67,6.23,6.23,0,0,1-.11,2.61" style="fill:none;stroke:#bfbfbf;stroke-linecap:round;stroke-linejoin:round;stroke-width:0.75px"></path><path d="M230.28,191.4a2.21,2.21,0,0,1,0,3.39" style="fill:none;stroke:#bfbfbf;stroke-linecap:round;stroke-linejoin:round;stroke-width:0.75px"></path><path d="M221.62,195.35a2.29,2.29,0,0,1,1.77,1.47" style="fill:none;stroke:#bfbfbf;stroke-linecap:round;stroke-linejoin:round;stroke-width:0.75px"></path><path d="M223.37,194.28a1.44,1.44,0,0,1,1.32,1.59" style="fill:none;stroke:#bfbfbf;stroke-linecap:round;stroke-linejoin:round;stroke-width:0.75px"></path><path d="M223.33,213.83a1.54,1.54,0,0,1-1.73-.73,4.53,4.53,0,0,1-.52-1.95,10.38,10.38,0,0,0-1.49,3c-.07-.95-.14-1.9-.2-2.85l-1.45,2a9.06,9.06,0,0,1,.38-2.88l-7.69,1.12a20.09,20.09,0,0,1-1.42-5.5,6.79,6.79,0,0,1,1.72-5.26c2.59-2.57,7.19-3.63,8.95-.18C220.51,201.85,224.69,213.32,223.33,213.83Z" style="fill:#263238;stroke:#263238;stroke-linecap:round;stroke-linejoin:round"></path><path d="M233.74,198.91a4.52,4.52,0,0,1,.92,2.65c.26-.86.48-1.74.66-2.62a1.15,1.15,0,0,0,0-.61,1.17,1.17,0,0,0-.33-.41,4.1,4.1,0,0,0-1.61-.94,1.85,1.85,0,0,0-1.86.42C232,198.05,233.15,198.16,233.74,198.91Z" style="fill:#263238;stroke:#263238;stroke-linecap:round;stroke-linejoin:round"></path></g><g id="Floor"><line x1="97.64" y1="476.7" x2="602.36" y2="476.7" style="fill:none;stroke:#263238;stroke-linecap:round;stroke-linejoin:round"></line></g></svg>