<svg xmlns="http://www.w3.org/2000/svg" viewBox="0 0 500 500"><g id="background-simple"><path d="M455.14,139.27a149.75,149.75,0,0,0-60.61-70.76C349.11,40.88,262.94,3.16,172.88,41.59,41.29,97.73,15.74,316.4,21.49,343.17S264.86,458.06,321.07,445s143.09-113.58,152-158.62C479.85,252.41,476.78,191.7,455.14,139.27Z" style="fill:#92E3A9"></path><path d="M455.14,139.27a149.75,149.75,0,0,0-60.61-70.76C349.11,40.88,262.94,3.16,172.88,41.59,41.29,97.73,15.74,316.4,21.49,343.17S264.86,458.06,321.07,445s143.09-113.58,152-158.62C479.85,252.41,476.78,191.7,455.14,139.27Z" style="fill:#fff;opacity:0.8"></path></g><g id="Character"><path d="M338.91,408.52c-2.2-2.75-7.16-9.64-8.81-11.84s-18.45-7.43-18.45-7.43a96.38,96.38,0,0,1-7.43-13.49c-3.3-7.44-8.54-32.49-11.84-43.78S275,300.59,273.93,298.39s-6.88-36.35-7.16-39.1-.55-19.28-3.58-30.84S250.8,210.28,239.79,207s-33.87-16.79-34.69-19.27S204,171.12,204,171.12c.5-4.91,2.11-12.05,2.11-12.05s2.36-1.57,3.67-2.62,2.62-6.55,2.88-11-1.83-5.5-1.83-5.5v-5c0-1.05-.53-18.34-3.15-24.62s-12-12-21.74-12.58a63,63,0,0,0-19.12,2.36s-8.12,4.46-9.69,11.27-.52,28.81-.52,28.81-2.89-1.31-2.89,1.83-.26,7.07,1.31,10.22a12.76,12.76,0,0,0,3.41,4.45s.75,8.9,2.58,11.26c.26.34.13,5.17.63,5.8,0,0-1.66,16.68-1.93,18.34s-19.55,13.21-23.41,16.24-21.2,9.36-26.15,21.75-3,15.42-2.76,22.58-7.16,47.36-7.43,48.73S84.23,325.09,82,335.56s-13.76,39.37-15.69,45.15A52.35,52.35,0,0,1,60,392.55s-13.5,3.58-15.7,5.78-7.71,6.89-9.64,9.36-8.81,5.79-8.26,7.71,3,1.66,5.51.83,11.84-5,11.84-5-5.78,30.84-6.06,33,1.66,3,3,3.31l1.38.27s.55,3.58,1.93,4.13,3.85-.82,3.85-.82,3.86.55,5.51-.83S57,445.14,57,445.14a37.5,37.5,0,0,0,5.78-4.68c1.65-1.93,5.78-12.67,5.78-12.67s5.78-13.21,7.44-18.72,3.3-11.84,3.3-11.84,24-35,33.59-49.56,16.52-45.43,16.52-45.43l3.86-11s4.4,37.17,4.95,48.18-3.3,30-3.85,40.2-4.68,20.38-4.13,43.5c.46,19.37,1.5,30.81,1.82,34H246.58c.06-3.69,0-16.14-2-42.87-2.47-32.77-9.19-40.44-10.57-63.57S241.17,289,241.17,289s7.71,22.86,8.53,24.51,17.07,43.23,22.86,50.94,19,30.83,19,30.83,6.34,22.58,8.82,26.71,9.36,15.15,11.28,16.52,4.68.28,4.68.28,3.58,6.88,5.51,8.81a2.79,2.79,0,0,0,3.86.27s.82,2.21,4.13,1.38,1.65-6.06,1.65-6.06a3.64,3.64,0,0,0,2.75-3c.28-2.47-5-22.85-5-22.85L327.07,406s7.44,6.61,11,7.16S341.12,411.27,338.91,408.52Z" style="fill:#263238"></path><path d="M165.35,133.76s5.48,5,9.62,5.27a20.43,20.43,0,0,0,7.75-1.16s5.61,1.67,10.68.26,4.41-8.35,4.41-8.35l-15.36-5Z" style="fill:#fff"></path><path d="M176,139.31l-1.05,0c-4.18-.26-9.54-5.13-9.77-5.33a.27.27,0,0,1-.08-.22.27.27,0,0,1,.14-.19l17.09-9a.27.27,0,0,1,.2,0l15.36,5a.25.25,0,0,1,.17.21c0,.07.63,7.16-4.59,8.61-4.75,1.32-10,0-10.74-.24A20.38,20.38,0,0,1,176,139.31Zm-10.21-5.49c1.14,1,5.7,4.74,9.19,5a20.29,20.29,0,0,0,7.64-1.14.33.33,0,0,1,.17,0c.05,0,5.6,1.63,10.54.26,4.4-1.22,4.3-6.89,4.24-7.92l-15.1-4.92Z" style="fill:#263238"></path><path d="M171.63,137.61a9.61,9.61,0,0,1-1.65-.13.26.26,0,0,1-.2-.3.27.27,0,0,1,.3-.2,9.57,9.57,0,0,0,6.14-1.07.26.26,0,0,1,.35.08.25.25,0,0,1-.08.34A9.33,9.33,0,0,1,171.63,137.61Z" style="fill:#263238"></path><path d="M173.5,139a.25.25,0,0,1,0-.5,30.48,30.48,0,0,0,4.23-1,.24.24,0,0,1,.32.15.25.25,0,0,1-.15.32,32.75,32.75,0,0,1-4.32,1Z" style="fill:#263238"></path><path d="M191.16,138.65h0l-4.44-.92.1-.49,4.44.92a.25.25,0,0,1-.05.49Z" style="fill:#263238"></path><path d="M194.1,137.31a12.09,12.09,0,0,1-6.31-1.67.25.25,0,0,1-.07-.35.25.25,0,0,1,.34-.07,12,12,0,0,0,7.18,1.54.25.25,0,1,1,0,.5C194.88,137.3,194.48,137.31,194.1,137.31Z" style="fill:#263238"></path><path d="M174,134.41s5.35,1.66,5.35,10h5.34s.8-6.93,4.54-10.91l1.47-1.42a14.66,14.66,0,0,0-4.67-2.44c-3.48-1.28-2.94-1-7.08-.12-3.1.67-5.88,4.23-5.88,4.23Z" style="fill:#fff"></path><path d="M184.72,144.92h-5.34a.5.5,0,0,1-.5-.5c0-7.85-4.79-9.47-5-9.54l-.13-.06-.93-.64a.48.48,0,0,1-.21-.34.43.43,0,0,1,.1-.38c.11-.16,2.92-3.72,6.16-4.42l1.61-.37c2.59-.61,2.76-.59,5.75.52a15.06,15.06,0,0,1,4.85,2.54.55.55,0,0,1,.15.36.51.51,0,0,1-.15.36l-1.47,1.42c-3.57,3.79-4.39,10.54-4.39,10.61A.51.51,0,0,1,184.72,144.92Zm-4.85-1h4.41c.25-1.62,1.31-7.24,4.62-10.76l1.07-1a18.57,18.57,0,0,0-4.09-2c-2.8-1-2.8-1-5.18-.47-.45.1-1,.23-1.62.36-2.27.5-4.43,2.73-5.24,3.65l.42.29C175,134.2,179.68,136.17,179.87,143.92Z" style="fill:#263238"></path><path d="M182.18,104.23s-2.8-3-5.47-2.44-12.83,7.19-14.83,9.89a11.89,11.89,0,0,0-1.74,7.83c.27.64.67,1.41.67,1.41s-2.54,2.19-.8,6.81,4.67,6.68,7.08,7.19,5.34.38,6.94-.51,3.88-2.57,3.88-2.57,1.73.38,4.27-1.42a5.53,5.53,0,0,0,5.48,1.42,8.8,8.8,0,0,0,7.74,3.59c4.95-.51,8.82-3.72,9.75-8a11.05,11.05,0,0,0-.8-7.32,15.9,15.9,0,0,0-3.74-11c-4.4-5.39-9.75-6-12.42-6.93S182.18,104.23,182.18,104.23Z" style="fill:#92E3A9"></path><path d="M194.54,136a9.32,9.32,0,0,1-7.09-3.58,6,6,0,0,1-5.32-1.33,6.66,6.66,0,0,1-4.09,1.29,44.67,44.67,0,0,1-3.76,2.48c-1.62.91-4.62,1.14-7.3.57-1.51-.33-5.26-1.7-7.44-7.51-1.5-4,0-6.3.67-7.07-.15-.29-.36-.73-.53-1.13a12.23,12.23,0,0,1,1.8-8.32c2-2.73,12.21-9.52,15.13-10.08,2.37-.45,4.74,1.47,5.6,2.26,1-.76,3.74-2.66,6.14-1.86.44.15.94.29,1.5.44,2.94.81,7.37,2,11.15,6.66a16.49,16.49,0,0,1,3.87,11.25,11.64,11.64,0,0,1,.77,7.53c-1,4.46-5.08,7.82-10.18,8.35C195.14,136,194.84,136,194.54,136Zm-6.88-4.64a.51.51,0,0,1,.41.21s2.71,3.87,7.28,3.38,8.42-3.52,9.32-7.57a10.72,10.72,0,0,0-.75-7,.46.46,0,0,1-.06-.3,15.61,15.61,0,0,0-3.63-10.67c-3.58-4.38-7.83-5.55-10.64-6.32-.58-.16-1.11-.31-1.56-.46-2.36-.79-5.49,1.93-5.52,2a.5.5,0,0,1-.69,0s-2.65-2.75-5-2.3-12.52,7-14.52,9.7a11.45,11.45,0,0,0-1.67,7.34c.25.61.64,1.37.65,1.37a.52.52,0,0,1-.12.61c-.09.08-2.24,2-.66,6.25,2,5.34,5.36,6.59,6.71,6.88,2.43.52,5.2.32,6.6-.46a44.47,44.47,0,0,0,3.82-2.54.54.54,0,0,1,.41-.08s1.58.29,3.87-1.33a.5.5,0,0,1,.67.08,5,5,0,0,0,5,1.25Z" style="fill:#263238"></path><path d="M182.18,130.67a.25.25,0,0,1-.25-.25V104.23a.25.25,0,0,1,.5,0v26.19A.25.25,0,0,1,182.18,130.67Z" style="fill:#263238"></path><path d="M181.91,112.7a4.22,4.22,0,0,1-3-1.37,1.2,1.2,0,0,0-1.17-.43c-.7,0-1.26-.07-1.43-1.5,0-.5-.09-1-.13-1.38-.12-1.47-.21-2.19-.72-2.26a3.61,3.61,0,0,0-2.67,1.64.25.25,0,1,1-.47-.17,3.94,3.94,0,0,1,3.21-2c.93.13,1,1.15,1.15,2.71,0,.41.07.86.13,1.36.13,1.09.39,1.07.91,1.06a1.69,1.69,0,0,1,1.57.61,3.77,3.77,0,0,0,2.62,1.19.25.25,0,0,1,0,.5Z" style="fill:#263238"></path><path d="M176.71,107.31a.26.26,0,0,1-.2-.1.24.24,0,0,1,0-.35s1.24-1,1.24-2a.25.25,0,1,1,.5,0,3.67,3.67,0,0,1-1.43,2.38A.3.3,0,0,1,176.71,107.31Z" style="fill:#263238"></path><path d="M174.44,113.08a.27.27,0,0,1-.17-.06l-2-1.8a.24.24,0,0,1-.06-.28l.67-1.54a.24.24,0,0,1,.33-.13.25.25,0,0,1,.13.33l-.6,1.37,1.87,1.68a.25.25,0,0,1,0,.35A.23.23,0,0,1,174.44,113.08Z" style="fill:#263238"></path><path d="M170.29,114.37h0a.24.24,0,0,1-.19-.29,6.12,6.12,0,0,1,.56-1.48,7,7,0,0,1,1.67-1.75.24.24,0,0,1,.35,0,.25.25,0,0,1,0,.35,6.64,6.64,0,0,0-1.53,1.58,5.69,5.69,0,0,0-.51,1.35A.26.26,0,0,1,170.29,114.37Z" style="fill:#263238"></path><path d="M178.78,123.24a8.24,8.24,0,0,1-4.65-1.88,13.37,13.37,0,0,1-1.85-3.22,21.33,21.33,0,0,0-1.39-2.59c-1-1.33-1.77-1.6-2.87-1a4.55,4.55,0,0,0-1.76,2.3.25.25,0,0,1-.48-.15,5.07,5.07,0,0,1,2-2.58c1.7-1,2.78.07,3.53,1.1a20.85,20.85,0,0,1,1.43,2.66,14.73,14.73,0,0,0,1.74,3.08c.91.87,4,2.31,5.31,1.51a7.53,7.53,0,0,0,2.19-2.1.25.25,0,1,1,.42.26,7.57,7.57,0,0,1-2.35,2.26A2.34,2.34,0,0,1,178.78,123.24Z" style="fill:#263238"></path><path d="M178.36,118.58h0c-.26,0-.35-.28-.57-.92a7.12,7.12,0,0,0-1.25-2.47.25.25,0,0,1,0-.35.25.25,0,0,1,.36,0,7.49,7.49,0,0,1,1.35,2.65c0,.1.08.21.11.31.34-.73.91-1.83.94-1.88a.26.26,0,0,1,.34-.11.25.25,0,0,1,.1.34s-.8,1.54-1.06,2.16A.34.34,0,0,1,178.36,118.58Z" style="fill:#263238"></path><path d="M170.69,120.79a.26.26,0,0,1-.24-.19.25.25,0,0,1,.19-.3,6.25,6.25,0,0,0,1.59-1.58.27.27,0,0,1,.36,0,.26.26,0,0,1,0,.35c-.21.27-1.29,1.62-1.88,1.76Z" style="fill:#263238"></path><path d="M170.42,125.54a2,2,0,0,1-1.51-.72c-1.18-1.26-1.53-1.59-2.49-1.59a7.66,7.66,0,0,0-2.31.5.27.27,0,0,1-.33-.15.25.25,0,0,1,.15-.32,8.3,8.3,0,0,1,2.49-.53c1.16,0,1.61.42,2.86,1.75a1.43,1.43,0,0,0,2.05.23.26.26,0,0,1,.36,0,.25.25,0,0,1,0,.35A2,2,0,0,1,170.42,125.54Z" style="fill:#263238"></path><path d="M177.91,132.09a.25.25,0,0,1-.16-.06A30.79,30.79,0,0,0,173,129c-1.91-.85-5.82-.11-5.86-.11a.23.23,0,0,1-.22-.06,21.63,21.63,0,0,1-3.38-3.9,2.37,2.37,0,0,1,0-2.8c.2-.33.31-.53.23-.69-.36-.68-1.66-4-1.1-6.58s3.83-4.93,4-5a.25.25,0,0,1,.35,0,.24.24,0,0,1-.05.35s-3.27,2.42-3.78,4.73.6,5.38,1.05,6.25c.21.42,0,.8-.24,1.18a1.86,1.86,0,0,0,0,2.27,21.4,21.4,0,0,0,3.21,3.72c.71-.13,4.16-.67,6,.17a30.26,30.26,0,0,1,4.86,3.11.25.25,0,0,1,.05.35A.28.28,0,0,1,177.91,132.09Z" style="fill:#263238"></path><path d="M169.23,135h-.06c-2.42-.54-4.62-1.39-4.33-3.86a2.9,2.9,0,0,1,2.21-2.79.25.25,0,0,1,.29.21.25.25,0,0,1-.21.28,2.42,2.42,0,0,0-1.8,2.35c-.22,2,1.42,2.75,3.95,3.33a.25.25,0,0,1,.19.3A.26.26,0,0,1,169.23,135Z" style="fill:#263238"></path><path d="M164,121.56a.28.28,0,0,1-.13,0s-1.88-1.07-2.94-.4a.26.26,0,0,1-.35-.07.26.26,0,0,1,.08-.35c1.31-.84,3.37.33,3.46.38a.25.25,0,0,1-.12.47Z" style="fill:#263238"></path><path d="M163,128.75c-1.57,0-3.19-1.81-3.26-1.88a.25.25,0,0,1,0-.35.23.23,0,0,1,.35,0s1.55,1.71,2.89,1.71a.25.25,0,0,1,0,.5Z" style="fill:#263238"></path><path d="M171.5,109h-.08c-.63-.2-2.71-.9-2.71-1.78s1.66-1.84,2-2a.25.25,0,0,1,.34.1.26.26,0,0,1-.1.34c-.72.39-1.74,1.15-1.74,1.58s1.22,1,2.36,1.3a.25.25,0,0,1,.17.31A.26.26,0,0,1,171.5,109Z" style="fill:#263238"></path><path d="M168.69,110.9a.31.31,0,0,1-.13,0,.26.26,0,0,1-.08-.35l1.33-2.18a.25.25,0,0,1,.35-.08.24.24,0,0,1,.08.34l-1.33,2.18A.25.25,0,0,1,168.69,110.9Z" style="fill:#263238"></path><path d="M179,108.08l-.1,0a.24.24,0,0,1-.13-.33,13.2,13.2,0,0,1,1.51-2.76.75.75,0,0,1,.63-.28c.58,0,1.17.71,1.46,1.09a2.77,2.77,0,0,1,2.15-.86,1.48,1.48,0,0,1,1,1.17.24.24,0,0,1-.17.31.25.25,0,0,1-.31-.17c-.13-.48-.35-.75-.63-.83-.64-.16-1.58.62-1.89.93a.24.24,0,0,1-.2.08.27.27,0,0,1-.18-.11c-.28-.42-.87-1.09-1.25-1.11a.27.27,0,0,0-.23.11,13.31,13.31,0,0,0-1.42,2.62A.26.26,0,0,1,179,108.08Z" style="fill:#263238"></path><path d="M180.45,105.38a.25.25,0,0,1-.21-.11l-.94-1.41a.26.26,0,0,1,.07-.35.26.26,0,0,1,.35.07l.93,1.41a.25.25,0,0,1-.07.35A.22.22,0,0,1,180.45,105.38Z" style="fill:#263238"></path><path d="M183.43,113.83a4.41,4.41,0,0,1-1.05-.11.25.25,0,0,1-.17-.31.24.24,0,0,1,.3-.17,5.78,5.78,0,0,0,4-.75c1.24-.7,1.3-1.81,1.36-3a4.35,4.35,0,0,1,.56-2.33,1.41,1.41,0,0,1,1-.61c1.43-.23,3.43,1.26,3.51,1.32a.25.25,0,0,1,.05.35.24.24,0,0,1-.35,0s-1.92-1.42-3.13-1.23a1,1,0,0,0-.65.41,3.92,3.92,0,0,0-.47,2.07c-.07,1.2-.14,2.56-1.62,3.39A6.63,6.63,0,0,1,183.43,113.83Z" style="fill:#263238"></path><path d="M185.53,118.19a.52.52,0,0,1-.48-.21.24.24,0,0,1,.06-.34.26.26,0,0,1,.33,0s.32.11,1.15-.42a2.66,2.66,0,0,0,1-1.23,3.66,3.66,0,0,1,1.13-1.46.25.25,0,1,1,.3.4,3.24,3.24,0,0,0-1,1.28,3.18,3.18,0,0,1-1.17,1.43A2.66,2.66,0,0,1,185.53,118.19Z" style="fill:#263238"></path><path d="M186.25,123.07a15.63,15.63,0,0,1-4.28-.75.25.25,0,0,1,.16-.48c.05,0,4.82,1.61,6.56,0a4.74,4.74,0,0,0,1.52-2.84,3.15,3.15,0,0,1,.6-1.5q.23-.26.54-.57c.85-.86,2.13-2.17,1.94-3.2a3.79,3.79,0,0,0-1.75-2.14.25.25,0,0,1-.09-.34.26.26,0,0,1,.34-.1,4.29,4.29,0,0,1,2,2.49c.24,1.28-1.09,2.65-2.07,3.64l-.53.55a3,3,0,0,0-.49,1.28,5.26,5.26,0,0,1-1.66,3.11A4.19,4.19,0,0,1,186.25,123.07Z" style="fill:#263238"></path><path d="M193.53,114a.26.26,0,0,1-.21-.11.26.26,0,0,1,.08-.35,3.51,3.51,0,0,1,2.89-.28.25.25,0,0,1,.15.32.24.24,0,0,1-.32.15,3,3,0,0,0-2.45.23A.23.23,0,0,1,193.53,114Z" style="fill:#263238"></path><path d="M194.47,120.92h0c-2.37-.4-3.61-3-3.66-3.09a.25.25,0,0,1,.12-.33.24.24,0,0,1,.33.12s1.18,2.45,3.29,2.81a.25.25,0,0,1,.21.29A.26.26,0,0,1,194.47,120.92Z" style="fill:#263238"></path><path d="M187,132.22a.19.19,0,0,1-.12,0,.25.25,0,0,1-.1-.34l.94-1.67c.68-1.22,1.92-1.68,3.35-2.2.64-.23,1.36-.5,2.1-.85a14.72,14.72,0,0,1,6.19-.93,5.91,5.91,0,0,0,1.43-2.53c.9-2.35.26-6.12.26-6.16a.24.24,0,0,1,.2-.29.25.25,0,0,1,.29.21c0,.15.67,3.94-.28,6.42s-1.62,2.79-1.75,2.84a.2.2,0,0,1-.11,0s-3.7-.23-6,.88c-.77.37-1.5.63-2.15.87-1.39.51-2.49.91-3.09,2l-.93,1.67A.26.26,0,0,1,187,132.22Z" style="fill:#263238"></path><path d="M202.75,130.29h-.07a.24.24,0,0,1-.17-.31,1.64,1.64,0,0,0-.13-1.39c-.73-1.31-3-1.89-3-1.89a.26.26,0,0,1-.18-.31.25.25,0,0,1,.3-.18c.1,0,2.51.64,3.35,2.13a2.16,2.16,0,0,1,.17,1.78A.25.25,0,0,1,202.75,130.29Z" style="fill:#263238"></path><path d="M202.62,128.11a.27.27,0,0,1-.23-.14.25.25,0,0,1,.12-.34c.05,0,1.19-.64,1.19-3.11a.25.25,0,1,1,.5,0c0,2.82-1.41,3.53-1.47,3.56Z" style="fill:#263238"></path><path d="M204.35,120.4h0l-2.4-.38a.26.26,0,0,1-.21-.29.25.25,0,0,1,.29-.21l2.4.39a.25.25,0,0,1,0,.49Z" style="fill:#263238"></path><path d="M202.08,115.78l-.09,0a.25.25,0,0,1-.14-.32,1.32,1.32,0,0,0,0-1.13,3.07,3.07,0,0,0-1.72-1.23.25.25,0,0,1-.17-.2l-.27-1.54a1.75,1.75,0,0,0-1.51-1.47.25.25,0,1,1,0-.49,2.21,2.21,0,0,1,2,1.87l.24,1.39a3.4,3.4,0,0,1,1.88,1.46,1.78,1.78,0,0,1,0,1.53A.25.25,0,0,1,202.08,115.78Z" style="fill:#263238"></path><path d="M195.94,110h0a.25.25,0,0,1-.21-.29,5.11,5.11,0,0,0-1.14-3.9.25.25,0,1,1,.37-.33,5.57,5.57,0,0,1,1.27,4.32A.26.26,0,0,1,195.94,110Z" style="fill:#263238"></path><path d="M191.26,104.61a.27.27,0,0,1-.14,0c-1.23-.84-3.67-.48-3.69-.48a.24.24,0,0,1-.29-.2.26.26,0,0,1,.21-.29c.11,0,2.65-.39,4.05.55a.25.25,0,0,1,.07.35A.26.26,0,0,1,191.26,104.61Z" style="fill:#263238"></path><path d="M194,132.73a11.13,11.13,0,0,1-6.26-2.24.24.24,0,0,1,0-.35.25.25,0,0,1,.35,0s4.22,3.35,8.57,1.63a.25.25,0,0,1,.32.14.25.25,0,0,1-.14.33A7.5,7.5,0,0,1,194,132.73Z" style="fill:#263238"></path><path d="M200.48,132.86a.24.24,0,0,1-.24-.2,3.3,3.3,0,0,0-1.4-2.19,4.35,4.35,0,0,0-3-.44.26.26,0,0,1-.3-.19.25.25,0,0,1,.19-.3,4.85,4.85,0,0,1,3.36.51,3.75,3.75,0,0,1,1.61,2.5.25.25,0,0,1-.19.3Z" style="fill:#263238"></path><path d="M185.25,127.21A.25.25,0,0,1,185,127a1.57,1.57,0,0,1,.2-1.38,3.67,3.67,0,0,1,2.43-1.12.26.26,0,0,1,.27.22.25.25,0,0,1-.23.27s-1.53.15-2.06.92a1.07,1.07,0,0,0-.13,1,.25.25,0,0,1-.17.31Z" style="fill:#263238"></path><path d="M196.07,118.48a.27.27,0,0,1-.25-.22A.26.26,0,0,1,196,118s1-.18,2.51-2.09a.25.25,0,1,1,.39.31c-1.65,2.11-2.79,2.27-2.84,2.28Z" style="fill:#263238"></path><path d="M197.81,119.5a.25.25,0,0,1-.25-.21l-.27-1.8a.25.25,0,0,1,.22-.28.25.25,0,0,1,.28.21l.27,1.8a.25.25,0,0,1-.21.28Z" style="fill:#263238"></path><path d="M178.17,128.31a4.25,4.25,0,0,1-.84-.08,4.68,4.68,0,0,1-3.11-1.78.25.25,0,0,1,.43-.27,4.15,4.15,0,0,0,2.77,1.56,3.91,3.91,0,0,0,3.25-.83.25.25,0,0,1,.36,0,.26.26,0,0,1,0,.36A4.32,4.32,0,0,1,178.17,128.31Z" style="fill:#263238"></path><path d="M201,124a.23.23,0,0,1-.17-.07,5.93,5.93,0,0,0-3.58-1.22.23.23,0,0,1-.23-.26.22.22,0,0,1,.26-.23,6.23,6.23,0,0,1,3.9,1.35.24.24,0,0,1,0,.35A.23.23,0,0,1,201,124Z" style="fill:#263238"></path><path d="M167,120.15h0a.25.25,0,0,1-.22-.27,3.77,3.77,0,0,1,1.86-2.64.25.25,0,0,1,.34.09.26.26,0,0,1-.1.35,3.31,3.31,0,0,0-1.61,2.24A.25.25,0,0,1,167,120.15Z" style="fill:#263238"></path><path d="M342,412.39c-.53-1.32-5.81-4.49-8.19-6.08a36.75,36.75,0,0,1-6.61-6.08c-1.58-1.85-6.87-2.9-10.3-3.7-2.92-.67-6.79-1.91-7.88-2.27l.09-.1c1.32-1.85-2.65-4.49-4.76-8.72s-13.48-32.77-22.46-55.23c-3.7-9.26-5.47-13.25-6.28-14.76.11-.27.26-.62.47-1.09.79-1.85-.53-7.4-7.14-17.17s-9.77-55.23-10.3-60.25a60.67,60.67,0,0,0-1.85-9.51l1.06-1.58c1.05-1.59-20.08-17.5-25.63-18.76s-15.33-3.18-21.67-2.38-13.48.53-14.8-3.7-1.05-11.89-1.05-11.89v-6.76a22,22,0,0,0,7.4-8.69l-.92-.39c-1.33,3.19-5.44,7.92-8.34,8.89l.07.21-4.49.34-5,1.15-6-1.05,0-.13c-4.5-1.29-9.19-6.65-12.32-10.58l-.79.63c2.54,3.17,6.07,7.24,9.78,9.51h0v3.43s.26,11.1-1.06,15.33-3.17,4.49-9.51,3.7-16.11,1.11-21.67,2.38-26.69,17.17-25.63,18.76l1.06,1.58a60.67,60.67,0,0,0-1.85,9.51c-.53,5-3.7,50.47-10.31,60.25S97.17,312.51,98,314.36l.46,1.09c-.8,1.51-2.57,5.5-6.27,14.76-9,22.46-20.35,51-22.46,55.23s-6.08,6.87-4.76,8.72c0,0-4.76,1.58-8.19,2.37s-8.72,1.85-10.3,3.7a36.75,36.75,0,0,1-6.61,6.08c-2.38,1.59-7.66,4.76-8.19,6.08s4.23-.27,6.08-1.32,2.9-2.38,5.28-2.91S50.13,405,50.13,405a4.24,4.24,0,0,1,.53,5c-1.58,2.91-5.55,8.72-6.6,11.63s-5.29,23-3.7,23,2.11-1.32,2.38-3.43c.23-1.9,4.72-11.87,5.64-14.47-.72,3.18-3.6,17.83-3.93,19.15-.37,1.5,0,4,1,3.64s1.25-2.39,1.38-2.89,1.75-5.14,2.26-6.65a40.8,40.8,0,0,0,1-4.39L54,427.3s3.76-6,4.27-7.65,2.63-7.53,2.5-5.27-4.89,17.81-5.39,19.32-4,10.79-4.52,13.55,1,2.76,3-.75,7.78-19.07,7.78-19.07,3.64-8.91,4.9-11.3-3.27,12.42-5.9,18.95.25,6.27,2.88.12,6.91-16.93,6.91-16.93L72.68,409s1.38-5.14,1.51-6.65a23.12,23.12,0,0,0-.13-3.64l-1-.82a2,2,0,0,0,1.86,0c2.12-1.33,4.23-7.67,6.87-11.89s20.88-38.05,25.63-45.19,10-19,10-19a25.73,25.73,0,0,0,2.12-7.66c.26-3.7.52-13.21.52-16.39s2.91-34.87,3.17-42.27,6.61-12.95,6.61-12.95,6.61,8.72,6.61,11.1-.27,16.12-1.06,24.84,3.17,26.42,5,32,2.11,9,5,7.92,3.7-2.37,3.7-2.37,7.66-6.61,10.3-10.57,10-12.42,12.95-16.91a17.06,17.06,0,0,1,6.34-6.08l-.26,21.4s-5.29.79-4.49,2.91,3.17,1.58,3.17,1.58l-.53,6.61s-6.08.53-5,2.91,1.58,2.9,2.38,2.64,2.64-.79,2.64-.79l-.53,6.87s-6.87,1.32-6.08,2.9,6.08,1.85,6.08,1.85v3.44s-4.49-.8-4.49,1.05,3.7,2.65,3.7,2.65l.53,4s-2.65,1.06-5.55-1.85-5-6.34-11.63-2.91-14.8,4.49-17.17,10.57-2.65,23.25-1.06,26.42,6.08,4.5,7.13,7.67a49.48,49.48,0,0,0,2.91,6.6s-3.7,6.08-6.34,6.61-6.08-3.44-9.78,2.9-2.38,13.48-.79,16.12,3.43,7.93,3.43,10.31,3.44,32,3.44,32l-.05.36H153c-1-8-5.12-40.84-3.73-45,1.58-4.75,5.28-10,7.66-7.13s-.53,9.51,10.31,12.68,16.11-2.11,16.91-6.07,2.9-4.5,2.9-4.5,2.12.53,2.91,4.5,6.08,9.24,16.91,6.07,7.93-9.77,10.3-12.68,6.08,2.38,7.67,7.13c1.39,4.18-2.71,37-3.74,45h12.5l0-.36s3.43-29.59,3.43-32,1.85-7.67,3.44-10.31,2.9-9.77-.8-16.12-7.13-2.37-9.77-2.9-6.34-6.61-6.34-6.61a48.66,48.66,0,0,0,2.9-6.6c1.06-3.17,5.55-4.5,7.14-7.67s1.32-20.34-1.06-26.42-10.57-7.13-17.17-10.57-8.72,0-11.63,2.91-5.55,1.85-5.55,1.85l.53-4s3.7-.8,3.7-2.65-4.49-1.05-4.49-1.05v-3.44s5.28-.26,6.07-1.85-6.07-2.9-6.07-2.9l-.53-6.87s1.85.52,2.64.79,1.32-.27,2.38-2.64-5-2.91-5-2.91l-.53-6.61s2.38.53,3.17-1.58-4.49-2.91-4.49-2.91l-.27-21.4a17,17,0,0,1,6.35,6.08c2.9,4.49,10.3,12.94,12.94,16.91S224.79,316,224.79,316s.79,1.32,3.7,2.37,3.17-2.37,5-7.92,5.81-23.25,5-32-1.06-22.46-1.06-24.84,6.61-11.1,6.61-11.1,6.34,5.55,6.6,12.95,3.17,39.1,3.17,42.27.27,12.69.53,16.39a25.54,25.54,0,0,0,2.11,7.66s5.29,11.89,10,19,23,41,25.63,45.19,4.76,10.56,6.87,11.89a1.76,1.76,0,0,0,1.25.2l-.74.63a22.36,22.36,0,0,0-.12,3.64c.12,1.51,1.5,6.65,1.5,6.65l2.26,9.29s4.27,10.79,6.9,16.93,5.52,6.4,2.89-.12-7.15-21.33-5.9-18.95,4.9,11.3,4.9,11.3,5.77,15.55,7.77,19.07,3.52,3.51,3,.75-4-12.05-4.52-13.55-5.27-17.06-5.4-19.32,2,3.64,2.51,5.27,4.27,7.65,4.27,7.65l3.89,8.28a40.8,40.8,0,0,0,1,4.39c.5,1.51,2.13,6.15,2.26,6.65s.38,2.51,1.38,2.89,1.38-2.14,1-3.64c-.32-1.32-3.2-16-3.92-19.15.92,2.6,5.41,12.57,5.64,14.47.27,2.11.8,3.43,2.38,3.43s-2.64-20.08-3.7-23-5-8.72-6.6-11.63a4.25,4.25,0,0,1,.52-5s4.76,2.64,7.14,3.17,3.43,1.85,5.28,2.91S342.5,413.71,342,412.39ZM53.24,421.15c-1.89,3.39-4,4.52-3.52,2.26.42-1.87,5.27-11.79,5.27-11.79s1.38-1.63,2.26-1.51S55.12,417.76,53.24,421.15Zm102-207.22a27.77,27.77,0,0,0-5.16,3.2c-2.46,2-3,7.39-3,7.39s-6.89,2.21-9.6,1.72,1.48-2.46,2.47-4.43-7.88-.74-10.59-2,9.6-6.65,15.26-8.37,14.52-1,14.52-1Zm42.33,164.64c2.91-3.7,11.36-10.31,14-5s-6.87,16.12-11.89,19.29-12.69,4-12.69,4-7.66-.79-12.68-4-14.53-14-11.89-19.29,11.1,1.32,14,5,6.87,11.62,8.46,11.89l1.58.26h1.06l1.59-.26C190.7,390.19,194.67,382.27,197.57,378.57Zm48-158.73c-2.71,1.23-11.57,0-10.58,2s5.16,3.94,2.46,4.43-9.6-1.72-9.6-1.72-.49-5.42-3-7.39a27.77,27.77,0,0,0-5.16-3.2l-3.94-3.44s8.86-.74,14.52,1S248.28,218.61,245.57,219.84Zm78.31,203.57c.51,2.26-1.63,1.13-3.51-2.26s-4.89-10.91-4-11,2.26,1.51,2.26,1.51S323.47,421.54,323.88,423.41Z" style="fill:#5e5e5e"></path></g><g id="lymph-system"><path d="M253.17,268.06a6.25,6.25,0,0,0,1.29-.11v-.1a15.7,15.7,0,0,0-1.69-.68c-.09-.19-.17-.39-.26-.59a77.24,77.24,0,0,0-4.38-8.17.47.47,0,0,1-.06-.09c.18-.24.37-.48.55-.73a17.73,17.73,0,0,0,3-1.22,7.1,7.1,0,0,0,1.67-1.07,4.24,4.24,0,0,0,1.1-1.7l-.08-.06a14.37,14.37,0,0,0-1.65,1c-.53.33-.95.8-1.46,1.17-.7.5-1.43,1-2.18,1.42a24.1,24.1,0,0,0,2.11-3.34,20.57,20.57,0,0,0,2-5.54l-.1,0c-.85,1.75-1.78,3.44-2.75,5.09-.85,1.45-1.71,2.86-2.65,4.28-.41-.62-.83-1.22-1.24-1.83a3,3,0,0,0,.4-.88c.34-1.19-.06-2.34-.87-2.6-.07-3-.2-5.92-.47-8.88a49.61,49.61,0,0,0-1.46-8.69,28.24,28.24,0,0,0-4.08-7.81,50.91,50.91,0,0,0-10.09-11.23,1.64,1.64,0,0,0,1.3-1.42c0-.87-1-1.57-2.27-1.57a2.92,2.92,0,0,0-1.18.23c-.14-.21-.27-.42-.42-.63a9.84,9.84,0,0,0-1.37-1.51,14,14,0,0,0-2.41-1.74,38.68,38.68,0,0,1,16.12,5.52l.06-.08a35,35,0,0,0-17.72-6.59l-5.33-.64c-.08-.82-1-1.47-2.25-1.47a3.61,3.61,0,0,0-.67.08c-.13-.13-.26-.26-.4-.38a7.36,7.36,0,0,0-1.75-1,15.11,15.11,0,0,0-3.89-.79,42.77,42.77,0,0,0-5.88-.13,2.8,2.8,0,0,0-.32-.38,2.44,2.44,0,0,0-2.17-.8,13.06,13.06,0,0,1-2.48-3.6,29.5,29.5,0,0,1-2.42-9.05l-.75-4.69c-.08-.58-.17-1.16-.24-1.73a3,3,0,0,0,.55-1.09,2.2,2.2,0,0,0-.63-2.49,8.93,8.93,0,0,1,.51-1.62c.29-.73.63-1.45,1-2.16s.6-1.23.91-1.83a2.32,2.32,0,0,0,.35,1.48,10.72,10.72,0,0,0,0,2.94,10.09,10.09,0,0,0,.71,2.69,5.45,5.45,0,0,0,1.59,2.25l.07-.07a10.27,10.27,0,0,1-1.38-5,19.61,19.61,0,0,1,0-2.3,2.21,2.21,0,0,0,1.84-1.79c.33-1.21-.07-2.38-.91-2.61a.89.89,0,0,0-.36,0c.23-1.41.44-2.82.66-4.23a2,2,0,0,0,.68-.56,34.61,34.61,0,0,0,1.15,5.4l.09,0c-.17-.9-.25-1.81-.33-2.72s-.16-1.83-.22-2.74a10,10,0,0,1-.06-1.34,2.54,2.54,0,0,0,0-.61,24.85,24.85,0,0,1,.53-3.39c.79-3.56,1.76-7.08,2.71-10.65a25.36,25.36,0,0,0,.66-3.88,2.71,2.71,0,0,0,1.1-1.57c.34-1.21-.07-2.38-.9-2.61a.93.93,0,0,0-.33,0,23.64,23.64,0,0,0-.65-2.94,27.18,27.18,0,0,1-.62-2.67,10.32,10.32,0,0,0-1-2.61,25.49,25.49,0,0,0-3.14-4.54l-.08.06a26.38,26.38,0,0,1,3,4.61,10.42,10.42,0,0,1,.88,2.55,25.12,25.12,0,0,0,.53,2.72,23.52,23.52,0,0,1,.56,3,2.57,2.57,0,0,0-1.24,1.64c-.33,1.21.07,2.38.91,2.61a1,1,0,0,0,.3,0,25.55,25.55,0,0,1-.7,3.46,101.43,101.43,0,0,0-2.92,10.66c0,.29-.09.59-.14.89s-.33.68-.5,1c-.82-.17-1.73.6-2.06,1.77a2.88,2.88,0,0,0,0,1.73c-.19.28-.38.57-.59.84-.84,1-1.89,2-2.82,3l-2.88,3,0,.09a14.24,14.24,0,0,0,3.52-2.35,17.82,17.82,0,0,0,2.78-3.21c.14-.21.26-.44.4-.66a1,1,0,0,0,.84.25c-.31,1.39-.63,2.77-.93,4.16-.07.11-.13.23-.2.35a2.82,2.82,0,0,0-.84,1.38c0,.06,0,.12,0,.17-.4.73-.79,1.46-1.16,2.2s-.71,1.42-1,2.16a10.66,10.66,0,0,0-.55,1.59h0c-.84-.23-1.8.55-2.13,1.76s.06,2.37.9,2.61a1.37,1.37,0,0,0,1.25-.34c.06.49.11,1,.17,1.46l.66,4.7a30,30,0,0,0,2.33,9.26,14.22,14.22,0,0,0,2.43,3.74,2.1,2.1,0,0,0,.56,2.61c.89.88,2.1,1.1,2.72.49a1.14,1.14,0,0,0,.32-.6c.27.11.54.22.81.31a52.19,52.19,0,0,0,9.08,2.11,2.22,2.22,0,0,0,2.22,1.26,3,3,0,0,0,.92-.14,12.06,12.06,0,0,0,1.47,1.57,8.24,8.24,0,0,0,2.88,1.59c1.7,2.28,3.41,4.54,5.15,6.79,2,2.31,3.22,5.12,4.51,7.92s2.49,5.63,3.87,8.41c.35.7.71,1.39,1.13,2.08.23.35.44.67.65,1s.41.63.61,1c.79,1.31,1.55,2.65,2.31,4,1.16,2,2.34,4.07,3.56,6.09a16.78,16.78,0,0,0-.16,2.64c-.06,2-.17,4-.1,6,0,1.66.14,3.31.32,5-.46-1-1-1.89-1.49-2.8-1.08-1.89-2.29-3.69-3.29-5.58a20.05,20.05,0,0,1-1.94-6.07,117.55,117.55,0,0,1-1.59-12.84H233a119.49,119.49,0,0,0,1.2,12.93,20.53,20.53,0,0,0,1.85,6.28c.42.84.88,1.66,1.35,2.47.23,1.53.41,3.07.53,4.61a50.62,50.62,0,0,1,.19,6c-.08,2-.42,4-.64,6s-.48,4-.86,6l.09,0a22.33,22.33,0,0,0,1.76-5.87,33.71,33.71,0,0,0,.45-6.11,55.07,55.07,0,0,0-1.2-10.1c.51.88,1,1.76,1.5,2.65a28.47,28.47,0,0,1,2.5,5.86,21.54,21.54,0,0,1,.68,3.09c.18,1.08.36,2.15.57,3.21.44,2.13.91,4.24,1.48,6.34a32.68,32.68,0,0,0,2.16,6.14l.09,0a20.69,20.69,0,0,1-.88-3.1c-.25-1.05-.48-2.11-.69-3.16-.42-2.12-.84-4.23-1.18-6.36-.19-1.06-.36-2.12-.52-3.18-.05-.32-.12-.65-.19-1a44.63,44.63,0,0,1,1.76-4.5c0,.54,0,1.09.07,1.63,0,.73.09,1.47.19,2.21a4.79,4.79,0,0,0,.76,2.2,22.21,22.21,0,0,0,6.68,5.74l.06-.08a34.67,34.67,0,0,1-3.36-2.78,15,15,0,0,1-2.79-3.24c-.69-1.15-.6-2.64-.68-4.09v-.57A17,17,0,0,0,249.6,267a9,9,0,0,0,2.34.89,7.37,7.37,0,0,0,.93.11c1.12,2.34,2.18,4.71,3.14,7.12l.1,0C255.21,272.73,254.22,270.39,253.17,268.06ZM246,256.17c.45.62.88,1.24,1.31,1.87,0,0-.06.1-.1.15a24.24,24.24,0,0,0-1.25,2.22c0-1.4,0-2.79,0-4.19Zm-1.37-12.72c.22,3,.27,6,.28,8.94a1.7,1.7,0,0,0-.5.4c-.45-.7-.89-1.39-1.32-2.09s-.68-1.17-1-1.76a15.76,15.76,0,0,1,.57-3,22.89,22.89,0,0,1,1.8-4.49C244.47,242.1,244.53,242.78,244.59,243.45Zm-42.45-39.06a2.84,2.84,0,0,0-.32-.72,45.36,45.36,0,0,1,5.71.36,15.68,15.68,0,0,1,3.72.9,6.34,6.34,0,0,1,1.57,1c.05,0,.08.09.13.13a1.91,1.91,0,0,0-.72.62,51.8,51.8,0,0,1-9-1.89A6.75,6.75,0,0,1,202.14,204.39Zm15.05,5.33a9.68,9.68,0,0,1-1.28-1.28,1.55,1.55,0,0,0,.27-.24q2.79.36,5.58.65l1.15.11a20.15,20.15,0,0,1,2.48,2.22,10.47,10.47,0,0,1,1.15,1.52l.38.64,0,0q-3.13-1.12-6.3-2.11A8.72,8.72,0,0,1,217.19,209.72Zm21.3,32.94c-.74-1.35-1.46-2.71-2.24-4.06l-.61-1c-.23-.34-.44-.66-.62-1-.37-.63-.71-1.32-1-2-1.3-2.77-2.52-5.61-3.85-8.4-.68-1.4-1.38-2.78-2.14-4.14a23,23,0,0,0-1.26-2c-.48-.66-1-1.22-1.48-1.82-1.78-2.09-3.59-4.17-5.41-6.24l.42.15c2.07.73,4.16,1.43,6.26,2.08,0,.86,1,1.55,2.27,1.55a3.28,3.28,0,0,0,.79-.1,50.15,50.15,0,0,1,9.85,11.45,27.5,27.5,0,0,1,3.87,7.71,38.68,38.68,0,0,1,1.07,6.28,22.93,22.93,0,0,0-2.24,4.62,15,15,0,0,0-.61,2.3Q240,245.39,238.49,242.66Zm6.07,20.8a42.62,42.62,0,0,0-1.39,4.37,17.69,17.69,0,0,0-.5-1.9,22.07,22.07,0,0,0-1-2.53c.23-1.86.33-3.72.4-5.57.06-2-.05-4-.1-6a15.23,15.23,0,0,1,0-1.65c.18.29.35.59.53.89.49.76,1,1.53,1.49,2.28a3.56,3.56,0,0,0-.28.69c-.34,1.2.06,2.37.9,2.61a1.33,1.33,0,0,0,.28,0c0,1.43,0,2.85,0,4.28,0,.52,0,1,0,1.55C244.82,262.81,244.69,263.13,244.56,263.46Zm7.63,3.5c-.74-.26-1.53-.4-2.29-.66a18,18,0,0,1-2.23-.91,19.35,19.35,0,0,1-1.75-.91c0-.89,0-1.77,0-2.66a26.31,26.31,0,0,1,1.85-3.07,76.69,76.69,0,0,1,4.49,8l.15.33Z" style="fill:#92E3A9"></path><path d="M236.9,218a15.49,15.49,0,0,0-4.43-.49v.1a20.61,20.61,0,0,1,4.19,1.15c.67.26,1.28.65,1.94.88a18.94,18.94,0,0,0,2.09.71l.06-.08a5.18,5.18,0,0,0-1.71-1.52A7.37,7.37,0,0,0,236.9,218Z" style="fill:#92E3A9"></path><path d="M231.08,379.69a53.2,53.2,0,0,1,.21-8.18,48.84,48.84,0,0,0,0-8.29,23,23,0,0,0-2.51-7.92,62.57,62.57,0,0,0-4.18-7.12l-.08.06a61.26,61.26,0,0,1,3.8,7.27,22,22,0,0,1,2.17,7.78c.17,2.7-.11,5.42-.17,8.17a28.76,28.76,0,0,0,.64,8.06c-.12-.14-.22-.3-.36-.44a7.36,7.36,0,0,0-4.35-1.92,7.63,7.63,0,0,0-2.43.06c-.79.14-1.55.33-2.31.52-1.5.38-3,.75-4.51,1a21.63,21.63,0,0,1-4.54.31,13.4,13.4,0,0,1-4.39-.81,8.59,8.59,0,0,1-3.5-2.62,17.55,17.55,0,0,1-2.28-3.92,52.42,52.42,0,0,1-2.06-5.84,2.13,2.13,0,0,0,.64-2.55,2.21,2.21,0,0,0-1.88-1.74c-.71-2.55-1.35-5.1-1.87-7.7-.78-3.85-1.38-7.73-1.86-11.63q1.74,2.59,3.64,5.09c.68.87,1.38,1.72,2.12,2.55l.07.09a2.85,2.85,0,0,0,.67,1.3,2.9,2.9,0,0,0,1.09.79c.08.11.17.21.24.32,1.24,1.78,2.22,3.74,3.29,5.64.54.94,1,1.91,1.55,2.88.26.48.5,1,.74,1.46a8,8,0,0,1,.6,1.5h.1a10.77,10.77,0,0,0-.8-3.24c-.38-1.05-.85-2.05-1.31-3.06a33.14,33.14,0,0,0-3.32-5.38,1.08,1.08,0,0,0,.5-.25c.65-.57.52-1.77-.29-2.71l.67-.4q.69-.4,1.41-.78l.72-.37a5,5,0,0,0,.73-.46l.12-.09,1-.06a40.73,40.73,0,0,1,5.29.18c1.77.13,3.54.34,5.33.52a24.68,24.68,0,0,0,5.44.11,3.87,3.87,0,0,0,2.56-1.25,14.09,14.09,0,0,0,1.17-2.5,26.33,26.33,0,0,0,1.26-5.24h-.1a26.28,26.28,0,0,1-1.59,5.08,13.93,13.93,0,0,1-1.19,2.31,3.21,3.21,0,0,1-2.2.91,25.87,25.87,0,0,1-5.25-.27c-1.77-.22-3.55-.47-5.34-.66a43.91,43.91,0,0,0-5.14-.22,8.26,8.26,0,0,0,1-1.14,11.36,11.36,0,0,0,1.53-2.93l-.08-.05c-.81.76-1.52,1.56-2.23,2.35-.56.6-1,1.26-1.6,1.84a29.37,29.37,0,0,1-4.19.06,8.55,8.55,0,0,1-4.76-1.55,9.77,9.77,0,0,1-2.83-4.21c-1.33-3.28-1.56-6.85-1.88-10.4s-.44-7.13-.56-10.7c-.25-7.14-.35-14.3-.35-21.44H193c-.13,7.15-.17,14.31-.05,21.46.07,3.58.18,7.16.41,10.73.05.9.12,1.79.2,2.68s.18,1.79.3,2.69.3,1.79.48,2.68c.12.44.25.88.38,1.32.41,4.88,1,9.74,1.89,14.57.48,2.62,1.09,5.22,1.77,7.79a2.25,2.25,0,0,0-.54,2.5,3,3,0,0,0,.8,1.28c.26,2.75.5,5.49.7,8.25.25,3.3.47,6.61.56,9.92.06,1.66,0,3.28,0,5,0,.54,0,1.07,0,1.61-.24,1.35-.47,2.71-.67,4.07-.15,1.06-.29,2.12-.4,3.19a8.12,8.12,0,0,0,.38,3.29,40.62,40.62,0,0,0,2.27,5.65c-.4,1-.8,2.06-1.19,3.1-.51,1.35-1,2.72-1.48,4.09-.22-.43-.43-.88-.64-1.3l-1.25-2.75c-.43-.93-.88-1.84-1.4-2.73a10.64,10.64,0,0,0-1.84-2.44l-.07.08a11.64,11.64,0,0,1,1.51,2.58c.43.9.81,1.83,1.15,2.77s.73,1.9,1.12,2.84c.32.75.6,1.45,1,2.2-.49,1.49-.95,3-1.36,4.49-.44,1.68-.83,3.36-1.14,5.07-.23,1.32-.41,2.64-.59,4-.59-1.44-1.19-2.86-1.86-4.26a29.1,29.1,0,0,0-1.76-3.31,22.36,22.36,0,0,0-2.25-3l-.09.05a23.12,23.12,0,0,0,1.48,3.45c.55,1.12,1.3,2.12,1.91,3.19.85,1.49,1.67,3,2.47,4.56l-.06.49-.06.44-5.57-3-.62-.34.27.66c.82,2,1.66,3.94,2.46,5.93l2.39,6,.08,0c-.33,3.65-.59,7.31-.69,11h.1c.71-6.33,1.49-12.64,2.41-18.93l.22.13.36.2.14-.44c.39,3.11.81,6.21,1.28,9.31.35,2.34.66,4.68,1.18,7a42.93,42.93,0,0,0,2,6.81l.1,0-1.15-7c-.24-1.44-.54-2.88-.83-4.31,0-.14,0-.28,0-.42a10.45,10.45,0,0,1,.79-3.63,56.81,56.81,0,0,1,2.93-6,25.44,25.44,0,0,0,1,5.11,31.36,31.36,0,0,0,1.65,4.08,15.7,15.7,0,0,0,2.4,3.69l.07-.07a12,12,0,0,1-1-1.91c-.3-.65-.58-1.31-.83-2A39.63,39.63,0,0,1,205,437.7a41.38,41.38,0,0,1-1-4.8,47.19,47.19,0,0,0,4.49,2.13c1,.39,1.93.79,2.93,1.11a30.64,30.64,0,0,0,3,.89l0-.1-5.58-2.76c-1.66-.83-3.35-1.6-5-2.39-.09-.83-.16-1.68-.18-2.52a73.73,73.73,0,0,1,.46-8.65c.06-.64.15-1.28.23-1.93l.77-1.15c1.27,1.68,2.56,3.34,3.86,5,.73.92,1.48,1.83,2.25,2.72q.59.66,1.2,1.29l.54.53c.5,1.32,1,2.64,1.59,3.93a30,30,0,0,0,1.69,3.16,9.28,9.28,0,0,0,2.42,2.65l.06-.07a21.23,21.23,0,0,1-3.25-6.13q-1.29-3.27-2.79-6.5c-1-2.13-1.86-4.31-2.7-6.51-.38-1-.76-2-1.13-3a51.27,51.27,0,0,0,3.55-3.81,30.27,30.27,0,0,1,3.81.16,14.54,14.54,0,0,1,4.29,1.08,8.69,8.69,0,0,1,3.44,2.71,31.89,31.89,0,0,1,2.42,3.81,44.85,44.85,0,0,1,2,4l.1,0a44.14,44.14,0,0,0-1.91-4.13,31.59,31.59,0,0,0-2.29-3.88c1.16.16,2.32.38,3.44.65.62.15,1.2.41,1.81.5a11.61,11.61,0,0,0,1.92.22l.05-.09a4.42,4.42,0,0,0-1.7-1.09,7.11,7.11,0,0,0-1.94-.33,20.79,20.79,0,0,0-3.7,0,9,9,0,0,0-3.44-2.84,15,15,0,0,0-4.44-1.25,30.51,30.51,0,0,0-3.31-.24c.47-.61.93-1.23,1.35-1.88a13.59,13.59,0,0,1,1.87-2.28c1.42-1.4,3-2.63,4.52-4,.75-.67,1.51-1.33,2.24-2A13.6,13.6,0,0,0,225,397.6l-.09-.06c-1.54,1.26-3.28,2.33-4.86,3.61a35.18,35.18,0,0,0-4.46,4.18,14.06,14.06,0,0,0-1.84,2.49c-.44.76-.93,1.49-1.44,2.2h-.63a17.08,17.08,0,0,0-4.09.62c.27-1.87.42-3.76.52-5.65s0-4,.1-6a34.73,34.73,0,0,1,1-5.87,44,44,0,0,1,1.64-5.23c.37.34.74.67,1.09,1,.82.82,1.62,1.65,2.39,2.51,1.58,1.7,3,3.52,4.52,5.34l.08,0a30.77,30.77,0,0,0-3.84-5.94,24.07,24.07,0,0,0-2.47-2.58c-.44-.4-.91-.77-1.37-1.15a17,17,0,0,1-1.27-1.14,32.27,32.27,0,0,1-4.15-5.57,63,63,0,0,1-3.35-6.16l-.09,0a63.92,63.92,0,0,0,3,6.38,32.83,32.83,0,0,0,4,5.86,15.46,15.46,0,0,0,1.28,1.28l.06.06a45.42,45.42,0,0,0-2,5.2,34.89,34.89,0,0,0-1.29,5.92,53.51,53.51,0,0,0-.3,6c0,1.9.09,3.8.3,5.71l-.31.08a25.22,25.22,0,0,0-3.76,1.46,16.3,16.3,0,0,0,.17-2.66,14.11,14.11,0,0,0-.94-3.16c0-.1-.08-.19-.12-.29.73-2,1.46-4,2.08-6a25,25,0,0,0,1.4-10.25,55.43,55.43,0,0,0-2-10.15,102.09,102.09,0,0,0-3.29-9.78l-.1,0q1.8,4.85,3.1,9.83a54.54,54.54,0,0,1,1.8,10.11,24.24,24.24,0,0,1-1.52,10q-.33,1-.69,2a13.93,13.93,0,0,0-.6-3.65c-.44-1.62-.93-3.18-1.22-4.79a26.16,26.16,0,0,1-.53-4.83c0-1.64,0-3.34-.16-5-.36-6-1.06-12-1.87-18a1.53,1.53,0,0,0,.69.29,50.81,50.81,0,0,0,2,6,18.34,18.34,0,0,0,2.31,4.17,9.5,9.5,0,0,0,3.83,3,17.48,17.48,0,0,0,9.47.57c.48-.09,1-.21,1.43-.32a7.52,7.52,0,0,1,4.37,1.94c1.26,1.16,1.63,2.95,2.23,4.61s1,3.4,1.58,5.07,1.23,3.33,2,4.95l.09,0a38.2,38.2,0,0,0-1.14-5.22c-.29-1.06-.66-2.1-1-3.13.34.27.66.54,1,.83a13.33,13.33,0,0,1,1.45,1.56c.44.55.72,1.2,1.13,1.75s.73,1.17,1.19,1.8l.09,0a4.31,4.31,0,0,0-.41-2.26,6.06,6.06,0,0,0-1.41-1.8,11.53,11.53,0,0,0-3.14-2.21l-.6-1.56c-.33-.83-.65-1.66-1-2.47a6.32,6.32,0,0,0-1.62-2.24,7.6,7.6,0,0,0-4.24-1.67q1.35-.35,2.67-.72c.74-.2,1.49-.42,2.23-.57a7.75,7.75,0,0,1,2.21-.14,6.74,6.74,0,0,1,4.11,1.56,7,7,0,0,1,2.14,3.94l.1,0a7.7,7.7,0,0,0-1.43-3.65ZM195,340.19c.05.16.1.32.16.48a10.43,10.43,0,0,0,3,4.62,9.5,9.5,0,0,0,5.24,1.84,26,26,0,0,0,2.93.05l-.46.29c-.46.3-.91.6-1.36.92-.23.17-.44.36-.67.53a1.89,1.89,0,0,0-2.42-.41,1.16,1.16,0,0,0-.33.51c-.62-.66-1.24-1.33-1.83-2-1.4-1.62-2.76-3.3-4.06-5C195.13,341.39,195,340.79,195,340.19Zm-.88,99-2.2-6c-.65-1.79-1.35-3.57-2-5.36l5.13,2.95C194.66,433.54,194.35,436.35,194.1,439.17Zm2-8.67c0-.06-.05-.12-.08-.19l.09-.58c.05-.4.11-.8.17-1.21l.15,1.2Q196.27,430.1,196.12,430.5Zm6.68-1.24c0,.69,0,1.38,0,2.08l0,0-.18.37a66.29,66.29,0,0,0-3.07,7,9.78,9.78,0,0,0-.59,2.83c-.09-.4-.17-.81-.25-1.21q-.93-4.92-1.81-9.84a27.16,27.16,0,0,1,1.62-3c.72-1.2,1.48-2.38,2.25-3.55l3-4.42A76.86,76.86,0,0,0,202.8,429.26Zm8.88-18.49h0c-.93,1.26-1.94,2.48-3,3.66-.35-1-.7-1.95-1-2.93A16.51,16.51,0,0,1,211.68,410.77Zm-4.33.84.23-.07c.3,1.06.61,2.11.93,3.16l-.27.31.07.07.24-.24c1,3.24,2,6.45,3.35,9.59.27.66.52,1.33.78,2-.4-.49-.77-1-1.14-1.49-.69-.94-1.37-1.89-2-2.86-1.35-1.91-2.69-3.83-4.07-5.73l-.42-.57-.41.59-.05.08c.19-1.35.41-2.7.65-4C205.91,412.12,206.62,411.85,207.35,411.61Zm-2.28.88c-.35,1.53-.66,3.07-.94,4.61-1.43,2.09-2.8,4.22-4.13,6.38-.74,1.2-1.46,2.41-2.17,3.64-.35.61-.69,1.23-1,1.87-.05.09-.1.19-.14.28l-.27-1.44a80.9,80.9,0,0,1,1.59-8.18c.31-1.25.67-2.49,1-3.73l.41-.28A34.4,34.4,0,0,1,205.07,412.49Zm-2.27-2.82a10.07,10.07,0,0,1,.17,1.54c0,.36.08.73.13,1.1a27,27,0,0,0-3.6,2.1q.74-2.3,1.55-4.56c.29-.81.59-1.62.89-2.43A13.16,13.16,0,0,1,202.8,409.67Zm-2.4-16a43,43,0,0,0,1.53,4.78,13.37,13.37,0,0,1,1,4.14c-.3.84-.62,1.68-.94,2.51-.7-1.53-1.48-3-2-4.55a7.29,7.29,0,0,1-.5-3c0-1.05.14-2.11.24-3.17s.18-1.95.29-2.92A20.58,20.58,0,0,0,200.4,393.7Z" style="fill:#92E3A9"></path></g><g id="lymph-node"><path d="M210.48,205.84a.5.5,0,0,1-.5-.5,11.61,11.61,0,0,0-.1-1.44.51.51,0,0,1,.43-.56.5.5,0,0,1,.56.43,11.84,11.84,0,0,1,.11,1.57A.51.51,0,0,1,210.48,205.84Z" style="fill:#fff"></path><path d="M209.71,201.74a.48.48,0,0,1-.46-.32,10.68,10.68,0,0,0-1.21-2.26.5.5,0,0,1,.13-.7.49.49,0,0,1,.69.13,11.74,11.74,0,0,1,1.32,2.47.5.5,0,0,1-.29.65Zm-3-4.37a.5.5,0,0,1-.33-.13,10.81,10.81,0,0,0-2.1-1.46.5.5,0,0,1,.47-.89,12.14,12.14,0,0,1,2.3,1.6.5.5,0,0,1-.34.88ZM202,194.86h-.13a10.28,10.28,0,0,0-2.53-.34.52.52,0,0,1-.5-.51.48.48,0,0,1,.51-.49,11.7,11.7,0,0,1,2.77.37.5.5,0,0,1,.36.61A.49.49,0,0,1,202,194.86Z" style="fill:#fff"></path><path d="M195.21,195.21a.52.52,0,0,1-.47-.33.5.5,0,0,1,.3-.64,12.94,12.94,0,0,1,1.5-.45.5.5,0,1,1,.22,1,10.75,10.75,0,0,0-1.37.4A.39.39,0,0,1,195.21,195.21Z" style="fill:#fff"></path><path d="M193.85,195.82a.5.5,0,0,1-.44-.27.51.51,0,0,1,.2-.68,12.16,12.16,0,0,1,1.43-.63.5.5,0,0,1,.35.93,11.89,11.89,0,0,0-1.31.59A.46.46,0,0,1,193.85,195.82Z" style="fill:#263238"></path><path d="M199.14,217.17a11.67,11.67,0,0,1-2.36-.24.5.5,0,0,1,.2-1,10.76,10.76,0,0,0,2.94.19.51.51,0,0,1,.53.46.5.5,0,0,1-.46.54C199.71,217.16,199.43,217.17,199.14,217.17Zm3.83-.67a.49.49,0,0,1-.47-.33.5.5,0,0,1,.3-.64,10.63,10.63,0,0,0,2.61-1.36.5.5,0,0,1,.58.82,12.29,12.29,0,0,1-2.85,1.49A.5.5,0,0,1,203,216.5Zm-9-.58a.59.59,0,0,1-.22,0,11.52,11.52,0,0,1-2.64-1.85.5.5,0,0,1,0-.7.5.5,0,0,1,.71,0A11.14,11.14,0,0,0,194.2,215a.49.49,0,0,1,.22.67A.5.5,0,0,1,194,215.92ZM208,213a.56.56,0,0,1-.32-.11.52.52,0,0,1-.07-.71,10.75,10.75,0,0,0,1.53-2.51.5.5,0,0,1,.65-.26.51.51,0,0,1,.27.66,11.83,11.83,0,0,1-1.67,2.74A.49.49,0,0,1,208,213Zm-18.46-1.19a.5.5,0,0,1-.42-.24,11.52,11.52,0,0,1-1.3-2.94.5.5,0,0,1,.34-.62.51.51,0,0,1,.62.34,10.61,10.61,0,0,0,1.19,2.69.51.51,0,0,1-.16.69A.56.56,0,0,1,189.49,211.78Zm-1.68-6.37h-.5a11.82,11.82,0,0,1,.42-3.19.5.5,0,0,1,.61-.35.5.5,0,0,1,.35.61,11,11,0,0,0-.38,2.86Zm1.61-5.39a.48.48,0,0,1-.26-.07.5.5,0,0,1-.17-.69,12.11,12.11,0,0,1,2-2.51.5.5,0,1,1,.69.73,10.45,10.45,0,0,0-1.84,2.3A.52.52,0,0,1,189.42,200Z" style="fill:#263238"></path><path d="M210.38,207.33h-.07a.51.51,0,0,1-.43-.56,11.59,11.59,0,0,0,.1-1.43.5.5,0,0,1,.5-.5.5.5,0,0,1,.5.5,11.69,11.69,0,0,1-.11,1.56A.49.49,0,0,1,210.38,207.33Z" style="fill:#263238"></path><path d="M209.19,199.23a.49.49,0,0,1-.41-.21.51.51,0,0,1,.12-.7l1.23-.86a.51.51,0,0,1,.7.12.5.5,0,0,1-.13.7l-1.23.86A.47.47,0,0,1,209.19,199.23Z" style="fill:#263238"></path><path d="M212.85,196.67a.49.49,0,0,1-.41-.21.51.51,0,0,1,.12-.7l2.43-1.7a.5.5,0,0,1,.58.82l-2.43,1.7A.52.52,0,0,1,212.85,196.67Zm4.86-3.4a.51.51,0,0,1-.41-.21.5.5,0,0,1,.13-.7l2.43-1.7a.5.5,0,0,1,.57.82l-2.43,1.7A.52.52,0,0,1,217.71,193.27Zm4.87-3.4a.48.48,0,0,1-.41-.21.5.5,0,0,1,.12-.7l2.43-1.7a.51.51,0,0,1,.7.13.5.5,0,0,1-.13.69l-2.43,1.7A.51.51,0,0,1,222.58,189.87Zm4.86-3.4a.49.49,0,0,1-.41-.21.51.51,0,0,1,.12-.7l2.43-1.7a.51.51,0,0,1,.7.13.5.5,0,0,1-.12.69l-2.43,1.7A.52.52,0,0,1,227.44,186.47Zm4.86-3.4a.49.49,0,0,1-.41-.21.51.51,0,0,1,.12-.7l2.44-1.7a.5.5,0,0,1,.69.13.49.49,0,0,1-.12.69l-2.43,1.7A.52.52,0,0,1,232.3,183.07Zm4.87-3.4a.48.48,0,0,1-.41-.21.5.5,0,0,1,.12-.7l2.43-1.7a.51.51,0,0,1,.7.13.5.5,0,0,1-.13.69l-2.43,1.7A.44.44,0,0,1,237.17,179.67Zm4.86-3.4a.5.5,0,0,1-.29-.9l2.43-1.7a.5.5,0,1,1,.58.81l-2.44,1.7A.41.41,0,0,1,242,176.27Zm4.86-3.39a.5.5,0,0,1-.41-.22.5.5,0,0,1,.12-.69l2.44-1.7a.5.5,0,0,1,.57.81l-2.43,1.7A.46.46,0,0,1,246.89,172.88Zm4.86-3.4a.52.52,0,0,1-.41-.22.5.5,0,0,1,.13-.69l1.64-1.15a.47.47,0,0,1,.28-.09h1a.5.5,0,0,1,0,1h-.81L252,169.39A.52.52,0,0,1,251.75,169.48Zm8.54-1.15h-3a.5.5,0,0,1,0-1h3a.5.5,0,0,1,0,1Z" style="fill:#263238"></path><path d="M264.76,168.33h-1.5a.5.5,0,0,1,0-1h1.5a.5.5,0,0,1,0,1Z" style="fill:#263238"></path><path d="M366.29,266.46l-1.65-.07a.51.51,0,0,1-.48-.53.47.47,0,0,1,.53-.47l1.62.07h1.34a.5.5,0,0,1,0,1Zm4.35-.09a.5.5,0,0,1,0-1c1,0,2-.1,3-.17a.5.5,0,0,1,.07,1c-1,.07-2,.13-3,.17Zm-9-.17h0c-1-.07-2-.16-3-.25a.5.5,0,0,1-.45-.55.53.53,0,0,1,.55-.45c1,.1,2,.18,3,.25a.5.5,0,0,1,0,1ZM376.6,266a.5.5,0,0,1-.05-1c1-.1,2-.21,3-.34a.5.5,0,0,1,.56.43.51.51,0,0,1-.43.56c-1,.13-2,.24-3,.34Zm-20.87-.32h-.06c-1-.12-2-.25-3-.39a.5.5,0,0,1-.42-.56.5.5,0,0,1,.56-.43c1,.14,2,.27,2.95.39a.5.5,0,0,1,.44.55A.49.49,0,0,1,355.73,265.63Zm26.8-.46a.5.5,0,0,1-.08-1c1-.16,2-.33,2.93-.51a.5.5,0,1,1,.19,1c-1,.19-2,.36-3,.52Zm-32.72-.38h-.09l-3-.53a.51.51,0,0,1-.4-.59.51.51,0,0,1,.59-.4c1,.19,1.94.36,2.93.53a.5.5,0,0,1,.41.58A.49.49,0,0,1,349.81,264.79Zm38.59-.74a.48.48,0,0,1-.48-.39.49.49,0,0,1,.38-.59c1-.22,1.93-.45,2.89-.69a.49.49,0,0,1,.61.36.51.51,0,0,1-.36.61c-1,.25-1.95.48-2.93.69Zm-44.46-.39h-.11c-1-.21-2-.44-2.92-.68a.49.49,0,0,1-.37-.6.51.51,0,0,1,.6-.37c1,.24,1.93.46,2.9.68a.49.49,0,0,1,.39.59A.5.5,0,0,1,343.94,263.66Zm50.26-1.07a.5.5,0,0,1-.14-1c1-.27,1.91-.56,2.85-.86a.5.5,0,1,1,.3,1c-.95.3-1.91.59-2.87.86Zm-56.07-.35-.13,0c-1-.27-1.93-.54-2.88-.83a.5.5,0,1,1,.28-1c1,.29,1.9.56,2.86.82a.5.5,0,0,1-.13,1Zm61.78-1.46a.5.5,0,0,1-.16-1c.94-.33,1.87-.67,2.8-1a.5.5,0,0,1,.64.29.51.51,0,0,1-.28.65c-.94.36-1.88.7-2.83,1Zm-67.5-.28a.47.47,0,0,1-.16,0c-.95-.32-1.9-.65-2.83-1a.5.5,0,0,1,.34-.94c.93.34,1.86.66,2.81,1a.5.5,0,0,1-.16,1Zm73.1-1.86a.5.5,0,0,1-.46-.31.49.49,0,0,1,.27-.65c.92-.39,1.83-.78,2.73-1.19a.5.5,0,0,1,.41.91q-1.36.62-2.76,1.2A.65.65,0,0,1,405.51,258.64Zm-78.71-.18a.58.58,0,0,1-.19,0c-.93-.37-1.86-.76-2.77-1.15a.5.5,0,0,1,.39-.92c.91.39,1.82.77,2.75,1.14a.5.5,0,0,1,.28.65A.5.5,0,0,1,326.8,258.46ZM411,256.17a.52.52,0,0,1-.45-.28.5.5,0,0,1,.23-.67c.89-.44,1.78-.89,2.66-1.35a.5.5,0,0,1,.46.88c-.88.47-1.78.92-2.68,1.37A.59.59,0,0,1,411,256.17Zm-89.66-.08a.5.5,0,0,1-.21,0c-.92-.43-1.82-.86-2.71-1.31a.5.5,0,0,1,.45-.9c.88.45,1.78.88,2.68,1.3a.5.5,0,0,1,.24.67A.49.49,0,0,1,321.31,256.09ZM316,253.4a.53.53,0,0,1-.24-.06c-.88-.48-1.76-1-2.62-1.47a.5.5,0,0,1,.51-.87c.85.5,1.71,1,2.59,1.46a.5.5,0,0,1,.2.68A.51.51,0,0,1,316,253.4Zm100.3,0a.49.49,0,0,1-.43-.26.5.5,0,0,1,.19-.68c.86-.49,1.72-1,2.57-1.5a.5.5,0,0,1,.69.17.5.5,0,0,1-.17.68c-.86.52-1.73,1-2.6,1.52A.45.45,0,0,1,416.27,253.38Zm-105.47-3a.5.5,0,0,1-.26-.08c-.85-.53-1.69-1.07-2.52-1.63a.49.49,0,0,1-.14-.69.5.5,0,0,1,.69-.14c.82.55,1.66,1.09,2.5,1.61a.51.51,0,0,1,.16.69A.52.52,0,0,1,310.8,250.39Zm110.6-.11a.48.48,0,0,1-.42-.23.49.49,0,0,1,.15-.69c.83-.54,1.66-1.09,2.48-1.65a.5.5,0,0,1,.56.83c-.82.56-1.66,1.12-2.5,1.66A.45.45,0,0,1,421.4,250.28Zm-115.56-3.21a.47.47,0,0,1-.3-.1c-.81-.58-1.62-1.18-2.41-1.78a.51.51,0,0,1-.1-.7.5.5,0,0,1,.7-.1q1.18.9,2.4,1.77a.51.51,0,0,1,.11.7A.52.52,0,0,1,305.84,247.07Zm120.49-.18a.5.5,0,0,1-.29-.9c.8-.59,1.59-1.18,2.37-1.79a.5.5,0,0,1,.7.09.5.5,0,0,1-.08.7c-.79.61-1.6,1.22-2.4,1.81A.55.55,0,0,1,426.33,246.89Zm-125.24-3.45a.47.47,0,0,1-.32-.12c-.78-.63-1.55-1.28-2.3-1.93a.51.51,0,0,1-.05-.71.51.51,0,0,1,.71-.05c.74.65,1.5,1.29,2.27,1.92a.49.49,0,0,1,.07.7A.5.5,0,0,1,301.09,243.44Zm130-.22a.5.5,0,0,1-.39-.18.49.49,0,0,1,.07-.7c.76-.63,1.52-1.28,2.27-1.93a.5.5,0,1,1,.65.75c-.75.66-1.51,1.31-2.29,2A.45.45,0,0,1,431.06,243.22Zm-134.49-3.71a.5.5,0,0,1-.34-.13c-.73-.68-1.46-1.37-2.17-2.08a.49.49,0,0,1,0-.7.5.5,0,0,1,.71,0c.7.7,1.42,1.38,2.14,2.06a.5.5,0,0,1-.34.86Zm139-.23a.5.5,0,0,1-.34-.86c.72-.68,1.44-1.36,2.15-2.06a.5.5,0,0,1,.7.72c-.72.7-1.44,1.39-2.17,2.07A.5.5,0,0,1,435.56,239.28Zm-143.24-4a.51.51,0,0,1-.36-.15c-.69-.73-1.37-1.47-2-2.21a.5.5,0,1,1,.75-.67q1,1.11,2,2.19a.5.5,0,0,1,0,.71A.53.53,0,0,1,292.32,235.31Zm147.5-.22a.5.5,0,0,1-.36-.84c.68-.72,1.36-1.45,2-2.18a.49.49,0,0,1,.7,0,.51.51,0,0,1,0,.71c-.68.74-1.36,1.48-2.05,2.2A.51.51,0,0,1,439.82,235.09Zm-151.48-4.24a.49.49,0,0,1-.38-.18c-.64-.77-1.28-1.55-1.89-2.33a.49.49,0,0,1,.08-.7.49.49,0,0,1,.7.08c.61.78,1.24,1.55,1.88,2.31a.5.5,0,0,1-.39.82Zm155.49-.19a.52.52,0,0,1-.33-.12.51.51,0,0,1-.05-.71c.64-.75,1.27-1.51,1.89-2.29a.52.52,0,0,1,.71-.07.49.49,0,0,1,.07.7c-.62.78-1.26,1.55-1.91,2.31A.49.49,0,0,1,443.83,230.66Zm-159.18-4.51a.49.49,0,0,1-.4-.21c-.59-.8-1.17-1.61-1.74-2.44a.5.5,0,0,1,.83-.56c.56.81,1.13,1.62,1.71,2.41a.5.5,0,0,1-.1.7A.47.47,0,0,1,284.65,226.15ZM447.57,226a.47.47,0,0,1-.3-.1.51.51,0,0,1-.1-.7c.6-.79,1.19-1.59,1.76-2.4a.51.51,0,0,1,.7-.11.5.5,0,0,1,.11.69c-.58.82-1.17,1.63-1.77,2.42A.51.51,0,0,1,447.57,226Zm-166.3-4.76a.51.51,0,0,1-.42-.23c-.54-.84-1.07-1.69-1.58-2.55a.5.5,0,0,1,.85-.51c.51.85,1,1.69,1.57,2.52a.5.5,0,0,1-.15.69A.53.53,0,0,1,281.27,221.24Zm169.76-.1a.51.51,0,0,1-.28-.09.49.49,0,0,1-.13-.69c.55-.82,1.08-1.66,1.61-2.5a.5.5,0,0,1,.69-.15.51.51,0,0,1,.16.69c-.53.84-1.08,1.68-1.63,2.51A.51.51,0,0,1,451,221.14Zm-172.84-5a.49.49,0,0,1-.43-.26c-.49-.87-1-1.75-1.43-2.64a.5.5,0,0,1,.89-.46c.45.88.93,1.75,1.41,2.61a.49.49,0,0,1-.19.68A.45.45,0,0,1,278.19,216.13Zm176,0A.47.47,0,0,1,454,216a.5.5,0,0,1-.18-.68c.5-.86,1-1.72,1.47-2.59a.49.49,0,0,1,.68-.19.48.48,0,0,1,.19.67c-.48.88-1,1.75-1.48,2.61A.5.5,0,0,1,454.2,216.08Zm2.87-5.23a.46.46,0,0,1-.23-.06.5.5,0,0,1-.22-.67c.45-.88.89-1.77,1.31-2.66a.5.5,0,1,1,.91.43c-.43.9-.87,1.8-1.33,2.68A.48.48,0,0,1,457.07,210.85Zm-181.64,0a.5.5,0,0,1-.45-.28c-.44-.9-.86-1.8-1.27-2.72a.51.51,0,0,1,.25-.66.5.5,0,0,1,.66.25q.61,1.37,1.26,2.7a.49.49,0,0,1-.23.66A.44.44,0,0,1,275.43,210.83Zm184.19-5.37a.48.48,0,0,1-.2,0,.51.51,0,0,1-.26-.66c.4-.91.78-1.82,1.15-2.74a.51.51,0,0,1,.65-.27.49.49,0,0,1,.28.65c-.37.93-.76,1.85-1.16,2.76A.5.5,0,0,1,459.62,205.46ZM273,205.39a.51.51,0,0,1-.46-.31c-.38-.93-.75-1.86-1.1-2.79a.5.5,0,0,1,.29-.65.5.5,0,0,1,.64.29c.35.93.72,1.85,1.1,2.76a.52.52,0,0,1-.27.66A.71.71,0,0,1,273,205.39Zm188.88-5.47a.57.57,0,0,1-.18,0,.49.49,0,0,1-.29-.64c.34-.93.67-1.86,1-2.81a.5.5,0,0,1,.63-.31.51.51,0,0,1,.32.63c-.32,1-.66,1.9-1,2.84A.51.51,0,0,1,461.86,199.92Zm-191-.12a.49.49,0,0,1-.47-.34c-.33-.94-.64-1.89-.95-2.85a.5.5,0,0,1,1-.3c.3.95.61,1.89.93,2.83a.49.49,0,0,1-.3.63A.51.51,0,0,1,270.86,199.8Zm192.9-5.54a.35.35,0,0,1-.14,0,.49.49,0,0,1-.34-.62c.29-1,.56-1.9.83-2.86a.5.5,0,1,1,1,.26c-.26,1-.54,1.93-.83,2.89A.5.5,0,0,1,463.76,194.26Zm-194.7-.16a.51.51,0,0,1-.48-.37c-.27-1-.53-1.93-.78-2.9a.5.5,0,0,1,1-.24c.25,1,.5,1.92.78,2.87a.51.51,0,0,1-.35.62Zm196.27-5.61-.12,0a.5.5,0,0,1-.37-.6c.24-1,.45-1.93.66-2.9a.49.49,0,0,1,.59-.39.51.51,0,0,1,.39.59c-.21,1-.43,2-.66,2.93A.51.51,0,0,1,465.33,188.49Zm-197.74-.19a.5.5,0,0,1-.49-.39c-.21-1-.42-1.95-.61-2.94a.5.5,0,0,1,1-.19c.19,1,.39,1.95.61,2.91a.5.5,0,0,1-.38.6Zm199-5.67h-.09a.51.51,0,0,1-.41-.58q.27-1.47.48-2.94a.51.51,0,0,1,.57-.42.5.5,0,0,1,.42.57c-.15,1-.31,2-.48,3A.51.51,0,0,1,466.56,182.63Zm-200.11-.2a.5.5,0,0,1-.5-.41q-.24-1.49-.45-3a.51.51,0,0,1,.43-.57.49.49,0,0,1,.56.43q.21,1.47.45,2.94a.51.51,0,0,1-.41.58Zm201-5.71h-.06a.49.49,0,0,1-.43-.56c.11-1,.21-2,.3-3a.51.51,0,0,1,.54-.45.5.5,0,0,1,.46.54c-.09,1-.19,2-.31,3A.51.51,0,0,1,467.43,176.72Zm-201.8-.21a.51.51,0,0,1-.5-.45c-.11-1-.2-2-.28-3a.5.5,0,1,1,1-.08c.08,1,.18,2,.29,3a.51.51,0,0,1-.44.56ZM468,170.77h0a.5.5,0,0,1-.47-.52c.06-1,.11-2,.14-3a.51.51,0,0,1,.51-.48.51.51,0,0,1,.49.51c0,1-.08,2-.14,3A.5.5,0,0,1,468,170.77Zm-202.82-.22a.51.51,0,0,1-.5-.47c-.05-1-.09-2-.12-3a.5.5,0,0,1,.49-.51.5.5,0,0,1,.51.49q0,1.48.12,3a.5.5,0,0,1-.47.53Zm203-5.76a.5.5,0,0,1-.5-.5v-.18c0-1,0-2,0-3a.5.5,0,0,1,.49-.52.51.51,0,0,1,.51.49c0,1,0,2,0,3v.18A.5.5,0,0,1,468.14,164.79ZM265,164.57a.5.5,0,0,1-.5-.5c0-1,0-2,0-3a.49.49,0,0,1,.52-.49.5.5,0,0,1,.48.52c0,1,0,2,0,3A.5.5,0,0,1,265,164.57Zm203-5.94a.5.5,0,0,1-.5-.47c-.05-1-.13-2-.21-3a.5.5,0,0,1,.45-.55.51.51,0,0,1,.55.46q.12,1.48.21,3a.49.49,0,0,1-.47.52Zm-202.82,0h0a.49.49,0,0,1-.47-.52c.05-1,.12-2,.2-3a.5.5,0,0,1,.54-.46.5.5,0,0,1,.46.54c-.08,1-.15,2-.2,3A.5.5,0,0,1,265.15,158.59Zm202.3-5.91a.5.5,0,0,1-.49-.44c-.12-1-.25-2-.39-3a.5.5,0,0,1,.42-.57.51.51,0,0,1,.57.42c.14,1,.27,2,.39,3a.5.5,0,0,1-.44.55Zm-201.81-.05h-.05a.5.5,0,0,1-.45-.55c.11-1,.24-2,.38-3a.49.49,0,0,1,.56-.43.51.51,0,0,1,.43.56c-.14,1-.26,2-.37,3A.51.51,0,0,1,265.64,152.63Zm201-5.87a.51.51,0,0,1-.5-.41c-.17-1-.36-1.95-.56-2.92a.5.5,0,0,1,.39-.59.49.49,0,0,1,.59.39c.2,1,.39,2,.57,3a.5.5,0,0,1-.41.58Zm-200.13,0h-.08a.49.49,0,0,1-.41-.57c.16-1,.34-2,.54-3a.48.48,0,0,1,.58-.39.5.5,0,0,1,.4.58c-.19,1-.37,1.95-.53,2.93A.51.51,0,0,1,266.46,146.71Zm198.91-5.8a.5.5,0,0,1-.48-.39c-.23-1-.48-1.92-.74-2.88a.5.5,0,0,1,.36-.61.48.48,0,0,1,.61.35c.26,1,.51,1.94.74,2.91a.51.51,0,0,1-.37.61Zm-197.76-.07h-.11a.5.5,0,0,1-.38-.6c.22-1,.46-1.95.7-2.92a.5.5,0,1,1,1,.25c-.24,1-.47,1.92-.69,2.89A.5.5,0,0,1,267.61,140.84Zm196.2-5.7a.49.49,0,0,1-.47-.36c-.29-.95-.59-1.9-.91-2.85a.5.5,0,0,1,.32-.63.51.51,0,0,1,.63.32c.32.95.62,1.91.91,2.87a.5.5,0,0,1-.33.62Zm-194.72-.09-.14,0a.5.5,0,0,1-.34-.62c.27-1,.56-1.92.86-2.88a.5.5,0,0,1,1,.3c-.3.95-.59,1.9-.86,2.85A.5.5,0,0,1,269.09,135.05Zm192.82-5.6a.52.52,0,0,1-.47-.33c-.34-.94-.7-1.86-1.07-2.79a.5.5,0,1,1,.93-.37c.37.93.73,1.87,1.08,2.81a.51.51,0,0,1-.29.65A.57.57,0,0,1,461.91,129.45Zm-191-.11-.16,0a.51.51,0,0,1-.31-.64c.33-1,.67-1.89,1-2.82a.5.5,0,0,1,.64-.29.49.49,0,0,1,.29.64c-.35.93-.69,1.86-1,2.8A.5.5,0,0,1,270.89,129.34Zm188.78-5.46a.49.49,0,0,1-.45-.3c-.4-.91-.81-1.81-1.24-2.71a.5.5,0,0,1,.91-.43c.43.91.84,1.82,1.24,2.74a.5.5,0,0,1-.25.66A.52.52,0,0,1,459.67,123.88ZM273,123.75a.63.63,0,0,1-.19,0,.5.5,0,0,1-.27-.66c.38-.92.78-1.84,1.19-2.76a.51.51,0,0,1,.66-.25.49.49,0,0,1,.25.66c-.4.91-.8,1.82-1.18,2.74A.49.49,0,0,1,273,123.75Zm184.1-5.28a.49.49,0,0,1-.45-.28c-.45-.88-.91-1.76-1.39-2.63a.5.5,0,1,1,.88-.48c.48.88.95,1.76,1.4,2.66a.49.49,0,0,1-.22.67A.46.46,0,0,1,457.12,118.47Zm-181.64-.17a.54.54,0,0,1-.22,0,.5.5,0,0,1-.23-.67c.43-.9.89-1.8,1.35-2.69a.5.5,0,0,1,.89.47c-.46.88-.91,1.76-1.34,2.66A.52.52,0,0,1,275.48,118.3Zm178.76-5.09a.5.5,0,0,1-.43-.25c-.5-.85-1-1.7-1.54-2.54a.5.5,0,1,1,.84-.54q.81,1.28,1.56,2.58a.5.5,0,0,1-.17.68A.48.48,0,0,1,454.24,113.21Zm-176-.22a.53.53,0,0,1-.24-.06.5.5,0,0,1-.19-.68c.49-.87,1-1.74,1.51-2.6a.49.49,0,0,1,.69-.17.5.5,0,0,1,.17.69c-.52.85-1,1.7-1.5,2.57A.5.5,0,0,1,278.25,113Zm172.82-4.85a.51.51,0,0,1-.42-.23c-.55-.82-1.11-1.64-1.69-2.45a.5.5,0,0,1,.12-.7.51.51,0,0,1,.7.12c.58.82,1.15,1.64,1.7,2.48a.49.49,0,0,1-.14.69A.46.46,0,0,1,451.07,108.14Zm-169.72-.27a.5.5,0,0,1-.27-.08.49.49,0,0,1-.15-.69c.54-.85,1.1-1.68,1.67-2.51a.51.51,0,0,1,.7-.12.49.49,0,0,1,.12.69c-.56.82-1.11,1.65-1.65,2.48A.51.51,0,0,1,281.35,107.87Zm166.25-4.61a.51.51,0,0,1-.4-.2c-.6-.79-1.21-1.58-1.83-2.35a.49.49,0,0,1,.08-.7.5.5,0,0,1,.7.07c.63.79,1.24,1.58,1.85,2.38a.5.5,0,0,1-.1.7A.54.54,0,0,1,447.6,103.26Zm-162.85-.32a.46.46,0,0,1-.29-.1.5.5,0,0,1-.11-.7c.6-.81,1.2-1.6,1.83-2.39a.5.5,0,1,1,.78.61c-.61.79-1.22,1.58-1.81,2.37A.46.46,0,0,1,284.75,102.94Zm159.1-4.35a.52.52,0,0,1-.38-.17c-.64-.76-1.29-1.5-2-2.24a.51.51,0,0,1,0-.71.49.49,0,0,1,.7,0c.67.74,1.34,1.5,2,2.26a.5.5,0,0,1-.06.7A.5.5,0,0,1,443.85,98.59Zm-155.39-.36a.5.5,0,0,1-.38-.82c.64-.77,1.3-1.53,2-2.27a.5.5,0,0,1,.74.66q-1,1.11-2,2.25A.48.48,0,0,1,288.46,98.23Zm151.38-4.08a.51.51,0,0,1-.36-.15c-.68-.72-1.38-1.42-2.09-2.12a.5.5,0,0,1,.7-.71c.72.7,1.42,1.42,2.12,2.14a.49.49,0,0,1-.37.84Zm-147.39-.38a.53.53,0,0,1-.35-.13.5.5,0,0,1,0-.71c.69-.72,1.39-1.44,2.11-2.14a.49.49,0,0,1,.7,0,.5.5,0,0,1,0,.71c-.71.7-1.41,1.4-2.09,2.12A.51.51,0,0,1,292.45,93.77ZM435.58,90a.5.5,0,0,1-.34-.13c-.72-.68-1.46-1.34-2.2-2a.51.51,0,0,1-.05-.71.49.49,0,0,1,.7,0c.76.66,1.5,1.33,2.23,2a.5.5,0,0,1-.34.86Zm-138.87-.38a.5.5,0,0,1-.37-.16.51.51,0,0,1,0-.71c.74-.67,1.48-1.34,2.24-2a.5.5,0,1,1,.66.76q-1.12,1-2.22,2A.5.5,0,0,1,296.71,89.58ZM431.09,86a.48.48,0,0,1-.32-.11c-.76-.63-1.54-1.25-2.32-1.86a.5.5,0,1,1,.61-.79c.79.62,1.58,1.24,2.35,1.88a.49.49,0,0,1,.06.7A.48.48,0,0,1,431.09,86Zm-129.86-.35a.5.5,0,0,1-.31-.89c.77-.63,1.56-1.25,2.36-1.86a.51.51,0,0,1,.7.1.5.5,0,0,1-.1.7c-.79.6-1.57,1.21-2.33,1.84A.56.56,0,0,1,301.23,85.67Zm125.14-3.31a.46.46,0,0,1-.29-.1c-.8-.58-1.61-1.16-2.43-1.72a.5.5,0,0,1-.12-.69.49.49,0,0,1,.69-.13c.83.57,1.64,1.14,2.45,1.73a.51.51,0,0,1,.11.7A.49.49,0,0,1,426.37,82.36ZM306,82.05a.5.5,0,0,1-.29-.91c.81-.58,1.64-1.15,2.47-1.7a.5.5,0,1,1,.56.83c-.83.55-1.65,1.11-2.45,1.69A.52.52,0,0,1,306,82.05ZM421.45,79a.47.47,0,0,1-.27-.08c-.83-.53-1.67-1.06-2.52-1.57a.5.5,0,0,1,.52-.86c.86.52,1.71,1.05,2.54,1.59a.5.5,0,0,1,.15.7A.5.5,0,0,1,421.45,79ZM311,78.74a.5.5,0,0,1-.26-.93c.85-.53,1.71-1,2.58-1.55a.51.51,0,0,1,.68.19.49.49,0,0,1-.18.68q-1.29.75-2.55,1.53A.53.53,0,0,1,311,78.74Zm105.39-2.85a.45.45,0,0,1-.25-.07c-.86-.49-1.73-1-2.6-1.42a.5.5,0,0,1,.46-.89c.89.47,1.76.95,2.63,1.44a.5.5,0,0,1,.19.68A.51.51,0,0,1,416.35,75.89Zm-100.22-.15a.51.51,0,0,1-.44-.27.49.49,0,0,1,.21-.67c.87-.48,1.76-.94,2.66-1.39a.5.5,0,0,1,.67.22.49.49,0,0,1-.22.67q-1.33.67-2.64,1.38A.5.5,0,0,1,316.13,75.74Zm94.94-2.64a.44.44,0,0,1-.22,0c-.89-.43-1.78-.85-2.68-1.26a.51.51,0,0,1-.25-.67.49.49,0,0,1,.66-.24c.91.41,1.81.84,2.71,1.27a.51.51,0,0,1,.23.67A.49.49,0,0,1,411.07,73.1Zm-89.59,0a.49.49,0,0,1-.45-.29.5.5,0,0,1,.24-.67c.9-.42,1.82-.82,2.74-1.22a.5.5,0,1,1,.4.92c-.92.39-1.83.8-2.72,1.21A.54.54,0,0,1,321.48,73.06ZM327,70.7a.48.48,0,0,1-.46-.32.5.5,0,0,1,.28-.65c.92-.36,1.86-.72,2.8-1.06a.52.52,0,0,1,.65.3.5.5,0,0,1-.3.64q-1.41.51-2.79,1A.39.39,0,0,1,327,70.7Zm78.67-.06a.43.43,0,0,1-.19,0c-.91-.38-1.83-.75-2.75-1.11a.5.5,0,0,1-.29-.64.5.5,0,0,1,.65-.29c.93.36,1.86.73,2.78,1.12a.49.49,0,0,1,.26.65A.5.5,0,0,1,405.64,70.64Zm-73.05-2a.48.48,0,0,1-.47-.34.49.49,0,0,1,.31-.63c.95-.32,1.9-.62,2.87-.91a.5.5,0,0,1,.29,1c-1,.29-1.91.59-2.84.9Zm67.48-.17a.44.44,0,0,1-.16,0c-.94-.33-1.88-.65-2.82-1a.5.5,0,1,1,.3-1c.95.3,1.91.62,2.85,1a.49.49,0,0,1,.3.64A.48.48,0,0,1,400.07,68.49Zm-61.76-1.55a.5.5,0,0,1-.48-.37.52.52,0,0,1,.35-.62q1.44-.39,2.91-.75a.5.5,0,0,1,.6.37.51.51,0,0,1-.36.61c-1,.23-1.93.48-2.89.74Zm56.07-.26-.14,0c-.95-.27-1.91-.53-2.87-.78a.5.5,0,0,1-.37-.6.49.49,0,0,1,.61-.36c1,.24,1.94.5,2.9.78a.5.5,0,0,1,.35.62A.51.51,0,0,1,394.38,66.68Zm-50.26-1.16a.5.5,0,0,1-.11-1c1-.21,2-.41,2.95-.6a.5.5,0,0,1,.58.4.49.49,0,0,1-.4.58q-1.47.28-2.91.6Zm44.46-.31-.11,0q-1.44-.31-2.91-.6a.51.51,0,0,1-.4-.59.5.5,0,0,1,.59-.39c1,.19,2,.39,2.94.61a.49.49,0,0,1,.38.59A.5.5,0,0,1,388.58,65.21ZM350,64.4a.5.5,0,0,1-.08-1c1-.17,2-.32,3-.46a.5.5,0,0,1,.56.43.5.5,0,0,1-.42.56c-1,.14-2,.29-2.95.45Zm32.72-.32h-.08c-1-.16-2-.3-2.94-.43a.5.5,0,0,1,.13-1c1,.14,2,.28,3,.44a.5.5,0,0,1-.08,1Zm-26.8-.51a.5.5,0,0,1-.06-1c1-.12,2-.22,3-.32a.5.5,0,0,1,.54.46.49.49,0,0,1-.45.54c-1,.09-2,.2-3,.31Zm20.87-.28h0c-1-.1-2-.19-3-.26a.49.49,0,0,1-.46-.53.51.51,0,0,1,.53-.47c1,.08,2,.16,3,.27a.49.49,0,0,1,.45.54A.5.5,0,0,1,376.78,63.29ZM361.86,63a.51.51,0,0,1-.5-.47.5.5,0,0,1,.47-.53l3-.19a.49.49,0,0,1,.53.48.5.5,0,0,1-.48.52q-1.5.07-3,.18Zm9-.15h0c-1,0-2-.07-3-.09a.5.5,0,0,1,0-1h0q1.52,0,3,.09a.5.5,0,0,1,0,1Z" style="fill:#263238"></path><path d="M374.37,276.9s-.62-3.59-1.22-7.51.9-4.81,4.21-9.93-6.32-13.84-3.91-13.84a60.8,60.8,0,0,0,20.76-2.11c10.23-3,17.76-15.65,20.16-18s9.93-9.93,14.15-26.79,1.2-28.28-6-40.92-12.94-28.29-18.06-39.43S387,93.65,375.25,89.43s-40.32.3-54.77,8.13-19.86,17.75-22,17.75S294.3,109,294.3,109a5.72,5.72,0,0,0-3.61-1.8c-2.41-.3-7.22.9-7.22.9l-6-3.61-.9,3.61L299,127.58s4.57,45.73,17.3,66.8,38.37,40.37,41,42a19.7,19.7,0,0,1,4.37,3.77S360.26,250.65,363,255s4,7,4,8.74-2.6,13.45-2.6,13.45" style="fill:#949494"></path><path d="M364.42,277.72h-.11a.5.5,0,0,1-.38-.6c.72-3.23,2.59-11.91,2.59-13.34,0-1.65-1.17-4.18-3.9-8.48s-1.69-13.42-1.49-15a19.33,19.33,0,0,0-4.12-3.51c-3-1.82-28.38-21-41.12-42.12-12.21-20.22-17-63.49-17.35-66.81l-22.32-19.36a.5.5,0,0,1-.16-.5l.9-3.61a.51.51,0,0,1,.75-.31l5.84,3.51c1-.23,5-1.15,7.2-.87a6.22,6.22,0,0,1,3.94,2,.35.35,0,0,1,.08.16c.83,2.48,2.54,6,3.74,6,.53,0,1.83-1.39,3.35-3a69.14,69.14,0,0,1,18.38-14.68c14.8-8,43.68-12.28,55.18-8.16,12.06,4.33,24.46,18.22,29.48,29.15,1.64,3.57,3.33,7.58,5.12,11.83,3.76,8.9,8,19,12.91,27.56,6.85,12,10.5,23.58,6.07,41.29-4.24,17-11.79,24.54-14.27,27a32.3,32.3,0,0,0-2.15,2.66c-3.49,4.58-10,13.1-18.23,15.52a58.09,58.09,0,0,1-19.54,2.17l-1.21,0a15.93,15.93,0,0,0,1.33,2.28c2,3.13,5.09,7.87,2.85,11.33-.7,1.08-1.32,2-1.85,2.75-2,2.87-2.74,3.94-2.29,6.84.59,3.86,1.22,7.45,1.23,7.49a.51.51,0,0,1-.41.58.51.51,0,0,1-.58-.41s-.63-3.64-1.23-7.51c-.5-3.29.42-4.63,2.45-7.56.53-.77,1.15-1.65,1.84-2.72,1.89-2.92-1-7.33-2.85-10.25-1.27-2-1.77-2.79-1.44-3.41a.86.86,0,0,1,.8-.41l1.4,0A57,57,0,0,0,394.07,243c7.91-2.32,14.29-10.68,17.72-15.17.95-1.24,1.7-2.22,2.23-2.76,2.43-2.43,9.83-9.83,14-26.55,4.35-17.38.76-28.79-6-40.56-4.93-8.62-9.19-18.74-13-27.66-1.79-4.24-3.48-8.25-5.11-11.8-4.94-10.74-17.1-24.39-28.91-28.63-11.3-4.05-39.75.18-54.36,8.1a68.1,68.1,0,0,0-18.13,14.49c-2,2.14-3.12,3.32-4.08,3.32-2.28,0-4.21-5.26-4.65-6.56a5.35,5.35,0,0,0-3.23-1.56c-2.29-.29-7,.88-7,.89a.5.5,0,0,1-.38-.06l-5.44-3.26-.67,2.66,22.25,19.28a.53.53,0,0,1,.17.33c0,.46,4.71,45.86,17.23,66.6,12.64,20.94,37.85,40,40.79,41.78a20.36,20.36,0,0,1,4.5,3.89.55.55,0,0,1,.11.38c0,.1-1.34,10.41,1.31,14.58,2.88,4.52,4.06,7.14,4.06,9s-2.51,13.08-2.61,13.56A.51.51,0,0,1,364.42,277.72Z" style="fill:#263238"></path><path d="M386.27,141.43a2,2,0,0,0,1.18-.39c2.06-1.5,12.93-4.74,19.39-3.85,7,1,18.6-.86,19.09-.94a2,2,0,1,0-.63-3.95c-.11,0-11.49,1.82-17.91.93-7.36-1-19.31,2.41-22.29,4.58a2,2,0,0,0,1.17,3.62Z" style="fill:#92E3A9"></path><path d="M386.27,141.93a2.51,2.51,0,0,1-1.47-4.53c3.05-2.21,15.19-5.7,22.66-4.67,6.27.87,17.3-.85,17.76-.92a2.42,2.42,0,0,1,1.86.44,2.49,2.49,0,0,1-1.07,4.49c-.49.08-12.14,1.93-19.24.95-6.36-.88-17,2.29-19,3.76A2.51,2.51,0,0,1,386.27,141.93Zm18.15-8.39c-7.14,0-16.46,2.81-19,4.67a1.5,1.5,0,0,0-.33,2.1,1.54,1.54,0,0,0,2.09.33c2.12-1.54,13.19-4.85,19.76-3.94,6.95,1,18.46-.87,18.94-.94A1.51,1.51,0,0,0,427.1,134a1.52,1.52,0,0,0-1.72-1.25c-.47.08-11.64,1.82-18.06.93A22.13,22.13,0,0,0,404.42,133.54Z" style="fill:#263238"></path><path d="M376,152.9a2,2,0,0,0,1.93-1.49c0-.1,2.74-10,11.42-14.67,7.46-4,10.83-9.59,13.79-14.52a54,54,0,0,1,3.26-5c4.65-6.13,7.27-17.39,7.38-17.86a2,2,0,0,0-3.9-.9c0,.11-2.54,10.9-6.67,16.34a58.11,58.11,0,0,0-3.49,5.36c-2.84,4.71-5.77,9.57-12.26,13.05-10.25,5.51-13.27,16.71-13.4,17.19a2,2,0,0,0,1.43,2.44A2.22,2.22,0,0,0,376,152.9Z" style="fill:#92E3A9"></path><path d="M376,153.4a2.18,2.18,0,0,1-.63-.08,2.5,2.5,0,0,1-1.79-3c.12-.48,3.21-11.9,13.65-17.5,6.36-3.41,9.26-8.22,12.06-12.87a59.92,59.92,0,0,1,3.52-5.41c4-5.31,6.56-16,6.58-16.14a2.5,2.5,0,0,1,4.88,1.12c-.11.48-2.76,11.85-7.48,18a57,57,0,0,0-3.21,4.94c-3,5-6.41,10.65-14,14.72-8.45,4.54-11.15,14.26-11.18,14.36A2.49,2.49,0,0,1,376,153.4Zm35.83-56a1.5,1.5,0,0,0-1.46,1.16c0,.11-2.56,11-6.76,16.53a60.8,60.8,0,0,0-3.45,5.28c-2.89,4.8-5.85,9.73-12.46,13.28-10.05,5.39-13,16.4-13.16,16.86a1.5,1.5,0,0,0,2.91.76c0-.1,2.8-10.22,11.67-15,7.34-3.94,10.66-9.46,13.59-14.34a58.78,58.78,0,0,1,3.29-5c4.58-6,7.18-17.19,7.29-17.67a1.49,1.49,0,0,0-1.13-1.79A1.24,1.24,0,0,0,411.8,97.41Z" style="fill:#263238"></path><path d="M379.24,152.2a2,2,0,0,0,1.67-.9c.1-.14,9.41-14.08,19-18.23,10.11-4.37,24.3-9.27,24.44-9.32a2,2,0,0,0-1.3-3.78c-.14,0-14.47,5-24.73,9.42C387.63,134,378,148.48,377.58,149.1a2,2,0,0,0,.56,2.77A2,2,0,0,0,379.24,152.2Z" style="fill:#fff"></path><path d="M379.24,152.7a2.41,2.41,0,0,1-1.37-.42,2.5,2.5,0,0,1-.71-3.46c.41-.62,10.13-15.19,21-19.89,10.22-4.41,24.63-9.38,24.77-9.43a2.48,2.48,0,0,1,1.91.11,2.54,2.54,0,0,1,1.27,1.44,2.51,2.51,0,0,1-1.55,3.18c-.14,0-14.37,5-24.42,9.29-9.49,4.11-18.72,17.92-18.81,18.06A2.49,2.49,0,0,1,379.24,152.7Zm44.51-32.34a1.62,1.62,0,0,0-.49.08c-.15,0-14.52,5-24.7,9.41C388,134.43,378.4,148.76,378,149.37a1.51,1.51,0,0,0-.21,1.13,1.47,1.47,0,0,0,.64.95,1.55,1.55,0,0,0,2.08-.42c.09-.14,9.48-14.21,19.25-18.42,10.08-4.36,24.34-9.28,24.48-9.33a1.5,1.5,0,0,0-.48-2.92Z" style="fill:#263238"></path><path d="M419.19,219.74s8.73-8.13,1.2-25.58-19.26-28.89-25.58-31.3-16.55-1.2-16.55-1.2,5.12-4.21,14.75-4.21,9,2.4,15.95,1.8,12-2.71,16.55-3,10.83-.3,10.83-.3a21.42,21.42,0,0,0,2.52-5.15c.3-.94,3.93-5-10-4.78-12.4.18-17.46-7.52-25.58-4.82s-19,6.63-22,6.63a79.3,79.3,0,0,1-9.63-1.21s8.13-15.65-3-32.8-20.76-19-28.29-19.86-27.68,6.32-33.4,15-9,10.84-11.14,9.33-3.91-5.71-6.62-5.71-9.63-.91-11.13-2.71l-1.5-1.81-3.32,3.61s2.71,5.72,6.93,7.53,3,5.41,6.62,6.62,9,2.4,9,2.4-3.31,10.84-1.2,20.47,4.21,19.26,12.34,34.61,12.64,28,23.47,38.22S360.21,242,360.21,242s-3.31,6.32-.61,11.74S365,266.69,365,266.69l-.6,10.53,7.22-.3a21,21,0,0,1-.6-8.43c.6-4.81,1.2-9-.3-12.64s-2.71-8.12-1.21-9.93,3.92-.3,3.92-.3,17.75,0,23.77-3,11.74-9.33,14.45-13.24a24.1,24.1,0,0,0,3.31-6Z" style="fill:#fff"></path><path d="M364.42,277.72a.5.5,0,0,1-.5-.53l.6-10.43c-.33-.89-2.86-7.79-5.36-12.79-2.41-4.81-.32-10.18.39-11.75-2.86-1.58-19.62-11-29.48-20.31-8.39-7.92-13-17.28-18.38-28.11-1.63-3.29-3.31-6.68-5.19-10.24-8.16-15.41-10.31-25.23-12.39-34.73-1.85-8.46.45-17.92,1.07-20.2-1.44-.34-5.62-1.33-8.56-2.31a5.56,5.56,0,0,1-3.32-3.24,6.35,6.35,0,0,0-3.34-3.39c-4.34-1.86-7.06-7.53-7.18-7.77a.5.5,0,0,1,.09-.55l3.31-3.62a.48.48,0,0,1,.38-.16.53.53,0,0,1,.37.18l1.5,1.81c1.29,1.54,7.79,2.53,10.75,2.53,2,0,3.39,1.78,4.76,3.5a12.54,12.54,0,0,0,2.16,2.31,1.85,1.85,0,0,0,1.47.31c2.06-.38,5.07-3.58,8.95-9.51,5.83-8.89,25.94-16.23,33.88-15.27,8.57,1,17.84,3.43,28.65,20.09a35,35,0,0,1,3.32,32.69,70.55,70.55,0,0,0,8.9,1.09c2.37,0,10.2-2.66,17.11-5l4.7-1.59c4.38-1.46,7.88,0,11.94,1.63,3.71,1.52,7.91,3.26,13.79,3.16,6.3-.09,9.86.66,10.88,2.3a2.81,2.81,0,0,1-.21,2.83,2.07,2.07,0,0,0-.15.3,21.39,21.39,0,0,1-2.58,5.29.49.49,0,0,1-.41.21c-.06,0-6.35,0-10.8.3a42.63,42.63,0,0,0-6.68,1.24,67.59,67.59,0,0,1-9.86,1.77,17.1,17.1,0,0,1-7.06-.67A29,29,0,0,0,393,158a26.47,26.47,0,0,0-12.78,3c3.34-.22,10-.38,14.76,1.42,6.09,2.31,18.14,13.64,25.86,31.56,7.58,17.58-1,25.8-1.32,26.14l0,0-4.1,3.52a26.48,26.48,0,0,1-3.33,6c-2.4,3.46-8.17,10.18-14.64,13.41-6.05,3-23.26,3.06-24,3.06a.5.5,0,0,1-.27-.08c-.08,0-2.06-1.24-3.26.2s-.6,4.91,1.28,9.42c1.5,3.6,1,7.67.4,12.37l-.06.52a20.27,20.27,0,0,0,.58,8.21.49.49,0,0,1-.07.44.51.51,0,0,1-.39.22l-7.22.3ZM273.84,111.79c.61,1.17,3.06,5.5,6.51,7a7.24,7.24,0,0,1,3.83,3.85,4.63,4.63,0,0,0,2.76,2.75c3.54,1.18,8.92,2.38,9,2.4a.49.49,0,0,1,.33.23.51.51,0,0,1,0,.4c0,.11-3.24,10.83-1.19,20.21s4.2,19.19,12.29,34.48c1.89,3.57,3.58,7,5.21,10.26,5.32,10.75,9.91,20,18.17,27.83,10.66,10.07,29.49,20.29,29.68,20.39a.51.51,0,0,1,.21.67c0,.06-3.16,6.16-.6,11.28,2.69,5.38,5.41,12.92,5.44,13a.63.63,0,0,1,0,.19l-.57,10,6-.26a22.07,22.07,0,0,1-.45-8l.07-.52c.57-4.57,1.07-8.51-.33-11.87-1-2.36-3.07-8.11-1.13-10.44,1.35-1.62,3.42-1.06,4.43-.48,1.66,0,17.85-.17,23.42-3,6.28-3.14,11.92-9.7,14.25-13.08a24,24,0,0,0,3.25-5.87.47.47,0,0,1,.15-.24l4.2-3.6c.26-.25,8.28-8.31,1.08-25-7.61-17.65-19.37-28.77-25.3-31-6.13-2.34-16.21-1.19-16.31-1.17a.51.51,0,0,1-.52-.31.49.49,0,0,1,.14-.58c.22-.17,5.37-4.32,15.07-4.32a30.12,30.12,0,0,1,9.2,1.16,15.85,15.85,0,0,0,6.7.64,65.3,65.3,0,0,0,9.72-1.75,43.65,43.65,0,0,1,6.85-1.26c3.95-.26,9.34-.29,10.59-.3a20.77,20.77,0,0,0,2.31-4.81,3.26,3.26,0,0,1,.21-.45c.33-.65.6-1.28.25-1.84-.56-.89-2.74-1.93-10-1.83-6.09.08-10.39-1.68-14.19-3.23-4-1.65-7.22-2.95-11.24-1.61l-4.7,1.59c-7.32,2.48-14.89,5.06-17.43,5.06a78.12,78.12,0,0,1-9.72-1.22.5.5,0,0,1-.36-.27.48.48,0,0,1,0-.45,33.78,33.78,0,0,0-3-32.3c-10.58-16.3-19.6-18.64-27.93-19.64-7.52-.9-27.38,6.37-32.92,14.83-4.15,6.33-7.2,9.49-9.6,9.94a2.84,2.84,0,0,1-2.25-.48,13.59,13.59,0,0,1-2.35-2.5c-1.23-1.53-2.5-3.12-4-3.12-2.59,0-9.82-.86-11.51-2.89l-1.14-1.37Zm145.35,108h0Z" style="fill:#263238"></path><path d="M435.15,155.28a.56.56,0,0,1-.27-.08.51.51,0,0,1-.15-.69c1.19-1.84,2.83-4.77,2.76-5.53s-1.53-1.11-1.55-1.11a.51.51,0,0,1-.41-.58.5.5,0,0,1,.57-.41c.09,0,2.24.37,2.39,2,.12,1.37-2.41,5.37-2.92,6.16A.48.48,0,0,1,435.15,155.28Z" style="fill:#263238"></path><path d="M370.44,151.13c-1.21-2.41,1.2-4.52,1.2-4.52a79.3,79.3,0,0,0,9.63,1.21c3,0,13.84-3.92,22-6.63s13.24,3.62,25.58,4.82c6.14.6,7.73.45,8,.71l0,.07a.34.34,0,0,1,0,.14c-.55.13-4,.93-5.63,1.49-1.81.6-3.92-.6-11.44-2.41s-12.34-3.91-16.55-1.81-12.34,7.53-17.46,8.43S371.64,153.53,370.44,151.13Z" style="fill:#949494"></path><path d="M378.92,153.68c-4.08,0-8.06-.6-8.93-2.33h0c-1.09-2.18.39-4.3,1.32-5.11a.5.5,0,0,1,.42-.12,80,80,0,0,0,9.54,1.2c2.37,0,10.2-2.66,17.11-5l4.7-1.59c4.76-1.59,8.61-.15,13.07,1.51a47,47,0,0,0,12.72,3.28c3,.3,5,.41,6.16.48,1.51.09,1.87.11,2.14.37a.39.39,0,0,1,.08.1.69.69,0,0,1,.1.19.82.82,0,0,1,0,.41.5.5,0,0,1-.37.36c-.65.15-4,.94-5.59,1.47-1.31.44-2.65.06-5.57-.77-1.56-.44-3.5-1-6.14-1.62-1.52-.37-2.93-.75-4.25-1.1-5.09-1.36-8.76-2.34-12-.75-1.16.58-2.65,1.44-4.24,2.34-4.26,2.44-9.57,5.47-13.35,6.13A41.51,41.51,0,0,1,378.92,153.68Zm-7.12-6.53c-.48.49-1.77,2-.92,3.75h0c.94,1.87,9.07,2.25,14.82,1.24,3.61-.64,8.83-3.62,13-6,1.6-.91,3.11-1.77,4.3-2.36,3.53-1.77,7.36-.74,12.66.67,1.31.35,2.71.73,4.23,1.09,2.66.64,4.61,1.2,6.18,1.64,2.71.77,4,1.12,5,.78s2.31-.67,3.52-1c-1.21-.07-3.07-.19-5.82-.46a48.19,48.19,0,0,1-13-3.34c-4.45-1.66-8-3-12.4-1.5l-4.7,1.59c-7.32,2.48-14.89,5.06-17.43,5.06A75.5,75.5,0,0,1,371.8,147.15Z" style="fill:#263238"></path><path d="M315.08,167.87c-1.67-1.38-4.78-4-4.58-7.3.11-1.92,1.27-3.61,3.44-5,4-2.58,8.65-1.21,14.06.38,4.52,1.33,9.64,2.83,15.59,2.53a253.22,253.22,0,0,1,25.83.14l1.82-3.1a2,2,0,0,1,3.45,2l-1,1.73a2,2,0,0,1,1.48,2.16c0,.1-1.18,10.89,5.19,24.78,3.55,7.74,9,13.55,13.74,18.68,4.11,4.4,7.65,8.21,9.11,12.3,1.64,4.59.26,9.2-3.44,11.47a8.55,8.55,0,0,1-4.55,1.3,11.16,11.16,0,0,1-8-3.77c-7-7.34-10.27-25.18-10.4-25.93a2,2,0,1,1,3.93-.71c0,.17,3.2,17.41,9.36,23.88,2.87,3,5.77,2.91,7.53,1.83,2.08-1.28,2.78-3.92,1.78-6.72-1.19-3.32-4.47-6.84-8.27-10.92-4.74-5.09-10.63-11.42-14.45-19.74a58.36,58.36,0,0,1-5.66-24.17c-5.32,9-14.94,24.89-18.38,28.59-2.88,3.1-6.71,2.6-10.09,2.15s-6.78-.9-9.72,1.89-4.4,6.18-3.84,9.15a5.27,5.27,0,0,0,3.21,4c2,.8,7.41-1.8,16-11.77a2,2,0,0,1,3,2.62c-7.65,8.83-13.79,13.29-18.31,13.29a5.91,5.91,0,0,1-2.24-.42,9.24,9.24,0,0,1-5.66-7c-.82-4.33,1-9,5-12.81,4.33-4.09,9.13-3.46,13-2.94,3.29.43,5.22.6,6.62-.91,2.86-3.07,11.17-16.61,17.38-27.07-3.67-.17-10.79-.42-18.57-.22a2,2,0,0,1-.86,1.63c-.11.08-11.8,8.23-16.33,12.07a19.46,19.46,0,0,1-11.77,4.46,12.89,12.89,0,0,1-1.41-.08,7.72,7.72,0,0,1-5.54-3,3.61,3.61,0,0,1-.56-3.13c.47-1.72,2.33-3.55,4.7-5.26a2.36,2.36,0,0,1-1.15-.62C315.5,168.22,315.31,168.06,315.08,167.87Zm2.55-3.08.44.36c1.53.1,6.85-1.39,11.13-2.92a2,2,0,0,1,1.47,3.72c-7.34,3.2-14.05,7.42-14.68,9.2a3.93,3.93,0,0,0,2.67,1.22c3.06.38,7.32-1.09,10.12-3.46,3.35-2.83,10.17-7.73,14-10.41-6.19.12-11.52-1.44-15.86-2.72-4.65-1.36-8.33-2.44-10.77-.86-.58.37-1.57,1.12-1.62,1.88C314.42,162.13,316.67,164,317.63,164.79Z" style="fill:#fff"></path><path d="M395.22,230.44a11.62,11.62,0,0,1-8.33-3.93c-7.11-7.45-10.4-25.42-10.54-26.18a2.53,2.53,0,0,1,.41-1.87,2.48,2.48,0,0,1,1.61-1,2.51,2.51,0,0,1,2.9,2c0,.17,3.18,17.27,9.24,23.62,2.65,2.79,5.3,2.73,6.9,1.75,1.87-1.15,2.48-3.55,1.56-6.12-1.14-3.22-4.39-6.71-8.15-10.75-4.77-5.11-10.69-11.47-14.55-19.87a60.34,60.34,0,0,1-5.67-22.61c-5.51,9.25-14.27,23.64-17.55,27.17-3.05,3.28-7,2.76-10.51,2.3s-6.55-.87-9.31,1.75-4.23,5.9-3.7,8.69a4.79,4.79,0,0,0,2.91,3.66c1.5.59,6.44-1.2,15.48-11.64a2.49,2.49,0,0,1,1.71-.86,2.52,2.52,0,0,1,2.67,2.32,2.49,2.49,0,0,1-.6,1.81c-9.16,10.58-16.3,15-21.12,13a9.7,9.7,0,0,1-6-7.36c-.86-4.5,1-9.33,5.17-13.26,4.5-4.26,9.43-3.61,13.4-3.08,3.22.43,5,.59,6.2-.75,3.1-3.34,12.53-18.95,16.88-26.27-3.7-.16-10.2-.36-17.26-.19a2.52,2.52,0,0,1-1,1.55c-1.23.85-12,8.38-16.3,12a19.93,19.93,0,0,1-12.09,4.58,11.61,11.61,0,0,1-1.47-.09,8.22,8.22,0,0,1-5.89-3.18,4.12,4.12,0,0,1-.63-3.56c.41-1.51,1.81-3.19,4.18-5a2.51,2.51,0,0,1-.49-.39l-.44-.37-.1-.09c-1.74-1.43-5-4.11-4.76-7.71.12-2.09,1.36-3.91,3.67-5.4,4.17-2.7,8.95-1.3,14.47.32,4.48,1.32,9.54,2.81,15.42,2.51a251.21,251.21,0,0,1,25.59.12c.59-1,1.15-2,1.65-2.83a2.5,2.5,0,0,1,4.33,2.51l-.72,1.23a2.54,2.54,0,0,1,1.26,2.46c0,.11-1.15,10.8,5.15,24.52,3.51,7.67,8.9,13.45,13.65,18.55,4.14,4.45,7.72,8.29,9.21,12.47,1.72,4.82.26,9.66-3.65,12.07A9.06,9.06,0,0,1,395.22,230.44Zm-16.41-32.06a1.15,1.15,0,0,0-.26,0,1.49,1.49,0,0,0-1.21,1.74c.13.75,3.37,18.43,10.27,25.67a10.67,10.67,0,0,0,7.61,3.62,8.08,8.08,0,0,0,4.29-1.22c3.49-2.15,4.79-6.52,3.23-10.88-1.43-4-4.93-7.76-9-12.12-4.81-5.16-10.26-11-13.84-18.82-6.45-14.06-5.25-24.94-5.24-25.05a1.5,1.5,0,0,0-1.11-1.62.52.52,0,0,1-.34-.29.51.51,0,0,1,0-.45l1-1.64a1.57,1.57,0,0,0,.21-1.22,1.52,1.52,0,0,0-1.84-1.07,1.49,1.49,0,0,0-.91.7c-.56,1-1.16,2-1.82,3.1a.52.52,0,0,1-.46.25,246.76,246.76,0,0,0-25.77-.14c-6.05.31-11.2-1.21-15.76-2.55-5.29-1.55-9.86-2.89-13.65-.44-2,1.31-3.11,2.86-3.21,4.62-.18,3.09,2.8,5.56,4.4,6.88h0l.1.09.48.41a1.83,1.83,0,0,0,.93.51.5.5,0,0,1,.17.89c-2.6,1.88-4.12,3.56-4.5,5a3.09,3.09,0,0,0,.47,2.71,7.25,7.25,0,0,0,5.2,2.78,11.67,11.67,0,0,0,1.35.08A18.84,18.84,0,0,0,331,175.58c4.36-3.68,15.15-11.24,16.36-12.08a1.5,1.5,0,0,0,.66-1.23.51.51,0,0,1,.49-.5c7.83-.2,15,0,18.6.22a.49.49,0,0,1,.42.27.5.5,0,0,1,0,.49c-4.15,7-14.16,23.62-17.44,27.15-1.57,1.69-3.7,1.51-7.06,1.06-3.76-.5-8.43-1.12-12.58,2.82-3.89,3.68-5.67,8.18-4.87,12.35a8.69,8.69,0,0,0,5.34,6.61c4.4,1.77,11.19-2.56,20-12.73a1.49,1.49,0,0,0,.36-1.09,1.53,1.53,0,0,0-.51-1,1.56,1.56,0,0,0-1.09-.36,1.48,1.48,0,0,0-1,.52c-8.78,10.14-14.33,12.81-16.6,11.91a5.79,5.79,0,0,1-3.52-4.4c-.6-3.14.86-6.64,4-9.6s6.68-2.48,10.13-2c3.26.43,6.95.92,9.65-2,3.4-3.65,12.93-19.43,18.32-28.51a.5.5,0,0,1,.93.26,57.87,57.87,0,0,0,5.61,24c3.79,8.25,9.65,14.55,14.36,19.61,3.84,4.12,7.16,7.68,8.38,11.09,1.08,3,.3,5.9-2,7.31-1.93,1.19-5.09,1.31-8.16-1.91-6.25-6.56-9.46-24-9.49-24.13A1.51,1.51,0,0,0,378.81,198.38Zm-59.17-21.45a8.94,8.94,0,0,1-1-.06,4.41,4.41,0,0,1-3-1.4.49.49,0,0,1-.09-.49c.77-2.16,8.36-6.61,15-9.49a1.5,1.5,0,0,0-1.11-2.79c-4.28,1.54-9.69,3.05-11.33,3a.47.47,0,0,1-.29-.12l-.4-.33.29-.41-.32.38.32-.38-.32.38c-1.69-1.4-3.4-3-3.31-4.4.05-.93,1-1.75,1.84-2.27,2.63-1.71,6.4-.6,11.18.8,4.27,1.26,9.56,2.84,15.71,2.7a.51.51,0,0,1,.48.34.5.5,0,0,1-.18.57c-3.77,2.67-10.6,7.57-13.92,10.38A15.89,15.89,0,0,1,319.64,176.93Zm-3.05-1.87a3.85,3.85,0,0,0,2.13.82c2.94.35,7-1,9.74-3.35,3-2.54,8.82-6.76,12.72-9.53a54.61,54.61,0,0,1-14.44-2.74c-4.53-1.33-8.11-2.38-10.36-.92-.83.54-1.36,1.11-1.39,1.49-.06,1.07,2.21,2.95,2.95,3.57h0l-.32.39.35-.36.27.23c1.51,0,6.33-1.31,10.78-2.9a2.5,2.5,0,0,1,1.84,4.64C323.66,169.55,317.66,173.41,316.59,175.06Z" style="fill:#263238"></path><path d="M301.58,131.15c.16-1.15.66-4.65,3.43-5.39s5.39,2.31,5.87,2.93a2,2,0,0,1-3.16,2.45,6,6,0,0,0-1.63-1.44,5.78,5.78,0,0,0-.55,2,6.15,6.15,0,0,0,2.14,5.75,10.61,10.61,0,0,0,9.64,1.73,18.43,18.43,0,0,0,6.37-3.27,13,13,0,0,1-7.26-7.26c-1.75-3.88-4.36-11.13-2.17-16a7.07,7.07,0,0,1,4.47-3.92c5.49-1.72,6.77,1.19,9.07,6.48,1.22,2.78,2.89,6.6,5.74,11.81a38.45,38.45,0,0,0,10,11.14,43.81,43.81,0,0,1-3.66-17.54c.26-8.64,5-14.12,9.35-14.42,1.39-.09,6,.21,7.34,8.13a35.49,35.49,0,0,1-.42,14.14c-.59,3-1.06,5.36-.16,8.5a48.59,48.59,0,0,0,5.08,11.68c3.25,1.5,5.44,2.32,5.52,2.35a2,2,0,0,1-.69,3.87,1.78,1.78,0,0,1-.68-.12,101.73,101.73,0,0,1-16.48-8.1,2,2,0,0,1-1.33-.83c-6.69-4.26-13.6-10-17.4-16.88-2.94-5.37-4.64-9.28-5.89-12.13-1-2.2-1.72-3.95-2.3-4.47-.1-.09-.32-.29-1.92.21a3,3,0,0,0-2,1.75c-1.1,2.44-.27,7.31,2.16,12.72,2.59,5.74,7.22,5.64,7.38,5.63a2,2,0,0,1,1.82,1,2,2,0,0,1,0,2.06c-.11.2-3,5-10.82,7.36a14.55,14.55,0,0,1-13.4-2.53A10.09,10.09,0,0,1,301.58,131.15Zm50.58,6.93c-1.16-4.07-.56-7.13.08-10.37a31.38,31.38,0,0,0,.4-12.7c-.51-3.06-1.72-4.9-3.11-4.81-2.23.15-5.44,4.24-5.63,10.54-.29,9.76,4.88,19.48,6.42,22.16,1.58,1,3.13,1.86,4.62,2.67A53.78,53.78,0,0,1,352.16,138.08Z" style="fill:#fff"></path><path d="M365.92,155.38a2.55,2.55,0,0,1-.86-.15,101.66,101.66,0,0,1-16.48-8.09,2.51,2.51,0,0,1-1.5-.94c-8.32-5.31-14.21-11-17.49-17-2.95-5.4-4.66-9.31-5.91-12.17a20.21,20.21,0,0,0-2.18-4.31,5.78,5.78,0,0,0-1.43.33,2.52,2.52,0,0,0-1.7,1.47c-1,2.28-.18,7.12,2.16,12.32,2.46,5.47,6.84,5.35,6.89,5.33a2.48,2.48,0,0,1,2.28,1.19,2.52,2.52,0,0,1,0,2.57c-.13.21-3.12,5.19-11.12,7.59a15.05,15.05,0,0,1-13.87-2.63,10.59,10.59,0,0,1-3.66-9.8h0c.18-1.23.71-5,3.8-5.8s5.88,2.43,6.4,3.1a2.5,2.5,0,1,1-3.95,3.07,6,6,0,0,0-1-1,8.71,8.71,0,0,0-.29,1.34,5.65,5.65,0,0,0,2,5.3,10.09,10.09,0,0,0,9.16,1.63,18.51,18.51,0,0,0,5.54-2.66,13.78,13.78,0,0,1-6.74-7.18c-1.78-4-4.44-11.37-2.16-16.42a7.54,7.54,0,0,1,4.77-4.2c5.92-1.85,7.42,1.58,9.68,6.76,1.22,2.79,2.88,6.58,5.72,11.77a35.84,35.84,0,0,0,8.41,9.78,43.36,43.36,0,0,1-3-16c.27-8.92,5.2-14.58,9.82-14.9,1.5-.09,6.46.22,7.86,8.55a35.82,35.82,0,0,1-.42,14.32c-.58,2.93-1,5.24-.17,8.26a48.89,48.89,0,0,0,4.95,11.43c3.19,1.47,5.32,2.26,5.34,2.27a2.5,2.5,0,0,1-.86,4.84Zm-44.47-43.65a1,1,0,0,1,.72.25c.66.6,1.4,2.29,2.43,4.64,1.24,2.84,2.94,6.73,5.87,12.09,3.21,5.85,9,11.47,17.23,16.7a.47.47,0,0,1,.14.14,1.54,1.54,0,0,0,1,.62.36.36,0,0,1,.18.07,101.68,101.68,0,0,0,16.39,8,1.52,1.52,0,0,0,1.92-.89,1.5,1.5,0,0,0-.89-1.92s-2.25-.84-5.56-2.37a.45.45,0,0,1-.22-.19,49.87,49.87,0,0,1-5.13-11.8c-.93-3.26-.46-5.67.15-8.73a35.24,35.24,0,0,0,.42-14c-1.27-7.49-5.54-7.8-6.81-7.71-4.18.29-8.64,5.58-8.89,13.93-.19,6.63,1.86,13.09,3.62,17.34a.51.51,0,0,1-.16.59.48.48,0,0,1-.61,0,38.51,38.51,0,0,1-10.15-11.29c-2.86-5.22-4.53-9-5.75-11.84-2.34-5.36-3.41-7.79-8.47-6.21a6.56,6.56,0,0,0-4.16,3.65c-2.11,4.7.45,11.79,2.16,15.6a12.56,12.56,0,0,0,7,7,.51.51,0,0,1,.32.39.52.52,0,0,1-.18.47,18.68,18.68,0,0,1-6.55,3.35,11.11,11.11,0,0,1-10.11-1.82,6.62,6.62,0,0,1-2.31-6.2,6.21,6.21,0,0,1,.62-2.2.5.5,0,0,1,.64-.2,6.17,6.17,0,0,1,1.82,1.58,1.49,1.49,0,0,0,2.1.27,1.51,1.51,0,0,0,.27-2.11c-.45-.57-2.82-3.42-5.35-2.74s-2.92,3.9-3.07,5l-.49-.07.49.07a9.61,9.61,0,0,0,3.33,8.9,14,14,0,0,0,12.92,2.43c7.63-2.29,10.43-6.94,10.54-7.13a1.5,1.5,0,0,0-1.38-2.26c-.05,0-5.1.2-7.86-5.92-2.49-5.54-3.32-10.57-2.17-13.14a3.61,3.61,0,0,1,2.32-2A6.08,6.08,0,0,1,321.45,111.73Zm33.49,34.34a.5.5,0,0,1-.24-.06c-1.62-.88-3.18-1.78-4.64-2.69a.46.46,0,0,1-.17-.17c-1.59-2.77-6.78-12.57-6.49-22.42.19-6.27,3.36-10.84,6.09-11,1.7-.1,3.08,1.84,3.65,5.22a31.82,31.82,0,0,1-.41,12.88c-.62,3.18-1.22,6.18-.09,10.14a54.07,54.07,0,0,0,2.75,7.42.5.5,0,0,1-.11.58A.55.55,0,0,1,354.94,146.07Zm-4.24-3.53c1,.63,2.08,1.25,3.18,1.88a54.74,54.74,0,0,1-2.2-6.21h0c-1.19-4.18-.58-7.3.07-10.6a30.85,30.85,0,0,0,.4-12.52c-.45-2.7-1.5-4.46-2.59-4.39-2,.14-5,4.12-5.16,10.06C344.12,130.23,349.06,139.69,350.7,142.54Z" style="fill:#263238"></path><path d="M373.2,211.78a34.66,34.66,0,0,0,2-5.7,1.52,1.52,0,0,1,1.21-1.18c-1.49-4-3-8.12-4.27-12.22-5-15.8-.79-22.68-.61-23,0,0,0,0,0,0a1.55,1.55,0,0,1,.24-.27.1.1,0,0,1,.05,0,1,1,0,0,1,.26-.18l.06,0,.09,0,.25-.07h0a1.63,1.63,0,0,1,.38,0H373l.2,0,.12,0,.17.07a.27.27,0,0,1,.1.06.56.56,0,0,1,.15.1.39.39,0,0,1,.1.08l.12.13.06.06c-.87-2.79-2.2-11.14-2.24-11.34a1.5,1.5,0,1,1,2.94-.57c0,.12,3.26,18,9.08,24.2a11.35,11.35,0,0,0,1,.94l.26-.05c.07,0,7.81-.78,12.05-2.25a9.71,9.71,0,0,1,8.2.8,6.2,6.2,0,0,1,3.09,4.29,6,6,0,0,1-.63,3.82,5.23,5.23,0,0,1,.67,4.33c-.84,3.05-4.42,6-10.26,5.17-8.14-1.11-14.52-5.72-19.5-14.1-.42-.69-.81-1.38-1.2-2,.32,1.29.66,2.7,1,4.23,3.82,15.67,4.84,17,11,23.66,1.95.65,9.44,3.32,11.77,7.15a10.31,10.31,0,0,1,1.77,10.62c-1.93,4.74-6.88,6.54-10.66,6.54a10.44,10.44,0,0,1-2.1-.21,15.37,15.37,0,0,1-4.75-2.19,11.25,11.25,0,0,1-9.3,6h-.38a6.35,6.35,0,0,1-6.46-4.67c-2.05-6.95,1.81-17.48,3.46-21.47C373.05,212.11,373.15,211.88,373.2,211.78Zm9.39-26.41a1.55,1.55,0,0,1,.72.5c2,2.54,6.76,3.91,14.17,4.08a19.13,19.13,0,0,0,5.09-.43A30.94,30.94,0,0,0,397,189c-4.84-.18-10.84-.41-15.19-4.89C382,184.54,382.31,185,382.59,185.37Zm22.86.66a3.25,3.25,0,0,0-1.68-2.13,6.64,6.64,0,0,0-5.64-.53,51.43,51.43,0,0,1-8.39,1.85,36.14,36.14,0,0,0,7.32.77c2.94.11,5.71.21,7.95,1.18.15.06.27.14.41.21A3.66,3.66,0,0,0,405.45,186ZM398.62,196c4.06.55,6.45-1.17,7-3a2.33,2.33,0,0,0,0-1.41,15.44,15.44,0,0,1-7.32,1.39h-.82a42.69,42.69,0,0,1-8.68-1A20.75,20.75,0,0,0,398.62,196ZM376,213c-.1.22-.19.46-.29.69a32.34,32.34,0,0,0-1.55,6.5c-.72,4.87.6,7.66,4.28,9,2.71,1,4.37.49,5.06.14.44-4.13-2.5-12.28-5.74-21C377.38,209.38,376.83,210.92,376,213Zm-.32-25.24c-1.27-5.23-2.17-8.82-2.79-11.31-.3,3.33,0,8.36,2.19,15.34,1.54,4.86,3.36,9.76,5.12,14.51,1.11,3,2.18,5.89,3.12,8.59a1.53,1.53,0,0,1,.9,1,24.7,24.7,0,0,0,4.53,8.89c.84,1,2.08,2.12,3.21,2a3.19,3.19,0,0,0,1.9-1.24h0a1.49,1.49,0,0,1,1.05-1.42c.16-.27.33-.55.49-.85.65-1.18-2.32-4.4-7.73-10.28C380.6,205.4,379.55,203.8,375.63,187.74ZM394.35,216c2.52,2.88,3.86,4.78,4.1,6.41a3.43,3.43,0,0,0,.4-.54,2.16,2.16,0,0,0,0-2.33C398.18,218.3,396.39,217.05,394.35,216ZM391,231.86c1.85.39,7.48,0,9.35-4.53a7.11,7.11,0,0,0,.53-3.14,8.47,8.47,0,0,1-4.22,2.68,6.53,6.53,0,0,1-4.41,2.93l-.48,0c-1.78,0-3.57-1-5.32-3.08l0-.05a14.81,14.81,0,0,1,.07,2.87A14.38,14.38,0,0,0,391,231.86Zm-18.64,1.23a3.46,3.46,0,0,0,3.84,2.51,8.52,8.52,0,0,0,5.72-2.83,10.76,10.76,0,0,1-4.55-.76A9.26,9.26,0,0,1,372,227.4,15.49,15.49,0,0,0,372.33,233.09Z" style="fill:#92E3A9"></path><path d="M375.91,239.11a6.85,6.85,0,0,1-6.94-5c-2.08-7.06,1.74-17.6,3.48-21.8.13-.36.24-.6.29-.71a33.78,33.78,0,0,0,2-5.59,2,2,0,0,1,1.05-1.38c-1.39-3.78-2.84-7.8-4.1-11.77-5.07-16-.74-23.09-.55-23.39l0-.06a2.44,2.44,0,0,1,.29-.33,2.1,2.1,0,0,1,.41-.29l.34.39-.25-.44.11-.05a2.09,2.09,0,0,1,.85-.14l.15,0,.14,0c-.49-2-1.13-5.37-1.88-9.89l0-.3a2,2,0,0,1,3.08-2,2,2,0,0,1,.84,1.28c.14.75,3.38,18,9,23.94a9.65,9.65,0,0,0,.79.75H385c.31,0,7.82-.79,11.94-2.23a10.21,10.21,0,0,1,8.63.86,6.66,6.66,0,0,1,3.31,4.65,6.47,6.47,0,0,1-.55,3.86,5.72,5.72,0,0,1,.58,4.49c-.9,3.25-4.67,6.36-10.81,5.52-8-1.09-14.35-5.5-19.34-13.47l.23.94c3.84,15.72,4.92,17,10.81,23.35,2.35.79,9.55,3.45,11.92,7.32a10.72,10.72,0,0,1,1.8,11.07c-2.06,5-7.28,6.85-11.12,6.85a12,12,0,0,1-2.2-.22,14.4,14.4,0,0,1-4.46-2,11.79,11.79,0,0,1-9.47,5.78Zm-3.12-69.59-.16,0-.18.05-.1.06-.17.11a1.16,1.16,0,0,0-.19.21l-.06.08c-.13.21-4.22,6.89.72,22.48,1.3,4.11,2.81,8.29,4.26,12.2a.48.48,0,0,1,0,.42.47.47,0,0,1-.34.24,1,1,0,0,0-.81.79,35,35,0,0,1-2.06,5.79v0l-.28.66c-1.7,4.12-5.43,14.39-3.44,21.15.83,2.85,3.17,4.41,6.34,4.3a10.66,10.66,0,0,0,8.87-5.72.52.52,0,0,1,.32-.26.49.49,0,0,1,.41.06,14.76,14.76,0,0,0,4.58,2.12,9.44,9.44,0,0,0,2,.2h0c3.53,0,8.32-1.63,10.19-6.23A9.72,9.72,0,0,0,401,218.18c-2.34-3.83-10-6.51-11.56-7a.49.49,0,0,1-.21-.14c-6.4-6.94-7.36-8.42-11.13-23.89l-1-4.23a.49.49,0,0,1,.3-.58.5.5,0,0,1,.62.22c.38.67.78,1.35,1.19,2,4.89,8.23,11.15,12.76,19.14,13.85,5.55.76,8.92-2,9.71-4.8a4.76,4.76,0,0,0-.61-3.92.53.53,0,0,1,0-.53,5.43,5.43,0,0,0,.57-3.5,5.68,5.68,0,0,0-2.85-3.93,9.18,9.18,0,0,0-7.77-.76c-4.23,1.47-11.85,2.24-12.17,2.27l-.18,0a.48.48,0,0,1-.45-.09,11.78,11.78,0,0,1-1.07-1c-5.68-6-8.86-22.57-9.21-24.43a1,1,0,0,0-.42-.65,1,1,0,0,0-.75-.15,1,1,0,0,0-.79,1.17l.05.33a97.76,97.76,0,0,0,2.18,11,.52.52,0,0,1-.25.6.51.51,0,0,1-.63-.15l-.12-.12-.16-.13-.19-.08a1.12,1.12,0,0,0-.21-.05Zm.41,42.26h0Zm2.73,24.33a3.89,3.89,0,0,1-4.08-2.88h0a15.89,15.89,0,0,1-.39-5.88.49.49,0,0,1,.41-.44.5.5,0,0,1,.54.27,8.81,8.81,0,0,0,5.1,4.37,10.46,10.46,0,0,0,4.35.72.51.51,0,0,1,.48.28.49.49,0,0,1-.08.55,9,9,0,0,1-6.07,3ZM372.37,229a13.1,13.1,0,0,0,.43,3.91h0a3,3,0,0,0,3.35,2.15,7.81,7.81,0,0,0,4.5-1.83,12.14,12.14,0,0,1-3.49-.79A10.28,10.28,0,0,1,372.37,229Zm19.94,3.43a7.74,7.74,0,0,1-1.44-.12h0a15,15,0,0,1-4.71-2.39.52.52,0,0,1-.21-.45,14,14,0,0,0-.07-2.77.52.52,0,0,1,.29-.51.49.49,0,0,1,.58.13c1.85,2.16,3.66,3.12,5.42,2.94a6,6,0,0,0,4.06-2.73.5.5,0,0,1,.27-.18,8,8,0,0,0,4-2.52.5.5,0,0,1,.54-.16.51.51,0,0,1,.34.45,7.57,7.57,0,0,1-.57,3.36C399.16,231.49,394.89,232.47,392.31,232.47Zm-1.23-1.1c1.73.37,7,0,8.78-4.23a7.34,7.34,0,0,0,.45-1.68,9.14,9.14,0,0,1-3.39,1.85,6.82,6.82,0,0,1-4.64,3,6.66,6.66,0,0,1-5.3-2.22,10.17,10.17,0,0,1,0,1.24,13.28,13.28,0,0,0,4.11,2.06Zm-9.74-1.07a8.82,8.82,0,0,1-3.13-.63c-3.88-1.46-5.34-4.5-4.59-9.58a33.31,33.31,0,0,1,1.57-6.6l.3-.71c.73-1.7,1.31-3.25,1.74-4.6a.5.5,0,0,1,.47-.34.51.51,0,0,1,.48.32c3.53,9.54,6.2,17.16,5.77,21.24a.49.49,0,0,1-.27.39A5.1,5.1,0,0,1,381.34,230.3Zm-3.61-20.47c-.37,1-.81,2.15-1.32,3.35h0l-.29.68a32.27,32.27,0,0,0-1.51,6.38c-.69,4.66.49,7.2,4,8.5A6.16,6.16,0,0,0,383,229C383.24,225,380.42,217.1,377.73,209.83ZM376,213h0Zm15.84,14.34c-1.3,0-2.6-1.19-3.47-2.21a24.93,24.93,0,0,1-4.64-9.09,1,1,0,0,0-.6-.68.51.51,0,0,1-.29-.3c-.9-2.63-1.9-5.33-3.11-8.59-1.76-4.74-3.58-9.65-5.13-14.52-1.86-5.89-2.6-11.12-2.21-15.54a.5.5,0,0,1,1-.08c.63,2.48,1.52,6.08,2.8,11.31C380,203.56,381,205.14,388,212.68c6.1,6.62,8.63,9.36,7.81,10.86q-.26.47-.51.87a.47.47,0,0,1-.27.21,1,1,0,0,0-.7.93v0a.5.5,0,0,1-.12.33,3.73,3.73,0,0,1-2.23,1.4Zm-8.12-12.81a2,2,0,0,1,1,1.27,24.36,24.36,0,0,0,4.43,8.68c1.06,1.24,2.1,1.92,2.79,1.85a2.57,2.57,0,0,0,1.45-.94,2,2,0,0,1,1.2-1.63c.13-.21.26-.44.39-.68.48-.87-3.11-4.77-7.66-9.7-7.1-7.71-8.16-9.32-12.1-25.5h0c-.75-3.07-1.37-5.57-1.88-7.62a45.52,45.52,0,0,0,2.24,11.38c1.53,4.86,3.35,9.75,5.1,14.48C381.8,209.29,382.78,211.94,383.67,214.51Zm11.19,9.64h0Zm3.59-1.27a.39.39,0,0,1-.15,0,.5.5,0,0,1-.35-.41c-.23-1.6-1.76-3.61-4-6.15a.5.5,0,0,1,0-.64.48.48,0,0,1,.62-.13c2.47,1.3,4.05,2.56,4.7,3.74a2.66,2.66,0,0,1,0,2.82,4,4,0,0,1-.46.62A.5.5,0,0,1,398.45,222.88Zm-1.77-4.9a13.74,13.74,0,0,1,1.94,3.17,1.68,1.68,0,0,0-.22-1.4A6.08,6.08,0,0,0,396.68,218Zm3.43-21.4a10.79,10.79,0,0,1-1.56-.11h0a21.3,21.3,0,0,1-10.12-4.08.51.51,0,0,1-.15-.62.49.49,0,0,1,.56-.27,42,42,0,0,0,8.58.95c3.53.09,6.12-.35,7.89-1.32a.51.51,0,0,1,.42,0,.57.57,0,0,1,.29.3,2.88,2.88,0,0,1,0,1.72C405.57,194.89,403.53,196.58,400.11,196.58Zm-1.43-1.1c3.77.51,6-1,6.42-2.63a2,2,0,0,0,.07-.54,18.12,18.12,0,0,1-7.77,1.14,48.72,48.72,0,0,1-6.31-.51,20.46,20.46,0,0,0,7.59,2.54Zm-.5-5h-.71c-7.57-.17-12.46-1.61-14.55-4.27a1,1,0,0,0-.48-.33.47.47,0,0,1-.26-.2c-.29-.41-.57-.84-.84-1.28a.5.5,0,0,1,.11-.66.5.5,0,0,1,.67,0c4.2,4.34,10.1,4.56,14.84,4.74a30.42,30.42,0,0,1,5.72.55.49.49,0,0,1,.39.48.51.51,0,0,1-.38.49A18.91,18.91,0,0,1,398.18,190.46Zm7.24-2.58a.59.59,0,0,1-.23,0l-.17-.1-.21-.11c-2.15-.92-4.88-1-7.77-1.13a36.32,36.32,0,0,1-7.42-.79.49.49,0,0,1-.38-.5.51.51,0,0,1,.43-.48,49.07,49.07,0,0,0,8.3-1.82,7.16,7.16,0,0,1,6.06.57A3.8,3.8,0,0,1,406,186h0a4.28,4.28,0,0,1,0,1.53.51.51,0,0,1-.28.34A.54.54,0,0,1,405.42,187.88Zm-12.68-2.65c1.44.15,2.9.21,4.34.26,2.89.11,5.63.21,7.92,1.13a4.92,4.92,0,0,0,0-.52h0a2.88,2.88,0,0,0-1.45-1.77,6.2,6.2,0,0,0-5.22-.48A40.1,40.1,0,0,1,392.74,185.23Z" style="fill:#263238"></path><path d="M318,155.14a18.37,18.37,0,0,1,8.34,1.48,1.5,1.5,0,0,1-1.23,2.74,15.47,15.47,0,0,0-6.79-1.24,7.19,7.19,0,0,0-3.95,1.64c.57.89,2.84,1.74,4.71,2.09,3.81-1.82,11-.74,11.33-.69a1.49,1.49,0,0,1,1.25,1.71,1.51,1.51,0,0,1-.6,1c2.12-.48,4.36-1,6.52-1.52a1.51,1.51,0,0,1,1.81,1.11,1.53,1.53,0,0,1,0,.85l1-.36c11.86-4.27,28.52-6.2,29.22-6.28a1.49,1.49,0,0,1,1.66,1.32,1.09,1.09,0,0,1,0,.18,1.48,1.48,0,0,1,1.3,0,1.5,1.5,0,0,1,.68,2c-.13.27-13.23,26.86-17.64,35.68l-.38.73h0a1.57,1.57,0,0,1,.37,0,1.5,1.5,0,0,1,1.09,1.82c-.34,1.36-1.84,12.12-2.87,20.56-.68,5.52-3.56,6.29-4.77,6.37h-.25c-2.71,0-5.37-2.61-6.26-6.19-1-4.1,1.74-9.37,5.24-15.45a16.81,16.81,0,0,1-7.51,3.2,14,14,0,0,1-1.57.09c-3.2,0-6-1.07-7.61-2.93a5.8,5.8,0,0,1-1.14-5.44,1.5,1.5,0,1,1,2.89.79,2.8,2.8,0,0,0,.53,2.71c1.19,1.39,3.78,2.1,6.59,1.8,4.79-.52,9.86-5.88,9.91-5.93a1.5,1.5,0,0,1,1.41-.42c.57-1,1.13-2.08,1.64-3.11,4-8,15.11-30.53,17.27-34.91l-.25,0c-.17,0-17,2-28.54,6.13-3.28,1.18-6,2.09-8.21,2.83-5.75,1.93-8.63,2.9-11.51,5.25a8,8,0,0,1-4.89,2.05,4.42,4.42,0,0,1-2.46-.71,4.12,4.12,0,0,1-1.63-4.66,7.29,7.29,0,0,1,1.42-2.69c-1.84-1-4.05-2.78-4.19-5.54C309.61,158.53,313.76,155.58,318,155.14Zm33.32,49.37c-3.32,5.73-6.75,11.65-5.92,15,.6,2.4,2.31,4,3.42,3.92.94-.06,1.69-1.49,2-3.74.69-5.69,1.85-14.35,2.52-18.6C352.64,202.21,352,203.37,351.3,204.51Zm-31.21-39.82c-.45.28-.58.5-.59.54a1.39,1.39,0,0,0,1.1.57,71.05,71.05,0,0,0,9.27-1.69C326.9,163.67,322,163.55,320.09,164.69Zm-4.18,9c.61.4,2,.34,3.8-1.15,3.3-2.7,6.55-3.79,12.45-5.77l.7-.24c-4.65,1.06-10.42,2.28-12.27,2.28h-.26a4.92,4.92,0,0,1-1.89-.58c0,.07,0,.13,0,.19a1.5,1.5,0,0,1-1,1.46,3.79,3.79,0,0,0-2,2.5A1.15,1.15,0,0,0,315.91,173.68Zm1.09-6.8a3.11,3.11,0,0,1-.42-1,3,3,0,0,1,.06-1.55,11,11,0,0,1-3.77-1.84,4.24,4.24,0,0,0,0,.62C313,165.22,315.92,166.49,317,166.88Z" style="fill:#92E3A9"></path><path d="M348.73,226.88c-3,0-5.8-2.76-6.75-6.57s1.25-8.64,4.28-14.05a15.06,15.06,0,0,1-6,2.18,14.84,14.84,0,0,1-1.63.09c-3.4,0-6.31-1.13-8-3.1a6.31,6.31,0,0,1-1.25-5.9,2,2,0,0,1,2.46-1.41,2,2,0,0,1,1.21.94,2,2,0,0,1,.19,1.52,2.29,2.29,0,0,0,.43,2.25c1.09,1.28,3.5,1.92,6.15,1.63,4.56-.49,9.56-5.72,9.61-5.78a2,2,0,0,1,1.49-.6c.59-1.08,1.07-2,1.48-2.8,3.66-7.33,13.33-26.93,16.85-34.06-3.3.41-17.57,2.34-27.76,6-3.31,1.19-6,2.1-8.22,2.84-5.69,1.9-8.55,2.86-11.35,5.16S316.14,178,314,176.6a4.57,4.57,0,0,1-1.84-5.2A7.94,7.94,0,0,1,313.3,169c-1.82-1.1-3.8-2.91-3.94-5.65-.27-5.08,4.11-8.22,8.57-8.69h0a19,19,0,0,1,8.59,1.52,2,2,0,0,1,1,2.65,2,2,0,0,1-2.64,1,15,15,0,0,0-6.53-1.19,7,7,0,0,0-3.27,1.19,10.5,10.5,0,0,0,3.92,1.52c3.89-1.75,10.69-.78,11.46-.67a2,2,0,0,1,1.68,2.28.75.75,0,0,1,0,.16c1.77-.39,3.58-.82,5.35-1.24a2,2,0,0,1,2.41,1.48,1.43,1.43,0,0,1,0,.22l.24-.09c11.94-4.3,28.63-6.23,29.34-6.31a2,2,0,0,1,1.46.42,1.93,1.93,0,0,1,.66.94,2.05,2.05,0,0,1,1.12.19,2,2,0,0,1,.91,2.68c-.13.27-13.22,26.84-17.64,35.68l-.08.16a2,2,0,0,1,1.2,2.34c-.34,1.35-1.84,12.07-2.87,20.5-.72,5.9-3.89,6.72-5.23,6.81Zm-1-22.64a.5.5,0,0,1,.43.75c-3.42,5.94-6.16,11.17-5.19,15.08.86,3.41,3.47,6,6,5.81,1.09-.07,3.67-.78,4.3-5.93,1-8.46,2.54-19.25,2.88-20.62a1,1,0,0,0-.11-.76,1,1,0,0,0-.61-.46c-.25-.06-.54-.05-.67-.27a.5.5,0,0,1,0-.49l.37-.73c4.42-8.83,17.51-35.4,17.64-35.67a1,1,0,0,0-.45-1.34,1,1,0,0,0-.87,0,.51.51,0,0,1-.48,0,.48.48,0,0,1-.23-.42V159a1,1,0,0,0-.38-.68.94.94,0,0,0-.73-.2c-.7.08-17.28,2-29.11,6.25l-1,.36a.52.52,0,0,1-.53-.12.5.5,0,0,1-.11-.52,1.07,1.07,0,0,0,0-.56,1,1,0,0,0-1.21-.74c-2.16.52-4.41,1-6.53,1.51a.5.5,0,0,1-.57-.28.49.49,0,0,1,.17-.61,1,1,0,0,0,.4-.66,1,1,0,0,0-.84-1.14c-.3,0-7.37-1.1-11,.65a.47.47,0,0,1-.31,0c-1.4-.26-4.26-1.08-5-2.31a.51.51,0,0,1,.09-.65,7.67,7.67,0,0,1,4.23-1.75,16.2,16.2,0,0,1,7.05,1.27.93.93,0,0,0,.75,0,1,1,0,0,0,.06-1.84,17.61,17.61,0,0,0-8.07-1.44h0c-4,.42-7.92,3.17-7.68,7.63.13,2.54,2.21,4.19,3.93,5.13a.48.48,0,0,1,.25.34.5.5,0,0,1-.11.42,6.72,6.72,0,0,0-1.32,2.51,3.61,3.61,0,0,0,1.43,4.1c1.78,1.17,4.34.67,6.75-1.31,2.95-2.41,5.86-3.38,11.67-5.33,2.18-.73,4.91-1.65,8.2-2.84,11.45-4.12,28-6.06,28.66-6.15l.17,0a.48.48,0,0,1,.52.16.48.48,0,0,1,.06.54c-3.08,6.25-13.44,27.27-17.27,34.92-.45.9-1,1.9-1.66,3.12a.48.48,0,0,1-.54.25,1,1,0,0,0-.93.27c-.22.23-5.31,5.56-10.23,6.09-3,.32-5.72-.46-7-2a3.29,3.29,0,0,1-.63-3.16,1,1,0,0,0-.1-.76,1,1,0,0,0-.6-.47,1,1,0,0,0-1.23.7,5.33,5.33,0,0,0,1,5c1.47,1.72,4.17,2.75,7.23,2.75a12.91,12.91,0,0,0,1.52-.09,15.93,15.93,0,0,0,7.27-3.11A.52.52,0,0,1,347.71,204.24ZM318,155.14h0Zm30.72,68.75c-1.47,0-3.22-2-3.81-4.31-.87-3.49,2.61-9.5,6-15.31l.43.24-.43-.25c.66-1.14,1.33-2.3,2-3.47a.5.5,0,0,1,.93.33c-.69,4.35-1.85,13-2.53,18.58-.3,2.54-1.22,4.11-2.43,4.18Zm3.7-20.28c-.22.39-.45.77-.67,1.15h0c-3.27,5.64-6.64,11.47-5.87,14.57.56,2.23,2.08,3.59,2.9,3.54.54,0,1.24-1.08,1.51-3.3C350.83,215,351.72,208.28,352.4,203.61Zm-35.67-29.22a2,2,0,0,1-1.09-.29,1.65,1.65,0,0,1-.61-1.88,4.26,4.26,0,0,1,2.28-2.82,1,1,0,0,0,.67-1,.56.56,0,0,1,.17-.62.51.51,0,0,1,.53,0,4.32,4.32,0,0,0,1.7.52c1.18.11,5.49-.69,12.37-2.25a.49.49,0,0,1,.59.35.5.5,0,0,1-.32.61l-.7.23c-5.84,2-9.06,3-12.29,5.69A5.47,5.47,0,0,1,316.73,174.39Zm2.18-5.42a2,2,0,0,1-1.25,1.36,3.3,3.3,0,0,0-1.67,2.16.66.66,0,0,0,.2.77h0c.35.23,1.47.3,3.2-1.12a23.08,23.08,0,0,1,6.12-3.54,26.07,26.07,0,0,1-5.22.68A4.94,4.94,0,0,1,318.91,169ZM317,167.38a.47.47,0,0,1-.17,0c-1.31-.48-4.35-1.84-4.47-4.18a4,4,0,0,1,0-.69.51.51,0,0,1,.31-.42.52.52,0,0,1,.51.07,10.36,10.36,0,0,0,3.59,1.75.48.48,0,0,1,.3.24.5.5,0,0,1,0,.38,2.43,2.43,0,0,0-.05,1.3,2.69,2.69,0,0,0,.35.81.5.5,0,0,1,0,.58A.51.51,0,0,1,317,167.38Zm-3.58-3.86c.32,1.09,1.62,1.92,2.66,2.42a3.46,3.46,0,0,1,0-1.24A12.1,12.1,0,0,1,313.42,163.52Zm7.27,2.78h-.13a1.71,1.71,0,0,1-1.55-1,.59.59,0,0,1,0-.23,1.78,1.78,0,0,1,.81-.83h0c2.06-1.27,7.3-1.07,10.12-.65a.5.5,0,0,1,.42.48.5.5,0,0,1-.39.5A84.4,84.4,0,0,1,320.69,166.3Zm-.46-1.1a1.44,1.44,0,0,0,.42.1,38.52,38.52,0,0,0,5.88-1c-2.56-.09-5.1.14-6.18.81h0Z" style="fill:#263238"></path><path d="M395.06,154.82s-11.14,2.23-16.34,3.22-15.36-2.72-15.36-2.72l.14-.14A80.37,80.37,0,0,1,346,145.44a1.7,1.7,0,0,1-.5.09,1.52,1.52,0,0,1-.9-.3c-.08-.06-8.45-6.32-11.95-8-2.32-1.09-8.75-.73-13.44-.46-2,.11-3.86.22-5.3.22-4.19,0-7.31-2.53-8.12-4.91a3.59,3.59,0,0,1,1.19-4.17l.35-.26a7,7,0,0,1-.84-1.52c-.79-2.12.43-5.14,3-7.35a9.21,9.21,0,0,1,10.78-1.28c3.88,2.11,7.45,6,11.58,10.48a130.79,130.79,0,0,0,12.32,12.18,77.72,77.72,0,0,0,15.59,10c-2.14-3.81-5.64-10.7-7-17.29-.46.56-.84,1.06-1.12,1.48a1.5,1.5,0,0,1-2.5-1.67c.56-.84,1.4-1.85,2.37-3l.7-.84c0-.24,0-.48,0-.72-.19-9.75.84-12.64,2.5-13.49a2.38,2.38,0,0,0-.8-.93c-.08,0-.21-.1-.54.05-1.93.9-2.47,7.17-2.9,12.2l-.12,1.31a1.5,1.5,0,0,1-3-.27l.12-1.29c.6-7,1.12-13,4.62-14.67a3.51,3.51,0,0,1,3.11,0,6.2,6.2,0,0,1,2.74,3.52c1.35.24,3.59.89,4.71,2.66a4.72,4.72,0,0,1,.19,4.49,14.44,14.44,0,0,1-6.49,6.82c-.34.44-.69.89-1,1.32,1,9.53,8.68,21.58,8.76,21.71a1.52,1.52,0,0,1,.22.67c1.06.43,1.69.65,1.71.65s8.22,2.34,14.78,1.94c3.74-.22,13.72-2.22,13.72-2.22m-34.28-32.51a1.47,1.47,0,0,0-.1-1.26s0,0-.06-.07A5.9,5.9,0,0,1,360.14,120.09Zm-3.48-1.56a6.88,6.88,0,0,0-.75-.9c-.28.69-.75,2.54-.81,7.38C356.73,122.57,357.78,120.12,356.66,118.53Zm-37.88,1.62a6.29,6.29,0,0,0-7.38.9c-1.7,1.48-2.39,3.35-2.13,4a5,5,0,0,0,.68,1.14,5.08,5.08,0,0,1,1.73-.22,5,5,0,0,1,.78-1.88,5.69,5.69,0,0,1,3.86-2.32,15.62,15.62,0,0,1,5.06.07A18.61,18.61,0,0,0,318.78,120.15Zm4.47,7.71a10.78,10.78,0,0,0,3,4.56c1.65.39,3.17.77,3.49.85a1.5,1.5,0,0,1,.72.42,11.94,11.94,0,0,1,3.25.77c-1.46-1.53-2.84-3-4.14-4.44s-2.37-2.57-3.49-3.74l-.19,0s-.41-.17-1.06-.39a1.41,1.41,0,0,1-.78.3,1.45,1.45,0,0,0-.89.41A1.74,1.74,0,0,0,323.25,127.86ZM319,133.79h.16l-.33-.17v0a.78.78,0,0,1,0,.14Zm2.62-2.34a13,13,0,0,1-1.23-2.65,4.27,4.27,0,0,1,.29-3.93l0-.05a12,12,0,0,0-3.87,0c-1.87.33-2.29,1.42-2.33,2.23a11.44,11.44,0,0,1,1.29,1C318.47,130.24,320.55,131.24,321.63,131.45Zm-13-.33c.41,1.21,2.47,2.88,5.28,2.88l1.11,0a27.36,27.36,0,0,1-5.69-4.07l-.52.38C308.63,130.41,308.41,130.58,308.6,131.12Z" style="fill:#92E3A9"></path><path d="M376.69,158.71c-5.44,0-13.13-2.79-13.5-2.92a.49.49,0,0,1-.31-.32,81.86,81.86,0,0,1-17-9.49,1.89,1.89,0,0,1-1.6-.35c-.08-.06-8.43-6.31-11.86-7.93-2.21-1-8.83-.67-13.2-.42-2,.11-3.88.22-5.33.22-4.42,0-7.73-2.71-8.6-5.25a4.09,4.09,0,0,1,1.34-4.71,7.5,7.5,0,0,1-.63-1.22c-.86-2.31.42-5.56,3.11-7.91a9.71,9.71,0,0,1,11.35-1.34c4,2.15,7.55,6.06,11.7,10.58a131.15,131.15,0,0,0,12.28,12.14A77.07,77.07,0,0,0,358.49,149a66.52,66.52,0,0,1-6.06-15c-.18.24-.33.44-.45.62a2,2,0,0,1-3.62-.71,2,2,0,0,1,.3-1.51,38.14,38.14,0,0,1,2.4-3l.57-.69c0-.18,0-.36,0-.54-.18-9.38.77-12.47,2.31-13.65a1,1,0,0,0-.32-.32.34.34,0,0,0-.12,0c-1.67.77-2.24,7.4-2.61,11.78l-.12,1.31a2,2,0,0,1-.71,1.36,2,2,0,0,1-1.46.46,2,2,0,0,1-1.35-.71,2,2,0,0,1-.46-1.46l.11-1.3c.62-7.14,1.15-13.31,4.91-15.07a4,4,0,0,1,3.54,0,6.42,6.42,0,0,1,2.89,3.53A7.3,7.3,0,0,1,363,117a5.18,5.18,0,0,1,.23,5,14.69,14.69,0,0,1-6.62,7c-.28.37-.56.73-.85,1.09,1.12,9.39,8.59,21.17,8.66,21.29a2,2,0,0,1,.25.58c.87.35,1.38.53,1.42.54s8.19,2.3,14.59,1.92c3.66-.23,13.55-2.2,13.65-2.22a.51.51,0,0,1,.59.39.5.5,0,0,1-.39.59c-.41.08-10.06,2-13.79,2.23-6.56.4-14.61-1.86-14.94-1.95-.05,0-.69-.24-1.76-.68a.5.5,0,0,1-.32-.41,1,1,0,0,0-.14-.45c-.08-.12-7.78-12.27-8.84-21.93a.56.56,0,0,1,.11-.37c.35-.42.69-.86,1-1.31a.47.47,0,0,1,.15-.13,13.84,13.84,0,0,0,6.28-6.56,4.29,4.29,0,0,0-.15-4c-1-1.62-3.18-2.22-4.37-2.43a.51.51,0,0,1-.39-.32,5.78,5.78,0,0,0-2.49-3.24,3,3,0,0,0-2.68,0c-3.24,1.51-3.75,7.41-4.33,14.24l-.12,1.31a1,1,0,0,0,.23.73,1,1,0,0,0,1.41.13,1,1,0,0,0,.35-.69l.12-1.3c.56-6.57,1.16-11.66,3.19-12.61a1,1,0,0,1,1,0,2.59,2.59,0,0,1,1,1.14.53.53,0,0,1,.05.39.5.5,0,0,1-.25.3c-1.72.88-2.39,4.78-2.23,13,0,.24,0,.47,0,.71a.48.48,0,0,1-.11.34l-.7.84c-1,1.15-1.79,2.15-2.34,3a1,1,0,0,0,.27,1.39,1,1,0,0,0,1.39-.28c.26-.39.61-.86,1.15-1.52a.49.49,0,0,1,.51-.17.51.51,0,0,1,.37.39c1.38,6.6,4.95,13.57,7,17.14a.5.5,0,0,1-.07.59.52.52,0,0,1-.59.11,79,79,0,0,1-15.69-10.11,128.31,128.31,0,0,1-12.37-12.23c-4.1-4.45-7.64-8.3-11.44-10.37a8.72,8.72,0,0,0-10.22,1.22c-2.39,2.07-3.55,4.87-2.83,6.8a6.29,6.29,0,0,0,.78,1.4.5.5,0,0,1-.12.69l-.33.25a3.1,3.1,0,0,0-1,3.61c.75,2.22,3.69,4.58,7.65,4.58,1.42,0,3.29-.1,5.27-.22,4.75-.27,11.25-.64,13.68.51,3.55,1.68,12,8,12.05,8a.86.86,0,0,0,.92.13.53.53,0,0,1,.47.07,80.15,80.15,0,0,0,17.42,9.69.48.48,0,0,1,.28.28c2,.69,10.25,3.39,14.65,2.55,5.14-1,16.23-3.19,16.35-3.22a.5.5,0,0,1,.58.4.48.48,0,0,1-.39.58c-.11,0-11.21,2.25-16.35,3.23A11.68,11.68,0,0,1,376.69,158.71Zm-43-23.75a.43.43,0,0,1-.19,0,10.94,10.94,0,0,0-3.12-.73.57.57,0,0,1-.3-.15.94.94,0,0,0-.48-.28c-.32-.08-1.83-.46-3.49-.85a.65.65,0,0,1-.22-.11,11.65,11.65,0,0,1-3.15-4.79h0a2.17,2.17,0,0,1,0-1.73,2,2,0,0,1,1.27-.64.91.91,0,0,0,.52-.2.47.47,0,0,1,.46-.07c.65.22,1.06.38,1.09.39l.13,0a.43.43,0,0,1,.23.14c1.13,1.17,2.28,2.42,3.5,3.74s2.67,2.91,4.14,4.44a.5.5,0,0,1,0,.63A.48.48,0,0,1,333.72,135Zm-3-1.75c.49.06.95.14,1.37.23-1-1.06-1.93-2.09-2.85-3.09-1.17-1.27-2.29-2.48-3.39-3.62l-.11,0-.8-.3a1.92,1.92,0,0,1-.8.25,1.16,1.16,0,0,0-.52.19,1.7,1.7,0,0,0,.13.87h0a10.65,10.65,0,0,0,2.77,4.27c1.62.38,3.07.74,3.38.82A1.89,1.89,0,0,1,330.69,133.21Zm-16.81,1.29c-2.88,0-5.23-1.67-5.76-3.22h0a1.08,1.08,0,0,1,.36-1.38l.52-.38a.5.5,0,0,1,.64,0,27.37,27.37,0,0,0,5.58,4,.5.5,0,0,1,.25.56.48.48,0,0,1-.47.38C314.6,134.5,314.22,134.5,313.88,134.5ZM309.07,131c.32.93,1.88,2.22,4,2.49a29,29,0,0,1-3.82-2.89l-.17.13c-.06,0-.08.1,0,.27Zm9.73,3.34a.51.51,0,0,1-.4-.19.5.5,0,0,1-.08-.46s0-.12,0-.15a.55.55,0,0,1,.27-.34.49.49,0,0,1,.44,0l.16.08.16.08a.49.49,0,0,1,.28.55.5.5,0,0,1-.46.41l-.12-.3-.06.12,0,.19h-.24Zm0-1,0,.42Zm2.86-1.35h-.1c-.56-.11-2.64-.7-6-3.6a9.65,9.65,0,0,0-1.24-.92A.51.51,0,0,1,314,127c0-.83.45-2.29,2.74-2.71a12.81,12.81,0,0,1,4,0,.54.54,0,0,1,.39.31.51.51,0,0,1-.07.49,3.8,3.8,0,0,0-.25,3.53,12.48,12.48,0,0,0,1.18,2.55.5.5,0,0,1,0,.54A.49.49,0,0,1,321.63,132Zm-6.57-5.2c.36.25.72.53,1.09.84a19.34,19.34,0,0,0,4.43,3,13.89,13.89,0,0,1-.65-1.61,5.06,5.06,0,0,1,0-3.74,10.08,10.08,0,0,0-3,0C315.84,125.46,315.21,126,315.06,126.75Zm-5.11,0a.53.53,0,0,1-.4-.19,5.39,5.39,0,0,1-.75-1.28c-.35-1,.47-3,2.27-4.59a6.79,6.79,0,0,1,7.95-1,19.94,19.94,0,0,1,2.67,1.78.5.5,0,0,1,.15.59.5.5,0,0,1-.54.3,14.44,14.44,0,0,0-4.89-.07,5.16,5.16,0,0,0-3.54,2.1,4.53,4.53,0,0,0-.7,1.7.5.5,0,0,1-.52.4,4.44,4.44,0,0,0-1.55.2A.39.39,0,0,1,310,126.73Zm5.78-6.9a6.23,6.23,0,0,0-4,1.6c-1.64,1.42-2.14,3.09-2,3.48a3.58,3.58,0,0,0,.41.75,5.05,5.05,0,0,1,1.14-.16,5.27,5.27,0,0,1,.75-1.65,6.15,6.15,0,0,1,4.19-2.53,13.45,13.45,0,0,1,3.29-.15c-.33-.21-.65-.41-1-.58h0A5.83,5.83,0,0,0,315.73,119.83Zm39.37,5.68a.4.4,0,0,1-.15,0,.5.5,0,0,1-.35-.48c.06-4.69.49-6.7.85-7.56a.5.5,0,0,1,.36-.3.53.53,0,0,1,.45.13,7.7,7.7,0,0,1,.8,1h0c1.1,1.54.59,3.84-1.54,7A.51.51,0,0,1,355.1,125.51Zm1-6.86a26.43,26.43,0,0,0-.47,4.49c1.05-2,1.25-3.4.6-4.32h0Zm4,1.94h-.06a.5.5,0,0,1-.44-.5,5.15,5.15,0,0,0-.15-1.22.5.5,0,0,1,.28-.57.5.5,0,0,1,.61.16l.08.09a1.93,1.93,0,0,1,.16,1.67A.48.48,0,0,1,360.14,120.59Zm.5-.5h0Z" style="fill:#263238"></path><path d="M398.77,153.89a.5.5,0,0,1-.49-.48.49.49,0,0,1,.47-.52l13.74-.69a.48.48,0,0,1,.53.48.5.5,0,0,1-.47.52l-13.75.69Z" style="fill:#263238"></path><polygon points="419.57 152.35 409.84 156.91 411.99 152.73 409.43 148.79 419.57 152.35" style="fill:#263238"></polygon><path d="M292.63,123.33a.5.5,0,0,1-.24-.06l-12-6.7a.51.51,0,0,1-.2-.68.5.5,0,0,1,.68-.2l12,6.7a.5.5,0,0,1,.2.68A.49.49,0,0,1,292.63,123.33Z" style="fill:#263238"></path><polygon points="298.8 126.27 288.13 124.97 292.17 122.57 292.09 117.87 298.8 126.27" style="fill:#263238"></polygon><path d="M365.88,254.64a.5.5,0,0,1-.49-.44l-1.64-13.66a.5.5,0,1,1,1-.12l1.64,13.66a.5.5,0,0,1-.43.56Z" style="fill:#263238"></path><polygon points="363.41 233.47 368.63 242.86 364.31 241 360.56 243.83 363.41 233.47" style="fill:#263238"></polygon></g><g id="Table"><path d="M464.21,457.64H439.59a.5.5,0,0,1-.5-.5.5.5,0,0,1,.5-.5h24.62a.5.5,0,0,1,.5.5A.51.51,0,0,1,464.21,457.64Z" style="fill:#263238"></path><path d="M431.88,457.64H14.48a.5.5,0,0,1-.5-.5.5.5,0,0,1,.5-.5h417.4a.5.5,0,0,1,.5.5A.5.5,0,0,1,431.88,457.64Z" style="fill:#263238"></path></g></svg>
