<svg xmlns="http://www.w3.org/2000/svg" xmlns:xlink="http://www.w3.org/1999/xlink" viewBox="0 0 500 500"><defs><clippath id="clip-path"><path d="M76.5,411.11l.84,6,.18,1.28L80.42,439h45.86L129,419.72l.17-1.25,1-7.36a1.64,1.64,0,0,0-1.36-2h-51A1.64,1.64,0,0,0,76.5,411.11Z" style="fill:#263238"></path></clippath><clippath id="clip-path-2"><path d="M388.64,232.57l-44.28-3.95c-2.37,7.64-5.84,19.58-5.84,19.58-20.27,28.05-27.65,70.35-28.71,74.2-.81,2.94,10.08,49.33,15.25,71,2.06,8.91,1.31,16.18-1.19,21.91-1.66,3.8-5.89,12.19-9.39,15.92a9.12,9.12,0,0,1-1.35,1.22A29.42,29.42,0,0,0,306.8,439h18.73s4.22-9.45,6.33-11.83S333.7,439,333.7,439h2.11s3.7-11.6,4-15.67a25.84,25.84,0,0,0-.44-5.39,136.63,136.63,0,0,1-1.74-16.54h0s-1.55-26.4-.93-43.92c.52-15-4.17-32.58-4.17-32.58C336.71,319.08,360,279,360,279c4.32,14.24,2,27.43,5.12,40.62s.58,9.49.67,23c.07,11.26-1.13,51.79-1.54,65.21a52,52,0,0,1-1.2,10.07,36.45,36.45,0,0,1-2.94,8.17c-3.16,6.33-4.75,9.41-3.69,12.88h22.15s4-3.65,1.59-9.72a52.15,52.15,0,0,1-3.52-11.33,29.06,29.06,0,0,1,.24-10.29h0c2.93-15,12-62.09,11.74-72.53-.29-12.44,1.35-21.83,6.7-44.72S388.64,232.57,388.64,232.57Z" style="fill:#fff;stroke:#263238;stroke-linecap:round;stroke-linejoin:round"></path></clippath></defs><g id="background-simple"><path d="M108.83,108.06C122.28,92,140.47,79.54,162.15,79.81c37,.45,57,33.2,78.22,58.47,11,13.1,23.49,25.74,39.83,31.89,24.51,9.23,51.81,3.84,75.69-4.73,10.7-3.83,23.37-9.23,35.42-6.48,36.63,8.38,32.82,53.09,26.76,81.39-8.16,38.22-21.44,78.91-48.35,108.27-64.43,70.29-180.38,27.2-238.5-28.89-4.27-4.12-8.36-8.43-12.21-13a179.81,179.81,0,0,1-25.16-38.45C75.1,229.39,72.52,182,88.77,141.79A128.15,128.15,0,0,1,108.83,108.06Z" style="fill:#92E3A9"></path><path d="M108.83,108.06C122.28,92,140.47,79.54,162.15,79.81c37,.45,57,33.2,78.22,58.47,11,13.1,23.49,25.74,39.83,31.89,24.51,9.23,51.81,3.84,75.69-4.73,10.7-3.83,23.37-9.23,35.42-6.48,36.63,8.38,32.82,53.09,26.76,81.39-8.16,38.22-21.44,78.91-48.35,108.27-64.43,70.29-180.38,27.2-238.5-28.89-4.27-4.12-8.36-8.43-12.21-13a179.81,179.81,0,0,1-25.16-38.45C75.1,229.39,72.52,182,88.77,141.79A128.15,128.15,0,0,1,108.83,108.06Z" style="fill:#fff;opacity:0.7000000000000001"></path></g><g id="Graphics"><path d="M108.92,129.44a.51.51,0,0,1-.5-.5v-3.6a.51.51,0,0,1,.5-.5.5.5,0,0,1,.5.5v3.6A.5.5,0,0,1,108.92,129.44Z" style="fill:#92E3A9"></path><path d="M108.92,133a.5.5,0,0,1-.5-.5v-2.1a.5.5,0,0,1,.5-.5.5.5,0,0,1,.5.5v2.1A.5.5,0,0,1,108.92,133Z" style="fill:#92E3A9"></path><path d="M108.92,138.53a.5.5,0,0,1-.5-.5v-3.37a.5.5,0,0,1,.5-.5.5.5,0,0,1,.5.5V138A.5.5,0,0,1,108.92,138.53Z" style="fill:#92E3A9"></path><path d="M108.92,142.41a.5.5,0,0,1-.5-.5v-1.57a.5.5,0,0,1,.5-.5.5.5,0,0,1,.5.5v1.57A.5.5,0,0,1,108.92,142.41Z" style="fill:#92E3A9"></path><path d="M117.21,134.13h-3.6a.51.51,0,0,1-.5-.5.5.5,0,0,1,.5-.5h3.6a.5.5,0,0,1,.5.5A.51.51,0,0,1,117.21,134.13Z" style="fill:#92E3A9"></path><path d="M112.2,134.13h-2a.5.5,0,0,1-.5-.5.5.5,0,0,1,.5-.5h2a.5.5,0,0,1,.5.5A.5.5,0,0,1,112.2,134.13Z" style="fill:#92E3A9"></path><path d="M107.89,134.13h-3.37a.5.5,0,0,1-.5-.5.5.5,0,0,1,.5-.5h3.37a.5.5,0,0,1,.5.5A.5.5,0,0,1,107.89,134.13Z" style="fill:#92E3A9"></path><path d="M102.21,134.13h-1.58a.51.51,0,0,1-.5-.5.5.5,0,0,1,.5-.5h1.58a.5.5,0,0,1,.5.5A.5.5,0,0,1,102.21,134.13Z" style="fill:#92E3A9"></path><path d="M109.8,133.25a.5.5,0,0,1-.35-.85l2.76-2.77a.5.5,0,0,1,.71.71l-2.77,2.76A.47.47,0,0,1,109.8,133.25Z" style="fill:#92E3A9"></path><path d="M105.28,137.77a.47.47,0,0,1-.35-.15.48.48,0,0,1,0-.7l2.79-2.8a.5.5,0,0,1,.71.71l-2.8,2.79A.49.49,0,0,1,105.28,137.77Z" style="fill:#92E3A9"></path><path d="M112.56,137.77a.5.5,0,0,1-.35-.15l-2.74-2.73a.51.51,0,0,1,0-.71.5.5,0,0,1,.71,0l2.74,2.74a.5.5,0,0,1,0,.7A.51.51,0,0,1,112.56,137.77Z" style="fill:#92E3A9"></path><path d="M108.08,133.28a.54.54,0,0,1-.36-.14l-2.79-2.8a.5.5,0,0,1,0-.71.5.5,0,0,1,.7,0l2.8,2.8a.5.5,0,0,1,0,.71A.54.54,0,0,1,108.08,133.28Z" style="fill:#92E3A9"></path><g style="opacity:0.4"><path d="M220.32,69.47a.5.5,0,0,1-.5-.5V65.38a.5.5,0,0,1,1,0V69A.5.5,0,0,1,220.32,69.47Z" style="fill:#92E3A9"></path><path d="M220.32,73a.5.5,0,0,1-.5-.5v-2.1a.5.5,0,1,1,1,0v2.1A.5.5,0,0,1,220.32,73Z" style="fill:#92E3A9"></path><path d="M220.32,78.57a.5.5,0,0,1-.5-.5V74.7a.5.5,0,1,1,1,0v3.37A.5.5,0,0,1,220.32,78.57Z" style="fill:#92E3A9"></path><path d="M220.32,82.45a.5.5,0,0,1-.5-.5V80.37a.5.5,0,0,1,1,0V82A.5.5,0,0,1,220.32,82.45Z" style="fill:#92E3A9"></path><path d="M228.61,74.17H225a.51.51,0,0,1-.5-.5.5.5,0,0,1,.5-.5h3.6a.5.5,0,0,1,.5.5A.51.51,0,0,1,228.61,74.17Z" style="fill:#92E3A9"></path><path d="M223.6,74.17h-2a.5.5,0,0,1-.5-.5.5.5,0,0,1,.5-.5h2a.5.5,0,0,1,.5.5A.5.5,0,0,1,223.6,74.17Z" style="fill:#92E3A9"></path><path d="M219.29,74.17h-3.37a.5.5,0,0,1-.5-.5.5.5,0,0,1,.5-.5h3.37a.5.5,0,0,1,.5.5A.5.5,0,0,1,219.29,74.17Z" style="fill:#92E3A9"></path><path d="M213.61,74.17H212a.51.51,0,0,1-.5-.5.5.5,0,0,1,.5-.5h1.58a.5.5,0,0,1,.5.5A.5.5,0,0,1,213.61,74.17Z" style="fill:#92E3A9"></path><path d="M221.2,73.29a.47.47,0,0,1-.35-.15.5.5,0,0,1,0-.71l2.76-2.76a.5.5,0,0,1,.71.71l-2.77,2.76A.47.47,0,0,1,221.2,73.29Z" style="fill:#92E3A9"></path><path d="M216.68,77.81a.51.51,0,0,1-.36-.15.5.5,0,0,1,0-.7l2.8-2.8a.5.5,0,0,1,.71,0,.5.5,0,0,1,0,.7l-2.8,2.8A.49.49,0,0,1,216.68,77.81Z" style="fill:#92E3A9"></path><path d="M224,77.81a.49.49,0,0,1-.35-.15l-2.74-2.74a.5.5,0,0,1,0-.7.5.5,0,0,1,.71,0L224.32,77a.5.5,0,0,1,0,.7A.51.51,0,0,1,224,77.81Z" style="fill:#92E3A9"></path><path d="M219.48,73.32a.54.54,0,0,1-.36-.14l-2.8-2.8a.5.5,0,0,1,.71-.71l2.8,2.8a.51.51,0,0,1,0,.71A.54.54,0,0,1,219.48,73.32Z" style="fill:#92E3A9"></path></g><g style="opacity:0.4"><path d="M306.8,113a.5.5,0,0,1-.5-.5v-3.59a.5.5,0,1,1,1,0v3.59A.5.5,0,0,1,306.8,113Z" style="fill:#92E3A9"></path><path d="M306.8,116.5a.5.5,0,0,1-.5-.5v-2.1a.5.5,0,0,1,1,0V116A.5.5,0,0,1,306.8,116.5Z" style="fill:#92E3A9"></path><path d="M306.8,122.08a.5.5,0,0,1-.5-.5v-3.37a.5.5,0,1,1,1,0v3.37A.5.5,0,0,1,306.8,122.08Z" style="fill:#92E3A9"></path><path d="M306.8,126a.5.5,0,0,1-.5-.5v-1.58a.5.5,0,0,1,1,0v1.58A.5.5,0,0,1,306.8,126Z" style="fill:#92E3A9"></path><path d="M315.09,117.68h-3.6a.51.51,0,0,1-.5-.5.5.5,0,0,1,.5-.5h3.6a.5.5,0,0,1,.5.5A.51.51,0,0,1,315.09,117.68Z" style="fill:#92E3A9"></path><path d="M310.08,117.68h-2a.5.5,0,0,1-.5-.5.5.5,0,0,1,.5-.5h2a.5.5,0,0,1,.5.5A.5.5,0,0,1,310.08,117.68Z" style="fill:#92E3A9"></path><path d="M305.77,117.68H302.4a.5.5,0,0,1-.5-.5.5.5,0,0,1,.5-.5h3.37a.5.5,0,0,1,.5.5A.5.5,0,0,1,305.77,117.68Z" style="fill:#92E3A9"></path><path d="M300.09,117.68h-1.58a.51.51,0,0,1-.5-.5.5.5,0,0,1,.5-.5h1.58a.5.5,0,0,1,.5.5A.5.5,0,0,1,300.09,117.68Z" style="fill:#92E3A9"></path><path d="M307.68,116.8a.47.47,0,0,1-.35-.15.5.5,0,0,1,0-.71l2.76-2.76a.5.5,0,1,1,.71.71L308,116.65A.47.47,0,0,1,307.68,116.8Z" style="fill:#92E3A9"></path><path d="M303.16,121.32a.51.51,0,0,1-.36-.15.5.5,0,0,1,0-.7l2.8-2.8a.5.5,0,0,1,.71,0,.51.51,0,0,1,0,.71l-2.8,2.79A.49.49,0,0,1,303.16,121.32Z" style="fill:#92E3A9"></path><path d="M310.44,121.32a.49.49,0,0,1-.35-.15l-2.74-2.73a.51.51,0,0,1,0-.71.5.5,0,0,1,.71,0l2.74,2.74a.5.5,0,0,1,0,.7A.51.51,0,0,1,310.44,121.32Z" style="fill:#92E3A9"></path><path d="M306,116.83a.54.54,0,0,1-.36-.14l-2.8-2.8a.5.5,0,1,1,.71-.71l2.8,2.8a.51.51,0,0,1,0,.71A.54.54,0,0,1,306,116.83Z" style="fill:#92E3A9"></path></g><path d="M310.44,248.46a.5.5,0,0,1-.5-.5v-3.6a.51.51,0,0,1,.5-.5.5.5,0,0,1,.5.5V248A.5.5,0,0,1,310.44,248.46Z" style="fill:#92E3A9"></path><path d="M310.44,252a.5.5,0,0,1-.5-.5v-2.1a.5.5,0,0,1,.5-.5.5.5,0,0,1,.5.5v2.1A.5.5,0,0,1,310.44,252Z" style="fill:#92E3A9"></path><path d="M310.44,257.56a.51.51,0,0,1-.5-.5v-3.38a.51.51,0,0,1,.5-.5.5.5,0,0,1,.5.5v3.38A.5.5,0,0,1,310.44,257.56Z" style="fill:#92E3A9"></path><path d="M310.44,261.44a.51.51,0,0,1-.5-.5v-1.58a.5.5,0,0,1,.5-.5.5.5,0,0,1,.5.5v1.58A.5.5,0,0,1,310.44,261.44Z" style="fill:#92E3A9"></path><path d="M318.73,253.15h-3.6a.5.5,0,0,1-.5-.5.51.51,0,0,1,.5-.5h3.6a.51.51,0,0,1,.5.5A.5.5,0,0,1,318.73,253.15Z" style="fill:#92E3A9"></path><path d="M313.72,253.15h-2a.5.5,0,0,1-.5-.5.51.51,0,0,1,.5-.5h2a.5.5,0,0,1,.5.5A.5.5,0,0,1,313.72,253.15Z" style="fill:#92E3A9"></path><path d="M309.41,253.15H306a.5.5,0,0,1-.5-.5.5.5,0,0,1,.5-.5h3.37a.5.5,0,0,1,.5.5A.5.5,0,0,1,309.41,253.15Z" style="fill:#92E3A9"></path><path d="M303.74,253.15h-1.58a.5.5,0,0,1-.5-.5.5.5,0,0,1,.5-.5h1.58a.51.51,0,0,1,.5.5A.5.5,0,0,1,303.74,253.15Z" style="fill:#92E3A9"></path><path d="M311.32,252.27a.52.52,0,0,1-.35-.14.5.5,0,0,1,0-.71l2.76-2.76a.5.5,0,0,1,.71,0,.5.5,0,0,1,0,.7l-2.76,2.77A.54.54,0,0,1,311.32,252.27Z" style="fill:#92E3A9"></path><path d="M306.8,256.79a.5.5,0,0,1-.35-.85l2.79-2.8a.51.51,0,0,1,.71,0,.5.5,0,0,1,0,.71l-2.8,2.8A.5.5,0,0,1,306.8,256.79Z" style="fill:#92E3A9"></path><path d="M314.08,256.79a.54.54,0,0,1-.35-.14L311,253.91a.5.5,0,0,1,.71-.71l2.74,2.74a.51.51,0,0,1,0,.71A.54.54,0,0,1,314.08,256.79Z" style="fill:#92E3A9"></path><path d="M309.6,252.31a.51.51,0,0,1-.36-.15l-2.79-2.8a.49.49,0,1,1,.7-.7l2.8,2.79a.5.5,0,0,1,0,.71A.49.49,0,0,1,309.6,252.31Z" style="fill:#92E3A9"></path><g style="opacity:0.4"><path d="M401.16,364.83a.5.5,0,0,1-.5-.5v-3.59a.5.5,0,0,1,1,0v3.59A.5.5,0,0,1,401.16,364.83Z" style="fill:#92E3A9"></path><path d="M401.16,368.35a.5.5,0,0,1-.5-.5v-2.11a.5.5,0,0,1,1,0v2.11A.5.5,0,0,1,401.16,368.35Z" style="fill:#92E3A9"></path><path d="M401.16,373.93a.5.5,0,0,1-.5-.5v-3.38a.5.5,0,0,1,1,0v3.38A.5.5,0,0,1,401.16,373.93Z" style="fill:#92E3A9"></path><path d="M401.16,377.81a.5.5,0,0,1-.5-.5v-1.58a.5.5,0,0,1,1,0v1.58A.5.5,0,0,1,401.16,377.81Z" style="fill:#92E3A9"></path><path d="M409.45,369.52h-3.6a.5.5,0,0,1-.5-.5.5.5,0,0,1,.5-.5h3.6a.51.51,0,0,1,.5.5A.5.5,0,0,1,409.45,369.52Z" style="fill:#92E3A9"></path><path d="M404.44,369.52h-2a.5.5,0,0,1-.5-.5.5.5,0,0,1,.5-.5h2a.5.5,0,0,1,.5.5A.5.5,0,0,1,404.44,369.52Z" style="fill:#92E3A9"></path><path d="M400.13,369.52h-3.38a.5.5,0,0,1-.5-.5.51.51,0,0,1,.5-.5h3.38a.5.5,0,0,1,.5.5A.5.5,0,0,1,400.13,369.52Z" style="fill:#92E3A9"></path><path d="M394.45,369.52h-1.58a.5.5,0,0,1-.5-.5.51.51,0,0,1,.5-.5h1.58a.5.5,0,0,1,.5.5A.5.5,0,0,1,394.45,369.52Z" style="fill:#92E3A9"></path><path d="M402,368.64a.46.46,0,0,1-.35-.14.5.5,0,0,1,0-.71l2.76-2.76a.48.48,0,0,1,.7,0,.5.5,0,0,1,0,.71l-2.76,2.76A.47.47,0,0,1,402,368.64Z" style="fill:#92E3A9"></path><path d="M397.52,373.17a.51.51,0,0,1-.36-.15.51.51,0,0,1,0-.71l2.8-2.79a.5.5,0,0,1,.71,0,.5.5,0,0,1,0,.7l-2.8,2.8A.5.5,0,0,1,397.52,373.17Z" style="fill:#92E3A9"></path><path d="M404.8,373.17a.47.47,0,0,1-.35-.15l-2.74-2.74a.48.48,0,0,1,0-.7.5.5,0,0,1,.71,0l2.73,2.73a.5.5,0,0,1,0,.71A.47.47,0,0,1,404.8,373.17Z" style="fill:#92E3A9"></path><path d="M400.31,368.68a.5.5,0,0,1-.35-.15l-2.8-2.79a.51.51,0,0,1,0-.71.5.5,0,0,1,.71,0l2.8,2.8a.5.5,0,0,1,0,.7A.51.51,0,0,1,400.31,368.68Z" style="fill:#92E3A9"></path></g><path d="M202.19,132a.5.5,0,0,1-.5-.5v-6.12a.5.5,0,0,1,.5-.5.5.5,0,0,1,.5.5v6.12A.51.51,0,0,1,202.19,132Z" style="fill:#92E3A9"></path><path d="M202.19,138a.5.5,0,0,1-.5-.5v-3.58a.5.5,0,0,1,.5-.5.5.5,0,0,1,.5.5v3.58A.51.51,0,0,1,202.19,138Z" style="fill:#92E3A9"></path><path d="M202.19,147.46a.5.5,0,0,1-.5-.5v-5.74a.5.5,0,0,1,.5-.5.5.5,0,0,1,.5.5V147A.5.5,0,0,1,202.19,147.46Z" style="fill:#92E3A9"></path><path d="M202.19,154.07a.5.5,0,0,1-.5-.5v-2.69a.5.5,0,0,1,.5-.5.5.5,0,0,1,.5.5v2.69A.51.51,0,0,1,202.19,154.07Z" style="fill:#92E3A9"></path><path d="M216.29,140h-6.12a.5.5,0,0,1-.5-.5.5.5,0,0,1,.5-.5h6.12a.5.5,0,0,1,.5.5A.51.51,0,0,1,216.29,140Z" style="fill:#92E3A9"></path><path d="M207.77,140h-3.34a.51.51,0,0,1-.5-.5.5.5,0,0,1,.5-.5h3.34a.5.5,0,0,1,.5.5A.5.5,0,0,1,207.77,140Z" style="fill:#92E3A9"></path><path d="M200.44,140h-5.75a.51.51,0,0,1-.5-.5.5.5,0,0,1,.5-.5h5.75a.5.5,0,0,1,.5.5A.51.51,0,0,1,200.44,140Z" style="fill:#92E3A9"></path><path d="M190.78,140h-2.69a.5.5,0,0,1-.5-.5.5.5,0,0,1,.5-.5h2.69a.5.5,0,0,1,.5.5A.51.51,0,0,1,190.78,140Z" style="fill:#92E3A9"></path><path d="M203.68,138.47a.5.5,0,0,1-.35-.85l4.7-4.7a.5.5,0,0,1,.71,0,.51.51,0,0,1,0,.71l-4.7,4.69A.51.51,0,0,1,203.68,138.47Z" style="fill:#92E3A9"></path><path d="M196,146.16a.47.47,0,0,1-.35-.14.5.5,0,0,1,0-.71l4.76-4.76a.5.5,0,0,1,.7,0,.5.5,0,0,1,0,.71L196.34,146A.46.46,0,0,1,196,146.16Z" style="fill:#92E3A9"></path><path d="M208.38,146.16A.49.49,0,0,1,208,146l-4.66-4.66a.5.5,0,0,1,.71-.71l4.66,4.66a.51.51,0,0,1,0,.71A.5.5,0,0,1,208.38,146.16Z" style="fill:#92E3A9"></path><path d="M200.75,138.53a.47.47,0,0,1-.35-.15l-4.76-4.75a.5.5,0,0,1,0-.71.48.48,0,0,1,.7,0l4.76,4.76a.48.48,0,0,1,0,.7A.47.47,0,0,1,200.75,138.53Z" style="fill:#92E3A9"></path><g style="opacity:0.4"><path d="M280.5,388.59a.5.5,0,0,1-.5-.5V382a.5.5,0,0,1,1,0v6.11A.5.5,0,0,1,280.5,388.59Z" style="fill:#92E3A9"></path><path d="M280.5,394.57a.5.5,0,0,1-.5-.5v-3.58a.5.5,0,0,1,1,0v3.58A.5.5,0,0,1,280.5,394.57Z" style="fill:#92E3A9"></path><path d="M280.5,404.07a.5.5,0,0,1-.5-.5v-5.74a.5.5,0,1,1,1,0v5.74A.5.5,0,0,1,280.5,404.07Z" style="fill:#92E3A9"></path><path d="M280.5,410.67a.5.5,0,0,1-.5-.5v-2.69a.5.5,0,0,1,1,0v2.69A.5.5,0,0,1,280.5,410.67Z" style="fill:#92E3A9"></path><path d="M294.6,396.57h-6.12a.5.5,0,0,1-.5-.5.51.51,0,0,1,.5-.5h6.12a.51.51,0,0,1,.5.5A.5.5,0,0,1,294.6,396.57Z" style="fill:#92E3A9"></path><path d="M286.08,396.57h-3.34a.5.5,0,0,1-.5-.5.51.51,0,0,1,.5-.5h3.34a.5.5,0,0,1,.5.5A.5.5,0,0,1,286.08,396.57Z" style="fill:#92E3A9"></path><path d="M278.75,396.57H273a.5.5,0,0,1-.5-.5.5.5,0,0,1,.5-.5h5.74a.51.51,0,0,1,.5.5A.5.5,0,0,1,278.75,396.57Z" style="fill:#92E3A9"></path><path d="M269.09,396.57H266.4a.5.5,0,0,1-.5-.5.51.51,0,0,1,.5-.5h2.69a.5.5,0,0,1,.5.5A.5.5,0,0,1,269.09,396.57Z" style="fill:#92E3A9"></path><path d="M282,395.08a.51.51,0,0,1-.36-.15.51.51,0,0,1,0-.71l4.7-4.7a.51.51,0,0,1,.71,0,.5.5,0,0,1,0,.71l-4.7,4.7A.49.49,0,0,1,282,395.08Z" style="fill:#92E3A9"></path><path d="M274.3,402.77a.5.5,0,0,1-.35-.85l4.76-4.76a.5.5,0,0,1,.71,0,.5.5,0,0,1,0,.7l-4.76,4.76A.51.51,0,0,1,274.3,402.77Z" style="fill:#92E3A9"></path><path d="M286.7,402.77a.51.51,0,0,1-.36-.15L281.68,398a.51.51,0,0,1,0-.71.5.5,0,0,1,.71,0l4.66,4.66a.48.48,0,0,1,0,.7A.5.5,0,0,1,286.7,402.77Z" style="fill:#92E3A9"></path><path d="M279.06,395.14a.49.49,0,0,1-.35-.15L274,390.23a.5.5,0,0,1,0-.71.51.51,0,0,1,.71,0l4.76,4.76a.51.51,0,0,1,0,.71A.51.51,0,0,1,279.06,395.14Z" style="fill:#92E3A9"></path></g><path d="M85.89,256.42a.5.5,0,0,1-.5-.5V249.8a.5.5,0,0,1,1,0v6.12A.5.5,0,0,1,85.89,256.42Z" style="fill:#92E3A9"></path><path d="M85.89,262.4a.5.5,0,0,1-.5-.5v-3.58a.5.5,0,0,1,1,0v3.58A.5.5,0,0,1,85.89,262.4Z" style="fill:#92E3A9"></path><path d="M85.89,271.89a.5.5,0,0,1-.5-.5v-5.74a.5.5,0,0,1,1,0v5.74A.5.5,0,0,1,85.89,271.89Z" style="fill:#92E3A9"></path><path d="M85.89,278.5a.5.5,0,0,1-.5-.5v-2.69a.5.5,0,0,1,1,0V278A.5.5,0,0,1,85.89,278.5Z" style="fill:#92E3A9"></path><path d="M100,264.4H93.87a.5.5,0,0,1-.5-.5.51.51,0,0,1,.5-.5H100a.51.51,0,0,1,.5.5A.5.5,0,0,1,100,264.4Z" style="fill:#92E3A9"></path><path d="M91.47,264.4H88.14a.5.5,0,0,1-.5-.5.5.5,0,0,1,.5-.5h3.33a.5.5,0,0,1,.5.5A.5.5,0,0,1,91.47,264.4Z" style="fill:#92E3A9"></path><path d="M84.14,264.4H78.4a.5.5,0,0,1-.5-.5.5.5,0,0,1,.5-.5h5.74a.51.51,0,0,1,.5.5A.5.5,0,0,1,84.14,264.4Z" style="fill:#92E3A9"></path><path d="M74.48,264.4H71.79a.5.5,0,0,1-.5-.5.51.51,0,0,1,.5-.5h2.69a.5.5,0,0,1,.5.5A.5.5,0,0,1,74.48,264.4Z" style="fill:#92E3A9"></path><path d="M87.39,262.9a.5.5,0,0,1-.36-.14.51.51,0,0,1,0-.71l4.7-4.7a.51.51,0,0,1,.71,0,.5.5,0,0,1,0,.71l-4.7,4.7A.47.47,0,0,1,87.39,262.9Z" style="fill:#92E3A9"></path><path d="M79.69,270.6a.5.5,0,0,1-.35-.15.51.51,0,0,1,0-.71L84.1,265a.5.5,0,0,1,.71.71l-4.76,4.76A.51.51,0,0,1,79.69,270.6Z" style="fill:#92E3A9"></path><path d="M92.09,270.6a.51.51,0,0,1-.36-.15l-4.65-4.66a.49.49,0,0,1,.7-.7l4.66,4.65a.5.5,0,0,1,0,.71A.49.49,0,0,1,92.09,270.6Z" style="fill:#92E3A9"></path><path d="M84.45,263a.49.49,0,0,1-.35-.14l-4.76-4.76a.5.5,0,0,1,.71-.71l4.76,4.76a.51.51,0,0,1,0,.71A.5.5,0,0,1,84.45,263Z" style="fill:#92E3A9"></path><path d="M429.49,224.86a.51.51,0,0,1-.5-.5v-6.12a.51.51,0,0,1,.5-.5.5.5,0,0,1,.5.5v6.12A.5.5,0,0,1,429.49,224.86Z" style="fill:#92E3A9"></path><path d="M429.49,230.84a.5.5,0,0,1-.5-.5v-3.58a.5.5,0,0,1,.5-.5.5.5,0,0,1,.5.5v3.58A.5.5,0,0,1,429.49,230.84Z" style="fill:#92E3A9"></path><path d="M429.49,240.33a.5.5,0,0,1-.5-.5v-5.74a.51.51,0,0,1,.5-.5.5.5,0,0,1,.5.5v5.74A.5.5,0,0,1,429.49,240.33Z" style="fill:#92E3A9"></path><path d="M429.49,246.94a.51.51,0,0,1-.5-.5v-2.69a.51.51,0,0,1,.5-.5.5.5,0,0,1,.5.5v2.69A.5.5,0,0,1,429.49,246.94Z" style="fill:#92E3A9"></path><path d="M443.59,232.84h-6.11a.5.5,0,0,1,0-1h6.11a.5.5,0,0,1,0,1Z" style="fill:#92E3A9"></path><path d="M435.07,232.84h-3.33a.5.5,0,0,1,0-1h3.33a.5.5,0,0,1,0,1Z" style="fill:#92E3A9"></path><path d="M427.74,232.84H422a.5.5,0,0,1,0-1h5.74a.5.5,0,0,1,0,1Z" style="fill:#92E3A9"></path><path d="M418.08,232.84H415.4a.5.5,0,0,1,0-1h2.68a.5.5,0,0,1,0,1Z" style="fill:#92E3A9"></path><path d="M431,231.34a.46.46,0,0,1-.35-.14.5.5,0,0,1,0-.71l4.7-4.7a.5.5,0,0,1,.7,0,.5.5,0,0,1,0,.71l-4.7,4.7A.46.46,0,0,1,431,231.34Z" style="fill:#92E3A9"></path><path d="M423.3,239a.51.51,0,0,1-.36-.15.51.51,0,0,1,0-.71l4.76-4.76a.51.51,0,0,1,.71,0,.5.5,0,0,1,0,.71l-4.76,4.76A.5.5,0,0,1,423.3,239Z" style="fill:#92E3A9"></path><path d="M435.69,239a.47.47,0,0,1-.35-.15l-4.66-4.66a.48.48,0,0,1,0-.7.5.5,0,0,1,.71,0l4.65,4.65a.5.5,0,0,1,0,.71A.47.47,0,0,1,435.69,239Z" style="fill:#92E3A9"></path><path d="M428.06,231.4a.54.54,0,0,1-.36-.14l-4.76-4.76a.5.5,0,1,1,.71-.71l4.76,4.76a.5.5,0,0,1,0,.71A.54.54,0,0,1,428.06,231.4Z" style="fill:#92E3A9"></path></g><g id="Floor"><line x1="63.7" y1="438.98" x2="436.3" y2="438.98" style="fill:none;stroke:#263238;stroke-linecap:round;stroke-linejoin:round"></line></g><g id="Plant"><path d="M98.78,415.38s-2.22-19.23-9.56-35.91-.74-20.24,3.2-16.07,8.25,19.81,8.25,19.81-2-16.38-1.16-25.1c1.16-12.78,3.15-22.77,9-21.19,6.79,1.82-2.86,26.48-.31,52.36,0,0,9-14.26,12.14-26.45s11.27-6.91,8.45,4-13.72,17-18,28.83c0,0,14.05-13,18.54-7.88,2.52,2.88-3.87,5-6.65,6.29-13.45,6.44-16.89,22.55-16.89,22.55Z" style="fill:#92E3A9;stroke:#263238;stroke-linecap:round;stroke-linejoin:round"></path><path d="M98.78,415.38s-2.22-19.23-9.56-35.91-.74-20.24,3.2-16.07,8.25,19.81,8.25,19.81-2-16.38-1.16-25.1c1.16-12.78,3.15-22.77,9-21.19,6.79,1.82-2.86,26.48-.31,52.36,0,0,9-14.26,12.14-26.45s11.27-6.91,8.45,4-13.72,17-18,28.83c0,0,14.05-13,18.54-7.88,2.52,2.88-3.87,5-6.65,6.29-13.45,6.44-16.89,22.55-16.89,22.55Z" style="fill-opacity:0.7000000000000001;stroke:#263238;stroke-linecap:round;stroke-linejoin:round;opacity:0.2"></path><path d="M107,411.23s-1.12-20.12,6.23-36.8.79-18-3.15-13.81-6.92,25.77-6.92,25.77-3.46-19.35-1.89-32.72,1.47-20.9-4-20.9c-7,0-5.38,32.73.31,52.36,0,0-9-14.26-12.14-26.45s-11.26-6.91-8.45,4,13.73,17,18,28.83c0,0-14-13-18.53-7.88-2.53,2.88,3.86,5,6.64,6.29,13.45,6.44,16.89,22.55,16.89,22.55Z" style="fill:#92E3A9;stroke:#263238;stroke-linecap:round;stroke-linejoin:round"></path><path d="M109.46,373.59c-6.23,14.08-6.59,34.6-6.59,34.6s-8.2-40.78-6.14-58" style="fill:none;stroke:#263238;stroke-linecap:round;stroke-linejoin:round"></path><path d="M82.5,365.5s9.16,19.33,17.53,26.74" style="fill:none;stroke:#263238;stroke-linecap:round;stroke-linejoin:round"></path><path d="M82.5,386.33s15.48,9.95,19.27,16.06" style="fill:none;stroke:#263238;stroke-linecap:round;stroke-linejoin:round"></path><path d="M76.5,411.11l.84,6,.18,1.28L80.42,439h45.86L129,419.72l.17-1.25,1-7.36a1.64,1.64,0,0,0-1.36-2h-51A1.64,1.64,0,0,0,76.5,411.11Z" style="fill:#263238"></path><g style="clip-path:url(#clip-path)"><g style="opacity:0.5"><path d="M77.34,417.07l.18,1.28a4.63,4.63,0,0,1,1.66,1.52c5.73,8.1,10.48,6,15.88.29,4.68-4.94,7.12-2.16,10.81,2,.64.74,1.32,1.51,2,2.29,1.49,1.58,2.73,2.21,3.85,2.21,1.92,0,3.5-1.86,5.42-4.11,1-1.16,2.14-2.5,3.5-3.79,2.45-2.32,5.63-1.05,8.3.92l.17-1.25c-2.85-2-6.27-3.21-9-.58a44.94,44.94,0,0,0-3.57,3.87c-3.1,3.63-4.65,5.45-8,1.85-.72-.76-1.39-1.52-2-2.25-3.76-4.29-6.74-7.67-12-2.09-6.12,6.46-9.93,6.42-14.58-.16A5.15,5.15,0,0,0,77.34,417.07Z" style="fill:#fff"></path></g></g></g><g id="Diamond"><path d="M193.53,228.19h25.09a6.45,6.45,0,0,1,6.45,6.45v39.22a0,0,0,0,1,0,0h-38a0,0,0,0,1,0,0V234.63A6.45,6.45,0,0,1,193.53,228.19Z" style="fill:#fff;stroke:#263238;stroke-linecap:round;stroke-linejoin:round"></path><polygon points="197.06 242.37 193.56 245.88 206.07 258.39 218.58 245.88 215.07 242.37 197.06 242.37" style="fill:#92E3A9;stroke:#263238;stroke-linecap:round;stroke-linejoin:round"></polygon><line x1="196.13" y1="245.93" x2="216.11" y2="245.93" style="fill:none;stroke:#263238;stroke-linecap:round;stroke-linejoin:round"></line><line x1="202.17" y1="247.22" x2="206.07" y2="258.39" style="fill:none;stroke:#263238;stroke-linecap:round;stroke-linejoin:round"></line><line x1="209.98" y1="245.93" x2="206.81" y2="255.53" style="fill:none;stroke:#263238;stroke-linecap:round;stroke-linejoin:round"></line><polyline points="209.29 244.85 206.07 242.37 202.17 245.93 198.21 243.56" style="fill:none;stroke:#263238;stroke-linecap:round;stroke-linejoin:round"></polyline><line x1="215.07" y1="242.37" x2="211.76" y2="244.75" style="fill:none;stroke:#263238;stroke-linecap:round;stroke-linejoin:round"></line><path d="M184.86,256.61h42.42a1.34,1.34,0,0,1,1.34,1.34v15.9a0,0,0,0,1,0,0h-45.1a0,0,0,0,1,0,0V258A1.34,1.34,0,0,1,184.86,256.61Z" style="fill:#263238"></path><path d="M243.45,439h3.7L231,276.45h-6l6.33,55.74H180.81l6.34-55.74h-6L165,439h3.69L173,401.39h66.23Zm-70.19-40.29,7.25-63.8h51.12l7.25,63.8Z" style="fill:#bfbfbf;stroke:#263238;stroke-linecap:round;stroke-linejoin:round"></path><path d="M236.35,278.94H175.79a3.47,3.47,0,0,1-3.48-3.47h0a3.48,3.48,0,0,1,3.48-3.48h60.56a3.48,3.48,0,0,1,3.48,3.48h0A3.47,3.47,0,0,1,236.35,278.94Z" style="fill:#757575;stroke:#263238;stroke-linecap:round;stroke-linejoin:round"></path></g><g id="Curtain"><path d="M128.37,179.1H286V370.75s-8.61,14.61-17.83,5-12.78,7.88-24.06,4.68-19-20.34-30.19-13-11.15,15-17.48,13.58-2.47-10.22-12.71-2.27-19.73-6.91-22.89-9-14.24,9.2-19,5.94-13.45,3-13.45,3Z" style="fill:#92E3A9;opacity:0.9"></path><path d="M128.37,179.1H286V370.75s-8.61,14.61-17.83,5-12.78,7.88-24.06,4.68-19-20.34-30.19-13-11.15,15-17.48,13.58-2.47-10.22-12.71-2.27-19.73-6.91-22.89-9-14.24,9.2-19,5.94-13.45,3-13.45,3Z" style="fill:none;stroke:#263238;stroke-linecap:round;stroke-linejoin:round"></path><line x1="157.4" y1="364.61" x2="157.4" y2="313.29" style="fill:none;stroke:#263238;stroke-linecap:round;stroke-linejoin:round"></line><line x1="157.4" y1="303.55" x2="157.4" y2="289.6" style="fill:none;stroke:#263238;stroke-linecap:round;stroke-linejoin:round"></line><line x1="157.4" y1="282.66" x2="157.4" y2="277.76" style="fill:none;stroke:#263238;stroke-linecap:round;stroke-linejoin:round"></line><line x1="142.63" y1="189.99" x2="142.63" y2="282.66" style="fill:none;stroke:#263238;stroke-linecap:round;stroke-linejoin:round"></line><line x1="142.63" y1="295.43" x2="142.63" y2="301.25" style="fill:none;stroke:#263238;stroke-linecap:round;stroke-linejoin:round"></line><line x1="142.63" y1="337.75" x2="142.63" y2="351.85" style="fill:none;stroke:#263238;stroke-linecap:round;stroke-linejoin:round"></line><line x1="187.43" y1="369.92" x2="187.43" y2="318.12" style="fill:none;stroke:#263238;stroke-linecap:round;stroke-linejoin:round"></line><line x1="187.43" y1="312.28" x2="187.43" y2="307.74" style="fill:none;stroke:#263238;stroke-linecap:round;stroke-linejoin:round"></line><line x1="187.43" y1="271.58" x2="187.43" y2="213.76" style="fill:none;stroke:#263238;stroke-linecap:round;stroke-linejoin:round"></line><line x1="187.43" y1="202.32" x2="187.43" y2="207.02" style="fill:none;stroke:#263238;stroke-linecap:round;stroke-linejoin:round"></line><line x1="218.23" y1="338.95" x2="218.23" y2="258.56" style="fill:none;stroke:#263238;stroke-linecap:round;stroke-linejoin:round"></line><line x1="218.23" y1="345.33" x2="218.23" y2="351.85" style="fill:none;stroke:#263238;stroke-linecap:round;stroke-linejoin:round"></line><line x1="218.23" y1="247.94" x2="218.23" y2="189.08" style="fill:none;stroke:#263238;stroke-linecap:round;stroke-linejoin:round"></line><line x1="262.57" y1="364.61" x2="262.57" y2="335.36" style="fill:none;stroke:#263238;stroke-linecap:round;stroke-linejoin:round"></line><line x1="262.57" y1="325.07" x2="262.57" y2="273.98" style="fill:none;stroke:#263238;stroke-linecap:round;stroke-linejoin:round"></line><line x1="262.57" y1="259.39" x2="262.57" y2="253.72" style="fill:none;stroke:#263238;stroke-linecap:round;stroke-linejoin:round"></line><line x1="242.15" y1="252.97" x2="242.15" y2="323.72" style="fill:none;stroke:#263238;stroke-linecap:round;stroke-linejoin:round"></line><line x1="242.15" y1="330.1" x2="242.15" y2="337.75" style="fill:none;stroke:#263238;stroke-linecap:round;stroke-linejoin:round"></line><line x1="242.15" y1="234.84" x2="242.15" y2="211.25" style="fill:none;stroke:#263238;stroke-linecap:round;stroke-linejoin:round"></line><line x1="273.88" y1="188.76" x2="273.88" y2="209.83" style="fill:none;stroke:#263238;stroke-linecap:round;stroke-linejoin:round"></line><line x1="273.88" y1="225.86" x2="273.88" y2="241.33" style="fill:none;stroke:#263238;stroke-linecap:round;stroke-linejoin:round"></line><rect x="112.92" y="178.46" width="188.49" height="2.84" style="fill:#757575;stroke:#263238;stroke-linecap:round;stroke-linejoin:round"></rect><path d="M114.63,179.88a2.67,2.67,0,1,1-2.67-2.66A2.67,2.67,0,0,1,114.63,179.88Z" style="fill:#757575;stroke:#263238;stroke-linecap:round;stroke-linejoin:round"></path><path d="M305,179.88a2.67,2.67,0,1,1-2.67-2.66A2.66,2.66,0,0,1,305,179.88Z" style="fill:#757575;stroke:#263238;stroke-linecap:round;stroke-linejoin:round"></path></g><g id="Character"><path d="M396.55,118c.9,10.47,3.25,25,7.55,33.81s16.16,9.76,19.2,7.39c0,0-2.9,5-10.82,2a13.19,13.19,0,0,0,6.07,4.78c4.35,1.84,1.85,7.64,1.85,7.64a3.64,3.64,0,0,0-1.85-2.5s2,6.46-6.2,9.09-19.89,6.86-28.93,4.09-30.28-15.95-31.86-26.5,5.28-20.31,5.28-20.31-10.15,4.32-9.23,12.71c0,0-4.6-2.82-.06-10.2s14.4-14.8,10.52-24.81,6.74-17,18.25-12.12S396.55,118,396.55,118Z" style="fill:#92E3A9;stroke:#263238;stroke-linecap:round;stroke-linejoin:round"></path><path d="M252,163.39c2.74,1.3,3.78-.62,3.78-.62s.66,2.76,1.65,1.49c2.26-2.85,7.14-2.85,9.11-5.22l19.71,6.77s5.53.11,4.85-6.77c0,0-21.8-7.43-23-8.26-1.83-1.3-13.75-1-16.75-.25s-1.29,12.51-3.46,18.82a2.67,2.67,0,0,0,2.56-1.08C251.31,167.29,252,163.39,252,163.39Z" style="fill:#fff;stroke:#263238;stroke-linecap:round;stroke-linejoin:round"></path><path d="M252,163.39c.47-5.06,2.21-7.6,2.21-7.6s.14-1.78-.62-2.1" style="fill:none;stroke:#263238;stroke-linecap:round;stroke-linejoin:round"></path><path d="M255.78,162.77c-.27-1.4,4.06-4.21,4.38-5.17s-1.23-4.2-1.23-4.2" style="fill:none;stroke:#263238;stroke-linecap:round;stroke-linejoin:round"></path><path d="M264.57,160.45a5,5,0,0,0,3.14-4" style="fill:none;stroke:#263238;stroke-linecap:round;stroke-linejoin:round"></path><path d="M254.21,155.79a6.31,6.31,0,0,0,3.16.28,3.05,3.05,0,0,1,2.32,2.17" style="fill:none;stroke:#263238;stroke-linecap:round;stroke-linejoin:round"></path><path d="M255.53,158a4.43,4.43,0,0,0-.15,3.39" style="fill:none;stroke:#263238;stroke-linecap:round;stroke-linejoin:round"></path><path d="M253.28,159.7s.9-1.07,1.61-.47" style="fill:none;stroke:#263238;stroke-linecap:round;stroke-linejoin:round"></path><path d="M348.36,145.5c-2.85-.4-36.61,19.47-36.61,19.47L272.86,151.7a54.73,54.73,0,0,1-1.3,12.38c2.05.49,32.91,16,38.37,15.36,7.92-1,35.76-10.75,35.76-10.75Z" style="fill:#263238"></path><path d="M403.74,285.32c3.7,28.19-7.19,71.55-7.19,71.55l-26.08-62.51-19.69,58s-17.57-71.48-11.62-109.85,25.68-48.66,25.68-48.66S398.3,243.84,403.74,285.32Z" style="fill:#263238"></path><path d="M388.64,232.57l-44.28-3.95c-2.37,7.64-5.84,19.58-5.84,19.58-20.27,28.05-27.65,70.35-28.71,74.2-.81,2.94,10.08,49.33,15.25,71,2.06,8.91,1.31,16.18-1.19,21.91-1.66,3.8-5.89,12.19-9.39,15.92a9.12,9.12,0,0,1-1.35,1.22A29.42,29.42,0,0,0,306.8,439h18.73s4.22-9.45,6.33-11.83S333.7,439,333.7,439h2.11s3.7-11.6,4-15.67a25.84,25.84,0,0,0-.44-5.39,136.63,136.63,0,0,1-1.74-16.54h0s-1.55-26.4-.93-43.92c.52-15-4.17-32.58-4.17-32.58C336.71,319.08,360,279,360,279c4.32,14.24,2,27.43,5.12,40.62s.58,9.49.67,23c.07,11.26-1.13,51.79-1.54,65.21a52,52,0,0,1-1.2,10.07,36.45,36.45,0,0,1-2.94,8.17c-3.16,6.33-4.75,9.41-3.69,12.88h22.15s4-3.65,1.59-9.72a52.15,52.15,0,0,1-3.52-11.33,29.06,29.06,0,0,1,.24-10.29h0c2.93-15,12-62.09,11.74-72.53-.29-12.44,1.35-21.83,6.7-44.72S388.64,232.57,388.64,232.57Z" style="fill:#fff"></path><g style="clip-path:url(#clip-path-2)"><path d="M360,279s-23.31,40.09-27.53,45.89c0,0,4.69,17.61,4.17,32.58-.1,2.92-.15,6.09-.15,9.33,0,16.25,1.08,34.57,1.08,34.59a136.63,136.63,0,0,0,1.74,16.54,25.84,25.84,0,0,1,.44,5.39c-.26,4.07-4,15.67-4,15.67H333.7s.27-14.2-1.84-11.83S325.53,439,325.53,439h-5.72c-3.66-1.5-7.15-3-9.59-4.06a24,24,0,0,1,2.91-2.49,9.12,9.12,0,0,0,1.35-1.22c3.5-3.73,7.73-12.12,9.39-15.92,2.5-5.73,3.25-13,1.19-21.91s-5.21-21.93-8.05-34.44a18.63,18.63,0,0,1,.68-2.07C323.3,343.48,323.3,329,323.3,329l-3.5,4.22a36.8,36.8,0,0,1,3.5-14.77c3.49-6.86,24.64-54.53,24.64-54.53l11.16,2.9,1.08,12.74C360.13,279.36,360.08,279.17,360,279Z" style="fill:#92E3A9;opacity:0.4"></path><path d="M395.34,290.39c-5.35,22.89-7,32.28-6.7,44.72v.43c0,11.24-8.85,57.34-11.74,72.1a29.06,29.06,0,0,0-.24,10.29,52.15,52.15,0,0,0,3.52,11.33c.13.34.25.68.34,1-12.46,4.56-10.08-9.51-9.3-18.68,4.63-54.72,8.65-67,8.65-67,6.86-7.72,1.51-13.45,4.55-19s7.29-47.47,2.11-61.65c-.79-2.16,9.11-1.39,9.11-1.39S397.31,282,395.34,290.39Z" style="fill:#92E3A9;opacity:0.4"></path></g><path d="M388.64,232.57l-44.28-3.95c-2.37,7.64-5.84,19.58-5.84,19.58-20.27,28.05-27.65,70.35-28.71,74.2-.81,2.94,10.08,49.33,15.25,71,2.06,8.91,1.31,16.18-1.19,21.91-1.66,3.8-5.89,12.19-9.39,15.92a9.12,9.12,0,0,1-1.35,1.22A29.42,29.42,0,0,0,306.8,439h18.73s4.22-9.45,6.33-11.83S333.7,439,333.7,439h2.11s3.7-11.6,4-15.67a25.84,25.84,0,0,0-.44-5.39,136.63,136.63,0,0,1-1.74-16.54h0s-1.55-26.4-.93-43.92c.52-15-4.17-32.58-4.17-32.58C336.71,319.08,360,279,360,279c4.32,14.24,2,27.43,5.12,40.62s.58,9.49.67,23c.07,11.26-1.13,51.79-1.54,65.21a52,52,0,0,1-1.2,10.07,36.45,36.45,0,0,1-2.94,8.17c-3.16,6.33-4.75,9.41-3.69,12.88h22.15s4-3.65,1.59-9.72a52.15,52.15,0,0,1-3.52-11.33,29.06,29.06,0,0,1,.24-10.29h0c2.93-15,12-62.09,11.74-72.53-.29-12.44,1.35-21.83,6.7-44.72S388.64,232.57,388.64,232.57Z" style="fill:none;stroke:#263238;stroke-linecap:round;stroke-linejoin:round"></path><path d="M360,279s23-13.2,37.08-11.38c0,0-.06-26.39-7.44-32.46l-48-4.48-3.11,17.53-5.82,9S349.57,263.62,360,279Z" style="fill:#263238"></path><path d="M385.32,145.92l3.47,8.84s13.86,9.19,14.91,14.75-18.38,43.37-18.38,43.37l1.93,19.6-41.56-2.57s1.14-38.19.79-46.59,3-22.17,3-22.17l1.75-12.69,16.76.35S377.8,144.07,385.32,145.92Z" style="fill:#fff;stroke:#263238;stroke-linecap:round;stroke-linejoin:round"></path><path d="M385.32,150.44l-14.83,6.69-2-5.52a10.89,10.89,0,0,0,2.19-5.45,8.46,8.46,0,0,0-2.19-6.45l3.19-2,19.62-12.35C383.6,136.73,385.32,150.44,385.32,150.44Z" style="fill:#fff;stroke:#263238;stroke-linecap:round;stroke-linejoin:round"></path><polygon points="369.74 159.49 378.9 158.38 375.82 165.97 368.46 161.55 361.15 163.34 364.84 155.64 369.74 159.49" style="fill:#92E3A9;stroke:#263238;stroke-linecap:round;stroke-linejoin:round"></polygon><polygon points="343.78 226.19 389 229.6 389.66 235.16 343.78 231.18 343.78 226.19" style="fill:#757575;stroke:#263238;stroke-linecap:round;stroke-linejoin:round"></polygon><path d="M353.24,232.48V226.9a21.08,21.08,0,0,1,8.74.66v5.2S356.4,233.24,353.24,232.48Z" style="fill:#bfbfbf;stroke:#263238;stroke-linecap:round;stroke-linejoin:round"></path><path d="M388.79,154.76,361.15,182l-2,22.15s31.29,38.89,44.64,81.16c0,0-1.14-39.6-18.42-72.44,0,0,15.35-23.35,18.42-37.2S388.79,154.76,388.79,154.76Z" style="fill:#263238"></path><path d="M368,148.81c-10.19,7.88-10.92,24.1-6.8,33.2s-2,22.15-2,22.15L339.16,246l2-21.26,3.11-19s-10.22-20.38-10.64-23,11.86-20.31,11.86-21.61,3.17-15.93,3.17-15.93Z" style="fill:#263238"></path><path d="M378.59,439H356.44c-1.06-3.47.53-6.55,3.69-12.88a36.45,36.45,0,0,0,2.94-8.17c1.81,3.16-2.08,8.17,0,11.07s9.46,2.9,11.57,0-1.24-8.42,2-11.07a52.15,52.15,0,0,0,3.52,11.33C382.55,435.33,378.59,439,378.59,439Z" style="fill:#263238"></path><path d="M339.77,423.31c-.26,4.07-4,15.67-4,15.67H333.7s.27-14.2-1.84-11.83S325.53,439,325.53,439H306.8a29.42,29.42,0,0,1,6.33-6.55,9.12,9.12,0,0,0,1.35-1.22s4.25,1.28,6.75,0,11.94-17.21,18.1-13.29A25.84,25.84,0,0,1,339.77,423.31Z" style="fill:#263238"></path><path d="M315.08,176.6s-9.89-3.95-11.21-4.22-11.74,4.22-14,3.17.4,2.55,1.85,2.55,7-.7,7-.7-4.52,3.9-5.44,3.9h-5c-1.48,2.49,3.17,4.27,3.17,4.27s1.41,2.51,2.34,2.51a17.74,17.74,0,0,1,2.63,0c.79.13,1.32,1.41,3,1.36s6.59,1.76,8.7,0a23.93,23.93,0,0,0,3.82-4.28h4.22Z" style="fill:#fff;stroke:#263238;stroke-linecap:round;stroke-linejoin:round"></path><path d="M403.7,169.51c2.06,14.12-36.52,31.81-40.49,31.81s-48-12.33-48-12.33-3.93-10.77-1.83-13.92c0,0,42.08,11.24,45.72,10.35S388,161.15,394.19,166" style="fill:#263238"></path><path d="M342.65,196.47s17.92,4.52,20.56,4.85,33.88-15.41,37.05-21.86" style="fill:none;stroke:#fff;stroke-linecap:round;stroke-linejoin:round"></path><path d="M336.31,180.93l21.3,4.49s.28,4.16,1.49,4.79" style="fill:none;stroke:#fff;stroke-linecap:round;stroke-linejoin:round"></path><path d="M359.1,185.42c1.47,0,2.88,2.66,2.88,2.66" style="fill:none;stroke:#fff;stroke-linecap:round;stroke-linejoin:round"></path><path d="M361.15,184.29s15.26-8.1,18.72-11.92,17.62-6.58,20.39-4.07" style="fill:none;stroke:#fff;stroke-linecap:round;stroke-linejoin:round"></path><path d="M341.32,168.38l3.84-6.4s-1.34-9.11.77-13.6" style="fill:none;stroke:#fff;stroke-linecap:round;stroke-linejoin:round"></path><path d="M340.4,157.13s1.84,5.06,3.22,5.34" style="fill:none;stroke:#fff;stroke-linecap:round;stroke-linejoin:round"></path><path d="M311.52,166s1.05,3.38,0,5.1" style="fill:none;stroke:#fff;stroke-linecap:round;stroke-linejoin:round"></path><path d="M380.71,209.7s2.81,3.16,3.71,3.17" style="fill:none;stroke:#fff;stroke-linecap:round;stroke-linejoin:round"></path><path d="M345.69,206s1.41.26,2.67-1.85" style="fill:none;stroke:#fff;stroke-linecap:round;stroke-linejoin:round"></path><path d="M364.05,149.33a41.75,41.75,0,0,0-15.69,8.42l6.73,3.95-5.2,4.27,6.86,9.84" style="fill:none;stroke:#fff;stroke-linecap:round;stroke-linejoin:round"></path><path d="M390,156.34a21.8,21.8,0,0,1,2.27,6.95l-12.38,3.29.84,2.81" style="fill:none;stroke:#fff;stroke-linecap:round;stroke-linejoin:round"></path><path d="M380.71,137.7s-3.85,8-10.06,8.46a8.46,8.46,0,0,0-2.19-6.45l3.19-2Z" style="fill:#263238"></path><path d="M383.92,135.68c-.52,4.38-13.84,9.79-18.61,7.53-1.66-.78-5.49-7.82-5.61-14.63-.06-3.44.74-4.55.43-6.92-.5-3.91-4.16-11.59,1.21-18.36,11.39-14.36,37.37-7.12,32.17,16.72-.65,3-2.69,6.47-4.72,9.41" style="fill:#fff;stroke:#263238;stroke-linecap:round;stroke-linejoin:round"></path><path d="M368.46,117.19s4-3.16,8.52.81" style="fill:none;stroke:#263238;stroke-linecap:round;stroke-linejoin:round"></path><path d="M363.21,117s-3.43-2.17-4.11,0" style="fill:none;stroke:#263238;stroke-linecap:round;stroke-linejoin:round"></path><path d="M374.41,122.67c0,.71-.38,1.28-.84,1.28s-.85-.57-.85-1.28.38-1.28.85-1.28S374.41,122,374.41,122.67Z" style="fill:#263238"></path><path d="M364.05,122.58c0,.71-.37,1.29-.84,1.29s-.85-.58-.85-1.29.38-1.28.85-1.28S364.05,121.87,364.05,122.58Z" style="fill:#263238"></path><path d="M364.84,122.67s-.76,3.85-2.48,5,2.48,2.8,2.48,2.8" style="fill:#fff;stroke:#263238;stroke-linecap:round;stroke-linejoin:round"></path><path d="M364.84,134.19s4.73.53,6.22-1" style="fill:#fff;stroke:#263238;stroke-linecap:round;stroke-linejoin:round"></path><path d="M388.79,131.61s.91-8.71-1.37-9-4.55,3-4.55,3l-.7-3c-8.05-4.52-7.76-15.78-7.76-15.78a15.49,15.49,0,0,0-9.57,8.17c-.35-3.37,3.11-7.47,3.11-7.47a16.21,16.21,0,0,0-6.8,9.5c-2-4.3,1.21-9.15,1.21-9.15-4.58,4-3.26,12.17-3.26,12.17-7.67-7.08-4.24-19.7,9.36-24.08S396,94.55,396.53,111c0,0,.65,13,1.44,18.55" style="fill:#92E3A9;stroke:#263238;stroke-linecap:round;stroke-linejoin:round"></path><path d="M385.32,123.87s1.79-4.7,4.9-3.91,2.06,5,.72,7.42-3.17,8.13-5.62,5.15" style="fill:#fff;stroke:#263238;stroke-linecap:round;stroke-linejoin:round"></path><path d="M408.26,95.11l-8.15,8.42-3.56,3.67s-7.93-12.28-20.73-13.8l2-5,4.86-12.14S396.26,75.73,408.26,95.11Z" style="fill:#263238"></path><path d="M400.11,103.53l-3.56,3.67s-7.93-12.28-20.73-13.8l2-5c2.46.56,6.64,2,12.28,5.74A35.63,35.63,0,0,1,400.11,103.53Z" style="fill:#bfbfbf;stroke:#263238;stroke-linecap:round;stroke-linejoin:round"></path><path d="M366.41,96.7s-4.86-2.41-3-5.94c1.44-2.77,13.58-4,27.17,6.55,16.94,13.09,16.68,29.81,6.41,21.3a20.72,20.72,0,0,0-10.14-18C376,94,366.41,96.7,366.41,96.7Z" style="fill:#263238"></path><path d="M382.83,115.59a8.74,8.74,0,0,0,3.5,2.41" style="fill:none;stroke:#263238;stroke-linecap:round;stroke-linejoin:round"></path><path d="M377.43,104.88a29.69,29.69,0,0,0,4,8.92" style="fill:none;stroke:#263238;stroke-linecap:round;stroke-linejoin:round"></path><path d="M405.44,160.33a9.51,9.51,0,0,0,2,.47" style="fill:none;stroke:#263238;stroke-linecap:round;stroke-linejoin:round"></path><path d="M385.3,109c2.4,3,5.35,4.75,7.27,8a26.24,26.24,0,0,1,3.53,17.19c-.87,5.75-1.05,11.83,1.21,17.29a18.17,18.17,0,0,0,4.78,6.93" style="fill:none;stroke:#263238;stroke-linecap:round;stroke-linejoin:round"></path><path d="M382.34,103.35a17.85,17.85,0,0,0,.8,2.11" style="fill:none;stroke:#263238;stroke-linecap:round;stroke-linejoin:round"></path><path d="M374.72,103.32s-7.4-1.4-9.88,1.56" style="fill:none;stroke:#263238;stroke-linecap:round;stroke-linejoin:round"></path><path d="M372.7,99.75c-4.84-.52-10.31.21-13.6,4.18" style="fill:none;stroke:#263238;stroke-linecap:round;stroke-linejoin:round"></path><path d="M378.12,100.85a26.81,26.81,0,0,0-3.18-.78" style="fill:none;stroke:#263238;stroke-linecap:round;stroke-linejoin:round"></path><path d="M399.68,160.57c5.84,5.85,18.4,9.31,13.25,16.33" style="fill:none;stroke:#263238;stroke-linecap:round;stroke-linejoin:round"></path><path d="M391.27,129.82c-.09,5.05-3.26,15.35,0,22.26" style="fill:none;stroke:#263238;stroke-linecap:round;stroke-linejoin:round"></path><path d="M362.36,140.11a30.15,30.15,0,0,0-2.63,6" style="fill:none;stroke:#263238;stroke-linecap:round;stroke-linejoin:round"></path><path d="M400.22,111.12a23.34,23.34,0,0,1,1.87,4.47" style="fill:none;stroke:#fff;stroke-linecap:round;stroke-linejoin:round"></path><path d="M364.84,91.72c3.74-3.61,11.11-.6,14.93,1.18A46.54,46.54,0,0,1,399,109" style="fill:none;stroke:#fff;stroke-linecap:round;stroke-linejoin:round"></path><circle cx="367.55" cy="166.23" r="0.91" style="fill:#263238"></circle><circle cx="364.05" cy="174.23" r="0.91" style="fill:#263238"></circle><circle cx="358.45" cy="220.91" r="0.91" style="fill:#263238"></circle><path d="M360,211.29a.91.91,0,1,1-.91-.92A.91.91,0,0,1,360,211.29Z" style="fill:#263238"></path><path d="M345.55,259a162.55,162.55,0,0,1,15,15.62s12.45-8.31,19.33-10.09" style="fill:none;stroke:#fff;stroke-linecap:round;stroke-linejoin:round"></path><path d="M356.21,236.8s-2.81,15,1.4,27.1" style="fill:none;stroke:#fff;stroke-linecap:round;stroke-linejoin:round"></path><path d="M342.65,249.14s7.84,5.79,10.59,13" style="fill:none;stroke:#fff;stroke-linecap:round;stroke-linejoin:round"></path><path d="M380.71,235.87c.05.09,15.62,24.24,22,46.31" style="fill:none;stroke:#fff;stroke-linecap:round;stroke-linejoin:round"></path><line x1="345.55" y1="233.84" x2="340.74" y2="242.68" style="fill:none;stroke:#fff;stroke-linecap:round;stroke-linejoin:round"></line></g></svg>