<svg xmlns="http://www.w3.org/2000/svg" viewBox="0 0 500 500"><g id="background-simple"><path d="M462.11,146s-27.77-64.8-85.37-90.51-91.53-5.15-132.67,20.57-135.77,7.2-174.85,28.8-57.6,74.05-37,132.67S106.25,340.41,93.9,369.21,197.78,504,294.46,464.86s71-82.28,115.2-101.82,75.08-72,73-135.76S462.11,146,462.11,146Z" style="fill:#92E3A9"></path><path d="M462.11,146s-27.77-64.8-85.37-90.51-91.53-5.15-132.67,20.57-135.77,7.2-174.85,28.8-57.6,74.05-37,132.67S106.25,340.41,93.9,369.21,197.78,504,294.46,464.86s71-82.28,115.2-101.82,75.08-72,73-135.76S462.11,146,462.11,146Z" style="fill:#fff;opacity:0.8"></path></g><g id="Floor"><line x1="458.48" y1="321.88" x2="474.97" y2="321.88" style="fill:none;stroke:#263238;stroke-miterlimit:10"></line><line x1="30.52" y1="321.88" x2="450.24" y2="321.88" style="fill:none;stroke:#263238;stroke-miterlimit:10"></line></g><g id="pine-flower"><path d="M146.13,239.9a11.32,11.32,0,0,0-2.71-3.79l-8.4.27-9.48,18.69s-.81-8.94-.81-10.29,6-20.59,6.23-21.94-1.9-5.42-4.33-4.34-9.76,13.55-9.76,13.55l-4.33-1.63h-3.79s1.9-8.94,1.62-10.29-3.52-3.79-3.52-3.79,0-4.34-4.33-2.44-1.9,6-1.9,6l-6,4.33-.28,8.13s-9.48-7.59-10.29-8.67-4.06,0-3.25,1.9a13.12,13.12,0,0,0,2.44,3.52l1.08,2.71H82.48l-6.23,1.35,1.89,7.58-4.6-1.62s-4.6,1.89-3.79,2.17,10,13.27,10,13.27l-10.29-2.71-6,5.69,17.33,14.35-13.54-7-10.83,8.39,12.46,8.4,3.25,10.56.54,1.9-20.59-.27-1.08,3.52,1.08,3,13.55,3.52,1.89,3L78.14,312l-25.73-.28,3,8.4,19.77,7.31-13,2.44,4.07,10.29,5.68,1.09-3.52,6L60,349.32s-3.52,3.52.54,6.23A77.64,77.64,0,0,0,70,360.7l6.5,1.35,10.83-.81-.81,3-20.31,5.14s-2.17,4.34-.82,5.69,6.23,3.25,7.32,3a52.76,52.76,0,0,1,6-.27c2.16-1.08,6.5,2.17,10,3.52s3,1.36,5.68,1.63,6,.54,6,.54,8.13,5.69,14.36,5.42,8.39-2.44,8.39-2.44,6.5,4.33,12.19,2.71a15.35,15.35,0,0,0,8.13-5.15,68.69,68.69,0,0,0,18.69-6.5c10-5.15,14.35-10,14.35-10s5.69-.81,7-4.88,3-12.46,3-12.46,8.67-9.2,11.11-13.81,2.16-8.39,2.43-9.21,6-10.83,5.42-14.62-1.08-6.5-3-6.77-13.27,3-13.27,3L187,303.55l4.61-5.15-.27-10.83s.81-4.06-.54-6a5.47,5.47,0,0,0-4.07-1.89s-2.44-4.07-3.79-3.8-10.29,4.61-10.29,4.61,6.77-7.32,6.23-8.13a42.81,42.81,0,0,0-4.34-3.79s4.61-3,3.25-6-.54-3.79-2.7-3.25-8.4,4.06-8.4,4.06-.81-2.16.27-3.52,3.79-6.23,3.79-6.23l-2.71-4.6s-7.85,6-9.2,7.31-10.3,10.84-10.3,10.84,2.71-11.92,2.17-14.09-4.33-3.79-4.33-3.79v-6.5Z" style="fill:#858585;stroke:#263238;stroke-miterlimit:10"></path><path d="M106.58,254.53S94.94,252.36,93,252.36s-8.94,6-9.21,7.85,5.15,5.15,6.23,5.42,9.48,3.52,11.38,2.44S107.4,257.78,106.58,254.53Z" style="fill:#9e9e9e;stroke:#263238;stroke-miterlimit:10"></path><path d="M133.67,294.07s-17.88,10.83-16.25,11.65,11.1,4.06,14.08,4.06,13.27-7.86,14.9-10,8.66-7.86,4.87-8.67S135.83,292.17,133.67,294.07Z" style="fill:#9e9e9e;stroke:#263238;stroke-miterlimit:10"></path><path d="M157,296.78s-6.23,7-7.85,7.85-13.55,7.59-11.65,8.4,13.27,4.33,16,3.79,12.73-13,14.08-16.79,1.36-6.77-.54-6.77S157,296.78,157,296.78Z" style="fill:#9e9e9e;stroke:#263238;stroke-miterlimit:10"></path><path d="M118.77,314.38,102.25,329s-20.59-6.5-19.23-8.4,7.85-5.14,10.83-5.41,4.34.27,6.77-.28a60.63,60.63,0,0,1,9.21-1.08C111.73,313.84,118.77,314.38,118.77,314.38Z" style="fill:#9e9e9e;stroke:#263238;stroke-miterlimit:10"></path><path d="M95.48,301.65s-10,10.57-11.38,10.84S79,312,76,310.59s-7-3-8.4-3.79-3.25-1.35-1.89-3,2.16-3.79,3-4.06a54.32,54.32,0,0,1,7.32-.54c1.62,0,3.79-.27,6-.27S95.48,301.65,95.48,301.65Z" style="fill:#9e9e9e;stroke:#263238;stroke-miterlimit:10"></path><path d="M82.21,281.07s-1.9,7-2.44,7.85.27,2.44-2.17,2.71-5.41.54-5.41.54l-6.5-3c-3-1.35-6-.27-6.23-2.16s0-5.69,3.25-6.23S79,279.17,82.21,281.07Z" style="fill:#9e9e9e;stroke:#263238;stroke-miterlimit:10"></path><path d="M67.31,264.82s.54,4.87,0,6a5,5,0,0,1-4.33,3c-2.44,0-5.69,0-6.5-.55s-2.71-7.85-.82-8.66S67.31,264.82,67.31,264.82Z" style="fill:#9e9e9e;stroke:#263238;stroke-miterlimit:10"></path><path d="M69.48,251.82S68.39,257,67,257.51s-2.71,1.35-3.52,0-3.79-3.8-1.9-5.42S69.48,251.82,69.48,251.82Z" style="fill:#9e9e9e;stroke:#263238;stroke-miterlimit:10"></path><path d="M67,314.65s-10,5.42-11.65,5.42-6.23-8.94-3-8.4S67,314.65,67,314.65Z" style="fill:#9e9e9e;stroke:#263238;stroke-miterlimit:10"></path><path d="M60.27,296.78S54,300.3,52.14,300.3s-5.41-5.42-1.89-6S60.27,296.78,60.27,296.78Z" style="fill:#9e9e9e;stroke:#263238;stroke-miterlimit:10"></path><path d="M80,330.9s-.54,4.88-4.33,6.23-7.59,3.53-9.48,3-7.59-4.6-6.77-6.5,0-4.6,4.87-4.87S80,330.9,80,330.9Z" style="fill:#9e9e9e;stroke:#263238;stroke-miterlimit:10"></path><path d="M107.67,348s-9.75.27-12.46.81S89,351,86.27,351s-8.94-.27-10,1.89,7.58,8.13,11.1,8.4,14.9-5.15,17.88-7.31S110.92,347.43,107.67,348Z" style="fill:#9e9e9e;stroke:#263238;stroke-miterlimit:10"></path><path d="M114.17,333.61s-6.77,2.17-7.32,3.25,19.5,7.05,21.13,5.69,16.25-15.17,16.25-16.52-1.35-.81-5.15-.54-13.81,3.79-15.16,4.06S114.17,333.61,114.17,333.61Z" style="fill:#9e9e9e;stroke:#263238;stroke-miterlimit:10"></path><path d="M167,334.43,142.6,345.26c-2.43,1.08-9.75,1.35-6.77,2.71s15.44,1.62,15.44,1.62,9.48-1.89,11.38-3.25,6-6.23,6.5-8.39S172.4,332,167,334.43Z" style="fill:#9e9e9e;stroke:#263238;stroke-miterlimit:10"></path><path d="M189.19,303.82S174.56,316.55,171,317.9s-11.91,4.88-7.85,5.15S183,319,184.86,319s6-2.71,6.5-7.86S192.17,302.2,189.19,303.82Z" style="fill:#9e9e9e;stroke:#263238;stroke-miterlimit:10"></path><path d="M191.36,287.57s-5.69,4.06-5.69,5.15,1.62,7.58,2.71,7.31,7.58-4.06,7.31-6.23S191.36,287.57,191.36,287.57Z" style="fill:#9e9e9e;stroke:#263238;stroke-miterlimit:10"></path><path d="M170,269.15a7.46,7.46,0,0,1-5.15,4.06c-3.79.82-16.52,6.23-15.16,4.61s2.71-4.06,5.14-5.42,4.61-2.16,6-4.06,1.36-3.25,3.25-3.25S170,265.09,170,269.15Z" style="fill:#9e9e9e;stroke:#263238;stroke-miterlimit:10"></path><path d="M146.4,249.38a57.56,57.56,0,0,1-3.25,8.67c-1.9,3.79-3.25,7.31-4.61,7.31s-13.54-1.62-13-3.79,3-7.86,4.34-8.94,2.7-3.25,6-4.06S146.4,249.38,146.4,249.38Z" style="fill:#9e9e9e;stroke:#263238;stroke-miterlimit:10"></path><path d="M140.17,230.42s-5.42,3.25-5.15,6,4.61,3.52,6,2.71,4.33-3,3.79-4.88S140.17,230.42,140.17,230.42Z" style="fill:#9e9e9e;stroke:#263238;stroke-miterlimit:10"></path><path d="M112.81,232.32s-7,.81-8.39,1.62-9.21,4.34-6,4.34,8.94.81,10.83,0,6-2.44,7-4.34S112.81,232.32,112.81,232.32Z" style="fill:#9e9e9e;stroke:#263238;stroke-miterlimit:10"></path><path d="M168.06,249.11s-5.41,5.42-3,5.42,5.69.27,5.69-.82S171.31,249.11,168.06,249.11Z" style="fill:#9e9e9e;stroke:#263238;stroke-miterlimit:10"></path><path d="M173.48,357.18s-20.58,8.66-25.46,10-10.56,1.35-8.12,3,6.5,3.25,9.75,2.71,10.29-5.15,12.18-5.69,6.78-1.09,10-3.25,6.5-4.61,7.31-6.23S173.48,357.18,173.48,357.18Z" style="fill:#9e9e9e;stroke:#263238;stroke-miterlimit:10"></path><path d="M188.65,340.11S177,350.13,174.56,351s-.81,2.71,1.63,2.43,7.31-2.16,10.29-3.25,8.4-1.62,9.48-3.52,2.44-8.39,1.63-10.29S188.65,340.11,188.65,340.11Z" style="fill:#9e9e9e;stroke:#263238;stroke-miterlimit:10"></path><path d="M128.52,374.78s-7.58,7.31-11.92,8.4a13.83,13.83,0,0,1-9.75-.81c-2.16-1.09-3-1.63-.27-2.71S128.52,374.78,128.52,374.78Z" style="fill:#9e9e9e;stroke:#263238;stroke-miterlimit:10"></path><path d="M106,372.89s-10.29,6.77-15.17,8.39-12.18-1.35-12.18-3.52-1.36-3.25,4.06-4.06S106.31,371,106.31,371,112.27,369.64,106,372.89Z" style="fill:#9e9e9e;stroke:#263238;stroke-miterlimit:10"></path><path d="M134.21,355.82s-27.09,8.4-29.25,8.94-3,2.17,1.89,3,12.46,3.79,16.52,1.35,5.69-5.68,10-8.66S138,354.47,134.21,355.82Z" style="fill:#9e9e9e;stroke:#263238;stroke-miterlimit:10"></path><path d="M127.17,276.19s-7.86,0-11.65.82-20,4.06-17.33,7,17.6,4.06,20,3S128.25,278.9,127.17,276.19Z" style="fill:#9e9e9e;stroke:#263238;stroke-miterlimit:10"></path><line x1="102.25" y1="329.01" x2="106.58" y2="330.63" style="fill:#9e9e9e;stroke:#263238;stroke-miterlimit:10"></line><line x1="118.77" y1="314.38" x2="124.73" y2="321.43" style="fill:#9e9e9e;stroke:#263238;stroke-miterlimit:10"></line><line x1="117.42" y1="305.72" x2="117.42" y2="310.05" style="fill:#9e9e9e;stroke:#263238;stroke-miterlimit:10"></line><line x1="131.5" y1="309.78" x2="132.58" y2="321.43" style="fill:#9e9e9e;stroke:#263238;stroke-miterlimit:10"></line><line x1="137.46" y1="313.03" x2="135.02" y2="318.99" style="fill:#9e9e9e;stroke:#263238;stroke-miterlimit:10"></line><line x1="153.44" y1="316.82" x2="149.11" y2="323.05" style="fill:#9e9e9e;stroke:#263238;stroke-miterlimit:10"></line><line x1="144.23" y1="326.03" x2="142.88" y2="332.8" style="fill:#9e9e9e;stroke:#263238;stroke-miterlimit:10"></line><line x1="186.75" y1="317.9" x2="171.59" y2="327.93" style="fill:#9e9e9e;stroke:#263238;stroke-miterlimit:10"></line><path d="M60,349.32s-2.44,2.71-.82,3.52,3.8,2.17,6,2.44,7.59,1.9,6.23,3.25-.54,3.25-4.06,4.06-4.33,1.63-5.69.27-3.52-3.52-3.52-4.6S53.77,349.86,60,349.32Z" style="fill:#9e9e9e;stroke:#263238;stroke-miterlimit:10"></path><line x1="98.19" y1="284.05" x2="94.67" y2="297.32" style="fill:#9e9e9e;stroke:#263238;stroke-miterlimit:10"></line><line x1="127.17" y1="276.19" x2="133.4" y2="288.92" style="fill:#9e9e9e;stroke:#263238;stroke-miterlimit:10"></line><line x1="120.12" y1="286.76" x2="117.96" y2="297.86" style="fill:#9e9e9e;stroke:#263238;stroke-miterlimit:10"></line><path d="M149.65,277.82s-7.59,7-8.94,8.67" style="fill:#9e9e9e;stroke:#263238;stroke-miterlimit:10"></path><line x1="169.96" y1="269.15" x2="162.92" y2="285.94" style="fill:#9e9e9e;stroke:#263238;stroke-miterlimit:10"></line><line x1="125.54" y1="261.57" x2="123.1" y2="271.86" style="fill:#9e9e9e;stroke:#263238;stroke-miterlimit:10"></line><line x1="116.33" y1="233.94" x2="121.21" y2="253.44" style="fill:#9e9e9e;stroke:#263238;stroke-miterlimit:10"></line><line x1="98.46" y1="238.28" x2="97.1" y2="249.92" style="fill:#9e9e9e;stroke:#263238;stroke-miterlimit:10"></line><line x1="83.83" y1="260.21" x2="90.06" y2="282.42" style="fill:#9e9e9e;stroke:#263238;stroke-miterlimit:10"></line><path d="M106.58,254.53s9.21,12.73,10,13" style="fill:#9e9e9e;stroke:#263238;stroke-miterlimit:10"></path><path d="M143.42,373.16s-19.77,3.52-18.42,5.41,12.46,2.17,16.52,0S146.94,372.07,143.42,373.16Z" style="fill:#9e9e9e;stroke:#263238;stroke-miterlimit:10"></path><path d="M80.58,231s-5.14.82-4.33,2.17.81,2.44,2.71,1.9S85.19,230.15,80.58,231Z" style="fill:#9e9e9e;stroke:#263238;stroke-miterlimit:10"></path></g><g id="Glass"><ellipse cx="269.44" cy="161.27" rx="93.42" ry="10.51" style="fill:none;stroke:#263238;stroke-miterlimit:10"></ellipse><ellipse cx="269.44" cy="160.37" rx="91.15" ry="9.35" style="fill:none;stroke:#263238;stroke-miterlimit:10"></ellipse><path d="M183.35,202.41c5.77,50.3,13.28,119.46,16,161,0,9.65,31.38,17.47,70.09,17.47s70.08-7.82,70.08-17.47c0,0,8.09-93,15.44-161Z" style="fill:#263238"></path><ellipse cx="269.16" cy="202.36" rx="85.81" ry="9.35" style="fill:#263238"></ellipse><ellipse cx="269.16" cy="202.36" rx="85.81" ry="9.35" style="fill:#fff;opacity:0.4"></ellipse><path d="M183.35,202.36l59.61.83a66.43,66.43,0,1,0-54.47,45.48Z" style="fill:#fff;stroke:#263238;stroke-miterlimit:10"></path><path d="M177.81,178.4c-.08-.49-5.5-33.89-7.66-47.22a5.1,5.1,0,0,0-6.42-4.11,58.39,58.39,0,0,0-34.51,27.23,5.1,5.1,0,0,0,2.26,7.11l41.66,20h0a5.21,5.21,0,0,1,4.64-3S177.82,178.41,177.81,178.4Z" style="fill:#fff;stroke:#263238;stroke-miterlimit:10"></path><path d="M187.61,240.78l-4.26-38.4v0l33.91.47s0,0,0,0l-34.17-16.39s0,0,0,0L226.78,203h0l5,.07a3.92,3.92,0,0,0,3.8-2.76,58.38,58.38,0,0,0-5.46-46.78,3.86,3.86,0,0,0-5.55-1.18l-41.77,28.57s0,0,0,0l37.65-30.73a5.72,5.72,0,0,0,.48-8.46,58.08,58.08,0,0,0-41-16.89h-.06a5.71,5.71,0,0,0-5.62,6.18l3.63,47.43a0,0,0,0,0,0,0h0a4.54,4.54,0,0,1,4.36,2.17,5.31,5.31,0,0,1-4.35,8.29,5.2,5.2,0,0,1-4.11-2h0L136,217.62a2.37,2.37,0,0,0-.28,3.39,58.11,58.11,0,0,0,44.18,20.31h0a2.36,2.36,0,0,0,2.32-2.54l-3.77-49.32s0,0,0,0l8.35,51.43Z" style="fill:#fff;stroke:#263238;stroke-miterlimit:10"></path><path d="M172.64,183.63a5.17,5.17,0,0,1,.49-2.19v0L128.79,164.6a3.77,3.77,0,0,0-5,2.54,58.33,58.33,0,0,0,5.64,45.13,3.74,3.74,0,0,0,5.35,1.16l38.91-26.62s0,0,0,0A5.15,5.15,0,0,1,172.64,183.63Z" style="fill:#fff;stroke:#263238;stroke-miterlimit:10"></path><path d="M174.34,93.45l29.24,73.21s10.15,1.38,26.82,2L197.27,87.08s1-1-3.18-1-9.88,2.55-9.88,2.55-1-1.59-4.77-.32S173.06,90.58,174.34,93.45Z" style="fill:#92E3A9;stroke:#263238;stroke-miterlimit:10"></path><path d="M181.6,89.29s-6.3,1.61-5.63,3.08,2.28,1.08,6.84.14c0,0-.41-.81-.67-1.48s.93-1.34.93-1.34" style="fill:none;stroke:#263238;stroke-miterlimit:10"></path><path d="M184.55,92.51s6.17-1.48,8.72-3,2.14-2.69,2.14-2.69" style="fill:none;stroke:#263238;stroke-miterlimit:10"></path><path d="M187.77,88.89s-3.49.53-3.09,1.2,7-.8,6.84-2-2.68,0-2.68,0" style="fill:none;stroke:#263238;stroke-miterlimit:10"></path><path d="M224.54,152.05c13.32-.82,28.62-1.29,44.9-1.29,51.59,0,93.41,4.7,93.41,10.51S321,171.78,269.44,171.78,176,167.07,176,161.27c0-2.64,8.63-5.05,22.89-6.89" style="fill:none;stroke:#263238;stroke-miterlimit:10"></path><path d="M223.48,152.29c13.49-.81,29.2-1.28,46-1.28,50.34,0,91.15,4.19,91.15,9.36s-40.81,9.35-91.15,9.35-91.15-4.19-91.15-9.35c0-2.25,7.73-4.32,20.62-5.93" style="fill:none;stroke:#263238;stroke-miterlimit:10"></path><path d="M200.7,168.79l16.79,36.35s4.51,2.38,13.54,2.25,13-1,13.78-1.75-14-34.46-14-34.46Z" style="fill:#92E3A9;stroke:#263238;stroke-miterlimit:10"></path><path d="M299.89,379.12a145.43,145.43,0,0,0,22.8-4.39c1.06-37.11,3.54-131.27,1.77-144.83C322.63,215.9,305.7,336.81,299.89,379.12Z" style="fill:#fff;opacity:0.4"></path><path d="M269.44,171.78c-51.6,0-93.42-4.71-93.42-10.51,0,0,18.68,151.94,23.33,223,0,9.65,31.38,17.47,70.09,17.47s70.08-7.82,70.08-17.47c0,0,15.84-182,23.33-223C362.85,167.07,321,171.78,269.44,171.78Z" style="fill:none;stroke:#263238;stroke-miterlimit:10"></path><path d="M358.11,190.54a6.27,6.27,0,0,1,3.09,1.4,3.91,3.91,0,0,1,1.13,2.54s27.87-11.83,43.07,9.85,12.67,47.86,6.48,70.1c-6.76,24.28-32.38,44.49-45.89,48.43s-19.43,5.35-20.27,5.91-4.23,1.41-4.23-1.13.57-32.65,4.51-33.5,8.45,9,10.7,10.42,10.13,2,22.52-6.76,20.27-29.28,20.83-48.7-3.37-26.47-8.72-34.35-15.77-9.29-21.12-7-5.63,4.22-10.13,12.39-6.2,7-6.2,7Z" style="fill:#fff;stroke:#263238;stroke-miterlimit:10"></path><path d="M362.13,197.27l-1,4.63s22.19-15.56,39.74,5.64" style="fill:none;stroke:#263238;stroke-miterlimit:10"></path><path d="M402.21,234s3.31,28.82-7,47" style="fill:none;stroke:#263238;stroke-miterlimit:10"></path></g><g id="Spices"><path d="M238,360.1a2.5,2.5,0,0,0-3.1.37c-1.27,1.46-4.55,2.55-7.28,4.55s-8.57,10.57-8.57,10.57-3.82-11.66-6.37-14.94-6.75-2.92-6.75,2.55,3.83,19.31,3.83,19.31-12.75-3.09-17.31-2.91-8.56,0-7.29,2.55,7.66,9.29,7.66,9.29-6.93,5.83-8,8-3.28,6.56-.18,7.47,15.3-.73,15.3-.73.18,9.11,2.37,9.66,5.28,1.64,9.84-2.74a21.33,21.33,0,0,0,5.65-10.38s6.38,13.12,8.38,9.84a11.11,11.11,0,0,0,1.27-7.11,30.12,30.12,0,0,0-.18-3.64c-.18-.73,6.93,1.64,10,.36s4.92-5.83,4.19-6.92a39.33,39.33,0,0,0-3.64-3.83s7.29-12,5.83-14.39-6.74-1.28-6.74-1.28,3.46-8,2.91-12S238,360.1,238,360.1Z" style="fill:#c2c2c2;stroke:#263238;stroke-miterlimit:10"></path><path d="M217.79,402.74s-3.83-9.29-4-13.12" style="fill:#c2c2c2;stroke:#263238;stroke-miterlimit:10"></path><path d="M219.61,392.72s2.55,10.2,5.83,14.76" style="fill:none;stroke:#263238;stroke-miterlimit:10"></path><path d="M215.42,390.9s17.67,6.37,23.32,7.28" style="fill:none;stroke:#263238;stroke-miterlimit:10"></path><path d="M236.55,390.53s-10.93-5.65-19.31-4.92" style="fill:none;stroke:#263238;stroke-miterlimit:10"></path><path d="M218.33,383.79s7.47-6,15.86-6.92" style="fill:none;stroke:#263238;stroke-miterlimit:10"></path><path d="M217.61,378s-2.37,5.1-3.28,7.47" style="fill:none;stroke:#263238;stroke-miterlimit:10"></path><path d="M208.5,387.43a88.93,88.93,0,0,0-13.12,3.28" style="fill:none;stroke:#263238;stroke-miterlimit:10"></path><path d="M194.47,380.87s9.83,1.28,13.11,4.74" style="fill:none;stroke:#263238;stroke-miterlimit:10"></path><path d="M210,389.44a25.68,25.68,0,0,0-9.47,15.12" style="fill:none;stroke:#263238;stroke-miterlimit:10"></path><path d="M184.81,404.2A25,25,0,0,1,195,396c7.11-3.28,10.57-3.65,10.57-3.65" style="fill:none;stroke:#263238;stroke-miterlimit:10"></path><path d="M165.7,399.78s-5.37-7.24-10.19-8-9.66,1.34-10.2,2.95a23.87,23.87,0,0,0-.8,3.49s-9.65,4.29-11.26,6.7.53,7,4.56,8.32a16.63,16.63,0,0,0,6.43,1.07s-3.75,3.22-1.07,4.56,3,2.68,6.17,2.68a47.34,47.34,0,0,0,5.36-.27,8.3,8.3,0,0,0,4.83,4c3.22.81,5.63-.26,7-1.87a11,11,0,0,0,1.88-4s5.09,5.64,8.58,6.44,10.46-.54,11.53-2.68l1.08-2.15s10.19-7,10.46-10.19-6.17-9.38-11.54-11.26A46.36,46.36,0,0,0,177,397.36s-.54-3.48-5.63-3.75S165.7,397.9,165.7,399.78Z" style="fill:#c2c2c2;stroke:#263238;stroke-miterlimit:10"></path><path d="M155.46,418.47a62,62,0,0,0,6.52-7.26c3.85-4.89,3.26-7.55,3.26-7.55a11.47,11.47,0,0,0-7.41,3.7C154.57,410.92,155.46,418.47,155.46,418.47Z" style="fill:#c2c2c2;stroke:#263238;stroke-miterlimit:10"></path><path d="M168.38,419.35c1.51-7.71-.33-16.14-.33-16.14s1.22-4.29,8.91-5.85" style="fill:#c2c2c2;stroke:#263238;stroke-miterlimit:10"></path><path d="M170.72,402.32s16.21,5.13,18.85,18.64" style="fill:none;stroke:#263238;stroke-miterlimit:10"></path><path d="M173.68,402.32s16.45-.44,24.75,6.82" style="fill:none;stroke:#263238;stroke-miterlimit:10"></path><path d="M145.82,398.32s5.19-2.67,15.71,3.26" style="fill:#c2c2c2;stroke:#263238;stroke-miterlimit:10"></path><path d="M145.08,395.8a11,11,0,0,1,10.52.45c5.64,3.26,7.41,6.66,7.41,6.66s-13-1.63-18.22-.14-8.6,3.55-10.38,3.55" style="fill:none;stroke:#263238;stroke-miterlimit:10"></path><path d="M146.57,412.1a20.86,20.86,0,0,1,13-7" style="fill:none;stroke:#263238;stroke-miterlimit:10"></path><path d="M198.33,432.8a4.65,4.65,0,1,0-4.64,4.65A4.64,4.64,0,0,0,198.33,432.8Z" style="fill:#c2c2c2;stroke:#263238;stroke-miterlimit:10"></path><path d="M186.56,431.1s-16.42,5.57-18.12,6.5-1.39,3.57,1.55,3.41,16.88-4.18,18-3.56,5.12,4.18,5.12,3.41S190,435,190,434.35s2.63-5,2-5-1.39,1.09-2.32-.3-.16-3.72-.78-3.1A17.86,17.86,0,0,0,186.56,431.1Z" style="fill:#c2c2c2;stroke:#263238;stroke-miterlimit:10"></path><circle cx="286.88" cy="411.63" r="4.65" style="fill:#c2c2c2;stroke:#263238;stroke-miterlimit:10"></circle><path d="M294,409.92s16.41,5.58,18.12,6.51,1.39,3.56-1.55,3.41-16.88-4.19-18-3.57-5.11,4.19-5.11,3.41,3.1-5.88,3.1-6.5-2.63-5-2-5,1.4,1.08,2.33-.31.15-3.72.77-3.1A17.83,17.83,0,0,1,294,409.92Z" style="fill:#c2c2c2;stroke:#263238;stroke-miterlimit:10"></path><circle cx="66.5" cy="409.57" r="4.65" transform="translate(-265.65 160.88) rotate(-43.95)" style="fill:#c2c2c2;stroke:#263238;stroke-miterlimit:10"></circle><path d="M72.54,405.42s17.32-.68,19.25-.43,2.58,2.83-.23,3.74-17.26,2.15-18,3.12-3.27,5.73-3.54,5,.78-6.6.55-7.18-4.23-3.68-3.65-3.91,1.69.52,2-1.12-1.18-3.52-.38-3.17A17.86,17.86,0,0,1,72.54,405.42Z" style="fill:#c2c2c2;stroke:#263238;stroke-miterlimit:10"></path></g><g id="orange-slice"><path d="M456.82,392.62c-10.11-7.7-35.95-13.17-66.25-13.17s-56.14,5.47-66.25,13.17h-5.18l.61,7.19c0,11.25,31.71,20.37,70.82,20.37s70.82-9.12,70.82-20.37l.61-7.19Z" style="fill:#fff;stroke:#263238;stroke-miterlimit:10"></path><ellipse cx="390.57" cy="392.62" rx="71.43" ry="20.54" style="fill:#fff;stroke:#263238;stroke-miterlimit:10"></ellipse><path d="M384.81,392.91l-54,2.72a1.31,1.31,0,0,0-.78,2.3c5.26,4.35,16.8,7.94,31.74,10a5.27,5.27,0,0,0,3.47-.72l22-13.22A5.68,5.68,0,0,1,384.81,392.91Z" style="fill:#fff;stroke:#263238;stroke-miterlimit:10"></path><path d="M390.42,389.88a10.69,10.69,0,0,1,5.25,1.11l30.68-9.81a1.43,1.43,0,0,0-.17-2.77,202.9,202.9,0,0,0-35.61-2.94c-5,0-9.83.16-14.48.45a1.43,1.43,0,0,0-.88,2.48l12.64,11.7A14.65,14.65,0,0,1,390.42,389.88Z" style="fill:#fff;stroke:#263238;stroke-miterlimit:10"></path><path d="M384.37,392.09c0-.77,1.09-1.45,2.73-1.84L367.75,377a1.71,1.71,0,0,0-1.1-.27c-19.43,2.13-34.08,6.76-38.4,12.41a1.61,1.61,0,0,0,1.31,2.54l54.93.84A.85.85,0,0,1,384.37,392.09Z" style="fill:#fff;stroke:#263238;stroke-miterlimit:10"></path><path d="M390.42,394.29a16.16,16.16,0,0,1-2.51-.2l-12,12.38a1.71,1.71,0,0,0,1.13,2.9c4.37.25,8.9.39,13.56.39a206.19,206.19,0,0,0,33.6-2.58,1.12,1.12,0,0,0,.19-2.16L394,393.87A14.28,14.28,0,0,1,390.42,394.29Z" style="fill:#fff;stroke:#263238;stroke-miterlimit:10"></path><path d="M443,382.89a6,6,0,0,0-3.37-.3l-43.37,8.87a1,1,0,0,1,.25.63c0,.65-.8,1.24-2.06,1.65l37.83,11a5.78,5.78,0,0,0,3.14,0c11.61-3.1,18.81-7.41,18.81-12.16C454.2,389,450.05,385.65,443,382.89Z" style="fill:#fff;stroke:#263238;stroke-miterlimit:10"></path></g></svg>