<svg xmlns="http://www.w3.org/2000/svg" viewBox="0 0 500 500"><g id="background-simple"><path d="M265.69,15.36c-22.48-2.18-45.25-2.18-67,4.69C158.65,32.7,138.29,66.63,126,104.5c-.31,1-.62,1.9-.92,2.86-14.65,45.9-100.6,72.27-89.86,143.57s63.2,59.78,69.35,110.36,80.28,77.14,152.35,72.27,69.35-63.48,110.36-89.85,117.2-38.09,99.62-130.87C455.35,152.09,425.47,92.07,377,51.69c-25.73-21.44-58.93-29.48-91.38-33.94C279,16.84,272.38,16,265.69,15.36Z" style="fill:#92E3A9"></path><path d="M265.69,15.36c-22.48-2.18-45.25-2.18-67,4.69C158.65,32.7,138.29,66.63,126,104.5c-.31,1-.62,1.9-.92,2.86-14.65,45.9-100.6,72.27-89.86,143.57s63.2,59.78,69.35,110.36,80.28,77.14,152.35,72.27,69.35-63.48,110.36-89.85,117.2-38.09,99.62-130.87C455.35,152.09,425.47,92.07,377,51.69c-25.73-21.44-58.93-29.48-91.38-33.94C279,16.84,272.38,16,265.69,15.36Z" style="fill:#fff;opacity:0.7000000000000001"></path></g><g id="Clouds"><path d="M154.77,70.21c-.22-.7-.46-1.41-.72-2.11-9.39-26.14-53.12-27.94-53.12,4.18,0,6.19-14.85,0-20.42,8s.62,13-6.8,15.47-8-3.71-17.32-3.1-8,9.28-11.14,11.76-3.09,1.24-9.9,1.85-8,5.57-8,5.57H190s6.18-18.56-5-25.36-11.14,2.47-19.8-1.24C158.11,82.2,156.77,76.38,154.77,70.21Z" style="fill:none;stroke:#b2b2b2;stroke-linecap:round;stroke-linejoin:round"></path><path d="M160.4,105.1s3.37-10.41-4.9-18.07-16.85-3.37-19.31,0-2.45,9.8-6.43,10.41-3.06-6.74-11.64-4.9-5.21,10.42-9.2,12.26-4-4.91-9.49-2.76-5.21,6.13-5.21,6.13" style="fill:none;stroke:#b2b2b2;stroke-linecap:round;stroke-linejoin:round"></path><path d="M116.39,84.29a15.52,15.52,0,0,0-15.69-1.37c-8.87,4.1-4.78,12.63-8.87,14.67s-6.14-.34-11.26,2-4.77,5.8-4.77,5.8" style="fill:none;stroke:#b2b2b2;stroke-linecap:round;stroke-linejoin:round"></path><path d="M436.75,156.05c-.14-.43-.29-.87-.45-1.31-5.81-16.16-32.86-17.28-32.86,2.59,0,3.83-9.18,0-12.63,5s.39,8-4.21,9.56-5-2.29-10.71-1.91-5,5.74-6.89,7.27-1.91.77-6.12,1.15-5,3.44-5,3.44H458.55s3.82-11.48-3.06-15.69-6.89,1.53-12.25-.76C438.81,163.47,438,159.87,436.75,156.05Z" style="fill:none;stroke:#b2b2b2;stroke-linecap:round;stroke-linejoin:round"></path><path d="M440.23,177.64s2.08-6.45-3-11.19-10.43-2.08-11.95,0-1.51,6.07-4,6.45-1.89-4.17-7.2-3-3.22,6.44-5.68,7.58-2.47-3-5.88-1.71-3.22,3.79-3.22,3.79" style="fill:none;stroke:#b2b2b2;stroke-linecap:round;stroke-linejoin:round"></path><path d="M413,164.76a9.59,9.59,0,0,0-9.71-.84c-5.49,2.53-3,7.8-5.49,9.07s-3.8-.21-7,1.27-3,3.58-3,3.58" style="fill:none;stroke:#b2b2b2;stroke-linecap:round;stroke-linejoin:round"></path></g><g id="Sun"><path d="M433.32,61.52c.64-.05,1.29-.08,1.95-.08a24,24,0,0,1,16.52,41.47" style="fill:none;stroke:#b2b2b2;stroke-linecap:round;stroke-linejoin:round"></path><path d="M425.91,63.33a23.68,23.68,0,0,1,4-1.28" style="fill:none;stroke:#b2b2b2;stroke-linecap:round;stroke-linejoin:round"></path><path d="M449.57,104.78a24,24,0,1,1-28-39" style="fill:none;stroke:#b2b2b2;stroke-linecap:round;stroke-linejoin:round"></path><line x1="435.27" y1="41.71" x2="435.27" y2="56.29" style="fill:none;stroke:#b2b2b2;stroke-linecap:round;stroke-linejoin:round"></line><line x1="435.27" y1="128.16" x2="435.27" y2="130.94" style="fill:none;stroke:#b2b2b2;stroke-linecap:round;stroke-linejoin:round"></line><line x1="435.27" y1="116.35" x2="435.27" y2="126.09" style="fill:none;stroke:#b2b2b2;stroke-linecap:round;stroke-linejoin:round"></line><line x1="466.82" y1="117.87" x2="456.51" y2="107.56" style="fill:none;stroke:#b2b2b2;stroke-linecap:round;stroke-linejoin:round"></line><line x1="408.58" y1="59.63" x2="403.73" y2="54.78" style="fill:none;stroke:#b2b2b2;stroke-linecap:round;stroke-linejoin:round"></line><line x1="414.04" y1="65.09" x2="409.96" y2="61.01" style="fill:none;stroke:#b2b2b2;stroke-linecap:round;stroke-linejoin:round"></line><line x1="476.58" y1="86.32" x2="465.3" y2="86.32" style="fill:none;stroke:#b2b2b2;stroke-linecap:round;stroke-linejoin:round"></line><line x1="479.89" y1="86.32" x2="477.96" y2="86.32" style="fill:none;stroke:#b2b2b2;stroke-linecap:round;stroke-linejoin:round"></line><line x1="401.42" y1="86.32" x2="390.66" y2="86.32" style="fill:none;stroke:#b2b2b2;stroke-linecap:round;stroke-linejoin:round"></line><line x1="405.24" y1="86.32" x2="403.72" y2="86.32" style="fill:none;stroke:#b2b2b2;stroke-linecap:round;stroke-linejoin:round"></line><line x1="466.82" y1="54.78" x2="456.51" y2="65.09" style="fill:none;stroke:#b2b2b2;stroke-linecap:round;stroke-linejoin:round"></line><line x1="414.04" y1="107.56" x2="403.73" y2="117.87" style="fill:none;stroke:#b2b2b2;stroke-linecap:round;stroke-linejoin:round"></line></g><g id="Mountains"><path d="M75.58,407.2C58,431,41.64,454.33,41.64,454.33" style="fill:none;stroke:#263238;stroke-miterlimit:10"></path><path d="M408.25,372.45c-16.2-22.81-31.31-41.54-37.42-41.84-15.75-.77-49.88,29.32-49.88,29.32s-43.75-64-57.76-68.67-101.5,91.05-101.5,91.05-34.13-28.55-44.63-24.69c-4.59,1.68-19.55,20.34-34.95,40.82" style="fill:none;stroke:#263238;stroke-miterlimit:10"></path><path d="M416,383.51c-1.6-2.31-3.2-4.62-4.79-6.89" style="fill:none;stroke:#263238;stroke-miterlimit:10"></path><path d="M462,454.5S441.71,421.33,420,389.32" style="fill:none;stroke:#263238;stroke-miterlimit:10"></path></g><g id="Plants"><path d="M320.69,414.4a14.88,14.88,0,0,0,4.38.49s-.67-2-.73-2.16c-.68-1.43-2.84-3.78-4.59-3.55a2.1,2.1,0,0,0-1.68,2.63A4.33,4.33,0,0,0,320.69,414.4Z" style="fill:#263238"></path><path d="M321.76,423.41a14.43,14.43,0,0,0,4.31-.68,37.92,37.92,0,0,0,1.69,4.66c.38.88.79,1.76,1.21,2.63-.25-.37-.48-.7-.52-.74-1-1.19-3.73-2.9-5.36-2.21a2.1,2.1,0,0,0-.93,3,4.36,4.36,0,0,0,3.21,1.81,14.15,14.15,0,0,0,4.19-.64c.17.33.33.67.5,1,.8,1.6,1.61,3.19,2.36,4.78.26.56.5,1.12.74,1.68-.23-.33-.42-.61-.45-.64-1-1.2-3.74-2.9-5.37-2.21a2.1,2.1,0,0,0-.93,3,4.4,4.4,0,0,0,3.21,1.8,13.07,13.07,0,0,0,4.08-.61c.23.58.46,1.16.66,1.74.12.39.27.76.38,1.16s.22.79.32,1.18c.19.76.38,1.54.54,2.28.11.52.21,1,.31,1.51-.25-.56-.78-1.65-.83-1.73-.84-1.34-3.26-3.43-5-3a2.1,2.1,0,0,0-1.37,2.81,4.37,4.37,0,0,0,2.9,2.27,14.6,14.6,0,0,0,4.34,0c.17.82.32,1.62.45,2.38.27,1.54.48,2.93.65,4.14h1.15c-.19-1.25-.44-2.71-.77-4.33-.16-.84-.35-1.73-.56-2.64a22.44,22.44,0,0,0,2.42-1.14,15.67,15.67,0,0,0,3.53,2.28c-.31.78-.63,1.53-.94,2.23-.58,1.35-1.14,2.55-1.64,3.6h1.25c.42-1,.88-2,1.36-3.19.32-.79.66-1.63,1-2.51a14.6,14.6,0,0,0,4.33.34,4.38,4.38,0,0,0,3.06-2.05,2.1,2.1,0,0,0-1.16-2.9c-1.68-.56-4.24,1.34-5.18,2.62-.05.07-.56.95-.88,1.51.14-.35.27-.7.4-1.07.27-.73.52-1.47.79-2.26.11-.39.23-.78.35-1.17s.21-.82.31-1.23c.23-1,.42-1.94.58-2.93a13.93,13.93,0,0,0,4.11.94,4.37,4.37,0,0,0,3.34-1.56,2.09,2.09,0,0,0-.71-3c-1.57-.81-4.39.68-5.51,1.8-.07.07-.79,1-1.17,1.46.09-.6.19-1.2.26-1.81.22-1.75.39-3.54.56-5.32,0-.54.11-1.08.17-1.63a14.5,14.5,0,0,0,4.25,1,4.39,4.39,0,0,0,3.34-1.56,2.09,2.09,0,0,0-.71-3c-1.57-.82-4.39.68-5.51,1.8-.09.08-1.11,1.36-1.36,1.7.13-1.19.26-2.38.45-3.55a36.25,36.25,0,0,1,1-4.68,14.59,14.59,0,0,0,4.27,1,4.36,4.36,0,0,0,3.34-1.56,2.1,2.1,0,0,0-.7-3c-1.58-.81-4.4.69-5.52,1.8-.09.09-1.19,1.47-1.38,1.74,0-.09.05-.19.08-.28a25.93,25.93,0,0,1,1.85-4.42c.4-.79.83-1.52,1.26-2.22a14.3,14.3,0,0,0,4.05,1.42,4.36,4.36,0,0,0,3.49-1.19,2.08,2.08,0,0,0-.37-3.09c-1.47-1-4.44.19-5.68,1.18-.07.05-.69.67-1.14,1.13l.6-.94c.74-1.11,1.49-2.09,2.16-2.95.38-.48.74-.91,1.08-1.31a14.13,14.13,0,0,0,4.22-.61,4.33,4.33,0,0,0,2.55-2.66,2.09,2.09,0,0,0-1.75-2.58c-1.76-.19-3.85,2.23-4.5,3.67-.05.13-.7,2.18-.66,2.18h0l-1.06,1.24c-.69.85-1.46,1.81-2.23,2.91a38.44,38.44,0,0,0-2.31,3.68,27.71,27.71,0,0,0-2,4.44s0,0,0,.06c0-.52,0-2,0-2.08-.21-1.57-1.52-4.48-3.26-4.8a2.09,2.09,0,0,0-2.42,2,4.4,4.4,0,0,0,1.68,3.28,14.31,14.31,0,0,0,4,1.81,37.1,37.1,0,0,0-1.16,4.81c-.17.95-.31,1.91-.44,2.88,0-.45,0-.85,0-.91-.21-1.57-1.52-4.48-3.26-4.8a2.1,2.1,0,0,0-2.42,2,4.39,4.39,0,0,0,1.68,3.28,14,14,0,0,0,3.85,1.78c0,.37-.09.74-.14,1.11-.21,1.77-.41,3.55-.67,5.28-.09.61-.2,1.21-.3,1.81,0-.4,0-.73,0-.78-.2-1.57-1.51-4.48-3.26-4.8a2.09,2.09,0,0,0-2.41,2,4.4,4.4,0,0,0,1.68,3.28,13.38,13.38,0,0,0,3.74,1.74c-.13.61-.26,1.22-.41,1.81-.11.39-.2.78-.33,1.18s-.25.78-.38,1.16c-.26.73-.53,1.49-.81,2.2-.19.49-.38,1-.57,1.43.1-.61.26-1.8.26-1.91a8.13,8.13,0,0,0-1.09-4,1.78,1.78,0,0,0,0-.46,2.09,2.09,0,0,0-2.56-1.78c-1.71.46-2.8,3.46-2.88,5,0,.1.06,1.11.11,1.75-.09-.37-.17-.73-.26-1.11-.18-.76-.38-1.51-.6-2.32-.11-.39-.23-.78-.35-1.17s-.28-.79-.42-1.2c-.33-.92-.72-1.84-1.13-2.76a13.86,13.86,0,0,0,3.94-1.48,4.39,4.39,0,0,0,1.93-3.15,2.1,2.1,0,0,0-2.27-2.14c-1.76.19-3.29,3-3.61,4.54,0,.1-.12,1.23-.16,1.86-.26-.55-.5-1.1-.78-1.65-.78-1.59-1.63-3.17-2.47-4.74l-.76-1.46A14.43,14.43,0,0,0,334,429a4.41,4.41,0,0,0,1.92-3.15,2.09,2.09,0,0,0-2.26-2.14c-1.77.19-3.29,3-3.61,4.54,0,.12-.17,1.76-.19,2.17-.56-1.06-1.1-2.13-1.59-3.21a37.22,37.22,0,0,1-1.73-4.46,14.94,14.94,0,0,0,4.12-1.52,4.41,4.41,0,0,0,1.92-3.15,2.09,2.09,0,0,0-2.26-2.14c-1.77.19-3.29,3-3.61,4.54,0,.12-.19,1.88-.19,2.2a2,2,0,0,1-.09-.26,27.56,27.56,0,0,1-.9-4.72c-.1-.87-.14-1.72-.17-2.55a13.73,13.73,0,0,0,4.16-1,4.38,4.38,0,0,0,2.26-2.92,2.1,2.1,0,0,0-2-2.38c-1.77,0-3.6,2.62-4.08,4.12,0,.09-.21,1-.33,1.58,0-.38,0-.76,0-1.12,0-1.34.09-2.56.18-3.65.05-.61.11-1.17.17-1.69a14.08,14.08,0,0,0,3.19-2.83,4.37,4.37,0,0,0,.66-3.63,2.1,2.1,0,0,0-2.89-1.19c-1.57.82-2,4-1.72,5.54,0,.14.61,2.21.64,2.19l0,0c-.07.5-.14,1-.2,1.62-.11,1.09-.22,2.31-.25,3.66a38,38,0,0,0,.1,4.34,27.11,27.11,0,0,0,.81,4.79.14.14,0,0,0,0,.06c-.28-.44-1.1-1.64-1.18-1.72-1-1.2-3.73-2.9-5.36-2.21a2.1,2.1,0,0,0-.93,3A4.36,4.36,0,0,0,321.76,423.41Z" style="fill:#263238"></path><path d="M352.13,415.09s.57-2.07.59-2.2c.21-1.57-.28-4.73-1.88-5.5a2.1,2.1,0,0,0-2.85,1.27,4.36,4.36,0,0,0,.76,3.61A15,15,0,0,0,352.13,415.09Z" style="fill:#263238"></path><path d="M154.88,412.46a15.69,15.69,0,0,0,4.59.5s-.7-2.13-.76-2.26c-.72-1.49-3-4-4.82-3.71a2.19,2.19,0,0,0-1.76,2.75A4.59,4.59,0,0,0,154.88,412.46Z" style="fill:#263238"></path><path d="M156,421.9a15.6,15.6,0,0,0,4.52-.71,39.85,39.85,0,0,0,1.77,4.88c.4.92.83,1.84,1.27,2.76-.26-.39-.5-.73-.54-.78-1.09-1.25-3.92-3-5.63-2.31a2.19,2.19,0,0,0-1,3.12,4.59,4.59,0,0,0,3.37,1.9,14.45,14.45,0,0,0,4.39-.68c.18.35.35.7.52,1.05.84,1.68,1.69,3.35,2.47,5,.28.59.53,1.18.78,1.76-.23-.34-.44-.63-.47-.67-1.09-1.25-3.92-3-5.63-2.31a2.19,2.19,0,0,0-1,3.12,4.58,4.58,0,0,0,3.37,1.89,13.7,13.7,0,0,0,4.27-.64c.24.61.48,1.22.69,1.82.13.41.29.8.39,1.22s.23.83.35,1.24c.19.79.39,1.61.56,2.39.12.54.22,1.06.33,1.58-.27-.59-.82-1.73-.88-1.82-.88-1.4-3.41-3.59-5.21-3.13a2.19,2.19,0,0,0-1.43,2.93,4.63,4.63,0,0,0,3,2.39,14.92,14.92,0,0,0,4.55,0c.17.87.33,1.71.47,2.5.29,1.62.51,3.08.68,4.34h1.21c-.21-1.31-.47-2.84-.81-4.54-.17-.88-.37-1.81-.59-2.77a22,22,0,0,0,2.54-1.19,16.44,16.44,0,0,0,3.7,2.39c-.33.81-.66,1.6-1,2.34-.61,1.41-1.2,2.67-1.72,3.77h1.3c.45-1,.93-2.12,1.43-3.34.34-.83.69-1.72,1-2.63a15.19,15.19,0,0,0,4.53.35,4.61,4.61,0,0,0,3.22-2.15,2.2,2.2,0,0,0-1.22-3c-1.76-.59-4.44,1.41-5.43,2.74-.06.08-.59,1-.92,1.6.14-.38.28-.74.42-1.13.28-.77.54-1.54.82-2.37.12-.4.24-.81.37-1.23s.22-.85.33-1.28c.24-1,.43-2,.6-3.08a14.58,14.58,0,0,0,4.31,1,4.58,4.58,0,0,0,3.5-1.64,2.19,2.19,0,0,0-.74-3.18c-1.65-.86-4.61.71-5.78,1.88-.07.08-.82,1-1.22,1.53.09-.63.2-1.25.27-1.89.23-1.84.41-3.71.59-5.58,0-.57.12-1.14.18-1.71a15,15,0,0,0,4.45,1.05A4.58,4.58,0,0,0,191,429a2.2,2.2,0,0,0-.74-3.19c-1.65-.85-4.61.72-5.78,1.89-.09.09-1.17,1.43-1.42,1.79.13-1.25.27-2.5.47-3.73a38,38,0,0,1,1.07-4.9,15.55,15.55,0,0,0,4.47,1.05,4.55,4.55,0,0,0,3.5-1.64,2.2,2.2,0,0,0-.73-3.18c-1.65-.85-4.61.72-5.79,1.88-.09.1-1.25,1.54-1.44,1.82,0-.09.05-.19.08-.28a28.2,28.2,0,0,1,1.94-4.64c.42-.83.87-1.6,1.33-2.33a14.76,14.76,0,0,0,4.24,1.49,4.62,4.62,0,0,0,3.66-1.24,2.2,2.2,0,0,0-.39-3.25c-1.55-1-4.66.21-6,1.24-.07.06-.73.71-1.2,1.19.21-.33.42-.68.63-1,.78-1.17,1.56-2.19,2.26-3.09.4-.51.78-1,1.13-1.38a14.6,14.6,0,0,0,4.43-.63,4.64,4.64,0,0,0,2.68-2.79,2.21,2.21,0,0,0-1.84-2.71c-1.85-.2-4,2.33-4.72,3.85,0,.13-.73,2.28-.7,2.28h0c-.35.4-.72.83-1.11,1.3-.72.89-1.53,1.9-2.34,3.06a40.75,40.75,0,0,0-2.42,3.85,29.18,29.18,0,0,0-2.07,4.66s0,0,0,.06c0-.54,0-2.07,0-2.18-.22-1.65-1.59-4.7-3.42-5a2.2,2.2,0,0,0-2.53,2.07,4.6,4.6,0,0,0,1.76,3.44,15.23,15.23,0,0,0,4.16,1.9,40,40,0,0,0-1.22,5.05c-.18,1-.32,2-.46,3,0-.47,0-.89,0-1-.22-1.64-1.59-4.69-3.42-5a2.19,2.19,0,0,0-2.53,2.07,4.61,4.61,0,0,0,1.76,3.44,14.89,14.89,0,0,0,4,1.86l-.15,1.16c-.22,1.87-.44,3.73-.7,5.54-.09.65-.21,1.27-.32,1.9,0-.42,0-.77,0-.82-.21-1.65-1.59-4.7-3.41-5a2.19,2.19,0,0,0-2.54,2.06A4.59,4.59,0,0,0,177,438.3a13.8,13.8,0,0,0,3.92,1.82c-.14.64-.27,1.29-.43,1.9-.12.42-.21.83-.35,1.24l-.39,1.22c-.28.77-.57,1.56-.86,2.3-.2.52-.39,1-.59,1.5.1-.64.27-1.89.27-2a8.47,8.47,0,0,0-1.14-4.16,3.87,3.87,0,0,0,0-.48,2.21,2.21,0,0,0-2.69-1.87c-1.79.48-2.93,3.63-3,5.29,0,.1.06,1.16.11,1.83-.09-.39-.17-.77-.27-1.17-.19-.79-.4-1.58-.62-2.42-.12-.41-.25-.82-.37-1.23s-.29-.84-.44-1.26c-.35-1-.76-1.93-1.19-2.9a14.25,14.25,0,0,0,4.14-1.55,4.59,4.59,0,0,0,2-3.3,2.19,2.19,0,0,0-2.37-2.25c-1.84.21-3.45,3.15-3.78,4.77,0,.1-.13,1.29-.18,2-.26-.58-.52-1.16-.81-1.73-.82-1.66-1.71-3.32-2.59-5-.27-.5-.53-1-.79-1.52a15.49,15.49,0,0,0,4.29-1.59,4.57,4.57,0,0,0,2-3.29,2.19,2.19,0,0,0-2.37-2.25c-1.85.2-3.45,3.14-3.78,4.76,0,.12-.18,1.84-.2,2.28-.58-1.12-1.15-2.24-1.67-3.37a38.51,38.51,0,0,1-1.81-4.68,15.73,15.73,0,0,0,4.32-1.59,4.61,4.61,0,0,0,2-3.3,2.2,2.2,0,0,0-2.37-2.25c-1.85.2-3.45,3.14-3.78,4.77,0,.12-.2,2-.2,2.31,0-.1-.07-.19-.1-.28a29.53,29.53,0,0,1-.94-4.94c-.1-.93-.15-1.81-.18-2.68a14.61,14.61,0,0,0,4.36-1.09,4.65,4.65,0,0,0,2.37-3.06,2.21,2.21,0,0,0-2.11-2.5c-1.86,0-3.77,2.75-4.29,4.32,0,.09-.21,1-.34,1.65,0-.39,0-.79,0-1.16,0-1.41.09-2.69.18-3.83.05-.65.11-1.23.18-1.78a14.69,14.69,0,0,0,3.34-3,4.57,4.57,0,0,0,.69-3.8,2.19,2.19,0,0,0-3-1.24c-1.65.85-2.08,4.17-1.81,5.81,0,.14.64,2.31.67,2.29l0,0c-.08.53-.15,1.09-.21,1.71-.12,1.13-.23,2.42-.27,3.83a41.8,41.8,0,0,0,.11,4.55,29,29,0,0,0,.84,5,.14.14,0,0,1,0,.06c-.29-.46-1.15-1.72-1.23-1.81-1.08-1.25-3.91-3-5.62-2.31a2.2,2.2,0,0,0-1,3.12A4.61,4.61,0,0,0,156,421.9Z" style="fill:#263238"></path><path d="M187.84,413.17s.59-2.16.61-2.3c.23-1.65-.29-4.95-2-5.76a2.2,2.2,0,0,0-3,1.32,4.59,4.59,0,0,0,.79,3.78A15.49,15.49,0,0,0,187.84,413.17Z" style="fill:#263238"></path><path d="M125,428.89a9.76,9.76,0,0,0,2.8.31s-.42-1.3-.46-1.38c-.44-.92-1.82-2.43-3-2.28a1.34,1.34,0,0,0-1.07,1.69A2.79,2.79,0,0,0,125,428.89Z" style="fill:#263238"></path><path d="M125.63,434.66a9.14,9.14,0,0,0,2.77-.44,23.34,23.34,0,0,0,1.08,3c.24.56.5,1.13.78,1.69-.17-.24-.31-.45-.34-.48-.66-.76-2.39-1.86-3.44-1.41a1.34,1.34,0,0,0-.59,1.91,2.77,2.77,0,0,0,2.06,1.15,8.39,8.39,0,0,0,2.68-.41l.32.64c.52,1,1,2.05,1.51,3.07.17.36.32.71.48,1.07l-.29-.41c-.66-.77-2.4-1.86-3.44-1.41a1.35,1.35,0,0,0-.6,1.91,2.82,2.82,0,0,0,2.06,1.15,8.55,8.55,0,0,0,2.62-.39c.14.37.29.75.42,1.11s.17.49.24.75l.21.76c.11.48.24,1,.34,1.46.07.33.14.64.2,1-.16-.36-.5-1.05-.53-1.11-.54-.85-2.09-2.2-3.19-1.91a1.34,1.34,0,0,0-.88,1.79,2.84,2.84,0,0,0,1.86,1.46,9.36,9.36,0,0,0,2.79,0c.1.53.2,1,.28,1.53.18,1,.31,1.88.42,2.65h.74c-.13-.8-.29-1.74-.49-2.78-.11-.53-.23-1.1-.36-1.69a13.22,13.22,0,0,0,1.55-.73,9.72,9.72,0,0,0,2.26,1.46c-.2.5-.41,1-.6,1.43q-.57,1.31-1.05,2.31h.79c.28-.61.57-1.29.88-2,.2-.51.42-1.05.63-1.61a9.19,9.19,0,0,0,2.77.21,2.79,2.79,0,0,0,2-1.31,1.35,1.35,0,0,0-.74-1.86c-1.08-.36-2.72.86-3.32,1.68,0,.05-.37.61-.57,1l.26-.69c.17-.47.33-.94.5-1.44.07-.25.15-.5.22-.76s.14-.52.21-.78c.14-.62.26-1.25.37-1.88a8.58,8.58,0,0,0,2.63.6,2.81,2.81,0,0,0,2.14-1,1.35,1.35,0,0,0-.45-1.95c-1-.52-2.82.44-3.54,1.16l-.75.93c.06-.38.13-.76.17-1.15.14-1.13.25-2.27.36-3.41,0-.35.07-.7.11-1a9.16,9.16,0,0,0,2.72.64,2.78,2.78,0,0,0,2.14-1,1.34,1.34,0,0,0-.45-1.95c-1-.52-2.82.44-3.53,1.15-.06.06-.72.88-.87,1.1.08-.77.17-1.53.28-2.28a23.81,23.81,0,0,1,.66-3,9.2,9.2,0,0,0,2.73.65,2.79,2.79,0,0,0,2.14-1,1.33,1.33,0,0,0-.45-1.94c-1-.52-2.81.44-3.53,1.15-.06.06-.77.94-.88,1.11,0-.06,0-.12,0-.17a16.92,16.92,0,0,1,1.19-2.84c.26-.5.53-1,.81-1.42a9,9,0,0,0,2.59.91,2.81,2.81,0,0,0,2.24-.76,1.35,1.35,0,0,0-.23-2c-1-.62-2.85.13-3.65.76,0,0-.44.43-.72.73.12-.2.25-.41.38-.6.47-.72.95-1.34,1.38-1.89.25-.32.48-.59.69-.85a9,9,0,0,0,2.71-.38,2.78,2.78,0,0,0,1.63-1.71,1.33,1.33,0,0,0-1.12-1.65c-1.13-.12-2.47,1.42-2.88,2.35,0,.08-.45,1.39-.43,1.39h0l-.69.8c-.44.54-.93,1.16-1.42,1.87a22.16,22.16,0,0,0-1.48,2.35,18.08,18.08,0,0,0-1.27,2.85.08.08,0,0,1,0,0c0-.34,0-1.27,0-1.34-.13-1-1-2.87-2.08-3.08a1.35,1.35,0,0,0-1.55,1.27,2.79,2.79,0,0,0,1.07,2.1,9.24,9.24,0,0,0,2.55,1.16,23.23,23.23,0,0,0-.75,3.09c-.11.6-.2,1.22-.28,1.84,0-.29,0-.55,0-.58-.13-1-1-2.88-2.09-3.08a1.34,1.34,0,0,0-1.55,1.26,2.76,2.76,0,0,0,1.08,2.1,8.44,8.44,0,0,0,2.47,1.14c0,.24-.07.48-.09.71-.14,1.14-.27,2.28-.43,3.39-.06.39-.13.78-.2,1.16,0-.25,0-.47,0-.5-.13-1-1-2.87-2.09-3.08a1.34,1.34,0,0,0-1.55,1.26,2.8,2.8,0,0,0,1.08,2.11,8.6,8.6,0,0,0,2.39,1.11c-.08.39-.16.78-.26,1.16s-.13.51-.21.76l-.24.74c-.17.47-.35,1-.52,1.41s-.25.61-.37.92c.06-.39.17-1.16.17-1.22a5.34,5.34,0,0,0-.7-2.54,1.51,1.51,0,0,0,0-.3,1.34,1.34,0,0,0-1.64-1.14c-1.1.3-1.79,2.22-1.85,3.23,0,.06,0,.71.07,1.12,0-.23-.1-.47-.16-.71-.12-.49-.25-1-.39-1.48-.07-.25-.15-.5-.22-.76s-.18-.5-.27-.76c-.21-.6-.46-1.19-.73-1.78a8.72,8.72,0,0,0,2.53-.94,2.85,2.85,0,0,0,1.24-2,1.35,1.35,0,0,0-1.46-1.37c-1.12.12-2.1,1.92-2.31,2.91,0,.06-.08.79-.11,1.19-.16-.35-.32-.71-.49-1.06-.51-1-1-2-1.58-3-.17-.31-.33-.62-.49-.93a9.09,9.09,0,0,0,2.62-1,2.78,2.78,0,0,0,1.23-2,1.34,1.34,0,0,0-1.45-1.38c-1.12.12-2.1,1.92-2.31,2.91,0,.08-.11,1.13-.12,1.39-.36-.68-.7-1.36-1-2.05a23.55,23.55,0,0,1-1.11-2.87,9.27,9.27,0,0,0,2.64-1,2.78,2.78,0,0,0,1.23-2,1.34,1.34,0,0,0-1.45-1.38c-1.13.12-2.1,1.92-2.31,2.91,0,.08-.12,1.21-.12,1.42l-.06-.18a16.84,16.84,0,0,1-.57-3,15.39,15.39,0,0,1-.11-1.63,8.81,8.81,0,0,0,2.66-.67,2.79,2.79,0,0,0,1.45-1.87,1.34,1.34,0,0,0-1.29-1.52c-1.14,0-2.31,1.67-2.62,2.64,0,.05-.13.6-.21,1,0-.23,0-.48,0-.71,0-.86.06-1.64.11-2.34,0-.39.07-.75.11-1.08a9.3,9.3,0,0,0,2-1.82,2.83,2.83,0,0,0,.42-2.32,1.34,1.34,0,0,0-1.85-.76c-1,.52-1.27,2.55-1.11,3.55,0,.08.4,1.41.42,1.4l0,0c-.05.32-.09.67-.13,1-.07.7-.14,1.49-.16,2.35a22,22,0,0,0,.06,2.78,17.14,17.14,0,0,0,.52,3.07v0c-.18-.28-.7-1.05-.75-1.1-.66-.77-2.4-1.86-3.44-1.42a1.35,1.35,0,0,0-.6,1.91A2.83,2.83,0,0,0,125.63,434.66Z" style="fill:#263238"></path><path d="M145.1,429.33s.36-1.33.37-1.41c.14-1-.18-3-1.2-3.52a1.34,1.34,0,0,0-1.83.81,2.83,2.83,0,0,0,.48,2.31A9.73,9.73,0,0,0,145.1,429.33Z" style="fill:#263238"></path><path d="M425.27,428.89a9.85,9.85,0,0,0,2.81.31s-.43-1.3-.46-1.38c-.44-.92-1.82-2.43-2.95-2.28a1.35,1.35,0,0,0-1.08,1.69A2.84,2.84,0,0,0,425.27,428.89Z" style="fill:#263238"></path><path d="M426,434.66a9.14,9.14,0,0,0,2.77-.44,24.89,24.89,0,0,0,1.07,3c.25.56.51,1.13.78,1.69-.16-.24-.3-.45-.33-.48-.66-.76-2.39-1.86-3.44-1.41a1.34,1.34,0,0,0-.59,1.91,2.77,2.77,0,0,0,2.06,1.15,8.39,8.39,0,0,0,2.68-.41l.32.64c.52,1,1,2.05,1.51,3.07.17.36.32.71.48,1.07L433,444c-.67-.77-2.4-1.86-3.44-1.41a1.35,1.35,0,0,0-.6,1.91,2.82,2.82,0,0,0,2.06,1.15,8.55,8.55,0,0,0,2.62-.39c.14.37.29.75.42,1.11s.17.49.24.75l.21.76c.11.48.24,1,.34,1.46.07.33.14.64.2,1-.16-.36-.5-1.05-.53-1.11-.54-.85-2.09-2.2-3.19-1.91a1.34,1.34,0,0,0-.88,1.79,2.84,2.84,0,0,0,1.86,1.46,9.36,9.36,0,0,0,2.79,0c.1.53.2,1,.28,1.53.18,1,.31,1.88.42,2.65h.74c-.13-.8-.29-1.74-.5-2.78-.1-.53-.22-1.1-.36-1.69a12.36,12.36,0,0,0,1.56-.73,9.72,9.72,0,0,0,2.26,1.46c-.2.5-.41,1-.6,1.43-.38.87-.73,1.64-1.06,2.31h.8c.27-.61.57-1.29.88-2,.2-.51.42-1.05.63-1.61a9.19,9.19,0,0,0,2.77.21,2.79,2.79,0,0,0,2-1.31,1.35,1.35,0,0,0-.75-1.86c-1.07-.36-2.71.86-3.32,1.68,0,.05-.36.61-.56,1l.26-.69c.17-.47.33-.94.5-1.44.07-.25.15-.5.22-.76s.14-.52.21-.78c.14-.62.26-1.25.37-1.88a8.58,8.58,0,0,0,2.63.6,2.81,2.81,0,0,0,2.14-1,1.35,1.35,0,0,0-.45-1.95c-1-.52-2.82.44-3.54,1.16l-.75.93c.06-.38.13-.76.17-1.15.14-1.13.25-2.27.36-3.41,0-.35.07-.7.11-1a9.16,9.16,0,0,0,2.72.64,2.8,2.8,0,0,0,2.14-1,1.34,1.34,0,0,0-.45-1.95c-1-.52-2.82.44-3.54,1.15,0,.06-.71.88-.86,1.1.08-.77.17-1.53.28-2.28a23.81,23.81,0,0,1,.66-3,9.2,9.2,0,0,0,2.73.65,2.79,2.79,0,0,0,2.14-1,1.33,1.33,0,0,0-.45-1.94c-1-.52-2.81.44-3.53,1.15-.06.06-.77.94-.88,1.11a.85.85,0,0,1,0-.17,16.92,16.92,0,0,1,1.19-2.84c.26-.5.53-1,.81-1.42a9,9,0,0,0,2.59.91,2.81,2.81,0,0,0,2.24-.76,1.34,1.34,0,0,0-.24-2c-.94-.62-2.84.13-3.64.76l-.73.73.39-.6c.47-.72.95-1.34,1.38-1.89.25-.32.48-.59.69-.85a9,9,0,0,0,2.71-.38,2.81,2.81,0,0,0,1.63-1.71,1.33,1.33,0,0,0-1.12-1.65c-1.13-.12-2.47,1.42-2.88,2.35,0,.08-.45,1.39-.43,1.39h0l-.68.8c-.44.54-.93,1.16-1.42,1.87a22.16,22.16,0,0,0-1.48,2.35,17.21,17.21,0,0,0-1.27,2.85.08.08,0,0,1,0,0c0-.34,0-1.27,0-1.34-.13-1-1-2.87-2.08-3.08a1.35,1.35,0,0,0-1.55,1.27,2.79,2.79,0,0,0,1.07,2.1,9.24,9.24,0,0,0,2.55,1.16,23.23,23.23,0,0,0-.75,3.09c-.11.6-.2,1.22-.28,1.84,0-.29,0-.55,0-.58-.13-1-1-2.88-2.09-3.08a1.34,1.34,0,0,0-1.55,1.26,2.76,2.76,0,0,0,1.08,2.1,8.51,8.51,0,0,0,2.46,1.14c0,.24-.06.48-.08.71-.14,1.14-.27,2.28-.43,3.39-.06.39-.13.78-.2,1.16,0-.25,0-.47,0-.5-.13-1-1-2.87-2.08-3.08a1.34,1.34,0,0,0-1.55,1.26,2.8,2.8,0,0,0,1.08,2.11,8.6,8.6,0,0,0,2.39,1.11c-.08.39-.16.78-.26,1.16s-.13.51-.21.76l-.24.74c-.17.47-.35,1-.53,1.41s-.24.61-.36.92c.06-.39.17-1.16.17-1.22A5.34,5.34,0,0,0,439,447a1.51,1.51,0,0,0,0-.3,1.34,1.34,0,0,0-1.64-1.14c-1.1.3-1.79,2.22-1.85,3.23,0,.06,0,.71.07,1.12,0-.23-.11-.47-.17-.71-.11-.49-.24-1-.38-1.48-.07-.25-.15-.5-.22-.76s-.18-.5-.27-.76c-.22-.6-.46-1.19-.73-1.78a8.72,8.72,0,0,0,2.53-.94,2.8,2.8,0,0,0,1.23-2,1.33,1.33,0,0,0-1.45-1.37c-1.12.12-2.1,1.92-2.31,2.91,0,.06-.08.79-.11,1.19-.16-.35-.32-.71-.49-1.06-.51-1-1.05-2-1.58-3-.17-.31-.33-.62-.49-.93a9.09,9.09,0,0,0,2.62-1,2.78,2.78,0,0,0,1.23-2,1.34,1.34,0,0,0-1.45-1.38c-1.13.12-2.1,1.92-2.31,2.91,0,.08-.11,1.13-.12,1.39-.36-.68-.7-1.36-1-2.05a23.55,23.55,0,0,1-1.11-2.87,9.27,9.27,0,0,0,2.64-1,2.78,2.78,0,0,0,1.23-2,1.34,1.34,0,0,0-1.45-1.38c-1.13.12-2.1,1.92-2.31,2.91,0,.08-.12,1.21-.12,1.42l-.06-.18a16.84,16.84,0,0,1-.57-3,15.39,15.39,0,0,1-.11-1.63,8.81,8.81,0,0,0,2.66-.67,2.79,2.79,0,0,0,1.45-1.87,1.34,1.34,0,0,0-1.29-1.52c-1.14,0-2.31,1.67-2.62,2.64,0,.05-.13.6-.21,1,0-.23,0-.48,0-.71,0-.86.06-1.64.11-2.34,0-.39.07-.75.11-1.08a9.3,9.3,0,0,0,2.05-1.82,2.83,2.83,0,0,0,.42-2.32,1.34,1.34,0,0,0-1.85-.76c-1,.52-1.27,2.55-1.11,3.55,0,.08.4,1.41.42,1.4l0,0c-.05.32-.09.67-.13,1-.07.7-.14,1.49-.16,2.35a22,22,0,0,0,.06,2.78,17.14,17.14,0,0,0,.52,3.07v0c-.18-.28-.7-1.05-.75-1.1-.66-.77-2.4-1.86-3.44-1.42a1.35,1.35,0,0,0-.6,1.91A2.83,2.83,0,0,0,426,434.66Z" style="fill:#263238"></path><path d="M445.42,429.33s.37-1.33.38-1.41c.14-1-.18-3-1.2-3.52a1.34,1.34,0,0,0-1.83.81,2.83,2.83,0,0,0,.48,2.31A10,10,0,0,0,445.42,429.33Z" style="fill:#263238"></path><path d="M380.65,428.89a9.76,9.76,0,0,0,2.8.31s-.42-1.3-.46-1.38c-.44-.92-1.82-2.43-2.95-2.28a1.34,1.34,0,0,0-1.07,1.69A2.79,2.79,0,0,0,380.65,428.89Z" style="fill:#263238"></path><path d="M381.33,434.66a9.14,9.14,0,0,0,2.77-.44,23.34,23.34,0,0,0,1.08,3c.24.56.5,1.13.78,1.69-.17-.24-.31-.45-.34-.48-.66-.76-2.39-1.86-3.44-1.41a1.34,1.34,0,0,0-.59,1.91,2.77,2.77,0,0,0,2.06,1.15,8.39,8.39,0,0,0,2.68-.41l.32.64c.52,1,1,2.05,1.51,3.07.17.36.32.71.48,1.07l-.29-.41c-.66-.77-2.4-1.86-3.44-1.41a1.35,1.35,0,0,0-.6,1.91,2.82,2.82,0,0,0,2.06,1.15,8.55,8.55,0,0,0,2.62-.39c.14.37.29.75.42,1.11s.17.49.24.75l.21.76c.12.48.24,1,.34,1.46.07.33.14.64.2,1-.16-.36-.5-1.05-.53-1.11-.54-.85-2.09-2.2-3.19-1.91a1.33,1.33,0,0,0-.87,1.79,2.79,2.79,0,0,0,1.86,1.46,9.3,9.3,0,0,0,2.78,0c.1.53.2,1,.29,1.53.17,1,.3,1.88.41,2.65h.74c-.13-.8-.29-1.74-.49-2.78-.11-.53-.23-1.1-.36-1.69a13.22,13.22,0,0,0,1.55-.73,9.72,9.72,0,0,0,2.26,1.46c-.2.5-.4,1-.6,1.43q-.57,1.31-1.05,2.31H394c.28-.61.57-1.29.88-2,.21-.51.42-1.05.63-1.61a9.19,9.19,0,0,0,2.77.21,2.79,2.79,0,0,0,2-1.31,1.35,1.35,0,0,0-.74-1.86c-1.08-.36-2.72.86-3.32,1.68,0,.05-.37.61-.57,1l.26-.69c.17-.47.33-.94.5-1.44.07-.25.15-.5.23-.76s.13-.52.2-.78c.14-.62.26-1.25.37-1.88a8.58,8.58,0,0,0,2.63.6,2.8,2.8,0,0,0,2.14-1,1.34,1.34,0,0,0-.45-1.95c-1-.52-2.82.44-3.54,1.16l-.75.93c.07-.38.13-.76.18-1.15.14-1.13.24-2.27.35-3.41,0-.35.07-.7.11-1a9.16,9.16,0,0,0,2.72.64,2.78,2.78,0,0,0,2.14-1,1.34,1.34,0,0,0-.45-1.95c-1-.52-2.82.44-3.53,1.15-.06.06-.72.88-.87,1.1.08-.77.17-1.53.28-2.28a23.81,23.81,0,0,1,.66-3,9.37,9.37,0,0,0,2.74.65,2.82,2.82,0,0,0,2.14-1,1.34,1.34,0,0,0-.46-1.94c-1-.52-2.81.44-3.53,1.15-.06.06-.76.94-.88,1.11a1.36,1.36,0,0,0,0-.17A18.76,18.76,0,0,1,400,431c.26-.5.53-1,.81-1.42a9.08,9.08,0,0,0,2.59.91,2.81,2.81,0,0,0,2.24-.76,1.35,1.35,0,0,0-.23-2c-.95-.62-2.85.13-3.64.76-.05,0-.45.43-.73.73.12-.2.25-.41.38-.6.47-.72.95-1.34,1.38-1.89.25-.32.48-.59.69-.85a9,9,0,0,0,2.71-.38,2.83,2.83,0,0,0,1.64-1.71,1.34,1.34,0,0,0-1.13-1.65c-1.13-.12-2.47,1.42-2.88,2.35,0,.08-.45,1.39-.43,1.39h0l-.68.8c-.45.54-.94,1.16-1.43,1.87a22.16,22.16,0,0,0-1.48,2.35,18.08,18.08,0,0,0-1.27,2.85.08.08,0,0,1,0,0c0-.34,0-1.27,0-1.34-.13-1-1-2.87-2.09-3.08a1.35,1.35,0,0,0-1.55,1.27,2.76,2.76,0,0,0,1.08,2.1,9.09,9.09,0,0,0,2.54,1.16,24.9,24.9,0,0,0-.75,3.09c-.1.6-.19,1.22-.28,1.84,0-.29,0-.55,0-.58-.13-1-1-2.88-2.09-3.08a1.34,1.34,0,0,0-1.55,1.26,2.76,2.76,0,0,0,1.08,2.1,8.44,8.44,0,0,0,2.47,1.14c0,.24-.07.48-.09.71-.14,1.14-.27,2.28-.43,3.39-.06.39-.13.78-.2,1.16,0-.25,0-.47,0-.5-.13-1-1-2.87-2.09-3.08a1.34,1.34,0,0,0-1.55,1.26,2.8,2.8,0,0,0,1.08,2.11,8.6,8.6,0,0,0,2.39,1.11c-.08.39-.16.78-.26,1.16s-.12.51-.21.76l-.24.74c-.17.47-.35,1-.52,1.41s-.25.61-.37.92c.06-.39.17-1.16.17-1.22a5.22,5.22,0,0,0-.7-2.54,1.51,1.51,0,0,0,0-.3,1.34,1.34,0,0,0-1.64-1.14c-1.1.3-1.79,2.22-1.85,3.23,0,.06,0,.71.07,1.12,0-.23-.1-.47-.16-.71-.12-.49-.25-1-.38-1.48-.08-.25-.16-.5-.23-.76s-.18-.5-.27-.76c-.21-.6-.46-1.19-.73-1.78a8.72,8.72,0,0,0,2.53-.94,2.85,2.85,0,0,0,1.24-2,1.34,1.34,0,0,0-1.45-1.37c-1.13.12-2.11,1.92-2.32,2.91,0,.06-.08.79-.11,1.19-.16-.35-.32-.71-.49-1.06-.51-1-1-2-1.58-3-.17-.31-.33-.62-.49-.93a9.09,9.09,0,0,0,2.62-1,2.78,2.78,0,0,0,1.23-2,1.34,1.34,0,0,0-1.45-1.38c-1.12.12-2.1,1.92-2.31,2.91,0,.08-.11,1.13-.12,1.39-.35-.68-.7-1.36-1-2.05a25.3,25.3,0,0,1-1.11-2.87,9.27,9.27,0,0,0,2.64-1,2.78,2.78,0,0,0,1.23-2,1.34,1.34,0,0,0-1.45-1.38c-1.12.12-2.1,1.92-2.31,2.91,0,.08-.12,1.21-.12,1.42l-.06-.18a17.77,17.77,0,0,1-.57-3c-.07-.56-.09-1.1-.11-1.63a8.81,8.81,0,0,0,2.66-.67,2.79,2.79,0,0,0,1.45-1.87,1.34,1.34,0,0,0-1.29-1.52c-1.14,0-2.31,1.67-2.62,2.64,0,.05-.13.6-.21,1,0-.23,0-.48,0-.71,0-.86.06-1.64.11-2.34,0-.39.07-.75.11-1.08a9.3,9.3,0,0,0,2.05-1.82,2.83,2.83,0,0,0,.42-2.32,1.34,1.34,0,0,0-1.85-.76c-1,.52-1.27,2.55-1.11,3.55,0,.08.4,1.41.42,1.4l0,0c-.05.32-.09.67-.13,1-.07.7-.14,1.49-.16,2.35a24,24,0,0,0,.06,2.78,17.14,17.14,0,0,0,.52,3.07v0c-.18-.28-.7-1.05-.75-1.1-.66-.77-2.4-1.86-3.44-1.42a1.35,1.35,0,0,0-.6,1.91A2.83,2.83,0,0,0,381.33,434.66Z" style="fill:#263238"></path><path d="M400.8,429.33s.36-1.33.37-1.41c.14-1-.18-3-1.2-3.52a1.34,1.34,0,0,0-1.83.81,2.79,2.79,0,0,0,.49,2.31A9.53,9.53,0,0,0,400.8,429.33Z" style="fill:#263238"></path><path d="M95.69,428.89a9.85,9.85,0,0,0,2.81.31s-.43-1.3-.46-1.38c-.44-.92-1.82-2.43-3-2.28A1.35,1.35,0,0,0,94,427.23,2.84,2.84,0,0,0,95.69,428.89Z" style="fill:#263238"></path><path d="M96.38,434.66a9.2,9.2,0,0,0,2.77-.44,23.27,23.27,0,0,0,1.07,3c.25.56.51,1.13.78,1.69l-.33-.48c-.66-.76-2.39-1.86-3.44-1.41a1.34,1.34,0,0,0-.59,1.91,2.77,2.77,0,0,0,2.06,1.15,8.39,8.39,0,0,0,2.68-.41l.32.64c.51,1,1,2.05,1.51,3.07.17.36.32.71.48,1.07l-.29-.41c-.67-.77-2.4-1.86-3.44-1.41a1.34,1.34,0,0,0-.6,1.91,2.82,2.82,0,0,0,2.06,1.15,8.44,8.44,0,0,0,2.61-.39c.15.37.3.75.42,1.11s.18.49.25.75l.21.76c.11.48.24,1,.34,1.46.07.33.13.64.2,1-.16-.36-.5-1.05-.53-1.11-.54-.85-2.09-2.2-3.19-1.91a1.34,1.34,0,0,0-.88,1.79,2.84,2.84,0,0,0,1.86,1.46,9.29,9.29,0,0,0,2.78,0c.11.53.21,1,.29,1.53.18,1,.31,1.88.42,2.65h.74c-.13-.8-.29-1.74-.5-2.78-.1-.53-.22-1.1-.36-1.69a12.36,12.36,0,0,0,1.56-.73A9.52,9.52,0,0,0,109.9,451l-.6,1.43c-.38.87-.74,1.64-1.06,2.31h.8c.27-.61.57-1.29.87-2,.21-.51.42-1.05.64-1.61a9.19,9.19,0,0,0,2.77.21,2.77,2.77,0,0,0,2-1.31,1.34,1.34,0,0,0-.74-1.86c-1.07-.36-2.71.86-3.32,1.68,0,.05-.36.61-.56,1l.26-.69c.17-.47.33-.94.5-1.44.07-.25.15-.5.22-.76s.14-.52.2-.78c.15-.62.27-1.25.37-1.88a8.65,8.65,0,0,0,2.64.6,2.81,2.81,0,0,0,2.14-1,1.35,1.35,0,0,0-.45-1.95c-1-.52-2.82.44-3.54,1.16l-.75.93c.06-.38.12-.76.17-1.15.14-1.13.25-2.27.36-3.41,0-.35.07-.7.11-1a9.07,9.07,0,0,0,2.72.64,2.8,2.8,0,0,0,2.14-1,1.34,1.34,0,0,0-.45-1.95c-1-.52-2.82.44-3.54,1.15-.05.06-.71.88-.86,1.1.08-.77.16-1.53.28-2.28a23.81,23.81,0,0,1,.66-3,9.2,9.2,0,0,0,2.73.65,2.79,2.79,0,0,0,2.14-1,1.33,1.33,0,0,0-.45-1.94c-1-.52-2.82.44-3.53,1.15-.06.06-.77.94-.88,1.11a.85.85,0,0,1,0-.17,16.92,16.92,0,0,1,1.19-2.84c.26-.5.53-1,.81-1.42a9,9,0,0,0,2.59.91,2.81,2.81,0,0,0,2.24-.76,1.35,1.35,0,0,0-.24-2c-.94-.62-2.84.13-3.64.76l-.73.73.39-.6c.47-.72,1-1.34,1.38-1.89.25-.32.47-.59.69-.85a9,9,0,0,0,2.71-.38,2.81,2.81,0,0,0,1.63-1.71,1.34,1.34,0,0,0-1.12-1.65c-1.13-.12-2.47,1.42-2.88,2.35,0,.08-.45,1.39-.43,1.39h0l-.68.8c-.44.54-.93,1.16-1.42,1.87a22.16,22.16,0,0,0-1.48,2.35,17.21,17.21,0,0,0-1.27,2.85s0,0,0,0c0-.34,0-1.27,0-1.34-.13-1-1-2.87-2.09-3.08a1.36,1.36,0,0,0-1.55,1.27,2.83,2.83,0,0,0,1.08,2.1,9.24,9.24,0,0,0,2.55,1.16,23.23,23.23,0,0,0-.75,3.09c-.11.6-.2,1.22-.28,1.84,0-.29,0-.55,0-.58-.14-1-1-2.88-2.09-3.08a1.34,1.34,0,0,0-1.55,1.26,2.76,2.76,0,0,0,1.08,2.1,8.51,8.51,0,0,0,2.46,1.14l-.09.71c-.13,1.14-.26,2.28-.43,3.39,0,.39-.12.78-.19,1.16,0-.25,0-.47,0-.5-.13-1-1-2.87-2.09-3.08a1.33,1.33,0,0,0-1.54,1.26,2.82,2.82,0,0,0,1.07,2.11,8.78,8.78,0,0,0,2.4,1.11c-.08.39-.16.78-.26,1.16s-.13.51-.21.76-.17.5-.24.74c-.18.47-.35,1-.53,1.41s-.24.61-.36.92c.06-.39.17-1.16.17-1.22a5.34,5.34,0,0,0-.7-2.54c0-.1,0-.2,0-.3a1.35,1.35,0,0,0-1.64-1.14c-1.1.3-1.8,2.22-1.85,3.23,0,.06,0,.71.07,1.12-.06-.23-.11-.47-.17-.71-.11-.49-.24-1-.38-1.48-.07-.25-.15-.5-.22-.76s-.18-.5-.27-.76c-.22-.6-.46-1.19-.73-1.78a8.72,8.72,0,0,0,2.53-.94,2.8,2.8,0,0,0,1.23-2,1.33,1.33,0,0,0-1.45-1.37c-1.13.12-2.1,1.92-2.31,2.91,0,.06-.08.79-.11,1.19-.16-.35-.32-.71-.49-1.06-.51-1-1-2-1.59-3l-.48-.93a9.2,9.2,0,0,0,2.62-1,2.78,2.78,0,0,0,1.23-2,1.34,1.34,0,0,0-1.45-1.38c-1.13.12-2.11,1.92-2.31,2.91,0,.08-.11,1.13-.12,1.39-.36-.68-.7-1.36-1-2.05a23.55,23.55,0,0,1-1.11-2.87,9.27,9.27,0,0,0,2.64-1,2.78,2.78,0,0,0,1.23-2,1.34,1.34,0,0,0-1.45-1.38c-1.13.12-2.11,1.92-2.31,2.91,0,.08-.12,1.21-.12,1.42l-.06-.18a16.84,16.84,0,0,1-.57-3,15.39,15.39,0,0,1-.11-1.63,8.88,8.88,0,0,0,2.66-.67,2.79,2.79,0,0,0,1.45-1.87,1.34,1.34,0,0,0-1.29-1.52c-1.14,0-2.31,1.67-2.62,2.64,0,.05-.13.6-.21,1,0-.23,0-.48,0-.71,0-.86.06-1.64.11-2.34,0-.39.07-.75.11-1.08a9.3,9.3,0,0,0,2-1.82,2.83,2.83,0,0,0,.42-2.32,1.34,1.34,0,0,0-1.85-.76c-1,.52-1.28,2.55-1.11,3.55,0,.08.4,1.41.41,1.4l0,0c0,.32-.08.67-.12,1-.07.7-.14,1.49-.16,2.35a22,22,0,0,0,.06,2.78,17.14,17.14,0,0,0,.52,3.07v0c-.18-.28-.71-1.05-.75-1.1-.67-.77-2.4-1.86-3.44-1.42a1.34,1.34,0,0,0-.6,1.91A2.83,2.83,0,0,0,96.38,434.66Z" style="fill:#263238"></path><path d="M115.84,429.33s.37-1.33.38-1.41c.14-1-.18-3-1.2-3.52a1.34,1.34,0,0,0-1.83.81,2.79,2.79,0,0,0,.48,2.31A10,10,0,0,0,115.84,429.33Z" style="fill:#263238"></path></g><g id="Trees"><path d="M124.65,318s39-22.39,82.94-22.73a89.26,89.26,0,0,0,15.91-50.81c0-51.46-44.05-93.18-98.39-93.18S26.72,193,26.72,244.49a89.24,89.24,0,0,0,16.14,51.14C60.6,297.32,106.85,303,124.65,318Z" style="fill:#92E3A9"></path><path d="M124.65,318s39-22.39,82.94-22.73a89.26,89.26,0,0,0,15.91-50.81c0-51.46-44.05-93.18-98.39-93.18S26.72,193,26.72,244.49a89.24,89.24,0,0,0,16.14,51.14C60.6,297.32,106.85,303,124.65,318Z" style="fill:#fff;opacity:0.30000000000000004"></path><path d="M176.13,271.1c-2.67,2.67-7.73,4.26-15.33,7.46a20.55,20.55,0,0,0,1.58-2.2c3.23-5.26,7.68-15,7.68-15s-9.71,10.93-12.13,15a37.84,37.84,0,0,1-4.31,5.41l-2.17,1.06c-12.94,6.48-19,8.1-19,8.1s.41-7.29.41-9.31a41.42,41.42,0,0,1,4.45-16.18c3.64-7.28,10.51-13.76,14.56-23.87a55.23,55.23,0,0,0,3.64-20.23l-2,6.88s-3.24,9.71-6.88,15-9.71,13.35-14.16,20.23c-4,6.2-6,17-6.41,19.07a3.7,3.7,0,0,0-.47-2.49c-.81-1.21-2.83-8.49-4-11.32a19,19,0,0,0-2-3.36,58.68,58.68,0,0,0-2.85-11.61L117,262c-1.18-1.5-2.52-3.17-4-5.06-4-5.26-8.09-14.56-8.09-11.73s4,8.5,10.12,18.61,5.66,17.8,5.66,17.8-3.24-5.26-11.33-10.92-15-7.69-25.89-15.78-15.78-22.25-15.78-22.25a38,38,0,0,0,4.86,13.76c2.43,4,12.13,17,26.29,23.46s17.4,17.39,17.4,27.1a139.82,139.82,0,0,0,1.37,18.67l-5.55,138.81H137.3L132,321.25c0-7,.44-19.49,3.3-22.64,4-4.45,14.16-10.52,20.63-14.16s16.19-6.07,20.23-10.52a75.75,75.75,0,0,0,8.09-11.73S179.77,267.46,176.13,271.1Z" style="fill:#263238"></path><path d="M379.55,339.57s32.86-18.86,69.86-19.15a75.14,75.14,0,0,0,13.4-42.79c0-43.33-37.1-78.47-82.86-78.47s-82.87,35.14-82.87,78.47a75.21,75.21,0,0,0,13.6,43.08C325.62,322.13,364.57,326.94,379.55,339.57Z" style="fill:#92E3A9"></path><path d="M379.55,339.57s32.86-18.86,69.86-19.15a75.14,75.14,0,0,0,13.4-42.79c0-43.33-37.1-78.47-82.86-78.47s-82.87,35.14-82.87,78.47a75.21,75.21,0,0,0,13.6,43.08C325.62,322.13,364.57,326.94,379.55,339.57Z" style="fill:#fff;opacity:0.30000000000000004"></path><path d="M352.87,309.11c-4.82-1.89-8.26-2.58-14.62-4.82A64.28,64.28,0,0,1,326.89,299s7.23,2.75,11.87,4S348.91,306,348.91,306a66.08,66.08,0,0,1-6-5.16c-2.58-2.58-6.36-9.11-6.36-9.11s4.47,6,8.25,8.6,14.28,7.22,22.54,12.56a30.53,30.53,0,0,1,11.18,12.21,98.59,98.59,0,0,0-.34-13.25c-.69-6-1.21-19.26-1.21-19.26s-2.92-6.71-5.33-9.81-9.63-3.27-14.11-6.36-11.87-8.09-11.87-8.09,9.46,5.16,15.66,7.05a31.28,31.28,0,0,1,9.11,4.13s-4-7.22-6.36-10.15-8.77-11-8.77-11,6.88,6.89,9.63,10.5,7.74,10,7.74,10a25.36,25.36,0,0,1,3.1-7.4c2.41-4,6.71-22.19,6.71-22.19s-1.55,13.24-4,19.44-4.13,11.69-4.13,11.69l3.79,7.92s.17-2.07,3.44-5.68,6.53-5.68,11.52-9.63,13.94-15.49,13.94-15.49-2.93,4.82-6.89,10-12,11.18-12,11.18,7.23-1.37,9.29-2.06,4.82-2.24,8.78-5.16,11.18-11.18,11.18-11.18-2.07,3.44-3.62,5.67-7.22,7.74-13.93,11.7-11.52.52-15.65,6.88-2.93,20.64,0,31.31c1.7,6.2,2.87,9.9,3.56,11.91a19.24,19.24,0,0,1,4.35-4.34c1.67-1.05,3.65-2.24,5.76-3.4.33-3.2,1.7-11,4.22-14.66,2.92-4.3,6.71-8.6,8.6-11.87s2.75-12,2.75-12-.17,3.09-.34,8.42-3.27,7.75-8.09,15.31a29.67,29.67,0,0,0-4.6,13.49c1.24-.63,2.5-1.24,3.74-1.79,4.3-1.89,9.12-3.44,15.48-6s15.14-12.73,15.14-12.73-1.2,4-8.94,10.32-11.36,6.71-19.79,10.32-11.69,6.54-14.79,11.19a21.91,21.91,0,0,0-3.23,7.64l4.67,116.9H371.44l4.86-121.59c-.63-4.51-3.37-7.81-7.09-12.93-4.13-5.68-6.71-5.16-11.87-4.65s-14.1,1-14.1,1,9.8-1.21,12.9-2.76,4.81-.17,4.13-.68A29.68,29.68,0,0,0,352.87,309.11Z" style="fill:#263238"></path><path d="M254.26,258.54s56-32.15,119.11-32.64a128.1,128.1,0,0,0,22.85-73C396.22,79,333,19.13,254.93,19.13S113.64,79,113.64,152.94a128.15,128.15,0,0,0,23.18,73.44C162.3,228.8,228.71,237,254.26,258.54Z" style="fill:#92E3A9"></path><path d="M304.09,206.61c8.21-3.23,14.08-4.4,24.93-8.21a110.35,110.35,0,0,0,19.36-9.1s-12.32,4.7-20.24,6.75-17.3,5.28-17.3,5.28a113.07,113.07,0,0,0,10.26-8.8C325.5,188.13,332,177,332,177s-7.63,10.27-14.08,14.67S293.53,204,279.45,213.06s-19.06,20.83-19.06,20.83A166.15,166.15,0,0,1,261,211.3C262.15,201,263,178.45,263,178.45s5-11.44,9.09-16.72,16.42-5.57,24.05-10.85,20.24-13.79,20.24-13.79-16.13,8.8-26.69,12-15.55,7-15.55,7,6.75-12.32,10.85-17.31,15-18.77,15-18.77S288.25,131.81,283.56,138s-13.2,17-13.2,17a43.6,43.6,0,0,0-5.28-12.62c-4.11-6.74-11.44-37.84-11.44-37.84s2.64,22.59,6.75,33.15,7,19.94,7,19.94L261,171.12s-.29-3.52-5.86-9.68S244,151.76,235.45,145s-23.76-26.4-23.76-26.4,5,8.22,11.74,17S244,154.69,244,154.69s-12.32-2.34-15.84-3.52-8.21-3.81-15-8.8-19.07-19.06-19.07-19.06,3.52,5.86,6.16,9.68,12.32,13.2,23.76,19.94,19.66.88,26.7,11.73,5,35.2,0,53.39c-2.9,10.58-4.91,16.88-6.08,20.31-2.11-2.73-4.8-5.75-7.42-7.4-2.84-1.8-6.22-3.82-9.82-5.8-.57-5.45-2.9-18.7-7.19-25-5-7.34-11.44-14.67-14.67-20.24s-4.69-20.53-4.69-20.53.29,5.27.59,14.37,5.57,13.2,13.78,26.1a50.7,50.7,0,0,1,7.85,23c-2.11-1.08-4.26-2.12-6.38-3.05-7.33-3.23-15.55-5.87-26.4-10.27s-25.81-21.7-25.81-21.7,2.05,6.74,15.25,17.6,19.36,11.44,33.73,17.6,20,11.14,25.23,19.06a37.56,37.56,0,0,1,5.51,13l-8,199.33h36.21l-8.29-207.34c1.07-7.68,5.74-13.32,12.08-22,7-9.68,11.44-8.8,20.24-7.92s24.06,1.76,24.06,1.76-16.72-2.05-22-4.69-8.22-.3-7-1.18S295.88,209.84,304.09,206.61Z" style="fill:#263238"></path></g><g id="Floor"><line x1="473.66" y1="453.69" x2="24.1" y2="453.69" style="fill:none;stroke:#263238;stroke-miterlimit:10"></line></g><g id="Character"><path d="M241.83,335.61s-1.85-4.73-3.7-1.85.61,6.37,1.85,7.6a14.1,14.1,0,0,0,3.49,2.26Z" style="fill:none;stroke:#263238;stroke-miterlimit:10"></path><path d="M272,335.61s1.85-4.73,3.7-1.85-.61,6.37-1.85,7.6a14.1,14.1,0,0,1-3.49,2.26Z" style="fill:none;stroke:#263238;stroke-miterlimit:10"></path><path d="M288.39,366.56a23.22,23.22,0,0,1,2.65-6.77c2.06-3.54,9.12-20.32,9.12-20.32s6.77-18,7.07-21.78-8.54-9.72-14.43-15.61-30-23.55-30-23.55-1.91-13.84-1.91-15.9-2.06-4.41-2.35-5.89-2.36-2.06-2.36.3a8.15,8.15,0,0,0,1.18,4.12,20.9,20.9,0,0,1,.51,6.18c-.29,3-.95,10.31-.95,12.07s3.53,4.71,3.53,4.71,13.25,13.55,17.07,19.43,13.84,16.2,13.84,16.2L284,338.88a46.74,46.74,0,0,0-5,5.3c-3.24,3.83-6.19,10.6-6.19,10.6l-7.06,2.36,1.18-7.95s1.17-.89,2.94-4.42,2.06-10.3,2.06-10.3a68.25,68.25,0,0,0,.88-8.25c0-2.94.89-5.3-3.82-11.18-4-5-10.4-5.12-12.36-5.05s-8.41.1-12.37,5.05c-4.71,5.88-3.82,8.24-3.82,11.18a68.25,68.25,0,0,0,.88,8.25s.29,6.77,2.06,10.3,2.94,4.42,2.94,4.42l1.18,7.95-7.06-2.36s-2.95-6.77-6.19-10.6a46.74,46.74,0,0,0-5-5.3l-7.36-19.13s10-10.31,13.84-16.2,17.07-19.43,17.07-19.43,3.53-2.94,3.53-4.71-1.47-9.12-1.76-12.07a20.9,20.9,0,0,1,.51-6.18,22.31,22.31,0,0,0,.37-4.12c0-2.36-1.25-1.77-1.54-.3s-2.36,3.83-2.36,5.89-1.1,15.9-1.1,15.9-24.14,17.66-30,23.55S205.67,313.86,206,317.69,213,339.47,213,339.47s7.06,16.78,9.12,20.32a23.22,23.22,0,0,1,2.65,6.77,241.62,241.62,0,0,0,4.12,26.49c2.65,11.19,4.13,19.14,4.13,22.67a42,42,0,0,1-1.48,8.83s-7.65,7.66-11.77,15.31-7.66,13.55-7.66,13.55,26.38,14.28,43.57,16.84v.23l.88-.11.89.11v-.23c17.19-2.56,43.57-16.84,43.57-16.84s-3.54-5.89-7.66-13.55-11.77-15.31-11.77-15.31a42,42,0,0,1-1.48-8.83c0-3.53,1.48-11.48,4.13-22.67A241.62,241.62,0,0,0,288.39,366.56Z" style="fill:#fff;stroke:#263238;stroke-miterlimit:10"></path><line x1="228.9" y1="340.5" x2="230.93" y2="356.4" style="fill:none;stroke:#263238;stroke-miterlimit:10"></line><path d="M284.4,341.08s-1.74,11.27-.29,14.16" style="fill:none;stroke:#263238;stroke-miterlimit:10"></path><line x1="246.29" y1="349.19" x2="252.31" y2="352.05" style="fill:none;stroke:#263238;stroke-miterlimit:10"></line><line x1="266.9" y1="349.19" x2="260.74" y2="352.67" style="fill:none;stroke:#263238;stroke-miterlimit:10"></line><path d="M258.27,313.41c2.67-.21,3.7-2.06,6.37-1s4.93,2.47,5.14,5.14-.82,3.29,0,4.93a10.63,10.63,0,0,1,1.64,6.17,32.37,32.37,0,0,0,.48,5.85,68.25,68.25,0,0,0,.88-8.25c0-2.94.89-5.3-3.82-11.18-4-5-10.4-5.12-12.36-5.05s-8.41.1-12.37,5.05c-4.71,5.88-3.82,8.24-3.82,11.18a39.65,39.65,0,0,0,.33,4.34c.17-1.54.37-3.31.47-4.41.2-2.26,3.29-5.34,3.29-7.4s.61-7.19,6.37-7.4C250.87,311.35,255.6,313.61,258.27,313.41Z" style="fill:#7a7a7a;stroke:#263238;stroke-miterlimit:10"></path><path d="M259.91,324.71s-1.85,2.68-1.44,4.94" style="fill:none;stroke:#263238;stroke-miterlimit:10"></path><path d="M260.53,327s3.49-1.44,6.17.41" style="fill:none;stroke:#263238;stroke-miterlimit:10"></path><path d="M253.34,327s-3.7-1.44-6.17.61" style="fill:none;stroke:#263238;stroke-miterlimit:10"></path><path d="M246.55,323.89s3.5-4.11,7.61-2.05" style="fill:none;stroke:#263238;stroke-miterlimit:10"></path><path d="M260.94,322s3.5-2.46,7.2,2.06" style="fill:none;stroke:#263238;stroke-miterlimit:10"></path><path d="M250.66,336.22a2.1,2.1,0,0,0,2.06.21c1.44-.41,2.67-1.85,4.52-1.44s3.29,2.26,4.73,1.44" style="fill:none;stroke:#263238;stroke-miterlimit:10"></path><line x1="259.5" y1="330.26" x2="257.45" y2="332.11" style="fill:none;stroke:#263238;stroke-miterlimit:10"></line><path d="M284.27,393.05c.23-1,.45-2,.67-3-1-2.51-2.3-5.72-3.65-9-2.88-7-11.72-24.88-11.72-24.88l-3.85,1s6.32,10.74,5.09,13.41-9.46,10.28-15.42,9.66-14.39-5.75-13.77-9,5.85-14,5.85-14l-3.86-1.29c-5.68,7.4-12.36,28-14.91,36.24.08.33.15.65.22,1,1,4.18,1.82,7.91,2.46,11.12,4.53-2.19,11.68-3.86,20.52-4.43,12.74-.82,23.08,3,29.86,4.63C282.42,401.11,283.25,397.32,284.27,393.05Z" style="fill:#92E3A9;stroke:#263238;stroke-miterlimit:10"></path><path d="M293.39,439.86c-4.12-7.65-11.77-15.31-11.77-15.31-30.72,5.91-50.05,0-50.05,0s-7.65,7.66-11.77,15.31-7.66,13.55-7.66,13.55,26.38,14.28,43.57,16.84v.23l.88-.11.89.11v-.23c17.19-2.56,43.57-16.84,43.57-16.84S297.51,447.52,293.39,439.86Z" style="fill:#92E3A9;stroke:#263238;stroke-miterlimit:10"></path><path d="M214.49,453a106.53,106.53,0,0,1-16.24-.21c-7.81-.82-16.86-.41-24.26,4.52s-7.6,10.69-4.72,15.22,19.32,9.86,47.48,9,48.3-3.08,56.94-3.08h16.85c.62,0-23.43-5.35-36.18-10.49s-28-10.89-30.83-12.12A91.78,91.78,0,0,0,214.49,453Z" style="fill:#fff;stroke:#263238;stroke-miterlimit:10"></path><path d="M253.75,467.74c-12.62-5.08-27.39-10.67-30.22-11.88a91.78,91.78,0,0,0-9-2.88,106.53,106.53,0,0,1-16.24-.21c-7.81-.82-16.86-.41-24.26,4.52s-7.6,10.69-4.72,15.22,19.32,9.86,47.48,9c14.68-.43,27.17-1.25,37-1.93Z" style="fill:#92E3A9;stroke:#263238;stroke-miterlimit:10"></path><path d="M198.86,460s19.74-.62,29.19,2.46" style="fill:none;stroke:#263238;stroke-miterlimit:10"></path><path d="M243.68,471.48a156.16,156.16,0,0,1-14.19-7c-5.14-3.08-13.56-8-17.26-8.84s-7.61-.21-6.79-1.44,5.14-5.14,11.51-4.93,11.51,3.08,12.13,3.08,9.46-3.7,13.16-2.67,6.78,10.69,7.81,11.72a5.22,5.22,0,0,0,4.52,1.85c2.67,0,19.53-1.24,31-4.12s22.2-9.25,34.32-9.66,20.15,2.47,21.79,7.2S341.31,467,338.85,470s-15.63,10.07-23.23,10.07-26.72-.2-36-2.05-26.93-4.73-28.16-4.73S243.68,471.48,243.68,471.48Z" style="fill:#fff;stroke:#263238;stroke-miterlimit:10"></path><path d="M319.93,449.48c-12.12.41-22.81,6.79-34.32,9.66-10,2.51-24.14,3.77-29.35,4.05a9,9,0,0,0-1.61,10.55c5.77.86,17.87,2.89,25,4.32,9.25,1.85,28.36,2.05,36,2.05s20.76-7,23.23-10.07,4.52-8.63,2.87-13.36S332.06,449.07,319.93,449.48Z" style="fill:#92E3A9;stroke:#263238;stroke-miterlimit:10"></path></g><g id="Leaves"><path d="M152.14,296.36a15.77,15.77,0,0,0,5.8,1.35c3.53.2,4.94-4.73,4.94-4.73A12.41,12.41,0,0,0,152.14,296.36Z" style="fill:#92E3A9"></path><path d="M220.48,248.27a15.77,15.77,0,0,0,5.8,1.35c3.53.2,4.94-4.73,4.94-4.73A12.41,12.41,0,0,0,220.48,248.27Z" style="fill:#92E3A9"></path><path d="M133.88,228.74a15.77,15.77,0,0,0,5.8,1.35c3.53.19,4.94-4.73,4.94-4.73A12.41,12.41,0,0,0,133.88,228.74Z" style="fill:#92E3A9"></path><path d="M151.23,236.22a16,16,0,0,0-.7-5.92c-1-3.38-6.13-3-6.13-3A12.4,12.4,0,0,0,151.23,236.22Z" style="fill:#92E3A9"></path><path d="M395.72,191.77a15.69,15.69,0,0,0,5.8,1.35c3.53.19,4.94-4.74,4.94-4.74A12.39,12.39,0,0,0,395.72,191.77Z" style="fill:#92E3A9"></path><path d="M327.85,243.11a15.77,15.77,0,0,0,5.8,1.35c3.53.2,4.94-4.73,4.94-4.73A12.41,12.41,0,0,0,327.85,243.11Z" style="fill:#92E3A9"></path><path d="M310.92,349.89a15.65,15.65,0,0,0-2.92-5.18c-2.25-2.73-6.83-.44-6.83-.44A12.38,12.38,0,0,0,310.92,349.89Z" style="fill:#92E3A9"></path><path d="M216.56,375.44a15.67,15.67,0,0,0-2.93-5.19c-2.24-2.73-6.82-.43-6.82-.43A12.39,12.39,0,0,0,216.56,375.44Z" style="fill:#92E3A9"></path><path d="M118.52,211.84a15.67,15.67,0,0,0-2.93-5.19c-2.24-2.73-6.82-.43-6.82-.43A12.39,12.39,0,0,0,118.52,211.84Z" style="fill:#92E3A9"></path></g></svg>