<svg xmlns="http://www.w3.org/2000/svg" viewBox="0 0 500 500"><g id="background-simple"><path d="M323.83,36.06S244.49,4.89,168.61,48.88,56.28,183.38,24.83,255.82,14.63,403.43,74.41,439.1s98.47-13.38,181-13.52,105.06,12.73,172.29-33.76,76.55-160.45,20.22-246.54S323.83,36.06,323.83,36.06Z" style="fill:#92E3A9"></path><path d="M323.83,36.06S244.49,4.89,168.61,48.88,56.28,183.38,24.83,255.82,14.63,403.43,74.41,439.1s98.47-13.38,181-13.52,105.06,12.73,172.29-33.76,76.55-160.45,20.22-246.54S323.83,36.06,323.83,36.06Z" style="fill:#fff;opacity:0.7000000000000001"></path></g><g id="Floor"><line x1="478" y1="412.83" x2="39.71" y2="412.83" style="fill:#fff;stroke:#263238;stroke-linecap:round;stroke-linejoin:round"></line></g><g id="Window"><path d="M466.77,83.1a79.5,79.5,0,0,1,6.91,32.53V352.52H314.21V115.63A79.74,79.74,0,0,1,394,35.89h0a79.71,79.71,0,0,1,69.82,41.2" style="fill:none;stroke:#263238;stroke-linecap:round;stroke-linejoin:round"></path><path d="M369.92,61.32a61.39,61.39,0,0,1,24-4.85h0a61.73,61.73,0,0,1,61.73,61.73V351.66" style="fill:none;stroke:#263238;stroke-linecap:round;stroke-linejoin:round"></path><path d="M332.21,351.66V118.2a61.73,61.73,0,0,1,34-55.18" style="fill:none;stroke:#263238;stroke-linecap:round;stroke-linejoin:round"></path><line x1="393.95" y1="131.5" x2="393.95" y2="352.09" style="fill:none;stroke:#263238;stroke-linecap:round;stroke-linejoin:round"></line><line x1="393.95" y1="35.89" x2="393.95" y2="124.58" style="fill:none;stroke:#263238;stroke-linecap:round;stroke-linejoin:round"></line><line x1="315.07" y1="106.41" x2="472.61" y2="106.41" style="fill:none;stroke:#263238;stroke-linecap:round;stroke-linejoin:round"></line><line x1="339.71" y1="155.96" x2="472.61" y2="155.96" style="fill:none;stroke:#263238;stroke-linecap:round;stroke-linejoin:round"></line><line x1="315.07" y1="155.96" x2="334.52" y2="155.96" style="fill:none;stroke:#263238;stroke-linecap:round;stroke-linejoin:round"></line><line x1="315.07" y1="205.69" x2="472.61" y2="205.69" style="fill:none;stroke:#263238;stroke-linecap:round;stroke-linejoin:round"></line><line x1="448.27" y1="255.42" x2="472.61" y2="255.42" style="fill:none;stroke:#263238;stroke-linecap:round;stroke-linejoin:round"></line><line x1="315.07" y1="255.42" x2="440.92" y2="255.42" style="fill:none;stroke:#263238;stroke-linecap:round;stroke-linejoin:round"></line><line x1="370.85" y1="305.14" x2="472.61" y2="305.14" style="fill:none;stroke:#263238;stroke-linecap:round;stroke-linejoin:round"></line><line x1="315.07" y1="305.14" x2="364.36" y2="305.14" style="fill:none;stroke:#263238;stroke-linecap:round;stroke-linejoin:round"></line><line x1="336.13" y1="60.77" x2="350.42" y2="73.78" style="fill:none;stroke:#263238;stroke-linecap:round;stroke-linejoin:round"></line><line x1="451.16" y1="60.77" x2="436.88" y2="73.78" style="fill:none;stroke:#263238;stroke-linecap:round;stroke-linejoin:round"></line><polygon points="417.05 352.91 399.44 352.91 397.88 322.84 418.61 322.84 417.05 352.91" style="fill:none;stroke:#263238;stroke-linecap:round;stroke-linejoin:round"></polygon><path d="M409.58,322.32A316.64,316.64,0,0,1,416,286.17" style="fill:none;stroke:#263238;stroke-linecap:round;stroke-linejoin:round"></path><path d="M411.85,308s7.75-9,11.82-13.37" style="fill:none;stroke:#263238;stroke-linecap:round;stroke-linejoin:round"></path><path d="M407.23,322.67s-2.14-28.32-5.73-41.72" style="fill:none;stroke:#263238;stroke-linecap:round;stroke-linejoin:round"></path><path d="M406.67,316.77s-4.06-14.56-9.05-21.76" style="fill:none;stroke:#263238;stroke-linecap:round;stroke-linejoin:round"></path><line x1="404.57" y1="311.57" x2="394.86" y2="304.66" style="fill:none;stroke:#263238;stroke-linecap:round;stroke-linejoin:round"></line><line x1="413.07" y1="298.8" x2="410.08" y2="282.39" style="fill:none;stroke:#263238;stroke-linecap:round;stroke-linejoin:round"></line><path d="M397.79,306.23A6.73,6.73,0,0,0,394,301.3c-3.35-1.58-7.1-2.17-6.5,0a7.82,7.82,0,0,0,4.14,4.93C393.84,307.41,397.79,306.23,397.79,306.23Z" style="fill:#263238;stroke:#263238;stroke-linecap:round;stroke-linejoin:round"></path><path d="M399.34,296.9a6.73,6.73,0,0,0-2.23-5.78c-2.78-2.44-6.22-4.05-6.25-1.8a7.77,7.77,0,0,0,2.61,5.88C395.23,296.94,399.34,296.9,399.34,296.9Z" style="fill:#263238;stroke:#263238;stroke-linecap:round;stroke-linejoin:round"></path><path d="M403,285.23a6.7,6.7,0,0,0,.53-6.17c-1.42-3.42-3.79-6.38-4.81-4.37a7.83,7.83,0,0,0-.25,6.43C399.29,283.45,403,285.23,403,285.23Z" style="fill:#263238;stroke:#263238;stroke-linecap:round;stroke-linejoin:round"></path><path d="M410.85,286.57a6.72,6.72,0,0,0,.54-6.17C410,277,407.59,274,406.57,276a7.84,7.84,0,0,0-.24,6.43C407.14,284.79,410.85,286.57,410.85,286.57Z" style="fill:#263238;stroke:#263238;stroke-linecap:round;stroke-linejoin:round"></path><path d="M414.87,291.62a6.72,6.72,0,0,0,3.21-5.29c.24-3.7-.58-7.4-2.38-6.06a7.85,7.85,0,0,0-3.07,5.66C412.32,288.38,414.87,291.62,414.87,291.62Z" style="fill:#263238;stroke:#263238;stroke-linecap:round;stroke-linejoin:round"></path><path d="M420.41,297.69a6.7,6.7,0,0,0,5.89-1.9c2.6-2.64,4.4-6,2.16-6.13a7.77,7.77,0,0,0-6,2.27C420.6,293.58,420.41,297.69,420.41,297.69Z" style="fill:#263238;stroke:#263238;stroke-linecap:round;stroke-linejoin:round"></path><path d="M410.43,316a6.7,6.7,0,0,0,5.89-1.9c2.6-2.63,4.4-6,2.16-6.13a7.84,7.84,0,0,0-6,2.27C410.62,311.9,410.43,316,410.43,316Z" style="fill:#263238;stroke:#263238;stroke-linecap:round;stroke-linejoin:round"></path><path d="M411.85,304.6a6.71,6.71,0,0,0-1.25-6.06c-2.34-2.87-5.46-5-5.87-2.81a7.83,7.83,0,0,0,1.61,6.23C407.79,304,411.85,304.6,411.85,304.6Z" style="fill:#263238;stroke:#263238;stroke-linecap:round;stroke-linejoin:round"></path><polygon points="455.13 317.47 430.48 317.47 423.63 352.36 448.27 352.36 455.13 317.47" style="fill:none;stroke:#263238;stroke-linecap:round;stroke-linejoin:round"></polygon><polygon points="450.69 322.38 432.99 322.38 428.06 347.45 445.77 347.45 450.69 322.38" style="fill:none;stroke:#263238;stroke-linecap:round;stroke-linejoin:round"></polygon><polygon points="451.66 335.16 456.04 352.36 448.27 352.36 451.66 335.16" style="fill:none;stroke:#263238;stroke-linecap:round;stroke-linejoin:round"></polygon></g><g id="Notebook"><rect x="57.18" y="91.88" width="245.72" height="331.86" transform="translate(-22.62 17.38) rotate(-5.2)" style="fill:#fff;stroke:#263238;stroke-linecap:round;stroke-linejoin:round"></rect><rect x="56.19" y="90.53" width="245.72" height="331.86" transform="translate(-22.51 17.28) rotate(-5.2)" style="fill:#fff;stroke:#263238;stroke-linecap:round;stroke-linejoin:round"></rect><rect x="55.21" y="89.18" width="245.72" height="331.86" transform="translate(-22.39 17.19) rotate(-5.2)" style="fill:#fff;stroke:#263238;stroke-linecap:round;stroke-linejoin:round"></rect><rect x="53.41" y="88.21" width="245.72" height="331.86" transform="translate(-22.31 17.02) rotate(-5.2)" style="fill:#fff;stroke:#263238;stroke-linecap:round;stroke-linejoin:round"></rect><path d="M46.86,117.68l-11.38-.43a3.22,3.22,0,0,1-3-2.84A2.36,2.36,0,0,1,35,111.78l11.39.43a3.23,3.23,0,0,1,3,2.84A2.37,2.37,0,0,1,46.86,117.68Z" style="fill:#263238"></path><path d="M48.66,137.37l-11.39-.43a3.22,3.22,0,0,1-3-2.84,2.36,2.36,0,0,1,2.52-2.63l11.39.43a3.22,3.22,0,0,1,3,2.84A2.36,2.36,0,0,1,48.66,137.37Z" style="fill:#263238"></path><path d="M50.45,157.06l-11.38-.43a3.21,3.21,0,0,1-3-2.84,2.36,2.36,0,0,1,2.52-2.63l11.38.43a3.22,3.22,0,0,1,3,2.84A2.36,2.36,0,0,1,50.45,157.06Z" style="fill:#263238"></path><path d="M52.24,176.75l-11.38-.43a3.22,3.22,0,0,1-3-2.84,2.36,2.36,0,0,1,2.52-2.63l11.38.43a3.22,3.22,0,0,1,3,2.84A2.36,2.36,0,0,1,52.24,176.75Z" style="fill:#263238"></path><path d="M54,196.44,42.65,196a3.23,3.23,0,0,1-3-2.84,2.37,2.37,0,0,1,2.52-2.64l11.38.43a3.23,3.23,0,0,1,3,2.85A2.36,2.36,0,0,1,54,196.44Z" style="fill:#263238"></path><path d="M55.82,216.13l-11.38-.43a3.23,3.23,0,0,1-3-2.84,2.37,2.37,0,0,1,2.52-2.64l11.39.43a3.23,3.23,0,0,1,3,2.85A2.37,2.37,0,0,1,55.82,216.13Z" style="fill:#263238"></path><path d="M57.62,235.82l-11.39-.43a3.23,3.23,0,0,1-3-2.84,2.37,2.37,0,0,1,2.52-2.64l11.39.43a3.23,3.23,0,0,1,3,2.85A2.36,2.36,0,0,1,57.62,235.82Z" style="fill:#263238"></path><path d="M59.41,255.51,48,255.08a3.23,3.23,0,0,1-3-2.84,2.37,2.37,0,0,1,2.53-2.64l11.38.43a3.23,3.23,0,0,1,3,2.85A2.36,2.36,0,0,1,59.41,255.51Z" style="fill:#263238"></path><path d="M61.2,275.2l-11.38-.43a3.22,3.22,0,0,1-3-2.84,2.36,2.36,0,0,1,2.52-2.64l11.38.43a3.23,3.23,0,0,1,3,2.85A2.36,2.36,0,0,1,61.2,275.2Z" style="fill:#263238"></path><path d="M63,294.89l-11.38-.43a3.23,3.23,0,0,1-3-2.85A2.36,2.36,0,0,1,51.11,289l11.38.43a3.22,3.22,0,0,1,3,2.84A2.36,2.36,0,0,1,63,294.89Z" style="fill:#263238"></path><path d="M64.78,314.58l-11.38-.43a3.23,3.23,0,0,1-3-2.85,2.36,2.36,0,0,1,2.52-2.63l11.39.43a3.21,3.21,0,0,1,3,2.84A2.36,2.36,0,0,1,64.78,314.58Z" style="fill:#263238"></path><path d="M66.58,334.27l-11.39-.43a3.23,3.23,0,0,1-3-2.85,2.36,2.36,0,0,1,2.52-2.63l11.39.43a3.23,3.23,0,0,1,3,2.84A2.37,2.37,0,0,1,66.58,334.27Z" style="fill:#263238"></path><path d="M68.37,354,57,353.53a3.24,3.24,0,0,1-3-2.85,2.37,2.37,0,0,1,2.53-2.63l11.38.43a3.23,3.23,0,0,1,3,2.84A2.37,2.37,0,0,1,68.37,354Z" style="fill:#263238"></path><path d="M70.16,373.64l-11.38-.43a3.21,3.21,0,0,1-3-2.84,2.36,2.36,0,0,1,2.52-2.63l11.38.43a3.23,3.23,0,0,1,3,2.84A2.36,2.36,0,0,1,70.16,373.64Z" style="fill:#263238"></path><path d="M72,393.33l-11.38-.43a3.22,3.22,0,0,1-3-2.84,2.36,2.36,0,0,1,2.52-2.63l11.38.43a3.23,3.23,0,0,1,3,2.84A2.36,2.36,0,0,1,72,393.33Z" style="fill:#263238"></path><path d="M73.74,413l-11.38-.43a3.22,3.22,0,0,1-3-2.84,2.36,2.36,0,0,1,2.52-2.63l11.38.43a3.21,3.21,0,0,1,3,2.84A2.36,2.36,0,0,1,73.74,413Z" style="fill:#263238"></path><rect x="83.19" y="227.1" width="17.65" height="17.65" transform="translate(-21 9.31) rotate(-5.2)" style="fill:none;stroke:#263238;stroke-miterlimit:10"></rect><line x1="113.62" y1="235.74" x2="269.02" y2="221.59" style="fill:none;stroke:#263238;stroke-miterlimit:10"></line><rect x="85.94" y="257.34" width="17.65" height="17.65" transform="translate(-23.73 9.68) rotate(-5.2)" style="fill:none;stroke:#263238;stroke-miterlimit:10"></rect><line x1="261.02" y1="252.81" x2="271.78" y2="251.83" style="fill:none;stroke:#263238;stroke-miterlimit:10"></line><line x1="116.37" y1="265.97" x2="254.5" y2="253.4" style="fill:none;stroke:#263238;stroke-miterlimit:10"></line><rect x="88.69" y="287.58" width="17.65" height="17.65" transform="translate(-26.46 10.06) rotate(-5.2)" style="fill:none;stroke:#263238;stroke-miterlimit:10"></rect><line x1="220.28" y1="287" x2="274.53" y2="282.07" style="fill:none;stroke:#263238;stroke-miterlimit:10"></line><line x1="119.12" y1="296.21" x2="213.42" y2="287.63" style="fill:none;stroke:#263238;stroke-miterlimit:10"></line><rect x="91.44" y="317.82" width="17.65" height="17.65" transform="translate(-29.19 10.43) rotate(-5.2)" style="fill:none;stroke:#263238;stroke-miterlimit:10"></rect><line x1="121.88" y1="326.45" x2="277.28" y2="312.31" style="fill:none;stroke:#263238;stroke-miterlimit:10"></line><rect x="94.19" y="348.05" width="17.65" height="17.65" transform="translate(-31.92 10.81) rotate(-5.2)" style="fill:none;stroke:#263238;stroke-miterlimit:10"></rect><line x1="143.31" y1="354.99" x2="280.03" y2="342.54" style="fill:none;stroke:#263238;stroke-miterlimit:10"></line><line x1="124.63" y1="356.69" x2="135.94" y2="355.66" style="fill:none;stroke:#263238;stroke-miterlimit:10"></line><rect x="96.95" y="378.29" width="17.65" height="17.65" transform="translate(-34.65 11.18) rotate(-5.2)" style="fill:none;stroke:#263238;stroke-miterlimit:10"></rect><line x1="127.38" y1="386.92" x2="282.78" y2="372.78" style="fill:none;stroke:#263238;stroke-miterlimit:10"></line><polyline points="243.87 102.88 234.37 110.13 244.44 106.02 235.42 112.06 246.67 108.14 237.09 114.52 253.58 107.51 238.79 117.27 249.52 113.97 241.8 121.64 258.71 106.46 243.74 123.79 260.67 108.89 246.02 126.48 261.35 113.19" style="fill:none;stroke:#92E3A9;stroke-linecap:round;stroke-linejoin:round"></polyline><path d="M247.26,109.83s-6.51-9.07-10.6-4.15,9.36,20.8,9.36,20.8,14.73-7.14,15.33-13.29C261.79,108.72,256.53,99.32,247.26,109.83Z" style="fill:none;stroke:#263238;stroke-linecap:round;stroke-linejoin:round"></path><polyline points="76.63 169.59 76.11 178.19 78.61 170.76 77.66 178.53 80.82 170.54 79.79 178.78 83.73 166.48 82.09 179.14 85.34 171.74 85.89 179.56 85.57 163.19 87.97 179.51 87.83 163.26 90.52 179.54 90.49 164.91" style="fill:none;stroke:#92E3A9;stroke-linecap:round;stroke-linejoin:round"></polyline><path d="M82,171s-8-.73-7.26,3.83,15.76,4.69,15.76,4.69,3-11.4,0-14.63C88.26,162.57,80.66,161,82,171Z" style="fill:none;stroke:#263238;stroke-linecap:round;stroke-linejoin:round"></path><path d="M84.38,129s-9-7.32-12.15-3.91-.86,6.34,1.22,7.09S84.38,129,84.38,129Z" style="fill:#92E3A9"></path><path d="M83.24,132.25s-9.14,4-9.11,7.41,2.51,5.4,4.73,4.57S83.24,132.25,83.24,132.25Z" style="fill:#92E3A9"></path><path d="M86,134.19s-2.35,9-1.29,11.08,4.05,3.39,5.53.75S86,134.19,86,134.19Z" style="fill:#92E3A9"></path><path d="M88.43,132.41s2.85,6,6.38,6.93,5-5.15,3.09-7.17S88.43,132.41,88.43,132.41Z" style="fill:#92E3A9"></path><path d="M86.22,117.58s-4.65-.52-5,2.33,5.53,10.14,5.53,10.14,3-7.79,2.51-10.25A2.86,2.86,0,0,0,86.22,117.58Z" style="fill:#92E3A9"></path><path d="M94.09,121.87l-4.83,7s6.62,0,9.61-1.82S99.45,117.63,94.09,121.87Z" style="fill:#92E3A9"></path><path d="M85.49,127.69s-9-7.32-12.15-3.91-.86,6.34,1.22,7.09S85.49,127.69,85.49,127.69Z" style="fill:none;stroke:#263238;stroke-miterlimit:10"></path><path d="M84.34,130.92s-9.13,4-9.1,7.41,2.5,5.4,4.73,4.57S84.34,130.92,84.34,130.92Z" style="fill:none;stroke:#263238;stroke-miterlimit:10"></path><path d="M87.11,132.86s-2.35,9-1.29,11.08,4,3.39,5.53.75S87.11,132.86,87.11,132.86Z" style="fill:none;stroke:#263238;stroke-miterlimit:10"></path><path d="M89.54,131.08s2.84,6,6.38,6.93,5-5.15,3.09-7.17S89.54,131.08,89.54,131.08Z" style="fill:none;stroke:#263238;stroke-miterlimit:10"></path><path d="M87.32,116.25s-4.65-.52-5,2.33,5.52,10.14,5.52,10.14,3-7.79,2.52-10.25A2.87,2.87,0,0,0,87.32,116.25Z" style="fill:none;stroke:#263238;stroke-miterlimit:10"></path><path d="M95.19,120.54l-4.82,7s6.61,0,9.61-1.82S100.56,116.3,95.19,120.54Z" style="fill:none;stroke:#263238;stroke-miterlimit:10"></path><path d="M253.46,150.05s-7.66-6.23-10.33-3.32-.74,5.39,1,6S253.46,150.05,253.46,150.05Z" style="fill:#92E3A9"></path><path d="M252.49,152.8s-7.77,3.37-7.75,6.3,2.13,4.6,4,3.89S252.49,152.8,252.49,152.8Z" style="fill:#92E3A9"></path><path d="M254.84,154.45s-2,7.64-1.1,9.42,3.44,2.89,4.71.64S254.84,154.45,254.84,154.45Z" style="fill:#92E3A9"></path><path d="M256.9,152.93s2.43,5.11,5.43,5.9,4.26-4.38,2.63-6.1S256.9,152.93,256.9,152.93Z" style="fill:#92E3A9"></path><path d="M255,140.32s-4-.44-4.22,2,4.7,8.63,4.7,8.63,2.58-6.63,2.14-8.72A2.43,2.43,0,0,0,255,140.32Z" style="fill:#92E3A9"></path><path d="M261.72,144l-4.11,6s5.63,0,8.18-1.55S266.28,140.36,261.72,144Z" style="fill:#92E3A9"></path><path d="M254.4,148.92s-7.66-6.23-10.33-3.32-.73,5.39,1,6S254.4,148.92,254.4,148.92Z" style="fill:none;stroke:#263238;stroke-miterlimit:10"></path><path d="M253.43,151.67s-7.77,3.37-7.75,6.3,2.13,4.6,4,3.89S253.43,151.67,253.43,151.67Z" style="fill:none;stroke:#263238;stroke-miterlimit:10"></path><path d="M255.78,153.32s-2,7.64-1.1,9.42,3.45,2.88,4.71.64S255.78,153.32,255.78,153.32Z" style="fill:none;stroke:#263238;stroke-miterlimit:10"></path><path d="M257.85,151.8s2.42,5.11,5.43,5.9,4.25-4.38,2.62-6.1S257.85,151.8,257.85,151.8Z" style="fill:none;stroke:#263238;stroke-miterlimit:10"></path><path d="M256,139.19s-4-.44-4.22,2,4.7,8.63,4.7,8.63,2.58-6.63,2.14-8.72A2.43,2.43,0,0,0,256,139.19Z" style="fill:none;stroke:#263238;stroke-miterlimit:10"></path><path d="M262.66,142.84l-4.11,6s5.63,0,8.18-1.55S267.22,139.23,262.66,142.84Z" style="fill:none;stroke:#263238;stroke-miterlimit:10"></path><path d="M165.1,192.06s-3.85,4.91-.93,6.93,7.92,1.18,6.88-6-9.11-5.63-15.81-2-21.82,9.21-36,8.21S98,192.47,91,193.11s-7.1,7.87-1.68,11.55,12.72-1.91,10.82-5.54S92.37,195.64,91,198s1.15,4.08,4.64,3.76" style="fill:none;stroke:#263238;stroke-miterlimit:10"></path><path d="M179.87,190.72s4.67,4.13,2.16,6.64-7.57,2.59-7.84-4.6,7.94-7.19,15.19-4.81,23.13,5.12,36.87,1.59S246,179,253,178.37s8.4,6.45,3.74,11.06-12.85.41-11.65-3.5,7-4.82,8.74-2.7-.4,4.22-3.88,4.53" style="fill:none;stroke:#263238;stroke-miterlimit:10"></path><path d="M119.83,138.35q-3.58-9.16-6.29-16.86l1.16,12.8q.15,1.64.82,5.55.66,4.26.78,5.51a.73.73,0,0,1-.37.65,1.94,1.94,0,0,1-1,.34c-.54,0-.84-.13-.87-.55l0-1.14c0-.83,0-1.38-.07-1.64q-.18-2.07-.83-6.54t-.74-5.51l-.45-5q-.12-1.2-.21-3.6c0-1.38-.08-2.59-.17-3.6l0-.23c-.12-1.3.1-2,.68-2,.33,0,.82.5,1.44,1.6a74.82,74.82,0,0,1,4.19,9.76q1.52,4.11,3.64,10.61c0-.1.26.77.87,2.63l.06.19q-.34-3.78-.54-6.79l-.54-6.8-1-11.54a1.1,1.1,0,0,1,1.16-1.09c.7-.07,1.1.41,1.19,1.42l0,.24a2.47,2.47,0,0,0-.13,1.15c.14,1.59.32,4,.54,7.19s.39,5.65.54,7.26l1.08,11.9a2.25,2.25,0,0,1-.22,1.22,1,1,0,0,1-.75.64Q123,146.16,119.83,138.35Z" style="fill:#263238"></path><path d="M131.08,145a1.19,1.19,0,0,1-.53-.81l-.09-1-.07-.78a7.06,7.06,0,0,1-.12-.81c-.05-.55-.16-1.38-.34-2.49l-.31-2.49c-.11-1.27-.25-3.18-.4-5.71q-.15-3.4-.36-5.71a14.76,14.76,0,0,0-.27-1.62c-.14-.75-.23-1.29-.26-1.63-.17-1.85.29-2.82,1.38-2.92a10.73,10.73,0,0,1,3,.23c1.17.24,1.77.59,1.81,1.06a1,1,0,0,1-.27.75,2.48,2.48,0,0,1-.75.6,15.82,15.82,0,0,0-3-.51c.06.39.12,1,.19,1.67q.13,1.56.21,2.82c0,1.25.09,2.19.14,2.82l.18.61.62-.1c.2,0,.46-.08.77-.11q1.88-.17,2,.93a.92.92,0,0,1-.29.75,1.32,1.32,0,0,1-.87.37,5.2,5.2,0,0,1-1.1,0l-1,.09c.11.68.23,1.66.34,3s.22,2.47.28,3.52c.07,1.59.14,2.78.21,3.56a11.17,11.17,0,0,0,.28,2.17l1.28-.15c.44-.07,1-.13,1.6-.19,1-.09,1.51.18,1.56.81a.91.91,0,0,1-.41.88,2.26,2.26,0,0,1-1.16.4l-3.32.3A1.36,1.36,0,0,1,131.08,145Z" style="fill:#263238"></path><path d="M142.61,142.25a39.35,39.35,0,0,1-1.31-5.05q-.62-3-1.39-7.68c-.31-2-.69-4.17-1.14-6.47a13.44,13.44,0,0,0-1-3.64,1.21,1.21,0,0,1,1.07-.81c.83-.08,1.33.75,1.48,2.46a71.18,71.18,0,0,0,1.63,8.82q1.35,5.75,1.71,8.38l.07-1.34c.11-1.77.18-3.43.24-5s.06-3.25,0-5.06q0-3-.27-6l1-.56a1.31,1.31,0,0,1,.87.17.87.87,0,0,1,.39.69l0,.32a40.42,40.42,0,0,1,1.47,4.68q.65,2.57,1.28,6c.32,1.78.65,3.44,1,5a94.41,94.41,0,0,0-.43-12.94,18,18,0,0,1,0-3,19.3,19.3,0,0,0,0-3,2.2,2.2,0,0,1-.18-.65c-.05-.63.31-1,1.09-1a1.1,1.1,0,0,1,.76.17.8.8,0,0,1,.33.64l.06.58a4.28,4.28,0,0,1,0,1l0,.19a11.89,11.89,0,0,0-.18,3.64l.26,2.85a68.49,68.49,0,0,1,.08,7.38,60.43,60.43,0,0,0,0,7.16l.07.7a5.4,5.4,0,0,1-.06,1.54,1,1,0,0,1-1.06.88,1.12,1.12,0,0,1-1-.32,1.59,1.59,0,0,1-.43-1,64.64,64.64,0,0,0-1.41-8.13c-.37-1.49-.75-3-1.15-4.5l-1-4a16.66,16.66,0,0,0,0,2.24c.14,1.45.21,3.39.22,5.8a68.2,68.2,0,0,1-.34,7.07c-.27,2.57-.71,3.88-1.33,3.94S143.14,143.78,142.61,142.25Z" style="fill:#263238"></path><path d="M167.22,141.23q.34-.85-.18-6.67a25.76,25.76,0,0,0-.46-2.95l-.22-1.12a15.43,15.43,0,0,1-.27-1.59l-.09-1c-.32-.63-.9-1.79-1.75-3.5s-1.54-3.14-2.07-4.29a10.26,10.26,0,0,1-1-2.75l0-.19.84-.75q.66,0,1.56,1.59a36.07,36.07,0,0,1,1.76,4c.67,1.75,1,2.68,1,2.78.08-.3.2-1.29.36-3a39.9,39.9,0,0,1,.65-4.51c.32-1.31.72-2,1.19-2a1,1,0,0,1,.7.17.72.72,0,0,1,.35.56,21.2,21.2,0,0,1-.58,5.72,22.93,22.93,0,0,0-.65,5.8l1.06,11.74c.16,1.74-.19,2.65-1,2.73A1.25,1.25,0,0,1,167.22,141.23Z" style="fill:#263238"></path><path d="M177.07,140.81a1.22,1.22,0,0,1-.53-.82l-.09-1-.07-.78a5.83,5.83,0,0,1-.11-.82c-.05-.55-.17-1.37-.35-2.49l-.3-2.49c-.12-1.27-.25-3.17-.41-5.7-.1-2.27-.22-4.18-.36-5.71,0-.37-.12-.91-.26-1.63s-.24-1.29-.27-1.63c-.17-1.84.29-2.82,1.39-2.92a10.83,10.83,0,0,1,3,.24c1.16.23,1.76.59,1.8,1a1,1,0,0,1-.26.76,2.31,2.31,0,0,1-.75.59,15.92,15.92,0,0,0-3-.51c.06.39.13,1,.19,1.68.1,1,.17,2,.22,2.81,0,1.26.08,2.2.14,2.82l.17.61.62-.09a6.08,6.08,0,0,1,.78-.11c1.25-.12,1.9.19,2,.92a.87.87,0,0,1-.29.75,1.35,1.35,0,0,1-.87.38,6,6,0,0,1-1.1,0l-1,.09c.11.67.23,1.66.35,3s.21,2.47.28,3.51c.06,1.59.13,2.78.2,3.56a12.55,12.55,0,0,0,.28,2.18l1.28-.16c.44-.06,1-.13,1.6-.18,1-.09,1.51.18,1.57.8a.94.94,0,0,1-.41.88,2.24,2.24,0,0,1-1.17.4l-3.31.31A1.38,1.38,0,0,1,177.07,140.81Z" style="fill:#263238"></path><path d="M193.62,139.22a1.12,1.12,0,0,1-.52-1,33.48,33.48,0,0,0-.75-3.95l-.23-.8-3.92-.24q-.15.93-.33,3.69a5.48,5.48,0,0,1-.51,2.61.93.93,0,0,1-.75.42,1.32,1.32,0,0,1-.88-.22.89.89,0,0,1-.46-.68l.06-.2,0-.16a177.91,177.91,0,0,0,2.1-20.14,3.92,3.92,0,0,1,0-.53c0-.25,0-.61,0-1.08,0-1,0-1.74,0-2.32a3.07,3.07,0,0,1,.33-1.33l1.33-.12a1.69,1.69,0,0,1,1,.17.82.82,0,0,1,.46.68,68,68,0,0,0,1.62,8.74,76.1,76.1,0,0,1,1.54,8.36,10.49,10.49,0,0,0,.31,1.19,8.49,8.49,0,0,1,.3,1.15q0,.28.6,2.31a16.64,16.64,0,0,1,.57,2.39v0a1,1,0,0,1-.53,1.14A2.44,2.44,0,0,1,193.62,139.22Zm-2.15-8.53a81,81,0,0,0-1.44-8.92l-.76-4q-.84,9.31-1,14.06a10,10,0,0,0,3.49.31A6.87,6.87,0,0,1,191.47,130.69Z" style="fill:#263238"></path><path d="M204.08,137a21.12,21.12,0,0,1-1.59-4.06l-.4-1.3q-1.64-5.48-2-6.23l-.47,0q.1,1.14.15,2.07l.2,2.15a34.89,34.89,0,0,0,1.48,8.09l-.33,1.09-1.09.1-.57-.54-.19-2.62q-.33-3.51-1.32-10.62-1-7.58-1.29-10.62c-.11-1.25.26-1.91,1.12-2a5.28,5.28,0,0,1,3.55.78,3.71,3.71,0,0,1,1.63,2.92l.24,2.73a5,5,0,0,1-.07,1.36,5.83,5.83,0,0,1-.32,1.27l-.61,1.47-.52,1.23.28.92.8,2.72q.82,3,1.5,4.78A18.83,18.83,0,0,0,205.8,136l.27.45a3,3,0,0,1,.51,1.21,1.13,1.13,0,0,1-.17.7.76.76,0,0,1-.6.35C205.24,138.76,204.66,138.18,204.08,137Zm-3.25-16a11.88,11.88,0,0,0,.28-3.62,8.48,8.48,0,0,0-.52-2.31,1.8,1.8,0,0,0-.73-.9,1.85,1.85,0,0,0-1.14-.23l-.06.2,0,.36.5,4.6c.17,1.34.33,2.81.48,4.4A3.83,3.83,0,0,0,200.83,121Z" style="fill:#263238"></path><path d="M209.86,116.19a15.12,15.12,0,0,1,.17-2.85,21.32,21.32,0,0,1,.83-3.89c.39-1.37.87-2.08,1.41-2.13s.73.22.78.79a13.81,13.81,0,0,1-.23,3.7,14.19,14.19,0,0,1-1.11,3.54c-.52,1-1,1.47-1.48,1.51C210,116.83,209.89,116.61,209.86,116.19Z" style="fill:#263238"></path><path d="M221.22,136.67a1.49,1.49,0,0,1-.66-1l.37-.7a2.61,2.61,0,0,1,.75.08,4.39,4.39,0,0,0,.91,0,1.68,1.68,0,0,0,1.21-.74,3.9,3.9,0,0,0,.69-1.71,12.9,12.9,0,0,0,.21-3.41,11,11,0,0,0-2.14-5.27l-.49-.7c-.58-.81-1.06-1.54-1.46-2.19a13.86,13.86,0,0,1-1.06-2.11,10.31,10.31,0,0,1-.74-3,9.2,9.2,0,0,1,.45-3.66,3.71,3.71,0,0,1,1-1.56,2.56,2.56,0,0,1,1.57-.71,2.06,2.06,0,0,1,1.34.33,1.33,1.33,0,0,1,.71,1,.66.66,0,0,1-.23.58,1.11,1.11,0,0,1-.64.25,1.54,1.54,0,0,1-.84-.16q-.85.12-1.23,1.65a6.85,6.85,0,0,0,.34,4.55,9.51,9.51,0,0,0,1.08,2l1,1.49,1.6,2.45a11.36,11.36,0,0,1,1.11,2.45,13.12,13.12,0,0,1,.6,2.9,9.88,9.88,0,0,1-.68,4.62,4.48,4.48,0,0,1-1.38,1.9,3.92,3.92,0,0,1-2.15.86v.12A2.6,2.6,0,0,1,221.22,136.67Z" style="fill:#263238"></path><path d="M115,179.67a21.21,21.21,0,0,1-1.59-4.07l-.4-1.3c-1.09-3.65-1.76-5.72-2-6.23l-.47.05q.1,1.13.15,2.07l.2,2.14a35.33,35.33,0,0,0,1.48,8.09l-.33,1.09-1.09.1-.56-.54-.2-2.61q-.33-3.51-1.32-10.62c-.67-5.05-1.1-8.6-1.29-10.62-.11-1.25.26-1.92,1.12-2a5.33,5.33,0,0,1,3.55.77,3.71,3.71,0,0,1,1.63,2.92l.25,2.74a5.51,5.51,0,0,1-.08,1.36,6.74,6.74,0,0,1-.31,1.27l-.62,1.47L112.6,167l.28.91.8,2.72q.82,3,1.5,4.79a19.18,19.18,0,0,0,1.56,3.28l.27.44a3,3,0,0,1,.51,1.22,1.13,1.13,0,0,1-.17.7.76.76,0,0,1-.6.35C116.18,181.45,115.6,180.87,115,179.67Zm-3.25-16a11.94,11.94,0,0,0,.28-3.63,8.48,8.48,0,0,0-.52-2.31,1.89,1.89,0,0,0-.73-.9,1.85,1.85,0,0,0-1.14-.23l-.06.21,0,.35.5,4.6c.17,1.35.33,2.82.48,4.4A3.83,3.83,0,0,0,111.77,163.7Z" style="fill:#263238"></path><path d="M122.26,180.39a1.28,1.28,0,0,1-.53-.82l-.09-1-.07-.78a7.25,7.25,0,0,1-.11-.81c0-.55-.17-1.38-.35-2.49l-.3-2.49q-.18-1.9-.4-5.7-.16-3.42-.37-5.71c0-.37-.12-.91-.26-1.63s-.24-1.29-.27-1.63c-.17-1.85.3-2.82,1.39-2.92a10.42,10.42,0,0,1,3,.24c1.16.23,1.76.58,1.81,1.05a1,1,0,0,1-.27.75,2.21,2.21,0,0,1-.75.6,15.92,15.92,0,0,0-3-.51c.06.39.13.95.19,1.68.1,1,.17,2,.22,2.81,0,1.26.08,2.19.14,2.82l.17.61.62-.09a4.71,4.71,0,0,1,.78-.11c1.25-.12,1.91.19,2,.92a.9.9,0,0,1-.28.75,1.4,1.4,0,0,1-.87.38,6,6,0,0,1-1.1,0l-1,.09c.11.67.23,1.65.35,2.95s.21,2.48.28,3.52c.07,1.59.14,2.78.21,3.56a12.12,12.12,0,0,0,.27,2.18l1.29-.16c.44-.06,1-.13,1.59-.18,1-.09,1.51.17,1.57.8a.92.92,0,0,1-.41.88,2.23,2.23,0,0,1-1.16.4l-3.32.3A1.43,1.43,0,0,1,122.26,180.39Z" style="fill:#263238"></path><path d="M132,179.38a1.48,1.48,0,0,1-.65-1l.36-.7a3.3,3.3,0,0,1,.76.09,5,5,0,0,0,.91,0,1.68,1.68,0,0,0,1.21-.74,3.9,3.9,0,0,0,.69-1.71,13.22,13.22,0,0,0,.2-3.4,11.05,11.05,0,0,0-2.13-5.28l-.5-.7c-.57-.81-1.06-1.54-1.46-2.19a12.86,12.86,0,0,1-1-2.1,10.17,10.17,0,0,1-.75-3,9.36,9.36,0,0,1,.46-3.66,3.73,3.73,0,0,1,1-1.57,2.61,2.61,0,0,1,1.57-.71,2.2,2.2,0,0,1,1.35.33,1.31,1.31,0,0,1,.7,1,.64.64,0,0,1-.22.57,1.08,1.08,0,0,1-.65.25,1.57,1.57,0,0,1-.84-.15c-.57.07-1,.62-1.22,1.64A6.77,6.77,0,0,0,132,161a9.62,9.62,0,0,0,1.09,2l1,1.48,1.6,2.45a11.45,11.45,0,0,1,1.11,2.46,13.48,13.48,0,0,1,.59,2.89,9.81,9.81,0,0,1-.68,4.63,4.35,4.35,0,0,1-1.38,1.89,3.9,3.9,0,0,1-2.14.87v.11A2.5,2.5,0,0,1,132,179.38Z" style="fill:#263238"></path><path d="M144.78,178.28a4.92,4.92,0,0,1-1.56-1.61,15.5,15.5,0,0,1-1.87-5.06,38.52,38.52,0,0,1-.82-5.08,5.58,5.58,0,0,1,0-.78l-.07-.71c0-.13,0-.19-.05-.19l-.07-.7-.21-2.73c0-.84-.06-2.17,0-4a13.73,13.73,0,0,1,.57-3.71,3,3,0,0,1,.59-1.26,1.4,1.4,0,0,1,.94-.49,6.68,6.68,0,0,1,2.86.31,5.91,5.91,0,0,1,2.25,1.38,9.21,9.21,0,0,1,1.55,2.28,14,14,0,0,1,1.05,3,23.49,23.49,0,0,1,.55,3.45l0,.31c.07.8.15,1.53.24,2.18l.24,2.22q1,11.24-4.2,11.71A3.15,3.15,0,0,1,144.78,178.28Zm2.87-1.84a3.69,3.69,0,0,0,.75-1.62,14.85,14.85,0,0,0,.51-4.37q0-2-.12-3.45c-.1-1.17-.34-2.7-.69-4.58s-.55-3.48-.64-4.47l-.07-.7a4.27,4.27,0,0,0-1.22-2.48,2.83,2.83,0,0,0-2.35-.89,1.76,1.76,0,0,0-1.61,1.68,10.19,10.19,0,0,0-.11,3.16c0,.49.09.91.15,1.24l.1,1,.08,1.81q0,.83.09,1.8c.13,1.4.29,2.79.5,4.16a34.65,34.65,0,0,0,1.29,5.63c.6,1.88,1.29,2.79,2.1,2.72A1.85,1.85,0,0,0,147.65,176.44Z" style="fill:#263238"></path><path d="M158.68,177.07a2.48,2.48,0,0,1-1.29.51,1,1,0,0,1-.84-.33,1.39,1.39,0,0,1-.41-.85c-.2-2.19-.38-5.11-.52-8.77q-.3-5.82-.56-8.72l0-.27c-.3-1.62-.49-2.84-.56-3.65-.23-2.47.11-3.74,1-3.83a1,1,0,0,1,.71.24.92.92,0,0,1,.36.65c0,.31,0,.81,0,1.49a14,14,0,0,0,0,1.5c.16,1.74.32,3.31.47,4.71s.31,2.94.47,4.68a5.38,5.38,0,0,0-.05,1.66l0,.47.21,3.09c0,.91.1,1.95.2,3.12q.25,2.7,1.53,2.58l.26,0a3.16,3.16,0,0,1,.48-.07,7.09,7.09,0,0,1,.9-.12c1.4-.13,2.14.2,2.21,1a.81.81,0,0,1-.29.69,1.78,1.78,0,0,1-.83.43A11.49,11.49,0,0,0,158.68,177.07Z" style="fill:#263238"></path><path d="M169.09,176.14a3.14,3.14,0,0,1-1.31-1.08,10,10,0,0,1-1.55-3.59,29,29,0,0,1-.66-4.27q-.51-4.2-1.06-10.29l-.31-3a4.9,4.9,0,0,1-.11-.77c-.14-1-.22-1.58-.24-1.79.18-.57.43-.87.74-.9s.62.18.91.63a3.23,3.23,0,0,1,.51,1.49l1,10.61c.1,1,.31,2.41.65,4.11.38,2.12.59,3.49.65,4.11.17,1.92,1.08,2.81,2.72,2.66q2.81-.26.9-21.24l-.2-2.19,0-.35a.73.73,0,0,1-.07-.3,1,1,0,0,1,.15-.71,1.27,1.27,0,0,1,.82-.29,1.08,1.08,0,0,1,.83.22,1.4,1.4,0,0,1,.43.65,6.55,6.55,0,0,1,.12.89c0,.42.06,1.09.07,2a14,14,0,0,0,0,2c.05.6.07,1.13.07,1.61l.07,1.64,0,.31a1.8,1.8,0,0,1,.08.35q1.57,17.32-3.46,17.78A3.4,3.4,0,0,1,169.09,176.14Z" style="fill:#263238"></path><path d="M182.79,174.09l-.17-1.52c-.07-.44-.13-.93-.18-1.48l-.08-1.33c-.1-.28-.56-3.11-1.36-8.49s-1.31-8.83-1.5-10.36a7.19,7.19,0,0,1-2.93-.21.87.87,0,0,1-.49-.66.69.69,0,0,1,.36-.6,1.49,1.49,0,0,1,.81-.33,26,26,0,0,1,2.67-.09,20.78,20.78,0,0,0,2.67-.05l.31,0,.32,0c.8-.08,1.23.2,1.29.82a.91.91,0,0,1-.32.8,1.43,1.43,0,0,1-.87.37,5.25,5.25,0,0,1-1,0l-.79-.09,0,.2,0,.2q.31,3.48,1.67,11,1.27,7.08,1.63,11a1.06,1.06,0,0,1-.33.86,1.39,1.39,0,0,1-.89.43Z" style="fill:#263238"></path><path d="M189.1,172.93c-.06-.63.32-1,1.12-1.05l.43,0H191a.45.45,0,0,0,.42-.23,1.58,1.58,0,0,0,0-.71c0-.44-.13-1.13-.27-2.06-.13-.62-.32-1.73-.58-3.33q-.89-5.94-1.17-9c-.06-.73-.11-1.4-.14-2l-.14-2a16.51,16.51,0,0,0-.31-2.13,3.83,3.83,0,0,1-.89.23.83.83,0,0,1-1-.85,1,1,0,0,1,.51-.87,4.37,4.37,0,0,1,1.44-.64,15.09,15.09,0,0,1,2.74-.57,1.14,1.14,0,0,1,.83.26,1,1,0,0,1,.4.73,1.14,1.14,0,0,1-.18.77.83.83,0,0,1-.62.37,1.59,1.59,0,0,1-.39,0l-.32,0a.81.81,0,0,0-.55.23,1,1,0,0,0-.11.66q.34,3.78,1.5,11.35.21,1.4.69,4.11a32.88,32.88,0,0,1,.53,3.64l.13,1.49a5.28,5.28,0,0,1,.78-.11c1.09-.1,1.68.3,1.76,1.21l0,.24-.92.75-.25,0a7.32,7.32,0,0,1-.8.09c-.83.13-1.36.21-1.59.23C190.34,174,189.17,173.71,189.1,172.93Z" style="fill:#263238"></path><path d="M202.17,173.05a4.79,4.79,0,0,1-1.56-1.6,15.52,15.52,0,0,1-1.88-5.06,38.52,38.52,0,0,1-.82-5.08,7.89,7.89,0,0,1,0-.79l-.06-.7c0-.13,0-.19-.06-.19l-.06-.7-.21-2.74c-.05-.83-.07-2.17-.05-4a13.34,13.34,0,0,1,.56-3.71,3.09,3.09,0,0,1,.6-1.26,1.4,1.4,0,0,1,.94-.5,6.86,6.86,0,0,1,2.86.31,6.22,6.22,0,0,1,2.25,1.39,9,9,0,0,1,1.54,2.28,14.74,14.74,0,0,1,1.06,3,25.39,25.39,0,0,1,.55,3.45l0,.32c.07.8.15,1.53.23,2.18l.24,2.22c.69,7.49-.72,11.39-4.2,11.71A3.05,3.05,0,0,1,202.17,173.05Zm2.86-1.83a3.59,3.59,0,0,0,.76-1.62,15.19,15.19,0,0,0,.5-4.37c0-1.34,0-2.49-.11-3.46-.11-1.17-.34-2.69-.69-4.57s-.56-3.48-.65-4.47l-.06-.7a4.28,4.28,0,0,0-1.23-2.49,2.84,2.84,0,0,0-2.34-.88,1.77,1.77,0,0,0-1.62,1.68,10.46,10.46,0,0,0-.11,3.15c.05.5.1.91.16,1.25l.09,1,.09,1.8c0,.55,0,1.16.08,1.81.13,1.4.3,2.79.5,4.16a33.31,33.31,0,0,0,1.3,5.62c.59,1.89,1.29,2.8,2.09,2.72A1.83,1.83,0,0,0,205,171.22Z" style="fill:#263238"></path><path d="M223.45,170.88A1.72,1.72,0,0,1,223,170l-.31-.72v-.2q-.12-1.29-3.47-8.53T214,149.89l1.79,19.62.18.26.18.26a.73.73,0,0,1,.15.38,1.2,1.2,0,0,1-1.1,1.32c-.83.07-1.32-.68-1.46-2.27l-.65-6.66q-.3-3-.65-6.71c-.07-.83-.14-2.05-.21-3.64s-.14-2.86-.21-3.64a3.42,3.42,0,0,1,1.14-3l0,.23a1.29,1.29,0,0,1,.31-.11c.59,0,1.44.92,2.54,2.92a52.2,52.2,0,0,1,2.45,5.09q1.14,2.69,3,7.67l.52,1.36c.79,2.06,1.38,3.52,1.78,4.41q0-8.46-1-19.89l0-.51a2.47,2.47,0,0,1-.09-.5c-.07-.78.21-1.2.83-1.26a1,1,0,0,1,.88.35,1.94,1.94,0,0,1,.39,1.07l.27,2.93q.47,6,.71,13.07t-.21,8a7.23,7.23,0,0,1-1.38.44A.88.88,0,0,1,223.45,170.88Z" style="fill:#263238"></path><path d="M231.71,170.31a1.47,1.47,0,0,1-.65-1l.36-.7a3.3,3.3,0,0,1,.76.09,6.49,6.49,0,0,0,.91,0,1.71,1.71,0,0,0,1.21-.74,3.94,3.94,0,0,0,.69-1.72,13.22,13.22,0,0,0,.2-3.4,11,11,0,0,0-2.13-5.27l-.5-.71c-.57-.81-1.06-1.54-1.46-2.18a13.39,13.39,0,0,1-1-2.11,10.17,10.17,0,0,1-.75-3,9.4,9.4,0,0,1,.46-3.66,3.69,3.69,0,0,1,1-1.56,2.57,2.57,0,0,1,1.57-.72,2.2,2.2,0,0,1,1.35.33,1.31,1.31,0,0,1,.7,1,.64.64,0,0,1-.22.57,1.15,1.15,0,0,1-.65.26,1.68,1.68,0,0,1-.84-.16c-.57.08-1,.62-1.22,1.64a6.77,6.77,0,0,0,.33,4.55,9.62,9.62,0,0,0,1.09,2l1,1.48,1.6,2.45a11.68,11.68,0,0,1,1.11,2.46,13.61,13.61,0,0,1,.59,2.89,9.81,9.81,0,0,1-.68,4.63,4.35,4.35,0,0,1-1.38,1.89,3.83,3.83,0,0,1-2.14.87v.12A2.6,2.6,0,0,1,231.71,170.31Z" style="fill:#263238"></path></g><g id="Cushion"><path d="M276.24,340.23a196.43,196.43,0,0,0-19.17,5.21c-9.59,3.19-23.06,6.32-26.71,8.15s2.5,4.26,2.5,4.26,4.58,20.92,8.23,35.52,11.41,30.14,11.41,30.14-1.21,5.86.16,6.78,17.19-4.5,17.19-4.5S289,423.51,305,419.85c8-1.82,16.86-7,21.58-9.36,1.06-.52,1.91.35,3-.52,1.22-1,1-3.32.28-4.51-.53-.85-1.08-1.74-1.53-2.5-1.37-2.28-13.7-51.59-16.89-59.81s-.56-11.32-2.84-10.86a20,20,0,0,0-5.06,2.07S288,335.83,276.24,340.23Z" style="fill:#263238;stroke:#263238;stroke-linecap:round;stroke-linejoin:round"></path></g><g id="Character"><path d="M325.05,253.56s4.08,1.93,3.65,6-1.93,5.15-1.93,5.15l-6.44-4.08S322.48,253.56,325.05,253.56Z" style="fill:#263238;stroke:#263238;stroke-linecap:round;stroke-linejoin:round"></path><path d="M282.36,391.47s-4.79,12.61-5.05,23.95,8.32,20.42,18.91,22.95a38.22,38.22,0,0,0,26.73-3c6.55-3.53,19.16-11.85,19.16-11.85s9.58-2.27,9.33-17.14-8.83-20.93-11.85-21.43S282.36,391.47,282.36,391.47Z" style="fill:#b0b0b0;stroke:#263238;stroke-linecap:round;stroke-linejoin:round"></path><path d="M284.37,410.13s3.79-7.31,20.43-13.11" style="fill:none;stroke:#263238;stroke-linecap:round;stroke-linejoin:round"></path><path d="M286.39,402.82a13.47,13.47,0,0,0-5.55,10.84" style="fill:none;stroke:#263238;stroke-linecap:round;stroke-linejoin:round"></path><path d="M322.48,257.85s5.36,5.15,6,7.73,0,4.5,1.07,5.58,8.8,3.86,8.37,5.79-3.22,4.29-3.22,4.29,1.5,13.73.21,15.23-8.15,3-8.15,3a10.31,10.31,0,0,0-1.19,6.24l.45,3.62s21.42,8.81,21.87,12.19,2,5.42-.67,14.91,6.54,35.91,7.22,37.49-9.93,7-17.84,11.51-25.52,8.36-37.26,10.17-18.52.45-18.52-2.71-5.19-56.46-3.84-60.08,10.16-10.38,14.45-12.87,14-9.48,12.42-16-8.84-15.39-7.56-21S306.82,254.42,322.48,257.85Z" style="fill:#92E3A9;stroke:#263238;stroke-linecap:round;stroke-linejoin:round"></path><path d="M295.07,340.52s4.54,9.08,4.34,18.17" style="fill:none;stroke:#263238;stroke-linecap:round;stroke-linejoin:round"></path><path d="M344.62,345.85s-2.14,17.32-1.46,24.36" style="fill:none;stroke:#263238;stroke-linecap:round;stroke-linejoin:round"></path><path d="M326,309.34l-.45-3.62a10.31,10.31,0,0,1,1.19-6.24s6.87-1.51,8.15-3-.21-15.23-.21-15.23,2.79-2.36,3.22-4.29-7.3-4.72-8.37-5.79-.43-3-1.07-5.58-6-7.73-6-7.73c-15.66-3.43-24.89,19.53-26.18,25.11s6,14.41,7.56,21-8.13,13.55-12.42,16l-.18.11c9.1,8.21,29.58,26.21,32,24.28s9.39-21.35,12.15-30.81C331.55,311.55,326,309.34,326,309.34Z" style="fill:#fff;stroke:#263238;stroke-linecap:round;stroke-linejoin:round"></path><polygon points="326.77 299.48 320.55 299.48 326.03 309.34 326.77 299.48" style="fill:#263238;stroke:#263238;stroke-linecap:round;stroke-linejoin:round"></polygon><path d="M332.56,286.17a7.14,7.14,0,0,1-7.51-.64" style="fill:none;stroke:#263238;stroke-linecap:round;stroke-linejoin:round"></path><path d="M327.13,273.92c.46,1.16.42,2.25-.08,2.45s-1.26-.59-1.72-1.75-.41-2.26.08-2.45S326.68,272.76,327.13,273.92Z" style="fill:#263238"></path><path d="M322.48,270.73s.43-3.44,3.22-4.29" style="fill:none;stroke:#263238;stroke-linecap:round;stroke-linejoin:round"></path><path d="M324.2,256.57s-4.51,8.79-6.87,14.37-6.87,14.16-6.87,14.16l.43,8.8s6.75,24.7,6.07,29.89-13.1,5-22.13,1.36-15.36-2.49-15.13-9S289,298.83,287.29,292s-2.57-12.45-2.36-16.31,5.37-17,8.16-18.66,30.89-5.8,32.61-4.72S324.2,256.57,324.2,256.57Z" style="fill:#263238;stroke:#263238;stroke-linecap:round;stroke-linejoin:round"></path><path d="M313,286.17s-4.29-5.36-7.72-3.43-2.79,7.51.64,9.87,6.22,2.15,7.29,1.93" style="fill:#fff;stroke:#263238;stroke-linecap:round;stroke-linejoin:round"></path><path d="M326.07,349a1.78,1.78,0,1,1-1.78-1.77A1.78,1.78,0,0,1,326.07,349Z" style="fill:none;stroke:#263238;stroke-linecap:round;stroke-linejoin:round"></path><path d="M321.44,394.5s32-13.36,37.56-10.84,20.67,42.6,27,51.93a162.27,162.27,0,0,0,13.86,17.9c2.27,2.52,20.17,5.8,20.17,8.32s-5,5.3-10.59,6.05-13.86-.25-17.9-.75-9.32,3-13.61-1.26-.5-13.62-.5-17.4-7.57-16.64-14.63-22.44-12.86-10.84-12.86-10.84-12.85,11.35-27,16.89-16.14-21.17-13.11-27.48S321.44,394.5,321.44,394.5Z" style="fill:#fff;stroke:#263238;stroke-linecap:round;stroke-linejoin:round"></path><path d="M420,461.81c0-2.52-17.9-5.8-20.17-8.32-1.29-1.43-3.56-4-6.45-7.69a2.54,2.54,0,0,0-2.12,1.89c-.5,2.27-1,5.05-1,5.05a109.79,109.79,0,0,1-12.89-3.68c-.33,4.09-3.53,12.71.54,16.79,4.29,4.28,9.58.75,13.61,1.26s12.36,1.51,17.9.75S420,464.33,420,461.81Z" style="fill:#92E3A9;stroke:#263238;stroke-linecap:round;stroke-linejoin:round"></path><path d="M420,461.81c-5.8,3.21-18.34,4.1-21.75,2.87-3.06-1.11-8.27.46-13.33-.23a49.37,49.37,0,0,1-8.87-2.37,7,7,0,0,0,1.85,3.77c4.29,4.28,9.58.75,13.61,1.26s12.36,1.51,17.9.75S420,464.33,420,461.81Z" style="fill:#fff;stroke:#263238;stroke-linecap:round;stroke-linejoin:round"></path><path d="M307.32,399.29S290.68,406.6,294,421.47s19.92,13.87,25.22,12.11,16.89-11.1,16.89-11.1a27.91,27.91,0,0,0,8.82,14.63c7.31,6.3,27.48,16.38,32.78,19.66s20.67,20.17,22.94,20.67,7.82-2,15.13-6.8c2.75-1.8,10.33-11.35,12.6-16.64s.51-5.55-3.27-4a110.25,110.25,0,0,1-15.89,4.29c-5,1-11.34-.5-16.64-2.77s-26-24.46-31-33.54-11.09-22.18-18.65-24.2S313.87,395.25,307.32,399.29Z" style="fill:#fff;stroke:#263238;stroke-linecap:round;stroke-linejoin:round"></path><path d="M336.06,422.48s-1.26-9.33-.76-12.6" style="fill:none;stroke:#263238;stroke-linecap:round;stroke-linejoin:round"></path><path d="M425.05,450a109.75,109.75,0,0,1-15.88,4.29,20.79,20.79,0,0,1-7.09,0,11.56,11.56,0,0,0,0,1.73c.25,3,3.53,5.8,3.53,5.8s-8.43,6-13.83,7.86c4.17,4.07,7.78,7.55,8.79,7.77,2.27.51,7.82-2,15.13-6.8,2.75-1.8,10.33-11.35,12.6-16.64S428.84,448.45,425.05,450Z" style="fill:#92E3A9;stroke:#263238;stroke-linecap:round;stroke-linejoin:round"></path><path d="M428.73,449.29a66.93,66.93,0,0,1-10.73,14c-6.2,6.19-15.37,10.15-20.29,12a10.72,10.72,0,0,0,2.89,2.15c2.27.51,7.82-2,15.13-6.8,2.75-1.8,10.33-11.35,12.6-16.64C429.59,451.07,429.6,449.69,428.73,449.29Z" style="fill:#fff;stroke:#263238;stroke-linecap:round;stroke-linejoin:round"></path><path d="M366.42,377.54s4.23-3,5-3.44,5.16-.31,8.13-1.4,3.75-.79,3,1.25-4.22,3-4.22,3,4.84.78,4.22,2.81a18.5,18.5,0,0,1-3.91,6.57A8,8,0,0,1,371,389c-3.13-.62-9.85-5.78-10.32-6.25s-4.38-1.56-4.38-1.56l2.66-3.91,2.35-2.35Z" style="fill:#fff;stroke:#263238;stroke-linecap:round;stroke-linejoin:round"></path><path d="M366.74,380.67a3.14,3.14,0,0,1,2.81,1.41,23.09,23.09,0,0,1,1.58,3.24" style="fill:none;stroke:#263238;stroke-linecap:round;stroke-linejoin:round"></path><path d="M373.25,362.83s2.37,0,3.75,3,2.37,14.81,2.37,14.81l-26.85-1.18a23.54,23.54,0,0,1,6.91-11.26C364.76,363.62,373.25,362.83,373.25,362.83Z" style="fill:#263238;stroke:#263238;stroke-linecap:round;stroke-linejoin:round"></path><path d="M367.13,374.68s1-5.53,2.37-8.29a7.2,7.2,0,0,1,3.75-3.56l-26.65-1.18s-5.53,1.77-6.32,10.86Z" style="fill:#fff;stroke:#263238;stroke-linecap:round;stroke-linejoin:round"></path><path d="M333.77,371.72c-.22-.91-7.46,5.68-9.09,13.82a85.63,85.63,0,0,0-.79,9.67l26.46,4.93s2.76-25.66,16.78-25.46Z" style="fill:#fff;stroke:#263238;stroke-linecap:round;stroke-linejoin:round"></path><path d="M281.51,328.53a10.37,10.37,0,0,0-7,8.36c-1.13,6.77,2,53.52,5.19,58s4.29,3.84,9,3.39,24.62-7.91,26.65-9.26,2.26-11.75.23-14a8,8,0,0,0-7-2.26c-2,.22-9.94,1.8-9.94,1.8s0-2-.68-2.48a12,12,0,0,0-1.8-.9s1.58-12.42-2-23.49-7.22-14.23-7.22-14.23" style="fill:#92E3A9;stroke:#263238;stroke-linecap:round;stroke-linejoin:round"></path><path d="M296.19,374.6s-9.94,6.78-10.62,12.88" style="fill:none;stroke:#263238;stroke-linecap:round;stroke-linejoin:round"></path><path d="M323.76,371.84s-8.31.63-9.7,2.9-1,10.7.09,11.46,4.73-1.22,5.62-1.47a33.15,33.15,0,0,0,3.9-2.07S322.38,375,323.76,371.84Z" style="fill:#fff;stroke:#263238;stroke-linecap:round;stroke-linejoin:round"></path><path d="M333.56,356.79l14.51,16.44,1.38.88-.36-2L335,355.5a1,1,0,0,0-1.43-.05h0A1,1,0,0,0,333.56,356.79Z" style="fill:none;stroke:#263238;stroke-linecap:round;stroke-linejoin:round"></path><path d="M323.76,371.84s6.8-4.41,9.45-6.17,4.28-2.77,5-2.77,7.56,1.89,7.56,1.89c.57.66,1.12,1.35,1.64,2a12.69,12.69,0,0,1,1,1.52c.6,1.09.24,2.94-1.28,1.85a11,11,0,0,0-1.77-1s.51,4.53.51,4.91-1,1-1.39,1.26-.75,1.51-1.76,1.76-.88,1-2.65,1.14-2.39-1.52-2-1.77a22.82,22.82,0,0,1-4.91,1.64,33.87,33.87,0,0,1-6,.13l-3.65,2.26A18.87,18.87,0,0,1,323.76,371.84Z" style="fill:#fff;stroke:#263238;stroke-linecap:round;stroke-linejoin:round"></path><polyline points="345.42 369.2 344.16 367.81 338.87 366.55" style="fill:none;stroke:#263238;stroke-linecap:round;stroke-linejoin:round"></polyline><path d="M344.54,375.37s-1-4.91-1.38-5.16a35.33,35.33,0,0,0-4.79-.51" style="fill:none;stroke:#263238;stroke-linecap:round;stroke-linejoin:round"></path><path d="M342.78,377.13s-1.14-2.64-1.64-3.4-3.78-.38-3.78-.38" style="fill:none;stroke:#263238;stroke-linecap:round;stroke-linejoin:round"></path><path d="M382.69,378.47s-2.36-1.55-3.75-1.55-1.94.39-1.8,1.55,2.77,3.25,3.61,3.51a2.4,2.4,0,0,0,3.05-1C384.49,379.51,382.69,378.47,382.69,378.47Z" style="fill:#fff;stroke:#263238;stroke-linecap:round;stroke-linejoin:round"></path><path d="M380.75,381.85s-2.36-1.56-3.75-1.56-1.94.39-1.8,1.56,2.77,3.24,3.6,3.5a2.41,2.41,0,0,0,3.06-1C382.55,382.89,380.75,381.85,380.75,381.85Z" style="fill:#fff;stroke:#263238;stroke-linecap:round;stroke-linejoin:round"></path><path d="M378.71,384.51S376.36,383,375,383s-1.94.39-1.8,1.56,2.77,3.24,3.6,3.5a2.4,2.4,0,0,0,3.05-1C380.52,385.54,378.71,384.51,378.71,384.51Z" style="fill:#fff;stroke:#263238;stroke-linecap:round;stroke-linejoin:round"></path><path d="M375.45,385.32a7.69,7.69,0,0,0-2.92-1.21c-1.08,0-1.51.3-1.4,1.21s2.16,2.52,2.81,2.73a1.87,1.87,0,0,0,2.37-.81C376.85,386.13,375.45,385.32,375.45,385.32Z" style="fill:#fff;stroke:#263238;stroke-linecap:round;stroke-linejoin:round"></path></g></svg>