<svg xmlns="http://www.w3.org/2000/svg" viewBox="0 0 700 500"><g id="background-simple"><path d="M617,186c-58.23-88.3-213.88-138-290.42-44.32a130,130,0,0,0-8.4,11.53c-18.9,29.15-46.48,79.61-88.85,67.43-29-8.33-51-31.51-79.74-40.46-37.94-11.8-69.77,12.73-88.44,44-21.71,36.35-29.11,79-9.67,118.24,36.2,73.18,145.37,89.31,218,82.34,53.17-5.11,101.89-31.93,155.52-33.8,38.59-1.34,76.79,8.34,113.14,20.42,16.84,5.6,33.73,11.77,51.41,13.27,63.26,5.36,68.44-52,64.24-100.2C649.62,276.53,644.21,227.17,617,186Z" style="fill:#92E3A9"></path><path d="M617,186c-58.23-88.3-213.88-138-290.42-44.32a130,130,0,0,0-8.4,11.53c-18.9,29.15-46.48,79.61-88.85,67.43-29-8.33-51-31.51-79.74-40.46-37.94-11.8-69.77,12.73-88.44,44-21.71,36.35-29.11,79-9.67,118.24,36.2,73.18,145.37,89.31,218,82.34,53.17-5.11,101.89-31.93,155.52-33.8,38.59-1.34,76.79,8.34,113.14,20.42,16.84,5.6,33.73,11.77,51.41,13.27,63.26,5.36,68.44-52,64.24-100.2C649.62,276.53,644.21,227.17,617,186Z" style="fill:#fff;opacity:0.7000000000000001"></path></g><g id="Curtains"><line x1="39.75" y1="437.84" x2="667.97" y2="437.84" style="fill:none;stroke:#263238;stroke-linecap:round;stroke-linejoin:round;stroke-width:2px"></line><path d="M458.76,71.74S486.64,148.63,561,203.54v234" style="fill:none;stroke:#263238;stroke-linecap:round;stroke-linejoin:round"></path><path d="M510.3,54.84s13.52,82.8,58.29,147" style="fill:none;stroke:#263238;stroke-linecap:round;stroke-linejoin:round"></path><path d="M562.68,54s-1.49,99.19,19.43,144.47" style="fill:none;stroke:#263238;stroke-linecap:round;stroke-linejoin:round"></path><path d="M519.06,142.12c-.95-1.73-1.91-3.51-2.85-5.32" style="fill:none;stroke:#263238;stroke-linecap:round;stroke-linejoin:round"></path><path d="M565.21,201s-22-17.91-42.49-52.49" style="fill:none;stroke:#263238;stroke-linecap:round;stroke-linejoin:round"></path><path d="M581.39,142.13c-.43,14.94.2,39.61,7.48,56.34" style="fill:none;stroke:#263238;stroke-linecap:round;stroke-linejoin:round"></path><path d="M582.11,129.19s-.21,2.11-.41,5.67" style="fill:none;stroke:#263238;stroke-linecap:round;stroke-linejoin:round"></path><line x1="567.75" y1="209.46" x2="566.06" y2="367.45" style="fill:none;stroke:#263238;stroke-linecap:round;stroke-linejoin:round"></line><path d="M561,203.54s-90.4-32.95-128.42-121.66" style="fill:none;stroke:#263238;stroke-linecap:round;stroke-linejoin:round"></path><line x1="563.86" y1="202.56" x2="591.9" y2="202.56" style="fill:none;stroke:#263238;stroke-linecap:round;stroke-linejoin:round"></line><line x1="562.77" y1="206.93" x2="591.17" y2="206.93" style="fill:none;stroke:#263238;stroke-linecap:round;stroke-linejoin:round"></line><line x1="575.51" y1="207.66" x2="572.6" y2="254.64" style="fill:none;stroke:#263238;stroke-linecap:round;stroke-linejoin:round"></line><line x1="581.34" y1="207.3" x2="582.8" y2="225.87" style="fill:none;stroke:#263238;stroke-linecap:round;stroke-linejoin:round"></line><path d="M261.89,71.74S234,148.63,159.66,203.54v234" style="fill:none;stroke:#263238;stroke-linecap:round;stroke-linejoin:round"></path><path d="M210.35,54.84s-13.51,82.8-58.29,147" style="fill:none;stroke:#263238;stroke-linecap:round;stroke-linejoin:round"></path><path d="M158,54s1.49,99.19-19.43,144.47" style="fill:none;stroke:#263238;stroke-linecap:round;stroke-linejoin:round"></path><path d="M155.44,201s27-22,49-64.21" style="fill:none;stroke:#263238;stroke-linecap:round;stroke-linejoin:round"></path><path d="M138.54,129.19s4.31,43.83-6.76,69.28" style="fill:none;stroke:#263238;stroke-linecap:round;stroke-linejoin:round"></path><line x1="152.9" y1="209.46" x2="154.59" y2="367.45" style="fill:none;stroke:#263238;stroke-linecap:round;stroke-linejoin:round"></line><path d="M284.7,89.36q1.76-3.67,3.38-7.48" style="fill:none;stroke:#263238;stroke-linecap:round;stroke-linejoin:round"></path><path d="M159.66,203.54s80.58-29.37,121.58-107.3" style="fill:none;stroke:#263238;stroke-linecap:round;stroke-linejoin:round"></path></g><g id="musical-notes"><path d="M301.62,155.68c-.22-1.64-.42-3.23-.64-4.83-.26-1.86-.51-3.73-.8-5.59a1,1,0,0,0-.46-.7c-3.34-.84-6.69-1.63-10.15-2.47.06.72.1,1.35.16,2,.4,4.09.84,8.18,1.16,12.28a3.13,3.13,0,0,1-.62,2,7.7,7.7,0,0,1-5.75,3,4.24,4.24,0,0,1-4.71-3.66,4.76,4.76,0,0,1,3.85-5.09,8.08,8.08,0,0,1,4.13.52l.59.2c-.52-6.35-1.05-12.63-1.58-19,.54.11,1,.19,1.44.3l12.29,2.94c.45.11.72.24.81.79.79,5.35,1.62,10.7,2.44,16q.3,2,.57,4a3.8,3.8,0,0,1-1.59,3.53,7.27,7.27,0,0,1-5.41,1.88,4.57,4.57,0,0,1-4.26-4.35,4.69,4.69,0,0,1,4.51-4.58,8.82,8.82,0,0,1,2,.16A16.8,16.8,0,0,1,301.62,155.68Zm-12.26-17.89c-.22,1.57-.17,1.66,1.16,2l3.84,1,5.28,1.35c.1-1.56,0-1.72-1.38-2.09l-5.84-1.51Z" style="opacity:0.2"></path><path d="M623.07,145c-.22-1.64-.43-3.23-.65-4.82-.25-1.87-.51-3.73-.8-5.59,0-.26-.25-.65-.46-.7-3.34-.84-6.68-1.64-10.15-2.47.06.72.11,1.34.17,2,.39,4.09.83,8.18,1.16,12.28a3.19,3.19,0,0,1-.62,2.05,7.72,7.72,0,0,1-5.75,3,4.24,4.24,0,0,1-4.71-3.67,4.77,4.77,0,0,1,3.84-5.09,8.08,8.08,0,0,1,4.13.52l.6.2c-.53-6.35-1.05-12.63-1.58-19,.53.11,1,.19,1.44.3L622,126.88c.44.1.72.23.8.79.79,5.35,1.63,10.69,2.44,16,.21,1.33.4,2.67.57,4a3.83,3.83,0,0,1-1.58,3.54,7.37,7.37,0,0,1-5.42,1.88,4.58,4.58,0,0,1-4.25-4.36,4.67,4.67,0,0,1,4.5-4.57,9.4,9.4,0,0,1,2.05.15A16.92,16.92,0,0,1,623.07,145Zm-12.26-17.88c-.22,1.56-.18,1.66,1.15,2s2.56.65,3.84,1l5.29,1.34c.1-1.55,0-1.72-1.39-2.08-1.94-.51-3.89-1-5.83-1.51C612.85,127.56,611.83,127.33,610.81,127.09Z" style="opacity:0.2"></path><path d="M429.59,129.29c.6,1.49,1.15,2.89,1.73,4.27q1.89,4.51,3.79,9a3.07,3.07,0,0,1,0,2.5,7.23,7.23,0,0,1-4.48,4.28c-2.14.73-4.85-1.19-5.08-3.58a4.46,4.46,0,0,1,4.51-5.16c.65,0,1.3,0,2,0L425.46,124c.54-.22,1-.44,1.54-.62a.4.4,0,0,1,.37.08c1.13,1.38,2.77,1.91,4.28,2.67a35.48,35.48,0,0,1,3.78,1.81c3.65,2.39,4.56,5.7,3.34,9.91-.07.24-.33.42-.51.63a2.35,2.35,0,0,1-.28-.79,8.26,8.26,0,0,0-8-8.39Z" style="opacity:0.2"></path><path d="M96.34,139.12c.61,1.49,1.16,2.89,1.74,4.27,1.25,3,2.53,6,3.79,9a3.11,3.11,0,0,1,0,2.5,7.23,7.23,0,0,1-4.48,4.28c-2.14.73-4.85-1.19-5.08-3.58a4.45,4.45,0,0,1,4.51-5.16c.65,0,1.3,0,2,0l-6.57-16.63c.54-.22,1-.44,1.54-.62a.4.4,0,0,1,.37.08c1.13,1.38,2.77,1.91,4.27,2.67a35.64,35.64,0,0,1,3.79,1.81c3.65,2.39,4.56,5.7,3.34,9.91-.07.24-.34.42-.51.63a2.35,2.35,0,0,1-.28-.79,8.26,8.26,0,0,0-8-8.39Z" style="opacity:0.2"></path><path d="M211,117.65c.6,1.49,1.15,2.89,1.73,4.27q1.89,4.52,3.8,9a3.15,3.15,0,0,1,0,2.5,7.24,7.24,0,0,1-4.49,4.28c-2.13.73-4.85-1.19-5.08-3.59A4.46,4.46,0,0,1,211.4,129c.64,0,1.29,0,2,0l-6.57-16.63c.54-.22,1-.44,1.54-.62a.42.42,0,0,1,.38.08c1.12,1.37,2.77,1.91,4.27,2.67a35.48,35.48,0,0,1,3.78,1.81c3.66,2.39,4.56,5.7,3.34,9.91-.07.24-.33.42-.5.63a2.46,2.46,0,0,1-.29-.79,8.26,8.26,0,0,0-7.95-8.39C211.29,117.64,211.19,117.65,211,117.65Z" style="opacity:0.2"></path><path d="M471.56,194.83l-10.48-21.14c.75-.24,1.42-.5,2.12-.66.15,0,.46.25.57.46,1.86,3.58,3.69,7.18,5.54,10.77,2,4,4.06,8,6.16,11.92a5.87,5.87,0,0,1-.61,7,6.7,6.7,0,0,1-8.24,2.22c-2.76-1.31-4.56-5.17-3-7.86a5.25,5.25,0,0,1,4.11-2.65A32.49,32.49,0,0,1,471.56,194.83Z" style="opacity:0.2"></path><path d="M487.49,189.21,477,168.07c.75-.25,1.43-.5,2.13-.66.15,0,.46.25.56.46,1.86,3.58,3.69,7.18,5.54,10.77,2.05,4,4.06,8,6.17,11.91a5.89,5.89,0,0,1-.62,7,6.7,6.7,0,0,1-8.24,2.23c-2.76-1.31-4.56-5.18-3-7.87a5.23,5.23,0,0,1,4.11-2.64A30.47,30.47,0,0,1,487.49,189.21Z" style="opacity:0.2"></path><path d="M199.75,186.4c-3.44-7-6.91-14-10.47-21.14.75-.25,1.42-.5,2.12-.66.15,0,.46.25.57.45,1.86,3.59,3.69,7.19,5.54,10.78,2,4,4.06,8,6.16,11.91a5.88,5.88,0,0,1-.61,7,6.73,6.73,0,0,1-8.25,2.23c-2.75-1.31-4.55-5.18-3-7.87a5.21,5.21,0,0,1,4.11-2.64A30.32,30.32,0,0,1,199.75,186.4Z" style="opacity:0.2"></path><path d="M608.43,202.22,598,181.08c.75-.24,1.42-.5,2.12-.66.15,0,.46.25.57.46,1.86,3.59,3.69,7.18,5.54,10.78,2.05,4,4.06,8,6.16,11.91a5.88,5.88,0,0,1-.61,7,6.7,6.7,0,0,1-8.24,2.22c-2.76-1.31-4.56-5.17-3-7.86a5.25,5.25,0,0,1,4.11-2.65A32.49,32.49,0,0,1,608.43,202.22Z" style="opacity:0.2"></path></g><g id="character-4"><path d="M504.24,309.85s-8.46,51.81-9,63.13c-1.24,27,2.32,63.13,2.32,63.13" style="fill:none;stroke:#263238;stroke-linecap:round;stroke-linejoin:round;stroke-width:3px"></path><line x1="447.51" y1="373.3" x2="450.08" y2="436.05" style="fill:none;stroke:#263238;stroke-linecap:round;stroke-linejoin:round;stroke-width:3px"></line><line x1="421.88" y1="373.62" x2="412.9" y2="436.37" style="fill:none;stroke:#263238;stroke-linecap:round;stroke-linejoin:round;stroke-width:3px"></line><path d="M458.41,370.73a20.13,20.13,0,0,0-.32,2.25c-.45,27.48,2.25,62.78,2.25,62.78" style="fill:none;stroke:#263238;stroke-linecap:round;stroke-linejoin:round;stroke-width:3px"></path><path d="M471.23,302.15h24.28a8.76,8.76,0,0,1,8.25,5.8h0a8.84,8.84,0,0,1,.38,4.53l-6,32.94H463.54Z" style="fill:#787878;stroke:#263238;stroke-linecap:round;stroke-linejoin:round"></path><rect x="416.11" y="362.08" width="81.72" height="12.82" rx="5.32" style="fill:#787878;stroke:#263238;stroke-linecap:round;stroke-linejoin:round"></rect><path d="M442.79,268.67s-20.12,2.39-23.55,3.71-5.4,2.38-12.76,6.88-16.19,7.14-20.85,11.11-11.53,21.7-11.53,21.7l7.85,7.67s-.24.53,5.64-6.08,14.72-15.61,19.63-17.47a51,51,0,0,1,11-2.91c1,0,5.4,2.65,5.4,2.65l-4.18,53.64a195.63,195.63,0,0,0,20.12,2.65c8.83.53,34.1-4.23,34.1-4.23l.74-44.12L496,316s1-1.06-3.18-13.76-2.7-17.46-5.89-22.49-17.67-6.62-20.61-8.2-15.94-2.92-17.91-2.92Z" style="fill:#263238;stroke:#263238;stroke-linecap:round;stroke-linejoin:round"></path><path d="M374.1,312.07s1.73-5.1,5.27-5.91a5.61,5.61,0,0,1,6.81,3.81,6.64,6.64,0,0,1-.54,5.45c-.55.82-2.45,3-2.45,3S374,317.17,374.1,312.07Z" style="fill:#fff;stroke:#263238;stroke-linecap:round;stroke-linejoin:round"></path><path d="M432.62,280.57s.85,4.48,1.49,7.67S436.88,301,436.88,301L446,281l-4.26-6.82Z" style="fill:#fff;stroke:#263238;stroke-linecap:round;stroke-linejoin:round"></path><polygon points="435.17 279.72 436.45 285.9 434.32 289.52 437.3 297.41 442.42 288.46 439.65 285.69 443.06 279.93 440.71 275.24 435.17 279.72" style="fill:#263238;stroke:#263238;stroke-linecap:round;stroke-linejoin:round"></polygon><polygon points="437.73 279.51 430.48 282.28 437.09 267.57 441.78 268.21 437.73 279.51" style="fill:#fff;stroke:#263238;stroke-linecap:round;stroke-linejoin:round"></polygon><path d="M441.14,226.21s-10,1.4-10.8,3.08a14,14,0,0,0-1.12,3.79s-3.51,5.47-3.37,5.89.14,3.65-.42,4.63-3.37,6.31-3.37,8.42,1.26,14.73,2.39,15.85S428,269,428.94,269s7.29-3.78,7.29-3.78L437.76,282l15.7-15s.17-9.43,1-11.11,8.56-9.54,9.12-16.42-8.7-11.78-13.33-12.62A42.18,42.18,0,0,0,441.14,226.21Z" style="fill:#fff;stroke:#263238;stroke-linecap:round;stroke-linejoin:round"></path><path d="M450.26,226.77a42.18,42.18,0,0,0-9.12-.56s-10,1.4-10.8,3.08a14,14,0,0,0-1.12,3.79s2.94-1,6.45-1.82,14-1.13,13.33,1.54-6.32,3.37-5.19,5,3.5,2.52,3.78,4.77-3.92,10.8-3.22,11.5,2.52,1.55,2.8.84a24.63,24.63,0,0,1,3.09-6.17c1.68-2.1,4.35-3.51,4.35,1s-4.63,6.6-4.63,6.6l4.49-.56c.84-1.69,8.56-9.54,9.12-16.42S454.89,227.61,450.26,226.77Z" style="fill:#263238;stroke:#263238;stroke-linecap:round;stroke-linejoin:round"></path><path d="M429.08,240l.28,3.51s-5.33,8.28-5.19,9.26,2.52,2.38,2.52,2.38" style="fill:none;stroke:#263238;stroke-miterlimit:10"></path><line x1="425.29" y1="257.07" x2="429.78" y2="257.63" style="fill:none;stroke:#263238;stroke-miterlimit:10"></line><path d="M436.65,242.06l-1.26,2a11.5,11.5,0,0,0,6,.42" style="fill:none;stroke:#263238;stroke-miterlimit:10"></path><path d="M435.25,245.28a21.74,21.74,0,0,0,5.19.28" style="fill:none;stroke:#263238;stroke-miterlimit:10"></path><path d="M435.11,246.69s-.84,1.82,3.51,3.5" style="fill:none;stroke:#263238;stroke-miterlimit:10"></path><polyline points="426.83 241.5 425.43 243.6 428.65 243.74" style="fill:none;stroke:#263238;stroke-miterlimit:10"></polyline><path d="M434.69,238.55a5,5,0,0,1,6.45,1.12" style="fill:none;stroke:#263238;stroke-miterlimit:10;stroke-width:2px"></path><path d="M429.22,238.69s-.28-2.1-2.53-.42" style="fill:none;stroke:#263238;stroke-miterlimit:10;stroke-width:2px"></path><polygon points="436.23 265.2 443.38 260.58 436.65 269.83 436.23 265.2" style="fill:#263238;stroke:#263238;stroke-miterlimit:10"></polygon><polygon points="453.5 264.59 440.29 279.93 444.34 285.69 455.12 269.1 453.5 264.59" style="fill:#fff;stroke:#263238;stroke-linecap:round;stroke-linejoin:round"></polygon><path d="M470.76,313.28a218.11,218.11,0,0,1,5.39,23.31c2.46,13.74,5.16,23.3,5.16,23.3s-5.65,8.83-14.23,14.23-15.21,4.66-15.21,4.66,1.71-15,2-30.17-2.7-33.61-2.7-33.61-2.45-2.21-2.45-11.78,8.83-28,8.83-28" style="fill:#263238;stroke:#263238;stroke-linecap:round;stroke-linejoin:round"></path><path d="M390.05,411.41l2.2,8.83a87.13,87.13,0,0,0-8.58,7.61c-3.19,3.43-12,4.9-9.32,6.38s12,2.94,15.7,1.47a34.36,34.36,0,0,0,7.36-4.42l.24,3.19L405,432s0-4.91-1.47-8.1a24.16,24.16,0,0,0-3.44-5.4l-1.22-5.15Z" style="fill:#263238;stroke:#263238;stroke-linecap:round;stroke-linejoin:round"></path><path d="M399.61,339.29s-23.06-4.91-27-.25S381,411.41,381,411.41l19.13,3.68-6.86-38-3.44-20.86s25.27,9.08,34.84,7.61,7.36-19.14,1.71-22.33S399.61,339.29,399.61,339.29Z" style="fill:#263238;stroke:#263238;stroke-linecap:round;stroke-linejoin:round"></path><path d="M424.15,407c-1,0-2.46,11.29-4.42,15s-4.42,7.36-9.32,9.57-8.34,3.68-6.63,5.39,19.38.49,20.37.49,3.18-.24,3.18-.24a10.1,10.1,0,0,0,3.93-.74c1.23-.73,1.23-5.88,1.23-8.83v-4.17l2.7-9.81S426.84,407,424.15,407Z" style="fill:#fff;stroke:#263238;stroke-linecap:round;stroke-linejoin:round"></path><path d="M423.16,422.2c-2-2.69-3.68,1.23-3.68,1.23l-.67.17a18.2,18.2,0,0,1-8.4,7.93c-4.91,2.2-8.34,3.68-6.63,5.39s19.38.49,20.37.49,3.18-.24,3.18-.24a10.1,10.1,0,0,0,3.93-.74c1.23-.73,1.23-5.88,1.23-8.83a58.49,58.49,0,0,0-7.61-.73S425.13,424.9,423.16,422.2Z" style="fill:#263238;stroke:#263238;stroke-linecap:round;stroke-linejoin:round"></path><path d="M449.1,306.07,444,298.81,440.34,303c-7.92-.13-17.47,5.33-23.92,14.19C408.57,328,406,333.32,406,333.32s5.56.65,3.93,3.59-4.25,2.95-21.26,16.69c-9.89,8-14.8,16.08-16.15,23-2.21.11-3.81.22-3.81.22l-1,3.6.51.68,7.59,10.19a7.89,7.89,0,0,0,2.06,1.39c6.79,5.06,19.45,5.57,35.05-5.37,18.64-13.08,20.54-28.81,20.54-47.45,0,0,1.31-5.23,5.23-6.22s5.89-.32,5.89-.32a36,36,0,0,0,7.2-11.45C453.93,316.24,453.87,310,449.1,306.07Z" style="fill:#92E3A9"></path><path d="M449.1,306.07,444,298.81,440.34,303c-7.92-.13-17.47,5.33-23.92,14.19C408.57,328,406,333.32,406,333.32s5.56.65,3.93,3.59-4.25,2.95-21.26,16.69c-9.89,8-14.8,16.08-16.15,23-2.21.11-3.81.22-3.81.22l-1,3.6.51.68,7.59,10.19a7.89,7.89,0,0,0,2.06,1.39c6.79,5.06,19.45,5.57,35.05-5.37,18.64-13.08,20.54-28.81,20.54-47.45,0,0,1.31-5.23,5.23-6.22s5.89-.32,5.89-.32a36,36,0,0,0,7.2-11.45C453.93,316.24,453.87,310,449.1,306.07Z" style="opacity:0.30000000000000004"></path><path d="M449.1,306.07,444,298.81,440.34,303c-7.92-.13-17.47,5.33-23.92,14.19C408.57,328,406,333.32,406,333.32s5.56.65,3.93,3.59-4.25,2.95-21.26,16.69c-9.89,8-14.8,16.08-16.15,23-2.21.11-3.81.22-3.81.22l-1,3.6.51.68,7.59,10.19a7.89,7.89,0,0,0,2.06,1.39c6.79,5.06,19.45,5.57,35.05-5.37,18.64-13.08,20.54-28.81,20.54-47.45,0,0,1.31-5.23,5.23-6.22s5.89-.32,5.89-.32a36,36,0,0,0,7.2-11.45C453.93,316.24,453.87,310,449.1,306.07Z" style="fill:none;stroke:#263238;stroke-miterlimit:10"></path><path d="M426.6,331s1.31-5.24,5.23-6.22,5.89-.32,5.89-.32a36,36,0,0,0,7.2-11.45c2.61-6.87,2-14.72-6.55-18s-21,2.49-28.82,13.29-10.43,16.15-10.43,16.15,5.56.65,3.93,3.59-4.25,2.95-21.26,16.69-19.3,27.8-14.07,35.65,19.69,11.14,38.34-1.94S426.6,349.67,426.6,331Z" style="fill:#92E3A9;stroke:#263238;stroke-linecap:round;stroke-linejoin:round"></path><polygon points="399.54 337.26 410.44 337.82 409.38 340.34 398 339.42 399.54 337.26" style="fill:#fff;stroke:#263238;stroke-linecap:round;stroke-linejoin:round"></polygon><path d="M459.55,269.37l4.17,8.1s5.16-6.87,7.85-8.84,5.16,0,9.82-2.2,9.56-7.85,6.87-14.48-12.27-6.38-14-1.22,1.47,7.85,3.68,7.6,3.68-2.21,2.21-3.68c0,0,6.62,2.21,1.72,6.38-3.19,2.7-5.64-.25-10.55,2S459.55,269.37,459.55,269.37Z" style="fill:#92E3A9;stroke:#263238;stroke-linecap:round;stroke-linejoin:round"></path><line x1="462.17" y1="269.37" x2="459.55" y2="269.37" style="fill:none;stroke:#263238;stroke-linecap:round;stroke-linejoin:round"></line><path d="M462.66,270.6S440.4,290.37,427.52,305c-9.23,10.45-15.68,19.13-15.68,19.13l6.76.86,13.53-18.45s8.7-11.39,14.83-16.79,17.66-15.21,17.66-15.21Z" style="fill:#263238;stroke:#263238;stroke-linecap:round;stroke-linejoin:round"></path><path d="M463.18,271.77s-35.05,26.75-74.1,83.33" style="fill:none;stroke:#fff;stroke-linecap:round;stroke-linejoin:round;stroke-width:0.5px"></path><path d="M464.41,272.39s-35.05,26.75-74.1,83.32" style="fill:none;stroke:#fff;stroke-linecap:round;stroke-linejoin:round;stroke-width:0.5px"></path><path d="M465.34,273s-35.06,26.75-74.11,83.33" style="fill:none;stroke:#fff;stroke-linecap:round;stroke-linejoin:round;stroke-width:0.5px"></path><circle cx="472.32" cy="263.24" r="2.67" style="fill:#263238;stroke:#263238;stroke-linecap:round;stroke-linejoin:round"></circle><path d="M468.88,267.44a2.68,2.68,0,1,1-2.67-2.67A2.67,2.67,0,0,1,468.88,267.44Z" style="fill:#263238;stroke:#263238;stroke-linecap:round;stroke-linejoin:round"></path><path d="M462.17,269.37l4.17,8.1s5.15-6.87,7.85-8.84,5.15,0,9.81-2.2,9.57-7.85,6.87-14.48-12.26-6.38-14-1.22,1.47,7.85,3.68,7.6,3.68-2.21,2.21-3.68c0,0,6.62,2.21,1.71,6.38-3.18,2.7-5.64-.25-10.54,2S462.17,269.37,462.17,269.37Z" style="fill:#92E3A9"></path><path d="M462.17,269.37l4.17,8.1s5.15-6.87,7.85-8.84,5.15,0,9.81-2.2,9.57-7.85,6.87-14.48-12.26-6.38-14-1.22,1.47,7.85,3.68,7.6,3.68-2.21,2.21-3.68c0,0,6.62,2.21,1.71,6.38-3.18,2.7-5.64-.25-10.54,2S462.17,269.37,462.17,269.37Z" style="opacity:0.30000000000000004"></path><path d="M462.17,269.37l4.17,8.1s5.15-6.87,7.85-8.84,5.15,0,9.81-2.2,9.57-7.85,6.87-14.48-12.26-6.38-14-1.22,1.47,7.85,3.68,7.6,3.68-2.21,2.21-3.68c0,0,6.62,2.21,1.71,6.38-3.18,2.7-5.64-.25-10.54,2S462.17,269.37,462.17,269.37Z" style="fill:none;stroke:#263238;stroke-miterlimit:10"></path><path d="M479.19,267.82a2.67,2.67,0,1,1-2.67-2.67A2.67,2.67,0,0,1,479.19,267.82Z" style="fill:#263238;stroke:#263238;stroke-linecap:round;stroke-linejoin:round"></path><path d="M473.08,272a2.68,2.68,0,1,1-2.67-2.67A2.68,2.68,0,0,1,473.08,272Z" style="fill:#263238;stroke:#263238;stroke-linecap:round;stroke-linejoin:round"></path><path d="M419.24,334.38s-3.68-1-.49-3.19c2.1-1.46,4.17,1.72,2.21,5.15s-7.36,6.14-6.87,9.57,5.64,1.72,6.62-1-1.23-3.19-2.45-1.47" style="fill:none;stroke:#263238;stroke-linecap:round;stroke-linejoin:round"></path><path d="M403.29,332.66s2-2,.49-2.21-3.68,2.95-5.39,5.89-3.44,6.14-6.14,6.38-1.71-2.21.49-3.19,2,1,.74,1.47" style="fill:none;stroke:#263238;stroke-linecap:round;stroke-linejoin:round"></path><path d="M396.15,353.56,389,351.35s-3.9,6.46-4.88,9.9-4.42,10.17-6.38,12.38-3.43,12-3.43,12l1.47,1L382,376.08s3.45-8.63,4.67-10.83S396.15,353.56,396.15,353.56Z" style="fill:#263238;stroke:#263238;stroke-linecap:round;stroke-linejoin:round"></path><path d="M375.57,388.84l-15,42.74a.84.84,0,0,0,.41,1h0a.83.83,0,0,0,1.15-.45l16.11-42.81Z" style="fill:#fff;stroke:#263238;stroke-linecap:round;stroke-linejoin:round"></path><path d="M367.52,403.42l-3.23,17.07,2,.73,9.43-16.16a1.16,1.16,0,0,0-.84-1.74l-6-.83A1.15,1.15,0,0,0,367.52,403.42Z" style="fill:#263238;stroke:#263238;stroke-linecap:round;stroke-linejoin:round"></path><path d="M455.79,358.42s2.95-12.76-4.9-17.91-17.18,2.21-19.63,7.85-2.21,16.69-3.93,26.5-7.6,32.38-7.6,32.38,8.59,4.91,9.81,5.89l4.66,3.68s3.68-9.57,11.29-25.27S455.3,364.55,455.79,358.42Z" style="fill:#263238;stroke:#263238;stroke-linecap:round;stroke-linejoin:round"></path><path d="M464.13,301.26a48.13,48.13,0,0,1-6.62-9.08c-2.45-4.66-7.11-7.11-8.34-7.11s-4.42,1.23-6.87,2.7a17.15,17.15,0,0,0-4.17,3.68s-4.17-.74-3.68.73,4.17.25,6.38,2,6.38,5.39,8.58,6.38A30,30,0,0,0,456,302l5.89,7.36,4.66-6.38Z" style="fill:#fff;stroke:#263238;stroke-linecap:round;stroke-linejoin:round"></path><polygon points="462.75 298.8 456.21 306.7 458.67 308.61 465.36 301.02 462.75 298.8" style="fill:#fff;stroke:#263238;stroke-linecap:round;stroke-linejoin:round"></polygon><path d="M465.36,301l-9.32,11A119.87,119.87,0,0,0,474,323.83c9.81,5.15,18.15,7.12,21.09.74s2.46-6.63-2.94-11.78S465.36,301,465.36,301Z" style="fill:#263238;stroke:#263238;stroke-linecap:round;stroke-linejoin:round"></path><path d="M384.16,314s-1.72-4.91-3.44-5.15-3.68,1-5.15,2.7-6.13,7.85-6.62,8.83a65.92,65.92,0,0,0-3.44,6.37c-1,2.46-1.71,4.67,0,3.93s3.44-5.64,3.44-5.64-.74,4.41-.25,5.39,1.23,3.44,2.46,4.18,4.9-1.48,4.9-1.48,2,1.23,2.95-1.47,1.22-.73,2.94-6.62S382.69,318.68,384.16,314Z" style="fill:#fff;stroke:#263238;stroke-linecap:round;stroke-linejoin:round"></path><path d="M376.06,333.15a22.91,22.91,0,0,0,.49-5.88c0-1.72,1.72-4.17,1.72-4.17" style="fill:none;stroke:#263238;stroke-linecap:round;stroke-linejoin:round"></path><path d="M372.63,334.38c.24-.74-2-3.93-2-6.62s1.47-3.44,1.47-4.42" style="fill:none;stroke:#263238;stroke-linecap:round;stroke-linejoin:round"></path><path d="M374.1,323.34s-1.47,3.43-1,4.91,1.47,5.64,1.47,5.64" style="fill:none;stroke:#263238;stroke-linecap:round;stroke-linejoin:round"></path><line x1="377.3" y1="327.3" x2="437.64" y2="332.42" style="fill:none;stroke:#263238;stroke-linecap:round;stroke-linejoin:round;stroke-width:2px"></line><polyline points="435.43 332.42 436.17 334.87 377.04 329.47" style="fill:none;stroke:#263238;stroke-linecap:round;stroke-linejoin:round"></polyline><polygon points="336.16 318.03 390.95 318.03 378.58 276.09 323.8 276.09 336.16 318.03" style="fill:#fff;stroke:#263238;stroke-linecap:round;stroke-linejoin:round"></polygon><line x1="390.95" y1="318.03" x2="336.16" y2="318.03" style="fill:none;stroke:#263238;stroke-linecap:round;stroke-linejoin:round;stroke-width:3px"></line><polyline points="392.88 437.95 363.66 404.8 363.66 317.71 351.86 277.81" style="fill:none;stroke:#263238;stroke-linecap:round;stroke-linejoin:round;stroke-width:3px"></polyline><line x1="363.66" y1="404.8" x2="335" y2="437.39" style="fill:none;stroke:#263238;stroke-linecap:round;stroke-linejoin:round;stroke-width:3px"></line><line x1="363.66" y1="407.05" x2="363.66" y2="437.39" style="fill:none;stroke:#263238;stroke-linecap:round;stroke-linejoin:round;stroke-width:3px"></line><polyline points="384.45 317.14 353.55 282.87 341.18 316.02" style="fill:none;stroke:#263238;stroke-linecap:round;stroke-linejoin:round"></polyline></g><g id="character-5"><path d="M652.72,309.85s-8.46,51.81-9,63.13c-1.24,27,2.32,63.13,2.32,63.13" style="fill:none;stroke:#263238;stroke-linecap:round;stroke-linejoin:round;stroke-width:3px"></path><line x1="595.99" y1="373.3" x2="598.56" y2="436.05" style="fill:none;stroke:#263238;stroke-linecap:round;stroke-linejoin:round;stroke-width:3px"></line><line x1="570.35" y1="373.62" x2="561.38" y2="436.37" style="fill:none;stroke:#263238;stroke-linecap:round;stroke-linejoin:round;stroke-width:3px"></line><path d="M606.88,370.73a22.42,22.42,0,0,0-.31,2.25c-.45,27.48,2.25,62.78,2.25,62.78" style="fill:none;stroke:#263238;stroke-linecap:round;stroke-linejoin:round;stroke-width:3px"></path><path d="M619.71,302.15H644a8.76,8.76,0,0,1,8.25,5.8h0a8.73,8.73,0,0,1,.37,4.53l-6,32.94H612Z" style="fill:#787878;stroke:#263238;stroke-linecap:round;stroke-linejoin:round"></path><rect x="564.59" y="362.08" width="81.72" height="12.82" rx="5.32" style="fill:#787878;stroke:#263238;stroke-linecap:round;stroke-linejoin:round"></rect><path d="M591.27,274.77s-20.12,2.21-23.55,3.43-5.4,2.21-12.76,6.38-16.19,6.62-20.85,10.3S522.58,315,522.58,315l7.85,7.11s-.25.49,5.64-5.64S550.79,302,555.7,300.28a53.88,53.88,0,0,1,11-2.7c1,0,5.39,2.46,5.39,2.46L568,349.77s11.29,2,20.12,2.45,34.1-3.92,34.1-3.92l.74-40.91,21.58,11.29s1-1-3.19-12.76-2.69-16.19-5.88-20.85-17.67-6.13-20.61-7.6-16-2.7-17.91-2.7Z" style="fill:#263238;stroke:#263238;stroke-linecap:round;stroke-linejoin:round"></path><path d="M619.24,313.28a218.11,218.11,0,0,1,5.39,23.31c2.46,13.74,5.15,23.3,5.15,23.3s-5.64,8.83-14.22,14.23-15.21,4.66-15.21,4.66,1.71-15,2-30.17-2.7-33.61-2.7-33.61-2.45-2.21-2.45-11.78,8.83-28,8.83-28" style="fill:#263238;stroke:#263238;stroke-linecap:round;stroke-linejoin:round"></path><path d="M538.31,412.94l2.21,8.83a87.5,87.5,0,0,0-8.59,7.6c-3.19,3.44-12,4.91-9.32,6.38s12,2.94,15.7,1.47a34.52,34.52,0,0,0,7.36-4.41l.25,3.19,7.36-2.46s0-4.9-1.48-8.09a24.34,24.34,0,0,0-3.43-5.4l-1.23-5.15Z" style="fill:#263238;stroke:#263238;stroke-linecap:round;stroke-linejoin:round"></path><path d="M548.09,339.29s-23.06-4.91-27-.25,8.12,73.9,8.12,73.9l19.14,3.67-6.66-39.54-3.43-20.86s25.27,9.08,34.84,7.61,7.36-19.14,1.71-22.33S548.09,339.29,548.09,339.29Z" style="fill:#263238;stroke:#263238;stroke-linecap:round;stroke-linejoin:round"></path><path d="M587.64,269.7s2.57,6.65,2.57,11.15-1.93,8.57-.64,9.43,6.64-6.22,11.14-9.86,7.08-4.07,7.08-8.79V260.91s-7.93,5.79-12.65,6.65A34.32,34.32,0,0,0,587.64,269.7Z" style="fill:#fff;stroke:#263238;stroke-linecap:round;stroke-linejoin:round"></path><path d="M578.83,259.14s-.33,4.22-2,5.52L575.26,266s5.51,2.6,6.49,2.6-.33-8.44-.33-8.44Z" style="fill:#263238;stroke:#263238;stroke-linecap:round;stroke-linejoin:round"></path><path d="M581.85,238.84s-3,4.93-3,8.36-1.72,12.43,0,16.72,2.36,8.78,6.86,8.78,12.86-3.43,14.79-5.14,5.14-8.79,1.71-15.65S590,239.05,588.5,238.84A65.13,65.13,0,0,0,581.85,238.84Z" style="fill:#fff;stroke:#263238;stroke-linecap:round;stroke-linejoin:round"></path><path d="M583.14,251.7a21.67,21.67,0,0,1-2.58,4.07c-1.07,1.07-2.35,2.36.65,3a12.06,12.06,0,0,0,4.07.43" style="fill:none;stroke:#263238;stroke-linecap:round;stroke-linejoin:round"></path><path d="M581,262.63s1.93,1.07,5.58.43" style="fill:none;stroke:#263238;stroke-linecap:round;stroke-linejoin:round"></path><path d="M589.78,253c0,1-.33,1.72-.75,1.72s-.75-.77-.75-1.72.34-1.71.75-1.71S589.78,252,589.78,253Z" style="fill:#263238"></path><path d="M581.31,251.91c0,1-.33,1.72-.75,1.72s-.75-.77-.75-1.72.34-1.71.75-1.71S581.31,251,581.31,251.91Z" style="fill:#263238"></path><path d="M579.92,247.2a2.2,2.2,0,0,1,3-.43" style="fill:none;stroke:#263238;stroke-linecap:round;stroke-linejoin:round"></path><path d="M580.56,255.77a3.11,3.11,0,0,1-3.8,0c-1.93-1.5-3.22-6-1.5-7.07s8.09-.43,8.09-.43l5.15.43" style="fill:none;stroke:#263238;stroke-linecap:round;stroke-linejoin:round"></path><path d="M582.72,250.06s1.07-1.93,2.14.42,1.79,7.69,5.65,7.69a7.7,7.7,0,0,0,5.92-2.83" style="fill:none;stroke:#263238;stroke-linecap:round;stroke-linejoin:round"></path><path d="M597.71,256s-10.71-7.07-14.57-13.29-7.08-10.07-2.36-12.21,19.29-5.15,30.44-.43,12.22,15,12.22,21.86,1.1,9.62,0,11.33-4.72,5.57-13.72,5.57a60.11,60.11,0,0,1-15-1.71S599.21,267.13,597.71,256Z" style="fill:#263238;stroke:#263238;stroke-linecap:round;stroke-linejoin:round"></path><path d="M597.58,306.07l-5.08-7.26L588.82,303c-7.92-.13-17.47,5.33-23.92,14.19-7.85,10.79-10.43,16.15-10.43,16.15s5.56.65,3.93,3.59-4.26,2.95-21.26,16.69c-9.89,8-14.8,16.08-16.15,23-2.21.11-3.81.22-3.81.22l-1,3.6.51.68,7.59,10.19a7.89,7.89,0,0,0,2.06,1.39c6.79,5.06,19.45,5.57,35-5.37C580.05,374.23,582,358.5,582,339.86c0,0,1.31-5.23,5.23-6.22s5.89-.32,5.89-.32a35.85,35.85,0,0,0,7.19-11.45C602.41,316.24,602.35,310,597.58,306.07Z" style="fill:#92E3A9"></path><path d="M597.58,306.07l-5.08-7.26L588.82,303c-7.92-.13-17.47,5.33-23.92,14.19-7.85,10.79-10.43,16.15-10.43,16.15s5.56.65,3.93,3.59-4.26,2.95-21.26,16.69c-9.89,8-14.8,16.08-16.15,23-2.21.11-3.81.22-3.81.22l-1,3.6.51.68,7.59,10.19a7.89,7.89,0,0,0,2.06,1.39c6.79,5.06,19.45,5.57,35-5.37C580.05,374.23,582,358.5,582,339.86c0,0,1.31-5.23,5.23-6.22s5.89-.32,5.89-.32a35.85,35.85,0,0,0,7.19-11.45C602.41,316.24,602.35,310,597.58,306.07Z" style="opacity:0.30000000000000004"></path><path d="M597.58,306.07l-5.08-7.26L588.82,303c-7.92-.13-17.47,5.33-23.92,14.19-7.85,10.79-10.43,16.15-10.43,16.15s5.56.65,3.93,3.59-4.26,2.95-21.26,16.69c-9.89,8-14.8,16.08-16.15,23-2.21.11-3.81.22-3.81.22l-1,3.6.51.68,7.59,10.19a7.89,7.89,0,0,0,2.06,1.39c6.79,5.06,19.45,5.57,35-5.37C580.05,374.23,582,358.5,582,339.86c0,0,1.31-5.23,5.23-6.22s5.89-.32,5.89-.32a35.85,35.85,0,0,0,7.19-11.45C602.41,316.24,602.35,310,597.58,306.07Z" style="fill:none;stroke:#263238;stroke-miterlimit:10"></path><path d="M575.08,331s1.31-5.24,5.23-6.22,5.89-.32,5.89-.32A36,36,0,0,0,593.4,313c2.61-6.87,2-14.72-6.55-18s-21,2.49-28.82,13.29-10.43,16.15-10.43,16.15,5.56.65,3.93,3.59-4.25,2.95-21.26,16.69-19.3,27.8-14.07,35.65,19.69,11.14,38.34-1.94S575.08,349.67,575.08,331Z" style="fill:#92E3A9;stroke:#263238;stroke-linecap:round;stroke-linejoin:round"></path><polygon points="548.01 337.26 558.92 337.82 557.85 340.34 546.48 339.42 548.01 337.26" style="fill:#fff;stroke:#263238;stroke-linecap:round;stroke-linejoin:round"></polygon><path d="M608,269.37l4.17,8.1s5.15-6.87,7.85-8.84,5.16,0,9.82-2.2,9.56-7.85,6.87-14.48-12.27-6.38-14-1.22,1.47,7.85,3.68,7.6,3.68-2.21,2.21-3.68c0,0,6.62,2.21,1.72,6.38-3.19,2.7-5.65-.25-10.55,2S608,269.37,608,269.37Z" style="fill:#92E3A9;stroke:#263238;stroke-linecap:round;stroke-linejoin:round"></path><path d="M611.14,270.6S588.88,290.37,576,305c-9.23,10.45-15.68,19.13-15.68,19.13l6.76.86,13.53-18.45s8.7-11.39,14.83-16.79,17.66-15.21,17.66-15.21Z" style="fill:#263238;stroke:#263238;stroke-linecap:round;stroke-linejoin:round"></path><path d="M611.66,271.77s-35,26.75-74.1,83.33" style="fill:none;stroke:#fff;stroke-linecap:round;stroke-linejoin:round;stroke-width:0.5px"></path><path d="M612.89,272.39s-35,26.75-74.1,83.32" style="fill:none;stroke:#fff;stroke-linecap:round;stroke-linejoin:round;stroke-width:0.5px"></path><path d="M613.82,273s-35.06,26.75-74.11,83.33" style="fill:none;stroke:#fff;stroke-linecap:round;stroke-linejoin:round;stroke-width:0.5px"></path><circle cx="620.8" cy="263.24" r="2.67" style="fill:#263238;stroke:#263238;stroke-linecap:round;stroke-linejoin:round"></circle><circle cx="614.69" cy="267.44" r="2.67" style="fill:#263238;stroke:#263238;stroke-linecap:round;stroke-linejoin:round"></circle><path d="M610.65,269.37l4.17,8.1s5.15-6.87,7.85-8.84,5.15,0,9.81-2.2,9.57-7.85,6.87-14.48-12.26-6.38-14-1.22,1.47,7.85,3.68,7.6,3.68-2.21,2.21-3.68c0,0,6.62,2.21,1.71,6.38-3.18,2.7-5.64-.25-10.55,2S610.65,269.37,610.65,269.37Z" style="fill:#92E3A9"></path><path d="M610.65,269.37l4.17,8.1s5.15-6.87,7.85-8.84,5.15,0,9.81-2.2,9.57-7.85,6.87-14.48-12.26-6.38-14-1.22,1.47,7.85,3.68,7.6,3.68-2.21,2.21-3.68c0,0,6.62,2.21,1.71,6.38-3.18,2.7-5.64-.25-10.55,2S610.65,269.37,610.65,269.37Z" style="opacity:0.30000000000000004"></path><path d="M610.65,269.37l4.17,8.1s5.15-6.87,7.85-8.84,5.15,0,9.81-2.2,9.57-7.85,6.87-14.48-12.26-6.38-14-1.22,1.47,7.85,3.68,7.6,3.68-2.21,2.21-3.68c0,0,6.62,2.21,1.71,6.38-3.18,2.7-5.64-.25-10.55,2S610.65,269.37,610.65,269.37Z" style="fill:none;stroke:#263238;stroke-miterlimit:10"></path><path d="M627.67,267.82a2.68,2.68,0,1,1-2.67-2.67A2.68,2.68,0,0,1,627.67,267.82Z" style="fill:#263238;stroke:#263238;stroke-linecap:round;stroke-linejoin:round"></path><path d="M621.56,272a2.68,2.68,0,1,1-2.67-2.67A2.68,2.68,0,0,1,621.56,272Z" style="fill:#263238;stroke:#263238;stroke-linecap:round;stroke-linejoin:round"></path><path d="M567.72,334.38s-3.68-1-.49-3.19c2.1-1.46,4.17,1.72,2.21,5.15s-7.36,6.14-6.87,9.57,5.64,1.72,6.62-1-1.23-3.19-2.45-1.47" style="fill:none;stroke:#263238;stroke-linecap:round;stroke-linejoin:round"></path><path d="M551.77,332.66s2-2,.49-2.21-3.68,2.95-5.39,5.89-3.44,6.14-6.14,6.38-1.71-2.21.49-3.19,2,1,.74,1.47" style="fill:none;stroke:#263238;stroke-linecap:round;stroke-linejoin:round"></path><path d="M544.63,353.56l-7.11-2.21s-3.9,6.46-4.88,9.9-4.42,10.17-6.38,12.38-3.44,12-3.44,12l1.48,1,6.13-10.55s3.44-8.63,4.67-10.83S544.63,353.56,544.63,353.56Z" style="fill:#263238;stroke:#263238;stroke-linecap:round;stroke-linejoin:round"></path><path d="M524.05,388.84l-15,42.74a.83.83,0,0,0,.41,1h0a.83.83,0,0,0,1.15-.45l16.11-42.81Z" style="fill:#fff;stroke:#263238;stroke-linecap:round;stroke-linejoin:round"></path><path d="M516,403.42l-3.23,17.07,2,.73,9.43-16.16a1.17,1.17,0,0,0-.84-1.74l-6-.83A1.15,1.15,0,0,0,516,403.42Z" style="fill:#263238;stroke:#263238;stroke-linecap:round;stroke-linejoin:round"></path><line x1="610.65" y1="269.37" x2="608.03" y2="269.37" style="fill:none;stroke:#263238;stroke-linecap:round;stroke-linejoin:round"></line><path d="M612.61,301.26a48.13,48.13,0,0,1-6.62-9.08c-2.45-4.66-7.12-7.11-8.34-7.11s-4.42,1.23-6.87,2.7a17.15,17.15,0,0,0-4.17,3.68s-4.17-.74-3.68.73,4.17.25,6.38,2,6.37,5.39,8.58,6.38a30,30,0,0,0,6.63,1.47l5.88,7.36,4.67-6.38Z" style="fill:#fff;stroke:#263238;stroke-linecap:round;stroke-linejoin:round"></path><path d="M613.84,301l-9.32,11a120.08,120.08,0,0,0,17.9,11.77c9.82,5.15,18.16,7.12,21.1.74s2.46-6.63-2.94-11.78S613.84,301,613.84,301Z" style="fill:#263238;stroke:#263238;stroke-linecap:round;stroke-linejoin:round"></path><path d="M532.64,314s-1.72-4.91-3.44-5.15-3.68,1-5.15,2.7-6.13,7.85-6.62,8.83a63.76,63.76,0,0,0-3.44,6.37c-1,2.46-1.71,4.67,0,3.93s3.44-5.64,3.44-5.64-.74,4.41-.25,5.39,1.23,3.44,2.46,4.18,4.9-1.48,4.9-1.48,2,1.23,3-1.47,1.22-.73,2.94-6.62S531.17,318.68,532.64,314Z" style="fill:#fff;stroke:#263238;stroke-linecap:round;stroke-linejoin:round"></path><path d="M524.54,333.15a22.91,22.91,0,0,0,.49-5.88c0-1.72,1.72-4.17,1.72-4.17" style="fill:none;stroke:#263238;stroke-linecap:round;stroke-linejoin:round"></path><path d="M521.11,334.38c.24-.74-2-3.93-2-6.62s1.47-3.44,1.47-4.42" style="fill:none;stroke:#263238;stroke-linecap:round;stroke-linejoin:round"></path><path d="M522.58,323.34s-1.47,3.43-1,4.91,1.47,5.64,1.47,5.64" style="fill:none;stroke:#263238;stroke-linecap:round;stroke-linejoin:round"></path><line x1="525.78" y1="327.3" x2="586.12" y2="332.42" style="fill:none;stroke:#263238;stroke-linecap:round;stroke-linejoin:round;stroke-width:2px"></line><polyline points="583.91 332.42 584.65 334.87 525.52 329.47" style="fill:none;stroke:#263238;stroke-linecap:round;stroke-linejoin:round"></polyline><path d="M572.62,407c-1,0-2.45,11.29-4.41,15s-4.42,7.36-9.32,9.57-8.34,3.68-6.63,5.39,19.38.49,20.36.49,3.19-.24,3.19-.24a10.1,10.1,0,0,0,3.93-.74c1.23-.73,1.23-5.88,1.23-8.83v-4.17l2.69-9.81S575.32,407,572.62,407Z" style="fill:#fff;stroke:#263238;stroke-linecap:round;stroke-linejoin:round"></path><path d="M571.64,422.2c-2-2.69-3.68,1.23-3.68,1.23l-.67.17a18.2,18.2,0,0,1-8.4,7.93c-4.91,2.2-8.34,3.68-6.63,5.39s19.38.49,20.36.49,3.19-.24,3.19-.24a10.1,10.1,0,0,0,3.93-.74c1.23-.73,1.23-5.88,1.23-8.83a58.49,58.49,0,0,0-7.61-.73S573.61,424.9,571.64,422.2Z" style="fill:#263238;stroke:#263238;stroke-linecap:round;stroke-linejoin:round"></path><path d="M604.27,358.42s3-12.76-4.91-17.91-17.17,2.21-19.62,7.85-2.21,16.69-3.93,26.5-7.6,32.38-7.6,32.38,8.59,4.91,9.81,5.89l4.66,3.68s3.68-9.57,11.29-25.27S603.78,364.55,604.27,358.42Z" style="fill:#263238;stroke:#263238;stroke-linecap:round;stroke-linejoin:round"></path><polygon points="476.46 318.03 531.25 318.03 518.89 276.09 464.1 276.09 476.46 318.03" style="fill:#fff;stroke:#263238;stroke-linecap:round;stroke-linejoin:round"></polygon><line x1="531.25" y1="318.03" x2="476.47" y2="318.03" style="fill:none;stroke:#263238;stroke-linecap:round;stroke-linejoin:round;stroke-width:3px"></line><polyline points="533.19 437.95 503.97 404.8 503.97 317.71 492.17 277.81" style="fill:none;stroke:#263238;stroke-linecap:round;stroke-linejoin:round;stroke-width:3px"></polyline><line x1="503.97" y1="404.8" x2="475.31" y2="437.39" style="fill:none;stroke:#263238;stroke-linecap:round;stroke-linejoin:round;stroke-width:3px"></line><line x1="503.97" y1="407.05" x2="503.97" y2="437.39" style="fill:none;stroke:#263238;stroke-linecap:round;stroke-linejoin:round;stroke-width:3px"></line><polyline points="524.76 317.14 493.85 282.87 481.49 316.02" style="fill:none;stroke:#263238;stroke-linecap:round;stroke-linejoin:round"></polyline></g><g id="character-2"><path d="M250.35,412.06s0,14.79.69,16.83,1.13,9.78,4.32,11.83,5.68,2.73,5.91-1.82-4.55-10.69-5-12,3.41-14.79,3.41-14.79Z" style="fill:#fff;stroke:#263238;stroke-linecap:round;stroke-linejoin:round"></path><path d="M251,428.89c.68,2.05,1.13,9.78,4.32,11.83s5.68,2.73,5.91-1.82-4.55-10.69-5-12c0,0-2.28-1.6-3.19-.46a4,4,0,0,0-.91,2.28l-1.37-1.23A7.31,7.31,0,0,0,251,428.89Z" style="fill:#263238;stroke:#263238;stroke-linecap:round;stroke-linejoin:round"></path><path d="M235.12,411.61l2,16.15s-5.68,5.45-8.87,7.5-4.09,2.5-3.41,3.18,1.59,1.6,5.91.91,9.56-1.81,11.15-2.27,3.64.23,3.64-2.05-.46-9.32-.46-9.32l-1.13-15Z" style="fill:#fff;stroke:#263238;stroke-linecap:round;stroke-linejoin:round"></path><path d="M245.58,435c0-1-.09-3-.19-4.85l-4.82,1.9a16.54,16.54,0,0,1-1.36-3.41,1.47,1.47,0,0,0-2.07-1.11l0,.2s-5.68,5.45-8.87,7.5-4.09,2.5-3.41,3.18,1.59,1.6,5.91.91,9.56-1.81,11.15-2.27S245.58,437.31,245.58,435Z" style="fill:#263238;stroke:#263238;stroke-linecap:round;stroke-linejoin:round"></path><path d="M245.91,217.87s-12.87,3-16.54,2.75-6.43,3.45-8,7.58-15.85,26.88-16.08,30.55,3.22,7.12,5.51,7.35S225.23,247,225.23,247s3.45,14.47,3.45,17.45a42.64,42.64,0,0,1-3.45,14.7c-2.29,5.06-8.49,25.73-8.49,38.59s7.58,45,8,49.61,5.74,44.79,5.74,44.79a24.28,24.28,0,0,0,8,2.3,15.59,15.59,0,0,0,7.12-1.38l-.46-63.39,3.21,62.7a11.91,11.91,0,0,0,7.58,3.22c4.37,0,8.27-3.22,8.27-3.22l6.66-62.7,3-42s-.23-12.87-4.14-23.2-6.2-14-6.2-16.54,9.65-23.2,9.65-31.47.69-15.16-5.05-17-14.93-1.84-16.77-2.3S245.91,217.87,245.91,217.87Z" style="fill:#263238;stroke:#263238;stroke-linecap:round;stroke-linejoin:round"></path><path d="M230.06,273l7.81,2.07L236,287.92h1.84l1.38-11.71.68,12.63,2.3-.92-1.15-12.4s10.34,2.07,19.3-2.76" style="fill:none;stroke:#fff;stroke-linecap:round;stroke-linejoin:round"></path><polyline points="237.18 300.56 243.15 310.2 245.22 349.71" style="fill:none;stroke:#263238;stroke-linecap:round;stroke-linejoin:round"></polyline><path d="M263.59,267.94c0-2.53,9.65-23.2,9.65-31.47s.69-15.16-5.05-17-14.93-1.84-16.77-2.3-5.51.69-5.51.69-12.87,3-16.54,2.75-6.43,3.45-8,7.58c-.8,2.05-4.7,8.68-8.46,15.29l7.32,11.23c2.77-4.07,5-7.68,5-7.68s3.45,14.47,3.45,17.45a31.42,31.42,0,0,1-.63,5.42c4.34,2,19.81,7.91,35.73-.59A6.07,6.07,0,0,1,263.59,267.94Z" style="fill:#263238;stroke:#263238;stroke-linecap:round;stroke-linejoin:round"></path><path d="M214.84,240.05c-4.43,7.71-9.45,16.53-9.59,18.7-.23,3.68,3.22,7.12,5.51,7.35,1.77.18,9.4-11.22,12.81-16.47C222,241.35,217.55,240,214.84,240.05Z" style="fill:#ccc;stroke:#263238;stroke-linecap:round;stroke-linejoin:round"></path><path d="M240.16,209.83s1.38,13.55,2.53,18.37,6.89,6,8.73,2.53,2.76-22.51,2.76-22.51Z" style="fill:#ccc;stroke:#263238;stroke-linecap:round;stroke-linejoin:round"></path><path d="M233.5,195.82s-2.75-3.22-4.13,0,1.84,6,3.44,7.58,2.76.69,2.76-.92S233.5,195.82,233.5,195.82Z" style="fill:#ccc;stroke:#263238;stroke-linecap:round;stroke-linejoin:round"></path><path d="M257.62,194.21s2.3-2.53,3.22.92-1.61,6.2-3.45,8.27-1.61-2.3-1.61-2.3Z" style="fill:#ccc;stroke:#263238;stroke-linecap:round;stroke-linejoin:round"></path><path d="M263.59,178.82a3.91,3.91,0,0,0-3.9-3.9h-.1a3.9,3.9,0,1,0-5.71-4.92,3.07,3.07,0,0,0,.07-.6,3.9,3.9,0,0,0-7.16-2.16c0-.12,0-.24,0-.37a3.91,3.91,0,1,0-7.81,0c0,.11,0,.22,0,.33a3.85,3.85,0,0,0-2.33-.79,3.91,3.91,0,0,0-3.91,3.9,3.39,3.39,0,0,0,.07.64,3.9,3.9,0,1,0-4.22,6.56,3.89,3.89,0,0,0,.49,7.71,3.9,3.9,0,0,0,2.75,6.68,3.85,3.85,0,0,0,2.33-.79,6.18,6.18,0,0,0,2.72,1c2.75.23,5.74,1.61,9.42,1.38,3.27-.2,8-4.22,9-5.1a3.9,3.9,0,1,0,4.89-5.75A3.89,3.89,0,0,0,263.59,178.82Z" style="fill:#263238;stroke:#263238;stroke-linecap:round;stroke-linejoin:round"></path><path d="M252.79,177.81c-5.18-3.36-11.1-3.4-15.64.77a28.34,28.34,0,0,0-3.88,4.38c-3.9,5.51,1.15,18.37,2.07,21.59s7.35,12.17,13.09,10.33,7.81-6.66,9-13.55.92-14.93-.69-19.06A9.73,9.73,0,0,0,252.79,177.81Z" style="fill:#ccc;stroke:#263238;stroke-linecap:round;stroke-linejoin:round"></path><path d="M237.64,197a5.18,5.18,0,0,0,5.28,0" style="fill:none;stroke:#263238;stroke-linecap:round;stroke-linejoin:round"></path><path d="M251.19,196.51a5.6,5.6,0,0,0,5.74-.92" style="fill:none;stroke:#263238;stroke-linecap:round;stroke-linejoin:round"></path><path d="M248,196.51s-.69,1.84.46,2.29,2.3,1.84.69,2.76-2.75.92-3.21-.92" style="fill:none;stroke:#263238;stroke-linecap:round;stroke-linejoin:round"></path><path d="M236.26,194s.92-2.07,6.2-1.61" style="fill:none;stroke:#263238;stroke-linecap:round;stroke-linejoin:round"></path><path d="M250,192.14a7.82,7.82,0,0,1,6.2.69" style="fill:none;stroke:#263238;stroke-linecap:round;stroke-linejoin:round"></path><path d="M235.34,184.33a47.33,47.33,0,0,1,7.58-4.82s6.78,6.64,15.08,9.72a25,25,0,0,0-1.3-7,9.73,9.73,0,0,0-3.91-4.46c-5.18-3.36-11.1-3.4-15.64.77a28.34,28.34,0,0,0-3.88,4.38,9.41,9.41,0,0,0-1.44,5.09A10.66,10.66,0,0,1,235.34,184.33Z" style="fill:#263238;stroke:#263238;stroke-linecap:round;stroke-linejoin:round"></path><path d="M214.67,262.2c-2.07,3-4.82,5.51-7.35,4.82s-6.66-5.28-9.65-9-10.56-17.45-10.56-17.45-3.45-8.5-3.91-10.11-1.15-6.89-1.15-6.89-3.9,0-4.59-.69,3.91-.69,3.91-.69-3-.46-3-1.38,6.43-.68,6.43-.68a13.48,13.48,0,0,1-3.9-1.61c-1.15-.92,0-1.38,0-1.38l7.35,1.84a28.92,28.92,0,0,1-3-3.68c-.23-.69.69-1.61,2.53,0s5.74,4.37,5.74,4.37a18,18,0,0,0-1.38,5c-.23,2.53-1.15,6.66-1.15,6.66s2.3,8.27,6.43,11.48,13.55,10.34,15.62,16.31" style="fill:#ccc;stroke:#263238;stroke-linecap:round;stroke-linejoin:round"></path><path d="M187.57,233s-1.38-3.22-.69-5.29,3.44-4.13,3.67-5.28a15.12,15.12,0,0,0,.23-2.52" style="fill:none;stroke:#263238;stroke-linecap:round;stroke-linejoin:round"></path><path d="M167.12,226.92a1.47,1.47,0,0,1-.33-2.9l90.27-21.14a1.47,1.47,0,0,1,.67,2.87l-90.27,21.13A1.32,1.32,0,0,1,167.12,226.92Z" style="fill:#92E3A9;stroke:#263238;stroke-linecap:round;stroke-linejoin:round"></path><path d="M174.52,222.66c.06.26-.38.57-1,.69s-1.12,0-1.17-.24.38-.57,1-.7S174.47,222.4,174.52,222.66Z" style="fill:#fff;stroke:#263238;stroke-linecap:round;stroke-linejoin:round;stroke-width:0.5px"></path><path d="M183.86,220.43c0,.26-.39.57-1,.7s-1.12,0-1.17-.25.38-.57,1-.69S183.8,220.17,183.86,220.43Z" style="fill:#fff;stroke:#263238;stroke-linecap:round;stroke-linejoin:round;stroke-width:0.5px"></path><path d="M193.19,218.21c.05.26-.38.57-1,.69s-1.11,0-1.17-.24.38-.57,1-.69S193.14,218,193.19,218.21Z" style="fill:#fff;stroke:#263238;stroke-linecap:round;stroke-linejoin:round;stroke-width:0.5px"></path><path d="M202.52,216c.06.26-.38.57-1,.69s-1.12,0-1.17-.24.38-.57,1-.7S202.47,215.73,202.52,216Z" style="fill:#fff;stroke:#263238;stroke-linecap:round;stroke-linejoin:round;stroke-width:0.5px"></path><path d="M211.86,213.76c0,.26-.38.57-1,.7s-1.12,0-1.17-.25.38-.57,1-.69S211.8,213.5,211.86,213.76Z" style="fill:#fff;stroke:#263238;stroke-linecap:round;stroke-linejoin:round;stroke-width:0.5px"></path><path d="M221.19,211.54c.06.26-.38.57-1,.7s-1.12,0-1.18-.25.39-.57,1-.69S221.14,211.28,221.19,211.54Z" style="fill:#fff;stroke:#263238;stroke-linecap:round;stroke-linejoin:round;stroke-width:0.5px"></path><path d="M261.75,222.46s4.14-7.58,11.49-2.75,0,15.61-3.45,21.13-17.91,17-20.44,17.68-36.52-23.88-37.9-24.8-5-3.22-6.43-5.29a18.11,18.11,0,0,1-2.06-4.36s-5.29-2.3-6.9-3.22-1.14-1.83-.22-1.6,5.28,1.6,5.28,1.6-3-2.52-4.14-3.44-.69-1.61.69-1.38a15.16,15.16,0,0,1,2.07.46s3.67-4.13,4.36-3.9a5.22,5.22,0,0,1,1.61,1.37s2.3-1.83,3-1.14.69,2.06,1.38,7.35a24.89,24.89,0,0,0,2.52,8.49s13.32,5.75,19.53,8a126.92,126.92,0,0,0,15.15,4.14s13.33-14.24,13.1-13.55" style="fill:#263238;stroke:#263238;stroke-linecap:round;stroke-linejoin:round"></path><path d="M269.2,241.7c-5.4-7.92-10.52-9.48-13.9-9.35-3.68,3.86-8,8.49-8,8.49a126.92,126.92,0,0,1-15.15-4.14c-6.21-2.29-19.53-8-19.53-8a24.89,24.89,0,0,1-2.52-8.49c-.69-5.29-.69-6.67-1.38-7.35s-3,1.14-3,1.14a5.22,5.22,0,0,0-1.61-1.37c-.69-.23-4.36,3.9-4.36,3.9a15.16,15.16,0,0,0-2.07-.46c-1.38-.23-1.83.46-.69,1.38s4.14,3.44,4.14,3.44-4.37-1.37-5.28-1.6-1.38.69.22,1.6,6.9,3.22,6.9,3.22a18.11,18.11,0,0,0,2.06,4.36c1.38,2.07,5.06,4.37,6.43,5.29s35.38,25.49,37.9,24.8S264.94,247.46,269.2,241.7Z" style="fill:#ccc;stroke:#263238;stroke-linecap:round;stroke-linejoin:round"></path><path d="M205.71,214s1.38.92,2.3,4.37" style="fill:none;stroke:#263238;stroke-linecap:round;stroke-linejoin:round"></path><path d="M201.58,216.72s.69-1.38,1.61,0l.91,1.38.69,1.84a6.11,6.11,0,0,0-5-3.45" style="fill:none;stroke:#263238;stroke-linecap:round;stroke-linejoin:round"></path><polygon points="308.07 286 253.28 286 265.65 244.05 320.44 244.05 308.07 286" style="fill:#fff;stroke:#263238;stroke-linecap:round;stroke-linejoin:round"></polygon><line x1="253.28" y1="285.99" x2="308.07" y2="285.99" style="fill:none;stroke:#263238;stroke-linecap:round;stroke-linejoin:round;stroke-width:3px"></line><polyline points="251.35 437.95 280.57 404.8 280.57 285.67 292.37 245.77" style="fill:none;stroke:#263238;stroke-linecap:round;stroke-linejoin:round;stroke-width:3px"></polyline><line x1="280.57" y1="404.8" x2="309.23" y2="437.39" style="fill:none;stroke:#263238;stroke-linecap:round;stroke-linejoin:round;stroke-width:3px"></line><line x1="280.57" y1="407.05" x2="280.57" y2="437.39" style="fill:none;stroke:#263238;stroke-linecap:round;stroke-linejoin:round;stroke-width:3px"></line><polyline points="259.78 285.11 290.69 250.83 303.05 283.98" style="fill:none;stroke:#263238;stroke-linecap:round;stroke-linejoin:round"></polyline></g><g id="character-1"><path d="M132.09,281.25S138,319,138,341.27s-5.46,61.45-5.46,67.15v9.25l1.9,3.09v3.79a30.32,30.32,0,0,0,6.41,5.46c3.56,2.13,8.06,3.8,8.06,5v2.85h-28.7s-.48-4.75-.48-6.88v-4s-1.9-2.37-1.66-4.27a34.41,34.41,0,0,1,1.42-5.22,19.81,19.81,0,0,1-1.66-3.79c0-.71-.23-20.64-.47-22.3s-4-48.64-4-48.64l-.89-20.19-2.61.24-9.78,94,1.18,3.8-.47,2.13-.24,1.9v2.14c0,1.18.24,10.91.24,10.91h-33a10,10,0,0,1,1.42-3.32c1-1.19,10.44-5.69,12.34-6.64s3.09-4,3.09-4-1.19-1.18-1.19-2.13S86.06,417,86.06,417s-1.19-5.93-1.19-6.88-1.66-51-1.66-51l-2.84-58.84.71-18,2.61-4.51a45.37,45.37,0,0,0,21.59,5.46A238,238,0,0,0,132.09,281.25Z" style="fill:#263238;stroke:#263238;stroke-linecap:round;stroke-linejoin:round"></path><path d="M118.09,220.51s6.41,22.07,8.78,33,6.4,29.66,6.4,29.66-5.93,3.08-17.08,4a46.63,46.63,0,0,1-20.4-3.08s4.74-43.42.95-51-7.36-12.82-4.27-15.66,14-1.66,16.37-1.19S118.09,220.51,118.09,220.51Z" style="fill:#fff;stroke:#263238;stroke-linecap:round;stroke-linejoin:round"></path><path d="M139.44,288.84l7.23,22.47-10.2,5.22s-8.65-46-8.89-51.18-4.75-20.26-1.43-15.51S139.44,288.84,139.44,288.84Z" style="fill:#c9c9c9;stroke:#263238;stroke-linecap:round;stroke-linejoin:round"></path><path d="M117.86,227.39s10.67,34.41,14.94,46,7.12,16.14,7.12,16.14-5.69-40.81-6.64-46.27,1.18-20.88-.24-24-16.85-.24-16.85-.24Z" style="fill:#fff;stroke:#263238;stroke-linecap:round;stroke-linejoin:round"></path><path d="M97.45,215.77s10.44,25.86,10.68,33-2.52,29-4.66,38-5.17,33-5.17,33-5.94-1.19-15.9-3.09-17.08-9.25-17.08-9.25L79,262.51S73,221.7,73,219.33,86.06,212,97.45,215.77Z" style="fill:#fff;stroke:#263238;stroke-linecap:round;stroke-linejoin:round"></path><path d="M99.35,213.63l-2.14,3.09,4,19,8.06-6.65,10.92,5.7-4-18.74S110.74,207,99.35,213.63Z" style="fill:none;stroke:#263238;stroke-linecap:round;stroke-linejoin:round"></path><polygon points="102.43 219.8 109.79 234.27 114.3 217.9 102.43 219.8" style="fill:none;stroke:#263238;stroke-linecap:round;stroke-linejoin:round"></polygon><path d="M156.77,233.69l-3.22-.08c-2.52-1.51-5.82-1.72-6.8-2.14-1.3-.56-1.67-1.86-3-1.3a4.33,4.33,0,0,1-4.08,1.67c-3-.19-4.83-2.79-4.83-3.34s1.67-2.42.56-3.34-3-.56-4.08-1.49a14.11,14.11,0,0,0-7.24-3c-3.9-.56-13.18,2.78-18.19,7.61a20.24,20.24,0,0,0-3.22,3.95l-1.79,0-.2,4.19s-.19,2.83.08,3.08A4.82,4.82,0,0,0,102,242c2.78,3,6.86,1.12,8.16,2.05s3.34,1.67,3.9.18,3.34-1.11,5-1.48c1.31-.3,4.33.67,5.84,1.73l-1.2.12v3.79c-.29.15-.39.39,0,.85a2.26,2.26,0,0,0,2.41.56s4.08,4.64,9.84,4.82,12.62-2.22,16.51-5.94a13.82,13.82,0,0,0,4.08-7.79h0v-.08a10.06,10.06,0,0,0,.06-2.38Z" style="fill:#92E3A9"></path><path d="M156.77,233.69l-3.22-.08c-2.52-1.51-5.82-1.72-6.8-2.14-1.3-.56-1.67-1.86-3-1.3a4.33,4.33,0,0,1-4.08,1.67c-3-.19-4.83-2.79-4.83-3.34s1.67-2.42.56-3.34-3-.56-4.08-1.49a14.11,14.11,0,0,0-7.24-3c-3.9-.56-13.18,2.78-18.19,7.61a20.24,20.24,0,0,0-3.22,3.95l-1.79,0-.2,4.19s-.19,2.83.08,3.08A4.82,4.82,0,0,0,102,242c2.78,3,6.86,1.12,8.16,2.05s3.34,1.67,3.9.18,3.34-1.11,5-1.48c1.31-.3,4.33.67,5.84,1.73l-1.2.12v3.79c-.29.15-.39.39,0,.85a2.26,2.26,0,0,0,2.41.56s4.08,4.64,9.84,4.82,12.62-2.22,16.51-5.94a13.82,13.82,0,0,0,4.08-7.79h0v-.08a10.06,10.06,0,0,0,.06-2.38Z" style="opacity:0.30000000000000004"></path><path d="M156.77,233.69l-3.22-.08c-2.52-1.51-5.82-1.72-6.8-2.14-1.3-.56-1.67-1.86-3-1.3a4.33,4.33,0,0,1-4.08,1.67c-3-.19-4.83-2.79-4.83-3.34s1.67-2.42.56-3.34-3-.56-4.08-1.49a14.11,14.11,0,0,0-7.24-3c-3.9-.56-13.18,2.78-18.19,7.61a20.24,20.24,0,0,0-3.22,3.95l-1.79,0-.2,4.19s-.19,2.83.08,3.08A4.82,4.82,0,0,0,102,242c2.78,3,6.86,1.12,8.16,2.05s3.34,1.67,3.9.18,3.34-1.11,5-1.48c1.31-.3,4.33.67,5.84,1.73l-1.2.12v3.79c-.29.15-.39.39,0,.85a2.26,2.26,0,0,0,2.41.56s4.08,4.64,9.84,4.82,12.62-2.22,16.51-5.94a13.82,13.82,0,0,0,4.08-7.79h0v-.08a10.06,10.06,0,0,0,.06-2.38Z" style="fill:none;stroke:#263238;stroke-linecap:round;stroke-linejoin:round"></path><path d="M143.78,225.53a4.33,4.33,0,0,1-4.08,1.67c-3-.19-4.83-2.79-4.83-3.34s1.67-2.42.56-3.34-3-.56-4.08-1.49a14.11,14.11,0,0,0-7.24-3c-3.9-.56-13.18,2.79-18.19,7.61S99.24,234.43,102,237.4s6.86,1.12,8.16,2,3.34,1.67,3.9.18,3.34-1.11,5-1.48,6.12,1.3,6.68,2.59a2,2,0,0,1-.56,2.6c-.55.37-2.41.19-1.48,1.3a2.24,2.24,0,0,0,2.41.56s4.08,4.64,9.84,4.82,12.62-2.22,16.51-5.93,5.39-9.84,3.16-13.18-7.61-3.53-8.91-4.08S145.08,225,143.78,225.53Z" style="fill:#92E3A9;stroke:#263238;stroke-linecap:round;stroke-linejoin:round"></path><polygon points="133.39 227.94 127.82 232.76 176.44 255.41 178.67 252.06 133.39 227.94" style="fill:#263238;stroke:#263238;stroke-linecap:round;stroke-linejoin:round"></polygon><path d="M178.67,252.07s6.87,3.89,8.54,5.93,4.08,4.64,4.08,4.64,1.12-2,2.6-2c2.57,0,5.82,1.18,6.68,4.27.34,1.2.93,4.27-2.23,5.57s-5,.74-8-1.3-8.16-6.68-10.57-8.17a48.78,48.78,0,0,1-4.09-2.78v-3Z" style="fill:#92E3A9;stroke:#263238;stroke-linecap:round;stroke-linejoin:round"></path><path d="M191.29,262.64s-1.67,1.49-.93,4.64,4.64,4.09,7.06,2.79,1.11-3.85-1.12-4.46c-1.4-.38-3.15-1.11-3.89.56s1.48,3.34,3.52,3,.19-1.3-.74-1.49" style="fill:none;stroke:#263238;stroke-linecap:round;stroke-linejoin:round"></path><path d="M176.45,255.41s5.19,2.41,8.16,5.93a58.64,58.64,0,0,0,5.75,5.94" style="fill:none;stroke:#263238;stroke-linecap:round;stroke-linejoin:round"></path><polygon points="120.71 223.93 116.95 228.06 107.57 222.99 109.26 221.49 120.71 223.93" style="fill:#263238;stroke:#263238;stroke-linecap:round;stroke-linejoin:round"></polygon><path d="M126.15,233.69s-.37,2.26-2.25,2.26-6-2.82-8.45-2.07-.37,2.25.94,2.25" style="fill:none;stroke:#263238;stroke-linecap:round;stroke-linejoin:round"></path><path d="M133.29,227.12a1.43,1.43,0,0,0-.75-2.06c-1.51-.57-5.45-1.88-3.57-3.76s3.57,1.32,3.57,1.32" style="fill:none;stroke:#263238;stroke-linecap:round;stroke-linejoin:round"></path><line x1="114.09" y1="244.27" x2="114.09" y2="240.8" style="fill:none;stroke:#263238;stroke-linecap:round;stroke-linejoin:round"></line><path d="M134.46,176.62c.48-8.54-8.06-7.59-15.42-4.74a23.07,23.07,0,0,1-5.39,1.37,37,37,0,0,0-5.52-.43c-.66,0-1.31,0-2,.06l-.18-.06.08.07c-9.27.51-16.73,4.33-17.4,6.1s1.43,7.83,1.9,11.39a48.26,48.26,0,0,0,3.32,10.68c.71,1.42,3.09,4.51,5.22,1.9s1.66-6.65,6.17-8.78S120,195.36,120,195.36l5,1.9a18.9,18.9,0,0,1,1.9-7.59,14.67,14.67,0,0,1,1.08-1.81A13.82,13.82,0,0,0,134.46,176.62Z" style="fill:#263238;stroke:#263238;stroke-linecap:round;stroke-linejoin:round"></path><path d="M122.13,191.09c-3.52-2.68-11.7-4.38-15.9-4.27a82.9,82.9,0,0,0-9.73-2.61l7.36,4.29a5.49,5.49,0,0,1-2.61,5.2A14.18,14.18,0,0,1,96,195.84s1.42,4.74.47,5.22a1,1,0,0,1-1.42-.48S94.6,196.08,92,197s-2.37,6.88-1.18,8.55,5.45.23,5.45.23.72,7.83,3.8,12.58,8.83,5.79,12.58,3.79c7.11-3.79,7.83-11.86,7.83-11.86a7.16,7.16,0,0,0,4.27-6.64C125,198.45,127.11,194.89,122.13,191.09Z" style="fill:#fff;stroke:#263238;stroke-linecap:round;stroke-linejoin:round"></path><path d="M114.53,204.14s1,4.51-.71,5.46-5.22.47-5.22-2.14" style="fill:none;stroke:#263238;stroke-linecap:round;stroke-linejoin:round"></path><path d="M103.86,201.53s1.9,2.14,5.45,0" style="fill:none;stroke:#263238;stroke-linecap:round;stroke-linejoin:round"></path><path d="M116.43,202.24s1.9,2.38,5.46.95" style="fill:none;stroke:#263238;stroke-linecap:round;stroke-linejoin:round"></path><path d="M111.69,198.92a11,11,0,0,0-8.78-.71" style="fill:none;stroke:#263238;stroke-linecap:round;stroke-linejoin:round;stroke-width:1.5px"></path><path d="M115.48,199.87a6.68,6.68,0,0,1,8.31.48" style="fill:none;stroke:#263238;stroke-linecap:round;stroke-linejoin:round;stroke-width:1.5px"></path><path d="M114.78,213.3a9.53,9.53,0,0,1-9.51-4.36" style="fill:none;stroke:#263238;stroke-linecap:round;stroke-linejoin:round"></path><path d="M90.33,217.43s-9.72-6.88-14.94-5.22-9.73,18-14.24,28.47,1.19,14.71,5.93,14.71,11.39-4.27,14-8.07,8.3-19.69,8.3-19.69" style="fill:#fff;stroke:#263238;stroke-linecap:round;stroke-linejoin:round"></path><polygon points="149.65 278.16 153.2 264.4 145.85 267.49 149.65 278.16" style="fill:#fff;stroke:#263238;stroke-linecap:round;stroke-linejoin:round"></polygon><path d="M147.28,269.39s10-5.7,13.76-7.83,9.25-5,10-8.07,1.19-6.4.48-7.59-1.9-1.9-3.09-.71l-1.18,1.18a2,2,0,0,0-2.14-1.42,2.66,2.66,0,0,0-2.14,1.42s.24-1.89-1.42-1.89a3.55,3.55,0,0,0-2.61,1.18s.48-3.32-1-3.56-2.85,0-3.08,2.38a29.68,29.68,0,0,1-2.85,9.25c-1.42,2.61-1.9,7.12-1.9,7.12l-5.93,2.61S143.72,268.91,147.28,269.39Z" style="fill:#fff;stroke:#263238;stroke-linecap:round;stroke-linejoin:round"></path><path d="M167.21,246.37s.94,3.09.47,5a6.44,6.44,0,0,1-1.42,2.84" style="fill:none;stroke:#263238;stroke-linecap:round;stroke-linejoin:round"></path><path d="M162.93,246.37a10.66,10.66,0,0,1-.71,5.46" style="fill:none;stroke:#263238;stroke-linecap:round;stroke-linejoin:round"></path><path d="M158.9,245.66a9.71,9.71,0,0,1,0,5" style="fill:none;stroke:#263238;stroke-linecap:round;stroke-linejoin:round"></path><polygon points="147.04 261.32 149.65 278.16 139.14 282.92 136.47 263.5 147.04 261.32" style="fill:#fff;stroke:#263238;stroke-linecap:round;stroke-linejoin:round"></polygon><line x1="159.1" y1="173.61" x2="133.71" y2="234.19" style="fill:none;stroke:#263238;stroke-linecap:round;stroke-linejoin:round"></line><polyline points="128.27 238.9 156.2 171.79 158.02 173.61" style="fill:none;stroke:#263238;stroke-linecap:round;stroke-linejoin:round;stroke-width:2px"></polyline><path d="M107.89,234.27s20.88-5.22,23-5,3.33,1.9,5.22,4.27-.94,4.75-.94,4.75,1.18,2.13-1.67,3.32a20.39,20.39,0,0,1-5.45,1.42l.47-2.84s-8.54,3.32-10.91,3.55-4.75-1.89-4.75-1.89h-3.56Z" style="fill:#fff;stroke:#263238;stroke-linecap:round;stroke-linejoin:round"></path><line x1="132.09" y1="233.8" x2="135.18" y2="238.31" style="fill:none;stroke:#263238;stroke-linecap:round;stroke-linejoin:round"></line><path d="M61.15,240.68s-5.93,10.91-2.85,16.85,52.44-13.29,52.44-13.29l-.95-11.15-40.34,5" style="fill:#fff;stroke:#263238;stroke-linecap:round;stroke-linejoin:round"></path><polygon points="175.63 286 120.84 286 133.2 244.05 187.99 244.05 175.63 286" style="fill:#fff;stroke:#263238;stroke-linecap:round;stroke-linejoin:round"></polygon><line x1="120.84" y1="285.99" x2="175.63" y2="285.99" style="fill:none;stroke:#263238;stroke-linecap:round;stroke-linejoin:round;stroke-width:3px"></line><polyline points="118.91 437.95 148.13 404.8 148.13 285.67 159.93 245.77" style="fill:none;stroke:#263238;stroke-linecap:round;stroke-linejoin:round;stroke-width:3px"></polyline><line x1="148.13" y1="404.8" x2="176.79" y2="437.39" style="fill:none;stroke:#263238;stroke-linecap:round;stroke-linejoin:round;stroke-width:3px"></line><line x1="148.13" y1="407.05" x2="148.13" y2="437.39" style="fill:none;stroke:#263238;stroke-linecap:round;stroke-linejoin:round;stroke-width:3px"></line><polyline points="127.34 285.11 158.24 250.83 170.6 283.98" style="fill:none;stroke:#263238;stroke-linecap:round;stroke-linejoin:round"></polyline></g><g id="character-3"><path d="M384.25,133.27a13.24,13.24,0,0,0-8.42,5c-3.2,4.4-5.21,8.81-7.61,11.62s-6.22,3.21-5.41,5,5,3,5,3-.61,11.62-.2,14,3.2,1,4.6,1,8.62-2,8.62-2l1.41,10.63,20-7-2.41-8.82s6-7.81,6.62-14.63,0-12.42-6.22-16S384.25,133.27,384.25,133.27Z" style="fill:#fff;stroke:#263238;stroke-linecap:round;stroke-linejoin:round"></path><path d="M395.54,136.53s-12.83.61-11.4,4.07S387.4,149,387.4,150s-5.09,6.31-3.87,7.12,6.31-3.46,8.14-3.46.61,11.4,2.44,12,5.91-.2,6.52-.41,5.29-8.55,8.55-16.28,2-14.25-2-16.9-21.58-1.22-29.11-2-17.5-8.76-16.28-.41,8.34,10,14.86,7.94S395.54,136.53,395.54,136.53Z" style="fill:#263238;stroke:#263238;stroke-linecap:round;stroke-linejoin:round"></path><path d="M376.23,145.29l-1.2,3s.8,1.8,6,1.2" style="fill:none;stroke:#263238;stroke-linecap:round;stroke-linejoin:round"></path><path d="M375.63,149.9s.8,1,5.21.4" style="fill:none;stroke:#263238;stroke-linecap:round;stroke-linejoin:round"></path><path d="M376.66,141.21s4-1.55,6,3.55" style="fill:none;stroke:#263238;stroke-linecap:round;stroke-linejoin:round;stroke-width:2px"></path><path d="M373.63,390.18l-9.09,6.35c-4.32,3-14.13,6.06-14.13,6.92s.15,2,1.16,2h22.2c.72,0,3.18-1.3,3.61-1.44a8.42,8.42,0,0,1,2.16-.29c.72,0,.87,1.58.87,1.58H390.5a14.2,14.2,0,0,0,.87-5.19,57.08,57.08,0,0,0-.44-6.49Z" style="fill:#787878;stroke:#263238;stroke-linecap:round;stroke-linejoin:round"></path><path d="M377.67,325.79s-1.88,32.7-1.88,42.51-.65,13.08-.65,13.08-2.95,1.64-2.95,3.93-.33,5.23-.33,5.23,1.64,2.62,7.53,4.25a65.92,65.92,0,0,0,12.43,2s3.6-2.29,4.58-9.16-.66-19-2-28.46-11.86-39.89-11.86-39.89S378,321.86,377.67,325.79Z" style="fill:#263238;stroke:#263238;stroke-linecap:round;stroke-linejoin:round"></path><path d="M390.18,393.49s-6.87,4.9-10.47,6.21a96.33,96.33,0,0,0-9.15,4.25s0,1.64,1.3,1.64H392.8s2.94.65,3.92-.33a5.63,5.63,0,0,1,2-1.31h2v2h10.14a33.47,33.47,0,0,0-.33-4.26,24.72,24.72,0,0,0-1.63-5.23Z" style="fill:#787878;stroke:#263238;stroke-linecap:round;stroke-linejoin:round"></path><path d="M363,234.05s-2.61,1.46-9.72.58-9.87-2.32-10.3-1.16-2.76,8.57-2.91,9.87,3.2,1.89,3.78,1.89-.87,2.76,1,2.47,6.39-.73,7.55-1.31a20.48,20.48,0,0,0,3.34-2.76l8-2.17Z" style="fill:#fff;stroke:#263238;stroke-linecap:round;stroke-linejoin:round"></path><path d="M349.36,238s-2,3.92-2.76,4.94a13.21,13.21,0,0,1-2.75,2.32" style="fill:none;stroke:#263238;stroke-linecap:round;stroke-linejoin:round"></path><line x1="347.33" y1="241.02" x2="344.86" y2="240" style="fill:none;stroke:#263238;stroke-linecap:round;stroke-linejoin:round"></line><path d="M362.62,247s1.64,27.8,3.6,44.81S374.72,322.52,378,331s11.85,43.82,12.51,48.4a33.37,33.37,0,0,1,.33,7.52,3.21,3.21,0,0,0-2.29,2.95,23.91,23.91,0,0,0,.65,4.9s6.87,2,11.12,2.62a78.38,78.38,0,0,0,9.81.65,120,120,0,0,0,1.31-12.1,65.8,65.8,0,0,0-.65-13.41c-.33-2-4.66-35.31-8.26-44.47a102.67,102.67,0,0,1-7.2-27.48c-1.31-10.79,9.16-31.73,5.89-44.48s-7.85-17-7.85-17l-30.42.65Z" style="fill:#263238;stroke:#263238;stroke-linecap:round;stroke-linejoin:round"></path><path d="M391.75,329.65c-6.8-28.93-11.3-67.38-11.35-67.76l-3.9.45c.05.39,4.58,39.05,11.43,68.21,2.49,10.59,4.72,20.06,6.84,26.59,3.59,11,5.61,25.89,5.65,40.29,1.26.18,2.63.32,3.93.41,0-15.31-2.24-30.85-5.85-41.92C396.4,349.47,394.2,340.08,391.75,329.65Z" style="fill:#787878;stroke:#263238;stroke-linecap:round;stroke-linejoin:round"></path><path d="M360.73,234l1.42,15.27s5.7,2.65,10.39,1.22a29.83,29.83,0,0,0,6.31-2.44V232.62S365.61,236.69,360.73,234Z" style="fill:#fff;stroke:#263238;stroke-linecap:round;stroke-linejoin:round"></path><path d="M382.31,182.54s-11.61,8.75-14.86,17.91-7.33,28.91-7.94,32.57,2.44,3.06,7.53,4.69,6.92-2.24,13.44-21.58,11.6-25.45,11-29.11S388.62,179.08,382.31,182.54Z" style="fill:#fff;stroke:#263238;stroke-linecap:round;stroke-linejoin:round"></path><polygon points="401.49 170.94 380.84 180.56 381.64 184.57 402.69 173.75 401.49 170.94" style="fill:#fff;stroke:#263238;stroke-linecap:round;stroke-linejoin:round"></polygon><path d="M401.89,172.55S382.05,183.77,379.64,187s-8.82,14.83-12,28.46-.41,36.27,3,43.89,24.85,40.88,27.86,48.9,6.81,23.85,6.81,23.85,5.21-31.27,4.41-52.71-11.82-38.88-11.82-38.88,14-31.27,12.62-44.29S401.89,172.55,401.89,172.55Z" style="fill:#263238;stroke:#263238;stroke-linecap:round;stroke-linejoin:round"></path><line x1="305.49" y1="185.57" x2="261.22" y2="206.07" style="fill:none;stroke:#263238;stroke-linecap:round;stroke-linejoin:round"></line><path d="M335,178.56s-7-5.41-9.22-6.61-6.62-1-7.82.4-8.22,5.41-10.42,6-5.21,1.6-5.21,2.6-.2,4.81-.2,4.81l4.41,2.41,7,1.8s3.41-2.4,3.81-3.2-.4-2.21-.4-2.21a23.68,23.68,0,0,0,3.21-3.2,13.65,13.65,0,0,1,2.2-2.41l8.62,6.81Z" style="fill:#fff;stroke:#263238;stroke-linecap:round;stroke-linejoin:round"></path><path d="M306.49,188.18a3.53,3.53,0,0,1,.4-2.21c.6-.8,2.8-4.6,2.8-4.6" style="fill:none;stroke:#263238;stroke-linecap:round;stroke-linejoin:round"></path><line x1="307.89" y1="183.77" x2="305.69" y2="183.77" style="fill:none;stroke:#263238;stroke-linecap:round;stroke-linejoin:round"></line><path d="M316.91,184.57a22.38,22.38,0,0,1-3,2.41" style="fill:none;stroke:#263238;stroke-linecap:round;stroke-linejoin:round"></path><path d="M311.3,182.77s-3.41,4-2.21,5.61" style="fill:none;stroke:#263238;stroke-linecap:round;stroke-linejoin:round"></path><path d="M313.7,183.57s-2.6,2-2.4,3.61,2.2,2.8,2.2,2.8" style="fill:none;stroke:#263238;stroke-linecap:round;stroke-linejoin:round"></path><path d="M397.88,181.37a14.67,14.67,0,0,0-9.62,1.8c-4.61,2.8-10.62,17-10.62,17L334,176.76l-6.62,9.82s42.49,31.06,44.29,32.26,7.42,5.21,11.83,3.21,20.84-24.25,20.84-24.25" style="fill:#263238;stroke:#263238;stroke-linecap:round;stroke-linejoin:round"></path><path d="M388.19,156.5s3.48-5.92,6.13-3.89,2.24,7.33-1,10-7.33-2.24-7.33-2.24" style="fill:#fff;stroke:#263238;stroke-linecap:round;stroke-linejoin:round"></path><path d="M381.49,185.18s-4.48-5.29-5.29-2.85-3.66,6.93-1.42,6.93S381.49,185.18,381.49,185.18Z" style="fill:#263238;stroke:#263238;stroke-linecap:round;stroke-linejoin:round"></path><rect x="328.4" y="405.49" width="115.92" height="32.37" style="fill:#92E3A9;stroke:#263238;stroke-linecap:round;stroke-linejoin:round"></rect></g></svg>