<svg xmlns="http://www.w3.org/2000/svg" viewBox="0 0 500 500"><g id="background-simple"><g><path d="M130.2455,464.5557S35.5027,392.349,13.1515,279.7134C-9.1995,167.078,82.625,144.3706,136.4826,106.2001c53.8576-38.1702,73.6801-81.122,151.7202-83.7565,78.0403-2.6343,118.41121,26.3755,146.5886,82.5858,28.1774,56.2102,43.226,113.9311,52.0832,170.2636,8.8572,56.3327,4.5043,101.3278-45.58859,123.7715-50.09281,22.4437-73.34011,12.5976-97.13481,38.4438-23.7947,25.8463-132.3958,84.3483-213.90569,27.0474Z" style="fill:#92E3A9;"></path><path d="M130.2455,464.5557S35.5027,392.349,13.1515,279.7134C-9.1995,167.078,82.625,144.3706,136.4826,106.2001c53.8576-38.1702,73.6801-81.122,151.7202-83.7565,78.0403-2.6343,118.41121,26.3755,146.5886,82.5858,28.1774,56.2102,43.226,113.9311,52.0832,170.2636,8.8572,56.3327,4.5043,101.3278-45.58859,123.7715-50.09281,22.4437-73.34011,12.5976-97.13481,38.4438-23.7947,25.8463-132.3958,84.3483-213.90569,27.0474Z" style="fill:#fff; opacity:.7;"></path></g></g><g id="Character_3"><g><g><path d="M377.61489,390.7453l-3.1801,4.4925s-3.8565,3.1335-5.6642,3.9771c-1.8078,.8436-3.1334,1.4462-3.0129,2.0487,.1205,.6026-.4821,1.4462,.6026,2.2899,1.0846,.8436,27.8681,0,27.8681,0,0,0-.0289-2.7719-.14939-4.4591-.12051-1.6873-1.86091-8.5209-1.86091-8.5209l-14.6032,.1718Z" style="fill:#92E3A9; stroke:#263238; stroke-linecap:round; stroke-linejoin:round;"></path><path d="M366.36019,403.5535c1.0847,.8435,27.8682,0,27.8682,0,0,0-.0111-1.0729-.0486-2.2899h-28.4221c.1205,.6026-.4821,1.4462,.6025,2.2899Z" style="fill:#fff; stroke:#263238; stroke-linecap:round; stroke-linejoin:round;"></path></g><path d="M366.79139,243.1676s-1.37439,13.4005-1.8898,19.7572c-.5154,6.3567-1.5462,19.7572,0,31.6115s6.7003,29.5499,6.7003,30.2371,1.2026,20.1008,1.5462,27.4883,2.2334,13.7441,2.9206,17.5238c.6872,3.7796,.859,10.8235,.859,11.3389s-1.8898,.6872-1.718,2.577,1.3744,3.2643,1.3744,4.1233,1.0308,2.9206,1.0308,2.9206l14.6032-.1718s.3436-1.718,.3436-5.4977,2.7488-22.1624,2.7488-27.8318-1.5462-13.4006-1.5462-16.6648,2.2334-19.07,2.577-31.2679c.3436-12.198,3.2643-30.4089,3.2643-30.4089,0,0,5.4976,22.3342,6.3566,24.0522s11.6825,7.2157,13.4006,7.0439c1.718-.1718,7.3874-2.4053,10.6517-3.6079,3.2642-1.2026,4.295-4.4668,3.9514-8.0746-.3436-3.6079-4.8104-23.8805-4.8104-23.8805,0,0,1.3744-9.4491,1.3744-13.0569s-1.8898-5.6695-1.8898-5.6695c0,0-16.493,.1718-27.8319-3.2642-11.3389-3.436-34.0168-9.2773-34.0168-9.2773Z" style="fill:#263238; stroke:#263238; stroke-linecap:round; stroke-linejoin:round;"></path><path d="M398.35529,155.3331s-2.2354-3.912-4.4708-5.3091-2.934-2.0957-2.934-2.0957c0,0-10.3387-19.1406-10.7578-20.2583-.4192-1.1177-16.20669-38.0019-16.20669-38.0019l-10.33881,4.0516s6.7062,31.156,8.5225,34.7885c1.81631,3.6326,2.934,5.1694,2.934,5.1694,0,0-.978,4.1914,.4191,6.5665s2.5148,4.0517,2.6546,4.4708c.1397,.4192,.8382,10.6182,4.331,16.7655,3.4929,6.1474,7.1254,14.8096,7.1254,14.8096,0,0-4.1914,10.3387-4.1914,16.4861s.1397,8.6622-.4191,12.7139c-.5589,4.0516-9.6402,39.1196-9.6402,39.1196,0,0,23.1923,9.221,38.97991,12.0153,15.78749,2.7942,25.14829,.9779,25.14829,.9779l-.1397-5.309s.1397-3.3531,.1397-5.3091,.4191-8.5225,.4191-8.5225c0,0,9.221-38.421,9.5005-41.9138,.2794-3.4929,5.5885-19.4201,.6985-24.0306-4.8899-4.6106-21.9349-10.4785-21.9349-10.4785,0,0-16.4861-2.5148-19.8392-6.7062Z" style="fill:#92E3A9; stroke:#263238; stroke-linecap:round; stroke-linejoin:round;"></path><path d="M390.10419,163.8737l-10.4704,12.4163s5.8663,5.372,10.8889,8.9296c5.0226,3.5577,12.975,6.6968,17.3698,8.371,4.3947,1.6742,19.46251,8.371,19.46251,8.371l1.46489-15.277s-16.3234-5.2319-20.0903-6.069c-3.767-.8371-12.975-6.6968-13.6029-7.5339-.6278-.8371-5.0225-9.208-5.0225-9.208Z" style="fill:#263238; stroke:#263238; stroke-linecap:round; stroke-linejoin:round;"></path><path d="M404.50269,171.1206s1.956,1.6766-1.6766,7.8239c-3.6325,6.1474-11.4564,12.5742-11.177,19.8393,.2794,7.265,1.2574,13.6918,.55891,18.5818-.69861,4.8899-5.30911,23.7511-5.58861,27.1042-.27939,3.3532-1.6765,4.89-1.6765,4.89" style="fill:none; stroke:#263238; stroke-linecap:round; stroke-linejoin:round;"></path><path d="M422.05689,248.3755c3.09211,.2636,4.66011,.2857,4.66011,.2857" style="fill:none; stroke:#263238; stroke-linecap:round; stroke-linejoin:round;"></path><path d="M369.85389,237.3445s8.6622,3.6325,27.8028,7.4048c8.3688,1.6493,14.9748,2.6042,19.7597,3.1566" style="fill:none; stroke:#263238; stroke-linecap:round; stroke-linejoin:round;"></path><g><path d="M402.26729,162.8776s-2.79429,6.4268-3.77229,14.8095c-.978,8.3828-.69851,30.4574-.69851,30.4574l3.2134,.2794s4.4708-12.8535,6.9856-18.8612c2.5148-6.0076,16.6258-24.7291,16.2067-25.0086-.41919-.2794-3.6326-1.1177-3.6326-1.1177,0,0-4.331,4.6105-7.5444,11.4565-3.2134,6.8459-11.8756,22.354-11.8756,22.354,0,0,.4191-22.7732,.8382-24.7291,.41921-1.956,.6986-4.89,.6986-4.89l-.4191-4.7502Z" style="fill:#adadad; stroke:#263238; stroke-linecap:round; stroke-linejoin:round;"></path><line x1="401.14959" y1="197.2469" x2="399.19359" y2="201.4383" style="fill:none; stroke:#263238; stroke-linecap:round; stroke-linejoin:round;"></line></g><g><path d="M425.45959,154.7742s2.7943-1.9559,5.0297-.1397c2.2354,1.8163,2.5148,7.5445-.1398,8.8019-2.65449,1.2574-7.4047,1.5369-9.7799,0-2.3751-1.5368-2.9339-7.8239-1.6765-8.6622,1.2574-.8382,6.5665,0,6.5665,0Z" style="fill:#263238; stroke:#263238; stroke-linecap:round; stroke-linejoin:round;"></path><path d="M394.02419,133.957s-2.79419-2.6545-2.2354-4.8899c.5589-2.2354,9.2211-7.2651,15.2287-8.2431,6.0077-.978,12.9933,1.8163,16.76551,7.6842,3.77229,5.868,3.912,13.133,3.21339,15.3684-.6985,2.2354-.4191,3.912-.4191,6.9857s-3.2134,8.6622-6.7062,6.0076c-3.4928-2.6545-1.8163-6.7062-1.5369-8.9416,.2795-2.2354-1.5368-4.1914-3.9119-5.4488s-4.3311-3.7722-4.6105-5.5885c-.2795-1.8163-1.1177-3.3531-2.3752-3.3531h-6.00759c-2.51481,0-7.40481,.4191-7.40481,.4191Z" style="fill:#263238; stroke:#263238; stroke-linecap:round; stroke-linejoin:round;"></path><path d="M394.02419,133.957s.6986,5.5885,.1397,7.8239c-.5588,2.2354-1.6765,4.7503-.2794,8.2431s3.63251,10.0593,5.1694,11.3167c1.5368,1.2575,3.2134,1.5369,3.2134,1.5369,0,0,.2794,3.9119,.4191,4.7502s2.0957,2.0957,4.1914,1.6766c1.233-.2466,11.0373-2.7943,12.155-3.4929,1.1177-.6985,1.6766-2.3751,1.5368-3.3531-.1397-.978-.6985-2.7942-.6985-3.4928,0-.6985,0-5.0296,.5588-6.9856,.5589-1.956,1.8163-4.4708,1.8163-4.4708,0,0,3.3531-3.912,2.51481-6.0077-.83821-2.0957-3.49281-3.0737-3.49281-3.0737,0,0-.978,2.934-2.5148,3.3531-1.5369,.4192-1.8163-.6985-2.0957-1.8162s-4.05169-.8383-4.4708-2.7943c-.4192-1.956,1.2574-3.9119,.1397-4.6105s-4.6105-2.3751-8.1033-2.0957c-3.4929,.2794-2.6546,.8383-4.75029,.978-2.09571,.1397-4.88991-.2794-4.88991-.2794l-.5589,2.7942Z" style="fill:#fff; stroke:#263238; stroke-linecap:round; stroke-linejoin:round;"></path><path d="M402.26729,162.8775s6.8824-.8404,8.7819-3.5842" style="fill:none; stroke:#263238; stroke-linecap:round; stroke-linejoin:round;"></path><path d="M422.24619,147.5092s-.855,1.6532-2.3324,1.8642l-1.4774,.2111s-.2111,2.1106-1.8996,4.2212" style="fill:none; stroke:#263238; stroke-linecap:round; stroke-linejoin:round;"></path><path d="M405.62039,141.6412c0,.7716-.4379,1.3972-.978,1.3972s-.978-.6256-.978-1.3972,.4379-1.3971,.978-1.3971,.978,.6255,.978,1.3971Z" style="fill:#263238;"></path><path d="M397.79649,142.0604c0,.7716-.4379,1.3971-.978,1.3971-.5402,0-.978-.6255-.978-1.3971s.4378-1.3972,.978-1.3972c.5401,0,.978,.6256,.978,1.3972Z" style="fill:#263238;"></path><path d="M402.54669,138.847s2.934-1.5369,5.3091,.1397" style="fill:none; stroke:#263238; stroke-linecap:round; stroke-linejoin:round;"></path><path d="M398.07589,139.2661s-1.53689-.8383-2.7943-.1397" style="fill:none; stroke:#263238; stroke-linecap:round; stroke-linejoin:round;"></path><path d="M398.21559,147.7886s0,.978,1.1177,1.5368c1.11771,.5589,2.6545-.2794,2.6545-.2794" style="fill:none; stroke:#263238; stroke-linecap:round; stroke-linejoin:round;"></path><path d="M397.09789,151.971s3.1296,2.3472,8.8019-.7824" style="fill:none; stroke:#263238; stroke-linecap:round; stroke-linejoin:round;"></path><path d="M420.56959,162.4584c-.1397-.978-.6985-2.7942-.6985-3.4928,0-.0761,.0001-.2021,.0008-.3567-8.1364,4.6434-17.6046,4.2686-17.6046,4.2686,0,0,.2794,3.912,.4191,4.7503s2.0957,2.0957,4.1914,1.6766c1.233-.2466,11.0373-2.7943,12.155-3.4929,1.1177-.6985,1.6765-2.3751,1.5368-3.3531Z" style="fill:#263238; stroke:#263238; stroke-linecap:round; stroke-linejoin:round;"></path></g><line x1="385.51349" y1="154.3905" x2="386.61939" y2="150.3034" style="fill:none; stroke:#263238; stroke-linecap:round; stroke-linejoin:round;"></line><line x1="380.19269" y1="174.0546" x2="384.53249" y2="158.016" style="fill:none; stroke:#263238; stroke-linecap:round; stroke-linejoin:round;"></line><line x1="379.49409" y1="169.4441" x2="379.49409" y2="149.3254" style="fill:none; stroke:#263238; stroke-linecap:round; stroke-linejoin:round;"></line><path d="M366.64049,132.979s2.2354-9.221,3.4928-10.7578" style="fill:none; stroke:#263238; stroke-linecap:round; stroke-linejoin:round;"></path><path d="M405.341,214.9904c0-3.7037-3.00251-6.7062-6.70631-6.7062s-6.7062,3.0025-6.7062,6.7062,3.00251,6.7063,6.7062,6.7063,6.70631-3.0025,6.70631-6.7063Z" style="fill:#fff; stroke:#263238; stroke-linecap:round; stroke-linejoin:round;"></path><path d="M378.10349,234.2233s-2.4294,33.7265-2.7153,38.8712c-.2858,5.1448-10.57519,93.3197-10.57519,93.3197l-4.47591,31.6703h2.8582l4.4758-32.3849,9.8608-75.3131,1.8578-17.0061,2.5724-38.8713-3.8586-.2858Z" style="fill:#858585; stroke:#263238; stroke-linecap:round; stroke-linejoin:round;"></path><g><path d="M399.89219,228.6823s-6.0455-2.316-8.6685-3.5455c-2.6229-1.2295-4.1803-1.0655-5.8196-.9016-1.6394,.1639-2.7869-.5738-2.7869,.3279,0,.9016,.2459,1.3934,2.0492,2.1311s4.7541,.4098,5.6557,1.0656c.9016,.6557,1.3934,2.7868,1.2295,4.5082-.1639,1.7213-.8197,2.0491-1.8852,3.1147-1.0656,1.0656-3.8525,1.3115-4.9181,1.1475-1.0655-.1639-4.5901-.7377-4.3442,.3279,.24591,1.0656,1.2295,1.7213,1.5574,1.7213,.3278,0-4.0984-1.1475-4.7541-1.2295s-.8197,.9016-.3279,1.5574c.4918,.6557,1.8853,1.0655,2.459,1.1475,.5738,.082,3.9344,1.3934,5.6557,1.3934,1.7214,0,4.9181-.1639,4.9181-.1639l.65571-.1639s-3.36061,1.1475-4.09831,1.3114c-.7378,.164-2.3771-.7377-2.623-.0819-.2459,.6557,.5738,1.0656,1.5574,1.3934,.9836,.3279,9.5901,.9836,9.5901,.9836,0,0,3.5246-3.1147,4.0164-3.8524s2.9508-2.3771,3.0328-2.7049c.0819-.3279,1.1475-2.9508-.3279-5.9016-1.4754-2.9509-1.8233-3.5857-1.8233-3.5857Z" style="fill:#fff; stroke:#263238; stroke-linecap:round; stroke-linejoin:round;"></path><path d="M381.46969,238.2515s1.9672,.9836,3.4426,1.8853c1.4754,.9016,5.3278-.8197,6.8852-1.7213" style="fill:none; stroke:#263238; stroke-linecap:round; stroke-linejoin:round;"></path></g><g><path d="M430.07009,181.18s-3.0737,6.7062-3.0737,11.5961,.5589,21.6555,.5589,21.6555c0,0-1.2574-.2794-1.1177,.978s.4191,2.7942,.4191,2.7942c0,0-13.4124,6.2871-14.8095,6.846-1.39719,.5588-4.0517,.6985-6.4268,1.6765s-5.7282,1.956-5.7282,1.956c0,0,2.6545,3.7722,2.51481,6.2871-.13971,2.5148-.978,6.8459-.978,6.8459l9.77989-2.0957s4.33111,1.2574,7.4048-.2794c3.0736-1.5369,20.5377-6.9857,22.7732-9.5005,2.2354-2.5148,3.7722-5.4488,4.0516-8.5225,.2794-3.0736,1.6766-7.265,2.2354-16.6258,.5589-9.3607-.978-25.1483-3.91189-28.6411-2.934-3.4928-5.72831-4.6105-6.42681-4.3311" style="fill:#92E3A9; stroke:#263238; stroke-linecap:round; stroke-linejoin:round;"></path><path d="M428.673,217.0861s7.54449,3.3531,8.94159,6.5665" style="fill:none; stroke:#263238; stroke-linecap:round; stroke-linejoin:round;"></path><path d="M440.12939,219.1818s-4.4708-1.8162-7.265-1.8162" style="fill:none; stroke:#263238; stroke-linecap:round; stroke-linejoin:round;"></path><path d="M430.20979,215.1302s4.3311-1.5369,7.8239-.5589" style="fill:none; stroke:#263238; stroke-linecap:round; stroke-linejoin:round;"></path><path d="M407.57639,227.0057s2.5148,0,3.4928,5.0297,.1397,6.5665,.1397,6.5665" style="fill:none; stroke:#263238; stroke-linecap:round; stroke-linejoin:round;"></path></g><path d="M383.96489,195.2909s5.1694,12.5742,8.5225,15.5082" style="fill:none; stroke:#263238; stroke-linecap:round; stroke-linejoin:round;"></path><path d="M379.35439,198.644s1.3971,4.1914,5.02961,8.3828" style="fill:none; stroke:#263238; stroke-linecap:round; stroke-linejoin:round;"></path><path d="M410.78979,209.8211s5.1693,5.5885,9.3607,8.5225" style="fill:none; stroke:#263238; stroke-linecap:round; stroke-linejoin:round;"></path><path d="M397.09789,160.223s-6.5665,5.5885-7.82389,11.3168" style="fill:none; stroke:#263238; stroke-linecap:round; stroke-linejoin:round;"></path><path d="M399.05389,161.3407s-4.1914,3.912-5.4488,6.5665" style="fill:none; stroke:#263238; stroke-linecap:round; stroke-linejoin:round;"></path><g><path d="M387.37129,227.4319s-.3669-.0211-.9851-.0555c-3.2358-.18-13.356-.7247-13.769-.5183-.4918,.2459-.1639,8.2787,.4099,8.8525,.5737,.5737,8.2786,.8196,8.2786,.8196,0,0,7.7049,.7377,9.26231-.5737,1.55739-1.3115,1.72129-4.8361,1.22949-6.3935-.4918-1.5573-2.0492-2.295-4.4262-2.1311Z" style="fill:#263238; stroke:#263238; stroke-linecap:round; stroke-linejoin:round;"></path><path d="M377.69919,227.268s2.7049-.3279,3.1967,1.8852,.4098,5.5738-.24589,6.1475c-.65571,.5738-2.459,.8197-2.459,.8197" style="fill:none; stroke:#858585; stroke-linecap:round; stroke-linejoin:round;"></path><path d="M388.84669,227.6778s-3.36069,.2459-3.5246,1.9672c-.1639,1.7213-.4098,5.3279,.082,5.9016,.4918,.5738,1.6393,.4918,1.6393,.4918" style="fill:none; stroke:#858585; stroke-linecap:round; stroke-linejoin:round;"></path></g><g><path d="M378.22809,270.0935c-1.2627,0-2.2865,1.0237-2.2865,2.2864,0,1.2629,1.0238,2.2866,2.2865,2.2866h5.306v-4.573h-5.306Z" style="fill:#adadad; stroke:#263238; stroke-linecap:round; stroke-linejoin:round;"></path><path d="M385.82059,272.38c0,1.2628-1.0237,2.2865-2.2865,2.2865-1.2629,0-2.2866-1.0237-2.2866-2.2865s1.0237-2.2866,2.2866-2.2866c1.2628,0,2.2865,1.0238,2.2865,2.2866Z" style="fill:#858585; stroke:#263238; stroke-linecap:round; stroke-linejoin:round;"></path></g><g><path d="M428.97619,273.5414c1.2627,0,2.2865,1.0238,2.2865,2.2865,0,1.2629-1.0238,2.2866-2.2865,2.2866l-14.6204,1.3262v-4.5731l14.6204-1.3262Z" style="fill:#adadad; stroke:#263238; stroke-linecap:round; stroke-linejoin:round;"></path><path d="M412.06929,277.1542c0,1.2628,1.02371,2.2865,2.2865,2.2865s2.2865-1.0237,2.2865-2.2865-1.0237-2.2866-2.2865-2.2866-2.2865,1.0238-2.2865,2.2866Z" style="fill:#858585; stroke:#263238; stroke-linecap:round; stroke-linejoin:round;"></path></g><path d="M433.85989,238.6948s-3.8836,32.9643-4.294,34.3525,.63611,5.7254,.7952,6.2026c.159,.4771,25.357,120.6482,25.357,120.6482l3.1808-.1591-25.8342-125.2603,4.4531-37.3743-3.6579,1.5904Z" style="fill:#858585; stroke:#263238; stroke-linecap:round; stroke-linejoin:round;"></path><g><path d="M422.45859,222.8433s6.665,4.8028,7.4491,7.4492c.7842,2.6464-.5881,4.8028-.9801,5.1948-.3921,.3921-3.0385,1.3723-3.0385,1.3723,0,0,3.5286,3.6265,4.1167,4.0186,.588,.3921,2.8424-.3921,2.8424-.3921,0,0,0,1.5683,.8821,.8822,.8822-.6861,5.4889-4.0187,5.2929-6.077s-.88219-3.4305-.88219-3.4305c0,0,.29409-3.1365-.88211-5.1949-1.1762-2.0583-8.8214-7.7432-9.8015-7.7432-.9802,0-4.3127,3.2345-4.9988,3.9206Z" style="fill:#263238; stroke:#263238; stroke-linecap:round; stroke-linejoin:round;"></path><path d="M428.89369,228.4251l-.104,.0324c.5445,.6616,.9578,1.2941,1.118,1.835,.7842,2.6464-.588,4.8028-.9801,5.1948-.3921,.3921-3.0385,1.3722-3.0385,1.3722,0,0,3.0805,3.1659,3.96391,3.9006,.47359-.0728,.80159-.3154,.80159-.3154,1.6842-.4594,.5358-1.4546,.4593-2.5264-.0766-1.0718,.6529-1.6813,.7655-3.4451,.2297-3.5982-2.9857-6.0481-2.9857-6.0481Z" style="fill:#263238; stroke:#263238; stroke-linecap:round; stroke-linejoin:round;"></path></g><rect x="359.23309" y="397.84826" width="4.0431" height="5.52229" rx="1.49643" ry="1.49643" transform="translate(45.74511 -36.93665) rotate(6.24802)" style="fill:#263238; stroke:#263238; stroke-linecap:round; stroke-linejoin:round;"></rect><rect x="455.59586" y="397.84827" width="4.04315" height="5.52226" rx="1.49635" ry="1.49635" transform="translate(-56.35128 75.43596) rotate(-8.87931)" style="fill:#263238; stroke:#263238; stroke-linecap:round; stroke-linejoin:round;"></rect><g><path d="M377.25219,49.9563s-.3737-5.6054-2.4913-4.3598c-2.1176,1.2457-1.6193,2.9896-1.6193,2.9896,0,0-1.8685-1.2457-2.11759-.4983l-.24921,.7474s-1.2456-3.1141-3.2387-1.4948c-1.993,1.6194-1.7439,2.865-1.7439,2.865,0,0-.7474-1.3702-1.7439-.3736-.9965,.9965-.8719,1.7439-.8719,1.7439,0,0-2.1176-1.4948-2.6159-.4983s-.1246,1.8685-.1246,1.8685c0,0-3.3632-.872-3.4878,.7474-.1246,1.6193,1.2457,1.6193,1.2457,1.6193,0,0-1.8685,1.4948-1.3703,2.7405,.4983,1.2456,1.4948,.6228,1.4948,.6228,0,0-1.4948,.9965-1.2456,1.7439,.2491,.7474,1.7439,.4983,1.7439,.4983l13.5776,1.7439,2.2422,3.8615s2.6158,1.2457,3.3632,.3737c.74741-.872,.6229-2.6159,.6229-2.6159,0,0,2.98951,1.7439,4.2352-.2491,1.2456-1.9931-.37369-3.6124-.37369-3.6124,0,0,2.49129-.9965,1.86849-2.4913-.6229-1.4948-1.2457-1.8685-1.2457-1.8685,0,0,.7474-1.2456,.7474-2.2422,0-.9965-1.4948-1.8684-1.4948-1.8684,0,0,1.2457-3.3633-.3737-4.609-1.6193-1.2456-4.7335,2.6159-4.7335,2.6159Z" style="fill:#fff; stroke:#263238; stroke-linecap:round; stroke-linejoin:round;"></path><path d="M360.74709,58.1133s-9.7438,17.9565-11.4142,19.6268c-1.6704,1.6704-2.3664,2.3664-4.3151,4.1759-1.94879,1.8096-3.6192,2.6448-2.9232,3.8976,.696,1.2527,2.6448,3.4799,4.3151,2.7839,1.6704-.696,4.4544-5.2895,4.872-6.2639,.4175-.9743,21.5755-13.7805,21.5755-13.7805,0,0,3.8976-2.088,3.8976-3.8975,0-1.8096-3.2016-5.5679-7.0991-7.0991-3.8975-1.5311-7.0991-1.5311-8.9086,.5568Z" style="fill:#92E3A9; stroke:#263238; stroke-linecap:round; stroke-linejoin:round;"></path><path d="M373.51529,57.3057v3.2387s-2.2422,.3737-2.3668,1.4947c-.12449,1.1211,.3737,1.744,.3737,1.744,0,0-2.4913,0-2.865,1.6193-.3737,1.6194,.3737,1.7439,.3737,1.7439,0,0-1.8684,.872-1.3702,2.2422,.49831,1.3702,1.4948,1.2457,1.4948,1.2457,0,0-1.4948,.8719,0,1.993s2.7404-.7474,2.7404-.7474c0,0,.2492,1.3702,1.4948,.9965,1.2457-.3737,2.3668-2.9895,2.3668-2.9895,0,0,.12451,1.121,2.1176,.1245,1.993-.9965,2.2421-2.9895,2.2421-2.9895,0,0,4.4844,.8719,4.7335-1.3703,.2492-2.2421-1.4948-3.2387-1.4948-3.2387,0,0,1.8685-1.2456,.9966-2.6158-.872-1.3702-2.2422-1.3702-2.2422-1.3702,0,0,1.2456-1.1211-.872-2.2422s-3.9861,.3737-3.9861,.3737" style="fill:#fff; stroke:#263238; stroke-linecap:round; stroke-linejoin:round;"></path></g><path d="M363.986,89.6681s-2.54291-6.4993-2.68211-7.0561,2.7839-5.1503,3.7583-6.2638c.9744-1.1136,2.2271-3.8976,2.2271-3.8976l-3.2015,.2784s-.1392-5.1503-.1392-6.5422c0-1.392,.1392-2.6448-1.5312-1.6704-1.6703,.9744-1.6703,2.9231-1.3919,4.1759s0,3.2015,0,3.2015c0,0-6.8207,7.3775-7.6559,9.6047-.8352,2.2271,2.784,11.5533,2.784,11.5533l7.83241-3.3837Z" style="fill:#fff; stroke:#263238; stroke-linecap:round; stroke-linejoin:round;"></path></g></g><g id="Character_2"><g><rect x="217.65169" y="283.2544" width="62.6622" height="4.3974" style="fill:#263238;"></rect><polygon points="286.95429 293.2918 284.32139 293.4612 284.48519 296.0067 280.39529 296.0067 280.39529 294.7455 248.98569 294.7455 246.42289 294.7455 215.01329 294.7455 215.01329 296.0067 210.92339 296.0067 211.08719 293.4612 208.45419 293.2918 207.94609 301.1907 210.579 301.3601 210.72539 299.0849 215.01329 299.0849 215.01329 300.624 246.42289 300.624 248.98569 300.624 280.39529 300.624 280.39529 299.0849 284.68319 299.0849 284.82959 301.3601 287.46249 301.1907 286.95429 293.2918" style="fill:#263238;"></polygon><path d="M218.09139,306.1206s14.951,4.6173,29.6822,3.7378c14.7311-.8795,32.9801-3.0782,32.9801-3.0782v10.2192s-24.8451,1.4338-34.7391,1.4338-28.4219-1.4338-28.4219-1.4338l.4987-10.8788Z" style="fill:#263238;"></path><g><path d="M292.17959,357.3456h0c1.2563-.0775,2.2155-1.221,2.1425-2.554l-5.9073-107.813c-.073-1.333-1.1506-2.3509-2.4069-2.2734h0c-1.2563,.0776-2.2155,1.221-2.1425,2.5541l5.9072,107.8129c.0731,1.3331,1.1507,2.3509,2.407,2.2734Z" style="fill:#263238; stroke:#263238; stroke-linecap:round; stroke-linejoin:round;"></path><path d="M297.88079,349.4875h0c1.2544-.0774,2.213-1.2177,2.1428-2.549l-4.9675-94.1114c-.0705-1.3353-1.14909-2.3562-2.4073-2.2785h0c-1.2544,.0773-2.213,1.2177-2.1427,2.5489l4.9675,94.1115c.0705,1.3352,1.1491,2.3561,2.4072,2.2785Z" style="fill:#b8b8b8; stroke:#263238; stroke-linecap:round; stroke-linejoin:round;"></path></g><path d="M280.78889,285.4303h0c.5765,.0171,1.0577-.4365,1.0747-1.013l1.17741-39.8573c.01709-.5766-.43651-1.0577-1.013-1.0747h0c-.57651-.0171-1.05771,.4365-1.07471,1.013l-1.1775,39.8573c-.017,.5765,.4366,1.0577,1.0131,1.0747Z" style="fill:#263238; stroke:#263238; stroke-linecap:round; stroke-linejoin:round;"></path><g><path d="M188.1408,97.288l-1.5552-8.9723s2.3926-7.5368,1.7945-8.8527c-.5982-1.316-1.1964-1.7945-1.1964-1.7945,0,0-1.9141-3.8282-2.5122-4.0675-.5982-.2392-9.9294,3.7086-10.8865,5.5031-.957,1.7944,0,7.2975,.4786,8.3742,.4785,1.0767,2.5122,3.1104,2.5122,3.1104l2.7515,10.049,8.6135-3.3497Z" style="fill:#fff; stroke:#263238; stroke-linecap:round; stroke-linejoin:round;"></path><path d="M187.1837,77.6685s-3.1104-2.7515-4.1871-2.8711c-1.0766-.1197-6.3404,3.5889-6.2208,4.0674s1.0767,1.6749,1.9141,1.6749,3.7086-1.9141,3.7086-1.9141l1.1963,1.1963s-3.7086,5.0245-3.4693,6.5797,2.7515,2.5122,2.7515,2.5122" style="fill:#fff; stroke:#263238; stroke-linecap:round; stroke-linejoin:round;"></path><path d="M174.1439,80.6593l1.1963,3.23s1.1964,.4786,2.1534,.2393c.9571-.2393,3.8282-1.5552,3.8282-1.5552" style="fill:none; stroke:#263238; stroke-linecap:round; stroke-linejoin:round;"></path><line x1="177.1347" y1="79.9415" x2="177.4936" y2="84.1286" style="fill:none; stroke:#263238; stroke-linecap:round; stroke-linejoin:round;"></line><path d="M180.1255,80.1808s0,1.4355,.2393,2.273" style="fill:none; stroke:#263238; stroke-linecap:round; stroke-linejoin:round;"></path></g><path d="M236.53839,158.6468s-.5462-.9558-1.229-.6827-1.5021,.8193-1.5021,.8193l-3.6869-.9559s.13661-1.7752-1.502-2.3214l-1.6386-.5462s1.2289-1.6386-1.6387-2.8676c-2.8676-1.2289-4.7793-2.0482-4.7793-2.0482,0,0-1.2289-1.7752-1.6386-3.0042-.4097-1.2289-3.4138-5.3255-3.8234-5.7351-.4097-.4097-2.8676-3.5504-2.8676-3.5504,0,0-12.0166-21.0289-13.5187-23.76-1.502-2.731-1.502-3.1407-3.2772-5.462-1.7752-2.3214-2.3214-3.1407-2.731-3.4138-.4097-.2731-2.8676-6.6911-3.5504-7.2373-.6827-.5462-10.5145,2.5945-10.5145,3.96s3.1407,8.0566,3.1407,8.0566c0,0-1.0924,.8193,0,3.1407,1.0925,2.3213,10.1049,23.4869,12.8359,30.3144,2.731,6.8276,15.56689,36.4593,15.56689,36.4593l4.9159,30.4511s-3.41379,31.1338-2.1849,32.0896c1.229,.9559,2.1849,2.5945,2.1849,2.5945,0,0,9.422-2.1848,15.9765,1.5021s14.3379,7.7834,17.3421,6.9641c3.0041-.8193,17.47861-12.2896,21.1655-11.88,3.6869,.4097,6.96411,3.5504,8.0565,2.1848,1.0924-1.3655,1.6387-3.96,1.0924-7.1006-.5462-3.1407-3.96-26.218-3.96-26.218l7.2373-31.4069s21.3021-46.8372,21.4386-49.022c.1366-2.1849,6.691-13.7918,6.8276-16.2497,.1365-2.4579,.5462-3.1407,.5462-3.1407,0,0,3.1407-6.1448,2.59451-6.4179-.54621-.2731-9.28551-3.2772-9.28551-3.2772l-3.0042,7.5103s-2.5945-.4097-3.1407,.5462-15.02059,25.1255-15.02059,25.1255l-16.52281,17.6152s-2.4579,0-3.8235,1.3655c-1.3655,1.3655-3.1406,3.8235-3.1406,3.8235,0,0-1.7752,0-2.73109,.5462-.95581,.5462-1.77511,.8193-1.77511,.8193l-2.3214-.4097-16.1131,.8193Z" style="fill:#92E3A9; stroke:#263238; stroke-linecap:round; stroke-linejoin:round;"></path><path d="M236.53839,158.6468s-2.5359,.9646-2.8276,2.5205c-.2917,1.556,1.4587,3.8898,3.3063,4.2788,1.8477,.389,8.6825,.5639,8.6825,.5639,0,0,9.11341-.9529,10.0858-1.6336,.9725-.6807,2.4312-3.0146,1.2642-4.2788-1.1669-1.2641-3.1118-1.8476-3.1118-1.8476l-17.3994,.3968Z" style="fill:#fff; stroke:#263238; stroke-linecap:round; stroke-linejoin:round;"></path><path d="M235.44469,147.839s.7197,6.6567,.8096,9.5353l.09,2.8785,9.3553,5.7572,8.006-7.0165-.1799-6.5668s-3.2384,3.5083-8.7256,.8096c-5.4873-2.6986-9.3554-5.3973-9.3554-5.3973Z" style="fill:#fff; stroke:#263238; stroke-linecap:round; stroke-linejoin:round;"></path><g><path d="M228.69809,138.8435s-.4498,2.6987,.5397,5.1275c.9895,2.4287,2.7886,2.9685,3.5083,2.9685,.7196,0,1.1694-.1799,1.1694-.1799,0,0,2.6087,7.1064,8.096,9.2653,5.4872,2.159,9.4452,.8996,11.874-1.5292s3.7781-5.6672,3.9581-8.7256c.1799-3.0585,.0899-7.9161,.0899-7.9161,0,0,1.1694-.7196-.89949-8.1859-2.069-7.4663-3.86811-8.1859-6.65671-9.2654-2.7886-1.0794-7.2864-1.6192-12.5937,3.2384-5.3074,4.8576-8.5458,12.9535-8.5458,12.9535l-.5397,2.2489Z" style="fill:#fff; stroke:#263238; stroke-linecap:round; stroke-linejoin:round;"></path><path d="M253.70559,124.7206s2.3389,1.4393,3.32841,4.9475c.98949,3.5082,.89949,7.3763,.89949,8.1859s.1799,1.4393,.1799,1.4393c0,0,.1799-.09,.89961-1.979,.71959-1.8891,2.33879-5.5772,1.52919-7.1065-.8096-1.5292-1.3493-2.0689-1.3493-2.8785s1.0794-.7197-.4498-3.1485c-1.5292-2.4287-2.9685-2.5187-2.9685-2.5187l-2.069,3.0585Z" style="fill:#263238; stroke:#263238; stroke-linecap:round; stroke-linejoin:round;"></path><path d="M255.86449,122.4717s1.4393-1.8891-.1799-4.2279-2.8785-2.069-2.6087-1.5292c.2699,.5397,.4498,1.3493,.4498,1.3493,0,0-4.3178-3.4183-7.916-3.3283-3.5982,.0899-1.979,1.7091-1.979,1.7091,0,0-8.5458,1.3493-10.8846,3.0585-2.3388,1.7091-6.4768,8.6357-6.6567,11.5142-.1799,2.8786,.80961,5.1275,1.1694,6.2069,.3598,1.0795,1.4393,1.6192,1.4393,1.6192,0,0,.3598-.8096,1.0795-.8096,.7196,0,1.889,2.3389,1.889,2.3389,0,0,1.0795,1.0794,1.25941,.1799,.17989-.8996-.17991-2.6087-.26991-3.5083-.0899-.8995,2.24891-4.7676,2.24891-4.7676v1.7991l2.60869-3.3283,1.2594-.1799s-1.979,.2698,1.7991-4.4078c3.7781-4.6777,7.6462-4.7677,9.3553-3.4183,1.7092,1.3493,.8996,3.6881,2.6987,2.6986s3.2383-2.9685,3.2383-2.9685Z" style="fill:#263238; stroke:#263238; stroke-linecap:round; stroke-linejoin:round;"></path><path d="M259.013,137.3143s1.34929-.9895,.98949,2.069c-.3598,3.0584-2.2489,4.6776-2.2489,4.6776l.1799-6.2069,1.07951-.5397Z" style="fill:none; stroke:#263238; stroke-linecap:round; stroke-linejoin:round;"></path><path d="M249.92749,136.8645s2.3388,5.1274,1.8891,6.027c-.4498,.8995-1.979,1.0795-1.979,1.0795" style="fill:none; stroke:#263238; stroke-linecap:round; stroke-linejoin:round;"></path><path d="M250.01749,147.2093s-4.4978,.8996-7.4663-2.2488" style="fill:none; stroke:#263238; stroke-linecap:round; stroke-linejoin:round;"></path><path d="M244.26029,137.5841c0,.7453-.3624,1.3494-.8096,1.3494-.4471,0-.8096-.6041-.8096-1.3494,0-.7452,.3625-1.3493,.8096-1.3493,.4472,0,.8096,.6041,.8096,1.3493Z" style="fill:#263238;"></path><ellipse cx="253.7056" cy="137.6741" rx=".8096" ry="1.3493" style="fill:#263238;"></ellipse><path d="M239.58269,135.4252s2.5187-2.5187,6.1169-.9895" style="fill:none; stroke:#263238; stroke-linecap:round; stroke-linejoin:round;"></path><path d="M252.17639,134.6156s2.69861-.7196,4.2279,1.2594" style="fill:none; stroke:#263238; stroke-linecap:round; stroke-linejoin:round;"></path><path d="M245.78959,139.0234s-1.1694,.9895-2.6087,1.4393" style="fill:none; stroke:#263238; stroke-linecap:round; stroke-linejoin:round;"></path><path d="M252.17639,139.3833s1.3493,1.0794,2.78861,1.2593" style="fill:none; stroke:#263238; stroke-linecap:round; stroke-linejoin:round;"></path></g><path d="M211.27679,166.0709c-.2394,4.3783-.4101,7.9153-.4101,9.0987" style="fill:none; stroke:#263238; stroke-linecap:round; stroke-linejoin:round;"></path><path d="M212.77839,140.8951s-.8015,12.7091-1.3666,22.7442" style="fill:none; stroke:#263238; stroke-linecap:round; stroke-linejoin:round;"></path><path d="M225.20459,155.3696s-3.6869,10.5145-3.5504,17.2055" style="fill:none; stroke:#263238; stroke-linecap:round; stroke-linejoin:round;"></path><path d="M229.57419,159.0565s-1.0924,2.5945-1.2289,6.9641" style="fill:none; stroke:#263238; stroke-linecap:round; stroke-linejoin:round;"></path><path d="M260.43489,157.4179s3.5504,8.1931,3.8235,10.2413" style="fill:none; stroke:#263238; stroke-linecap:round; stroke-linejoin:round;"></path><path d="M275.93269,176.5372c.449,1.7181,.7698,3.2284,.8884,4.3676" style="fill:none; stroke:#263238; stroke-linecap:round; stroke-linejoin:round;"></path><path d="M268.76459,155.5061s3.6636,9.3627,6.0652,17.1845" style="fill:none; stroke:#263238; stroke-linecap:round; stroke-linejoin:round;"></path><path d="M281.72469,146.2402c-.3394,8.9109-.99469,22.272-2.036,28.5197" style="fill:none; stroke:#263238; stroke-linecap:round; stroke-linejoin:round;"></path><path d="M282.01009,137.4813s-.0555,2.2289-.1727,5.6439" style="fill:none; stroke:#263238; stroke-linecap:round; stroke-linejoin:round;"></path><line x1="302.62939" y1="108.6689" x2="309.04729" y2="110.7172" style="fill:none; stroke:#263238; stroke-linecap:round; stroke-linejoin:round;"></line><line x1="182.8736" y1="108.6689" x2="191.2032" y2="105.2551" style="fill:none; stroke:#263238; stroke-linecap:round; stroke-linejoin:round;"></line><g><line x1="246.64689" y1="243.6001" x2="246.74049" y2="248.2079" style="fill:#fff; stroke:#263238; stroke-linecap:round; stroke-linejoin:round;"></line><line x1="245.16679" y1="170.7348" x2="246.59349" y2="240.9714" style="fill:#fff; stroke:#263238; stroke-linecap:round; stroke-linejoin:round;"></line><line x1="247.46679" y1="169.2822" x2="248.55619" y2="226.1765" style="fill:none; stroke:#263238; stroke-linecap:round; stroke-linejoin:round;"></line><line x1="243.351" y1="214.5556" x2="243.47209" y2="247.9658" style="fill:#fff; stroke:#263238; stroke-linecap:round; stroke-linejoin:round;"></line><line x1="243.351" y1="201.8451" x2="243.351" y2="212.8608" style="fill:none; stroke:#263238; stroke-linecap:round; stroke-linejoin:round;"></line></g><path d="M246.49839,251.8395s-11.8631-7.9894-18.7631-9.8052c-6.8999-1.8158-12.46829,4.3579-13.9209,7.5052-1.4526,3.1474,.4842,9.5631,1.2105,10.1684,.7263,.6052,1.2105,2.6631,3.6316,3.3894l54.8364,2.0579s5.4473-9.9263,6.1736-14.1631-.3631-6.2947-3.51049-8.4736c-3.14731-2.1789-13.31571-1.8158-16.22091,.2421s-9.321,7.8684-10.2894,8.5947-2.3,.8473-3.1473,.4842Z" style="fill:#263238; stroke:#263238; stroke-linecap:round; stroke-linejoin:round;"></path><g><path d="M289.62379,338.378c-.0404,0-.0817-.0009-.123-.0034-1.1894-.0674-2.0984-1.085-2.0319-2.2745,.305-5.42,.4314-11.8728,.1593-14.0024-1.05219-.3075-3.3814-.6495-5.554-.7953-1.1878-.0792-2.0866-1.1069-2.0075-2.2955,.0792-1.1886,1.1255-2.0858,2.2948-2.0075,6.9784,.465,8.1839,1.6705,8.5798,2.0665,.6815,.6815,1.711,1.7109,.834,17.2768-.0649,1.1482-1.0159,2.0353-2.1515,2.0353Zm-1.5441-16.1102h0Z" style="fill:#263238;"></path><path d="M288.14219,336.4292h2.7767c1.5519,0,2.766,1.3373,2.6165,2.8819l-.1263,7.8796c-.0068,.4248-.3899,.744-.8089,.6742l-.3148-.0525c-.3267-.0544-.5695-.3318-.5802-.6628l-.1653-5.0928c.0998-1.1637-.79889-2.1721-1.9664-2.2064l-.7148-.021c-1.05869-.0312-1.964,.7555-2.081,1.8081l-.062,5.3831c-.005,.4352-.4043,.7586-.831,.6733h0c-.331-.0662-.5665-.3607-.5584-.6981l.1969-8.1637c.1172-1.3592,1.2547-2.4029,2.619-2.4029Z" style="fill:#263238; stroke:#263238; stroke-linecap:round; stroke-linejoin:round;"></path><path d="M289.28449,357.0017h0c-1.0392,0-1.8816-.8424-1.8816-1.8816v-10.9555c0-1.0391,.8424-1.8816,1.8816-1.8816h0c1.0392,0,1.8816,.8425,1.8816,1.8816v10.9555c0,1.0392-.8424,1.8816-1.8816,1.8816Z" style="fill:#263238; stroke:#263238; stroke-linecap:round; stroke-linejoin:round;"></path></g><g><path d="M210.33029,338.378c.0405,0,.0818-.0009,.123-.0034,1.1895-.0674,2.0985-1.085,2.0319-2.2745-.3049-5.42-.4313-11.8728-.15919-14.0024,1.05219-.3075,3.38139-.6495,5.554-.7953,1.18779-.0792,2.08659-1.1069,2.00739-2.2955s-1.12539-2.0858-2.2947-2.0075c-6.9785,.465-8.1839,1.6705-8.5799,2.0665-.6815,.6815-1.7109,1.7109-.834,17.2768,.0649,1.1482,1.016,2.0353,2.1515,2.0353Zm1.5442-16.1102h0Z" style="fill:#263238;"></path><path d="M211.81189,336.4292h-2.7766c-1.5519,0-2.766,1.3373-2.6165,2.8819l.1263,7.8796c.0068,.4248,.3898,.744,.80891,.6742l.31479-.0525c.3266-.0544,.5695-.3318,.58021-.6628l.16519-5.0928c-.0997-1.1637,.799-2.1721,1.9665-2.2064l.7147-.021c1.0587-.0312,1.9641,.7555,2.081,1.8081l.0621,5.3831c.005,.4352,.4043,.7586,.831,.6733h0c.331-.0662,.56651-.3607,.5583-.6981l-.1969-8.1637c-.1171-1.3592-1.2547-2.4029-2.619-2.4029Z" style="fill:#263238; stroke:#263238; stroke-linecap:round; stroke-linejoin:round;"></path><path d="M210.66959,357.0017h0c1.0392,0,1.8817-.8424,1.8817-1.8816v-10.9555c0-1.0391-.8425-1.8816-1.8817-1.8816h0c-1.0391,0-1.88159,.8425-1.88159,1.8816v10.9555c0,1.0392,.84249,1.8816,1.88159,1.8816Z" style="fill:#263238; stroke:#263238; stroke-linecap:round; stroke-linejoin:round;"></path></g><path d="M265.99019,349.2947c-6.62719,0-16.1961-.1753-19.9544-.2494-23.9479-.4743-24.5565-.7784-25.0455-1.0235-1.6242-.8121-3.9488-4.399-4.4399-6.853-.4158-2.0815-1.55339-54.1808-1.8921-70.0997-.0252-1.1903,.9195-2.176,2.1102-2.2012,.0156-.0009,.0312-.0009,.0468-.0009,1.16971,0,2.13,.9359,2.1553,2.1111,.5669,26.6562,1.5201,67.1396,1.8208,69.4124,.2384,1.1835,1.43,2.9703,2.0547,3.6492,5.5674,.492,46.4311,1.2013,49.1235,.8264,3.5246-.4894,5.5211-2.7681,6.3972-4.0822,1.20121-1.8019,1.0825-4.2011,1.0816-4.2247l-.0042-.1188-.4111-65.6089c-.0076-1.1911,.95191-2.1624,2.1431-2.17h.0135c1.1852,0,2.1489,.957,2.1565,2.1431l.4111,65.5541c.0329,.6436,.0986,3.9677-1.8019,6.8176-2.2062,3.3098-5.5413,5.4267-9.3928,5.9625-.8239,.1146-3.3511,.1559-6.5724,.1559Z" style="fill:#263238;"></path><rect x="223.07489" y="343.8525" width="49.1914" height="6.8986" rx="3.0088" ry="3.0088" style="fill:#263238;"></rect><polygon points="229.06689 311.0338 231.24579 330.8863 242.86679 330.281 242.14049 316.118 231.85109 306.6759 229.06689 311.0338" style="fill:#fff; stroke:#263238; stroke-linecap:round; stroke-linejoin:round;"></polygon><rect x="218.89169" y="261.0145" width="57.826" height="15.7091" style="fill:#787878; stroke:#263238; stroke-linecap:round; stroke-linejoin:round;"></rect><path d="M228.09849,243.4869s-5.3263-.121-8.3526,2.179c-3.0263,2.2999-4.721,5.6894-4.47889,7.8683,.24209,2.1789,.36319,3.5105,.36319,3.5105,0,0-1.6948,1.5737-.36319,6.1737,1.33159,4.5999,7.86839,40.7944,7.86839,40.7944,0,0,4.721,18.0367,4.9631,18.642,.2421,.6052,1.8158,.2421,1.8158,.2421l.9684-10.5315,3.8736,10.5315,8.3526-.3632s1.2105-22.2735,.24211-27.9629c-.96841-5.6895-5.93151-26.5104-5.93151-26.5104,0,0,1.8158-7.021,.4842-10.8946-1.3316-3.8737-4.2368-9.6842-4.9631-10.4105" style="fill:#263238; stroke:#263238; stroke-linecap:round; stroke-linejoin:round;"></path><polygon points="268.27159 310.4446 266.09269 330.2971 254.47169 329.6918 255.198 315.5288 265.48739 306.0867 268.27159 310.4446" style="fill:#fff; stroke:#263238; stroke-linecap:round; stroke-linejoin:round;"></polygon><path d="M268.15279,243.4869s5.3263-.121,8.3526,2.179c3.0262,2.2999,4.721,5.6894,4.4789,7.8683s-.3632,3.5105-.3632,3.5105c0,0,1.6947,1.5737,.3632,6.1737-1.3316,4.5999-7.8684,40.7944-7.8684,40.7944,0,0-4.721,18.0367-4.9631,18.642-.2421,.6052-1.81579,.2421-1.81579,.2421l-.96841-10.5315-3.8737,10.5315-8.3525-.3632s-1.2105-22.2735-.2421-27.9629c.9684-5.6895,5.9315-26.5104,5.9315-26.5104,0,0-1.81579-7.021-.4842-10.8946,1.3316-3.8737,4.2368-9.6842,4.9631-10.4105" style="fill:#263238; stroke:#263238; stroke-linecap:round; stroke-linejoin:round;"></path><g><path d="M232.33529,327.0126s-1.6947-4.1157-.2421-5.0841c1.4526-.9685,8.5947-2.179,9.442-.4843,.8474,1.6948-.121,5.5684-.121,5.5684h-9.0789Z" style="fill:#92E3A9; stroke:#263238; stroke-linecap:round; stroke-linejoin:round;"></path><g><path d="M232.33529,327.0126s-1.8158-1.5736-2.421-.3631c-.60529,1.2105-.1211,6.5368-.1211,6.5368l-1.8158,4.842s-2.7842,2.5421-3.1473,5.3263c-.3632,2.7842-.4842,3.2684,.2421,4.2368s17.5525,.7263,17.5525,.7263c0,0,2.3-.8473,2.7842-2.421s-.4842-11.1368-.4842-11.8631,.121-5.0841-.2421-5.9315c-.3632-.8474-3.2684-1.0895-3.2684-1.0895h-9.0789Z" style="fill:#92E3A9; stroke:#263238; stroke-linecap:round; stroke-linejoin:round;"></path><polyline points="233.18269 328.4652 232.94059 335.4862 231.85109 338.1494" style="fill:none; stroke:#263238; stroke-linecap:round; stroke-linejoin:round;"></polyline><polyline points="239.96159 328.5863 239.96159 336.4547 238.50889 337.7862" style="fill:none; stroke:#263238; stroke-linecap:round; stroke-linejoin:round;"></polyline><path d="M242.62469,348.3177s2.3-.8474,2.7842-2.421c.0434-.141,.0747-.3483,.0965-.6053h-20.9175c-.1174,1.1731-.027,1.6183,.4843,2.3,.7263,.9684,17.5525,.7263,17.5525,.7263Z" style="fill:none; stroke:#263238; stroke-linecap:round; stroke-linejoin:round;"></path></g></g><g><path d="M265.00319,326.4234s1.6947-4.1157,.2421-5.0841-8.5947-2.179-9.442-.4842c-.8474,1.6947,.121,5.5683,.121,5.5683h9.0789Z" style="fill:#92E3A9; stroke:#263238; stroke-linecap:round; stroke-linejoin:round;"></path><g><path d="M265.00319,326.4234s1.81581-1.5736,2.421-.3631c.6053,1.2105,.1211,6.5368,.1211,6.5368l1.8158,4.842s2.7842,2.5421,3.1473,5.3263c.3632,2.7842,.4842,3.2684-.2421,4.2368-.72629,.9684-17.5525,.7263-17.5525,.7263,0,0-2.3-.8473-2.7842-2.421s.4842-11.1368,.4842-11.8631-.121-5.0841,.2421-5.9315c.3632-.8474,3.2684-1.0895,3.2684-1.0895h9.0789Z" style="fill:#92E3A9; stroke:#263238; stroke-linecap:round; stroke-linejoin:round;"></path><polyline points="264.15579 327.8761 264.39789 334.8971 265.48739 337.5602" style="fill:none; stroke:#263238; stroke-linecap:round; stroke-linejoin:round;"></polyline><polyline points="257.37689 327.9971 257.37689 335.8655 258.82959 337.197" style="fill:none; stroke:#263238; stroke-linecap:round; stroke-linejoin:round;"></polyline><path d="M254.71379,347.7285s-2.3-.8474-2.7842-2.421c-.0434-.141-.0747-.3482-.0965-.6053h20.9175c.11741,1.1731,.027,1.6183-.4843,2.3-.72629,.9684-17.5525,.7263-17.5525,.7263Z" style="fill:none; stroke:#263238; stroke-linecap:round; stroke-linejoin:round;"></path></g></g><g><path d="M202.65559,357.3456h-.0001c-1.2562-.0775-2.21549-1.221-2.1424-2.554l5.9072-107.813c.0731-1.333,1.15071-2.3509,2.407-2.2734h0c1.2563,.0776,2.2155,1.221,2.1424,2.5541l-5.9072,107.8129c-.073,1.3331-1.1507,2.3509-2.4069,2.2734Z" style="fill:#263238; stroke:#263238; stroke-linecap:round; stroke-linejoin:round;"></path><path d="M196.9543,349.4875h0c-1.2544-.0774-2.213-1.2177-2.1427-2.549l4.9675-94.1114c.0705-1.3353,1.1491-2.3562,2.4072-2.2785h0c1.2544,.0773,2.213,1.2177,2.1428,2.5489l-4.9675,94.1115c-.0705,1.3352-1.1491,2.3561-2.4073,2.2785Z" style="fill:#b8b8b8; stroke:#263238; stroke-linecap:round; stroke-linejoin:round;"></path></g><path d="M213.86119,285.4303h0c-.5765,.0171-1.0577-.4365-1.0747-1.013l-1.1774-39.8573c-.01709-.5766,.4365-1.0577,1.013-1.0747h0c.5765-.0171,1.0577,.4365,1.0747,1.013l1.1775,39.8573c.017,.5765-.4366,1.0577-1.0131,1.0747Z" style="fill:#263238; stroke:#263238; stroke-linecap:round; stroke-linejoin:round;"></path><path d="M213.11669,284.3237l-12.3348-.4277c-.4192-.0145-.7472-.3661-.7327-.7853h0c.0145-.4193,.3662-.7473,.7854-.7328l12.3347,.4277c.4193,.0145,.7473,.3662,.7328,.7854h0c-.0146,.4192-.3662,.7473-.7854,.7327Z" style="fill:#263238; stroke:#263238; stroke-linecap:round; stroke-linejoin:round;"></path><path d="M293.24589,284.3237l-12.3348-.4277c-.4192-.0145-.7472-.3661-.7327-.7853h0c.0145-.4193,.3661-.7473,.7854-.7328l12.3347,.4277c.4192,.0145,.7473,.3662,.7328,.7854h0c-.0146,.4192-.3662,.7473-.7854,.7327Z" style="fill:#263238; stroke:#263238; stroke-linecap:round; stroke-linejoin:round;"></path><polygon points="231.62289 158.4817 243.56319 199.2589 246.94249 199.2589 235.30939 157.9641 231.62289 158.4817" style="fill:#263238;"></polygon><polygon points="253.91 157.183 244.41059 198.9232 246.94249 198.9232 257.55919 156.7269 253.91 157.183" style="fill:#263238;"></polygon><circle cx="245.07869" cy="204.4541" r="7.542" style="fill:#fff; stroke:#263238; stroke-linecap:round; stroke-linejoin:round;"></circle><path d="M304.913,100.8447l2.94009-9.6118s-3.3925-6.4456-3.1663-7.5764c.22621-1.1308,1.2439-3.8447,1.357-4.6363,.113-.7916,3.9578-2.1485,4.6363-2.1485,.6784,0,7.4633,2.2616,7.6894,2.827,.2262,.5654,.4524,2.4878,.3393,3.5055s-2.0355,8.1418-2.2616,8.8203c-.22619,.6784-3.9579,11.1949-3.9579,11.1949l-7.57629-2.3747Z" style="fill:#fff; stroke:#263238; stroke-linecap:round; stroke-linejoin:round;"></path><path d="M306.26989,82.1865s4.8625-4.4102,5.76711-4.0709c.90469,.3392,3.50549,1.8093,3.50549,2.3747s-.2261,1.8092-1.1308,1.8092c-.9046,0-2.4878-.5654-2.4878-.5654l-1.2438,1.357s2.3746,2.9401,2.4877,3.6186,.22621,3.7316-.7915,4.297" style="fill:#fff; stroke:#263238; stroke-linecap:round; stroke-linejoin:round;"></path><path d="M312.037,84.335s4.184,.6785,4.63629,.5654c.4523-.1131,1.1308-.5654,1.2439-1.8093" style="fill:none; stroke:#263238; stroke-linecap:round; stroke-linejoin:round;"></path><path d="M316.78639,79.0202s.1131,4.2971-1.357,5.5409" style="fill:none; stroke:#263238; stroke-linecap:round; stroke-linejoin:round;"></path><line x1="308.07919" y1="80.4903" x2="307.40069" y2="79.3594" style="fill:none; stroke:#263238; stroke-linecap:round; stroke-linejoin:round;"></line><path d="M314.41169,82.2995s-.4523,1.4701-1.01769,1.8093" style="fill:none; stroke:#263238; stroke-linecap:round; stroke-linejoin:round;"></path><g><path d="M240.56029,331.3257h-7.7247c-.4848,0-.8778-.393-.8778-.8778h0c0-.4848,.393-.8778,.8778-.8778h7.7247c.4848,0,.8779,.393,.8779,.8778h0c0,.4848-.3931,.8778-.8779,.8778Z" style="fill:#92E3A9; stroke:#263238; stroke-linecap:round; stroke-linejoin:round;"></path><path d="M240.56029,333.608h-7.7247c-.4848,0-.8778-.393-.8778-.8778h0c0-.4848,.393-.8778,.8778-.8778h7.7247c.4848,0,.8779,.393,.8779,.8778h0c0,.4848-.3931,.8778-.8779,.8778Z" style="fill:#92E3A9; stroke:#263238; stroke-linecap:round; stroke-linejoin:round;"></path><rect x="231.359" y="334.699" width="9.48039" height="1.7557" rx=".8778" ry=".8778" style="fill:#92E3A9; stroke:#263238; stroke-linecap:round; stroke-linejoin:round;"></rect><path d="M239.25929,338.9125h-7.7247c-.4848,0-.8778-.393-.8778-.8778h0c0-.4848,.393-.8778,.8778-.8778h7.7247c.4848,0,.8778,.393,.8778,.8778h0c0,.4848-.393,.8778-.8778,.8778Z" style="fill:#92E3A9; stroke:#263238; stroke-linecap:round; stroke-linejoin:round;"></path></g><g><path d="M257.62119,331.3257h7.7247c.4848,0,.8778-.393,.8778-.8778h0c0-.4848-.393-.8778-.8778-.8778h-7.7247c-.4848,0-.8778,.393-.8778,.8778h0c0,.4848,.393,.8778,.8778,.8778Z" style="fill:#92E3A9; stroke:#263238; stroke-linecap:round; stroke-linejoin:round;"></path><path d="M257.62119,333.608h7.7247c.4848,0,.8778-.393,.8778-.8778h0c0-.4848-.393-.8778-.8778-.8778h-7.7247c-.4848,0-.8778,.393-.8778,.8778h0c0,.4848,.393,.8778,.8778,.8778Z" style="fill:#92E3A9; stroke:#263238; stroke-linecap:round; stroke-linejoin:round;"></path><rect x="257.34219" y="334.699" width="9.4803" height="1.7557" rx=".8778" ry=".8778" transform="translate(524.16469 671.1537) rotate(-180)" style="fill:#92E3A9; stroke:#263238; stroke-linecap:round; stroke-linejoin:round;"></rect><path d="M258.92219,338.9125h7.72481c.48479,0,.87779-.393,.87779-.8778h0c0-.4848-.393-.8778-.87779-.8778h-7.72481c-.4848,0-.8778,.393-.8778,.8778h0c0,.4848,.393,.8778,.8778,.8778Z" style="fill:#92E3A9; stroke:#263238; stroke-linecap:round; stroke-linejoin:round;"></path></g><g><path d="M219.95979,222.7812s.2289-5.6132,2.378-4.4226c2.149,1.1906,1.6959,2.9468,1.6959,2.9468,0,0,1.8357-1.2935,2.1041-.5528l.2683,.7407s1.16491-3.1452,3.199-1.5778c2.0342,1.5674,1.8173,2.819,1.8173,2.819,0,0,.7118-1.389,1.7337-.4185,1.02191,.9705,.9166,1.7208,.9166,1.7208,0,0,2.0784-1.5489,2.6022-.5656,.5238,.9834,.1727,1.8647,.1727,1.8647,0,0,3.3397-.9585,3.506,.6571s-1.2035,1.651-1.2035,1.651c0,0,1.9064,1.446,1.4405,2.7041-.466,1.2581-1.4782,.6612-1.4782,.6612,0,0,1.52,.9576,1.2902,1.7112s-1.7305,.5431-1.7305,.5431l-13.52809,2.0937-2.14181,3.9181s-2.5828,1.3127-3.3525,.4603c-.7696-.8524-.6901-2.5989-.6901-2.5989,0,0-2.94359,1.8204-4.2402-.1398-1.2967-1.9602,.2803-3.6208,.2803-3.6208,0,0-2.5161-.9319-1.9321-2.4423,.5841-1.5104,1.197-1.9,1.197-1.9,0,0-.7792-1.226-.805-2.2221-.0257-.9962,1.4461-1.9065,1.4461-1.9065,0,0-1.332-3.33,.2547-4.617,1.58661-1.287,4.7994,2.4929,4.7994,2.4929Z" style="fill:#fff; stroke:#263238; stroke-linecap:round; stroke-linejoin:round;"></path><path d="M236.66989,230.5096s10.2039,17.6991,11.9168,19.3258,2.4266,2.3045,4.4214,4.0632,3.6862,2.5505,3.0227,3.8208c-.6634,1.2703-2.554,3.547-4.24179,2.8943-1.68781-.6526-4.58931-5.1728-5.03191-6.1361-.4426-.9632-21.924-13.2192-21.924-13.2192,0,0-3.95009-1.9867-3.9967-3.7957-.0467-1.8089,3.0568-5.6486,6.9135-7.2798,3.8567-1.6313,7.0572-1.7139,8.92,.3267Z" style="fill:#92E3A9; stroke:#263238; stroke-linecap:round; stroke-linejoin:round;"></path><path d="M223.88509,230.0317l.0836,3.2376s2.251,.3157,2.4045,1.4332c.1534,1.1175-.3286,1.753-.3286,1.753,0,0,2.4905-.0643,2.9058,1.5449,.4154,1.6091-.3285,1.7529-.3285,1.7529,0,0,1.8903,.8235,1.4276,2.2061-.4628,1.3826-1.4622,1.2838-1.4622,1.2838,0,0,1.5168,.8331,.0515,1.9924-1.4654,1.1593-2.75879-.6764-2.75879-.6764,0,0-.21371,1.3762-1.46861,1.0347-1.2549-.3414-2.4431-2.9275-2.4431-2.9275,0,0-.0956,1.124-2.1137,.1792s-2.31859-2.9307-2.31859-2.9307c0,0-4.46031,.9873-4.76721-1.2477s1.4107-3.2762,1.4107-3.2762c0,0-1.9-1.197-1.0637-2.5892,.8363-1.3923,2.2061-1.4277,2.2061-1.4277,0,0-1.2742-1.0885,.8138-2.2639,2.088-1.1753,3.9944,.2707,3.9944,.2707" style="fill:#fff; stroke:#263238; stroke-linecap:round; stroke-linejoin:round;"></path></g></g></g><g id="Character_1"><g><g><path d="M142.9114,164.7884s4.0213,5.5027,5.0795,8.4657c1.0582,2.9631,.8465,8.2542,1.0582,9.1007,.2116,.8466,6.561,19.4713,8.0425,25.3973s1.4815,6.9843-.8466,8.8891c-2.3281,1.9048-12.0637,6.7726-14.1802,7.4075-2.1164,.6349-3.5979-7.1959-3.5979-7.1959,0,0,2.963-32.5932,1.4815-37.2493-1.4815-4.6562-2.2244-12.1501-1.4297-13.271,.7948-1.1208,2.4879-3.2373,4.3927-1.5441Z" style="fill:#92E3A9; stroke:#263238; stroke-linecap:round; stroke-linejoin:round;"></path><path d="M146.631,211.6435c-.3088,1.519-.6332,2.7456-.9682,3.5161" style="fill:none; stroke:#263238; stroke-linecap:round; stroke-linejoin:round;"></path><path d="M149.4724,187.2226s-.9312,12.688-2.2757,21.2302" style="fill:none; stroke:#263238; stroke-linecap:round; stroke-linejoin:round;"></path></g><g><path d="M66.7041,386.8603s-4.7592,6.9801-6.9801,9.677c-2.221,2.6968-4.4419,4.6005-6.0283,5.3937s-1.1105,2.2209-.6346,3.3314c.476,1.1105,5.2351,2.2209,9.8356,2.2209s8.8838-.1586,10.7875-.6345c1.9036-.4759,6.0282-1.4278,7.2973-2.221,1.2692-.7932,.6346-13.9602,.6346-13.9602,0,0-12.0565-4.2832-14.912-3.8073Z" style="fill:#92E3A9; stroke:#263238; stroke-linecap:round; stroke-linejoin:round;"></path><path d="M81.7647,398.7313l-.3073-.1317s-4.7591,1.2691-6.0282,1.4277-1.745,3.966-8.4078,5.0764c-5.1171,.8529-11.622-1.0037-14.3722-1.9129-.1297,.6736,.1349,1.4252,.412,2.0716,.4759,1.1104,5.235,2.2209,9.8355,2.2209s8.8838-.1586,10.7875-.6345c1.9036-.476,6.0282-1.4278,7.2973-2.221,.5482-.3426,.7409-2.9948,.7832-5.8965Z" style="fill:#fff; stroke:#263238; stroke-linecap:round; stroke-linejoin:round;"></path></g><g><path d="M134.679,386.8603s4.7591,6.9801,6.9801,9.677c2.2209,2.6968,4.4419,4.6005,6.0283,5.3937,1.5863,.7932,1.1104,2.2209,.6345,3.3314-.4759,1.1105-5.2351,2.2209-9.8356,2.2209s-8.8838-.1586-10.7874-.6345c-1.9037-.4759-6.0283-1.4278-7.2974-2.221s-.6345-13.9602-.6345-13.9602c0,0,12.0565-4.2832,14.912-3.8073Z" style="fill:#92E3A9; stroke:#263238; stroke-linecap:round; stroke-linejoin:round;"></path><path d="M119.6183,398.7313l.3073-.1317s4.7591,1.2691,6.0282,1.4277,1.7451,3.966,8.4079,5.0764c5.117,.8529,11.6219-1.0037,14.3721-1.9129,.1298,.6736-.1348,1.4252-.4119,2.0716-.4759,1.1104-5.235,2.2209-9.8356,2.2209s-8.8837-.1586-10.7874-.6345c-1.9037-.476-6.0283-1.4278-7.2974-2.221-.5482-.3426-.7408-2.9948-.7832-5.8965Z" style="fill:#fff; stroke:#263238; stroke-linecap:round; stroke-linejoin:round;"></path></g><path d="M75.8203,244.7898s-4.6562,26.8788-4.8678,37.8843c-.2117,11.0055-1.0583,25.1856-1.0583,26.2438,0,1.0583,1.0583,58.4138,.635,59.6837-.4233,1.2698-5.2911,8.889-5.2911,10.7938s-.2117,7.6192-.2117,7.6192l.4233,2.3281s6.7726,.6349,8.8891,1.4815c2.1164,.8465,8.0424,2.963,8.0424,2.963,0,0,3.1747,0,4.2329-2.963s1.4815-6.3493,1.9048-9.7357c.4233-3.3863,1.4815-7.4075,2.1164-9.5239,.635-2.1165,1.6932-17.5665,1.6932-20.1062s7.8308-47.1966,7.8308-47.1966l3.1747-23.0692s7.8308,55.6624,8.6774,60.1069c.8466,4.4445,.4233,23.9157,1.0582,26.6671s2.963,6.3493,3.3863,7.8308c.4233,1.4816-.8466,6.7727-1.0582,9.1007-.2116,2.3281,.4233,4.0213,.8466,4.8679,.4233,.8465,5.7144,2.328,7.6192,2.328s11.0054-1.0582,12.0637-.2116c1.0582,.8466,3.8096,2.1164,3.8096,2.1164,0,0,2.328-4.6561,1.4815-10.1589-.8466-5.5027-3.3863-7.4075-3.3863-12.6986s.2116-22.011-.2117-30.0535c-.4233-8.0424-2.3281-43.1753-2.1164-45.5034,.2116-2.3281,2.1164-30.9001,2.1164-30.9001l-61.8-19.8945Z" style="fill:#263238; stroke:#263238; stroke-linecap:round; stroke-linejoin:round;"></path><path d="M140.0959,217.5034c.3505-2.9792,.701-5.4326,1.9277-10.1641s1.9277-11.7413,3.5048-16.4728c1.5772-4.7316-3.8263-23.3207-3.8263-23.3207l1.2093-2.7574c-.3969-1.0128-.7519-1.7615-1.0466-2.1592-2.518-3.3994-5.1891-3.7023-5.6927-3.8282s-1.3849-2.518-4.7842-5.6655-3.5252-3.9029-5.036-3.9029-2.2662,.3777-2.6438,1.0072c-.3778,.6295-1.5109,1.5108-1.5109,1.5108,0,0-1.5108-1.0072-2.0143-1.0072-.5037,0-19.7663-1.3849-19.7663-1.3849,0,0-2.3921-4.4065-4.0288-4.4065s-4.7841-1.1331-4.7841-1.1331c0,0-2.3922-2.518-2.8957-3.0216-.5037-.5036-4.1547-4.9101-4.6584-5.2877-.5035-.3778-2.1402-2.0145-2.1402-2.0145l-8.4353-27.3201-.6295-31.9785s-7.0504,1.0071-9.8202,1.0071-5.6655-3.2734-6.169-4.7841c-.5037-1.5108-.7555-.2518-.7555,1.3848,0,1.6367,.7555,10.7015,.7555,11.7087s1.133,33.2375,.6295,35.8814c-.5037,2.6439,2.1402,13.0935,5.0359,22.2842s9.6943,23.2915,9.9461,24.6763c.2518,1.385,4.1547,26.5649,4.4065,32.2303,.2518,5.6655-3.0216,35.5037-2.6439,38.5253s-.1259,8.6871,0,9.3166,9.6942,6.4209,20.8994,10.7015c11.205,4.2805,21.7805,6.9244,30.9712,8.3093,9.1907,1.3849,11.8346,1.3849,12.2123,.7554s.3777-4.2806,.3777-5.036,.2518-11.3309,.6295-12.8417,1.0072-9.4425,1.0072-9.4425c0,0-.9319-6.4741-.9319-7.5256,0-1.0514,.3505-10.865,.701-13.8441Z" style="fill:#92E3A9; stroke:#263238; stroke-linecap:round; stroke-linejoin:round;"></path><path d="M136.1721,158.801s3.2228,5.0781,2.3466,7.5315-6.1335,9.4631-9.1126,18.05c-2.9791,8.5869-11.7413,17.8748-11.7413,17.8748" style="fill:none; stroke:#263238; stroke-linecap:round; stroke-linejoin:round;"></path><path d="M99.6612,148.0995s1.7061,25.5932,5.7367,36.4583c4.0305,10.865,8.2364,24.8844,8.2364,24.8844,0,0,11.0403-28.214,12.6174-34.3475,1.5772-6.1335,.701-15.2462-.1752-17.5243-.8762-2.2782-3.1544-4.3811-3.1544-4.3811,0,0-5.783-.8762-10.3393-1.4019-4.5563-.5258-12.9216-3.6879-12.9216-3.6879Z" style="fill:#fff; stroke:#263238; stroke-linecap:round; stroke-linejoin:round;"></path><g><path d="M102.9346,146.9664s-3.2734,.1259-3.2734,1.1331,.8813,3.6511,3.1475,10.072,6.6727,43.5612,6.6727,43.5612l3.3993,.1259s9.5683-44.1907,9.946-45.7015c.3777-1.5108-.3777-3.9029-.6295-4.4065-.2518-.5036-11.3309,40.6656-11.3309,40.6656,0,0-6.6727-37.0145-7.1763-39.6584-.5036-2.6439-.7554-5.7914-.7554-5.7914Z" style="fill:#263238;"></path><circle cx="110.2217" cy="208.909" r="7.1763" style="fill:#fff; stroke:#263238; stroke-linecap:round; stroke-linejoin:round;"></circle></g><path d="M100.3445,182.3144c3.38,6.8754,6.6765,12.4523,6.6765,12.4523" style="fill:none; stroke:#263238; stroke-linecap:round; stroke-linejoin:round;"></path><path d="M93.1309,145.3034s-2.1029,9.4631,.7009,20.6786c.9401,3.7605,2.7325,8.2352,4.7,12.5224" style="fill:none; stroke:#263238; stroke-linecap:round; stroke-linejoin:round;"></path><path d="M90.3582,156.1164c1.5615,9.1183,3.7131,21.6243,3.8241,21.9574" style="fill:none; stroke:#263238; stroke-linecap:round; stroke-linejoin:round;"></path><path d="M88.7498,146.7053s.4388,2.5742,1.067,6.2478" style="fill:none; stroke:#263238; stroke-linecap:round; stroke-linejoin:round;"></path><path d="M79.3472,170.7444c-.5759,2.9365-1.0372,5.3067-1.2872,6.6284" style="fill:none; stroke:#263238; stroke-linecap:round; stroke-linejoin:round;"></path><path d="M85.5954,139.1699s-3.3802,16.9952-5.6733,28.6481" style="fill:none; stroke:#263238; stroke-linecap:round; stroke-linejoin:round;"></path><line x1="80.1629" y1="150.2102" x2="76.3076" y2="175.7956" style="fill:none; stroke:#263238; stroke-linecap:round; stroke-linejoin:round;"></line><line x1="132.0366" y1="245.2243" x2="135.7148" y2="249.2223" style="fill:none; stroke:#263238; stroke-linecap:round; stroke-linejoin:round;"></line><line x1="115.5619" y1="227.317" x2="129.7082" y2="242.6934" style="fill:none; stroke:#263238; stroke-linecap:round; stroke-linejoin:round;"></line><line x1="127.8289" y1="245.7175" x2="135.0139" y2="252.9024" style="fill:none; stroke:#263238; stroke-linecap:round; stroke-linejoin:round;"></line><path d="M103.3123,141.175s.1259,5.1619-.3777,7.4281c-.5036,2.2662,.8813,4.1547,1.7626,5.1619s5.2878,5.2878,9.4425,5.2878,7.428-2.7698,7.6798-4.0288-.1259-12.3382-.1259-12.3382l-18.3813-1.5108Z" style="fill:#c2c2c2; stroke:#263238; stroke-linecap:round; stroke-linejoin:round;"></path><g><path d="M104.5713,110.7073s-5.4137,3.2734-6.295,7.6799-.2518,8.0576-.2518,8.0576c0,0-2.0144-.5036-2.3921,2.2662s.7554,6.0432,1.7626,6.7986,2.6439,.3777,2.6439,.3777c0,0,.2518,4.0287,1.6367,5.9172s10.4497,6.7986,13.5972,6.7986,8.1834-3.777,9.3165-7.6799c1.1331-3.9028,2.1403-13.8489,1.3849-19.0108s-3.777-10.1979-8.3094-11.5828c-9.5027-2.9036-13.0935,.3777-13.0935,.3777Z" style="fill:#c2c2c2; stroke:#263238; stroke-linecap:round; stroke-linejoin:round;"></path><path d="M126.226,128.4592s2.0144-1.7626,2.2662,1.1331c.2518,2.8957-2.6439,6.1691-2.6439,6.1691l.3777-7.3022Z" style="fill:#c2c2c2; stroke:#263238; stroke-linecap:round; stroke-linejoin:round;"></path><path d="M113.0066,130.9772s-.8813,2.0144-.5036,2.6439c.3777,.6295,3.0216,1.5108,4.7841,1.0072,1.7626-.5036,2.7698-1.1331,2.3921-2.0144s-.8813-2.1403-.8813-2.1403" style="fill:none; stroke:#263238; stroke-linecap:round; stroke-linejoin:round;"></path><path d="M118.7979,137.3981s-5.0359,1.2589-8.5611-1.5108" style="fill:none; stroke:#263238; stroke-linecap:round; stroke-linejoin:round;"></path><path d="M111.1181,126.6336c0,.9387-.5073,1.6997-1.1331,1.6997s-1.1331-.761-1.1331-1.6997,.5073-1.6996,1.1331-1.6996,1.1331,.7609,1.1331,1.6996Z" style="fill:#263238;"></path><path d="M121.8195,126.6336c0,.9387-.5073,1.6997-1.1331,1.6997s-1.1331-.761-1.1331-1.6997,.5073-1.6996,1.1331-1.6996,1.1331,.7609,1.1331,1.6996Z" style="fill:#263238;"></path><path d="M107.2152,124.1786s2.3921-1.8885,5.2878-.2518" style="fill:none; stroke:#263238; stroke-linecap:round; stroke-linejoin:round;"></path><path d="M118.672,124.0527s2.8957-2.1403,5.036,.5036" style="fill:none; stroke:#263238; stroke-linecap:round; stroke-linejoin:round;"></path><path d="M117.6648,110.3296c-9.5028-2.9036-13.0935,.3778-13.0935,.3778,0,0-5.4137,3.2733-6.295,7.6798s-.2518,8.0576-.2518,8.0576c0,0,1.3849,0,1.5108,.6295s.6295,1.3849,.8813,.1258c.2518-1.2589-.2518-1.6366,.1259-2.6438s2.518-1.3849,2.6439-3.1475-1.1331-2.2662-1.259-4.1547,.2518-4.1547,3.0216-5.036c1.999-.6361,11.4064-.0262,16.4885,.3625-1.0958-1.0334-2.3608-1.8196-3.7727-2.251Z" style="fill:#263238; stroke:#263238; stroke-linecap:round; stroke-linejoin:round;"></path></g><path d="M71.1524,74.1005s.4853-3.8016,.6471-4.1252c.1618-.3235,1.7795-4.0442,1.7795-6.0664s-2.1031-6.4708-3.2355-8.493c-1.1324-2.0221-4.5296-2.7501-5.9855-.728-1.4559,2.0222-6.1473,8.1695-6.4709,10.677-.3235,2.5074-.0808,4.206,0,4.5296,.0809,.3235-.1617,2.9927-.1617,3.3972,0,.4044,3.6398,4.4487,7.037,4.0443,3.3972-.4045,6.39-3.2355,6.39-3.2355Z" style="fill:#c2c2c2; stroke:#263238; stroke-linecap:round; stroke-linejoin:round;"></path><g><path d="M90.0899,29.6357s5.5272-1.0053,4.8359,1.3522c-.6913,2.3576-2.5041,2.2999-2.5041,2.2999,0,0,1.6639,1.508,.9999,1.932l-.6641,.424s3.324,.4481,2.2399,2.7761c-1.0842,2.3279-2.353,2.3902-2.353,2.3902,0,0,1.5112,.3905,.7879,1.6-.7232,1.2096-1.4784,1.2711-1.4784,1.2711,0,0,1.9663,1.6889,1.1214,2.4153-.8448,.7263-1.7816,.5767-1.7816,.5767,0,0,1.6662,3.0488,.1262,3.5647s-1.8743-.8129-1.8743-.8129c0,0-.9938,2.1768-2.3233,1.9975-1.3296-.1793-.9687-1.2977-.9687-1.2977,0,0-.6017,1.6928-1.3873,1.6335-.7856-.0592-.9087-1.5696-.9087-1.5696l-5.004-12.7418-4.2919-1.2322s-1.8463-2.2329-1.183-3.1705c.6632-.9375,2.3848-1.2422,2.3848-1.2422,0,0-2.4206-2.4737-.7917-4.168s3.5944-.519,3.5944-.519c0,0,.3585-2.6592,1.9601-2.4199s2.1159,.7522,2.1159,.7522c0,0,1.0257-1.0288,1.9921-1.2719,.9664-.2432,2.1767,.9937,2.1767,.9937,0,0,2.9577-2.0286,4.5608-.7621s-1.3819,5.2287-1.3819,5.2287Z" style="fill:#fff; stroke:#263238; stroke-linecap:round; stroke-linejoin:round;"></path><path d="M86.2065,47.6322s-15.0363,13.8305-16.2487,15.858c-1.2123,2.0274-1.7175,2.8722-2.9969,5.2036-1.2794,2.3313-1.6817,4.155-3.0665,3.7857-1.3847-.3693-4.02-1.7157-3.7526-3.5054s4.0428-5.6103,4.8859-6.253c.843-.6427,8.0998-24.2858,8.0998-24.2858,0,0,1.0739-4.2892,2.8288-4.7307,1.7549-.4416,6.1807,1.7462,8.6166,5.1524,2.4358,3.4061,3.217,6.5109,1.6336,8.7752Z" style="fill:#92E3A9; stroke:#263238; stroke-linecap:round; stroke-linejoin:round;"></path><path d="M83.8745,35.0528l-3.1409,.7902s.1847,2.2656-.8721,2.66c-1.0568,.3943-1.7824,.0631-1.7824,.0631,0,0,.6079,2.416-.8714,3.1735-1.4792,.7575-1.7824,.0631-1.7824,.0631,0,0-.3897,2.0247-1.84,1.8758-1.4504-.1488-1.5728-1.1456-1.5728-1.1456,0,0-.4809,1.6623-1.9328,.4862-1.4519-1.176,.0562-2.8399,.0562-2.8399,0,0-1.3896,.0927-1.3311-1.2065s2.3217-3.0246,2.3217-3.0246c0,0-1.1176,.1527-.6374-2.0232,.4801-2.176,2.3521-2.9039,2.3521-2.9039,0,0-1.9397-4.1361,.1739-4.9247,2.1136-.7887,3.5055,.6594,3.5055,.6594,0,0,.7521-2.116,2.2937-1.6047s1.8759,1.8401,1.8759,1.8401c0,0,.7833-1.4815,2.3871,.2986,1.6039,1.78,.6102,3.9568,.6102,3.9568" style="fill:#fff; stroke:#263238; stroke-linecap:round; stroke-linejoin:round;"></path><path d="M77.6603,43.3193l3.1409,.7902s-.1847,2.2656,.8721,2.6599c1.0568,.3944,1.7824,.0631,1.7824,.0631,0,0-.6078,2.416,.8714,3.1735s1.7824,.0631,1.7824,.0631c0,0,.3897,2.0248,1.8401,1.8759,1.4503-.1489,1.5727-1.1457,1.5727-1.1457,0,0,.4809,1.6624,1.9328,.4863s-.0562-2.84-.0562-2.84c0,0,1.3896,.0927,1.3311-1.2064-.0584-1.2992-2.3217-3.0247-2.3217-3.0247,0,0,1.1176,.1528,.6375-2.0232-.4802-2.1759-2.3522-2.9038-2.3522-2.9038,0,0,1.9397-4.1361-.1739-4.9248-2.1136-.7886-3.5055,.6594-3.5055,.6594,0,0-.7521-2.1159-2.2937-1.6046-1.5415,.5113-1.8759,1.8401-1.8759,1.8401,0,0-.7832-1.4816-2.3871,.2985s-.6102,3.9568-.6102,3.9568" style="fill:#fff; stroke:#263238; stroke-linecap:round; stroke-linejoin:round;"></path></g><g><path d="M58.4533,61.6441s3.4781,3.3972,4.3679,3.8825c.8897,.4853,1.4559,.4045,1.7795,0,.3235-.4044,.3235-1.2941,.3235-1.2941,0,0,1.4559,1.1324,2.103,.4853s-.0809-3.0737-.0809-3.0737c0,0,1.0516-1.0515,1.1324-2.0221,.0809-.9707-2.5883-5.5003-2.5883-5.5003,0,0,1.9413-.3235,1.8604-1.2132-.0809-.8898-.6471-2.2648-2.1839-1.8604-1.5369,.4044-1.3751,2.103-1.3751,2.103,0,0-1.6986-.0809-2.1839,1.1324s-3.2354,5.1767-3.1546,7.3606Z" style="fill:#c2c2c2; stroke:#263238; stroke-linecap:round; stroke-linejoin:round;"></path><line x1="64.9242" y1="64.2325" x2="59.8284" y2="58.8131" style="fill:none; stroke:#263238; stroke-linecap:round; stroke-linejoin:round;"></line><line x1="66.7037" y1="61.0779" x2="62.1741" y2="55.6586" style="fill:none; stroke:#263238; stroke-linecap:round; stroke-linejoin:round;"></line></g><path d="M68.1596,68.2767s-.0809-2.9927,.3236-4.3678c.4044-1.375,1.5368-3.6398,1.6986-3.9634,.1617-.3235-.0809-3.3972,.1617-4.5296,.2427-1.1324,1.9413-3.6398,2.5884-2.5074s.2426,4.6104,.2426,6.309,1.2133,3.8826,.0809,6.9562c-1.1324,3.0737-2.9119,5.7429-2.9119,5.7429" style="fill:#c2c2c2; stroke:#263238; stroke-linecap:round; stroke-linejoin:round;"></path><path d="M126.1001,265.4379c9.1907,1.3849,11.8346,1.3849,12.2123,.7554,.323-.5384,.3697-3.282,.3764-4.539-1.1097-.1428-2.7767-.3804-5.2817-.7811-6.2154-.9945-27.2236-5.8426-27.2236-5.8426l-.7459,4.3509-1.8646-.4972,.6215-3.978-3.1077-1.1188c-2.414-.8689-19.2982-9.3107-26.7186-13.0375-.0288,2.6137-.2224,5.2585-.1387,5.6771,.1259,.6295,9.6942,6.4209,20.8994,10.7015,11.205,4.2805,21.7805,6.9244,30.9712,8.3093Z" style="fill:#787878; stroke:#263238; stroke-linecap:round; stroke-linejoin:round;"></path></g></g><g id="Podium"><polygon points="328.55959 403.8004 328.55959 356.2178 169.9192 356.2178 169.9192 403.8004 33.4469 403.8004 33.4469 467.0583 169.9192 467.0583 183.8269 467.0583 315.02459 467.0583 328.55959 467.0583 465.40459 467.0583 465.40459 403.8004 328.55959 403.8004" style="fill:#fff; stroke:#263238; stroke-linecap:round; stroke-linejoin:round;"></polygon></g><g id="Numbers"><path d="M244.02339,418.8601v-35.3556c-.4027,.2193-.8593,.4386-1.3702,.6579-.5123,.2193-1.0509,.4478-1.6171,.6846-.5672,.2387-1.1154,.4663-1.6448,.6856-.5298,.2193-1.014,.4386-1.4522,.6579v-6.7975c.4013-.2193,.9675-.5206,1.6991-.9039,.7307-.3842,1.51581-.8127,2.3571-1.2882,.8403-.4745,1.6254-.9592,2.357-1.4531,.73071-.493,1.2785-.9223,1.6443-1.2882h7.1813v44.4005h-9.1545Z" style="fill:#92E3A9;"></path><path d="M90.7787,455.8384v-6.4685l10.6344-16.3343c.803-1.2062,1.5623-2.3755,2.2745-3.5089,.7128-1.1315,1.297-2.2833,1.754-3.4526,.4566-1.1693,.6856-2.393,.6856-3.6729,0-1.2789-.2562-2.2289-.7676-2.85-.5123-.621-1.2057-.9325-2.0829-.9325-.9869,0-1.754,.2746-2.3022,.8229-.5483,.5473-.9233,1.2789-1.1237,2.1921-.2014,.914-.3018,1.9378-.3018,3.0693v2.193h-8.8799v-2.357c0-2.6307,.4197-4.9786,1.261-7.0435,.8399-2.064,2.1736-3.6913,4.0013-4.879,1.8268-1.1868,4.2207-1.7812,7.1808-1.7812,3.9825,0,6.9891,1.033,9.0172,3.097,2.0281,2.0649,3.0421,4.9426,3.0421,8.633,0,1.7912-.2833,3.4535-.8495,4.9886-.5672,1.5351-1.3158,3.0242-2.2474,4.4672-.932,1.4439-1.9281,2.9513-2.9878,4.5224l-8.1123,12.1142h12.9909v7.1807h-23.1867Z" style="fill:#92E3A9;"></path><path d="M397.39889,456.6604c-3.1071,0-5.5462-.5852-7.3181-1.7535-1.7729-1.1693-3.0343-2.8049-3.7825-4.9067-.7491-2.1009-1.12329-4.5215-1.12329-7.2628v-1.5895h9.15359v1.5895c0,1.4623,.0913,2.6501,.2746,3.5632,.1825,.9141,.5114,1.5812,.986,2.0005,.4745,.4211,1.1324,.6302,1.9737,.6302,.8403,0,1.4706-.2193,1.8908-.657,.4202-.4386,.703-1.0965,.8495-1.9737,.1456-.8772,.2193-1.9737,.2193-3.2886,0-2.193-.3013-3.8645-.9039-5.0163-.6035-1.1509-1.8548-1.7443-3.7549-1.7812h-1.6991v-6.3035h1.4798c1.9369,0,3.2343-.5299,3.8922-1.5895,.657-1.0597,.9859-2.7044,.9859-4.9334,0-1.7176-.22849-3.0334-.6846-3.9465-.45789-.9132-1.3075-1.3711-2.5487-1.3711-1.2061,0-2.0014,.5123-2.3847,1.5351-.3842,1.0237-.5759,2.3395-.5759,3.9465v2.3027h-9.15359v-2.686c0-2.6676,.48379-4.9242,1.45219-6.7698,.9675-1.8447,2.3571-3.2426,4.1659-4.1935,1.8088-.95,3.9741-1.4255,6.4961-1.4255,2.557,0,4.75,.458,6.5773,1.3711,1.8272,.9132,3.2342,2.2566,4.2211,4.0286,.9868,1.7728,1.4798,3.9741,1.4798,6.6049,0,2.5956-.5298,4.7693-1.5895,6.5237-1.0606,1.7535-2.3395,2.8316-3.83689,3.2334,1.02189,.3658,1.94519,.9509,2.768,1.7544,.822,.8044,1.47069,1.8908,1.94609,3.2619,.4746,1.3702,.7123,3.1154,.7123,5.2347,0,2.7044-.3935,5.0974-1.1785,7.1808-.786,2.0824-2.0742,3.7189-3.8645,4.9057-1.7913,1.1868-4.1659,1.7812-7.1255,1.7812Z" style="fill:#92E3A9;"></path></g><g id="Floor"><line x1="497.72829" y1="467.0583" x2="6.63749" y2="467.0583" style="fill:none; stroke:#263238; stroke-linecap:round; stroke-linejoin:round;"></line></g></svg>
