<svg xmlns="http://www.w3.org/2000/svg" viewBox="0 0 500 500"><g id="background-simple"><path d="M279.85,460.69S202,474.76,137.5,421.16,51.44,278.8,32.07,207.34,42.59,71.4,102.92,49.74,192.51,79.57,269.1,94.52s99.25,7.31,155.36,61.62,49.32,159.52-14.64,227.61S279.85,460.69,279.85,460.69Z" style="fill:#92E3A9"></path><path d="M279.85,460.69S202,474.76,137.5,421.16,51.44,278.8,32.07,207.34,42.59,71.4,102.92,49.74,192.51,79.57,269.1,94.52s99.25,7.31,155.36,61.62,49.32,159.52-14.64,227.61S279.85,460.69,279.85,460.69Z" style="fill:#fff;opacity:0.7000000000000001"></path></g><g id="Silhouettes"><path d="M475.56,225.14c0-5.32-2.25-19.23-2.25-19.23l-2.87-15.76.21-6.55,3.27-2.92V159.74a28.69,28.69,0,0,0-2.46-3.15s0-4.09-2.25-5.11a4.69,4.69,0,0,1-2.45-3.69l-1.43-1L450.6,24.21,247,46.93l12.48,104.75s-8.6-.61-9.83,0-1.63,2.66-1,2.66.62,1.23.62,1.23-.21,7-.21,8.18-.41,5.94-.82,6.55a16.24,16.24,0,0,0-1,2.66l.61,1.64s-1.43.82,0,2.45a29.74,29.74,0,0,0,5.12,4.51c.82.41,2.05,2,3.27,2.86s3.69,2.25,3.69,2.25l.41,10.23s-2.05,17.81-2.05,23.54-1.23,15.14-.82,19.44,1.23,12.68,1.23,15.55-.62,6.55,2,8.59,9.83,2.87,9.83,2.87,17.6,3.48,19,3.48,12.28,4.09,17.8,4.7a62.93,62.93,0,0,0,9.41.41s2.46,5.32,4.71,5.32,6.34-.2,8.19-.2,6.75,1.63,6.75,1.63,3.27,13.92,3.48,16.78,7.18,71.58,7.18,71.58-3.13,29.13-3.13,33.63-.42,53-.42,53v6H449.93l-24.48-95.7-1.76-14.11-5-59.91-1.23-17.39,7-.82a14.29,14.29,0,0,0,7,.82c3.48-.62,5.11-6.35,5.11-6.35l18.21-6.55,10.85-3.88s7.37-1.85,8.8-4.3,1.84-10.44,1.84-10.44S475.56,230.46,475.56,225.14Zm-18-7.57s-.61,17.39-1.23,19.85-4.09,4.5-5.73,4.71-6.55,1-12.28,1.63-8.18,2.87-9.61,2.87a39,39,0,0,1-9.21-1.23c-3.69-1-6.14,0-7-.2s-3.27-1.44-4.3-1.44-3.07,2.46-4.5,2.66-8.8,1.64-8.8,1.64a18.57,18.57,0,0,1,.62-2.45c.41-1.23,3.07-4.92,4.5-7.17s1.84-8.59,1.84-8.59,1.64-.41,1.64-1.23-.21-2.66-.21-2.66a21.19,21.19,0,0,0,1.64-7.57c0-3.89-1.23-4.09-1.23-4.09s-.12-.72-.27-1.75c5.8-.76,13.56-2.25,14.12-4.49.68-2.71-10.64-3.79-15.12-4.11-.76-2.85-3.16-6.88-4.87-8.07-2-1.43-10.84-3.68-13.5-3.27s-10.44,2.66-13.3,5.32-5.12,15.75-5.12,15.75l-1.23,1.23s-.2,4.09-.2,4.91.82,7.57,1.84,9.21,3.27.82,3.27.82.41,4.09.62,4.91,1.23,6.14.61,6.55-.82,3.27-1.23,4.09a7,7,0,0,1-2,2.25c-.82.62-2.05,1.64-3.07,1.64a19.79,19.79,0,0,1-2.87-.41,30.24,30.24,0,0,1-3.88-.82c-.62-.2-1.44-1-3.89-2.05s-5.53-.2-7,.21a43.56,43.56,0,0,1-5.73.82c-1.84.2-11.66,1-12.69,1.43s-5.32.41-7.16.41a12.13,12.13,0,0,0-4.3,1.23l-8.8-1.23-15.14-.61s-7.16,0-9.21-.82-4.91-10.44-5.52-13.1-4.09-22.1-4.91-25.78,0-18.62,0-18.62l181.3-25.17v4.7c0,2.25.41,3.48.41,6.55a43,43,0,0,0,1,10.85,79.42,79.42,0,0,1,2.25,14.32C458.37,205.7,457.55,217.57,457.55,217.57ZM386,463.21l7-44,8.79,44.21" style="fill:#a1a1a1"></path><path d="M187.35,303.64l-1-52.23-42.21-1.06-6.33-2.11L133,245.61l-4.22-1.06-.53-3.16v-3.17c0-1.58-3.69-8.44-5.27-10.55s-5.81-3.17-5.81-3.17L118.76,214a32.09,32.09,0,0,0,1.59-7.91c0-3.17-3.17-13.72-3.17-13.72s-.53-4.22-.53-6.86-4.22-13.19-12.13-13.19S95,178.6,95,178.6s-8.44-8.44-13.72-4.75-1,6.86-1,6.86-2.11.53-4.75,1-6.86,3.7-5.8,8.45,3.69,6.33,3.69,6.33a6.22,6.22,0,0,0-.53,6.86,8.68,8.68,0,0,0,5.81,4.22l4.74,13.19s-9,3.69-12.66,6.86-3.69,13.72-5.27,13.72H62.31l-5.8,5.27-24.27,1.06L30.65,301l-1,10-5.28,6.33a45.42,45.42,0,0,0,1.06,7.92,96.83,96.83,0,0,0,4.22,13.19v31.65l10,1.06L46,373.82s2.11,5.8,3.17,9.49a39.31,39.31,0,0,1,1.58,9.5c0,2.11,1.58,5.8,2.11,11.08s0,5.8,0,9.5A85.21,85.21,0,0,1,52.28,425c-.52,3.69-.52,7.91-1.05,10s-3.69,9-3.69,12.13c0,1.84.7,9.85,1.3,16.27H73.91a40.8,40.8,0,0,0,.53-4.13c0-2.11,1.06-4.22,3.7-6.86s-.53-7.91-.53-9.5,6.33-16.88,6.33-16.88a20.14,20.14,0,0,1,1.58,5.28,54.1,54.1,0,0,1,1.06,10.55c0,4.75,1.58,5.27,2.11,6.86a37.68,37.68,0,0,1,1.06,9c0,1.08-.13,3.29-.29,5.71H112.9c.59-6.91,1.12-13.5,1.12-14.68,0-2.64,6.33-33.24,6.33-33.24l8.44-22.69L126.68,405l4.22-2.11-.53,18.46,13.19,7.92,6.86-53.29h38V322.64s2.11-2.64,4.22-10.55S187.35,303.64,187.35,303.64Z" style="fill:#a1a1a1"></path><path d="M359.72,204.14c-9.16-21.84-14.79-31-21.13-28.89s-4.94,7.75-12,16.91-19,15.5-24.66,18.32-38.75,16.21-38.75,16.21-8.46-14.09-19-18.32-24.66,2.11-26.77,14.8-.7,21.84,1.41,26.06,4.93,9.16,4.93,11.28a3.33,3.33,0,0,1-3.52,3.52c-2.11,0-10.69-4.94-12.81-7.75s-9.46-7.86-13.71-13.49-12.45-15.32-12.45-15.32L163,178.94s-7.61-16.85-8.18-19.95-2.87-15.49-5.29-14.72-1.87,14.12-1.87,14.12L132,146.55s-3,2.8-1.17,4.06,7.33,10.18,7.33,10.18-5.53,6.47-6.71,10.53,4.82,8.72,7.73,8.83a18.79,18.79,0,0,0,6.19-1.15s4.79,24.11,6.52,28.27,8.93,27.51,14.73,32.85c0,0,8.18,19.95,18,31.59s16.21,20.07,16.21,20.07l11.63,20.16s-1.41,33.82-1.41,40.16-5.64,18.32-5.64,29.59.71,31,1.41,39.46,1.41,9.86,2.12,18.32,4.22,23.95,4.22,23.95H278s14.09-59.18,14.09-66.23-1.4-24.66-3.52-30.29S282.93,350,282.93,350V335.9s16.91,14.79,25.36,7,6.34-30.29,6.34-30.29,7.75-6.35,10.57-24.66-3.52-43-3.52-47.21v-9.16s14.09-4.93,18.32-4.93,20.43,5.63,23.25,2.82S368.88,226,359.72,204.14Zm-81.38,59.29c-8.08-1.62-8.48-1.62-10.1-1.62s-2.83-4.85-2.83-8.49-.4-7.68-.4-7.68,3.23,2,4.44,2a21.66,21.66,0,0,1,3.24.41,3.63,3.63,0,0,0,3.63,1.61c2.43-.4,13.75-4.85,13.75-4.85s2,4.85,2,8.49,2.42,17,2.42,17S286.43,265,278.34,263.43Zm37.59-30.32,2,18.19-4.85-6.87-1.61-10.11Zm2.43,60.22c-1.62,9.71-6.06,15-6.06,15s-.41-5.25-.41-10.11V271.1l7.28-5.65a41.12,41.12,0,0,1,1.61,10.5C320.78,281.21,320,283.63,318.36,293.33Z" style="fill:#c4c4c4"></path></g><g id="character-3"><path d="M384.05,215l4.62,1.85a60.34,60.34,0,0,0,6.46,3.69c4.67,2.41,3.71,16.71,3.26,20.74s.14,22.8,1.71,31.79,4,20.14,4,20.14l-62.23-2.7,4.83-28.09,2.64-20.7s4.92-7.81,7.44-11.13,17.39-14.24,19.92-14.67S384.05,215,384.05,215Z" style="fill:#263238;stroke:#263238;stroke-linecap:round;stroke-linejoin:round"></path><path d="M393.26,246.16s1.68-2.21,2.95-.78,1,5.08-.13,8.29a5.27,5.27,0,0,1-4.46,3.4Z" style="fill:none;stroke:#263238;stroke-linecap:round;stroke-linejoin:round"></path><polygon points="365.87 463.42 374.53 418.5 385.24 463.42 415.91 463.42 410.73 381.3 337.12 380.75 330.84 463.42 365.87 463.42" style="fill:#263238"></polygon><path d="M352.37,283.71S330,295.88,326.23,297.8s-4,15.47-3.65,19.19-4.43,41.63-4.43,41.63-16.78,12.22-16.84,13.14.53,11.43,7.82,13.11,21.33-11,23.61-13a49.55,49.55,0,0,0,5.31-6.14s-3.83,12.09-2.45,14.64,36,6.23,53.3,5.15,21.43-2.68,23.06-4.12.62-15.06.62-15.06,7.34,9.25,10.39,11.42c4.72,3.38,21.53,5.65,25.42,2.5s3.06-9.67.24-13.85-15.47-9-15.47-9-7.56-37.14-7.5-38.06,0-20.64-1.63-23.52S403.5,284.1,398,283.75s-18.07-1.73-29.49-1.51S352.37,283.71,352.37,283.71Z" style="fill:#92E3A9;stroke:#263238;stroke-linecap:round;stroke-linejoin:round"></path><path d="M375.81,303.41l-17.13-10.33c-8.56-5.16-10.73-7.62-10.8-9.55s5.6-6.22,7-6.72,3.16-4.24,8.85-5.63,16.74-2.05,21.31-1,8.27,6.69,8.27,6.69,10.47,2.58,8.31,9.4S380.36,301.76,378.73,303A2.52,2.52,0,0,1,375.81,303.41Z" style="fill:#92E3A9;stroke:#263238;stroke-linecap:round;stroke-linejoin:round"></path><path d="M364.33,264.26s.62,14.92.87,17.06c.49,4.11,8.78,20.43,12,19.09s9.21-17.78,9.56-20.27,2.06-14.56,2.06-14.56S373.28,269.13,364.33,264.26Z" style="fill:#cfcfcf;stroke:#263238;stroke-linecap:round;stroke-linejoin:round"></path><path d="M380.88,222.17s5.2,1.94,9.88,8.19,2.12,18.91,1.79,24.25-3.9,15.42-9.69,17.45-14,.62-17.6-4.07a28.06,28.06,0,0,1-5.86-16.46C359.31,246.92,370.4,223,380.88,222.17Z" style="fill:#cfcfcf;stroke:#263238;stroke-linecap:round;stroke-linejoin:round"></path><path d="M373,234.56l13-8.06s2.34,13.86,7.27,19.66c0,0,1.82-1.73,2.34-6.67s-1.56-10.13-4.68-13.76-6-6.76-11.69-6S371.44,232.22,373,234.56Z" style="fill:#263238;stroke:#263238;stroke-linecap:round;stroke-linejoin:round"></path><path d="M379.15,240.07s.73,10.09-.47,10.79-3.45-.41-3.79-1.2" style="fill:none;stroke:#263238;stroke-linecap:round;stroke-linejoin:round"></path><line x1="372.97" y1="255.72" x2="379.5" y2="256.32" style="fill:none;stroke:#263238;stroke-linecap:round;stroke-linejoin:round"></line><path d="M380.45,237.83s2.74-3.69,9-1.56" style="fill:none;stroke:#263238;stroke-linecap:round;stroke-linejoin:round"></path><path d="M372.85,238.91a7.9,7.9,0,0,0-7.69-3.76" style="fill:none;stroke:#263238;stroke-linecap:round;stroke-linejoin:round"></path><path d="M385.4,242.1c-.07,1.22-.61,2.18-1.19,2.15s-1-1.06-.93-2.28.62-2.18,1.2-2.15S385.48,240.88,385.4,242.1Z" style="fill:#263238"></path><path d="M370.84,241.78c-.08,1.22-.61,2.18-1.2,2.15s-1-1.06-.92-2.28.61-2.19,1.2-2.15S370.91,240.56,370.84,241.78Z" style="fill:#263238"></path><polyline points="335.49 322.41 341.62 337.89 338.05 365.71" style="fill:none;stroke:#263238;stroke-linecap:round;stroke-linejoin:round"></polyline><path d="M414.8,320.54s-4.37,15.75-4.42,16.67,2.2,29.11,2.2,29.11" style="fill:none;stroke:#263238;stroke-linecap:round;stroke-linejoin:round"></path><rect x="298.59" y="341.04" width="154.7" height="104.57" transform="matrix(1, 0, 0, 1, 0.42, -0.4)" style="fill:#fff;stroke:#263238;stroke-linecap:round;stroke-linejoin:round"></rect><path d="M346.82,376.09l-.31-18.69v-.27c0-1.65.25-2.7.76-3.15a1.44,1.44,0,0,1,1-.33,6.44,6.44,0,0,1,5.12,2.11,8,8,0,0,1,1.84,5.43,9.89,9.89,0,0,1-1.1,4.34,8.75,8.75,0,0,1-2.63,3.35,10.53,10.53,0,0,1,4,4.79,15.83,15.83,0,0,1,1.2,6.1,8.06,8.06,0,0,1-.84,3.46,15,15,0,0,1-1.68,2.83,7,7,0,0,1-2.22,1.77,6.34,6.34,0,0,1-3,.72h-.18c-1.43,0-2.15-.38-2.15-1.14Zm2.83-19.84c-.43,0-.65.55-.65,1.65s0,2.83.09,5.19.09,4.07.09,5.13a3.27,3.27,0,0,0,2.05-2,24,24,0,0,0,1.14-2.78c.3-.89.5-1.44.59-1.65v-1.64a4.34,4.34,0,0,0-1-2.64A2.9,2.9,0,0,0,349.65,356.25ZM353,384a6.6,6.6,0,0,0,1.3-4.05,18.65,18.65,0,0,0-.38-4,11,11,0,0,0-.84-2.63,6.37,6.37,0,0,0-1.07-1.51,3.45,3.45,0,0,0-1.21-.92h-1.64q.22,6.35.22,15.25A5.36,5.36,0,0,0,353,384Z" style="fill:#263238"></path><path d="M362.07,370.76l.05,1.46v.2q.18,4,.18,12v1.17h3.5c.66.45,1,.87,1,1.28a1.48,1.48,0,0,1-.34,1,.92.92,0,0,1-.69.39,2.52,2.52,0,0,1-.83-.16,3.91,3.91,0,0,1-.88.09l-1.48-.07a1.48,1.48,0,0,1-1.18.57,1.72,1.72,0,0,1-1.19-.44,1.34,1.34,0,0,1-.48-1l.29-2q0-5.22-.46-15.68t-.46-15.69a.83.83,0,0,1,.33-.69,1.39,1.39,0,0,1,.85-.26,1.33,1.33,0,0,1,.92.39,1.23,1.23,0,0,1,.41.94Z" style="fill:#263238"></path><path d="M379.28,388.15c-.94,0-1.42-.4-1.42-1.19v-6a6.49,6.49,0,0,0-2.34-.76,26.83,26.83,0,0,0-3-.41,7.56,7.56,0,0,0-.78,2.34c-.2,1-.41,2-.63,3.07a7.79,7.79,0,0,1-.86,2.45c-1.2,0-1.87-.3-2-.92q.63-.9,2-9.18t2.33-13a64.78,64.78,0,0,1,2-7.87c.7-2.12,1.38-3.19,2-3.19a2.33,2.33,0,0,1,1.48.41q0,1.63.9,8.87t.9,9.35q0,2.13.48,7.06t.49,7.4A1.36,1.36,0,0,1,379.28,388.15Zm-1.93-15c-.27-2.72-.52-5.31-.73-7.77s-.33-3.95-.33-4.47,0-.81,0-.89q-.72.75-2.07,8.25c-.91,5-1.39,8.16-1.45,9.5a12.81,12.81,0,0,0,3.2.51,8.62,8.62,0,0,0,1.83-.13C377.77,377.52,377.62,375.85,377.35,373.13Z" style="fill:#263238"></path><path d="M386.13,365.73l-.4,3.21V370a65.61,65.61,0,0,0,.23,7.08c.16,1.15.32,2.19.48,3.1a12.26,12.26,0,0,0,.64,2.33,12,12,0,0,0,.94,1.82,3.35,3.35,0,0,0,3,1.71,3.65,3.65,0,0,0,2-.82,3.62,3.62,0,0,1,1.77-.82,1.94,1.94,0,0,1,1.31.7c0,1.54-.88,2.64-2.63,3.3a8.36,8.36,0,0,1-2.83.47,5.2,5.2,0,0,1-2.61-.62,5.74,5.74,0,0,1-1.8-1.59,9.94,9.94,0,0,1-1.25-2.51,23.38,23.38,0,0,1-.86-3c-.18-1-.33-2.18-.45-3.5-.18-2.22-.27-4.64-.29-7.28l.05-5.5a23.18,23.18,0,0,1,.31-4.25,7.92,7.92,0,0,1-.13-1.43,5.45,5.45,0,0,1,2.11-4.51,8.15,8.15,0,0,1,5.21-1.67,4.19,4.19,0,0,1,2.16.62,1.84,1.84,0,0,1,1.05,1.62.9.9,0,0,1-.38.77,2.34,2.34,0,0,1-1.29.27,1.35,1.35,0,0,1-1.25-.56v0h-.63v-.11c-1.78,0-3,.55-3.64,1.66s-.89,2.77-.89,5.25Z" style="fill:#263238"></path><path d="M398.93,373.35l.07-8.74a47,47,0,0,0-.34-5.3c-.22-2-.33-3.32-.33-3.94a2.06,2.06,0,0,1,.37-1.37,1.13,1.13,0,0,1,.93-.44c1.14,0,1.71,1.24,1.71,3.73l-.21,9.45c.11-.25.4-1,.88-2.24s1-2.5,1.48-3.75l1.66-3.89q2-4.55,2.88-4.54a1.35,1.35,0,0,1,.91.35,1.08,1.08,0,0,1,.39.83,40.87,40.87,0,0,1-2.5,5.74,45.71,45.71,0,0,0-2.82,6.67v.81q.67,1.71,3.67,11.16t3,10a1.22,1.22,0,0,1-.45,1,1.55,1.55,0,0,1-1,.38l-1.08-.18q-1.14-6.54-2.38-11.4a55.46,55.46,0,0,0-3.23-9.27,14,14,0,0,0-1.44,3c-.09.93-.14,1.66-.14,2.2l.3,8.54v3.77c0,1.63-.53,2.45-1.58,2.45-.89,0-1.34-.78-1.34-2.33s.1-3.7.3-6.46S398.93,374.72,398.93,373.35Z" style="fill:#263238"></path><path d="M313.73,414.82l0,1.46v.21q.18,4,.18,12v1.17h3.51c.65.45,1,.87,1,1.28a1.51,1.51,0,0,1-.33,1,1,1,0,0,1-.7.39,2.52,2.52,0,0,1-.83-.16,3.91,3.91,0,0,1-.88.09l-1.48-.06a1.49,1.49,0,0,1-1.18.56,1.72,1.72,0,0,1-1.19-.44,1.34,1.34,0,0,1-.48-1l.29-2q0-5.24-.46-15.69t-.46-15.69a.82.82,0,0,1,.34-.69,1.4,1.4,0,0,1,1.76.13,1.21,1.21,0,0,1,.41.94Z" style="fill:#263238"></path><path d="M325.86,399.84l-.81,0a1,1,0,0,0-.67.19,1,1,0,0,0-.21.75q0,4.5.56,13.46t.56,13.45v1.78a6.08,6.08,0,0,1,.95-.07c1.27,0,1.91.54,1.91,1.62v.27l-1.15.78-3.12.11c-2.65,0-4-.45-4-1.37,0-.73.47-1.1,1.4-1.1l1,.07c.45,0,.68-.36.68-1.08,0-2.36-.15-5.91-.43-10.63s-.43-8.27-.43-10.64l.09-4.69c0-1,0-1.84-.11-2.56a3.55,3.55,0,0,1-1.08.2,1,1,0,0,1-1.08-1.1,1.19,1.19,0,0,1,.7-1,5,5,0,0,1,1.73-.59,18,18,0,0,1,2.86-.34,2,2,0,0,1,1.34.37,1.15,1.15,0,0,1,.4.88,1.33,1.33,0,0,1-.3.87A.94.94,0,0,1,325.86,399.84Z" style="fill:#263238"></path><path d="M330.77,397.12q1.26,0,4.25,19.34c.78,5.05,1.2,7.77,1.28,8.16.21-1.72.58-4.49,1.12-8.29a134.35,134.35,0,0,0,1.69-18.42,2.11,2.11,0,0,1,1.68-.92l1,.52c-.08.52-.24,2-.5,4.47s-.49,4.65-.72,6.6-.44,3.78-.65,5.51-.43,3.56-.68,5.49-.48,3.65-.71,5.18-.45,2.94-.67,4.21c-.48,2.69-.87,4-1.17,4a1.37,1.37,0,0,1-1.08-.5q-1.12-4.62-3.28-18T329.49,398A1.2,1.2,0,0,1,330.77,397.12Z" style="fill:#263238"></path><path d="M349.3,415.39l-1.14-.05a1.12,1.12,0,0,0-.94.34v14.19c1.57-.09,2.42-.13,2.56-.13,1.75,0,2.62.4,2.62,1.21v.16a2.07,2.07,0,0,1-1.07,1,4.14,4.14,0,0,1-1.35.39c-.39,0-.89,0-1.51,0H347c-1.14,0-1.85-.22-2.12-.67a1.68,1.68,0,0,1-.17-.83V404.27a12.91,12.91,0,0,0-.32-2.34,12.77,12.77,0,0,1-.31-2.36v-.15a9.31,9.31,0,0,1,1.14-1.62l3.42-.41a2.73,2.73,0,0,1,1.4.42,1.25,1.25,0,0,1,.71,1.09c0,.91-.7,1.37-2.09,1.37l-1.33,0a2.85,2.85,0,0,0-.49,0l.36,7.59c0,.61,0,1.51-.11,2.68s-.12,2-.12,2.57l.68-.15a6,6,0,0,1,1.47-.25,1.36,1.36,0,0,1,.94.38,1.21,1.21,0,0,1,.42.92,1.51,1.51,0,0,1-.34,1A1.08,1.08,0,0,1,349.3,415.39Z" style="fill:#263238"></path><path d="M353.84,431.69c0-.82.35-1.23,1-1.23a3.62,3.62,0,0,1,1.35.35,3.94,3.94,0,0,0,1.46.34,2,2,0,0,0,1.34-.78,5.59,5.59,0,0,0,1.12-2,13,13,0,0,0,.83-4.3,14.09,14.09,0,0,0-.67-4.12,27.12,27.12,0,0,0-1.64-4.13q-1-1.94-1.95-3.87a18.62,18.62,0,0,1-2.32-8.4,7.1,7.1,0,0,1,2.27-5.63,4.15,4.15,0,0,1,2.85-1.08,3.11,3.11,0,0,1,1.62.46,2.53,2.53,0,0,1,1.1,1.2l-.78,1a3.11,3.11,0,0,1-1.8-.45,2.23,2.23,0,0,0-1.48.81,4.78,4.78,0,0,0-1.15,3.27,14.53,14.53,0,0,0,.5,3.78,16.55,16.55,0,0,0,1.23,3.3c.49,1,1,2,1.6,3.17s1.12,2.23,1.61,3.28a17.94,17.94,0,0,1,1.73,7.86,11.26,11.26,0,0,1-1.5,5.7,6.09,6.09,0,0,1-2,2.15,4.94,4.94,0,0,1-2.81.84,5.7,5.7,0,0,1-2.61-.49C354.16,432.42,353.84,432.07,353.84,431.69Z" style="fill:#263238"></path><path d="M371.83,421.81,371.68,404c0-2,0-4,.06-5.95l1.28-.72q1.38.09,3.13,7.32,1.41,5.91,2.29,10.61t1,5.11c.21-1,.6-2.75,1.17-5.3s1-4.52,1.28-5.93a79.32,79.32,0,0,0,1.55-11v-.27A1.4,1.4,0,0,1,384,397a1.63,1.63,0,0,1,1-.36,1.05,1.05,0,0,1,.84.37,1.16,1.16,0,0,1,.33.79q0,5.5.41,16.49t.42,16.49a3.25,3.25,0,0,1-.58,1.91c-.39.53-.77.8-1.13.8-.75,0-1.12-.6-1.12-1.82l-.18-19.36v-2.33q-.31,1.77-1.42,6.21a69,69,0,0,0-1.41,6.79v.29c0,.12-.08.41-.14.86a9,9,0,0,1-.19,1.11,6.23,6.23,0,0,1-.3,1,1.47,1.47,0,0,1-1.41,1.08c-1.1,0-1.64-1.43-1.64-4.3a48.91,48.91,0,0,0-2.07-11.88q-1-3.81-1.33-5.16c-.06,2.45-.09,4.3-.09,5.54l.39,18.92a2.48,2.48,0,0,1-.7,1.73,1.68,1.68,0,0,1-1.61-.77,4.43,4.43,0,0,1-.41-2.06Z" style="fill:#263238"></path><path d="M400.31,432.21c-.94,0-1.41-.4-1.41-1.19v-6a6.64,6.64,0,0,0-2.35-.76,26.83,26.83,0,0,0-3-.41,7.87,7.87,0,0,0-.77,2.34c-.21,1-.42,2-.63,3.08a8,8,0,0,1-.87,2.44c-1.2,0-1.87-.3-2-.92.42-.59,1.1-3.66,2-9.18s1.72-9.85,2.33-13a64.51,64.51,0,0,1,2-7.88c.71-2.12,1.38-3.19,2-3.19a2.37,2.37,0,0,1,1.48.41q0,1.63.9,8.87t.9,9.36q0,2.12.48,7.05t.48,7.4A1.36,1.36,0,0,1,400.31,432.21Zm-1.93-15q-.4-4.06-.73-7.77c-.22-2.46-.32-3.95-.32-4.47a7.41,7.41,0,0,1,0-.88q-.72.74-2.08,8.24c-.9,5-1.39,8.17-1.45,9.5a12.89,12.89,0,0,0,3.2.52,8.45,8.45,0,0,0,1.83-.14C398.81,421.58,398.65,419.91,398.38,417.19Z" style="fill:#263238"></path><path d="M409.3,405.53l-.09,5.92.4,10.58.38,8.27q0,2.25-1.32,2.25a1.18,1.18,0,0,1-1.12-.72,3.52,3.52,0,0,1-.36-1.6l.36-7.34q0-2.38-.32-7.17t-.31-7.16l.06-4a13.55,13.55,0,0,0-.42-4.29l-2.5.24a1.68,1.68,0,0,1-1-.34,1.09,1.09,0,0,1-.46-.9c0-.37.37-.68,1.1-.93a12.07,12.07,0,0,1,2.7-.59,42,42,0,0,1,4.64-.31,1.59,1.59,0,0,1,1,.37,1.16,1.16,0,0,1,.46.93,1.1,1.1,0,0,1-.41.89,1.57,1.57,0,0,1-1,.32l-1.63-.09a2.88,2.88,0,0,0-.48,0A47.87,47.87,0,0,1,409.3,405.53Z" style="fill:#263238"></path><path d="M420.35,405.53l-.09,5.92.4,10.58.38,8.27q0,2.25-1.32,2.25a1.18,1.18,0,0,1-1.12-.72,3.52,3.52,0,0,1-.36-1.6l.36-7.34q0-2.38-.32-7.17t-.31-7.16l.07-4a13.45,13.45,0,0,0-.43-4.29l-2.49.24a1.71,1.71,0,0,1-1.05-.34,1.09,1.09,0,0,1-.46-.9c0-.37.37-.68,1.1-.93a12.07,12.07,0,0,1,2.7-.59,42,42,0,0,1,4.65-.31,1.58,1.58,0,0,1,1,.37,1.16,1.16,0,0,1,.46.93,1.1,1.1,0,0,1-.41.89,1.54,1.54,0,0,1-1,.32l-1.64-.09a2.88,2.88,0,0,0-.48,0A47.87,47.87,0,0,1,420.35,405.53Z" style="fill:#263238"></path><path d="M430.77,415.39l-1.14-.05a1.14,1.14,0,0,0-.95.34v14.19c1.57-.09,2.43-.13,2.56-.13,1.75,0,2.63.4,2.63,1.21v.16a2.06,2.06,0,0,1-1.08,1,4.14,4.14,0,0,1-1.35.39c-.39,0-.89,0-1.5,0H428.5c-1.14,0-1.84-.22-2.11-.67a1.67,1.67,0,0,1-.18-.83V404.27a12.7,12.7,0,0,0-.31-2.34,13,13,0,0,1-.32-2.36v-.15a8.68,8.68,0,0,1,1.15-1.62l3.41-.41a2.7,2.7,0,0,1,1.4.42,1.23,1.23,0,0,1,.71,1.09c0,.91-.69,1.37-2.09,1.37l-1.32,0a3,3,0,0,0-.5,0l.36,7.59c0,.61,0,1.51-.11,2.68s-.11,2-.11,2.57l.67-.15a6,6,0,0,1,1.48-.25,1.38,1.38,0,0,1,.94.38,1.23,1.23,0,0,1,.41.92,1.56,1.56,0,0,1-.33,1A1.09,1.09,0,0,1,430.77,415.39Z" style="fill:#263238"></path><path d="M436.21,430.88l.18-27v-5.66a1.07,1.07,0,0,1,.22-.77,1.91,1.91,0,0,1,1.18-.22,4.44,4.44,0,0,1,1.93.46,5.22,5.22,0,0,1,1.65,1.22,9.13,9.13,0,0,1,1.13,1.8,9.77,9.77,0,0,1,.89,4.16,14.45,14.45,0,0,1-1.12,5.14c-.09.21-.27.65-.54,1.33s-.43,1.07-.47,1.19a31.77,31.77,0,0,0,1.73,8.87q.58,1.85,1.66,5t1.35,4v.12q0,1.55-.36,1.8a1.23,1.23,0,0,1-.76.26c-.57,0-1.13-.41-1.67-1.23v-.16q-.22-4.17-2.87-12.65-1.21-3.86-1.69-5.72v18.12a2,2,0,0,1-.24,1.08,1,1,0,0,1-.9.38,1.22,1.22,0,0,1-1-.37,1.3,1.3,0,0,1-.32-.91Zm2.53-31.51-.24,9.39c0,.94,0,1.65,0,2.11a13.16,13.16,0,0,0,1.55-1.77l.72-4a3.14,3.14,0,0,0,.07-.72,10,10,0,0,0-.45-2.67C440,400.29,439.45,399.51,438.74,399.37Z" style="fill:#263238"></path><path d="M456.78,377.76s-8.9.38-9.41,1.51a1.41,1.41,0,0,0,1.19,2.16c1.11.07,7.05.9,9.09.1S459.67,377.7,456.78,377.76Z" style="fill:#cfcfcf;stroke:#263238;stroke-linecap:round;stroke-linejoin:round"></path><path d="M458.15,373.8s-10,.42-10.53,1.68a1.59,1.59,0,0,0,1.34,2.43c1.23.07,7.88,1,10.17.11S461.38,373.74,458.15,373.8Z" style="fill:#cfcfcf;stroke:#263238;stroke-linecap:round;stroke-linejoin:round"></path><path d="M458.57,369.3s-10,.42-10.53,1.69a1.58,1.58,0,0,0,1.34,2.42c1.23.08,7.88,1,10.17.11S461.8,369.24,458.57,369.3Z" style="fill:#cfcfcf;stroke:#263238;stroke-linecap:round;stroke-linejoin:round"></path><path d="M459.28,364.67s-10,.43-10.53,1.69a1.59,1.59,0,0,0,1.34,2.43c1.23.07,7.88,1,10.17.11S462.51,364.61,459.28,364.67Z" style="fill:#cfcfcf;stroke:#263238;stroke-linecap:round;stroke-linejoin:round"></path><path d="M295.86,376.74s8.79,1.47,9.16,2.65a1.43,1.43,0,0,1-1.46,2c-1.1-.07-7.1,0-9-1S293,376.33,295.86,376.74Z" style="fill:#cfcfcf;stroke:#263238;stroke-linecap:round;stroke-linejoin:round"></path><path d="M295,372.64s9.83,1.64,10.25,3a1.59,1.59,0,0,1-1.63,2.24c-1.24-.08-7.95,0-10.11-1.15S291.79,372.18,295,372.64Z" style="fill:#cfcfcf;stroke:#263238;stroke-linecap:round;stroke-linejoin:round"></path><path d="M295.13,368.12s9.83,1.65,10.24,3a1.58,1.58,0,0,1-1.63,2.24c-1.23-.07-7.94,0-10.1-1.14S291.93,367.66,295.13,368.12Z" style="fill:#cfcfcf;stroke:#263238;stroke-linecap:round;stroke-linejoin:round"></path><path d="M295,363.45s9.83,1.64,10.25,3a1.59,1.59,0,0,1-1.63,2.24c-1.24-.08-7.95,0-10.11-1.15S291.8,363,295,363.45Z" style="fill:#cfcfcf;stroke:#263238;stroke-linecap:round;stroke-linejoin:round"></path><path d="M382.79,220.2s-22.18,31.11-26.41,41.58-10.22,6.22-10.05,3.55,2.84-21.88,3.49-32.27,12.43-18,22.06-19.49S387.56,215.43,382.79,220.2Z" style="fill:#263238;stroke:#263238;stroke-linecap:round;stroke-linejoin:round"></path></g><g id="character-2"><path d="M165,275.65c7.38,8.53,18.92,21.45,19.84,21.91s10.38,36.21,10.38,36.21-9.46,29.53-11.77,37.6-5.76,31.37-5.76,40.83c0,8.1,2.87,41.71,3.7,51.22h45.15V421.8l7.77,1.29,1.1,40.33h51.76c-.43-19.31-2.15-68.9-4.07-81.9-2.07-14.07-15.45-43.83-15.45-43.83l9.45-29.06s40.83-45.9,42.68-50.28,2.77-12,1.15-15.46-37.14-57.67-37.14-57.67S285,170.69,285,168.16s-6.69-12.69-7.38-12.69a38.25,38.25,0,0,0-4.39,1.15l1.39,18.69.69,8.07,3,4.84,18,64.36S281.07,269,277.61,270.11s-18.9,3.4-24,3.4a31.64,31.64,0,0,0-9.91,1.85l-.93-9.46H223.42s0,9.23-.46,9.92-15-2.08-18.69-2.31-6.7-2.48-12.7-5.71-12.46-4.15-14.3-6.46-13.15-22.14-13.15-22.14,11.07-41.52,11.53-42.67a45.37,45.37,0,0,0,.92-6.23l-.23-6.69L173,161.37a3.55,3.55,0,0,0-.76-.13c-1.15,0-6.46,11.3-6.46,12s2.54,20.3,2.54,20.3S151,225.59,147.74,233.9s-2.07,10.61-.92,11.76S157.66,267.11,165,275.65Z" style="fill:#949494;stroke:#263238;stroke-linecap:round;stroke-linejoin:round"></path><path d="M226.58,463.42V421.8l7.77,1.29,1.1,40.33h51.76c-.43-19.31-2.15-68.9-4.07-81.9-.22-1.49-.57-3.17-1-5-49.73,9.58-84.52,4.72-100.11,1.24-2.07,10.4-4.28,26.83-4.28,34.4,0,8.1,2.87,41.71,3.7,51.22Z" style="fill:#92E3A9;stroke:#263238;stroke-linecap:round;stroke-linejoin:round"></path><path d="M198.2,399.28s11.21,11.21,17.84,15.28" style="fill:none;stroke:#263238;stroke-linecap:round;stroke-linejoin:round"></path><path d="M261.57,404.53c-6.69,4.88-15.69,11.57-19,14.62" style="fill:none;stroke:#263238;stroke-linecap:round;stroke-linejoin:round"></path><path d="M269.54,398.77s-1.85,1.31-4.6,3.3" style="fill:none;stroke:#263238;stroke-linecap:round;stroke-linejoin:round"></path><line x1="264.44" y1="407.94" x2="243.04" y2="423.73" style="fill:none;stroke:#263238;stroke-linecap:round;stroke-linejoin:round"></line><line x1="186.99" y1="394.69" x2="201.26" y2="406.41" style="fill:none;stroke:#263238;stroke-linecap:round;stroke-linejoin:round"></line><path d="M319.82,258.35c1.84-4.39,2.77-12,1.15-15.46-.7-1.5-7.76-12.51-15.54-24.52a40.3,40.3,0,0,1-16.37,8.35l7.23,25.86S281.07,269,277.61,270.11s-18.9,3.4-24,3.4a31.64,31.64,0,0,0-9.91,1.85l-.93-9.46H223.42s0,9.23-.46,9.92-15-2.08-18.69-2.31-6.7-2.48-12.7-5.71-12.46-4.15-14.3-6.46-13.15-22.14-13.15-22.14,1.38-5.19,3.19-11.95a32.66,32.66,0,0,1-14.18-4.8c-2.45,4.87-4.48,9.1-5.39,11.45-3.23,8.3-2.07,10.61-.92,11.76s10.84,21.45,18.22,30S184,297.1,184.88,297.56s10.38,36.21,10.38,36.21-9.46,29.53-11.77,37.6a157.09,157.09,0,0,0-3.15,15.93c10.78,2.38,35.54,7,58.74,5.14,20.95-1.68,36.75-3.92,44.7-5.18-.21-2.32-.42-4.27-.64-5.74-2.07-14.07-15.45-43.83-15.45-43.83l9.45-29.06S318,262.73,319.82,258.35Z" style="fill:#263238;stroke:#263238;stroke-linecap:round;stroke-linejoin:round"></path><path d="M195.42,295.43c1.11,2,1.93,3.39,2.26,4" style="fill:none;stroke:gray;stroke-linecap:round;stroke-linejoin:round"></path><path d="M180,268.38l13.22,23.14" style="fill:none;stroke:gray;stroke-linecap:round;stroke-linejoin:round"></path><line x1="281.86" y1="274.58" x2="270.34" y2="304.71" style="fill:none;stroke:gray;stroke-linecap:round;stroke-linejoin:round"></line><path d="M231.53,365.49q-2.53,1.86-5.05,3.47" style="fill:none;stroke:gray;stroke-linecap:round;stroke-linejoin:round"></path><path d="M264.14,334s-13.61,16.4-28.68,28.51" style="fill:none;stroke:gray;stroke-linecap:round;stroke-linejoin:round"></path><path d="M255.72,337.5s-13.73,9.3-28.8,17.72" style="fill:none;stroke:gray;stroke-linecap:round;stroke-linejoin:round"></path><path d="M207.43,335.28s4,4,29.24,3.55" style="fill:none;stroke:gray;stroke-linecap:round;stroke-linejoin:round"></path><path d="M250.75,273.69a33.28,33.28,0,0,0-7,1.67l-.93-9.46H223.42s0,9.23-.46,9.92c-.23.34-3.88-1.11-8-.82.5,1.9,5.22,21.06,16.26,26.57S248.23,289.76,250.75,273.69Z" style="fill:#949494;stroke:#263238;stroke-linecap:round;stroke-linejoin:round"></path><rect x="175.11" y="93.5" width="99.34" height="99.95" style="fill:#fff;stroke:#263238;stroke-linecap:round;stroke-linejoin:round"></rect><path d="M188.31,134.18l0-6.2a129.88,129.88,0,0,0-1.18-20.07,4.16,4.16,0,0,0-.59.13,6.36,6.36,0,0,1-1.34.22,1.14,1.14,0,0,1-.81-.34,1.12,1.12,0,0,1-.34-.8c0-1.05,1.79-1.57,5.35-1.57H190c1.34,0,2,.4,2,1.19s-.61,1.19-1.85,1.19l-.13,0h-.61v.35a31.72,31.72,0,0,0,.26,3.45,39.6,39.6,0,0,1,.26,4.33c0,1.36.14,4,.41,7.83s.4,6.76.4,8.69l0,3.56a10,10,0,0,1-1.1,4.72,5.72,5.72,0,0,1-3.22,2.83,1.88,1.88,0,0,1-1.16-.35,1.18,1.18,0,0,1-.46-1,1.51,1.51,0,0,1,.56-1.12,4.36,4.36,0,0,1,1.19-.76,8.79,8.79,0,0,0,1.2-2.53A11.77,11.77,0,0,0,188.31,134.18Z" style="fill:#263238"></path><path d="M193.85,115.11l0-7a1.3,1.3,0,0,1-.32-.91,1.33,1.33,0,0,1,.38-1,1.17,1.17,0,0,1,.9-.42c1.08,0,1.62,1.07,1.62,3.19l.41,15.53a9,9,0,0,1,.45,2.38c.12,1.19.18,2.12.18,2.78a11.93,11.93,0,0,0,.32,2.45,21.52,21.52,0,0,0,.87,2.93,7.84,7.84,0,0,0,1.51,2.53,2.58,2.58,0,0,0,1.8,1,1.72,1.72,0,0,0,1.26-.4,2.12,2.12,0,0,0,.57-1.15,12.29,12.29,0,0,0,.24-2.46v-8.73c0-1-.09-2.35-.28-4.21s-.29-3.27-.29-4.21v-.31l-.08-2.6L203.1,107a1,1,0,0,1,.55-.89,2.16,2.16,0,0,1,1.13-.34l1.09,1v.74l-.33,2.73c0,2.49.14,6.23.41,11.24s.4,8.39.4,10.15,0,3-.08,3.54a11.75,11.75,0,0,1-.33,1.89,5.26,5.26,0,0,1-.72,1.65,3.74,3.74,0,0,1-3.28,1.53,5,5,0,0,1-4.38-2.38,16,16,0,0,1-2.45-6.06,54.32,54.32,0,0,1-1-7.31Q193.86,119.75,193.85,115.11Z" style="fill:#263238"></path><path d="M208.79,138.91c0-.8.34-1.2,1-1.2a3.64,3.64,0,0,1,1.32.34,3.92,3.92,0,0,0,1.42.34,1.88,1.88,0,0,0,1.29-.77,5.48,5.48,0,0,0,1.1-1.89,13.08,13.08,0,0,0,.8-4.18,14,14,0,0,0-.65-4,27,27,0,0,0-1.59-4c-.63-1.25-1.26-2.5-1.9-3.75a18.07,18.07,0,0,1-2.25-8.16,6.92,6.92,0,0,1,2.2-5.48,4,4,0,0,1,2.77-1,3.09,3.09,0,0,1,1.58.45,2.48,2.48,0,0,1,1.06,1.17l-.76,1a3,3,0,0,1-1.74-.44A2.14,2.14,0,0,0,213,108a4.62,4.62,0,0,0-1.12,3.17,14.18,14.18,0,0,0,.48,3.68,16.41,16.41,0,0,0,1.2,3.2c.48,1,1,2,1.55,3.08s1.09,2.17,1.57,3.19a17.53,17.53,0,0,1,1.68,7.63,11,11,0,0,1-1.46,5.54A5.82,5.82,0,0,1,215,139.6a4.82,4.82,0,0,1-2.73.82,5.6,5.6,0,0,1-2.54-.48C209.1,139.62,208.79,139.27,208.79,138.91Z" style="fill:#263238"></path><path d="M226.38,113.49l-.09,5.76.4,10.28.37,8c0,1.45-.43,2.18-1.29,2.18a1.13,1.13,0,0,1-1.09-.7,3.43,3.43,0,0,1-.35-1.55l.35-7.13q0-2.31-.31-7t-.3-7l.06-3.91a13.2,13.2,0,0,0-.41-4.17l-2.42.24a1.68,1.68,0,0,1-1-.33,1.06,1.06,0,0,1-.45-.88c0-.35.36-.65,1.07-.9a12.05,12.05,0,0,1,2.62-.57,41.91,41.91,0,0,1,4.52-.3,1.55,1.55,0,0,1,1,.36,1.11,1.11,0,0,1,.45.9,1.05,1.05,0,0,1-.39.86,1.52,1.52,0,0,1-1,.32l-1.6-.09-.46,0A45.44,45.44,0,0,1,226.38,113.49Z" style="fill:#263238"></path><path d="M236.68,108l-.79,0a.91.91,0,0,0-.64.19,1,1,0,0,0-.21.73q0,4.36.55,13.07t.54,13.06v1.73a5.7,5.7,0,0,1,.92-.07c1.24,0,1.85.53,1.85,1.57v.27l-1.11.76-3,.11c-2.58,0-3.86-.44-3.86-1.33,0-.72.45-1.07,1.35-1.07l.94.06c.43,0,.65-.35.65-1,0-2.3-.14-5.75-.41-10.33s-.42-8-.42-10.34l.09-4.56c0-1,0-1.78-.11-2.48a3.34,3.34,0,0,1-1.05.19.93.93,0,0,1-1-1.07,1.11,1.11,0,0,1,.67-.94,4.74,4.74,0,0,1,1.68-.58,17.82,17.82,0,0,1,2.79-.33,1.88,1.88,0,0,1,1.29.36,1.09,1.09,0,0,1,.4.85,1.28,1.28,0,0,1-.3.85A.94.94,0,0,1,236.68,108Z" style="fill:#263238"></path><path d="M243.38,117.64l-.4,3.12v1.07a64.59,64.59,0,0,0,.23,6.87c.16,1.12.31,2.12.47,3a11.85,11.85,0,0,0,.62,2.27,12.3,12.3,0,0,0,.91,1.77,3.27,3.27,0,0,0,2.9,1.65,3.58,3.58,0,0,0,1.9-.79,3.58,3.58,0,0,1,1.72-.8,1.89,1.89,0,0,1,1.27.68q0,2.25-2.55,3.21a8.18,8.18,0,0,1-2.75.45,5,5,0,0,1-2.53-.6,5.55,5.55,0,0,1-1.75-1.55,9.17,9.17,0,0,1-1.22-2.43,22.41,22.41,0,0,1-.83-2.94c-.18-1-.32-2.13-.44-3.41-.17-2.15-.27-4.51-.28-7.07l0-5.34a21.92,21.92,0,0,1,.31-4.13,7.5,7.5,0,0,1-.13-1.39,5.31,5.31,0,0,1,2-4.38,7.91,7.91,0,0,1,5.06-1.62,4.15,4.15,0,0,1,2.1.6,1.79,1.79,0,0,1,1,1.58.84.84,0,0,1-.37.74,2.22,2.22,0,0,1-1.25.26,1.32,1.32,0,0,1-1.22-.54v0h-.61v-.11c-1.73,0-2.91.54-3.53,1.62a10.75,10.75,0,0,0-.87,5.1Z" style="fill:#263238"></path><path d="M260.09,123.07,259,123a1.15,1.15,0,0,0-.92.32v13.79l2.49-.13c1.7,0,2.55.39,2.55,1.18v.15a2,2,0,0,1-1.05.94,4.06,4.06,0,0,1-1.3.37c-.38,0-.87,0-1.47,0h-1.39c-1.11,0-1.79-.22-2-.66a1.57,1.57,0,0,1-.18-.81v-26a12.69,12.69,0,0,0-.3-2.27,12.08,12.08,0,0,1-.31-2.29v-.15a8.52,8.52,0,0,1,1.11-1.57l3.32-.4a2.67,2.67,0,0,1,1.36.41,1.2,1.2,0,0,1,.69,1.06c0,.88-.68,1.33-2,1.33l-1.29,0-.48,0,.35,7.38c0,.6,0,1.46-.11,2.61s-.11,2-.11,2.49a4.69,4.69,0,0,0,.66-.15,6.08,6.08,0,0,1,1.43-.24,1.32,1.32,0,0,1,.91.37,1.19,1.19,0,0,1,.41.9,1.48,1.48,0,0,1-.33.94A1,1,0,0,1,260.09,123.07Z" style="fill:#263238"></path><path d="M200.23,157.74l.31-8.2v-.29c0-1.48.32-2.22,1-2.22s1.39,1.38,2.4,4.14q2.75,7.53,6.59,24.85l0,.22.18-15.58V147.44a1.34,1.34,0,0,1,1.46-1.11q1.2,0,1.2,1.74v.27a2.92,2.92,0,0,0-.26,1.31l-.29,16.51v13.66a2.62,2.62,0,0,1-.37,1.33,1.07,1.07,0,0,1-.92.66q-.93,0-3.66-9.2t-5.39-19.78v14.66q0,2.14.32,6.37c.21,2.83.31,4.95.31,6.38a.78.78,0,0,1-.5.68,2.56,2.56,0,0,1-1.28.28c-.51,0-.77-.24-.77-.7l.22-3.21q0-2.31-.29-7.51t-.28-6.34Z" style="fill:#263238"></path><path d="M227.55,167.67l-.4,5.65v.2a12.53,12.53,0,0,0-.28,2.68,8,8,0,0,1-.5,2.78,6.62,6.62,0,0,1-1.53,2.38,3.11,3.11,0,0,1-2.25,1,3.42,3.42,0,0,1-2.22-.83,6.6,6.6,0,0,1-1.66-2.13,17.42,17.42,0,0,1-1.16-3.1,32.22,32.22,0,0,1-.77-3.51c-.18-1.14-.33-2.35-.45-3.61-.17-1.94-.26-3.44-.25-4.51s0-2,0-2.75,0-1.45,0-2.06v-2.2c0-.86,0-1.63.07-2.32s.1-1.42.2-2.21a16.36,16.36,0,0,1,.36-2.09,10.32,10.32,0,0,1,.59-1.78,5.69,5.69,0,0,1,.87-1.46,3.24,3.24,0,0,1,2.51-1.27,5.28,5.28,0,0,1,2.42.51,4.17,4.17,0,0,1,1.69,1.65c.46.76.86,1.49,1.2,2.2a10.9,10.9,0,0,1,.81,3c.2,1.27.35,2.3.47,3.09a30.11,30.11,0,0,1,.24,3.42c.06,2,.09,3.55.09,4.67Zm-4-16.35a4.61,4.61,0,0,0-1.12-1.77,1.92,1.92,0,0,0-1.32-.62,1.44,1.44,0,0,0-1.08.45,3.86,3.86,0,0,0-.72,1.3c-.19.56-.37,1.16-.52,1.8a16.74,16.74,0,0,0-.35,2.22q-.12,1.25-.21,2.28c0,.67-.08,1.41-.1,2.22,0,1.36-.06,2.41-.07,3.17v.19a48.52,48.52,0,0,0,.46,6.45c.3,2.31.62,4.19.95,5.66a14,14,0,0,0,1.32,3.74c.55,1,1.17,1.54,1.85,1.54s1.1-.56,1.51-1.68a18.27,18.27,0,0,0,.87-4.19c.29-3,.44-5.05.45-6.25V165.2c0-.55,0-1.35-.07-2.41s-.1-2-.18-3-.2-1.94-.34-3.06a23,23,0,0,0-.55-3A22,22,0,0,0,223.59,151.32Z" style="fill:#263238"></path><path d="M244,180.21a1.76,1.76,0,0,1-.34,1.12,1.16,1.16,0,0,1-1,.43q-1.62,0-4.06-17.17c-.23-1.69-.38-2.66-.44-2.92q-.83,6-1.26,10.29a85.61,85.61,0,0,0-.44,8.58,1.14,1.14,0,0,1-.4.86,1.23,1.23,0,0,1-.88.38c-1.1,0-1.64-1.13-1.64-3.4q0-2.1-1.84-15.3t-2.35-14.46a1.76,1.76,0,0,1,1.59-1.07q1,0,1.87,4.65t1.44,11.27q.6,6.61.62,6.71c0-.41.19-1.66.45-3.77s.45-3.79.6-5.07q.65-5.81.65-8.25v-.85a1.43,1.43,0,0,1,.36-.92,1,1,0,0,1,.82-.45c1.06,0,1.59.43,1.59,1.31v.67a57.18,57.18,0,0,0,2,12.51c.58,2.38,1,4.29,1.24,5.73q.24-2.46.88-7.13a126.89,126.89,0,0,0,1.37-15.67,2.45,2.45,0,0,1,.33-1.43,1.25,1.25,0,0,1,1.07-.44,1.73,1.73,0,0,1,1.16.35,1.08,1.08,0,0,1,.43.89,1.37,1.37,0,0,1-.46,1,89.81,89.81,0,0,1-1.69,15.77A89.82,89.82,0,0,0,244,180.21Z" style="fill:#263238"></path><polyline points="277.61 158.47 268.84 164.47 267.69 162.62 273.22 155.24 277.61 155.47" style="fill:#949494;stroke:#263238;stroke-linecap:round;stroke-linejoin:round"></polyline><polyline points="278.76 165.16 269.99 167 268.84 164.47 276.91 159.39" style="fill:#949494;stroke:#263238;stroke-linecap:round;stroke-linejoin:round"></polyline><polyline points="280.37 170.69 269.76 169.77 269.99 167 280.14 164.93" style="fill:#949494;stroke:#263238;stroke-linecap:round;stroke-linejoin:round"></polyline><path d="M279,176.23s-6.92-2.54-8.3-3-.93-3.46-.93-3.46l10.84,1.85a2.13,2.13,0,0,1,.24,2.3" style="fill:#949494;stroke:#263238;stroke-linecap:round;stroke-linejoin:round"></path><polyline points="172.4 164.14 182.19 168.26 182.95 166.22 176.05 160.1 171.8 161.2" style="fill:#949494;stroke:#263238;stroke-linecap:round;stroke-linejoin:round"></polyline><polyline points="172.61 170.93 181.56 170.98 182.19 168.26 173.26 164.91" style="fill:#949494;stroke:#263238;stroke-linecap:round;stroke-linejoin:round"></polyline><polyline points="172.13 176.67 182.34 173.64 181.56 170.98 171.21 170.98" style="fill:#949494;stroke:#263238;stroke-linecap:round;stroke-linejoin:round"></polyline><path d="M174.6,181.82s6.27-3.87,7.53-4.6.21-3.58.21-3.58l-10.25,4a2.16,2.16,0,0,0,.24,2.31" style="fill:#949494;stroke:#263238;stroke-linecap:round;stroke-linejoin:round"></path><ellipse cx="232.18" cy="223.92" rx="30.22" ry="27.22" style="fill:#263238;stroke:#263238;stroke-linecap:round;stroke-linejoin:round"></ellipse><path d="M214.29,244.52s-2.67-4.84-4.5-1.67.33,9.68,1.83,10.68,3-1.17,3-1.17Z" style="fill:#949494;stroke:#263238;stroke-linecap:round;stroke-linejoin:round"></path><path d="M250,244s4.67-2.84,4.5,1.33-1.84,8.18-3.34,9.18-2-1-2-1Z" style="fill:#949494;stroke:#263238;stroke-linecap:round;stroke-linejoin:round"></path><path d="M248.41,232a17.35,17.35,0,0,0-32.57,2.13c-.85,3.57-1.71,6.28-2.1,7.48a82.57,82.57,0,0,0,.3,11.72c.61,5.53,11.07,21.22,18.14,22.14s15.07-8.61,16.61-16A112.33,112.33,0,0,0,251,244.1C250.41,243.31,250.4,237.08,248.41,232Z" style="fill:#949494;stroke:#263238;stroke-linecap:round;stroke-linejoin:round"></path><path d="M235.15,236.35s1.34,7.4,1.65,8.94-1.48,2.26-3.32,2.57-3.45-2-3.45-2" style="fill:none;stroke:#263238;stroke-linecap:round;stroke-linejoin:round"></path><ellipse cx="225.55" cy="238.68" rx="1.08" ry="2" style="fill:#263238"></ellipse><ellipse cx="240.24" cy="238.68" rx="1.08" ry="2" style="fill:#263238"></ellipse><path d="M220.8,233.51s5.34-1.5,8.34,1" style="fill:none;stroke:#263238;stroke-linecap:round;stroke-linejoin:round"></path><path d="M236.82,233.84s4.17-1.83,7.5,0" style="fill:none;stroke:#263238;stroke-linecap:round;stroke-linejoin:round"></path><ellipse cx="232.89" cy="259.45" rx="5.42" ry="6.76" style="fill:#263238;stroke:#263238;stroke-linecap:round;stroke-linejoin:round"></ellipse><path d="M237.22,255.39a4.83,4.83,0,0,0-8.67,0A69.58,69.58,0,0,0,237.22,255.39Z" style="fill:#fff;stroke:#263238;stroke-linecap:round;stroke-linejoin:round"></path></g><g id="character-1"><path d="M136.52,463.42,128.66,386a148.77,148.77,0,0,1-45.24-3C59.84,377.5,45,371.22,45,371.22l-11.88,92.2Z" style="fill:#263238;stroke:#263238;stroke-linecap:round;stroke-linejoin:round"></path><path d="M113,268.49s29.52,13.84,31.67,15.08c1.94,1.11,3.43,5.16,4.47,7,2.84,4.95,5.56,10,8.3,15,2.85,5.22,5.69,10.46,8.6,15.65,4.87,8.7,11.48,15.92,10.44,26.54-.75,7.66-5.83,12.92-13.81,10.64-6.46-1.84-14.24-12.41-16.7-19.79s-10.42-16.46-10.42-16.46L128.66,386s-4.3,4.61-24.91,4-46.44-7.38-52.28-10.15S45,373.06,45,371.22,48.7,325.7,48.7,325.7l-.62-39.06S45,263.57,41.32,253.73c-3.13-8.33-6.7-46.88-7.71-58.49a7.45,7.45,0,0,1,2-5.76L73.3,149.16s2.15,5.54,11.07,6.46L55.16,203l17.22,46.44a43.09,43.09,0,0,1,13.53,9.22C91.75,264.8,113,268.49,113,268.49Z" style="fill:#92E3A9;stroke:#263238;stroke-linecap:round;stroke-linejoin:round"></path><path d="M136.64,294.59s.74,27.39-4.44,40.71" style="fill:none;stroke:#263238;stroke-linecap:round;stroke-linejoin:round"></path><polygon points="120.17 273.81 122.31 285.24 114.64 280.06 120.17 273.81" style="fill:#92E3A9;stroke:#263238;stroke-linecap:round;stroke-linejoin:round"></polygon><polygon points="110.26 288.33 120.17 273.81 113.21 266.49 110.26 288.33" style="fill:#92E3A9;stroke:#263238;stroke-linecap:round;stroke-linejoin:round"></polygon><path d="M99.06,207.75s-13.73,6.87-14.46,15.18S90,249.67,90,249.67l.37,6.14,13.73,12.65,6.14,19.87,5.42-23.12,5.78-2.89s3.26,0,6.87-7.59a59.46,59.46,0,0,0,4.7-15.18,4.34,4.34,0,0,0,2.49-5.36,11.21,11.21,0,0,0-3.75-5.89s1.26-5-.91-12.24S110.26,203.41,99.06,207.75Z" style="fill:#949494;stroke:#263238;stroke-linecap:round;stroke-linejoin:round"></path><path d="M109.54,209.92c1.86-.53,5-2.47,14.74-.11-6.93-3.48-17.7-5-25.22-2.06,0,0-13.73,6.87-14.46,15.18-.59,6.78,3.39,20.28,4.88,25a5.63,5.63,0,0,0,.91-.1c5.42-1.08,4.69-5.42,4.69-5.42s-2.16-.72-3.61-1.08-4.34-5.79-4.34-9.4,4.34-7.59,6.51-6.5,4.7,4.69,6.86,4.33.73-4.69,2.9-7.22,5.78-4.34,5.78-6.87S107,210.64,109.54,209.92Z" style="fill:#263238;stroke:#263238;stroke-linecap:round;stroke-linejoin:round"></path><line x1="133.03" y1="239.55" x2="127.67" y2="239.54" style="fill:none;stroke:#263238;stroke-linecap:round;stroke-linejoin:round"></line><path d="M126.15,225.34s-3.45-5.75-9.37-4.36" style="fill:none;stroke:#263238;stroke-linecap:round;stroke-linejoin:round;stroke-width:2px"></path><path d="M117.85,227.23s4.56.27,5.71,2.14" style="fill:none;stroke:#263238;stroke-linecap:round;stroke-linejoin:round"></path><path d="M128.74,247.75s.54-3.75-3.75-3.39a6.83,6.83,0,0,0-6.42,6.07c-.18,2.32.71,5.35,2.85,6.07s3.93-2.32,4.64-3.75S128.74,247.75,128.74,247.75Z" style="fill:#263238;stroke:#263238;stroke-linecap:round;stroke-linejoin:round"></path><path d="M125,244.36a7,7,0,0,0-4.2,1.75,8.69,8.69,0,0,1,4.74.75,5.93,5.93,0,0,1,2.59,2l.62-1.14S129.28,244,125,244.36Z" style="fill:#fff;stroke:#263238;stroke-linecap:round;stroke-linejoin:round"></path><path d="M125,254.61c-.76,0-1.74,0-2.81-.08a7.08,7.08,0,0,1-3.24-1.1,4.37,4.37,0,0,0,2.52,3.07C122.82,257,124.06,255.84,125,254.61Z" style="fill:#fff;stroke:#263238;stroke-linecap:round;stroke-linejoin:round"></path><path d="M97.33,245.43s1.42,5.89,2.85,7.5,9.28,6.07,13.39,7.32a28,28,0,0,0,8,1.42" style="fill:none;stroke:#263238;stroke-linecap:round;stroke-linejoin:round"></path><line x1="118.74" y1="228.83" x2="123.56" y2="229.37" style="fill:none;stroke:#263238;stroke-linecap:round;stroke-linejoin:round"></line><polygon points="87.69 252.21 105.89 267.39 101.61 283.09 82.87 259.71 87.69 252.21" style="fill:#92E3A9;stroke:#263238;stroke-linecap:round;stroke-linejoin:round"></polygon><path d="M73.3,149.16l8.92-15.07,4-1.53s12.61-5.85,13.84-6.16,10.15,13.23,9.53,14.46-3.69,2.77-3.69,2.77a7.22,7.22,0,0,1,.31,4.3c-.62,2.16-7.07,5.23-9.23,4.62s-3.07-.93-3.07-.93l-3.39-.3-6.15,4.3s-8.92,2.77-12-6.15" style="fill:#949494;stroke:#263238;stroke-linecap:round;stroke-linejoin:round"></path><path d="M96.83,127.84s7.25,12.62,7.39,13.56-2.69,3.63-2.69,3.63" style="fill:none;stroke:#263238;stroke-linecap:round;stroke-linejoin:round"></path><path d="M91.59,130.26s6.58,11.68,6.85,12.62-1.74,3.23-1.74,3.23" style="fill:none;stroke:#263238;stroke-linecap:round;stroke-linejoin:round"></path><path d="M86.22,132.56,92.8,145.3s-3.09,2.28-4,2.82-3.22.67-4-.54a2.69,2.69,0,0,1,.14-2.68" style="fill:none;stroke:#263238;stroke-linecap:round;stroke-linejoin:round"></path><path d="M105.9,143.63s-11.08,2.48-11.62,3.82-1.08,3.09,1.21,4.57" style="fill:none;stroke:#263238;stroke-linecap:round;stroke-linejoin:round"></path><rect x="37.48" y="306.79" width="111.79" height="106.21" style="fill:#fff;stroke:#263238;stroke-linecap:round;stroke-linejoin:round"></rect><path d="M67.44,352.73c0-.92.39-1.38,1.16-1.38a4.22,4.22,0,0,1,1.52.39,4.39,4.39,0,0,0,1.64.39,2.21,2.21,0,0,0,1.49-.88,6.18,6.18,0,0,0,1.26-2.19,14.78,14.78,0,0,0,.93-4.81,15.63,15.63,0,0,0-.76-4.62A29.63,29.63,0,0,0,72.85,335q-1.08-2.16-2.19-4.32a20.94,20.94,0,0,1-2.59-9.41,8,8,0,0,1,2.54-6.3,4.64,4.64,0,0,1,3.19-1.21,3.55,3.55,0,0,1,1.81.51,2.92,2.92,0,0,1,1.24,1.35L76,316.74a3.49,3.49,0,0,1-2-.51,2.49,2.49,0,0,0-1.65.91A5.38,5.38,0,0,0,71,320.79a16.17,16.17,0,0,0,.56,4.24,19.27,19.27,0,0,0,1.38,3.7c.55,1.09,1.15,2.27,1.78,3.54s1.26,2.5,1.81,3.67a20.23,20.23,0,0,1,1.94,8.8,12.77,12.77,0,0,1-1.68,6.38,6.89,6.89,0,0,1-2.22,2.4,5.5,5.5,0,0,1-3.14.94,6.43,6.43,0,0,1-2.93-.55C67.8,353.54,67.44,353.15,67.44,352.73Z" style="fill:#263238"></path><path d="M87.7,323.45l-.1,6.63.46,11.84.42,9.25c0,1.68-.49,2.52-1.48,2.52a1.33,1.33,0,0,1-1.26-.81,4,4,0,0,1-.4-1.78l.4-8.22c0-1.78-.11-4.45-.35-8s-.35-6.24-.35-8l.07-4.5a15,15,0,0,0-.47-4.8l-2.79.28a1.87,1.87,0,0,1-1.17-.39,1.23,1.23,0,0,1-.52-1c0-.41.41-.76,1.24-1a13.79,13.79,0,0,1,3-.66,48.48,48.48,0,0,1,5.2-.35,1.79,1.79,0,0,1,1.15.42,1.27,1.27,0,0,1,.51,1,1.2,1.2,0,0,1-.45,1,1.67,1.67,0,0,1-1.11.37l-1.83-.1-.53,0A52.8,52.8,0,0,1,87.7,323.45Z" style="fill:#263238"></path><path d="M106.63,337.8l-.45,6.51v.23a13.68,13.68,0,0,0-.33,3.09,9,9,0,0,1-.58,3.2,7.54,7.54,0,0,1-1.76,2.74,3.56,3.56,0,0,1-2.58,1.2,3.93,3.93,0,0,1-2.57-1,7.48,7.48,0,0,1-1.91-2.45,19.71,19.71,0,0,1-1.33-3.57,35.2,35.2,0,0,1-.89-4.05c-.21-1.31-.38-2.7-.52-4.16-.2-2.22-.3-3.95-.29-5.19s0-2.28,0-3.16,0-1.68,0-2.38v-2.54c0-1,0-1.87.09-2.66s.11-1.64.22-2.55a20.72,20.72,0,0,1,.42-2.42,13.31,13.31,0,0,1,.68-2.05,7,7,0,0,1,1-1.68,3.75,3.75,0,0,1,2.89-1.46,6.12,6.12,0,0,1,2.79.59,5,5,0,0,1,2,1.9,28.09,28.09,0,0,1,1.38,2.54,12.23,12.23,0,0,1,.93,3.43c.23,1.47.41,2.65.55,3.56a38.23,38.23,0,0,1,.27,3.94c.07,2.3.1,4.09.1,5.38ZM102.07,319a5.46,5.46,0,0,0-1.28-2,2.29,2.29,0,0,0-1.52-.71,1.6,1.6,0,0,0-1.25.53,4.42,4.42,0,0,0-.83,1.49q-.33,1-.6,2.07a17.94,17.94,0,0,0-.4,2.56c-.09,1-.17,1.84-.24,2.62s-.09,1.63-.13,2.57c0,1.56-.06,2.77-.07,3.64v.23a55.56,55.56,0,0,0,.53,7.43c.35,2.65.71,4.83,1.09,6.52a16.79,16.79,0,0,0,1.52,4.31c.64,1.18,1.35,1.77,2.14,1.77s1.26-.64,1.73-1.93a21.44,21.44,0,0,0,1-4.83q.49-5.13.51-7.2t0-3c0-.64,0-1.56-.07-2.78s-.12-2.35-.22-3.42-.23-2.24-.39-3.53a27,27,0,0,0-.63-3.44A25.43,25.43,0,0,0,102.07,319Z" style="fill:#263238"></path><path d="M110.5,351.88l.25-18.38q0-12.12-1.33-18.37a2.38,2.38,0,0,1,2-1.16,7.31,7.31,0,0,1,6,3.12,11.47,11.47,0,0,1,2,6.71,14.38,14.38,0,0,1-1.64,6.85,11.49,11.49,0,0,1-4.8,4.79l.4,16c0,1.43-.57,2.14-1.71,2.14a1,1,0,0,1-.93-.54A2.42,2.42,0,0,1,110.5,351.88ZM112.92,333a11.58,11.58,0,0,0,3.92-8.72v0a8.31,8.31,0,0,0-.71-4.05l-.56-.86a4.69,4.69,0,0,0-.87-.84c-.52-.42-1.32-1-2.39-1.79q0,2.71.3,8.14C112.81,328.42,112.92,331.14,112.92,333Z" style="fill:#263238"></path><path d="M50,399.89l.2-30.19v-6.34a1.17,1.17,0,0,1,.25-.85,2.13,2.13,0,0,1,1.32-.25,5.09,5.09,0,0,1,2.16.51,5.69,5.69,0,0,1,1.85,1.37,10.32,10.32,0,0,1,1.26,2,10.82,10.82,0,0,1,1,4.65,16.35,16.35,0,0,1-1.25,5.76c-.1.24-.31.73-.61,1.48s-.47,1.2-.52,1.34a35.62,35.62,0,0,0,1.93,9.92q.66,2.07,1.86,5.65t1.51,4.54v.12c0,1.16-.14,1.83-.4,2a1.42,1.42,0,0,1-.86.29q-.94,0-1.86-1.38v-.17q-.26-4.68-3.22-14.16-1.35-4.32-1.88-6.41v20.29a2.13,2.13,0,0,1-.28,1.2,1.09,1.09,0,0,1-1,.43,1.42,1.42,0,0,1-1.1-.41,1.51,1.51,0,0,1-.36-1Zm2.84-35.27-.28,10.51c0,1.05,0,1.84.05,2.36a14,14,0,0,0,1.74-2l.8-4.44a4,4,0,0,0,.08-.81,11,11,0,0,0-.51-3C54.21,365.65,53.58,364.77,52.79,364.62Z" style="fill:#263238"></path><path d="M75,401.37c-1.06,0-1.58-.44-1.58-1.33v-6.71a7.42,7.42,0,0,0-2.63-.86,31.74,31.74,0,0,0-3.38-.45,8.77,8.77,0,0,0-.87,2.61c-.22,1.14-.46,2.29-.7,3.45a9.29,9.29,0,0,1-1,2.74c-1.34,0-2.09-.35-2.26-1q.71-1,2.29-10.28T67.51,375a72.69,72.69,0,0,1,2.2-8.81c.78-2.38,1.54-3.57,2.26-3.57a2.67,2.67,0,0,1,1.66.45q0,1.85,1,9.93t1,10.47c0,1.58.18,4.22.54,7.89s.54,6.44.54,8.29A1.52,1.52,0,0,1,75,401.37Zm-2.16-16.8c-.3-3-.58-5.94-.82-8.7s-.36-4.42-.36-5,0-.91,0-1c-.53.56-1.31,3.63-2.32,9.23a106.86,106.86,0,0,0-1.62,10.63,13.91,13.91,0,0,0,3.58.58,9.7,9.7,0,0,0,2-.15Q73.31,389.13,72.85,384.57Z" style="fill:#263238"></path><path d="M82.68,376.28l-.46,3.6v1.23a72.05,72.05,0,0,0,.27,7.92c.17,1.29.35,2.45.54,3.47a12.47,12.47,0,0,0,.72,2.61,13,13,0,0,0,1,2,3.76,3.76,0,0,0,3.34,1.91,4.13,4.13,0,0,0,2.19-.92,4.1,4.1,0,0,1,2-.92,2.17,2.17,0,0,1,1.46.78q0,2.6-2.94,3.7a9.29,9.29,0,0,1-3.17.52,5.75,5.75,0,0,1-2.91-.69,6.27,6.27,0,0,1-2-1.78,10.59,10.59,0,0,1-1.41-2.8,27.53,27.53,0,0,1-1-3.4c-.2-1.14-.36-2.44-.5-3.92q-.3-3.72-.33-8.14l.06-6.16a25.32,25.32,0,0,1,.35-4.75,9,9,0,0,1-.15-1.61,6.09,6.09,0,0,1,2.36-5A9.08,9.08,0,0,1,88,362.06a4.7,4.7,0,0,1,2.41.69,2.07,2.07,0,0,1,1.19,1.82,1,1,0,0,1-.43.86,2.63,2.63,0,0,1-1.45.3,1.48,1.48,0,0,1-1.39-.63v0H87.6V365c-2,0-3.35.62-4.07,1.86s-1,3.1-1,5.88Z" style="fill:#263238"></path><path d="M102.13,365.15l-.9,0a1.07,1.07,0,0,0-.74.22,1.11,1.11,0,0,0-.24.84q0,5,.63,15.06t.62,15.05v2a7.68,7.68,0,0,1,1.06-.08c1.42,0,2.14.61,2.14,1.81v.3l-1.29.88-3.49.13c-3,0-4.45-.51-4.45-1.53,0-.82.52-1.24,1.56-1.24l1.08.08c.5,0,.75-.4.75-1.21q0-4-.47-11.9t-.48-11.9l.1-5.25a26.45,26.45,0,0,0-.13-2.87,3.87,3.87,0,0,1-1.2.23,1.08,1.08,0,0,1-1.21-1.23,1.32,1.32,0,0,1,.78-1.1,5.53,5.53,0,0,1,1.94-.66,19.64,19.64,0,0,1,3.2-.38,2.24,2.24,0,0,1,1.5.41,1.31,1.31,0,0,1,.45,1,1.46,1.46,0,0,1-.34,1A1.08,1.08,0,0,1,102.13,365.15Z" style="fill:#263238"></path><path d="M106.38,400.79c0-.92.39-1.38,1.16-1.38a4.27,4.27,0,0,1,1.52.39,4.39,4.39,0,0,0,1.63.39,2.19,2.19,0,0,0,1.5-.88,6.32,6.32,0,0,0,1.25-2.19,14.73,14.73,0,0,0,.93-4.81,15.87,15.87,0,0,0-.75-4.61,29.38,29.38,0,0,0-1.84-4.63q-1.08-2.16-2.18-4.32a20.68,20.68,0,0,1-2.59-9.4,7.93,7.93,0,0,1,2.54-6.31,4.62,4.62,0,0,1,3.19-1.21,3.49,3.49,0,0,1,1.81.52,2.78,2.78,0,0,1,1.23,1.34l-.88,1.11a3.48,3.48,0,0,1-2-.51,2.51,2.51,0,0,0-1.66.91,5.43,5.43,0,0,0-1.28,3.66,16.15,16.15,0,0,0,.55,4.23,19.27,19.27,0,0,0,1.38,3.7c.56,1.09,1.15,2.27,1.79,3.54s1.26,2.5,1.81,3.67a20.26,20.26,0,0,1,1.93,8.8,12.67,12.67,0,0,1-1.68,6.38,6.69,6.69,0,0,1-2.21,2.4,5.53,5.53,0,0,1-3.14.95,6.41,6.41,0,0,1-2.93-.56C106.74,401.6,106.38,401.21,106.38,400.79Z" style="fill:#263238"></path><path d="M120.66,389.73l-.18-19.93q0-3.35.08-6.66l1.43-.81c1,.07,2.19,2.8,3.49,8.2,1.06,4.41,1.91,8.36,2.57,11.88s1,5.41,1.08,5.71q.35-1.65,1.31-5.93t1.43-6.63a89.78,89.78,0,0,0,1.73-12.3V363a1.59,1.59,0,0,1,.63-1,1.8,1.8,0,0,1,1.11-.41,1.19,1.19,0,0,1,.94.42,1.34,1.34,0,0,1,.36.89q0,6.17.47,18.45t.46,18.45a3.53,3.53,0,0,1-.65,2.14c-.44.6-.85.9-1.26.9-.83,0-1.25-.68-1.25-2l-.2-21.67v-2.61q-.36,2-1.59,6.95A74.75,74.75,0,0,0,131,391v.33c0,.13-.09.45-.15.95s-.14.92-.22,1.25a8.07,8.07,0,0,1-.33,1.09,1.66,1.66,0,0,1-1.59,1.21c-1.22,0-1.83-1.61-1.83-4.81s-.77-7.6-2.32-13.29q-1.16-4.28-1.48-5.78-.11,4.11-.1,6.2l.43,21.17a2.75,2.75,0,0,1-.78,1.94,1.86,1.86,0,0,1-1.8-.86,4.86,4.86,0,0,1-.46-2.31Z" style="fill:#263238"></path><path d="M152.87,354.93s-10.94,1.14-11.48,2.57a1.75,1.75,0,0,0,1.64,2.58c1.36,0,8.75.57,11.21-.57S156.42,354.64,152.87,354.93Z" style="fill:#949494;stroke:#263238;stroke-linecap:round;stroke-linejoin:round"></path><path d="M154.26,349.94s-12.24,1.28-12.85,2.88a2,2,0,0,0,1.83,2.89c1.53,0,9.79.64,12.55-.64S158.23,349.62,154.26,349.94Z" style="fill:#949494;stroke:#263238;stroke-linecap:round;stroke-linejoin:round"></path><path d="M154.43,344.36s-12.24,1.29-12.85,2.89a2,2,0,0,0,1.84,2.88c1.53,0,9.79.64,12.54-.64S158.41,344,154.43,344.36Z" style="fill:#949494;stroke:#263238;stroke-linecap:round;stroke-linejoin:round"></path><path d="M155,338.62s-12.23,1.28-12.85,2.88a2,2,0,0,0,1.84,2.88c1.53,0,9.79.64,12.54-.64S158.93,338.29,155,338.62Z" style="fill:#949494;stroke:#263238;stroke-linecap:round;stroke-linejoin:round"></path><path d="M72.38,249.43s4.32,17.78-.12,31.84" style="fill:none;stroke:#263238;stroke-linecap:round;stroke-linejoin:round"></path><path d="M76.7,265s3,18.5,0,32.57" style="fill:none;stroke:#263238;stroke-linecap:round;stroke-linejoin:round"></path></g></svg>