<svg xmlns="http://www.w3.org/2000/svg" viewBox="0 0 500 500"><g id="background-simple"><path d="M456.67,168.84S391.55,43.85,293.52,19C207-3,120.05,28.66,97.12,118.05c-8.17,31.84-19.94,66.73-36.5,94.63C42.05,244,14.05,268.41,24.7,334.45s82.53,133.62,140.14,140.81,118.36-38.24,169-80.15S532.42,326.56,456.67,168.84Z" style="fill:#92E3A9"></path><path d="M456.67,168.84S391.55,43.85,293.52,19C207-3,120.05,28.66,97.12,118.05c-8.17,31.84-19.94,66.73-36.5,94.63C42.05,244,14.05,268.41,24.7,334.45s82.53,133.62,140.14,140.81,118.36-38.24,169-80.15S532.42,326.56,456.67,168.84Z" style="fill:#fff;opacity:0.7000000000000001"></path></g><g id="Window"><path d="M477.54,44.12a5.37,5.37,0,0,0-5.08,3.66H209.26a5.39,5.39,0,1,0,0,3.45h263.2a5.37,5.37,0,1,0,5.08-7.11Z" style="opacity:0.30000000000000004"></path><g style="opacity:0.30000000000000004"><path d="M271.51,52.2c3.75,91.24,7,183.36,11,274.28l-.39,17.82s-16.87,0-25.74.88-22.64.89-32.41.89-15.09-3.55-15.09-3.55l.63-16.07c2-90.87,4.1-183,5.49-274.25" style="fill:none;stroke:#000;stroke-linejoin:round"></path><line x1="229.46" y1="311.39" x2="229.41" y2="322.14" style="fill:none;stroke:#000;stroke-linejoin:round"></line><line x1="230.38" y1="102.06" x2="229.5" y2="301.85" style="fill:none;stroke:#000;stroke-linejoin:round"></line><line x1="230.6" y1="50.17" x2="230.4" y2="96.1" style="fill:none;stroke:#000;stroke-linejoin:round"></line><line x1="245.73" y1="155.13" x2="243.72" y2="288.14" style="fill:none;stroke:#000;stroke-linejoin:round"></line><line x1="247.3" y1="51.37" x2="245.86" y2="146.81" style="fill:none;stroke:#000;stroke-linejoin:round"></line><line x1="259.86" y1="192.12" x2="260.42" y2="315.58" style="fill:none;stroke:#000;stroke-linejoin:round"></line><line x1="259.47" y1="104.45" x2="259.82" y2="181.98" style="fill:none;stroke:#000;stroke-linejoin:round"></line><line x1="259.23" y1="52.56" x2="259.42" y2="94.91" style="fill:none;stroke:#000;stroke-linejoin:round"></line></g><g style="opacity:0.30000000000000004"><path d="M407.68,52.2c-3.61,96.61-8.2,194.19-11.66,290.29,0,0,11.49,1.74,18.88,1.74h37.71a108.47,108.47,0,0,0,17.45-1.8c-1.7-96-2.85-193.62-5.83-290.23" style="fill:none;stroke:#000;stroke-linejoin:round"></path><line x1="449.73" y1="311.39" x2="449.78" y2="322.14" style="fill:none;stroke:#000;stroke-linejoin:round"></line><line x1="448.81" y1="102.06" x2="449.69" y2="301.85" style="fill:none;stroke:#000;stroke-linejoin:round"></line><line x1="448.59" y1="50.17" x2="448.79" y2="96.1" style="fill:none;stroke:#000;stroke-linejoin:round"></line><line x1="433.45" y1="155.13" x2="435.46" y2="288.14" style="fill:none;stroke:#000;stroke-linejoin:round"></line><line x1="431.89" y1="51.37" x2="433.33" y2="146.81" style="fill:none;stroke:#000;stroke-linejoin:round"></line><line x1="419.32" y1="192.12" x2="418.76" y2="315.58" style="fill:none;stroke:#000;stroke-linejoin:round"></line><line x1="419.72" y1="104.45" x2="419.37" y2="181.98" style="fill:none;stroke:#000;stroke-linejoin:round"></line><line x1="419.96" y1="52.56" x2="419.77" y2="94.91" style="fill:none;stroke:#000;stroke-linejoin:round"></line></g><g style="opacity:0.30000000000000004"><polyline points="273.19 78.13 299.68 78.13 299.68 109.03 274.95 109.03" style="fill:none;stroke:#000;stroke-linejoin:round"></polyline><rect x="304.29" y="78.2" width="27.69" height="31" style="fill:none;stroke:#000;stroke-linejoin:round"></rect></g><g style="opacity:0.30000000000000004"><polyline points="406.36 78.13 379.87 78.13 379.87 109.03 404.59 109.03" style="fill:none;stroke:#000;stroke-linejoin:round"></polyline><rect x="347.57" y="78.2" width="27.69" height="31" transform="translate(722.82 187.4) rotate(180)" style="fill:none;stroke:#000;stroke-linejoin:round"></rect></g><polyline points="277.56 218.55 332.69 218.55 332.69 125.9 275.13 125.9" style="fill:none;stroke:#000;stroke-linejoin:round;opacity:0.30000000000000004"></polyline><polyline points="403.57 125.12 347.23 125.12 347.23 218.55 399.33 218.55" style="fill:none;stroke:#000;stroke-linejoin:round;opacity:0.30000000000000004"></polyline><polyline points="279.38 240.53 332.69 240.53 332.69 333.67 283.41 333.67" style="fill:none;stroke:#000;stroke-linejoin:round;opacity:0.30000000000000004"></polyline><polyline points="399.93 239.75 347.23 239.75 347.23 334.53 395.28 334.53" style="fill:none;stroke:#000;stroke-linejoin:round;opacity:0.30000000000000004"></polyline><line x1="283.17" y1="340.45" x2="396.02" y2="340.45" style="fill:none;stroke:#000;stroke-linejoin:round;opacity:0.30000000000000004"></line><line x1="272.96" y1="67.4" x2="406.3" y2="67.4" style="fill:none;stroke:#000;stroke-linejoin:round;opacity:0.30000000000000004"></line><line x1="339.95" y1="68.04" x2="339.95" y2="339.17" style="fill:none;stroke:#000;stroke-linejoin:round;opacity:0.30000000000000004"></line><line x1="274.66" y1="118.74" x2="404.35" y2="118.74" style="fill:none;stroke:#000;stroke-linejoin:round;opacity:0.30000000000000004"></line></g><g id="Patches"><rect x="31.62" y="61.66" width="154.44" height="216.94" transform="translate(-16.45 11.73) rotate(-5.73)" style="fill:#fff;stroke:#263238;stroke-miterlimit:10"></rect><circle cx="57.99" cy="100.53" r="15.67" transform="translate(-54.38 129.52) rotate(-74.49)" style="fill:#92E3A9;stroke:#263238;stroke-miterlimit:10"></circle><circle cx="101.79" cy="96.13" r="15.67" transform="translate(-37.42 111.06) rotate(-49.49)" style="fill:#92E3A9;stroke:#263238;stroke-miterlimit:10"></circle><circle cx="145.59" cy="91.73" r="15.67" transform="translate(52.26 236.3) rotate(-89.37)" style="fill:#92E3A9;stroke:#263238;stroke-miterlimit:10"></circle><circle cx="62.76" cy="148.04" r="15.67" transform="translate(-91.58 102.93) rotate(-50.73)" style="fill:#92E3A9;stroke:#263238;stroke-miterlimit:10"></circle><circle cx="106.56" cy="143.64" r="15.67" transform="translate(-42.65 242.26) rotate(-86.89)" style="fill:#92E3A9;stroke:#263238;stroke-miterlimit:10"></circle><circle cx="150.36" cy="139.24" r="15.67" transform="translate(-21.2 251.33) rotate(-75.96)" style="fill:#92E3A9;stroke:#263238;stroke-miterlimit:10"></circle><circle cx="67.53" cy="195.55" r="15.67" transform="translate(-126.61 124.07) rotate(-50.73)" style="fill:#92E3A9;stroke:#263238;stroke-miterlimit:10"></circle><path d="M126.92,189.59a15.67,15.67,0,1,1-17.15-14A15.65,15.65,0,0,1,126.92,189.59Z" style="fill:#92E3A9;stroke:#263238;stroke-miterlimit:10"></path><circle cx="155.13" cy="186.76" r="15.67" transform="translate(-87.65 187.61) rotate(-50.49)" style="fill:#92E3A9;stroke:#263238;stroke-miterlimit:10"></circle><circle cx="72.3" cy="243.06" r="15.67" transform="translate(-161.64 145.2) rotate(-50.73)" style="fill:#92E3A9;stroke:#263238;stroke-miterlimit:10"></circle><circle cx="116.1" cy="238.67" r="15.67" transform="translate(-51.86 33.17) rotate(-13.32)" style="fill:#92E3A9;stroke:#263238;stroke-miterlimit:10"></circle><circle cx="159.9" cy="234.27" r="15.67" transform="translate(-122.06 203.49) rotate(-49.45)" style="fill:#92E3A9;stroke:#263238;stroke-miterlimit:10"></circle><line x1="55.97" y1="72.69" x2="57.02" y2="83.08" style="fill:none;stroke:#263238;stroke-miterlimit:10"></line><line x1="60.62" y1="118.99" x2="61.67" y2="129.39" style="fill:none;stroke:#263238;stroke-miterlimit:10"></line><line x1="65.41" y1="166.64" x2="66.45" y2="177.03" style="fill:none;stroke:#263238;stroke-miterlimit:10"></line><line x1="70.21" y1="214.46" x2="71.25" y2="224.85" style="fill:none;stroke:#263238;stroke-miterlimit:10"></line><line x1="74.99" y1="262.12" x2="76.04" y2="272.51" style="fill:none;stroke:#263238;stroke-miterlimit:10"></line><line x1="99.08" y1="68.36" x2="100.12" y2="78.75" style="fill:none;stroke:#263238;stroke-miterlimit:10"></line><line x1="103.73" y1="114.67" x2="104.77" y2="125.06" style="fill:none;stroke:#263238;stroke-miterlimit:10"></line><line x1="108.51" y1="162.31" x2="109.55" y2="172.71" style="fill:none;stroke:#263238;stroke-miterlimit:10"></line><line x1="113.31" y1="210.13" x2="114.36" y2="220.52" style="fill:none;stroke:#263238;stroke-miterlimit:10"></line><line x1="118.1" y1="257.79" x2="119.14" y2="268.18" style="fill:none;stroke:#263238;stroke-miterlimit:10"></line><line x1="142.18" y1="64.03" x2="143.22" y2="74.42" style="fill:none;stroke:#263238;stroke-miterlimit:10"></line><line x1="146.83" y1="110.34" x2="147.87" y2="120.73" style="fill:none;stroke:#263238;stroke-miterlimit:10"></line><line x1="151.61" y1="157.99" x2="152.66" y2="168.38" style="fill:none;stroke:#263238;stroke-miterlimit:10"></line><line x1="156.41" y1="205.8" x2="157.46" y2="216.2" style="fill:none;stroke:#263238;stroke-miterlimit:10"></line><line x1="161.2" y1="253.46" x2="162.24" y2="263.85" style="fill:none;stroke:#263238;stroke-miterlimit:10"></line></g><g id="Table"><line x1="38.2" y1="436.68" x2="23.6" y2="436.68" style="fill:none;stroke:#263238;stroke-miterlimit:10"></line><line x1="481.15" y1="436.68" x2="46.05" y2="436.68" style="fill:none;stroke:#263238;stroke-miterlimit:10"></line></g><g id="Plant"><line x1="419.08" y1="271.83" x2="435.07" y2="425.12" style="fill:none;stroke:#263238;stroke-miterlimit:10;stroke-width:2px"></line><line x1="432.5" y1="395.79" x2="425.24" y2="388.13" style="fill:none;stroke:#263238;stroke-miterlimit:10;stroke-width:2px"></line><path d="M427.45,390.42a8.23,8.23,0,0,0-2.89-6.15c-1.86-1.66-11.66-5.79-12.59-2.33C411,385.69,421,393.06,427.45,390.42Z" style="fill:#92E3A9;stroke:#263238;stroke-miterlimit:10"></path><line x1="427.45" y1="390.42" x2="418.12" y2="384.61" style="fill:none;stroke:#263238;stroke-miterlimit:10;stroke-width:0.5px"></line><line x1="434.31" y1="413.22" x2="427.06" y2="405.56" style="fill:none;stroke:#263238;stroke-miterlimit:10;stroke-width:2px"></line><path d="M429.27,407.85a8.25,8.25,0,0,0-2.89-6.15c-1.86-1.66-11.66-5.78-12.59-2.33C412.78,403.12,422.81,410.49,429.27,407.85Z" style="fill:#92E3A9;stroke:#263238;stroke-miterlimit:10"></path><line x1="429.27" y1="407.85" x2="419.94" y2="402.04" style="fill:none;stroke:#263238;stroke-miterlimit:10;stroke-width:0.5px"></line><line x1="428.06" y1="353.25" x2="420.8" y2="345.59" style="fill:none;stroke:#263238;stroke-miterlimit:10;stroke-width:2px"></line><path d="M423,347.88a8.23,8.23,0,0,0-2.89-6.15c-1.86-1.66-11.66-5.79-12.59-2.33C406.52,343.15,416.55,350.52,423,347.88Z" style="fill:#92E3A9;stroke:#263238;stroke-miterlimit:10"></path><line x1="423.01" y1="347.88" x2="413.68" y2="342.07" style="fill:none;stroke:#263238;stroke-miterlimit:10;stroke-width:0.5px"></line><line x1="429.87" y1="370.68" x2="422.62" y2="363.02" style="fill:none;stroke:#263238;stroke-miterlimit:10;stroke-width:2px"></line><path d="M424.83,365.31a8.23,8.23,0,0,0-2.89-6.15c-1.86-1.66-11.66-5.78-12.59-2.33C408.34,360.58,418.37,368,424.83,365.31Z" style="fill:#92E3A9;stroke:#263238;stroke-miterlimit:10"></path><line x1="424.83" y1="365.31" x2="415.5" y2="359.5" style="fill:none;stroke:#263238;stroke-miterlimit:10;stroke-width:0.5px"></line><line x1="425.1" y1="324.93" x2="417.85" y2="317.27" style="fill:none;stroke:#263238;stroke-miterlimit:10;stroke-width:2px"></line><path d="M420.05,319.56a8.19,8.19,0,0,0-2.89-6.15c-1.86-1.66-11.65-5.78-12.58-2.33C403.57,314.83,413.59,322.2,420.05,319.56Z" style="fill:#92E3A9;stroke:#263238;stroke-miterlimit:10"></path><line x1="420.05" y1="319.56" x2="410.72" y2="313.75" style="fill:none;stroke:#263238;stroke-miterlimit:10;stroke-width:0.5px"></line><line x1="422.13" y1="296.48" x2="414.88" y2="288.82" style="fill:none;stroke:#263238;stroke-miterlimit:10;stroke-width:2px"></line><path d="M417.08,291.12A8.2,8.2,0,0,0,414.2,285c-1.87-1.67-11.66-5.79-12.59-2.34C400.6,286.39,410.62,293.76,417.08,291.12Z" style="fill:#92E3A9;stroke:#263238;stroke-miterlimit:10"></path><line x1="417.08" y1="291.12" x2="407.76" y2="285.31" style="fill:none;stroke:#263238;stroke-miterlimit:10;stroke-width:0.5px"></line><line x1="431.28" y1="385.47" x2="436.79" y2="376.48" style="fill:none;stroke:#263238;stroke-miterlimit:10;stroke-width:2px"></line><path d="M435.11,379.18a8.24,8.24,0,0,1,1.55-6.62c1.48-2,10.22-8.06,11.84-4.88C450.26,371.14,442,380.43,435.11,379.18Z" style="fill:#92E3A9;stroke:#263238;stroke-miterlimit:10"></path><line x1="435.11" y1="379.18" x2="443.51" y2="371.15" style="fill:none;stroke:#263238;stroke-miterlimit:10;stroke-width:0.5px"></line><line x1="426.49" y1="339.59" x2="432" y2="330.6" style="fill:none;stroke:#263238;stroke-miterlimit:10;stroke-width:2px"></line><path d="M430.32,333.3a8.22,8.22,0,0,1,1.55-6.61c1.48-2,10.22-8.07,11.84-4.88C445.47,325.27,437.18,334.55,430.32,333.3Z" style="fill:#92E3A9;stroke:#263238;stroke-miterlimit:10"></path><line x1="430.32" y1="333.3" x2="438.72" y2="325.28" style="fill:none;stroke:#263238;stroke-miterlimit:10;stroke-width:0.5px"></line><line x1="424.38" y1="319.43" x2="429.9" y2="310.44" style="fill:none;stroke:#263238;stroke-miterlimit:10;stroke-width:2px"></line><path d="M428.22,313.14a8.17,8.17,0,0,1,1.55-6.61c1.48-2,10.21-8.07,11.84-4.88C443.37,305.11,435.08,314.39,428.22,313.14Z" style="fill:#92E3A9;stroke:#263238;stroke-miterlimit:10"></path><line x1="428.22" y1="313.14" x2="436.61" y2="305.12" style="fill:none;stroke:#263238;stroke-miterlimit:10;stroke-width:0.5px"></line><line x1="421.3" y1="289.88" x2="426.81" y2="280.89" style="fill:none;stroke:#263238;stroke-miterlimit:10;stroke-width:2px"></line><path d="M425.13,283.59a8.22,8.22,0,0,1,1.56-6.62c1.47-2,10.21-8.06,11.83-4.88C440.29,275.55,432,284.83,425.13,283.59Z" style="fill:#92E3A9;stroke:#263238;stroke-miterlimit:10"></path><line x1="425.13" y1="283.59" x2="433.53" y2="275.56" style="fill:none;stroke:#263238;stroke-miterlimit:10;stroke-width:0.5px"></line><path d="M418.94,271a8.2,8.2,0,0,1,1.56-6.61c1.47-2,10.21-8.07,11.83-4.89C434.09,263,425.81,272.23,418.94,271Z" style="fill:#92E3A9;stroke:#263238;stroke-miterlimit:10"></path><line x1="418.94" y1="270.98" x2="427.34" y2="262.96" style="fill:none;stroke:#263238;stroke-miterlimit:10;stroke-width:0.5px"></line><path d="M419.43,271.33a8.24,8.24,0,0,1-6.42-2.24c-1.84-1.68-6.95-11-3.61-12.28C413,255.42,421.39,264.63,419.43,271.33Z" style="fill:#92E3A9;stroke:#263238;stroke-miterlimit:10"></path><line x1="419.43" y1="271.33" x2="412.33" y2="262.13" style="fill:none;stroke:#263238;stroke-miterlimit:10;stroke-width:0.5px"></line><path d="M461.27,292.94c-4.27,45-9.27,91-14.16,136.5" style="fill:none;stroke:#263238;stroke-miterlimit:10;stroke-width:2px"></path><line x1="448.88" y1="417" x2="443.36" y2="408.01" style="fill:none;stroke:#263238;stroke-miterlimit:10;stroke-width:2px"></line><path d="M445,410.71a8.22,8.22,0,0,0-1.55-6.61c-1.48-2-10.22-8.06-11.84-4.88C429.89,402.69,438.18,412,445,410.71Z" style="fill:#92E3A9;stroke:#263238;stroke-miterlimit:10"></path><line x1="445.04" y1="410.71" x2="437.11" y2="403.11" style="fill:none;stroke:#263238;stroke-miterlimit:10;stroke-width:0.5px"></line><line x1="453.29" y1="374.46" x2="447.77" y2="365.47" style="fill:none;stroke:#263238;stroke-miterlimit:10;stroke-width:2px"></line><path d="M449.46,368.17a8.2,8.2,0,0,0-1.56-6.61c-1.48-2-10.22-8.06-11.84-4.88C434.3,360.15,442.59,369.42,449.46,368.17Z" style="fill:#92E3A9;stroke:#263238;stroke-miterlimit:10"></path><line x1="449.46" y1="368.17" x2="441.53" y2="360.56" style="fill:none;stroke:#263238;stroke-miterlimit:10;stroke-width:0.5px"></line><line x1="451.48" y1="391.89" x2="445.97" y2="382.91" style="fill:none;stroke:#263238;stroke-miterlimit:10;stroke-width:2px"></line><path d="M447.65,385.6a8.2,8.2,0,0,0-1.56-6.61c-1.48-2-10.22-8.06-11.84-4.87C432.49,377.58,440.79,386.86,447.65,385.6Z" style="fill:#92E3A9;stroke:#263238;stroke-miterlimit:10"></path><line x1="447.65" y1="385.6" x2="439.72" y2="378" style="fill:none;stroke:#263238;stroke-miterlimit:10;stroke-width:0.5px"></line><line x1="456.23" y1="346.14" x2="450.71" y2="337.15" style="fill:none;stroke:#263238;stroke-miterlimit:10;stroke-width:2px"></line><path d="M452.4,339.85a8.2,8.2,0,0,0-1.56-6.61c-1.48-2-10.22-8.06-11.84-4.88C437.24,331.82,445.53,341.1,452.4,339.85Z" style="fill:#92E3A9;stroke:#263238;stroke-miterlimit:10"></path><line x1="452.4" y1="339.85" x2="444.47" y2="332.24" style="fill:none;stroke:#263238;stroke-miterlimit:10;stroke-width:0.5px"></line><line x1="459.18" y1="317.69" x2="453.66" y2="308.71" style="fill:none;stroke:#263238;stroke-miterlimit:10;stroke-width:2px"></line><path d="M455.35,311.41a8.22,8.22,0,0,0-1.56-6.62c-1.48-2-10.22-8.06-11.84-4.87C440.19,303.38,448.49,312.66,455.35,311.41Z" style="fill:#92E3A9;stroke:#263238;stroke-miterlimit:10"></path><line x1="455.35" y1="311.41" x2="447.42" y2="303.8" style="fill:none;stroke:#263238;stroke-miterlimit:10;stroke-width:0.5px"></line><line x1="449.81" y1="406.66" x2="457.06" y2="398.99" style="fill:none;stroke:#263238;stroke-miterlimit:10;stroke-width:2px"></line><path d="M454.86,401.29a8.2,8.2,0,0,1,2.88-6.15c1.86-1.67,11.65-5.79,12.59-2.34C471.34,396.55,461.32,403.92,454.86,401.29Z" style="fill:#92E3A9;stroke:#263238;stroke-miterlimit:10"></path><line x1="454.86" y1="401.29" x2="464.73" y2="395.16" style="fill:none;stroke:#263238;stroke-miterlimit:10;stroke-width:0.5px"></line><line x1="454.57" y1="360.78" x2="461.82" y2="353.12" style="fill:none;stroke:#263238;stroke-miterlimit:10;stroke-width:2px"></line><path d="M459.62,355.41a8.2,8.2,0,0,1,2.88-6.15c1.86-1.67,11.65-5.79,12.59-2.34C476.1,350.67,466.08,358.05,459.62,355.41Z" style="fill:#92E3A9;stroke:#263238;stroke-miterlimit:10"></path><line x1="459.62" y1="355.41" x2="469.49" y2="349.29" style="fill:none;stroke:#263238;stroke-miterlimit:10;stroke-width:0.5px"></line><line x1="456.66" y1="340.62" x2="463.91" y2="332.95" style="fill:none;stroke:#263238;stroke-miterlimit:10;stroke-width:2px"></line><path d="M461.71,335.25a8.2,8.2,0,0,1,2.88-6.15c1.86-1.67,11.66-5.79,12.59-2.34C478.19,330.51,468.17,337.88,461.71,335.25Z" style="fill:#92E3A9;stroke:#263238;stroke-miterlimit:10"></path><line x1="461.71" y1="335.25" x2="471.58" y2="329.12" style="fill:none;stroke:#263238;stroke-miterlimit:10;stroke-width:0.5px"></line><line x1="459.73" y1="311.06" x2="466.98" y2="303.4" style="fill:none;stroke:#263238;stroke-miterlimit:10;stroke-width:2px"></line><path d="M464.78,305.69a8.2,8.2,0,0,1,2.88-6.15c1.86-1.66,11.65-5.79,12.59-2.34C481.26,301,471.24,308.33,464.78,305.69Z" style="fill:#92E3A9;stroke:#263238;stroke-miterlimit:10"></path><line x1="464.78" y1="305.69" x2="474.65" y2="299.57" style="fill:none;stroke:#263238;stroke-miterlimit:10;stroke-width:0.5px"></line><path d="M461.31,292.08a8.19,8.19,0,0,1,2.89-6.15c1.86-1.66,11.65-5.79,12.58-2.34C477.8,287.34,467.77,294.72,461.31,292.08Z" style="fill:#92E3A9;stroke:#263238;stroke-miterlimit:10"></path><line x1="461.31" y1="292.08" x2="471.18" y2="285.96" style="fill:none;stroke:#263238;stroke-miterlimit:10;stroke-width:0.5px"></line><path d="M461.72,292.52A8.24,8.24,0,0,1,455.9,289c-1.46-2-4.54-12.2-1-12.76C458.73,275.63,465,286.37,461.72,292.52Z" style="fill:#92E3A9;stroke:#263238;stroke-miterlimit:10"></path><line x1="461.72" y1="292.52" x2="456.66" y2="282.06" style="fill:none;stroke:#263238;stroke-miterlimit:10;stroke-width:0.5px"></line><line x1="443.04" y1="230.52" x2="443.04" y2="424.37" style="fill:none;stroke:#263238;stroke-miterlimit:10;stroke-width:2px"></line><line x1="443.19" y1="395.23" x2="436.78" y2="386.86" style="fill:none;stroke:#263238;stroke-miterlimit:10;stroke-width:2px"></line><path d="M438.73,389.37A8.21,8.21,0,0,0,436.5,383c-1.68-1.85-11-7-12.28-3.63C422.82,383,432,391.32,438.73,389.37Z" style="fill:#92E3A9;stroke:#263238;stroke-miterlimit:10"></path><line x1="438.73" y1="389.37" x2="430.06" y2="382.62" style="fill:none;stroke:#263238;stroke-miterlimit:10;stroke-width:0.5px"></line><line x1="443.19" y1="358.8" x2="436.78" y2="350.43" style="fill:none;stroke:#263238;stroke-miterlimit:10;stroke-width:2px"></line><path d="M438.73,352.94a8.21,8.21,0,0,0-2.23-6.42c-1.68-1.85-11-7-12.28-3.63C422.82,346.52,432,354.89,438.73,352.94Z" style="fill:#92E3A9;stroke:#263238;stroke-miterlimit:10"></path><line x1="438.73" y1="352.94" x2="430.06" y2="346.19" style="fill:none;stroke:#263238;stroke-miterlimit:10;stroke-width:0.5px"></line><line x1="443.19" y1="316.03" x2="436.78" y2="307.65" style="fill:none;stroke:#263238;stroke-miterlimit:10;stroke-width:2px"></line><path d="M438.73,310.17a8.21,8.21,0,0,0-2.23-6.42c-1.68-1.85-11-7-12.28-3.63C422.82,303.75,432,312.12,438.73,310.17Z" style="fill:#92E3A9;stroke:#263238;stroke-miterlimit:10"></path><line x1="438.73" y1="310.17" x2="430.06" y2="303.42" style="fill:none;stroke:#263238;stroke-miterlimit:10;stroke-width:0.5px"></line><line x1="443.19" y1="287.55" x2="436.78" y2="279.18" style="fill:none;stroke:#263238;stroke-miterlimit:10;stroke-width:2px"></line><path d="M438.73,281.69a8.21,8.21,0,0,0-2.23-6.42c-1.68-1.84-11-7-12.28-3.62C422.82,275.27,432,283.65,438.73,281.69Z" style="fill:#92E3A9;stroke:#263238;stroke-miterlimit:10"></path><line x1="438.73" y1="281.69" x2="430.06" y2="274.94" style="fill:none;stroke:#263238;stroke-miterlimit:10;stroke-width:0.5px"></line><line x1="443.19" y1="258.96" x2="436.78" y2="250.58" style="fill:none;stroke:#263238;stroke-miterlimit:10;stroke-width:2px"></line><path d="M438.73,253.1a8.21,8.21,0,0,0-2.23-6.42c-1.68-1.85-11-7-12.28-3.63C422.82,246.68,432,255.05,438.73,253.1Z" style="fill:#92E3A9;stroke:#263238;stroke-miterlimit:10"></path><line x1="438.73" y1="253.1" x2="430.06" y2="246.35" style="fill:none;stroke:#263238;stroke-miterlimit:10;stroke-width:0.5px"></line><line x1="443.05" y1="406.35" x2="449.47" y2="397.98" style="fill:none;stroke:#263238;stroke-miterlimit:10;stroke-width:2px"></line><path d="M447.52,400.49a8.21,8.21,0,0,1,2.23-6.42c1.68-1.84,11-7,12.28-3.62C463.42,394.07,454.21,402.44,447.52,400.49Z" style="fill:#92E3A9;stroke:#263238;stroke-miterlimit:10"></path><line x1="447.52" y1="400.49" x2="456.7" y2="393.38" style="fill:none;stroke:#263238;stroke-miterlimit:10;stroke-width:0.5px"></line><line x1="443.05" y1="348.41" x2="449.47" y2="340.04" style="fill:none;stroke:#263238;stroke-miterlimit:10;stroke-width:2px"></line><path d="M447.52,342.55a8.21,8.21,0,0,1,2.23-6.42c1.68-1.84,11-7,12.28-3.62C463.42,336.13,454.21,344.5,447.52,342.55Z" style="fill:#92E3A9;stroke:#263238;stroke-miterlimit:10"></path><line x1="447.52" y1="342.55" x2="456.7" y2="335.44" style="fill:none;stroke:#263238;stroke-miterlimit:10;stroke-width:0.5px"></line><line x1="443.05" y1="319.81" x2="449.47" y2="311.44" style="fill:none;stroke:#263238;stroke-miterlimit:10;stroke-width:2px"></line><path d="M447.52,314a8.19,8.19,0,0,1,2.23-6.41c1.68-1.85,11-7,12.28-3.63C463.42,307.54,454.21,315.91,447.52,314Z" style="fill:#92E3A9;stroke:#263238;stroke-miterlimit:10"></path><line x1="447.52" y1="313.95" x2="456.7" y2="306.84" style="fill:none;stroke:#263238;stroke-miterlimit:10;stroke-width:0.5px"></line><line x1="443.05" y1="282.02" x2="449.47" y2="273.64" style="fill:none;stroke:#263238;stroke-miterlimit:10;stroke-width:2px"></line><path d="M447.52,276.16a8.21,8.21,0,0,1,2.23-6.42c1.68-1.85,11-7,12.28-3.63C463.42,269.74,454.21,278.11,447.52,276.16Z" style="fill:#92E3A9;stroke:#263238;stroke-miterlimit:10"></path><line x1="447.52" y1="276.16" x2="456.7" y2="269.04" style="fill:none;stroke:#263238;stroke-miterlimit:10;stroke-width:0.5px"></line><line x1="443.05" y1="252.3" x2="449.47" y2="243.93" style="fill:none;stroke:#263238;stroke-miterlimit:10;stroke-width:2px"></line><path d="M447.52,246.44a8.21,8.21,0,0,1,2.23-6.42c1.68-1.84,11-7,12.28-3.63C463.42,240,454.21,248.39,447.52,246.44Z" style="fill:#92E3A9;stroke:#263238;stroke-miterlimit:10"></path><line x1="447.52" y1="246.44" x2="456.7" y2="239.33" style="fill:none;stroke:#263238;stroke-miterlimit:10;stroke-width:0.5px"></line><path d="M442.67,233.26a8.21,8.21,0,0,1,2.23-6.42c1.68-1.84,11-7,12.28-3.62C458.57,226.84,449.37,235.21,442.67,233.26Z" style="fill:#92E3A9;stroke:#263238;stroke-miterlimit:10"></path><line x1="442.67" y1="233.26" x2="451.85" y2="226.15" style="fill:none;stroke:#263238;stroke-miterlimit:10;stroke-width:0.5px"></line><path d="M443.12,233.66a8.22,8.22,0,0,1-6.15-2.9c-1.66-1.86-5.77-11.66-2.32-12.59C438.4,217.16,445.76,227.2,443.12,233.66Z" style="fill:#92E3A9;stroke:#263238;stroke-miterlimit:10"></path><line x1="443.12" y1="233.66" x2="437.01" y2="223.77" style="fill:none;stroke:#263238;stroke-miterlimit:10;stroke-width:0.5px"></line><polygon points="452.89 436.74 453.58 422.8 427.92 422.8 428.61 436.74 452.89 436.74" style="fill:#263238;stroke:#263238;stroke-miterlimit:10"></polygon></g><g id="Character"><path d="M212.59,255.08s-44.49,15.41-53,18.88-12.34,12-12,20.05-1.16,33.16-1.16,33.16-9.25,66.33-10,72.88.77,8.1,12.34,13.88a102.93,102.93,0,0,0,24.29,8.1v14.65H320.8s5.4-58.22.77-77.12-9.64-54.75-9.64-64.78-3.85-17-9.25-21.59-44-9.64-51.29-11.57S212.59,255.08,212.59,255.08Z" style="fill:#92E3A9;stroke:#263238;stroke-miterlimit:10"></path><path d="M172.94,299c7,7.81,17,20.63,18.68,32.37" style="fill:none;stroke:#263238;stroke-miterlimit:10"></path><path d="M165.79,291.69s1.42,1.31,3.61,3.56" style="fill:none;stroke:#263238;stroke-miterlimit:10"></path><path d="M179.28,298.64s11.57,13.49,15.43,25.06" style="fill:none;stroke:#263238;stroke-miterlimit:10"></path><path d="M269.13,335.65c10.8-18.89,11.18-33.16,11.18-33.16l-14.27-5L278.38,284l-9.08-19.09c-6.95-1.21-13.14-2.22-16.49-2.94l-13.76,37.84.92,60.88A58.41,58.41,0,0,0,269.13,335.65Z" style="fill:#92E3A9;stroke:#263238;stroke-miterlimit:10"></path><path d="M212.59,255.08s-9.56,3.31-20.65,7.21l-5.33,24.78,15,9.64-13.5,5.78A47.35,47.35,0,0,0,192,313.67c3.08,6.56,50.31,65.29,50.31,63.36s-4.82-34.26-4.82-34.26l-3.85-53,1.95-31.12C224.66,256.85,212.59,255.08,212.59,255.08Z" style="fill:#92E3A9;stroke:#263238;stroke-miterlimit:10"></path><path d="M243.79,422.17a30.87,30.87,0,0,1-.46,4.91" style="fill:none;stroke:#263238;stroke-miterlimit:10"></path><path d="M242.71,381.28s1.21,22,1.17,35.79" style="fill:none;stroke:#263238;stroke-miterlimit:10"></path><path d="M299.21,308.66s-6.17,47.82-7.72,68.25-6.94,45.12-5.39,59" style="fill:none;stroke:#263238;stroke-miterlimit:10"></path><path d="M306.15,288.22s-3.09,31.62-9.64,52.83" style="fill:none;stroke:#263238;stroke-miterlimit:10"></path><path d="M303.63,342.09c-1.85,6.92-4.91,15.49-9.82,22.48" style="fill:none;stroke:#263238;stroke-miterlimit:10"></path><path d="M306.15,329.48s-.29,2.63-1.12,6.64" style="fill:none;stroke:#263238;stroke-miterlimit:10"></path><path d="M256.58,266.16s.63,21.84-.64,50.95-16,43.56-16,43.56S223,325,216.7,301.29a145.66,145.66,0,0,1-4.11-46.21l3-14.37S236,266.16,256.58,266.16Z" style="fill:#fff;stroke:#263238;stroke-miterlimit:10"></path><line x1="220.57" y1="300.26" x2="235.36" y2="305.48" style="fill:none;stroke:#263238;stroke-miterlimit:10"></line><path d="M256.58,266.16s-4.75,13.92-3.17,25" style="fill:none;stroke:#263238;stroke-miterlimit:10"></path><polygon points="241.89 269.67 253.08 281.33 258.27 260.12 241.89 269.67" style="fill:#263238;stroke:#263238;stroke-linecap:round;stroke-miterlimit:10"></polygon><path d="M224.81,147.81s-7.55,1.1-6.63-11.29,14.91-18.44,12-19.05-4.77,2.85-7.15,5.09-4.77-2.48,5.6-7.38,38-2.21,39.22,11.84-.74,16.35-5,17.18-12,1.22-23.32,3S224.81,147.81,224.81,147.81Z" style="fill:#263238;stroke:#263238;stroke-miterlimit:10"></path><path d="M219.56,145.5s24.22-22.32,46.69-20.54" style="fill:none;stroke:#969696;stroke-miterlimit:10"></path><path d="M226.32,127.39s14.23-7.87,30.31-5.08" style="fill:none;stroke:#969696;stroke-miterlimit:10"></path><path d="M285.91,195.9s2.64-1.3,4-9.38.3-23.35-10.62-32.48-21.28-18.18-42.9-12.75S207,157.54,202.1,169.83s-2.38,26.65-1.08,29.3,3.31,8.41,3.31,8.41,1.1,2.07,7.16,2,11-2.41,14.15-7.23,6.64-25.54,13.12-28.82,15.78,3.43,19.77,4.5,6.67-.5,11.88-.37S286.08,188.22,285.91,195.9Z" style="fill:#263238;stroke:#263238;stroke-miterlimit:10"></path><path d="M205,175.11s4-7.36,22.88-12.07,31.31,5,31.31,5" style="fill:none;stroke:#969696;stroke-miterlimit:10"></path><path d="M229.83,151.94s24.9.93,31.13,13.56" style="fill:none;stroke:#969696;stroke-miterlimit:10"></path><path d="M208.29,206.68s-6.37-10.18-8.13-5.19-3.27,16.63-.51,20.85a7.5,7.5,0,0,0,7.56,3.18s4.94,12.75,7.58,17.78,22.3,25.19,27.1,26.37,10.51,1.64,13.7.41,22.53-22.92,24.26-29.85,6.45-35.2,6.95-40.64c1-10.5-.81-19.08-4-22.25s-8.34-6.4-11.08-6.49l-9.22-.28s-14.59-3.76-21.7-1.94-9.92,8.92-13.12,18.68-5.81,12.07-8.81,16.08S208.29,206.68,208.29,206.68Z" style="fill:#fff;stroke:#263238;stroke-miterlimit:10"></path><path d="M272,218.29c-.27,2.1-1.34,3.68-2.39,3.54s-1.67-1.94-1.4-4,1.34-3.68,2.39-3.54S272.25,216.2,272,218.29Z" style="fill:#263238"></path><path d="M245.74,214.87c-.27,2.09-1.34,3.68-2.39,3.54s-1.67-1.94-1.4-4,1.34-3.68,2.39-3.54S246,212.78,245.74,214.87Z" style="fill:#263238"></path><path d="M265.46,209.19s10-4.75,13.69,2.61" style="fill:none;stroke:#263238;stroke-linecap:round;stroke-miterlimit:10;stroke-width:2px"></path><path d="M249.54,206.84S243.28,200,233.27,205" style="fill:none;stroke:#263238;stroke-linecap:round;stroke-miterlimit:10;stroke-width:2px"></path><path d="M246.73,232.61s-.9,2.63,1.16,3.73,2.65-1.31,3.86-.05,2.62,3.09,5.27,1.79,3-1.81,3.07-4.56" style="fill:none;stroke:#263238;stroke-miterlimit:10"></path><path d="M257,238.08s2.85.67,3.77-.5a3.74,3.74,0,0,0,.5-2.88" style="fill:none;stroke:#263238;stroke-miterlimit:10"></path><path d="M238.81,241.65s7,4.74,12.68,6.09a15.72,15.72,0,0,0,14.31-4" style="fill:none;stroke:#263238;stroke-miterlimit:10"></path><path d="M262.53,170.57s-11.73-2.91-17.88,2.06-6.91,12.86-11.15,15.88S223.27,191,223.27,191s4,3,11.12,1.17,12.45-17.35,18.17-19.08S262.53,170.57,262.53,170.57Z" style="fill:#263238;stroke:#263238;stroke-miterlimit:10"></path><path d="M210.5,252.75s3.51-10.36,5.55-13.5,7.58-4.44,8.13-2.22-3.88,7.95-4.62,12.39-1.11,7.58-1.11,7.58Z" style="fill:#fff;stroke:#263238;stroke-miterlimit:10"></path><path d="M226.81,233.83a4.46,4.46,0,1,1-3-5.88A4.69,4.69,0,0,1,226.81,233.83Z" style="fill:#92E3A9;stroke:#263238;stroke-miterlimit:10"></path><path d="M186.19,263.22s.24-.59.6-1.55c1.17-3.09,3.7-9.94,4.23-12.92.69-3.9,1.37-7.35,3.21-7.81s13.32-4.59,17.69-7.35,7.12-3.21,7.35-.23-1.84,6-3.68,7.35-13.55,6.66-14.24,7.12-2.29,5.06-2.29,5.06,7.35-4.14,8.49-3.91,11.95,7.35,13.56,8.27,3.44,3.91,3.44,3.91a8.62,8.62,0,0,1,2.76,3,39.89,39.89,0,0,1,1.38,6.2s1.37,4.6,1.83,6.66-1.37,2.3-3.9,1.15a16.59,16.59,0,0,1-4.82-3.9l-7.13,5.28s2.53,19.07,1.61,25.5-7.58,13.55-7.58,13.55l-8.27,23-16.3-19.76s7.35-14.24,7.58-22.28S185.5,266.67,186.19,263.22Z" style="fill:#fff;stroke:#263238;stroke-miterlimit:10"></path><path d="M192.85,258.4c-.68.23,6.21-5.51,6.21-5.51" style="fill:none;stroke:#263238;stroke-miterlimit:10"></path><path d="M194.92,266.21s12.63-8.5,14.24-9.65,15.39,4.6,15.39,4.6" style="fill:none;stroke:#263238;stroke-miterlimit:10"></path><path d="M201.35,275.17s10.34-10.34,12.41-10.34,13.78,3.22,13.78,3.22l1.15,2.29" style="fill:none;stroke:#263238;stroke-miterlimit:10"></path><line x1="214.67" y1="279.53" x2="211.46" y2="286.65" style="fill:none;stroke:#263238;stroke-miterlimit:10"></line><path d="M187,308.88s7.59,4.43,13.29,7.28S230,329.45,230,329.45s-11.7,32.6-14.55,38.29-7,10.45-7.91,11.08-7.6,26.58-10.76,34.18-13.3,20.25-26.27,21.52-33.23-14.24-33.86-19.62-2.85-12.66,1.58-20.89,19.62-26.27,22.47-31S187,308.88,187,308.88Z" style="fill:#92E3A9;stroke:#263238;stroke-miterlimit:10"></path><path d="M207.56,357.29a65.9,65.9,0,0,0,6.81,3" style="fill:none;stroke:#263238;stroke-miterlimit:10"></path><path d="M175.85,336.15a222.67,222.67,0,0,0,26.4,18.29" style="fill:none;stroke:#263238;stroke-miterlimit:10"></path></g><g id="Mirror"><path d="M333.6,397.55h4.82a0,0,0,0,1,0,0v30.86a.47.47,0,0,1-.47.47h-3.87a.47.47,0,0,1-.47-.47V397.55A0,0,0,0,1,333.6,397.55Z" style="fill:#fff;stroke:#263238;stroke-miterlimit:10"></path><path d="M359.82,359.13c.09,1.23.15,2.47.15,3.74,0,17.95-10.14,32.71-23.14,34.48a19.15,19.15,0,0,0,2.63.18c14.23,0,25.77-15.52,25.77-34.66,0-1.27-.06-2.51-.15-3.74Z" style="fill:#fff;stroke:#263238;stroke-miterlimit:10"></path><ellipse cx="341.75" cy="341.72" rx="44.07" ry="26.43" transform="matrix(0.52, -0.85, 0.85, 0.52, -128.44, 453.48)" style="fill:#fff;stroke:#263238;stroke-miterlimit:10"></ellipse><ellipse cx="345.07" cy="345.04" rx="44.07" ry="26.43" transform="translate(-129.69 457.88) rotate(-58.37)" style="fill:#bababa;stroke:#263238;stroke-miterlimit:10"></ellipse><line x1="323.1" y1="368.02" x2="318.53" y2="372.6" style="fill:none;stroke:#263238;stroke-miterlimit:10"></line><line x1="371.23" y1="319.9" x2="327.67" y2="363.45" style="fill:none;stroke:#263238;stroke-miterlimit:10"></line><line x1="344.55" y1="355.5" x2="331.91" y2="368.14" style="fill:none;stroke:#263238;stroke-miterlimit:10"></line><line x1="353.39" y1="346.65" x2="348.46" y2="351.58" style="fill:none;stroke:#263238;stroke-miterlimit:10"></line><path d="M313.7,362.87c0-1.27.05-2.51.15-3.74h-5.26c-.1,1.23-.15,2.47-.15,3.74,0,19.14,11.53,34.66,25.76,34.66a19,19,0,0,0,2.63-.18C323.84,395.58,313.7,380.82,313.7,362.87Z" style="fill:#fff;stroke:#263238;stroke-miterlimit:10"></path><path d="M368.47,436.11c0,3-14.66,5.49-32.75,5.49S303,439.14,303,436.11s14.67-8.77,32.76-8.77S368.47,433.08,368.47,436.11Z" style="fill:#fff;stroke:#263238;stroke-miterlimit:10"></path></g></svg>
