<svg xmlns="http://www.w3.org/2000/svg" viewBox="0 0 750 500"><g id="background-simple"><path d="M711.76,165.07c-12-37.75-33.54-70.66-69.44-89-48-24.58-108.71-25.19-164.54-6.35-31.84,10.75-61.24,28.81-89.93,47.21-25.51,16.36-55.46,41.35-85,46.64-39.92,7.15-124-50.85-195.17-34.85s-103.5,106-94.16,162,75.35,56,93.06,102,98.37,85,207.93,59,166.61-41,219.73-20,129.31,27,167.35-61c15.22-35.23,23.36-72.61,23.43-109C725.11,229.73,721.57,195.8,711.76,165.07Z" style="fill:#92E3A9"></path><path d="M711.76,165.07c-12-37.75-33.54-70.66-69.44-89-48-24.58-108.71-25.19-164.54-6.35-31.84,10.75-61.24,28.81-89.93,47.21-25.51,16.36-55.46,41.35-85,46.64-39.92,7.15-124-50.85-195.17-34.85s-103.5,106-94.16,162,75.35,56,93.06,102,98.37,85,207.93,59,166.61-41,219.73-20,129.31,27,167.35-61c15.22-35.23,23.36-72.61,23.43-109C725.11,229.73,721.57,195.8,711.76,165.07Z" style="fill:#fff;opacity:0.7000000000000001"></path></g><g id="Plants"><g style="opacity:0.1"><path d="M624.68,290.94c0,.14,8.18-5,8.65-5.42,5.51-4.46,13.54-16.31,10.68-23.72-2.06-5.34-8.31-7.08-13.2-4.6s-7.64,8.91-8.57,14.12C621.14,277.44,624.68,290.92,624.68,290.94Z"></path><path d="M523.86,192.39c2.46,5.71,12.85,15,12.85,15s4-8.71,4.24-9.3c2.13-6.75,2.29-21.07-4.18-25.67-4.66-3.32-10.84-1.33-13.55,3.44S521.76,187.52,523.86,192.39Z"></path><path d="M499.79,225.15c3.72,4.66,15.27,10.53,16.19,11a166.78,166.78,0,0,0-8.75,20.39c-1.46,4.06-2.8,8.2-4.09,12.36.3-2,.56-3.77.57-4,.28-7.08-3.35-20.94-10.81-23.66-5.37-2-10.8,1.58-12.16,6.9s1.68,11.62,5,15.76,13.1,9.39,15.69,10.73c-.48,1.61-1,3.2-1.45,4.8-2.27,7.7-4.5,15.39-6.92,22.87-.85,2.63-1.79,5.2-2.71,7.76.27-1.76.48-3.25.49-3.48.28-7.09-3.35-20.94-10.81-23.66-5.37-2-10.8,1.58-12.16,6.9s1.68,11.62,5,15.75S485,314.43,488.06,316c-1,2.6-2.06,5.21-3.17,7.68-.8,1.67-1.45,3.34-2.35,5s-1.7,3.26-2.53,4.87c-1.73,3-3.49,6.17-5.24,9.09-1.21,2-2.39,4-3.58,5.89.87-2.61,2.49-7.76,2.57-8.21,1.35-7-.14-21.2-7.1-25-5-2.75-10.92-.07-13.06,5s-.11,11.74,2.53,16.33c2.91,5.06,13,12.35,14.25,13.26-2,3.2-3.94,6.29-5.83,9.18-6.52,10-12.33,18.08-16.48,23.69l3.93,3.68.36-.51c4.07-5.76,9.78-14.07,16.16-24.33,2-3.24,4.12-6.75,6.24-10.36a105.13,105.13,0,0,0,11.41,3.69c0,6,4.05,16.86,4.58,18.26-3.41,1.58-6.75,3.08-9.92,4.44-11,4.75-20.28,8.29-26.83,10.68l4.31,4c6.36-2.51,14.76-6,24.43-10.41,3.48-1.59,7.16-3.35,10.92-5.2.88,1.25,8.11,11.41,13.14,14.37,4.57,2.67,11.13,4.81,16.31,2.66s7.8-8,5.09-13c-3.77-7-18-8.6-25-7.31-.41.08-4.78,1.4-7.52,2.28,1.53-.76,3-1.48,4.6-2.29,3.11-1.57,6.17-3.22,9.47-5l4.74-2.76c1.6-.89,3.18-2,4.79-3.05,3.68-2.44,7.3-5.09,10.88-7.84,1.38,2.73,6.43,12.33,10.56,15.68s10.27,6.45,15.71,5.11,8.92-6.72,7-12.1c-2.66-7.48-16.48-11.23-23.57-11-.44,0-5.51.74-8.28,1.2,2.14-1.68,4.28-3.33,6.39-5.09,6.09-5.08,12.1-10.41,18.12-15.71,1.84-1.62,3.7-3.21,5.55-4.81.48,1,6.23,12.51,10.85,16.27,4.11,3.34,10.28,6.45,15.72,5.11s8.92-6.72,7-12.11c-2.66-7.47-16.49-11.22-23.57-11-.53,0-7.82,1.07-9.66,1.43,4.07-3.53,8.17-7,12.35-10.27A166.29,166.29,0,0,1,592,305.27c.22.45,6.16,12.53,10.9,16.37,4.11,3.34,10.27,6.45,15.72,5.11s8.92-6.71,7-12.1c-2.67-7.48-16.49-11.22-23.57-11-.47,0-6,.82-8.65,1.26-.09-.23-.07-.19-.16-.43A121.59,121.59,0,0,1,613,295.63c3.73-1.35,7.37-2.43,10.94-3.39.88,2.36,5,13.11,8.88,17,3.72,3.77,9.51,7.54,15.06,6.81s9.61-5.7,8.29-11.26c-1.82-7.73-15.15-13-22.22-13.53-.38,0-4.32.09-7.19.22,1.62-.41,3.28-.87,4.83-1.23,5.85-1.39,11.28-2.29,16.1-3.06,2.75-.41,5.23-.73,7.57-1,2.07,1.87,10.5,9.3,15.66,11s11.91,2.31,16.51-.9,5.9-9.48,2.16-13.82c-5.18-6-19.42-4.52-25.95-1.76-.57.24-9,5-8.86,5.08l.13.11c-2.25.22-4.66.48-7.29.81-4.85.66-10.32,1.45-16.21,2.71a168.49,168.49,0,0,0-18.83,5,122.76,122.76,0,0,0-20.06,8.5l-.22.13c1.62-1.67,6-6.49,6.28-6.9,4.14-5.75,8.75-19.31,4-25.7-3.4-4.6-9.89-4.64-14-.95s-5,10.62-4.54,15.89c.53,5.95,6.93,17.21,7.44,18.1A167.46,167.46,0,0,0,573,315.65c-3.46,2.58-6.86,5.29-10.23,8.05,1.35-1.49,2.55-2.83,2.7-3,4.13-5.76,8.75-19.31,4-25.7-3.39-4.6-9.88-4.64-14-1s-5,10.61-4.54,15.88,5.74,15.07,7.17,17.62l-3.86,3.2c-6.14,5.17-12.24,10.35-18.38,15.25-2.17,1.73-4.36,3.35-6.55,5,1.2-1.32,2.2-2.45,2.33-2.63,4.14-5.76,8.75-19.31,4-25.7-3.4-4.6-9.88-4.64-14-.95s-5,10.61-4.54,15.88c.46,5.11,5.23,14.12,6.91,17.16-2.29,1.6-4.59,3.21-6.88,4.66-1.59.95-3,2-4.7,2.85l-4.8,2.66c-3.11,1.58-6.31,3.23-9.38,4.69-2.13,1-4.18,2-6.24,2.94,2.17-1.69,6.36-5.1,6.68-5.43a36.52,36.52,0,0,0,8.55-16.3,11.29,11.29,0,0,0,1.33-1.6c3.06-4.55,2.1-11-3-13.67-7-3.75-19.75,2.76-24.85,7.68-.3.29-3.22,3.8-5,6.05.86-1.48,1.71-2.91,2.58-4.45,1.73-3,3.37-6.1,5.14-9.4l2.43-4.92c.84-1.62,1.53-3.44,2.31-5.18,1.73-4.07,3.28-8.27,4.75-12.54,2.65,1.51,12.16,6.73,17.45,7.25s12.13-.29,15.93-4.41,3.74-10.52-.84-13.95c-6.35-4.77-19.94-.27-25.73,3.82-.36.26-4.19,3.66-6.25,5.57.86-2.58,1.74-5.14,2.53-7.77,2.28-7.6,4.35-15.36,6.45-23.1.64-2.37,1.31-4.72,2-7.08.94.55,12.11,7,18,7.59,5.26.51,12.12-.29,15.92-4.41s3.74-10.52-.83-14c-6.35-4.76-20-.26-25.74,3.83-.43.3-5.93,5.21-7.26,6.52,1.45-5.19,2.95-10.35,4.63-15.38a165.42,165.42,0,0,1,8-19.91c.43.26,12.05,7,18.13,7.65,5.27.51,12.12-.29,15.92-4.41s3.74-10.53-.83-14c-6.35-4.77-20-.27-25.73,3.82-.39.27-4.58,4-6.53,5.83L518,236a121.14,121.14,0,0,1,11.54-18.24c2.37-3.18,4.81-6.09,7.25-8.86,2,1.49,11.41,8.18,16.82,9.32,5.18,1.09,12.08,1,16.31-2.64s4.87-10.05.7-14c-5.78-5.44-19.79-2.46-26,1-.34.19-3.56,2.47-5.88,4.16,1.12-1.24,2.25-2.54,3.35-3.7,4.11-4.38,8.14-8.13,11.74-11.43,2.06-1.85,4-3.49,5.76-5,2.76.42,13.89,2,19.12.51s11.2-4.64,13.26-9.85-.3-11.17-5.81-12.72c-7.64-2.16-18.69,6.94-22.62,12.84-.34.51-4.73,9.1-4.59,9.13l.17,0c-1.76,1.42-3.62,3-5.63,4.7-3.68,3.22-7.8,6.9-12,11.2a167,167,0,0,0-13,14.53,123.2,123.2,0,0,0-12,18.15l-.11.24c.42-2.29,1.41-8.72,1.43-9.22.28-7.09-3.35-20.94-10.81-23.66-5.37-2-10.8,1.58-12.16,6.9S496.48,221,499.79,225.15Z"></path><path d="M523.86,192.39c2.46,5.71,12.85,15,12.85,15s4-8.71,4.24-9.3c2.13-6.75,2.29-21.07-4.18-25.67-4.66-3.32-10.84-1.33-13.55,3.44S521.76,187.52,523.86,192.39Z" style="opacity:0.30000000000000004"></path><path d="M624.68,290.94c0,.14,8.18-5,8.65-5.42,5.51-4.46,13.54-16.31,10.68-23.72-2.06-5.34-8.31-7.08-13.2-4.6s-7.64,8.91-8.57,14.12C621.14,277.44,624.68,290.92,624.68,290.94Z" style="opacity:0.30000000000000004"></path><path d="M499.79,225.15c3.72,4.66,15.27,10.53,16.19,11a166.78,166.78,0,0,0-8.75,20.39c-1.46,4.06-2.8,8.2-4.09,12.36.3-2,.56-3.77.57-4,.28-7.08-3.35-20.94-10.81-23.66-5.37-2-10.8,1.58-12.16,6.9s1.68,11.62,5,15.76,13.1,9.39,15.69,10.73c-.48,1.61-1,3.2-1.45,4.8-2.27,7.7-4.5,15.39-6.92,22.87-.85,2.63-1.79,5.2-2.71,7.76.27-1.76.48-3.25.49-3.48.28-7.09-3.35-20.94-10.81-23.66-5.37-2-10.8,1.58-12.16,6.9s1.68,11.62,5,15.75S485,314.43,488.06,316c-1,2.6-2.06,5.21-3.17,7.68-.8,1.67-1.45,3.34-2.35,5s-1.7,3.26-2.53,4.87c-1.73,3-3.49,6.17-5.24,9.09-1.21,2-2.39,4-3.58,5.89.87-2.61,2.49-7.76,2.57-8.21,1.35-7-.14-21.2-7.1-25-5-2.75-10.92-.07-13.06,5s-.11,11.74,2.53,16.33c2.91,5.06,13,12.35,14.25,13.26-2,3.2-3.94,6.29-5.83,9.18-6.52,10-12.33,18.08-16.48,23.69l3.93,3.68.36-.51c4.07-5.76,9.78-14.07,16.16-24.33,2-3.24,4.12-6.75,6.24-10.36a105.13,105.13,0,0,0,11.41,3.69c0,6,4.05,16.86,4.58,18.26-3.41,1.58-6.75,3.08-9.92,4.44-11,4.75-20.28,8.29-26.83,10.68l4.31,4c6.36-2.51,14.76-6,24.43-10.41,3.48-1.59,7.16-3.35,10.92-5.2.88,1.25,8.11,11.41,13.14,14.37,4.57,2.67,11.13,4.81,16.31,2.66s7.8-8,5.09-13c-3.77-7-18-8.6-25-7.31-.41.08-4.78,1.4-7.52,2.28,1.53-.76,3-1.48,4.6-2.29,3.11-1.57,6.17-3.22,9.47-5l4.74-2.76c1.6-.89,3.18-2,4.79-3.05,3.68-2.44,7.3-5.09,10.88-7.84,1.38,2.73,6.43,12.33,10.56,15.68s10.27,6.45,15.71,5.11,8.92-6.72,7-12.1c-2.66-7.48-16.48-11.23-23.57-11-.44,0-5.51.74-8.28,1.2,2.14-1.68,4.28-3.33,6.39-5.09,6.09-5.08,12.1-10.41,18.12-15.71,1.84-1.62,3.7-3.21,5.55-4.81.48,1,6.23,12.51,10.85,16.27,4.11,3.34,10.28,6.45,15.72,5.11s8.92-6.72,7-12.11c-2.66-7.47-16.49-11.22-23.57-11-.53,0-7.82,1.07-9.66,1.43,4.07-3.53,8.17-7,12.35-10.27A166.29,166.29,0,0,1,592,305.27c.22.45,6.16,12.53,10.9,16.37,4.11,3.34,10.27,6.45,15.72,5.11s8.92-6.71,7-12.1c-2.67-7.48-16.49-11.22-23.57-11-.47,0-6,.82-8.65,1.26-.09-.23-.07-.19-.16-.43A121.59,121.59,0,0,1,613,295.63c3.73-1.35,7.37-2.43,10.94-3.39.88,2.36,5,13.11,8.88,17,3.72,3.77,9.51,7.54,15.06,6.81s9.61-5.7,8.29-11.26c-1.82-7.73-15.15-13-22.22-13.53-.38,0-4.32.09-7.19.22,1.62-.41,3.28-.87,4.83-1.23,5.85-1.39,11.28-2.29,16.1-3.06,2.75-.41,5.23-.73,7.57-1,2.07,1.87,10.5,9.3,15.66,11s11.91,2.31,16.51-.9,5.9-9.48,2.16-13.82c-5.18-6-19.42-4.52-25.95-1.76-.57.24-9,5-8.86,5.08l.13.11c-2.25.22-4.66.48-7.29.81-4.85.66-10.32,1.45-16.21,2.71a168.49,168.49,0,0,0-18.83,5,122.76,122.76,0,0,0-20.06,8.5l-.22.13c1.62-1.67,6-6.49,6.28-6.9,4.14-5.75,8.75-19.31,4-25.7-3.4-4.6-9.89-4.64-14-.95s-5,10.62-4.54,15.89c.53,5.95,6.93,17.21,7.44,18.1A167.46,167.46,0,0,0,573,315.65c-3.46,2.58-6.86,5.29-10.23,8.05,1.35-1.49,2.55-2.83,2.7-3,4.13-5.76,8.75-19.31,4-25.7-3.39-4.6-9.88-4.64-14-1s-5,10.61-4.54,15.88,5.74,15.07,7.17,17.62l-3.86,3.2c-6.14,5.17-12.24,10.35-18.38,15.25-2.17,1.73-4.36,3.35-6.55,5,1.2-1.32,2.2-2.45,2.33-2.63,4.14-5.76,8.75-19.31,4-25.7-3.4-4.6-9.88-4.64-14-.95s-5,10.61-4.54,15.88c.46,5.11,5.23,14.12,6.91,17.16-2.29,1.6-4.59,3.21-6.88,4.66-1.59.95-3,2-4.7,2.85l-4.8,2.66c-3.11,1.58-6.31,3.23-9.38,4.69-2.13,1-4.18,2-6.24,2.94,2.17-1.69,6.36-5.1,6.68-5.43a36.52,36.52,0,0,0,8.55-16.3,11.29,11.29,0,0,0,1.33-1.6c3.06-4.55,2.1-11-3-13.67-7-3.75-19.75,2.76-24.85,7.68-.3.29-3.22,3.8-5,6.05.86-1.48,1.71-2.91,2.58-4.45,1.73-3,3.37-6.1,5.14-9.4l2.43-4.92c.84-1.62,1.53-3.44,2.31-5.18,1.73-4.07,3.28-8.27,4.75-12.54,2.65,1.51,12.16,6.73,17.45,7.25s12.13-.29,15.93-4.41,3.74-10.52-.84-13.95c-6.35-4.77-19.94-.27-25.73,3.82-.36.26-4.19,3.66-6.25,5.57.86-2.58,1.74-5.14,2.53-7.77,2.28-7.6,4.35-15.36,6.45-23.1.64-2.37,1.31-4.72,2-7.08.94.55,12.11,7,18,7.59,5.26.51,12.12-.29,15.92-4.41s3.74-10.52-.83-14c-6.35-4.76-20-.26-25.74,3.83-.43.3-5.93,5.21-7.26,6.52,1.45-5.19,2.95-10.35,4.63-15.38a165.42,165.42,0,0,1,8-19.91c.43.26,12.05,7,18.13,7.65,5.27.51,12.12-.29,15.92-4.41s3.74-10.53-.83-14c-6.35-4.77-20-.27-25.73,3.82-.39.27-4.58,4-6.53,5.83L518,236a121.14,121.14,0,0,1,11.54-18.24c2.37-3.18,4.81-6.09,7.25-8.86,2,1.49,11.41,8.18,16.82,9.32,5.18,1.09,12.08,1,16.31-2.64s4.87-10.05.7-14c-5.78-5.44-19.79-2.46-26,1-.34.19-3.56,2.47-5.88,4.16,1.12-1.24,2.25-2.54,3.35-3.7,4.11-4.38,8.14-8.13,11.74-11.43,2.06-1.85,4-3.49,5.76-5,2.76.42,13.89,2,19.12.51s11.2-4.64,13.26-9.85-.3-11.17-5.81-12.72c-7.64-2.16-18.69,6.94-22.62,12.84-.34.51-4.73,9.1-4.59,9.13l.17,0c-1.76,1.42-3.62,3-5.63,4.7-3.68,3.22-7.8,6.9-12,11.2a167,167,0,0,0-13,14.53,123.2,123.2,0,0,0-12,18.15l-.11.24c.42-2.29,1.41-8.72,1.43-9.22.28-7.09-3.35-20.94-10.81-23.66-5.37-2-10.8,1.58-12.16,6.9S496.48,221,499.79,225.15Z" style="opacity:0.30000000000000004"></path></g><g style="opacity:0.1"><path d="M93,290.94c0,.14-8.18-5-8.65-5.42-5.51-4.46-13.54-16.31-10.68-23.72,2.06-5.34,8.31-7.08,13.2-4.6s7.64,8.91,8.57,14.12C96.53,277.44,93,290.92,93,290.94Z"></path><path d="M193.81,192.39c-2.46,5.71-12.85,15-12.85,15s-4.05-8.71-4.24-9.3c-2.13-6.75-2.29-21.07,4.18-25.67,4.66-3.32,10.84-1.33,13.55,3.44S195.91,187.52,193.81,192.39Z"></path><path d="M217.88,225.15c-3.73,4.66-15.27,10.53-16.19,11a166.78,166.78,0,0,1,8.75,20.39c1.46,4.06,2.8,8.2,4.09,12.36-.3-2-.56-3.77-.57-4-.28-7.08,3.35-20.94,10.81-23.66,5.37-2,10.8,1.58,12.16,6.9s-1.68,11.62-5,15.76-13.1,9.39-15.69,10.73c.48,1.61,1,3.2,1.45,4.8,2.27,7.7,4.5,15.39,6.92,22.87.85,2.63,1.79,5.2,2.71,7.76-.27-1.76-.48-3.25-.49-3.48-.28-7.09,3.35-20.94,10.81-23.66,5.37-2,10.8,1.58,12.16,6.9s-1.68,11.62-5,15.75-12.15,8.89-15.23,10.5c1,2.6,2.06,5.21,3.17,7.68.8,1.67,1.45,3.34,2.35,5s1.7,3.26,2.53,4.87c1.73,3,3.49,6.17,5.24,9.09,1.21,2,2.39,4,3.58,5.89-.88-2.61-2.49-7.76-2.57-8.21-1.35-7,.14-21.2,7.1-25,5-2.75,10.92-.07,13.06,5s.11,11.74-2.53,16.33c-2.91,5.06-13,12.35-14.25,13.26,2,3.2,3.94,6.29,5.83,9.18,6.52,10,12.33,18.08,16.48,23.69l-3.93,3.68-.36-.51c-4.07-5.76-9.78-14.07-16.16-24.33-2-3.24-4.12-6.75-6.24-10.36a105.13,105.13,0,0,1-11.41,3.69c0,6-4.05,16.86-4.58,18.26,3.41,1.58,6.75,3.08,9.92,4.44,11,4.75,20.28,8.29,26.83,10.68l-4.31,4c-6.36-2.51-14.76-6-24.43-10.41-3.48-1.59-7.16-3.35-10.92-5.2-.88,1.25-8.11,11.41-13.14,14.37-4.57,2.67-11.13,4.81-16.31,2.66s-7.8-8-5.09-13c3.77-7,18-8.6,25-7.31.41.08,4.78,1.4,7.52,2.28-1.53-.76-3-1.48-4.6-2.29-3.11-1.57-6.17-3.22-9.47-5l-4.74-2.76c-1.6-.89-3.18-2-4.79-3.05-3.68-2.44-7.3-5.09-10.88-7.84-1.38,2.73-6.43,12.33-10.56,15.68s-10.27,6.45-15.71,5.11-8.92-6.72-7-12.1c2.66-7.48,16.48-11.23,23.57-11,.44,0,5.51.74,8.28,1.2-2.14-1.68-4.28-3.33-6.39-5.09-6.09-5.08-12.1-10.41-18.12-15.71-1.84-1.62-3.7-3.21-5.55-4.81-.48,1-6.23,12.51-10.85,16.27-4.11,3.34-10.28,6.45-15.72,5.11s-8.92-6.72-7-12.11c2.66-7.47,16.48-11.22,23.57-11,.53,0,7.82,1.07,9.66,1.43-4.07-3.53-8.17-7-12.35-10.27a166.29,166.29,0,0,0-17.67-12.18c-.22.45-6.16,12.53-10.9,16.37-4.11,3.34-10.27,6.45-15.72,5.11s-8.92-6.71-7-12.1c2.67-7.48,16.49-11.22,23.57-11,.47,0,6,.82,8.65,1.26.09-.23.07-.19.15-.43a121.11,121.11,0,0,0-19.68-8.84c-3.73-1.35-7.37-2.43-10.94-3.39-.88,2.36-5,13.11-8.88,17-3.72,3.77-9.51,7.54-15.06,6.81s-9.61-5.7-8.29-11.26c1.82-7.73,15.15-13,22.22-13.53.38,0,4.32.09,7.19.22-1.62-.41-3.28-.87-4.83-1.23C80.27,288.9,74.84,288,70,287.23c-2.75-.41-5.24-.73-7.57-1-2.07,1.87-10.5,9.3-15.66,11s-11.91,2.31-16.51-.9-5.9-9.48-2.16-13.82c5.18-6,19.42-4.52,26-1.76.57.24,9,5,8.86,5.08l-.13.11c2.25.22,4.66.48,7.29.81,4.85.66,10.32,1.45,16.21,2.71a169.63,169.63,0,0,1,18.83,5,122.76,122.76,0,0,1,20.06,8.5l.22.13c-1.62-1.67-6-6.49-6.28-6.9-4.14-5.75-8.75-19.31-4-25.7,3.4-4.6,9.89-4.64,13.95-.95s5,10.62,4.54,15.89c-.53,5.95-6.93,17.21-7.44,18.1a167.46,167.46,0,0,1,18.55,12.18c3.46,2.58,6.86,5.29,10.23,8.05-1.35-1.49-2.55-2.83-2.7-3-4.13-5.76-8.75-19.31-4-25.7,3.39-4.6,9.88-4.64,13.95-1s5,10.61,4.54,15.88-5.74,15.07-7.17,17.62l3.86,3.2c6.14,5.17,12.24,10.35,18.38,15.25,2.17,1.73,4.36,3.35,6.55,5-1.2-1.32-2.2-2.45-2.33-2.63-4.14-5.76-8.75-19.31-4-25.7,3.4-4.6,9.88-4.64,13.95-.95s5,10.61,4.54,15.88c-.46,5.11-5.23,14.12-6.91,17.16,2.29,1.6,4.58,3.21,6.88,4.66,1.59.95,3.05,2,4.7,2.85l4.8,2.66c3.11,1.58,6.31,3.23,9.38,4.69,2.13,1,4.18,2,6.24,2.94-2.17-1.69-6.36-5.1-6.68-5.43a36.32,36.32,0,0,1-8.55-16.3,11.29,11.29,0,0,1-1.33-1.6c-3.06-4.55-2.1-11,3-13.67,7-3.75,19.75,2.76,24.85,7.68.3.29,3.21,3.8,5,6.05-.86-1.48-1.71-2.91-2.58-4.45-1.73-3-3.37-6.1-5.14-9.4l-2.43-4.92c-.84-1.62-1.53-3.44-2.31-5.18-1.73-4.07-3.28-8.27-4.75-12.54-2.66,1.51-12.16,6.73-17.45,7.25s-12.13-.29-15.93-4.41-3.74-10.52.84-13.95c6.35-4.77,19.94-.27,25.73,3.82.36.26,4.18,3.66,6.25,5.57-.86-2.58-1.74-5.14-2.53-7.77-2.28-7.6-4.35-15.36-6.45-23.1-.64-2.37-1.31-4.72-2-7.08-.93.55-12.1,7-18,7.59-5.27.51-12.12-.29-15.92-4.41s-3.74-10.52.83-14c6.35-4.76,19.95-.26,25.74,3.83.43.3,5.93,5.21,7.26,6.52-1.45-5.19-3-10.35-4.63-15.38a165.42,165.42,0,0,0-8-19.91c-.43.26-12.05,7-18.13,7.65-5.27.51-12.12-.29-15.92-4.41s-3.74-10.53.83-14c6.35-4.77,19.95-.27,25.73,3.82.39.27,4.58,4,6.53,5.83l.36-.28a121.14,121.14,0,0,0-11.54-18.24c-2.37-3.18-4.81-6.09-7.25-8.86-2,1.49-11.41,8.18-16.82,9.32-5.18,1.09-12.08,1-16.31-2.64s-4.87-10.05-.7-14c5.78-5.44,19.79-2.46,26,1,.34.19,3.56,2.47,5.88,4.16-1.12-1.24-2.25-2.54-3.35-3.7-4.11-4.38-8.14-8.13-11.74-11.43-2.06-1.85-4-3.49-5.76-5-2.76.42-13.89,2-19.12.51s-11.2-4.64-13.26-9.85.3-11.17,5.81-12.72c7.64-2.16,18.69,6.94,22.62,12.84.34.51,4.73,9.1,4.58,9.13l-.16,0c1.76,1.42,3.62,3,5.63,4.7,3.67,3.22,7.8,6.9,12,11.2a165.37,165.37,0,0,1,13,14.53,122.45,122.45,0,0,1,12.05,18.15l.11.24c-.42-2.29-1.41-8.72-1.43-9.22-.28-7.09,3.35-20.94,10.81-23.66,5.37-2,10.8,1.58,12.16,6.9S221.19,221,217.88,225.15Z"></path><path d="M193.81,192.39c-2.46,5.71-12.85,15-12.85,15s-4.05-8.71-4.24-9.3c-2.13-6.75-2.29-21.07,4.18-25.67,4.66-3.32,10.84-1.33,13.55,3.44S195.91,187.52,193.81,192.39Z" style="opacity:0.30000000000000004"></path><path d="M93,290.94c0,.14-8.18-5-8.65-5.42-5.51-4.46-13.54-16.31-10.68-23.72,2.06-5.34,8.31-7.08,13.2-4.6s7.64,8.91,8.57,14.12C96.53,277.44,93,290.92,93,290.94Z" style="opacity:0.30000000000000004"></path><path d="M217.88,225.15c-3.73,4.66-15.27,10.53-16.19,11a166.78,166.78,0,0,1,8.75,20.39c1.46,4.06,2.8,8.2,4.09,12.36-.3-2-.56-3.77-.57-4-.28-7.08,3.35-20.94,10.81-23.66,5.37-2,10.8,1.58,12.16,6.9s-1.68,11.62-5,15.76-13.1,9.39-15.69,10.73c.48,1.61,1,3.2,1.45,4.8,2.27,7.7,4.5,15.39,6.92,22.87.85,2.63,1.79,5.2,2.71,7.76-.27-1.76-.48-3.25-.49-3.48-.28-7.09,3.35-20.94,10.81-23.66,5.37-2,10.8,1.58,12.16,6.9s-1.68,11.62-5,15.75-12.15,8.89-15.23,10.5c1,2.6,2.06,5.21,3.17,7.68.8,1.67,1.45,3.34,2.35,5s1.7,3.26,2.53,4.87c1.73,3,3.49,6.17,5.24,9.09,1.21,2,2.39,4,3.58,5.89-.88-2.61-2.49-7.76-2.57-8.21-1.35-7,.14-21.2,7.1-25,5-2.75,10.92-.07,13.06,5s.11,11.74-2.53,16.33c-2.91,5.06-13,12.35-14.25,13.26,2,3.2,3.94,6.29,5.83,9.18,6.52,10,12.33,18.08,16.48,23.69l-3.93,3.68-.36-.51c-4.07-5.76-9.78-14.07-16.16-24.33-2-3.24-4.12-6.75-6.24-10.36a105.13,105.13,0,0,1-11.41,3.69c0,6-4.05,16.86-4.58,18.26,3.41,1.58,6.75,3.08,9.92,4.44,11,4.75,20.28,8.29,26.83,10.68l-4.31,4c-6.36-2.51-14.76-6-24.43-10.41-3.48-1.59-7.16-3.35-10.92-5.2-.88,1.25-8.11,11.41-13.14,14.37-4.57,2.67-11.13,4.81-16.31,2.66s-7.8-8-5.09-13c3.77-7,18-8.6,25-7.31.41.08,4.78,1.4,7.52,2.28-1.53-.76-3-1.48-4.6-2.29-3.11-1.57-6.17-3.22-9.47-5l-4.74-2.76c-1.6-.89-3.18-2-4.79-3.05-3.68-2.44-7.3-5.09-10.88-7.84-1.38,2.73-6.43,12.33-10.56,15.68s-10.27,6.45-15.71,5.11-8.92-6.72-7-12.1c2.66-7.48,16.48-11.23,23.57-11,.44,0,5.51.74,8.28,1.2-2.14-1.68-4.28-3.33-6.39-5.09-6.09-5.08-12.1-10.41-18.12-15.71-1.84-1.62-3.7-3.21-5.55-4.81-.48,1-6.23,12.51-10.85,16.27-4.11,3.34-10.28,6.45-15.72,5.11s-8.92-6.72-7-12.11c2.66-7.47,16.48-11.22,23.57-11,.53,0,7.82,1.07,9.66,1.43-4.07-3.53-8.17-7-12.35-10.27a166.29,166.29,0,0,0-17.67-12.18c-.22.45-6.16,12.53-10.9,16.37-4.11,3.34-10.27,6.45-15.72,5.11s-8.92-6.71-7-12.1c2.67-7.48,16.49-11.22,23.57-11,.47,0,6,.82,8.65,1.26.09-.23.07-.19.15-.43a121.11,121.11,0,0,0-19.68-8.84c-3.73-1.35-7.37-2.43-10.94-3.39-.88,2.36-5,13.11-8.88,17-3.72,3.77-9.51,7.54-15.06,6.81s-9.61-5.7-8.29-11.26c1.82-7.73,15.15-13,22.22-13.53.38,0,4.32.09,7.19.22-1.62-.41-3.28-.87-4.83-1.23C80.27,288.9,74.84,288,70,287.23c-2.75-.41-5.24-.73-7.57-1-2.07,1.87-10.5,9.3-15.66,11s-11.91,2.31-16.51-.9-5.9-9.48-2.16-13.82c5.18-6,19.42-4.52,26-1.76.57.24,9,5,8.86,5.08l-.13.11c2.25.22,4.66.48,7.29.81,4.85.66,10.32,1.45,16.21,2.71a169.63,169.63,0,0,1,18.83,5,122.76,122.76,0,0,1,20.06,8.5l.22.13c-1.62-1.67-6-6.49-6.28-6.9-4.14-5.75-8.75-19.31-4-25.7,3.4-4.6,9.89-4.64,13.95-.95s5,10.62,4.54,15.89c-.53,5.95-6.93,17.21-7.44,18.1a167.46,167.46,0,0,1,18.55,12.18c3.46,2.58,6.86,5.29,10.23,8.05-1.35-1.49-2.55-2.83-2.7-3-4.13-5.76-8.75-19.31-4-25.7,3.39-4.6,9.88-4.64,13.95-1s5,10.61,4.54,15.88-5.74,15.07-7.17,17.62l3.86,3.2c6.14,5.17,12.24,10.35,18.38,15.25,2.17,1.73,4.36,3.35,6.55,5-1.2-1.32-2.2-2.45-2.33-2.63-4.14-5.76-8.75-19.31-4-25.7,3.4-4.6,9.88-4.64,13.95-.95s5,10.61,4.54,15.88c-.46,5.11-5.23,14.12-6.91,17.16,2.29,1.6,4.58,3.21,6.88,4.66,1.59.95,3.05,2,4.7,2.85l4.8,2.66c3.11,1.58,6.31,3.23,9.38,4.69,2.13,1,4.18,2,6.24,2.94-2.17-1.69-6.36-5.1-6.68-5.43a36.32,36.32,0,0,1-8.55-16.3,11.29,11.29,0,0,1-1.33-1.6c-3.06-4.55-2.1-11,3-13.67,7-3.75,19.75,2.76,24.85,7.68.3.29,3.21,3.8,5,6.05-.86-1.48-1.71-2.91-2.58-4.45-1.73-3-3.37-6.1-5.14-9.4l-2.43-4.92c-.84-1.62-1.53-3.44-2.31-5.18-1.73-4.07-3.28-8.27-4.75-12.54-2.66,1.51-12.16,6.73-17.45,7.25s-12.13-.29-15.93-4.41-3.74-10.52.84-13.95c6.35-4.77,19.94-.27,25.73,3.82.36.26,4.18,3.66,6.25,5.57-.86-2.58-1.74-5.14-2.53-7.77-2.28-7.6-4.35-15.36-6.45-23.1-.64-2.37-1.31-4.72-2-7.08-.93.55-12.1,7-18,7.59-5.27.51-12.12-.29-15.92-4.41s-3.74-10.52.83-14c6.35-4.76,19.95-.26,25.74,3.83.43.3,5.93,5.21,7.26,6.52-1.45-5.19-3-10.35-4.63-15.38a165.42,165.42,0,0,0-8-19.91c-.43.26-12.05,7-18.13,7.65-5.27.51-12.12-.29-15.92-4.41s-3.74-10.53.83-14c6.35-4.77,19.95-.27,25.73,3.82.39.27,4.58,4,6.53,5.83l.36-.28a121.14,121.14,0,0,0-11.54-18.24c-2.37-3.18-4.81-6.09-7.25-8.86-2,1.49-11.41,8.18-16.82,9.32-5.18,1.09-12.08,1-16.31-2.64s-4.87-10.05-.7-14c5.78-5.44,19.79-2.46,26,1,.34.19,3.56,2.47,5.88,4.16-1.12-1.24-2.25-2.54-3.35-3.7-4.11-4.38-8.14-8.13-11.74-11.43-2.06-1.85-4-3.49-5.76-5-2.76.42-13.89,2-19.12.51s-11.2-4.64-13.26-9.85.3-11.17,5.81-12.72c7.64-2.16,18.69,6.94,22.62,12.84.34.51,4.73,9.1,4.58,9.13l-.16,0c1.76,1.42,3.62,3,5.63,4.7,3.67,3.22,7.8,6.9,12,11.2a165.37,165.37,0,0,1,13,14.53,122.45,122.45,0,0,1,12.05,18.15l.11.24c-.42-2.29-1.41-8.72-1.43-9.22-.28-7.09,3.35-20.94,10.81-23.66,5.37-2,10.8,1.58,12.16,6.9S221.19,221,217.88,225.15Z" style="opacity:0.30000000000000004"></path></g></g><g id="Device"><rect x="616.44" y="301.57" width="55.82" height="50.53" style="fill:#fff;stroke:#263238;stroke-linecap:round;stroke-linejoin:round"></rect><rect x="621.2" y="306.09" width="43.71" height="41.5" style="fill:#fff;stroke:#263238;stroke-linecap:round;stroke-linejoin:round"></rect><path d="M669.72,316a1.3,1.3,0,1,1-1.3-1.29A1.3,1.3,0,0,1,669.72,316Z" style="fill:#fff;stroke:#263238;stroke-linecap:round;stroke-linejoin:round"></path><path d="M669.72,325.45a1.3,1.3,0,1,1-1.3-1.3A1.3,1.3,0,0,1,669.72,325.45Z" style="fill:#fff;stroke:#263238;stroke-linecap:round;stroke-linejoin:round"></path><path d="M669.72,334.85a1.3,1.3,0,1,1-1.3-1.29A1.3,1.3,0,0,1,669.72,334.85Z" style="fill:#fff;stroke:#263238;stroke-linecap:round;stroke-linejoin:round"></path><rect x="610.91" y="400.04" width="66.04" height="60.97" style="fill:#fff;stroke:#263238;stroke-linecap:round;stroke-linejoin:round"></rect><rect x="610.91" y="354.96" width="66.04" height="8.54" style="fill:#fff;stroke:#263238;stroke-linecap:round;stroke-linejoin:round"></rect><rect x="610.91" y="367.28" width="66.04" height="8.54" style="fill:#fff;stroke:#263238;stroke-linecap:round;stroke-linejoin:round"></rect><rect x="610.91" y="379.61" width="66.04" height="8.54" style="fill:#fff;stroke:#263238;stroke-linecap:round;stroke-linejoin:round"></rect><rect x="610.91" y="429.59" width="66.04" height="31.42" style="fill:#fff;stroke:#263238;stroke-linecap:round;stroke-linejoin:round"></rect><rect x="635.5" y="412.69" width="16.86" height="3.24" style="fill:#263238;stroke:#263238;stroke-linecap:round;stroke-linejoin:round"></rect><rect x="635.5" y="443.82" width="16.86" height="3.24" style="fill:#263238;stroke:#263238;stroke-linecap:round;stroke-linejoin:round"></rect><path d="M611.08,463.83a2.34,2.34,0,0,0,.17-.88V356.49H676V463.6a1.64,1.64,0,0,0,0,.23h5a1.6,1.6,0,0,0,0-.23V354a2.5,2.5,0,0,0-2.5-2.5H608.75a2.5,2.5,0,0,0-2.5,2.5V463a2.55,2.55,0,0,0,.17.88Z" style="fill:#fff;stroke:#263238;stroke-linecap:round;stroke-linejoin:round"></path></g><g id="Spotlights"><path d="M643.57,127.35a32,32,0,0,0,2.76-4.7c12.23-25.5-9.81-61.51-49.23-80.42s-81.3-13.58-93.53,11.92c-.21.44-.41.87-.6,1.32" style="fill:none;stroke:#263238;stroke-linecap:round;stroke-linejoin:round"></path><ellipse cx="571.58" cy="94.46" rx="51.21" ry="79.17" transform="translate(239.15 568.93) rotate(-64.37)" style="fill:none;stroke:#263238;stroke-linecap:round;stroke-linejoin:round"></ellipse><ellipse cx="552.2" cy="60.13" rx="13.66" ry="21.12" transform="translate(259.11 531.98) rotate(-64.37)" style="fill:none;stroke:#263238;stroke-linecap:round;stroke-linejoin:round"></ellipse><path d="M560.46,122.49c-3.26,6.8-14.43,8.23-25,3.18S519.12,111,522.38,104.22s14.44-8.22,25-3.18S563.73,115.69,560.46,122.49Z" style="fill:none;stroke:#263238;stroke-linecap:round;stroke-linejoin:round"></path><path d="M619.76,86.78c-3.27,6.8-14.44,8.23-25,3.18s-16.4-14.65-13.13-21.45,14.43-8.23,25-3.18S623,80,619.76,86.78Z" style="fill:none;stroke:#263238;stroke-linecap:round;stroke-linejoin:round"></path><path d="M604.93,141.63c-3.26,6.8-14.43,8.22-24.95,3.18s-16.39-14.65-13.13-21.46,14.43-8.22,24.95-3.17S608.19,134.82,604.93,141.63Z" style="fill:none;stroke:#263238;stroke-linecap:round;stroke-linejoin:round"></path><path d="M540.25,86.37c-3.27,6.81-14.44,8.23-25,3.18S498.9,74.91,502.17,68.1s14.43-8.22,24.95-3.18S543.51,79.57,540.25,86.37Z" style="fill:none;stroke:#263238;stroke-linecap:round;stroke-linejoin:round"></path><ellipse cx="617.56" cy="114.3" rx="13.66" ry="21.12" transform="translate(247.36 621.64) rotate(-64.37)" style="fill:none;stroke:#263238;stroke-linecap:round;stroke-linejoin:round"></ellipse><path d="M63.3,127.35a32,32,0,0,1-2.76-4.7c-12.23-25.5,9.81-61.51,49.23-80.42s81.3-13.58,93.53,11.92c.21.44.41.87.6,1.32" style="fill:none;stroke:#263238;stroke-linecap:round;stroke-linejoin:round"></path><ellipse cx="135.29" cy="94.46" rx="79.17" ry="51.21" transform="translate(-27.55 67.82) rotate(-25.63)" style="fill:none;stroke:#263238;stroke-linecap:round;stroke-linejoin:round"></ellipse><ellipse cx="154.66" cy="60.13" rx="21.12" ry="13.66" transform="translate(-10.79 72.82) rotate(-25.63)" style="fill:none;stroke:#263238;stroke-linecap:round;stroke-linejoin:round"></ellipse><path d="M146.4,122.49c3.27,6.8,14.44,8.23,24.95,3.18s16.4-14.65,13.13-21.45S170.05,96,159.53,101,143.14,115.69,146.4,122.49Z" style="fill:none;stroke:#263238;stroke-linecap:round;stroke-linejoin:round"></path><ellipse cx="106.15" cy="77.65" rx="21.12" ry="13.66" transform="translate(-23.14 53.56) rotate(-25.63)" style="fill:none;stroke:#263238;stroke-linecap:round;stroke-linejoin:round"></ellipse><path d="M101.94,141.63c3.26,6.8,14.43,8.22,24.94,3.18s16.4-14.65,13.14-21.46-14.44-8.22-25-3.17S98.67,134.82,101.94,141.63Z" style="fill:none;stroke:#263238;stroke-linecap:round;stroke-linejoin:round"></path><ellipse cx="185.66" cy="77.24" rx="21.12" ry="13.66" transform="translate(-15.14 87.92) rotate(-25.63)" style="fill:none;stroke:#263238;stroke-linecap:round;stroke-linejoin:round"></ellipse><ellipse cx="89.31" cy="114.3" rx="21.12" ry="13.66" transform="translate(-40.66 49.88) rotate(-25.63)" style="fill:none;stroke:#263238;stroke-linecap:round;stroke-linejoin:round"></ellipse></g><g id="character-2"><path d="M523,393.52c-22.21-15.16-73.49-20.63-88-25.26s-28.26-10.95-33.11-26.53-.4-48.84-.4-48.84l-44.82,9.26-44.82-9.26s4.44,33.26-.4,48.84-18.58,21.9-33.11,26.53-65.82,10.1-88,25.26-30.69,70.31-30.69,70.31h394.1S545.25,408.68,523,393.52Z" style="fill:#fff;stroke:#263238;stroke-linecap:round;stroke-linejoin:round"></path><path d="M357.29,324.64l8.77-12.53L346.41,300l-34.55-7.14s3.19,23.93,1.2,40.7Z" style="fill:#263238;stroke:#263238;stroke-linecap:round;stroke-linejoin:round"></path><line x1="329.26" y1="402.89" x2="338.11" y2="404.41" style="fill:none;stroke:#263238;stroke-linecap:round;stroke-linejoin:round"></line><line x1="271.4" y1="392.95" x2="321.18" y2="401.5" style="fill:none;stroke:#263238;stroke-linecap:round;stroke-linejoin:round"></line><line x1="429.07" y1="393.62" x2="374.49" y2="405.08" style="fill:none;stroke:#263238;stroke-linecap:round;stroke-linejoin:round"></line><path d="M492.83,150.43c0-9.64-5.54-18.27-7.23-27.69-2.07-11.46-9.34-19-18.23-26.21,0,0,.12-3.25-4-12.48-6-13.48-25.95-24.46-25.95-24.46a31,31,0,0,0-16-5.49S415,41.62,388.51,34.63s-29.95-2.49-29.95-2.49-3.49-4.49-29.94,2.49S295.67,54.1,295.67,54.1a31,31,0,0,0-16,5.49s-20,11-25.95,24.46c-4.11,9.23-4,12.48-4,12.48-8.88,7.22-16.15,14.75-18.22,26.21-1.7,9.42-7.23,18-7.23,27.69,0,9.49,5.49,22,5.49,22s-1.5,15,4,25,13,14,13,14-5,9.48,7.49,18.46,19,9,19,9-1,3,7,4a20.92,20.92,0,0,0,14-3.49s-17.47-62.39-.5-91.34S335.11,107,344.09,106a145,145,0,0,1,14.47-1s5.49,0,14.48,1,33.44,13,50.41,41.93-.5,91.34-.5,91.34a20.92,20.92,0,0,0,14,3.49c8-1,7-4,7-4s6.48,0,19-9,7.49-18.46,7.49-18.46,7.49-4,13-14,4-25,4-25S492.83,159.92,492.83,150.43Z" style="fill:#92E3A9;stroke:#263238;stroke-linecap:round;stroke-linejoin:round"></path><path d="M254.89,208.23s12.58,1.62,21.29-.64" style="fill:none;stroke:#263238;stroke-linecap:round;stroke-linejoin:round"></path><path d="M235.2,171.12s24.53,6.14,34.53,3.88" style="fill:none;stroke:#263238;stroke-linecap:round;stroke-linejoin:round"></path><path d="M253,99.49s13.88,21.94,29,27.1" style="fill:none;stroke:#263238;stroke-linecap:round;stroke-linejoin:round"></path><path d="M304.87,77.86c3.07,6.57,6.82,13.14,10.68,16.47" style="fill:none;stroke:#263238;stroke-linecap:round;stroke-linejoin:round"></path><path d="M297.48,59.15s1.67,5.19,4.33,11.7" style="fill:none;stroke:#263238;stroke-linecap:round;stroke-linejoin:round"></path><path d="M419.13,59.8S411.07,85.61,402.35,95" style="fill:none;stroke:#263238;stroke-linecap:round;stroke-linejoin:round"></path><path d="M463.66,103.36S443,120.79,432,124" style="fill:none;stroke:#263238;stroke-linecap:round;stroke-linejoin:round"></path><path d="M480.44,173.06s-24.2,8.07-36.78,6.45" style="fill:none;stroke:#263238;stroke-linecap:round;stroke-linejoin:round"></path><path d="M436.56,208.88s9.36,4.19,23.55,1.61" style="fill:none;stroke:#263238;stroke-linecap:round;stroke-linejoin:round"></path><path d="M285.35,135.14c-16,38.08-2.66,90.88,8.73,126.67,1.77,5.58,3.65,11.11,5.55,16.65,6.07,17.76,41.54,42.26,46.22,45.53s19.21,2.14,23.89-.2,36-30.84,41.13-43.46,27.42-88.72,24.3-112.65c-5.61-43-27.57-52.95-51.88-60.43s-55.62-4.21-72.45,7C298.64,122.39,290.49,122.94,285.35,135.14Z" style="fill:#fff;stroke:#263238;stroke-linecap:round;stroke-linejoin:round"></path><line x1="307.95" y1="198.65" x2="305.29" y2="203.58" style="fill:none;stroke:#263238;stroke-linecap:round;stroke-linejoin:round"></line><path d="M331.87,206.62s-9.12,1.9-15.95,1.14-14.05-6.07-14.05-6.07-1.51,5.31,4.94,8.35S321.62,211.94,331.87,206.62Z" style="fill:#263238;stroke:#263238;stroke-linecap:round;stroke-linejoin:round"></path><line x1="405.36" y1="198.65" x2="408.02" y2="203.58" style="fill:none;stroke:#263238;stroke-linecap:round;stroke-linejoin:round"></line><path d="M381.44,206.62s9.11,1.9,15.95,1.14,14-6.07,14-6.07S413,207,406.5,210,391.69,211.94,381.44,206.62Z" style="fill:#263238;stroke:#263238;stroke-linecap:round;stroke-linejoin:round"></path><path d="M342.87,240.79s-1.89,7.59-.37,11a13.24,13.24,0,0,0,4.55,5.31" style="fill:none;stroke:#263238;stroke-linecap:round;stroke-linejoin:round"></path><path d="M369.62,240.79s1.9,7.59.38,11a13.31,13.31,0,0,1-4.56,5.31" style="fill:none;stroke:#263238;stroke-linecap:round;stroke-linejoin:round"></path><path d="M345.91,252.56s2.49-1.18,4.77,1.48,5.75,4.59,8,3.45,5.8-5.31,5.8-5.31a3.7,3.7,0,0,1,2.7-.66" style="fill:none;stroke:#263238;stroke-linecap:round;stroke-linejoin:round"></path><path d="M333.46,276.77s6,4.82,11,9.64,11.48,5,16.3,4.59,9.41-3,11.48-6,8.49-8.95,8.49-8.95Z" style="fill:#92E3A9;stroke:#263238;stroke-linecap:round;stroke-linejoin:round"></path><path d="M386.49,272.64s-7.27,1.51-9.47.8c-4.49-1.46-11.76-2.33-14.4-2.64-2.2-.26-4.74.71-6.55,1.61-1.81-.9-4.35-1.87-6.55-1.61-2.72.32-10.37,1.32-14.82,2.77-2,.65-7.9,0-7.9,0s5.91,2.83,7.9,3.26c4.55,1,12.62,2.69,16.57,3.17,1,.12,1.78.2,2.52.26a21.72,21.72,0,0,0,4.56,0c.74-.06,1.57-.14,2.53-.26,3.7-.45,11-2,15.69-3C379,276.47,386.49,272.64,386.49,272.64Z" style="fill:#92E3A9;stroke:#263238;stroke-linecap:round;stroke-linejoin:round"></path><path d="M338.47,176.39s-23.35-3.5-31.59-2.79-10.66,9.92-10.66,9.92,2.58-4.84,11.77-5.17,24.32,4.11,29.29,3,7.6-1.58,5.82-3.5A5.58,5.58,0,0,0,338.47,176.39Z" style="fill:#263238"></path><path d="M375.11,176.39s23.34-3.5,31.58-2.79,10.66,9.92,10.66,9.92-2.58-4.84-11.77-5.17-24.32,4.11-29.29,3-7.6-1.58-5.82-3.5A5.59,5.59,0,0,1,375.11,176.39Z" style="fill:#263238"></path><path d="M345.53,169l-1.92-.56" style="fill:none;stroke:#92E3A9;stroke-linecap:round;stroke-linejoin:round"></path><path d="M339.53,167.34c-9.68-2.53-28.56-6.8-37.55-4.32a24.19,24.19,0,0,0-14.48,11.64" style="fill:none;stroke:#92E3A9;stroke-linecap:round;stroke-linejoin:round;stroke-dasharray:4.2335100173950195,4.2335100173950195"></path><path d="M286.52,176.54a17.14,17.14,0,0,0-.76,1.85" style="fill:none;stroke:#92E3A9;stroke-linecap:round;stroke-linejoin:round"></path><path d="M366,169l1.92-.56" style="fill:none;stroke:#92E3A9;stroke-linecap:round;stroke-linejoin:round"></path><path d="M372,167.34c9.68-2.53,28.57-6.8,37.55-4.32a24.18,24.18,0,0,1,14.49,11.64" style="fill:none;stroke:#92E3A9;stroke-linecap:round;stroke-linejoin:round;stroke-dasharray:4.2335100173950195,4.2335100173950195"></path><path d="M425,176.54a18.13,18.13,0,0,1,.75,1.85" style="fill:none;stroke:#92E3A9;stroke-linecap:round;stroke-linejoin:round"></path><path d="M284.48,220.66s30.31,24.33,55.07-2.14" style="fill:none;stroke:#92E3A9;stroke-linecap:round;stroke-linejoin:round;stroke-dasharray:4"></path><path d="M295.15,251.82a22.6,22.6,0,0,0,20.92,1.28c11.53-5.12,25.19-23.48,25.19-23.48" style="fill:none;stroke:#92E3A9;stroke-linecap:round;stroke-linejoin:round;stroke-dasharray:4"></path><path d="M426.22,220.66s-30.31,24.33-55.07-2.14" style="fill:none;stroke:#92E3A9;stroke-linecap:round;stroke-linejoin:round;stroke-dasharray:4"></path><path d="M415.55,251.82a22.59,22.59,0,0,1-20.92,1.28c-11.53-5.12-25.19-23.48-25.19-23.48" style="fill:none;stroke:#92E3A9;stroke-linecap:round;stroke-linejoin:round;stroke-dasharray:4"></path><path d="M337.57,315.93s15.68,5.67,41.69-.49" style="fill:none;stroke:#92E3A9;stroke-linecap:round;stroke-linejoin:round;stroke-dasharray:4"></path><line x1="357.91" y1="293.24" x2="357.91" y2="317.89" style="fill:none;stroke:#92E3A9;stroke-linecap:round;stroke-linejoin:round;stroke-dasharray:4"></line><path d="M286.17,246.2a3.48,3.48,0,0,1-3.39-2.4c-12.91-43.74-11.76-77.52-.67-102a68.26,68.26,0,0,1,26.78-30.23c17.94-11.09,50.37-14.06,75.44-6.91,21.26,6.08,48,22.83,54.33,68.19,2.13,15.16-4.59,49.68-10.1,68.9a3.55,3.55,0,0,1-4.3,2.32,3.25,3.25,0,0,1-2.5-4c9.15-31.92,11.37-56.11,9.92-66.38-3.25-23.13-14.46-52.8-49.42-62.78-22.87-6.54-53.38-3.85-69.47,6.1a61.57,61.57,0,0,0-24.19,27.33c-10.46,23-11.51,55.43,1,97.7a3.23,3.23,0,0,1-2.46,4A3.71,3.71,0,0,1,286.17,246.2Z" style="fill:#92E3A9;stroke:#263238;stroke-linecap:round;stroke-linejoin:round"></path></g><g id="character-3"><rect x="500.89" y="336.62" width="8.97" height="162.05" transform="translate(605.53 -230.27) rotate(59.22)" style="fill:#fff;stroke:#263238;stroke-linecap:round;stroke-linejoin:round"></rect><rect x="500.89" y="336.62" width="8.97" height="162.05" transform="translate(1125.64 205.28) rotate(121.53)" style="fill:#fff;stroke:#263238;stroke-linecap:round;stroke-linejoin:round"></rect><rect x="432.57" y="367.04" width="9.4" height="96.46" style="fill:#fff;stroke:#263238;stroke-linecap:round;stroke-linejoin:round"></rect><rect x="570.99" y="367.04" width="9.4" height="96.46" style="fill:#fff;stroke:#263238;stroke-linecap:round;stroke-linejoin:round"></rect><rect x="432.57" y="367.04" width="147.82" height="8.77" style="fill:#fff;stroke:#263238;stroke-linecap:round;stroke-linejoin:round"></rect><path d="M505.63,278.57s2.4,5.3,2.91,6.18-2.15,4.68-3.29,4.8-2.9-1-4.16-1.89-2.78-7-2.4-8S505.63,278.57,505.63,278.57Z" style="fill:#fff;stroke:#263238;stroke-linecap:round;stroke-linejoin:round"></path><path d="M501.55,283s-.05.66,1.43,1.65a8.74,8.74,0,0,0,4.13.94" style="fill:none;stroke:#263238;stroke-linecap:round;stroke-linejoin:round"></path><path d="M506.78,287.07s-.61-1.43-1.38-1.43-1.65,1.82-1.65,2.42.94,1.38.94,1.38" style="fill:none;stroke:#263238;stroke-linecap:round;stroke-linejoin:round"></path><path d="M503.7,285.15s-1.43.49-1.65,1.37a3.1,3.1,0,0,0,.38,1.93" style="fill:none;stroke:#263238;stroke-linecap:round;stroke-linejoin:round"></path><path d="M502.32,284.27a2.31,2.31,0,0,0-1.7,2.31" style="fill:none;stroke:#263238;stroke-linecap:round;stroke-linejoin:round"></path><path d="M458.73,300.19s0,22.36.85,25.44,5,30.17,5,30.17-1.67.6-1.67,1.19.24,2.73.24,2.73-2.25,2.14-3.56,3.45-2.73,1.3-3,2.49a1.73,1.73,0,0,0,.95,1.78s6.53.83,9.62.83,8.67-.71,8.67-.71a4.33,4.33,0,0,0,.48-2.49,44.58,44.58,0,0,0-1.31-5.59s-.12-3-.12-4.27-1.19-7-1.19-7l-.8-25.69L476.27,302l5,.67s5.83,19,6.78,20.81L504.83,355s-1.9.36-1.9,1.07a18.15,18.15,0,0,0,.95,3.21,49.43,49.43,0,0,1-3.32,3.68c-1.07.95-2.62,1.54-2,2.38s10.33,1.3,12.35,1.3,4.4-1.42,4.63-2.26-1.78-5.82-1.78-6.17a19.45,19.45,0,0,0-.35-4.75c-.48-1.67-2.14-3.68-2.38-4.75s-10.22-32.55-10.22-32.55l-2-18.07-.35-2.14s-23.05,2-28.27,1.3-10.93-1.9-10.93-1.9Z" style="fill:#263238;stroke:#263238;stroke-linecap:round;stroke-linejoin:round"></path><path d="M460.93,242.87s-2.49,19.86-2.3,23.58.19,16.24.19,18.82-1.52,17.66-1.52,17.66l6.3,2L466,299.4v6.68s14.23.1,20.72-.86,14.71-4.67,18.05-7.16l-4.68-16.9a14,14,0,0,0,4.3-.19,10.74,10.74,0,0,0,3.53-2.48s-4.11-17.86-6.78-25.6-6.59-20.34-8.88-22.15-7.07-2.58-7.07-2.58-11.08-2.1-20.43,2.1C464.75,230.26,462,232.74,460.93,242.87Z" style="fill:#fff;stroke:#263238;stroke-linecap:round;stroke-linejoin:round"></path><path d="M465.6,203.43a7.67,7.67,0,0,0-1.05,3c-.09,1.53.1,2.2-.66,3.44s-2.87,1.43-3,1.91,1.24,2.67,1.24,2.67a63.76,63.76,0,0,0,.86,6.59c.38,1.24,4.1,1.34,4.1,1.34l.58,4.77a39.15,39.15,0,0,1,9-2.48c4.2-.48,4.78-.48,4.78-.48s-1.82-4.87-1.63-8,1.34-10.6-1.05-14.7S469.71,197.89,465.6,203.43Z" style="fill:#fff;stroke:#263238;stroke-linecap:round;stroke-linejoin:round"></path><path d="M465.71,209.87c-.11.58-.37,1-.58,1s-.29-.54-.18-1.12.36-1,.57-1S465.82,209.29,465.71,209.87Z" style="fill:#fff;stroke:#263238;stroke-linecap:round;stroke-linejoin:round"></path><path d="M465,207.09s.9-1.49,1.81.91" style="fill:#fff;stroke:#263238;stroke-linecap:round;stroke-linejoin:round"></path><path d="M470,194.62A7.5,7.5,0,0,0,465.8,199c-1.53,3.92-.77,7.07,1.52,9.17s6.12,9.26,4.87,11.27-3.72.86-3.72.86,2.67,4.58,6.11,5a13.69,13.69,0,0,0,9.17-2.19c2.67-1.72,7.07-6.69,7.16-12a18.88,18.88,0,0,0-3.65-11.68C483.74,194.75,475.46,192.38,470,194.62Z" style="fill:#263238;stroke:#263238;stroke-linecap:round;stroke-linejoin:round"></path><path d="M464,228.35s3.34-4.3,11.75-4.49,9.64,2.2,9.83,3.15.29,1.82.29,1.82-7.74-.77-12.51.28-6.4,1.34-6.4,1.34Z" style="fill:#fff;stroke:#263238;stroke-linecap:round;stroke-linejoin:round"></path><path d="M428.83,188.59l15.87,1.69a1.14,1.14,0,0,1,1,1.26h0a1.15,1.15,0,0,1-1.26,1l-16-1.7-2.39-1.49Z" style="fill:#fff;stroke:#263238;stroke-linecap:round;stroke-linejoin:round"></path><polygon points="428.63 188.64 426.05 189.36 428.24 190.73 428.63 188.64" style="fill:none;stroke:#263238;stroke-linecap:round;stroke-linejoin:round"></polygon><polygon points="427.63 188.92 426.05 189.36 427.42 190.22 427.63 188.92" style="fill:none;stroke:#263238;stroke-linecap:round;stroke-linejoin:round"></polygon><path d="M444.7,190.28l-2.08-.22a4.13,4.13,0,0,0-.39,1.76,3.91,3.91,0,0,0,0,.49l2.2.24a1.15,1.15,0,0,0,1.26-1A1.14,1.14,0,0,0,444.7,190.28Z" style="fill:#fff;stroke:#263238;stroke-linecap:round;stroke-linejoin:round"></path><path d="M441.12,202.56s-.77-3.62-.9-4.85a31.37,31.37,0,0,0-1.17-4.27,22.09,22.09,0,0,0-1.42-2.85c-.63-.91-1.94-2.39-2.85-2.52s-1-.13-1.36.19-1.1.85-1.1.85a8.3,8.3,0,0,0-2.58,1.29,10.62,10.62,0,0,0-1.3,3.23c0,.2-1,1.56-.71,2s2.78-1.56,2.78-1.56,1.49,3.76,1.88,4.73,3,3.36,3,3.36l1.48,4.46Z" style="fill:#fff;stroke:#263238;stroke-linecap:round;stroke-linejoin:round"></path><path d="M432.32,189.11a3.24,3.24,0,0,1,1.69.25,3.42,3.42,0,0,1,1.16,1.43" style="fill:none;stroke:#263238;stroke-linecap:round;stroke-linejoin:round"></path><path d="M429.74,190.4a5.93,5.93,0,0,1,2.2-.07,8.17,8.17,0,0,1,1.42,1.23" style="fill:none;stroke:#263238;stroke-linecap:round;stroke-linejoin:round"></path><path d="M428.44,193.63s.84-1.35,1.36-1.48a5.7,5.7,0,0,1,2,.26" style="fill:none;stroke:#263238;stroke-linecap:round;stroke-linejoin:round"></path><path d="M473.24,232.36l-14.51-6.21-8-4.29-9.65-20.06-6,3.73s10.69,28,11.84,29.6,12.6,9.65,12.6,9.65l5.35,4.77" style="fill:#fff;stroke:#263238;stroke-linecap:round;stroke-linejoin:round"></path><polyline points="500.08 281.16 493.89 257.9 491.43 238.05" style="fill:none;stroke:#263238;stroke-linecap:round;stroke-linejoin:round"></polyline><path d="M480,237.4s1.89,2.28,3.79,10.74" style="fill:none;stroke:#263238;stroke-linecap:round;stroke-linejoin:round"></path><path d="M484.29,244.73a24.12,24.12,0,0,1,.89,6.69" style="fill:none;stroke:#263238;stroke-linecap:round;stroke-linejoin:round"></path><path d="M458.91,278.06s1.39.51,2,.76a38.58,38.58,0,0,0,4.17.63l-.13,2.27s-3.28.38-5.3-1" style="fill:none;stroke:#263238;stroke-linecap:round;stroke-linejoin:round"></path></g><g id="Floor"><line x1="28.46" y1="463.83" x2="734.98" y2="463.83" style="fill:none;stroke:#263238;stroke-linecap:round;stroke-linejoin:round"></line></g><g id="character-4"><path d="M580,291.35s-3.59,2.26-4,3.72a13.22,13.22,0,0,1-1.19,3.06c-.27.4-4.12,1.86-4.12,2.66a9.67,9.67,0,0,0,.93,2.66s-1.2,8.24-.8,8.5a21.74,21.74,0,0,0,3.46.67V317l11.16-.54.13-3.85a78.91,78.91,0,0,0,7.58-5.32c1.86-1.73,3.72-3.59,3.19-7.71s-5.05-10.76-9.44-11S579.47,287.5,580,291.35Z" style="fill:#fff;stroke:#263238;stroke-linecap:round;stroke-linejoin:round"></path><path d="M596.35,299.59c-.53-4.12-5.05-10.76-9.44-11s-7.44-1.06-6.91,2.79c0,0,2.13,2.26,2.13,3.59s-2.93,0-3.46,1.46,1.2,4.39,1.2,4.39-1.6,1.2-1.06,2.13,1.19,1.19,1.59.66,1.6-1.2,3.32,0-.66,4.39-1.72,4.92a5.07,5.07,0,0,1-2.4.4,19.64,19.64,0,0,0,2.93,2.92,8.71,8.71,0,0,0,3.57.47,70.87,70.87,0,0,0,7.06-5C595,305.57,596.88,303.71,596.35,299.59Z" style="fill:#263238;stroke:#263238;stroke-linecap:round;stroke-linejoin:round"></path><polygon points="584.79 314.61 574.02 315.81 570.43 319.8 581.33 318.2 588.51 319.26 586.51 314.88 584.79 314.61" style="fill:#fff;stroke:#263238;stroke-linecap:round;stroke-linejoin:round"></polygon><rect x="548.22" y="323.49" width="17.68" height="26.98" transform="translate(-56.07 118.02) rotate(-11.52)" style="fill:#fff;stroke:#263238;stroke-linecap:round;stroke-linejoin:round"></rect><rect x="549.31" y="323.5" width="15.22" height="25.62" transform="translate(-55.94 117.98) rotate(-11.52)" style="fill:#fff;stroke:#263238;stroke-linecap:round;stroke-linejoin:round"></rect><path d="M555.6,322.15l-.08-.39a1.46,1.46,0,0,0-2.87.58l.08.39-2.08.43.48,2.34,6.9-1.4-.48-2.35Z" style="fill:#fff;stroke:#263238;stroke-linecap:round;stroke-linejoin:round"></path><path d="M552.35,343.32s-.53-3.72-.53-4.78-1.73-4-2.52-5.19-1.07-4-1.86-4.38-1.47-.67-1.73.13a12.88,12.88,0,0,0-.4,1.46s-2.13,2.93-1.86,3.59.26,4,.66,4.65a51.5,51.5,0,0,0,3.86,3.86l.13,2.79Z" style="fill:#fff;stroke:#263238;stroke-linecap:round;stroke-linejoin:round"></path><line x1="545.31" y1="330.56" x2="546.24" y2="334.29" style="fill:none;stroke:#263238;stroke-linecap:round;stroke-linejoin:round"></line><path d="M561.58,404.61s2.48,19.66,2.48,20.7,2.53,20.41,2.79,22.62-1.44,5.09-1.18,6.52.66,4.3.79,4.7-5.09,3.39-6.52,3.78-1.18,2.21-.39,2.87,8.21,1,10.82,1,8.08.91,9-.13a5.64,5.64,0,0,0,1.17-2.09,2.83,2.83,0,0,0,2.87,1.83c2.08-.26,2.87,0,3.78-1.05s1.3-3.91.91-5.21a6.12,6.12,0,0,1,0-4c.52-1.7.52-2.74.52-6.39s.13-8.09,0-8.48-.51-17.12-.51-17.51,3.35-21.51,3.35-21.51l-29.56-.52Z" style="fill:#263238;stroke:#263238;stroke-linecap:round;stroke-linejoin:round"></path><path d="M572.69,318.33s-13.16,5.59-13.29,6.12-6.38,22.2-6.38,22.2l-.93-4.26a5.53,5.53,0,0,0-3.19,1.2,18,18,0,0,0-3.06,4.12s4.12,17,4.79,17.55,3.45.53,4.65-.14,5.58-7.44,5.58-7.44l-3.46,27.25L555,405s11,4.12,19,4.12,17.55-2.66,17.55-2.66l4.38-2s-.26-33-.4-37.09-.79-11-.79-11,.53,2.13,1.72,2,4.52-2,4.92-4.78a17.42,17.42,0,0,0-.66-8c-.8-2.12-1.86-12.23-1.86-13.16s-1.73-8.37-2.53-9.43-7.84-3.72-7.84-3.72S586,315.81,572.69,318.33Z" style="fill:#fff;stroke:#263238;stroke-linecap:round;stroke-linejoin:round"></path><line x1="594.76" y1="356.35" x2="596.75" y2="331.63" style="fill:none;stroke:#263238;stroke-linecap:round;stroke-linejoin:round"></line><polyline points="560.86 357.68 561.39 339.6 560.33 330.03" style="fill:none;stroke:#263238;stroke-linecap:round;stroke-linejoin:round"></polyline><path d="M589.31,343.72s-8.25,18.21-8.91,19.54" style="fill:none;stroke:#263238;stroke-linecap:round;stroke-linejoin:round"></path><line x1="581.46" y1="357.55" x2="578.14" y2="365.39" style="fill:none;stroke:#263238;stroke-linecap:round;stroke-linejoin:round"></line><line x1="553.02" y1="346.65" x2="549.56" y2="355.02" style="fill:none;stroke:#263238;stroke-linecap:round;stroke-linejoin:round"></line></g><g id="character-1"><rect x="147.51" y="336.62" width="8.97" height="162.05" transform="translate(433 73.32) rotate(59.22)" style="fill:#fff;stroke:#263238;stroke-linecap:round;stroke-linejoin:round"></rect><rect x="147.51" y="336.62" width="8.97" height="162.05" transform="translate(587.46 506.49) rotate(121.53)" style="fill:#fff;stroke:#263238;stroke-linecap:round;stroke-linejoin:round"></rect><rect x="79.19" y="367.04" width="9.4" height="96.46" style="fill:#fff;stroke:#263238;stroke-linecap:round;stroke-linejoin:round"></rect><rect x="217.61" y="367.04" width="9.4" height="96.46" style="fill:#fff;stroke:#263238;stroke-linecap:round;stroke-linejoin:round"></rect><rect x="79.19" y="367.04" width="147.82" height="8.77" style="fill:#fff;stroke:#263238;stroke-linecap:round;stroke-linejoin:round"></rect><path d="M147,360.58s-.93,5-1.11,6.58-2.67,4.11-4.82,4.65-4.83-.72-5-3.22,4.12-8.55,4.12-8.55Z" style="fill:#263238;stroke:#263238;stroke-linecap:round;stroke-linejoin:round"></path><polygon points="150.39 268.11 149.32 311.53 138.6 360.04 147.98 360.58 162.18 312.6 168.35 283.38 171.83 312.6 173.71 360.04 181.48 360.04 186.31 310.99 182.02 267.84 150.39 268.11" style="fill:#263238;stroke:#263238;stroke-linecap:round;stroke-linejoin:round"></polygon><path d="M164.93,213.37l-4.73,3.81-.41,54.2h17l-4.27-53.59S166.61,213.07,164.93,213.37Z" style="fill:#fff;stroke:#263238;stroke-linecap:round;stroke-linejoin:round"></path><path d="M170.33,218.16s1.92,20.19,2.19,31.42.54,53.24.54,53.24,5.14,1.35,7.58.94a81.2,81.2,0,0,0,8.13-2.3l-7-56.75-.41-24.51-11.24-3.65Z" style="fill:#fff;stroke:#263238;stroke-linecap:round;stroke-linejoin:round"></path><path d="M159.11,214.65,146,221.15l1.49,34.53-3.65,47a92.61,92.61,0,0,0,10.29,1.22c3.11,0,8.25-.54,8.25-.54l.41-60.27.81-21.8.34-3.9Z" style="fill:#fff;stroke:#263238;stroke-linecap:round;stroke-linejoin:round"></path><path d="M171.27,190.06a27.91,27.91,0,0,1,3.59,4.64c.76,1.61.48,2.37,1.33,2.56s2.93.47,2.93,1a12.53,12.53,0,0,1-1.61,2.84,53.23,53.23,0,0,1,.48,6.43c-.19,1-5.87,2.27-5.87,2.27l-1,5.78s-.29,8.33-.57,9.93-1.61,6.82-1.61,6.82l-5.21-9.65-3.12-9.56-.95-3.32-.75-2.36a4.64,4.64,0,0,0,4.16-1.71,34.37,34.37,0,0,0,5.4-9.55,25.7,25.7,0,0,0,1.42-6.82S170,188.83,171.27,190.06Z" style="fill:#fff;stroke:#263238;stroke-linecap:round;stroke-linejoin:round"></path><path d="M168.14,202.75a3.75,3.75,0,0,0,1.71-1.61c.56-1.14,0-3.41,0-3.41a8.24,8.24,0,0,0,1.89-5.11c0-3-.28-6.25-5-6.91s-11.35,1.32-13.91,6.91-1.23,11.07.66,13.44,6.44,5.77,10,4.64S168.14,202.75,168.14,202.75Z" style="fill:#263238;stroke:#263238;stroke-linecap:round;stroke-linejoin:round"></path><path d="M169.75,203.22s-1.42-3.41-3-2.37-.94,3.6.29,5.11,2.93,0,2.93,0" style="fill:#fff;stroke:#263238;stroke-linecap:round;stroke-linejoin:round"></path><path d="M174.81,197.66c.1.52,0,1-.23,1s-.5-.33-.61-.85,0-1,.23-1S174.7,197.15,174.81,197.66Z" style="fill:#263238"></path><path d="M176.85,203.22a2.08,2.08,0,0,1-2.08-.57" style="fill:none;stroke:#263238;stroke-linecap:round;stroke-linejoin:round"></path><path d="M154.8,207.76s-2.65-.57-3.5.19-2.94,3.12-1.42,5.58,6.43,4.55,7.38,4.07,3.31-2.55,3.31-4.44a7.54,7.54,0,0,0-.28-2.56Z" style="fill:#263238;stroke:#263238;stroke-linecap:round;stroke-linejoin:round"></path><polygon points="159.91 212.59 163.88 220.25 160.19 227.16 156.5 217.41 159.91 212.59" style="fill:#fff;stroke:#263238;stroke-linecap:round;stroke-linejoin:round"></polygon><path d="M171,221.11l4.36,4.73s-2.84-9.37-3-10a22.53,22.53,0,0,0-1-2.37l-.38,2.93Z" style="fill:#fff;stroke:#263238;stroke-linecap:round;stroke-linejoin:round"></path><path d="M217.39,254.28s-7.77,3.13-8.22,3.13-4,.18-4,.18l1.79-3.85.61-.16a5.1,5.1,0,0,1,2.07-1.27C210.6,252.14,217.39,254.28,217.39,254.28Z" style="fill:#fff;stroke:#263238;stroke-linecap:round;stroke-linejoin:round"></path><polygon points="181.32 220.21 192.85 244.59 208.54 251.47 205.73 257.93 187.56 254.53 181.65 242.43 181.32 220.21" style="fill:#fff;stroke:#263238;stroke-linecap:round;stroke-linejoin:round"></polygon><rect x="123.83" y="232.17" width="21.28" height="64.36" transform="translate(-80.57 468.61) rotate(-106.57)" style="fill:#fff;stroke:#263238;stroke-linecap:round;stroke-linejoin:round"></rect><rect x="127.39" y="232.17" width="14.16" height="64.36" transform="translate(-80.57 468.61) rotate(-106.57)" style="fill:#fff;stroke:#263238;stroke-linecap:round;stroke-linejoin:round"></rect><rect x="81.06" y="272.2" width="43.22" height="3.23" transform="translate(-130.5 450.29) rotate(-106.57)" style="fill:#fff;stroke:#263238;stroke-linecap:round;stroke-linejoin:round"></rect><line x1="239.06" y1="233.24" x2="294.15" y2="216.85" style="fill:none;stroke:#263238;stroke-linecap:round;stroke-linejoin:round"></line><polygon points="220.78 234.09 223.29 242.52 242.74 233.52 241.98 230.99 220.78 234.09" style="fill:#92E3A9;stroke:#263238;stroke-linecap:round;stroke-linejoin:round"></polygon><rect x="208.23" y="233.53" width="19.63" height="11.91" transform="translate(50.67 516.77) rotate(-106.57)" style="fill:#fff;stroke:#263238;stroke-linecap:round;stroke-linejoin:round"></rect><rect x="166.32" y="213.26" width="25.72" height="75.59" transform="translate(-10.36 494.38) rotate(-106.57)" style="fill:#92E3A9;stroke:#263238;stroke-linecap:round;stroke-linejoin:round"></rect><rect x="144.77" y="242.15" width="25.72" height="30.62" transform="translate(-44.19 481.96) rotate(-106.57)" style="fill:#fff;stroke:#263238;stroke-linecap:round;stroke-linejoin:round"></rect><rect x="159.41" y="245.62" width="25.72" height="14.97" transform="translate(-21.21 490.39) rotate(-106.57)" style="fill:#263238;stroke:#263238;stroke-linecap:round;stroke-linejoin:round"></rect><rect x="159.41" y="249.79" width="25.72" height="6.62" transform="matrix(-0.29, -0.96, 0.96, -0.29, -21.21, 490.39)" style="fill:#7a7a7a;stroke:#263238;stroke-linecap:round;stroke-linejoin:round"></rect><line x1="208.85" y1="250.44" x2="207.73" y2="246.67" style="fill:none;stroke:#263238;stroke-linecap:round;stroke-linejoin:round"></line><line x1="204.57" y1="251.71" x2="203.45" y2="247.94" style="fill:none;stroke:#263238;stroke-linecap:round;stroke-linejoin:round"></line><line x1="200.3" y1="252.99" x2="199.17" y2="249.21" style="fill:none;stroke:#263238;stroke-linecap:round;stroke-linejoin:round"></line><line x1="196.02" y1="254.26" x2="194.9" y2="250.48" style="fill:none;stroke:#263238;stroke-linecap:round;stroke-linejoin:round"></line><line x1="191.74" y1="255.53" x2="190.62" y2="251.76" style="fill:none;stroke:#263238;stroke-linecap:round;stroke-linejoin:round"></line><line x1="187.47" y1="256.8" x2="186.34" y2="253.03" style="fill:none;stroke:#263238;stroke-linecap:round;stroke-linejoin:round"></line><path d="M152.48,264.48s4.33,2.84,5,3.25a10.85,10.85,0,0,1,2.3,3.65,2,2,0,0,1-.95,1.36,8.63,8.63,0,0,1-2-.14,5.55,5.55,0,0,1-2.43,1.36,6.09,6.09,0,0,1-3.12,0c-1.08-.28-3.79-5-3.79-5Z" style="fill:#fff;stroke:#263238;stroke-linecap:round;stroke-linejoin:round"></path><polyline points="149.37 219.39 142.6 221.83 131.5 253.24 148.15 270.98 153.7 264.75 143.14 249.85 151.67 231.85" style="fill:#fff;stroke:#263238;stroke-linecap:round;stroke-linejoin:round"></polyline><path d="M209.68,255.31s-.22,2.3.08,2.37,1,.15,1.11-.52.54-1.91,0-2.45C209.91,253.75,209.68,255.31,209.68,255.31Z" style="fill:#fff;stroke:#263238;stroke-linecap:round;stroke-linejoin:round"></path><path d="M211.58,254.28s-.27,2.77.09,2.86,1.25.18,1.34-.63.65-2.3,0-2.95C211.84,252.4,211.58,254.28,211.58,254.28Z" style="fill:#fff;stroke:#263238;stroke-linecap:round;stroke-linejoin:round"></path><path d="M213.36,253.74s-.26,2.77.09,2.86,1.25.18,1.34-.62.65-2.3,0-2.95C213.63,251.87,213.36,253.74,213.36,253.74Z" style="fill:#fff;stroke:#263238;stroke-linecap:round;stroke-linejoin:round"></path><path d="M215.24,253.56s-.27,2.77.09,2.86,1.25.18,1.34-.62.65-2.3,0-3C215.51,251.69,215.24,253.56,215.24,253.56Z" style="fill:#fff;stroke:#263238;stroke-linecap:round;stroke-linejoin:round"></path><path d="M181.48,360l6.47,3.72s6.45,1.07,6.81,1.61-.72,2.14-.72,2.14H172.56l1.15-7.47Z" style="fill:#263238;stroke:#263238;stroke-linecap:round;stroke-linejoin:round"></path></g></svg>