<svg xmlns="http://www.w3.org/2000/svg" viewBox="0 0 500 500"><g id="background-simple"><path d="M462.24,143.52c-2.41-18.76-7.11-36.75-17-53.14C427,59.93,394,41.53,360.63,32.2c-28-7.82-58.16-10.08-86.09-2-30.66,8.87-56.39,29.29-84,45.3a437.69,437.69,0,0,1-63.1,29.66c-17.58,6.73-39.92,10.5-54.37,23.28a144.93,144.93,0,0,0-23.35,26.65C22.74,194.4,14,244.62,18.12,291.5c2.91,32.66,11.89,65.71,32,91.58,28.27,36.31,76.8,54.2,122.59,49.69,52-5.12,101.25-36.19,152.93-28.73,25.73,3.71,50.35,16.93,76.23,14.47,25.51-2.42,47.34-20,62.73-40.45,12.34-16.43,20.55-36.3,21.31-57,.83-22.39-9.31-42.81-14.4-64.19C462.66,219.5,467.09,181.27,462.24,143.52Z" style="fill:#92E3A9"></path><path d="M462.24,143.52c-2.41-18.76-7.11-36.75-17-53.14C427,59.93,394,41.53,360.63,32.2c-28-7.82-58.16-10.08-86.09-2-30.66,8.87-56.39,29.29-84,45.3a437.69,437.69,0,0,1-63.1,29.66c-17.58,6.73-39.92,10.5-54.37,23.28a144.93,144.93,0,0,0-23.35,26.65C22.74,194.4,14,244.62,18.12,291.5c2.91,32.66,11.89,65.71,32,91.58,28.27,36.31,76.8,54.2,122.59,49.69,52-5.12,101.25-36.19,152.93-28.73,25.73,3.71,50.35,16.93,76.23,14.47,25.51-2.42,47.34-20,62.73-40.45,12.34-16.43,20.55-36.3,21.31-57,.83-22.39-9.31-42.81-14.4-64.19C462.66,219.5,467.09,181.27,462.24,143.52Z" style="fill:#fff;opacity:0.7000000000000001"></path></g><g id="Plants"><line x1="409.4" y1="228.09" x2="429.67" y2="422.32" style="fill:none;stroke:#263238;stroke-miterlimit:10;stroke-width:2px"></line><line x1="426.4" y1="385.15" x2="417.21" y2="375.44" style="fill:none;stroke:#263238;stroke-miterlimit:10;stroke-width:2px"></line><path d="M420,378.35a10.41,10.41,0,0,0-3.66-7.79c-2.36-2.11-14.77-7.33-16-3C399.12,372.36,411.82,381.69,420,378.35Z" style="fill:#92E3A9;stroke:#263238;stroke-miterlimit:10"></path><line x1="420.01" y1="378.35" x2="408.19" y2="370.99" style="fill:none;stroke:#263238;stroke-miterlimit:10;stroke-width:0.5px"></line><line x1="428.71" y1="407.24" x2="419.52" y2="397.53" style="fill:none;stroke:#263238;stroke-miterlimit:10;stroke-width:2px"></line><path d="M422.31,400.44a10.41,10.41,0,0,0-3.66-7.79c-2.35-2.11-14.77-7.33-15.95-3C401.42,394.45,414.13,403.78,422.31,400.44Z" style="fill:#92E3A9;stroke:#263238;stroke-miterlimit:10"></path><line x1="422.31" y1="400.44" x2="410.49" y2="393.08" style="fill:none;stroke:#263238;stroke-miterlimit:10;stroke-width:0.5px"></line><line x1="420.78" y1="331.25" x2="411.59" y2="321.54" style="fill:none;stroke:#263238;stroke-miterlimit:10;stroke-width:2px"></line><path d="M414.38,324.45a10.42,10.42,0,0,0-3.66-7.8c-2.36-2.1-14.77-7.33-16-2.95C393.49,318.45,406.2,327.79,414.38,324.45Z" style="fill:#92E3A9;stroke:#263238;stroke-miterlimit:10"></path><line x1="414.38" y1="324.45" x2="402.56" y2="317.08" style="fill:none;stroke:#263238;stroke-miterlimit:10;stroke-width:0.5px"></line><line x1="423.08" y1="353.34" x2="413.89" y2="343.63" style="fill:none;stroke:#263238;stroke-miterlimit:10;stroke-width:2px"></line><path d="M416.69,346.54a10.42,10.42,0,0,0-3.66-7.8c-2.36-2.1-14.77-7.33-15.95-2.95C395.8,340.54,408.5,349.88,416.69,346.54Z" style="fill:#92E3A9;stroke:#263238;stroke-miterlimit:10"></path><line x1="416.69" y1="346.54" x2="404.87" y2="339.17" style="fill:none;stroke:#263238;stroke-miterlimit:10;stroke-width:0.5px"></line><line x1="417.03" y1="295.36" x2="407.84" y2="285.66" style="fill:none;stroke:#263238;stroke-miterlimit:10;stroke-width:2px"></line><path d="M410.64,288.56a10.41,10.41,0,0,0-3.66-7.79c-2.36-2.11-14.77-7.33-16-3C389.75,282.57,402.45,291.91,410.64,288.56Z" style="fill:#92E3A9;stroke:#263238;stroke-miterlimit:10"></path><line x1="410.64" y1="288.56" x2="398.82" y2="281.2" style="fill:none;stroke:#263238;stroke-miterlimit:10;stroke-width:0.5px"></line><line x1="413.27" y1="259.32" x2="404.08" y2="249.61" style="fill:none;stroke:#263238;stroke-miterlimit:10;stroke-width:2px"></line><path d="M406.87,252.52a10.37,10.37,0,0,0-3.65-7.79c-2.36-2.11-14.78-7.33-16-3C386,246.53,398.69,255.87,406.87,252.52Z" style="fill:#92E3A9;stroke:#263238;stroke-miterlimit:10"></path><line x1="406.87" y1="252.52" x2="395.06" y2="245.16" style="fill:none;stroke:#263238;stroke-miterlimit:10;stroke-width:0.5px"></line><line x1="424.86" y1="372.08" x2="431.85" y2="360.69" style="fill:none;stroke:#263238;stroke-miterlimit:10;stroke-width:2px"></line><path d="M429.71,364.11a10.42,10.42,0,0,1,2-8.38c1.88-2.55,12.95-10.23,15-6.19C448.92,353.93,438.41,365.69,429.71,364.11Z" style="fill:#92E3A9;stroke:#263238;stroke-miterlimit:10"></path><line x1="429.71" y1="364.11" x2="440.36" y2="353.94" style="fill:none;stroke:#263238;stroke-miterlimit:10;stroke-width:0.5px"></line><line x1="418.79" y1="313.95" x2="425.78" y2="302.55" style="fill:none;stroke:#263238;stroke-miterlimit:10;stroke-width:2px"></line><path d="M423.65,306a10.39,10.39,0,0,1,2-8.39c1.87-2.54,12.94-10.22,15-6.18C442.85,295.8,432.35,307.56,423.65,306Z" style="fill:#92E3A9;stroke:#263238;stroke-miterlimit:10"></path><line x1="423.65" y1="305.98" x2="434.29" y2="295.81" style="fill:none;stroke:#263238;stroke-miterlimit:10;stroke-width:0.5px"></line><line x1="416.13" y1="288.4" x2="423.11" y2="277.01" style="fill:none;stroke:#263238;stroke-miterlimit:10;stroke-width:2px"></line><path d="M421,280.43a10.42,10.42,0,0,1,2-8.38c1.87-2.55,12.94-10.22,15-6.19C440.18,270.25,429.68,282,421,280.43Z" style="fill:#92E3A9;stroke:#263238;stroke-miterlimit:10"></path><line x1="420.98" y1="280.43" x2="431.62" y2="270.26" style="fill:none;stroke:#263238;stroke-miterlimit:10;stroke-width:0.5px"></line><line x1="412.22" y1="250.95" x2="419.21" y2="239.56" style="fill:none;stroke:#263238;stroke-miterlimit:10;stroke-width:2px"></line><path d="M417.07,243a10.42,10.42,0,0,1,2-8.38c1.88-2.55,12.94-10.22,15-6.19C436.28,232.8,425.77,244.56,417.07,243Z" style="fill:#92E3A9;stroke:#263238;stroke-miterlimit:10"></path><line x1="417.07" y1="242.98" x2="427.72" y2="232.81" style="fill:none;stroke:#263238;stroke-miterlimit:10;stroke-width:0.5px"></line><path d="M409.23,227a10.44,10.44,0,0,1,2-8.39c1.87-2.54,12.94-10.22,15-6.18C428.43,216.83,417.93,228.59,409.23,227Z" style="fill:#92E3A9;stroke:#263238;stroke-miterlimit:10"></path><line x1="409.23" y1="227.01" x2="419.87" y2="216.84" style="fill:none;stroke:#263238;stroke-miterlimit:10;stroke-width:0.5px"></line><path d="M409.85,227.45a10.41,10.41,0,0,1-8.13-2.84c-2.34-2.13-8.81-13.94-4.58-15.56C401.74,207.28,412.33,219,409.85,227.45Z" style="fill:#92E3A9;stroke:#263238;stroke-miterlimit:10"></path><line x1="409.85" y1="227.45" x2="400.85" y2="215.8" style="fill:none;stroke:#263238;stroke-miterlimit:10;stroke-width:0.5px"></line><line x1="462.86" y1="254.84" x2="442.71" y2="449.08" style="fill:none;stroke:#263238;stroke-miterlimit:10;stroke-width:2px"></line><line x1="447.16" y1="412.04" x2="440.17" y2="400.64" style="fill:none;stroke:#263238;stroke-miterlimit:10;stroke-width:2px"></line><path d="M442.3,404.07a10.39,10.39,0,0,0-2-8.39c-1.87-2.54-12.95-10.21-15-6.17C423.1,393.9,433.61,405.65,442.3,404.07Z" style="fill:#92E3A9;stroke:#263238;stroke-miterlimit:10"></path><line x1="442.3" y1="404.07" x2="432.26" y2="394.43" style="fill:none;stroke:#263238;stroke-miterlimit:10;stroke-width:0.5px"></line><line x1="452.76" y1="358.13" x2="445.76" y2="346.74" style="fill:none;stroke:#263238;stroke-miterlimit:10;stroke-width:2px"></line><path d="M447.9,350.16a10.4,10.4,0,0,0-2-8.38c-1.87-2.55-12.94-10.22-15-6.18C428.69,340,439.2,351.74,447.9,350.16Z" style="fill:#92E3A9;stroke:#263238;stroke-miterlimit:10"></path><line x1="447.9" y1="350.16" x2="437.85" y2="340.52" style="fill:none;stroke:#263238;stroke-miterlimit:10;stroke-width:0.5px"></line><line x1="450.47" y1="380.22" x2="443.47" y2="368.83" style="fill:none;stroke:#263238;stroke-miterlimit:10;stroke-width:2px"></line><path d="M445.61,372.25a10.4,10.4,0,0,0-2-8.38c-1.87-2.55-12.95-10.22-15-6.18C426.4,362.08,436.91,373.84,445.61,372.25Z" style="fill:#92E3A9;stroke:#263238;stroke-miterlimit:10"></path><line x1="445.61" y1="372.25" x2="435.56" y2="362.61" style="fill:none;stroke:#263238;stroke-miterlimit:10;stroke-width:0.5px"></line><line x1="456.48" y1="322.24" x2="449.49" y2="310.85" style="fill:none;stroke:#263238;stroke-miterlimit:10;stroke-width:2px"></line><path d="M451.62,314.27a10.42,10.42,0,0,0-2-8.38c-1.88-2.55-12.95-10.21-15-6.18C432.41,304.1,442.93,315.86,451.62,314.27Z" style="fill:#92E3A9;stroke:#263238;stroke-miterlimit:10"></path><line x1="451.62" y1="314.27" x2="441.57" y2="304.63" style="fill:none;stroke:#263238;stroke-miterlimit:10;stroke-width:0.5px"></line><line x1="460.22" y1="286.2" x2="453.23" y2="274.81" style="fill:none;stroke:#263238;stroke-miterlimit:10;stroke-width:2px"></line><path d="M455.36,278.23a10.42,10.42,0,0,0-2-8.38c-1.88-2.55-12.95-10.22-15-6.18C436.15,268.06,446.67,279.82,455.36,278.23Z" style="fill:#92E3A9;stroke:#263238;stroke-miterlimit:10"></path><line x1="455.36" y1="278.23" x2="445.31" y2="268.59" style="fill:none;stroke:#263238;stroke-miterlimit:10;stroke-width:0.5px"></line><line x1="448.34" y1="398.93" x2="457.53" y2="389.22" style="fill:none;stroke:#263238;stroke-miterlimit:10;stroke-width:2px"></line><path d="M454.74,392.13a10.39,10.39,0,0,1,3.65-7.8c2.36-2.11,14.77-7.34,15.95-3C475.62,386.12,462.92,395.46,454.74,392.13Z" style="fill:#92E3A9;stroke:#263238;stroke-miterlimit:10"></path><line x1="454.74" y1="392.13" x2="467.25" y2="384.36" style="fill:none;stroke:#263238;stroke-miterlimit:10;stroke-width:0.5px"></line><line x1="454.38" y1="340.79" x2="463.56" y2="331.08" style="fill:none;stroke:#263238;stroke-miterlimit:10;stroke-width:2px"></line><path d="M460.77,334a10.4,10.4,0,0,1,3.65-7.8c2.36-2.1,14.77-7.33,15.95-3C481.66,328,469,337.33,460.77,334Z" style="fill:#92E3A9;stroke:#263238;stroke-miterlimit:10"></path><line x1="460.77" y1="333.99" x2="473.28" y2="326.23" style="fill:none;stroke:#263238;stroke-miterlimit:10;stroke-width:0.5px"></line><line x1="457.03" y1="315.24" x2="466.21" y2="305.53" style="fill:none;stroke:#263238;stroke-miterlimit:10;stroke-width:2px"></line><path d="M463.42,308.44a10.42,10.42,0,0,1,3.65-7.79c2.36-2.11,14.77-7.34,15.95-3C484.31,302.43,471.61,311.78,463.42,308.44Z" style="fill:#92E3A9;stroke:#263238;stroke-miterlimit:10"></path><line x1="463.42" y1="308.44" x2="475.93" y2="300.68" style="fill:none;stroke:#263238;stroke-miterlimit:10;stroke-width:0.5px"></line><line x1="460.91" y1="277.79" x2="470.1" y2="268.08" style="fill:none;stroke:#263238;stroke-miterlimit:10;stroke-width:2px"></line><path d="M467.31,271a10.4,10.4,0,0,1,3.65-7.8c2.36-2.11,14.77-7.34,16-3C488.19,265,475.49,274.33,467.31,271Z" style="fill:#92E3A9;stroke:#263238;stroke-miterlimit:10"></path><line x1="467.31" y1="270.99" x2="479.82" y2="263.23" style="fill:none;stroke:#263238;stroke-miterlimit:10;stroke-width:0.5px"></line><path d="M462.92,253.74a10.37,10.37,0,0,1,3.65-7.79c2.36-2.11,14.77-7.34,15.95-3C483.81,247.74,471.1,257.08,462.92,253.74Z" style="fill:#92E3A9;stroke:#263238;stroke-miterlimit:10"></path><line x1="462.92" y1="253.74" x2="475.43" y2="245.98" style="fill:none;stroke:#263238;stroke-miterlimit:10;stroke-width:0.5px"></line><path d="M463.43,254.3a10.43,10.43,0,0,1-7.37-4.45c-1.85-2.57-5.75-15.46-1.28-16.17C459.65,232.9,467.61,246.51,463.43,254.3Z" style="fill:#92E3A9;stroke:#263238;stroke-miterlimit:10"></path><line x1="463.43" y1="254.3" x2="457.03" y2="241.05" style="fill:none;stroke:#263238;stroke-miterlimit:10;stroke-width:0.5px"></line><line x1="439.77" y1="175.74" x2="439.77" y2="421.38" style="fill:none;stroke:#263238;stroke-miterlimit:10;stroke-width:2px"></line><line x1="439.96" y1="384.44" x2="431.83" y2="373.83" style="fill:none;stroke:#263238;stroke-miterlimit:10;stroke-width:2px"></line><path d="M434.3,377a10.42,10.42,0,0,0-2.82-8.14c-2.13-2.34-13.94-8.82-15.56-4.59C414.15,368.88,425.82,379.49,434.3,377Z" style="fill:#92E3A9;stroke:#263238;stroke-miterlimit:10"></path><line x1="434.3" y1="377.02" x2="423.31" y2="368.47" style="fill:none;stroke:#263238;stroke-miterlimit:10;stroke-width:0.5px"></line><line x1="439.96" y1="338.28" x2="431.83" y2="327.67" style="fill:none;stroke:#263238;stroke-miterlimit:10;stroke-width:2px"></line><path d="M434.3,330.85a10.4,10.4,0,0,0-2.82-8.13c-2.13-2.34-13.94-8.82-15.56-4.59C414.15,322.72,425.82,333.33,434.3,330.85Z" style="fill:#92E3A9;stroke:#263238;stroke-miterlimit:10"></path><line x1="434.3" y1="330.85" x2="423.31" y2="322.3" style="fill:none;stroke:#263238;stroke-miterlimit:10;stroke-width:0.5px"></line><line x1="439.96" y1="284.08" x2="431.83" y2="273.48" style="fill:none;stroke:#263238;stroke-miterlimit:10;stroke-width:2px"></line><path d="M434.3,276.66a10.39,10.39,0,0,0-2.82-8.13c-2.13-2.35-13.94-8.83-15.56-4.6C414.15,268.53,425.82,279.13,434.3,276.66Z" style="fill:#92E3A9;stroke:#263238;stroke-miterlimit:10"></path><line x1="434.3" y1="276.66" x2="423.31" y2="268.11" style="fill:none;stroke:#263238;stroke-miterlimit:10;stroke-width:0.5px"></line><line x1="439.96" y1="248" x2="431.83" y2="237.4" style="fill:none;stroke:#263238;stroke-miterlimit:10;stroke-width:2px"></line><path d="M434.3,240.58a10.4,10.4,0,0,0-2.82-8.13c-2.13-2.34-13.94-8.83-15.56-4.6C414.15,232.45,425.82,243.05,434.3,240.58Z" style="fill:#92E3A9;stroke:#263238;stroke-miterlimit:10"></path><line x1="434.3" y1="240.58" x2="423.31" y2="232.03" style="fill:none;stroke:#263238;stroke-miterlimit:10;stroke-width:0.5px"></line><line x1="439.96" y1="211.77" x2="431.83" y2="201.16" style="fill:none;stroke:#263238;stroke-miterlimit:10;stroke-width:2px"></line><path d="M434.3,204.34a10.4,10.4,0,0,0-2.82-8.13c-2.13-2.34-13.94-8.82-15.56-4.6C414.15,196.21,425.82,206.82,434.3,204.34Z" style="fill:#92E3A9;stroke:#263238;stroke-miterlimit:10"></path><line x1="434.3" y1="204.34" x2="423.31" y2="195.79" style="fill:none;stroke:#263238;stroke-miterlimit:10;stroke-width:0.5px"></line><line x1="439.78" y1="398.54" x2="447.91" y2="387.93" style="fill:none;stroke:#263238;stroke-miterlimit:10;stroke-width:2px"></line><path d="M445.44,391.11a10.39,10.39,0,0,1,2.83-8.13c2.13-2.34,13.93-8.82,15.56-4.6C465.59,383,453.93,393.59,445.44,391.11Z" style="fill:#92E3A9;stroke:#263238;stroke-miterlimit:10"></path><line x1="445.44" y1="391.11" x2="457.08" y2="382.1" style="fill:none;stroke:#263238;stroke-miterlimit:10;stroke-width:0.5px"></line><line x1="439.78" y1="325.12" x2="447.91" y2="314.51" style="fill:none;stroke:#263238;stroke-miterlimit:10;stroke-width:2px"></line><path d="M445.44,317.69a10.39,10.39,0,0,1,2.83-8.13c2.13-2.34,13.93-8.82,15.56-4.59C465.59,309.56,453.93,320.17,445.44,317.69Z" style="fill:#92E3A9;stroke:#263238;stroke-miterlimit:10"></path><line x1="445.44" y1="317.69" x2="457.08" y2="308.68" style="fill:none;stroke:#263238;stroke-miterlimit:10;stroke-width:0.5px"></line><line x1="439.78" y1="288.88" x2="447.91" y2="278.28" style="fill:none;stroke:#263238;stroke-miterlimit:10;stroke-width:2px"></line><path d="M445.44,281.46a10.39,10.39,0,0,1,2.83-8.13c2.13-2.34,13.93-8.83,15.56-4.6C465.59,273.33,453.93,283.93,445.44,281.46Z" style="fill:#92E3A9;stroke:#263238;stroke-miterlimit:10"></path><line x1="445.44" y1="281.46" x2="457.08" y2="272.45" style="fill:none;stroke:#263238;stroke-miterlimit:10;stroke-width:0.5px"></line><line x1="439.78" y1="240.99" x2="447.91" y2="230.38" style="fill:none;stroke:#263238;stroke-miterlimit:10;stroke-width:2px"></line><path d="M445.44,233.56a10.39,10.39,0,0,1,2.83-8.13c2.13-2.34,13.93-8.82,15.56-4.6C465.59,225.43,453.93,236,445.44,233.56Z" style="fill:#92E3A9;stroke:#263238;stroke-miterlimit:10"></path><line x1="445.44" y1="233.56" x2="457.08" y2="224.55" style="fill:none;stroke:#263238;stroke-miterlimit:10;stroke-width:0.5px"></line><line x1="439.78" y1="203.33" x2="447.91" y2="192.73" style="fill:none;stroke:#263238;stroke-miterlimit:10;stroke-width:2px"></line><path d="M445.44,195.91a10.39,10.39,0,0,1,2.83-8.13c2.13-2.34,13.93-8.83,15.56-4.6C465.59,187.78,453.93,198.38,445.44,195.91Z" style="fill:#92E3A9;stroke:#263238;stroke-miterlimit:10"></path><line x1="445.44" y1="195.91" x2="457.08" y2="186.9" style="fill:none;stroke:#263238;stroke-miterlimit:10;stroke-width:0.5px"></line><path d="M439.3,179.21a10.4,10.4,0,0,1,2.82-8.13c2.13-2.34,13.94-8.83,15.56-4.6C459.45,171.08,447.78,181.68,439.3,179.21Z" style="fill:#92E3A9;stroke:#263238;stroke-miterlimit:10"></path><line x1="439.3" y1="179.21" x2="450.94" y2="170.2" style="fill:none;stroke:#263238;stroke-miterlimit:10;stroke-width:0.5px"></line><path d="M439.86,179.71a10.4,10.4,0,0,1-7.79-3.67c-2.1-2.36-7.31-14.78-2.94-15.95C433.89,158.81,443.21,171.53,439.86,179.71Z" style="fill:#92E3A9;stroke:#263238;stroke-miterlimit:10"></path><line x1="439.86" y1="179.71" x2="432.12" y2="167.19" style="fill:none;stroke:#263238;stroke-miterlimit:10;stroke-width:0.5px"></line><polygon points="450.96 463 453.12 419.38 420.61 419.38 422.76 463 450.96 463" style="fill:#263238;stroke:#263238;stroke-miterlimit:10"></polygon></g><g id="picture-2"><rect x="117.11" y="80.77" width="92.6" height="128.52" style="fill:none;stroke:#263238;stroke-linecap:round;stroke-linejoin:round"></rect><rect x="120.07" y="84.87" width="86.69" height="120.32" style="fill:none;stroke:#263238;stroke-linecap:round;stroke-linejoin:round"></rect><rect x="147.65" y="123.16" width="31.53" height="43.75" style="fill:none;stroke:#263238;stroke-linecap:round;stroke-linejoin:round"></rect></g><g id="picture-1"><polyline points="357.81 274.37 227.35 274.37 227.35 66.69 388.87 66.69 388.87 274.37 366.29 274.37" style="fill:none;stroke:#263238;stroke-miterlimit:10"></polyline><rect x="233.21" y="74.22" width="149.8" height="192.62" style="fill:none;stroke:#263238;stroke-miterlimit:10"></rect><path d="M263.22,127a70.8,70.8,0,0,0,8.49,6.72c33.89,23,91.37,12.11,110.73,44.78" style="fill:none;stroke:#263238;stroke-miterlimit:10"></path><path d="M243.27,75A62.6,62.6,0,0,0,259,122.7" style="fill:none;stroke:#263238;stroke-miterlimit:10"></path><path d="M256.11,181.12c16.53-8.73,37.93-14.93,48.88,2.81,12.71,20.57-46,56.87-46,82.89" style="fill:none;stroke:#263238;stroke-miterlimit:10"></path><path d="M233.59,196a144.73,144.73,0,0,1,17.95-12.37" style="fill:none;stroke:#263238;stroke-miterlimit:10"></path><path d="M311.65,75s21.78,33.89,71.4,24.81" style="fill:none;stroke:#263238;stroke-miterlimit:10"></path><path d="M318.16,108.29a21.4,21.4,0,0,1,.14,2.42,20,20,0,1,1-2.31-9.33" style="fill:none;stroke:#263238;stroke-miterlimit:10"></path><circle cx="358.54" cy="137.64" r="9.38" transform="translate(141.91 454.76) rotate(-76.66)" style="fill:none;stroke:#263238;stroke-miterlimit:10"></circle><path d="M368,200.91a38.67,38.67,0,0,1,14.46,7.29" style="fill:none;stroke:#263238;stroke-miterlimit:10"></path><path d="M332.1,267a38.72,38.72,0,0,1,26.14-67.29c.75,0,1.49,0,2.23.06" style="fill:none;stroke:#263238;stroke-miterlimit:10"></path></g><g id="Characters"><path d="M149,322.08l20.93,27s4.19,6.51,10.23,6.51,14.42-9.76,11.63-18.13-40-79.53-40-79.53l-3.25,47.9Z" style="fill:#263238;stroke:#263238;stroke-linejoin:round"></path><path d="M160.17,293.71l13-4.19s25.11,49.77,25.11,55.81-12.09,12.09-16.74,12.09-9.3-3.72-11.63-8.37S160.17,293.71,160.17,293.71Z" style="fill:#263238;stroke:#263238;stroke-linejoin:round"></path><path d="M281.1,347.19l-30.23,1.4a28.08,28.08,0,0,1-8.84-8.37c-3.72-5.58-13-8.37-13-8.37l-3.72,1.39-9.77,26.05s8.37,2.79,14.88,4.65,17.21,2.32,17.21,2.32l37.21,6.05Z" style="fill:#fff;stroke:#263238;stroke-linejoin:round"></path><polyline points="228.08 355.56 234.12 353.7 240.63 355.1" style="fill:none;stroke:#263238;stroke-linejoin:round"></polyline><polygon points="201.56 325.02 201.56 370.88 233.13 349.95 231.8 310.07 201.56 325.02" style="fill:#92E3A9;stroke:#263238;stroke-linejoin:round"></polygon><path d="M210.39,329.53c0,1.89-1.1,3.42-2.46,3.42s-2.47-1.53-2.47-3.42,1.11-3.41,2.47-3.41S210.39,327.65,210.39,329.53Zm16.67-12.12c-1.36,0-2.46,1.53-2.46,3.41s1.1,3.41,2.46,3.41,2.47-1.53,2.47-3.41S228.42,317.41,227.06,317.41ZM207.93,340.9c-1.36,0-2.47,1.53-2.47,3.41s1.11,3.41,2.47,3.41,2.46-1.52,2.46-3.41S209.29,340.9,207.93,340.9Zm19.13-8.71c-1.36,0-2.46,1.52-2.46,3.41s1.1,3.41,2.46,3.41,2.47-1.53,2.47-3.41S228.42,332.19,227.06,332.19Zm-7.39-4.55c-1.36,0-2.46,1.53-2.46,3.41s1.1,3.41,2.46,3.41,2.47-1.53,2.47-3.41S221,327.64,219.67,327.64Zm0,17.81c-1.36,0-2.46,1.53-2.46,3.41s1.1,3.41,2.46,3.41,2.47-1.53,2.47-3.41S221,345.45,219.67,345.45Z" style="fill:#fff"></path><polygon points="155.03 317.05 183.28 306.41 231.8 310.07 201.56 325.02 155.03 317.05" style="fill:#858585;stroke:#263238;stroke-linejoin:round"></polygon><polygon points="156.03 299.44 201.56 325.02 204.88 316.72 158.02 290.13 156.03 299.44" style="fill:#92E3A9"></polygon><polygon points="156.03 299.44 201.56 325.02 204.88 316.72 158.02 290.13 156.03 299.44" style="opacity:0.1"></polygon><polygon points="156.03 299.44 201.56 325.02 204.88 316.72 158.02 290.13 156.03 299.44" style="fill:none;stroke:#263238;stroke-linejoin:round"></polygon><polygon points="204.88 316.72 236.78 299.44 231.8 310.07 201.56 325.02 204.88 316.72" style="fill:#92E3A9;stroke:#263238;stroke-linejoin:round"></polygon><polygon points="236.78 299.44 191.92 271.52 158.02 290.13 204.88 316.72 236.78 299.44" style="fill:#92E3A9;stroke:#263238;stroke-linejoin:round"></polygon><polygon points="201.56 325.02 155.03 317.05 155.03 360.25 201.56 370.88 201.56 325.02" style="fill:#92E3A9"></polygon><path d="M163.32,325.25c.47,1.93-.38,3.8-1.9,4.18s-3.14-.88-3.62-2.81.37-3.8,1.9-4.18S162.84,323.32,163.32,325.25Zm12.86,0c-1.52.38-2.37,2.25-1.9,4.18s2.1,3.19,3.62,2.81,2.38-2.24,1.9-4.17S177.7,324.91,176.18,325.28Zm17,2.65c-1.52.38-2.37,2.25-1.89,4.18s2.09,3.19,3.62,2.81,2.37-2.24,1.89-4.17S194.76,327.56,193.23,327.93ZM159.7,344.42c-1.53.37-2.38,2.24-1.9,4.17s2.1,3.19,3.62,2.82,2.37-2.25,1.9-4.18S161.22,344,159.7,344.42Zm16.48,2.84c-1.52.38-2.37,2.25-1.9,4.18s2.1,3.19,3.62,2.81,2.38-2.24,1.9-4.18S177.7,346.88,176.18,347.26Zm-9.09-14c-1.53.37-2.38,2.24-1.9,4.17s2.1,3.2,3.62,2.82,2.37-2.25,1.9-4.18S168.61,332.86,167.09,333.24Zm19.7,4.55c-1.52.37-2.37,2.24-1.9,4.17s2.1,3.19,3.62,2.82,2.38-2.25,1.9-4.18S188.31,337.41,186.79,337.79Zm-19.7,13.64c-1.53.37-2.38,2.24-1.9,4.17s2.1,3.19,3.62,2.82,2.37-2.25,1.9-4.18S168.61,351.05,167.09,351.43Zm19.7,4.55c-1.52.37-2.37,2.24-1.9,4.17s2.1,3.19,3.62,2.82,2.38-2.25,1.9-4.18S188.31,355.6,186.79,356Z" style="fill:#fff"></path><polygon points="201.56 325.02 155.03 317.05 155.03 360.25 201.56 370.88 201.56 325.02" style="opacity:0.1"></polygon><polygon points="201.56 325.02 155.03 317.05 155.03 360.25 201.56 370.88 201.56 325.02" style="fill:none;stroke:#263238;stroke-linejoin:round"></polygon><path d="M91.63,136.89S63.37,163,59.89,183.4s7,35.65,7,39.13-22.61,5.22-25.22,15.65,2.17,13.91,2.17,13.91-10.43,1.31-10.43,6.09,6.09,12.61,6.09,12.61l83.47-12.61s7.82-3.48,10.43-10,1.74-20,3-23.48,14.78-6.08,26.52-14.78,10-39.12,2.18-51.73-35.22-18.26-42.17-20S103.36,129.93,91.63,136.89Z" style="fill:#858585;stroke:#263238;stroke-linejoin:round"></path><path d="M167.08,198.74a6.86,6.86,0,0,1-1,5.18" style="fill:none;stroke:#263238;stroke-linejoin:round"></path><path d="M123.88,170.44l-17.82-28.69s15.21,13.91,32.16,23.48c11.94,6.73,23.66,19.5,27.58,29.05" style="fill:none;stroke:#263238;stroke-linejoin:round"></path><path d="M151.27,199.14s10.86,5.65,8.69,8.69-9.56-3.48-9.13-4.78" style="fill:none;stroke:#263238;stroke-linejoin:round"></path><path d="M101,180.17a20.31,20.31,0,0,1-10.17.27" style="fill:none;stroke:#263238;stroke-linejoin:round"></path><path d="M98.66,140.45s13.48,21.73,9.57,32.6a11.49,11.49,0,0,1-3.06,4.72" style="fill:none;stroke:#263238;stroke-linejoin:round"></path><path d="M52.53,250.77c-3.09,1.82-3.42,3.14-3.42,3.14" style="fill:none;stroke:#263238;stroke-linejoin:round"></path><path d="M84.92,182.32S68.67,193.48,66.5,205.66s5.65,12.6,10.86,23.47-3,14.35-15.21,17.82a57.61,57.61,0,0,0-5.9,2" style="fill:none;stroke:#263238;stroke-linejoin:round"></path><path d="M23,463H170.29c-.65-8-4.08-48.91-8.26-74.41-4.65-28.37-8.37-47-8.37-47s3.26-63.72,2.79-70.23-2.79-14.41-8.37-15.81-31.16-7.44-31.16-7.44l-4.65-2.33s-7.44-22.32-11.63-28.83-9-15.09-10.1-12c0,0-2,19.4-3.85,29.63s-13,13-23.25,17.68-32.1,10.23-34.89,13.48S51.81,374.17,52.27,376.49C52.7,378.64,26.9,452,23,463Z" style="fill:#263238;stroke:#263238;stroke-linejoin:round"></path><path d="M168.82,285.76l.24-29-1.45-5.05s-4-8.29-6.85-10.46-20.9-1.8-20.9,1.09,5.76,1.44,5.76,1.44h7.21l5.77,3.6s-8.29-.72-13.7,0-7.21,2.89-4,3.25S151,251,151,251l7.21,2.88s-9.64-1.18-10.83-1.18-5.39,2-6,2.39-.2,1.8,1.6,1.8,7.78-.6,7.78-.6l8.84,2.43.34,1.16s-7.85-.59-10.73-.59-7.93.72-6.49,2.52,7.93,1.81,9.37,1.81,6.85,5,6.85,5-2.18,10.45-.74,15.14,3.25,5.05,3.25,5.05l2.16,19.1,14.42-5.4Z" style="fill:#fff;stroke:#263238;stroke-linejoin:round"></path><path d="M93.68,463H142.8c-.52-17.45-2.49-68.86-8.21-102.78-3.31-19.65-.65-41.29-4.65-64.65-3.22-18.83-13.33-40.81-14.6-48.23l-3.07-1.54s-7.44-22.32-11.63-28.83-9-15.09-10.1-12c0,0-2,19.4-3.85,29.63-1,5.54-4.74,8.89-9.57,11.55,3.54,18.93,14.38,78.7,17.48,115.89C97.6,398.06,94.85,445.82,93.68,463Z" style="fill:#92E3A9;stroke:#263238;stroke-linejoin:round"></path><path d="M132.84,351.59s-22.24,59.45-31.31,79" style="fill:none;stroke:#263238;stroke-linejoin:round"></path><path d="M102.75,435.93c-.73,1.29-1.45,2.53-2.13,3.71" style="fill:none;stroke:#263238;stroke-linejoin:round"></path><path d="M121.5,401.51s-8.8,16.65-16.46,30.35" style="fill:none;stroke:#263238;stroke-linejoin:round"></path><path d="M101.11,264.87a29.56,29.56,0,0,0,16.18-6.14c-.82-4.77-1.49-8.67-2-11.39l-3.07-1.54s-7.44-22.32-11.63-28.83-9-15.09-10.1-12c0,0-2,19.4-3.85,29.63-1,5.54-4.74,8.89-9.57,11.55.5,2.7,1.16,6.23,1.91,10.41A30,30,0,0,0,101.11,264.87Z" style="fill:#fff;stroke:#263238;stroke-linejoin:round"></path><path d="M115.34,247.34l-3.07-1.54s-7.39-22.18-11.59-28.77L95.3,227.89s4.8,14.36,13.4,22.6c3.32,3.19,6.19,5.68,8.47,7.55Z" style="fill:#263238;stroke:#263238;stroke-linejoin:round"></path><path d="M127.1,170.53s-5.35,11.89-20.51,15.75-12.78,2.38-12.78,2.38-1.78-.3-3.86-3.27-3.57-8.92-6.24-4.46-4.17,13.67-1.49,19.62A7.23,7.23,0,0,0,90.54,205s1.79,18.13,4.76,22.88,10.1,19.32,17.83,20.51,20.21-13.08,24.67-18.13,14.86-31.51,14.86-31.51S134.23,185.09,127.1,170.53Z" style="fill:#fff;stroke:#263238;stroke-linejoin:round"></path><path d="M125.45,233s-5.61.47-9.58-1.17A12.37,12.37,0,0,1,110,226" style="fill:none;stroke:#263238;stroke-linejoin:round"></path><line x1="112.37" y1="225.99" x2="108.17" y2="226.69" style="fill:none;stroke:#263238;stroke-linejoin:round"></line><path d="M112.37,229.72s-.23,6.54,3,8.41,6.77-4.91,6.77-4.91A22.06,22.06,0,0,1,112.37,229.72Z" style="fill:#263238;stroke:#263238;stroke-linejoin:round"></path><path d="M128.29,221.65l-.3,3.57a8.36,8.36,0,0,1-8.32-.89" style="fill:none;stroke:#263238;stroke-linejoin:round"></path><circle cx="117.59" cy="205.01" r="2.08" style="fill:#263238"></circle><circle cx="140.77" cy="210.36" r="2.08" style="fill:#263238"></circle><path d="M109.56,194.9s5.65-5.35,14,0" style="fill:none;stroke:#263238;stroke-linejoin:round"></path><path d="M147.91,201.74c-5.35-6.54-10.41-2.68-10.41-2.68a19,19,0,0,0-6.24,11" style="fill:none;stroke:#263238;stroke-linejoin:round"></path><path d="M118.53,320l21.65-10.93,15.34-20.93s13.49-7.91,18.61-8.37c0,0,4.64-1.5,5.52-.63s1,1.75-1.57,2.62-9.26,4-9.26,4l-1.74,1.4s9.77-2.27,12.92-2.27,7.68-1.4,7.85,0-2.62,3-4.36,3.14a72.18,72.18,0,0,0-10.65,3L168,294s11.87-.87,14.14-1.22,5.94-1.22,5.76.35-3.84,1.92-6.11,2.79S169,298.16,169,298.16l-2.27,1H176c3.32,0,8.73.17,8,1.57s-9.43,1.75-11,1.75-7.86,1.22-7.86,1.22-7.5,7-11.34,9.95a24.59,24.59,0,0,1-8.56,4L123.77,338.5Z" style="fill:#fff;stroke:#263238;stroke-linejoin:round"></path><path d="M28.55,265.8s-3.72,55.35-3.72,78.14a244.45,244.45,0,0,0,3.72,41.86s.47,2.32,10.7.93,95.29-51.87,95.29-51.87l-7.91-19.53L57.39,341.61l6-53.95" style="fill:#263238;stroke:#263238;stroke-linejoin:round"></path><polyline points="62 307.04 57.39 341.61 89.25 330.3" style="fill:none;stroke:#757575;stroke-linejoin:round"></polyline><path d="M60.28,317.75s11.1-13,11.1-22.69" style="fill:none;stroke:#757575;stroke-linejoin:round"></path><path d="M60.28,320.65s7.73-4.83,11.1-10.14" style="fill:none;stroke:#757575;stroke-linejoin:round"></path><line x1="63.66" y1="294.58" x2="62.84" y2="300.74" style="fill:none;stroke:#757575;stroke-linejoin:round"></line><line x1="52.56" y1="380.51" x2="92.14" y2="360.23" style="fill:none;stroke:#757575;stroke-linejoin:round"></line><path d="M303.91,154.87s-7,12.3-6,17.62,2,12.63,1.33,15.95-11.63,8.64-9.3,12.29,4,4.33,4,4.33,3,13.62,4.66,18.94,4,8,7.31,8,10.63-2,10.63-2l6.32,16.28L365.73,236s-4-17.61-3.66-20.6,22.6-27.25,22.27-42.87-5.32-26.26-16.29-31.91-18.94-6.31-18.94-6.31,2-3.66-3-5.32-17.61-.33-17.61-.33,1.66-7.31-4.66-6-15.62,13.62-15.62,13.62-8.64-13.62-15.28-6.64S293,153.88,303.91,154.87Z" style="fill:#fff;stroke:#263238;stroke-linejoin:round"></path><path d="M315,228.21a37.2,37.2,0,0,1-5.76,2.31l-4.26,1.36a5.18,5.18,0,0,0,1,.09c3.32,0,10.63-2,10.63-2l1.2,3.08,9.12-13.68S318,226.68,315,228.21Z" style="fill:#263238;stroke:#263238;stroke-linejoin:round"></path><path d="M300.59,176.81s1.66-4.65,7.64-.67" style="fill:none;stroke:#263238;stroke-linecap:round;stroke-linejoin:round;stroke-width:2px"></path><path d="M297.6,208.38s6.31,1,8.64-6.32" style="fill:none;stroke:#263238;stroke-linejoin:round"></path><path d="M303.91,186.78c0,1.83-.37,3.32-.83,3.32s-.83-1.49-.83-3.32.37-3.33.83-3.33S303.91,184.94,303.91,186.78Z" style="fill:#263238"></path><path d="M384.34,172.49c-.34-15.62-5.32-26.26-16.29-31.91s-18.94-6.31-18.94-6.31,2-3.66-3-5.32-17.61-.33-17.61-.33,1.66-7.31-4.66-6-15.62,13.62-15.62,13.62-8.64-13.62-15.28-6.64,0,24.26,11,25.25a78.92,78.92,0,0,1,11-1.33c6.31-.33,6,2.33,3,7.65s-4,8.64,3.66,11.63,7,8.64,7.31,10.3,3,2.66,4.65,1,9.64-8,13-1.66.67,17.94-3.65,21.6-7.32,4.32-7.32,4.32,13.3,8.64,17.95,10c1.9.54,5.3-.41,8.66-1.73a7.85,7.85,0,0,1,0-1.26C362.4,212.37,384.67,188.11,384.34,172.49Z" style="fill:#263238;stroke:#263238;stroke-linejoin:round"></path><path d="M400.16,267.66s2.79,45.12,2.32,59.07-2.32,30.69-1.86,34.42-7,5.58-10.69,6.51-22.79,3.25-22.79,3.25l5.11-40.46Z" style="fill:#92E3A9;stroke:#263238;stroke-linejoin:round"></path><path d="M377.73,463c-.2-5.73-.72-17.79-1.76-26-1.39-11.17-2.79-18.61-2.79-18.61l-7,.47s-93.48,7-93.48,9.3c0,1.77-.54,24.2-.8,34.88Z" style="fill:#263238;stroke:#263238;stroke-linejoin:round"></path><path d="M322,449.05c32.76-4.37,48.7-14.89,53.22-17.69-1.11-8-2.06-13-2.06-13l-7,.47s-93.48,7-93.48,9.3c0,.9-.14,7.13-.31,14.45A97.52,97.52,0,0,0,322,449.05Z" style="fill:#92E3A9;stroke:#263238;stroke-linejoin:round"></path><path d="M366.21,231.39s-33,5.11-41.86,10.23-7.44,10.7-12.56,14.88-31.16,17.67-32.55,28.84-4.19,86-5.12,94.41-9.77,39.07-6.05,45.11,15.82,17.68,48.84,15.82,52.09-15.35,55.34-16.75,6.05-4.65,5.59-12.55.46-44.19.93-49.3,14-58.61,18.6-75.35,5.11-18.6-3.26-29.3S366.21,231.39,366.21,231.39Z" style="fill:#92E3A9;stroke:#263238;stroke-linejoin:round"></path><path d="M354.58,241.62a131.32,131.32,0,0,1,20.57-2.85c-5-4.33-8.94-7.38-8.94-7.38s-33,5.11-41.86,10.23c-6.6,3.82-7.49,7.89-9.65,11.46C325.81,249.63,344.08,244.09,354.58,241.62Z" style="fill:#92E3A9;stroke:#263238;stroke-linejoin:round"></path><path d="M337.2,309a45.67,45.67,0,0,0,1.1-4.63" style="fill:none;stroke:#263238;stroke-linejoin:round"></path><path d="M323.42,336a105.13,105.13,0,0,0,12.2-22.29" style="fill:none;stroke:#263238;stroke-linejoin:round"></path><path d="M368.32,324.71c-6.54,12.34-16,28.3-25.83,37.83" style="fill:none;stroke:#263238;stroke-linejoin:round"></path><path d="M373.46,314.57c-.72,1.48-1.54,3.13-2.44,4.93" style="fill:none;stroke:#263238;stroke-linejoin:round"></path><path d="M376.91,307.2s-.65,1.47-1.82,4" style="fill:none;stroke:#263238;stroke-linejoin:round"></path><path d="M335.84,372.68c-2.09,1.84-4.22,3.6-6.37,5.21" style="fill:none;stroke:#263238;stroke-linejoin:round"></path><path d="M362,343.94a219.52,219.52,0,0,1-22.95,25.8" style="fill:none;stroke:#263238;stroke-linejoin:round"></path><path d="M292.72,283s-13,21.86-13.48,34.42S273.66,363,273.66,363s-3.73,1.86-3.73,4.65v2.79s-17.2,1.86-25.11,1.86-27.44-6.51-27.44-6.51l-6-4.65s-4.18-6-7.44-9.77-15.35-4.65-17.67-6.51-7-.47-5.58,3.72,11.16,5.11,11.16,5.11l1.4,3.26s-18.14,1.86-22.79,2.79-4.19,8.37-1.4,8.37h7s5.11,11.63,12.55,14.88,27,3.73,27,3.73,38.14,8.83,54,12.55,28.84,3.26,31.63.47,26.51-72.09,29.3-100.93" style="fill:#92E3A9;stroke:#263238;stroke-linejoin:round"></path><path d="M277.52,382.67a16.4,16.4,0,0,0,3.11,1.26" style="fill:none;stroke:#263238;stroke-linejoin:round"></path><path d="M270.4,373.24a12.8,12.8,0,0,0,3.3,6.53" style="fill:none;stroke:#263238;stroke-linejoin:round"></path><path d="M268.07,372.77s-1.39,12.56,9.77,18.61" style="fill:none;stroke:#263238;stroke-linejoin:round"></path><path d="M243.8,372.27c-8.45-.48-26.42-6.47-26.42-6.47l-6-4.65s-4.18-6-7.44-9.77-15.35-4.65-17.67-6.51-7-.47-5.58,3.72,11.16,5.11,11.16,5.11l1.4,3.26s-18.14,1.86-22.79,2.79-4.19,8.37-1.4,8.37h7s5.11,11.63,12.55,14.88,27,3.73,27,3.73l22.37,5.19C235.18,382.5,239.91,375.89,243.8,372.27Z" style="fill:#fff;stroke:#263238;stroke-linejoin:round"></path><path d="M196.85,352.73c.48,1.93-.37,3.8-1.89,4.17s-3.15-.88-3.62-2.81.37-3.8,1.89-4.18S196.38,350.8,196.85,352.73Z" style="fill:#fff"></path><line x1="6" y1="463" x2="486" y2="463" style="fill:none;stroke:#263238;stroke-linecap:round;stroke-linejoin:round"></line></g><g id="speech-bubble"><path d="M92.6,104.94a29.81,29.81,0,1,0-20.12,28.18l5.67,8.24V130.49A29.82,29.82,0,0,0,92.6,104.94Z" style="fill:#fff;stroke:#263238;stroke-linejoin:round"></path><path d="M58,120.35a6.16,6.16,0,1,1,10.67,4.32,5.92,5.92,0,0,1-4.51,1.7,5.74,5.74,0,0,1-6.16-6Zm11.8-32.3c0,1,0,2.4-.07,4.26s-.13,3.87-.25,6-.3,4.32-.52,6.48-.47,4-.77,5.6a3,3,0,0,1-.77.39,8.51,8.51,0,0,1-1.08.32,11.67,11.67,0,0,1-1.16.19,10,10,0,0,1-1,.06,7.48,7.48,0,0,1-3.11-.57,2.85,2.85,0,0,1-1.57-2.25,33.88,33.88,0,0,1-.55-4.48q-.23-3-.41-6.54t-.29-7c-.07-2.31-.1-4.28-.1-5.9a12.58,12.58,0,0,1,2.92-1.12,13,13,0,0,1,3.23-.42,6.12,6.12,0,0,1,4.07,1.22A4.57,4.57,0,0,1,69.8,88.05Z" style="fill:#263238"></path></g></svg>