<svg xmlns="http://www.w3.org/2000/svg" viewBox="0 0 500 500"><g id="background-simple"><path d="M324.18,40.36S251.45,14.49,180.05,55.67,72.62,178.59,41.69,244.06,28.56,376.14,83.06,406.51s91.56-14.4,168-16.58,97,8.75,160.47-34.44,74.92-145.2,24.87-220.68S324.18,40.36,324.18,40.36Z" style="fill:#92E3A9"></path><path d="M324.18,40.36S251.45,14.49,180.05,55.67,72.62,178.59,41.69,244.06,28.56,376.14,83.06,406.51s91.56-14.4,168-16.58,97,8.75,160.47-34.44,74.92-145.2,24.87-220.68S324.18,40.36,324.18,40.36Z" style="fill:#fff;opacity:0.7000000000000001"></path></g><g id="bullet-holes"><path d="M432.34,163.65l1.34-4.31,1.35,4,2.16-.81s-1.08,1.62.53,1.89a18,18,0,0,0,4.58-.27s-2.42,3.5-.81,4.31,3.51,1.88,3.51,1.88l-1.89.54s3,1.08,1.89,1.62a11.6,11.6,0,0,1-2.43.8l2.43,4.31-4-.54-.27,4.31s-1.35-3.5-2.16-1.88a14.17,14.17,0,0,0-.81,4.85l-3.5-4.85-2.42,4v-3l-1.35.54-1.88-1.88-2.43,1.08.27-3.24-3.5-.27a10.83,10.83,0,0,0,.81-2.69c0-.81-1.62-2.42-1.62-2.42h4l-1.88-3.23h1.88l-.27-3s2.16.54,2.16-.8a18.9,18.9,0,0,0-.54-3.51l2.42,2.16,1.08-1.62Z" style="fill:#8c8c8c"></path><path d="M429.91,167.42s-2.15,1.08-2.42,3-.81,4.31.27,5.12a17.55,17.55,0,0,0,3.5,2.15c.81.27,1.89,1.08,3,.81s1.35,0,2.7-1.62,3-2.15,3-3.23-.81-5.92-1.89-7S431,166.34,429.91,167.42Z" style="fill:#263238"></path><path d="M353.37,119.76l.94-3,.95,2.83,1.51-.57s-.76,1.13.37,1.32a12.54,12.54,0,0,0,3.21-.19s-1.7,2.46-.56,3,2.45,1.33,2.45,1.33l-1.32.37s2.08.76,1.32,1.14a8.07,8.07,0,0,1-1.7.56l1.7,3-2.83-.37-.19,3s-.94-2.46-1.51-1.33a9.94,9.94,0,0,0-.57,3.4l-2.45-3.4-1.7,2.84v-2.08l-.94.38-1.32-1.32-1.7.75.19-2.26-2.46-.19a7.59,7.59,0,0,0,.57-1.89c0-.57-1.14-1.7-1.14-1.7H349l-1.33-2.27H349l-.19-2.07s1.51.38,1.51-.57a13.13,13.13,0,0,0-.38-2.45l1.7,1.51.75-1.13Z" style="fill:#8c8c8c"></path><path d="M351.67,122.4a3.27,3.27,0,0,0-1.7,2.08c-.19,1.32-.57,3,.19,3.58a12.27,12.27,0,0,0,2.45,1.51c.57.19,1.32.76,2.08.57a2.33,2.33,0,0,0,1.89-1.13c.94-1.14,2.07-1.51,2.07-2.27s-.56-4.15-1.32-4.91S352.42,121.64,351.67,122.4Z" style="fill:#263238"></path><path d="M343.14,253.13l.94-3,.95,2.83,1.51-.57s-.76,1.13.38,1.32a12.49,12.49,0,0,0,3.2-.19s-1.69,2.46-.56,3,2.45,1.32,2.45,1.32l-1.32.37s2.08.76,1.32,1.14a8.07,8.07,0,0,1-1.7.56l1.7,3-2.83-.37-.19,3s-.94-2.46-1.51-1.32a10,10,0,0,0-.56,3.39l-2.46-3.39-1.7,2.83V265l-.94.38-1.32-1.32-1.7.75.19-2.26-2.46-.19a7.59,7.59,0,0,0,.57-1.89c0-.57-1.13-1.7-1.13-1.7h2.83l-1.32-2.26h1.32l-.19-2.08s1.51.38,1.51-.57a13.13,13.13,0,0,0-.38-2.45l1.7,1.51.76-1.13Z" style="fill:#8c8c8c"></path><path d="M341.44,255.77a3.3,3.3,0,0,0-1.7,2.08c-.19,1.32-.56,3,.19,3.58a12.56,12.56,0,0,0,2.45,1.51c.57.19,1.33.76,2.08.57a2.3,2.3,0,0,0,1.89-1.13c.94-1.14,2.08-1.51,2.08-2.27s-.57-4.15-1.33-4.91S342.2,255,341.44,255.77Z" style="fill:#263238"></path><path d="M118,324.18l.94-3,.94,2.83,1.51-.57s-.75,1.14.38,1.33a12.58,12.58,0,0,0,3.21-.19s-1.7,2.45-.57,3,2.46,1.32,2.46,1.32l-1.32.38s2.07.75,1.32,1.13a7.94,7.94,0,0,1-1.7.57l1.7,3-2.83-.38-.19,3s-1-2.45-1.51-1.32a9.91,9.91,0,0,0-.57,3.4l-2.45-3.4-1.7,2.83v-2.08l-1,.38-1.32-1.32-1.7.75.19-2.26-2.45-.19a7.69,7.69,0,0,0,.56-1.89c0-.56-1.13-1.7-1.13-1.7h2.83l-1.32-2.26h1.32l-.19-2.08s1.51.38,1.51-.56a13.46,13.46,0,0,0-.37-2.46l1.7,1.51.75-1.13Z" style="fill:#8c8c8c"></path><path d="M116.29,326.82a3.3,3.3,0,0,0-1.7,2.08c-.19,1.32-.57,3,.19,3.59a12.46,12.46,0,0,0,2.45,1.51c.57.19,1.32.75,2.08.56a2.3,2.3,0,0,0,1.88-1.13c1-1.13,2.08-1.51,2.08-2.27s-.57-4.15-1.32-4.9S117,326.07,116.29,326.82Z" style="fill:#263238"></path><path d="M53.56,269.53l.94-3,1,2.83,1.51-.57s-.76,1.14.37,1.32a12.7,12.7,0,0,0,3.21-.18s-1.69,2.45-.56,3,2.45,1.32,2.45,1.32l-1.32.38s2.08.75,1.32,1.13a7.46,7.46,0,0,1-1.7.56l1.7,3L59.6,279l-.19,3s-.94-2.46-1.51-1.32a9.86,9.86,0,0,0-.57,3.39l-2.45-3.39-1.7,2.83v-2.08l-.94.38-1.32-1.32-1.7.75.19-2.26L47,278.78a7.59,7.59,0,0,0,.57-1.89c0-.57-1.13-1.7-1.13-1.7h2.83l-1.32-2.26h1.32L49,270.85s1.51.38,1.51-.57a13.13,13.13,0,0,0-.38-2.45l1.7,1.51.76-1.13Z" style="fill:#8c8c8c"></path><path d="M51.86,272.17a3.3,3.3,0,0,0-1.7,2.08c-.19,1.32-.57,3,.19,3.58a11.82,11.82,0,0,0,2.45,1.51c.57.19,1.33.76,2.08.57s.94,0,1.89-1.13,2.08-1.51,2.08-2.27-.57-4.15-1.33-4.91S52.62,271.42,51.86,272.17Z" style="fill:#263238"></path><path d="M167.81,192.22l.95-3,.94,2.84,1.51-.57s-.75,1.13.38,1.32a12.58,12.58,0,0,0,3.21-.19s-1.7,2.46-.57,3,2.46,1.32,2.46,1.32l-1.32.38s2.07.76,1.32,1.13a7.94,7.94,0,0,1-1.7.57l1.7,3-2.83-.38-.19,3s-.95-2.45-1.51-1.32a9.94,9.94,0,0,0-.57,3.4l-2.45-3.4-1.7,2.83v-2.07l-.95.38-1.32-1.33-1.7.76.19-2.27-2.45-.19a7.72,7.72,0,0,0,.56-1.88c0-.57-1.13-1.7-1.13-1.7h2.83l-1.32-2.27h1.32l-.19-2.07s1.51.37,1.51-.57a13.46,13.46,0,0,0-.37-2.45l1.7,1.51.75-1.14Z" style="fill:#8c8c8c"></path><path d="M166.12,194.87a3.27,3.27,0,0,0-1.7,2.07c-.19,1.33-.57,3,.19,3.59a12,12,0,0,0,2.45,1.51c.57.19,1.32.76,2.08.57s.94,0,1.88-1.14,2.08-1.51,2.08-2.26-.57-4.15-1.32-4.91S166.87,194.11,166.12,194.87Z" style="fill:#263238"></path><path d="M204.68,50.14l.95-3,.94,2.83,1.51-.57s-.75,1.14.38,1.33a12.58,12.58,0,0,0,3.21-.19s-1.7,2.45-.57,3,2.46,1.32,2.46,1.32l-1.32.38s2.07.75,1.32,1.13a7.94,7.94,0,0,1-1.7.57l1.7,3-2.83-.38-.19,3s-.95-2.45-1.51-1.32a9.91,9.91,0,0,0-.57,3.4L206,61.28l-1.7,2.83V62l-.95.38L202,61.09l-1.7.75.19-2.26-2.45-.19a7.69,7.69,0,0,0,.56-1.89c0-.56-1.13-1.7-1.13-1.7h2.83L199,53.54h1.32l-.19-2.08s1.51.38,1.51-.56a13.46,13.46,0,0,0-.37-2.46L203,50l.75-1.13Z" style="fill:#8c8c8c"></path><path d="M203,52.78a3.27,3.27,0,0,0-1.7,2.08c-.19,1.32-.57,3,.18,3.59A12.79,12.79,0,0,0,203.93,60c.57.19,1.32.75,2.08.56a2.3,2.3,0,0,0,1.88-1.13c1-1.13,2.08-1.51,2.08-2.27s-.57-4.15-1.32-4.9S203.74,52,203,52.78Z" style="fill:#263238"></path><path d="M109.66,94.76l1.41-4.51,1.41,4.23,2.26-.84s-1.13,1.69.56,2a19,19,0,0,0,4.8-.28s-2.54,3.67-.85,4.51,3.67,2,3.67,2l-2,.56s3.1,1.13,2,1.69a11.57,11.57,0,0,1-2.54.85l2.54,4.51-4.23-.56-.28,4.51s-1.41-3.67-2.26-2-.85,5.07-.85,5.07l-3.66-5.07-2.54,4.23v-3.1l-1.41.56-2-2-2.54,1.12.29-3.38-3.67-.28a11.48,11.48,0,0,0,.85-2.82c0-.85-1.7-2.54-1.7-2.54h4.23l-2-3.39h2l-.28-3.1s2.26.56,2.26-.85a19.45,19.45,0,0,0-.57-3.66l2.54,2.25,1.13-1.69Z" style="fill:#8c8c8c"></path><path d="M107.12,98.71s-2.25,1.13-2.54,3.11-.84,4.51.29,5.36a18.52,18.52,0,0,0,3.66,2.25c.85.28,2,1.13,3.11.85s1.41,0,2.82-1.69,3.1-2.26,3.1-3.39-.85-6.2-2-7.33S108.25,97.59,107.12,98.71Z" style="fill:#263238"></path><path d="M347.2,70.43l.95-3,.94,2.84,1.51-.57s-.75,1.13.38,1.32a12.58,12.58,0,0,0,3.21-.19s-1.7,2.46-.57,3,2.46,1.32,2.46,1.32l-1.33.38s2.08.76,1.33,1.13a7.94,7.94,0,0,1-1.7.57l1.7,3-2.84-.38-.18,3s-.95-2.45-1.51-1.32A9.94,9.94,0,0,0,351,85l-2.46-3.4-1.69,2.83V82.33l-.95.38-1.32-1.33-1.7.76.19-2.27-2.45-.18a7.83,7.83,0,0,0,.56-1.89c0-.57-1.13-1.7-1.13-1.7h2.83l-1.32-2.27h1.32l-.19-2.07s1.51.37,1.51-.57a13.46,13.46,0,0,0-.37-2.45l1.69,1.51.76-1.14Z" style="fill:#8c8c8c"></path><path d="M345.5,73.08a3.23,3.23,0,0,0-1.69,2.07c-.19,1.33-.57,3,.18,3.59a12.31,12.31,0,0,0,2.46,1.51c.56.19,1.32.76,2.07.57a2.3,2.3,0,0,0,1.89-1.13c.95-1.14,2.08-1.52,2.08-2.27s-.57-4.15-1.32-4.91S346.26,72.32,345.5,73.08Z" style="fill:#263238"></path><path d="M257.2,133.77l.95-3,.94,2.83,1.51-.57s-.75,1.14.38,1.32a12.75,12.75,0,0,0,3.21-.18s-1.7,2.45-.57,3,2.46,1.32,2.46,1.32l-1.33.38s2.08.75,1.33,1.13a7.63,7.63,0,0,1-1.7.56l1.7,3-2.84-.37-.18,3s-.95-2.46-1.51-1.32a9.86,9.86,0,0,0-.57,3.39l-2.46-3.39-1.69,2.83v-2.08l-.95.38-1.32-1.32-1.7.75.19-2.26L250.6,143a7.69,7.69,0,0,0,.56-1.89c0-.57-1.13-1.7-1.13-1.7h2.83l-1.32-2.26h1.32l-.19-2.08s1.51.38,1.51-.57a13.46,13.46,0,0,0-.37-2.45l1.69,1.51.76-1.13Z" style="fill:#8c8c8c"></path><path d="M255.5,136.41a3.26,3.26,0,0,0-1.69,2.08c-.19,1.32-.57,3,.18,3.58a11.86,11.86,0,0,0,2.46,1.51c.56.19,1.32.76,2.07.57a2.3,2.3,0,0,0,1.89-1.13c.95-1.13,2.08-1.51,2.08-2.27s-.57-4.15-1.32-4.91S256.26,135.66,255.5,136.41Z" style="fill:#263238"></path><path d="M365.2,334.43l.95-3,.94,2.84,1.51-.57s-.75,1.13.38,1.32a12.58,12.58,0,0,0,3.21-.19s-1.7,2.46-.57,3,2.46,1.32,2.46,1.32l-1.33.38s2.08.76,1.33,1.13a7.94,7.94,0,0,1-1.7.57l1.7,3-2.84-.38-.18,3s-.95-2.45-1.51-1.32A9.94,9.94,0,0,0,369,349l-2.46-3.4-1.69,2.83v-2.07l-.95.38-1.32-1.33-1.7.76.19-2.27-2.45-.18a7.83,7.83,0,0,0,.56-1.89c0-.57-1.13-1.7-1.13-1.7h2.83l-1.32-2.27h1.32l-.19-2.07s1.51.37,1.51-.57a13.46,13.46,0,0,0-.37-2.45l1.69,1.51.76-1.14Z" style="fill:#8c8c8c"></path><path d="M363.5,337.08a3.23,3.23,0,0,0-1.69,2.07c-.19,1.33-.57,3,.18,3.59a12.31,12.31,0,0,0,2.46,1.51c.56.19,1.32.76,2.07.57a2.3,2.3,0,0,0,1.89-1.13c.95-1.14,2.08-1.52,2.08-2.27s-.57-4.15-1.32-4.91S364.26,336.32,363.5,337.08Z" style="fill:#263238"></path></g><g id="Character"><ellipse cx="244.84" cy="462.16" rx="128.26" ry="21.68" style="fill:#263238"></ellipse><path d="M183.39,460.8h0a3.41,3.41,0,0,1-2.82-3.92l13.28-81.28,6.74,1.1L187.31,458A3.41,3.41,0,0,1,183.39,460.8Z" style="fill:#92E3A9;stroke:#263238;stroke-miterlimit:10"></path><path d="M307.83,460.8h0a3.42,3.42,0,0,0,2.83-3.92L297.38,375.6l-6.75,1.1L303.91,458A3.41,3.41,0,0,0,307.83,460.8Z" style="fill:#92E3A9;stroke:#263238;stroke-miterlimit:10"></path><rect x="191.16" y="362.33" width="111.33" height="21.33" style="fill:#92E3A9;stroke:#263238;stroke-miterlimit:10"></rect><path d="M166.27,342.94s-.13.66-.35,1.73c-.69,3.33-2.22,10.6-3.25,14-1.34,4.5-.45,5.4,3.15,8.1s5,5.84,8.1,6.29,9.44-5.4,11.69-5.84S187,342.94,187,342.94Z" style="fill:#fff;stroke:#263238;stroke-miterlimit:10"></path><path d="M195.7,341.33c.49-.73.78-1.18.78-1.18l.53-2.77a11.27,11.27,0,0,0-1.18-2c-.74-1.11-7.42-2.22-10.38-1.85s-6.68,7.41-11.13,10.38a24.44,24.44,0,0,1-9.67,3.59c1.25.36,2.9.72,4.71,1.08a46.38,46.38,0,0,0,6.44-1.71c6.72-2.23,10.06-4.47,15.6-3.2a28.72,28.72,0,0,1,3.69-2C195.31,341.55,195.51,341.44,195.7,341.33Z" style="fill:#383838"></path><path d="M188.31,325.13c-5.39.29-11.14.54-14,2.06a11.79,11.79,0,0,0-2.51,1.87,6.94,6.94,0,0,1,4-.76,25.11,25.11,0,0,0,7.79-1.11c.78-.21,1.55-.44,2.32-.66A5.09,5.09,0,0,1,188.31,325.13Z" style="fill:#383838"></path><path d="M189.52,272.68c4.08,2.23,5.94-3,12.24-8.9l.65-.6c-3,0-5.61-.8-6.95-2-2-1.78,3.58-5.95,8.37-9l-1.66-9.31a1,1,0,0,1,0,.14c-2.22,7-3.34,3-10.75,5.19-6.41,1.92-4.24,3.3-5,8.18a7.54,7.54,0,0,1-.6,2.57c-1.25,3.94-4.81,5-8.88,5.14l-2,.8c-.52,1.4-1.13,3-1.78,4.68,1.73-.59,4-.91,6-1.72C183.59,266,185.45,270.46,189.52,272.68Z" style="fill:#383838"></path><path d="M188.14,237.57c.4-.08.64-.11.64-.11,5.54-1.62,10.22-1.8,12.42,0l-.57-3.2a64.09,64.09,0,0,1-9.25,2.08A7.84,7.84,0,0,0,188.14,237.57Z" style="fill:#383838"></path><path d="M199.66,301.75c1.62.48,2.94.84,4,1.16l.59-3c-.89.44-2.12.74-3.22,1.37A5.88,5.88,0,0,1,199.66,301.75Z" style="fill:#383838"></path><path d="M196.57,284.55c-6.67-.74-3.34-.37-8.16,0s-5.19,4.08-4.82,7,3-.37,11.13-1.48,7.78,1.86,10,5.93a3.82,3.82,0,0,1,.17.36l2.41-12.49C205.22,285.86,202.51,285.21,196.57,284.55Z" style="fill:#383838"></path><path d="M196.5,211.1l-1.35-7.53-.52,0c-2,.63-9.85,3.3-10.34,7.26-.11.87-.4,3-.81,6,2.45-1.51,6.55-3.76,9.61-4C194.19,212.19,195.33,211.62,196.5,211.1Z" style="fill:#383838"></path><path d="M196.2,213.72a7,7,0,0,1,1,1.4l-.72-4c-1.17.52-2.31,1.09-3.41,1.68A3.61,3.61,0,0,1,196.2,213.72Z" style="fill:#4c4c4c"></path><path d="M174.32,282.69s.75-.17,1.82-.36c-1.12-1.86-3.21-4.27-4.79-7.42l-.11-.24c-1,2.6-1.89,5.28-2.7,7.88A28.49,28.49,0,0,1,174.32,282.69Z" style="fill:#4c4c4c"></path><path d="M186.42,256.39a17.24,17.24,0,0,1-.6,2.57A7.54,7.54,0,0,0,186.42,256.39Z" style="fill:#4c4c4c"></path><path d="M175.23,264.11c-.1.26-.19.51-.29.79l2-.8C176.38,264.12,175.8,264.12,175.23,264.11Z" style="fill:#4c4c4c"></path><path d="M174.33,306.13a3.18,3.18,0,0,0-1.49-1.93c-1-.39-3.37.75-6.12,2,.12.24.24.49.35.75C170.85,305.25,173.29,305.33,174.33,306.13Z" style="fill:#4c4c4c"></path><path d="M168.39,331.27a22.66,22.66,0,0,1,3.42-2.21,11.79,11.79,0,0,1,2.51-1.87c2.85-1.52,8.6-1.77,14-2.06a40.48,40.48,0,0,1,4.55-1.28s4.45-4.82,7.42-5.93a5.14,5.14,0,0,1,.51-.16l2.86-14.85c-1.05-.32-2.37-.68-4-1.16-3.34.91-9.69.85-13.84,2.45-4.82,1.86,0,4.82-1.12,9.27s-3,3.34-11.49,5.94c-7.29,2.21-5.37,2-8.14,3.51-.22,5.1-.48,9.52-.78,12A35.17,35.17,0,0,1,168.39,331.27Z" style="fill:#4c4c4c"></path><path d="M191.38,236.34a64.09,64.09,0,0,0,9.25-2.08l-3.27-18.32c-.31,1.21-3.5,1.34-7.46,3.72-5.13,3.07-4.28,4-7.61,5.52-.69,4.81-1.5,10.26-2.32,15.5a28.24,28.24,0,0,1,8.17-3.11A7.84,7.84,0,0,1,191.38,236.34Z" style="fill:#4c4c4c"></path><path d="M173.58,309.39c-1.15.89-2.55,2-4,3.14l.7-.17c2.95-.69,4.1-2.36,4.31-4A4,4,0,0,1,173.58,309.39Z" style="fill:#4c4c4c"></path><path d="M173.61,287.26,175.8,286a3.09,3.09,0,0,0,.58-.41,43.67,43.67,0,0,0-7.25.78,10.67,10.67,0,0,0-1.83.52c0,.09-.05.18-.07.26A38.42,38.42,0,0,0,173.61,287.26Z" style="fill:#4c4c4c"></path><path d="M197.36,215.94l-.14-.82a7,7,0,0,0-1-1.4,3.61,3.61,0,0,0-3.11-.94c-3.06.25-7.16,2.5-9.61,4-.33,2.37-.73,5.24-1.19,8.39,3.33-1.57,2.48-2.45,7.61-5.52C193.86,217.28,197.05,217.15,197.36,215.94Z" style="fill:#b2b2b2"></path><path d="M184.7,313.47c1.12-4.45-3.7-7.41,1.12-9.27,4.15-1.6,10.5-1.54,13.84-2.45a5.88,5.88,0,0,0,1.36-.51c1.1-.63,2.33-.93,3.22-1.37l.66-3.47a3.82,3.82,0,0,0-.17-.36c-2.23-4.07-1.86-7-10-5.93s-10.76,4.45-11.13,1.48,0-6.67,4.82-7,1.49-.74,8.16,0c5.94.66,8.65,1.31,10.74-.64l1.14-5.9-2.72-15.23a15.5,15.5,0,0,1-3.32.4l-.65.6c-6.3,5.94-8.16,11.13-12.24,8.9s-5.93-6.67-10.38-4.82c-1.95.81-4.25,1.13-6,1.72-.62,1.62-1.27,3.33-1.92,5.09l.11.24c1.58,3.15,3.67,5.56,4.79,7.42,2.72-.48,7.56-1,7.82,1.11.24,1.92-3.26,2-7.58,2.18a3.09,3.09,0,0,1-.58.41l-2.19,1.23c1.88-.06,3.79-.12,5.16-.12,4.82,0,1.85,1.12,0,2.23a23.77,23.77,0,0,1-5.93,1.85s1.85,2.23-.74,4.82c-1.78,1.78-4.08,1.65-6.06,1.27-.09,2.1-.18,4.59-.28,7.27a9.27,9.27,0,0,1,1,1.59c2.75-1.22,5.15-2.36,6.12-2a3.18,3.18,0,0,1,1.49,1.93,1.56,1.56,0,0,1,.22,2.22c-.21,1.65-1.36,3.32-4.31,4l-.7.17-.69.55c-.45,1.74-2,3.09-3.55,4.4-.07,1.86-.15,3.69-.23,5.44,2.77-1.51.85-1.3,8.14-3.51C181.74,316.81,183.59,317.92,184.7,313.47Z" style="fill:#b2b2b2"></path><path d="M166.38,291.71c0,.33-.08.66-.1,1C167,292.55,166.88,292.23,166.38,291.71Z" style="fill:#b2b2b2"></path><path d="M195.7,341.33c-.19.11-.39.22-.61.32a28.72,28.72,0,0,0-3.69,2,19,19,0,0,0-4.47,3.95c-1.14,1.36-2.27,2.73-1.6,4C188.18,352,193.67,344.34,195.7,341.33Z" style="fill:#b2b2b2"></path><path d="M185.45,333.5c3-.37,9.64.74,10.38,1.85a11.27,11.27,0,0,1,1.18,2l2.13-11a17.09,17.09,0,0,1-4,3.08c-3.71,1.85-9.27-1.12-9.27-2.6a.55.55,0,0,1,.09-.29c-.77.22-1.54.45-2.32.66a25.11,25.11,0,0,1-7.79,1.11,6.94,6.94,0,0,0-4,.76,22.66,22.66,0,0,0-3.42,2.21,35.17,35.17,0,0,0-4.1,3.68,12.63,12.63,0,0,1-.31,1.78c-1.14,4-2.85,8-1.71,9.69a5.33,5.33,0,0,0,2.38,1.05,24.44,24.44,0,0,0,9.67-3.59C178.77,340.91,182.48,333.87,185.45,333.5Z" style="fill:#b2b2b2"></path><path d="M166.72,306.17a9.27,9.27,0,0,0-1-1.59c0,1-.07,2-.1,3,.49-.25,1-.48,1.41-.68C167,306.66,166.84,306.41,166.72,306.17Z" style="fill:#b2b2b2"></path><path d="M168.85,313.08c-1.16.93-2.35,1.93-3.5,3,0,.48,0,1,0,1.44C166.84,316.17,168.4,314.82,168.85,313.08Z" style="fill:#b2b2b2"></path><path d="M195.46,261.19c1.34,1.19,3.95,2,6.95,2a15.5,15.5,0,0,0,3.32-.4l-1.9-10.59C199,255.24,193.46,259.41,195.46,261.19Z" style="fill:#4c4c4c"></path><path d="M176.94,264.1c4.07-.16,7.63-1.2,8.88-5.14a17.24,17.24,0,0,0,.6-2.57c.72-4.88-1.45-6.26,5-8.18,7.41-2.23,8.53,1.85,10.75-5.19a1,1,0,0,0,0-.14l-1-5.42c-2.2-1.8-6.88-1.62-12.42,0,0,0-.24,0-.64.11a28.24,28.24,0,0,0-8.17,3.11c-1.5,9.59-3.05,18.47-4,21.37-.2.62-.45,1.32-.72,2.06C175.8,264.12,176.38,264.12,176.94,264.1Z" style="fill:#141414"></path><path d="M169.54,312.53c1.49-1.18,2.89-2.25,4-3.14a4,4,0,0,0,1-1,1.56,1.56,0,0,0-.22-2.22c-1-.8-3.48-.88-7.26.79-.45.2-.92.43-1.41.68-.1,2.75-.2,5.61-.31,8.44,1.15-1,2.34-2,3.5-3Z" style="fill:#141414"></path><path d="M176.38,285.62c4.32-.21,7.82-.26,7.58-2.18-.26-2.13-5.1-1.59-7.82-1.11-1.07.19-1.82.36-1.82.36a28.49,28.49,0,0,0-5.78-.14c-.47,1.5-.89,3-1.24,4.37a10.67,10.67,0,0,1,1.83-.52A43.67,43.67,0,0,1,176.38,285.62Z" style="fill:#141414"></path><path d="M172.1,296c2.59-2.59.74-4.82.74-4.82a23.77,23.77,0,0,0,5.93-1.85c1.85-1.11,4.82-2.23,0-2.23-1.37,0-3.28.06-5.16.12a38.42,38.42,0,0,1-6.38-.08,40.7,40.7,0,0,0-.85,4.53c.5.52.63.84-.1,1a.89.89,0,0,1,0,.15c-.07,1.12-.15,2.66-.22,4.47C168,297.69,170.32,297.82,172.1,296Z" style="fill:#141414"></path><path d="M192.86,323.85a40.48,40.48,0,0,0-4.55,1.28,5.09,5.09,0,0,0-2.4,1.4.55.55,0,0,0-.09.29c0,1.48,5.56,4.45,9.27,2.6a17.09,17.09,0,0,0,4-3.08l1.65-8.58a5.14,5.14,0,0,0-.51.16C197.31,319,192.86,323.85,192.86,323.85Z" style="fill:#141414"></path><path d="M205.73,262.78l-1.9-10.59-1.66-9.31-1-5.42-.57-3.2-3.27-18.32-.14-.82-.72-4-1.35-7.53-.52,0c-2,.63-9.85,3.3-10.34,7.26-.11.87-.4,3-.81,6-.33,2.37-.73,5.24-1.19,8.39-.69,4.81-1.5,10.26-2.32,15.5-1.5,9.59-3.05,18.47-4,21.37-.2.62-.45,1.32-.72,2.06-.1.26-.19.51-.29.79-.52,1.4-1.13,3-1.78,4.68s-1.27,3.33-1.92,5.09c-1,2.6-1.89,5.28-2.7,7.88-.47,1.5-.89,3-1.24,4.37,0,.09-.05.18-.07.26a40.7,40.7,0,0,0-.85,4.53c0,.33-.08.66-.1,1a.89.89,0,0,1,0,.15c-.07,1.12-.15,2.66-.22,4.47-.09,2.1-.18,4.59-.28,7.27,0,1-.07,2-.1,3-.1,2.75-.2,5.61-.31,8.44,0,.48,0,1,0,1.44-.07,1.86-.15,3.69-.23,5.44-.22,5.1-.48,9.52-.78,12a12.63,12.63,0,0,1-.31,1.78c-1.14,4-2.85,8-1.71,9.69a5.33,5.33,0,0,0,2.38,1.05c1.25.36,2.9.72,4.71,1.08a46.38,46.38,0,0,0,6.44-1.71c6.72-2.23,10.06-4.47,15.6-3.2a19,19,0,0,0-4.47,3.95c-1.14,1.36-2.27,2.73-1.6,4,2.85.41,8.34-7.26,10.37-10.27.49-.73.78-1.18.78-1.18l.53-2.77,2.13-11,1.65-8.58,2.86-14.85.59-3,.66-3.47,2.41-12.49,1.14-5.9Z" style="fill:none;stroke:#374248;stroke-miterlimit:10"></path><path d="M225.52,202.05a4.41,4.41,0,0,0,2.2,1.88c1.34-1.17,3.13-2.26,3.74-2.26a47,47,0,0,1,6.12-3.59,180.23,180.23,0,0,0-19-.13C221.64,198.86,224.28,200.25,225.52,202.05Z" style="fill:#383838"></path><path d="M267.05,201.3c3.34,1.49,0,5.94.74,7s5.94-.74,7.42-2.23a12.08,12.08,0,0,1,7.05-3c1.44,0,2.58,1.57,3.6,3.48a35.44,35.44,0,0,1,6.9-2.21c-4-1.18-8.27-2.29-12.55-3.19a13.58,13.58,0,0,1-3.52-.31c-1.81-.6-9.8-.47-12.68-.4.08.12.15.24.22.36A7.4,7.4,0,0,1,267.05,201.3Z" style="fill:#383838"></path><path d="M301.91,277.69c-2.91,3.49-2.4,6.07-3.12,9.7,1.54-3.61,3.17-7.52,4.72-11.41A19.37,19.37,0,0,0,301.91,277.69Z" style="fill:#383838"></path><path d="M297.48,209a10.8,10.8,0,0,0-5,.89,6.64,6.64,0,0,1,.93-.07A11.64,11.64,0,0,0,297.48,209Z" style="fill:#383838"></path><path d="M201.57,219.83l.59-.36c3.11-1.86,3.09-3.15,1.76-5l-1.76.56C199.62,215.87,200.73,217.37,201.57,219.83Z" style="fill:#383838"></path><path d="M315.65,231.35c.92.33,1.86.68,2.78,1.08a46.64,46.64,0,0,0,1.62-7.58C318.05,226.39,316.91,228.22,315.65,231.35Z" style="fill:#383838"></path><path d="M238.4,308.63c-5.39.29-11.14.54-14,2.06a12.1,12.1,0,0,0-2.52,1.87,7,7,0,0,1,4-.76,25.11,25.11,0,0,0,7.79-1.11c.78-.21,1.55-.44,2.31-.66A5.14,5.14,0,0,1,238.4,308.63Z" style="fill:#383838"></path><path d="M260.11,296.19a16.59,16.59,0,0,1-1.52-3.46c0,2.41-1.45,5.24-3.24,7.8,1.69-.16,3.4-.26,4.66-.36C260,298.9,260,297.55,260.11,296.19Z" style="fill:#383838"></path><path d="M253.33,307.73a11.35,11.35,0,0,0-3.52,1.66,22.75,22.75,0,0,0,6.12.93c3.13,0,3.09-1.32,3.45-3.07A16,16,0,0,0,253.33,307.73Z" style="fill:#383838"></path><path d="M290,283.62c-2.22-4.45-2.59-12.23-2.59-18.54s2.59-4.82,5.19-7.41,3.71-1.86,8.53-3a39.18,39.18,0,0,1,6.67-1.11,5.6,5.6,0,0,0,3.89-2.7c.06-.47.12-.93.19-1.38a5.37,5.37,0,0,1,1-2.31,12.56,12.56,0,0,0,.08-1.4,5.9,5.9,0,0,0-1.89-4.28c-1.76,2.21-4.28,3.56-8.86,4.65-7.79,1.86-1.85-3-.74-8.53a6.9,6.9,0,0,1,1.54-3.45c-1-.95-2-2-3-3.22-5.67-6.48-.34-5.69,4.7-3.92a4,4,0,0,1-1.37-1.64c-1.48-3.34,3.71-3.71,7.79-5.57s-2.6-3.7-7.42-3.7-5.93,8.9-13,10.38-5.56-4.45-7.41-10.75-7.42,3.7-17.43,1.85a12.76,12.76,0,0,1-5.8-2.73,24.27,24.27,0,0,1-4.58,1.62c-8.9,2.22-7.42,2.22-14.09,3.33a7.84,7.84,0,0,0-3.24,1.23c.4-.08.64-.11.64-.11,8.9-2.6,15.58-1.49,13.35,5.56s-3.34,3-10.75,5.19c-6.41,1.92-4.24,3.3-5,8.18a7.32,7.32,0,0,1-.59,2.57c-1.25,3.94-4.81,5-8.88,5.14-2.55,1-5.55,2.21-8.92,3.76-6.43,3-2.8,5.11,3,6.21-2-5,3.93-4.45,8.16-6.21,4.45-1.85,6.3,2.6,10.38,4.82s5.94-3,12.24-8.9l.65-.6c-3,0-5.61-.8-6.95-2-3.34-3,14.46-12.61,14.46-12.61,3.33-1.48,11.12-2.22,5.56,7-.2.33-.42.66-.63,1,4.54-1,7.79.23,8.42-3.2.74-4.08-12.24-13.72-5.57-15.2S286,235.79,286,235.79a33.77,33.77,0,0,1,2.23,10.75c0,5.19-1.11,4.82-3,8.16s-5.19,3-11.86,4.82-2.6,0-8.16,0-4.82,4.08-7.05,7.05-4.82,2.22-11.49,1.48-3.34-.37-8.16,0-5.19,4.08-4.82,7,3-.37,11.12-1.48,7.79,1.86,10,5.93-1.12,3.71-3.71,5.2a6.06,6.06,0,0,1-1.36.51c5.92,1.76,7.6,1.86,8.41,4.75,0,0,0-.05,0-.07,0-1.76,1.49-1,3.46.75,1.62-1.86,4.53-1.87,8-1.87,2.73,0,4.39,6.44,5.18,12.82,3.71.56,3.48,2.34,1.12,6.47a8.83,8.83,0,0,1-.57.9c0,1.25,0,2.35-.05,3.2,7.85-3.95,16.59-9.19,16.59-9.19s2-4.4,4.73-10.64C294.53,293.63,291.9,287.34,290,283.62Zm-11.12-10c-1.85,2.23-3.71,5.93-6.3,6.68s-6.68.37-12.61-1.49-1.49-3.33,0-5.56,9.64,1.48,9.64,1.48-1.86-6.3-1.48-9.27,4.07-.74,5.19,1.49c.7,1.4,2.74,1,4.14.57a11.7,11.7,0,0,0,1.42-.57C285.59,262.86,280.77,271.39,278.92,273.61Z" style="fill:#383838"></path><path d="M194.59,224.85a3.15,3.15,0,0,0-.57-1.16c0,.58,0,1.14,0,1.68Z" style="fill:#383838"></path><path d="M245.92,318.85c-.74-1.11-7.42-2.22-10.39-1.85-1.63.2-3.48,2.42-5.56,4.88a73.73,73.73,0,0,1,5.52,5.21,13.33,13.33,0,0,1,6,.05,29.6,29.6,0,0,1,3.7-2C249.25,323.3,246.66,320,245.92,318.85Z" style="fill:#383838"></path><path d="M198.24,205.88c-.89.17-2.22,2-3.12,2.47a10,10,0,0,0-2.77,1.69v.22c1.54-1.13,3.42-1.45,6.84-1.91A6.1,6.1,0,0,1,198.24,205.88Z" style="fill:#383838"></path><path d="M212.54,273.61a20.62,20.62,0,0,0,2.27-.09,5.21,5.21,0,0,1-1.52-4.36c.74-4.45,11.12-3,11.12-3s.75-.17,1.82-.36c-1.12-1.86-3.21-4.27-4.79-7.42-.15-.3-.26-.58-.37-.84-5.76-1.1-9.39-3.24-3-6.21,3.37-1.55,6.37-2.74,8.92-3.76-3.21.12-6.72-.32-9.67-.32-6.67,0-.37-4.08,5.94-9.27s-3.34-4.82,2.22-10.38a26.2,26.2,0,0,1,12.71-6.56,7.84,7.84,0,0,1,3.24-1.23c6.67-1.11,5.19-1.11,14.09-3.33a24.27,24.27,0,0,0,4.58-1.62c-5.41-4.38-7.18-12.1-7.18-12.1s6.81-1.88,11.27-1.9c-.07-.12-.14-.24-.22-.36-.33-.53-.69-1.07-1.07-1.6-6.46-.3-11.92-.45-15.74-.53,1.39,2.32-2.35,1.84-7.22,4.76-5.56,3.33-4.07,4.08-8.52,5.93s-4.08-1.48-5.2-2.6c-.51-.51.31-1.56,1.46-2.56a4.41,4.41,0,0,1-2.2-1.88c-1.24-1.8-3.88-3.19-6.91-4.1l-1.26.07a17.41,17.41,0,0,1,1.13,5.14c.37,5.19-1.12,6.67-2.6,8.53s-4.45,1.85-6.67,1.85a16.23,16.23,0,0,0-5.29.92c1.33,1.86,1.35,3.15-1.76,5l-.59.36a10.89,10.89,0,0,1,.59,2.61c.37,4.08,3.34-.74,6.31-1.48s1.85,2.22,1.85,5.93-.74,4.08-4.45,7-3,1.49-4.82,4.83-2.6,3.7-6.3,5.56a6,6,0,0,1-1.4.52c.05.82.11,1.63.16,2.44a27,27,0,0,0,7.91,0c1.48-1.48,10.38-2.22,11.49,4.08s-4.44,6.68-14.83,3.71c-1.46-.42-2.8-.75-4.05-1,.88,10.1,2.2,18.84,4.11,22.73a16.36,16.36,0,0,1,4.76-2.42C207,273.24,208.84,273.61,212.54,273.61Z" style="fill:#4c4c4c"></path><path d="M194.59,224.85l-.52.52c0,2.06-.1,3.72-1.4,4.69,0,1.32.09,2.68.15,4,.67-1.16,1-2.92,1.55-5.36A7.79,7.79,0,0,0,194.59,224.85Z" style="fill:#4c4c4c"></path><path d="M208.13,292.2a8,8,0,0,1-5.31-1.45c.36,1.66.66,3.29.92,4.86C206.57,295.06,206.71,294.22,208.13,292.2Z" style="fill:#4c4c4c"></path><path d="M221.89,312.56a12.1,12.1,0,0,1,2.52-1.87c2.85-1.52,8.6-1.77,14-2.06a40.48,40.48,0,0,1,4.55-1.28s4.45-4.82,7.42-5.93a22,22,0,0,1,5-.89c1.79-2.56,3.2-5.39,3.24-7.8a9.92,9.92,0,0,1-.43-2.73c-.81-2.89-2.49-3-8.41-4.75-3.34.91-9.69.85-13.84,2.45-4.83,1.86,0,4.82-1.12,9.27s-3,3.34-11.49,5.94-4.45,1.85-10,4.44a8.57,8.57,0,0,1-5.92.06,18.51,18.51,0,0,1-2.09,1.23,10.89,10.89,0,0,0,.17,1.27c.39,1.56,4.93,2.56,12.56,5.22l.47-.36A23.18,23.18,0,0,1,221.89,312.56Z" style="fill:#4c4c4c"></path><path d="M236.5,239.89a16,16,0,0,1-.59,2.57A7.32,7.32,0,0,0,236.5,239.89Z" style="fill:#4c4c4c"></path><path d="M222.93,287.7c-1-.39-3.37.75-6.12,2,.12.24.23.49.35.75,3.78-1.67,6.22-1.59,7.26-.79A3.18,3.18,0,0,0,222.93,287.7Z" style="fill:#4c4c4c"></path><path d="M198.24,205.88a6.1,6.1,0,0,0,.95,2.47C199.19,206.34,198.8,205.78,198.24,205.88Z" style="fill:#4c4c4c"></path><path d="M224.64,291.85a4,4,0,0,1-1,1c-1.15.89-2.56,2-4,3.14l.7-.17C223.28,295.17,224.43,293.5,224.64,291.85Z" style="fill:#4c4c4c"></path><path d="M223.7,270.76l2.19-1.23a3.09,3.09,0,0,0,.58-.41,43.55,43.55,0,0,0-7.25.78C214.44,271,219,270.89,223.7,270.76Z" style="fill:#4c4c4c"></path><path d="M211.8,207.24c-2.22,6.3-3.33,5.19-9.64,7.78l1.76-.56a16.23,16.23,0,0,1,5.29-.92c2.22,0,5.19,0,6.67-1.85s3-3.34,2.6-8.53a17.41,17.41,0,0,0-1.13-5.14c-.91.07-1.81.14-2.69.23C217.68,200.46,213.75,201.72,211.8,207.24Z" style="fill:#b2b2b2"></path><path d="M201.05,238.76c1.85-3.34,1.11-1.86,4.82-4.83s4.45-3.33,4.45-7,1.11-6.68-1.85-5.93-5.94,5.56-6.31,1.48a10.89,10.89,0,0,0-.59-2.61c-.84-2.46-1.95-4,.59-4.81-6.3,2.6-3-1.48-3-6.67-3.42.46-5.3.78-6.84,1.91,0,2.63,0,6.1.07,10.09,1,0,1.58.58,1.58,2.09,0,.43,0,.84,0,1.25a3.15,3.15,0,0,1,.57,1.16,7.79,7.79,0,0,1-.22,3.89c-.6,2.44-.88,4.2-1.55,5.36.14,3.53.31,7.16.53,10.74a6,6,0,0,0,1.4-.52C198.45,242.46,199.19,242.09,201.05,238.76Z" style="fill:#b2b2b2"></path><path d="M227.72,203.93c-1.15,1-2,2-1.46,2.56,1.12,1.12.75,4.45,5.2,2.6s3-2.6,8.52-5.93c4.87-2.92,8.61-2.44,7.22-4.76-3.71-.07-5.87-.07-5.87-.07s-1.43-.12-3.75-.25a47,47,0,0,0-6.12,3.59C230.85,201.67,229.06,202.76,227.72,203.93Z" style="fill:#b2b2b2"></path><path d="M298.2,209.09c-.24,0-.48-.06-.72-.08a11.64,11.64,0,0,1-4.1.82,6.64,6.64,0,0,0-.93.07c-3.88,1.61-6.48,4.42-9.08,1-1.33-1.72.11-3.16,2.49-4.3-1-1.91-2.16-3.48-3.6-3.48a12.08,12.08,0,0,0-7.05,3c-1.48,1.49-6.67,3.34-7.42,2.23s2.6-5.56-.74-7a7.4,7.4,0,0,0-2.82-.41c-4.46,0-11.27,1.9-11.27,1.9s1.77,7.72,7.18,12.1a12.76,12.76,0,0,0,5.8,2.73c10,1.85,15.57-8.16,17.43-1.85s.37,12.23,7.41,10.75,8.16-10.38,13-10.38,11.5,1.85,7.42,3.7-9.27,2.23-7.79,5.57a4,4,0,0,0,1.37,1.64,46.82,46.82,0,0,1,4.94,2.06c1.43.72,3.63,1.4,5.95,2.24,1.26-3.13,2.4-5,4.4-6.5a13.65,13.65,0,0,0,.09-1.5c0-5.46-2.79-8.82-9-12C308.56,212.05,303.58,209.9,298.2,209.09Z" style="fill:#b2b2b2"></path><path d="M302.28,246.17c4.58-1.09,7.1-2.44,8.86-4.65-1.71-1.84-4.51-3.8-8.06-7.33a6.9,6.9,0,0,0-1.54,3.45C300.43,243.2,294.49,248,302.28,246.17Z" style="fill:#b2b2b2"></path><path d="M208.13,292.2a21.44,21.44,0,0,1,2.56-3c3.45-3.45,4.81-2.16,6.12.48,2.75-1.22,5.15-2.36,6.12-2a3.18,3.18,0,0,1,1.49,1.93,1.56,1.56,0,0,1,.22,2.22c-.21,1.65-1.36,3.32-4.31,4l-.7.17-.69.55c-.63,2.43-3.43,4.1-5.28,5.95a6,6,0,0,1-2.46,1.38,19.54,19.54,0,0,1-3.83,3.5,8.57,8.57,0,0,0,5.92-.06c5.56-2.59,1.48-1.85,10-4.44s10.38-1.49,11.49-5.94-3.71-7.41,1.12-9.27c4.15-1.6,10.5-1.54,13.84-2.45a6.06,6.06,0,0,0,1.36-.51c2.59-1.49,5.93-1.12,3.71-5.2s-1.86-7-10-5.93-10.75,4.45-11.12,1.48,0-6.67,4.82-7,1.48-.74,8.16,0,9.27,1.48,11.49-1.48,1.49-7.05,7.05-7.05,1.48,1.85,8.16,0,10-1.48,11.86-4.82,3-3,3-8.16A33.77,33.77,0,0,0,286,235.79s-11.49-15.58-18.17-14.09,6.31,11.12,5.57,15.2c-.63,3.43-3.88,2.15-8.42,3.2a15.2,15.2,0,0,1-12.44,6.58l-.65.6c-6.3,5.94-8.16,11.13-12.24,8.9s-5.93-6.67-10.38-4.82c-4.23,1.76-10.12,1.19-8.16,6.21.11.26.22.54.37.84,1.58,3.15,3.67,5.56,4.79,7.42,2.72-.48,7.56-1,7.82,1.11.24,1.92-3.26,2-7.58,2.18a3.09,3.09,0,0,1-.58.41l-2.19,1.23c1.88-.06,3.79-.12,5.16-.12,4.82,0,1.85,1.12,0,2.23a23.77,23.77,0,0,1-5.93,1.85s1.85,2.23-.74,4.82-6.31,1.12-8.53.75,0-3.71,2.59-4.08c1.54-.22,0-1.09-1.44-2.69a20.62,20.62,0,0,1-2.27.09c-3.7,0-5.56-.37-9.64.74a16.36,16.36,0,0,0-4.76,2.42l.05.1a59.3,59.3,0,0,1,4.63,13.88A8,8,0,0,0,208.13,292.2Z" style="fill:#b2b2b2"></path><path d="M307.84,253.59a39.18,39.18,0,0,0-6.67,1.11c-4.82,1.11-5.94.37-8.53,3s-5.19,1.11-5.19,7.41.37,14.09,2.59,18.54c1.86,3.72,4.49,10,6.61,8.75.68-1.56,1.4-3.23,2.14-5,.72-3.63.21-6.21,3.12-9.7a19.37,19.37,0,0,1,1.6-1.71c.35-.88.69-1.75,1-2.62-4.63,2.77-8.29,5-10.42.25-3-6.67,5.94-6.3,11.87-10.38A12.74,12.74,0,0,0,309.3,260c.69-2.13,1.41-4.28,2.14-6.42.11-.91.19-1.82.29-2.7A5.6,5.6,0,0,1,307.84,253.59Z" style="fill:#b2b2b2"></path><path d="M309.7,229.11a46.82,46.82,0,0,0-4.94-2.06c-5-1.77-10.37-2.56-4.7,3.92,1.06,1.21,2.06,2.27,3,3.22,3.55,3.53,6.35,5.49,8.06,7.33A5.9,5.9,0,0,1,313,245.8a12.56,12.56,0,0,1-.08,1.4,7.86,7.86,0,0,1,1.1-1.21c1.7-4.93,3.26-9.59,4.38-13.56-.92-.4-1.86-.75-2.78-1.08C313.33,230.51,311.13,229.83,309.7,229.11Z" style="fill:#b2b2b2"></path><path d="M238.08,329.91c1.78,2,2.86,3.4,2.86,3.4s20.76-15,29.3-18.7c1.57-.68,3.31-1.51,5.09-2.41.06-.85.07-1.95.05-3.2-2.65,3.71-4.49-.19-8-.53-2.2-.22-5.07-1-8-1.22-.36,1.75-.32,3.07-3.45,3.07a22.75,22.75,0,0,1-6.12-.93c-1.53,1.11-2.21,2.32-4.63,3.53-3.71,1.85-9.27-1.12-9.27-2.6A.63.63,0,0,1,236,310c-.76.22-1.53.45-2.31.66a25.11,25.11,0,0,1-7.79,1.11,7,7,0,0,0-4,.76,23.18,23.18,0,0,0-3.41,2.21l-.47.36c1,.34,1.94.69,3,1.08a32.42,32.42,0,0,1,9,5.67c2.08-2.46,3.93-4.68,5.56-4.88,3-.37,9.65.74,10.39,1.85s3.33,4.45-.74,6.3a29.6,29.6,0,0,0-3.7,2A19.08,19.08,0,0,0,238.08,329.91Z" style="fill:#b2b2b2"></path><path d="M261.86,299.94c.61-.2-.56-1.64-1.75-3.75-.08,1.36-.1,2.71-.1,4A11.31,11.31,0,0,0,261.86,299.94Z" style="fill:#b2b2b2"></path><path d="M271.13,301.42a26.29,26.29,0,0,1,3.7.21c-.79-6.38-2.45-12.82-5.18-12.82-3.51,0-6.42,0-8,1.87C265.46,294.13,271.13,301.42,271.13,301.42Z" style="fill:#b2b2b2"></path><path d="M278.92,266.94a11.7,11.7,0,0,1-1.42.57c-1.4.46-3.44.83-4.14-.57-1.12-2.23-4.82-4.45-5.19-1.49s1.48,9.27,1.48,9.27-8.16-3.7-9.64-1.48-5.94,3.71,0,5.56,10,2.23,12.61,1.49,4.45-4.45,6.3-6.68S285.59,262.86,278.92,266.94Z" style="fill:#b2b2b2"></path><path d="M217.16,290.42c-.12-.26-.23-.51-.35-.75-1.31-2.64-2.67-3.93-6.12-.48a21.44,21.44,0,0,0-2.56,3c-1.42,2-1.56,2.86-4.39,3.41.2,1.22.38,2.41.53,3.54a123.21,123.21,0,0,0,10.87-7.74C215.86,291,216.52,290.71,217.16,290.42Z" style="fill:#b2b2b2"></path><path d="M218.94,296.58a52.34,52.34,0,0,0-7.51,7.07c-.07.09-.15.17-.23.26a6,6,0,0,0,2.46-1.38C215.51,300.68,218.31,299,218.94,296.58Z" style="fill:#b2b2b2"></path><path d="M260,232.08s-17.8,9.64-14.46,12.61c1.34,1.19,3.95,2,6.95,2a15.2,15.2,0,0,0,12.44-6.58c.21-.31.43-.64.63-1C271.13,229.86,263.34,230.6,260,232.08Z" style="fill:#4c4c4c"></path><path d="M235.91,242.46a16,16,0,0,0,.59-2.57c.73-4.88-1.44-6.26,5-8.18,7.41-2.23,8.53,1.85,10.75-5.19s-4.45-8.16-13.35-5.56c0,0-.24,0-.64.11a26.2,26.2,0,0,0-12.71,6.56c-5.56,5.56,4.08,5.19-2.22,10.38s-12.61,9.27-5.94,9.27c2.95,0,6.46.44,9.67.32C231.1,247.44,234.66,246.4,235.91,242.46Z" style="fill:#141414"></path><path d="M212.91,251.36c-1.11-6.3-10-5.56-11.49-4.08a27,27,0,0,1-7.91,0c.15,2.29.33,4.56.52,6.76,1.25.28,2.59.61,4.05,1C208.47,258,214,257.67,212.91,251.36Z" style="fill:#141414"></path><path d="M211.2,303.91c.08-.09.16-.17.23-.26a52.34,52.34,0,0,1,7.51-7.07l.69-.55c1.48-1.18,2.89-2.25,4-3.14a4,4,0,0,0,1-1,1.56,1.56,0,0,0-.22-2.22c-1-.8-3.48-.88-7.26.79-.64.29-1.3.6-2,1a123.21,123.21,0,0,1-10.87,7.74c.57,4.2.83,7.66,1,9.49a18.51,18.51,0,0,0,2.09-1.23A19.54,19.54,0,0,0,211.2,303.91Z" style="fill:#141414"></path><path d="M213.29,269.16a5.21,5.21,0,0,0,1.52,4.36c1.4,1.6,3,2.47,1.44,2.69-2.59.37-4.82,3.71-2.59,4.08s5.93,1.85,8.53-.75.74-4.82.74-4.82a23.77,23.77,0,0,0,5.93-1.85c1.85-1.11,4.82-2.23,0-2.23-1.37,0-3.28.06-5.16.12-4.73.13-9.26.2-4.48-.86a43.55,43.55,0,0,1,7.25-.78c4.32-.21,7.82-.26,7.58-2.18-.26-2.13-5.1-1.59-7.82-1.11-1.07.19-1.82.36-1.82.36S214,264.71,213.29,269.16Z" style="fill:#141414"></path><path d="M274.83,301.63a26.29,26.29,0,0,0-3.7-.21s-5.67-7.29-9.52-10.74c-2-1.76-3.46-2.51-3.46-.75,0,0,0,.05,0,.07a9.92,9.92,0,0,0,.43,2.73,16.59,16.59,0,0,0,1.52,3.46c1.19,2.11,2.36,3.55,1.75,3.75a11.31,11.31,0,0,1-1.85.23c-1.26.1-3,.2-4.66.36a22,22,0,0,0-5,.89c-3,1.11-7.42,5.93-7.42,5.93a40.48,40.48,0,0,0-4.55,1.28A5.14,5.14,0,0,0,236,310a.63.63,0,0,0-.08.29c0,1.48,5.56,4.45,9.27,2.6,2.42-1.21,3.1-2.42,4.63-3.53a11.35,11.35,0,0,1,3.52-1.66,16,16,0,0,1,6-.48c3,.25,5.84,1,8,1.22,3.47.34,5.31,4.24,8,.53a8.83,8.83,0,0,0,.57-.9C278.31,304,278.54,302.19,274.83,301.63Z" style="fill:#141414"></path><path d="M306,263.23c-5.93,4.08-14.83,3.71-11.87,10.38,2.13,4.79,5.79,2.52,10.42-.25,1.64-4.2,3.13-8.27,4.24-11.74.17-.54.34-1.07.52-1.61A12.74,12.74,0,0,1,306,263.23Z" style="fill:#141414"></path><path d="M313,247.2a5.37,5.37,0,0,0-1,2.31c-.07.45-.13.91-.19,1.38-.1.88-.18,1.79-.29,2.7l2.61-7.6A7.86,7.86,0,0,0,313,247.2Z" style="fill:#141414"></path><path d="M283.37,210.94c2.6,3.38,5.2.57,9.08-1a10.8,10.8,0,0,1,5-.89c.24,0,.48,0,.72.08,5.38.81,10.36,3,13,2.26-1.76-.91-3.78-1.8-6.11-2.73-3.5-1.38-7.73-2.84-12.3-4.19a35.44,35.44,0,0,0-6.9,2.21C283.48,207.78,282,209.22,283.37,210.94Z" style="fill:#141414"></path><path d="M198.24,205.88c.56-.1.95.46.95,2.47,0,5.19-3.33,9.27,3,6.67s7.42-1.48,9.64-7.78c1.95-5.52,5.88-6.78,2.86-9a48.54,48.54,0,0,0-6.78,1.1c-9.89,2.47-15,3.73-15.39,5.7-.08.32-.13,2.13-.14,5a10,10,0,0,1,2.77-1.69C196,207.89,197.35,206.05,198.24,205.88Z" style="fill:#141414"></path><path d="M194.07,225.37c0-.54,0-1.1,0-1.68,0-.41,0-.82,0-1.25,0-1.51-.54-2.11-1.58-2.09.06,3,.14,6.27.25,9.71C194,229.09,194.11,227.43,194.07,225.37Z" style="fill:#141414"></path><path d="M311.17,211.35c-1.76-.91-3.78-1.8-6.11-2.73-3.5-1.38-7.73-2.84-12.3-4.19-4-1.18-8.27-2.29-12.55-3.19a13.58,13.58,0,0,1-3.52-.31c-1.81-.6-9.8-.47-12.68-.4-.33-.53-.69-1.07-1.07-1.6-6.46-.3-11.92-.45-15.74-.53s-5.87-.07-5.87-.07-1.43-.12-3.75-.25a180.23,180.23,0,0,0-19-.13l-1.26.07c-.91.07-1.81.14-2.69.23a48.54,48.54,0,0,0-6.78,1.1c-9.89,2.47-15,3.73-15.39,5.7-.08.32-.13,2.13-.14,5v.22c0,2.63,0,6.1.07,10.09.06,3,.14,6.27.25,9.71,0,1.32.09,2.68.15,4,.14,3.53.31,7.16.53,10.74.05.82.11,1.63.16,2.44.15,2.29.33,4.56.52,6.76.88,10.1,2.2,18.84,4.11,22.73l.05.1a59.3,59.3,0,0,1,4.63,13.88c.36,1.66.66,3.29.92,4.86.2,1.22.38,2.41.53,3.54.57,4.2.83,7.66,1,9.49a10.89,10.89,0,0,0,.17,1.27c.39,1.56,4.93,2.56,12.56,5.22,1,.34,1.94.69,3,1.08a32.42,32.42,0,0,1,9,5.67,73.73,73.73,0,0,1,5.52,5.21,13.33,13.33,0,0,1,6,.05,19.08,19.08,0,0,0-3.4,2.77c1.78,2,2.86,3.4,2.86,3.4s20.76-15,29.3-18.7c1.57-.68,3.31-1.51,5.09-2.41,7.85-3.95,16.59-9.19,16.59-9.19s2-4.4,4.73-10.64c.68-1.56,1.4-3.23,2.14-5,1.54-3.61,3.17-7.52,4.72-11.41.35-.88.69-1.75,1-2.62,1.64-4.2,3.13-8.27,4.24-11.74.17-.54.34-1.07.52-1.61.69-2.13,1.41-4.28,2.14-6.42l2.61-7.6c1.7-4.93,3.26-9.59,4.38-13.56a46.64,46.64,0,0,0,1.62-7.58,13.65,13.65,0,0,0,.09-1.5C320.14,217.89,317.35,214.53,311.17,211.35Z" style="fill:none;stroke:#374248;stroke-miterlimit:10"></path><path d="M262.25,325.46c-2.22,7.05-3.34,3-10.75,5.19-6.41,1.93-4.24,3.3-5,8.19a7.37,7.37,0,0,1-.59,2.57c-1.25,3.94-4.81,5-8.88,5.13-2.55,1-5.55,2.21-8.92,3.77-6.43,3-2.8,5.1,3,6.2-2-5,3.93-4.44,8.16-6.2,4.45-1.86,6.3,2.59,10.38,4.82s5.94-3,12.24-8.9l.65-.61c-3,0-5.61-.79-6.95-2C252.24,340.66,270,331,270,331c3.34-1.48,11.12-2.22,5.56,7.05-.2.34-.41.66-.63,1,4.54-1.05,7.79.23,8.42-3.2.74-4.08-12.24-13.72-5.56-15.2S296,334.73,296,334.73a37.26,37.26,0,0,1,1.33,4.28,33.41,33.41,0,0,0,.95-3.48,23.2,23.2,0,0,0-.47-9.95c-3.61-.77-2.89-5.69-4.41-10.87-1.85-6.31-7.42,3.71-17.43,1.85a12.76,12.76,0,0,1-5.8-2.73,24,24,0,0,1-4.58,1.62c-2,.49-3.44.88-4.59,1.19-1,.68-2,1.38-2.94,2.07C261.71,319.14,263.59,321.22,262.25,325.46Z" style="fill:#383838"></path><path d="M204.62,323.79a3.3,3.3,0,0,0-.56-1.16c0,.59,0,1.15,0,1.68Z" style="fill:#383838"></path><path d="M199.58,312.48a13.9,13.9,0,0,1-2.44,3.25l.49,1.41C198.29,316.38,198.25,314.58,199.58,312.48Z" style="fill:#383838"></path><path d="M251.69,366.6H253A5.67,5.67,0,0,0,251.69,366.6Z" style="fill:#383838"></path><path d="M201.38,310.08h-.07a21.88,21.88,0,0,0-1.73,2.39A17.34,17.34,0,0,1,201.38,310.08Z" style="fill:#383838"></path><path d="M275.23,358.46c-5.56,0-4.82,4.08-7.05,7.05a6.05,6.05,0,0,1-1,1.09h11.08a10.18,10.18,0,0,1,0-2.2c.37-3,4.08-.75,5.19,1.48,0,0,0,.05.05.08.85-1.33,2.92-4.63,5.28-8.76-1.49.32-3.25.68-5.33,1.26C276.71,360.32,280.79,358.46,275.23,358.46Z" style="fill:#383838"></path><path d="M214,313.4c-.53.16-1.1.35-1.76.57-2.54.84-1.43,2.34-.59,4.8l.59-.35C215.3,316.55,215.28,315.27,214,313.4Z" style="fill:#383838"></path><path d="M270.17,313.83a16.77,16.77,0,0,1-1.92-1.84c-2.37,1.36-4.84,3-7.25,4.65,1.15-.31,2.61-.7,4.59-1.19A24,24,0,0,0,270.17,313.83Z" style="fill:#4c4c4c"></path><path d="M245.94,341.41a7.37,7.37,0,0,0,.59-2.57A16.46,16.46,0,0,1,245.94,341.41Z" style="fill:#4c4c4c"></path><path d="M204.62,323.79l-.52.52c.05,2.42-.15,4.29-2.2,5.12l1.13,3.26a32.11,32.11,0,0,0,1.38-5A7.92,7.92,0,0,0,204.62,323.79Z" style="fill:#4c4c4c"></path><path d="M212.19,318.42l-.59.35a10.89,10.89,0,0,1,.59,2.61c.37,4.08,3.34-.74,6.31-1.48s1.85,2.22,1.85,5.93-.74,4.08-4.45,7.05-3,1.48-4.82,4.82c-1.54,2.77-2.32,3.5-4.66,4.73l1.42,4.08a24,24,0,0,0,3.61-.28c1.48-1.49,10.38-2.23,11.5,4.08,1,5.75-3.56,6.55-12.27,4.39l4.14,11.9h9.29c2.59-2.57,10.33-1.46,10.33-1.46s.75-.18,1.82-.37c-1.12-1.85-3.21-4.27-4.79-7.42-.14-.3-.26-.57-.37-.84-5.76-1.1-9.39-3.24-3-6.2,3.37-1.56,6.37-2.75,8.92-3.77-3.21.12-6.72-.31-9.66-.31-6.68,0-.38-4.08,5.93-9.27s-3.34-4.82,2.22-10.39a20.89,20.89,0,0,1,3-2.44c-5-3.77-11.47-9.34-16.39-10.77l-3-.88a16.33,16.33,0,0,0-5.21.92C215.28,315.27,215.3,316.55,212.19,318.42Z" style="fill:#4c4c4c"></path><path d="M197.63,317.14l1.18,3.39c3.36-1.62,5.22-1.94,5.22.85,0,.43,0,.84,0,1.25a3.3,3.3,0,0,1,.56,1.16,7.92,7.92,0,0,1-.21,3.9,32.11,32.11,0,0,1-1.38,5l3.39,9.74c2.34-1.23,3.12-2,4.66-4.73,1.85-3.34,1.11-1.86,4.82-4.82s4.45-3.34,4.45-7.05,1.11-6.67-1.85-5.93-5.94,5.56-6.31,1.48a10.89,10.89,0,0,0-.59-2.61c-.84-2.46-1.95-4,.59-4.8-5.11,2.1-3.88-.18-3.24-3.88a31.7,31.7,0,0,0-3.5-.18c-1.47,0-2.84.07-4.07.17a17.34,17.34,0,0,0-1.8,2.4C198.25,314.58,198.29,316.38,197.63,317.14Z" style="fill:#b2b2b2"></path><path d="M212.19,314c.66-.22,1.23-.41,1.76-.57a16.33,16.33,0,0,1,5.21-.92l-1.67-.49C216.25,312.52,214.6,313,212.19,314Z" style="fill:#b2b2b2"></path><path d="M270.17,313.83a12.76,12.76,0,0,0,5.8,2.73c10,1.86,15.58-8.16,17.43-1.85,1.52,5.18.8,10.1,4.41,10.87a55.84,55.84,0,0,0-7.19-16s-4.21-2.35-13.2-1.35c-2.45.27-5.69,1.74-9.17,3.76A16.77,16.77,0,0,0,270.17,313.83Z" style="fill:#b2b2b2"></path><path d="M277.83,320.64c-6.68,1.48,6.3,11.12,5.56,15.2-.63,3.43-3.88,2.15-8.42,3.2a15.2,15.2,0,0,1-12.44,6.58l-.65.61c-6.3,5.93-8.16,11.12-12.24,8.9s-5.93-6.68-10.38-4.82c-4.23,1.76-10.12,1.18-8.16,6.2.11.27.23.54.37.84,1.58,3.15,3.67,5.57,4.79,7.42,2.72-.48,7.56-1,7.82,1.11a1.14,1.14,0,0,1-.12.72h7.73a5.67,5.67,0,0,1,1.26,0h14.19a6.05,6.05,0,0,0,1-1.09c2.23-3,1.49-7.05,7.05-7.05s1.48,1.86,8.16,0c2.08-.58,3.84-.94,5.33-1.26,3.12-5.48,6.72-12.43,8.61-18.19a37.26,37.26,0,0,0-1.33-4.28S284.5,319.16,277.83,320.64Z" style="fill:#b2b2b2"></path><path d="M278.2,364.4a10.18,10.18,0,0,0,0,2.2H283l.41-.64s0,0-.05-.08C282.28,363.65,278.57,361.43,278.2,364.4Z" style="fill:#b2b2b2"></path><path d="M275,339c.22-.31.43-.63.63-1,5.56-9.27-2.22-8.53-5.56-7.05,0,0-17.8,9.64-14.46,12.61,1.34,1.2,3.95,2,6.95,2A15.2,15.2,0,0,0,275,339Z" style="fill:#4c4c4c"></path><path d="M233.33,337c-6.31,5.19-12.61,9.27-5.93,9.27,2.94,0,6.45.43,9.66.31,4.07-.15,7.63-1.19,8.88-5.13a16.46,16.46,0,0,0,.59-2.57c.73-4.89-1.44-6.26,5-8.19,7.41-2.22,8.53,1.86,10.75-5.19,1.34-4.24-.54-6.32-4.19-6.75-5.91,4.23-11,8.28-12.56,8.9-1.28.51-3.85-1.14-7-3.48a20.89,20.89,0,0,0-3,2.44C230,332.14,239.63,331.76,233.33,337Z" style="fill:#141414"></path><path d="M223,350.31c-1.12-6.31-10-5.57-11.5-4.08a24,24,0,0,1-3.61.28l2.84,8.19C219.39,356.86,224,356.06,223,350.31Z" style="fill:#141414"></path><path d="M244.08,365.88c-.26-2.13-5.1-1.59-7.82-1.11-1.07.19-1.82.37-1.82.37s-7.74-1.11-10.33,1.46H244A1.14,1.14,0,0,0,244.08,365.88Z" style="fill:#141414"></path><path d="M199.58,312.48a21.88,21.88,0,0,1,1.73-2.39,45.15,45.15,0,0,0-5.85.82l1.68,4.82A13.9,13.9,0,0,0,199.58,312.48Z" style="fill:#141414"></path><path d="M212.19,314c2.41-1,4.06-1.45,5.3-2a47.38,47.38,0,0,0-8.54-1.9C208.31,313.79,207.08,316.07,212.19,314Z" style="fill:#141414"></path><path d="M204.1,324.31c0-.53,0-1.09,0-1.68,0-.41,0-.82,0-1.25,0-2.79-1.86-2.47-5.22-.85l3.09,8.9C204,328.6,204.15,326.73,204.1,324.31Z" style="fill:#141414"></path><path d="M297.81,325.58a55.84,55.84,0,0,0-7.19-16s-4.21-2.35-13.2-1.35c-2.45.27-5.69,1.74-9.17,3.76-2.37,1.36-4.84,3-7.25,4.65-1,.68-2,1.38-2.94,2.07-5.91,4.23-11,8.28-12.56,8.9-1.28.51-3.85-1.14-7-3.48-5-3.77-11.47-9.34-16.39-10.77l-3-.88-1.67-.49a47.38,47.38,0,0,0-8.54-1.9,31.7,31.7,0,0,0-3.5-.18c-1.47,0-2.84.07-4.07.17h-.07a45.15,45.15,0,0,0-5.85.82l1.68,4.82.49,1.41,1.18,3.39,3.09,8.9,1.13,3.26,3.39,9.74,1.42,4.08,2.84,8.19,4.14,11.9H283l.41-.64c.85-1.33,2.92-4.63,5.28-8.76,3.12-5.48,6.72-12.43,8.61-18.19a33.41,33.41,0,0,0,.95-3.48A23.2,23.2,0,0,0,297.81,325.58Z" style="fill:none;stroke:#374248;stroke-miterlimit:10"></path><path d="M304.29,208.19h0l-.42.64Z" style="fill:#383838"></path><path d="M308.91,220.14a3.14,3.14,0,0,0-.56-1.16c0,.58,0,1.14,0,1.67Z" style="fill:#383838"></path><path d="M315.89,215.11l.59-.35c1.57-.94,2.34-1.74,2.55-2.53-1.16-.4-2.45-.81-3.79-1.2C314.46,211.92,315.25,213.24,315.89,215.11Z" style="fill:#383838"></path><path d="M303.53,226.24h-.4c-1.06,0-2.08,0-3.08.05l-.34,2.69A12.81,12.81,0,0,0,303.53,226.24Z" style="fill:#383838"></path><path d="M303.87,208.83a21.21,21.21,0,0,1-2,2.82l-.26,2.06C302.61,213.18,302.37,211.19,303.87,208.83Z" style="fill:#383838"></path><path d="M295.71,271a4.79,4.79,0,0,1-2,4.22l0,.26,1.49,1.21C297.6,274.42,296.82,272.33,295.71,271Z" style="fill:#383838"></path><path d="M304.25,231.07c3.33-.37,3.33-2.59,4.45-7a7.88,7.88,0,0,0,.21-3.89l-.52.51c.07,3.22-.31,5.46-4.86,5.59a12.81,12.81,0,0,1-3.82,2.75l-.11.89A9.17,9.17,0,0,0,304.25,231.07Z" style="fill:#4c4c4c"></path><path d="M312.4,250.36c-10.38-3-15.57-2.23-12.6,0s3,4.45-3,9.64-1.11,5.93-1.11,10.75c0,.07,0,.13,0,.2,1.11,1.38,1.89,3.47-.46,5.69L312,290.16c.36.29.86.78,1.44,1.35l3.05-.36c4.42-.56,4.32-1.32,6-3.66-4,.07-5.77-1.4-7.82-4.13-2.23-3-.74-3.34-.74-3.34s-6.31-.74-6.31-2.59,5.56-6.68,9.64-7.79a22.45,22.45,0,0,1,7.46-.78,21.38,21.38,0,0,0,.52-6.09c-.23-2.53-1.41-4.93-1.45-7.47,0-1.08,0-2.17,0-3.27C321.21,252.42,317.36,251.77,312.4,250.36Z" style="fill:#4c4c4c"></path><path d="M316.48,214.76l-.59.35a11,11,0,0,1,.59,2.62c.37,4.07,3.34-.75,6.31-1.49s1.85,2.23,1.85,5.94-.74,4.07-4.45,7-3,1.48-4.82,4.82-2.6,3.71-6.3,5.56-3.71-.74-7.05-4.08c-2.53-2.53-3.57-1.86-5.55-.9-.55,1-1.14,2-1.72,3.12a24.83,24.83,0,0,1,6.53,2.6c6.3,3.71,14.46,2.23,14.46,2.23,1-1,5.57-1.69,8.67.06.62-6.16,1.54-12.4,2.08-18.39.35-3.88.43-7.71-3.42-10.25a20.6,20.6,0,0,0-4-1.76C318.82,213,318.05,213.82,316.48,214.76Z" style="fill:#4c4c4c"></path><path d="M301.63,213.71l-.52,4.17c4.61-2.41,7.21-3.45,7.21-.15,0,.42,0,.84,0,1.25a3.14,3.14,0,0,1,.56,1.16,7.88,7.88,0,0,1-.21,3.89c-1.12,4.45-1.12,6.67-4.45,7a9.17,9.17,0,0,1-4.65-1.19V230a28.19,28.19,0,0,0-3.13,4.67c2-1,3-1.63,5.55.9,3.34,3.34,3.34,5.94,7.05,4.08s4.45-2.22,6.3-5.56,1.11-1.85,4.82-4.82,4.45-3.34,4.45-7,1.11-6.68-1.85-5.94-5.94,5.56-6.31,1.49a11,11,0,0,0-.59-2.62c-.64-1.87-1.43-3.19-.65-4.08l-.42-.13c-1.52.44-2.07.16-2.17-.6-3.24-.89-6.41-1.65-8.36-2.11l-.42.64C302.37,211.19,302.61,213.18,301.63,213.71Z" style="fill:#b2b2b2"></path><path d="M317.22,269.64c-4.08,1.11-9.64,5.93-9.64,7.79s6.31,2.59,6.31,2.59-1.49.37.74,3.34c2.05,2.73,3.79,4.2,7.82,4.13q.39-.56.93-1.23c-.1-3.25-.39-6.45-.33-8.28.11-3,1-6.08,1.63-9.12A22.45,22.45,0,0,0,317.22,269.64Z" style="fill:#b2b2b2"></path><path d="M316.48,291.15l-3.05.36c1.14,1.11,2.58,2.57,3.92,3.64a62.93,62.93,0,0,0,5.95-3.82,42.23,42.23,0,0,0,.08-5.07q-.54.67-.93,1.23C320.8,289.83,320.9,290.59,316.48,291.15Z" style="fill:#b2b2b2"></path><path d="M315.74,242.57s-8.16,1.48-14.46-2.23a24.83,24.83,0,0,0-6.53-2.6c-2.66,5-5.29,11-5.13,13.62.29,4.61,2.4,6.27,2.4,6.27s-.72,5.28-.23,7.13c.45,1.66,1.68,8.93,1.93,10.41a4.79,4.79,0,0,0,2-4.22c0-.07,0-.13,0-.2,0-4.82-4.82-5.56,1.11-10.75s5.93-7.42,3-9.64,2.22-3,12.6,0c5,1.41,8.81,2.06,11.36,1.67.08-3.09.32-6.23.65-9.4C321.31,240.88,316.76,241.55,315.74,242.57Z" style="fill:#141414"></path><path d="M320,296.63c2.16.2,3-2.15,3.32-5.3a62.93,62.93,0,0,1-5.95,3.82A6.1,6.1,0,0,0,320,296.63Z" style="fill:#141414"></path><path d="M303.87,208.83l.42-.64-1.92-.43-.48,3.89A21.21,21.21,0,0,0,303.87,208.83Z" style="fill:#141414"></path><path d="M314.82,210.9c-.72-.2-1.44-.41-2.17-.6C312.75,211.06,313.3,211.34,314.82,210.9Z" style="fill:#141414"></path><path d="M303.53,226.24c4.55-.13,4.93-2.37,4.86-5.59,0-.53,0-1.09,0-1.67,0-.41,0-.83,0-1.25,0-3.3-2.6-2.26-7.21.15l-1.06,8.42c1,0,2-.05,3.08-.05Z" style="fill:#141414"></path><path d="M324.41,242.63c.62-6.16,1.54-12.4,2.08-18.39.35-3.88.43-7.71-3.42-10.25a20.6,20.6,0,0,0-4-1.76c-1.16-.4-2.45-.81-3.79-1.2l-.42-.13c-.72-.2-1.44-.41-2.17-.6-3.24-.89-6.41-1.65-8.36-2.11h0l-1.92-.43-.48,3.89-.26,2.06-.52,4.17-1.06,8.42-.34,2.69-.11.89V230a28.19,28.19,0,0,0-3.13,4.67c-.55,1-1.14,2-1.72,3.12-2.66,5-5.29,11-5.13,13.62.29,4.61,2.4,6.27,2.4,6.27s-.72,5.28-.23,7.13c.45,1.66,1.68,8.93,1.93,10.41l0,.26,1.49,1.21L312,290.16c.36.29.86.78,1.44,1.35,1.14,1.11,2.58,2.57,3.92,3.64a6.1,6.1,0,0,0,2.63,1.48c2.16.2,3-2.15,3.32-5.3a42.23,42.23,0,0,0,.08-5.07c-.1-3.25-.39-6.45-.33-8.28.11-3,1-6.08,1.63-9.12a21.38,21.38,0,0,0,.52-6.09c-.23-2.53-1.41-4.93-1.45-7.47,0-1.08,0-2.17,0-3.27C323.84,248.94,324.08,245.8,324.41,242.63Z" style="fill:none;stroke:#374248;stroke-miterlimit:10"></path><path d="M263.21,215.07c-6.43,3-2.8,5.1,3,6.2-2-5,3.93-4.44,8.16-6.2a4.57,4.57,0,0,1,4.48.31,43.76,43.76,0,0,0-1-5.32,13.24,13.24,0,0,1-5.66,1.24C269.58,212.32,266.58,213.51,263.21,215.07Z" style="fill:#383838"></path><path d="M268,251.41c-1-.39-3.37.74-6.12,2,.12.24.23.49.35.75,3.49-1.54,5.83-1.6,7-1l.12-.2A2.88,2.88,0,0,0,268,251.41Z" style="fill:#4c4c4c"></path><path d="M246.15,202.46c-1.85,3.34-2.6,3.71-6.3,5.56-3.37,1.68-3.69-.3-6.2-3.17a24.24,24.24,0,0,0-2.14,3.61l.55.3c6.3,3.71,14.46,2.23,14.46,2.23,1.48-1.49,10.38-2.23,11.5,4.08s-4.45,6.67-14.84,3.7-15.57-2.22-12.6,0c2.72,2,2.93,4.1-1.65,8.44-.36,6.2-.48,12.77.72,18.16,2,9,3.66,11.31,3.66,11.31L241,251l3.28-1.37c-.26-1,.43-1.21.43-1.21s-6.31-.74-6.31-2.6,5.56-6.67,9.64-7.78,5.94-.75,9.64-.75a20.62,20.62,0,0,0,2.27-.09,5.21,5.21,0,0,1-1.52-4.36c.74-4.45,11.12-3,11.12-3s.75-.18,1.82-.37c-1.12-1.85-3.21-4.27-4.79-7.42-.14-.3-.26-.57-.37-.84-5.76-1.1-9.39-3.24-3-6.2,3.37-1.56,6.37-2.75,8.92-3.77-3.21.12-6.72-.31-9.66-.31-6.68,0-.38-4.08,5.93-9.27a9,9,0,0,0,1.7-1.75l-23.24,1.24C246.66,201.54,246.44,201.93,246.15,202.46Z" style="fill:#4c4c4c"></path><path d="M271.57,232.82a43.69,43.69,0,0,0-7.25.79c-4.78,1.06-.25,1,4.48.85l2.19-1.22A2.71,2.71,0,0,0,271.57,232.82Z" style="fill:#4c4c4c"></path><path d="M239.85,208c3.7-1.85,4.45-2.22,6.3-5.56.29-.53.51-.92.71-1.25l-10.56.57a20.67,20.67,0,0,0-2.65,3.07C236.16,207.72,236.48,209.7,239.85,208Z" style="fill:#b2b2b2"></path><path d="M274.33,215.07c-4.23,1.76-10.12,1.18-8.16,6.2.11.27.23.54.37.84,1.58,3.15,3.67,5.57,4.79,7.42,2.1-.37,5.45-.77,7,0a43.73,43.73,0,0,0,.48-14.19A4.57,4.57,0,0,0,274.33,215.07Z" style="fill:#b2b2b2"></path><path d="M271,233.24l-2.19,1.22c1.88-.05,3.79-.11,5.16-.11,4.82,0,1.85,1.11,0,2.22a23.5,23.5,0,0,1-5.93,1.86s1.85,2.22-.74,4.82-6.31,1.11-8.53.74,0-3.71,2.59-4.08c1.54-.22,0-1.09-1.44-2.69a20.62,20.62,0,0,1-2.27.09c-3.7,0-5.56-.37-9.64.75s-9.64,5.93-9.64,7.78,6.31,2.6,6.31,2.6-.69.17-.43,1.21l4.7-2,7.56,4.54c2.93-2.59,4.19-1.31,5.41,1.15,2.75-1.23,5.15-2.36,6.12-2a2.88,2.88,0,0,1,1.33,1.55c1.95-3.28,4.54-8.77,7.53-17.91.32-1,.58-1.9.83-2.84a30.58,30.58,0,0,1-6.15.61A2.71,2.71,0,0,1,271,233.24Z" style="fill:#b2b2b2"></path><path d="M261.91,253.38c-1.22-2.46-2.48-3.74-5.41-1.15l4.32,2.59q.75-.39,1.44-.69C262.14,253.87,262,253.62,261.91,253.38Z" style="fill:#b2b2b2"></path><path d="M268.4,201.72c-6.31,5.19-12.61,9.27-5.93,9.27,2.94,0,6.45.43,9.66.31a13.24,13.24,0,0,0,5.66-1.24,36.54,36.54,0,0,0-4.23-10.28l-3.46.19A9,9,0,0,1,268.4,201.72Z" style="fill:#141414"></path><path d="M230.58,218.77c-3-2.22,2.22-3,12.6,0s15.95,2.6,14.84-3.7-10-5.57-11.5-4.08c0,0-8.16,1.48-14.46-2.23l-.55-.3a18.77,18.77,0,0,0-1.86,7.29c-.14,3.34-.48,7.32-.72,11.46C233.51,222.87,233.3,220.82,230.58,218.77Z" style="fill:#141414"></path><path d="M262.26,254.13q-.69.3-1.44.69l4.76,2.86s1.36-.69,3.66-4.52C268.09,252.53,265.75,252.59,262.26,254.13Z" style="fill:#141414"></path><path d="M271.33,229.53c-1.07.19-1.82.37-1.82.37s-10.38-1.49-11.12,3a5.21,5.21,0,0,0,1.52,4.36c1.4,1.6,3,2.47,1.44,2.69-2.59.37-4.82,3.71-2.59,4.08s5.93,1.85,8.53-.74.74-4.82.74-4.82a23.5,23.5,0,0,0,5.93-1.86c1.85-1.11,4.82-2.22,0-2.22-1.37,0-3.28.06-5.16.11-4.73.13-9.26.21-4.48-.85a43.69,43.69,0,0,1,7.25-.79,30.58,30.58,0,0,0,6.15-.61c.23-.89.44-1.77.61-2.64C276.78,228.76,273.43,229.16,271.33,229.53Z" style="fill:#141414"></path><path d="M278.81,215.38a43.76,43.76,0,0,0-1-5.32,36.54,36.54,0,0,0-4.23-10.28l-3.46.19-23.24,1.24-10.56.57a20.67,20.67,0,0,0-2.65,3.07,24.24,24.24,0,0,0-2.14,3.61,18.77,18.77,0,0,0-1.86,7.29c-.14,3.34-.48,7.32-.72,11.46-.36,6.2-.48,12.77.72,18.16,2,9,3.66,11.31,3.66,11.31L241,251l3.28-1.37,4.7-2,7.56,4.54,4.32,2.59,4.76,2.86s1.36-.69,3.66-4.52l.12-.2c1.95-3.28,4.54-8.77,7.53-17.91.32-1,.58-1.9.83-2.84s.44-1.77.61-2.64A43.73,43.73,0,0,0,278.81,215.38Z" style="fill:none;stroke:#374248;stroke-miterlimit:10"></path><path d="M239,233.72s.33,7.65,3.33,12,9.31,14,9.31,14,10.32-13.64,12.32-16S266.91,227.4,239,233.72Z" style="fill:#263238;stroke:#263238;stroke-miterlimit:10"></path><path d="M232.65,199.88s-2-4.7-4.5-2.94c-3.19,2.21-1.76,5.28,0,10.77s4.5,4.89,5.29,3.72S232.65,199.88,232.65,199.88Z" style="fill:#fff;stroke:#263238;stroke-miterlimit:10"></path><path d="M279.34,199.88s2-4.7,4.5-2.94c3.19,2.21,1.76,5.28,0,10.77s-4.5,4.89-5.29,3.72S279.34,199.88,279.34,199.88Z" style="fill:#fff;stroke:#263238;stroke-miterlimit:10"></path><path d="M233.63,184.21a80.16,80.16,0,0,0-.78,22.91c1.37,12.92,2.74,22.32,4.7,27.8s8.61,13.51,15.46,15.27,16.64-5.09,19.58-9.2,4.11-15.27,5.48-25.26c1.31-9.55,2-14.48,1.37-26.23s-7.83-19.58-21.53-21.34S235.2,176.58,233.63,184.21Z" style="fill:#fff;stroke:#263238;stroke-miterlimit:10"></path><path d="M257.91,168.16c-13.71-1.76-22.71,8.42-24.28,16.05a78,78,0,0,0-1.11,18.8.41.41,0,0,0,.52,0c1.18-.79,1.77-3.53,2.35-3.53s2.35,9.21,12.14,13.32,17.82,2.35,21.54-.39,9-11,9-11-.59,3.13-.19,3.92c.24.48,1.14.3,1.8.08a134.09,134.09,0,0,0-.24-15.94C278.86,177.75,271.61,169.92,257.91,168.16Z" style="fill:#263238;stroke:#263238;stroke-miterlimit:10"></path><path d="M240.87,221.22a15.7,15.7,0,0,0,9.6,5.28" style="fill:none;stroke:#263238;stroke-linecap:round;stroke-miterlimit:10;stroke-width:2px"></path><path d="M262.41,227.09s6.66-1.76,10.18-6.46" style="fill:none;stroke:#263238;stroke-linecap:round;stroke-miterlimit:10;stroke-width:2px"></path><path d="M249.1,227.87a12.44,12.44,0,0,1-5.29,2" style="fill:none;stroke:#263238;stroke-miterlimit:10"></path><path d="M180,398s11.94,41.11,11.94,43.22-4.92,12.64-8.08,20.37-4.21,9.84-.35,13.7,15.11,6.68,21.08,3.52,9.49-8.44,9.49-14.41-.36-12.65,0-17.91.35-10.9.35-17.92,3.16-32.67,3.16-32.67S184.9,399.06,180,398Z" style="fill:#263238;stroke:#263238;stroke-linecap:round;stroke-linejoin:round"></path><path d="M195.63,403.93s4.28,35.65,4.28,39.21-1.78,12.12-2.85,12.83-6.75.8-10,3.21" style="fill:none;stroke:#fff;stroke-linecap:round;stroke-linejoin:round"></path><path d="M204.9,404.65s-1.43,37.07-1.43,38.85-.71,12.83-.71,12.83,3.21.71,5.35,1.43a29.53,29.53,0,0,1,5,2.49" style="fill:none;stroke:#fff;stroke-linecap:round;stroke-linejoin:round"></path><path d="M196,476.29c-10.08-1.09-13.29-6.76-14.24-9.37-1.27,3.71-1,5.59,1.74,8.37,3.87,3.87,15.11,6.68,21.08,3.52,4.81-2.55,8-6.47,9.09-11C210.25,472.53,205.77,477.35,196,476.29Z" style="fill:#263238;stroke:#fff;stroke-miterlimit:10"></path><path d="M196.7,451.7l9.27.35-8.2-7.84,7.49-3.21-8.56-7.48s9.63-2.14,10.34-3.57-10-6.77-10-6.77l8.91-5-10.34-5.34,12.48-5H194.56l11.77,5.7-10.7,4.63,10,5-9.26,5.71L206,435.3l-9.27,4.63,8.56,5.71Z" style="fill:none;stroke:#fff;stroke-linecap:round;stroke-linejoin:round"></path><path d="M312.52,398s-11.95,41.11-11.95,43.22,4.92,12.64,8.08,20.37,4.22,9.84.35,13.7-15.1,6.68-21.08,3.52-9.48-8.44-9.48-14.41.35-12.65,0-17.91-.35-10.9-.35-17.92-3.17-32.67-3.17-32.67S307.6,399.06,312.52,398Z" style="fill:#263238;stroke:#263238;stroke-linecap:round;stroke-linejoin:round"></path><path d="M296.86,403.93s-4.28,35.65-4.28,39.21,1.79,12.12,2.85,12.83,6.75.8,10,3.21" style="fill:none;stroke:#fff;stroke-linecap:round;stroke-linejoin:round"></path><path d="M287.59,404.65S289,441.72,289,443.5s.71,12.83.71,12.83-3.21.71-5.34,1.43a29.53,29.53,0,0,0-5,2.49" style="fill:none;stroke:#fff;stroke-linecap:round;stroke-linejoin:round"></path><path d="M296.5,476.29c10.09-1.09,13.29-6.76,14.24-9.37,1.27,3.71,1,5.59-1.74,8.37-3.86,3.87-15.1,6.68-21.08,3.52-4.81-2.55-8-6.47-9.09-11C282.24,472.53,286.73,477.35,296.5,476.29Z" style="fill:#263238;stroke:#fff;stroke-miterlimit:10"></path><path d="M295.79,451.7l-9.27.35,8.2-7.84L287.24,441l8.55-7.48s-9.62-2.14-10.34-3.57,10-6.77,10-6.77l-8.91-5,10.34-5.34-12.47-5h13.54l-11.76,5.7,10.69,4.63-10,5,9.27,5.71-9.63,6.41,9.27,4.63-8.55,5.71Z" style="fill:none;stroke:#fff;stroke-linecap:round;stroke-linejoin:round"></path><path d="M219,374c.23,1.83,1.31,1.26,4,.29-.29-2.31-.63-4.66-1-7C218.88,368.41,218.64,371.49,219,374Z" style="fill:#383838"></path><path d="M174.49,329.9h-1.9c-.09.59-.17,1.17-.22,1.77A15.69,15.69,0,0,0,174.49,329.9Z" style="fill:#383838"></path><path d="M203.39,350.31c-6.43,3-2.8,5.1,3,6.2-2-5,3.94-4.44,8.16-6.2a4.65,4.65,0,0,1,4.8.5,50.11,50.11,0,0,1-.68-5.9,12.13,12.13,0,0,1-6.32,1.63C209.76,347.56,206.76,348.75,203.39,350.31Z" style="fill:#383838"></path><path d="M179.87,323.79a3.3,3.3,0,0,0-.56-1.16c0,.59,0,1.15,0,1.68Z" style="fill:#383838"></path><path d="M186.85,318.77l.59-.35c3.11-1.87,3.09-3.15,1.76-5-.53.16-1.1.35-1.76.57C184.9,314.81,186,316.31,186.85,318.77Z" style="fill:#383838"></path><path d="M220.07,395.91c-1.11,4.45-3,3.34-11.49,5.94-7.79,2.37-5.07,2-8.78,3.85,7.81-.16,17.86-4.14,22.34-9.45,1.45-1.73,1.91-5.56,1.8-10.39a18.92,18.92,0,0,0-2.75.78C216.37,388.5,221.19,391.46,220.07,395.91Z" style="fill:#4c4c4c"></path><path d="M183.36,401.48a6.65,6.65,0,0,0-5.18.08,34.6,34.6,0,0,0,4.13,1l1.32-.92Z" style="fill:#4c4c4c"></path><path d="M175.21,334.73c3.33-.37,3.33-2.59,4.45-7a7.92,7.92,0,0,0,.21-3.9l-.52.52c.07,3.22-.31,5.46-4.86,5.59a15.69,15.69,0,0,1-2.12,1.79q-.12,1.28-.12,2.55A6.59,6.59,0,0,0,175.21,334.73Z" style="fill:#4c4c4c"></path><path d="M209.7,388.57a3.21,3.21,0,0,0-1.49-1.93c-1-.38-3.37.75-6.12,2,.12.24.23.49.35.75C206.22,387.7,208.66,387.77,209.7,388.57Z" style="fill:#4c4c4c"></path><path d="M209,369.7c.59-.32,1.28-.72,2.19-1.23a3.09,3.09,0,0,0,.58-.41,42.65,42.65,0,0,0-7.25.79C199.72,369.91,204.25,369.83,209,369.7Z" style="fill:#4c4c4c"></path><path d="M209,391.84c-1.15.89-2.55,2-4,3.13l.7-.17c2.95-.69,4.1-2.36,4.31-4A4.24,4.24,0,0,1,209,391.84Z" style="fill:#4c4c4c"></path><path d="M194.49,312.48a16.23,16.23,0,0,0-5.29.92c1.33,1.87,1.35,3.15-1.76,5l-.59.35a10.89,10.89,0,0,1,.59,2.61c.37,4.08,3.34-.74,6.31-1.48s1.85,2.22,1.85,5.93-.74,4.08-4.45,7.05-3,1.48-4.82,4.82-2.6,3.71-6.3,5.56-3.71-.74-7.05-4.08c-.17-.17-.33-.32-.49-.46.23,2.14.59,4.15.93,5.91,6.1,2.9,13.28,1.6,13.28,1.6,1.48-1.49,10.38-2.23,11.5,4.08s-4.45,6.67-14.84,3.7a52.42,52.42,0,0,0-9-1.85c0,8.65-.95,35.13-1.09,43.22a23.29,23.29,0,0,0,2.63.16,68.13,68.13,0,0,0,11.49-.74c4.42-.55,4.32-1.31,6-3.66-4,.08-5.77-1.39-7.82-4.12-2.23-3-.74-3.34-.74-3.34s-6.31-.74-6.31-2.6,5.57-6.67,9.64-7.78,5.94-.75,9.64-.75a20.62,20.62,0,0,0,2.27-.09,5.21,5.21,0,0,1-1.52-4.36c.74-4.45,11.12-3,11.12-3s.75-.18,1.82-.37c-1.12-1.85-3.21-4.27-4.79-7.42-.14-.3-.26-.57-.37-.84-5.76-1.1-9.39-3.24-3-6.2,3.37-1.56,6.37-2.75,8.92-3.77-3.2.12-6.72-.31-9.66-.31-6.68,0-.38-4.08,5.93-9.27s-3.34-4.82,2.22-10.39a22.14,22.14,0,0,1,4.88-3.63,18.85,18.85,0,0,0-3.73-6.61c-2.66-2.81-7.14-4.3-11.75-4.87C198.6,312.46,196.3,312.48,194.49,312.48Z" style="fill:#4c4c4c"></path><path d="M187.44,314c.66-.22,1.23-.41,1.76-.57a16.23,16.23,0,0,1,5.29-.92c1.81,0,4.11,0,5.71-1a37.49,37.49,0,0,0-6-.26C192.79,312.23,190.9,312.54,187.44,314Z" style="fill:#b2b2b2"></path><path d="M180,343.26c3.7-1.85,4.45-2.23,6.3-5.56s1.11-1.86,4.82-4.82,4.45-3.34,4.45-7.05,1.11-6.67-1.85-5.93-5.94,5.56-6.31,1.48a10.89,10.89,0,0,0-.59-2.61c-.84-2.46-1.95-4,.59-4.8-2.82,1.16-3.71,1-3.83,0a25.55,25.55,0,0,0-5.89,5.36c1,0,1.56.58,1.56,2.08,0,.43,0,.84,0,1.25a3.3,3.3,0,0,1,.56,1.16,7.92,7.92,0,0,1-.21,3.9c-1.12,4.45-1.12,6.67-4.45,7a6.59,6.59,0,0,1-3-.49,41.06,41.06,0,0,0,.24,4.48c.16.14.32.29.49.46C176.32,342.52,176.32,345.11,180,343.26Z" style="fill:#b2b2b2"></path><path d="M214.51,350.31c-4.22,1.76-10.12,1.18-8.16,6.2.11.27.23.54.37.84,1.58,3.15,3.67,5.57,4.79,7.42,2.72-.48,7.56-1,7.82,1.11.24,1.92-3.26,2-7.58,2.18a3.09,3.09,0,0,1-.58.41c-.91.51-1.6.91-2.19,1.23,1.88-.05,3.79-.11,5.16-.11,4.82,0,1.85,1.11,0,2.22a24,24,0,0,1-5.93,1.86s1.85,2.22-.74,4.82-6.31,1.11-8.53.74,0-3.71,2.59-4.08c1.54-.22,0-1.09-1.44-2.69a20.62,20.62,0,0,1-2.27.09c-3.7,0-5.56-.37-9.64.75s-9.64,5.93-9.64,7.78,6.31,2.6,6.31,2.6-1.49.37.74,3.34c2,2.73,3.79,4.2,7.82,4.12a22,22,0,0,1,2.56-3c3.45-3.45,4.81-2.16,6.12.49,2.75-1.23,5.15-2.36,6.12-2a3.21,3.21,0,0,1,1.49,1.93,1.56,1.56,0,0,1,.22,2.22c-.21,1.65-1.36,3.32-4.31,4l-.7.17-.69.55c-.63,2.43-3.43,4.1-5.28,6a6,6,0,0,1-2.45,1.37,20.74,20.74,0,0,1-2.13,2.17h0a17,17,0,0,0,5.42.67c3.71-1.89,1-1.48,8.78-3.85,8.53-2.6,10.38-1.49,11.49-5.94s-3.7-7.41,1.12-9.27a18.92,18.92,0,0,1,2.75-.78c-.08-3.46-.45-7.43-1-11.53-2.71,1-3.79,1.54-4-.29-.32-2.55-.08-5.63,3-6.69-.95-6.19-2-12.15-2.69-16.54A4.65,4.65,0,0,0,214.51,350.31Z" style="fill:#b2b2b2"></path><path d="M183.63,401.67l.08-.05-.35-.14Z" style="fill:#b2b2b2"></path><path d="M183.36,401.48l.35.14c1.63-1.11,3.26-2.09,4.47-2.74,4.82-2.59,12.24-8.53,12.24-8.53.72-.39,1.38-.7,2-1-.12-.26-.23-.51-.35-.75-1.31-2.65-2.67-3.94-6.12-.49a22,22,0,0,0-2.56,3c-1.65,2.35-1.55,3.11-6,3.66a68.13,68.13,0,0,1-11.49.74,23.29,23.29,0,0,1-2.63-.16c0,.64,0,1.18,0,1.57,0,2.3,2,3.67,4.88,4.61A6.65,6.65,0,0,1,183.36,401.48Z" style="fill:#b2b2b2"></path><path d="M196.71,402.59l-.22.26a6,6,0,0,0,2.45-1.37c1.85-1.86,4.65-3.53,5.28-6A52.34,52.34,0,0,0,196.71,402.59Z" style="fill:#b2b2b2"></path><path d="M208.58,337c-6.31,5.19-12.61,9.27-5.93,9.27,2.94,0,6.46.43,9.66.31a12.13,12.13,0,0,0,6.32-1.63s0-.08,0-.12c0-5.15-.38-14.66-2.94-21.85a22.14,22.14,0,0,0-4.88,3.63C205.24,332.14,214.88,331.76,208.58,337Z" style="fill:#141414"></path><path d="M198.2,350.31c-1.12-6.31-10-5.57-11.5-4.08,0,0-7.18,1.3-13.28-1.6.43,2.2.84,4,.94,5.08,0,.43,0,1.29,0,2.45a52.42,52.42,0,0,1,9,1.85C193.75,357,199.31,356.61,198.2,350.31Z" style="fill:#141414"></path><path d="M196.49,402.85l.22-.26a52.34,52.34,0,0,1,7.51-7.07l.69-.55c1.49-1.18,2.89-2.24,4-3.13a4.24,4.24,0,0,0,1-1,1.56,1.56,0,0,0-.22-2.22c-1-.8-3.48-.87-7.26.8-.64.28-1.3.59-2,1,0,0-7.42,5.94-12.24,8.53-1.21.65-2.84,1.63-4.47,2.74l-.08.05-1.32.92c4,.8,8.59,1.34,12.05,2.43A20.74,20.74,0,0,0,196.49,402.85Z" style="fill:#141414"></path><path d="M201.53,375.15c-2.59.37-4.82,3.71-2.59,4.08s5.93,1.85,8.53-.74.74-4.82.74-4.82a24,24,0,0,0,5.93-1.86c1.85-1.11,4.82-2.22,0-2.22-1.37,0-3.28.06-5.16.11-4.73.13-9.26.21-4.48-.85a42.65,42.65,0,0,1,7.25-.79c4.32-.2,7.82-.26,7.58-2.18-.26-2.13-5.1-1.59-7.82-1.11-1.07.19-1.82.37-1.82.37s-10.38-1.49-11.12,3a5.21,5.21,0,0,0,1.52,4.36C201.49,374.06,203.07,374.93,201.53,375.15Z" style="fill:#141414"></path><path d="M187.44,314c3.46-1.43,5.35-1.74,6.72-2.77a24.27,24.27,0,0,0-8.56,1.62,14.9,14.9,0,0,0-2,1.12C183.73,315,184.62,315.13,187.44,314Z" style="fill:#141414"></path><path d="M174.49,329.9c4.55-.13,4.93-2.37,4.86-5.59,0-.53,0-1.09,0-1.68,0-.41,0-.82,0-1.25,0-1.5-.54-2.1-1.56-2.08a29.1,29.1,0,0,0-3.36,5.12,18.17,18.17,0,0,0-1.77,5.5h1.9Z" style="fill:#141414"></path><path d="M223.94,385.86c-.08-3.46-.45-7.43-1-11.53-.29-2.31-.63-4.66-1-7-.95-6.19-2-12.15-2.69-16.54a50.11,50.11,0,0,1-.68-5.9s0-.08,0-.12c0-5.15-.38-14.66-2.94-21.85a18.85,18.85,0,0,0-3.73-6.61c-2.66-2.81-7.14-4.3-11.75-4.87a37.49,37.49,0,0,0-6-.26,24.27,24.27,0,0,0-8.56,1.62,14.9,14.9,0,0,0-2,1.12,25.55,25.55,0,0,0-5.89,5.36,29.1,29.1,0,0,0-3.36,5.12,18.17,18.17,0,0,0-1.77,5.5c-.09.59-.17,1.17-.22,1.77q-.12,1.28-.12,2.55a41.06,41.06,0,0,0,.24,4.48c.23,2.14.59,4.15.93,5.91.43,2.2.84,4,.94,5.08,0,.43,0,1.29,0,2.45,0,8.65-.95,35.13-1.09,43.22,0,.64,0,1.18,0,1.57,0,2.3,2,3.67,4.88,4.61a34.6,34.6,0,0,0,4.13,1c4,.8,8.59,1.34,12.05,2.43h0a17,17,0,0,0,5.42.67c7.81-.16,17.86-4.14,22.34-9.45C223.59,394.52,224.05,390.69,223.94,385.86Z" style="fill:none;stroke:#374248;stroke-miterlimit:10"></path><path d="M282.9,333.45a1.42,1.42,0,0,1,0-.2l-.3.22Z" style="fill:#383838"></path><path d="M291.76,315.82c7.41,3.71,4.82.74,7.41-3.34C296.58,316.56,296.21,316.93,291.76,315.82Z" style="fill:#383838"></path><path d="M288.42,381.82c4.83-2.76,3.95-5.52,2.59-7.22a4.83,4.83,0,0,1-2.27,4.42c-.34,1-2.14,2.57-3.95,4.57A30.93,30.93,0,0,0,288.42,381.82Z" style="fill:#383838"></path><path d="M272.18,365.72a8.13,8.13,0,0,1,1.54,1.88l.61-.24a10,10,0,0,0,2.92-1.61,14.14,14.14,0,0,0-2.55-.24A15.38,15.38,0,0,0,272.18,365.72Z" style="fill:#383838"></path><path d="M311.78,318.42l.74-.48a27,27,0,0,0-2.3-2.2,16.18,16.18,0,0,0,1,3Z" style="fill:#383838"></path><path d="M299.91,311.4h0c-.23.33-.47.68-.73,1.08C299.43,312.08,299.67,311.73,299.91,311.4Z" style="fill:#383838"></path><path d="M288.79,325.46c.9-.43,1.76-.86,2.58-1.28a25.67,25.67,0,0,0-4.43-1.31,57.67,57.67,0,0,1-8.16-1.49,17.15,17.15,0,0,1-2.17-.62,45.67,45.67,0,0,0-3.28,13.64l1-1.52C278.41,326.57,279.52,329.91,288.79,325.46Z" style="fill:#383838"></path><path d="M277,345.63a22.71,22.71,0,0,1-4.39,1.81c-.16,1.33-.41,3-.7,4.82,2.68-.24,4.15-.37,4.91-.46A12.43,12.43,0,0,1,277,345.63Z" style="fill:#383838"></path><path d="M286.88,312.3c-.73.21-1.45.44-2.14.7a38.68,38.68,0,0,1,3.8,1.35A5.58,5.58,0,0,1,286.88,312.3Z" style="fill:#383838"></path><path d="M298.83,329.9h-.4c-4.28,0-8.05.17-11.3,1.21a9.86,9.86,0,0,0,2,.27c1.41,0,3.06.84,4.77,1.67A12.14,12.14,0,0,0,298.83,329.9Z" style="fill:#383838"></path><path d="M276.92,341.41l1.22,0a17,17,0,0,1-.46-3.65C275.87,339.76,275.05,341.41,276.92,341.41Z" style="fill:#383838"></path><path d="M304.21,323.79a3.31,3.31,0,0,0-.57-1.16c0,.59,0,1.15.05,1.68Z" style="fill:#383838"></path><path d="M295.09,354c3,2.23,3,4.45-3,9.64S291,369.59,291,374.41c0,.07,0,.13,0,.19,1.36,1.7,2.24,4.46-2.59,7.22a30.93,30.93,0,0,1-3.63,1.77l-.08.09c-3.34,3.71-7.41,8.16-7.41,10,0,0,.37,5.93,1.11,7.42.62,1.23,4.31,3.23,7.46,3.65a2.22,2.22,0,0,1,.45.06,6.83,6.83,0,0,0,1.36,0c3.34-.37,2.59-4.82,4.82-7.78s3.34-1.49,7.79-1.49a68.13,68.13,0,0,0,11.49-.74c4.42-.55,4.32-1.31,6-3.66-4,.08-5.77-1.39-7.82-4.12-2.23-3-.74-3.34-.74-3.34s-6.31-.74-6.31-2.6,5.56-6.67,9.64-7.78a20.21,20.21,0,0,1,4.93-.79c-.18-6.22-.34-12.33-.41-16.72A40,40,0,0,1,307.7,354C297.32,351.05,292.13,351.79,295.09,354Z" style="fill:#4c4c4c"></path><path d="M303.69,324.31c.06,3.22-.31,5.46-4.86,5.59a12.14,12.14,0,0,1-4.9,3.16c1.9.93,3.86,1.87,5.61,1.67,3.34-.37,3.34-2.59,4.45-7a7.83,7.83,0,0,0,.22-3.9Z" style="fill:#4c4c4c"></path><path d="M307.7,401.48c-3.57-1.57-7.54.9-9.73,3.28,2.37-.66,5.16-1.11,7.89-1.58.68-.51,1.39-1,2.11-1.51Z" style="fill:#4c4c4c"></path><path d="M274.7,365.51a14.14,14.14,0,0,1,2.55.24c2.57-2.13,1.9-4.72,1.9-6.17,0-1.14-1.66-4.21-2.36-7.78-.76.09-2.23.22-4.91.46-.55,3.42-1.28,7.58-2,12a7.92,7.92,0,0,1,2.28,1.47A15.38,15.38,0,0,1,274.7,365.51Z" style="fill:#4c4c4c"></path><path d="M315.49,332.88c-3.71,3-3,1.48-4.82,4.82s-2.6,3.71-6.31,5.56-3.7-.74-7-4.08-4.08-1.11-7.79,0-5.86-1.41-6.63-5.73l-.34,0a36.76,36.76,0,0,0-4.88,4.32,17,17,0,0,0,.46,3.65c.72.05,1.51.12,2.28.22,4.3-2,11.39-.46,16.16,2.34,6.3,3.71,14.46,2.23,14.46,2.23.83-.83,4-1.43,6.77-.69.83-4.13,1.91-10.06,1-15.55A27.5,27.5,0,0,1,315.49,332.88Z" style="fill:#4c4c4c"></path><path d="M311.19,318.77a10.89,10.89,0,0,1,.59,2.61c.25,2.76,1.69,1.44,3.52.08a29,29,0,0,0-2.78-3.52l-.74.48Z" style="fill:#4c4c4c"></path><path d="M276.61,320.76a17.15,17.15,0,0,0,2.17.62,57.67,57.67,0,0,0,8.16,1.49,25.67,25.67,0,0,1,4.43,1.31c7.71-3.94,12.25-7.15,12.25-2.8,0,.43,0,.84,0,1.25a3.31,3.31,0,0,1,.57,1.16,7.83,7.83,0,0,1-.22,3.9c-1.11,4.45-1.11,6.67-4.45,7-1.75.2-3.71-.74-5.61-1.67-1.71-.83-3.36-1.67-4.77-1.67a9.86,9.86,0,0,1-2-.27,14.85,14.85,0,0,0-4.27,2.13,1.42,1.42,0,0,0,0,.2c.77,4.32,3,6.83,6.63,5.73s4.45-3.34,7.79,0,3.34,5.93,7,4.08,4.45-2.23,6.31-5.56,1.11-1.86,4.82-4.82a27.5,27.5,0,0,0,3.34-2.89,18.22,18.22,0,0,0-1.77-5.57,29.29,29.29,0,0,0-1.76-3c-1.83,1.36-3.27,2.68-3.52-.08a10.89,10.89,0,0,0-.59-2.61,16.18,16.18,0,0,1-1-3c-.43-.36-.84-.69-1.22-1-.65,0-.94-.25-1-.73a15.92,15.92,0,0,0-2.16-1.22,20,20,0,0,0-5.9-1.42c-.24.33-.48.68-.74,1.08-2.59,4.08,0,7-7.41,3.34a8.54,8.54,0,0,1-3.22-1.47,38.68,38.68,0,0,0-3.8-1.35,14.41,14.41,0,0,0-5.27,3.33A16.41,16.41,0,0,0,276.61,320.76Z" style="fill:#b2b2b2"></path><path d="M308.05,401.62l-.35-.14.27.19Z" style="fill:#b2b2b2"></path><path d="M302.88,381.08c0,1.86,6.31,2.6,6.31,2.6s-1.49.37.74,3.34c2.05,2.73,3.79,4.2,7.82,4.12l.24-.32c-.13-4.86-.35-11.64-.54-18.31a20.21,20.21,0,0,0-4.93.79C308.44,374.41,302.88,379.23,302.88,381.08Z" style="fill:#b2b2b2"></path><path d="M272.18,365.72a7.92,7.92,0,0,0-2.28-1.47c-.28,1.76-.56,3.56-.82,5.36,1.75-.83,3.38-1.52,4.64-2A8.13,8.13,0,0,0,272.18,365.72Z" style="fill:#b2b2b2"></path><path d="M278.41,401.11c-.74-1.49-1.11-7.42-1.11-7.42,0-1.85,4.07-6.3,7.41-10l.08-.09c1.81-2,3.61-3.57,3.95-4.57-1.75,1.22-4.58,2.33-8.85,4.66-4.78,2.61-8.55,2.91-12.41,1.9-.14,5,.31,8.9,1.8,10.67a17.84,17.84,0,0,0,2.81,2.64c1.57-3.64,3.78-7.15,4.09-3.35a21.47,21.47,0,0,1,.06,6,38.78,38.78,0,0,0,9,3.33,2.61,2.61,0,0,1,.66-.09C282.72,404.34,279,402.34,278.41,401.11Z" style="fill:#b2b2b2"></path><path d="M311.78,394.8a68.13,68.13,0,0,1-11.49.74c-4.45,0-5.57-1.48-7.79,1.49s-1.48,7.41-4.82,7.78a6.83,6.83,0,0,1-1.36,0,2.13,2.13,0,0,1,.88.43A21.37,21.37,0,0,0,297,405c.3-.1.62-.19.94-.27,2.19-2.38,6.16-4.85,9.73-3.28l.35.14c1.63-1.11,3.26-2.09,4.47-2.74a60.74,60.74,0,0,0,5.57-3.54c0-1.17-.06-2.71-.1-4.52l-.24.32C316.1,393.49,316.2,394.25,311.78,394.8Z" style="fill:#b2b2b2"></path><path d="M311,346.23s-8.16,1.48-14.46-2.23c-4.77-2.8-11.86-4.33-16.16-2.34,3.06.39,5.77,1.18,2.07,2a23.71,23.71,0,0,0-5.52,2,12.43,12.43,0,0,0-.18,6.17c.7,3.57,2.36,6.64,2.36,7.78,0,1.45.67,4-1.9,6.17a10,10,0,0,1-2.92,1.61l-.61.24c-1.26.49-2.89,1.18-4.64,2a143.46,143.46,0,0,0-1.6,16c3.86,1,7.63.71,12.41-1.9,4.27-2.33,7.1-3.44,8.85-4.66A4.83,4.83,0,0,0,291,374.6c0-.06,0-.12,0-.19,0-4.82-4.83-5.56,1.11-10.76s5.93-7.41,3-9.64,2.23-3,12.61,0a40,40,0,0,0,9.34,1.78c-.05-3.06-.06-5.29,0-6.08s.39-2.39.75-4.17C315,344.8,311.87,345.4,311,346.23Z" style="fill:#141414"></path><path d="M308.05,401.62l-.08.05c-.72.49-1.43,1-2.11,1.51,6.27-1.07,12.25-2.23,12.25-6.23,0-.4,0-.95,0-1.61a60.74,60.74,0,0,1-5.57,3.54C311.31,399.53,309.68,400.51,308.05,401.62Z" style="fill:#141414"></path><path d="M285.87,404.76a2.61,2.61,0,0,0-.66.09c.67.15,1.33.29,2,.4a2.13,2.13,0,0,0-.88-.43A2.22,2.22,0,0,0,285.87,404.76Z" style="fill:#141414"></path><path d="M276.18,395.54c-.31-3.8-2.52-.29-4.09,3.35a28,28,0,0,0,4.15,2.63A21.47,21.47,0,0,0,276.18,395.54Z" style="fill:#141414"></path><path d="M288.54,314.35a8.54,8.54,0,0,0,3.22,1.47c4.45,1.11,4.82.74,7.41-3.34.26-.4.5-.75.73-1.08a36.27,36.27,0,0,0-13,.9A5.58,5.58,0,0,0,288.54,314.35Z" style="fill:#141414"></path><path d="M309,314.77c-.37-.28-.71-.52-1-.73C308.06,314.52,308.35,314.78,309,314.77Z" style="fill:#141414"></path><path d="M282.49,343.63c3.7-.79,1-1.58-2.07-2-.77-.1-1.56-.17-2.28-.22l-1.22,0c-1.87,0-1.05-1.65.76-3.62a36.76,36.76,0,0,1,4.88-4.32l.3-.22a14.85,14.85,0,0,1,4.27-2.13c3.25-1,7-1.21,11.3-1.21h.4c4.55-.13,4.92-2.37,4.86-5.59,0-.53,0-1.09-.05-1.68,0-.41,0-.82,0-1.25,0-4.35-4.54-1.14-12.25,2.8-.82.42-1.68.85-2.58,1.28-9.27,4.45-10.38,1.11-14.46,7.42l-1,1.52a97.18,97.18,0,0,0-.54,10.39,25,25,0,0,1-.21,2.65,22.71,22.71,0,0,0,4.39-1.81A23.71,23.71,0,0,1,282.49,343.63Z" style="fill:#141414"></path><path d="M318,390.82c-.13-4.86-.35-11.64-.54-18.31-.18-6.22-.34-12.33-.41-16.72-.05-3.06-.06-5.29,0-6.08s.39-2.39.75-4.17c.83-4.13,1.91-10.06,1-15.55a18.22,18.22,0,0,0-1.77-5.57,30,30,0,0,0-4.54-6.48,27,27,0,0,0-2.3-2.2c-.43-.36-.84-.69-1.22-1s-.71-.52-1-.73a15.92,15.92,0,0,0-2.16-1.22,20,20,0,0,0-5.9-1.42h0a36.27,36.27,0,0,0-13,.9c-.73.21-1.45.44-2.14.7a14.41,14.41,0,0,0-5.27,3.33,16.41,16.41,0,0,0-2.86,4.43,45.67,45.67,0,0,0-3.28,13.64,97.18,97.18,0,0,0-.54,10.39,25,25,0,0,1-.21,2.65c-.16,1.33-.41,3-.7,4.82-.55,3.42-1.28,7.58-2,12-.28,1.76-.56,3.56-.82,5.36a143.46,143.46,0,0,0-1.6,16c-.14,5,.31,8.9,1.8,10.67a17.84,17.84,0,0,0,2.81,2.64,28,28,0,0,0,4.15,2.63,38.78,38.78,0,0,0,9,3.33c.67.15,1.33.29,2,.4A21.37,21.37,0,0,0,297,405c.3-.1.62-.19.94-.27,2.37-.66,5.16-1.11,7.89-1.58,6.27-1.07,12.25-2.23,12.25-6.23,0-.4,0-.95,0-1.61C318.07,394.17,318,392.63,318,390.82Z" style="fill:none;stroke:#374248;stroke-miterlimit:10"></path><path d="M280.81,265.85l-3.72-9.79s.2-11.55-.19-13.31-5.09-8-6.46-12.14-3.53-5.68-4.51-3.33,1.18,7.25,1.18,7.25-3.72-3.53-5.29-5.09-2.93-3.53-4.5-3.33-1.76.78-1.76.78-2.55-1.56-3.33,0a4.93,4.93,0,0,0-.59,2.74s-2.35,1.18-2.35,3.14a21.21,21.21,0,0,0,.79,4.69,14.27,14.27,0,0,0-.2,5.68c.59,2.55,2.55,7.64,3.13,9.2s9,8.42,9,8.42l4.89,11.16Z" style="fill:#fff;stroke:#263238;stroke-miterlimit:10"></path><path d="M267.11,234.53s3.72,3.52,4.89,5.87" style="fill:none;stroke:#263238;stroke-miterlimit:10"></path><line x1="255.56" y1="226.89" x2="265.74" y2="242.55" style="fill:none;stroke:#263238;stroke-miterlimit:10"></line><line x1="251.64" y1="229.63" x2="259.28" y2="243.73" style="fill:none;stroke:#263238;stroke-miterlimit:10"></line><line x1="250.08" y1="237.46" x2="255.36" y2="246.67" style="fill:none;stroke:#263238;stroke-miterlimit:10"></line><path d="M271.72,263.49h0l0,0Z" style="fill:#383838"></path><path d="M275,265c7.41,3.7,4.82.74,7.41-3.34C279.79,265.72,279.42,266.09,275,265Z" style="fill:#383838"></path><path d="M310.93,299.46c-6.42,3-2.8,5.11,3,6.21-2-5,3.93-4.45,8.16-6.21a4.84,4.84,0,0,1,2.58-.39,28.54,28.54,0,0,0-.63-3.59,1.54,1.54,0,0,0-.22-.34,16.86,16.86,0,0,1-3.93.55C317.31,296.71,314.31,297.9,310.93,299.46Z" style="fill:#383838"></path><path d="M283.51,260h0c-.35.47-.72,1-1.12,1.62A19.1,19.1,0,0,1,283.51,260Z" style="fill:#383838"></path><path d="M274.58,273.34a26.71,26.71,0,0,0-4.43-1.32,55.89,55.89,0,0,1-8.16-1.48l-.19-.05L259.72,272s1.45,2.17,3.7,5.51a34.17,34.17,0,0,0,8.58-2.86C272.89,274.19,273.75,273.76,274.58,273.34Z" style="fill:#383838"></path><path d="M282,279.05l-.4,0c-4.28,0-8.05.17-11.3,1.21a10.49,10.49,0,0,0,2,.27c1.41,0,3.06.83,4.77,1.67A12.34,12.34,0,0,0,282,279.05Z" style="fill:#383838"></path><path d="M287.42,273a3.15,3.15,0,0,0-.57-1.16c0,.58,0,1.14,0,1.68Z" style="fill:#383838"></path><path d="M298.7,282c-3.71,3-3,1.49-4.82,4.82s-2.6,3.71-6.31,5.56-3.7-.74-7-4.07-4.08-1.12-7.79,0a5.47,5.47,0,0,1-1.86.24l1.15,1.7a25,25,0,0,1,7.76,2.88c6.3,3.7,14.46,2.22,14.46,2.22,1.48-1.48,10.38-2.22,11.49,4.08s-4.45,6.67-14.83,3.71c-5.35-1.53-9.31-2.07-11.5-1.93,4,6,7.37,10.89,8.26,12.13,2.07,2.9,9,6.42,14.72,8.29.9,0,1.86,0,3,0a20.75,20.75,0,0,0,2.27-.09,5.26,5.26,0,0,1-1.53-4.36c.75-4.45,11.13-3,11.13-3s.74-.18,1.82-.36c-1.12-1.86-3.21-4.27-4.79-7.42-.15-.3-.27-.58-.37-.84-5.77-1.1-9.39-3.24-3-6.21,3.38-1.56,6.38-2.75,8.93-3.77-3.21.12-6.73-.31-9.67-.31-6,0-1.48-3.32,4.09-7.77-3.94-2.91-8.38-6.14-11.94-8.87A18.62,18.62,0,0,1,298.7,282Z" style="fill:#4c4c4c"></path><path d="M315.75,318.87c.59-.49,1.17-1,1.73-1.56a36.31,36.31,0,0,0-5.43.69C307.53,319,311.33,319,315.75,318.87Z" style="fill:#4c4c4c"></path><path d="M286.9,273.47c.06,3.21-.31,5.45-4.86,5.58a12.34,12.34,0,0,1-4.9,3.17c1.9.93,3.86,1.86,5.61,1.67,3.34-.37,3.34-2.6,4.45-7.05a7.79,7.79,0,0,0,.22-3.89Z" style="fill:#4c4c4c"></path><path d="M262,270.54a55.89,55.89,0,0,0,8.16,1.48,26.71,26.71,0,0,1,4.43,1.32c7.71-3.95,12.25-7.16,12.25-2.8,0,.42,0,.84,0,1.25a3.15,3.15,0,0,1,.57,1.16,7.79,7.79,0,0,1-.22,3.89c-1.11,4.45-1.11,6.68-4.45,7.05-1.75.19-3.71-.74-5.61-1.67-1.71-.84-3.36-1.67-4.77-1.67a10.49,10.49,0,0,1-2-.27,14.75,14.75,0,0,0-3.82,1.82c1.36,2,2.84,4.21,4.36,6.48a5.47,5.47,0,0,0,1.86-.24c3.71-1.12,4.45-3.34,7.79,0s3.34,5.93,7,4.07,4.45-2.22,6.31-5.56S295,285,298.7,282a18.62,18.62,0,0,0,3.64-3.29c-3.26-2.5-5.78-4.58-6.47-5.57-1.7-2.46-8.44-9.25-12.36-13.14a19.1,19.1,0,0,0-1.13,1.61c-2.59,4.08,0,7-7.41,3.34a8.69,8.69,0,0,1-3.22-1.47l0,0-9.91,7Z" style="fill:#b2b2b2"></path><path d="M322.06,299.46c-4.23,1.76-10.12,1.19-8.16,6.21.1.26.22.54.37.84,1.58,3.15,3.67,5.56,4.79,7.42.56-.1,1.21-.2,1.89-.28a32.75,32.75,0,0,0,3.06-4.07c1.28-2.21,1.07-7,.63-10.51A4.84,4.84,0,0,0,322.06,299.46Z" style="fill:#b2b2b2"></path><path d="M307.64,321.62a20.75,20.75,0,0,1-2.27.09c-1.12,0-2.08,0-3,0a30.88,30.88,0,0,0,4.8,1.21,5.23,5.23,0,0,0,1.62-.06A16.66,16.66,0,0,1,307.64,321.62Z" style="fill:#b2b2b2"></path><path d="M310.19,295.38c2.94,0,6.46.43,9.67.31a16.86,16.86,0,0,0,3.93-.55c-.94-1.14-4.87-4.11-9.51-7.53C308.71,292.06,304.17,295.38,310.19,295.38Z" style="fill:#141414"></path><path d="M290.91,303.17c10.38,3,15.95,2.59,14.83-3.71s-10-5.56-11.49-4.08c0,0-8.16,1.48-14.46-2.22a25,25,0,0,0-7.76-2.88c2.49,3.71,5.06,7.52,7.38,11C281.6,301.1,285.56,301.64,290.91,303.17Z" style="fill:#141414"></path><path d="M317.24,314.29s-10.38-1.48-11.13,3a5.26,5.26,0,0,0,1.53,4.36,16.66,16.66,0,0,0,1.17,1.19c2.16-.39,4.62-2,6.94-3.94-4.42.12-8.22.13-3.7-.87a36.31,36.31,0,0,1,5.43-.69c1.27-1.21,2.45-2.48,3.47-3.66-.68.08-1.33.18-1.89.28C318,314.11,317.24,314.29,317.24,314.29Z" style="fill:#141414"></path><path d="M275,265c4.45,1.11,4.82.74,7.41-3.34.4-.63.77-1.15,1.12-1.62l-2.87-2.82-8.91,6.29,0,0A8.69,8.69,0,0,0,275,265Z" style="fill:#141414"></path><path d="M281.64,279.07l.4,0c4.55-.13,4.92-2.37,4.86-5.58,0-.54,0-1.1,0-1.68,0-.41,0-.83,0-1.25,0-4.36-4.54-1.15-12.25,2.8-.83.42-1.69.85-2.58,1.28a34.17,34.17,0,0,1-8.58,2.86l3.1,4.62a14.75,14.75,0,0,1,3.82-1.82C273.59,279.24,277.36,279.07,281.64,279.07Z" style="fill:#141414"></path><path d="M324.64,299.07a28.54,28.54,0,0,0-.63-3.59,1.54,1.54,0,0,0-.22-.34c-.94-1.14-4.87-4.11-9.51-7.53-3.94-2.91-8.38-6.14-11.94-8.87-3.26-2.5-5.78-4.58-6.47-5.57-1.7-2.46-8.44-9.25-12.36-13.14h0l-2.87-2.82-8.91,6.29h0l-9.91,7L259.72,272s1.45,2.17,3.7,5.51l3.1,4.62c1.36,2,2.84,4.21,4.36,6.48l1.15,1.7c2.49,3.71,5.06,7.52,7.38,11,4,6,7.37,10.89,8.26,12.13,2.07,2.9,9,6.42,14.72,8.29a30.88,30.88,0,0,0,4.8,1.21,5.23,5.23,0,0,0,1.62-.06c2.16-.39,4.62-2,6.94-3.94.59-.49,1.17-1,1.73-1.56,1.27-1.21,2.45-2.48,3.47-3.66a32.75,32.75,0,0,0,3.06-4.07C325.29,307.37,325.08,302.54,324.64,299.07Z" style="fill:none;stroke:#374248;stroke-miterlimit:10"></path></g><g id="Text"><path d="M86.57,133.52l.48,2c1.38,5.86.47,10-3.07,12.84,5.24.74,8.13,4.61,9.55,10.63l1.1,4.64c2.07,8.79-1.45,14.6-10.4,16.71L70.15,183.7l-13.44-57,13.5-3.19C79.49,121.36,84.5,124.73,86.57,133.52Zm-19-.76,3.55,15.06,3.5-.83c3.34-.79,5-2.73,4-7.29l-.75-3.17c-1-4.07-2.77-5.53-5.94-4.79ZM73.05,156l4.13,17.5,5.13-1.21c3-.71,4.31-2.48,3.31-6.71l-1.17-5c-1.25-5.29-3.34-6.51-7.41-5.55Z" style="fill:#263238"></path><path d="M96.6,151.28c-2.15-9.12,1.42-15.46,10.21-17.53s14.81,2,17,11.11l7,29.62c2.16,9.11-1.42,15.46-10.2,17.53s-14.82-2-17-11.11Zm16.07,28.07c1,4.07,3.12,5.19,6,4.52s4.27-2.64,3.31-6.71l-7.26-30.75c-1-4.07-3.11-5.2-6-4.52s-4.28,2.64-3.32,6.7Z" style="fill:#263238"></path><path d="M124.45,125.18c-2.15-9.11,1.43-15.45,10.21-17.53s14.82,2,17,11.12l7,29.62c2.15,9.11-1.42,15.45-10.21,17.52s-14.82-2-17-11.11Zm16.08,28.08c1,4.06,3.11,5.19,6,4.52s4.27-2.64,3.31-6.71l-7.25-30.76c-1-4.07-3.12-5.19-6-4.52s-4.27,2.64-3.31,6.71Z" style="fill:#263238"></path><path d="M184.31,150.62l-3.44-41.88,12.45-2.94,13.44,57-8.46,2-9.64-40.84,3.46,42.3-8.47,2-16.17-38.7,9.5,40.28-7.81,1.84-13.44-57,12.45-2.94Z" style="fill:#263238"></path><path d="M208.91,137.64l-6-20.32L197.3,93.56l8.95-2.11,5.61,23.76,3.72,20.85Zm8.58,2.18,2,8.62-8.62,2-2-8.63Z" style="fill:#263238"></path><path d="M224.36,134l-6-20.32-5.61-23.76,9-2.11,5.61,23.76L231,132.41Zm8.59,2.18,2,8.62-8.63,2-2-8.62Z" style="fill:#263238"></path><path d="M83.57,130.52l.48,2c1.38,5.86.47,10-3.07,12.84,5.24.74,8.13,4.61,9.55,10.63l1.1,4.64c2.07,8.79-1.45,14.6-10.4,16.71L67.15,180.7l-13.44-57,13.5-3.19C76.49,118.36,81.5,121.73,83.57,130.52Zm-19-.76,3.55,15.06,3.5-.83c3.34-.79,5-2.73,4-7.29l-.75-3.17c-1-4.07-2.77-5.53-5.94-4.79ZM70.05,153l4.13,17.5,5.13-1.21c3-.71,4.31-2.48,3.31-6.71l-1.17-5c-1.25-5.29-3.34-6.51-7.41-5.55Z" style="fill:#fff;stroke:#263238;stroke-miterlimit:10"></path><path d="M93.6,148.28c-2.15-9.12,1.42-15.46,10.21-17.53s14.81,2,17,11.11l7,29.62c2.16,9.11-1.42,15.46-10.2,17.53s-14.82-2-17-11.11Zm16.07,28.07c1,4.07,3.12,5.19,6,4.52s4.27-2.64,3.31-6.71l-7.26-30.75c-1-4.07-3.11-5.2-6-4.52s-4.28,2.64-3.32,6.7Z" style="fill:#fff;stroke:#263238;stroke-miterlimit:10"></path><path d="M121.45,122.18c-2.15-9.11,1.43-15.45,10.21-17.53s14.82,2,17,11.12l7,29.62c2.15,9.11-1.42,15.45-10.21,17.52s-14.82-2-17-11.11Zm16.08,28.08c1,4.06,3.11,5.19,6,4.52s4.27-2.64,3.31-6.71l-7.25-30.76c-1-4.07-3.12-5.19-6-4.52s-4.27,2.64-3.31,6.71Z" style="fill:#fff;stroke:#263238;stroke-miterlimit:10"></path><path d="M181.31,147.62l-3.44-41.88,12.45-2.94,13.44,57-8.46,2-9.64-40.84,3.46,42.3-8.47,2-16.17-38.7,9.5,40.28-7.81,1.84-13.44-57,12.45-2.94Z" style="fill:#fff;stroke:#263238;stroke-miterlimit:10"></path><path d="M205.91,134.64l-6-20.32L194.3,90.56l8.95-2.11,5.61,23.76,3.72,20.85Zm8.58,2.18,2,8.62-8.62,2-2-8.63Z" style="fill:#fff;stroke:#263238;stroke-miterlimit:10"></path><path d="M221.36,131l-6-20.32-5.61-23.76,9-2.11,5.61,23.76L228,129.41Zm8.59,2.18,2,8.62-8.63,2-2-8.62Z" style="fill:#fff;stroke:#263238;stroke-miterlimit:10"></path><path d="M353.46,285.43l.64,1.5c1.86,4.33,1.73,7.66-.62,10.3,4.14-.14,6.89,2.45,8.8,6.89l1.48,3.42c2.79,6.48.87,11.44-5.74,14.28l-10.38,4.47-18.09-42,10-4.29C346.35,277,350.67,279,353.46,285.43Zm-14.73,2,4.78,11.11,2.59-1.11c2.46-1.06,3.49-2.79,2-6.15l-1-2.34c-1.29-3-2.88-3.89-5.23-2.88Zm7.37,17.11,5.56,12.91,3.78-1.63c2.22-1,3-2.49,1.64-5.62l-1.58-3.66c-1.68-3.9-3.46-4.56-6.46-3.27Z" style="fill:#263238"></path><path d="M363.59,297.74c-2.89-6.72-1-12.09,5.48-14.88s11.68-.48,14.57,6.25L393.05,311c2.9,6.72,1,12.09-5.48,14.88s-11.68.48-14.57-6.25Zm16.19,19.43c1.3,3,3.11,3.57,5.21,2.67s2.93-2.62,1.64-5.62l-9.77-22.69c-1.29-3-3.11-3.57-5.21-2.67s-2.93,2.62-1.64,5.62Z" style="fill:#263238"></path><path d="M381.49,273.86c-2.9-6.72-1-12.09,5.48-14.88s11.67-.47,14.57,6.25L411,287.08c2.89,6.73,1,12.09-5.48,14.88s-11.68.48-14.57-6.25Zm16.19,19.43c1.29,3,3.11,3.58,5.21,2.67s2.93-2.61,1.63-5.61l-9.76-22.7c-1.3-3-3.11-3.57-5.21-2.67s-2.93,2.62-1.64,5.62Z" style="fill:#263238"></path><path d="M431,285.31l-8.34-31.78,9.18-3.95,18.1,42-6.25,2.69-13-30.14,8.41,32.1-6.24,2.69L415.2,271.35,428,301.06l-5.76,2.48-18.09-42,9.18-3.95Z" style="fill:#263238"></path><path d="M448.2,272l-7.38-14.83-7.55-17.53,6.61-2.84,7.54,17.53,5.7,15.55Zm6.91.51,2.74,6.36-6.37,2.74-2.74-6.36Z" style="fill:#263238"></path><path d="M459.6,267.06l-7.38-14.83-7.54-17.53,6.6-2.84,7.55,17.53,5.7,15.55Zm6.91.51,2.74,6.36-6.36,2.74-2.74-6.36Z" style="fill:#263238"></path><path d="M116.86,44.14l-.26,1c-.76,2.8-2.1,4.36-4.25,4.74,2.05,1.51,2.39,3.82,1.61,6.7l-.61,2.22c-1.14,4.2-4,5.86-8.25,4.7l-6.73-1.83,7.39-27.24,6.46,1.75C116.65,37.36,118,39.94,116.86,44.14ZM109,39.46l-2,7.2,1.67.45c1.6.44,2.76,0,3.35-2.18l.41-1.52c.53-1.94.1-3-1.42-3.39Zm-3,11.09-2.27,8.37,2.45.66c1.44.39,2.4-.06,2.94-2.08l.65-2.37c.68-2.53.08-3.53-1.87-4.06Z" style="fill:#263238"></path><path d="M117,54c1.19-4.36,4.16-6.23,8.36-5.09s5.82,4.25,4.64,8.61l-3.84,14.17C125,76,122,77.89,117.84,76.76s-5.83-4.26-4.65-8.62Zm.37,15.6c-.53,1.94.13,2.91,1.49,3.28s2.42-.13,3-2.08l4-14.71c.52-2-.13-2.92-1.49-3.29s-2.42.14-3,2.09Z" style="fill:#263238"></path><path d="M134.84,49.31C136,45,139,43.08,143.2,44.22s5.82,4.26,4.64,8.61L144,67c-1.18,4.36-4.15,6.23-8.36,5.09s-5.82-4.25-4.64-8.61Zm.37,15.6c-.53,2,.13,2.92,1.49,3.29s2.42-.14,3-2.09l4-14.71c.53-1.94-.13-2.92-1.49-3.28s-2.42.13-2.94,2.08Z" style="fill:#263238"></path><path d="M154.38,73.85l8.16-18.55,6,1.61-7.39,27.24-4-1.09,5.29-19.54-8.25,18.74-4.05-1.1,2-20.13-5.22,19.26-3.73-1L150.52,52l5.95,1.61Z" style="fill:#263238"></path><path d="M167.79,74l2.13-10L173,52.64l4.28,1.16L174.2,65.16,171,74.86Zm3.14,2.9L169.82,81l-4.13-1.12,1.12-4.13Z" style="fill:#263238"></path><path d="M175.19,76l2.12-10,3.08-11.36,4.28,1.16-3.08,11.36-3.21,9.7Zm3.14,2.9L177.21,83l-4.13-1.12,1.12-4.12Z" style="fill:#263238"></path><path d="M261.87,84.7v1.18c0,3.39-1,5.55-3.34,6.63,2.78,1.08,3.86,3.58,3.86,7.06v2.68c0,5.08-2.68,7.81-7.86,7.81h-8.14V77.13h7.82C259.57,77.13,261.87,79.62,261.87,84.7Zm-10.3-2.87v8.71h2c1.93,0,3.11-.85,3.11-3.49V85.22c0-2.35-.8-3.39-2.64-3.39Zm0,13.41v10.12h3c1.75,0,2.69-.8,2.69-3.25V99.24c0-3.06-1-4-3.34-4Z" style="fill:#263238"></path><path d="M281.73,115.69h-5.22l-.9-6h-6.35l-.89,6h-4.76l5.27-32.94h7.58Zm-11.81-10.45h5l-2.5-16.65Z" style="fill:#263238"></path><path d="M287.66,80v23.85H283V70.94h6.49l5.32,19.71V70.94h4.61v32.93H294.1Z" style="fill:#263238"></path><path d="M310.9,91.71h7.24v10.45c0,5.27-2.63,8.28-7.71,8.28s-7.72-3-7.72-8.28V85c0-5.27,2.63-8.28,7.72-8.28s7.71,3,7.71,8.28v3.2h-4.89V84.7c0-2.35-1-3.25-2.68-3.25s-2.68.9-2.68,3.25v17.79c0,2.35,1,3.2,2.68,3.2s2.68-.85,2.68-3.2V96.42H310.9Z" style="fill:#263238"></path><path d="M322.14,102.77l-.66-11.91V77.13h5.18V90.86L326,102.77Zm4.42,2.3v5h-5v-5Z" style="fill:#263238"></path><path d="M75.75,297.25l.49.8c1.42,2.31,1.62,4.21.51,5.91,2.34-.43,4.11.82,5.57,3.18L83.44,309c2.13,3.46,1.45,6.43-2.07,8.6L75.84,321,62.06,298.58l5.31-3.26C71,293.07,73.62,293.8,75.75,297.25Zm-8.2,2.37,3.64,5.91,1.37-.85c1.31-.8,1.76-1.87.66-3.66l-.77-1.25c-1-1.6-2-2-3.21-1.2Zm5.61,9.11,4.23,6.87,2-1.24c1.19-.73,1.49-1.66.47-3.33l-1.2-1.95c-1.28-2.07-2.35-2.3-4-1.32Z" style="fill:#263238"></path><path d="M102.21,310l-3.55,2.18-3.11-3.69-4.32,2.66,1.9,4.44-3.23,2L79.7,293l5.14-3.17Zm-12.4-2.16,3.39-2.09-8.66-10.27Z" style="fill:#263238"></path><path d="M91.31,283.28l10,16.21-3.17,1.95L84.34,279.06l4.42-2.72,11.86,11.18-8.25-13.4,3.13-1.93,13.78,22.38-3.61,2.23Z" style="fill:#263238"></path><path d="M112,281.51l4.92-3,4.37,7.09c2.21,3.58,1.67,6.73-1.78,8.86s-6.5,1.18-8.71-2.4l-7.16-11.64c-2.21-3.58-1.68-6.73,1.78-8.85s6.5-1.19,8.7,2.39l1.34,2.18-3.32,2.05-1.48-2.4c-1-1.6-2.06-1.77-3.18-1.09S106,276.4,107,278l7.44,12.09c1,1.6,2,1.74,3.16,1.05s1.47-1.7.48-3.3l-2.54-4.12-1.6,1Z" style="fill:#263238"></path><path d="M124.26,284.32l-5.42-7.82-5.75-9.33L116.6,265l5.75,9.34,4.54,8.36Zm4-.29,2.09,3.39-3.39,2.09-2.09-3.39Z" style="fill:#263238"></path><path d="M76.23,294l.49.8c1.42,2.3,1.62,4.2.51,5.9,2.34-.42,4.12.82,5.58,3.19l1.12,1.82c2.12,3.45,1.44,6.43-2.07,8.59l-5.54,3.41L62.54,295.29,67.85,292C71.5,289.77,74.11,290.5,76.23,294ZM68,296.32l3.64,5.91,1.38-.84c1.31-.81,1.75-1.88.65-3.67l-.77-1.24c-1-1.6-2-2-3.21-1.2Zm5.61,9.11,4.23,6.88,2-1.24c1.18-.73,1.48-1.67.46-3.33l-1.2-1.95c-1.28-2.08-2.35-2.31-3.94-1.32Z" style="fill:#fff;stroke:#263238;stroke-miterlimit:10"></path><path d="M102.69,306.71l-3.55,2.18L96,305.21l-4.31,2.66,1.89,4.43-3.23,2L80.18,289.7l5.15-3.17Zm-12.4-2.16,3.39-2.08L85,292.19Z" style="fill:#fff;stroke:#263238;stroke-miterlimit:10"></path><path d="M91.79,280l10,16.21-3.16,1.95L84.83,275.76l4.41-2.71,11.86,11.17-8.25-13.4L96,268.89l13.78,22.39-3.62,2.22Z" style="fill:#fff;stroke:#263238;stroke-miterlimit:10"></path><path d="M112.48,278.21l4.92-3,4.37,7.1c2.21,3.58,1.68,6.73-1.77,8.85s-6.51,1.19-8.71-2.4l-7.17-11.63c-2.2-3.59-1.67-6.73,1.78-8.86s6.5-1.18,8.71,2.4l1.34,2.17-3.33,2.05-1.47-2.4c-1-1.6-2.07-1.77-3.19-1.08s-1.44,1.73-.46,3.33l7.44,12.08c1,1.6,2,1.74,3.16,1s1.47-1.69.49-3.29l-2.54-4.13-1.6,1Z" style="fill:#fff;stroke:#263238;stroke-miterlimit:10"></path><path d="M124.75,281l-5.43-7.81-5.75-9.34,3.52-2.17,5.75,9.34,4.53,8.37Zm4-.28,2.08,3.39-3.38,2.08-2.09-3.39Z" style="fill:#fff;stroke:#263238;stroke-miterlimit:10"></path><path d="M388.51,122.56l.49.8c1.42,2.3,1.62,4.2.51,5.9,2.34-.42,4.12.82,5.58,3.18l1.12,1.83c2.12,3.45,1.44,6.43-2.07,8.59l-5.54,3.41-13.78-22.38,5.31-3.27C383.78,118.37,386.39,119.1,388.51,122.56Zm-8.2,2.36,3.64,5.91,1.38-.84c1.31-.81,1.75-1.88.65-3.67l-.77-1.25c-1-1.59-2-2-3.21-1.19Zm5.61,9.11,4.23,6.88,2-1.24c1.18-.73,1.48-1.67.46-3.33l-1.2-2c-1.28-2.08-2.34-2.31-3.94-1.32Z" style="fill:#263238"></path><path d="M415,135.31l-3.55,2.18-3.11-3.68L404,136.47l1.89,4.43-3.23,2-10.2-24.59,5.15-3.17Zm-12.4-2.16,3.39-2.08-8.66-10.28Z" style="fill:#263238"></path><path d="M404.07,108.59l10,16.21-3.16,2-13.78-22.39,4.41-2.71,11.86,11.17-8.25-13.4,3.14-1.93,13.78,22.39-3.62,2.22Z" style="fill:#263238"></path><path d="M424.76,106.81l4.92-3,4.38,7.1c2.2,3.58,1.67,6.73-1.78,8.85s-6.51,1.18-8.71-2.4l-7.17-11.64c-2.2-3.58-1.67-6.73,1.78-8.85s6.5-1.18,8.71,2.4l1.34,2.17-3.33,2-1.47-2.4c-1-1.6-2.07-1.77-3.18-1.08s-1.45,1.73-.47,3.33l7.44,12.08c1,1.6,2,1.74,3.16,1s1.47-1.69.49-3.29L428.33,109l-1.6,1Z" style="fill:#263238"></path><path d="M437,109.62l-5.43-7.82-5.75-9.33,3.52-2.17,5.75,9.34,4.53,8.36Zm4-.28,2.09,3.38-3.39,2.09-2.09-3.39Z" style="fill:#263238"></path><path d="M387.55,119.49l.49.8c1.42,2.3,1.62,4.21.51,5.91,2.34-.43,4.11.81,5.57,3.18l1.12,1.82c2.13,3.46,1.45,6.43-2.07,8.6l-5.53,3.4-13.78-22.38,5.31-3.27C382.81,115.31,385.42,116,387.55,119.49Zm-8.2,2.36,3.64,5.92,1.37-.85c1.31-.81,1.76-1.87.66-3.66l-.77-1.25c-1-1.6-2-2-3.21-1.2ZM385,131l4.23,6.87,2-1.24c1.19-.73,1.49-1.67.47-3.33l-1.2-2c-1.28-2.08-2.35-2.3-4-1.32Z" style="fill:#fff;stroke:#263238;stroke-miterlimit:10"></path><path d="M414,132.24l-3.55,2.19-3.11-3.69L403,133.4l1.9,4.44-3.23,2-10.2-24.58,5.14-3.17Zm-12.4-2.15L405,128l-8.66-10.28Z" style="fill:#fff;stroke:#263238;stroke-miterlimit:10"></path><path d="M403.11,105.52l10,16.21-3.17,2L396.14,101.3l4.42-2.72,11.86,11.17-8.25-13.39,3.13-1.93,13.78,22.38L417.47,119Z" style="fill:#fff;stroke:#263238;stroke-miterlimit:10"></path><path d="M423.8,103.74l4.92-3,4.37,7.1c2.21,3.58,1.68,6.73-1.78,8.86s-6.5,1.18-8.71-2.4l-7.16-11.64c-2.21-3.58-1.68-6.73,1.78-8.86s6.5-1.18,8.71,2.4l1.33,2.18-3.32,2L422.46,98c-1-1.6-2.06-1.78-3.18-1.09s-1.45,1.73-.46,3.33l7.44,12.09c1,1.6,2,1.74,3.16,1s1.47-1.7.48-3.3L427.36,106l-1.59,1Z" style="fill:#fff;stroke:#263238;stroke-miterlimit:10"></path><path d="M436.06,106.55l-5.42-7.81-5.75-9.34,3.51-2.16,5.75,9.33,4.54,8.37Zm4-.28,2.09,3.39-3.39,2.09-2.09-3.39Z" style="fill:#fff;stroke:#263238;stroke-miterlimit:10"></path><path d="M61.07,207.05v1.18c0,3.39-1,5.55-3.34,6.63,2.77,1.08,3.85,3.58,3.85,7.06v2.68c0,5.08-2.68,7.81-7.85,7.81H45.59V199.48H53.4C58.76,199.48,61.07,202,61.07,207.05Zm-10.31-2.87v8.71h2c1.92,0,3.1-.85,3.1-3.49v-1.83c0-2.35-.8-3.39-2.63-3.39Zm0,13.41v10.12h3c1.74,0,2.68-.8,2.68-3.25v-2.87c0-3.06-1-4-3.34-4Z" style="fill:#263238"></path><path d="M80.92,238H75.7l-.9-6H68.45l-.89,6H62.81l5.27-32.94h7.57ZM69.11,227.59h5l-2.5-16.65Z" style="fill:#263238"></path><path d="M86.85,202.37v23.85H82.19V193.29h6.49L94,213V193.29h4.61v32.93H93.29Z" style="fill:#263238"></path><path d="M110.09,214.06h7.25v10.45c0,5.27-2.64,8.28-7.72,8.28s-7.72-3-7.72-8.28V207.38c0-5.27,2.64-8.28,7.72-8.28s7.72,3,7.72,8.28v3.2h-4.9v-3.53c0-2.35-1-3.24-2.68-3.24s-2.68.89-2.68,3.24v17.79c0,2.35,1,3.2,2.68,3.2s2.68-.85,2.68-3.2v-6.07h-2.35Z" style="fill:#263238"></path><path d="M121.33,225.12l-.65-11.9V199.48h5.17v13.74l-.66,11.9Zm4.43,2.3v5h-5v-5Z" style="fill:#263238"></path><path d="M338.53,149.46l-1.27.88c-3.64,2.54-6.75,3-9.64,1.38.92,3.8-.95,6.83-4.7,9.44l-2.88,2c-5.47,3.81-10.42,3-14.3-2.59l-6.1-8.76,35.43-24.7,5.86,8.41C345,141.3,344,145.65,338.53,149.46Zm-4.64-13.24-9.36,6.53,1.51,2.17c1.45,2.08,3.24,2.71,6.08.73l2-1.37c2.53-1.77,3-3.4,1.67-5.38Zm-14.43,10.06-10.88,7.58,2.22,3.19c1.31,1.87,2.88,2.28,5.51.45l3.09-2.15c3.29-2.3,3.56-4.07,1.79-6.6Z" style="fill:#263238"></path><path d="M320.08,194.05l-3.91-5.62,5.75-5.44-4.76-6.83-7.1,3.52-3.56-5.12,39.38-19,5.68,8.14Zm2.38-20.54,3.74,5.37,16.05-15.17Z" style="fill:#263238"></path><path d="M362.9,173.68l-25.66,17.88-3.49-5,35.43-24.69,4.86,7-17.22,20.5L378,174.56l3.46,5-35.43,24.7-4-5.72Z" style="fill:#263238"></path><path d="M367.75,207.45l5.43,7.79-11.24,7.83c-5.66,4-10.88,3.38-14.69-2.09s-2.55-10.56,3.12-14.51l18.43-12.84c5.66-3.95,10.88-3.38,14.69,2.09s2.55,10.56-3.12,14.51l-3.44,2.4-3.67-5.26,3.79-2.65c2.53-1.76,2.72-3.55,1.48-5.32s-3-2.21-5.5-.45L353.9,212.29c-2.53,1.76-2.67,3.51-1.43,5.28s2.92,2.25,5.45.49l6.53-4.55L362.69,211Z" style="fill:#263238"></path><path d="M364.28,227.83l12.32-9.63,14.78-10.3,3.88,5.56-14.78,10.31L367.18,232Zm.84,6.49-5.36,3.74L356,232.69l5.36-3.74Z" style="fill:#263238"></path></g></svg>