<svg xmlns="http://www.w3.org/2000/svg" viewBox="0 0 500 500"><g id="background-simple"><path d="M447.77,343.7c-21.67,34.4-58.51,68.85-101,72.48-64.24,5.5-81.59,52.76-189,25.73a223,223,0,0,1-45.42-16.6,185.67,185.67,0,0,1-20.51-11.9c-58-38.78-79.26-102.06-69.74-161.67,12.51-78.39,74.37-104.15,114.08-118.5s99.59-89.51,205.38-63.77a216.35,216.35,0,0,1,46.69,17c33.83,17.15,65.82,46.18,80.48,81.95,1.1,2.69,2.11,5.42,3.06,8.17C490.13,230.59,477.31,296.8,447.77,343.7Z" style="fill:#92E3A9"></path><path d="M447.77,343.7c-21.67,34.4-58.51,68.85-101,72.48-64.24,5.5-81.59,52.76-189,25.73a223,223,0,0,1-45.42-16.6,185.67,185.67,0,0,1-20.51-11.9c-58-38.78-79.26-102.06-69.74-161.67,12.51-78.39,74.37-104.15,114.08-118.5s99.59-89.51,205.38-63.77a216.35,216.35,0,0,1,46.69,17c33.83,17.15,65.82,46.18,80.48,81.95,1.1,2.69,2.11,5.42,3.06,8.17C490.13,230.59,477.31,296.8,447.77,343.7Z" style="fill:#fff;opacity:0.8"></path></g><g id="Building"><g style="opacity:0.30000000000000004"><rect x="407.21" y="53.37" width="36.48" height="56.26" style="fill:none;stroke:#000;stroke-miterlimit:10"></rect><rect x="409.56" y="57" width="31.77" height="49" style="fill:none;stroke:#000;stroke-miterlimit:10"></rect><line x1="425.11" y1="57.32" x2="425.11" y2="106.22" style="fill:none;stroke:#000;stroke-miterlimit:10"></line><line x1="409.64" y1="94.99" x2="440.98" y2="94.99" style="fill:none;stroke:#000;stroke-miterlimit:10"></line><line x1="409.64" y1="81.65" x2="440.98" y2="81.65" style="fill:none;stroke:#000;stroke-miterlimit:10"></line><line x1="409.64" y1="68.31" x2="440.98" y2="68.31" style="fill:none;stroke:#000;stroke-miterlimit:10"></line><rect x="407.21" y="135.37" width="36.48" height="56.26" style="fill:none;stroke:#000;stroke-miterlimit:10"></rect><rect x="409.56" y="139" width="31.77" height="49" style="fill:none;stroke:#000;stroke-miterlimit:10"></rect><line x1="425.11" y1="139.32" x2="425.11" y2="188.22" style="fill:none;stroke:#000;stroke-miterlimit:10"></line><line x1="409.64" y1="176.99" x2="440.98" y2="176.99" style="fill:none;stroke:#000;stroke-miterlimit:10"></line><line x1="409.64" y1="163.65" x2="440.98" y2="163.65" style="fill:none;stroke:#000;stroke-miterlimit:10"></line><line x1="409.64" y1="150.31" x2="440.98" y2="150.31" style="fill:none;stroke:#000;stroke-miterlimit:10"></line><rect x="325.04" y="53.37" width="36.48" height="56.26" style="fill:none;stroke:#000;stroke-miterlimit:10"></rect><rect x="327.4" y="57" width="31.77" height="49" style="fill:none;stroke:#000;stroke-miterlimit:10"></rect><line x1="342.94" y1="57.32" x2="342.94" y2="106.22" style="fill:none;stroke:#000;stroke-miterlimit:10"></line><line x1="327.47" y1="94.99" x2="358.81" y2="94.99" style="fill:none;stroke:#000;stroke-miterlimit:10"></line><line x1="327.47" y1="81.65" x2="358.81" y2="81.65" style="fill:none;stroke:#000;stroke-miterlimit:10"></line><line x1="327.47" y1="68.31" x2="358.81" y2="68.31" style="fill:none;stroke:#000;stroke-miterlimit:10"></line><rect x="325.04" y="135.37" width="36.48" height="56.26" style="fill:none;stroke:#000;stroke-miterlimit:10"></rect><rect x="327.4" y="139" width="31.77" height="49" style="fill:none;stroke:#000;stroke-miterlimit:10"></rect><line x1="342.94" y1="139.32" x2="342.94" y2="188.22" style="fill:none;stroke:#000;stroke-miterlimit:10"></line><line x1="327.47" y1="176.99" x2="358.81" y2="176.99" style="fill:none;stroke:#000;stroke-miterlimit:10"></line><line x1="327.47" y1="163.65" x2="358.81" y2="163.65" style="fill:none;stroke:#000;stroke-miterlimit:10"></line><line x1="327.47" y1="150.31" x2="358.81" y2="150.31" style="fill:none;stroke:#000;stroke-miterlimit:10"></line><rect x="242.87" y="53.37" width="36.48" height="56.26" style="fill:none;stroke:#000;stroke-miterlimit:10"></rect><rect x="245.23" y="57" width="31.77" height="49" style="fill:none;stroke:#000;stroke-miterlimit:10"></rect><line x1="260.77" y1="57.32" x2="260.77" y2="106.22" style="fill:none;stroke:#000;stroke-miterlimit:10"></line><line x1="245.3" y1="94.99" x2="276.64" y2="94.99" style="fill:none;stroke:#000;stroke-miterlimit:10"></line><line x1="245.3" y1="81.65" x2="276.64" y2="81.65" style="fill:none;stroke:#000;stroke-miterlimit:10"></line><line x1="245.3" y1="68.31" x2="276.64" y2="68.31" style="fill:none;stroke:#000;stroke-miterlimit:10"></line><rect x="242.87" y="135.37" width="36.48" height="56.26" style="fill:none;stroke:#000;stroke-miterlimit:10"></rect><rect x="245.23" y="139" width="31.77" height="49" style="fill:none;stroke:#000;stroke-miterlimit:10"></rect><line x1="260.77" y1="139.32" x2="260.77" y2="188.22" style="fill:none;stroke:#000;stroke-miterlimit:10"></line><line x1="245.3" y1="176.99" x2="276.64" y2="176.99" style="fill:none;stroke:#000;stroke-miterlimit:10"></line><line x1="245.3" y1="163.65" x2="276.64" y2="163.65" style="fill:none;stroke:#000;stroke-miterlimit:10"></line><line x1="245.3" y1="150.31" x2="276.64" y2="150.31" style="fill:none;stroke:#000;stroke-miterlimit:10"></line><rect x="160.71" y="53.37" width="36.48" height="56.26" style="fill:none;stroke:#000;stroke-miterlimit:10"></rect><rect x="163.06" y="57" width="31.77" height="49" style="fill:none;stroke:#000;stroke-miterlimit:10"></rect><line x1="178.6" y1="57.32" x2="178.6" y2="106.22" style="fill:none;stroke:#000;stroke-miterlimit:10"></line><line x1="163.13" y1="94.99" x2="194.48" y2="94.99" style="fill:none;stroke:#000;stroke-miterlimit:10"></line><line x1="163.13" y1="81.65" x2="194.48" y2="81.65" style="fill:none;stroke:#000;stroke-miterlimit:10"></line><line x1="163.13" y1="68.31" x2="194.48" y2="68.31" style="fill:none;stroke:#000;stroke-miterlimit:10"></line><rect x="160.71" y="135.37" width="36.48" height="56.26" style="fill:none;stroke:#000;stroke-miterlimit:10"></rect><rect x="163.06" y="139" width="31.77" height="49" style="fill:none;stroke:#000;stroke-miterlimit:10"></rect><line x1="178.6" y1="139.32" x2="178.6" y2="188.22" style="fill:none;stroke:#000;stroke-miterlimit:10"></line><line x1="163.13" y1="176.99" x2="194.48" y2="176.99" style="fill:none;stroke:#000;stroke-miterlimit:10"></line><line x1="163.13" y1="163.65" x2="194.48" y2="163.65" style="fill:none;stroke:#000;stroke-miterlimit:10"></line><line x1="163.13" y1="150.31" x2="194.48" y2="150.31" style="fill:none;stroke:#000;stroke-miterlimit:10"></line><rect x="78.54" y="53.37" width="36.48" height="56.26" style="fill:none;stroke:#000;stroke-miterlimit:10"></rect><rect x="80.89" y="57" width="31.77" height="49" style="fill:none;stroke:#000;stroke-miterlimit:10"></rect><line x1="96.44" y1="57.32" x2="96.44" y2="106.22" style="fill:none;stroke:#000;stroke-miterlimit:10"></line><line x1="80.97" y1="94.99" x2="112.31" y2="94.99" style="fill:none;stroke:#000;stroke-miterlimit:10"></line><line x1="80.97" y1="81.65" x2="112.31" y2="81.65" style="fill:none;stroke:#000;stroke-miterlimit:10"></line><line x1="80.97" y1="68.31" x2="112.31" y2="68.31" style="fill:none;stroke:#000;stroke-miterlimit:10"></line><rect x="78.54" y="135.37" width="36.48" height="56.26" style="fill:none;stroke:#000;stroke-miterlimit:10"></rect><rect x="80.89" y="139" width="31.77" height="49" style="fill:none;stroke:#000;stroke-miterlimit:10"></rect><line x1="96.44" y1="139.32" x2="96.44" y2="188.22" style="fill:none;stroke:#000;stroke-miterlimit:10"></line><line x1="80.97" y1="176.99" x2="112.31" y2="176.99" style="fill:none;stroke:#000;stroke-miterlimit:10"></line><line x1="80.97" y1="163.65" x2="112.31" y2="163.65" style="fill:none;stroke:#000;stroke-miterlimit:10"></line><line x1="80.97" y1="150.31" x2="112.31" y2="150.31" style="fill:none;stroke:#000;stroke-miterlimit:10"></line><rect x="407.21" y="216.37" width="36.48" height="56.26" style="fill:none;stroke:#000;stroke-miterlimit:10"></rect><rect x="409.56" y="220" width="31.77" height="49" style="fill:none;stroke:#000;stroke-miterlimit:10"></rect><line x1="425.11" y1="220.32" x2="425.11" y2="269.22" style="fill:none;stroke:#000;stroke-miterlimit:10"></line><line x1="409.64" y1="257.99" x2="440.98" y2="257.99" style="fill:none;stroke:#000;stroke-miterlimit:10"></line><line x1="409.64" y1="244.65" x2="440.98" y2="244.65" style="fill:none;stroke:#000;stroke-miterlimit:10"></line><line x1="409.64" y1="231.31" x2="440.98" y2="231.31" style="fill:none;stroke:#000;stroke-miterlimit:10"></line><rect x="325.04" y="216.37" width="36.48" height="56.26" style="fill:none;stroke:#000;stroke-miterlimit:10"></rect><rect x="327.4" y="220" width="31.77" height="49" style="fill:none;stroke:#000;stroke-miterlimit:10"></rect><line x1="342.94" y1="220.32" x2="342.94" y2="269.22" style="fill:none;stroke:#000;stroke-miterlimit:10"></line><line x1="327.47" y1="257.99" x2="358.81" y2="257.99" style="fill:none;stroke:#000;stroke-miterlimit:10"></line><line x1="327.47" y1="244.65" x2="358.81" y2="244.65" style="fill:none;stroke:#000;stroke-miterlimit:10"></line><line x1="327.47" y1="231.31" x2="358.81" y2="231.31" style="fill:none;stroke:#000;stroke-miterlimit:10"></line><rect x="242.87" y="216.37" width="36.48" height="56.26" style="fill:none;stroke:#000;stroke-miterlimit:10"></rect><rect x="245.23" y="220" width="31.77" height="49" style="fill:none;stroke:#000;stroke-miterlimit:10"></rect><line x1="260.77" y1="220.32" x2="260.77" y2="269.22" style="fill:none;stroke:#000;stroke-miterlimit:10"></line><line x1="245.3" y1="257.99" x2="276.64" y2="257.99" style="fill:none;stroke:#000;stroke-miterlimit:10"></line><line x1="245.3" y1="244.65" x2="276.64" y2="244.65" style="fill:none;stroke:#000;stroke-miterlimit:10"></line><line x1="245.3" y1="231.31" x2="276.64" y2="231.31" style="fill:none;stroke:#000;stroke-miterlimit:10"></line><rect x="160.71" y="216.37" width="36.48" height="56.26" style="fill:none;stroke:#000;stroke-miterlimit:10"></rect><rect x="163.06" y="220" width="31.77" height="49" style="fill:none;stroke:#000;stroke-miterlimit:10"></rect><line x1="178.6" y1="220.32" x2="178.6" y2="269.22" style="fill:none;stroke:#000;stroke-miterlimit:10"></line><line x1="163.13" y1="257.99" x2="194.48" y2="257.99" style="fill:none;stroke:#000;stroke-miterlimit:10"></line><line x1="163.13" y1="244.65" x2="194.48" y2="244.65" style="fill:none;stroke:#000;stroke-miterlimit:10"></line><line x1="163.13" y1="231.31" x2="194.48" y2="231.31" style="fill:none;stroke:#000;stroke-miterlimit:10"></line><rect x="78.54" y="216.37" width="36.48" height="56.26" style="fill:none;stroke:#000;stroke-miterlimit:10"></rect><rect x="80.89" y="220" width="31.77" height="49" style="fill:none;stroke:#000;stroke-miterlimit:10"></rect><line x1="96.44" y1="220.32" x2="96.44" y2="269.22" style="fill:none;stroke:#000;stroke-miterlimit:10"></line><line x1="80.97" y1="257.99" x2="112.31" y2="257.99" style="fill:none;stroke:#000;stroke-miterlimit:10"></line><line x1="80.97" y1="244.65" x2="112.31" y2="244.65" style="fill:none;stroke:#000;stroke-miterlimit:10"></line><line x1="80.97" y1="231.31" x2="112.31" y2="231.31" style="fill:none;stroke:#000;stroke-miterlimit:10"></line><path d="M125.19,320h0a57.5,57.5,0,0,1,57.5,57.5V461a0,0,0,0,1,0,0h-115a0,0,0,0,1,0,0V377.5A57.5,57.5,0,0,1,125.19,320Z" style="fill:none;stroke:#000;stroke-miterlimit:10"></path><path d="M256.19,320h0a57.5,57.5,0,0,1,57.5,57.5V461a0,0,0,0,1,0,0h-115a0,0,0,0,1,0,0V377.5A57.5,57.5,0,0,1,256.19,320Z" style="fill:none;stroke:#000;stroke-miterlimit:10"></path><path d="M387.19,320h0a57.5,57.5,0,0,1,57.5,57.5V461a0,0,0,0,1,0,0h-115a0,0,0,0,1,0,0V377.5A57.5,57.5,0,0,1,387.19,320Z" style="fill:none;stroke:#000;stroke-miterlimit:10"></path><line x1="68.69" y1="301" x2="448.69" y2="301" style="fill:none;stroke:#000;stroke-miterlimit:10"></line><line x1="380.69" y1="44" x2="380.69" y2="300" style="fill:none;stroke:#000;stroke-miterlimit:10"></line><line x1="390.69" y1="44" x2="390.69" y2="300" style="fill:none;stroke:#000;stroke-miterlimit:10"></line><line x1="295.69" y1="44" x2="295.69" y2="300" style="fill:none;stroke:#000;stroke-miterlimit:10"></line><line x1="305.69" y1="44" x2="305.69" y2="300" style="fill:none;stroke:#000;stroke-miterlimit:10"></line><line x1="213.69" y1="44" x2="213.69" y2="300" style="fill:none;stroke:#000;stroke-miterlimit:10"></line><line x1="223.69" y1="44" x2="223.69" y2="300" style="fill:none;stroke:#000;stroke-miterlimit:10"></line><line x1="131.69" y1="44" x2="131.69" y2="300" style="fill:none;stroke:#000;stroke-miterlimit:10"></line><line x1="141.69" y1="44" x2="141.69" y2="300" style="fill:none;stroke:#000;stroke-miterlimit:10"></line></g></g><g id="Tree"><path d="M481.24,272.39a.81.81,0,0,0-.93-.75l-26.37,4.24a.8.8,0,0,1-.44-1.52l26.56-11.26a.78.78,0,0,0,.49-.79c-1.1-14.38-2.81-30.16-5-46.25a.81.81,0,0,0-.94-.68l-23.34,4.49a.8.8,0,0,1-.6-1.44l22.52-15.35a.84.84,0,0,0,.34-.79c-1.21-7.77-2.54-15.54-4-23.19l-1.84-7.66a.8.8,0,0,0-1.08-.55L453,176.51a.8.8,0,0,1-.87-1.3l13.52-13.52a.8.8,0,0,0,.21-.74c-2.7-12.59-5.69-24.57-8.91-35.35a.81.81,0,0,0-1.19-.45l-17.5,10.77a.8.8,0,0,1-1.07-1.14l15.4-21.56a.81.81,0,0,0,.11-.74,147.55,147.55,0,0,0-8.67-20.24.79.79,0,0,0-1-.35l-12.15,5.35a.8.8,0,0,1-1.08-1l3.81-11.49c.07-.21.34-1,.64-1.79l1-3c-2.82-2.61-5.71-4-8.65-4-3.15,0-6.23,1.61-9.24,4.56l4.53,15.71a.8.8,0,0,1-1.08,1l-10.93-4.81a.8.8,0,0,0-1,.35A154.82,154.82,0,0,0,400,113.9a.82.82,0,0,0,.11.73l14.39,20.15a.8.8,0,0,1-1.07,1.14l-16.23-10a.81.81,0,0,0-1.19.45c-3.24,10.94-6.23,23.07-8.95,35.81a.83.83,0,0,0,.22.74l12.29,12.28a.8.8,0,0,1-.87,1.3l-12.53-5.18a.79.79,0,0,0-1.09.58c-2,10.25-3.86,20.79-5.48,31.31a.77.77,0,0,0,.34.78l21.15,14.43a.8.8,0,0,1-.6,1.44l-21.87-4.2a.79.79,0,0,0-.94.67c-2.25,16.23-4,32.12-5.05,46.59a.8.8,0,0,0,.48.79l25.11,10.64a.8.8,0,0,1-.44,1.52l-24.88-4a.8.8,0,0,0-.92.75c-.49,8.32-.75,16-.75,22.86q0,6.51.31,12.51a.8.8,0,0,0,.56.72L398.33,317a.8.8,0,0,1-.19,1.56l-24.81,1.65a.81.81,0,0,0-.75.9c1.54,13.47,4.34,24.7,8.14,33.9a.78.78,0,0,0,1,.45l15.24-4.94a.8.8,0,0,1,.83,1.31L386,364.34a.8.8,0,0,0-.1,1c10.12,16.72,24.62,24,40.72,24,15.78,0,30-7,40.11-23a.82.82,0,0,0-.1-1L454,351.78a.8.8,0,0,1,.82-1.31l16.56,5.37a.8.8,0,0,0,1-.44c3.88-9.26,6.74-20.6,8.3-34.24a.81.81,0,0,0-.74-.9l-26.31-1.75a.8.8,0,0,1-.19-1.56l27.44-8.61a.79.79,0,0,0,.53-.55l.39-1.46a.57.57,0,0,0,0-.18c.14-3.43.22-7,.22-10.66C482,288.58,481.73,280.8,481.24,272.39Z" style="fill:#92E3A9"></path><path d="M481.24,272.39a.81.81,0,0,0-.93-.75l-26.37,4.24a.8.8,0,0,1-.44-1.52l26.56-11.26a.78.78,0,0,0,.49-.79c-1.1-14.38-2.81-30.16-5-46.25a.81.81,0,0,0-.94-.68l-23.34,4.49a.8.8,0,0,1-.6-1.44l22.52-15.35a.84.84,0,0,0,.34-.79c-1.21-7.77-2.54-15.54-4-23.19l-1.84-7.66a.8.8,0,0,0-1.08-.55L453,176.51a.8.8,0,0,1-.87-1.3l13.52-13.52a.8.8,0,0,0,.21-.74c-2.7-12.59-5.69-24.57-8.91-35.35a.81.81,0,0,0-1.19-.45l-17.5,10.77a.8.8,0,0,1-1.07-1.14l15.4-21.56a.81.81,0,0,0,.11-.74,147.55,147.55,0,0,0-8.67-20.24.79.79,0,0,0-1-.35l-12.15,5.35a.8.8,0,0,1-1.08-1l3.81-11.49c.07-.21.34-1,.64-1.79l1-3c-2.82-2.61-5.71-4-8.65-4-3.15,0-6.23,1.61-9.24,4.56l4.53,15.71a.8.8,0,0,1-1.08,1l-10.93-4.81a.8.8,0,0,0-1,.35A154.82,154.82,0,0,0,400,113.9a.82.82,0,0,0,.11.73l14.39,20.15a.8.8,0,0,1-1.07,1.14l-16.23-10a.81.81,0,0,0-1.19.45c-3.24,10.94-6.23,23.07-8.95,35.81a.83.83,0,0,0,.22.74l12.29,12.28a.8.8,0,0,1-.87,1.3l-12.53-5.18a.79.79,0,0,0-1.09.58c-2,10.25-3.86,20.79-5.48,31.31a.77.77,0,0,0,.34.78l21.15,14.43a.8.8,0,0,1-.6,1.44l-21.87-4.2a.79.79,0,0,0-.94.67c-2.25,16.23-4,32.12-5.05,46.59a.8.8,0,0,0,.48.79l25.11,10.64a.8.8,0,0,1-.44,1.52l-24.88-4a.8.8,0,0,0-.92.75c-.49,8.32-.75,16-.75,22.86q0,6.51.31,12.51a.8.8,0,0,0,.56.72L398.33,317a.8.8,0,0,1-.19,1.56l-24.81,1.65a.81.81,0,0,0-.75.9c1.54,13.47,4.34,24.7,8.14,33.9a.78.78,0,0,0,1,.45l15.24-4.94a.8.8,0,0,1,.83,1.31L386,364.34a.8.8,0,0,0-.1,1c10.12,16.72,24.62,24,40.72,24,15.78,0,30-7,40.11-23a.82.82,0,0,0-.1-1L454,351.78a.8.8,0,0,1,.82-1.31l16.56,5.37a.8.8,0,0,0,1-.44c3.88-9.26,6.74-20.6,8.3-34.24a.81.81,0,0,0-.74-.9l-26.31-1.75a.8.8,0,0,1-.19-1.56l27.44-8.61a.79.79,0,0,0,.53-.55l.39-1.46a.57.57,0,0,0,0-.18c.14-3.43.22-7,.22-10.66C482,288.58,481.73,280.8,481.24,272.39Z" style="fill:#fff;opacity:0.30000000000000004"></path><polygon points="428.25 329.16 426.98 256.89 449.2 238.48 426.82 247.57 426.4 223.95 426.22 224.33 426.35 220.87 425.75 186.91 444.15 169.93 426.11 180.75 425.71 184.35 424.97 142.26 424.57 150.56 422.62 213.45 421.78 211.78 407.35 202.4 422.51 217.14 420.04 296.88 397.25 289.71 419.78 305.21 418.08 359.98 409.51 358.26 417.82 368.64 416.89 398.5 415.76 461 430.57 461 428.37 335.71 446.31 331.57 428.25 329.16" style="fill:gray"></polygon></g><g id="Crowd"><path d="M225.13,336.14c-.54.27-.72,1.17-.45,1.17s.27.54.27.54-.09,3.06-.09,3.6a13.24,13.24,0,0,1-.36,2.89,7.12,7.12,0,0,0-.45,1.17l.27.72s-.63.36,0,1.08a13,13,0,0,0,2.25,2c.36.19.9.91,1.44,1.27s1.62,1,1.62,1l.18,4.5s-.9,7.84-.9,10.37-.54,6.67-.36,8.56.54,5.59.54,6.85-.27,2.88.9,3.78,4.33,1.26,4.33,1.26,7.75,1.54,8.38,1.54,5.41,1.8,7.84,2.07a28.24,28.24,0,0,0,4.15.18s1.08,2.34,2.07,2.34,2.79-.09,3.6-.09a15.9,15.9,0,0,1,3,.72s1.44,6.13,1.53,7.39S268,432.54,268,432.54s-1.38,12.84-1.38,14.82c0,1.06,0,7.71-.1,13.64h20.56l1.12-7,1.4,7h20.55l-7.63-29.81-.77-6.22-2.21-26.38-.54-7.66,3.06-.36a6.26,6.26,0,0,0,3.06.36c1.54-.27,2.26-2.79,2.26-2.79l8-2.89,4.77-1.71s3.25-.81,3.88-1.89.81-4.6.81-4.6-.27-6.22-.27-8.56-1-8.47-1-8.47l-1.26-6.94.09-2.88,1.44-1.29v-9.22a12.9,12.9,0,0,0-1.08-1.39s0-1.8-1-2.25a2.07,2.07,0,0,1-1.09-1.63l-.63-.45-6.48-54L224,290l5.49,46.14S225.67,335.87,225.13,336.14ZM235.49,353l79.85-11.09V344c0,1,.18,1.53.18,2.88a18.9,18.9,0,0,0,.45,4.78,35.38,35.38,0,0,1,1,6.31c.09,2-.27,7.21-.27,7.21s-.27,7.66-.54,8.74a3.55,3.55,0,0,1-2.53,2.07c-.72.09-2.88.45-5.4.72S304.61,378,304,378a17.07,17.07,0,0,1-4.05-.54,8.87,8.87,0,0,0-3.07-.09,11.64,11.64,0,0,0-1.89-.63c-.45,0-1.35,1.08-2,1.17s-3.88.72-3.88.72a8.09,8.09,0,0,1,.27-1.08,30.68,30.68,0,0,1,2-3.15,11.77,11.77,0,0,0,.81-3.79s.72-.18.72-.54-.09-1.17-.09-1.17a9.35,9.35,0,0,0,.72-3.33c0-1.72-.54-1.81-.54-1.81s-.05-.31-.12-.77c2.55-.33,6-1,6.21-2,.3-1.2-4.68-1.67-6.65-1.81a8,8,0,0,0-2.15-3.56,14.79,14.79,0,0,0-5.94-1.44c-1.18.18-4.6,1.17-5.86,2.34s-2.25,6.94-2.25,6.94l-.55.54s-.09,1.81-.09,2.17a15,15,0,0,0,.82,4.05c.45.72,1.44.36,1.44.36s.18,1.81.27,2.17.54,2.7.27,2.88-.36,1.44-.54,1.8a3.11,3.11,0,0,1-.9,1,2.86,2.86,0,0,1-1.36.72,8.39,8.39,0,0,1-1.26-.18,13.43,13.43,0,0,1-1.71-.36,18.72,18.72,0,0,0-1.71-.9,5,5,0,0,0-3.07.09,18.83,18.83,0,0,1-2.52.36c-.81.09-5.14.45-5.59.63a16.5,16.5,0,0,1-3.15.18,5.33,5.33,0,0,0-1.89.54l-3.88-.54-6.67-.27a19.23,19.23,0,0,1-4-.36c-.9-.36-2.17-4.59-2.44-5.76s-1.8-9.74-2.16-11.36S235.49,353,235.49,353Z" style="fill:gray"></path><path d="M60.52,418.4v13.94l4.42.46L67.73,434s.93,2.55,1.39,4.18a17,17,0,0,1,.7,4.18c0,.93.7,2.56.93,4.88a25,25,0,0,1,0,4.18,38.15,38.15,0,0,1-.23,5.12c-.24,1.62-.24,3.48-.47,4.41a.31.31,0,0,1,0,.08H82.84c.76-2,1.62-4,1.62-4a9.07,9.07,0,0,1,.69,2.32c.1.58.2,1.13.28,1.71H98.74c.8-4.06,1.75-8.68,1.75-8.68l3.72-10-.93,5.35,1.86-.93-.23,8.13,5.8,3.48,3-23.46h16.73V411.43a14.08,14.08,0,0,0,1.85-4.65c.93-3.49-2.32-3.72-2.32-3.72l-.46-23L111,379.59l-2.79-.93-2.09-1.16-1.86-.46-.23-1.4v-1.39c0-.7-1.63-3.72-2.33-4.65a5.46,5.46,0,0,0-2.55-1.39l.69-4.65a14.11,14.11,0,0,0,.7-3.48A39.92,39.92,0,0,0,99.1,354a30.28,30.28,0,0,1-.24-3c0-1.16-1.85-5.81-5.34-5.81A4,4,0,0,0,89.34,348s-3.72-3.72-6-2.09-.47,3-.47,3-.93.23-2.09.47a3.26,3.26,0,0,0-2.56,3.71,4.31,4.31,0,0,0,1.63,2.79,2.74,2.74,0,0,0-.23,3,3.8,3.8,0,0,0,2.55,1.86l2.1,5.81a28.3,28.3,0,0,0-5.58,3c-1.63,1.4-1.63,6-2.33,6H74.93L72.37,378l-10.68.46L61,401.9l-.47,4.42L58.2,409.1a19.82,19.82,0,0,0,.47,3.49A42.82,42.82,0,0,0,60.52,418.4Z" style="fill:gray"></path><path d="M306.72,335.67c.81.55,3.23,4.48,3.23,4.48s-2.43,2.85-2.95,4.64,2.12,3.84,3.4,3.88a8.2,8.2,0,0,0,2.73-.5s2.11,10.62,2.87,12.45,3.94,12.12,6.49,14.47c0,0,3.6,8.78,7.94,13.91s7.13,8.84,7.13,8.84l5.12,8.88s-.62,14.89-.62,17.68-2.48,8.07-2.48,13,.31,13.65.62,17.37c.25,3,.5,4,.75,6.19h33.47c1.62-7.18,3.33-15.11,3.33-16.74,0-3.1-.62-10.86-1.55-13.34s-2.49-7.45-2.49-7.45v-6.2s7.45,6.51,11.17,3.1,2.8-13.34,2.8-13.34,3.41-2.8,4.65-10.86-1.55-18.93-1.55-20.79v-4s6.21-2.17,8.07-2.17,9,2.48,10.24,1.24,2.48-1.55-1.55-11.17-6.52-13.65-9.31-12.72-2.17,3.41-5.28,7.45-8.38,6.82-10.86,8.06S365,369.17,365,369.17s-3.73-6.2-8.38-8.07-10.86.93-11.79,6.52-.31,9.62.62,11.48,2.17,4,2.17,5a1.46,1.46,0,0,1-1.55,1.55c-.93,0-4.71-2.18-5.64-3.42s-4.17-3.46-6-5.94-5.48-6.74-5.48-6.74l-8.05-21.38s-3.35-7.42-3.6-8.78-1.27-6.83-2.33-6.49-.83,6.22-.83,6.22l-6.89-5.21S305.92,335.11,306.72,335.67Zm83.67,55.2c0,2.31-.36,3.38-1.07,7.65a14.55,14.55,0,0,1-2.67,6.59s-.18-2.32-.18-4.45V388.73l3.2-2.49A17.85,17.85,0,0,1,390.39,390.87ZM388.25,372l.89,8L387,377l-.71-4.45Zm-20.47,6.41a9.48,9.48,0,0,1,1.42.18,1.62,1.62,0,0,0,1.61.71c1.06-.18,6.05-2.14,6.05-2.14a12.16,12.16,0,0,1,.89,3.74c0,1.6,1.07,7.48,1.07,7.48a23.92,23.92,0,0,0-7.12-3c-3.56-.71-3.74-.71-4.45-.71S366,382.5,366,380.9s-.18-3.38-.18-3.38A6.89,6.89,0,0,0,367.78,378.41Z" style="fill:gray"></path><path d="M227.48,399c-1.27-2.26-2.51-4.54-3.75-6.82s-2.38-4.37-3.62-6.53c-.45-.8-1.1-2.56-2-3.05s-8.61-4.13-12.13-5.78l-.82-.87.32-1.36,2.52-1.26s1.42,0,3-3.31a25.67,25.67,0,0,0,2.05-6.62,1.9,1.9,0,0,0,1.09-2.34,4.91,4.91,0,0,0-1.64-2.57,10.92,10.92,0,0,0-.39-5.33,5.27,5.27,0,0,0-2.87-2.73h0a13.47,13.47,0,0,0-1.85-.75h0c-.44-.14-.89-.27-1.36-.38h0l-.67-.14h-.07c-.46-.09-.93-.15-1.4-.2h-.09l-.59,0h-.14l-.67,0h-.84l-.51,0h-.18l-.6.08h0l-.62.12-.17,0-.44.12-.18.05-.56.19s-6,3-6.31,6.62c0,.17,0,.35,0,.53v.11c0,.18,0,.37,0,.56,0,0,0,.07,0,.11s0,.38,0,.57c0,0,0,0,0,.07,0,.21,0,.43.07.64a.77.77,0,0,1,0,.15c0,.22.07.44.11.66,0,0,0,.07,0,.1,0,.21.08.42.11.63l0,.12c0,.23.09.46.14.69l0,.15.15.69,0,.06.15.65,0,.14c.06.22.11.44.17.66l0,.14c.06.2.11.4.16.59l0,.06c.06.21.11.41.17.61l0,.13c.06.19.11.38.16.55l0,.09q.07.26.15.48v.06c.05.16.1.31.14.46l0,.07.12.39h0c.14.47.23.75.23.75l.13,2.06-1.14-.95-1.41,2.18a19.41,19.41,0,0,0-5.27-3.4l-7.51-20.26,12.74-20.65,2.68-1.88L196,325s.4.14,1.34.4,3.76-1.07,4-2a3.15,3.15,0,0,0-.13-1.88s1.34-.67,1.61-1.2-3.62-6.44-4.16-6.31-6,2.69-6,2.69l-1.74.67L187,323.93l-.4.13a1.31,1.31,0,0,0,.08.21l-16.13,17.25a3.24,3.24,0,0,0-.86,2.5c.44,5.07,2,21.88,3.36,25.52,1.61,4.29,2.95,14.35,2.95,14.35l.14,8.79h-4.76V439h.93l-2.83,22h45.09l-2.23-22h7.79V416a6.16,6.16,0,0,0,2.17-.31,1,1,0,0,0,.3-1.81,1.89,1.89,0,0,0,.38-.12,1.36,1.36,0,0,0,.33-.22,7.14,7.14,0,0,0,2.66,1.65c3.48,1,5.7-1.3,6-4.64C232.49,405.9,229.61,402.75,227.48,399Zm-7.31,12.71c.39,0,.77,0,1.15,0l-1.15.16Z" style="fill:gray"></path></g><g id="characters-1"><path d="M130.06,339.48s-5,36.57-2.38,51.41c2.48,13.9,6.82,63.82,7.36,70.11h86.12c-.58-5.25-4.45-40.61-4.7-46.26-.26-6.09,1.06-15.1,1.33-17l11.66,36.31L238.33,461h26.51c-1.29-4.06-12.35-39-12.6-41.48-.27-2.66-4.51-19.88-4.77-27.57s-1.59-32.86-5.3-39.22-20.41-19.88-21.2-20.67-22-16.7-22-16.7-22.26-4.77-33.66-7.69c0,0-9-2.12-20.67-4.24S122.91,300,122.91,300l-28.1-9.54s-3.18-24.39-6.09-33.4S81,211.2,81,211.2s1.33-14.84,1.33-19.08S76,179.67,74.94,179.4s-15.38,17.76-14.85,20.41,8.22,11.13,8.22,11.13-.26,18.55-.26,32.6-1.06,35,.53,44,1.32,18,3.44,20.41,30,17.76,41.35,21.47S130.06,339.48,130.06,339.48Z" style="fill:#fff;stroke:#263238;stroke-miterlimit:10"></path><path d="M80.72,176s24,44,47.33,78.66,71.34,108,71.34,108,41.33-27.33,66-33.33,36-16,39.33-30-3.33-36-22-66.67-48-92.66-56.67-111.33-28-66.67-28-66.67Z" style="fill:#263238;stroke:#263238;stroke-miterlimit:10"></path><path d="M217.24,351.68c14.19-8.31,33.93-18.85,48.15-22.31,24.66-6,36-16,39.33-30s-3.33-36-22-66.67-48-92.66-56.67-111.33-28-66.67-28-66.67L96,160.25C122.74,202.19,203.24,328.45,217.24,351.68Z" style="fill:#4c4c4c;stroke:#263238;stroke-miterlimit:10"></path><path d="M304.72,299.37c3.33-14-3.33-36-22-66.67s-48-92.66-56.67-111.33-28-66.67-28-66.67l-81.64,84.43c18.39,31.58,98.67,169.49,106.92,184.24,4.19,7.47,7.43,14.27,9.74,19.5,11.05-5.81,22.9-11.21,32.32-13.5C290.05,323.37,301.39,313.37,304.72,299.37Z" style="fill:gray;stroke:#263238;stroke-miterlimit:10"></path><path d="M226.05,121.37c-8.66-18.67-28-66.67-28-66.67l-61.78,63.9c11.46,19.67,63,108.05,73.06,123.44,11.34,17.33,43.34,68.66,43.34,83.33,0,3.16.12,5.84.31,8.13a92.8,92.8,0,0,1,12.41-4.13c24.66-6,36-16,39.33-30s-3.33-36-22-66.67S234.72,140,226.05,121.37Z" style="fill:#999;stroke:#263238;stroke-miterlimit:10"></path><path d="M272.41,327.44c19.83-6.12,29.31-15.47,32.31-28.07,3.33-14-3.33-36-22-66.67s-48-92.66-56.67-111.33-28-66.67-28-66.67L156.38,97.8c11.89,21.06,44.75,79.46,58.29,104.9,16.66,31.34,52.66,94.67,58,103.34s4.66,8,1.33,16.66C273.35,324.39,272.83,326,272.41,327.44Z" style="fill:#ccc;stroke:#263238;stroke-miterlimit:10"></path><path d="M282.72,232.7c-18.67-30.66-48-92.66-56.67-111.33s-28-66.67-28-66.67L176.51,77c6.6,12,75.13,136.8,94.16,171.06,13.33,24,24.29,47.7,30.12,60.83a31.5,31.5,0,0,0,3.93-9.5C308.05,285.37,301.39,263.37,282.72,232.7Z" style="fill:#e5e5e5;stroke:#263238;stroke-miterlimit:10"></path><path d="M226.05,121.37s26.24,95.08,33.86,121.77c9.35,32.72,5.48,66.9,5.48,66.9s30-10,34.66,0c0,0,6-9.36,6-20.69s-10-36.67-14.66-45.33-48.67-89.34-48.67-89.34Z" style="fill:#e5e5e5;stroke:#263238;stroke-miterlimit:10"></path><path d="M291.39,244c-3.27-6.07-25.84-47.46-39.06-71.72C265.86,203.94,286,253,288.67,270c2.5,16.29.3,28.66-1.7,35.62,6-.3,11.33.63,13.08,4.4,0,0,6-9.36,6-20.69S296.05,252.7,291.39,244Z" style="fill:#ccc;stroke:#263238;stroke-miterlimit:10"></path><path d="M34.22,223.7h0a1.49,1.49,0,0,1,0-2.12L203.1,47.74a1.5,1.5,0,0,1,2.12,0h0a1.51,1.51,0,0,1,0,2.13L36.34,223.67A1.49,1.49,0,0,1,34.22,223.7Z" style="fill:#fff;stroke:#263238;stroke-miterlimit:10"></path><path d="M69.3,189.39s-2.93-4-4-4S61,187.23,61,188.46s4.31,8,6,8.17,3.85-2.77,4-4S69.3,189.39,69.3,189.39Z" style="fill:#fff;stroke:#263238;stroke-miterlimit:10"></path><path d="M65.07,195.09s-2.15-2.94-2.94-2.94S59,193.51,59,194.41s3.16,5.87,4.41,6,2.82-2,2.93-2.93S65.07,195.09,65.07,195.09Z" style="fill:#fff;stroke:#263238;stroke-miterlimit:10"></path><path d="M75.17,185.05S72,180.7,70.83,180.7s-4.68,2-4.68,3.34,4.68,8.68,6.51,8.85,4.18-3,4.34-4.34S75.17,185.05,75.17,185.05Z" style="fill:#fff;stroke:#263238;stroke-miterlimit:10"></path><path d="M80.17,180.7s-3.17-4.34-4.34-4.34-4.67,2-4.67,3.34,4.67,8.68,6.51,8.85,4.17-3,4.34-4.34S80.17,180.7,80.17,180.7Z" style="fill:#fff;stroke:#263238;stroke-miterlimit:10"></path><path d="M130.06,339.48s-5,36.57-2.38,51.41c2.48,13.9,6.82,63.82,7.36,70.11h86.12c-.58-5.25-4.45-40.61-4.7-46.26-.26-6.09,1.06-15.1,1.33-17L223,414.13A70.29,70.29,0,0,0,249.92,408c-1.15-5.68-2.32-12.08-2.45-16-.27-7.68-1.59-32.86-5.3-39.22s-20.41-19.88-21.2-20.67-22-16.7-22-16.7-22.26-4.77-33.66-7.69c0,0-9-2.12-20.67-4.24S122.91,300,122.91,300l-17.13-5.82c-3.58,4.79-8.08,13.36-9.93,27.45a145.05,145.05,0,0,0,17.52,7.79C124.76,333.12,130.06,339.48,130.06,339.48Z" style="fill:#92E3A9;stroke:#263238;stroke-miterlimit:10"></path><polyline points="168.12 344.55 166.63 373.82 172.6 374.12 173.2 363.36" style="fill:none;stroke:#263238;stroke-miterlimit:10"></polyline><polyline points="214.41 387.56 217.79 397.78 210.23 388.15" style="fill:none;stroke:#263238;stroke-miterlimit:10"></polyline><polyline points="126.6 320.65 130.06 339.48 123.02 324.84" style="fill:none;stroke:#263238;stroke-miterlimit:10"></polyline><path d="M165.31,307.67s-7.16,4.24-8.48,6.36-17.49,18.29-14.31,17.76,14-6.62,14-6.62,9.81,17.75,11.67,18l1.85.26s18.29-6.89,19.61-8.21,7.42-2.92,7.42-2.92,11.66,8.75,13.26,9.28-1.86-2.12-3.45-12.72-4.24-18.56-7.69-20.94S172.73,303.7,165.31,307.67Z" style="fill:#263238;stroke:#263238;stroke-miterlimit:10"></path><path d="M163.19,304.49s.53,16.17,1.33,22.27,3.44,16.69,5.56,16.69,23.85-21.2,25.44-25.18,4.24-16.43,4.24-16.43-18,7.42-23.85,7.42S163.19,304.49,163.19,304.49Z" style="fill:#fff;stroke:#263238;stroke-miterlimit:10"></path><path d="M195.57,303.5c-5.69,2.19-15.61,5.76-19.66,5.76-5.83,0-12.72-4.77-12.72-4.77s.29,8.84.76,15.91c5.63,4.7,10.5,3.54,16.71-.28,7.65-4.71,16.2-13.19,18.5-15.54.05-.23.1-.46.15-.67Z" style="fill:#263238;stroke:#263238;stroke-miterlimit:10"></path><path d="M161.07,255.46s-3.18,17.76-3.18,23.86-.53,16.43,1.32,20.93,7.69,13.25,18.29,13.52,20.41-7.42,22.26-9.81,7.42-17,8.48-21.2,7.69-10.6,10.34-14.58.27-14.31-5.3-19.34-40.28-7.42-45.58-6.36S161.07,255.46,161.07,255.46Z" style="fill:#fff;stroke:#263238;stroke-miterlimit:10"></path><path d="M213.28,248.84c-1.11-1-3.41-1.91-6.38-2.7-1.87,3.29-4.22,8-4.22,8l-1.06,4-1.33,2.65s-1.59,8.75.8,10.08a25.9,25.9,0,0,1,4.77,3.71s-2.39,10.33-.8,11.13c.57.28,1.53-.11,2.54-.72.28-.88.5-1.63.64-2.2,1.07-4.24,7.69-10.6,10.34-14.58S218.85,253.87,213.28,248.84Z" style="fill:#263238;stroke:#263238;stroke-miterlimit:10"></path><path d="M190.74,229.58s-14.61-6.85-25.11-.46-16.43,14.61-14.14,16.43,6.84,1.37,6.84,1.37-14.15,6.39-11.41,11,14.61,0,14.61,0,.45,7.3,8.67,5.93,21-8.22,21-8.22,4.57,11,6.85,9.59,4.11-5,4.11-5,9.12,8.21,12.32,6.39,2.28-11,2.28-11,.91-3.19-.46-11.41S195.3,222.28,190.74,229.58Z" style="fill:#92E3A9;stroke:#263238;stroke-miterlimit:10"></path><path d="M191.65,252.09S193,242.47,202,237.66" style="fill:none;stroke:#263238;stroke-miterlimit:10"></path><path d="M207.6,285s7.27-7.5,7.27.19-5.3,13-8,13.78a3,3,0,0,1-3.71-1.33Z" style="fill:#fff;stroke:#263238;stroke-miterlimit:10"></path><path d="M159.21,300.25c1.86,4.51,7.69,13.25,18.29,13.52s20.41-7.42,22.26-9.81c1.67-2.14,6.34-14.15,8-19.63l-.06-.36c0,.46-.91,1.71-10.63.38-11.66-1.59-14.57-4.77-21.2-4.77s-18-.26-18-.26C157.89,285.41,157.36,295.75,159.21,300.25Z" style="fill:#4c4c4c;stroke:#263238;stroke-miterlimit:10"></path><path d="M197.11,284.35c-11.66-1.59-14.57-4.77-21.2-4.77s-18-.26-18-.26c0,6.09-.53,16.43,1.32,20.93a1.63,1.63,0,0,0,.11.23c4.48,3.38,12.51,8.94,16.59,8.78,3.85-.14,17.17-5.43,25.82-9,2.07-4.59,4.84-11.94,6.07-15.9l-.06-.36C207.71,284.43,206.83,285.68,197.11,284.35Z" style="fill:gray;stroke:#263238;stroke-miterlimit:10"></path><path d="M197.11,284.35c-11.66-1.59-14.57-4.77-21.2-4.77s-18-.26-18-.26c0,4-.22,9.72.13,14.51,4.44,2.79,12.75,7.66,16.7,7.66s19.38-2.92,28.49-4.7c1.76-4.28,3.64-9.39,4.59-12.46l-.06-.36C207.71,284.43,206.83,285.68,197.11,284.35Z" style="fill:#999;stroke:#263238;stroke-miterlimit:10"></path><path d="M197.11,284.35c-11.66-1.59-14.57-4.77-21.2-4.77s-18-.26-18-.26c0,2.19-.07,4.94-.07,7.76,3.8,2.75,11.78,7.87,18.41,7.87,6.83,0,21.67-1.44,28.56-2.14,1.22-3.17,2.34-6.33,3-8.48l-.06-.36C207.71,284.43,206.83,285.68,197.11,284.35Z" style="fill:#ccc;stroke:#263238;stroke-miterlimit:10"></path><path d="M197.11,284.35c-11.66-1.59-14.57-4.77-21.2-4.77s-18-.26-18-.26c0,1,0,2.07,0,3.22,2.88.67,13.57,3.06,23.9,4.35,8.34,1.05,18.84,1.61,24.54,1.86.6-1.68,1.12-3.21,1.5-4.42l-.06-.36C207.71,284.43,206.83,285.68,197.11,284.35Z" style="fill:#e5e5e5;stroke:#263238;stroke-miterlimit:10"></path><path d="M207.71,283.82l0,.15A.36.36,0,0,0,207.71,283.82Z" style="fill:none;stroke:#263238;stroke-miterlimit:10"></path><path d="M190.22,276.92c-.11,1.39-.91,2.46-1.78,2.39s-1.5-1.25-1.39-2.63.9-2.46,1.78-2.39S190.33,275.53,190.22,276.92Z" style="fill:#263238"></path><path d="M171.94,273.75c-.11,1.39-.91,2.46-1.78,2.39s-1.5-1.25-1.39-2.64.9-2.45,1.78-2.38S172,272.36,171.94,273.75Z" style="fill:#263238"></path><path d="M165.58,267.12s6.36-2.65,10.6,1.33" style="fill:none;stroke:#263238;stroke-miterlimit:10"></path><path d="M184.13,269.24s9.27-3.44,13.25,2.13" style="fill:none;stroke:#263238;stroke-miterlimit:10"></path><polyline points="177.5 268.71 177.5 272.16 175.91 279.58" style="fill:none;stroke:#263238;stroke-miterlimit:10"></polyline><path d="M80.05,208.37s6.67-14,6.67-17-6-10.67-6.33-11.67-9,4-11.34,5-1.33,3,1,3a36.57,36.57,0,0,0,7-1.33S70.72,198,73.39,202.7" style="fill:#fff;stroke:#263238;stroke-miterlimit:10"></path></g><g id="character-2"><path d="M286.42,192.65s-4,2.34-4,4.34-.67,8.33.33,9.33a10.37,10.37,0,0,0,3.67,1.67l2,1.33s-3.67,9-.67,13,6.33,8.67,6.33,8.67l2.67-18.67L300.42,195s-.67-3.67-3.67-4S286.42,192.65,286.42,192.65Z" style="fill:#fff;stroke:#263238;stroke-miterlimit:10"></path><path d="M299,461h87.42c.38-4.24,4.27-49.62-3-75.35-7.67-27-16.67-45-19-48s-4.15-5.93-4.15-5.93-14.85-5.4-16.52-6.73-34-32.34-35-33.67-6-7.33-6-7.33.67-35,.67-44,.66-17.67,1.66-20.34,5.67-18.33,6.34-22.33c0,0-13-12-14.67-12s-11.67,5.33-11.67,5.33l0,5.65c-1.33,2.37-2.7,5.83-2.7,6.69,0,1.33,2.33,2,3.33,2s2.33-3.67,2.33-3.67l.34,8s-3,5-1.67,8.67,6.33,6.66,6.33,6.66-8.33,25-12,36.67-5.66,24.67-5.33,29,15,29.67,18.67,35,10.66,20,10.66,20-19,33.33-18,45.67,5.67,38,7.67,47.66C296.57,447.43,298.66,459,299,461Z" style="fill:#fff;stroke:#263238;stroke-miterlimit:10"></path><path d="M299,461h87.42c.38-4.24,4.27-49.62-3-75.35-7.67-27-16.67-45-19-48s-4.15-5.93-4.15-5.93-14.85-5.4-16.52-6.73c-.9-.73-10.81-10.16-19.86-18.87-16.69,2.68-23,16.31-25.36,26.23,3.25,6.06,6.55,13,6.55,13s-19,33.33-18,45.67,5.67,38,7.67,47.66C296.57,447.43,298.66,459,299,461Z" style="fill:#263238;stroke:#263238;stroke-miterlimit:10"></path><path d="M297.42,195s-9-1-10.34-1c-.48,0-1,.39-1.72,1.72" style="fill:#fff;stroke:#263238;stroke-linecap:round;stroke-linejoin:round"></path><path d="M302.75,284s-10-1.34-19,3.66" style="fill:#fff;stroke:#263238;stroke-miterlimit:10"></path><path d="M322.73,256.12s-2.85,6.74-2.85,10.1-4.4,8.54-5.7,9.32-7,4.14-7,7.25-1.55,19.94-.77,24.85,13.2,6.22,14.49,6.22,6,18.38,6,20.71-12.95,23.82-13.21,27.7,5.44-1.55,20.2-11.65,19.67-15.53,21.23-16.05a38.36,38.36,0,0,0,5.18-2.85s-2.85-6.73-2.85-10.61,7.51-13.21,7.51-13.21,12.16-11.91,13.2-18.12,5.18-5.18,1.29-16.83-7.5-15.79-22-20.19-22.53-4.14-29-2.33S322.73,256.12,322.73,256.12Z" style="fill:#fff;stroke:#263238;stroke-miterlimit:10"></path><path d="M353.82,261.07s-5.33,8.88-3.91,13.15,5.33,5,3.56,8.52-5.33,7.46-3.2,8.17,3.2-1.42,5.33,2.49-5.69,13.85-1.78,17.4,15.51-4.19,20.94-9.37c4.43-4.21,8.55-18.33,8.55-23.31S368.39,256.45,353.82,261.07Z" style="fill:#263238;stroke:#263238;stroke-miterlimit:10"></path><path d="M339.61,235.49A19.81,19.81,0,0,0,321.85,243c-7.46,9.24-.36,5.69-.36,5.69s-1.42,8.17-.71,9.59.36.71,4.62-.36,12.08-2.13,12.08-2.13-8.17,3.2-3.55,3.56,15.27,1.06,15.27,1.06,17.05,4.62,22.38,8.88,8.53,13.15,8.53,13.15l1.42-4.27-.71,9.24s9.95-9.59,6-21.67S369.1,242.24,359.15,238A37.49,37.49,0,0,0,339.61,235.49Z" style="fill:#92E3A9;stroke:#263238;stroke-miterlimit:10"></path><path d="M320.4,267s-3.89-2.59-6.22-1.3.26,1.82.26,1.82l-.26,8A21.21,21.21,0,0,0,320.4,267Z" style="fill:#263238;stroke:#263238;stroke-miterlimit:10"></path><path d="M320.4,267a98.43,98.43,0,0,1,13.46,3.88c5.95,2.33,6.73,3.88,6.73,5.44s-2.07,3.36-2.07,3.36-2.85,4.15-6.73,4.4-9.32-.77-11.14-3.88-.77-9.32-.77-9.32l-1.3-.26S318.32,266.74,320.4,267Z" style="fill:#263238;stroke:#263238;stroke-miterlimit:10"></path><path d="M340.33,274.76s21,18.65,21.75,19.16a4.66,4.66,0,0,1,1.55,4.4c-.52,1.82-5.18,6-5.18,4.41s1-2.33,1.56-4.92-21.49-18.13-21.49-18.13A8.07,8.07,0,0,0,340.33,274.76Z" style="fill:#fff;stroke:#263238;stroke-miterlimit:10"></path><path d="M348.53,307.28c.82-.36,1.38-.67,1.38-.67S349.38,306.88,348.53,307.28Z" style="fill:#fff;stroke:#263238;stroke-miterlimit:10"></path><path d="M350.27,290.91s-2.43-.09-5.28-.09-20.71-6-25.63-8.29A41.29,41.29,0,0,0,309,279.42h0a5.33,5.33,0,0,0-1.78,3.36c0,3.11-1.55,19.94-.77,24.85s13.2,6.22,14.49,6.22c0,0,13.21-2.59,17.61-3.11,3.2-.38,7.76-2.39,10-3.47-1.39.62-3.52,1.37-4.83.88-2.08-.77-1.82-6.73.25-11.91S350.27,290.91,350.27,290.91Z" style="fill:#263238;stroke:#263238;stroke-miterlimit:10"></path><path d="M344,296.25c2.08-5.17,6.32-5.34,6.32-5.34s-2.43-.09-5.28-.09-20.71-6-25.63-8.29A41.29,41.29,0,0,0,309,279.42h0a5.33,5.33,0,0,0-1.78,3.36c0,3.11-1.55,19.94-.77,24.85.29,1.84,2.2,3.17,4.55,4.12l31.68-4.86C341.84,304.72,342.35,300.26,344,296.25Z" style="fill:#4c4c4c;stroke:#263238;stroke-miterlimit:10"></path><path d="M319.36,282.53A41.29,41.29,0,0,0,309,279.42h0a5.33,5.33,0,0,0-1.78,3.36c0,2.61-1.1,14.93-1,21.7h36.06a22.75,22.75,0,0,1,1.68-8.24c2.08-5.17,6.32-5.34,6.32-5.34s-2.43-.09-5.28-.09S324.28,284.86,319.36,282.53Z" style="fill:gray;stroke:#263238;stroke-miterlimit:10"></path><path d="M319.36,282.53A41.29,41.29,0,0,0,309,279.42h0a5.33,5.33,0,0,0-1.78,3.36c0,1.88-.56,8.75-.84,15l36.35,2.68a24.78,24.78,0,0,1,1.25-4.2c2.08-5.17,6.32-5.34,6.32-5.34s-2.43-.09-5.28-.09S324.28,284.86,319.36,282.53Z" style="fill:#999;stroke:#263238;stroke-miterlimit:10"></path><path d="M345,290.82c-2.85,0-20.71-6-25.63-8.29A41.29,41.29,0,0,0,309,279.42h0a5.33,5.33,0,0,0-1.78,3.36c0,1.28-.26,4.86-.51,9l37.25,4.55s0-.05,0-.08c2.08-5.17,6.32-5.34,6.32-5.34S347.84,290.82,345,290.82Z" style="fill:#ccc;stroke:#263238;stroke-miterlimit:10"></path><path d="M345,290.82c-2.85,0-20.71-6-25.63-8.29A41.29,41.29,0,0,0,309,279.42h0a5.33,5.33,0,0,0-1.78,3.36c0,.54-.05,1.51-.12,2.76,5.28.82,23.72,3.74,28.69,4.91a94.16,94.16,0,0,0,11.82,1.36,6.54,6.54,0,0,1,2.69-.91S347.84,290.82,345,290.82Z" style="fill:#e5e5e5;stroke:#263238;stroke-miterlimit:10"></path><path d="M347.32,294.44s6.21-7.77,11.13-6.73,4.4,5.44,1.56,10.1-9.84,12.94-13.21,6.47" style="fill:#fff;stroke:#263238;stroke-miterlimit:10"></path><path d="M374.13,461h32.5c-1.37-7.54-14.5-79.37-19.55-91.68-5.33-13-24.66-31-24.66-31L344.08,364s-7,14,1.67,32.66C353.81,414,371.69,455.34,374.13,461Z" style="fill:#263238;stroke:#263238;stroke-miterlimit:10"></path><path d="M406.63,461c-1-5.31-7.7-42.16-13.38-68-18.76,1.67-34.27,11.79-41.35,17.21,8.75,19.6,20.31,46.32,22.23,50.77Z" style="fill:#fff;stroke:#263238;stroke-miterlimit:10"></path></g><g id="speech-bubble"><path d="M429.14,130H362.7a15.52,15.52,0,0,0-15.52,15.52V184a15.52,15.52,0,0,0,15.52,15.52H406l-7.32,19.87,21.53-19.87h8.9A15.52,15.52,0,0,0,444.66,184v-38.5A15.52,15.52,0,0,0,429.14,130Z" style="fill:#263238;stroke:#263238;stroke-miterlimit:10"></path><path d="M426.14,128H359.7a15.52,15.52,0,0,0-15.52,15.52V182a15.52,15.52,0,0,0,15.52,15.52H403l-7.32,19.87,21.53-19.87h8.9A15.52,15.52,0,0,0,441.66,182v-38.5A15.52,15.52,0,0,0,426.14,128Z" style="fill:#fff;stroke:#263238;stroke-miterlimit:10"></path></g><g id="Text"><path d="M361.66,159.67V136.29h1.53v22h7.35v1.41Z" style="fill:#263238"></path><path d="M372.74,142c0-3.41,1.57-5.91,5.11-5.91S383,138.59,383,142v12c0,3.4-1.57,5.91-5.18,5.91s-5.11-2.51-5.11-5.91Zm1.54,12.06c0,2.54,1,4.41,3.57,4.41s3.64-1.87,3.64-4.41V141.9c0-2.54-1-4.41-3.64-4.41s-3.57,1.87-3.57,4.41Z" style="fill:#263238"></path><path d="M386.77,136.29l4.74,21.61,4.75-21.61h1.43l-5.08,23.38h-2.27l-5.14-23.38Z" style="fill:#263238"></path><path d="M407.94,147.11v1.4h-6.38v9.75h7.69v1.41H400V136.29h9.22v1.4h-7.69v9.42Z" style="fill:#263238"></path><path d="M363.19,163.61V187h-1.53V163.61Z" style="fill:#263238"></path><path d="M375.72,169.25v.5h-1.47v-.6c0-2.47-.94-4.34-3.48-4.34s-3.47,1.84-3.47,4.31c0,5.68,8.45,5.78,8.45,12.22,0,3.38-1.47,5.85-5,5.85s-5-2.47-5-5.85v-1.2h1.47v1.3c0,2.51,1,4.31,3.54,4.31s3.54-1.8,3.54-4.31c0-5.61-8.45-5.71-8.45-12.22,0-3.51,1.54-5.78,5-5.81S375.72,165.88,375.72,169.25Z" style="fill:#263238"></path><path d="M383.4,187V163.61h1.53v22h7.35V187Z" style="fill:#263238"></path><path d="M394.48,169.32c0-3.41,1.57-5.91,5.11-5.91s5.18,2.5,5.18,5.91v12c0,3.4-1.57,5.91-5.18,5.91s-5.11-2.51-5.11-5.91ZM396,181.38c0,2.54,1,4.41,3.57,4.41s3.64-1.87,3.64-4.41V169.22c0-2.54-1-4.41-3.64-4.41s-3.57,1.87-3.57,4.41Z" style="fill:#263238"></path><path d="M408.51,163.61l4.74,21.61L418,163.61h1.43L414.35,187h-2.27l-5.14-23.38Z" style="fill:#263238"></path><path d="M429.68,174.43v1.4h-6.37v9.76H431V187h-9.22V163.61H431V165h-7.68v9.42Z" style="fill:#263238"></path></g><g id="Line"><line x1="38" y1="461" x2="474" y2="461" style="fill:none;stroke:#263238;stroke-miterlimit:10"></line></g></svg>