<svg xmlns="http://www.w3.org/2000/svg" viewBox="0 0 500 500"><g id="background-simple"><path d="M463.51,330c-20.83,47.32-137.29,77.43-188.39,85.26-38.86,6-120.85-14.66-152.69-37.73-52.82-38.26-115.95-185.23-89.77-245,19.26-43.93,148.52-61.65,188.59-35.3,28.92,19,26.6,117.64,60.52,124.5C310.65,227.63,357,156,385,165,428.51,179,481.92,288.21,463.51,330Z" style="fill:#92E3A9"></path><path d="M463.51,330c-20.83,47.32-137.29,77.43-188.39,85.26-38.86,6-120.85-14.66-152.69-37.73-52.82-38.26-115.95-185.23-89.77-245,19.26-43.93,148.52-61.65,188.59-35.3,28.92,19,26.6,117.64,60.52,124.5C310.65,227.63,357,156,385,165,428.51,179,481.92,288.21,463.51,330Z" style="fill:#fff;opacity:0.7000000000000001"></path></g><g id="Lamp"><g id="lamp"><line x1="198.38" y1="147.4" x2="198.38" y2="88.46" style="fill:none;stroke:#263238;stroke-linecap:round;stroke-linejoin:round;stroke-width:1.0874300000000001px"></line><path d="M173.07,171a25.31,25.31,0,1,1,50.62,0Z" style="fill:#92E3A9;stroke:#263238;stroke-linecap:round;stroke-linejoin:round;stroke-width:1.0874300000000001px"></path><path d="M203.07,146.1c-.77-.14-1.55-.25-2.34-.32a25.3,25.3,0,0,0-23,25.2h4.68A25.32,25.32,0,0,1,203.07,146.1Z" style="fill:#263238;stroke:#263238;stroke-linecap:round;stroke-linejoin:round;stroke-width:1.0874300000000001px"></path></g></g><g id="Floor"><line x1="30.28" y1="444.75" x2="480" y2="444.75" style="fill:none;stroke:#263238;stroke-linecap:round;stroke-linejoin:round;stroke-width:1.0874300000000001px"></line></g><g id="Door"><rect x="260.99" y="147.4" width="6.42" height="297.35" style="fill:#757575;stroke:#263238;stroke-linecap:round;stroke-linejoin:round;stroke-width:1.0874300000000001px"></rect><rect x="264.2" y="147.4" width="92.59" height="297.35" style="fill:#fff;stroke:#263238;stroke-linecap:round;stroke-linejoin:round;stroke-width:1.0874300000000001px"></rect><line x1="298.14" y1="218.84" x2="277.37" y2="293.1" style="fill:#fff;stroke:#263238;stroke-linecap:round;stroke-linejoin:round;stroke-width:1.0874300000000001px"></line><line x1="314.27" y1="161.13" x2="300.25" y2="211.29" style="fill:#fff;stroke:#263238;stroke-linecap:round;stroke-linejoin:round;stroke-width:1.0874300000000001px"></line><line x1="284.58" y1="291.95" x2="278.02" y2="315.4" style="fill:#fff;stroke:#263238;stroke-linecap:round;stroke-linejoin:round;stroke-width:1.0874300000000001px"></line><line x1="309.31" y1="203.51" x2="287.55" y2="281.33" style="fill:#fff;stroke:#263238;stroke-linecap:round;stroke-linejoin:round;stroke-width:1.0874300000000001px"></line><line x1="314.93" y1="183.43" x2="311.64" y2="195.17" style="fill:#fff;stroke:#263238;stroke-linecap:round;stroke-linejoin:round;stroke-width:1.0874300000000001px"></line><line x1="343.74" y1="308.18" x2="310.49" y2="427.07" style="fill:#fff;stroke:#263238;stroke-linecap:round;stroke-linejoin:round;stroke-width:1.0874300000000001px"></line><line x1="288.64" y1="380.98" x2="285.05" y2="393.82" style="fill:#fff;stroke:#263238;stroke-linecap:round;stroke-linejoin:round;stroke-width:1.0874300000000001px"></line><line x1="322.42" y1="260.18" x2="291.52" y2="370.66" style="fill:#fff;stroke:#263238;stroke-linecap:round;stroke-linejoin:round;stroke-width:1.0874300000000001px"></line><line x1="344.8" y1="180.14" x2="329.7" y2="234.15" style="fill:#fff;stroke:#263238;stroke-linecap:round;stroke-linejoin:round;stroke-width:1.0874300000000001px"></line><rect x="343.74" y="264.09" width="9.79" height="39.49" rx="2.42" style="fill:#92E3A9;stroke:#263238;stroke-linecap:round;stroke-linejoin:round;stroke-width:1.0874300000000001px"></rect><path d="M348.63,272.63h0a1.63,1.63,0,0,0,1.63,1.63h2v18.55h-2a1.64,1.64,0,0,0-1.63,1.64h0a1.63,1.63,0,0,0,1.63,1.63H353a2.48,2.48,0,0,0,2.48-2.48V273.47A2.48,2.48,0,0,0,353,271h-2.69A1.63,1.63,0,0,0,348.63,272.63Z" style="fill:#999;stroke:#263238;stroke-linecap:round;stroke-linejoin:round;stroke-width:1.0874300000000001px"></path><polygon points="254.57 140.98 254.57 444.75 260.99 444.75 260.99 147.4 326.44 147.4 326.44 444.75 332.86 444.75 332.86 140.98 254.57 140.98" style="fill:#999;stroke:#263238;stroke-linecap:round;stroke-linejoin:round;stroke-width:1.0874300000000001px"></polygon><rect x="332.86" y="140.98" width="6.42" height="303.77" style="fill:#757575;stroke:#263238;stroke-linecap:round;stroke-linejoin:round;stroke-width:1.0874300000000001px"></rect><path d="M264.2,184.2h3.93a4.41,4.41,0,0,1,4.41,4.41v18.5a4.41,4.41,0,0,1-4.41,4.41H264.2a0,0,0,0,1,0,0V184.2A0,0,0,0,1,264.2,184.2Z" style="fill:#999;stroke:#263238;stroke-linecap:round;stroke-linejoin:round;stroke-width:1.0874300000000001px"></path><path d="M264.2,372h3.93a4.41,4.41,0,0,1,4.41,4.41v18.5a4.41,4.41,0,0,1-4.41,4.41H264.2a0,0,0,0,1,0,0V372A0,0,0,0,1,264.2,372Z" style="fill:#999;stroke:#263238;stroke-linecap:round;stroke-linejoin:round;stroke-width:1.0874300000000001px"></path><rect x="281.3" y="119.92" width="30.35" height="16.58" style="fill:#263238"></rect><path d="M289.52,127.85h2v1.3h-2v2.68H292v1.3h-3.91V124H292v1.31h-2.48Z" style="fill:#fff"></path><path d="M297.94,124l-1.5,4.44,1.6,4.69h-1.51l-1.18-3.61-1.18,3.61h-1.35l1.61-4.69-1.5-4.44h1.49l1.08,3.37,1.11-3.37Z" style="fill:#fff"></path><path d="M299,124h1.44v9.13H299Z" style="fill:#fff"></path><path d="M301.34,124h4.44v1.31h-1.5v7.82h-1.44v-7.82h-1.5Z" style="fill:#fff"></path></g><g id="Desk"><path d="M131.89,381c8.15,0,31.71-5.32,31.71-5.32H100.19S123.74,381,131.89,381Z" style="fill:#263238;stroke:#263238;stroke-linecap:round;stroke-linejoin:round;stroke-width:1.0874300000000001px"></path><rect x="124.63" y="378.32" width="14.53" height="9.96" transform="translate(263.78 766.6) rotate(180)" style="fill:#263238;stroke:#263238;stroke-linecap:round;stroke-linejoin:round;stroke-width:1.0874300000000001px"></rect><rect x="101.7" y="337.36" width="12.24" height="25.59" transform="translate(215.64 700.32) rotate(180)" style="fill:#263238;stroke:#263238;stroke-linecap:round;stroke-linejoin:round;stroke-width:1.0874300000000001px"></rect><rect x="122.48" y="388.28" width="18.83" height="42.83" transform="translate(263.78 819.39) rotate(180)" style="fill:#999;stroke:#263238;stroke-linecap:round;stroke-linejoin:round;stroke-width:1.0874300000000001px"></rect><polyline points="131.89 383.3 147.92 383.3 159.92 395.3" style="fill:none;stroke:#263238;stroke-linecap:round;stroke-linejoin:round;stroke-width:1.0874300000000001px"></polyline><path d="M78,340.29h52.74a10.68,10.68,0,0,0,10.65-11.45l-4.18-56.95A10.66,10.66,0,0,0,126.58,262H82.18a10.68,10.68,0,0,0-10.65,9.89l-4.17,56.95A10.67,10.67,0,0,0,78,340.29Z" style="fill:#92E3A9;stroke:#263238;stroke-linecap:round;stroke-linejoin:round;stroke-width:1.0874300000000001px"></path><path d="M76.72,328.84l4.17-56.95A10.67,10.67,0,0,1,91.53,262h35.05a10.66,10.66,0,0,1,10.64,9.89l4.18,56.95a10.68,10.68,0,0,1-10.65,11.45H87.36A10.67,10.67,0,0,1,76.72,328.84Z" style="fill:#92E3A9;stroke:#263238;stroke-linecap:round;stroke-linejoin:round;stroke-width:1.0874300000000001px"></path><path d="M100.19,437.09a1.57,1.57,0,0,0,1.9,1.54c5.77-1.26,23.06-4.9,29.8-4.9s24,3.64,29.8,4.9a1.58,1.58,0,0,0,1.91-1.54h0a4.13,4.13,0,0,0-3.27-4c-6.75-1.45-22.16-4.6-28.44-4.6s-21.69,3.15-28.44,4.6a4.12,4.12,0,0,0-3.26,4Z" style="fill:#263238;stroke:#263238;stroke-linecap:round;stroke-linejoin:round;stroke-width:1.0874300000000001px"></path><path d="M158.17,439.33a5.43,5.43,0,1,0,5.43-5.42A5.43,5.43,0,0,0,158.17,439.33Zm2.49,0a2.94,2.94,0,1,1,2.94,2.94A2.94,2.94,0,0,1,160.66,439.33Z" style="fill:#92E3A9;stroke:#263238;stroke-linecap:round;stroke-linejoin:round;stroke-width:1.0874300000000001px"></path><path d="M126.47,439.33a5.42,5.42,0,1,0,5.42-5.42A5.42,5.42,0,0,0,126.47,439.33Zm2.48,0a2.94,2.94,0,1,1,2.94,2.94A2.94,2.94,0,0,1,129,439.33Z" style="fill:#92E3A9;stroke:#263238;stroke-linecap:round;stroke-linejoin:round;stroke-width:1.0874300000000001px"></path><path d="M95.42,439.33a5.43,5.43,0,1,0,5.42-5.42A5.42,5.42,0,0,0,95.42,439.33Zm2.49,0a2.94,2.94,0,1,1,2.93,2.94A2.94,2.94,0,0,1,97.91,439.33Z" style="fill:#92E3A9;stroke:#263238;stroke-linecap:round;stroke-linejoin:round;stroke-width:1.0874300000000001px"></path><path d="M115.86,358.94h63.28a7.84,7.84,0,0,1,7.85,7.84v1a7.84,7.84,0,0,1-7.85,7.84H115.86Z" style="fill:#92E3A9;stroke:#263238;stroke-linecap:round;stroke-linejoin:round;stroke-width:1.0874300000000001px"></path><rect x="76.79" y="358.94" width="51.02" height="16.72" rx="7.43" transform="translate(204.61 734.6) rotate(180)" style="fill:#92E3A9;stroke:#263238;stroke-linecap:round;stroke-linejoin:round;stroke-width:1.0874300000000001px"></rect><path d="M162.94,395.3a3,3,0,1,1-3-3A3,3,0,0,1,162.94,395.3Z" style="fill:#92E3A9;stroke:#263238;stroke-linecap:round;stroke-linejoin:round;stroke-width:1.0874300000000001px"></path><path d="M157.19,245.75h4.58l-4.67,44.46h-4.58a1.69,1.69,0,0,1-1.71-1.91l4.27-40.64A2.17,2.17,0,0,1,157.19,245.75Z" style="fill:#fff;stroke:#263238;stroke-linecap:round;stroke-linejoin:round;stroke-width:1.0874300000000001px"></path><rect x="104.23" y="312.08" width="140.52" height="14.44" transform="translate(348.97 638.6) rotate(180)" style="fill:#92E3A9;stroke:#263238;stroke-linecap:round;stroke-linejoin:round;stroke-width:1.0874300000000001px"></rect><rect x="54.2" y="312.08" width="50.02" height="14.44" transform="translate(158.43 638.6) rotate(180)" style="fill:#92E3A9;stroke:#263238;stroke-linecap:round;stroke-linejoin:round;stroke-width:1.0874300000000001px"></rect><rect x="110.07" y="303.93" width="139.19" height="8.16" transform="translate(359.33 616.01) rotate(180)" style="fill:#999;stroke:#263238;stroke-linecap:round;stroke-linejoin:round;stroke-width:1.0874300000000001px"></rect><rect x="49.69" y="303.93" width="60.38" height="8.16" transform="translate(159.76 616.01) rotate(180)" style="fill:#858585;stroke:#263238;stroke-linecap:round;stroke-linejoin:round;stroke-width:1.0874300000000001px"></rect><polygon points="237.12 444.75 240.16 444.75 241.25 326.52 237.12 326.52 237.12 444.75" style="fill:#999;stroke:#263238;stroke-linecap:round;stroke-linejoin:round;stroke-width:1.0874300000000001px"></polygon><polygon points="234.08 444.75 237.12 444.75 237.12 326.52 232.99 326.52 234.08 444.75" style="fill:#858585;stroke:#263238;stroke-linecap:round;stroke-linejoin:round;stroke-width:1.0874300000000001px"></polygon><polygon points="196.94 444.75 199.98 444.75 201.07 326.52 196.94 326.52 196.94 444.75" style="fill:#999;stroke:#263238;stroke-linecap:round;stroke-linejoin:round;stroke-width:1.0874300000000001px"></polygon><polygon points="193.9 444.75 196.94 444.75 196.94 326.52 192.81 326.52 193.9 444.75" style="fill:#858585;stroke:#263238;stroke-linecap:round;stroke-linejoin:round;stroke-width:1.0874300000000001px"></polygon><polygon points="102.01 444.75 105.05 444.75 106.14 326.52 102.01 326.52 102.01 444.75" style="fill:#999;stroke:#263238;stroke-linecap:round;stroke-linejoin:round;stroke-width:1.0874300000000001px"></polygon><polygon points="98.97 444.75 102.01 444.75 102.01 326.52 97.88 326.52 98.97 444.75" style="fill:#858585;stroke:#263238;stroke-linecap:round;stroke-linejoin:round;stroke-width:1.0874300000000001px"></polygon><polygon points="61.83 444.75 64.87 444.75 65.95 326.52 61.83 326.52 61.83 444.75" style="fill:#999;stroke:#263238;stroke-linecap:round;stroke-linejoin:round;stroke-width:1.0874300000000001px"></polygon><polygon points="58.78 444.75 61.83 444.75 61.83 326.52 57.7 326.52 58.78 444.75" style="fill:#858585;stroke:#263238;stroke-linecap:round;stroke-linejoin:round;stroke-width:1.0874300000000001px"></polygon><rect x="72.99" y="267.34" width="31.23" height="36.59" transform="translate(177.22 571.27) rotate(180)" style="fill:#999;stroke:#263238;stroke-linecap:round;stroke-linejoin:round;stroke-width:1.0874300000000001px"></rect><rect x="104.07" y="267.34" width="21.2" height="36.59" transform="translate(229.35 571.27) rotate(180)" style="fill:#fff;stroke:#263238;stroke-linecap:round;stroke-linejoin:round;stroke-width:1.0874300000000001px"></rect><line x1="97.88" y1="271.91" x2="102.05" y2="271.91" style="fill:none;stroke:#263238;stroke-linecap:round;stroke-linejoin:round;stroke-width:1.0874300000000001px"></line><line x1="75.17" y1="271.91" x2="88.61" y2="271.91" style="fill:none;stroke:#263238;stroke-linecap:round;stroke-linejoin:round;stroke-width:1.0874300000000001px"></line><line x1="91.64" y1="276.48" x2="102.05" y2="276.48" style="fill:none;stroke:#263238;stroke-linecap:round;stroke-linejoin:round;stroke-width:1.0874300000000001px"></line><line x1="75.17" y1="276.48" x2="81.89" y2="276.48" style="fill:none;stroke:#263238;stroke-linecap:round;stroke-linejoin:round;stroke-width:1.0874300000000001px"></line><line x1="95.72" y1="281.06" x2="102.05" y2="281.06" style="fill:none;stroke:#263238;stroke-linecap:round;stroke-linejoin:round;stroke-width:1.0874300000000001px"></line><line x1="75.17" y1="281.06" x2="81.89" y2="281.06" style="fill:none;stroke:#263238;stroke-linecap:round;stroke-linejoin:round;stroke-width:1.0874300000000001px"></line><line x1="91.64" y1="285.63" x2="102.05" y2="285.63" style="fill:none;stroke:#263238;stroke-linecap:round;stroke-linejoin:round;stroke-width:1.0874300000000001px"></line><line x1="75.17" y1="285.63" x2="84.3" y2="285.63" style="fill:none;stroke:#263238;stroke-linecap:round;stroke-linejoin:round;stroke-width:1.0874300000000001px"></line><line x1="96.84" y1="290.21" x2="102.05" y2="290.21" style="fill:none;stroke:#263238;stroke-linecap:round;stroke-linejoin:round;stroke-width:1.0874300000000001px"></line><line x1="75.17" y1="290.21" x2="86.75" y2="290.21" style="fill:none;stroke:#263238;stroke-linecap:round;stroke-linejoin:round;stroke-width:1.0874300000000001px"></line><line x1="91.64" y1="294.78" x2="102.05" y2="294.78" style="fill:none;stroke:#263238;stroke-linecap:round;stroke-linejoin:round;stroke-width:1.0874300000000001px"></line><line x1="75.17" y1="294.78" x2="79.22" y2="294.78" style="fill:none;stroke:#263238;stroke-linecap:round;stroke-linejoin:round;stroke-width:1.0874300000000001px"></line><line x1="96.84" y1="299.35" x2="102.05" y2="299.35" style="fill:none;stroke:#263238;stroke-linecap:round;stroke-linejoin:round;stroke-width:1.0874300000000001px"></line><line x1="75.17" y1="299.35" x2="79.88" y2="299.35" style="fill:none;stroke:#263238;stroke-linecap:round;stroke-linejoin:round;stroke-width:1.0874300000000001px"></line><line x1="117.64" y1="271.91" x2="123.1" y2="271.91" style="fill:none;stroke:#263238;stroke-linecap:round;stroke-linejoin:round;stroke-width:1.0874300000000001px"></line><line x1="106.25" y1="271.91" x2="114.67" y2="271.91" style="fill:none;stroke:#263238;stroke-linecap:round;stroke-linejoin:round;stroke-width:1.0874300000000001px"></line><line x1="112.71" y1="276.48" x2="123.1" y2="276.48" style="fill:none;stroke:#263238;stroke-linecap:round;stroke-linejoin:round;stroke-width:1.0874300000000001px"></line><line x1="106.25" y1="276.48" x2="109.37" y2="276.48" style="fill:none;stroke:#263238;stroke-linecap:round;stroke-linejoin:round;stroke-width:1.0874300000000001px"></line><line x1="115.93" y1="281.06" x2="123.1" y2="281.06" style="fill:none;stroke:#263238;stroke-linecap:round;stroke-linejoin:round;stroke-width:1.0874300000000001px"></line><line x1="106.25" y1="281.06" x2="109.37" y2="281.06" style="fill:none;stroke:#263238;stroke-linecap:round;stroke-linejoin:round;stroke-width:1.0874300000000001px"></line><line x1="114.89" y1="285.63" x2="123.1" y2="285.63" style="fill:none;stroke:#263238;stroke-linecap:round;stroke-linejoin:round;stroke-width:1.0874300000000001px"></line><line x1="106.25" y1="285.63" x2="111.27" y2="285.63" style="fill:none;stroke:#263238;stroke-linecap:round;stroke-linejoin:round;stroke-width:1.0874300000000001px"></line><line x1="116.82" y1="290.21" x2="123.1" y2="290.21" style="fill:none;stroke:#263238;stroke-linecap:round;stroke-linejoin:round;stroke-width:1.0874300000000001px"></line><line x1="106.25" y1="290.21" x2="113.2" y2="290.21" style="fill:none;stroke:#263238;stroke-linecap:round;stroke-linejoin:round;stroke-width:1.0874300000000001px"></line><line x1="112.71" y1="294.78" x2="123.1" y2="294.78" style="fill:none;stroke:#263238;stroke-linecap:round;stroke-linejoin:round;stroke-width:1.0874300000000001px"></line><line x1="106.25" y1="294.78" x2="107.27" y2="294.78" style="fill:none;stroke:#263238;stroke-linecap:round;stroke-linejoin:round;stroke-width:1.0874300000000001px"></line><line x1="116.82" y1="299.35" x2="123.1" y2="299.35" style="fill:none;stroke:#263238;stroke-linecap:round;stroke-linejoin:round;stroke-width:1.0874300000000001px"></line><line x1="106.25" y1="299.35" x2="107.79" y2="299.35" style="fill:none;stroke:#263238;stroke-linecap:round;stroke-linejoin:round;stroke-width:1.0874300000000001px"></line><polygon points="91.6 279.98 99.45 276.49 88.11 276.49 91.6 279.98" style="fill:#fff;stroke:#263238;stroke-linecap:round;stroke-linejoin:round;stroke-width:1.0874300000000001px"></polygon><polygon points="74.4 283.52 79.88 281.08 75.17 281.08 74.4 283.52" style="fill:#fff;stroke:#263238;stroke-linecap:round;stroke-linejoin:round;stroke-width:1.0874300000000001px"></polygon><polygon points="122.25 283.52 116.77 281.08 121.48 281.08 122.25 283.52" style="fill:#999;stroke:#263238;stroke-linecap:round;stroke-linejoin:round;stroke-width:1.0874300000000001px"></polygon><polygon points="117.63 297.22 112.15 294.78 120.12 294.78 117.63 297.22" style="fill:#999;stroke:#263238;stroke-linecap:round;stroke-linejoin:round;stroke-width:1.0874300000000001px"></polygon><polygon points="88.67 293.7 91.08 290.21 79.73 290.21 88.67 293.7" style="fill:#fff;stroke:#263238;stroke-linecap:round;stroke-linejoin:round;stroke-width:1.0874300000000001px"></polygon><polygon points="125.27 276.49 128.45 279.75 125.27 279.35 125.27 276.49" style="fill:#999;stroke:#263238;stroke-linecap:round;stroke-linejoin:round;stroke-width:1.0874300000000001px"></polygon><polygon points="72.99 271.91 67.64 276.26 72.99 275.87 72.99 271.91" style="fill:#fff;stroke:#263238;stroke-linecap:round;stroke-linejoin:round;stroke-width:1.0874300000000001px"></polygon><polygon points="72.99 295.05 69.82 299.4 72.99 299 72.99 295.05" style="fill:#fff;stroke:#263238;stroke-linecap:round;stroke-linejoin:round;stroke-width:1.0874300000000001px"></polygon><polygon points="135.14 303.93 150.55 303.93 150.55 301.39 135.14 302.48 135.14 303.93" style="fill:#fff;stroke:#263238;stroke-linecap:round;stroke-linejoin:round;stroke-width:1.0874300000000001px"></polygon><rect x="150.55" y="301.39" width="15.74" height="2.54" transform="translate(316.84 605.32) rotate(180)" style="fill:#263238;stroke:#263238;stroke-linecap:round;stroke-linejoin:round;stroke-width:1.0874300000000001px"></rect><path d="M211.33,300h6.54a1.88,1.88,0,0,1,1.88,1.88v2a0,0,0,0,1,0,0H209.44a0,0,0,0,1,0,0v-2A1.88,1.88,0,0,1,211.33,300Z" transform="translate(429.2 603.96) rotate(180)" style="fill:#999;stroke:#263238;stroke-linecap:round;stroke-linejoin:round;stroke-width:1.0874300000000001px"></path><path d="M219.76,300.05c0-1.48-2.31-2.68-5.16-2.68s-5.16,1.2-5.16,2.68Z" style="fill:#fff;stroke:#263238;stroke-linecap:round;stroke-linejoin:round;stroke-width:1.0874300000000001px"></path><path d="M209.44,300.05c0-1.48,2.31-2.68,5.16-2.68v2.68Z" style="fill:#fff;stroke:#263238;stroke-linecap:round;stroke-linejoin:round;stroke-width:1.0874300000000001px"></path><path d="M210.24,288.16h0a1.18,1.18,0,0,0,1.15-1l.27-2.55a.92.92,0,0,0-.93-1.05h0a1.18,1.18,0,0,0-1.15,1.05l-.27,2.55A.92.92,0,0,0,210.24,288.16Z" style="fill:none;stroke:#263238;stroke-linecap:round;stroke-linejoin:round;stroke-width:1.0874300000000001px"></path><path d="M206.79,288.16h0a1.18,1.18,0,0,0,1.15-1l.27-2.55a.93.93,0,0,0-.93-1.05h0a1.18,1.18,0,0,0-1.15,1.05l-.27,2.55A.92.92,0,0,0,206.79,288.16Z" style="fill:none;stroke:#263238;stroke-linecap:round;stroke-linejoin:round;stroke-width:1.0874300000000001px"></path><path d="M203.34,288.16h0a1.19,1.19,0,0,0,1.15-1l.27-2.55a.93.93,0,0,0-.93-1.05h0a1.2,1.2,0,0,0-1.16,1.05l-.26,2.55A.92.92,0,0,0,203.34,288.16Z" style="fill:none;stroke:#263238;stroke-linecap:round;stroke-linejoin:round;stroke-width:1.0874300000000001px"></path><path d="M232.76,284.48h4.11a4.38,4.38,0,0,1,4.38,4.38v15.07a0,0,0,0,1,0,0H228.38a0,0,0,0,1,0,0V288.86A4.38,4.38,0,0,1,232.76,284.48Z" transform="translate(469.63 588.41) rotate(180)" style="fill:#92E3A9;stroke:#263238;stroke-linecap:round;stroke-linejoin:round;stroke-width:1.0874300000000001px"></path><path d="M236.81,284.48h2.58l1.92-11.08a1.27,1.27,0,0,0-1.25-1.49h0A1.29,1.29,0,0,0,238.8,273Z" style="fill:#263238;stroke:#263238;stroke-linecap:round;stroke-linejoin:round;stroke-width:1.0874300000000001px"></path><path d="M229.2,284.48h2.71l-1-10.26a.67.67,0,0,0-.66-.6h-1.37a.67.67,0,0,0-.67.73Z" style="fill:#fff;stroke:#263238;stroke-linecap:round;stroke-linejoin:round;stroke-width:1.0874300000000001px"></path><polygon points="234 284.48 235.72 284.48 236.81 272.3 235.09 272.3 234 284.48" style="fill:#999;stroke:#263238;stroke-linecap:round;stroke-linejoin:round;stroke-width:1.0874300000000001px"></polygon><path d="M154.65,290.21h57.63a2.18,2.18,0,0,0,2.11-1.91l4.27-40.64a1.68,1.68,0,0,0-1.71-1.91H159.32a2.16,2.16,0,0,0-2.1,1.91L153,288.3A1.69,1.69,0,0,0,154.65,290.21Z" style="fill:#263238;stroke:#263238;stroke-linecap:round;stroke-linejoin:round;stroke-width:1.0874300000000001px"></path><rect x="174.68" y="299.35" width="28.66" height="4.57" transform="translate(378.01 603.28) rotate(180)" style="fill:#263238;stroke:#263238;stroke-linecap:round;stroke-linejoin:round;stroke-width:1.0874300000000001px"></rect><rect x="166.29" y="299.35" width="8.39" height="4.57" transform="translate(340.97 603.28) rotate(180)" style="fill:#fff;stroke:#263238;stroke-linecap:round;stroke-linejoin:round;stroke-width:1.0874300000000001px"></rect><path d="M189.25,280a5.14,5.14,0,0,0-3.88-4.36,4.19,4.19,0,0,1,1.07-.15,5.14,5.14,0,0,1,5,4.51,4,4,0,0,1-4,4.51,4.49,4.49,0,0,1-1.1-.15A4,4,0,0,0,189.25,280Z" style="fill:#92E3A9;stroke:#263238;stroke-linecap:round;stroke-linejoin:round;stroke-width:1.0874300000000001px"></path><path d="M179,272.21l2.86,27.14h-2.18l-2.85-27.14a1,1,0,0,1,1-1.18h2.18A1,1,0,0,0,179,272.21Z" style="fill:#92E3A9;stroke:#263238;stroke-linecap:round;stroke-linejoin:round;stroke-width:1.0874300000000001px"></path><path d="M179,272.21l2.86,27.14H196l-2.85-27.14a1.34,1.34,0,0,0-1.31-1.18H180.09A1,1,0,0,0,179,272.21Zm7.41,3.26a5.14,5.14,0,0,1,5,4.51,4,4,0,0,1-4,4.51,5.13,5.13,0,0,1-5-4.51A4,4,0,0,1,186.44,275.47Z" style="fill:#92E3A9;stroke:#263238;stroke-linecap:round;stroke-linejoin:round;stroke-width:1.0874300000000001px"></path></g><g id="Clock"><path d="M103.78,182.27a29.82,29.82,0,1,1,29.81-29.82A29.82,29.82,0,0,1,103.78,182.27Z" style="fill:#fff"></path><path d="M103.78,119.29A33.17,33.17,0,1,0,137,152.45,33.17,33.17,0,0,0,103.78,119.29Zm0,60.18a27,27,0,1,1,27-27A27,27,0,0,1,103.78,179.47Z" style="fill:#263238"></path><polyline points="103.78 132.25 103.78 152.45 110.31 167.04" style="fill:none;stroke:#263238;stroke-linecap:round;stroke-linejoin:round;stroke-width:1.0874300000000001px"></polyline></g><g id="Character"><path d="M360.3,408.43,371,413.69l-6.27,9.82s2.34,11.84,5.14,15.19c1,1.15,4.79,2.91,4,4.44-.55,1.07-3.49,1.88-5.48,1.53a5.64,5.64,0,0,1-3.1-1.67l-15.83-16.71a5.55,5.55,0,0,1,.69-8.26c1.54-1.16,3.58-1.57,5.08-2.53C357.08,414.33,360.3,408.43,360.3,408.43Z" style="fill:#fff;stroke:#263238;stroke-miterlimit:10;stroke-width:1.0874300000000001px"></path><path d="M368.41,444.67c2,.35,4.93-.46,5.48-1.53.78-1.53-3.05-3.29-4-4.44-2.8-3.35-5.14-15.19-5.14-15.19l.11-.17c-2.23,0-4.79,1.12-6,.25-2-1.42-1.79-3.21-2.08-5.5a6.46,6.46,0,0,0-1.22-2.81,2.69,2.69,0,0,1-.28.22c-1.5,1-3.54,1.37-5.08,2.53a5.55,5.55,0,0,0-.69,8.26L365.31,443A5.64,5.64,0,0,0,368.41,444.67Z" style="fill:#92E3A9;stroke:#263238;stroke-miterlimit:10;stroke-width:1.0874300000000001px"></path><path d="M385.54,311.86l2.26,57.79c-11.59,9-14.27,13.65-31.43,39.37l13.31,9.07,36.59-42.43,10.15-47.08-4-14.17-12.57-5.16Z" style="fill:#263238"></path><path d="M437.67,416.32l.92,15.11s10,5.51,14,7c1.54.57,6.62,1.16,7.56,2.51a1.25,1.25,0,0,1,.13.77,3.38,3.38,0,0,1-3.42,3.05H429.6a4.35,4.35,0,0,1-4.35-4.26c-.05-2.33,1-5.12,1-7.86a53.81,53.81,0,0,0-1.12-7.12Z" style="fill:#fff;stroke:#263238;stroke-miterlimit:10;stroke-width:1.0874300000000001px"></path><path d="M456.83,444.75a3.38,3.38,0,0,0,3.42-3.05,1.25,1.25,0,0,0-.13-.77c-.94-1.35-6-1.94-7.56-2.51-4-1.48-14-7-14-7v0a4.09,4.09,0,0,0-2.4,1.75c-.75,1.8-4.81,3.38-7.21,1a4.69,4.69,0,0,0-2.71-1.36c-.08,2.68-1.06,5.39-1,7.67a4.35,4.35,0,0,0,4.35,4.26Z" style="fill:#92E3A9;stroke:#263238;stroke-miterlimit:10;stroke-width:1.0874300000000001px"></path><path d="M383.48,302l34.59-11.77,16.1,74.62,5.66,59-15.5,4.48-5.13-22.41c-5.92-23-3.71-35.25-3.71-35.25S383.19,319,383.48,302Z" style="fill:#263238"></path><path d="M392.5,210.9l3.2-13.13L392.5,187v-12.2l9.69-5.35,8.45-1.25,3.37,2.19,1.33,3.51s4,9.22,3.31,10.94-1.25,3.37-1.25,3.37,2.69,4.43,3,6.31c.41,2.25-2.52.52-3,3.21s-.38,8.76-3.56,9-4.9.26-5.27,3.07-1.27,10.47-1.27,10.47Z" style="fill:#fff;stroke:#263238;stroke-linecap:round;stroke-linejoin:round;stroke-width:1.0874300000000001px"></path><path d="M417.91,160.31s-4.94.5-5.51,4l-1.87-5.92s-3.12,1.9-2.56,4.8L401.66,161a3.88,3.88,0,0,0,.79,4.86s-14.94-3.94-14.45,9.86c0,0-7.8,6.26,7,25.1l2.68-3.73.12-.28a5,5,0,0,1-2.8-3.93c-.4-2.61.94-5,3-5.3a3.58,3.58,0,0,1,3.28,1.45l2.36-5.3,3.52-3.84-.82-2.32s10.47.7,9.83-7.76S417.91,160.31,417.91,160.31Z" style="fill:#263238;stroke:#263238;stroke-linecap:round;stroke-linejoin:round;stroke-width:1.0874300000000001px"></path><path d="M414.74,187.72c0,.67-.33,1.21-.73,1.21s-.72-.54-.72-1.21.32-1.21.72-1.21S414.74,187.05,414.74,187.72Z" style="fill:#263238"></path><path d="M411.35,185.12s1.73-3.35,4.84-1.33" style="fill:none;stroke:#263238;stroke-linecap:round;stroke-linejoin:round;stroke-width:1.0874300000000001px"></path><path d="M393.19,174.74a10.69,10.69,0,0,1,11.53-3.45c7.34,2.22,2.62-6.64,2.62-6.64" style="fill:none;stroke:#7f7f7f;stroke-linecap:round;stroke-linejoin:round;stroke-width:1.0874300000000001px"></path><path d="M412.77,165.18s4.53,9.42-5.34,9.87" style="fill:none;stroke:#7f7f7f;stroke-linecap:round;stroke-linejoin:round;stroke-width:1.0874300000000001px"></path><path d="M414.32,198.66a4.52,4.52,0,0,1-3.93-2" style="fill:none;stroke:#263238;stroke-linecap:round;stroke-linejoin:round;stroke-width:1.0874300000000001px"></path><path d="M412.92,206.76s-5.22-.25-7.27-2.27l2.92,5.34S408.5,206,412.92,206.76Z" style="fill:#263238;stroke:#263238;stroke-linecap:round;stroke-linejoin:round;stroke-width:1.0874300000000001px"></path><line x1="431.51" y1="415.28" x2="432.34" y2="421.57" style="fill:none;stroke:#7f7f7f;stroke-linecap:round;stroke-linejoin:round;stroke-width:1.0874300000000001px"></line><path d="M430.9,410.64l-.52-4-3.28-25a138.27,138.27,0,0,0-6.51-27.43l-17.5-50.31-1.69-5.57" style="fill:none;stroke:#7f7f7f;stroke-linecap:round;stroke-linejoin:round;stroke-width:1.0874300000000001px"></path><path d="M409.89,296.81s1.3,10.85-3,15.83" style="fill:none;stroke:#7f7f7f;stroke-linecap:round;stroke-linejoin:round;stroke-width:1.0874300000000001px"></path><path d="M406.66,355.82c-7.31-12.75-17.15-31-21.26-43.91" style="fill:none;stroke:#7f7f7f;stroke-linecap:round;stroke-linejoin:round;stroke-width:1.0874300000000001px"></path><path d="M409.28,360.34l-.81-1.39" style="fill:none;stroke:#7f7f7f;stroke-linecap:round;stroke-linejoin:round;stroke-width:1.0874300000000001px"></path><path d="M454.29,281.39c-3.16-2.13-8.87.77-8.91.79h0L443.69,281H443l-5.37,5.79,2.13,1.39s6,6.06,10,6,9.6-5.72,9.6-5.72l-.95-1.1a2.92,2.92,0,0,0,1.8-.46C461.54,285.94,457.46,283.52,454.29,281.39Z" style="fill:#fff;stroke:#263238;stroke-linecap:round;stroke-linejoin:round;stroke-width:1.0874300000000001px"></path><path d="M457.94,289.26l-1.69-1.7,2-1.35,2.59,2.07s.44,1.48-1.42,1.78c0,0-.13,1.72-2.52,1.94a3,3,0,0,1-3.28,1.17s-.21,2-2.43,1.15l-.81-1,2-1.16.51.12.27-.84,1.7-1.06.66.25-.15-1,1.4-.71Z" style="fill:#fff;stroke:#263238;stroke-linecap:round;stroke-linejoin:round;stroke-width:1.0874300000000001px"></path><path d="M459.63,311.61h12.43a2.06,2.06,0,0,1,2.05,1.92c.35,4.71-.64,16.49-19.14,16.49-19,0-18.45-14.37-17.64-19.11a2,2,0,0,1,2-1.66h15.84a2.78,2.78,0,0,1,2.09.94l.47.54A2.58,2.58,0,0,0,459.63,311.61Z" style="fill:#92E3A9;stroke:#263238;stroke-linecap:round;stroke-linejoin:round;stroke-width:1.0874300000000001px"></path><path d="M456.2,315.11a.76.76,0,1,1,.75.75A.76.76,0,0,1,456.2,315.11Z" style="fill:#263238"></path><path d="M449.21,315.11a.76.76,0,1,1,.76.75A.76.76,0,0,1,449.21,315.11Z" style="fill:#263238"></path><path d="M449.17,309.25c2.12-4.11,4.48-7.7,5.62-8.53,1.15,1.09,3.36,5.65,5.31,10.89h3.61c-5.15-14.6-8-14.45-9-14.4-3,.15-6.69,6.52-9.37,12Z" style="fill:#263238"></path><path d="M455.6,300.6a1.44,1.44,0,0,1-.41-.05,1.7,1.7,0,0,1-1.24-2.06c1.82-7.39,2-14,1-14.68a1.7,1.7,0,1,1,1.36-3.12c4.55,2,2.2,13.68,1,18.62A1.7,1.7,0,0,1,455.6,300.6Z" style="fill:#263238"></path><path d="M454.47,297.22l2.57.55a.75.75,0,0,1,.39,1.27l-1.8,1.88a.76.76,0,0,1-1.27-.3l-.78-2.43A.76.76,0,0,1,454.47,297.22Z" style="fill:#fff;stroke:#263238;stroke-miterlimit:10;stroke-width:1.0874300000000001px"></path><path d="M454.29,281.39c3.17,2.13,7.25,4.55,5.94,5.47s-3.89.66-6.68-2.18c0,0-1.32,3.44-5.77,2.31" style="fill:#fff;stroke:#263238;stroke-linecap:round;stroke-linejoin:round;stroke-width:1.0874300000000001px"></path><path d="M445.36,287.37s4,1.66,4.61,3" style="fill:#fff;stroke:#263238;stroke-linecap:round;stroke-linejoin:round;stroke-width:1.0874300000000001px"></path><path d="M407.24,215.9s6,4,8.51,13.52,3.56,28.13,3.56,28.13L443,281l-7.6,5.9L410.35,271l-7.68-37.74Z" style="fill:#92E3A9;stroke:#263238;stroke-linecap:round;stroke-linejoin:round;stroke-width:1.0874300000000001px"></path><polygon points="430.38 288.28 436.13 291.2 446.65 279.5 440.36 275.04 430.38 288.28" style="fill:#92E3A9;stroke:#263238;stroke-linecap:round;stroke-linejoin:round;stroke-width:1.0874300000000001px"></polygon><path d="M376.34,296.52s27.05,4.43,43.87-2.32c0,0,.13-2.25-.69-26-.58-16.56-.77-36.17-6.59-46.17-4.42-7.61-21.86-14.06-21.86-14.06s-17.54,7.93-17.54,19.82,4.37,49.47,4.37,49.47Z" style="fill:#92E3A9;stroke:#263238;stroke-linecap:round;stroke-linejoin:round;stroke-width:1.0874300000000001px"></path><line x1="387.8" y1="274.95" x2="390.13" y2="298.41" style="fill:none;stroke:#263238;stroke-linecap:round;stroke-linejoin:round;stroke-width:1.0874300000000001px"></line><line x1="383.48" y1="245.23" x2="387.48" y2="271.79" style="fill:none;stroke:#263238;stroke-linecap:round;stroke-linejoin:round;stroke-width:1.0874300000000001px"></line><path d="M414.74,233.47c0,1-.39,1.79-.86,1.79s-.86-.8-.86-1.79.38-1.8.86-1.8S414.74,232.48,414.74,233.47Z" style="fill:#263238"></path><path d="M416.36,252.94c0,1-.38,1.8-.86,1.8s-.86-.81-.86-1.8.39-1.79.86-1.79S416.36,252,416.36,252.94Z" style="fill:#263238"></path><path d="M417.39,273.62c0,1-.38,1.79-.86,1.79s-.86-.8-.86-1.79.38-1.8.86-1.8S417.39,272.63,417.39,273.62Z" style="fill:#263238"></path><polygon points="392.53 205.92 408.94 216.89 408.3 211.95 412.93 222.07 409.62 218.38 407.01 223.84 389.87 209.11 392.53 205.92" style="fill:#92E3A9;stroke:#263238;stroke-linecap:round;stroke-linejoin:round;stroke-width:1.0874300000000001px"></polygon><path d="M396.31,286l-.25,0a1.7,1.7,0,0,1-1.44-1.92A314.43,314.43,0,0,0,397.31,250c.39-21.74-2.68-34.84-8.63-36.87-11-3.73-29.92,37.64-39.29,64.59a1.7,1.7,0,1,1-3.21-1.12,376.6,376.6,0,0,1,14.55-35.12c11.58-23.95,21.09-34.27,29-31.56,7.79,2.65,11.37,15.79,10.93,40.17a323,323,0,0,1-2.72,34.5A1.71,1.71,0,0,1,396.31,286Z" style="fill:#263238"></path><path d="M384.94,309.06a101.74,101.74,0,0,1-32.26-4.78c-4.41-1.36-7.35-6.44-6.69-11,1.16-7.77,1.73-11.66,2.88-19.43.67-4.52,4.7-6.77,9.11-5.41a101.74,101.74,0,0,0,32.26,4.78c4.62,0,7.82,3.29,7.15,7.81-1.15,7.77-1.72,11.66-2.88,19.43C393.84,305,389.56,309,384.94,309.06Z" style="fill:#263238"></path><path d="M390.24,273.26A101.74,101.74,0,0,1,358,268.48c-4.41-1.36-8.44.89-9.11,5.41-.47,3.19-.71,4.79-1.18,8a8,8,0,0,0,5.09,8.44,152,152,0,0,0,36.11,5.34,8,8,0,0,0,7.32-6.59c.47-3.2.71-4.8,1.18-8C398.06,276.55,394.86,273.23,390.24,273.26Z" style="fill:#263238"></path><path d="M347.69,281.88a8,8,0,0,0,5.09,8.44,152,152,0,0,0,36.11,5.34,8,8,0,0,0,7.32-6.59" style="fill:none;stroke:#7f7f7f;stroke-linecap:round;stroke-linejoin:round;stroke-width:1.0874300000000001px"></path><path d="M355.36,300.13l-1.33-.4a2.13,2.13,0,0,1-1.45-2.28l1.32-8.89c1.89.6,2.84.88,4.75,1.4-.53,3.56-.79,5.34-1.32,8.9A1.52,1.52,0,0,1,355.36,300.13Z" style="fill:#999;stroke:#263238;stroke-linecap:round;stroke-linejoin:round;stroke-width:1.0874300000000001px"></path><path d="M387.44,304.29l-1.38,0a1.48,1.48,0,0,1-1.53-1.75c.53-3.56.79-5.34,1.32-8.89,2,0,3,0,5-.08-.53,3.56-.79,5.34-1.32,8.9A2.2,2.2,0,0,1,387.44,304.29Z" style="fill:#999;stroke:#263238;stroke-linecap:round;stroke-linejoin:round;stroke-width:1.0874300000000001px"></path><path d="M390.42,280.28a102.2,102.2,0,0,1-33.31-4.71,1.54,1.54,0,0,1-1-1.65h0a1.06,1.06,0,0,1,1.42-.88,102.14,102.14,0,0,0,33.3,4.71A1,1,0,0,1,391.9,279h0A1.58,1.58,0,0,1,390.42,280.28Z" style="fill:#858585;stroke:#263238;stroke-linecap:round;stroke-linejoin:round;stroke-width:1.0874300000000001px"></path><path d="M356,295.81l-1.32-.39a2.15,2.15,0,0,1-1.45-2.28l1.13-7.64a1.09,1.09,0,0,1,1.4-.88c.91.28,1.65.5,2.61.77a1.08,1.08,0,0,1,.79,1.2l-1.18,8A1.52,1.52,0,0,1,356,295.81Z" style="fill:#858585;stroke:#263238;stroke-linecap:round;stroke-linejoin:round;stroke-width:1.0874300000000001px"></path><path d="M388.08,300c-.55,0-.83,0-1.38,0a1.48,1.48,0,0,1-1.53-1.74l1.17-7.92a1.16,1.16,0,0,1,1.14-1c.95,0,1.7,0,2.6,0a1.15,1.15,0,0,1,1.17,1.31l-1.12,7.54A2.19,2.19,0,0,1,388.08,300Z" style="fill:#858585;stroke:#263238;stroke-linecap:round;stroke-linejoin:round;stroke-width:1.0874300000000001px"></path><path d="M366,298.49l-.39,4.84,3,6.55s1.83,8.5,0,8.85h-2.3s-.08,4-3.93,2.13a2.61,2.61,0,0,1-3.3-1.67s-3-.14-3.22-2.35c0,0-2.93-1.72-1.92-6.18a71.67,71.67,0,0,1,2.3-7.93l.67-6Z" style="fill:#fff;stroke:#263238;stroke-linecap:round;stroke-linejoin:round;stroke-width:1.0874300000000001px"></path><path d="M391.41,235.32l-17.73,27.16-.46,4.57q-.57,5.76-1.49,11.48l-3.55,22.16-12.52-.76,2.12-42.07a153.13,153.13,0,0,1,9-21.43c9.6-17.86,18.61-23.73,18.61-23.73S397.31,212,391.41,235.32Z" style="fill:#92E3A9"></path><path d="M391.41,235.32l-17.73,27.16-.46,4.57q-.57,5.76-1.49,11.48l-3.55,22.16-12.52-.76,2.12-42.07a153.13,153.13,0,0,1,9-21.43c9.6-17.86,18.61-23.73,18.61-23.73" style="fill:none;stroke:#263238;stroke-linecap:round;stroke-linejoin:round;stroke-width:1.0874300000000001px"></path><path d="M365.62,263.68s4.06-1.94,4.28-2.84c.3-1.23-3.92-4.15-3.92-4.15" style="fill:none;stroke:#263238;stroke-linecap:round;stroke-linejoin:round;stroke-width:1.0874300000000001px"></path><path d="M389.14,212.13s-8,2.21-11.38,13.33" style="fill:none;stroke:#263238;stroke-linecap:round;stroke-linejoin:round;stroke-width:1.0874300000000001px"></path><polygon points="353.59 294.14 353.59 300.27 369.82 301.67 370.61 294.59 353.59 294.14" style="fill:#92E3A9;stroke:#263238;stroke-linecap:round;stroke-linejoin:round;stroke-width:1.0874300000000001px"></polygon></g></svg>