<svg xmlns="http://www.w3.org/2000/svg" viewBox="0 0 500 500"><g id="background-simple"><path d="M156.87,466.82s-89.36-33.92-130.73-139S133.7,149.1,132,133.38s-105.9-24-43.85-74.47S367.85,2.65,447.29,111,444,255,435.7,274s73.64,26.47,16.55,124.11S222.23,493.3,156.87,466.82Z" style="fill:#92E3A9"></path><path d="M156.87,466.82s-89.36-33.92-130.73-139S133.7,149.1,132,133.38s-105.9-24-43.85-74.47S367.85,2.65,447.29,111,444,255,435.7,274s73.64,26.47,16.55,124.11S222.23,493.3,156.87,466.82Z" style="fill:#fff;opacity:0.7000000000000001"></path></g><g id="Clouds"><g style="opacity:0.5"><path d="M403.26,48.88c-20.8-30-51.9-19.57-68.36,7.85-4.27,7.12-10-2.84-22.06.71s-14.94,15-18.5,17.79-6.4-3.55-15.65-2.84-14.95,7.83-14.95,7.83L236,85.91H470.11s-10-22.06-22.06-27.75-22.77,3.55-32.74.71C409.62,57.24,406.29,53.27,403.26,48.88Z" style="fill:none;stroke:#000;stroke-miterlimit:10"></path><path d="M402.51,58.87c-5.38-3.59-8.72-9.25-13.13-13.83-6.79-7.06-19.69-4.77-24.69,3.22-6.4,10.24-2,15.36-5.12,17.15s-8.7-2-13.31,1.79-3.32,7.68-5.63,9.22-2.81-1-6.65,1.28-4.35,4.35-4.35,4.35" style="fill:none;stroke:#000;stroke-miterlimit:10"></path></g><g style="opacity:0.5"><path d="M168,49.07c-13.26-19.15-33.08-12.48-43.57,5-2.72,4.54-6.35-1.81-14.06.46s-9.52,9.52-11.79,11.34-4.08-2.27-10-1.82A14.7,14.7,0,0,0,79,69L61.35,72.67H210.57S204.22,58.61,196.51,55s-14.52,2.27-20.87.45C172,54.4,169.9,51.86,168,49.07Z" style="fill:none;stroke:#000;stroke-miterlimit:10"></path><path d="M167.48,55.43c-3.43-2.29-5.55-5.89-8.36-8.81-4.33-4.5-12.56-3-15.74,2.05-4.08,6.53-1.3,9.79-3.26,10.93s-5.55-1.3-8.49,1.15-2.12,4.89-3.58,5.87-1.8-.65-4.25.81S121,70.21,121,70.21" style="fill:none;stroke:#000;stroke-miterlimit:10"></path></g><g style="opacity:0.5"><path d="M110.85,129.16c-9.85-14.23-24.59-9.27-32.39,3.73-2,3.37-4.72-1.35-10.45.33s-7.08,7.08-8.77,8.43-3-1.68-7.41-1.35A10.93,10.93,0,0,0,44.75,144l-13.15,2.7H142.53s-4.72-10.45-10.45-13.15-10.79,1.69-15.52.34C113.87,133.13,112.29,131.24,110.85,129.16Z" style="fill:none;stroke:#000;stroke-miterlimit:10"></path><path d="M110.5,133.9c-2.55-1.7-4.13-4.38-6.22-6.56-3.22-3.34-9.33-2.26-11.7,1.53-3,4.85-1,7.28-2.43,8.13s-4.12-1-6.3.85-1.58,3.64-2.67,4.36-1.34-.48-3.15.61S76,144.88,76,144.88" style="fill:none;stroke:#000;stroke-miterlimit:10"></path></g></g><g id="Trees"><path d="M493.83,219.84c0,23.57-13.95,42.69-31.15,42.69s-31.15-19.12-31.15-42.69,14-104.6,31.15-104.6S493.83,196.26,493.83,219.84Z" style="fill:#92E3A9"></path><polygon points="480.15 232.17 470.71 235.66 472.61 229.98 468.1 236.63 463.6 238.29 463.27 219.65 479.66 197.88 470.88 206.66 472.37 200.56 468.16 209.38 463.18 214.36 462.68 185.23 460.9 227.71 445.37 211.26 453.9 222.85 445.86 221.96 455.79 225.42 460.71 232.11 459.85 252.6 454.12 248.71 459.67 256.84 457.04 317.18 465 317.18 463.65 241.27 480.15 232.17" style="fill:#263238"></polygon><path d="M479.82,185.32a6.78,6.78,0,0,1-5.67,7.61,6.78,6.78,0,0,1,5.67-7.61Z" style="fill:#fff"></path><path d="M489.21,198.51a8,8,0,0,1-1.28,5,7.9,7.9,0,0,1-4.39,2.65,6.78,6.78,0,0,1,5.67-7.61Z" style="fill:#fff"></path><path d="M489.2,224.19a6.75,6.75,0,0,1-7.89,5.26,6.77,6.77,0,0,1,7.89-5.26Z" style="fill:#fff"></path><path d="M437.64,224.19a6.76,6.76,0,0,0,7.9,5.26,6.79,6.79,0,0,0-7.9-5.26Z" style="fill:#fff"></path><path d="M478.36,213.53a6.77,6.77,0,0,1-5.67,7.61,6.78,6.78,0,0,1,5.67-7.61Z" style="fill:#fff"></path><path d="M475.93,171a6.78,6.78,0,0,1-5.67,7.61,6.78,6.78,0,0,1,5.67-7.61Z" style="fill:#fff"></path><path d="M470.33,181.92a6.75,6.75,0,0,1-5.66,7.6,6.75,6.75,0,0,1,5.66-7.6Z" style="fill:#fff"></path><path d="M483.61,174a6.76,6.76,0,0,1-5.66,7.61,6.75,6.75,0,0,1,5.66-7.61Z" style="fill:#fff"></path><path d="M440.46,174a6.78,6.78,0,0,0,5.66,7.61,6.75,6.75,0,0,0-5.66-7.61Z" style="fill:#fff"></path><path d="M477.14,157.59a6.75,6.75,0,0,1-5.66,7.61,6.76,6.76,0,0,1,5.66-7.61Z" style="fill:#fff"></path><path d="M474.39,143.39a6.74,6.74,0,0,1-3.57,8.78,6.76,6.76,0,0,1,3.57-8.78Z" style="fill:#fff"></path><path d="M454.7,139.67a6.77,6.77,0,0,1,3.23,8.92,6.77,6.77,0,0,1-3.23-8.92Z" style="fill:#fff"></path><path d="M463.88,156.66a6.76,6.76,0,0,1-.54,9.47,6.76,6.76,0,0,1,.54-9.47Z" style="fill:#fff"></path><path d="M463.4,131.37a6.77,6.77,0,0,1-.55,9.47,6.77,6.77,0,0,1,.55-9.47Z" style="fill:#fff"></path><path d="M442.78,185.32a6.78,6.78,0,0,0,5.66,7.61,6.76,6.76,0,0,0-5.66-7.61Z" style="fill:#fff"></path><path d="M437.43,200.89a6.75,6.75,0,0,0,5.66,7.6,6.75,6.75,0,0,0-5.66-7.6Z" style="fill:#fff"></path><path d="M451.63,206.54a6.78,6.78,0,0,0,5.67,7.61,8,8,0,0,0-1.28-5A7.92,7.92,0,0,0,451.63,206.54Z" style="fill:#fff"></path><path d="M455.51,185a6.78,6.78,0,0,0,3.25,8.91,6.76,6.76,0,0,0-3.25-8.91Z" style="fill:#fff"></path><path d="M445.46,242.36a6.77,6.77,0,0,0,7.12-6.27,6.76,6.76,0,0,0-7.12,6.27Z" style="fill:#fff"></path><path d="M473.05,239.22a6.79,6.79,0,0,0,8.06,5,6.75,6.75,0,0,0-8.06-5Z" style="fill:#fff"></path><path d="M448.67,171a6.76,6.76,0,0,0,5.66,7.61,6.78,6.78,0,0,0-5.66-7.61Z" style="fill:#fff"></path><path d="M448.62,158.32a6.75,6.75,0,0,0,5.66,7.61,6.78,6.78,0,0,0-5.66-7.61Z" style="fill:#fff"></path><path d="M249.27,219.84c0,23.57-13.94,42.69-31.15,42.69S187,243.41,187,219.84s13.95-104.6,31.15-104.6S249.27,196.26,249.27,219.84Z" style="fill:#92E3A9"></path><polygon points="235.59 232.17 226.16 235.66 228.05 229.98 223.54 236.63 219.04 238.29 218.72 219.65 235.1 197.88 226.32 206.66 227.81 200.56 223.61 209.38 218.63 214.36 218.12 185.23 216.34 227.71 200.81 211.26 209.34 222.85 201.3 221.96 211.23 225.42 216.15 232.11 215.29 252.6 209.57 248.71 215.12 256.84 212.48 317.18 220.44 317.18 219.09 241.27 235.59 232.17" style="fill:#263238"></polygon><path d="M235.26,185.32a6.78,6.78,0,0,1-5.66,7.61,6.76,6.76,0,0,1,5.66-7.61Z" style="fill:#fff"></path><path d="M244.65,198.51a6.78,6.78,0,0,1-5.67,7.61,6.78,6.78,0,0,1,5.67-7.61Z" style="fill:#fff"></path><path d="M244.64,224.19a6.75,6.75,0,0,1-7.89,5.26,6.77,6.77,0,0,1,7.89-5.26Z" style="fill:#fff"></path><path d="M193.08,224.19a6.77,6.77,0,0,0,7.9,5.26,6.78,6.78,0,0,0-7.9-5.26Z" style="fill:#fff"></path><path d="M233.8,213.53a6.77,6.77,0,0,1-5.66,7.61,6.76,6.76,0,0,1,5.66-7.61Z" style="fill:#fff"></path><path d="M231.37,171a6.78,6.78,0,0,1-5.67,7.61,6.78,6.78,0,0,1,5.67-7.61Z" style="fill:#fff"></path><path d="M225.77,181.92a6.75,6.75,0,0,1-5.66,7.6,6.77,6.77,0,0,1,5.66-7.6Z" style="fill:#fff"></path><path d="M239.05,174a6.76,6.76,0,0,1-5.66,7.61,6.77,6.77,0,0,1,5.66-7.61Z" style="fill:#fff"></path><path d="M195.9,174a6.78,6.78,0,0,0,5.67,7.61,8,8,0,0,0-1.28-5A7.92,7.92,0,0,0,195.9,174Z" style="fill:#fff"></path><path d="M232.58,157.59a6.75,6.75,0,0,1-5.66,7.61,6.78,6.78,0,0,1,5.66-7.61Z" style="fill:#fff"></path><path d="M229.84,143.39a6.76,6.76,0,0,1-3.58,8.78,6.76,6.76,0,0,1,3.58-8.78Z" style="fill:#fff"></path><path d="M210.14,139.67a6.77,6.77,0,0,1,3.23,8.92,6.77,6.77,0,0,1-3.23-8.92Z" style="fill:#fff"></path><path d="M219.32,156.66a6.76,6.76,0,0,1-.54,9.47,6.76,6.76,0,0,1,.54-9.47Z" style="fill:#fff"></path><path d="M218.84,131.37a6.77,6.77,0,0,1-.55,9.47,6.77,6.77,0,0,1,.55-9.47Z" style="fill:#fff"></path><path d="M198.22,185.32a6.78,6.78,0,0,0,5.67,7.61,6.78,6.78,0,0,0-5.67-7.61Z" style="fill:#fff"></path><path d="M192.87,200.89a6.76,6.76,0,0,0,5.67,7.6,6.76,6.76,0,0,0-5.67-7.6Z" style="fill:#fff"></path><path d="M207.07,206.54a6.78,6.78,0,0,0,5.67,7.61,6.77,6.77,0,0,0-5.67-7.61Z" style="fill:#fff"></path><path d="M211,185a6.76,6.76,0,0,0,3.25,8.91A6.78,6.78,0,0,0,211,185Z" style="fill:#fff"></path><path d="M200.9,242.36a6.77,6.77,0,0,0,7.12-6.27,6.77,6.77,0,0,0-7.12,6.27Z" style="fill:#fff"></path><path d="M228.49,239.22a8,8,0,0,0,3,4.14,7.91,7.91,0,0,0,5.05.86,6.75,6.75,0,0,0-8.06-5Z" style="fill:#fff"></path><path d="M204.11,171a6.76,6.76,0,0,0,5.66,7.61,6.76,6.76,0,0,0-5.66-7.61Z" style="fill:#fff"></path><path d="M204.06,158.32a6.75,6.75,0,0,0,5.66,7.61,6.76,6.76,0,0,0-5.66-7.61Z" style="fill:#fff"></path><path d="M433.07,219.84c0,23.57-13.94,42.69-31.15,42.69s-31.15-19.12-31.15-42.69,14-104.6,31.15-104.6S433.07,196.26,433.07,219.84Z" style="fill:#92E3A9"></path><polygon points="419.39 232.17 409.96 235.66 411.85 229.98 407.34 236.63 402.84 238.29 402.51 219.65 418.9 197.88 410.12 206.66 411.61 200.56 407.4 209.38 402.42 214.36 401.92 185.23 400.14 227.71 384.61 211.26 393.14 222.85 385.1 221.96 395.03 225.42 399.95 232.11 399.09 252.6 393.36 248.71 398.91 256.84 396.28 317.18 404.24 317.18 402.89 241.27 419.39 232.17" style="fill:#263238"></polygon><path d="M419.06,185.32a6.78,6.78,0,0,1-5.67,7.61,6.78,6.78,0,0,1,5.67-7.61Z" style="fill:#fff"></path><path d="M428.45,198.51a8,8,0,0,1-1.28,5,7.9,7.9,0,0,1-4.39,2.65,6.78,6.78,0,0,1,5.67-7.61Z" style="fill:#fff"></path><path d="M428.44,224.19a6.75,6.75,0,0,1-7.89,5.26,6.77,6.77,0,0,1,7.89-5.26Z" style="fill:#fff"></path><path d="M376.88,224.19a6.76,6.76,0,0,0,7.9,5.26,6.79,6.79,0,0,0-7.9-5.26Z" style="fill:#fff"></path><path d="M417.6,213.53a6.77,6.77,0,0,1-5.67,7.61,6.78,6.78,0,0,1,5.67-7.61Z" style="fill:#fff"></path><path d="M415.17,171a6.78,6.78,0,0,1-5.67,7.61,6.78,6.78,0,0,1,5.67-7.61Z" style="fill:#fff"></path><path d="M409.57,181.92a6.75,6.75,0,0,1-5.66,7.6,6.75,6.75,0,0,1,5.66-7.6Z" style="fill:#fff"></path><path d="M422.85,174a6.76,6.76,0,0,1-5.66,7.61,6.75,6.75,0,0,1,5.66-7.61Z" style="fill:#fff"></path><path d="M379.7,174a6.78,6.78,0,0,0,5.66,7.61A6.75,6.75,0,0,0,379.7,174Z" style="fill:#fff"></path><path d="M416.38,157.59a6.75,6.75,0,0,1-5.66,7.61,6.76,6.76,0,0,1,5.66-7.61Z" style="fill:#fff"></path><path d="M413.63,143.39a6.74,6.74,0,0,1-3.57,8.78,6.76,6.76,0,0,1,3.57-8.78Z" style="fill:#fff"></path><path d="M393.94,139.67a6.77,6.77,0,0,1,3.23,8.92,6.77,6.77,0,0,1-3.23-8.92Z" style="fill:#fff"></path><path d="M403.12,156.66a6.76,6.76,0,0,1-.54,9.47,6.76,6.76,0,0,1,.54-9.47Z" style="fill:#fff"></path><path d="M402.64,131.37a6.77,6.77,0,0,1-.55,9.47,6.77,6.77,0,0,1,.55-9.47Z" style="fill:#fff"></path><path d="M382,185.32a6.78,6.78,0,0,0,5.66,7.61,6.76,6.76,0,0,0-5.66-7.61Z" style="fill:#fff"></path><path d="M376.67,200.89a6.75,6.75,0,0,0,5.66,7.6,6.75,6.75,0,0,0-5.66-7.6Z" style="fill:#fff"></path><path d="M390.87,206.54a6.78,6.78,0,0,0,5.67,7.61,8,8,0,0,0-1.28-5A7.92,7.92,0,0,0,390.87,206.54Z" style="fill:#fff"></path><path d="M394.76,185a6.77,6.77,0,0,0,3.24,8.91,6.77,6.77,0,0,0-3.24-8.91Z" style="fill:#fff"></path><path d="M384.7,242.36a6.77,6.77,0,0,0,7.12-6.27,6.76,6.76,0,0,0-7.12,6.27Z" style="fill:#fff"></path><path d="M412.29,239.22a6.79,6.79,0,0,0,8.06,5,6.75,6.75,0,0,0-8.06-5Z" style="fill:#fff"></path><path d="M387.91,171a6.76,6.76,0,0,0,5.66,7.61,6.78,6.78,0,0,0-5.66-7.61Z" style="fill:#fff"></path><path d="M387.86,158.32a6.75,6.75,0,0,0,5.66,7.61,6.76,6.76,0,0,0-5.66-7.61Z" style="fill:#fff"></path><path d="M352.06,192.7c0,30.15-17.83,54.59-39.83,54.59s-39.84-24.44-39.84-54.59S290.23,58.93,312.23,58.93,352.06,162.55,352.06,192.7Z" style="fill:#92E3A9"></path><polygon points="334.56 208.47 322.5 212.93 324.92 205.67 319.15 214.17 313.4 216.3 312.99 192.46 333.94 164.62 322.71 175.85 324.61 168.04 319.24 179.32 312.87 185.69 312.23 148.44 309.94 202.77 290.09 181.72 301 196.55 290.71 195.41 303.41 199.84 309.71 208.4 308.61 234.59 301.28 229.62 308.38 240.01 305.02 317.18 315.19 317.18 313.46 220.1 334.56 208.47" style="fill:#263238"></polygon><path d="M334.14,148.55a8.65,8.65,0,0,1-7.24,9.73,8.66,8.66,0,0,1,7.24-9.73Z" style="fill:#fff"></path><path d="M346.15,165.42a8.64,8.64,0,0,1-7.25,9.73,8.68,8.68,0,0,1,7.25-9.73Z" style="fill:#fff"></path><path d="M346.14,198.27A8.66,8.66,0,0,1,336.05,205a8.64,8.64,0,0,1,10.09-6.72Z" style="fill:#fff"></path><path d="M280.21,198.27A8.66,8.66,0,0,0,290.3,205a8.64,8.64,0,0,0-10.09-6.72Z" style="fill:#fff"></path><path d="M332.28,184.63a8.66,8.66,0,0,1-7.25,9.73,8.66,8.66,0,0,1,7.25-9.73Z" style="fill:#fff"></path><path d="M329.17,130.2a8.66,8.66,0,0,1-7.25,9.73,8.66,8.66,0,0,1,7.25-9.73Z" style="fill:#fff"></path><path d="M322,144.2a8.65,8.65,0,0,1-7.24,9.73A8.65,8.65,0,0,1,322,144.2Z" style="fill:#fff"></path><path d="M339,134a8.66,8.66,0,0,1-7.25,9.73A8.64,8.64,0,0,1,339,134Z" style="fill:#fff"></path><path d="M283.81,134a8.65,8.65,0,0,0,7.24,9.73,8.65,8.65,0,0,0-7.24-9.73Z" style="fill:#fff"></path><path d="M330.72,113.1a8.66,8.66,0,0,1-7.24,9.73,8.65,8.65,0,0,1,7.24-9.73Z" style="fill:#fff"></path><path d="M327.21,94.93a10.19,10.19,0,0,1,0,6.55,10.16,10.16,0,0,1-4.58,4.68,10.15,10.15,0,0,1,0-6.55A10.16,10.16,0,0,1,327.21,94.93Z" style="fill:#fff"></path><path d="M302,90.18a10.18,10.18,0,0,1,4.4,4.85,10.17,10.17,0,0,1-.27,6.55,10.17,10.17,0,0,1-4.4-4.86A10.15,10.15,0,0,1,302,90.18Z" style="fill:#fff"></path><path d="M313.76,111.91a10.16,10.16,0,0,1,2.13,6.19,10.17,10.17,0,0,1-2.82,5.92,10.14,10.14,0,0,1-2.13-6.2A10.17,10.17,0,0,1,313.76,111.91Z" style="fill:#fff"></path><path d="M313.14,79.56a10.17,10.17,0,0,1,2.13,6.2,10.15,10.15,0,0,1-2.83,5.91,10.17,10.17,0,0,1-2.13-6.2A10.22,10.22,0,0,1,313.14,79.56Z" style="fill:#fff"></path><path d="M286.78,148.55a8.65,8.65,0,0,0,7.24,9.73,8.66,8.66,0,0,0-7.24-9.73Z" style="fill:#fff"></path><path d="M279.93,168.46a8.66,8.66,0,0,0,7.25,9.73,8.64,8.64,0,0,0-7.25-9.73Z" style="fill:#fff"></path><path d="M298.1,175.69a8.66,8.66,0,0,0,7.24,9.73,8.65,8.65,0,0,0-7.24-9.73Z" style="fill:#fff"></path><path d="M303.06,148.1a8.66,8.66,0,0,0,4.16,11.4,8.66,8.66,0,0,0-4.16-11.4Z" style="fill:#fff"></path><path d="M290.2,221.5a8.66,8.66,0,0,0,9.1-8,8.66,8.66,0,0,0-9.1,8Z" style="fill:#fff"></path><path d="M325.49,217.48a8.66,8.66,0,0,0,10.31,6.39,8.66,8.66,0,0,0-10.31-6.39Z" style="fill:#fff"></path><path d="M294.3,130.2a8.66,8.66,0,0,0,7.25,9.73,8.66,8.66,0,0,0-7.25-9.73Z" style="fill:#fff"></path><path d="M294.24,114a8.65,8.65,0,0,0,7.24,9.73,8.65,8.65,0,0,0-7.24-9.73Z" style="fill:#fff"></path></g><g id="Floor"><line x1="8.31" y1="317.18" x2="483.33" y2="317.18" style="fill:none;stroke:#263238;stroke-linecap:round;stroke-linejoin:round"></line></g><g id="chicken-coop"><rect x="272.91" y="193.69" width="6.84" height="123.49" style="fill:#263238;stroke:#263238;stroke-linecap:round;stroke-linejoin:round"></rect><rect x="278.14" y="193.69" width="3.42" height="123.49" style="fill:#263238;stroke:#263238;stroke-linecap:round;stroke-linejoin:round"></rect><rect x="217.2" y="270.92" width="6.84" height="46.26" style="fill:#263238;stroke:#263238;stroke-linecap:round;stroke-linejoin:round"></rect><rect x="222.43" y="270.92" width="3.42" height="46.26" style="fill:#263238;stroke:#263238;stroke-linecap:round;stroke-linejoin:round"></rect><polygon points="225.85 277.86 114.97 277.86 114.97 168.53 169.88 144.18 225.85 168.53 225.85 277.86" style="fill:#bdbdbd;stroke:#263238;stroke-linecap:round;stroke-linejoin:round"></polygon><line x1="188.45" y1="184.26" x2="230.82" y2="184.26" style="fill:none;stroke:#263238;stroke-linecap:round;stroke-linejoin:round"></line><line x1="188.45" y1="195.56" x2="230.82" y2="195.56" style="fill:none;stroke:#263238;stroke-linecap:round;stroke-linejoin:round"></line><line x1="188.45" y1="206.86" x2="230.82" y2="206.86" style="fill:none;stroke:#263238;stroke-linecap:round;stroke-linejoin:round"></line><line x1="188.45" y1="218.16" x2="230.82" y2="218.16" style="fill:none;stroke:#263238;stroke-linecap:round;stroke-linejoin:round"></line><line x1="188.45" y1="229.46" x2="230.82" y2="229.46" style="fill:none;stroke:#263238;stroke-linecap:round;stroke-linejoin:round"></line><line x1="188.45" y1="240.76" x2="230.82" y2="240.76" style="fill:none;stroke:#263238;stroke-linecap:round;stroke-linejoin:round"></line><line x1="188.45" y1="252.06" x2="230.82" y2="252.06" style="fill:none;stroke:#263238;stroke-linecap:round;stroke-linejoin:round"></line><line x1="188.45" y1="263.36" x2="230.82" y2="263.36" style="fill:none;stroke:#263238;stroke-linecap:round;stroke-linejoin:round"></line><rect x="203" y="224.28" width="17.65" height="44.97" style="fill:#263238;stroke:#263238;stroke-linecap:round;stroke-linejoin:round"></rect><polygon points="219.71 269.26 301.25 316.33 311.29 316.33 219.67 263.63 219.71 269.26" style="fill:#92E3A9;stroke:#263238;stroke-linecap:round;stroke-linejoin:round"></polygon><polygon points="203 269.26 284.54 316.33 294.57 316.33 202.96 263.63 203 269.26" style="fill:#92E3A9;stroke:#263238;stroke-linecap:round;stroke-linejoin:round"></polygon><polygon points="202.96 263.63 219.67 263.63 305.61 313.1 288.92 313.11 202.96 263.63" style="fill:#263238;stroke:#263238;stroke-linecap:round;stroke-linejoin:round"></polygon><polygon points="243.86 277.55 227.15 277.55 231.38 279.99 248.09 279.99 243.86 277.55" style="fill:#92E3A9;stroke:#263238;stroke-linecap:round;stroke-linejoin:round"></polygon><polygon points="257.39 285.34 240.68 285.34 244.9 287.77 261.62 287.77 257.39 285.34" style="fill:#92E3A9;stroke:#263238;stroke-linecap:round;stroke-linejoin:round"></polygon><polygon points="230.33 269.76 213.62 269.76 217.84 272.2 234.56 272.2 230.33 269.76" style="fill:#92E3A9;stroke:#263238;stroke-linecap:round;stroke-linejoin:round"></polygon><polygon points="284.45 300.92 267.74 300.92 271.96 303.35 288.68 303.35 284.45 300.92" style="fill:#92E3A9;stroke:#263238;stroke-linecap:round;stroke-linejoin:round"></polygon><polygon points="270.92 293.13 254.21 293.13 258.43 295.56 275.15 295.56 270.92 293.13" style="fill:#92E3A9;stroke:#263238;stroke-linecap:round;stroke-linejoin:round"></polygon><polygon points="297.98 308.71 281.26 308.71 285.49 311.14 302.21 311.14 297.98 308.71" style="fill:#92E3A9;stroke:#263238;stroke-linecap:round;stroke-linejoin:round"></polygon><polygon points="183.25 167.28 183.25 241.52 226.96 241.52 226.96 312.97 319.83 312.97 319.83 213.69 189.82 163.05 183.25 167.28" style="opacity:0.33"></polygon><rect x="316.72" y="213.69" width="6.84" height="103.49" style="fill:#92E3A9;stroke:#263238;stroke-linecap:round;stroke-linejoin:round"></rect><rect x="321.95" y="213.69" width="3.42" height="103.49" style="fill:#bdbdbd;stroke:#263238;stroke-linecap:round;stroke-linejoin:round"></rect><rect x="282.64" y="313.09" width="39.31" height="4.09" style="fill:#92E3A9;stroke:#263238;stroke-linecap:round;stroke-linejoin:round"></rect><rect x="77.31" y="270.92" width="6.84" height="46.26" style="fill:#92E3A9;stroke:#263238;stroke-linecap:round;stroke-linejoin:round"></rect><rect x="82.54" y="270.92" width="3.42" height="46.26" style="fill:#bdbdbd;stroke:#263238;stroke-linecap:round;stroke-linejoin:round"></rect><rect x="276.9" y="193.69" width="6.84" height="123.49" style="fill:#92E3A9;stroke:#263238;stroke-linecap:round;stroke-linejoin:round"></rect><rect x="282.13" y="193.69" width="3.42" height="123.49" style="fill:#bdbdbd;stroke:#263238;stroke-linecap:round;stroke-linejoin:round"></rect><rect x="109.81" y="270.92" width="6.84" height="46.26" style="fill:#263238;stroke:#263238;stroke-linecap:round;stroke-linejoin:round"></rect><rect x="115.04" y="270.92" width="3.42" height="46.26" style="fill:#263238;stroke:#263238;stroke-linecap:round;stroke-linejoin:round"></rect><rect x="82.12" y="313.09" width="194.83" height="4.09" style="fill:#92E3A9;stroke:#263238;stroke-linecap:round;stroke-linejoin:round"></rect><polygon points="332.39 216.63 170.44 146.75 109.77 173.39 107.87 169.08 170.42 141.62 171.36 142.02 334.26 212.3 332.39 216.63" style="fill:#92E3A9;stroke:#263238;stroke-linecap:round;stroke-linejoin:round"></polygon><rect x="158.45" y="239.12" width="68.51" height="4.09" style="fill:#92E3A9;stroke:#263238;stroke-linecap:round;stroke-linejoin:round"></rect><rect x="224.88" y="183.23" width="6.84" height="133.95" style="fill:#92E3A9;stroke:#263238;stroke-linecap:round;stroke-linejoin:round"></rect><rect x="230.11" y="183.23" width="3.42" height="133.95" style="fill:#bdbdbd;stroke:#263238;stroke-linecap:round;stroke-linejoin:round"></rect><polygon points="185.22 277.86 74.35 277.86 74.35 168.53 129.25 144.18 185.22 168.53 185.22 277.86" style="fill:#92E3A9;stroke:#263238;stroke-linecap:round;stroke-linejoin:round"></polygon><rect x="177.47" y="165.86" width="6.84" height="151.32" style="fill:#92E3A9;stroke:#263238;stroke-linecap:round;stroke-linejoin:round"></rect><rect x="182.69" y="165.86" width="3.42" height="151.32" style="fill:#bdbdbd;stroke:#263238;stroke-linecap:round;stroke-linejoin:round"></rect><rect x="82.11" y="189.65" width="29.8" height="31.43" style="fill:#92E3A9;stroke:#263238;stroke-linecap:round;stroke-linejoin:round"></rect><rect x="84.37" y="191.45" width="10.5" height="11.7" style="fill:#263238;stroke:#263238;stroke-linecap:round;stroke-linejoin:round"></rect><rect x="99.65" y="191.45" width="10.98" height="11.7" style="fill:#263238;stroke:#263238;stroke-linecap:round;stroke-linejoin:round"></rect><rect x="84.37" y="207.92" width="10.5" height="9.79" style="fill:#263238;stroke:#263238;stroke-linecap:round;stroke-linejoin:round"></rect><rect x="99.65" y="207.92" width="10.98" height="9.79" style="fill:#263238;stroke:#263238;stroke-linecap:round;stroke-linejoin:round"></rect><polygon points="25.65 234.9 74.35 221.53 74.35 277.86 25.65 277.86 25.65 234.9" style="fill:#92E3A9;stroke:#263238;stroke-linecap:round;stroke-linejoin:round"></polygon><polygon points="74.14 217.38 21.56 232.8 21.56 236.21 74.14 221.59 74.14 217.38" style="fill:#263238;stroke:#263238;stroke-linecap:round;stroke-linejoin:round"></polygon><polygon points="291.22 216.63 130.41 146.75 68.59 173.39 66.7 169.08 130.39 141.62 130.18 142.02 293.08 212.3 291.22 216.63" style="fill:#92E3A9;stroke:#263238;stroke-linecap:round;stroke-linejoin:round"></polygon><rect x="124.67" y="140.12" width="41.26" height="4.06" style="fill:#92E3A9;stroke:#263238;stroke-linecap:round;stroke-linejoin:round"></rect><rect x="129.25" y="140.12" width="46.61" height="4.06" style="fill:#92E3A9;stroke:#263238;stroke-linecap:round;stroke-linejoin:round"></rect><polygon points="293.08 212.3 334.26 212.3 332.39 216.63 291.22 216.63 293.08 212.3" style="fill:#92E3A9;stroke:#263238;stroke-linecap:round;stroke-linejoin:round"></polygon><polygon points="176.06 144.16 135.26 144.16 293.08 212.3 334.26 212.3 176.06 144.16" style="fill:#263238;stroke:#263238;stroke-linecap:round;stroke-linejoin:round"></polygon><path d="M230.32,243.62V313H269V243.62Zm34.23,64.52H237.67V248.45h26.88Z" style="fill:#92E3A9;stroke:#263238;stroke-linecap:round;stroke-linejoin:round"></path><rect x="234.73" y="248.45" width="2.94" height="59.69" style="fill:#92E3A9;stroke:#263238;stroke-linecap:round;stroke-linejoin:round"></rect><path d="M230.32,243.62V313H269V243.62Zm34.23,64.52H237.67V248.45h26.88Z" style="fill:#92E3A9;stroke:#263238;stroke-linecap:round;stroke-linejoin:round"></path><rect x="234.73" y="248.45" width="2.94" height="59.69" style="fill:#bdbdbd;stroke:#263238;stroke-linecap:round;stroke-linejoin:round"></rect><rect x="268.91" y="243.71" width="2.94" height="69.33" style="fill:#bdbdbd;stroke:#263238;stroke-linecap:round;stroke-linejoin:round"></rect><polyline points="79.26 174.14 79.26 273.32 172.32 273.32" style="fill:none;stroke:#263238;stroke-linecap:round;stroke-linejoin:round"></polyline><line x1="85.38" y1="172.5" x2="173.55" y2="172.5" style="fill:none;stroke:#263238;stroke-linecap:round;stroke-linejoin:round"></line><line x1="105.79" y1="160.67" x2="153.14" y2="160.67" style="fill:none;stroke:#263238;stroke-linecap:round;stroke-linejoin:round"></line><line x1="85.38" y1="184.34" x2="173.55" y2="184.34" style="fill:none;stroke:#263238;stroke-linecap:round;stroke-linejoin:round"></line><line x1="114.77" y1="196.18" x2="173.55" y2="196.18" style="fill:none;stroke:#263238;stroke-linecap:round;stroke-linejoin:round"></line><line x1="114.77" y1="208.01" x2="173.55" y2="208.01" style="fill:none;stroke:#263238;stroke-linecap:round;stroke-linejoin:round"></line><line x1="114.77" y1="219.85" x2="173.55" y2="219.85" style="fill:none;stroke:#263238;stroke-linecap:round;stroke-linejoin:round"></line><line x1="85.38" y1="231.69" x2="173.55" y2="231.69" style="fill:none;stroke:#263238;stroke-linecap:round;stroke-linejoin:round"></line><line x1="85.38" y1="243.53" x2="173.55" y2="243.53" style="fill:none;stroke:#263238;stroke-linecap:round;stroke-linejoin:round"></line><line x1="85.38" y1="255.36" x2="173.55" y2="255.36" style="fill:none;stroke:#263238;stroke-linecap:round;stroke-linejoin:round"></line><line x1="85.38" y1="267.2" x2="118.45" y2="267.2" style="fill:none;stroke:#263238;stroke-linecap:round;stroke-linejoin:round"></line><line x1="50.68" y1="231.69" x2="72.32" y2="231.69" style="fill:none;stroke:#263238;stroke-linecap:round;stroke-linejoin:round"></line><line x1="55.99" y1="243.53" x2="72.32" y2="243.53" style="fill:none;stroke:#263238;stroke-linecap:round;stroke-linejoin:round"></line><line x1="29.46" y1="243.53" x2="51.09" y2="243.53" style="fill:none;stroke:#263238;stroke-linecap:round;stroke-linejoin:round"></line><line x1="29.46" y1="255.36" x2="72.32" y2="255.36" style="fill:none;stroke:#263238;stroke-linecap:round;stroke-linejoin:round"></line><line x1="29.46" y1="267.2" x2="45.54" y2="267.2" style="fill:none;stroke:#263238;stroke-linecap:round;stroke-linejoin:round"></line><line x1="51.91" y1="267.2" x2="73.13" y2="267.2" style="fill:none;stroke:#263238;stroke-linecap:round;stroke-linejoin:round"></line><rect x="123.08" y="190.97" width="49.24" height="74.96" style="fill:#92E3A9;stroke:#263238;stroke-linecap:round;stroke-linejoin:round"></rect><rect x="127.89" y="194.79" width="39.63" height="67.32" style="fill:#92E3A9;stroke:#263238;stroke-linecap:round;stroke-linejoin:round"></rect><line x1="145.06" y1="202.88" x2="163.68" y2="202.88" style="fill:#92E3A9;stroke:#263238;stroke-linecap:round;stroke-linejoin:round"></line><line x1="132.17" y1="202.88" x2="142.49" y2="202.88" style="fill:#92E3A9;stroke:#263238;stroke-linecap:round;stroke-linejoin:round"></line><line x1="132.17" y1="212.91" x2="163.68" y2="212.91" style="fill:#92E3A9;stroke:#263238;stroke-linecap:round;stroke-linejoin:round"></line><line x1="132.17" y1="222.93" x2="163.68" y2="222.93" style="fill:#92E3A9;stroke:#263238;stroke-linecap:round;stroke-linejoin:round"></line><line x1="154.47" y1="232.96" x2="163.68" y2="232.96" style="fill:#92E3A9;stroke:#263238;stroke-linecap:round;stroke-linejoin:round"></line><line x1="132.17" y1="232.96" x2="152.12" y2="232.96" style="fill:#92E3A9;stroke:#263238;stroke-linecap:round;stroke-linejoin:round"></line><line x1="137.99" y1="242.98" x2="163.68" y2="242.98" style="fill:#92E3A9;stroke:#263238;stroke-linecap:round;stroke-linejoin:round"></line><line x1="132.17" y1="242.98" x2="135.64" y2="242.98" style="fill:#92E3A9;stroke:#263238;stroke-linecap:round;stroke-linejoin:round"></line><line x1="161.11" y1="253.01" x2="163.68" y2="253.01" style="fill:#92E3A9;stroke:#263238;stroke-linecap:round;stroke-linejoin:round"></line><line x1="132.17" y1="253.01" x2="158.33" y2="253.01" style="fill:#92E3A9;stroke:#263238;stroke-linecap:round;stroke-linejoin:round"></line></g><g id="hens-2"><path d="M294.3,337.6s-3.21,6.12-3.59,6.25-5.24,1-5,1.57,1.58.13,2.15.07,1.64-.32,1.64-.32-3.28,1.58-3.85,2-2.27,1-1.7,1.26.19,1.39,2.9-.38a27.85,27.85,0,0,1,3.34-2,22.86,22.86,0,0,1-1.7,2.08c-.69.7-1.77,2-1.33,2.21s2.09-.94,2.72-1.76a17.23,17.23,0,0,1,2-2.59c.69-.57,1.38-.44,2.33-.51s1.13-.31.31-.69A17,17,0,0,0,292,344l4.42-4.92S294.74,337.1,294.3,337.6Z" style="fill:#263238"></path><path d="M300.6,342s-.06,5.14-.12,5.56a24.47,24.47,0,0,0,1.15,5c.42,1-1.15.85-1.52-.12s.13-3.51-.42-3.81-1.69,1.51-3.63,2.78-2.48.67-2.42-.12.18-.9,1.82-1.63a13.76,13.76,0,0,0,3.14-2.12,25.39,25.39,0,0,1-5,.91c-1.15-.12-.73-1,.42-1.39s4.54-.24,5.09-.67.18-4.66.18-4.66Z" style="fill:#263238"></path><path d="M277.44,299.16a6.92,6.92,0,0,1,6.2,1c3.21,2.21,5.43,5.92,6.57,7.78s1.71,3,1.71,3,6.71,1.43,7.42,1.57,1.79-.85,6.85-2.21a30,30,0,0,1,9.78-.86,15.58,15.58,0,0,0,3.07-1.92c.85-.86,1.42-2.07,1.71-.07a28.89,28.89,0,0,1,.07,5s1.21-3.21,1.14-.21a11.34,11.34,0,0,1-1.78,5.42A77.67,77.67,0,0,1,317.4,326c-1.93,4.78-1.36,6.92-5.71,9.13a101.87,101.87,0,0,0-9.07,5.36c-.21.14-.07,2.06-1.64,2.28a3.69,3.69,0,0,1-2.35-.29,7.11,7.11,0,0,1-2.5-2.42,9.06,9.06,0,0,0-2.64-2.71s-7.42-.29-11.49-4.86-5.78-8.42-5-14.91,1.5-9.63,1.57-10.35a1.79,1.79,0,0,0-.5-1.28,20.43,20.43,0,0,0-3.93-2.07c-1.07-.22-1.64-.36-2.14,0s-1.64.57-.78-.86a4.19,4.19,0,0,1,1.71-1.78S276.08,299,277.44,299.16Z" style="fill:#dbdbdb;stroke:#263238;stroke-linecap:round;stroke-linejoin:round"></path><path d="M272,303.87c-.5.36-1.64.57-.78-.86a4.19,4.19,0,0,1,1.71-1.78s3.14-2.21,4.5-2.07a6.92,6.92,0,0,1,6.2,1c3.21,2.21,5.43,5.92,6.57,7.78s1.71,3,1.71,3,2.5,2.93,3.71,4.5.72,2.5-.43,2.07a5.59,5.59,0,0,1-2-1.43s2.06,3.57,1.28,3.71-2.71-1.14-2.71-1.14.71,3.64.36,3.64-1.93-2.5-1.93-2.5-3.21,5.57-4.14,3.85a13.9,13.9,0,0,1-1.21-2.78s-.79,3.43-1.22,2.21-.78-2.14-.78-2.14-.07,2.22-.64,1.5a20.86,20.86,0,0,1-1.5-2.57s-.72,3.57-1.43,2.5a9.35,9.35,0,0,1-1-3.07s-1,2.78-1.07,1.57a18.78,18.78,0,0,0-.21-2.35l-.08-.11c0-.27,0-.54.08-.82.78-6.49,1.5-9.63,1.57-10.35a1.79,1.79,0,0,0-.5-1.28,20.43,20.43,0,0,0-3.93-2.07C273.08,303.65,272.51,303.51,272,303.87Z" style="fill:#bdbdbd;stroke:#263238;stroke-linecap:round;stroke-linejoin:round"></path><path d="M278.08,305.94s-.07,1.64-.86,2.07a1.46,1.46,0,0,1-2-1.5c.07-1.29.07-2.07.07-2.07S277.86,305.08,278.08,305.94Z" style="fill:#92E3A9;stroke:#263238;stroke-linecap:round;stroke-linejoin:round"></path><path d="M276.65,301.44a.57.57,0,0,0,.57.57.56.56,0,0,0,.57-.57.57.57,0,0,0-.57-.57A.58.58,0,0,0,276.65,301.44Z" style="fill:#263238"></path><path d="M271.23,303a4.19,4.19,0,0,1,1.71-1.78l.48-.32c.4.1.73.3.73.67,0,0,.07,1,.5,1.15s2.07.35,2,.92a1.16,1.16,0,0,1-.88.91,7.2,7.2,0,0,0-1.62-.69c-1.07-.22-1.64-.36-2.14,0S270.37,304.44,271.23,303Z" style="fill:#c4c4c4;stroke:#263238;stroke-linecap:round;stroke-linejoin:round;stroke-width:0.5px"></path><path d="M276.65,298.66s.36.5,2.07-.29,2.78-2,1.36-2.35a3.92,3.92,0,0,0-2.72.43c-.57.14-.14-1.43-.92-1.29a2.35,2.35,0,0,0-1.57,1.72c-.07.57-.72-.15-1.22.57a2.41,2.41,0,0,0-.64,2.07c0,1.35-.14,2.14.43,1.92a7.73,7.73,0,0,0,2.85-2.07Z" style="fill:#92E3A9;stroke:#263238;stroke-linecap:round;stroke-linejoin:round"></path><path d="M275.94,301.87a2.25,2.25,0,0,0,1.57.79" style="fill:none;stroke:#263238;stroke-linecap:round;stroke-linejoin:round;stroke-width:0.5px"></path><path d="M297.13,319.28a34.61,34.61,0,0,1,8.35-3.64c3.64-.78,6.78-.28,8.42-.64s4.92-2.5,4.57-1.14-2.93,3.57-2.93,3.57,2.43-.79,1.93.57a15.9,15.9,0,0,1-3.43,4.14c-.21.07,2.36-1.57,1.86.14s.71,3-5.35,6.06-8.21,5-14.56,4.29-6.42-7.35-3.93-9.42" style="fill:#bdbdbd;stroke:#263238;stroke-linecap:round;stroke-linejoin:round"></path><path d="M308.69,317.71s4.42-2.07,3.85-.35a15.31,15.31,0,0,1-1.64,3.28s2.14-1.29,2.21-.5a8,8,0,0,1-.28,2.14s1.43-.5,1.5.5-1.22,1.92-1.22,1.92" style="fill:none;stroke:#263238;stroke-linecap:round;stroke-linejoin:round"></path><path d="M129.75,335.49s-1.23,5.63-1.37,6.72a7.66,7.66,0,0,0,.62,2.88,10.24,10.24,0,0,1-.55,3.91c-.48,1.38.41,1.65.61.83s.69-4,.69-4a6.34,6.34,0,0,1,.41,2.88c0,2.19-.48,2.67.14,2.67s.89-1.3.82-2.4a28.61,28.61,0,0,0-.68-3.49,27.59,27.59,0,0,1,1.78,4c.14.89,1,.69.41-1.23a26.07,26.07,0,0,0-2.13-4.73c-.54-1.1.62-.83.76-2.06s-.55-.69-1-.41l-.48.27,2.47-6.86Z" style="fill:#263238"></path><path d="M111.29,288.1s4,0,5.74,2.95,2.56,8.22,3.57,12.1,3.41,4.34,3.41,4.34,5-.16,6.67-1.24,2.33-3.42,3.49-4.89,4.19-3.26,3.65-1.94a5.77,5.77,0,0,0-.55,1.79s1.94-4.19,2.33-2.18a12.75,12.75,0,0,1,.23,4.74c-.23.85,1.24-3.34,1.48-.62a10.69,10.69,0,0,1-.86,5.81c-.54.86-.54,2-.85,6.36a14.39,14.39,0,0,1-2.33,7.06,38.79,38.79,0,0,1-1.55,8.38,7.27,7.27,0,0,1-5,4.81l-1.47.31a17.32,17.32,0,0,1-5.12.85c-2.72,0-2.64-.46-2.64-.46s1.16,1.93-1,1.86-2.79-.62-3-1.32-3.26-2.79-6.21-5.82-6.36-3-8.61-9-.62-14,2.48-18.53,4.89-4,4.81-7.84-2.09-3.57-1.55-6.13S111.29,288.1,111.29,288.1Z" style="fill:#878787;stroke:#263238;stroke-linecap:round;stroke-linejoin:round"></path><path d="M121,308.33a3.45,3.45,0,0,0,0-1.85l.76-.76a8,8,0,0,1-1.13-2.57c-1-3.88-1.87-9.16-3.57-12.1s-5.74-2.95-5.74-2.95-2.41-1.17-3,1.39,1.47,2.33,1.55,6.13-1.7,3.26-4.81,7.84a16,16,0,0,0-1.1,1.88l.13.34s-1,3,0,3,3.29-2.33,3.29-2.33-.24,2.17.48,2.33,1.93-2.25,1.93-2.25-.24,2.33,1,2.33,1.45-1.44,1.45-1.44,2,2.65,2.73,2.32,1.36-1.76,1.36-1.76,1.13,1.36,1.53,1.12.4-1.92.4-1.92S120.65,308.89,121,308.33Z" style="fill:#bdbdbd;stroke:#263238;stroke-linecap:round;stroke-linejoin:round"></path><path d="M108.57,290.73s.62-1.7,1.4-2,2.17-.86,1.47-2.1-1-1.39-1.39-.62-1.17-.31-1.55.16a2.07,2.07,0,0,0-.24,1.78c.16.55-.69.24-.62,1.32s-.38,1.94.08,1.94A1.3,1.3,0,0,0,108.57,290.73Z" style="fill:#92E3A9;stroke:#263238;stroke-linecap:round;stroke-linejoin:round"></path><path d="M107.72,291.2s-1.32.08-1.55.85l-.23.78a4.21,4.21,0,0,1,1.78-.31,28.28,28.28,0,0,1,3,1.16c1,.47,2.56.23,2.79-.77s-.15-1.32-1.4-1.32a12.35,12.35,0,0,1-2.09-.08C109.5,291.43,108.5,290.81,107.72,291.2Z" style="fill:#c4c4c4;stroke:#263238;stroke-linecap:round;stroke-linejoin:round;stroke-width:0.5px"></path><path d="M108.26,292.67s-1.24,1.71-.54,2.72,1.63.93,2.17.23a5.36,5.36,0,0,0,.78-1.94Z" style="fill:#92E3A9;stroke:#263238;stroke-linecap:round;stroke-linejoin:round"></path><circle cx="111.4" cy="290.39" r="0.57" style="fill:#263238"></circle><path d="M105.94,292.83a2.69,2.69,0,0,1,2.49-.67c1.71.28,3,.71,3.66.74" style="fill:none;stroke:#263238;stroke-linecap:round;stroke-linejoin:round;stroke-width:0.5px"></path><path d="M112.5,289.88a.73.73,0,0,1,.11.91" style="fill:none;stroke:#263238;stroke-linecap:round;stroke-linejoin:round;stroke-width:0.5px"></path><path d="M117.54,314s-3.22,2.75-2.47,6.66,7.68,7.68,10.7,8.91,5.56,3.43,8.51,2.68,5.07-4.19,4.52-4.19h-1.3a2.89,2.89,0,0,0,2-2.67c0-2.06-2.33-2.33-2.33-2.33s1.37-2.61,1-2.88-3.71-2.27-3.71-2.27a1.2,1.2,0,0,0,1.1-1.37c-.07-1.3-2.74-4.18-7.95-5s-6.73.69-7.07,1" style="fill:#bdbdbd;stroke:#263238;stroke-linecap:round;stroke-linejoin:round"></path><path d="M126.05,316s5.35.62,5.35,1.85-1.44,1.58-1.44,1.58,6.17,1.79,6.24,3a1.52,1.52,0,0,1-.83,1.58s2.68,3.08,2.13,4S132,328,131.81,328s1.78,1.5,1,2-3.23-.41-3.23-.41" style="fill:none;stroke:#263238;stroke-linecap:round;stroke-linejoin:round"></path><path d="M105.74,314s-1.23,3-.89,4.46,1.24.07,1.24.07-.48,4.12.82,5.21" style="fill:none;stroke:#263238;stroke-linecap:round;stroke-linejoin:round"></path><path d="M119.67,337.82s-.14,8.3-.62,9.33-2.81,2.27-4.46,2.88-3,0-2.6.62,1.37.89,2.74.41a35.67,35.67,0,0,0,3.29-1.44s-3.29,2.26-3.15,3,1.23.2,1.92-.34a33,33,0,0,0,2.6-3s-1,3.43-.34,3.36,1.37-2.47,1.37-3.22-.13-1.79.21-1.79,1.58.48,1.85.07.07-1-.48-1.3a4.31,4.31,0,0,1-1.1-.89c-.2-.28.48-8.23.48-8.23Z" style="fill:#263238"></path><path d="M364.72,335.49s-1.24,5.63-1.38,6.72a7.86,7.86,0,0,0,.62,2.88,10,10,0,0,1-.55,3.91c-.48,1.38.41,1.65.62.83s.69-4,.69-4a6.34,6.34,0,0,1,.41,2.88c0,2.19-.48,2.67.13,2.67s.9-1.3.83-2.4a28,28,0,0,0-.69-3.49,27.42,27.42,0,0,1,1.79,4c.13.89,1,.69.41-1.23a26.07,26.07,0,0,0-2.13-4.73c-.55-1.1.62-.83.75-2.06s-.54-.69-1-.41l-.48.27,2.47-6.86Z" style="fill:#263238"></path><path d="M346.25,288.1s4,0,5.74,2.95,2.56,8.22,3.57,12.1,3.41,4.34,3.41,4.34,5-.16,6.68-1.24,2.32-3.42,3.49-4.89,4.18-3.26,3.64-1.94a5.85,5.85,0,0,0-.54,1.79s1.94-4.19,2.33-2.18a13.21,13.21,0,0,1,.23,4.74c-.23.85,1.24-3.34,1.47-.62a10.82,10.82,0,0,1-.85,5.81c-.54.86-.54,2-.85,6.36a14.39,14.39,0,0,1-2.33,7.06,39.47,39.47,0,0,1-1.55,8.38,7.29,7.29,0,0,1-5,4.81l-1.48.31a17.24,17.24,0,0,1-5.12.85c-2.71,0-2.63-.46-2.63-.46s1.16,1.93-1,1.86-2.8-.62-3-1.32-3.26-2.79-6.2-5.82-6.36-3-8.61-9-.62-14,2.48-18.53,4.89-4,4.81-7.84-2.1-3.57-1.55-6.13S346.25,288.1,346.25,288.1Z" style="fill:#878787;stroke:#263238;stroke-linecap:round;stroke-linejoin:round"></path><path d="M355.93,308.33a3.45,3.45,0,0,0,0-1.85l.77-.76a7.73,7.73,0,0,1-1.14-2.57c-1-3.88-1.86-9.16-3.57-12.1s-5.74-2.95-5.74-2.95-2.4-1.17-2.94,1.39,1.47,2.33,1.55,6.13-1.71,3.26-4.81,7.84a16,16,0,0,0-1.1,1.88l.12.34s-1,3,0,3,3.3-2.33,3.3-2.33-.25,2.17.48,2.33,1.92-2.25,1.92-2.25-.24,2.33,1,2.33,1.44-1.44,1.44-1.44,2,2.65,2.73,2.32,1.37-1.76,1.37-1.76,1.12,1.36,1.52,1.12.4-1.92.4-1.92S355.61,308.89,355.93,308.33Z" style="fill:#bdbdbd;stroke:#263238;stroke-linecap:round;stroke-linejoin:round"></path><path d="M343.54,290.73s.62-1.7,1.4-2,2.17-.86,1.47-2.1-1-1.39-1.4-.62-1.16-.31-1.55.16a2,2,0,0,0-.23,1.78c.15.55-.7.24-.62,1.32s-.39,1.94.08,1.94A1.33,1.33,0,0,0,343.54,290.73Z" style="fill:#92E3A9;stroke:#263238;stroke-linecap:round;stroke-linejoin:round"></path><path d="M342.69,291.2s-1.32.08-1.56.85l-.23.78a4.23,4.23,0,0,1,1.79-.31,27.42,27.42,0,0,1,2.94,1.16c1,.47,2.56.23,2.8-.77s-.16-1.32-1.4-1.32a12.28,12.28,0,0,1-2.09-.08C344.47,291.43,343.46,290.81,342.69,291.2Z" style="fill:#c4c4c4;stroke:#263238;stroke-linecap:round;stroke-linejoin:round;stroke-width:0.5px"></path><path d="M343.23,292.67s-1.24,1.71-.54,2.72,1.62.93,2.17.23a5.46,5.46,0,0,0,.77-1.94Z" style="fill:#92E3A9;stroke:#263238;stroke-linecap:round;stroke-linejoin:round"></path><circle cx="346.37" cy="290.39" r="0.57" style="fill:#263238"></circle><path d="M340.9,292.83a2.72,2.72,0,0,1,2.5-.67c1.7.28,3.05.71,3.65.74" style="fill:none;stroke:#263238;stroke-linecap:round;stroke-linejoin:round;stroke-width:0.5px"></path><path d="M347.46,289.88a.72.72,0,0,1,.11.91" style="fill:none;stroke:#263238;stroke-linecap:round;stroke-linejoin:round;stroke-width:0.5px"></path><path d="M352.51,314s-3.23,2.75-2.47,6.66,7.68,7.68,10.7,8.91,5.55,3.43,8.5,2.68,5.08-4.19,4.53-4.19h-1.3a2.89,2.89,0,0,0,2-2.67c0-2.06-2.34-2.33-2.34-2.33s1.38-2.61,1-2.88-3.7-2.27-3.7-2.27a1.2,1.2,0,0,0,1.1-1.37c-.07-1.3-2.75-4.18-8-5s-6.72.69-7.06,1" style="fill:#bdbdbd;stroke:#263238;stroke-linecap:round;stroke-linejoin:round"></path><path d="M361,316s5.35.62,5.35,1.85-1.44,1.58-1.44,1.58,6.17,1.79,6.24,3a1.52,1.52,0,0,1-.82,1.58s2.68,3.08,2.13,4-5.49-.06-5.7-.06,1.79,1.5,1,2-3.22-.41-3.22-.41" style="fill:none;stroke:#263238;stroke-linecap:round;stroke-linejoin:round"></path><path d="M340.71,314s-1.23,3-.89,4.46,1.23.07,1.23.07-.48,4.12.83,5.21" style="fill:none;stroke:#263238;stroke-linecap:round;stroke-linejoin:round"></path><path d="M354.63,337.82s-.13,8.3-.61,9.33-2.82,2.27-4.46,2.88-2.95,0-2.61.62,1.37.89,2.75.41a35.67,35.67,0,0,0,3.29-1.44s-3.29,2.26-3.16,3,1.24.2,1.92-.34a31.86,31.86,0,0,0,2.61-3s-1,3.43-.34,3.36,1.37-2.47,1.37-3.22-.14-1.79.2-1.79,1.58.48,1.86.07.06-1-.48-1.3a4.13,4.13,0,0,1-1.1-.89c-.21-.28.48-8.23.48-8.23Z" style="fill:#263238"></path><path d="M33.72,331.1s2.91,6.32,3.19,6.74,5.4.43,4.69.78a5.62,5.62,0,0,1-2.27.21S44.08,340,43,340a54,54,0,0,1-6.18-1s2.63,1.42,1.92,1.28a41.3,41.3,0,0,1-4.21-1.89c-.38-.19-1.07-.35-.72-.6a4,4,0,0,1,1.64-.13l-2.75-6.08Z" style="fill:#263238"></path><path d="M31.17,331.53s2.27,7.94,2.34,8.44-1.28.36-1.78.92,1.64,0,1.92.22,0,.35.92,1.56,1.63,1.2,1.21.28-.71-1.63-.71-1.63,1.42.35,3,.78,4.4.35,2.77,0-4.4-1.28-4.4-1.28,4.11.43,3.69-.07-4.12-.78-4.76-1l-.64-.22-2.27-8.3Z" style="fill:#263238"></path><path d="M38.8,304.73s-2.53,1-4.51,1.54a67.53,67.53,0,0,1-10.63,1.08c-1.35-.09-3.42-6.39-6.84-9.54s-5-2.61-4.23-.72S14,300.24,14,300.24s-3.87-2-4.14-.36,1.89,4.23,1.89,4.23-2.7-.45-1.44,4.41a18.66,18.66,0,0,0,3,6.75,7.72,7.72,0,0,0,2.34,3,6.88,6.88,0,0,1,1.62,1.44s-.63,3.69,3.33,6.39A17.83,17.83,0,0,0,29,329s.9,2.43,2,3.06a2.59,2.59,0,0,0,2.79,0c.72-.45,2.07-2.79,2.7-3.33s2.79-1.89,5.67-4.32,6.1-3.47,7.2-6.21a27,27,0,0,0,1.44-6.21L40.5,303.57Z" style="fill:#fff;stroke:#263238;stroke-miterlimit:10"></path><path d="M30.42,311.67s-4,1.44-5.86,3.42-6.93,5-5.67,6.3,5.4-1.35,5.4-1.35-1.62,2.16.63,1.62a13.55,13.55,0,0,0,3.7-1.44s-2.26.45,1.53,1.8,9.09-1.44,9.09-1.44,4.14,2.79,5.94-2.34-.9-7.83-3.87-8.1" style="fill:#fff;stroke:#263238;stroke-miterlimit:10"></path><path d="M14.75,300.78a24.94,24.94,0,0,1,2.43,5.67" style="fill:none;stroke:#263238;stroke-linecap:round;stroke-linejoin:round"></path><path d="M12.32,304.83s.9,1.17,1.08,1.44" style="fill:none;stroke:#263238;stroke-linecap:round;stroke-linejoin:round"></path><path d="M53.79,293.42a4.43,4.43,0,0,0-1.61-1.5l-1.51-.62s-.57-1.77-.15-1.56a6,6,0,0,1,1.09.94s-.16-1.61.67-.89,1.09.47,1.14,1.09.52-.62,1,.57.15,1.51.15,1.51.94.26.47.52A1.9,1.9,0,0,1,53.79,293.42Z" style="fill:#92E3A9;stroke:#263238;stroke-linecap:round;stroke-linejoin:round"></path><path d="M52.8,295.6s-1.87.37-2,.94.52,1.14,1,.88S52.8,295.6,52.8,295.6Z" style="fill:#92E3A9;stroke:#263238;stroke-linecap:round;stroke-linejoin:round"></path><path d="M53.79,293.42a9.64,9.64,0,0,1,1.71,1.2,2.8,2.8,0,0,1,.62,1.61,5.18,5.18,0,0,0-2.08-.94,2.41,2.41,0,0,0-1.24.31s-1.82.57-2,1.51a22.16,22.16,0,0,0,.72,5.34c.32,1.14.52,8.61,0,10.32s-.88,2.65-1.09,2.65-.1-2-.2-1.82,0,.1-.57.36-.68-1.66-1-1.66a4.62,4.62,0,0,1-1,0c-.82-.05-1-1.55-.93-1.81s-4.51-.21-4.46-.94a8.45,8.45,0,0,1,.68-2.07s-1.4.52-1.77,0a.91.91,0,0,1,0-1s-1.19.36-1.3.05a8,8,0,0,1,0-1.56s-1.45.73-1.66.52.63-.83.63-.83l-1.25.1s3-2,3.74-5a13.27,13.27,0,0,1,4.82-7.27,5.87,5.87,0,0,1,5.44-1A4.69,4.69,0,0,1,53.79,293.42Z" style="fill:#fff;stroke:#263238;stroke-miterlimit:10"></path><path d="M51.81,293.63a.52.52,0,1,1-1,0,.52.52,0,1,1,1,0Z" style="fill:#263238"></path><path d="M56.12,296.23a2.8,2.8,0,0,0-.62-1.61,9.31,9.31,0,0,0-1.61-1.14l-.21.36a.67.67,0,0,1-.47.62c-.46.16-1.76.05-1.81.62s.78.57.78.57l.62,0a2.41,2.41,0,0,1,1.24-.31A5.18,5.18,0,0,1,56.12,296.23Z" style="fill:#c4c4c4;stroke:#263238;stroke-linecap:round;stroke-linejoin:round"></path><path d="M447.43,331.1s2.91,6.32,3.19,6.74,5.4.43,4.69.78a5.62,5.62,0,0,1-2.27.21s4.75,1.14,3.69,1.21a54,54,0,0,1-6.18-1s2.63,1.42,1.92,1.28a41.3,41.3,0,0,1-4.21-1.89c-.38-.19-1.08-.35-.73-.6a4,4,0,0,1,1.65-.13l-2.76-6.08Z" style="fill:#263238"></path><path d="M444.87,331.53s2.27,7.94,2.35,8.44-1.28.36-1.78.92,1.63,0,1.92.22,0,.35.92,1.56,1.63,1.2,1.21.28-.71-1.63-.71-1.63,1.42.35,3,.78,4.4.35,2.77,0-4.4-1.28-4.4-1.28,4.11.43,3.69-.07-4.12-.78-4.76-1l-.64-.22-2.27-8.3Z" style="fill:#263238"></path><path d="M452.5,304.73s-2.53,1-4.51,1.54a67.41,67.41,0,0,1-10.62,1.08c-1.35-.09-3.42-6.39-6.84-9.54s-5-2.61-4.23-.72,1.44,3.15,1.44,3.15-3.87-2-4.14-.36,1.89,4.23,1.89,4.23-2.7-.45-1.44,4.41a18.66,18.66,0,0,0,3,6.75,7.72,7.72,0,0,0,2.34,3,6.88,6.88,0,0,1,1.62,1.44s-.63,3.69,3.33,6.39a17.8,17.8,0,0,0,8.37,2.88s.9,2.43,2,3.06a2.59,2.59,0,0,0,2.79,0c.72-.45,2.07-2.79,2.71-3.33s2.79-1.89,5.67-4.32,6.1-3.47,7.2-6.21a27,27,0,0,0,1.44-6.21l-10.26-8.37Z" style="fill:#fff;stroke:#263238;stroke-miterlimit:10"></path><path d="M444.12,311.67s-4,1.44-5.85,3.42-6.93,5-5.67,6.3S438,320,438,320s-1.62,2.16.63,1.62a13.56,13.56,0,0,0,3.69-1.44s-2.25.45,1.53,1.8,9.1-1.44,9.1-1.44,4.14,2.79,5.94-2.34-.9-7.83-3.87-8.1" style="fill:#fff;stroke:#263238;stroke-miterlimit:10"></path><path d="M428.46,300.78a24.94,24.94,0,0,1,2.43,5.67" style="fill:none;stroke:#263238;stroke-linecap:round;stroke-linejoin:round"></path><path d="M426,304.83s.9,1.17,1.08,1.44" style="fill:none;stroke:#263238;stroke-linecap:round;stroke-linejoin:round"></path><path d="M467.49,293.42a4.37,4.37,0,0,0-1.6-1.5l-1.51-.62s-.57-1.77-.15-1.56a6,6,0,0,1,1.09.94s-.16-1.61.67-.89,1.09.47,1.14,1.09.52-.62,1,.57.15,1.51.15,1.51.94.26.47.52A1.93,1.93,0,0,1,467.49,293.42Z" style="fill:#92E3A9;stroke:#263238;stroke-linecap:round;stroke-linejoin:round"></path><path d="M466.51,295.6s-1.87.37-2,.94.52,1.14,1,.88S466.51,295.6,466.51,295.6Z" style="fill:#92E3A9;stroke:#263238;stroke-linecap:round;stroke-linejoin:round"></path><path d="M467.49,293.42a9.64,9.64,0,0,1,1.71,1.2,2.76,2.76,0,0,1,.63,1.61,5.18,5.18,0,0,0-2.08-.94,2.36,2.36,0,0,0-1.24.31s-1.82.57-2,1.51a22.16,22.16,0,0,0,.72,5.34c.31,1.14.52,8.61-.05,10.32s-.88,2.65-1.09,2.65-.1-2-.21-1.82.06.1-.57.36-.67-1.66-1-1.66a4.62,4.62,0,0,1-1,0c-.83-.05-1-1.55-.93-1.81s-4.51-.21-4.46-.94a8.57,8.57,0,0,1,.67-2.07s-1.4.52-1.76,0a.91.91,0,0,1-.05-1s-1.19.36-1.3.05a8,8,0,0,1,0-1.56s-1.45.73-1.66.52.62-.83.62-.83l-1.24.1s3-2,3.73-5a13.34,13.34,0,0,1,4.83-7.27,5.87,5.87,0,0,1,5.44-1A4.64,4.64,0,0,1,467.49,293.42Z" style="fill:#fff;stroke:#263238;stroke-miterlimit:10"></path><path d="M465.52,293.63a.52.52,0,1,1-.52-.52A.52.52,0,0,1,465.52,293.63Z" style="fill:#263238"></path><path d="M469.83,296.23a2.76,2.76,0,0,0-.63-1.61,8.93,8.93,0,0,0-1.6-1.14l-.21.36a.67.67,0,0,1-.47.62c-.46.16-1.76.05-1.81.62s.78.57.78.57l.62,0a2.36,2.36,0,0,1,1.24-.31A5.18,5.18,0,0,1,469.83,296.23Z" style="fill:#c4c4c4;stroke:#263238;stroke-linecap:round;stroke-linejoin:round"></path></g><g id="Food"><circle cx="288.37" cy="270.48" r="1.48" style="fill:#fff;stroke:#263238;stroke-linecap:round;stroke-linejoin:round;stroke-width:0.5px"></circle><circle cx="281.71" cy="272.59" r="1.48" style="fill:#fff;stroke:#263238;stroke-linecap:round;stroke-linejoin:round;stroke-width:0.5px"></circle><circle cx="260.46" cy="284.81" r="1.48" style="fill:#fff;stroke:#263238;stroke-linecap:round;stroke-linejoin:round;stroke-width:0.5px"></circle><circle cx="313.88" cy="264.95" r="1.48" style="fill:#fff;stroke:#263238;stroke-linecap:round;stroke-linejoin:round;stroke-width:0.5px"></circle><circle cx="310.73" cy="269.14" r="1.48" style="fill:#fff;stroke:#263238;stroke-linecap:round;stroke-linejoin:round;stroke-width:0.5px"></circle><circle cx="336.91" cy="274.37" r="1.48" style="fill:#fff;stroke:#263238;stroke-linecap:round;stroke-linejoin:round;stroke-width:0.5px"></circle><circle cx="335.66" cy="267.82" r="1.48" style="fill:#fff;stroke:#263238;stroke-linecap:round;stroke-linejoin:round;stroke-width:0.5px"></circle><circle cx="328.48" cy="271.88" r="1.48" style="fill:#fff;stroke:#263238;stroke-linecap:round;stroke-linejoin:round;stroke-width:0.5px"></circle><circle cx="293.71" cy="273.73" r="1.48" style="fill:#fff;stroke:#263238;stroke-linecap:round;stroke-linejoin:round;stroke-width:0.5px"></circle><circle cx="337.53" cy="262.9" r="1.48" style="fill:#fff;stroke:#263238;stroke-linecap:round;stroke-linejoin:round;stroke-width:0.5px"></circle><circle cx="251.08" cy="306.97" r="1.48" style="fill:#fff;stroke:#263238;stroke-linecap:round;stroke-linejoin:round;stroke-width:0.5px"></circle><circle cx="258.63" cy="299.87" r="1.48" style="fill:#fff;stroke:#263238;stroke-linecap:round;stroke-linejoin:round;stroke-width:0.5px"></circle><circle cx="286.54" cy="274.86" r="1.48" style="fill:#fff;stroke:#263238;stroke-linecap:round;stroke-linejoin:round;stroke-width:0.5px"></circle><circle cx="257.84" cy="277.07" r="1.48" style="fill:#fff;stroke:#263238;stroke-linecap:round;stroke-linejoin:round;stroke-width:0.5px"></circle><circle cx="272.34" cy="274.01" r="1.48" style="fill:#fff;stroke:#263238;stroke-linecap:round;stroke-linejoin:round;stroke-width:0.5px"></circle><circle cx="209.91" cy="291.41" r="1.48" style="fill:#fff;stroke:#263238;stroke-linecap:round;stroke-linejoin:round;stroke-width:0.5px"></circle><circle cx="242.19" cy="278.96" r="1.48" style="fill:#fff;stroke:#263238;stroke-linecap:round;stroke-linejoin:round;stroke-width:0.5px"></circle><circle cx="198.1" cy="275.21" r="1.48" style="fill:#fff;stroke:#263238;stroke-linecap:round;stroke-linejoin:round;stroke-width:0.5px"></circle><circle cx="221.91" cy="292.77" r="1.48" style="fill:#fff;stroke:#263238;stroke-linecap:round;stroke-linejoin:round;stroke-width:0.5px"></circle><circle cx="204.86" cy="283.73" r="1.48" style="fill:#fff;stroke:#263238;stroke-linecap:round;stroke-linejoin:round;stroke-width:0.5px"></circle><circle cx="219.07" cy="278.9" r="1.48" style="fill:#fff;stroke:#263238;stroke-linecap:round;stroke-linejoin:round;stroke-width:0.5px"></circle><circle cx="250.17" cy="291.06" r="1.48" style="fill:#fff;stroke:#263238;stroke-linecap:round;stroke-linejoin:round;stroke-width:0.5px"></circle><circle cx="209.97" cy="282.66" r="1.48" style="fill:#fff;stroke:#263238;stroke-linecap:round;stroke-linejoin:round;stroke-width:0.5px"></circle><circle cx="283.92" cy="268.04" r="1.48" style="fill:#fff;stroke:#263238;stroke-linecap:round;stroke-linejoin:round;stroke-width:0.5px"></circle><circle cx="251.37" cy="278.27" r="1.48" style="fill:#fff;stroke:#263238;stroke-linecap:round;stroke-linejoin:round;stroke-width:0.5px"></circle><circle cx="273.82" cy="280.55" r="1.48" style="fill:#fff;stroke:#263238;stroke-linecap:round;stroke-linejoin:round;stroke-width:0.5px"></circle><circle cx="277.94" cy="266.38" r="1.48" style="fill:#fff;stroke:#263238;stroke-linecap:round;stroke-linejoin:round;stroke-width:0.5px"></circle><circle cx="288.53" cy="265.2" r="1.48" style="fill:#fff;stroke:#263238;stroke-linecap:round;stroke-linejoin:round;stroke-width:0.5px"></circle><path d="M272.05,270a1.49,1.49,0,1,1-1.48-1.48A1.48,1.48,0,0,1,272.05,270Z" style="fill:#fff;stroke:#263238;stroke-linecap:round;stroke-linejoin:round;stroke-width:0.5px"></path><circle cx="200.08" cy="282.48" r="1.48" style="fill:#fff;stroke:#263238;stroke-linecap:round;stroke-linejoin:round;stroke-width:0.5px"></circle><circle cx="187.37" cy="279.21" r="1.48" style="fill:#fff;stroke:#263238;stroke-linecap:round;stroke-linejoin:round;stroke-width:0.5px"></circle><circle cx="166.12" cy="291.43" r="1.48" style="fill:#fff;stroke:#263238;stroke-linecap:round;stroke-linejoin:round;stroke-width:0.5px"></circle><circle cx="205.43" cy="285.72" r="1.48" style="fill:#fff;stroke:#263238;stroke-linecap:round;stroke-linejoin:round;stroke-width:0.5px"></circle><path d="M165.77,306.49a1.49,1.49,0,1,1-1.49-1.49A1.49,1.49,0,0,1,165.77,306.49Z" style="fill:#fff;stroke:#263238;stroke-linecap:round;stroke-linejoin:round;stroke-width:0.5px"></path><circle cx="198.26" cy="286.86" r="1.48" style="fill:#fff;stroke:#263238;stroke-linecap:round;stroke-linejoin:round;stroke-width:0.5px"></circle><circle cx="177.99" cy="280.63" r="1.48" style="fill:#fff;stroke:#263238;stroke-linecap:round;stroke-linejoin:round;stroke-width:0.5px"></circle><circle cx="195.64" cy="280.04" r="1.48" style="fill:#fff;stroke:#263238;stroke-linecap:round;stroke-linejoin:round;stroke-width:0.5px"></circle><circle cx="179.47" cy="287.16" r="1.48" style="fill:#fff;stroke:#263238;stroke-linecap:round;stroke-linejoin:round;stroke-width:0.5px"></circle><circle cx="198.31" cy="278.03" r="1.48" style="fill:#fff;stroke:#263238;stroke-linecap:round;stroke-linejoin:round;stroke-width:0.5px"></circle><circle cx="200.25" cy="277.2" r="1.48" style="fill:#fff;stroke:#263238;stroke-linecap:round;stroke-linejoin:round;stroke-width:0.5px"></circle><circle cx="176.22" cy="276.65" r="1.48" style="fill:#fff;stroke:#263238;stroke-linecap:round;stroke-linejoin:round;stroke-width:0.5px"></circle><circle cx="205.71" cy="295.61" r="1.48" style="fill:#fff;stroke:#263238;stroke-linecap:round;stroke-linejoin:round;stroke-width:0.5px"></circle><circle cx="199.05" cy="297.72" r="1.48" style="fill:#fff;stroke:#263238;stroke-linecap:round;stroke-linejoin:round;stroke-width:0.5px"></circle><path d="M173.23,304.56a1.49,1.49,0,1,1-1.49-1.49A1.49,1.49,0,0,1,173.23,304.56Z" style="fill:#fff;stroke:#263238;stroke-linecap:round;stroke-linejoin:round;stroke-width:0.5px"></path><circle cx="211.05" cy="298.85" r="1.48" style="fill:#fff;stroke:#263238;stroke-linecap:round;stroke-linejoin:round;stroke-width:0.5px"></circle><circle cx="108.79" cy="405.66" r="1.48" style="fill:#fff;stroke:#263238;stroke-linecap:round;stroke-linejoin:round;stroke-width:0.5px"></circle><circle cx="103.69" cy="398.6" r="1.48" style="fill:#fff;stroke:#263238;stroke-linecap:round;stroke-linejoin:round;stroke-width:0.5px"></circle><path d="M124.5,398.55a1.07,1.07,0,1,1-1.07-1.08A1.07,1.07,0,0,1,124.5,398.55Z" style="fill:#fff;stroke:#263238;stroke-linecap:round;stroke-linejoin:round;stroke-width:0.5px"></path><path d="M113.39,399.87a1.07,1.07,0,1,1-1.07-1.07A1.07,1.07,0,0,1,113.39,399.87Z" style="fill:#fff;stroke:#263238;stroke-linecap:round;stroke-linejoin:round;stroke-width:0.5px"></path><path d="M151.54,385.17a1.07,1.07,0,1,1-1.07-1.07A1.07,1.07,0,0,1,151.54,385.17Z" style="fill:#fff;stroke:#263238;stroke-linecap:round;stroke-linejoin:round;stroke-width:0.5px"></path><circle cx="148.37" cy="339.15" r="1.48" style="fill:#fff;stroke:#263238;stroke-linecap:round;stroke-linejoin:round;stroke-width:0.5px"></circle><circle cx="203.89" cy="299.99" r="1.48" style="fill:#fff;stroke:#263238;stroke-linecap:round;stroke-linejoin:round;stroke-width:0.5px"></circle><circle cx="183.61" cy="293.76" r="1.48" style="fill:#fff;stroke:#263238;stroke-linecap:round;stroke-linejoin:round;stroke-width:0.5px"></circle><circle cx="201.26" cy="293.17" r="1.48" style="fill:#fff;stroke:#263238;stroke-linecap:round;stroke-linejoin:round;stroke-width:0.5px"></circle><circle cx="185.1" cy="300.29" r="1.48" style="fill:#fff;stroke:#263238;stroke-linecap:round;stroke-linejoin:round;stroke-width:0.5px"></circle><circle cx="195.28" cy="291.51" r="1.48" style="fill:#fff;stroke:#263238;stroke-linecap:round;stroke-linejoin:round;stroke-width:0.5px"></circle><circle cx="205.87" cy="290.33" r="1.48" style="fill:#fff;stroke:#263238;stroke-linecap:round;stroke-linejoin:round;stroke-width:0.5px"></circle><path d="M183.33,289.78a1.49,1.49,0,0,1-3,0,1.49,1.49,0,1,1,3,0Z" style="fill:#fff;stroke:#263238;stroke-linecap:round;stroke-linejoin:round;stroke-width:0.5px"></path><path d="M141.37,276.93a1.49,1.49,0,1,0,3,0,1.49,1.49,0,0,0-3,0Z" style="fill:#fff;stroke:#263238;stroke-linecap:round;stroke-linejoin:round;stroke-width:0.5px"></path><circle cx="149.51" cy="279.04" r="1.48" style="fill:#fff;stroke:#263238;stroke-linecap:round;stroke-linejoin:round;stroke-width:0.5px"></circle><circle cx="170.76" cy="291.26" r="1.48" style="fill:#fff;stroke:#263238;stroke-linecap:round;stroke-linejoin:round;stroke-width:0.5px"></circle><circle cx="137.51" cy="280.18" r="1.48" style="fill:#fff;stroke:#263238;stroke-linecap:round;stroke-linejoin:round;stroke-width:0.5px"></circle><circle cx="172.59" cy="306.32" r="1.48" style="fill:#fff;stroke:#263238;stroke-linecap:round;stroke-linejoin:round;stroke-width:0.5px"></circle><circle cx="144.68" cy="281.32" r="1.48" style="fill:#fff;stroke:#263238;stroke-linecap:round;stroke-linejoin:round;stroke-width:0.5px"></circle><circle cx="158.89" cy="280.46" r="1.48" style="fill:#fff;stroke:#263238;stroke-linecap:round;stroke-linejoin:round;stroke-width:0.5px"></circle><circle cx="162.01" cy="279.53" r="1.48" style="fill:#fff;stroke:#263238;stroke-linecap:round;stroke-linejoin:round;stroke-width:0.5px"></circle><circle cx="157.41" cy="287" r="1.48" style="fill:#fff;stroke:#263238;stroke-linecap:round;stroke-linejoin:round;stroke-width:0.5px"></circle><circle cx="168" cy="277.86" r="1.48" style="fill:#fff;stroke:#263238;stroke-linecap:round;stroke-linejoin:round;stroke-width:0.5px"></circle><circle cx="157.4" cy="276.69" r="1.48" style="fill:#fff;stroke:#263238;stroke-linecap:round;stroke-linejoin:round;stroke-width:0.5px"></circle><circle cx="160.66" cy="276.48" r="1.48" style="fill:#fff;stroke:#263238;stroke-linecap:round;stroke-linejoin:round;stroke-width:0.5px"></circle><path d="M164.73,285.05a1.49,1.49,0,1,0,3,0,1.49,1.49,0,0,0-3,0Z" style="fill:#fff;stroke:#263238;stroke-linecap:round;stroke-linejoin:round;stroke-width:0.5px"></path><circle cx="172.87" cy="287.16" r="1.48" style="fill:#fff;stroke:#263238;stroke-linecap:round;stroke-linejoin:round;stroke-width:0.5px"></circle><circle cx="200.18" cy="304.76" r="1.48" style="fill:#fff;stroke:#263238;stroke-linecap:round;stroke-linejoin:round;stroke-width:0.5px"></circle><circle cx="160.87" cy="288.3" r="1.48" style="fill:#fff;stroke:#263238;stroke-linecap:round;stroke-linejoin:round;stroke-width:0.5px"></circle><circle cx="202.02" cy="319.83" r="1.48" style="fill:#fff;stroke:#263238;stroke-linecap:round;stroke-linejoin:round;stroke-width:0.5px"></circle><circle cx="168.04" cy="289.44" r="1.48" style="fill:#fff;stroke:#263238;stroke-linecap:round;stroke-linejoin:round;stroke-width:0.5px"></circle><circle cx="182.25" cy="288.58" r="1.48" style="fill:#fff;stroke:#263238;stroke-linecap:round;stroke-linejoin:round;stroke-width:0.5px"></circle><circle cx="170.66" cy="282.62" r="1.48" style="fill:#fff;stroke:#263238;stroke-linecap:round;stroke-linejoin:round;stroke-width:0.5px"></circle><circle cx="180.77" cy="295.12" r="1.48" style="fill:#fff;stroke:#263238;stroke-linecap:round;stroke-linejoin:round;stroke-width:0.5px"></circle><circle cx="176.65" cy="280.95" r="1.48" style="fill:#fff;stroke:#263238;stroke-linecap:round;stroke-linejoin:round;stroke-width:0.5px"></circle><circle cx="166.05" cy="279.77" r="1.48" style="fill:#fff;stroke:#263238;stroke-linecap:round;stroke-linejoin:round;stroke-width:0.5px"></circle><circle cx="184.02" cy="284.6" r="1.48" style="fill:#fff;stroke:#263238;stroke-linecap:round;stroke-linejoin:round;stroke-width:0.5px"></circle><circle cx="204.39" cy="289.23" r="1.48" style="fill:#fff;stroke:#263238;stroke-linecap:round;stroke-linejoin:round;stroke-width:0.5px"></circle><circle cx="211.05" cy="291.34" r="1.48" style="fill:#fff;stroke:#263238;stroke-linecap:round;stroke-linejoin:round;stroke-width:0.5px"></circle><circle cx="240.95" cy="303.22" r="1.48" style="fill:#fff;stroke:#263238;stroke-linecap:round;stroke-linejoin:round;stroke-width:0.5px"></circle><circle cx="199.05" cy="292.48" r="1.48" style="fill:#fff;stroke:#263238;stroke-linecap:round;stroke-linejoin:round;stroke-width:0.5px"></circle><circle cx="242.78" cy="318.28" r="1.48" style="fill:#fff;stroke:#263238;stroke-linecap:round;stroke-linejoin:round;stroke-width:0.5px"></circle><circle cx="138.92" cy="361.2" r="1.48" style="fill:#fff;stroke:#263238;stroke-linecap:round;stroke-linejoin:round;stroke-width:0.5px"></circle><circle cx="210.67" cy="358.41" r="1.48" style="fill:#fff;stroke:#263238;stroke-linecap:round;stroke-linejoin:round;stroke-width:0.5px"></circle><circle cx="282" cy="355" r="1.48" style="fill:#fff;stroke:#263238;stroke-linecap:round;stroke-linejoin:round;stroke-width:0.5px"></circle><circle cx="172.52" cy="373.27" r="1.48" style="fill:#fff;stroke:#263238;stroke-linecap:round;stroke-linejoin:round;stroke-width:0.5px"></circle><circle cx="161.72" cy="355.73" r="1.48" style="fill:#fff;stroke:#263238;stroke-linecap:round;stroke-linejoin:round;stroke-width:0.5px"></circle><circle cx="163.56" cy="370.79" r="1.48" style="fill:#fff;stroke:#263238;stroke-linecap:round;stroke-linejoin:round;stroke-width:0.5px"></circle><circle cx="129.56" cy="403.78" r="1.48" style="fill:#fff;stroke:#263238;stroke-linecap:round;stroke-linejoin:round;stroke-width:0.5px"></circle><circle cx="120.69" cy="403.31" r="1.48" style="fill:#fff;stroke:#263238;stroke-linecap:round;stroke-linejoin:round;stroke-width:0.5px"></circle><circle cx="281.52" cy="424.09" r="1.48" style="fill:#fff;stroke:#263238;stroke-linecap:round;stroke-linejoin:round;stroke-width:0.5px"></circle><circle cx="276.42" cy="417.04" r="1.48" style="fill:#fff;stroke:#263238;stroke-linecap:round;stroke-linejoin:round;stroke-width:0.5px"></circle><path d="M297.23,417a1.07,1.07,0,1,1-1.07-1.07A1.07,1.07,0,0,1,297.23,417Z" style="fill:#fff;stroke:#263238;stroke-linecap:round;stroke-linejoin:round;stroke-width:0.5px"></path><path d="M286.12,418.31a1.07,1.07,0,1,1-1.07-1.08A1.07,1.07,0,0,1,286.12,418.31Z" style="fill:#fff;stroke:#263238;stroke-linecap:round;stroke-linejoin:round;stroke-width:0.5px"></path><circle cx="302.29" cy="422.21" r="1.48" style="fill:#fff;stroke:#263238;stroke-linecap:round;stroke-linejoin:round;stroke-width:0.5px"></circle><circle cx="293.42" cy="421.74" r="1.48" style="fill:#fff;stroke:#263238;stroke-linecap:round;stroke-linejoin:round;stroke-width:0.5px"></circle><circle cx="200.34" cy="410.94" r="1.48" style="fill:#fff;stroke:#263238;stroke-linecap:round;stroke-linejoin:round;stroke-width:0.5px"></circle><circle cx="195.24" cy="403.89" r="1.48" style="fill:#fff;stroke:#263238;stroke-linecap:round;stroke-linejoin:round;stroke-width:0.5px"></circle><path d="M216.05,403.83a1.07,1.07,0,1,1-1.07-1.07A1.07,1.07,0,0,1,216.05,403.83Z" style="fill:#fff;stroke:#263238;stroke-linecap:round;stroke-linejoin:round;stroke-width:0.5px"></path><path d="M204.94,405.16a1.07,1.07,0,1,1-1.07-1.08A1.07,1.07,0,0,1,204.94,405.16Z" style="fill:#fff;stroke:#263238;stroke-linecap:round;stroke-linejoin:round;stroke-width:0.5px"></path><circle cx="221.11" cy="409.06" r="1.48" style="fill:#fff;stroke:#263238;stroke-linecap:round;stroke-linejoin:round;stroke-width:0.5px"></circle><circle cx="212.25" cy="408.59" r="1.48" style="fill:#fff;stroke:#263238;stroke-linecap:round;stroke-linejoin:round;stroke-width:0.5px"></circle><circle cx="206.22" cy="293.62" r="1.48" style="fill:#fff;stroke:#263238;stroke-linecap:round;stroke-linejoin:round;stroke-width:0.5px"></circle><circle cx="220.42" cy="292.77" r="1.48" style="fill:#fff;stroke:#263238;stroke-linecap:round;stroke-linejoin:round;stroke-width:0.5px"></circle><circle cx="208.84" cy="286.8" r="1.48" style="fill:#fff;stroke:#263238;stroke-linecap:round;stroke-linejoin:round;stroke-width:0.5px"></circle><circle cx="295.35" cy="354.72" r="1.48" style="fill:#fff;stroke:#263238;stroke-linecap:round;stroke-linejoin:round;stroke-width:0.5px"></circle><circle cx="218.94" cy="299.3" r="1.48" style="fill:#fff;stroke:#263238;stroke-linecap:round;stroke-linejoin:round;stroke-width:0.5px"></circle><circle cx="214.82" cy="285.13" r="1.48" style="fill:#fff;stroke:#263238;stroke-linecap:round;stroke-linejoin:round;stroke-width:0.5px"></circle><circle cx="204.23" cy="283.96" r="1.48" style="fill:#fff;stroke:#263238;stroke-linecap:round;stroke-linejoin:round;stroke-width:0.5px"></circle><circle cx="222.19" cy="288.79" r="1.48" style="fill:#fff;stroke:#263238;stroke-linecap:round;stroke-linejoin:round;stroke-width:0.5px"></circle><circle cx="173.66" cy="300.97" r="1.25" style="fill:#fff;stroke:#263238;stroke-linecap:round;stroke-linejoin:round;stroke-width:0.5px"></circle><circle cx="179.26" cy="302.74" r="1.25" style="fill:#fff;stroke:#263238;stroke-linecap:round;stroke-linejoin:round;stroke-width:0.5px"></circle><path d="M186.63,325.13a1.25,1.25,0,1,0,1.25-1.25A1.25,1.25,0,0,0,186.63,325.13Z" style="fill:#fff;stroke:#263238;stroke-linecap:round;stroke-linejoin:round;stroke-width:0.5px"></path><circle cx="169.16" cy="303.7" r="1.25" style="fill:#fff;stroke:#263238;stroke-linecap:round;stroke-linejoin:round;stroke-width:0.5px"></circle><circle cx="213.4" cy="330.73" r="1.25" style="fill:#fff;stroke:#263238;stroke-linecap:round;stroke-linejoin:round;stroke-width:0.5px"></circle><circle cx="175.2" cy="304.66" r="1.25" style="fill:#fff;stroke:#263238;stroke-linecap:round;stroke-linejoin:round;stroke-width:0.5px"></circle><path d="M185.9,303.94a1.25,1.25,0,1,0,1.25-1.25A1.25,1.25,0,0,0,185.9,303.94Z" style="fill:#fff;stroke:#263238;stroke-linecap:round;stroke-linejoin:round;stroke-width:0.5px"></path><circle cx="177.4" cy="298.92" r="1.25" style="fill:#fff;stroke:#263238;stroke-linecap:round;stroke-linejoin:round;stroke-width:0.5px"></circle><path d="M184.65,309.44a1.25,1.25,0,1,0,1.25-1.25A1.25,1.25,0,0,0,184.65,309.44Z" style="fill:#fff;stroke:#263238;stroke-linecap:round;stroke-linejoin:round;stroke-width:0.5px"></path><path d="M181.19,297.52a1.25,1.25,0,1,0,1.24-1.25A1.25,1.25,0,0,0,181.19,297.52Z" style="fill:#fff;stroke:#263238;stroke-linecap:round;stroke-linejoin:round;stroke-width:0.5px"></path><circle cx="173.52" cy="296.53" r="1.25" style="fill:#fff;stroke:#263238;stroke-linecap:round;stroke-linejoin:round;stroke-width:0.5px"></circle><circle cx="194.7" cy="305.97" r="1.25" style="fill:#fff;stroke:#263238;stroke-linecap:round;stroke-linejoin:round;stroke-width:0.5px"></circle><circle cx="248.04" cy="270.07" r="1.25" style="fill:#fff;stroke:#263238;stroke-linecap:round;stroke-linejoin:round;stroke-width:0.5px"></circle><circle cx="253.65" cy="271.85" r="1.25" style="fill:#fff;stroke:#263238;stroke-linecap:round;stroke-linejoin:round;stroke-width:0.5px"></circle><circle cx="271.53" cy="282.13" r="1.25" style="fill:#fff;stroke:#263238;stroke-linecap:round;stroke-linejoin:round;stroke-width:0.5px"></circle><path d="M242.3,272.81a1.25,1.25,0,1,0,1.25-1.25A1.24,1.24,0,0,0,242.3,272.81Z" style="fill:#fff;stroke:#263238;stroke-linecap:round;stroke-linejoin:round;stroke-width:0.5px"></path><circle cx="273.07" cy="294.81" r="1.25" style="fill:#fff;stroke:#263238;stroke-linecap:round;stroke-linejoin:round;stroke-width:0.5px"></circle><path d="M248.33,273.76a1.25,1.25,0,1,0,1.25-1.25A1.25,1.25,0,0,0,248.33,273.76Z" style="fill:#fff;stroke:#263238;stroke-linecap:round;stroke-linejoin:round;stroke-width:0.5px"></path><path d="M260.29,273a1.25,1.25,0,1,0,1.25-1.24A1.25,1.25,0,0,0,260.29,273Z" style="fill:#fff;stroke:#263238;stroke-linecap:round;stroke-linejoin:round;stroke-width:0.5px"></path><circle cx="251.79" cy="268.02" r="1.25" style="fill:#fff;stroke:#263238;stroke-linecap:round;stroke-linejoin:round;stroke-width:0.5px"></circle><circle cx="260.29" cy="278.54" r="1.25" style="fill:#fff;stroke:#263238;stroke-linecap:round;stroke-linejoin:round;stroke-width:0.5px"></circle><circle cx="256.82" cy="266.62" r="1.25" style="fill:#fff;stroke:#263238;stroke-linecap:round;stroke-linejoin:round;stroke-width:0.5px"></circle><circle cx="247.91" cy="265.63" r="1.25" style="fill:#fff;stroke:#263238;stroke-linecap:round;stroke-linejoin:round;stroke-width:0.5px"></circle><path d="M261.78,269.7a1.25,1.25,0,1,0,1.24-1.25A1.24,1.24,0,0,0,261.78,269.7Z" style="fill:#fff;stroke:#263238;stroke-linecap:round;stroke-linejoin:round;stroke-width:0.5px"></path><path d="M137,291.23a1.25,1.25,0,1,0,1.25-1.25A1.25,1.25,0,0,0,137,291.23Z" style="fill:#fff;stroke:#263238;stroke-linecap:round;stroke-linejoin:round;stroke-width:0.5px"></path><path d="M142.62,293a1.25,1.25,0,1,0,1.24-1.25A1.24,1.24,0,0,0,142.62,293Z" style="fill:#fff;stroke:#263238;stroke-linecap:round;stroke-linejoin:round;stroke-width:0.5px"></path><circle cx="161.75" cy="303.29" r="1.25" style="fill:#fff;stroke:#263238;stroke-linecap:round;stroke-linejoin:round;stroke-width:0.5px"></circle><path d="M132.52,294a1.25,1.25,0,1,0,1.25-1.25A1.25,1.25,0,0,0,132.52,294Z" style="fill:#fff;stroke:#263238;stroke-linecap:round;stroke-linejoin:round;stroke-width:0.5px"></path><circle cx="140.32" cy="329.7" r="1.25" style="fill:#fff;stroke:#263238;stroke-linecap:round;stroke-linejoin:round;stroke-width:0.5px"></circle><path d="M138.55,294.92a1.25,1.25,0,1,0,1.25-1.25A1.25,1.25,0,0,0,138.55,294.92Z" style="fill:#fff;stroke:#263238;stroke-linecap:round;stroke-linejoin:round;stroke-width:0.5px"></path><circle cx="151.75" cy="294.2" r="1.25" style="fill:#fff;stroke:#263238;stroke-linecap:round;stroke-linejoin:round;stroke-width:0.5px"></circle><path d="M140.76,289.18a1.25,1.25,0,1,0,1.24-1.25A1.24,1.24,0,0,0,140.76,289.18Z" style="fill:#fff;stroke:#263238;stroke-linecap:round;stroke-linejoin:round;stroke-width:0.5px"></path><path d="M149.26,299.7a1.25,1.25,0,1,0,1.25-1.25A1.25,1.25,0,0,0,149.26,299.7Z" style="fill:#fff;stroke:#263238;stroke-linecap:round;stroke-linejoin:round;stroke-width:0.5px"></path><path d="M145.79,287.78a1.25,1.25,0,1,0,1.25-1.25A1.25,1.25,0,0,0,145.79,287.78Z" style="fill:#fff;stroke:#263238;stroke-linecap:round;stroke-linejoin:round;stroke-width:0.5px"></path><circle cx="138.12" cy="286.79" r="1.25" style="fill:#fff;stroke:#263238;stroke-linecap:round;stroke-linejoin:round;stroke-width:0.5px"></circle><circle cx="153.24" cy="290.85" r="1.25" style="fill:#fff;stroke:#263238;stroke-linecap:round;stroke-linejoin:round;stroke-width:0.5px"></circle></g><g id="Character"><path d="M362.11,292.6s0,28.25.75,30.51,3.39,21.84,3.77,27.12-3,21.46-3,21.46l-1.5,6.41s7.15,1.13,11.3,3,13.93,6.4,13.93,6.4a100.54,100.54,0,0,0,6-13.18c1.88-5.65,1.88-21.84,1.88-26.74s2.64-55.74,2.64-55.74l15.44,35.4s16.57,40.3,17.32,44.07,1.13,11.67,1.51,13.93,3.76.75,6.4.75,12.43,1.13,13.56,1.89a45.13,45.13,0,0,0,4.9,2.26s1.5-18.46,1.5-26.74-3.76-29.76-7.91-38.42-9.41-24.86-9.41-27.49-.38-23.35,0-26.74-2.66-11.51-5.1-21.76-3.19-11.76-3.19-11.76l-68.54,23.35Z" style="fill:#263238;stroke:#263238;stroke-linecap:round;stroke-linejoin:round"></path><path d="M429.9,279.8s4.89,24.48,10.17,40.67,13.56,35.78,14.69,45.57a107.45,107.45,0,0,1,.75,16.57" style="fill:none;stroke:#fff;stroke-linecap:round;stroke-linejoin:round"></path><path d="M394.12,290s.75,28.62-1.51,43.68-1.5,17.71-1.5,27.12.75,12.05,0,13.94" style="fill:none;stroke:#fff;stroke-linecap:round;stroke-linejoin:round"></path><path d="M362.11,378.1s-5.65,5.64-7.91,7.53-9,4.14-9.79,7.15,5.27,6,11.29,7.16,16.95-2.64,18.83-3.39,5.28.75,9.42-.75,3.39-8.29,3.39-8.29S367.76,376.59,362.11,378.1Z" style="fill:#fff;stroke:#263238;stroke-linecap:round;stroke-linejoin:round"></path><path d="M379,392c-6.79,1.9-12.23,5.17-21.2,5.17a19,19,0,0,1-13-5.34,2.84,2.84,0,0,0-.43.92c-.76,3,5.27,6,11.29,7.16s16.95-2.64,18.83-3.39,5.28.75,9.42-.75c2.14-.78,3-3,3.27-4.88A27.22,27.22,0,0,0,379,392Z" style="fill:#fff;stroke:#263238;stroke-linecap:round;stroke-linejoin:round"></path><path d="M432.16,385.25a19.06,19.06,0,0,1-6,9.79c-4.89,4.15-3.39,9.41.75,11.67s10.47,3.47,18.76-2.18A32.54,32.54,0,0,0,457,390.15,25.09,25.09,0,0,0,432.16,385.25Z" style="fill:#fff;stroke:#263238;stroke-linecap:round;stroke-linejoin:round"></path><path d="M456,389.3c-.88,1.17-1.85,2.55-2.79,4.09-3,4.89-10.06,12.5-17.94,12.77-6.17.22-10.5-4.55-12.09-6.64a6.64,6.64,0,0,0,3.66,7.19c4.14,2.26,10.47,3.47,18.76-2.18A32.54,32.54,0,0,0,457,390.15,12.8,12.8,0,0,0,456,389.3Z" style="fill:#fff;stroke:#263238;stroke-linecap:round;stroke-linejoin:round"></path><path d="M351.71,154.39s-4.78,4.35-8,14.13-6.09,29.58-6.09,29.58-3.7,2.18-3.05,3.7a8.7,8.7,0,0,1,.65,3s-.87.21-.65,2.82a46.63,46.63,0,0,1,0,5.88l-5.22,10.22s3.26-1.31,5.44.22,4.78,9.57,4.78,10.22a26.76,26.76,0,0,0,.87,3.48l8.27-2s3.91,17,4.57,21.53,3,20.45,3,22.84-3,12.83-2.83,13.7,4.14,8.92,4.79,9.14,7.83-12.84,9.79-17,11.74-25,11.74-25,9.35,18.7,11.53,23.92,6.52,17.62,6.52,17.62,22.19-11.09,32.19-17a44.53,44.53,0,0,0,15-14.79L436.1,249s5.44,6.09,7.4,8.7S447.63,269,447.63,269l3-3.27s-.65-15.87-2.17-20.88-4.13-10.43-6.53-13.26-8.48-11.75-8.48-11.75-7.61-22.62-7.61-23.27-7.83-26.32-14.14-37.62S402.17,145,402.17,145,375.64,136.55,351.71,154.39Z" style="fill:#92E3A9;stroke:#263238;stroke-linecap:round;stroke-linejoin:round"></path><path d="M367.58,214.16c.23,4.08.52,7.58.88,10" style="fill:none;stroke:#263238;stroke-linecap:round;stroke-linejoin:round"></path><path d="M366.72,167.44s-.12,24.47.64,42.31" style="fill:none;stroke:#263238;stroke-linecap:round;stroke-linejoin:round"></path><path d="M347.55,221.45c.07,7.76.47,9.5.47,9.5" style="fill:none;stroke:#263238;stroke-linecap:round;stroke-linejoin:round"></path><path d="M348.23,170.7s-.43,28.27-.65,42.85c0,.85,0,1.67,0,2.44" style="fill:none;stroke:#263238;stroke-linecap:round;stroke-linejoin:round"></path><path d="M338.23,203.54s5.87-1.09,8.7,2.83" style="fill:none;stroke:#263238;stroke-linecap:round;stroke-linejoin:round"></path><path d="M337.14,206.15a6.47,6.47,0,0,1,6.74,0" style="fill:none;stroke:#263238;stroke-linecap:round;stroke-linejoin:round"></path><path d="M353.9,179.69c-1.56,7.94-3.17,18.09-3.06,25.81" style="fill:none;stroke:#263238;stroke-linecap:round;stroke-linejoin:round"></path><path d="M356.72,167s-1,3.84-2.15,9.39" style="fill:none;stroke:#263238;stroke-linecap:round;stroke-linejoin:round"></path><path d="M360.85,166.35a102.54,102.54,0,0,0-1.74,10.22" style="fill:none;stroke:#263238;stroke-linecap:round;stroke-linejoin:round"></path><path d="M391.3,159s.22,16.74,1.3,25.66" style="fill:none;stroke:#263238;stroke-linecap:round;stroke-linejoin:round"></path><path d="M388.66,187.63a21.72,21.72,0,0,0,.68,4.17" style="fill:none;stroke:#263238;stroke-linecap:round;stroke-linejoin:round"></path><path d="M389.34,167.44a154.12,154.12,0,0,0-.86,16.54" style="fill:none;stroke:#263238;stroke-linecap:round;stroke-linejoin:round"></path><path d="M339.75,222.68a10.33,10.33,0,0,0-8.17-3.35l-2.27,4.44s3.26-1.31,5.44.22,4.78,9.57,4.78,10.22a26.76,26.76,0,0,0,.87,3.48l3.06-.73C343.47,234.55,343.22,226.7,339.75,222.68Z" style="fill:#92E3A9;stroke:#263238;stroke-linecap:round;stroke-linejoin:round"></path><path d="M375.11,249.29c-2.54-10.61-6.7-18.71-9.29-18.09l-35.15,4.51,10.77,45.06L375,269.62C377.6,269,377.65,259.9,375.11,249.29Z" style="fill:#bdbdbd;stroke:#263238;stroke-linecap:round;stroke-linejoin:round"></path><path d="M341.55,256.93c3,12.44,2.93,23.11-.11,23.84s-7.91-8.77-10.88-21.21-2.93-23.12.11-23.85S338.58,244.48,341.55,256.93Z" style="fill:#263238;stroke:#263238;stroke-linecap:round;stroke-linejoin:round"></path><path d="M385.64,246s-5.43,5.87-6.09,7.18-1.95,4.78-2.82,6.74-3.92,3.7-2.83,5.44,3.48-1.74,3.48-1.74L375,267.05s-4.57,3.7-4.14,4.57,5.44-.66,6.53-1.09,2.61,0,5.65-3.26a35.59,35.59,0,0,0,5.66-8.49c1.3-2.39,2.39-4.13,2.39-4.13l2.39-3.91Z" style="fill:#fff;stroke:#263238;stroke-linecap:round;stroke-linejoin:round"></path><path d="M397.17,174.18,407,211.59s-2.61,2.17-2.18,3.26a12.76,12.76,0,0,0,1.74,2.61s-5.22,7-7.83,11.09S385.64,246,385.64,246s6.31,6.09,9.14,7.61l2.83,1.53s21.09-17.18,26.09-24.36a55,55,0,0,0,8.92-19.36c1.09-5.22-.43-20.66-3.48-28.49s-11.09-27-14.35-30.67a27.32,27.32,0,0,0-5.44-5s-7.83-.43-15.44,6.53" style="fill:#92E3A9;stroke:#263238;stroke-linecap:round;stroke-linejoin:round"></path><path d="M408.26,215.07s12.62-3.7,11.75-2.18-3.27,1.74-3.27,1.74" style="fill:none;stroke:#263238;stroke-linecap:round;stroke-linejoin:round"></path><path d="M390.2,240.09c-2.51,3.26-4.56,5.86-4.56,5.86s6.31,6.09,9.14,7.61l2.83,1.53s2.56-2.09,6.11-5.12Z" style="fill:#92E3A9;stroke:#263238;stroke-linecap:round;stroke-linejoin:round"></path><path d="M365.63,165.91s15.45-3,27-10,19.14-6.09,19.14-6.09a18.85,18.85,0,0,0-3.26-8l-4.35-5.43s-3,6.74-9.35,10.22S365.63,165.91,365.63,165.91Z" style="fill:#92E3A9;stroke:#263238;stroke-linecap:round;stroke-linejoin:round"></path><path d="M399.56,149s4.35-3.91,5.22-8.92-2.39-7.17-12.39-8.91-16.75.65-16.75.65l.05,5.72a24.11,24.11,0,0,1,17.57,2.33C402.17,144.82,399.56,149,399.56,149Z" style="fill:#92E3A9;stroke:#263238;stroke-linecap:round;stroke-linejoin:round"></path><path d="M377.16,162.65a140.15,140.15,0,0,1,14.57-9.13c7.4-3.92,12.4-7.18,10-12.62s-15.88-7.83-19.79-7.39-10.44,6.74-10.44,6.74-9.14,2.39-15.88,5-7.61,6.31-6.09,9.14,6.09,5.44,8.7,6.09,7.39,5.43,7.39,5.43Z" style="fill:#bdbdbd;stroke:#263238;stroke-linecap:round;stroke-linejoin:round"></path><path d="M367,157.6s-5.1,2.44-6.19,3.53a18.13,18.13,0,0,0-2,2.39s-1.52-8,2.18-10.44,12.61-9.57,13.48-10.65,4.57-6.53,6.74-5.66,5.88,5.22,5.44,9.57-3.7,8.48-5.44,11.31-6.09,6.52-6.09,6.52S369.1,157.78,367,157.6Z" style="fill:#92E3A9;stroke:#263238;stroke-linecap:round;stroke-linejoin:round"></path><path d="M347.77,105.24a31.06,31.06,0,0,0-7.49,9c-1.9,3.67-1.31,8.56-.6,12.48.44,2.43.95,5.34,2.44,7.39s2.59,2.25,3.79,4.84,1.64,3.13.9,7.21c-.42,2.29,3,3,3.78,3h.8a60.64,60.64,0,0,1,3.39,5.18c.4,1,1.2,1.6,3,2.39a5.42,5.42,0,0,0,3.93-.17l3,2.63s11.35-6.53,13.14-11.51,3.68-8.93,3.68-11.33a21.9,21.9,0,0,0-1.2-5.78s.31-2.43-1.08-8.81-3.39-12.76-9.57-16.55-14.55-3.59-18.14-2.19A12.11,12.11,0,0,0,347.77,105.24Z" style="fill:#fff;stroke:#263238;stroke-linecap:round;stroke-linejoin:round"></path><path d="M379.2,121.72c-1.4-6.38-3.39-12.76-9.57-16.55-7.19-4.4-17.26-4.25-23.85,1.39-6.18,5.27-9,14.58-6.39,22.32L380.44,131l-.16-.47S380.59,128.1,379.2,121.72Z" style="fill:#263238;stroke:#263238;stroke-linecap:round;stroke-linejoin:round"></path><path d="M364.25,101.19A3.19,3.19,0,1,1,361.06,98,3.19,3.19,0,0,1,364.25,101.19Z" style="fill:#263238;stroke:#263238;stroke-linecap:round;stroke-linejoin:round"></path><path d="M353.28,138.86c.49,1.11.4,2.23-.2,2.49s-1.49-.41-2-1.51-.4-2.23.2-2.49S352.79,137.76,353.28,138.86Z" style="fill:#263238"></path><path d="M347.89,136.37s2.82-2.42,5.91-.54" style="fill:none;stroke:#263238;stroke-linecap:round;stroke-linejoin:round"></path><path d="M354.6,149.52a6.87,6.87,0,0,0,4.57-2.55" style="fill:none;stroke:#263238;stroke-linecap:round;stroke-linejoin:round"></path><path d="M367.51,130.51s1.34,3.63,2.55,3.09a3.11,3.11,0,0,0,1.47-2.15Z" style="fill:#263238;stroke:#263238;stroke-linecap:round;stroke-linejoin:round"></path><path d="M377.71,132.53a5.76,5.76,0,0,1-.27,2.81c-.54,1.88-1.75,2.15-1.75,2.15a3.71,3.71,0,0,1,.54,2.55" style="fill:none;stroke:#263238;stroke-linecap:round;stroke-linejoin:round"></path><path d="M352,142s2.12.5,3.24-.13" style="fill:none;stroke:#263238;stroke-linecap:round;stroke-linejoin:round"></path><path d="M321.65,241.31a6.26,6.26,0,0,0,1.62,2.58c1.29,1.3,4.74,3.67,5.17,2.48s-2.15-1.18-2.69-2.59S321.65,241.31,321.65,241.31Z" style="fill:#fff;stroke:#263238;stroke-linecap:round;stroke-linejoin:round"></path><path d="M321.92,235.73s-2.74,3.31-1.77,4.39,4.74,3,5.6,3.66,3.12,1.3,4,.44a1.62,1.62,0,0,0,.21-1.94,8.82,8.82,0,0,1-3.55-2.91c-1.41-2.05-3.34-4.53-3.34-4.53A.9.9,0,0,0,321.92,235.73Z" style="fill:#fff;stroke:#263238;stroke-linecap:round;stroke-linejoin:round"></path><path d="M329.31,223.77s-3.48,5.44-5.87,7.61-2.83,3.26-1.52,4.35,3.69,5.87,5.22,6.74,3.91-.65,3.91-.65.22-2.17-.87-2.83l-1.09-.65,1.58-2.63,8.86-1.5s-.56-5.16-2.74-8.2S331.27,222,329.31,223.77Z" style="fill:#fff;stroke:#263238;stroke-linecap:round;stroke-linejoin:round"></path><path d="M331.35,227.52s-.43,2-.75,3-2.79,3-3.65,4.83,1.06,1.31,2.35,1.42a4.42,4.42,0,0,0,3.13-1.18,20.21,20.21,0,0,0,1.51-1.94s.64,1.18,2.58-.33,1.73-2.8.65-4.52" style="fill:#fff;stroke:#263238;stroke-linecap:round;stroke-linejoin:round"></path></g><g id="hens-1"><path d="M450,406.85s-1.74,7.93-1.94,9.47.68,3.19.87,4.06a14,14,0,0,1-.77,5.51c-.68,1.94.58,2.32.87,1.16s1-5.6,1-5.6.58,1,.58,4.06-.68,3.77.19,3.77,1.26-1.84,1.16-3.39a40.09,40.09,0,0,0-1-4.93s2.32,4.45,2.52,5.71,1.35,1,.58-1.74a37.5,37.5,0,0,0-3-6.67c-.77-1.55.87-1.16,1.06-2.9s-.77-1-1.45-.58l-.67.38,3.48-9.66Z" style="fill:#263238"></path><path d="M424,340.05s5.68,0,8.09,4.15,3.6,11.59,5,17.06,4.81,6.12,4.81,6.12,7.1-.22,9.4-1.75,3.28-4.81,4.92-6.89,5.9-4.59,5.14-2.73a8.17,8.17,0,0,0-.77,2.52s2.73-5.91,3.28-3.07a18.13,18.13,0,0,1,.33,6.67c-.33,1.21,1.75-4.7,2.07-.87s-.43,7-1.2,8.2-.76,2.84-1.2,9a20.34,20.34,0,0,1-3.28,9.95s-.55,7.33-2.19,11.81a10.27,10.27,0,0,1-7.1,6.78l-2.08.43A24.15,24.15,0,0,1,442,408.6c-3.82,0-3.71-.66-3.71-.66s1.64,2.73-1.42,2.62-3.94-.87-4.27-1.85-4.59-3.94-8.74-8.2-9-4.27-12.14-12.69-.87-19.67,3.5-26.12,6.89-5.69,6.78-11.05-3-5-2.19-8.63S424,340.05,424,340.05Z" style="fill:#fff;stroke:#263238;stroke-miterlimit:10"></path><path d="M437.59,368.57a4.88,4.88,0,0,0,0-2.61l1.08-1.07a11,11,0,0,1-1.6-3.63c-1.43-5.47-2.63-12.9-5-17.06s-8.09-4.15-8.09-4.15-3.39-1.64-4.16,2,2.08,3.28,2.19,8.63-2.41,4.6-6.78,11.05a24,24,0,0,0-1.55,2.65l.18.48s-1.47,4.19,0,4.19,4.64-3.28,4.64-3.28-.34,3.05.67,3.28,2.72-3.17,2.72-3.17-.34,3.28,1.36,3.28,2-2,2-2,2.83,3.73,3.85,3.28,1.93-2.49,1.93-2.49,1.58,1.92,2.15,1.58.56-2.71.56-2.71S437.14,369.36,437.59,368.57Z" style="fill:#fff;stroke:#263238;stroke-miterlimit:10"></path><path d="M420.12,343.77s.87-2.41,2-2.85,3.06-1.2,2.07-2.95-1.42-2-2-.87-1.64-.44-2.19.22a2.89,2.89,0,0,0-.33,2.51c.22.77-1,.33-.87,1.86s-.55,2.73.11,2.73A1.88,1.88,0,0,0,420.12,343.77Z" style="fill:#92E3A9;stroke:#263238;stroke-linecap:round;stroke-linejoin:round"></path><path d="M418.92,344.42s-1.86.11-2.19,1.21l-.33,1.09a6,6,0,0,1,2.52-.44,41.51,41.51,0,0,1,4.15,1.64c1.42.66,3.61.33,3.94-1.09s-.22-1.86-2-1.86a17.79,17.79,0,0,1-3-.11C421.43,344.75,420,343.88,418.92,344.42Z" style="fill:#c4c4c4;stroke:#263238;stroke-linecap:round;stroke-linejoin:round;stroke-width:0.5px"></path><path d="M419.68,346.5s-1.75,2.41-.76,3.83,2.29,1.31,3.06.32a7.71,7.71,0,0,0,1.09-2.73Z" style="fill:#92E3A9;stroke:#263238;stroke-linecap:round;stroke-linejoin:round"></path><circle cx="424.11" cy="343.28" r="0.81" style="fill:#263238"></circle><path d="M416.4,346.72a3.8,3.8,0,0,1,3.52-.94c2.4.38,4.3,1,5.15,1" style="fill:none;stroke:#263238;stroke-linecap:round;stroke-linejoin:round;stroke-width:0.5px"></path><path d="M425.65,342.56a1,1,0,0,1,.16,1.28" style="fill:none;stroke:#263238;stroke-linecap:round;stroke-linejoin:round;stroke-width:0.5px"></path><path d="M432.76,376.59s-4.54,3.87-3.48,9.38,10.83,10.83,15.08,12.57,7.83,4.83,12,3.77,7.15-5.9,6.38-5.9h-1.84a4.08,4.08,0,0,0,2.8-3.77c0-2.9-3.28-3.29-3.28-3.29s1.93-3.67,1.35-4.06-5.22-3.19-5.22-3.19a1.69,1.69,0,0,0,1.55-1.93c-.1-1.84-3.87-5.9-11.22-7.06s-9.47,1-9.95,1.45" style="fill:#fff;stroke:#263238;stroke-miterlimit:10"></path><path d="M444.75,379.4s7.54.87,7.54,2.61-2,2.22-2,2.22,8.7,2.51,8.79,4.25a2.13,2.13,0,0,1-1.16,2.23s3.77,4.35,3,5.7-7.73-.1-8-.1,2.51,2.13,1.35,2.81-4.54-.58-4.54-.58" style="fill:none;stroke:#263238;stroke-linecap:round;stroke-linejoin:round"></path><path d="M416.13,376.59s-1.74,4.16-1.25,6.29,1.74.09,1.74.09-.68,5.8,1.16,7.35" style="fill:none;stroke:#263238;stroke-linecap:round;stroke-linejoin:round"></path><path d="M435.76,410.14s-.2,11.69-.87,13.14-4,3.19-6.29,4.06-4.15,0-3.67.87,1.93,1.26,3.87.58a48.69,48.69,0,0,0,4.64-2S428.8,430,429,431s1.74.29,2.71-.49a45.88,45.88,0,0,0,3.67-4.25s-1.45,4.83-.48,4.74,1.93-3.48,1.93-4.55-.19-2.51.29-2.51,2.22.68,2.61.1.1-1.36-.68-1.84A5.53,5.53,0,0,1,437.5,421c-.29-.38.67-11.6.67-11.6Z" style="fill:#263238"></path><path d="M71.61,380.42s4.46,8.49,5,8.66,7.26,1.4,6.91,2.19-2.19.17-3,.09-2.27-.44-2.27-.44,4.55,2.19,5.34,2.71,3.14,1.4,2.36,1.75-.26,1.92-4-.52a39.79,39.79,0,0,0-4.63-2.8,32,32,0,0,0,2.36,2.88c1,1,2.45,2.71,1.84,3.06s-2.89-1.31-3.76-2.44a24.84,24.84,0,0,0-2.8-3.59c-1-.79-1.93-.61-3.24-.7s-1.57-.44-.44-1a23.14,23.14,0,0,1,3.5-1.05l-6.12-6.82S71,379.72,71.61,380.42Z" style="fill:#263238"></path><path d="M62.88,386.57s.09,7.13.17,7.72a34.06,34.06,0,0,1-1.59,7c-.59,1.34,1.59,1.18,2.1-.17s-.17-4.86.58-5.28,2.35,2.1,5,3.86,3.44.92,3.35-.17-.25-1.26-2.51-2.26a19,19,0,0,1-4.37-2.94s5.29,1.43,6.88,1.26,1-1.43-.58-1.93-6.3-.34-7-.93-.25-6.46-.25-6.46Z" style="fill:#263238"></path><path d="M110.66,367.86c-7-13.29-24.25-21.94-27.34-23a45.91,45.91,0,0,1-7-4,40.52,40.52,0,0,0-6.29-4.3A21,21,0,0,1,68,331.92c-.33-1.64-.07-3.48-1.93-1.39a40.52,40.52,0,0,0-3.9,5.72s1.05-4.64-1.16-1.12a15.67,15.67,0,0,0-2.09,7.63,103.91,103.91,0,0,0-3.17,11.79c-1.43,7-3.73,9-.39,14.93a140.53,140.53,0,0,1,6.38,13.12c.14.33-1.5,2.45.15,3.9A5.18,5.18,0,0,0,64.81,388a9.83,9.83,0,0,0,4.74-.9C71.33,386,74.68,386,74.68,386a30,30,0,0,0,6.39,2.7,33,33,0,0,1,5-.38c3.21,0,14.06-5.18,16-8.63a9.09,9.09,0,0,0,.72-1.63C108.52,378,115.1,376.34,110.66,367.86Z" style="fill:#bdbdbd;stroke:#263238;stroke-linecap:round;stroke-linejoin:round"></path><path d="M118.05,377.61a51.55,51.55,0,0,0-5.84-9.44,104.54,104.54,0,0,0-8.34-10.2c-.31-.62-3.87-2.78-5.26-2.78s.08,2.13.08,2.13c-2.2-1.65-3.48-.94-2.86.63a7.88,7.88,0,0,0,2,2.74s-5-2.79-5.17-1.7,1.64,3.73,1.64,3.73-5.06-.91-5.06-.42,3.5,2.62,3.5,2.62-7.65,4.57-5.25,5.82a19.58,19.58,0,0,0,3.88,1.62s-4.73,1.16-3,1.73,3,1,3,1-3.06.15-2.06.93a29.72,29.72,0,0,0,3.59,2s-4.93,1.06-3.43,2a12.66,12.66,0,0,0,4.27,1.32s-3.84,1.44-2.16,1.52a23.6,23.6,0,0,1,3.27.25.65.65,0,0,1,.15.11l1.14-.13c9-1.22,10.61.65,11.6.56a2.46,2.46,0,0,1,1.77.73s2.5,4,2.77,5.49.46,2.29,0,3-.83,2.26,1.17,1.11a5.88,5.88,0,0,0,2.51-2.33s3.15-4.3,3-6.18A9.52,9.52,0,0,0,118.05,377.61Z" style="fill:#878787;stroke:#263238;stroke-linecap:round;stroke-linejoin:round"></path><path d="M109.47,384.47s-2.27.06-2.89,1.13a2,2,0,0,0,2,2.81c1.78-.06,2.87,0,2.87,0S110.65,384.79,109.47,384.47Z" style="fill:#92E3A9;stroke:#263238;stroke-linecap:round;stroke-linejoin:round"></path><path d="M115.67,386.56a.79.79,0,1,1,.8-.78A.78.78,0,0,1,115.67,386.56Z" style="fill:#263238"></path><path d="M113.36,394a5.88,5.88,0,0,0,2.51-2.33s.19-.25.46-.65c-.14-.56-.4-1-.92-1,0,0-1.39-.12-1.57-.72s-.44-2.88-1.24-2.79a1.6,1.6,0,0,0-1.28,1.2,9.48,9.48,0,0,1,.92,2.25c.27,1.49.46,2.29,0,3S111.36,395.19,113.36,394Z" style="fill:#c4c4c4;stroke:#263238;stroke-linecap:round;stroke-linejoin:round;stroke-width:0.5px"></path><path d="M119.53,386.63s-.69-.51.44-2.86,2.84-3.81,3.3-1.82-.45,3-.66,3.75,2,.23,1.76,1.32a3.28,3.28,0,0,1-2.42,2.13c-.79.08.18,1-.82,1.67s-1,.87-2.88.83-3,.15-2.66-.64,1.94-3.43,2.94-3.9Z" style="fill:#92E3A9;stroke:#263238;stroke-linecap:round;stroke-linejoin:round"></path><path d="M115.06,387.54a3.15,3.15,0,0,1-1-2.2" style="fill:none;stroke:#263238;stroke-linecap:round;stroke-linejoin:round;stroke-width:0.5px"></path><path d="M84.29,362.3s-3.26-6.9-6.86-10.59-7.62-5.52-9.25-7.19-3.78-6.66-4.4-4.82.65,6.37.65,6.37-2.2-2.77-2.66-.82.59,7.16.79,7.41S61,349,60.3,351.4s-3.12,2.92,1.55,11.11,5.66,12.06,13.55,16.09,13-3.58,11.75-7.88" style="fill:#878787;stroke:#263238;stroke-linecap:round;stroke-linejoin:round"></path><path d="M72.13,351.64s-3.53-5.78-4.18-3.36a21.43,21.43,0,0,0-.62,5.05s-1.49-3.12-2.17-2.27a11.64,11.64,0,0,0-1.31,2.69s-1.27-1.67-2.11-.57-.08,3.16-.08,3.16" style="fill:none;stroke:#263238;stroke-linecap:round;stroke-linejoin:round"></path><path d="M346.25,404.8s-4.46,8.48-5,8.66-7.26,1.4-6.91,2.19,2.19.17,3,.08,2.28-.43,2.28-.43-4.55,2.18-5.34,2.71-3.15,1.4-2.36,1.75.26,1.92,4-.53a38.89,38.89,0,0,1,4.64-2.8,31.55,31.55,0,0,1-2.36,2.89c-1,1-2.45,2.71-1.84,3.06s2.89-1.31,3.76-2.45a24.84,24.84,0,0,1,2.8-3.59c1-.78,1.92-.61,3.24-.69s1.57-.44.43-1a24.07,24.07,0,0,0-3.49-1.05l6.12-6.82S346.87,404.1,346.25,404.8Z" style="fill:#263238"></path><path d="M355,411s-.08,7.13-.16,7.71a34.14,34.14,0,0,0,1.59,7c.59,1.34-1.59,1.17-2.1-.17s.17-4.87-.58-5.29-2.35,2.1-5,3.86-3.44.93-3.35-.16.25-1.26,2.51-2.27a19,19,0,0,0,4.37-2.94s-5.29,1.43-6.88,1.26-1-1.42.58-1.93,6.3-.33,7.05-.92.25-6.46.25-6.46Z" style="fill:#263238"></path><path d="M307.2,392.23c7-13.28,24.26-21.93,27.35-23a45.66,45.66,0,0,0,7-4,39.66,39.66,0,0,1,6.29-4.3,21.74,21.74,0,0,0,2.07-4.58c.33-1.65.06-3.49,1.92-1.39a41,41,0,0,1,3.91,5.72s-1.06-4.64,1.16-1.13a15.7,15.7,0,0,1,2.09,7.64,105.86,105.86,0,0,1,3.17,11.78c1.43,7,3.73,9,.39,14.93A141.45,141.45,0,0,0,356.15,407c-.14.32,1.5,2.44-.15,3.89a5.1,5.1,0,0,1-2.94,1.47,9.77,9.77,0,0,1-4.74-.89c-1.78-1.08-5.13-1.11-5.13-1.11a30,30,0,0,1-6.39,2.7,33.11,33.11,0,0,0-5-.38c-3.2,0-14.05-5.18-16-8.63a8.87,8.87,0,0,1-.72-1.64C309.35,402.33,302.77,400.71,307.2,392.23Z" style="fill:#bdbdbd;stroke:#263238;stroke-linecap:round;stroke-linejoin:round"></path><path d="M299.81,402a51.76,51.76,0,0,1,5.85-9.45A101.65,101.65,0,0,1,314,382.35c.31-.62,3.86-2.79,5.25-2.79s-.07,2.13-.07,2.13c2.2-1.65,3.48-.94,2.86.64a7.88,7.88,0,0,1-2,2.74s5-2.8,5.17-1.71-1.64,3.74-1.64,3.74,5.06-.92,5.06-.42-3.51,2.62-3.51,2.62,7.65,4.56,5.26,5.81a19.33,19.33,0,0,1-3.88,1.63s4.73,1.16,3,1.73-3,1-3,1,3.06.14,2.06.92a28.82,28.82,0,0,1-3.59,2s4.93,1.06,3.43,2a13,13,0,0,1-4.27,1.32s3.84,1.44,2.15,1.51a28.08,28.08,0,0,0-3.27.25l-.14.12c-.38,0-.75-.08-1.14-.14-9-1.22-10.62.65-11.61.57a2.45,2.45,0,0,0-1.76.73s-2.5,4-2.77,5.49-.46,2.28.05,3,.83,2.26-1.17,1.11a6,6,0,0,1-2.51-2.33s-3.15-4.3-3-6.18A9.57,9.57,0,0,1,299.81,402Z" style="fill:#878787;stroke:#263238;stroke-linecap:round;stroke-linejoin:round"></path><path d="M308.4,408.85s2.27,0,2.89,1.13a2,2,0,0,1-2,2.81c-1.78-.07-2.87-.05-2.87-.05S307.21,409.16,308.4,408.85Z" style="fill:#92E3A9;stroke:#263238;stroke-linecap:round;stroke-linejoin:round"></path><path d="M302.2,410.94a.8.8,0,1,0-.81-.78A.8.8,0,0,0,302.2,410.94Z" style="fill:#263238"></path><path d="M304.51,418.42a6,6,0,0,1-2.51-2.33s-.19-.26-.46-.66c.14-.55.4-1,.92-1,0,0,1.38-.13,1.57-.73s.44-2.87,1.24-2.79a1.62,1.62,0,0,1,1.28,1.2,9.69,9.69,0,0,0-.92,2.26c-.27,1.49-.46,2.28.05,3S306.51,419.57,304.51,418.42Z" style="fill:#c4c4c4;stroke:#263238;stroke-linecap:round;stroke-linejoin:round;stroke-width:0.5px"></path><path d="M298.34,411s.69-.51-.45-2.86-2.84-3.81-3.29-1.82.44,3,.66,3.74-2,.24-1.76,1.32a3.24,3.24,0,0,0,2.41,2.13c.8.09-.18,1,.83,1.67s1,.87,2.88.84,3,.14,2.66-.64-1.94-3.43-2.94-3.91Z" style="fill:#92E3A9;stroke:#263238;stroke-linecap:round;stroke-linejoin:round"></path><path d="M302.81,411.92a3.15,3.15,0,0,0,1.05-2.2" style="fill:none;stroke:#263238;stroke-linecap:round;stroke-linejoin:round;stroke-width:0.5px"></path><path d="M333.58,386.68s3.26-6.9,6.86-10.6,7.62-5.52,9.24-7.19,3.78-6.65,4.41-4.81-.65,6.36-.65,6.36,2.2-2.76,2.66-.81-.6,7.16-.79,7.4,1.52-3.61,2.26-1.25,3.11,2.92-1.55,11.11-5.66,12.05-13.55,16.09-13.05-3.58-11.75-7.88" style="fill:#878787;stroke:#263238;stroke-linecap:round;stroke-linejoin:round"></path><path d="M345.74,376s3.53-5.78,4.18-3.37a21.19,21.19,0,0,1,.61,5.06s1.5-3.13,2.18-2.28a11.84,11.84,0,0,1,1.31,2.7s1.27-1.67,2.11-.57.08,3.15.08,3.15" style="fill:none;stroke:#263238;stroke-linecap:round;stroke-linejoin:round"></path><path d="M185,371.58s-4.6,10-5,10.67-8.53.67-7.41,1.24a9.05,9.05,0,0,0,3.59.33s-7.52,1.8-5.83,1.91,9.76-1.57,9.76-1.57-4.15,2.24-3,2a62.1,62.1,0,0,0,6.66-3c.6-.3,1.7-.55,1.15-.95s-2.61-.2-2.61-.2l4.36-9.63Z" style="fill:#263238"></path><path d="M189,372.26s-3.6,12.57-3.71,13.36,2,.56,2.81,1.46-2.58,0-3,.34,0,.56-1.46,2.47-2.58,1.9-1.91.44,1.12-2.58,1.12-2.58-2.24.56-4.71,1.24-7,.56-4.38,0,7-2,7-2-6.51.67-5.84-.12,6.51-1.23,7.52-1.57l1-.33,3.6-13.14Z" style="fill:#263238"></path><path d="M176.92,329.87s4,1.58,7.14,2.43,14.67,1.85,16.8,1.71,5.42-10.11,10.83-15.1,8-4.13,6.69-1.14-2.28,5-2.28,5,6.13-3.13,6.55-.57-3,6.69-3,6.69,4.28-.71,2.28,7-4.27,9.69-4.7,10.68a12.11,12.11,0,0,1-3.7,4.7,11.05,11.05,0,0,0-2.56,2.28s1,5.84-5.27,10.11a28.25,28.25,0,0,1-13.25,4.56S191,372,189.33,373a4.1,4.1,0,0,1-4.42,0c-1.14-.71-3.27-4.41-4.27-5.27s-4.41-3-9-6.83-9.66-5.5-11.39-9.83a42,42,0,0,1-2.28-9.83L174.23,328Z" style="fill:#fff;stroke:#263238;stroke-miterlimit:10"></path><path d="M190.18,340.85s6.27,2.27,9.26,5.41,11,8,9,10-8.54-2.14-8.54-2.14,2.56,3.42-1,2.56a21.48,21.48,0,0,1-5.84-2.27s3.56.71-2.42,2.84-14.38-2.28-14.38-2.28-6.55,4.42-9.4-3.7,1.42-12.39,6.12-12.82" style="fill:#fff;stroke:#263238;stroke-miterlimit:10"></path><path d="M215,323.61s-3.13,5.41-3.84,9" style="fill:none;stroke:#263238;stroke-linecap:round;stroke-linejoin:round"></path><path d="M218.81,330s-1.42,1.85-1.71,2.28" style="fill:none;stroke:#263238;stroke-linecap:round;stroke-linejoin:round"></path><path d="M153.21,312a7,7,0,0,1,2.54-2.38l2.38-1s.91-2.79.25-2.46a9,9,0,0,0-1.72,1.48s.24-2.55-1.07-1.4-1.72.74-1.81,1.73-.82-1-1.64.9-.24,2.38-.24,2.38-1.48.41-.74.82A3.07,3.07,0,0,0,153.21,312Z" style="fill:#92E3A9;stroke:#263238;stroke-linecap:round;stroke-linejoin:round"></path><path d="M154.77,315.42s2.95.58,3.12,1.48-.82,1.81-1.64,1.4S154.77,315.42,154.77,315.42Z" style="fill:#92E3A9;stroke:#263238;stroke-linecap:round;stroke-linejoin:round"></path><path d="M153.21,312a14.76,14.76,0,0,0-2.71,1.88,4.46,4.46,0,0,0-1,2.55s2-1.48,3.28-1.48a3.81,3.81,0,0,1,2,.49s2.87.91,3.12,2.38-.66,6.65-1.15,8.46-.82,13.62.08,16.32,1.4,4.19,1.72,4.19.17-3.12.33-2.87-.08.16.9.57,1.07-2.62,1.56-2.62a8.62,8.62,0,0,0,1.56,0c1.32-.09,1.56-2.47,1.48-2.88s7.14-.32,7.06-1.47a14,14,0,0,0-1.07-3.29s2.22.83,2.79.09a1.45,1.45,0,0,0,.08-1.56s1.89.57,2.05.08a11.63,11.63,0,0,0,0-2.46s2.3,1.15,2.63.82-1-1.31-1-1.31l2,.16s-4.76-3.2-5.9-7.88a21.05,21.05,0,0,0-7.64-11.49c-3.28-2.29-6.31-2.46-8.61-1.64A7.38,7.38,0,0,0,153.21,312Z" style="fill:#fff;stroke:#263238;stroke-miterlimit:10"></path><circle cx="157.15" cy="312.31" r="0.82" style="fill:#263238"></circle><path d="M149.52,316.41a4.46,4.46,0,0,1,1-2.55,14,14,0,0,1,2.55-1.79l.32.56a1.08,1.08,0,0,0,.74,1c.74.24,2.79.08,2.87,1s-1.23.91-1.23.91l-1-.09a3.81,3.81,0,0,0-2-.49C151.57,314.93,149.52,316.41,149.52,316.41Z" style="fill:#c4c4c4;stroke:#263238;stroke-linecap:round;stroke-linejoin:round"></path><path d="M238.27,403.8s1.75,7.95,1.94,9.5-.67,3.2-.87,4.08a14.33,14.33,0,0,0,.78,5.52c.68,1.94-.58,2.33-.88,1.17s-1-5.63-1-5.63-.58,1-.58,4.08.68,3.78-.19,3.78-1.26-1.84-1.16-3.4a38.1,38.1,0,0,1,1-4.94s-2.33,4.46-2.53,5.72-1.35,1-.58-1.75a37.34,37.34,0,0,1,3-6.69c.77-1.55-.87-1.16-1.07-2.91s.78-1,1.46-.58l.67.39-3.49-9.7Z" style="fill:#263238"></path><path d="M264.38,336.78s-5.7,0-8.12,4.17-3.62,11.63-5,17.11-4.83,6.14-4.83,6.14-7.13-.22-9.43-1.75-3.29-4.83-4.93-6.91-5.93-4.61-5.16-2.75a8.25,8.25,0,0,1,.77,2.53s-2.74-5.93-3.29-3.07a18.23,18.23,0,0,0-.33,6.69c.33,1.2-1.76-4.72-2.09-.88s.44,7,1.21,8.23.77,2.85,1.21,9a20.43,20.43,0,0,0,3.29,10s.55,7.35,2.19,11.84a10.31,10.31,0,0,0,7.13,6.81l2.08.43a24.29,24.29,0,0,0,7.24,1.21c3.84,0,3.73-.66,3.73-.66s-1.64,2.74,1.43,2.63,3.95-.87,4.28-1.86,4.6-4,8.77-8.23,9-4.27,12.17-12.72.88-19.74-3.51-26.21-6.91-5.71-6.8-11.08,3-5,2.2-8.66S264.38,336.78,264.38,336.78Z" style="fill:#bdbdbd;stroke:#263238;stroke-linecap:round;stroke-linejoin:round"></path><path d="M250.69,365.39a4.88,4.88,0,0,1,0-2.61l-1.08-1.08a11,11,0,0,0,1.61-3.64c1.42-5.48,2.63-12.94,5-17.11s8.12-4.17,8.12-4.17,3.4-1.64,4.17,2-2.09,3.29-2.2,8.66,2.42,4.61,6.8,11.08a22.69,22.69,0,0,1,1.56,2.66l-.18.49s1.48,4.2,0,4.2-4.65-3.3-4.65-3.3.34,3.07-.68,3.3-2.73-3.18-2.73-3.18.34,3.29-1.36,3.29-2-2-2-2-2.84,3.74-3.86,3.29-1.93-2.5-1.93-2.5-1.59,1.93-2.16,1.59-.57-2.72-.57-2.72S251.15,366.19,250.69,365.39Z" style="fill:#878787;stroke:#263238;stroke-linecap:round;stroke-linejoin:round"></path><path d="M268.22,340.51s-.88-2.41-2-2.85-3.07-1.21-2.08-3,1.43-2,2-.88,1.64-.44,2.19.22a2.91,2.91,0,0,1,.33,2.52c-.22.77,1,.33.88,1.87s.54,2.74-.11,2.74A1.88,1.88,0,0,1,268.22,340.51Z" style="fill:#92E3A9;stroke:#263238;stroke-linecap:round;stroke-linejoin:round"></path><path d="M269.43,341.17s1.86.11,2.19,1.21l.33,1.09a6.08,6.08,0,0,0-2.52-.44,38.82,38.82,0,0,0-4.17,1.65c-1.43.66-3.62.33-3.95-1.1s.22-1.86,2-1.86a17.87,17.87,0,0,0,3-.11C266.9,341.5,268.33,340.62,269.43,341.17Z" style="fill:#c4c4c4;stroke:#263238;stroke-linecap:round;stroke-linejoin:round;stroke-width:0.5px"></path><path d="M268.66,343.25s1.75,2.42.77,3.84-2.31,1.32-3.08.33a7.8,7.8,0,0,1-1.09-2.74Z" style="fill:#92E3A9;stroke:#263238;stroke-linecap:round;stroke-linejoin:round"></path><path d="M263.41,340a.81.81,0,1,0,1.61,0,.81.81,0,1,0-1.61,0Z" style="fill:#263238"></path><path d="M272,343.47a3.82,3.82,0,0,0-3.53-.94c-2.41.39-4.31,1-5.17,1.05" style="fill:none;stroke:#263238;stroke-linecap:round;stroke-linejoin:round;stroke-width:0.5px"></path><path d="M262.67,339.3a1,1,0,0,0-.16,1.29" style="fill:none;stroke:#263238;stroke-linecap:round;stroke-linejoin:round;stroke-width:0.5px"></path><path d="M255.54,373.44s4.56,3.88,3.49,9.41-10.86,10.86-15.13,12.61-7.86,4.85-12,3.78-7.17-5.92-6.4-5.92h1.85a4.1,4.1,0,0,1-2.82-3.78c0-2.91,3.3-3.3,3.3-3.3s-1.94-3.68-1.36-4.07,5.24-3.2,5.24-3.2a1.7,1.7,0,0,1-1.55-1.94c.1-1.84,3.88-5.92,11.25-7.08s9.5,1,10,1.46" style="fill:#bdbdbd;stroke:#263238;stroke-linecap:round;stroke-linejoin:round"></path><path d="M243.51,376.25s-7.56.88-7.56,2.62,2,2.23,2,2.23-8.72,2.53-8.82,4.27a2.12,2.12,0,0,0,1.16,2.23s-3.78,4.37-3,5.72,7.75-.09,8.05-.09-2.53,2.13-1.36,2.81,4.56-.58,4.56-.58" style="fill:none;stroke:#263238;stroke-linecap:round;stroke-linejoin:round"></path><path d="M272.22,373.44s1.74,4.17,1.26,6.31-1.75.09-1.75.09.68,5.82-1.16,7.37" style="fill:none;stroke:#263238;stroke-linecap:round;stroke-linejoin:round"></path><path d="M252.53,407.1s.2,11.73.87,13.19,4,3.2,6.31,4.07,4.17,0,3.68.87-1.94,1.26-3.88.58-4.65-2-4.65-2,4.65,3.2,4.46,4.26-1.75.29-2.72-.48a45.76,45.76,0,0,1-3.68-4.27s1.45,4.85.48,4.75-1.94-3.49-1.94-4.55.2-2.53-.29-2.53-2.23.68-2.61.1-.1-1.36.67-1.84a5.87,5.87,0,0,0,1.56-1.26c.29-.39-.68-11.64-.68-11.64Z" style="fill:#263238"></path><path d="M39.52,412.29s1.74,7.93,1.94,9.48-.68,3.19-.87,4.06a14,14,0,0,0,.77,5.51c.68,1.93-.58,2.32-.87,1.16s-1-5.61-1-5.61-.58,1-.58,4.06.68,3.77-.19,3.77-1.26-1.84-1.16-3.38a39.67,39.67,0,0,1,1-4.93s-2.32,4.44-2.52,5.7-1.35,1-.58-1.74a37.84,37.84,0,0,1,3-6.67c.77-1.55-.87-1.16-1.06-2.9s.77-1,1.45-.58l.67.39L36,410.94Z" style="fill:#263238"></path><path d="M65.54,345.49s-5.68,0-8.09,4.16-3.6,11.59-5,17.05-4.81,6.12-4.81,6.12-7.1-.21-9.4-1.74-3.28-4.81-4.92-6.89-5.9-4.59-5.14-2.74a8.17,8.17,0,0,1,.77,2.52s-2.73-5.9-3.28-3.06a18.12,18.12,0,0,0-.33,6.67c.33,1.2-1.75-4.7-2.08-.88s.44,7,1.21,8.2.76,2.84,1.2,9a20.33,20.33,0,0,0,3.28,9.94s.55,7.33,2.19,11.81a10.27,10.27,0,0,0,7.1,6.78l2.08.44A24.31,24.31,0,0,0,47.5,414c3.83,0,3.72-.66,3.72-.66s-1.64,2.74,1.42,2.63,3.94-.88,4.27-1.86,4.59-3.94,8.74-8.2,9-4.26,12.14-12.68.87-19.68-3.5-26.13-6.89-5.69-6.78-11,2.95-5,2.19-8.64S65.54,345.49,65.54,345.49Z" style="fill:#fff;stroke:#263238;stroke-miterlimit:10"></path><path d="M51.9,374a4.84,4.84,0,0,1,0-2.6l-1.08-1.08a11,11,0,0,0,1.6-3.63c1.43-5.46,2.63-12.9,5-17.05s8.09-4.16,8.09-4.16,3.39-1.64,4.16,2-2.08,3.28-2.19,8.64,2.41,4.59,6.78,11a24,24,0,0,1,1.55,2.65l-.18.49s1.47,4.18,0,4.18S71,371.18,71,371.18s.34,3.06-.67,3.28-2.72-3.16-2.72-3.16.34,3.28-1.36,3.28-2-2-2-2-2.82,3.73-3.84,3.28-1.93-2.49-1.93-2.49-1.58,1.93-2.15,1.59-.56-2.72-.56-2.72S52.35,374.8,51.9,374Z" style="fill:#fff;stroke:#263238;stroke-miterlimit:10"></path><path d="M69.37,349.21s-.87-2.4-2-2.84-3.06-1.2-2.08-2.95,1.43-2,2-.88,1.64-.44,2.19.22a2.9,2.9,0,0,1,.33,2.51c-.22.77,1,.33.87,1.86s.55,2.74-.11,2.74A1.87,1.87,0,0,1,69.37,349.21Z" style="fill:#92E3A9;stroke:#263238;stroke-linecap:round;stroke-linejoin:round"></path><path d="M70.57,349.87s1.86.11,2.19,1.2l.33,1.09a6.21,6.21,0,0,0-2.52-.44,41.51,41.51,0,0,0-4.15,1.64c-1.42.66-3.61.33-3.94-1.09s.22-1.86,2-1.86a17.79,17.79,0,0,0,3-.11C68.06,350.19,69.48,349.32,70.57,349.87Z" style="fill:#c4c4c4;stroke:#263238;stroke-linecap:round;stroke-linejoin:round;stroke-width:0.5px"></path><path d="M69.81,351.94s1.75,2.41.76,3.83-2.29,1.31-3.06.33a7.8,7.8,0,0,1-1.09-2.74Z" style="fill:#92E3A9;stroke:#263238;stroke-linecap:round;stroke-linejoin:round"></path><circle cx="65.38" cy="348.72" r="0.81" style="fill:#263238"></circle><path d="M73.09,352.16a3.8,3.8,0,0,0-3.52-.94c-2.4.39-4.3,1-5.15,1" style="fill:none;stroke:#263238;stroke-linecap:round;stroke-linejoin:round;stroke-width:0.5px"></path><path d="M63.84,348a1,1,0,0,0-.16,1.27" style="fill:none;stroke:#263238;stroke-linecap:round;stroke-linejoin:round;stroke-width:0.5px"></path><path d="M56.73,382s4.54,3.86,3.48,9.37S49.38,402.24,45.13,404s-7.83,4.83-12,3.77-7.15-5.9-6.38-5.9H28.6a4.09,4.09,0,0,1-2.81-3.77c0-2.9,3.29-3.28,3.29-3.28s-1.93-3.68-1.35-4.06S33,387.55,33,387.55a1.7,1.7,0,0,1-1.55-1.94c.1-1.83,3.87-5.89,11.22-7.05s9.47,1,10,1.45" style="fill:#fff;stroke:#263238;stroke-miterlimit:10"></path><path d="M44.74,384.84s-7.54.87-7.54,2.61,2,2.22,2,2.22-8.7,2.52-8.79,4.26a2.11,2.11,0,0,0,1.16,2.22s-3.78,4.35-3,5.7,7.73-.09,8-.09-2.51,2.12-1.35,2.8,4.54-.58,4.54-.58" style="fill:none;stroke:#263238;stroke-linecap:round;stroke-linejoin:round"></path><path d="M73.36,382s1.74,4.15,1.25,6.28-1.74.1-1.74.1.68,5.8-1.16,7.34" style="fill:none;stroke:#263238;stroke-linecap:round;stroke-linejoin:round"></path><path d="M53.73,415.58s.2,11.7.87,13.15,4,3.19,6.29,4.06,4.15,0,3.67.87-1.93,1.25-3.87.58-4.64-2-4.64-2,4.64,3.19,4.45,4.25-1.74.29-2.71-.48a47.06,47.06,0,0,1-3.67-4.26s1.45,4.84.48,4.74-1.93-3.48-1.93-4.54.19-2.52-.29-2.52-2.22.68-2.61.1-.1-1.35.68-1.84A5.72,5.72,0,0,0,52,426.41c.29-.39-.67-11.6-.67-11.6Z" style="fill:#263238"></path></g></svg>
