<svg xmlns="http://www.w3.org/2000/svg" xmlns:xlink="http://www.w3.org/1999/xlink" viewBox="0 0 500 500"><defs><clippath id="clip-path"><ellipse cx="258.7" cy="160.85" rx="46.09" ry="73.9" transform="translate(-9.53 305.24) rotate(-60.17)" style="fill:#92E3A9;stroke:#263238;stroke-linecap:round;stroke-linejoin:round"></ellipse></clippath><clippath id="clip-path-2"><path d="M246.7,231.56s1.39,12.27,0,17-6.33,5.74-13.85,4.55-15.24-8.51-26.52-2-11.28,40.77-14.64,51.06-17.62,52.84-17.62,52.84H293.6s19.6-31.27,26.52-48.88,11.48-34.64,4-43.34-21.37-6.14-32.26-8.71-11.28-5-13.45-18.41-2-29.68-2-29.68-16.23,16.23-22,19.59S246.7,231.56,246.7,231.56Z" style="fill:#fff;stroke:#263238;stroke-linecap:round;stroke-linejoin:round"></path></clippath><clippath id="clip-path-3"><path d="M240,143.89s-22.56,9.89-24.93,19.79-.79,33.84,2.77,43.93,14.64,31.27,22.36,30.68,20.39-11.28,27.71-17.22,11.28-18.21,11.28-18.21-5.94-8.51-11.68-23.74-6.92-24.94-16.23-30.09S240,143.89,240,143.89Z" style="fill:#fff;stroke:#263238;stroke-linecap:round;stroke-linejoin:round"></path></clippath><clippath id="clip-path-4"><path d="M308.14,293.38c1.78-1.65,5.3-3.94,7.23-3.64,2.58.4,6.76,5.16,11.31,18,4.21,11.89,13.27,22.62,13.81,23.58,4.3-1.12,32.86-5.54,46.65,3.39-5.11-23.87-26.9-38.43-33.42-60.91-5.18-17.83-20.54-25-32-24.25-8.19.56-22.63,3.85-30.23,5.68" style="fill:#fff;stroke:#263238;stroke-linecap:round;stroke-linejoin:round"></path></clippath><clippath id="clip-path-5"><path d="M368.67,319.84c-14.95,3.45-19.82,5.39-23.11,6.25l.07.13s-25.55,7.9-39.66,8.58c-10.07.48-31.17,2.24-37.89,1.45s-13.66-5.94-16.43-9.3-14.05-11.68-17.41-13.66a22.09,22.09,0,0,1-7.33-6.53c-1.18-2-3.56-3.56-4.94-1s.59,6.14,2.57,8.51S235,325,235,325s-1.39,1-9.5,3-26.13,1.78-29.29,1.78-6.14,1.38-6.14,2.57,4.36,1.58,12.47,3,19,4.55,19,4.55S215,344.36,210.29,345s-21,3.37-23.15,3.57-3.37,1.18-2.58,2.57,8.12,1.58,16.63,1,15.63-1.78,15.63-1.78l-7.12,4.75c-4.75,3.16-19,7.12-19.79,8.7s3.36,1.79,3.36,1.79-3.76,1.78,2.57,1.18,23.75-3,33.45-6.13,13.45-4.95,22.76-5.94,27.39,8.55,63.8,10.13,57.81-1.81,64.34-3,12.54-3.51,12.15-6.08c-.24-1.54-2.41-11.93-6-24.28" style="fill:#fff;stroke:#263238;stroke-linecap:round;stroke-linejoin:round"></path></clippath></defs><g id="background-simple"><path d="M438.91,135.61s-27-59.72-86.64-68.56S251,101.33,207.11,123.45c-23,11.58-49.23,7.08-73.63,12.69-78,17.92-107.4,130.24-74.91,194.11,28.14,55.29,77.65,84.05,153,90.68s128.28,14.38,195.8-39.81S470.42,214.13,438.91,135.61Z" style="fill:#92E3A9"></path><path d="M438.91,135.61s-27-59.72-86.64-68.56S251,101.33,207.11,123.45c-23,11.58-49.23,7.08-73.63,12.69-78,17.92-107.4,130.24-74.91,194.11,28.14,55.29,77.65,84.05,153,90.68s128.28,14.38,195.8-39.81S470.42,214.13,438.91,135.61Z" style="fill:#fff;opacity:0.75"></path></g><g id="Landscape"><path d="M459.17,278.71H45.73c.94,18.63,5.16,36.44,12.84,51.54a168.47,168.47,0,0,0,15.9,25.46H431.26C446.84,333.73,455.65,307.05,459.17,278.71Z" style="fill:#92E3A9"></path><path d="M459.17,278.71H45.73c.94,18.63,5.16,36.44,12.84,51.54a168.47,168.47,0,0,0,15.9,25.46H431.26C446.84,333.73,455.65,307.05,459.17,278.71Z" style="fill:#fff;opacity:0.5"></path><line x1="45" y1="268.71" x2="459.67" y2="268.71" style="fill:none;stroke:#263238;stroke-miterlimit:10"></line><line x1="65.83" y1="295.75" x2="125.55" y2="295.75" style="fill:none;stroke:#263238;stroke-linecap:round;stroke-linejoin:round"></line><line x1="384.16" y1="295.75" x2="412.95" y2="295.75" style="fill:none;stroke:#263238;stroke-linecap:round;stroke-linejoin:round"></line><line x1="420.42" y1="316.55" x2="449.21" y2="316.55" style="fill:none;stroke:#263238;stroke-linecap:round;stroke-linejoin:round"></line><line x1="402.82" y1="336.81" x2="431.61" y2="336.81" style="fill:none;stroke:#263238;stroke-linecap:round;stroke-linejoin:round"></line><line x1="86.62" y1="303.22" x2="97.82" y2="303.22" style="fill:none;stroke:#263238;stroke-linecap:round;stroke-linejoin:round"></line><line x1="101.55" y1="303.22" x2="151.14" y2="303.22" style="fill:none;stroke:#263238;stroke-linecap:round;stroke-linejoin:round"></line><line x1="376.16" y1="303.22" x2="387.36" y2="303.22" style="fill:none;stroke:#263238;stroke-linecap:round;stroke-linejoin:round"></line><line x1="391.09" y1="303.22" x2="440.68" y2="303.22" style="fill:none;stroke:#263238;stroke-linecap:round;stroke-linejoin:round"></line><line x1="77.02" y1="343.21" x2="126.61" y2="343.21" style="fill:none;stroke:#263238;stroke-linecap:round;stroke-linejoin:round"></line><line x1="114.35" y1="338.94" x2="122.35" y2="338.94" style="fill:none;stroke:#263238;stroke-linecap:round;stroke-linejoin:round"></line><line x1="396.95" y1="333.08" x2="404.95" y2="333.08" style="fill:none;stroke:#263238;stroke-linecap:round;stroke-linejoin:round"></line><line x1="134.05" y1="320.81" x2="149.3" y2="320.81" style="fill:none;stroke:#263238;stroke-linecap:round;stroke-linejoin:round"></line><line x1="65.8" y1="320.81" x2="81.05" y2="320.81" style="fill:none;stroke:#263238;stroke-linecap:round;stroke-linejoin:round"></line><line x1="437.99" y1="286.69" x2="453.23" y2="286.69" style="fill:none;stroke:#263238;stroke-linecap:round;stroke-linejoin:round"></line><line x1="315.91" y1="324.55" x2="365.49" y2="324.55" style="fill:none;stroke:#263238;stroke-linecap:round;stroke-linejoin:round"></line><line x1="442.56" y1="278.62" x2="453.72" y2="278.62" style="fill:none;stroke:#263238;stroke-linecap:round;stroke-linejoin:round"></line><line x1="85.03" y1="278.62" x2="433.5" y2="278.62" style="fill:none;stroke:#263238;stroke-linecap:round;stroke-linejoin:round"></line><line x1="51.27" y1="278.62" x2="77.98" y2="278.62" style="fill:none;stroke:#263238;stroke-linecap:round;stroke-linejoin:round"></line><rect x="101.58" y="224.45" width="0.96" height="44.62" style="fill:#263238"></rect><polygon points="102.28 217.36 66.83 235.28 137.72 235.28 102.28 217.36" style="fill:#263238"></polygon><polyline points="108.94 268.31 110.7 263.73 132.53 263.73 133.59 268.49" style="fill:none;stroke:#263238;stroke-linecap:round;stroke-linejoin:round"></polyline><line x1="132.53" y1="263.73" x2="147.67" y2="251.94" style="fill:none;stroke:#263238;stroke-linecap:round;stroke-linejoin:round"></line><line x1="142.04" y1="256.34" x2="145.91" y2="268.49" style="fill:none;stroke:#263238;stroke-linecap:round;stroke-linejoin:round"></line><polyline points="82 268.31 83.76 263.73 105.59 263.73 106.65 268.49" style="fill:none;stroke:#263238;stroke-linecap:round;stroke-linejoin:round"></polyline><line x1="105.59" y1="263.73" x2="120.73" y2="251.94" style="fill:none;stroke:#263238;stroke-linecap:round;stroke-linejoin:round"></line><line x1="115.1" y1="256.34" x2="118.97" y2="268.49" style="fill:none;stroke:#263238;stroke-linecap:round;stroke-linejoin:round"></line><rect x="393.34" y="224.45" width="0.96" height="44.62" style="fill:#263238"></rect><polygon points="394.03 217.36 358.58 235.28 429.47 235.28 394.03 217.36" style="fill:#263238"></polygon><polyline points="400.69 268.31 402.45 263.73 424.28 263.73 425.34 268.49" style="fill:none;stroke:#263238;stroke-linecap:round;stroke-linejoin:round"></polyline><line x1="424.28" y1="263.73" x2="439.42" y2="251.94" style="fill:none;stroke:#263238;stroke-linecap:round;stroke-linejoin:round"></line><line x1="433.79" y1="256.34" x2="437.66" y2="268.49" style="fill:none;stroke:#263238;stroke-linecap:round;stroke-linejoin:round"></line><polyline points="373.75 268.31 375.51 263.73 397.34 263.73 398.4 268.49" style="fill:none;stroke:#263238;stroke-linecap:round;stroke-linejoin:round"></polyline><line x1="397.34" y1="263.73" x2="412.48" y2="251.94" style="fill:none;stroke:#263238;stroke-linecap:round;stroke-linejoin:round"></line><line x1="406.85" y1="256.34" x2="410.72" y2="268.49" style="fill:none;stroke:#263238;stroke-linecap:round;stroke-linejoin:round"></line></g><g id="Clouds"><path d="M351.7,165.94a9.39,9.39,0,0,0-18.24,0Z" style="fill:#92E3A9"></path><path d="M443.82,165.94a11.64,11.64,0,0,0-10-8.87,27.29,27.29,0,1,0-53.69-9.8,17.42,17.42,0,0,0-27.45,18.67Z" style="fill:#92E3A9"></path><path d="M112.21,194.33a4.4,4.4,0,0,0-8.55,0Z" style="fill:#92E3A9"></path><path d="M155.43,194.33a5.47,5.47,0,0,0-4.69-4.16,12.8,12.8,0,1,0-25.18-4.6A8.19,8.19,0,0,0,112.34,192a8,8,0,0,0,.34,2.31Z" style="fill:#92E3A9"></path><path d="M151.08,207.86a2.78,2.78,0,0,0-5.4,0Z" style="fill:#92E3A9"></path><path d="M178.35,207.86a3.44,3.44,0,0,0-3-2.62,8.08,8.08,0,1,0-15.89-2.9,5.16,5.16,0,0,0-8.34,4.07,5,5,0,0,0,.21,1.45Z" style="fill:#92E3A9"></path></g><g id="Character"><line x1="64.81" y1="355.48" x2="447.67" y2="355.48" style="fill:none;stroke:#263238;stroke-linecap:round;stroke-linejoin:round"></line><line x1="126.33" y1="356.04" x2="126.33" y2="385.38" style="fill:none;stroke:#263238;stroke-linecap:round;stroke-linejoin:round"></line><line x1="137" y1="356.04" x2="137" y2="367.38" style="fill:none;stroke:#263238;stroke-linecap:round;stroke-linejoin:round"></line><line x1="366.33" y1="356.04" x2="366.33" y2="396.04" style="fill:none;stroke:#263238;stroke-linecap:round;stroke-linejoin:round"></line><line x1="375" y1="356.04" x2="375" y2="385.38" style="fill:none;stroke:#263238;stroke-linecap:round;stroke-linejoin:round"></line><line x1="353" y1="356.04" x2="353" y2="385.38" style="fill:none;stroke:#263238;stroke-linecap:round;stroke-linejoin:round"></line><line x1="210.33" y1="356.04" x2="210.33" y2="376.04" style="fill:none;stroke:#263238;stroke-linecap:round;stroke-linejoin:round"></line><line x1="247" y1="356.04" x2="247" y2="409.38" style="fill:none;stroke:#263238;stroke-linecap:round;stroke-linejoin:round"></line><line x1="262.33" y1="356.04" x2="262.33" y2="409.38" style="fill:none;stroke:#263238;stroke-linecap:round;stroke-linejoin:round"></line><line x1="270.33" y1="356.04" x2="270.33" y2="392.71" style="fill:none;stroke:#263238;stroke-linecap:round;stroke-linejoin:round"></line><line x1="317.67" y1="356.04" x2="317.67" y2="410.71" style="fill:none;stroke:#263238;stroke-linecap:round;stroke-linejoin:round"></line><path d="M242.14,107.82s3.46-10.62,17.05-10.13,40.28,20.27,47.45,28.67,4.44,22.24,4.44,22.24S278.22,111.78,242.14,107.82Z" style="fill:#92E3A9;stroke:#263238;stroke-linecap:round;stroke-linejoin:round"></path><ellipse cx="260.82" cy="159.34" rx="46.09" ry="73.9" transform="translate(-7.15 306.32) rotate(-60.17)" style="fill:#92E3A9;stroke:#263238;stroke-linecap:round;stroke-linejoin:round"></ellipse><ellipse cx="258.7" cy="160.85" rx="46.09" ry="73.9" transform="translate(-9.53 305.24) rotate(-60.17)" style="fill:#92E3A9"></ellipse><g style="clip-path:url(#clip-path)"><path d="M250,129.39l-53.82,31.87c7.22,14.52,21.07,29,39.56,39.57,35.41,20.31,74.37,18.87,87-3.21a29.92,29.92,0,0,0,3.26-8.57C289.53,130.28,250,129.39,250,129.39Z" style="opacity:0.15"></path></g><ellipse cx="258.7" cy="160.85" rx="46.09" ry="73.9" transform="translate(-9.53 305.24) rotate(-60.17)" style="fill:none;stroke:#263238;stroke-linecap:round;stroke-linejoin:round"></ellipse><path d="M261.35,129.84a77.64,77.64,0,0,0-34.64-2c-18.6,3.36-35.42,18.8-37.79,30.67S218,179.12,220,179.71s25.72,24.14,23.35,36.61-16.23,27.31-19,37.6,43.74,24,64.32,21.57,37-23.94,31.86-51.85-18-56.2-32.46-73.81S261.35,129.84,261.35,129.84Z" style="fill:#263238;stroke:#263238;stroke-linecap:round;stroke-linejoin:round"></path><path d="M302.92,239.07a28.58,28.58,0,0,1,.52,3.94" style="fill:none;stroke:#fff;stroke-linecap:round;stroke-linejoin:round"></path><path d="M281.27,204.47s14,13.63,19.73,28.29" style="fill:none;stroke:#fff;stroke-linecap:round;stroke-linejoin:round"></path><path d="M229.24,147.14s-37.57,12.53-34.68,14.94,19.27,1.92,17.34,0-5.78-1.93-5.78-1.93" style="fill:none;stroke:#fff;stroke-linecap:round;stroke-linejoin:round"></path><path d="M306.92,247.39a7.91,7.91,0,0,1-1.16,1.88" style="fill:none;stroke:#fff;stroke-linecap:round;stroke-linejoin:round"></path><path d="M286.09,181.21c3.61,7.94,9.46,19.8,16.25,29.77a40.62,40.62,0,0,1,6.46,30.27" style="fill:none;stroke:#fff;stroke-linecap:round;stroke-linejoin:round"></path><path d="M282.25,172.31s.58,1.47,1.65,3.95" style="fill:none;stroke:#fff;stroke-linecap:round;stroke-linejoin:round"></path><path d="M241.68,141.6s6.82-9.1,18.58-9.86" style="fill:none;stroke:#fff;stroke-linecap:round;stroke-linejoin:round"></path><path d="M195.39,152.19a16.44,16.44,0,0,0-1.86,2.3" style="fill:none;stroke:#fff;stroke-linecap:round;stroke-linejoin:round"></path><path d="M237.89,144.63a118.82,118.82,0,0,1-17.44-.76,33.65,33.65,0,0,0-21,5" style="fill:none;stroke:#fff;stroke-linecap:round;stroke-linejoin:round"></path><path d="M246.7,231.56s1.39,12.27,0,17-6.33,5.74-13.85,4.55-15.24-8.51-26.52-2-11.28,40.77-14.64,51.06-17.62,52.84-17.62,52.84H293.6s19.6-31.27,26.52-48.88,11.48-34.64,4-43.34-21.37-6.14-32.26-8.71-11.28-5-13.45-18.41-2-29.68-2-29.68-16.23,16.23-22,19.59S246.7,231.56,246.7,231.56Z" style="fill:#fff"></path><g style="clip-path:url(#clip-path-2)"><path d="M267.79,238.35c4.21-2,7.56-3.72,10.2-5.17a211.18,211.18,0,0,1-1.6-27.15s-16.23,16.23-22,19.59-7.72,5.94-7.72,5.94a103,103,0,0,1,.6,11.82A54.25,54.25,0,0,0,267.79,238.35Z" style="fill:#92E3A9"></path><path d="M267.79,238.35c4.21-2,7.56-3.72,10.2-5.17a211.18,211.18,0,0,1-1.6-27.15s-16.23,16.23-22,19.59-7.72,5.94-7.72,5.94a103,103,0,0,1,.6,11.82A54.25,54.25,0,0,0,267.79,238.35Z" style="fill:#fff;opacity:0.5"></path><path d="M315.37,289.74s-8.81,1.73-13.13,8.2-6.83,15.81-5.75,20.48,11.5,8.63,13.66,5.75,13.3-25.88,13.3-25.88S319.52,289.45,315.37,289.74Z" style="fill:#92E3A9"></path><path d="M315.37,289.74s-8.81,1.73-13.13,8.2-6.83,15.81-5.75,20.48,11.5,8.63,13.66,5.75,13.3-25.88,13.3-25.88S319.52,289.45,315.37,289.74Z" style="fill:#fff;opacity:0.5"></path></g><path d="M246.7,231.56s1.39,12.27,0,17-6.33,5.74-13.85,4.55-15.24-8.51-26.52-2-11.28,40.77-14.64,51.06-17.62,52.84-17.62,52.84H293.6s19.6-31.27,26.52-48.88,11.48-34.64,4-43.34-21.37-6.14-32.26-8.71-11.28-5-13.45-18.41-2-29.68-2-29.68-16.23,16.23-22,19.59S246.7,231.56,246.7,231.56Z" style="fill:none;stroke:#263238;stroke-linecap:round;stroke-linejoin:round"></path><path d="M288.52,260.66s-23.32,7.12-29.64,9.49" style="fill:none;stroke:#263238;stroke-linecap:round;stroke-linejoin:round"></path><path d="M233.19,261.45s8.3,5.14,11.46,7.12" style="fill:none;stroke:#263238;stroke-linecap:round;stroke-linejoin:round"></path><path d="M236.35,316.39s2-8.69,12.65-15.41" style="fill:none;stroke:#263238;stroke-linecap:round;stroke-linejoin:round"></path><path d="M240,143.89s-22.56,9.89-24.93,19.79-.79,33.84,2.77,43.93,14.64,31.27,22.36,30.68,20.39-11.28,27.71-17.22,11.28-18.21,11.28-18.21-5.94-8.51-11.68-23.74-6.92-24.94-16.23-30.09S240,143.89,240,143.89Z" style="fill:#fff"></path><g style="clip-path:url(#clip-path-3)"><path d="M250.3,234.2c6.27-3.8,13-9.4,17.58-13.13,7.32-5.94,11.28-18.21,11.28-18.21s-5.94-8.51-11.68-23.74-6.92-24.94-16.23-30.09c-2.54-1.4-4.52-2.41-6.08-3.16a41.2,41.2,0,0,1,13.79,18c4.61,11.9,4.32,22.52,1.54,26.1s-18.81,2.3-18.81,2.3,8.44,7.68,18.42,5.38,10.37,10.36,6.53,18C263.74,221.5,255.16,229.26,250.3,234.2Z" style="fill:#92E3A9"></path><path d="M250.3,234.2c6.27-3.8,13-9.4,17.58-13.13,7.32-5.94,11.28-18.21,11.28-18.21s-5.94-8.51-11.68-23.74-6.92-24.94-16.23-30.09c-2.54-1.4-4.52-2.41-6.08-3.16a41.2,41.2,0,0,1,13.79,18c4.61,11.9,4.32,22.52,1.54,26.1s-18.81,2.3-18.81,2.3,8.44,7.68,18.42,5.38,10.37,10.36,6.53,18C263.74,221.5,255.16,229.26,250.3,234.2Z" style="fill:#fff;opacity:0.5"></path></g><path d="M240,143.89s-22.56,9.89-24.93,19.79-.79,33.84,2.77,43.93,14.64,31.27,22.36,30.68,20.39-11.28,27.71-17.22,11.28-18.21,11.28-18.21-5.94-8.51-11.68-23.74-6.92-24.94-16.23-30.09S240,143.89,240,143.89Z" style="fill:none;stroke:#263238;stroke-linecap:round;stroke-linejoin:round"></path><path d="M233.84,185.05a8.28,8.28,0,0,1-2.18,6.53c-2.77,3-5.34,4-4.35,5.74s7.12,1.78,7.12,1.78" style="fill:none;stroke:#263238;stroke-linecap:round;stroke-linejoin:round"></path><path d="M233.25,209.59s-2.38-6.33-4.56-2.37,1.19,6.33,1.19,7.32,1,6.33,6.33,5.34,5.55-7.72,5.55-7.72-1.79-6.72-5.15-6.72S233.25,209.59,233.25,209.59Z" style="fill:#263238;stroke:#263238;stroke-linecap:round;stroke-linejoin:round"></path><line x1="234.24" y1="178.32" x2="269.83" y2="178.52" style="fill:none;stroke:#263238;stroke-linecap:round;stroke-linejoin:round"></line><circle cx="219.36" cy="180.62" r="14.75" style="fill:#92E3A9;stroke:#263238;stroke-linecap:round;stroke-linejoin:round"></circle><path d="M217.79,167.85a13.51,13.51,0,0,1,1.57-.09,13.1,13.1,0,0,1,3.51.48" style="fill:none;stroke:#fff;stroke-linecap:round;stroke-linejoin:round"></path><path d="M206.49,180.62a12.86,12.86,0,0,1,6.87-11.38" style="fill:none;stroke:#fff;stroke-linecap:round;stroke-linejoin:round"></path><path d="M218,185.6c6.59.47,10.4,2.45,14,2.59a15,15,0,0,0,1.1-2.24c-4.55.56-7.49-2.14-15-3.65a20.62,20.62,0,0,0-13,1.76,14.49,14.49,0,0,0,1.9,4.48A17.68,17.68,0,0,1,218,185.6Z" style="fill:#263238;stroke:#263238;stroke-linecap:round;stroke-linejoin:round"></path><path d="M220.69,189.41a20.45,20.45,0,0,0-12.05,1.32,14.69,14.69,0,0,0,4.31,3.16,17.25,17.25,0,0,1,7.67-1.18,39.83,39.83,0,0,1,5.8.86,14.19,14.19,0,0,0,2.48-1.71A53.16,53.16,0,0,0,220.69,189.41Z" style="fill:#263238;stroke:#263238;stroke-linecap:round;stroke-linejoin:round"></path><circle cx="250.65" cy="180.62" r="14.75" style="fill:#92E3A9;stroke:#263238;stroke-linecap:round;stroke-linejoin:round"></circle><path d="M249.08,167.85a13.64,13.64,0,0,1,1.57-.09,13,13,0,0,1,3.51.48" style="fill:none;stroke:#fff;stroke-linecap:round;stroke-linejoin:round"></path><path d="M237.79,180.62a12.87,12.87,0,0,1,6.86-11.38" style="fill:none;stroke:#fff;stroke-linecap:round;stroke-linejoin:round"></path><path d="M249.29,185.6c6.6.47,10.41,2.45,14,2.59A15.06,15.06,0,0,0,264.4,186c-4.56.56-7.5-2.14-15-3.65a20.63,20.63,0,0,0-13,1.76,15,15,0,0,0,1.9,4.48A17.69,17.69,0,0,1,249.29,185.6Z" style="fill:#263238;stroke:#263238;stroke-linecap:round;stroke-linejoin:round"></path><path d="M252,189.41a20.47,20.47,0,0,0-12,1.32,14.82,14.82,0,0,0,4.31,3.16,17.25,17.25,0,0,1,7.67-1.18,40.19,40.19,0,0,1,5.81.86,15,15,0,0,0,2.48-1.71A53.67,53.67,0,0,0,252,189.41Z" style="fill:#263238;stroke:#263238;stroke-linecap:round;stroke-linejoin:round"></path><path d="M308.14,293.38c1.78-1.65,5.3-3.94,7.23-3.64,2.58.4,6.76,5.16,11.31,18,4.21,11.89,13.27,22.62,13.81,23.58,4.3-1.12,32.86-5.54,46.65,3.39-5.11-23.87-26.9-38.43-33.42-60.91-5.18-17.83-20.54-25-32-24.25-8.19.56-22.63,3.85-30.23,5.68" style="fill:#fff"></path><g style="clip-path:url(#clip-path-4)"><path d="M353.72,273.82a34.44,34.44,0,0,0-10.34-16.59l-.16.09s9,10.43,6.1,16.18-19.4,3.23-12.93,11.5,19,6.83,27.67,16.17c6.87,7.44,11.92,12.38,17.14,18.07C372.64,303.6,358.71,291,353.72,273.82Z" style="fill:#92E3A9"></path><path d="M353.72,273.82a34.44,34.44,0,0,0-10.34-16.59l-.16.09s9,10.43,6.1,16.18-19.4,3.23-12.93,11.5,19,6.83,27.67,16.17c6.87,7.44,11.92,12.38,17.14,18.07C372.64,303.6,358.71,291,353.72,273.82Z" style="fill:#fff;opacity:0.5"></path></g><path d="M308.14,293.38c1.78-1.65,5.3-3.94,7.23-3.64,2.58.4,6.76,5.16,11.31,18,4.21,11.89,13.27,22.62,13.81,23.58,4.3-1.12,32.86-5.54,46.65,3.39-5.11-23.87-26.9-38.43-33.42-60.91-5.18-17.83-20.54-25-32-24.25-8.19.56-22.63,3.85-30.23,5.68" style="fill:none;stroke:#263238;stroke-linecap:round;stroke-linejoin:round"></path><path d="M295.52,253.62l-12.11,41.52L235,325,207.79,298.6,233,253.87l-3.45-1s-24.22,42.51-27.68,46.21S187,314.91,183.32,327.51s6.18,26.69,6.18,26.69H293.6l19-31.88S301,306.26,297,302.31s-8.16-7.66-8.16-7.66l9.89-41.27Z" style="fill:#263238;stroke:#263238;stroke-linecap:round;stroke-linejoin:round"></path><path d="M176,355.34c.32-4.34,1.16-15.67,2.24-28.2a155.9,155.9,0,0,1,6.33-31.07l-14.05,1.78s-7.91,19.2-15.83,31.47a55.3,55.3,0,0,0-8.91,25.13,5.27,5.27,0,0,0,0,.89Z" style="fill:#fff;stroke:#263238;stroke-linecap:round;stroke-linejoin:round"></path><path d="M182.19,296.47c.73.36,6.53-1.58,9.5-5.54s4.75-13.26,7.91-17.81,10.29-11.09,13.06-17,1.39-7.52-1.78-5-6.73,9.5-8.31,12.47-5.74,6.73-9.89,8.71-3.76-.2-7.72,4.94S180.21,295.48,182.19,296.47Z" style="fill:#fff;stroke:#263238;stroke-linecap:round;stroke-linejoin:round"></path><path d="M200.2,297.36a1.24,1.24,0,0,1-.27,0,1.47,1.47,0,0,1-1.19-1.72l13.26-73a1.44,1.44,0,0,1,.85-1.09L232,212.89a1.49,1.49,0,0,1,1.22,2.71l-18.49,8.28-13.11,72.26A1.49,1.49,0,0,1,200.2,297.36Z" style="fill:#fff;stroke:#263238;stroke-linecap:round;stroke-linejoin:round"></path><path d="M186.94,256.1s5.14-6.73,6.92-8.31,14-12.47,15.84-14.45,3-.4,1.58,3.17-4.75,5.93-6.14,7.71-6.53,8.51-7.32,9.5-7.12,9.3-9.89,9.7S186.94,256.1,186.94,256.1Z" style="fill:#fff;stroke:#263238;stroke-linecap:round;stroke-linejoin:round"></path><path d="M180.41,298.45s5.93-4.75,7.32-8.91a52.55,52.55,0,0,0,1.78-10.68s11.28,1.38,16.43.59,6.33-2,6.92-4-2.57-1.78-3.76-1.38-20.18-2-20.18-2,1.58-1.78,6.53-2.57,15-1.59,18.2-2.78,4.16-3.56,4-4.75-3.76,0-7.12,0-18.61.6-18.61.6,4.56-4,7.13-5.15,11.48-6.13,14.05-8.7,1.78-4,1.39-5.15-4.36,1.58-9.7,3.56-17.81,8.91-17.81,8.91S174.47,278.86,171.7,287s-1,17.81-1.39,18.4" style="fill:#fff;stroke:#263238;stroke-linecap:round;stroke-linejoin:round"></path><path d="M185,368.53h12.72A28,28,0,0,0,216.86,361a40.72,40.72,0,0,0,12.68-29.74c0-12.17-5.21-23.06-13.41-36.13H166.52c-8.2,13.07-13.4,24-13.4,36.13a40.67,40.67,0,0,0,13.42,30.43A27.57,27.57,0,0,0,185,368.53Z" style="fill:#92E3A9;stroke:#263238;stroke-linecap:round;stroke-linejoin:round"></path><path d="M370.77,323.45c-7.52-1-25.14,2.77-25.14,2.77" style="fill:#fff;stroke:#263238;stroke-linecap:round;stroke-linejoin:round"></path><path d="M368.67,319.84c-14.95,3.45-19.82,5.39-23.11,6.25l.07.13s-25.55,7.9-39.66,8.58c-10.07.48-31.17,2.24-37.89,1.45s-13.66-5.94-16.43-9.3-14.05-11.68-17.41-13.66a22.09,22.09,0,0,1-7.33-6.53c-1.18-2-3.56-3.56-4.94-1s.59,6.14,2.57,8.51S235,325,235,325s-1.39,1-9.5,3-26.13,1.78-29.29,1.78-6.14,1.38-6.14,2.57,4.36,1.58,12.47,3,19,4.55,19,4.55S215,344.36,210.29,345s-21,3.37-23.15,3.57-3.37,1.18-2.58,2.57,8.12,1.58,16.63,1,15.63-1.78,15.63-1.78l-7.12,4.75c-4.75,3.16-19,7.12-19.79,8.7s3.36,1.79,3.36,1.79-3.76,1.78,2.57,1.18,23.75-3,33.45-6.13,13.45-4.95,22.76-5.94,27.39,8.55,63.8,10.13,57.81-1.81,64.34-3,12.54-3.51,12.15-6.08c-.24-1.54-2.41-11.93-6-24.28" style="fill:#fff"></path><g style="clip-path:url(#clip-path-5)"><path d="M386.32,331.43l-4.59-3c-.82,4.06-2.62,8.92-6.53,12.29-7.9,6.83-41,8.27-69,8.27s-69-6.47-74.4-6.47-16.89,4.31-29.83,7.19c-4.94,1.1-8.62,2-11.28,2.66a103.68,103.68,0,0,0,10.5-.27l.56,0,15.07-1.74s6-1,3.84.83-10.78,6.83-20.49,10.42c-2.94,1.09-5.95,2.41-8.72,3.73a11.86,11.86,0,0,0,1.82.26s-3.76,1.78,2.57,1.18,23.75-3,33.45-6.13,13.45-4.95,22.76-5.94,27.39,8.55,63.8,10.13,57.81-1.81,64.34-3,12.54-3.51,12.15-6.08C392.1,354.17,389.93,343.78,386.32,331.43Z" style="fill:#92E3A9"></path><path d="M386.32,331.43l-4.59-3c-.82,4.06-2.62,8.92-6.53,12.29-7.9,6.83-41,8.27-69,8.27s-69-6.47-74.4-6.47-16.89,4.31-29.83,7.19c-4.94,1.1-8.62,2-11.28,2.66a103.68,103.68,0,0,0,10.5-.27l.56,0,15.07-1.74s6-1,3.84.83-10.78,6.83-20.49,10.42c-2.94,1.09-5.95,2.41-8.72,3.73a11.86,11.86,0,0,0,1.82.26s-3.76,1.78,2.57,1.18,23.75-3,33.45-6.13,13.45-4.95,22.76-5.94,27.39,8.55,63.8,10.13,57.81-1.81,64.34-3,12.54-3.51,12.15-6.08C392.1,354.17,389.93,343.78,386.32,331.43Z" style="fill:#fff;opacity:0.5"></path></g><path d="M368.67,319.84c-14.95,3.45-19.82,5.39-23.11,6.25l.07.13s-25.55,7.9-39.66,8.58c-10.07.48-31.17,2.24-37.89,1.45s-13.66-5.94-16.43-9.3-14.05-11.68-17.41-13.66a22.09,22.09,0,0,1-7.33-6.53c-1.18-2-3.56-3.56-4.94-1s.59,6.14,2.57,8.51S235,325,235,325s-1.39,1-9.5,3-26.13,1.78-29.29,1.78-6.14,1.38-6.14,2.57,4.36,1.58,12.47,3,19,4.55,19,4.55S215,344.36,210.29,345s-21,3.37-23.15,3.57-3.37,1.18-2.58,2.57,8.12,1.58,16.63,1,15.63-1.78,15.63-1.78l-7.12,4.75c-4.75,3.16-19,7.12-19.79,8.7s3.36,1.79,3.36,1.79-3.76,1.78,2.57,1.18,23.75-3,33.45-6.13,13.45-4.95,22.76-5.94,27.39,8.55,63.8,10.13,57.81-1.81,64.34-3,12.54-3.51,12.15-6.08c-.24-1.54-2.41-11.93-6-24.28" style="fill:none;stroke:#263238;stroke-linecap:round;stroke-linejoin:round"></path><path d="M219.19,359c-6.92,3-25.92,6.53-25.92,6.53" style="fill:none;stroke:#263238;stroke-linecap:round;stroke-linejoin:round"></path><path d="M169.33,287.15s-4.49-5.18-7.64-2.48,3.37,4.5,3.37,4.5-5.85.9-4.05,4.28,7-1.13,7-1.13-2.59,5.45,2.53,5.53,2.87-7.33,2.87-7.33,5.85.68,4.5-5.4S170,282.65,169.33,287.15Z" style="fill:#fff;stroke:#263238;stroke-linecap:round;stroke-linejoin:round"></path><path d="M170.91,290a1.24,1.24,0,1,1-1.24-1.24A1.25,1.25,0,0,1,170.91,290Z" style="fill:#fff;stroke:#263238;stroke-linecap:round;stroke-linejoin:round"></path><path d="M204.65,288.05s-4.5-5.18-7.65-2.48,3.37,4.5,3.37,4.5-5.85.9-4.05,4.28,7-1.13,7-1.13-2.6,5.45,2.52,5.53,2.87-7.33,2.87-7.33,5.85.68,4.5-5.4S205.32,283.55,204.65,288.05Z" style="fill:#fff;stroke:#263238;stroke-linecap:round;stroke-linejoin:round"></path><circle cx="204.98" cy="290.86" r="1.24" style="fill:#fff;stroke:#263238;stroke-linecap:round;stroke-linejoin:round"></circle><path d="M187.1,286.25s-4.5-5.17-7.65-2.48,3.38,4.5,3.38,4.5-5.85.9-4.05,4.28,7-1.13,7-1.13-2.59,5.45,2.53,5.53,2.87-7.33,2.87-7.33,5.85.68,4.5-5.4S187.78,281.75,187.1,286.25Z" style="fill:#fff;stroke:#263238;stroke-linecap:round;stroke-linejoin:round"></path><path d="M188.68,289.06a1.24,1.24,0,1,1-1.24-1.24A1.25,1.25,0,0,1,188.68,289.06Z" style="fill:#fff;stroke:#263238;stroke-linecap:round;stroke-linejoin:round"></path><path d="M216.12,289.4s-4.5-5.18-7.65-2.48,3.37,4.5,3.37,4.5-5.84.9-4.05,4.27,7-1.12,7-1.12-2.6,5.44,2.52,5.53,2.87-7.33,2.87-7.33,5.85.68,4.5-5.4S216.79,284.9,216.12,289.4Z" style="fill:#fff;stroke:#263238;stroke-linecap:round;stroke-linejoin:round"></path><path d="M217.69,292.21a1.24,1.24,0,1,1-1.24-1.24A1.24,1.24,0,0,1,217.69,292.21Z" style="fill:#fff;stroke:#263238;stroke-linecap:round;stroke-linejoin:round"></path><path d="M180.35,293.45s-4.49-5.18-7.64-2.48,3.37,4.5,3.37,4.5-5.85.9-4.05,4.27,7-1.12,7-1.12-2.6,5.44,2.52,5.53,2.87-7.33,2.87-7.33,5.85.67,4.5-5.4S181,289,180.35,293.45Z" style="fill:#fff;stroke:#263238;stroke-linecap:round;stroke-linejoin:round"></path><path d="M181.93,296.26a1.24,1.24,0,1,1-1.24-1.24A1.23,1.23,0,0,1,181.93,296.26Z" style="fill:#fff;stroke:#263238;stroke-linecap:round;stroke-linejoin:round"></path><path d="M196,294.66s4-5.53.72-8-3.64,4.28-3.64,4.28-2.17-5.5-5.06-3,2.64,6.55,2.64,6.55-5.89-1.32-4.84,3.69,7.78,1.18,7.78,1.18.64,5.85,6.26,3.19S200.55,294.33,196,294.66Z" style="fill:#fff;stroke:#263238;stroke-linecap:round;stroke-linejoin:round"></path><path d="M193.62,296.82a1.23,1.23,0,1,1-.54-2.41,1.23,1.23,0,1,1,.54,2.41Z" style="fill:#fff;stroke:#263238;stroke-linecap:round;stroke-linejoin:round"></path><path d="M207.47,295.52s-6.61-1.81-7.73,2.19,5.3,1.87,5.3,1.87-4.36,4-1,5.8,5.17-4.81,5.17-4.81.87,6,5.18,3.2-1.69-7.69-1.69-7.69,5.24-2.69.75-7S205.54,291.4,207.47,295.52Z" style="fill:#fff;stroke:#263238;stroke-linecap:round;stroke-linejoin:round"></path><path d="M210.34,297a1.24,1.24,0,1,1-1.71-.34A1.24,1.24,0,0,1,210.34,297Z" style="fill:#fff;stroke:#263238;stroke-linecap:round;stroke-linejoin:round"></path></g></svg>