<svg xmlns="http://www.w3.org/2000/svg" viewBox="0 0 500 500"><g id="background-simple"><path d="M321.16,45.75S244,16.28,169.56,59.35,58.87,190.09,27.61,260.27s-11.11,142.6,47,176.57,96.21-13.68,176.75-14.46,102.44,11.46,168.42-33.95,76-155.52,21.66-238.19S321.16,45.75,321.16,45.75Z" style="fill:#92E3A9"></path><path d="M321.16,45.75S244,16.28,169.56,59.35,58.87,190.09,27.61,260.27s-11.11,142.6,47,176.57,96.21-13.68,176.75-14.46,102.44,11.46,168.42-33.95,76-155.52,21.66-238.19S321.16,45.75,321.16,45.75Z" style="fill:#fff;opacity:0.7000000000000001"></path></g><g id="Shelf"><line x1="351.62" y1="194.64" x2="355.18" y2="194.64" style="fill:none;stroke:#263238;stroke-miterlimit:10"></line><line x1="450.62" y1="194.64" x2="355.18" y2="194.64" style="fill:none;stroke:#263238;stroke-miterlimit:10"></line><line x1="454.18" y1="194.64" x2="450.62" y2="194.64" style="fill:none;stroke:#263238;stroke-miterlimit:10"></line><line x1="351.62" y1="194.64" x2="256.18" y2="194.64" style="fill:none;stroke:#263238;stroke-miterlimit:10"></line><polyline points="454.18 194.64 478.26 194.64 478.26 185.46 230.38 185.46 230.38 194.64 252.62 194.64" style="fill:none;stroke:#263238;stroke-miterlimit:10"></polyline><line x1="252.62" y1="194.64" x2="256.18" y2="194.64" style="fill:none;stroke:#263238;stroke-miterlimit:10"></line><line x1="450.62" y1="260.95" x2="355.18" y2="260.95" style="fill:none;stroke:#263238;stroke-miterlimit:10"></line><line x1="450.62" y1="270.13" x2="355.18" y2="270.13" style="fill:none;stroke:#263238;stroke-miterlimit:10"></line><line x1="351.62" y1="260.95" x2="256.18" y2="260.95" style="fill:none;stroke:#263238;stroke-miterlimit:10"></line><line x1="351.62" y1="270.13" x2="256.18" y2="270.13" style="fill:none;stroke:#263238;stroke-miterlimit:10"></line><polyline points="252.62 260.95 230.38 260.95 230.38 270.13 252.62 270.13" style="fill:none;stroke:#263238;stroke-miterlimit:10"></polyline><polyline points="454.18 270.13 478.26 270.13 478.26 260.95 454.18 260.95" style="fill:none;stroke:#263238;stroke-miterlimit:10"></polyline><line x1="256.18" y1="336.45" x2="351.62" y2="336.45" style="fill:none;stroke:#263238;stroke-miterlimit:10"></line><line x1="256.18" y1="345.63" x2="351.62" y2="345.63" style="fill:none;stroke:#263238;stroke-miterlimit:10"></line><line x1="450.62" y1="336.45" x2="355.18" y2="336.45" style="fill:none;stroke:#263238;stroke-miterlimit:10"></line><line x1="450.62" y1="345.63" x2="355.18" y2="345.63" style="fill:none;stroke:#263238;stroke-miterlimit:10"></line><polyline points="454.18 345.63 478.26 345.63 478.26 336.45 454.18 336.45" style="fill:none;stroke:#263238;stroke-miterlimit:10"></polyline><polyline points="252.62 336.45 230.38 336.45 230.38 345.63 252.62 345.63" style="fill:none;stroke:#263238;stroke-miterlimit:10"></polyline><polyline points="454.18 421.13 478.26 421.13 478.26 411.95 454.18 411.95" style="fill:none;stroke:#263238;stroke-miterlimit:10"></polyline><line x1="355.18" y1="411.95" x2="450.62" y2="411.95" style="fill:none;stroke:#263238;stroke-miterlimit:10"></line><line x1="256.18" y1="411.95" x2="351.62" y2="411.95" style="fill:none;stroke:#263238;stroke-miterlimit:10"></line><line x1="256.18" y1="421.13" x2="351.62" y2="421.13" style="fill:none;stroke:#263238;stroke-miterlimit:10"></line><polyline points="252.62 411.95 230.38 411.95 230.38 421.13 252.62 421.13" style="fill:none;stroke:#263238;stroke-miterlimit:10"></polyline><line x1="355.18" y1="421.13" x2="450.62" y2="421.13" style="fill:none;stroke:#263238;stroke-miterlimit:10"></line><line x1="450.62" y1="421.13" x2="450.62" y2="411.95" style="fill:none;stroke:#263238;stroke-miterlimit:10"></line><line x1="454.18" y1="411.95" x2="454.18" y2="421.13" style="fill:none;stroke:#263238;stroke-miterlimit:10"></line><line x1="454.18" y1="336.45" x2="454.18" y2="345.63" style="fill:none;stroke:#263238;stroke-miterlimit:10"></line><line x1="454.18" y1="411.95" x2="454.18" y2="345.63" style="fill:none;stroke:#263238;stroke-miterlimit:10"></line><polyline points="450.62 421.13 450.62 461.65 454.18 461.65 454.18 421.13" style="fill:none;stroke:#263238;stroke-miterlimit:10"></polyline><line x1="454.18" y1="260.95" x2="454.18" y2="270.13" style="fill:none;stroke:#263238;stroke-miterlimit:10"></line><line x1="454.18" y1="336.45" x2="454.18" y2="270.13" style="fill:none;stroke:#263238;stroke-miterlimit:10"></line><line x1="454.18" y1="194.64" x2="454.18" y2="260.95" style="fill:none;stroke:#263238;stroke-miterlimit:10"></line><polyline points="454.18 194.64 454.18 194.57 450.62 194.57 450.62 194.64" style="fill:none;stroke:#263238;stroke-miterlimit:10"></polyline><line x1="450.62" y1="260.95" x2="450.62" y2="194.64" style="fill:none;stroke:#263238;stroke-miterlimit:10"></line><line x1="450.62" y1="411.95" x2="450.62" y2="345.63" style="fill:none;stroke:#263238;stroke-miterlimit:10"></line><line x1="450.62" y1="345.63" x2="450.62" y2="336.45" style="fill:none;stroke:#263238;stroke-miterlimit:10"></line><line x1="450.62" y1="260.95" x2="450.62" y2="270.13" style="fill:none;stroke:#263238;stroke-miterlimit:10"></line><line x1="450.62" y1="336.45" x2="450.62" y2="270.13" style="fill:none;stroke:#263238;stroke-miterlimit:10"></line><line x1="351.62" y1="336.45" x2="351.62" y2="270.13" style="fill:none;stroke:#263238;stroke-miterlimit:10"></line><line x1="351.62" y1="411.95" x2="351.62" y2="345.63" style="fill:none;stroke:#263238;stroke-miterlimit:10"></line><line x1="355.18" y1="345.63" x2="355.18" y2="336.45" style="fill:none;stroke:#263238;stroke-miterlimit:10"></line><line x1="355.18" y1="411.95" x2="355.18" y2="345.63" style="fill:none;stroke:#263238;stroke-miterlimit:10"></line><line x1="351.62" y1="336.45" x2="351.62" y2="345.63" style="fill:none;stroke:#263238;stroke-miterlimit:10"></line><line x1="355.18" y1="270.13" x2="355.18" y2="336.45" style="fill:none;stroke:#263238;stroke-miterlimit:10"></line><line x1="355.18" y1="194.64" x2="355.18" y2="260.95" style="fill:none;stroke:#263238;stroke-miterlimit:10"></line><line x1="351.62" y1="194.64" x2="351.62" y2="260.95" style="fill:none;stroke:#263238;stroke-miterlimit:10"></line><line x1="355.18" y1="421.13" x2="355.18" y2="411.95" style="fill:none;stroke:#263238;stroke-miterlimit:10"></line><line x1="355.18" y1="270.13" x2="355.18" y2="260.95" style="fill:none;stroke:#263238;stroke-miterlimit:10"></line><line x1="351.62" y1="260.95" x2="351.62" y2="270.13" style="fill:none;stroke:#263238;stroke-miterlimit:10"></line><polyline points="355.18 194.64 355.18 194.57 351.62 194.57 351.62 194.64" style="fill:none;stroke:#263238;stroke-miterlimit:10"></polyline><polyline points="351.62 421.13 351.62 461.65 355.18 461.65 355.18 421.13" style="fill:none;stroke:#263238;stroke-miterlimit:10"></polyline><line x1="351.62" y1="421.13" x2="351.62" y2="411.95" style="fill:none;stroke:#263238;stroke-miterlimit:10"></line><line x1="252.62" y1="270.13" x2="252.62" y2="336.45" style="fill:none;stroke:#263238;stroke-miterlimit:10"></line><line x1="252.62" y1="194.64" x2="252.62" y2="260.95" style="fill:none;stroke:#263238;stroke-miterlimit:10"></line><line x1="252.62" y1="345.63" x2="252.62" y2="411.95" style="fill:none;stroke:#263238;stroke-miterlimit:10"></line><line x1="256.18" y1="260.95" x2="256.18" y2="270.13" style="fill:none;stroke:#263238;stroke-miterlimit:10"></line><polyline points="252.62 421.13 252.62 461.65 256.18 461.65 256.18 421.13" style="fill:none;stroke:#263238;stroke-miterlimit:10"></polyline><polyline points="256.18 194.64 256.18 194.57 252.62 194.57 252.62 194.64" style="fill:none;stroke:#263238;stroke-miterlimit:10"></polyline><line x1="256.18" y1="270.13" x2="256.18" y2="336.45" style="fill:none;stroke:#263238;stroke-miterlimit:10"></line><line x1="256.18" y1="194.64" x2="256.18" y2="260.95" style="fill:none;stroke:#263238;stroke-miterlimit:10"></line><line x1="256.18" y1="336.45" x2="256.18" y2="345.63" style="fill:none;stroke:#263238;stroke-miterlimit:10"></line><line x1="256.18" y1="345.63" x2="256.18" y2="411.95" style="fill:none;stroke:#263238;stroke-miterlimit:10"></line><line x1="256.18" y1="421.13" x2="256.18" y2="411.95" style="fill:none;stroke:#263238;stroke-miterlimit:10"></line><line x1="252.62" y1="421.13" x2="252.62" y2="411.95" style="fill:none;stroke:#263238;stroke-miterlimit:10"></line><line x1="252.62" y1="270.13" x2="252.62" y2="260.95" style="fill:none;stroke:#263238;stroke-miterlimit:10"></line><line x1="252.62" y1="345.63" x2="252.62" y2="336.45" style="fill:none;stroke:#263238;stroke-miterlimit:10"></line><circle cx="409.91" cy="230.37" r="30.04" style="fill:none;stroke:#263238;stroke-miterlimit:10"></circle><circle cx="409.91" cy="230.37" r="13.91" transform="translate(116.6 597.88) rotate(-80.74)" style="fill:none;stroke:#263238;stroke-miterlimit:10"></circle><circle cx="288.71" cy="381.7" r="30.04" style="fill:none;stroke:#263238;stroke-miterlimit:10"></circle><circle cx="288.71" cy="381.7" r="13.91" style="fill:none;stroke:#263238;stroke-miterlimit:10"></circle><circle cx="400.18" cy="389.75" r="22.53" style="fill:none;stroke:#263238;stroke-miterlimit:10"></circle><circle cx="400.18" cy="389.75" r="10.43" transform="matrix(0.22, -0.98, 0.98, 0.22, -68.38, 693.9)" style="fill:none;stroke:#263238;stroke-miterlimit:10"></circle><path d="M374.43,336.63H392c8.24-4.37,14-14.68,14-26.71,0-8.94-3.2-16.94-8.24-22.25H368.64c-5,5.31-8.24,13.31-8.24,22.25C360.4,322,366.19,332.26,374.43,336.63Z" style="fill:none;stroke:#263238;stroke-miterlimit:10"></path><line x1="361.52" y1="303.25" x2="371.53" y2="303.25" style="fill:none;stroke:#263238;stroke-miterlimit:10"></line><line x1="375.42" y1="303.25" x2="380.99" y2="303.25" style="fill:none;stroke:#263238;stroke-miterlimit:10"></line><line x1="374.87" y1="317.16" x2="404.91" y2="317.16" style="fill:none;stroke:#263238;stroke-miterlimit:10"></line><line x1="385.44" y1="321.61" x2="377.65" y2="321.61" style="fill:none;stroke:#263238;stroke-miterlimit:10"></line><line x1="397.68" y1="294.35" x2="387.11" y2="294.35" style="fill:none;stroke:#263238;stroke-miterlimit:10"></line><path d="M421.46,336.63H434.1c5.92-3.14,10.09-10.56,10.09-19.22a23.34,23.34,0,0,0-5.93-16h-21a23.33,23.33,0,0,0-5.92,16C411.37,326.07,415.53,333.49,421.46,336.63Z" style="fill:none;stroke:#263238;stroke-miterlimit:10"></path><line x1="412.17" y1="312.61" x2="419.37" y2="312.61" style="fill:none;stroke:#263238;stroke-miterlimit:10"></line><line x1="422.17" y1="312.61" x2="426.18" y2="312.61" style="fill:none;stroke:#263238;stroke-miterlimit:10"></line><line x1="421.77" y1="322.62" x2="443.39" y2="322.62" style="fill:none;stroke:#263238;stroke-miterlimit:10"></line><line x1="429.38" y1="325.82" x2="423.77" y2="325.82" style="fill:none;stroke:#263238;stroke-miterlimit:10"></line><line x1="438.18" y1="306.21" x2="430.58" y2="306.21" style="fill:none;stroke:#263238;stroke-miterlimit:10"></line><polyline points="422.15 301.58 416.03 291.57 422.15 295.46 421.04 281.55 426.05 291.01 427.16 273.21 431.05 293.24 436.06 282.11 434.39 294.35 438.29 287.67 435.5 301.02" style="fill:none;stroke:#263238;stroke-miterlimit:10"></polyline><rect x="307.55" y="215.91" width="12.24" height="45.06" style="fill:none;stroke:#263238;stroke-miterlimit:10"></rect><rect x="307.55" y="215.91" width="12.24" height="45.06" style="fill:none;stroke:#263238;stroke-miterlimit:10"></rect><rect x="307.55" y="215.91" width="12.24" height="11.5" style="fill:none;stroke:#263238;stroke-miterlimit:10"></rect><rect x="439.76" y="140.49" width="12.24" height="45.06" style="fill:none;stroke:#263238;stroke-miterlimit:10"></rect><rect x="439.76" y="140.49" width="12.24" height="45.06" style="fill:none;stroke:#263238;stroke-miterlimit:10"></rect><rect x="439.76" y="140.49" width="12.24" height="11.5" style="fill:none;stroke:#263238;stroke-miterlimit:10"></rect><rect x="423.16" y="148.78" width="9.99" height="36.77" style="fill:none;stroke:#263238;stroke-miterlimit:10"></rect><rect x="423.16" y="148.78" width="9.99" height="36.77" style="fill:none;stroke:#263238;stroke-miterlimit:10"></rect><rect x="423.16" y="148.78" width="9.99" height="9.38" style="fill:none;stroke:#263238;stroke-miterlimit:10"></rect><rect x="290.39" y="215.91" width="12.24" height="45.06" style="fill:none;stroke:#263238;stroke-miterlimit:10"></rect><rect x="290.39" y="215.91" width="12.24" height="45.06" style="fill:none;stroke:#263238;stroke-miterlimit:10"></rect><rect x="290.39" y="215.91" width="12.24" height="11.5" style="fill:none;stroke:#263238;stroke-miterlimit:10"></rect><rect x="273.22" y="215.91" width="12.24" height="45.06" style="fill:none;stroke:#263238;stroke-miterlimit:10"></rect><rect x="273.22" y="215.91" width="12.24" height="45.06" style="fill:none;stroke:#263238;stroke-miterlimit:10"></rect><rect x="273.22" y="215.91" width="12.24" height="11.5" style="fill:none;stroke:#263238;stroke-miterlimit:10"></rect><path d="M276.22,126.18s-5,2.71-6.58,5.81,1.94,20.12,2.32,21.28,8.52-.38,8.52-.38a5.67,5.67,0,0,1-.78,4.64c-1.54,1.93-5.41,4.64-8.12,7.74s-3.49,11.22-3.49,11.22h9.68v4.57H266V185h32.39v-4.26H286.28v-4.28h10.06s.78-11.2-1.16-14.3a9.12,9.12,0,0,0-4.25-3.87V148.24s3.09-9.29,3.48-12.77-3.48-8.13-7-9.67S276.22,126.18,276.22,126.18Z" style="fill:none;stroke:#263238;stroke-miterlimit:10"></path><path d="M289.77,128.65s-10.33,1.15-11.48,4,2.87,12.62,2,14.92-6.58,5.21-7.46,5.45" style="fill:none;stroke:#263238;stroke-miterlimit:10"></path><path d="M280.48,152.89l7.57-1.86-.58,8.32a22.89,22.89,0,0,0-4.59,7.75,67.67,67.67,0,0,0-1.72,8.6h3.16" style="fill:none;stroke:#263238;stroke-miterlimit:10"></path></g><g id="Picture"><rect x="41.37" y="53.68" width="100.56" height="163.2" style="fill:none;stroke:#263238;stroke-miterlimit:10"></rect><path d="M44.53,53.69V167.23a5.32,5.32,0,0,0,5.32,5.32h0a5.32,5.32,0,0,0,5.32-5.32V102.16a3.44,3.44,0,0,1,3.44-3.44h0a3.44,3.44,0,0,1,3.44,3.44v31.28a7.19,7.19,0,0,0,7.19,7.2h0a7.2,7.2,0,0,0,7.2-7.2V80.26a5.94,5.94,0,0,1,5.94-6h0a6,6,0,0,1,6,6v4.38a3.44,3.44,0,0,0,3.44,3.44h0a3.44,3.44,0,0,0,3.44-3.44V72.44a9.38,9.38,0,0,1,9.39-9.39h0A9.38,9.38,0,0,1,114,72.44V145a5,5,0,0,0,5,5h0a5,5,0,0,0,5-5V70.25a3.45,3.45,0,0,1,3.45-3.45h0a3.44,3.44,0,0,1,3.44,3.45V83.39a2.81,2.81,0,0,0,2.81,2.81h0a2.81,2.81,0,0,0,2.82-2.81V71.2c0-4.16,1.76-7.52,5.91-7.52h0" style="fill:none;stroke:#263238;stroke-miterlimit:10"></path><path d="M73.31,216.35v-26A4.69,4.69,0,0,1,78,185.69h0A4.69,4.69,0,0,0,82.7,181V151a4.06,4.06,0,0,1,4.06-4.06h0A4.07,4.07,0,0,1,90.83,151v37.55A3.44,3.44,0,0,0,94.27,192h0a3.44,3.44,0,0,0,3.44-3.44V177.24a2.2,2.2,0,0,1,2.19-2.19h0a2.19,2.19,0,0,1,2.19,2.19v13.14a1.57,1.57,0,0,0,1.57,1.57h0a1.56,1.56,0,0,0,1.56-1.57V174.11a4.07,4.07,0,0,1,4.07-4.06h0a4.07,4.07,0,0,1,4.07,4.06V205.4a4.69,4.69,0,0,0,4.69,4.69h0a4.69,4.69,0,0,0,4.69-4.69V194.76a3.44,3.44,0,0,1,3.44-3.44h0a3.44,3.44,0,0,1,3.45,3.44v22" style="fill:none;stroke:#263238;stroke-miterlimit:10"></path></g><g id="Plant"><path d="M32.08,325.73c4.09.51,12.91-2.31,12.92-2.31s-3.63-5.25-3.9-5.55c-3.15-3.5-11.3-8.4-16.11-6.24a6.23,6.23,0,0,0-2.59,8.91C24.26,323.77,28.59,325.3,32.08,325.73Z" style="fill:#92E3A9"></path><path d="M122.42,301.15c.09,0-.13-6.38-.19-6.78-.7-4.66-4.79-13.24-10-14.1a6.24,6.24,0,0,0-7.07,6c-.23,3.71,2.53,7.37,5.2,9.66C113.5,298.64,122.42,301.14,122.42,301.15Z" style="fill:#92E3A9"></path><path d="M139.4,261.15c-5.18,1-9.12,9.6-9.74,14.27,0,.4-.16,6.81-.07,6.78l.11,0c-.63,1.36-1.3,2.83-2,4.44-1.25,3-2.64,6.4-3.9,10.2a109.41,109.41,0,0,0-3.48,12.45,81,81,0,0,0-1.89,14.35v.17c-.41-1.49-1.7-5.61-1.83-5.92-1.91-4.3-8.12-11.51-13.36-11A6.25,6.25,0,0,0,98,314.57c.76,3.65,4.39,6.44,7.57,7.95,3.59,1.69,12.19,1.82,12.87,1.83a109.88,109.88,0,0,0,.74,14.72c.31,2.84.72,5.7,1.16,8.56-.39-1.27-.76-2.41-.83-2.56-1.9-4.31-8.11-11.51-13.35-11a6.24,6.24,0,0,0-5.24,7.67c.76,3.64,4.39,6.44,7.57,7.94s10.56,1.78,12.5,1.82c.18,1.1.35,2.19.53,3.29.9,5.25,1.81,10.49,2.55,15.66.26,1.82.45,3.62.65,5.42-.35-1.13-.66-2.08-.72-2.22-1.91-4.31-8.12-11.51-13.36-11a6.25,6.25,0,0,0-5.24,7.67c.76,3.64,4.39,6.44,7.57,8s9.84,1.75,12.15,1.81c.15,1.85.3,3.7.35,5.51,0,1.23.11,2.41.06,3.65s-.06,2.44-.09,3.64c-.15,2.31-.28,4.7-.47,7-.13,1.57-.28,3.06-.42,4.56-.24-1.81-.78-5.36-.86-5.65a24.18,24.18,0,0,0-6.46-10.38,6.73,6.73,0,0,0-.47-1.3,6.24,6.24,0,0,0-8.82-2.91c-4.5,2.74-5.06,12.24-4,16.81.06.27,1.1,3.13,1.78,4.91-.56-1-1.1-1.95-1.69-3-1.15-2-2.35-4-3.65-6.1l-2-3.05c-.64-1-1.46-2-2.19-3.07-1.74-2.35-3.63-4.66-5.58-6.93,1.76-1,7.94-4.7,10-7.56s3.92-7,2.84-10.6a6.25,6.25,0,0,0-8.28-4.22c-4.86,2-6.86,11.33-6.46,16,0,.3.68,3.63,1.08,5.46-1.18-1.36-2.36-2.73-3.6-4.07-3.58-3.86-7.33-7.65-11.05-11.46q-1.71-1.74-3.4-3.51c.63-.35,8.08-4.57,10.41-7.77,2.07-2.84,3.92-7,2.83-10.6a6.23,6.23,0,0,0-8.27-4.22c-4.86,2-6.86,11.33-6.46,16,0,.36,1,5.15,1.29,6.36-2.49-2.58-4.94-5.17-7.25-7.83a109,109,0,0,1-8.7-11.28c.29-.17,8.08-4.54,10.47-7.81,2.07-2.85,3.91-7.05,2.83-10.61a6.23,6.23,0,0,0-8.27-4.21c-4.87,2-6.86,11.33-6.47,16,0,.31.76,4,1.14,5.69l-.27.12A80.37,80.37,0,0,1,48.52,331c-1-2.43-1.87-4.81-2.64-7.14,1.54-.67,8.52-3.78,11-6.5s4.66-6.57,4-10.22a6.24,6.24,0,0,0-7.77-5.1c-5.05,1.48-8.06,10.5-8.18,15.21,0,.26.21,2.87.4,4.76-.33-1.05-.69-2.14-1-3.16-1.12-3.82-1.92-7.4-2.59-10.57-.37-1.8-.67-3.44-.94-5,1.17-1.44,5.8-7.29,6.72-10.78s1.12-8-1.18-10.91a6.23,6.23,0,0,0-9.23-.95c-3.81,3.65-2.32,13-.26,17.28.18.36,3.62,5.77,3.68,5.69l.07-.08c.23,1.48.49,3.07.8,4.8.61,3.19,1.33,6.79,2.37,10.65a112.28,112.28,0,0,0,4,12.31,82,82,0,0,0,6.35,13l.09.14c-1.16-1-4.51-3.74-4.8-3.92-4-2.54-13.11-5.12-17.18-1.77a6.24,6.24,0,0,0-.14,9.28c2.65,2.62,7.22,2.95,10.7,2.45,3.92-.56,11.17-5.2,11.74-5.57a110.77,110.77,0,0,0,8.73,11.87c1.84,2.2,3.76,4.36,5.71,6.5-1-.84-2-1.59-2.11-1.68-4-2.54-13.12-5.12-17.19-1.77a6.24,6.24,0,0,0-.14,9.28c2.65,2.62,7.22,2.95,10.7,2.45s9.79-4.33,11.43-5.37c.75.81,1.5,1.63,2.26,2.44,3.64,3.89,7.3,7.76,10.76,11.66,1.23,1.37,2.38,2.77,3.54,4.17-.92-.75-1.7-1.38-1.83-1.46-4-2.54-13.12-5.12-17.19-1.77a6.25,6.25,0,0,0-.14,9.29c2.65,2.62,7.22,2.95,10.7,2.44s9.18-4,11.13-5.18c1.14,1.46,2.29,2.92,3.34,4.39.69,1,1.42,2,2,3s1.3,2.07,1.94,3.09c1.15,2,2.36,4.07,3.44,6.06.76,1.37,1.46,2.7,2.17,4-1.2-1.38-3.61-4-3.83-4.24-3.54-3.11-12.19-7.05-16.72-4.35A6.24,6.24,0,0,0,81.68,409c2.22,3,6.69,4,10.21,4,3.87,0,11.44-3.28,12.38-3.7,1.16,2.21,2.28,4.37,3.29,6.42,1.74,3.49,3.27,6.73,4.59,9.62l3.26-1c-1.45-3-3.13-6.4-5.06-10.08-1.18-2.25-2.48-4.63-3.84-7.06a65.78,65.78,0,0,0,6-5.29c3.41,2,11,3.36,12,3.52-.25,2.49-.51,4.9-.8,7.18-.43,3.52-.89,6.76-1.35,9.69l3.51-1c.32-2.56.65-5.34,1-8.3.26-2.53.49-5.23.69-8,1-.08,9.26-.8,12.65-2.69,3.07-1.71,6.5-4.75,7-8.44a6.24,6.24,0,0,0-5.74-7.29c-5.27-.2-11,7.41-12.59,11.83-.09.27-.8,3.21-1.22,5.08.08-1.13.17-2.24.23-3.4.15-2.32.23-4.63.33-7.11,0-1.2,0-2.42,0-3.65s-.09-2.5-.14-3.76c-.15-2.93-.45-5.89-.83-8.87,2,.12,9.22.47,12.53-.77s7.15-3.72,8.21-7.28a6.23,6.23,0,0,0-4.57-8.08c-5.18-1-12,5.66-14.23,9.79-.14.26-1.43,3.41-2.1,5.15-.24-1.79-.47-3.57-.77-5.37-.86-5.2-1.89-10.43-2.89-15.66-.31-1.6-.6-3.2-.9-4.8.72.05,9.26.64,13-.74,3.3-1.23,7.15-3.72,8.21-7.28a6.23,6.23,0,0,0-4.57-8.08c-5.18-1-12,5.66-14.23,9.79-.17.31-2,4.84-2.43,6-.65-3.52-1.26-7-1.73-10.53a108.43,108.43,0,0,1-1-14.21c.33,0,9.25.68,13-.74,3.3-1.23,7.15-3.72,8.21-7.28a6.23,6.23,0,0,0-4.57-8.08c-5.18-1-12,5.66-14.23,9.79-.15.27-1.56,3.72-2.19,5.38l-.3-.06a79.6,79.6,0,0,1,1.56-14.24c.48-2.6,1.09-5,1.74-7.41,1.64.29,9.19,1.54,12.74.64s7.52-2.9,9-6.33A6.24,6.24,0,0,0,141,287.8c-5-1.55-12.53,4.32-15.22,8.18-.15.21-1.41,2.51-2.3,4.19.31-1.06.61-2.17.92-3.18,1.18-3.81,2.49-7.23,3.67-10.25.69-1.71,1.34-3.24,2-4.67,1.77-.55,8.86-2.88,11.55-5.28s5.33-6,5-9.75A6.25,6.25,0,0,0,139.4,261.15Z" style="fill:#92E3A9"></path></g><g id="Sculpture"><path d="M103.87,164.32c-1.7-7.47-2.77-13.23-.42-18.14s9.6-14.29,15.57-19,15.37-12.8,19.21-16S154.87,101.8,163.4,101s26.46,2.34,30.52,2.56,8.32-.43,8.11-4.06-2.78-14.08-.86-19a12.94,12.94,0,0,1,10-8.11,35.08,35.08,0,0,0,7.47-1.92s-3.2-2.56.43-6.82S229.55,57,235.31,60.4s4.7,8.33,3.84,9.18a12.4,12.4,0,0,1-2.56,1.71l4.91,4.26s4.05-1.7,5.33-.42a4.62,4.62,0,0,1,1.28,3s1.71-.22,2.35,3.41a39.39,39.39,0,0,1,.22,11.09c-.43,2.78-.43,3.85-.43,9.61s-1.92,12.8-5.34,15.36-5.76,6-9.17,7.47a51.68,51.68,0,0,1-6.62,2.34s-1.49-.85-3.2,1.29a33.3,33.3,0,0,0-3.41,6.18s6.83,10.25,8.53,18.78.43,20.48.43,21.34-1.71,39-1.71,45.45S222.08,245,222.08,245l-1.7,3.42s-4.7,26.24-7.9,34.35-9.81,26.89-10.67,32.22-1.92,16.65-2.13,20.06a44.87,44.87,0,0,1-2.13,9s.42,4.06,1.06,5.12,3,4.27,3.84,4.7,3.42,1.92,3.42,1.92l2.13,4.9s3.2,2.78,4.05,3.42,5.34,3.41,5.34,3.41l1.49,1.71,2.78,4.91,4.05,3V462H111.77V367s1.28-6.41,3.2-7.47,7.25-4.06,8.11-4.48,5.76-2.14,6-2.78,4.27-9.39,4.7-10.24,3.2-5.76,3.2-5.76V317.1s-6.62-25.18-6.62-39.69.43-39.48.43-39.48a19.17,19.17,0,0,1-2.14-7.46c-.21-4.06-1.7-5.34,0-9.18S132,211.9,132,211.9l-13.87-20.7C116.89,189.28,105.58,171.79,103.87,164.32Zm101.78,36.06c.22,6-2.77,12.8-2.56,14.51s3.42,12,3.42,12,4.69-12,4.69-16.22-2.13-12.59-2.13-16.43.42-16.43.42-20.48a42.42,42.42,0,0,1,1.28-9S200.53,180.11,200.32,182,205.44,194.4,205.65,200.38Zm-78.31-36.27c1.71,4,3.85,12.16,6.19,21.33s6.19,13.45,6.19,13.45.64-2.56,1.28-5.55,2.77-16.22,2.77-20.91-2.34-29.66-2.34-29.66c-.64,1.06-18.14,11.09-18.14,11.09S125.64,160.05,127.34,164.11Z" style="fill:#fff"></path><path d="M225.5,122.07,223.79,124s-3.2-1.28-4.27-4" style="fill:none;stroke:#263238;stroke-miterlimit:10"></path><path d="M225.71,125.48l2.56-3.2s-2.35-1.06-5.55-2.77a8.89,8.89,0,0,1-1.92-3.41" style="fill:none;stroke:#263238;stroke-miterlimit:10"></path><path d="M222.51,134.87s-1.92,1.28-2.77.22l-.86-1.07a27.85,27.85,0,0,1-4.48.85,22.71,22.71,0,0,0-4.48.64c-.64.22-2.35,0-4-1.7s-4.91-9.39-5.12-14.3" style="fill:none;stroke:#263238;stroke-miterlimit:10"></path><line x1="218.88" y1="134.02" x2="216.32" y2="130.18" style="fill:none;stroke:#263238;stroke-miterlimit:10"></line><path d="M202.88,128.69s-4,1.06-5.12,3.62" style="fill:none;stroke:#263238;stroke-miterlimit:10"></path><path d="M103.87,164.32c-1.7-7.47-2.77-13.23-.42-18.14s9.6-14.29,15.57-19,15.37-12.8,19.21-16S154.87,101.8,163.4,101s26.46,2.34,30.52,2.56,8.32-.43,8.11-4.06-2.78-14.08-.86-19a12.94,12.94,0,0,1,10-8.11,35.08,35.08,0,0,0,7.47-1.92s-3.2-2.56.43-6.82S229.55,57,235.31,60.4s4.7,8.33,3.84,9.18a12.4,12.4,0,0,1-2.56,1.71l4.91,4.26s4.05-1.7,5.33-.42a4.62,4.62,0,0,1,1.28,3s1.71-.22,2.35,3.41a39.39,39.39,0,0,1,.22,11.09c-.43,2.78-.43,3.85-.43,9.61s-1.92,12.8-5.34,15.36-5.76,6-9.17,7.47a51.68,51.68,0,0,1-6.62,2.34s-1.49-.85-3.2,1.29a33.3,33.3,0,0,0-3.41,6.18s6.83,10.25,8.53,18.78.43,20.48.43,21.34-1.71,39-1.71,45.45S222.08,245,222.08,245l-1.7,3.42s-4.7,26.24-7.9,34.35-9.81,26.89-10.67,32.22-1.92,16.65-2.13,20.06a44.87,44.87,0,0,1-2.13,9s.42,4.06,1.06,5.12,3,4.27,3.84,4.7,3.42,1.92,3.42,1.92l2.13,4.9s3.2,2.78,4.05,3.42,5.34,3.41,5.34,3.41l1.49,1.71,2.78,4.91,4.05,3V462H111.77V367s1.28-6.41,3.2-7.47,7.25-4.06,8.11-4.48,5.76-2.14,6-2.78,4.27-9.39,4.7-10.24,3.2-5.76,3.2-5.76V317.1s-6.62-25.18-6.62-39.69.43-39.48.43-39.48a19.17,19.17,0,0,1-2.14-7.46c-.21-4.06-1.7-5.34,0-9.18S132,211.9,132,211.9l-13.87-20.7C116.89,189.28,105.58,171.79,103.87,164.32Zm101.78,36.06c.22,6-2.77,12.8-2.56,14.51s3.42,12,3.42,12,4.69-12,4.69-16.22-2.13-12.59-2.13-16.43.42-16.43.42-20.48a42.42,42.42,0,0,1,1.28-9S200.53,180.11,200.32,182,205.44,194.4,205.65,200.38Zm-78.31-36.27c1.71,4,3.85,12.16,6.19,21.33s6.19,13.45,6.19,13.45.64-2.56,1.28-5.55,2.77-16.22,2.77-20.91-2.34-29.66-2.34-29.66c-.64,1.06-18.14,11.09-18.14,11.09S125.64,160.05,127.34,164.11Z" style="fill:none;stroke:#263238;stroke-miterlimit:10"></path><path d="M163.4,108.63s5.77,1.06,3.63,7-14.51,9.17-14.51,9.17" style="fill:none;stroke:#263238;stroke-miterlimit:10"></path><path d="M177.75,163.87a19.36,19.36,0,0,1-10.93,6.85,20.45,20.45,0,0,1-11.95-1.28" style="fill:none;stroke:#263238;stroke-miterlimit:10"></path><path d="M191.78,186.51a14,14,0,0,1-10.45,3.2c-6.4-.64-15.15-.85-21.34-3.84" style="fill:none;stroke:#263238;stroke-miterlimit:10"></path><path d="M187.09,192.91a16.8,16.8,0,0,1-9,.43c-5.34-1.07-20.7-3.63-22-4.27" style="fill:none;stroke:#263238;stroke-miterlimit:10"></path><path d="M139.72,198.89s5.12,8.1,9.82,10.24a38.59,38.59,0,0,1,8.53,5.55l-4,.85a47.28,47.28,0,0,1,3.62,5.55c1.5,2.77,4.27,7.68,3.63,7.89s-5.12-3-5.12-3,3.63,7.69,3,7.69a26.22,26.22,0,0,1-2.78-.43s-.64,1.71-2.13,1.49-6-4.26-7-5.33a50.56,50.56,0,0,0-4.48-3.42s3.2,9,3.62,9.82-.64,1.07-2.13-.64-5.12-8.32-6-9.82-3.84-7.68-4.48-9.38S132,211.9,132,211.9" style="fill:none;stroke:#263238;stroke-miterlimit:10"></path><path d="M156.36,233.24s-5.76-6-7.46-7.68-3-2.78-3-2.78" style="fill:none;stroke:#263238;stroke-miterlimit:10"></path><path d="M156.15,226s-3.41-3.62-4.48-4.9a18.9,18.9,0,0,0-3.41-2.78" style="fill:none;stroke:#263238;stroke-miterlimit:10"></path><path d="M158.07,214.68s9.18.85,14.72,5.54,7.9,7.9,10.67,10.67,5.55,5.12,7,7.9,3.84,10.24,4.27,11.73.85,4.06,1.28,5.55" style="fill:none;stroke:#263238;stroke-miterlimit:10"></path><path d="M190.5,238.79s4.7-9.82,6.62-13.66" style="fill:none;stroke:#263238;stroke-miterlimit:10"></path><path d="M185.6,278.69s-1.07-12.38-4.91-19.42-14.3-12.37-16-13.44a13.51,13.51,0,0,0-4.06-1.5s-10.24,14.09-9.6,23.48,3.41,15.36,5.33,19.84a11.13,11.13,0,0,1-.85,10.67c-1.49,2.13-3.84,6.61-3.84,6.61a16.25,16.25,0,0,0-3.63,9.39c-.42,6-2.13,22.19-2.13,22.19l-1.5,7.68L139.93,354a7.51,7.51,0,0,0,3,2.56c1.71.64,3.63.21,3.84,2.35s.43,4.48.43,5.12v2.13s-.22,1.5.43,1.5a18.4,18.4,0,0,1,5.76,1.49c2.34,1.07,5.54,1.92,6.4,2.56a29.13,29.13,0,0,0,3,2.35c.86.42,1.93,3.2,1.93,3.2l1.92,2.34s2.77,2.35,4,2.57,7.25-1.07,7.25-1.07,1.92-4.91,1.92-6.4,3-4.06,4.27-5.34,4.7-3.84,5.12-4.9,2.56-3.42,2.78-4.49,4.26-10.66,4.26-11.52a30.32,30.32,0,0,1,1.29-4.48" style="fill:none;stroke:#263238;stroke-miterlimit:10"></path><path d="M185.17,275.91s3,17.93,1.49,23.69-6.83,12.59-9.81,14.51-8.11,9.6-10.67,13.65-7.68,14.51-8.32,17.07a32.65,32.65,0,0,1-2.78,8.54c-1.7,3.2-7,11.31-7,11.31" style="fill:none;stroke:#263238;stroke-miterlimit:10"></path><path d="M182,309l1.49-.64s3-3.2,3.42-4.48,3-6.19,3-6.19.43,1.07,1.07,2.77S192.85,315,192.85,315s3.41-1.28,4.48-2.77,1.5-6.19,1.71-7.26,1.92-3.62,1.92-5.12-2.13-12.59-.85-17.71,6.61-10.67,10.88-18.35S222.08,245,222.08,245" style="fill:none;stroke:#263238;stroke-miterlimit:10"></path><path d="M192.85,315a41.46,41.46,0,0,0-.64,9.18c.21,5.12-1.49,8.53-3.2,9s-3.84-.85-3.84-.85a7.13,7.13,0,0,1-5.34-2.57,40.09,40.09,0,0,1-4.26-5.54S170,340.78,169,343.77s-1.92,7-1.28,9.17-1.92,5.12-1.92,5.12" style="fill:none;stroke:#263238;stroke-miterlimit:10"></path><path d="M157.86,240.07s-10,4.9-11.31,14.72-1.5,20.27-.22,26.46a85.34,85.34,0,0,0,4.7,14.29c.85,2.14,2.13,6.41,1.92,7s-3.84,6-3.84,6-10.67-21.34-11.31-29.66,2.13-18.78,5.55-25.82,2.77-7.68,5.55-9.39S157.86,240.07,157.86,240.07Z" style="fill:none;stroke:#263238;stroke-miterlimit:10"></path><path d="M186.24,282.74s2.34-4.69,4-8.53c1.25-2.81,4-11.56,6-18.06" style="fill:none;stroke:#263238;stroke-miterlimit:10"></path><path d="M193.49,131.46s-2.13-2.35-3-2.35-9.17,7-20.69,7" style="fill:none;stroke:#263238;stroke-miterlimit:10"></path><path d="M148,358.49a22.33,22.33,0,0,0,2.78-4.69c1.49-3.2,1.7-5.76,3.62-12.59S163,323.07,166,319.87s5.54-7.26,3.41-13,0-14.51,0-14.51,1-4.08.74-13-10.7-17.54-11.3-29.44" style="fill:none;stroke:#263238;stroke-miterlimit:10"></path><path d="M202.45,97.11a6.81,6.81,0,0,0,2.35,2.77c1.49.85,1.07,2.35,2.77,5.12s4.48,2.56,6.83,1.07,4.48-1.28,6.4,1.06a7.76,7.76,0,0,0,6.19,3c1.92,0,3.63,1.92,4.27,2.35s10.88,1.28,10.88,1.28l2.13,4" style="fill:none;stroke:#263238;stroke-miterlimit:10"></path><path d="M227.42,108.41a3.24,3.24,0,0,1-2.78-4.69c1.5-4.27,7.05-6.19,3.42-10.24s-5.55-4.7-5.55-7.47,2.56-2.56,4.05-6.4a7.12,7.12,0,0,0-.64-7.26" style="fill:none;stroke:#263238;stroke-miterlimit:10"></path><path d="M219.52,73.63s-2.34,4.49-4.91,5.55-4.69,3.42-4.26,6,.64,3.84-.43,6.18-3.41,5.13-.85,6.62a10.49,10.49,0,0,1,4.48,4.69" style="fill:none;stroke:#263238;stroke-miterlimit:10"></path><path d="M222.51,74.27s-3.63,1.5-3.2,3.63,1.71,2.56,1.28,3.42-4.05,2.56-3.84,5.33,3.63,4.27,3.84,7.25-3.63,3.42-3.2,5.55,3,2.56,3.63,4.48-.64,1.92,1.49,2.78" style="fill:none;stroke:#263238;stroke-miterlimit:10"></path><path d="M229.34,87.72s-1.5-1.5,1.7-3.63,8.33-4.69,8.33-4.69" style="fill:none;stroke:#263238;stroke-miterlimit:10"></path><path d="M239.79,77.48A33.27,33.27,0,0,0,234,76.41a11.53,11.53,0,0,0-5.12.85" style="fill:none;stroke:#263238;stroke-miterlimit:10"></path><path d="M236.59,71.29s-12.16-3.42-17.92-.86" style="fill:none;stroke:#263238;stroke-miterlimit:10"></path><path d="M228.48,58.7s4.91,1.49,4.49,6-2.57,5.12-2.57,5.12" style="fill:none;stroke:#263238;stroke-miterlimit:10"></path><path d="M224.64,60.19s3.42,3.2,3.2,5.55a4.06,4.06,0,0,1-1.7,3.2" style="fill:none;stroke:#263238;stroke-miterlimit:10"></path><path d="M232.33,70.65s4-2.78,4-4.91a6.57,6.57,0,0,0-1.49-3.84" style="fill:none;stroke:#263238;stroke-miterlimit:10"></path><path d="M161.27,229a72.7,72.7,0,0,1,7.9,2.08c4.67,1.47,8.35,5.64,8.35,5.64" style="fill:none;stroke:#263238;stroke-miterlimit:10"></path><path d="M159.11,232.27s.49,1,5.15,2.46,8.84,3.19,11.79,5.64,5.64,7.37,5.64,7.37" style="fill:none;stroke:#263238;stroke-miterlimit:10"></path><path d="M177.52,248.47s-5.4-4.17-10.31-4.9-7.12,0-7.12,0a83.8,83.8,0,0,0-8.1,9.57c-3.44,4.91-5.15,8.84-5.15,11.54" style="fill:none;stroke:#263238;stroke-miterlimit:10"></path><path d="M138.24,265.66a60.18,60.18,0,0,1,0-14.24,89,89,0,0,1,3.2-13.5" style="fill:none;stroke:#263238;stroke-miterlimit:10"></path><path d="M225.5,122.07,223.79,124s-3.2-1.28-4.27-4" style="fill:none"></path><path d="M225.71,125.48l2.56-3.2s-2.35-1.06-5.55-2.77a8.89,8.89,0,0,1-1.92-3.41" style="fill:none"></path><path d="M222.51,134.87s-1.92,1.28-2.77.22l-.86-1.07a27.85,27.85,0,0,1-4.48.85,22.71,22.71,0,0,0-4.48.64c-.64.22-2.35,0-4-1.7s-4.91-9.39-5.12-14.3" style="fill:none"></path><line x1="218.88" y1="134.02" x2="216.32" y2="130.18" style="fill:none"></line><path d="M202.88,128.69s-4,1.06-5.12,3.62" style="fill:none"></path><path d="M103.87,164.32c-1.7-7.47-2.77-13.23-.42-18.14s9.6-14.29,15.57-19,15.37-12.8,19.21-16S154.87,101.8,163.4,101s26.46,2.34,30.52,2.56,8.32-.43,8.11-4.06-2.78-14.08-.86-19a12.94,12.94,0,0,1,10-8.11,35.08,35.08,0,0,0,7.47-1.92s-3.2-2.56.43-6.82S229.55,57,235.31,60.4s4.7,8.33,3.84,9.18a12.4,12.4,0,0,1-2.56,1.71l4.91,4.26s4.05-1.7,5.33-.42a4.62,4.62,0,0,1,1.28,3s1.71-.22,2.35,3.41a39.39,39.39,0,0,1,.22,11.09c-.43,2.78-.43,3.85-.43,9.61s-1.92,12.8-5.34,15.36-5.76,6-9.17,7.47a51.68,51.68,0,0,1-6.62,2.34s-1.49-.85-3.2,1.29a33.3,33.3,0,0,0-3.41,6.18s6.83,10.25,8.53,18.78.43,20.48.43,21.34-1.71,39-1.71,45.45S222.08,245,222.08,245l-1.7,3.42s-4.7,26.24-7.9,34.35-9.81,26.89-10.67,32.22-1.92,16.65-2.13,20.06a44.87,44.87,0,0,1-2.13,9s.42,4.06,1.06,5.12,3,4.27,3.84,4.7,3.42,1.92,3.42,1.92l2.13,4.9s3.2,2.78,4.05,3.42,5.34,3.41,5.34,3.41l1.49,1.71,2.78,4.91,4.05,3V462H111.77V367s1.28-6.41,3.2-7.47,7.25-4.06,8.11-4.48,5.76-2.14,6-2.78,4.27-9.39,4.7-10.24,3.2-5.76,3.2-5.76V317.1s-6.62-25.18-6.62-39.69.43-39.48.43-39.48a19.17,19.17,0,0,1-2.14-7.46c-.21-4.06-1.7-5.34,0-9.18S132,211.9,132,211.9l-13.87-20.7C116.89,189.28,105.58,171.79,103.87,164.32Zm101.78,36.06c.22,6-2.77,12.8-2.56,14.51s3.42,12,3.42,12,4.69-12,4.69-16.22-2.13-12.59-2.13-16.43.42-16.43.42-20.48a42.42,42.42,0,0,1,1.28-9S200.53,180.11,200.32,182,205.44,194.4,205.65,200.38Zm-78.31-36.27c1.71,4,3.85,12.16,6.19,21.33s6.19,13.45,6.19,13.45.64-2.56,1.28-5.55,2.77-16.22,2.77-20.91-2.34-29.66-2.34-29.66c-.64,1.06-18.14,11.09-18.14,11.09S125.64,160.05,127.34,164.11Z" style="fill:none"></path><path d="M163.4,108.63s5.77,1.06,3.63,7-14.51,9.17-14.51,9.17" style="fill:none"></path><path d="M177.75,163.87a19.36,19.36,0,0,1-10.93,6.85,20.45,20.45,0,0,1-11.95-1.28" style="fill:none"></path><path d="M191.78,186.51a14,14,0,0,1-10.45,3.2c-6.4-.64-15.15-.85-21.34-3.84" style="fill:none"></path><path d="M187.09,192.91a16.8,16.8,0,0,1-9,.43c-5.34-1.07-20.7-3.63-22-4.27" style="fill:none"></path><path d="M139.72,198.89s5.12,8.1,9.82,10.24a38.59,38.59,0,0,1,8.53,5.55l-4,.85a47.28,47.28,0,0,1,3.62,5.55c1.5,2.77,4.27,7.68,3.63,7.89s-5.12-3-5.12-3,3.63,7.69,3,7.69a26.22,26.22,0,0,1-2.78-.43s-.64,1.71-2.13,1.49-6-4.26-7-5.33a50.56,50.56,0,0,0-4.48-3.42s3.2,9,3.62,9.82-.64,1.07-2.13-.64-5.12-8.32-6-9.82-3.84-7.68-4.48-9.38S132,211.9,132,211.9" style="fill:none"></path><path d="M156.36,233.24s-5.76-6-7.46-7.68-3-2.78-3-2.78" style="fill:none"></path><path d="M156.15,226s-3.41-3.62-4.48-4.9a18.9,18.9,0,0,0-3.41-2.78" style="fill:none"></path><path d="M158.07,214.68s9.18.85,14.72,5.54,7.9,7.9,10.67,10.67,5.55,5.12,7,7.9,3.84,10.24,4.27,11.73.85,4.06,1.28,5.55" style="fill:none"></path><path d="M190.5,238.79s4.7-9.82,6.62-13.66" style="fill:none"></path><path d="M185.6,278.69s-1.07-12.38-4.91-19.42-14.3-12.37-16-13.44a13.51,13.51,0,0,0-4.06-1.5s-10.24,14.09-9.6,23.48,3.41,15.36,5.33,19.84a11.13,11.13,0,0,1-.85,10.67c-1.49,2.13-3.84,6.61-3.84,6.61a16.25,16.25,0,0,0-3.63,9.39c-.42,6-2.13,22.19-2.13,22.19l-1.5,7.68L139.93,354a7.51,7.51,0,0,0,3,2.56c1.71.64,3.63.21,3.84,2.35s.43,4.48.43,5.12v2.13s-.22,1.5.43,1.5a18.4,18.4,0,0,1,5.76,1.49c2.34,1.07,5.54,1.92,6.4,2.56a29.13,29.13,0,0,0,3,2.35c.86.42,1.93,3.2,1.93,3.2l1.92,2.34s2.77,2.35,4,2.57,7.25-1.07,7.25-1.07,1.92-4.91,1.92-6.4,3-4.06,4.27-5.34,4.7-3.84,5.12-4.9,2.56-3.42,2.78-4.49,4.26-10.66,4.26-11.52a30.32,30.32,0,0,1,1.29-4.48" style="fill:none"></path><path d="M185.17,275.91s3,17.93,1.49,23.69-6.83,12.59-9.81,14.51-8.11,9.6-10.67,13.65-7.68,14.51-8.32,17.07a32.65,32.65,0,0,1-2.78,8.54c-1.7,3.2-7,11.31-7,11.31" style="fill:none"></path><path d="M182,309l1.49-.64s3-3.2,3.42-4.48,3-6.19,3-6.19.43,1.07,1.07,2.77S192.85,315,192.85,315s3.41-1.28,4.48-2.77,1.5-6.19,1.71-7.26,1.92-3.62,1.92-5.12-2.13-12.59-.85-17.71,6.61-10.67,10.88-18.35S222.08,245,222.08,245" style="fill:none"></path><path d="M192.85,315a41.46,41.46,0,0,0-.64,9.18c.21,5.12-1.49,8.53-3.2,9s-3.84-.85-3.84-.85a7.13,7.13,0,0,1-5.34-2.57,40.09,40.09,0,0,1-4.26-5.54S170,340.78,169,343.77s-1.92,7-1.28,9.17-1.92,5.12-1.92,5.12" style="fill:none"></path><path d="M157.86,240.07s-10,4.9-11.31,14.72-1.5,20.27-.22,26.46a85.34,85.34,0,0,0,4.7,14.29c.85,2.14,2.13,6.41,1.92,7s-3.84,6-3.84,6-10.67-21.34-11.31-29.66,2.13-18.78,5.55-25.82,2.77-7.68,5.55-9.39S157.86,240.07,157.86,240.07Z" style="fill:none"></path><path d="M186.24,282.74s2.34-4.69,4-8.53c1.25-2.81,4-11.56,6-18.06" style="fill:none"></path><path d="M193.49,131.46s-2.13-2.35-3-2.35-9.17,7-20.69,7" style="fill:none"></path><path d="M202.45,97.11a6.81,6.81,0,0,0,2.35,2.77c1.49.85,1.07,2.35,2.77,5.12s4.48,2.56,6.83,1.07,4.48-1.28,6.4,1.06a7.76,7.76,0,0,0,6.19,3c1.92,0,3.63,1.92,4.27,2.35s10.88,1.28,10.88,1.28l2.13,4" style="fill:none"></path><path d="M227.42,108.41a3.24,3.24,0,0,1-2.78-4.69c1.5-4.27,7.05-6.19,3.42-10.24s-5.55-4.7-5.55-7.47,2.56-2.56,4.05-6.4a7.12,7.12,0,0,0-.64-7.26" style="fill:none"></path><path d="M219.52,73.63s-2.34,4.49-4.91,5.55-4.69,3.42-4.26,6,.64,3.84-.43,6.18-3.41,5.13-.85,6.62a10.49,10.49,0,0,1,4.48,4.69" style="fill:none"></path><path d="M222.51,74.27s-3.63,1.5-3.2,3.63,1.71,2.56,1.28,3.42-4.05,2.56-3.84,5.33,3.63,4.27,3.84,7.25-3.63,3.42-3.2,5.55,3,2.56,3.63,4.48-.64,1.92,1.49,2.78" style="fill:none"></path><path d="M229.34,87.72s-1.5-1.5,1.7-3.63,8.33-4.69,8.33-4.69" style="fill:none"></path><path d="M239.79,77.48A33.27,33.27,0,0,0,234,76.41a11.53,11.53,0,0,0-5.12.85" style="fill:none"></path><path d="M236.59,71.29s-12.16-3.42-17.92-.86" style="fill:none"></path><path d="M228.48,58.7s4.91,1.49,4.49,6-2.57,5.12-2.57,5.12" style="fill:none"></path><path d="M224.64,60.19s3.42,3.2,3.2,5.55a4.06,4.06,0,0,1-1.7,3.2" style="fill:none"></path><path d="M232.33,70.65s4-2.78,4-4.91a6.57,6.57,0,0,0-1.49-3.84" style="fill:none"></path><path d="M161.27,229a72.7,72.7,0,0,1,7.9,2.08c4.67,1.47,8.35,5.64,8.35,5.64" style="fill:none"></path><path d="M159.11,232.27s.49,1,5.15,2.46,8.84,3.19,11.79,5.64,5.64,7.37,5.64,7.37" style="fill:none"></path><path d="M177.52,248.47s-5.4-4.17-10.31-4.9-7.12,0-7.12,0a83.8,83.8,0,0,0-8.1,9.57c-3.44,4.91-5.15,8.84-5.15,11.54" style="fill:none"></path><path d="M138.24,265.66a60.18,60.18,0,0,1,0-14.24,89,89,0,0,1,3.2-13.5" style="fill:none"></path><polygon points="141.43 142.77 151.03 136.79 143.13 155.14 141.43 142.77" style="opacity:0.2"></polygon><path d="M125.85,151.52s-6.61,1.49-9,1.7-7.26.86-7.26.86,6.62,10,11.74,15.15l10.46,10.45s-7.26-21.55-7.9-23a7.84,7.84,0,0,1-.64-2.78Z" style="opacity:0.2"></path><polygon points="200.6 120.15 199.67 129.69 202.69 128.53 200.6 120.15" style="opacity:0.2"></polygon><path d="M170.6,169.89s9.54-8.39,11.87-10.48,6.29-.93,4.42,4-7,8.38-10.47,8.38A10,10,0,0,1,170.6,169.89Z" style="opacity:0.2"></path><path d="M207.35,134.82s2.33.93,5.12,1.86a68.67,68.67,0,0,1,8.38,3c2.33,1.16,6.52,3.72,6.52,3.72L223,135.28l-2.56.7-2.56-1.4Z" style="opacity:0.2"></path><path d="M228.78,121.93l-4.22,4.67s-1.34,1.33-2-.23a9.71,9.71,0,0,1-.66-3.33l1.78.44,1.78-2-1.56-1.33Z" style="opacity:0.2"></path><path d="M220.41,247.8l-19.36,29.94a22.22,22.22,0,0,0-1.09,8.4c.36,4.38,1.46,12.42,1.09,14.24s-2.19,3.65-2.55,5.84-2.56,6.21-2.56,6.21l-2.19,1.83s-1.46,16.43-3.65,18.25-7.67-1.09-7.67-1.09-3.28-2.92-3.65-4-3.65-3.65-3.65-3.65-7.15,20.47-7.3,24.83a21.67,21.67,0,0,1-1.46,7.3l-3.29,2.19a5.28,5.28,0,0,1-2.56-5.47c.73-3.65,0-9.13,1.1-11.69s2.92-8.4,2.92-8.4-5.48,7.67-6.21,11-2.19,8.4-4,11.32-6.94,10.59-6.94,10.59-1.83,1.46.36,1.82,10.23,1.46,12.42,3.65,3.77,5.85,5.11,7.31a50,50,0,0,0,4.75,4,38.38,38.38,0,0,0,5.84-.36c1.09-.37,2.92-1.1,2.92-1.1s1.1-5.84,2.56-8,7.66-9.86,7.66-9.86l6.94-12.41,1.46-5.85s1.83-6.93,1.83-10.22,2.19-19.35,3.65-24.46,7.3-23.74,9.49-27.39,3.29-9.86,4-11.69S220.41,247.8,220.41,247.8Z" style="opacity:0.2"></path><path d="M182.8,258.75a20.15,20.15,0,0,1-.37-8s3.29,2.56,3.29.37-3.29-11-3.65-12.42,5.47,3.65,7.3,4.75,0,0-2.19-5.11a64,64,0,0,0-4-8l6.57,6.58,6.58,19,4.74,21.91s-1.32,1.39-1.32,6.8,1.75,13.95,1.32,15.84a19.81,19.81,0,0,1-2,4.55s-.8,5.75-1.71,7.26-4.48,2.77-4.48,2.77l-2.32-14.72-.67-2.56a31.28,31.28,0,0,1-3,6.19c-1.38,1.76-4.62,5.71-4.62,5.71s5.74-8.81,4.84-14.22a90.2,90.2,0,0,1-.86-12.62l.7-1.88c-.59-2.25-2.17-8.15-3.05-10.79C182.8,266.79,183.89,263.14,182.8,258.75Z" style="opacity:0.2"></path><path d="M204.34,175.5s-5.48,5.48-8.4,6.21a25.21,25.21,0,0,1-5.47.73,22.16,22.16,0,0,1-4,5.84l-2.56,2.56.73,3.28s5.85,6.21,5.85,13.52-2.24,13.59-4.75,15.33-3.68,5.85-3.68,5.85,5.14,5.11,7.69,8,3.51,7.53,4.25,10.45,2.33,8.53,2.33,8.53l8-23.73,2.19-5.84-4-11.32s3.66-11,3.29-16.07-5.48-15.7-5.48-15.7Z" style="opacity:0.2"></path><path d="M193.75,314.26l-3.22-14v-3.59a74.42,74.42,0,0,1-5,9,44.29,44.29,0,0,1-3.24,3.95s-7.55,5-7.91,6.47-7.18,9.35-8.26,11.87-4.32,6.82-4.68,9.34-5.75,19.41-4.31,22.28,5.75,7.55,7.91,7.19,10.78-6.11,14-9.7,10.06-10.78,11.5-14,3.59-9,3.95-12.94" style="opacity:0.2"></path><path d="M157.82,239.86s-10.29,8.79-10.78,11.86-1.08,27-.72,30.19S151,295.57,151,295.57l2.88,5-4.68,8.63s-8.73-20-10.06-25.16-1.44-17.26,0-21.57,5.39-14.38,6.47-16.17S157.82,239.86,157.82,239.86Z" style="opacity:0.2"></path><line x1="138.28" y1="364.58" x2="125.32" y2="366.9" style="fill:none;stroke:#263238;stroke-miterlimit:10"></line><line x1="134.57" y1="360.88" x2="123.93" y2="364.58" style="fill:none;stroke:#263238;stroke-miterlimit:10"></line><line x1="129.48" y1="358.57" x2="120.69" y2="361.34" style="fill:none;stroke:#263238;stroke-miterlimit:10"></line><line x1="116.52" y1="362.73" x2="123.46" y2="368.75" style="fill:none;stroke:#263238;stroke-miterlimit:10"></line><line x1="116.98" y1="367.36" x2="121.61" y2="371.53" style="fill:none;stroke:#263238;stroke-miterlimit:10"></line><line x1="117.45" y1="370.6" x2="121.15" y2="372.92" style="fill:none;stroke:#263238;stroke-miterlimit:10"></line><line x1="128.09" y1="369.21" x2="123.93" y2="376.16" style="fill:none;stroke:#263238;stroke-miterlimit:10"></line><line x1="129.94" y1="374.31" x2="127.17" y2="378.93" style="fill:none;stroke:#263238;stroke-miterlimit:10"></line><line x1="134.11" y1="369.21" x2="138.28" y2="373.84" style="fill:none;stroke:#263238;stroke-miterlimit:10"></line><line x1="138.28" y1="368.29" x2="143.37" y2="374.31" style="fill:none;stroke:#263238;stroke-miterlimit:10"></line><line x1="140.13" y1="337.27" x2="140.13" y2="349.77" style="fill:none;stroke:#263238;stroke-miterlimit:10"></line><line x1="135.96" y1="342.37" x2="137.35" y2="353.01" style="fill:none;stroke:#263238;stroke-miterlimit:10"></line><line x1="138.74" y1="356.72" x2="134.11" y2="350.7" style="fill:none;stroke:#263238;stroke-miterlimit:10"></line><line x1="131.33" y1="352.55" x2="135.5" y2="356.25" style="fill:none;stroke:#263238;stroke-miterlimit:10"></line><line x1="219.74" y1="387.27" x2="212.34" y2="391.9" style="fill:none;stroke:#263238;stroke-miterlimit:10"></line><line x1="217.43" y1="384.95" x2="210.49" y2="389.58" style="fill:none;stroke:#263238;stroke-miterlimit:10"></line><line x1="205.86" y1="389.58" x2="210.02" y2="392.36" style="fill:none;stroke:#263238;stroke-miterlimit:10"></line><line x1="202.62" y1="390.51" x2="206.78" y2="393.75" style="fill:none;stroke:#263238;stroke-miterlimit:10"></line><line x1="199.38" y1="390.51" x2="202.15" y2="395.14" style="fill:none;stroke:#263238;stroke-miterlimit:10"></line><line x1="197.53" y1="394.67" x2="189.19" y2="395.14" style="fill:none;stroke:#263238;stroke-miterlimit:10"></line><polyline points="197.06 396.99 189.66 400.23 179.94 392.82" style="fill:none;stroke:#263238;stroke-miterlimit:10"></polyline><line x1="177.35" y1="403.54" x2="203.14" y2="426.19" style="fill:none;stroke:#263238;stroke-miterlimit:10"></line><line x1="175.47" y1="416.75" x2="204.4" y2="435.62" style="fill:none;stroke:#263238;stroke-miterlimit:10"></line><polyline points="205.66 439.4 189.3 448.2 192.45 453.86 188.68 458.27" style="fill:none;stroke:#263238;stroke-miterlimit:10"></polyline><line x1="218.24" y1="401.66" x2="209.43" y2="418.64" style="fill:none;stroke:#263238;stroke-miterlimit:10"></line><line x1="208.17" y1="406.06" x2="203.77" y2="413.61" style="fill:none;stroke:#263238;stroke-miterlimit:10"></line><line x1="220.75" y1="407.95" x2="212.58" y2="419.27" style="fill:none;stroke:#263238;stroke-miterlimit:10"></line><line x1="220.75" y1="422.41" x2="215.09" y2="428.7" style="fill:none;stroke:#263238;stroke-miterlimit:10"></line><line x1="176.72" y1="409.83" x2="187.42" y2="419.9" style="fill:none;stroke:#263238;stroke-miterlimit:10"></line><line x1="176.72" y1="426.19" x2="174.21" y2="439.4" style="fill:none;stroke:#263238;stroke-miterlimit:10"></line><line x1="181.76" y1="434.36" x2="179.24" y2="441.91" style="fill:none;stroke:#263238;stroke-miterlimit:10"></line><line x1="176.7" y1="393.28" x2="182.71" y2="399.3" style="fill:none;stroke:#263238;stroke-miterlimit:10"></line><path d="M144.24,265.33s7-12.54,8.11-14.38,7-6.63,7-6.63S152.72,258,152,262s.37,14.37,3,19.9,3.68,10.32,2.95,12.9-4.85,7.58-5.53,8.85-6.64-10.69-9.22-19.9S144.24,265.33,144.24,265.33Z" style="opacity:0.2"></path><path d="M242.78,113s1.24-4.17,2.29-10a67.43,67.43,0,0,0,1-10.62s-5.42-.42-7.29-4.58,0-6,0-6" style="fill:none;stroke:#263238;stroke-miterlimit:10"></path><path d="M159.29,368.45l6,9.71,3.32,2.81c-3.13-5.69,7.18-14.53,7.18-14.53s6-5.1,9.26-7.87,11.57-10.65,11.57-10.65l5.55,11.57-.46,6.95,5.56-.93,6.48,3.7,7.56,7.93c.91.09,1.69.22,1.69.22v1.55l.47.49-.47,0v81.83H165.23v-65L157,387.92l-1-8.25-7.59-6.27-.66-6.2Z" style="opacity:0.2"></path></g><g id="Character"><path d="M366,195.8s-1.22,1.14,3.44,1.38,6.14-.74,4.91,1.72-6.14,3.68-6.14,3.68,5.65,2.46,6.39,6.14-5.89,1.22-5.89,1.22.24,7.12-2,10.81-13.5,3.43-16.69,3.43-11.29-6.13-11.29-9.08,1.47-9.33,1.23-19.64,7.11-18.16,8.83-18.9S365,190.25,366,195.8Z" style="fill:#263238;stroke:#263238;stroke-linecap:round;stroke-linejoin:round"></path><path d="M296.67,448.43s-15.81,7.09-17.43,8.39,0,5.16,0,5.16h43.89a8.45,8.45,0,0,0,.64-4.84c-.32-3.23-3.23-6.78-3.23-6.78l-22.26-3.87Z" style="fill:#696969;stroke:#263238;stroke-linecap:round;stroke-linejoin:round"></path><path d="M279.24,462h43.89a7,7,0,0,0,.68-2.91H278.54A10.52,10.52,0,0,0,279.24,462Z" style="fill:#fff;stroke:#263238;stroke-linecap:round;stroke-linejoin:round"></path><path d="M331.84,448.43s-15.81,7.09-17.43,8.39,0,5.16,0,5.16H358.3a8.45,8.45,0,0,0,.64-4.84c-.32-3.23-.64-5.49-.64-5.49l-24.85-5.16Z" style="fill:#696969;stroke:#263238;stroke-linecap:round;stroke-linejoin:round"></path><path d="M314.41,462H358.3a7,7,0,0,0,.68-2.91H313.71A10.52,10.52,0,0,0,314.41,462Z" style="fill:#fff;stroke:#263238;stroke-linecap:round;stroke-linejoin:round"></path><path d="M290.54,291.93S286,315.17,286,335.82s6.54,58.51,7.51,63.35,5.79,22,5.79,25.9.57,11.42.25,13.68-1.61,6.45-1.29,7.74,5.16,2.58,9.68,2.58a107.49,107.49,0,0,1,12.58,1.29s1-12.26.65-20.65-2.58-38.72-2.58-43.88,1-27.43,1-27.43.64-21,2.9-30.33,4.84-35.17,4.84-35.17L293.44,290Z" style="fill:#263238;stroke:#263238;stroke-linecap:round;stroke-linejoin:round"></path><path d="M310.54,318.39s6.13,27.11,7.42,45.18,9.36,48.07,10.65,57.11,2.9,18.39,2.9,19.68v5.48a12,12,0,0,0,.33,2.59s7.74,0,12.58,1.61,14.2,3.87,14.2,3.87a22.06,22.06,0,0,0,0-6.77c-.65-2.59-1.94-6.78-2.26-7.75s-2.58-37.43-1.61-44.53-1.29-22.58-2.58-27.1-1.94-7.74-1.94-9.36,10-22.58,11.29-42.59,1.29-23.55,1.29-23.55-10,2.25-24.52,1S306,291.93,306,291.93" style="fill:#263238;stroke:#263238;stroke-linecap:round;stroke-linejoin:round"></path><path d="M340.87,300s1,10,3.55,14.2,10,5.16,10,5.16" style="fill:none;stroke:#8a8a8a;stroke-linecap:round;stroke-linejoin:round"></path><polyline points="316.85 372.28 308.34 325.81 300.49 322.53" style="fill:none;stroke:#8a8a8a;stroke-linecap:round;stroke-linejoin:round"></polyline><path d="M357,310.65s-8.71,46.46-10.32,49.37a46,46,0,0,0-2.58,5.48l1.93,2.9s4.84,21.62,4.52,36.14,1,31.62,2.91,36.79,2.58,8.39,2.58,9.35" style="fill:none;stroke:#8a8a8a;stroke-linecap:round;stroke-linejoin:round"></path><line x1="310.54" y1="299.03" x2="308.93" y2="314.2" style="fill:none;stroke:#8a8a8a;stroke-linecap:round;stroke-linejoin:round"></line><polyline points="309.57 311.62 313.12 311.62 314.09 300.97" style="fill:none;stroke:#8a8a8a;stroke-linecap:round;stroke-linejoin:round"></polyline><path d="M318.81,218.45s-18.32-.32-20.29,2.3-12.44,19-12.44,19L280.85,224a63.47,63.47,0,0,1-2.48-13.38l-10.28-3.8s.32,20.45.65,29.94a63.4,63.4,0,0,0,3.93,21.28c2.29,6.54,6.21,8.83,7.85,9.16s17.35-8.84,17.35-8.84-6.55,26.51-8.51,29.13-4.26,4.91-2.29,6.88,6.87,1,9.16,1S316.85,299,328,299h27.16a30.92,30.92,0,0,0,9.17-2.29c2.94-1.31,4.91-3.93,3.27-7.86s-3.93-9.49-3.93-11.13,13.09-45.49,10.48-48.76-19.31-9.17-26.51-10.8S318.81,218.45,318.81,218.45Z" style="fill:#92E3A9;stroke:#263238;stroke-linecap:round;stroke-linejoin:round"></path><path d="M312.8,219s-5.81,22.91-10.33,40.66a263.82,263.82,0,0,0-6.13,37.43h3.88S307,258.05,311.83,239s5.49-20.65,5.49-20.65Z" style="fill:#263238;stroke:#263238;stroke-linecap:round;stroke-linejoin:round"></path><path d="M348.79,218.21s-11.14,26-14.05,44-6.13,38.07-6.13,38.07l5.16-.32s-1.61-8.07,8.07-49.69a151.87,151.87,0,0,1,11-30.65Z" style="fill:#263238;stroke:#263238;stroke-linecap:round;stroke-linejoin:round"></path><path d="M279.4,218.27a70.79,70.79,0,0,1-1-7.63l-10.28-3.8s.08,4.75.19,10.73C270.27,219.22,274,221,279.4,218.27Z" style="fill:#fff;stroke:#263238;stroke-linecap:round;stroke-linejoin:round"></path><path d="M324.66,176.85s-6.4,19.94-6.89,24.86-2.71,19.45-1.23,22.65,5.91.74,5.91.74-5.17,21.17-1.48,20.68,25.85-23.88,26.84-25.36a4.7,4.7,0,0,0,1-2.21l.25-4.44,2.46-6.64s7.88-3.7,7.14-8.87-7.14-3.2-8.62-2.21a11.36,11.36,0,0,1-2.21,1.23s-1.24-.74-2-4.19a14,14,0,0,1,1.72-9.35,25,25,0,0,0,2-3.94l-23.39-4.19Z" style="fill:#fff;stroke:#263238;stroke-linecap:round;stroke-linejoin:round"></path><path d="M350,196.05a11.36,11.36,0,0,1-2.21,1.23,3.66,3.66,0,0,1-1.13-1.57c-1,3.28-2.23,8.46-4.05,10.43-2.7,3-8.09,1.65-7.95-1.63.21-5.07-1.27-4.12-4.23-4.86s-10.63-1.35-12.5.87a11.6,11.6,0,0,0-.18,1.19c-.49,4.93-2.71,19.45-1.23,22.65s5.91.74,5.91.74,17.48-2,21.17-7.14c3-4.24,6.06-17.6,7.05-22.26A4.67,4.67,0,0,0,350,196.05Z" style="fill:#263238;stroke:#263238;stroke-linecap:round;stroke-linejoin:round"></path><path d="M327.23,185.19s-7.53,10.67-6.13,11.9a11.33,11.33,0,0,0,5.6,1.92,6,6,0,0,0,2.45-.87" style="fill:none;stroke:#263238;stroke-linecap:round;stroke-linejoin:round"></path><path d="M324.14,203.85a13.5,13.5,0,0,0,7.37-1.24" style="fill:none;stroke:#fff;stroke-linecap:round;stroke-linejoin:round;stroke-width:2px"></path><path d="M334.4,189.39c-.22,1.14-.82,2-1.34,1.88s-.77-1.11-.55-2.24.82-2,1.34-1.88S334.62,188.25,334.4,189.39Z" style="fill:#263238"></path><path d="M325.72,187.3c-.22,1.14-.82,2-1.34,1.88s-.77-1.11-.55-2.25.82-2,1.35-1.87S325.94,186.16,325.72,187.3Z" style="fill:#263238"></path><path d="M322.68,191.84a10.78,10.78,0,0,1-3.85-.7c-1.4-.7-4.2-5.95-1.75-7.87s10.67,1,10.67,1a2.91,2.91,0,0,1,3.32,1.22s1.23-.7,5.25-.17c1.85.24,5.18.39,6.61,1.8,2.76,2.75-2.45,7.13-5,7.64-4.38.88-7.17.18-8.4-1.92s1.23-6.3,1.23-6.3-1.58-1.92-4.2-.17" style="fill:none;stroke:#263238;stroke-linecap:round;stroke-linejoin:round"></path><line x1="343.67" y1="189.92" x2="353.11" y2="195.16" style="fill:none;stroke:#263238;stroke-linecap:round;stroke-linejoin:round"></line><path d="M310.88,174.88s11.81,5.41,22.15,5.9,15.76,1,15.76,1l17.23,14s4.93-6.4,4.19-10.58a28.59,28.59,0,0,0-8.37-15.51c-5.17-4.68-23.64-6.41-30.28-4.68s-7.64,7.14-6.9,8.12c0,0-9.11-.74-13.05,1.23Z" style="fill:#696969;stroke:#263238;stroke-linecap:round;stroke-linejoin:round"></path><path d="M324.66,173.15s13.54,4.93,19.7,6.65,7.38,1.72,12.31,5.17a57.2,57.2,0,0,1,9.85,8.86" style="fill:none;stroke:#263238;stroke-linecap:round;stroke-linejoin:round"></path><polygon points="287.52 263.86 282.77 262.2 295.11 228.66 298.77 229.94 287.52 263.86" style="fill:#fff;stroke:#263238;stroke-linecap:round;stroke-linejoin:round"></polygon><rect x="287.54" y="219.11" width="21.63" height="13.66" rx="2.09" transform="translate(91.27 -85.8) rotate(19.27)" style="fill:#696969;stroke:#263238;stroke-linecap:round;stroke-linejoin:round"></rect><path d="M363.4,231.73s-7.21,7.41-9.06,13.18-9.06,17.49-9.06,17.49-34.38-9.88-36.43-11.52-9.06-11.53-10.3-12.77-10.5-3.7-12.14-3.29-1,3.09-1,3.09l.62.82s-2.47,1.44-2.47,2.88a15.13,15.13,0,0,0,.41,3.09s-1,2.47-.41,3.09,1.23.82,1.23,1.44.62,1.24,1.65,1.85a24.84,24.84,0,0,0,4.11,1.44,28.55,28.55,0,0,0,6.18,4.33,37.66,37.66,0,0,0,7.41,2.26s32.32,20.38,35.41,21.62,16.26,5.55,19.14,4.11,16.06-28,18.32-35.61,2.47-15.64.21-18.53-7.82-4.32-7.82-4.32" style="fill:#92E3A9;stroke:#263238;stroke-linecap:round;stroke-linejoin:round"></path><path d="M312.49,252.38a19.52,19.52,0,0,1-3.64-1.5c-2.06-1.65-9.06-11.53-10.3-12.77s-10.5-3.7-12.14-3.29-1,3.09-1,3.09l.62.82s-2.47,1.44-2.47,2.88a15.13,15.13,0,0,0,.41,3.09s-1,2.47-.41,3.09,1.23.82,1.23,1.44.62,1.24,1.65,1.85a24.84,24.84,0,0,0,4.11,1.44,28.55,28.55,0,0,0,6.18,4.33,37.66,37.66,0,0,0,7.41,2.26l4.47,2.81Z" style="fill:#fff;stroke:#263238;stroke-linecap:round;stroke-linejoin:round"></path><path d="M238,185.07l23.74,13.79,1-1.69-23.84-13.86a4.11,4.11,0,0,0-1.92-4.5l-6.94-4-4.14,7.12,6.94,4A4.11,4.11,0,0,0,238,185.07Z" style="fill:#fff;stroke:#263238;stroke-linecap:round;stroke-linejoin:round"></path><path d="M274.51,195h4.07a1.36,1.36,0,0,1,1.36,1.36v21.49a0,0,0,0,1,0,0h-6.79a0,0,0,0,1,0,0V196.37A1.36,1.36,0,0,1,274.51,195Z" transform="translate(593.96 71.04) rotate(120.16)" style="fill:#696969;stroke:#263238;stroke-linecap:round;stroke-linejoin:round"></path><polygon points="260.13 200.04 262.87 195.34 268.37 197.75 264.95 203.63 260.13 200.04" style="fill:#696969;stroke:#263238;stroke-linecap:round;stroke-linejoin:round"></polygon><path d="M268.57,198s-2.7,6.35-2.54,7.3,1.58,1.91,2.06,1.59,3.5-7,3.5-7.94S269.68,197.31,268.57,198Z" style="fill:#fff;stroke:#263238;stroke-linecap:round;stroke-linejoin:round"></path><path d="M272,198.8s-3.5,8.23-3.3,9.47,2.06,2.47,2.68,2,4.53-9,4.53-10.29S273.44,198,272,198.8Z" style="fill:#fff;stroke:#263238;stroke-linecap:round;stroke-linejoin:round"></path><path d="M275.91,200s-4,8.24-3.76,9.47,2.35,2.47,3.05,2.06,5.18-9.06,5.18-10.29S277.56,199.21,275.91,200Z" style="fill:#fff;stroke:#263238;stroke-linecap:round;stroke-linejoin:round"></path><path d="M280.38,201.27a19.16,19.16,0,0,1,3.56,2.06c1.23,1-.83,3.08-2.27,4.73s-1.74,4-3.44,4.18a5.47,5.47,0,0,1-3-.68S279.91,204.35,280.38,201.27Z" style="fill:#fff;stroke:#263238;stroke-linecap:round;stroke-linejoin:round"></path><path d="M271.38,210.32s-2.06,3.3-.21,4.12,4.95,3.29,6,2.68,2.27-2.88,2.06-3.5S271.38,210.32,271.38,210.32Z" style="fill:#fff;stroke:#263238;stroke-linecap:round;stroke-linejoin:round"></path></g><g id="Floor"><line x1="11.37" y1="461.98" x2="484.63" y2="461.98" style="fill:none;stroke:#263238;stroke-miterlimit:10"></line></g></svg>