<svg xmlns="http://www.w3.org/2000/svg" viewBox="0 0 750 500"><g id="background-simple"><g><path d="M735.09,213.14c-2.74-40.59-28.08-79.3-65.31-108.81-21.78-17.26-47.73-32.25-75.83-43.75-29.16-11.94-60.88-25.32-95.47-26.75-8.54-.35-17.25,.08-25.57,1.96-31.86,7.17,32.85,29.01,41.33,32.23-90.15-23.94-183.43-48.22-280.55-43.72-18.73,.87-38.1,2.99-54.25,10.39-16.16,7.4-28.29,21.28-25.21,34.72,2.54,11.11,14.23,23.33,4.21,32.27-2.86,2.55-7.02,4.12-11.1,5.48-20.97,7.01-43.77,10.93-63.54,19.7-30.61,13.58-50.8,37.79-59.52,62.99-8.72,25.2-7.03,51.46-1.98,76.81,9.5,47.7,31.53,94.76,73.37,131.14,59.77,51.96,154.99,77.07,249.32,79.56,114.14,3.02,236.31-27.85,308.6-94.88,10.72-9.94,20.47-20.91,23.97-33.17,3.5-12.26-.36-26.07-13.23-33.8-3.47-2.08-7.91-4.28-7.7-7.63,.29-4.54,8.23-6.23,14.3-7.31,39.8-7.07,61.2-40.53,63.97-70.27,.53-5.74,.59-11.46,.21-17.15Z" style="fill:#92E3A9;"></path><path d="M735.09,213.14c-2.74-40.59-28.08-79.3-65.31-108.81-21.78-17.26-47.73-32.25-75.83-43.75-29.16-11.94-60.88-25.32-95.47-26.75-8.54-.35-17.25,.08-25.57,1.96-31.86,7.17,32.85,29.01,41.33,32.23-90.15-23.94-183.43-48.22-280.55-43.72-18.73,.87-38.1,2.99-54.25,10.39-16.16,7.4-28.29,21.28-25.21,34.72,2.54,11.11,14.23,23.33,4.21,32.27-2.86,2.55-7.02,4.12-11.1,5.48-20.97,7.01-43.77,10.93-63.54,19.7-30.61,13.58-50.8,37.79-59.52,62.99-8.72,25.2-7.03,51.46-1.98,76.81,9.5,47.7,31.53,94.76,73.37,131.14,59.77,51.96,154.99,77.07,249.32,79.56,114.14,3.02,236.31-27.85,308.6-94.88,10.72-9.94,20.47-20.91,23.97-33.17,3.5-12.26-.36-26.07-13.23-33.8-3.47-2.08-7.91-4.28-7.7-7.63,.29-4.54,8.23-6.23,14.3-7.31,39.8-7.07,61.2-40.53,63.97-70.27,.53-5.74,.59-11.46,.21-17.15Z" style="fill:#fff; opacity:.7;"></path></g></g><g id="Clouds"><path d="M215.08,101.79c2.89-1.7,5.33-5.1,8.1-7.27,7.06-5.52,15.7-8.81,24.72-8.62,20.69,.42,29.13,22.8,31.66,23.64,2.53,.84,8.02-8.02,17.31-6.33s10.98,9.29,13.93,11.4c2.96,2.11,10.98-3.8,16.04-2.11,5.07,1.69,4.22,7.18,9.29,7.6,5.07,.42,8.02-2.11,11.82-1.27,3.8,.84,6.33,4.64,6.33,4.64-58.69,0-117.39-.01-176.08,0-42.91,0-85.82,0-128.73,0,4.63-7.83,11.09-15.06,19.66-18.12,13.07-4.66,27.21,1.29,40.9,3.53,1.37,.22,2.85,.39,4.08-.25,1.65-.87,2.27-2.88,2.7-4.7,2.45-10.37,3.8-21.34,9.53-30.32,8.94-14.03,28.63-20.01,43.86-13.33,14.31,6.27,22.65,20.94,31.03,34.13,1.68,2.65,3.48,5.35,6.12,7.04,3.07,1.97,5.53,1.65,7.73,.35Z" style="fill:none; stroke:#263238; stroke-miterlimit:10;"></path><path d="M481.73,149.9c1.66-.98,3.06-2.93,4.66-4.18,4.06-3.18,9.03-5.06,14.22-4.96,11.9,.24,16.75,13.11,18.21,13.6,1.46,.49,4.61-4.61,9.95-3.64,5.34,.97,6.31,5.34,8.01,6.56,1.7,1.21,6.31-2.19,9.23-1.21,2.91,.97,2.43,4.13,5.34,4.37,2.91,.24,4.61-1.21,6.8-.73,2.19,.49,3.64,2.67,3.64,2.67-33.76,0-67.51,0-101.27,0-24.68,0-49.36,0-74.04,0,2.66-4.5,6.38-8.66,11.3-10.42,7.51-2.68,15.65,.74,23.52,2.03,.79,.13,1.64,.23,2.35-.15,.95-.5,1.31-1.66,1.55-2.7,1.41-5.96,2.19-12.27,5.48-17.44,5.14-8.07,16.46-11.51,25.23-7.67,8.23,3.61,13.03,12.04,17.85,19.63,.97,1.52,2,3.08,3.52,4.05,1.77,1.13,3.18,.95,4.45,.2Z" style="fill:none; stroke:#263238; stroke-miterlimit:10;"></path><path d="M628.76,66.4c1.4-.82,2.57-2.46,3.91-3.51,3.41-2.67,7.59-4.25,11.95-4.17,9.99,.2,14.07,11.01,15.3,11.42,1.22,.41,3.88-3.88,8.36-3.06,4.49,.82,5.3,4.49,6.73,5.51,1.43,1.02,5.3-1.84,7.75-1.02,2.45,.82,2.04,3.47,4.49,3.67,2.45,.2,3.88-1.02,5.71-.61,1.84,.41,3.06,2.24,3.06,2.24-28.36,0-56.72,0-85.08,0-20.73,0-41.47,0-62.2,0,2.24-3.78,5.36-7.28,9.5-8.76,6.31-2.25,13.15,.62,19.76,1.7,.66,.11,1.38,.19,1.97-.12,.8-.42,1.1-1.39,1.31-2.27,1.19-5.01,1.84-10.31,4.6-14.65,4.32-6.78,13.83-9.67,21.19-6.44,6.91,3.03,10.94,10.12,14.99,16.49,.81,1.28,1.68,2.58,2.96,3.4,1.48,.95,2.67,.8,3.74,.17Z" style="fill:none; stroke:#263238; stroke-miterlimit:10;"></path></g><g id="Mountains"><g><path d="M723.66,328.1c5.13,4.55,8.06,7.18,8.06,7.18" style="fill:none; stroke:#263238; stroke-miterlimit:10;"></path><path d="M564.48,198.86c43.24,28.04,121.62,96.1,153.34,124.09" style="fill:none; stroke:#263238; stroke-miterlimit:10;"></path><path d="M256.38,219.24c59.08,17.65,143.92,55.32,143.92,55.32,0,0,114.53-81.5,136.67-87.89,3.47-1,10.64,1.96,20.26,7.67" style="fill:none; stroke:#263238; stroke-miterlimit:10;"></path><path d="M7.84,311.31s164.16-95.08,200.05-100.67c8.59-1.34,24.09,1.62,42.69,6.91" style="fill:none; stroke:#263238; stroke-miterlimit:10;"></path></g></g><g id="Trees"><g><path d="M674.17,193.64c0,36.93-21.85,66.87-48.79,66.87s-48.79-29.94-48.79-66.87,21.85-163.85,48.79-163.85,48.79,126.92,48.79,163.85Z" style="fill:#92E3A9;"></path><path d="M674.17,193.64c0,36.93-21.85,66.87-48.79,66.87s-48.79-29.94-48.79-66.87,21.85-163.85,48.79-163.85,48.79,126.92,48.79,163.85Z" style="fill:#fff; opacity:.38;"></path><polygon points="599.01 196.96 614.57 202.39 622.28 212.87 620.94 244.96 611.96 238.87 620.66 251.6 618.01 442.77 629.8 442.77 626.88 227.21 652.73 212.97 637.96 218.43 640.92 209.54 633.86 219.95 626.8 222.55 626.3 193.35 651.97 159.25 638.21 173 640.54 163.44 633.96 177.26 626.16 185.06 625.37 139.43 622.57 205.98 598.25 180.2 611.61 198.36 599.01 196.96" style="fill:#787878;"></polygon><g><path d="M652.21,139.57s.45,4.48-2,7.77c-2.45,3.29-6.87,4.14-6.87,4.14,0,0-.45-4.48,2-7.77,2.45-3.29,6.87-4.14,6.87-4.14Z" style="fill:#fff;"></path><path d="M666.92,160.23s.45,4.48-2,7.77c-2.45,3.29-6.87,4.14-6.87,4.14,0,0-.45-4.48,2-7.77,2.45-3.29,6.87-4.14,6.87-4.14Z" style="fill:#fff;"></path><path d="M666.91,200.47s-1.08,4.37-4.5,6.65c-3.41,2.27-7.87,1.59-7.87,1.59,0,0,1.08-4.37,4.5-6.65,3.41-2.27,7.87-1.59,7.87-1.59Z" style="fill:#fff;"></path><path d="M586.15,200.47s1.08,4.37,4.5,6.65c3.42,2.27,7.87,1.59,7.87,1.59,0,0-1.08-4.37-4.5-6.65-3.42-2.27-7.87-1.59-7.87-1.59Z" style="fill:#fff;"></path><path d="M649.93,183.77s.45,4.48-2,7.77c-2.45,3.29-6.87,4.14-6.87,4.14,0,0-.45-4.48,2-7.77,2.45-3.29,6.87-4.14,6.87-4.14Z" style="fill:#fff;"></path><path d="M646.12,117.09s.45,4.48-2,7.77c-2.45,3.29-6.87,4.14-6.87,4.14,0,0-.45-4.48,2-7.77,2.45-3.29,6.87-4.14,6.87-4.14Z" style="fill:#fff;"></path><path d="M637.36,134.24s.45,4.48-2,7.77-6.87,4.14-6.87,4.14c0,0-.45-4.48,2-7.77,2.45-3.29,6.87-4.14,6.87-4.14Z" style="fill:#fff;"></path><path d="M658.16,121.76s.45,4.48-2,7.77c-2.45,3.29-6.87,4.14-6.87,4.14,0,0-.45-4.48,2-7.77,2.45-3.29,6.87-4.14,6.87-4.14Z" style="fill:#fff;"></path><path d="M590.56,121.76s-.45,4.48,2,7.77c2.45,3.29,6.87,4.14,6.87,4.14,0,0,.45-4.48-2-7.77-2.45-3.29-6.87-4.14-6.87-4.14Z" style="fill:#fff;"></path><path d="M648.02,96.14s.45,4.48-2,7.77c-2.45,3.29-6.87,4.14-6.87,4.14,0,0-.45-4.48,2-7.77,2.45-3.29,6.87-4.14,6.87-4.14Z" style="fill:#fff;"></path><path d="M643.72,73.88s1.56,4.23,.02,8.03c-1.54,3.8-5.61,5.74-5.61,5.74,0,0-1.56-4.23-.02-8.03,1.55-3.8,5.61-5.74,5.61-5.74Z" style="fill:#fff;"></path><path d="M612.86,68.06s3.99,2.09,5.39,5.95c1.4,3.86-.32,8.02-.32,8.02,0,0-3.99-2.09-5.39-5.95-1.4-3.86,.32-8.02,.32-8.02Z" style="fill:#fff;"></path><path d="M627.25,94.68s2.84,3.5,2.61,7.59c-.24,4.1-3.46,7.24-3.46,7.24,0,0-2.84-3.5-2.61-7.59,.24-4.1,3.46-7.24,3.46-7.24Z" style="fill:#fff;"></path><path d="M626.49,55.06s2.84,3.5,2.61,7.59c-.24,4.1-3.46,7.24-3.46,7.24,0,0-2.84-3.5-2.61-7.59,.24-4.1,3.46-7.24,3.46-7.24Z" style="fill:#fff;"></path><path d="M594.19,139.57s-.45,4.48,2,7.77,6.87,4.14,6.87,4.14c0,0,.45-4.48-2-7.77-2.45-3.29-6.87-4.14-6.87-4.14Z" style="fill:#fff;"></path><path d="M585.81,163.95s-.45,4.48,2,7.77c2.45,3.29,6.87,4.14,6.87,4.14,0,0,.45-4.48-2-7.77-2.45-3.29-6.87-4.14-6.87-4.14Z" style="fill:#fff;"></path><path d="M608.06,172.81s-.45,4.48,2,7.77c2.45,3.29,6.87,4.14,6.87,4.14,0,0,.45-4.48-2-7.77-2.45-3.29-6.87-4.14-6.87-4.14Z" style="fill:#fff;"></path><path d="M614.14,139.02s-1.72,4.17-.31,8.02c1.41,3.86,5.4,5.94,5.4,5.94,0,0,1.72-4.17,.31-8.02-1.41-3.85-5.4-5.94-5.4-5.94Z" style="fill:#fff;"></path><path d="M598.39,228.92s4.5,.08,7.58-2.63c3.08-2.71,3.57-7.19,3.57-7.19,0,0-4.5-.08-7.58,2.63-3.08,2.71-3.57,7.19-3.57,7.19Z" style="fill:#fff;"></path><path d="M641.62,224s1.22,4.34,4.71,6.5c3.49,2.16,7.91,1.33,7.91,1.33,0,0-1.22-4.34-4.71-6.5-3.49-2.16-7.91-1.33-7.91-1.33Z" style="fill:#fff;"></path><path d="M603.41,117.09s-.45,4.48,2,7.77c2.45,3.29,6.87,4.14,6.87,4.14,0,0,.45-4.48-2-7.77-2.45-3.29-6.87-4.14-6.87-4.14Z" style="fill:#fff;"></path><path d="M603.34,97.28s-.45,4.48,2,7.77c2.45,3.29,6.87,4.14,6.87,4.14,0,0,.45-4.48-2-7.77-2.45-3.29-6.87-4.14-6.87-4.14Z" style="fill:#fff;"></path></g></g><g><path d="M155.83,239.84c0,30.08-17.8,54.47-39.75,54.47s-39.75-24.39-39.75-54.47,17.8-133.47,39.75-133.47,39.75,103.39,39.75,133.47Z" style="fill:#92E3A9;"></path><path d="M155.83,239.84c0,30.08-17.8,54.47-39.75,54.47s-39.75-24.39-39.75-54.47,17.8-133.47,39.75-133.47,39.75,103.39,39.75,133.47Z" style="fill:#fff; opacity:.38;"></path><polygon points="94.62 242.55 107.29 246.97 113.57 255.5 112.48 281.64 105.17 276.68 112.25 287.05 110.1 442.77 119.69 442.77 117.32 267.19 138.37 255.58 126.34 260.03 128.75 252.79 123 261.27 117.25 263.39 116.84 239.6 137.75 211.82 126.55 223.03 128.44 215.24 123.08 226.49 116.73 232.85 116.09 195.68 113.81 249.89 94 228.89 104.88 243.69 94.62 242.55" style="fill:#787878;"></polygon><g><path d="M137.95,195.8s.37,3.65-1.63,6.33c-2,2.68-5.6,3.38-5.6,3.38,0,0-.37-3.65,1.63-6.33,2-2.68,5.6-3.38,5.6-3.38Z" style="fill:#fff;"></path><path d="M149.93,212.63s.37,3.65-1.63,6.33c-2,2.68-5.6,3.38-5.6,3.38,0,0-.37-3.65,1.63-6.33,2-2.68,5.6-3.38,5.6-3.38Z" style="fill:#fff;"></path><path d="M149.93,245.4s-.88,3.56-3.66,5.41c-2.78,1.85-6.41,1.29-6.41,1.29,0,0,.88-3.56,3.66-5.41,2.78-1.85,6.41-1.29,6.41-1.29Z" style="fill:#fff;"></path><path d="M84.14,245.4s.88,3.56,3.66,5.41c2.78,1.85,6.41,1.29,6.41,1.29,0,0-.88-3.56-3.67-5.41-2.78-1.85-6.41-1.29-6.41-1.29Z" style="fill:#fff;"></path><path d="M136.09,231.79s.37,3.65-1.63,6.33c-2,2.68-5.6,3.38-5.6,3.38,0,0-.37-3.65,1.63-6.33,2-2.68,5.6-3.38,5.6-3.38Z" style="fill:#fff;"></path><path d="M132.99,177.49s.37,3.65-1.63,6.33c-2,2.68-5.6,3.38-5.6,3.38,0,0-.37-3.65,1.63-6.33,2-2.68,5.6-3.38,5.6-3.38Z" style="fill:#fff;"></path><path d="M125.85,191.45s.37,3.65-1.63,6.33c-2,2.68-5.6,3.38-5.6,3.38,0,0-.37-3.65,1.63-6.33,2-2.68,5.6-3.38,5.6-3.38Z" style="fill:#fff;"></path><path d="M142.8,181.28s.37,3.65-1.63,6.33-5.6,3.38-5.6,3.38c0,0-.37-3.65,1.63-6.33,2-2.68,5.6-3.38,5.6-3.38Z" style="fill:#fff;"></path><path d="M87.73,181.28s-.37,3.65,1.63,6.33c2,2.68,5.6,3.38,5.6,3.38,0,0,.37-3.65-1.63-6.33-2-2.68-5.6-3.38-5.6-3.38Z" style="fill:#fff;"></path><path d="M134.54,160.42s.37,3.65-1.63,6.33c-2,2.68-5.6,3.38-5.6,3.38,0,0-.37-3.65,1.63-6.33,2-2.68,5.6-3.38,5.6-3.38Z" style="fill:#fff;"></path><path d="M131.03,142.29s1.27,3.44,.01,6.54c-1.26,3.1-4.57,4.67-4.57,4.67,0,0-1.27-3.44-.01-6.54,1.26-3.1,4.57-4.67,4.57-4.67Z" style="fill:#fff;"></path><path d="M105.9,137.55s3.25,1.7,4.39,4.84c1.14,3.14-.26,6.53-.26,6.53,0,0-3.25-1.7-4.39-4.84-1.14-3.14,.26-6.53,.26-6.53Z" style="fill:#fff;"></path><path d="M117.62,159.23s2.32,2.85,2.12,6.18c-.19,3.34-2.82,5.9-2.82,5.9,0,0-2.32-2.85-2.12-6.18s2.82-5.9,2.82-5.9Z" style="fill:#fff;"></path><path d="M117,126.95s2.32,2.85,2.12,6.18c-.19,3.34-2.82,5.9-2.82,5.9,0,0-2.32-2.85-2.12-6.18,.19-3.34,2.82-5.9,2.82-5.9Z" style="fill:#fff;"></path><path d="M90.69,195.8s-.37,3.65,1.63,6.33c2,2.68,5.6,3.38,5.6,3.38,0,0,.37-3.65-1.63-6.33-2-2.68-5.6-3.38-5.6-3.38Z" style="fill:#fff;"></path><path d="M83.86,215.66s-.37,3.65,1.63,6.33c2,2.68,5.6,3.38,5.6,3.38,0,0,.37-3.65-1.63-6.33-2-2.68-5.6-3.38-5.6-3.38Z" style="fill:#fff;"></path><path d="M101.99,222.87s-.37,3.65,1.63,6.33c2,2.68,5.6,3.38,5.6,3.38,0,0,.37-3.65-1.63-6.33-2-2.68-5.6-3.38-5.6-3.38Z" style="fill:#fff;"></path><path d="M106.94,195.35s-1.4,3.39-.25,6.53c1.14,3.14,4.4,4.84,4.4,4.84,0,0,1.4-3.39,.25-6.53-1.14-3.14-4.4-4.84-4.4-4.84Z" style="fill:#fff;"></path><path d="M94.11,268.58s3.67,.07,6.18-2.14c2.51-2.21,2.9-5.86,2.9-5.86,0,0-3.67-.07-6.18,2.14-2.51,2.21-2.91,5.86-2.91,5.86Z" style="fill:#fff;"></path><path d="M129.32,264.56s1,3.53,3.84,5.29c2.84,1.76,6.45,1.09,6.45,1.09,0,0-1-3.53-3.84-5.29-2.84-1.76-6.45-1.09-6.45-1.09Z" style="fill:#fff;"></path><path d="M98.2,177.49s-.37,3.65,1.63,6.33c2,2.68,5.6,3.38,5.6,3.38,0,0,.37-3.65-1.63-6.33-2-2.68-5.6-3.38-5.6-3.38Z" style="fill:#fff;"></path><path d="M98.14,161.35s-.37,3.65,1.63,6.33c2,2.68,5.6,3.38,5.6,3.38,0,0,.37-3.65-1.63-6.33-2-2.68-5.6-3.38-5.6-3.38Z" style="fill:#fff;"></path></g></g><g><path d="M470.43,221.07c0,32.86-19.44,59.51-43.42,59.51s-43.42-26.64-43.42-59.51,19.44-145.82,43.42-145.82,43.42,112.95,43.42,145.82Z" style="fill:#92E3A9;"></path><path d="M470.43,221.07c0,32.86-19.44,59.51-43.42,59.51s-43.42-26.64-43.42-59.51,19.44-145.82,43.42-145.82,43.42,112.95,43.42,145.82Z" style="fill:#fff; opacity:.38;"></path><polygon points="403.55 224.02 417.4 228.85 424.26 238.18 423.06 266.73 415.08 261.32 422.82 272.64 420.46 442.77 430.95 442.77 428.36 250.94 451.36 238.26 438.21 243.12 440.85 235.21 434.56 244.47 428.29 246.8 427.84 220.8 450.68 190.46 438.44 202.7 440.51 194.19 434.65 206.48 427.71 213.43 427.01 172.82 424.52 232.04 402.88 209.1 414.77 225.27 403.55 224.02" style="fill:#787878;"></polygon><g><path d="M450.9,172.95s.4,3.99-1.78,6.92c-2.18,2.93-6.12,3.69-6.12,3.69,0,0-.4-3.99,1.78-6.92,2.18-2.93,6.12-3.69,6.12-3.69Z" style="fill:#fff;"></path><path d="M463.99,191.34s.4,3.99-1.78,6.92c-2.18,2.93-6.12,3.69-6.12,3.69,0,0-.4-3.99,1.78-6.92,2.18-2.93,6.12-3.69,6.12-3.69Z" style="fill:#fff;"></path><path d="M463.98,227.14s-.96,3.89-4,5.92c-3.04,2.02-7,1.41-7,1.41,0,0,.96-3.89,4-5.92,3.04-2.02,7-1.41,7-1.41Z" style="fill:#fff;"></path><path d="M392.1,227.14s.96,3.89,4,5.92c3.04,2.02,7,1.41,7,1.41,0,0-.96-3.89-4-5.92-3.04-2.02-7-1.41-7-1.41Z" style="fill:#fff;"></path><path d="M448.87,212.28s.4,3.99-1.78,6.92c-2.18,2.93-6.12,3.69-6.12,3.69,0,0-.4-3.99,1.78-6.92,2.18-2.93,6.12-3.69,6.12-3.69Z" style="fill:#fff;"></path><path d="M445.47,152.94s.4,3.99-1.78,6.92c-2.18,2.93-6.12,3.69-6.12,3.69,0,0-.4-3.99,1.78-6.92,2.18-2.93,6.12-3.69,6.12-3.69Z" style="fill:#fff;"></path><path d="M437.68,168.2s.4,3.99-1.78,6.92c-2.18,2.93-6.12,3.69-6.12,3.69,0,0-.4-3.99,1.78-6.92,2.18-2.93,6.12-3.69,6.12-3.69Z" style="fill:#fff;"></path><path d="M456.19,157.09s.4,3.99-1.78,6.92c-2.18,2.93-6.12,3.69-6.12,3.69,0,0-.4-3.99,1.78-6.92,2.18-2.93,6.12-3.69,6.12-3.69Z" style="fill:#fff;"></path><path d="M396.03,157.09s-.4,3.99,1.78,6.92c2.18,2.93,6.12,3.69,6.12,3.69,0,0,.4-3.99-1.78-6.92-2.18-2.93-6.12-3.69-6.12-3.69Z" style="fill:#fff;"></path><path d="M447.17,134.3s.4,3.99-1.78,6.92c-2.18,2.93-6.12,3.69-6.12,3.69,0,0-.4-3.99,1.78-6.92,2.18-2.93,6.12-3.69,6.12-3.69Z" style="fill:#fff;"></path><path d="M443.34,114.49s1.39,3.76,.02,7.14c-1.37,3.38-5,5.11-5,5.11,0,0-1.39-3.76-.02-7.14,1.38-3.38,5-5.11,5-5.11Z" style="fill:#fff;"></path><path d="M415.88,109.31s3.55,1.86,4.8,5.29c1.24,3.43-.29,7.14-.29,7.14,0,0-3.55-1.86-4.8-5.29-1.25-3.43,.29-7.14,.29-7.14Z" style="fill:#fff;"></path><path d="M428.68,133s2.53,3.11,2.32,6.76c-.21,3.65-3.08,6.45-3.08,6.45,0,0-2.53-3.11-2.32-6.76,.21-3.65,3.08-6.45,3.08-6.45Z" style="fill:#fff;"></path><path d="M428.01,97.74s2.53,3.11,2.32,6.76c-.21,3.65-3.08,6.44-3.08,6.44,0,0-2.53-3.11-2.32-6.76s3.08-6.45,3.08-6.45Z" style="fill:#fff;"></path><path d="M399.27,172.95s-.4,3.99,1.78,6.92c2.18,2.93,6.12,3.69,6.12,3.69,0,0,.4-3.99-1.78-6.92-2.18-2.93-6.12-3.69-6.12-3.69Z" style="fill:#fff;"></path><path d="M391.81,194.65s-.4,3.99,1.78,6.92c2.18,2.93,6.12,3.69,6.12,3.69,0,0,.4-3.99-1.78-6.92-2.18-2.93-6.12-3.69-6.12-3.69Z" style="fill:#fff;"></path><path d="M411.61,202.52s-.4,3.99,1.78,6.92c2.18,2.93,6.12,3.69,6.12,3.69,0,0,.4-3.99-1.78-6.92-2.18-2.93-6.12-3.69-6.12-3.69Z" style="fill:#fff;"></path><path d="M417.02,172.46s-1.53,3.71-.28,7.14c1.25,3.43,4.81,5.29,4.81,5.29,0,0,1.53-3.71,.28-7.14-1.25-3.43-4.81-5.28-4.81-5.28Z" style="fill:#fff;"></path><path d="M403,252.46s4.01,.07,6.75-2.34c2.74-2.41,3.17-6.4,3.17-6.4,0,0-4.01-.07-6.75,2.34-2.74,2.41-3.17,6.4-3.17,6.4Z" style="fill:#fff;"></path><path d="M441.47,248.08s1.09,3.86,4.19,5.78c3.1,1.93,7.04,1.19,7.04,1.19,0,0-1.09-3.86-4.19-5.78-3.1-1.93-7.04-1.19-7.04-1.19Z" style="fill:#fff;"></path><path d="M407.47,152.94s-.4,3.99,1.78,6.92c2.18,2.93,6.12,3.69,6.12,3.69,0,0,.4-3.99-1.78-6.92-2.18-2.93-6.12-3.69-6.12-3.69Z" style="fill:#fff;"></path><path d="M407.4,135.31s-.4,3.99,1.78,6.92c2.18,2.93,6.12,3.69,6.12,3.69,0,0,.4-3.99-1.78-6.92-2.18-2.93-6.12-3.69-6.12-3.69Z" style="fill:#fff;"></path></g></g><g><path d="M265.46,273.41c0,25.11-14.85,45.46-33.17,45.46s-33.17-20.35-33.17-45.46,14.85-111.39,33.17-111.39,33.17,86.29,33.17,111.39Z" style="fill:#92E3A9;"></path><path d="M265.46,273.41c0,25.11-14.85,45.46-33.17,45.46s-33.17-20.35-33.17-45.46,14.85-111.39,33.17-111.39,33.17,86.29,33.17,111.39Z" style="fill:#fff; opacity:.38;"></path><polygon points="214.37 275.67 224.95 279.36 230.19 286.48 229.27 308.29 223.18 304.16 229.08 312.81 227.29 442.77 235.3 442.77 233.32 296.23 250.89 286.54 240.84 290.26 242.86 284.21 238.06 291.29 233.26 293.06 232.92 273.21 250.37 250.02 241.02 259.38 242.6 252.87 238.13 262.27 232.82 267.57 232.29 236.55 230.39 281.79 213.85 264.27 222.93 276.62 214.37 275.67" style="fill:#787878;"></polygon><g><path d="M250.54,236.65s.31,3.05-1.36,5.28c-1.67,2.24-4.67,2.82-4.67,2.82,0,0-.31-3.05,1.36-5.28,1.67-2.24,4.67-2.82,4.67-2.82Z" style="fill:#fff;"></path><path d="M260.54,250.7s.31,3.05-1.36,5.29c-1.67,2.24-4.67,2.82-4.67,2.82,0,0-.31-3.05,1.36-5.28,1.67-2.24,4.67-2.82,4.67-2.82Z" style="fill:#fff;"></path><path d="M260.53,278.05s-.74,2.97-3.06,4.52c-2.32,1.55-5.35,1.08-5.35,1.08,0,0,.74-2.97,3.06-4.52,2.32-1.55,5.35-1.08,5.35-1.08Z" style="fill:#fff;"></path><path d="M205.62,278.05s.74,2.97,3.06,4.52c2.32,1.55,5.35,1.08,5.35,1.08,0,0-.74-2.97-3.06-4.52-2.32-1.55-5.35-1.08-5.35-1.08Z" style="fill:#fff;"></path><path d="M248.98,266.69s.31,3.05-1.36,5.28c-1.67,2.24-4.67,2.82-4.67,2.82,0,0-.31-3.05,1.36-5.28s4.67-2.82,4.67-2.82Z" style="fill:#fff;"></path><path d="M246.39,221.37s.31,3.05-1.36,5.28c-1.67,2.24-4.67,2.82-4.67,2.82,0,0-.31-3.05,1.36-5.28,1.67-2.24,4.67-2.82,4.67-2.82Z" style="fill:#fff;"></path><path d="M240.44,233.02s.31,3.05-1.36,5.28c-1.67,2.24-4.67,2.82-4.67,2.82,0,0-.31-3.05,1.36-5.28,1.67-2.24,4.67-2.82,4.67-2.82Z" style="fill:#fff;"></path><path d="M254.58,224.54s.31,3.05-1.36,5.28c-1.67,2.24-4.67,2.82-4.67,2.82,0,0-.31-3.05,1.36-5.28,1.67-2.24,4.67-2.82,4.67-2.82Z" style="fill:#fff;"></path><path d="M208.62,224.54s-.31,3.05,1.36,5.28c1.67,2.24,4.67,2.82,4.67,2.82,0,0,.31-3.05-1.36-5.28-1.67-2.24-4.67-2.82-4.67-2.82Z" style="fill:#fff;"></path><path d="M247.69,207.12s.31,3.05-1.36,5.28c-1.67,2.24-4.67,2.82-4.67,2.82,0,0-.31-3.05,1.36-5.28,1.67-2.24,4.67-2.82,4.67-2.82Z" style="fill:#fff;"></path><path d="M244.76,191.99s1.06,2.87,.01,5.46c-1.05,2.58-3.82,3.9-3.82,3.9,0,0-1.06-2.87-.01-5.46,1.05-2.58,3.82-3.9,3.82-3.9Z" style="fill:#fff;"></path><path d="M223.78,188.04s2.71,1.42,3.66,4.04c.95,2.62-.22,5.45-.22,5.45,0,0-2.71-1.42-3.66-4.04-.95-2.62,.22-5.45,.22-5.45Z" style="fill:#fff;"></path><path d="M233.57,206.13s1.93,2.38,1.77,5.16c-.16,2.78-2.35,4.92-2.35,4.92,0,0-1.93-2.38-1.77-5.16,.16-2.78,2.35-4.92,2.35-4.92Z" style="fill:#fff;"></path><path d="M233.05,179.2s1.93,2.38,1.77,5.16c-.16,2.78-2.35,4.92-2.35,4.92,0,0-1.93-2.38-1.77-5.16s2.35-4.92,2.35-4.92Z" style="fill:#fff;"></path><path d="M211.09,236.65s-.31,3.05,1.36,5.28c1.67,2.24,4.67,2.82,4.67,2.82,0,0,.31-3.05-1.36-5.28-1.67-2.24-4.67-2.82-4.67-2.82Z" style="fill:#fff;"></path><path d="M205.4,253.23s-.31,3.05,1.36,5.28c1.67,2.24,4.67,2.82,4.67,2.82,0,0,.31-3.05-1.36-5.28-1.67-2.24-4.67-2.82-4.67-2.82Z" style="fill:#fff;"></path><path d="M220.52,259.24s-.31,3.05,1.36,5.28c1.67,2.24,4.67,2.82,4.67,2.82,0,0,.31-3.05-1.36-5.29-1.67-2.24-4.67-2.82-4.67-2.82Z" style="fill:#fff;"></path><path d="M224.66,236.27s-1.17,2.83-.21,5.45c.96,2.62,3.67,4.04,3.67,4.04,0,0,1.17-2.83,.21-5.45-.96-2.62-3.67-4.04-3.67-4.04Z" style="fill:#fff;"></path><path d="M213.95,297.39s3.06,.06,5.16-1.79c2.09-1.84,2.42-4.89,2.42-4.89,0,0-3.06-.06-5.16,1.79-2.09,1.84-2.42,4.89-2.42,4.89Z" style="fill:#fff;"></path><path d="M243.33,294.04s.83,2.95,3.2,4.42c2.37,1.47,5.38,.91,5.38,.91,0,0-.83-2.95-3.2-4.42-2.37-1.47-5.38-.91-5.38-.91Z" style="fill:#fff;"></path><path d="M217.36,221.37s-.31,3.05,1.36,5.28c1.67,2.24,4.67,2.82,4.67,2.82,0,0,.31-3.05-1.36-5.28-1.67-2.24-4.67-2.82-4.67-2.82Z" style="fill:#fff;"></path><path d="M217.31,207.9s-.31,3.05,1.36,5.28c1.67,2.24,4.67,2.82,4.67,2.82,0,0,.31-3.05-1.36-5.28-1.67-2.24-4.67-2.82-4.67-2.82Z" style="fill:#fff;"></path></g></g></g><g id="Plants"><g><g><g><path d="M664.4,427.57c-8.26,1.94-15.17,7.73-18.6,15.4h.47c3.41-7.47,10.16-13.1,18.23-14.99,.12-.03,.19-.14,.16-.26-.03-.12-.14-.19-.26-.16Z" style="fill:#787878;"></path><g><path d="M652.1,440.11c-2.03-1.68-5.24,1.1-5.19,1.2-.23,.39-.44,.79-.65,1.19,.45-.41,1.92-.64,3.85-.21,1.93,.36,3.98-.66,1.99-2.18Z" style="fill:#787878;"></path><path d="M646.03,435.54c-2.05-1.57-3.05,1.84-1.71,3.44,1.26,1.6,1.94,2.91,1.91,3.51,.18-.42,.37-.83,.57-1.24-.1-.01,1.11-4.15-.77-5.71Z" style="fill:#787878;"></path></g><g><path d="M654.7,437.2c-1.72-1.99-5.32,.18-5.29,.28-.29,.34-.56,.69-.83,1.05,.5-.32,1.99-.29,3.82,.47,1.84,.69,4.02,.05,2.31-1.8Z" style="fill:#787878;"></path><path d="M649.48,431.68c-1.76-1.89-3.3,1.28-2.24,3.07,.97,1.79,1.43,3.18,1.3,3.76,.25-.38,.5-.74,.76-1.11-.1-.03,1.77-3.86,.17-5.72Z" style="fill:#787878;"></path></g><g><path d="M657.74,434.78c-1.36-2.25-5.27-.72-5.25-.62-.34,.29-.67,.58-.99,.89,.55-.23,2,.06,3.67,1.11,1.69,.99,3.94,.72,2.57-1.38Z" style="fill:#787878;"></path><path d="M653.52,428.46c-1.41-2.16-3.46,.71-2.71,2.64,.66,1.92,.88,3.37,.66,3.91,.3-.33,.61-.64,.93-.95-.09-.04,2.37-3.5,1.12-5.6Z" style="fill:#787878;"></path></g><g><path d="M661.15,432.89c-.97-2.44-5.08-1.59-5.08-1.49-.38,.23-.75,.46-1.12,.71,.58-.13,1.96,.39,3.43,1.71,1.5,1.26,3.77,1.37,2.77-.93Z" style="fill:#787878;"></path><path d="M658.05,425.96c-1.03-2.37-3.54,.13-3.12,2.16,.33,2.01,.31,3.47,0,3.97,.35-.27,.71-.53,1.08-.78-.09-.05,2.93-3.06,2.05-5.34Z" style="fill:#787878;"></path></g><g><path d="M664.86,431.6c-.55-2.57-4.78-2.41-4.79-2.31-.41,.16-.83,.33-1.23,.51,.59-.04,1.87,.71,3.1,2.26,1.27,1.49,3.51,1.98,2.91-.46Z" style="fill:#787878;"></path><path d="M662.97,424.24c-.62-2.51-3.54-.46-3.48,1.61-.01,2.03-.29,3.47-.67,3.92,.39-.21,.79-.41,1.2-.6-.08-.07,3.43-2.53,2.95-4.93Z" style="fill:#787878;"></path></g><g><path d="M662.47,428.32c-.06-.03,3.13-2.18,5.21-2.52,2.03-.39,2.81,1.04,2.47,1.88-.32,.85-1.75,1.06-2.96,.99-1.19-.17-4.7-.41-4.72-.35Z" style="fill:#787878;"></path><path d="M662.42,428.45h-.02c-.05-.04-.08-.1-.07-.16h0c.01-.05,.02-.08,.07-.1,.51-.49,3.47-2.24,5.25-2.53,1-.19,1.86,.03,2.35,.63,.35,.43,.46,.99,.28,1.45-.44,1.15-2.48,1.12-3.1,1.08-1.16-.16-4.36-.38-4.67-.36-.03,.01-.07,.01-.1,0Zm6.75-2.43c-.34-.14-.81-.21-1.46-.08-1.64,.27-3.95,1.66-4.8,2.23,.3,.01,.77,.04,1.5,.1,.94,.07,2.17,.17,2.81,.26,1.16,.07,2.51-.13,2.8-.9,.14-.36,.05-.81-.24-1.16-.12-.14-.31-.32-.61-.44Z" style="fill:#787878;"></path></g></g><g><path d="M643.98,442.98c-3.27-7.64-2.84-16.53,1.31-23.81,.06-.1,.02-.23-.08-.29-.1-.06-.23-.02-.29,.08-4.19,7.34-4.66,16.31-1.41,24.03h.47Z" style="fill:#787878;"></path><g><path d="M645.74,436.49c-2.61,.34-2.76,4.59-2.65,4.62,.13,.43,.27,.86,.43,1.29,0-.61,.83-1.84,2.47-2.97,1.58-1.17,2.23-3.36-.25-2.95Z" style="fill:#787878;"></path><path d="M638.26,437.83c-2.55,.43-.72,3.49,1.35,3.59,2.03,.17,3.45,.56,3.87,.99-.18-.42-.36-.84-.52-1.26-.08,.07-2.28-3.64-4.71-3.32Z" style="fill:#787878;"></path></g><g><path d="M645.38,432.6c-2.63-.09-3.49,4.02-3.4,4.07,.06,.44,.12,.88,.2,1.32,.11-.59,1.14-1.65,2.94-2.48,1.76-.88,2.77-2.91,.26-2.91Z" style="fill:#787878;"></path><path d="M637.78,432.67c-2.58,0-1.3,3.29,.72,3.73,1.97,.5,3.3,1.12,3.64,1.6-.11-.44-.2-.87-.29-1.31-.09,.05-1.63-3.92-4.07-4.02Z" style="fill:#787878;"></path></g><g><path d="M645.67,428.73c-2.57-.53-4.11,3.37-4.03,3.42-.02,.44-.03,.89-.03,1.33,.21-.56,1.4-1.43,3.31-1.93,1.88-.57,3.21-2.4,.74-2.82Z" style="fill:#787878;"></path><path d="M638.17,427.52c-2.54-.43-1.83,3.02,.09,3.79,1.86,.82,3.07,1.65,3.32,2.18-.03-.44-.05-.89-.07-1.33-.09,.04-.95-4.12-3.34-4.63Z" style="fill:#787878;"></path></g><g><path d="M646.61,424.95c-2.45-.95-4.62,2.64-4.55,2.71-.09,.43-.18,.87-.25,1.3,.3-.51,1.62-1.17,3.59-1.35,1.95-.24,3.57-1.83,1.2-2.66Z" style="fill:#787878;"></path><path d="M639.42,422.5c-2.44-.85-2.31,2.68-.55,3.76,1.7,1.12,2.75,2.13,2.91,2.7,.04-.44,.09-.88,.16-1.32-.1,.03-.25-4.23-2.52-5.13Z" style="fill:#787878;"></path></g><g><path d="M648.18,421.36c-2.26-1.35-5.02,1.86-4.95,1.93-.16,.41-.32,.83-.46,1.25,.38-.46,1.79-.89,3.77-.74,1.96,.08,3.84-1.23,1.65-2.45Z" style="fill:#787878;"></path><path d="M641.51,417.73c-2.26-1.25-2.75,2.28-1.19,3.64,1.48,1.39,2.35,2.57,2.41,3.16,.11-.43,.24-.86,.38-1.28-.11,.02,.48-4.24-1.61-5.52Z" style="fill:#787878;"></path></g><g><path d="M644.15,420.87c-.07,.02,.53-3.78,1.7-5.53,1.1-1.76,2.67-1.35,3.06-.53,.4,.81-.41,2.01-1.29,2.84-.93,.76-3.5,3.17-3.47,3.22Z" style="fill:#787878;"></path><path d="M644.21,421h-.02c-.06,.02-.12,0-.16-.05h0s-.04-.07-.01-.12c-.01-.71,.71-4.07,1.72-5.57,.54-.86,1.29-1.34,2.06-1.29,.55,.03,1.04,.34,1.25,.78,.54,1.1-.87,2.58-1.32,3.01-.91,.74-3.25,2.93-3.44,3.17-.01,.03-.04,.06-.07,.07Zm2.82-6.6c-.33,.15-.71,.45-1.06,1.01-.92,1.38-1.47,4.03-1.63,5.04,.21-.21,.55-.53,1.09-1.03,.69-.64,1.61-1.47,2.1-1.88,.84-.8,1.61-1.93,1.25-2.67-.17-.35-.56-.59-1.01-.62-.18-.01-.44,.01-.74,.15Z" style="fill:#787878;"></path></g></g></g><g><g><path d="M89.69,427.57c-8.26,1.94-15.17,7.73-18.6,15.4h.47c3.41-7.47,10.16-13.1,18.23-14.99,.12-.03,.19-.14,.16-.26-.03-.12-.14-.19-.26-.16Z" style="fill:#787878;"></path><g><path d="M77.4,440.11c-2.03-1.68-5.24,1.1-5.19,1.2-.23,.39-.44,.79-.65,1.19,.45-.41,1.92-.64,3.85-.21,1.93,.36,3.98-.66,1.99-2.18Z" style="fill:#787878;"></path><path d="M71.32,435.54c-2.05-1.57-3.05,1.84-1.71,3.44,1.26,1.6,1.94,2.91,1.91,3.51,.18-.42,.37-.83,.57-1.24-.1-.01,1.11-4.15-.77-5.71Z" style="fill:#787878;"></path></g><g><path d="M80,437.2c-1.72-1.99-5.32,.18-5.29,.28-.29,.34-.56,.69-.83,1.05,.5-.32,1.99-.29,3.82,.47,1.84,.69,4.02,.05,2.31-1.8Z" style="fill:#787878;"></path><path d="M74.78,431.68c-1.76-1.89-3.3,1.28-2.24,3.07,.97,1.79,1.43,3.18,1.3,3.76,.25-.38,.5-.74,.76-1.11-.1-.03,1.77-3.86,.17-5.72Z" style="fill:#787878;"></path></g><g><path d="M83.04,434.78c-1.36-2.25-5.27-.72-5.25-.62-.34,.29-.67,.58-.99,.89,.55-.23,2,.06,3.67,1.11,1.69,.99,3.94,.72,2.57-1.38Z" style="fill:#787878;"></path><path d="M78.82,428.46c-1.41-2.16-3.46,.71-2.71,2.64,.66,1.92,.88,3.37,.66,3.91,.3-.33,.61-.64,.93-.95-.09-.04,2.37-3.5,1.12-5.6Z" style="fill:#787878;"></path></g><g><path d="M86.44,432.89c-.97-2.44-5.08-1.59-5.08-1.49-.38,.23-.75,.46-1.12,.71,.58-.13,1.96,.39,3.43,1.71,1.5,1.26,3.77,1.37,2.77-.93Z" style="fill:#787878;"></path><path d="M83.34,425.96c-1.03-2.37-3.54,.13-3.12,2.16,.33,2.01,.31,3.47,0,3.97,.35-.27,.71-.53,1.08-.78-.09-.05,2.93-3.06,2.05-5.34Z" style="fill:#787878;"></path></g><g><path d="M90.15,431.6c-.55-2.57-4.78-2.41-4.79-2.31-.41,.16-.83,.33-1.23,.51,.59-.04,1.87,.71,3.1,2.26,1.27,1.49,3.51,1.98,2.91-.46Z" style="fill:#787878;"></path><path d="M88.26,424.24c-.62-2.51-3.54-.46-3.48,1.61-.01,2.03-.29,3.47-.67,3.92,.39-.21,.79-.41,1.2-.6-.08-.07,3.43-2.53,2.95-4.93Z" style="fill:#787878;"></path></g><g><path d="M87.76,428.32c-.06-.03,3.13-2.18,5.21-2.52,2.03-.39,2.81,1.04,2.47,1.88-.32,.85-1.75,1.06-2.96,.99-1.19-.17-4.7-.41-4.72-.35Z" style="fill:#787878;"></path><path d="M87.71,428.45h-.02c-.05-.04-.08-.1-.07-.16h0c.01-.05,.02-.08,.07-.1,.51-.49,3.47-2.24,5.25-2.53,1-.19,1.86,.03,2.35,.63,.35,.43,.46,.99,.28,1.45-.44,1.15-2.48,1.12-3.1,1.08-1.16-.16-4.36-.38-4.67-.36-.03,.01-.07,.01-.1,0Zm6.75-2.43c-.34-.14-.81-.21-1.46-.08-1.64,.27-3.95,1.66-4.8,2.23,.3,.01,.77,.04,1.5,.1,.94,.07,2.17,.17,2.81,.26,1.16,.07,2.51-.13,2.8-.9,.14-.36,.05-.81-.24-1.16-.12-.14-.31-.32-.61-.44Z" style="fill:#787878;"></path></g></g><g><path d="M69.28,442.98c-3.27-7.64-2.84-16.53,1.31-23.81,.06-.1,.02-.23-.08-.29-.1-.06-.23-.02-.29,.08-4.19,7.34-4.66,16.31-1.41,24.03h.47Z" style="fill:#787878;"></path><g><path d="M71.03,436.49c-2.61,.34-2.76,4.59-2.65,4.62,.13,.43,.27,.86,.43,1.29,0-.61,.83-1.84,2.47-2.97,1.58-1.17,2.23-3.36-.25-2.95Z" style="fill:#787878;"></path><path d="M63.55,437.83c-2.55,.43-.73,3.49,1.35,3.59,2.03,.17,3.45,.56,3.87,.99-.18-.42-.36-.84-.52-1.26-.08,.07-2.28-3.64-4.71-3.32Z" style="fill:#787878;"></path></g><g><path d="M70.67,432.6c-2.63-.09-3.49,4.02-3.4,4.07,.06,.44,.12,.88,.2,1.32,.11-.59,1.14-1.65,2.94-2.48,1.76-.88,2.77-2.91,.26-2.91Z" style="fill:#787878;"></path><path d="M63.07,432.67c-2.58,0-1.3,3.29,.72,3.73,1.97,.5,3.3,1.12,3.64,1.6-.11-.44-.2-.87-.29-1.31-.09,.05-1.63-3.92-4.07-4.02Z" style="fill:#787878;"></path></g><g><path d="M70.97,428.73c-2.57-.53-4.11,3.37-4.03,3.42-.02,.44-.03,.89-.03,1.33,.21-.56,1.4-1.43,3.31-1.93,1.88-.57,3.21-2.4,.74-2.82Z" style="fill:#787878;"></path><path d="M63.46,427.52c-2.54-.43-1.83,3.02,.09,3.79,1.86,.82,3.07,1.65,3.32,2.18-.03-.44-.06-.89-.07-1.33-.09,.04-.95-4.12-3.34-4.63Z" style="fill:#787878;"></path></g><g><path d="M71.9,424.95c-2.45-.95-4.62,2.64-4.55,2.71-.09,.43-.18,.87-.25,1.3,.3-.51,1.62-1.17,3.59-1.35,1.95-.24,3.57-1.83,1.2-2.66Z" style="fill:#787878;"></path><path d="M64.71,422.5c-2.44-.85-2.31,2.68-.55,3.76,1.7,1.12,2.75,2.13,2.91,2.7,.04-.44,.09-.88,.16-1.32-.1,.03-.25-4.23-2.52-5.13Z" style="fill:#787878;"></path></g><g><path d="M73.48,421.36c-2.26-1.35-5.02,1.86-4.95,1.93-.16,.41-.32,.83-.46,1.25,.38-.46,1.79-.89,3.77-.74,1.96,.08,3.84-1.23,1.65-2.45Z" style="fill:#787878;"></path><path d="M66.8,417.73c-2.26-1.25-2.75,2.28-1.19,3.64,1.48,1.39,2.35,2.57,2.41,3.16,.11-.43,.24-.86,.38-1.28-.11,.02,.48-4.24-1.61-5.52Z" style="fill:#787878;"></path></g><g><path d="M69.45,420.87c-.07,.02,.53-3.78,1.7-5.53,1.1-1.76,2.67-1.35,3.06-.53,.4,.81-.41,2.01-1.29,2.84-.93,.76-3.5,3.17-3.47,3.22Z" style="fill:#787878;"></path><path d="M69.51,421h-.02c-.06,.02-.12,0-.16-.05h0s-.04-.07-.01-.12c-.01-.71,.71-4.07,1.72-5.57,.54-.86,1.29-1.34,2.06-1.29,.55,.03,1.04,.34,1.25,.78,.54,1.1-.87,2.58-1.32,3.01-.91,.74-3.25,2.93-3.44,3.17-.01,.03-.04,.06-.07,.07Zm2.82-6.6c-.33,.15-.71,.45-1.06,1.01-.92,1.38-1.47,4.03-1.63,5.04,.21-.21,.55-.53,1.09-1.03,.69-.64,1.61-1.47,2.1-1.88,.84-.8,1.61-1.93,1.25-2.67-.17-.35-.56-.59-1.01-.62-.18-.01-.44,.01-.74,.15Z" style="fill:#787878;"></path></g></g></g><g><g><g><path d="M407.4,427.57c-8.26,1.94-15.17,7.73-18.6,15.4h.47c3.41-7.47,10.16-13.1,18.23-14.99,.12-.03,.19-.14,.16-.26-.03-.12-.14-.19-.26-.16Z" style="fill:#787878;"></path><g><path d="M395.1,440.11c-2.03-1.68-5.24,1.1-5.19,1.2-.23,.39-.44,.79-.65,1.19,.45-.41,1.92-.64,3.85-.21,1.93,.36,3.98-.66,1.99-2.18Z" style="fill:#787878;"></path><path d="M389.03,435.54c-2.05-1.57-3.05,1.84-1.71,3.44,1.26,1.6,1.94,2.91,1.91,3.51,.18-.42,.37-.83,.57-1.24-.1-.01,1.11-4.15-.77-5.71Z" style="fill:#787878;"></path></g><g><path d="M397.7,437.2c-1.72-1.99-5.32,.18-5.29,.28-.29,.34-.56,.69-.83,1.05,.5-.32,1.99-.29,3.82,.47,1.84,.69,4.02,.05,2.31-1.8Z" style="fill:#787878;"></path><path d="M392.48,431.68c-1.76-1.89-3.3,1.28-2.24,3.07,.97,1.79,1.43,3.18,1.3,3.76,.25-.38,.5-.74,.76-1.11-.1-.03,1.77-3.86,.17-5.72Z" style="fill:#787878;"></path></g><g><path d="M400.74,434.78c-1.36-2.25-5.27-.72-5.25-.62-.34,.29-.67,.58-.99,.89,.55-.23,2,.06,3.67,1.11,1.69,.99,3.94,.72,2.57-1.38Z" style="fill:#787878;"></path><path d="M396.52,428.46c-1.41-2.16-3.46,.71-2.71,2.64,.66,1.92,.88,3.37,.66,3.91,.3-.33,.61-.64,.93-.95-.09-.04,2.37-3.5,1.12-5.6Z" style="fill:#787878;"></path></g><g><path d="M404.15,432.89c-.97-2.44-5.08-1.59-5.08-1.49-.38,.23-.75,.46-1.12,.71,.58-.13,1.96,.39,3.43,1.71,1.5,1.26,3.77,1.37,2.77-.93Z" style="fill:#787878;"></path><path d="M401.05,425.96c-1.03-2.37-3.54,.13-3.12,2.16,.33,2.01,.31,3.47,0,3.97,.35-.27,.71-.53,1.08-.78-.09-.05,2.93-3.06,2.05-5.34Z" style="fill:#787878;"></path></g><g><path d="M407.85,431.6c-.55-2.57-4.78-2.41-4.79-2.31-.41,.16-.83,.33-1.23,.51,.59-.04,1.87,.71,3.1,2.26,1.27,1.49,3.51,1.98,2.91-.46Z" style="fill:#787878;"></path><path d="M405.97,424.24c-.62-2.51-3.54-.46-3.48,1.61-.01,2.03-.29,3.47-.67,3.92,.39-.21,.79-.41,1.2-.6-.08-.07,3.43-2.53,2.95-4.93Z" style="fill:#787878;"></path></g><g><path d="M405.47,428.32c-.06-.03,3.13-2.18,5.21-2.52,2.03-.39,2.81,1.04,2.47,1.88-.32,.85-1.75,1.06-2.96,.99-1.19-.17-4.7-.41-4.72-.35Z" style="fill:#787878;"></path><path d="M405.41,428.45h-.02c-.05-.04-.08-.1-.07-.16h0c.01-.05,.02-.08,.07-.1,.51-.49,3.47-2.24,5.25-2.53,1-.19,1.86,.03,2.35,.63,.35,.43,.46,.99,.28,1.45-.44,1.15-2.48,1.12-3.1,1.08-1.16-.16-4.36-.38-4.67-.36-.03,.01-.07,.01-.1,0Zm6.75-2.43c-.34-.14-.81-.21-1.46-.08-1.64,.27-3.95,1.66-4.8,2.23,.3,.01,.77,.04,1.5,.1,.94,.07,2.17,.17,2.81,.26,1.16,.07,2.51-.13,2.8-.9,.14-.36,.05-.81-.24-1.16-.12-.14-.31-.32-.61-.44Z" style="fill:#787878;"></path></g></g><g><path d="M386.98,442.98c-3.27-7.64-2.84-16.53,1.31-23.81,.06-.1,.02-.23-.08-.29-.1-.06-.23-.02-.29,.08-4.19,7.34-4.66,16.31-1.41,24.03h.47Z" style="fill:#787878;"></path><g><path d="M388.74,436.49c-2.61,.34-2.76,4.59-2.65,4.62,.13,.43,.27,.86,.43,1.29,0-.61,.83-1.84,2.47-2.97,1.58-1.17,2.23-3.36-.25-2.95Z" style="fill:#787878;"></path><path d="M381.26,437.83c-2.55,.43-.72,3.49,1.35,3.59,2.03,.17,3.45,.56,3.87,.99-.18-.42-.36-.84-.52-1.26-.08,.07-2.28-3.64-4.71-3.32Z" style="fill:#787878;"></path></g><g><path d="M388.38,432.6c-2.63-.09-3.49,4.02-3.4,4.07,.06,.44,.12,.88,.2,1.32,.11-.59,1.14-1.65,2.94-2.48,1.76-.88,2.77-2.91,.26-2.91Z" style="fill:#787878;"></path><path d="M380.78,432.67c-2.58,0-1.3,3.29,.72,3.73,1.97,.5,3.3,1.12,3.64,1.6-.11-.44-.2-.87-.29-1.31-.09,.05-1.63-3.92-4.07-4.02Z" style="fill:#787878;"></path></g><g><path d="M388.67,428.73c-2.57-.53-4.11,3.37-4.03,3.42-.02,.44-.03,.89-.03,1.33,.21-.56,1.4-1.43,3.31-1.93,1.88-.57,3.21-2.4,.74-2.82Z" style="fill:#787878;"></path><path d="M381.17,427.52c-2.54-.43-1.83,3.02,.09,3.79,1.86,.82,3.07,1.65,3.32,2.18-.03-.44-.05-.89-.07-1.33-.09,.04-.95-4.12-3.34-4.63Z" style="fill:#787878;"></path></g><g><path d="M389.61,424.95c-2.45-.95-4.62,2.64-4.55,2.71-.09,.43-.18,.87-.25,1.3,.3-.51,1.62-1.17,3.59-1.35,1.95-.24,3.57-1.83,1.2-2.66Z" style="fill:#787878;"></path><path d="M382.41,422.5c-2.44-.85-2.31,2.68-.55,3.76,1.7,1.12,2.75,2.13,2.91,2.7,.04-.44,.09-.88,.16-1.32-.1,.03-.25-4.23-2.52-5.13Z" style="fill:#787878;"></path></g><g><path d="M391.18,421.36c-2.26-1.35-5.02,1.86-4.95,1.93-.16,.41-.32,.83-.46,1.25,.38-.46,1.79-.89,3.77-.74,1.96,.08,3.84-1.23,1.65-2.45Z" style="fill:#787878;"></path><path d="M384.5,417.73c-2.26-1.25-2.75,2.28-1.19,3.64,1.48,1.39,2.35,2.57,2.41,3.16,.11-.43,.24-.86,.38-1.28-.11,.02,.48-4.24-1.61-5.52Z" style="fill:#787878;"></path></g><g><path d="M387.15,420.87c-.07,.02,.53-3.78,1.7-5.53,1.1-1.76,2.67-1.35,3.06-.53,.4,.81-.41,2.01-1.29,2.84-.93,.76-3.5,3.17-3.47,3.22Z" style="fill:#787878;"></path><path d="M387.21,421h-.02c-.06,.02-.12,0-.16-.05h0s-.04-.07-.01-.12c-.01-.71,.71-4.07,1.72-5.57,.54-.86,1.29-1.34,2.06-1.29,.55,.03,1.04,.34,1.25,.78,.54,1.1-.87,2.58-1.32,3.01-.91,.74-3.25,2.93-3.44,3.17-.01,.03-.04,.06-.07,.07Zm2.82-6.6c-.33,.15-.71,.45-1.06,1.01-.92,1.38-1.47,4.03-1.63,5.04,.21-.21,.55-.53,1.09-1.03,.69-.64,1.61-1.47,2.1-1.88,.84-.8,1.61-1.93,1.25-2.67-.17-.35-.56-.59-1.01-.62-.18-.01-.44,.01-.74,.15Z" style="fill:#787878;"></path></g></g></g><g><g><path d="M352.52,427.57c8.26,1.94,15.17,7.73,18.6,15.4h-.47c-3.41-7.47-10.16-13.1-18.23-14.99-.12-.03-.19-.14-.16-.26,.03-.12,.14-.19,.26-.16Z" style="fill:#787878;"></path><g><path d="M364.81,440.11c2.03-1.68,5.24,1.1,5.19,1.2,.23,.39,.44,.79,.65,1.19-.45-.41-1.92-.64-3.85-.21-1.93,.36-3.98-.66-1.99-2.18Z" style="fill:#787878;"></path><path d="M370.89,435.54c2.05-1.57,3.05,1.84,1.71,3.44-1.26,1.6-1.94,2.91-1.91,3.51-.18-.42-.37-.83-.57-1.24,.1-.01-1.11-4.15,.77-5.71Z" style="fill:#787878;"></path></g><g><path d="M362.21,437.2c1.72-1.99,5.32,.18,5.29,.28,.29,.34,.56,.69,.83,1.05-.5-.32-1.99-.29-3.82,.47-1.84,.69-4.02,.05-2.31-1.8Z" style="fill:#787878;"></path><path d="M367.43,431.68c1.76-1.89,3.3,1.28,2.24,3.07-.97,1.79-1.43,3.18-1.3,3.76-.25-.38-.5-.74-.76-1.11,.1-.03-1.77-3.86-.17-5.72Z" style="fill:#787878;"></path></g><g><path d="M359.17,434.78c1.36-2.25,5.27-.72,5.25-.62,.34,.29,.67,.58,.99,.89-.55-.23-2,.06-3.67,1.11-1.69,.99-3.94,.72-2.57-1.38Z" style="fill:#787878;"></path><path d="M363.39,428.46c1.41-2.16,3.46,.71,2.71,2.64-.66,1.92-.88,3.37-.66,3.91-.3-.33-.61-.64-.93-.95,.09-.04-2.37-3.5-1.12-5.6Z" style="fill:#787878;"></path></g><g><path d="M355.76,432.89c.97-2.44,5.08-1.59,5.08-1.49,.38,.23,.75,.46,1.12,.71-.58-.13-1.96,.39-3.43,1.71-1.5,1.26-3.77,1.37-2.77-.93Z" style="fill:#787878;"></path><path d="M358.87,425.96c1.03-2.37,3.54,.13,3.12,2.16-.33,2.01-.31,3.47,0,3.97-.35-.27-.71-.53-1.08-.78,.09-.05-2.93-3.06-2.05-5.34Z" style="fill:#787878;"></path></g><g><path d="M352.06,431.6c.55-2.57,4.78-2.41,4.79-2.31,.41,.16,.83,.33,1.23,.51-.59-.04-1.87,.71-3.1,2.26-1.27,1.49-3.51,1.98-2.91-.46Z" style="fill:#787878;"></path><path d="M353.94,424.24c.62-2.51,3.54-.46,3.48,1.61,.01,2.03,.29,3.47,.67,3.92-.39-.21-.79-.41-1.2-.6,.08-.07-3.43-2.53-2.95-4.93Z" style="fill:#787878;"></path></g><g><path d="M354.44,428.32c.06-.03-3.13-2.18-5.21-2.52-2.03-.39-2.81,1.04-2.47,1.88,.32,.85,1.75,1.06,2.96,.99,1.19-.17,4.7-.41,4.72-.35Z" style="fill:#787878;"></path><path d="M354.5,428.45h.02c.05-.04,.08-.1,.07-.16h0c-.01-.05-.02-.08-.07-.1-.51-.49-3.47-2.24-5.25-2.53-1-.19-1.86,.03-2.35,.63-.35,.43-.46,.99-.28,1.45,.44,1.15,2.48,1.12,3.1,1.08,1.16-.16,4.36-.38,4.67-.36,.03,.01,.07,.01,.1,0Zm-6.75-2.43c.34-.14,.81-.21,1.46-.08,1.64,.27,3.95,1.66,4.8,2.23-.3,.01-.77,.04-1.5,.1-.94,.07-2.17,.17-2.81,.26-1.16,.07-2.51-.13-2.8-.9-.14-.36-.05-.81,.24-1.16,.12-.14,.31-.32,.61-.44Z" style="fill:#787878;"></path></g></g><g><path d="M372.93,442.98c3.27-7.64,2.84-16.53-1.31-23.81-.06-.1-.02-.23,.08-.29,.1-.06,.23-.02,.29,.08,4.19,7.34,4.66,16.31,1.41,24.03h-.47Z" style="fill:#787878;"></path><g><path d="M371.18,436.49c2.61,.34,2.76,4.59,2.65,4.62-.13,.43-.27,.86-.43,1.29,0-.61-.83-1.84-2.47-2.97-1.58-1.17-2.23-3.36,.25-2.95Z" style="fill:#787878;"></path><path d="M378.66,437.83c2.55,.43,.72,3.49-1.35,3.59-2.03,.17-3.45,.56-3.87,.99,.18-.42,.36-.84,.52-1.26,.08,.07,2.28-3.64,4.71-3.32Z" style="fill:#787878;"></path></g><g><path d="M371.54,432.6c2.63-.09,3.49,4.02,3.4,4.07-.06,.44-.12,.88-.2,1.32-.11-.59-1.14-1.65-2.94-2.48-1.76-.88-2.77-2.91-.26-2.91Z" style="fill:#787878;"></path><path d="M379.14,432.67c2.58,0,1.3,3.29-.72,3.73-1.97,.5-3.3,1.12-3.64,1.6,.11-.44,.2-.87,.29-1.31,.09,.05,1.63-3.92,4.07-4.02Z" style="fill:#787878;"></path></g><g><path d="M371.24,428.73c2.57-.53,4.11,3.37,4.03,3.42,.02,.44,.03,.89,.03,1.33-.21-.56-1.4-1.43-3.31-1.93-1.88-.57-3.21-2.4-.74-2.82Z" style="fill:#787878;"></path><path d="M378.75,427.52c2.54-.43,1.83,3.02-.09,3.79-1.86,.82-3.07,1.65-3.32,2.18,.03-.44,.05-.89,.07-1.33,.09,.04,.95-4.12,3.34-4.63Z" style="fill:#787878;"></path></g><g><path d="M370.3,424.95c2.45-.95,4.62,2.64,4.55,2.71,.09,.43,.18,.87,.25,1.3-.3-.51-1.62-1.17-3.59-1.35-1.95-.24-3.57-1.83-1.2-2.66Z" style="fill:#787878;"></path><path d="M377.5,422.5c2.44-.85,2.31,2.68,.55,3.76-1.7,1.12-2.75,2.13-2.91,2.7-.04-.44-.09-.88-.16-1.32,.1,.03,.25-4.23,2.52-5.13Z" style="fill:#787878;"></path></g><g><path d="M368.73,421.36c2.26-1.35,5.02,1.86,4.95,1.93,.16,.41,.32,.83,.46,1.25-.38-.46-1.79-.89-3.77-.74-1.96,.08-3.84-1.23-1.65-2.45Z" style="fill:#787878;"></path><path d="M375.41,417.73c2.26-1.25,2.75,2.28,1.19,3.64-1.48,1.39-2.35,2.57-2.41,3.16-.11-.43-.24-.86-.38-1.28,.11,.02-.48-4.24,1.61-5.52Z" style="fill:#787878;"></path></g><g><path d="M372.76,420.87c.07,.02-.53-3.78-1.7-5.53-1.1-1.76-2.67-1.35-3.06-.53-.4,.81,.41,2.01,1.29,2.84,.93,.76,3.5,3.17,3.47,3.22Z" style="fill:#787878;"></path><path d="M372.7,421h.02c.06,.02,.12,0,.16-.05h0s.04-.07,.01-.12c.01-.71-.71-4.07-1.72-5.57-.54-.86-1.29-1.34-2.06-1.29-.55,.03-1.04,.34-1.25,.78-.54,1.1,.87,2.58,1.32,3.01,.91,.74,3.25,2.93,3.44,3.17,.01,.03,.04,.06,.07,.07Zm-2.82-6.6c.33,.15,.71,.45,1.06,1.01,.92,1.38,1.47,4.03,1.63,5.04-.21-.21-.55-.53-1.09-1.03-.69-.64-1.61-1.47-2.1-1.88-.84-.8-1.61-1.93-1.25-2.67,.17-.35,.56-.59,1.01-.62,.18-.01,.44,.01,.74,.15Z" style="fill:#787878;"></path></g></g></g></g></g></g><g id="Car"><g><path d="M609.9,401.56s58.44-5.45,60.13-6.39c1.69-.94,4.13-2.82,4.13-2.82l28.38,.38,.38-6.76-24.43-.38-40.03,4.13v-4.32s-1.88-27.25-22.17-43.78-31.76-18.79-59.57-17.85c-27.81,.94-58.82,43.41-63.33,51.68-4.51,8.27-6.39,9.77-6.39,9.77H210.96l-.24-8.37c-.75-25.83-18.6-48-43.68-54.24h0c-11.42-2.84-23.44-2.12-34.43,2.08l-11.67,4.45c-24.97,9.52-40.3,34.97-36.66,61.44,1.05,7.61,.93,12.61-1.66,10.8-8.08-5.64-.19,5.07,6.58,6.76,6.76,1.69,14.66,2.44,14.66,2.44H233.13l274.08-.63,102.69-8.39Z" style="fill:#263238; stroke:#263238; stroke-miterlimit:10;"></path><path d="M314.96,226.88s-95.76,63.47-98.33,63.47-4.04-1.1-5.87,.37c-1.83,1.47-3.67,2.2-3.67,2.2l-102.36,12.11s-36.69,7.34-44.03,9.54c-7.34,2.2-13.57,9.17-13.21,12.11s4.04,27.88,4.04,27.88l4.04,31.92s-2.2,11.37-.37,12.84c1.83,1.47,10.27,4.4,14.68,5.5,4.4,1.1,16.88,1.1,16.88,1.1,0,0,1.1-20.55,5.14-36.69,4.04-16.14,16.1-34.9,53.57-36.69,38.52-1.83,55.77,43.66,55.77,43.66l7.7,28.62,14.68,5.14H507.21s-1.1-31.92,5.14-44.76c6.24-12.84,23.11-27.15,43.66-29.72,20.55-2.57,37.79,3.67,46.96,7.34,9.17,3.67,19.81,28.62,21.28,36.69,1.47,8.07,3.3,8.44,3.3,8.44,0,0,66.41-3.67,70.44-6.97,4.04-3.3,9.54-18.34,10.64-39.26,1.1-20.91-.37-40.72-2.57-44.03-2.2-3.3-6.97-3.67-6.97-3.67l-83.28-5.5s-76.31-62.37-80.72-63.47c-1.82-.45-4.44-1.09-6.9-1.69-4.41-1.07-8.92-1.69-13.46-1.86l-43.11-1.58-60.17,.37s-61.64-.73-96.49,6.6Z" style="fill:#92E3A9; stroke:#263238; stroke-miterlimit:10;"></path><polygon points="693.36 311.31 190 311.31 70.96 318.5 693.36 318.5 693.36 311.31" style="fill:#fff; opacity:.62;"></polygon><path d="M621.31,365.57h96.21c1.78,0,3.22-1.44,3.22-3.22v-8.6c0-1.78-1.44-3.22-3.22-3.22h-102.81l6.6,15.04Z" style="fill:#263238; stroke:#263238; stroke-miterlimit:10;"></path><path d="M89,371.8H43.92c-2.28,0-4.13-1.85-4.13-4.13v-6.79c0-2.28,1.85-4.13,4.13-4.13h50.17l-5.1,15.04Z" style="fill:#263238; stroke:#263238; stroke-miterlimit:10;"></path><g><rect x="197.56" y="353.09" width="38.16" height="6.98" style="fill:#263238; stroke:#263238; stroke-miterlimit:10;"></rect><rect x="238.65" y="353.09" width="156.66" height="6.98" style="fill:#263238; stroke:#263238; stroke-miterlimit:10;"></rect><polygon points="398.25 353.09 398.25 360.07 503.54 360.07 507.21 353.09 398.25 353.09" style="fill:#263238; stroke:#263238; stroke-miterlimit:10;"></polygon></g><g><path d="M69.88,404.82c4.4,1.1,16.88,1.1,16.88,1.1,0,0,.43-8.02,1.74-17.98H55.31c-.52,3.12-1.53,10.23-.11,11.37,1.83,1.47,10.27,4.4,14.68,5.5Z" style="fill:#263238; stroke:#263238; stroke-miterlimit:10;"></path><path d="M507.36,394.18H206.07l2.86,10.64,14.68,5.14H507.21s-.24-7.01,.14-15.78Z" style="fill:#263238; stroke:#263238; stroke-miterlimit:10;"></path></g><rect x="364.13" y="309.8" width="25.68" height="4.77" style="fill:#263238; stroke:#263238; stroke-miterlimit:10;"></rect><rect x="509.78" y="309.8" width="25.68" height="4.77" style="fill:#263238; stroke:#263238; stroke-miterlimit:10;"></rect><path d="M238.28,292.92c7.34-2.57,77.41-57.23,78.88-62.74,.42-1.59,.47-2.83,.34-3.81-.86,.17-1.71,.33-2.54,.51,0,0-95.76,63.47-98.33,63.47,0,0,14.31,5.14,21.65,2.57Z" style="fill:#878787; stroke:#263238; stroke-miterlimit:10;"></path><path d="M608.84,288.52c1.47,.37,10.27,.37,10.27,.37l-.11-.16-3.19-.21s-76.31-62.37-80.72-63.47c0,0,5.14,5.14,9.17,8.44,4.04,3.3,63.1,54.67,64.57,55.03Z" style="fill:#878787; stroke:#263238; stroke-miterlimit:10;"></path><path d="M705.67,310.44c-2.52-.19-4.71,1.7-4.89,4.22l-1.14,15.4c-.19,2.52,1.7,4.71,4.22,4.89l3.33,.25c.6,.04,1.17-.04,1.71-.21,.25-9.12,.04-17.69-.49-24.35l-2.74-.2Z" style="fill:#fff; stroke:#263238; stroke-miterlimit:10;"></path><g><circle cx="143.69" cy="393.76" r="49.22" transform="translate(-275.08 375.82) rotate(-67.5)" style="fill:#263238; stroke:#263238; stroke-miterlimit:10;"></circle><circle cx="143.69" cy="393.76" r="30.53" transform="translate(-257.99 273.99) rotate(-53.35)" style="fill:#fff; stroke:#263238; stroke-miterlimit:10;"></circle><circle cx="143.69" cy="393.76" r="18.01" transform="translate(-61.22 28.1) rotate(-9.22)" style="fill:#fff; stroke:#263238; stroke-miterlimit:10;"></circle><path d="M147.21,386.89c0-1.46-1.18-2.65-2.65-2.65s-2.65,1.18-2.65,2.65,1.18,2.65,2.65,2.65,2.65-1.18,2.65-2.65Z" style="fill:#263238; stroke:#263238; stroke-miterlimit:10;"></path><path d="M138.24,394.11c0-1.46-1.18-2.65-2.65-2.65s-2.65,1.18-2.65,2.65,1.18,2.65,2.65,2.65,2.65-1.18,2.65-2.65Z" style="fill:#263238; stroke:#263238; stroke-miterlimit:10;"></path><path d="M153.69,396.53c0-1.46-1.18-2.65-2.65-2.65s-2.65,1.18-2.65,2.65,1.18,2.65,2.65,2.65,2.65-1.18,2.65-2.65Z" style="fill:#263238; stroke:#263238; stroke-miterlimit:10;"></path><circle cx="142.43" cy="402.33" r="2.65" style="fill:#263238; stroke:#263238; stroke-miterlimit:10;"></circle></g><g><circle cx="565.02" cy="393.76" r="49.22" transform="translate(-76.88 144.24) rotate(-13.63)" style="fill:#263238; stroke:#263238; stroke-miterlimit:10;"></circle><circle cx="565.02" cy="393.76" r="30.53" transform="translate(-77.25 145.2) rotate(-13.72)" style="fill:#fff; stroke:#263238; stroke-miterlimit:10;"></circle><circle cx="565.02" cy="393.76" r="18.01" transform="translate(-55.51 95.03) rotate(-9.17)" style="fill:#fff; stroke:#263238; stroke-miterlimit:10;"></circle><path d="M568.54,386.89c0-1.46-1.18-2.65-2.65-2.65s-2.65,1.18-2.65,2.65,1.18,2.65,2.65,2.65,2.65-1.18,2.65-2.65Z" style="fill:#263238; stroke:#263238; stroke-miterlimit:10;"></path><path d="M559.57,394.11c0-1.46-1.18-2.65-2.65-2.65s-2.65,1.18-2.65,2.65,1.18,2.65,2.65,2.65,2.65-1.18,2.65-2.65Z" style="fill:#263238; stroke:#263238; stroke-miterlimit:10;"></path><circle cx="572.37" cy="396.53" r="2.65" style="fill:#263238; stroke:#263238; stroke-miterlimit:10;"></circle><path d="M566.4,402.33c0-1.46-1.18-2.65-2.65-2.65s-2.65,1.18-2.65,2.65,1.18,2.65,2.65,2.65,2.65-1.18,2.65-2.65Z" style="fill:#263238; stroke:#263238; stroke-miterlimit:10;"></path></g><path d="M330.05,235.69s-77,59.51-76.03,60.73,5.1,.73,5.1,.73l288.1-7.04s6.07-8.5,5.83-13.12c-.24-4.62-7.29-12.39-7.29-12.39,0,0-28.42-31.58-35.95-33.77-7.53-2.19-112.47-.73-112.47-.73l-59.03,3.64s-5.34,.73-8.26,1.94Z" style="fill:#5c5c5c; stroke:#263238; stroke-miterlimit:10;"></path><path d="M388.66,293.98l27.4-.67,11.28-63.52c-9.17,.07-17.12,.16-22.54,.22l-16.15,63.97Z" style="fill:#263238; stroke:#263238; stroke-miterlimit:10;"></path><line x1="416.77" y1="232.53" x2="405.35" y2="289.86" style="fill:none; stroke:#878787; stroke-miterlimit:10;"></line><path d="M503.55,230.21l6.73,44.59-2.85,16.28,8.75-.21-7.36-60.22c-1.14-.17-2.94-.31-5.28-.43Z" style="fill:#263238; stroke:#263238; stroke-miterlimit:10;"></path><path d="M278.55,281.6l-8.26,14.09s1.7,2.19,4.13,.73c2.43-1.46,9.96-8.02,9.96-8.02l-5.83-6.8Z" style="fill:#878787; stroke:#263238; stroke-miterlimit:10;"></path><path d="M281.6,271.36h4.2v19.43h-4.2c-1.97,0-3.58-1.6-3.58-3.58v-12.28c0-1.97,1.6-3.58,3.58-3.58Z" transform="translate(-42.17 49.89) rotate(-9.41)" style="fill:#878787; stroke:#263238; stroke-miterlimit:10;"></path><g><path d="M357.74,227.46c-11.96,.94-23.3,2.2-27.73,3.83-11.01,4.04-81.45,65.67-81.45,65.67" style="fill:none; stroke:#263238; stroke-miterlimit:10;"></path><path d="M539.82,323.95c2.01-1.58,3.54-3.15,4.45-4.98,3.3-6.6,7.34-26.78,7.34-26.78,0,0,9.54-11.74,3.67-23.85-5.87-12.11-28.62-33.39-34.12-37.06-5.5-3.67-15.41-5.5-18.34-5.5s-108.23-.37-108.23-.37c0,0-13.88,.48-28.96,1.47" style="fill:none; stroke:#263238; stroke-miterlimit:10;"></path><path d="M462.77,387.95h36.37s4.77-34.85,17.61-46.96c7.08-6.67,13.71-10.67,18.79-14.02" style="fill:none; stroke:#263238; stroke-miterlimit:10;"></path><line x1="248.13" y1="387.95" x2="456.22" y2="387.95" style="fill:none; stroke:#263238; stroke-miterlimit:10;"></line><path d="M236.68,321.52c-.62,14.43,.01,40.67,.87,48.08,1.1,9.54,2.57,18.34,2.57,18.34h3.53" style="fill:none; stroke:#263238; stroke-miterlimit:10;"></path><path d="M243.42,301.73s-4.04,4.4-5.87,11.01" style="fill:none; stroke:#263238; stroke-miterlimit:10;"></path><path d="M396.7,343.53c-.48,17.47-.65,42.21-.65,42.21" style="fill:none; stroke:#263238; stroke-miterlimit:10;"></path><path d="M404.85,296.22s-6.24,24.21-7.34,31.19c-.25,1.6-.47,5.53-.65,10.64" style="fill:none; stroke:#263238; stroke-miterlimit:10;"></path><line x1="212.08" y1="300.11" x2="227" y2="298.69" style="fill:none; stroke:#263238; stroke-miterlimit:10;"></line><line x1="60.71" y1="314.57" x2="202.92" y2="300.99" style="fill:none; stroke:#263238; stroke-miterlimit:10;"></line></g></g></g><g id="Floor"><line x1="15.03" y1="442.98" x2="737.3" y2="442.98" style="fill:none; stroke:#263238; stroke-miterlimit:10;"></line></g></svg>
