<svg xmlns="http://www.w3.org/2000/svg" xmlns:xlink="http://www.w3.org/1999/xlink" viewBox="0 0 500 500"><defs><clippath id="clip-path"><path d="M263.36,388.4c-.16,11.08-9.84,42.16-14.45,56.36h48.6l12.41-81.51-11.64-5.61s-8.94-4.16-15-2.71-13.72,6-13.72,6l-6.44,2.29S263.56,373.85,263.36,388.4Z" style="fill:#fff;stroke:#263238;stroke-linejoin:round;stroke-width:1.055422306060791px"></path></clippath><clippath id="clip-path-2"><path d="M269.18,351s3.9,4.26,4.61,7.45-1.77,15.62,4.26,18.81,12.77-2.84,16.32-9.94S296.15,356,296.15,356s-8.52-8.52-12.42-14.9A55.33,55.33,0,0,1,278.05,328s-2.13,11.71-5,16A38.68,38.68,0,0,0,269.18,351Z" style="fill:#fff;stroke:#263238;stroke-linecap:round;stroke-linejoin:round;stroke-width:1.055422306060791px"></path></clippath></defs><g id="background-simple"><path d="M383.76,76S335,38.69,273.78,57.82,188.31,131,154,168.7c-18,19.75-45.15,27.67-66.74,43.11-69,49.37-55.28,155.09.34,193.41,48.15,33.16,107.07,34.95,182.8,7s130-45,175.2-119.64S443.94,126.84,383.76,76Z" style="fill:#92E3A9"></path><path d="M383.76,76S335,38.69,273.78,57.82,188.31,131,154,168.7c-18,19.75-45.15,27.67-66.74,43.11-69,49.37-55.28,155.09.34,193.41,48.15,33.16,107.07,34.95,182.8,7s130-45,175.2-119.64S443.94,126.84,383.76,76Z" style="fill:#fff;opacity:0.8"></path></g><g id="Mug"><rect x="337.2" y="417.71" width="18.22" height="26.92" style="fill:#fff;stroke:#263238;stroke-linecap:round;stroke-linejoin:round;stroke-width:1.055422306060791px"></rect><path d="M354.6,441h-1.9a1.51,1.51,0,0,1,0-3h1.9a2.86,2.86,0,0,0,2.85-2.85v-6.52a2.86,2.86,0,0,0-2.85-2.85h-2.44a1.5,1.5,0,1,1,0-3h2.44a5.85,5.85,0,0,1,5.85,5.85v6.52A5.86,5.86,0,0,1,354.6,441Z" style="fill:#fff;stroke:#263238;stroke-linecap:round;stroke-linejoin:round;stroke-width:1.055422306060791px"></path><path d="M340.05,392.35a12.09,12.09,0,0,1-2-3.76" style="fill:none;stroke:#263238;stroke-linejoin:round;stroke-width:1.055422306060791px"></path><path d="M339.58,415.69s-.76-.76,5.73-4.2,6.87-9.16.38-13.74a27.8,27.8,0,0,1-3.14-2.57" style="fill:none;stroke:#263238;stroke-linejoin:round;stroke-width:1.055422306060791px"></path><path d="M348,415.31s6.11-2.67,6.87-7.63a10.58,10.58,0,0,0-3.82-9.93" style="fill:none;stroke:#263238;stroke-linejoin:round;stroke-width:1.055422306060791px"></path><path d="M389.25,436.25c-4.12,0-7.45,1.68-7.45,3.75s3.33,3.75,7.45,3.75,7.44-1.68,7.44-3.75S393.36,436.25,389.25,436.25Zm0,5.08c-1.46,0-2.63-.6-2.63-1.33s1.17-1.32,2.63-1.32,2.62.59,2.62,1.32S390.7,441.33,389.25,441.33Z" style="fill:#92E3A9;stroke:#263238;stroke-linejoin:round;stroke-width:1.055422306060791px"></path><path d="M379.62,430.58c-5.83,0-10.55,3.07-10.55,6.86s4.72,6.86,10.55,6.86,10.55-3.07,10.55-6.86S385.45,430.58,379.62,430.58Zm0,8.32c-1.24,0-2.25-.66-2.25-1.46s1-1.46,2.25-1.46,2.25.65,2.25,1.46S380.86,438.9,379.62,438.9Z" style="fill:#92E3A9;stroke:#263238;stroke-linejoin:round;stroke-width:1.055422306060791px"></path><polygon points="403.59 439.99 364.99 439.99 369.45 444.63 399.13 444.63 403.59 439.99" style="fill:#fff;stroke:#263238;stroke-linejoin:round;stroke-width:1.055422306060791px"></polygon></g><g id="Plants"><path d="M445.27,273.16s.4-4.89-5.89-12.31S429,249.16,429,249.16s-4.35,11,1.45,18.35A120.21,120.21,0,0,0,444.55,282Z" style="fill:#92E3A9"></path><path d="M432.81,302.91s.4-4.89-5.88-12.31-10.38-11.69-10.38-11.69-4.35,11,1.45,18.35a120.21,120.21,0,0,0,14.09,14.46Z" style="fill:#92E3A9"></path><path d="M444.15,281.47s.92-4.83,9-10.3,13.12-8.5,13.12-8.5,1.26,11.74-6.29,17.3a121,121,0,0,1-17.44,10.18Z" style="fill:#92E3A9"></path><path d="M429.17,316.58s1.42-4.7,10-9.3,13.94-7.08,13.94-7.08,0,11.81-8.08,16.55a121.47,121.47,0,0,1-18.4,8.29Z" style="fill:#92E3A9"></path><path d="M428.19,356.12s.4-4.89,7.82-11.18,12.14-9.84,12.14-9.84,2.5,11.54-4.42,17.87a120.56,120.56,0,0,1-16.26,12Z" style="fill:#92E3A9"></path><path d="M427.29,365.72s1.09-4.79-4.08-13-8.6-13.05-8.6-13.05-5.87,10.25-1.18,18.37a120.21,120.21,0,0,0,11.89,16.32Z" style="fill:#92E3A9"></path><path d="M418.19,393.64s.4-4.9,7.82-11.19,12.14-9.84,12.14-9.84,2.5,11.54-4.43,17.87a120.4,120.4,0,0,1-16.26,12Z" style="fill:#92E3A9"></path><path d="M420.64,419.83s-.85-4.84,4.73-12.8,9.26-12.6,9.26-12.6,5.34,10.53.24,18.41a120.49,120.49,0,0,1-12.7,15.69Z" style="fill:#92E3A9"></path><path d="M446,272a141,141,0,0,1-3.12,15c-3.86,13.78-11.38,22.25-15.13,34.67s2.69,29.34-.73,45.4-10.48,24.58-9.56,35.56,8,41.11,8,41.11" style="fill:none;stroke:#263238;stroke-linecap:round;stroke-linejoin:round;stroke-width:0.5277111530303955px"></path><line x1="443.82" y1="284.71" x2="451.67" y2="279.65" style="fill:none;stroke:#263238;stroke-linecap:round;stroke-linejoin:round;stroke-width:0.5277111530303955px"></line><line x1="444.7" y1="278.22" x2="442.06" y2="272.47" style="fill:none;stroke:#263238;stroke-linecap:round;stroke-linejoin:round;stroke-width:0.5277111530303955px"></line><path d="M428.2,321.12s6.57-4.13,13.3-8.24" style="fill:none;stroke:#263238;stroke-linecap:round;stroke-linejoin:round;stroke-width:0.5277111530303955px"></path><path d="M432.09,311.72s-4.32-10.52-9.61-17.7" style="fill:none;stroke:#263238;stroke-linecap:round;stroke-linejoin:round;stroke-width:0.5277111530303955px"></path><path d="M427.86,363.11a76.87,76.87,0,0,1,14.68-16.6" style="fill:none;stroke:#263238;stroke-linecap:round;stroke-linejoin:round;stroke-width:0.5277111530303955px"></path><path d="M426.09,369.88a86.44,86.44,0,0,0-5.65-13.26c-3.17-5.62-3.63-6.35-3.63-6.35" style="fill:none;stroke:#263238;stroke-linecap:round;stroke-linejoin:round;stroke-width:0.5277111530303955px"></path><path d="M417.45,402.63a82.61,82.61,0,0,1,6.49-10.8,71.77,71.77,0,0,1,8-8.85" style="fill:none;stroke:#263238;stroke-linecap:round;stroke-linejoin:round;stroke-width:0.5277111530303955px"></path><path d="M422.17,428.53a21.05,21.05,0,0,1,2.74-10.68c3-4.77,6.45-11.06,7.86-13.54" style="fill:none;stroke:#263238;stroke-linecap:round;stroke-linejoin:round;stroke-width:0.5277111530303955px"></path><path d="M395,334.86s-.28-3.11,3.69-7.86,6.54-7.49,6.54-7.49,2.83,7-.83,11.69a77.18,77.18,0,0,1-8.9,9.27Z" style="fill:#92E3A9"></path><path d="M403.09,353.74s-.28-3.12,3.69-7.86,6.54-7.49,6.54-7.49,2.82,7-.83,11.68a77.18,77.18,0,0,1-8.9,9.27Z" style="fill:#92E3A9"></path><path d="M395.77,340.14s-.61-3.07-5.75-6.51-8.38-5.35-8.38-5.35-.76,7.48,4.08,11a77.16,77.16,0,0,0,11.14,6.4Z" style="fill:#92E3A9"></path><path d="M405.47,362.42s-.93-3-6.4-5.87-8.9-4.45-8.9-4.45,0,7.52,5.21,10.5a77.71,77.71,0,0,0,11.75,5.19Z" style="fill:#92E3A9"></path><path d="M406.27,387.58s-.28-3.12-5-7.08-7.78-6.21-7.78-6.21-1.54,7.35,2.9,11.35a76.45,76.45,0,0,0,10.41,7.54Z" style="fill:#92E3A9"></path><path d="M406.89,393.68s-.72-3,2.54-8.3,5.41-8.35,5.41-8.35,3.78,6.49.84,11.69a77.2,77.2,0,0,1-7.49,10.44Z" style="fill:#92E3A9"></path><path d="M413.46,419.15s.61-3.07,5.75-6.51,8.39-5.34,8.39-5.34.75,7.48-4.09,11a76.47,76.47,0,0,1-11.15,6.38Z" style="fill:#92E3A9"></path><path d="M412.81,411.41s-.28-3.12-5-7.09-7.78-6.2-7.78-6.2-1.54,7.35,2.9,11.35a77.68,77.68,0,0,0,10.4,7.54Z" style="fill:#92E3A9"></path><path d="M411.37,428.08s.52-3.08-3.07-8.12-5.94-8-5.94-8-3.36,6.72-.07,11.71a76.93,76.93,0,0,0,8.15,9.93Z" style="fill:#92E3A9"></path><path d="M394.55,334.1a91.34,91.34,0,0,0,2.06,9.56c2.52,8.75,7.34,14.1,9.79,22s-1.58,18.68.67,28.89,6.79,15.59,6.25,22.59-4.88,26.19-4.88,26.19" style="fill:none;stroke:#263238;stroke-linecap:round;stroke-linejoin:round;stroke-width:0.5277111530303955px"></path><line x1="396" y1="342.21" x2="390.98" y2="339.02" style="fill:none;stroke:#263238;stroke-linecap:round;stroke-linejoin:round;stroke-width:0.5277111530303955px"></line><line x1="395.41" y1="338.07" x2="397.06" y2="334.4" style="fill:none;stroke:#263238;stroke-linecap:round;stroke-linejoin:round;stroke-width:0.5277111530303955px"></line><path d="M406.1,365.3s-4.19-2.59-8.5-5.18" style="fill:none;stroke:#263238;stroke-linecap:round;stroke-linejoin:round;stroke-width:0.5277111530303955px"></path><path d="M403.59,359.34a62.88,62.88,0,0,1,6-11.31" style="fill:none;stroke:#263238;stroke-linecap:round;stroke-linejoin:round;stroke-width:0.5277111530303955px"></path><path d="M406.52,392a49.09,49.09,0,0,0-9.42-10.5" style="fill:none;stroke:#263238;stroke-linecap:round;stroke-linejoin:round;stroke-width:0.5277111530303955px"></path><path d="M407.67,396.32a55.47,55.47,0,0,1,3.54-8.46c2-3.6,2.28-4.06,2.28-4.06" style="fill:none;stroke:#263238;stroke-linecap:round;stroke-linejoin:round;stroke-width:0.5277111530303955px"></path><path d="M412.65,422.41a45.88,45.88,0,0,1,6.12-5.39,30.12,30.12,0,0,0,3.93-2.89" style="fill:none;stroke:#263238;stroke-linecap:round;stroke-linejoin:round;stroke-width:0.5277111530303955px"></path><path d="M413.32,417.13a52,52,0,0,0-4.18-6.85,46,46,0,0,0-5.12-5.59" style="fill:none;stroke:#263238;stroke-linecap:round;stroke-linejoin:round;stroke-width:0.5277111530303955px"></path><path d="M410.44,433.63a13.33,13.33,0,0,0-1.8-6.79c-1.92-3-4.15-7-5.06-8.57" style="fill:none;stroke:#263238;stroke-linecap:round;stroke-linejoin:round;stroke-width:0.5277111530303955px"></path><path d="M103.11,273.16s.4-4.89-5.89-12.31-10.37-11.69-10.37-11.69-4.35,11,1.44,18.35A120.21,120.21,0,0,0,102.38,282Z" style="fill:#92E3A9"></path><path d="M90.65,302.91s.4-4.89-5.89-12.31-10.37-11.69-10.37-11.69-4.35,11,1.45,18.35a119.68,119.68,0,0,0,14.08,14.46Z" style="fill:#92E3A9"></path><path d="M102,281.47s.92-4.83,9-10.3,13.11-8.5,13.11-8.5,1.27,11.74-6.29,17.3a121.13,121.13,0,0,1-17.43,10.18Z" style="fill:#92E3A9"></path><path d="M87,316.58s1.41-4.7,10-9.3,13.94-7.08,13.94-7.08,0,11.81-8.07,16.55A121.37,121.37,0,0,1,84.45,325Z" style="fill:#92E3A9"></path><path d="M86,356.12s.4-4.89,7.81-11.18S106,335.1,106,335.1s2.5,11.54-4.43,17.87a119.88,119.88,0,0,1-16.26,12Z" style="fill:#92E3A9"></path><path d="M85.12,365.72s1.1-4.79-4.08-13-8.6-13.05-8.6-13.05S66.57,349.9,71.26,358a121.17,121.17,0,0,0,11.89,16.32Z" style="fill:#92E3A9"></path><path d="M76,393.64s.41-4.9,7.82-11.19S96,372.61,96,372.61s2.5,11.54-4.42,17.87a121.09,121.09,0,0,1-16.26,12Z" style="fill:#92E3A9"></path><path d="M78.48,419.83S77.62,415,83.21,407s9.25-12.6,9.25-12.6,5.34,10.53.24,18.41A119.93,119.93,0,0,1,80,428.53Z" style="fill:#92E3A9"></path><path d="M103.83,272a138.56,138.56,0,0,1-3.13,15c-3.86,13.78-11.37,22.25-15.12,34.67s2.69,29.34-.73,45.4-10.48,24.58-9.57,35.56,8,41.11,8,41.11" style="fill:none;stroke:#263238;stroke-linecap:round;stroke-linejoin:round;stroke-width:0.5277111530303955px"></path><line x1="101.65" y1="284.71" x2="109.5" y2="279.65" style="fill:none;stroke:#263238;stroke-linecap:round;stroke-linejoin:round;stroke-width:0.5277111530303955px"></line><line x1="102.53" y1="278.22" x2="99.89" y2="272.47" style="fill:none;stroke:#263238;stroke-linecap:round;stroke-linejoin:round;stroke-width:0.5277111530303955px"></line><path d="M86,321.12s6.56-4.13,13.3-8.24" style="fill:none;stroke:#263238;stroke-linecap:round;stroke-linejoin:round;stroke-width:0.5277111530303955px"></path><path d="M89.92,311.72S85.6,301.2,80.31,294" style="fill:none;stroke:#263238;stroke-linecap:round;stroke-linejoin:round;stroke-width:0.5277111530303955px"></path><path d="M85.7,363.11a76.65,76.65,0,0,1,14.67-16.6" style="fill:none;stroke:#263238;stroke-linecap:round;stroke-linejoin:round;stroke-width:0.5277111530303955px"></path><path d="M83.93,369.88a87.58,87.58,0,0,0-5.65-13.26c-3.17-5.62-3.63-6.35-3.63-6.35" style="fill:none;stroke:#263238;stroke-linecap:round;stroke-linejoin:round;stroke-width:0.5277111530303955px"></path><path d="M75.28,402.63a83.27,83.27,0,0,1,6.5-10.8,71.77,71.77,0,0,1,8-8.85" style="fill:none;stroke:#263238;stroke-linecap:round;stroke-linejoin:round;stroke-width:0.5277111530303955px"></path><path d="M80,428.53a20.93,20.93,0,0,1,2.74-10.68c3-4.77,6.44-11.06,7.86-13.54" style="fill:none;stroke:#263238;stroke-linecap:round;stroke-linejoin:round;stroke-width:0.5277111530303955px"></path><path d="M52.85,334.86s-.27-3.11,3.69-7.86,6.55-7.49,6.55-7.49,2.82,7-.84,11.69a76.64,76.64,0,0,1-8.89,9.27Z" style="fill:#92E3A9"></path><path d="M60.92,353.74s-.28-3.12,3.69-7.86,6.55-7.49,6.55-7.49,2.82,7-.84,11.68a77.18,77.18,0,0,1-8.9,9.27Z" style="fill:#92E3A9"></path><path d="M53.6,340.14s-.6-3.07-5.74-6.51-8.39-5.35-8.39-5.35-.75,7.48,4.08,11a77.75,77.75,0,0,0,11.14,6.4Z" style="fill:#92E3A9"></path><path d="M63.3,362.42s-.92-3-6.4-5.87S48,352.1,48,352.1s0,7.52,5.21,10.5A77.61,77.61,0,0,0,65,367.79Z" style="fill:#92E3A9"></path><path d="M64.11,387.58s-.28-3.12-5-7.08-7.77-6.21-7.77-6.21-1.54,7.35,2.9,11.35a76,76,0,0,0,10.4,7.54Z" style="fill:#92E3A9"></path><path d="M64.73,393.68s-.72-3,2.53-8.3S72.68,377,72.68,377s3.78,6.49.83,11.69A77.2,77.2,0,0,1,66,399.16Z" style="fill:#92E3A9"></path><path d="M71.29,419.15s.61-3.07,5.76-6.51,8.39-5.34,8.39-5.34.74,7.48-4.1,11a76.47,76.47,0,0,1-11.15,6.38Z" style="fill:#92E3A9"></path><path d="M70.65,411.41s-.28-3.12-5-7.09-7.77-6.2-7.77-6.2-1.54,7.35,2.9,11.35A77,77,0,0,0,71.15,417Z" style="fill:#92E3A9"></path><path d="M69.21,428.08s.52-3.08-3.07-8.12-6-8-6-8-3.35,6.72-.07,11.71a76.93,76.93,0,0,0,8.15,9.93Z" style="fill:#92E3A9"></path><path d="M52.39,334.1a88.86,88.86,0,0,0,2.06,9.56c2.52,8.75,7.34,14.1,9.78,22s-1.57,18.68.68,28.89,6.78,15.59,6.25,22.59-4.89,26.19-4.89,26.19" style="fill:none;stroke:#263238;stroke-linecap:round;stroke-linejoin:round;stroke-width:0.5277111530303955px"></path><line x1="53.83" y1="342.21" x2="48.81" y2="339.02" style="fill:none;stroke:#263238;stroke-linecap:round;stroke-linejoin:round;stroke-width:0.5277111530303955px"></line><line x1="53.24" y1="338.07" x2="54.89" y2="334.4" style="fill:none;stroke:#263238;stroke-linecap:round;stroke-linejoin:round;stroke-width:0.5277111530303955px"></line><path d="M63.94,365.3s-4.2-2.59-8.5-5.18" style="fill:none;stroke:#263238;stroke-linecap:round;stroke-linejoin:round;stroke-width:0.5277111530303955px"></path><path d="M61.42,359.34a62.52,62.52,0,0,1,6-11.31" style="fill:none;stroke:#263238;stroke-linecap:round;stroke-linejoin:round;stroke-width:0.5277111530303955px"></path><path d="M64.35,392a49.09,49.09,0,0,0-9.42-10.5" style="fill:none;stroke:#263238;stroke-linecap:round;stroke-linejoin:round;stroke-width:0.5277111530303955px"></path><path d="M65.51,396.32A54.92,54.92,0,0,1,69,387.86c2-3.6,2.28-4.06,2.28-4.06" style="fill:none;stroke:#263238;stroke-linecap:round;stroke-linejoin:round;stroke-width:0.5277111530303955px"></path><path d="M70.49,422.41A45.21,45.21,0,0,1,76.61,417a30.41,30.41,0,0,0,3.92-2.89" style="fill:none;stroke:#263238;stroke-linecap:round;stroke-linejoin:round;stroke-width:0.5277111530303955px"></path><path d="M71.16,417.13A52,52,0,0,0,67,410.28a45.67,45.67,0,0,0-5.13-5.59" style="fill:none;stroke:#263238;stroke-linecap:round;stroke-linejoin:round;stroke-width:0.5277111530303955px"></path><path d="M68.27,433.63a13.38,13.38,0,0,0-1.79-6.79c-1.92-3-4.15-7-5.06-8.57" style="fill:none;stroke:#263238;stroke-linecap:round;stroke-linejoin:round;stroke-width:0.5277111530303955px"></path></g><g id="Page"><rect x="83.47" y="104.91" width="325.72" height="251.51" rx="4.64" style="fill:#ccc"></rect><rect x="91.35" y="123.95" width="309.95" height="199.63" style="fill:#fff"></rect><rect x="91.35" y="123.95" width="80.12" height="199.63" style="fill:#263238"></rect><g style="opacity:0.2"><path d="M113.11,265.23V176.49l58.35,18.42V158.26H121.55A13.72,13.72,0,0,0,107.83,172V273.3L171.46,298v-9.47Z" style="fill:#fff"></path><polygon points="171.46 284.02 171.46 199.34 117.33 182.25 117.33 262.37 171.46 284.02" style="fill:#fff"></polygon><path d="M171.46,309.34l-58.41-23.71a2.64,2.64,0,0,0-2,4.89L171.46,315Z" style="fill:#fff"></path></g><rect x="280.91" y="330.81" width="47.28" height="15.76" rx="2.49" style="fill:#a3a3a3;stroke:#92E3A9;stroke-miterlimit:10;stroke-width:1.055422306060791px"></rect><path d="M295,342.67a.38.38,0,0,1-.12-.3V336.7a.62.62,0,0,1,.15-.44.49.49,0,0,1,.38-.16.75.75,0,0,1,.34.09.8.8,0,0,1,.3.28l3.41,5v-4.92a.38.38,0,0,1,.12-.3.49.49,0,0,1,.62,0,.38.38,0,0,1,.13.3v5.67a.59.59,0,0,1-.17.44.56.56,0,0,1-.41.16.77.77,0,0,1-.32-.07.82.82,0,0,1-.26-.23l-3.42-5v4.85a.35.35,0,0,1-.13.3.49.49,0,0,1-.62,0Z" style="fill:#263238"></path><path d="M302.65,342.58a2.1,2.1,0,0,1-.83-.84,2.68,2.68,0,0,1-.3-1.3,2.71,2.71,0,0,1,.25-1.18,2.28,2.28,0,0,1,.78-.88,2.22,2.22,0,0,1,1.21-.34,2.35,2.35,0,0,1,1,.19,1.61,1.61,0,0,1,.66.5,2.21,2.21,0,0,1,.36.72,3.29,3.29,0,0,1,.14.86.36.36,0,0,1-.08.23.27.27,0,0,1-.22.09h-3.21a1.7,1.7,0,0,0,.43,1.22,1.55,1.55,0,0,0,1.08.42,1.79,1.79,0,0,0,.75-.15,3.78,3.78,0,0,0,.67-.41.28.28,0,0,1,.18-.06.29.29,0,0,1,.19.08.31.31,0,0,1,.07.21.32.32,0,0,1-.13.26,2.55,2.55,0,0,1-1.79.67A2.42,2.42,0,0,1,302.65,342.58Zm2.49-2.47a1.85,1.85,0,0,0-.37-1.07,1.15,1.15,0,0,0-1-.42,1.25,1.25,0,0,0-.59.13,1.07,1.07,0,0,0-.44.34,1.56,1.56,0,0,0-.27.47,1.93,1.93,0,0,0-.13.55Z" style="fill:#263238"></path><path d="M309.94,342.61,308.61,341l-1.33,1.67a.35.35,0,0,1-.28.15.37.37,0,0,1-.28-.11.34.34,0,0,1-.12-.26.37.37,0,0,1,.07-.2l1.48-1.81-1.32-1.64a.31.31,0,0,1-.09-.22.39.39,0,0,1,.13-.29.4.4,0,0,1,.62.06l1.21,1.5,1.21-1.52a.38.38,0,0,1,.3-.16.36.36,0,0,1,.26.11.33.33,0,0,1,.12.25.37.37,0,0,1-.08.21l-1.35,1.68,1.44,1.78a.35.35,0,0,1,.09.23.37.37,0,0,1-.13.27.4.4,0,0,1-.29.12A.37.37,0,0,1,309.94,342.61Z" style="fill:#263238"></path><path d="M312.45,342.5a1.55,1.55,0,0,1-.31-1.07v-2.7h-.58a.32.32,0,0,1-.23-.07.29.29,0,0,1,0-.4.32.32,0,0,1,.23-.08h.58l.11-1.33a.36.36,0,0,1,.13-.26.39.39,0,0,1,.27-.1.32.32,0,0,1,.24.08.33.33,0,0,1,.09.25v1.36h.86a.3.3,0,0,1,.23.08.25.25,0,0,1,.08.21c0,.17-.1.26-.31.26H313v2.55a1.36,1.36,0,0,0,.14.7.47.47,0,0,0,.43.21h.4a.32.32,0,0,1,.24.09.36.36,0,0,1,0,.42.31.31,0,0,1-.16.11l-.21,0h-.55A1.13,1.13,0,0,1,312.45,342.5Z" style="fill:#263238"></path><rect x="343.51" y="330.81" width="47.28" height="15.76" rx="2.49" style="fill:#a3a3a3"></rect><path d="M355.36,342.53a3,3,0,0,1-1.07-1.23,4.19,4.19,0,0,1-.35-1.74,4,4,0,0,1,.22-1.35,3.36,3.36,0,0,1,.61-1.1,2.87,2.87,0,0,1,1-.74,3.27,3.27,0,0,1,1.34-.27,3.4,3.4,0,0,1,1.69.43.36.36,0,0,1,.21.33.38.38,0,0,1-.11.26.32.32,0,0,1-.24.11.34.34,0,0,1-.16,0l-.11-.06-.16-.07L358,337l-.24-.07-.29-.05h-.37a2.17,2.17,0,0,0-.82.14,1.75,1.75,0,0,0-.62.38,2.56,2.56,0,0,0-.43.59,3.07,3.07,0,0,0-.25.74,4.45,4.45,0,0,0,0,1.68,3,3,0,0,0,.25.73,2.14,2.14,0,0,0,.43.58,1.82,1.82,0,0,0,.63.39,2.47,2.47,0,0,0,.84.14,2.29,2.29,0,0,0,.73-.11,4.53,4.53,0,0,0,.68-.32.41.41,0,0,1,.18-.05.34.34,0,0,1,.25.11.33.33,0,0,1,.1.25.45.45,0,0,1-.23.37A3.31,3.31,0,0,1,357,343,3.07,3.07,0,0,1,355.36,342.53Z" style="fill:#263238"></path><path d="M360.48,342.62a1.19,1.19,0,0,1-.46-1,2.19,2.19,0,0,1,.05-.47,1.25,1.25,0,0,1,.16-.35.92.92,0,0,1,.29-.26,1.76,1.76,0,0,1,.42-.17,2.88,2.88,0,0,1,.57-.11c.23,0,.46,0,.71,0l.89,0v-.51a1,1,0,0,0-.27-.74,1.08,1.08,0,0,0-.74-.24,2.69,2.69,0,0,0-.57.06,1.92,1.92,0,0,0-.45.13l-.41.16a.2.2,0,0,1-.11,0,.3.3,0,0,1-.21-.1.33.33,0,0,1-.09-.23.23.23,0,0,1,.13-.21,3.51,3.51,0,0,1,1.73-.41,2,2,0,0,1,1.34.4,1.49,1.49,0,0,1,.48,1.23v2.72a.36.36,0,0,1-.12.29.47.47,0,0,1-.59,0,.36.36,0,0,1-.12-.29v-.45a1.49,1.49,0,0,1-1.44.92A1.91,1.91,0,0,1,360.48,342.62Zm2.22-.66a1.62,1.62,0,0,0,.41-1.13v-.14c-.39,0-.71,0-.95,0a5.21,5.21,0,0,0-.64.07,1.17,1.17,0,0,0-.43.16.63.63,0,0,0-.2.26.86.86,0,0,0-.07.38.75.75,0,0,0,.25.63,1.11,1.11,0,0,0,.69.2A1.23,1.23,0,0,0,362.7,342Z" style="fill:#263238"></path><path d="M365.44,342.78a.38.38,0,0,1-.13-.3v-3.85a.38.38,0,0,1,.13-.29.47.47,0,0,1,.3-.1.45.45,0,0,1,.3.1.34.34,0,0,1,.12.28V339a1.29,1.29,0,0,1,.58-.66,1.94,1.94,0,0,1,.95-.23,1.69,1.69,0,0,1,1.23.45,1.85,1.85,0,0,1,.46,1.36v2.53a.35.35,0,0,1-.13.3.43.43,0,0,1-.29.1.44.44,0,0,1-.3-.1.38.38,0,0,1-.13-.3v-2.54a1.35,1.35,0,0,0-.27-.91,1,1,0,0,0-.79-.31,1.24,1.24,0,0,0-.91.38,1.6,1.6,0,0,0-.4,1v2.34a.35.35,0,0,1-.13.29.4.4,0,0,1-.3.11A.43.43,0,0,1,365.44,342.78Z" style="fill:#263238"></path><path d="M371,342.29a2.55,2.55,0,0,1-.6-1.73,2.58,2.58,0,0,1,.28-1.22,2.22,2.22,0,0,1,.81-.88,2.34,2.34,0,0,1,1.22-.32,2.55,2.55,0,0,1,.74.11,1.52,1.52,0,0,1,.54.29.33.33,0,0,1,.16.27.22.22,0,0,1-.07.17.28.28,0,0,1-.19.07.36.36,0,0,1-.2-.06,1.65,1.65,0,0,0-.94-.28,1.34,1.34,0,0,0-1.09.51,2.07,2.07,0,0,0-.41,1.35,2.41,2.41,0,0,0,.08.67,2,2,0,0,0,.25.58,1.3,1.3,0,0,0,1.1.57,1.82,1.82,0,0,0,1.07-.3A.33.33,0,0,1,374,342a.24.24,0,0,1,.25.25.36.36,0,0,1-.15.28,2.19,2.19,0,0,1-1.43.41A2.06,2.06,0,0,1,371,342.29Z" style="fill:#263238"></path><path d="M376.08,342.68a2.1,2.1,0,0,1-.83-.84,2.68,2.68,0,0,1-.3-1.3,2.76,2.76,0,0,1,.25-1.19,2.1,2.1,0,0,1,.78-.87,2.14,2.14,0,0,1,1.21-.34,2.35,2.35,0,0,1,1,.18,1.7,1.7,0,0,1,.66.51,2.27,2.27,0,0,1,.36.71,3.44,3.44,0,0,1,.14.87.36.36,0,0,1-.08.23.27.27,0,0,1-.22.09H375.8a1.62,1.62,0,0,0,.43,1.21,1.51,1.51,0,0,0,1.08.43,1.79,1.79,0,0,0,.75-.15,3.78,3.78,0,0,0,.67-.41.27.27,0,0,1,.17-.06.22.22,0,0,1,.19.08.32.32,0,0,1,.08.21.33.33,0,0,1-.13.26,2.55,2.55,0,0,1-1.79.67A2.5,2.5,0,0,1,376.08,342.68Zm2.49-2.47a1.91,1.91,0,0,0-.37-1.08,1.17,1.17,0,0,0-1-.41,1.46,1.46,0,0,0-.6.12,1.32,1.32,0,0,0-.43.34,1.52,1.52,0,0,0-.27.48,1.93,1.93,0,0,0-.13.55Z" style="fill:#263238"></path><path d="M380.65,342.77a.4.4,0,0,1-.12-.31v-5.84a.42.42,0,0,1,.13-.31.48.48,0,0,1,.3-.11.46.46,0,0,1,.3.11.41.41,0,0,1,.12.31v5.84a.39.39,0,0,1-.13.31.46.46,0,0,1-.3.11A.41.41,0,0,1,380.65,342.77Z" style="fill:#263238"></path><path d="M329.07,104.91v11.82a3.28,3.28,0,0,0,3.28,3.28h66.33a3.28,3.28,0,0,0,3.28-3.28V104.91Z" style="fill:#a3a3a3"></path><path d="M343.18,104.91H324.79v11.82a3.28,3.28,0,0,0,3.28,3.28h15.11Z" style="fill:#a3a3a3"></path><path d="M365.18,104.91V120h33.5a3.28,3.28,0,0,0,3.28-3.28V104.91Z" style="fill:#263238"></path><rect x="343.18" y="104.91" width="22.01" height="15.1" style="fill:#787878"></rect><polygon points="386.52 115.46 383.6 115.46 378.73 108.03 381.64 108.03 386.52 115.46" style="fill:#fff"></polygon><polygon points="378.73 115.46 381.64 115.46 386.52 108.03 383.6 108.03 378.73 115.46" style="fill:#fff"></polygon><rect x="328.77" y="112.52" width="10.55" height="2.81" style="fill:#fff"></rect><path d="M349.22,108.58v6.76h9.66v-6.76Zm7.84,4.84h-6v-2.93h6Z" style="fill:#fff"></path><rect x="134.57" y="137.15" width="25.33" height="24.63" style="fill:#92E3A9;stroke:#fff;stroke-miterlimit:10;stroke-width:2.110844612121582px"></rect><rect x="183.82" y="137.85" width="112.58" height="4.93" style="fill:#263238"></rect><rect x="183.82" y="148.41" width="71.07" height="4.93" style="fill:#263238"></rect><line x1="185.93" y1="174.44" x2="356.91" y2="174.44" style="fill:none;stroke:#263238;stroke-miterlimit:10;stroke-width:1.055422306060791px"></line><line x1="185.93" y1="206.1" x2="356.91" y2="206.1" style="fill:none;stroke:#263238;stroke-miterlimit:10;stroke-width:1.055422306060791px"></line><line x1="185.93" y1="213.84" x2="356.91" y2="213.84" style="fill:none;stroke:#263238;stroke-miterlimit:10;stroke-width:1.055422306060791px"></line><line x1="185.93" y1="221.58" x2="356.91" y2="221.58" style="fill:none;stroke:#263238;stroke-miterlimit:10;stroke-width:1.055422306060791px"></line><line x1="185.93" y1="229.32" x2="214.78" y2="229.32" style="fill:none;stroke:#263238;stroke-miterlimit:10;stroke-width:1.055422306060791px"></line><line x1="185.93" y1="180.77" x2="250.67" y2="180.77" style="fill:none;stroke:#263238;stroke-miterlimit:10;stroke-width:1.055422306060791px"></line><line x1="185.93" y1="246.91" x2="250.67" y2="246.91" style="fill:none;stroke:#263238;stroke-miterlimit:10;stroke-width:1.055422306060791px"></line><path d="M96.23,117a1,1,0,0,0-.34-.76,3.41,3.41,0,0,0-1.23-.54,5.24,5.24,0,0,1-1.94-.87,1.74,1.74,0,0,1-.68-1.42,1.82,1.82,0,0,1,.75-1.5,3.07,3.07,0,0,1,1.94-.59,2.92,2.92,0,0,1,2,.67,2,2,0,0,1,.72,1.6v0h-1.2a1.21,1.21,0,0,0-.39-.93,1.6,1.6,0,0,0-1.12-.36,1.65,1.65,0,0,0-1.06.3,1,1,0,0,0-.36.77.84.84,0,0,0,.4.71,4.08,4.08,0,0,0,1.32.53,4.52,4.52,0,0,1,1.84.9,1.89,1.89,0,0,1,.63,1.46,1.76,1.76,0,0,1-.75,1.49,3.25,3.25,0,0,1-2,.55,3.46,3.46,0,0,1-2.06-.62,2,2,0,0,1-.86-1.71v0h1.21a1.17,1.17,0,0,0,.47,1,2.06,2.06,0,0,0,1.23.34,1.81,1.81,0,0,0,1.09-.28A.91.91,0,0,0,96.23,117Z" style="fill:#263238"></path><path d="M101,119.06a2.42,2.42,0,0,1-1.89-.77,2.85,2.85,0,0,1-.71-2v-.21a3,3,0,0,1,.7-2,2.2,2.2,0,0,1,1.75-.79,2.17,2.17,0,0,1,1.73.68,2.67,2.67,0,0,1,.6,1.83v.74H99.74v0a1.73,1.73,0,0,0,.39,1.09,1.23,1.23,0,0,0,1,.42,2.77,2.77,0,0,0,.87-.12,3.57,3.57,0,0,0,.7-.36l.4.82a2.57,2.57,0,0,1-.84.47A3.4,3.4,0,0,1,101,119.06Zm-.15-4.78a.92.92,0,0,0-.76.37,1.85,1.85,0,0,0-.37.94v0H102v-.13a1.32,1.32,0,0,0-.27-.86A1,1,0,0,0,100.89,114.28Z" style="fill:#263238"></path><path d="M105.79,112v1.36h1v.93h-1v3.08a.67.67,0,0,0,.15.49.53.53,0,0,0,.39.15l.21,0,.18-.05.13.92a1.51,1.51,0,0,1-.38.14,2.25,2.25,0,0,1-.46,0,1.43,1.43,0,0,1-1.08-.4,1.77,1.77,0,0,1-.39-1.27v-3.08h-.85v-.93h.85V112Z" style="fill:#263238"></path><path d="M111.37,118.14a1.76,1.76,0,0,1-1.59.92,1.77,1.77,0,0,1-1.4-.57,2.61,2.61,0,0,1-.51-1.78v-3.33h1.25v3.34a1.68,1.68,0,0,0,.24,1,.86.86,0,0,0,.72.29,1.61,1.61,0,0,0,.76-.16,1.2,1.2,0,0,0,.48-.47v-4h1.25V119h-1.09Z" style="fill:#263238"></path><path d="M118.76,116.35a3.18,3.18,0,0,1-.57,2,1.88,1.88,0,0,1-1.59.74,1.86,1.86,0,0,1-.84-.17,1.77,1.77,0,0,1-.63-.5v2.71h-1.25v-7.72h1.06l.12.7a1.92,1.92,0,0,1,3.13,0,3.73,3.73,0,0,1,.57,2.16Zm-1.24-.11a2.62,2.62,0,0,0-.33-1.39,1,1,0,0,0-1-.55,1.19,1.19,0,0,0-1.1.64v2.51a1.12,1.12,0,0,0,.44.45,1.28,1.28,0,0,0,.67.16,1.08,1.08,0,0,0,1-.47,2.21,2.21,0,0,0,.32-1.24Z" style="fill:#263238"></path><path d="M124.46,117h0v0l1.5-5.49h1l1.51,5.51v0l1.19-5.49h1.23L129.13,119H128l-1.5-5.39h0L125,119h-1.14L122,111.45h1.23Z" style="fill:#263238"></path><path d="M133.16,112h-1.25v-1.09h1.25Zm0,6.95h-1.25v-5.58h1.25Z" style="fill:#263238"></path><path d="M135.89,118h3v1h-4.53v-.83l2.81-3.75h-2.76v-1h4.34v.79Z" style="fill:#263238"></path><path d="M143.26,119c0-.14-.08-.28-.11-.42a2.57,2.57,0,0,1-.06-.4,2.22,2.22,0,0,1-.67.66,1.71,1.71,0,0,1-.94.26,1.88,1.88,0,0,1-1.34-.44,1.64,1.64,0,0,1-.47-1.24,1.45,1.45,0,0,1,.64-1.26,3.11,3.11,0,0,1,1.8-.45h1v-.49a.89.89,0,0,0-.25-.68,1.21,1.21,0,0,0-1.42,0,.63.63,0,0,0-.25.53H140v0a1.41,1.41,0,0,1,.59-1.17,2.53,2.53,0,0,1,1.64-.51,2.38,2.38,0,0,1,1.57.49,1.74,1.74,0,0,1,.6,1.42v2.48a4.92,4.92,0,0,0,0,.67,3.5,3.5,0,0,0,.15.62Zm-1.53-.9a1.56,1.56,0,0,0,.85-.24,1.21,1.21,0,0,0,.5-.54v-.82h-1a1.27,1.27,0,0,0-.86.27.84.84,0,0,0-.31.63.64.64,0,0,0,.21.51A.85.85,0,0,0,141.73,118.06Z" style="fill:#263238"></path><path d="M148.43,114.51l-.54,0a1.15,1.15,0,0,0-.61.15,1.09,1.09,0,0,0-.38.44V119h-1.25v-5.58h1.14l.09.81a1.74,1.74,0,0,1,.54-.67,1.28,1.28,0,0,1,.77-.24h.21l.18,0Z" style="fill:#263238"></path><path d="M149.07,116.25a3.73,3.73,0,0,1,.57-2.16,1.86,1.86,0,0,1,1.61-.81,1.79,1.79,0,0,1,.81.18,1.82,1.82,0,0,1,.62.52v-3.06h1.26v8h-1.05l-.13-.69a1.72,1.72,0,0,1-1.52.79,1.89,1.89,0,0,1-1.6-.74,3.18,3.18,0,0,1-.57-2Zm1.25.1a2.25,2.25,0,0,0,.3,1.24,1,1,0,0,0,.94.45,1.19,1.19,0,0,0,.67-.17,1.16,1.16,0,0,0,.45-.48V115a1.16,1.16,0,0,0-.45-.48,1.19,1.19,0,0,0-.66-.18,1,1,0,0,0-.94.54,2.89,2.89,0,0,0-.31,1.41Z" style="fill:#263238"></path></g><g id="Character"><ellipse cx="302.87" cy="321.1" rx="12.16" ry="13.93" style="fill:#263238;stroke:#263238;stroke-linejoin:round;stroke-width:1.055422306060791px"></ellipse><path d="M243.53,323.8a38.54,38.54,0,0,1-10.6-4.37c-5.61-3.32-5.82-8.52-4.16-12.47s17.46-20.57,33.47-24.11,28.06,7.69,33.25,20.58,1.25,27.64-2.28,32-12.48,7.48-16.43,4.57-10.39-11.64-18.08-15.17A22.56,22.56,0,0,0,243.53,323.8Z" style="fill:#263238;stroke:#263238;stroke-linejoin:round;stroke-width:1.055422306060791px"></path><path d="M252.35,297.62S267.71,314.9,292.68,313" style="fill:none;stroke:#636363;stroke-miterlimit:10;stroke-width:1.055422306060791px"></path><path d="M255,293.78l8.45-6.92s21.12.39,30.34,21.13" style="fill:none;stroke:#636363;stroke-miterlimit:10;stroke-width:1.055422306060791px"></path><path d="M243.51,304.53s-17.28,7.68-12.29,11.14,8.07.77,8.07.77" style="fill:none;stroke:#636363;stroke-miterlimit:10;stroke-width:1.055422306060791px"></path><path d="M233.52,303s2.69-4.23,12.68-4.23" style="fill:none;stroke:#636363;stroke-miterlimit:10;stroke-width:1.055422306060791px"></path><path d="M247.35,301.84a38.75,38.75,0,0,0,25,17.29c17.29,3.46,23.05-.77,23.05-.77" style="fill:none;stroke:#636363;stroke-miterlimit:10;stroke-width:1.055422306060791px"></path><path d="M263.36,388.4c-.16,11.08-9.84,42.16-14.45,56.36h48.6l12.41-81.51-11.64-5.61s-8.94-4.16-15-2.71-13.72,6-13.72,6l-6.44,2.29S263.56,373.85,263.36,388.4Z" style="fill:#fff"></path><g style="clip-path:url(#clip-path)"><path d="M262.22,444.76c1-4.4,3.07-13.4,6.43-28,5.07-22,5.5-56.62,5.5-56.62-.37,9.1-14.84,68.35-18.84,84.61Z" style="opacity:0.2"></path></g><path d="M263.36,388.4c-.16,11.08-9.84,42.16-14.45,56.36h48.6l12.41-81.51-11.64-5.61s-8.94-4.16-15-2.71-13.72,6-13.72,6l-6.44,2.29S263.56,373.85,263.36,388.4Z" style="fill:none;stroke:#263238;stroke-linejoin:round;stroke-width:1.055422306060791px"></path><path d="M269.18,351s3.9,4.26,4.61,7.45-1.77,15.62,4.26,18.81,12.77-2.84,16.32-9.94S296.15,356,296.15,356s-8.52-8.52-12.42-14.9A55.33,55.33,0,0,1,278.05,328s-2.13,11.71-5,16A38.68,38.68,0,0,0,269.18,351Z" style="fill:#fff"></path><g style="clip-path:url(#clip-path-2)"><path d="M271.61,352.55l-.61.71a19.83,19.83,0,0,1,2.33,3.85,14.33,14.33,0,0,0,6.73-5.41c2.08-3.07,2.28-9.07,2.1-13.4-.48-.94-.93-1.86-1.32-2.75C279.15,339.64,275.38,348.15,271.61,352.55Z" style="opacity:0.2"></path></g><path d="M269.18,351s3.9,4.26,4.61,7.45-1.77,15.62,4.26,18.81,12.77-2.84,16.32-9.94S296.15,356,296.15,356s-8.52-8.52-12.42-14.9A55.33,55.33,0,0,1,278.05,328s-2.13,11.71-5,16A38.68,38.68,0,0,0,269.18,351Z" style="fill:none;stroke:#263238;stroke-linecap:round;stroke-linejoin:round;stroke-width:1.055422306060791px"></path><path d="M245.21,308.41s16,12.42,23.77,15.26,17,1.42,17,1.42a4.61,4.61,0,0,1-1.07,4.26,29.32,29.32,0,0,0-3.19,3.9s.35,10.64-3.19,16-8.17,8.16-14.55,5.67-11.71-5.67-14.91-11-2.83-10.64-4.25-14.19l-4.26-10.64S242.37,311.25,245.21,308.41Z" style="fill:#fff;stroke:#263238;stroke-linecap:round;stroke-linejoin:round;stroke-width:1.055422306060791px"></path><path d="M252.67,326.71s.84,11.43,2.08,11.85,4.78-.83,4.78-.83" style="fill:none;stroke:#263238;stroke-linecap:round;stroke-linejoin:round;stroke-width:1.055422306060791px"></path><path d="M257.87,342.09s5,.42,6.86-3.33" style="fill:none;stroke:#263238;stroke-linecap:round;stroke-linejoin:round;stroke-width:1.055422306060791px"></path><path d="M251.05,329c.42,1.31.18,2.56-.53,2.79s-1.62-.66-2-2-.19-2.56.52-2.78S250.63,327.69,251.05,329Z" style="fill:#263238"></path><path d="M261,325.67c.42,1.32.18,2.56-.53,2.79s-1.63-.65-2.05-2-.18-2.56.53-2.79S260.61,324.36,261,325.67Z" style="fill:#263238"></path><path d="M245.61,325.25s-.21-2.49,4.15-2.07" style="fill:none;stroke:#263238;stroke-linecap:round;stroke-linejoin:round;stroke-width:1.055422306060791px"></path><path d="M254.13,321.93a4.62,4.62,0,0,1,6-1.87" style="fill:none;stroke:#263238;stroke-linecap:round;stroke-linejoin:round;stroke-width:1.055422306060791px"></path><path d="M252.62,326.74c1.7,4.08.54,8.44-2.58,9.75s-7-.95-8.74-5-.55-8.44,2.58-9.75S250.92,322.66,252.62,326.74Z" style="fill:none;stroke:#263238;stroke-linejoin:round;stroke-width:1.055422306060791px"></path><path d="M266.34,322c1.7,4.08.54,8.44-2.58,9.75s-7-.95-8.74-5-.55-8.44,2.58-9.75S264.64,317.88,266.34,322Z" style="fill:none;stroke:#263238;stroke-linejoin:round;stroke-width:1.055422306060791px"></path><line x1="252.05" y1="325.25" x2="254.54" y2="324.01" style="fill:none;stroke:#263238;stroke-linejoin:round;stroke-width:1.055422306060791px"></line><path d="M318.3,444.76c3.74-21.24,14-80.73,11.57-81.93C327,361.38,296.15,356,296.15,356s-3.49,25.13-8.06,48.2c-3,15.32-6.25,31.45-8.07,40.57Z" style="fill:#92E3A9;stroke:#263238;stroke-linejoin:round;stroke-width:1.055422306060791px"></path><path d="M251.93,367.2s-5.73,4.82-6.09,8.38-6.4,46.25-6.4,46.25-1.42-1.77-3.2-1.06a6.69,6.69,0,0,0-2.85,2.49s-.64-2.33-2.49-.71-3.2,7.82-3.2,7.82,2.84,9.26,5,10.68,5.34-.71,5.34-.71-.36,1.42,3.55,1.42,4.63-6.05,6.05-8.54,5.7-29.18,7.83-43.77S251.93,367.2,251.93,367.2Z" style="fill:#92E3A9;stroke:#263238;stroke-linecap:round;stroke-linejoin:round;stroke-width:1.055422306060791px"></path><path d="M240.93,444.76h18c1.78-7,4.61-18.42,7.52-30.59,4.79-19.95,7.32-55.7,7.32-55.7l-21.86,8.73a253.91,253.91,0,0,1-.42,36.16C250.36,417,244.48,434.91,240.93,444.76Z" style="fill:#92E3A9;stroke:#263238;stroke-linejoin:round;stroke-width:1.055422306060791px"></path><path d="M314.52,368.1l-12.45,51.6-5.34-1.42-2.49,2.13s-1.78-2.49-3.56.36a18.37,18.37,0,0,1-3.56,4.27l2.49,14.59s10.57,4.33,12.1,3.91a4.34,4.34,0,0,0,3.2-5,11.19,11.19,0,0,0,4.27,1.42c.93,0,3.43-1.75,5.59-3.43a14.32,14.32,0,0,0,5-7.15c3.75-12.1,14.45-46.66,16.15-51.33,4.27-11.75-6.76-16-8.18-16" style="fill:#92E3A9;stroke:#263238;stroke-linecap:round;stroke-linejoin:round;stroke-width:1.055422306060791px"></path><path d="M170.86,429s-7.88,3.7-7.19,4.4,6-1.85,7.19-2.09S173.41,428.56,170.86,429Z" style="fill:#fff;stroke:#263238;stroke-linecap:round;stroke-linejoin:round;stroke-width:1.055422306060791px"></path><path d="M173.87,426.48s-2.55-.47-3,.69-2.55,7.42-2.32,8.81,2.32-1.39,3.25-2.78S173.87,426.48,173.87,426.48Z" style="fill:#fff;stroke:#263238;stroke-linecap:round;stroke-linejoin:round;stroke-width:1.055422306060791px"></path><path d="M178.74,426.48s-4.17-1.16-4.87,0-4.4,9.27-4.4,9.27-.46.93,1.62,0S178.74,426.48,178.74,426.48Z" style="fill:#fff;stroke:#263238;stroke-linecap:round;stroke-linejoin:round;stroke-width:1.055422306060791px"></path><path d="M228.58,426.48,202.15,429s-18.31-3.71-20.4-3.94-4.17,1.39-5.09,2.78-6.73,8.81-6.73,8.81l1.39.46,8.12-6.49s4.4-.23,5.79-.23-3.94,3-5.56,3.24-3.48.47-3.25,1.39,4.41,1.16,5.33,1.16,7.42-2.32,7.42-2.32a36,36,0,0,1,3.71.24c2.09.23,5.8-1.4,5.8-1.4s32.91,7.89,35.23,7.65S236.4,428,228.58,426.48Z" style="fill:#fff;stroke:#263238;stroke-linecap:round;stroke-linejoin:round;stroke-width:1.055422306060791px"></path><path d="M220.47,427.4s-4.64,2.55-6.73,2.78-1.85,2.09,0,2.79,8.35-2.55,9.74-2.55,12.28.92,14.6,1.16,3.71-2.09-2.08-3.94S220.47,427.4,220.47,427.4Z" style="fill:#fff;stroke:#263238;stroke-linecap:round;stroke-linejoin:round;stroke-width:1.055422306060791px"></path><path d="M225.61,424.15s-4.3-1-4.85.79-5.58,8.9-5.7,9.58,1.67,1.24,3.71-1S225.61,424.15,225.61,424.15Z" style="fill:#fff;stroke:#263238;stroke-linecap:round;stroke-linejoin:round;stroke-width:1.055422306060791px"></path><path d="M228.81,423.23s-3.71-.93-4.64,0-7.41,11.82-7.41,12.75,2.55.46,2.55.46l7.41-10.2,2.32-2.08Z" style="fill:#fff;stroke:#263238;stroke-linecap:round;stroke-linejoin:round;stroke-width:1.055422306060791px"></path><path d="M297.19,439.92a6.34,6.34,0,0,0,5.57-6c.46-5.56-5.57-10.89-9.74-11.12s-23.64,4.17-31.52,4.4-14.84.23-16.46-.46-15.3-3.48-16.23-3.48-10.43,13.21-10.43,13.21.7,1.63,2.55,0,7.88-7.18,7.88-7.18h6.72s-6.26,3.71-7.18,4.4-4.64,4.64-3.71,4.87,5.79-3.94,5.79-3.94l7-1.86s5.1,3.25,9.73,3.48a21.2,21.2,0,0,0,8.12-1.16S282.13,440.15,297.19,439.92Z" style="fill:#fff;stroke:#263238;stroke-linecap:round;stroke-linejoin:round;stroke-width:1.055422306060791px"></path></g><g id="Device"><line x1="447.38" y1="444.63" x2="45.27" y2="444.63" style="fill:none;stroke:#263238;stroke-linejoin:round;stroke-width:1.055422306060791px"></line><rect x="133.41" y="440.06" width="124.54" height="4.57" style="fill:#fff;stroke:#263238;stroke-linejoin:round;stroke-width:1.055422306060791px"></rect><rect x="199.44" y="440.06" width="58.51" height="4.57" style="fill:#263238;stroke:#263238;stroke-linejoin:round;stroke-width:1.055422306060791px"></rect><polygon points="202.34 440.06 179.32 382.27 107.55 382.27 136.31 440.06 202.34 440.06" style="fill:#263238;stroke:#263238;stroke-linejoin:round;stroke-width:1.055422306060791px"></polygon><polygon points="199.44 440.06 176.42 382.27 104.65 382.27 133.41 440.06 199.44 440.06" style="fill:#fff;stroke:#263238;stroke-linejoin:round;stroke-width:1.055422306060791px"></polygon></g></svg>
