<svg xmlns="http://www.w3.org/2000/svg" viewBox="0 0 500 500"><g id="background-simple"><path d="M324.65,44.22S248.77,17.39,174.19,60.39,61.88,188.6,29.5,256.85,15.59,394.46,72.43,426s95.59-15.14,175.4-17.52,101.25,9,167.54-36.12S493.78,221,441.66,142.45,324.65,44.22,324.65,44.22Z" style="fill:#92E3A9"></path><path d="M324.65,44.22S248.77,17.39,174.19,60.39,61.88,188.6,29.5,256.85,15.59,394.46,72.43,426s95.59-15.14,175.4-17.52,101.25,9,167.54-36.12S493.78,221,441.66,142.45,324.65,44.22,324.65,44.22Z" style="fill:#fff;opacity:0.7000000000000001"></path></g><g id="Bricks"><rect x="408" y="192.29" width="42" height="17" style="opacity:0.2"></rect><rect x="392" y="131.79" width="42" height="17" style="opacity:0.2"></rect><rect x="240" y="191.79" width="42" height="17" style="opacity:0.2"></rect><rect x="301" y="73.5" width="42" height="17" style="opacity:0.2"></rect><rect x="347" y="73.5" width="42" height="17" style="opacity:0.2"></rect><rect x="168" y="317.5" width="42" height="17" style="opacity:0.2"></rect><rect x="146" y="338.5" width="42" height="17" style="opacity:0.2"></rect><rect x="369" y="155.29" width="42" height="17" style="opacity:0.1"></rect><rect x="432" y="250.79" width="42" height="17" style="opacity:0.1"></rect><rect x="186" y="276.79" width="42" height="17" style="opacity:0.1"></rect><rect x="234" y="276.79" width="42" height="17" style="opacity:0.1"></rect><rect x="238" y="252.79" width="42" height="17" style="opacity:0.1"></rect><rect x="417" y="155.29" width="42" height="17" style="opacity:0.1"></rect><rect x="292" y="336.79" width="42" height="17" style="opacity:0.2"></rect><rect x="269" y="360.29" width="42" height="17" style="opacity:0.1"></rect><rect x="317" y="360.29" width="42" height="17" style="opacity:0.1"></rect><rect x="405" y="385.79" width="42" height="17" style="opacity:0.2"></rect><rect x="72" y="251.79" width="42" height="17" style="opacity:0.2"></rect><rect x="382" y="409.29" width="42" height="17" style="opacity:0.1"></rect><rect x="430" y="409.29" width="42" height="17" style="opacity:0.1"></rect><rect x="258" y="170.5" width="42" height="17" style="opacity:0.1"></rect><rect x="195" y="337.5" width="42" height="17" style="opacity:0.1"></rect><rect x="325" y="52.5" width="42" height="17" style="opacity:0.1"></rect><rect x="48" y="195.5" width="42" height="17" style="opacity:0.2"></rect><rect x="72" y="174.5" width="42" height="17" style="opacity:0.1"></rect><rect x="179" y="72.29" width="42" height="17" style="opacity:0.1"></rect><rect x="325" y="192.29" width="42" height="17" style="opacity:0.2"></rect></g><g id="Floor"><line x1="468.82" y1="451" x2="479" y2="451" style="fill:none;stroke:#263238;stroke-linecap:round;stroke-linejoin:round"></line><line x1="16" y1="451" x2="457.91" y2="451" style="fill:none;stroke:#263238;stroke-linecap:round;stroke-linejoin:round"></line><ellipse cx="255.5" cy="470" rx="169.5" ry="13" style="fill:#263238;stroke:#263238;stroke-linecap:round;stroke-linejoin:round"></ellipse></g><g id="Plant"><ellipse cx="90.65" cy="331.92" rx="12.66" ry="33.22" style="fill:#263238"></ellipse><ellipse cx="120.18" cy="308.31" rx="23.67" ry="10.3" transform="translate(-210.05 329.49) rotate(-72.37)" style="fill:#263238"></ellipse><ellipse cx="38.79" cy="376.41" rx="10.3" ry="23.67" transform="matrix(0.17, -0.99, 0.99, 0.17, -338.81, 351.79)" style="fill:#263238"></ellipse><ellipse cx="133" cy="346.87" rx="27.46" ry="12.66" transform="translate(-205.69 194.24) rotate(-44.76)" style="fill:#263238"></ellipse><ellipse cx="55.81" cy="334.79" rx="14.48" ry="33.22" transform="translate(-180.14 90.8) rotate(-34.58)" style="fill:#263238"></ellipse><line x1="91.54" y1="363.48" x2="92.52" y2="409.16" style="fill:none;stroke:#263238;stroke-linecap:round;stroke-miterlimit:10;stroke-width:2px"></line><line x1="90.36" y1="319.57" x2="91.54" y2="363.48" style="fill:none;stroke:#8c8c8c;stroke-linecap:round;stroke-miterlimit:10;stroke-width:2px"></line><line x1="90.44" y1="312.4" x2="90.36" y2="315.77" style="fill:none;stroke:#8c8c8c;stroke-linecap:round;stroke-miterlimit:10;stroke-width:2px"></line><path d="M74.61,360a127.58,127.58,0,0,1,12.51,47.93" style="fill:none;stroke:#263238;stroke-linecap:round;stroke-miterlimit:10;stroke-width:2px"></path><path d="M52.86,326.7A150.73,150.73,0,0,1,74.61,360" style="fill:none;stroke:#8c8c8c;stroke-linecap:round;stroke-miterlimit:10;stroke-width:2px"></path><path d="M46,319.46s1.32,1.2,3.47,3.5" style="fill:none;stroke:#8c8c8c;stroke-linecap:round;stroke-miterlimit:10;stroke-width:2px"></path><path d="M114.3,364.67a150.22,150.22,0,0,0-20.54,40.75" style="fill:none;stroke:#263238;stroke-linecap:round;stroke-miterlimit:10;stroke-width:2px"></path><path d="M128.87,347.93a118.8,118.8,0,0,0-14.57,16.74" style="fill:none;stroke:#8c8c8c;stroke-linecap:round;stroke-miterlimit:10;stroke-width:2px"></path><path d="M144.42,336.07a67.08,67.08,0,0,0-11.09,7.86" style="fill:none;stroke:#8c8c8c;stroke-linecap:round;stroke-miterlimit:10;stroke-width:2px"></path><path d="M113.76,327.79c-7,22.08-16.43,54.71-20.83,83" style="fill:none;stroke:#263238;stroke-linecap:round;stroke-miterlimit:10;stroke-width:2px"></path><path d="M118,314.69c-1.25,3.73-2.7,8.15-4.28,13.1" style="fill:none;stroke:#8c8c8c;stroke-linecap:round;stroke-miterlimit:10;stroke-width:2px"></path><path d="M122.42,302s-1.23,3.38-3.2,9.18" style="fill:none;stroke:#8c8c8c;stroke-linecap:round;stroke-miterlimit:10;stroke-width:2px"></path><path d="M61.49,377.31C70.25,380.63,78.81,387,83,399.19" style="fill:none;stroke:#263238;stroke-linecap:round;stroke-miterlimit:10;stroke-width:2px"></path><path d="M45.29,374a55.08,55.08,0,0,1,16.2,3.29" style="fill:none;stroke:#8c8c8c;stroke-linecap:round;stroke-miterlimit:10;stroke-width:2px"></path><path d="M34.8,374.28s1.56-.23,4.13-.33" style="fill:none;stroke:#8c8c8c;stroke-linecap:round;stroke-miterlimit:10;stroke-width:2px"></path><ellipse cx="145.67" cy="376.41" rx="23.67" ry="10.3" transform="translate(-60.83 29.62) rotate(-9.62)" style="fill:#263238"></ellipse><path d="M123.25,377.2c-8.86,3.3-17.55,9.72-21.76,22" style="fill:none;stroke:#263238;stroke-linecap:round;stroke-miterlimit:10;stroke-width:2px"></path><path d="M140.53,374a56.57,56.57,0,0,0-17.28,3.25" style="fill:none;stroke:#8c8c8c;stroke-linecap:round;stroke-miterlimit:10;stroke-width:2px"></path><path d="M149.66,374.28s-1-.15-2.79-.26" style="fill:none;stroke:#8c8c8c;stroke-linecap:round;stroke-miterlimit:10;stroke-width:2px"></path><path d="M59.2,395.87a53.93,53.93,0,0,0-2.39,16c0,24.66,16.17,49.63,36.12,49.63s36.13-25,36.13-49.63a53.61,53.61,0,0,0-2.4-16Z" style="fill:#263238"></path><path d="M57.47,403.34c-.19,1.23-.34,2.48-.45,3.74h71.83c-.11-1.26-.26-2.51-.46-3.74Z" style="fill:#7a7a7a"></path><path d="M128.08,422.44c.23-1.24.42-2.48.57-3.73H57.22c.15,1.25.34,2.49.57,3.73Z" style="fill:#7a7a7a"></path><path d="M65.53,412.06a2.91,2.91,0,1,1-2.91-2.9A2.91,2.91,0,0,1,65.53,412.06Z" style="fill:#8c8c8c"></path><path d="M80.06,412.06a2.91,2.91,0,1,1-2.91-2.9A2.91,2.91,0,0,1,80.06,412.06Z" style="fill:#8c8c8c"></path><path d="M94.59,412.06a2.91,2.91,0,1,1-2.9-2.9A2.9,2.9,0,0,1,94.59,412.06Z" style="fill:#8c8c8c"></path><path d="M109.13,412.06a2.91,2.91,0,1,1-2.91-2.9A2.91,2.91,0,0,1,109.13,412.06Z" style="fill:#8c8c8c"></path><path d="M123.66,412.06a2.91,2.91,0,1,1-2.91-2.9A2.91,2.91,0,0,1,123.66,412.06Z" style="fill:#8c8c8c"></path><ellipse cx="98.76" cy="458.79" rx="47.05" ry="6.7" style="fill:#263238;stroke:#263238;stroke-linecap:round;stroke-linejoin:round"></ellipse></g><g id="character-3"><path d="M416.28,149.14s13.81,6.91,16.4,13.81,1.3,9.5,3.45,29.79S440,226,440,240.23s-3,19-17.7,23.74-16,3.89-25.9-3.45-12.52-13.81-18.13-42.74,6.9-64.75,16-69.07S416.28,149.14,416.28,149.14Z" style="fill:#a6a6a6;stroke:#263238;stroke-linecap:round;stroke-linejoin:round"></path><path d="M431.67,246.43c-9.36,1.56-16.22-1.56-23.09-1.56-5.9,0-15.93,5.77-13.88,14.32.55.45,1.12.89,1.72,1.33,9.93,7.34,11.22,8.2,25.9,3.45,14.37-4.65,17.57-9.3,17.69-22.86C439.8,242.53,438.48,245.3,431.67,246.43Z" style="fill:#6e6e6e;stroke:#263238;stroke-linecap:round;stroke-linejoin:round"></path><path d="M332.46,266.33s-.33,25,.34,32,4.66,57,6.33,66.34,3.33,26.66,3.67,31,1,28.33,1,28.33-3.34,5.33-1,7,3.66,3.33,2.33,3.67-4-.67-2,3.66-.67,6.67,2.33,7.34,11.34,3.33,15.67,2,6-2.34,5.67-6-2.67-5.34-1.34-8,2-2.67,1.34-6.67-1.67-2.67-1.67-7,3.33-95.67,3.33-95.67l12,97.34s-3,9-2,10,3.34,2.33,2,4.66-2.66,5.34-.33,7.34,3.67,2.66,3.33,4.33-4,.67,1,2.67,15,3.33,18.34,0,.66-2.67,1.66-6.67,4.34-3.33,2-9.33-4-1.34-2.66-9,1.66-13.34.66-17.34a37.66,37.66,0,0,1-1-9.66c0-2.34,1-130,1-130Z" style="fill:#263238;stroke:#263238;stroke-linecap:round;stroke-linejoin:round"></path><polyline points="351.8 289.33 365.46 295.67 368.46 324.33" style="fill:none;stroke:#6e6e6e;stroke-linecap:round;stroke-linejoin:round"></polyline><path d="M356.13,448.33s2-4.33-2.67-6-9,0-9.33,3.34-5.33,7-8.67,9-15.66,7.33-16.66,11,2.33,5,9.66,5.66,19-2.33,26-1.66,13.67,1.33,14.67-.67-2-22-3.67-22S356.13,448.33,356.13,448.33Z" style="fill:#fff;stroke:#263238;stroke-linecap:round;stroke-linejoin:round"></path><path d="M355.8,466.33c-12-1.33-13.34,2-22.34,2a75.17,75.17,0,0,1-14.82-1.67c-.15,2.92,3.2,4.07,9.82,4.67,7.34.67,19-2.33,26-1.66s13.67,1.33,14.67-.67a8.19,8.19,0,0,0,.16-3C366.84,466.63,362.9,467.12,355.8,466.33Z" style="fill:#92E3A9;stroke:#263238;stroke-linecap:round;stroke-linejoin:round"></path><path d="M395.46,450.33s.34-8-5.33-8.33-7.67,4-8,6.67-2.33,9.66-7,12.33-11.33,6-11.33,9.33,1,3.67,6.66,4.34a107.84,107.84,0,0,0,23-.34c7.34-1,11.34-4,12.34-7,.82-2.47-.17-12.68-.54-16.16A1.27,1.27,0,0,0,404,450Z" style="fill:#fff;stroke:#263238;stroke-linecap:round;stroke-linejoin:round"></path><path d="M370.46,474.67a107.84,107.84,0,0,0,23-.34c7.34-1,11.34-4,12.34-7a7.8,7.8,0,0,0,.25-1.65c-5.25,2.83-13.11,6.45-21.59,6.65a69.79,69.79,0,0,1-20.64-2.23c0,.08,0,.16,0,.23C363.8,473.67,364.8,474,370.46,474.67Z" style="fill:#92E3A9;stroke:#263238;stroke-linecap:round;stroke-linejoin:round"></path><path d="M332.13,259.33s-2.33,7.67.67,10.34,14.66,8,35.66,9.66S404.8,274,406.8,272s-.34-9-.34-9-17.66,4-44.33,2S332.13,259.33,332.13,259.33Z" style="fill:#fff;stroke:#263238;stroke-linecap:round;stroke-linejoin:round"></path><path d="M327.05,169l-7.94,31s.38,19.65.38,21.16,1.51,6.42,1.89,7.93,4.53,4.91,13.22-6.8,9.82-37.4,9.82-37.4S339.13,153.14,327.05,169Z" style="fill:#92E3A9;stroke:#263238;stroke-linecap:round;stroke-linejoin:round"></path><path d="M313.07,203s1.89-4.16,6-3,8.31,2.27,10.58,9.07,2.64,13.22-.76,17-6,5.29-11.71,4.53-9.06-5.66-9.44-7.17S313.07,203,313.07,203Z" style="fill:#fff;stroke:#263238;stroke-linecap:round;stroke-linejoin:round"></path><path d="M314.58,202.25S291.09,188.78,289,185.5s-15.36-20.08-17.82-22.33-5.12-3.69-6.56-1.64-.2,3.07,1,3.89a20.22,20.22,0,0,0,3.69,1.64l-.82,2.05a6.22,6.22,0,0,0-2.26,5.33c.41,3.28,1.44,12.29,3.28,13.93s12.91,5.74,12.91,5.74,19.19,23.77,22.88,29.5,7,5.74,9,6.15,13.71-3.43,10-14.29S314.58,202.25,314.58,202.25Z" style="fill:#fff;stroke:#263238;stroke-linecap:round;stroke-linejoin:round"></path><path d="M265.79,144.55s3,15.75,4.2,22.92.61,17,1,21.11" style="fill:none;stroke:#263238;stroke-linecap:round;stroke-linejoin:round"></path><path d="M264,142.78s-8.24,2.27-8.24,6.64c0,3.17,3.59,2.84,5.34,1.21.57-.53,4-6.64,4.07-6.59S263.86,143.37,264,142.78Z" style="fill:#fff;stroke:#263238;stroke-linecap:round;stroke-linejoin:round"></path><path d="M264.91,144.31s-2.15,8.27,1.63,10.45c2.75,1.59,4.25-1.68,3.72-4-.18-.75-3.78-6.75-3.67-6.82S265.33,144.75,264.91,144.31Z" style="fill:#fff;stroke:#263238;stroke-linecap:round;stroke-linejoin:round"></path><path d="M266.67,144.31s6.08,6,9.87,3.81c2.74-1.58.66-4.52-1.63-5.23-.73-.22-7.73-.1-7.73-.23S267.27,144.16,266.67,144.31Z" style="fill:#fff;stroke:#263238;stroke-linecap:round;stroke-linejoin:round"></path><path d="M267.55,142.78s8.24-2.27,8.24-6.63c0-3.18-3.59-2.85-5.34-1.21-.57.52-4,6.64-4.07,6.58S267.72,142.19,267.55,142.78Z" style="fill:#fff;stroke:#263238;stroke-linecap:round;stroke-linejoin:round"></path><path d="M266.67,141.25s2.15-8.26-1.63-10.44c-2.75-1.59-4.25,1.68-3.72,4,.18.75,3.78,6.74,3.67,6.81S266.25,140.82,266.67,141.25Z" style="fill:#fff;stroke:#263238;stroke-linecap:round;stroke-linejoin:round"></path><path d="M264.91,141.25s-6.08-6-9.87-3.81c-2.74,1.59-.66,4.53,1.63,5.23.73.23,7.73.11,7.73.23S264.31,141.4,264.91,141.25Z" style="fill:#fff;stroke:#263238;stroke-linecap:round;stroke-linejoin:round"></path><circle cx="265.79" cy="142.78" r="1.76" style="fill:#92E3A9;stroke:#263238;stroke-linecap:round;stroke-linejoin:round"></circle><path d="M287.61,185.5S286,174,284.74,171.77s-9.42-9.83-11.27-11.67-3.28-5.54-4.5-2.46-.41,4.71,2.25,7.78,4.71,4.51,4.71,5.13-.41,9.63.62,12.29,5.12,4.71,5.12,4.71" style="fill:#fff;stroke:#263238;stroke-linecap:round;stroke-linejoin:round"></path><path d="M270.6,169.52s-.37-.22-1-.53c-2-1-6.37-3-7.63-1.31-1.64,2.25-1,4.3.82,5.53a30.34,30.34,0,0,0,9.22,3.07C273.47,176.28,275.93,172.18,270.6,169.52Z" style="fill:#fff;stroke:#263238;stroke-linecap:round;stroke-linejoin:round"></path><path d="M269.64,176.32s-.34-.21-.89-.5c-1.82-1-5.87-2.84-7-1.22-1.51,2.1-.94,4,.75,5.16a27.71,27.71,0,0,0,8.5,2.87C272.29,182.63,274.55,178.81,269.64,176.32Z" style="fill:#fff;stroke:#263238;stroke-linecap:round;stroke-linejoin:round"></path><path d="M269.91,182.76s-.26-.16-.69-.39c-1.41-.74-4.55-2.2-5.44-1a2.59,2.59,0,0,0,.58,4,21.52,21.52,0,0,0,6.58,2.23C272,187.65,273.71,184.68,269.91,182.76Z" style="fill:none;stroke:#263238;stroke-linecap:round;stroke-linejoin:round"></path><path d="M356.55,134.35s-24.61,12.89-25.78,13.18-6.16,7-5,15.82-.3,33.39,1.17,41.3,5.56,38.67,5.56,40.72-4.39,11.72-1.46,15.24,19,10,39,9.66,34.57-2.63,36.91-6.15,2.05-4.39.59-12-.29-47.16.29-50.39a37.29,37.29,0,0,0,.29-7.61s10.55,22,15.53,25.78,18.16,7.32,21.09,0,5-10.84-2.93-20.51-16.4-43.65-22.26-51.85-32.23-14.06-40.72-14.65S361.82,131.71,356.55,134.35Z" style="fill:#92E3A9;stroke:#263238;stroke-linecap:round;stroke-linejoin:round"></path><polygon points="408.1 194.11 400.16 183.1 407.02 205.25 408.1 194.11" style="fill:#263238;stroke:#263238;stroke-linecap:round;stroke-linejoin:round"></polygon><path d="M397.85,136.69s-12,32.22-12.89,41.89-.58,22,2.93,29.3,19,30.75,19,30.75l5.71,8.43,9.67.93S399.9,217.25,392,205.24s11.43-66.5,11.43-66.5Z" style="fill:#263238;stroke:#263238;stroke-linecap:round;stroke-linejoin:round"></path><path d="M417.57,207s9.93-4.32,16.41-4.75,8.63-.86,14.24,3,8.2,9.07,6.91,15.54-5.18,11.66-14.25,13.82-19-2.16-22.88-10.8A22.84,22.84,0,0,1,417.57,207Z" style="fill:#fff;stroke:#263238;stroke-linecap:round;stroke-linejoin:round"></path><path d="M444.14,210.22A159.13,159.13,0,0,1,416,204.36c-13.76-4.39-19-10.25-19.92-11.13s-3.51-7.33-5-8.2-10.54-1.47-11.71-.88-1.76,3.22-.88,5a5.33,5.33,0,0,0,2.05,2.34,54.9,54.9,0,0,0-.3,8.2c.3,2.64-1.17,4.69,3.81,6.74s10.84,1.76,12.6,3.22,24.9,19.63,31.93,20.8,11.42,2,14.94-1.46,6.45-11.72,5-14.94A6.67,6.67,0,0,0,444.14,210.22Z" style="fill:#fff;stroke:#263238;stroke-linecap:round;stroke-linejoin:round"></path><path d="M339.56,143.34s-7,20.3-9.09,24.69-4.1,13.48-4.1,13.48l.3,19.92s6.15-25.78,11.71-37.79,11.55-25.52,11.55-25.52Z" style="fill:#263238;stroke:#263238;stroke-linecap:round;stroke-linejoin:round"></path><path d="M383.38,133.44c-1.81-.29-3.37-.48-4.57-.56-8.5-.58-17-1.17-22.26,1.47l-5.18,2.7a48.86,48.86,0,0,0-1,12.24c.3,9.08,3.81,9.37,10,8.2C365.93,156.43,379.94,140.91,383.38,133.44Z" style="fill:#fff;stroke:#263238;stroke-linecap:round;stroke-linejoin:round"></path><path d="M351.27,126.44a50.13,50.13,0,0,1,1.17,7c.3,3.51-.87,17,1.76,19.92s21.68-15.24,23.14-17.87.88-27.25.88-27.25Z" style="fill:#fff;stroke:#263238;stroke-linecap:round;stroke-linejoin:round"></path><path d="M352.32,132.25l23-18.12L375,111.2l-2.61,1-21.12,14.24A51.35,51.35,0,0,1,352.32,132.25Z" style="fill:#263238;stroke:#263238;stroke-linecap:round;stroke-linejoin:round"></path><path d="M334.87,81.62s-1.76,7-1.76,8.78.59,2.35.59,4.11-5.86,12.3-4.69,13.76,5.86,3.23,5.86,3.23,5,19,8.79,18.74,26.95-11.71,31.63-16.11,5-29,4.4-31.34S334.87,81.62,334.87,81.62Z" style="fill:#fff;stroke:#263238;stroke-linecap:round;stroke-linejoin:round"></path><path d="M343.07,94.62c0,1.56-.52,2.81-1.17,2.81s-1.17-1.25-1.17-2.81.52-2.81,1.17-2.81S343.07,93.07,343.07,94.62Z" style="fill:#263238"></path><path d="M342.48,88.65s3.81,0,5.28,2.93" style="fill:none;stroke:#263238;stroke-linecap:round;stroke-linejoin:round"></path><path d="M341,110.32s5.86,1.76,11.13-5.56" style="fill:none;stroke:#263238;stroke-linecap:round;stroke-linejoin:round"></path><path d="M374.42,99.19a46.71,46.71,0,0,1,.58,12c-.58,6.15-5,6.15-5,6.15s4.4,5.57,11.13,3.23,8.79-6.74,8.79-6.74,2.05,3.81,8.2,2.93,5.28-8.5,5.28-8.5-8.79,1.47-10.55-4.1,2.46-15.47,2.46-15.47-3.63-8-11.54-8.84-19.6-1.57-19.91,5.07,7.9,4.59,9.07,6.06S374.42,99.19,374.42,99.19Z" style="fill:#263238;stroke:#263238;stroke-linecap:round;stroke-linejoin:round"></path><path d="M371.19,93.33S375,82.79,380,85.13s3.52,9.67.29,14.94-9.66,1.76-9.66,1.76" style="fill:#fff;stroke:#263238;stroke-linecap:round;stroke-linejoin:round"></path><path d="M362.7,84.84l1.18.09,31.45,3.77s3.79-6.32,3.22-29.3c-.08-3.56-22.08-13.82-30.87-13.82s-27.54,5.28-29.3,8.21-2.05,17.57-2.05,17.57a136.9,136.9,0,0,1,13.77,8.2C355.37,83.37,362.7,84.84,362.7,84.84Z" style="fill:#92E3A9;stroke:#263238;stroke-linecap:round;stroke-linejoin:round"></path><path d="M304.4,77.22c.88.59,4.69,9.38,16.7,11.72s41.6-4.1,41.6-4.1-22.85-13.18-26.37-13.48S304.4,77.22,304.4,77.22Z" style="fill:#92E3A9;stroke:#263238;stroke-linecap:round;stroke-linejoin:round"></path></g><g id="character-1"><polygon points="162.59 420 159.59 445 170.92 447.33 183.26 425 162.59 420" style="fill:#fff;stroke:#263238;stroke-linecap:round;stroke-linejoin:round"></polygon><path d="M161.78,426.76c2.37,2.06,7.71,5.16,17.9,4.71l3.58-6.47-20.67-5Z" style="fill:#263238;stroke:#263238;stroke-linecap:round;stroke-linejoin:round"></path><path d="M172.92,446.67s.34-7.34-4.33-9-10.33-1-11,2.33-1.33,6.67-1.33,6.67.66,2.66-5.67,9.66-10.67,11.34-11,14.34,5.33,4.66,12.67,4.33,12.66-.67,15.33-1.67,6.33-1.33,7-4S172.92,446.67,172.92,446.67Z" style="fill:#fff;stroke:#263238;stroke-linecap:round;stroke-linejoin:round"></path><path d="M139.61,470.55s0,.08,0,.12c-.33,3,5.33,4.66,12.67,4.33s12.66-.67,15.33-1.67,6.33-1.33,7-4a11.19,11.19,0,0,0,.11-2.31,51.34,51.34,0,0,1-20.11,5.31C146.25,472.69,141.88,471.63,139.61,470.55Z" style="fill:none;stroke:#263238;stroke-linecap:round;stroke-linejoin:round"></path><path d="M156.26,449s2.66-3,8.33-1,5.67,4.67,5.67,4.67l-2.67,3s-4.33-1-7.67-1.67a26.24,26.24,0,0,0-7.66,0Z" style="fill:#fff;stroke:#263238;stroke-linecap:round;stroke-linejoin:round"></path><line x1="165.26" y1="473.33" x2="168.59" y2="464" style="fill:none;stroke:#263238;stroke-linecap:round;stroke-linejoin:round"></line><polygon points="203.92 424 206.92 443.33 220.59 445 224.26 425 203.92 424" style="fill:#fff;stroke:#263238;stroke-linecap:round;stroke-linejoin:round"></polygon><path d="M204.81,429.73a37.71,37.71,0,0,0,18.25,1.78l1.2-6.51-20.34-1Z" style="fill:#263238;stroke:#263238;stroke-linecap:round;stroke-linejoin:round"></path><path d="M225.59,444.67s1.33-6.67-1.33-7.67-5-.67-5.67,1.67a12.17,12.17,0,0,1-1.67,3.66s-12.66-2.33-12.66-.66-2,21-2,23.66,3.33,2.67,6.33,2.67,17-.33,19.67,1,14.66,1,18.66,1,2.34-1.33,2.34-3.67-1-5.33-6-8-12-8.66-13.67-10S225.59,444.67,225.59,444.67Z" style="fill:#fff;stroke:#263238;stroke-linecap:round;stroke-linejoin:round"></path><path d="M225.59,444.67a12.77,12.77,0,0,0-4,4,14.08,14.08,0,0,0-2,4.66l6.67,3.34,6.33-6.67Z" style="fill:#fff;stroke:#263238;stroke-linecap:round;stroke-linejoin:round"></path><path d="M215.92,462.33c-4.24-1.61-9.57-1.76-13.35-1.62-.19,2.23-.31,4-.31,4.62,0,2.67,3.33,2.67,6.33,2.67s17-.33,19.67,1,14.66,1,18.66,1c3.72,0,2.54-1.16,2.36-3.2a44.16,44.16,0,0,1-7,.53C236.26,467.33,222.92,465,215.92,462.33Z" style="fill:none;stroke:#263238;stroke-linecap:round;stroke-linejoin:round"></path><path d="M154.26,256.67s-2,16,2,38.33,23.66,60.33,23.66,60.33-2,5.34-1,6.34a16.69,16.69,0,0,0,2.67,2s-7,5.33-11,19.66-7,28-7,28a13.19,13.19,0,0,0,12,8.67,103.19,103.19,0,0,0,17.67-1l10.66-37-1.66,32s7.33,5.33,10.66,6,15,.33,18-5c0,0-1.66-42-1.66-50.67s.33-17.66.33-17.66,8-22,9-43.34-4.33-43-5-46l-.67-3Z" style="fill:#92E3A9;stroke:#263238;stroke-linecap:round;stroke-linejoin:round"></path><path d="M167.88,403.22c-.53,2.09-.85,3.37-.85,3.37" style="fill:none;stroke:#263238;stroke-linecap:round;stroke-miterlimit:10"></path><path d="M186.74,348.28a7.1,7.1,0,0,1,.34,1.84c0,2-4.91,6.54-1.64,7.77s5.73.82,3.28,1.23-4.92.41-3.28,2l1.64,1.64s-9,2.87-12.28,14.32c-1.72,6-3.78,13.87-5.35,19.94" style="fill:none;stroke:#263238;stroke-linecap:round;stroke-miterlimit:10"></path><path d="M167.08,290.58A259.65,259.65,0,0,0,176,319.42c4.65,12.4,7.5,19.77,9.14,24.25" style="fill:none;stroke:#263238;stroke-linecap:round;stroke-miterlimit:10"></path><path d="M164.57,278.91s.33,2,1.1,5.58" style="fill:none;stroke:#263238;stroke-linecap:round;stroke-miterlimit:10"></path><path d="M211.36,344.67c-2.68-22.24-8.77-62.34-8.77-62.34" style="fill:none;stroke:#263238;stroke-linecap:round;stroke-linejoin:round"></path><path d="M204.29,380.08s8-13.75,8.3-21.75a67.42,67.42,0,0,0-.54-7.56" style="fill:none;stroke:#263238;stroke-linecap:round;stroke-linejoin:round"></path><path d="M203.92,291c1.67,0,10.34-7.33,10.34-7.33" style="fill:none;stroke:#263238;stroke-linecap:round;stroke-linejoin:round"></path><path d="M223.59,156.67s4.67-2,8,8.66,5,26.67,7.33,31.34,12.67,15,14.34,21.66.33,10.2-1.5,10.43S239.92,233,236.59,233s-5.67-5.67-7.67-11.33-6-36-7-45.67a51.12,51.12,0,0,1,1-17Z" style="fill:#263238;stroke:#263238;stroke-linecap:round;stroke-linejoin:round"></path><path d="M177.7,179.8s39.07-2.67,39.4-1.67,9.69,85.15,9.69,85.15-12.36,3.67-24,3.67-14.69-1.34-14.69-1.34-1-41.73-5.68-59.76S177.7,179.8,177.7,179.8Z" style="fill:#fff;stroke:#263238;stroke-linecap:round;stroke-linejoin:round"></path><path d="M208.76,181.47s5,24.38,7,47.08,6.68,51.09,6.68,52.76V284l20.37-11.35s-6-30-9.69-53.42-3-32.06-4.34-45.41-.67-16-9.35-19.37a45.46,45.46,0,0,0-16-3.34c-1,0-1.67,5,0,11.69S208.76,181.47,208.76,181.47Z" style="fill:#263238;stroke:#263238;stroke-linecap:round;stroke-linejoin:round"></path><path d="M208.42,153.43s-4.67,2.67-5,7.34,5.34,20.7,5.34,20.7l-23.37,2.34s-5.68-21.7-6.35-29.38,4.34-15,4.34-15,5,6.68,10.69,9.69S208.42,153.43,208.42,153.43Z" style="fill:#fff;stroke:#263238;stroke-linecap:round;stroke-linejoin:round"></path><path d="M180.38,144.41s8,38.73,9.68,55.76,3.34,31.06,3.34,47.75,2,36.06,2,36.06-20.37-2-29.05-6-16.69-8-16.69-8,5.34-23.71,6-32.72-3-34.4-5.68-53.43-6.34-32.72,2.34-36.73S180.38,144.41,180.38,144.41Z" style="fill:#263238;stroke:#263238;stroke-linecap:round;stroke-linejoin:round"></path><polygon points="184.59 266.33 233.27 261.37 231.05 244.01 184.84 256.72 184.59 266.33" style="fill:#707070;stroke:#263238;stroke-linecap:round;stroke-linejoin:round"></polygon><polygon points="180.59 202.67 173.92 207.67 184.59 266.33 190.92 259.67 180.59 202.67" style="fill:gray;stroke:#263238;stroke-linecap:round;stroke-linejoin:round"></polygon><polygon points="180.59 202.67 227.01 201.63 235.49 257.33 190.92 259.67 180.59 202.67" style="fill:#a1a1a1;stroke:#263238;stroke-linecap:round;stroke-linejoin:round"></polygon><path d="M159.92,176.33c.34,2,3.34,41.34,3.34,41.34l-13.67,24a21.1,21.1,0,0,1-9.21-15.27c-1-10.33-2.39-41.65-3.66-52-1.35-10.91,4.2-23.11,11.2-26.44s10.34-1.67,10.34-1.67" style="fill:#263238;stroke:#263238;stroke-linecap:round;stroke-linejoin:round"></path><path d="M167.59,220s-2.67-5-6.67-4-10.33,9-13.66,17.67,2.33,10.66,4.66,11.66,10.34-.33,10.67-3-1.33-6.66,2.33-12.66,4.34-7.34,4.34-7.34Z" style="fill:#92E3A9;stroke:#263238;stroke-linecap:round;stroke-linejoin:round"></path><path d="M167.59,222.67s23.33-1,31.67-1,13.63,0,15.63-.32,5.67-4.33,7.34-5.33,10.26.33,10.26.33,4.81.73,3.52,5.23c-.45,1.59-3,.13-3.29,1.13s2,8.46-1.36,10.79-6.77,1.83-9.77,1.17-7.67-2-7.67-2-17,4-26,6.33a108.18,108.18,0,0,1-25.33,3.33c-6.67,0-3.67-8-1.67-14.33S167.59,222.67,167.59,222.67Z" style="fill:#fff;stroke:#263238;stroke-linecap:round;stroke-linejoin:round"></path><path d="M231.59,224.67s1.67-9.67,3.67-10.67,9.66-1.33,12.66.33a16.07,16.07,0,0,1,7.67,9c1.33,4.34,0,9.67-3,12s-10,3-13,.67S231.59,224.67,231.59,224.67Z" style="fill:#92E3A9;stroke:#263238;stroke-linecap:round;stroke-linejoin:round"></path><path d="M251.76,228.76c.87-4.43-2.08-9-6.61-11.22-7.34-3.68-8,1.67-14.69,7a108.74,108.74,0,0,1-23.37,13.69c-6,2.34-23.37-.34-24.38,0s-6.34,7-6,9,1.67,3.34,2.34,5.35a19.83,19.83,0,0,0,3.23,4.73,1.62,1.62,0,0,0,2.34.14l3.45-3.2s11,1,14.35-1.67,6.35-5.35,6.35-5.35c1.91-1.69,9.51-1.6,12.12-2.12a98.76,98.76,0,0,0,13.63-3.61c5.26-1.87,11.45-4.27,15.17-8.61A9.06,9.06,0,0,0,251.76,228.76Z" style="fill:#fff;stroke:#263238;stroke-linecap:round;stroke-linejoin:round"></path><path d="M181.84,256.6s3.81-3.82,4.16-5.38,2.77-2.42,2.77-2.42" style="fill:#fff;stroke:#263238;stroke-linecap:round;stroke-linejoin:round"></path><path d="M179.93,254s2.95-5.72,3.82-7.29,4-1.21,4-1.21" style="fill:#fff;stroke:#263238;stroke-linecap:round;stroke-linejoin:round"></path><path d="M177.85,250.36s3.47-6.25,5.2-8,3.3-1.39,3.82-1.22" style="fill:#fff;stroke:#263238;stroke-linecap:round;stroke-linejoin:round"></path><path d="M182.92,142.33S174.59,145,172.26,148s-3.67,33.33-3.67,33.33l17.33-4.66s-2.33-16.67-3-20.67S182.92,142.33,182.92,142.33Z" style="fill:#92E3A9;stroke:#263238;stroke-linecap:round;stroke-linejoin:round"></path><path d="M203.42,151.09s-3.5,4.91-1.5,9.58S207.26,176,207.26,176l13,2.67s-5.51-13.43-8.67-19.34S208.58,147.18,203.42,151.09Z" style="fill:#92E3A9;stroke:#263238;stroke-linecap:round;stroke-linejoin:round"></path><path d="M163.92,406.67s3.67,4.66,14.67,7,16.67.33,16.67.33,2.33-.67,1.33,3-.67,7.67-3.67,9.67-14.33,3.66-21.66,1.33-11.34-4.67-12.34-7.67,1-7.33,1.34-9.33S161.59,407,163.92,406.67Z" style="fill:#fff;stroke:#263238;stroke-linecap:round;stroke-linejoin:round"></path><path d="M202.26,408.67s-2.34-.67-2,3.66-1,9,0,11.34,3.66,4,14.33,5,17-1,18.33-3,.34-7.34,0-11.67-2.33-4.67-2.33-4.67S215.92,415.67,202.26,408.67Z" style="fill:#fff;stroke:#263238;stroke-linecap:round;stroke-linejoin:round"></path><path d="M181.38,84.64s8.35-9.35,17-10.68,20.37,3.34,32.72,13,8.68,26.71,9,32.39-5.68,9.35-6.35,17.7-6.68,28-6.68,28-3.34-2-11.68-5-8.35-6.68-8.35-6.68,9.68-1.67,12.35-9.35,7.35-29.72,3.34-31.39-31.05,7.68-36.06,9.68-13,3.34-14-3S176.37,91.66,181.38,84.64Z" style="fill:#263238;stroke:#263238;stroke-linecap:round;stroke-linejoin:round"></path><path d="M183.05,140.74c-1-2.67,2.67-24.38,2.67-24.38l39.4-12s8.35,13,7.35,18.37-5.68,10.68-5.68,13.35.67,8-3,12-12.68,7-17.36,9-11.69-3.34-14.69-5.34S183.05,140.74,183.05,140.74Z" style="fill:#fff;stroke:#263238;stroke-linecap:round;stroke-linejoin:round"></path><path d="M221.2,119s-4,4.79-5.16,9.22" style="fill:none;stroke:#263238;stroke-linecap:round;stroke-linejoin:round"></path><path d="M210.51,117.12a14.23,14.23,0,0,0-12.91,2.95" style="fill:none;stroke:#263238;stroke-linecap:round;stroke-linejoin:round"></path><path d="M222,119.57s4,.87,5.44,7.5" style="fill:none;stroke:#263238;stroke-linecap:round;stroke-linejoin:round"></path><path d="M214.2,140.72s-2.95,2.95-6.64,1.47" style="fill:none;stroke:#263238;stroke-linecap:round;stroke-linejoin:round"></path><path d="M201.83,143.69s3.72,5.38,10.15,3.66" style="fill:none;stroke:#263238;stroke-linecap:round;stroke-linejoin:round"></path><path d="M206.75,126.85c0,1.43-.64,2.59-1.43,2.59s-1.42-1.16-1.42-2.59.64-2.6,1.42-2.6S206.75,125.41,206.75,126.85Z" style="fill:#263238"></path><path d="M205.32,124.25s-4.28-2.6-6.62,4.67" style="fill:none;stroke:#263238;stroke-linecap:round;stroke-linejoin:round"></path><path d="M224.86,129.86c0,1.44-.64,2.6-1.42,2.6s-1.43-1.16-1.43-2.6.64-2.59,1.43-2.59S224.86,128.43,224.86,129.86Z" style="fill:#263238"></path><path d="M223.44,127.27s-4.29-2.6-6.63,4.67" style="fill:none;stroke:#263238;stroke-linecap:round;stroke-linejoin:round"></path><ellipse cx="201.27" cy="133.41" rx="2.73" ry="5.34" transform="translate(42.52 315.36) rotate(-82.43)" style="fill:#92E3A9"></ellipse><ellipse cx="201.27" cy="133.41" rx="2.73" ry="5.34" transform="translate(42.52 315.36) rotate(-82.43)" style="fill:#fff;opacity:0.5"></ellipse><path d="M225.27,138.66c-.2,1.5-2.24,2.46-4.57,2.15s-4-1.77-3.84-3.27,2.24-2.45,4.56-2.14S225.47,137.17,225.27,138.66Z" style="fill:#92E3A9"></path><path d="M225.27,138.66c-.2,1.5-2.24,2.46-4.57,2.15s-4-1.77-3.84-3.27,2.24-2.45,4.56-2.14S225.47,137.17,225.27,138.66Z" style="fill:#fff;opacity:0.5"></path><path d="M193.4,103.68l-7.68,60.43s-.67-2-9.35-9.35c-12.45-10.53-16.7-18.7-17.36-21s8.34-25.38,14-37.07a38.71,38.71,0,0,1,20-19.36" style="fill:#263238;stroke:#263238;stroke-linecap:round;stroke-linejoin:round"></path></g></svg>