<svg xmlns="http://www.w3.org/2000/svg" viewBox="0 0 500 500"><g id="background-simple"><path d="M455,144S374.58,28.2,274.2,15.92C185.59,5.08,103.34,47.45,91.89,139c-4.08,32.62-11.35,68.71-24.24,98.48C53.18,270.88,28.49,298.67,47.4,362.84s98.76,122.12,156.82,122S316.8,431.92,361.79,383.93,550.05,290.84,455,144Z" style="fill:#92E3A9"></path><path d="M455,144S374.58,28.2,274.2,15.92C185.59,5.08,103.34,47.45,91.89,139c-4.08,32.62-11.35,68.71-24.24,98.48C53.18,270.88,28.49,298.67,47.4,362.84s98.76,122.12,156.82,122S316.8,431.92,361.79,383.93,550.05,290.84,455,144Z" style="fill:#fff;opacity:0.7000000000000001"></path></g><g id="Plant"><path d="M459.75,274.84s0-4.18-5.85-10-9.62-9.2-9.62-9.2-2.93,9.62,2.51,15.47a101.92,101.92,0,0,0,13,11.29Z" style="fill:#92E3A9"></path><path d="M451.25,301s0-4.18-5.85-10-9.62-9.2-9.62-9.2-2.93,9.62,2.51,15.47a102.68,102.68,0,0,0,13,11.29Z" style="fill:#92E3A9"></path><path d="M459.38,282s.45-4.16,6.89-9.36,10.53-8.13,10.53-8.13,1.9,9.87-4.13,15.12a103.51,103.51,0,0,1-14.08,9.86Z" style="fill:#92E3A9"></path><path d="M449.12,312.8s.87-4.08,7.83-8.58,11.33-7,11.33-7,.85,10-5.7,14.6a102.06,102.06,0,0,1-15,8.32Z" style="fill:#92E3A9"></path><path d="M451.05,346.43s0-4.18,5.85-10,9.62-9.2,9.62-9.2,2.93,9.61-2.51,15.47a102.85,102.85,0,0,1-13,11.29Z" style="fill:#92E3A9"></path><path d="M451,354.64s.6-4.14-4.37-10.77-8.21-10.47-8.21-10.47-4.27,9.11.28,15.67a102.73,102.73,0,0,0,11.23,13Z" style="fill:#92E3A9"></path><path d="M445.18,379s0-4.18,5.85-10,9.62-9.2,9.62-9.2,2.93,9.62-2.51,15.47a102.43,102.43,0,0,1-13,11.3Z" style="fill:#92E3A9"></path><path d="M449.09,401s-1.06-4,3.12-11.19,7-11.33,7-11.33,5.27,8.56,1.5,15.6A103.1,103.1,0,0,1,451,408.31Z" style="fill:#92E3A9"></path><path d="M460.28,273.77a119.29,119.29,0,0,1-1.6,13c-2.32,12-8.1,19.67-10.42,30.47s4.33,24.72,2.55,38.59-7.17,21.59-5.63,30.84S454.82,421,454.82,421" style="fill:none;stroke:#263238;stroke-linecap:round;stroke-linejoin:round;stroke-width:0.5px"></path><line x1="459.33" y1="284.74" x2="465.64" y2="279.9" style="fill:none;stroke:#263238;stroke-linecap:round;stroke-linejoin:round;stroke-width:0.5px"></line><line x1="459.62" y1="279.16" x2="456.98" y2="274.47" style="fill:none;stroke:#263238;stroke-linecap:round;stroke-linejoin:round;stroke-width:0.5px"></line><path d="M448.61,316.73s5.29-4,10.72-7.93" style="fill:none;stroke:#263238;stroke-linecap:round;stroke-linejoin:round;stroke-width:0.5px"></path><path d="M451.25,308.48s-4.4-8.63-9.39-14.35" style="fill:none;stroke:#263238;stroke-linecap:round;stroke-linejoin:round;stroke-width:0.5px"></path><path d="M451.26,352.38a65.12,65.12,0,0,1,11.29-15.11" style="fill:none;stroke:#263238;stroke-linecap:round;stroke-linejoin:round;stroke-width:0.5px"></path><path d="M450.23,358.25a73.94,73.94,0,0,0-5.72-10.86c-3.09-4.54-3.53-5.13-3.53-5.13" style="fill:none;stroke:#263238;stroke-linecap:round;stroke-linejoin:round;stroke-width:0.5px"></path><path d="M445.18,386.65a70.17,70.17,0,0,1,4.75-9.62A62.57,62.57,0,0,1,456.1,369" style="fill:none;stroke:#263238;stroke-linecap:round;stroke-linejoin:round;stroke-width:0.5px"></path><path d="M451,408.31a18,18,0,0,1,1.59-9.27c2.2-4.25,4.69-9.83,5.72-12" style="fill:none;stroke:#263238;stroke-linecap:round;stroke-linejoin:round;stroke-width:0.5px"></path><path d="M421.41,330.71s-.45-2.63,2.58-6.93,5-6.82,5-6.82,2.88,5.72.1,10a65.49,65.49,0,0,1-6.9,8.49Z" style="fill:#92E3A9"></path><path d="M429.58,346.16s-.46-2.62,2.58-6.93,5-6.81,5-6.81,2.88,5.71.11,10a65.27,65.27,0,0,1-6.91,8.49Z" style="fill:#92E3A9"></path><path d="M422.42,335.13s-.73-2.56-5.34-5.12-7.49-4-7.49-4-.11,6.4,4.24,9a65.69,65.69,0,0,0,9.9,4.65Z" style="fill:#92E3A9"></path><path d="M432.2,353.36s-1-2.47-5.84-4.54-7.86-3.14-7.86-3.14.55,6.37,5.15,8.54A65.64,65.64,0,0,0,434,357.8Z" style="fill:#92E3A9"></path><path d="M434.64,374.66s-.45-2.62-4.76-5.66-7-4.73-7-4.73-.79,6.35,3.25,9.43a65.15,65.15,0,0,0,9.36,5.68Z" style="fill:#92E3A9"></path><path d="M435.59,379.79s-.82-2.53,1.58-7.22,4-7.46,4-7.46,3.66,5.25,1.52,9.86a65.43,65.43,0,0,1-5.63,9.38Z" style="fill:#92E3A9"></path><path d="M442.94,401s.31-2.65,4.43-5.92,6.75-5.12,6.75-5.12,1.16,6.29-2.71,9.6a65.26,65.26,0,0,1-9,6.2Z" style="fill:#92E3A9"></path><path d="M441.86,394.42s-.46-2.62-4.77-5.66-7-4.72-7-4.72-.79,6.35,3.26,9.43a65.23,65.23,0,0,0,9.35,5.67Z" style="fill:#92E3A9"></path><path d="M441.8,408.68S442,406,438.63,402s-5.61-6.35-5.61-6.35-2.37,5.94.76,9.94a65.06,65.06,0,0,0,7.61,7.86Z" style="fill:#92E3A9"></path><path d="M421,330.09a74.47,74.47,0,0,0,2.42,8c2.75,7.25,7.21,11.46,9.84,18s0,16,2.59,24.47,6.84,12.76,6.88,18.73-2.32,22.58-2.32,22.58" style="fill:none;stroke:#263238;stroke-linecap:round;stroke-linejoin:round;stroke-width:0.5px"></path><line x1="422.75" y1="336.87" x2="418.27" y2="334.52" style="fill:none;stroke:#263238;stroke-linecap:round;stroke-linejoin:round;stroke-width:0.5px"></line><line x1="421.97" y1="333.4" x2="423.11" y2="330.17" style="fill:none;stroke:#263238;stroke-linecap:round;stroke-linejoin:round;stroke-width:0.5px"></line><path d="M432.94,355.76s-3.74-1.91-7.57-3.8" style="fill:none;stroke:#263238;stroke-linecap:round;stroke-linejoin:round;stroke-width:0.5px"></path><path d="M430.39,350.88a54.11,54.11,0,0,1,4.33-10" style="fill:none;stroke:#263238;stroke-linecap:round;stroke-linejoin:round;stroke-width:0.5px"></path><path d="M435.16,378.41a41.6,41.6,0,0,0-8.73-8.25" style="fill:none;stroke:#263238;stroke-linecap:round;stroke-linejoin:round;stroke-width:0.5px"></path><path d="M436.44,382a47,47,0,0,1,2.41-7.43c1.44-3.19,1.65-3.6,1.65-3.6" style="fill:none;stroke:#263238;stroke-linecap:round;stroke-linejoin:round;stroke-width:0.5px"></path><path d="M442.49,403.77a39,39,0,0,1,4.82-5,25.46,25.46,0,0,0,3.13-2.72" style="fill:none;stroke:#263238;stroke-linecap:round;stroke-linejoin:round;stroke-width:0.5px"></path><path d="M442.69,399.24a44.65,44.65,0,0,0-4-5.51,39,39,0,0,0-4.74-4.4" style="fill:none;stroke:#263238;stroke-linecap:round;stroke-linejoin:round;stroke-width:0.5px"></path><path d="M441.39,413.45a11.39,11.39,0,0,0-2-5.64c-1.85-2.43-4-5.65-4.9-6.92" style="fill:none;stroke:#263238;stroke-linecap:round;stroke-linejoin:round;stroke-width:0.5px"></path><path d="M460.44,470.36H434.67a2.43,2.43,0,0,1-2.43-2.43l-3.83-49h38.3l-3.83,49A2.43,2.43,0,0,1,460.44,470.36Z" style="fill:#263238"></path></g><g id="Window"><g style="opacity:0.30000000000000004"><polygon points="137.97 50.72 48.81 50.72 49.71 37.71 138.88 37.71 137.97 50.72" style="fill:none;stroke:#000;stroke-linecap:round;stroke-linejoin:round"></polygon><polygon points="137.97 68.93 48.81 68.93 49.71 55.92 138.88 55.92 137.97 68.93" style="fill:none;stroke:#000;stroke-linecap:round;stroke-linejoin:round"></polygon><polygon points="137.97 87.14 48.81 87.14 49.71 74.13 138.88 74.13 137.97 87.14" style="fill:none;stroke:#000;stroke-linecap:round;stroke-linejoin:round"></polygon><polygon points="137.97 105.35 48.81 105.35 49.71 92.34 138.88 92.34 137.97 105.35" style="fill:none;stroke:#000;stroke-linecap:round;stroke-linejoin:round"></polygon><polygon points="137.97 123.56 48.81 123.56 49.71 110.56 138.88 110.56 137.97 123.56" style="fill:none;stroke:#000;stroke-linecap:round;stroke-linejoin:round"></polygon><polygon points="137.97 141.78 48.81 141.78 49.71 128.77 138.88 128.77 137.97 141.78" style="fill:none;stroke:#000;stroke-linecap:round;stroke-linejoin:round"></polygon><polygon points="137.97 159.99 48.81 159.99 49.71 146.98 138.88 146.98 137.97 159.99" style="fill:none;stroke:#000;stroke-linecap:round;stroke-linejoin:round"></polygon><polygon points="137.97 178.2 48.81 178.2 49.71 165.19 138.88 165.19 137.97 178.2" style="fill:none;stroke:#000;stroke-linecap:round;stroke-linejoin:round"></polygon><polygon points="137.97 196.41 48.81 196.41 49.71 183.4 138.88 183.4 137.97 196.41" style="fill:none;stroke:#000;stroke-linecap:round;stroke-linejoin:round"></polygon><polygon points="137.97 214.63 48.81 214.63 49.71 201.62 138.88 201.62 137.97 214.63" style="fill:none;stroke:#000;stroke-linecap:round;stroke-linejoin:round"></polygon><polygon points="137.97 232.84 48.81 232.84 49.71 219.83 138.88 219.83 137.97 232.84" style="fill:none;stroke:#000;stroke-linecap:round;stroke-linejoin:round"></polygon><polygon points="232.25 50.72 143.09 50.72 143.99 37.71 233.15 37.71 232.25 50.72" style="fill:none;stroke:#000;stroke-linecap:round;stroke-linejoin:round"></polygon><polygon points="232.25 68.93 143.09 68.93 143.99 55.92 233.15 55.92 232.25 68.93" style="fill:none;stroke:#000;stroke-linecap:round;stroke-linejoin:round"></polygon><polygon points="232.25 87.14 143.09 87.14 143.99 74.13 233.15 74.13 232.25 87.14" style="fill:none;stroke:#000;stroke-linecap:round;stroke-linejoin:round"></polygon><polygon points="232.25 105.35 143.09 105.35 143.99 92.34 233.15 92.34 232.25 105.35" style="fill:none;stroke:#000;stroke-linecap:round;stroke-linejoin:round"></polygon><polygon points="232.25 123.56 143.09 123.56 143.99 110.56 233.15 110.56 232.25 123.56" style="fill:none;stroke:#000;stroke-linecap:round;stroke-linejoin:round"></polygon><polygon points="232.25 141.78 143.09 141.78 143.99 128.77 233.15 128.77 232.25 141.78" style="fill:none;stroke:#000;stroke-linecap:round;stroke-linejoin:round"></polygon><polygon points="232.25 159.99 143.09 159.99 143.99 146.98 233.15 146.98 232.25 159.99" style="fill:none;stroke:#000;stroke-linecap:round;stroke-linejoin:round"></polygon><polygon points="232.25 178.2 143.09 178.2 143.99 165.19 233.15 165.19 232.25 178.2" style="fill:none;stroke:#000;stroke-linecap:round;stroke-linejoin:round"></polygon><polygon points="232.25 196.41 143.09 196.41 143.99 183.4 233.15 183.4 232.25 196.41" style="fill:none;stroke:#000;stroke-linecap:round;stroke-linejoin:round"></polygon><polygon points="232.25 214.63 143.09 214.63 143.99 201.62 233.15 201.62 232.25 214.63" style="fill:none;stroke:#000;stroke-linecap:round;stroke-linejoin:round"></polygon><polygon points="232.25 232.84 143.09 232.84 143.99 219.83 233.15 219.83 232.25 232.84" style="fill:none;stroke:#000;stroke-linecap:round;stroke-linejoin:round"></polygon></g></g><g id="Picture"><g style="opacity:0.30000000000000004"><rect x="340.78" y="40.12" width="96.9" height="124.78" style="fill:none;stroke:#000;stroke-linecap:round;stroke-linejoin:round"></rect><rect x="348.79" y="50.43" width="80.88" height="104.16" style="fill:none;stroke:#000;stroke-linecap:round;stroke-linejoin:round"></rect><rect x="372.71" y="81.23" width="33.05" height="42.56" style="fill:none;stroke:#000;stroke-linecap:round;stroke-linejoin:round"></rect></g></g><g id="Chair"><path d="M390,212.83l-36.2.3s-2.39-.3-3,1.49c0,0-6.28,15.86-6.58,21.54s1.2,4.79-1.2,12.27-9.27,25.12-13.16,39.49c-5.23,19.29-6.59,39.78-6.92,59.7-.05,3.19-2,30.7,3,30.7,4.13,0,42.22,5,42.67-2.3,1.83-29.26-3.45-57.85,6.71-86.31,3.95-11,8.48-22.73,11.83-34.29s3.93-23.58,6.12-35.41C394.75,211.93,390,212.83,390,212.83Z" style="fill:#757575;stroke:gray;stroke-miterlimit:10"></path><path d="M393.5,216.41c-.35-4.17-3.54-3.58-3.54-3.58l-36.2.3s-2.39-.3-3,1.49c0,0-6.28,15.86-6.58,21.54a28.38,28.38,0,0,0,.13,4.51l.77,1.18s1.19,10.47,15.55,11.06,22.44-6,25.43-12.26,4.19-16.45,6.58-22.44C392.89,217.61,393.19,217,393.5,216.41Z" style="fill:#fff;stroke:gray;stroke-linecap:round;stroke-linejoin:round"></path><path d="M385.11,228.1c-2.42,8.74-1,11.16-3.39,26.21s-11.17,32.05-14.57,47.58-1.94,70.4-1.46,72.83a21.74,21.74,0,0,1,.22,3.9c1.63-.61,2.61-1.45,2.68-2.6,1.83-29.26-3.45-57.85,6.71-86.31,3.95-11,8.48-22.73,11.83-34.29s3.93-23.58,6.12-35.41c.92-5-.53-6.53-1.79-7l0,.05A64.94,64.94,0,0,0,385.11,228.1Z" style="fill:#fff;stroke:gray;stroke-linecap:round;stroke-linejoin:round"></path><path d="M315.2,449l-.24-.2V415h4.85V393.65h-18V415h4.86v34.37l-43,13.7v3.4a3.89,3.89,0,0,0,7.77,0V466l35.92-4.18V467a3.4,3.4,0,0,0,6.8,0v-5.32L351.61,466v.49a3.89,3.89,0,0,0,7.77,0v-3.4Z" style="fill:#757575;stroke:gray;stroke-miterlimit:10"></path><rect x="254.8" y="372.81" width="116.54" height="24.78" rx="4" style="fill:#757575;stroke:gray;stroke-miterlimit:10"></rect></g><g id="Desk"><path d="M76,302.64H108.6a2.36,2.36,0,0,0,0-4.71H76a5.63,5.63,0,0,1-4.12-1.82,5.56,5.56,0,0,1-1.24-5.25l11.55-41.39a2.36,2.36,0,0,0-4.54-1.27L66.13,289.6a10.29,10.29,0,0,0,9.9,13Z" style="fill:#fff;stroke:gray;stroke-linecap:round;stroke-linejoin:round"></path><rect x="85.76" y="194.25" width="7.43" height="96" transform="translate(207.14 472.12) rotate(173.16)" style="fill:#fff;stroke:gray;stroke-linecap:round;stroke-linejoin:round"></rect><path d="M80.07,195S67,241.76,91.5,290.35Z" style="fill:#757575;stroke:gray;stroke-miterlimit:10"></path><rect x="54.99" y="321.8" width="92.48" height="148.36" style="fill:#757575;stroke:gray;stroke-miterlimit:10"></rect><polygon points="48.31 302.43 50.31 470.36 59.65 470.36 61.65 331.12 344.29 331.12 347.91 470.36 355.5 470.36 357.12 302.43 48.31 302.43" style="fill:#fff;stroke:gray;stroke-linecap:round;stroke-linejoin:round"></polygon><rect x="48.45" y="306.46" width="308.45" height="4.65" style="fill:#757575;stroke:gray;stroke-miterlimit:10"></rect><rect x="41.8" y="299.68" width="317.49" height="7.34" style="fill:#fff;stroke:gray;stroke-linecap:round;stroke-linejoin:round"></rect></g><g id="Floor"><line x1="15.74" y1="470.36" x2="488.96" y2="470.36" style="fill:none;stroke:#263238;stroke-linecap:round;stroke-linejoin:round"></line></g><g id="Lines"><polyline points="176.43 264.54 178.92 265.77 187.84 260.47 193.33 266.66 202.93 260.14 208.45 266.72 216.68 262.63 223.61 267.16" style="fill:none;stroke:#263238;stroke-linecap:round;stroke-linejoin:round;stroke-width:2px"></polyline><polyline points="187.03 295.94 189.57 295.87 194.51 287.79 201.58 290.44 206.56 281.08 213.82 284.03 218.72 277.22 226.25 277.93" style="fill:none;stroke:#263238;stroke-linecap:round;stroke-linejoin:round;stroke-width:2px"></polyline></g><g id="Character"><path d="M212.77,456.35a53.85,53.85,0,0,0-6.62,5.1c-1.63,1.77-10.59,6.91-13.57,8.73s-5.92,4.68-4.16,6.3,6.58,2.78,11.38,3.6,9.15-.73,12.85-1.57,10.75-3.17,17.86-3.82,9.57,1.3,10.63-5.89a30.32,30.32,0,0,0-.89-12.88l-23.55-2.06Z" style="fill:#fff;stroke:#263238;stroke-linecap:round;stroke-linejoin:round"></path><path d="M241.14,468.8c-3.92,3.91-11.85,1.19-17.56,2.79s-13.73,5-18.79,5.9c-3.79.67-12.11-2.47-16.06-4.09-.9,1.15-1.19,2.27-.31,3.08,1.77,1.63,6.58,2.78,11.38,3.6s9.15-.73,12.85-1.57,10.75-3.17,17.86-3.82S240.08,476,241.14,468.8Z" style="fill:#fff;stroke:#263238;stroke-linecap:round;stroke-linejoin:round"></path><path d="M326.7,450.21s.52,12.22-.05,14.62-9.55,15.37-6.38,17.95,18-.08,23.33-3a16.76,16.76,0,0,0,8.81-16.69c-.69-8.13-4-22.27-4-22.27Z" style="fill:#fff;stroke:#263238;stroke-linecap:round;stroke-linejoin:round"></path><path d="M343.6,479.75a16.76,16.76,0,0,0,8.81-16.69c0-.39-.07-.8-.12-1.21a46.52,46.52,0,0,1-2.7,6.77c-2.83,5.56-5.81,7.39-13.86,10.11-5.56,1.88-12.36,1.54-16,1.15-.24,1.31-.13,2.35.56,2.9C323.44,485.37,338.28,482.7,343.6,479.75Z" style="fill:#fff;stroke:#263238;stroke-linecap:round;stroke-linejoin:round"></path><path d="M232.67,281.78s-21,70.94-21.53,73.63,7.11,88.7,7.11,88.7L212.46,449l.31,7.33a49.45,49.45,0,0,0,10.79,2.87c4.69.47,16.76,2,16.76,2s5-7.55,4.85-11.54-1-8-1.12-10.63,8.07-76.67,8.07-76.67l19.49-48.21,9.53,55.94L315.29,436l3.75,9.84.86,4.64,7.55,5s21.08-6.23,21.58-10.25.13-12.68-1.38-16.62-4-1.16-6.35-8.4-23.44-65-23.44-65l1.86-77.44S275.05,291,232.67,281.78Z" style="fill:#263238;stroke:#263238;stroke-linecap:round;stroke-linejoin:round"></path><path d="M230.33,159.17s-15.5,11.3-18,14.57-7.58,3.79-5.93,11.52,4.29,48.22,4.29,48.22,2.11,3.54,10.07,2.8a42.29,42.29,0,0,0,12.72-2.93l2.17,4.31s-.3,19.13-.91,25.49-2,18.63-2,18.63,7.64,7.61,25.78,9.21,32.36,4.26,44.44-1.25,16.58-11.22,16.83-12,1.11-14.41.14-27.59-.78-23.36-.78-23.36.5-47.95-2.9-58.64-5.5-9.92-15.2-14A77.11,77.11,0,0,0,275.73,148c-6.49-.29-14.92.32-14.92.32S239.46,151.26,230.33,159.17Z" style="fill:#92E3A9;stroke:#263238;stroke-linecap:round;stroke-linejoin:round"></path><path d="M237.58,239.37a44.51,44.51,0,0,0,20.47,12.36" style="fill:none;stroke:#263238;stroke-linecap:round;stroke-linejoin:round"></path><path d="M255.46,247.92s4,1.71,13.91,2.68" style="fill:none;stroke:#263238;stroke-linecap:round;stroke-linejoin:round"></path><path d="M282,275.86s12.78,2,24.36.23" style="fill:none;stroke:#263238;stroke-linecap:round;stroke-linejoin:round"></path><path d="M287.35,273.16A64.49,64.49,0,0,0,309,265.88" style="fill:none;stroke:#263238;stroke-linecap:round;stroke-linejoin:round"></path><path d="M236.21,168s1.48,7.6,2.12,12.17S242.74,192,242.74,192l8.63-6.33,8.23-5.38L270.51,182l11.17,1s-3.2-24.72-6.35-32-9.48-5.32-15.33-5.2-23.28,8.18-24.42,11.5S236.21,168,236.21,168Z" style="fill:#263238;stroke:#263238;stroke-linecap:round;stroke-linejoin:round"></path><path d="M253,184.17s9.49,9.63,9.81,7.75,2-16.78,2-16.78S259.66,183.21,253,184.17Z" style="fill:#fff;stroke:#263238;stroke-linecap:round;stroke-linejoin:round"></path><path d="M218.76,148.46s2,7.72,4.68,9.21,3.79,1.26,3.79,1.26l-4.68-11.36S218.8,144.76,218.76,148.46Z" style="fill:#fff;stroke:#263238;stroke-linecap:round;stroke-linejoin:round"></path><path d="M223,149.84c.22.41,7.31,15.65,8.36,17.42s15.83,16.25,17.74,17.19,6.94,2.11,10.21.48,7.42-8.09,9.54-17,3.2-13,3-16.09a67.39,67.39,0,0,0-1-6.71s4.17-6.16,3.83-10.76-1.87-6.64-3.81-7.88-6.38,3.39-7.13,3.6-1.5-3.59-8.58-5.69-10.73.79-17.51,7.14a167.35,167.35,0,0,1-15.56,12.53S220.69,145.39,223,149.84Z" style="fill:#fff;stroke:#263238;stroke-linecap:round;stroke-linejoin:round"></path><path d="M247.11,175.81s2.34,2.6,4.27,1.54a13.88,13.88,0,0,0,3.72-3.82" style="fill:none;stroke:#263238;stroke-linecap:round;stroke-linejoin:round"></path><path d="M258.92,177.26c-2.09-3.4-6.72.29-8.83,2.26a1.17,1.17,0,0,0,.93,2h0c1.67-.27,3.53-2.26,5.58-1.64S261.37,181.24,258.92,177.26Z" style="fill:#fff;stroke:#263238;stroke-linecap:round;stroke-linejoin:round"></path><path d="M258.92,177.26s-3.3,1.17-5.12,1.61" style="fill:none;stroke:#263238;stroke-linecap:round;stroke-linejoin:round"></path><path d="M254.2,160.5s1.87-4.33,8.13-3.61" style="fill:none;stroke:#263238;stroke-linecap:round;stroke-linejoin:round"></path><path d="M250.74,158.14s-.47-3.22,9.05-6.1" style="fill:none;stroke:#263238;stroke-linecap:round;stroke-linejoin:round;stroke-width:2px"></path><path d="M242.6,160.18s-3.63-3.77-10.1-.44" style="fill:none;stroke:#263238;stroke-linecap:round;stroke-linejoin:round;stroke-width:2px"></path><path d="M235.32,163.9a5.2,5.2,0,0,1,6.39.2" style="fill:none;stroke:#263238;stroke-linecap:round;stroke-linejoin:round"></path><path d="M215,140.88s-10.24,5.37-3.93,9.38,26.73-3,29.32-5.54a52.07,52.07,0,0,0,5.38-6.55s.4,1.2-.62,4.2,3.65,3.59,5.13-3.61,2.71-11.44,3.24-12.56-.57,7,1.63,9.59,6.74,1.66,7.71,2.21,2.58,3.66,3.48,3.44,2.77-.05,2.15-2.31-1.25-4.38-1-5.47.64-3.9,2.74-4.67,2.56-3,2.05-5.7S270,111.9,265.64,107,252,101.51,252,101.51s-6.28-5.86-16.56-3.26-28,25.62-26.83,33.39S215,140.88,215,140.88Z" style="fill:#263238;stroke:#263238;stroke-linecap:round;stroke-linejoin:round"></path><path d="M233.44,233.35a159.11,159.11,0,0,1-13.62-32.43" style="fill:none;stroke:#263238;stroke-linecap:round;stroke-linejoin:round"></path><path d="M213.59,235.73s2.27,14.16,4.48,17.08,18.43,16.06,23,19.27,12.87,5.37,14.1,5.28,21,0,22.17-.23,8.81-3.73,10.55-5.24a11.49,11.49,0,0,0,3-4.84,27,27,0,0,0,1-5.16c0-1.85.95-1.76,0-1.85s-1.54,0-6.6.33-14.32,2.12-14.78,2.16-2.4,3.1-5,4.83-15.92,1.48-16.92-1.69-8.14-14.5-10.34-19.27l-3.19-5.62.55-3.12-2.17-4.31S223.76,237.91,213.59,235.73Z" style="fill:#fff;stroke:#263238;stroke-linecap:round;stroke-linejoin:round"></path><path d="M287.87,271.89s-6.34,1.85-8.32,2.15-5.51.4-5.51.4" style="fill:none;stroke:#263238;stroke-linecap:round;stroke-linejoin:round"></path><path d="M276.18,270s7.46,1,8.68.75,6-3.67,6-3.67" style="fill:none;stroke:#263238;stroke-linecap:round;stroke-linejoin:round"></path><path d="M278.41,266.88s7,.42,8.32,0,5.18-5,5.18-5" style="fill:none;stroke:#263238;stroke-linecap:round;stroke-linejoin:round"></path><path d="M219.82,240.82s7.78-3,14.16-.11" style="fill:none;stroke:#263238;stroke-linecap:round;stroke-linejoin:round"></path><path d="M311,229.53s-29.06,19.69-34.55,22.56-12,5.18-12.69,5.55-10.65,1.85-12,2.41a5.87,5.87,0,0,0-3,3.61,18.51,18.51,0,0,1-3.89,5.68c-1.31,1.17-3.35,2.71,0,2.61s5.35-2.7,6.19-3.84a7.35,7.35,0,0,1,2.18-1.85,41.69,41.69,0,0,1-2.25,5.09c-.83,1.29-4.8,8.06-4.1,9.24s1,1.31,2.59,1.66,3.09-1.92,3.09-1.92c1.07,1.92,1.59,2.81,3,2.55s2-1.84,2.79-1.9,1.7,0,3.84-.12a5.55,5.55,0,0,0,3.56-2,3,3,0,0,0,2.66-1.43c1.27-1.63,1.31-3.17,1.28-5.79a13.38,13.38,0,0,1,1-5s22.25-5.33,32.95-8.58S335,240.1,339,235.8s-4.26-18.18-4.26-18.18Z" style="fill:#fff;stroke:#263238;stroke-linecap:round;stroke-linejoin:round"></path><path d="M298.57,199.16s-.68,7.45-.39,9.43,11.37,22.74,11.37,22.74,11.42-1.91,19-5.7a59,59,0,0,0,13.33-9.45s-16.32-29.31-17.58-36-5.29-19.64-8.51-21.56S303,154.93,302.12,155" style="fill:#92E3A9;stroke:#263238;stroke-linecap:round;stroke-linejoin:round"></path></g></svg>