<svg xmlns="http://www.w3.org/2000/svg" viewBox="0 0 750 500"><g id="background-simple"><path d="M711.38,248.87s-8.92-67.92-87-139.41-192.64-40.75-238.75-3.58-93.5,71.79-142.33,53.05c-33.12-12.71-74.49-8.48-108,.26C93.92,170,58.58,197.88,39.06,234.46c-18.66,35-20.14,76.74-10.38,114.39,9,34.58,27.35,70.84,66,80.87l.1,0H683.86S736.67,379,711.38,248.87Z" style="fill:#92E3A9"></path><path d="M711.38,248.87s-8.92-67.92-87-139.41-192.64-40.75-238.75-3.58-93.5,71.79-142.33,53.05c-33.12-12.71-74.49-8.48-108,.26C93.92,170,58.58,197.88,39.06,234.46c-18.66,35-20.14,76.74-10.38,114.39,9,34.58,27.35,70.84,66,80.87l.1,0H683.86S736.67,379,711.38,248.87Z" style="fill:#fff;opacity:0.7000000000000001"></path></g><g id="paper-bin"><rect x="200.57" y="340.67" width="62.17" height="88.53" style="fill:#fff;stroke:#263238;stroke-linecap:round;stroke-linejoin:round"></rect><rect x="200.57" y="353.74" width="62.17" height="62.39" style="fill:#fff;stroke:#263238;stroke-linecap:round;stroke-linejoin:round"></rect><path d="M261.1,412.49l1.65-1.47v-1.28l-2.29,2-3.32-3.73,3.72-3.33,1.89,2.11V405.4l-1.18-1.31,1.18-1v-1.28l-1.81,1.62-3.33-3.73,3.73-3.33,1.41,1.58v-1.43l-.7-.78.7-.63v-1.28L261.41,395l-3.33-3.72,3.73-3.33.94,1v-1.43l-.23-.25.23-.2v-1.27l-.86.76-3.33-3.73,3.73-3.32.46.51v-2.2l-.39.34L259,374.44l3.72-3.31v-1.46L259.51,366l3.24-2.89v-2.42L260,357.64l2.77-2.47v-1.28l-3.4,3-2.85-3.19H254l-3,2.71-2.42-2.71h-1.28l3,3.35-3.72,3.33-3.33-3.73,3.3-2.95h-1.43L242.54,356l-2-2.24h-1.28l2.57,2.87-3.73,3.33-3.32-3.72,2.77-2.48h-1.43l-2,1.76-1.58-1.76h-1.28l2.15,2.4-3.73,3.33-3.33-3.73,2.25-2h-1.43L225.74,355l-1.16-1.29H223.3l1.73,1.93L221.3,359,218,355.27l1.72-1.53h-1.44l-.91.82-.74-.82h-1.27l1.29,1.45-3.72,3.33-3.33-3.73,1.18-1.05h-1.43l-.39.34-.3-.34h-1.28l.87,1-3.72,3.33-3.85-4.31h-.08v1.35l3.21,3.59-3.21,2.87V364l2.74,3.06-2.74,2.45v1.28l3.38-3,3.32,3.73-3.72,3.33-3-3.33V373l2.27,2.53-2.27,2v1.28l2.9-2.58,3.33,3.72-3.73,3.33-2.5-2.8v1.44l1.79,2-1.79,1.59v1.28L203,384.6l3.32,3.73-3.72,3.32-2-2.26v1.43l1.32,1.47-1.32,1.17v1.28l2-1.74,3.33,3.73-3.73,3.33-1.55-1.74v1.43l.84.94-.84.75v1.28l1.48-1.32,3.33,3.73-3.73,3.33-1.08-1.21v1.44l.37.4-.37.33v1.28l1-.9,3.33,3.73-2.9,2.59h1.43l2.11-1.88,1.68,1.88h1.28l-2.25-2.51,3.73-3.33L213.3,414l-2.37,2.11h1.44l1.57-1.4,1.25,1.4h1.28l-1.82-2,3.73-3.33,3.33,3.73-1.84,1.64h1.43l1-.93.83.93h1.28l-1.4-1.56,3.73-3.33,3.33,3.72-1.31,1.17h1.43l.51-.45.41.45h1.28l-1-1.09,3.72-3.33,3.33,3.73-.78.69h2.68l-.55-.62,3.72-3.32,3.33,3.72-.24.22h1.72l-.13-.14,3.73-3.33,3.1,3.47H257l3.36-3,2.36,2.63v-1.43Zm-.87-8.48-3.73,3.33-3.33-3.73,3.73-3.33Zm-14-26.08,3.73-3.33,3.33,3.73-3.73,3.33Zm6.58,8.8-3.72,3.33-3.33-3.73,3.73-3.32Zm-4-4.44-3.73,3.33-3.33-3.72,3.73-3.33Zm-4.44,4-3.73,3.33-3.32-3.73,3.72-3.33Zm-3.25-5.08-3.33-3.72,3.73-3.33,3.33,3.73Zm-.71.64-3.73,3.33-3.33-3.73,3.73-3.33Zm-4.44,4-3.73,3.33-3.33-3.72,3.73-3.33Zm-3.25-5.07L229.39,377l3.73-3.32,3.32,3.72Zm-.71.64-3.73,3.32L225,381l3.73-3.33Zm-4.44,4-3.73,3.33-3.33-3.73,3.73-3.33Zm-3.25-5.07L221,376.51l3.72-3.33,3.33,3.73Zm-.72.63-3.72,3.33-3.33-3.73,3.72-3.33Zm-7.69-1.11L212.58,376l3.73-3.33,3.33,3.72Zm3.26,5.08-3.73,3.32-3.33-3.72,3.73-3.33Zm-.48,8.4L215,396.57l-3.32-3.73,3.72-3.33Zm-2.62-4.36,3.73-3.33,3.33,3.72-3.73,3.33Zm7.69,1.11,3.33,3.72L223.37,397,220,393.31Zm.72-.64L228.2,386l3.33,3.73-3.73,3.33Zm7.69,1.11,3.33,3.73-3.73,3.32-3.33-3.72Zm.71-.64,3.72-3.32,3.33,3.72-3.72,3.33Zm7.69,1.11,3.33,3.73L240.17,398l-3.33-3.73Zm.71-.63L245,387l3.33,3.73L244.61,394Zm7.69,1.11,3.33,3.72-3.73,3.33-3.33-3.72Zm.71-.64,3.73-3.33,3.33,3.73L253,394.5Zm.48-8.4,3.72-3.33,3.33,3.73-3.73,3.33Zm.47-8.4,3.73-3.33,3.33,3.73L254,377.7Zm.48-8.4,3.72-3.33,3.33,3.72-3.73,3.33Zm2.61,4.36L250,373.26l-3.33-3.73,3.72-3.33Zm-4.44,4-3.72,3.33-3.33-3.73,3.73-3.32Zm-7.69-1.11-3.32-3.72,3.72-3.33,3.33,3.72Zm-.71.64-3.72,3.33L233.83,373l3.72-3.33Zm-7.69-1.11-3.33-3.73,3.73-3.33,3.33,3.73Zm-.71.63-3.73,3.33-3.33-3.72,3.73-3.33Zm-7.69-1.11-3.33-3.72,3.73-3.33,3.33,3.73Zm-.71.64-3.73,3.33L217,372.07l3.73-3.33Zm-7.69-1.11-3.33-3.73,3.73-3.33,3.32,3.73Zm-.71.64L212,375.32l-3.33-3.72,3.73-3.33Zm-.48,8.4-3.73,3.33L208.15,380l3.72-3.33Zm-.47,8.4L211,392.13l-3.33-3.73,3.73-3.33Zm-.48,8.4-3.72,3.33-3.33-3.73,3.72-3.32Zm.64.71,3.33,3.73L214.49,405l-3.33-3.73Zm.71-.63,3.73-3.33,3.32,3.73L218.93,401Zm7.69,1.11,3.33,3.72-3.73,3.33-3.33-3.72Zm.71-.64,3.73-3.33,3.33,3.73-3.73,3.33Zm7.69,1.11,3.33,3.73-3.73,3.33L228,402.19Zm.71-.63,3.73-3.33,3.33,3.72L235.73,402Zm7.69,1.11,3.33,3.72-3.72,3.33-3.33-3.73Zm.72-.64,3.72-3.33,3.33,3.73-3.73,3.33Zm7.69,1.11,3.32,3.73-3.72,3.33-3.33-3.73Zm.71-.64,3.72-3.32,3.33,3.72-3.72,3.33Zm11.49-3.56L257,398.94l-3.32-3.73,3.72-3.33Zm.48-8.4-3.73,3.33-3.33-3.73,3.73-3.33Zm.47-8.4-3.73,3.32-3.32-3.72,3.72-3.33Zm.47-8.41-3.72,3.33L255.07,370l3.73-3.32Zm.48-8.4-3.73,3.33-3.33-3.73,3.73-3.33Zm-7.29-8.16,3.32,3.72-3.72,3.33-3.33-3.73Zm-4.44,4,3.33,3.73-3.73,3.33-3.33-3.73Zm-1.11,7.69L246,368.82l-3.33-3.73,3.73-3.33Zm-7.29-8.16,3.32,3.72-3.72,3.33-3.33-3.73ZM241.36,365l-3.73,3.32-3.33-3.72,3.73-3.33Zm-7.3-8.17,3.33,3.73-3.72,3.33-3.33-3.73ZM233,364.54l-3.72,3.33-3.33-3.73,3.73-3.32Zm-7.29-8.16L229,360.1l-3.73,3.33-3.32-3.72Zm-1.11,7.69-3.72,3.33-3.33-3.73,3.72-3.33Zm-7.29-8.17,3.33,3.73L216.86,363l-3.33-3.73Zm-1.11,7.69-3.73,3.33-3.32-3.72,3.72-3.33Zm-7.29-8.16,3.33,3.73-3.73,3.32-3.33-3.72Zm-8.17,7.29,3.73-3.33,3.33,3.73L204,366.45Zm4,4.44,3.72-3.33,3.33,3.73L208,370.89Zm-.48,8.4,3.73-3.33,3.33,3.73-3.73,3.33Zm-.47,8.4,3.73-3.33,3.32,3.73L207,387.69Zm-.48,8.4L207,389l3.33,3.72-3.73,3.33Zm-.47,8.41,3.73-3.33,3.32,3.73-3.72,3.32Zm2.85,12.13-3.32-3.73,3.72-3.33,3.33,3.73Zm1.11-7.69,3.73-3.33,3.33,3.72-3.73,3.33Zm7.3,8.16-3.33-3.73,3.72-3.32,3.33,3.72Zm1.11-7.69,3.72-3.33,3.33,3.73-3.73,3.33Zm7.29,8.16-3.33-3.72,3.73-3.33,3.32,3.73Zm1.11-7.69,3.72-3.32,3.33,3.72-3.72,3.33Zm7.29,8.17-3.33-3.73,3.73-3.33,3.33,3.73Zm1.11-7.69,3.73-3.33L239,407l-3.72,3.32Zm7.29,8.16-3.33-3.72,3.73-3.33,3.33,3.72Zm1.11-7.69,3.73-3.33,3.33,3.73-3.73,3.33Zm7.29,8.17-3.32-3.73,3.72-3.33,3.33,3.73Zm1.11-7.69,3.73-3.33,3.33,3.73-3.73,3.32Zm7.3,8.16L252.7,412l3.72-3.32,3.33,3.72Z" style="fill:#263238"></path></g><g id="file-cabinet"><polyline points="597.44 316.89 597.44 107.1 716.91 107.1 716.91 173.55" style="fill:none;stroke:#263238;stroke-linecap:round;stroke-linejoin:round"></polyline><polyline points="716.91 178.67 716.91 429.72 597.44 429.72 597.44 323.72" style="fill:none;stroke:#263238;stroke-linecap:round;stroke-linejoin:round"></polyline><polyline points="617.94 178.68 605.97 178.68 605.97 116.09 708.38 116.09 708.38 178.68 625.19 178.68" style="fill:none;stroke:#263238;stroke-linecap:round;stroke-linejoin:round"></polyline><rect x="644.73" y="143.12" width="24.89" height="12.8" style="fill:none;stroke:#263238;stroke-linecap:round;stroke-linejoin:round"></rect><polyline points="708.38 243.09 708.38 254.06 605.97 254.06 605.97 191.48 708.38 191.48 708.38 238.4" style="fill:none;stroke:#263238;stroke-linecap:round;stroke-linejoin:round"></polyline><rect x="644.73" y="218.5" width="24.89" height="12.8" style="fill:none;stroke:#263238;stroke-linecap:round;stroke-linejoin:round"></rect><polyline points="629.46 329.44 605.97 329.44 605.97 266.86 623.48 266.86" style="fill:none;stroke:#263238;stroke-linecap:round;stroke-linejoin:round"></polyline><polyline points="623.48 266.86 708.38 266.86 708.38 329.44 637.13 329.44" style="fill:none;stroke:#263238;stroke-linecap:round;stroke-linejoin:round"></polyline><rect x="644.73" y="293.88" width="24.89" height="12.8" style="fill:none;stroke:#263238;stroke-linecap:round;stroke-linejoin:round"></rect><rect x="605.97" y="342.24" width="102.41" height="62.58" style="fill:none;stroke:#263238;stroke-linecap:round;stroke-linejoin:round"></rect><rect x="644.73" y="369.27" width="24.89" height="12.8" style="fill:none;stroke:#263238;stroke-linecap:round;stroke-linejoin:round"></rect><polygon points="674.62 106.86 674.62 95.83 642.57 61.16 608.42 61.16 608.42 106.86 674.62 106.86" style="fill:none;stroke:#263238;stroke-linecap:round;stroke-linejoin:round"></polygon><polyline points="617.36 60.63 617.36 54.85 683.02 54.85 683.02 106.34 674.62 106.34" style="fill:none;stroke:#263238;stroke-linecap:round;stroke-linejoin:round"></polyline></g><g id="Device"><rect x="403.13" y="223.67" width="26.19" height="19.2" style="fill:#263238;stroke:#263238;stroke-linecap:round;stroke-linejoin:round"></rect><rect x="358.66" y="140.83" width="114.21" height="85.1" style="fill:#707070;stroke:#263238;stroke-linecap:round;stroke-linejoin:round"></rect><rect x="363.16" y="146.36" width="105.2" height="74.03" style="fill:#bababa;stroke:#263238;stroke-linecap:round;stroke-linejoin:round"></rect><circle cx="416.29" cy="177.92" r="7.64" style="fill:#dedede"></circle><line x1="404.83" y1="193.2" x2="427.76" y2="193.2" style="fill:none;stroke:#dedede;stroke-miterlimit:10"></line><rect x="407.12" y="235.45" width="5.7" height="1.39" style="fill:#fff;stroke:#263238;stroke-linecap:round;stroke-linejoin:round"></rect><rect x="414.14" y="235.45" width="5.7" height="1.39" style="fill:#fff;stroke:#263238;stroke-linecap:round;stroke-linejoin:round"></rect><rect x="421.17" y="235.45" width="5.7" height="1.39" style="fill:#fff;stroke:#263238;stroke-linecap:round;stroke-linejoin:round"></rect><rect x="428.2" y="235.45" width="5.7" height="1.39" style="fill:#fff;stroke:#263238;stroke-linecap:round;stroke-linejoin:round"></rect><rect x="435.22" y="235.45" width="5.7" height="1.39" style="fill:#fff;stroke:#263238;stroke-linecap:round;stroke-linejoin:round"></rect><rect x="442.25" y="235.45" width="5.7" height="1.39" style="fill:#fff;stroke:#263238;stroke-linecap:round;stroke-linejoin:round"></rect><rect x="449.27" y="235.45" width="5.7" height="1.39" style="fill:#fff;stroke:#263238;stroke-linecap:round;stroke-linejoin:round"></rect><rect x="456.3" y="235.45" width="5.7" height="1.39" style="fill:#fff;stroke:#263238;stroke-linecap:round;stroke-linejoin:round"></rect><rect x="463.33" y="235.45" width="5.7" height="1.39" style="fill:#fff;stroke:#263238;stroke-linecap:round;stroke-linejoin:round"></rect><rect x="470.35" y="235.45" width="5.7" height="1.39" style="fill:#fff;stroke:#263238;stroke-linecap:round;stroke-linejoin:round"></rect><rect x="477.38" y="235.45" width="5.7" height="1.39" style="fill:#fff;stroke:#263238;stroke-linecap:round;stroke-linejoin:round"></rect><rect x="484.41" y="235.45" width="5.7" height="1.39" style="fill:#fff;stroke:#263238;stroke-linecap:round;stroke-linejoin:round"></rect><rect x="405.37" y="236.84" width="87.5" height="4.3" style="fill:#fff;stroke:#263238;stroke-linecap:round;stroke-linejoin:round"></rect></g><g id="Desk"><path d="M277.85,429.72h0a2.45,2.45,0,0,1-2.44-2.39l-3.75-157.79h12.39l-3.76,157.79A2.44,2.44,0,0,1,277.85,429.72Z" style="fill:#fff;stroke:#263238;stroke-linecap:round;stroke-linejoin:round"></path><path d="M514.12,429.72h0a2.44,2.44,0,0,1-2.44-2.39l-3.76-157.79h12.4l-3.76,157.79A2.45,2.45,0,0,1,514.12,429.72Z" style="fill:#fff;stroke:#263238;stroke-linecap:round;stroke-linejoin:round"></path><rect x="266.57" y="243.25" width="260.15" height="31.99" style="fill:#fff;stroke:#263238;stroke-linecap:round;stroke-linejoin:round"></rect><rect x="266.57" y="243.25" width="260.15" height="7.3" style="fill:#263238;stroke:#263238;stroke-linecap:round;stroke-linejoin:round"></rect><rect x="262.34" y="240.83" width="268.6" height="5.43" style="fill:#fff;stroke:#263238;stroke-linecap:round;stroke-linejoin:round"></rect></g><g id="Chair"><path d="M484.84,333.25a3.27,3.27,0,0,0,1.29-.26,3.35,3.35,0,0,0,1.81-4.39c-5.41-13.05-11.63-36.35-5.26-43.3,1.49-1,10.44-3.19,58.7,1.23l3.52.31c3.37.26,6.25,4.56,7,6a3.37,3.37,0,1,0,6-3c-.47-.93-4.79-9.14-12.49-9.74-.64,0-1.82-.15-3.42-.3-51.43-4.72-61.29-2.34-64.28.92-11.33,12.36,2.41,46.57,4,50.43A3.37,3.37,0,0,0,484.84,333.25Z" style="fill:#263238;stroke:#263238;stroke-linecap:round;stroke-linejoin:round"></path><path d="M584.46,186.52s4.94,7.91,3.59,14.42-13.48,34.87-22.47,60.9-7.19,54.4-7.19,62.77.45,14.41-5.84,17.67-16.18,1.39-18.88-4.65-4.49-44.64.45-67.88,22.47-64.16,27-73.46S567.83,174,584.46,186.52Z" style="opacity:0.25"></path><path d="M584.46,186.52s4.94,7.91,3.59,14.42-13.48,34.87-22.47,60.9-7.19,54.4-7.19,62.77.45,14.41-5.84,17.67-16.18,1.39-18.88-4.65-4.49-44.64.45-67.88,22.47-64.16,27-73.46S567.83,174,584.46,186.52Z" style="fill:#707070;stroke:#263238;stroke-linecap:round;stroke-linejoin:round"></path><rect x="489.21" y="336.85" width="6.03" height="58.12" transform="translate(984.46 731.81) rotate(180)" style="fill:#263238;stroke:#263238;stroke-linecap:round;stroke-linejoin:round"></rect><polygon points="484.57 397.33 484.57 387.54 499.88 387.54 499.88 397.43 561.13 420.95 561.13 432.55 556.96 432.55 556.96 423.73 492.01 410.01 428.78 423.73 428.78 432.55 424.72 432.55 424.72 420.95 484.57 397.33" style="fill:#263238"></polygon><rect x="477.15" y="336.85" width="30.16" height="18.56" transform="translate(984.46 692.25) rotate(180)" style="fill:#263238"></rect><circle cx="567.63" cy="433.01" r="6.5" style="fill:#263238;stroke:#263238;stroke-linecap:round;stroke-linejoin:round"></circle><path d="M564.84,433a2.79,2.79,0,1,1,2.79,2.79A2.78,2.78,0,0,1,564.84,433Z" style="fill:#fff;stroke:#263238;stroke-linecap:round;stroke-linejoin:round"></path><path d="M411.26,433a6.5,6.5,0,1,1,6.5,6.5A6.49,6.49,0,0,1,411.26,433Z" style="fill:#263238;stroke:#263238;stroke-linecap:round;stroke-linejoin:round"></path><path d="M415,433a2.79,2.79,0,1,1,2.79,2.79A2.78,2.78,0,0,1,415,433Z" style="fill:#fff;stroke:#263238;stroke-linecap:round;stroke-linejoin:round"></path><polygon points="489.44 433.94 494.55 433.94 497.1 399.14 486.89 399.14 489.44 433.94" style="fill:#fff;stroke:#263238;stroke-linecap:round;stroke-linejoin:round"></polygon><rect x="489.68" y="426.52" width="5.1" height="14.38" transform="translate(984.46 867.42) rotate(180)" style="fill:#263238;stroke:#263238;stroke-linecap:round;stroke-linejoin:round"></rect><path d="M437.46,341.65l97.13,3.82a4.05,4.05,0,0,0,4.17-3.92l.57-17.88a4,4,0,0,0-3.92-4.17l-97.13-3.82a4.05,4.05,0,0,0-4.17,3.92l-.57,17.88A4,4,0,0,0,437.46,341.65Z" style="opacity:0.25"></path><path d="M437.46,341.65l97.13,3.82a4.05,4.05,0,0,0,4.17-3.92l.57-17.88a4,4,0,0,0-3.92-4.17l-97.13-3.82a4.05,4.05,0,0,0-4.17,3.92l-.57,17.88A4,4,0,0,0,437.46,341.65Z" style="fill:#707070;stroke:#263238;stroke-linecap:round;stroke-linejoin:round"></path><path d="M474.37,333.25a3.22,3.22,0,0,0,1.28-.26,3.36,3.36,0,0,0,1.82-4.39c-5.42-13.05-11.64-36.35-5.27-43.3,1.49-1,10.45-3.19,58.71,1.23l3.52.31c3.37.26,6.25,4.56,7,6a3.37,3.37,0,1,0,6-3c-.47-.93-4.79-9.14-12.5-9.74-.63,0-1.81-.15-3.41-.3-51.43-4.72-61.29-2.34-64.29.92-11.33,12.36,2.41,46.57,4,50.43A3.37,3.37,0,0,0,474.37,333.25Z" style="fill:#263238;stroke:#263238;stroke-linecap:round;stroke-linejoin:round"></path></g><g id="Clock"><circle cx="153.71" cy="75.95" r="36.65" style="fill:none;stroke:#263238;stroke-linecap:round;stroke-linejoin:round"></circle><path d="M137.79,47.5a32.6,32.6,0,1,0,42.76,46.94" style="fill:none;stroke:#263238;stroke-linecap:round;stroke-linejoin:round"></path><path d="M182.83,90.61a32.61,32.61,0,0,0-41.38-44.87" style="fill:none;stroke:#263238;stroke-linecap:round;stroke-linejoin:round"></path><line x1="155.31" y1="75.95" x2="166.77" y2="75.95" style="fill:none;stroke:#263238;stroke-linecap:round;stroke-linejoin:round"></line><line x1="153.71" y1="75.95" x2="138.5" y2="95.43" style="fill:none;stroke:#263238;stroke-linecap:round;stroke-linejoin:round"></line><path d="M155.31,76a1.6,1.6,0,1,0-1.6,1.59A1.59,1.59,0,0,0,155.31,76Z" style="fill:#fff;stroke:#263238;stroke-linecap:round;stroke-linejoin:round"></path></g><g id="Plant"><path d="M87.43,309.85s.91-3.32.94-3.54c.35-2.52-.45-7.6-3-8.84a3.37,3.37,0,0,0-4.59,2c-.69,1.89.18,4.21,1.22,5.8C83.19,307.19,87.42,309.85,87.43,309.85Z" style="fill:#263238"></path><path d="M36.82,308.75c2,.9,7,.78,7,.78s-1.07-3.27-1.17-3.47c-1.09-2.3-4.56-6.09-7.39-5.71a3.38,3.38,0,0,0-2.71,4.23C33.07,306.54,35.08,308,36.82,308.75Z" style="fill:#263238"></path><path d="M102.36,291.72c-2.83-.3-6.2,3.58-7.24,5.91-.09.2-1.12,3.5-1.07,3.5h.06c-.54.61-1.11,1.27-1.71,2-1.11,1.36-2.35,2.91-3.59,4.69a59.39,59.39,0,0,0-3.71,5.92,44,44,0,0,0-3.18,7.15s0,.06,0,.09c0-.84,0-3.17-.05-3.35-.33-2.53-2.44-7.21-5.25-7.73a3.38,3.38,0,0,0-3.89,3.17c-.16,2,1.29,4,2.71,5.28,1.6,1.43,6,2.81,6.39,2.92A59.63,59.63,0,0,0,79.94,329c-.27,1.52-.5,3.07-.71,4.62,0-.72,0-1.37,0-1.46-.32-2.52-2.44-7.21-5.24-7.73a3.37,3.37,0,0,0-3.89,3.17c-.17,2,1.29,4,2.71,5.28S78,335.44,79,335.76c-.07.6-.15,1.19-.22,1.79-.34,2.86-.67,5.72-1.08,8.51-.14,1-.32,1.95-.49,2.91,0-.64,0-1.18,0-1.26-.33-2.53-2.44-7.21-5.24-7.73A3.37,3.37,0,0,0,68,343.15c-.17,2,1.29,4,2.7,5.28s4.84,2.42,6,2.8c-.21,1-.41,2-.66,2.91-.18.64-.31,1.27-.53,1.9s-.41,1.26-.6,1.88c-.43,1.17-.87,2.39-1.31,3.53-.31.79-.61,1.54-.92,2.3.16-1,.42-2.9.42-3.06a13,13,0,0,0-1.76-6.37,3.78,3.78,0,0,0,0-.75,3.38,3.38,0,0,0-4.13-2.86c-2.75.73-4.5,5.57-4.63,8.11,0,.15.09,1.79.17,2.82-.14-.6-.27-1.19-.42-1.8-.29-1.22-.61-2.43-1-3.73l-.57-1.88c-.18-.63-.45-1.28-.67-1.93-.54-1.49-1.17-3-1.83-4.45,1.07-.26,4.84-1.22,6.35-2.38s3.11-3.05,3.1-5.06A3.38,3.38,0,0,0,64.09,337c-2.83.31-5.29,4.83-5.8,7.32,0,.15-.2,2-.28,3-.4-.89-.8-1.77-1.24-2.66-1.27-2.55-2.63-5.09-4-7.63-.42-.78-.82-1.56-1.23-2.34.39-.09,4.89-1.13,6.59-2.44,1.51-1.15,3.11-3.05,3.1-5.06a3.38,3.38,0,0,0-3.65-3.45c-2.83.31-5.29,4.82-5.81,7.31,0,.19-.27,2.82-.3,3.5-.89-1.72-1.77-3.44-2.56-5.17a60.07,60.07,0,0,1-2.78-7.19c.18,0,4.89-1.11,6.63-2.44,1.51-1.16,3.1-3.05,3.09-5.07a3.37,3.37,0,0,0-3.64-3.45c-2.84.31-5.3,4.82-5.81,7.32,0,.16-.22,2.17-.28,3.12l-.16,0A43.09,43.09,0,0,1,44.54,314c-.16-1.42-.24-2.78-.28-4.11.9-.11,5-.65,6.7-1.68s3.42-2.69,3.63-4.69a3.37,3.37,0,0,0-3.24-3.83c-2.85,0-5.79,4.21-6.58,6.63,0,.13-.33,1.52-.52,2.53,0-.6,0-1.22,0-1.79,0-2.16.14-4.13.28-5.88.08-1,.18-1.89.28-2.72.82-.57,4.12-2.9,5.13-4.56s1.8-4,1.06-5.84a3.37,3.37,0,0,0-4.64-1.91c-2.53,1.31-3.2,6.41-2.78,8.92,0,.22,1,3.55,1,3.52l.05,0c-.11.81-.22,1.67-.32,2.62-.17,1.74-.35,3.72-.4,5.88a59.66,59.66,0,0,0,.16,7,43.86,43.86,0,0,0,1.3,7.72l0,.08c-.45-.7-1.77-2.63-1.89-2.76-1.66-1.93-6-4.67-8.64-3.56a3.38,3.38,0,0,0-1.49,4.8c1,1.76,3.29,2.63,5.17,2.91,2.12.31,6.59-1,6.94-1.09a60.25,60.25,0,0,0,2.71,7.49c.61,1.42,1.28,2.83,2,4.24-.41-.59-.78-1.12-.84-1.19-1.66-1.93-6-4.67-8.64-3.55a3.37,3.37,0,0,0-1.49,4.79c1,1.76,3.29,2.63,5.17,2.91s5.74-.75,6.75-1l.8,1.62c1.29,2.57,2.59,5.14,3.79,7.69.42.9.81,1.8,1.19,2.7-.36-.53-.67-1-.72-1-1.67-1.93-6-4.67-8.64-3.56A3.39,3.39,0,0,0,46,348c1,1.76,3.29,2.63,5.18,2.91s5.36-.66,6.56-1c.37.94.74,1.87,1.06,2.79.2.64.43,1.23.6,1.88s.35,1.27.53,1.9c.29,1.22.6,2.47.86,3.67.18.83.34,1.62.5,2.42-.41-.9-1.25-2.65-1.34-2.78-1.35-2.16-5.23-5.53-8-4.82a3.37,3.37,0,0,0-2.2,4.51c.69,1.89,2.85,3.1,4.67,3.66,2,.61,6.43.05,7,0,.26,1.32.51,2.61.72,3.83.75,4.24,1.21,7.79,1.49,10.28.06.44.1.83.14,1.21H55.21l2.62,51.07H73.48l2.61-51.07h-8l.18-.37c1.09-2.29,2.62-5.57,4.26-9.59.52-1.26,1-2.63,1.59-4,.53.11,4.92,1,7,.54,1.86-.42,4.1-1.46,4.93-3.3a3.36,3.36,0,0,0-1.86-4.66c-2.7-.91-6.82,2.16-8.33,4.21-.09.12-.91,1.54-1.42,2.44.22-.57.43-1.13.65-1.73.43-1.17.82-2.36,1.25-3.63q.28-.93.57-1.89c.2-.62.33-1.31.51-2,.36-1.54.66-3.13.92-4.73,1,.38,4.71,1.66,6.62,1.52s4.27-.83,5.37-2.51a3.37,3.37,0,0,0-1.13-4.89c-2.54-1.31-7.08,1.1-8.88,2.9-.11.11-1.26,1.54-1.88,2.34.15-1,.31-1.92.43-2.9.35-2.83.62-5.7.89-8.56.09-.88.19-1.75.28-2.63.36.14,4.7,1.76,6.83,1.61,1.9-.14,4.28-.83,5.38-2.52a3.37,3.37,0,0,0-1.14-4.89c-2.53-1.31-7.07,1.1-8.88,2.9-.13.13-1.78,2.2-2.18,2.74.21-1.92.43-3.84.72-5.72a59.4,59.4,0,0,1,1.64-7.53c.17.07,4.7,1.77,6.88,1.62,1.9-.13,4.28-.83,5.37-2.52a3.36,3.36,0,0,0-1.13-4.89c-2.53-1.3-7.07,1.1-8.88,2.9-.12.12-1.38,1.69-2,2.45l-.14-.07a42.71,42.71,0,0,1,3-7.15c.65-1.27,1.34-2.45,2-3.57.81.4,4.53,2.21,6.51,2.28s4.34-.35,5.62-1.91a3.37,3.37,0,0,0-.59-5c-2.37-1.58-7.15.32-9.14,1.9-.11.09-1.11,1.09-1.83,1.83.32-.51.64-1,1-1.51,1.19-1.8,2.4-3.37,3.47-4.75.62-.78,1.2-1.48,1.74-2.12,1,0,5-.14,6.8-1s3.69-2.31,4.1-4.28A3.38,3.38,0,0,0,102.36,291.72ZM71,367.87c-1.71,3.94-3.29,7.16-4.42,9.39l-.62,1.22h-.19c-.06-.44-.12-.92-.19-1.45-.35-2.51-.89-6.09-1.74-10.35-.26-1.34-.57-2.78-.9-4.24a38.11,38.11,0,0,0,3.89-1.84c1.46,1.58,5.2,3.43,5.68,3.67C72,365.52,71.48,366.73,71,367.87Z" style="fill:#263238"></path><path d="M36.82,308.75c2,.9,7,.78,7,.78s-1.07-3.27-1.17-3.47c-1.09-2.3-4.56-6.09-7.39-5.71a3.38,3.38,0,0,0-2.71,4.23C33.07,306.54,35.08,308,36.82,308.75Z" style="fill:#263238;opacity:0.30000000000000004"></path><path d="M87.43,309.85s.91-3.32.94-3.54c.35-2.52-.45-7.6-3-8.84a3.37,3.37,0,0,0-4.59,2c-.69,1.89.18,4.21,1.22,5.8C83.19,307.19,87.42,309.85,87.43,309.85Z" style="fill:#263238;opacity:0.30000000000000004"></path></g><g id="Floor"><line x1="725.52" y1="429.72" x2="22.64" y2="429.72" style="fill:none;stroke:#263238;stroke-linecap:round;stroke-linejoin:round"></line></g><g id="Character"><path d="M293.82,323.4s-3.63,9-2.42,13.34,58.43,56.49,58.43,56.49-3.15,8.73-5.09,12.61a34.84,34.84,0,0,1-6.3,8.49c-1.46,1.45-.73,4.36,5.33,4.36s12.85-7,15.52-10.18,8.73-6.06,9.21-11.64-11.39-9.46-11.39-9.46l-40.25-57.22,9.21-9.46-27.64-1.21Z" style="fill:#fff;stroke:#263238;stroke-linecap:round;stroke-linejoin:round"></path><path d="M359.29,408.51c2.67-3.15,8.73-6.06,9.21-11.64.22-2.48-2-4.62-4.55-6.24-1.45,2.5-2.36,6.37-5.14,10.36-3.88,5.58-12.13,9.94-12.13,9.94l-4.06-1.58a38.36,38.36,0,0,1-4.18,5c-1.46,1.45-.73,4.36,5.33,4.36S356.62,411.66,359.29,408.51Z" style="fill:#263238;stroke:#263238;stroke-linecap:round;stroke-linejoin:round"></path><path d="M355.79,321.43s-1.67,13.35-.35,22.92c.46,3.34,50.92,65.23,50.92,65.23s-3.15,8.48-6.06,12.12-10.67,7.27-10.43,9.21,6.79,2.43,14.07.73S419.7,421.21,423.33,419s.49-7.27-2.18-10.42-4.12-3.16-5.33-5.1-22.8-41.46-27.16-52.85-7.52-16-7.52-16L379,331.5Z" style="fill:#fff;stroke:#263238;stroke-linecap:round;stroke-linejoin:round"></path><path d="M423.33,419c3.06-1.83,1.31-5.73-.91-8.8a55.34,55.34,0,0,1-5.39,6.38c-7.28,7.51-13.34,8.48-13.34,8.48l-3.39-3.39c-2.91,3.64-10.67,7.27-10.43,9.21s6.79,2.43,14.07.73S419.7,421.21,423.33,419Z" style="fill:#263238;stroke:#263238;stroke-linecap:round;stroke-linejoin:round"></path><path d="M299.47,195.32s-8.93-7.35-14.91-1.55S259,232,259,232l-50-11.37s-3.64-8.15-4.63-9.19-2.85-2.18-3.94-4.17-2-2.56-2-5.06c0-1.73-4.09-1.26-3.84,1.79s2.52,4.33,2.89,5.83.6,2.72.6,2.72l-19.78-6.16a1.39,1.39,0,0,0-1.8,1.39h0a1.4,1.4,0,0,0,.75,1.17l10,5.13L186,215.71l-11.68-1.85a1.32,1.32,0,0,0-1.53,1.41h0a1.32,1.32,0,0,0,.93,1.16l10.82,3.3-.68,2.49-9.09-.37a1.26,1.26,0,0,0-1.29,1.39h0a1.25,1.25,0,0,0,1,1.09l11.07,1.93-5.87,2.24a1.43,1.43,0,0,0-.49,2.35h0a1.43,1.43,0,0,0,1.42.35l8.39-2.55a35,35,0,0,0,6.56.11c2.18-.34,6.8-1.17,6.8-1.17L253,247.38s11.46,4.16,13.58,3.34,31.93-39.59,31.93-39.59" style="fill:#fff;stroke:#263238;stroke-linecap:round;stroke-linejoin:round"></path><path d="M275.24,205.78,259,232l24.49,20,13.12-32.1S285.94,187.48,275.24,205.78Z" style="fill:#92E3A9;stroke:#263238;stroke-linecap:round;stroke-linejoin:round"></path><path d="M198.05,212.59s-1.54,5.95-.17,7.52,4.3,1.95,4.3,1.95" style="fill:none;stroke:#263238;stroke-linecap:round;stroke-linejoin:round"></path><path d="M228.78,156.41s-.23,8.26,1.14,11,4.13,3.67,3.68,6.89-3.68,8.49-1.15,9.86,6.42.46,6.42.46,8,11.7,11,11.47,8.49-5.73,8.49-5.73l15.83,8.72,5.05-14s9.63-6.65-13.31-26.39-34.88-10.78-34.88-10.78Z" style="fill:#fff;stroke:#263238;stroke-linecap:round;stroke-linejoin:round"></path><path d="M238.72,170.15c.8.93,1.15,1.95.77,2.28s-1.35-.14-2.16-1.07-1.16-2-.77-2.28S237.91,169.22,238.72,170.15Z" style="fill:#263238"></path><path d="M248.92,183.05a3.65,3.65,0,1,1-5.42-.69A3.88,3.88,0,0,1,248.92,183.05Z" style="fill:#263238"></path><path d="M232.49,166.69s.92-2.16,5.53-2" style="fill:none;stroke:#263238;stroke-linecap:round;stroke-linejoin:round;stroke-width:2px"></path><path d="M238.33,174.21a8.6,8.6,0,0,0,5.37-.77" style="fill:none;stroke:#263238;stroke-linecap:round;stroke-linejoin:round"></path><path d="M330.82,258l.73,10.19S300,310.76,292.39,326c-1.25,2.5,34.2,7.18,58.69,8.88s32.73.24,32.73.24,10.78-60.62,8.84-76.38-6.06-22.79-15.27-29.82a61.66,61.66,0,0,0-19.64-9.7Z" style="fill:#263238;stroke:#263238;stroke-linecap:round;stroke-linejoin:round"></path><path d="M353.45,269a38.33,38.33,0,0,0-1.22,3.87" style="fill:none;stroke:#757575;stroke-linecap:round;stroke-linejoin:round"></path><path d="M363.52,246.31s-5.82,11.88-9.19,20.4" style="fill:none;stroke:#757575;stroke-linecap:round;stroke-linejoin:round"></path><path d="M352.64,260s-3.23,13.29-3.63,16.92" style="fill:none;stroke:#757575;stroke-linecap:round;stroke-linejoin:round"></path><path d="M276.51,185.29s-3.64,16.49-2.42,25.46,12.36,28.13,18.42,30.55,15.76,2.67,17.22,3.16,17.46,15.76,21.09,13.57,28.13-34.67,28.62-37.09a4.83,4.83,0,0,0-1.94-5.34c-1.7-1.21-26.43-18.18-44.38-28.37s-20.85-9.7-26.67-7.76A29.91,29.91,0,0,0,276.51,185.29Z" style="fill:#92E3A9;stroke:#263238;stroke-linecap:round;stroke-linejoin:round"></path><path d="M302.89,225.86s9.57-4.28,16.87-8.31" style="fill:none;stroke:#263238;stroke-linecap:round;stroke-linejoin:round"></path><path d="M329.38,218a31.15,31.15,0,0,0,2.72-1.73" style="fill:none;stroke:#263238;stroke-linecap:round;stroke-linejoin:round"></path><path d="M314.72,224.61a116.9,116.9,0,0,0,11.63-5" style="fill:none;stroke:#263238;stroke-linecap:round;stroke-linejoin:round"></path><path d="M304.74,199.36s-5.31-10.55-13.28-7.61-39.63,25.18-39.63,25.18l-42-31.28s0-9.1-.51-10.48-1.77-3.21-2-5.52-.83-3.23.2-5.56c.71-1.61-3.3-2.87-4.32.08s.56,5.08.29,6.63-.57,2.79-.57,2.79L187,159.68a1.4,1.4,0,0,0-2.24.55h0a1.41,1.41,0,0,0,.21,1.4l7.24,8.93-1.83,1L180.28,165a1.35,1.35,0,0,0-2,.69h0a1.34,1.34,0,0,0,.39,1.47l8.72,7.55-1.65,2-8.33-4.09a1.28,1.28,0,0,0-1.78.77h0a1.28,1.28,0,0,0,.51,1.44l9.53,6.36-6.4-.33a1.46,1.46,0,0,0-1.43,2h0a1.44,1.44,0,0,0,1.18.91l8.89,1.09a36.18,36.18,0,0,0,6.07,2.82c2.17.57,6.83,1.71,6.83,1.71l39.07,39.36s9,8.62,11.28,8.73,46.15-23.76,46.15-23.76" style="fill:#fff;stroke:#263238;stroke-linecap:round;stroke-linejoin:round"></path><path d="M308.31,199s-11-13.94-20.2-8.87-34.92,24.37-34.92,24.37l16.62,25.55,29.1-22.3" style="fill:#92E3A9;stroke:#263238;stroke-linecap:round;stroke-linejoin:round"></path><path d="M306.85,157.31c2.06-6.42-.06-15.13-.06-15.13s-6.88,9.18-14.91,5-3.44.46-13.54-11-21.49-12.77-36.71-8c-10.33,3.21-12.39,8.49-12.39,8.49s-9.87,8-9.18,13.76,8.95,8.49,8.95,8.49l2.29-4.59s4,7,10.91,7.46c2.09.14,4.52.37,6.92.69l-1.46.13s3.82,5.18,5.46,4.36c1-.51,1.19-2.31,1.17-3.58,3.33.74,5.93,1.74,6.47,3,1.15,2.75.41,8.36-.27,9.28,0,0,1.55,10.75,7.74,15.8s20.2,2.29,22.49-1.61A15,15,0,0,0,293,183s14.23.68,13.08-11S304.78,163.74,306.85,157.31Z" style="fill:#263238;stroke:#263238;stroke-linecap:round;stroke-linejoin:round"></path></g><g id="Papers"><path d="M121,188.1a144.54,144.54,0,0,0-2,22.2c0,10.87,3.4,25.6,3.4,25.6l59.81-2.49s-6.34-26.51-7-31.27a56.31,56.31,0,0,1-.68-7l-48.71-5.67Z" style="fill:#92E3A9;stroke:#263238;stroke-linecap:round;stroke-linejoin:round"></path><rect x="103.97" y="210.07" width="63.44" height="43.05" transform="translate(-30.5 20.81) rotate(-7.89)" style="fill:#fff;stroke:#263238;stroke-linecap:round;stroke-linejoin:round"></rect><rect x="64.53" y="274.98" width="63.44" height="43.05" transform="translate(-158.28 116.53) rotate(-36.75)" style="fill:#fff;stroke:#263238;stroke-linecap:round;stroke-linejoin:round"></rect><rect x="80.59" y="226.78" width="63.44" height="43.05" transform="translate(-12.64 6.11) rotate(-2.95)" style="fill:#fff;stroke:#263238;stroke-linecap:round;stroke-linejoin:round"></rect><path d="M121,188.1s2.26-.68,3.62,13.59,3,26.05,7,32.85l61.62-5.21s-6.11-12.91-9.06-21.3a56.58,56.58,0,0,0-7-13.82Z" style="fill:#92E3A9;stroke:#263238;stroke-linecap:round;stroke-linejoin:round"></path><path d="M148.9,344.76s6.37,4.44,11.15,3.06c6.28-1.82,12.92-13,12.92-13S159.1,341.81,148.9,344.76Z" style="fill:#fff;stroke:#263238;stroke-linecap:round;stroke-linejoin:round"></path><path d="M148.9,344.76,113,318.44l-16.4,33.78s21,16.88,35.1,18.24S165,344.87,165,344.87,160.4,352,148.9,344.76Z" style="fill:#fff;stroke:#263238;stroke-linecap:round;stroke-linejoin:round"></path></g><g id="Carpet"><path d="M383.65,427.83c4.76-3.43,7.62-4.34,11.8-.23l.13.13c4.22,4.22,1.78,9,5.4,10.86s10.86,3,10.86,3H157.15L162,435.2l162.58.46C345.37,435.72,372.17,436.1,383.65,427.83Z" style="fill:#92E3A9;stroke:#263238;stroke-linecap:round;stroke-linejoin:round"></path><line x1="379.47" y1="415.36" x2="386.49" y2="420.19" style="fill:none;stroke:#263238;stroke-linecap:round;stroke-linejoin:round"></line><line x1="389.57" y1="408.34" x2="390.88" y2="413.17" style="fill:none;stroke:#263238;stroke-linecap:round;stroke-linejoin:round"></line><line x1="400.54" y1="411.85" x2="397.03" y2="417.12" style="fill:none;stroke:#263238;stroke-linecap:round;stroke-linejoin:round"></line></g></svg>