<svg xmlns="http://www.w3.org/2000/svg" viewBox="0 0 500 500"><g id="background-simple"><path d="M320.14,45.86s-69.77-20.54-138.66,21-104,119-134.17,181.21S33.88,371.17,86.09,396.75s88.12-17.68,161.64-23.31S341,377,402.21,333.92s72.91-138.17,25.25-205.78S320.14,45.86,320.14,45.86Z" style="fill:#92E3A9"></path><path d="M320.14,45.86s-69.77-20.54-138.66,21-104,119-134.17,181.21S33.88,371.17,86.09,396.75s88.12-17.68,161.64-23.31S341,377,402.21,333.92s72.91-138.17,25.25-205.78S320.14,45.86,320.14,45.86Z" style="fill:#fff;opacity:0.7000000000000001"></path></g><g id="Clouds"><path d="M333.8,218a21.49,21.49,0,0,0-5.13,9.66,12.77,12.77,0,0,0-16.56-3.51,25,25,0,0,0-49.39-3,16.28,16.28,0,0,0-22.19-.61" style="fill:none;stroke:#263238;stroke-miterlimit:10"></path><path d="M402,191.57a33.4,33.4,0,0,0-5.13-.4,33,33,0,0,0-32.26,26.05,21.43,21.43,0,0,0-26.1-3.1" style="fill:none;stroke:#263238;stroke-miterlimit:10"></path><path d="M420.53,201.19a33,33,0,0,0-7.95-6" style="fill:none;stroke:#263238;stroke-miterlimit:10"></path><path d="M408.65,233.31h61A10.68,10.68,0,0,0,454,230.36a16.87,16.87,0,0,0-24.24-9.18,32.82,32.82,0,0,0-6.27-16.55" style="fill:none;stroke:#263238;stroke-miterlimit:10"></path><path d="M238,223.34a16.26,16.26,0,0,0-3,9.37c0,.2,0,.4,0,.6h161.6" style="fill:none;stroke:#263238;stroke-miterlimit:10"></path><path d="M454.36,244.17a14.67,14.67,0,0,0-23.86,8.08,9.53,9.53,0,0,0-16,4.62,5.68,5.68,0,0,0-7.37-1.56,11.13,11.13,0,0,0-22-1.34,7.25,7.25,0,0,0-12.33,5.16c0,.1,0,.18,0,.27H477.21a4.76,4.76,0,0,0-7-1.31A7.5,7.5,0,0,0,459.45,254a14.36,14.36,0,0,0-.66-3.23" style="fill:none;stroke:#263238;stroke-miterlimit:10"></path><path d="M216.45,65.61a21.48,21.48,0,0,0-5.12,9.66,12.81,12.81,0,0,0-16.56-3.51,25,25,0,0,0-49.39-3,16.26,16.26,0,0,0-22.19-.6" style="fill:none;stroke:#263238;stroke-miterlimit:10"></path><path d="M284.64,39.22a33.07,33.07,0,0,0-37.38,25.65,21.43,21.43,0,0,0-26.1-3.1" style="fill:none;stroke:#263238;stroke-miterlimit:10"></path><path d="M303.19,48.85a32.69,32.69,0,0,0-8-6" style="fill:none;stroke:#263238;stroke-miterlimit:10"></path><path d="M291.3,81h61A10.69,10.69,0,0,0,336.6,78a16.86,16.86,0,0,0-24.23-9.18,32.84,32.84,0,0,0-6.27-16.54" style="fill:none;stroke:#263238;stroke-miterlimit:10"></path><path d="M120.64,71a16.19,16.19,0,0,0-3,9.37c0,.2,0,.4,0,.6H279.3" style="fill:none;stroke:#263238;stroke-miterlimit:10"></path><path d="M337,91.82a14.68,14.68,0,0,0-23.86,8.08,9.53,9.53,0,0,0-16,4.62,5.7,5.7,0,0,0-7.36-1.56,11.13,11.13,0,0,0-22-1.33,7.23,7.23,0,0,0-12.32,5.16c0,.09,0,.18,0,.26H359.86a4.77,4.77,0,0,0-7-1.31,7.5,7.5,0,0,0-10.78-4.08,15,15,0,0,0-.66-3.22" style="fill:none;stroke:#263238;stroke-miterlimit:10"></path><path d="M134,210a14.54,14.54,0,0,0-23.64,8,9.44,9.44,0,0,0-15.83,4.59,5.63,5.63,0,0,0-7.3-1.55,11,11,0,0,0-21.76-1.33,7.18,7.18,0,0,0-12.21,5.12c0,.09,0,.17,0,.26H156.63a4.72,4.72,0,0,0-6.9-1.3,7.44,7.44,0,0,0-10.68-4,14.66,14.66,0,0,0-.66-3.2" style="fill:none;stroke:#263238;stroke-miterlimit:10"></path></g><g id="Palms"><path d="M388.14,173a12.23,12.23,0,0,0-.13,1.32C388,175,388.08,174.12,388.14,173Z" style="fill:#263238"></path><path d="M451.65,169.84l-2.53-6.33,1.89,1.58-3.48-5.38,2.54.63s-9.5-5.7-17.42-7.91c-3.86-1.09-7.5-2.09-10.21-2.84l-4.67-1.28h-2.85l1.9-4.11,5.7,3.48s1.9,2.21,1.9,1.26v-3.48l1.58,1.9.64-1.27,3.16-3.48.64,1.9s0-3.48.63-2.21-.32,3.48.95,3.16,2.22-4.11,2.22-4.11l.95,3.79.31-3.79,2.53,5.06s-1.26-5.38,0-3.48,3.17,5.7,3.17,5.7V138.5l4.12,3.8s-2.22-5.39-.95-4.12a20.57,20.57,0,0,1,2.53,3.48s-1.58-4.11,0-3.48a43,43,0,0,1,5.7,3.8s.31-7.28-7-8.87-12.34-2.53-19.31.95c-1.59.8-2.9,1.52-4,2.2L420,132.8h3.16s-9.18-4.12-7.59-4.12a56.33,56.33,0,0,1,6.33.95l-2.22-2.85,5.7,2.54s-6.65-4.75-5.38-4.75,5.06,1.58,5.06,1.58-7-3.48-5.06-3.48a17.25,17.25,0,0,1,4.78,1.15c-1.33-.51-6.91-2.7-3.83-2.42a34.59,34.59,0,0,1,5.7.95s-6-2.53-4.75-2.53h4.75s-3.49-1.59-2.54-1.59a60.79,60.79,0,0,0,6.65-1.89l-5.06-.64s4.75-2.53,3.8-2.53a33.8,33.8,0,0,1-4.44-1l2.22-1.27h-3.48l3.16-1.9h-4.11l6-1.9-8.23,1.27.32-2.85-7,3.17s.93-2.61,1.22-3.39a24.87,24.87,0,0,1-2.8,3.7s-.63-5.06-.63-4.11-1.59,7-1.59,7-.95-5.38-.95-4.43S408,113.8,408,113.8l-.95,2.54-1.27-1.9V116l-4.43-2.53s3.17,6.33,3.48,7.28-1.26,2.21,0,4.11l-7.91-13.61.63,4.43-4.43-6.65,1.9,7.29-4.43-7,1.58,4.12-4.43-3.8,4.43,6.65-7.28-4.75L387.7,116l-5.39-2.53,3.17,3.16-2.1-.35-1.7-.28-.95,3.16h1.9l-2.53,4.44,2.85-2.54-1.59,3.49,4.44-4.12-2.22,4.43,5.07-3.48-1.59,2.85s4.12-1,3.17-.63-2.53,2.53-2.53,2.53l5.06-1-2.21,2.53,4.43-.31-1.9,1.9,2.34-.43,1.14-.21,1.27,1.59s-5.38,1.89-4.43,1.89,8.23-.63,7,0-4.13,1.68-4.64,1.87c-3.55-1.92-7.45-3.76-9.29-3.76H378.2s7.28,1.89,6,1.89-7.28-1.58-9.81,0a17.07,17.07,0,0,0-4,4c-.45.62-.72,1-.72,1l-1.58,5.07,4.11-2.85-4.43,5.38,3.17-1-1.59,3.48,3.49-4.11s-1.27,3.79,0,2.84a28.47,28.47,0,0,0,2.72-2.61c.78-.82,1.39-1.5,1.39-1.5l3.17-1.9-1.27,3.17,3.8-3.49-1.9,3.8s3.48-4.11,3.48-2.85A54.88,54.88,0,0,1,383,147l4.75-5.38-1.27,3.8,2.22-2.21-.95,6,1.11-1.91,1.1-1.89,2.22-1.26V147l1.9-2.84s-.95,3.48,0,3.16a4.83,4.83,0,0,0,1.62-1.7c.52-.75.91-1.46.91-1.46l1.58.31.32,2.22,1.58-2.22a5.06,5.06,0,0,0,3.17-.63s-3.48,2.85-13.3,7-13.29,5.39-16.14,9.5-6,10.13-6,10.13l3.48-2.85L370,170.79s3.48-6,3.48-5.07v5.07l1.9-6-.32,4.75,3.17-8.86V167c0-1.27,2.85-5.7,2.85-5.7l-.32,3.8,2.85-5.38v2.21l1.9-2.85a10.37,10.37,0,0,0,2.53-.31l.95-.32s-9.49,9.82-12,13.62a43.21,43.21,0,0,0-4.75,9.49,30.35,30.35,0,0,0-.81,4c-.27,1.74-.45,3.29-.45,3.29l1.58.32s2.22-5.7,2.22-4.75v3.8l.6-3.59.66-4,2.22-2.21s-.95,4.43,0,2.53c.62-1.24,1.77-3.42,2.5-4.78.4-.74.66-1.24.66-1.24L383,173v2.84l5.38-6.33s-.1,2-.19,3.43c.16-1.07.44-2.46.68-3.59s.46-2.05.46-2.05,2.22-4.12,2.22-2.85v3.16l1.26-4.43s0,3.17.64,1.9,2.53-7.28,2.53-6.33-.64,3.8,0,2.85,2.85-6.65,2.85-6.65-1.25,4.26-.41,4.07c-1.78,4.1-3.91,9.28-5.92,14.92-4.75,13.3-4.75,17.42-4.75,21.22s1.26,10.44,1.26,8.54,1.27-9.81,1.27-9.81l1.27,5.7,1.58,3.16v-5.38l3.48,8.23s0-6.33.32-5.38,2.53,5.7,2.53,4.43-.32-9.49.32-8.23,1.58,3.8,1.58,3.8v-9.18s1.27,4.75,1.27,3.8V186s1.58,4.43,1.58,3.16.32-6,.32-6,0,7,1.26,3.48a48,48,0,0,0,1.9-7l1.27,4.12s1.9-7,1.9-5.7-.95,10.45,0,9.82.31-3.8.95-.64a50.82,50.82,0,0,1,.63,7.92s.95-4.12.95-2.85-.32,8.55-.32,8.55,1-6,1-2.54a51.81,51.81,0,0,0,.95,8.23s1.27-5.69,1.27-4.11a12.25,12.25,0,0,0,.13,1.42c.33,2.35,1.14,6.18,1.14,6.18V195.17l2.21,6.33v-8.23s.64,6.65.95,5.38-.95-5.7.32-4.43a36.14,36.14,0,0,1,3.48,5.06l-.95-6.65,2.53,4.12-2.21-8.23,5.38,6.33L427,188.52l1.9.31-3.8-10.13s3.49,5.39,3.49,4.44-2.85-8.87-2.85-8.87l2.85,3.8,2.21-3.48v7.91s1.9-5.38,1.9-4.43v7s2.54-6.34,2.54-4.12v9.81l2.53-9.49s.31,7.91.95,6.65,0-1.59.63-1.27c.15.07.27.34.35.69,0-.45.09-.67.28-.37.64.95.64,5.69.64,5.69l1.58-7,1.9,9.81a21.88,21.88,0,0,0,.32-11.39c-1.59-5.7-7.92-13.3-9.82-15.83a64.85,64.85,0,0,0-4.95-5.71c2.52,2.17,7.48,6.34,7.48,6.34l.95-5.07,1.59,6.34.95-1.9,1.58,2.85.63-4.75,2.85,6V167l2.85,7v-4.11l2.85,5.7,2.85,3.8Zm-55.86-35.78h3.94l-1.59.95h4.44L401,136.6l1.9,1.58S399.55,136.09,395.79,134.06ZM412.07,148l.64-6.33H416l-.48.64A43.84,43.84,0,0,0,412.07,148Z" style="fill:#263238"></path><path d="M439.93,190.42a16.77,16.77,0,0,0-.28-3.11A28.25,28.25,0,0,0,439.93,190.42Z" style="fill:#263238"></path><path d="M415.19,105.35a.47.47,0,0,0,.05-.1C415.31,105,415.28,105.11,415.19,105.35Z" style="fill:#263238"></path><path d="M424.77,123.82l.28.11Z" style="fill:#263238"></path><polygon points="406.5 171.3 403.56 289.67 410.6 289.67 408.25 163.68 406.5 171.3" style="fill:#263238"></polygon><path d="M159.62,173a10.1,10.1,0,0,0-.13,1.32C159.49,175,159.55,174.12,159.62,173Z" style="fill:#263238"></path><path d="M223.13,169.84l-2.54-6.33,1.9,1.58L219,159.71l2.53.63s-9.5-5.7-17.41-7.91c-3.86-1.09-7.5-2.09-10.21-2.84l-4.67-1.28H186.4l1.9-4.11,5.7,3.48s1.9,2.21,1.9,1.26v-3.48l1.58,1.9.63-1.27,3.17-3.48.63,1.9s0-3.48.64-2.21-.32,3.48.95,3.16,2.21-4.11,2.21-4.11l.95,3.79.32-3.79,2.53,5.06s-1.26-5.38,0-3.48,3.17,5.7,3.17,5.7V138.5l4.11,3.8s-2.21-5.39-.95-4.12a20.26,20.26,0,0,1,2.54,3.48s-1.59-4.11,0-3.48a43,43,0,0,1,5.7,3.8s.31-7.28-7-8.87-12.35-2.53-19.31.95c-1.59.8-2.9,1.52-4,2.2l-2.31-3.46h3.16s-9.18-4.12-7.6-4.12a56.22,56.22,0,0,1,6.34.95l-2.22-2.85,5.7,2.54s-6.65-4.75-5.38-4.75,5.06,1.58,5.06,1.58-7-3.48-5.06-3.48a17.34,17.34,0,0,1,4.78,1.15c-1.33-.51-6.91-2.7-3.83-2.42a34.31,34.31,0,0,1,5.69.95s-6-2.53-4.74-2.53h4.74s-3.48-1.59-2.53-1.59a60.79,60.79,0,0,0,6.65-1.89l-5.07-.64s4.75-2.53,3.8-2.53a33.58,33.58,0,0,1-4.43-1l2.22-1.27h-3.48l3.16-1.9h-4.11l6-1.9-8.23,1.27.32-2.85-7,3.17s.93-2.61,1.22-3.39a24.87,24.87,0,0,1-2.8,3.7s-.64-5.06-.64-4.11-1.58,7-1.58,7-1-5.38-1-4.43-1.26,6.33-1.26,6.33l-.95,2.54-1.27-1.9V116l-4.43-2.53s3.16,6.33,3.48,7.28-1.27,2.21,0,4.11l-7.92-13.61.64,4.43-4.43-6.65,1.9,7.29-4.44-7,1.59,4.12-4.44-3.8,4.44,6.65-7.29-4.75,2.85,4.43-5.38-2.53,3.17,3.16-2.11-.35-1.69-.28-.95,3.16h1.9l-2.53,4.44,2.84-2.54-1.58,3.49,4.43-4.12-2.21,4.43,5.06-3.48-1.58,2.85s4.12-1,3.17-.63-2.54,2.53-2.54,2.53l5.07-1L162,127.73l4.44-.31-1.9,1.9,2.34-.43,1.14-.21,1.26,1.59s-5.38,1.89-4.43,1.89,8.23-.63,7,0-4.13,1.68-4.65,1.87c-3.54-1.92-7.45-3.76-9.28-3.76h-8.23s7.28,1.89,6,1.89-7.28-1.58-9.81,0a16.88,16.88,0,0,0-4,4c-.45.62-.72,1-.72,1l-1.59,5.07,4.12-2.85-4.43,5.38,3.16-1-1.58,3.48,3.48-4.11s-1.26,3.79,0,2.84a29.66,29.66,0,0,0,2.73-2.61c.78-.82,1.39-1.5,1.39-1.5l3.17-1.9-1.27,3.17,3.8-3.49-1.9,3.8s3.48-4.11,3.48-2.85a54.5,54.5,0,0,1-1.27,6.33l4.75-5.38-1.26,3.8,2.21-2.21-1,6,1.12-1.91,1.1-1.89,2.22-1.26V147l1.9-2.84s-.95,3.48,0,3.16a4.92,4.92,0,0,0,1.62-1.7c.51-.75.91-1.46.91-1.46l1.58.31.32,2.22,1.58-2.22a5.08,5.08,0,0,0,3.17-.63s-3.49,2.85-13.3,7-13.3,5.39-16.15,9.5-6,10.13-6,10.13l3.48-2.85-1.27,3.17s3.49-6,3.49-5.07v5.07l1.9-6-.32,4.75,3.17-8.86V167c0-1.27,2.85-5.7,2.85-5.7l-.32,3.8,2.85-5.38v2.21l1.9-2.85a10.37,10.37,0,0,0,2.53-.31l.95-.32s-9.5,9.82-12,13.62a42.76,42.76,0,0,0-4.75,9.49,30.35,30.35,0,0,0-.81,4c-.27,1.74-.46,3.29-.46,3.29l1.59.32s2.21-5.7,2.21-4.75v3.8l.6-3.59.67-4,2.22-2.21s-1,4.43,0,2.53c.61-1.24,1.77-3.42,2.5-4.78l.66-1.24,1.58-1.89v2.84l5.39-6.33s-.1,2-.19,3.43c.16-1.07.44-2.46.68-3.59s.46-2.05.46-2.05,2.21-4.12,2.21-2.85v3.16l1.27-4.43s0,3.17.63,1.9,2.53-7.28,2.53-6.33-.63,3.8,0,2.85,2.85-6.65,2.85-6.65-1.25,4.26-.4,4.07c-1.79,4.1-3.91,9.28-5.93,14.92-4.75,13.3-4.75,17.42-4.75,21.22s1.27,10.44,1.27,8.54,1.27-9.81,1.27-9.81l1.26,5.7,1.59,3.16v-5.38l3.48,8.23s0-6.33.31-5.38,2.54,5.7,2.54,4.43-.32-9.49.31-8.23,1.59,3.8,1.59,3.8v-9.18s1.26,4.75,1.26,3.8V186s1.59,4.43,1.59,3.16.31-6,.31-6,0,7,1.27,3.48a48,48,0,0,0,1.9-7l1.27,4.12s1.89-7,1.89-5.7-.94,10.45,0,9.82.32-3.8.95-.64a50,50,0,0,1,.64,7.92s.95-4.12.95-2.85-.32,8.55-.32,8.55.95-6,.95-2.54a51.81,51.81,0,0,0,1,8.23s1.27-5.69,1.27-4.11a12.25,12.25,0,0,0,.13,1.42c.33,2.35,1.13,6.18,1.13,6.18V195.17l2.22,6.33v-8.23s.63,6.65.95,5.38-.95-5.7.32-4.43a37.07,37.07,0,0,1,3.48,5.06l-1-6.65,2.53,4.12-2.21-8.23,5.38,6.33-2.22-6.33,1.9.31-3.8-10.13s3.48,5.39,3.48,4.44-2.85-8.87-2.85-8.87l2.85,3.8,2.22-3.48v7.91s1.9-5.38,1.9-4.43v7s2.53-6.34,2.53-4.12v9.81l2.54-9.49s.31,7.91,1,6.65,0-1.59.63-1.27c.15.07.26.34.35.69,0-.45.09-.67.28-.37.63.95.63,5.69.63,5.69l1.59-7,1.9,9.81a21.82,21.82,0,0,0,.31-11.39c-1.58-5.7-7.91-13.3-9.81-15.83a63.3,63.3,0,0,0-5-5.71c2.53,2.17,7.49,6.34,7.49,6.34l.95-5.07,1.58,6.34.95-1.9,1.59,2.85.63-4.75,2.85,6V167l2.85,7v-4.11l2.85,5.7,2.85,3.8Zm-55.86-35.78h3.93l-1.58.95h4.43l-1.58,1.59,1.9,1.58S171,136.09,167.27,134.06ZM183.55,148l.63-6.33h3.34c-.17.21-.33.42-.49.64A43.18,43.18,0,0,0,183.55,148Z" style="fill:#263238"></path><path d="M211.41,190.42a16.77,16.77,0,0,0-.28-3.11A28.25,28.25,0,0,0,211.41,190.42Z" style="fill:#263238"></path><path d="M186.67,105.35s0-.07.05-.1C186.79,105,186.76,105.11,186.67,105.35Z" style="fill:#263238"></path><path d="M196.25,123.82l.28.11Z" style="fill:#263238"></path><polygon points="177.97 171.3 175.04 289.67 182.07 289.67 179.73 163.68 177.97 171.3" style="fill:#263238"></polygon><path d="M322.74,127.54a10.1,10.1,0,0,0-.13,1.32C322.61,129.56,322.67,128.71,322.74,127.54Z" style="fill:#263238"></path><path d="M386.25,124.43l-2.54-6.33,1.9,1.58-3.48-5.38,2.53.63s-9.5-5.7-17.41-7.92c-3.86-1.08-7.5-2.08-10.21-2.83l-4.67-1.28h-2.85l1.9-4.12,5.7,3.49s1.9,2.21,1.9,1.26v-3.48l1.58,1.9.63-1.27,3.17-3.48.63,1.9s0-3.48.64-2.22-.32,3.49.95,3.17,2.21-4.12,2.21-4.12l.95,3.8.32-3.8,2.53,5.07s-1.26-5.38,0-3.48,3.17,5.7,3.17,5.7V93.08l4.11,3.8s-2.21-5.38-1-4.11a19.86,19.86,0,0,1,2.54,3.48s-1.59-4.12,0-3.48a43,43,0,0,1,5.7,3.8s.31-7.28-7-8.87-12.35-2.53-19.31,1c-1.59.8-2.9,1.52-4,2.2l-2.31-3.46h3.16s-9.18-4.12-7.6-4.12a56.22,56.22,0,0,1,6.34,1l-2.22-2.85L360,83.9s-6.65-4.75-5.38-4.75,5.06,1.59,5.06,1.59-7-3.49-5.06-3.49a17,17,0,0,1,4.78,1.16c-1.33-.51-6.91-2.7-3.83-2.42a33.06,33.06,0,0,1,5.69,1s-6-2.53-4.74-2.53h4.74s-3.48-1.59-2.53-1.59a60.54,60.54,0,0,0,6.65-1.9l-5.07-.63s4.75-2.53,3.8-2.53a33.58,33.58,0,0,1-4.43-1l2.22-1.27h-3.48l3.16-1.9h-4.11l6-1.9L355.22,63l.32-2.85-7,3.16s.93-2.6,1.22-3.38a24.87,24.87,0,0,1-2.8,3.7s-.64-5.06-.64-4.11-1.58,7-1.58,7-.95-5.38-.95-4.43-1.26,6.33-1.26,6.33l-.95,2.53L340.34,69v1.59l-4.43-2.54s3.16,6.34,3.48,7.28-1.27,2.22,0,4.12l-7.91-13.61.63,4.43-4.43-6.65,1.9,7.28-4.44-7,1.59,4.11-4.44-3.8,4.44,6.65-7.29-4.75,2.85,4.44-5.38-2.54,3.17,3.17L318,70.89l-1.69-.28-.95,3.16h1.9L314.7,78.2l2.85-2.53L316,79.15,320.39,75l-2.21,4.43L323.24,76l-1.58,2.85a28.52,28.52,0,0,1,3.17-.64c-.95.32-2.54,2.54-2.54,2.54l5.07-.95-2.22,2.53,4.44-.32-1.9,1.9,2.34-.42,1.14-.21,1.26,1.58s-5.38,1.9-4.43,1.9,8.23-.63,7,0-4.13,1.68-4.65,1.86c-3.54-1.91-7.45-3.76-9.28-3.76H312.8s7.28,1.9,6,1.9-7.28-1.58-9.81,0a16.88,16.88,0,0,0-4,4c-.45.62-.72,1-.72,1l-1.58,5.06L306.78,94l-4.43,5.39,3.16-1L303.93,102l3.48-4.12s-1.26,3.8,0,2.85a29.66,29.66,0,0,0,2.73-2.61c.78-.83,1.39-1.5,1.39-1.5l3.17-1.9-1.27,3.16,3.8-3.48-1.9,3.8s3.48-4.12,3.48-2.85a54.88,54.88,0,0,1-1.26,6.33l4.74-5.38-1.26,3.8,2.21-2.22-.95,6,1.12-1.91,1.1-1.89,2.22-1.27v2.85l1.9-2.85s-.95,3.49,0,3.17a4.92,4.92,0,0,0,1.62-1.7c.51-.75.91-1.47.91-1.47l1.58.32.32,2.22,1.58-2.22a5.08,5.08,0,0,0,3.17-.63s-3.49,2.85-13.3,7-13.3,5.38-16.15,9.5a117.54,117.54,0,0,0-6,10.13l3.48-2.85-1.27,3.17s3.49-6,3.49-5.07v5.07l1.9-6-.32,4.75,3.17-8.86v6.33c0-1.27,2.85-5.7,2.85-5.7l-.32,3.8,2.85-5.38v2.21l1.9-2.85a10.37,10.37,0,0,0,2.53-.31l.95-.32s-9.5,9.81-12,13.61a43,43,0,0,0-4.75,9.5,30.35,30.35,0,0,0-.81,4c-.27,1.74-.46,3.29-.46,3.29l1.59.32s2.21-5.7,2.21-4.75v3.8l.6-3.59.67-4L312.8,133s-.95,4.44,0,2.54c.62-1.24,1.77-3.42,2.5-4.79l.66-1.23,1.59-1.9v2.85l5.38-6.33s-.1,2-.19,3.43c.16-1.08.44-2.46.68-3.59s.46-2.06.46-2.06,2.21-4.11,2.21-2.85v3.17l1.27-4.43s0,3.16.63,1.9,2.54-7.28,2.54-6.33-.64,3.8,0,2.85,2.84-6.65,2.84-6.65-1.25,4.26-.4,4.07c-1.78,4.1-3.91,9.28-5.93,14.92-4.75,13.3-4.75,17.42-4.75,21.21s1.27,10.45,1.27,8.55,1.27-9.81,1.27-9.81l1.26,5.7,1.59,3.16V152l3.48,8.23s0-6.33.32-5.38,2.53,5.7,2.53,4.43-.32-9.5.31-8.23,1.59,3.8,1.59,3.8v-9.18s1.26,4.75,1.26,3.8v-8.87s1.59,4.44,1.59,3.17.31-6,.31-6,0,7,1.27,3.49a48.31,48.31,0,0,0,1.9-7l1.27,4.12s1.9-7,1.9-5.7-1,10.45,0,9.81.31-3.8.94-.63a49.94,49.94,0,0,1,.64,7.91s.95-4.11.95-2.85-.32,8.55-.32,8.55.95-6,.95-2.53a51.81,51.81,0,0,0,.95,8.23s1.27-5.7,1.27-4.11a12.25,12.25,0,0,0,.13,1.42c.33,2.35,1.13,6.17,1.13,6.17V149.75l2.22,6.34v-8.24s.63,6.65,1,5.39-1-5.7.32-4.44a37.63,37.63,0,0,1,3.48,5.07l-.95-6.65,2.53,4.12-2.21-8.23,5.38,6.33-2.22-6.33,1.9.31-3.8-10.13s3.48,5.38,3.48,4.43-2.85-8.86-2.85-8.86l2.85,3.8,2.22-3.48v7.91s1.9-5.38,1.9-4.43v7s2.53-6.33,2.53-4.11v9.81l2.54-9.5s.31,7.92.95,6.65,0-1.58.63-1.26c.15.07.26.34.35.69,0-.45.09-.67.28-.38.63.95.63,5.7.63,5.7l1.59-7,1.9,9.81a21.85,21.85,0,0,0,.31-11.4c-1.58-5.7-7.91-13.29-9.81-15.83a64.55,64.55,0,0,0-5-5.7c2.53,2.17,7.49,6.34,7.49,6.34l.95-5.07,1.59,6.33.94-1.9,1.59,2.85.63-4.75,2.85,6v-5.38l2.85,7v-4.11l2.85,5.7,2.85,3.79ZM330.39,88.65h3.93l-1.58.95h4.43l-1.58,1.58,1.9,1.59S334.15,90.68,330.39,88.65Zm16.28,13.93.63-6.33h3.34l-.49.63A43.67,43.67,0,0,0,346.67,102.58Z" style="fill:#263238"></path><path d="M374.53,145a16.77,16.77,0,0,0-.28-3.11A28.25,28.25,0,0,0,374.53,145Z" style="fill:#263238"></path><path d="M349.79,59.94s0-.07,0-.1C349.91,59.62,349.88,59.7,349.79,59.94Z" style="fill:#263238"></path><path d="M359.37,78.41l.28.11Z" style="fill:#263238"></path><polygon points="341.09 125.88 338.16 289.67 345.19 289.67 342.85 118.27 341.09 125.88" style="fill:#263238"></polygon></g><g id="Stairs"><line x1="457.92" y1="399" x2="466" y2="399" style="fill:none;stroke:#263238;stroke-linecap:round;stroke-linejoin:round"></line><polyline points="457 290 135 290 135 312 111 312 111 338 78 338 78 368 49 368 49 399 447.77 399" style="fill:none;stroke:#263238;stroke-linecap:round;stroke-linejoin:round"></polyline><line x1="135" y1="312" x2="443" y2="312" style="fill:none;stroke:#263238;stroke-linecap:round;stroke-linejoin:round"></line><line x1="446.24" y1="338" x2="453" y2="338" style="fill:none;stroke:#263238;stroke-linecap:round;stroke-linejoin:round"></line><line x1="111" y1="338" x2="432.03" y2="338" style="fill:none;stroke:#263238;stroke-linecap:round;stroke-linejoin:round"></line><line x1="78" y1="368" x2="455" y2="368" style="fill:none;stroke:#263238;stroke-linecap:round;stroke-linejoin:round"></line><path d="M154.13,233.89a3,3,0,0,0-4.24,0L27.19,355.26a3,3,0,1,0,4.22,4.27l3.09-3.06v43.19a3,3,0,0,0,6,0V350.54l24.55-24.29V368h6V320.31l24-23.73V338h6V290.65l19.58-19.38v41.12h6V265.34L143,249.12V290h6V243.19l5.11-5.06A3,3,0,0,0,154.13,233.89Z" style="fill:#263238"></path></g><g id="Character"><ellipse cx="268.5" cy="452.5" rx="80.5" ry="30.5" style="fill:#92E3A9"></ellipse><ellipse cx="268.5" cy="452.5" rx="80.5" ry="30.5" style="fill:#fff;opacity:0.5"></ellipse><path d="M232.73,277a408,408,0,0,1-44.46,13.58c-22.62,5.31-29.7,9-32.45,15.34s-1,27.54,26.94,25.37,48.59-12.19,54.49-13.77,28.92-9.44,28.92-9.44,7.27-4.33,3.34-18.49-11-18.69-20.26-17.7A47.23,47.23,0,0,0,232.73,277Z" style="fill:#757575;stroke:#263238;stroke-linecap:round;stroke-linejoin:round"></path><ellipse cx="189.75" cy="332.6" rx="8.65" ry="5.7" transform="translate(-43 28.53) rotate(-7.73)" style="fill:#92E3A9;stroke:#263238;stroke-linecap:round;stroke-linejoin:round"></ellipse><rect x="174.87" y="310.54" width="13.79" height="9.08" rx="1.48" transform="translate(-19.34 11.98) rotate(-3.58)" style="fill:#263238;stroke:#263238;stroke-linecap:round;stroke-linejoin:round"></rect><path d="M187,301.2S187,311,187,312s-6.25,1.8-7.71,1.89-1.11,1.8-.43,2.14,6.6.6,7.46,1.2a3.37,3.37,0,0,1,1,2l1.19,10.37,1.8-.17L188.92,301Z" style="fill:#fff;stroke:#263238;stroke-linecap:round;stroke-linejoin:round"></path><ellipse cx="188.55" cy="299.45" rx="8.65" ry="5.7" transform="translate(-38.55 28.07) rotate(-7.73)" style="fill:#92E3A9;stroke:#263238;stroke-linecap:round;stroke-linejoin:round"></ellipse><path d="M190.65,297.47c.12.92-.84,1.8-2.16,2s-2.47-.42-2.6-1.33.84-1.8,2.15-2S190.52,296.56,190.65,297.47Z" style="fill:#fff;stroke:#263238;stroke-linecap:round;stroke-linejoin:round"></path><path d="M226.43,220.94s.2,14.95-1.38,20.26-2,14.36-.78,21.44.19,24,.19,24l3.94-1.57s6.49-33.24,6.88-46.23.4-19.47.4-19.47S228.6,216,226.43,220.94Z" style="fill:#fff;stroke:#263238;stroke-linecap:round;stroke-linejoin:round"></path><path d="M237.59,155.36s-7.72,2.77-10,5.4-5.1,28.24-11.27,41.81-6.79,15.13-6.79,15.13,9.72,6.32,15.9,7.4a50,50,0,0,0,10.8.77s-1.24-25.77-.47-41.35a95.44,95.44,0,0,1,5.56-27.62Z" style="fill:#92E3A9;stroke:#263238;stroke-linecap:round;stroke-linejoin:round"></path><path d="M230.49,431.25s-11.11,6.17-18.52,9.26-6.79,6.79-2,8.64,9.11,4.47,17,2,11.88-6.49,17-7,10.8.31,12-4.32-17.13-10.18-19.29-10.34Z" style="fill:#92E3A9;stroke:#263238;stroke-linecap:round;stroke-linejoin:round"></path><path d="M256,439.89a2.35,2.35,0,0,0-.57-2c-1.06.74-2.44,1.66-4.22,2.78-5.86,3.71-8.17,0-14.35,3.4s-10.49,5.24-19.13,5.24a15.49,15.49,0,0,1-11.18-4.46c-.51,1.72.84,3.29,3.46,4.31,4.79,1.85,9.11,4.47,17,2s11.88-6.49,17-7S254.71,444.52,256,439.89Z" style="fill:#fff;stroke:#263238;stroke-linecap:round;stroke-linejoin:round"></path><path d="M294.08,449.92a72.23,72.23,0,0,1,4.63,12.5c2.16,7.71,10.18,13.27,17.74,12s10.19-3.7,8.8-10.18-5.71-15.12-5.71-15.12a14.88,14.88,0,0,0-3.55-3.24C313.52,444.21,299.79,443.29,294.08,449.92Z" style="fill:#92E3A9;stroke:#263238;stroke-linecap:round;stroke-linejoin:round"></path><path d="M324.19,460.41c.08,1.34.13,2.7.13,3.86,0,3.86-1.39,7.41-7.4,7.41S304,468.9,302.1,465s-7.1-15.27-7.1-15.27l-.68-.09a2.72,2.72,0,0,0-.24.24,72.23,72.23,0,0,1,4.63,12.5c2.16,7.71,10.18,13.27,17.74,12s10.19-3.7,8.8-10.18C325,463,324.61,461.73,324.19,460.41Z" style="fill:#fff;stroke:#263238;stroke-linecap:round;stroke-linejoin:round"></path><path d="M304.52,175.11s15,2.56,18.88,8.46,5.12,32.06,7.09,40.72-.79,7.86-.79,8.65,7.47,14.95,2.95,22-10.82,13.38-23.41,14.36-15.14-2.56-18.88-13-.2-73-.2-80.65S304.52,175.11,304.52,175.11Z" style="fill:#263238;stroke:#263238;stroke-linecap:round;stroke-linejoin:round"></path><path d="M226,280.81s-2.47,28.39-2.47,46.9,6.64,56.32,7.87,63.88,2.32,23.15,1.08,25.31-6.32,4.78-4.93,7.41,2.93,4.93,2.93,5.4a20.77,20.77,0,0,1-1.7,3.24,32.47,32.47,0,0,1,9.26,3.7c3.7,2.47,14.35,6.94,17.43,6.48s5.25-3.24,4.63-5.86-3.39-6.48-3.24-7.1,3.09-5.71,2.93-7.56-4.16-12.19-4.16-12.19-1.74-37-1.74-54.77,1.45-47.53,1.45-47.53l2.14.31s1.7,16.35,7.41,44.59,9.25,38.73,13.27,43.51,3.26,19.75,6.19,25.92,3.39,9.26,3.39,9.73-6.32,7.4-4.16,9.41,10.49,9,10.49,9,9.57-1.39,15.58-1.7,9.88-.15,9.88-.15,3.08-6.79,2.62-9.26-10.65-11.73-10.65-11.73,5.1-4.47,2.94-8.64-9.42-9.57-11.58-12.5-3.87-31.17-5.72-37.49-2.62-50.44-2.62-51.52a118.37,118.37,0,0,1,1.54-17.15c1.54-10.65,1.85-17.13,1.85-17.59s-24.85,2.78-45.68-.92-23.6-4.48-23.6-4.48A6.58,6.58,0,0,0,226,280.81Z" style="fill:#263238;stroke:#263238;stroke-linecap:round;stroke-linejoin:round"></path><path d="M309.51,422.15s-15.59,7.87-13,8,8.48-.31,8.48-.31" style="fill:none;stroke:#696969;stroke-linecap:round;stroke-linejoin:round"></path><path d="M317.53,441.74s-26.38,1.7-21.45,2.16,11,1.7,11,1.7" style="fill:none;stroke:#696969;stroke-linecap:round;stroke-linejoin:round"></path><path d="M254.87,417.83s-22.07,5.71-15.28,5.71a61.11,61.11,0,0,0,13.73-1.86" style="fill:none;stroke:#696969;stroke-linecap:round;stroke-linejoin:round"></path><path d="M252.71,434.49s-19-5.4-15.28-2.93,11.42,5.25,11.42,5.25" style="fill:none;stroke:#696969;stroke-linecap:round;stroke-linejoin:round"></path><path d="M251,133.65s1.47,8-.33,12.76-11.12,8.18-12.59,8.83-3.93,8.84-4.91,12.76-3.44,26.17-1.47,40.73-1.64,37-2.29,48.59a179,179,0,0,1-3.6,24.7s10,7,34.19,7S297.16,285,297.16,285s1.84-3.85,1.63-23.23c-.3-29.28-.49-38.77-.81-65.92s-.82-36.48-3.6-39.26-10.31-3.11-16.2-4.25-9.32-4.75-9.32-10.8,1.8-22.74,1.8-22.74S258.23,128.74,251,133.65Z" style="fill:#92E3A9;stroke:#263238;stroke-linecap:round;stroke-linejoin:round"></path><line x1="253.18" y1="194.59" x2="251.61" y2="205.01" style="fill:none;stroke:#263238;stroke-linecap:round;stroke-linejoin:round"></line><line x1="251.22" y1="193.8" x2="247.09" y2="212.68" style="fill:none;stroke:#263238;stroke-linecap:round;stroke-linejoin:round"></line><line x1="279.54" y1="194.19" x2="281.11" y2="207.96" style="fill:none;stroke:#263238;stroke-linecap:round;stroke-linejoin:round"></line><line x1="276.98" y1="194.59" x2="276.2" y2="206.19" style="fill:none;stroke:#263238;stroke-linecap:round;stroke-linejoin:round"></line><path d="M280.31,90.63a21.08,21.08,0,0,0,9.32,8.67c6.71,3.27,15.05,2.45,15.05,2.45a18.26,18.26,0,0,1-4.41,5.56c-3.28,3-11,2.13-11,2.13s.81,2.29,2.29,2.94a16.7,16.7,0,0,0,3.43,1s.33,4.25-2.12,7-10.15,2.78-10.15,2.78,2.78,8.83-3.1,14.07-13.75,1.14-13.75,1.14a82.6,82.6,0,0,1-12.1,4.42c-4.91,1.15-12.92-3.43-12.92-3.43s8-2.62,8.18-6.71,0-8.51,0-8.51,11.12-.16,17-5.07,7.85-26.83,7.36-30.26L273,85.39S279,87.36,280.31,90.63Z" style="fill:#92E3A9;stroke:#263238;stroke-linecap:round;stroke-linejoin:round"></path><path d="M277.45,152.13c-5.44-1.29-8.59-4.83-8.59-10.63,0-6.05,1.8-22.74,1.8-22.74s-12.43,10-19.63,14.89c0,0,1.47,8-.33,12.76-1.28,3.37-6.34,6.07-9.7,7.59,2.16,3.42,6.87,8.58,16.25,10.08C267.83,165.76,274.6,156.93,277.45,152.13Z" style="fill:#263238;stroke:#263238;stroke-linecap:round;stroke-linejoin:round"></path><path d="M274.37,151c-3.53-1.77-5.51-4.94-5.51-9.54,0-6.05,1.8-22.74,1.8-22.74s-12.43,10-19.63,14.89c0,0,1.47,8-.33,12.76-.89,2.34-3.61,4.36-6.31,5.89,1.91,3.28,6.66,9.07,15.8,7.52C268.79,158.37,272.73,153.8,274.37,151Z" style="fill:#fff;stroke:#263238;stroke-linecap:round;stroke-linejoin:round"></path><path d="M269.65,129.12c.48-5.45,1-10.36,1-10.36s-12.43,10-19.63,14.89a40.75,40.75,0,0,1,.55,7.45,7,7,0,0,0,1.3,0C257.65,140.36,265.29,133.77,269.65,129.12Z" style="fill:#263238;stroke:#263238;stroke-linecap:round;stroke-linejoin:round"></path><path d="M232.05,88.18s.66,20.93,2.62,31.89,11.78,18.32,17.34,17.51,15.05-9.66,18.65-14.07,3.6-8.34,3.6-8.34a3.63,3.63,0,0,0,3.76-2.79c1-3.1-.33-24.86-.33-24.86S257.08,76.56,232.05,88.18Z" style="fill:#fff;stroke:#263238;stroke-linecap:round;stroke-linejoin:round"></path><path d="M265.59,105.68s1.47.49,0,3.11a15.34,15.34,0,0,1-2.78,3.76l5.39-2.13-.81,3.76a6.2,6.2,0,0,0,4.58-2.61,11.31,11.31,0,0,0,2.12-5.56Z" style="fill:#92E3A9;stroke:#263238;stroke-linecap:round;stroke-linejoin:round"></path><path d="M246,95.54s1.8,3.92,1.8,5.39-3.11,11.45-3.11,11.45,1.8,3.93,8.67.66" style="fill:none;stroke:#263238;stroke-linecap:round;stroke-linejoin:round"></path><path d="M242.2,103.8c0,1.4-.63,2.53-1.39,2.53s-1.4-1.13-1.4-2.53.63-2.54,1.4-2.54S242.2,102.4,242.2,103.8Z" style="fill:#263238"></path><ellipse cx="258.31" cy="102.82" rx="1.39" ry="2.54" style="fill:#263238"></ellipse><path d="M243.83,94.39s-5.4-1.63-7.2,3.11" style="fill:none;stroke:#263238;stroke-linecap:round;stroke-linejoin:round"></path><path d="M249.39,119.58s-.49,4.91,1,7.85" style="fill:none;stroke:#263238;stroke-linecap:round;stroke-linejoin:round"></path><path d="M249.39,84.41s5.73,18.32,18.16,22.74,20.28-9,20.28-9l-8.5-2.94,4.58.16a60.18,60.18,0,0,0-4.58-7.85c-3.27-4.91-11.29-4.91-19.47-5.89" style="fill:#92E3A9;stroke:#263238;stroke-linecap:round;stroke-linejoin:round"></path><path d="M230.72,74.59l-.14,17s9.49-7.2,25.36-6,26,5.56,26,5.56l-1.28-15.49a9,9,0,0,0-4.32-6.92c-4.33-2.6-11.78-6.38-20.09-7.53-9.4-1.29-18.47,4.52-22.83,7.88A7.08,7.08,0,0,0,230.72,74.59Z" style="fill:#263238;stroke:#263238;stroke-linecap:round;stroke-linejoin:round"></path><path d="M238.76,83.76l12.6-2.46a7.39,7.39,0,0,0-7.2-3.92C239.09,77.87,238.76,83.76,238.76,83.76Z" style="fill:#92E3A9;stroke:#263238;stroke-linecap:round;stroke-linejoin:round"></path><path d="M252,94.23s4.09-4.09,9.49,1.14" style="fill:none;stroke:#263238;stroke-linecap:round;stroke-linejoin:round"></path><circle cx="234.67" cy="126.45" r="13.9" style="fill:#92E3A9"></circle><path d="M284.57,182.75A3.51,3.51,0,0,0,286,180c.24-10.78,1-21.75,1.42-26.21-2.23-.43-4.67-.74-7-1.11-.34,4.15-1.23,15.75-1.48,27.16a3.52,3.52,0,0,0,2.51,3.45,38.79,38.79,0,0,0,1.34,8,293.19,293.19,0,0,1-50.1-1.84c.26-2.31.55-4.52.86-6.32a3.48,3.48,0,0,0,2-2.6c1.87-11.39,4.41-22.9,5.24-26.58a73.68,73.68,0,0,1-7.82,2.68c-1.17,5.42-3,14.12-4.38,22.76a3.52,3.52,0,0,0,2.58,4,75.78,75.78,0,0,0,.29,21.05s.39-6.28,1-12.61A283.05,283.05,0,0,0,268.67,194c4.65,0,9.63-.11,14.83-.36a33.23,33.23,0,0,0,10.56,15.26v-2.62S286.53,199.42,284.57,182.75Z" style="fill:#263238"></path><path d="M321.22,210.91s1.08,2.31-.93,7.25-5.55,8.33-13.58,9.87-12.8.31-13.11-1.69,1.39-6.18,7.71-11.89S321.22,210.91,321.22,210.91Z" style="fill:#92E3A9;stroke:#263238;stroke-linecap:round;stroke-linejoin:round"></path><path d="M315.82,210.6s6.32,16.82,6.32,19.29-16.82,47.52-19.9,53.54-7.72,8.95-9.57,11.42a35,35,0,0,1-2.62,3.24l-7.41-8s-5.71,6.48-7.25,6.79-3.7-3.24-2.32-3.7,6.18-8.18,6.18-8.18a5.67,5.67,0,0,1,3.39-3.24c2.62-.92,10.49-2.78,12-4.17s5.55-33.32,6.79-38.11,2-9.56,2-9.56l-4-10.65S307.33,212.6,315.82,210.6Z" style="fill:#fff;stroke:#263238;stroke-linecap:round;stroke-linejoin:round"></path><path d="M287.4,153.8s10.05-.14,12.68,1.87,3.86,10.49,7.4,23.6,13.74,31.64,13.74,31.64S299,221.71,296.68,223.4a12.5,12.5,0,0,0-3.08,2.94l-6.18-42" style="fill:#92E3A9;stroke:#263238;stroke-linecap:round;stroke-linejoin:round"></path></g></svg>