<svg xmlns="http://www.w3.org/2000/svg" viewBox="0 0 500 500"><g id="background-simple"><path d="M411.79,118.07q-4.47-2-8.88-4.1C371.21,98.85,223.27,30.61,167.76,47.3,105.44,66,.71,287.92,44.16,342.42S275.41,474.56,318.53,451.09s137.82-224.33,138.8-270.28C458.18,141.59,422.3,122.74,411.79,118.07Z" style="fill:#92E3A9"></path><path d="M411.79,118.07q-4.47-2-8.88-4.1C371.21,98.85,223.27,30.61,167.76,47.3,105.44,66,.71,287.92,44.16,342.42S275.41,474.56,318.53,451.09s137.82-224.33,138.8-270.28C458.18,141.59,422.3,122.74,411.79,118.07Z" style="fill:#fff;opacity:0.7000000000000001"></path></g><g id="Device"><rect x="370.59" y="342.2" width="93.95" height="32.9" style="fill:#fff;stroke:#263238;stroke-linecap:round;stroke-linejoin:round"></rect><rect x="373.72" y="345.63" width="4.3" height="4.3" style="fill:#fff;stroke:#263238;stroke-linecap:round;stroke-linejoin:round"></rect><rect x="380.29" y="345.63" width="4.3" height="4.3" style="fill:#fff;stroke:#263238;stroke-linecap:round;stroke-linejoin:round"></rect><rect x="386.85" y="345.63" width="4.3" height="4.3" style="fill:#fff;stroke:#263238;stroke-linecap:round;stroke-linejoin:round"></rect><rect x="393.42" y="345.63" width="4.3" height="4.3" style="fill:#fff;stroke:#263238;stroke-linecap:round;stroke-linejoin:round"></rect><rect x="399.99" y="345.63" width="4.3" height="4.3" style="fill:#fff;stroke:#263238;stroke-linecap:round;stroke-linejoin:round"></rect><rect x="406.55" y="345.63" width="4.3" height="4.3" style="fill:#fff;stroke:#263238;stroke-linecap:round;stroke-linejoin:round"></rect><rect x="413.12" y="345.63" width="4.3" height="4.3" style="fill:#fff;stroke:#263238;stroke-linecap:round;stroke-linejoin:round"></rect><rect x="419.68" y="345.63" width="4.3" height="4.3" style="fill:#fff;stroke:#263238;stroke-linecap:round;stroke-linejoin:round"></rect><rect x="426.25" y="345.63" width="4.3" height="4.3" style="fill:#fff;stroke:#263238;stroke-linecap:round;stroke-linejoin:round"></rect><rect x="432.82" y="345.63" width="4.3" height="4.3" style="fill:#fff;stroke:#263238;stroke-linecap:round;stroke-linejoin:round"></rect><rect x="439.38" y="345.63" width="4.3" height="4.3" style="fill:#fff;stroke:#263238;stroke-linecap:round;stroke-linejoin:round"></rect><rect x="373.72" y="351.85" width="4.3" height="4.3" style="fill:#fff;stroke:#263238;stroke-linecap:round;stroke-linejoin:round"></rect><rect x="380.29" y="351.85" width="4.3" height="4.3" style="fill:#fff;stroke:#263238;stroke-linecap:round;stroke-linejoin:round"></rect><rect x="386.85" y="351.85" width="4.3" height="4.3" style="fill:#fff;stroke:#263238;stroke-linecap:round;stroke-linejoin:round"></rect><rect x="393.42" y="351.85" width="4.3" height="4.3" style="fill:#fff;stroke:#263238;stroke-linecap:round;stroke-linejoin:round"></rect><rect x="399.99" y="351.85" width="4.3" height="4.3" style="fill:#fff;stroke:#263238;stroke-linecap:round;stroke-linejoin:round"></rect><rect x="406.55" y="351.85" width="4.3" height="4.3" style="fill:#fff;stroke:#263238;stroke-linecap:round;stroke-linejoin:round"></rect><rect x="413.12" y="351.85" width="4.3" height="4.3" style="fill:#fff;stroke:#263238;stroke-linecap:round;stroke-linejoin:round"></rect><rect x="419.68" y="351.85" width="4.3" height="4.3" style="fill:#fff;stroke:#263238;stroke-linecap:round;stroke-linejoin:round"></rect><rect x="426.25" y="351.85" width="4.3" height="4.3" style="fill:#fff;stroke:#263238;stroke-linecap:round;stroke-linejoin:round"></rect><rect x="432.82" y="351.85" width="4.3" height="4.3" style="fill:#fff;stroke:#263238;stroke-linecap:round;stroke-linejoin:round"></rect><rect x="439.38" y="351.85" width="4.3" height="4.3" style="fill:#fff;stroke:#263238;stroke-linecap:round;stroke-linejoin:round"></rect><rect x="373.72" y="358.08" width="4.3" height="4.3" style="fill:#fff;stroke:#263238;stroke-linecap:round;stroke-linejoin:round"></rect><rect x="380.29" y="358.08" width="4.3" height="4.3" style="fill:#fff;stroke:#263238;stroke-linecap:round;stroke-linejoin:round"></rect><rect x="386.85" y="358.08" width="4.3" height="4.3" style="fill:#fff;stroke:#263238;stroke-linecap:round;stroke-linejoin:round"></rect><rect x="393.42" y="358.08" width="4.3" height="4.3" style="fill:#fff;stroke:#263238;stroke-linecap:round;stroke-linejoin:round"></rect><rect x="399.99" y="358.08" width="4.3" height="4.3" style="fill:#fff;stroke:#263238;stroke-linecap:round;stroke-linejoin:round"></rect><rect x="406.55" y="358.08" width="4.3" height="4.3" style="fill:#fff;stroke:#263238;stroke-linecap:round;stroke-linejoin:round"></rect><rect x="413.12" y="358.08" width="4.3" height="4.3" style="fill:#fff;stroke:#263238;stroke-linecap:round;stroke-linejoin:round"></rect><rect x="419.68" y="358.08" width="4.3" height="4.3" style="fill:#fff;stroke:#263238;stroke-linecap:round;stroke-linejoin:round"></rect><rect x="426.25" y="358.08" width="4.3" height="4.3" style="fill:#fff;stroke:#263238;stroke-linecap:round;stroke-linejoin:round"></rect><rect x="432.82" y="358.08" width="4.3" height="4.3" style="fill:#fff;stroke:#263238;stroke-linecap:round;stroke-linejoin:round"></rect><rect x="439.38" y="358.08" width="4.3" height="4.3" style="fill:#fff;stroke:#263238;stroke-linecap:round;stroke-linejoin:round"></rect><rect x="373.72" y="364.31" width="4.3" height="4.3" style="fill:#fff;stroke:#263238;stroke-linecap:round;stroke-linejoin:round"></rect><rect x="380.29" y="364.31" width="4.3" height="4.3" style="fill:#fff;stroke:#263238;stroke-linecap:round;stroke-linejoin:round"></rect><polygon points="416.06 364.31 413.12 364.31 410.85 364.31 406.55 364.31 404.29 364.31 399.99 364.31 397.72 364.31 393.42 364.31 386.85 364.31 386.85 368.61 393.42 368.61 397.72 368.61 399.99 368.61 404.29 368.61 406.55 368.61 410.85 368.61 413.12 368.61 416.06 368.61 417.42 368.61 417.42 364.31 416.06 364.31" style="fill:#fff;stroke:#263238;stroke-linecap:round;stroke-linejoin:round"></polygon><rect x="419.68" y="364.31" width="4.3" height="4.3" style="fill:#fff;stroke:#263238;stroke-linecap:round;stroke-linejoin:round"></rect><rect x="426.25" y="364.31" width="4.3" height="4.3" style="fill:#fff;stroke:#263238;stroke-linecap:round;stroke-linejoin:round"></rect><rect x="432.82" y="364.31" width="4.3" height="4.3" style="fill:#fff;stroke:#263238;stroke-linecap:round;stroke-linejoin:round"></rect><rect x="439.38" y="364.31" width="4.3" height="4.3" style="fill:#fff;stroke:#263238;stroke-linecap:round;stroke-linejoin:round"></rect><rect x="445.99" y="344.95" width="16.08" height="9.51" style="fill:#fff;stroke:#263238;stroke-linecap:round;stroke-linejoin:round"></rect><circle cx="454.02" cy="363.29" r="6.57" style="fill:#fff;stroke:#263238;stroke-linecap:round;stroke-linejoin:round"></circle></g><g id="graphic-3"><rect x="347.44" y="223.75" width="85.28" height="96.25" rx="6.46" style="fill:#fff;stroke:#263238;stroke-linecap:round;stroke-linejoin:round"></rect><rect x="353.04" y="209.23" width="13.09" height="5.41" style="fill:#92E3A9;stroke:#263238;stroke-linecap:round;stroke-linejoin:round"></rect><rect x="404.76" y="269.31" width="72.83" height="5.41" transform="translate(169.17 713.19) rotate(-90)" style="fill:#fff;stroke:#263238;stroke-linecap:round;stroke-linejoin:round"></rect><rect x="434.64" y="299.18" width="13.09" height="5.41" transform="translate(139.29 743.07) rotate(-90)" style="fill:#92E3A9;stroke:#263238;stroke-linecap:round;stroke-linejoin:round"></rect><path d="M392.86,234.1a6.48,6.48,0,0,0-.92-3.79c-1.1-1.43-3.62-1.43-4.71-1a3.56,3.56,0,0,0-2.44,2.44,12.55,12.55,0,0,0-.17,2.78.81.81,0,0,0-.59,1.09,3.43,3.43,0,0,0,.76,1.44s.25,1.17.42,1.68a8.54,8.54,0,0,0,1.09,1.6s.17,1.26-.42,1.68a23.81,23.81,0,0,1-4,1.43,6.41,6.41,0,0,0-4.29,4.71,14.47,14.47,0,0,0-.17,4.12l-.75,4.8a12.75,12.75,0,0,0-.85,4.12c-.08,2.36-.5,7.07-.5,7.07s.5.34-.67.93-1.27,1-1.43,1.43-.26,1.26-.59,1.51-1.43,0-1.27.84,1.35.34,1.35.34l.76-.17v4.29c0,.42.25,1,.67.51,0,0,.42.59.67.33l.41-.23a1.45,1.45,0,0,0,.74.11c.23-.08.7-.73.7-.73s.11.35.55-.17a3.75,3.75,0,0,0,.62-1.61c.11-.44.49-2.84.61-3.25a18.11,18.11,0,0,0,0-2.57l-.09-.94s1.9-5.17,2.23-6.4a28.47,28.47,0,0,0,.79-3.57c.11-1.05.61-3.13.61-3.13l.21-.09s0,4.95-.09,5.59-1,1.84-.91,3.36a27.29,27.29,0,0,1-.58,5,23.56,23.56,0,0,0-.79,8.75,49.15,49.15,0,0,0,2,9.79,13,13,0,0,1,.16,5.64c-.26,2.07.15,3,.88,5.63s2,5.43,2.17,6.47-.31,1.13-.57,1.75-1.66,2.23-1.71,2.9.42,1.19,1.71,1.55,2.22.36,2.84-.46a2.53,2.53,0,0,0,.62-2c-.05-.62-.2-.72,0-1.29a2.77,2.77,0,0,0,.31-1.86c-.15-1-.05-.11-.46-2.12s.05-4.66.05-5.79a35.8,35.8,0,0,0-.26-5.17,11.5,11.5,0,0,1-.46-2.59,21.9,21.9,0,0,1,.1-3.41,10.88,10.88,0,0,0-.26-2.38s1-5.37,1.09-5.58.82-3.78.82-3.78a.62.62,0,0,1,.42.31c.1.26,1.44,9,1.44,9a7.59,7.59,0,0,0-.46,2.33c0,.93.62,3.56.62,3.56s-.41,1.66-.78,4.24.21,5.28.16,6.88a15.51,15.51,0,0,1-.36,3.1,5.15,5.15,0,0,0-.16,2.53l.26.78a10.75,10.75,0,0,0-.15,2.12c.05.93.46,1.55,1.08,1.65a1.14,1.14,0,0,0,1-.46,2.15,2.15,0,0,0,1.61.21c.88-.26,1.5-.63,1.29-1.35a5.49,5.49,0,0,0-.93-2c-.57-.77-.93-.87-1.09-1.8a5.92,5.92,0,0,1,.21-2.85,30.74,30.74,0,0,0,2.28-6.72c.62-3.36.51-3.57.36-4.76a20.75,20.75,0,0,1,.2-5c.26-1.29,2.07-5.95,2.07-9.72a52.55,52.55,0,0,0-1-9.25,21.8,21.8,0,0,1-.36-2.43,5.19,5.19,0,0,0,0-2.33c-.31-1.09-.52-1.5-.78-2.69a29.6,29.6,0,0,1-.46-3.15v-2s1,2.38,1.44,4,.47,2.64,1,4.19,1.6,4.45,1.81,5.07-.26,1.7-.06,3.36.42,4.5.78,4.91.78,0,.78,0,.15.83.46.93.72-.21.72-.21a.43.43,0,0,0,.63.31,1,1,0,0,0,.62-.57s.77.31.67-.72-.36-2.43-.36-2.74.05-1.29.05-1.29a2.36,2.36,0,0,0,.93.46c.41.05.82.47,1.14,0s.05-.62-.52-1a2.65,2.65,0,0,1-1-1.08c-.41-.63-.05-.78-.93-1.56s-1.44-1.13-1.44-1.81.67-4.85.05-7.85-.93-3.78-1-4.24-1-4-1-4a9.39,9.39,0,0,0-.62-6c-1.45-2.74-3.41-2.53-4.91-3.21s-2.69-.82-2.9-1.24a5,5,0,0,1-.31-1.13,10.27,10.27,0,0,0,1.4-2.49l.05-.62s.83-.31,1-1.91S392.86,234.1,392.86,234.1Z" style="fill:#92E3A9"></path><path d="M388.2,306.51c-.15-1-.05-.11-.46-2.12s.05-4.66.05-5.79a35.8,35.8,0,0,0-.26-5.17,11.5,11.5,0,0,1-.46-2.59,2.28,2.28,0,0,1,0-.26h-4.88a19.39,19.39,0,0,1-.22,3.21c-.26,2.07.15,3,.88,5.63s2,5.43,2.17,6.47-.31,1.13-.57,1.75-1.66,2.23-1.71,2.9.42,1.19,1.71,1.55,2.22.36,2.84-.46a2.53,2.53,0,0,0,.62-2c-.05-.62-.2-.72,0-1.29A2.77,2.77,0,0,0,388.2,306.51Z" style="fill:#fff;opacity:0.66"></path><path d="M395.58,290.58h-4.81c0,.19.07.31.07.31s-.41,1.66-.78,4.24.21,5.28.16,6.88a15.51,15.51,0,0,1-.36,3.1,5.15,5.15,0,0,0-.16,2.53l.26.78a10.75,10.75,0,0,0-.15,2.12c.05.93.46,1.55,1.08,1.65a1.14,1.14,0,0,0,1-.46,2.15,2.15,0,0,0,1.61.21c.88-.26,1.5-.63,1.29-1.35a5.49,5.49,0,0,0-.93-2c-.57-.77-.93-.87-1.09-1.8a5.92,5.92,0,0,1,.21-2.85,30.74,30.74,0,0,0,2.28-6.72c.62-3.36.51-3.57.36-4.76A14.26,14.26,0,0,1,395.58,290.58Z" style="fill:#fff;opacity:0.66"></path><line x1="358.14" y1="290.58" x2="424.71" y2="290.58" style="fill:none;stroke:#000;stroke-miterlimit:10"></line><path d="M405.25,239a2.6,2.6,0,0,1-1.37-.32,1.82,1.82,0,0,1-.76-.9,3.82,3.82,0,0,1-.23-1.37v-.31h1.53v.26a3.61,3.61,0,0,0,.08.73.69.69,0,0,0,.76.61.74.74,0,0,0,.52-.16A1,1,0,0,0,406,237a4.38,4.38,0,0,0,.06-.77,2.19,2.19,0,0,0-.22-1.09.91.91,0,0,0-.84-.43h-.26v-1.24H405a1,1,0,0,0,.85-.33,1.79,1.79,0,0,0,.23-1,2,2,0,0,0-.17-.9.7.7,0,0,0-.67-.32.63.63,0,0,0-.64.36,2.36,2.36,0,0,0-.17.92v.34h-1.53v-.44a2.91,2.91,0,0,1,.27-1.31,1.92,1.92,0,0,1,.8-.82,2.65,2.65,0,0,1,1.27-.29,2.69,2.69,0,0,1,1.3.28,2,2,0,0,1,.8.81,2.84,2.84,0,0,1,.27,1.3,2.41,2.41,0,0,1-.33,1.32,1.6,1.6,0,0,1-.86.67,1.49,1.49,0,0,1,.62.38,1.81,1.81,0,0,1,.42.72,3.3,3.3,0,0,1,.15,1.06,4.22,4.22,0,0,1-.23,1.44,1.89,1.89,0,0,1-.75,1A2.42,2.42,0,0,1,405.25,239Z" style="fill:#263238"></path><path d="M411,239a2.32,2.32,0,0,1-1.31-.34,2,2,0,0,1-.78-.92,3.27,3.27,0,0,1-.26-1.36v-4a3.52,3.52,0,0,1,.25-1.39,2,2,0,0,1,.77-.93,2.35,2.35,0,0,1,1.33-.34,2.4,2.4,0,0,1,1.34.34,2,2,0,0,1,.77.93,3.71,3.71,0,0,1,.25,1.39v4a3.44,3.44,0,0,1-.26,1.36,2.09,2.09,0,0,1-.79.92A2.3,2.3,0,0,1,411,239Zm0-1.33a.64.64,0,0,0,.52-.21,1.18,1.18,0,0,0,.22-.51,3.1,3.1,0,0,0,.05-.6v-4a3.24,3.24,0,0,0-.05-.62,1.1,1.1,0,0,0-.21-.52A.65.65,0,0,0,411,231a.62.62,0,0,0-.52.21,1.11,1.11,0,0,0-.22.52,4.32,4.32,0,0,0-.05.62v4a3.13,3.13,0,0,0,.06.6,1.19,1.19,0,0,0,.23.51A.6.6,0,0,0,411,237.66Z" style="fill:#263238"></path><path d="M416.34,234.78a1.73,1.73,0,0,1-1.48-.58,2.67,2.67,0,0,1-.45-1.66V232a2.54,2.54,0,0,1,.44-1.65,1.78,1.78,0,0,1,1.49-.55,1.86,1.86,0,0,1,1.5.53,2.48,2.48,0,0,1,.44,1.63v.62a2.68,2.68,0,0,1-.44,1.65A1.8,1.8,0,0,1,416.34,234.78Zm0-1a.56.56,0,0,0,.43-.15,1,1,0,0,0,.17-.44,4.19,4.19,0,0,0,.05-.65V232a2.88,2.88,0,0,0-.1-.87c-.07-.2-.25-.3-.55-.3s-.47.1-.53.3a2.88,2.88,0,0,0-.1.87v.54a4,4,0,0,0,0,.63.89.89,0,0,0,.18.44A.53.53,0,0,0,416.34,233.75Zm1.08,5.1,2.65-9h1l-2.64,9Zm4.74,0a1.75,1.75,0,0,1-1.48-.58,2.71,2.71,0,0,1-.44-1.68v-.54a2.66,2.66,0,0,1,.43-1.66,1.76,1.76,0,0,1,1.49-.55,1.82,1.82,0,0,1,1.5.53,2.59,2.59,0,0,1,.44,1.64v.61a2.63,2.63,0,0,1-.45,1.66A1.77,1.77,0,0,1,422.16,238.89Zm0-1a.54.54,0,0,0,.43-.16.85.85,0,0,0,.18-.43,6.11,6.11,0,0,0,0-.64v-.53a2.84,2.84,0,0,0-.1-.87c-.06-.2-.24-.31-.54-.31a.5.5,0,0,0-.54.32,2.81,2.81,0,0,0-.1.86v.53a3.87,3.87,0,0,0,.05.64.9.9,0,0,0,.17.43A.51.51,0,0,0,422.16,237.85Z" style="fill:#263238"></path><path d="M370.81,215.11v-7.05h-1.3V207h4.06v1.09H372.3v7.05Z" style="fill:#263238"></path><path d="M374.32,215.11V207h3.41v1H375.8v2.35h1.52v1H375.8v2.69h1.95v1Z" style="fill:#263238"></path><path d="M378.62,215.11V207h1.48v7.11h2v1Z" style="fill:#263238"></path><path d="M382.81,215.11V207h3.41v1h-1.93v2.35h1.52v1h-1.52v2.69h1.95v1Z" style="fill:#263238"></path><path d="M387.11,215.11V207h2.39a2.3,2.3,0,0,1,1.19.27,1.54,1.54,0,0,1,.67.79,3.11,3.11,0,0,1,.22,1.25,2.62,2.62,0,0,1-.27,1.28,1.59,1.59,0,0,1-.76.71,2.74,2.74,0,0,1-1.15.22h-.8v3.62Zm1.49-4.66h.56a1.36,1.36,0,0,0,.63-.12.64.64,0,0,0,.31-.37,2.51,2.51,0,0,0,.08-.69,3.59,3.59,0,0,0-.06-.72.68.68,0,0,0-.28-.41,1.46,1.46,0,0,0-.68-.13h-.56Z" style="fill:#263238"></path><path d="M394.62,215.22a2.61,2.61,0,0,1-1.38-.32,1.75,1.75,0,0,1-.73-.93,4,4,0,0,1-.23-1.42V209.5a3.93,3.93,0,0,1,.23-1.41,1.72,1.72,0,0,1,.73-.9,2.61,2.61,0,0,1,1.38-.31,2.65,2.65,0,0,1,1.39.31,1.81,1.81,0,0,1,.73.9,3.93,3.93,0,0,1,.23,1.41v3.06a4,4,0,0,1-.23,1.41,1.82,1.82,0,0,1-.73.92A2.55,2.55,0,0,1,394.62,215.22Zm0-1.1a.7.7,0,0,0,.78-.6,2.93,2.93,0,0,0,.06-.61v-3.75a2.8,2.8,0,0,0-.06-.61.76.76,0,0,0-.24-.43.81.81,0,0,0-.54-.16.83.83,0,0,0-.54.16.76.76,0,0,0-.24.43,2.8,2.8,0,0,0-.06.61v3.75a2.93,2.93,0,0,0,.06.61.7.7,0,0,0,.23.44A.79.79,0,0,0,394.62,214.12Z" style="fill:#263238"></path><path d="M398.06,215.11V207H400a4.28,4.28,0,0,1,1.39.19,1.69,1.69,0,0,1,.87.67,2.42,2.42,0,0,1,.29,1.29,3.91,3.91,0,0,1-.09.88,1.65,1.65,0,0,1-.3.67,1.41,1.41,0,0,1-.6.43l1.14,4h-1.49l-1-3.73h-.68v3.73Zm1.49-4.66H400a1.63,1.63,0,0,0,.69-.13.76.76,0,0,0,.37-.4,2,2,0,0,0,.11-.71,1.54,1.54,0,0,0-.23-.92,1,1,0,0,0-.86-.31h-.54Z" style="fill:#263238"></path><path d="M404.47,215.11v-7.05h-1.29V207h4.06v1.09H406v7.05Z" style="fill:#263238"></path><path d="M407.37,215.11,409,207h1.58l1.63,8.14h-1.37l-.33-1.88H409.1l-.34,1.88Zm1.88-2.82h1.1l-.55-3.42Z" style="fill:#263238"></path><path d="M413.46,215.11v-7.05h-1.3V207h4.06v1.09h-1.28v7.05Z" style="fill:#263238"></path><path d="M417,215.11V207h1.46v8.14Z" style="fill:#263238"></path><path d="M421.94,215.22a2.61,2.61,0,0,1-1.38-.32,1.8,1.8,0,0,1-.73-.93,4,4,0,0,1-.22-1.42V209.5a3.94,3.94,0,0,1,.22-1.41,1.76,1.76,0,0,1,.73-.9,3.25,3.25,0,0,1,2.77,0,1.76,1.76,0,0,1,.73.9,3.72,3.72,0,0,1,.23,1.41v3.06a3.79,3.79,0,0,1-.23,1.41,1.77,1.77,0,0,1-.73.92A2.53,2.53,0,0,1,421.94,215.22Zm0-1.1a.79.79,0,0,0,.55-.16.81.81,0,0,0,.23-.44,2.93,2.93,0,0,0,.06-.61v-3.75a2.8,2.8,0,0,0-.06-.61.81.81,0,0,0-.23-.43.84.84,0,0,0-.55-.16.8.8,0,0,0-.53.16.76.76,0,0,0-.24.43,2.8,2.8,0,0,0-.06.61v3.75a3,3,0,0,0,.05.61.76.76,0,0,0,.24.44A.77.77,0,0,0,421.94,214.12Z" style="fill:#263238"></path><path d="M425.39,215.11V207h1l2,4.64V207h1.23v8.14h-1l-2-4.86v4.86Z" style="fill:#263238"></path></g><g id="graphic-2"><rect x="55.18" y="324.85" width="67.41" height="5.05" style="fill:#92E3A9;stroke:#263238;stroke-linecap:round;stroke-linejoin:round"></rect><rect x="55.18" y="333.83" width="47.57" height="5.05" style="fill:#fff;stroke:#263238;stroke-linecap:round;stroke-linejoin:round"></rect><rect x="55.18" y="360.76" width="47.57" height="5.05" style="fill:#92E3A9;stroke:#263238;stroke-linecap:round;stroke-linejoin:round"></rect><rect x="55.18" y="342.81" width="80.79" height="5.05" style="fill:#92E3A9;stroke:#263238;stroke-linecap:round;stroke-linejoin:round"></rect><rect x="55.18" y="351.79" width="97.85" height="5.05" style="fill:#fff;stroke:#263238;stroke-linecap:round;stroke-linejoin:round"></rect><line x1="56.12" y1="379.14" x2="111.48" y2="379.14" style="fill:none;stroke:#263238;stroke-miterlimit:10"></line><line x1="56.12" y1="388.16" x2="133.14" y2="388.16" style="fill:none;stroke:#263238;stroke-miterlimit:10"></line></g><g id="graphic-1"><circle cx="95.7" cy="153.85" r="30.26" transform="translate(-50.76 47.18) rotate(-22.05)" style="fill:none;stroke:#263238;stroke-miterlimit:10"></circle><ellipse cx="95.7" cy="153.85" rx="18.95" ry="30.26" style="fill:none;stroke:#263238;stroke-miterlimit:10"></ellipse><ellipse cx="95.7" cy="153.85" rx="6.21" ry="30.26" style="fill:none;stroke:#263238;stroke-miterlimit:10"></ellipse><ellipse cx="95.7" cy="153.85" rx="30.26" ry="18.95" style="fill:none;stroke:#263238;stroke-miterlimit:10"></ellipse><path d="M95.7,160.06c-16.71,0-30.26-2.78-30.26-6.21S79,147.64,95.7,147.64,126,150.42,126,153.85,112.41,160.06,95.7,160.06Z" style="fill:none;stroke:#263238;stroke-miterlimit:10"></path><circle cx="113.23" cy="227.99" r="17.67" style="fill:none;stroke:#263238;stroke-miterlimit:10"></circle><ellipse cx="113.23" cy="227.99" rx="11.07" ry="17.67" style="fill:none;stroke:#263238;stroke-miterlimit:10"></ellipse><ellipse cx="113.23" cy="227.99" rx="3.62" ry="17.67" style="fill:none;stroke:#263238;stroke-miterlimit:10"></ellipse><ellipse cx="113.23" cy="227.99" rx="17.67" ry="11.07" style="fill:none;stroke:#263238;stroke-miterlimit:10"></ellipse><ellipse cx="113.23" cy="227.99" rx="17.67" ry="3.62" style="fill:none;stroke:#263238;stroke-miterlimit:10"></ellipse><line x1="130.18" y1="153.09" x2="131.68" y2="153.09" style="fill:none;stroke:#263238;stroke-miterlimit:10"></line><line x1="134.34" y1="153.09" x2="138.32" y2="153.09" style="fill:none;stroke:#263238;stroke-miterlimit:10;stroke-dasharray:2.6590099334716797,2.6590099334716797"></line><polyline points="139.65 153.09 141.15 153.09 141.15 154.59" style="fill:none;stroke:#263238;stroke-miterlimit:10"></polyline><line x1="141.15" y1="157.54" x2="141.15" y2="221.07" style="fill:none;stroke:#263238;stroke-miterlimit:10;stroke-dasharray:2.9547200202941895,2.9547200202941895"></line><polyline points="141.15 222.54 141.15 224.04 139.65 224.04" style="fill:none;stroke:#263238;stroke-miterlimit:10"></polyline><line x1="138.04" y1="224.04" x2="135.62" y2="224.04" style="fill:none;stroke:#263238;stroke-miterlimit:10;stroke-dasharray:1.6135799884796143,1.6135799884796143"></line><line x1="134.81" y1="224.04" x2="133.31" y2="224.04" style="fill:none;stroke:#263238;stroke-miterlimit:10"></line><line x1="72.46" y1="261.93" x2="127.24" y2="261.93" style="fill:none;stroke:#263238;stroke-miterlimit:10"></line><line x1="57.09" y1="270.62" x2="142.6" y2="270.62" style="fill:none;stroke:#263238;stroke-miterlimit:10"></line></g><g id="Character"><path d="M299.34,215.21c-1.1-4.56-11.59-48.08-13.24-51.5s-28.71-13.11-28.71-13.11l-10.67-2.47-10.67,2.47s-27.05,9.69-28.71,13.11-12.14,46.94-13.25,51.5,0,7.6,2.58,9.69,22.27,15.39,22.27,15.39l1.47-11L209,215.4l10.86-14.63h53.72l10.86,14.63L273,229.27l1.47,11s19.69-13.3,22.27-15.39S300.45,219.77,299.34,215.21Z" style="fill:#92E3A9;stroke:#263238;stroke-linecap:round;stroke-linejoin:round"></path><path d="M205.94,231.44c6.15,4.23,13,8.85,13,8.85l1.47-11-7-8.49Z" style="fill:#263238;stroke:#263238;stroke-linecap:round;stroke-linejoin:round"></path><path d="M273,229.27l1.47,11s7.36-5,13.67-9.31l-9-9.19Z" style="fill:#263238;stroke:#263238;stroke-linecap:round;stroke-linejoin:round"></path><polyline points="212.35 176.44 220.9 215.02 218.81 243.34 274.88 244.1 272.21 214.64 280.96 177.01" style="fill:#92E3A9;stroke:#263238;stroke-linecap:round;stroke-linejoin:round"></polyline><path d="M247.89,191.45l24.73-35c-7.46-3.11-15.23-5.89-15.23-5.89l-10.67-2.47-10.67,2.47s-6.75,2.41-13.71,5.26Z" style="fill:#263238;stroke:#263238;stroke-linecap:round;stroke-linejoin:round"></path><path d="M235.43,139.65v14.84s3.36,9.85,12.5,9.49c10.45-.41,11.55-11.55,11.55-11.55V140.06Z" style="fill:#263238;stroke:#263238;stroke-linecap:round;stroke-linejoin:round"></path><path d="M235.43,133.28v14.84s3.36,9.85,12.5,9.49c10.45-.42,11.55-11.55,11.55-11.55V133.69Z" style="fill:#fff;stroke:#263238;stroke-linecap:round;stroke-linejoin:round"></path><path d="M231.85,126.05s-1.37-1.24-2.47,1.37.69,5.22,1.51,5.91l.83.69.82,1.51Z" style="fill:none;stroke:#263238;stroke-linecap:round;stroke-linejoin:round"></path><path d="M262.5,126.05s1.38-1.24,2.47,1.37-.68,5.22-1.51,5.91l-.82.69-.83,1.51Z" style="fill:none;stroke:#263238;stroke-linecap:round;stroke-linejoin:round"></path><path d="M241.2,103s-6.73,1.92-8.52,6.73-.62,24.31-.14,25.84c1.51,4.81,7.42,12.78,8.93,14.15s4,3.72,7.56,2.62,12.1-10.72,13.06-17.18.14-23.64-1-26.66S249.31,99.25,241.2,103Z" style="fill:#fff;stroke:#263238;stroke-linecap:round;stroke-linejoin:round"></path><path d="M244.36,134.84s3.16,2.34,3.71,2.34,1.1-1.51,1.1-1.51v-5.36" style="fill:none;stroke:#263238;stroke-linecap:round;stroke-linejoin:round"></path><path d="M248.07,137.18a2.65,2.65,0,0,0,2.61-2.06" style="fill:none;stroke:#263238;stroke-linecap:round;stroke-linejoin:round"></path><path d="M243.26,139.24s4.54,2.75,8.93,0" style="fill:none;stroke:#263238;stroke-linecap:round;stroke-linejoin:round"></path><path d="M262.43,122c-.19-6-.7-11.88-1.3-13.52-1.1-3-11.82-9.21-19.93-5.5,0,0-6.73,1.92-8.52,6.73-.84,2.25-1,7.7-.94,13,1.19-1.17,4.28-4.35,4-6-.36-2.06-1.93-5.22-1.45-6.73s3.13-4.12,5.3-4.12,5.52,4.12,7.8,4c2.29.14,5.78-4,8-4s4.81,2.61,5.29,4.12-1.08,4.67-1.44,6.73C258.94,118.09,261,120.53,262.43,122Z" style="fill:#263238;stroke:#263238;stroke-linecap:round;stroke-linejoin:round"></path><rect x="230.97" y="122.2" width="32.3" height="7.28" rx="3.64" style="fill:#fff;stroke:#263238;stroke-linecap:round;stroke-linejoin:round"></rect><rect x="235.11" y="124.12" width="24.01" height="3.44" rx="1.72" style="fill:#92E3A9;stroke:#263238;stroke-linecap:round;stroke-linejoin:round"></rect><polygon points="218.81 243.34 274.88 244.1 273.57 229.65 219.82 229.65 218.81 243.34" style="fill:#fff;stroke:#263238;stroke-linecap:round;stroke-linejoin:round"></polygon><path d="M263.37,313.56H275c.29-7.5.77-18,1.16-29.64.58-17.69-1.24-39.82-1.24-39.82l-56.07-.76s-5.21,38.41-3.76,51.17,3.48,19,3.48,19H231.3v8.59h4.06v3.19H242l2.61-26.4.58,20.89h3.19V327h7.26v-5.8h7.25v-4.93h.45Z" style="fill:#263238;stroke:#263238;stroke-linecap:round;stroke-linejoin:round"></path><rect x="215.94" y="318.97" width="12.27" height="12.27" style="fill:#263238;stroke:#263238;stroke-linecap:round;stroke-linejoin:round"></rect><rect x="229.89" y="325.11" width="3.35" height="4.09" style="fill:#263238;stroke:#263238;stroke-linecap:round;stroke-linejoin:round"></rect><rect x="269.59" y="315.86" width="3.35" height="4.09" style="fill:#263238;stroke:#263238;stroke-linecap:round;stroke-linejoin:round"></rect><rect x="236.03" y="328.27" width="6.51" height="7.81" style="fill:#263238;stroke:#263238;stroke-linecap:round;stroke-linejoin:round"></rect><rect x="257.79" y="323.25" width="11.34" height="12.46" style="fill:#263238;stroke:#263238;stroke-linecap:round;stroke-linejoin:round"></rect><rect x="249.42" y="337.76" width="14.32" height="8" style="fill:#263238;stroke:#263238;stroke-linecap:round;stroke-linejoin:round"></rect><rect x="219.85" y="336.13" width="14.13" height="8.74" style="fill:#263238;stroke:#263238;stroke-linecap:round;stroke-linejoin:round"></rect><rect x="236.79" y="341.8" width="9.3" height="6.14" style="fill:#263238;stroke:#263238;stroke-linecap:round;stroke-linejoin:round"></rect><rect x="267.01" y="338.71" width="7.05" height="6.14" style="fill:#263238;stroke:#263238;stroke-linecap:round;stroke-linejoin:round"></rect><polygon points="265.71 349.5 261.48 349.5 253.44 349.5 253.44 354.7 253.44 359.88 261.48 359.88 261.48 354.7 265.71 354.7 265.71 349.5" style="fill:#263238;stroke:#263238;stroke-linecap:round;stroke-linejoin:round"></polygon><rect x="241.61" y="354.68" width="5.02" height="5.02" style="fill:#263238;stroke:#263238;stroke-linecap:round;stroke-linejoin:round"></rect><rect x="226.5" y="350.22" width="9.67" height="7.63" style="fill:#263238;stroke:#263238;stroke-linecap:round;stroke-linejoin:round"></rect><rect x="228.21" y="363.05" width="7.81" height="5.77" style="fill:#263238;stroke:#263238;stroke-linecap:round;stroke-linejoin:round"></rect><rect x="221.89" y="368.07" width="5.02" height="4.65" style="fill:#263238;stroke:#263238;stroke-linecap:round;stroke-linejoin:round"></rect><rect x="231.56" y="372.16" width="7.79" height="4.65" style="fill:#263238;stroke:#263238;stroke-linecap:round;stroke-linejoin:round"></rect><rect x="226.91" y="377.37" width="3.16" height="3.16" style="fill:#263238;stroke:#263238;stroke-linecap:round;stroke-linejoin:round"></rect><rect x="236.29" y="379.15" width="5.37" height="3.46" style="fill:#263238;stroke:#263238;stroke-linecap:round;stroke-linejoin:round"></rect><rect x="232.49" y="379.42" width="2.42" height="9.11" style="fill:#263238;stroke:#263238;stroke-linecap:round;stroke-linejoin:round"></rect><rect x="226.17" y="386.3" width="2.6" height="3.25" style="fill:#263238;stroke:#263238;stroke-linecap:round;stroke-linejoin:round"></rect><rect x="234.99" y="392.42" width="5.4" height="7.52" style="fill:#263238;stroke:#263238;stroke-linecap:round;stroke-linejoin:round"></rect><rect x="244.75" y="363.05" width="5.58" height="5.39" style="fill:#263238;stroke:#263238;stroke-linecap:round;stroke-linejoin:round"></rect><rect x="246.24" y="371.79" width="11.72" height="3.35" style="fill:#263238;stroke:#263238;stroke-linecap:round;stroke-linejoin:round"></rect><rect x="253.31" y="362.68" width="7.44" height="4.65" style="fill:#263238;stroke:#263238;stroke-linecap:round;stroke-linejoin:round"></rect><rect x="259.63" y="369.56" width="2.6" height="6.32" style="fill:#263238;stroke:#263238;stroke-linecap:round;stroke-linejoin:round"></rect><rect x="251.07" y="378.3" width="8.74" height="2.05" style="fill:#263238;stroke:#263238;stroke-linecap:round;stroke-linejoin:round"></rect><rect x="246.42" y="378.67" width="3.16" height="12.65" style="fill:#263238;stroke:#263238;stroke-linecap:round;stroke-linejoin:round"></rect><rect x="252.75" y="384.63" width="5.77" height="5.02" style="fill:#263238;stroke:#263238;stroke-linecap:round;stroke-linejoin:round"></rect><rect x="250.52" y="393" width="3.16" height="3.16" style="fill:#263238;stroke:#263238;stroke-linecap:round;stroke-linejoin:round"></rect><rect x="242.33" y="393" width="3.16" height="3.16" style="fill:#263238;stroke:#263238;stroke-linecap:round;stroke-linejoin:round"></rect><rect x="242.11" y="400.56" width="3.16" height="3.16" style="fill:#263238;stroke:#263238;stroke-linecap:round;stroke-linejoin:round"></rect><rect x="263.85" y="356.38" width="3.35" height="3.35" style="fill:#263238;stroke:#263238;stroke-linecap:round;stroke-linejoin:round"></rect><rect x="219.66" y="354.12" width="3.35" height="4.09" style="fill:#263238;stroke:#263238;stroke-linecap:round;stroke-linejoin:round"></rect><rect x="236.4" y="387.6" width="2.05" height="2.98" style="fill:#263238;stroke:#263238;stroke-linecap:round;stroke-linejoin:round"></rect><rect x="241.91" y="224.79" width="9.87" height="22.02" style="fill:#fff;stroke:#263238;stroke-linecap:round;stroke-linejoin:round"></rect><path d="M270.5,185.3a5.32,5.32,0,1,0-5.32,5.32A5.32,5.32,0,0,0,270.5,185.3Z" style="fill:#fff;stroke:#263238;stroke-linecap:round;stroke-linejoin:round"></path></g><g id="Machine"><rect x="169.89" y="76.88" width="153.65" height="368.1" style="fill:none;stroke:#263238;stroke-linecap:round;stroke-linejoin:round"></rect><path d="M173.33,112.32a3.34,3.34,0,1,0-3.34,3.34A3.33,3.33,0,0,0,173.33,112.32Z" style="fill:#263238;stroke:#263238;stroke-linecap:round;stroke-linejoin:round"></path><path d="M173.33,187.14a3.34,3.34,0,1,0-3.34,3.34A3.33,3.33,0,0,0,173.33,187.14Z" style="fill:#263238;stroke:#263238;stroke-linecap:round;stroke-linejoin:round"></path><path d="M173.33,262A3.34,3.34,0,1,0,170,265.3,3.34,3.34,0,0,0,173.33,262Z" style="fill:#263238;stroke:#263238;stroke-linecap:round;stroke-linejoin:round"></path><path d="M173.33,336.78a3.34,3.34,0,1,0-3.34,3.34A3.34,3.34,0,0,0,173.33,336.78Z" style="fill:#263238;stroke:#263238;stroke-linecap:round;stroke-linejoin:round"></path><path d="M173.33,411.6a3.34,3.34,0,1,0-3.34,3.34A3.34,3.34,0,0,0,173.33,411.6Z" style="fill:#263238;stroke:#263238;stroke-linecap:round;stroke-linejoin:round"></path><path d="M327,112.32a3.34,3.34,0,1,0-3.34,3.34A3.33,3.33,0,0,0,327,112.32Z" style="fill:#263238;stroke:#263238;stroke-linecap:round;stroke-linejoin:round"></path><path d="M327,187.14a3.34,3.34,0,1,0-3.34,3.34A3.33,3.33,0,0,0,327,187.14Z" style="fill:#263238;stroke:#263238;stroke-linecap:round;stroke-linejoin:round"></path><path d="M327,262a3.34,3.34,0,1,0-3.34,3.34A3.34,3.34,0,0,0,327,262Z" style="fill:#263238;stroke:#263238;stroke-linecap:round;stroke-linejoin:round"></path><path d="M327,336.78a3.34,3.34,0,1,0-3.34,3.34A3.34,3.34,0,0,0,327,336.78Z" style="fill:#263238;stroke:#263238;stroke-linecap:round;stroke-linejoin:round"></path><path d="M327,411.6a3.34,3.34,0,1,0-3.34,3.34A3.34,3.34,0,0,0,327,411.6Z" style="fill:#263238;stroke:#263238;stroke-linecap:round;stroke-linejoin:round"></path><line x1="169.34" y1="313.26" x2="323.14" y2="313.26" style="fill:none;stroke:#263238;stroke-miterlimit:10;stroke-dasharray:3"></line><polyline points="86.71 24.3 86.71 63.29 408.97 63.29 408.97 18.21" style="fill:#fff;stroke:#263238;stroke-linecap:round;stroke-linejoin:round"></polyline><polygon points="338.14 90.41 155.29 90.41 145.14 56.63 348.3 56.63 338.14 90.41" style="fill:#fff;stroke:#263238;stroke-linecap:round;stroke-linejoin:round"></polygon><rect x="161.79" y="67.33" width="6.53" height="16.05" style="fill:#fff;stroke:#263238;stroke-linecap:round;stroke-linejoin:round"></rect><rect x="178.12" y="67.33" width="6.53" height="16.05" style="fill:#fff;stroke:#263238;stroke-linecap:round;stroke-linejoin:round"></rect><rect x="194.45" y="67.33" width="6.53" height="16.05" style="fill:#fff;stroke:#263238;stroke-linecap:round;stroke-linejoin:round"></rect><rect x="210.79" y="67.33" width="6.53" height="16.05" style="fill:#fff;stroke:#263238;stroke-linecap:round;stroke-linejoin:round"></rect><rect x="227.12" y="67.33" width="6.53" height="16.05" style="fill:#fff;stroke:#263238;stroke-linecap:round;stroke-linejoin:round"></rect><rect x="243.45" y="67.33" width="6.53" height="16.05" style="fill:#fff;stroke:#263238;stroke-linecap:round;stroke-linejoin:round"></rect><rect x="259.79" y="67.33" width="6.53" height="16.05" style="fill:#fff;stroke:#263238;stroke-linecap:round;stroke-linejoin:round"></rect><rect x="276.12" y="67.33" width="6.53" height="16.05" style="fill:#fff;stroke:#263238;stroke-linecap:round;stroke-linejoin:round"></rect><rect x="292.45" y="67.33" width="6.53" height="16.05" style="fill:#fff;stroke:#263238;stroke-linecap:round;stroke-linejoin:round"></rect><rect x="308.78" y="67.33" width="6.53" height="16.05" style="fill:#fff;stroke:#263238;stroke-linecap:round;stroke-linejoin:round"></rect><rect x="325.12" y="67.33" width="6.53" height="16.05" style="fill:#fff;stroke:#263238;stroke-linecap:round;stroke-linejoin:round"></rect><rect x="102.99" y="56.63" width="287.46" height="15.46" style="fill:#fff;stroke:#263238;stroke-linecap:round;stroke-linejoin:round"></rect><polyline points="44.08 468.54 147.28 468.54 147.28 447.48 346.11 447.48 346.11 468.66 457.46 468.66" style="fill:#fff;stroke:#263238;stroke-linecap:round;stroke-linejoin:round"></polyline><polygon points="313.27 469.67 180.17 469.67 172.78 435.89 320.66 435.89 313.27 469.67" style="fill:#fff;stroke:#263238;stroke-linecap:round;stroke-linejoin:round"></polygon><rect x="184.9" y="446.59" width="4.76" height="16.05" style="fill:#fff;stroke:#263238;stroke-linecap:round;stroke-linejoin:round"></rect><rect x="196.79" y="446.59" width="4.76" height="16.05" style="fill:#fff;stroke:#263238;stroke-linecap:round;stroke-linejoin:round"></rect><rect x="208.67" y="446.59" width="4.76" height="16.05" style="fill:#fff;stroke:#263238;stroke-linecap:round;stroke-linejoin:round"></rect><rect x="220.56" y="446.59" width="4.76" height="16.05" style="fill:#fff;stroke:#263238;stroke-linecap:round;stroke-linejoin:round"></rect><rect x="232.45" y="446.59" width="4.76" height="16.05" style="fill:#fff;stroke:#263238;stroke-linecap:round;stroke-linejoin:round"></rect><rect x="244.34" y="446.59" width="4.76" height="16.05" style="fill:#fff;stroke:#263238;stroke-linecap:round;stroke-linejoin:round"></rect><rect x="256.23" y="446.59" width="4.76" height="16.05" style="fill:#fff;stroke:#263238;stroke-linecap:round;stroke-linejoin:round"></rect><rect x="268.12" y="446.59" width="4.76" height="16.05" style="fill:#fff;stroke:#263238;stroke-linecap:round;stroke-linejoin:round"></rect><rect x="280.01" y="446.59" width="4.76" height="16.05" style="fill:#fff;stroke:#263238;stroke-linecap:round;stroke-linejoin:round"></rect><rect x="291.9" y="446.59" width="4.76" height="16.05" style="fill:#fff;stroke:#263238;stroke-linecap:round;stroke-linejoin:round"></rect><rect x="303.79" y="446.59" width="4.76" height="16.05" style="fill:#fff;stroke:#263238;stroke-linecap:round;stroke-linejoin:round"></rect><rect x="142.1" y="435.89" width="209.25" height="15.46" style="fill:#fff;stroke:#263238;stroke-linecap:round;stroke-linejoin:round"></rect></g></svg>
