<svg xmlns="http://www.w3.org/2000/svg" viewBox="0 0 500 500"><g id="background-simple"><path d="M406.22,115c-43.15-34.09-98.16-51.81-152.58-55.79-82-6-130,37-131,81s-23.93,91.8-78,146.4-41,136.6,50,162.6,166-12,197-34,96,42,139,21c27.37-13.37,38.85-59.05,44.86-85.53,11.24-49.43,10.41-103-7-150.92C455.77,165,433.76,136.79,406.22,115Z" style="fill:#92E3A9"></path><path d="M406.22,115c-43.15-34.09-98.16-51.81-152.58-55.79-82-6-130,37-131,81s-23.93,91.8-78,146.4-41,136.6,50,162.6,166-12,197-34,96,42,139,21c27.37-13.37,38.85-59.05,44.86-85.53,11.24-49.43,10.41-103-7-150.92C455.77,165,433.76,136.79,406.22,115Z" style="fill:#fff;opacity:0.7000000000000001"></path></g><g id="Floor"><line x1="10.96" y1="438.52" x2="490.83" y2="438.52" style="fill:none;stroke:#263238;stroke-linecap:round;stroke-linejoin:round"></line></g><g id="Clock"><g style="opacity:0.30000000000000004"><circle cx="381.09" cy="127.52" r="33.77" style="fill:none;stroke:#000;stroke-linecap:round;stroke-linejoin:round"></circle><circle cx="381.09" cy="127.52" r="30.86" transform="translate(119.77 432.82) rotate(-67.94)" style="fill:none;stroke:#000;stroke-linecap:round;stroke-linejoin:round"></circle><circle cx="381.09" cy="127.52" r="1.43" style="fill:none;stroke:#000;stroke-linecap:round;stroke-linejoin:round"></circle><line x1="379.66" y1="127.52" x2="367.14" y2="130.63" style="fill:none;stroke:#000;stroke-linecap:round;stroke-linejoin:round"></line><line x1="381.09" y1="128.95" x2="381.09" y2="154.41" style="fill:none;stroke:#000;stroke-linecap:round;stroke-linejoin:round"></line></g></g><g id="Window"><g style="opacity:0.30000000000000004"><rect x="106.35" y="69.58" width="175.54" height="224.09" style="fill:none;stroke:#000;stroke-linecap:round;stroke-linejoin:round"></rect><rect x="113.24" y="78.37" width="161.77" height="206.52" style="fill:none;stroke:#000;stroke-linecap:round;stroke-linejoin:round"></rect><rect x="113.24" y="180.48" width="161.77" height="11.47" style="fill:none;stroke:#000;stroke-linecap:round;stroke-linejoin:round"></rect><line x1="268.39" y1="89.27" x2="234.81" y2="122.85" style="fill:none;stroke:#000;stroke-linecap:round;stroke-linejoin:round"></line><line x1="223.5" y1="145.12" x2="218.36" y2="150.26" style="fill:none;stroke:#000;stroke-linecap:round;stroke-linejoin:round"></line><line x1="245.09" y1="123.53" x2="228.98" y2="139.64" style="fill:none;stroke:#000;stroke-linecap:round;stroke-linejoin:round"></line><line x1="138.18" y1="90.64" x2="127.55" y2="101.26" style="fill:none;stroke:#000;stroke-linecap:round;stroke-linejoin:round"></line><line x1="237.89" y1="232.84" x2="232.07" y2="238.67" style="fill:none;stroke:#000;stroke-linecap:round;stroke-linejoin:round"></line><line x1="260.85" y1="209.88" x2="243.03" y2="227.7" style="fill:none;stroke:#000;stroke-linecap:round;stroke-linejoin:round"></line><line x1="268.39" y1="200.55" x2="234.81" y2="234.14" style="fill:none;stroke:#000;stroke-linecap:round;stroke-linejoin:round"></line><line x1="223.5" y1="256.41" x2="218.36" y2="261.55" style="fill:none;stroke:#000;stroke-linecap:round;stroke-linejoin:round"></line><line x1="245.09" y1="234.82" x2="228.98" y2="250.93" style="fill:none;stroke:#000;stroke-linecap:round;stroke-linejoin:round"></line><line x1="138.18" y1="201.93" x2="127.55" y2="212.55" style="fill:none;stroke:#000;stroke-linecap:round;stroke-linejoin:round"></line><line x1="106.39" y1="261.46" x2="14.05" y2="261.46" style="fill:none;stroke:#000;stroke-linecap:round;stroke-linejoin:round"></line><line x1="493.15" y1="261.46" x2="281.89" y2="261.46" style="fill:none;stroke:#000;stroke-linecap:round;stroke-linejoin:round"></line></g></g><g id="Sofa"><rect x="302.05" y="335.56" width="168.69" height="102.96" rx="4.85" style="fill:#e5e5e5;stroke:#263238;stroke-linecap:round;stroke-linejoin:round"></rect><path d="M338.19,280.9H434.6a8.18,8.18,0,0,1,8.18,8.18V438.52a0,0,0,0,1,0,0H330a0,0,0,0,1,0,0V289.08A8.18,8.18,0,0,1,338.19,280.9Z" style="fill:#d1d1d1;stroke:#263238;stroke-linecap:round;stroke-linejoin:round"></path><rect x="330.01" y="368.61" width="112.76" height="69.91" style="fill:#e5e5e5;stroke:#263238;stroke-linecap:round;stroke-linejoin:round"></rect><line x1="331.52" y1="416.14" x2="441.72" y2="416.14" style="fill:none;stroke:#263238;stroke-linecap:round;stroke-linejoin:round"></line></g><g id="Character"><path d="M304.89,208s-5.41-6.68-6.1-9.55,2.41-9.79,14.15-11.63,21.75,1.61,25.32,7.94,6.33,23.71,6.1,29-10.93,8.87-16.46,9.33-15.76.92-22.44-3.11S296.6,222,296.6,222s4.83-4.38,6.33-7.25A23.11,23.11,0,0,0,304.89,208Z" style="fill:#263238;stroke:#263238;stroke-linecap:round;stroke-linejoin:round"></path><path d="M280.32,402.91s-6.68,27.36-8.18,30.53-7.67,9.51-9.51,11.34-6.17,3.34-5.84,4.17,7.51,1,9.85.51,7-4.51,9.51-5.34,5.67-1.84,5.67-4-2.84-7.84-2.84-7.84,13.85-24.52,14.52-25.19S280.32,402.91,280.32,402.91Z" style="fill:#fff;stroke:#263238;stroke-linecap:round;stroke-linejoin:round"></path><path d="M256.79,449c.34.84,7.51,1,9.85.51s7-4.51,9.51-5.34,5.67-1.84,5.67-4a14,14,0,0,0-1.16-4.1c-4,2.7-13.15,8.88-14.19,9.27-1.34.5-3.84-.5-3.84-.5C260.8,446.62,256.46,448.12,256.79,449Z" style="fill:#92E3A9;stroke:#263238;stroke-linecap:round;stroke-linejoin:round"></path><path d="M318.35,409.42s2.67,20.18,2,24.69a84.91,84.91,0,0,1-2.84,13.18c-1.33,4.17.33,7.17,1.84,7.34s5-2.67,6.5-6-.33-12.34,0-14.68,4-24.36,4-24.36Z" style="fill:#fff;stroke:#263238;stroke-linecap:round;stroke-linejoin:round"></path><path d="M326.23,440.12c-.83,6.7-3.37,8.5-3.37,8.5h-4.17l.83-9.54a69.29,69.29,0,0,1-2,8.21c-1.33,4.17.33,7.17,1.84,7.34s5-2.67,6.5-6C326.68,446.8,326.51,443.31,326.23,440.12Z" style="fill:#92E3A9;stroke:#263238;stroke-linecap:round;stroke-linejoin:round"></path><path d="M288.89,297.38s-9.73,86.63-10.43,93.4-2.1,14.24-2.1,14.24a113.66,113.66,0,0,0,10.74,4,62.12,62.12,0,0,0,11.44,2.1l10.27-54.63,2.57-18,.47,64.44.46,8.4a96.74,96.74,0,0,0,10.28.94c3.73,0,12.84-1.64,12.84-1.64L335,372.8s.93-36.89,0-49.5-2.8-25-2.8-25-12.61-3.27-20.78-3.27S288.89,297.38,288.89,297.38Z" style="fill:#263238;stroke:#263238;stroke-linecap:round;stroke-linejoin:round"></path><path d="M309.61,229.6s-1,4-1.5,5.87-3.45,3.57-3.45,3.57-11.05-3.45-15-4.26-9.79-.69-10.71-.8-12.42-2-12.42-2a16.29,16.29,0,0,1-2,8.52c-2.42,4.83-5.29,6.67-5.29,6.67a107.64,107.64,0,0,1,13.46,4.6,96.72,96.72,0,0,1,14.39,7.94s.8,20.37.69,26.7-.69,9.09,1,10.93,3.45,2.65,6.56,1.85,6.91-1.62,15.88-1.5,20.37,4.14,21.75,3.68,3.45-4.26,3.91-6a23.34,23.34,0,0,0,.58-2.65l17.15,2.07s3.1-3.45,2.87-6.44-4.83-11.05-6.56-13.58-2.53-9.44-7.59-18.87-6-10.82-10.59-12.09-11.62-3-11.62-3l.34-15.19Z" style="fill:#92E3A9"></path><g style="opacity:0.16"><path d="M312,290.53c.24-5.4,4.21-42.84,4.25-43.22a1.37,1.37,0,1,0-2.73-.29c-.16,1.54-4,37.9-4.26,43.38a19.08,19.08,0,0,0,1.18,7.32h.9q1,0,2.1.09A16.56,16.56,0,0,1,312,290.53Z"></path><path d="M345,293.68l2.9.35c-2.46-10.51-5.81-24.5-7.17-28.76-1.68-5.26-6.77-16.34-9.34-21.8l-4.56-1.19a1.3,1.3,0,0,0,0,.62c.08.39,7.55,35.48,9.78,53.74a10.11,10.11,0,0,0,.43-1.21,23.34,23.34,0,0,0,.58-2.65l1.26.15c-1.92-13.85-5.93-34-8-44.19,2.63,5.72,6,13.39,7.3,17.36S342.55,283.33,345,293.68Z"></path><path d="M326,242.07l-1-.26a1.36,1.36,0,0,0-1.16,1.52c.05.41,5.25,41.35,5.25,52.89v4.52c1.1.26,2,.47,2.73.59v-5.11c0-11.71-5.05-51.54-5.26-53.23A1.33,1.33,0,0,0,326,242.07Z"></path><path d="M348.23,273.58c-2.55-9.2-8.09-21-11.5-27.94a10.25,10.25,0,0,0-3.88-1.77l-.1,0c2.93,5.75,10,20.08,12.85,30.46a136,136,0,0,0,8.13,20.42l1,.12a15,15,0,0,0,1.29-1.73A133.23,133.23,0,0,1,348.23,273.58Z"></path><path d="M322.25,298.55c.5-9.47-1.18-50.69-1.25-52.44a1.35,1.35,0,0,0-1.42-1.32,1.38,1.38,0,0,0-1.32,1.43c0,.43,1.75,42.85,1.26,52.18a.89.89,0,0,0,0,.23c.86.15,1.72.32,2.55.5A1.3,1.3,0,0,0,322.25,298.55Z"></path><path d="M303.83,282.15c.14-2.18.29-4.41.4-6.63.49-9.75,6.4-31.53,6.46-31.75a1.37,1.37,0,0,0-2.64-.72c-.25.9-6.05,22.28-6.56,32.33-.11,2.21-.25,4.42-.4,6.58-.43,6.59-.82,12.43-.1,16.2.82-.1,1.73-.19,2.73-.26C303,294.59,303.4,288.52,303.83,282.15Z"></path><path d="M277.46,238.77a159.33,159.33,0,0,1,17.83,3,1.76,1.76,0,0,0,.31,0,1.37,1.37,0,0,0,.31-2.71,163.38,163.38,0,0,0-18.21-3,45.39,45.39,0,0,1-11.14-2.27,16.13,16.13,0,0,1-.45,2.75A49.27,49.27,0,0,0,277.46,238.77Z"></path><path d="M293.92,293.08a45.51,45.51,0,0,0,1-9.5A77.06,77.06,0,0,1,296.68,268c2.43-10,9.08-22.58,9.14-22.71a1.36,1.36,0,0,0-.57-1.85,1.37,1.37,0,0,0-1.85.57c-.28.53-6.86,13-9.38,23.34a78.47,78.47,0,0,0-1.85,16.11,44.35,44.35,0,0,1-.89,8.89,9.74,9.74,0,0,0,1.06,7.09,7.29,7.29,0,0,0,3-.21C294.25,297.46,293.34,295.22,293.92,293.08Z"></path><path d="M293.11,257a1.43,1.43,0,0,0,.1-.64c4-5.83,7.9-10.72,8-10.8A1.37,1.37,0,0,0,299,243.8c-.12.16-1.09,1.35-2.5,3.2a1.36,1.36,0,0,0-1-.69c-.14,0-14.53-2.26-19.93-3.49-2.86-.65-7.16-2.08-10.56-3.27-.14.32-.29.65-.46,1-.26.52-.53,1-.8,1.47,3.5,1.24,8.1,2.78,11.21,3.49,5.31,1.2,18.6,3.28,20,3.5-1.22,1.64-2.6,3.56-4,5.61-1.77-.72-5.09-2-8.5-3.23s-14.36-4.4-20.94-6.3a12.57,12.57,0,0,1-2.28,2.13s2.36.6,5.82,1.75c6.26,1.83,13.79,4.06,16.49,5,3.05,1.07,6,2.24,7.87,3-.79,1.22-1.57,2.47-2.3,3.71,0,1.06.11,3,.2,5.37a78.59,78.59,0,0,1,4.87-8.3A1.34,1.34,0,0,0,293.11,257Z"></path></g><path d="M309.61,229.6s-1,4-1.5,5.87-3.45,3.57-3.45,3.57-11.05-3.45-15-4.26-9.79-.69-10.71-.8-12.42-2-12.42-2a16.29,16.29,0,0,1-2,8.52c-2.42,4.83-5.29,6.67-5.29,6.67a107.64,107.64,0,0,1,13.46,4.6,96.72,96.72,0,0,1,14.39,7.94s.8,20.37.69,26.7-.69,9.09,1,10.93,3.45,2.65,6.56,1.85,6.91-1.62,15.88-1.5,20.37,4.14,21.75,3.68,3.45-4.26,3.91-6a23.34,23.34,0,0,0,.58-2.65l17.15,2.07s3.1-3.45,2.87-6.44-4.83-11.05-6.56-13.58-2.53-9.44-7.59-18.87-6-10.82-10.59-12.09-11.62-3-11.62-3l.34-15.19Z" style="fill:none;stroke:#263238;stroke-linecap:round;stroke-linejoin:round"></path><path d="M321.23,240.88l.34-15.19-12,3.91s-1,4-1.5,5.87-3.45,3.57-3.45,3.57-4.81-1.5-9.21-2.76a28.52,28.52,0,0,0,6.21,15.88c7,9,15.89,5.41,19.22,4.49,3.06-.85,9.19-8.15,10.82-13.09C327.17,242.34,321.23,240.88,321.23,240.88Z" style="fill:#263238;stroke:#263238;stroke-linecap:round;stroke-linejoin:round"></path><path d="M321.23,240.88l.34-15.19-12,3.91s-1,4-1.5,5.87-3.45,3.57-3.45,3.57-2.28-.71-5.14-1.57c.54,4.17,2.8,14.91,12,16.76,7.77,1.55,13.59-6.32,16.56-11.61C324.55,241.7,321.23,240.88,321.23,240.88Z" style="fill:#fff;stroke:#263238;stroke-linecap:round;stroke-linejoin:round"></path><path d="M321.57,225.69s-7.54,8-13.46,9.78l1.5-5.87Z" style="fill:#263238;stroke:#263238;stroke-linecap:round;stroke-linejoin:round"></path><path d="M331.82,214c-.62-2.36-2.62-.27-3.55.87,0-1.07-.09-2.16-.19-3.23-.48-4.74-1.9-14.53-1.9-14.53s-18.95,1.73-21.95,3.63c0,0-2.53,14.05-2.53,16.42s2.21,12.48,6,14.06,17.69-5.69,19.11-7.74a7.44,7.44,0,0,0,1-2.52C329,220.11,332.52,216.68,331.82,214Z" style="fill:#fff;stroke:#263238;stroke-linecap:round;stroke-linejoin:round"></path><path d="M312.37,209.12a17.74,17.74,0,0,1-1.15,3.57c-.46.57-3.46.57-2.42,1.72A6.62,6.62,0,0,0,311,216" style="fill:none;stroke:#263238;stroke-linecap:round;stroke-linejoin:round"></path><path d="M308.22,219.13s2.19,2.88,7.71.58" style="fill:none;stroke:#263238;stroke-linecap:round;stroke-linejoin:round"></path><path d="M306.27,204.63s2.76-1.61,5.06-.46" style="fill:none;stroke:#263238;stroke-linecap:round;stroke-linejoin:round"></path><path d="M317.55,205.55s4-.11,5.29,3.11" style="fill:none;stroke:#263238;stroke-linecap:round;stroke-linejoin:round"></path><path d="M308.78,208.79c-.18,1-.79,1.78-1.36,1.68s-.86-1-.67-2.05.79-1.79,1.35-1.69S309,207.76,308.78,208.79Z" style="fill:#263238"></path><path d="M319.62,211.31c-.19,1-.8,1.78-1.36,1.68s-.87-1-.68-2.06.8-1.78,1.36-1.68S319.81,210.27,319.62,211.31Z" style="fill:#263238"></path><path d="M269,231.67s.12,7.37-1.38,11.05-4.26,6.1-5.52,6.45-4.61.8-6.33-1.15-3.11-1.16-2.19-6.45,8.86-11.85,10.82-11.85S269,231.67,269,231.67Z" style="fill:#263238;stroke:#263238;stroke-linecap:round;stroke-linejoin:round"></path><path d="M255.75,196s1.26-3.34,1.95-4.72.12-4.26-.23-5.87a12.08,12.08,0,0,1,0-4.95c.35-1.15-1.61-1-2.41.23a10.28,10.28,0,0,0-1.15,3.11s-6.1.46-7.37.81-2.88,0-3.11,1.49-.57,6,1.73,7.14,5,5.64,5.18,6.44,1.5,37.52,2.3,41.09,6,3.45,8.06,2.41,3.68-5.87,4-10.82S255.75,196,255.75,196Z" style="fill:#fff;stroke:#263238;stroke-linecap:round;stroke-linejoin:round"></path><path d="M253.22,187.48s-1.5,2.65-1.38,3.57a6.05,6.05,0,0,0,1.38,2.3" style="fill:none;stroke:#263238;stroke-linecap:round;stroke-linejoin:round"></path><path d="M370.61,310.16l-3.26-.62v-.37L370.2,308l-.62-2.16-3.17,1.52-.21.1-.26.12c.71-.73,1.42-1.47,2.12-2.23l-1.7-.36,0-.18,1.05-.36,1.36-.48,0-.76-14.72.86,15.22-.89-.1-.64c-.71-.71-1.43-1.42-2.15-2.11v-.79c.65-.4,1.29-.81,1.93-1.22q-1.38-.85-2.79-1.65l3.45-.73c0-.68-.06-1.36-.12-2.06-1.1-.08-2.21-.15-3.32-.2l-.07-.39c.88-.56,1.75-1.12,2.61-1.73-.34-.76-.71-1.53-1.09-2.31-.91.8-1.83,1.56-2.77,2.27l-.19.14-.23.18a32.08,32.08,0,0,0,1.58-2.84l-1.75,0-.07-.19.92-.65,1.19-.86c-.09-.29-.2-.6-.3-.9l-3.22,1.12,3.69-1.28c-.11-.25-.2-.49-.33-.75-.49-.35-1-.67-1.48-1l-.78-.5-.85-.56c-.17-.37-.36-.74-.56-1.1a17.42,17.42,0,0,0,.68-2.58,14.14,14.14,0,0,0-4-.43c.64-1,1.26-2,1.85-3-.44-.38-.94-.7-1.42-1.06s-1-.63-1.53-.93a14.33,14.33,0,0,0-2.25,2.52l-.35-.16.15-3.1c-.77-.15-1.53-.29-2.3-.41,0,1.18.05,2.36.05,3.53v.52c-.37-1-.75-1.93-1.15-2.89l-1.06,1.38-.17-.06.11-1.1.14-1.44-.72-.29-5.58,14.16,5.76-14.62-.63-.19c-.95.35-1.89.71-2.83,1.08l-.72-.33-.29-2.27c-.9.61-1.78,1.22-2.66,1.85l.8-3.43-1.87-.76-1.58,2.93-.37-.1c-.12-1-.24-2.06-.39-3.09-.79,0-1.6,0-2.4,0,.26,1.16.5,2.31.71,3.47l0,.23.05.29c-.53-.9-1.11-1.78-1.71-2.66L336,271l-.19,0-.11-1.11-.17-1.44-.82-.15-.47,2.65.55-3.14-.7-.07c-.95.54-1.85,1.07-2.75,1.65-.29-.05-.57-.11-.87-.15-.32-.71-.66-1.41-1-2.12-.83.83-1.6,1.66-2.34,2.55-.13-1.17-.28-2.33-.44-3.5-.84-.05-1.77,0-2.7,0-.21,1.13-.37,2.25-.49,3.36l-.5.09a9.88,9.88,0,0,0-1.14-1.21c-.44-.39-.93-.77-1.39-1.12-.61.3-1.21.6-1.78.94s-1.12.71-1.64,1.11a17,17,0,0,1,3.5,1.91l.21.15.25.19a12,12,0,0,0-1.93-.38,11.71,11.71,0,0,0-2.06-.1c.11.6.22,1.17.38,1.77l-.21.18c-.33-.19-.67-.37-1-.55s-.93-.44-1.4-.63c-.31.31-.61.62-.91.94l9.49,9.41-9.84-9.76-.18.21a1.76,1.76,0,0,0-.29.31l-.28.34-.07.09v0l0,0a8.46,8.46,0,0,1,.59,2.25l-.42.29c-.61-.37-1.16-.75-1.76-1.17a23.54,23.54,0,0,1,.52,2.82l-2.09-2.83-1.06.42c.41,1,.79,2,1.14,3.07l-.25.12c-.68-.74-1.32-1.49-1.93-2.26a10.77,10.77,0,0,1-1.09,1c.67.9,1.38,1.77,2.14,2.63l.15.17.19.21c-.83-.47-1.6-1-2.32-1.46.08.56.17,1.14.23,1.71l-.13,0-.55-.95-.69-1.24-.5.14-.13-.48-.39.18c-.33.76-.71,1.49-1.13,2.26-.2,0-.39,0-.58,0-.34-.65-.66-1.31-1-2a25.13,25.13,0,0,1-1.13,2.69l-.32-3.51L299,277.5c-.18,1.09-.38,2.14-.61,3.21l-.27,0c-.19-1-.35-2-.46-2.93a10.13,10.13,0,0,1-1.4.33,30.6,30.6,0,0,0,.4,3.37l0,.21.05.27a21,21,0,0,1-1.16-2.46c-.22.53-.45,1-.69,1.58l-.14,0,0-1.08.11-1.42-.47-.16-4.58,14.72a18.69,18.69,0,0,0,2.11,1,38.67,38.67,0,0,0,3-3.55c.29,1.37.65,2.64,1.07,4a36.36,36.36,0,0,0,2.48-3.37c0,1.61.09,3.22.16,4.83l2.44.24q.41-2.67.66-5.39.9,2.34,2,4.65a22.45,22.45,0,0,0,2.54-1.16c-.85-1.35-1.63-2.69-2.34-4.09l-.14-.28a4.79,4.79,0,0,0,.36-.41c.72.93,1.49,1.86,2.31,2.77,0-.89-.05-1.78-.09-2.66l.62,1.64c.46.69.92,1.33,1.4,2l.36-.1-1.66-6.1,1.69,6.22c.75-.07,1.51-.12,2.27-.22a44.52,44.52,0,0,0,.61-4.59c.95,1,1.93,1.94,3,2.85a37,37,0,0,0,.35-4.16c.87,1.36,1.76,2.71,2.65,4.05.75-.35,1.5-.69,2.24-1.07-.69-1.69-1.44-3.35-2.23-5a49.43,49.43,0,0,0,4.26,2.86c.59-.85,1.15-1.69,1.68-2.53a41,41,0,0,1-4.32-2.07l-.27-.15.09-.57a21.29,21.29,0,0,0,3.57.94c-.51-.74-1-1.46-1.58-2.17l1.47,1,1.19.37a1.16,1.16,0,0,0,.22.06l.65.65,0,0,0,0,.09.09a1.56,1.56,0,0,1,.48.14,10.93,10.93,0,0,1-.9-1.85,11.86,11.86,0,0,1-.53-2,13.67,13.67,0,0,1,1.73,3.46,5.24,5.24,0,0,1-.16-.88c0-.31,0-.62,0-.93.07-.6.17-1.22.3-1.84.26,1.58.51,3.18.73,4.78l.45.09.5.11c.11-1.79.29-3.58.54-5.35.34,1.63.58,3.23.79,4.87.49-.23,1-.42,1.59-.62-.16-1.5-.38-3-.65-4.53l-.05-.3.37-.32c.37,1.1.68,2.17,1,3.29l.73-2.55-.08,1.74.25,2.33.24.05,0,.12c.45.22.91.46,1.36.7.78-1.23,1.61-2.42,2.47-3.61.09,1.33.16,2.66.2,4,.81-1,1.66-2,2.54-3l-1.14,4.71,1.45.71q1.14-2.44,2.32-4.86c-.11,1.66-.25,3.31-.41,5,.67,0,1.34-.07,2-.09.12-1.53.23-3.07.32-4.6l0-.31.46-.22c.11,1.16.2,2.32.28,3.47l1.29-2.32-.44,1.69-.19,2.35.25.1,0,.12,1.32,1q1.54-1.56,3.15-3.08c-.14,1.32-.3,2.65-.48,4l1.49-1.28.75-.63.38-.31.3-.34q-1.05,2.18-2.22,4.3a.53.53,0,0,1-.12.22,33.78,33.78,0,0,1,3.79-3.87,18.09,18.09,0,0,1-3.38,3.55,1.42,1.42,0,0,1,.75-.2,18.13,18.13,0,0,0,3.62-2.64l.22-.22.43,0a23.29,23.29,0,0,1-2.41,2.26c.84-.27,1.69-.53,2.54-.76l-1.56.8c-.63.45-1.28.86-1.94,1.27l.07.19-.12,0c0,.41,0,.87-.05,1.32a37.72,37.72,0,0,1,4.32.46c-1.16.65-2.34,1.28-3.52,1.87,1.26.27,2.53.58,3.79.95l-4.75,1,0,1.57c1.8,0,3.6,0,5.4,0q-2.34.89-4.68,1.7c.31.59.62,1.18.92,1.8,1.45-.53,2.88-1.07,4.32-1.64l.28-.11.39.33c-1,.58-2,1.15-3,1.71l2.65.2-1.72.31-2.21.82v.28h-.12l-.35,1.66c1.38.5,2.76,1,4.13,1.56l-3.78,1.34c1.2.54,2.4,1.1,3.6,1.67l-4.84.31-.24,1.71,5.35.74-4.85,1.22.74,2,4.46-1.25.29-.08.36.38L355,316.8l2.62.45-1.74.16-2.28.65v.28l1.19,0-1.31,0L353,320l4,1.91L353.13,323,356.6,325h-4.84l-.35,1.73,5.29,1.07-4.9,1,.63,2.05,4.52-1,.29-.07.34.4-3.26,1.28,2.6.59-1.75.08-2.31.53,0,.29h-.13l-.57,1.67,3.92,2.1-3.92.93,3.39,2.09-4.84-.21-.42,1.72,5.24,1.29-4.94.76.55,2.07,4.55-.83.3-.05.32.41-3.3,1.14,2.56.7H353.8l-2.33.42,0,.26,15.66,2,0-.65-1.73-2.39.15-.75,2.13-.75-2.39-2.08,3.52.08.36-1.82-3.17-.95,0-.36,3-.82-.37-2.14-3.32,1.09-.22.07-.27.09,2.36-1.91-1.64-.56v-.17l1.09-.22,1.41-.28.06-.74-9.67-.73,10.17.77,0-.62-1.83-2.29.11-.75,2.1-.83-2.47-2,3.52-.06.28-1.84-3.21-.83,0-.36,2.92-.95-.46-2.14-3.27,1.25-.22.08-.26.1,2.27-2-1.67-.49v-.17l1.07-.27,1.4-.36,0-.74h.5l0-.62-1.95-2.22.08-.76,2-1-2.57-1.87,3.5-.27Z" style="fill:#263238"></path><path d="M294.57,277.89l-.4-.06c-.33.24-.68.49-1,.72s-.71.4-1.08.59l-.48-.28q.12-1.07.3-2.1a22.79,22.79,0,0,1-2.38,1.57l1.7-3.06-.44-.36-.41-.44c-.74.78-1.52,1.55-2.31,2.31l-.21-.17q.57-1.38,1.23-2.67c-.16-.05-.14,0-.2,0l-.13.05-.16,0-.09,0-.11,0c-.37.43-.74.79-1.08,1.2a11.68,11.68,0,0,0-1,1.31l-.12.18-.14.23a13.54,13.54,0,0,1,1-2.2c-.49.28-1,.54-1.51.79l-.07-.08c.26-.25.52-.49.79-.72l1.06-.93-.2-.37.44-.25-.22-.26a13.06,13.06,0,0,1-2.43-.52c-.06-.17-.11-.37-.16-.57.55-.49,1.11-1,1.67-1.41-.49-.07-1-.15-1.47-.25l-1.45-.36,3.3-1.21c-.07-.48-.16-.93-.21-1.46l-3.28.25-.08-.31c.86-.53,1.72-1,2.59-1.55l-.91-1.67c-1,.59-1.94,1.21-2.91,1.84l-.19.13-.23.15c.58-.79,1.18-1.56,1.77-2.3l-1.72-.09,0-.16,1-.46,1.31-.59-.12-.65.5-.09-.15-.53c-.77-.54-1.51-1.1-2.27-1.67l0-.71,1.9-1.16L281,256.17l3.45-.65V253.8l-3.29-.28,0-.34,2.76-1.29-.73-1.93-3.08,1.6-.21.1-.25.13,2-2.2-1.71-.27,0-.17,1-.38,1.35-.49-.05-.69.5,0-.11-.58-2.14-1.92,0-.74,2-1.07-2.7-1.6,3.49-.48.07-1.77-3.28-.45,0-.35,2.81-1.22-.67-2L279,236.89l-.2.1-.26.12,2.08-2.18-1.71-.32,0-.17,1.05-.36,1.36-.46,0-.72.5,0-.09-.6-2.11-2,0-.75,2-1.06-2.68-1.66,3.48-.47.07-1.84-3.28-.44,0-.36,2.8-1.26-.7-2.06L278.1,222l-.2.11-.25.12,2-2.25-1.71-.3,0-.17,1-.39,1.35-.5-.06-.74.5,0-.11-.62-2.18-2v-.77l1.92-1.2-2.77-1.59,3.44-.7-.07-2-3.31-.23-.06-.38c.88-.52,1.77-1.06,2.65-1.6-.29-.72-.63-1.48-1-2.22-.95.72-1.91,1.42-2.87,2.09l-.19.13-.24.16c.59-.86,1.15-1.75,1.72-2.66l-1.74-.11-.05-.19.95-.57,1.24-.77-.21-.84-5.61,1.49,6.1-1.62c-.08-.23-.16-.46-.26-.71-.46-.36-.91-.7-1.36-1l-.68-.48-.74-.51-.32-1a11,11,0,0,0,.64-1.06c.18-.38.35-.78.52-1.19a17.38,17.38,0,0,0-1.89-.69q-.92-.18-1.8-.3c.87-.79,1.73-1.6,2.57-2.43a23.94,23.94,0,0,0-1.83-2.35q-1.54.76-3,1.65c-.12-.12-.25-.23-.38-.34a28.24,28.24,0,0,0,.52-3.27,23.16,23.16,0,0,0-3.12-1.3,23.93,23.93,0,0,1,.07,3.78l0,.24,0,.3a19.88,19.88,0,0,0-1.42-3.36c-.43.42-.85.84-1.26,1.27l-.21-.08,0-1.15c0-.5,0-1,0-1.49l-1-.36.16-.48c-.29-.09-.58-.14-.87-.21a21.49,21.49,0,0,0-3.33,1.26l-.94-.21c-.32-.75-.66-1.45-1-2.17a26,26,0,0,0-2.47,2.45l-.3-3.51c-.82-.07-1.62-.1-2.42-.11-.22,1.09-.41,2.19-.58,3.29l-.43,0c-.51-.92-1.05-1.82-1.62-2.71-.85.29-1.67.62-2.47,1,.75.94,1.47,1.92,2.14,2.89l.13.2.16.24c-.88-.61-1.81-1.2-2.76-1.74l-.13,1.74-.19.06-.57-1-.76-1.24c-.28.06-.57.13-.84.21l-.13-.49-.69.25c-.64.87-1.23,1.75-1.79,2.64l-.83.22c-.57-.52-1.16-1-1.76-1.53-.36,1.07-.69,2.13-1,3.2l-1.7-3.09c-.71.26-1.41.52-2.13.82.24,1.09.5,2.17.79,3.25l-.38.21c-.84-.65-1.71-1.23-2.62-1.81-.65.58-1.77,1.62-1.39,1.56.28.46.65.87,1,1.31.57.26,1.12.52,1.65.82l.21.12.25.15c-.28,0-.55-.09-.84-.11s-.65,0-.73-.16a6.25,6.25,0,0,1-.84-.77c.23.5.44,1,.63,1.55l-.07,0c-.19-.31-.37-.61-.54-.92l-.72-1.21-.4.14-.17-.47a3.21,3.21,0,0,1-.37.18c-.15.39-.3.79-.48,1.19l-.61,1.19-.65.09c-.43-.6-.85-1.2-1.26-1.81-.31,1-.69,1.9-1.07,2.86l-.89-3.4c-.53.05-1.09.07-1.63.11l-.05,3.3-.33.06-1.42-2.7c-.6.29-1.21.56-1.82.83l1.72,3,.11.2.14.24-2.26-1.9-.18,1.72-.16,0-.42-1L218,194.4l-.68.08,0-.5-.56.13c-.59.74-1.19,1.46-1.8,2.2h-.72l-1.1-1.95-1.49,2.73-.54-3.48-1.72-.05-.39,3.28-.34,0-1.2-2.81-1.93.67,1.47,3.14.1.21.12.25c-.71-.69-1.42-1.38-2.12-2.09l-.33,1.7-.16,0-.34-1.05-.43-1.36-.69,0,.11,2.79-.13-3.3-.57.08-2,2.06-.72-.05-.95-2-1.71,2.61-.27-3.51-1.71-.18-.63,3.25h-.35l-1-2.89-2,.52,1.22,3.25.08.21.1.26c-.66-.74-1.3-1.49-1.94-2.24l-.46,1.67h-.17L189.8,197l-.32-1.4-.69,0-.56,13.95.58-14.45-.57,0-2.12,1.9-.7-.12-.77-2.09c-.62.81-1.26,1.65-1.9,2.45l0-3.52-1.65-.33-.92,3.17-.34,0-.68-3c-.65.11-1.31.23-1.95.32.27,1.12.55,2.24.86,3.35l.06.22.07.27c-.58-.79-1.13-1.61-1.67-2.42l-.62,1.61h-.17l-.13-1.09-.16-1.42-.65-.1-.33,2.13.4-2.63-.55,0c-.74.55-1.51,1.12-2.27,1.64l-.66-.19-.45-2.17c-.71.75-1.41,1.46-2.15,2.18l.56-3.47c-.5-.18-1-.35-1.47-.55l-1.37,3-.32-.09c0-1-.09-2-.1-3h-1.8c0,1.13.06,2.27.13,3.42v.23l0,.27c-.38-.89-.76-1.75-1.06-2.65l-.9,1.46-.15,0,.13-1.09.18-1.41-.56-.2-5.72,14.31,1.77,1.12c1.13-1,2.19-2.13,3.21-3.23.06,1.35.15,2.72.26,4.08,1-1,1.93-1.94,2.85-2.93l-.93,4.76c.64.27,1.28.48,1.92.72q1-2.5,2-5c.1,1.68.22,3.34.37,5l2.36-.32c-.23-1.54-.43-3.1-.61-4.64l0-.3.46-.28c.32,1.13.66,2.27,1,3.39l.86-2.52-.07,1.75.4,2.35.31.06,0,.12c.6.25,1.19.46,1.79.69.82-1.26,1.63-2.51,2.4-3.79l.9,3.94c.77-1.11,1.51-2.21,2.24-3.34l-.19,4.83,1.9.43,1.22-5.27,1,4.92c.74-.21,1.48-.41,2.21-.64l-1.14-4.51-.07-.3.41-.33,1.39,3.24.55-2.61.13,1.75.64,2.3h.31V211l1.81.49c.67-1.34,1.33-2.67,2-4l1.26,3.84c.64-1.19,1.27-2.36,1.89-3.55l.25,4.84,1.88.25.75-5.36,1.4,4.82,2.12-.81L200,207.07l-.1-.29.38-.36,1.64,3.11.34-2.64.26,1.73.82,2.24h.31V211l1.84.35,1.64-4.17,1.54,3.74,1.61-3.68.62,4.8,1.9.11.34-5.4,1.77,4.7,2.07-1-1.84-4.28-.12-.28.35-.4,1.89,3,.13-2.65.4,1.7,1,2.16.3,0,0,.12L221,210c.45-1.44.88-2.87,1.3-4.29.62,1.2,1.25,2.38,1.9,3.57.45-1.27.88-2.54,1.3-3.82l1.09,4.72c.67,0,1.32-.06,2-.11-.06-1.81-.13-3.61-.23-5.41.76,1.5,1.56,3,2.4,4.43l1.06-.63,1.09-.68c-.9-1.3-1.76-2.59-2.56-3.93l-.16-.26.31-.44c.77.88,1.58,1.76,2.42,2.63l-.27-2.66.72,1.6c.49.64,1,1.27,1.51,1.9l.37-.12,0,.12A15.37,15.37,0,0,0,238,206a13.58,13.58,0,0,0,.4-2.57c0-.42.06-.81.06-1.23a.75.75,0,0,1,0-.15.18.18,0,0,0,0-.16l-.08-.25-.15-.52c1,.87,1.92,1.79,2.83,2.73a26.31,26.31,0,0,1-.47-3.8l2.36,4.23c.42-.12.86-.23,1.31-.33-.54-1.71-1-3.44-1.51-5.17,1,1.35,1.89,2.7,2.78,4.1.41-.43.84-.84,1.28-1.26q-1.19-1.93-2.51-3.83l-.18-.25.21-.46c.8.85,1.55,1.7,2.27,2.58l-.42-2.62.67,1.62c.41.67.81,1.34,1.19,2l.23-.06-1.8-6.84,1.83,7c.49,0,1,.05,1.44.1.18-1.43.41-2.85.72-4.28.57,1.19,1.1,2.42,1.57,3.64a37,37,0,0,1,1.11-3.68c.17,1.6.32,3.21.47,4.82.41.05.79.14,1.17.22.19-1.78.43-3.54.73-5.32a42.53,42.53,0,0,1,.55,4.89l.64-.3c.21-.09.44-.2.65-.27a32.68,32.68,0,0,0-.17-4.53l0-.31.37-.3a20.92,20.92,0,0,1,.53,3.31c.29-.83.6-1.67.92-2.48l-.3,1.72c0,.78-.11,1.54-.21,2.3l.15.05,2.13-6.32-2.17,6.44a5.25,5.25,0,0,1,.64.72,18.41,18.41,0,0,1,2.86-3.07,20.61,20.61,0,0,1-1.58,3.55,13.86,13.86,0,0,1,1.48-1.1,15,15,0,0,1,1.62-.91q-1.65,1.77-3.35,3.48a6.37,6.37,0,0,1,.21.66,51.9,51.9,0,0,1,4.61-2.75,18.19,18.19,0,0,1-3.91,2.9c.14-.08.32.11.5.19a6.39,6.39,0,0,1,.55.36A32.73,32.73,0,0,0,266,202l.24-.19.45.14a33.56,33.56,0,0,1-2.56,2.19c.86-.17,1.73-.34,2.6-.49l-1.61.68c-.67.4-1.33.77-2,1.14l0,.23-.12,0-.09,1.45c1.42.21,2.86.47,4.3.77-1.17.61-2.38,1.23-3.57,1.81,1.25.34,2.53.69,3.78,1.1l-4.76.91,0,1.66,5.39.1-4.68,1.75c.33.6.64,1.23.95,1.86l4.3-1.72.29-.12.39.34-3,1.78,2.66.16-1.72.35-2.19.89,0,.28,4.28-.36-4.41.37-.29,1.72,4.19,1.47-3.73,1.52,3.68,1.54-4.82.56-.14,1.78,5.38.45-4.75,1.56.88,2,4.35-1.59.29-.1.38.36-3.07,1.69,2.65.26-1.72.3-2.22.84v.3l9.19-.52-9.31.52-.34,1.78,4.17,1.57L266,238.62l3.67,1.59-4.81.55-.14,1.84,5.38.44-4.74,1.62.91,2,4.33-1.67.29-.11.38.36-3,1.76,2.65.22-1.71.33-2.2.91,0,.3,2.27-.18-2.4.19-.29,1.82,4.23,1.47-3.69,1.67,3.74,1.49L266,256l0,1.91,5.4.16L266.76,260l1.06,2.06c1.39-.68,2.79-1.36,4.19-2l.28-.13.41.34-2.9,2,2.66,0-1.69.48-2.11,1.11.06.31,7.95-1.32-8.08,1.34-.11,1.93c1.46.4,2.93.78,4.38,1.12-1.15.7-2.32,1.42-3.45,2.16,1.32.4,2.63.76,3.93,1.09L268.73,272c.08.69.23,1.42.34,2.14,1.8-.22,3.58-.47,5.36-.75-1.4.94-2.74,1.94-4.08,3l.79,1.08c.28.36.6.73.89,1.09a41.88,41.88,0,0,1,3.48-3.19l.24-.2.48.26a35.88,35.88,0,0,0-2.19,2.89c.86-.22,1.72-.44,2.57-.68l-1.46,1c-.55.59-1.06,1.22-1.56,1.87l.2.36-.11.06.42,1.19c.15.4.39.83.59,1.25.83,0,1.64-.05,2.43-.13a21.73,21.73,0,0,0,2.42-.37c-.52,1.28-.81,2.82-1.23,4.07a41.8,41.8,0,0,0,3.95-1.44q-1.32,2-2.59,4.11a18.13,18.13,0,0,0,1.9,1.56q1.86-2,3.58-4.09a48.38,48.38,0,0,0-.9,5c1,.17,1.91.32,2.84.45a46.08,46.08,0,0,1,.27-4.74l0-.31.54-.15a36.2,36.2,0,0,0,.43,3.65c.47-.76.94-1.53,1.39-2.3l-.37,1.71c0,.8.07,1.6.13,2.42l.37.12Z" style="fill:#263238"></path><path d="M243.55,184.26s2.53,5.53,3.22,5.64,1.5-.11,1.15-1.5-1.15-5.06-2.07-5.86S242.86,182.65,243.55,184.26Z" style="fill:#fff;stroke:#263238;stroke-linecap:round;stroke-linejoin:round"></path><path d="M245.85,182.54s.46-2.31,1.84-2.08,2.07,3.23,2.19,5.53-.35,2.87-1.15,2.64S246.2,183.23,245.85,182.54Z" style="fill:#fff;stroke:#263238;stroke-linecap:round;stroke-linejoin:round"></path><path d="M249,181.15a1.84,1.84,0,0,1,1.95-1c1.39.23,2,4.95,1.39,6.67s-2.19,0-2.19,0A46.48,46.48,0,0,0,249,181.15Z" style="fill:#fff;stroke:#263238;stroke-linecap:round;stroke-linejoin:round"></path><path d="M250.91,180.12s4.15-.81,4.15.57-.35,4.95-1.15,5.53-1.27-.46-1.27-.46S252.07,181,250.91,180.12Z" style="fill:#fff;stroke:#263238;stroke-linecap:round;stroke-linejoin:round"></path><path d="M345.3,285.3a10.92,10.92,0,0,1,7.45.14c3.93,1.54,6,6.74,6.32,10.82s-4.63,7-8,7.31-6.32-1.69-7.87-7.87A12.14,12.14,0,0,1,345.3,285.3Z" style="fill:#263238;stroke:#263238;stroke-linecap:round;stroke-linejoin:round"></path><path d="M341.12,283.33a21.43,21.43,0,0,0,.12-4.63c-.25-1.8-.38-4.5.39-6s2.31-3.6.26-3.34-3.6,3-3.6,3l-.39,1.28a73,73,0,0,0-1.93-7.07,5.11,5.11,0,0,0-1.56-2.42,1.7,1.7,0,0,0-1.83-.7,2.45,2.45,0,0,0-1.45,1.19c.15-.86-1.46.86-2,3.09-.18.79-.64,3.08-.64,3.08s-1.16-3.85-1.68-2.83.13,6.82,0,9.39,1.42,4.5,4.38,6.69,8.22,14.14,12.34,17.87,9.9-.26,11.06-3.09-.52-7.84-2.7-9.77S343.82,285,341.12,283.33Z" style="fill:#fff;stroke:#263238;stroke-linecap:round;stroke-linejoin:round"></path><path d="M337.9,273.56a18.9,18.9,0,0,1,1.07,5" style="fill:#fff;stroke:#263238;stroke-linecap:round;stroke-linejoin:round"></path><path d="M334.41,264.07s.5,9.58.78,10.75" style="fill:#fff;stroke:#263238;stroke-linecap:round;stroke-linejoin:round"></path><path d="M331.47,264.05s.2,8.88.56,10.59" style="fill:#fff;stroke:#263238;stroke-linecap:round;stroke-linejoin:round"></path><line x1="328.52" y1="270.73" x2="329.33" y2="276.98" style="fill:#fff;stroke:#263238;stroke-linecap:round;stroke-linejoin:round"></line></g><g id="christmas-tree"><path d="M218.89,395.58a326,326,0,0,1-29-46.36s15.8,9,21.07,6.32-4.74-10.53-14.22-32.66A309.41,309.41,0,0,1,182,278.63s13.69,7.9,17.91,7.9,2.63-3.16-10.54-26.86a215,215,0,0,1-19-47.41s7.37,7.9,13.17,5.26-13.17-14.75-19.49-25.81a193.61,193.61,0,0,1-10-20s7.37,3.16,12.11,2.11-9-7.9-14.22-17.38c-4.2-7.56-5.9-16.1-8.75-24.18-.57-1.63-5-14.2-6.53-14.42a4.75,4.75,0,0,0-.81,0,2.35,2.35,0,0,0-.77.06c-2.74.4-5.85,12.14-6.71,14.64-2.73,8-4.43,16.49-8.56,23.94-5.27,9.48-19,16.33-14.23,17.38s12.12-2.11,12.12-2.11a193.61,193.61,0,0,1-10,20c-6.32,11.06-25.29,23.18-19.49,25.81s13.17-5.26,13.17-5.26a215.37,215.37,0,0,1-19,47.41c-13.17,23.7-14.75,26.86-10.53,26.86s17.91-7.9,17.91-7.9a309.41,309.41,0,0,1-14.75,44.25c-9.48,22.13-19.49,30-14.22,32.66s21.07-6.32,21.07-6.32a326.66,326.66,0,0,1-29,46.36c-18.43,24.76-21.07,29.5-17.38,30s19.49-6.33,19.49-6.33S39.78,437.72,37.68,443s12.11,6.32,22.12,3.16S89.3,434,89.3,434,78.24,446.68,84,447.2,107.21,434,107.21,434s2.64,13.17,9.49,13.17c5,0,14.46-7.55,19.22-11.65,4.77,4.1,14.24,11.65,19.23,11.65,6.85,0,9.48-13.17,9.48-13.17s17.39,13.7,23.18,13.17S182.54,434,182.54,434s19.5,9,29.5,12.12,24.24,2.11,22.13-3.16-17.38-23.71-17.38-23.71,15.8,6.85,19.49,6.33S237.33,420.34,218.89,395.58Z" style="fill:#92E3A9;stroke:#263238;stroke-linecap:round;stroke-linejoin:round"></path><path d="M100.22,164.63c.75,1.35,1.52,2.66,2.35,4-1.34-.22-2.71-.42-4.08-.58.69,1.24,1.4,2.42,2.15,3.58l-4.47-1.87c-.41.66-.84,1.31-1.22,2q2.25,1.54,4.55,3c-1.69-.15-3.39-.24-5.09-.25l-.11,1.42,0,1.46c1.6-.17,3.16-.28,4.75-.3h.31l.19.53c-1.17.24-2.36.53-3.56.88.79.4,1.61.79,2.42,1.17l-1.75-.17c-.8.11-1.61.25-2.42.42l-.09.39-.13,0c-.27.8-.58,1.59-.81,2.44a29.71,29.71,0,0,0,3.91,2.79,22.37,22.37,0,0,0-3.75,2c.64.44,1.27.84,1.92,1.21a19.63,19.63,0,0,0,2,1q-2.31.72-4.61,1.55c.09.55.24,1.12.38,1.68a12.32,12.32,0,0,0,.53,1.7,36.44,36.44,0,0,0,5.38-1.15,22.57,22.57,0,0,0-2.89,4.47,18.08,18.08,0,0,0,3.24,2.4,19.63,19.63,0,0,1,1.61-4.68l.14-.29.62.17a16.28,16.28,0,0,0-.5,3.87c.72-.52,1.43-1.09,2.11-1.68-.27.51-.54,1-.79,1.56a25.32,25.32,0,0,0-.32,2.53l.42.28,8.13-13.54-.2-.08a8,8,0,0,1-1.92,1l-.15-.29a10.45,10.45,0,0,1,1.44-1.46,7.51,7.51,0,0,1-1.23.49,7.79,7.79,0,0,1-1.31.24c1-.51,2.11-1,3.18-1.45,0,0,0-.13,0-.19a.56.56,0,0,1,0-.2,31.29,31.29,0,0,1-3.23.38,1.06,1.06,0,0,1,0-.19,18.69,18.69,0,0,1,2.82-.81,2.68,2.68,0,0,1-.29-.47,2.87,2.87,0,0,1-.25-.56,25.41,25.41,0,0,0-3.24.76l-.22.07-.26.09c.37-.27.74-.52,1.1-.74s.78-.45,1.16-.64c-.55-.15-1.1-.31-1.65-.49a.57.57,0,0,1,0-.13l1.1-.09,1.41-.06.08-.49.49.1,0-.43c-.26-.33-.54-.66-.79-1s-.47-.73-.7-1.12c.08-.19.16-.38.26-.57.73,0,1.46-.06,2.19-.05a29.23,29.23,0,0,1-1.82-2.41l3.3,1.21.8-1.26c-.89-.65-1.76-1.31-2.63-2l.16-.29c1,.16,2,.34,3,.55.15-.6.27-1.22.44-1.84-1.13-.23-2.24-.42-3.39-.59l-.23,0-.27-.05c1-.2,1.91-.38,2.88-.53l-1.2-1.24.08-.14,1,.34,1.35.47.38-.54-12.7-8.73C101.23,163.6,100.71,164.1,100.22,164.63Z" style="fill:#263238"></path><path d="M126.69,140.7c-.11,1.55-.11,3.1-.1,4.61-1-.9-2.07-1.77-3.14-2.63,0,1.37-.08,2.78-.06,4.16l-2.8-4c-.71.32-1.37.68-2,1,.73,1.66,1.47,3.29,2.26,4.93q-2-1.56-4.07-3c-.54.7-1,1.44-1.53,2.14,1.36.82,2.68,1.66,4,2.53l.26.17-.12.55c-1.09-.49-2.21-1-3.34-1.39l1.32,2.33L116,151l-2.11-1.18-.26.23,4.49,5.17-4.58-5.27L111.7,151c.38,1.48.83,3,1.29,4.4-1.24-.58-2.49-1.12-3.76-1.64.36,1.34.73,2.65,1.15,4l-3.77-3.05c-.55.49-1.11,1-1.64,1.47q1.73,2.1,3.5,4.15c-1.56-.67-3.12-1.3-4.7-1.9-.32.81-.63,1.61-.91,2.43,1.51.45,3,.93,4.48,1.45l.29.1,0,.55c-1.18-.2-2.36-.36-3.57-.5l1.85,1.92-1.55-.83-2.33-.61-.2.29,13,8.94.26-.49c-.18-.91-.31-1.82-.44-2.77.15-.18.33-.34.49-.52.72.18,1.44.38,2.15.57-.34-1-.62-1.95-.9-2.95l2.81,2.1c.4-.38.82-.73,1.23-1.09-.67-.88-1.33-1.77-2-2.66l.23-.24q1.4.63,2.76,1.29c.3-.59.63-1.14,1-1.72-1-.49-2.08-1-3.15-1.42l-.22-.09-.26-.11c1,0,2,.11,3,.2l-.84-1.51.11-.12.93.6,1.19.79.5-.44.33.37.38-.39c.06-.93.14-1.87.26-2.79l.59-.38c.65.35,1.29.74,1.92,1.12-.07-1-.13-2.05-.14-3.07l2.15,2.79c.46-.24.92-.48,1.39-.67-.41-1-.81-2-1.19-3.08l.28-.17c.76.67,1.52,1.35,2.26,2,.45-.47.9-.9,1.35-1.34-.83-.78-1.69-1.55-2.57-2.29l-.18-.15-.21-.18c.93.33,1.84.69,2.72,1.07l-.39-1.67.14-.08.69.85.88,1.12.54-.22-5.93-14.23C128.15,140.34,127.43,140.52,126.69,140.7Z" style="fill:#263238"></path><path d="M138.47,154.86c0-.77,0-1.53-.07-2.29a18.49,18.49,0,0,0-.52,2.37C138.3,155,138.44,154.92,138.47,154.86Z" style="fill:#263238"></path><path d="M138.66,151.78s0,0-.08,0l-.19.27c0,.18,0,.37,0,.56C138.48,152.3,138.57,152,138.66,151.78Z" style="fill:#263238"></path><path d="M138.37,151.35c-.08.32-.16.65-.23,1,.09-.1.16-.21.25-.32S138.38,151.57,138.37,151.35Z" style="fill:#263238"></path><path d="M138.37,151h0Z" style="fill:#263238"></path><path d="M138.06,152.67c0-.11.06-.22.08-.34a5.62,5.62,0,0,1-.75.71,9.51,9.51,0,0,1,.46,1C137.9,153.57,138,153.1,138.06,152.67Z" style="fill:#263238"></path><path d="M137.52,151.23l.21,0a4.43,4.43,0,0,0,.47-.17Z" style="fill:#263238"></path><path d="M137.39,153c-.16-.3-.34-.6-.52-.9a5.42,5.42,0,0,0-.54.08c-.11.26-.21.53-.31.81a4.17,4.17,0,0,0,.37.68A6.23,6.23,0,0,0,137.39,153Z" style="fill:#263238"></path><path d="M153.15,160.71l-.05.1v0a9.8,9.8,0,0,0,1.34.37l.17,0-1.25-.83Z" style="fill:#263238"></path><path d="M166.36,152.75a33.31,33.31,0,0,0,4.38-4.27,13.74,13.74,0,0,0-2.21-2.8,20,20,0,0,1-2.8,4.49l-.23.27-.45-.29a12.13,12.13,0,0,0,1.49-3.89q-1.22.59-2.37,1.26c.35-.46.7-.93,1-1.4a22.43,22.43,0,0,0,.69-2.39,3.91,3.91,0,0,0-.41-.3l-2.48,2.8,2.56-2.9a13.36,13.36,0,0,0-2.43-1.79,22,22,0,0,0-4.9,3.09,14.48,14.48,0,0,0-.26-1.95,15.32,15.32,0,0,0-.52-2,22.16,22.16,0,0,0-2.13,1.82,20.29,20.29,0,0,0-1.8,1.94c0-1.63,0-3.26,0-4.88-1.29.07-2.61.18-3.94.37a33.53,33.53,0,0,0-.49,5.59c-.74-1.08-1.42-2.17-2.13-3.25a11.47,11.47,0,0,0-.06-1.84,9.16,9.16,0,0,0-5.34,1.28c.28-1.59.48-3.21.62-4.84a18.27,18.27,0,0,0-4.16-.64q-.37,1.35-.63,2.7c-.15.91-.27,1.82-.36,2.72a34.49,34.49,0,0,0-2.73-4.47c-.53.24-1,.5-1.5.75s-.9.54-1.34.81a42.84,42.84,0,0,1,3,3.75l.18.26-.38.46a32.59,32.59,0,0,0-2.79-2.43c.13.88.26,1.77.41,2.64l-.84-1.54c-.56-.6-1.12-1.19-1.69-1.77l-.35.15L135,154.87l.42-.24c.17-.54.36-1.07.56-1.6a2.38,2.38,0,0,1-.21-1,7.75,7.75,0,0,0,2.56-1c-.21.05-.41.11-.62.15h0c-.19.06-.39.11-.58.15.12,0,.25-.08.37-.12a10.6,10.6,0,0,1-1.13.16V151l1.85.07h.16l.09-.06.29-.07,0,0c-.12,0-.25.05-.37.09l5.68.22L147,159c.07-.05.28-.14.43-.22.41-.84.88-1.69,1.37-2.53l.74-.14c.49.57,1,1.13,1.43,1.72l.52-1.47a8.82,8.82,0,0,1,.1-1.34c.19,1.15.35,2.32.47,3.49a.55.55,0,0,1,0,.18,24.53,24.53,0,0,1,.6-3.42l.14,0a14.72,14.72,0,0,1-.61,3,2.05,2.05,0,0,1,.42-.6,14.42,14.42,0,0,0,1.26-3.47l0-.22.05-.28a5.52,5.52,0,0,1-.31,2.38c.41-.6.85-1.2,1.32-1.78h.09c-.22.38-.44.77-.68,1.15s-.64,1-1,1.47l.13.05-.45.51.13,0a7.29,7.29,0,0,1,2.37-1.3c0,.11,0,.22,0,.33a20.19,20.19,0,0,1-2.28,1.53,8,8,0,0,1,2.77-.7c-1.27.46-2.53.88-3.79,1.27l-.2.06a23.63,23.63,0,0,1,3.35-.13l0,.14a12.69,12.69,0,0,1-3,0,1.36,1.36,0,0,1,.25.11s0,.08,0,.15l0,.22,0,.41c1.12,0,2.28-.19,3.36-.08h.49c-.2.06-.4.1-.6.14a3.2,3.2,0,0,0-.64.28,12.13,12.13,0,0,1-1.3.48l1.48.86,0,.13c-.3,0-.6-.11-.9-.17L166.18,169l.55-.83.29-.46.47-.77c.27-.46.52-.9.74-1.32a30.92,30.92,0,0,0-3.16-3.63,20.32,20.32,0,0,0,4.28-1.65,15.08,15.08,0,0,0-3.07-3.22q2.52-.48,5-1.11l.35-2c.11-.66.09-1.27.14-1.91A32.83,32.83,0,0,0,166.36,152.75Z" style="fill:#263238"></path><path d="M153.07,160.87l0,0h0Z" style="fill:#263238"></path><path d="M174,241.2h0s.07.06.1.08l0-.07,0,0A.09.09,0,0,0,174,241.2Z" style="fill:#263238"></path><path d="M193.78,252.31v-1.93a14.65,14.65,0,0,0-.1-1.87,19.51,19.51,0,0,1-4.66,1.24l-.3,0-.27-.56a15.62,15.62,0,0,0,1.72-.71,17.45,17.45,0,0,0,1.63-1c-.86-.27-1.73-.51-2.6-.71.58-.08,1.16-.16,1.74-.26.77-.36,1.53-.77,2.24-1.16l0-.45h.12a17.35,17.35,0,0,0,.05-2.7c-.77-.31-1.53-.57-2.28-.8s-1.55-.37-2.31-.5a26.12,26.12,0,0,0,2.88-3.06c-.73-.15-1.45-.27-2.15-.36s-1.44-.11-2.13-.12q2-1.39,3.93-2.85c-.41-.83-.88-1.58-1.36-2.36q-2.46,1.22-4.77,2.63a39.73,39.73,0,0,0,2.4-4.52,26.38,26.38,0,0,0-2.64-1.36,35.51,35.51,0,0,1-1.63,4.47l-.12.28-.56,0a24.82,24.82,0,0,0,.62-3.6c-.68.59-1.33,1.19-2,1.81.28-.52.56-1,.82-1.56a16.06,16.06,0,0,0,.41-2.45l-.2-.13-.33-.2-7.79,13.64a8.05,8.05,0,0,1,2.09-.87l.29.37a19.53,19.53,0,0,1-1,1.83,16.29,16.29,0,0,1,2.62-.94c-.88.77-1.78,1.52-2.69,2.27a4.28,4.28,0,0,1,.24.68c1-.5,1.95-1,3-1.38a.56.56,0,0,1,.09.17,20.89,20.89,0,0,1-2.39,1.66,5.31,5.31,0,0,1,.74.46,16.77,16.77,0,0,0,2.87-1.58l.18-.13.22-.15a8.66,8.66,0,0,1-1.78,1.7c.56-.07,1.13-.12,1.7-.15l0,.09-1,.34c-.45.13-.91.26-1.36.37a2.46,2.46,0,0,0,0,.28l7.77-.64-8.27.68.1.19a5,5,0,0,1,2,.62l-.1.22a10.7,10.7,0,0,1-2-.41,7.6,7.6,0,0,1,2.22,1.51c-1.06-.57-2.1-1.17-3.13-1.8a.44.44,0,0,1-.16-.1,26.61,26.61,0,0,1,2.3,2.33l-.09.07a14.15,14.15,0,0,1-2-2.1,4.27,4.27,0,0,1-.67,1.11c.81.75,1.68,1.49,2.54,2.19l.18.13.21.17c-.83-.3-1.67-.65-2.49-1l.57,1.62-.12.08-.73-.81-.93-1.07-.5.27-.24-.44-.39.27c-.2.85-.44,1.7-.7,2.56l-.62.21L171,250.53c-.11,1-.26,2-.42,3L169,250.38l-1.52.42.65,3.23-.3.12L166,251.8,164.41,253l2.27,2.59.15.18.18.2-2.54-1.4.21,1.71-.14.07-.62-.92-.8-1.18-.62.22-.16-.48-.5.24-1.2,2.52-.68.15-1.47-1.65-.79,3-1.31-3.26-1.64.33.41,3.28-.32.1-1.8-2.45-1.67,1.1,2.15,2.7.15.18.17.22-2.5-1.53.11,1.73-.15.05-.58-.94-.75-1.21-.65.19,4.48,14.75,1.73-.08.46-4.4,2.32,3.28.59-3.93,1.7,4.54,1.75-.3-.94-5.31,2.7,4.2,1.68-1.37-2.66-3.79L163,266l.24-.45,2.41,2.51-.48-2.61.75,1.58,1.41,1.91.27-.1-3.88-11.09L167.6,269l1.77-.17.27-4.44,2.54,3.13c.14-1.33.27-2.65.38-4l2,4.4,1.82-.47-1.36-5.23c1,1.32,2.07,2.61,3.14,3.9l1.68-1.61c-1.08-1.13-2.12-2.27-3.14-3.43l-.21-.23.2-.49c.9.75,1.82,1.47,2.76,2.19l-.79-2.55,1,1.47c.56.56,1.13,1.12,1.71,1.66l.29-.15-4.3-8.17,4.36,8.28c.64-.17,1.29-.37,1.95-.58-.07-1.53-.19-3.05-.39-4.54a14.9,14.9,0,0,0,3.62,2.11,16,16,0,0,0-.31-4.43q1.93,1.48,3.95,2.88a17.26,17.26,0,0,0,2.24-2.52,35,35,0,0,0-4.13-3.58A20,20,0,0,0,193.78,252.31Z" style="fill:#263238"></path><path d="M148.65,258.41l-1.33,2.49-.69.13-1.44-1.7-.9,3-1.22-3.3-1.69.31.33,3.28-.32.1-1.77-2.48-1.72,1.08L140,264l.14.18.17.22-2.5-1.56.09,1.73-.16.06-.57-.95-.74-1.22-.66.19-.14-.48-.53.22-1.38,2.48-.7.14-1.44-1.71-.92,3L129.46,263l-1.71.31.33,3.29-.33.1-1.8-2.46-1.74,1.1,2.18,2.71.14.18.18.21-2.55-1.52.11,1.73-.15.06-.59-.94-.77-1.21-.66.21-.15-.48-.54.23L120.05,269l-.71.15-1.5-1.65-.87,3-1.34-3.25-1.76.4.45,3.28-.33.11-1.94-2.37-1.76,1.23c.8.85,1.58,1.7,2.36,2.57l.16.17.18.21c-.88-.47-1.77-.92-2.68-1.36l.2,1.72-.15.07-.66-.89-.86-1.15-.69.27,3.43,8.7L108,271.08l-.57.29a24,24,0,0,0-1.55,2.89l-.8.33c-.64-.42-1.29-.84-2-1.24q-.28,1.65-.42,3.27l-2.14-2.79c-.63.33-1.23.67-1.83,1,.42,1,.86,2,1.3,3.06l-.3.22c-.88-.55-1.76-1.08-2.66-1.6-.49.61-1,1.22-1.42,1.84,1.06.51,2.11,1.05,3.14,1.6l.2.11.25.14c-1-.14-2-.25-3.06-.35l.75,1.57-.13.13-.93-.61-1.21-.79-.57.5-.33-.37-.44.47c-.11,1-.19,2-.26,3l-.59.48-2.12-.78c.16,1.05.34,2.09.53,3.12l-2.69-2.26-1.42,1.21,1.91,2.7-.24.26-2.84-1.16-1,1.92,3.3,1.15.21.07.27.1-3,.07,1,1.43-.1.13-1-.48-1.3-.61-.47.54,11.71,10,1.35-.9c-.67-1.3-1.32-2.61-2-3.93,1.21.56,2.41,1.13,3.61,1.71-.52-1.19-1-2.4-1.5-3.61l3.67,3.16,1.26-.95-3.32-4.25c1.42.87,2.83,1.74,4.22,2.64l.74-1.77q-1.94-1.23-3.91-2.4l-.27-.16v-.5c1.06.44,2.12.89,3.16,1.36l-1.51-2.18L102,291l2,1.27.19-.17.08.1,1.4-.64c-.5-1.36-1-2.73-1.39-4.13,1.09.76,2.16,1.54,3.2,2.35-.33-1.24-.63-2.49-.9-3.76l3,3.84c.42-.2.84-.37,1.25-.53q-1.22-2.4-2.32-4.85c1.14,1.18,2.25,2.41,3.29,3.67.29-.45.57-.89.87-1.31-.9-1.21-1.87-2.38-2.89-3.51l-.21-.23.12-.46a30,30,0,0,1,2.46,2.31c-.28-.84-.54-1.68-.78-2.53l.82,1.54c.46.63.87,1.27,1.36,1.89l.24-.09,0,.11,1.59-.15c0-1.45.07-2.92.13-4.38l2.39,3.2c.12-1.3.25-2.61.39-3.91l1.79,4.5,1.63-.28-1-5.3,2.63,4.23,1.58-1.31-2.55-3.85-.16-.25.23-.45,2.32,2.57-.43-2.62.71,1.6,1.31,2,.26-.08,0,.12,1.69-.07.43-4.39,2.27,3.31.6-3.9,1.61,4.56,1.7-.23-.81-5.34,2.53,4.3,1.66-1.28-2.48-3.91-.16-.25.24-.45,2.28,2.62-.37-2.63.68,1.62,1.29,2,.27-.08-4.18-14.27,4.21,14.39,1.72,0,.5-4.39,2.25,3.32.64-3.9,1.6,4.57,1.73-.25-.81-5.33,2.56,4.28,1.67-1.29-2.51-3.89-.16-.25.24-.45,2.31,2.6-.39-2.62.69,1.6,1.32,2,.27-.08-4.58-15.11Z" style="fill:#263238"></path><polygon points="82.74 291.79 82.92 294.69 82.4 295.21 80.22 294.65 81.12 297.66 78.22 295.68 76.96 296.99 79.14 299.48 78.92 299.76 76 298.84 75.22 300.81 78.59 301.68 78.81 301.74 79.08 301.81 76.11 302.12 77.22 303.45 77.13 303.59 76.1 303.19 74.76 302.69 74.34 303.26 86.82 312.3 88.11 311.26 85.83 307.5 89.6 308.86 87.78 305.37 91.74 308.15 92.94 307.03 89.2 303.15 93.71 305.27 94.29 303.35 90.08 301.48 89.81 301.36 89.75 300.85 93.08 301.79 91.31 299.81 92.76 300.79 94.91 301.75 95.08 301.55 83.09 291.29 82.74 291.79" style="fill:#263238"></polygon><polygon points="73.63 303.48 74.05 306.34 73.57 306.89 71.37 306.49 72.5 309.42 69.45 307.65 68.3 309.04 70.65 311.37 70.46 311.66 67.48 310.95 66.83 312.97 70.26 313.59 70.48 313.64 70.76 313.69 67.81 314.21 69.02 315.46 68.93 315.61 67.88 315.29 66.5 314.88 66.12 315.48 79.22 323.6 80.43 322.49 77.89 318.89 81.74 319.98 79.68 316.63 83.84 319.12 84.96 317.91 80.95 314.31 85.6 316.08 86.06 314.11 81.71 312.56 81.42 312.46 81.33 311.97 84.73 312.63 82.81 310.8 84.34 311.65 86.56 312.44 86.72 312.22 73.93 302.97 73.63 303.48" style="fill:#263238"></polygon><path d="M65.43,315.76l.61,2.85-.35.49-.36-.24-.36.3L63.36,319l1.33,2.89.15-.08c.15-.08.3-.13.45-.2.42.62.85,1.24,1.26,1.86a16.1,16.1,0,0,1-3.08-1.45,1,1,0,0,0,.48.08h.18c.06,0,.2-.08.3-.11l.17-.06.09,0-3.21-1.42c-.38.58-.75,1.14-1.21,2,.84.79,1.68,1.55,2.5,2.47l-.09.28c0,.13-.06.18-.12.41l-.06.29,0,.15,0,.31q0,.31-.06.63v.38c0,.15,0,.3,0,.44a6.45,6.45,0,0,0,.14.88l0,.16V329s0,0,0,.14A6.26,6.26,0,0,0,63,330a6,6,0,0,0,1.18,1.73,6.45,6.45,0,0,0,.75.66,6.24,6.24,0,0,0,1,.6,6.52,6.52,0,0,0,2.36.63,5.86,5.86,0,0,0,.59,0l.44,0,.41,0a6.17,6.17,0,0,0,.82-.15,7.3,7.3,0,0,0,.79-.26l.19-.08.08,0,.14,0,.53-.21.26-.12.12-.07.07,0,.51-.18a1.3,1.3,0,0,1,.39-.1l.33-.08.54,0a10,10,0,0,1,1.79.13A18.81,18.81,0,0,0,77.3,330h0l.68-.84c-.89-.62-1.76-1.26-2.63-1.9l0,0,1,.36,1.36.45.41-.6-.22-.15.41.12c.07-.64.16-1.29.26-1.95l-4.44-1.22-.19,0a5.21,5.21,0,0,1,.32.68l-5.89-3.93h.37a6.35,6.35,0,0,1,3.7,1.43,6.24,6.24,0,0,1,1.32,1.51l0-.2,3.42.42-2-1.68,1.58.74,2.27.63.14-.23L65.7,315.22Zm8.39,13.52-.23,0-.28-.06,1.23-.21c.64.28,1.29.55,1.93.84Zm.86-3a1.49,1.49,0,0,1,0,.21,2.72,2.72,0,0,1,0,.28L73.58,326ZM74,328.74l-.11.05a.91.91,0,0,1-.44-.09,2.68,2.68,0,0,1-.74-.52Z" style="fill:#263238"></path><polygon points="64.69 321.92 64.69 321.92 64.69 321.92 64.69 321.92" style="fill:#263238"></polygon><path d="M74,324.16l-.18-.31.08.29Z" style="fill:#263238"></path><path d="M207.46,324.51c-.1,0-.18-.06-.28,0l-.32.09-.62.18L205,325a13.47,13.47,0,0,1-2.43.26h-.32a4.78,4.78,0,0,0-.15-.6c1.19-.23,2.53-1.12,3.49-.77-.84-.29-1.67-.61-2.5-1,.55.15,1.11.3,1.67.47a16.07,16.07,0,0,1,2.17.62s0,0,0-.05l-14.83-6.75c0,.31,0,.66,0,1,.21.72.45,1.42.63,2.11a7.52,7.52,0,0,0,.32,1,3.61,3.61,0,0,1,.44.22c-.05,0-.05.07-.11.14a11.48,11.48,0,0,1-2-.59c.18.12.36.26.54.4s.29.33.43.5a11.64,11.64,0,0,1,.82,1.1c-1-.62-2-1.26-2.93-1.92-.16.15-.48.37-.7.55.75.8,1.47,1.62,2.17,2.47a1.62,1.62,0,0,1-.18.19q-1.33-.74-2.58-1.53a7.19,7.19,0,0,1-.68,1.36c.48.3,1,.61,1.46.9s.95.57,1.43.85l.2.1.24.14c-.46-.08-.87-.16-1.33-.26s-.92-.21-1.37-.33l.79,1.52-.11.1-.85-.69-1.08-.9-.43.35-.3-.41a4,4,0,0,1-.37.33c-.1.86-.22,1.74-.36,2.63l-.56.3-1.76-1.3c0,1,0,2-.06,3l-1.95-2.93-1.41.6c.35,1,.7,2.1,1,3.14l-.29.14L179,329.34l-1.39,1.31q1.23,1.17,2.52,2.34l.17.15.2.19c-.9-.37-1.79-.74-2.67-1.13l.38,1.69-.14.08-.69-.84-.9-1.1-.61.26,5.26,11.54-5.47-12-.48.28-1,2.6-.66.21-1.59-1.53c-.18,1-.36,2-.57,3l-1.53-3.17-1.63.42.61,3.24-.32.12-1.94-2.34-1.59,1.2,2.28,2.57.16.17.18.21L165,337.47l.19,1.71-.15.06-.63-.91-.8-1.19-.65.21,5,14.56,1.83-.15c.12-1.47.23-3,.32-4.47l2.55,3.12.43-4,2,4.42,1.83-.43-1.27-5.24c1,1.32,2,2.64,3.06,3.95l1.67-1.56c-1-1.17-2-2.34-3-3.53l-.2-.23.21-.48,2.68,2.28-.68-2.57.89,1.51,1.61,1.77.28-.12.05.11c.61-.09,1.23-.23,1.85-.38,0-1.51,0-3-.11-4.49,1,.94,1.94,1.88,2.93,2.81,0-1.35,0-2.65,0-4l2.54,4.12,1.86-.77c-.64-1.68-1.3-3.36-2-5,1.21,1.16,2.44,2.32,3.69,3.45.52-.63,1-1.29,1.54-1.93-1.25-.95-2.46-1.91-3.65-2.9l-.23-.2.14-.52c1,.59,2,1.17,3.09,1.73l-1.13-2.41,1.18,1.31,2,1.4a2.34,2.34,0,0,0,.27-.2L190.86,331l5.44,7.43,1.89-.95c-.3-1.51-.62-2.93-1-4.42,1.2.62,2.44,1.19,3.73,1.72a41,41,0,0,0-1.06-4.05c1.28,1,2.58,2,3.88,2.91l.94-.92c.15-.16.3-.3.46-.48l.46-.57a52.06,52.06,0,0,0-3.86-3.86c.83.19,1.68.37,2.54.48a22.9,22.9,0,0,0,2.64.12l.21-.92c.07-.3.13-.61.18-1l.13-1.05,0-.52,0-.26v-.13Z" style="fill:#263238"></path><path d="M162.28,337.11,161,339.64l-.69.16-1.48-1.65-.83,3-1.29-3.27-1.65.3.36,3.29-.32.09-1.76-2.47-1.7,1.05,2.1,2.76.14.18.18.22-2.5-1.58.07,1.72-.16.06-.55-.95-.72-1.24-.65.18-.13-.49-.54.21-1.44,2.43-.71.11L145.39,342l-1.06,2.92-1.06-3.35-1.71.21.14,3.31-.33.08-1.63-2.58-1.8,1,2,2.86.13.19.16.23-2.43-1.71,0,1.74-.16,0-.51-1-.66-1.27-.68.15-.1-.49-.56.18-1.58,2.38-.71.08-1.32-1.8L130.28,348l-1-3.38-1.74.17,0,3.31-.34.06-1.58-2.61-1.85.94,1.92,2.89.12.19.16.24-2.41-1.75-.07,1.73-.16,0-.5-1-.64-1.28-.69.14-.1-.49-.56.17-1.64,2.36-.73.08L117.24,348,116,350.91l-.94-3.39-1.78.17,0,3.31-.34.07-1.59-2.61-1.88,1,1.95,2.89.12.19.16.23L109.3,351l-.06,1.74-.17,0-.5-1-.66-1.28-.7.15-.1-.49-.58.18-1.63,2.39-.73.09L102.81,351l-1.19,2.91-1-3.36-1.81.22.11,3.31-.35.09-1.69-2.57-1.89,1L97,355.47l.14.18.16.23-2.53-1.64V356l-.16,0-.55-1-.72-1.25-.7.18-.13-.49-.58.21-1.56,2.49-.74.13-1.47-1.72-1.06,3-1.23-3.3-1.84.36.31,3.29-.34.11-1.91-2.41-1.87,1.2,2.33,2.62.15.18.19.21-2.71-1.42.14,1.73-.16.07-.64-.9-.84-1.17-.71.26,5.26,14.48,1.63-.13c.08-1.46.18-2.92.29-4.39l2.32,3.26c.16-1.3.35-2.61.55-3.9l1.64,4.56,1.66-.23-.79-5.34,2.49,4.33,1.65-1.24-2.39-4-.16-.26.26-.44,2.22,2.67-.29-2.64.63,1.63,1.23,2,.27-.07-3-11.78,3.06,11.9,1.71,0,.7-4.37L101,368l.87-3.86,1.33,4.66,1.72-.14-.44-5.38,2.25,4.46,1.77-1.17-2.21-4.06-.15-.27.29-.43,2.11,2.77-.16-2.65.55,1.66,1.15,2.07.28-.06-1.66-7.84,1.69,8,1.74.07.88-4.34,2,3.49,1-3.84,1.21,4.69,1.77-.1-.32-5.39,2.18,4.5,1.82-1.15-2.16-4.09-.14-.27.29-.43,2.09,2.81-.13-2.66.54,1.67,1.13,2.08.29-.06L123.44,357l1.17,5.82,1.77.08.93-4.34,2,3.49,1-3.84,1.22,4.68,1.79-.11-.34-5.39,2.24,4.48,1.84-1.17-2.23-4.07-.15-.27.3-.43,2.13,2.78-.16-2.66.56,1.66,1.18,2.06.28-.06,0,.13,1.79,0,.86-4.37,2.09,3.45.94-3.88,1.36,4.64,1.83-.17-.52-5.37,2.41,4.38,1.83-1.26-2.41-4-.15-.26.28-.45,2.25,2.69-.27-2.65.64,1.63,1.28,2,.28-.08,0,.13,1.82-.06.65-4.41,2.31,3.31.72-3.94,1.66,4.55,1.85-.29-.88-5.34,2.72,4.19,1.74-1.39-2.69-3.78-.17-.25.25-.47L166,351l-.46-2.61.76,1.58,1.42,1.91.28-.1-5.17-14.91Z" style="fill:#263238"></path><path d="M77.26,358.25c-.47.89-.93,1.73-1.37,2.65l-.74.23-1.7-1.51c-.27,1.05-.52,2.07-.75,3.11L71,359.64l-1.88.68.77,3.22-.35.16c-.76-.71-1.53-1.38-2.32-2l-1.78,1.58c1,.69,1.91,1.41,2.83,2.13l.18.14.23.18c-1-.3-2-.6-3-.88l.44,1.69-.15.11-.82-.75-1.08-1-.69.43-.26-.42-.56.41-.47,1.47-.41,1.53-.72.43c-.69-.34-1.39-.66-2.11-1,0,1.07,0,2.24,0,3.34l-2.51-2.47c-.6.45-1.21.87-1.81,1.35.56,1,1.13,1.94,1.72,2.89l-.29.31c-1-.38-2-.72-3-1-.23.38-.47.74-.68,1.15l-.6,1.22c1.2.21,2.35.45,3.5.77l.23.06.28.08a27.3,27.3,0,0,0-3.24.53l1,1.41-.11.17-1.08-.34-1.43-.41-.48.78,13,8.36a6.51,6.51,0,0,1,1-.72A41,41,0,0,1,62,381.58c1.2.55,2.4,1.17,3.54,1.81-.57-1.12-1.09-2.3-1.57-3.52l3.47,3.37,1.15-.65c-1-1.47-2-3-3-4.51,1.28,1,2.57,2.08,3.81,3.17l.84-1.56c-1.12-1-2.27-2-3.47-3l-.24-.19.07-.49c1,.58,1.94,1.18,2.87,1.82l-1.14-2.38,1.1,1.36c.59.52,1.17,1,1.74,1.58l.2-.12.07.1L73,378c-.23-1.42-.42-2.85-.58-4.31,1,.94,1.87,1.89,2.76,2.86-.09-1.31-.11-2.59-.12-3.9L77.29,377l1.49-.42c-.52-1.73-1-3.44-1.49-5.17q1.51,2,2.95,4l1.4-1.39q-1.35-1.86-2.76-3.67l-.19-.24.2-.47c.83.79,1.64,1.59,2.46,2.42l-.57-2.59.79,1.57L83,372.9l.25-.09L77.84,358Z" style="fill:#263238"></path><path d="M63.15,386l.1-.17L50,377.29l-.36.7a25.43,25.43,0,0,0,.42,3.3l-.44.81c-.77.07-1.56.16-2.36.28.24.53.49,1,.74,1.55s.59,1,.89,1.49c-1.14-.27-2.28-.53-3.43-.78l-.88,2.29c1,.53,2,1.05,3,1.53l-.08.43c-1,.23-2,.49-3.06.8a16.16,16.16,0,0,0,.22,2.71c1.1-.48,2.19-.91,3.36-1.29l.23-.07.28-.09a23.16,23.16,0,0,0-2.42,2.21l1.65.6v.2l-1.08.3-1.41.43,0,.89H60.64l.51-1.23a38.63,38.63,0,0,1-4-1.75c1.33-.2,2.65-.33,4-.4a31.44,31.44,0,0,1-3.25-2.05c1.58.32,3.17.65,4.75,1l.56-1c-1.64-.71-3.28-1.48-4.89-2.29a46.33,46.33,0,0,1,4.86.94c0-.47-.14-1-.15-1.51a41.3,41.3,0,0,0-4.39-1.07l-.3-.06-.19-.45c.56,0,1.12.08,1.66.13s1.14.16,1.69.25c-.71-.51-1.42-1-2.12-1.57l1.59.74C61.69,385.51,62.43,385.76,63.15,386Z" style="fill:#263238"></path><path d="M87.12,226.5c.7,1.36,1.45,2.67,2.26,3.95-1.33-.29-2.67-.53-4-.72.66,1.22,1.38,2.42,2.14,3.54q-2.23-.95-4.48-1.85c-.42.67-.83,1.39-1.22,2.14,1.53,1,3.08,1.94,4.67,2.81a27.19,27.19,0,0,0-5.15.31v.87l0,1a16.9,16.9,0,0,0,.19,2.09,24.33,24.33,0,0,1,2.3-1.11,15.84,15.84,0,0,1,2.35-.65l.31-.06.26.55a9.06,9.06,0,0,0-1.69.92,18.24,18.24,0,0,0-1.58,1.15c.89.19,1.78.36,2.68.48-.56.12-1.13.26-1.69.41-.7.41-1.35.86-2,1.27,0,.1.07.16.11.24l15.4-2.55a.27.27,0,0,1-.12,0,4,4,0,0,1-1-.11,4.6,4.6,0,0,1-.5-.13c-.16,0-.32,0-.49-.09a1,1,0,0,0,.1-.19c.69,0,1.39.05,2.06.13a10.13,10.13,0,0,1-1.1-.79c-.35-.3-.69-.62-1-1,1.12.37,2.22.76,3.32,1.15.17-.26.39-.56.59-.85-.91-.6-1.8-1.23-2.68-1.87l.12-.24c1,.23,1.94.48,2.88.76.06-.49.19-1,.3-1.52-1.08-.33-2.15-.62-3.26-.88l-.22-.05-.27-.06c.93-.1,1.83-.16,2.74-.18l-1.18-1.24.07-.12,1,.43,1.3.57.33-.44-12.21-9.4C88.15,225.58,87.62,226,87.12,226.5Z" style="fill:#263238"></path><path d="M111.93,206c.08,1.49.18,3,.3,4.46-1-.92-2-1.81-3-2.69,0,1.35.1,2.69.19,4l-2.72-4-1.77.8c.72,1.66,1.44,3.29,2.19,4.94q-1.85-1.68-3.77-3.3c-.47.61-.94,1.24-1.39,1.87,1.25.94,2.47,1.87,3.68,2.85l.24.19-.11.51q-1.52-.85-3.09-1.68l1.2,2.37L102.68,215l-2-1.37-.25.19,6.25,8.31-6.33-8.42c-.58.27-1.17.52-1.76.81q.51,2.2,1.11,4.35c-1.16-.69-2.32-1.36-3.52-2,.29,1.32.61,2.63,1,3.93l-3.5-3.35c-.56.39-1.1.81-1.64,1.23,1.06,1.47,2.13,2.91,3.22,4.34-1.47-.8-3-1.56-4.47-2.3-.35.73-.66,1.51-1,2.25,1.46.57,2.9,1.18,4.3,1.82l.28.13v.53c-1.13-.3-2.28-.59-3.45-.83l1.76,2-1.49-.93c-.75-.27-1.51-.54-2.27-.79l-.2.27,12.51,9.62a4.23,4.23,0,0,1,.24-.4c-.18-.84-.34-1.7-.45-2.58l.46-.42c.68.26,1.36.53,2,.81-.31-.94-.59-1.9-.83-2.87l2.63,2.34c.37-.3.77-.58,1.16-.86-.61-.91-1.21-1.83-1.81-2.75l.23-.21c.87.52,1.73,1,2.57,1.58.29-.51.61-1,.94-1.52-1-.59-2-1.18-2.94-1.74l-.2-.11-.24-.14c.93.16,1.88.36,2.79.55l-.77-1.55.12-.1.86.68,1.11.9.49-.37.3.4.37-.36c.08-.89.2-1.77.32-2.68.19-.11.38-.22.58-.32l1.82,1.24c0-1-.09-2-.09-3l2.06,2.85,1.4-.65-1.17-3.08.28-.16,2.23,2c.41-.47.86-.89,1.3-1.35-.86-.76-1.72-1.51-2.6-2.25l-.17-.15-.22-.18c.91.34,1.81.69,2.69,1l-.46-1.67.14-.09.73.83.94,1.07.57-.28-7-13.76C113.14,205.7,112.53,205.83,111.93,206Z" style="fill:#263238"></path><path d="M165.89,186.7l.05-.57a16.38,16.38,0,0,0,2.9-1.76,13.67,13.67,0,0,0-.45-1.89,14.46,14.46,0,0,0-.61-1.76c-.42.46-.88,1-1.35,1.43a18.35,18.35,0,0,1-1.43,1.27l-.2.16-.24.18a20.59,20.59,0,0,0,1.56-3.45c-.6-.05-1.19-.09-1.78-.1a1.87,1.87,0,0,0-.07-.22l.87-.72c.37-.32.74-.65,1.1-1l-.38-1-14.13,6.16a4,4,0,0,1-.15.86,15.76,15.76,0,0,1,2.07-.17,15.93,15.93,0,0,1,2.07,0,14.21,14.21,0,0,1-3.77.72,9.45,9.45,0,0,1,1.78.29,10.52,10.52,0,0,1,1.73.63c-1.61-.25-3.2-.54-4.79-.87a.56.56,0,0,1-.23-.05,33.8,33.8,0,0,1,4.76,2.42,20.73,20.73,0,0,1-4.38-2.09c.12.1.08.3.13.46a1.54,1.54,0,0,1,0,.57,31.56,31.56,0,0,0,3.89,2.27l.27.13.12.43a20.08,20.08,0,0,1-3-1.32c.57.67,1.14,1.36,1.67,2.05l-1.33-1.14c-.64-.43-1.27-.88-1.88-1.34l-.13.12,6.35,7.26-6.43-7.35-1.17.38a35.62,35.62,0,0,1,1.24,4.12c-1-.85-2-1.71-3-2.61.22,1.25.42,2.54.56,3.83l-2.64-4.06c-.46.17-.92.34-1.41.5.66,1.67,1.31,3.34,1.95,5-1.1-1.24-2.2-2.49-3.27-3.75-.41.5-.84,1-1.28,1.5,1,1.15,2,2.29,3.09,3.42l.2.22-.15.49-2.67-2.21.81,2.53-.93-1.48-1.58-1.75-.24.11-.05-.11-1.64.29.17,4.41-2.68-3-.1,3.95-2.2-4.32-1.66.47,1.49,5.18-3.08-3.92-1.5,1.5,3,3.54.2.23-.19.48-2.62-2.3.7,2.56-.88-1.5-1.56-1.79-.26.11,0-.11-1.72.29.07,4.44-2.71-3-.12,4-2.25-4.29-1.72.51,1.58,5.17-3.2-3.84-1.51,1.56,3.11,3.44.21.22-.18.49-2.72-2.2.79,2.54-1-1.47-1.67-1.69-.27.13,7.11,14.1.45-.29c.24-.88.54-1.76.86-2.65l.66-.24,1.67,1.46L125,215l1.7,3.08,1.61-.54-.8-3.2.3-.14,2.1,2.2,1.54-1.3L129,212.67l-.17-.16-.2-.2,2.7,1.2-.32-1.7.14-.08.69.86.9,1.12.63-.28.2.45.5-.28,1-2.65.68-.22,1.66,1.49.54-3.07,1.66,3.11,1.67-.55-.75-3.22.32-.14,2.12,2.2,1.63-1.35-2.55-2.38-.17-.15-.2-.2,2.76,1.15-.33-1.7.15-.08.71.84.94,1.09.65-.31-6.46-13.57,6.68,14,.52-.31,1-2.74.7-.28,1.81,1.37c.15-1,.31-2.11.44-3.16l1.92,2.94c.6-.25,1.22-.54,1.82-.82l-1-3.15.33-.21c.83.62,1.67,1.23,2.53,1.82.58-.62,1.14-1.18,1.72-1.84-1.08-.54-2.11-1.15-3.11-1.76l-.2-.13-.24-.15a26.28,26.28,0,0,0,3.17.46l-.63-1.63.15-.13.94.61,1.24.77.7-.58.33.38.56-.6a31,31,0,0,0,.58-3.45l.7-.78c.41,0,.82.05,1.24.05s.85-.06,1.28-.11a17.09,17.09,0,0,0-.87-3.81c1.14.32,2.27.61,3.42.87.22-.52.44-1,.64-1.59s.32-1.1.47-1.66A25.23,25.23,0,0,0,165.89,186.7Z" style="fill:#263238"></path><circle cx="109.84" cy="313.82" r="7.11" style="fill:#263238;stroke:#263238;stroke-linecap:round;stroke-linejoin:round"></circle><path d="M141.53,393.56a7.11,7.11,0,1,0-7.1,7.1A7.1,7.1,0,0,0,141.53,393.56Z" style="fill:#fff;stroke:#263238;stroke-linecap:round;stroke-linejoin:round"></path><circle cx="62.47" cy="410.56" r="7.11" style="fill:#fff;stroke:#263238;stroke-linecap:round;stroke-linejoin:round"></circle><circle cx="204.7" cy="405.68" r="7.11" style="fill:#263238;stroke:#263238;stroke-linecap:round;stroke-linejoin:round"></circle><path d="M171.62,286.62a7.11,7.11,0,1,0-7.1,7.11A7.11,7.11,0,0,0,171.62,286.62Z" style="fill:#fff;stroke:#263238;stroke-linecap:round;stroke-linejoin:round"></path><circle cx="146.11" cy="246.69" r="7.11" style="fill:#263238;stroke:#263238;stroke-linecap:round;stroke-linejoin:round"></circle><path d="M92.58,388a7.11,7.11,0,1,0-7.1,7.1A7.1,7.1,0,0,0,92.58,388Z" style="fill:#fff;stroke:#263238;stroke-linecap:round;stroke-linejoin:round"></path><circle cx="144.63" cy="327.55" r="7.11" style="fill:#fff;stroke:#263238;stroke-linecap:round;stroke-linejoin:round"></circle><circle cx="177.77" cy="362.96" r="7.11" style="fill:#263238;stroke:#263238;stroke-linecap:round;stroke-linejoin:round"></circle><path d="M113.2,417.92a7.11,7.11,0,1,0-7.1,7.11A7.1,7.1,0,0,0,113.2,417.92Z" style="fill:#263238;stroke:#263238;stroke-linecap:round;stroke-linejoin:round"></path><path d="M178.93,407.72a7.11,7.11,0,1,0-7.11,7.11A7.1,7.1,0,0,0,178.93,407.72Z" style="fill:#fff;stroke:#263238;stroke-linecap:round;stroke-linejoin:round"></path><circle cx="208.14" cy="362.82" r="7.11" style="fill:#fff;stroke:#263238;stroke-linecap:round;stroke-linejoin:round"></circle><circle cx="63.27" cy="355.39" r="7.11" style="fill:#263238;stroke:#263238;stroke-linecap:round;stroke-linejoin:round"></circle><path d="M204.78,292.63a7.11,7.11,0,1,0-7.11,7.1A7.11,7.11,0,0,0,204.78,292.63Z" style="fill:#263238;stroke:#263238;stroke-linecap:round;stroke-linejoin:round"></path><circle cx="114.39" cy="239.65" r="7.11" style="fill:#fff;stroke:#263238;stroke-linecap:round;stroke-linejoin:round"></circle><path d="M163.7,215a7.11,7.11,0,1,0-7.1,7.1A7.1,7.1,0,0,0,163.7,215Z" style="fill:#fff;stroke:#263238;stroke-linecap:round;stroke-linejoin:round"></path><path d="M80.7,292.63a7.11,7.11,0,1,0-7.11,7.1A7.11,7.11,0,0,0,80.7,292.63Z" style="fill:#fff;stroke:#263238;stroke-linecap:round;stroke-linejoin:round"></path><path d="M133.39,181a7.11,7.11,0,1,0-7.11,7.11A7.1,7.1,0,0,0,133.39,181Z" style="fill:#fff;stroke:#263238;stroke-linecap:round;stroke-linejoin:round"></path></g></svg>