<svg xmlns="http://www.w3.org/2000/svg" viewBox="0 0 500 500"><g id="background-simple"><path d="M100.47,295.92c70.23,57.07,184.88,36.67,255.91-4.26,47.19-27.2,84.1-69.27,92.5-115.4,6.16-33.79-3.64-75.2-41.07-97.34C366.1,54.25,308.5,75.81,265.33,51s-104.76-35.73-148-18S35.76,105.35,31.2,161.54c-2.6,32,6.24,65.56,26.47,94.06,11.12,15.67,26.48,26.82,41.94,39.62Z" style="fill:#92E3A9"></path><path d="M100.47,295.92c70.23,57.07,184.88,36.67,255.91-4.26,47.19-27.2,84.1-69.27,92.5-115.4,6.16-33.79-3.64-75.2-41.07-97.34C366.1,54.25,308.5,75.81,265.33,51s-104.76-35.73-148-18S35.76,105.35,31.2,161.54c-2.6,32,6.24,65.56,26.47,94.06,11.12,15.67,26.48,26.82,41.94,39.62Z" style="fill:#fff;opacity:0.8"></path></g><g id="Clouds"><path d="M422.33,64.06a8.53,8.53,0,0,0-5.24,1.79,13.55,13.55,0,0,0-19.49-7.38,26.52,26.52,0,0,0-52.34-3.19,17.25,17.25,0,0,0-28.9,8.36,10.28,10.28,0,0,0-13.31-2.82,20.12,20.12,0,0,0-39.71-2.42,13.09,13.09,0,0,0-22.27,9.33c0,.17,0,.33,0,.49h188.6A8.6,8.6,0,0,0,422.33,64.06Z" style="opacity:0.05"></path><path d="M246.92,100.78a3.68,3.68,0,0,0-2.23.76,5.81,5.81,0,0,0-8.32-3.15A11.33,11.33,0,0,0,214,97a7.37,7.37,0,0,0-12.34,3.57A4.38,4.38,0,0,0,196,99.4a8.59,8.59,0,0,0-17-1,5.59,5.59,0,0,0-9.51,4c0,.07,0,.14,0,.21h80.53A3.69,3.69,0,0,0,246.92,100.78Z" style="opacity:0.05"></path></g><g id="Landscape"><polygon points="464.86 118.42 459.63 118.42 459.63 165.48 449.18 165.48 449.18 119.47 430.35 119.47 430.35 142.47 404.21 142.47 404.21 110.06 390.61 110.06 390.61 133.06 347.74 133.06 347.74 114.24 339.37 114.24 339.37 137.25 322.64 137.25 322.64 84.96 306.95 84.96 306.95 152.93 301.72 152.93 301.72 144.56 268.26 144.56 268.26 111.1 218.06 111.1 218.06 152.93 201.32 152.93 201.32 122.6 188.78 122.6 188.78 114.24 157.4 114.24 151.13 120.51 137.53 120.51 137.53 134.11 130.21 134.11 130.21 104.83 97.79 104.83 97.79 160.25 86.29 160.25 86.29 150.84 74.79 150.84 74.79 171.76 60.15 171.76 60.15 126.79 34 126.79 34 364.18 464.86 364.18 464.86 118.42" style="opacity:0.05"></polygon><path d="M68.51,259.6c-12-2.39-25.29-1-34.51.59V346.4H138.58V276.33S89.43,263.78,68.51,259.6Z" style="fill:#525252"></path><polygon points="464.86 251.24 453.36 251.24 453.36 238.69 430.35 238.69 430.35 253.33 405.25 253.33 405.25 241.82 362.38 241.82 362.38 190.58 296.49 190.58 296.49 254.37 290.22 254.37 290.22 228.23 267.21 228.23 267.21 242.58 232.76 242.58 232.76 218.82 201.32 218.82 201.32 260.65 145.9 260.65 145.9 139.34 88.38 139.34 88.38 333.85 464.86 333.85 464.86 251.24" style="fill:#d9d9d9"></polygon><rect x="34" y="378.82" width="430.86" height="57.52" style="fill:#525252"></rect><polygon points="431.4 300.96 431.4 315.03 417.8 315.03 417.8 300.96 384.75 300.96 384.75 168.62 321.99 168.62 321.99 328.12 308.78 328.12 308.78 310.13 279.05 310.13 279.05 323.32 244.13 323.32 243.81 291.38 176.65 291.38 176.65 305.27 124.9 305.27 124.9 334.11 109.48 334.11 109.48 266.96 69.84 266.96 69.84 324.52 34 324.52 34 373.69 70.94 373.69 70.94 372.32 99.57 372.32 99.57 374.89 131.5 374.89 131.5 373.69 177.75 373.69 177.75 369.47 244.13 369.47 244.13 372.49 280.15 372.49 280.15 371.29 323.09 371.29 323.09 370.09 373.74 370.09 373.74 389.28 464.86 389.28 464.86 300.96 431.4 300.96" style="fill:#a3a3a3"></polygon><polygon points="464.86 364.18 437.22 364.18 437.22 375.68 425.33 375.68 425.33 352.68 393.76 352.68 393.76 364.18 377.02 364.18 377.02 328.62 326.83 328.62 326.83 346.4 251.52 346.4 251.52 366.27 225.38 366.27 225.38 352.68 53.87 352.68 53.87 366.27 34 366.27 34 402.87 464.86 402.87 464.86 364.18" style="fill:#787878"></polygon><rect x="102.9" y="390.32" width="33.08" height="46.01" style="fill:#d6d6d6"></rect><rect x="119.44" y="390.32" width="16.54" height="46.01" style="fill:#d1d1d1"></rect><rect x="331.79" y="394.51" width="26.67" height="41.83" style="fill:#e5e5e5"></rect><rect x="345.12" y="394.51" width="13.33" height="41.83" style="fill:#b2b2b2"></rect><rect x="280" y="394.51" width="49.45" height="41.83" style="fill:#e5e5e5"></rect><rect x="304.73" y="394.51" width="24.73" height="41.83" style="fill:#b2b2b2"></rect><rect x="320.87" y="408.43" width="53.33" height="27.91" style="fill:#e5e5e5"></rect><rect x="347.54" y="408.43" width="26.67" height="27.91" style="fill:#e5e5e5"></rect><rect x="374.4" y="408.43" width="74.77" height="27.91" style="fill:#e5e5e5"></rect><rect x="411.79" y="408.43" width="37.39" height="27.91" style="fill:#d1d1d1"></rect><rect x="455.97" y="381.96" width="8.89" height="54.38" style="fill:#d6d6d6"></rect><rect x="87.34" y="374.64" width="23.56" height="61.7" style="fill:#e5e5e5"></rect><rect x="99.12" y="374.64" width="11.78" height="61.7" style="fill:#d1d1d1"></rect><rect x="139.88" y="387.19" width="30.32" height="49.15" style="fill:#e5e5e5"></rect><rect x="155.04" y="387.19" width="34.78" height="49.15" style="fill:#d1d1d1"></rect><rect x="34" y="387.19" width="24.69" height="49.15" style="fill:#e5e5e5"></rect><rect x="40.59" y="387.19" width="41.51" height="49.15" style="fill:#d1d1d1"></rect></g><g id="senso-ji-temple"><rect x="219.79" y="82.76" width="5.36" height="24.15" style="fill:#fff;stroke:#263238;stroke-miterlimit:10"></rect><rect x="222.47" y="82.76" width="2.68" height="24.15" style="fill:#bababa;stroke:#263238;stroke-miterlimit:10"></rect><rect x="218.06" y="107" width="8.83" height="35.2" style="fill:#92E3A9;stroke:#263238;stroke-miterlimit:10"></rect><rect x="222.47" y="107" width="4.41" height="35.2" style="fill:#92E3A9;stroke:#263238;stroke-miterlimit:10"></rect><rect x="213.07" y="141.93" width="18.81" height="9.81" style="fill:#92E3A9;stroke:#263238;stroke-miterlimit:10"></rect><rect x="222.47" y="141.93" width="9.4" height="9.81" style="fill:#92E3A9;stroke:#263238;stroke-miterlimit:10"></rect><rect x="215.95" y="141.93" width="13.05" height="23.13" style="fill:#92E3A9;stroke:#263238;stroke-miterlimit:10"></rect><rect x="222.47" y="141.93" width="6.52" height="23.13" style="fill:#92E3A9;stroke:#263238;stroke-miterlimit:10"></rect><rect x="213.07" y="141.93" width="18.81" height="17.6" style="fill:#92E3A9;stroke:#263238;stroke-miterlimit:10"></rect><rect x="222.47" y="141.93" width="9.4" height="17.6" style="fill:#92E3A9;stroke:#263238;stroke-miterlimit:10"></rect><rect x="213.07" y="143.8" width="18.81" height="12.48" style="fill:#fff;stroke:#263238;stroke-miterlimit:10"></rect><rect x="222.47" y="143.8" width="9.4" height="12.48" style="fill:#bababa;stroke:#263238;stroke-miterlimit:10"></rect><path d="M229.89,176H215.05V164h14.84Zm-12.38-2.46h9.92v-7.1h-9.92Z" style="fill:#92E3A9;stroke:#263238;stroke-miterlimit:10"></path><path d="M229.89,176h-8.65V164h8.65Zm-6.19-2.46h3.73v-7.1H223.7Z" style="fill:#92E3A9;stroke:#263238;stroke-miterlimit:10"></path><rect x="218.06" y="107" width="8.83" height="10.6" style="fill:#fff;stroke:#263238;stroke-miterlimit:10"></rect><rect x="222.47" y="107" width="4.41" height="10.6" style="fill:#bababa;stroke:#263238;stroke-miterlimit:10"></rect><rect x="221.65" y="47.7" width="1.64" height="29.71" style="fill:#92E3A9;stroke:#263238;stroke-miterlimit:10;stroke-width:0.5px"></rect><rect x="218.82" y="76.43" width="7.31" height="7.79" style="fill:#92E3A9;stroke:#263238;stroke-miterlimit:10"></rect><path d="M295,424.84h4.25a183.91,183.91,0,0,1-13.65-18.74,1.56,1.56,0,0,0-.49-.75c-15.78-24.58-33.39-60.88-41.3-96C232.52,259.29,231.58,190.64,231.57,190l-3.28,0c0,.09,0,1.26.06,3.35l-1.95,5.36V185.48h-9v13l-1.51-4.78h0c.06-2.28.08-3.59.08-3.68l-3.28,0c0,.69-.95,69.33-12.27,119.45C190,355.62,162.72,404,145,424.84h4.25l1.07-1.35a1.57,1.57,0,0,0,.3.05,1.42,1.42,0,0,0,.5-.08l8.75-2.8c-1.46,2.13-2.44,3.63-2.79,4.18H161c1.16-1.76,2.52-3.75,4-5.87a1.62,1.62,0,0,0,.9-1.25c2.57-3.56,5.54-7.43,8.72-11.22a1.59,1.59,0,0,0,1.12-1.31c10.25-12,22.36-22.53,30.07-18.53,4.4,2.28,8.29,6.92,11.63,12.45v25.73h9v-6c.76,2.12,1.43,4.14,2,6h10l-5.09-2.55,4.6-8.27c.89,3.85,1.82,7.47,2.8,10.82h3.42c-1.13-3.8-2.2-8-3.22-12.49l7.6,8-4,4.53h4.36l1.05-1.21c.09.41.18.82.27,1.21h3.38c-3.68-16-6.74-35.81-2.86-39.29.22-.2.74-.66,2.25-.07,6.47,2.53,15.07,12,22.41,21.38a1.6,1.6,0,0,0,1,1.24c3.5,4.54,6.66,9,9.1,12.51l0,0c1.11,1.61,2.07,3,2.84,4.19h3.94c-.85-1.3-2.2-3.36-3.93-5.88L287,414C289.8,418.08,292.5,421.71,295,424.84Zm-42.87-48.58.73-1.61c.56,1.56,1.09,3,1.58,4.24ZM243.5,406H242l.55-1.28Zm-17.1-7.55,1.41,1.31-1.41,2.07Zm-21-21,6.21-5.05H213c0,5.26,0,9.82,0,13.16Zm-16,9.26-2.65-6.15,7.17-5.35C192,380.64,190.31,384.67,189.44,386.74Zm-14.25,14.08L175,399.2l4-2.48C177.75,398,176.49,399.37,175.19,400.82Zm-4.51-8.37.73,5.08-5.8,3.57Q168.15,396.94,170.68,392.45ZM180.39,374l2.36,5.5-8.39,6.25C176.4,382,178.41,378,180.39,374Zm11.85-27.11,1.41,2.73L190.24,352Q191.26,349.45,192.24,346.9Zm19.88-5.33h-4.44c.51-2.15,1-4.33,1.43-6.52Zm1,25.21-3.47-3.68,3.59-2.93C213.18,362.43,213.14,364.64,213.11,366.78ZM206.33,347l1.24,1.9-2.43,2.51C205.55,350,205.94,348.48,206.33,347Zm2.52-2.14h2.63l-1.57,1.62Zm.57,6.85,2,3h-4.92Zm1.27,6.31-3.3,2.69L204.86,358Zm2.8-6.1-1.73-2.63,1.91-2C213.6,348.84,213.54,350.37,213.49,351.91Zm-12.7,2.82H200l-2.07-4,5-3.42C202.19,349.82,201.5,352.32,200.79,354.73Zm-4.52,0H192l3.15-2.16Zm6.25,5.58,2.32,2.47-4.23,3.44C201.24,364.33,201.88,362.35,202.52,360.31Zm4.57,4.87,3.58,3.81-.19.16h-8.26Zm7-27.06-2.67-5.78h3.09C214.4,334.21,214.27,336.15,214.14,338.12Zm-9.35,1.35-.67-.91,1.06-.8C205.06,338.33,204.92,338.9,204.79,339.47Zm-2.52,2.1h-2.14l1.37-1Zm-1.67,3.28-4.23,2.9-1.24-2.42.64-.48ZM197.15,358l-3.33,2.62L192.54,358Zm1.79,2.77c-.69,2.15-1.36,4.21-2,6.17l-1.61-3.3Zm-4.61,8.37h-6l4.34-3.42Zm-2.08,3.28-6.79,5.06-2-4.55.65-.51Zm-18.42,18.84h7.76l-7.13,4.39ZM186.4,388h-9.53l7.22-5.38Zm-14.49,13.09.33,2.3-4.38.19Zm25.94-26.92,2.8,3-5.66,4.6C195.84,379.59,196.81,377,197.85,374.16Zm2.87-1.73h5.73l-3.25,2.65Zm15.61,17.38c0-2.88-.08-9.32,0-17.38h1.12v17.38Zm1.11-45v9.88h-.78c.1-3.28.23-6.61.39-9.88Zm-.22-3.28c.06-1.23.14-2.44.22-3.64v3.64Zm.22,16.44v11.14h-1.08c0-3.53.11-7.29.21-11.14Zm0-118.6h-2.85l2.85-5.16Zm0,3.28v6.84l-3.55-6.84Zm0,19.28H214l3.41-6.61Zm0,3.28v6.49l-4.94-6.49Zm0-45.12v3.71l-1.32-3.67,0,0Zm0-9.12-2.45,5.6c.15-2.76.27-5.35.38-7.77h2.07Zm-1.08,17.12H214.3c.11-1.67.21-3.29.31-4.88Zm-.17,3.28-2.44,4.43c.11-1.5.22-3,.32-4.43Zm-.93,19.28h-2.77c.14-1.53.28-3,.41-4.55Zm.12,3.28-4,7.84q.43-4,.82-7.84Zm.11,19.28H210c.27-2.09.52-4.17.77-6.25Zm1.27,3.28-8.3,7.44q.57-3.71,1.08-7.44Zm.68,2.7v5.3h-5.92Zm0,8.59v5.63L211,287.82Zm15.87-22.57q.47,4,1,8h-6.2l-.1-.12,4.49-7.88Zm25.35,97.6-1.15-1.07.2-1.09C258,361.41,258.34,362.14,258.66,362.85Zm13.79,30.06.69,2.36-2.82-2.36ZM231.06,242.69q.33,3.93.72,8H227l3.68-8ZM226.4,271v-5.7h3.25l-3.24,5.7Zm0-9v-6.63l5,6.63Zm0-16v-3.3h1.52Zm12.37,90.59,0,.13,0-.23ZM249.68,365l-2.75-3.28.73-3.52C248.35,360.63,249,362.89,249.68,365Zm6.47,4.15.66-3.54,3.8,3.54Zm-2.73-3.27c-.48-1.52-1-3.1-1.48-4.79l2,1.87Zm-9.17-7.38-.41-.49h.51Zm-7.92,29c-.33-2.17-.65-4.39-1-6.63l1.82,2.33Zm3.53-.89,2.5,3.21h-3.15ZM226.4,365.27l2.19,3.88H226.4Zm12.5-4.18c.25,1.41.5,2.79.74,4.14L238.11,363Zm-3-1.26L234.6,358h2Zm2-5.1H234l1.42-3.39,2.21,2.21Zm-5.93-3.43c-.13-1.29-.25-2.58-.38-3.88l1.42,1.42Zm2.48,12.16-.94,2.3c-.16-1.44-.33-2.89-.49-4.35Zm2.24,3.2,1.73,2.49h-2.74Zm.2-18.58,0-.05v.08Zm-2.2-3.23-.31.72-.72-.72Zm-.12,29.58c-.09-.67-.17-1.33-.26-2h5.09L238,378.94Zm7.74-13.19,1.14,1.36-.48,2.31C242.7,363.71,242.48,362.49,242.26,361.24Zm.63-6.51.54-1.78,1.27,1.78ZM240.6,351c-.13-.85-.25-1.72-.38-2.59l.82,1.16Zm1.14-6.14h.74l-.22.74Zm-.75-3.28.16-.72.4.72Zm-6.93,0h-1l.55-.69Zm-3.27-2.39c-.1-1.09-.19-2.18-.28-3.27l1.26,2ZM230,364.92l-3.58-6.34V358h2.81C229.46,360.34,229.71,362.64,230,364.92Zm-3.58,7.51h2.71l-2.71,6.77Zm0,15.63,4.9-12.28c.63,4.81,1.3,9.5,2,14H226.4Zm9.08,14.42-3.38-3.16,2.23-3.28C234.7,398.23,235.09,400.38,235.48,402.48Zm2.81-3.07,1.9,2.42-1,2.34C238.88,402.62,238.58,401,238.29,399.41Zm-.32-5.72a1.64,1.64,0,0,0,.51-.6H244l-2.29,5.31Zm5.92-7.25-3.18-4.08,1.16-5.8c.79,3.77,1.52,7,2.13,9.63Zm1.6-17.76.59-2.86,2.78,3.33h-3Zm15.95,3.75-.5,3.18-3.05-3.18Zm2.92,2.55q2.26,4.59,4.57,9l-5.14-5.37Zm-9.7-15.84L253.45,358h1.42Zm-5.18-6.79q-.94-3.56-1.9-7.5h2ZM244.65,349l.31-1c.19.76.37,1.51.56,2.24ZM233.93,335.2l-1.79-2.86H235c0,.45.09.9.14,1.35Zm-5.07,19.53H226.4v-9.88h1.49C228.2,348.17,228.53,351.47,228.86,354.73Zm-2.46-13.16v-9.23h.4q.38,4.64.8,9.23Zm.83-53.75h6.83l-6.3,9.26C227.58,294,227.4,290.88,227.23,287.82Zm-.17-3.29c-.14-2.69-.27-5.35-.4-8h.9l6.41,8ZM228.45,254h3.64c.19,1.86.39,3.74.6,5.62Zm2.15-17.06-3.7-5.5h3.29C230.32,233.2,230.46,235.05,230.6,236.91Zm-.63-8.78H226.4v-.27l3.25-4.69C229.75,224.79,229.85,226.43,230,228.13Zm-1.27-11.29h-2.3v-4.3Zm-1.48-8h1.68c0,1.11.1,2.26.16,3.45Zm1.55,11.29-2.37,3.4v-3.4Zm.54,19.28H226.4v-4.32ZM226.4,393.09h6l-2.68,4L226.4,394Zm3.84,9,4.24,4h-6.93Zm15.55-4.93c.11,2.33.34,4.8.65,7.33L244,401.33Zm.46-15.86c-.58-2.59-1.22-5.56-1.88-8.85h0l3.87,4.4Zm2.54-8.85h1.51l-.52,1.13Zm8.22,3.83,3.28,3.42-.53,3.36C259,381.41,258.1,379.15,257,376.26Zm5.47,10.54.66-4.15,6.69,7h-5.41c-.78-.73-1.55-1.42-2.31-2.06A1.63,1.63,0,0,0,262.48,386.8Zm16.57,18.14a2,2,0,0,0,.09-.35l.42.35Zm-26.32-50.21.08-5.8c.77,1.95,1.54,3.88,2.34,5.8Zm-5.92-13.16c-.21-.89-.42-1.83-.62-2.75l1.46-4q1.14,3.39,2.36,6.75Zm-1.74-9.23-.18.5c0-.17-.08-.33-.11-.5ZM241,311.55l-12.27.55c-.33-4.88-.62-9.73-.91-14.55l1.8,1.22,6.94-10.2c1.19,7.38,2.55,14.65,4.11,21.56Zm-5.35-28.91-4.89-6.11h4C235,278.57,235.31,280.61,235.61,282.64Zm-6.85-77.08h-2.23l2-5.56C228.61,201.68,228.67,203.53,228.76,205.56Zm-11.66,0h-1.59c.06-1.61.12-3.11.17-4.51ZM203.63,310.13c1.58-7,3-14.37,4.16-21.85l9.65,8.44V312.6l-14.54.65C203.15,312.21,203.4,311.17,203.63,310.13Zm2.69,22.21c0,.18-.08.36-.11.54l-4.05,3.05-2.67-3.59Zm-9.51,1.89,2.73,3.67-4.87,3.67h-.42C195.14,339.13,196,336.69,196.81,334.23ZM187.73,358h1.16l2.29,4.7L183,369.15h-.28Q185.3,363.69,187.73,358Zm-27.08,51,1.7,7.44-8.8,2.81C155.84,416.13,158.22,412.7,160.65,409Zm2.93-1.94,6.6-.28c-1.86,2.3-3.59,4.55-5.15,6.65Zm35.1-24,4.21-3.44,3.56,3.81A12.21,12.21,0,0,0,198.68,383Zm18.68,10.09h.08v.1Zm13.14,27.45c-1.13-3.37-2.49-7.09-4.1-10.86v-.36h10.33Zm12-11.22h4.34a1.17,1.17,0,0,0,.26,0c.32,2,.67,4,1,6Zm6.74-26.75,1.39-3,2.22,2.52A4.86,4.86,0,0,0,249.27,382.57Zm31.31,25.65h2.27a1.66,1.66,0,0,0-.37,1.52l.43,1.61C282.16,410.33,281.38,409.28,280.58,408.22Z" style="fill:#92E3A9"></path><path d="M226.4,255.83v-.49l.37.49h3.09L228.45,254h3.64c.07.62.14,1.24.2,1.86h3.29c-1.4-13.67-2.32-26.63-2.92-37.38H211.6c-.6,10.75-1.51,23.71-2.91,37.38H212c.06-.61.13-1.24.19-1.86h3.21l-1,1.86h2.77l.25-.47v.47Zm4.66-13.14q.33,3.93.72,8H227l3.68-8Zm-.46-5.78-3.7-5.5h3.29C230.32,233.2,230.46,235.05,230.6,236.91Zm-4.2-16.78h2.37l-2.37,3.4Zm0,7.73,3.25-4.69c.1,1.61.2,3.26.32,5H226.4Zm0,7.23,2.91,4.32H226.4Zm0,7.6h1.52L226.4,246Zm-9-3.28h-2.85l2.85-5.16Zm-1.3-19.28h1.3v3.71l-1.32-3.67Zm-1.53,3.12,1.75,4.88H214.3C214.41,226.46,214.51,224.84,214.61,223.25Zm-.54,8.16h2.12l-2.44,4.43C213.86,234.34,214,232.86,214.07,231.41Zm-1.58,19.28c.14-1.53.28-3,.41-4.55l2.36,4.55Zm1.4-8h3.55v6.84Z" style="fill:#fff"></path><path d="M295,424.84h4.25a183.91,183.91,0,0,1-13.65-18.74,1.56,1.56,0,0,0-.49-.75c-15.78-24.58-33.39-60.88-41.3-96C232.52,259.29,231.58,190.64,231.57,190l-3.28,0c0,.09,0,1.26.06,3.35l-1.95,5.36V185.48h-9v13l-1.51-4.78h0c.06-2.28.08-3.59.08-3.68l-3.28,0c0,.69-.95,69.33-12.27,119.45C190,355.62,162.72,404,145,424.84h4.25l1.07-1.35a1.57,1.57,0,0,0,.3.05,1.42,1.42,0,0,0,.5-.08l8.75-2.8c-1.46,2.13-2.44,3.63-2.79,4.18H161c1.16-1.76,2.52-3.75,4-5.87a1.62,1.62,0,0,0,.9-1.25c2.57-3.56,5.54-7.43,8.72-11.22a1.59,1.59,0,0,0,1.12-1.31c10.25-12,22.36-22.53,30.07-18.53,4.4,2.28,8.29,6.92,11.63,12.45v25.73h9v-6c.76,2.12,1.43,4.14,2,6h10l-5.09-2.55,4.6-8.27c.89,3.85,1.82,7.47,2.8,10.82h3.42c-1.13-3.8-2.2-8-3.22-12.49l7.6,8-4,4.53h4.36l1.05-1.21c.09.41.18.82.27,1.21h3.38c-3.68-16-6.74-35.81-2.86-39.29.22-.2.74-.66,2.25-.07,6.47,2.53,15.07,12,22.41,21.38a1.6,1.6,0,0,0,1,1.24c3.5,4.54,6.66,9,9.1,12.51l0,0c1.11,1.61,2.07,3,2.84,4.19h3.94c-.85-1.3-2.2-3.36-3.93-5.88L287,414C289.8,418.08,292.5,421.71,295,424.84Zm-42.87-48.58.73-1.61c.56,1.56,1.09,3,1.58,4.24ZM243.5,406H242l.55-1.28Zm-17.1-7.55,1.41,1.31-1.41,2.07Zm-21-21,6.21-5.05H213c0,5.26,0,9.82,0,13.16Zm-16,9.26-2.65-6.15,7.17-5.35C192,380.64,190.31,384.67,189.44,386.74Zm-14.25,14.08L175,399.2l4-2.48C177.75,398,176.49,399.37,175.19,400.82Zm-4.51-8.37.73,5.08-5.8,3.57Q168.15,396.94,170.68,392.45ZM180.39,374l2.36,5.5-8.39,6.25C176.4,382,178.41,378,180.39,374Zm11.85-27.11,1.41,2.73L190.24,352Q191.26,349.45,192.24,346.9Zm19.88-5.33h-4.44c.51-2.15,1-4.33,1.43-6.52Zm1,25.21-3.47-3.68,3.59-2.93C213.18,362.43,213.14,364.64,213.11,366.78ZM206.33,347l1.24,1.9-2.43,2.51C205.55,350,205.94,348.48,206.33,347Zm2.52-2.14h2.63l-1.57,1.62Zm.57,6.85,2,3h-4.92Zm1.27,6.31-3.3,2.69L204.86,358Zm2.8-6.1-1.73-2.63,1.91-2C213.6,348.84,213.54,350.37,213.49,351.91Zm-12.7,2.82H200l-2.07-4,5-3.42C202.19,349.82,201.5,352.32,200.79,354.73Zm-4.52,0H192l3.15-2.16Zm6.25,5.58,2.32,2.47-4.23,3.44C201.24,364.33,201.88,362.35,202.52,360.31Zm4.57,4.87,3.58,3.81-.19.16h-8.26Zm7-27.06-2.67-5.78h3.09C214.4,334.21,214.27,336.15,214.14,338.12Zm-9.35,1.35-.67-.91,1.06-.8C205.06,338.33,204.92,338.9,204.79,339.47Zm-2.52,2.1h-2.14l1.37-1Zm-1.67,3.28-4.23,2.9-1.24-2.42.64-.48ZM197.15,358l-3.33,2.62L192.54,358Zm1.79,2.77c-.69,2.15-1.36,4.21-2,6.17l-1.61-3.3Zm-4.61,8.37h-6l4.34-3.42Zm-2.08,3.28-6.79,5.06-2-4.55.65-.51Zm-18.42,18.84h7.76l-7.13,4.39ZM186.4,388h-9.53l7.22-5.38Zm-14.49,13.09.33,2.3-4.38.19Zm25.94-26.92,2.8,3-5.66,4.6C195.84,379.59,196.81,377,197.85,374.16Zm2.87-1.73h5.73l-3.25,2.65Zm15.61,17.38c0-2.88-.08-9.32,0-17.38h1.12v17.38Zm1.11-45v9.88h-.78c.1-3.28.23-6.61.39-9.88Zm-.22-3.28c.06-1.23.14-2.44.22-3.64v3.64Zm.22,16.44v11.14h-1.08c0-3.53.11-7.29.21-11.14Zm0-118.6h-2.85l2.85-5.16Zm0,3.28v6.84l-3.55-6.84Zm0,19.28H214l3.41-6.61Zm0,3.28v6.49l-4.94-6.49Zm0-45.12v3.71l-1.32-3.67,0,0Zm0-9.12-2.45,5.6c.15-2.76.27-5.35.38-7.77h2.07Zm-1.08,17.12H214.3c.11-1.67.21-3.29.31-4.88Zm-.17,3.28-2.44,4.43c.11-1.5.22-3,.32-4.43Zm-.93,19.28h-2.77c.14-1.53.28-3,.41-4.55Zm.12,3.28-4,7.84q.43-4,.82-7.84Zm.11,19.28H210c.27-2.09.52-4.17.77-6.25Zm1.27,3.28-8.3,7.44q.57-3.71,1.08-7.44Zm.68,2.7v5.3h-5.92Zm0,8.59v5.63L211,287.82Zm15.87-22.57q.47,4,1,8h-6.2l-.1-.12,4.49-7.88Zm25.35,97.6-1.15-1.07.2-1.09C258,361.41,258.34,362.14,258.66,362.85Zm13.79,30.06.69,2.36-2.82-2.36ZM231.06,242.69q.33,3.93.72,8H227l3.68-8ZM226.4,271v-5.7h3.25l-3.24,5.7Zm0-9v-6.63l5,6.63Zm0-16v-3.3h1.52Zm12.37,90.59,0,.13,0-.23ZM249.68,365l-2.75-3.28.73-3.52C248.35,360.63,249,362.89,249.68,365Zm6.47,4.15.66-3.54,3.8,3.54Zm-2.73-3.27c-.48-1.52-1-3.1-1.48-4.79l2,1.87Zm-9.17-7.38-.41-.49h.51Zm-7.92,29c-.33-2.17-.65-4.39-1-6.63l1.82,2.33Zm3.53-.89,2.5,3.21h-3.15ZM226.4,365.27l2.19,3.88H226.4Zm12.5-4.18c.25,1.41.5,2.79.74,4.14L238.11,363Zm-3-1.26L234.6,358h2Zm2-5.1H234l1.42-3.39,2.21,2.21Zm-5.93-3.43c-.13-1.29-.25-2.58-.38-3.88l1.42,1.42Zm2.48,12.16-.94,2.3c-.16-1.44-.33-2.89-.49-4.35Zm2.24,3.2,1.73,2.49h-2.74Zm.2-18.58,0-.05v.08Zm-2.2-3.23-.31.72-.72-.72Zm-.12,29.58c-.09-.67-.17-1.33-.26-2h5.09L238,378.94Zm7.74-13.19,1.14,1.36-.48,2.31C242.7,363.71,242.48,362.49,242.26,361.24Zm.63-6.51.54-1.78,1.27,1.78ZM240.6,351c-.13-.85-.25-1.72-.38-2.59l.82,1.16Zm1.14-6.14h.74l-.22.74Zm-.75-3.28.16-.72.4.72Zm-6.93,0h-1l.55-.69Zm-3.27-2.39c-.1-1.09-.19-2.18-.28-3.27l1.26,2ZM230,364.92l-3.58-6.34V358h2.81C229.46,360.34,229.71,362.64,230,364.92Zm-3.58,7.51h2.71l-2.71,6.77Zm0,15.63,4.9-12.28c.63,4.81,1.3,9.5,2,14H226.4Zm9.08,14.42-3.38-3.16,2.23-3.28C234.7,398.23,235.09,400.38,235.48,402.48Zm2.81-3.07,1.9,2.42-1,2.34C238.88,402.62,238.58,401,238.29,399.41Zm-.32-5.72a1.64,1.64,0,0,0,.51-.6H244l-2.29,5.31Zm5.92-7.25-3.18-4.08,1.16-5.8c.79,3.77,1.52,7,2.13,9.63Zm1.6-17.76.59-2.86,2.78,3.33h-3Zm15.95,3.75-.5,3.18-3.05-3.18Zm2.92,2.55q2.26,4.59,4.57,9l-5.14-5.37Zm-9.7-15.84L253.45,358h1.42Zm-5.18-6.79q-.94-3.56-1.9-7.5h2ZM244.65,349l.31-1c.19.76.37,1.51.56,2.24ZM233.93,335.2l-1.79-2.86H235c0,.45.09.9.14,1.35Zm-5.07,19.53H226.4v-9.88h1.49C228.2,348.17,228.53,351.47,228.86,354.73Zm-2.46-13.16v-9.23h.4q.38,4.64.8,9.23Zm.83-53.75h6.83l-6.3,9.26C227.58,294,227.4,290.88,227.23,287.82Zm-.17-3.29c-.14-2.69-.27-5.35-.4-8h.9l6.41,8ZM228.45,254h3.64c.19,1.86.39,3.74.6,5.62Zm2.15-17.06-3.7-5.5h3.29C230.32,233.2,230.46,235.05,230.6,236.91Zm-.63-8.78H226.4v-.27l3.25-4.69C229.75,224.79,229.85,226.43,230,228.13Zm-1.27-11.29h-2.3v-4.3Zm-1.48-8h1.68c0,1.11.1,2.26.16,3.45Zm1.55,11.29-2.37,3.4v-3.4Zm.54,19.28H226.4v-4.32ZM226.4,393.09h6l-2.68,4L226.4,394Zm3.84,9,4.24,4h-6.93Zm15.55-4.93c.11,2.33.34,4.8.65,7.33L244,401.33Zm.46-15.86c-.58-2.59-1.22-5.56-1.88-8.85h0l3.87,4.4Zm2.54-8.85h1.51l-.52,1.13Zm8.22,3.83,3.28,3.42-.53,3.36C259,381.41,258.1,379.15,257,376.26Zm5.47,10.54.66-4.15,6.69,7h-5.41c-.78-.73-1.55-1.42-2.31-2.06A1.63,1.63,0,0,0,262.48,386.8Zm16.57,18.14a2,2,0,0,0,.09-.35l.42.35Zm-26.32-50.21.08-5.8c.77,1.95,1.54,3.88,2.34,5.8Zm-5.92-13.16c-.21-.89-.42-1.83-.62-2.75l1.46-4q1.14,3.39,2.36,6.75Zm-1.74-9.23-.18.5c0-.17-.08-.33-.11-.5ZM241,311.55l-12.27.55c-.33-4.88-.62-9.73-.91-14.55l1.8,1.22,6.94-10.2c1.19,7.38,2.55,14.65,4.11,21.56Zm-5.35-28.91-4.89-6.11h4C235,278.57,235.31,280.61,235.61,282.64Zm-6.85-77.08h-2.23l2-5.56C228.61,201.68,228.67,203.53,228.76,205.56Zm-11.66,0h-1.59c.06-1.61.12-3.11.17-4.51ZM203.63,310.13c1.58-7,3-14.37,4.16-21.85l9.65,8.44V312.6l-14.54.65C203.15,312.21,203.4,311.17,203.63,310.13Zm2.69,22.21c0,.18-.08.36-.11.54l-4.05,3.05-2.67-3.59Zm-9.51,1.89,2.73,3.67-4.87,3.67h-.42C195.14,339.13,196,336.69,196.81,334.23ZM187.73,358h1.16l2.29,4.7L183,369.15h-.28Q185.3,363.69,187.73,358Zm-27.08,51,1.7,7.44-8.8,2.81C155.84,416.13,158.22,412.7,160.65,409Zm2.93-1.94,6.6-.28c-1.86,2.3-3.59,4.55-5.15,6.65Zm35.1-24,4.21-3.44,3.56,3.81A12.21,12.21,0,0,0,198.68,383Zm18.68,10.09h.08v.1Zm13.14,27.45c-1.13-3.37-2.49-7.09-4.1-10.86v-.36h10.33Zm12-11.22h4.34a1.17,1.17,0,0,0,.26,0c.32,2,.67,4,1,6Zm6.74-26.75,1.39-3,2.22,2.52A4.86,4.86,0,0,0,249.27,382.57Zm31.31,25.65h2.27a1.66,1.66,0,0,0-.37,1.52l.43,1.61C282.16,410.33,281.38,409.28,280.58,408.22Z" style="fill:none;stroke:#263238;stroke-miterlimit:10"></path><rect x="209.82" y="173.34" width="25.3" height="19.98" style="fill:#fff;stroke:#263238;stroke-miterlimit:10"></rect><rect x="222.47" y="173.34" width="12.65" height="19.98" style="fill:#bababa;stroke:#263238;stroke-miterlimit:10"></rect><rect x="208.57" y="178.65" width="27.81" height="6.48" style="fill:#fff;stroke:#263238;stroke-miterlimit:10"></rect><rect x="222.47" y="178.65" width="13.91" height="6.48" style="fill:#bababa;stroke:#263238;stroke-miterlimit:10"></rect><polygon points="252.78 316.26 255.13 292.99 187.56 292.99 189.9 316.26 252.78 316.26" style="fill:#fff;stroke:#263238;stroke-miterlimit:10"></polygon><polygon points="188.07 298.08 188.7 304.35 253.99 304.35 254.62 298.08 188.07 298.08" style="fill:#a3a3a3;stroke:#263238;stroke-miterlimit:10"></polygon><polygon points="253.23 311.87 253.86 305.6 188.83 305.6 189.46 311.87 253.23 311.87" style="fill:#a3a3a3;stroke:#263238;stroke-miterlimit:10"></polygon><polygon points="252.78 316.26 255.13 292.99 228.74 292.99 227.95 316.26 252.78 316.26" style="fill:#bababa;stroke:#263238;stroke-miterlimit:10"></polygon><polygon points="228.57 298.08 228.35 304.35 253.99 304.35 254.62 298.08 228.57 298.08" style="fill:#6b6b6b;stroke:#263238;stroke-miterlimit:10"></polygon><polygon points="253.23 311.87 253.86 305.6 228.31 305.6 228.1 311.87 253.23 311.87" style="fill:#6b6b6b;stroke:#263238;stroke-miterlimit:10"></polygon></g><g id="Window"><line x1="360.85" y1="428.6" x2="360.85" y2="32.67" style="fill:none;stroke:#263238;stroke-linecap:round;stroke-linejoin:round"></line><line x1="185.16" y1="428.6" x2="185.16" y2="33.89" style="fill:none;stroke:#263238;stroke-linecap:round;stroke-linejoin:round"></line><path d="M37.67,317.16q212.53-.06,424.21,0" style="fill:none;stroke:#263238;stroke-linecap:round;stroke-linejoin:round"></path><path d="M37.7,196.16c141.66-.35,282.84-.35,424.44,0" style="fill:none;stroke:#263238;stroke-linecap:round;stroke-linejoin:round"></path><path d="M37.7,76.94c141.66-.35,282.84-.35,424.44,0" style="fill:none;stroke:#263238;stroke-linecap:round;stroke-linejoin:round"></path><line x1="247.28" y1="259.41" x2="242.74" y2="262.21" style="fill:none;stroke:#263238;stroke-linecap:round;stroke-linejoin:round;stroke-width:0.5px"></line><line x1="323.9" y1="212.19" x2="253.39" y2="255.64" style="fill:none;stroke:#263238;stroke-linecap:round;stroke-linejoin:round;stroke-width:0.5px"></line><line x1="333.2" y1="215.13" x2="276.71" y2="249.94" style="fill:none;stroke:#263238;stroke-linecap:round;stroke-linejoin:round;stroke-width:0.5px"></line><line x1="357.87" y1="199.92" x2="340.81" y2="210.44" style="fill:none;stroke:#263238;stroke-linecap:round;stroke-linejoin:round;stroke-width:0.5px"></line><line x1="351.86" y1="147.51" x2="347.32" y2="150.31" style="fill:none;stroke:#263238;stroke-linecap:round;stroke-linejoin:round;stroke-width:0.5px"></line><line x1="428.47" y1="100.29" x2="357.97" y2="143.74" style="fill:none;stroke:#263238;stroke-linecap:round;stroke-linejoin:round;stroke-width:0.5px"></line><line x1="437.78" y1="103.23" x2="381.29" y2="138.04" style="fill:none;stroke:#263238;stroke-linecap:round;stroke-linejoin:round;stroke-width:0.5px"></line><line x1="462.45" y1="88.02" x2="445.39" y2="98.54" style="fill:none;stroke:#263238;stroke-linecap:round;stroke-linejoin:round;stroke-width:0.5px"></line><line x1="52.37" y1="149.61" x2="47.83" y2="152.41" style="fill:none;stroke:#263238;stroke-linecap:round;stroke-linejoin:round;stroke-width:0.5px"></line><line x1="128.99" y1="102.4" x2="58.48" y2="145.85" style="fill:none;stroke:#263238;stroke-linecap:round;stroke-linejoin:round;stroke-width:0.5px"></line><line x1="138.29" y1="105.33" x2="81.8" y2="140.14" style="fill:none;stroke:#263238;stroke-linecap:round;stroke-linejoin:round;stroke-width:0.5px"></line><line x1="162.96" y1="90.13" x2="145.9" y2="100.64" style="fill:none;stroke:#263238;stroke-linecap:round;stroke-linejoin:round;stroke-width:0.5px"></line><line x1="62.16" y1="409.31" x2="57.62" y2="412.11" style="fill:none;stroke:#263238;stroke-linecap:round;stroke-linejoin:round;stroke-width:0.5px"></line><line x1="138.78" y1="362.09" x2="68.27" y2="405.54" style="fill:none;stroke:#263238;stroke-linecap:round;stroke-linejoin:round;stroke-width:0.5px"></line><line x1="148.08" y1="365.03" x2="91.59" y2="399.84" style="fill:none;stroke:#263238;stroke-linecap:round;stroke-linejoin:round;stroke-width:0.5px"></line><line x1="172.75" y1="349.82" x2="155.69" y2="360.34" style="fill:none;stroke:#263238;stroke-linecap:round;stroke-linejoin:round;stroke-width:0.5px"></line><line x1="320.43" y1="412.92" x2="315.88" y2="415.72" style="fill:none;stroke:#263238;stroke-linecap:round;stroke-linejoin:round;stroke-width:0.5px"></line><line x1="397.04" y1="365.7" x2="326.53" y2="409.16" style="fill:none;stroke:#263238;stroke-linecap:round;stroke-linejoin:round;stroke-width:0.5px"></line><line x1="406.34" y1="368.64" x2="349.86" y2="403.45" style="fill:none;stroke:#263238;stroke-linecap:round;stroke-linejoin:round;stroke-width:0.5px"></line><line x1="431.01" y1="353.44" x2="413.95" y2="363.95" style="fill:none;stroke:#263238;stroke-linecap:round;stroke-linejoin:round;stroke-width:0.5px"></line><rect x="34" y="423.24" width="430.86" height="48.42" style="fill:#263238"></rect></g><g id="Character"><path d="M467.58,203.62s-3-9.49-3.67-10.78-4.74-3.24-5.17-3.88.22,6.46.22,6.46Z" style="fill:#fff;stroke:#263238;stroke-miterlimit:10"></path><rect x="444.72" y="181.41" width="15.09" height="33.21" rx="2.76" style="fill:#92E3A9;stroke:#263238;stroke-miterlimit:10"></rect><path d="M470.81,223.46s-.21-9.92-.21-11.65-3.24-8.62-3.88-10.56-11.21-11.43-13.16-12.73-4.09-1.5-3.88,0,2.59,2.81,3.45,3.67,5.18,5.61,5.18,5.61-9.7-2.16-10.57-2.38-1.94,1.08-.43,2.16,10.14,4.53,10.14,4.53-9.28-1.08-9.92-1.51-2.81.22-2.16,1.29,9.92,4.53,9.92,4.53-8.63,1.73-8.63,2.8,2.16,1.51,2.81,1.3,6.47-1.51,6.47-1.51,3,4.53,3.88,5.6,3.66,1.73,3.66,1.73l-.64,6Z" style="fill:#fff;stroke:#263238;stroke-miterlimit:10"></path><path d="M394,180.54a14.72,14.72,0,0,0-9.36-8.3c-7.05-2-16.09,3.36-17.79,5.61s-3.75,2.91-6.09,4.71a6.33,6.33,0,0,0-2.54,5.15,5.54,5.54,0,0,1-2.91,3.81c-1.86,1.12-3.08,2.92-2.74,4.71s1.13,3.59-.29,4.93-3.26,2.25-2.76,5.16,1.5,4.93.08,6.28-3.95,2.46-2.77,5.16,1.62,2.91.36,5.38-4.26,3.81-1.49,6.27,3.18,2.92,2.17,4.94-3.59,4-.3,5.15,3.45,2.25,3.36,3.81.06,2.7,1.38,3.14a5.83,5.83,0,0,1,3.85,2.92c1.44,2.24,3.64,2.91,5.27,1.79s3.34-3.59,6.09-.9,3.06,5.16,18.12,7.85,29.47-10.31,32.08-16.59,4.93-11.66,5.75-14.12.07-4.94.2-7.18.68-4,.58-6.05-1.66-2.24-2-4,.71-4.48-.07-6.5-2.55-2.24-3.16-3.36-.25-3.37-.8-5.38-2.36-1.8-3.2-2.69-.45-3.82-2.57-5.83-2.62-1.12-3.89-2.25-1.78-4-3.73-5.15S400.86,174.71,394,180.54Z" style="fill:#263238;stroke:#263238;stroke-miterlimit:10"></path><path d="M368.89,371l2.13,28.9a91,91,0,0,0-3.2,13.08c-.71,5.47,2.14,38.33,2.14,38.33h5.68s11-32.55,12.44-37.42,3.2-13.38,3.2-13.38l7.46-28.9Z" style="fill:#263238;stroke:#263238;stroke-miterlimit:10"></path><path d="M396.91,371.65s.61,26.46.61,27.38-2.43,10.34-2.74,15.51-.3,18.25-.3,18.25l-.61,16.12S403,452,403,451s11.86-35.89,13.38-42,3-18.86,3-18.86l5.78-20.38Z" style="fill:#263238;stroke:#263238;stroke-miterlimit:10"></path><path d="M389.31,421.54l-24.64-3.35s1.52,33.46,1.52,35.29S357.67,469,358,472.33s2.13,6.7,3.95,7.61,7.61-1.83,10-5.78,1.52-14,4.26-18S389.31,421.54,389.31,421.54Z" style="fill:#fff;stroke:#263238;stroke-miterlimit:10"></path><path d="M391.13,418.49,417,420s-13.08,35.29-13.39,37.12-.6,3-.6,3,6.69,6.39,10.64,8.51,7.61,4.26,7.3,5.48-2.73,2.13-13.08,1.52-7.6-1.52-9.43-2.13l-1.82-.61v2.74h-6.69s-.92-7.6,0-10.65,2.13-6.08,2.13-6.08Z" style="fill:#fff;stroke:#263238;stroke-miterlimit:10"></path><path d="M425.81,285s12.17,13.68,16.73,32.85,7.61,50.49,7.61,50.49-23.12,8.52-56.58,7.61-44.11-6.69-44.11-6.69,2.43-42.29,8.52-56.89a109.69,109.69,0,0,1,14.6-24.94s25.85,4.26,36.5.61S425.81,285,425.81,285Z" style="fill:#fff;stroke:#263238;stroke-miterlimit:10"></path><path d="M404.86,293.93s3.93,57.84,2.86,81.4" style="fill:none;stroke:#263238;stroke-miterlimit:10"></path><path d="M370.75,288.91s4.87,5.17,24.95,5.17,31.94-6.69,31.63-8.82a8.26,8.26,0,0,0-1.52-3.65s-28.29,5.17-38.33,4.87-14.6-2.13-14.6-2.13Z" style="fill:#fff;stroke:#263238;stroke-miterlimit:10"></path><path d="M402.08,289.82s-5.78.91-7.3,2.44-2.13,10.64-1.82,11.55,1.21,34.68,1.21,34.68l7.61,4.56s-3.65-45.93-3.35-48.67S402.08,289.82,402.08,289.82Z" style="fill:#fff;stroke:#263238;stroke-miterlimit:10"></path><path d="M407.86,289.52l2.74,52.93,7.91,6.38s-4.87-58.1-6.39-59S407.86,289.52,407.86,289.52Z" style="fill:#fff;stroke:#263238;stroke-miterlimit:10"></path><path d="M369.74,234.47s-12.21,7.67-12.21,9.34,12.69,39.76,12.69,41.2,2.64,3.35,10.54,5.27,30.9-1,36.17-2.64,9.82-4.07,10.05-6-2.39-31.14-2.39-31.14,28.26,7.42,30.9,6.71,19.4-33.77,19.4-33.77l-12.22-4.56-16.05,18.45s-27.06-9.34-31.13-10.3-17.72,1-18.44,1-20.84,3.83-21.56,4.31S369.74,234.47,369.74,234.47Z" style="fill:#fff;stroke:#263238;stroke-miterlimit:10"></path><polygon points="377.41 234.71 374.53 242.14 381.24 245.01 377.65 249.56 402.32 269.2 415.01 244.29 408.54 241.42 411.9 236.63 403.51 227.53 377.17 233.03 377.41 234.71" style="fill:#fff;stroke:#263238;stroke-miterlimit:10"></polygon><polygon points="392.26 246.45 401.36 263.69 401.12 244.77 392.26 246.45" style="fill:#263238;stroke:#263238;stroke-miterlimit:10"></polygon><line x1="402.32" y1="269.2" x2="404.23" y2="289.8" style="fill:#fff;stroke:#263238;stroke-miterlimit:10"></line><path d="M377.65,230.4s-6.23,1-7.43,2.4-2.15,2.63-2.15,2.63,3.11,2.4,10.06,7.19,14.13,7.9,20.83,5a8.06,8.06,0,0,0,5-9.35s-12,0-16.28-1.67S377.65,230.4,377.65,230.4Z" style="fill:#92E3A9;stroke:#263238;stroke-miterlimit:10"></path><path d="M380,225.85s-2.39-1.2-2.39,1.2-.24,7.66-.24,7.66-.72,3.12,8.14,6.71,18.92-.24,20.12-2.4-.72-10.06-1-11.49-6.71-1.44-10.54-1.92S380,225.85,380,225.85Z" style="fill:#92E3A9;stroke:#263238;stroke-miterlimit:10"></path><path d="M379.32,220.58l1.2,9.1s2.4,4.07,10.06,4.55,9.34-2.15,9.34-2.15l-.24-8.39a12.84,12.84,0,0,1-9.34.72,94.05,94.05,0,0,1-11-5Z" style="fill:#fff;stroke:#263238;stroke-miterlimit:10"></path><path d="M379,221.78s4.38,6.93,10.58,9.49,9.85-5.47,9.85-5.47Z" style="fill:#263238;stroke:#263238;stroke-miterlimit:10"></path><path d="M385.55,191.84a6,6,0,0,1,0,3.83c-.72,1.92-1.68,1.68-1.92,3.12s0,2.39-1.91,2.87-2.64,1-2.88,1.92-1.43,1.43-2.15,2.15l-.72.72-1.68,1.44s-3.83-2.16-3.59,2.39,3.35,6.47,4.31,6.71l1,.24s4.55,6.94,8.14,8.86,7.91,5,12.22,2.87,7.9-8.62,8.38-12.21S404,203.1,404,203.1s-6.22-.72-7.18-1.92a13.39,13.39,0,0,0-2.64-2.63c-1.43-1.2-2.63-1.44-3.83-2.64s-1.44-2.63-2.39-3.35A4.58,4.58,0,0,0,385.55,191.84Z" style="fill:#fff;stroke:#263238;stroke-linecap:round;stroke-miterlimit:10"></path><path d="M392,204.29s1,3.84,1.67,3.84,2.64.24,1.92,2.15-1.44,2.16-2.87,2.16" style="fill:none;stroke:#263238;stroke-linecap:round;stroke-miterlimit:10"></path><path d="M389.62,215.31a5.16,5.16,0,0,0,6.71-1" style="fill:none;stroke:#263238;stroke-linecap:round;stroke-miterlimit:10"></path><path d="M385.53,206.12c.22,1.24-.13,2.34-.78,2.45s-1.36-.79-1.58-2,.13-2.33.79-2.45S385.31,204.88,385.53,206.12Z" style="fill:#263238"></path><path d="M398,203.66c.24,1.32-.14,2.5-.84,2.62s-1.46-.85-1.69-2.18.14-2.5.84-2.62S397.79,202.33,398,203.66Z" style="fill:#263238"></path><polygon points="355.01 373.23 342.86 373.23 338.8 344.49 359.06 344.49 355.01 373.23" style="fill:#92E3A9;stroke:#263238;stroke-miterlimit:10"></polygon><rect x="337.87" y="344.12" width="21.92" height="6.86" style="fill:#fff;stroke:#263238;stroke-miterlimit:10"></rect><path d="M348,336.26s-6,1.44-8.62,1.92-4.08,1.2-3.6,2.87.48,10.54,1.44,11,2.4,1.2,3.11.24,1.44-6,1.44-6l3.35-2.15-.71,8.62s1.43,2.15,2.15,1.2A12.26,12.26,0,0,0,348,349.2a18.35,18.35,0,0,1,1.2-3.84s4.79-.72,6.46-.72S359,346.8,359,346.8s-.48,3.35-.72,4.55-1.44,2.64-.48,3.11,2.39-.95,3.83-2.87,2.87-3.35,2.87-4.31-4.31-8.14-4.31-8.86S348,336.26,348,336.26Z" style="fill:#fff;stroke:#263238;stroke-miterlimit:10"></path><path d="M337.17,352.07s.48-9.34,1.68-10.06,6.7-2.87,6.7-2.87" style="fill:#fff;stroke:#263238;stroke-miterlimit:10"></path><line x1="345.07" y1="344.17" x2="349.39" y2="341.29" style="fill:none;stroke:#263238;stroke-miterlimit:10"></line><path d="M362.32,240.7s-4.31,1-4.79,3.11-4.31,73.77-5,77.12-5.75,15.33-5.75,15.33,7.43,3.12,9.34,3.59,6.47,2.4,6.47,2.4,3.35-17,4.55-24.67,6.7-32.33,6.7-37.36-6.22-24-6.22-24" style="fill:#fff;stroke:#263238;stroke-miterlimit:10"></path></g><g id="Plant"><path d="M52,388.86c3.13,4.64,7.49,10.68,9.82,15.53-.89-3.2-1.75-6.22-2.55-8.95-1.19-2.33-4.38-8.25-8.06-12.19-4.67-5-6.67-8.22-4.15-8.5,1.74-.19,6.85,6.61,10,13.36-.69-2.3-1.24-4.07-1.57-5.1-.16-.46-.3-1-.45-1.52a136.09,136.09,0,0,1-9-14.48c-4.72-8.83-6.25-17.16-3.09-13.58,2.9,3.3,7.94,19.7,12,27.42-.33-1.33-.65-2.8-.94-4.25-.57-1.4-1.31-2.83-1.74-4.12-.65-2-1.23-4-1.69-6.05a42.12,42.12,0,0,1-1.15-9.75,19.64,19.64,0,0,1,3-10.89c.54-.82,3.86-5.78,4.88-3.23a2.75,2.75,0,0,1,.07,1.31c-.48,4.22-2,8.1-3,12.21-1.42,6.15-.48,16.48,0,20.87.18.7.41,1.56.67,2.56-.66-7.66,2.66-16.73,5.73-18.31,3.8-2,.07,5.74-2.86,12.46a20,20,0,0,0-1.9,9.43c.6,2.21,1.29,4.7,2,7.21.14.34.28.69.4,1a21.4,21.4,0,0,1-.4-5c.29-4.39,5.26-13.18,8.56-11.94s-2.29,5.88-5.28,11.27a16.29,16.29,0,0,0-1.72,9.69l.09.59c.34,1.14.68,2.25,1,3.3.78,2.45,1.5,4.76,2.19,7a35.32,35.32,0,0,1-1.11-10c.42-6.44,4.19-12.52,7.33-13.35s-2.83,9.67-4.82,15.57a21.17,21.17,0,0,0-.54,10.65c1,3.2,1.88,6.34,2.81,9.68a80.56,80.56,0,0,1,.28-13.09c.61-7.16,4.87-11.74,7.8-11.55s-.13,4.25-4.36,12.95a29.11,29.11,0,0,0-2.89,14.73c.38,1.41.77,2.85,1.17,4.36.45,1.72.82,3.58,1.13,5.5.43-1.71,1.06-4.2,1.8-7a63,63,0,0,0,1.86-9.3c.4-3.65,1.36-8.21,4.94-10.11a2,2,0,0,1,3,.81,4,4,0,0,1,.21,2.48,27.23,27.23,0,0,1-2.43,7.15,8.33,8.33,0,0,1,.93,4.39l-.09,1.7c.31-.58.61-1.12.89-1.59A10.32,10.32,0,0,1,82.75,418a29.48,29.48,0,0,1-.28-4.09c0-1.78,2.08-6.3,4-2.95.75,1.34.61,4,.68,5.73.52.49.67,1.47.24,3a39.21,39.21,0,0,1-.63,12.14l.64-1.14A87.78,87.78,0,0,0,89,416.46c.24-7.88-1-14.35,1.13-16.78s3.35,6.12,2.44,15.43A38.65,38.65,0,0,1,89.2,427.4c2.1-3.78,4.19-7.64,6.16-11.36.84-2,2.82-7.36,2.32-12.81-.62-6.87-1.07-12.49,1.53-16.35s3.16-1.36,1.88,6.69c-.88,5.54-1.82,12.92-3.42,18.05,1.53-2.94,3-5.73,4.24-8.27.73-2.52,2.43-9,2.43-14.41,0-6.85.73-10.56,2.76-9.05,1.41,1.05.5,9.51-1.77,16.63,1.07-2.17,1.87-3.83,2.33-4.81.21-.45.45-.92.71-1.42a135.59,135.59,0,0,1,3.28-16.74c2.58-9.68,7.15-16.81,7-12-.14,4.39-7.64,19.82-10,28.2.66-1.2,1.43-2.49,2.21-3.75.55-1.41,1-3,1.55-4.2.88-1.9,1.84-3.77,2.89-5.58a42.06,42.06,0,0,1,5.81-7.91,19.69,19.69,0,0,1,9.64-5.9c1-.22,6.76-1.58,5.77,1a2.67,2.67,0,0,1-.83,1c-3.24,2.76-7,4.55-10.51,6.91C120,374.79,113.62,383,111,386.53l-1.25,2.33c4.74-6,13.36-10.41,16.68-9.47,4.12,1.16-3.86,4.24-10.59,7.15a20.1,20.1,0,0,0-7.83,5.6c-1.07,2-2.26,4.31-3.46,6.63-.13.35-.26.69-.4,1a21,21,0,0,1,3.11-3.92c3.2-3,12.84-6.05,14.41-2.89s-5.69,2.74-11.56,4.64a16.24,16.24,0,0,0-7.87,5.9c-.11.17-.22.33-.34.49-.53,1.07-1,2.12-1.51,3.11-1.1,2.32-2.15,4.5-3.19,6.62a35.21,35.21,0,0,1,6-8.07c4.7-4.43,11.6-6.3,14.46-4.76S109,406.06,103.53,409a21.15,21.15,0,0,0-7.65,7.42c-1.48,3-3,5.91-4.56,9a80,80,0,0,1,9.14-9.38c5.33-4.82,11.57-5.26,13.58-3.12s-3,3-12,6.49a29.09,29.09,0,0,0-12.17,8.8c-.68,1.29-1.38,2.61-2.12,4-.84,1.56-1.84,3.18-2.92,4.79,1.47-1,3.64-2.35,6.06-3.86a61.56,61.56,0,0,0,7.71-5.53c2.78-2.39,6.6-5.07,10.51-4a2,2,0,0,1,1.64,2.64,4,4,0,0,1-1.53,2c-3.7,2.87-8.66,4.24-13,5.93A97,97,0,0,1,84.13,438c-1,1.46-2.09,2.91-3.15,4.29l1.93.06c2.28.07,12.59-4.61,17.83-6.11s10.13,1.34,4.64,4.29S85,442.81,85,442.81l-4.3-.13c-1,1.29-2,2.52-2.94,3.65H98.18V452h-4l-3.28,22.79H63.68L60.4,452h-4v-5.67H69.92a52.31,52.31,0,0,0-.2-7.35,18,18,0,0,0-3-2.42c-6-4.11-16-4.45-18.71-12.36-.65-1.91.08-4.36,2.36-4.25,1.64.07,3.38,1.51,4.4,2.69,3.41,3.93,6,8,10.39,11,.2.13,3,2.35,4.38,3.73q-.22-1.94-.6-4.14a39.13,39.13,0,0,0-3.65-5.41c-3.62-4.5-9.13-7.13-13-11.42-1.2-1.31-2.78-6,.89-4.86,1.63.53,3.55,3,4.82,4.12,3.6,3.22,7.27,6.7,9.64,11l-.3-1.27a89.86,89.86,0,0,0-8.51-11.49c-5.21-5.92-10.54-9.8-10.63-13s6.62,2.19,12.32,9.62a38.75,38.75,0,0,1,5.93,11.27c-1-4.2-2.15-8.44-3.25-12.51-.75-2-3-7.31-7-10.95-5.15-4.6-9.31-8.39-10-13S47.45,382.1,52,388.86ZM80.8,441c.77-1.05,1.57-2.19,2.4-3.44a41.3,41.3,0,0,0,1-6.44,27.34,27.34,0,0,0-.26-5.57,62.69,62.69,0,0,1-4.4,4.92,24.5,24.5,0,0,0,.59,4.81A57.4,57.4,0,0,1,80.8,441Zm-4.41,5.34c1-1.12,2.19-2.44,3.43-4a17.41,17.41,0,0,0-.53-3.81,27.1,27.1,0,0,0-2.12-5.67c-1.92,1.82-3.34,3-3.34,3l-3.23,2.84c.26,2.84.4,5.49.49,7.65Zm-5.84-8.16L72,436.9c.83-.73,2.28-3.55,3.86-6.79a40.49,40.49,0,0,1-1.8-4.22c-1.71,3.19-3.26,5.66-4.14,7C70.18,434.65,70.39,436.44,70.55,438.17Z" style="fill:#92E3A9"></path><path d="M52,388.86c3.13,4.64,7.49,10.68,9.82,15.53-.89-3.2-1.75-6.22-2.55-8.95-1.19-2.33-4.38-8.25-8.06-12.19-4.67-5-6.67-8.22-4.15-8.5,1.74-.19,6.85,6.61,10,13.36-.69-2.3-1.24-4.07-1.57-5.1-.16-.46-.3-1-.45-1.52a136.09,136.09,0,0,1-9-14.48c-4.72-8.83-6.25-17.16-3.09-13.58,2.9,3.3,7.94,19.7,12,27.42-.33-1.33-.65-2.8-.94-4.25-.57-1.4-1.31-2.83-1.74-4.12-.65-2-1.23-4-1.69-6.05a42.12,42.12,0,0,1-1.15-9.75,19.64,19.64,0,0,1,3-10.89c.54-.82,3.86-5.78,4.88-3.23a2.75,2.75,0,0,1,.07,1.31c-.48,4.22-2,8.1-3,12.21-1.42,6.15-.48,16.48,0,20.87.18.7.41,1.56.67,2.56-.66-7.66,2.66-16.73,5.73-18.31,3.8-2,.07,5.74-2.86,12.46a20,20,0,0,0-1.9,9.43c.6,2.21,1.29,4.7,2,7.21.14.34.28.69.4,1a21.4,21.4,0,0,1-.4-5c.29-4.39,5.26-13.18,8.56-11.94s-2.29,5.88-5.28,11.27a16.29,16.29,0,0,0-1.72,9.69l.09.59c.34,1.14.68,2.25,1,3.3.78,2.45,1.5,4.76,2.19,7a35.32,35.32,0,0,1-1.11-10c.42-6.44,4.19-12.52,7.33-13.35s-2.83,9.67-4.82,15.57a21.17,21.17,0,0,0-.54,10.65c1,3.2,1.88,6.34,2.81,9.68a80.56,80.56,0,0,1,.28-13.09c.61-7.16,4.87-11.74,7.8-11.55s-.13,4.25-4.36,12.95a29.11,29.11,0,0,0-2.89,14.73c.38,1.41.77,2.85,1.17,4.36.45,1.72.82,3.58,1.13,5.5.43-1.71,1.06-4.2,1.8-7a63,63,0,0,0,1.86-9.3c.4-3.65,1.36-8.21,4.94-10.11a2,2,0,0,1,3,.81,4,4,0,0,1,.21,2.48,27.23,27.23,0,0,1-2.43,7.15,8.33,8.33,0,0,1,.93,4.39l-.09,1.7c.31-.58.61-1.12.89-1.59A10.32,10.32,0,0,1,82.75,418a29.48,29.48,0,0,1-.28-4.09c0-1.78,2.08-6.3,4-2.95.75,1.34.61,4,.68,5.73.52.49.67,1.47.24,3a39.21,39.21,0,0,1-.63,12.14l.64-1.14A87.78,87.78,0,0,0,89,416.46c.24-7.88-1-14.35,1.13-16.78s3.35,6.12,2.44,15.43A38.65,38.65,0,0,1,89.2,427.4c2.1-3.78,4.19-7.64,6.16-11.36.84-2,2.82-7.36,2.32-12.81-.62-6.87-1.07-12.49,1.53-16.35s3.16-1.36,1.88,6.69c-.88,5.54-1.82,12.92-3.42,18.05,1.53-2.94,3-5.73,4.24-8.27.73-2.52,2.43-9,2.43-14.41,0-6.85.73-10.56,2.76-9.05,1.41,1.05.5,9.51-1.77,16.63,1.07-2.17,1.87-3.83,2.33-4.81.21-.45.45-.92.71-1.42a135.59,135.59,0,0,1,3.28-16.74c2.58-9.68,7.15-16.81,7-12-.14,4.39-7.64,19.82-10,28.2.66-1.2,1.43-2.49,2.21-3.75.55-1.41,1-3,1.55-4.2.88-1.9,1.84-3.77,2.89-5.58a42.06,42.06,0,0,1,5.81-7.91,19.69,19.69,0,0,1,9.64-5.9c1-.22,6.76-1.58,5.77,1a2.67,2.67,0,0,1-.83,1c-3.24,2.76-7,4.55-10.51,6.91C120,374.79,113.62,383,111,386.53l-1.25,2.33c4.74-6,13.36-10.41,16.68-9.47,4.12,1.16-3.86,4.24-10.59,7.15a20.1,20.1,0,0,0-7.83,5.6c-1.07,2-2.26,4.31-3.46,6.63-.13.35-.26.69-.4,1a21,21,0,0,1,3.11-3.92c3.2-3,12.84-6.05,14.41-2.89s-5.69,2.74-11.56,4.64a16.24,16.24,0,0,0-7.87,5.9c-.11.17-.22.33-.34.49-.53,1.07-1,2.12-1.51,3.11-1.1,2.32-2.15,4.5-3.19,6.62a35.21,35.21,0,0,1,6-8.07c4.7-4.43,11.6-6.3,14.46-4.76S109,406.06,103.53,409a21.15,21.15,0,0,0-7.65,7.42c-1.48,3-3,5.91-4.56,9a80,80,0,0,1,9.14-9.38c5.33-4.82,11.57-5.26,13.58-3.12s-3,3-12,6.49a29.09,29.09,0,0,0-12.17,8.8c-.68,1.29-1.38,2.61-2.12,4-.84,1.56-1.84,3.18-2.92,4.79,1.47-1,3.64-2.35,6.06-3.86a61.56,61.56,0,0,0,7.71-5.53c2.78-2.39,6.6-5.07,10.51-4a2,2,0,0,1,1.64,2.64,4,4,0,0,1-1.53,2c-3.7,2.87-8.66,4.24-13,5.93A97,97,0,0,1,84.13,438c-1,1.46-2.09,2.91-3.15,4.29l1.93.06c2.28.07,12.59-4.61,17.83-6.11s10.13,1.34,4.64,4.29S85,442.81,85,442.81l-4.3-.13c-1,1.29-2,2.52-2.94,3.65H98.18V452h-4l-3.28,22.79H63.68L60.4,452h-4v-5.67H69.92a52.31,52.31,0,0,0-.2-7.35,18,18,0,0,0-3-2.42c-6-4.11-16-4.45-18.71-12.36-.65-1.91.08-4.36,2.36-4.25,1.64.07,3.38,1.51,4.4,2.69,3.41,3.93,6,8,10.39,11,.2.13,3,2.35,4.38,3.73q-.22-1.94-.6-4.14a39.13,39.13,0,0,0-3.65-5.41c-3.62-4.5-9.13-7.13-13-11.42-1.2-1.31-2.78-6,.89-4.86,1.63.53,3.55,3,4.82,4.12,3.6,3.22,7.27,6.7,9.64,11l-.3-1.27a89.86,89.86,0,0,0-8.51-11.49c-5.21-5.92-10.54-9.8-10.63-13s6.62,2.19,12.32,9.62a38.75,38.75,0,0,1,5.93,11.27c-1-4.2-2.15-8.44-3.25-12.51-.75-2-3-7.31-7-10.95-5.15-4.6-9.31-8.39-10-13S47.45,382.1,52,388.86ZM80.8,441c.77-1.05,1.57-2.19,2.4-3.44a41.3,41.3,0,0,0,1-6.44,27.34,27.34,0,0,0-.26-5.57,62.69,62.69,0,0,1-4.4,4.92,24.5,24.5,0,0,0,.59,4.81A57.4,57.4,0,0,1,80.8,441Zm-4.41,5.34c1-1.12,2.19-2.44,3.43-4a17.41,17.41,0,0,0-.53-3.81,27.1,27.1,0,0,0-2.12-5.67c-1.92,1.82-3.34,3-3.34,3l-3.23,2.84c.26,2.84.4,5.49.49,7.65Zm-5.84-8.16L72,436.9c.83-.73,2.28-3.55,3.86-6.79a40.49,40.49,0,0,1-1.8-4.22c-1.71,3.19-3.26,5.66-4.14,7C70.18,434.65,70.39,436.44,70.55,438.17Z" style="fill:#92E3A9;opacity:0.4"></path></g></svg>