<svg xmlns="http://www.w3.org/2000/svg" viewBox="0 0 500 500"><g id="background-simple"><path d="M477.11,232.23c6.13-53.86-12.08-107.94-50.3-146.36C408,67,382.3,49.17,348.15,40.57c-95.77-24.12-157.85-2-188.88,56.66S39.2,145.8,25,247,79.67,459.48,196.37,465.55s101.68-52,165.52-76.94C410.72,369.55,468,312.59,477.11,232.23Z" style="fill:#92E3A9"></path><path d="M477.11,232.23c6.13-53.86-12.08-107.94-50.3-146.36C408,67,382.3,49.17,348.15,40.57c-95.77-24.12-157.85-2-188.88,56.66S39.2,145.8,25,247,79.67,459.48,196.37,465.55s101.68-52,165.52-76.94C410.72,369.55,468,312.59,477.11,232.23Z" style="fill:#fff;opacity:0.7000000000000001"></path></g><g id="Vase"><path d="M406.26,221.12c-4.12-9-9.65-11-9.65-11" style="fill:none;stroke:#263238;stroke-linecap:round;stroke-linejoin:round"></path><line x1="413.66" y1="212.43" x2="411.39" y2="220.94" style="fill:none;stroke:#263238;stroke-linecap:round;stroke-linejoin:round"></line><line x1="416.07" y1="221.06" x2="427.18" y2="199.66" style="fill:none;stroke:#263238;stroke-linecap:round;stroke-linejoin:round"></line><line x1="408.78" y1="188.63" x2="411" y2="220.83" style="fill:none;stroke:#263238;stroke-linecap:round;stroke-linejoin:round"></line><path d="M416.77,232.75v-4.64l6.34-7.05H397.74l6.34,7.05v4.64A28.52,28.52,0,0,1,395,253.63h0V282h30.87V253.63h0A28.56,28.56,0,0,1,416.77,232.75Z" style="fill:none;stroke:#263238;stroke-linecap:round;stroke-linejoin:round"></path><path d="M401.79,209.72c7.85-7.07,2.31-12.61-4.77-4.76a.56.56,0,0,1-.82,0c-7.07-7.85-12.62-2.31-4.77,4.76a.55.55,0,0,1,0,.83c-7.85,7.07-2.3,12.61,4.77,4.77a.54.54,0,0,1,.82,0c7.08,7.84,12.62,2.3,4.77-4.77A.57.57,0,0,1,401.79,209.72Z" style="fill:#263238"></path><path d="M399.16,210.14a2.55,2.55,0,1,0-2.55,2.54A2.55,2.55,0,0,0,399.16,210.14Z" style="fill:#fff;stroke:#263238;stroke-linecap:round;stroke-linejoin:round"></path><path d="M413.48,190.84c10.33-2.24,8.27-9.8-1.77-6.5a.55.55,0,0,1-.71-.41c-2.24-10.33-9.81-8.27-6.51,1.77a.55.55,0,0,1-.41.71c-10.32,2.24-8.27,9.81,1.77,6.51a.56.56,0,0,1,.72.41c2.23,10.32,9.8,8.26,6.5-1.77A.56.56,0,0,1,413.48,190.84Z" style="fill:#263238"></path><path d="M411,189.89a2.55,2.55,0,1,0-3.47,1A2.54,2.54,0,0,0,411,189.89Z" style="fill:#fff;stroke:#263238;stroke-linecap:round;stroke-linejoin:round"></path><path d="M430.27,203.84c10.15,2.91,11.92-4.73,1.52-6.57a.55.55,0,0,1-.44-.7c2.91-10.15-4.72-11.92-6.57-1.52a.55.55,0,0,1-.7.44c-10.15-2.91-11.92,4.72-1.52,6.57a.55.55,0,0,1,.44.7c-2.91,10.15,4.73,11.92,6.57,1.52A.55.55,0,0,1,430.27,203.84Z" style="fill:#263238"></path><path d="M428.53,201.83A2.55,2.55,0,1,0,425,201,2.56,2.56,0,0,0,428.53,201.83Z" style="fill:#fff;stroke:#263238;stroke-linecap:round;stroke-linejoin:round"></path><path d="M416.75,216.6c10.16,2.92,11.92-4.72,1.52-6.57a.56.56,0,0,1-.44-.7c2.92-10.15-4.72-11.92-6.57-1.51a.54.54,0,0,1-.69.43c-10.16-2.91-11.93,4.73-1.52,6.57a.55.55,0,0,1,.43.7c-2.91,10.15,4.73,11.92,6.57,1.52A.55.55,0,0,1,416.75,216.6Z" style="fill:#263238"></path><path d="M415,214.59a2.55,2.55,0,1,0-3.51-.81A2.56,2.56,0,0,0,415,214.59Z" style="fill:#fff;stroke:#263238;stroke-linecap:round;stroke-linejoin:round"></path></g><g id="Table"><polygon points="346.17 290.64 346.17 467.28 351.63 467.28 351.63 347.99 463.82 347.99 463.82 467.28 469.29 467.28 469.29 290.64 346.17 290.64" style="fill:none;stroke:#263238;stroke-linecap:round;stroke-linejoin:round"></polygon><rect x="342.11" y="282.1" width="131.24" height="8.54" style="fill:none;stroke:#263238;stroke-linecap:round;stroke-linejoin:round"></rect><rect x="353.87" y="301.31" width="108.4" height="37.86" style="fill:none;stroke:#263238;stroke-linecap:round;stroke-linejoin:round"></rect><rect x="390.95" y="315.83" width="34.23" height="8.82" style="fill:none;stroke:#263238;stroke-linecap:round;stroke-linejoin:round"></rect></g><g id="Picture"><rect x="363.83" y="20.01" width="91.21" height="107.26" style="fill:none;stroke:#000;stroke-linecap:round;stroke-linejoin:round"></rect><rect x="367.69" y="26.45" width="83.49" height="94.39" style="fill:none;stroke:#000;stroke-linecap:round;stroke-linejoin:round"></rect><rect x="378.02" y="50.57" width="29.43" height="46.15" style="fill:none;stroke:#000;stroke-linecap:round;stroke-linejoin:round"></rect><rect x="411.41" y="50.57" width="29.43" height="46.15" style="fill:none;stroke:#000;stroke-linecap:round;stroke-linejoin:round"></rect></g><g id="Plant"><line x1="302.24" y1="192.75" x2="283.37" y2="175.5" style="fill:none;stroke:#fff;stroke-linecap:round;stroke-linejoin:round"></line><line x1="50.5" y1="275.1" x2="65.65" y2="420.31" style="fill:none;stroke:#263238;stroke-linecap:round;stroke-linejoin:round"></line><line x1="62.67" y1="391.91" x2="56.34" y2="385.26" style="fill:none;stroke:#263238;stroke-linecap:round;stroke-linejoin:round"></line><path d="M58.43,387.43a7.78,7.78,0,0,0-2.74-5.82c-1.76-1.58-11-5.48-11.92-2.21C42.81,383,52.31,389.93,58.43,387.43Z" style="fill:#92E3A9;stroke:#263238;stroke-linejoin:round"></path><line x1="58.43" y1="387.43" x2="49.59" y2="381.93" style="fill:none;stroke:#263238;stroke-linecap:round;stroke-linejoin:round"></line><line x1="64.24" y1="406.91" x2="58.06" y2="401.77" style="fill:none;stroke:#263238;stroke-linecap:round;stroke-linejoin:round"></line><path d="M60.15,404a7.76,7.76,0,0,0-2.74-5.83c-1.76-1.57-11-5.48-11.92-2.21C44.53,399.47,54,406.45,60.15,404Z" style="fill:#92E3A9;stroke:#263238;stroke-linejoin:round"></path><line x1="60.15" y1="403.95" x2="51.31" y2="398.44" style="fill:none;stroke:#263238;stroke-linecap:round;stroke-linejoin:round"></line><line x1="58.37" y1="350.57" x2="52.13" y2="344.96" style="fill:none;stroke:#263238;stroke-linecap:round;stroke-linejoin:round"></line><path d="M54.22,347.14a7.78,7.78,0,0,0-2.73-5.83c-1.77-1.58-11.05-5.48-11.93-2.21C38.6,342.65,48.1,349.64,54.22,347.14Z" style="fill:#92E3A9;stroke:#263238;stroke-linejoin:round"></path><line x1="54.22" y1="347.14" x2="45.39" y2="341.63" style="fill:none;stroke:#263238;stroke-linecap:round;stroke-linejoin:round"></line><line x1="60.11" y1="368.14" x2="53.86" y2="361.48" style="fill:none;stroke:#263238;stroke-linecap:round;stroke-linejoin:round"></line><path d="M55.94,363.65a7.78,7.78,0,0,0-2.73-5.83c-1.76-1.57-11-5.48-11.93-2.21C40.33,359.17,49.83,366.15,55.94,363.65Z" style="fill:#92E3A9;stroke:#263238;stroke-linejoin:round"></path><line x1="55.94" y1="363.65" x2="47.11" y2="358.14" style="fill:none;stroke:#263238;stroke-linecap:round;stroke-linejoin:round"></line><line x1="55.59" y1="324.51" x2="49.33" y2="318.14" style="fill:none;stroke:#263238;stroke-linecap:round;stroke-linejoin:round"></line><path d="M51.42,320.31a7.78,7.78,0,0,0-2.73-5.83c-1.77-1.57-11-5.48-11.93-2.21C35.8,315.83,45.3,322.81,51.42,320.31Z" style="fill:#92E3A9;stroke:#263238;stroke-linejoin:round"></path><line x1="51.42" y1="320.31" x2="42.59" y2="314.8" style="fill:none;stroke:#263238;stroke-linecap:round;stroke-linejoin:round"></line><line x1="52.58" y1="295.83" x2="46.52" y2="291.19" style="fill:none;stroke:#263238;stroke-linecap:round;stroke-linejoin:round"></line><path d="M48.61,293.37a7.76,7.76,0,0,0-2.74-5.83c-1.76-1.58-11-5.48-11.92-2.21C33,288.88,42.49,295.86,48.61,293.37Z" style="fill:#92E3A9;stroke:#263238;stroke-linejoin:round"></path><line x1="48.61" y1="293.37" x2="39.77" y2="287.86" style="fill:none;stroke:#263238;stroke-linecap:round;stroke-linejoin:round"></line><line x1="62.05" y1="382.75" x2="67.28" y2="374.23" style="fill:none;stroke:#263238;stroke-linecap:round;stroke-linejoin:round"></line><path d="M65.68,376.79a7.8,7.8,0,0,1,1.48-6.27c1.4-1.91,9.67-7.64,11.21-4.63C80,369.17,72.19,378,65.68,376.79Z" style="fill:#92E3A9;stroke:#263238;stroke-linejoin:round"></path><line x1="65.68" y1="376.79" x2="71.9" y2="370.95" style="fill:none;stroke:#263238;stroke-linecap:round;stroke-linejoin:round"></line><line x1="57.52" y1="339.29" x2="62.74" y2="330.77" style="fill:none;stroke:#263238;stroke-linecap:round;stroke-linejoin:round"></line><path d="M61.15,333.33a7.77,7.77,0,0,1,1.47-6.27c1.4-1.9,7.87-6.68,9.41-3.66C73.7,326.68,67.65,334.51,61.15,333.33Z" style="fill:#92E3A9;stroke:#263238;stroke-linejoin:round"></path><line x1="61.15" y1="333.33" x2="69.1" y2="325.72" style="fill:none;stroke:#263238;stroke-linecap:round;stroke-linejoin:round"></line><line x1="55.53" y1="320.19" x2="60.75" y2="311.67" style="fill:none;stroke:#263238;stroke-linecap:round;stroke-linejoin:round"></line><path d="M59.16,314.23A7.77,7.77,0,0,1,60.63,308c1.4-1.9,9.67-7.64,11.21-4.62C73.51,306.62,65.66,315.41,59.16,314.23Z" style="fill:#92E3A9;stroke:#263238;stroke-linejoin:round"></path><line x1="59.16" y1="314.23" x2="67.11" y2="306.63" style="fill:none;stroke:#263238;stroke-linecap:round;stroke-linejoin:round"></line><line x1="52.6" y1="292.19" x2="57.83" y2="283.67" style="fill:none;stroke:#263238;stroke-linecap:round;stroke-linejoin:round"></line><path d="M56.23,286.23A7.8,7.8,0,0,1,57.71,280c1.4-1.9,9.67-7.64,11.21-4.62C70.59,278.62,62.74,287.41,56.23,286.23Z" style="fill:#92E3A9;stroke:#263238;stroke-linejoin:round"></path><line x1="56.23" y1="286.23" x2="64.19" y2="278.63" style="fill:none;stroke:#263238;stroke-linecap:round;stroke-linejoin:round"></line><path d="M50.37,274.29A7.77,7.77,0,0,1,51.84,268c1.4-1.9,9.68-7.64,11.21-4.62C64.72,266.68,56.87,275.47,50.37,274.29Z" style="fill:#92E3A9;stroke:#263238;stroke-linejoin:round"></path><line x1="50.37" y1="274.29" x2="58.32" y2="266.69" style="fill:none;stroke:#263238;stroke-linecap:round;stroke-linejoin:round"></line><path d="M50.83,274.62a7.81,7.81,0,0,1-6.08-2.12c-1.74-1.6-6.58-10.43-3.42-11.64C44.77,259.54,52.69,268.28,50.83,274.62Z" style="fill:#92E3A9;stroke:#263238;stroke-linejoin:round"></path><line x1="50.83" y1="274.62" x2="44.1" y2="265.91" style="fill:none;stroke:#263238;stroke-linecap:round;stroke-linejoin:round"></line><line x1="73.2" y1="235.96" x2="73.2" y2="419.6" style="fill:none;stroke:#263238;stroke-linecap:round;stroke-linejoin:round"></line><line x1="90.47" y1="295.09" x2="75.4" y2="440.31" style="fill:none;stroke:#263238;stroke-linecap:round;stroke-linejoin:round"></line><line x1="78.58" y1="410.64" x2="75.1" y2="406.66" style="fill:none;stroke:#263238;stroke-linecap:round;stroke-linejoin:round"></line><path d="M75.1,406.66a7.8,7.8,0,0,0-1.48-6.27c-1.4-1.9-9.68-7.63-11.21-4.62C60.74,399.06,68.59,407.84,75.1,406.66Z" style="fill:#92E3A9;stroke:#263238;stroke-linejoin:round"></path><line x1="75.1" y1="406.66" x2="67.58" y2="399.45" style="fill:none;stroke:#263238;stroke-linecap:round;stroke-linejoin:round"></line><line x1="82.84" y1="369.18" x2="77.66" y2="364.86" style="fill:none;stroke:#263238;stroke-linecap:round;stroke-linejoin:round"></line><path d="M79.28,366.36a7.8,7.8,0,0,0-1.48-6.27c-1.4-1.9-9.68-7.63-11.21-4.62C64.92,358.75,72.78,367.54,79.28,366.36Z" style="fill:#92E3A9;stroke:#263238;stroke-linejoin:round"></path><line x1="79.28" y1="366.36" x2="71.77" y2="359.15" style="fill:none;stroke:#263238;stroke-linecap:round;stroke-linejoin:round"></line><line x1="81.2" y1="388.83" x2="75.97" y2="380.32" style="fill:none;stroke:#263238;stroke-linecap:round;stroke-linejoin:round"></line><path d="M77.56,382.87a7.74,7.74,0,0,0-1.47-6.26c-1.4-1.91-9.68-7.64-11.22-4.62C63.2,375.27,71.06,384.06,77.56,382.87Z" style="fill:#92E3A9;stroke:#263238;stroke-linejoin:round"></path><line x1="77.56" y1="382.87" x2="70.05" y2="375.67" style="fill:none;stroke:#263238;stroke-linecap:round;stroke-linejoin:round"></line><line x1="85.46" y1="342.72" x2="80.47" y2="336.97" style="fill:none;stroke:#263238;stroke-linecap:round;stroke-linejoin:round"></line><path d="M82.06,339.53a7.81,7.81,0,0,0-1.47-6.27c-1.41-1.9-9.68-7.63-11.22-4.62C67.7,331.93,75.56,340.71,82.06,339.53Z" style="fill:#92E3A9;stroke:#263238;stroke-linejoin:round"></path><line x1="82.06" y1="339.53" x2="74.55" y2="332.32" style="fill:none;stroke:#263238;stroke-linecap:round;stroke-linejoin:round"></line><line x1="88.08" y1="317.51" x2="83.26" y2="310.03" style="fill:none;stroke:#263238;stroke-linecap:round;stroke-linejoin:round"></line><path d="M84.86,312.58a7.77,7.77,0,0,0-1.48-6.26c-1.4-1.91-9.68-7.64-11.21-4.62C70.5,305,78.36,313.77,84.86,312.58Z" style="fill:#92E3A9;stroke:#263238;stroke-linejoin:round"></path><line x1="84.86" y1="312.58" x2="77.35" y2="305.38" style="fill:none;stroke:#263238;stroke-linecap:round;stroke-linejoin:round"></line><line x1="79.61" y1="402.82" x2="86.48" y2="395.56" style="fill:none;stroke:#263238;stroke-linecap:round;stroke-linejoin:round"></line><path d="M84.39,397.73a7.78,7.78,0,0,1,2.73-5.83c1.76-1.57,11-5.48,11.93-2.22C100,393.24,90.51,400.23,84.39,397.73Z" style="fill:#92E3A9;stroke:#263238;stroke-linejoin:round"></path><line x1="84.39" y1="397.73" x2="93.74" y2="391.93" style="fill:none;stroke:#263238;stroke-linecap:round;stroke-linejoin:round"></line><line x1="84.12" y1="359.36" x2="90.99" y2="352.1" style="fill:none;stroke:#263238;stroke-linecap:round;stroke-linejoin:round"></line><path d="M88.9,354.27a7.78,7.78,0,0,1,2.73-5.83c1.76-1.57,11-5.48,11.93-2.22C104.52,349.78,95,356.77,88.9,354.27Z" style="fill:#92E3A9;stroke:#263238;stroke-linejoin:round"></path><line x1="88.9" y1="354.27" x2="98.25" y2="348.47" style="fill:none;stroke:#263238;stroke-linecap:round;stroke-linejoin:round"></line><line x1="86.1" y1="340.26" x2="92.97" y2="333" style="fill:none;stroke:#263238;stroke-linecap:round;stroke-linejoin:round"></line><path d="M90.88,335.17a7.78,7.78,0,0,1,2.73-5.83c1.77-1.57,11-5.48,11.93-2.22C106.5,330.68,97,337.67,90.88,335.17Z" style="fill:#92E3A9;stroke:#263238;stroke-linejoin:round"></path><line x1="90.88" y1="335.17" x2="100.23" y2="329.37" style="fill:none;stroke:#263238;stroke-linecap:round;stroke-linejoin:round"></line><line x1="88.93" y1="310.83" x2="95.87" y2="305" style="fill:none;stroke:#263238;stroke-linecap:round;stroke-linejoin:round"></line><path d="M93.79,307.17a7.78,7.78,0,0,1,2.73-5.83c1.76-1.57,11-5.48,11.92-2.22C109.4,302.68,99.91,309.67,93.79,307.17Z" style="fill:#92E3A9;stroke:#263238;stroke-linejoin:round"></path><line x1="93.79" y1="307.17" x2="103.14" y2="301.37" style="fill:#92E3A9;stroke:#263238;stroke-linejoin:round"></line><path d="M90.51,294.28a7.78,7.78,0,0,1,2.73-5.83c1.76-1.58,11-5.49,11.92-2.22C106.12,289.79,96.63,296.77,90.51,294.28Z" style="fill:#92E3A9;stroke:#263238;stroke-linejoin:round"></path><line x1="90.51" y1="294.28" x2="99.86" y2="288.48" style="fill:none;stroke:#263238;stroke-linecap:round;stroke-linejoin:round"></line><path d="M90.89,294.7a7.78,7.78,0,0,1-5.51-3.33c-1.38-1.92-4.3-11.56-.95-12.09C88.06,278.7,94,288.87,90.89,294.7Z" style="fill:#92E3A9;stroke:#263238;stroke-linejoin:round"></path><line x1="90.89" y1="294.7" x2="86.1" y2="284.79" style="fill:none;stroke:#263238;stroke-linecap:round;stroke-linejoin:round"></line><line x1="72.95" y1="391.65" x2="67.26" y2="384.06" style="fill:none;stroke:#263238;stroke-linecap:round;stroke-linejoin:round"></line><path d="M69.12,386.44A7.81,7.81,0,0,0,67,380.36c-1.59-1.75-10.42-6.6-11.63-3.44C54.05,380.36,62.77,388.29,69.12,386.44Z" style="fill:#92E3A9;stroke:#263238;stroke-linejoin:round"></path><line x1="69.12" y1="386.44" x2="60.9" y2="380.04" style="fill:none;stroke:#263238;stroke-linecap:round;stroke-linejoin:round"></line><line x1="73.15" y1="355.02" x2="67.26" y2="349.55" style="fill:none;stroke:#263238;stroke-linecap:round;stroke-linejoin:round"></line><path d="M69.12,351.93A7.81,7.81,0,0,0,67,345.85c-1.59-1.75-10.42-6.6-11.63-3.44C54.05,345.85,62.77,353.78,69.12,351.93Z" style="fill:#92E3A9;stroke:#263238;stroke-linejoin:round"></path><line x1="69.12" y1="351.93" x2="60.9" y2="345.53" style="fill:none;stroke:#263238;stroke-linecap:round;stroke-linejoin:round"></line><line x1="73.34" y1="316.96" x2="67.26" y2="309.03" style="fill:none;stroke:#263238;stroke-linecap:round;stroke-linejoin:round"></line><path d="M69.12,311.41A7.81,7.81,0,0,0,67,305.33c-1.59-1.75-10.42-6.6-11.63-3.44C54.05,305.33,62.77,313.26,69.12,311.41Z" style="fill:#92E3A9;stroke:#263238;stroke-linejoin:round"></path><line x1="69.12" y1="311.41" x2="60.9" y2="305.02" style="fill:none;stroke:#263238;stroke-linecap:round;stroke-linejoin:round"></line><line x1="72.95" y1="287.18" x2="67.26" y2="282.06" style="fill:none;stroke:#263238;stroke-linecap:round;stroke-linejoin:round"></line><path d="M69.12,284.44A7.81,7.81,0,0,0,67,278.36c-1.59-1.75-10.42-6.6-11.63-3.44C54.05,278.36,62.77,286.29,69.12,284.44Z" style="fill:#92E3A9;stroke:#263238;stroke-linejoin:round"></path><line x1="69.12" y1="284.44" x2="60.9" y2="278.04" style="fill:none;stroke:#263238;stroke-linecap:round;stroke-linejoin:round"></line><line x1="73.28" y1="260.2" x2="67.38" y2="255.87" style="fill:none;stroke:#263238;stroke-linecap:round;stroke-linejoin:round"></line><path d="M69.12,257.35A7.81,7.81,0,0,0,67,251.27c-1.59-1.75-10.42-6.6-11.63-3.44C54.05,251.27,62.77,259.2,69.12,257.35Z" style="fill:#92E3A9;stroke:#263238;stroke-linejoin:round"></path><line x1="69.12" y1="257.35" x2="60.9" y2="250.95" style="fill:none;stroke:#263238;stroke-linecap:round;stroke-linejoin:round"></line><line x1="74.39" y1="400.82" x2="79.29" y2="394.6" style="fill:none;stroke:#263238;stroke-linecap:round;stroke-linejoin:round"></line><path d="M77.44,397a7.78,7.78,0,0,1,2.11-6.08c1.59-1.74,10.42-6.59,11.64-3.43C92.51,390.89,83.78,398.82,77.44,397Z" style="fill:#92E3A9;stroke:#263238;stroke-linejoin:round"></path><line x1="77.44" y1="396.97" x2="86.14" y2="390.24" style="fill:none;stroke:#263238;stroke-linecap:round;stroke-linejoin:round"></line><line x1="73.21" y1="347.64" x2="79.29" y2="339.71" style="fill:none;stroke:#263238;stroke-linecap:round;stroke-linejoin:round"></line><path d="M77.44,342.09A7.78,7.78,0,0,1,79.55,336c1.59-1.75,10.42-6.6,11.64-3.44C92.51,336,83.78,343.94,77.44,342.09Z" style="fill:#92E3A9;stroke:#263238;stroke-linejoin:round"></path><line x1="77.44" y1="342.09" x2="86.14" y2="335.35" style="fill:none;stroke:#263238;stroke-linecap:round;stroke-linejoin:round"></line><line x1="73.21" y1="320.55" x2="79.29" y2="312.62" style="fill:none;stroke:#263238;stroke-linecap:round;stroke-linejoin:round"></line><path d="M77.44,315a7.78,7.78,0,0,1,2.11-6.08c1.59-1.75,10.42-6.6,11.64-3.44C92.51,308.92,83.78,316.85,77.44,315Z" style="fill:#92E3A9;stroke:#263238;stroke-linejoin:round"></path><line x1="77.44" y1="315" x2="86.14" y2="308.26" style="fill:none;stroke:#263238;stroke-linecap:round;stroke-linejoin:round"></line><line x1="73.21" y1="284.74" x2="79.29" y2="276.81" style="fill:none;stroke:#263238;stroke-linecap:round;stroke-linejoin:round"></line><path d="M77.44,279.19a7.78,7.78,0,0,1,2.11-6.08c1.59-1.75,10.42-6.59,11.64-3.43C92.51,273.11,83.78,281,77.44,279.19Z" style="fill:#92E3A9;stroke:#263238;stroke-linejoin:round"></path><line x1="77.44" y1="279.19" x2="86.14" y2="272.45" style="fill:none;stroke:#263238;stroke-linecap:round;stroke-linejoin:round"></line><line x1="73.47" y1="253.84" x2="79.43" y2="249.19" style="fill:none;stroke:#263238;stroke-linecap:round;stroke-linejoin:round"></line><path d="M77.44,251A7.78,7.78,0,0,1,79.55,245c1.59-1.75,10.42-6.59,11.64-3.43C92.51,245,83.78,252.89,77.44,251Z" style="fill:#92E3A9;stroke:#263238;stroke-linejoin:round"></path><line x1="77.44" y1="251.04" x2="86.14" y2="244.3" style="fill:none;stroke:#263238;stroke-linecap:round;stroke-linejoin:round"></line><path d="M72.85,238.56A7.77,7.77,0,0,1,75,232.48c1.59-1.75,10.42-6.6,11.63-3.44C87.91,232.48,79.19,240.41,72.85,238.56Z" style="fill:#92E3A9;stroke:#263238;stroke-linejoin:round"></path><line x1="72.85" y1="238.56" x2="81.55" y2="231.82" style="fill:none;stroke:#263238;stroke-linecap:round;stroke-linejoin:round"></line><path d="M73.27,238.93a7.78,7.78,0,0,1-5.82-2.74c-1.58-1.76-5.47-11.05-2.2-11.93C68.8,223.31,75.78,232.82,73.27,238.93Z" style="fill:#92E3A9;stroke:#263238;stroke-linejoin:round"></path><line x1="73.27" y1="238.93" x2="67.48" y2="229.57" style="fill:none;stroke:#263238;stroke-linecap:round;stroke-linejoin:round"></line><polygon points="80.75 467.23 61.3 467.23 58.87 418.11 83.18 418.11 80.75 467.23" style="fill:#263238;stroke:#263238;stroke-linecap:round;stroke-linejoin:round"></polygon></g><g id="Floor"><line x1="485.93" y1="467.23" x2="19.49" y2="467.23" style="fill:none;stroke:#263238;stroke-linecap:round;stroke-linejoin:round"></line></g><g id="character-2"><path d="M264.35,289s2.46,34.24,0,49.51-11.82,45.58-12.81,61.59-1.23,55.18-1.23,61.09,0,6.65,1.72,6.9,19.22,0,19.22,0,2.22-1.23.49-5.91-4.19-5.67-6.16-9.61-2-8.92-2.21-10.65-.81-6.57,5.66-32.46c2.34-9.37,5.67-15.52,10.1-29.56s7.39-37.69,5.42-53-3-33.75-10.1-38.92S265.09,287.3,264.35,289Z" style="fill:#92E3A9;stroke:#263238;stroke-linecap:round;stroke-linejoin:round"></path><path d="M265.58,452.59c-2-3.94-2-8.92-2.21-10.65a34.92,34.92,0,0,1,.76-10.15c-7.5.67-10.86-.59-13.51-1.56-.23,14.14-.31,27.7-.31,31,0,5.91,0,6.65,1.72,6.9s19.22,0,19.22,0,2.22-1.23.49-5.91S267.55,456.53,265.58,452.59Z" style="fill:#c2c2c2;stroke:#263238;stroke-linecap:round;stroke-linejoin:round"></path><path d="M250.8,448.65a8.83,8.83,0,0,1,5.67-.25c2.71,1,9.11,4.19,9.11,4.19l-.9-3.25s2.63.29,3.61,6.2c0,0,4.82,5.93,4.72,9.47s-1.77,4.36-2.46,4.36-20.56-.59-20.56-.59-1.17-1.89,0-11.15C250.74,451.77,248.37,448.52,250.8,448.65Z" style="fill:#fff;stroke:#263238;stroke-linecap:round;stroke-linejoin:round"></path><path d="M249.49,465.62a7.72,7.72,0,0,0,.5,3.16s19.87.59,20.56.59,1.95-.63,2.35-3.13Z" style="fill:#fff;stroke:#263238;stroke-linecap:round;stroke-linejoin:round"></path><path d="M292.47,74.17s-10.6-7.13-11-5.59a11,11,0,0,0,.19,4s-10.8-.06-12.06.47c-2.36,1-7.09,3.15-7.09,3.15A77.29,77.29,0,0,0,253.36,83c-3.85,3.46,1,3.08,1,3.08S252,87.65,253.75,88a26.1,26.1,0,0,0,4.43.38S243.73,96.9,242,101.52s5.39,2.12,5.39,2.12-6,12.52-3.85,14.64,5,.39,5,.39-3.66,6-2.12,6.35a7.06,7.06,0,0,0,3.08,0s-.19,7.33,3.66,7.13L257,132s-1.92,9.63.19,10.4a5.15,5.15,0,0,0,4.05-.38s.58,4.24,1.93,3.85l1.35-.38s4.62,7.12,8.09,7.32,4.43-.58,4.43-.58a25.6,25.6,0,0,0,9.49,2.22c5.4.2,13.48-2.19,17.53-3.34a7.17,7.17,0,0,0,4.92-4.93s5.54,1.73,6.7-.39,3.16-4.93,3.16-4.93a27.37,27.37,0,0,0,3.93-5.11c1.35-2.51.79-8.47.79-8.47s3.37-.67,2.22-2.79a28.71,28.71,0,0,1-1.93-4.63s4.63,2.32,3.47-2.12a36.53,36.53,0,0,0-2.12-6.35s5-4.63,2.31-10.6-4.43-7.9-4.43-7.9a6.78,6.78,0,0,0-1-6.93,22.59,22.59,0,0,0-9.06-6.75,33.61,33.61,0,0,0-4.81-1.34c-.58-.2,2.5-1.93,1.15-3.66s-6.16-1.55-7.9-1.16a15.64,15.64,0,0,0-3.27,1.16s-4.82-3.86-5.4-2.7A5.54,5.54,0,0,0,292.47,74.17Z" style="fill:#263238;stroke:#263238;stroke-linecap:round;stroke-linejoin:round"></path><path d="M307.71,260.45s2.46,37.19-2,63.8-9.12,45.57-9.36,46.31-1.24,26.11-3,44.59a207.59,207.59,0,0,0-.49,33.13,3,3,0,0,1,3.69,1.23c1.23,2.22,1.54,5,4.74,7.18s3.49,2.18,7.18,4.39,8.09,3.47,8.09,4.73c0,3.95-11.82,4.92-11.82,4.92s-28.14,1.44-29.37-2.25-.54-12.35.44-13.83,1-4.65,1.28-5.39.74-26-2.46-38.8-6.16-22.41-3.94-35.47,8.37-30.54,6.89-42.37-5.17-28.33-6.15-31-4.93-5.91-10.84-16.5-2.71-23.4-2.71-23.4S285.29,268.57,307.71,260.45Z" style="fill:#92E3A9;stroke:#263238;stroke-linecap:round;stroke-linejoin:round"></path><path d="M290.86,271.58a52.18,52.18,0,0,0,10.62-1.32" style="fill:none;stroke:#263238;stroke-linecap:round;stroke-linejoin:round"></path><path d="M291.2,274.9s9.28,0,13.26,1.66" style="fill:none;stroke:#263238;stroke-linecap:round;stroke-linejoin:round"></path><path d="M270.52,289.11c-1.35,3.36-3.53,3.36-3.53,3.36" style="fill:none;stroke:#263238;stroke-linecap:round;stroke-linejoin:round"></path><path d="M261.35,268.27s3,1.65,9.95,1.65c0,0,1,9.95,0,16.25" style="fill:none;stroke:#263238;stroke-linecap:round;stroke-linejoin:round"></path><path d="M292,293.15c.11,1.48.17,2.92.17,4.3" style="fill:none;stroke:#263238;stroke-linecap:round;stroke-linejoin:round"></path><path d="M287.88,269.26a168.23,168.23,0,0,1,3.88,20.94" style="fill:none;stroke:#263238;stroke-linecap:round;stroke-linejoin:round"></path><path d="M285.24,418.14c.19,3.43.32,5.66.32,5.66" style="fill:none;stroke:#263238;stroke-linecap:round;stroke-linejoin:round"></path><path d="M287.88,355.15c0,1-4.31,21.23-4.31,27.86,0,4.4.87,20.91,1.46,31.53" style="fill:none;stroke:#263238;stroke-linecap:round;stroke-linejoin:round"></path><path d="M277.16,449.26c-.25.74-.29,3.91-1.28,5.39s-1.68,10.13-.44,13.83,29.37,2.25,29.37,2.25,11.82-1,11.82-4.92c0-1.26-4.39-2.51-8.09-4.73s-4-2.17-7.18-4.39-3.51-5-4.74-7.18a3,3,0,0,0-3.69-1.23s-.5-7-.42-15.49c-7.4.88-12.32.29-15.33-.47C277.49,440.39,277.29,448.88,277.16,449.26Z" style="fill:#c2c2c2;stroke:#263238;stroke-linecap:round;stroke-linejoin:round"></path><path d="M276.91,144.91s-4.68,16-8.86,22.91-8.63,6.41-10.6,23.9-.49,23.15-.49,36.7-3,23.16-2.22,30.3,9.12,10.59,28.83,9.12,29.06-4.93,30.79-9.86-2.71-8.37-4.68-20.69-.74-33-6.41-47.3-8.87-20-10.1-23.4.5-14,.5-14Z" style="fill:#c2c2c2;stroke:#263238;stroke-linecap:round;stroke-linejoin:round"></path><path d="M292.74,163.3a72.51,72.51,0,0,1,.93-10.75l-15.84-7.22.76,2.22S281,159,292.74,163.3Z" style="fill:#263238;stroke:#263238;stroke-linecap:round;stroke-linejoin:round"></path><path d="M283.57,267.84c19.7-1.48,29.06-4.93,30.79-9.86s-2.71-8.37-4.68-20.69-.74-33-6.41-47.3c-2.27-5.72-4.13-10-5.64-13.4a52.52,52.52,0,0,1-16.28,4.78c-8,1.11-15.52-1.29-20.54-3.6-1.39,2.87-2.57,7-3.36,13.95-2,17.49-.49,23.15-.49,36.7s-3,23.16-2.22,30.3S263.86,269.31,283.57,267.84Z" style="fill:#263238;stroke:#263238;stroke-linecap:round;stroke-linejoin:round"></path><path d="M268.26,188s-2,12.95-1.49,21.41" style="fill:none;stroke:#fff;stroke-linecap:round;stroke-linejoin:round"></path><path d="M272.35,217.23c.1,1.62.23,3.17.4,4.62" style="fill:none;stroke:#fff;stroke-linecap:round;stroke-linejoin:round"></path><path d="M272.75,188s-1,14.57-.52,26.91" style="fill:none;stroke:#fff;stroke-linecap:round;stroke-linejoin:round"></path><path d="M322.36,215.32s-8.94,5.42-10.73,5.43-12.21-4.26-12.21-4.26-6,4.86-6.68,6.91.89,1.39,1.81.79,4.25-3.05,5.33-3.42,5,.89,5,.89-5.48,1.39-6,1.88-5.86,5.89-5.86,5.89-1.28,1.31.28,1.46a11,11,0,0,0,4.12-1l.09,0,2.94-2.54,4.81-.15s-8.94,5-10.33,6.07-.36,2.14,2.72,1.54,5.85-3.58,6.26-3.49a34.22,34.22,0,0,0,4.24-1.08,66.08,66.08,0,0,0-5.59,3.85c-1.8,1.51-3.19,2.05-2.2,2.37s1.75.7,3.91-.52,4.17-2.16,4.64-2.37,4.48-.71,7.58-2.36,5.72-6.36,5.72-6.36l5-3.56Z" style="fill:#c2c2c2;stroke:#263238;stroke-linecap:round;stroke-linejoin:round"></path><path d="M277.9,190s18.23,21.93,28.33,34.24,9.61,9.61,14.78,10.35a9.89,9.89,0,0,0,11.33-7.14c1.48-5.18-8.62-19.22-17.74-29.32s-21.43-31.53-21.43-31.53-11.84-7.17-20.69,1" style="fill:#263238;stroke:#263238;stroke-linecap:round;stroke-linejoin:round"></path><path d="M272.48,180.88s7.88,4.19,27.1-4.68c0,0-4.19-9.12-11.09-11.58s-15.52-.25-18,5.91" style="fill:#c2c2c2;stroke:#263238;stroke-linecap:round;stroke-linejoin:round"></path><path d="M309.63,126.85s3.12-1.84,3.68,2.75-3.5,7.17-3.5,7.17Z" style="fill:#c2c2c2;stroke:#263238;stroke-linecap:round;stroke-linejoin:round"></path><path d="M300.62,106.81s9.56,5.88,9.56,6.8-.37,20.77-.37,23.16a22.32,22.32,0,0,1-6.61,14c-5,4.59-9.25,6-11.52,6.09-3.28.2-13.07-6.3-15.09-8.32s-4.27-7.88-4.27-7.88-5.14-2.57-6.06-5.51a27.11,27.11,0,0,1-.92-6.8s4.78,3.67,5.33,3.49.55-5,1.1-7.35,1.1-2.21,4.23-8.46,2.75-8.45,2.75-8.45,2.21,4.23,2.76,2.57,2.76-6.43,2.76-6.43,13.6,7.17,16.17,7.17S300.62,106.81,300.62,106.81Z" style="fill:#c2c2c2;stroke:#263238;stroke-linecap:round;stroke-linejoin:round"></path><path d="M297.05,136a4.87,4.87,0,0,1-5.73.48" style="fill:none;stroke:#263238;stroke-linecap:round;stroke-linejoin:round"></path><path d="M301.11,139.71s-7,5.39-15.81-.16" style="fill:none;stroke:#263238;stroke-linecap:round;stroke-linejoin:round"></path><path d="M301.45,126c-.05,1.27.6,2.33,1.46,2.36s1.61-.95,1.66-2.22-.59-2.33-1.46-2.37S301.51,124.75,301.45,126Z" style="fill:#263238"></path><path d="M283.66,126.79c-.05,1.26.6,2.32,1.46,2.36s1.61-1,1.67-2.22-.6-2.33-1.46-2.37S283.72,125.52,283.66,126.79Z" style="fill:#263238"></path><path d="M307.66,120.87s-4.27-3.32-8.11.37" style="fill:none;stroke:#263238;stroke-linecap:round;stroke-linejoin:round"></path><path d="M289,121.88s-5.19-3.36-8.55,1.82" style="fill:none;stroke:#263238;stroke-linecap:round;stroke-linejoin:round"></path><path d="M308.54,461.08c-3.69-2.21-4-2.17-7.18-4.39s-3.51-5-4.74-7.18a3,3,0,0,0-3.69-1.23l-.13,5.11s-2.46,1.57-9.95.45c-3.17-.47-4.19-4-5.69-4.58-.24.51-1,4.95-1.28,5.39-1,1.48-1.68,10.13-.44,13.83s29.37,2.25,29.37,2.25,11.51,1,11.82-4.92C316.7,464.55,312.24,463.3,308.54,461.08Z" style="fill:#fff;stroke:#263238;stroke-linecap:round;stroke-linejoin:round"></path><path d="M305.39,467.51c-7.61.15-24.5-.8-30.4-1.15a11.87,11.87,0,0,0,.45,2.12c1.23,3.69,29.37,2.25,29.37,2.25s11.22.93,11.8-4.72C315,466.56,311.61,467.39,305.39,467.51Z" style="fill:#fff;stroke:#263238;stroke-linecap:round;stroke-linejoin:round"></path><path d="M299.68,356.8l-8.84,4.28,4.28.85a7.08,7.08,0,0,1-3.71,2.85c-2.28.57-4.25-.06-2.54,1.65a31.4,31.4,0,0,0,3.39,2.91s-2.85.86,0,2,4.85-3.14,4.85-3.14A95,95,0,0,0,299.68,356.8Z" style="fill:#c2c2c2;stroke:#263238;stroke-linecap:round;stroke-linejoin:round"></path></g><g id="charater-1"><path d="M185.33,266.32,184.92,297a209.51,209.51,0,0,0-11.15,41.15c-3.71,23-4.27,29.44-4.13,32.75s.58,60.94,1.08,65.38-2.22,11.82-2.22,12.56-9.11,10.35-12.81,12.07-9.11,5.17-8.38,6.4,6.16,3.95,13.55,3,11.83-2,14-2,9.12,1.23,10.6-1-1-17.49-1-20.69.25-4.92.25-6.89,10.1-42.13,10.84-53,1.47-18,1.72-19.21,7.39-22.17,7.39-22.17,2.71,30.54,4.68,37.69,4.68,56.16,4.19,59.86,0,5.42-1.23,7.88-9.36,9.61-14,11.58-8.87,3.94-7.89,5.66a5.83,5.83,0,0,0,5.42,3h34s2.71-1,2.46-5.17-2.71-13.06-2.71-16.51,2.46-19.21,3.94-34.73a186,186,0,0,0-.49-38.43c-1-6.9-2.71-19.46-2.71-19.46s9.36-45.82,11.09-54.44-.74-26.85-3.21-33.75-3.69-9.61-3.69-9.61l-50,.5Z" style="fill:#c2c2c2;stroke:#263238;stroke-linecap:round;stroke-linejoin:round"></path><path d="M234.52,258.91l-50,.5.82,6.91L184.92,297a209.51,209.51,0,0,0-11.15,41.15c-3.71,23-4.27,29.44-4.13,32.75.12,2.76.45,43.41.84,59.32a62.58,62.58,0,0,0,15.92,1.71c2.89-12.69,8.65-37.08,9.2-45.17.74-10.84,1.47-18,1.72-19.21s7.39-22.17,7.39-22.17,2.71,30.54,4.68,37.69c1.49,5.4,3.41,34.8,4,50.38a40.87,40.87,0,0,0,17.92.31c.73-5.77,1.55-12.49,2.18-19.16a186,186,0,0,0-.49-38.43c-1-6.9-2.71-19.46-2.71-19.46s9.36-45.82,11.09-54.44-.74-26.85-3.21-33.75S234.52,258.91,234.52,258.91Z" style="fill:#263238;stroke:#263238;stroke-linecap:round;stroke-linejoin:round"></path><path d="M207.17,367.3s14.78-1.48,13.31-.24a13.55,13.55,0,0,1-4.19,2s11.08-.74,10.59.74-6.65,3.2-6.65,3.2,4.93,1.23,2.22,2.46-6.9,2.22-9.36,2a14,14,0,0,1-4.44-1.23S206.19,371,207.17,367.3Z" style="fill:#c2c2c2;stroke:#263238;stroke-linecap:round;stroke-linejoin:round"></path><path d="M204,331.46c-.72-9-1.61-22-1-25l-7.15-8.63" style="fill:none;stroke:#fff;stroke-linecap:round;stroke-linejoin:round"></path><path d="M204.71,340.2s-.2-2.16-.47-5.39" style="fill:none;stroke:#fff;stroke-linecap:round;stroke-linejoin:round"></path><path d="M207.91,295.62s8.13-8.38,15.52-9.61" style="fill:none;stroke:#fff;stroke-linecap:round;stroke-linejoin:round"></path><path d="M225.25,346.31c-.21,1.31-.34,2.26-.38,2.75l-.33,4.31" style="fill:none;stroke:#fff;stroke-linecap:round;stroke-linejoin:round"></path><path d="M229.18,269.8s4.31,13.6,4,24.54c-.25,8.36-4.77,33.38-7,46.64" style="fill:none;stroke:#fff;stroke-linecap:round;stroke-linejoin:round"></path><path d="M218.75,283.79s-8.13,4.93-9.11,6.65" style="fill:none;stroke:#fff;stroke-linecap:round;stroke-linejoin:round"></path><path d="M170.72,360.9s9.85,3.69,8.62,4.68a5.91,5.91,0,0,1-3.2,1s5.42,3.21,4.43,3.21h-1s9.86,3.44,7.39,4.43-12.31,1.23-12.31,1.23,5.42,2.46,3,2.46-7.88-2.46-7.88-2.46S170.22,364.59,170.72,360.9Z" style="fill:#c2c2c2;stroke:#263238;stroke-linecap:round;stroke-linejoin:round"></path><path d="M155.69,460.91c-3.69,1.72-9.11,5.17-8.38,6.4s6.16,3.95,13.55,3,11.83-2,14-2,9.12,1.23,10.6-1c1-1.46.23-8.65-.39-14.27-3.12.69-9.47,1.47-9.47,1.47s-.24-4.44-2.46-6.66-4.68,1-4.68,1C168.5,449.58,159.39,459.19,155.69,460.91Z" style="fill:#fff;stroke:#263238;stroke-linecap:round;stroke-linejoin:round"></path><path d="M185.5,467.31c.39-.58.5-2.1.46-4.05-2.66,1.69-6,1.37-10.38,1.67-5.19.36-6.44,2-15.57,3-6.12.72-10-1.05-11.87-2.3-.7.68-1,1.27-.83,1.64.74,1.24,6.16,3.95,13.55,3s11.83-2,14-2S184,469.53,185.5,467.31Z" style="fill:#fff;stroke:#263238;stroke-linecap:round;stroke-linejoin:round"></path><path d="M232.3,465.84c-.16-2.82-1.33-7.76-2.08-11.74a37.94,37.94,0,0,1-9.74,1.88s-1.73-6.16-3.21-8.13-4.92,3-4.92,3c-1.23,2.46-9.36,9.61-14,11.58s-8.87,3.94-7.89,5.66a5.83,5.83,0,0,0,5.42,3h34S232.55,470,232.3,465.84Z" style="fill:#fff;stroke:#263238;stroke-linecap:round;stroke-linejoin:round"></path><path d="M229.84,471s2.3-.85,2.46-4.27c-5.88.87-25.37,1.95-34.51,1.95-5,0-6.9-.61-7.5-1.21a1,1,0,0,0,.13.57,5.83,5.83,0,0,0,5.42,3Z" style="fill:#fff;stroke:#263238;stroke-linecap:round;stroke-linejoin:round"></path><path d="M191.11,268.11s-5.64,12.38-3.44,13.76,4.13-.55,4.26-5A41.15,41.15,0,0,0,191.11,268.11Z" style="fill:none;stroke:#263238;stroke-linecap:round;stroke-linejoin:round"></path><path d="M190.24,268.06S191,282,193,282.69s4.81.28,3-4A95.2,95.2,0,0,0,190.24,268.06Z" style="fill:none;stroke:#263238;stroke-linecap:round;stroke-linejoin:round"></path><line x1="191.25" y1="269.34" x2="189.73" y2="290.4" style="fill:none;stroke:#263238;stroke-linecap:round;stroke-linejoin:round"></line><line x1="191.11" y1="268.11" x2="193.17" y2="288.88" style="fill:none;stroke:#263238;stroke-linecap:round;stroke-linejoin:round"></line><path d="M215,75.45s-10.83-7.29-11.23-5.71a11.38,11.38,0,0,0,.2,4.13s-14.57.2-13.59,1.18a4.24,4.24,0,0,0,2,1.18S179,81,175,84.51s1,3.15,1,3.15-2.37,1.57-.59,2A26.51,26.51,0,0,0,180,90s-14.76,8.66-16.54,13.39,5.52,2.17,5.52,2.17-6.11,12.8-3.94,15,5.12.4,5.12.4-3.74,6.1-2.17,6.49a7.2,7.2,0,0,0,3.15,0s-.19,7.49,3.74,7.29l3.94-.2s-2,9.85.2,10.64a5.27,5.27,0,0,0,4.14-.4s.59,4.34,2,3.94l1.38-.39s4.73,7.28,8.27,7.48,4.53-.59,4.53-.59,6.9,6.1,12.41,6.3,11.22-2.76,15.36-3.94,9.84-9.45,9.84-9.45,2.76,2.76,3.94.59a12.42,12.42,0,0,0,1.18-5.12s5.32-1,6.7-3.54.2-8.67.2-8.67a5,5,0,0,0,.19-4.53,29.62,29.62,0,0,1-2-4.72s4.73,2.36,3.55-2.17a36.78,36.78,0,0,0-2.17-6.5s5.12-4.72,2.37-10.83-4.53-8.07-4.53-8.07a6.93,6.93,0,0,0-1-7.09,22.87,22.87,0,0,0-9.25-6.89,34.45,34.45,0,0,0-4.93-1.38c-.59-.2,2.56-2,1.19-3.74s-6.31-1.58-8.08-1.18a16.4,16.4,0,0,0-3.35,1.18s-4.92-3.94-5.51-2.76A5.58,5.58,0,0,0,215,75.45Z" style="fill:#263238;stroke:#263238;stroke-linecap:round;stroke-linejoin:round"></path><path d="M199.22,151.61s-.17,10.5-1.53,15.42S187,182.46,184.64,189.24s-3.73,13.73-3.9,25.59,2.21,28.65,1.7,34.07-2.37,14.24-1.53,16.11c.58,1.27,4.82,3.87,9.33,3.05,2-.37,4.91,1,14.23.5s23.4-3.55,25.26-4.06,7.29-1.53,7.46-5.94-2-11.86-2.2-17.12,3.22-21,3.89-28.3.17-16.62,0-23.4-2.37-9.83-5.59-14.23-10.68-7.63-11.69-9.33-2.72-11.86-2-15.25S199.22,151.61,199.22,151.61Z" style="fill:#c2c2c2;stroke:#263238;stroke-linecap:round;stroke-linejoin:round"></path><path d="M210.36,149.92c-5.39.57-11.14,1.69-11.14,1.69s-.09,5.81-.7,10.81l15.41-9.35Z" style="fill:#263238;stroke:#263238;stroke-linecap:round;stroke-linejoin:round"></path><path d="M237.19,258.56c.17-4.4-2-11.86-2.2-17.12s3.22-21,3.89-28.3.17-16.62,0-23.4a19,19,0,0,0-2.52-9.7,48.85,48.85,0,0,1-27.82,9.2c-11.71,0-17.33-4.28-19.9-7.47a38.77,38.77,0,0,0-4,7.47c-2.37,6.78-3.73,13.73-3.9,25.59s2.21,28.65,1.7,34.07-2.37,14.24-1.53,16.11c.58,1.27,4.82,3.87,9.33,3.05,2-.37,4.91,1,14.23.5s23.4-3.55,25.26-4.06S237,263,237.19,258.56Z" style="fill:#92E3A9;stroke:#263238;stroke-linecap:round;stroke-linejoin:round"></path><path d="M189.3,126.87s-3.12-1.84-3.67,2.76,3.49,7.17,3.49,7.17Z" style="fill:none;stroke:#263238;stroke-linecap:round;stroke-linejoin:round"></path><path d="M198.31,106.84s-9.56,5.88-9.56,6.8.37,20.77.37,23.16a22.27,22.27,0,0,0,6.62,14c5,4.6,9.24,6,11.51,6.1,3.28.19,12.66-4.35,14.68-6.38s4.68-9.83,4.68-9.83,5.15-2.57,6.07-5.51a27.39,27.39,0,0,0,.91-6.8s-4.77,3.68-5.32,3.49-.56-5-1.11-7.35-1.1-2.2-4.22-8.45-2.76-8.46-2.76-8.46-2.21,4.23-2.76,2.58-2.75-6.43-2.75-6.43-13.6,7.16-16.18,7.16S198.31,106.84,198.31,106.84Z" style="fill:#c2c2c2;stroke:#263238;stroke-linecap:round;stroke-linejoin:round"></path><path d="M203.82,135.69a4.88,4.88,0,0,0,5.7.74" style="fill:none;stroke:#263238;stroke-linecap:round;stroke-linejoin:round"></path><path d="M199.6,139.18s6.8,5.7,15.8.56" style="fill:none;stroke:#263238;stroke-linecap:round;stroke-linejoin:round"></path><path d="M199.87,125.49c0,1.27-.7,2.3-1.56,2.3s-1.56-1-1.56-2.3.7-2.29,1.56-2.29S199.87,124.22,199.87,125.49Z" style="fill:#263238"></path><path d="M217.61,127.06c0,1.26-.7,2.29-1.57,2.29s-1.56-1-1.56-2.29.7-2.3,1.56-2.3S217.61,125.79,217.61,127.06Z" style="fill:#263238"></path><path d="M193.9,120.07s4.41-3.12,8.08.74" style="fill:none;stroke:#263238;stroke-linecap:round;stroke-linejoin:round"></path><path d="M212.46,121.91s5.33-3.12,8.45,2.2" style="fill:none;stroke:#263238;stroke-linecap:round;stroke-linejoin:round"></path><path d="M189.73,190.76s-1.7-1.69-2.88-.85,0,2,0,2-2.21.85-1.87,1.86,2,.85,2,.85,0,1.69,1.35,1.53l1.36-.17s1.86.17,2.54-.51,0-2,0-2,.85-1.69.34-2.71S191.76,189.41,189.73,190.76Z" style="fill:#fff;stroke:#263238;stroke-linecap:round;stroke-linejoin:round"></path><path d="M190.27,193.43a.87.87,0,1,1-.87-.87A.87.87,0,0,1,190.27,193.43Z" style="fill:none;stroke:#263238;stroke-linecap:round;stroke-linejoin:round"></path><path d="M208.41,197.33s2.15,1.06,3-.12-.66-1.93-.66-1.93,1.81-1.51,1.17-2.37-2.2-.14-2.2-.14-.55-1.61-1.78-1l-1.23.6s-1.82.44-2.24,1.3.65,1.92.65,1.92-.25,1.88.56,2.68S206.93,199.27,208.41,197.33Z" style="fill:#fff;stroke:#263238;stroke-linecap:round;stroke-linejoin:round"></path><path d="M207,195a.87.87,0,0,1,.54-1.1A.87.87,0,1,1,207,195Z" style="fill:none;stroke:#263238;stroke-linecap:round;stroke-linejoin:round"></path><path d="M195.85,202.77s2.15,1.06,3-.12-.66-1.93-.66-1.93,1.82-1.51,1.17-2.36-2.2-.15-2.2-.15-.55-1.61-1.77-1l-1.23.6s-1.82.44-2.25,1.3.66,1.92.66,1.92-.26,1.88.55,2.68S194.36,204.71,195.85,202.77Z" style="fill:#fff;stroke:#263238;stroke-linecap:round;stroke-linejoin:round"></path><path d="M194.47,200.42a.87.87,0,1,1,1.1.54A.86.86,0,0,1,194.47,200.42Z" style="fill:#fff;stroke:#263238;stroke-linecap:round;stroke-linejoin:round"></path><path d="M187.17,198a4.55,4.55,0,0,0-3.38,2.83S186.89,201,187.17,198Z" style="fill:#263238"></path><path d="M196.3,190.37a4.59,4.59,0,0,0-3.38,2.83A3.13,3.13,0,0,0,196.3,190.37Z" style="fill:#263238"></path><path d="M188.22,185.06a4.6,4.6,0,0,0,.9,4.32S190.75,186.73,188.22,185.06Z" style="fill:#263238"></path><path d="M194.93,204.8a23,23,0,0,0-.28,2.92c0,1.19,2.47,3.29,2.47,3.29a25.76,25.76,0,0,0,.09-4C197,206,194.93,204.8,194.93,204.8Z" style="fill:#263238"></path><path d="M199.73,202.34a24.47,24.47,0,0,0,2.58,1.4c1.1.47,4-1,4-1a25.84,25.84,0,0,0-3.65-1.66C201.65,200.88,199.73,202.34,199.73,202.34Z" style="fill:#263238"></path><path d="M212.24,195a23.26,23.26,0,0,0,2.58,1.39c1.1.47,4-1,4-1a24.47,24.47,0,0,0-3.66-1.66C214.16,193.48,212.24,195,212.24,195Z" style="fill:#263238"></path><path d="M198.64,192.08a23,23,0,0,0,1.73,2.37c.78.89,4,.84,4,.84a25.34,25.34,0,0,0-2.59-3.07C201,191.58,198.64,192.08,198.64,192.08Z" style="fill:#263238"></path><path d="M222.83,253.85s-7.59,7.2-9.34,7.59-12.83-1.56-12.83-1.56-4.86,6-5.06,8.17,1.17,1.17,2,.39,3.5-3.89,4.47-4.47,5.06-.2,5.06-.2-5.06,2.53-5.45,3.11-4.47,7-4.47,7-1,1.56.58,1.37a10.89,10.89,0,0,0,3.81-1.89l.08-.06,2.33-3.11,4.67-1.17s-7.67,6.79-8.81,8.13.11,2.17,3,.93,5-4.75,5.36-4.75a34.82,34.82,0,0,0,3.92-2,65.54,65.54,0,0,0-4.64,5c-1.45,1.85-2.68,2.68-1.65,2.78s1.86.31,3.71-1.34,3.61-3,4-3.3,4.23-1.65,6.91-3.92,4.23-7.43,4.23-7.43l4.13-4.54Z" style="fill:#c2c2c2;stroke:#263238;stroke-linecap:round;stroke-linejoin:round"></path><path d="M228.82,258.58l-6-4.73s-1.4,1.33-3.13,2.87l5.32,6Z" style="fill:#fff;stroke:#263238;stroke-linecap:round;stroke-linejoin:round"></path><path d="M216,173.72s6.61-6,13.62-3.89,15.17,24.32,18.08,29.76,15.17,31.31,14.39,34.23-15,19.25-18.86,23.53-10.7,8.46-13.52,7.15-4.76-6.76-7.1-7.92-4.66-4.28-1.16-7.78,13.22-12.06,15.36-14.4a66.3,66.3,0,0,0,4.86-6.41s-2.91,4.47-11.67-12.45-9.14-19.26-9.14-19.26" style="fill:#c2c2c2;stroke:#263238;stroke-linecap:round;stroke-linejoin:round"></path><path d="M220.88,196.28c1.31,2.86,5.4,12,9.14,19.26,8.76,16.92,11.67,12.45,11.67,12.45a66.3,66.3,0,0,1-4.86,6.41c-2.14,2.34-11.86,10.9-15.36,14.4s-1.17,6.61,1.16,7.78,4.28,6.61,7.1,7.92,9.63-2.87,13.52-7.15,18.09-20.61,18.86-23.53S250.64,205,247.72,199.59c-1.81-3.38-5.65-13.22-10-20.7a81.62,81.62,0,0,1-18.68,9" style="fill:#92E3A9;stroke:#263238;stroke-linecap:round;stroke-linejoin:round"></path><path d="M218.87,235.65c.4,1.76.84,3.44,1.33,5" style="fill:none;stroke:#263238;stroke-linecap:round;stroke-linejoin:round"></path><path d="M215.36,205.89A213.56,213.56,0,0,0,218.13,232" style="fill:none;stroke:#263238;stroke-linecap:round;stroke-linejoin:round"></path><path d="M217.92,207s3.42,15.66,4.84,18.79" style="fill:none;stroke:#263238;stroke-linecap:round;stroke-linejoin:round"></path><path d="M205.11,206.75S202.83,218.7,203.4,223" style="fill:none;stroke:#263238;stroke-linecap:round;stroke-linejoin:round"></path></g></svg>