<svg xmlns="http://www.w3.org/2000/svg" viewBox="0 0 500 500"><g id="background-simple"><path d="M332.3,54.7s-77-27.37-152.56,16.21S66,201,33.29,270.32s-13.9,139.8,43.79,171.94S174,427,254.93,424.71,357.62,434,424.78,388.26s79.29-153.69,26.32-233.58S332.3,54.7,332.3,54.7Z" style="fill:#92E3A9"></path><path d="M332.3,54.7s-77-27.37-152.56,16.21S66,201,33.29,270.32s-13.9,139.8,43.79,171.94S174,427,254.93,424.71,357.62,434,424.78,388.26s79.29-153.69,26.32-233.58S332.3,54.7,332.3,54.7Z" style="fill:#fff;opacity:0.7000000000000001"></path></g><g id="Plants"><path d="M163.62,197.68s0-5.59-7.82-13.41S143,172,143,172s-3.92,12.85,3.35,20.67a137.61,137.61,0,0,0,17.32,15.09Z" style="fill:#92E3A9"></path><path d="M152.27,232.57s0-5.58-7.83-13.41-12.85-12.29-12.85-12.29-3.91,12.85,3.36,20.67a136.68,136.68,0,0,0,17.32,15.09Z" style="fill:#92E3A9"></path><path d="M163.13,207.2s.59-5.56,9.19-12.51,14.08-10.86,14.08-10.86,2.53,13.19-5.52,20.2a137.47,137.47,0,0,1-18.82,13.17Z" style="fill:#92E3A9"></path><path d="M149.41,248.4s1.17-5.46,10.46-11.47S175,227.61,175,227.61s1.13,13.38-7.61,19.51a138.11,138.11,0,0,1-20.09,11.12Z" style="fill:#92E3A9"></path><path d="M152,293.33s0-5.59,7.82-13.41,12.85-12.29,12.85-12.29,3.91,12.85-3.35,20.67A137.61,137.61,0,0,1,152,303.39Z" style="fill:#92E3A9"></path><path d="M151.86,304.3s.79-5.53-5.84-14.39-11-14-11-14-5.7,12.16.38,20.94a137.86,137.86,0,0,0,15,17.39Z" style="fill:#92E3A9"></path><path d="M144.15,336.8s0-5.59,7.82-13.41,12.85-12.29,12.85-12.29,3.91,12.85-3.35,20.67a137.87,137.87,0,0,1-17.32,15.08Z" style="fill:#92E3A9"></path><path d="M149.37,366.26s-1.42-5.4,4.17-14.95,9.32-15.15,9.32-15.15,7,11.44,2,20.85a136.84,136.84,0,0,1-12.93,19Z" style="fill:#92E3A9"></path><path d="M164.33,196.25a159,159,0,0,1-2.15,17.35c-3.09,16-10.82,26.28-13.91,40.71s5.78,33,3.41,51.55-9.59,28.84-7.53,41.2S157,392.93,157,392.93" style="fill:none;stroke:#263238;stroke-linecap:round;stroke-linejoin:round"></path><line x1="163.05" y1="210.91" x2="171.48" y2="204.44" style="fill:none;stroke:#263238;stroke-linecap:round;stroke-linejoin:round"></line><line x1="163.44" y1="203.46" x2="159.91" y2="197.19" style="fill:none;stroke:#263238;stroke-linecap:round;stroke-linejoin:round"></line><path d="M148.74,253.64s7.06-5.29,14.31-10.58" style="fill:none;stroke:#263238;stroke-linecap:round;stroke-linejoin:round"></path><path d="M152.27,242.63s-5.88-11.53-12.55-19.17" style="fill:none;stroke:#263238;stroke-linecap:round;stroke-linejoin:round"></path><path d="M152.27,301.28a87.43,87.43,0,0,1,15.09-20.19" style="fill:none;stroke:#263238;stroke-linecap:round;stroke-linejoin:round"></path><path d="M150.89,309.12a98.17,98.17,0,0,0-7.64-14.51c-4.12-6.07-4.71-6.86-4.71-6.86" style="fill:none;stroke:#263238;stroke-linecap:round;stroke-linejoin:round"></path><path d="M144.15,347.06a93.58,93.58,0,0,1,6.35-12.85,82.44,82.44,0,0,1,8.24-10.78" style="fill:none;stroke:#263238;stroke-linecap:round;stroke-linejoin:round"></path><path d="M151.92,376s-.83-6.69,2.11-12.37,6.27-13.14,7.65-16.08" style="fill:none;stroke:#263238;stroke-linecap:round;stroke-linejoin:round"></path><path d="M112.4,272.32s-.61-3.5,3.45-9.26,6.72-9.1,6.72-9.1,3.85,7.63.14,13.33a87.36,87.36,0,0,1-9.22,11.34Z" style="fill:#92E3A9"></path><path d="M123.3,293s-.6-3.51,3.45-9.26,6.73-9.1,6.73-9.1,3.84,7.63.14,13.32a87.49,87.49,0,0,1-9.22,11.34Z" style="fill:#92E3A9"></path><path d="M113.74,278.23s-1-3.42-7.12-6.84-10-5.29-10-5.29-.16,8.55,5.65,12.07a88,88,0,0,0,13.23,6.22Z" style="fill:#92E3A9"></path><path d="M126.81,302.58s-1.33-3.29-7.8-6.05-10.51-4.21-10.51-4.21.75,8.52,6.89,11.41a87.79,87.79,0,0,0,13.81,4.79Z" style="fill:#92E3A9"></path><path d="M130.07,331s-.6-3.51-6.36-7.56-9.39-6.31-9.39-6.31-1.06,8.48,4.35,12.59a87.05,87.05,0,0,0,12.49,7.58Z" style="fill:#92E3A9"></path><path d="M131.34,337.9s-1.09-3.38,2.1-9.65,5.37-10,5.37-10,4.89,7,2,13.17A87.85,87.85,0,0,1,133.32,344Z" style="fill:#92E3A9"></path><path d="M141.16,366.16s.41-3.53,5.92-7.91,9-6.84,9-6.84,1.54,8.41-3.62,12.83a87.17,87.17,0,0,1-12,8.28Z" style="fill:#92E3A9"></path><path d="M139.71,357.44s-.61-3.5-6.36-7.56-9.39-6.31-9.39-6.31-1.06,8.48,4.34,12.6a87.48,87.48,0,0,0,12.5,7.58Z" style="fill:#92E3A9"></path><path d="M139.63,376.49s.3-3.55-4.24-8.93-7.48-8.48-7.48-8.48-3.17,7.93,1,13.29a87.63,87.63,0,0,0,10.17,10.49Z" style="fill:#92E3A9"></path><path d="M111.8,271.5A101.63,101.63,0,0,0,115,282.14c3.68,9.69,9.64,15.31,13.15,24s0,21.33,3.46,32.7,9.14,17,9.19,25-3.1,30.16-3.1,30.16" style="fill:none;stroke:#263238;stroke-linecap:round;stroke-linejoin:round"></path><line x1="114.19" y1="280.55" x2="108.2" y2="277.41" style="fill:none;stroke:#263238;stroke-linecap:round;stroke-linejoin:round"></line><line x1="113.14" y1="275.92" x2="114.67" y2="271.61" style="fill:none;stroke:#263238;stroke-linecap:round;stroke-linejoin:round"></line><path d="M127.8,305.8s-5-2.56-10.12-5.09" style="fill:none;stroke:#263238;stroke-linecap:round;stroke-linejoin:round"></path><path d="M124.4,299.27a71.45,71.45,0,0,1,5.78-13.38" style="fill:none;stroke:#263238;stroke-linecap:round;stroke-linejoin:round"></path><path d="M130.76,336.05a55.57,55.57,0,0,0-11.66-11" style="fill:none;stroke:#263238;stroke-linecap:round;stroke-linejoin:round"></path><path d="M132.47,340.82a63.12,63.12,0,0,1,3.22-9.93c1.92-4.25,2.21-4.81,2.21-4.81" style="fill:none;stroke:#263238;stroke-linecap:round;stroke-linejoin:round"></path><path d="M140.55,369.93s4-4.86,6.44-6.68a34.08,34.08,0,0,0,4.18-3.64" style="fill:none;stroke:#263238;stroke-linecap:round;stroke-linejoin:round"></path><path d="M140.82,363.88a59.46,59.46,0,0,0-5.38-7.37,52.81,52.81,0,0,0-6.33-5.87" style="fill:none;stroke:#263238;stroke-linecap:round;stroke-linejoin:round"></path><path d="M139.09,382.86a15.27,15.27,0,0,0-2.67-7.53c-2.46-3.24-5.36-7.55-6.54-9.25" style="fill:none;stroke:#263238;stroke-linecap:round;stroke-linejoin:round"></path><path d="M168.35,411a34.43,34.43,0,0,0-6.45-20.67h-30A34.49,34.49,0,0,0,125.43,411c0,12.34,5.73,22.86,13.79,27v2.28h15.61V438h-.28C162.62,433.83,168.35,423.31,168.35,411Z" style="fill:#263238;stroke:#263238;stroke-linecap:round;stroke-linejoin:round"></path></g><g id="Window"><path d="M417.28,40.05H421a62,62,0,0,1,62,62V333.53a0,0,0,0,1,0,0H355.28a0,0,0,0,1,0,0V102.05A62,62,0,0,1,417.28,40.05Z" style="fill:none;stroke:#263238;stroke-linecap:round;stroke-linejoin:round"></path><path d="M369.7,332.84V106a49.43,49.43,0,0,1,49.43-49.43h0A49.42,49.42,0,0,1,468.55,106V332.84" style="fill:none;stroke:#263238;stroke-linecap:round;stroke-linejoin:round"></path><line x1="419.13" y1="40.05" x2="419.13" y2="333.18" style="fill:none;stroke:#263238;stroke-linecap:round;stroke-linejoin:round"></line><line x1="355.97" y1="96.52" x2="482.11" y2="96.52" style="fill:none;stroke:#263238;stroke-linecap:round;stroke-linejoin:round"></line><line x1="355.97" y1="136.33" x2="482.11" y2="136.33" style="fill:none;stroke:#263238;stroke-linecap:round;stroke-linejoin:round"></line><line x1="355.97" y1="176.15" x2="482.11" y2="176.15" style="fill:none;stroke:#263238;stroke-linecap:round;stroke-linejoin:round"></line><line x1="355.97" y1="215.97" x2="482.11" y2="215.97" style="fill:none;stroke:#263238;stroke-linecap:round;stroke-linejoin:round"></line><line x1="355.97" y1="255.78" x2="482.11" y2="255.78" style="fill:none;stroke:#263238;stroke-linecap:round;stroke-linejoin:round"></line><line x1="355.97" y1="295.6" x2="482.11" y2="295.6" style="fill:none;stroke:#263238;stroke-linecap:round;stroke-linejoin:round"></line><line x1="372.84" y1="59.98" x2="384.28" y2="70.4" style="fill:none;stroke:#263238;stroke-linecap:round;stroke-linejoin:round"></line><line x1="464.94" y1="59.98" x2="453.5" y2="70.4" style="fill:none;stroke:#263238;stroke-linecap:round;stroke-linejoin:round"></line><line x1="16.48" y1="257.25" x2="329.34" y2="257.25" style="fill:none;stroke:#263238;stroke-linecap:round;stroke-linejoin:round"></line><line x1="16.48" y1="263.22" x2="329.34" y2="263.22" style="fill:none;stroke:#263238;stroke-linecap:round;stroke-linejoin:round"></line></g><g id="Picture"><rect x="192.55" y="78.99" width="84.17" height="113.03" style="fill:none;stroke:#263238;stroke-linecap:round;stroke-linejoin:round"></rect><rect x="200.61" y="89.81" width="68.06" height="91.39" style="fill:none;stroke:#263238;stroke-linecap:round;stroke-linejoin:round"></rect></g><g id="Lamp"><line x1="226.29" y1="219.69" x2="232.09" y2="279.54" style="fill:none;stroke:#263238;stroke-linecap:round;stroke-linejoin:round;stroke-width:2px"></line><line x1="230.27" y1="219.69" x2="236.07" y2="279.54" style="fill:none;stroke:#263238;stroke-linecap:round;stroke-linejoin:round;stroke-width:2px"></line><line x1="280.34" y1="171.86" x2="226.79" y2="216.46" style="fill:none;stroke:#263238;stroke-linecap:round;stroke-linejoin:round;stroke-width:2px"></line><line x1="282.45" y1="173.98" x2="228.9" y2="218.57" style="fill:none;stroke:#263238;stroke-linecap:round;stroke-linejoin:round;stroke-width:2px"></line><path d="M287.6,171.4l-6.92,5.28-1.44-1.88a4.36,4.36,0,0,1,.83-6.1h0a4.35,4.35,0,0,1,6.1.82Z" style="fill:#fff;stroke:#263238;stroke-linecap:round;stroke-linejoin:round"></path><path d="M306.88,182.57a11.13,11.13,0,0,0-2.15-4.41c-4.82-6.32-15.46-10-21.56-5.36s-5.37,15.9-.55,22.22a10.91,10.91,0,0,0,3.67,3.23Z" style="fill:#fff;stroke:#263238;stroke-linecap:round;stroke-linejoin:round"></path><path d="M307,182.2c1,1.3-2.92,5.93-8.73,10.36s-11.31,7-12.3,5.67,2.93-5.93,8.74-10.35S306,180.91,307,182.2Z" style="fill:#fff;stroke:#263238;stroke-linecap:round;stroke-linejoin:round"></path><path d="M232.51,218.45a4,4,0,1,1-4-4A4,4,0,0,1,232.51,218.45Z" style="fill:#263238;stroke:#263238;stroke-linecap:round;stroke-linejoin:round;stroke-width:2px"></path><path d="M257.57,288c-1.94-6.51-11-11.43-21.87-11.43s-19.93,4.92-21.87,11.43Z" style="fill:#fff;stroke:#263238;stroke-linecap:round;stroke-linejoin:round"></path></g><g id="Character"><rect x="398.47" y="342.51" width="17.68" height="28.6" transform="translate(814.62 713.63) rotate(180)" style="fill:#263238"></rect><rect x="402.89" y="365.45" width="8.84" height="34.34" transform="translate(814.62 765.24) rotate(180)" style="fill:#263238"></rect><path d="M410.91,396s7.43,8.43,26.52,11.37c10.09,1.55,20.59,3.48,29.71,8.31,5.86,3.1,17.53,9.89,17.53,17.65a7,7,0,1,1-12-4.73,32.85,32.85,0,0,0-20.6-14c-14.53-3.16-25.13-1.88-45.56-15.46Z" style="fill:#263238"></path><path d="M404.59,396s-7.43,8.43-26.53,11.37c-10.09,1.55-20.59,3.48-29.7,8.31-5.86,3.1-17.53,9.89-17.53,17.65a6.95,6.95,0,1,0,13.9,0,6.85,6.85,0,0,0-1.89-4.73,32.85,32.85,0,0,1,20.6-14c14.53-3.16,25.13-1.88,45.57-15.46Z" style="fill:#263238"></path><rect x="403.63" y="427.24" width="7.99" height="13.05" rx="0.66" transform="translate(815.26 867.52) rotate(180)" style="fill:#263238"></rect><rect x="405.73" y="397.18" width="3.79" height="43.1" transform="translate(815.26 837.46) rotate(180)" style="fill:#263238"></rect><path d="M420.62,345H417.2C419.57,345,421.38,345,420.62,345Z" style="fill:#263238"></path><path d="M453.08,239.81a3.52,3.52,0,0,0-3.46,2.92c-.14.84-.27,1.68-.41,2.52a5.62,5.62,0,0,0-6.07,3.05c-2.49,5-3.49,26.36-5,40.79s3,25.86,3,30.33-.5,14.43-6.47,13.93-73.11-1.49-77.09,1a8.43,8.43,0,0,0-3.65,5h-1.41a2.72,2.72,0,0,0-2.74,3.25,2.82,2.82,0,0,0,2.72,2.16c1.87,0,34.29.28,56.45.28h5.49l5.4,0h.77c6.71,0,11.75-.12,13.54-.27,8.2-.68,11.88-3.45,12.27-3.77,5.47-4.85,5.68-15.51,6.18-41.24.14-7,.29-14.85.57-24.05a232.61,232.61,0,0,1,3.35-31.75A3.5,3.5,0,0,0,453.08,239.81Z" style="fill:#263238"></path><path d="M288.39,409.69s-9.87,1.73-11.84,1.73-15.29-3-17.51-2.22-4.93,5.67-4.19,6.41,37.73,23.18,37.73,23.18,2,.74,3,0,4.93-7.89,5.91-10.61,2-6.41,2-6.41Z" style="fill:#263238;stroke:#263238;stroke-linecap:round;stroke-linejoin:round"></path><polygon points="268.94 421.92 286.72 421.03 291.76 423.7 273.98 424.59 268.94 421.92" style="fill:#fff"></polygon><polygon points="275.76 425.77 293.54 424.88 298.58 427.55 280.8 428.44 275.76 425.77" style="fill:#fff"></polygon><path d="M254.85,415.61c.74.74,37.73,23.18,37.73,23.18s2,.74,3,0a5.65,5.65,0,0,0,.85-1.06l-41.13-24.26C254.78,414.47,254.58,415.33,254.85,415.61Z" style="fill:#fff;stroke:#263238;stroke-linecap:round;stroke-linejoin:round"></path><path d="M316.29,331l-22,70.55s-4.43,0-4.68,2.47-3.95,7.15-3.95,7.15,17,14.79,17.76,13.81,6.16-9.87,6.16-9.87,4-5.42,4-7.39,0-4.93.74-6.41S354,332,354,332Z" style="fill:#92E3A9;stroke:#263238;stroke-linecap:round;stroke-linejoin:round"></path><polygon points="363.54 223.72 359.03 258.92 345.53 258.92 345.53 271.2 363.54 270.38 367.22 222.49 363.54 223.72" style="fill:#263238;stroke:#263238;stroke-linecap:round;stroke-linejoin:round"></polygon><path d="M366.28,210.54s1.24-4.23,8.21-9.7,11.93-5.22,14.92-1.49-3,20.64-2.74,42,0,57.94-2.24,60.67-14.17,3-16.41,2.49a19.43,19.43,0,0,1-4.47-1.74s1-14.67,1-24.12-.75-43.27-.25-53A79.16,79.16,0,0,1,366.28,210.54Z" style="fill:#263238;stroke:#263238;stroke-linecap:round;stroke-linejoin:round"></path><path d="M368.52,207.31A99,99,0,0,0,366.78,225c0,9.21-1.25,30.84-1.25,39.3s.25,35.06.25,35.81-1.24,2.23-2.23,2.73-6.47,1.24-6.47,1.24,5.47-5,5.72-8.45-2.24-33.32-2.24-48.24.5-23.38,1.24-28.6S367.28,203.58,368.52,207.31Z" style="fill:#fff;stroke:#263238;stroke-linecap:round;stroke-linejoin:round"></path><path d="M367,201.34s-2,2.74-2,5.22.74,6.22,0,8.46-3.73,4.23-1.74,4.47,4.72-6.21,4.72-8a29.58,29.58,0,0,1,1.24-5.72S369,200.59,367,201.34Z" style="fill:#fff;stroke:#263238;stroke-linecap:round;stroke-linejoin:round"></path><rect x="248.74" y="223.83" width="101.18" height="64.16" style="fill:#92E3A9;stroke:#263238;stroke-linecap:round;stroke-linejoin:round"></rect><polygon points="248.78 245.59 344.85 245.59 349.92 223.84 254.64 223.84 248.46 236.47 248.78 245.59" style="fill:#263238;stroke:#263238;stroke-linecap:round;stroke-linejoin:round"></polygon><polygon points="248.74 223.84 239.48 242.7 341.72 242.7 349.92 223.84 248.74 223.84" style="fill:#92E3A9;stroke:#263238;stroke-linecap:round;stroke-linejoin:round"></polygon><path d="M349.53,136.68s-8,5-9.6,10.79-.6,12-2.2,14.8-8,6.79-6.59,8.79,7.39,3.6,7.39,3.6,2.4,18.19,5,18.39,15.79-4.6,15.79-4.6,9.2,21.79,11.19,22.59,14.6-22,14.6-22-4.6-9.39-3.8-11.59,10.19-19.59,9.59-30.19-10.39-14-21.19-15S349.53,136.68,349.53,136.68Z" style="fill:#a3a3a3;stroke:#263238;stroke-linecap:round;stroke-linejoin:round"></path><polygon points="359.32 188.45 366.66 185.84 361.47 193.07 359.32 188.45" style="fill:#263238;stroke:#263238;stroke-linecap:round;stroke-linejoin:round"></polygon><path d="M379.31,157.27c5,1,4.4,10.59,2.2,12.59s-4,3.8-3.2,5a9.71,9.71,0,0,0,3,2.7s0-.07,0-.1c.8-2.2,10.19-19.59,9.59-30.19s-10.39-14-21.19-15-20.18,4.4-20.18,4.4-1,.61-2.28,1.63c6.54.1,25.9.6,23.06,2.77-3.39,2.6-9,6.19-6.19,8s9,5.8,7,8-2.79,4.6-.4,5S374.31,156.27,379.31,157.27Z" style="fill:#263238;stroke:#263238;stroke-linecap:round;stroke-linejoin:round"></path><path d="M380.31,170.86s-4.8,3.6-6.8,2.8" style="fill:none;stroke:#263238;stroke-linecap:round;stroke-linejoin:round"></path><ellipse cx="346.23" cy="159.57" rx="1.1" ry="2.3" style="fill:#263238"></ellipse><path d="M343.93,151.07a4.93,4.93,0,0,1,6.4,1.8" style="fill:none;stroke:#263238;stroke-linecap:round;stroke-linejoin:round"></path><path d="M345.53,176.26s9-4.6,12.19-8.2c0,0-.4,10.4-3,11.2S345.53,176.26,345.53,176.26Z" style="fill:#263238;stroke:#263238;stroke-linecap:round;stroke-linejoin:round"></path><path d="M345.53,176.26s.79.45,1.92,1a26.29,26.29,0,0,0,10.07-6.5c.16-1.56.2-2.71.2-2.71C354.52,171.66,345.53,176.26,345.53,176.26Z" style="fill:#fff;stroke:#263238;stroke-linecap:round;stroke-linejoin:round"></path><line x1="344.82" y1="163.13" x2="350.36" y2="161.47" style="fill:none;stroke:#263238;stroke-linecap:round;stroke-linejoin:round"></line><path d="M350.82,415.62s-8.64,9.87-13.07,12.33-17.51,7.65-17.51,8.88,1,3.45,2.71,3.45h50.8s3-1.72,2.71-4.93-4.19-16.52-4.19-16.52Z" style="fill:#263238;stroke:#263238;stroke-linecap:round;stroke-linejoin:round"></path><polygon points="352.6 437.33 363.58 424.92 357.89 425.38 347.31 437.33 352.6 437.33" style="fill:#fff"></polygon><polygon points="360.2 437.33 371.48 424.59 365.78 425.05 354.91 437.33 360.2 437.33" style="fill:#fff"></polygon><path d="M320.28,437.32c.21,1.25,1.16,3,2.67,3h50.8a6.23,6.23,0,0,0,2.44-3Z" style="fill:#fff;stroke:#263238;stroke-linecap:round;stroke-linejoin:round"></path><path d="M361.14,305.12s-36.14,4-49.4,7.63-14.26,7.62-12.27,14.26,48.93,76.74,49.59,78.4-3.64,1.33-3.64,4.31,3.64,8,3.64,8a54.58,54.58,0,0,0,12,2,45.15,45.15,0,0,0,11.44-.51s-1.18-3.51-2.18-7.16a59.76,59.76,0,0,0-3.64-9.94c-.67-1-25.06-67.8-25.06-67.8h78.91s8.95-1.66,13.6-8.62-2.66-19.23-2.66-19.23Z" style="fill:#92E3A9;stroke:#263238;stroke-linecap:round;stroke-linejoin:round"></path><path d="M371.75,207.06l2,8.7s-3.48,59.93-3.48,69.14S370,296.83,369,298.32s-5.23,3.24-7.46,4.48-5.8,2.78-5.8,2.78,18,3.44,29.42,8.91S416,324.44,424,321.2a36.33,36.33,0,0,0,12.94-9.2s-2.24-25.36-4-44S421.49,220.74,412,207.06a50.25,50.25,0,0,0-22.38-18.15L379,201.59Z" style="fill:#fff;stroke:#263238;stroke-linecap:round;stroke-linejoin:round"></path><line x1="404.58" y1="246.35" x2="407.81" y2="225.96" style="fill:none;stroke:#263238;stroke-linecap:round;stroke-linejoin:round"></line><line x1="404.58" y1="250.08" x2="409.55" y2="233.17" style="fill:none;stroke:#263238;stroke-linecap:round;stroke-linejoin:round"></line><path d="M399.89,308.69c1.17.36,2.42.68,3.76,1" style="fill:none;stroke:#263238;stroke-linecap:round;stroke-linejoin:round"></path><path d="M373.36,298.62a23.68,23.68,0,0,1,12.69,3.27,65.19,65.19,0,0,0,8.28,4.7" style="fill:none;stroke:#263238;stroke-linecap:round;stroke-linejoin:round"></path><path d="M378.27,296.16s9,.82,15.55,4.91" style="fill:none;stroke:#263238;stroke-linecap:round;stroke-linejoin:round"></path><polygon points="386.92 184.18 371.75 207.06 375.98 214.02 390.9 188.41 386.92 184.18" style="fill:#fff;stroke:#263238;stroke-linecap:round;stroke-linejoin:round"></polygon><path d="M354.1,262.52s-23.88,2-26.86,1.24-11.19-6-12.93-6.72-7.71-.24-10.2-.74-3.73-.75-2.73,1a5.38,5.38,0,0,0,4.72,2.49c1.74,0,5,2.49,5,2.49l-21,3.33a1,1,0,0,0-.79,1.07v0a.94.94,0,0,0,.89.81l10.66.47v2.23l-11.73,1.15a1,1,0,0,0-.85,1.05l.05.44a1,1,0,0,0,.94.85h11.34v1.74l-8.82,1.29a.94.94,0,0,0-.69,1.4h0a.94.94,0,0,0,.92.47l8.84-.93.5,1.75-4.78,2.49a1,1,0,0,0-.42,1.41h0a1,1,0,0,0,1.32.42l9.35-4.32L325,275.69l30.84,4.23Z" style="fill:#a3a3a3;stroke:#263238;stroke-linecap:round;stroke-linejoin:round"></path><path d="M392.39,204.32S380,206.81,378,218.25s-1,39-1,39-2.73.5-2.73,1.74v2l-15.17,2,1.74,16.91s22.13-.74,32.33-1.24,11.69-5.22,11.69-9.45S403.58,227,403.58,227" style="fill:#fff;stroke:#263238;stroke-linecap:round;stroke-linejoin:round"></path><line x1="374.24" y1="261.02" x2="387.17" y2="268.48" style="fill:none;stroke:#263238;stroke-linecap:round;stroke-linejoin:round"></line><line x1="377.97" y1="258.54" x2="388.41" y2="261.02" style="fill:none;stroke:#263238;stroke-linecap:round;stroke-linejoin:round"></line><path d="M363.79,261s6,20.64,5.23,21.39-12.93,4.23-14.68.75-5.47-20.64-4.72-22.14S363.79,261,363.79,261Z" style="fill:#fff;stroke:#263238;stroke-linecap:round;stroke-linejoin:round"></path></g><g id="Device"><path d="M65.35,186.2a13.45,13.45,0,0,1,6.72,0c3,1,3.8,2,3.8,2l-9.4-.11Z" style="fill:#fff;stroke:#263238;stroke-linecap:round;stroke-linejoin:round"></path><path d="M63.23,188.1l2.12-1.9A5.37,5.37,0,0,1,69.83,188Z" style="fill:#fff;stroke:#263238;stroke-linecap:round;stroke-linejoin:round"></path><path d="M61.37,226.34a2.47,2.47,0,0,0-2.9-2l-13.19,2.5a4.47,4.47,0,0,0-4-1.27l-17,3.23A4.48,4.48,0,0,0,25,237.7a4.78,4.78,0,0,0,.84-.08l17-3.23a4.46,4.46,0,0,0,3.28-2.65l13.19-2.49A2.49,2.49,0,0,0,61.37,226.34Z" style="fill:#263238"></path><rect x="62.97" y="230.77" width="9.33" height="6.07" style="fill:#263238;stroke:#263238;stroke-linecap:round;stroke-linejoin:round"></rect><path d="M77.33,224.92H74.75v8.84h2.58c1.11,0,2-2,2-4.42S78.44,224.92,77.33,224.92Z" style="fill:#666;stroke:#263238;stroke-linecap:round;stroke-linejoin:round"></path><path d="M76.77,229.34c0,2.44-.9,4.42-2,4.42s-2-2-2-4.42.9-4.42,2-4.42S76.77,226.9,76.77,229.34Z" style="fill:#263238;stroke:#263238;stroke-linecap:round;stroke-linejoin:round"></path><path d="M64.57,227.49h9a1.73,1.73,0,0,1,1.73,1.73v0A1.73,1.73,0,0,1,73.58,231h-9a0,0,0,0,1,0,0v-3.47a0,0,0,0,1,0,0Z" style="fill:#666;stroke:#263238;stroke-linecap:round;stroke-linejoin:round"></path><path d="M56.85,217l0,.23h-1.5l4,17h3.25a3.22,3.22,0,0,0,3.14-2.51L69.16,217Z" style="fill:#666;stroke:#263238;stroke-linecap:round;stroke-linejoin:round"></path><path d="M53.6,217l2.66,14.59a3.22,3.22,0,0,0,3.16,2.65h0a3.23,3.23,0,0,0,3.15-2.51L65.91,217Z" style="fill:#263238;stroke:#263238;stroke-linecap:round;stroke-linejoin:round"></path><rect x="49.91" y="213.06" width="29.1" height="4.48" style="fill:#263238;stroke:#263238;stroke-linecap:round;stroke-linejoin:round"></rect><rect x="64.01" y="213.06" width="15" height="4.48" style="fill:#666;stroke:#263238;stroke-linecap:round;stroke-linejoin:round"></rect><path d="M47,187.89H77.66A5.33,5.33,0,0,1,83,193.23v14.61a5.33,5.33,0,0,1-5.33,5.33H47a4.33,4.33,0,0,1-4.33-4.33V192.23A4.33,4.33,0,0,1,47,187.89Z" style="fill:#263238;stroke:#263238;stroke-linecap:round;stroke-linejoin:round"></path><path d="M45.07,195.06c0,3-1.42,5.37-3.19,5.37s-3.18-2.4-3.18-5.37,1.42-5.36,3.18-5.36S45.07,192.1,45.07,195.06Z" style="fill:#92E3A9;stroke:#263238;stroke-linecap:round;stroke-linejoin:round"></path><path d="M53.94,187.89h2.38a5.33,5.33,0,0,1,5.33,5.33v14.61a5.33,5.33,0,0,1-5.33,5.33H53.94a4.33,4.33,0,0,1-4.33-4.33V192.23A4.33,4.33,0,0,1,53.94,187.89Z" style="fill:#666;stroke:#263238;stroke-linecap:round;stroke-linejoin:round"></path><path d="M72.82,189.08c-4.53,0-8.2,5.17-8.2,11.55s3.67,11.55,8.2,11.55H90.59v-23.1Z" style="fill:#263238;stroke:#263238;stroke-linecap:round;stroke-linejoin:round"></path><ellipse cx="90.59" cy="200.63" rx="8.2" ry="11.55" style="fill:#666;stroke:#263238;stroke-linecap:round;stroke-linejoin:round"></ellipse><path d="M96.64,200.63c0,4.71-2.71,8.52-6,8.52s-6-3.81-6-8.52,2.71-8.52,6-8.52S96.64,195.93,96.64,200.63Z" style="fill:#fff;stroke:#263238;stroke-linecap:round;stroke-linejoin:round"></path><rect x="65.04" y="236.77" width="5.63" height="72.58" style="fill:#fff;stroke:#263238;stroke-linecap:round;stroke-linejoin:round"></rect><path d="M108.61,433.47h5.67L78.62,313.8a2.66,2.66,0,1,0-5,1.79Z" style="fill:#fff;stroke:#263238;stroke-linecap:round;stroke-linejoin:round"></path><path d="M78.18,313.77a2.66,2.66,0,0,0-5,1.79l2.91,8.14h5.66Z" style="fill:#263238;stroke:#263238;stroke-linecap:round;stroke-linejoin:round"></path><polygon points="108.61 433.37 112.24 440.28 114.61 440.28 114.28 433.37 108.61 433.37" style="fill:#263238;stroke:#263238;stroke-linecap:round;stroke-linejoin:round"></polygon><path d="M115.47,429.26a1.8,1.8,0,0,0-1.71-1.64h-1.2l-1-3.34a1.89,1.89,0,0,0,1.41-2.17,1.79,1.79,0,0,0-1.7-1.64h-.82l-1-3.44a2,2,0,0,0,1.06-2.06,1.8,1.8,0,0,0-1.71-1.64h-.44l-.58-2h-5.66l6.48,22.12h5.67l-.59-2h.07A1.87,1.87,0,0,0,115.47,429.26Z" style="fill:#263238;stroke:#263238;stroke-linecap:round;stroke-linejoin:round"></path><path d="M28.31,433.47H22.65L58.06,313.56a2.66,2.66,0,0,1,5,1.79Z" style="fill:#fff;stroke:#263238;stroke-linecap:round;stroke-linejoin:round"></path><path d="M58.74,313.77a2.66,2.66,0,0,1,5,1.79l-2.9,8.14H55.2Z" style="fill:#263238;stroke:#263238;stroke-linecap:round;stroke-linejoin:round"></path><polygon points="28.31 433.37 24.69 440.28 22.32 440.28 22.65 433.37 28.31 433.37" style="fill:#263238;stroke:#263238;stroke-linecap:round;stroke-linejoin:round"></polygon><path d="M29.14,411.35l-.59,2h-.44a1.79,1.79,0,0,0-1.7,1.64A1.93,1.93,0,0,0,27.47,417l-1,3.44h-.82a1.8,1.8,0,0,0-1.71,1.64,1.9,1.9,0,0,0,1.41,2.17l-1,3.34h-1.2a1.79,1.79,0,0,0-1.71,1.64,1.86,1.86,0,0,0,1.71,2.2h.07l-.59,2h5.66l6.49-22.12Z" style="fill:#263238;stroke:#263238;stroke-linecap:round;stroke-linejoin:round"></path><path d="M77.11,317.5H59.78a4.15,4.15,0,0,1-4.15-4.15h0a4.15,4.15,0,0,1,4.15-4.15H77.11a4.15,4.15,0,0,1,4.15,4.15h0A4.15,4.15,0,0,1,77.11,317.5Z" style="fill:#263238;stroke:#263238;stroke-linecap:round;stroke-linejoin:round"></path><path d="M59.4,433.37l8.37-116.9a3,3,0,1,0-5.9-.51L53.45,433.37Z" style="fill:#fff;stroke:#263238;stroke-linecap:round;stroke-linejoin:round"></path><polygon points="53.45 433.37 54.75 440.28 57.12 440.28 59.4 433.37 53.45 433.37" style="fill:#263238;stroke:#263238;stroke-linecap:round;stroke-linejoin:round"></polygon><path d="M63,413.42H61.1l.15-1.78h-6l-1.85,21.73H59.4l.1-1.19h2a1,1,0,0,0,1-1v-1.78a1,1,0,0,0-1-1H59.82l.29-3.36h2.54a1,1,0,0,0,1-1v-1.78a1,1,0,0,0-1-1H60.43l.35-4.15H63a1,1,0,0,0,1-1v-1.78A1,1,0,0,0,63,413.42Z" style="fill:#263238;stroke:#263238;stroke-linecap:round;stroke-linejoin:round"></path><path d="M65.07,313.26a3,3,0,0,0-3.2,2.7l-.66,7.76h5.94l.62-7.25A3,3,0,0,0,65.07,313.26Z" style="fill:#263238;stroke:#263238;stroke-linecap:round;stroke-linejoin:round"></path><path d="M81.22,313.23a3.91,3.91,0,1,1-3.9-3.9A3.91,3.91,0,0,1,81.22,313.23Z" style="fill:#666;stroke:#263238;stroke-linecap:round;stroke-linejoin:round"></path><rect x="38.48" y="196.93" width="4.41" height="20.25" style="fill:#92E3A9;stroke:#263238;stroke-linecap:round;stroke-linejoin:round"></rect><rect x="37.88" y="216.78" width="5.41" height="5.61" style="fill:#92E3A9;stroke:#263238;stroke-linecap:round;stroke-linejoin:round"></rect><path d="M45.7,231.21c-1.61-5.81-2.41-8.82-2.41-8.82H37.88s5.21,17.65,2.6,28.27-4.81,16-4.61,20,6,4.61,6,4.61,3-1,4.61-11.42S47.3,237,45.7,231.21Zm-.5,31.55c-.73,7.29-4.12,11.29-4.12,11.29s-1.1-.61-1.82-3.16.84-8.37,3.88-16.62a33,33,0,0,0,2.07-7.86c-.07-1.33-.13-2.24-.13-2.46a4.91,4.91,0,0,1,.13,2.46A118.47,118.47,0,0,1,45.2,262.76Z" style="fill:#92E3A9;stroke:#263238;stroke-linecap:round;stroke-linejoin:round"></path><path d="M43,197.32a.29.29,0,0,1-.3-.29,2.2,2.2,0,0,0-2-2.36,2.2,2.2,0,0,0-2,2.36.3.3,0,0,1-.6,0,2.6,2.6,0,1,1,5.16,0A.29.29,0,0,1,43,197.32Z" style="fill:#fff;stroke:#263238;stroke-miterlimit:10;stroke-width:0.5px"></path></g><g id="Table"><polygon points="198.61 440.18 194.3 440.18 192.14 300.31 200.76 300.31 198.61 440.18" style="fill:#263238;stroke:#263238;stroke-linecap:round;stroke-linejoin:round"></polygon><polygon points="340.38 440.18 336.07 440.18 333.92 300.31 342.54 300.31 340.38 440.18" style="fill:#263238;stroke:#263238;stroke-linecap:round;stroke-linejoin:round"></polygon><rect x="186.46" y="295.34" width="163.4" height="11.65" style="fill:#fff;stroke:#263238;stroke-linecap:round;stroke-linejoin:round"></rect><rect x="186.46" y="295.34" width="163.4" height="4.54" style="fill:#263238;stroke:#263238;stroke-linecap:round;stroke-linejoin:round"></rect><rect x="179.44" y="288.04" width="178.77" height="9.08" style="fill:#fff;stroke:#263238;stroke-linecap:round;stroke-linejoin:round"></rect></g><g id="Floor"><line x1="16.48" y1="440.28" x2="493" y2="440.28" style="fill:none;stroke:#263238;stroke-linecap:round;stroke-linejoin:round"></line></g></svg>