<svg xmlns="http://www.w3.org/2000/svg" viewBox="0 0 500 500"><g id="background-simple"><path d="M452.69,313.89s8.91-46.18-9.64-139.49C430.36,110.55,359.44,67.57,296.4,78.47c-22.83,4-40.77,18.47-46.63,41.11C244,141.94,249.3,167,236.2,187.33c-16.31,25.29-50.59-23.05-100.62-6.19s-63,73.08-54.53,97.25,21.36,57.9,3.94,67.45-41.6,26.42-40.47,41.6,16.3,36,16.3,36Z" style="fill:#92E3A9"></path><path d="M452.69,313.89s8.91-46.18-9.64-139.49C430.36,110.55,359.44,67.57,296.4,78.47c-22.83,4-40.77,18.47-46.63,41.11C244,141.94,249.3,167,236.2,187.33c-16.31,25.29-50.59-23.05-100.62-6.19s-63,73.08-54.53,97.25,21.36,57.9,3.94,67.45-41.6,26.42-40.47,41.6,16.3,36,16.3,36Z" style="fill:#fff;opacity:0.7000000000000001"></path></g><g id="Trees"><path d="M441.09,315.9s-17.46-42.24-14.64-37.74,5.47,6.27,6.75,1.69S412.36,241,412.36,241s12.4,9.57,10.71,2.81-27-56.88-27-56.88,7.89,10.7,6.76,2.25-16.34-41.68-16.34-41.68,7.89,2.81,6.76-2.82c-1.92-9.64-6.4-19.26-9.91-28.39A161.74,161.74,0,0,0,377.05,101c-.46-.9-1.22-3.83-2.16-4.33-1.65-.87-3.21.61-4.63,3.36-4,7.79-6.89,25.78-7.6,29-.53,2.4-7,25.11-4.37,26.43,2.26,1.13,8.45-7.88,8.45-7.88s-11.83,45.06-11.83,48.44,10.7-7.32,10.7-7.32-4.77,15.62-8.67,31.1c-1.61-7.59-12.38-31.13-12.38-31.13s6.05,2.16,5.19-2.16c-1.48-7.39-4.91-14.78-7.61-21.78a126.52,126.52,0,0,0-4.8-11.76c-.35-.69-.93-2.94-1.65-3.32-1.27-.67-2.47.47-3.56,2.57-3.08,6-5.29,19.78-5.83,22.22-.41,1.84-5.38,19.27-3.35,20.28,1.73.87,6.48-6,6.48-6s-9.07,34.58-9.07,37.17,8.21-5.62,8.21-5.62-2.45,8-5,17.42c-6.78-13.89-13.56-27.3-13.56-27.3s7.89,10.7,6.76,2.25-16.34-41.68-16.34-41.68,7.89,2.82,6.76-2.82c-1.92-9.63-6.4-19.26-9.91-28.38a161.74,161.74,0,0,0-6.25-15.32c-.46-.9-1.22-3.84-2.16-4.33-1.65-.87-3.21.61-4.63,3.35-4,7.79-6.89,25.78-7.6,29-.53,2.41-7,25.12-4.37,26.44,2.26,1.12,8.45-7.89,8.45-7.89s-11.83,45.06-11.83,48.44,10.7-7.32,10.7-7.32S261,272.77,267.22,273.33c5.06.46,7.49-5.09,8.21-7.14-2.29,7.21-20.31,64.23-15.28,64.95,5.38.77,11.58-13.87,11.58-13.87l-9.53,45c-3.39-8.27-11.52-28.21-9.8-25.46,2.16,3.46,4.2,4.81,5.19,1.3s-16-29.83-16-29.83,9.5,7.35,8.21,2.17-20.75-43.66-20.75-43.66,6.05,8.21,5.19,1.73-12.54-32-12.54-32,6.06,2.16,5.19-2.16c-1.48-7.4-4.91-14.78-7.6-21.79a126.34,126.34,0,0,0-4.8-11.75c-.35-.69-.94-2.94-1.66-3.32-1.27-.67-2.46.46-3.55,2.57-3.09,6-5.29,19.78-5.83,22.21-.41,1.85-5.38,19.28-3.36,20.29,1.73.86,6.49-6.05,6.49-6.05s-9.08,34.57-9.08,37.17,8.21-5.62,8.21-5.62-4.85,15.88-7.95,29.2c-7.29-16.19-23.71-48.68-23.71-48.68s7.88,10.7,6.76,2.25-16.34-41.68-16.34-41.68,7.89,2.82,6.76-2.81c-1.93-9.64-6.4-19.26-9.91-28.39-2-5.1-3.78-10.44-6.25-15.32-.46-.9-1.22-3.84-2.16-4.33-1.66-.87-3.22.61-4.63,3.35-4,7.8-6.9,25.78-7.6,29-.54,2.41-7,25.12-4.37,26.44,2.25,1.12,8.45-7.89,8.45-7.89s-11.83,45.06-11.83,48.44,10.7-7.32,10.7-7.32-18.59,60.83-12.39,61.39c5.06.46,7.49-5.09,8.21-7.13-2.3,7.2-20.32,64.22-15.28,64.94,5.38.77,11.58-13.87,11.58-13.87L125.62,403.5,192,385.1l-.12.54,71.75-19.88s-.16-.4-.44-1.06l84.5-23.42-.11.53Zm-243-.92c2.64-.86,4-4,4.45-5.27-.39,1.22-1.36,4.29-2.6,8.35C199.29,317,198.67,316,198.06,315Zm-2.16-8.63c-.26,1.56-.45,3-.56,4.18-2.86-4.61-5-7.86-5-7.86A53.11,53.11,0,0,0,195.9,306.35ZM356.13,223q-.36,1.45-.69,2.88c-2.1-4.21-3.53-7-3.53-7S354.59,222.47,356.13,223Zm-5.72,104.82.16-.05-.07.29Z" style="fill:#92E3A9"></path><path d="M441.09,315.9s-17.46-42.24-14.64-37.74,5.47,6.27,6.75,1.69S412.36,241,412.36,241s12.4,9.57,10.71,2.81-27-56.88-27-56.88,7.89,10.7,6.76,2.25-16.34-41.68-16.34-41.68,7.89,2.81,6.76-2.82c-1.92-9.64-6.4-19.26-9.91-28.39A161.74,161.74,0,0,0,377.05,101c-.46-.9-1.22-3.83-2.16-4.33-1.65-.87-3.21.61-4.63,3.36-4,7.79-6.89,25.78-7.6,29-.53,2.4-7,25.11-4.37,26.43,2.26,1.13,8.45-7.88,8.45-7.88s-11.83,45.06-11.83,48.44,10.7-7.32,10.7-7.32-4.77,15.62-8.67,31.1c-1.61-7.59-12.38-31.13-12.38-31.13s6.05,2.16,5.19-2.16c-1.48-7.39-4.91-14.78-7.61-21.78a126.52,126.52,0,0,0-4.8-11.76c-.35-.69-.93-2.94-1.65-3.32-1.27-.67-2.47.47-3.56,2.57-3.08,6-5.29,19.78-5.83,22.22-.41,1.84-5.38,19.27-3.35,20.28,1.73.87,6.48-6,6.48-6s-9.07,34.58-9.07,37.17,8.21-5.62,8.21-5.62-2.45,8-5,17.42c-6.78-13.89-13.56-27.3-13.56-27.3s7.89,10.7,6.76,2.25-16.34-41.68-16.34-41.68,7.89,2.82,6.76-2.82c-1.92-9.63-6.4-19.26-9.91-28.38a161.74,161.74,0,0,0-6.25-15.32c-.46-.9-1.22-3.84-2.16-4.33-1.65-.87-3.21.61-4.63,3.35-4,7.79-6.89,25.78-7.6,29-.53,2.41-7,25.12-4.37,26.44,2.26,1.12,8.45-7.89,8.45-7.89s-11.83,45.06-11.83,48.44,10.7-7.32,10.7-7.32S261,272.77,267.22,273.33c5.06.46,7.49-5.09,8.21-7.14-2.29,7.21-20.31,64.23-15.28,64.95,5.38.77,11.58-13.87,11.58-13.87l-9.53,45c-3.39-8.27-11.52-28.21-9.8-25.46,2.16,3.46,4.2,4.81,5.19,1.3s-16-29.83-16-29.83,9.5,7.35,8.21,2.17-20.75-43.66-20.75-43.66,6.05,8.21,5.19,1.73-12.54-32-12.54-32,6.06,2.16,5.19-2.16c-1.48-7.4-4.91-14.78-7.6-21.79a126.34,126.34,0,0,0-4.8-11.75c-.35-.69-.94-2.94-1.66-3.32-1.27-.67-2.46.46-3.55,2.57-3.09,6-5.29,19.78-5.83,22.21-.41,1.85-5.38,19.28-3.36,20.29,1.73.86,6.49-6.05,6.49-6.05s-9.08,34.57-9.08,37.17,8.21-5.62,8.21-5.62-4.85,15.88-7.95,29.2c-7.29-16.19-23.71-48.68-23.71-48.68s7.88,10.7,6.76,2.25-16.34-41.68-16.34-41.68,7.89,2.82,6.76-2.81c-1.93-9.64-6.4-19.26-9.91-28.39-2-5.1-3.78-10.44-6.25-15.32-.46-.9-1.22-3.84-2.16-4.33-1.66-.87-3.22.61-4.63,3.35-4,7.8-6.9,25.78-7.6,29-.54,2.41-7,25.12-4.37,26.44,2.25,1.12,8.45-7.89,8.45-7.89s-11.83,45.06-11.83,48.44,10.7-7.32,10.7-7.32-18.59,60.83-12.39,61.39c5.06.46,7.49-5.09,8.21-7.13-2.3,7.2-20.32,64.22-15.28,64.94,5.38.77,11.58-13.87,11.58-13.87L125.62,403.5,192,385.1l-.12.54,71.75-19.88s-.16-.4-.44-1.06l84.5-23.42-.11.53Zm-243-.92c2.64-.86,4-4,4.45-5.27-.39,1.22-1.36,4.29-2.6,8.35C199.29,317,198.67,316,198.06,315Zm-2.16-8.63c-.26,1.56-.45,3-.56,4.18-2.86-4.61-5-7.86-5-7.86A53.11,53.11,0,0,0,195.9,306.35ZM356.13,223q-.36,1.45-.69,2.88c-2.1-4.21-3.53-7-3.53-7S354.59,222.47,356.13,223Zm-5.72,104.82.16-.05-.07.29Z" style="fill:#fff;opacity:0.5"></path></g><g id="Flag"><path d="M454.72,307.68a6.09,6.09,0,0,0-.08-1.7c-.72-3.73-4.71-6.09-8.92-5.28-4,.78-6.77,4.2-6.35,7.76l-.13,0c-1.21-1.63-4.05-2.45-7.14-1.85a10.76,10.76,0,0,0-2.91,1c0-.27-.05-.55-.1-.82-1.3-6.71-9.11-10.85-17.44-9.24-6.11,1.18-10.79,5.11-12.36,9.77l-1.18-.06c-1-4.86-6.65-7.85-12.74-6.67a13.53,13.53,0,0,0-2.42.7,26.62,26.62,0,0,0-.45-3.71c-2.46-12.75-13.36-21.36-24.34-19.24-7.25,1.4-12.72,7.12-14.89,14.52a13.84,13.84,0,0,0-10.86-2.16c-6,1.15-10.35,5.49-10.63,10.2-11,3.6-18.64,13-19.35,23.51a25.95,25.95,0,0,0-43.9,8.8,16,16,0,0,0-2.65.27,17.18,17.18,0,0,0-13.5,14.58,20.57,20.57,0,0,0-6.43.21c-5.94,1.15-10.66,4.7-12.88,9.08a10.72,10.72,0,0,0-3.95,0c-5.3,1-8.86,5.74-8.11,10.64a11.92,11.92,0,0,0-5.81-.32c-6,1.17-10.06,6.56-9,12.05a9.46,9.46,0,0,0,2,4.15L351.08,342h0l101.59-28.14a3,3,0,0,0,.4.2l.54-.15-.29.26a3.74,3.74,0,0,0,2,.17,3.51,3.51,0,0,0,2.92-4A3.46,3.46,0,0,0,454.72,307.68Z" style="fill:#fff"></path><path d="M94.4,319.38s14.11,8.48,29.12.49S143,300.58,143,300.58l25,41s-31.15,10.09-41.78,15.71S111,365.58,111,365.58Z" style="fill:#92E3A9;stroke:#263238;stroke-linecap:round;stroke-linejoin:round"></path><line x1="125.95" y1="403.68" x2="83.02" y2="290.77" style="fill:none;stroke:#263238;stroke-linecap:round;stroke-linejoin:round;stroke-width:2px"></line><line x1="126.28" y1="273.5" x2="195.16" y2="384.97" style="fill:none;stroke:#263238;stroke-linecap:round;stroke-linejoin:round;stroke-width:2px"></line><line x1="82.96" y1="415.79" x2="453.63" y2="313.94" style="fill:none;stroke:#263238;stroke-linecap:round;stroke-linejoin:round"></line></g><g id="speed-lines"><line x1="253.4" y1="251.01" x2="258.86" y2="249.35" style="fill:none;stroke:#263238;stroke-linecap:round;stroke-linejoin:round"></line><line x1="223.68" y1="260.07" x2="248.22" y2="252.59" style="fill:none;stroke:#263238;stroke-linecap:round;stroke-linejoin:round"></line><line x1="345.48" y1="304.5" x2="350.94" y2="302.84" style="fill:none;stroke:#263238;stroke-linecap:round;stroke-linejoin:round"></line><line x1="315.75" y1="313.56" x2="340.3" y2="306.08" style="fill:none;stroke:#263238;stroke-linecap:round;stroke-linejoin:round"></line><line x1="294.71" y1="257" x2="340.74" y2="242.97" style="fill:none;stroke:#263238;stroke-linecap:round;stroke-linejoin:round"></line><line x1="317.04" y1="254.73" x2="322.07" y2="253.2" style="fill:none;stroke:#263238;stroke-linecap:round;stroke-linejoin:round"></line><line x1="299.53" y1="260.07" x2="311.06" y2="256.56" style="fill:none;stroke:#263238;stroke-linecap:round;stroke-linejoin:round"></line><line x1="215.81" y1="330.92" x2="220.83" y2="329.38" style="fill:none;stroke:#263238;stroke-linecap:round;stroke-linejoin:round"></line><line x1="198.29" y1="336.25" x2="209.83" y2="332.74" style="fill:none;stroke:#263238;stroke-linecap:round;stroke-linejoin:round"></line><line x1="298.21" y1="314.44" x2="320.75" y2="307.57" style="fill:none;stroke:#263238;stroke-linecap:round;stroke-linejoin:round"></line></g><g id="Character"><path d="M269.26,363a20.23,20.23,0,0,0-6.48,3.61l27.9-7C282.91,360.24,273.81,361.3,269.26,363Z" style="fill:#fff;stroke:#263238;stroke-linecap:round;stroke-linejoin:round"></path><path d="M263.09,295s17.85,6.16,25.81,13.12,10.86,13.36,17.34,13.76,9.12-3.64,16.52-.76S340.6,329,340.6,329s-1.08,12.13-1.5,12.21-11.84-.14-27.22-1.48-20.48-1.45-28.51-5.31-14.5-5.37-24.82-10.22S239,315.8,239,315.8s10.32-5.42,16.84-10.54S263.09,295,263.09,295Z" style="fill:#92E3A9;stroke:#263238;stroke-linecap:round;stroke-linejoin:round"></path><path d="M309.1,333.35c14.15-2.17,19.4-6.39,21.33-9-2.58-1.13-5.28-2.27-7.67-3.2-7.4-2.88-10,1.16-16.52.76a10,10,0,0,1-5.52-2.15c-13.15,3.32-21.28,1.34-28-4.16-5.42-4.46-4.82-14.53-4.33-18.55-3.16-1.27-5.32-2-5.32-2s-.78,5.12-7.3,10.24S239,315.8,239,315.8s9.29,3.5,19.6,8.35c9.81,4.61,16.15,6.21,23.64,9.67A107.35,107.35,0,0,0,309.1,333.35Z" style="fill:#263238;stroke:#263238;stroke-linecap:round;stroke-linejoin:round"></path><path d="M197.42,292.49s-4.27,4.26-4.32,8,.59,7,.51,7.92-3.27,12.09-3.28,14a26.53,26.53,0,0,1-.55,4.43,57.82,57.82,0,0,0-8.68,11.73c-3.77,6.84-7.62,13.95-8.59,16.17s5.54,4.28,5.54,4.28a114,114,0,0,1,10.44-14.49c5.43-6.14,11.72-11.81,14.27-19.05s3.34-11.08,4.4-12.82,3.44-4,3.93-4.06,3.16-.74,3.16-.74a33.89,33.89,0,0,1-9.23-8.28,59.51,59.51,0,0,0-6.62-7.89Z" style="fill:#263238;stroke:#263238;stroke-linecap:round;stroke-linejoin:round"></path><path d="M199.63,331.51c-2.28.08-5.95-.11-7.88-2a6.93,6.93,0,0,1-1.79-3.64c-.1.56-.18.92-.18.92s-1.19,1.19-2.84,3.2a50,50,0,0,0,1.77,4.86c1.43,3.41,2.91,4.6,4.08,4.93A70.08,70.08,0,0,0,199.63,331.51Z" style="fill:#92E3A9;stroke:#263238;stroke-linecap:round;stroke-linejoin:round"></path><path d="M223.78,340.8c-.39.08-.66.5-.74,1.05-.84.26-2.56.82-5.43,1.94-4.24,1.67-9.09,3.52-20.75,10.28-10.42,6.05-18.49,7.64-20,7.89h-.09a1,1,0,0,0-.76,1.16,1,1,0,0,0,1.18.8l.63-.11a66.6,66.6,0,0,0,20.05-8c11.53-6.7,16.17-8.88,20.33-10.52,2.67-1,4.32-1.59,5.17-1.85a1.09,1.09,0,0,0,1,.65c.57-.11.89-.93.72-1.84S224.35,340.69,223.78,340.8Z" style="fill:#263238"></path><path d="M162.53,363.21s-1.94,3-1,5.44,6.06,3.2,8.21,2.79-2.43-2.54-4.06-4.46S163.59,362.14,162.53,363.21Z" style="fill:#92E3A9;stroke:#263238;stroke-linecap:round;stroke-linejoin:round"></path><path d="M179.06,361.6l4.36-6.45s.81-.41-2.94-4-6.06-3-6.06-3l-4.2,8.57s-6.5,3.29-7.31,7,4,6.86,8.58,7.51,6.83-1.58,7.51-4.64A10.25,10.25,0,0,0,179.06,361.6Z" style="fill:#92E3A9;stroke:#263238;stroke-linecap:round;stroke-linejoin:round"></path><path d="M173.79,364.65a2.62,2.62,0,1,1-3.07-2.08A2.63,2.63,0,0,1,173.79,364.65Z" style="fill:#263238;stroke:#263238;stroke-linecap:round;stroke-linejoin:round"></path><path d="M173.79,364.65a6.07,6.07,0,0,1-.12,3.9c-.82,1.8.18,3,2,2.05" style="fill:none;stroke:#263238;stroke-linecap:round;stroke-linejoin:round"></path><path d="M204.19,285.53s-6,5.68-6.36,7.08,4.12,10.46,12.42,15.7,26.81,8,30.82,8.73,10.27-.54,17.32-6.87A16.87,16.87,0,0,0,264.27,296s-3.09-8-14.64-15.83-14.51-7.13-19.69-5.91S213.13,277.52,204.19,285.53Z" style="fill:#92E3A9;stroke:#263238;stroke-linecap:round;stroke-linejoin:round"></path><path d="M216.54,295.18c.09.69,5.38,6.13,11.41,4.2s4.48-15.66.37-21.49-7.15-1.59-9.08,1S215.75,289.37,216.54,295.18Z" style="fill:#fff;stroke:#263238;stroke-linecap:round;stroke-linejoin:round"></path><path d="M218.59,293.24s4.78,4.71,6.74,4,3.65-6.78,2.48-12.85-1.79-8.15-4.43-4.66S218.59,293.24,218.59,293.24Z" style="fill:#263238;stroke:#263238;stroke-linecap:round;stroke-linejoin:round"></path><path d="M204.33,257.89a12.62,12.62,0,0,0-7.78,11.25c-.47,8.68,9.4,21.4,13.44,24.13s5.45,4,9.26,1.53,5.66-9.09,6.11-14.83.34-11.38-3.33-18.28S208.26,255.72,204.33,257.89Z" style="fill:#fff;stroke:#263238;stroke-linecap:round;stroke-linejoin:round"></path><path d="M222,261.69c-3.67-6.9-13.77-6-17.7-3.8a12.62,12.62,0,0,0-7.78,11.25c-.2,3.7,1.48,8.13,3.78,12.2,2.4-1.81,7.89-4.79,19.67-7.14,0,0,.58,7.62,3.11,8.12a2.51,2.51,0,0,0,2.12-1c.05-.45.1-.91.13-1.35C225.82,274.22,225.7,268.59,222,261.69Z" style="fill:#263238;stroke:#263238;stroke-linecap:round;stroke-linejoin:round"></path><path d="M199,278.63s5.14-5.68,20.48-8.06a3.34,3.34,0,0,1,1.37,4c-.81,2.89-3,9.75-4.81,10.49s-5.28-1.13-5.89-.23-.29,3.57-2.51,4.19S197.44,282.82,199,278.63Z" style="fill:#fff;stroke:#263238;stroke-linecap:round;stroke-linejoin:round"></path><path d="M201.11,278.57s4.25-4.16,16.66-6.14a2.21,2.21,0,0,1,1,2.87c-.7,2.09-2.59,7.05-4.06,7.61s-4.51-1-5.63.46c-.51.65-.29,2.57-2.1,3.05S199.8,281.61,201.11,278.57Z" style="fill:#92E3A9;stroke:#263238;stroke-linecap:round;stroke-linejoin:round"></path><path d="M219.45,270.57l5.55-.2.51,2.66-4.51.1S220.65,270.8,219.45,270.57Z" style="fill:#fff;stroke:#263238;stroke-linecap:round;stroke-linejoin:round"></path><path d="M210.12,284.86s-.33,2.24.16,2.48a10.11,10.11,0,0,0,2.06.37" style="fill:none;stroke:#263238;stroke-linecap:round;stroke-linejoin:round"></path><path d="M213,289.8a14.13,14.13,0,0,0,3.58-1.46" style="fill:none;stroke:#263238;stroke-linecap:round;stroke-linejoin:round"></path><path d="M222.68,282.41s1.67,7.51-2.84,12.13" style="fill:none;stroke:#263238;stroke-linecap:round;stroke-linejoin:round"></path><path d="M266.27,323.55s-5.76-1.87-18.68-6.44-18-7-21.81.79,4.55,13.25,10.76,18,21.39,12.42,22.87,12.69,7.54-9,7.54-9,6.3-1.11,8-4.2-1.22-8-1.22-8" style="fill:#263238;stroke:#263238;stroke-linecap:round;stroke-linejoin:round"></path><line x1="243.68" y1="317.97" x2="263.79" y2="335.28" style="fill:none;stroke:#fff;stroke-linecap:round;stroke-linejoin:round"></line><path d="M264.89,333.52s-6,2.05-9.25,7-2.44,9.08-1.47,10.1,10.21,5.43,10.46,5,1.65-.65,1.65-.65,0-3.87,4.3-7.45,6.33-3.76,6.33-3.76a12.45,12.45,0,0,0,.21-2.36C277,340.9,265.46,333.63,264.89,333.52Z" style="fill:#92E3A9;stroke:#263238;stroke-linecap:round;stroke-linejoin:round"></path><path d="M266.28,355l2.11,1.25a11.38,11.38,0,0,1,3.68-6.12,19.44,19.44,0,0,1,7.7-4.14l-2.86-2.2S267.46,346.27,266.28,355Z" style="fill:#263238;stroke:#263238;stroke-linecap:round;stroke-linejoin:round"></path><path d="M268.39,356.25l1.37,1.94s-6.7,1.29-7.76,4.37-.48,4.39-.48,4.39L301.1,357s-1.44-4.58-4.9-5.9-7.24-.92-8.7-1.63-5.9-3.72-5.9-3.72S270.25,345.84,268.39,356.25Z" style="fill:#92E3A9;stroke:#263238;stroke-linecap:round;stroke-linejoin:round"></path><path d="M269.41,359.8c-5.33,2-7.28,4.08-8,5.55a3.69,3.69,0,0,0,.14,1.6L301.1,357a11.86,11.86,0,0,0-.51-1.24C293,356.13,276.18,357.23,269.41,359.8Z" style="fill:#263238;stroke:#263238;stroke-linecap:round;stroke-linejoin:round"></path><path d="M338,325.7s-3.24,1-5.79,6.64-.37,11.77-.37,11.77,12.09-.24,12.56-.66-.64-2.19,1.46-7.9,3.45-5,2.19-6.93S338,325.7,338,325.7Z" style="fill:#92E3A9;stroke:#263238;stroke-linecap:round;stroke-linejoin:round"></path><path d="M348.31,329.45l3.95.45s-2.39,1.61-3.93,6.5a53.34,53.34,0,0,0-1.47,7.24l-2.47-.19S342.39,338.21,348.31,329.45Z" style="fill:#263238;stroke:#263238;stroke-linecap:round;stroke-linejoin:round"></path><path d="M352.26,329.9a31.69,31.69,0,0,0-4.74,10.3c-1.25,5.54-.52,4.18-.52,4.18L367.27,339s2.48-5.45-2.2-8S353.72,327.74,352.26,329.9Z" style="fill:#92E3A9;stroke:#263238;stroke-linecap:round;stroke-linejoin:round"></path><path d="M254.14,267.58s-11.9.77-15.88,3.91-2.26,11.13.91,15.27,11.23,1.91,13.15-.5a49.23,49.23,0,0,0,3.2-4.52l8.5-5.2s5.62.1,8.73-1.35a35.58,35.58,0,0,0,5.35-3.07s8.6,4.11,12,5.67a9.57,9.57,0,0,1,4.42,3.56l7.58-3.84s-6-11.91-11-16.55-8.18-4.53-11.78-3.84-14.69,3-18,5.18S254.14,267.58,254.14,267.58Z" style="fill:#263238;stroke:#263238;stroke-linecap:round;stroke-linejoin:round"></path><path d="M282.29,256.77a17.26,17.26,0,0,0-3,.35c-1.2.24-3.24.65-5.54,1.18a9.55,9.55,0,0,0-2,5.7,13.1,13.1,0,0,0,4.14,9.52c1.35-.8,2.18-1.4,2.18-1.4S276.59,262.13,282.29,256.77Z" style="fill:#92E3A9;stroke:#263238;stroke-linecap:round;stroke-linejoin:round"></path><path d="M406.41,262.58l-2.15-.55a4.91,4.91,0,0,0-.07-1c-.28-1.48-1.46.31-1.46.31-22.92-1.56-54.84,6-70.27,14.09s-24.69,7-24.78,6.95a1,1,0,0,0-.25,2,28.63,28.63,0,0,0,8.12-.62,66,66,0,0,0,17.84-6.55c15.13-7.91,46.39-15.34,68.95-13.88a1.46,1.46,0,0,0,.48,1.15c.61.48,1.07-.27,1.3-1.28Z" style="fill:#263238"></path><path d="M296.23,273.71c-4.71,2.59-5.93,7.09-5.84,8.43a5.79,5.79,0,0,0,.61,2.26s-1.66,2.86-.65,4.54a11.39,11.39,0,0,0,7.48,4.49c3.5.52,7.58.58,9.46-2a12.38,12.38,0,0,0,1.46-11.83c-1.93-4.72-5.37-4.9-5.37-4.9S301,271.1,296.23,273.71Z" style="fill:#92E3A9;stroke:#263238;stroke-linecap:round;stroke-linejoin:round"></path><path d="M303.38,274.71s-10.55-.17-12.38,9.69" style="fill:#92E3A9;stroke:#263238;stroke-linecap:round;stroke-linejoin:round"></path><path d="M297,276.79s-2.36,5.38,4.6,5.39,8-1.55,5.78-4.34A7.08,7.08,0,0,0,297,276.79Z" style="fill:#263238;stroke:#263238;stroke-linecap:round;stroke-linejoin:round"></path><path d="M295.26,287.14c.31,1.63-.31,3.11-1.39,3.32s-2.22-.94-2.54-2.56.31-3.12,1.4-3.33S295,285.51,295.26,287.14Z" style="fill:#263238;stroke:#263238;stroke-linecap:round;stroke-linejoin:round"></path><path d="M295.11,292.45a12.58,12.58,0,0,1,.67-4.19c.75-2.21,1.07-3.23.59-4.18" style="fill:none;stroke:#263238;stroke-linecap:round;stroke-linejoin:round"></path><path d="M298.46,293.36s1.27-.69,2.57-3.9,1.08-4.34,1.08-4.34" style="fill:none;stroke:#263238;stroke-linecap:round;stroke-linejoin:round"></path><path d="M302.49,293.61s4.1-1.75,4-7.78" style="fill:none;stroke:#263238;stroke-linecap:round;stroke-linejoin:round"></path><path d="M318.88,349.28S224.36,373,218.35,372.94s-11.46-4.66-13.58-2.48-1.72,7.63,1.08,11.11,9.46,4,12.9,3.45,101.13-31,101.13-31Z" style="fill:#263238;stroke:#263238;stroke-linecap:round;stroke-linejoin:round"></path><circle cx="301.29" cy="354.55" r="4.8" style="fill:#fff"></circle><path d="M325.72,352.15a4.58,4.58,0,1,1-4.58-4.58A4.58,4.58,0,0,1,325.72,352.15Z" style="fill:#fff"></path><path d="M313.07,358.69a4.58,4.58,0,1,1-4.58-4.58A4.58,4.58,0,0,1,313.07,358.69Z" style="fill:#fff"></path><path d="M294.74,358.37a2.73,2.73,0,1,1-2.72-2.73A2.72,2.72,0,0,1,294.74,358.37Z" style="fill:#fff"></path><path d="M287.87,363.27a2.73,2.73,0,1,1-2.72-2.72A2.72,2.72,0,0,1,287.87,363.27Z" style="fill:#fff"></path><path d="M300.63,362.4a2.73,2.73,0,1,1-2.72-2.72A2.72,2.72,0,0,1,300.63,362.4Z" style="fill:#fff"></path><path d="M313.61,355.42a2.73,2.73,0,1,1-2.72-2.72A2.72,2.72,0,0,1,313.61,355.42Z" style="fill:#fff"></path><path d="M307.84,359.76a2.73,2.73,0,1,1-2.72-2.73A2.73,2.73,0,0,1,307.84,359.76Z" style="fill:#fff"></path><path d="M407.49,325s-75,20.43-80.56,20.63-10.77-3.77-12.7-1.74-1.43,6.89,1.25,9.91,8.91,3.25,12.1,2.63,80.94-27.21,80.94-27.21Z" style="fill:#263238;stroke:#263238;stroke-linecap:round;stroke-linejoin:round"></path><circle cx="404.69" cy="323.99" r="4.8" style="fill:#fff"></circle><path d="M429.12,321.59a4.58,4.58,0,1,1-4.58-4.58A4.58,4.58,0,0,1,429.12,321.59Z" style="fill:#fff"></path><path d="M416.47,328.13a4.58,4.58,0,1,1-4.58-4.58A4.58,4.58,0,0,1,416.47,328.13Z" style="fill:#fff"></path><path d="M398.15,327.8a2.73,2.73,0,1,1-2.73-2.72A2.73,2.73,0,0,1,398.15,327.8Z" style="fill:#fff"></path><path d="M391.28,332.71a2.73,2.73,0,1,1-2.73-2.73A2.73,2.73,0,0,1,391.28,332.71Z" style="fill:#fff"></path><path d="M404,331.84a2.73,2.73,0,1,1-2.73-2.73A2.73,2.73,0,0,1,404,331.84Z" style="fill:#fff"></path><path d="M417,324.86a2.73,2.73,0,1,1-2.73-2.73A2.72,2.72,0,0,1,417,324.86Z" style="fill:#fff"></path><path d="M411.25,329.2a2.73,2.73,0,1,1-2.73-2.73A2.72,2.72,0,0,1,411.25,329.2Z" style="fill:#fff"></path><path d="M375.57,330.53a4.8,4.8,0,1,1-4.8-4.8A4.79,4.79,0,0,1,375.57,330.53Z" style="fill:#fff"></path><path d="M395.21,328.13a4.59,4.59,0,1,1-4.59-4.58A4.59,4.59,0,0,1,395.21,328.13Z" style="fill:#fff"></path><path d="M382.55,334.67a4.58,4.58,0,1,1-4.58-4.58A4.58,4.58,0,0,1,382.55,334.67Z" style="fill:#fff"></path><path d="M364.23,334.35a2.73,2.73,0,1,1-2.73-2.73A2.72,2.72,0,0,1,364.23,334.35Z" style="fill:#fff"></path><path d="M357.36,339.25a2.73,2.73,0,1,1-2.73-2.72A2.73,2.73,0,0,1,357.36,339.25Z" style="fill:#fff"></path><path d="M370.12,338.38a2.73,2.73,0,1,1-2.73-2.72A2.73,2.73,0,0,1,370.12,338.38Z" style="fill:#fff"></path><path d="M383.1,331.4a2.73,2.73,0,1,1-2.73-2.72A2.73,2.73,0,0,1,383.1,331.4Z" style="fill:#fff"></path><path d="M377.33,335.74A2.73,2.73,0,1,1,374.6,333,2.73,2.73,0,0,1,377.33,335.74Z" style="fill:#fff"></path></g></svg>