<svg xmlns="http://www.w3.org/2000/svg" viewBox="0 0 750 500"><g id="background-simple"><path d="M41.63,428.49c4.95,23.32,22.72,37.9,33.19,43.76h634.9c1.81-6.1,5.37-21.83,3.89-47.65-1.94-34-37-33.06-28.2-64.18s21.39-36,19.45-73.91c0,0-2.92-62.24-80.72-135.17S511.34,72.57,457.85,89.1s-96.28,84.6-148.79,93.36-94.33-64.19-163.38-45.71S42.6,191.21,47.46,237.89s57.38,83.63,30.15,117.67S34.82,396.4,41.63,428.49Z" style="fill:#92E3A9"></path><path d="M41.63,428.49c4.95,23.32,22.72,37.9,33.19,43.76h634.9c1.81-6.1,5.37-21.83,3.89-47.65-1.94-34-37-33.06-28.2-64.18s21.39-36,19.45-73.91c0,0-2.92-62.24-80.72-135.17S511.34,72.57,457.85,89.1s-96.28,84.6-148.79,93.36-94.33-64.19-163.38-45.71S42.6,191.21,47.46,237.89s57.38,83.63,30.15,117.67S34.82,396.4,41.63,428.49Z" style="fill:#fff;opacity:0.8"></path></g><g id="Clouds"><path d="M64.8,175.39a5.93,5.93,0,0,1-2.31,1.14c-2.32.51-8.49.25-9.52,3.08a6.14,6.14,0,0,1-3.86,3.6s-4.89.26-5.14,1.29a9.94,9.94,0,0,1-2.06,2.83H126s2.83-4.37-1.8-8.49c-4-3.6-11.45,1.86-12.37-2.58" style="fill:none;stroke:#263238;stroke-linecap:round;stroke-linejoin:round"></path><path d="M111.09,169.71c-.94-3.38-2.91-8-6.92-9.65-6.69-2.83-12.35,1-13.9,4.89s-2.57,6.43-8.49,3.09S70.72,165,68.92,169.32A19.68,19.68,0,0,1,67,173" style="fill:none;stroke:#263238;stroke-linecap:round;stroke-linejoin:round"></path><path d="M527.69,92.21h29.22a4,4,0,0,0-1.09-5.14c-2.8-2.49-8.25,2.18-7.47-3.11,0,0-.62-6.54-4.67-8.25a6.52,6.52,0,0,0-6.46.59" style="fill:none;stroke:#263238;stroke-linecap:round;stroke-linejoin:round"></path><path d="M535.28,78.67c-.93,2.33-1.56,3.89-5.14,1.87s-6.69-1.87-7.78.77-2.49,4-3.89,4.36-5.13.16-5.75,1.87a3.75,3.75,0,0,1-2.34,2.18s-2.95.15-3.11.78A5.91,5.91,0,0,1,506,92.21h17.08" style="fill:none;stroke:#263238;stroke-linecap:round;stroke-linejoin:round"></path><path d="M676.6,122.69h23.76s2.94-4.55-1.88-8.83-14.2,3.75-12.86-5.36c0,0-1.07-11.25-8-14.2s-12.86,1.08-14.46,5.09-2.68,6.7-8.84,3.22S642.77,99.39,640.9,104s-4.29,7-6.7,7.5-8.84.26-9.91,3.21a6.39,6.39,0,0,1-4,3.75s-5.09.27-5.35,1.34a10.3,10.3,0,0,1-2.15,2.94h55.94" style="fill:none;stroke:#263238;stroke-linecap:round;stroke-linejoin:round"></path></g><g id="Plant"><path d="M646.93,430.47a15.21,15.21,0,0,0,5.48.07c0,1.12,0,2.29.08,3.5a30.77,30.77,0,0,0,.81,5.28s0,0,0,.06c-.29-.49-1.17-1.82-1.25-1.91-1.12-1.33-4.06-3.25-5.86-2.51a2.31,2.31,0,0,0-1.07,3.25,4.85,4.85,0,0,0,3.5,2,16.47,16.47,0,0,0,4.75-.67,39.39,39.39,0,0,0,1.76,5.13c.41,1,.84,2,1.29,2.92-.27-.41-.51-.78-.55-.83-1.12-1.33-4-3.24-5.86-2.51a2.32,2.32,0,0,0-1.07,3.26,4.81,4.81,0,0,0,3.5,2,15.35,15.35,0,0,0,4.61-.63l.53,1.11c.85,1.77,1.72,3.53,2.51,5.28.28.62.53,1.24.78,1.86-.24-.37-.45-.67-.48-.72-1.12-1.33-4-3.24-5.86-2.51a2.31,2.31,0,0,0-1.07,3.25,4.79,4.79,0,0,0,3.5,2,14.84,14.84,0,0,0,4.49-.6c.24.64.48,1.28.69,1.91.13.44.28.85.39,1.29s.23.87.34,1.3c.19.83.39,1.69.55,2.51.11.57.21,1.11.32,1.66-.27-.62-.83-1.82-.89-1.91-.9-1.49-3.51-3.82-5.4-3.37a2.3,2.3,0,0,0-1.55,3.05,4.76,4.76,0,0,0,3.14,2.54,15.59,15.59,0,0,0,4.77.06c.17.91.32,1.79.45,2.63.1.63.2,1.24.28,1.83h1.21c-.1-.65-.22-1.33-.35-2-.17-.92-.36-1.9-.57-2.9a26.84,26.84,0,0,0,2.67-1.21,17.1,17.1,0,0,0,3.84,2.56c-.36.84-.72,1.66-1.07,2.43-.19.43-.38.83-.56,1.23H671l.33-.77c.37-.86.75-1.79,1.13-2.74a15.66,15.66,0,0,0,4.74.44,4.79,4.79,0,0,0,3.4-2.2,2.31,2.31,0,0,0-1.22-3.2c-1.83-.64-4.68,1.41-5.73,2.79-.06.08-.64,1-1,1.65.15-.39.31-.77.46-1.17.31-.8.59-1.61.89-2.47.14-.42.27-.85.41-1.28s.24-.89.37-1.34c.26-1,.48-2.13.68-3.21a15.36,15.36,0,0,0,4.49,1.1,4.78,4.78,0,0,0,3.69-1.66,2.29,2.29,0,0,0-.72-3.34c-1.71-.92-4.84.67-6.08,1.88-.08.07-.88,1-1.31,1.58.11-.66.23-1.31.32-2,.27-1.92.48-3.87.7-5.82.07-.6.15-1.2.22-1.79a15.87,15.87,0,0,0,4.64,1.16,4.78,4.78,0,0,0,3.69-1.66,2.29,2.29,0,0,0-.72-3.34c-1.71-.92-4.83.67-6.08,1.88-.1.09-1.25,1.48-1.52,1.85.16-1.31.33-2.62.55-3.89a40.7,40.7,0,0,1,1.2-5.12,15.82,15.82,0,0,0,4.67,1.17,4.8,4.8,0,0,0,3.69-1.66,2.3,2.3,0,0,0-.72-3.34c-1.71-.92-4.84.68-6.09,1.88-.08.08-1,1.14-1.36,1.65l-.1-.05a30.47,30.47,0,0,1,2.12-4.84c.45-.86.94-1.66,1.42-2.42a15.52,15.52,0,0,0,4.42,1.63,4.85,4.85,0,0,0,3.85-1.24,2.3,2.3,0,0,0-.35-3.41c-1.6-1.1-4.88.14-6.25,1.2-.06,0-.4.37-.78.74,0-.08,0-.18,0-.28s.11-.17.16-.25c.83-1.21,1.67-2.27,2.42-3.2.43-.53.83-1,1.21-1.43a15.19,15.19,0,0,0,4.64-.59,4.79,4.79,0,0,0,2.84-2.88,2.3,2.3,0,0,0-1.88-2.86c-1.92-.24-4.26,2.38-5,3.95-.07.14-.81,2.38-.77,2.38h0c-.37.41-.77.85-1.19,1.35-.76.91-1.62,1.94-2.48,3.14,0-1.87-.26-5.76-2.72-6-3.25-.36-4.24,3.35-2.25,5.4a5.9,5.9,0,0,0,4.25,1.66c-.64.92-1.29,1.92-1.89,3a30.74,30.74,0,0,0-2.24,4.84s0,.05,0,.07c0-.57,0-2.17,0-2.29-.2-1.72-1.59-4.94-3.5-5.32a2.3,2.3,0,0,0-2.69,2.12,4.82,4.82,0,0,0,1.8,3.63,16,16,0,0,0,4.32,2.06,40.89,40.89,0,0,0-1.36,5.26c-.2,1-.37,2.08-.53,3.14,0-.49,0-.93,0-1-.19-1.72-1.59-4.94-3.49-5.32a2.3,2.3,0,0,0-2.69,2.12,4.83,4.83,0,0,0,1.79,3.63,15.4,15.4,0,0,0,4.2,2c-.06.4-.12.81-.17,1.21-.27,1.95-.52,3.89-.83,5.79-.11.67-.24,1.33-.37,2,0-.43,0-.8,0-.86-.19-1.72-1.59-4.94-3.49-5.32a2.29,2.29,0,0,0-2.69,2.12,4.84,4.84,0,0,0,1.79,3.63,14.59,14.59,0,0,0,4.08,2c-.15.67-.31,1.34-.48,2-.13.43-.23.86-.39,1.29s-.29.85-.43,1.27c-.3.8-.61,1.62-.93,2.39-.21.54-.43,1-.65,1.56.12-.66.32-2,.32-2.08a8.81,8.81,0,0,0-1.13-4.36,2.9,2.9,0,0,0,0-.51,2.31,2.31,0,0,0-2.79-2c-1.88.48-3.12,3.75-3.24,5.49,0,.1,0,1.22.09,1.92-.09-.41-.17-.81-.27-1.23-.18-.83-.39-1.66-.61-2.55-.12-.43-.25-.86-.37-1.29s-.29-.88-.43-1.32c-.36-1-.77-2-1.21-3.06a14.91,14.91,0,0,0,4.36-1.56,4.78,4.78,0,0,0,2.16-3.41,2.3,2.3,0,0,0-2.44-2.4c-1.94.18-3.66,3.23-4,4.93,0,.1-.16,1.35-.22,2-.27-.61-.53-1.22-.82-1.83-.84-1.75-1.74-3.5-2.63-5.25l-.81-1.6a16.24,16.24,0,0,0,4.52-1.6,4.78,4.78,0,0,0,2.16-3.42,2.3,2.3,0,0,0-2.45-2.39c-1.93.18-3.66,3.23-4,4.93,0,.13-.22,1.92-.25,2.38-.59-1.18-1.16-2.37-1.69-3.55a40.92,40.92,0,0,1-1.82-4.93c.12,0,3.35-.71,4.55-1.6a4.8,4.8,0,0,0,2.16-3.42,2.3,2.3,0,0,0-2.45-2.39c-1.94.18-3.66,3.23-4,4.92,0,.12-.17,1.48-.22,2.13h-.11a29.13,29.13,0,0,1-.91-5.2c-.09-1-.13-1.9-.14-2.8a15.77,15.77,0,0,0,4.58-1.08,4.81,4.81,0,0,0,2.52-3.16,2.3,2.3,0,0,0-2.17-2.65c-1.94,0-4,2.81-4.55,4.45,0,.09-.24,1-.38,1.72,0-.4,0-.83,0-1.22,0-1.47.14-2.81.25-4,.06-.68.14-1.29.22-1.86a15.7,15.7,0,0,0,3.55-3.05,4.83,4.83,0,0,0,.78-4,2.3,2.3,0,0,0-3.15-1.35c-1.74.87-2.25,4.33-2,6.05,0,.15.64,2.43.67,2.41l0,0c-.09.54-.17,1.13-.25,1.77-.14,1.19-.28,2.54-.34,4,0,.28,0,.55,0,.83-.73-1.15-3-4.39-5.55-3.75C643.81,427.13,644.47,429.85,646.93,430.47Z" style="fill:#263238"></path></g><g id="City"><polyline points="690.35 286.06 690.35 405.76 726.3 405.76" style="fill:none;stroke:#263238;stroke-linecap:round;stroke-linejoin:round"></polyline><polyline points="491.14 132.5 491.14 244.85 518.1 244.85 518.1 148.31 539.07 148.31 539.07 212.67 560.04 212.67 560.04 134.52 572.02 134.52 572.02 56.36 589.99 56.36 589.99 278.36 606.42 278.36 606.42 221.87 610.96 221.87 610.96 345.99 637.92 345.99 637.92 175.89 657.4 175.89 657.4 258.65 669.38 258.65 669.38 345.99 681.36 345.99 681.36 226.47 690.35 226.47 690.35 274.13" style="fill:none;stroke:#263238;stroke-linecap:round;stroke-linejoin:round"></polyline><polyline points="243.81 189.79 243.81 56.36 263.47 56.36 263.47 91.46 279.94 91.46 279.94 14.99 320.38 14.99 320.38 313.81 374.31 313.81 374.31 116.13 408.76 116.13 408.76 231.06 438.71 231.06 438.71 79.35 491.14 79.35 491.14 122.15" style="fill:none;stroke:#263238;stroke-linecap:round;stroke-linejoin:round"></polyline><polyline points="92.72 279.7 92.72 217.27 137.65 217.27 137.65 304.62 178.09 304.62 178.09 189.69 211.04 189.69 211.04 300.02 243.81 300.02 243.81 196.95" style="fill:none;stroke:#263238;stroke-linecap:round;stroke-linejoin:round"></polyline><polyline points="28.31 405.76 53.77 405.76 53.77 258.65 73.24 258.65 73.24 313.81 92.72 313.81 92.72 286.06" style="fill:none;stroke:#263238;stroke-linecap:round;stroke-linejoin:round"></polyline></g><g id="character-4"><path d="M527.24,123.44s.19,5.32,1.65,7.33,2.75,4,2.75,4l.37,3.85,8.25-1.65V126.92l-2.2-7.7Z" style="fill:#fff;stroke:#263238;stroke-miterlimit:10"></path><path d="M529.44,137.56s2.39,40.52,4,47.49,18.33,46,18.33,46l23.47-23.47-20.17-28.24-13.93-43.63Z" style="fill:#969696;stroke:#263238;stroke-miterlimit:10"></path><path d="M539.36,120.22s-1.2-7.57-2.59-7.17-11.35,5.57-11.15,6.57,0,5.18,2,5.18S540,121.61,540,121.61Z" style="fill:#fff;stroke:#263238;stroke-miterlimit:10"></path><line x1="533.98" y1="114.64" x2="537.36" y2="123" style="fill:#fff;stroke:#263238;stroke-miterlimit:10"></line><line x1="530.99" y1="116.03" x2="533.58" y2="123.8" style="fill:#fff;stroke:#263238;stroke-miterlimit:10"></line><line x1="528.2" y1="117.83" x2="530" y2="124" style="fill:#fff;stroke:#263238;stroke-miterlimit:10"></line><path d="M539.56,135.15s2-9.16,1.79-11.75-2.39-4.38-5-6-3,.4-1.59,2.19,2.58,3.38,2.58,3.38-4.77,3.59-4,7.37,2,4.18,2,4.18" style="fill:#fff;stroke:#263238;stroke-miterlimit:10"></path><path d="M559.33,167.81s-2.75,4.59-2.57,6.24a18.74,18.74,0,0,1-.18,4s-6.78,3.12-6.6,4.59,2.38,4.76,2.38,4.76-.73,10.09.19,11.92,5.68,3.3,5.68,3.3a38.17,38.17,0,0,0,4.4,4.95c1.47,1.1,1.28,7.52,1.28,7.52l12.29-3.48s3.48-6.6,3.67-19.26,0-22.55-4.59-26S561.16,165.25,559.33,167.81Z" style="fill:#fff;stroke:#263238;stroke-miterlimit:10"></path><path d="M562.16,178.61c0,1.12-.51,2-1.14,2s-1.14-.92-1.14-2,.51-2,1.14-2S562.16,177.48,562.16,178.61Z" style="fill:#263238"></path><path d="M559.51,175.15s1.29-1.84,3.3.18" style="fill:none;stroke:#263238;stroke-miterlimit:10"></path><line x1="554.75" y1="189.63" x2="558.6" y2="190.73" style="fill:none;stroke:#263238;stroke-miterlimit:10"></line><path d="M592.23,456.69l-7.7,7.33s-9.72,4-9.9,4.59-.73,2.2.37,2.57a74,74,0,0,0,12.47,1.1c2.93-.19,7.15-.19,8.61-.19s9.17.55,10.82-.36,2.2-1.65,1.65-5.14l-1.65-10.45Z" style="fill:#fff;stroke:#263238;stroke-miterlimit:10"></path><path d="M569.09,366.39s2.57,15.77,4.59,19.8,17.64,65.37,17.64,65.37l-.92,4.4v1.28s-.18,1.28,4.22,1.28,11.55-.18,12.46-.73-.48-3.66-1.4-13.56.45-46.85-2.3-57.3-4.77-14.12-4.77-14.12l-1.83-34.47Z" style="fill:#263238;stroke:#263238;stroke-miterlimit:10"></path><path d="M546,453.54s-4.77,5.32-6,6.24-10.45,5-12.47,6.05-1.1,3.85.37,4.4,26.95,2,29.89,2,5.68.36,5.68-3.49-.37-13-.37-13Z" style="fill:#fff;stroke:#263238;stroke-miterlimit:10"></path><path d="M548.7,308.82s-.19,13.75,2,24,3.12,15.77,3.12,15.77S541,378.55,540.77,383.5s4.86,65.64,4.86,65.64-1.84.37-1.84,1.65.37,4.95.37,4.95,2.57,2,9.9,2.39,9-2.39,9-2.39l-.36-20.35,6.51-49.87s34.33-44.8,37.26-51.77S610.3,316,608.65,311a55.37,55.37,0,0,0-3.11-7.7Z" style="fill:#263238;stroke:#263238;stroke-miterlimit:10"></path><path d="M548.7,303.32l-.55,9.53s12.28,6.24,31,5.13,29.34-6.41,29.52-7-3.11-15.59-3.11-15.59-14.49,6.42-27.69,8.62S548.7,303.32,548.7,303.32Z" style="fill:#92E3A9;stroke:#263238;stroke-miterlimit:10"></path><path d="M556.76,221.9s-7.33,20.91-7.7,24.39S543.75,302,546,304.23s21.45,8.44,40,4.95,21.82-9,19.8-18.52-11.18-60.32-15-68.76-16.51-6.05-16.51-6.05Z" style="fill:#969696;stroke:#263238;stroke-miterlimit:10"></path><path d="M553.65,222.45s-12.11,27-12.29,30.08S539,299.28,539,299.28l16.5,1.65-1.65-49.69,7-28.79Z" style="fill:#92E3A9;stroke:#263238;stroke-miterlimit:10"></path><path d="M573.63,203.39s-24.75,8.8-24.57,10.63S550.9,224.1,552,225.2s28.78-5.5,30.07-9S575.65,202.65,573.63,203.39Z" style="fill:#92E3A9;stroke:#263238;stroke-miterlimit:10"></path><path d="M565.38,155.53a10.56,10.56,0,0,0-6.78,5.32,45.45,45.45,0,0,0-3.67,8.25l10.82,2,2.2-3.48.37,4.22,2.38,1.46s-1.47,3.12.37,7.89a64.22,64.22,0,0,1,2.75,9.53,54.48,54.48,0,0,0-7.34,24.21c-.73,13.93,6.42,18.88,12.47,16.13s8.07-7.88,13.94-7.15,8.8,7.89,11.18,9.9,11.37-.36,10.27-13.93S605.72,208,605,195.32s-.92-26.22-6.24-33.92-17.42-8.62-22.18-8.07A102.73,102.73,0,0,0,565.38,155.53Z" style="fill:#263238;stroke:#263238;stroke-miterlimit:10"></path><path d="M608.65,320.37s-1.83,5.87-2.2,7.52-1.46,7-1.28,7.51.37,3.49,1.28,3.67a2.53,2.53,0,0,1,1.47,1.1s1.28,2.57,3.3,2.39,4-2.39,4-2.39,7.7-1.83,7.51-4.58-3.48-15.4-3.48-15.4Z" style="fill:#fff;stroke:#263238;stroke-miterlimit:10"></path><path d="M575.65,239.32,597.47,283,607,322.75l14.12-1.65s-1.46-42.72-2.93-47.85S605,232.72,601.5,229.79s-10.45-9.54-18-2.93-7.51,9.9-7.51,9.9" style="fill:#969696;stroke:#263238;stroke-miterlimit:10"></path></g><g id="character-3"><path d="M379,303.7s.92,5.35,2.28,6.32,2.83,1,2.44-.39-1.22-2-1.27-3.31l0-1.35s1.31,2.61,2.48,2.91,2.63.39,2.54-.49-1.27-1.27-1.76-1.95l-1.46-2.05a12.91,12.91,0,0,0,2.92,1.46c.78.1,1.56-.29,1.37-1.36s-2.05-1.17-2.63-1.76a5.49,5.49,0,0,1-1-1.46s2.05-1.46,2.24-3.12-1.95-3.22-1.95-3.22a9.46,9.46,0,0,0-4.48,3.12,19.54,19.54,0,0,0-2.64,5.07Z" style="fill:#fff;stroke:#263238;stroke-miterlimit:10"></path><path d="M389.52,285.48s-4.78,4.38-7,6.17-6.49,8.27-6.89,11.06-.13,7,1.37,8.29c.68.58,1.85-.78,1.75-1.86-.23-2.6-.39-3.87,0-5.07,0-.1.09-.22.16-.37.76-1.62,5-6.48,5-6.48s-1.39,6.36-1.59,7.75.59,4.58,1.79,3.19,2-5,2.38-6.57,3.39-2.19,5.18-4.57,2.38-5.57,2.78-6.37S389.52,285.48,389.52,285.48Z" style="fill:#fff;stroke:#263238;stroke-miterlimit:10"></path><path d="M489.21,435.53,496.49,452s-3.48,7.13-6.17,10.29-9.65,6.17-10,7.75,18.36,2.22,20.42,1.27,4-4.27,6.48-6.65,10.76-3.79,9.18-9.49-8.07-9-8.07-9l-3.48-16.62Z" style="fill:#fff;stroke:#263238;stroke-miterlimit:10"></path><path d="M516.43,455.15c-1-3.51-3.8-6.11-5.83-7.59-.71,1-1.66,2.35-2.87,3.95a11.58,11.58,0,0,1-7.28,4.43l-.95-1.11c-.69-.8-2.72-1.19-3.77-1.34a55.6,55.6,0,0,1-5.41,8.78c-2.69,3.17-9.65,6.17-10,7.75s18.36,2.22,20.42,1.27,4-4.27,6.48-6.65S518,460.85,516.43,455.15Z" style="fill:#263238;stroke:#263238;stroke-miterlimit:10"></path><path d="M445.07,353.75s4.06,21.31,6.34,26.89S485.57,441,485.57,441l22.58-8.62L481.35,356l-6.6-47.7Z" style="fill:#92E3A9;stroke:#263238;stroke-miterlimit:10"></path><path d="M472.58,316.65s-17.77,52-18.1,55.33-.34,12.41-.34,12.41l-2.73-3.75-6-20.39,7.38-20.79Z" style="fill:#263238;stroke:#263238;stroke-miterlimit:10"></path><path d="M406.59,435.49l-6,19.15s-14.72,1.58-17.56,1.27-7.92-2.69-8.71-.16,9.5,9.18,18.36,12c3.54,1.13,7,2.45,10.53,3.65,3.88,1.32,7.53,1.5,9.09-2.86s.63-7.6,1.27-8.87S424,437.55,424,437.55Z" style="fill:#fff;stroke:#263238;stroke-miterlimit:10"></path><path d="M397.73,458l.91-3.12c-4.1.42-13.42,1.31-15.62,1.07-2.85-.32-7.92-2.69-8.71-.16s9.5,9.18,18.36,12c3.54,1.13,7,2.45,10.53,3.65,3.88,1.32,7.53,1.5,9.09-2.86a16.92,16.92,0,0,0,.94-4.5Z" style="fill:#263238;stroke:#263238;stroke-miterlimit:10"></path><path d="M424.52,283l1.52,15s-12.94,43.64-14,52S403,437.47,403,437.47l24.36,4.31,21.56-83s26.39-43.13,27.91-49.47.25-21.82-1.27-24.87l-1.52-3Z" style="fill:#92E3A9;stroke:#263238;stroke-miterlimit:10"></path><path d="M435.37,210.8s-20.26,11.52-20.46,12.31-7,38.54-7,38.54L387.9,284.29l7.54,9.93,24-16.48,1,8.74,58.6-2.59.19-12.31s-5.16-64.95-6.55-65.95-14.7-1.19-14.7-1.19Z" style="fill:#fff;stroke:#263238;stroke-miterlimit:10"></path><path d="M459.8,222.32l4.77,29.2-23.44-6.76-2.58,14.9s34,12.71,38.33,13.9,8.14,1,9.73-1.19,2.19-5.36,2.39-8.74-11.72-57.8-14.5-58.79-13.51-.2-13.51-.2" style="fill:#fff;stroke:#263238;stroke-miterlimit:10"></path><line x1="464.57" y1="251.52" x2="478.87" y2="254.89" style="fill:#fff;stroke:#263238;stroke-miterlimit:10"></line><path d="M406,237.22s2.58,24.43,1.39,43.89-2,33.37-2,33.37a122.28,122.28,0,0,0,29.8,6c15.89,1,22.84,1.39,22.84,1.39l-.2-81s-28.2-.4-36.35-1.59S406,237.22,406,237.22Z" style="fill:#fff;stroke:#263238;stroke-miterlimit:10"></path><path d="M421.59,265.53l-3.1-19.4,2.21.23,2.05,13.92,2.57-13.38,1.88.19,2.59,14,2-13.58,2.17.22-3.06,18.77-1.93-.2-2.66-14.4-2.69,13.86Z" style="fill:#263238"></path><path d="M436.29,267V248l7.4.76v2L439,250.2v6.32l3.84.39v1.88L439,258.4v7l4.78.49v1.9Z" style="fill:#263238"></path><path d="M419.2,285.91a5.58,5.58,0,0,1-3.14-1.17,5,5,0,0,1-1.56-2.44,11.51,11.51,0,0,1-.43-3.25v-6.74a11.24,11.24,0,0,1,.43-3.32,3.53,3.53,0,0,1,1.56-2.07,5.11,5.11,0,0,1,3.14-.47,5.81,5.81,0,0,1,2.84.95,4.36,4.36,0,0,1,1.51,2,8.74,8.74,0,0,1,.46,3v1.51l-2.52-.26v-1.34a15,15,0,0,0-.11-1.88,2.29,2.29,0,0,0-.57-1.32,2.52,2.52,0,0,0-1.58-.61,2.21,2.21,0,0,0-1.65.31,2.06,2.06,0,0,0-.67,1.3,11.15,11.15,0,0,0-.16,2.05v7.56a8.89,8.89,0,0,0,.24,2.3,2.35,2.35,0,0,0,.78,1.27,2.84,2.84,0,0,0,1.46.5,2,2,0,0,0,1.55-.33,2,2,0,0,0,.59-1.27,13.9,13.9,0,0,0,.12-2v-1.42l2.52.26v1.41a9.83,9.83,0,0,1-.42,3,3.46,3.46,0,0,1-1.47,1.92A4.67,4.67,0,0,1,419.2,285.91Z" style="fill:#263238"></path><path d="M425.52,286.35l4.05-18.67,2.57.26,4.07,19.5-2.52-.26-.87-4.89-3.89-.4L428,286.6Zm3.77-6.33,3.18.32-1.61-8.76Z" style="fill:#263238"></path><path d="M438.14,287.64V268.56l1.82.18L445.37,282V269.3l2.22.22V288.6l-1.7-.17-5.49-13.59v13Z" style="fill:#263238"></path><path d="M409.46,305.12V286l4.15.42a8.05,8.05,0,0,1,3.36,1,4.32,4.32,0,0,1,1.76,2.13,8.84,8.84,0,0,1,.53,3.28v7a9,9,0,0,1-.53,3.36,3.46,3.46,0,0,1-1.72,1.93,5.84,5.84,0,0,1-3.19.4Zm2.67-1.64,1.5.16a2.82,2.82,0,0,0,2.08-.36,2.34,2.34,0,0,0,.74-1.57,23.52,23.52,0,0,0,.13-2.6v-6.2a13.24,13.24,0,0,0-.19-2.42,2.27,2.27,0,0,0-.83-1.42,3.89,3.89,0,0,0-2-.63l-1.43-.15Z" style="fill:#263238"></path><path d="M426.75,307.1a6.06,6.06,0,0,1-3.08-1.07,4.78,4.78,0,0,1-1.65-2.32,10.34,10.34,0,0,1-.5-3.34v-7.23A8.78,8.78,0,0,1,422,290a3.49,3.49,0,0,1,1.65-1.9,5.43,5.43,0,0,1,3.07-.41,6,6,0,0,1,3.07,1.05,4.69,4.69,0,0,1,1.63,2.24,9.54,9.54,0,0,1,.51,3.28v7.25a9,9,0,0,1-.51,3.2,3.73,3.73,0,0,1-1.63,2A5.15,5.15,0,0,1,426.75,307.1Zm0-2.1a2.31,2.31,0,0,0,1.61-.27,1.91,1.91,0,0,0,.73-1.15,8.09,8.09,0,0,0,.18-1.83v-8.36a8.4,8.4,0,0,0-.18-1.85,2.35,2.35,0,0,0-.73-1.25,2.9,2.9,0,0,0-1.61-.57,2.51,2.51,0,0,0-1.61.24,1.75,1.75,0,0,0-.74,1.1,7.28,7.28,0,0,0-.19,1.81v8.36a8,8,0,0,0,.19,1.87,2.38,2.38,0,0,0,.74,1.3A2.79,2.79,0,0,0,426.75,305Z" style="fill:#263238"></path><path d="M440.11,308.25V289.17l2.61.27v19.08Z" style="fill:#263238"></path><path d="M447.91,309.05V292l-3.23-.33v-2l9,.92v2l-3.13-.32v17.1Z" style="fill:#263238"></path><path d="M429.41,236.62s-1.19-2.18-2.38-1.79-3.58,5.76-3.38,6.56.2,1.39,1.59.79S429.41,236.62,429.41,236.62Z" style="fill:#fff;stroke:#263238;stroke-miterlimit:10"></path><path d="M432.28,237.15s-1.19-2.18-2.38-1.79-3.58,5.76-3.38,6.56.2,1.39,1.59.79S432.28,237.15,432.28,237.15Z" style="fill:#fff;stroke:#263238;stroke-miterlimit:10"></path><path d="M435.48,238s-1.2-2.18-2.39-1.78-3.57,5.76-3.37,6.55.19,1.39,1.59.8S435.48,238,435.48,238Z" style="fill:#fff;stroke:#263238;stroke-miterlimit:10"></path><path d="M438.44,240.28l-.7-1.75s-.94-1.72-1.88-1.41-2.82,4.54-2.66,5.17.16,1.09,1.25.62a8.4,8.4,0,0,0,2.23-2.63Z" style="fill:#fff;stroke:#263238;stroke-miterlimit:10"></path><polygon points="433.78 206.23 425.24 211.2 431.99 218.15 437.95 215.96 433.78 206.23" style="fill:#fff;stroke:#263238;stroke-miterlimit:10"></polygon><path d="M421.66,166.51s-2.18,7-1.79,8.54.8,3.37.4,4.56-5.76,6-5.16,7.15a29.81,29.81,0,0,0,2.78,3.78s.59,10.72,2.18,10.72,9.74.4,9.74.4l5,12.91,20.86-10.52-.8-12.12L456,179.42Z" style="fill:#fff;stroke:#263238;stroke-miterlimit:10"></path><path d="M425.32,191.81a2.19,2.19,0,1,1-2.18-1.91A2.06,2.06,0,0,1,425.32,191.81Z" style="fill:#263238"></path><path d="M425.44,181c0,.88-.4,1.59-.9,1.59s-.89-.71-.89-1.59.4-1.58.89-1.58S425.44,180.13,425.44,181Z" style="fill:#263238"></path><path d="M423.25,176.64s2.78-1.79,6.16,1" style="fill:none;stroke:#263238;stroke-miterlimit:10"></path><polygon points="455.83 199.48 430.8 210.8 434.97 218.74 458.01 204.44 455.83 199.48" style="fill:#fff;stroke:#263238;stroke-miterlimit:10"></polygon><path d="M436.16,170.68s-2.78,24.23-4.57,27.61a44.11,44.11,0,0,0-2.78,6.55s14.9,2.78,24.43,2.18,13.51-4.17,13.51-4.17-3-11.32-4.57-15.89S459.4,179,459.4,179Z" style="fill:#263238;stroke:#263238;stroke-miterlimit:10"></path><path d="M420.27,169.29s39.13,14.1,40.32,13.9,5.17-1.59,6.36-7.75-.8-15.29-11.12-21.65-35.56-4.57-37.94,3.38S420.27,169.29,420.27,169.29Z" style="fill:#969696;stroke:#263238;stroke-miterlimit:10"></path></g><g id="character-2"><path d="M302.88,295.64l-1.39,16.29S290.77,344.7,286,357.21s-6.75,21.45-5.76,23.84,31,70.11,31,70.11-5.37,9.93-8.55,12.52-7.34,5-5.95,6,11.71.59,13.5,0,15.1-9.94,17.08-11.33.2-4.17-1.19-6.75-2.58-2.78-2.78-4.37-16.29-70.12-16.29-70.12l13.71-15.69s-2,19.47-.6,23.44,23.42,72.95,23.42,72.95a65.86,65.86,0,0,1-7.86,7c-3.72,2.62-11.14,4.58-10.05,6.55s23.16.22,25.78.22,5.68.44,6.12-2.19-2.41-11.58-2.62-14.2-6.18-66.55-6.18-66.55l2.18-31a116.71,116.71,0,0,0,6-32.38,105.6,105.6,0,0,0-3.58-30S317.58,298,315.6,298,302.88,295.64,302.88,295.64Z" style="fill:#fff;stroke:#263238;stroke-miterlimit:10"></path><path d="M355,455.15c-.22-2.62-6.18-66.55-6.18-66.55l2.18-31a116.71,116.71,0,0,0,6-32.38,105.6,105.6,0,0,0-3.58-30S317.58,298,315.6,298s-12.72-2.38-12.72-2.38l-1.39,16.29S290.77,344.7,286,357.21s-6.75,21.45-5.76,23.84,31,70.11,31,70.11,7.38.12,12.79-2.47a2.81,2.81,0,0,1-.68-1.5c-.2-1.59-16.29-70.12-16.29-70.12l13.71-15.69s-2,19.47-.6,23.44,23.42,72.95,23.42,72.95,7.64,2.45,11.94.37A22.64,22.64,0,0,1,355,455.15Z" style="fill:#263238;stroke:#263238;stroke-miterlimit:10"></path><path d="M275.67,112.11l2.58,19.46,15.1,49.06,20.85,23.24s13.11,5,19.07,10.33,10.93,8.14,12.71,14.5-2,34.76-2.18,38.73,2.78,10.73,2.78,10.73l6.75,17.08s-22.64,7.15-34.95,5.36S302.49,298,302.49,298V273s-.6-8.54-.6-9.13-4.17-12.32-4.57-22.45-.2-15.89-.4-17.08-13.9-29-15.69-34.36-3.37-11.92-3.77-13.31-7.75-46.08-7.75-46.08-3.77-4.77-4.37-8.94-.79-6.75-.79-6.75Z" style="fill:#fff;stroke:#263238;stroke-miterlimit:10"></path><path d="M295.55,186.54l-15.2,12.33,16.57,25.46s-1.37,18.1-.54,23.86,2.87,22.19,2.87,22.19l3.63,25.26,51.05-2.19-9.88-32.52s-.41-28.36-1.23-35.76S332.54,210,332.54,210Z" style="fill:#92E3A9;stroke:#263238;stroke-miterlimit:10"></path><path d="M300.9,164.94s-6.36,6.95-6.16,12.51c.1,2.81,0,4.77-.6,5.77s-5,4.37-4.37,5.56l1.59,3.17s4,13.51,5.17,13.91,9.33-.2,9.33-.2-1.39,22.84.8,22.84,17.28-12.71,18.87-13.9,2.18-18.08,2.18-18.08,4.37,2.19-7.75-15.29S300.9,164.94,300.9,164.94Z" style="fill:#fff;stroke:#263238;stroke-miterlimit:10"></path><path d="M300.29,182.94c-.16,1.19-.69,2.11-1.18,2s-.75-1.09-.59-2.28.69-2.11,1.18-2S300.46,181.74,300.29,182.94Z" style="fill:#263238"></path><path d="M297.52,178.65s2.18-2.59,5.16.79" style="fill:none;stroke:#263238;stroke-miterlimit:10"></path><path d="M298.31,196.13c0,1.09-.57,2-1.29,2s-1.29-.89-1.29-2,.58-2,1.29-2S298.31,195,298.31,196.13Z" style="fill:#263238"></path><path d="M318.77,184.21s-4,29.4-6.95,41.91.2,24.63,3.58,23.64,5.36-12.52,10.13-21.85,10.52-9.74,14.1-7.15,7.15,12.31,7.35,12.91,0,10.52-1.59,20.45-2.78,13.31-.6,18.28,11.52,12.71,14.5-1-3.37-15.3-4.76-27,3-15.69-.8-24.23-11.72-11.92-14.5-15.1-4.77-10.32-5-11.12S318.77,184.21,318.77,184.21Z" style="fill:#263238;stroke:#263238;stroke-miterlimit:10"></path><path d="M299.7,166.53s19.07,21.06,22.85,26,5.16,7.95,8.34,6.36l3.18-1.59s3.37,1.79,8.14-1.59,7.75-3.58-1.39-19.47-14.3-23.63-24.63-20.65S299.31,159.58,299.7,166.53Z" style="fill:#92E3A9;stroke:#263238;stroke-miterlimit:10"></path><path d="M277.26,114.09s-1.19-7.54-2.58-7.15-11.32,5.56-11.13,6.56,0,5.16,2,5.16,12.32-3.18,12.32-3.18Z" style="fill:#fff;stroke:#263238;stroke-miterlimit:10"></path><line x1="271.9" y1="108.53" x2="275.27" y2="116.87" style="fill:#fff;stroke:#263238;stroke-miterlimit:10"></line><line x1="268.92" y1="109.92" x2="271.5" y2="117.67" style="fill:#fff;stroke:#263238;stroke-miterlimit:10"></line><line x1="266.14" y1="111.71" x2="267.92" y2="117.87" style="fill:#fff;stroke:#263238;stroke-miterlimit:10"></line><path d="M277.46,129s2-9.14,1.79-11.72-2.39-4.37-5-6-3,.4-1.59,2.19,2.58,3.37,2.58,3.37-4.76,3.58-4,7.35,2,4.17,2,4.17" style="fill:#fff;stroke:#263238;stroke-miterlimit:10"></path><path d="M322.94,266.84,300.7,245.39s-.4-6.36-1.59-8.94-6-5-6.95-5.76-3.78-2.78-5-.8-1.19,3-.79,3.78-3.78,6.55-3.78,9.33,3.58,6.16,6,7.55a36.06,36.06,0,0,0,6.76,2.58s16.08,19.47,20.06,24.23,13.5,11.33,15.29,10.53S340,271.21,340,271.21Z" style="fill:#fff;stroke:#263238;stroke-miterlimit:10"></path><path d="M330.89,223.14s-4.17,2.38-4.37,9.73-3.58,34-3.58,34l19.47,8.74s6-31.39,6.36-39.93-7.35-14.7-10.93-14.3" style="fill:#92E3A9;stroke:#263238;stroke-miterlimit:10"></path><path d="M315.6,290.47l7.57.93a31.24,31.24,0,0,0,7,.09c7.2-.71,23.36-2.18,24.75-1.25,1.79,1.19,2.78,4.56,3.18,5.36s1.42,9,7.58,29.63,6.36,30,6.36,30-6.76,5.36-13.91,7.35-22.84-2.39-28-2.39-7.34-.2-7.34-.2-4-45.09-5.37-51.84a117.4,117.4,0,0,0-4.17-14.3Z" style="fill:#fff;stroke:#263238;stroke-miterlimit:10"></path><path d="M308.05,289.08s-9.14,3.18-9.54,5.17.6,12.51,4,11.72,9.93-1.79,10.32-5.56S310.63,288.49,308.05,289.08Z" style="fill:#fff;stroke:#263238;stroke-miterlimit:10"></path><path d="M308.05,289.08,315,328.21s11.12-1,12.71-4.17-10.13-30.39-12.11-33.57S309.64,287.1,308.05,289.08Z" style="fill:#fff;stroke:#263238;stroke-miterlimit:10"></path></g><g id="character-1"><path d="M142.81,224.92s2.33,4.12,1.38,6.75-1.48,3.91-1.48,3.91,6.12,6.22,11.6,11.08,13.51,10.44,13.51,10.44l11.9-5.91,3.8,16.67s-16.07,7-17.55,6.68-22-29.15-24.84-32.42-5.7-6.44-6.12-6.54-2.32-13.19-2.32-13.19l7.38-.85Z" style="fill:#969696;stroke:#263238;stroke-miterlimit:10"></path><path d="M138.09,221s2,6.78,2.82,6.78,3.49-.32,2.64-3.9S140.23,217.9,138.09,221Z" style="fill:#969696;stroke:#263238;stroke-miterlimit:10"></path><path d="M465.54,46.81c-24.69-1.41-55,6.35-55,6.35s14.1-17.64,28.92-24c11.7-5,25.59-6.94,30.92-7.53C420.78,15,393.38,44.18,352,48.22c-28.92,2.82-23.56,2-93.11-14.11S139.64,43.27,124.3,49.85A199.78,199.78,0,0,0,95.71,65.21l18.84,75.4S190,107.15,229.45,98.8s62.85,8.21,110.72,6.12C387.83,102.85,397,89.59,437,64.31c24.33-15.39,40-11.1,62.54-11.4C490.41,48.5,479.25,47.59,465.54,46.81Z" style="fill:#92E3A9;stroke:#263238;stroke-miterlimit:10"></path><path d="M135.84,105.49l-13-20.94,2.6-1.08,9.09,15.13L131,81.3l2.22-.92,9.73,14.88-4.36-17.2,2.55-1L146.79,101l-2.27.94-10-15.33,3.73,17.94Z" style="fill:#263238"></path><path d="M158.7,96.69a7.05,7.05,0,0,1-4,.46,5.25,5.25,0,0,1-2.93-1.84,12.64,12.64,0,0,1-2-3.71L146.52,83a12.05,12.05,0,0,1-.83-4.1,5.17,5.17,0,0,1,1.06-3.2,7.23,7.23,0,0,1,3.35-2.22,7.09,7.09,0,0,1,4-.48A5.24,5.24,0,0,1,157,74.72a11.54,11.54,0,0,1,2,3.63L162.19,87a12.14,12.14,0,0,1,.84,4.1,5.47,5.47,0,0,1-1,3.3A6.86,6.86,0,0,1,158.7,96.69Zm-.92-2.51A3.22,3.22,0,0,0,159.5,93a2.8,2.8,0,0,0,.33-1.79,10.19,10.19,0,0,0-.59-2.29l-3.7-10a10.26,10.26,0,0,0-1-2.1,2.59,2.59,0,0,0-1.39-1.08,3.26,3.26,0,0,0-2.09.22,3.39,3.39,0,0,0-1.75,1.2,2.53,2.53,0,0,0-.36,1.74,9.65,9.65,0,0,0,.58,2.26l3.7,10a10.21,10.21,0,0,0,1,2.12,2.71,2.71,0,0,0,1.43,1.14A3.25,3.25,0,0,0,157.78,94.18Z" style="fill:#263238"></path><path d="M167.69,93.1l-7.06-23.26,3.17-1L174,86.24l-2-20.08,3.14-1,7.92,23-2.6.84-5.69-16.69,1.52,18-1.82.59-9.32-15.52,5.18,16.87Z" style="fill:#263238"></path><path d="M186.39,87.2,180,63.77l9.08-2.5.67,2.43-5.81,1.6L186,73.05l4.72-1.29.64,2.31-4.72,1.3L189,84l5.87-1.61.64,2.34Z" style="fill:#263238"></path><path d="M197.9,84.07l-5.24-23.73,2.26-.5,10.21,14.28-3.47-15.76,2.75-.61,5.24,23.73-2.11.46-10.4-14.69,3.57,16.2Z" style="fill:#263238"></path><path d="M209,64.52l-1.27-7.33,2.87-.5.12,7.53Z" style="fill:#263238"></path><path d="M222.37,79.83a6.36,6.36,0,0,1-3.58-.47,5.69,5.69,0,0,1-2.4-2.22,10.4,10.4,0,0,1-1.28-3.56L218,72.42a13.79,13.79,0,0,0,.71,2.42A4.4,4.4,0,0,0,220,76.67a2.64,2.64,0,0,0,2.09.51,2.56,2.56,0,0,0,1.89-1,3,3,0,0,0,.42-2.18,4.34,4.34,0,0,0-1.07-2.54,14,14,0,0,0-2.12-1.79l-4.48-3.08a6.89,6.89,0,0,1-2-2.06,7.37,7.37,0,0,1-.94-3,5.51,5.51,0,0,1,1-4.29,5.76,5.76,0,0,1,4-2,7.72,7.72,0,0,1,2.56.06,4.43,4.43,0,0,1,2,.93,5.65,5.65,0,0,1,1.4,1.81,11.34,11.34,0,0,1,.92,2.68l-2.77,1.12a11.46,11.46,0,0,0-.62-2.14A3.31,3.31,0,0,0,221,58.29a2.77,2.77,0,0,0-2-.38,2.7,2.7,0,0,0-1.87.91,2.66,2.66,0,0,0-.46,2.06,4,4,0,0,0,.59,1.77A5.2,5.2,0,0,0,218.66,64L223.17,67a13.24,13.24,0,0,1,2.76,2.55,7.21,7.21,0,0,1,1.52,3.79,6.23,6.23,0,0,1-.37,3.18,5,5,0,0,1-1.8,2.22A6.2,6.2,0,0,1,222.37,79.83Z" style="fill:#263238"></path><path d="M236.72,78.57,238,54.31l9.4.49-.13,2.51-6-.31-.42,8,4.88.25-.12,2.4-4.88-.25-.47,8.89,6.08.32-.12,2.43Z" style="fill:#263238"></path><path d="M259,85.68a6.73,6.73,0,0,1-1.45-1.39,15.91,15.91,0,0,1-1.28-1.88c-.39-.67-.74-1.31-1.05-1.91h-.27l-.3,0A7.1,7.1,0,0,1,250.84,79a5.21,5.21,0,0,1-1.75-3,12.5,12.5,0,0,1-.11-4.23l1.12-9.14a11.85,11.85,0,0,1,1.15-4,5.19,5.19,0,0,1,2.41-2.36,8.76,8.76,0,0,1,7.76,1,5.27,5.27,0,0,1,1.77,2.88,11.76,11.76,0,0,1,.13,4.16l-1.13,9.17a13.19,13.19,0,0,1-.75,3.16A6.85,6.85,0,0,1,260,79a4.94,4.94,0,0,1-2.25,1.31c.2.32.42.67.66,1a11.32,11.32,0,0,0,.72,1,7,7,0,0,0,.69.78Zm-4-7.87a3.27,3.27,0,0,0,2.12-.3,2.74,2.74,0,0,0,1.11-1.44,10.14,10.14,0,0,0,.53-2.3L260,63.2a9.85,9.85,0,0,0,.05-2.34,2.58,2.58,0,0,0-.74-1.6,3.34,3.34,0,0,0-2-.78,3.4,3.4,0,0,0-2.1.27,2.53,2.53,0,0,0-1.12,1.37,9.83,9.83,0,0,0-.53,2.28L252.28,73a10.09,10.09,0,0,0-.05,2.37A2.73,2.73,0,0,0,253,77,3.21,3.21,0,0,0,255,77.81Z" style="fill:#263238"></path><path d="M270.55,82.72a6.63,6.63,0,0,1-3.83-1.67,5.27,5.27,0,0,1-1.43-3.23,18,18,0,0,1,.2-4.48l2.56-15.9,3.2.51L268.67,74a17.27,17.27,0,0,0-.24,2.84A3.74,3.74,0,0,0,269,79a3.38,3.38,0,0,0,4.19.68,4,4,0,0,0,1.21-1.88,18.65,18.65,0,0,0,.66-2.78L277.64,59l3.17.51-2.55,15.9a17.23,17.23,0,0,1-1.21,4.32,5.31,5.31,0,0,1-2.35,2.62A6.65,6.65,0,0,1,270.55,82.72Z" style="fill:#263238"></path><path d="M279.07,83.87l9.42-23,3.21.58.77,24.84-3.16-.57V79.51l-4.87-.89-2.24,5.82Zm6.25-7.56,4,.72-.06-11.13Z" style="fill:#263238"></path><path d="M295,86.76l4-24,3.34.56L298.7,84.92l6.12,1-.4,2.4Z" style="fill:#263238"></path><path d="M307.47,88.73l3-24.11,3.3.4-3,24.12Z" style="fill:#263238"></path><path d="M318.49,89.8,319.33,68l-4.11-.16.1-2.52,11.48.45-.09,2.52-4-.16-.84,21.77Z" style="fill:#263238"></path><path d="M334,89.47,333,81l-7-15,3.13-.36,5,11.23,2.3-12.07,3.16-.36-3.4,16.21,1,8.52Z" style="fill:#263238"></path><path d="M353.27,86.19l-6.15-23.51,5.11-1.33a9.34,9.34,0,0,1,4.35-.29,4.76,4.76,0,0,1,2.8,1.83,10.88,10.88,0,0,1,1.69,3.81l2.26,8.65a12.05,12.05,0,0,1,.45,4.37,5.24,5.24,0,0,1-1.44,3.16,7.87,7.87,0,0,1-3.7,1.91ZM355.93,83l1.86-.48a3.86,3.86,0,0,0,2.37-1.37,3.31,3.31,0,0,0,.39-2.27,29.84,29.84,0,0,0-.69-3.26l-2-7.63a15.13,15.13,0,0,0-1-2.9,2.53,2.53,0,0,0-1.44-1.39,4.76,4.76,0,0,0-2.61.12l-1.77.46Z" style="fill:#263238"></path><path d="M368,82.24l-2.56-24.7,3.11-1L381,78.05l-3.05,1L375,73.56l-4.71,1.52.77,6.19ZM370,72.63l3.85-1.24-5.31-9.79Z" style="fill:#263238"></path><path d="M386.69,76l-3-8L373.32,55l3-1.09,7.56,9.7-.65-12.27,3-1.1.57,16.55,3,8Z" style="fill:#263238"></path><line x1="94.82" y1="59.86" x2="165.16" y2="345.76" style="fill:none;stroke:#263238;stroke-linecap:round;stroke-linejoin:round;stroke-width:4px"></line><path d="M129.49,223.69s1.91,11.39,3.14,11.88,7.62,0,7.86-2.21S139.32,222,138.09,221,132,220.5,129.49,223.69Z" style="fill:#969696;stroke:#263238;stroke-miterlimit:10"></path><path d="M130.05,225.87s7.28-3.69,9.18-2" style="fill:none;stroke:#263238;stroke-miterlimit:10"></path><path d="M130.79,229.56s7.59-3.16,9.28-1.69" style="fill:none;stroke:#263238;stroke-miterlimit:10"></path><path d="M131.42,232.83s7.07-2.32,9.07-1.68" style="fill:none;stroke:#263238;stroke-miterlimit:10"></path><path d="M183.08,164.44S172.76,171.82,172,176s-.49,8.6-1.47,10.32-5.17,3.45-4.68,4.18a48.3,48.3,0,0,0,3.94,3.69s0,13.52,2.21,13.77,11.8-.74,11.8-.74,1,7.38,1,11.56-.24,9.34-.24,9.34l17.21-10.82s-3.94-13.77-3.69-15,10.82-9.58,11.56-18.68-4.18-16.23-9.59-18.44S186.53,160.76,183.08,164.44Z" style="fill:#969696;stroke:#263238;stroke-miterlimit:10"></path><path d="M180.38,165.92l17.7,36.38,3.69-3.44L187,161.25S181.12,163.21,180.38,165.92Z" style="fill:#fff;stroke:#263238;stroke-miterlimit:10"></path><path d="M187,161.25s1-4.43,2.7-3.94,2.21,3.45,2.21,3.45,11.31-11.31,13.53-9.84,1.23,4.92,1.23,4.92,14-8.85,18.19-2.46-.49,12.05-.49,12.05,12.29,9.83,10.57,16.22-10.33,7.87-10.33,7.87,3.44,5.16,0,7.87-9.59.49-9.59.49,1.23,4.67-2.95,5.65-10.32-4.67-10.32-4.67Z" style="fill:#263238;stroke:#263238;stroke-miterlimit:10"></path><path d="M188.74,189.77s5.9-8.12,7.62-3.45.74,10.08-1.72,11.31-6.39-.73-6.39-.73" style="fill:#969696;stroke:#263238;stroke-miterlimit:10"></path><path d="M176,186.57c0,1.22-.49,2.21-1.1,2.21s-1.11-1-1.11-2.21.5-2.21,1.11-2.21S176,185.35,176,186.57Z" style="fill:#263238"></path><path d="M173.5,181.65s2.95-1.72,4.67,1" style="fill:none;stroke:#263238;stroke-miterlimit:10"></path><path d="M173.74,198.12c0,1-.55,1.73-1.23,1.73s-1.23-.77-1.23-1.73.55-1.72,1.23-1.72S173.74,197.17,173.74,198.12Z" style="fill:#263238"></path><path d="M207.18,360.88s14.26,26.55,20.65,33.43,30,52.61,30.73,54.83-7.38,13-8.85,15.24-6.89,3.44-5.9,5.41,11.8,1.72,14.26,1.23,6.88-5.9,10.08-8.11,7.37-3.45,7.13-7.38-5.9-9.83-7.38-12.78-9.34-23.11-11.8-34.92-13-27.78-15.73-31.46-4.18-5.41-4.18-5.41l-7.87-36.39Z" style="fill:#969696;stroke:#263238;stroke-miterlimit:10"></path><path d="M275.28,455.53c-.15-2.29-2.12-5.25-4-7.9-.69,1.27-1.47,2.75-2.35,4.46-3.69,7.13-7.87,11.06-12.79,12.78-3.75,1.32-4.92-.95-5.27-2.09-.49.69-.89,1.26-1.12,1.6-1.48,2.21-6.89,3.44-5.9,5.41s11.8,1.72,14.26,1.23,6.88-5.9,10.08-8.11S275.52,459.46,275.28,455.53Z" style="fill:#263238;stroke:#263238;stroke-miterlimit:10"></path><path d="M250.92,434a38.75,38.75,0,0,0,11.33-5.75,174.25,174.25,0,0,1-6.15-20.44c-2.46-11.8-13-27.78-15.73-31.46s-4.18-5.41-4.18-5.41l-7.87-36.39-21.14,26.31s14.26,26.55,20.65,33.43C232,398.75,243.23,419.35,250.92,434Z" style="fill:#263238;stroke:#263238;stroke-miterlimit:10"></path><path d="M200.29,214.35s-13.27,6.39-19.17,16.23-11.07,22.86-9.1,26.06,6.39,15.73,7.13,16.71,10.82,45.49,11.31,49.17a61.28,61.28,0,0,1,.49,7.13s-13.52,21.89-15,32.21-6.39,20.9-8.6,30.49-13.77,39.33-15.24,45-4.67,9.34-6.15,11.55a8.92,8.92,0,0,1-3,2.95s-10.82-.74-14.26-2.46-9.1-7.37-10.33-2.95,8.12,14.26,12.79,17.21,12.78,8.85,14.5,8.61,3.45-1.72,4.68-3.94S158,452.58,161,448.65s23.35-33.44,24.83-42.29,3.44-17.46,5.41-21.39,33.92-36.14,39.58-52.61S232,308,228.07,298.68s-17.21-20.9-17.21-20.9-.49-22.62-2-38.6S202.75,214.84,200.29,214.35Z" style="fill:#969696;stroke:#263238;stroke-miterlimit:10"></path><path d="M148.42,466.1c-8.36-2.46-19.92-11.55-19.92-11.55l2.07-4.51a10.41,10.41,0,0,1-1.82-.66c-3.44-1.72-9.1-7.37-10.33-2.95s8.12,14.26,12.79,17.21,12.78,8.85,14.5,8.61,3.45-1.72,4.68-3.94c.16-.29.41-.77.72-1.4Z" style="fill:#263238;stroke:#263238;stroke-miterlimit:10"></path><path d="M185.79,406.36c1.47-8.85,3.44-17.46,5.41-21.39s33.92-36.14,39.58-52.61c5.24-15.26,1.83-23.13-1.83-31.63L188,310.91c1.31,6,2.27,10.54,2.42,11.61a61.28,61.28,0,0,1,.49,7.13s-13.52,21.89-15,32.21-6.39,20.9-8.6,30.49c-1.79,7.74-9.66,28.6-13.4,39.34l14,6.86C175,428,184.78,412.38,185.79,406.36Z" style="fill:#263238;stroke:#263238;stroke-miterlimit:10"></path><path d="M228.07,298.68c-3.93-9.34-17.21-20.9-17.21-20.9s-.49-22.62-2-38.6-6.15-24.34-8.61-24.83c0,0-13.27,6.39-19.17,16.23s-11.07,22.86-9.1,26.06,6.39,15.73,7.13,16.71c.58.77,6.85,28.07,9.8,41.75l41.67-10.39C229.82,302.7,228.94,300.72,228.07,298.68Z" style="fill:#92E3A9;stroke:#263238;stroke-miterlimit:10"></path><path d="M191.2,231.31s-5.41,1.48-3.94,12.79,6.15,33.19,6.15,33.19S163.66,292,162.43,292s-7.87,0-9.83-.49S144,292.29,144,294a5.23,5.23,0,0,0,1.48,3.19s2.21,6.89,4.42,7.87,8.36-.74,11.07-2.95a39.6,39.6,0,0,1,5.41-3.69s40.81-13.27,42.53-14.5,2.21-5.41,2.21-9.84-6.15-40.56-7.62-44-6.88-3.45-6.88-3.45" style="fill:#92E3A9;stroke:#263238;stroke-miterlimit:10"></path><path d="M187.05,280.43C178.24,284.76,163.3,292,162.43,292c-1.23,0-7.87,0-9.83-.49S144,292.29,144,294a5.23,5.23,0,0,0,1.48,3.19s2.21,6.89,4.42,7.87,8.36-.74,11.07-2.95a39.6,39.6,0,0,1,5.41-3.69s12.76-4.15,24.31-8Z" style="fill:#969696;stroke:#263238;stroke-miterlimit:10"></path></g><g id="Floor"><line x1="709.72" y1="472.25" x2="726.92" y2="472.25" style="fill:none;stroke:#263238;stroke-miterlimit:10"></line><line x1="58.54" y1="472.25" x2="701.46" y2="472.25" style="fill:none;stroke:#263238;stroke-miterlimit:10"></line><line x1="27.7" y1="472.25" x2="51.38" y2="472.25" style="fill:none;stroke:#263238;stroke-miterlimit:10"></line></g></svg>