<svg xmlns="http://www.w3.org/2000/svg" xmlns:xlink="http://www.w3.org/1999/xlink" viewBox="0 0 500 500"><defs><clippath id="clip-path"><path d="M422.84,77.73a14.72,14.72,0,0,0,.07-1.49A17.19,17.19,0,0,0,389,72.11a12.74,12.74,0,0,0-9.93,6.83,10.54,10.54,0,1,0-6.77,18.62h49.17a10,10,0,0,0,1.33-19.83Z" style="fill:#92E3A9;stroke:#263238;stroke-linecap:round;stroke-linejoin:round;stroke-width:0.75px"></path></clippath><clippath id="clip-path-2"><path d="M461.37,157.79a16.65,16.65,0,0,0-28.84-8.54,14.22,14.22,0,0,0-17.88,9.51,8.59,8.59,0,0,0-1-.07,9.17,9.17,0,1,0,0,18.33H460.2a9.65,9.65,0,0,0,1.17-19.23Z" style="fill:#92E3A9;stroke:#263238;stroke-linecap:round;stroke-linejoin:round;stroke-width:0.75px"></path></clippath><clippath id="clip-path-3"><path d="M94.45,126.22a18.61,18.61,0,0,0-31.68-10.14,10.78,10.78,0,0,0-19.53,6.31,12.31,12.31,0,0,0,.11,1.5A12.31,12.31,0,1,0,39,147.71H93.15a10.78,10.78,0,0,0,1.3-21.49Z" style="fill:#92E3A9;stroke:#263238;stroke-linecap:round;stroke-linejoin:round;stroke-width:0.75px"></path></clippath><clippath id="clip-path-4"><path d="M467.1,210.5s-5.19,28.67-6.79,33c-1.36,3.69-13.32,25-17.09,30-.57.77-2.25-1.92-2.67-2.78-1-2-3.11-7.27-3.39-15.76,0,0,9.08-11.43,13-16,0,0-.42-3.47,9.12-30.82A8.28,8.28,0,0,0,467.1,210.5Z" style="fill:#92E3A9;stroke:#263238;stroke-linecap:round;stroke-linejoin:round"></path></clippath><clippath id="clip-path-5"><path d="M395.22,257.33c4.24-.5,15.49-1.42,26.74,1.25,0,0,8.69-2.81,12.15-2.91s3.34-2.75,5.13,1.9c0,0,3.89,12,4.63,20.79s-2.41,19.75-2,26.34c.48,7.83,3.39,14.57,3.74,28.05,0,0-10.37,7.58-50.25,3.13,0,0,3.33-19,5.48-29.33.92-4.42-6.3-28.71-7.31-47.23A1.91,1.91,0,0,1,395.22,257.33Z" style="fill:#92E3A9;stroke:#263238;stroke-linecap:round;stroke-linejoin:round"></path></clippath><clippath id="clip-path-6"><path d="M393.66,258.53l-2.3,3.79a54.09,54.09,0,0,0-5.71,12.9l-7.06,23.95-13.44,28.14a14.24,14.24,0,0,0,8,4.59S385.64,312.52,390,304s6.5-20.4,6.5-20.4S398.33,270.3,393.66,258.53Z" style="fill:#92E3A9;stroke:#263238;stroke-linecap:round;stroke-linejoin:round"></path></clippath><clippath id="clip-path-7"><polygon points="409.78 246.4 411.33 259.97 420.04 261.39 427.76 260.65 422.18 246.4 409.78 246.4" style="fill:#999;stroke:#263238;stroke-linecap:round;stroke-linejoin:round"></polygon></clippath><clippath id="clip-path-8"><path d="M409.07,252.26a66.38,66.38,0,0,0,10.71.69,50.66,50.66,0,0,0,8.34-.69,4.64,4.64,0,0,1,1.46,4s5.35,5.74-6,5.21-14.91-1.64-13.86-4.6C409.74,256.9,407.61,253.92,409.07,252.26Z" style="fill:#92E3A9;stroke:#263238;stroke-linecap:round;stroke-linejoin:round"></path></clippath><clippath id="clip-path-9"><path d="M419.57,220.51s8.33-1.72,7,7.47,2.57,7.86,2.57,7.86-3.51,3.14-5.45-8.76c-.54-3.35-4-3.35-4-3.35Z" style="fill:#92E3A9;stroke:#263238;stroke-linecap:round;stroke-linejoin:round;stroke-width:0.75px"></path></clippath><clippath id="clip-path-10"><path d="M415.74,217.16s10,3.93,3.83,8.2-11.5,4-10.84,10.81C408.73,236.17,399,223,415.74,217.16Z" style="fill:#92E3A9;stroke:#263238;stroke-linecap:round;stroke-linejoin:round;stroke-width:0.75px"></path></clippath><clippath id="clip-path-11"><path d="M334.74,252.58s3.87-.93,4.56,7.31l12.28,34.82L365.51,322a24.5,24.5,0,0,1-8.69,4.35S345.44,312.55,337.76,299,331.23,254.92,334.74,252.58Z" style="fill:#92E3A9;stroke:#263238;stroke-linecap:round;stroke-linejoin:round"></path></clippath><clippath id="clip-path-12"><path d="M365.51,319.06s-3.78,3.26-11.4,5.56l2.48,3.05s7-1.48,10.28-5.47Z" style="fill:#92E3A9;stroke:#263238;stroke-linecap:round;stroke-linejoin:round"></path></clippath><clippath id="clip-path-13"><path d="M286.65,252.58s-3.87-.93-4.56,7.31l-12.28,34.82L255.88,322a24.5,24.5,0,0,0,8.69,4.35S276,312.55,283.63,299,290.16,254.92,286.65,252.58Z" style="fill:#92E3A9;stroke:#263238;stroke-linecap:round;stroke-linejoin:round"></path></clippath><clippath id="clip-path-14"><path d="M255.81,319.06s3.78,3.26,11.39,5.56l-2.47,3.05s-7-1.48-10.29-5.47Z" style="fill:#92E3A9;stroke:#263238;stroke-linecap:round;stroke-linejoin:round"></path></clippath><clippath id="clip-path-15"><path d="M285.69,383.73s-.94-10.27-1.86-14.87c-7.43-37,.25-47.91,3.81-60.34,1.14-4-1.05-15.31-1.05-15.31-6.23-13.55-1.43-19.5,0-25.11,1.15-4.48,0-15.52,0-15.52,30-7.26,48.15,0,48.15,0s-1.15,11,0,15.52c1.43,5.61,6.24,11.56,0,25.11,0,0-2.19,11.32-1.05,15.31,3.56,12.43,11.25,23.37,3.82,60.34-.93,4.6-1.87,14.87-1.87,14.87S316.72,385.71,285.69,383.73Z" style="fill:#92E3A9;stroke:#263238;stroke-linecap:round;stroke-linejoin:round"></path></clippath><clippath id="clip-path-16"><path d="M304,247.92l.48-7.93h11.18l.47,7.78a1.19,1.19,0,0,0,1.13,1.12c1.17.07,2.29.16,3.37.26a14,14,0,0,1-10.39,4.61,15.07,15.07,0,0,1-10.55-4.41c1.09-.12,2.15-.22,3.21-.31A1.18,1.18,0,0,0,304,247.92Z" style="fill:#fff;stroke:#263238;stroke-linecap:round;stroke-linejoin:round"></path></clippath><clippath id="clip-path-17"><path d="M321,249.75s-4.33,4.82-10.32,4.82-11.64-4.3-11.64-4.3l.63-2.21a2.63,2.63,0,0,1,3.12-1.85,15.42,15.42,0,0,1,5.84,3.27,2.57,2.57,0,0,0,3.64-.31,12,12,0,0,1,4.78-3.4,2.47,2.47,0,0,1,3.33,1.63Z" style="fill:#92E3A9;stroke:#263238;stroke-linecap:round;stroke-linejoin:round"></path></clippath><clippath id="clip-path-18"><path d="M226,245.25,241.4,290,255.81,320a14.11,14.11,0,0,1-8,4.57s-13.46-21.34-17.76-29.78-6.47-20.31-6.47-20.31S221.37,257,226,245.25Z" style="fill:#92E3A9;stroke:#263238;stroke-linecap:round;stroke-linejoin:round"></path></clippath><clippath id="clip-path-19"><path d="M171.94,245.25,156.56,290,142.16,320a14.06,14.06,0,0,0,8,4.57s13.47-21.34,17.76-29.78,6.47-20.31,6.47-20.31S176.59,257,171.94,245.25Z" style="fill:#92E3A9;stroke:#263238;stroke-linecap:round;stroke-linejoin:round"></path></clippath><clippath id="clip-path-20"><path d="M172.25,245.25l4.36,53.23-.8,23c21.33,3.58,46.65,0,46.65,0l-.8-23L226,245.25A105.88,105.88,0,0,0,172.25,245.25Z" style="fill:#92E3A9;stroke:#263238;stroke-linecap:round;stroke-linejoin:round"></path></clippath><clippath id="clip-path-21"><path d="M191.33,241l.53-8.64H204l.51,8.47a1.32,1.32,0,0,0,1.24,1.23c1.27.07,2.5.17,3.67.28a15.33,15.33,0,0,1-11.32,5,16.43,16.43,0,0,1-11.5-4.8c1.18-.14,2.35-.25,3.5-.34A1.3,1.3,0,0,0,191.33,241Z" style="fill:#fff;stroke:#263238;stroke-linecap:round;stroke-linejoin:round"></path></clippath><clippath id="clip-path-22"><path d="M76.72,238.22l.51-8.35H89l.49,8.18a1.28,1.28,0,0,0,1.2,1.19c1.23.07,2.41.17,3.55.27a14.8,14.8,0,0,1-10.94,4.85,15.9,15.9,0,0,1-11.11-4.63c1.14-.14,2.27-.24,3.38-.33A1.26,1.26,0,0,0,76.72,238.22Z" style="fill:#fff;stroke:#263238;stroke-linecap:round;stroke-linejoin:round"></path></clippath><clippath id="clip-path-23"><path d="M71.68,214.12c-.16,1.42,0,5.72,0,5.72,0,6.21,5,14.74,11.25,14.74s11.25-8.53,11.25-14.74a51.8,51.8,0,0,0,0-5.23,45.7,45.7,0,0,0-1.25-4.52,7.3,7.3,0,0,1-3.29-4.63c-.63-3.14-3.77,2.19-9.74,2s-5.49.86-7.29,2.51C72.61,210,71.79,213.08,71.68,214.12Z" style="fill:#fff;stroke:#263238;stroke-linecap:round;stroke-linejoin:round"></path></clippath><clippath id="clip-path-24"><path d="M112.91,68.58s9.85-7.5,27.66-7.5c18.45,0,27.66,7.5,27.66,7.5l.18-7.65-6.93-11.76s-7-5.67-20.91-5.67c-13.46,0-20.91,5.67-20.91,5.67l-6.51,10.55Z" style="fill:#92E3A9;stroke:#263238;stroke-linecap:round;stroke-linejoin:round"></path></clippath><clippath id="clip-path-25"><path d="M161.48,49.17s11.82,14.66-11.81,44.1c-25.79,32.14-45.51,52.84-61.46,54.26l16.1,20.92s22.9-4.26,57.65-57.6C186.68,72.91,161.48,49.17,161.48,49.17Z" style="fill:#92E3A9;stroke:#263238;stroke-linecap:round;stroke-linejoin:round"></path></clippath></defs><g id="background-simple"><path d="M451.88,430.68c14.22-31.73,44.7-112.75,7.94-156.34-43.69-51.81-81.52-8.72-114.16-14.56S299,162.84,235.77,162.84,178.5,228.41,159,246.49s-83.2-43.28-117,18.16c-27,49.14,11.58,134,28.13,166Z" style="fill:#92E3A9"></path><path d="M451.88,430.68c14.22-31.73,44.7-112.75,7.94-156.34-43.69-51.81-81.52-8.72-114.16-14.56S299,162.84,235.77,162.84,178.5,228.41,159,246.49s-83.2-43.28-117,18.16c-27,49.14,11.58,134,28.13,166Z" style="fill:#fff;opacity:0.7000000000000001"></path></g><g id="Clouds"><path d="M422.84,77.73a14.72,14.72,0,0,0,.07-1.49A17.19,17.19,0,0,0,389,72.11a12.74,12.74,0,0,0-9.93,6.83,10.54,10.54,0,1,0-6.77,18.62h49.17a10,10,0,0,0,1.33-19.83Z" style="fill:#92E3A9"></path><g style="clip-path:url(#clip-path)"><path d="M422.84,77.73a14.72,14.72,0,0,0,.07-1.49A17.19,17.19,0,0,0,389,72.11a12.74,12.74,0,0,0-9.93,6.83,10.54,10.54,0,1,0-6.77,18.62h49.17a10,10,0,0,0,1.33-19.83Z" style="fill:#fff;opacity:0.9"></path></g><path d="M422.84,77.73a14.72,14.72,0,0,0,.07-1.49A17.19,17.19,0,0,0,389,72.11a12.74,12.74,0,0,0-9.93,6.83,10.54,10.54,0,1,0-6.77,18.62h49.17a10,10,0,0,0,1.33-19.83Z" style="fill:none;stroke:#263238;stroke-linecap:round;stroke-linejoin:round;stroke-width:0.75px"></path><path d="M461.37,157.79a16.65,16.65,0,0,0-28.84-8.54,14.22,14.22,0,0,0-17.88,9.51,8.59,8.59,0,0,0-1-.07,9.17,9.17,0,1,0,0,18.33H460.2a9.65,9.65,0,0,0,1.17-19.23Z" style="fill:#92E3A9"></path><g style="clip-path:url(#clip-path-2)"><path d="M461.37,157.79a16.65,16.65,0,0,0-28.84-8.54,14.22,14.22,0,0,0-17.88,9.51,8.59,8.59,0,0,0-1-.07,9.17,9.17,0,1,0,0,18.33H460.2a9.65,9.65,0,0,0,1.17-19.23Z" style="fill:#fff;opacity:0.9"></path></g><path d="M461.37,157.79a16.65,16.65,0,0,0-28.84-8.54,14.22,14.22,0,0,0-17.88,9.51,8.59,8.59,0,0,0-1-.07,9.17,9.17,0,1,0,0,18.33H460.2a9.65,9.65,0,0,0,1.17-19.23Z" style="fill:none;stroke:#263238;stroke-linecap:round;stroke-linejoin:round;stroke-width:0.75px"></path><path d="M94.45,126.22a18.61,18.61,0,0,0-31.68-10.14,10.78,10.78,0,0,0-19.53,6.31,12.31,12.31,0,0,0,.11,1.5A12.31,12.31,0,1,0,39,147.71H93.15a10.78,10.78,0,0,0,1.3-21.49Z" style="fill:#92E3A9"></path><g style="clip-path:url(#clip-path-3)"><path d="M94.45,126.22a18.61,18.61,0,0,0-31.68-10.14,10.78,10.78,0,0,0-19.53,6.31,12.31,12.31,0,0,0,.11,1.5A12.31,12.31,0,1,0,39,147.71H93.15a10.78,10.78,0,0,0,1.3-21.49Z" style="fill:#fff;opacity:0.8"></path></g><path d="M94.45,126.22a18.61,18.61,0,0,0-31.68-10.14,10.78,10.78,0,0,0-19.53,6.31,12.31,12.31,0,0,0,.11,1.5A12.31,12.31,0,1,0,39,147.71H93.15a10.78,10.78,0,0,0,1.3-21.49Z" style="fill:none;stroke:#263238;stroke-linecap:round;stroke-linejoin:round;stroke-width:0.75px"></path></g><g id="City"><rect x="340.73" y="366.43" width="39.42" height="64.25" style="fill:#999;stroke:#263238;stroke-linecap:round;stroke-linejoin:round;stroke-width:0.75px"></rect><rect x="150.02" y="347.44" width="30.99" height="83.24" style="fill:#bfbfbf;stroke:#263238;stroke-linecap:round;stroke-linejoin:round;stroke-width:0.75px"></rect><rect x="26.69" y="309.82" width="45" height="120.86" style="fill:#bfbfbf;stroke:#263238;stroke-linecap:round;stroke-linejoin:round;stroke-width:0.75px"></rect><rect x="46.07" y="316.27" width="6.24" height="6.24" style="fill:#fff"></rect><rect x="32.65" y="327.63" width="6.24" height="6.24" style="fill:#fff"></rect><rect x="46.07" y="338.98" width="6.24" height="6.24" style="fill:#fff"></rect><rect x="59.5" y="338.98" width="6.24" height="6.24" style="fill:#fff"></rect><rect x="32.65" y="350.34" width="6.24" height="6.24" style="fill:#fff"></rect><rect x="59.5" y="350.34" width="6.24" height="6.24" style="fill:#fff"></rect><rect x="46.07" y="361.7" width="6.24" height="6.24" style="fill:#fff"></rect><rect x="46.07" y="384.41" width="6.24" height="6.24" style="fill:#fff"></rect><rect x="59.5" y="384.41" width="6.24" height="6.24" style="fill:#fff"></rect><rect x="32.65" y="395.76" width="6.24" height="6.24" style="fill:#fff"></rect><rect x="59.5" y="395.76" width="6.24" height="6.24" style="fill:#fff"></rect><polygon points="155.1 430.68 112.79 430.68 112.79 379.28 155.1 363.27 155.1 430.68" style="fill:#999;stroke:#263238;stroke-linecap:round;stroke-linejoin:round;stroke-width:0.75px"></polygon><rect x="130.82" y="378.73" width="6.24" height="6.24" style="fill:#fff"></rect><rect x="144.25" y="378.73" width="6.24" height="6.24" style="fill:#fff"></rect><rect x="117.4" y="390.09" width="6.24" height="6.24" style="fill:#fff"></rect><rect x="130.82" y="401.44" width="6.24" height="6.24" style="fill:#fff"></rect><rect x="144.25" y="401.44" width="6.24" height="6.24" style="fill:#fff"></rect><rect x="117.4" y="412.8" width="6.24" height="6.24" style="fill:#fff"></rect><polygon points="267.2 309.82 267.2 289.15 262.25 289.15 262.25 266.07 258.09 266.07 258.09 255.65 249.72 243.29 241.35 255.65 241.35 266.07 237.19 266.07 237.19 289.15 232.23 289.15 232.23 309.82 227.22 309.82 227.22 430.68 272.22 430.68 272.22 309.82 267.2 309.82" style="fill:#bfbfbf;stroke:#263238;stroke-linecap:round;stroke-linejoin:round;stroke-width:0.75px"></polygon><rect x="246.6" y="316.27" width="6.24" height="6.24" style="fill:#fff"></rect><rect x="260.03" y="316.27" width="6.24" height="6.24" style="fill:#fff"></rect><rect x="233.17" y="338.98" width="6.24" height="6.24" style="fill:#fff"></rect><rect x="260.03" y="338.98" width="6.24" height="6.24" style="fill:#fff"></rect><rect x="246.6" y="350.34" width="6.24" height="6.24" style="fill:#fff"></rect><rect x="233.17" y="361.7" width="6.24" height="6.24" style="fill:#fff"></rect><rect x="246.6" y="361.7" width="6.24" height="6.24" style="fill:#fff"></rect><rect x="260.03" y="373.05" width="6.24" height="6.24" style="fill:#fff"></rect><rect x="233.17" y="384.41" width="6.24" height="6.24" style="fill:#fff"></rect><rect x="246.6" y="395.76" width="6.24" height="6.24" style="fill:#fff"></rect><rect x="260.03" y="395.76" width="6.24" height="6.24" style="fill:#fff"></rect><rect x="370.2" y="347.44" width="39.42" height="83.24" style="fill:#bfbfbf;stroke:#263238;stroke-linecap:round;stroke-linejoin:round;stroke-width:0.75px"></rect><rect x="400.21" y="352.9" width="6.24" height="6.24" style="fill:#fff"></rect><rect x="386.79" y="364.25" width="6.24" height="6.24" style="fill:#fff"></rect><rect x="400.21" y="375.61" width="6.24" height="6.24" style="fill:#fff"></rect><rect x="386.79" y="386.97" width="6.24" height="6.24" style="fill:#fff"></rect><rect x="400.21" y="386.97" width="6.24" height="6.24" style="fill:#fff"></rect><rect x="373.36" y="398.32" width="6.24" height="6.24" style="fill:#fff"></rect><rect x="400.21" y="409.68" width="6.24" height="6.24" style="fill:#fff"></rect><polygon points="467.73 430.68 434.28 430.68 434.28 330.42 467.73 314.41 467.73 430.68" style="fill:#999;stroke:#263238;stroke-linecap:round;stroke-linejoin:round;stroke-width:0.75px"></polygon><rect x="440.1" y="336.43" width="6.24" height="6.24" style="fill:#fff"></rect><rect x="453.53" y="347.78" width="6.24" height="6.24" style="fill:#fff"></rect><rect x="440.1" y="359.14" width="6.24" height="6.24" style="fill:#fff"></rect><rect x="453.53" y="370.49" width="6.24" height="6.24" style="fill:#fff"></rect><rect x="453.53" y="381.85" width="6.24" height="6.24" style="fill:#fff"></rect><rect x="440.1" y="393.21" width="6.24" height="6.24" style="fill:#fff"></rect><rect x="453.53" y="415.92" width="6.24" height="6.24" style="fill:#fff"></rect></g><g id="Floor"><line x1="19.55" y1="430.68" x2="474.97" y2="430.68" style="fill:none;stroke:#263238;stroke-linecap:round;stroke-linejoin:round"></line></g><g id="character-4"><ellipse cx="425.56" cy="461.83" rx="49.75" ry="5.67" style="fill:#92E3A9"></ellipse><path d="M425.32,236.08s7.64-11.26-1.59-16.93c0,0-7.69-13.91-20.18-4.89S402,235.64,397,238.6c0,0,3.4,8.87,12.09,6.74l1.77-12.7,13.43,1.58Z" style="fill:#263238;stroke:#263238;stroke-linecap:round;stroke-linejoin:round"></path><path d="M358.9,339.38c.53.8,2.05.53,2.05.53-.37,1.92,2.66.87,2.66.87-.08,2.08,2.77-.13,2.77-.13s.84,1.17,1.89-.27c1.38-1.9,2.87-7.71,2.87-7.71l4.67-8-5.48-3.79-4.19,7.88-4,1.58a10.81,10.81,0,0,0-4,3c-1.23,1.81-3.09,2.45-2.06,3.35s3.22-.7,3.8-1.54C359.9,335.19,358.37,338.58,358.9,339.38Z" style="fill:#999;stroke:#263238;stroke-linecap:round;stroke-linejoin:round"></path><path d="M361.64,334.87a5.34,5.34,0,0,0,4.81-1.23" style="fill:none;stroke:#263238;stroke-linecap:round;stroke-linejoin:round;stroke-width:0.75px"></path><path d="M360.35,337.76s2.51-.9,1.29,1.16c0,0,3.46-1.41,2.4.84,0,0,2.48-2.18,2.41-.64,0,0,.34-1.61,1.05-1.87s.77,1.26.77,1.26" style="fill:none;stroke:#263238;stroke-linecap:round;stroke-linejoin:round;stroke-width:0.75px"></path><path d="M462.13,195.17c.95-.25,1.93,1,1.93,1,1-1.72,2.63,1.13,2.63,1.13,1.35-1.65,2,2,2,2s1.44-.33,1.27,1.49c-.23,2.39-3,7.86-3,7.86l-1.81,9.27-6.77-.8,2.12-8.89s-.88-1.71-2-3.9a11.14,11.14,0,0,1-1-5C457.78,197.06,461.18,195.43,462.13,195.17Z" style="fill:#999;stroke:#263238;stroke-linecap:round;stroke-linejoin:round"></path><path d="M462.15,197.39s2,4.25,1.77,0c0,0,1.48,5.25,2.42,1,0,0-.58,4.9,1.41,2.12,0,0-.83,1.47-.46,2.15s1.44-.45,1.44-.45" style="fill:none;stroke:#263238;stroke-linecap:round;stroke-linejoin:round;stroke-width:0.75px"></path><path d="M459.24,198.49a1.28,1.28,0,0,1,2.22-.69c1.74,1.28,4.32,1.7,4,2.49s-1,1.28-3.46.28c0,0-.44.26.19,1a6.38,6.38,0,0,1,1.65,3.16" style="fill:#999;stroke:#263238;stroke-linecap:round;stroke-linejoin:round;stroke-width:0.75px"></path><path d="M443.38,324.93c5.22,50.24,5.41,50.2,6.67,66.88.74,9.79,1.81,55.58,1.81,55.58s-3.27,2.05-11.19,0c0,0-6.33-31.1-6.38-53.27,0,0-5.55-19.69-8.77-34.69a13.87,13.87,0,0,0-3.18-6.24c-3.2-3.6-8.57-8.38-9.5-20.45Z" style="fill:#263238;stroke:#263238;stroke-linecap:round;stroke-linejoin:round"></path><path d="M441.06,444s1.51,6.29.86,8.27-2.28,2.51-2.92,7.62a2.45,2.45,0,0,0,2.44,2.73h20c4.58,0,7.07-1.08,6.54-3.43s-13.5-4.24-16.5-7.68l-1-8.51Z" style="fill:#263238;stroke:#263238;stroke-linecap:round;stroke-linejoin:round"></path><path d="M441.61,394.14s3.11,3.86,5.93,3.48" style="fill:none;stroke:#7f7f7f;stroke-linecap:round;stroke-linejoin:round;stroke-width:0.75px"></path><path d="M442.9,447.86a17.22,17.22,0,0,0,6.83,0" style="fill:none;stroke:#7f7f7f;stroke-linecap:round;stroke-linejoin:round;stroke-width:0.75px"></path><path d="M397.54,325.72c-2.15,50.46-.28,50.43-.52,67.16-.14,9.82-.48,55.59-.48,55.59s3.39,1.84,11.17-.68c0,0,6.48-31.44,5.18-53.57,0,0,1.9-20,4.2-35.15a13.71,13.71,0,0,1,2.8-6.41c3-3.79,8-8.89,8.23-21Z" style="fill:#263238;stroke:#263238;stroke-linecap:round;stroke-linejoin:round"></path><path d="M421.71,349.57a43.75,43.75,0,0,0,5-7" style="fill:none;stroke:#7f7f7f;stroke-linecap:round;stroke-linejoin:round;stroke-width:0.75px"></path><path d="M407,444s-.85,6.29,0,8.27a27.34,27.34,0,0,1,2.69,7.62,2.17,2.17,0,0,1-2.15,2.73H390.69c-4.57,0-7.18-1.08-6.9-3.43s11-4.24,13.64-7.68l.1-8.51Z" style="fill:#263238;stroke:#263238;stroke-linecap:round;stroke-linejoin:round"></path><path d="M405.59,394.69s-2.87,4-5.71,3.84" style="fill:none;stroke:#7f7f7f;stroke-linecap:round;stroke-linejoin:round;stroke-width:0.75px"></path><path d="M405.52,448.39a17.34,17.34,0,0,1-6.82.42" style="fill:none;stroke:#7f7f7f;stroke-linecap:round;stroke-linejoin:round;stroke-width:0.75px"></path><path d="M467.1,210.5s-5.19,28.67-6.79,33c-1.36,3.69-13.32,25-17.09,30-.57.77-2.25-1.92-2.67-2.78-1-2-3.11-7.27-3.39-15.76,0,0,9.08-11.43,13-16,0,0-.42-3.47,9.12-30.82A8.28,8.28,0,0,0,467.1,210.5Z" style="fill:#92E3A9"></path><g style="clip-path:url(#clip-path-4)"><path d="M435.07,250.39s4.5,16.39,13.16,7.85,12.08-14.71,12.08-14.71l5.13,1.81-6.2,9.45L445.61,274.7l-7.18,1.88-6.08-7.84V252.66Z" style="opacity:0.2"></path></g><path d="M467.1,210.5s-5.19,28.67-6.79,33c-1.36,3.69-13.32,25-17.09,30-.57.77-2.25-1.92-2.67-2.78-1-2-3.11-7.27-3.39-15.76,0,0,9.08-11.43,13-16,0,0-.42-3.47,9.12-30.82A8.28,8.28,0,0,0,467.1,210.5Z" style="fill:none;stroke:#263238;stroke-linecap:round;stroke-linejoin:round"></path><path d="M412.15,256.9s15.21,3,15.72,0" style="fill:none;stroke:#263238;stroke-linecap:round;stroke-linejoin:round;stroke-width:0.75px"></path><path d="M395.22,257.33c4.24-.5,15.49-1.42,26.74,1.25,0,0,8.69-2.81,12.15-2.91s3.34-2.75,5.13,1.9c0,0,3.89,12,4.63,20.79s-2.41,19.75-2,26.34c.48,7.83,3.39,14.57,3.74,28.05,0,0-10.37,7.58-50.25,3.13,0,0,3.33-19,5.48-29.33.92-4.42-6.3-28.71-7.31-47.23A1.91,1.91,0,0,1,395.22,257.33Z" style="fill:#92E3A9"></path><g style="clip-path:url(#clip-path-5)"><path d="M392.48,260.09s1.58,6.31,7.11,16.1c2.84,5.05,2.39,20.24,12.72,23.87,13.88,4.88,29.66-.35,30.21-4.29s2.17,15.75.64,18.58-30.39-5.39-39.64,5.7-10,21.74-10,21.74L386.93,321,389.87,299l3.34-21.22Z" style="opacity:0.1"></path></g><path d="M395.22,257.33c4.24-.5,15.49-1.42,26.74,1.25,0,0,8.69-2.81,12.15-2.91s3.34-2.75,5.13,1.9c0,0,3.89,12,4.63,20.79s-2.41,19.75-2,26.34c.48,7.83,3.39,14.57,3.74,28.05,0,0-10.37,7.58-50.25,3.13,0,0,3.33-19,5.48-29.33.92-4.42-6.3-28.71-7.31-47.23A1.91,1.91,0,0,1,395.22,257.33Z" style="fill:none;stroke:#263238;stroke-linecap:round;stroke-linejoin:round"></path><path d="M393.66,258.53l-2.3,3.79a54.09,54.09,0,0,0-5.71,12.9l-7.06,23.95-13.44,28.14a14.24,14.24,0,0,0,8,4.59S385.64,312.52,390,304s6.5-20.4,6.5-20.4S398.33,270.3,393.66,258.53Z" style="fill:#92E3A9"></path><g style="clip-path:url(#clip-path-6)"><path d="M396.13,262.1s2.85,24.31-17.58,61.27l11.54-2.45L404.92,299l1.72-18.72-5.95-16.66v-2.43Z" style="opacity:0.2"></path></g><path d="M393.66,258.53l-2.3,3.79a54.09,54.09,0,0,0-5.71,12.9l-7.06,23.95-13.44,28.14a14.24,14.24,0,0,0,8,4.59S385.64,312.52,390,304s6.5-20.4,6.5-20.4S398.33,270.3,393.66,258.53Z" style="fill:none;stroke:#263238;stroke-linecap:round;stroke-linejoin:round"></path><path d="M379.53,301.49s1.59,2.75,4.47,2.24" style="fill:none;stroke:#263238;stroke-linecap:round;stroke-linejoin:round;stroke-width:0.75px"></path><path d="M438.43,274.23c.42-.52.75-1,1-1.37a35.62,35.62,0,0,0,2.53,2.62l-1.24.12,0,.94C440.22,276.1,439.36,275.26,438.43,274.23Z" style="fill:#263238;stroke:#263238;stroke-linecap:round;stroke-linejoin:round;stroke-width:0.5px"></path><path d="M437.91,271a4.52,4.52,0,0,0,.7-3.4.72.72,0,0,0-.57-.49,1.84,1.84,0,0,0-.77,0c-.75.14-.83.42-.86.52-.16.58.3,1.59,1.07,2.74a8.4,8.4,0,0,1-.94,1.55c-1.2-1.68-2.08-3.45-1.71-4.75a2.45,2.45,0,0,1,2.12-1.68,2.63,2.63,0,0,1,3.19,1.47c.54,1.35.14,3.37-1.13,5.41l-1,1.39a15.13,15.13,0,0,1-3.13,2.83l.06-1-1.11-.24a13.57,13.57,0,0,0,3.11-2.87S437.9,271,437.91,271Z" style="fill:#263238;stroke:#263238;stroke-linecap:round;stroke-linejoin:round;stroke-width:0.5px"></path><polygon points="409.78 246.4 411.33 259.97 420.04 261.39 427.76 260.65 422.18 246.4 409.78 246.4" style="fill:#999"></polygon><g style="clip-path:url(#clip-path-7)"><path d="M407.66,245.35c.68,1.26,2.27,3.8,4.69,4.89,3.3,1.48,13.24,4.07,15.19.45a11.79,11.79,0,0,0,1-5.34Z" style="fill:#263238;stroke:#263238;stroke-linecap:round;stroke-linejoin:round"></path></g><polygon points="409.78 246.4 411.33 259.97 420.04 261.39 427.76 260.65 422.18 246.4 409.78 246.4" style="fill:none;stroke:#263238;stroke-linecap:round;stroke-linejoin:round"></polygon><path d="M404.9,236.59s-1.89-2.75-3.8.16,3.34,9,5,6.46c0,0,2,4.06,5.32,5.38s13.42,3.43,15.19-.28-.07-11.8-1-14.27-1.84-8.38-3.26-9.53-1.05.49-4.16.91-9.45-.52-10.93.5.15,4.56-.29,6.5S405.92,237.51,404.9,236.59Z" style="fill:#999;stroke:#263238;stroke-linecap:round;stroke-linejoin:round"></path><path d="M420.41,232.86,423,235a2,2,0,0,1,.33,2.71,3.56,3.56,0,0,0-.84,1.61" style="fill:none;stroke:#263238;stroke-linecap:round;stroke-linejoin:round;stroke-width:0.75px"></path><path d="M416.7,232.66c.14.67,0,1.28-.4,1.35s-.76-.41-.9-1.08,0-1.28.4-1.35S416.56,232,416.7,232.66Z" style="fill:#263238"></path><path d="M423.4,231.27c.13.67,0,1.28-.4,1.35s-.76-.41-.9-1.08,0-1.28.4-1.35S423.26,230.6,423.4,231.27Z" style="fill:#263238"></path><path d="M412.31,231.16s1.81-2.94,4.65-1.68" style="fill:none;stroke:#263238;stroke-linecap:round;stroke-linejoin:round;stroke-width:0.75px"></path><path d="M420.41,229s1.21-2.51,2.78-.55" style="fill:none;stroke:#263238;stroke-linecap:round;stroke-linejoin:round;stroke-width:0.75px"></path><path d="M423.63,242.74s-2.88,2.16-4.17.54" style="fill:none;stroke:#263238;stroke-linecap:round;stroke-linejoin:round;stroke-width:0.75px"></path><path d="M409.07,252.26a66.38,66.38,0,0,0,10.71.69,50.66,50.66,0,0,0,8.34-.69,4.64,4.64,0,0,1,1.46,4s5.35,5.74-6,5.21-14.91-1.64-13.86-4.6C409.74,256.9,407.61,253.92,409.07,252.26Z" style="fill:#92E3A9"></path><g style="clip-path:url(#clip-path-8)"><path d="M409.07,252.26a66.38,66.38,0,0,0,10.71.69,50.66,50.66,0,0,0,8.34-.69,4.64,4.64,0,0,1,1.46,4s5.35,5.74-6,5.21-14.91-1.64-13.86-4.6C409.74,256.9,407.61,253.92,409.07,252.26Z" style="opacity:0.30000000000000004"></path></g><path d="M409.07,252.26a66.38,66.38,0,0,0,10.71.69,50.66,50.66,0,0,0,8.34-.69,4.64,4.64,0,0,1,1.46,4s5.35,5.74-6,5.21-14.91-1.64-13.86-4.6C409.74,256.9,407.61,253.92,409.07,252.26Z" style="fill:none;stroke:#263238;stroke-linecap:round;stroke-linejoin:round"></path><path d="M424.14,243.31s1.69,2.59-3,2" style="fill:none;stroke:#263238;stroke-linecap:round;stroke-linejoin:round;stroke-width:0.5px"></path><path d="M423.56,242s.37-1.13-1.08-.78-1.23,2-2.15,1.56" style="fill:none;stroke:#263238;stroke-linecap:round;stroke-linejoin:round;stroke-width:0.5px"></path><path d="M421.56,252.89c.89,0,1.67-.08,2.37-.13a11.69,11.69,0,0,1,1.6,8.77c-.58,0-1.22,0-1.93,0h-.35A11,11,0,0,0,421.56,252.89Z" style="fill:#92E3A9;stroke:#263238;stroke-linecap:round;stroke-linejoin:round"></path><path d="M430.89,306.29c-4.23,1.08-11.6,2-21.8-.34" style="fill:none;stroke:#263238;stroke-linecap:round;stroke-linejoin:round;stroke-width:0.75px"></path><path d="M435.07,304.8a13.92,13.92,0,0,1-1.69.72" style="fill:none;stroke:#263238;stroke-linecap:round;stroke-linejoin:round;stroke-width:0.75px"></path><path d="M419.57,220.51s8.33-1.72,7,7.47,2.57,7.86,2.57,7.86-3.51,3.14-5.45-8.76c-.54-3.35-4-3.35-4-3.35Z" style="fill:#92E3A9"></path><g style="clip-path:url(#clip-path-9)"><path d="M419.57,220.51s8.33-1.72,7,7.47,2.57,7.86,2.57,7.86-3.51,3.14-5.45-8.76c-.54-3.35-4-3.35-4-3.35Z" style="fill:#fff;opacity:0.6000000000000001"></path></g><path d="M419.57,220.51s8.33-1.72,7,7.47,2.57,7.86,2.57,7.86-3.51,3.14-5.45-8.76c-.54-3.35-4-3.35-4-3.35Z" style="fill:none;stroke:#263238;stroke-linecap:round;stroke-linejoin:round;stroke-width:0.75px"></path><path d="M415.74,217.16s10,3.93,3.83,8.2-11.5,4-10.84,10.81C408.73,236.17,399,223,415.74,217.16Z" style="fill:#92E3A9"></path><g style="clip-path:url(#clip-path-10)"><path d="M415.74,217.16s10,3.93,3.83,8.2-11.5,4-10.84,10.81C408.73,236.17,399,223,415.74,217.16Z" style="fill:#fff;opacity:0.6000000000000001"></path></g><path d="M415.74,217.16s10,3.93,3.83,8.2-11.5,4-10.84,10.81C408.73,236.17,399,223,415.74,217.16Z" style="fill:none;stroke:#263238;stroke-linecap:round;stroke-linejoin:round;stroke-width:0.75px"></path><path d="M450.67,239.13a8.26,8.26,0,0,1,5.55-1.35" style="fill:none;stroke:#263238;stroke-linecap:round;stroke-linejoin:round;stroke-width:0.75px"></path><path d="M419.05,289.31a27.33,27.33,0,0,1,17.76-.88" style="fill:none;stroke:#263238;stroke-linecap:round;stroke-linejoin:round;stroke-width:0.75px"></path></g><g id="character-3"><ellipse cx="309.32" cy="461.83" rx="45.94" ry="5.67" style="fill:#92E3A9"></ellipse><path d="M315.89,396.7l-4.18-38.41h22.76l-1.75,36.54-5.14,54.77c.23.72,1.78,4.67,9.18,6.56,1.12.29,2.1.63,2.32,3.7a.53.53,0,0,1-.53.56H314.79a20.31,20.31,0,0,1,.31-5.92,38.75,38.75,0,0,0,1-4.71C316.5,444.49,313.75,420.13,315.89,396.7Z" style="fill:#fff;stroke:#263238;stroke-linecap:round;stroke-linejoin:round"></path><path d="M319,453.26c2.35-.15,4.05,1,3.72-1.64s4.86-2,4.86-2c.23.72,1.78,4.67,9.18,6.56,1.12.29,2.1.63,2.32,3.7a.53.53,0,0,1-.53.56H314.79a20.31,20.31,0,0,1,.31-5.92,38.75,38.75,0,0,0,1-4.71C318.45,449.28,316.66,453.4,319,453.26Z" style="fill:#263238;stroke:#263238;stroke-linecap:round;stroke-linejoin:round"></path><path d="M330.65,397.83s-2.93.85-4.86-.86" style="fill:none;stroke:#263238;stroke-linecap:round;stroke-linejoin:round"></path><path d="M305.94,395.08l3.38-36.79H286.56l2.55,34.92,4.34,56.39c-.22.72-1.77,4.67-9.18,6.56-1.11.29-2.09.63-2.31,3.7a.53.53,0,0,0,.53.56h23.75a20,20,0,0,0-.3-5.92,38.75,38.75,0,0,1-1-4.71C304.54,444.49,308.08,418.51,305.94,395.08Z" style="fill:#fff;stroke:#263238;stroke-linecap:round;stroke-linejoin:round"></path><path d="M302,453.26c-2.35-.15-4.06,1-3.72-1.64s-4.87-2-4.87-2c-.22.72-1.77,4.67-9.18,6.56-1.11.29-2.09.63-2.31,3.7a.53.53,0,0,0,.53.56h23.75a20,20,0,0,0-.3-5.92,38.75,38.75,0,0,1-1-4.71C302.59,449.28,304.38,453.4,302,453.26Z" style="fill:#263238;stroke:#263238;stroke-linecap:round;stroke-linejoin:round"></path><path d="M291.62,396.93s3.15.91,5.06-1.05" style="fill:none;stroke:#263238;stroke-linecap:round;stroke-linejoin:round"></path><path d="M316.65,211.45s10.14,2.18,7.94,11.87c0,0,4.82,2.61,1.88,9.67,0,0,6.12,4.59,1.65,9.77,0,0,4.59,6.68-.59,7.92s-11.37,0-19.44,0-15.16,1.82-17.64,0,2.36-7.57,2.36-7.57-4.95-4.76-1.3-9.32a7.27,7.27,0,0,1,2.13-9.37S292.35,203.92,316.65,211.45Z" style="fill:#263238;stroke:#263238;stroke-linecap:round;stroke-linejoin:round"></path><path d="M361.08,316.74,366,325s4.58,4.28,5.61,6.49c.79,1.67-.73,1.83-.73,1.83s.56,3.69-1.33,2.56c0,0-.6,3.26-2.18,1.95,0,0-.53,1.5-1.54,1.57s-1-1.81-1.9-1.51-.8,1.4-2.4-.1a6.59,6.59,0,0,1-2.32-5.88,9.73,9.73,0,0,0-.37-4.37l-5.09-7.76Z" style="fill:#fff;stroke:#263238;stroke-linecap:round;stroke-linejoin:round"></path><path d="M365.64,336.85s.85,1.12,2.18-1c.58-.95,2.22-.61,2.44-3.73" style="fill:none;stroke:#263238;stroke-linecap:round;stroke-linejoin:round;stroke-width:0.75px"></path><path d="M363.66,336.86a4.89,4.89,0,0,0-2-2.53" style="fill:none;stroke:#263238;stroke-linecap:round;stroke-linejoin:round;stroke-width:0.75px"></path><path d="M334.74,252.58s3.87-.93,4.56,7.31l12.28,34.82L365.51,322a24.5,24.5,0,0,1-8.69,4.35S345.44,312.55,337.76,299,331.23,254.92,334.74,252.58Z" style="fill:#92E3A9"></path><g style="clip-path:url(#clip-path-11)"><path d="M340.63,256s-4.58-1.94-4.08,3.06,5.12,24.76-1.16,36.63-7.95-27.77-7.95-27.77L332,247l7.67-2.35,5.45,6.85Z" style="opacity:0.2"></path></g><path d="M334.74,252.58s3.87-.93,4.56,7.31l12.28,34.82L365.51,322a24.5,24.5,0,0,1-8.69,4.35S345.44,312.55,337.76,299,331.23,254.92,334.74,252.58Z" style="fill:none;stroke:#263238;stroke-linecap:round;stroke-linejoin:round"></path><path d="M349.11,298.86s-2.3.91-4.6-1.61" style="fill:none;stroke:#263238;stroke-linecap:round;stroke-linejoin:round;stroke-width:0.75px"></path><path d="M348.88,296.88a3.05,3.05,0,0,0,.41-2.46" style="fill:none;stroke:#263238;stroke-linecap:round;stroke-linejoin:round;stroke-width:0.75px"></path><path d="M365.51,319.06s-3.78,3.26-11.4,5.56l2.48,3.05s7-1.48,10.28-5.47Z" style="fill:#92E3A9"></path><g style="clip-path:url(#clip-path-12)"><path d="M365.51,319.06s-3.78,3.26-11.4,5.56l2.48,3.05s7-1.48,10.28-5.47Z" style="fill:#fff;opacity:0.5"></path></g><path d="M365.51,319.06s-3.78,3.26-11.4,5.56l2.48,3.05s7-1.48,10.28-5.47Z" style="fill:none;stroke:#263238;stroke-linecap:round;stroke-linejoin:round"></path><path d="M248.73,336c.56.82,2.16.54,2.16.54-.39,2,2.81.9,2.81.9-.08,2.15,2.94-.13,2.94-.13s.89,1.21,2-.28c1.46-2,3-8,3-8l4.94-8.21L259.82,317l-4.43,8.13a12.51,12.51,0,0,1-3.22,1.62,11.51,11.51,0,0,0-4.23,3.11c-1.3,1.86-3.27,2.52-2.18,3.45s3.4-.73,4-1.59C249.78,331.69,248.16,335.19,248.73,336Z" style="fill:#fff;stroke:#263238;stroke-linecap:round;stroke-linejoin:round"></path><path d="M251.62,331.36a5.74,5.74,0,0,0,5.09-1.27" style="fill:none;stroke:#263238;stroke-linecap:round;stroke-linejoin:round;stroke-width:0.75px"></path><path d="M250.25,334.35s2.66-.93,1.37,1.19c0,0,3.66-1.46,2.54.87,0,0,2.63-2.25,2.55-.67,0,0,.36-1.66,1.11-1.92s.81,1.29.81,1.29" style="fill:none;stroke:#263238;stroke-linecap:round;stroke-linejoin:round;stroke-width:0.75px"></path><path d="M286.65,252.58s-3.87-.93-4.56,7.31l-12.28,34.82L255.88,322a24.5,24.5,0,0,0,8.69,4.35S276,312.55,283.63,299,290.16,254.92,286.65,252.58Z" style="fill:#92E3A9"></path><g style="clip-path:url(#clip-path-13)"><path d="M282.87,252.55s3.79,1.79,2.31,10.82-6.47,17.14,1.39,31.05S292,258.86,292,258.86l-2.65-11.28-7.12,2.55Z" style="opacity:0.2"></path></g><path d="M286.65,252.58s-3.87-.93-4.56,7.31l-12.28,34.82L255.88,322a24.5,24.5,0,0,0,8.69,4.35S276,312.55,283.63,299,290.16,254.92,286.65,252.58Z" style="fill:none;stroke:#263238;stroke-linecap:round;stroke-linejoin:round"></path><path d="M271.93,296.88a6.55,6.55,0,0,0,4.6-.64" style="fill:none;stroke:#263238;stroke-linecap:round;stroke-linejoin:round;stroke-width:0.75px"></path><path d="M270.86,298s.22,2.06,3.37,1.5" style="fill:none;stroke:#263238;stroke-linecap:round;stroke-linejoin:round;stroke-width:0.75px"></path><path d="M255.81,319.06s3.78,3.26,11.39,5.56l-2.47,3.05s-7-1.48-10.29-5.47Z" style="fill:#92E3A9"></path><g style="clip-path:url(#clip-path-14)"><path d="M255.81,319.06s3.78,3.26,11.39,5.56l-2.47,3.05s-7-1.48-10.29-5.47Z" style="fill:#fff;opacity:0.5"></path></g><path d="M255.81,319.06s3.78,3.26,11.39,5.56l-2.47,3.05s-7-1.48-10.29-5.47Z" style="fill:none;stroke:#263238;stroke-linecap:round;stroke-linejoin:round"></path><path d="M285.69,383.73s-.94-10.27-1.86-14.87c-7.43-37,.25-47.91,3.81-60.34,1.14-4-1.05-15.31-1.05-15.31-6.23-13.55-1.43-19.5,0-25.11,1.15-4.48,0-15.52,0-15.52,30-7.26,48.15,0,48.15,0s-1.15,11,0,15.52c1.43,5.61,6.24,11.56,0,25.11,0,0-2.19,11.32-1.05,15.31,3.56,12.43,11.25,23.37,3.82,60.34-.93,4.6-1.87,14.87-1.87,14.87S316.72,385.71,285.69,383.73Z" style="fill:#92E3A9"></path><g style="clip-path:url(#clip-path-15)"><path d="M340.63,290.39s-15.51,2.83-28.54.51-13.52,2.14-21.7,2.89-5.21,12.11-5.21,12.11,25.44,19.29,52.86,0S340.63,290.39,340.63,290.39Z" style="opacity:0.1"></path></g><path d="M285.69,383.73s-.94-10.27-1.86-14.87c-7.43-37,.25-47.91,3.81-60.34,1.14-4-1.05-15.31-1.05-15.31-6.23-13.55-1.43-19.5,0-25.11,1.15-4.48,0-15.52,0-15.52,30-7.26,48.15,0,48.15,0s-1.15,11,0,15.52c1.43,5.61,6.24,11.56,0,25.11,0,0-2.19,11.32-1.05,15.31,3.56,12.43,11.25,23.37,3.82,60.34-.93,4.6-1.87,14.87-1.87,14.87S316.72,385.71,285.69,383.73Z" style="fill:none;stroke:#263238;stroke-linecap:round;stroke-linejoin:round"></path><path d="M321,293.79s-10-3-17.81,0" style="fill:none;stroke:#263238;stroke-linecap:round;stroke-linejoin:round"></path><path d="M325.62,309.82c.59-.09,1.2-.2,1.82-.31" style="fill:none;stroke:#263238;stroke-linecap:round;stroke-linejoin:round"></path><path d="M292,300.74s.74,13.67,30.71,9.53" style="fill:none;stroke:#263238;stroke-linecap:round;stroke-linejoin:round"></path><path d="M304,247.92l.48-7.93h11.18l.47,7.78a1.19,1.19,0,0,0,1.13,1.12c1.17.07,2.29.16,3.37.26a14,14,0,0,1-10.39,4.61,15.07,15.07,0,0,1-10.55-4.41c1.09-.12,2.15-.22,3.21-.31A1.18,1.18,0,0,0,304,247.92Z" style="fill:#fff"></path><g style="clip-path:url(#clip-path-16)"><path d="M318.94,237.32c-1.29,4.54-4.86,9.13-9.07,9.13s-7.78-4.59-9.07-9.13Z" style="fill:#263238;stroke:#263238;stroke-linecap:round;stroke-linejoin:round"></path></g><path d="M304,247.92l.48-7.93h11.18l.47,7.78a1.19,1.19,0,0,0,1.13,1.12c1.17.07,2.29.16,3.37.26a14,14,0,0,1-10.39,4.61,15.07,15.07,0,0,1-10.55-4.41c1.09-.12,2.15-.22,3.21-.31A1.18,1.18,0,0,0,304,247.92Z" style="fill:none;stroke:#263238;stroke-linecap:round;stroke-linejoin:round"></path><path d="M319.28,230.49c-.91,1.58.22,4.32,1.43,5s2-.91,2.93-2.48.67-3.42-.53-4.12S320.18,228.92,319.28,230.49Z" style="fill:#fff;stroke:#263238;stroke-linecap:round;stroke-linejoin:round"></path><path d="M299.82,230.49c.91,1.58-.22,4.32-1.43,5s-2-.91-2.94-2.48-.67-3.42.54-4.12S298.91,228.92,299.82,230.49Z" style="fill:#fff;stroke:#263238;stroke-linecap:round;stroke-linejoin:round"></path><path d="M299.18,225v5.43c0,5.9,4.79,14,10.69,14s10.69-8.09,10.69-14v-5" style="fill:#fff;stroke:#263238;stroke-linecap:round;stroke-linejoin:round;stroke-width:0.75px"></path><path d="M299.18,225c-.15,1.35,0,5.43,0,5.43,0,5.9,4.79,14,10.69,14s10.69-8.09,10.69-14c0,0,.16-3.74,0-5a43.09,43.09,0,0,0-1.19-4.3,7,7,0,0,1-3.13-4.4c-.59-3-3.58,2.09-9.24,1.94s-5.22.82-6.93,2.39C300.07,221.13,299.29,224,299.18,225Z" style="fill:#fff;stroke:#263238;stroke-linecap:round;stroke-linejoin:round;stroke-width:0.75px"></path><path d="M297.6,225c-.17,1.35,0,5.43,0,5.43,0,5.9,5.35,14,11.94,14s11.95-8.09,11.95-14a44.2,44.2,0,0,0,0-5,40.69,40.69,0,0,0-1.32-4.3,7.11,7.11,0,0,1-3.5-4.4c-.67-3-4,2.09-10.33,1.94s-5.84.82-7.75,2.39C298.59,221.13,297.73,224,297.6,225Z" style="fill:#fff;stroke:#263238;stroke-linecap:round;stroke-linejoin:round"></path><path d="M313,236.22a4.92,4.92,0,0,1-6.09,0" style="fill:none;stroke:#263238;stroke-linecap:round;stroke-linejoin:round;stroke-width:0.75px"></path><path d="M311.34,224.18a11.56,11.56,0,0,0,.47,6c.44,1,.22,2.45-.82,2.61a3.16,3.16,0,0,1-1.64-.55" style="fill:none;stroke:#263238;stroke-linecap:round;stroke-linejoin:round;stroke-width:0.75px"></path><path d="M315,226.7c0,.73.28,1.33.63,1.33s.63-.6.63-1.33-.28-1.34-.63-1.34S315,226,315,226.7Z" style="fill:#263238"></path><ellipse cx="304.57" cy="226.7" rx="0.63" ry="1.34" style="fill:#263238"></ellipse><path d="M317.91,223.32s-2-2.27-4.14-1" style="fill:none;stroke:#263238;stroke-linecap:round;stroke-linejoin:round;stroke-width:0.75px"></path><path d="M302.5,223.45s2-2.28,4.14-1" style="fill:none;stroke:#263238;stroke-linecap:round;stroke-linejoin:round;stroke-width:0.75px"></path><path d="M321,249.75s-4.33,4.82-10.32,4.82-11.64-4.3-11.64-4.3l.63-2.21a2.63,2.63,0,0,1,3.12-1.85,15.42,15.42,0,0,1,5.84,3.27,2.57,2.57,0,0,0,3.64-.31,12,12,0,0,1,4.78-3.4,2.47,2.47,0,0,1,3.33,1.63Z" style="fill:#92E3A9"></path><g style="clip-path:url(#clip-path-17)"><path d="M321,249.75s-4.33,4.82-10.32,4.82-11.64-4.3-11.64-4.3l.63-2.21a2.63,2.63,0,0,1,3.12-1.85,15.42,15.42,0,0,1,5.84,3.27,2.57,2.57,0,0,0,3.64-.31,12,12,0,0,1,4.78-3.4,2.47,2.47,0,0,1,3.33,1.63Z" style="fill:#fff;opacity:0.5"></path></g><path d="M321,249.75s-4.33,4.82-10.32,4.82-11.64-4.3-11.64-4.3l.63-2.21a2.63,2.63,0,0,1,3.12-1.85,15.42,15.42,0,0,1,5.84,3.27,2.57,2.57,0,0,0,3.64-.31,12,12,0,0,1,4.78-3.4,2.47,2.47,0,0,1,3.33,1.63Z" style="fill:none;stroke:#263238;stroke-linecap:round;stroke-linejoin:round"></path><path d="M328.73,266.76a14.75,14.75,0,0,0,1-1.33c.81.93,1.67,1.81,2.44,2.53l-1.2.11,0,.91C330.45,268.55,329.62,267.74,328.73,266.76Z" style="fill:#263238;stroke:#263238;stroke-linecap:round;stroke-linejoin:round;stroke-width:0.5px"></path><path d="M328.23,263.62a4.3,4.3,0,0,0,.67-3.27.66.66,0,0,0-.55-.47,1.84,1.84,0,0,0-.74,0c-.71.14-.79.41-.82.5-.16.56.29,1.53,1,2.64a8.5,8.5,0,0,1-.9,1.49c-1.16-1.62-2-3.32-1.65-4.56a2.33,2.33,0,0,1,2-1.62,2.53,2.53,0,0,1,3.07,1.42c.52,1.29.13,3.24-1.09,5.2l-1,1.33a14.83,14.83,0,0,1-3,2.73l.05-1-1.06-.24a13,13,0,0,0,3-2.76S328.22,263.61,328.23,263.62Z" style="fill:#263238;stroke:#263238;stroke-linecap:round;stroke-linejoin:round;stroke-width:0.5px"></path><path d="M296.14,330a46.68,46.68,0,0,0,17.94,24.58" style="fill:none;stroke:#263238;stroke-linecap:round;stroke-linejoin:round"></path><path d="M305.89,340.75a8.78,8.78,0,0,0,13.35-1" style="fill:none;stroke:#263238;stroke-linecap:round;stroke-linejoin:round"></path></g><g id="character-2"><ellipse cx="198.92" cy="461.83" rx="45.94" ry="5.67" style="fill:#92E3A9"></ellipse><polygon points="219.38 434.04 218.98 449.09 219.18 452.01 214.62 452.64 210.4 449.44 209.59 434.04 219.38 434.04" style="fill:#fff;stroke:#263238;stroke-linecap:round;stroke-linejoin:round;stroke-width:0.75px"></polygon><path d="M221.67,320V382.9l-1.18,59.92H208.62s-2.84-44.35-2.15-59.4c0,0-3.08-13.06-5.82-45.95,0,0-2.14-.84-3-4.25s-.86-13.2-.86-13.2Z" style="fill:#263238;stroke:#263238;stroke-linecap:round;stroke-linejoin:round"></path><path d="M219,384.82s-2.6,1.9-5.17-1.46" style="fill:none;stroke:#7f7f7f;stroke-linecap:round;stroke-linejoin:round;stroke-width:0.75px"></path><path d="M220.75,450.14s3.17,3.4,6.32,4.07,4.39,2,4.49,4.41v1.8H216.93l-1.76-2.82-.51,2.82H207.9v-1.8a76.9,76.9,0,0,1,.86-8.48s-1.09-.8.25-1.91,5.82-.74,6.33,1.12,1.74,4,2.51,3.33-2.16-3.51-1-4.28S222.41,447.43,220.75,450.14Z" style="fill:#263238;stroke:#263238;stroke-linecap:round;stroke-linejoin:round"></path><path d="M210.34,454.16a1.86,1.86,0,1,0,1.85-1.85A1.85,1.85,0,0,0,210.34,454.16Z" style="fill:#92E3A9;stroke:#263238;stroke-linecap:round;stroke-linejoin:round;stroke-width:0.75px"></path><path d="M221.43,440.62s1,1.63.24,2.65a2.08,2.08,0,0,1-.17,2.07c-.75.84-13.16,0-13.16,0a1.72,1.72,0,0,1-1-2.17,4.07,4.07,0,0,1,.14-2.55Z" style="fill:#999;stroke:#263238;stroke-linecap:round;stroke-linejoin:round"></path><path d="M217.32,443.29a55.44,55.44,0,0,1-8.39-.29" style="fill:none;stroke:#263238;stroke-linecap:round;stroke-linejoin:round;stroke-width:0.75px"></path><path d="M220.31,443.17l-1.17.06" style="fill:none;stroke:#263238;stroke-linecap:round;stroke-linejoin:round;stroke-width:0.75px"></path><polygon points="179.22 434.04 179.62 449.09 179.42 452.01 183.98 452.64 188.2 449.44 189.01 434.04 179.22 434.04" style="fill:#fff;stroke:#263238;stroke-linecap:round;stroke-linejoin:round;stroke-width:0.75px"></polygon><path d="M176.69,320V382.9l1.18,59.92h11.87s2.83-44.35,2.15-59.4c0,0,3.08-13.06,5.82-45.95,0,0,2.14-.84,3-4.25s.86-13.2.86-13.2Z" style="fill:#263238;stroke:#263238;stroke-linecap:round;stroke-linejoin:round"></path><path d="M199.44,335.1a4.93,4.93,0,0,0,1.6-2.73,44.18,44.18,0,0,0,.6-7.42" style="fill:none;stroke:#7f7f7f;stroke-linecap:round;stroke-linejoin:round;stroke-width:0.75px"></path><path d="M179.37,384.82s2.6,1.9,5.17-1.46" style="fill:none;stroke:#7f7f7f;stroke-linecap:round;stroke-linejoin:round;stroke-width:0.75px"></path><path d="M177.85,450.14s-3.17,3.4-6.32,4.07-4.39,2-4.49,4.41v1.8h14.63l1.76-2.82.51,2.82h6.76v-1.8a78.6,78.6,0,0,0-.85-8.48s1.08-.8-.26-1.91-5.82-.74-6.33,1.12-1.74,4-2.51,3.33,2.16-3.51,1.05-4.28S176.19,447.43,177.85,450.14Z" style="fill:#263238;stroke:#263238;stroke-linecap:round;stroke-linejoin:round"></path><path d="M176.86,440.62s-1,1.63-.24,2.65a2.08,2.08,0,0,0,.17,2.07c.74.84,13.15,0,13.15,0a1.72,1.72,0,0,0,1-2.17,4.16,4.16,0,0,0-.14-2.55Z" style="fill:#999;stroke:#263238;stroke-linecap:round;stroke-linejoin:round"></path><path d="M188.25,443.13c.38,0,.75-.08,1.11-.13" style="fill:none;stroke:#263238;stroke-linecap:round;stroke-linejoin:round;stroke-width:0.75px"></path><path d="M178,443.17s4.39.28,8.42.09" style="fill:none;stroke:#263238;stroke-linecap:round;stroke-linejoin:round;stroke-width:0.75px"></path><path d="M188.26,454.16a1.86,1.86,0,1,1-1.85-1.85A1.85,1.85,0,0,1,188.26,454.16Z" style="fill:#92E3A9;stroke:#263238;stroke-linecap:round;stroke-linejoin:round;stroke-width:0.75px"></path><path d="M251.51,315.11l4.62,7.94s4.31,4.13,5.28,6.26c.74,1.61-.68,1.77-.68,1.77s.52,3.56-1.25,2.47c0,0-.57,3.14-2.05,1.88,0,0-.51,1.45-1.46,1.52s-1-1.75-1.79-1.46-.75,1.35-2.25-.09a6.41,6.41,0,0,1-2.18-5.68c.32-2.37.58-4.22.58-4.22L245.54,318Z" style="fill:#fff;stroke:#263238;stroke-linecap:round;stroke-linejoin:round"></path><path d="M255.8,334.52s.81,1.07,2.05-1c.55-.92,2.09-.6,2.3-3.61" style="fill:none;stroke:#263238;stroke-linecap:round;stroke-linejoin:round;stroke-width:0.75px"></path><path d="M253.94,334.52a4.71,4.71,0,0,0-1.88-2.44" style="fill:none;stroke:#263238;stroke-linecap:round;stroke-linejoin:round;stroke-width:0.75px"></path><path d="M226,245.25,241.4,290,255.81,320a14.11,14.11,0,0,1-8,4.57s-13.46-21.34-17.76-29.78-6.47-20.31-6.47-20.31S221.37,257,226,245.25Z" style="fill:#92E3A9"></path><g style="clip-path:url(#clip-path-18)"><path d="M226.66,242.65s-4.65,47.78,11,67.4l-13.83-19.6-4.13-14.7V252.52l3.4-10.73Z" style="opacity:0.2"></path></g><path d="M226,245.25,241.4,290,255.81,320a14.11,14.11,0,0,1-8,4.57s-13.46-21.34-17.76-29.78-6.47-20.31-6.47-20.31S221.37,257,226,245.25Z" style="fill:none;stroke:#263238;stroke-linecap:round;stroke-linejoin:round"></path><path d="M240.47,292.27s-1.59,2.74-4.46,2.22" style="fill:none;stroke:#263238;stroke-linecap:round;stroke-linejoin:round;stroke-width:0.75px"></path><path d="M135.29,332.64c.52.8,2,.53,2,.53-.37,1.91,2.65.86,2.65.86-.08,2.08,2.76-.12,2.76-.12s.84,1.16,1.88-.28c1.38-1.89,2.86-7.67,2.86-7.67l4.65-7.92-5.46-3.78-4.17,7.85-4,1.56a10.81,10.81,0,0,0-4,3c-1.22,1.79-3.07,2.44-2,3.33s3.21-.7,3.78-1.54C136.27,328.46,134.76,331.84,135.29,332.64Z" style="fill:#fff;stroke:#263238;stroke-linecap:round;stroke-linejoin:round"></path><path d="M138,328.14a5.32,5.32,0,0,0,4.79-1.21" style="fill:none;stroke:#263238;stroke-linecap:round;stroke-linejoin:round;stroke-width:0.75px"></path><path d="M136.72,331s2.5-.9,1.29,1.15c0,0,3.45-1.41,2.39.84,0,0,2.47-2.17,2.4-.64,0,0,.34-1.61,1-1.86s.77,1.25.77,1.25" style="fill:none;stroke:#263238;stroke-linecap:round;stroke-linejoin:round;stroke-width:0.75px"></path><path d="M171.94,245.25,156.56,290,142.16,320a14.06,14.06,0,0,0,8,4.57s13.47-21.34,17.76-29.78,6.47-20.31,6.47-20.31S176.59,257,171.94,245.25Z" style="fill:#92E3A9"></path><g style="clip-path:url(#clip-path-19)"><path d="M171.37,242.65s3.41,25.33-3.5,52.16,7,.51,7,.51l9.6-38.62-4.74-17.36h-4.53Z" style="opacity:0.2"></path></g><path d="M171.94,245.25,156.56,290,142.16,320a14.06,14.06,0,0,0,8,4.57s13.47-21.34,17.76-29.78,6.47-20.31,6.47-20.31S176.59,257,171.94,245.25Z" style="fill:none;stroke:#263238;stroke-linecap:round;stroke-linejoin:round"></path><path d="M157.49,292.27s1.59,2.74,4.46,2.22" style="fill:none;stroke:#263238;stroke-linecap:round;stroke-linejoin:round;stroke-width:0.75px"></path><path d="M172.25,245.25l4.36,53.23-.8,23c21.33,3.58,46.65,0,46.65,0l-.8-23L226,245.25A105.88,105.88,0,0,0,172.25,245.25Z" style="fill:#92E3A9"></path><g style="clip-path:url(#clip-path-20)"><path d="M173.22,286.54s-3,18.28,24.13,18.87c22.56.5,25.66-14.36,27.18-4.61a108.2,108.2,0,0,1,1.19,18.35s2,10.33-6.63,6.5-39.7,3.35-45.39-4.24S173.22,286.54,173.22,286.54Z" style="opacity:0.1"></path></g><path d="M172.25,245.25l4.36,53.23-.8,23c21.33,3.58,46.65,0,46.65,0l-.8-23L226,245.25A105.88,105.88,0,0,0,172.25,245.25Z" style="fill:none;stroke:#263238;stroke-linecap:round;stroke-linejoin:round"></path><path d="M182.63,302.21c-1.61-.12-2.48,0-2.78.31s0,.76.69,1.32c2.86,2.29,12.61,6.11,17.75,6.21" style="fill:none;stroke:#263238;stroke-linecap:round;stroke-linejoin:round;stroke-width:0.75px"></path><path d="M217.44,300.8c-4,1.84-14,5.15-29.27,2.22-.95-.18-1.82-.34-2.59-.46" style="fill:none;stroke:#263238;stroke-linecap:round;stroke-linejoin:round;stroke-width:0.75px"></path><path d="M183.2,220.65s1.52,4,.92,6.95,3.09,2.83,3.83-2.72-2.88-7.75-2.88-7.75Z" style="fill:#263238;stroke:#263238;stroke-linecap:round;stroke-linejoin:round;stroke-width:0.75px"></path><path d="M209.73,207.63s4.1.67,2.87,8.38c-.68,4.21-1.7,7.94-2,10.58-.23,2.19.34,3.63-.71,3.95-2.32.73-2.13-8.12-3.38-12.23s-8.89-4-8.89-4-13.88,13.8-16.37,8.59c-1.68-3.54,2.05-4.31,1.94-8.86s-2.08-5.12,1-10.28c3.36-5.68,10.87-9.14,19.15-1,0,0,10.27-.85,10.27,5.49C213.6,212.06,211.64,205.19,209.73,207.63Z" style="fill:#263238;stroke:#263238;stroke-linecap:round;stroke-linejoin:round;stroke-width:0.75px"></path><path d="M191.33,241l.53-8.64H204l.51,8.47a1.32,1.32,0,0,0,1.24,1.23c1.27.07,2.5.17,3.67.28a15.33,15.33,0,0,1-11.32,5,16.43,16.43,0,0,1-11.5-4.8c1.18-.14,2.35-.25,3.5-.34A1.3,1.3,0,0,0,191.33,241Z" style="fill:#fff"></path><g style="clip-path:url(#clip-path-21)"><path d="M207.64,229.39c-1.41,5-5.29,10-9.88,10s-8.48-5-9.88-10Z" style="fill:#263238;stroke:#263238;stroke-linecap:round;stroke-linejoin:round"></path></g><path d="M191.33,241l.53-8.64H204l.51,8.47a1.32,1.32,0,0,0,1.24,1.23c1.27.07,2.5.17,3.67.28a15.33,15.33,0,0,1-11.32,5,16.43,16.43,0,0,1-11.5-4.8c1.18-.14,2.35-.25,3.5-.34A1.3,1.3,0,0,0,191.33,241Z" style="fill:none;stroke:#263238;stroke-linecap:round;stroke-linejoin:round"></path><path d="M207.23,222c-1,1.71.25,4.69,1.56,5.45s2.21-1,3.2-2.71.73-3.72-.58-4.48S208.22,220.24,207.23,222Z" style="fill:#fff;stroke:#263238;stroke-linecap:round;stroke-linejoin:round"></path><path d="M188.56,222c1,1.71-.24,4.69-1.56,5.45s-2.21-1-3.2-2.71-.73-3.72.59-4.48S187.57,220.24,188.56,222Z" style="fill:#fff;stroke:#263238;stroke-linecap:round;stroke-linejoin:round"></path><path d="M186.11,216v5.92c0,6.43,5.22,15.25,11.65,15.25s11.64-8.82,11.64-15.25v-5.42" style="fill:#fff;stroke:#263238;stroke-linecap:round;stroke-linejoin:round;stroke-width:0.75px"></path><path d="M186.11,216c-.16,1.47,0,5.92,0,5.92,0,6.43,5.22,15.25,11.65,15.25s11.64-8.82,11.64-15.25a52.57,52.57,0,0,0,0-5.42,46.11,46.11,0,0,0-1.29-4.68A7.58,7.58,0,0,1,204.7,207c-.65-3.25-3.9,2.27-10.07,2.11s-5.69.89-7.56,2.6C187.07,211.75,186.23,214.92,186.11,216Z" style="fill:#fff;stroke:#263238;stroke-linecap:round;stroke-linejoin:round;stroke-width:0.75px"></path><path d="M186.11,216c-.16,1.47,0,5.92,0,5.92,0,6.43,5.22,15.25,11.65,15.25s11.64-8.82,11.64-15.25a52.57,52.57,0,0,0,0-5.42,46.11,46.11,0,0,0-1.29-4.68A7.58,7.58,0,0,1,204.7,207c-.65-3.25-3.9,2.27-10.07,2.11s-5.69.89-7.56,2.6C187.07,211.75,186.23,214.92,186.11,216Z" style="fill:#fff;stroke:#263238;stroke-linecap:round;stroke-linejoin:round"></path><path d="M201.16,228.2a5.35,5.35,0,0,1-6.62,0" style="fill:none;stroke:#263238;stroke-linecap:round;stroke-linejoin:round;stroke-width:0.75px"></path><path d="M199.35,215.08s-2.12,4.57.67,7.17l-1.8,2.63" style="fill:none;stroke:#263238;stroke-linecap:round;stroke-linejoin:round;stroke-width:0.75px"></path><path d="M203.33,217.82c0,.8.3,1.45.68,1.45s.69-.65.69-1.45-.31-1.46-.69-1.46S203.33,217,203.33,217.82Z" style="fill:#263238"></path><path d="M191.29,217.82c0,.8.31,1.45.69,1.45s.68-.65.68-1.45-.3-1.46-.68-1.46S191.29,217,191.29,217.82Z" style="fill:#263238"></path><path d="M206.52,214.14s-2.14-2.48-4.51-1.13" style="fill:none;stroke:#263238;stroke-linecap:round;stroke-linejoin:round;stroke-width:0.75px"></path><path d="M189.72,214.28s2.15-2.48,4.51-1.13" style="fill:none;stroke:#263238;stroke-linecap:round;stroke-linejoin:round;stroke-width:0.75px"></path><path d="M216.94,259.92a15.69,15.69,0,0,0,1-1.37c.84,1,1.73,1.88,2.52,2.62l-1.24.11,0,.94C218.71,261.78,217.86,261,216.94,259.92Z" style="fill:#263238;stroke:#263238;stroke-linecap:round;stroke-linejoin:round;stroke-width:0.5px"></path><path d="M216.41,256.67a4.43,4.43,0,0,0,.7-3.38.72.72,0,0,0-.57-.49,1.8,1.8,0,0,0-.76,0c-.75.14-.83.42-.85.51-.17.59.29,1.59,1.06,2.73a8.5,8.5,0,0,1-.93,1.55c-1.2-1.67-2.08-3.44-1.71-4.73a2.41,2.41,0,0,1,2.12-1.67,2.61,2.61,0,0,1,3.17,1.47c.54,1.34.13,3.35-1.13,5.38l-1,1.38a15,15,0,0,1-3.12,2.82l.06-1-1.11-.25a13.24,13.24,0,0,0,3.1-2.85S216.41,256.66,216.41,256.67Z" style="fill:#263238;stroke:#263238;stroke-linecap:round;stroke-linejoin:round;stroke-width:0.5px"></path></g><g id="character-1"><ellipse cx="84.91" cy="461.83" rx="45.94" ry="5.67" style="fill:#92E3A9"></ellipse><polygon points="104.88 433.59 104.48 448.89 104.68 451.87 100.04 452.51 95.75 449.26 94.92 433.59 104.88 433.59" style="fill:#fff;stroke:#263238;stroke-linecap:round;stroke-linejoin:round;stroke-width:0.75px"></polygon><path d="M107.2,317.65v63.94L106,436.26H93.93s-2.88-38.84-2.18-54.15c0,0-3.13-13.28-5.91-46.72,0,0-2.19-.86-3.06-4.33s-.87-13.41-.87-13.41Z" style="fill:#263238;stroke:#263238;stroke-linecap:round;stroke-linejoin:round"></path><path d="M104.49,383.54s-2.65,1.94-5.26-1.48" style="fill:none;stroke:#7f7f7f;stroke-linecap:round;stroke-linejoin:round;stroke-width:0.75px"></path><path d="M106.28,450s3.22,3.45,6.42,4.13,4.46,2,4.57,4.49v1.83H102.39l-1.79-2.87-.52,2.87H93.2v-1.83a80.43,80.43,0,0,1,.87-8.62s-1.1-.82.27-2c.58-.48,3.09.35,5.67.46C103.56,448.63,107.25,448.37,106.28,450Z" style="fill:#263238;stroke:#263238;stroke-linecap:round;stroke-linejoin:round"></path><path d="M107,434.2s1,1.65.23,2.7A2.08,2.08,0,0,1,107,439c-.75.85-13.37,0-13.37,0a1.75,1.75,0,0,1-1-2.21,4.13,4.13,0,0,1,.13-2.59Z" style="fill:#999;stroke:#263238;stroke-linecap:round;stroke-linejoin:round"></path><path d="M102.78,436.92a58.75,58.75,0,0,1-8.53-.3" style="fill:none;stroke:#263238;stroke-linecap:round;stroke-linejoin:round;stroke-width:0.75px"></path><path d="M105.82,436.79l-1.18.06" style="fill:none;stroke:#263238;stroke-linecap:round;stroke-linejoin:round;stroke-width:0.75px"></path><polygon points="64.04 433.59 64.44 448.89 64.24 451.87 68.88 452.51 73.17 449.26 73.99 433.59 64.04 433.59" style="fill:#fff;stroke:#263238;stroke-linecap:round;stroke-linejoin:round;stroke-width:0.75px"></polygon><path d="M61.47,317.65v63.94l1.19,54.67H74.74s2.88-38.84,2.18-54.15c0,0,3.13-13.28,5.92-46.72,0,0,2.18-.86,3-4.33s.87-13.41.87-13.41Z" style="fill:#263238;stroke:#263238;stroke-linecap:round;stroke-linejoin:round"></path><path d="M84.6,333a5,5,0,0,0,1.63-2.78,45.47,45.47,0,0,0,.61-7.55" style="fill:none;stroke:#7f7f7f;stroke-linecap:round;stroke-linejoin:round;stroke-width:0.75px"></path><path d="M64.19,383.54s2.65,1.94,5.26-1.48" style="fill:none;stroke:#7f7f7f;stroke-linecap:round;stroke-linejoin:round;stroke-width:0.75px"></path><path d="M62.64,450s-3.22,3.45-6.42,4.13-4.46,2-4.57,4.49v1.83H66.53l1.79-2.87.52,2.87h6.87v-1.83a77.75,77.75,0,0,0-.87-8.62s1.11-.82-.26-2c-.57-.47-3,.35-5.56.45C65.44,448.62,61.66,448.35,62.64,450Z" style="fill:#263238;stroke:#263238;stroke-linecap:round;stroke-linejoin:round"></path><path d="M61.63,434.23s-1,1.65-.23,2.7a2.11,2.11,0,0,0,.17,2.1c.75.85,13.37,0,13.37,0a1.74,1.74,0,0,0,1-2.21,4.13,4.13,0,0,0-.13-2.59Z" style="fill:#999;stroke:#263238;stroke-linecap:round;stroke-linejoin:round"></path><path d="M73.22,436.78c.39,0,.77-.08,1.13-.12" style="fill:none;stroke:#263238;stroke-linecap:round;stroke-linejoin:round;stroke-width:0.75px"></path><path d="M62.78,436.82s4.46.29,8.56.09" style="fill:none;stroke:#263238;stroke-linecap:round;stroke-linejoin:round;stroke-width:0.75px"></path><path d="M137.55,312.65l4.7,8.07s4.38,4.21,5.37,6.37c.76,1.64-.69,1.8-.69,1.8s.53,3.62-1.27,2.51c0,0-.58,3.2-2.09,1.92,0,0-.51,1.47-1.48,1.54s-1-1.78-1.82-1.48-.77,1.36-2.29-.1a6.53,6.53,0,0,1-2.22-5.77c.33-2.41.59-4.29.59-4.29l-4.87-7.62Z" style="fill:#fff;stroke:#263238;stroke-linecap:round;stroke-linejoin:round"></path><path d="M141.92,332.38s.82,1.1,2.08-1c.56-.94,2.13-.61,2.34-3.67" style="fill:none;stroke:#263238;stroke-linecap:round;stroke-linejoin:round;stroke-width:0.75px"></path><path d="M140,332.39a4.75,4.75,0,0,0-1.9-2.48" style="fill:none;stroke:#263238;stroke-linecap:round;stroke-linejoin:round;stroke-width:0.75px"></path><path d="M111.63,241.6l15.64,45.47,14.65,30.58a14.33,14.33,0,0,1-8.09,4.64s-13.69-21.7-18.06-30.29-6.58-20.65-6.58-20.65S106.9,253.52,111.63,241.6Z" style="fill:#263238;stroke:#263238;stroke-linecap:round;stroke-linejoin:round"></path><path d="M126.32,289.42s-1.61,2.78-4.52,2.26" style="fill:none;stroke:#7f7f7f;stroke-linecap:round;stroke-linejoin:round;stroke-width:0.75px"></path><path d="M57,241.6l4.44,54.13-.82,23.42c21.7,3.65,47.44,0,47.44,0l-.81-23.42,4.43-54.13A107.84,107.84,0,0,0,57,241.6Z" style="fill:#92E3A9;stroke:#263238;stroke-linecap:round;stroke-linejoin:round"></path><path d="M67.51,299.53c-1.64-.12-2.53,0-2.83.31s0,.78.71,1.35c2.9,2.32,12.81,6.21,18,6.32" style="fill:none;stroke:#263238;stroke-linecap:round;stroke-linejoin:round;stroke-width:0.75px"></path><path d="M102.9,298.1c-4.1,1.87-14.24,5.23-29.76,2.25-1-.18-1.85-.34-2.63-.46" style="fill:none;stroke:#263238;stroke-linecap:round;stroke-linejoin:round;stroke-width:0.75px"></path><path d="M57,241.6l4.44,54.13-.82,23.42c21.7,3.65,47.44,0,47.44,0l-.81-23.42,4.43-54.13A107.84,107.84,0,0,0,57,241.6Z" style="fill:#92E3A9;stroke:#263238;stroke-linecap:round;stroke-linejoin:round"></path><path d="M67.51,299.53c-1.64-.12-2.53,0-2.83.31s0,.78.71,1.35c2.9,2.32,12.81,6.21,18,6.32" style="fill:none;stroke:#263238;stroke-linecap:round;stroke-linejoin:round;stroke-width:0.75px"></path><path d="M102.9,298.1c-4.1,1.87-14.24,5.23-29.76,2.25-1-.18-1.85-.34-2.63-.46" style="fill:none;stroke:#263238;stroke-linecap:round;stroke-linejoin:round;stroke-width:0.75px"></path><path d="M86.31,317.6V280.16l7.57-41.65a92.5,92.5,0,0,1,17.75,3.09l-4.43,54.13L109.05,316s-6.26.74-14,1.22C92.41,317.41,89.45,317.54,86.31,317.6Z" style="fill:#263238;stroke:#263238;stroke-linecap:round;stroke-linejoin:round"></path><path d="M72.2,238.75l8.89,41.41v37.48A144.75,144.75,0,0,1,59.53,316l1.86-20.29L57,241.6A100.74,100.74,0,0,1,72.2,238.75Z" style="fill:#263238;stroke:#263238;stroke-linecap:round;stroke-linejoin:round"></path><line x1="111.12" y1="251.46" x2="109.64" y2="269.46" style="fill:none;stroke:#7f7f7f;stroke-linecap:round;stroke-linejoin:round;stroke-width:0.75px"></line><line x1="111.63" y1="245.18" x2="111.39" y2="248.08" style="fill:none;stroke:#7f7f7f;stroke-linecap:round;stroke-linejoin:round;stroke-width:0.75px"></line><line x1="89.89" y1="275.13" x2="88.04" y2="277.73" style="fill:none;stroke:#7f7f7f;stroke-linecap:round;stroke-linejoin:round;stroke-width:0.75px"></line><polyline points="97.46 240.34 100.68 257.81 94.56 258.91 97.62 264.25 91.31 273.12" style="fill:none;stroke:#7f7f7f;stroke-linecap:round;stroke-linejoin:round;stroke-width:0.75px"></polyline><line x1="92.56" y1="255.4" x2="93.61" y2="257.22" style="fill:none;stroke:#7f7f7f;stroke-linecap:round;stroke-linejoin:round;stroke-width:0.75px"></line><line x1="77.39" y1="275.13" x2="79.24" y2="277.73" style="fill:none;stroke:#7f7f7f;stroke-linecap:round;stroke-linejoin:round;stroke-width:0.75px"></line><polyline points="69.81 240.34 66.6 257.81 72.72 258.91 69.66 264.25 75.96 273.12" style="fill:none;stroke:#7f7f7f;stroke-linecap:round;stroke-linejoin:round;stroke-width:0.75px"></polyline><line x1="74.71" y1="255.4" x2="73.66" y2="257.22" style="fill:none;stroke:#7f7f7f;stroke-linecap:round;stroke-linejoin:round;stroke-width:0.75px"></line><path d="M95.4,253.7a5.28,5.28,0,1,0,5.28-5.28A5.27,5.27,0,0,0,95.4,253.7Z" style="fill:#92E3A9;stroke:#263238;stroke-linecap:round;stroke-linejoin:round"></path><path d="M101,255.58c.24-.31.43-.58.58-.8.49.55,1,1.09,1.47,1.52l-.72.07,0,.54C102,256.65,101.52,256.17,101,255.58Z" style="fill:#263238;stroke:#263238;stroke-linecap:round;stroke-linejoin:round;stroke-width:0.5px"></path><path d="M100.68,253.68a2.61,2.61,0,0,0,.41-2,.42.42,0,0,0-.33-.28,1.15,1.15,0,0,0-.45,0c-.43.09-.48.25-.49.3a2.45,2.45,0,0,0,.61,1.59,4.71,4.71,0,0,1-.54.9c-.7-1-1.21-2-1-2.75a1.43,1.43,0,0,1,1.23-1,1.53,1.53,0,0,1,1.84.86,3.71,3.71,0,0,1-.65,3.13l-.58.81a9,9,0,0,1-1.81,1.64l0-.6-.64-.14a7.65,7.65,0,0,0,1.8-1.66Z" style="fill:#263238;stroke:#263238;stroke-linecap:round;stroke-linejoin:round;stroke-width:0.5px"></path><path d="M95.38,220.15s4.2-17.6-1.75-20.2S74.92,196.6,71,201.68s0,19.94,0,19.94Z" style="fill:#999;stroke:#263238;stroke-linecap:round;stroke-linejoin:round"></path><path d="M76.72,238.22l.51-8.35H89l.49,8.18a1.28,1.28,0,0,0,1.2,1.19c1.23.07,2.41.17,3.55.27a14.8,14.8,0,0,1-10.94,4.85,15.9,15.9,0,0,1-11.11-4.63c1.14-.14,2.27-.24,3.38-.33A1.26,1.26,0,0,0,76.72,238.22Z" style="fill:#fff"></path><g style="clip-path:url(#clip-path-22)"><path d="M92.47,227.05c-1.35,4.79-5.11,9.62-9.54,9.62s-8.19-4.83-9.55-9.62Z" style="fill:#263238;stroke:#263238;stroke-linecap:round;stroke-linejoin:round"></path></g><path d="M76.72,238.22l.51-8.35H89l.49,8.18a1.28,1.28,0,0,0,1.2,1.19c1.23.07,2.41.17,3.55.27a14.8,14.8,0,0,1-10.94,4.85,15.9,15.9,0,0,1-11.11-4.63c1.14-.14,2.27-.24,3.38-.33A1.26,1.26,0,0,0,76.72,238.22Z" style="fill:none;stroke:#263238;stroke-linecap:round;stroke-linejoin:round"></path><path d="M92.08,219.87c-1,1.66.24,4.54,1.51,5.27s2.14-1,3.09-2.61.71-3.6-.56-4.34S93,218.21,92.08,219.87Z" style="fill:#fff;stroke:#263238;stroke-linecap:round;stroke-linejoin:round"></path><path d="M74.05,219.87c1,1.66-.24,4.54-1.51,5.27s-2.13-1-3.09-2.61-.71-3.6.56-4.34S73.09,218.21,74.05,219.87Z" style="fill:#fff;stroke:#263238;stroke-linecap:round;stroke-linejoin:round"></path><path d="M71.68,214.12v5.72c0,6.21,5,14.74,11.25,14.74s11.25-8.53,11.25-14.74v-5.23" style="fill:#fff;stroke:#263238;stroke-linecap:round;stroke-linejoin:round;stroke-width:0.75px"></path><path d="M71.68,214.12c-.16,1.42,0,5.72,0,5.72,0,6.21,5,14.74,11.25,14.74s11.25-8.53,11.25-14.74a51.8,51.8,0,0,0,0-5.23,45.7,45.7,0,0,0-1.25-4.52,7.3,7.3,0,0,1-3.29-4.63c-.63-3.14-3.77,2.19-9.74,2s-5.49.86-7.29,2.51C72.61,210,71.79,213.08,71.68,214.12Z" style="fill:#fff;stroke:#263238;stroke-linecap:round;stroke-linejoin:round;stroke-width:0.75px"></path><path d="M71.68,214.12c-.16,1.42,0,5.72,0,5.72,0,6.21,5,14.74,11.25,14.74s11.25-8.53,11.25-14.74a51.8,51.8,0,0,0,0-5.23,45.7,45.7,0,0,0-1.25-4.52,7.3,7.3,0,0,1-3.29-4.63c-.63-3.14-3.77,2.19-9.74,2s-5.49.86-7.29,2.51C72.61,210,71.79,213.08,71.68,214.12Z" style="fill:#fff"></path><g style="clip-path:url(#clip-path-23)"><path d="M94.18,219.84c0,6.21-5,14.74-11.25,14.74s-11.25-8.53-11.25-14.74c0,0-.16-4.3,0-5.72.26,3.94,1.61,12.47,6.33,10.94s7.86-.49,11.63-.25,4.54-10.2,4.54-10.2A51.8,51.8,0,0,1,94.18,219.84Z" style="opacity:0.30000000000000004"></path></g><path d="M71.68,214.12c-.16,1.42,0,5.72,0,5.72,0,6.21,5,14.74,11.25,14.74s11.25-8.53,11.25-14.74a51.8,51.8,0,0,0,0-5.23,45.7,45.7,0,0,0-1.25-4.52,7.3,7.3,0,0,1-3.29-4.63c-.63-3.14-3.77,2.19-9.74,2s-5.49.86-7.29,2.51C72.61,210,71.79,213.08,71.68,214.12Z" style="fill:none;stroke:#263238;stroke-linecap:round;stroke-linejoin:round"></path><path d="M86.22,225.9a5.18,5.18,0,0,1-6.4,0" style="fill:none;stroke:#263238;stroke-linecap:round;stroke-linejoin:round;stroke-width:0.75px"></path><path d="M84.47,213.23s-1.1,3.89.47,6.57a1.7,1.7,0,0,1-.6,2.35l-1,.54" style="fill:none;stroke:#263238;stroke-linecap:round;stroke-linejoin:round;stroke-width:0.75px"></path><ellipse cx="88.97" cy="215.87" rx="0.66" ry="1.41" style="fill:#263238"></ellipse><ellipse cx="77.35" cy="215.87" rx="0.66" ry="1.41" style="fill:#263238"></ellipse><path d="M91.51,211.68s-2.65-1.72-4.48.17A13.63,13.63,0,0,0,91.51,211.68Z" style="fill:none;stroke:#263238;stroke-linecap:round;stroke-linejoin:round;stroke-width:0.75px"></path><path d="M75.06,212s2.51-1.93,4.49-.2A13.62,13.62,0,0,1,75.06,212Z" style="fill:none;stroke:#263238;stroke-linecap:round;stroke-linejoin:round;stroke-width:0.75px"></path><path d="M89.64,205s7,6.69,9.32,3.1a9.14,9.14,0,0,1-2.14-4.34s3.13-.62,4.12-2.85c0,0-5.81.25-6.68-2.11,0,0-6-8.3-15.25-6.44l3.22,2.23s-10.61-1.86-14.78,4.21c0,0,4.09-1.61,4.73-.24s-5.81,3-5.81,3,3.41,3.59,10.94.37c0,0-2.54,5.08-6.12,5.95C71.19,207.88,83.78,210.6,89.64,205Z" style="fill:#92E3A9;stroke:#263238;stroke-linecap:round;stroke-linejoin:round"></path><path d="M44.08,179.59c-1-.58-2.42.47-2.42.47-.58-2.22-3.26.41-3.26.41-1-2.25-2.87,1.52-2.87,1.52s-1.48-.81-1.87,1.24c-.51,2.7.82,9.6.82,9.6l-.95,10.77,7.71,1.27.48-10.45,3.43-3.66s2.34-2.67,2.73-5.19S45.05,180.17,44.08,179.59Z" style="fill:#fff;stroke:#263238;stroke-linecap:round;stroke-linejoin:round"></path><path d="M43.37,182s-3.58,4-1.95-.58c0,0-3.29,5.3-3,.32,0,0-.92,5.57-2.23,1.89,0,0,.45,1.87-.17,2.5s-1.45-.95-1.45-.95" style="fill:none;stroke:#263238;stroke-linecap:round;stroke-linejoin:round;stroke-width:0.75px"></path><path d="M57.9,239.26s-3.92-4-4.52-1.85A49.86,49.86,0,0,0,42,230.51a41.17,41.17,0,0,0,.5-6.87V198.46s-3.88-3.34-9.76-.52c0,0-4.35,38.78-2.11,40.68S58.81,259,58.81,259Z" style="fill:#263238;stroke:#263238;stroke-linecap:round;stroke-linejoin:round"></path><path d="M41.76,231.44s-3.08,4.85-6.3,5.34" style="fill:none;stroke:#7f7f7f;stroke-linecap:round;stroke-linejoin:round;stroke-width:0.75px"></path><line x1="57.75" y1="249.35" x2="57.6" y2="255.23" style="fill:none;stroke:#7f7f7f;stroke-linecap:round;stroke-linejoin:round;stroke-width:0.75px"></line><line x1="57.92" y1="243.06" x2="57.84" y2="245.96" style="fill:none;stroke:#7f7f7f;stroke-linecap:round;stroke-linejoin:round;stroke-width:0.75px"></line><path d="M46.22,184.16s.1-2.32-2.23-1.47-5.29.51-5.21,1.47.65,1.72,3.72,1.4c0,0,.4.44-.54,1.09-1.15.79-2.49,1.91-2.82,2.95" style="fill:#fff;stroke:#263238;stroke-linecap:round;stroke-linejoin:round;stroke-width:0.75px"></path></g><g id="Text"><path d="M167.6,34.22h9.7l4.48,49.24H182l4.76-49.24h11l4.76,49.24h.18l4.49-49.24h8.69l-6.5,64.07H196.8l-4.58-43.2H192l-4.58,43.2H174.1Z" style="fill:#263238"></path><path d="M220,83.1V49.42c0-10.26,5.39-16.11,15.28-16.11s15.28,5.85,15.28,16.11V83.1c0,10.25-5.4,16.11-15.28,16.11S220,93.35,220,83.1Zm20.5.64v-35c0-4.57-2-6.31-5.22-6.31s-5.22,1.74-5.22,6.31v35c0,4.57,2,6.31,5.22,6.31S240.51,88.31,240.51,83.74Z" style="fill:#263238"></path><path d="M256.57,34.22h14.92c10.43,0,14.92,4.85,14.92,14.74v3.93c0,6.59-2.11,10.8-6.59,12.63v.19c5,1.55,6.68,6.31,6.68,13.54V90.51c0,3.11.09,5.4,1.1,7.78H277.35c-.55-1.65-.92-2.65-.92-7.87V78.7c0-6-1.74-7.87-6.32-7.87h-3.47V98.29H256.57ZM270.3,61.68c3.75,0,6-1.65,6-6.77V50c0-4.57-1.56-6.59-5.13-6.59h-4.57V61.68Z" style="fill:#263238"></path><path d="M293,34.22h10.06V89.14h16.57v9.15H293Z" style="fill:#263238"></path><path d="M324.55,34.22h15.38c10.07,0,15,5.59,15,15.84v32.4c0,10.25-4.94,15.83-15,15.83H324.55Zm15.2,54.92c3.2,0,5.12-1.65,5.12-6.23V49.6c0-4.58-1.92-6.23-5.12-6.23h-5.13V89.14Z" style="fill:#263238"></path><path d="M177.76,108.77H191.4l10.43,64.07H191.76l-1.83-12.73v.19H178.49l-1.83,12.54h-9.34Zm11,42.83-4.48-31.66h-.19l-4.39,31.66Z" style="fill:#263238"></path><path d="M206.76,108.77h10.07v64.07H206.76Z" style="fill:#263238"></path><path d="M223.2,108.77h15.37c10.07,0,15,5.58,15,15.83V157c0,10.25-4.94,15.84-15,15.84H223.2Zm15.19,54.91c3.2,0,5.13-1.64,5.13-6.22V124.15c0-4.58-1.93-6.23-5.13-6.23h-5.12v45.76Z" style="fill:#263238"></path><path d="M258.6,157.64V154h9.52v4.4c0,4.57,2,6.22,5.21,6.22s5.22-1.65,5.22-6.41c0-5.31-2-8.69-8.6-14.46-8.42-7.41-11.17-12.63-11.17-19.95,0-10.07,5.22-15.93,15-15.93s14.65,5.86,14.65,16.11v2.66h-9.52v-3.3c0-4.57-1.83-6.31-5-6.31s-5,1.74-5,6.13c0,4.67,2.1,8,8.69,13.82,8.42,7.41,11.08,12.54,11.08,20.5,0,10.43-5.31,16.29-15.19,16.29S258.6,167.89,258.6,157.64Z" style="fill:#263238"></path><path d="M310.86,108.77h15.37c10.07,0,15,5.58,15,15.83V157c0,10.25-4.94,15.84-15,15.84H310.86Zm15.19,54.91c3.2,0,5.13-1.64,5.13-6.22V124.15c0-4.58-1.93-6.23-5.13-6.23h-5.12v45.76Z" style="fill:#263238"></path><path d="M355.27,108.77h13.64l10.44,64.07H369.28l-1.83-12.73v.19H356l-1.83,12.54h-9.34Zm11,42.83-4.49-31.66h-.18L357.2,151.6Z" style="fill:#263238"></path><path d="M389.55,145.56l-12.17-36.79h10.7L395,132.29h.18L402,108.77h9.79l-12.17,36.79v27.28H389.55Z" style="fill:#263238"></path><path d="M112.91,68.58s9.85-7.5,27.66-7.5c18.45,0,27.66,7.5,27.66,7.5l.18-7.65-6.93-11.76s-7-5.67-20.91-5.67c-13.46,0-20.91,5.67-20.91,5.67l-6.51,10.55Z" style="fill:#92E3A9"></path><g style="clip-path:url(#clip-path-24)"><path d="M122.25,47.62a20,20,0,0,0-2.59,1.55L113.2,59.64a41.44,41.44,0,0,0,1.7,7.67,41.34,41.34,0,0,1,6.95-3.15C119.15,54.89,121.31,49.4,122.25,47.62Z" style="opacity:0.30000000000000004"></path><path d="M158.13,63.67a42.3,42.3,0,0,1,7,2.94,40,40,0,0,0,1.62-8.51l-5.26-8.93a21.79,21.79,0,0,0-4.55-2.55c.08.12.14.24.23.36s2.33,3.18,2.16,9.38A30.41,30.41,0,0,1,158.13,63.67Z" style="opacity:0.30000000000000004"></path></g><path d="M112.91,68.58s9.85-7.5,27.66-7.5c18.45,0,27.66,7.5,27.66,7.5l.18-7.65-6.93-11.76s-7-5.67-20.91-5.67c-13.46,0-20.91,5.67-20.91,5.67l-6.51,10.55Z" style="fill:none;stroke:#263238;stroke-linecap:round;stroke-linejoin:round"></path><path d="M119.66,49.17s-11.82,14.66,11.81,44.1c25.79,32.14,45.51,52.84,61.46,54.26l-16.1,20.92s-22.9-4.26-57.65-57.6C94.46,72.91,119.66,49.17,119.66,49.17Z" style="fill:#92E3A9;stroke:#263238;stroke-linecap:round;stroke-linejoin:round"></path><path d="M161.48,49.17s11.82,14.66-11.81,44.1c-25.79,32.14-45.51,52.84-61.46,54.26l16.1,20.92s22.9-4.26,57.65-57.6C186.68,72.91,161.48,49.17,161.48,49.17Z" style="fill:#92E3A9"></path><g style="clip-path:url(#clip-path-25)"><path d="M137.42,143.32q1.54-1.71,3.15-3.58c-4.5-5.23-9.34-11.42-14.49-18.71-1.11,1.18-2.2,2.34-3.27,3.46C128,131.8,132.86,138,137.42,143.32Z" style="opacity:0.30000000000000004"></path></g><path d="M161.48,49.17s11.82,14.66-11.81,44.1c-25.79,32.14-45.51,52.84-61.46,54.26l16.1,20.92s22.9-4.26,57.65-57.6C186.68,72.91,161.48,49.17,161.48,49.17Z" style="fill:none;stroke:#263238;stroke-linecap:round;stroke-linejoin:round"></path><path d="M119.66,49.17s-11.82,14.66,11.81,44.1c25.79,32.14,45.51,52.84,61.46,54.26l-16.1,20.92s-22.9-4.26-57.65-57.6C94.46,72.91,119.66,49.17,119.66,49.17Z" style="fill:#92E3A9;stroke:#263238;stroke-linecap:round;stroke-linejoin:round"></path></g></svg>