<svg xmlns="http://www.w3.org/2000/svg" viewBox="0 0 500 500"><g id="background-simple"><path d="M420.23,73.58q-5.49-1.35-10.94-2.85C370.18,60,188.09,12.5,128.06,42.53,60.66,76.24-15.25,348.26,45,401.18s289.64,103,334.21,67.83,113.16-281.43,105.28-333.6C477.73,90.87,433.13,76.75,420.23,73.58Z" style="fill:#92E3A9"></path><path d="M420.23,73.58q-5.49-1.35-10.94-2.85C370.18,60,188.09,12.5,128.06,42.53,60.66,76.24-15.25,348.26,45,401.18s289.64,103,334.21,67.83,113.16-281.43,105.28-333.6C477.73,90.87,433.13,76.75,420.23,73.58Z" style="fill:#fff;opacity:0.7000000000000001"></path></g><g id="Gears"><path d="M412.65,353.78c-.92-1,2.8-6.6,1.81-7.51s-6.28,3.2-7.35,2.38,1.53-7,.39-7.72-5.57,4.32-6.78,3.7.22-7.15-1-7.65-4.68,5.27-6,4.89-1.1-7.07-2.43-7.33-3.63,6-5,5.9-2.38-6.75-3.74-6.76-2.46,6.6-3.82,6.71-3.56-6.2-4.91-6-1.2,6.93-2.52,7.3-4.64-5.45-5.92-5,.1,7-1.13,7.64-5.57-4.49-6.74-3.78,1.4,6.9.3,7.72-6.3-3.4-7.32-2.48,2.62,6.55,1.7,7.54-6.82-2.18-7.64-1.11,3.77,5.95,3,7.1-7.11-.88-7.72.33,4.81,5.14,4.31,6.41-7.14.44-7.52,1.74,5.68,4.17,5.42,5.51-6.94,1.74-7.08,3.1,6.35,3.05,6.34,4.42-6.51,3-6.39,4.33,6.79,1.85,7,3.19-5.85,4.12-5.48,5.44,7,.56,7.5,1.84-5,5.12-4.39,6.35,7-.75,7.72.42-4,6-3.14,7.06,6.74-2,7.66-1-2.79,6.6-1.8,7.51,6.27-3.2,7.34-2.38-1.53,7-.39,7.72,5.57-4.31,6.78-3.7-.22,7.15,1.05,7.65,4.67-5.27,6-4.89,1.1,7.08,2.43,7.33,3.63-6,5-5.9,2.37,6.75,3.73,6.76,2.46-6.6,3.82-6.71,3.57,6.2,4.91,6,1.21-6.93,2.52-7.3,4.65,5.45,5.92,5-.09-7,1.14-7.64,5.56,4.49,6.73,3.78-1.4-6.9-.3-7.72,6.3,3.4,7.32,2.48-2.61-6.55-1.7-7.54,6.83,2.18,7.65,1.11-3.78-5.95-3.06-7.1,7.11.88,7.72-.33-4.81-5.14-4.31-6.4,7.14-.45,7.52-1.75-5.67-4.17-5.42-5.51,6.95-1.74,7.08-3.09-6.35-3.06-6.34-4.42,6.51-3,6.39-4.34-6.79-1.85-7-3.19,5.85-4.12,5.48-5.44-7-.56-7.5-1.83,5-5.13,4.39-6.36-7,.75-7.71-.42,4-6,3.13-7.06S413.58,354.8,412.65,353.78ZM397.41,408c-1.27,4.67-10.83,6.16-21.37,3.31s-18.05-8.95-16.78-13.62,10.82-6.16,21.36-3.31S398.67,403.35,397.41,408Zm-9.54-21a6.21,6.21,0,1,1,.46-8.76A6.21,6.21,0,0,1,387.87,387ZM372.7,372.83c-5.61,7.52-13.31,11.27-17.19,8.38s-2.47-11.35,3.14-18.87S372,351.07,375.84,354,378.32,365.31,372.7,372.83ZM410,368.3c4.86,9.77,5.28,19.44.95,21.59s-11.79-4-16.65-13.78-5.29-19.44-1-21.6S405.13,358.53,410,368.3Z" style="fill:#263238;stroke:#263238;stroke-miterlimit:10"></path><path d="M334.92,407.58c0-.8,3.77-1.76,3.69-2.54s-3.95-1.06-4.09-1.83,3.38-2.42,3.16-3.18-4.07-.3-4.36-1,2.88-3,2.53-3.71-4.07.45-4.48-.22,2.27-3.47,1.79-4.1-3.91,1.19-4.44.61,1.6-3.84,1-4.37-3.63,1.89-4.26,1.41.87-4.06.2-4.48-3.21,2.52-3.92,2.17.11-4.15-.63-4.44-2.69,3.07-3.46,2.86-.66-4.1-1.44-4.25-2.07,3.52-2.87,3.45S312,380,311.17,380s-1.42,3.83-2.2,3.91-2.09-3.59-2.87-3.45-.68,4-1.43,4.25-2.73-3.14-3.46-2.86.08,4.09-.63,4.44-3.25-2.58-3.92-2.17.83,4,.2,4.48-3.68-1.94-4.26-1.41,1.55,3.78,1,4.37-4-1.25-4.45-.61,2.22,3.43,1.8,4.1-4.12-.49-4.48.22,2.81,3,2.52,3.71-4.14.27-4.36,1,3.31,2.4,3.17,3.18-4,1-4.1,1.83,3.7,1.74,3.7,2.54-3.77,1.76-3.7,2.54,3.95,1.05,4.1,1.82-3.38,2.43-3.17,3.18,4.08.31,4.36,1-2.87,3-2.52,3.71,4.07-.46,4.48.21-2.27,3.48-1.8,4.11,3.91-1.2,4.45-.61-1.6,3.83-1,4.37,3.63-1.89,4.26-1.42-.88,4.07-.2,4.48,3.21-2.52,3.92-2.17-.11,4.16.63,4.44,2.69-3.07,3.46-2.85.65,4.1,1.43,4.24,2.08-3.51,2.87-3.44,1.4,3.91,2.2,3.91,1.41-3.84,2.19-3.91,2.1,3.59,2.87,3.44.69-4,1.44-4.24,2.72,3.14,3.46,2.85-.08-4.08.63-4.44,3.25,2.59,3.92,2.17-.83-4-.2-4.48,3.67,2,4.26,1.42-1.55-3.79-1-4.37,4,1.24,4.44.61-2.21-3.44-1.79-4.11,4.12.5,4.48-.21-2.81-3-2.53-3.71,4.15-.27,4.36-1-3.31-2.39-3.16-3.18,4-1,4.09-1.82S334.92,408.38,334.92,407.58Zm-27.65,17.47c-2.36,1.53-7.06-1.55-10.5-6.87s-4.31-10.87-1.95-12.39,7.06,1.55,10.5,6.87S309.63,423.53,307.27,425.05Zm4.06-12.77a3.61,3.61,0,1,1,3.6-3.61A3.61,3.61,0,0,1,311.33,412.28Zm-1.05-12c-5.34,1.06-10.12-.31-10.67-3.07s3.34-5.85,8.68-6.92,10.13.31,10.68,3.07S315.63,399.21,310.28,400.28Zm17.85,12.53c-1.7,6.1-5.27,10.44-8,9.69s-3.53-6.32-1.83-12.42,5.26-10.44,8-9.69S329.83,406.7,328.13,412.81Z" style="fill:#263238;stroke:#263238;stroke-miterlimit:10"></path><path d="M230.85,77.22c0-.8,3.77-1.76,3.7-2.54s-4-1.06-4.1-1.83,3.38-2.42,3.17-3.17-4.08-.31-4.36-1,2.87-3,2.52-3.71-4.06.46-4.48-.21,2.27-3.48,1.8-4.11-3.91,1.19-4.44.61,1.6-3.83,1-4.37-3.62,1.89-4.25,1.41.87-4.06.2-4.48-3.22,2.53-3.93,2.17.11-4.15-.63-4.44-2.69,3.08-3.45,2.86-.66-4.1-1.44-4.25-2.08,3.52-2.87,3.45-1.4-3.91-2.2-3.91-1.41,3.84-2.19,3.91S202.81,50,202,50.12s-.68,4-1.44,4.25-2.72-3.14-3.46-2.86.08,4.09-.62,4.44-3.26-2.58-3.93-2.17.83,4,.2,4.49-3.67-2-4.26-1.42,1.55,3.79,1,4.37-4-1.24-4.44-.61,2.21,3.44,1.8,4.11-4.13-.5-4.48.21,2.81,3,2.52,3.71-4.15.27-4.36,1,3.31,2.39,3.16,3.17-4,1-4.09,1.83,3.69,1.74,3.69,2.54-3.76,1.76-3.69,2.54,4,1.06,4.09,1.83-3.38,2.42-3.16,3.17,4.07.31,4.36,1-2.88,3-2.52,3.71,4.06-.46,4.48.21-2.28,3.48-1.8,4.11,3.91-1.19,4.44-.61-1.6,3.84-1,4.37,3.63-1.89,4.26-1.41-.87,4.06-.2,4.48,3.22-2.53,3.93-2.17-.12,4.15.62,4.44,2.7-3.08,3.46-2.86.66,4.1,1.44,4.25,2.08-3.52,2.87-3.45,1.39,3.91,2.19,3.91,1.42-3.84,2.2-3.91,2.1,3.59,2.87,3.45.68-4,1.44-4.25,2.72,3.14,3.45,2.86-.07-4.09.63-4.44,3.26,2.58,3.93,2.17-.83-4-.2-4.48,3.67,1.94,4.25,1.41-1.55-3.78-1-4.37,4,1.24,4.44.61-2.22-3.43-1.8-4.11,4.13.5,4.48-.21-2.81-3-2.52-3.71,4.14-.27,4.36-1-3.31-2.39-3.17-3.17,4-1,4.1-1.83S230.85,78,230.85,77.22ZM203.2,94.7c-2.36,1.52-7.06-1.55-10.5-6.87s-4.31-10.88-1.95-12.4,7.06,1.55,10.5,6.87S205.57,93.17,203.2,94.7Zm4.06-12.78a3.6,3.6,0,1,1,3.6-3.6A3.6,3.6,0,0,1,207.26,81.92Zm-1-12c-5.35,1.06-10.12-.31-10.67-3.06s3.34-5.86,8.68-6.92,10.12.3,10.67,3.06S211.56,68.85,206.22,69.92Zm17.85,12.53c-1.7,6.1-5.27,10.44-8,9.69s-3.53-6.31-1.83-12.42,5.27-10.44,8-9.68S225.76,76.35,224.07,82.45Z" style="fill:#263238;stroke:#263238;stroke-miterlimit:10"></path><path d="M166,412c1-.91,6.55,2.89,7.48,1.92s-3.11-6.33-2.27-7.39,7,1.65,7.71.51-4.22-5.63-3.59-6.83,7.15.33,7.67-.93-5.2-4.76-4.8-6,7.09-1,7.37-2.32-6-3.73-5.82-5.08,6.79-2.26,6.82-3.62-6.56-2.57-6.65-3.93,6.26-3.47,6-4.81-6.92-1.32-7.26-2.64,5.52-4.56,5.05-5.84-7,0-7.62-1.26,4.58-5.49,3.88-6.67-6.92,1.29-7.72.17,3.5-6.24,2.59-7.27-6.58,2.51-7.56,1.58,2.28-6.79,1.22-7.63-6,3.68-7.14,2.94,1-7.09-.2-7.72-5.22,4.73-6.48,4.21-.33-7.15-1.63-7.55-4.26,5.61-5.59,5.33-1.63-7-3-7.12-3.16,6.29-4.52,6.26-2.88-6.55-4.24-6.46-1.95,6.77-3.3,7-4-5.92-5.35-5.57-.67,7-2,7.47-5-5.07-6.29-4.49.64,7-.54,7.71-5.89-4.06-7-3.25,1.93,6.77.89,7.67-6.55-2.89-7.48-1.92,3.1,6.33,2.26,7.39-3.48,5.13-4.11,6.32-7.16-.33-7.67.93,5.19,4.76,4.79,6-7.09,1-7.37,2.32,6,3.73,5.83,5.08-6.79,2.26-6.82,3.62,6.55,2.57,6.65,3.93-6.26,3.47-6,4.81,6.91,1.32,7.26,2.64-5.52,4.56-5.06,5.85,7,0,7.63,1.25-4.58,5.5-3.89,6.68,6.92-1.29,7.73-.18-3.5,6.24-2.6,7.27,6.59-2.51,7.57-1.58-2.29,6.79-1.23,7.63,6-3.68,7.14-2.94-1,7.09.21,7.72,5.22-4.73,6.47-4.21.33,7.15,1.63,7.55,4.26-5.61,5.59-5.33,1.64,7,3,7.12,3.16-6.29,4.52-6.26,2.88,6.55,4.24,6.46,2-6.77,3.29-7,4,5.92,5.35,5.57.67-7,2-7.47,5,5.07,6.29,4.49-.65-7,.53-7.71,5.9,4.06,7,3.25S165,412.89,166,412Zm-54-16.11c-4.65-1.33-6-10.92-3-21.41s9.23-17.91,13.89-16.57,6,10.93,3,21.41S116.66,397.22,112,395.88Zm21.18-9.2a6.21,6.21,0,1,1,8.76.6A6.22,6.22,0,0,1,133.18,386.68Zm14.4-14.94c-7.43-5.73-11.06-13.49-8.11-17.32s11.38-2.3,18.82,3.43,11.06,13.49,8.1,17.32S155,377.47,147.58,371.74Zm3.94,37.36c-9.84,4.71-19.52,5-21.61.61S134.11,398,144,393.28s19.52-5,21.61-.61S161.37,404.39,151.52,409.1Z" style="fill:#263238;stroke:#263238;stroke-miterlimit:10"></path><path d="M399.59,157.21c1.25-.59,5.5,4.59,6.66,3.91s-1.24-6.94-.14-7.73,6.25,3.51,7.27,2.62-2.5-6.58-1.57-7.56,6.79,2.29,7.63,1.23-3.68-6-2.94-7.15,7.09,1,7.73-.19-4.72-5.23-4.2-6.49,7.15-.3,7.56-1.6-5.6-4.28-5.31-5.61,7-1.6,7.13-3-6.28-3.17-6.25-4.54,6.56-2.86,6.47-4.22-6.76-2-7-3.31,5.92-4,5.58-5.34-7-.67-7.48-2,5.09-5,4.5-6.28-7,.59-7.7-.57,4.07-5.89,3.28-7-6.79,1.87-7.67.85,2.91-6.54,1.93-7.48S408.77,89,407.7,88.1s1.66-7,.52-7.7-5.64,4.21-6.84,3.58.35-7.15-.9-7.67-4.78,5.18-6.08,4.77-1-7.09-2.29-7.38-3.74,6-5.1,5.81-2.23-6.8-3.6-6.83-2.58,6.55-3.94,6.64-3.45-6.27-4.81-6-1.31,6.91-2.64,7.26-4.55-5.53-5.84-5.06,0,7-1.27,7.62-5.5-4.59-6.66-3.91,1.24,6.94.14,7.72-6.24-3.5-7.27-2.62,2.51,6.59,1.57,7.57-6.78-2.3-7.63-1.23,3.68,6,2.94,7.14-7.09-1-7.72.2,4.71,5.23,4.19,6.48-7.15.31-7.55,1.61,5.59,4.27,5.31,5.61-7,1.6-7.14,3,6.29,3.18,6.25,4.54-6.56,2.86-6.47,4.23,6.76,2,7,3.3-5.92,4-5.57,5.35,7,.67,7.47,2-5.08,5-4.5,6.28,7-.6,7.7.57-4.07,5.89-3.28,7,6.79-1.88,7.68-.85-2.92,6.54-1.94,7.47,6.33-3.1,7.39-2.26-1.66,7-.52,7.71,5.64-4.22,6.84-3.58-.35,7.15.91,7.67,4.77-5.18,6.07-4.77,1,7.09,2.29,7.37,3.74-6,5.1-5.8,2.24,6.8,3.6,6.83,2.58-6.55,3.94-6.64,3.46,6.27,4.81,6.05,1.32-6.92,2.64-7.26,4.55,5.52,5.84,5.06S398.34,157.79,399.59,157.21Zm-47.45-30.39c-4.11-2.57-2.74-12.15,3.05-21.4S369,90.76,373.11,93.33s2.74,12.15-3.05,21.4S356.24,129.39,352.14,126.82Zm22.9-3a6.2,6.2,0,1,1,8.24,3A6.2,6.2,0,0,1,375,123.82Zm18-10.38c-5.56-7.56-6.91-16-3-18.89s11.57.94,17.13,8.5,6.91,16,3,18.88S398.56,121,393,113.44Zm-6.53,37c-10.76,1.81-20.13-.6-20.93-5.37s7.27-10.11,18-11.92,20.14.6,20.94,5.38S397.24,148.63,386.47,150.43Z" style="fill:#263238;stroke:#263238;stroke-miterlimit:10"></path><path d="M169.36,92.61c-.92-1,2.76-6.61,1.76-7.52s-6.25,3.24-7.33,2.42,1.5-7,.35-7.71-5.55,4.34-6.76,3.73.18-7.16-1.08-7.65-4.65,5.29-6,4.92-1.14-7.07-2.47-7.32-3.6,6.06-5,5.93-2.41-6.74-3.77-6.74-2.43,6.61-3.79,6.73-3.6-6.18-4.94-5.93-1.17,6.94-2.48,7.31-4.68-5.42-6-4.93.13,7-1.09,7.65-5.6-4.47-6.76-3.75,1.43,6.89.34,7.72-6.31-3.36-7.33-2.44,2.65,6.53,1.74,7.53-6.84-2.14-7.65-1.06,3.8,5.93,3.09,7.07-7.11-.84-7.72.37,4.84,5.12,4.35,6.39-7.15.48-7.52,1.78,5.7,4.14,5.45,5.48-6.93,1.78-7.06,3.14,6.36,3,6.36,4.38-6.49,3-6.37,4.38,6.81,1.8,7.05,3.14-5.83,4.16-5.45,5.47,7,.52,7.51,1.8-5,5.15-4.36,6.38,7-.79,7.72.38-3.93,6-3.1,7.07,6.73-2.06,7.65-1-2.75,6.62-1.76,7.53,6.26-3.24,7.34-2.43-1.5,7-.35,7.72,5.54-4.34,6.76-3.73-.18,7.15,1.08,7.64,4.65-5.29,6-4.92,1.13,7.07,2.47,7.32,3.6-6.05,4.95-5.93,2.41,6.74,3.77,6.75,2.43-6.61,3.78-6.74,3.6,6.19,4.94,5.94,1.18-6.94,2.49-7.31,4.67,5.42,5.95,4.93-.14-7,1.09-7.65,5.59,4.46,6.76,3.74-1.44-6.89-.34-7.72,6.31,3.37,7.33,2.44-2.65-6.53-1.74-7.52,6.83,2.14,7.65,1.06-3.81-5.93-3.09-7.08,7.11.85,7.71-.37-4.83-5.12-4.34-6.38,7.14-.48,7.51-1.79-5.7-4.14-5.45-5.47,6.94-1.78,7.06-3.14-6.36-3-6.35-4.39,6.49-3,6.36-4.37-6.8-1.81-7-3.15,5.83-4.15,5.46-5.46-7-.53-7.51-1.8,5-5.16,4.35-6.38-7,.79-7.71-.38,3.92-6,3.1-7.07S170.29,93.63,169.36,92.61Zm-15,54.32c-1.24,4.68-10.8,6.22-21.35,3.42S115,141.5,116.19,136.82s10.8-6.21,21.35-3.42S155.64,142.25,154.4,146.93Zm-9.65-21a6.2,6.2,0,1,1,.41-8.76A6.21,6.21,0,0,1,144.75,126Zm-15.24-14.08c-5.57,7.55-13.25,11.34-17.15,8.47s-2.53-11.33,3-18.88S128.65,90.12,132.55,93,135.08,104.32,129.51,111.87Zm37.27-4.72c4.91,9.74,5.39,19.41,1.07,21.59s-11.81-4-16.73-13.7-5.39-19.41-1.07-21.59S161.87,97.4,166.78,107.15Z" style="fill:#263238;stroke:#263238;stroke-miterlimit:10"></path></g><g id="Capsule"><circle cx="260.27" cy="251.29" r="171.78" transform="translate(-101.46 257.64) rotate(-45)" style="fill:#fff;stroke:#263238;stroke-linecap:round;stroke-linejoin:round"></circle><path d="M168.56,396.56a171.87,171.87,0,0,0,183.41,0Z" style="fill:#263238;stroke:#263238;stroke-miterlimit:10"></path><path d="M168.56,106A171.87,171.87,0,0,1,352,106Z" style="fill:#263238;stroke:#263238;stroke-miterlimit:10"></path></g><g id="Controls"><path d="M385.74,151.22H333.58a2.17,2.17,0,1,1,0-4.33h52.16a2.17,2.17,0,0,1,0,4.33Z" style="fill:#fff;stroke:#263238;stroke-linecap:round;stroke-linejoin:round"></path><rect x="338.24" y="145.13" width="9.15" height="9.15" style="fill:#fff;stroke:#263238;stroke-linecap:round;stroke-linejoin:round"></rect><path d="M385.74,173.88H333.58a2.16,2.16,0,1,1,0-4.32h52.16a2.16,2.16,0,0,1,0,4.32Z" style="fill:#fff;stroke:#263238;stroke-linecap:round;stroke-linejoin:round"></path><rect x="355.89" y="167.8" width="9.15" height="9.15" style="fill:#fff;stroke:#263238;stroke-linecap:round;stroke-linejoin:round"></rect><path d="M385.74,196.54H333.58a2.16,2.16,0,1,1,0-4.32h52.16a2.16,2.16,0,0,1,0,4.32Z" style="fill:#fff;stroke:#263238;stroke-linecap:round;stroke-linejoin:round"></path><rect x="372.01" y="190.46" width="9.15" height="9.15" style="fill:#fff;stroke:#263238;stroke-linecap:round;stroke-linejoin:round"></rect><rect x="130" y="180.35" width="7.95" height="7.95" style="fill:#fff;stroke:#263238;stroke-linecap:round;stroke-linejoin:round"></rect><rect x="144.02" y="180.35" width="7.95" height="7.95" style="fill:#fff;stroke:#263238;stroke-linecap:round;stroke-linejoin:round"></rect><rect x="158.05" y="180.35" width="7.95" height="7.95" style="fill:#fff;stroke:#263238;stroke-linecap:round;stroke-linejoin:round"></rect><rect x="172.07" y="180.35" width="7.95" height="7.95" style="fill:#92E3A9;stroke:#000;stroke-linecap:round;stroke-linejoin:round"></rect><rect x="186.1" y="180.35" width="7.95" height="7.95" style="fill:#fff;stroke:#263238;stroke-linecap:round;stroke-linejoin:round"></rect><rect x="130" y="164.94" width="7.95" height="7.95" style="fill:#fff;stroke:#263238;stroke-linecap:round;stroke-linejoin:round"></rect><rect x="144.02" y="164.94" width="7.95" height="7.95" style="fill:#92E3A9;stroke:#000;stroke-linecap:round;stroke-linejoin:round"></rect><rect x="158.05" y="164.94" width="7.95" height="7.95" style="fill:#fff;stroke:#263238;stroke-linecap:round;stroke-linejoin:round"></rect><rect x="172.07" y="164.94" width="7.95" height="7.95" style="fill:#fff;stroke:#263238;stroke-linecap:round;stroke-linejoin:round"></rect><rect x="186.1" y="164.94" width="7.95" height="7.95" style="fill:#fff;stroke:#263238;stroke-linecap:round;stroke-linejoin:round"></rect><rect x="130" y="149.52" width="7.95" height="7.95" style="fill:#fff;stroke:#263238;stroke-linecap:round;stroke-linejoin:round"></rect><rect x="144.02" y="149.52" width="7.95" height="7.95" style="fill:#fff;stroke:#263238;stroke-linecap:round;stroke-linejoin:round"></rect><rect x="158.05" y="149.52" width="7.95" height="7.95" style="fill:#fff;stroke:#263238;stroke-linecap:round;stroke-linejoin:round"></rect><rect x="172.07" y="149.52" width="7.95" height="7.95" style="fill:#92E3A9;stroke:#000;stroke-linecap:round;stroke-linejoin:round"></rect><rect x="186.1" y="149.52" width="7.95" height="7.95" style="fill:#fff;stroke:#263238;stroke-linecap:round;stroke-linejoin:round"></rect></g><g id="Circles"><path d="M174.5,286a32.23,32.23,0,0,0,7.25-3.05,31.68,31.68,0,0,0,10.18-9.37,31.78,31.78,0,0,0-12.79-47,31.63,31.63,0,0,0-18.75-2.44,31.77,31.77,0,0,0-7.82,60.16A31.56,31.56,0,0,0,174.5,286Zm-37.69-32.77a29.12,29.12,0,1,1,55.49,14.38,29.93,29.93,0,0,1-2.54,4.46,29.13,29.13,0,0,1-52.95-14.44" style="fill:none;stroke:#263238;stroke-linecap:round;stroke-linejoin:round"></path><path d="M174.5,286a32.23,32.23,0,0,0,7.25-3.05,31.68,31.68,0,0,0,10.18-9.37,31.78,31.78,0,0,0-12.79-47,31.63,31.63,0,0,0-18.75-2.44,31.77,31.77,0,0,0-7.82,60.16A31.56,31.56,0,0,0,174.5,286Z" style="fill:none;stroke:#263238;stroke-linecap:round;stroke-linejoin:round"></path><path d="M183.12,289.32c.59-.3,1.18-.62,1.76-1A38,38,0,0,0,159.31,218,38,38,0,1,0,176.2,292q1.1-.31,2.19-.69M137,242.15a31.77,31.77,0,1,1,57.72,26.57,32.09,32.09,0,0,1-2.78,4.86A31.68,31.68,0,0,1,181.75,283,32.23,32.23,0,0,1,174.5,286,31.77,31.77,0,0,1,137,242.15Z" style="fill:none;stroke:#263238;stroke-linecap:round;stroke-linejoin:round"></path><path d="M207.5,250.85a41.62,41.62,0,0,1-3.59,22.1l-3.51-1.61A37.8,37.8,0,0,0,203.86,254" style="fill:none;stroke:#263238;stroke-linecap:round;stroke-linejoin:round"></path><path d="M203.4,249.38A38,38,0,0,0,159.31,218l-.66-3.81a41.91,41.91,0,0,1,48.27,33" style="fill:none;stroke:#263238;stroke-linecap:round;stroke-linejoin:round"></path><path d="M194.71,268.72l-2.41-1.11a29.11,29.11,0,0,0-31.45-40.86l-.46-2.62a31.77,31.77,0,0,1,34.32,44.59Z" style="fill:none;stroke:#263238;stroke-linecap:round;stroke-linejoin:round"></path><path d="M181.75,283l-1.33-2.3a29.05,29.05,0,0,0,9.34-8.58l2.17,1.51A31.68,31.68,0,0,1,181.75,283Z" style="fill:none;stroke:#263238;stroke-linecap:round;stroke-linejoin:round"></path><path d="M186.81,291.71l-1.93-3.35a37.73,37.73,0,0,0,12.19-11.2l3.18,2.2A41.74,41.74,0,0,1,186.81,291.71Z" style="fill:none;stroke:#263238;stroke-linecap:round;stroke-linejoin:round"></path><path d="M128.94,235.6a41.79,41.79,0,0,1,15.81-16.36l1.95,3.34A38,38,0,0,0,176.2,292l1.05,3.71a41.89,41.89,0,0,1-50.27-56" style="fill:none;stroke:#263238;stroke-linecap:round;stroke-linejoin:round"></path><path d="M247.07,152.12a22.72,22.72,0,0,0,12.45-8.87,22.27,22.27,0,0,0,2-3.47,22.67,22.67,0,0,0-11.11-30.09A22.44,22.44,0,0,0,237,108a22.68,22.68,0,1,0,10.07,44.17Zm-26.9-23.4a20.83,20.83,0,0,1,10.26-16.39,21,21,0,0,1,6.9-2.52A20.79,20.79,0,0,1,259.78,139a20.25,20.25,0,0,1-1.81,3.19,20.59,20.59,0,0,1-6.67,6.12,20,20,0,0,1-4.75,2,20.77,20.77,0,0,1-26.38-18.43" style="fill:none;stroke:#263238;stroke-linecap:round;stroke-linejoin:round"></path><path d="M247.07,152.12a22.72,22.72,0,0,0,12.45-8.87,22.27,22.27,0,0,0,2-3.47,22.67,22.67,0,0,0-11.11-30.09A22.44,22.44,0,0,0,237,108a22.68,22.68,0,1,0,10.07,44.17Z" style="fill:none;stroke:#263238;stroke-linecap:round;stroke-linejoin:round"></path><path d="M253.23,154.48c.42-.21.84-.44,1.25-.68a27,27,0,0,0,11.08-12.16,27.16,27.16,0,0,0-29.33-38.1,27.54,27.54,0,0,0-9,3.29,27.16,27.16,0,0,0,21.06,49.59c.52-.15,1-.32,1.56-.5m-29.56-35.11a22.68,22.68,0,1,1,41.21,19,22.27,22.27,0,0,1-2,3.47,22.69,22.69,0,0,1-39.23-22.44Z" style="fill:none;stroke:#263238;stroke-linecap:round;stroke-linejoin:round"></path><path d="M270.64,127a29.74,29.74,0,0,1-2.57,15.78l-2.51-1.16A27,27,0,0,0,268,129.27" style="fill:none;stroke:#263238;stroke-linecap:round;stroke-linejoin:round"></path><path d="M267.71,126a27.18,27.18,0,0,0-31.48-22.43l-.47-2.71a29.9,29.9,0,0,1,34.46,23.54" style="fill:none;stroke:#263238;stroke-linecap:round;stroke-linejoin:round"></path><path d="M261.5,139.78l-1.72-.8a20.79,20.79,0,0,0-22.45-29.17L237,108a22.44,22.44,0,0,1,13.39,1.74A22.67,22.67,0,0,1,261.5,139.78Z" style="fill:none;stroke:#263238;stroke-linecap:round;stroke-linejoin:round"></path><path d="M252.25,149.93l-.95-1.64a20.59,20.59,0,0,0,6.67-6.12l1.55,1.08A22.58,22.58,0,0,1,252.25,149.93Z" style="fill:none;stroke:#263238;stroke-linecap:round;stroke-linejoin:round"></path><path d="M255.86,156.19l-1.38-2.39a26.79,26.79,0,0,0,8.71-8l2.27,1.58A29.76,29.76,0,0,1,255.86,156.19Z" style="fill:none;stroke:#263238;stroke-linecap:round;stroke-linejoin:round"></path><path d="M214.55,116.13a29.74,29.74,0,0,1,11.29-11.68l1.39,2.38a27.16,27.16,0,0,0,21.06,49.59l.75,2.65a29.91,29.91,0,0,1-35.89-39.95" style="fill:none;stroke:#263238;stroke-linecap:round;stroke-linejoin:round"></path><path d="M226.21,372a15.84,15.84,0,0,0-1-4.42,20,20,0,0,0-4.8-7.25,26.11,26.11,0,0,0-2.89-2.46c-9.74-7.11-23.74-7.35-31.26-.53a13.63,13.63,0,0,0-4.62,9.3,15.09,15.09,0,0,0,1,6.3,21.53,21.53,0,0,0,7.66,9.65c9.74,7.11,23.74,7.35,31.26.52A13.58,13.58,0,0,0,226.21,372Zm-28.34,13a26,26,0,0,1-6.41-3.41,19.71,19.71,0,0,1-7-8.83,13.77,13.77,0,0,1-.89-5.78,12.52,12.52,0,0,1,4.23-8.52c6.9-6.25,19.73-6,28.65.48a23.58,23.58,0,0,1,2.65,2.25,18.29,18.29,0,0,1,4.39,6.65,14.1,14.1,0,0,1,.88,4.05A12.45,12.45,0,0,1,220.11,382c-4.69,4.26-12.14,5.51-19.23,3.82" style="fill:none;stroke:#263238;stroke-linecap:round;stroke-linejoin:round"></path><path d="M226.21,372a15.84,15.84,0,0,0-1-4.42,20,20,0,0,0-4.8-7.25,26.11,26.11,0,0,0-2.89-2.46c-9.74-7.11-23.74-7.35-31.26-.53a13.63,13.63,0,0,0-4.62,9.3,15.09,15.09,0,0,0,1,6.3,21.53,21.53,0,0,0,7.66,9.65c9.74,7.11,23.74,7.35,31.26.52A13.58,13.58,0,0,0,226.21,372Z" style="fill:none;stroke:#263238;stroke-linecap:round;stroke-linejoin:round"></path><path d="M229.83,368.13c-.11-.38-.24-.75-.38-1.12a23.93,23.93,0,0,0-5.74-8.68,29.56,29.56,0,0,0-3.46-2.94c-11.66-8.52-28.41-8.8-37.42-.64a16.33,16.33,0,0,0-5.52,11.14,17.93,17.93,0,0,0,1.16,7.54A25.76,25.76,0,0,0,187.64,385c11.66,8.52,28.41,8.8,37.42.63a16.28,16.28,0,0,0,5.53-13.3c0-.43-.07-.86-.13-1.29m-40.14,11.53a21.53,21.53,0,0,1-7.66-9.65,15.09,15.09,0,0,1-1-6.3,13.63,13.63,0,0,1,4.62-9.3c7.52-6.82,21.52-6.58,31.26.53a26.11,26.11,0,0,1,2.89,2.46,20,20,0,0,1,4.8,7.25,15.84,15.84,0,0,1,1,4.42,13.58,13.58,0,0,1-4.63,11.11C214.06,389.89,200.06,389.65,190.32,382.54Z" style="fill:none;stroke:#263238;stroke-linecap:round;stroke-linejoin:round"></path><path d="M207.37,347.46a38,38,0,0,1,14.54,6.42l-1.66,1.51A34.17,34.17,0,0,0,209,350" style="fill:none;stroke:#263238;stroke-linecap:round;stroke-linejoin:round"></path><path d="M205.72,349.3c-8.57-1.46-17.25.34-22.89,5.45a16.33,16.33,0,0,0-5.52,11.14l-2.71-.44a17.94,17.94,0,0,1,6.09-12.26c6-5.41,15-7.45,24.05-6.19" style="fill:none;stroke:#263238;stroke-linecap:round;stroke-linejoin:round"></path><path d="M217.57,357.82l-1.14,1c-8.92-6.52-21.75-6.73-28.65-.48a12.52,12.52,0,0,0-4.23,8.52l-1.86-.3a13.63,13.63,0,0,1,4.62-9.3C193.83,350.47,207.83,350.71,217.57,357.82Z" style="fill:none;stroke:#263238;stroke-linecap:round;stroke-linejoin:round"></path><path d="M225.26,367.53l-1.79.22a18.29,18.29,0,0,0-4.39-6.65l1.38-.82A20,20,0,0,1,225.26,367.53Z" style="fill:none;stroke:#263238;stroke-linecap:round;stroke-linejoin:round"></path><path d="M232.05,366.69l-2.6.32a23.93,23.93,0,0,0-5.74-8.68l2-1.21A26.61,26.61,0,0,1,232.05,366.69Z" style="fill:none;stroke:#263238;stroke-linecap:round;stroke-linejoin:round"></path><path d="M184.58,385.39a27.7,27.7,0,0,1-8.7-11.63l2.59-.33A25.76,25.76,0,0,0,187.64,385c11.66,8.52,28.41,8.8,37.42.63a16.28,16.28,0,0,0,5.53-13.3l2.71.22a17.92,17.92,0,0,1-6.1,14.65c-9.62,8.73-27.29,8.7-40.07.11" style="fill:none;stroke:#263238;stroke-linecap:round;stroke-linejoin:round"></path><path d="M373,322.34a48,48,0,0,0,10.89-4.59,47.54,47.54,0,0,0,15.29-14.06,46.53,46.53,0,0,0,4.17-7.3A47.7,47.7,0,1,0,373,322.34Zm-56.58-49.2a43.72,43.72,0,1,1,83.32,21.58,44.74,44.74,0,0,1-3.82,6.7,43.73,43.73,0,0,1-79.5-21.68" style="fill:none;stroke:#263238;stroke-linecap:round;stroke-linejoin:round"></path><path d="M373,322.34a48,48,0,0,0,10.89-4.59,47.54,47.54,0,0,0,15.29-14.06,46.53,46.53,0,0,0,4.17-7.3A47.7,47.7,0,1,0,373,322.34Z" style="fill:none;stroke:#263238;stroke-linecap:round;stroke-linejoin:round"></path><path d="M386,327.32c.9-.46,1.78-.93,2.65-1.43a56.82,56.82,0,0,0,18.31-16.83,57.9,57.9,0,0,0,5-8.74,57.1,57.1,0,1,0-36.33,31.06c1.1-.31,2.2-.66,3.28-1M316.7,256.5a47.7,47.7,0,1,1,86.66,39.89,46.53,46.53,0,0,1-4.17,7.3,47.54,47.54,0,0,1-15.29,14.06A48,48,0,0,1,373,322.34,47.7,47.7,0,0,1,316.7,256.5Z" style="fill:none;stroke:#263238;stroke-linecap:round;stroke-linejoin:round"></path><path d="M422.57,269.56a62.58,62.58,0,0,1-5.4,33.19l-5.27-2.43a56.75,56.75,0,0,0,5.2-26" style="fill:none;stroke:#263238;stroke-linecap:round;stroke-linejoin:round"></path><path d="M416.41,267.35a57.12,57.12,0,0,0-66.19-47.16l-1-5.71A62.9,62.9,0,0,1,421.69,264" style="fill:none;stroke:#263238;stroke-linecap:round;stroke-linejoin:round"></path><path d="M403.36,296.39l-3.61-1.67a43.72,43.72,0,0,0-47.23-61.34l-.69-3.93a47.7,47.7,0,0,1,51.53,66.94Z" style="fill:none;stroke:#263238;stroke-linecap:round;stroke-linejoin:round"></path><path d="M383.9,317.75l-2-3.45a43.61,43.61,0,0,0,14-12.88l3.26,2.27A47.54,47.54,0,0,1,383.9,317.75Z" style="fill:none;stroke:#263238;stroke-linecap:round;stroke-linejoin:round"></path><path d="M391.5,330.91l-2.9-5a56.82,56.82,0,0,0,18.31-16.83l4.76,3.31A62.54,62.54,0,0,1,391.5,330.91Z" style="fill:none;stroke:#263238;stroke-linecap:round;stroke-linejoin:round"></path><path d="M304.62,246.67a62.53,62.53,0,0,1,23.73-24.57l2.92,5a57.1,57.1,0,0,0,44.3,104.27l1.57,5.58a62.89,62.89,0,0,1-75.46-84" style="fill:none;stroke:#263238;stroke-linecap:round;stroke-linejoin:round"></path></g><g id="Character"><path d="M331.92,154.34s3.43-1.07,3.55.47-.24,6.64-1,7.47-2.71.95-3.54,1.07-3.33-4.27-1.91-6.64S331.92,154.34,331.92,154.34Z" style="fill:#fff;stroke:#263238;stroke-linecap:round;stroke-linejoin:round"></path><path d="M321.51,166.5s5.55-10.09,6.44-11.61,7.32-5.17,8.7-6.06,2.28-.88,2.28.38-2.78,2.53-3.66,3.28a44.73,44.73,0,0,0-4.29,4.17,15.39,15.39,0,0,0-.26,1.89s4.42-1.26,5.68-1.77,2.27-1.13,1.9.26-.64,2-1.52,2.52-2.14,1.26-3,1.64a13.68,13.68,0,0,0-2.77,2.15,15.79,15.79,0,0,1-3,1.64l-1.9,5Z" style="fill:#fff;stroke:#263238;stroke-linecap:round;stroke-linejoin:round"></path><path d="M206,185.58l-2-1.15s-1.56-7.07-2.52-8.87-2.6-2-3.34-1.15.67,1.8,1.19,2.3.74,2,.81,3.45a15.85,15.85,0,0,1,0,2.21s-5,5.75-5,7,.66,1.72,2.67,3,3.48,5.26,3.48,5.26l6.83-1.48s-.52-2.95-.52-3.69,1.26-5.59,1.11-6.41-2.59-3.37-3-4.85-1.56-.08-1.26,1.24a11.27,11.27,0,0,0,1.63,3.12,7.16,7.16,0,0,1-1.19,1.8,5.87,5.87,0,0,0-1.92,2.47c-.37,1.15-.6,1.72-.37,2.22" style="fill:#fff;stroke:#263238;stroke-linecap:round;stroke-linejoin:round"></path><path d="M200.14,182.37s-2.08-1.23-2.74-.57a1.56,1.56,0,0,0-.3,2c.3.66,1,3.7,1.56,4a1,1,0,0,0,1.48-.5c.22-.57-.59-4-.59-4Z" style="fill:#fff;stroke:#263238;stroke-linecap:round;stroke-linejoin:round"></path><path d="M196.88,182.87s-1.86,1-2,2.3,1.56,3.28,2.45,3.45,1.34-.82,1.34-.82Z" style="fill:#fff;stroke:#263238;stroke-linecap:round;stroke-linejoin:round"></path><path d="M194.8,186a2.89,2.89,0,0,0-.59,1.56c0,.82,0,3.28.89,3.37s.44-1.73.52-2.22a6.81,6.81,0,0,1,.44-1.32Z" style="fill:#fff;stroke:#263238;stroke-linecap:round;stroke-linejoin:round"></path><path d="M321.51,166.5c-2.6,1.54-17.78,16.17-17.78,16.17l-10.3,4.26s-5-.24-6.63-.47a34.15,34.15,0,0,0-8.77.59c-2.84.59-9.23,1.42-9.23,1.42l-.27,1.05c-.66-3.22-1-17.26-1-17.26l-6.78.3-6.77-.3S253.62,188,252.88,190s-12.77,1.86-16.86,3.22-6.32,7.56-6.81,11.15-7.06,12.14-7.31,12.51-10.84-18.16-12.45-22.37l-8.55,3.34s7.74,16.93,9.72,23.12,11.15,15.49,12.39,14.5,14.38-16.23,14.38-16.23a84.86,84.86,0,0,1,4,11.4c1.36,5.45,1.49,10.78.87,12.76s-4.59,14.41-6.71,19.87-6.07,15.17-1.22,29.43S246,318.93,246,323.63s-2.73,7.43-1.36,16.69,5.61,29.27,5.61,35.49a33.85,33.85,0,0,1-1.52,10.77c-.45,1.82-4.24,5.92-5.15,6.83s-2.58,1.51-1.52,2.73,16.67.15,18.73,0c2.07.14,17.75,1.12,18.74,0s-.61-1.82-1.52-2.73-4.7-5-5.16-6.83a34.28,34.28,0,0,1-1.51-10.77c0-6.22,4.24-26.24,5.61-35.49s-1.37-12-1.37-16.69,6.83-16.69,11.68-30.95.91-24-1.21-29.43-6.09-17.89-6.71-19.87a9.67,9.67,0,0,1-.32-2.19l2.36-13.05a17.26,17.26,0,0,0,2.25-5c1.15-3.7-.59-5.8-1.42-8.76s-2.13-9.23-2.13-9.23,9.94-3.91,11.36-4.5,15.28-4.27,16.34-5S326.05,170,326.05,170Z" style="fill:#92E3A9;stroke:#000;stroke-linecap:round;stroke-linejoin:round"></path><line x1="237.39" y1="219.22" x2="244.24" y2="211.42" style="fill:none;stroke:#000;stroke-linecap:round;stroke-linejoin:round"></line><path d="M221.9,216.86s4.9,3.32,6.09,7.11" style="fill:none;stroke:#000;stroke-linecap:round;stroke-linejoin:round"></path><path d="M245.44,345.4c1.77,10.14,4.78,25.17,4.78,30.41a33.85,33.85,0,0,1-1.52,10.77c-.45,1.82-4.24,5.92-5.15,6.83s-2.58,1.51-1.52,2.73,16.67.15,18.73,0c2.07.14,17.75,1.12,18.74,0s-.61-1.82-1.52-2.73-4.7-5-5.16-6.83a34.28,34.28,0,0,1-1.51-10.77c0-5.24,3-20.27,4.78-30.41Z" style="fill:#fff;stroke:#263238;stroke-linecap:round;stroke-linejoin:round"></path><path d="M267.54,172.26l-6.78.3-6.77-.3s-.14,5.76-.41,10.75H268C267.67,178,267.54,172.26,267.54,172.26Z" style="fill:#fff;stroke:#263238;stroke-linecap:round;stroke-linejoin:round"></path><path d="M270.18,227.7a80.42,80.42,0,0,1-2.84-9.38,9.88,9.88,0,0,1,.25-4.45h-.17a17.3,17.3,0,0,0,1.7-8.25,7.39,7.39,0,0,0-.37-1.69l-13.81.62a7,7,0,0,0,0,1.72,18.69,18.69,0,0,0,3,7.66h-.23s2.39,3.44,2.06,5.61-1.76,8.7-1.76,8.7h.2a16,16,0,0,0-.64,5.41,7.91,7.91,0,0,0,.37,1.7l13.82-.63a7,7,0,0,0,0-1.71,16.72,16.72,0,0,0-1.69-5.31Z" style="fill:#fff"></path><path d="M255.18,264.08s7.82,9.15,8.48,9.15a14.88,14.88,0,0,0,2.66-.67l7.32-7.48" style="fill:none;stroke:#000;stroke-linecap:round;stroke-linejoin:round"></path><path d="M263.66,273.23s-2.16,32.09-1,43.24-.16,17.12-.16,20.12-.67,8-1.5,20.29a288.32,288.32,0,0,0,.17,31.1,22.51,22.51,0,0,0,.83,5c.33,1.17.83,3,.83,3" style="fill:none;stroke:#000;stroke-linecap:round;stroke-linejoin:round"></path><path d="M244.23,181.13h31.32a26,26,0,1,0-31.32,0Z" style="fill:#fff;stroke:#263238;stroke-linecap:round;stroke-linejoin:round"></path><path d="M244.69,161.92c0,3.86-1.56,7-3.49,7s-3.5-3.12-3.5-7,1.57-7,3.5-7S244.69,158.06,244.69,161.92Z" style="fill:#fff;stroke:#263238;stroke-linecap:round;stroke-linejoin:round"></path><path d="M249.58,156s1.4,5.94-.35,11.18l10.48,5.59,1.05,5.75h15s6.64-6.45,5.94-9.95l-.7-3.49s1.75-10.48-.35-14.32S260.93,140.54,249.58,156Z" style="fill:#fff;stroke:#263238;stroke-linecap:round;stroke-linejoin:round"></path><path d="M281.72,168.55l-.7-3.49s1.75-10.48-.35-14.32c-.61-1.12-2.53-2.44-5.22-3.39l-.15.23a16.92,16.92,0,0,1,1.81,9.89,47.61,47.61,0,0,0-.83,8.24c0,1.16.33,4-1.15,6.27a41.47,41.47,0,0,1-4.29,5.77c-.12.08.19.36.7.75h4.24S282.42,172.05,281.72,168.55Z" style="fill:#263238;stroke:#263238;stroke-linecap:round;stroke-linejoin:round"></path><path d="M273.73,157.13a4.6,4.6,0,0,0-1.54,2.37c-.28,1.4,2.24,7.56,1.26,8s-3.5-.56-3.5-.56" style="fill:none;stroke:#263238;stroke-linecap:round;stroke-linejoin:round"></path><path d="M263.52,159.5c0,.85-.5,1.54-1.12,1.54s-1.12-.69-1.12-1.54.5-1.53,1.12-1.53S263.52,158.65,263.52,159.5Z" style="fill:#263238"></path><path d="M275.69,159.36c0,.85-.5,1.54-1.12,1.54s-1.12-.69-1.12-1.54.5-1.53,1.12-1.53S275.69,158.51,275.69,159.36Z" style="fill:#263238"></path><path d="M269.53,171.54a7.46,7.46,0,0,1-7.41-3.36" style="fill:none;stroke:#263238;stroke-linecap:round;stroke-linejoin:round"></path><path d="M259.88,157s2.52-2.24,7-1" style="fill:none;stroke:#263238;stroke-linecap:round;stroke-linejoin:round"></path><path d="M273.59,156.15s2.36-1.33,2.94,0" style="fill:none;stroke:#263238;stroke-linecap:round;stroke-linejoin:round"></path><path d="M253.42,151.75h22.87l2.76-2.49v-.14C274.59,146,262.87,143.37,253.42,151.75Z" style="fill:#92E3A9;stroke:#000;stroke-linecap:round;stroke-linejoin:round"></path><path d="M255.29,170.39V150.24a25.89,25.89,0,0,0-5.71,5.74s1.4,5.94-.35,11.18Z" style="fill:#92E3A9;stroke:#000;stroke-linecap:round;stroke-linejoin:round"></path><path d="M244.15,189.17s2.29,1.39,8.23,5.59,9.78,3.84,14,1.74,8.57-7.33,8.57-7.33Z" style="fill:#263238;stroke:#263238;stroke-linecap:round;stroke-linejoin:round"></path><rect x="241.2" y="180.78" width="36.68" height="8.38" rx="2.74" style="fill:#fff;stroke:#263238;stroke-linecap:round;stroke-linejoin:round"></rect><path d="M241.2,154.93s-.24-13.8,16-19" style="fill:#fff;stroke:#263238;stroke-linecap:round;stroke-linejoin:round"></path><path d="M241.15,170.74a21.43,21.43,0,0,0,7.16,8.52" style="fill:#fff;stroke:#263238;stroke-linecap:round;stroke-linejoin:round"></path></g><g id="Board"><rect x="266.37" y="228.59" width="166.91" height="46.02" style="fill:#263238;stroke:#263238;stroke-miterlimit:10"></rect><rect x="82.77" y="244.47" width="180.35" height="8.97" rx="4" style="fill:#263238;stroke:#263238;stroke-linecap:round;stroke-linejoin:round"></rect><circle cx="260.26" cy="251.29" r="27.14" style="fill:#fff;stroke:#263238;stroke-linecap:round;stroke-linejoin:round"></circle><path d="M260.26,231.21a20.09,20.09,0,1,0,20.09,20.08A20.08,20.08,0,0,0,260.26,231.21Zm0,32.74a12.66,12.66,0,1,1,12.66-12.66A12.66,12.66,0,0,1,260.26,264Z" style="fill:#fff;stroke:#263238;stroke-linecap:round;stroke-linejoin:round"></path><path d="M274.46,237.09a20,20,0,0,0-14.26-5.87v7.42a12.67,12.67,0,0,1,12.72,12.74h7.42A20,20,0,0,0,274.46,237.09Z" style="fill:#92E3A9;stroke:#000;stroke-linecap:round;stroke-linejoin:round"></path><circle cx="260.26" cy="251.29" r="3.26" style="fill:#263238;stroke:#263238;stroke-linecap:round;stroke-linejoin:round"></circle><path d="M280.17,251.39,259.81,250a1.29,1.29,0,0,0-1.38,1.29v.22a1.29,1.29,0,0,0,1.38,1.29Z" style="fill:#263238"></path><rect x="292.89" y="233.83" width="20.94" height="35.41" style="fill:#fff;stroke:#263238;stroke-linecap:round;stroke-linejoin:round"></rect><rect x="316.29" y="233.83" width="20.94" height="35.41" style="fill:#fff;stroke:#263238;stroke-linecap:round;stroke-linejoin:round"></rect><rect x="339.69" y="233.83" width="20.94" height="35.41" style="fill:#fff;stroke:#263238;stroke-linecap:round;stroke-linejoin:round"></rect><rect x="363.09" y="233.83" width="20.94" height="35.41" style="fill:#fff;stroke:#263238;stroke-linecap:round;stroke-linejoin:round"></rect><rect x="386.49" y="233.83" width="20.94" height="35.41" style="fill:#fff;stroke:#263238;stroke-linecap:round;stroke-linejoin:round"></rect></g><g id="Numbers"><path d="M296.7,265.68V262.6l6.27-9.69c.46-.71.89-1.39,1.3-2a11.21,11.21,0,0,0,1-2,6.57,6.57,0,0,0,.39-2.3,4,4,0,0,0-.5-2.17,1.76,1.76,0,0,0-1.57-.75,2.15,2.15,0,0,0-1.57.56,3,3,0,0,0-.77,1.48,9.5,9.5,0,0,0-.2,2v1.06h-4.27v-1.13a10.73,10.73,0,0,1,.68-4,5.57,5.57,0,0,1,2.15-2.69,6.93,6.93,0,0,1,3.85-1,6.34,6.34,0,0,1,4.89,1.76,6.9,6.9,0,0,1,1.63,4.89,8.73,8.73,0,0,1-.43,2.84,12.31,12.31,0,0,1-1.16,2.43c-.49.77-1,1.57-1.57,2.38l-5.21,7.91h7.72v3.48Z" style="fill:#263238"></path><path d="M322.88,265.68l5.05-22.08h-6.86v-3.33H332.2v2.67l-5.11,22.74Z" style="fill:#263238"></path><path d="M350.76,266a7,7,0,0,1-3.89-1,5.33,5.33,0,0,1-2.1-2.71,11.85,11.85,0,0,1-.62-4,9.26,9.26,0,0,1,.2-2,6.61,6.61,0,0,1,.6-1.67,5.68,5.68,0,0,1,.95-1.34,5.25,5.25,0,0,1,1.29-1,6.43,6.43,0,0,1-1.9-2.15,7.26,7.26,0,0,1-.8-3.47,8.81,8.81,0,0,1,.68-3.59,4.85,4.85,0,0,1,2.08-2.32,7.06,7.06,0,0,1,3.51-.8,6.82,6.82,0,0,1,3.52.82,4.94,4.94,0,0,1,2.05,2.32,8.35,8.35,0,0,1,.64,3.57,7.29,7.29,0,0,1-.77,3.48,6.18,6.18,0,0,1-1.86,2.14,5,5,0,0,1,1.28,1,5.44,5.44,0,0,1,1,1.34,7,7,0,0,1,.6,1.67,9.91,9.91,0,0,1,.2,2,11.16,11.16,0,0,1-.61,4,5.44,5.44,0,0,1-2.1,2.71A6.94,6.94,0,0,1,350.76,266Zm0-3.29a1.91,1.91,0,0,0,1.56-.63,3.25,3.25,0,0,0,.67-1.58,12.64,12.64,0,0,0,.16-2,9.3,9.3,0,0,0-.16-2.06,3.56,3.56,0,0,0-.71-1.61,1.84,1.84,0,0,0-1.52-.63,1.82,1.82,0,0,0-1.49.63,3.75,3.75,0,0,0-.72,1.6,10.54,10.54,0,0,0-.2,2.07,11.64,11.64,0,0,0,.17,2,3.24,3.24,0,0,0,.71,1.59A1.93,1.93,0,0,0,350.76,262.73Zm0-12.14A1.62,1.62,0,0,0,352,250a3,3,0,0,0,.64-1.42,10,10,0,0,0,.19-2.07,5.08,5.08,0,0,0-.47-2.36,1.66,1.66,0,0,0-1.6-.91,1.73,1.73,0,0,0-1.61.91,4.62,4.62,0,0,0-.52,2.33,10.13,10.13,0,0,0,.2,2.08,3.12,3.12,0,0,0,.68,1.44A1.68,1.68,0,0,0,350.76,250.59Z" style="fill:#263238"></path><path d="M373.19,266.05a7,7,0,0,1-3.93-.94,4.79,4.79,0,0,1-1.93-2.66,13.6,13.6,0,0,1-.54-4.05H371a13.74,13.74,0,0,0,.17,2.27,3,3,0,0,0,.69,1.54,1.9,1.9,0,0,0,1.52.52A1.7,1.7,0,0,0,375,262a4.46,4.46,0,0,0,.59-2q.12-1.28.12-3a17.45,17.45,0,0,0-.17-2.57,3.53,3.53,0,0,0-.68-1.71,1.92,1.92,0,0,0-1.57-.61,2,2,0,0,0-1.5.61,3.72,3.72,0,0,0-.88,1.62h-3.73l.25-14.15h11.42v3.89H371l-.25,6.12a3.22,3.22,0,0,1,1.36-.91,6.51,6.51,0,0,1,2-.41,4.92,4.92,0,0,1,3.27.85,5.48,5.48,0,0,1,1.85,2.73,13.74,13.74,0,0,1,.59,4.26,23.55,23.55,0,0,1-.27,3.7,8.17,8.17,0,0,1-1,2.93,5,5,0,0,1-2,1.93A7.15,7.15,0,0,1,373.19,266.05Z" style="fill:#263238"></path><path d="M396.48,266.05a6.64,6.64,0,0,1-3.68-.94,5.91,5.91,0,0,1-2.2-2.6,9.38,9.38,0,0,1-.73-3.83V247.42a10,10,0,0,1,.7-3.9,5.6,5.6,0,0,1,2.17-2.62,7.93,7.93,0,0,1,7.49,0,5.72,5.72,0,0,1,2.17,2.62,10,10,0,0,1,.7,3.9v11.26a9.22,9.22,0,0,1-.74,3.83,5.82,5.82,0,0,1-2.19,2.6A6.65,6.65,0,0,1,396.48,266.05Zm0-3.73a1.76,1.76,0,0,0,1.45-.59,3.23,3.23,0,0,0,.62-1.45,8.64,8.64,0,0,0,.16-1.66V247.49a11.14,11.14,0,0,0-.14-1.74,3.11,3.11,0,0,0-.61-1.46,1.78,1.78,0,0,0-1.48-.6,1.74,1.74,0,0,0-1.47.6,3.11,3.11,0,0,0-.61,1.46,10,10,0,0,0-.14,1.74v11.13a7.93,7.93,0,0,0,.17,1.66,3.37,3.37,0,0,0,.64,1.45A1.72,1.72,0,0,0,396.48,262.32Z" style="fill:#263238"></path></g><g id="Lines"><line x1="95.7" y1="195.04" x2="14.02" y2="195.04" style="fill:none;stroke:#263238;stroke-miterlimit:10"></line><line x1="82.6" y1="222.01" x2="61.02" y2="222.01" style="fill:none;stroke:#263238;stroke-miterlimit:10"></line><line x1="304.52" y1="64.81" x2="262.14" y2="64.81" style="fill:none;stroke:#263238;stroke-miterlimit:10"></line><line x1="293.73" y1="54.79" x2="60.25" y2="54.79" style="fill:none;stroke:#263238;stroke-miterlimit:10"></line><line x1="388.51" y1="54.79" x2="334.66" y2="54.79" style="fill:none;stroke:#263238;stroke-miterlimit:10"></line><line x1="104.17" y1="332.97" x2="64.87" y2="332.97" style="fill:none;stroke:#263238;stroke-miterlimit:10"></line><line x1="55.63" y1="333.74" x2="43.3" y2="333.74" style="fill:none;stroke:#263238;stroke-miterlimit:10"></line><line x1="262.14" y1="433.14" x2="51" y2="433.14" style="fill:none;stroke:#263238;stroke-miterlimit:10"></line><line x1="477.9" y1="345.3" x2="301.44" y2="345.3" style="fill:none;stroke:#263238;stroke-miterlimit:10"></line><line x1="316.85" y1="373.04" x2="353.07" y2="373.04" style="fill:none;stroke:#263238;stroke-miterlimit:10"></line><line x1="244.23" y1="451" x2="280.45" y2="451" style="fill:none;stroke:#263238;stroke-miterlimit:10"></line><line x1="483.29" y1="191.18" x2="408.55" y2="191.18" style="fill:none;stroke:#263238;stroke-miterlimit:10"></line></g></svg>
