<svg xmlns="http://www.w3.org/2000/svg" viewBox="0 0 500 500"><g id="background-complete"><rect y="382.4" width="500" height="0.25" style="fill:#ebebeb"></rect><rect x="416.78" y="398.49" width="33.12" height="0.25" style="fill:#ebebeb"></rect><rect x="322.53" y="401.21" width="8.69" height="0.25" style="fill:#ebebeb"></rect><rect x="396.59" y="389.21" width="19.19" height="0.25" style="fill:#ebebeb"></rect><rect x="52.46" y="390.89" width="43.19" height="0.25" style="fill:#ebebeb"></rect><rect x="104.56" y="390.89" width="6.33" height="0.25" style="fill:#ebebeb"></rect><rect x="131.47" y="395.11" width="93.68" height="0.25" style="fill:#ebebeb"></rect><path d="M237,337.8H43.91a5.71,5.71,0,0,1-5.7-5.71V60.66A5.71,5.71,0,0,1,43.91,55H237a5.71,5.71,0,0,1,5.71,5.71V332.09A5.71,5.71,0,0,1,237,337.8ZM43.91,55.2a5.46,5.46,0,0,0-5.45,5.46V332.09a5.46,5.46,0,0,0,5.45,5.46H237a5.47,5.47,0,0,0,5.46-5.46V60.66A5.47,5.47,0,0,0,237,55.2Z" style="fill:#ebebeb"></path><path d="M453.31,337.8H260.21a5.72,5.72,0,0,1-5.71-5.71V60.66A5.72,5.72,0,0,1,260.21,55h193.1A5.71,5.71,0,0,1,459,60.66V332.09A5.71,5.71,0,0,1,453.31,337.8ZM260.21,55.2a5.47,5.47,0,0,0-5.46,5.46V332.09a5.47,5.47,0,0,0,5.46,5.46h193.1a5.47,5.47,0,0,0,5.46-5.46V60.66a5.47,5.47,0,0,0-5.46-5.46Z" style="fill:#ebebeb"></path><rect x="90.62" y="154.6" width="19.43" height="8.49" rx="1.79" style="fill:#f0f0f0"></rect><rect x="90.62" y="186.46" width="19.43" height="8.49" rx="1.79" style="fill:#f0f0f0"></rect><rect x="90.62" y="208.51" width="19.43" height="8.49" rx="1.79" style="fill:#f0f0f0"></rect><rect x="90.62" y="225.66" width="19.43" height="8.49" rx="1.79" style="fill:#ebebeb"></rect><rect x="90.62" y="237.89" width="19.43" height="8.49" rx="1.79" style="fill:#ebebeb"></rect><rect x="90.62" y="250.12" width="19.43" height="8.49" rx="1.79" style="fill:#e0e0e0"></rect><rect x="90.62" y="262.36" width="19.43" height="8.49" rx="1.79" style="fill:#e0e0e0"></rect><rect x="90.62" y="274.59" width="19.43" height="8.49" rx="1.79" style="fill:#e0e0e0"></rect><rect x="90.62" y="286.82" width="19.43" height="8.49" rx="1.79" style="fill:#e0e0e0"></rect><rect x="90.62" y="299.06" width="19.43" height="8.49" rx="1.79" style="fill:#e0e0e0"></rect><rect x="90.62" y="311.29" width="19.43" height="8.49" rx="1.79" style="fill:#e0e0e0"></rect><rect x="90.62" y="323.52" width="19.43" height="8.49" rx="1.79" style="fill:#e0e0e0"></rect><rect x="90.62" y="335.76" width="19.43" height="8.49" rx="1.79" style="fill:#e0e0e0"></rect><rect x="90.62" y="347.99" width="19.43" height="8.49" rx="1.79" style="fill:#e0e0e0"></rect><rect x="90.62" y="360.22" width="19.43" height="8.49" rx="1.79" style="fill:#e0e0e0"></rect><rect x="90.62" y="372.46" width="19.43" height="8.49" rx="1.79" style="fill:#e0e0e0"></rect><rect x="123.88" y="105.66" width="19.43" height="8.49" rx="1.79" style="fill:#f0f0f0"></rect><rect x="123.88" y="137.53" width="19.43" height="8.49" rx="1.79" style="fill:#f0f0f0"></rect><rect x="123.88" y="159.58" width="19.43" height="8.49" rx="1.79" style="fill:#f0f0f0"></rect><rect x="123.88" y="176.72" width="19.43" height="8.49" rx="1.79" style="fill:#ebebeb"></rect><rect x="123.88" y="188.96" width="19.43" height="8.49" rx="1.79" style="fill:#ebebeb"></rect><rect x="123.88" y="201.19" width="19.43" height="8.49" rx="1.79" style="fill:#e0e0e0"></rect><rect x="123.88" y="213.42" width="19.43" height="8.49" rx="1.79" style="fill:#e0e0e0"></rect><rect x="123.88" y="225.66" width="19.43" height="8.49" rx="1.79" style="fill:#e0e0e0"></rect><rect x="123.88" y="237.89" width="19.43" height="8.49" rx="1.79" style="fill:#e0e0e0"></rect><rect x="123.88" y="250.12" width="19.43" height="8.49" rx="1.79" style="fill:#e0e0e0"></rect><rect x="123.88" y="262.36" width="19.43" height="8.49" rx="1.79" style="fill:#e0e0e0"></rect><rect x="123.88" y="274.59" width="19.43" height="8.49" rx="1.79" style="fill:#e0e0e0"></rect><rect x="123.88" y="286.82" width="19.43" height="8.49" rx="1.79" style="fill:#e0e0e0"></rect><rect x="123.88" y="299.06" width="19.43" height="8.49" rx="1.79" style="fill:#e0e0e0"></rect><rect x="123.88" y="311.29" width="19.43" height="8.49" rx="1.79" style="fill:#e0e0e0"></rect><rect x="123.88" y="323.52" width="19.43" height="8.49" rx="1.79" style="fill:#e0e0e0"></rect><rect x="123.88" y="335.76" width="19.43" height="8.49" rx="1.79" style="fill:#e0e0e0"></rect><rect x="123.88" y="347.99" width="19.43" height="8.49" rx="1.79" style="fill:#e0e0e0"></rect><rect x="123.88" y="360.22" width="19.43" height="8.49" rx="1.79" style="fill:#e0e0e0"></rect><rect x="123.88" y="372.46" width="19.43" height="8.49" rx="1.79" style="fill:#e0e0e0"></rect><rect x="157.14" y="179.06" width="19.43" height="8.49" rx="1.79" style="fill:#f0f0f0"></rect><rect x="157.14" y="210.93" width="19.43" height="8.49" rx="1.79" style="fill:#f0f0f0"></rect><rect x="157.14" y="232.98" width="19.43" height="8.49" rx="1.79" style="fill:#f0f0f0"></rect><rect x="157.14" y="250.12" width="19.43" height="8.49" rx="1.79" style="fill:#ebebeb"></rect><rect x="157.14" y="262.36" width="19.43" height="8.49" rx="1.79" style="fill:#ebebeb"></rect><rect x="157.14" y="274.59" width="19.43" height="8.49" rx="1.79" style="fill:#e0e0e0"></rect><rect x="157.14" y="286.82" width="19.43" height="8.49" rx="1.79" style="fill:#e0e0e0"></rect><rect x="157.14" y="299.06" width="19.43" height="8.49" rx="1.79" style="fill:#e0e0e0"></rect><rect x="157.14" y="311.29" width="19.43" height="8.49" rx="1.79" style="fill:#e0e0e0"></rect><rect x="157.14" y="323.52" width="19.43" height="8.49" rx="1.79" style="fill:#e0e0e0"></rect><rect x="157.14" y="335.76" width="19.43" height="8.49" rx="1.79" style="fill:#e0e0e0"></rect><rect x="157.14" y="347.99" width="19.43" height="8.49" rx="1.79" style="fill:#e0e0e0"></rect><rect x="157.14" y="360.22" width="19.43" height="8.49" rx="1.79" style="fill:#e0e0e0"></rect><rect x="157.14" y="372.46" width="19.43" height="8.49" rx="1.79" style="fill:#e0e0e0"></rect><rect x="190.4" y="142.36" width="19.43" height="8.49" rx="1.79" style="fill:#f0f0f0"></rect><rect x="190.4" y="174.23" width="19.43" height="8.49" rx="1.79" style="fill:#f0f0f0"></rect><rect x="190.4" y="196.28" width="19.43" height="8.49" rx="1.79" style="fill:#f0f0f0"></rect><rect x="190.4" y="213.42" width="19.43" height="8.49" rx="1.79" style="fill:#ebebeb"></rect><rect x="190.4" y="225.66" width="19.43" height="8.49" rx="1.79" style="fill:#ebebeb"></rect><rect x="190.4" y="237.89" width="19.43" height="8.49" rx="1.79" style="fill:#e0e0e0"></rect><rect x="190.4" y="250.12" width="19.43" height="8.49" rx="1.79" style="fill:#e0e0e0"></rect><rect x="190.4" y="262.36" width="19.43" height="8.49" rx="1.79" style="fill:#e0e0e0"></rect><rect x="190.4" y="274.59" width="19.43" height="8.49" rx="1.79" style="fill:#e0e0e0"></rect><rect x="190.4" y="286.82" width="19.43" height="8.49" rx="1.79" style="fill:#e0e0e0"></rect><rect x="190.4" y="299.06" width="19.43" height="8.49" rx="1.79" style="fill:#e0e0e0"></rect><rect x="190.4" y="311.29" width="19.43" height="8.49" rx="1.79" style="fill:#e0e0e0"></rect><rect x="190.4" y="323.52" width="19.43" height="8.49" rx="1.79" style="fill:#e0e0e0"></rect><rect x="190.4" y="335.76" width="19.43" height="8.49" rx="1.79" style="fill:#e0e0e0"></rect><rect x="190.4" y="347.99" width="19.43" height="8.49" rx="1.79" style="fill:#e0e0e0"></rect><rect x="190.4" y="360.22" width="19.43" height="8.49" rx="1.79" style="fill:#e0e0e0"></rect><rect x="190.4" y="372.46" width="19.43" height="8.49" rx="1.79" style="fill:#e0e0e0"></rect><rect x="223.65" y="105.66" width="19.43" height="8.49" rx="1.79" style="fill:#f0f0f0"></rect><rect x="223.65" y="137.53" width="19.43" height="8.49" rx="1.79" style="fill:#f0f0f0"></rect><rect x="223.65" y="159.58" width="19.43" height="8.49" rx="1.79" style="fill:#f0f0f0"></rect><rect x="223.65" y="176.72" width="19.43" height="8.49" rx="1.79" style="fill:#ebebeb"></rect><rect x="223.65" y="188.96" width="19.43" height="8.49" rx="1.79" style="fill:#ebebeb"></rect><rect x="223.65" y="201.19" width="19.43" height="8.49" rx="1.79" style="fill:#e0e0e0"></rect><rect x="223.65" y="213.42" width="19.43" height="8.49" rx="1.79" style="fill:#e0e0e0"></rect><rect x="223.65" y="225.66" width="19.43" height="8.49" rx="1.79" style="fill:#e0e0e0"></rect><rect x="223.65" y="237.89" width="19.43" height="8.49" rx="1.79" style="fill:#e0e0e0"></rect><rect x="223.65" y="250.12" width="19.43" height="8.49" rx="1.79" style="fill:#e0e0e0"></rect><rect x="223.65" y="262.36" width="19.43" height="8.49" rx="1.79" style="fill:#e0e0e0"></rect><rect x="223.65" y="274.59" width="19.43" height="8.49" rx="1.79" style="fill:#e0e0e0"></rect><rect x="223.65" y="286.82" width="19.43" height="8.49" rx="1.79" style="fill:#e0e0e0"></rect><rect x="223.65" y="299.06" width="19.43" height="8.49" rx="1.79" style="fill:#e0e0e0"></rect><rect x="223.65" y="311.29" width="19.43" height="8.49" rx="1.79" style="fill:#e0e0e0"></rect><rect x="223.65" y="323.52" width="19.43" height="8.49" rx="1.79" style="fill:#e0e0e0"></rect><rect x="223.65" y="335.76" width="19.43" height="8.49" rx="1.79" style="fill:#e0e0e0"></rect><rect x="223.65" y="347.99" width="19.43" height="8.49" rx="1.79" style="fill:#e0e0e0"></rect><rect x="223.65" y="360.22" width="19.43" height="8.49" rx="1.79" style="fill:#e0e0e0"></rect><rect x="223.65" y="372.46" width="19.43" height="8.49" rx="1.79" style="fill:#e0e0e0"></rect><rect x="256.91" y="166.83" width="19.43" height="8.49" rx="1.79" style="fill:#f0f0f0"></rect><rect x="256.91" y="198.7" width="19.43" height="8.49" rx="1.79" style="fill:#f0f0f0"></rect><rect x="256.91" y="220.75" width="19.43" height="8.49" rx="1.79" style="fill:#f0f0f0"></rect><rect x="256.91" y="237.89" width="19.43" height="8.49" rx="1.79" style="fill:#ebebeb"></rect><rect x="256.91" y="250.12" width="19.43" height="8.49" rx="1.79" style="fill:#ebebeb"></rect><rect x="256.91" y="262.36" width="19.43" height="8.49" rx="1.79" style="fill:#e0e0e0"></rect><rect x="256.91" y="274.59" width="19.43" height="8.49" rx="1.79" style="fill:#e0e0e0"></rect><rect x="256.91" y="286.82" width="19.43" height="8.49" rx="1.79" style="fill:#e0e0e0"></rect><rect x="256.91" y="299.06" width="19.43" height="8.49" rx="1.79" style="fill:#e0e0e0"></rect><rect x="256.91" y="311.29" width="19.43" height="8.49" rx="1.79" style="fill:#e0e0e0"></rect><rect x="256.91" y="323.52" width="19.43" height="8.49" rx="1.79" style="fill:#e0e0e0"></rect><rect x="256.91" y="335.76" width="19.43" height="8.49" rx="1.79" style="fill:#e0e0e0"></rect><rect x="256.91" y="347.99" width="19.43" height="8.49" rx="1.79" style="fill:#e0e0e0"></rect><rect x="256.91" y="360.22" width="19.43" height="8.49" rx="1.79" style="fill:#e0e0e0"></rect><rect x="256.91" y="372.46" width="19.43" height="8.49" rx="1.79" style="fill:#e0e0e0"></rect><rect x="290.17" y="228" width="19.43" height="8.49" rx="1.79" style="fill:#f0f0f0"></rect><rect x="290.17" y="259.86" width="19.43" height="8.49" rx="1.79" style="fill:#f0f0f0"></rect><rect x="290.17" y="281.92" width="19.43" height="8.49" rx="1.79" style="fill:#f0f0f0"></rect><rect x="290.17" y="299.06" width="19.43" height="8.49" rx="1.79" style="fill:#ebebeb"></rect><rect x="290.17" y="311.29" width="19.43" height="8.49" rx="1.79" style="fill:#ebebeb"></rect><rect x="290.17" y="323.52" width="19.43" height="8.49" rx="1.79" style="fill:#e0e0e0"></rect><rect x="290.17" y="335.76" width="19.43" height="8.49" rx="1.79" style="fill:#e0e0e0"></rect><rect x="290.17" y="347.99" width="19.43" height="8.49" rx="1.79" style="fill:#e0e0e0"></rect><rect x="290.17" y="360.22" width="19.43" height="8.49" rx="1.79" style="fill:#e0e0e0"></rect><rect x="290.17" y="372.46" width="19.43" height="8.49" rx="1.79" style="fill:#e0e0e0"></rect><rect x="323.43" y="191.3" width="19.43" height="8.49" rx="1.79" style="fill:#f0f0f0"></rect><rect x="323.43" y="223.16" width="19.43" height="8.49" rx="1.79" style="fill:#f0f0f0"></rect><rect x="323.43" y="245.21" width="19.43" height="8.49" rx="1.79" style="fill:#f0f0f0"></rect><rect x="323.43" y="262.36" width="19.43" height="8.49" rx="1.79" style="fill:#ebebeb"></rect><rect x="323.43" y="274.59" width="19.43" height="8.49" rx="1.79" style="fill:#ebebeb"></rect><rect x="323.43" y="286.82" width="19.43" height="8.49" rx="1.79" style="fill:#e0e0e0"></rect><rect x="323.43" y="299.06" width="19.43" height="8.49" rx="1.79" style="fill:#e0e0e0"></rect><rect x="323.43" y="311.29" width="19.43" height="8.49" rx="1.79" style="fill:#e0e0e0"></rect><rect x="323.43" y="323.52" width="19.43" height="8.49" rx="1.79" style="fill:#e0e0e0"></rect><rect x="323.43" y="335.76" width="19.43" height="8.49" rx="1.79" style="fill:#e0e0e0"></rect><rect x="323.43" y="347.99" width="19.43" height="8.49" rx="1.79" style="fill:#e0e0e0"></rect><rect x="323.43" y="360.22" width="19.43" height="8.49" rx="1.79" style="fill:#e0e0e0"></rect><rect x="323.43" y="372.46" width="19.43" height="8.49" rx="1.79" style="fill:#e0e0e0"></rect><rect x="356.69" y="154.6" width="19.43" height="8.49" rx="1.79" style="fill:#f0f0f0"></rect><rect x="356.69" y="186.46" width="19.43" height="8.49" rx="1.79" style="fill:#f0f0f0"></rect><rect x="356.69" y="208.51" width="19.43" height="8.49" rx="1.79" style="fill:#f0f0f0"></rect><rect x="356.69" y="225.66" width="19.43" height="8.49" rx="1.79" style="fill:#ebebeb"></rect><rect x="356.69" y="237.89" width="19.43" height="8.49" rx="1.79" style="fill:#ebebeb"></rect><rect x="356.69" y="250.12" width="19.43" height="8.49" rx="1.79" style="fill:#e0e0e0"></rect><rect x="356.69" y="262.36" width="19.43" height="8.49" rx="1.79" style="fill:#e0e0e0"></rect><rect x="356.69" y="274.59" width="19.43" height="8.49" rx="1.79" style="fill:#e0e0e0"></rect><rect x="356.69" y="286.82" width="19.43" height="8.49" rx="1.79" style="fill:#e0e0e0"></rect><rect x="356.69" y="299.06" width="19.43" height="8.49" rx="1.79" style="fill:#e0e0e0"></rect><rect x="356.69" y="311.29" width="19.43" height="8.49" rx="1.79" style="fill:#e0e0e0"></rect><rect x="356.69" y="323.52" width="19.43" height="8.49" rx="1.79" style="fill:#e0e0e0"></rect><rect x="356.69" y="335.76" width="19.43" height="8.49" rx="1.79" style="fill:#e0e0e0"></rect><rect x="356.69" y="347.99" width="19.43" height="8.49" rx="1.79" style="fill:#e0e0e0"></rect><rect x="356.69" y="360.22" width="19.43" height="8.49" rx="1.79" style="fill:#e0e0e0"></rect><rect x="356.69" y="372.46" width="19.43" height="8.49" rx="1.79" style="fill:#e0e0e0"></rect><rect x="389.94" y="215.76" width="19.43" height="8.49" rx="1.79" style="fill:#f0f0f0"></rect><rect x="389.94" y="247.63" width="19.43" height="8.49" rx="1.79" style="fill:#f0f0f0"></rect><rect x="389.94" y="269.68" width="19.43" height="8.49" rx="1.79" style="fill:#f0f0f0"></rect><rect x="389.94" y="286.82" width="19.43" height="8.49" rx="1.79" style="fill:#ebebeb"></rect><rect x="389.94" y="299.06" width="19.43" height="8.49" rx="1.79" style="fill:#ebebeb"></rect><rect x="389.94" y="311.29" width="19.43" height="8.49" rx="1.79" style="fill:#e0e0e0"></rect><rect x="389.94" y="323.52" width="19.43" height="8.49" rx="1.79" style="fill:#e0e0e0"></rect><rect x="389.94" y="335.76" width="19.43" height="8.49" rx="1.79" style="fill:#e0e0e0"></rect><rect x="389.94" y="347.99" width="19.43" height="8.49" rx="1.79" style="fill:#e0e0e0"></rect><rect x="389.94" y="360.22" width="19.43" height="8.49" rx="1.79" style="fill:#e0e0e0"></rect><rect x="389.94" y="372.46" width="19.43" height="8.49" rx="1.79" style="fill:#e0e0e0"></rect></g><g id="background-simple"><path d="M104.56,101.62c27.91-59.44,127.05-51.06,165.31-9.25s50.7,68.6,85.21,53,78.52-11.44,81,38.17S398.21,291.78,334,309.13s-64.16,78.76-149.1,66.37c-46.31-6.76-47.36-56.86-40.82-98.3S72.18,170.57,104.56,101.62Z" style="fill:#407BFF"></path><path d="M104.56,101.62c27.91-59.44,127.05-51.06,165.31-9.25s50.7,68.6,85.21,53,78.52-11.44,81,38.17S398.21,291.78,334,309.13s-64.16,78.76-149.1,66.37c-46.31-6.76-47.36-56.86-40.82-98.3S72.18,170.57,104.56,101.62Z" style="fill:#fff;opacity:0.9"></path></g><g id="Shadow"><ellipse id="path" cx="250" cy="416.24" rx="193.89" ry="11.32" style="fill:#f5f5f5"></ellipse></g><g id="disco-ball"><rect x="234.39" y="54.5" width="1.11" height="78.36" style="fill:#263238"></rect><circle cx="234.95" cy="209.14" r="83.02" transform="translate(-79.07 227.39) rotate(-45)" style="fill:#407BFF"></circle><path d="M216,155.93h11.41c.38-4,.81-7.8,1.28-11.2h-9.27A110.3,110.3,0,0,0,216,155.93Z" style="opacity:0.1"></path><path d="M172.35,183.84h11.18a113.23,113.23,0,0,1,3.65-13.4H176.86A94.54,94.54,0,0,0,172.35,183.84Z" style="opacity:0.1"></path><path d="M297.54,234.45H286.36a110.51,110.51,0,0,1-3.65,13.4H293A94.52,94.52,0,0,0,297.54,234.45Z" style="opacity:0.2"></path><path d="M218.92,273.55a110.86,110.86,0,0,1-3.42-11.19H204.33a82.71,82.71,0,0,0,5.53,11.19Z" style="opacity:0.2"></path><path d="M209.25,273.55a82.07,82.07,0,0,1-5.49-11.19h-9.67a75.53,75.53,0,0,0,7.38,11.19Z" style="opacity:0.6000000000000001"></path><path d="M253.88,262.36h-11.4c-.38,4-.81,7.79-1.28,11.19h9.26A110.08,110.08,0,0,0,253.88,262.36Z" style="opacity:0.2"></path><path d="M211.39,183.84h14.28c.17-4.6.39-9.08.65-13.4H213.08C212.4,174.7,211.83,179.18,211.39,183.84Z" style="opacity:0.2"></path><path d="M210.78,233.89c-.44-4.67-.75-9.53-.94-14.52h-14.6c.3,5,.8,9.85,1.51,14.52Z" style="opacity:0.30000000000000004"></path><path d="M274.65,198.91c-.3-5-.8-9.85-1.51-14.52h-14c.44,4.68.76,9.53.94,14.52Z" style="opacity:0.2"></path><path d="M243.7,233.89c.17-4.62.29-9.47.36-14.52H225.84c.07,5,.19,9.9.35,14.52Z" style="opacity:0.2"></path><path d="M282.06,144.73h-5.12a78.12,78.12,0,0,1,9,11.2h6.53A80.14,80.14,0,0,0,282.06,144.73Z" style="opacity:0.2"></path><path d="M187.94,169.88h11.23a117,117,0,0,1,4.36-13.4h-9.75A95.34,95.34,0,0,0,187.94,169.88Z" style="opacity:0.30000000000000004"></path><path d="M254.54,156.48c1,4.16,1.94,8.64,2.72,13.4h12.91a114.42,114.42,0,0,0-4.37-13.4Z" style="opacity:0.5"></path><path d="M156.18,183.84h6.63a87.26,87.26,0,0,1,5.12-13.4h-6.08A81.74,81.74,0,0,0,156.18,183.84Z" style="opacity:0.4"></path><path d="M152.2,209.14a83.58,83.58,0,0,0,.59,9.68h7a90.36,90.36,0,0,1,0-19.36h-7A83.72,83.72,0,0,0,152.2,209.14Z" style="opacity:0.2"></path><path d="M203.2,133.55A71.11,71.11,0,0,1,214.45,129a82.42,82.42,0,0,0-13.09,4.58Z" style="opacity:0.2"></path><path d="M235,126.4c-1.22,0-2.46,2.51-3.61,7.15h7.22C237.4,128.91,236.16,126.4,235,126.4Z" style="opacity:0.2"></path><path d="M257.57,133.55h4.06a55.63,55.63,0,0,0-15.76-6A42.13,42.13,0,0,1,257.57,133.55Z" style="opacity:0.2"></path><path d="M217.93,133.55a28.82,28.82,0,0,1,9.89-6.39,39.75,39.75,0,0,0-14.55,6.39Z" style="opacity:0.2"></path><path d="M317,219.37h-6.95a89.43,89.43,0,0,1-2.83,14.52h6.65A81.15,81.15,0,0,0,317,219.37Z" style="opacity:0.1"></path><path d="M202.09,284.18a74.7,74.7,0,0,1-14.46-10.08h-3.84a83.22,83.22,0,0,0,16.35,10.08Z" style="opacity:0.2"></path><path d="M235,291.88c1.21,0,2.45-2.51,3.61-7.15h-7.22C232.49,289.37,233.73,291.88,235,291.88Z" style="opacity:0.2"></path><path d="M262.75,133.55h2.7a69.51,69.51,0,0,0-14.7-5.3A57.48,57.48,0,0,1,262.75,133.55Z" style="opacity:0.2"></path><path d="M160.38,198.91h8.78a101.61,101.61,0,0,1,2.47-14.52h-8.41A89.44,89.44,0,0,0,160.38,198.91Z" style="opacity:0.5"></path><path d="M163.39,183.84h8.39a94.46,94.46,0,0,1,4.48-13.4h-7.72A86.35,86.35,0,0,0,163.39,183.84Z" style="opacity:0.2"></path><path d="M168.8,169.88h7.69a87.21,87.21,0,0,1,7.13-13.4H177A83.86,83.86,0,0,0,168.8,169.88Z" style="opacity:0.30000000000000004"></path><path d="M183.62,261.81a86.86,86.86,0,0,1-7.13-13.41H168.8A83.56,83.56,0,0,0,177,261.81Z" style="opacity:0.2"></path><path d="M171.63,233.89a101.37,101.37,0,0,1-2.47-14.52h-8.78a89.44,89.44,0,0,0,2.84,14.52Z" style="opacity:0.5"></path><path d="M245.93,134.1a57.93,57.93,0,0,1,4.83,10.08h8.93a51.07,51.07,0,0,0-7.91-10.08Z" style="opacity:0.30000000000000004"></path><path d="M258.36,134.1a58.28,58.28,0,0,1,10.31,10.08h6.93a65.72,65.72,0,0,0-13-10.08Z" style="opacity:0.2"></path><path d="M211.53,284.18a57.6,57.6,0,0,1-10.31-10.08h-6.93a65.78,65.78,0,0,0,13,10.08Z" style="opacity:0.2"></path><path d="M310.11,209.14a91,91,0,0,0-.53-9.68h-8.79c.3,3.18.46,6.41.46,9.68s-.16,6.5-.46,9.68h8.79A90.88,90.88,0,0,0,310.11,209.14Z" style="opacity:0.2"></path><path d="M313.9,184.39h-6.65a88.57,88.57,0,0,1,2.82,14.52h7A81.15,81.15,0,0,0,313.9,184.39Z" style="opacity:0.2"></path><path d="M217.34,284.18a52.51,52.51,0,0,1-7.75-10.08h-7.67a56.47,56.47,0,0,0,10.56,10.08Z" style="opacity:0.2"></path><path d="M266.7,133.55h1.83A82.31,82.31,0,0,0,255.45,129,71.89,71.89,0,0,1,266.7,133.55Z" style="opacity:0.2"></path><path d="M275.6,274.1h-6.93a57.6,57.6,0,0,1-10.31,10.08h4.25A65.72,65.72,0,0,0,275.6,274.1Z" style="opacity:0.2"></path><path d="M251,144.73a109.25,109.25,0,0,1,3.43,11.2h11.16a80.56,80.56,0,0,0-5.53-11.2Z" style="fill:#fff;opacity:0.2"></path><path d="M241.2,144.73c.47,3.4.9,7.16,1.28,11.2h11.4a110.3,110.3,0,0,0-3.42-11.2Z" style="fill:#fff;opacity:0.5"></path><path d="M229.28,144.73c-.47,3.33-.91,7.08-1.31,11.2h13.95c-.4-4.12-.83-7.87-1.3-11.2Z" style="fill:#fff;opacity:0.2"></path><path d="M260.65,144.73a85.22,85.22,0,0,1,5.49,11.2h9.67a76.48,76.48,0,0,0-7.39-11.2Z" style="fill:#fff;opacity:0.5"></path><path d="M184.65,155.93h8.81a77.22,77.22,0,0,1,7.31-11.2h-7A76.35,76.35,0,0,0,184.65,155.93Z" style="fill:#fff;opacity:0.2"></path><path d="M177.08,169.88h10.29a95.75,95.75,0,0,1,5.8-13.4h-8.9A87,87,0,0,0,177.08,169.88Z" style="fill:#fff;opacity:0.2"></path><path d="M194.09,155.93h9.67a82.79,82.79,0,0,1,5.49-11.2h-7.78A75.64,75.64,0,0,0,194.09,155.93Z" style="fill:#fff;opacity:0.4"></path><path d="M204.33,155.93H215.5a109.33,109.33,0,0,1,3.42-11.2h-9.06A82.85,82.85,0,0,0,204.33,155.93Z" style="fill:#fff;opacity:0.2"></path><path d="M288.36,209.14c0-3.27-.14-6.5-.38-9.68H275.24c.18,3.18.28,6.41.28,9.68s-.1,6.5-.28,9.68H288C288.22,215.64,288.36,212.42,288.36,209.14Z" style="fill:#fff;opacity:0.5"></path><path d="M282,248.4H270.72a114.61,114.61,0,0,1-4.36,13.41h9.75A93.82,93.82,0,0,0,282,248.4Z" style="fill:#fff;opacity:0.1"></path><path d="M287.94,219.37H275.21c-.3,5-.8,9.85-1.51,14.52h12.22A123.83,123.83,0,0,0,287.94,219.37Z" style="opacity:0.2"></path><path d="M285.8,234.45H273.6c-.72,4.65-1.64,9.13-2.74,13.4h11.28A111.35,111.35,0,0,0,285.8,234.45Z" style="fill:#fff;opacity:0.5"></path><path d="M270.17,248.4H257.26c-.78,4.77-1.69,9.25-2.73,13.41h11.26A114,114,0,0,0,270.17,248.4Z" style="opacity:0.5"></path><path d="M256.73,248.4H243.54c-.28,4.71-.62,9.21-1,13.41H254C255.05,257.66,256,253.17,256.73,248.4Z" style="fill:#fff;opacity:0.2"></path><path d="M276.73,156.48a96.94,96.94,0,0,1,5.8,13.4h10.28a87.83,87.83,0,0,0-7.18-13.4Z" style="fill:#fff;opacity:0.5"></path><path d="M269.13,144.73a78,78,0,0,1,7.3,11.2h8.82a77,77,0,0,0-9.09-11.2Z" style="fill:#fff;opacity:0.2"></path><path d="M242,261.81c.39-4.11.74-8.59,1-13.41H226.89c.29,4.82.64,9.3,1,13.41Z" style="fill:#fff;opacity:0.7000000000000001"></path><path d="M282.71,170.44a109.52,109.52,0,0,1,3.65,13.4h11.18a94.52,94.52,0,0,0-4.5-13.4Z" style="fill:#fff;opacity:0.1"></path><path d="M300.18,198.91a100,100,0,0,0-2.49-14.52H286.48a122,122,0,0,1,2,14.52Z" style="fill:#fff;opacity:0.2"></path><path d="M292.81,248.4H282.53a96.58,96.58,0,0,1-5.81,13.41h8.9A86.65,86.65,0,0,0,292.81,248.4Z" style="fill:#fff;opacity:0.2"></path><path d="M285.24,262.36h-8.82a76.49,76.49,0,0,1-7.29,11.19h7A77.52,77.52,0,0,0,285.24,262.36Z" style="fill:#fff;opacity:0.30000000000000004"></path><path d="M300.18,219.37H288.49a121.76,121.76,0,0,1-2,14.52h11.21A100,100,0,0,0,300.18,219.37Z" style="fill:#fff;opacity:0.4"></path><path d="M275.8,262.36h-9.67a83.24,83.24,0,0,1-5.48,11.19h7.77A75.53,75.53,0,0,0,275.8,262.36Z" style="fill:#fff;opacity:0.2"></path><path d="M300.7,209.14c0-3.27-.17-6.5-.46-9.68h-11.7c.24,3.18.37,6.41.37,9.68s-.13,6.5-.37,9.68h11.7C300.53,215.64,300.7,212.42,300.7,209.14Z" style="fill:#fff;opacity:0.1"></path><path d="M286.28,156.48a89,89,0,0,1,7.13,13.4h7.69a84.64,84.64,0,0,0-8.22-13.4Z" style="fill:#fff;opacity:0.2"></path><path d="M293.63,170.44a95.77,95.77,0,0,1,4.49,13.4h8.38a87.33,87.33,0,0,0-5.14-13.4Z" style="fill:#fff;opacity:0.2"></path><path d="M265.56,262.36H254.39A108.35,108.35,0,0,1,251,273.55H260A81.55,81.55,0,0,0,265.56,262.36Z" style="fill:#fff;opacity:0.2"></path><path d="M309.52,198.91a88.4,88.4,0,0,0-2.85-14.52h-8.41a100.23,100.23,0,0,1,2.48,14.52Z" style="opacity:0.4"></path><path d="M187.18,247.85a112.36,112.36,0,0,1-3.65-13.4H172.35a94.54,94.54,0,0,0,4.51,13.4Z" style="fill:#fff;opacity:0.30000000000000004"></path><path d="M193.17,261.81a96.58,96.58,0,0,1-5.81-13.41H177.08a87.51,87.51,0,0,0,7.19,13.41Z" style="fill:#fff;opacity:0.2"></path><path d="M169.19,209.14c0,3.28.17,6.5.47,9.68h11.7c-.24-3.18-.38-6.4-.38-9.68s.14-6.5.38-9.68h-11.7C169.36,202.64,169.19,205.87,169.19,209.14Z" style="fill:#fff;opacity:0.2"></path><path d="M200.77,273.55a76.53,76.53,0,0,1-7.3-11.19h-8.81a76.2,76.2,0,0,0,9.08,11.19Z" style="fill:#fff;opacity:0.2"></path><path d="M183.41,233.89a123.84,123.84,0,0,1-2-14.52H169.71a101.38,101.38,0,0,0,2.49,14.52Z" style="fill:#fff;opacity:0.5"></path><path d="M240.62,273.55c.47-3.33.9-7.07,1.3-11.19H228c.4,4.12.84,7.86,1.31,11.19Z" style="fill:#fff;opacity:0.4"></path><path d="M228.7,273.55c-.47-3.4-.9-7.15-1.28-11.19H216a110.16,110.16,0,0,0,3.41,11.19Z" style="fill:#fff;opacity:0.2"></path><path d="M169.71,198.91H181.4a124.13,124.13,0,0,1,2-14.52H172.2A101.38,101.38,0,0,0,169.71,198.91Z" style="fill:#fff;opacity:0.30000000000000004"></path><path d="M243.58,170.44c.26,4.32.47,8.8.64,13.4h14.29c-.45-4.66-1-9.14-1.7-13.4Z" style="fill:#fff;opacity:0.4"></path><path d="M211.33,184.39c-.44,4.67-.75,9.53-.94,14.52h14.9c.07-4.9.19-9.76.36-14.52Z" style="fill:#fff;opacity:0.1"></path><path d="M225.65,233.89c-.17-4.76-.29-9.62-.36-14.52h-14.9c.19,5,.5,9.85.94,14.52Z" style="fill:#fff;opacity:0.2"></path><path d="M210.37,199.46q-.17,4.77-.17,9.68c0,3.28.06,6.5.17,9.68h14.91c0-3.22-.07-6.45-.07-9.68s0-6.46.07-9.68Z" style="fill:#fff;opacity:0.7000000000000001"></path><path d="M196.84,183.84h14c.45-4.66,1-9.14,1.71-13.4h-13C198.49,174.7,197.57,179.18,196.84,183.84Z" style="fill:#fff;opacity:0.5"></path><path d="M226.32,247.85c-.26-4.32-.48-8.81-.65-13.4H211.39c.44,4.66,1,9.14,1.69,13.4Z" style="fill:#fff;opacity:0.1"></path><path d="M195.24,198.91h14.6c.19-5,.5-9.84.94-14.52h-14C196,189.06,195.54,193.92,195.24,198.91Z" style="fill:#fff;opacity:0.2"></path><path d="M227.37,261.81c-.39-4.2-.73-8.7-1-13.41H213.17c.77,4.77,1.68,9.26,2.7,13.41Z" style="fill:#fff;opacity:0.2"></path><path d="M194.92,209.14c0,3.28.11,6.5.29,9.68h14.61c-.11-3.18-.18-6.4-.18-9.68s.07-6.5.18-9.68H195.21C195,202.64,194.92,205.87,194.92,209.14Z" style="opacity:0.1"></path><path d="M226.85,170.44q-.37,6.33-.64,13.4h17.48q-.25-7.07-.65-13.4Z" style="fill:#fff;opacity:0.2"></path><path d="M259.7,209.14c0-3.27-.07-6.5-.18-9.68H244.61c0,3.22.07,6.46.07,9.68s0,6.46-.07,9.68h14.91C259.63,215.64,259.7,212.42,259.7,209.14Z" style="fill:#fff;opacity:0.1"></path><path d="M259.5,198.91c-.18-5-.5-9.85-.94-14.52H244.24c.17,4.76.29,9.62.37,14.52Z" style="fill:#fff;opacity:0.30000000000000004"></path><path d="M259.5,219.37H244.61c-.08,4.9-.2,9.76-.37,14.52h14.32C259,229.22,259.32,224.36,259.5,219.37Z" style="fill:#fff;opacity:0.2"></path><path d="M226.19,184.39q-.24,6.95-.35,14.52h18.22q-.1-7.57-.36-14.52Z" style="fill:#fff;opacity:0.5"></path><path d="M257.34,170.44c.69,4.26,1.26,8.74,1.71,13.4h14c-.73-4.66-1.65-9.14-2.74-13.4Z" style="fill:#fff;opacity:0.5"></path><path d="M244.13,209.14c0-3.3,0-6.52-.06-9.68H225.83c0,3.16-.07,6.38-.07,9.68s0,6.53.07,9.68h18.24Q244.13,214.09,244.13,209.14Z" style="fill:#fff;opacity:0.30000000000000004"></path><path d="M212.55,247.85c-.68-4.27-1.26-8.75-1.71-13.4h-14c.73,4.66,1.65,9.14,2.75,13.4Z" style="fill:#fff;opacity:0.5"></path><path d="M182,198.91h12.73c.3-5,.8-9.84,1.51-14.52H184A121.75,121.75,0,0,0,182,198.91Z" style="fill:#fff;opacity:0.1"></path><path d="M227.92,156.48c-.39,4.11-.74,8.59-1,13.4H243c-.3-4.81-.65-9.29-1-13.4Z" style="fill:#fff;opacity:0.30000000000000004"></path><path d="M199.72,169.88h12.92c.77-4.76,1.69-9.24,2.72-13.4H204.1A114.42,114.42,0,0,0,199.72,169.88Z" style="fill:#fff;opacity:0.1"></path><path d="M181.53,209.14c0,3.28.14,6.5.38,9.68h12.74c-.18-3.18-.28-6.4-.28-9.68s.1-6.5.28-9.68H181.91C181.67,202.64,181.53,205.87,181.53,209.14Z" style="fill:#fff;opacity:0.7000000000000001"></path><path d="M184.1,183.84h12.19c.73-4.66,1.65-9.14,2.74-13.4H187.76A109.53,109.53,0,0,0,184.1,183.84Z" style="fill:#fff;opacity:0.2"></path><path d="M196.2,233.89c-.71-4.67-1.21-9.53-1.51-14.52H182a121.75,121.75,0,0,0,2,14.52Z" style="fill:#fff;opacity:0.30000000000000004"></path><path d="M215.36,261.81c-1-4.16-2-8.64-2.72-13.41H199.72a114,114,0,0,0,4.38,13.41Z" style="fill:#fff;opacity:0.1"></path><path d="M203.54,261.81a114.6,114.6,0,0,1-4.37-13.41H187.94a96.13,96.13,0,0,0,5.84,13.41Z" style="fill:#fff;opacity:0.4"></path><path d="M199,247.85c-1.09-4.27-2-8.75-2.74-13.4H184.1a109.53,109.53,0,0,0,3.66,13.4Z" style="fill:#fff;opacity:0.2"></path><path d="M270.86,170.44c1.1,4.26,2,8.74,2.74,13.4h12.2a111.35,111.35,0,0,0-3.66-13.4Z" style="fill:#fff;opacity:0.2"></path><path d="M242.53,156.48c.39,4.2.73,8.7,1,13.4h13.19c-.77-4.76-1.68-9.25-2.71-13.4Z" style="fill:#fff;opacity:0.1"></path><path d="M275,209.14c0-3.27-.1-6.5-.28-9.68H260.07q.18,4.77.18,9.68c0,3.28-.06,6.5-.18,9.68h14.62C274.87,215.64,275,212.42,275,209.14Z" style="fill:#fff;opacity:0.2"></path><path d="M274.65,219.37h-14.6c-.18,5-.5,9.85-.94,14.52h14C273.85,229.22,274.35,224.36,274.65,219.37Z" style="fill:#fff;opacity:0.30000000000000004"></path><path d="M258.51,234.45H244.22c-.17,4.59-.38,9.08-.64,13.4h13.23C257.49,243.59,258.06,239.11,258.51,234.45Z" style="fill:#fff;opacity:0.1"></path><path d="M273.05,234.45h-14c-.45,4.65-1,9.13-1.71,13.4h13C271.4,243.59,272.32,239.11,273.05,234.45Z" style="fill:#fff;opacity:0.2"></path><path d="M266.36,156.48a115.05,115.05,0,0,1,4.36,13.4H282a95.31,95.31,0,0,0-5.83-13.4Z" style="fill:#fff;opacity:0.30000000000000004"></path><path d="M287.94,198.91a123.83,123.83,0,0,0-2-14.52H273.7c.71,4.68,1.21,9.53,1.51,14.52Z" style="fill:#fff;opacity:0.2"></path><path d="M243,247.85q.39-6.34.65-13.4H226.21q.25,7.05.64,13.4Z" style="fill:#fff;opacity:0.2"></path><path d="M213.17,169.88h13.18c.29-4.7.63-9.2,1-13.4h-11.5C214.84,160.63,213.94,165.12,213.17,169.88Z" style="fill:#fff;opacity:0.2"></path><path d="M162.13,169.88h6.06a84.69,84.69,0,0,1,8.14-13.4h-5.16A83.48,83.48,0,0,0,162.13,169.88Z" style="fill:#fff;opacity:0.2"></path><path d="M171.65,155.93h5.09A80.93,80.93,0,0,1,187,144.73h-3.9A83.52,83.52,0,0,0,171.65,155.93Z" style="fill:#fff;opacity:0.2"></path><path d="M183.79,144.18h3.84a75.9,75.9,0,0,1,14.46-10.08h-2A83.22,83.22,0,0,0,183.79,144.18Z" style="fill:#fff;opacity:0.2"></path><path d="M152.86,198.91h7a89.63,89.63,0,0,1,2.82-14.52H156A82,82,0,0,0,152.86,198.91Z" style="fill:#fff;opacity:0.2"></path><path d="M176.34,261.81a83.65,83.65,0,0,1-8.15-13.41h-6.06a83.18,83.18,0,0,0,9.05,13.41Z" style="fill:#fff;opacity:0.2"></path><path d="M167.93,247.85a87,87,0,0,1-5.12-13.4h-6.63a82.58,82.58,0,0,0,5.66,13.4Z" style="fill:#fff;opacity:0.5"></path><path d="M162.64,233.89a89.42,89.42,0,0,1-2.82-14.52h-7A82,82,0,0,0,156,233.89Z" style="fill:#fff;opacity:0.2"></path><path d="M212.32,133.55a42.27,42.27,0,0,1,11.7-6,55.74,55.74,0,0,0-15.76,6Z" style="fill:#fff;opacity:0.2"></path><path d="M239.15,133.55H245c-2.7-4-5.66-6.51-8.77-7C237.28,127.6,238.26,130,239.15,133.55Z" style="fill:#fff;opacity:0.2"></path><path d="M245.56,133.55h5.63a25.89,25.89,0,0,0-12.46-6.77C241.13,128,243.42,130.29,245.56,133.55Z" style="opacity:0.1"></path><path d="M252,133.55h4.67a39.79,39.79,0,0,0-14.56-6.39A28.73,28.73,0,0,1,252,133.55Z" style="fill:#fff;opacity:0.2"></path><path d="M224.34,133.55c2.13-3.26,4.42-5.58,6.82-6.77a25.94,25.94,0,0,0-12.46,6.77Z" style="fill:#fff;opacity:0.2"></path><path d="M224.9,133.55h5.85c.88-3.52,1.86-6,2.93-7C230.56,127,227.61,129.51,224.9,133.55Z" style="fill:#fff;opacity:0.2"></path><path d="M183.09,273.55H187a80.21,80.21,0,0,1-10.24-11.19h-5.09A83.37,83.37,0,0,0,183.09,273.55Z" style="fill:#fff;opacity:0.2"></path><path d="M207.15,133.55a57.48,57.48,0,0,1,12-5.3,69.4,69.4,0,0,0-14.71,5.3Z" style="fill:#fff;opacity:0.2"></path><path d="M230.75,284.73H224.9c2.71,4,5.66,6.52,8.78,7C232.61,290.69,231.63,288.25,230.75,284.73Z" style="fill:#fff;opacity:0.2"></path><path d="M298.23,262.36h-5.09a79.6,79.6,0,0,1-10.24,11.19h3.91A83.3,83.3,0,0,0,298.23,262.36Z" style="fill:#fff;opacity:0.2"></path><path d="M286.1,274.1h-3.84a74.7,74.7,0,0,1-14.46,10.08h1.95A82.64,82.64,0,0,0,286.1,274.1Z" style="opacity:0.5"></path><path d="M266.7,284.73a70.94,70.94,0,0,1-11.25,4.58,82.31,82.31,0,0,0,13.08-4.58Z" style="opacity:0.2"></path><path d="M257.57,284.73a41.86,41.86,0,0,1-11.7,6,55.63,55.63,0,0,0,15.76-6Z" style="fill:#fff;opacity:0.5"></path><path d="M252,284.73a28.91,28.91,0,0,1-9.89,6.4,39.82,39.82,0,0,0,14.56-6.4Z" style="fill:#fff;opacity:0.2"></path><path d="M262.75,284.73a57.48,57.48,0,0,1-12,5.3,69.51,69.51,0,0,0,14.7-5.3Z" style="fill:#fff;opacity:0.2"></path><path d="M317.69,209.14a81.55,81.55,0,0,0-.59-9.68h-7a88.66,88.66,0,0,1,0,19.36h7A81.42,81.42,0,0,0,317.69,209.14Z" style="fill:#fff;opacity:0.2"></path><path d="M313.72,234.45h-6.64a88,88,0,0,1-5.11,13.4h6.08A82.62,82.62,0,0,0,313.72,234.45Z" style="fill:#fff;opacity:0.2"></path><path d="M307.76,248.4h-6.05a85.13,85.13,0,0,1-8.15,13.41h5.15A82.53,82.53,0,0,0,307.76,248.4Z" style="opacity:0.5"></path><path d="M207.15,284.73h-2.71a69.4,69.4,0,0,0,14.71,5.3A57.25,57.25,0,0,1,207.15,284.73Z" style="fill:#fff;opacity:0.2"></path><path d="M212.32,284.73h-4.06a55.74,55.74,0,0,0,15.76,6A42,42,0,0,1,212.32,284.73Z" style="opacity:0.5"></path><path d="M217.93,284.73h-4.66a39.77,39.77,0,0,0,14.55,6.4A29,29,0,0,1,217.93,284.73Z" style="fill:#fff;opacity:0.2"></path><path d="M245.56,284.73c-2.14,3.26-4.43,5.58-6.83,6.77a25.81,25.81,0,0,0,12.46-6.77Z" style="fill:#fff;opacity:0.2"></path><path d="M203.2,284.73h-1.84a82.42,82.42,0,0,0,13.09,4.58A70.18,70.18,0,0,1,203.2,284.73Z" style="fill:#fff;opacity:0.2"></path><path d="M245,284.73h-5.84c-.89,3.52-1.87,6-2.93,7C239.33,291.25,242.29,288.77,245,284.73Z" style="fill:#fff;opacity:0.7000000000000001"></path><path d="M224.34,284.73H218.7a25.85,25.85,0,0,0,12.46,6.77C228.76,290.31,226.47,288,224.34,284.73Z" style="fill:#fff;opacity:0.30000000000000004"></path><path d="M252.55,134.1a52.73,52.73,0,0,1,7.75,10.08H268a56.73,56.73,0,0,0-10.55-10.08Z" style="fill:#fff;opacity:0.1"></path><path d="M177.45,155.93H184a78.07,78.07,0,0,1,9-11.2h-5.11A79,79,0,0,0,177.45,155.93Z" style="fill:#fff;opacity:0.7000000000000001"></path><path d="M159.78,209.14a90.88,90.88,0,0,0,.53,9.68h8.79c-.29-3.18-.46-6.4-.46-9.68s.17-6.5.46-9.68h-8.79A91,91,0,0,0,159.78,209.14Z" style="fill:#fff;opacity:0.30000000000000004"></path><path d="M188.48,144.18h5a66.82,66.82,0,0,1,12.67-10.08h-2.85A74.32,74.32,0,0,0,188.48,144.18Z" style="fill:#fff;opacity:0.2"></path><path d="M187.83,273.55H193a77.37,77.37,0,0,1-9-11.19h-6.54A80.59,80.59,0,0,0,187.83,273.55Z" style="fill:#fff;opacity:0.2"></path><path d="M176.26,247.85a95.32,95.32,0,0,1-4.48-13.4h-8.39a86.35,86.35,0,0,0,5.15,13.4Z" style="fill:#fff;opacity:0.2"></path><path d="M206.18,284.18a66,66,0,0,1-12.67-10.08h-5a74.67,74.67,0,0,0,14.86,10.08Z" style="fill:#fff;opacity:0.2"></path><path d="M263.72,134.1a67.07,67.07,0,0,1,12.66,10.08h5a74.89,74.89,0,0,0-14.85-10.08Z" style="fill:#fff;opacity:0.2"></path><path d="M194.3,144.18h6.92a58.28,58.28,0,0,1,10.31-10.08h-4.24A65.44,65.44,0,0,0,194.3,144.18Z" style="fill:#fff;opacity:0.4"></path><path d="M239.28,134.1c.67,2.79,1.29,6.18,1.84,10.08h9.13a54.82,54.82,0,0,0-4.89-10.08Z" style="fill:#fff;opacity:0.2"></path><path d="M210.2,144.18h8.94A57.22,57.22,0,0,1,224,134.1h-5.86A51.07,51.07,0,0,0,210.2,144.18Z" style="fill:#fff;opacity:0.5"></path><path d="M201.92,144.18h7.67a53.13,53.13,0,0,1,7.75-10.08h-4.86A56.47,56.47,0,0,0,201.92,144.18Z" style="fill:#fff;opacity:0.30000000000000004"></path><path d="M231.2,134.1c-.65,2.71-1.27,6.09-1.85,10.08h11.19c-.58-4-1.2-7.37-1.85-10.08Z" style="fill:#fff;opacity:0.4"></path><path d="M219.65,144.18h9.12c.56-3.9,1.17-7.29,1.84-10.08h-6.07A54.19,54.19,0,0,0,219.65,144.18Z" style="fill:#fff;opacity:0.2"></path><path d="M224,284.18a57.22,57.22,0,0,1-4.84-10.08H210.2a51.07,51.07,0,0,0,7.91,10.08Z" style="fill:#fff;opacity:0.2"></path><path d="M309.52,219.37h-8.78a101.37,101.37,0,0,1-2.47,14.52h8.41A89.44,89.44,0,0,0,309.52,219.37Z" style="fill:#fff;opacity:0.2"></path><path d="M292.44,262.36h-6.53a76.75,76.75,0,0,1-9,11.19h5.12A80,80,0,0,0,292.44,262.36Z" style="opacity:0.2"></path><path d="M301.1,248.4h-7.69a87.77,87.77,0,0,1-7.14,13.41h6.6A84.34,84.34,0,0,0,301.1,248.4Z" style="fill:#fff;opacity:0.2"></path><path d="M306.5,234.45h-8.38a96.65,96.65,0,0,1-4.49,13.4h7.73A87.33,87.33,0,0,0,306.5,234.45Z" style="fill:#fff;opacity:0.2"></path><path d="M286.81,144.73H282.9a80.93,80.93,0,0,1,10.25,11.2h5.09A83.45,83.45,0,0,0,286.81,144.73Z" style="fill:#fff;opacity:0.1"></path><path d="M267.8,134.1a75.59,75.59,0,0,1,14.46,10.08h3.84a82.64,82.64,0,0,0-16.35-10.08Z" style="fill:#fff;opacity:0.5"></path><path d="M302,170.44a87.23,87.23,0,0,1,5.11,13.4h6.64a82.62,82.62,0,0,0-5.67-13.4Z" style="fill:#fff;opacity:0.5"></path><path d="M293.57,156.48a86.2,86.2,0,0,1,8.14,13.4h6.05a83.48,83.48,0,0,0-9-13.4Z" style="fill:#fff;opacity:0.30000000000000004"></path><path d="M230.61,284.18c-.67-2.78-1.28-6.17-1.84-10.08h-9.12a54.19,54.19,0,0,0,4.89,10.08Z" style="fill:#fff;opacity:0.1"></path><path d="M281.42,274.1h-5a66.28,66.28,0,0,1-12.66,10.08h2.85A74.89,74.89,0,0,0,281.42,274.1Z" style="fill:#fff;opacity:0.7000000000000001"></path><path d="M238.69,284.18c.65-2.71,1.27-6.08,1.85-10.08H229.35c.58,4,1.2,7.37,1.85,10.08Z" style="fill:#fff;opacity:0.4"></path><path d="M250.25,274.1h-9.13c-.55,3.91-1.17,7.3-1.84,10.08h6.08A54.82,54.82,0,0,0,250.25,274.1Z" style="fill:#fff;opacity:0.2"></path><path d="M268,274.1H260.3a52.11,52.11,0,0,1-7.75,10.08h4.87A56.73,56.73,0,0,0,268,274.1Z" style="fill:#fff;opacity:0.2"></path><path d="M259.69,274.1h-8.93a57.23,57.23,0,0,1-4.83,10.08h5.85A50.7,50.7,0,0,0,259.69,274.1Z" style="fill:#fff;opacity:0.5"></path></g><g id="Sparkles"><polygon points="206.17 112.58 214.67 111.18 206.17 109.78 207.14 108.44 205.79 109.4 204.4 100.91 203 109.4 201.65 108.44 202.62 109.78 194.12 111.18 202.62 112.58 201.65 113.92 203 112.96 204.4 121.45 205.79 112.96 207.14 113.92 206.17 112.58" style="fill:#407BFF"></polygon><polygon points="206.17 112.58 214.67 111.18 206.17 109.78 207.14 108.44 205.79 109.4 204.4 100.91 203 109.4 201.65 108.44 202.62 109.78 194.12 111.18 202.62 112.58 201.65 113.92 203 112.96 204.4 121.45 205.79 112.96 207.14 113.92 206.17 112.58" style="fill:#fff;opacity:0.7000000000000001"></polygon><polygon points="280.54 243.73 289.04 242.33 280.54 240.94 281.51 239.59 280.16 240.56 278.76 232.06 277.37 240.56 276.02 239.59 276.99 240.94 268.49 242.33 276.99 243.73 276.02 245.08 277.37 244.11 278.76 252.61 280.16 244.11 281.51 245.08 280.54 243.73" style="fill:#407BFF"></polygon><polygon points="280.54 243.73 289.04 242.33 280.54 240.94 281.51 239.59 280.16 240.56 278.76 232.06 277.37 240.56 276.02 239.59 276.99 240.94 268.49 242.33 276.99 243.73 276.02 245.08 277.37 244.11 278.76 252.61 280.16 244.11 281.51 245.08 280.54 243.73" style="fill:#fff;opacity:0.7000000000000001"></polygon><polygon points="168.03 271.3 176.52 269.9 168.03 268.5 168.99 267.16 167.65 268.12 166.25 259.63 164.85 268.12 163.51 267.16 164.47 268.5 155.98 269.9 164.47 271.3 163.51 272.64 164.85 271.68 166.25 280.18 167.65 271.68 168.99 272.64 168.03 271.3" style="fill:#407BFF"></polygon><polygon points="168.03 271.3 176.52 269.9 168.03 268.5 168.99 267.16 167.65 268.12 166.25 259.63 164.85 268.12 163.51 267.16 164.47 268.5 155.98 269.9 164.47 271.3 163.51 272.64 164.85 271.68 166.25 280.18 167.65 271.68 168.99 272.64 168.03 271.3" style="fill:#fff;opacity:0.7000000000000001"></polygon><polygon points="253.97 174.45 262.46 173.05 253.97 171.65 254.93 170.31 253.59 171.27 252.19 162.78 250.79 171.27 249.45 170.31 250.41 171.65 241.92 173.05 250.41 174.45 249.45 175.79 250.79 174.83 252.19 183.32 253.59 174.83 254.93 175.79 253.97 174.45" style="fill:#407BFF"></polygon><polygon points="253.97 174.45 262.46 173.05 253.97 171.65 254.93 170.31 253.59 171.27 252.19 162.78 250.79 171.27 249.45 170.31 250.41 171.65 241.92 173.05 250.41 174.45 249.45 175.79 250.79 174.83 252.19 183.32 253.59 174.83 254.93 175.79 253.97 174.45" style="fill:#fff;opacity:0.7000000000000001"></polygon><polygon points="330.48 170.4 338.97 169 330.48 167.6 331.44 166.25 330.1 167.22 328.7 158.72 327.3 167.22 325.96 166.25 326.92 167.6 318.43 169 326.92 170.4 325.96 171.74 327.3 170.77 328.7 179.27 330.1 170.77 331.44 171.74 330.48 170.4" style="fill:#407BFF"></polygon><polygon points="330.48 170.4 338.97 169 330.48 167.6 331.44 166.25 330.1 167.22 328.7 158.72 327.3 167.22 325.96 166.25 326.92 167.6 318.43 169 326.92 170.4 325.96 171.74 327.3 170.77 328.7 179.27 330.1 170.77 331.44 171.74 330.48 170.4" style="fill:#fff;opacity:0.7000000000000001"></polygon><polygon points="280.01 129.32 284.26 128.62 280.01 127.92 280.49 127.25 279.82 127.73 279.12 123.48 278.42 127.73 277.75 127.25 278.23 127.92 273.98 128.62 278.23 129.32 277.75 129.99 278.42 129.51 279.12 133.75 279.82 129.51 280.49 129.99 280.01 129.32" style="fill:#407BFF"></polygon><polygon points="280.01 129.32 284.26 128.62 280.01 127.92 280.49 127.25 279.82 127.73 279.12 123.48 278.42 127.73 277.75 127.25 278.23 127.92 273.98 128.62 278.23 129.32 277.75 129.99 278.42 129.51 279.12 133.75 279.82 129.51 280.49 129.99 280.01 129.32" style="fill:#fff;opacity:0.7000000000000001"></polygon><polygon points="333.34 232.76 337.59 232.06 333.34 231.36 333.82 230.69 333.15 231.17 332.45 226.93 331.75 231.17 331.08 230.69 331.56 231.36 327.32 232.06 331.56 232.76 331.08 233.43 331.75 232.95 332.45 237.2 333.15 232.95 333.82 233.43 333.34 232.76" style="fill:#407BFF"></polygon><polygon points="333.34 232.76 337.59 232.06 333.34 231.36 333.82 230.69 333.15 231.17 332.45 226.93 331.75 231.17 331.08 230.69 331.56 231.36 327.32 232.06 331.56 232.76 331.08 233.43 331.75 232.95 332.45 237.2 333.15 232.95 333.82 233.43 333.34 232.76" style="fill:#fff;opacity:0.7000000000000001"></polygon><polygon points="140.09 226.4 144.33 225.7 140.09 225 140.57 224.33 139.9 224.81 139.2 220.56 138.5 224.81 137.82 224.33 138.31 225 134.06 225.7 138.31 226.4 137.82 227.07 138.5 226.59 139.2 230.84 139.9 226.59 140.57 227.07 140.09 226.4" style="fill:#407BFF"></polygon><polygon points="140.09 226.4 144.33 225.7 140.09 225 140.57 224.33 139.9 224.81 139.2 220.56 138.5 224.81 137.82 224.33 138.31 225 134.06 225.7 138.31 226.4 137.82 227.07 138.5 226.59 139.2 230.84 139.9 226.59 140.57 227.07 140.09 226.4" style="fill:#fff;opacity:0.7000000000000001"></polygon><polygon points="247.69 294.72 251.94 294.02 247.69 293.32 248.18 292.65 247.5 293.13 246.81 288.89 246.11 293.13 245.44 292.65 245.92 293.32 241.67 294.02 245.92 294.72 245.44 295.39 246.11 294.91 246.81 299.16 247.5 294.91 248.18 295.39 247.69 294.72" style="fill:#407BFF"></polygon><polygon points="247.69 294.72 251.94 294.02 247.69 293.32 248.18 292.65 247.5 293.13 246.81 288.89 246.11 293.13 245.44 292.65 245.92 293.32 241.67 294.02 245.92 294.72 245.44 295.39 246.11 294.91 246.81 299.16 247.5 294.91 248.18 295.39 247.69 294.72" style="fill:#fff;opacity:0.7000000000000001"></polygon><polygon points="181.03 226.6 185.28 225.9 181.03 225.21 181.51 224.53 180.84 225.01 180.14 220.77 179.44 225.01 178.77 224.53 179.25 225.21 175.01 225.9 179.25 226.6 178.77 227.28 179.44 226.79 180.14 231.04 180.84 226.79 181.51 227.28 181.03 226.6" style="fill:#407BFF"></polygon><polygon points="181.03 226.6 185.28 225.9 181.03 225.21 181.51 224.53 180.84 225.01 180.14 220.77 179.44 225.01 178.77 224.53 179.25 225.21 175.01 225.9 179.25 226.6 178.77 227.28 179.44 226.79 180.14 231.04 180.84 226.79 181.51 227.28 181.03 226.6" style="fill:#fff;opacity:0.7000000000000001"></polygon><polygon points="165.51 160.49 169.75 159.79 165.51 159.09 165.99 158.42 165.32 158.9 164.62 154.66 163.92 158.9 163.25 158.42 163.73 159.09 159.48 159.79 163.73 160.49 163.25 161.16 163.92 160.68 164.62 164.93 165.32 160.68 165.99 161.16 165.51 160.49" style="fill:#407BFF"></polygon><polygon points="165.51 160.49 169.75 159.79 165.51 159.09 165.99 158.42 165.32 158.9 164.62 154.66 163.92 158.9 163.25 158.42 163.73 159.09 159.48 159.79 163.73 160.49 163.25 161.16 163.92 160.68 164.62 164.93 165.32 160.68 165.99 161.16 165.51 160.49" style="fill:#fff;opacity:0.7000000000000001"></polygon><polygon points="223.98 206.15 228.23 205.45 223.98 204.75 224.46 204.08 223.79 204.56 223.09 200.31 222.39 204.56 221.72 204.08 222.2 204.75 217.96 205.45 222.2 206.15 221.72 206.82 222.39 206.34 223.09 210.59 223.79 206.34 224.46 206.82 223.98 206.15" style="fill:#407BFF"></polygon><polygon points="223.98 206.15 228.23 205.45 223.98 204.75 224.46 204.08 223.79 204.56 223.09 200.31 222.39 204.56 221.72 204.08 222.2 204.75 217.96 205.45 222.2 206.15 221.72 206.82 222.39 206.34 223.09 210.59 223.79 206.34 224.46 206.82 223.98 206.15" style="fill:#fff;opacity:0.7000000000000001"></polygon></g><g id="Table"><path d="M72.2,283.23h80.11a5.49,5.49,0,0,1-5.25,5.49c-8.61.39-21.85,1.75-26,6.52-7.83,8.88-7.08,106.88,2.3,114.1,2.94,2.27,11.51,6.76,11.51,6.76H89.69s8-4.58,10.79-6.76c9.33-7.28,9.6-105.26,1.73-114.1-4-4.54-16.45-6-24.78-6.47A5.54,5.54,0,0,1,72.2,283.23Z" style="fill:#407BFF"></path><path d="M152.31,283.24a5.42,5.42,0,0,1-1.52,3.79,5.51,5.51,0,0,1-3.73,1.69,101.87,101.87,0,0,0-14.21,1.53c-5.11,1-9.68,2.52-11.84,5-1.82,2.06-3.17,8.9-4.07,18.29-3,31.13-.83,90.26,6.37,95.81,2.94,2.26,11.52,6.76,11.52,6.76H89.69s8-4.58,10.79-6.76c7.16-5.59,9-64.7,5.88-95.81-.94-9.4-2.32-16.25-4.15-18.29-2.17-2.45-6.79-4-11.89-5a99,99,0,0,0-12.89-1.48,5.52,5.52,0,0,1-5.23-5.53Z" style="fill:#fff;opacity:0.6000000000000001"></path><path d="M132.85,290.25c-5.11,1-9.68,2.52-11.84,5-1.82,2.06-3.17,8.9-4.07,18.29H106.36c-.94-9.4-2.32-16.25-4.15-18.29-2.17-2.45-6.79-4-11.89-5Z" style="isolation:isolate;opacity:0.2"></path><path d="M100.9,281.53l0-6.48,6.26-6.22a.42.42,0,0,0-.29-.71l-13.17,0a.41.41,0,0,0-.3.71l6.22,6.26,0,6.47-2.36,1.6a.3.3,0,0,0,.17.54l5.67,0a.29.29,0,0,0,.16-.54Z" style="fill:#407BFF"></path><path d="M100.9,281.53l0-6.48,6.26-6.22a.42.42,0,0,0-.29-.71l-13.17,0a.41.41,0,0,0-.3.71l6.22,6.26,0,6.47-2.36,1.6a.3.3,0,0,0,.17.54l5.67,0a.29.29,0,0,0,.16-.54Z" style="fill:#fff;opacity:0.6000000000000001"></path><path d="M96.58,270.83l3.7,3.65,3.57-3.56a.22.22,0,0,0-.06-.09Z" style="fill:#407BFF"></path><path d="M127,281.53l0-6.48,6.26-6.22a.41.41,0,0,0-.29-.71l-13.17,0a.42.42,0,0,0-.3.71l6.22,6.26,0,6.47-2.37,1.6a.3.3,0,0,0,.17.54l5.67,0a.3.3,0,0,0,.17-.54Z" style="fill:#407BFF"></path><path d="M127,281.53l0-6.48,6.26-6.22a.41.41,0,0,0-.29-.71l-13.17,0a.42.42,0,0,0-.3.71l6.22,6.26,0,6.47-2.37,1.6a.3.3,0,0,0,.17.54l5.67,0a.3.3,0,0,0,.17-.54Z" style="fill:#fff;opacity:0.6000000000000001"></path><path d="M122.69,270.83l3.69,3.65,3.57-3.56a.22.22,0,0,0-.06-.09Z" style="fill:#407BFF"></path><path d="M113.68,264.1l0-13.45h-2.57l0,13.45a4.06,4.06,0,0,1-1.82,3.39h0a4.13,4.13,0,0,0-1.82,3.4l0,12.49,9.8,0,0-12.5a4.1,4.1,0,0,0-1.8-3.4h0A4.13,4.13,0,0,1,113.68,264.1Z" style="fill:#407BFF"></path><rect x="107.45" y="272.8" width="9.8" height="7.26" transform="translate(0.99 -0.4) rotate(0.2)" style="fill:#fff;opacity:0.4"></rect><path d="M115.21,276.48a2.86,2.86,0,1,1-2.84-2.87A2.86,2.86,0,0,1,115.21,276.48Z" style="fill:#fff;opacity:0.6000000000000001"></path></g><g id="Character"><path d="M361.23,157.24s-3.59-3.86,8.72-9,24.53,1.86,24.5,8.69,8.29,10.18,11.85,6.26,5.94-1.59,5.94-1.59a4,4,0,0,0-4.52,1.62,8.74,8.74,0,0,1-4.1,3.13,12.46,12.46,0,0,0,6.66-1.8c3.49-2.05,7.8-5.4,3.86-9.32,0,0,5.19-1,7.32,5.42s-1.74,11.84-8.39,15.92c0,0,9.95-4,9.46-8.29,0,0,2.53,3.91-5.95,8.65s-17.38,5.95-19.81,4.67,2.65,6-11.72,8.17-22.2-7.33-22.88-12.51.32-6.91.32-6.91a11.44,11.44,0,0,0,1.71,13.85s-5.84-3.34-4.7-9.64.38-5.49-1.6-8.89S358.3,157.61,361.23,157.24Z" style="fill:#407BFF"></path><path d="M361.23,157.24s-3.59-3.86,8.72-9,24.53,1.86,24.5,8.69,8.29,10.18,11.85,6.26,5.94-1.59,5.94-1.59a4,4,0,0,0-4.52,1.62,8.74,8.74,0,0,1-4.1,3.13,12.46,12.46,0,0,0,6.66-1.8c3.49-2.05,7.8-5.4,3.86-9.32,0,0,5.19-1,7.32,5.42s-1.74,11.84-8.39,15.92c0,0,9.95-4,9.46-8.29,0,0,2.53,3.91-5.95,8.65s-17.38,5.95-19.81,4.67,2.65,6-11.72,8.17-22.2-7.33-22.88-12.51.32-6.91.32-6.91a11.44,11.44,0,0,0,1.71,13.85s-5.84-3.34-4.7-9.64.38-5.49-1.6-8.89S358.3,157.61,361.23,157.24Z" style="opacity:0.2"></path><path d="M355.33,259.5s-22.53,60.17-18,66.85C350,350.51,377.33,394,378,400.91c.82,1.13,5.1-1.18,5.76-2.58,0,0-5.41-44.73-31.07-80.76,18.57-16.89,27.1-48.46,27.1-48.46Z" style="fill:#ffb573"></path><path d="M372.39,412.78c5.51-3.1,5.88-3.77,8.94-5.62,2.62-1.59,3.25-1.2,5.94-2.7,1.79-1,1.32-3.4.14-4.74-.71-.79-1.68-1.63-2.5-2.66a1.37,1.37,0,0,0-1.8-.36l-5.74,3.2a1.93,1.93,0,0,0-.9,1.21,13.7,13.7,0,0,1-6.19,8.71C367.37,411.74,370.19,414,372.39,412.78Z" style="fill:#263238"></path><path d="M363.85,243.13S377.2,294.66,382.49,320c5.55,26.57,12.87,71.25,11.32,88.9,1.49.88,4.24,1,7.25.05,0,0,11.91-59.33-.08-87.78,5.26-62.95-11.39-78-11.39-78Z" style="fill:#ffb573"></path><path d="M385.89,416.1c6.45,0,6-.1,9.63-.22,3.12-.11,3.83.28,6.33.22,2.09-.05,2.16-2,1.68-4.34-.18-.88-.45-1.91-.71-3.18a1.55,1.55,0,0,0-1.53-1.25h-7.55a1.78,1.78,0,0,0-1.43.73,10.9,10.9,0,0,1-7.51,4.21C381.3,412.74,383.31,416.1,385.89,416.1Z" style="fill:#263238"></path><path d="M402.86,287.42l-27.76,4.82-1.44-4.53-.33-1-1.14,2.91-1.05,2.67-24.73-11,7.78-23.38.31-2.59,1.72-14.11,35,.18a64.1,64.1,0,0,1,6.35,13.28A101.16,101.16,0,0,1,402.86,287.42Z" style="fill:#407BFF"></path><polygon points="374.08 290.33 403.82 284.65 403.82 287.98 374.64 293.4 374.08 290.33" style="fill:#407BFF"></polygon><polygon points="346.42 279.28 372.19 290.93 371.08 293.4 345.68 281.87 346.42 279.28" style="fill:#407BFF"></polygon><polygon points="374.08 290.33 403.82 284.65 403.82 287.98 374.64 293.4 374.08 290.33" style="opacity:0.2"></polygon><polygon points="346.42 279.28 372.19 290.93 371.08 293.4 345.68 281.87 346.42 279.28" style="opacity:0.2"></polygon><path d="M391.27,241.3l-35-.18-1.72,14.11c3.34,0,4.89-5,5.59-9,2.16.27,4.78.54,7.7.72-.09,3.1-.34,11.14-.34,13.92a2.34,2.34,0,0,0,.66,1.79,2.4,2.4,0,0,0,1.71.57h.1c.24,6,1,12,3,15.26,0,.49-1.63,6.21-.7,11.14l1.14-2.91s0-8.26,0-8.32l0-.1c-4-6.5-3-25.22-2.58-31.2a80.64,80.64,0,0,0,14-.61c2.55,2.95,7.77,8.14,12.91,8.15A64.1,64.1,0,0,0,391.27,241.3ZM369.9,262.7a2.12,2.12,0,0,1-1.47-.42,1.92,1.92,0,0,1-.51-1.46c0-2.77.24-10.79.34-13.89.65,0,1.33.08,2,.1A146.09,146.09,0,0,0,369.9,262.7Z" style="opacity:0.2"></path><path d="M332.54,138.85l-2.12,1.51a3,3,0,0,0-1.27,2.46v4.57a5.6,5.6,0,0,0,2.37,4.6l.92.66c3.68-2.26,6-7.42,6-7.42l.82-1.4a2.51,2.51,0,0,0-.82-3.48l-2.74-1.67A2.89,2.89,0,0,0,332.54,138.85Z" style="fill:#ffb573"></path><path d="M407.06,158.53l2.6,0a3,3,0,0,1,2.46,1.28l2.62,3.74a5.65,5.65,0,0,1,.71,5.13l-.38,1.07c-4.32.26-9.17-2.63-9.17-2.63l-1.48-.67a2.51,2.51,0,0,1-1.34-3.32l1.3-2.94A2.88,2.88,0,0,1,407.06,158.53Z" style="fill:#ffb573"></path><path d="M352.77,201.32a138.45,138.45,0,0,0,.22,15c.27,6.52-.86,25.06,3.75,26.23,3.57,2.09,21.64,1.33,33.18-.17,5.49-1.61-3.82-16,6.37-43,1.78-4.71-1.78-9.44-7-9.94-1.38-.13-2.84-.24-4.35-.31a119.2,119.2,0,0,0-15.82,0c-1.72.15-3.51.35-5.21.58C357.81,190.5,353,195.54,352.77,201.32Z" style="fill:#263238"></path><path d="M395.27,188.87c2.06-.28,4.33-.56,6.49-.92s4.36-.72,6.53-1.1,4.31-.85,6.44-1.33,4.21-1,6.26-1.64l-.9.43a2.13,2.13,0,0,0-.69.89c-.14.34-.09.53-.06.47a3.36,3.36,0,0,0-.18-1.5,27.45,27.45,0,0,0-2.08-4.93c-.88-1.72-1.89-3.44-2.94-5.17s-2.16-3.46-3.23-5.14l0-.08a2.63,2.63,0,0,1,3.93-3.41c1.69,1.45,3.18,2.94,4.7,4.51a58.45,58.45,0,0,1,4.27,5,30.52,30.52,0,0,1,3.68,6.15,12.73,12.73,0,0,1,1.09,4.58,8,8,0,0,1-.68,3.5,7.53,7.53,0,0,1-2.76,3.18,4,4,0,0,1-.68.35l-.22.09c-2.28.89-4.56,1.72-6.87,2.4s-4.6,1.31-6.92,1.83-4.64,1-7,1.37-4.63.71-7.12.92a5.27,5.27,0,0,1-1.17-10.47Z" style="fill:#ffb573"></path><path d="M354.29,196.74c-6.92-6-13.57-12.17-20.09-18.55l-2.44-2.4c-.15-.14-.54-.55-.84-.89a10.37,10.37,0,0,1-.84-1.07,12.78,12.78,0,0,1-1.24-2.2,21.41,21.41,0,0,1-1.66-8.23,38.46,38.46,0,0,1,.56-7.43c.19-1.19.45-2.37.74-3.54s.59-2.29,1-3.51a2.63,2.63,0,0,1,5.12.87v.15c0,1,0,2.16,0,3.23s.06,2.18.11,3.25a46.33,46.33,0,0,0,.68,6.19,15,15,0,0,0,1.67,4.91,7.86,7.86,0,0,0,.54.7c.09.07.16.19.25.23a4.51,4.51,0,0,1,.37.31l2.6,2.19c6.91,5.86,13.79,11.79,20.47,17.89h0a5.27,5.27,0,0,1-7,7.89Z" style="fill:#ffb573"></path><path d="M384.13,189.14s-.91,3.9-13.75,3.92c-3.91,0-2.08-3.92-2.08-3.92,5.16-1.2,5.84-4.7,5.44-8.24-.05-.43-.11-.87-.19-1.29l10.33-8.29c-1.13,4.2-2.47,11.26-1.07,15.52A5.9,5.9,0,0,0,384.13,189.14Z" style="fill:#ffb573"></path><path d="M382.81,186.84c-4.63-.15-7.49-3.33-9.07-5.94-.05-.43-.11-.87-.19-1.29l10.33-8.29C382.75,175.52,381.41,182.58,382.81,186.84Z" style="opacity:0.2"></path><path d="M367.05,161.54c.53,8.35.58,11.88,4.76,16.37,6.28,6.75,16.28,4.81,18.22-3.39,1.75-7.39.59-19.8-7.49-23.53A10.72,10.72,0,0,0,367.05,161.54Z" style="fill:#ffb573"></path><path d="M379.81,164.48c0,.71.39,1.29.83,1.32s.8-.53.79-1.24-.39-1.29-.84-1.31S379.8,163.78,379.81,164.48Z" style="fill:#263238"></path><path d="M388.21,165c0,.7.38,1.29.83,1.31s.8-.53.78-1.23-.39-1.29-.83-1.32S388.19,164.31,388.21,165Z" style="fill:#263238"></path><path d="M388.79,163.81l1.63-.4S389.61,164.68,388.79,163.81Z" style="fill:#263238"></path><path d="M385.89,166.06a20.71,20.71,0,0,0,2.52,4.6A2.79,2.79,0,0,1,386,171Z" style="fill:#ed893e"></path><path d="M377.94,160.49a.43.43,0,0,0,.3-.09,3,3,0,0,1,2.76-.69.37.37,0,0,0,.49-.26.43.43,0,0,0-.29-.52,3.74,3.74,0,0,0-3.51.83.42.42,0,0,0,0,.58A.49.49,0,0,0,377.94,160.49Z" style="fill:#263238"></path><path d="M390.57,161.28a.42.42,0,0,0,.29-.05.41.41,0,0,0,.08-.57,4.34,4.34,0,0,0-3.26-2,.37.37,0,0,0-.38.41.44.44,0,0,0,.42.42,3.39,3.39,0,0,1,2.57,1.58A.43.43,0,0,0,390.57,161.28Z" style="fill:#263238"></path><path d="M380.4,163.28l1.63-.41S381.21,164.15,380.4,163.28Z" style="fill:#263238"></path><path d="M377.82,162.25l.54,4.71a.69.69,0,0,0,.61.61l4.31.5a.61.61,0,0,0,.62-.33l1.62-3.14h.82l.84.07.66,3.1a.6.6,0,0,0,.55.48l2.74.23a.61.61,0,0,0,.66-.56l.33-3.55.44-.15.08-1.11Zm7,1.77-5.93-.45v-.27l6.07.39Zm6.64.49-3.73-.27-.05-.22,3.82.11Zm-3,2.81,2.66.2,0,.25-2.56-.15Zm-.21-.88,3,.23,0,.38-2.83-.21Zm-.21-.85,3.27.24,0,.38-3.14-.23Zm-.21-.88,3.57.27,0,.38-3.43-.25Zm-4.05,1.79-4.83-.37v-.38l5,.37Zm-4.82.1,4.63.35-.12.29-4.5-.48Zm0-1.7,5.35.41-.15.37-5.2-.39Zm0-.86,5.73.44-.16.37-5.56-.42Z" style="fill:#fff"></path><polygon points="377.82 162.25 366.45 165.65 366.51 166.42 378.16 163.81 377.82 162.25" style="fill:#fff"></polygon><path d="M394.38,149.72a6.56,6.56,0,0,1,2.86,4.24c.58,2.94-3.22,1.67-6.49-1.94s-18.3-9.3-18.51-.8a8.69,8.69,0,0,0-1.42.42c-5.86,2.29-11.19,18.1-2,16.42,4.68-.86,2.32-5.13,6-11.56.56-1,1.28-4.24-.54-5.15,1.94-.26,5.18-.06,9.15,2.67,6.55,4.51,16.33,6.68,15.79,1.53S394.38,149.72,394.38,149.72Z" style="fill:#407BFF"></path><path d="M394.38,149.72a6.56,6.56,0,0,1,2.86,4.24c.58,2.94-3.22,1.67-6.49-1.94s-18.3-9.3-18.51-.8a8.69,8.69,0,0,0-1.42.42c-5.86,2.29-11.19,18.1-2,16.42,4.68-.86,2.32-5.13,6-11.56.56-1,1.28-4.24-.54-5.15,1.94-.26,5.18-.06,9.15,2.67,6.55,4.51,16.33,6.68,15.79,1.53S394.38,149.72,394.38,149.72Z" style="opacity:0.2"></path><path d="M365.29,169.31a5.76,5.76,0,0,0,3.1,3.46c1.83.74,2.93-1.33,2.56-3.59-.33-2-1.68-4.85-3.59-4.61S364.57,167.28,365.29,169.31Z" style="fill:#ffb573"></path><path d="M384.78,173a25,25,0,0,0-2.3,2.64l-.54-.28c-2.46-1.33-3.17-2.76-3.2-3.94a3.51,3.51,0,0,1,.39-1.66,3.46,3.46,0,0,1,.53-.82c.88,1.49,3.08,2.9,4.29,3.6C384.45,172.82,384.78,173,384.78,173Z" style="fill:#263238"></path><path d="M384,172.52l-.7.76c-2.31-1.25-3.77-2.44-4.12-3.54a3.46,3.46,0,0,1,.53-.82C380.54,170.41,382.74,171.82,384,172.52Z" style="fill:#fff"></path><path d="M381.94,175.34c-2.46-1.33-3.17-2.76-3.2-3.94a9.14,9.14,0,0,1,2.44,2A3.51,3.51,0,0,1,381.94,175.34Z" style="fill:#de5753"></path><path d="M398.3,188.85a25.12,25.12,0,0,1-12.41,11.88c-.58.25-1.17.48-1.79.7a29.39,29.39,0,0,1-17.24.17,20,20,0,0,1-2.15-.8c-11-4.86-8.62-16.77-8.62-16.77a31.19,31.19,0,0,0,9.73,3.76c.6.12,1.22.22,1.87.31a24.17,24.17,0,0,0,4.46.19c3.56-.18,8.55-.12,13.24,0l2,.06C393.33,188.56,398.3,188.85,398.3,188.85Z" style="fill:#ffb573"></path><path d="M367.69,188.1a26.08,26.08,0,0,0-1.18,12.15,8.87,8.87,0,0,0,.35,1.35,20,20,0,0,1-2.15-.8c0-.07,0-.16,0-.23a27.4,27.4,0,0,1,1.15-12.78C366.42,187.91,367,188,367.69,188.1Z" style="fill:#407BFF"></path><path d="M385.89,200.73c-.58.25-1.17.48-1.79.7a31.6,31.6,0,0,1,1.29-13.12l2,.06A30.17,30.17,0,0,0,385.89,200.73Z" style="fill:#407BFF"></path><path d="M357.15,184s-2.27,12.94,13.11,13.5,26.5-10,26.5-10h9.57s.54,9.15-6,19.21c0,0-4.24-.13-5.25.73-2.17,1.86-5.14,10.22-5.14,10.22-17.42,13.11-46.83-2.81-40.54-39.15Z" style="fill:#263238"></path><polygon points="382.86 210.67 357.18 220.91 358.56 221.17 355.88 223.78 358.56 222.6 355.23 225.83 382.86 215.06 380.59 215.06 382.86 213.13 381.54 212.51 382.86 210.67" style="fill:#fff;opacity:0.30000000000000004"></polygon><path d="M364.67,221.15c.41,1.18-.37,2.13-1.87,2.66l-2.75,1-.86-6.13,2.54-.88c1.14-.4,2-.2,2.25.62a1.68,1.68,0,0,1-.53,1.89A1.22,1.22,0,0,1,364.67,221.15Zm-.81.29c-.21-.58-.7-.64-1.47-.37l-1.92.67.29,2,1.87-.65C363.66,222.77,364.11,222.17,363.86,221.44Zm-3.76-2.37.27,2,1.68-.59c.9-.31,1.38-.89,1.12-1.63-.17-.5-.67-.58-1.38-.33Z" style="fill:#fff"></path><path d="M366.31,217l.26,1.89,2.88-1,.1.74-2.88,1,.28,2,3.35-1.17.11.76-4.17,1.46-.85-6.13,4-1.42.11.76Z" style="fill:#fff"></path><path d="M375.21,217.86l-3.06,1.07-.4,1.75-.89.31,1.75-7,.81-.28,3.45,5.22-.81.28Zm-.39-.6-1.66-2.58-.82,3.45Z" style="fill:#fff"></path><path d="M377.82,212.93l-2,.68-.11-.76,4.74-1.66.1.77-1.95.68.74,5.37-.81.28Z" style="fill:#fff"></path><path d="M384,187.58a.24.24,0,0,0-.32.09c-.07.12-7.08,11.79-23.64,13.55,2.45-1.16,6.95-4.38,9.28-12.85a.25.25,0,0,0-.16-.29.24.24,0,0,0-.29.17c-3.2,11.63-10.52,13.1-10.6,13.12h0c-.1,0-9.64,2-16.27-1.42a1.14,1.14,0,0,0,.13-.52,1.21,1.21,0,1,0-1.21,1.21,1.2,1.2,0,0,0,.81-.32,22,22,0,0,0,10.07,2.12,34.8,34.8,0,0,0,6.55-.61c18-1.11,25.66-13.8,25.74-13.93A.24.24,0,0,0,384,187.58Z" style="fill:#263238"></path><path d="M384,187.58a.24.24,0,0,0-.32.09c-.07.12-7.08,11.79-23.64,13.55,2.45-1.16,6.95-4.38,9.28-12.85a.25.25,0,0,0-.16-.29.24.24,0,0,0-.29.17c-3.2,11.63-10.52,13.1-10.6,13.12h0c-.1,0-9.64,2-16.27-1.42a1.14,1.14,0,0,0,.13-.52,1.21,1.21,0,1,0-1.21,1.21,1.2,1.2,0,0,0,.81-.32,22,22,0,0,0,10.07,2.12,34.8,34.8,0,0,0,6.55-.61c18-1.11,25.66-13.8,25.74-13.93A.24.24,0,0,0,384,187.58Z" style="fill:#fff;opacity:0.30000000000000004"></path><circle cx="369.35" cy="245.34" r="0.92" style="fill:#407BFF"></circle></g></svg>