<svg xmlns="http://www.w3.org/2000/svg" viewBox="0 0 500 500"><g id="background-complete"><rect y="382.4" width="500" height="0.25" style="fill:#ebebeb"></rect><rect x="416.78" y="398.49" width="33.12" height="0.25" style="fill:#ebebeb"></rect><rect x="322.53" y="401.21" width="8.69" height="0.25" style="fill:#ebebeb"></rect><rect x="396.59" y="389.21" width="19.19" height="0.25" style="fill:#ebebeb"></rect><rect x="52.46" y="390.89" width="43.19" height="0.25" style="fill:#ebebeb"></rect><rect x="104.56" y="390.89" width="6.33" height="0.25" style="fill:#ebebeb"></rect><rect x="131.47" y="395.11" width="93.68" height="0.25" style="fill:#ebebeb"></rect><path d="M237,337.8H43.91a5.71,5.71,0,0,1-5.7-5.71V60.66A5.71,5.71,0,0,1,43.91,55H237a5.71,5.71,0,0,1,5.71,5.71V332.09A5.71,5.71,0,0,1,237,337.8ZM43.91,55.2a5.46,5.46,0,0,0-5.45,5.46V332.09a5.46,5.46,0,0,0,5.45,5.46H237a5.47,5.47,0,0,0,5.46-5.46V60.66A5.47,5.47,0,0,0,237,55.2Z" style="fill:#ebebeb"></path><path d="M453.31,337.8H260.21a5.72,5.72,0,0,1-5.71-5.71V60.66A5.72,5.72,0,0,1,260.21,55h193.1A5.71,5.71,0,0,1,459,60.66V332.09A5.71,5.71,0,0,1,453.31,337.8ZM260.21,55.2a5.47,5.47,0,0,0-5.46,5.46V332.09a5.47,5.47,0,0,0,5.46,5.46h193.1a5.47,5.47,0,0,0,5.46-5.46V60.66a5.47,5.47,0,0,0-5.46-5.46Z" style="fill:#ebebeb"></path><rect x="223.03" y="132.14" width="21.95" height="31.06" style="fill:#f0f0f0"></rect><rect x="224.46" y="133.6" width="19.09" height="28.14" style="fill:#fafafa"></rect><rect x="250.61" y="142.92" width="21.95" height="31.06" style="fill:#f0f0f0"></rect><rect x="252.04" y="144.38" width="19.09" height="28.14" style="fill:#fafafa"></rect><rect x="221.11" y="165" width="19.77" height="27.97" transform="translate(409.98 -52.01) rotate(90)" style="fill:#f0f0f0"></rect><rect x="222.4" y="166.31" width="17.19" height="25.34" transform="translate(409.98 -52.01) rotate(90)" style="fill:#fafafa"></rect><rect x="255.16" y="173.6" width="21.95" height="31.06" transform="translate(455.27 -77) rotate(90)" style="fill:#f0f0f0"></rect><rect x="256.59" y="175.06" width="19.09" height="28.14" transform="translate(455.27 -77) rotate(90)" style="fill:#fafafa"></rect><rect x="227.79" y="195.58" width="17.19" height="24.32" transform="translate(472.77 415.48) rotate(180)" style="fill:#f0f0f0"></rect><rect x="228.91" y="196.72" width="14.95" height="22.03" transform="translate(472.77 415.48) rotate(180)" style="fill:#fafafa"></rect><polygon points="78.12 115.22 114.91 93.82 143.26 93.82 180.66 114.21 180.66 252.93 78.12 252.93 78.12 115.22" style="fill:#e0e0e0"></polygon><path d="M181.72,252.93H78.12V115.22l1-1a72.88,72.88,0,0,1,50.75-20.39h0a72.86,72.86,0,0,1,50.74,20.39l1.06,1ZM85,246.06h89.85V118.17a66.47,66.47,0,0,0-89.85,0Z" style="fill:#fafafa"></path><polygon points="127.34 246.89 132.5 246.89 132.5 200.85 176.15 200.85 176.15 195.7 132.5 195.7 132.5 148.61 176.15 148.61 176.15 143.45 132.5 143.45 132.5 99.8 127.34 99.8 127.34 143.45 83.69 143.45 83.69 148.61 127.34 148.61 127.34 195.7 83.69 195.7 83.69 200.85 127.34 200.85 127.34 246.89" style="fill:#f0f0f0"></polygon><path d="M185.15,256.37H74.68V113.82l1-1a76.77,76.77,0,0,1,108.46,0l1,1ZM81.55,249.5h96.73V116.69a69.9,69.9,0,0,0-96.73,0Z" style="fill:#f0f0f0"></path><polygon points="318.28 115.22 355.08 93.82 383.42 93.82 420.83 114.21 420.83 252.93 318.28 252.93 318.28 115.22" style="fill:#e0e0e0"></polygon><path d="M421.88,252.93H318.28V115.22l1.06-1a72.86,72.86,0,0,1,50.74-20.39h0a72.9,72.9,0,0,1,50.75,20.39l1.05,1Zm-96.72-6.87H415V118.17a66.47,66.47,0,0,0-89.85,0Z" style="fill:#fafafa"></path><polygon points="367.5 246.89 372.66 246.89 372.66 200.85 416.31 200.85 416.31 195.7 372.66 195.7 372.66 148.61 416.31 148.61 416.31 143.45 372.66 143.45 372.66 99.8 367.5 99.8 367.5 143.45 323.85 143.45 323.85 148.61 367.5 148.61 367.5 195.7 323.85 195.7 323.85 200.85 367.5 200.85 367.5 246.89" style="fill:#f0f0f0"></polygon><path d="M425.32,256.37H314.85V113.82l1-1a76.77,76.77,0,0,1,108.46,0l1,1Zm-103.6-6.87h96.73V116.69a69.9,69.9,0,0,0-96.73,0Z" style="fill:#f0f0f0"></path><path d="M197.14,92.08v.17c-.22,1.82-1.27,5-2.65,4.87s-1.8-3.44-1.68-5.28v-.17c.17-1.79,1.27-3.15,2.47-3S197.31,90.29,197.14,92.08Z" style="fill:#f0f0f0"></path><path d="M197.14,92.08v.17l-4.33-.41v-.17c.17-1.79,1.27-3.15,2.47-3S197.31,90.29,197.14,92.08Z" style="fill:#e6e6e6"></path><rect x="194.85" y="86.59" width="0.8" height="4.75" transform="translate(9.12 -17.78) rotate(5.34)" style="fill:#e6e6e6"></rect><path d="M130.6,84.69l0,.16c-.59,1.74-2.28,4.63-3.59,4.22s-1.06-3.74-.56-5.51l0-.17c.53-1.71,1.89-2.82,3-2.46S131.14,83,130.6,84.69Z" style="fill:#f0f0f0"></path><path d="M130.6,84.69l0,.16-4.15-1.29,0-.17c.53-1.71,1.89-2.82,3-2.46S131.14,83,130.6,84.69Z" style="fill:#e6e6e6"></path><rect x="129" y="78.88" width="0.8" height="4.75" transform="translate(29.94 -34.74) rotate(17.26)" style="fill:#e6e6e6"></rect><path d="M242.09,88.91l0,.17c.4,1.79.46,5.14-.88,5.47s-2.84-2.65-3.34-4.42l0-.16c-.44-1.75.15-3.4,1.31-3.69S241.65,87.16,242.09,88.91Z" style="fill:#f0f0f0"></path><path d="M242.09,88.91l0,.17-4.22,1,0-.16c-.44-1.75.15-3.4,1.31-3.69S241.65,87.16,242.09,88.91Z" style="fill:#e6e6e6"></path><rect x="238.87" y="84.23" width="0.8" height="4.75" transform="translate(-13.87 60.71) rotate(-14.06)" style="fill:#e6e6e6"></rect><path d="M305.64,69.44l.08.15c.84,1.64,1.74,4.86.52,5.52s-3.42-1.85-4.34-3.44l-.08-.15c-.86-1.58-.71-3.33.34-3.9S304.78,67.86,305.64,69.44Z" style="fill:#f0f0f0"></path><path d="M305.64,69.44l.08.15-3.82,2.08-.08-.15c-.86-1.58-.71-3.33.34-3.9S304.78,67.86,305.64,69.44Z" style="fill:#e6e6e6"></path><rect x="301.93" y="65.54" width="0.8" height="4.75" transform="translate(4.34 152.87) rotate(-28.57)" style="fill:#e6e6e6"></rect><path d="M278.28,81.14l0,.16c.24,1.83,0,5.17-1.33,5.39s-2.62-2.88-3-4.68l0-.17c-.3-1.78.43-3.38,1.61-3.57S278,79.36,278.28,81.14Z" style="fill:#f0f0f0"></path><path d="M278.28,81.14l0,.16L274,82l0-.17c-.3-1.78.43-3.38,1.61-3.57S278,79.36,278.28,81.14Z" style="fill:#e6e6e6"></path><rect x="275.26" y="76.23" width="0.8" height="4.75" transform="translate(-9.07 45.5) rotate(-9.28)" style="fill:#e6e6e6"></rect><path d="M164.5,89v.17c-.06,1.84-.82,5.1-2.2,5.09s-2.11-3.27-2.15-5.11V89c0-1.8,1-3.25,2.18-3.25S164.5,87.19,164.5,89Z" style="fill:#f0f0f0"></path><path d="M164.5,89v.17l-4.35,0V89c0-1.8,1-3.25,2.18-3.25S164.5,87.19,164.5,89Z" style="fill:#e6e6e6"></path><rect x="161.93" y="83.69" width="0.8" height="4.75" transform="matrix(1, 0, 0, 1, 0.27, -0.51)" style="fill:#e6e6e6"></rect><path d="M317.42,55.39s-66.85,55.5-214.84,18.77" style="fill:none;stroke:#e0e0e0;stroke-linecap:round;stroke-linejoin:round;stroke-width:2px"></path><path d="M302.86,92.08v.17c.22,1.82,1.27,5,2.65,4.87s1.8-3.44,1.68-5.28v-.17c-.17-1.79-1.27-3.15-2.47-3S302.69,90.29,302.86,92.08Z" style="fill:#f0f0f0"></path><path d="M302.86,92.08v.17l4.33-.41v-.17c-.17-1.79-1.27-3.15-2.47-3S302.69,90.29,302.86,92.08Z" style="fill:#e6e6e6"></path><rect x="304.35" y="86.59" width="0.8" height="4.75" transform="translate(616.46 149.2) rotate(174.66)" style="fill:#e6e6e6"></rect><path d="M369.4,84.69l.05.16c.59,1.74,2.28,4.63,3.59,4.22s1.06-3.74.56-5.51l-.05-.17c-.53-1.71-1.89-2.82-3-2.46S368.86,83,369.4,84.69Z" style="fill:#f0f0f0"></path><path d="M369.4,84.69l.05.16,4.15-1.29-.05-.17c-.53-1.71-1.89-2.82-3-2.46S368.86,83,369.4,84.69Z" style="fill:#e6e6e6"></path><rect x="370.21" y="78.88" width="0.8" height="4.75" transform="translate(748.63 48.87) rotate(162.74)" style="fill:#e6e6e6"></rect><path d="M257.91,88.91l0,.17c-.4,1.79-.46,5.14.88,5.47s2.84-2.65,3.34-4.42l0-.16c.44-1.75-.15-3.4-1.31-3.69S258.35,87.16,257.91,88.91Z" style="fill:#f0f0f0"></path><path d="M257.91,88.91l0,.17,4.22,1,0-.16c.44-1.75-.15-3.4-1.31-3.69S258.35,87.16,257.91,88.91Z" style="fill:#e6e6e6"></path><rect x="260.33" y="84.23" width="0.8" height="4.75" transform="translate(492.62 233.95) rotate(-165.94)" style="fill:#e6e6e6"></rect><path d="M194.36,69.44l-.08.15c-.84,1.64-1.74,4.86-.52,5.52s3.42-1.85,4.34-3.44l.08-.15c.86-1.58.71-3.33-.34-3.9S195.22,67.86,194.36,69.44Z" style="fill:#f0f0f0"></path><path d="M194.36,69.44l-.08.15,3.82,2.08.08-.15c.86-1.58.71-3.33-.34-3.9S195.22,67.86,194.36,69.44Z" style="fill:#e6e6e6"></path><rect x="197.27" y="65.54" width="0.8" height="4.75" transform="translate(338.78 222.1) rotate(-151.43)" style="fill:#e6e6e6"></rect><path d="M221.72,81.14l0,.16c-.24,1.83,0,5.17,1.33,5.39s2.62-2.88,3-4.68l0-.17c.3-1.78-.43-3.38-1.61-3.57S222,79.36,221.72,81.14Z" style="fill:#f0f0f0"></path><path d="M221.72,81.14l0,.16L226,82l0-.17c.3-1.78-.43-3.38-1.61-3.57S222,79.36,221.72,81.14Z" style="fill:#e6e6e6"></path><rect x="223.94" y="76.23" width="0.8" height="4.75" transform="translate(433.06 192.37) rotate(-170.72)" style="fill:#e6e6e6"></rect><path d="M335.5,89v.17c.06,1.84.82,5.1,2.2,5.09s2.11-3.27,2.15-5.11V89c0-1.8-1-3.25-2.18-3.25S335.5,87.19,335.5,89Z" style="fill:#f0f0f0"></path><path d="M335.5,89v.17l4.35,0V89c0-1.8-1-3.25-2.18-3.25S335.5,87.19,335.5,89Z" style="fill:#e6e6e6"></path><rect x="337.27" y="83.69" width="0.8" height="4.75" transform="matrix(-1, 0, 0, -1, 675.61, 171.06)" style="fill:#e6e6e6"></rect><path d="M182.58,55.39s66.85,55.5,214.84,18.77" style="fill:none;stroke:#e0e0e0;stroke-linecap:round;stroke-linejoin:round;stroke-width:2px"></path><rect x="245.35" y="288.3" width="75.81" height="81.59" style="fill:#e6e6e6"></rect><rect x="323.21" y="282.23" width="9.53" height="98.25" style="fill:#e6e6e6"></rect><rect x="257.42" y="294.72" width="6.21" height="30.49" style="fill:#fafafa"></rect><rect x="283.18" y="294.72" width="6.21" height="30.49" style="fill:#f5f5f5"></rect><rect x="263.63" y="296.87" width="6.21" height="28.35" style="fill:#f5f5f5"></rect><rect x="276.96" y="296.87" width="6.21" height="28.35" style="fill:#fafafa"></rect><rect x="272.95" y="294.72" width="4.01" height="30.49" style="fill:#ebebeb"></rect><rect x="269.84" y="296.87" width="3.11" height="28.35" style="fill:#fafafa"></rect><rect x="289.39" y="294.72" width="6.21" height="30.49" style="fill:#ebebeb"></rect><rect x="295.6" y="296.87" width="6.21" height="28.35" style="fill:#e6e6e6"></rect><rect x="308.93" y="296.87" width="6.21" height="28.35" style="fill:#e6e6e6"></rect><rect x="304.92" y="294.72" width="4.01" height="30.49" style="fill:#fafafa"></rect><rect x="301.81" y="296.87" width="3.11" height="28.35" style="fill:#ebebeb"></rect><rect x="315.14" y="295.44" width="3.11" height="29.77" style="fill:#fafafa"></rect><rect x="312.03" y="335.59" width="6.21" height="30.49" transform="translate(630.28 701.67) rotate(180)" style="fill:#fafafa"></rect><rect x="286.28" y="335.59" width="6.21" height="30.49" transform="translate(578.77 701.67) rotate(180)" style="fill:#fafafa"></rect><rect x="305.82" y="337.73" width="6.21" height="28.35" transform="translate(617.86 703.82) rotate(180)" style="fill:#f0f0f0"></rect><rect x="292.49" y="337.73" width="6.21" height="28.35" transform="translate(591.2 703.82) rotate(180)" style="fill:#ebebeb"></rect><rect x="298.7" y="335.59" width="4.01" height="30.49" transform="translate(601.42 701.67) rotate(180)" style="fill:#fafafa"></rect><rect x="302.72" y="337.73" width="3.11" height="28.35" transform="translate(608.54 703.82) rotate(180)" style="fill:#f5f5f5"></rect><rect x="280.07" y="335.59" width="6.21" height="30.49" transform="translate(566.35 701.67) rotate(180)" style="fill:#ebebeb"></rect><rect x="273.86" y="337.73" width="6.21" height="28.35" transform="translate(553.93 703.82) rotate(180)" style="fill:#f5f5f5"></rect><rect x="260.53" y="337.73" width="6.21" height="28.35" transform="translate(527.27 703.82) rotate(180)" style="fill:#e6e6e6"></rect><rect x="266.74" y="335.59" width="4.01" height="30.49" transform="translate(537.49 701.67) rotate(180)" style="fill:#fafafa"></rect><rect x="253.41" y="335.59" width="4.01" height="30.49" transform="translate(510.83 701.67) rotate(180)" style="fill:#fafafa"></rect><rect x="270.75" y="337.73" width="3.11" height="28.35" transform="translate(544.61 703.82) rotate(180)" style="fill:#ebebeb"></rect><rect x="257.42" y="336.31" width="3.11" height="29.77" transform="translate(517.95 702.4) rotate(180)" style="fill:#f0f0f0"></rect><path d="M320.78,282.23H243V375h75.29v5.5h5.08V282.23Zm-2.54,83.85H247.75V330.33h70.49Zm0-40.83H247.75V291.12h70.49Z" style="fill:#f0f0f0"></path><rect x="169.42" y="288.3" width="75.81" height="81.59" transform="translate(414.65 658.19) rotate(180)" style="fill:#e6e6e6"></rect><rect x="172.34" y="373.98" width="9.53" height="6.5" transform="translate(354.21 754.46) rotate(180)" style="fill:#e6e6e6"></rect><rect x="236.47" y="294.72" width="6.21" height="30.49" transform="translate(479.14 619.94) rotate(180)" style="fill:#fafafa"></rect><rect x="210.71" y="294.72" width="6.21" height="30.49" transform="translate(427.63 619.94) rotate(180)" style="fill:#f5f5f5"></rect><rect x="230.25" y="296.87" width="6.21" height="28.35" transform="translate(466.72 622.08) rotate(180)" style="fill:#f5f5f5"></rect><rect x="216.92" y="296.87" width="6.21" height="28.35" transform="translate(440.06 622.08) rotate(180)" style="fill:#fafafa"></rect><rect x="223.13" y="294.72" width="4.01" height="30.49" transform="translate(450.28 619.94) rotate(180)" style="fill:#ebebeb"></rect><rect x="227.15" y="296.87" width="3.11" height="28.35" transform="translate(457.4 622.08) rotate(180)" style="fill:#fafafa"></rect><rect x="208.6" y="294.72" width="6.21" height="30.49" transform="translate(423.4 619.94) rotate(180)" style="fill:#ebebeb"></rect><rect x="202.38" y="296.87" width="6.21" height="28.35" transform="translate(410.98 622.08) rotate(180)" style="fill:#e6e6e6"></rect><rect x="189.05" y="296.87" width="6.21" height="28.35" transform="translate(384.32 622.08) rotate(180)" style="fill:#e6e6e6"></rect><rect x="195.26" y="294.72" width="4.01" height="30.49" transform="translate(394.54 619.94) rotate(180)" style="fill:#fafafa"></rect><rect x="199.28" y="296.87" width="3.11" height="28.35" transform="translate(401.66 622.08) rotate(180)" style="fill:#ebebeb"></rect><rect x="185.95" y="295.44" width="3.11" height="29.77" transform="translate(375 620.66) rotate(180)" style="fill:#f5f5f5"></rect><rect x="183.03" y="335.59" width="6.21" height="30.49" style="fill:#fafafa"></rect><rect x="208.78" y="335.59" width="6.21" height="30.49" style="fill:#fafafa"></rect><rect x="189.24" y="337.73" width="6.21" height="28.35" style="fill:#f5f5f5"></rect><rect x="202.57" y="337.73" width="6.21" height="28.35" style="fill:#ebebeb"></rect><rect x="198.56" y="335.59" width="4.01" height="30.49" style="fill:#fafafa"></rect><rect x="195.45" y="337.73" width="3.11" height="28.35" style="fill:#f5f5f5"></rect><rect x="210.9" y="335.59" width="6.21" height="30.49" style="fill:#ebebeb"></rect><rect x="217.11" y="337.73" width="6.21" height="28.35" style="fill:#f5f5f5"></rect><rect x="230.44" y="337.73" width="6.21" height="28.35" style="fill:#e6e6e6"></rect><rect x="226.43" y="335.59" width="4.01" height="30.49" style="fill:#fafafa"></rect><rect x="238.94" y="335.59" width="4.01" height="30.49" style="fill:#fafafa"></rect><rect x="223.32" y="337.73" width="3.11" height="28.35" style="fill:#ebebeb"></rect><rect x="236.65" y="336.31" width="3.11" height="29.77" style="fill:#ebebeb"></rect><path d="M167.26,282.23v98.25h5.09V375h75.28V282.23H167.26Zm5.09,48.1h70.49v35.75H172.35Zm0-39.21h70.49v34.13H172.35Z" style="fill:#f0f0f0"></path><path d="M388.24,352.6c0-.32-1.09-32.18-6.27-37.22s-10.83-.18-11.07,0l-.52-.62c.06-.06,6.59-5.38,12.15,0s6.48,36.45,6.52,37.77Z" style="fill:#e0e0e0"></path><path d="M388.68,358.86c0-.38-3.54-38.25,10.29-54.12l.61.54c-13.6,15.6-10.13,53.12-10.09,53.5Z" style="fill:#e0e0e0"></path><path d="M388.17,354.85l-.81-.05c0-.43,2.71-43.05-7.43-52.38l.54-.59C390.9,311.42,388.29,353.08,388.17,354.85Z" style="fill:#e0e0e0"></path><path d="M389.49,354.83h-.81c0-1.17.34-28.78,8.18-33.28a5.54,5.54,0,0,1,5.07-.49c4.75,2,7.1,10.4,7.19,10.76l-.78.21c0-.08-2.34-8.41-6.72-10.22a4.77,4.77,0,0,0-4.36.45C389.82,326.51,389.49,354.55,389.49,354.83Z" style="fill:#e0e0e0"></path><path d="M386.44,354.85l-.81-.05c0-.21,1.18-21.82-4.65-29.43-1.41-1.84-2.94-2.72-4.56-2.61-3.82.27-7,5.86-7.06,5.92l-.71-.4c.14-.25,3.45-6,7.71-6.33,1.9-.13,3.68.86,5.27,2.93C387.64,332.73,386.49,354,386.44,354.85Z" style="fill:#e0e0e0"></path><path d="M387.72,357.79c-.16-2.1-3.82-51.42,2.61-60.11l.65.48c-6.25,8.45-2.49,59.06-2.46,59.57Z" style="fill:#e0e0e0"></path><path d="M403.68,326.05s-3.85,1.42-2.71,4.77,13.34,8.88,13.34,8.88,5.11-4.68.42-12.29S403.79,323.65,403.68,326.05Z" style="fill:#ebebeb"></path><path d="M386.92,319.66s4.11-.17,4.34,3.37-8.89,13.32-8.89,13.32-6.52-2.35-5.12-11.18S385.9,317.48,386.92,319.66Z" style="fill:#ebebeb"></path><path d="M383.45,302.72s2.73-.29,2.51-2-10.64-6-16.78,1c0,0,3.93,6.76,9.62,6.85S383.45,302.72,383.45,302.72Z" style="fill:#ebebeb"></path><path d="M388.55,298.68s-2.48,1.19-3.18-.34,5.88-10.68,14.77-8c0,0,.23,7.82-4.55,10.9S388.55,298.68,388.55,298.68Z" style="fill:#ebebeb"></path><path d="M375.59,324.7s1.89-1.53-.15-2.27-12-.53-12.15,9.37c0,0,11.65,1.94,13.09-1.83S375.59,324.7,375.59,324.7Z" style="fill:#ebebeb"></path><path d="M399.34,302.48s-1.88-1.53.15-2.27,12.05-.54,12.15,9.37c0,0-11.65,1.94-13.09-1.84S399.34,302.48,399.34,302.48Z" style="fill:#ebebeb"></path><path d="M393.19,310.46s-.17-1.86,1.33-1.13,6.71,6.35,1.3,11.69c0,0-7.27-5.39-6-8.19S393.19,310.46,393.19,310.46Z" style="fill:#ebebeb"></path><path d="M373.9,313.1s1.13-1.48-.53-1.66-9.06,1.79-7.33,9.19c0,0,9-.68,9.41-3.75S373.9,313.1,373.9,313.1Z" style="fill:#ebebeb"></path><polygon points="404.4 382.29 373.42 382.29 370.08 348.38 407.75 348.38 404.4 382.29" style="fill:#f0f0f0"></polygon><rect x="368.43" y="344.63" width="40.97" height="7.48" style="fill:#e6e6e6"></rect><path d="M111.76,352.6c0-.32,1.09-32.18,6.27-37.22s10.83-.18,11.07,0l.52-.62c-.06-.06-6.59-5.38-12.15,0S111,351.25,111,352.57Z" style="fill:#e0e0e0"></path><path d="M111.32,358.86c0-.38,3.54-38.25-10.29-54.12l-.61.54c13.6,15.6,10.13,53.12,10.09,53.5Z" style="fill:#e0e0e0"></path><path d="M111.83,354.85l.81-.05c0-.43-2.71-43.05,7.43-52.38l-.54-.59C109.1,311.42,111.71,353.08,111.83,354.85Z" style="fill:#e0e0e0"></path><path d="M110.51,354.83h.81c0-1.17-.34-28.78-8.18-33.28a5.54,5.54,0,0,0-5.07-.49c-4.75,2-7.1,10.4-7.19,10.76l.78.21c0-.08,2.34-8.41,6.72-10.22a4.77,4.77,0,0,1,4.36.45C110.18,326.51,110.51,354.55,110.51,354.83Z" style="fill:#e0e0e0"></path><path d="M113.56,354.85l.81-.05c0-.21-1.18-21.82,4.65-29.43,1.41-1.84,2.94-2.72,4.56-2.61,3.82.27,7,5.86,7.06,5.92l.71-.4c-.14-.25-3.45-6-7.71-6.33-1.9-.13-3.68.86-5.27,2.93C112.36,332.73,113.51,354,113.56,354.85Z" style="fill:#e0e0e0"></path><path d="M112.28,357.79c.16-2.1,3.82-51.42-2.61-60.11l-.65.48c6.25,8.45,2.49,59.06,2.46,59.57Z" style="fill:#e0e0e0"></path><path d="M96.32,326.05s3.85,1.42,2.71,4.77-13.34,8.88-13.34,8.88-5.11-4.68-.42-12.29S96.21,323.65,96.32,326.05Z" style="fill:#ebebeb"></path><path d="M113.08,319.66s-4.11-.17-4.34,3.37,8.89,13.32,8.89,13.32,6.52-2.35,5.12-11.18S114.1,317.48,113.08,319.66Z" style="fill:#ebebeb"></path><path d="M116.55,302.72s-2.73-.29-2.51-2,10.64-6,16.78,1c0,0-3.93,6.76-9.62,6.85S116.55,302.72,116.55,302.72Z" style="fill:#ebebeb"></path><path d="M111.45,298.68s2.48,1.19,3.18-.34-5.88-10.68-14.77-8c0,0-.23,7.82,4.55,10.9S111.45,298.68,111.45,298.68Z" style="fill:#ebebeb"></path><path d="M124.41,324.7s-1.89-1.53.15-2.27,12-.53,12.15,9.37c0,0-11.65,1.94-13.09-1.83S124.41,324.7,124.41,324.7Z" style="fill:#ebebeb"></path><path d="M100.66,302.48s1.88-1.53-.15-2.27-12.05-.54-12.15,9.37c0,0,11.65,1.94,13.09-1.84S100.66,302.48,100.66,302.48Z" style="fill:#ebebeb"></path><path d="M106.81,310.46s.17-1.86-1.33-1.13-6.71,6.35-1.3,11.69c0,0,7.27-5.39,6-8.19S106.81,310.46,106.81,310.46Z" style="fill:#ebebeb"></path><path d="M126.1,313.1s-1.13-1.48.53-1.66,9.06,1.79,7.33,9.19c0,0-9-.68-9.41-3.75S126.1,313.1,126.1,313.1Z" style="fill:#ebebeb"></path><polygon points="95.6 382.29 126.58 382.29 129.92 348.38 92.25 348.38 95.6 382.29" style="fill:#f0f0f0"></polygon><rect x="90.6" y="344.63" width="40.97" height="7.48" transform="translate(222.17 696.75) rotate(180)" style="fill:#e6e6e6"></rect></g><g id="background-simple"><path d="M90.16,107.85c27.92-59.45,127.06-51.06,165.32-9.26s50.69,68.6,85.2,53,78.52-11.44,81.05,38.16S383.81,298,319.64,315.36s-64.16,78.75-149.1,66.36c-46.31-6.75-47.37-56.86-40.83-98.3S57.78,176.79,90.16,107.85Z" style="fill:#407BFF"></path><path d="M90.16,107.85c27.92-59.45,127.06-51.06,165.32-9.26s50.69,68.6,85.2,53,78.52-11.44,81.05,38.16S383.81,298,319.64,315.36s-64.16,78.75-149.1,66.36c-46.31-6.75-47.37-56.86-40.83-98.3S57.78,176.79,90.16,107.85Z" style="fill:#fff;opacity:0.9"></path></g><g id="Shadow"><ellipse id="path" cx="250" cy="416.24" rx="193.89" ry="11.32" style="fill:#f5f5f5"></ellipse></g><g id="character-2"><path d="M363.48,163.44l0,.06c1.48.08,3.29.38,3.79,1.78s-.88,3.21-.2,4.63c.8,1.71,3.92,1.57,4.23,3.42.23,1.44-1.61,2.7-1.18,4.09.57,1.82,4.09,1.14,4.55,3,.23,1-.63,1.88-.6,2.87,0,1.16,1.2,1.9,2,2.77,1.46,1.68,1.5,4.17,1.16,6.37a10.29,10.29,0,0,1-2.26,5.45,12.1,12.1,0,0,1-5.12,2.83,89.16,89.16,0,0,1-13.17,3.44,36.31,36.31,0,0,1-11.66.58,16.69,16.69,0,0,1-10.26-5.17,5.53,5.53,0,0,1-1.58-3.37,8.92,8.92,0,0,1,.66-2.89,17.16,17.16,0,0,0,.28-9.32,9.86,9.86,0,0,0,2.54-1.93,3.35,3.35,0,0,0,.82-3c-.31-1.1-1.32-1.85-1.8-2.89-1.16-2.53,1.22-5.73-.11-8.17a6.75,6.75,0,0,0-2.72-2.28c-1.92-1.17-3.86-2.88-4-5.13-.07-1.47.66-2.85.94-4.29a27.81,27.81,0,0,0,.15-4.38,5.74,5.74,0,0,1,1.17-3.72c.77-.8,1.83-.79,2.73-1.32,1.17-.7,1.45-2.12,2.3-3.08,2.53-2.85,6.89-.09,10-1,2.07-.61,4-2.56,6-1.81,1.45.53,2.08,2.22,3.22,3.28,1.39,1.29,3.49,1.59,4.86,2.91,1.67,1.61,1.75,4.25,1.44,6.56-.21,1.54-.49,3.28.46,4.52.46.62,1.19,1,1.57,1.7C364.3,161,363.9,162.31,363.48,163.44Z" style="fill:#263238"></path><path d="M334.37,187.85c-6,2.8-16.21,33.65-14.65,37.14s5.22,4.43,6.82-.49,6.45-21.56,14.57-28.15S334.37,187.85,334.37,187.85Z" style="fill:#407BFF"></path><path d="M358,240s-10.84,57.76-13.73,81.48c-3.78,30.94-19.23,76.2-19.23,76.2l6.18,1.6s21.78-38.47,26-73.08c17.31-35.36,18.7-78.92,18.7-78.92Z" style="fill:#b97964"></path><path d="M313.53,411.68a9.16,9.16,0,0,1,3.17-.81h0s3.8-2.23,7.56-10.92l4.24,0a3.5,3.5,0,0,1,3.25,2.33,1.94,1.94,0,0,1,.12.58,22.37,22.37,0,0,1-.33,3.06,84.57,84.57,0,0,1-2.47,10l-.72-.18,1.31-6.31c.43-2.15-1.83-.08-2.87,2.09s-2.65,4.34-7.33,3.27C314,413.45,311.82,412.66,313.53,411.68Z" style="fill:#2e353a"></path><path d="M369.24,239.07s1.35,58.76,3.42,82.56c2.71,31.05-3.05,78.53-3.05,78.53l6.38.29s13.35-42.14,10.35-76.88c9.61-38.18,2-81.08,2-81.08Z" style="fill:#b97964"></path><path d="M359.69,413.61a9.19,9.19,0,0,1,3.07-1.14h0s3.54-2.63,6.34-11.67l4.2-.49a3.5,3.5,0,0,1,3.49,2,1.9,1.9,0,0,1,.18.57,24.18,24.18,0,0,1,0,3.07,84.86,84.86,0,0,1-1.39,10.16l-.73-.1.62-6.42c.19-2.18-1.82.12-2.63,2.39s-2.16,4.6-6.93,4C360.37,415.32,358.1,414.77,359.69,413.61Z" style="fill:#2e353a"></path><path d="M355.13,232.43,333.48,352.58s50.34,6,67.4,2.49c0,0,4.91-92.42-12.9-126.94Z" style="fill:#407BFF"></path><path d="M400.88,355.07c-17.06,3.52-67.4-2.49-67.4-2.49l18.63-103.37,3-16.76v0L374.05,230,388,228.13h0C405.79,262.65,400.88,355.07,400.88,355.07Z" style="fill:#fff;opacity:0.4;isolation:isolate"></path><path d="M325,397.68s-5.29,11.06-8.33,13.19c0,0,4.08,2.44,8.33-3,5.49-7,6.84-5.05,6.84-5.05a19.55,19.55,0,0,0-.66-3.56C330.38,397,325,397.68,325,397.68Z" style="fill:#b97964"></path><path d="M370.26,397.59s-1.5,4.09-3.5,8.59a19.58,19.58,0,0,1-4,6.29s3.48,1.13,5.35-1.05,5.08-10.05,8.68-9.14a8.21,8.21,0,0,0-.8-1.83C375.45,399.56,370.26,397.59,370.26,397.59Z" style="fill:#b97964"></path><polygon points="387.98 228.23 373.92 230.17 355.19 232.75 355.13 232.45 354.18 228.1 353.98 227.16 375.84 224.74 386.96 223.51 387.96 228.13 387.98 228.23" style="fill:#263238"></polygon><rect x="376.55" y="223.64" width="1.64" height="8.35" transform="translate(786.58 391.67) rotate(170.7)" style="fill:#407BFF"></rect><rect x="362.18" y="226.19" width="7.24" height="5.49" transform="translate(757.13 410.85) rotate(172.89)" style="fill:#fff"></rect><rect x="356.37" y="225.75" width="1.64" height="8.35" transform="translate(746.85 399.09) rotate(170.7)" style="fill:#407BFF"></rect><rect x="376.55" y="223.64" width="1.64" height="8.35" transform="translate(786.58 391.67) rotate(170.7)" style="fill:#fff;opacity:0.4;isolation:isolate"></rect><rect x="356.37" y="225.75" width="1.64" height="8.35" transform="translate(746.85 399.09) rotate(170.7)" style="fill:#fff;opacity:0.4;isolation:isolate"></rect><path d="M387,223.51l-11.17,1.56-21.61,3-.2,0c-.63-2.35-1.21-4.35-1.82-6.19a74.17,74.17,0,0,0-5.85-13.12c-1.88-3.47-4.31-7.71-7.6-13.46h0l-1.11-2q-1.48-2.62-3.22-5.56a97.93,97.93,0,0,1,12.77-5.94c4.64-1.82,18.66-1.86,26.18,3.22C381.49,190.66,383.67,200.46,387,223.51Z" style="fill:#407BFF"></path><path d="M361.69,181.33s-3.12-2.07-4.86-3.27-13.11,2.21-13.55,4.14,1.46,7.59,1.46,7.59S354.11,190.15,361.69,181.33Z" style="fill:#407BFF"></path><path d="M361.69,181.33s-3.12-2.07-4.86-3.27-13.11,2.21-13.55,4.14,1.46,7.59,1.46,7.59S354.11,190.15,361.69,181.33Z" style="opacity:0.2;isolation:isolate"></path><path d="M351.46,191.7c7-4.28,7.8-8.45,7.8-8.45-6.7-2.33-6.24-11.78-6.24-11.78l-8.19,5.67a28.69,28.69,0,0,1,2,3.61c2.5,5.39.07,6.54.07,6.54C346.69,190.93,351.46,191.7,351.46,191.7Z" style="fill:#e4897b"></path><path d="M344.83,177.14a28.69,28.69,0,0,1,2,3.61c3.86-2.93,6.15-9.28,6.15-9.28Z" style="opacity:0.2;isolation:isolate"></path><path d="M341.7,148.85c-8.37,1.6-10.21,6.6-9.17,15.34,1.3,10.93,5.16,18.13,15.18,13.83C361.33,172.17,355.61,146.19,341.7,148.85Z" style="fill:#e4897b"></path><path d="M337.85,162.69a18,18,0,0,1-1.77,3.94,2.35,2.35,0,0,0,2.39.52Z" style="fill:#de5753"></path><path d="M342.85,161c.11.7.58,1.19,1,1.12s.74-.7.63-1.39-.59-1.19-1-1.12S342.73,160.33,342.85,161Z" style="fill:#263238"></path><path d="M343.67,159.64l-1.6-.34S343,160.44,343.67,159.64Z" style="fill:#263238"></path><path d="M334.24,162.32c.11.69.58,1.19,1,1.11s.74-.7.62-1.39-.58-1.19-1-1.11S334.12,161.63,334.24,162.32Z" style="fill:#263238"></path><path d="M335.06,160.93l-1.6-.34S334.42,161.73,335.06,160.93Z" style="fill:#263238"></path><path d="M341.83,155.23a4.42,4.42,0,0,1,3.87.57" style="fill:none;stroke:#263238;stroke-linecap:round;stroke-linejoin:round;stroke-width:0.7246800000000001px"></path><path d="M335.67,156a4,4,0,0,0-3.2,1.32" style="fill:none;stroke:#263238;stroke-linecap:round;stroke-linejoin:round;stroke-width:0.7246800000000001px"></path><path d="M353.55,161.21s-5.23-6.13-5.65-11.56c0,0-17.89-3.6-15.48,13.4,0,0-4.49-14.64,9.84-17.73s18.3,18,12.07,25.67C354.33,171,356.8,165.05,353.55,161.21Z" style="fill:#263238"></path><path d="M352.53,163.24a3.74,3.74,0,0,1,3.31-4.12c2.65-.21,4.9,4.88-1.31,7.4C353.64,166.88,353,166.07,352.53,163.24Z" style="fill:#e4897b"></path><path d="M340.15,169.71a20.21,20.21,0,0,1,2.05,2.13l.45-.27c2-1.22,2.56-2.46,2.53-3.46a3,3,0,0,0-.4-1.38,2.83,2.83,0,0,0-.48-.67,11.1,11.1,0,0,1-3.47,3.22C340.42,169.55,340.15,169.71,340.15,169.71Z" style="fill:#263238"></path><path d="M340.83,169.28l.62.61c1.9-1.16,3.09-2.22,3.33-3.16a2.83,2.83,0,0,0-.48-.67A11.1,11.1,0,0,1,340.83,169.28Z" style="fill:#fff"></path><path d="M342.65,171.57c2-1.22,2.56-2.46,2.53-3.46a7.77,7.77,0,0,0-2,1.81A2.79,2.79,0,0,0,342.65,171.57Z" style="fill:#de5753"></path><path d="M347.9,149.65s-4.31-2.3-6.29,0-.74,2.78-3.83,2.9-.81.67-1.85,2.46-4.22,3.27-4,4.91a26.16,26.16,0,0,1,0,4.05s-5-9.05,1.57-14.39S347.36,144.29,347.9,149.65Z" style="fill:#263238"></path><path d="M356.83,178.06s-2.11,8.58-7.56,8-6-3.86-6-3.86l-1.67,7.29s.46,7.35,10.31,4,9.77-12.2,9.77-12.2Z" style="fill:#407BFF"></path><path d="M375.84,224.74c0,.11,0,.22,0,.33-.06.36-.11.71-.16,1a10.61,10.61,0,0,1-1.58,3.84,1.59,1.59,0,0,1-.13.22c-5.42,8.64-21.49,20-21.49,20l-.32-.94,3-16.76-.95-4.35-.2,0c-.63-2.35-1.21-4.35-1.82-6.19a74.17,74.17,0,0,0-5.85-13.12c-1.88-3.47-4.31-7.71-7.6-13.46,5.9,2.56,15.89,23.92,15.89,23.92s4.32-.76,6.07-3.17,6.45-20.35,6.45-20.35,7.43-.78,9.94,2.48C379.44,201.34,377.18,215.93,375.84,224.74Z" style="opacity:0.2;isolation:isolate"></path><path d="M369.73,186.93c-5.43,3.08-2.5,23.14-5.86,30.13s-19,18.07-19,18.07l3.54,7.21s20-15.42,22.61-18.83,7.54-28.26,6.16-31.81S373,185.06,369.73,186.93Z" style="fill:#407BFF"></path><g id="group"><path d="M310.84,200.18s-9.66.49-10.33.11-15.33-11.18-15.33-11.18l-3,2.48s13.41,13.59,16.09,14.11S312.72,207,312.72,207Z" style="fill:#ebb376"></path><path d="M313.49,198.89l-7.71.39,2.91,10.9,10.21.84S318.25,202,313.49,198.89Z" style="fill:#407BFF"></path><path d="M313.49,198.89l-7.71.39,2.91,10.9,10.21.84S318.25,202,313.49,198.89Z" style="fill:#fff;opacity:0.6000000000000001;isolation:isolate"></path><path d="M319.43,238.67s-1.25-30.93-5.94-39.78c0,0,3.8.87,14-1.85S343,195.61,343,195.61s7.33,17.54,10.2,35.21Z" style="fill:#407BFF"></path><path d="M319.43,238.67s-1.25-30.93-5.94-39.78c0,0,3.8.87,14-1.85S343,195.61,343,195.61s7.33,17.54,10.2,35.21Z" style="fill:#fff;opacity:0.7000000000000001;isolation:isolate"></path><path d="M321.22,208.85s-2.49-9.36,8.64-11.87c10.89-2.44,6.83,8.6,6.83,8.6l-3.56-2.69-7,4.45-3-1.4Z" style="opacity:0.2;isolation:isolate"></path><path d="M320.19,206.48s-.07-9.41,9.53-11.47,8,8.29,8,8.29l-4.4-2.23-7.35,5.75-3.46-2.47Z" style="fill:#407BFF"></path><path d="M320.19,206.48s-.07-9.41,9.53-11.47,8,8.29,8,8.29l-4.4-2.23-7.35,5.75-3.46-2.47Z" style="fill:#fff;opacity:0.6000000000000001;isolation:isolate"></path><path d="M334.1,197.56l-.73.58-7.24,7.32-2.94-3.38a4.62,4.62,0,0,0-.23-.85A8,8,0,0,0,318.9,197l5.11-5.51,5.19-.95a8.76,8.76,0,0,0,.38,2.67A6.3,6.3,0,0,0,334.1,197.56Z" style="fill:#ebb376"></path><path d="M329.58,193.23c-1.18,3.15-3.24,7-6.62,8A8,8,0,0,0,318.9,197l5.11-5.51,5.19-.95A8.76,8.76,0,0,0,329.58,193.23Z" style="opacity:0.2;isolation:isolate"></path><path d="M311.82,176h0c2.39-1.22,5.49-7,5.49-7-1.45-.9-2.45-2.16-3.5-1s-.35,2-2,1.95-3.39-.37-3.57,1.35.81,1.91-.51,2.9-1.58,2.11-.32,3-1.1.79-.81,2.63a2.75,2.75,0,0,0,1.56,2.3h0c.67,1.81,2.18,3.68,5.17,5.36C322.43,192.58,315.36,181.23,311.82,176Z" style="fill:#263238"></path><path d="M331.81,181.48c.58,6.39-1.83,14-6.92,15.79-9.34,3.31-13.4,2.08-15.63-4.88-2-6.26-1.43-16.79,6.21-20S331,172.6,331.81,181.48Z" style="fill:#ebb376"></path><path d="M317.67,185.67c.1.8-.25,1.52-.78,1.58s-1-.54-1.14-1.35.25-1.52.78-1.58S317.57,184.86,317.67,185.67Z" style="fill:#263238"></path><path d="M311.16,186.15c.1.77-.24,1.46-.75,1.51s-1-.52-1.08-1.29.24-1.45.74-1.51S311.06,185.38,311.16,186.15Z" style="fill:#263238"></path><path d="M314.84,181.89a.35.35,0,0,1-.15-.17.36.36,0,0,1,.24-.46,3.62,3.62,0,0,1,3.31.48.38.38,0,0,1,.06.52h0a.39.39,0,0,1-.52.05h0a2.88,2.88,0,0,0-2.65-.33A.38.38,0,0,1,314.84,181.89Z" style="fill:#263238"></path><path d="M308.6,183a.42.42,0,0,1-.21-.08.37.37,0,0,1,0-.52,3.61,3.61,0,0,1,3.14-1.16.38.38,0,0,1,.3.43h0a.39.39,0,0,1-.43.29h0a2.88,2.88,0,0,0-2.49,1A.39.39,0,0,1,308.6,183Z" style="fill:#263238"></path><path d="M312.54,186.93l1.27,3.33a4.39,4.39,0,0,1-2.59.18A10.38,10.38,0,0,0,312.54,186.93Z" style="fill:#d58745"></path><path d="M314.36,192.74a20.66,20.66,0,0,1,2,2.18c.16-.08.31-.17.46-.26,2.05-1.17,2.61-2.39,2.61-3.39a3,3,0,0,0-.36-1.39,2.93,2.93,0,0,0-.47-.68,11.11,11.11,0,0,1-3.55,3.13A7.49,7.49,0,0,1,314.36,192.74Z" style="fill:#263238"></path><path d="M315.05,192.33l.61.63c1.93-1.11,3.14-2.15,3.41-3.08a2.93,2.93,0,0,0-.47-.68A11.11,11.11,0,0,1,315.05,192.33Z" style="fill:#fff"></path><path d="M316.82,194.66c2.05-1.17,2.61-2.39,2.61-3.39a7.65,7.65,0,0,0-2,1.75A2.86,2.86,0,0,0,316.82,194.66Z" style="fill:#de5753"></path><path d="M335.93,180.72c-.17-.84-1-1.1-1.64-1.45,0-.18,0-.36,0-.55-.83-9.27-9.36-11.51-17.5-10-6.81,1.26-10.83,7-6.9,9.23a17.73,17.73,0,0,0,9.42-1s4,0,3.82,4.46,5.3,6,6.43,11.71c0,0,4.53-2.52,4.26-4s.77-1.65,1.59-2.89-.19-1.13-.52-2.73S336.16,181.86,335.93,180.72Z" style="fill:#263238"></path><path d="M316.92,168.69c12.07.33,17.23,10.81,17.23,10.81.06-.23.11-.45.16-.68a10.6,10.6,0,0,0,.25-1.3,11,11,0,0,0,.12-1.11c0-.25,0-.51,0-.75a7.85,7.85,0,0,0-2.17-5.85,1.69,1.69,0,0,0-.76-1.65,1.52,1.52,0,0,0-1.67,0,10.87,10.87,0,0,0-2-.72,15.63,15.63,0,0,0-7-.36c-.41.08-.8.18-1.15.28a9.49,9.49,0,0,0-1.06.34,9.26,9.26,0,0,0-1.62.77h0A3.9,3.9,0,0,0,316.92,168.69Z" style="fill:#407BFF"></path><g style="opacity:0.5;isolation:isolate"><path d="M317.32,168.44c3,.14,8,.87,11.53,3.94a23.68,23.68,0,0,1,5.46,6.44,10.6,10.6,0,0,0,.25-1.3,26.08,26.08,0,0,0-5.12-5.79c-3.19-2.77-7.4-3.74-10.5-4.06A9.26,9.26,0,0,0,317.32,168.44Z" style="fill:#fff"></path></g><path d="M320,167.33a19.63,19.63,0,0,1,14.68,9.08c0-.25,0-.51,0-.75a20,20,0,0,0-13.57-8.61C320.74,167.13,320.35,167.23,320,167.33Z" style="fill:#fff;opacity:0.5"></path><path d="M325.31,186.48s1.11-4.14,3.3-3.21,2.74,7.5-.25,7.93S324.27,188.77,325.31,186.48Z" style="fill:#ebb376"></path><path d="M351.45,207.11s5.28,12.86,1.37,15.07S346,208.74,346,208.74Z" style="fill:#ebb376"></path><path d="M343,195.61c5,1,9.11,9.49,11.08,14.27l-8.83,3.92A32.42,32.42,0,0,1,341.5,204,11.24,11.24,0,0,1,343,195.61Z" style="fill:#407BFF"></path><path d="M343,195.61c5,1,9.11,9.49,11.08,14.27l-8.83,3.92A32.42,32.42,0,0,1,341.5,204,11.24,11.24,0,0,1,343,195.61Z" style="fill:#fff;opacity:0.6000000000000001;isolation:isolate"></path><path d="M353.24,230.82s-19.2-4.82-33.92,2l-.48,3s-13.46,5.18-13.79,12.24,27.09,33,27.09,33l5.7-3.6s-16.45-18.23-15.78-23.78c.25-2,2.11-3.53,4.36-4.62-1.11,3.78-1.56,8.17.92,10.89,5.08,5.55,25.49,19.65,25.49,19.65l4.58-3.11S338.75,255.07,338,253,354.22,244.24,353.24,230.82Z" style="fill:#263238"></path><path d="M331.09,280.51l4.27-5a.41.41,0,0,1,.58-.08h0l4.15,3.14a1,1,0,0,1,.12,1.44c-1.52,1.72-2.33,2.46-4.22,4.64a55.16,55.16,0,0,1-5.18,5.69c-1.87,1.58-3.39-.31-2.74-1.14a16.12,16.12,0,0,0,2.62-7.74A1.67,1.67,0,0,1,331.09,280.51Z" style="fill:#263238"></path><path d="M329.57,283.37a.72.72,0,0,1-.69-.36.54.54,0,0,1-.09-.49c.26-.73,2.19-1.25,2.42-1.31a.16.16,0,0,1,.14.05.16.16,0,0,1,0,.15,7.67,7.67,0,0,1-.86,1.32A1.57,1.57,0,0,1,329.57,283.37Zm-.5-.75a.25.25,0,0,0,0,.24.53.53,0,0,0,.44.25c.38,0,.9-.6,1.43-1.53-.77.24-1.77.66-1.91,1Z" style="fill:#407BFF"></path><path d="M331.29,281.49a3,3,0,0,1-2.53-.43.53.53,0,0,1,0-.64.71.71,0,0,1,.52-.32c.82-.07,2,1.13,2.06,1.17a.13.13,0,0,1,0,.12.08.08,0,0,1,0,0S331.32,281.48,331.29,281.49Zm-2.28-.91c-.11.17-.07.27,0,.33a2.88,2.88,0,0,0,2,.39c-.41-.37-1.17-1-1.66-.91a.35.35,0,0,0-.28.14Z" style="fill:#407BFF"></path><path d="M350.75,278.41l3.39-5.62a.41.41,0,0,1,.56-.16h0l4.61,2.41a1,1,0,0,1,.35,1.41c-1.21,1.94-1.89,2.8-3.4,5.26a52.9,52.9,0,0,1-4.18,6.47c-1.58,1.87-3.39.25-2.88-.68a16.12,16.12,0,0,0,1.31-8.06A1.62,1.62,0,0,1,350.75,278.41Z" style="fill:#263238"></path><path d="M349.71,281.49a.72.72,0,0,1-.73-.25.5.5,0,0,1-.17-.47c.13-.76,1.95-1.6,2.16-1.69a.2.2,0,0,1,.15,0,.12.12,0,0,1,0,.14,7.12,7.12,0,0,1-.62,1.45A1.66,1.66,0,0,1,349.71,281.49Zm-.61-.66a.26.26,0,0,0,.08.23.51.51,0,0,0,.47.16c.37-.09.8-.73,1.16-1.73-.72.35-1.64.93-1.71,1.34Z" style="fill:#407BFF"></path><path d="M351.11,279.34a3,3,0,0,1-2.57,0,.52.52,0,0,1-.1-.64.73.73,0,0,1,.46-.4c.79-.21,2.18.79,2.23.81a.18.18,0,0,1,.05.12.1.1,0,0,1,0,0A.07.07,0,0,1,351.11,279.34Zm-2.4-.52c-.09.18,0,.28,0,.33a2.88,2.88,0,0,0,2,.06c-.46-.3-1.3-.76-1.78-.63a.36.36,0,0,0-.25.18Z" style="fill:#407BFF"></path><path d="M326.8,219.28l5,.31s3.22-.63,4.32-.08,6.37,2.37,6.56,4-3.19,5.59-5,5.63-6.53-3.92-6.82-4.95l-5.5-.23Z" style="fill:#e4897b"></path><path d="M318,216.59c-5.31,1-6.68,4.14-2.86,6.72s13.58,1.28,13.58,1.28l1.2-5.46S321.6,215.9,318,216.59Z" style="fill:#407BFF"></path><path d="M347.44,214.4C345,214,335.88,213,335.88,213s-1.43-1.63-2.29-1.75-5.24,2.29-5.27,3,4.39,5.61,5.64,5.42,4.75-2.82,4.75-2.82,11.71,7.46,14.92,4.35S351.31,215.07,347.44,214.4Z" style="fill:#ebb376"></path><path d="M285.6,189.8a16.45,16.45,0,0,0-3-3.15c-1.19-.71-8.35-.45-8.35-.45s1.24,6.64,1.61,6.93,7.12-.17,8.4-.59S285.6,189.8,285.6,189.8Z" style="fill:#ebb376"></path><line x1="268.47" y1="182.72" x2="270.25" y2="184.06" style="fill:none;stroke:#263238;stroke-linecap:round;stroke-linejoin:round;stroke-width:0.5px"></line><rect x="273.71" y="180.61" width="2.73" height="14.13" transform="translate(-40.12 295.12) rotate(-53.13)" style="fill:#407BFF"></rect><rect x="273.71" y="180.61" width="2.73" height="14.13" transform="translate(-40.12 295.12) rotate(-53.13)" style="fill:#fff;opacity:0.4;isolation:isolate"></rect><path d="M268.41,184.23a.27.27,0,0,0,0,.38l.36.27s.65.22.7.15-.65-.82-.37-1,.49,0,.51-.28.7,0,1.63.59,1.07.27.23-.31-1.39-1.16-1.16-1.15c.6,0,.3-.43.3-.43l-.38-.28a.27.27,0,0,0-.38.05Z" style="fill:#407BFF"></path><path d="M268.41,184.23a.27.27,0,0,0,0,.38l.36.27s.65.22.7.15-.65-.82-.37-1,.49,0,.51-.28.7,0,1.63.59,1.07.27.23-.31-1.39-1.16-1.16-1.15c.6,0,.3-.43.3-.43l-.38-.28a.27.27,0,0,0-.38.05Z" style="fill:#fff;opacity:0.6000000000000001;isolation:isolate"></path><path d="M267.46,177.65s-2.33,5.54.33,5.38S267.46,177.65,267.46,177.65Z" style="fill:#407BFF"></path><path d="M267.61,180.11s-1.17,2.77.17,2.68S267.61,180.11,267.61,180.11Z" style="fill:#fff;opacity:0.6000000000000001;isolation:isolate"></path></g></g><g id="character-1"><g id="group"><path d="M88.21,198c-7.56-.57-2.37-21.12-2.37-21.12s8,2.25,7.93,2.51-2,8.54-.68,11S92.3,198.31,88.21,198Z" style="fill:#ebb376"></path><path d="M148.55,170.33s9.2,14.31,11.6,16.91,23.74,13.41,23.74,13.41,3.43-2.38,9.44,4.17,3.73,8.94,3.73,8.94-8.51,1.09-9.27,1-5.94-7.46-6.22-9.36c0,0-22.71-8.23-25.79-10.13S140,177.42,140,177.42Z" style="fill:#ebb376"></path><path d="M138.38,154.64c6.47,1.1,15.86,19.88,15.86,19.88L144.66,184l-8.25-5.78Z" style="fill:#407BFF"></path><path d="M136.41,178.25l1.44,1,6.81,4.77,3.11-3.09,6.46-6.41s-9.38-18.79-15.85-19.89Z" style="fill:#fff;opacity:0.2;isolation:isolate"></path><path d="M137.85,179.26l6.81,4.77,3.11-3.09c-1.44-7.65-8.2-11.92-8.2-11.92Z" style="opacity:0.2;isolation:isolate"></path><polygon points="155.77 175.02 154.24 172.45 143.2 184.03 144.66 185.57 155.77 175.02" style="fill:#407BFF"></polygon><path d="M104,406.13H93.9a.74.74,0,0,0-.72.57l-1.64,7.43a1.23,1.23,0,0,0,.95,1.46,1.24,1.24,0,0,0,.27,0c3.28-.05,5.67-.26,9.78-.26,2.54,0,10.19.27,13.7.27s4-3.46,2.52-3.78c-6.43-1.4-11.27-3.34-13.33-5.19A2,2,0,0,0,104,406.13Z" style="fill:#263238"></path><path d="M147,405.87H136.88a.72.72,0,0,0-.71.57l-1.65,7.43a1.21,1.21,0,0,0,1.22,1.48c3.28-.05,5.67-.25,9.79-.25,2.53,0,10.19.26,13.69.26s4-3.46,2.52-3.77c-6.43-1.41-11.27-3.35-13.33-5.19A2,2,0,0,0,147,405.87Z" style="fill:#263238"></path><path d="M98.66,218.25h44.28c4.21,23,17.39,116.35,7.93,188.84h-15S137.27,297,124,261.42c-1.52,19-17,145.6-17,145.6H91.77s2.28-47.61,4.57-92.58C97.77,286.13,98.59,224.07,98.66,218.25Z" style="fill:#263238"></path><path d="M124,261.43A119.06,119.06,0,0,1,129,280.58c1.24-16.94-3.71-34.91-3.71-34.91Z" style="opacity:0.2;isolation:isolate"></path><polygon points="143.31 218.78 98.73 218.78 98.73 224.09 143.88 223.54 143.31 218.78"></polygon><rect x="113.06" y="216.4" width="1.59" height="9.42" transform="translate(227.72 442.21) rotate(180)" style="fill:#263238"></rect><rect x="135.61" y="216.4" width="1.59" height="9.42" transform="translate(272.82 442.21) rotate(180)" style="fill:#263238"></rect><rect x="122.99" y="217.86" width="8.24" height="5.94" transform="translate(254.23 441.65) rotate(180)" style="fill:#fff"></rect><path d="M98.6,219.64C97.42,194.28,90,158.38,90,158.38c20.69-5,48.48-3.74,48.48-3.74,5.41,19.37,5.31,50.62,4.84,65Z" style="fill:#407BFF"></path><path d="M98.6,219.64c-.38-8.18-1.41-17.45-2.63-26.26-.7-5-1.47-9.89-2.2-14.32-2-11.92-3.81-20.68-3.81-20.68,20.69-5,48.47-3.74,48.47-3.74,5.42,19.37,5.32,50.62,4.85,65Z" style="fill:#fff;opacity:0.2;isolation:isolate"></path><path d="M93.77,179.06c.73,4.43,1.5,9.3,2.2,14.32a20.3,20.3,0,0,0,.85-17.19Z" style="opacity:0.2;isolation:isolate"></path><path d="M106.37,155.58c3.83,3.48,13.22,2.2,13.22,2.2s5.85-1.61,4.62-3.44c-3.45-.57-5.12-2.18-5.81-4.24a10,10,0,0,1-.35-3.94,20.71,20.71,0,0,1,.29-2.2l-11.6-8.59C108.26,141,110.12,151.47,106.37,155.58Z" style="fill:#ebb376"></path><path d="M109.42,140.83c.46,7,6.18,8.88,9,9.27a10,10,0,0,1-.35-3.94Z" style="opacity:0.2;isolation:isolate"></path><path d="M130.52,119.26s1.74,11.17-4.18,15.49-6-16.49-6-16.49Z" style="fill:#263238"></path><path d="M109.15,143.68a10.13,10.13,0,0,0,11.65,3.89,11.28,11.28,0,0,0,6.44-5.27c.19-.34.36-.7.53-1.07,2.9-6.84,3.79-18.78-3.44-23.24a11,11,0,0,0-16.77,8.33C106.7,134.31,105.81,139,109.15,143.68Z" style="fill:#ebb376"></path><path d="M119.21,130.55c-.15.64.14,1.23.57,1.3s.85-.4,1-1-.15-1.23-.57-1.3S119.32,129.9,119.21,130.55Z" style="fill:#263238"></path><path d="M126.5,131.78c-.15.63.15,1.22.57,1.29s.85-.4,1-1-.15-1.23-.57-1.3S126.6,131.16,126.5,131.78Z" style="fill:#263238"></path><path d="M124.13,131.71a23.11,23.11,0,0,0,2.16,6,3.81,3.81,0,0,1-3.2.06Z" style="fill:#de5753"></path><path d="M129.73,129.11a.41.41,0,0,1-.4-.07,3.09,3.09,0,0,0-2.66-.77.38.38,0,0,1-.21-.74h0a3.86,3.86,0,0,1,3.38.93.38.38,0,0,1,0,.54h0A.65.65,0,0,1,129.73,129.11Z" style="fill:#263238"></path><path d="M118.26,127.4a.43.43,0,0,1-.2-.11.39.39,0,0,1,.12-.53h0a3.79,3.79,0,0,1,3.49-.3.38.38,0,0,1,.18.51h0a.4.4,0,0,1-.51.18h0a3.09,3.09,0,0,0-2.77.28A.44.44,0,0,1,118.26,127.4Z" style="fill:#263238"></path><path d="M115,117.42V121a2.64,2.64,0,0,0-1.71,3.15c.78,3.09-1.44,7.47-3.93,9,0,0,.08-1.29-1-1.11s-1.62,6.88.11,10.31c0,0-2.84-3.25-3.81-10.47-.89-6.68-.46-12.1,1.17-14.45Z" style="fill:#263238"></path><path d="M103,132.24a7.62,7.62,0,0,0,3.68,4.53c2.37,1.26,4.12-.71,4-3.25-.17-2.25-1.59-5.69-4.2-5.88S102.33,129.85,103,132.24Z" style="fill:#ebb376"></path><path d="M122.25,139.76a20.57,20.57,0,0,0-1.48,2.66l-.52-.14c-2.34-.69-3.2-1.78-3.44-2.78a3.21,3.21,0,0,1,0-1.49,3.08,3.08,0,0,1,.31-.79,11.44,11.44,0,0,0,4.31,2.29C121.94,139.68,122.25,139.76,122.25,139.76Z" style="fill:#263238"></path><path d="M121.46,139.51l-.46.78c-2.2-.65-3.66-1.41-4.16-2.28a3.08,3.08,0,0,1,.31-.79A11.44,11.44,0,0,0,121.46,139.51Z" style="fill:#fff"></path><path d="M120.25,142.28c-2.34-.69-3.2-1.78-3.44-2.78a7.87,7.87,0,0,1,2.45,1.27A3,3,0,0,1,120.25,142.28Z" style="fill:#de5753"></path><path d="M110,147.09c3.31,3.26,10.47,5.33,14.85,1.16s4.5-12,4.5-12a12,12,0,0,1-3.07,4.27c-1.6-2.77-5.29-2-5.29-2a5,5,0,0,0-2.62-2.33c-1.64-.44-6.35-.94-6.35-.94-1.36-1.2-.7-5.48-.7-5.48l-1,.61S106.67,143.84,110,147.09Zm6.3-9.82a6.05,6.05,0,0,1,4.36,1.78s4.56.31,4.17,4-4.17,4-5.4,2.8.39-2.61.39-2.61l-1.46-.8a2.9,2.9,0,0,1-5,.31A3.63,3.63,0,0,1,116.29,137.27Z" style="fill:#263238"></path><path d="M115,121s17.77,6.07,15.72-5.91c0,0-9.59-5.65-17.95-4.07s-7.7,10.24-7.7,10.24Z" style="fill:#263238"></path><path d="M90,158.38c-3.84,2-8.57,27-8.57,27l12.09,4,4.22-9.66s-.51-9.69-2.88-14.52A21.4,21.4,0,0,0,90,158.38Z" style="fill:#407BFF"></path><path d="M90,158.38c-3.84,2-8.57,27-8.57,27l12.09,4,4.22-9.66s-.51-9.69-2.88-14.52A21.4,21.4,0,0,0,90,158.38Z" style="fill:#fff;opacity:0.2;isolation:isolate"></path><polygon points="94.77 188.82 80.8 183.43 80.27 186.09 93.48 190.82 94.77 188.82" style="fill:#407BFF"></polygon><path d="M125.56,112.67c-13.53-1.93-21.1,9-21.1,9,0-.27,0-.54-.06-.8a13.56,13.56,0,0,1-.06-1.54c0-.44,0-.87.06-1.28s0-.59.09-.87a9,9,0,0,1,3.43-6.26,1.9,1.9,0,0,1,1.13-1.73,1.7,1.7,0,0,1,1.87.28,12.56,12.56,0,0,1,2.32-.44,17.36,17.36,0,0,1,7.88.93c.45.17.86.35,1.24.53a11.54,11.54,0,0,1,1.12.6,11.23,11.23,0,0,1,1.68,1.18h0A4.92,4.92,0,0,1,125.56,112.67Z" style="fill:#407BFF"></path><g style="opacity:0.5;isolation:isolate"><path d="M125.16,112.31c-3.34-.41-9.09-.54-13.56,2.29a26.32,26.32,0,0,0-7.2,6.31,13.56,13.56,0,0,1-.06-1.54,29.1,29.1,0,0,1,6.72-5.62c4-2.55,8.91-2.85,12.42-2.62A11.23,11.23,0,0,1,125.16,112.31Z" style="fill:#fff"></path></g><path d="M122.36,110.53a21.67,21.67,0,0,0-18,7.56q0-.45.09-.87A22.09,22.09,0,0,1,121.12,110C121.57,110.17,122,110.35,122.36,110.53Z" style="fill:#fff;opacity:0.5"></path><path d="M105.06,154.64l19.78,22.48c4.15-16.16.43-22.62.43-22.62l13.16.14s4.71,18,5.06,36.18,0,29.44,0,29.44l-45.14.57-3.44-34.64s3.91-14.45-1.14-28.64Z" style="fill:#263238"></path><path d="M108.08,151.17l11.09,5,.65-4,4.08,1.43a3.36,3.36,0,0,1,2.22,3.51l0,4.5L120,158.42l-5.39,5.11L103.91,155Z" style="fill:#407BFF"></path><path d="M108.08,151.17l11.09,5,.65-4,4.08,1.43a3.36,3.36,0,0,1,2.22,3.51l0,4.5L120,158.42l-5.39,5.11L103.91,155Z" style="fill:#fff;opacity:0.30000000000000004;isolation:isolate"></path><path d="M108.37,176.92l3.08-8s8.21,1.4,14,5.95c0,0,7.72-3.56,11.77-2.77l-.79.83h1.94V175s-6.59,11.38-6.88,11.48-11.35,4.86-11.35,4.86Z" style="fill:#fff"></path><path d="M112.14,169.8s9.63,2.88,13.19,5.63c0,0,7.32-3.32,11.93-3.35l-.79.83a71.75,71.75,0,0,0-9.13,2.17s5.95-2.18,11.07-1.78V175L122.56,185l-11.74-11,13.8,2.45-13.8-3.82.66-1.72s10.18,3,13.14,5C124.62,175.87,120.85,172.77,112.14,169.8Z" style="opacity:0.2;isolation:isolate"></path><path d="M139.85,174.26l-7.09,15s-7.67-1.09-13.27,4l-16.07-6.4L109,170.62l16.63,6.2h0C126.15,176.66,135.08,174.1,139.85,174.26Z" style="fill:#407BFF"></path><path d="M139.85,174.26l-7.09,15s-7.67-1.09-13.27,4l6.1-16.42h0C126.15,176.66,135.08,174.1,139.85,174.26Z" style="opacity:0.2;isolation:isolate"></path><path d="M88,188.38c1.79-.59,23.41-1.54,23.41-1.54s1.9-2.85,3.39-3.71,10.3.55,12.42.54-2.3,6.93-3.84,7.39-8.64.29-8.64.29S90,199.68,87,197.7,82.67,190.15,88,188.38Z" style="fill:#ebb376"></path></g></g><g id="Table"><polygon points="354.12 263.13 315.9 322.69 228.5 263.13 354.12 263.13" style="fill:#407BFF"></polygon><path d="M312.63,415.32H286.72a1.77,1.77,0,0,1,1.77-1.77h.92v-3.24h1.43a3.25,3.25,0,0,0,3.24-3.22v0h.58v-1.59H296a.08.08,0,0,0,0,0,8.47,8.47,0,0,0,.47-2c.55-3.72,1-11.19,1-13.26,0-4.94-1.07-7.91-1.07-11.47V353.36h-.91V339.59a6.87,6.87,0,0,1-.45-.65h0a7.27,7.27,0,0,1-1-3.67v-.42H292.9l-.23,0a1.13,1.13,0,0,1-.9-1.11v-14.2a2.31,2.31,0,0,0-.68-1.64,2.34,2.34,0,0,0-1.66-.68V277.46h20.48v39.73a2.32,2.32,0,0,0-2.32,2.32v14.2a1.15,1.15,0,0,1-.91,1.11l-.23,0h-1.17v.42a6.62,6.62,0,0,1-.15,1.41,6.93,6.93,0,0,1-.89,2.26,7.57,7.57,0,0,1-.44.66v13.77h-.92v25.31c0,3.56-1.05,6.53-1.05,11.47,0,2.07.47,9.54,1,13.26a7.57,7.57,0,0,0,.47,2l0,0h1.35v1.59h.6v0a3.24,3.24,0,0,0,3.24,3.22h1.42v3.24h.92A1.77,1.77,0,0,1,312.63,415.32Z" style="fill:#407BFF"></path><path d="M212.63,415.32H186.72a1.77,1.77,0,0,1,1.77-1.77h.92v-3.24h1.43a3.25,3.25,0,0,0,3.24-3.22v0h.58v-1.59H196l0,0a8.47,8.47,0,0,0,.47-2c.55-3.72,1-11.19,1-13.26,0-4.94-1.07-7.91-1.07-11.47V353.36h-.91V339.59a6.87,6.87,0,0,1-.45-.65h0a7.27,7.27,0,0,1-1-3.67v-.42H192.9l-.23,0a1.13,1.13,0,0,1-.9-1.11v-14.2a2.31,2.31,0,0,0-.68-1.64,2.34,2.34,0,0,0-1.66-.68V277.46h20.48v39.73a2.32,2.32,0,0,0-2.32,2.32v14.2a1.15,1.15,0,0,1-.91,1.11l-.23,0h-1.17v.42a6.62,6.62,0,0,1-.15,1.41,6.93,6.93,0,0,1-.89,2.26,7.57,7.57,0,0,1-.44.66v13.77h-.92v25.31c0,3.56-1,6.53-1,11.47,0,2.07.47,9.54,1,13.26a7.57,7.57,0,0,0,.47,2,.08.08,0,0,0,0,0h1.35v1.59h.6v0a3.24,3.24,0,0,0,3.24,3.22h1.42v3.24h.92A1.77,1.77,0,0,1,212.63,415.32Z" style="fill:#407BFF"></path><path d="M312.63,415.32H286.72a1.77,1.77,0,0,1,1.77-1.77h.92v-3.24h1.43a3.25,3.25,0,0,0,3.24-3.22v0h.58v-1.59H296a.08.08,0,0,0,0,0,8.47,8.47,0,0,0,.47-2c.55-3.72,1-11.19,1-13.26,0-4.94-1.07-7.91-1.07-11.47V353.36h-.91V339.59a6.87,6.87,0,0,1-.45-.65h0a7.27,7.27,0,0,1-1-3.67v-.42H292.9l-.23,0a1.13,1.13,0,0,1-.9-1.11v-14.2a2.31,2.31,0,0,0-.68-1.64,2.34,2.34,0,0,0-1.66-.68V277.46h20.48v39.73a2.32,2.32,0,0,0-2.32,2.32v14.2a1.15,1.15,0,0,1-.91,1.11l-.23,0h-1.17v.42a6.62,6.62,0,0,1-.15,1.41,6.93,6.93,0,0,1-.89,2.26,7.57,7.57,0,0,1-.44.66v13.77h-.92v25.31c0,3.56-1.05,6.53-1.05,11.47,0,2.07.47,9.54,1,13.26a7.57,7.57,0,0,0,.47,2l0,0h1.35v1.59h.6v0a3.24,3.24,0,0,0,3.24,3.22h1.42v3.24h.92A1.77,1.77,0,0,1,312.63,415.32Z" style="opacity:0.30000000000000004;isolation:isolate"></path><path d="M212.63,415.32H186.72a1.77,1.77,0,0,1,1.77-1.77h.92v-3.24h1.43a3.25,3.25,0,0,0,3.24-3.22v0h.58v-1.59H196l0,0a8.47,8.47,0,0,0,.47-2c.55-3.72,1-11.19,1-13.26,0-4.94-1.07-7.91-1.07-11.47V353.36h-.91V339.59a6.87,6.87,0,0,1-.45-.65h0a7.27,7.27,0,0,1-1-3.67v-.42H192.9l-.23,0a1.13,1.13,0,0,1-.9-1.11v-14.2a2.31,2.31,0,0,0-.68-1.64,2.34,2.34,0,0,0-1.66-.68V277.46h20.48v39.73a2.32,2.32,0,0,0-2.32,2.32v14.2a1.15,1.15,0,0,1-.91,1.11l-.23,0h-1.17v.42a6.62,6.62,0,0,1-.15,1.41,6.93,6.93,0,0,1-.89,2.26,7.57,7.57,0,0,1-.44.66v13.77h-.92v25.31c0,3.56-1,6.53-1,11.47,0,2.07.47,9.54,1,13.26a7.57,7.57,0,0,0,.47,2,.08.08,0,0,0,0,0h1.35v1.59h.6v0a3.24,3.24,0,0,0,3.24,3.22h1.42v3.24h.92A1.77,1.77,0,0,1,212.63,415.32Z" style="opacity:0.30000000000000004;isolation:isolate"></path><path d="M309.91,317.15v0a2.32,2.32,0,0,0-2.32,2.32v3.71H291.77v-3.71a2.31,2.31,0,0,0-.68-1.64,2.34,2.34,0,0,0-1.66-.68v0Z" style="opacity:0.2;isolation:isolate"></path><path d="M306.68,334.82l-.23,0h-1.17v.42a6.62,6.62,0,0,1-.15,1.41h-10.9a6.62,6.62,0,0,1-.15-1.41v-.42H292.9l-.23,0Z" style="opacity:0.2;isolation:isolate"></path><path d="M304.24,338.93a7.57,7.57,0,0,1-.44.66v3.54h-8.24v-3.54a6.87,6.87,0,0,1-.45-.65h9.13Z" style="opacity:0.2;isolation:isolate"></path><polygon points="303.8 353.29 303.8 353.36 302.88 353.36 302.88 358.82 296.46 358.82 296.46 353.36 295.56 353.36 295.56 353.29 303.8 353.29" style="opacity:0.2;isolation:isolate"></polygon><path d="M303.31,405.44h-7.26a8.47,8.47,0,0,0,.47-2h6.32A7.57,7.57,0,0,0,303.31,405.44Z" style="opacity:0.2;isolation:isolate"></path><path d="M309.94,410.31v.3H289.41v-.3h1.43a3.25,3.25,0,0,0,3.24-3.22h11.2a3.24,3.24,0,0,0,3.24,3.22Z" style="opacity:0.2;isolation:isolate"></path><path d="M312.63,415.32H286.72a1.77,1.77,0,0,1,1.77-1.77h.92v-.13h20.53v.13h.92A1.77,1.77,0,0,1,312.63,415.32Z" style="opacity:0.2;isolation:isolate"></path><rect x="289.43" y="277.46" width="20.48" height="29.9" style="opacity:0.2;isolation:isolate"></rect><path d="M209.91,317.15v0a2.32,2.32,0,0,0-2.32,2.32v3.71H191.77v-3.71a2.31,2.31,0,0,0-.68-1.64,2.34,2.34,0,0,0-1.66-.68v0Z" style="opacity:0.2;isolation:isolate"></path><path d="M206.68,334.82l-.23,0h-1.17v.42a6.62,6.62,0,0,1-.15,1.41h-10.9a6.62,6.62,0,0,1-.15-1.41v-.42H192.9l-.23,0Z" style="opacity:0.2;isolation:isolate"></path><path d="M204.24,338.93a7.57,7.57,0,0,1-.44.66v3.54h-8.24v-3.54a6.87,6.87,0,0,1-.45-.65h9.13Z" style="opacity:0.2;isolation:isolate"></path><polygon points="203.79 353.29 203.79 353.36 202.88 353.36 202.88 358.82 196.47 358.82 196.47 353.36 195.56 353.36 195.56 353.29 203.79 353.29" style="opacity:0.2;isolation:isolate"></polygon><path d="M203.31,405.44h-7.26a8.47,8.47,0,0,0,.47-2h6.32A7.57,7.57,0,0,0,203.31,405.44Z" style="opacity:0.2;isolation:isolate"></path><path d="M209.94,410.31v.3H189.41v-.3h1.43a3.25,3.25,0,0,0,3.24-3.22h11.2a3.24,3.24,0,0,0,3.24,3.22Z" style="opacity:0.2;isolation:isolate"></path><path d="M212.63,415.32H186.72a1.77,1.77,0,0,1,1.77-1.77h.92v-.13h20.53v.13h.92A1.77,1.77,0,0,1,212.63,415.32Z" style="opacity:0.2;isolation:isolate"></path><rect x="189.43" y="277.46" width="20.48" height="29.9" style="opacity:0.2;isolation:isolate"></rect><path d="M162.63,415.32H136.72a1.77,1.77,0,0,1,1.77-1.77h.92v-3.24h1.43a3.25,3.25,0,0,0,3.24-3.22v0h.58v-1.59H146l0,0a8.47,8.47,0,0,0,.47-2c.55-3.72,1-11.19,1-13.26,0-4.94-1.07-7.91-1.07-11.47V353.36h-.91V339.59a6.87,6.87,0,0,1-.45-.65h0a7.27,7.27,0,0,1-1-3.67v-.42H142.9l-.23,0a1.13,1.13,0,0,1-.9-1.11v-14.2a2.31,2.31,0,0,0-.68-1.64,2.34,2.34,0,0,0-1.66-.68V277.46h20.48v39.73a2.32,2.32,0,0,0-2.32,2.32v14.2a1.15,1.15,0,0,1-.91,1.11l-.23,0h-1.17v.42a6.62,6.62,0,0,1-.15,1.41,6.93,6.93,0,0,1-.89,2.26,7.57,7.57,0,0,1-.44.66v13.77h-.92v25.31c0,3.56-1,6.53-1,11.47,0,2.07.47,9.54,1,13.26a7.57,7.57,0,0,0,.47,2,.08.08,0,0,0,0,0h1.35v1.59h.6v0a3.24,3.24,0,0,0,3.24,3.22h1.42v3.24h.92A1.77,1.77,0,0,1,162.63,415.32Z" style="fill:#407BFF"></path><path d="M159.91,317.15v0a2.32,2.32,0,0,0-2.32,2.32v3.71H141.77v-3.71a2.31,2.31,0,0,0-.68-1.64,2.34,2.34,0,0,0-1.66-.68v0Z" style="opacity:0.2;isolation:isolate"></path><path d="M156.68,334.82l-.23,0h-1.17v.42a6.62,6.62,0,0,1-.15,1.41h-10.9a6.62,6.62,0,0,1-.15-1.41v-.42H142.9l-.23,0Z" style="opacity:0.2;isolation:isolate"></path><path d="M154.24,338.93a7.57,7.57,0,0,1-.44.66v3.54h-8.24v-3.54a6.87,6.87,0,0,1-.45-.65h9.13Z" style="opacity:0.2;isolation:isolate"></path><polygon points="153.79 353.29 153.79 353.36 152.88 353.36 152.88 358.82 146.47 358.82 146.47 353.36 145.56 353.36 145.56 353.29 153.79 353.29" style="opacity:0.2;isolation:isolate"></polygon><path d="M153.31,405.44h-7.26a8.47,8.47,0,0,0,.47-2h6.32A7.57,7.57,0,0,0,153.31,405.44Z" style="opacity:0.2;isolation:isolate"></path><path d="M159.94,410.31v.3H139.41v-.3h1.43a3.25,3.25,0,0,0,3.24-3.22h11.2a3.24,3.24,0,0,0,3.24,3.22Z" style="opacity:0.2;isolation:isolate"></path><path d="M162.63,415.32H136.72a1.77,1.77,0,0,1,1.77-1.77h.92v-.13h20.53v.13h.92A1.77,1.77,0,0,1,162.63,415.32Z" style="opacity:0.2;isolation:isolate"></path><path d="M159.91,297.39h-.54a19.93,19.93,0,0,1-19.94-19.93h20.48Z" style="opacity:0.2;isolation:isolate"></path><path d="M262.63,415.32H236.72a1.77,1.77,0,0,1,1.77-1.77h.92v-3.24h1.43a3.25,3.25,0,0,0,3.24-3.22v0h.58v-1.59H246l0,0a8.47,8.47,0,0,0,.47-2c.55-3.72,1-11.19,1-13.26,0-4.94-1.07-7.91-1.07-11.47V353.36h-.91V339.59a6.87,6.87,0,0,1-.45-.65h0a7.27,7.27,0,0,1-1-3.67v-.42H242.9l-.23,0a1.13,1.13,0,0,1-.9-1.11v-14.2a2.31,2.31,0,0,0-.68-1.64,2.34,2.34,0,0,0-1.66-.68V277.46h20.48v39.73a2.32,2.32,0,0,0-2.32,2.32v14.2a1.15,1.15,0,0,1-.91,1.11l-.23,0h-1.17v.42a6.62,6.62,0,0,1-.15,1.41,6.93,6.93,0,0,1-.89,2.26,7.57,7.57,0,0,1-.44.66v13.77h-.92v25.31c0,3.56-1,6.53-1,11.47,0,2.07.47,9.54,1,13.26a7.57,7.57,0,0,0,.47,2,.08.08,0,0,0,0,0h1.35v1.59h.6v0a3.24,3.24,0,0,0,3.24,3.22h1.42v3.24h.92A1.77,1.77,0,0,1,262.63,415.32Z" style="fill:#407BFF"></path><path d="M262.63,415.32H236.72a1.77,1.77,0,0,1,1.77-1.77h.92v-3.24h1.43a3.25,3.25,0,0,0,3.24-3.22v0h.58v-1.59H246l0,0a8.47,8.47,0,0,0,.47-2c.55-3.72,1-11.19,1-13.26,0-4.94-1.07-7.91-1.07-11.47V353.36h-.91V339.59a6.87,6.87,0,0,1-.45-.65h0a7.27,7.27,0,0,1-1-3.67v-.42H242.9l-.23,0a1.13,1.13,0,0,1-.9-1.11v-14.2a2.31,2.31,0,0,0-.68-1.64,2.34,2.34,0,0,0-1.66-.68V277.46h20.48v39.73a2.32,2.32,0,0,0-2.32,2.32v14.2a1.15,1.15,0,0,1-.91,1.11l-.23,0h-1.17v.42a6.62,6.62,0,0,1-.15,1.41,6.93,6.93,0,0,1-.89,2.26,7.57,7.57,0,0,1-.44.66v13.77h-.92v25.31c0,3.56-1,6.53-1,11.47,0,2.07.47,9.54,1,13.26a7.57,7.57,0,0,0,.47,2,.08.08,0,0,0,0,0h1.35v1.59h.6v0a3.24,3.24,0,0,0,3.24,3.22h1.42v3.24h.92A1.77,1.77,0,0,1,262.63,415.32Z" style="fill:#fff;opacity:0.2;isolation:isolate"></path><path d="M259.91,317.15v0a2.32,2.32,0,0,0-2.32,2.32v3.71H241.77v-3.71a2.31,2.31,0,0,0-.68-1.64,2.34,2.34,0,0,0-1.66-.68v0Z" style="opacity:0.2;isolation:isolate"></path><path d="M256.68,334.82l-.23,0h-1.17v.42a6.62,6.62,0,0,1-.15,1.41h-10.9a6.62,6.62,0,0,1-.15-1.41v-.42H242.9l-.23,0Z" style="opacity:0.2;isolation:isolate"></path><path d="M254.24,338.93a7.57,7.57,0,0,1-.44.66v3.54h-8.24v-3.54a6.87,6.87,0,0,1-.45-.65h9.13Z" style="opacity:0.2;isolation:isolate"></path><polygon points="253.79 353.29 253.79 353.36 252.88 353.36 252.88 358.82 246.47 358.82 246.47 353.36 245.56 353.36 245.56 353.29 253.79 353.29" style="opacity:0.2;isolation:isolate"></polygon><path d="M253.31,405.44h-7.26a8.47,8.47,0,0,0,.47-2h6.32A7.57,7.57,0,0,0,253.31,405.44Z" style="opacity:0.2;isolation:isolate"></path><path d="M259.94,410.31v.3H239.41v-.3h1.43a3.25,3.25,0,0,0,3.24-3.22h11.2a3.24,3.24,0,0,0,3.24,3.22Z" style="opacity:0.2;isolation:isolate"></path><path d="M262.63,415.32H236.72a1.77,1.77,0,0,1,1.77-1.77h.92v-.13h20.53v.13h.92A1.77,1.77,0,0,1,262.63,415.32Z" style="opacity:0.2;isolation:isolate"></path><rect x="239.43" y="277.46" width="20.48" height="9.55" style="opacity:0.2;isolation:isolate"></rect><path d="M362.63,415.32H336.72a1.77,1.77,0,0,1,1.77-1.77h.92v-3.24h1.43a3.25,3.25,0,0,0,3.24-3.22v0h.58v-1.59H346a.08.08,0,0,0,0,0,8.47,8.47,0,0,0,.47-2c.55-3.72,1-11.19,1-13.26,0-4.94-1.07-7.91-1.07-11.47V353.36h-.91V339.59a6.87,6.87,0,0,1-.45-.65h0a7.27,7.27,0,0,1-1-3.67v-.42H342.9l-.23,0a1.13,1.13,0,0,1-.9-1.11v-14.2a2.31,2.31,0,0,0-.68-1.64,2.34,2.34,0,0,0-1.66-.68V277.46h20.48v39.73a2.32,2.32,0,0,0-2.32,2.32v14.2a1.15,1.15,0,0,1-.91,1.11l-.23,0h-1.17v.42a6.62,6.62,0,0,1-.15,1.41,6.93,6.93,0,0,1-.89,2.26,7.57,7.57,0,0,1-.44.66v13.77h-.92v25.31c0,3.56-1.05,6.53-1.05,11.47,0,2.07.47,9.54,1,13.26a7.57,7.57,0,0,0,.47,2l0,0h1.35v1.59h.6v0a3.24,3.24,0,0,0,3.24,3.22h1.42v3.24h.92A1.77,1.77,0,0,1,362.63,415.32Z" style="fill:#407BFF"></path><path d="M359.91,317.15v0a2.32,2.32,0,0,0-2.32,2.32v3.71H341.77v-3.71a2.31,2.31,0,0,0-.68-1.64,2.34,2.34,0,0,0-1.66-.68v0Z" style="opacity:0.2;isolation:isolate"></path><path d="M356.68,334.82l-.23,0h-1.17v.42a6.62,6.62,0,0,1-.15,1.41h-10.9a6.62,6.62,0,0,1-.15-1.41v-.42H342.9l-.23,0Z" style="opacity:0.2;isolation:isolate"></path><path d="M354.24,338.93a7.57,7.57,0,0,1-.44.66v3.54h-8.24v-3.54a6.87,6.87,0,0,1-.45-.65h9.13Z" style="opacity:0.2;isolation:isolate"></path><polygon points="353.8 353.29 353.8 353.36 352.88 353.36 352.88 358.82 346.46 358.82 346.46 353.36 345.56 353.36 345.56 353.29 353.8 353.29" style="opacity:0.2;isolation:isolate"></polygon><path d="M353.31,405.44h-7.26a8.47,8.47,0,0,0,.47-2h6.32A7.57,7.57,0,0,0,353.31,405.44Z" style="opacity:0.2;isolation:isolate"></path><path d="M359.94,410.31v.3H339.41v-.3h1.43a3.25,3.25,0,0,0,3.24-3.22h11.2a3.24,3.24,0,0,0,3.24,3.22Z" style="opacity:0.2;isolation:isolate"></path><path d="M362.63,415.32H336.72a1.77,1.77,0,0,1,1.77-1.77h.92v-.13h20.53v.13h.92A1.77,1.77,0,0,1,362.63,415.32Z" style="opacity:0.2;isolation:isolate"></path><path d="M340,297.39h-.55V277.46h20.48A19.93,19.93,0,0,1,340,297.39Z" style="opacity:0.2;isolation:isolate"></path><path d="M372.29,263.13H127.06a1.83,1.83,0,1,0,0,3.65H129v5.47a2.33,2.33,0,0,0,2.34,2.33H132v3.56a2.33,2.33,0,0,0,2.33,2.33H365.07a2.33,2.33,0,0,0,2.33-2.33v-3.56H368a2.33,2.33,0,0,0,2.34-2.33v-5.47h1.93a1.83,1.83,0,1,0,0-3.65Z" style="fill:#407BFF"></path><path d="M372.29,263.13H127.06a1.83,1.83,0,1,0,0,3.65H129v5.47a2.33,2.33,0,0,0,2.34,2.33H132v3.56a2.33,2.33,0,0,0,2.33,2.33H365.07a2.33,2.33,0,0,0,2.33-2.33v-3.56H368a2.33,2.33,0,0,0,2.34-2.33v-5.47h1.93a1.83,1.83,0,1,0,0-3.65Z" style="fill:#fff;opacity:0.2;isolation:isolate"></path><rect x="131.95" y="274.58" width="235.45" height="2.88" style="opacity:0.2;isolation:isolate"></rect><rect x="128.99" y="266.78" width="241.37" height="4.11" style="opacity:0.2;isolation:isolate"></rect><polygon points="148.5 263.13 186.72 322.69 274.12 263.13 148.5 263.13" style="fill:#407BFF"></polygon><polygon points="148.5 263.13 186.72 322.69 274.12 263.13 148.5 263.13" style="fill:#fff;opacity:0.1;isolation:isolate"></polygon><line x1="271.44" y1="187.92" x2="271.44" y2="190.15" style="fill:none;stroke:#263238;stroke-linecap:round;stroke-linejoin:round;stroke-width:0.5px"></line><path d="M271.44,184.07s-2.1,4.24,0,4.24S271.44,184.07,271.44,184.07Z" style="fill:#407BFF"></path><path d="M271.44,186s-1.05,2.12,0,2.12S271.44,186,271.44,186Z" style="fill:#fff;opacity:0.6000000000000001;isolation:isolate"></path><rect x="270.76" y="189" width="1.37" height="14.13" style="fill:#407BFF"></rect><rect x="270.76" y="189" width="1.37" height="14.13" style="fill:#fff;opacity:0.6000000000000001;isolation:isolate"></rect><path d="M270.82,188.67c-.08,0-.14.12-.14.27v.45a3.71,3.71,0,0,0,.15.64s.14-1,.28-.88.16.38.27.24.2.56.25,1.66.22,1,.2,0,0-1.81.1-1.62c.17.51.27,0,.27,0v-.47c0-.15-.06-.27-.14-.27Z" style="fill:#407BFF"></path><path d="M270.82,188.67c-.08,0-.14.12-.14.27v.45a3.71,3.71,0,0,0,.15.64s.14-1,.28-.88.16.38.27.24.2.56.25,1.66.22,1,.2,0,0-1.81.1-1.62c.17.51.27,0,.27,0v-.47c0-.15-.06-.27-.14-.27Z" style="fill:#fff;opacity:0.7000000000000001;isolation:isolate"></path><line x1="265.88" y1="187.92" x2="265.88" y2="190.15" style="fill:none;stroke:#263238;stroke-linecap:round;stroke-linejoin:round;stroke-width:0.5px"></line><path d="M265.88,184.07s-2.1,4.24,0,4.24S265.88,184.07,265.88,184.07Z" style="fill:#407BFF"></path><path d="M265.88,186s-1.05,2.12,0,2.12S265.88,186,265.88,186Z" style="fill:#fff;opacity:0.6000000000000001;isolation:isolate"></path><rect x="265.2" y="189" width="1.37" height="14.13" style="fill:#407BFF"></rect><rect x="265.2" y="189" width="1.37" height="14.13" style="fill:#fff;opacity:0.6000000000000001;isolation:isolate"></rect><path d="M265.26,188.67c-.07,0-.13.12-.13.27v.45a3.67,3.67,0,0,0,.14.64s.14-1,.29-.88.15.38.26.24.2.56.25,1.66.22,1,.2,0,0-1.81.11-1.62c.16.51.26,0,.26,0v-.47c0-.15-.06-.27-.14-.27Z" style="fill:#407BFF"></path><path d="M265.26,188.67c-.07,0-.13.12-.13.27v.45a3.67,3.67,0,0,0,.14.64s.14-1,.29-.88.15.38.26.24.2.56.25,1.66.22,1,.2,0,0-1.81.11-1.62c.16.51.26,0,.26,0v-.47c0-.15-.06-.27-.14-.27Z" style="fill:#fff;opacity:0.7000000000000001;isolation:isolate"></path><line x1="260.32" y1="187.92" x2="260.32" y2="190.15" style="fill:none;stroke:#263238;stroke-linecap:round;stroke-linejoin:round;stroke-width:0.5px"></line><path d="M260.32,184.07s-2.1,4.24,0,4.24S260.32,184.07,260.32,184.07Z" style="fill:#407BFF"></path><path d="M260.32,186s-1.05,2.12,0,2.12S260.32,186,260.32,186Z" style="fill:#fff;opacity:0.6000000000000001;isolation:isolate"></path><rect x="259.64" y="189" width="1.37" height="14.13" style="fill:#407BFF"></rect><rect x="259.64" y="189" width="1.37" height="14.13" style="fill:#fff;opacity:0.6000000000000001;isolation:isolate"></rect><path d="M259.7,188.67c-.07,0-.13.12-.13.27v.45a4.89,4.89,0,0,0,.14.64s.14-1,.29-.88.15.38.26.24.21.56.26,1.66.21,1,.19,0,.05-1.81.11-1.62c.16.51.26,0,.26,0v-.47c0-.15-.06-.27-.13-.27Z" style="fill:#407BFF"></path><path d="M259.7,188.67c-.07,0-.13.12-.13.27v.45a4.89,4.89,0,0,0,.14.64s.14-1,.29-.88.15.38.26.24.21.56.26,1.66.21,1,.19,0,.05-1.81.11-1.62c.16.51.26,0,.26,0v-.47c0-.15-.06-.27-.13-.27Z" style="fill:#fff;opacity:0.7000000000000001;isolation:isolate"></path><line x1="254.77" y1="187.92" x2="254.77" y2="190.15" style="fill:none;stroke:#263238;stroke-linecap:round;stroke-linejoin:round;stroke-width:0.5px"></line><rect x="254.08" y="189" width="1.37" height="14.13" style="fill:#407BFF"></rect><rect x="254.08" y="189" width="1.37" height="14.13" style="fill:#fff;opacity:0.6000000000000001;isolation:isolate"></rect><path d="M254.15,188.67c-.08,0-.14.12-.14.27v.45a3.71,3.71,0,0,0,.15.64s.13-1,.28-.88.16.38.26.24.21.56.26,1.66.21,1,.19,0,0-1.81.11-1.62c.17.51.26,0,.26,0v-.47c0-.15-.06-.27-.13-.27Z" style="fill:#407BFF"></path><path d="M254.15,188.67c-.08,0-.14.12-.14.27v.45a3.71,3.71,0,0,0,.15.64s.13-1,.28-.88.16.38.26.24.21.56.26,1.66.21,1,.19,0,0-1.81.11-1.62c.17.51.26,0,.26,0v-.47c0-.15-.06-.27-.13-.27Z" style="fill:#fff;opacity:0.7000000000000001;isolation:isolate"></path><line x1="243.65" y1="187.92" x2="243.65" y2="190.15" style="fill:none;stroke:#263238;stroke-linecap:round;stroke-linejoin:round;stroke-width:0.5px"></line><rect x="242.97" y="189" width="1.37" height="14.13" style="fill:#407BFF"></rect><rect x="242.97" y="189" width="1.37" height="14.13" style="fill:#fff;opacity:0.6000000000000001;isolation:isolate"></rect><path d="M243,188.67c-.08,0-.14.12-.14.27v.45a3.71,3.71,0,0,0,.15.64s.14-1,.28-.88.16.38.27.24.2.56.25,1.66.22,1,.2,0,0-1.81.1-1.62c.17.51.27,0,.27,0v-.47c0-.15-.06-.27-.14-.27Z" style="fill:#407BFF"></path><path d="M243,188.67c-.08,0-.14.12-.14.27v.45a3.71,3.71,0,0,0,.15.64s.14-1,.28-.88.16.38.27.24.2.56.25,1.66.22,1,.2,0,0-1.81.1-1.62c.17.51.27,0,.27,0v-.47c0-.15-.06-.27-.14-.27Z" style="fill:#fff;opacity:0.7000000000000001;isolation:isolate"></path><line x1="238.09" y1="187.92" x2="238.09" y2="190.15" style="fill:none;stroke:#263238;stroke-linecap:round;stroke-linejoin:round;stroke-width:0.5px"></line><rect x="237.41" y="189" width="1.37" height="14.13" style="fill:#407BFF"></rect><rect x="237.41" y="189" width="1.37" height="14.13" style="fill:#fff;opacity:0.6000000000000001;isolation:isolate"></rect><path d="M237.47,188.67c-.07,0-.13.12-.13.27v.45a3.67,3.67,0,0,0,.14.64s.14-1,.29-.88.15.38.26.24.2.56.25,1.66.22,1,.2,0,0-1.81.11-1.62c.16.51.26,0,.26,0v-.47c0-.15-.06-.27-.14-.27Z" style="fill:#407BFF"></path><path d="M237.47,188.67c-.07,0-.13.12-.13.27v.45a3.67,3.67,0,0,0,.14.64s.14-1,.29-.88.15.38.26.24.2.56.25,1.66.22,1,.2,0,0-1.81.11-1.62c.16.51.26,0,.26,0v-.47c0-.15-.06-.27-.14-.27Z" style="fill:#fff;opacity:0.7000000000000001;isolation:isolate"></path><line x1="232.53" y1="187.92" x2="232.53" y2="190.15" style="fill:none;stroke:#263238;stroke-linecap:round;stroke-linejoin:round;stroke-width:0.5px"></line><rect x="231.85" y="189" width="1.37" height="14.13" style="fill:#407BFF"></rect><rect x="231.85" y="189" width="1.37" height="14.13" style="fill:#fff;opacity:0.6000000000000001;isolation:isolate"></rect><path d="M231.91,188.67c-.07,0-.13.12-.13.27v.45a4.89,4.89,0,0,0,.14.64s.14-1,.29-.88.15.38.26.24.21.56.25,1.66.22,1,.2,0,.05-1.81.11-1.62c.16.51.26,0,.26,0v-.47c0-.15-.06-.27-.13-.27Z" style="fill:#407BFF"></path><path d="M231.91,188.67c-.07,0-.13.12-.13.27v.45a4.89,4.89,0,0,0,.14.64s.14-1,.29-.88.15.38.26.24.21.56.25,1.66.22,1,.2,0,.05-1.81.11-1.62c.16.51.26,0,.26,0v-.47c0-.15-.06-.27-.13-.27Z" style="fill:#fff;opacity:0.7000000000000001;isolation:isolate"></path><line x1="226.98" y1="187.92" x2="226.98" y2="190.15" style="fill:none;stroke:#263238;stroke-linecap:round;stroke-linejoin:round;stroke-width:0.5px"></line><rect x="226.29" y="189" width="1.37" height="14.13" style="fill:#407BFF"></rect><rect x="226.29" y="189" width="1.37" height="14.13" style="fill:#fff;opacity:0.6000000000000001;isolation:isolate"></rect><path d="M226.35,188.67c-.07,0-.13.12-.13.27v.45a3.71,3.71,0,0,0,.15.64s.13-1,.28-.88.16.38.26.24.21.56.26,1.66.21,1,.19,0,0-1.81.11-1.62c.17.51.26,0,.26,0v-.47c0-.15-.06-.27-.13-.27Z" style="fill:#407BFF"></path><path d="M226.35,188.67c-.07,0-.13.12-.13.27v.45a3.71,3.71,0,0,0,.15.64s.13-1,.28-.88.16.38.26.24.21.56.26,1.66.21,1,.19,0,0-1.81.11-1.62c.17.51.26,0,.26,0v-.47c0-.15-.06-.27-.13-.27Z" style="fill:#fff;opacity:0.7000000000000001;isolation:isolate"></path><path d="M273.33,198.11a1.34,1.34,0,0,1-.09.53,1.82,1.82,0,0,1-.5.83V200h-.4v3.92h-.48A22.84,22.84,0,0,1,250.1,224v3.94h-1.78V224a22.84,22.84,0,0,1-21.76-20.07h-.48V200h-.4v-.52a2,2,0,0,1-.51-.83,1.55,1.55,0,0,1-.08-.53,2.28,2.28,0,0,1,0-.26h3.72a2.34,2.34,0,0,1,0,.26,1.35,1.35,0,0,1-.1.53,1.76,1.76,0,0,1-.51.83V200h-.39v3.92h-.11a21.63,21.63,0,0,0,20.56,18.88v-1.68A17.25,17.25,0,0,1,232,203.92h-.31V200h-.4v-.52a1.74,1.74,0,0,1-.5-.83,1.35,1.35,0,0,1-.1-.53,2.3,2.3,0,0,1,0-.26h3.73a2.28,2.28,0,0,1,0,.26,1.34,1.34,0,0,1-.09.53,1.74,1.74,0,0,1-.5.83V200h-.4v3.92h-.3a16.08,16.08,0,0,0,15.19,16v-2A11.72,11.72,0,0,1,237.5,206.3v-2.39h-.31V200h-.39v-.52a2,2,0,0,1-.51-.83,1.84,1.84,0,0,1-.08-.53,1.15,1.15,0,0,1,0-.26H240a1.15,1.15,0,0,1,0,.26,1.84,1.84,0,0,1-.08.53,2,2,0,0,1-.51.83V200H239v3.92h-.29v2.39a10.53,10.53,0,0,0,9.63,10.48v-2.07a6.13,6.13,0,0,1-5.26-6.06v-4.74h-.31V200h-.39v-.52a1.84,1.84,0,0,1-.51-.83,1.55,1.55,0,0,1-.08-.53,2.28,2.28,0,0,1,0-.26h3.72a2.28,2.28,0,0,1,0,.26,1.55,1.55,0,0,1-.08.53,1.93,1.93,0,0,1-.51.83V200h-.39v3.92h-.31v4.74a5,5,0,0,0,4.08,4.88V196.44h-.41v-.52s-.09-.1-.13-.16a1.56,1.56,0,0,1-.32-.52,1.74,1.74,0,0,1-.14-.69c0-.08,0-.16,0-.26h3.72a1.38,1.38,0,0,1,0,.26,1.74,1.74,0,0,1-.14.69,1.44,1.44,0,0,1-.33.52,1,1,0,0,1-.13.16v.52h-.4v17.09a5,5,0,0,0,4.08-4.88v-4.74h-.31V200h-.39v-.52a1.76,1.76,0,0,1-.51-.83,1.34,1.34,0,0,1-.09-.53,2.3,2.3,0,0,1,0-.26h3.72a2.28,2.28,0,0,1,0,.26,1.34,1.34,0,0,1-.09.53,1.74,1.74,0,0,1-.5.83V200h-.4v3.92h-.3v4.74a6.14,6.14,0,0,1-5.26,6.06v2.07a10.53,10.53,0,0,0,9.63-10.48v-2.39h-.3V200H259v-.52a1.91,1.91,0,0,1-.5-.83,1.55,1.55,0,0,1-.09-.53,1.15,1.15,0,0,1,0-.26h3.72a2.28,2.28,0,0,1,0,.26,1.55,1.55,0,0,1-.08.53,2,2,0,0,1-.51.83V200h-.39v3.92h-.31v2.39A11.72,11.72,0,0,1,250.1,218v2a16.08,16.08,0,0,0,15.19-16H265V200h-.4v-.52a1.84,1.84,0,0,1-.51-.83,1.55,1.55,0,0,1-.08-.53,2.28,2.28,0,0,1,0-.26h3.72a2.28,2.28,0,0,1,0,.26,1.55,1.55,0,0,1-.08.53,1.84,1.84,0,0,1-.51.83V200h-.39v3.92h-.31a17.25,17.25,0,0,1-16.37,17.2v1.68a21.67,21.67,0,0,0,20.57-18.88h-.12V200h-.41v-.52a1.8,1.8,0,0,1-.49-.83,1.35,1.35,0,0,1-.1-.53,1.15,1.15,0,0,1,0-.26h3.73A2.28,2.28,0,0,1,273.33,198.11Z" style="fill:#263238"></path><path d="M228.83,197.85a2.34,2.34,0,0,1,0,.26,1.35,1.35,0,0,1-.1.53h-3.6a1.55,1.55,0,0,1-.08-.53,2.28,2.28,0,0,1,0-.26Z" style="fill:#fff;opacity:0.30000000000000004;isolation:isolate"></path><path d="M234.4,197.85a2.28,2.28,0,0,1,0,.26,1.34,1.34,0,0,1-.09.53h-3.59a1.35,1.35,0,0,1-.1-.53,2.3,2.3,0,0,1,0-.26Z" style="fill:#fff;opacity:0.30000000000000004;isolation:isolate"></path><path d="M240,197.85a1.15,1.15,0,0,1,0,.26,1.84,1.84,0,0,1-.08.53h-3.61a1.84,1.84,0,0,1-.08-.53,1.15,1.15,0,0,1,0-.26Z" style="fill:#fff;opacity:0.30000000000000004;isolation:isolate"></path><path d="M245.51,197.85a2.28,2.28,0,0,1,0,.26,1.55,1.55,0,0,1-.08.53h-3.6a1.55,1.55,0,0,1-.08-.53,2.28,2.28,0,0,1,0-.26Z" style="fill:#fff;opacity:0.30000000000000004;isolation:isolate"></path><path d="M256.63,197.85a2.28,2.28,0,0,1,0,.26,1.34,1.34,0,0,1-.09.53H253a1.34,1.34,0,0,1-.09-.53,2.3,2.3,0,0,1,0-.26Z" style="fill:#fff;opacity:0.30000000000000004;isolation:isolate"></path><path d="M262.19,197.85a2.28,2.28,0,0,1,0,.26,1.55,1.55,0,0,1-.08.53h-3.6a1.55,1.55,0,0,1-.09-.53,1.15,1.15,0,0,1,0-.26Z" style="fill:#fff;opacity:0.30000000000000004;isolation:isolate"></path><path d="M267.74,197.85a2.28,2.28,0,0,1,0,.26,1.55,1.55,0,0,1-.08.53h-3.6a1.55,1.55,0,0,1-.08-.53,2.28,2.28,0,0,1,0-.26Z" style="fill:#fff;opacity:0.30000000000000004;isolation:isolate"></path><path d="M273.33,198.11a1.34,1.34,0,0,1-.09.53h-3.59a1.35,1.35,0,0,1-.1-.53,1.15,1.15,0,0,1,0-.26h3.73A2.28,2.28,0,0,1,273.33,198.11Z" style="fill:#fff;opacity:0.30000000000000004;isolation:isolate"></path><rect x="225.68" y="199.52" width="2.58" height="0.46" style="fill:#fff;opacity:0.30000000000000004;isolation:isolate"></rect><rect x="231.24" y="199.52" width="2.59" height="0.46" style="fill:#fff;opacity:0.30000000000000004;isolation:isolate"></rect><rect x="236.8" y="199.52" width="2.58" height="0.46" style="fill:#fff;opacity:0.30000000000000004;isolation:isolate"></rect><rect x="242.36" y="199.52" width="2.58" height="0.46" style="fill:#fff;opacity:0.30000000000000004;isolation:isolate"></rect><rect x="253.48" y="199.52" width="2.58" height="0.46" style="fill:#fff;opacity:0.30000000000000004;isolation:isolate"></rect><rect x="259.03" y="199.52" width="2.58" height="0.46" style="fill:#fff;opacity:0.30000000000000004;isolation:isolate"></rect><rect x="264.59" y="199.52" width="2.58" height="0.46" style="fill:#fff;opacity:0.30000000000000004;isolation:isolate"></rect><rect x="270.14" y="199.52" width="2.59" height="0.46" style="fill:#fff;opacity:0.30000000000000004;isolation:isolate"></rect><polygon points="226.09 201.47 227.87 201.47 227.87 203.91 227.75 203.91 227.75 203.92 226.56 203.92 226.56 203.91 226.09 203.91 226.09 201.47" style="fill:#fff;opacity:0.30000000000000004;isolation:isolate"></polygon><polygon points="231.64 201.47 233.43 201.47 233.43 203.91 233.13 203.91 233.13 203.92 231.95 203.92 231.95 203.91 231.64 203.91 231.64 201.47" style="fill:#fff;opacity:0.30000000000000004;isolation:isolate"></polygon><polygon points="237.19 201.47 238.98 201.47 238.98 203.91 238.69 203.91 238.69 203.92 237.5 203.92 237.5 203.91 237.19 203.91 237.19 201.47" style="fill:#fff;opacity:0.30000000000000004;isolation:isolate"></polygon><polygon points="242.75 201.47 244.55 201.47 244.55 203.91 244.24 203.91 244.24 203.92 243.06 203.92 243.06 203.91 242.75 203.91 242.75 201.47" style="fill:#fff;opacity:0.30000000000000004;isolation:isolate"></polygon><polygon points="253.87 201.47 255.66 201.47 255.66 203.91 255.36 203.91 255.36 203.92 254.18 203.92 254.18 203.91 253.87 203.91 253.87 201.47" style="fill:#fff;opacity:0.30000000000000004;isolation:isolate"></polygon><polygon points="259.43 201.47 261.23 201.47 261.23 203.91 260.92 203.91 260.92 203.92 259.73 203.92 259.73 203.91 259.43 203.91 259.43 201.47" style="fill:#fff;opacity:0.30000000000000004;isolation:isolate"></polygon><polygon points="264.99 201.47 266.78 201.47 266.78 203.91 266.47 203.91 266.47 203.92 265.29 203.92 265.29 203.91 264.99 203.91 264.99 201.47" style="fill:#fff;opacity:0.30000000000000004;isolation:isolate"></polygon><polygon points="272.33 201.47 272.33 203.91 271.86 203.91 271.86 203.92 270.67 203.92 270.67 203.91 270.55 203.91 270.55 201.47 272.33 201.47" style="fill:#fff;opacity:0.30000000000000004;isolation:isolate"></polygon><path d="M251.1,194.55a1.74,1.74,0,0,1-.14.69h-3.5a1.74,1.74,0,0,1-.14-.69c0-.08,0-.16,0-.26h3.72A1.38,1.38,0,0,1,251.1,194.55Z" style="fill:#fff;opacity:0.30000000000000004;isolation:isolate"></path><path d="M250.63,195.76a1,1,0,0,1-.13.16v.43h-2.59v-.43s-.09-.1-.13-.16Z" style="fill:#fff;opacity:0.30000000000000004;isolation:isolate"></path><rect x="248.32" y="197.85" width="1.79" height="5.65" style="fill:#fff;opacity:0.30000000000000004;isolation:isolate"></rect><path d="M266.31,263.13H232.1a2.25,2.25,0,0,1,2.24-2.24h2.11v-1.48a1.93,1.93,0,0,1,1.91-1.92,5,5,0,0,0,3-1,4.9,4.9,0,0,0,1.94-3.91h.91a4.37,4.37,0,0,1,.16-1.21,5,5,0,0,1,1.42-2.41v-1.38h1V231h-1.35v0a3,3,0,0,0-.91-2.14l-.08-.08a3.11,3.11,0,0,0-2.11-.83,1.23,1.23,0,0,1-.88-.38,1.2,1.2,0,0,1-.32-.82v-.93h-1.33a1.65,1.65,0,0,1-.32,0,1.41,1.41,0,0,1-1.09-1.37H260a1.4,1.4,0,0,1-1.09,1.37,1.65,1.65,0,0,1-.32,0h-1.32v.93a1.13,1.13,0,0,1-.34.82,1.15,1.15,0,0,1-.86.38,3.1,3.1,0,0,0-3.1,3.05v0h-1.37v16.63h1.06V249a4.93,4.93,0,0,1,1.42,2.41,4.37,4.37,0,0,1,.17,1.21h.91a4.91,4.91,0,0,0,4.91,4.91,1.87,1.87,0,0,1,1.53.78,1.83,1.83,0,0,1,.39,1.14v1.48h2.11A2.24,2.24,0,0,1,266.31,263.13Z" style="fill:#263238"></path><path d="M260,224.31a1.4,1.4,0,0,1-1.09,1.37H239.52a1.41,1.41,0,0,1-1.09-1.37Z" style="fill:#fff;opacity:0.30000000000000004;isolation:isolate"></path><path d="M253.94,228.68a3.07,3.07,0,0,0-1,2.22h-7.48a3,3,0,0,0-.91-2.14l-.08-.08Z" style="fill:#fff;opacity:0.30000000000000004;isolation:isolate"></path><path d="M257.25,226.11v.54a1.13,1.13,0,0,1-.34.82H241.49a1.2,1.2,0,0,1-.32-.82v-.54Z" style="fill:#fff;opacity:0.30000000000000004;isolation:isolate"></path><rect x="246.82" y="237.11" width="4.76" height="10.47" style="fill:#fff;opacity:0.30000000000000004;isolation:isolate"></rect><path d="M254.06,251.37h-9.71a5,5,0,0,1,1.42-2.41v0h6.87v0A4.93,4.93,0,0,1,254.06,251.37Z" style="fill:#fff;opacity:0.30000000000000004;isolation:isolate"></path><path d="M257.08,256.49H241.34a4.9,4.9,0,0,0,1.94-3.91h11.86A4.9,4.9,0,0,0,257.08,256.49Z" style="fill:#fff;opacity:0.30000000000000004;isolation:isolate"></path><path d="M262,259.41v1.48H236.45v-1.48a1.88,1.88,0,0,1,.38-1.14h24.75A1.83,1.83,0,0,1,262,259.41Z" style="fill:#fff;opacity:0.30000000000000004;isolation:isolate"></path></g></svg>