<svg xmlns="http://www.w3.org/2000/svg" viewBox="0 0 500 500"><g id="background-complete"><path d="M455.47,310.42s0-.1,0-.27,0-.45,0-.76c0-.69,0-1.66,0-2.89,0-2.54-.06-6.2-.1-10.8l.17.17-55.62.11.28-.28h0v7.47c0,2.45,0,4.87,0,7.24l-.27-.28,39.64.12,11.7.08,3.16,0,.83,0a.94.94,0,0,1,.29,0h-.25l-.8,0-3.1,0-11.64.08-39.83.12h-.28v-.27c0-2.37,0-4.79,0-7.24v-7.47h0c.57-.57.16-.16.29-.28l55.62.11h.18v.17c0,4.65-.08,8.33-.1,10.9,0,1.22,0,2.17,0,2.86,0,.29,0,.53,0,.72A1.1,1.1,0,0,1,455.47,310.42Z" style="fill:#e0e0e0"></path><path d="M463,295.7s0-.1,0-.28,0-.47,0-.78c0-.72,0-1.71-.05-2.95,0-2.58-.06-6.23-.11-10.71l.2.21-33.42.08.29-.29h0v1.9c0,.64,0,1.28,0,1.91v3.74q0,3.7,0,7.14l-.27-.27,23.91.13,7,.07,1.87,0,.67,0a4,4,0,0,1-.6,0l-1.82,0-6.91.07-24.09.13h-.27v-.27q0-3.43,0-7.14V281h0c-.06.06.54-.53.28-.28l33.42.08h.21v.2c-.05,4.54-.08,8.22-.11,10.83,0,1.23,0,2.19-.05,2.91A7,7,0,0,1,463,295.7Z" style="fill:#e0e0e0"></path><rect x="266.28" y="105.38" width="51.81" height="13.71" style="fill:#ebebeb"></rect><path d="M296.18,133.53s0-.09,0-.25,0-.42,0-.7c0-.65,0-1.55,0-2.7,0-2.37-.05-5.77-.09-10.06l.16.16-51.81.1c.12-.11-.26.27.26-.26h0v13.69l-.26-.26,36.92.12,10.9.07,2.95,0,.77,0,.27,0h-.24l-.74,0-2.89,0-10.84.08-37.1.12h-.26V119.84h0c.52-.53.14-.15.26-.26l51.81.1h.17v.16c0,4.33-.06,7.76-.08,10.15,0,1.14,0,2,0,2.66,0,.28,0,.5,0,.68A.89.89,0,0,1,296.18,133.53Z" style="fill:#e0e0e0"></path><rect x="193.48" y="408.59" width="51.81" height="13.71" style="fill:#ebebeb"></rect><path d="M223.39,436.74a1.41,1.41,0,0,1,0-.25c0-.19,0-.42,0-.71,0-.64,0-1.54,0-2.69,0-2.37-.05-5.77-.08-10.06l.16.16-51.82.1c.12-.12-.26.27.27-.26h0v3.48c0,1.17,0,2.32,0,3.46v6.75l-.26-.26,36.93.11,10.89.08,3,0,.77,0a1,1,0,0,1,.28,0h-.24l-.74,0-2.89,0-10.84.08-37.11.11h-.26V423.05h0c.53-.53.15-.15.26-.27l51.82.11h.16V423c0,4.33-.07,7.76-.09,10.15,0,1.14,0,2,0,2.66,0,.28,0,.5,0,.68A1.76,1.76,0,0,1,223.39,436.74Z" style="fill:#e0e0e0"></path><path d="M445.31,65.38s0-.09,0-.26,0-.45,0-.76c0-.69,0-1.66,0-2.9,0-2.54-.05-6.19-.09-10.79l.17.17L389.69,51c.12-.13-.29.28.28-.28h0v7.45c0,2.46,0,4.88,0,7.24l-.28-.27,39.65.12,11.7.08,3.16,0,.83,0h.29s-.08,0-.26,0l-.79,0-3.1,0-11.64.07-39.84.13h-.27v-.28c0-2.36,0-4.78,0-7.24V50.69h0l.29-.29,55.62.11h.17v.18c0,4.65-.07,8.33-.09,10.9,0,1.22,0,2.17,0,2.85,0,.3,0,.54,0,.73S445.32,65.39,445.31,65.38Z" style="fill:#e0e0e0"></path><path d="M452.85,50.67s0-.1,0-.28,0-.47,0-.78c0-.73,0-1.71-.05-3,0-2.58-.06-6.23-.11-10.71l.2.2-33.42.08.28-.28h0v7.57c0,2.46,0,4.85,0,7.14l-.27-.27,23.91.13,7,.07,1.88,0,.67,0a4.17,4.17,0,0,1-.6,0l-1.83,0-6.9.08-24.09.13h-.27v-.27c0-2.29,0-4.68,0-7.14V36h0c-.07.06.53-.54.28-.28l33.42.08h.21V36c-.05,4.53-.09,8.22-.11,10.83,0,1.22,0,2.19-.05,2.91A7.13,7.13,0,0,1,452.85,50.67Z" style="fill:#e0e0e0"></path><path d="M363.76,383.68c-5.22-2.69-11.36-3-17.16-2.09-3.11.52-6.36,1.45-8.47,3.79s-2.52,6.45-.09,8.46c1.45,1.19,3.47,1.38,5.34,1.35,4.54-.05,9.57-.85,13.19,1.88,2.07,1.56,3.45,4.15,5.92,4.91s5.15-.68,6.43-2.86a10,10,0,0,0,.73-7.37A11.24,11.24,0,0,0,363.76,383.68Z" style="fill:#ebebeb"></path><path d="M375.72,360.6c-3.2,4.56-9.4,3-12.27.26s-4.09-6.81-5.2-10.65c-2.53-8.79-5.08-18-3.2-26.95a15,15,0,0,1,3.44-7.33,7.83,7.83,0,0,1,7.42-2.46c3.12.82,5.07,3.88,6.47,6.8a64.17,64.17,0,0,1,6.35,27.56c0,4.44-.51,9.1-3,12.77" style="fill:#ebebeb"></path><path d="M384.48,367.14C381,363,380.36,357,381.9,351.88s5-9.54,9-13.12a48.87,48.87,0,0,1,16.18-9.55A17.23,17.23,0,0,1,414.4,328a7.64,7.64,0,0,1,6.11,3.69c1.7,3.25.07,7.19-1.7,10.41a123.7,123.7,0,0,1-10.63,16.19c-3.18,4.1-6.83,8.16-11.69,10s-9.9,1.64-12.47-1.73" style="fill:#ebebeb"></path><path d="M375.93,429.35a9.81,9.81,0,0,1-.29-2.07c-.14-1.51-.33-3.4-.55-5.65a80.71,80.71,0,0,0-1.27-8.29,64.46,64.46,0,0,0-3-9.79,35.78,35.78,0,0,0-5-8.85,18.56,18.56,0,0,0-6.32-5.25,17.5,17.5,0,0,0-5.31-1.66,10.14,10.14,0,0,1-2.07-.3,9.45,9.45,0,0,1,2.1,0,16.17,16.17,0,0,1,5.55,1.44,18.65,18.65,0,0,1,6.66,5.3,35,35,0,0,1,5.18,9,59.69,59.69,0,0,1,3,9.95,67.68,67.68,0,0,1,1.1,8.39c.18,2.4.25,4.34.28,5.69A9.73,9.73,0,0,1,375.93,429.35Z" style="fill:#e0e0e0"></path><path d="M375.54,425a3.75,3.75,0,0,1-.05-1v-2.75c0-2.38,0-5.84-.12-10.1-.21-8.52-.94-17.69-2.36-30.63-1.34-12.16-3.15-26.31-5.05-35.51-.4-2.09-.81-4-1.2-5.62s-.68-3.08-1-4.23l-.64-2.68a3.93,3.93,0,0,1-.17-.94,4.15,4.15,0,0,1,.34.9c.2.69.47,1.56.79,2.63s.72,2.56,1.13,4.2.89,3.53,1.33,5.61a309.1,309.1,0,0,1,5.31,33c1.42,13,2.06,24.76,2.12,33.3,0,4.27,0,7.73-.15,10.12-.07,1.12-.13,2-.17,2.75A4.06,4.06,0,0,1,375.54,425Z" style="fill:#e0e0e0"></path><path d="M375.48,402.24a20.93,20.93,0,0,1,0-2.87,77.52,77.52,0,0,1,.87-7.78,102.87,102.87,0,0,1,2.53-11.33,94.62,94.62,0,0,1,4.74-13.41,71.31,71.31,0,0,1,13.92-21.66,35.24,35.24,0,0,1,3.27-3.05c.5-.42,1-.84,1.4-1.18l1.27-.87a17.26,17.26,0,0,1,2.42-1.55c.13.18-3.43,2.28-7.93,7.06a75.43,75.43,0,0,0-13.56,21.59,106.07,106.07,0,0,0-4.77,13.29A114.47,114.47,0,0,0,377,391.7c-.59,3.23-.94,5.87-1.14,7.7A17.43,17.43,0,0,1,375.48,402.24Z" style="fill:#e0e0e0"></path><polygon points="397.48 442.39 395.2 473.63 355.06 473.63 352.78 442.39 397.48 442.39" style="fill:#e0e0e0"></polygon><rect x="348" y="430.07" width="53.36" height="12.31" style="fill:#e0e0e0"></rect><polygon points="401.36 472.44 401.36 475.85 398.85 475.85 348.88 475.85 348.88 472.44 401.36 472.44" style="fill:#ebebeb"></polygon><polygon points="396.39 481.86 398.85 475.85 350.79 475.85 353.66 481.86 396.39 481.86" style="fill:#e0e0e0"></polygon><path d="M353.53,452.6s.05.1.19.29l.6.79,2.33,3,.11.14.1-.14,5.74-7.95h-.33l5.66,8,.18.25.19-.23,6.71-8h-.39l.37.46,6,7.52.2.25.19-.26,5.65-8h-.33l7,7.94.13.14.09-.16,2.18-3.66c.23-.4.42-.72.56-1s.19-.34.17-.35a1.85,1.85,0,0,0-.23.31l-.62.94-2.29,3.6.22,0-6.86-8-.17-.21-.16.22c-1.73,2.43-3.65,5.11-5.71,8h.39l-6-7.53-.36-.46-.2-.24-.19.23-6.69,8h.38c-2.07-2.87-4-5.56-5.72-8l-.16-.24-.17.24-5.62,8h.2l-2.43-2.91-.65-.76Q353.55,452.59,353.53,452.6Z" style="fill:#f5f5f5"></path><path d="M352.23,442.18c0,.14,10,.25,22.46.25s22.46-.11,22.46-.25-10.06-.25-22.46-.25S352.23,442,352.23,442.18Z" style="fill:#f5f5f5"></path><path d="M350.2,476.18c0,.14,10.93.25,24.41.25s24.41-.11,24.41-.25-10.93-.24-24.41-.24S350.2,476.05,350.2,476.18Z" style="fill:#f5f5f5"></path><rect x="28.31" y="36.14" width="166.44" height="299" style="fill:#ebebeb"></rect><rect x="34.96" y="44.81" width="151.43" height="281.43" style="fill:#fafafa"></rect><polygon points="201.79 337.84 194.75 335.15 194.75 31.07 201.79 31.07 201.79 337.84" style="fill:#e0e0e0"></polygon><path d="M72.09,226.6q19.65-18.28,39.32-36.55c5-4.64,11.5-9.63,17.91-7.34,3.08,1.1,5.4,3.73,8.42,5,6,2.51,12.93-1.12,17.58-5.73s8.3-10.37,13.93-13.71,14.36-2.91,17.14,3v39.78l-57.15,24.47Z" style="fill:#f5f5f5"></path><path d="M35,203.73c14.49-5.9,29-.88,39.33,10.83,2.18,2.47,4.17,5.32,7.17,6.68,4.06,1.84,8.75.46,13.19,0a33.17,33.17,0,0,1,31.19,15.12l-48.38,23.8L35,259.81Z" style="fill:#e0e0e0"></path><path d="M186.39,203.93c-9.55-4.61-17.95,1-26.75,6.87s-17,13.47-27.32,15.84c-6.9,1.59-14.3.71-21,3.08-13.59,4.85-21.45,22.11-35.86,22.93-7.82.45-14.83-4.3-21.82-7.85S41.19,237.86,35,242.62v83.62H186.39Z" style="fill:#ebebeb"></path><rect x="34.96" y="125.77" width="154.71" height="3" style="fill:#e0e0e0"></rect><rect x="34.96" y="192.79" width="154.71" height="3" style="fill:#e0e0e0"></rect><rect x="34.96" y="259.81" width="154.71" height="3" style="fill:#e0e0e0"></rect><rect x="7.2" y="226.92" width="206.95" height="7.65" transform="translate(-120.07 341.42) rotate(-90)" style="fill:#e0e0e0"></rect><rect x="64.12" y="44.81" width="3.47" height="82.46" style="fill:#e0e0e0"></rect><rect x="94.01" y="44.81" width="3.47" height="82.46" style="fill:#e0e0e0"></rect><rect x="123.91" y="44.81" width="3.47" height="82.46" style="fill:#e0e0e0"></rect><rect x="153.8" y="44.81" width="3.47" height="82.46" style="fill:#e0e0e0"></rect><rect x="21.27" y="31.07" width="7.04" height="305.92" style="fill:#e0e0e0"></rect><rect x="21.27" y="27.98" width="180.52" height="8.16" style="fill:#e0e0e0"></rect><rect x="16.28" y="338.85" width="190.28" height="7.6" style="fill:#e0e0e0"></rect><polygon points="194.75 335.15 206.56 338.85 16.28 338.85 28.31 335.15 194.75 335.15" style="fill:#ebebeb"></polygon></g><g id="background-simple"><path d="M396.09,138.57,394,135.16c-17.41-28.68-48.89-46-82.08-43.88A87.93,87.93,0,0,0,299.25,93c-30.18,6.46-56.43,29.28-67.31,58.5-6.4,17.19-8.19,37-20.34,50.62-15.81,17.75-42.64,18.31-66.24,17.58s-50.44-.11-66.18,17.71c-9.85,11.17-13,27-12.18,42,2.1,39.58,29.68,75,64.75,92.56s76.38,19.17,114.76,11.43c53.78-10.84,104.92-40.61,135.66-86.59S420.69,188.2,396.09,138.57Z" style="fill:#f5f5f5"></path></g><g id="Switches"><rect x="227.98" y="191.24" width="103.81" height="103.81" rx="2.92" style="fill:#f5f5f5"></rect><path d="M328.87,295.05a3.65,3.65,0,0,0,1-.22,2.88,2.88,0,0,0,1.8-2.3c.05-2.71,0-6.75,0-11.94,0-10.39-.05-25.4-.08-43.95,0-9.28,0-19.45,0-30.36V198c0-1.39,0-2.87,0-4.22a2.71,2.71,0,0,0-2.86-2.27H310.74l-79.83,0a2.69,2.69,0,0,0-2.1,1,2.76,2.76,0,0,0-.51,1.08,6.38,6.38,0,0,0-.06,1.26v36c0,13.35,0,26.23,0,38.5q0,9.21,0,17.93v4.33a3.08,3.08,0,0,0,.43,1.93,2.72,2.72,0,0,0,1.55,1.13,9.69,9.69,0,0,0,2,.1h6.22l30.35,0,43.95.09,11.95,0,3.11,0,1.06,0-1.06,0-3.11,0-11.95,0-43.95.08-30.35,0h-7.27a3.88,3.88,0,0,1-1.11-.11,3.19,3.19,0,0,1-1.8-1.32,3.44,3.44,0,0,1-.51-2.17c0-1.43,0-2.87,0-4.33q0-8.71,0-17.93c0-12.27,0-25.15,0-38.5q0-10,0-20.37V194.86a7.23,7.23,0,0,1,.07-1.37,3.41,3.41,0,0,1,.61-1.29,3.23,3.23,0,0,1,2.51-1.22l79.83,0h17.93a3.2,3.2,0,0,1,2.16.69,3.12,3.12,0,0,1,1.14,2c.09,1.49,0,2.87,0,4.29v8.32c0,10.91,0,21.08,0,30.36,0,18.55-.06,33.56-.08,43.95,0,5.19,0,9.22-.08,12a3,3,0,0,1-1.89,2.33,3.26,3.26,0,0,1-.78.17Z" style="fill:#263238"></path><path d="M274.24,208.14a2.93,2.93,0,1,1,2.93,2.79A2.78,2.78,0,0,1,274.24,208.14Zm4.83,0a1.91,1.91,0,1,0-1.9,1.9A1.85,1.85,0,0,0,279.07,208.14Z" style="fill:#263238"></path><path d="M286,205.42v5.43h-.83l-3-3.68v3.68h-1v-5.43H282l3,3.68v-3.68Z" style="fill:#263238"></path><path d="M273.55,275.68a2.93,2.93,0,1,1,2.93,2.79A2.78,2.78,0,0,1,273.55,275.68Zm4.83,0a1.91,1.91,0,1,0-1.9,1.91A1.84,1.84,0,0,0,278.38,275.68Z" style="fill:#263238"></path><path d="M281.48,273.81v1.66h2.62v.85h-2.62v2.08h-1V273h4v.84Z" style="fill:#263238"></path><path d="M286.41,273.81v1.66H289v.85h-2.62v2.08h-1V273h4v.84Z" style="fill:#263238"></path><rect x="267.51" y="218.89" width="27.18" height="47.8" rx="2.2" style="fill:#e0e0e0"></rect><path d="M292.48,266.69a2.46,2.46,0,0,0,1.34-.52,2.12,2.12,0,0,0,.78-1.52c0-.71,0-1.53,0-2.45,0-3.73,0-9.07-.09-15.66s0-14.49-.05-23.23v-1.65a2.78,2.78,0,0,0-.25-1.51,2,2,0,0,0-1.13-.93,6.49,6.49,0,0,0-1.62-.08H269.72a1.92,1.92,0,0,0-1.47.67,2,2,0,0,0-.48,1.57v11q0,7.14,0,13.72c0,4.37,0,8.52,0,12.41,0,1.95,0,3.82,0,5.63a2,2,0,0,0,2.11,2.38h1.26l15.66.08,4.26.05,1.11,0a1.7,1.7,0,0,1,.37,0,1.7,1.7,0,0,1-.37,0l-1.11,0-4.26.05-15.66.08h-1.26a2.49,2.49,0,0,1-1.32-.33,2.34,2.34,0,0,1-.95-1,2.83,2.83,0,0,1-.24-1.39c0-1.81,0-3.68,0-5.63,0-3.89,0-8,0-12.41s0-9,0-13.72q0-3.57,0-7.26v-3.71a2.61,2.61,0,0,1,.61-1.92,2.44,2.44,0,0,1,1.86-.84h22.59a2.64,2.64,0,0,1,.91.11,2.44,2.44,0,0,1,1.41,1.17,3.19,3.19,0,0,1,.3,1.74v1.65c0,8.74,0,16.61-.06,23.23s-.06,11.93-.08,15.66c0,.93,0,1.74,0,2.47a2.28,2.28,0,0,1-.87,1.58A2,2,0,0,1,292.48,266.69Z" style="fill:#263238"></path><path d="M291.77,263.9H270.43a2.92,2.92,0,0,1-2.92-2.92V242.79h27.18V261A2.92,2.92,0,0,1,291.77,263.9Z" style="fill:#f5f5f5"></path><path d="M291.77,263.9a3.66,3.66,0,0,0,1.51-.51,2.94,2.94,0,0,0,1.15-1.48,9.63,9.63,0,0,0,.13-2.6c0-4-.06-9.71-.1-16.52l.23.22-24.26,0h-2.92l.26-.26c0,6.16,0,12,0,17.29a4.81,4.81,0,0,0,.17,1.85,2.61,2.61,0,0,0,1.09,1.33,2.79,2.79,0,0,0,1.65.42h1.79l6.51,0,9.38.08,2.54,0,.66,0,.23,0-.23,0-.66,0-2.54,0-9.38.08-6.51,0h-1.79a3.18,3.18,0,0,1-1.88-.47,3.13,3.13,0,0,1-1.29-1.55,3,3,0,0,1-.21-1v-1c0-5.3,0-11.13,0-17.29v-.26h3.18l24.26,0h.22v.22c0,6.81-.07,12.49-.09,16.52,0,.49,0,1,0,1.41a3.24,3.24,0,0,1-.19,1.26,3,3,0,0,1-1.26,1.53,2.84,2.84,0,0,1-1.16.39A2.21,2.21,0,0,1,291.77,263.9Z" style="fill:#263238"></path><circle cx="281.1" cy="226.25" r="1.65" style="fill:#FF725E"></circle><path d="M316.23,242.79a3.32,3.32,0,1,1-3.31-3.32A3.31,3.31,0,0,1,316.23,242.79Z" style="fill:#e0e0e0"></path><path d="M316.23,242.79s-.05-.3-.2-.79a3.33,3.33,0,0,0-1.22-1.7,3.09,3.09,0,1,0,0,5,3.35,3.35,0,0,0,1.22-1.71c.15-.49.16-.78.2-.78a1.49,1.49,0,0,1,0,.83,3.33,3.33,0,0,1-1.19,1.95,3.51,3.51,0,0,1-3.33.56,3.54,3.54,0,0,1,0-6.68A3.48,3.48,0,0,1,315,240a3.38,3.38,0,0,1,1.19,1.95A1.54,1.54,0,0,1,316.23,242.79Z" style="fill:#263238"></path><path d="M315.35,240.66a20.18,20.18,0,0,1-4.62,4.54,10.26,10.26,0,0,1,2.13-2.46A10.52,10.52,0,0,1,315.35,240.66Z" style="fill:#263238"></path><path d="M315.11,245.13a14,14,0,0,1-2.41-2.19,13,13,0,0,1-2.23-2.38,8.43,8.43,0,0,1,2.59,2A8.29,8.29,0,0,1,315.11,245.13Z" style="fill:#263238"></path><path d="M253.59,242.79a3.32,3.32,0,1,1-3.32-3.32A3.32,3.32,0,0,1,253.59,242.79Z" style="fill:#e0e0e0"></path><path d="M253.59,242.79a7.49,7.49,0,0,1-.2-.79,3.39,3.39,0,0,0-1.22-1.7,3.1,3.1,0,1,0,0,5,3.41,3.41,0,0,0,1.22-1.71,6.83,6.83,0,0,1,.2-.78,1.57,1.57,0,0,1,0,.83,3.28,3.28,0,0,1-1.19,1.95,3.5,3.5,0,0,1-3.33.56,3.54,3.54,0,0,1,0-6.68,3.47,3.47,0,0,1,3.33.55,3.33,3.33,0,0,1,1.19,1.95A1.62,1.62,0,0,1,253.59,242.79Z" style="fill:#263238"></path><path d="M252.71,240.66a20.73,20.73,0,0,1-4.62,4.54,10,10,0,0,1,2.13-2.46A10.31,10.31,0,0,1,252.71,240.66Z" style="fill:#263238"></path><path d="M252.47,245.13a39.62,39.62,0,0,1-4.65-4.57,8.4,8.4,0,0,1,2.6,2A8.68,8.68,0,0,1,252.47,245.13Z" style="fill:#263238"></path><rect x="227.49" y="305.81" width="48.97" height="48.97" rx="1.96" style="fill:#f5f5f5"></rect><path d="M274.49,354.78s.18,0,.49-.09a2,2,0,0,0,1.12-.84,4,4,0,0,0,.28-2.28c0-.94,0-2,0-3.24,0-4.89-.05-11.93-.09-20.62,0-4.36,0-9.13,0-14.24v-3.91c0-.65,0-1.35,0-2a1.73,1.73,0,0,0-1-1.39,2,2,0,0,0-.9-.16h-7.39l-37.46,0a1.73,1.73,0,0,0-1.63,1.19,2.34,2.34,0,0,0-.08.53v16.3c0,6.26,0,12.31,0,18.07,0,2.87,0,5.68,0,8.41v2a1.78,1.78,0,0,0,.67,1.59,1.65,1.65,0,0,0,.79.34c.27,0,.63,0,.95,0h1.93l14.25,0,20.62.09,5.61.05,1.46,0c.33,0,.49,0,.49,0a4.45,4.45,0,0,1-.49,0l-1.46,0-5.61.05-20.62.08-14.25,0h-1.93a9,9,0,0,1-1,0,2.15,2.15,0,0,1-1-.43,2.24,2.24,0,0,1-.85-1.94c0-.67,0-1.35,0-2,0-2.73,0-5.54,0-8.41,0-5.76,0-11.81,0-18.07,0-3.14,0-6.32,0-9.56v-6.74a2.76,2.76,0,0,1,.11-.69,2.24,2.24,0,0,1,2.12-1.55l37.46,0h7.39a2.34,2.34,0,0,1,1.09.2,2.21,2.21,0,0,1,1.27,1.76c0,.72,0,1.35,0,2,0,1.32,0,2.63,0,3.91,0,5.11,0,9.88,0,14.24,0,8.69-.06,15.73-.08,20.62,0,1.22,0,2.3,0,3.24,0,.47,0,.9,0,1.3a2,2,0,0,1-1.53,1.87A1.46,1.46,0,0,1,274.49,354.78Z" style="fill:#263238"></path><path d="M267.34,330.3a24.9,24.9,0,0,0-.54-3.47,14.24,14.24,0,0,0-5.21-7.74,14.07,14.07,0,0,0-13.32-2,14,14,0,0,0-6.51,4.89,14,14,0,0,0,0,16.59,13.29,13.29,0,0,0,3,3,13.48,13.48,0,0,0,3.55,1.92,14.19,14.19,0,0,0,7.38.62,14,14,0,0,0,5.94-2.61,14.24,14.24,0,0,0,5.21-7.74,25.14,25.14,0,0,0,.54-3.46s0,.07,0,.23v.68a6.82,6.82,0,0,1-.09,1.1,9.79,9.79,0,0,1-.27,1.5,13.28,13.28,0,0,1-1.54,3.85,14.4,14.4,0,0,1-9.72,6.88,14.56,14.56,0,0,1-7.62-.6,14.56,14.56,0,0,1-6.76-5.05,14.43,14.43,0,0,1,0-17.19,13.84,13.84,0,0,1,3.08-3.08,13.48,13.48,0,0,1,3.68-2,14.47,14.47,0,0,1,7.62-.61,14.49,14.49,0,0,1,9.72,6.88,13.28,13.28,0,0,1,1.54,3.85,9.79,9.79,0,0,1,.27,1.5,6.82,6.82,0,0,1,.09,1.1v.68A.64.64,0,0,1,267.34,330.3Z" style="fill:#263238"></path><rect x="283.31" y="305.81" width="48.97" height="48.97" rx="1.96" style="fill:#f5f5f5"></rect><path d="M330.32,354.78s.17,0,.48-.09a2,2,0,0,0,1.12-.84,4,4,0,0,0,.28-2.28c0-.94,0-2,0-3.24,0-4.89-.05-11.93-.08-20.62,0-4.36,0-9.13,0-14.24v-3.91c0-.65,0-1.35,0-2a1.73,1.73,0,0,0-1-1.39,2,2,0,0,0-.9-.16h-7.39l-37.46,0a1.73,1.73,0,0,0-1.63,1.19,2.34,2.34,0,0,0-.08.53v16.3c0,6.26,0,12.31,0,18.07,0,2.87,0,5.68,0,8.41v2a1.81,1.81,0,0,0,.67,1.59,1.69,1.69,0,0,0,.79.34c.28,0,.63,0,.95,0h1.93l14.25,0,20.62.09,5.61.05,1.46,0,.5,0a4.79,4.79,0,0,1-.5,0l-1.46,0-5.61.05-20.62.08-14.25,0H286a9,9,0,0,1-1,0,2.15,2.15,0,0,1-1-.43,2.24,2.24,0,0,1-.85-1.94v-2c0-2.73,0-5.54,0-8.41,0-5.76,0-11.81,0-18.07,0-3.14,0-6.32,0-9.56v-6.74a2.76,2.76,0,0,1,.11-.69,2.24,2.24,0,0,1,2.12-1.55l37.46,0h7.39a2.34,2.34,0,0,1,1.09.2,2.21,2.21,0,0,1,1.27,1.76c0,.72,0,1.35,0,2v3.91c0,5.11,0,9.88,0,14.24,0,8.69-.06,15.73-.08,20.62,0,1.22,0,2.3,0,3.24l0,1.3a2,2,0,0,1-1.53,1.87A1.4,1.4,0,0,1,330.32,354.78Z" style="fill:#263238"></path><rect x="289.14" y="312.19" width="37.02" height="37.02" rx="2.19" style="fill:#f5f5f5"></rect><path d="M324,349.21a2.45,2.45,0,0,0,1.32-.51,2.14,2.14,0,0,0,.78-1.49c0-.69,0-1.51,0-2.42,0-3.68-.05-9-.08-15.46,0-3.27,0-6.84,0-10.68v-2.93c0-.49,0-1,0-1.48a2,2,0,0,0-1.77-1.81h-4.74l-28.08,0a2,2,0,0,0-1.94,2.2v10.83c0,4.7,0,9.23,0,13.55,0,2.16,0,4.26,0,6.31v1.52a2.06,2.06,0,0,0,.35,1.29,2,2,0,0,0,1.06.76,5.52,5.52,0,0,0,1.38.09l10.68,0,15.46.08,4.2.05,1.1,0a1.53,1.53,0,0,1,.37,0,1.82,1.82,0,0,1-.37,0l-1.1,0-4.2.05-15.46.09-10.68,0a5.67,5.67,0,0,1-1.51-.1,2.41,2.41,0,0,1-1.29-.93,2.45,2.45,0,0,1-.44-1.54c0-.5,0-1,0-1.52q0-3.07,0-6.31c0-4.32,0-8.85,0-13.55q0-3.53,0-7.16v-3.67a2.55,2.55,0,0,1,.62-1.89,2.46,2.46,0,0,1,1.84-.83l28.08,0h3.2c.53,0,1,0,1.58,0a2.48,2.48,0,0,1,1.51.73,2.41,2.41,0,0,1,.67,1.51c0,.53,0,1,0,1.51v2.93c0,3.84,0,7.41,0,10.68,0,6.5-.07,11.78-.09,15.46,0,.92,0,1.72,0,2.43a2.24,2.24,0,0,1-.87,1.56A1.94,1.94,0,0,1,324,349.21Z" style="fill:#263238"></path><path d="M307.37,348.93c-.15,0-.26-8.23-.26-18.37s.11-18.37.26-18.37.26,8.23.26,18.37S307.51,348.93,307.37,348.93Z" style="fill:#263238"></path></g><g id="Lamp"><polyline points="413.97 481.86 413.97 149.28 407.69 149.28 407.69 481.93" style="fill:#f5f5f5"></polyline><path d="M407.69,481.93s0-.58,0-1.71,0-2.82,0-5c0-4.43,0-10.95-.05-19.35,0-16.82,0-41.15-.08-71.22,0-60.17-.05-143.33-.08-235.35V149h6.8v.26c0,92-.06,175.17-.08,235.32,0,30.06-.06,54.38-.08,71.19,0,8.39,0,14.91-.05,19.34,0,2.21,0,3.89,0,5s0,1.71,0,1.71,0-.58,0-1.71,0-2.82,0-5c0-4.43,0-10.95-.05-19.34,0-16.81-.05-41.13-.08-71.19,0-60.15-.05-143.29-.08-235.32l.26.26h-6.28l.26-.26c0,92-.06,175.18-.08,235.35,0,30.07-.06,54.4-.08,71.22,0,8.4,0,14.92-.05,19.35,0,2.21,0,3.89,0,5S407.69,481.93,407.69,481.93Z" style="fill:#263238"></path><polygon points="374.95 105.04 351.61 209.34 470.05 209.34 443.41 105.36 374.95 105.04" style="fill:#FF725E"></polygon><path d="M350.79,240.22c0,.2,1.17-1.05,2.92-3l6.83-7.64,6.84-7.64,2.1-2.29c.51-.53.8-.82.83-.79a4.79,4.79,0,0,1-.67.93c-.46.57-1.14,1.39-2,2.39-1.7,2-4.07,4.75-6.73,7.75s-5.12,5.66-7,7.54c-.91.94-1.68,1.69-2.23,2.17a7,7,0,0,1-.68.53.49.49,0,0,1-.22.08C350.75,240.28,350.79,240.2,350.79,240.22Z" style="fill:#263238"></path><path d="M364.78,265.76c-.12-.07,5.42-10,12.38-22.19s12.7-22,12.83-21.94-5.42,10-12.38,22.2S364.91,265.83,364.78,265.76Z" style="fill:#263238"></path><path d="M468.63,233.13a98.82,98.82,0,0,1-8-6.17,92.84,92.84,0,0,1-7.63-6.57,98.82,98.82,0,0,1,8,6.17A92.84,92.84,0,0,1,468.63,233.13Z" style="fill:#263238"></path><path d="M468.63,261.07a2.54,2.54,0,0,1-.4-.38l-1.08-1.17c-.93-1-2.28-2.5-4-4.3-3.36-3.62-8.1-8.53-13.35-13.94s-10-10.36-13.26-14.05c-1.66-1.84-3-3.35-3.85-4.42l-1-1.23a2.36,2.36,0,0,1-.32-.46,2.4,2.4,0,0,1,.4.39l1.08,1.17c.93,1,2.28,2.5,4,4.3,3.36,3.62,8.11,8.53,13.36,13.94s10,10.36,13.26,14.05c1.65,1.84,3,3.35,3.84,4.42l1,1.23A2.3,2.3,0,0,1,468.63,261.07Z" style="fill:#263238"></path><path d="M374.43,209.37c-.15,0,3.2-23.38,7.48-52.17s7.86-52.11,8-52.09-3.21,23.37-7.48,52.17S374.57,209.39,374.43,209.37Z" style="fill:#263238"></path><path d="M390.19,95.21c-.13.07-2.57-4.72-5.45-10.69s-5.11-10.85-5-10.91,2.57,4.72,5.45,10.69S390.32,95.15,390.19,95.21Z" style="fill:#263238"></path><path d="M407.1,59c.14,0,.26,8.3.26,18.53S407.24,96,407.1,96s-.26-8.29-.26-18.52S407,59,407.1,59Z" style="fill:#263238"></path><path d="M431.39,69.77c.14,0-1.65,5.11-4,11.29s-4.35,11.15-4.48,11.1,1.66-5.1,4-11.29S431.26,69.72,431.39,69.77Z" style="fill:#263238"></path></g><g id="Character"><path d="M68.63,364.87S52.44,396.83,52,408s0,33.63,0,33.63l5.13,40.26h85.36l-2.9-76s6.88-18.44,3.29-35.76Z" style="fill:#263238"></path><path d="M122.4,381.24s-.06.17-.23.45l-.75,1.25c-.33.54-.74,1.19-1.27,1.91s-1.09,1.59-1.82,2.45-1.47,1.85-2.38,2.83-1.89,2-2.94,3.05a64,64,0,0,1-7.54,6.14A64.92,64.92,0,0,1,97,404.14c-1.37.6-2.66,1.2-3.91,1.64s-2.42.87-3.5,1.2-2.07.58-2.93.81a21,21,0,0,1-2.25.49l-1.43.26a1.77,1.77,0,0,1-.51,0,2.1,2.1,0,0,1,.49-.16l1.41-.34c.61-.14,1.36-.32,2.21-.58s1.85-.5,2.9-.88,2.23-.74,3.45-1.25,2.51-1.07,3.86-1.68a68.51,68.51,0,0,0,8.36-4.81,69,69,0,0,0,7.5-6.05c1-1,2.08-2,2.95-3s1.7-1.9,2.42-2.77,1.32-1.68,1.86-2.39,1-1.33,1.34-1.85l.83-1.19A2.5,2.5,0,0,1,122.4,381.24Z" style="fill:#455a64"></path><path d="M95,481.93c-.15,0-1.08-16.79-2.08-37.52s-1.7-37.55-1.55-37.56,1.07,16.8,2.07,37.53S95.17,481.93,95,481.93Z" style="fill:#455a64"></path><path d="M93.81,383.84a25.79,25.79,0,0,1-1,3A52.94,52.94,0,0,0,91,394.16a51.6,51.6,0,0,0-.72,7.51,27.5,27.5,0,0,1-.09,3.15,3.19,3.19,0,0,1-.14-.84,22.88,22.88,0,0,1-.14-2.31,39.77,39.77,0,0,1,.58-7.6,40.4,40.4,0,0,1,2-7.36c.35-.91.66-1.64.91-2.13A2.77,2.77,0,0,1,93.81,383.84Z" style="fill:#455a64"></path><path d="M151.47,234.14c-3.39-5-7.35-10.48-6.5-16.48.52-3.59,2.76-6.85,2.78-10.49,0-6.54-6.91-11.16-8.11-17.59-1.23-6.59,3.84-12.68,4.63-19.34.62-5.16-1.37-10.22-2.49-15.29-2.35-10.74,2.4-27.68-11.71-43.78l-.91,11.91c-6.55,7.29-8.81,17.36-10.83,27-5.12,24.3-10.25,48.92-9,73.73.42,8.76,1.85,18,7.48,24.73,5.83,7,15.38,10,24.45,9.67C146.77,258,153,256,155.35,251,157.94,245.54,154.85,239.15,151.47,234.14Z" style="fill:#263238"></path><path d="M46.56,171.12a16.78,16.78,0,0,0-3,19.58c1.67,3,4.31,5.56,5.41,8.85,1.28,3.84.21,8.15-1.81,11.66s-4.91,6.43-7.58,9.48c-6.43,7.31-12,17.05-9.23,26.37,1.11,3.69,3.46,7,4.21,10.73,1,4.78-.78,9.75,0,14.55a14.14,14.14,0,0,0,9.48,11.07,13.39,13.39,0,0,0,13.92-4c4.36-5.17,3.95-12.67,4.1-19.44a86.29,86.29,0,0,1,8.53-35.48c1.56-3.21,3.32-6.36,4.24-9.81s.9-7.33-1-10.36" style="fill:#263238"></path><path d="M124.9,137.07a4.89,4.89,0,0,0,1.37,2.46,5,5,0,0,0,2.2,1.74c.09-.12-.84-.93-1.81-2.08A17.89,17.89,0,0,0,124.9,137.07Z" style="fill:#455a64"></path><path d="M68.52,163.72C65.89,156.37,63.29,149,62,141.27s-1.33-15.75,1.17-23.14c.38-1.12,3.68-8.66,4.86-8.58.84.06-1.12,7.06-.67,7.78,4.26,6.85,5.61,15.2,5.2,23.26a105.83,105.83,0,0,1-4,23.13" style="fill:#263238"></path><path d="M89.37,227.81a22.25,22.25,0,0,1-21.72-22.3l.16-72.82c-.58-19.57,10.32-36.21,29.89-36.25l1.81.1a35,35,0,0,1,33,34.09c.41,17-.66,31.82-1.28,40.87C130,190.24,112.52,193,112.52,193s-.3,7.34-.37,12.85a22.27,22.27,0,0,1-22.78,22Z" style="fill:#ffbe9d"></path><path d="M112.52,193a32.26,32.26,0,0,1-24.41-5s5.42,11.17,24.2,9.93Z" style="fill:#eb996e"></path><path d="M126.1,145.88a2.68,2.68,0,0,1-2.65,2.64,2.56,2.56,0,0,1-2.7-2.49,2.68,2.68,0,0,1,2.64-2.64A2.57,2.57,0,0,1,126.1,145.88Z" style="fill:#263238"></path><path d="M127.32,139.85c-.35.34-2.34-1.21-5.23-1.27s-5,1.33-5.34,1c-.15-.16.21-.79,1.15-1.44a7.38,7.38,0,0,1,4.28-1.21,7.2,7.2,0,0,1,4.15,1.45C127.2,139.06,127.48,139.7,127.32,139.85Z" style="fill:#263238"></path><path d="M100.13,145.88a2.68,2.68,0,0,1-2.65,2.64,2.57,2.57,0,0,1-2.7-2.49,2.68,2.68,0,0,1,2.64-2.64A2.57,2.57,0,0,1,100.13,145.88Z" style="fill:#263238"></path><path d="M108.82,160.43c0-.17,1.79-.43,4.71-.73.73-.06,1.44-.19,1.57-.69a3.71,3.71,0,0,0-.44-2.2c-.65-1.8-1.33-3.68-2-5.66-2.83-8.06-4.87-14.68-4.54-14.79s2.89,6.33,5.72,14.39l2,5.69a4.24,4.24,0,0,1,.31,2.91,1.83,1.83,0,0,1-1.23,1,5.1,5.1,0,0,1-1.26.15C110.64,160.62,108.83,160.59,108.82,160.43Z" style="fill:#263238"></path><path d="M99.85,128.77c-.37.75-3.21.07-6.63.13s-6.25.68-6.62-.07c-.17-.36.39-1,1.57-1.68a11.51,11.51,0,0,1,10.09-.05C99.45,127.73,100,128.41,99.85,128.77Z" style="fill:#263238"></path><path d="M128.43,131.23c-.57.66-2.84,0-5.56,0s-5,.46-5.55-.23c-.24-.33.12-1,1.13-1.61a8.49,8.49,0,0,1,4.51-1.09,8.32,8.32,0,0,1,4.44,1.3C128.37,130.24,128.69,130.91,128.43,131.23Z" style="fill:#263238"></path><path d="M99.54,139.69c-.34.34-2.34-1.21-5.22-1.27s-5,1.33-5.34,1c-.15-.16.2-.78,1.14-1.43a7.37,7.37,0,0,1,4.29-1.21,7,7,0,0,1,4.14,1.45C99.42,138.9,99.71,139.54,99.54,139.69Z" style="fill:#263238"></path><path d="M107.8,171.18a7.09,7.09,0,0,1-3.57,1.83,5.29,5.29,0,0,1-4.83-1.79,3.37,3.37,0,0,1,.3-3.84,5.31,5.31,0,0,1,3.68-1.91,5.8,5.8,0,0,1,5.18,2.21S109.94,169.31,107.8,171.18Z" style="fill:#eb996e"></path><path d="M100.53,163.51c.46,0,.43,3,3,5.25s5.86,1.91,5.88,2.34c0,.19-.73.59-2.11.61a7.64,7.64,0,0,1-4.92-1.78,6.7,6.7,0,0,1-2.34-4.41C100,164.24,100.32,163.49,100.53,163.51Z" style="fill:#263238"></path><path d="M120.76,108.94c1.38,4.57,5.41,7.74,8.06,11.71,3.73,5.59,4.59,12.59,4.67,19.31-.19-3.16,1.07-6.21,1.69-9.32a23,23,0,0,0-15.45-26.37" style="fill:#263238"></path><path d="M121.47,108.79c2.44-4.75.41-10.9-3.6-14.42s-9.52-4.84-14.85-5.12a47.15,47.15,0,0,0-47.34,32.42c-4.72,14.43-2.34,30.62-8,44.7-1.51,3.72-3.56,7.21-4.89,11s-1.91,8-.41,11.78c1.59,3.94,5.3,6.8,6.58,10.85,2.29,7.22-3.63,16.19,1,22.14,3.36,4.26,10.22,3.69,14.84.85s8-7.34,12.39-10.52a27.32,27.32,0,0,1,29.79-1c3.24,2,7.22,4.45,9.73,7.35,2.94,3.4,8.72,15.56,9.38,11.79.48-2.7-4.48-16.42-6.37-18.4-9.85-10.34-13.63-12.38-28.5-15.26a61.25,61.25,0,0,1-7.84-1.62c-10.28-3.39-8.17-13.52-5.87-16.32s5.41-5.19,6.32-8.7C85.7,163.18,77.37,156,80,149.08c1.44-3.86,6-6.32,6.31-10.43.24-3.5-2.81-6.93-1.58-10.21s5.67-3.79,8.06-6.32c2.68-2.87,2.26-7.75,5.05-10.51s7.38-2.11,11.26-1.44,8.67.77,10.88-2.49" style="fill:#263238"></path><path d="M42.67,278.88s-.2,0-.59-.07a2.6,2.6,0,0,1-.73-.17l-.46-.15-.49-.25a8.12,8.12,0,0,1-3.76-5.49,13.47,13.47,0,0,1-.21-4.92,26.06,26.06,0,0,1,1.82-5.58c.83-1.93,1.81-3.94,2.57-6.18a17.66,17.66,0,0,0,.84-3.53,19.37,19.37,0,0,0,0-3.81c-.25-2.61-1-5.29-1.53-8.12s-1-5.9-.22-9a17.14,17.14,0,0,1,1.76-4.43c.42-.69.86-1.39,1.33-2.06s1-1.34,1.51-2c2.11-2.57,4.56-4.94,6.85-7.56.55-.66,1.14-1.31,1.66-2,.26-.35.54-.69.79-1l.73-1.1a10.08,10.08,0,0,0,.68-1.14c.2-.4.43-.78.62-1.18a17.29,17.29,0,0,0,.9-2.53,14.52,14.52,0,0,0,.47-5.39,27.78,27.78,0,0,0-1-5.49c-1-3.64-2.4-7.27-3.09-11.17a18.45,18.45,0,0,1-.09-6,17.64,17.64,0,0,1,2-5.69c.94-1.79,2-3.5,2.84-5.28A20.41,20.41,0,0,0,59.64,162c.63-3.84.37-7.72.28-11.51a39.93,39.93,0,0,1,.9-11.17,46.67,46.67,0,0,1,3.83-10c1.57-3.13,3.31-6.06,5-8.91s3.35-5.59,5.12-8.15c3.51-5.12,7.59-9.46,12.25-12.07a23.66,23.66,0,0,1,7.08-2.62,26.89,26.89,0,0,1,6.73-.37,26.06,26.06,0,0,1,10.3,3,24.18,24.18,0,0,1,5.49,4c1.09,1.12,1.59,1.76,1.59,1.76l-.43-.42c-.28-.28-.66-.74-1.23-1.26a24.69,24.69,0,0,0-5.51-3.89,26,26,0,0,0-10.23-2.86,26.23,26.23,0,0,0-6.64.41,23.31,23.31,0,0,0-7,2.61c-4.59,2.59-8.61,6.9-12.08,12-1.76,2.54-3.41,5.29-5.09,8.14s-3.4,5.77-5,8.89a46.85,46.85,0,0,0-3.78,9.94,39.57,39.57,0,0,0-.87,11c.09,3.78.36,7.68-.28,11.6a20.8,20.8,0,0,1-1.78,5.71c-.86,1.81-1.92,3.52-2.85,5.29a17.15,17.15,0,0,0-2,5.54,18.2,18.2,0,0,0,.09,5.8c.67,3.84,2.08,7.45,3.07,11.13a29,29,0,0,1,1.05,5.58,15.32,15.32,0,0,1-.5,5.57,16.67,16.67,0,0,1-.94,2.59c-.19.42-.42.81-.63,1.21a11.24,11.24,0,0,1-.69,1.17l-.75,1.12c-.26.37-.54.71-.81,1.07-.53.72-1.12,1.37-1.68,2-2.31,2.63-4.76,5-6.86,7.53a20.31,20.31,0,0,0-4.53,8.26c-.8,3-.34,6,.19,8.81s1.26,5.5,1.51,8.15a19.48,19.48,0,0,1,0,3.9,17.93,17.93,0,0,1-.86,3.59c-.78,2.26-1.79,4.27-2.62,6.19a25.31,25.31,0,0,0-1.84,5.49,13.1,13.1,0,0,0,.16,4.84,8.07,8.07,0,0,0,3.61,5.45A7.24,7.24,0,0,0,42.67,278.88Z" style="fill:#fff"></path><path d="M255.25,251.87l9.19-11.58,20-11.61s2.1,1.36-.52,4.8-11.58,10.81-11.58,10.81a13.09,13.09,0,0,1,4.22,1.77,9.4,9.4,0,0,1,2.19,3.8,6.76,6.76,0,0,1,1.57,6.32s1.23,2.51-.11,6.87c-.33,1.08-.66,2-1,2.76a5.86,5.86,0,0,1-4.74,3.59h0Z" style="fill:#ffbe9d"></path><path d="M106.15,204.87c0,.1-1.66-.47-4.4-.92a34.09,34.09,0,0,0-4.84-.42A35.5,35.5,0,0,0,91,204a36.64,36.64,0,0,0-5.76,1.47,33,33,0,0,0-4.45,1.95c-2.45,1.29-3.83,2.35-3.89,2.27a5.38,5.38,0,0,1,.93-.79A13.29,13.29,0,0,1,79,208c.47-.3,1-.66,1.61-1A31.12,31.12,0,0,1,85.07,205a34.11,34.11,0,0,1,5.83-1.54,34.51,34.51,0,0,1,6-.39,30.9,30.9,0,0,1,4.9.54c.69.11,1.3.29,1.84.42a13.61,13.61,0,0,1,1.36.41A5.59,5.59,0,0,1,106.15,204.87Z" style="fill:#263238"></path><path d="M93.63,206s19.38-1.9,29,10.75c8.32,11,20.8,34,27.62,39.22s36.56,22.35,36.56,22.35,49-11.47,53.68-14.37,14.47-12.24,14.47-12.24l19.6,17.81s-73.74,48-88.3,46.28c-8.38-1-35.9-12.87-57.78-22.78-23.24-10.54-39.9-32-43.46-57.3C83.29,223.48,85,210.2,93.63,206Z" style="fill:#FF725E"></path><path d="M188.62,293.75a9,9,0,0,1-.82-2.14,36.31,36.31,0,0,1-1.51-10.9,8.71,8.71,0,0,1,.21-2.28c.16,0,0,3.49.64,7.72S188.78,293.7,188.62,293.75Z" style="fill:#263238"></path><path d="M258.65,254.83a22.94,22.94,0,0,1-3.57,3.26,22.44,22.44,0,0,1-3.9,2.87,23.26,23.26,0,0,1,3.57-3.27A22.25,22.25,0,0,1,258.65,254.83Z" style="fill:#263238"></path><path d="M265.45,261.27a16.07,16.07,0,0,1-3,2.78,15.47,15.47,0,0,1-3.33,2.38,16.89,16.89,0,0,1,3-2.78A16.69,16.69,0,0,1,265.45,261.27Z" style="fill:#263238"></path><path d="M270.72,266.29a16.41,16.41,0,0,1-3.59,3.17,16.71,16.71,0,0,1-4.1,2.46,32.37,32.37,0,0,1,3.79-2.88A32.85,32.85,0,0,1,270.72,266.29Z" style="fill:#263238"></path><path d="M95.31,204.41a23.75,23.75,0,0,0-24.41,9.1,62,62,0,0,0-12.3,36.82c-.23,31.95,2.73,97.47,7.75,105.83l-7.77,25.48L150,373.73s-3.06-85.83-5.78-107.52c-1.87-15-16-36.93-24.53-49a27.76,27.76,0,0,0-16.51-11Z" style="fill:#FF725E"></path><path d="M73.51,380.35a17.52,17.52,0,0,1,.2-3.23,68.6,68.6,0,0,1,1.35-7.69A66.77,66.77,0,0,1,77.32,362a16.19,16.19,0,0,1,1.28-3,24.17,24.17,0,0,1-.93,3.1c-.6,1.89-1.4,4.52-2.1,7.48s-1.18,5.65-1.49,7.62A24.67,24.67,0,0,1,73.51,380.35Z" style="fill:#263238"></path><path d="M94.06,378.57a15.77,15.77,0,0,1-.13-3.1,48.84,48.84,0,0,1,2.49-14.72,15,15,0,0,1,1.15-2.89,24.12,24.12,0,0,1-.8,3,71.75,71.75,0,0,0-1.64,7.25,72.56,72.56,0,0,0-.83,7.39A23.3,23.3,0,0,1,94.06,378.57Z" style="fill:#263238"></path><path d="M117.17,376.57a90.49,90.49,0,0,1-.41-9.84,90.42,90.42,0,0,1,.12-9.84,95.46,95.46,0,0,1,.4,9.84A95.4,95.4,0,0,1,117.17,376.57Z" style="fill:#263238"></path><path d="M136.3,374.91a21,21,0,0,1-.22-3c-.1-1.88-.27-4.46-.64-7.3s-.85-5.38-1.23-7.22a20.49,20.49,0,0,1-.56-3,15.88,15.88,0,0,1,.92,2.91,61.38,61.38,0,0,1,1.39,7.24,62.81,62.81,0,0,1,.49,7.35A16,16,0,0,1,136.3,374.91Z" style="fill:#263238"></path><path d="M140.91,298.58a2.5,2.5,0,0,1-.55-.19l-1.53-.65c-1.33-.56-3.24-1.42-5.58-2.5-4.7-2.16-11.12-5.29-18.07-9s-13.14-7.31-17.55-10c-2.2-1.35-4-2.46-5.19-3.25l-1.39-.91a3.16,3.16,0,0,1-.46-.35,1.93,1.93,0,0,1,.52.26l1.44.83,5.27,3.1c4.46,2.61,10.65,6.14,17.6,9.86s13.34,6.88,18,9.13l5.51,2.65,1.5.73A2.27,2.27,0,0,1,140.91,298.58Z" style="fill:#263238"></path><path d="M101.7,278a22.1,22.1,0,0,1-3,.27,71.74,71.74,0,0,0-7.13.93,70.51,70.51,0,0,0-7,1.68,23.72,23.72,0,0,1-2.88.81,13.48,13.48,0,0,1,2.77-1.16,47.73,47.73,0,0,1,14.2-2.62A14.2,14.2,0,0,1,101.7,278Z" style="fill:#263238"></path><g style="opacity:0.30000000000000004"><path d="M92.31,272.77c8.92,13.16,24.5,22.13,40.4,22.28-13.64-7.64-26.76-14.64-40.4-22.28"></path></g></g><g id="Table"><path d="M473.42,481.93c0,.15-99.45.26-222.1.26s-222.12-.11-222.12-.26,99.43-.26,222.12-.26S473.42,481.79,473.42,481.93Z" style="fill:#263238"></path></g></svg>