<svg xmlns="http://www.w3.org/2000/svg" viewBox="0 0 500 500"><g id="background-complete"><circle cx="219.78" cy="139.77" r="95.19" transform="translate(-34.46 196.35) rotate(-45)" style="fill:#f5f5f5"></circle><polygon points="168.02 130.63 165.64 126.93 169.66 128.78 171.03 124.4 172.04 128.62 176.48 126.99 173.83 130.63 177.75 133 173.25 133 173.73 137.53 170.87 134.11 167.97 137.53 168.6 133.1 164.16 132.89 168.02 130.63" style="fill:#e0e0e0"></polygon><polygon points="265.92 85.98 263.54 82.29 267.56 84.14 268.94 79.76 269.94 83.98 274.38 82.34 271.74 85.98 275.65 88.36 271.15 88.36 271.63 92.89 268.78 89.46 265.87 92.89 266.5 88.46 262.06 88.25 265.92 85.98" style="fill:#e0e0e0"></polygon><polygon points="89.38 92.63 87.54 89.78 90.64 91.2 91.7 87.83 92.47 91.08 95.9 89.82 93.86 92.63 96.88 94.45 93.41 94.45 93.78 97.95 91.58 95.31 89.34 97.95 89.83 94.53 86.4 94.37 89.38 92.63" style="fill:#e0e0e0"></polygon><polygon points="134.86 166.72 133.5 164.61 135.79 165.66 136.58 163.17 137.15 165.57 139.68 164.64 138.17 166.72 140.4 168.07 137.84 168.07 138.11 170.65 136.49 168.7 134.83 170.65 135.19 168.13 132.66 168.01 134.86 166.72" style="fill:#e0e0e0"></polygon><polygon points="226.85 155.64 225.5 153.54 227.79 154.59 228.57 152.1 229.14 154.5 231.67 153.57 230.16 155.64 232.39 157 229.83 157 230.1 159.58 228.48 157.63 226.82 159.58 227.18 157.06 224.65 156.94 226.85 155.64" style="fill:#e0e0e0"></polygon><polygon points="243.53 101.01 242.17 98.91 244.46 99.96 245.24 97.47 245.81 99.87 248.34 98.94 246.84 101.01 249.07 102.36 246.51 102.36 246.78 104.94 245.15 102.99 243.5 104.94 243.86 102.42 241.33 102.3 243.53 101.01" style="fill:#e0e0e0"></polygon><polygon points="265.98 44.77 264.63 42.67 266.92 43.72 267.7 41.23 268.27 43.63 270.8 42.7 269.3 44.77 271.52 46.12 268.96 46.12 269.23 48.71 267.61 46.76 265.95 48.71 266.31 46.18 263.78 46.06 265.98 44.77" style="fill:#e0e0e0"></polygon><polygon points="330.62 95.03 329.27 92.93 331.56 93.98 332.34 91.48 332.91 93.89 335.44 92.96 333.93 95.03 336.16 96.38 333.6 96.38 333.87 98.96 332.25 97.01 330.59 98.96 330.95 96.44 328.42 96.32 330.62 95.03" style="fill:#e0e0e0"></polygon><polygon points="327.92 116.71 326.56 114.61 328.85 115.66 329.63 113.17 330.2 115.57 332.74 114.64 331.23 116.71 333.46 118.06 330.9 118.06 331.17 120.65 329.54 118.69 327.89 120.65 328.25 118.12 325.72 118 327.92 116.71" style="fill:#e0e0e0"></polygon><polygon points="236.19 44.58 234.83 42.48 237.12 43.53 237.91 41.03 238.48 43.44 241.01 42.51 239.5 44.58 241.73 45.93 239.17 45.93 239.44 48.51 237.81 46.56 236.16 48.51 236.52 45.99 233.99 45.87 236.19 44.58" style="fill:#e0e0e0"></polygon><polygon points="245.72 223.19 244.37 221.09 246.66 222.14 247.44 219.64 248.01 222.05 250.54 221.12 249.04 223.19 251.26 224.54 248.71 224.54 248.98 227.12 247.35 225.17 245.69 227.12 246.06 224.6 243.53 224.48 245.72 223.19" style="fill:#e0e0e0"></polygon><polygon points="129.68 93.16 128.33 91.06 130.62 92.11 131.4 89.61 131.97 92.02 134.5 91.08 132.99 93.16 135.22 94.51 132.66 94.51 132.93 97.09 131.31 95.14 129.65 97.09 130.01 94.57 127.48 94.45 129.68 93.16" style="fill:#e0e0e0"></polygon><path d="M234,45.87s.22,0,.64-.08l1.88-.19,7.27-.67,27-2.4.2,0,0,.2c-.68,12.08-1.51,26.89-2.45,43.52v.11l-.09.07L245.3,103.2l.1-.14c-2.82,10-5.8,20.47-8.87,31.28-2.2,7.75-4.35,15.35-6.45,22.73l-.08.28-.27-.12-59.2-26,.24,0L144.58,160l-7.2,7.89-1.89,2c-.43.46-.66.69-.66.69s.2-.25.62-.73l1.84-2.08,7.12-8,26.05-28.94.1-.11.14.06,59.24,25.87-.35.17L236,134.19c3.07-10.8,6.05-21.32,8.88-31.27l0-.08.07,0L268.14,86l-.09.18c1-16.63,1.86-31.44,2.58-43.52l.19.18-27,2.25-7.27.58-1.89.14C234.21,45.87,234,45.87,234,45.87Z" style="fill:#e0e0e0"></path><path d="M174.79,132.92l-.21-.15-.57-.47-2.18-1.86-8-6.89-26.09-22.9-8.28-7.3.16.06-27.19-.75-8-.27-2.13-.09a3.86,3.86,0,0,1-.74-.07,5.93,5.93,0,0,1,.74,0h2.14l8,.11,27.21.57h.09l.07.06,8.29,7.29c10.13,9,19.31,17.1,26,23l7.83,7,2.12,1.93.54.51C174.74,132.85,174.8,132.91,174.79,132.92Z" style="fill:#e0e0e0"></path><path d="M229.83,157c.14,0,4.48,15.05,9.69,33.7s9.32,33.8,9.19,33.84-4.48-15-9.69-33.7S229.7,157,229.83,157Z" style="fill:#e0e0e0"></path><path d="M263.63,86.32h.23l.68.05,2.61.25,9.6,1,31.62,3.48,23.21,2.66.21,0V94c-.44,6.46-.81,11.84-1.08,15.66l-.33,4.38c0,.47-.08.85-.11,1.15a1.69,1.69,0,0,1-.05.39s0-.13,0-.4,0-.68,0-1.15c.06-1.06.13-2.53.22-4.38.21-3.83.52-9.21.88-15.68l.2.24-23.22-2.58L276.71,88l-9.58-1.16-2.6-.34-.67-.1A.79.79,0,0,1,263.63,86.32Z" style="fill:#e0e0e0"></path><polygon points="422.3 95.19 418.94 90.96 424.07 92.72 425.21 87.19 426.96 92.23 432.18 89.68 429.41 94.46 434.48 96.88 428.99 97.44 430.14 102.93 426.23 99.09 423.1 103.65 423.32 98.15 417.88 98.44 422.3 95.19" style="fill:#ebebeb"></polygon><polygon points="40.19 145.5 36.83 141.28 41.97 143.04 43.1 137.51 44.85 142.55 50.07 140 47.3 144.78 52.37 147.2 46.88 147.76 48.03 153.25 44.12 149.41 40.99 153.97 41.21 148.47 35.76 148.76 40.19 145.5" style="fill:#ebebeb"></polygon><polygon points="412.96 233.33 409.6 229.11 414.73 230.87 415.87 225.34 417.62 230.38 422.84 227.82 420.06 232.61 425.14 235.02 419.65 235.58 420.8 241.08 416.88 237.24 413.76 241.79 413.98 236.29 408.53 236.59 412.96 233.33" style="fill:#ebebeb"></polygon><polygon points="206.93 386.77 203.56 382.55 208.7 384.31 209.83 378.78 211.58 383.82 216.8 381.26 214.03 386.05 219.1 388.47 213.61 389.03 214.76 394.52 210.85 390.68 207.72 395.24 207.94 389.74 202.5 390.03 206.93 386.77" style="fill:#ebebeb"></polygon><polygon points="77.59 280.6 74.22 276.37 79.36 278.13 80.49 272.6 82.25 277.64 87.47 275.09 84.69 279.87 89.77 282.29 84.28 282.85 85.42 288.34 81.51 284.5 78.39 289.06 78.61 283.56 73.16 283.85 77.59 280.6" style="fill:#ebebeb"></polygon></g><g id="background-simple"><path d="M388.2,79.71l-2.09-3.12C368.54,50.25,338.16,35.22,307,38.54a82,82,0,0,0-11.91,2.16C266.87,48,243,70.59,234,98.58c-5.33,16.46-6.22,35.19-17.12,48.54-14.18,17.38-39.46,19-61.73,19.26s-47.56,1.94-61.67,19.38c-8.84,10.92-11.14,26-9.79,40.08,3.59,37.23,31,69.47,64.8,84.64s72.78,15,108.65,6.12c50.26-12.4,97.27-42.54,124.38-87.13S413.39,125.5,388.2,79.71Z" style="fill:#f5f5f5"></path><circle cx="104.16" cy="98.68" r="24.39" transform="translate(-9.93 185.69) rotate(-80.78)" style="fill:#f5f5f5"></circle></g><g id="Floor"><path d="M480.59,443.86c0,.14-102.8.26-229.58.26s-229.6-.12-229.6-.26,102.78-.26,229.6-.26S480.59,443.71,480.59,443.86Z" style="fill:#263238"></path></g><g id="Plants"><path d="M220,412.93a6.48,6.48,0,0,1-.37,1.23c-.28.77-.64,1.9-1.06,3.31a59.28,59.28,0,0,0-2.14,22.68c.15,1.46.29,2.64.42,3.46a7.36,7.36,0,0,1,.13,1.27,5.58,5.58,0,0,1-.33-1.24c-.19-.8-.39-2-.58-3.45a52.38,52.38,0,0,1,2.15-22.83c.46-1.4.89-2.52,1.22-3.28A5.52,5.52,0,0,1,220,412.93Z" style="fill:#263238"></path><path d="M224.19,432a57.88,57.88,0,0,0-2.29,5.65,55,55,0,0,0-1.15,6A17,17,0,0,1,224.19,432Z" style="fill:#263238"></path><path d="M330.52,418a4.64,4.64,0,0,1,.81.78,25.15,25.15,0,0,1,2,2.34,38.62,38.62,0,0,1,7.58,18.52,28.65,28.65,0,0,1,.23,3.05,5.52,5.52,0,0,1,0,1.13c-.1,0-.17-1.59-.57-4.13a43.52,43.52,0,0,0-2.68-9.61,44.31,44.31,0,0,0-4.83-8.74C331.52,419.29,330.45,418.1,330.52,418Z" style="fill:#263238"></path><path d="M340,408.29a8,8,0,0,1,.53,1.33c.32.86.74,2.13,1.22,3.7a125.75,125.75,0,0,1,4.91,25.22c.15,1.64.24,3,.27,3.89a7.49,7.49,0,0,1,0,1.43,7.67,7.67,0,0,1-.2-1.42c-.12-1-.26-2.31-.43-3.86-.38-3.27-1-7.76-2-12.68s-2.07-9.31-2.94-12.48l-1.06-3.74A7.22,7.22,0,0,1,340,408.29Z" style="fill:#263238"></path><path d="M357.57,422a33,33,0,0,1-1.15,3.1,53.38,53.38,0,0,0-3.28,15.53c-.12,2-.12,3.3-.2,3.3a2.69,2.69,0,0,1-.12-.89c0-.57-.06-1.4-.05-2.43a42.84,42.84,0,0,1,.92-8,42.23,42.23,0,0,1,2.39-7.66c.4-1,.75-1.7,1-2.21A2.62,2.62,0,0,1,357.57,422Z" style="fill:#263238"></path><path d="M418.38,405.13a9.76,9.76,0,0,1-.18,1.57c-.15,1-.33,2.45-.51,4.25a74.81,74.81,0,0,0,2.48,27.92c.49,1.74.92,3.14,1.25,4.09a9.94,9.94,0,0,1,.45,1.51,8,8,0,0,1-.64-1.44c-.39-.94-.88-2.32-1.42-4a68.25,68.25,0,0,1-2.49-28.07c.23-1.81.47-3.26.68-4.25A8.72,8.72,0,0,1,418.38,405.13Z" style="fill:#263238"></path><path d="M431.75,427.85a25,25,0,0,0-4.44,16.43,8.59,8.59,0,0,1-.39-2.55,20,20,0,0,1,3.21-11.88A8.33,8.33,0,0,1,431.75,427.85Z" style="fill:#263238"></path><path d="M69.47,411.06a8,8,0,0,1,1.22.88A17.56,17.56,0,0,1,72,413.08c.51.47,1.11,1,1.71,1.62a41.24,41.24,0,0,1,4,4.66,41.66,41.66,0,0,1,6.45,13.45,40.09,40.09,0,0,1,1.16,6c.13.86.15,1.65.2,2.34s0,1.28,0,1.77a8.74,8.74,0,0,1-.07,1.5,7.89,7.89,0,0,1-.13-1.5c0-.48,0-1.07-.13-1.75s-.12-1.46-.27-2.31a44.78,44.78,0,0,0-1.26-5.92A47.94,47.94,0,0,0,81.06,426a47.72,47.72,0,0,0-3.75-6.38A44.93,44.93,0,0,0,73.48,415c-.57-.65-1.15-1.17-1.63-1.65s-.93-.89-1.29-1.2A10.56,10.56,0,0,1,69.47,411.06Z" style="fill:#263238"></path><path d="M66.5,430.53s.29,0,.79.18a15.61,15.61,0,0,1,2.07.79A23.08,23.08,0,0,1,80,441.27a16,16,0,0,1,1,2c.19.48.28.76.24.77s-.55-1-1.51-2.58a26.21,26.21,0,0,0-10.44-9.63C67.56,431,66.47,430.61,66.5,430.53Z" style="fill:#263238"></path><path d="M91.08,420.93c.14,0-.19,5.33-.73,11.88s-1.11,11.85-1.26,11.83.19-5.33.74-11.88S90.94,420.91,91.08,420.93Z" style="fill:#263238"></path></g><g id="Stars"><polygon points="129.01 42.43 125.65 38.2 130.79 39.96 131.92 34.44 133.67 39.47 138.89 36.92 136.12 41.7 141.19 44.12 135.7 44.68 136.85 50.17 132.94 46.33 129.81 50.89 130.03 45.39 124.58 45.69 129.01 42.43" style="fill:#FF725E"></polygon><path d="M126.05,42a51.14,51.14,0,0,1-5.41.16,50.32,50.32,0,0,1-5.41-.13,51.31,51.31,0,0,1,5.41-.16A50,50,0,0,1,126.05,42Z" style="fill:#263238"></path><path d="M129.16,38a49.63,49.63,0,0,1-2.78-4.48,47.43,47.43,0,0,1-2.53-4.63,49.63,49.63,0,0,1,2.78,4.48A47.43,47.43,0,0,1,129.16,38Z" style="fill:#263238"></path><path d="M124.64,52.23a11.81,11.81,0,0,1,1.22-2.37,11.74,11.74,0,0,1,1.48-2.23A12.55,12.55,0,0,1,126.12,50,12.61,12.61,0,0,1,124.64,52.23Z" style="fill:#263238"></path><path d="M134.15,58.9a35.5,35.5,0,0,1-.45-4.65,41.23,41.23,0,0,1-.17-4.67,36,36,0,0,1,.45,4.65A38.66,38.66,0,0,1,134.15,58.9Z" style="fill:#263238"></path><path d="M141.71,49.19a6.25,6.25,0,0,1-1.64-.95,6.9,6.9,0,0,1-1.47-1.18,5.88,5.88,0,0,1,1.64.94A5.93,5.93,0,0,1,141.71,49.19Z" style="fill:#263238"></path><path d="M150.09,39.87a49,49,0,0,1-5.43.61,53.5,53.5,0,0,1-5.45.32,52.11,52.11,0,0,1,5.43-.61C147.64,39.94,150.08,39.8,150.09,39.87Z" style="fill:#263238"></path><path d="M136.59,30.47a18.26,18.26,0,0,1-.82,3.18,18.66,18.66,0,0,1-1.1,3.1,19.15,19.15,0,0,1,.82-3.18A20.56,20.56,0,0,1,136.59,30.47Z" style="fill:#263238"></path><path d="M123,36.31a6.53,6.53,0,0,1-1.54-1.18,7,7,0,0,1-1.34-1.4,6.53,6.53,0,0,1,1.54,1.18A6.68,6.68,0,0,1,123,36.31Z" style="fill:#263238"></path><path d="M131.82,28.27a4.14,4.14,0,0,1,.16,1.51,4.06,4.06,0,0,1-.13,1.51,4.14,4.14,0,0,1-.16-1.51A4,4,0,0,1,131.82,28.27Z" style="fill:#263238"></path><path d="M143.23,32.6A5,5,0,0,1,142,33.67a4.48,4.48,0,0,1-1.36.84c-.05-.07.48-.55,1.19-1.07A4.48,4.48,0,0,1,143.23,32.6Z" style="fill:#263238"></path><path d="M146.78,46.11a8.44,8.44,0,0,1-3-1.06,4.41,4.41,0,0,1,1.54.39A4.33,4.33,0,0,1,146.78,46.11Z" style="fill:#263238"></path><path d="M137.93,54.93a3,3,0,0,1-.59-1.13,3,3,0,0,1-.33-1.24c.08,0,.34.48.6,1.13A2.89,2.89,0,0,1,137.93,54.93Z" style="fill:#263238"></path><path d="M128.31,55.18a4.3,4.3,0,0,1,.38-1.45,4.23,4.23,0,0,1,.65-1.35,3.72,3.72,0,0,1-.38,1.45A3.69,3.69,0,0,1,128.31,55.18Z" style="fill:#263238"></path><path d="M122.06,46.84a3.4,3.4,0,0,1-1.33.34,3.36,3.36,0,0,1-1.37.06,3.27,3.27,0,0,1,1.33-.34A3.37,3.37,0,0,1,122.06,46.84Z" style="fill:#263238"></path><polygon points="448.41 154.26 445.04 150.04 450.18 151.8 451.31 146.27 453.07 151.31 458.29 148.75 455.51 153.54 460.58 155.96 455.1 156.51 456.25 162.01 452.33 158.17 449.21 162.72 449.43 157.22 443.98 157.52 448.41 154.26" style="fill:#FF725E"></polygon><path d="M445.45,153.84A49.59,49.59,0,0,1,440,154a53.32,53.32,0,0,1-5.41-.13,48.11,48.11,0,0,1,5.41-.16A51.94,51.94,0,0,1,445.45,153.84Z" style="fill:#263238"></path><path d="M448.56,149.87a46.69,46.69,0,0,1-2.79-4.48,49.34,49.34,0,0,1-2.53-4.62,46.69,46.69,0,0,1,2.79,4.48A49.34,49.34,0,0,1,448.56,149.87Z" style="fill:#263238"></path><path d="M444,164.07a24.59,24.59,0,0,1,2.71-4.61,12.27,12.27,0,0,1-1.23,2.37A12.77,12.77,0,0,1,444,164.07Z" style="fill:#263238"></path><path d="M453.54,170.74a38.27,38.27,0,0,1-.45-4.65,37.34,37.34,0,0,1-.16-4.67,37.69,37.69,0,0,1,.45,4.65A37.3,37.3,0,0,1,453.54,170.74Z" style="fill:#263238"></path><path d="M461.11,161a5.88,5.88,0,0,1-1.64-.94,6.2,6.2,0,0,1-1.47-1.19,6.12,6.12,0,0,1,1.63,1A6.81,6.81,0,0,1,461.11,161Z" style="fill:#263238"></path><path d="M469.48,151.71a105.62,105.62,0,0,1-10.88.92A53,53,0,0,1,464,152,51.88,51.88,0,0,1,469.48,151.71Z" style="fill:#263238"></path><path d="M456,142.3a18,18,0,0,1-.82,3.18,19.33,19.33,0,0,1-1.1,3.1,18.26,18.26,0,0,1,.82-3.18A18.66,18.66,0,0,1,456,142.3Z" style="fill:#263238"></path><path d="M442.42,148.14a6.6,6.6,0,0,1-1.53-1.18,6.09,6.09,0,0,1-1.34-1.4,12.88,12.88,0,0,1,2.87,2.58Z" style="fill:#263238"></path><path d="M451.22,140.11a7.88,7.88,0,0,1,0,3,4.09,4.09,0,0,1-.16-1.51A4,4,0,0,1,451.22,140.11Z" style="fill:#263238"></path><path d="M462.62,144.43c.05.07-.48.55-1.18,1.07a4.75,4.75,0,0,1-1.36.84,4.56,4.56,0,0,1,1.18-1.07A4.48,4.48,0,0,1,462.62,144.43Z" style="fill:#263238"></path><path d="M466.17,157.94a4.31,4.31,0,0,1-1.54-.39,4.21,4.21,0,0,1-1.45-.67,4.47,4.47,0,0,1,1.54.4A4.55,4.55,0,0,1,466.17,157.94Z" style="fill:#263238"></path><path d="M457.33,166.77c-.08,0-.34-.48-.6-1.14a2.83,2.83,0,0,1-.32-1.24,5.91,5.91,0,0,1,.92,2.38Z" style="fill:#263238"></path><path d="M447.71,167a7.76,7.76,0,0,1,1-2.81,4.2,4.2,0,0,1-.38,1.45A4.35,4.35,0,0,1,447.71,167Z" style="fill:#263238"></path><path d="M441.45,158.67a6.23,6.23,0,0,1-2.7.4,6.66,6.66,0,0,1,2.7-.4Z" style="fill:#263238"></path><polygon points="312.38 220.25 310.13 217.42 313.56 218.6 314.32 214.9 315.5 218.27 318.99 216.56 317.13 219.76 320.53 221.38 316.86 221.75 317.62 225.43 315 222.86 312.91 225.91 313.06 222.23 309.41 222.43 312.38 220.25" style="fill:#FF725E"></polygon><polygon points="347.5 44.87 345.25 42.05 348.69 43.23 349.44 39.52 350.62 42.9 354.11 41.19 352.25 44.39 355.65 46.01 351.98 46.38 352.75 50.06 350.13 47.49 348.04 50.54 348.19 46.86 344.54 47.05 347.5 44.87" style="fill:#FF725E"></polygon><polygon points="62.25 214.59 57.88 209.12 64.54 211.4 66.01 204.23 68.28 210.76 75.05 207.45 71.45 213.65 78.03 216.79 70.92 217.51 72.4 224.63 67.33 219.65 63.28 225.56 63.57 218.43 56.51 218.81 62.25 214.59" style="fill:#FF725E"></polygon></g><g id="Character"><path d="M359.82,465c-1,0-9.14-1.61-12.84-2.48-17.42-4.12-52.3-9.63-63.16-9.59h-3.71a14.11,14.11,0,0,1-5.52-9.07c-2.44-14.32-26.38,0-26.38,0a27,27,0,0,1-11,9.07c-37.73,0-62.34.66-104.09,6.36l-6.43,2c-16.39,8.47,183.84,7.5,228.3,15.46C362.85,478.2,375.54,465.44,359.82,465Z" style="fill:#ebebeb"></path><path d="M228.13,205.94c3.07-6.14,22.25-49,22.25-49l-17.58-7.77-18.15-3.73-13,12.57L189,147.28a89.25,89.25,0,0,0-23.73,1.93s-6.35,33.67-7.12,43.26-.19,33-.19,33l-5.14,28.69-3,3.33,9.45,28.93,68.81-30.87-10-19.33,3.06-10.75S225.06,212.09,228.13,205.94Z" style="fill:#ffbf9d"></path><path d="M231,150.05s6.58-4.83,18.31,1,42.52,13.2,42.52,13.2a277.62,277.62,0,0,1,39.58,0h13.7l-2.26,15.06s-33.72,8-46,4.6-30.73-.31-38.09-1.23-23.8,4.05-23.8,4.05Z" style="fill:#ffbf9d"></path><path d="M258.17,182.62c0,.09-1.68,0-4.35.25a73.37,73.37,0,0,0-10.34,1.79,60.06,60.06,0,0,0-10,3.28c-2.46,1.09-3.77,2.12-3.83,2a5.58,5.58,0,0,1,.9-.76,20.82,20.82,0,0,1,2.78-1.61,50.24,50.24,0,0,1,10-3.46,61,61,0,0,1,10.44-1.65,29.46,29.46,0,0,1,3.21,0A4.78,4.78,0,0,1,258.17,182.62Z" style="fill:#ff9a6c"></path><path d="M330.21,172.76a98.18,98.18,0,0,1-10,.26,97.89,97.89,0,0,1-10-.26,94.57,94.57,0,0,1,10-.26A94.84,94.84,0,0,1,330.21,172.76Z" style="fill:#263238"></path><path d="M326.41,176.31a16,16,0,0,1,4.38-3.79l.22-.15,0,.46a16.76,16.76,0,0,1-4.78-2.75c.08-.13,2.18,1.1,5,2.27l.45.19-.42.27-.22.15C328.42,174.67,326.52,176.42,326.41,176.31Z" style="fill:#263238"></path><path d="M319.91,176.39a9.55,9.55,0,0,1-.45-3.43,9.83,9.83,0,0,1,.27-3.44A13.9,13.9,0,0,1,320,173,14.46,14.46,0,0,1,319.91,176.39Z" style="fill:#263238"></path><path d="M174.69,244.4a6.71,6.71,0,0,1,.13-2.67,7.05,7.05,0,0,1,.64-2.6,6.71,6.71,0,0,1-.13,2.67A7.05,7.05,0,0,1,174.69,244.4Z" style="fill:#ff9a6c"></path><path d="M197.73,241.63a69.07,69.07,0,0,0,.66-8.07,71.39,71.39,0,0,0-.81-8.06,8.5,8.5,0,0,1,.7,2.3,29.21,29.21,0,0,1,.63,5.75,28.21,28.21,0,0,1-.53,5.77A8.44,8.44,0,0,1,197.73,241.63Z" style="fill:#ff9a6c"></path><path d="M172.22,201.85a5.18,5.18,0,0,1-2.05,0,13.07,13.07,0,0,1-8.43-4.85,5.1,5.1,0,0,1-1-1.77,16.12,16.12,0,0,0,11.52,6.63Z" style="fill:#ff9a6c"></path><path d="M220.63,146.54,155.91,214l.58,11.45,75.41-76.84S225.93,144.93,220.63,146.54Z" style="fill:#455a64"></path><path d="M227.61,192.47a7.65,7.65,0,0,1-.78,1.08c-.26.34-.59.75-1,1.2s-.87,1-1.43,1.5a35.39,35.39,0,0,1-4.15,3.45,37.45,37.45,0,0,1-5.74,3.29,38.46,38.46,0,0,1-6.25,2.16,35.22,35.22,0,0,1-5.33.85c-.76.08-1.46.07-2.07.09a15,15,0,0,1-1.56,0,7.19,7.19,0,0,1-1.33-.13c0-.11,1.9,0,4.93-.3a36.79,36.79,0,0,0,5.24-.95,41,41,0,0,0,6.16-2.16,41.48,41.48,0,0,0,5.68-3.21,38.45,38.45,0,0,0,4.16-3.33C226.37,193.91,227.52,192.4,227.61,192.47Z" style="fill:#ff9a6c"></path><path d="M254.85,121c3.17-.64,5-3.94,6.31-6.88-3,.22-5.36-2.56-6.64-5.29s-2.07-6-4.54-7.71c-7.65-5.4-11.44,0-16.08-4.37a59,59,0,0,1-6.17-8.17q-.72-1.32-1.53-2.55l0,0a12,12,0,0,0-2.3-3A17.2,17.2,0,0,0,218,78.51c-5.45-2.44-12.16-3.48-17.17-.24-1.87,1.21-3.38,2.93-5.31,4-2.22,1.27-4.83,1.62-7.2,2.58a15.41,15.41,0,0,0-9.35,12c-.61,4.6,2.25,7.15,1.15,11.65-.74,3.06-3.58,4.34-4.38,11.14-.59,4.93,1.57,10.64,4.77,14.42,4.55,5.39,14.66,8.2,19.61,8.51,4.51.28,6.84-6,10.68-5.67-1,3.47-6.16,8.34-3.28,8.16,3.46-.21,1.14,0,4.35,1.33,1.74.69,14-2.32,15.84-2,5.05.83,9.48,1.7,11.19,1,1.12-.49,9.86-13,10.64-13.92l5.68-7a11.67,11.67,0,0,1-7.5-5.68C249.89,120.15,252.35,121.52,254.85,121Z" style="fill:#263238"></path><path d="M215,108a35.3,35.3,0,0,0,6.7-3.29,8.79,8.79,0,0,0,4-6L231,110.89a20.8,20.8,0,0,1-23.74,21.58c-1.54-.22-3.37-.52-4.44.61-.63.66-.94,1.78-1.84,1.94-.74.14-1.39-.48-1.89-1.05q-3.16-3.63-6.35-7.25C197.45,118.05,205.88,111.89,215,108Z" style="fill:#263238"></path><path d="M227.51,103A20.73,20.73,0,0,0,208,82.77L207,82.71c-11.59,0-18.08,9.82-17.77,21.41l-.67,46.35h0l25.82,11.88,1.1-20.66s11.21-1.06,12-12.16C227.83,124.17,227.72,113.07,227.51,103Z" style="fill:#ffbf9d"></path><path d="M215.53,141.68a27,27,0,0,1-14.3-5.12s3,8.19,14.09,7.85Z" style="fill:#ff9a6c"></path><path d="M190.36,112.44c-.18-.09-7.49-2.71-7.7,4.9s7.47,6.25,7.49,6S190.36,112.44,190.36,112.44Z" style="fill:#ffbf9d"></path><path d="M188.57,120.46s-.13.09-.36.19a1.34,1.34,0,0,1-1,0,3.27,3.27,0,0,1-1.44-3,4.38,4.38,0,0,1,.43-1.89,1.5,1.5,0,0,1,1-1,.67.67,0,0,1,.77.38c.1.22.05.37.09.38s.16-.12.11-.43a.82.82,0,0,0-.29-.49,1,1,0,0,0-.72-.21,1.86,1.86,0,0,0-1.42,1.14,4.48,4.48,0,0,0-.52,2.11c0,1.53.75,3,1.84,3.33a1.41,1.41,0,0,0,1.22-.16C188.55,120.64,188.6,120.47,188.57,120.46Z" style="fill:#ff9a6c"></path><path d="M197.06,89.84h0a.75.75,0,0,0,.15,0Z" style="fill:#263238"></path><path d="M212.83,121.47a11.21,11.21,0,0,1,2.84-.36c.44,0,.87-.09,1-.39a2.27,2.27,0,0,0-.23-1.33c-.35-1.09-.73-2.23-1.12-3.44-1.56-4.89-2.67-8.91-2.47-9s1.62,3.86,3.18,8.75c.38,1.21.73,2.36,1.07,3.46a2.58,2.58,0,0,1,.14,1.75,1.1,1.1,0,0,1-.76.61,3,3,0,0,1-.76.06A12.18,12.18,0,0,1,212.83,121.47Z" style="fill:#263238"></path><path d="M207.66,122.39c.28,0,.19,1.88,1.73,3.3s3.55,1.33,3.55,1.59-.47.34-1.31.32a4.74,4.74,0,0,1-3-1.22,4.1,4.1,0,0,1-1.32-2.76C207.3,122.83,207.53,122.37,207.66,122.39Z" style="fill:#263238"></path><path d="M208.67,101.72c-.2.47-1.92.15-4,.29s-3.72.6-4,.16c-.11-.21.2-.64.89-1.06a7,7,0,0,1,6-.34C208.4,101.11,208.75,101.5,208.67,101.72Z" style="fill:#263238"></path><path d="M223.92,102.22c-.39.37-1.81-.11-3.54-.22s-3.23.09-3.54-.34c-.14-.21.11-.59.77-.93a5.75,5.75,0,0,1,2.93-.49,5.67,5.67,0,0,1,2.78.94C223.92,101.62,224.1,102,223.92,102.22Z" style="fill:#263238"></path><path d="M204.7,112.89a1.57,1.57,0,0,0,1.61,1.51,1.51,1.51,0,0,0,1.55-1.51,1.59,1.59,0,0,0-1.61-1.51A1.51,1.51,0,0,0,204.7,112.89Z" style="fill:#263238"></path><path d="M200.91,108.52c.21.2,1.36-.75,3.06-.84s3,.7,3.16.48-.14-.46-.7-.82a4.33,4.33,0,0,0-2.55-.64,4.12,4.12,0,0,0-2.41.93C201,108.05,200.81,108.44,200.91,108.52Z" style="fill:#263238"></path><path d="M220.38,112.89A1.57,1.57,0,0,0,222,114.4a1.51,1.51,0,0,0,1.55-1.51,1.59,1.59,0,0,0-1.61-1.51A1.51,1.51,0,0,0,220.38,112.89Z" style="fill:#263238"></path><path d="M217.75,108.52c.21.2,1.36-.75,3.06-.84s3,.7,3.16.48-.13-.46-.7-.82a4.33,4.33,0,0,0-2.55-.64,4.12,4.12,0,0,0-2.41.93C217.81,108.05,217.65,108.44,217.75,108.52Z" style="fill:#263238"></path><path d="M227.21,91.83c-1.77-6.2-3.06-10.63-9.39-11.89S208.6,76,202.63,78.48c-1.87.77-7.7,5.22-7.86,8.41,0,.18,0,.09,0,.09A13.11,13.11,0,0,0,191,88.26a9.68,9.68,0,0,0-3.94,5c-.66,1.81-.07,3.77-.38,5.67l.52,2.78-2,1.88c-1.22,2.57,3.4,12,5.54,14a5.13,5.13,0,0,0,.16.49l.4,0c.94.73,2,1.29,2.93,2a4.06,4.06,0,0,1,1.77,3.61c1.49-1,1.57-3.21,1-4.92s-2.48-3.54-3.28-5.16a8.08,8.08,0,0,1-.47-1.13l0-2.54a6.44,6.44,0,0,1,.54-1c.87-1.4,1.11-1.88,1.75-2.82a9,9,0,0,0,.52-.75c1.51-2.09,4.78-11.72,4.88-15.36.31-1.39.07-2.37,1.55-2.79a9.17,9.17,0,0,1,6.87.48c2.37,1.3,2.91,2.49,6.43,3.16,0,0,6.35-.21,8.1,3.21s2.16,6,3.18,9.58c.68,2.41.83,4.63,2,6.84s2,4.83,1.18,7.19C231.7,113.27,236.42,98.59,227.21,91.83Z" style="fill:#263238"></path><path d="M265.41,104.63c.14,0,.38,1-.43,2.43a5.82,5.82,0,0,1-2.12,2.1,5.92,5.92,0,0,1-4,.81,6.92,6.92,0,0,1-4.18-2.69,32.86,32.86,0,0,1-2.7-4.42,8.46,8.46,0,0,0-3.1-3.58c-1.27-.73-3-.57-4.94-.14s-4,1.07-6.31.74a6.56,6.56,0,0,1-3.17-1.39,9.33,9.33,0,0,1-2-2.35c-1-1.64-1.66-3.06-2.49-4.36s-1.62-2.47-2.41-3.51c-3.17-4.16-5.74-6.28-5.48-6.6s3.19,1.37,6.9,5.42a36,36,0,0,1,2.79,3.5c.95,1.3,1.8,2.88,2.69,4.23A7.64,7.64,0,0,0,236,96.55a4,4,0,0,0,2,.8c1.51.22,3.37-.32,5.41-.76a16.15,16.15,0,0,1,3.26-.41,6.89,6.89,0,0,1,3.42.85,7.76,7.76,0,0,1,2.49,2.2,17.35,17.35,0,0,1,1.52,2.49,36.88,36.88,0,0,0,2.31,4.25,5.22,5.22,0,0,0,2.82,2.2,4.68,4.68,0,0,0,3-.3,5.52,5.52,0,0,0,2-1.4C265.06,105.44,265.2,104.59,265.41,104.63Z" style="fill:#263238"></path><path d="M210.79,84a15.4,15.4,0,0,0-12,3,4.69,4.69,0,0,1,1.37-1.32,12.13,12.13,0,0,1,4.16-2,12.26,12.26,0,0,1,4.59-.27A4.65,4.65,0,0,1,210.79,84Z" style="fill:#455a64"></path><path d="M256.53,117.51a2.18,2.18,0,0,1-.78.3,3.85,3.85,0,0,1-2.35-.32,5.58,5.58,0,0,1-2.62-2.68,24.8,24.8,0,0,1-1.53-4.73,8,8,0,0,0-3-4.86,6.73,6.73,0,0,0-3-1.12,8.29,8.29,0,0,0-3.4.47,9,9,0,0,1-3.76.52,7.32,7.32,0,0,1-3.62-1.63,11.47,11.47,0,0,1-2.64-3.14,19.39,19.39,0,0,1-1.64-3.86c-.87-2.67-1.49-5.35-2.77-7.63a17.41,17.41,0,0,0-4.92-5.58,17.63,17.63,0,0,0-6.1-2.92,16.94,16.94,0,0,0-5.89-.4,18.4,18.4,0,0,0-8,2.86,21.64,21.64,0,0,0-1.88,1.42,5.79,5.79,0,0,1-.63.52,4.25,4.25,0,0,1,.56-.6,17.14,17.14,0,0,1,1.84-1.51,18.08,18.08,0,0,1,8.12-3.06,17.19,17.19,0,0,1,6,.35,18.14,18.14,0,0,1,11.37,8.68c1.33,2.35,2,5.07,2.81,7.71a20,20,0,0,0,1.59,3.76,11.12,11.12,0,0,0,2.52,3,6.81,6.81,0,0,0,3.37,1.53,8.34,8.34,0,0,0,3.56-.48,8.59,8.59,0,0,1,3.58-.46,7,7,0,0,1,3.2,1.21,6.85,6.85,0,0,1,2.12,2.38,12.57,12.57,0,0,1,1,2.74,24.54,24.54,0,0,0,1.43,4.7,5.34,5.34,0,0,0,2.45,2.62,3.76,3.76,0,0,0,2.25.4C256.26,117.62,256.52,117.48,256.53,117.51Z" style="fill:#455a64"></path><path d="M180.86,132.81a2.44,2.44,0,0,1-.38-.39,9.87,9.87,0,0,1-1-1.21A16.59,16.59,0,0,1,177,126a18.26,18.26,0,0,1-.39-8.48,16.73,16.73,0,0,1,1.69-4.77,19.89,19.89,0,0,1,3.21-4.37c2.55-2.7,5.37-4.81,7.69-7a24.05,24.05,0,0,0,5.21-6.54A12.84,12.84,0,0,0,196,89.51c0-1.33-.15-2.07-.09-2.08A1.89,1.89,0,0,1,196,88a8.64,8.64,0,0,1,.15,1.55,12.43,12.43,0,0,1-1.39,5.56,23.53,23.53,0,0,1-5.2,6.72c-2.32,2.21-5.13,4.33-7.64,7a17.73,17.73,0,0,0-4.81,8.87,18.42,18.42,0,0,0,.27,8.29,17.71,17.71,0,0,0,2.29,5.16c.35.57.68,1,.89,1.26S180.88,132.8,180.86,132.81Z" style="fill:#455a64"></path><path d="M246.59,130a2.29,2.29,0,0,1-.73.08,11.68,11.68,0,0,1-2-.1,16.87,16.87,0,0,1-11.14-6.42,12.65,12.65,0,0,1-1.08-1.67c-.22-.42-.32-.66-.29-.68s.59.85,1.66,2.12a18.64,18.64,0,0,0,10.91,6.29C245.55,129.86,246.59,129.86,246.59,130Z" style="fill:#455a64"></path><path d="M253.54,124.9a2.53,2.53,0,0,1-.86.1,17.09,17.09,0,0,1-2.36-.07,23.58,23.58,0,0,1-14-6.3,17.36,17.36,0,0,1-1.62-1.72c-.34-.44-.52-.69-.49-.71s.87.87,2.35,2.16a26.34,26.34,0,0,0,13.8,6.21C252.31,124.83,253.54,124.81,253.54,124.9Z" style="fill:#455a64"></path><path d="M171.34,115.87c-.14.08-.57-.28-.9-1.22a6.22,6.22,0,0,1,.21-4.1,9.43,9.43,0,0,1,1.41-2.5,13,13,0,0,1,2.32-2.24c1.76-1.37,3.85-2.43,5.7-3.72a28.66,28.66,0,0,0,8-8.56c1.6-2.6,2.32-4.43,2.7-4.32s.22,2.14-1.07,5.17a23.4,23.4,0,0,1-8.12,9.84c-2.1,1.46-4.17,2.42-5.78,3.53a10.12,10.12,0,0,0-3.45,3.55,6.82,6.82,0,0,0-.91,3.18C171.42,115.29,171.52,115.79,171.34,115.87Z" style="fill:#263238"></path><path d="M124.85,448.43c-3,3.21-4.57,8-5.58,13.39,10.38,2.32,20,5.12,28.17,1.89h0c-2.52-4.87-3.53-12.18,0-15.68l0,0Z" style="fill:#263238"></path><path d="M244.77,323c-.42,1.69-2.53,16.89,3,30.82s34.62,17.74,34.62,17.74,6.34,8.87,5.49,13.93S268,423.94,268,423.94l-11,7.18,19.84,6.75S290,401.14,302.62,391,309,373.69,309,373.69s-13.09.42-16.46-16.47S305.15,323,305.15,323l-9.29-21.54Z" style="fill:#FF725E"></path><path d="M244.77,323c-.42,1.69-2.53,16.89,3,30.82s34.62,17.74,34.62,17.74,6.34,8.87,5.49,13.93S268,423.94,268,423.94l-11,7.18,19.84,6.75S290,401.14,302.62,391,309,373.69,309,373.69s-13.09.42-16.46-16.47S305.15,323,305.15,323l-9.29-21.54Z" style="opacity:0.30000000000000004"></path><path d="M159.47,290.08a88.06,88.06,0,0,0,0,25.76C161.58,330,164.66,346,164.66,346l-7.23,35.42S145.37,396.11,145,398.22s-9.55,40.5-20.1,50.21l15.74-.23,6.85-.19a129.18,129.18,0,0,1,6.12-27c4.65-12.66,21.11-27.87,22.38-30.4s7.6-17.31,9.71-21.54,30.41-29.13,30.41-29.13l8.44-23.23s8.45-15.62,8-17.73-7.17-31.67-7.17-31.67Z" style="fill:#FF725E"></path><path d="M135.4,297.26S99.51,338.64,96.13,345s0,18.15,0,18.15,7.18,1.27,10.56,15.63,4.65,18.15,4.65,18.15,9.71-3.8,13.51,6.76l6.75-11-3.41-13.51s-15.59-3.38-16.85-15.62.84-13.09.84-13.09l48.89-27.1-7.09-35Z" style="fill:#FF725E"></path><path d="M443.22,317.72c5-4.3,3.83-14-2-16.9.69,8.7-7.39,16.26-15.71,16.77s-16.2-4.51-21.75-11-9.27-14.46-13.45-22-9.09-15-16.18-19.61-16.83-5.65-23.55-.49l2.75,6c6.91-.84,13,5.26,15.64,12s2.74,14.22,4.23,21.33c4.38,20.9,21.55,38.2,41.66,42a21.51,21.51,0,0,1-9-13.1,26.77,26.77,0,0,0,26.83,3.83c8.76-3.71,15.36-12.5,16.75-22.28Z" style="fill:#263238"></path><path d="M372.72,365.85c-13.24-10.9-22-24.91-22-34.2s11-38,9.29-54.9-19.85-27-35.89-32.51-65.45,5.06-79.81,6.75-22.13-6.82-22.13-6.82L161.07,281.3l-7.31-33.8c-7.73,6.83-19.13,24.83-20.47,28.83-1.69,5.07-.35,19.81.07,24.88s5,11.86,5,11.86c10.13,17.73,53.21,33.78,53.21,33.78l26.6.84c54.05,3.38,64.18-13.93,64.18-13.93s16-11.4,22.8,1.26S328,360.78,333,364.16s22,22.38,22,22.38,5.15,31.69,6.34,48.14c1.07,14.95-10.47,30.36-10.47,30.36l17.52-1.33c.42-12.67,7.3-17.21,7.3-17.21l.42-69.25S375.85,368.42,372.72,365.85Z" style="fill:#FF725E"></path><path d="M345.07,473.63c-.29-.46,5.78-8.59,5.78-8.59l17.52-1.33,2.53,9S349.93,481.43,345.07,473.63Z" style="fill:#263238"></path><path d="M248.21,443.91a88.07,88.07,0,0,1,9-13.27l20.39,5.18-3,8.09Z" style="fill:#263238"></path><path d="M162.41,333.68s-.17-.06-.46-.23l-1.24-.73c-1.06-.66-2.61-1.61-4.47-2.85s-4.06-2.77-6.42-4.56a72,72,0,0,1-7.22-6.41,43.47,43.47,0,0,1-5.87-7.68,27.41,27.41,0,0,1-1.83-3.81,15.9,15.9,0,0,1-.67-1.8c-.16-.59-.32-1.16-.46-1.71a8.52,8.52,0,0,1-.34-1.57c-.06-.5-.13-1-.19-1.42a12,12,0,0,1-.14-2.28c0-.58,0-1.05,0-1.45a1.77,1.77,0,0,1,0-.5,1.77,1.77,0,0,1,.06.51c0,.38.05.86.08,1.43a12.69,12.69,0,0,0,.23,2.26c.07.44.15.9.23,1.39a9.22,9.22,0,0,0,.36,1.54l.49,1.68a16.36,16.36,0,0,0,.69,1.76,29.18,29.18,0,0,0,1.84,3.73,44.75,44.75,0,0,0,5.83,7.56,79.2,79.2,0,0,0,7.14,6.39c2.34,1.8,4.49,3.38,6.33,4.64s3.35,2.27,4.38,3c.48.32.87.59,1.19.82A2.22,2.22,0,0,1,162.41,333.68Z" style="fill:#263238"></path><path d="M171.69,295.59a11.85,11.85,0,0,1-.83,1.53l-2.38,4.09c-1.93,3.46-4.62,8.37-5.74,14.35a51.08,51.08,0,0,0-.48,15.47c.21,2,.45,3.58.61,4.69a13.9,13.9,0,0,1,.21,1.72s-.07-.14-.14-.43-.16-.76-.27-1.26c-.22-1.09-.51-2.69-.77-4.67a48.09,48.09,0,0,1,.33-15.62A44.72,44.72,0,0,1,168.16,301c1-1.72,1.91-3.08,2.52-4A11.17,11.17,0,0,1,171.69,295.59Z" style="fill:#263238"></path><path d="M233.44,281.84a1.1,1.1,0,0,1,.09.26c.06.2.14.44.23.75s.21.76.35,1.24.23,1.08.36,1.72a37,37,0,0,1,.41,11.16,39.06,39.06,0,0,1-5.21,15.69,37.9,37.9,0,0,1-6.06,7.72c-2.39,2.43-5.05,4.74-7.4,7.44a21.25,21.25,0,0,0-4.94,9c-.85,3.24-1.24,6.58-2.69,9.43a15.87,15.87,0,0,1-2.79,3.67c-1,1.08-2.09,2-3.13,3-2.08,1.84-4.07,3.49-5.86,5a97.14,97.14,0,0,0-8.17,7.59c-.89,1-1.57,1.73-2,2.27l-.51.6a2,2,0,0,1-.19.2s0-.08.14-.23l.48-.63c.4-.57,1.06-1.36,1.93-2.35a88.31,88.31,0,0,1,8.08-7.73c1.78-1.55,3.76-3.21,5.82-5.06,1-.93,2.08-1.89,3.08-3a15.55,15.55,0,0,0,2.7-3.56c1.38-2.76,1.76-6.06,2.62-9.35a20,20,0,0,1,1.91-4.87,25.88,25.88,0,0,1,3.13-4.37c2.38-2.73,5.05-5,7.43-7.45a38.16,38.16,0,0,0,6-7.6,39.4,39.4,0,0,0,5.26-15.49,38.55,38.55,0,0,0-.25-11.08c-.12-.64-.22-1.22-.31-1.72l-.3-1.25-.18-.77A.76.76,0,0,1,233.44,281.84Z" style="fill:#263238"></path><path d="M309.07,329.45c0,.1-1.44-.36-3.79-.72a31.78,31.78,0,0,0-4.16-.35,34,34,0,0,0-5.08.34,33.09,33.09,0,0,0-5,1.19,31.74,31.74,0,0,0-3.86,1.56c-2.13,1-3.35,1.9-3.4,1.82a4.21,4.21,0,0,1,.81-.66,21,21,0,0,1,2.43-1.49,26.23,26.23,0,0,1,3.87-1.69,28.54,28.54,0,0,1,10.21-1.55,26.44,26.44,0,0,1,4.2.47,20,20,0,0,1,2.76.7A4.27,4.27,0,0,1,309.07,329.45Z" style="fill:#263238"></path><path d="M430.6,296.77c.1-.07,1,1.39.61,4.24a11.35,11.35,0,0,1-1.85,4.78,12.58,12.58,0,0,1-5.18,4.49,16.06,16.06,0,0,1-8.18,1.37,21.65,21.65,0,0,1-9-2.85,32,32,0,0,1-8-6.55,59.07,59.07,0,0,1-6.43-8.86c-3.81-6.4-6.8-12.7-10.46-17.75-.91-1.26-1.84-2.45-2.8-3.55a22.57,22.57,0,0,0-3.06-2.83,33.25,33.25,0,0,0-6.54-3.9,33.94,33.94,0,0,0-10.69-3c-2.62-.25-4.1,0-4.14-.24s1.42-.72,4.18-.78a30.1,30.1,0,0,1,11.37,2.32,33.42,33.42,0,0,1,7.11,3.87,23.61,23.61,0,0,1,3.46,3,46.54,46.54,0,0,1,3.05,3.68c3.93,5.21,7,11.59,10.75,17.81a60.16,60.16,0,0,0,6.1,8.51,30.38,30.38,0,0,0,7.29,6.17c5.18,3.14,11.11,3.65,15.24,1.88a11.78,11.78,0,0,0,6.79-7.78C430.83,298.31,430.37,296.81,430.6,296.77Z" style="fill:#263238"></path><g style="opacity:0.30000000000000004"><path d="M232.31,308a51.28,51.28,0,0,1-11.52,14.7,38.09,38.09,0,0,0-7.29,8.52c-3.24,5.27-3.05,11.1-6.09,16.71a13.76,13.76,0,0,0,8-8.25c.64-1.83.89-3.8,1.78-5.51,1.36-2.6,4-4.23,6.25-6.07a26.14,26.14,0,0,0,7.16-8.89A19.21,19.21,0,0,0,232.31,308Z"></path></g><path d="M129.8,303.76s-1.51,9.09,4.67,14.09,16.08,11.35,16.08,11.35l3.17-1.66a48.75,48.75,0,0,1-15.79-14.76c-4.85-7.35-4.71-13-4.71-13Z" style="opacity:0.30000000000000004"></path><path d="M192.28,315a11.47,11.47,0,0,1-.31,4.61,11.68,11.68,0,0,1-1.63,4.31c-.15-.06.6-2,1.13-4.42S192.12,315,192.28,315Z" style="fill:#263238"></path><path d="M194.77,314.52a17.45,17.45,0,0,1-2.48,8.18,39.82,39.82,0,0,1,1.25-4.09A38,38,0,0,1,194.77,314.52Z" style="fill:#263238"></path><path d="M201,310.56a14.59,14.59,0,0,1-1.52,4.85,14.82,14.82,0,0,1-2.69,4.32c-.13-.09,1.06-2,2.21-4.54S200.81,310.52,201,310.56Z" style="fill:#263238"></path><path d="M309.68,307.59a13.81,13.81,0,0,1-7.18-8.17,44.8,44.8,0,0,0,3.14,4.48A46.93,46.93,0,0,0,309.68,307.59Z" style="fill:#263238"></path><path d="M313.46,308.26a12.62,12.62,0,0,1-3.75-3.43,12.86,12.86,0,0,1-2.55-4.4c.14-.07,1.21,1.92,3,4.07S313.56,308.14,313.46,308.26Z" style="fill:#263238"></path><path d="M322.82,311a7.9,7.9,0,0,1-2.09-.9,30.13,30.13,0,0,1-4.58-3,28.94,28.94,0,0,1-3.93-3.83,7.71,7.71,0,0,1-1.33-1.85c.12-.1,2.28,2.62,5.59,5.27S322.89,310.9,322.82,311Z" style="fill:#263238"></path><path d="M358.47,376.93a10.66,10.66,0,0,1-3.82-2,10.85,10.85,0,0,1-3.11-3c.1-.11,1.5,1.19,3.41,2.55S358.54,376.8,358.47,376.93Z" style="fill:#263238"></path><path d="M361.44,375.94a12.26,12.26,0,0,1-4.42-2.35,12.09,12.09,0,0,1-3.5-3.59c.11-.1,1.62,1.54,3.81,3.17S361.51,375.8,361.44,375.94Z" style="fill:#263238"></path><path d="M364.37,378.21a36.78,36.78,0,0,1-6-6.42,18.17,18.17,0,0,1,3.17,3A18.38,18.38,0,0,1,364.37,378.21Z" style="fill:#263238"></path><path d="M102.54,346.13a30.5,30.5,0,0,1,3.24-7.29,15.68,15.68,0,0,1-1.38,3.75A15.83,15.83,0,0,1,102.54,346.13Z" style="fill:#263238"></path><path d="M105.57,347a11.34,11.34,0,0,1,2.17-7.08c.14.08-.6,1.57-1.18,3.51S105.72,347.06,105.57,347Z" style="fill:#263238"></path><path d="M108.62,347.32a10,10,0,0,1,.59-3.18,10.13,10.13,0,0,1,1.1-3,20.55,20.55,0,0,1-1.69,6.21Z" style="fill:#263238"></path><polygon points="124.85 403.67 126.87 416.06 135.92 397.3 131.33 391.62 124.85 403.67" style="fill:#263238"></polygon><path d="M275.84,44.63a19.85,19.85,0,0,0-.51,7,14.25,14.25,0,0,0,2.44,6.4,17.22,17.22,0,0,0,5,4.64,22.36,22.36,0,0,0,3,1.56c.53.22,1.06.43,1.58.59l1.7.52a105.42,105.42,0,0,1,26.32,11.82,93.49,93.49,0,0,1,22,19,90.61,90.61,0,0,1,8.53,11.92c1.25,2.11,2.41,4.28,3.46,6.51.52,1.12,1,2.24,1.5,3.4s.9,2.27,1.32,3.62l.51,1.66-1.4,1.19-7.35,6.22.33-4c1.16,1.36,2.13,2.63,3.11,4s1.89,2.71,2.77,4.11a72.28,72.28,0,0,1,4.66,8.79,54.35,54.35,0,0,1,3.26,9.53,42.16,42.16,0,0,1,.9,5c.11.85.17,1.71.22,2.57,0,.43,0,.86,0,1.29s0,.87.06,1.25-.05.8-.05,1.24,0,.86,0,1.29c-.06.86-.11,1.72-.23,2.57a40.25,40.25,0,0,1-.9,5,54.07,54.07,0,0,1-3.26,9.53,71.55,71.55,0,0,1-4.66,8.79q-1.32,2.1-2.77,4.11c-1,1.36-1.94,2.62-3.11,4l-.33-4,7.35,6.22,1.4,1.19-.51,1.66c-.42,1.35-.84,2.45-1.32,3.62s-1,2.28-1.5,3.4c-1.05,2.23-2.21,4.4-3.46,6.51a90.61,90.61,0,0,1-8.53,11.92,93.84,93.84,0,0,1-22,19,105.75,105.75,0,0,1-26.32,11.81l-1.7.53a14.23,14.23,0,0,0-1.57.58,21.79,21.79,0,0,0-3,1.56,17.13,17.13,0,0,0-5,4.64,14.25,14.25,0,0,0-2.44,6.4,19.85,19.85,0,0,0,.51,7,20.07,20.07,0,0,1-1.12-7.07,14.55,14.55,0,0,1,2.06-7,21,21,0,0,1,11.62-8.7,109.11,109.11,0,0,0,12.92-5.65c1-.56,2.09-1.05,3.11-1.64l3.05-1.74,3-1.85c1-.62,1.94-1.31,2.91-1.95a96.21,96.21,0,0,0,20.32-19,88.21,88.21,0,0,0,7.7-11.52q1.71-3,3.12-6.15c.46-1,.91-2.1,1.31-3.16s.81-2.17,1.07-3.1l.89,2.86-7.47-6.08-2.19-1.78,1.85-2.26c.89-1.08,1.83-2.37,2.69-3.61s1.69-2.54,2.48-3.85a65.54,65.54,0,0,0,4.23-8.09,49.29,49.29,0,0,0,2.85-8.52,34.56,34.56,0,0,0,.75-4.36,26.71,26.71,0,0,0,.18-4.41,28,28,0,0,0-.17-4.42,34.6,34.6,0,0,0-.76-4.36,49.29,49.29,0,0,0-2.85-8.52,65.54,65.54,0,0,0-4.23-8.09q-1.17-2-2.48-3.86c-.86-1.24-1.8-2.52-2.69-3.6l-1.85-2.26,2.19-1.78,7.47-6.07-.89,2.85c-.26-.93-.66-2.07-1.06-3.1s-.86-2.11-1.32-3.16q-1.41-3.14-3.12-6.15a88.21,88.21,0,0,0-7.7-11.52,96.4,96.4,0,0,0-20.31-19c-1-.65-1.92-1.33-2.92-2l-3-1.86-3.06-1.73c-1-.59-2.08-1.09-3.11-1.64a109.11,109.11,0,0,0-12.92-5.65,21,21,0,0,1-11.62-8.7,14.66,14.66,0,0,1-2.06-7A20.07,20.07,0,0,1,275.84,44.63Z" style="fill:#455a64"></path><path d="M358.55,157.11s6.34.53,6.64,2.62S362.7,165,362.7,165a2.39,2.39,0,0,1,2.51,2.29c.38,2.49-2.5,3.39-2.5,3.39s4.07.69,3.67,3S361.7,176,361.7,176s1.23.42.53,2.51-4.7,2-4.7,2a3.59,3.59,0,0,1-3.39-3.48s-4-1-3.38-3.09,1.49-2,1.49-2a3,3,0,0,1-.9-2.84,5.89,5.89,0,0,1,1.5-3.36l6.24-5.88Z" style="fill:#ffbf9d"></path><path d="M282.42,265.81s-.14-.17-.37-.51L281,263.76l-4-5.95L262.5,235.89l-47.76-72.45-.63-.94-.09-.15.1-.15,50.39-69.73,15.3-21.06C281.61,68.94,283,67,284,65.7l1.09-1.48c.25-.33.39-.49.39-.49s-.11.18-.35.52-.59.86-1.05,1.51L280,71.52c-3.59,5-8.76,12.24-15.16,21.16l-50.27,69.83v-.3l.62.94,47.64,72.53,14.39,22,3.89,6,1,1.57Z" style="fill:#263238"></path><path d="M362.83,163.77l-3.72-8-8.36-.49a6,6,0,0,0-3.09,2.39c-.92,1.49-3.36,6.83-4.14,8.53l-2.68,12.84c0,.79,8.33,1.92,8.33,1.92a17.61,17.61,0,0,0,3-10.55l1.25-7.37,1.54-.8s2.28,3.79,5.56,4.09S362.83,163.77,362.83,163.77Z" style="fill:#ffbf9d"></path><path d="M359.14,156a5.24,5.24,0,0,1,.46.78c.32.61.7,1.35,1.16,2.22s1.1,2.08,1.71,3.39a14.8,14.8,0,0,1,.87,2.15,2.75,2.75,0,0,1,.05.34.89.89,0,0,1-.1.41,2,2,0,0,1-.44.54,3.76,3.76,0,0,1-1.15.73h-.05l-.72.08h-.05a7.34,7.34,0,0,1-2.65-.64,8.47,8.47,0,0,1-3.39-3.63l.29.11-1.75.55.16-.24a17,17,0,0,1-.78,6.19,13.75,13.75,0,0,1-.64,1.65,2,2,0,0,1-.32.55c-.06,0,.3-.83.7-2.27a18.26,18.26,0,0,0,.57-6.09v-.18l.17-.06L355,162l.18-.06.1.17a8.18,8.18,0,0,0,3.19,3.41,6.94,6.94,0,0,0,2.47.6h0l.71-.07h0a3.35,3.35,0,0,0,1-.61,1.46,1.46,0,0,0,.33-.4.35.35,0,0,0,.06-.17c0-.07,0-.16,0-.25a15.19,15.19,0,0,0-.8-2.08c-.58-1.32-1.14-2.47-1.6-3.43s-.81-1.74-1-2.28A2.91,2.91,0,0,1,359.14,156Z" style="fill:#ff9a6c"></path><path d="M362.23,175.79a8.27,8.27,0,0,1-2.09.69,15.47,15.47,0,0,1-5.3.54,8.5,8.5,0,0,1-2.88-.78,3.06,3.06,0,0,1-1-.86,1.84,1.84,0,0,1-.37-1.16,2.63,2.63,0,0,1,.66-1.53c.26-.29.44-.41.46-.38s-.1.19-.29.5a2.62,2.62,0,0,0-.46,1.42,1.9,1.9,0,0,0,1.27,1.58,8.83,8.83,0,0,0,2.71.69,18.27,18.27,0,0,0,5.18-.38A9.72,9.72,0,0,1,362.23,175.79Z" style="fill:#ff9a6c"></path><path d="M363.42,164.09a6.06,6.06,0,0,1-1.21,1.68,19.26,19.26,0,0,1-3.83,3.23,17.75,17.75,0,0,1-4.53,2.13,5.37,5.37,0,0,1-2.05.34,19.17,19.17,0,0,1,1.93-.69,22.77,22.77,0,0,0,4.37-2.22A36.68,36.68,0,0,0,363.42,164.09Z" style="fill:#ff9a6c"></path><path d="M363.64,170a12.62,12.62,0,0,1-5.58,2.72,16.25,16.25,0,0,1-2.4.43,5.59,5.59,0,0,1-2-.1c-1.17-.34-1.52-1.12-1.45-1.13a3.92,3.92,0,0,0,1.54.77,11.7,11.7,0,0,0,4.22-.47A39,39,0,0,0,363.64,170Z" style="fill:#ff9a6c"></path><path d="M189.93,164c0-.72,46.43-3.22,103.75-5.59s103.82-3.7,103.85-3-46.41,3.22-103.75,5.58S190,164.7,189.93,164Z" style="fill:#263238"></path><path d="M184.79,156.23l18.11-3.38,12.77.52a5.9,5.9,0,0,1,4.45,1.94l.09.11a2.93,2.93,0,0,1-1.07,4.51h0a2.93,2.93,0,0,1,1.33,1.15,3,3,0,0,1-.2,3.58,3.33,3.33,0,0,1-1.72,1.36,12.17,12.17,0,0,1-2.11.4,1.88,1.88,0,0,1-.89,2c-1.2.79-4.18,1-4.18,1s1.29,1.85-.2,2.75-5.76,1.09-5.76,1.09a14.9,14.9,0,0,1-5.29,1.6c-2.19,0-18.81-3.3-18.81-3.3" style="fill:#ffbf9d"></path><path d="M181.31,171.55a3.09,3.09,0,0,1,.45,0l1.31.22,5,.89c2.13.38,4.72.85,7.68,1.33l2.29.36a14.77,14.77,0,0,0,2.4.22,14.41,14.41,0,0,0,4.91-1.57l0,0h.05a26,26,0,0,0,4.27-.57,3,3,0,0,0,1.82-.94,2,2,0,0,0-.33-1.95l-.23-.35.41-.05a15.49,15.49,0,0,0,3.14-.58,3,3,0,0,0,1.32-.76,1.59,1.59,0,0,0,.39-1.34l-.06-.3.31,0a11.19,11.19,0,0,0,1.31-.22l.68-.16a2.09,2.09,0,0,0,.58-.24,4.14,4.14,0,0,0,1.6-2.11,2.77,2.77,0,0,0-.22-1.93,2.51,2.51,0,0,0-1.35-1.33l-.5-.23.48-.24a2.85,2.85,0,0,0,1.59-2.35,2.93,2.93,0,0,0-1.31-2.47,5.57,5.57,0,0,0-2.66-1.18c-.94-.13-2-.1-2.94-.17l-10.8-.47h0l-13.21,2.38-3.65.62-1,.15a1.36,1.36,0,0,1-.33,0l.32-.09.95-.21,3.63-.74,13.18-2.55h0l10.8.41,1.48,0a11.6,11.6,0,0,1,1.53.11,6,6,0,0,1,2.9,1.28,4.7,4.7,0,0,1,1.11,1.23,2.9,2.9,0,0,1,.39,1.66,3.37,3.37,0,0,1-1.87,2.79v-.47a3.4,3.4,0,0,1,1,.63,2.59,2.59,0,0,1,.66,1,3.33,3.33,0,0,1,.25,2.29,4.32,4.32,0,0,1-.72,1.36,4.44,4.44,0,0,1-1.11,1.05,2.42,2.42,0,0,1-.73.29l-.69.17a10.63,10.63,0,0,1-1.41.22l.24-.32a2.06,2.06,0,0,1-.51,1.81,3.34,3.34,0,0,1-1.54.9,15.83,15.83,0,0,1-3.25.6l.18-.39a3.69,3.69,0,0,1,.51,1.17,1.78,1.78,0,0,1-.17,1.31,2,2,0,0,1-1,.81,6.93,6.93,0,0,1-1.12.36,25.27,25.27,0,0,1-4.37.56l.09,0a14.8,14.8,0,0,1-5.1,1.59,16.14,16.14,0,0,1-2.48-.25l-2.3-.38c-3-.52-5.53-1-7.66-1.44l-4.92-1-1.3-.29Z" style="fill:#ff9a6c"></path><polygon points="380.06 155.88 387.94 150.94 405.24 154.31 389.15 160.37 380.06 155.88" style="fill:#263238"></polygon><path d="M166.51,149s-5.81-.46-19.22-2.47-31.08.16-34,2-5.49,8.9-3.76,13c3.4,8,17.18,10,17.18,10,15.7,4,54.63,0,54.63,0l3.94-14.65Z" style="fill:#ffbf9d"></path><path d="M186.92,156.2a2.84,2.84,0,0,1-.65.06c-.43,0-1.06.07-1.87.05a54.42,54.42,0,0,1-6.87-.46,97.38,97.38,0,0,1-10-1.88c-3.74-.88-7.81-2-12.09-3.09a120.91,120.91,0,0,0-12.17-2.55,60.41,60.41,0,0,0-10.11-.72,43.31,43.31,0,0,0-6.8.65c-.8.12-1.41.29-1.83.36a3.05,3.05,0,0,1-.65.1,2.72,2.72,0,0,1,.62-.2c.42-.11,1-.31,1.82-.46a38.25,38.25,0,0,1,6.83-.81,57.16,57.16,0,0,1,10.19.6,112.74,112.74,0,0,1,12.23,2.53c4.29,1.1,8.35,2.23,12.07,3.12a100,100,0,0,0,10,2,63,63,0,0,0,6.82.63c.81,0,1.44,0,1.86,0A4.45,4.45,0,0,1,186.92,156.2Z" style="fill:#ff9a6c"></path><path d="M184.79,171.72a1.89,1.89,0,0,1-.5.1l-1.46.17c-1.27.14-3.11.31-5.39.5-4.55.37-10.84.74-17.81.89s-13.28,0-17.84-.14c-2.28-.09-4.12-.19-5.39-.28l-1.47-.11a2.53,2.53,0,0,1-.51-.07,1.71,1.71,0,0,1,.51,0h1.47l5.4.11c4.56.08,10.86.13,17.82,0s13.25-.46,17.8-.74l5.39-.33,1.47-.08A1.83,1.83,0,0,1,184.79,171.72Z" style="fill:#ff9a6c"></path><path d="M397.27,140.92c.08.11-3.67,2.86-8.37,6.14s-8.59,5.82-8.68,5.71a102.9,102.9,0,0,1,8.38-6.14C393.31,143.36,397.19,140.8,397.27,140.92Z" style="fill:#263238"></path><path d="M399.8,139.19a.25.25,0,0,1,0,.36.25.25,0,0,1-.35,0,.25.25,0,0,1,0-.36A.24.24,0,0,1,399.8,139.19Z" style="fill:#263238"></path><path d="M396.37,168.81a13.3,13.3,0,0,1-2.31-1.39c-1.39-.91-3.28-2.2-5.36-3.65s-3.94-2.79-5.28-3.78a13.76,13.76,0,0,1-2.09-1.69,14.16,14.16,0,0,1,2.31,1.39c1.39.91,3.28,2.2,5.36,3.65s3.93,2.79,5.27,3.78A15,15,0,0,1,396.37,168.81Z" style="fill:#263238"></path><path d="M400.25,172.14c-.08.12-.45,0-.83-.24s-.63-.56-.55-.68.45,0,.83.24S400.33,172,400.25,172.14Z" style="fill:#263238"></path><path d="M376.07,165.31a10,10,0,0,1,1.39-2.89,10.28,10.28,0,0,1,1.84-2.63,10.2,10.2,0,0,1-1.39,2.9A9.89,9.89,0,0,1,376.07,165.31Z" style="fill:#263238"></path><path d="M378.49,152.68a9.24,9.24,0,0,1-2.88-1.15,9.57,9.57,0,0,1-2.65-1.61,9.45,9.45,0,0,1,2.89,1.15A9.23,9.23,0,0,1,378.49,152.68Z" style="fill:#263238"></path><path d="M374.13,168.09c.13.06.15.27.06.46s-.28.29-.41.23-.15-.27-.06-.46S374,168,374.13,168.09Z" style="fill:#263238"></path><path d="M369.87,149.09c0,.14-.27.31-.64.19s-.51-.44-.4-.53.33,0,.56,0S369.84,149,369.87,149.09Z" style="fill:#263238"></path><path d="M219.51,160.24c0,.16-2.8-.59-6.29-1s-6.32-.07-6.34-.21a15.42,15.42,0,0,1,6.4-.31,29.5,29.5,0,0,1,4.46.86A6.14,6.14,0,0,1,219.51,160.24Z" style="fill:#ff9a6c"></path><path d="M217,166.4a34.14,34.14,0,0,1-5.45-.76c-3-.53-5.42-.75-5.42-.87s2.5-.18,5.5.36A25.58,25.58,0,0,1,217,166.4Z" style="fill:#ff9a6c"></path><path d="M212.18,169.79a28.39,28.39,0,0,1-4-.15,29,29,0,0,1-4-.21,10.78,10.78,0,0,1,4-.31A11.08,11.08,0,0,1,212.18,169.79Z" style="fill:#ff9a6c"></path></g></svg>