<svg xmlns="http://www.w3.org/2000/svg" viewBox="0 0 500 500"><g id="background-complete"><path d="M101.85,53.1c.59-4.28-5.44-7.8-10-8.16-2.16-.18-4.41.16-6.46-.56C81,42.83,79.2,37.1,74.86,35.27c-3.23-1.37-7-.15-10.1,1.43S58.51,40.27,55,40.49c-3,.2-6.36-.93-9,.56-2,1.11-3,3.4-4.87,4.75S37,47.41,34.74,47.53s-4.53.14-6.55,1.07-3.71,3.07-3.29,5.26Z" style="fill:#fafafa"></path><path d="M255.15,58c.44-3.19-4.07-5.82-7.46-6.1-1.62-.13-3.3.12-4.83-.41-3.32-1.16-4.64-5.44-7.88-6.81-2.42-1-5.2-.11-7.55,1.07s-4.66,2.67-7.28,2.83c-2.28.15-4.76-.7-6.75.42-1.49.83-2.27,2.54-3.64,3.55A8.63,8.63,0,0,1,205,53.87a13.48,13.48,0,0,0-4.9.8c-1.51.69-2.76,2.29-2.45,3.93Z" style="fill:#ebebeb"></path><path d="M394.3,145.58c.51-3.73-4.74-6.79-8.68-7.1-1.89-.16-3.84.13-5.62-.49-3.87-1.35-5.41-6.34-9.18-7.93-2.82-1.18-6.06-.13-8.79,1.25s-5.43,3.1-8.48,3.3c-2.66.17-5.54-.82-7.86.48-1.73,1-2.64,3-4.24,4.14a10.13,10.13,0,0,1-5.53,1.5,15.41,15.41,0,0,0-5.7.93c-1.77.81-3.22,2.67-2.86,4.58Z" style="fill:#fafafa"></path><path d="M166.45,95.11c.75-5.45-6.93-9.92-12.7-10.39-2.75-.22-5.61.2-8.21-.71-5.65-2-7.91-9.26-13.42-11.59-4.12-1.74-8.86-.19-12.86,1.82s-7.94,4.54-12.4,4.83c-3.89.25-8.1-1.19-11.5.7-2.53,1.42-3.85,4.33-6.19,6s-5.26,2-8.09,2.2-5.76.18-8.34,1.36S68,93.29,68.56,96.07Z" style="fill:#ebebeb"></path><path d="M379,26.22c-17-5.16-37.35,3.81-44.56,20.09C331,54.22,330.19,63.6,324.39,70s-14.76,8.13-23.22,8.34-17.06-.87-25.3,1.08-16.33,8-17.26,16.37c-.48,4.28.93,8.77-.46,12.84-1.83,5.34-7.9,8.07-13.52,8.52s-11.29-.75-16.92-.35c-16,1.11-30.82,13.55-27.85,39.66l13.32,1.4c-2.34-7.83,1.35-21.81,11.06-25.8,7.56-3.1,16.15,1.35,23.88,4,8,2.75,16.42,5.29,24.87,4.43s17-5.9,19.5-14c1.42-4.58.78-9.57,1.87-14.23,3.22-13.73,20.92-8.29,35-7.87s29.07,1.86,42.95-.64c17.53-3.15,32.24-18.66,33.94-36.39S396.09,31.38,379,26.22Z" style="fill:#ebebeb"></path><path d="M311.05,21a10.93,10.93,0,0,0-5.35,8,8.26,8.26,0,0,0,4.42,8.23c3,1.39,7.1.17,8.53-2.83a7.62,7.62,0,0,0,7.63,1.41,10.67,10.67,0,0,0,5.81-5.44,13.11,13.11,0,0,0-.64-12.63,12.32,12.32,0,0,0-11.27-5.57,12,12,0,0,0-10.36,9.4" style="fill:#ebebeb"></path><path d="M475,489.94c6.81-4.81,9.4-10,9.6-16.95s-1.59-14.27-6.33-19.38A43.5,43.5,0,0,0,455.83,441c-24.85-4.59-48.26-8.66-79.52-8.21-4.81.07-18.36.76-23-.45s-6.16-6.32-3.11-9.34h-37.6c-2.31,8.49,3.88,17.39,11.75,21.32s17,4.16,25.77,4.6a396.62,396.62,0,0,1,58.37,7.31c5.57,1.12,16,4,18.71,9,2.92,5.42-4.13,11.32-8.93,15.16S392.84,489.7,386.83,491Z" style="fill:#ebebeb"></path><path d="M255.92,450.6c-.15,0-.81-2.7-2.36-5.76s-3.34-5.23-3.22-5.33a19.86,19.86,0,0,1,5.58,11.09Z" style="fill:#e0e0e0"></path><path d="M257.9,432.48a16.25,16.25,0,0,1,0,2.48,49.53,49.53,0,0,0,.27,5.92,48.78,48.78,0,0,0,1,5.85,14,14,0,0,1,.52,2.42,9.36,9.36,0,0,1-.88-2.33,33.65,33.65,0,0,1-1.16-5.88,34.63,34.63,0,0,1-.12-6A9.73,9.73,0,0,1,257.9,432.48Z" style="fill:#e0e0e0"></path><path d="M265,437.17a35.48,35.48,0,0,0-1.76,4.53,34,34,0,0,0-.59,4.82,8.85,8.85,0,0,1,.09-4.95A9,9,0,0,1,265,437.17Z" style="fill:#e0e0e0"></path><path d="M182.85,476.61a42.51,42.51,0,0,1-4-5.4,43.29,43.29,0,0,1-3.58-5.7,44,44,0,0,1,4,5.41A42.85,42.85,0,0,1,182.85,476.61Z" style="fill:#e0e0e0"></path><path d="M181.35,460.83c.16,0-.06,3.26.45,7.21s1.52,7,1.37,7.1a7.33,7.33,0,0,1-.8-2,30.23,30.23,0,0,1-1.08-5.05,29.22,29.22,0,0,1-.21-5.16A7.17,7.17,0,0,1,181.35,460.83Z" style="fill:#e0e0e0"></path><path d="M188.71,462c.15.06-.81,2.48-1.13,5.64s.08,5.74-.08,5.76a16.16,16.16,0,0,1,1.21-11.4Z" style="fill:#e0e0e0"></path><path d="M90.13,446.59a38,38,0,0,1-3.85-5,38.4,38.4,0,0,1-3.43-5.27,37.22,37.22,0,0,1,3.85,5A38.4,38.4,0,0,1,90.13,446.59Z" style="fill:#e0e0e0"></path><path d="M92,446.22a38.92,38.92,0,0,1-4.79-12.53c.15,0,1,2.83,2.33,6.28S92.14,446.15,92,446.22Z" style="fill:#e0e0e0"></path><path d="M97.56,433.67c.15.06-1,2.65-1.46,6.05s-.22,6.2-.38,6.22a5.43,5.43,0,0,1-.32-1.83,20.57,20.57,0,0,1,1.32-8.79A5.09,5.09,0,0,1,97.56,433.67Z" style="fill:#e0e0e0"></path><path d="M318.32,474.14a108.58,108.58,0,0,1-11.53-9.88,111.3,111.3,0,0,1,11.53,9.88Z" style="fill:#e0e0e0"></path><path d="M320.41,474.94a7.8,7.8,0,0,1-1.29-1.83,39.94,39.94,0,0,1-4.23-9.91,7.86,7.86,0,0,1-.43-2.2c.15,0,1,3.25,2.69,7.1S320.54,474.86,320.41,474.94Z" style="fill:#e0e0e0"></path><path d="M323.26,474.55a18.25,18.25,0,0,1,.41-11.53c.16,0-.52,2.57-.62,5.75S323.41,474.52,323.26,474.55Z" style="fill:#e0e0e0"></path><path d="M466.61,437.46a19.44,19.44,0,0,1-2.67-3.57,19.69,19.69,0,0,1-2.25-3.86,19.3,19.3,0,0,1,2.68,3.57A19,19,0,0,1,466.61,437.46Z" style="fill:#e0e0e0"></path><path d="M469.12,437.88a30.08,30.08,0,0,1-1.66-7.82,15.87,15.87,0,0,1,1.08,3.86A15.64,15.64,0,0,1,469.12,437.88Z" style="fill:#e0e0e0"></path><path d="M473.56,439.55a18.29,18.29,0,0,1,.56-4.37,19.41,19.41,0,0,1,1.08-4.28,18.69,18.69,0,0,1-.57,4.38A18.9,18.9,0,0,1,473.56,439.55Z" style="fill:#e0e0e0"></path></g><g id="background-simple"><path d="M315.47,103l.39-1.54a36.06,36.06,0,0,0-10.57-35.78,35.2,35.2,0,0,0-4.07-3.13,37.84,37.84,0,0,0-35.64-2.75c-6.7,3-12.86,8.06-20.17,8.44-9.51.48-17.22-7-23.65-14S207.59,39.8,198.08,40.32c-6,.33-11.37,3.91-15.41,8.34-10.71,11.74-13,29.57-8.2,44.53s16,27.19,29,36c18.23,12.3,41.11,18.51,62.89,14.35S308.23,123.94,315.47,103Z" style="fill:#f5f5f5"></path><circle cx="111.33" cy="76.84" r="21.56" style="fill:#f5f5f5"></circle><circle cx="352.7" cy="125.88" r="11.93" transform="matrix(0.2, -0.98, 0.98, 0.2, 157.8, 445.65)" style="fill:#f5f5f5"></circle></g><g id="pine-trees"><path d="M69.62,128.07c0,1.56-30.59,98-30.59,98l15.3-15.55-22,67.41L46.81,257.7,29.7,342.22l8.3-8.81L23.48,393l12.44-15.56-12.44,44.6H122L98.66,330.82l14.09,15.55L94.51,285.19l9.34,5.18L82.59,211.56l9.85,6.74Z" style="fill:#263238"></path><path d="M29.78,310.63c0,.59-11.6,37.16-11.6,37.16l5.8-5.9-8.36,25.56,5.51-7.67-6.49,32.05,3.15-3.34L12.28,411.1,17,405.2l-4.72,16.91H49.64L40.79,387.5l5.34,5.9-6.91-23.2,3.54,2L34.7,342.28l3.73,2.56Z" style="fill:#455a64"></path></g><g id="Tree"><path d="M426.36,19.05l-7.77,72.78s-.93,9.4-5.64,6.68c-5.36-3.1-9.9-17.3-9.9-17.3L402,78.68l-5.14,2.15,12.53,26.79,6.58,21.25,3.34,52.21-10.22,241,29.35-.08s-1.74-228.65-1-239.23c.5-7.05,19.77-23.22,32.59-33.24l14-1.75.57-3.27-18.55.06-29.54,19.9L449.53,19Z" style="fill:#263238"></path><polyline points="402.97 82.61 391.92 56.87 408.6 18.46 405.75 18.46 387.93 54.34 381.79 24.26 378.74 24.2 383.36 56.87 391.92 73.58 370.51 70.23 369.05 73.58 393.87 77.82 397.68 83.87" style="fill:#263238"></polyline></g><g id="Cabin"><polygon points="89.16 309.76 248.38 309.76 336.07 164.18 413.37 312.33 413.37 422.11 89.16 422.11 89.16 309.76" style="fill:#FF725E"></polygon><path d="M235.68,422.45c-.14,0-.26-23.14-.26-51.68s.12-51.69.26-51.69.26,23.13.26,51.69S235.83,422.45,235.68,422.45Z" style="fill:#263238"></path><path d="M235.68,329.25c0,.14-32.66.26-73,.26s-73-.12-73-.26,32.66-.26,73-.26S235.68,329.1,235.68,329.25Z" style="fill:#263238"></path><path d="M235.68,341.83c0,.14-32.66.26-73,.26s-73-.12-73-.26,32.66-.26,73-.26S235.68,341.68,235.68,341.83Z" style="fill:#263238"></path><path d="M235.68,354.41c0,.14-32.66.26-73,.26s-73-.12-73-.26,32.66-.26,73-.26S235.68,354.26,235.68,354.41Z" style="fill:#263238"></path><path d="M235.68,367c0,.14-32.66.26-73,.26s-73-.12-73-.26,32.66-.26,73-.26S235.68,366.84,235.68,367Z" style="fill:#263238"></path><path d="M235.68,379.57c0,.14-32.66.26-73,.26s-73-.12-73-.26,32.66-.26,73-.26S235.68,379.42,235.68,379.57Z" style="fill:#263238"></path><path d="M235.68,392.15c0,.14-32.66.26-73,.26s-73-.12-73-.26,32.66-.26,73-.26S235.68,392,235.68,392.15Z" style="fill:#263238"></path><path d="M235.68,404.73c0,.14-32.66.26-73,.26s-73-.12-73-.26,32.66-.26,73-.26S235.68,404.58,235.68,404.73Z" style="fill:#263238"></path><path d="M413.37,422.11s0-.19,0-.55,0-.91,0-1.6c0-1.43,0-3.51-.05-6.2,0-5.41,0-13.26-.07-23.05,0-19.63-.06-47.07-.09-78.38l0,.12c-4.1-7.84-8.34-16-12.68-24.28l-44.8-86L342.14,176l-3.65-7.11-.94-1.85c-.21-.42-.3-.64-.3-.64l.35.61c.23.43.55,1,1,1.83l3.74,7.07c3.24,6.16,7.91,15,13.67,26l44.94,86,12.67,24.29,0,0v.06c0,31.31-.07,58.75-.09,78.38,0,9.79-.06,17.64-.08,23.05,0,2.69,0,4.77,0,6.2,0,.69,0,1.22,0,1.6S413.37,422.11,413.37,422.11Z" style="fill:#263238"></path><path d="M248.34,317.18c.15,0,.26,23.27.26,52s-.11,52-.26,52-.26-23.26-.26-52S248.2,317.18,248.34,317.18Z" style="fill:#263238"></path><path d="M262.12,297.52c.14,0,.26,27.67.26,61.8s-.12,61.8-.26,61.8-.26-27.66-.26-61.8S262,297.52,262.12,297.52Z" style="fill:#263238"></path><path d="M276.44,270c.14,0,.26,33.83.26,75.56s-.12,75.57-.26,75.57-.26-33.83-.26-75.57S276.29,270,276.44,270Z" style="fill:#263238"></path><path d="M290.75,247.51c.15,0,.26,38.87.26,86.8s-.11,86.81-.26,86.81-.26-38.86-.26-86.81S290.61,247.51,290.75,247.51Z" style="fill:#263238"></path><path d="M305.07,421.12c-.15,0-.26-44.46-.26-99.3s.11-99.31.26-99.31.26,44.46.26,99.31S305.21,421.12,305.07,421.12Z" style="fill:#263238"></path><path d="M319.38,194.14c.15,0,.26,50.81.26,113.48s-.11,113.5-.26,113.5-.26-50.8-.26-113.5S319.24,194.14,319.38,194.14Z" style="fill:#263238"></path><path d="M333.7,166.43c.14,0,.26,57,.26,127.34s-.12,127.35-.26,127.35-.26-57-.26-127.35S333.55,166.43,333.7,166.43Z" style="fill:#263238"></path><path d="M348,187.06c.15,0,.26,52.4.26,117s-.11,117-.26,117-.26-52.39-.26-117S347.87,187.06,348,187.06Z" style="fill:#263238"></path><path d="M362.33,213.8c.14,0,.26,46.42.26,103.66s-.12,103.66-.26,103.66-.26-46.4-.26-103.66S362.18,213.8,362.33,213.8Z" style="fill:#263238"></path><path d="M376.64,241.11c.15,0,.26,40.3.26,90s-.11,90-.26,90-.26-40.29-.26-90S376.5,241.11,376.64,241.11Z" style="fill:#263238"></path><path d="M391,270c.14,0,.26,33.83.26,75.56s-.12,75.57-.26,75.57-.26-33.83-.26-75.57S390.82,270,391,270Z" style="fill:#263238"></path><path d="M405.27,296.82c.15,0,.27,27.82.27,62.15s-.12,62.15-.27,62.15S405,393.3,405,359,405.13,296.82,405.27,296.82Z" style="fill:#263238"></path><polygon points="235.44 318.03 89.16 318.03 89.16 321.52 94.39 322.03 92.89 422.08 102.76 422.08 102.76 322.85 215.84 333.84 213.25 422.08 223.11 422.08 223.11 334.54 235.44 335.74 235.44 318.03" style="opacity:0.4"></polygon><g style="opacity:0.4"><path d="M262.12,297.52c-.85,15.35-2,35.7,0,51,1.6-13.93,3.58-31.27,5.18-45.2A76.47,76.47,0,0,1,269.88,289c1.46-4.63,2.72-8.5,6.46-11.59a269.33,269.33,0,0,0,.1,36.93c2.2-20.61,2.77-42.31,9.9-60.22Z"></path></g><polygon points="290.95 402.19 274.77 392.97 246.34 403.32 223.41 422.16 307.34 422.16 290.95 402.19" style="fill:#f5f5f5"></polygon><polygon points="223.41 422.16 252.51 405.24 290.95 402.19 274.12 392.22 246.34 403.32 223.41 422.16" style="fill:#e0e0e0"></polygon><polygon points="265.51 422.2 279.77 412.55 293.04 411.61 281.95 414.07 276.4 422.16 265.51 422.2" style="fill:#e0e0e0"></polygon><path d="M293.5,411.41a7.14,7.14,0,0,1-1.05.14l-2.9.26-9.76.75.08,0-1.59,1.1c-3.58,2.45-6.83,4.65-9.19,6.23l-2.81,1.85-.77.49c-.18.11-.27.16-.28.15s.08-.08.24-.2l.74-.55,2.74-2c2.33-1.63,5.55-3.86,9.13-6.31l1.6-1.1,0,0h0l9.77-.64,2.91-.15A6.62,6.62,0,0,1,293.5,411.41Z" style="fill:#263238"></path><path d="M290.9,402.13s.11.11.3.34l.87,1,3.32,4,12.28,14.72.1.12H239.06l-15.65,0h-.3l.23-.19,22.88-18.74h0L274,392.16H274l12.45,7.34,3.3,1.95.84.5a2.74,2.74,0,0,1,.28.18l-.29-.17-.86-.49-3.31-1.92L274,392.28H274l-27.7,11.21h0l-22.86,18.76-.07-.19h15.65l68.55.08-.05.12-12.23-14.75c-1.43-1.73-2.54-3.07-3.29-4l-.85-1Z" style="fill:#263238"></path><path d="M293.25,404.86a11.86,11.86,0,0,1-11.75,2.25,5.61,5.61,0,0,1-2.36-1.48,2.74,2.74,0,0,1-.62-2.61,7.51,7.51,0,0,1-6.94-1.79,8,8,0,0,1-2.33-7l4.78-2,16.92,10Z" style="fill:#455a64"></path><polygon points="89.16 422.11 84.03 422.11 85.3 404.73 83.05 381.86 87.42 382.23 89.16 422.11" style="fill:#455a64"></polygon><polygon points="98.38 422.11 103.51 422.11 102.24 404.73 104.49 381.86 100.12 382.23 98.38 422.11" style="fill:#455a64"></polygon><polygon points="119.48 422.11 115.67 422.11 115.94 396.59 114.35 382.78 119.19 382.78 120.64 407.51 119.48 422.11" style="fill:#455a64"></polygon><polygon points="135.95 422.11 130.82 422.11 132.09 404.73 129.84 381.86 134.21 382.23 135.95 422.11" style="fill:#455a64"></polygon><polygon points="145.17 422.11 150.3 422.11 149.03 404.73 151.28 381.86 146.91 382.23 145.17 422.11" style="fill:#455a64"></polygon><polygon points="166.27 422.11 162.46 422.11 162.73 396.59 161.14 382.78 165.98 382.78 167.43 407.51 166.27 422.11" style="fill:#455a64"></polygon><polygon points="182.74 422.11 177.61 422.11 178.88 404.73 176.63 381.86 181 382.23 182.74 422.11" style="fill:#455a64"></polygon><polygon points="191.96 422.11 197.09 422.11 195.82 404.73 198.07 381.86 193.71 382.23 191.96 422.11" style="fill:#455a64"></polygon><polygon points="84.72 357.84 82.97 356.21 79.63 358.2 79.63 349.73 79.63 318.03 67.73 318.03 70.24 337.78 70.11 342.25 64.7 337.65 63.37 339.28 69.94 348.01 67.61 422.08 79.5 422.08 77.68 377.1 79.63 364.43 84.72 357.84" style="fill:#455a64"></polygon><polygon points="223.11 357.28 221.36 355.67 218.01 357.63 218.01 349.28 218.01 318.03 206.12 318.03 208.63 337.5 206.12 422.11 218.01 422.11 216.07 376.27 218.01 363.78 223.11 357.28" style="fill:#455a64"></polygon><path d="M218.4,386.26,66,383.09c-.66-2.23-.62-5.71.51-7.72l74.25,2.71,77.64.15A9.74,9.74,0,0,1,218.4,386.26Z" style="fill:#455a64"></path><path d="M218.4,386.26s0-.17.16-.48a14.49,14.49,0,0,0,.4-1.46,9.15,9.15,0,0,0-.63-6.06l.07.05-56.64,0-21.08,0-23.12-.83L66.5,375.63l.23-.13,0,0a8.73,8.73,0,0,0-.87,3.74,11.75,11.75,0,0,0,.41,3.73l-.24-.18,108,2.34,32.49.76,8.83.23,2.3.06.79,0h-.76l-2.28,0-8.77-.14-32.46-.6L66,383.35h-.2l0-.18a12.31,12.31,0,0,1-.43-3.9,9.18,9.18,0,0,1,.94-4l0-.05.07-.14h.16L117.57,377l23.12.86,21.07.06,56.64.24h0l0,0a9.13,9.13,0,0,1,.57,6.15,12.23,12.23,0,0,1-.45,1.46C218.47,386.12,218.4,386.26,218.4,386.26Z" style="fill:#263238"></path><path d="M83.48,379.35a33,33,0,0,1-4,.47,45,45,0,0,1-10.75-.6l-.36-.06.35-.11a35.24,35.24,0,0,1,22.41.7l.32.12-.33.08a66,66,0,0,1-17.32,1.22c-2.18-.09-3.91-.19-5.1-.27l-1.37-.1a4.37,4.37,0,0,1-.47-.05h.47l1.37.07c1.19.05,2.93.14,5.1.21A67.83,67.83,0,0,0,91,379.75v.19a35.41,35.41,0,0,0-22.28-.72V379a45.91,45.91,0,0,0,10.7.68c1.3-.07,2.31-.17,3-.25Z" style="fill:#263238"></path><path d="M120.7,377.67l-.3,0-.84.06c-.73,0-1.79.12-3.09.24a76.49,76.49,0,0,0-19.86,4.57c-1.23.45-2.21.84-2.89,1.13l-.78.32a.93.93,0,0,1-.28.09l.26-.13.77-.36c.67-.3,1.64-.72,2.86-1.19a71.25,71.25,0,0,1,9.79-3,73.06,73.06,0,0,1,10.12-1.57c1.31-.1,2.37-.16,3.1-.17l.84,0Z" style="fill:#263238"></path><path d="M192.32,381.05a22.58,22.58,0,0,1-3.54.73,26.87,26.87,0,0,1-10.06-.55l-.21-.05.21-.07a37.68,37.68,0,0,1,25.62.49l.22.09-.22.09a43,43,0,0,1-12.83,2.91,70.85,70.85,0,0,1-14.26-.48c-9.22-1.18-17.83-3.36-25.8-4.44A86.16,86.16,0,0,0,116,382c-1.64.45-2.9.84-3.75,1.12s-1.3.41-1.3.41,1.76-.67,5-1.61a83.41,83.41,0,0,1,14.15-2.73,86.12,86.12,0,0,1,21.34.42c8,1.08,16.59,3.24,25.8,4.43a71.15,71.15,0,0,0,14.22.47,42.52,42.52,0,0,0,12.76-2.88v.18a37.75,37.75,0,0,0-25.51-.55v-.12a27.59,27.59,0,0,0,12.67.14Z" style="fill:#263238"></path><path d="M214,340s.09.13.23.39a4.78,4.78,0,0,1,.4,1.26,5.23,5.23,0,0,1-.1,2.12,4.84,4.84,0,0,1-1.45,2.44l-.08.07,0-.1a50.52,50.52,0,0,1-.93-11.75,5.26,5.26,0,0,1,.26-1.78,2,2,0,0,1,.52-.8.88.88,0,0,1,1-.12c.64.36.75,1.09.94,1.67s.36,1.24.51,1.88a34.37,34.37,0,0,1,.81,8.15,67.94,67.94,0,0,1-1.72,13.19c-.86,4-1.74,7.57-2.34,10.6s-1,5.51-1.15,7.23c-.09.86-.15,1.53-.18,2s-.06.69-.06.69,0-1,.16-2.68a70.14,70.14,0,0,1,1.09-7.24c.58-3,1.44-6.62,2.3-10.62a68.57,68.57,0,0,0,1.69-13.15,33.85,33.85,0,0,0-.8-8.1c-.15-.64-.3-1.26-.5-1.87s-.32-1.28-.83-1.55a.7.7,0,0,0-.77.09,1.75,1.75,0,0,0-.46.72,5,5,0,0,0-.26,1.72,51.22,51.22,0,0,0,.87,11.71l-.1,0a4.84,4.84,0,0,0,1.44-2.38,5.25,5.25,0,0,0,.12-2.08A4.86,4.86,0,0,0,214,340Z" style="fill:#263238"></path><path d="M212.55,419.86a2.06,2.06,0,0,1-.07-.28q-.07-.37-.18-.84c-.15-.72-.34-1.77-.56-3.07-.45-2.61-1-6.22-1.34-10.23s-.54-7.67-.58-10.31c0-1.32,0-2.39,0-3.13,0-.31,0-.59,0-.85a.94.94,0,0,1,0-.29s0,.1,0,.29l0,.85c0,.85.05,1.89.08,3.13.08,2.63.26,6.28.63,10.29s.87,7.62,1.28,10.22c.2,1.22.37,2.25.5,3.09l.14.84A1.06,1.06,0,0,1,212.55,419.86Z" style="fill:#263238"></path><path d="M74.31,361.19s0-.11.1-.32a6.72,6.72,0,0,0,.25-.93,6.65,6.65,0,0,0-.33-3.61h.1a19.51,19.51,0,0,0-1.58,6,19.28,19.28,0,0,0,.92,8.08H73.6a25.9,25.9,0,0,0,2.74-13.62,75.21,75.21,0,0,0-1.91-12.91c-.83-3.93-1.54-7.49-1.86-10.53a36.13,36.13,0,0,1-.16-7.2c.07-.85.15-1.5.23-1.94s.12-.68.12-.68,0,.24-.08.68-.13,1.1-.19,2a37.8,37.8,0,0,0,.23,7.18c.33,3,1,6.57,1.9,10.5a74.26,74.26,0,0,1,1.93,12.94,26,26,0,0,1-2.79,13.72l-.1.19-.07-.21a19.39,19.39,0,0,1,.74-14.19l.06-.12,0,.12a6.63,6.63,0,0,1,.28,3.66A5,5,0,0,1,74.31,361.19Z" style="fill:#263238"></path><path d="M73.49,422.7s0-.13,0-.39.06-.69.09-1.13c.1-1,.21-2.39.32-4.14a125.36,125.36,0,0,0,.1-13.69,124.35,124.35,0,0,0-1.45-13.61c-.28-1.73-.53-3.13-.72-4.09l-.21-1.11a3.49,3.49,0,0,1-.06-.39s0,.13.1.38.15.68.25,1.1c.21,1,.49,2.36.79,4.08a116.11,116.11,0,0,1,1.5,13.63,114.88,114.88,0,0,1-.15,13.71c-.13,1.75-.26,3.17-.38,4.14l-.14,1.12Z" style="fill:#263238"></path><rect x="111" y="334.79" width="32.67" height="31.72" style="fill:#455a64"></rect><rect x="112.95" y="336.68" width="28.78" height="27.94" style="fill:#263238"></rect><rect x="112.41" y="349.8" width="30.05" height="2.22" style="fill:#455a64"></rect><rect x="126.14" y="335.54" width="2.16" height="29.81" style="fill:#455a64"></rect><path d="M124.15,356a11.66,11.66,0,0,1-1.22.81c-.76.48-1.8,1.16-2.93,1.93s-2.14,1.51-2.87,2a11.54,11.54,0,0,1-1.19.85s.09-.11.28-.28.47-.4.82-.68c.71-.57,1.7-1.32,2.84-2.1s2.2-1.43,3-1.89l.93-.52A2,2,0,0,1,124.15,356Z" style="fill:#fff"></path><path d="M122.68,354.85s-1.08.61-2.38,1.4-2.29,1.52-2.33,1.47a2.84,2.84,0,0,1,.61-.54,17.51,17.51,0,0,1,1.62-1.11,18.59,18.59,0,0,1,1.72-.93A2.5,2.5,0,0,1,122.68,354.85Z" style="fill:#fff"></path><path d="M131.19,346.44s.09-.11.29-.28l.84-.71,2.76-2.35,2.7-2.41.82-.73a1.71,1.71,0,0,1,.32-.25,1.27,1.27,0,0,1-.26.3l-.77.79c-.67.65-1.61,1.53-2.67,2.46s-2.07,1.74-2.81,2.31l-.88.65A1.66,1.66,0,0,1,131.19,346.44Z" style="fill:#fff"></path><path d="M132,343.87a11.79,11.79,0,0,1,1.63-1.42,12,12,0,0,1,1.75-1.26,10.69,10.69,0,0,1-1.62,1.42A11.8,11.8,0,0,1,132,343.87Z" style="fill:#fff"></path><path d="M113.09,336.82a2.58,2.58,0,0,1-1.25-.78,2.48,2.48,0,0,1-.77-1.26c.06,0,.36.55.92,1.11S113.12,336.77,113.09,336.82Z" style="fill:#263238"></path><path d="M143.82,334.73a3.71,3.71,0,0,1-.95,1.1,3.62,3.62,0,0,1-1.18.83,7,7,0,0,1,1.05-1A7.56,7.56,0,0,1,143.82,334.73Z" style="fill:#263238"></path><path d="M143.66,366.29a4.33,4.33,0,0,1-1-.75,4.05,4.05,0,0,1-.89-.9,3.75,3.75,0,0,1,1,.74C143.3,365.83,143.7,366.24,143.66,366.29Z" style="fill:#263238"></path><path d="M113,364.73a4.45,4.45,0,0,1-1,.95,4.84,4.84,0,0,1-1.09.79,8.51,8.51,0,0,1,2-1.74Z" style="fill:#263238"></path><rect x="168.51" y="335.08" width="32.67" height="31.72" style="fill:#455a64"></rect><rect x="170.46" y="336.97" width="28.78" height="27.94" style="fill:#263238"></rect><rect x="169.92" y="350.09" width="30.05" height="2.22" style="fill:#455a64"></rect><rect x="183.65" y="335.83" width="2.16" height="29.81" style="fill:#455a64"></rect><path d="M181.66,356.33a13.23,13.23,0,0,1-1.22.81c-.76.48-1.8,1.16-2.94,1.93s-2.14,1.51-2.86,2a10.91,10.91,0,0,1-1.19.84s.09-.1.28-.27.47-.4.82-.68c.7-.57,1.7-1.32,2.84-2.1s2.19-1.44,3-1.89l.93-.52A1.68,1.68,0,0,1,181.66,356.33Z" style="fill:#fff"></path><path d="M180.18,355.14c0,.05-1.07.61-2.37,1.4s-2.29,1.52-2.33,1.47a2.84,2.84,0,0,1,.61-.54,17.18,17.18,0,0,1,1.61-1.11c.66-.39,1.27-.72,1.73-.93A2.62,2.62,0,0,1,180.18,355.14Z" style="fill:#fff"></path><path d="M188.69,346.73a1.65,1.65,0,0,1,.3-.28l.84-.71,2.76-2.35,2.7-2.41.82-.73c.2-.18.31-.27.32-.25a2.24,2.24,0,0,1-.26.3l-.78.79c-.66.65-1.6,1.53-2.67,2.46s-2.07,1.74-2.8,2.3l-.88.66A1.86,1.86,0,0,1,188.69,346.73Z" style="fill:#fff"></path><path d="M189.49,344.16a10.46,10.46,0,0,1,1.63-1.42,11.45,11.45,0,0,1,1.75-1.26,10.69,10.69,0,0,1-1.62,1.42A12.41,12.41,0,0,1,189.49,344.16Z" style="fill:#fff"></path><path d="M170.6,337.11a2.54,2.54,0,0,1-1.25-.78,2.48,2.48,0,0,1-.77-1.26c.06,0,.36.55.92,1.11S170.63,337.05,170.6,337.11Z" style="fill:#263238"></path><path d="M201.33,335a3.9,3.9,0,0,1-1,1.1,3.61,3.61,0,0,1-1.19.83,8.43,8.43,0,0,1,1.05-1A7.94,7.94,0,0,1,201.33,335Z" style="fill:#263238"></path><path d="M201.17,366.57a3.65,3.65,0,0,1-1-.74,4,4,0,0,1-.89-.91,4.24,4.24,0,0,1,1,.75A4.38,4.38,0,0,1,201.17,366.57Z" style="fill:#263238"></path><path d="M170.52,365a4.45,4.45,0,0,1-1,1,4.54,4.54,0,0,1-1.1.79,4.66,4.66,0,0,1,1-.95A4.48,4.48,0,0,1,170.52,365Z" style="fill:#263238"></path><rect x="312.05" y="338.17" width="43.2" height="83.91" style="fill:#455a64"></rect><path d="M316,422.08l35.23-.08-.07.08c0-20.63,0-48.84,0-79.93h0l.1.1H316l.1-.1c-.06,46.26-.09,77.62-.1,79.93,0-2.31,0-33.67-.1-79.93v-.1h35.44v.11h0c0,31.09,0,59.3,0,79.93v.07h-.08Z" style="fill:#263238"></path><path d="M312.37,338.12a19.53,19.53,0,0,1,2,2.07,23.2,23.2,0,0,1,1.85,2.21,39.12,39.12,0,0,1-3.86-4.28Z" style="fill:#263238"></path><path d="M355.35,338.21s-.93.87-2,2-1.95,2-2,2a3,3,0,0,1,.49-.68,19.66,19.66,0,0,1,1.36-1.48c.56-.55,1.1-1,1.5-1.34A2.46,2.46,0,0,1,355.35,338.21Z" style="fill:#263238"></path><path d="M347.19,375.94a2.39,2.39,0,0,0-2.07,1.3,2.06,2.06,0,0,0,.6,2.45,2.1,2.1,0,0,0,3.27-2.38,2.18,2.18,0,0,0-2.13-1.38" style="fill:#263238"></path><path d="M321.65,422.67c-.06,0-.1-17.88-.1-39.94s0-39.94.1-39.94.1,17.88.1,39.94S321.71,422.67,321.65,422.67Z" style="fill:#263238"></path><path d="M330.7,422.67c-.06,0-.11-17.88-.11-39.94s.05-39.94.11-39.94.1,17.88.1,39.94S330.75,422.67,330.7,422.67Z" style="fill:#263238"></path><path d="M339.74,422.67c-.05,0-.1-17.88-.1-39.94s.05-39.94.1-39.94.11,17.88.11,39.94S339.8,422.67,339.74,422.67Z" style="fill:#263238"></path><path d="M347,422.67s-.1-17.88-.1-39.94.05-39.94.1-39.94.11,17.88.11,39.94S347.08,422.67,347,422.67Z" style="fill:#263238"></path><polygon points="316.03 408.86 318.64 343.44 349.11 342.15 316.03 342.15 316.03 408.86" style="opacity:0.4"></polygon><rect x="286.09" y="277.15" width="46.18" height="4.08" transform="translate(29.99 588.37) rotate(-90)" style="fill:#fff"></rect><rect x="311.22" y="256.09" width="44.64" height="43.34" style="fill:#455a64"></rect><rect x="313.88" y="258.68" width="39.32" height="38.17" style="fill:#263238"></rect><rect x="313.15" y="276.6" width="41.05" height="3.04" style="fill:#455a64"></rect><rect x="331.91" y="257.12" width="2.95" height="40.73" style="fill:#455a64"></rect><path d="M329.19,285.13a3,3,0,0,1-.45.3l-1.23.78c-1,.65-2.47,1.57-4,2.63s-2.92,2.07-3.91,2.8l-1.17.87a2.26,2.26,0,0,1-.45.3,4.25,4.25,0,0,1,.4-.36c.26-.23.65-.54,1.13-.93,1-.76,2.33-1.79,3.88-2.85s3-2,4.06-2.59l1.27-.72A2.87,2.87,0,0,1,329.19,285.13Z" style="fill:#fff"></path><path d="M327.17,283.5a7,7,0,0,1-.95.56c-.6.32-1.42.78-2.31,1.32s-1.67,1.07-2.23,1.45a5.9,5.9,0,0,1-.94.59,5.42,5.42,0,0,1,.85-.71,24.22,24.22,0,0,1,2.21-1.5,26.6,26.6,0,0,1,2.35-1.29A5,5,0,0,1,327.17,283.5Z" style="fill:#fff"></path><path d="M338.8,272a3.22,3.22,0,0,1,.41-.37l1.15-1c1-.81,2.32-1.93,3.78-3.2s2.76-2.45,3.69-3.3l1.11-1a3.6,3.6,0,0,1,.43-.35,2.44,2.44,0,0,1-.37.41l-1.07,1.06c-.91.89-2.19,2.08-3.65,3.36s-2.82,2.37-3.83,3.15l-1.19.91A3,3,0,0,1,338.8,272Z" style="fill:#fff"></path><path d="M339.89,268.5s.22-.25.63-.6,1-.81,1.61-1.31,1.22-.95,1.65-1.27a4,4,0,0,1,.73-.48,3.69,3.69,0,0,1-.63.59c-.41.35-1,.82-1.62,1.32s-1.22.95-1.65,1.27A3.93,3.93,0,0,1,339.89,268.5Z" style="fill:#fff"></path><path d="M314.08,258.87a3.81,3.81,0,0,1-1.68-1.1,3.87,3.87,0,0,1-1.08-1.69,17,17,0,0,0,1.23,1.54A18.85,18.85,0,0,0,314.08,258.87Z" style="fill:#263238"></path><path d="M356.06,256a5.83,5.83,0,0,1-1.32,1.47,6.47,6.47,0,0,1-1.6,1.17s.66-.59,1.46-1.32A19.54,19.54,0,0,1,356.06,256Z" style="fill:#263238"></path><path d="M355.84,299.13a6,6,0,0,1-1.42-1,5.44,5.44,0,0,1-1.2-1.25,11.52,11.52,0,0,1,1.34,1.1A9.42,9.42,0,0,1,355.84,299.13Z" style="fill:#263238"></path><path d="M314,297a8.45,8.45,0,0,1-1.33,1.27,8,8,0,0,1-1.47,1.11,8.45,8.45,0,0,1,1.33-1.27A7.79,7.79,0,0,1,314,297Z" style="fill:#263238"></path><rect x="304.15" y="252.02" width="59.23" height="4.08" style="fill:#fff"></rect><g style="opacity:0.4"><path d="M304.57,303.26l.79.52,26.54,1.8a107.23,107.23,0,0,0,16.52.28,54.13,54.13,0,0,0,12.53-2.6A269.66,269.66,0,0,0,304.57,303.26Z"></path></g><rect x="304.15" y="299.01" width="59.23" height="4.08" style="fill:#fff"></rect><rect x="334.84" y="276.53" width="46.18" height="4.08" transform="translate(79.36 636.5) rotate(-90)" style="fill:#fff"></rect><g style="opacity:0.4"><path d="M306.88,256.19A112.42,112.42,0,0,0,336.07,262c7.75.39,17-2.38,23.9-5.92C342.29,256,324.56,256.25,306.88,256.19Z"></path></g><polygon points="42.01 318.03 243.36 318.03 336.07 164.18 131.41 164.18 42.01 318.03" style="fill:#FF725E"></polygon><polygon points="42.01 318.03 250.74 318.03 336.07 164.18 131.41 164.18 42.01 318.03" style="opacity:0.2"></polygon><path d="M145.9,164.18c.12.07-19.72,34.57-44.32,77S56.93,318.1,56.81,318,76.52,283.47,101.13,241,145.77,164.11,145.9,164.18Z" style="fill:#263238"></path><path d="M163.76,164.18c.13.07-19.72,34.57-44.32,77S74.79,318.1,74.67,318,94.39,283.47,119,241,163.64,164.11,163.76,164.18Z" style="fill:#263238"></path><path d="M181.63,164.18c.12.07-19.72,34.57-44.32,77S92.66,318.1,92.53,318s19.72-34.56,44.33-77.06S181.5,164.11,181.63,164.18Z" style="fill:#263238"></path><path d="M199.49,164.18c.12.07-19.72,34.57-44.32,77S110.52,318.1,110.4,318s19.71-34.56,44.32-77.06S199.36,164.11,199.49,164.18Z" style="fill:#263238"></path><path d="M217.35,164.18c.13.07-19.72,34.57-44.32,77S128.38,318.1,128.26,318,148,283.47,172.58,241,217.23,164.11,217.35,164.18Z" style="fill:#263238"></path><path d="M235.21,164.18c.13.07-19.72,34.57-44.31,77S146.25,318.1,146.12,318s19.72-34.56,44.33-77.06S235.09,164.11,235.21,164.18Z" style="fill:#263238"></path><path d="M253.08,164.18c.12.07-19.72,34.57-44.32,77S164.11,318.1,164,318,183.7,283.47,208.31,241,253,164.11,253.08,164.18Z" style="fill:#263238"></path><path d="M270.94,164.18c.13.07-19.72,34.57-44.32,77S182,318.1,181.85,318s19.71-34.56,44.32-77.06S270.82,164.11,270.94,164.18Z" style="fill:#263238"></path><path d="M288.8,164.18c.13.07-19.72,34.57-44.31,77S199.84,318.1,199.71,318,219.43,283.47,244,241,288.68,164.11,288.8,164.18Z" style="fill:#263238"></path><path d="M306.67,164.18c.12.07-19.72,34.57-44.32,77S217.7,318.1,217.57,318,237.29,283.47,261.9,241,306.54,164.11,306.67,164.18Z" style="fill:#263238"></path><path d="M324.53,164.18c.12.07-19.72,34.57-44.32,77S235.56,318.1,235.44,318s19.71-34.56,44.32-77.06S324.41,164.11,324.53,164.18Z" style="fill:#263238"></path><path d="M42,318l1,0,2.91,0,11.21-.05,41.22-.08,136-.08h16.41l-.22.14c24-43.14,45.31-81.59,60.69-109.26,7.7-13.81,13.9-24.93,18.18-32.62,2.14-3.82,3.8-6.78,4.94-8.8q.84-1.5,1.29-2.28c.29-.52.45-.77.45-.77s-.13.27-.41.79-.7,1.3-1.25,2.3c-1.11,2-2.75,5-4.85,8.86l-18.05,32.69C296.18,236.52,274.87,275,251,318.16l-.07.13H234.33l-136-.07-41.22-.09-11.21,0-2.91,0Z" style="fill:#263238"></path><polygon points="413.37 312.33 428.21 312.33 345.23 164.18 336.07 164.18 413.37 312.33" style="fill:#FF725E"></polygon><polygon points="413.37 312.33 428.21 312.33 345.23 164.18 336.07 164.18 413.37 312.33" style="opacity:0.4"></polygon><rect x="180.31" y="151.62" width="34.42" height="77.15" style="fill:#FF725E"></rect><polygon points="214.73 228.78 231.27 200.29 231.93 151.63 214.73 151.63 214.73 228.78" style="fill:#FF725E"></polygon><rect x="180.31" y="151.62" width="34.42" height="77.15" style="opacity:0.30000000000000004"></rect><path d="M180.31,151.62a2.87,2.87,0,0,1,0,.39c0,.27,0,.65,0,1.13,0,1,0,2.48,0,4.36,0,3.83,0,9.35.08,16.23,0,13.82.05,33.1.08,55.05l-.25-.26h34.42l-.26.26c0-21.95.07-41.23.09-55.05,0-6.88.06-12.4.08-16.23,0-1.88,0-3.34,0-4.36,0-.48,0-.86,0-1.13a1.93,1.93,0,0,1,0-.39s0,.13,0,.39,0,.65,0,1.13c0,1,0,2.48,0,4.36,0,3.83,0,9.35.07,16.23,0,13.82.06,33.1.09,55.05V229H180.05v-.25c0-21.95.07-41.23.09-55.05,0-6.88.06-12.4.08-16.23,0-1.88,0-3.34,0-4.36,0-.48,0-.86,0-1.13A1.65,1.65,0,0,1,180.31,151.62Z" style="fill:#263238"></path><g style="opacity:0.4"><path d="M179.4,230.48a96.86,96.86,0,0,0-14,26c8.72-9.78,17.86-19.87,29.95-24.92l-5.89,13a31.33,31.33,0,0,1,23.34-13.93l.12,1.83c1.7-2,4.11-5.31,3.61-4.92l-1.84,1.19H180.31Z"></path></g></g><g id="Bird"><path d="M459,107.46s-6.8.54-6.62,9.11-.69,12.29,2.12,17.63c1.82,3.46,12,6.39,16,6.83s8.38,1.3,8.38,1.3,9.24,3.79,10.36,3.1-2.86-5-2.86-5S476.2,124.22,469.46,121a2.34,2.34,0,0,1-1.33-2C467.9,115.52,466.57,107.11,459,107.46Z" style="fill:#FF725E"></path><path d="M463.65,109.49a4,4,0,0,0-4.35,2,2.94,2.94,0,0,0-2.12-1.93,3.13,3.13,0,0,0-2.52.71,4.73,4.73,0,0,0-1.43,2.23,6.32,6.32,0,0,0,.66,5.24,6.42,6.42,0,0,0,9.59,1.46,9.89,9.89,0,0,0,2.21-3,5.62,5.62,0,0,0,.66-2.87A3.94,3.94,0,0,0,463.65,109.49Z" style="fill:#fff"></path><path d="M463.65,109.49a2.36,2.36,0,0,1,.41.11,3,3,0,0,1,1,.65,4.77,4.77,0,0,1,1.27,4.17,6.87,6.87,0,0,1-1.17,2.88,7.57,7.57,0,0,1-2.45,2.57,6.49,6.49,0,0,1-7.69-.59,6.37,6.37,0,0,1-2.17-4,6.1,6.1,0,0,1,.89-4.12,3.5,3.5,0,0,1,3.26-1.66,2.85,2.85,0,0,1,1.51.75,2.49,2.49,0,0,1,.81,1.28l-.12,0a4,4,0,0,1,3.05-2.08,3.12,3.12,0,0,1,1.36.08,5.37,5.37,0,0,0-1.35,0,4,4,0,0,0-2.94,2.07l-.08.16,0-.17a2.82,2.82,0,0,0-2.21-1.89,3.29,3.29,0,0,0-3.08,1.6,6,6,0,0,0-.85,4,6.13,6.13,0,0,0,2.11,3.88,6.37,6.37,0,0,0,3.77,1.53,6.57,6.57,0,0,0,3.68-.94,7.57,7.57,0,0,0,2.41-2.51,6.66,6.66,0,0,0,1.16-2.79,4.68,4.68,0,0,0-1.18-4.1A3.52,3.52,0,0,0,463.65,109.49Z" style="fill:#263238"></path><path d="M464.5,112.34s-.26-.12-.69-.2a2.2,2.2,0,0,0-1.59.36,2.39,2.39,0,0,0-.9,1.39,5.71,5.71,0,0,1-.13.72s-.14-.28-.08-.76a2.3,2.3,0,0,1,.92-1.6,2.13,2.13,0,0,1,1.83-.32C464.33,112.07,464.53,112.32,464.5,112.34Z" style="fill:#263238"></path><path d="M463.56,112.27a1.43,1.43,0,0,0-1.13-.11,2.34,2.34,0,0,0-1,.62l-.15.48a.7.7,0,0,0,.3.84,1.68,1.68,0,0,0,1.38.35,1.36,1.36,0,0,0,1-.92A1.15,1.15,0,0,0,463.56,112.27Z" style="fill:#263238"></path><path d="M454.6,112.57s.17-.28.64-.42a2.17,2.17,0,0,1,1.83.32,2.34,2.34,0,0,1,.93,1.6c.05.48-.05.77-.09.76s0-.29-.13-.72a2.42,2.42,0,0,0-.89-1.39,2.16,2.16,0,0,0-1.6-.35C454.86,112.44,454.63,112.61,454.6,112.57Z" style="fill:#263238"></path><path d="M455.54,112.5a1.4,1.4,0,0,1,1.13-.12,2.3,2.3,0,0,1,1,.63l.16.47a.74.74,0,0,1-.31.85,1.71,1.71,0,0,1-1.38.35,1.39,1.39,0,0,1-1-.93A1.14,1.14,0,0,1,455.54,112.5Z" style="fill:#263238"></path><path d="M460.43,116a.52.52,0,0,0-.34-.27,1.08,1.08,0,0,0-.75,0,.69.69,0,0,0-.5.5,3.55,3.55,0,0,0,.9,1.9,11.55,11.55,0,0,0,.66-1.78A.63.63,0,0,0,460.43,116Z" style="fill:#263238"></path><path d="M486.1,140.31a5.14,5.14,0,0,1-1.17.28,8.34,8.34,0,0,1-3.24-.28,18.63,18.63,0,0,1-4.4-2,30,30,0,0,0-5.26-2.62,29.24,29.24,0,0,1-5.49-2.21A10.07,10.07,0,0,1,462,127a6.81,6.81,0,0,1-.15-1.18,1.07,1.07,0,0,1,.06.3c0,.2.09.49.17.86a10.13,10.13,0,0,0,1.24,3,10,10,0,0,0,3.35,3.35,30.16,30.16,0,0,0,5.46,2.17,29.56,29.56,0,0,1,5.28,2.65,19,19,0,0,0,4.35,2,8.76,8.76,0,0,0,3.19.34C485.68,140.43,486.09,140.29,486.1,140.31Z" style="fill:#263238"></path><path d="M486.31,140.47a.72.72,0,0,1-.13.3,2.58,2.58,0,0,1-.62.65,6.94,6.94,0,0,1-2.76,1,11.5,11.5,0,0,1-2.93.16,8.55,8.55,0,0,1-.89-.11,1.11,1.11,0,0,1-.31-.08,10.7,10.7,0,0,1,1.2,0,13,13,0,0,0,2.89-.21,7.76,7.76,0,0,0,2.71-.93A3.22,3.22,0,0,0,486.31,140.47Z" style="fill:#263238"></path><path d="M462.67,135.55s-.09,0-.27,0a4.29,4.29,0,0,1-.77,0,6.7,6.7,0,0,1-2.48-.57,6.84,6.84,0,0,1-2.1-1.44,4.13,4.13,0,0,1-.5-.59c-.1-.15-.16-.23-.14-.24a9.17,9.17,0,0,0,2.82,2.08A9.46,9.46,0,0,0,462.67,135.55Z" style="fill:#263238"></path><path d="M463.93,135.12a3.44,3.44,0,0,1-1-.32,11.59,11.59,0,0,1-4.14-2.92,3.62,3.62,0,0,1-.64-.84,8.14,8.14,0,0,1,.74.74,15.63,15.63,0,0,0,1.93,1.62,15,15,0,0,0,2.17,1.27A9.75,9.75,0,0,1,463.93,135.12Z" style="fill:#263238"></path><path d="M468.54,138.76l-3.31.06a9.61,9.61,0,0,1,1.11,7.18l1.39.31A10.17,10.17,0,0,0,468.54,138.76Z" style="fill:#FF725E"></path><path d="M473.31,138.76l-3.31.06a9.61,9.61,0,0,1,1.11,7.18l1.39.31A10.22,10.22,0,0,0,473.31,138.76Z" style="fill:#FF725E"></path><g style="opacity:0.30000000000000004"><path d="M478.46,138.94a45.35,45.35,0,0,0-4.17-2.39c-2.28-1.05-4.79-1.6-7-2.77a9.87,9.87,0,0,1-5.13-6.19,11.08,11.08,0,0,0,3,6.59,14.06,14.06,0,0,0,4,2.41c1.61.7,3.26,1.34,4.9,2l4.06,1.56a11.74,11.74,0,0,0,2.59.79,10,10,0,0,0,4.15-.32A11.29,11.29,0,0,1,478.46,138.94Z"></path></g></g><g id="Plants"><path d="M433.69,363.18a3.26,3.26,0,0,0-4.4,3.79c-2.12-.94-4.76.31-5.91,2.33a8.74,8.74,0,0,0-.39,6.76,3.67,3.67,0,0,0-2.17,6.56,3.67,3.67,0,0,0-1.48,7.12,4.85,4.85,0,0,0,4,8.63A5.12,5.12,0,0,0,431,402.7a7.85,7.85,0,0,0,12,.95,9,9,0,0,0,5.1,1.77c1.82-.1,3.68-1.6,3.52-3.42,1.65.57,3.48,1,5.1.4s2.65-2.9,1.49-4.2a5.23,5.23,0,0,0,5.9-5.15,4.07,4.07,0,0,0,5.26-5.58c2-.76,2.64-3.47,1.84-5.44s-2.62-3.35-4.42-4.49a5.75,5.75,0,0,0-5.26-9,4.3,4.3,0,0,0-7.14-4.2,4.8,4.8,0,0,0-6-4.5,7.88,7.88,0,0,1-2.57.79c-1.23,0-2.17-1.1-3.33-1.51a3.38,3.38,0,0,0-4.28,2.64,1.55,1.55,0,0,0-1.83-1.37,2.52,2.52,0,0,0-1.79,1.72,7.29,7.29,0,0,0-.26,2.59" style="fill:#455a64"></path><path d="M433.09,388.37c.1,0,1,7.55,2,16.88s1.78,16.91,1.68,16.92-1-7.54-2-16.88S433,388.39,433.09,388.37Z" style="fill:#263238"></path><path d="M434.44,399.37a29.94,29.94,0,0,1-2.94-3.53,29.08,29.08,0,0,1-2.65-3.74,29.94,29.94,0,0,1,2.94,3.53A28.31,28.31,0,0,1,434.44,399.37Z" style="fill:#263238"></path><path d="M439.87,378.1c.1,0,.53,9.85,1,22s.71,22,.61,22-.53-9.84-1-22S439.77,378.11,439.87,378.1Z" style="fill:#263238"></path><path d="M445.27,378.56a1.85,1.85,0,0,1,0,.44c0,.33,0,.75,0,1.27,0,1.14-.08,2.72-.13,4.65-.11,3.92-.23,9.35-.25,15.34s.05,11.42.13,15.35c0,1.93.07,3.5.1,4.65,0,.52,0,.94,0,1.26a3.26,3.26,0,0,1,0,.45,1.37,1.37,0,0,1-.06-.44c0-.33-.05-.75-.08-1.27-.07-1.09-.14-2.68-.21-4.65-.15-3.92-.26-9.35-.24-15.35s.18-11.43.35-15.35c.09-2,.17-3.55.25-4.65l.09-1.26A2.59,2.59,0,0,1,445.27,378.56Z" style="fill:#263238"></path><path d="M447.55,393a7.47,7.47,0,0,1-1.11,2.67,7.24,7.24,0,0,1-1.82,2.26c-.08-.07.71-1.08,1.51-2.44S447.45,393,447.55,393Z" style="fill:#263238"></path><path d="M455.24,384.88a2.18,2.18,0,0,1-.05.38c-.06.28-.14.63-.23,1.07-.21,1-.5,2.31-.86,3.93-.73,3.32-1.7,7.92-2.66,13s-1.73,9.73-2.26,13.09c-.26,1.65-.48,3-.63,4q-.12.66-.18,1.08a2.09,2.09,0,0,1-.09.38,1.68,1.68,0,0,1,0-.39c0-.29.07-.65.12-1.09.11-.94.28-2.31.52-4,.46-3.38,1.19-8,2.16-13.13s2-9.69,2.76-13c.4-1.66.73-3,1-3.91.11-.43.21-.78.29-1.06A1.62,1.62,0,0,1,455.24,384.88Z" style="fill:#263238"></path><path d="M458.32,392.58a23.36,23.36,0,0,1-2.9,2.86,22.43,22.43,0,0,1-3.14,2.61,23.92,23.92,0,0,1,2.9-2.87A23.24,23.24,0,0,1,458.32,392.58Z" style="fill:#263238"></path><path d="M453.77,391.13a9.76,9.76,0,0,1-1.41-2.28,10.67,10.67,0,0,1-1.09-2.45,9.76,9.76,0,0,1,1.41,2.28A10.17,10.17,0,0,1,453.77,391.13Z" style="fill:#263238"></path><path d="M469.37,371.34a4.76,4.76,0,0,1,3.51-5.06,4.64,4.64,0,0,1-3.51,5.06" style="fill:#455a64"></path><path d="M470.49,373.65c1.05,1.68,4.35,2.08,6.32,1a4.65,4.65,0,0,0-6.32-1" style="fill:#455a64"></path><path d="M135.84,463.74a18.34,18.34,0,0,1-1.18-2.25,48.32,48.32,0,0,0-3.09-5.27,50.25,50.25,0,0,0-3.75-4.83,15.51,15.51,0,0,1-1.66-1.93,9.93,9.93,0,0,1,1.93,1.68,34.66,34.66,0,0,1,3.91,4.78,33.52,33.52,0,0,1,3,5.41A9.82,9.82,0,0,1,135.84,463.74Z" style="fill:#263238"></path><path d="M133.48,440.42a31.16,31.16,0,0,1,.79,3.28,70.2,70.2,0,0,0,2.26,7.77,73,73,0,0,0,3.17,7.45c.91,1.86,1.54,3,1.47,3s-.23-.24-.54-.73-.76-1.22-1.26-2.13a52.68,52.68,0,0,1-3.33-7.45,51.08,51.08,0,0,1-2.13-7.87c-.19-1-.32-1.86-.38-2.44A3.69,3.69,0,0,1,133.48,440.42Z" style="fill:#263238"></path><path d="M145.36,447a37.24,37.24,0,0,0-1.14,7.47,38,38,0,0,0,.92,7.49,7,7,0,0,1-.79-2.11,20.27,20.27,0,0,1-.65-5.39,20.64,20.64,0,0,1,.81-5.38A6.83,6.83,0,0,1,145.36,447Z" style="fill:#263238"></path><path d="M218.09,462.18c-.13.09-1.86-2.41-4.2-5.32s-4.4-5.13-4.29-5.24a7.09,7.09,0,0,1,1.5,1.32,45.88,45.88,0,0,1,3.2,3.6,47.47,47.47,0,0,1,2.82,3.89A7.53,7.53,0,0,1,218.09,462.18Z" style="fill:#263238"></path><path d="M215.86,449.73c.15,0,.62,2.36,1.6,5.17s2.06,5,1.93,5.05a15.42,15.42,0,0,1-2.42-4.88A15.69,15.69,0,0,1,215.86,449.73Z" style="fill:#263238"></path><path d="M225,449.15a43.3,43.3,0,0,0-1.14,6.08,45.2,45.2,0,0,0,.23,6.19,5.08,5.08,0,0,1-.52-1.77,17.24,17.24,0,0,1-.23-4.45,17.8,17.8,0,0,1,.88-4.37A5.13,5.13,0,0,1,225,449.15Z" style="fill:#263238"></path><path d="M34.39,453c-.15,0-.94-3-2.63-6.48s-3.6-6-3.47-6.08A6.74,6.74,0,0,1,29.65,442a27.75,27.75,0,0,1,2.57,4.29A26.7,26.7,0,0,1,34,450.92,6.54,6.54,0,0,1,34.39,453Z" style="fill:#263238"></path><path d="M38.23,452.65c-.16,0-.58-2.89-1.8-6.27s-2.72-5.92-2.58-6A5.7,5.7,0,0,1,35,442a26,26,0,0,1,3.13,8.76A5.69,5.69,0,0,1,38.23,452.65Z" style="fill:#263238"></path></g><g id="Floor"><path d="M475.6,422.08c0,.14-95.3.26-212.83.26s-212.85-.12-212.85-.26,95.28-.26,212.85-.26S475.6,421.93,475.6,422.08Z" style="fill:#263238"></path></g></svg>