<svg xmlns="http://www.w3.org/2000/svg" viewBox="0 0 500 500"><g id="background-complete"><rect y="382.4" width="500" height="0.25" style="fill:#ebebeb"></rect><rect x="416.78" y="398.49" width="33.12" height="0.25" style="fill:#ebebeb"></rect><rect x="322.53" y="401.21" width="8.69" height="0.25" style="fill:#ebebeb"></rect><rect x="396.59" y="389.21" width="19.19" height="0.25" style="fill:#ebebeb"></rect><rect x="52.46" y="390.89" width="43.19" height="0.25" style="fill:#ebebeb"></rect><rect x="104.56" y="390.89" width="6.33" height="0.25" style="fill:#ebebeb"></rect><rect x="131.47" y="395.11" width="93.68" height="0.25" style="fill:#ebebeb"></rect><path d="M237,337.8H43.91a5.71,5.71,0,0,1-5.7-5.71V60.66A5.71,5.71,0,0,1,43.91,55H237a5.71,5.71,0,0,1,5.71,5.71V332.09A5.71,5.71,0,0,1,237,337.8ZM43.91,55.2a5.46,5.46,0,0,0-5.45,5.46V332.09a5.46,5.46,0,0,0,5.45,5.46H237a5.47,5.47,0,0,0,5.46-5.46V60.66A5.47,5.47,0,0,0,237,55.2Z" style="fill:#ebebeb"></path><path d="M453.31,337.8H260.21a5.72,5.72,0,0,1-5.71-5.71V60.66A5.72,5.72,0,0,1,260.21,55h193.1A5.71,5.71,0,0,1,459,60.66V332.09A5.71,5.71,0,0,1,453.31,337.8ZM260.21,55.2a5.47,5.47,0,0,0-5.46,5.46V332.09a5.47,5.47,0,0,0,5.46,5.46h193.1a5.47,5.47,0,0,0,5.46-5.46V60.66a5.47,5.47,0,0,0-5.46-5.46Z" style="fill:#ebebeb"></path><path d="M136.68,380.17H456s-9.85-15.17-18.06-27.33c-5.2-7.69-9.73-14.18-10.71-14.88-2.52-1.8-9-2.88-11.87-9.55s-2.87-9.51-7-17.06-20-28.05-21.65-28-16-22.34-21.43-24.14-6-7.19-11.89-15.28-25.42-34-33.69-34.59-28.52,38.34-36.35,41.24-16.51-9.71-19.28-6.65S255.7,258.49,250,267.84,238.52,281.5,238,285s-12.15,9.77-17.95,9.77c-2,0-6.21,4.36-11,10.14l0,0c-9.33,11.29-20.64,27.95-20.64,27.95-1.55,2.25-4.26-1.08-8.93.71S136.68,380.17,136.68,380.17Z" style="fill:#f0f0f0"></path><path d="M136.68,380.17H456s-9.85-15.17-18.06-27.33c-4.76-5.25-8.58-9.18-10-10-5.21-3-9.25-9.81-12.39-10.68a25.09,25.09,0,0,1-6.87-3.74s-4.87-15.25-6-17.94S386.77,291,383.48,289.82s-5.42,2.77-7.38,4.93-17,29.09-17,29.09l-9.53-6.33s-5.54-7.12-7.65-10.68-4.15-2.77-4.15-2.77-10-11.47-10.48-14.56-6.6-1.66-7-1.66-10.32,4.75-10.32,4.75,10.37-13,14.75-9.53,29.24,27.41,29.24,27.41l14.17-17.88-6.65-9.53s-9.1-11.44-9.89-13-16.22-23.34-16.46-24.53S321.89,234,320.26,234.82s-5.1,3.18-9,8.34-5.6,8.29-9.66,14.94-7.41,8.38-8.75,10-16.15,17.6-16.61,18.1l11.25-18.1s-5.57-5.23-9.17-8.79-4.71,1.19-9.43,4.75-5.56,5.93-9.12,11.41-20.42,25-20.42,25,2.62,4.35,5.46,8.76,4.75,11.54,4.75,11.54l-5-2.89S234.06,307.62,232.22,305s-6.86-7.64-11.24-7.25c-4.22.39-11.4,6.77-11.91,7.22l0,0c-9.33,11.29-20.64,27.95-20.64,27.95-1.55,2.25-4.26-1.08-8.93.71S136.68,380.17,136.68,380.17Z" style="fill:#e6e6e6"></path><circle cx="348.47" cy="127.68" r="30.58" style="fill:#f5f5f5"></circle><path d="M342.19,164.26a8.82,8.82,0,0,0-11.35-8.44,18.66,18.66,0,0,0-18.47-21.38,19.39,19.39,0,0,0-3.44.32A16.32,16.32,0,0,0,278.67,143h-.27a15,15,0,1,0,0,30.08h55.22A8.81,8.81,0,0,0,342.19,164.26Z" style="fill:#ebebeb"></path><path d="M426,124.32a5.63,5.63,0,0,0-5.63-5.63,5.36,5.36,0,0,0-1.61.24,12.36,12.36,0,0,0,.12-1.73,11.92,11.92,0,0,0-11.92-11.92,12.14,12.14,0,0,0-2.19.2,10.42,10.42,0,0,0-19.32,5.27h-.18a9.61,9.61,0,0,0,0,19.21H420.5A5.62,5.62,0,0,0,426,124.32Z" style="fill:#ebebeb"></path><path d="M139.87,193.48a3.45,3.45,0,0,0-3.45-3.45,3.65,3.65,0,0,0-1,.15,6.23,6.23,0,0,0,.08-1.06,7.3,7.3,0,0,0-7.3-7.3,7.53,7.53,0,0,0-1.35.12A6.38,6.38,0,0,0,115,185.17h-.11a5.88,5.88,0,1,0,0,11.76h21.6A3.46,3.46,0,0,0,139.87,193.48Z" style="fill:#ebebeb"></path><path d="M107.21,112.74a3.45,3.45,0,0,0-3.45-3.44,3.59,3.59,0,0,0-1,.14,7.28,7.28,0,0,0-7.22-8.36,6.72,6.72,0,0,0-1.35.13,6.38,6.38,0,0,0-11.84,3.22h-.1a5.88,5.88,0,0,0,0,11.76h21.6A3.44,3.44,0,0,0,107.21,112.74Z" style="fill:#ebebeb"></path><path d="M53,380.16H386.72s-10.55-23.5-15.94-21.24-22.42-11.85-24.88-17.53-11,1.85-22.48-.55-28.28-39.31-33.47-37.4-20.22,36.44-23.79,37.72-7-9.91-12-10.87-8.92,7.67-9.89,10.07-5.79,10.07-5.79,10.07-7.63-2.4-10.05-4.32-14.36-25.88-16.88-29.29-7.55-6.18-15.15-4.75-10.62-12-19-20.17-12.69-5.24-15.6-5.63-18.67-26.94-22.5-24.69-21.09,34.67-24.2,38.5-10.32-2.39-11.17,0-14.23,21.1-14.23,21.1-6-.48-9.63,2.4c-.61.48-1.78,2.41-3.31,5.28l-.31.58C68.79,344,53,380.16,53,380.16Z" style="fill:#ebebeb"></path><path d="M53,380.16H212.76c4.78-7,12.63-18.62,12.38-19.44-.36-1.18-15.1-30.3-22.12-34.27s-12.26-.72-12.26-.72l5.67,15.42c-.42-.54-13.78-17.76-17.33-20.34s-2.3-4.78-1.69-5.86,8.46,1.71,8.88,1.86c-.61-.63-16.23-16.44-19-17.94s-8.56-1.54-8.56-1.54-10.49-13.85-14.09-19-12.76,2.47-14.47,8.39-7.83,12-7.83,12L118,311s13.13-9.71,15.56-9a53.64,53.64,0,0,0,8.1,1.08s2.6-7.55,5.83-8.63,10.07,4,15.11,10.79c6.34,8.61-8.64-9.71-15.83,0s-8.39,6.47-12.1,3.95-16.65,17.63-19.53,20.5-8.46-6.83-8.46-6.83,5.57,5,4.85,1.44-1-16.35-6.4-16.9-10.82,15.1-10.82,15.1l5.72,7.73-15.47-6.3-7.76,4.93-.31.58C68.79,344,53,380.16,53,380.16Z" style="fill:#e0e0e0"></path><path d="M381.63,380.16c-2.08-3.5-3.9-6.94-3.47-7.55.92-1.32-9.19-5.52-11.42-6.86s-4.59-2.26-10.39-1.92-3.91.75-5.46,1.92-1.82,9.57-1.82,9.57-3.1-5.71-3.17-9.57,5-6.83,5-6.83-1.33-2.26-2.51-3.87-6.73-9.89-10.33-11-10.06,1.8-12.95,3.59-2.87,1.8-5.39,3.23-1.8,2.89-2.88,8-2.87-.46-6,1.8-6.43,7.34-6.43,7.34.93-6.37,3.18-9.14,3.25-10.17,3.25-10.17l-3.25-7.59s-7.29-12.54-11.64-18.3-4.28-3.23-9.38,1.8S282,329,279,334.86s-12.42,20.19-12.42,20.19l.29-5.58s-6.5-6.83-9.38-4.67-5,6.83-5,6.83l3.25,3.42s3.94,7.73,5.61,8.78-4.19-1.42-8.86-3.11-8.27-7.65-11.16-5.67c-2.09,1.44-14.59,16.84-21.25,25.11Z" style="fill:#e0e0e0"></path></g><g id="background-simple"><path d="M347.76,315.86c-27.7,55.15-92.49,64.88-133.19,55.62S16,306.4,109.54,161.77,459.68,93.11,347.76,315.86Z" style="fill:#407BFF"></path><path d="M347.76,315.86c-27.7,55.15-92.49,64.88-133.19,55.62S16,306.4,109.54,161.77,459.68,93.11,347.76,315.86Z" style="fill:#fff;opacity:0.9"></path></g><g id="Shadow"><ellipse id="path" cx="250" cy="416.24" rx="193.89" ry="11.32" style="fill:#f5f5f5"></ellipse></g><g id="Trees"><path d="M350.11,338c.56-.48,1.27-1.1,1-1.8s-.89-.73-1.29-1.16c-.8-.89,0-2.33.9-3.05s2.17-1.28,2.56-2.41a3.37,3.37,0,0,1,.32-.89c.58-.84,1.9-.29,2.73.32a4.33,4.33,0,0,0,1,.54,2.23,2.23,0,0,1,.63-1.12c.56-.48,1.27-1.1,1-1.8s-.89-.73-1.29-1.16c-.81-.89-.05-2.33.9-3.05s2.17-1.29,2.56-2.41a3.37,3.37,0,0,1,.32-.89c.58-.84,1.9-.29,2.72.32s2.16,1.14,2.72.28c.33-.49.14-1.2.45-1.7.52-.84,1.84-.44,2.6.2s1.58,1.47,2.54,1.26a7.15,7.15,0,0,1-.74-.31c-1.24-.65-1.07-3-.13-3.82.56-.48,1.27-1.1,1-1.79s-.9-.73-1.29-1.17c-.81-.88-.05-2.32.9-3.05s2.17-1.28,2.56-2.41a3.31,3.31,0,0,1,.32-.88c.58-.85,1.9-.3,2.72.31s2.16,1.15,2.72.29c.33-.5.14-1.2.45-1.71.52-.84,1.84-.44,2.6.2s1.59,1.49,2.55,1.26,1.35-1.15,2.2-1.25,1.59.81,1.82,1.68a9.07,9.07,0,0,0,.7,2.61H391a3.46,3.46,0,0,0,1.41-1.6,3.18,3.18,0,0,1,.32-.88c.58-.85,1.9-.3,2.72.31s2.16,1.14,2.72.28c.33-.49.14-1.19.45-1.7.52-.84,1.84-.44,2.6.2s1.59,1.49,2.55,1.26,1.35-1.15,2.2-1.25,1.59.81,1.82,1.68a9.07,9.07,0,0,0,.7,2.61c1.28-.25,3.06-.2,3.37,1.07a2,2,0,0,1-.42,1.53,3.85,3.85,0,0,1,.45.28c.75.64,1.59,1.5,2.55,1.27s1.35-1.15,2.19-1.26,1.6.81,1.83,1.69a9.48,9.48,0,0,0,.69,2.61c1.29-.25,3.07-.21,3.38,1.07.2.84-.46,1.62-1,2.3s-1,1.7-.43,2.37a4.48,4.48,0,0,1,2.57.64,1.91,1.91,0,0,1,.73,2.34,2.93,2.93,0,0,1-1.63,1.14c-1.93.78-1.31,2.5-.74,3.88.07,0,.14,0,.21,0,.83-.2,1.34-1.15,2.19-1.26s1.59.81,1.82,1.69a9.86,9.86,0,0,0,.7,2.61c1.29-.25,3.07-.21,3.37,1.07.21.84-.45,1.62-1,2.3s-1,1.7-.43,2.37a4.45,4.45,0,0,1,2.56.64,1.92,1.92,0,0,1,.74,2.34,2.93,2.93,0,0,1-1.63,1.14c-3.38,1.37,1.06,5.6-.62,5.88-2.14.36-4.66-.06-4.82,2.58a6.54,6.54,0,0,1-.19,1.27c-.41,1.47-1.45,2.1-3.61,1.08-1.36-.64-1.69-1.44-3.25-1.24-1.12.14-1.92.9-3.14.8a1.08,1.08,0,0,1-.5-.12,1.38,1.38,0,0,1-.37-.39,2,2,0,0,0-1.78-1.06,2.07,2.07,0,0,1-.19.51c-.39.56-1.26.2-1.8-.21s-1.43-.75-1.8-.18c-.21.32-.09.79-.29,1.12-.35.56-1.22.29-1.72-.13s-1-1-1.67-.83a4,4,0,0,1,.48.2c.82.43.71,2,.09,2.52-.37.32-.84.73-.68,1.19s.6.48.86.77c.53.58,0,1.53-.6,2s-1.43.85-1.69,1.59a1.92,1.92,0,0,1-.21.58c-.38.56-1.25.2-1.8-.2s-1.42-.76-1.79-.19c-.22.33-.09.79-.3,1.12-.34.56-1.22.3-1.71-.13s-1.05-1-1.69-.83-.89.76-1.45.83-1.05-.54-1.2-1.12a6.24,6.24,0,0,0-.46-1.72h0a2.32,2.32,0,0,0-.93,1.06,2.37,2.37,0,0,1-.21.58c-.39.56-1.25.2-1.8-.21s-1.42-.75-1.8-.18c-.21.32-.09.79-.29,1.12-.35.56-1.22.29-1.72-.13s-1.05-1-1.68-.83-.89.76-1.45.82-1.05-.53-1.21-1.11a5.83,5.83,0,0,0-.46-1.72c-.84.16-2,.13-2.22-.71a1.32,1.32,0,0,1,.27-1,1.75,1.75,0,0,1-.29-.18c-.5-.43-1.05-1-1.69-.84s-.88.76-1.44.83a.91.91,0,0,1-.76-.31c-.38.91-1.2,1.24-2.72.53-1.08-.51-1.34-1.14-2.56-1-.88.12-1.52.72-2.48.64a.9.9,0,0,1-.39-.1,1,1,0,0,1-.29-.31c-.86-1.22-1.53-.72-2.94-.78a.56.56,0,0,1-.31-.09.48.48,0,0,1-.12-.33,2.81,2.81,0,0,1,.09-1,.93.93,0,0,0,.06-.54c-.09-.25-.38-.34-.61-.45a1.91,1.91,0,0,1-1-2,2.63,2.63,0,0,0-1.17-.1c-1.12.14-1.92.91-3.15.8a1,1,0,0,1-.49-.12,1.38,1.38,0,0,1-.37-.39c-1.09-1.55-1.95-.92-3.73-1a.64.64,0,0,1-.39-.11.58.58,0,0,1-.16-.42,3.68,3.68,0,0,1,.12-1.32,1.18,1.18,0,0,0,.07-.69c-.11-.31-.48-.43-.77-.57a2.45,2.45,0,0,1-.75-3.65c.34-.4.86-.79.75-1.3s-.89-.66-1.41-.93C349,341.2,349.18,338.82,350.11,338Z" style="fill:#263238"></path><path d="M350.11,338c.56-.48,1.27-1.1,1-1.8s-.89-.73-1.29-1.16c-.8-.89,0-2.33.9-3.05s2.17-1.28,2.56-2.41a3.37,3.37,0,0,1,.32-.89c.58-.84,1.9-.29,2.73.32a4.33,4.33,0,0,0,1,.54,2.23,2.23,0,0,1,.63-1.12c.56-.48,1.27-1.1,1-1.8s-.89-.73-1.29-1.16c-.81-.89-.05-2.33.9-3.05s2.17-1.29,2.56-2.41a3.37,3.37,0,0,1,.32-.89c.58-.84,1.9-.29,2.72.32s2.16,1.14,2.72.28c.33-.49.14-1.2.45-1.7.52-.84,1.84-.44,2.6.2s1.58,1.47,2.54,1.26a7.15,7.15,0,0,1-.74-.31c-1.24-.65-1.07-3-.13-3.82.56-.48,1.27-1.1,1-1.79s-.9-.73-1.29-1.17c-.81-.88-.05-2.32.9-3.05s2.17-1.28,2.56-2.41a3.31,3.31,0,0,1,.32-.88c.58-.85,1.9-.3,2.72.31s2.16,1.15,2.72.29c.33-.5.14-1.2.45-1.71.52-.84,1.84-.44,2.6.2s1.59,1.49,2.55,1.26,1.35-1.15,2.2-1.25,1.59.81,1.82,1.68a9.07,9.07,0,0,0,.7,2.61H391a3.46,3.46,0,0,0,1.41-1.6,3.18,3.18,0,0,1,.32-.88c.58-.85,1.9-.3,2.72.31s2.16,1.14,2.72.28c.33-.49.14-1.19.45-1.7.52-.84,1.84-.44,2.6.2s1.59,1.49,2.55,1.26,1.35-1.15,2.2-1.25,1.59.81,1.82,1.68a9.07,9.07,0,0,0,.7,2.61c1.28-.25,3.06-.2,3.37,1.07a2,2,0,0,1-.42,1.53,3.85,3.85,0,0,1,.45.28c.75.64,1.59,1.5,2.55,1.27s1.35-1.15,2.19-1.26,1.6.81,1.83,1.69a9.48,9.48,0,0,0,.69,2.61c1.29-.25,3.07-.21,3.38,1.07.2.84-.46,1.62-1,2.3s-1,1.7-.43,2.37a4.48,4.48,0,0,1,2.57.64,1.91,1.91,0,0,1,.73,2.34,2.93,2.93,0,0,1-1.63,1.14c-1.93.78-1.31,2.5-.74,3.88.07,0,.14,0,.21,0,.83-.2,1.34-1.15,2.19-1.26s1.59.81,1.82,1.69a9.86,9.86,0,0,0,.7,2.61c1.29-.25,3.07-.21,3.37,1.07.21.84-.45,1.62-1,2.3s-1,1.7-.43,2.37a4.45,4.45,0,0,1,2.56.64,1.92,1.92,0,0,1,.74,2.34,2.93,2.93,0,0,1-1.63,1.14c-3.38,1.37,1.06,5.6-.62,5.88-2.14.36-4.66-.06-4.82,2.58a6.54,6.54,0,0,1-.19,1.27c-.41,1.47-1.45,2.1-3.61,1.08-1.36-.64-1.69-1.44-3.25-1.24-1.12.14-1.92.9-3.14.8a1.08,1.08,0,0,1-.5-.12,1.38,1.38,0,0,1-.37-.39,2,2,0,0,0-1.78-1.06,2.07,2.07,0,0,1-.19.51c-.39.56-1.26.2-1.8-.21s-1.43-.75-1.8-.18c-.21.32-.09.79-.29,1.12-.35.56-1.22.29-1.72-.13s-1-1-1.67-.83a4,4,0,0,1,.48.2c.82.43.71,2,.09,2.52-.37.32-.84.73-.68,1.19s.6.48.86.77c.53.58,0,1.53-.6,2s-1.43.85-1.69,1.59a1.92,1.92,0,0,1-.21.58c-.38.56-1.25.2-1.8-.2s-1.42-.76-1.79-.19c-.22.33-.09.79-.3,1.12-.34.56-1.22.3-1.71-.13s-1.05-1-1.69-.83-.89.76-1.45.83-1.05-.54-1.2-1.12a6.24,6.24,0,0,0-.46-1.72h0a2.32,2.32,0,0,0-.93,1.06,2.37,2.37,0,0,1-.21.58c-.39.56-1.25.2-1.8-.21s-1.42-.75-1.8-.18c-.21.32-.09.79-.29,1.12-.35.56-1.22.29-1.72-.13s-1.05-1-1.68-.83-.89.76-1.45.82-1.05-.53-1.21-1.11a5.83,5.83,0,0,0-.46-1.72c-.84.16-2,.13-2.22-.71a1.32,1.32,0,0,1,.27-1,1.75,1.75,0,0,1-.29-.18c-.5-.43-1.05-1-1.69-.84s-.88.76-1.44.83a.91.91,0,0,1-.76-.31c-.38.91-1.2,1.24-2.72.53-1.08-.51-1.34-1.14-2.56-1-.88.12-1.52.72-2.48.64a.9.9,0,0,1-.39-.1,1,1,0,0,1-.29-.31c-.86-1.22-1.53-.72-2.94-.78a.56.56,0,0,1-.31-.09.48.48,0,0,1-.12-.33,2.81,2.81,0,0,1,.09-1,.93.93,0,0,0,.06-.54c-.09-.25-.38-.34-.61-.45a1.91,1.91,0,0,1-1-2,2.63,2.63,0,0,0-1.17-.1c-1.12.14-1.92.91-3.15.8a1,1,0,0,1-.49-.12,1.38,1.38,0,0,1-.37-.39c-1.09-1.55-1.95-.92-3.73-1a.64.64,0,0,1-.39-.11.58.58,0,0,1-.16-.42,3.68,3.68,0,0,1,.12-1.32,1.18,1.18,0,0,0,.07-.69c-.11-.31-.48-.43-.77-.57a2.45,2.45,0,0,1-.75-3.65c.34-.4.86-.79.75-1.3s-.89-.66-1.41-.93C349,341.2,349.18,338.82,350.11,338Z" style="fill:#fff;opacity:0.5"></path><path d="M399.64,347.89s-2.08,2.94-2.8,3.88-4.31,6.74-4.79,10.59c-.06.41-.11.76-.16,1.07,1.55,10.19,1.3,28.84,1.25,32h-4.89c-.05-3.6-.46-36.5-.62-37.51a12.44,12.44,0,0,0-5.36-6.77c-3.16-1.66-5.89-7.17-5.89-7.17h1a17.84,17.84,0,0,0,4.52,5.24,9.58,9.58,0,0,0,1.19.71,17.06,17.06,0,0,1,1.06-5.95l.54.51a14.16,14.16,0,0,0-.41,6,10.91,10.91,0,0,1,2.75,1.84c2.75-3.58,4.3-11.78,4.3-11.78l.71.39a41,41,0,0,1-.92,5,80.86,80.86,0,0,1-2.74,7.93,19,19,0,0,1,2.08,3.91,1.69,1.69,0,0,1,.27-.32c1.79-1.62,5.17-9.29,5.17-9.29.81-1.78-.43-6.46-.43-6.46h.94l.42,4.09,2.37-2.59.43.36-2.51,3.23-1.29,4.1,3.37-3.74Z" style="fill:#263238"></path><path d="M392.77,362a1.7,1.7,0,0,0,1,.67c2,.79-.62,3.26.36,3.42,1.25.21,2.72,0,2.81,1.51a4,4,0,0,0,.11.74c.24.86.85,1.22,2.1.63.8-.37,1-.84,1.9-.73.65.09,1.12.53,1.84.47a.53.53,0,0,0,.28-.07.61.61,0,0,0,.22-.23c.63-.9,1.14-.53,2.18-.58a.33.33,0,0,0,.22-.06.37.37,0,0,0,.1-.25,2.09,2.09,0,0,0,0-.56.84.84,0,0,1,.36.41.92.92,0,0,0,.09.23c.14.21.48.07.69-.08a1,1,0,0,1,.25-.14.54.54,0,0,0,.15.28c.14.12.32.28.26.46s-.23.18-.33.29,0,.59.23.78.55.32.65.61a1.43,1.43,0,0,0,.08.22c.15.22.48.08.69-.08s.55-.29.69-.07,0,.3.12.43.46.11.65,0,.41-.37.65-.32l-.19.08c-.31.16-.27.77,0,1s.32.28.26.45-.23.19-.33.3,0,.59.23.77.55.33.65.61a.63.63,0,0,0,.08.23c.14.21.48.07.69-.08s.55-.29.69-.08,0,.31.11.44.47.11.66,0,.4-.38.65-.32.34.29.55.31.41-.2.47-.42a2.07,2.07,0,0,1,.17-.66h0a.92.92,0,0,1,.36.4.63.63,0,0,0,.08.23c.15.21.48.07.69-.08s.55-.29.69-.07,0,.3.11.43.47.11.66-.05.4-.38.65-.32.34.29.55.32.41-.21.47-.43a2.37,2.37,0,0,1,.17-.66c.33.06.78,0,.86-.27a.51.51,0,0,0-.11-.39l.12-.07c.19-.17.4-.38.64-.32s.34.29.56.31.4-.2.46-.42a2.38,2.38,0,0,1,.18-.66c.32.06.78.05.85-.28s-.11-.41-.25-.58-.25-.43-.11-.6a1.11,1.11,0,0,0,.65-.16.5.5,0,0,0,.21-.53c.87.08,1.74.08,1.8,1.13a2.43,2.43,0,0,0,.09.58c.18.68.66,1,1.65.5.63-.3.78-.66,1.49-.57.52.06.89.41,1.45.37a.47.47,0,0,0,.4-.24c.5-.71.89-.42,1.71-.46a.29.29,0,0,0,.18-.05.25.25,0,0,0,.07-.19,1.8,1.8,0,0,0-.05-.61.48.48,0,0,1,0-.31c0-.15.21-.2.35-.27a1.11,1.11,0,0,0,.56-1.15,1.42,1.42,0,0,1,.68-.06c.65.08,1.12.53,1.84.47a.64.64,0,0,0,.28-.07.69.69,0,0,0,.22-.23c.63-.91,1.14-.54,2.18-.58a.41.41,0,0,0,.22-.07.35.35,0,0,0,.1-.24,2.22,2.22,0,0,0-.07-.77.62.62,0,0,1,0-.4c.06-.18.27-.25.45-.34a1.43,1.43,0,0,0,.43-2.13c-.2-.23-.5-.46-.43-.76s.52-.38.82-.54c.72-.38.62-1.76.07-2.23-.32-.27-.74-.64-.59-1s.52-.43.75-.68c.47-.52,0-1.36-.52-1.78s-1.27-.75-1.5-1.41a2.21,2.21,0,0,0-.18-.51c-.34-.5-1.11-.17-1.59.18a2.37,2.37,0,0,1-.59.31,1.32,1.32,0,0,0-.35-.65c-.32-.28-.74-.64-.59-1s.52-.43.75-.68c.47-.52,0-1.36-.53-1.78s-1.26-.75-1.49-1.41A1.84,1.84,0,0,0,434,348c-.33-.5-1.1-.18-1.58.18s-1.26.67-1.59.17c-.19-.29-.08-.7-.26-1-.31-.49-1.08-.26-1.52.12s-.92.86-1.48.73a4.27,4.27,0,0,0,.43-.18c.72-.37.63-1.76.08-2.22-.33-.28-.74-.64-.6-1.05s.52-.43.76-.68c.47-.52,0-1.35-.53-1.78s-1.26-.75-1.49-1.4a1.79,1.79,0,0,0-.19-.52c-.34-.49-1.11-.17-1.59.18s-1.26.67-1.58.17c-.19-.29-.08-.7-.26-1-.31-.49-1.08-.26-1.52.11s-.93.87-1.49.74-.79-.67-1.28-.73-.93.47-1.06,1a5.51,5.51,0,0,1-.41,1.52h0a2.12,2.12,0,0,1-.82-.94,2.5,2.5,0,0,0-.19-.52c-.34-.49-1.11-.17-1.59.19s-1.26.67-1.59.16c-.18-.29-.07-.7-.26-1-.3-.49-1.07-.26-1.51.11s-.93.87-1.49.74-.79-.67-1.28-.73-.93.47-1.06,1a5.51,5.51,0,0,1-.41,1.52c-.75-.14-1.79-.11-2,.63a1.15,1.15,0,0,0,.25.89,1.17,1.17,0,0,0-.26.17c-.44.37-.93.87-1.49.73s-.79-.67-1.28-.73-.93.47-1.07,1a5.09,5.09,0,0,1-.4,1.52c-.75-.14-1.79-.11-2,.63-.12.49.26.95.58,1.35s.57,1,.25,1.37a2.67,2.67,0,0,0-1.5.38,1.12,1.12,0,0,0-.43,1.37,1.81,1.81,0,0,0,.95.66c1.13.45.77,1.45.43,2.26h-.12c-.48-.11-.78-.67-1.28-.73s-.93.47-1.06,1a5.18,5.18,0,0,1-.41,1.52c-.75-.14-1.78-.12-2,.63-.12.49.26.94.57,1.34s.57,1,.25,1.38a2.56,2.56,0,0,0-1.49.38A1.1,1.1,0,0,0,392.77,362Zm30.82,4.94h.05a.73.73,0,0,1,.28.17c-.1.28-.23.54-.28.74C423.33,367.6,423.46,367.22,423.59,366.91Z" style="fill:#263238"></path><path d="M392.77,362a1.7,1.7,0,0,0,1,.67c2,.79-.62,3.26.36,3.42,1.25.21,2.72,0,2.81,1.51a4,4,0,0,0,.11.74c.24.86.85,1.22,2.1.63.8-.37,1-.84,1.9-.73.65.09,1.12.53,1.84.47a.53.53,0,0,0,.28-.07.61.61,0,0,0,.22-.23c.63-.9,1.14-.53,2.18-.58a.33.33,0,0,0,.22-.06.37.37,0,0,0,.1-.25,2.09,2.09,0,0,0,0-.56.84.84,0,0,1,.36.41.92.92,0,0,0,.09.23c.14.21.48.07.69-.08a1,1,0,0,1,.25-.14.54.54,0,0,0,.15.28c.14.12.32.28.26.46s-.23.18-.33.29,0,.59.23.78.55.32.65.61a1.43,1.43,0,0,0,.08.22c.15.22.48.08.69-.08s.55-.29.69-.07,0,.3.12.43.46.11.65,0,.41-.37.65-.32l-.19.08c-.31.16-.27.77,0,1s.32.28.26.45-.23.19-.33.3,0,.59.23.77.55.33.65.61a.63.63,0,0,0,.08.23c.14.21.48.07.69-.08s.55-.29.69-.08,0,.31.11.44.47.11.66,0,.4-.38.65-.32.34.29.55.31.41-.2.47-.42a2.07,2.07,0,0,1,.17-.66h0a.92.92,0,0,1,.36.4.63.63,0,0,0,.08.23c.15.21.48.07.69-.08s.55-.29.69-.07,0,.3.11.43.47.11.66-.05.4-.38.65-.32.34.29.55.32.41-.21.47-.43a2.37,2.37,0,0,1,.17-.66c.33.06.78,0,.86-.27a.51.51,0,0,0-.11-.39l.12-.07c.19-.17.4-.38.64-.32s.34.29.56.31.4-.2.46-.42a2.38,2.38,0,0,1,.18-.66c.32.06.78.05.85-.28s-.11-.41-.25-.58-.25-.43-.11-.6a1.11,1.11,0,0,0,.65-.16.5.5,0,0,0,.21-.53c.87.08,1.74.08,1.8,1.13a2.43,2.43,0,0,0,.09.58c.18.68.66,1,1.65.5.63-.3.78-.66,1.49-.57.52.06.89.41,1.45.37a.47.47,0,0,0,.4-.24c.5-.71.89-.42,1.71-.46a.29.29,0,0,0,.18-.05.25.25,0,0,0,.07-.19,1.8,1.8,0,0,0-.05-.61.48.48,0,0,1,0-.31c0-.15.21-.2.35-.27a1.11,1.11,0,0,0,.56-1.15,1.42,1.42,0,0,1,.68-.06c.65.08,1.12.53,1.84.47a.64.64,0,0,0,.28-.07.69.69,0,0,0,.22-.23c.63-.91,1.14-.54,2.18-.58a.41.41,0,0,0,.22-.07.35.35,0,0,0,.1-.24,2.22,2.22,0,0,0-.07-.77.62.62,0,0,1,0-.4c.06-.18.27-.25.45-.34a1.43,1.43,0,0,0,.43-2.13c-.2-.23-.5-.46-.43-.76s.52-.38.82-.54c.72-.38.62-1.76.07-2.23-.32-.27-.74-.64-.59-1s.52-.43.75-.68c.47-.52,0-1.36-.52-1.78s-1.27-.75-1.5-1.41a2.21,2.21,0,0,0-.18-.51c-.34-.5-1.11-.17-1.59.18a2.37,2.37,0,0,1-.59.31,1.32,1.32,0,0,0-.35-.65c-.32-.28-.74-.64-.59-1s.52-.43.75-.68c.47-.52,0-1.36-.53-1.78s-1.26-.75-1.49-1.41A1.84,1.84,0,0,0,434,348c-.33-.5-1.1-.18-1.58.18s-1.26.67-1.59.17c-.19-.29-.08-.7-.26-1-.31-.49-1.08-.26-1.52.12s-.92.86-1.48.73a4.27,4.27,0,0,0,.43-.18c.72-.37.63-1.76.08-2.22-.33-.28-.74-.64-.6-1.05s.52-.43.76-.68c.47-.52,0-1.35-.53-1.78s-1.26-.75-1.49-1.4a1.79,1.79,0,0,0-.19-.52c-.34-.49-1.11-.17-1.59.18s-1.26.67-1.58.17c-.19-.29-.08-.7-.26-1-.31-.49-1.08-.26-1.52.11s-.93.87-1.49.74-.79-.67-1.28-.73-.93.47-1.06,1a5.51,5.51,0,0,1-.41,1.52h0a2.12,2.12,0,0,1-.82-.94,2.5,2.5,0,0,0-.19-.52c-.34-.49-1.11-.17-1.59.19s-1.26.67-1.59.16c-.18-.29-.07-.7-.26-1-.3-.49-1.07-.26-1.51.11s-.93.87-1.49.74-.79-.67-1.28-.73-.93.47-1.06,1a5.51,5.51,0,0,1-.41,1.52c-.75-.14-1.79-.11-2,.63a1.15,1.15,0,0,0,.25.89,1.17,1.17,0,0,0-.26.17c-.44.37-.93.87-1.49.73s-.79-.67-1.28-.73-.93.47-1.07,1a5.09,5.09,0,0,1-.4,1.52c-.75-.14-1.79-.11-2,.63-.12.49.26.95.58,1.35s.57,1,.25,1.37a2.67,2.67,0,0,0-1.5.38,1.12,1.12,0,0,0-.43,1.37,1.81,1.81,0,0,0,.95.66c1.13.45.77,1.45.43,2.26h-.12c-.48-.11-.78-.67-1.28-.73s-.93.47-1.06,1a5.18,5.18,0,0,1-.41,1.52c-.75-.14-1.78-.12-2,.63-.12.49.26.94.57,1.34s.57,1,.25,1.38a2.56,2.56,0,0,0-1.49.38A1.1,1.1,0,0,0,392.77,362Zm30.82,4.94h.05a.73.73,0,0,1,.28.17c-.1.28-.23.54-.28.74C423.33,367.6,423.46,367.22,423.59,366.91Z" style="fill:#fff;opacity:0.30000000000000004"></path><path d="M410.3,362.41s1.44,2,1.94,2.68,3,4.68,3.32,7.35c0,.29.07.53.11.74-1.07,7.07-.9,20-.87,22.21h3.4c0-2.49.31-25.31.42-26a8.63,8.63,0,0,1,3.72-4.7c2.19-1.16,4.08-5,4.08-5h-.69a12.52,12.52,0,0,1-3.14,3.63,5.83,5.83,0,0,1-.83.49,11.69,11.69,0,0,0-.73-4.12l-.38.35a9.83,9.83,0,0,1,.29,4.18,7.38,7.38,0,0,0-1.9,1.28c-1.91-2.49-3-8.17-3-8.17l-.49.27a29.33,29.33,0,0,0,.63,3.48c.36,1.47,1.42,4.24,1.91,5.5a12.82,12.82,0,0,0-1.45,2.71,1,1,0,0,0-.18-.22c-1.25-1.13-3.59-6.44-3.59-6.44-.56-1.24.3-4.48.3-4.48h-.65l-.29,2.83-1.65-1.79-.29.25,1.74,2.24.89,2.84L410.59,362Z" style="fill:#263238"></path><path d="M351.94,397.48a3.52,3.52,0,0,1,0-3.38,2.74,2.74,0,0,1,3.15-1.53c-1-1.41.43-3.3,2.65-2.64s1.29,2.64,4.37.31,5,1.45,5.1,2.67,1.15,3.17,2.25,3.38a2.09,2.09,0,0,1,1.29,2.77H348.19C348.78,397.39,351.94,397.48,351.94,397.48Z" style="fill:#263238"></path><path d="M377.91,397.48a3.52,3.52,0,0,1,0-3.38,2.75,2.75,0,0,1,3.16-1.53c-1-1.41.42-3.3,2.65-2.64s1.28,2.64,4.36.31,5.05,1.45,5.1,2.67,1.15,3.17,2.25,3.38l.22.08a1.78,1.78,0,0,1,1.18-1.33,4.25,4.25,0,0,0,3.23-4.1c-.07-1.81,2.1-3.57,3.74-1.87s1.41-1.31,3.59-2,4,1,3.43,2.66,1.55,2.63,4.12,1.25,5.41,1.13,4.86,3.09a5.29,5.29,0,0,0-.2,1l.06,0a4.26,4.26,0,0,0,3.23-4.1c-.07-1.81,2.1-3.57,3.74-1.87s1.41-1.31,3.59-2,4,1,3.43,2.66,1.55,2.63,4.12,1.25,5.41,1.13,4.86,3.09-.1,2.18,1.53,1.52,4.47,1.16,3.55,3.51H374.16C374.75,397.39,377.91,397.48,377.91,397.48Z" style="fill:#263238"></path><g style="opacity:0.2"><path d="M351.94,397.48a3.52,3.52,0,0,1,0-3.38,2.74,2.74,0,0,1,3.15-1.53c-1-1.41.43-3.3,2.65-2.64s1.29,2.64,4.37.31,5,1.45,5.1,2.67,1.15,3.17,2.25,3.38a2.09,2.09,0,0,1,1.29,2.77H348.19C348.78,397.39,351.94,397.48,351.94,397.48Z" style="fill:#fff"></path><path d="M377.91,397.48a3.52,3.52,0,0,1,0-3.38,2.75,2.75,0,0,1,3.16-1.53c-1-1.41.42-3.3,2.65-2.64s1.28,2.64,4.36.31,5.05,1.45,5.1,2.67,1.15,3.17,2.25,3.38l.22.08a1.78,1.78,0,0,1,1.18-1.33,4.25,4.25,0,0,0,3.23-4.1c-.07-1.81,2.1-3.57,3.74-1.87s1.41-1.31,3.59-2,4,1,3.43,2.66,1.55,2.63,4.12,1.25,5.41,1.13,4.86,3.09a5.29,5.29,0,0,0-.2,1l.06,0a4.26,4.26,0,0,0,3.23-4.1c-.07-1.81,2.1-3.57,3.74-1.87s1.41-1.31,3.59-2,4,1,3.43,2.66,1.55,2.63,4.12,1.25,5.41,1.13,4.86,3.09-.1,2.18,1.53,1.52,4.47,1.16,3.55,3.51H374.16C374.75,397.39,377.91,397.48,377.91,397.48Z" style="fill:#fff"></path></g><path d="M422.17,397.79a2.85,2.85,0,0,0,0-2.73,2.21,2.21,0,0,0-2.54-1.23c.78-1.14-.35-2.66-2.14-2.13s-1,2.13-3.52.25-4.07,1.16-4.11,2.15-.93,2.55-1.81,2.73a1.69,1.69,0,0,0-1.05,2.23h18.19C424.72,397.71,422.17,397.79,422.17,397.79Z" style="fill:#263238"></path><path d="M401.23,397.79a2.85,2.85,0,0,0,0-2.73,2.21,2.21,0,0,0-2.54-1.23c.78-1.14-.35-2.66-2.14-2.13s-1,2.13-3.52.25-4.07,1.16-4.11,2.15-.93,2.55-1.81,2.73l-.18.06a1.46,1.46,0,0,0-.95-1.07,3.41,3.41,0,0,1-2.6-3.31c.05-1.46-1.7-2.88-3-1.51s-1.14-1.05-2.9-1.64-3.24.84-2.76,2.14-1.25,2.12-3.33,1-4.35.91-3.91,2.49a5.41,5.41,0,0,1,.16.84l-.05,0a3.41,3.41,0,0,1-2.6-3.31c.06-1.46-1.7-2.88-3-1.51s-1.14-1.05-2.89-1.64-3.25.84-2.77,2.14-1.25,2.12-3.32,1-4.36.91-3.92,2.49.08,1.76-1.23,1.23-3.6.93-2.87,2.83h59.3C403.78,397.71,401.23,397.79,401.23,397.79Z" style="fill:#263238"></path><path d="M422.17,397.79a2.85,2.85,0,0,0,0-2.73,2.21,2.21,0,0,0-2.54-1.23c.78-1.14-.35-2.66-2.14-2.13s-1,2.13-3.52.25-4.07,1.16-4.11,2.15-.93,2.55-1.81,2.73a1.69,1.69,0,0,0-1.05,2.23h18.19C424.72,397.71,422.17,397.79,422.17,397.79Z" style="fill:#fff;opacity:0.35000000000000003"></path><path d="M401.23,397.79a2.85,2.85,0,0,0,0-2.73,2.21,2.21,0,0,0-2.54-1.23c.78-1.14-.35-2.66-2.14-2.13s-1,2.13-3.52.25-4.07,1.16-4.11,2.15-.93,2.55-1.81,2.73l-.18.06a1.46,1.46,0,0,0-.95-1.07,3.41,3.41,0,0,1-2.6-3.31c.05-1.46-1.7-2.88-3-1.51s-1.14-1.05-2.9-1.64-3.24.84-2.76,2.14-1.25,2.12-3.33,1-4.35.91-3.91,2.49a5.41,5.41,0,0,1,.16.84l-.05,0a3.41,3.41,0,0,1-2.6-3.31c.06-1.46-1.7-2.88-3-1.51s-1.14-1.05-2.89-1.64-3.25.84-2.77,2.14-1.25,2.12-3.32,1-4.36.91-3.92,2.49.08,1.76-1.23,1.23-3.6.93-2.87,2.83h59.3C403.78,397.71,401.23,397.79,401.23,397.79Z" style="fill:#fff;opacity:0.30000000000000004"></path><path d="M150.85,338c-.56-.48-1.27-1.1-1-1.8s.89-.73,1.29-1.16c.8-.89,0-2.33-.9-3.05s-2.17-1.28-2.56-2.41a3.37,3.37,0,0,0-.32-.89c-.58-.84-1.9-.29-2.73.32a4.33,4.33,0,0,1-1,.54,2.23,2.23,0,0,0-.63-1.12c-.56-.48-1.27-1.1-1-1.8s.89-.73,1.29-1.16c.8-.89.05-2.33-.9-3.05s-2.17-1.29-2.56-2.41a3.37,3.37,0,0,0-.32-.89c-.58-.84-1.9-.29-2.73.32s-2.15,1.14-2.71.28c-.33-.49-.14-1.2-.45-1.7-.52-.84-1.85-.44-2.6.2s-1.58,1.47-2.54,1.26a7.15,7.15,0,0,0,.74-.31c1.24-.65,1.07-3,.13-3.82-.56-.48-1.27-1.1-1-1.79s.89-.73,1.29-1.17c.8-.88,0-2.32-.9-3.05s-2.17-1.28-2.56-2.41a3.31,3.31,0,0,0-.32-.88c-.58-.85-1.9-.3-2.72.31s-2.16,1.15-2.72.29c-.33-.5-.14-1.2-.45-1.71-.52-.84-1.84-.44-2.6.2s-1.59,1.49-2.55,1.26-1.35-1.15-2.2-1.25-1.59.81-1.82,1.68a9.07,9.07,0,0,1-.7,2.61H110a3.46,3.46,0,0,1-1.41-1.6,3.18,3.18,0,0,0-.32-.88c-.58-.85-1.9-.3-2.72.31s-2.16,1.14-2.72.28c-.33-.49-.14-1.19-.45-1.7-.52-.84-1.84-.44-2.6.2s-1.59,1.49-2.55,1.26-1.35-1.15-2.2-1.25-1.59.81-1.82,1.68a9.07,9.07,0,0,1-.7,2.61c-1.28-.25-3.07-.2-3.37,1.07a2,2,0,0,0,.42,1.53,3.85,3.85,0,0,0-.45.28c-.75.64-1.59,1.5-2.55,1.27s-1.35-1.15-2.19-1.26-1.6.81-1.83,1.69a9.48,9.48,0,0,1-.69,2.61c-1.29-.25-3.07-.21-3.38,1.07-.2.84.45,1.62,1,2.3s1,1.7.43,2.37a4.46,4.46,0,0,0-2.57.64,1.91,1.91,0,0,0-.73,2.34,2.93,2.93,0,0,0,1.63,1.14c1.93.78,1.31,2.5.73,3.88-.06,0-.13,0-.2,0-.83-.2-1.35-1.15-2.19-1.26s-1.6.81-1.83,1.69a9.48,9.48,0,0,1-.69,2.61c-1.29-.25-3.07-.21-3.38,1.07-.2.84.46,1.62,1,2.3s1,1.7.43,2.37a4.46,4.46,0,0,0-2.57.64,1.91,1.91,0,0,0-.73,2.34,2.93,2.93,0,0,0,1.63,1.14c3.38,1.37-1.06,5.6.62,5.88,2.14.36,4.66-.06,4.82,2.58a6.54,6.54,0,0,0,.19,1.27c.41,1.47,1.45,2.1,3.6,1.08,1.37-.64,1.7-1.44,3.26-1.24,1.12.14,1.92.9,3.14.8a1,1,0,0,0,.49-.12,1.29,1.29,0,0,0,.38-.39A2,2,0,0,1,88.69,353a1.73,1.73,0,0,0,.19.51c.39.56,1.26.2,1.8-.21s1.43-.75,1.8-.18c.21.32.09.79.29,1.12.35.56,1.22.29,1.72-.13s1-1,1.67-.83a3.45,3.45,0,0,0-.48.2c-.82.43-.71,2-.09,2.52.37.32.84.73.67,1.19s-.59.48-.85.77c-.53.58,0,1.53.59,2s1.44.85,1.7,1.59a1.92,1.92,0,0,0,.21.58c.38.56,1.25.2,1.8-.2s1.42-.76,1.79-.19c.22.33.09.79.3,1.12.34.56,1.21.3,1.71-.13s1-1,1.69-.83.89.76,1.45.83,1-.54,1.2-1.12a6.24,6.24,0,0,1,.46-1.72h0a2.32,2.32,0,0,1,.93,1.06,2.37,2.37,0,0,0,.21.58c.38.56,1.25.2,1.8-.21s1.42-.75,1.79-.18c.22.32.09.79.3,1.12.34.56,1.22.29,1.72-.13s1-1,1.68-.83.89.76,1.45.82,1.05-.53,1.2-1.11a6.51,6.51,0,0,1,.46-1.72c.85.16,2,.13,2.23-.71a1.29,1.29,0,0,0-.28-1,1.49,1.49,0,0,0,.3-.18c.5-.43,1-1,1.68-.84s.89.76,1.45.83a.94.94,0,0,0,.76-.31c.38.91,1.2,1.24,2.72.53,1.08-.51,1.34-1.14,2.56-1,.88.12,1.51.72,2.48.64a.9.9,0,0,0,.39-.1,1,1,0,0,0,.29-.31c.86-1.22,1.53-.72,2.94-.78a.51.51,0,0,0,.3-.09.44.44,0,0,0,.13-.33,3,3,0,0,0-.09-1,.93.93,0,0,1-.06-.54c.09-.25.38-.34.61-.45a1.91,1.91,0,0,0,1-2,2.63,2.63,0,0,1,1.17-.1c1.12.14,1.92.91,3.14.8a1.08,1.08,0,0,0,.5-.12,1.38,1.38,0,0,0,.37-.39c1.09-1.55,2-.92,3.73-1a.64.64,0,0,0,.39-.11.58.58,0,0,0,.16-.42,3.68,3.68,0,0,0-.12-1.32,1.18,1.18,0,0,1-.07-.69c.11-.31.47-.43.77-.57a2.45,2.45,0,0,0,.75-3.65c-.34-.4-.86-.79-.75-1.3s.89-.66,1.41-.93C152,341.2,151.78,338.82,150.85,338Z" style="fill:#263238"></path><path d="M150.85,338c-.56-.48-1.27-1.1-1-1.8s.89-.73,1.29-1.16c.8-.89,0-2.33-.9-3.05s-2.17-1.28-2.56-2.41a3.37,3.37,0,0,0-.32-.89c-.58-.84-1.9-.29-2.73.32a4.33,4.33,0,0,1-1,.54,2.23,2.23,0,0,0-.63-1.12c-.56-.48-1.27-1.1-1-1.8s.89-.73,1.29-1.16c.8-.89.05-2.33-.9-3.05s-2.17-1.29-2.56-2.41a3.37,3.37,0,0,0-.32-.89c-.58-.84-1.9-.29-2.73.32s-2.15,1.14-2.71.28c-.33-.49-.14-1.2-.45-1.7-.52-.84-1.85-.44-2.6.2s-1.58,1.47-2.54,1.26a7.15,7.15,0,0,0,.74-.31c1.24-.65,1.07-3,.13-3.82-.56-.48-1.27-1.1-1-1.79s.89-.73,1.29-1.17c.8-.88,0-2.32-.9-3.05s-2.17-1.28-2.56-2.41a3.31,3.31,0,0,0-.32-.88c-.58-.85-1.9-.3-2.72.31s-2.16,1.15-2.72.29c-.33-.5-.14-1.2-.45-1.71-.52-.84-1.84-.44-2.6.2s-1.59,1.49-2.55,1.26-1.35-1.15-2.2-1.25-1.59.81-1.82,1.68a9.07,9.07,0,0,1-.7,2.61H110a3.46,3.46,0,0,1-1.41-1.6,3.18,3.18,0,0,0-.32-.88c-.58-.85-1.9-.3-2.72.31s-2.16,1.14-2.72.28c-.33-.49-.14-1.19-.45-1.7-.52-.84-1.84-.44-2.6.2s-1.59,1.49-2.55,1.26-1.35-1.15-2.2-1.25-1.59.81-1.82,1.68a9.07,9.07,0,0,1-.7,2.61c-1.28-.25-3.07-.2-3.37,1.07a2,2,0,0,0,.42,1.53,3.85,3.85,0,0,0-.45.28c-.75.64-1.59,1.5-2.55,1.27s-1.35-1.15-2.19-1.26-1.6.81-1.83,1.69a9.48,9.48,0,0,1-.69,2.61c-1.29-.25-3.07-.21-3.38,1.07-.2.84.45,1.62,1,2.3s1,1.7.43,2.37a4.46,4.46,0,0,0-2.57.64,1.91,1.91,0,0,0-.73,2.34,2.93,2.93,0,0,0,1.63,1.14c1.93.78,1.31,2.5.73,3.88-.06,0-.13,0-.2,0-.83-.2-1.35-1.15-2.19-1.26s-1.6.81-1.83,1.69a9.48,9.48,0,0,1-.69,2.61c-1.29-.25-3.07-.21-3.38,1.07-.2.84.46,1.62,1,2.3s1,1.7.43,2.37a4.46,4.46,0,0,0-2.57.64,1.91,1.91,0,0,0-.73,2.34,2.93,2.93,0,0,0,1.63,1.14c3.38,1.37-1.06,5.6.62,5.88,2.14.36,4.66-.06,4.82,2.58a6.54,6.54,0,0,0,.19,1.27c.41,1.47,1.45,2.1,3.6,1.08,1.37-.64,1.7-1.44,3.26-1.24,1.12.14,1.92.9,3.14.8a1,1,0,0,0,.49-.12,1.29,1.29,0,0,0,.38-.39A2,2,0,0,1,88.69,353a1.73,1.73,0,0,0,.19.51c.39.56,1.26.2,1.8-.21s1.43-.75,1.8-.18c.21.32.09.79.29,1.12.35.56,1.22.29,1.72-.13s1-1,1.67-.83a3.45,3.45,0,0,0-.48.2c-.82.43-.71,2-.09,2.52.37.32.84.73.67,1.19s-.59.48-.85.77c-.53.58,0,1.53.59,2s1.44.85,1.7,1.59a1.92,1.92,0,0,0,.21.58c.38.56,1.25.2,1.8-.2s1.42-.76,1.79-.19c.22.33.09.79.3,1.12.34.56,1.21.3,1.71-.13s1-1,1.69-.83.89.76,1.45.83,1-.54,1.2-1.12a6.24,6.24,0,0,1,.46-1.72h0a2.32,2.32,0,0,1,.93,1.06,2.37,2.37,0,0,0,.21.58c.38.56,1.25.2,1.8-.21s1.42-.75,1.79-.18c.22.32.09.79.3,1.12.34.56,1.22.29,1.72-.13s1-1,1.68-.83.89.76,1.45.82,1.05-.53,1.2-1.11a6.51,6.51,0,0,1,.46-1.72c.85.16,2,.13,2.23-.71a1.29,1.29,0,0,0-.28-1,1.49,1.49,0,0,0,.3-.18c.5-.43,1-1,1.68-.84s.89.76,1.45.83a.94.94,0,0,0,.76-.31c.38.91,1.2,1.24,2.72.53,1.08-.51,1.34-1.14,2.56-1,.88.12,1.51.72,2.48.64a.9.9,0,0,0,.39-.1,1,1,0,0,0,.29-.31c.86-1.22,1.53-.72,2.94-.78a.51.51,0,0,0,.3-.09.44.44,0,0,0,.13-.33,3,3,0,0,0-.09-1,.93.93,0,0,1-.06-.54c.09-.25.38-.34.61-.45a1.91,1.91,0,0,0,1-2,2.63,2.63,0,0,1,1.17-.1c1.12.14,1.92.91,3.14.8a1.08,1.08,0,0,0,.5-.12,1.38,1.38,0,0,0,.37-.39c1.09-1.55,2-.92,3.73-1a.64.64,0,0,0,.39-.11.58.58,0,0,0,.16-.42,3.68,3.68,0,0,0-.12-1.32,1.18,1.18,0,0,1-.07-.69c.11-.31.47-.43.77-.57a2.45,2.45,0,0,0,.75-3.65c-.34-.4-.86-.79-.75-1.3s.89-.66,1.41-.93C152,341.2,151.78,338.82,150.85,338Z" style="fill:#fff;opacity:0.5"></path><path d="M101.32,347.89s2.08,2.94,2.8,3.88,4.3,6.74,4.79,10.59c.06.41.11.76.16,1.07-1.55,10.19-1.31,28.84-1.25,32h4.89c.05-3.6.46-36.5.61-37.51a12.52,12.52,0,0,1,5.37-6.77c3.16-1.66,5.89-7.17,5.89-7.17h-1a17.84,17.84,0,0,1-4.52,5.24,10.49,10.49,0,0,1-1.2.71,16.92,16.92,0,0,0-1-5.95l-.55.51a14.05,14.05,0,0,1,.42,6,10.91,10.91,0,0,0-2.75,1.84c-2.75-3.58-4.3-11.78-4.3-11.78l-.71.39a42,42,0,0,0,.91,5,83.56,83.56,0,0,0,2.75,7.93,18.53,18.53,0,0,0-2.08,3.91,1.69,1.69,0,0,0-.27-.32c-1.8-1.62-5.17-9.29-5.17-9.29-.82-1.78.43-6.46.43-6.46h-.94l-.42,4.09-2.37-2.59-.43.36,2.51,3.23,1.29,4.1-3.37-3.74Z" style="fill:#263238"></path><path d="M222.24,360.68a2.56,2.56,0,0,0-1.49-.38c-.32-.39-.06-1,.25-1.38s.69-.85.57-1.34c-.18-.75-1.21-.77-2-.63a5.18,5.18,0,0,1-.41-1.52c-.14-.51-.54-1.05-1.06-1s-.8.62-1.28.73h-.12c-.34-.81-.7-1.81.43-2.26a1.77,1.77,0,0,0,1-.67,1.1,1.1,0,0,0-.43-1.36,2.67,2.67,0,0,0-1.5-.38c-.32-.39-.06-1,.25-1.38s.7-.85.58-1.34c-.18-.74-1.22-.77-2-.63a5.09,5.09,0,0,1-.4-1.52c-.14-.51-.55-1-1.07-1s-.79.62-1.28.73-1.05-.36-1.49-.73a1.17,1.17,0,0,0-.26-.17,1.15,1.15,0,0,0,.25-.89c-.18-.74-1.22-.77-2-.63a5.51,5.51,0,0,1-.41-1.52c-.13-.51-.54-1-1.06-1s-.79.62-1.28.73-1.05-.36-1.49-.74-1.21-.6-1.51-.11c-.19.29-.08.7-.27,1-.32.5-1.1.19-1.58-.16s-1.25-.68-1.59-.19a2.31,2.31,0,0,0-.19.52,2,2,0,0,1-.82.93h0a5.51,5.51,0,0,1-.41-1.52c-.13-.51-.54-1.05-1.06-1s-.8.61-1.28.73-1.05-.37-1.49-.74-1.21-.61-1.52-.11c-.18.29-.07.7-.26,1-.32.5-1.1.19-1.58-.17s-1.25-.67-1.59-.18a1.79,1.79,0,0,0-.19.52c-.23.65-.94,1-1.49,1.4s-1,1.26-.53,1.78c.23.25.64.36.76.68s-.27.77-.6,1c-.55.46-.64,1.85.08,2.22a4.27,4.27,0,0,0,.43.18c-.56.13-1-.36-1.48-.73s-1.21-.61-1.52-.12c-.18.3-.07.71-.26,1-.33.5-1.1.19-1.59-.17s-1.25-.68-1.58-.18a1.84,1.84,0,0,0-.19.51c-.23.66-.94,1-1.5,1.41s-1,1.26-.52,1.78c.23.25.64.35.75.68s-.27.76-.59,1a1.32,1.32,0,0,0-.35.65,2.37,2.37,0,0,1-.59-.31c-.48-.35-1.25-.68-1.59-.18a2.21,2.21,0,0,0-.18.51c-.23.66-.94,1-1.5,1.41s-1,1.26-.52,1.78c.23.25.64.35.75.68s-.27.77-.59,1c-.55.47-.65,1.85.07,2.23.3.16.75.21.82.54s-.23.53-.43.76a1.43,1.43,0,0,0,.43,2.13c.18.09.39.15.45.34a.62.62,0,0,1,0,.4,2.22,2.22,0,0,0-.07.77.35.35,0,0,0,.1.24.41.41,0,0,0,.22.07c1,0,1.55-.33,2.18.58a.61.61,0,0,0,.22.23.64.64,0,0,0,.28.07c.72.06,1.19-.39,1.84-.47a1.42,1.42,0,0,1,.68.06,1.11,1.11,0,0,0,.56,1.15c.14.07.3.12.35.27a.48.48,0,0,1,0,.31,1.8,1.8,0,0,0-.05.61.26.26,0,0,0,.07.19.29.29,0,0,0,.18.05c.82,0,1.21-.25,1.71.46a.59.59,0,0,0,.17.18.6.6,0,0,0,.23.06c.56,0,.93-.31,1.44-.37.72-.09.87.27,1.5.57,1,.46,1.47.18,1.65-.5a2.43,2.43,0,0,0,.09-.58c.06-1.05.93-1.05,1.8-1.13a.5.5,0,0,0,.21.53,1.11,1.11,0,0,0,.65.16c.14.17,0,.43-.11.6s-.3.37-.25.58.53.34.85.28a2.29,2.29,0,0,1,.18.66c.06.22.23.45.46.42s.35-.26.56-.31.45.15.64.32l.12.07a.51.51,0,0,0-.11.39c.08.32.53.33.86.27a2.37,2.37,0,0,1,.17.66c.06.22.24.45.46.43s.35-.27.56-.32.46.16.65.32.52.26.66.05,0-.31.11-.43.48-.09.69.07.54.29.69.08a.63.63,0,0,0,.08-.23.92.92,0,0,1,.36-.4h0a2,2,0,0,1,.17.66c.06.22.24.45.47.42s.34-.27.55-.31.46.15.65.32.53.26.66.05,0-.31.11-.44.48-.08.69.08.54.29.69.08a.63.63,0,0,0,.08-.23c.1-.28.41-.43.65-.61s.43-.55.23-.77-.28-.16-.33-.3.12-.33.26-.45.28-.81,0-1l-.19-.08c.24-.05.45.16.64.32s.53.26.66,0,0-.31.12-.43.48-.08.69.07.54.3.69.08a1.43,1.43,0,0,0,.08-.22c.1-.29.41-.43.65-.61s.43-.55.23-.78-.28-.15-.33-.29.12-.34.26-.46a.58.58,0,0,0,.15-.28,1,1,0,0,1,.25.13c.21.16.55.3.69.08a.73.73,0,0,0,.09-.22.84.84,0,0,1,.36-.41,2.09,2.09,0,0,0,0,.56.37.37,0,0,0,.1.25.33.33,0,0,0,.22.06c1,.05,1.55-.32,2.18.58a.61.61,0,0,0,.22.23.53.53,0,0,0,.28.07c.72.06,1.19-.38,1.84-.47.91-.11,1.1.36,1.9.73,1.25.59,1.86.23,2.1-.63a4,4,0,0,0,.11-.74c.09-1.54,1.56-1.3,2.81-1.51,1-.16-1.61-2.63.36-3.43a1.64,1.64,0,0,0,.95-.66A1.1,1.1,0,0,0,222.24,360.68Zm-30.44,7.21c-.05-.2-.18-.46-.28-.74a.73.73,0,0,1,.28-.17h0C192,367.29,192.11,367.67,191.8,367.89Z" style="fill:#263238"></path><path d="M222.24,360.68a2.56,2.56,0,0,0-1.49-.38c-.32-.39-.06-1,.25-1.38s.69-.85.57-1.34c-.18-.75-1.21-.77-2-.63a5.18,5.18,0,0,1-.41-1.52c-.14-.51-.54-1.05-1.06-1s-.8.62-1.28.73h-.12c-.34-.81-.7-1.81.43-2.26a1.77,1.77,0,0,0,1-.67,1.1,1.1,0,0,0-.43-1.36,2.67,2.67,0,0,0-1.5-.38c-.32-.39-.06-1,.25-1.38s.7-.85.58-1.34c-.18-.74-1.22-.77-2-.63a5.09,5.09,0,0,1-.4-1.52c-.14-.51-.55-1-1.07-1s-.79.62-1.28.73-1.05-.36-1.49-.73a1.17,1.17,0,0,0-.26-.17,1.15,1.15,0,0,0,.25-.89c-.18-.74-1.22-.77-2-.63a5.51,5.51,0,0,1-.41-1.52c-.13-.51-.54-1-1.06-1s-.79.62-1.28.73-1.05-.36-1.49-.74-1.21-.6-1.51-.11c-.19.29-.08.7-.27,1-.32.5-1.1.19-1.58-.16s-1.25-.68-1.59-.19a2.31,2.31,0,0,0-.19.52,2,2,0,0,1-.82.93h0a5.51,5.51,0,0,1-.41-1.52c-.13-.51-.54-1.05-1.06-1s-.8.61-1.28.73-1.05-.37-1.49-.74-1.21-.61-1.52-.11c-.18.29-.07.7-.26,1-.32.5-1.1.19-1.58-.17s-1.25-.67-1.59-.18a1.79,1.79,0,0,0-.19.52c-.23.65-.94,1-1.49,1.4s-1,1.26-.53,1.78c.23.25.64.36.76.68s-.27.77-.6,1c-.55.46-.64,1.85.08,2.22a4.27,4.27,0,0,0,.43.18c-.56.13-1-.36-1.48-.73s-1.21-.61-1.52-.12c-.18.3-.07.71-.26,1-.33.5-1.1.19-1.59-.17s-1.25-.68-1.58-.18a1.84,1.84,0,0,0-.19.51c-.23.66-.94,1-1.5,1.41s-1,1.26-.52,1.78c.23.25.64.35.75.68s-.27.76-.59,1a1.32,1.32,0,0,0-.35.65,2.37,2.37,0,0,1-.59-.31c-.48-.35-1.25-.68-1.59-.18a2.21,2.21,0,0,0-.18.51c-.23.66-.94,1-1.5,1.41s-1,1.26-.52,1.78c.23.25.64.35.75.68s-.27.77-.59,1c-.55.47-.65,1.85.07,2.23.3.16.75.21.82.54s-.23.53-.43.76a1.43,1.43,0,0,0,.43,2.13c.18.09.39.15.45.34a.62.62,0,0,1,0,.4,2.22,2.22,0,0,0-.07.77.35.35,0,0,0,.1.24.41.41,0,0,0,.22.07c1,0,1.55-.33,2.18.58a.61.61,0,0,0,.22.23.64.64,0,0,0,.28.07c.72.06,1.19-.39,1.84-.47a1.42,1.42,0,0,1,.68.06,1.11,1.11,0,0,0,.56,1.15c.14.07.3.12.35.27a.48.48,0,0,1,0,.31,1.8,1.8,0,0,0-.05.61.26.26,0,0,0,.07.19.29.29,0,0,0,.18.05c.82,0,1.21-.25,1.71.46a.59.59,0,0,0,.17.18.6.6,0,0,0,.23.06c.56,0,.93-.31,1.44-.37.72-.09.87.27,1.5.57,1,.46,1.47.18,1.65-.5a2.43,2.43,0,0,0,.09-.58c.06-1.05.93-1.05,1.8-1.13a.5.5,0,0,0,.21.53,1.11,1.11,0,0,0,.65.16c.14.17,0,.43-.11.6s-.3.37-.25.58.53.34.85.28a2.29,2.29,0,0,1,.18.66c.06.22.23.45.46.42s.35-.26.56-.31.45.15.64.32l.12.07a.51.51,0,0,0-.11.39c.08.32.53.33.86.27a2.37,2.37,0,0,1,.17.66c.06.22.24.45.46.43s.35-.27.56-.32.46.16.65.32.52.26.66.05,0-.31.11-.43.48-.09.69.07.54.29.69.08a.63.63,0,0,0,.08-.23.92.92,0,0,1,.36-.4h0a2,2,0,0,1,.17.66c.06.22.24.45.47.42s.34-.27.55-.31.46.15.65.32.53.26.66.05,0-.31.11-.44.48-.08.69.08.54.29.69.08a.63.63,0,0,0,.08-.23c.1-.28.41-.43.65-.61s.43-.55.23-.77-.28-.16-.33-.3.12-.33.26-.45.28-.81,0-1l-.19-.08c.24-.05.45.16.64.32s.53.26.66,0,0-.31.12-.43.48-.08.69.07.54.3.69.08a1.43,1.43,0,0,0,.08-.22c.1-.29.41-.43.65-.61s.43-.55.23-.78-.28-.15-.33-.29.12-.34.26-.46a.58.58,0,0,0,.15-.28,1,1,0,0,1,.25.13c.21.16.55.3.69.08a.73.73,0,0,0,.09-.22.84.84,0,0,1,.36-.41,2.09,2.09,0,0,0,0,.56.37.37,0,0,0,.1.25.33.33,0,0,0,.22.06c1,.05,1.55-.32,2.18.58a.61.61,0,0,0,.22.23.53.53,0,0,0,.28.07c.72.06,1.19-.38,1.84-.47.91-.11,1.1.36,1.9.73,1.25.59,1.86.23,2.1-.63a4,4,0,0,0,.11-.74c.09-1.54,1.56-1.3,2.81-1.51,1-.16-1.61-2.63.36-3.43a1.64,1.64,0,0,0,.95-.66A1.1,1.1,0,0,0,222.24,360.68Zm-30.44,7.21c-.05-.2-.18-.46-.28-.74a.73.73,0,0,1,.28-.17h0C192,367.29,192.11,367.67,191.8,367.89Z" style="fill:#fff;opacity:0.2"></path><path d="M205.14,362.48s-1.44,2-1.94,2.68-3,4.68-3.32,7.35c0,.29-.07.53-.11.74,1.07,7.07.9,20,.87,22.21h-3.4c0-2.49-.32-25.31-.42-26a8.65,8.65,0,0,0-3.72-4.69c-2.19-1.16-4.09-5-4.09-5h.7a12.52,12.52,0,0,0,3.14,3.63,5.83,5.83,0,0,0,.83.49,11.69,11.69,0,0,1,.73-4.12l.38.35a9.66,9.66,0,0,0-.29,4.18,7.38,7.38,0,0,1,1.9,1.28c1.91-2.49,3-8.17,3-8.17l.49.27a29.33,29.33,0,0,1-.63,3.48c-.36,1.47-1.42,4.24-1.91,5.5a12.57,12.57,0,0,1,1.45,2.71.79.79,0,0,1,.18-.22c1.25-1.13,3.59-6.44,3.59-6.44.56-1.24-.3-4.48-.3-4.48h.65l.29,2.83,1.65-1.79.29.25-1.74,2.24-.89,2.84,2.34-2.59Z" style="fill:#263238"></path><path d="M107.76,360.61a2.56,2.56,0,0,0-1.49-.38c-.33-.39-.06-1,.25-1.38s.69-.85.57-1.34c-.18-.75-1.21-.77-2-.63a5.49,5.49,0,0,1-.4-1.52c-.14-.51-.54-1-1.07-1s-.79.62-1.27.73h-.12c-.34-.81-.7-1.81.43-2.26a1.81,1.81,0,0,0,1-.66,1.13,1.13,0,0,0-.43-1.37,2.69,2.69,0,0,0-1.5-.38c-.32-.39-.06-1,.25-1.37s.7-.86.58-1.35c-.18-.74-1.22-.77-2-.63a5.41,5.41,0,0,1-.41-1.52c-.13-.51-.54-1-1.06-1s-.79.62-1.28.73-1-.36-1.49-.73a1.17,1.17,0,0,0-.26-.17,1.15,1.15,0,0,0,.25-.89c-.18-.74-1.22-.77-2-.63a5.51,5.51,0,0,1-.41-1.52c-.13-.51-.54-1-1.06-1s-.8.62-1.28.73-1-.36-1.49-.74-1.21-.6-1.51-.11c-.19.29-.08.7-.27,1-.32.51-1.1.19-1.58-.16s-1.25-.68-1.59-.19a2,2,0,0,0-.19.52,2.12,2.12,0,0,1-.82.94h0a5.51,5.51,0,0,1-.41-1.52c-.13-.51-.54-1.05-1.06-1s-.8.61-1.28.73-1-.37-1.49-.74-1.21-.6-1.52-.11c-.18.29-.07.7-.26,1-.33.5-1.1.19-1.58-.17s-1.25-.67-1.59-.18a1.79,1.79,0,0,0-.19.52c-.23.65-.94,1-1.49,1.4s-1,1.26-.53,1.78c.23.25.64.36.76.68s-.27.77-.6,1.05c-.55.46-.65,1.85.08,2.22a4.27,4.27,0,0,0,.43.18c-.56.13-1-.36-1.48-.73s-1.22-.61-1.52-.12c-.18.3-.07.71-.26,1-.33.5-1.1.19-1.59-.17s-1.25-.68-1.59-.18a2.21,2.21,0,0,0-.18.51c-.23.66-.94,1-1.5,1.41s-1,1.26-.52,1.78c.23.25.64.35.75.68s-.27.76-.59,1a1.32,1.32,0,0,0-.35.65,2.37,2.37,0,0,1-.59-.31c-.48-.35-1.25-.68-1.59-.18a2.21,2.21,0,0,0-.18.51c-.23.66-.94,1-1.5,1.41s-1,1.26-.52,1.78c.23.25.64.36.75.68s-.27.77-.6,1c-.54.47-.64,1.85.08,2.23.3.16.75.21.82.54s-.23.53-.44.76a1.44,1.44,0,0,0,.44,2.13c.18.09.39.16.45.34a.62.62,0,0,1,0,.4,2.22,2.22,0,0,0-.07.77.39.39,0,0,0,.09.24.48.48,0,0,0,.23.07c1,0,1.54-.33,2.18.58a.61.61,0,0,0,.22.23.64.64,0,0,0,.28.07c.72.06,1.18-.39,1.84-.47a1.44,1.44,0,0,1,.68.06,1.11,1.11,0,0,0,.56,1.15c.14.07.3.12.35.27a.48.48,0,0,1,0,.31,1.8,1.8,0,0,0,0,.61.25.25,0,0,0,.07.19.29.29,0,0,0,.18.05c.82,0,1.21-.25,1.71.46a.59.59,0,0,0,.17.18.6.6,0,0,0,.23.06c.56,0,.93-.31,1.44-.37.72-.09.87.27,1.5.57,1,.46,1.47.18,1.65-.5a2.43,2.43,0,0,0,.09-.58c.06-1.05.93-1.05,1.8-1.13a.51.51,0,0,0,.2.53,1.14,1.14,0,0,0,.65.16c.14.17,0,.43-.1.6s-.31.37-.25.58.52.34.85.28a2.38,2.38,0,0,1,.18.66c.06.22.23.45.46.42s.35-.26.56-.31.45.15.64.32l.12.07A.51.51,0,0,0,80,372c.08.32.53.33.85.27a2.08,2.08,0,0,1,.18.66c.06.22.24.45.46.43s.35-.27.56-.32.46.16.65.32.52.26.66.05,0-.31.11-.43.48-.09.69.07.54.29.69.08a1.55,1.55,0,0,0,.08-.23.86.86,0,0,1,.36-.4h0a2.37,2.37,0,0,1,.17.66c.06.22.24.45.47.42s.34-.26.55-.31.46.15.65.32.53.26.66,0,0-.31.11-.44.48-.08.69.08.54.29.69.08a.63.63,0,0,0,.08-.23c.1-.28.41-.43.65-.61s.43-.55.23-.77-.28-.16-.33-.3.12-.33.26-.45.28-.81,0-1l-.19-.08c.24,0,.45.16.64.32s.53.26.66,0,0-.3.12-.43.48-.08.69.07.54.3.69.08a1.43,1.43,0,0,0,.08-.22c.1-.29.41-.43.65-.61s.43-.55.22-.78-.27-.15-.32-.29.11-.34.26-.46a.54.54,0,0,0,.15-.28,1,1,0,0,1,.25.14c.21.15.55.29.69.08a.63.63,0,0,0,.08-.23.92.92,0,0,1,.37-.41,2.09,2.09,0,0,0,0,.56.37.37,0,0,0,.1.25.33.33,0,0,0,.22.06c1,.05,1.54-.32,2.18.58a.61.61,0,0,0,.22.23.53.53,0,0,0,.28.07c.72.06,1.18-.38,1.84-.47.9-.11,1.1.36,1.89.73,1.26.59,1.87.23,2.11-.63a4,4,0,0,0,.11-.74c.09-1.54,1.56-1.3,2.81-1.51,1-.16-1.61-2.63.36-3.42a1.74,1.74,0,0,0,1-.67A1.1,1.1,0,0,0,107.76,360.61Zm-30.44,7.21a7.83,7.83,0,0,0-.29-.74.85.85,0,0,1,.29-.17h.05C77.5,367.22,77.63,367.6,77.32,367.82Z" style="fill:#263238"></path><path d="M107.76,360.61a2.56,2.56,0,0,0-1.49-.38c-.33-.39-.06-1,.25-1.38s.69-.85.57-1.34c-.18-.75-1.21-.77-2-.63a5.49,5.49,0,0,1-.4-1.52c-.14-.51-.54-1-1.07-1s-.79.62-1.27.73h-.12c-.34-.81-.7-1.81.43-2.26a1.81,1.81,0,0,0,1-.66,1.13,1.13,0,0,0-.43-1.37,2.69,2.69,0,0,0-1.5-.38c-.32-.39-.06-1,.25-1.37s.7-.86.58-1.35c-.18-.74-1.22-.77-2-.63a5.41,5.41,0,0,1-.41-1.52c-.13-.51-.54-1-1.06-1s-.79.62-1.28.73-1-.36-1.49-.73a1.17,1.17,0,0,0-.26-.17,1.15,1.15,0,0,0,.25-.89c-.18-.74-1.22-.77-2-.63a5.51,5.51,0,0,1-.41-1.52c-.13-.51-.54-1-1.06-1s-.8.62-1.28.73-1-.36-1.49-.74-1.21-.6-1.51-.11c-.19.29-.08.7-.27,1-.32.51-1.1.19-1.58-.16s-1.25-.68-1.59-.19a2,2,0,0,0-.19.52,2.12,2.12,0,0,1-.82.94h0a5.51,5.51,0,0,1-.41-1.52c-.13-.51-.54-1.05-1.06-1s-.8.61-1.28.73-1-.37-1.49-.74-1.21-.6-1.52-.11c-.18.29-.07.7-.26,1-.33.5-1.1.19-1.58-.17s-1.25-.67-1.59-.18a1.79,1.79,0,0,0-.19.52c-.23.65-.94,1-1.49,1.4s-1,1.26-.53,1.78c.23.25.64.36.76.68s-.27.77-.6,1.05c-.55.46-.65,1.85.08,2.22a4.27,4.27,0,0,0,.43.18c-.56.13-1-.36-1.48-.73s-1.22-.61-1.52-.12c-.18.3-.07.71-.26,1-.33.5-1.1.19-1.59-.17s-1.25-.68-1.59-.18a2.21,2.21,0,0,0-.18.51c-.23.66-.94,1-1.5,1.41s-1,1.26-.52,1.78c.23.25.64.35.75.68s-.27.76-.59,1a1.32,1.32,0,0,0-.35.65,2.37,2.37,0,0,1-.59-.31c-.48-.35-1.25-.68-1.59-.18a2.21,2.21,0,0,0-.18.51c-.23.66-.94,1-1.5,1.41s-1,1.26-.52,1.78c.23.25.64.36.75.68s-.27.77-.6,1c-.54.47-.64,1.85.08,2.23.3.16.75.21.82.54s-.23.53-.44.76a1.44,1.44,0,0,0,.44,2.13c.18.09.39.16.45.34a.62.62,0,0,1,0,.4,2.22,2.22,0,0,0-.07.77.39.39,0,0,0,.09.24.48.48,0,0,0,.23.07c1,0,1.54-.33,2.18.58a.61.61,0,0,0,.22.23.64.64,0,0,0,.28.07c.72.06,1.18-.39,1.84-.47a1.44,1.44,0,0,1,.68.06,1.11,1.11,0,0,0,.56,1.15c.14.07.3.12.35.27a.48.48,0,0,1,0,.31,1.8,1.8,0,0,0,0,.61.25.25,0,0,0,.07.19.29.29,0,0,0,.18.05c.82,0,1.21-.25,1.71.46a.59.59,0,0,0,.17.18.6.6,0,0,0,.23.06c.56,0,.93-.31,1.44-.37.72-.09.87.27,1.5.57,1,.46,1.47.18,1.65-.5a2.43,2.43,0,0,0,.09-.58c.06-1.05.93-1.05,1.8-1.13a.51.51,0,0,0,.2.53,1.14,1.14,0,0,0,.65.16c.14.17,0,.43-.1.6s-.31.37-.25.58.52.34.85.28a2.38,2.38,0,0,1,.18.66c.06.22.23.45.46.42s.35-.26.56-.31.45.15.64.32l.12.07A.51.51,0,0,0,80,372c.08.32.53.33.85.27a2.08,2.08,0,0,1,.18.66c.06.22.24.45.46.43s.35-.27.56-.32.46.16.65.32.52.26.66.05,0-.31.11-.43.48-.09.69.07.54.29.69.08a1.55,1.55,0,0,0,.08-.23.86.86,0,0,1,.36-.4h0a2.37,2.37,0,0,1,.17.66c.06.22.24.45.47.42s.34-.26.55-.31.46.15.65.32.53.26.66,0,0-.31.11-.44.48-.08.69.08.54.29.69.08a.63.63,0,0,0,.08-.23c.1-.28.41-.43.65-.61s.43-.55.23-.77-.28-.16-.33-.3.12-.33.26-.45.28-.81,0-1l-.19-.08c.24,0,.45.16.64.32s.53.26.66,0,0-.3.12-.43.48-.08.69.07.54.3.69.08a1.43,1.43,0,0,0,.08-.22c.1-.29.41-.43.65-.61s.43-.55.22-.78-.27-.15-.32-.29.11-.34.26-.46a.54.54,0,0,0,.15-.28,1,1,0,0,1,.25.14c.21.15.55.29.69.08a.63.63,0,0,0,.08-.23.92.92,0,0,1,.37-.41,2.09,2.09,0,0,0,0,.56.37.37,0,0,0,.1.25.33.33,0,0,0,.22.06c1,.05,1.54-.32,2.18.58a.61.61,0,0,0,.22.23.53.53,0,0,0,.28.07c.72.06,1.18-.38,1.84-.47.9-.11,1.1.36,1.89.73,1.26.59,1.87.23,2.11-.63a4,4,0,0,0,.11-.74c.09-1.54,1.56-1.3,2.81-1.51,1-.16-1.61-2.63.36-3.42a1.74,1.74,0,0,0,1-.67A1.1,1.1,0,0,0,107.76,360.61Zm-30.44,7.21a7.83,7.83,0,0,0-.29-.74.85.85,0,0,1,.29-.17h.05C77.5,367.22,77.63,367.6,77.32,367.82Z" style="fill:#fff;opacity:0.30000000000000004"></path><path d="M90.66,362.41s-1.44,2-1.94,2.68-3,4.68-3.32,7.35c0,.29-.08.53-.11.74,1.07,7.07.9,20,.86,22.21H82.76c0-2.49-.32-25.31-.42-26a8.63,8.63,0,0,0-3.72-4.7c-2.19-1.16-4.09-5-4.09-5h.7a12.52,12.52,0,0,0,3.14,3.63,5.83,5.83,0,0,0,.83.49,11.69,11.69,0,0,1,.73-4.12l.38.35a9.66,9.66,0,0,0-.29,4.18,7.38,7.38,0,0,1,1.9,1.28c1.91-2.49,3-8.17,3-8.17l.49.27a28.31,28.31,0,0,1-.64,3.48,56.2,56.2,0,0,1-1.9,5.5,13.29,13.29,0,0,1,1.45,2.71,1,1,0,0,1,.18-.22c1.25-1.13,3.58-6.44,3.58-6.44.57-1.24-.29-4.48-.29-4.48h.65l.29,2.83,1.64-1.79.3.25-1.74,2.24-.9,2.84L90.36,362Z" style="fill:#263238"></path><path d="M182.55,371.83a1.78,1.78,0,0,0-1-.26c-.22-.26,0-.66.17-.93s.46-.58.38-.91c-.12-.5-.82-.52-1.33-.42a4,4,0,0,1-.27-1c-.09-.35-.37-.71-.72-.67s-.54.42-.87.5h-.08c-.22-.55-.47-1.22.29-1.53a1.22,1.22,0,0,0,.65-.45.77.77,0,0,0-.29-.93,1.86,1.86,0,0,0-1-.25c-.21-.26,0-.66.17-.93s.47-.58.39-.91c-.12-.5-.82-.52-1.33-.42a4,4,0,0,1-.27-1c-.09-.35-.37-.71-.72-.67s-.54.42-.87.5-.71-.25-1-.5l-.18-.11a.76.76,0,0,0,.16-.61c-.12-.5-.82-.52-1.33-.42a3.81,3.81,0,0,1-.27-1c-.09-.34-.37-.71-.72-.66s-.54.41-.87.49-.71-.25-1-.5-.82-.41-1-.07-.05.47-.18.67-.74.13-1.07-.11-.84-.46-1.07-.13a1.33,1.33,0,0,0-.13.35,1.42,1.42,0,0,1-.56.63h0a3.66,3.66,0,0,1-.28-1c-.09-.35-.37-.71-.72-.67s-.54.42-.86.5-.71-.25-1-.5-.82-.41-1-.08-.05.48-.17.67c-.23.34-.75.13-1.08-.11s-.84-.46-1.07-.12a1.33,1.33,0,0,0-.13.35c-.15.44-.63.66-1,.95s-.67.85-.35,1.2c.15.17.43.24.51.46s-.19.52-.41.71c-.37.31-.43,1.25.05,1.5l.29.13c-.37.08-.7-.25-1-.5s-.82-.41-1-.08,0,.48-.18.67-.74.13-1.07-.11-.85-.46-1.08-.12a1.38,1.38,0,0,0-.12.34c-.16.45-.64.67-1,1s-.67.85-.36,1.2c.16.17.43.24.51.46s-.18.52-.4.71a.82.82,0,0,0-.24.44,2.06,2.06,0,0,1-.39-.21c-.33-.24-.85-.46-1.08-.13a1.31,1.31,0,0,0-.12.35c-.16.45-.64.67-1,.95s-.67.86-.35,1.21c.16.17.43.24.51.46s-.18.51-.4.7c-.37.32-.44,1.25,0,1.51.2.11.5.14.55.37s-.16.36-.29.51a1,1,0,0,0,.29,1.44c.12.06.26.1.31.23a.51.51,0,0,1,0,.27,1.53,1.53,0,0,0-.05.52c0,.06,0,.13.06.16a.25.25,0,0,0,.16.05c.7,0,1-.22,1.47.39a.57.57,0,0,0,.15.16.67.67,0,0,0,.19.05c.49,0,.8-.27,1.24-.32a1,1,0,0,1,.47,0,.76.76,0,0,0,.37.78c.1,0,.21.08.24.18a.31.31,0,0,1,0,.21,1.12,1.12,0,0,0,0,.41.25.25,0,0,0,0,.13.19.19,0,0,0,.13,0c.55,0,.82-.17,1.16.32a.41.41,0,0,0,.11.12l.15,0c.38,0,.63-.21,1-.25s.59.18,1,.38c.67.32,1,.12,1.12-.33a2.25,2.25,0,0,0,.06-.4c0-.71.63-.71,1.22-.76a.32.32,0,0,0,.14.35.72.72,0,0,0,.44.11c.09.12,0,.29-.08.41s-.2.25-.17.4.36.22.58.18a1.66,1.66,0,0,1,.12.45c0,.15.16.3.31.29s.24-.19.38-.22.31.11.44.22l.07.05a.36.36,0,0,0-.07.26c.05.22.36.22.58.18a1.66,1.66,0,0,1,.12.45c0,.15.16.31.31.29s.24-.18.38-.22.31.11.44.22.35.18.44,0,0-.2.08-.29.32-.05.47,0,.36.2.46.05a.67.67,0,0,0,.06-.15.57.57,0,0,1,.24-.27h0a1.59,1.59,0,0,1,.12.44c0,.15.16.31.31.29s.24-.18.38-.21.31.1.44.21.35.18.44,0,0-.21.08-.29.33-.06.47,0,.37.2.46.06a.47.47,0,0,0,.06-.15c.07-.2.28-.29.44-.42s.29-.37.15-.52-.18-.1-.22-.2.08-.23.18-.31.19-.54,0-.65l-.12-.06c.16,0,.3.11.43.22s.36.18.45,0,0-.2.08-.29.32-.05.46.05.37.2.47.06a.43.43,0,0,0,0-.16c.07-.19.28-.29.44-.41s.3-.37.16-.52-.19-.11-.22-.2.08-.23.17-.31a.35.35,0,0,0,.1-.19.51.51,0,0,1,.18.09c.14.1.36.2.46,0a.67.67,0,0,0,.06-.15.61.61,0,0,1,.25-.28,1,1,0,0,0,0,.39.19.19,0,0,0,.06.16.2.2,0,0,0,.15,0c.71,0,1-.21,1.48.4a.41.41,0,0,0,.14.15.35.35,0,0,0,.2.05c.48,0,.8-.26,1.24-.32.61-.07.74.24,1.28.5.85.39,1.26.15,1.42-.43a2.49,2.49,0,0,0,.08-.5c.06-1,1.06-.88,1.9-1,.66-.11-1.09-1.78.25-2.32a1.18,1.18,0,0,0,.64-.45A.75.75,0,0,0,182.55,371.83ZM162,376.71a4.83,4.83,0,0,0-.19-.5.55.55,0,0,1,.19-.12h0C162.07,376.3,162.16,376.56,162,376.71Z" style="fill:#263238"></path><path d="M182.55,371.83a1.78,1.78,0,0,0-1-.26c-.22-.26,0-.66.17-.93s.46-.58.38-.91c-.12-.5-.82-.52-1.33-.42a4,4,0,0,1-.27-1c-.09-.35-.37-.71-.72-.67s-.54.42-.87.5h-.08c-.22-.55-.47-1.22.29-1.53a1.22,1.22,0,0,0,.65-.45.77.77,0,0,0-.29-.93,1.86,1.86,0,0,0-1-.25c-.21-.26,0-.66.17-.93s.47-.58.39-.91c-.12-.5-.82-.52-1.33-.42a4,4,0,0,1-.27-1c-.09-.35-.37-.71-.72-.67s-.54.42-.87.5-.71-.25-1-.5l-.18-.11a.76.76,0,0,0,.16-.61c-.12-.5-.82-.52-1.33-.42a3.81,3.81,0,0,1-.27-1c-.09-.34-.37-.71-.72-.66s-.54.41-.87.49-.71-.25-1-.5-.82-.41-1-.07-.05.47-.18.67-.74.13-1.07-.11-.84-.46-1.07-.13a1.33,1.33,0,0,0-.13.35,1.42,1.42,0,0,1-.56.63h0a3.66,3.66,0,0,1-.28-1c-.09-.35-.37-.71-.72-.67s-.54.42-.86.5-.71-.25-1-.5-.82-.41-1-.08-.05.48-.17.67c-.23.34-.75.13-1.08-.11s-.84-.46-1.07-.12a1.33,1.33,0,0,0-.13.35c-.15.44-.63.66-1,.95s-.67.85-.35,1.2c.15.17.43.24.51.46s-.19.52-.41.71c-.37.31-.43,1.25.05,1.5l.29.13c-.37.08-.7-.25-1-.5s-.82-.41-1-.08,0,.48-.18.67-.74.13-1.07-.11-.85-.46-1.08-.12a1.38,1.38,0,0,0-.12.34c-.16.45-.64.67-1,1s-.67.85-.36,1.2c.16.17.43.24.51.46s-.18.52-.4.71a.82.82,0,0,0-.24.44,2.06,2.06,0,0,1-.39-.21c-.33-.24-.85-.46-1.08-.13a1.31,1.31,0,0,0-.12.35c-.16.45-.64.67-1,.95s-.67.86-.35,1.21c.16.17.43.24.51.46s-.18.51-.4.7c-.37.32-.44,1.25,0,1.51.2.11.5.14.55.37s-.16.36-.29.51a1,1,0,0,0,.29,1.44c.12.06.26.1.31.23a.51.51,0,0,1,0,.27,1.53,1.53,0,0,0-.05.52c0,.06,0,.13.06.16a.25.25,0,0,0,.16.05c.7,0,1-.22,1.47.39a.57.57,0,0,0,.15.16.67.67,0,0,0,.19.05c.49,0,.8-.27,1.24-.32a1,1,0,0,1,.47,0,.76.76,0,0,0,.37.78c.1,0,.21.08.24.18a.31.31,0,0,1,0,.21,1.12,1.12,0,0,0,0,.41.25.25,0,0,0,0,.13.19.19,0,0,0,.13,0c.55,0,.82-.17,1.16.32a.41.41,0,0,0,.11.12l.15,0c.38,0,.63-.21,1-.25s.59.18,1,.38c.67.32,1,.12,1.12-.33a2.25,2.25,0,0,0,.06-.4c0-.71.63-.71,1.22-.76a.32.32,0,0,0,.14.35.72.72,0,0,0,.44.11c.09.12,0,.29-.08.41s-.2.25-.17.4.36.22.58.18a1.66,1.66,0,0,1,.12.45c0,.15.16.3.31.29s.24-.19.38-.22.31.11.44.22l.07.05a.36.36,0,0,0-.07.26c.05.22.36.22.58.18a1.66,1.66,0,0,1,.12.45c0,.15.16.31.31.29s.24-.18.38-.22.31.11.44.22.35.18.44,0,0-.2.08-.29.32-.05.47,0,.36.2.46.05a.67.67,0,0,0,.06-.15.57.57,0,0,1,.24-.27h0a1.59,1.59,0,0,1,.12.44c0,.15.16.31.31.29s.24-.18.38-.21.31.1.44.21.35.18.44,0,0-.21.08-.29.33-.06.47,0,.37.2.46.06a.47.47,0,0,0,.06-.15c.07-.2.28-.29.44-.42s.29-.37.15-.52-.18-.1-.22-.2.08-.23.18-.31.19-.54,0-.65l-.12-.06c.16,0,.3.11.43.22s.36.18.45,0,0-.2.08-.29.32-.05.46.05.37.2.47.06a.43.43,0,0,0,0-.16c.07-.19.28-.29.44-.41s.3-.37.16-.52-.19-.11-.22-.2.08-.23.17-.31a.35.35,0,0,0,.1-.19.51.51,0,0,1,.18.09c.14.1.36.2.46,0a.67.67,0,0,0,.06-.15.61.61,0,0,1,.25-.28,1,1,0,0,0,0,.39.19.19,0,0,0,.06.16.2.2,0,0,0,.15,0c.71,0,1-.21,1.48.4a.41.41,0,0,0,.14.15.35.35,0,0,0,.2.05c.48,0,.8-.26,1.24-.32.61-.07.74.24,1.28.5.85.39,1.26.15,1.42-.43a2.49,2.49,0,0,0,.08-.5c.06-1,1.06-.88,1.9-1,.66-.11-1.09-1.78.25-2.32a1.18,1.18,0,0,0,.64-.45A.75.75,0,0,0,182.55,371.83ZM162,376.71a4.83,4.83,0,0,0-.19-.5.55.55,0,0,1,.19-.12h0C162.07,376.3,162.16,376.56,162,376.71Z" style="fill:#fff;opacity:0.30000000000000004"></path><path d="M171,373s-1,1.39-1.31,1.82a14.73,14.73,0,0,0-2.25,5c0,.2,0,.36-.08.51.73,4.78.62,13.52.59,15h-2.29c0-1.69-.22-17.12-.29-17.59a5.89,5.89,0,0,0-2.52-3.18c-1.48-.78-2.76-3.36-2.76-3.36h.47a8.49,8.49,0,0,0,2.12,2.45,4.65,4.65,0,0,0,.56.34,8,8,0,0,1,.5-2.79l.25.23a6.56,6.56,0,0,0-.19,2.83,5.23,5.23,0,0,1,1.29.87c1.29-1.69,2-5.53,2-5.53l.33.18a19.75,19.75,0,0,1-.43,2.36c-.24,1-1,2.87-1.29,3.72a8.66,8.66,0,0,1,1,1.83l.12-.15c.85-.76,2.43-4.36,2.43-4.36.38-.83-.2-3-.2-3h.44l.2,1.92,1.11-1.21.2.17-1.18,1.51-.6,1.92,1.58-1.75Z" style="fill:#263238"></path><path d="M149,397.48a3.52,3.52,0,0,0,0-3.38,2.75,2.75,0,0,0-3.16-1.53c1-1.41-.42-3.3-2.65-2.64s-1.28,2.64-4.36.31-5,1.45-5.1,2.67-1.15,3.17-2.25,3.38a2.09,2.09,0,0,0-1.29,2.77h22.56C152.18,397.39,149,397.48,149,397.48Z" style="fill:#263238"></path><path d="M123.05,397.48a3.52,3.52,0,0,0,0-3.38,2.75,2.75,0,0,0-3.16-1.53c1-1.41-.42-3.3-2.65-2.64s-1.29,2.64-4.36.31-5,1.45-5.1,2.67-1.15,3.17-2.25,3.38l-.22.08a1.78,1.78,0,0,0-1.18-1.33,4.25,4.25,0,0,1-3.23-4.1c.07-1.81-2.11-3.57-3.74-1.87s-1.41-1.31-3.59-2-4,1-3.43,2.66-1.55,2.63-4.12,1.25-5.41,1.13-4.86,3.09a5.29,5.29,0,0,1,.2,1l-.06,0a4.25,4.25,0,0,1-3.23-4.1c.07-1.81-2.1-3.57-3.74-1.87s-1.41-1.31-3.59-2-4,1-3.43,2.66-1.55,2.63-4.12,1.25-5.41,1.13-4.86,3.09.1,2.18-1.53,1.52-4.47,1.16-3.56,3.51H126.8C126.2,397.39,123.05,397.48,123.05,397.48Z" style="fill:#263238"></path><g style="opacity:0.2"><path d="M149,397.48a3.52,3.52,0,0,0,0-3.38,2.75,2.75,0,0,0-3.16-1.53c1-1.41-.42-3.3-2.65-2.64s-1.28,2.64-4.36.31-5,1.45-5.1,2.67-1.15,3.17-2.25,3.38a2.09,2.09,0,0,0-1.29,2.77h22.56C152.18,397.39,149,397.48,149,397.48Z" style="fill:#fff"></path><path d="M123.05,397.48a3.52,3.52,0,0,0,0-3.38,2.75,2.75,0,0,0-3.16-1.53c1-1.41-.42-3.3-2.65-2.64s-1.29,2.64-4.36.31-5,1.45-5.1,2.67-1.15,3.17-2.25,3.38l-.22.08a1.78,1.78,0,0,0-1.18-1.33,4.25,4.25,0,0,1-3.23-4.1c.07-1.81-2.11-3.57-3.74-1.87s-1.41-1.31-3.59-2-4,1-3.43,2.66-1.55,2.63-4.12,1.25-5.41,1.13-4.86,3.09a5.29,5.29,0,0,1,.2,1l-.06,0a4.25,4.25,0,0,1-3.23-4.1c.07-1.81-2.1-3.57-3.74-1.87s-1.41-1.31-3.59-2-4,1-3.43,2.66-1.55,2.63-4.12,1.25-5.41,1.13-4.86,3.09.1,2.18-1.53,1.52-4.47,1.16-3.56,3.51H126.8C126.2,397.39,123.05,397.48,123.05,397.48Z" style="fill:#fff"></path></g><path d="M78.79,397.79a2.85,2.85,0,0,1,0-2.73,2.21,2.21,0,0,1,2.54-1.23c-.79-1.14.35-2.66,2.14-2.13s1,2.13,3.51.25,4.07,1.16,4.12,2.15.93,2.55,1.81,2.73a1.68,1.68,0,0,1,1,2.23H75.77C76.24,397.71,78.79,397.79,78.79,397.79Z" style="fill:#263238"></path><path d="M99.73,397.79a2.85,2.85,0,0,1,0-2.73,2.21,2.21,0,0,1,2.54-1.23c-.79-1.14.35-2.66,2.14-2.13s1,2.13,3.51.25,4.07,1.16,4.12,2.15.93,2.55,1.81,2.73l.18.06a1.46,1.46,0,0,1,1-1.07,3.41,3.41,0,0,0,2.6-3.31c0-1.46,1.7-2.88,3-1.51s1.14-1.05,2.9-1.64,3.24.84,2.76,2.14,1.25,2.12,3.33,1,4.35.91,3.91,2.49a5.41,5.41,0,0,0-.16.84l0,0a3.41,3.41,0,0,0,2.6-3.31c-.06-1.46,1.7-2.88,3-1.51s1.14-1.05,2.89-1.64,3.25.84,2.77,2.14,1.25,2.12,3.32,1,4.36.91,3.92,2.49-.08,1.76,1.23,1.23,3.6.93,2.87,2.83H96.71C97.18,397.71,99.73,397.79,99.73,397.79Z" style="fill:#263238"></path><path d="M78.79,397.79a2.85,2.85,0,0,1,0-2.73,2.21,2.21,0,0,1,2.54-1.23c-.79-1.14.35-2.66,2.14-2.13s1,2.13,3.51.25,4.07,1.16,4.12,2.15.93,2.55,1.81,2.73a1.68,1.68,0,0,1,1,2.23H75.77C76.24,397.71,78.79,397.79,78.79,397.79Z" style="fill:#fff;opacity:0.35000000000000003"></path><path d="M99.73,397.79a2.85,2.85,0,0,1,0-2.73,2.21,2.21,0,0,1,2.54-1.23c-.79-1.14.35-2.66,2.14-2.13s1,2.13,3.51.25,4.07,1.16,4.12,2.15.93,2.55,1.81,2.73l.18.06a1.46,1.46,0,0,1,1-1.07,3.41,3.41,0,0,0,2.6-3.31c0-1.46,1.7-2.88,3-1.51s1.14-1.05,2.9-1.64,3.24.84,2.76,2.14,1.25,2.12,3.33,1,4.35.91,3.91,2.49a5.41,5.41,0,0,0-.16.84l0,0a3.41,3.41,0,0,0,2.6-3.31c-.06-1.46,1.7-2.88,3-1.51s1.14-1.05,2.89-1.64,3.25.84,2.77,2.14,1.25,2.12,3.32,1,4.36.91,3.92,2.49-.08,1.76,1.23,1.23,3.6.93,2.87,2.83H96.71C97.18,397.71,99.73,397.79,99.73,397.79Z" style="fill:#fff;opacity:0.30000000000000004"></path><path d="M379.69,354.9a3.11,3.11,0,0,0-1.75-.44c-.37-.45-.07-1.14.29-1.61s.81-1,.67-1.56c-.2-.87-1.42-.9-2.29-.73a6.23,6.23,0,0,1-.47-1.78c-.16-.59-.63-1.22-1.24-1.14s-.93.72-1.5.85h-.13c-.39-.94-.82-2.11.5-2.64a2,2,0,0,0,1.11-.77,1.32,1.32,0,0,0-.5-1.59,3.11,3.11,0,0,0-1.75-.44c-.37-.46-.07-1.14.29-1.61s.81-1,.67-1.57c-.2-.86-1.42-.89-2.29-.72a6.23,6.23,0,0,1-.47-1.78c-.16-.59-.63-1.22-1.24-1.14s-.93.72-1.5.85-1.22-.43-1.73-.86a3,3,0,0,0-.3-.19,1.35,1.35,0,0,0,.28-1c-.21-.87-1.42-.9-2.29-.73a6.25,6.25,0,0,1-.48-1.78c-.15-.59-.63-1.21-1.24-1.14s-.93.72-1.49.85-1.22-.42-1.74-.86-1.41-.7-1.76-.13c-.22.34-.09.82-.31,1.16-.38.58-1.29.22-1.85-.2s-1.46-.79-1.85-.21a2.54,2.54,0,0,0-.22.6,2.3,2.3,0,0,1-1,1.09h0a6.58,6.58,0,0,1-.47-1.78c-.16-.59-.63-1.22-1.24-1.14s-.93.72-1.49.85-1.22-.42-1.74-.86-1.41-.7-1.77-.13c-.21.34-.08.82-.3,1.16-.38.58-1.29.22-1.85-.2s-1.46-.79-1.85-.21a2.54,2.54,0,0,0-.22.6c-.27.77-1.1,1.15-1.74,1.64s-1.16,1.47-.61,2.07c.27.3.74.42.87.8s-.31.89-.69,1.22c-.64.54-.75,2.15.09,2.59a3.75,3.75,0,0,0,.5.21c-.65.15-1.21-.42-1.72-.86s-1.42-.7-1.77-.13c-.21.34-.09.82-.31,1.16-.38.58-1.28.22-1.85-.19s-1.45-.79-1.85-.22a2.54,2.54,0,0,0-.22.6c-.26.77-1.09,1.15-1.74,1.64s-1.16,1.47-.61,2.08c.27.29.74.41.88.79s-.32.89-.7,1.22a1.46,1.46,0,0,0-.4.76,3,3,0,0,1-.69-.37c-.56-.41-1.45-.79-1.85-.21a2.54,2.54,0,0,0-.22.6c-.26.77-1.09,1.15-1.74,1.64s-1.16,1.47-.61,2.07c.27.3.74.42.88.8s-.32.89-.7,1.22c-.63.54-.75,2.15.09,2.6.35.18.87.24,1,.63s-.28.62-.51.88a1.67,1.67,0,0,0,.51,2.49c.2.09.45.17.52.38a.7.7,0,0,1-.05.47,2.48,2.48,0,0,0-.08.9.38.38,0,0,0,.11.28.36.36,0,0,0,.27.08c1.21.05,1.8-.38,2.54.68a.81.81,0,0,0,.25.27.76.76,0,0,0,.33.08c.84.07,1.38-.45,2.14-.55a1.79,1.79,0,0,1,.8.07,1.31,1.31,0,0,0,.65,1.35c.16.07.35.14.41.3a.59.59,0,0,1,0,.37,1.89,1.89,0,0,0-.07.71.34.34,0,0,0,.09.22.29.29,0,0,0,.21.06c.95,0,1.41-.29,2,.54a.64.64,0,0,0,.19.21.63.63,0,0,0,.27.06c.65.06,1.08-.35,1.68-.43.83-.1,1,.33,1.74.67,1.16.54,1.72.21,1.93-.58a3.33,3.33,0,0,0,.11-.68c.07-1.22,1.08-1.22,2.1-1.32a.59.59,0,0,0,.23.62,1.43,1.43,0,0,0,.76.19c.16.2,0,.49-.13.7s-.35.43-.29.68.62.39,1,.32a2.73,2.73,0,0,1,.21.77c.06.25.27.53.53.49s.41-.31.65-.37.53.19.76.38l.13.08a.58.58,0,0,0-.12.45c.09.38.61.39,1,.32a2.83,2.83,0,0,1,.21.77c.07.26.27.53.54.5s.4-.31.65-.37.53.18.75.37.61.31.77.06,0-.36.13-.5.56-.1.8.08.64.34.81.09a1.57,1.57,0,0,0,.1-.26,1,1,0,0,1,.41-.47h0a2.73,2.73,0,0,1,.21.77c.07.25.27.53.54.49s.4-.31.65-.37.53.19.75.38.62.3.77,0,0-.35.13-.5.56-.1.81.09.63.34.8.09a1.17,1.17,0,0,0,.1-.26c.11-.34.47-.5.75-.72s.51-.64.27-.9-.32-.18-.38-.34.13-.39.3-.53.33-.94,0-1.13a2,2,0,0,0-.22-.09c.28-.06.53.18.75.37s.62.31.77.06,0-.36.13-.5.56-.1.81.08.63.34.8.09a1,1,0,0,0,.1-.26c.11-.33.47-.5.75-.71s.51-.64.27-.9-.32-.18-.38-.35.13-.39.3-.53a.62.62,0,0,0,.18-.33,1.35,1.35,0,0,1,.29.16c.25.18.64.34.81.09a1,1,0,0,0,.09-.26,1.11,1.11,0,0,1,.43-.48,2.09,2.09,0,0,0,0,.66.39.39,0,0,0,.11.28.47.47,0,0,0,.26.08c1.21,0,1.8-.38,2.54.68a.92.92,0,0,0,.25.27.77.77,0,0,0,.34.08c.83.07,1.37-.45,2.13-.55,1.06-.13,1.29.41,2.22.85,1.46.69,2.17.26,2.45-.73a4.43,4.43,0,0,0,.13-.87c.1-1.8,1.82-1.51,3.28-1.76,1.14-.19-1.88-3.07.42-4a2.08,2.08,0,0,0,1.11-.78A1.31,1.31,0,0,0,379.69,354.9Zm-35.5,8.41c-.06-.23-.21-.53-.33-.86a.91.91,0,0,1,.32-.2h.06C344.4,362.62,344.55,363.06,344.19,363.31Z" style="fill:#263238"></path><path d="M379.69,354.9a3.11,3.11,0,0,0-1.75-.44c-.37-.45-.07-1.14.29-1.61s.81-1,.67-1.56c-.2-.87-1.42-.9-2.29-.73a6.23,6.23,0,0,1-.47-1.78c-.16-.59-.63-1.22-1.24-1.14s-.93.72-1.5.85h-.13c-.39-.94-.82-2.11.5-2.64a2,2,0,0,0,1.11-.77,1.32,1.32,0,0,0-.5-1.59,3.11,3.11,0,0,0-1.75-.44c-.37-.46-.07-1.14.29-1.61s.81-1,.67-1.57c-.2-.86-1.42-.89-2.29-.72a6.23,6.23,0,0,1-.47-1.78c-.16-.59-.63-1.22-1.24-1.14s-.93.72-1.5.85-1.22-.43-1.73-.86a3,3,0,0,0-.3-.19,1.35,1.35,0,0,0,.28-1c-.21-.87-1.42-.9-2.29-.73a6.25,6.25,0,0,1-.48-1.78c-.15-.59-.63-1.21-1.24-1.14s-.93.72-1.49.85-1.22-.42-1.74-.86-1.41-.7-1.76-.13c-.22.34-.09.82-.31,1.16-.38.58-1.29.22-1.85-.2s-1.46-.79-1.85-.21a2.54,2.54,0,0,0-.22.6,2.3,2.3,0,0,1-1,1.09h0a6.58,6.58,0,0,1-.47-1.78c-.16-.59-.63-1.22-1.24-1.14s-.93.72-1.49.85-1.22-.42-1.74-.86-1.41-.7-1.77-.13c-.21.34-.08.82-.3,1.16-.38.58-1.29.22-1.85-.2s-1.46-.79-1.85-.21a2.54,2.54,0,0,0-.22.6c-.27.77-1.1,1.15-1.74,1.64s-1.16,1.47-.61,2.07c.27.3.74.42.87.8s-.31.89-.69,1.22c-.64.54-.75,2.15.09,2.59a3.75,3.75,0,0,0,.5.21c-.65.15-1.21-.42-1.72-.86s-1.42-.7-1.77-.13c-.21.34-.09.82-.31,1.16-.38.58-1.28.22-1.85-.19s-1.45-.79-1.85-.22a2.54,2.54,0,0,0-.22.6c-.26.77-1.09,1.15-1.74,1.64s-1.16,1.47-.61,2.08c.27.29.74.41.88.79s-.32.89-.7,1.22a1.46,1.46,0,0,0-.4.76,3,3,0,0,1-.69-.37c-.56-.41-1.45-.79-1.85-.21a2.54,2.54,0,0,0-.22.6c-.26.77-1.09,1.15-1.74,1.64s-1.16,1.47-.61,2.07c.27.3.74.42.88.8s-.32.89-.7,1.22c-.63.54-.75,2.15.09,2.6.35.18.87.24,1,.63s-.28.62-.51.88a1.67,1.67,0,0,0,.51,2.49c.2.09.45.17.52.38a.7.7,0,0,1-.05.47,2.48,2.48,0,0,0-.08.9.38.38,0,0,0,.11.28.36.36,0,0,0,.27.08c1.21.05,1.8-.38,2.54.68a.81.81,0,0,0,.25.27.76.76,0,0,0,.33.08c.84.07,1.38-.45,2.14-.55a1.79,1.79,0,0,1,.8.07,1.31,1.31,0,0,0,.65,1.35c.16.07.35.14.41.3a.59.59,0,0,1,0,.37,1.89,1.89,0,0,0-.07.71.34.34,0,0,0,.09.22.29.29,0,0,0,.21.06c.95,0,1.41-.29,2,.54a.64.64,0,0,0,.19.21.63.63,0,0,0,.27.06c.65.06,1.08-.35,1.68-.43.83-.1,1,.33,1.74.67,1.16.54,1.72.21,1.93-.58a3.33,3.33,0,0,0,.11-.68c.07-1.22,1.08-1.22,2.1-1.32a.59.59,0,0,0,.23.62,1.43,1.43,0,0,0,.76.19c.16.2,0,.49-.13.7s-.35.43-.29.68.62.39,1,.32a2.73,2.73,0,0,1,.21.77c.06.25.27.53.53.49s.41-.31.65-.37.53.19.76.38l.13.08a.58.58,0,0,0-.12.45c.09.38.61.39,1,.32a2.83,2.83,0,0,1,.21.77c.07.26.27.53.54.5s.4-.31.65-.37.53.18.75.37.61.31.77.06,0-.36.13-.5.56-.1.8.08.64.34.81.09a1.57,1.57,0,0,0,.1-.26,1,1,0,0,1,.41-.47h0a2.73,2.73,0,0,1,.21.77c.07.25.27.53.54.49s.4-.31.65-.37.53.19.75.38.62.3.77,0,0-.35.13-.5.56-.1.81.09.63.34.8.09a1.17,1.17,0,0,0,.1-.26c.11-.34.47-.5.75-.72s.51-.64.27-.9-.32-.18-.38-.34.13-.39.3-.53.33-.94,0-1.13a2,2,0,0,0-.22-.09c.28-.06.53.18.75.37s.62.31.77.06,0-.36.13-.5.56-.1.81.08.63.34.8.09a1,1,0,0,0,.1-.26c.11-.33.47-.5.75-.71s.51-.64.27-.9-.32-.18-.38-.35.13-.39.3-.53a.62.62,0,0,0,.18-.33,1.35,1.35,0,0,1,.29.16c.25.18.64.34.81.09a1,1,0,0,0,.09-.26,1.11,1.11,0,0,1,.43-.48,2.09,2.09,0,0,0,0,.66.39.39,0,0,0,.11.28.47.47,0,0,0,.26.08c1.21,0,1.8-.38,2.54.68a.92.92,0,0,0,.25.27.77.77,0,0,0,.34.08c.83.07,1.37-.45,2.13-.55,1.06-.13,1.29.41,2.22.85,1.46.69,2.17.26,2.45-.73a4.43,4.43,0,0,0,.13-.87c.1-1.8,1.82-1.51,3.28-1.76,1.14-.19-1.88-3.07.42-4a2.08,2.08,0,0,0,1.11-.78A1.31,1.31,0,0,0,379.69,354.9Zm-35.5,8.41c-.06-.23-.21-.53-.33-.86a.91.91,0,0,1,.32-.2h.06C344.4,362.62,344.55,363.06,344.19,363.31Z" style="fill:#fff;opacity:0.35000000000000003"></path><path d="M359.75,357s-1.69,2.38-2.27,3.13-3.48,5.46-3.87,8.57c-.05.33-.09.62-.13.87,1.25,8.24,1,23.31,1,25.89h-3.95c0-2.91-.38-29.51-.5-30.32a10,10,0,0,0-4.34-5.48c-2.55-1.34-4.76-5.79-4.76-5.79h.81a14.59,14.59,0,0,0,3.66,4.23,9.56,9.56,0,0,0,1,.58,13.67,13.67,0,0,1,.85-4.81l.44.4a11.66,11.66,0,0,0-.34,4.88,8.76,8.76,0,0,1,2.23,1.49c2.22-2.9,3.48-9.52,3.48-9.52l.57.31a34.39,34.39,0,0,1-.74,4.06c-.42,1.72-1.65,4.94-2.22,6.41a15.57,15.57,0,0,1,1.69,3.16,1.09,1.09,0,0,1,.21-.26c1.45-1.31,4.18-7.51,4.18-7.51.66-1.44-.35-5.22-.35-5.22h.76l.34,3.3,1.92-2.09.35.3-2,2.61-1.05,3.31,2.73-3Z" style="fill:#263238"></path><path d="M318.5,368.43a2,2,0,0,0-1.16-.3c-.25-.3,0-.75.2-1.06s.53-.66.44-1c-.14-.58-.94-.6-1.52-.49a4.2,4.2,0,0,1-.32-1.18c-.1-.39-.41-.81-.82-.76s-.62.48-1,.57h-.09c-.26-.62-.54-1.4.33-1.75a1.46,1.46,0,0,0,.74-.51.87.87,0,0,0-.34-1.06,1.92,1.92,0,0,0-1.15-.29c-.25-.31-.05-.76.19-1.07s.54-.66.45-1c-.14-.58-.95-.6-1.53-.49a4.12,4.12,0,0,1-.31-1.17c-.11-.4-.42-.81-.83-.76s-.61.47-1,.56-.81-.28-1.15-.57a1.37,1.37,0,0,0-.2-.13.88.88,0,0,0,.19-.69c-.14-.57-.94-.59-1.52-.48a4.2,4.2,0,0,1-.32-1.18c-.1-.39-.42-.81-.82-.76s-.62.48-1,.57-.82-.29-1.16-.57-.93-.47-1.17-.09-.06.54-.2.77c-.26.39-.86.14-1.23-.13s-1-.53-1.23-.14a1.58,1.58,0,0,0-.15.4,1.56,1.56,0,0,1-.63.72h0a4.13,4.13,0,0,1-.32-1.17c-.1-.4-.42-.81-.82-.76s-.62.47-1,.56-.82-.28-1.16-.57-.93-.47-1.17-.09-.06.55-.2.77c-.26.39-.86.15-1.23-.13s-1-.52-1.23-.14a1.93,1.93,0,0,0-.15.4c-.17.51-.72.76-1.15,1.09s-.77,1-.41,1.38c.18.19.5.27.59.52s-.21.6-.47.81c-.42.36-.5,1.43.06,1.73l.34.14c-.44.09-.81-.29-1.15-.57s-.94-.47-1.17-.09c-.14.22-.06.54-.21.77-.25.38-.85.14-1.22-.13s-1-.53-1.23-.14a1.66,1.66,0,0,0-.15.39c-.18.51-.73.77-1.16,1.09s-.76,1-.4,1.38c.18.2.49.28.58.53s-.21.59-.46.81a1,1,0,0,0-.27.5,1.76,1.76,0,0,1-.45-.24c-.38-.28-1-.53-1.23-.14a1.58,1.58,0,0,0-.15.4c-.17.51-.73.76-1.15,1.09s-.77,1-.41,1.37c.18.2.49.28.58.53s-.21.59-.46.81c-.42.36-.5,1.43.06,1.72.23.13.58.17.63.42s-.18.41-.33.59a1.1,1.1,0,0,0,.34,1.65c.13.07.29.12.34.26a.48.48,0,0,1,0,.31,1.72,1.72,0,0,0,0,.6.21.21,0,0,0,.25.23c.8,0,1.19-.24,1.68.46a.69.69,0,0,0,.17.17.55.55,0,0,0,.22.06c.56,0,.92-.3,1.42-.37a1.21,1.21,0,0,1,.53.05.85.85,0,0,0,.43.89c.11.06.24.1.28.21a.34.34,0,0,1,0,.24,1.5,1.5,0,0,0,0,.47.25.25,0,0,0,.06.15.23.23,0,0,0,.14,0c.63,0,.94-.2,1.32.35a.5.5,0,0,0,.14.15.47.47,0,0,0,.17,0c.44,0,.72-.24,1.12-.29.55-.07.67.22,1.16.45.76.36,1.13.13,1.28-.39a2,2,0,0,0,.06-.45c.05-.81.73-.81,1.4-.88a.38.38,0,0,0,.16.41.85.85,0,0,0,.5.13c.11.13,0,.33-.08.46s-.24.29-.2.46.41.25.66.21a1.49,1.49,0,0,1,.14.51c.05.17.18.35.36.33s.27-.21.43-.25.35.12.5.25l.09.06a.37.37,0,0,0-.08.3c.06.25.41.26.66.21a1.74,1.74,0,0,1,.13.51c.05.17.19.35.36.33s.27-.21.43-.25.36.13.5.25.41.2.51,0,0-.24.09-.33.37-.07.54,0,.42.23.53.06a.49.49,0,0,0,.06-.17.72.72,0,0,1,.28-.32h0a1.49,1.49,0,0,1,.14.51c.05.18.18.36.36.33s.27-.2.43-.24.35.12.5.25.41.2.51,0,0-.24.09-.34.37-.06.53.06.42.23.54.06a1.15,1.15,0,0,0,.06-.17c.08-.23.32-.34.5-.48s.34-.42.18-.6-.21-.12-.25-.23.09-.25.2-.35.21-.62,0-.75l-.14-.06c.18,0,.35.13.49.25s.41.2.51,0,0-.24.09-.34.37-.06.54.06.42.23.53.06a.49.49,0,0,0,.06-.17c.08-.22.32-.33.51-.47s.33-.43.17-.6-.21-.12-.25-.23.09-.26.2-.35a.47.47,0,0,0,.12-.22.57.57,0,0,1,.19.1c.17.12.42.23.54.06a.85.85,0,0,0,.06-.17.69.69,0,0,1,.29-.32,1.63,1.63,0,0,0,0,.44.27.27,0,0,0,.08.19.31.31,0,0,0,.17.05c.81,0,1.2-.25,1.69.45a.67.67,0,0,0,.16.18.86.86,0,0,0,.23.05c.55.05.91-.3,1.42-.36.7-.09.85.27,1.47.56,1,.46,1.44.18,1.62-.49a2.43,2.43,0,0,0,.09-.57c.07-1.2,1.21-1,2.18-1.17.76-.12-1.25-2,.28-2.65a1.35,1.35,0,0,0,.73-.52A.85.85,0,0,0,318.5,368.43ZM294.93,374c0-.15-.14-.35-.22-.57a.61.61,0,0,1,.22-.13h0C295.07,373.55,295.17,373.84,294.93,374Z" style="fill:#263238"></path><path d="M318.5,368.43a2,2,0,0,0-1.16-.3c-.25-.3,0-.75.2-1.06s.53-.66.44-1c-.14-.58-.94-.6-1.52-.49a4.2,4.2,0,0,1-.32-1.18c-.1-.39-.41-.81-.82-.76s-.62.48-1,.57h-.09c-.26-.62-.54-1.4.33-1.75a1.46,1.46,0,0,0,.74-.51.87.87,0,0,0-.34-1.06,1.92,1.92,0,0,0-1.15-.29c-.25-.31-.05-.76.19-1.07s.54-.66.45-1c-.14-.58-.95-.6-1.53-.49a4.12,4.12,0,0,1-.31-1.17c-.11-.4-.42-.81-.83-.76s-.61.47-1,.56-.81-.28-1.15-.57a1.37,1.37,0,0,0-.2-.13.88.88,0,0,0,.19-.69c-.14-.57-.94-.59-1.52-.48a4.2,4.2,0,0,1-.32-1.18c-.1-.39-.42-.81-.82-.76s-.62.48-1,.57-.82-.29-1.16-.57-.93-.47-1.17-.09-.06.54-.2.77c-.26.39-.86.14-1.23-.13s-1-.53-1.23-.14a1.58,1.58,0,0,0-.15.4,1.56,1.56,0,0,1-.63.72h0a4.13,4.13,0,0,1-.32-1.17c-.1-.4-.42-.81-.82-.76s-.62.47-1,.56-.82-.28-1.16-.57-.93-.47-1.17-.09-.06.55-.2.77c-.26.39-.86.15-1.23-.13s-1-.52-1.23-.14a1.93,1.93,0,0,0-.15.4c-.17.51-.72.76-1.15,1.09s-.77,1-.41,1.38c.18.19.5.27.59.52s-.21.6-.47.81c-.42.36-.5,1.43.06,1.73l.34.14c-.44.09-.81-.29-1.15-.57s-.94-.47-1.17-.09c-.14.22-.06.54-.21.77-.25.38-.85.14-1.22-.13s-1-.53-1.23-.14a1.66,1.66,0,0,0-.15.39c-.18.51-.73.77-1.16,1.09s-.76,1-.4,1.38c.18.2.49.28.58.53s-.21.59-.46.81a1,1,0,0,0-.27.5,1.76,1.76,0,0,1-.45-.24c-.38-.28-1-.53-1.23-.14a1.58,1.58,0,0,0-.15.4c-.17.51-.73.76-1.15,1.09s-.77,1-.41,1.37c.18.2.49.28.58.53s-.21.59-.46.81c-.42.36-.5,1.43.06,1.72.23.13.58.17.63.42s-.18.41-.33.59a1.1,1.1,0,0,0,.34,1.65c.13.07.29.12.34.26a.48.48,0,0,1,0,.31,1.72,1.72,0,0,0,0,.6.21.21,0,0,0,.25.23c.8,0,1.19-.24,1.68.46a.69.69,0,0,0,.17.17.55.55,0,0,0,.22.06c.56,0,.92-.3,1.42-.37a1.21,1.21,0,0,1,.53.05.85.85,0,0,0,.43.89c.11.06.24.1.28.21a.34.34,0,0,1,0,.24,1.5,1.5,0,0,0,0,.47.25.25,0,0,0,.06.15.23.23,0,0,0,.14,0c.63,0,.94-.2,1.32.35a.5.5,0,0,0,.14.15.47.47,0,0,0,.17,0c.44,0,.72-.24,1.12-.29.55-.07.67.22,1.16.45.76.36,1.13.13,1.28-.39a2,2,0,0,0,.06-.45c.05-.81.73-.81,1.4-.88a.38.38,0,0,0,.16.41.85.85,0,0,0,.5.13c.11.13,0,.33-.08.46s-.24.29-.2.46.41.25.66.21a1.49,1.49,0,0,1,.14.51c.05.17.18.35.36.33s.27-.21.43-.25.35.12.5.25l.09.06a.37.37,0,0,0-.08.3c.06.25.41.26.66.21a1.74,1.74,0,0,1,.13.51c.05.17.19.35.36.33s.27-.21.43-.25.36.13.5.25.41.2.51,0,0-.24.09-.33.37-.07.54,0,.42.23.53.06a.49.49,0,0,0,.06-.17.72.72,0,0,1,.28-.32h0a1.49,1.49,0,0,1,.14.51c.05.18.18.36.36.33s.27-.2.43-.24.35.12.5.25.41.2.51,0,0-.24.09-.34.37-.06.53.06.42.23.54.06a1.15,1.15,0,0,0,.06-.17c.08-.23.32-.34.5-.48s.34-.42.18-.6-.21-.12-.25-.23.09-.25.2-.35.21-.62,0-.75l-.14-.06c.18,0,.35.13.49.25s.41.2.51,0,0-.24.09-.34.37-.06.54.06.42.23.53.06a.49.49,0,0,0,.06-.17c.08-.22.32-.33.51-.47s.33-.43.17-.6-.21-.12-.25-.23.09-.26.2-.35a.47.47,0,0,0,.12-.22.57.57,0,0,1,.19.1c.17.12.42.23.54.06a.85.85,0,0,0,.06-.17.69.69,0,0,1,.29-.32,1.63,1.63,0,0,0,0,.44.27.27,0,0,0,.08.19.31.31,0,0,0,.17.05c.81,0,1.2-.25,1.69.45a.67.67,0,0,0,.16.18.86.86,0,0,0,.23.05c.55.05.91-.3,1.42-.36.7-.09.85.27,1.47.56,1,.46,1.44.18,1.62-.49a2.43,2.43,0,0,0,.09-.57c.07-1.2,1.21-1,2.18-1.17.76-.12-1.25-2,.28-2.65a1.35,1.35,0,0,0,.73-.52A.85.85,0,0,0,318.5,368.43ZM294.93,374c0-.15-.14-.35-.22-.57a.61.61,0,0,1,.22-.13h0C295.07,373.55,295.17,373.84,294.93,374Z" style="fill:#fff;opacity:0.2"></path><path d="M305.26,369.82s-1.12,1.58-1.5,2.08a16.85,16.85,0,0,0-2.58,5.69c0,.22-.05.41-.08.58.83,5.47.7,15.48.67,17.19h-2.63c0-1.93-.24-19.6-.33-20.14a6.63,6.63,0,0,0-2.88-3.63c-1.69-.9-3.16-3.85-3.16-3.85h.54a9.79,9.79,0,0,0,2.43,2.81,4.68,4.68,0,0,0,.64.38,9.08,9.08,0,0,1,.57-3.19l.29.27a7.61,7.61,0,0,0-.22,3.24,5.84,5.84,0,0,1,1.47,1c1.48-1.93,2.31-6.33,2.31-6.33l.38.21a21.83,21.83,0,0,1-.49,2.7,42.27,42.27,0,0,1-1.47,4.25,10.25,10.25,0,0,1,1.12,2.1,1.15,1.15,0,0,1,.14-.17c1-.87,2.78-5,2.78-5,.44-.95-.23-3.47-.23-3.47h.5l.23,2.2,1.27-1.39.23.2-1.35,1.73-.69,2.2,1.81-2Z" style="fill:#263238"></path><path d="M261.39,397.48a3.45,3.45,0,0,1,0-3.38,2.81,2.81,0,0,1,3.21-1.53c-1-1.41.44-3.3,2.7-2.64s1.31,2.64,4.44.31,5.14,1.44,5.2,2.67,1.17,3.16,2.29,3.38l.23.08a1.79,1.79,0,0,1,1.2-1.33,4.26,4.26,0,0,0,3.28-4.1c-.07-1.81,2.15-3.57,3.81-1.87s1.44-1.31,3.66-2,4.1,1,3.49,2.66,1.58,2.63,4.2,1.25,5.51,1.13,4.95,3.09a6.34,6.34,0,0,0-.21,1l.07,0a4.26,4.26,0,0,0,3.28-4.1c-.07-1.81,2.15-3.57,3.81-1.87s1.45-1.31,3.66-2,4.1,1,3.49,2.66,1.59,2.63,4.21,1.25,5.5,1.13,4.94,3.09-.1,2.18,1.56,1.52,4.55,1.16,3.62,3.51H257.57C258.17,397.39,261.39,397.48,261.39,397.48Z" style="fill:#263238"></path><g style="opacity:0.2"><path d="M261.39,397.48a3.45,3.45,0,0,1,0-3.38,2.81,2.81,0,0,1,3.21-1.53c-1-1.41.44-3.3,2.7-2.64s1.31,2.64,4.44.31,5.14,1.44,5.2,2.67,1.17,3.16,2.29,3.38l.23.08a1.79,1.79,0,0,1,1.2-1.33,4.26,4.26,0,0,0,3.28-4.1c-.07-1.81,2.15-3.57,3.81-1.87s1.44-1.31,3.66-2,4.1,1,3.49,2.66,1.58,2.63,4.2,1.25,5.51,1.13,4.95,3.09a6.34,6.34,0,0,0-.21,1l.07,0a4.26,4.26,0,0,0,3.28-4.1c-.07-1.81,2.15-3.57,3.81-1.87s1.45-1.31,3.66-2,4.1,1,3.49,2.66,1.59,2.63,4.21,1.25,5.5,1.13,4.94,3.09-.1,2.18,1.56,1.52,4.55,1.16,3.62,3.51H257.57C258.17,397.39,261.39,397.48,261.39,397.48Z" style="fill:#fff"></path></g><path d="M299.07,397.79a2.85,2.85,0,0,1,0-2.73,2.21,2.21,0,0,1,2.54-1.23c-.78-1.14.35-2.66,2.14-2.13s1,2.13,3.52.25,4.07,1.16,4.11,2.15.93,2.55,1.82,2.73a1.15,1.15,0,0,1,.17.06,1.46,1.46,0,0,1,.95-1.07,3.41,3.41,0,0,0,2.6-3.31c-.05-1.46,1.7-2.88,3-1.51s1.14-1.05,2.9-1.64,3.24.84,2.76,2.14,1.25,2.12,3.33,1,4.35.91,3.92,2.49a4.59,4.59,0,0,0-.17.84l.05,0a3.41,3.41,0,0,0,2.6-3.31c-.05-1.46,1.7-2.88,3-1.51s1.14-1.05,2.89-1.64,3.25.84,2.77,2.14,1.25,2.12,3.32,1,4.36.91,3.92,2.49-.08,1.76,1.24,1.23,3.6.93,2.86,2.83h-59.3C296.52,397.71,299.07,397.79,299.07,397.79Z" style="fill:#263238"></path><path d="M299.07,397.79a2.85,2.85,0,0,1,0-2.73,2.21,2.21,0,0,1,2.54-1.23c-.78-1.14.35-2.66,2.14-2.13s1,2.13,3.52.25,4.07,1.16,4.11,2.15.93,2.55,1.82,2.73a1.15,1.15,0,0,1,.17.06,1.46,1.46,0,0,1,.95-1.07,3.41,3.41,0,0,0,2.6-3.31c-.05-1.46,1.7-2.88,3-1.51s1.14-1.05,2.9-1.64,3.24.84,2.76,2.14,1.25,2.12,3.33,1,4.35.91,3.92,2.49a4.59,4.59,0,0,0-.17.84l.05,0a3.41,3.41,0,0,0,2.6-3.31c-.05-1.46,1.7-2.88,3-1.51s1.14-1.05,2.89-1.64,3.25.84,2.77,2.14,1.25,2.12,3.32,1,4.36.91,3.92,2.49-.08,1.76,1.24,1.23,3.6.93,2.86,2.83h-59.3C296.52,397.71,299.07,397.79,299.07,397.79Z" style="fill:#fff;opacity:0.30000000000000004"></path><path d="M238.37,378.6a1.35,1.35,0,0,0-.72-.18c-.15-.18,0-.47.12-.66s.33-.41.28-.65-.59-.37-1-.3a3,3,0,0,1-.2-.73c-.06-.25-.26-.51-.51-.47s-.38.29-.61.35h-.06c-.16-.39-.34-.87.21-1.09a.82.82,0,0,0,.45-.32.55.55,0,0,0-.2-.66,1.29,1.29,0,0,0-.72-.18c-.16-.19,0-.47.12-.66s.33-.42.27-.65-.58-.37-.94-.3a2.61,2.61,0,0,1-.2-.74c-.06-.24-.26-.5-.51-.47s-.38.3-.62.35-.5-.17-.71-.35l-.13-.08a.58.58,0,0,0,.12-.43c-.09-.36-.59-.37-1-.3a3,3,0,0,1-.2-.73c-.06-.25-.26-.51-.51-.48s-.38.3-.61.35-.51-.17-.72-.35-.58-.29-.73-.06,0,.34-.13.48-.53.09-.76-.08-.6-.32-.77-.09a1.25,1.25,0,0,0-.09.25.9.9,0,0,1-.39.45h0a2.61,2.61,0,0,1-.2-.74c-.06-.24-.26-.5-.51-.47s-.38.3-.62.35-.5-.17-.71-.35-.59-.29-.73-.06,0,.34-.13.48-.53.09-.76-.08-.61-.33-.77-.09a1.06,1.06,0,0,0-.09.25c-.11.32-.45.48-.72.68s-.48.61-.25.85.31.18.36.33-.13.37-.29.51-.31.89,0,1.07l.21.09c-.27.05-.5-.18-.71-.36s-.59-.29-.73-.05,0,.33-.13.47-.53.1-.76-.08-.61-.32-.77-.08a1,1,0,0,0-.09.24c-.11.32-.45.48-.72.68s-.48.61-.25.86.31.17.36.33-.13.36-.29.5a.58.58,0,0,0-.16.31,1.59,1.59,0,0,1-.29-.15c-.23-.17-.6-.32-.76-.09a1.25,1.25,0,0,0-.09.25c-.11.32-.45.48-.72.68s-.48.61-.25.86.3.17.36.32-.13.37-.29.51-.31.89,0,1.07c.14.08.36.1.39.26s-.11.26-.21.37a.69.69,0,0,0,.21,1c.09,0,.19.08.22.16a.35.35,0,0,1,0,.2,1.14,1.14,0,0,0,0,.37.17.17,0,0,0,0,.12.35.35,0,0,0,.11,0c.5,0,.74-.16,1,.28a.52.52,0,0,0,.1.11l.14,0c.35,0,.57-.18.89-.22a.85.85,0,0,1,.33,0,.54.54,0,0,0,.26.56c.07,0,.15.06.18.13a.39.39,0,0,1,0,.15.7.7,0,0,0,0,.29s0,.07,0,.09a.14.14,0,0,0,.09,0c.39,0,.58-.12.82.22a.34.34,0,0,0,.08.09.22.22,0,0,0,.11,0c.27,0,.45-.14.7-.17s.41.13.72.27c.47.22.7.09.79-.24a1.16,1.16,0,0,0,0-.28c0-.5.44-.5.86-.55a.26.26,0,0,0,.1.26.58.58,0,0,0,.31.08c.07.08,0,.2-.05.29s-.14.18-.12.28.26.16.41.13a1.08,1.08,0,0,1,.09.32c0,.11.11.22.22.2s.17-.12.27-.15.22.08.31.16l.06,0a.27.27,0,0,0-.06.19c0,.15.26.16.42.13a1.5,1.5,0,0,1,.08.32c0,.1.11.21.22.2s.17-.13.27-.15.22.07.31.15.26.13.32,0,0-.15.06-.21.23,0,.33,0,.26.15.33,0a.36.36,0,0,0,0-.11.44.44,0,0,1,.17-.19h0a1.08,1.08,0,0,1,.09.32c0,.1.11.21.22.2s.16-.13.27-.15.22.07.31.15.25.13.32,0,0-.15,0-.21.23,0,.33,0,.26.15.33,0a.21.21,0,0,0,0-.11c0-.13.2-.2.32-.29s.2-.27.11-.37-.14-.08-.16-.15.06-.16.12-.21.14-.39,0-.47l-.09,0c.11,0,.22.08.31.16s.25.12.31,0,0-.15.06-.21.23,0,.33,0,.26.14.33,0a.3.3,0,0,0,0-.11c.05-.14.2-.21.32-.3s.2-.26.11-.37-.14-.07-.16-.14,0-.16.12-.22a.27.27,0,0,0,.08-.14l.12.07c.1.07.26.14.33,0a.49.49,0,0,0,0-.11.39.39,0,0,1,.18-.2.82.82,0,0,0,0,.27s0,.09.05.12a.2.2,0,0,0,.11,0c.5,0,.74-.16,1.05.28a.27.27,0,0,0,.1.11.33.33,0,0,0,.14,0c.34,0,.57-.19.88-.23s.53.17.92.35c.6.28.89.11,1-.3a2,2,0,0,0,.05-.36c0-.74.75-.63,1.36-.73s-.78-1.26.17-1.65a.81.81,0,0,0,.46-.32A.54.54,0,0,0,238.37,378.6Zm-14.66,3.48c0-.1-.09-.22-.14-.36a.32.32,0,0,1,.14-.08h0C223.79,381.79,223.86,382,223.71,382.08Z" style="fill:#263238"></path><path d="M238.37,378.6a1.35,1.35,0,0,0-.72-.18c-.15-.18,0-.47.12-.66s.33-.41.28-.65-.59-.37-1-.3a3,3,0,0,1-.2-.73c-.06-.25-.26-.51-.51-.47s-.38.29-.61.35h-.06c-.16-.39-.34-.87.21-1.09a.82.82,0,0,0,.45-.32.55.55,0,0,0-.2-.66,1.29,1.29,0,0,0-.72-.18c-.16-.19,0-.47.12-.66s.33-.42.27-.65-.58-.37-.94-.3a2.61,2.61,0,0,1-.2-.74c-.06-.24-.26-.5-.51-.47s-.38.3-.62.35-.5-.17-.71-.35l-.13-.08a.58.58,0,0,0,.12-.43c-.09-.36-.59-.37-1-.3a3,3,0,0,1-.2-.73c-.06-.25-.26-.51-.51-.48s-.38.3-.61.35-.51-.17-.72-.35-.58-.29-.73-.06,0,.34-.13.48-.53.09-.76-.08-.6-.32-.77-.09a1.25,1.25,0,0,0-.09.25.9.9,0,0,1-.39.45h0a2.61,2.61,0,0,1-.2-.74c-.06-.24-.26-.5-.51-.47s-.38.3-.62.35-.5-.17-.71-.35-.59-.29-.73-.06,0,.34-.13.48-.53.09-.76-.08-.61-.33-.77-.09a1.06,1.06,0,0,0-.09.25c-.11.32-.45.48-.72.68s-.48.61-.25.85.31.18.36.33-.13.37-.29.51-.31.89,0,1.07l.21.09c-.27.05-.5-.18-.71-.36s-.59-.29-.73-.05,0,.33-.13.47-.53.1-.76-.08-.61-.32-.77-.08a1,1,0,0,0-.09.24c-.11.32-.45.48-.72.68s-.48.61-.25.86.31.17.36.33-.13.36-.29.5a.58.58,0,0,0-.16.31,1.59,1.59,0,0,1-.29-.15c-.23-.17-.6-.32-.76-.09a1.25,1.25,0,0,0-.09.25c-.11.32-.45.48-.72.68s-.48.61-.25.86.3.17.36.32-.13.37-.29.51-.31.89,0,1.07c.14.08.36.1.39.26s-.11.26-.21.37a.69.69,0,0,0,.21,1c.09,0,.19.08.22.16a.35.35,0,0,1,0,.2,1.14,1.14,0,0,0,0,.37.17.17,0,0,0,0,.12.35.35,0,0,0,.11,0c.5,0,.74-.16,1,.28a.52.52,0,0,0,.1.11l.14,0c.35,0,.57-.18.89-.22a.85.85,0,0,1,.33,0,.54.54,0,0,0,.26.56c.07,0,.15.06.18.13a.39.39,0,0,1,0,.15.7.7,0,0,0,0,.29s0,.07,0,.09a.14.14,0,0,0,.09,0c.39,0,.58-.12.82.22a.34.34,0,0,0,.08.09.22.22,0,0,0,.11,0c.27,0,.45-.14.7-.17s.41.13.72.27c.47.22.7.09.79-.24a1.16,1.16,0,0,0,0-.28c0-.5.44-.5.86-.55a.26.26,0,0,0,.1.26.58.58,0,0,0,.31.08c.07.08,0,.2-.05.29s-.14.18-.12.28.26.16.41.13a1.08,1.08,0,0,1,.09.32c0,.11.11.22.22.2s.17-.12.27-.15.22.08.31.16l.06,0a.27.27,0,0,0-.06.19c0,.15.26.16.42.13a1.5,1.5,0,0,1,.08.32c0,.1.11.21.22.2s.17-.13.27-.15.22.07.31.15.26.13.32,0,0-.15.06-.21.23,0,.33,0,.26.15.33,0a.36.36,0,0,0,0-.11.44.44,0,0,1,.17-.19h0a1.08,1.08,0,0,1,.09.32c0,.1.11.21.22.2s.16-.13.27-.15.22.07.31.15.25.13.32,0,0-.15,0-.21.23,0,.33,0,.26.15.33,0a.21.21,0,0,0,0-.11c0-.13.2-.2.32-.29s.2-.27.11-.37-.14-.08-.16-.15.06-.16.12-.21.14-.39,0-.47l-.09,0c.11,0,.22.08.31.16s.25.12.31,0,0-.15.06-.21.23,0,.33,0,.26.14.33,0a.3.3,0,0,0,0-.11c.05-.14.2-.21.32-.3s.2-.26.11-.37-.14-.07-.16-.14,0-.16.12-.22a.27.27,0,0,0,.08-.14l.12.07c.1.07.26.14.33,0a.49.49,0,0,0,0-.11.39.39,0,0,1,.18-.2.82.82,0,0,0,0,.27s0,.09.05.12a.2.2,0,0,0,.11,0c.5,0,.74-.16,1.05.28a.27.27,0,0,0,.1.11.33.33,0,0,0,.14,0c.34,0,.57-.19.88-.23s.53.17.92.35c.6.28.89.11,1-.3a2,2,0,0,0,.05-.36c0-.74.75-.63,1.36-.73s-.78-1.26.17-1.65a.81.81,0,0,0,.46-.32A.54.54,0,0,0,238.37,378.6Zm-14.66,3.48c0-.1-.09-.22-.14-.36a.32.32,0,0,1,.14-.08h0C223.79,381.79,223.86,382,223.71,382.08Z" style="fill:#fff;opacity:0.5"></path><path d="M230.13,379.47s-.69,1-.93,1.3a10.36,10.36,0,0,0-1.6,3.54c0,.13,0,.25,0,.35a84.58,84.58,0,0,1,.41,10.7h-1.63c0-1.2-.15-12.19-.21-12.53a4.15,4.15,0,0,0-1.79-2.26,6.49,6.49,0,0,1-2-2.39h.33a6.24,6.24,0,0,0,1.51,1.75,3.18,3.18,0,0,0,.4.23,5.72,5.72,0,0,1,.35-2l.19.16a4.57,4.57,0,0,0-.14,2,3.62,3.62,0,0,1,.91.61,12.1,12.1,0,0,0,1.44-3.93l.24.13a14.36,14.36,0,0,1-.31,1.68c-.17.71-.68,2-.91,2.65a5.91,5.91,0,0,1,.69,1.3l.09-.11a15.74,15.74,0,0,0,1.73-3.1,4.9,4.9,0,0,0-.15-2.16h.32l.14,1.37.79-.86.14.12-.83,1.08-.44,1.36,1.13-1.24Z" style="fill:#263238"></path><path d="M160.47,397.8a2.76,2.76,0,0,1,0-2.7,2.24,2.24,0,0,1,2.56-1.22c-.79-1.13.35-2.64,2.16-2.11s1,2.11,3.54.24,4.11,1.16,4.15,2.14.94,2.53,1.83,2.7l.18.06a1.44,1.44,0,0,1,1-1.06,3.43,3.43,0,0,0,2.63-3.27c-.06-1.45,1.71-2.86,3-1.5s1.15-1,2.92-1.63,3.27.83,2.79,2.13,1.26,2.1,3.35,1,4.4.9,3.95,2.46a5.32,5.32,0,0,0-.16.83l0,0a3.4,3.4,0,0,0,2.62-3.27c0-1.45,1.72-2.86,3.05-1.5s1.15-1,2.92-1.63,3.27.83,2.79,2.13,1.26,2.1,3.35,1,4.4.9,3.95,2.46-.08,1.74,1.25,1.22,3.63.92,2.89,2.8H157.42C157.9,397.72,160.47,397.8,160.47,397.8Z" style="fill:#263238"></path><g style="opacity:0.2"><path d="M160.47,397.8a2.76,2.76,0,0,1,0-2.7,2.24,2.24,0,0,1,2.56-1.22c-.79-1.13.35-2.64,2.16-2.11s1,2.11,3.54.24,4.11,1.16,4.15,2.14.94,2.53,1.83,2.7l.18.06a1.44,1.44,0,0,1,1-1.06,3.43,3.43,0,0,0,2.63-3.27c-.06-1.45,1.71-2.86,3-1.5s1.15-1,2.92-1.63,3.27.83,2.79,2.13,1.26,2.1,3.35,1,4.4.9,3.95,2.46a5.32,5.32,0,0,0-.16.83l0,0a3.4,3.4,0,0,0,2.62-3.27c0-1.45,1.72-2.86,3.05-1.5s1.15-1,2.92-1.63,3.27.83,2.79,2.13,1.26,2.1,3.35,1,4.4.9,3.95,2.46-.08,1.74,1.25,1.22,3.63.92,2.89,2.8H157.42C157.9,397.72,160.47,397.8,160.47,397.8Z" style="fill:#fff"></path></g><path d="M191.23,398.05a2.24,2.24,0,0,1,0-2.16,1.75,1.75,0,0,1,2-1c-.62-.9.27-2.11,1.69-1.69s.83,1.69,2.79.2,3.22.92,3.25,1.71.74,2,1.44,2.15a.84.84,0,0,1,.14.06,1.16,1.16,0,0,1,.75-.86,2.7,2.7,0,0,0,2.06-2.61c0-1.16,1.35-2.28,2.39-1.2s.9-.83,2.29-1.3,2.57.67,2.19,1.7,1,1.68,2.63.8,3.45.72,3.1,2a5,5,0,0,0-.13.66l0,0a2.7,2.7,0,0,0,2.06-2.61c0-1.16,1.34-2.28,2.39-1.2s.9-.83,2.29-1.3,2.57.67,2.19,1.7,1,1.68,2.63.8,3.45.72,3.1,2-.06,1.39,1,1,2.85.74,2.26,2.24H188.84C189.21,398,191.23,398.05,191.23,398.05Z" style="fill:#263238"></path><path d="M191.23,398.05a2.24,2.24,0,0,1,0-2.16,1.75,1.75,0,0,1,2-1c-.62-.9.27-2.11,1.69-1.69s.83,1.69,2.79.2,3.22.92,3.25,1.71.74,2,1.44,2.15a.84.84,0,0,1,.14.06,1.16,1.16,0,0,1,.75-.86,2.7,2.7,0,0,0,2.06-2.61c0-1.16,1.35-2.28,2.39-1.2s.9-.83,2.29-1.3,2.57.67,2.19,1.7,1,1.68,2.63.8,3.45.72,3.1,2a5,5,0,0,0-.13.66l0,0a2.7,2.7,0,0,0,2.06-2.61c0-1.16,1.34-2.28,2.39-1.2s.9-.83,2.29-1.3,2.57.67,2.19,1.7,1,1.68,2.63.8,3.45.72,3.1,2-.06,1.39,1,1,2.85.74,2.26,2.24H188.84C189.21,398,191.23,398.05,191.23,398.05Z" style="fill:#fff;opacity:0.30000000000000004"></path></g><g id="Plants"><path d="M307.22,417.52s7.95-15.52,5.95-17-5.95,13-5.95,11.84.22-20.86-3.45-20.07,0,18.94,0,18.94-4.95-9.28-6.88-8.58,5.71,11.74,5.71,11.74-4.57-2.76-5.71-2.55,5.71,5.72,5.71,5.72Z" style="fill:#407BFF"></path><path d="M81.52,417.52s-8-15.52-6-17,6,13,6,11.84S81.3,391.46,85,392.25s0,18.94,0,18.94,4.94-9.28,6.88-8.58-5.71,11.74-5.71,11.74,4.56-2.76,5.71-2.55-5.71,5.72-5.71,5.72Z" style="fill:#407BFF"></path><path d="M157.16,417.52s-9-8-6.34-9.3,6,6,6.34,4.9-1.77-11.21,3.25-10.51,0,10.51,0,10.51,3.71-4,5-3.39-3.95,7.79-3.95,7.79Z" style="fill:#407BFF"></path><path d="M428,417.52s9-8,6.33-9.3-6,6-6.33,4.9,1.77-11.21-3.25-10.51,0,10.51,0,10.51-3.72-4-5-3.39,4,7.79,4,7.79Z" style="fill:#407BFF"></path><g style="opacity:0.4"><path d="M307.22,417.52s7.95-15.52,5.95-17-5.95,13-5.95,11.84.22-20.86-3.45-20.07,0,18.94,0,18.94-4.95-9.28-6.88-8.58,5.71,11.74,5.71,11.74-4.57-2.76-5.71-2.55,5.71,5.72,5.71,5.72Z" style="fill:#fff"></path><path d="M81.52,417.52s-8-15.52-6-17,6,13,6,11.84S81.3,391.46,85,392.25s0,18.94,0,18.94,4.94-9.28,6.88-8.58-5.71,11.74-5.71,11.74,4.56-2.76,5.71-2.55-5.71,5.72-5.71,5.72Z" style="fill:#fff"></path><path d="M157.16,417.52s-9-8-6.34-9.3,6,6,6.34,4.9-1.77-11.21,3.25-10.51,0,10.51,0,10.51,3.71-4,5-3.39-3.95,7.79-3.95,7.79Z" style="fill:#fff"></path><path d="M428,417.52s9-8,6.33-9.3-6,6-6.33,4.9,1.77-11.21-3.25-10.51,0,10.51,0,10.51-3.72-4-5-3.39,4,7.79,4,7.79Z" style="fill:#fff"></path></g><path d="M64.25,417.47H81.52s-4.07-5.08-8.63-5.84S64.25,417.47,64.25,417.47Z" style="fill:#263238"></path><path d="M170.89,417.47h7.94s-2.52-3.41-4.85-3.56S170.89,417.47,170.89,417.47Z" style="fill:#263238"></path><path d="M390.19,417.47h12.4s-2.76-5.81-6.2-6S390.19,417.47,390.19,417.47Z" style="fill:#263238"></path><path d="M64.25,417.47H81.52s-4.07-5.08-8.63-5.84S64.25,417.47,64.25,417.47Z" style="fill:#fff;opacity:0.4"></path><path d="M170.89,417.47h7.94s-2.52-3.41-4.85-3.56S170.89,417.47,170.89,417.47Z" style="fill:#fff;opacity:0.4"></path><path d="M390.19,417.47h12.4s-2.76-5.81-6.2-6S390.19,417.47,390.19,417.47Z" style="fill:#fff;opacity:0.4"></path></g><g id="Character"><g id="group"><path d="M241.55,184.69s5.88,7.68,6.6,9.93c0,0,8.57.89,9.62,2.54a16.5,16.5,0,0,1,1.67,4s6.93.26,7.83.86a27.56,27.56,0,0,1,3.17,3.37s6.18-2.67,7.84-1a14.92,14.92,0,0,0,3.77,2.67s5.73-4.76,8.15-4.76,6.33-2,6.33-2v1.81l-3.62,2.24,5.13-1.94s-3.17,4.51-5.28,4.22c0,0,3,.93,4.53.39a6.81,6.81,0,0,1-3.13,1.32l2.22,1.71-2.22,3.67-1.55.76h1.55s-8,3.12-12-1.7c0,0-7.69,3.53-9.65,2.69a14.77,14.77,0,0,1-2.76-1.44s-6,3.15-8,1.57a28.23,28.23,0,0,0-4.52-2.82s-7.28,1.42-8.3.79-12.18-5.23-12.18-5.23-8-15.94-6.91-18.13S241.55,184.69,241.55,184.69Z" style="fill:#263238"></path><path d="M244.19,164.93c3.15,3.43-2.6,18.58-2.43,21.94s-5.89,3.75-7.91,1.93-6.28-8.11-3.92-13.9S244.19,164.93,244.19,164.93Z" style="fill:#263238"></path><path d="M306.48,275.48s7.09-4.51,12.69-6,24.25-1.09,30.6-1.93,12.68-17.06,15.67-19,8.95-8.22,8.95-8.22l-2.23-14.75S377.38,236.14,377,243c0,0,3-6,1.49-15h6.34s4.11,11.39,2.61,16.46c0,0,2.15-4.15.33-12.1,0,0,5.9,8.91.73,17.22,0,0,6.41.46,6.78-1.89a22.12,22.12,0,0,0,0-5.25s4.85,7.17-1.49,12.15l5.59-2.07s1,13.34,1.62,15.43-8.33,9.6-8.33,9.6l-13.43,6.87s9.32-3.63,12.68,0c0,0-11.19,1.46-14.18,5.68s-16.64-2.47-16.64-2.47-6.86,8.3-13.58,2.47-31.34-8.05-37.69-5.68l-1.49-6.87" style="fill:#263238"></path><path d="M158.15,156.71c-.92-.83-9.29-3.5-9.29-3.5l-2.54,8s8.37,5.69,12.18,3.78l1.16-2.38.76-1.21S159.07,157.55,158.15,156.71Z" style="fill:#ebb376"></path><path d="M206.27,184.47l-2,14.95c-.8-.34-1.58-.7-2.32-1a66.38,66.38,0,0,1-6.58-3.53c-9-5.49-13.05-10.92-13.05-10.92s-7.23-3.28-9.27-4.89c-4.25-3.32-16-14.42-16-14.42l3.38-3.24c6.54,5,11.55,6.68,15.32,8.44,2.47,1.16,8.37,5,8.37,5s8.61,1.85,11.54,3.13C200.17,179.92,203.81,184.65,206.27,184.47Z" style="fill:#ebb376"></path><path d="M201.92,198.37a66.38,66.38,0,0,1-6.58-3.53c1.18-3.1,4.6-6,4.6-6Z" style="opacity:0.2;isolation:isolate"></path><polygon points="233.85 241.5 210.72 175.96 209.91 176.25 232.93 241.5 233.85 241.5" style="fill:#263238"></polygon><g style="opacity:0.2"><polygon points="233.85 241.5 210.72 175.96 209.91 176.25 232.93 241.5 233.85 241.5" style="fill:#fff"></polygon></g><polygon points="211.63 172.6 213.14 176.86 212.07 179.76 211.83 180.4 211.25 180.05 208.6 178.46 207.1 174.2 210.04 175.33 211.63 172.6" style="fill:#407BFF"></polygon><polygon points="233.85 241.5 212.07 179.76 213.14 176.86 211.63 172.6 210.04 175.33 233.39 241.5 233.85 241.5" style="opacity:0.2;isolation:isolate"></polygon><polygon points="236.84 241.5 213.14 169.22 212.31 169.5 235.92 241.5 236.84 241.5" style="fill:#263238"></polygon><g style="opacity:0.2"><polygon points="236.84 241.5 213.14 169.22 212.31 169.5 235.92 241.5 236.84 241.5" style="fill:#fff"></polygon></g><polygon points="214.13 165.89 215.53 170.18 214.4 173.06 214.15 173.69 213.57 173.32 210.96 171.68 209.56 167.39 212.47 168.58 214.13 165.89" style="fill:#407BFF"></polygon><polygon points="236.84 241.5 214.4 173.06 215.53 170.18 214.13 165.89 212.47 168.58 236.38 241.5 236.84 241.5" style="opacity:0.2;isolation:isolate"></polygon><polygon points="236.76 241.5 205.95 175.24 205.16 175.61 235.8 241.5 236.76 241.5" style="fill:#263238"></polygon><g style="opacity:0.2"><polygon points="236.76 241.5 205.95 175.24 205.16 175.61 235.8 241.5 236.76 241.5" style="fill:#fff"></polygon></g><polygon points="206.54 171.81 208.44 175.91 207.65 178.9 207.48 179.56 206.86 179.26 204.08 177.94 202.17 173.84 205.21 174.68 206.54 171.81" style="fill:#407BFF"></polygon><polygon points="236.76 241.5 207.65 178.9 208.44 175.91 206.54 171.81 205.21 174.68 236.28 241.5 236.76 241.5" style="opacity:0.2;isolation:isolate"></polygon><path d="M209.53,186.87l16.07-2.18,20.7,59.66a4.24,4.24,0,0,1-2.32,5.28l-6.27,2.73A4.25,4.25,0,0,1,232,249.9Z" style="fill:#263238"></path><path d="M209.53,186.87l16.07-2.18,20.7,59.66a4.24,4.24,0,0,1-2.32,5.28l-6.27,2.73A4.25,4.25,0,0,1,232,249.9Z" style="fill:#fff;opacity:0.4"></path><path d="M251.31,308.21s13,36.83,28.85,44.78c0,0-15.05,39.72-16.3,42.86s-4.42,21.67-4.42,21.67h13.2s.41-16.6.83-21.67S294,355.5,292.71,351.73s.42-22.16,5.85-33S251.31,308.21,251.31,308.21Z" style="fill:#407BFF"></path><path d="M189.17,279.65c1.51,8.52,17.82,52,26.18,60.65,0,0-9.3,23.7-11.53,28s4.56,38.07,4.56,38.91,1.12,10.31,1.12,10.31h14.21l-7-10.87s-5.3-31.7-3.91-33.77,15.61-28.67,16.73-29.79,9.6-34,9.6-34Z" style="fill:#407BFF"></path><path d="M251.31,308.21s13,36.83,28.85,44.78c0,0-15.05,39.72-16.3,42.86s-4.42,21.67-4.42,21.67h13.2s.41-16.6.83-21.67S294,355.5,292.71,351.73s.42-22.16,5.85-33S251.31,308.21,251.31,308.21Z" style="opacity:0.2;isolation:isolate"></path><path d="M189.17,279.65c1.51,8.52,17.82,52,26.18,60.65,0,0-9.3,23.7-11.53,28s4.56,38.07,4.56,38.91,1.12,10.31,1.12,10.31h14.21l-7-10.87s-5.3-31.7-3.91-33.77,15.61-28.67,16.73-29.79,9.6-34,9.6-34Z" style="opacity:0.2;isolation:isolate"></path><path d="M330,319.87l-23.88,9.67s-5.52-.8-11.93-1.51c-5-.56-10.56-1-14.42-1-8.78,0-48.91-5.36-61.05-7.5s-23-14.58-28-31.31a50.61,50.61,0,0,1-1.74-12.82c-.45-16.5,3.91-36,3.91-36l38.08,4.08s8.67,15.44,15.78,18.41S307.34,274.3,311,277.25,330,319.87,330,319.87Z" style="fill:#407BFF"></path><path d="M294.16,328c-5-.56-10.56-1-14.42-1-8.78,0-48.91-5.36-61.05-7.5s-23-14.58-28-31.31a50.61,50.61,0,0,1-1.74-12.82c.62,1.13,9.08,16.31,13,17.73,0,0,3.35-5.42,7.56-5.42s37.62,15.71,37.62,15.71,2.11,8.82.43,14.44c0,0,27.69,3.2,37.64,2.81,0,0-2.41-18.87,4.83-25.31C290.05,295.31,282.92,315,294.16,328Z" style="opacity:0.2;isolation:isolate"></path><path d="M246.35,290.36c2.78,4.18.55,21.46-3.63,27s-55.47-8.09-56.87-8.09-4.39,34.59-4.35,36.82,8,.54,8,.54l2.79,12.82s-18.4-5.85-20.35-7.53,3.06-51.85,4.18-53.24,29.83-1.39,29.83-1.39.23-12,3.6-15.06S246.35,290.36,246.35,290.36Z" style="fill:#407BFF"></path><path d="M256.26,205.63c0,.15-.29.49-.82,1l-.05,0c-3.76,3.55-18.56,14.7-21.18,21-4.53,10.86,0,16.19,0,16.19l-35.86,4.94L193,239.38l6.52-20.66-.11-12.06,1.64-5.25v0l.89-2.85-1.78-15.74s5.93-.14,10,1.89c1.86.94,5.93,5.22,5.93,5.22l19.07,3.91s2.45-.8,5.09-1.39h0c2.28-.51,4.69-.85,5.84-.42C251.48,194.08,256.26,204.44,256.26,205.63Z" style="fill:#ebb376"></path><path d="M240.23,192.43l-14.14,4.38-4.34,2.52-1.19-4.4-4.49-5,19.07,3.91S237.59,193,240.23,192.43Z" style="opacity:0.2;isolation:isolate"></path><path d="M256.26,205.63l-.82,1-.05,0c-3.76,3.55-18.56,14.7-21.18,21-4.53,10.86,0,16.19,0,16.19l-35.86,4.94L193,239.38l6.52-20.66-.11-12.06,1.64-5.25c0,.49-.53,7.65.89,8.88,2,1.72,11.48,2.86,11.48,2.86l3.7-6.23-1.06,6.88s14.41,5.18,18.78,3.27c3.54-1.55,7.3-14.41,12.06-15.86C249.39,200.45,256.26,205.63,256.26,205.63Z" style="opacity:0.2;isolation:isolate"></path><path d="M223.45,196.09s2.5-1.13,11.69-2.27a26,26,0,0,1-.43-7.65,55.25,55.25,0,0,1,1.67-8.72c.25-.92.51-1.78.75-2.55l-12.87,8.68c0,.2.05.39.07.6.06.59.12,1.19.14,1.78a11.16,11.16,0,0,1-.57,4.22c-.47,1.18-.52,2.07-1.07,2.68S223.45,196.09,223.45,196.09Z" style="fill:#ebb376"></path><path d="M222.83,192.86a20.08,20.08,0,0,0,11.88-6.69,55.25,55.25,0,0,1,1.67-8.72l-12,6.73c.06.59.12,1.19.14,1.78a11.16,11.16,0,0,1-.57,4.22C223.43,191.36,223.38,192.25,222.83,192.86Z" style="opacity:0.2;isolation:isolate"></path><path d="M222.9,156.94s-5.74,8.65-2.47,14.53S231.77,160,231.77,160Z" style="fill:#263238"></path><path d="M231.34,185.54a9.33,9.33,0,0,1-11.23-1.24,10.38,10.38,0,0,1-3.33-6.87,10,10,0,0,1,0-1.1c.21-6.82,4.06-17.13,11.81-18.06a10.1,10.1,0,0,1,10.78,13.4C237,178.67,235.93,182.89,231.34,185.54Z" style="fill:#ebb376"></path><path d="M228,170.72c-.11.58-.58,1-1,.86s-.55-.66-.4-1.24.6-1,1-.86S228.15,170.13,228,170.72Z" style="fill:#263238"></path><path d="M221.44,168.93c-.11.59-.59,1-1,.86s-.55-.66-.4-1.24.6-1,1-.86S221.59,168.38,221.44,168.93Z" style="fill:#263238"></path><path d="M223.45,169.78a21.62,21.62,0,0,1-4.12,4.21,3.5,3.5,0,0,0,2.64,1.28Z" style="fill:#d58745"></path><path d="M220.22,164.31a.37.37,0,0,0,.2.31,2.87,2.87,0,0,1,1.57,2,.35.35,0,1,0,.69-.07h0a3.48,3.48,0,0,0-1.94-2.55.34.34,0,0,0-.47.14h0A1,1,0,0,0,220.22,164.31Z" style="fill:#263238"></path><path d="M227.18,168a.38.38,0,0,0,.37,0,2.83,2.83,0,0,1,2.55-.11.35.35,0,0,0,.34-.62h0a3.47,3.47,0,0,0-3.21.11.34.34,0,0,0-.16.47h0A.69.69,0,0,0,227.18,168Z" style="fill:#263238"></path><path d="M236.54,161.37l-1,1.13c2.07,1.51.74,4.05-.13,5.12-1.84,2.28-1.67,6.79-.2,9,0,0,.43-1.11,1.29-.53s-1.3,6.36-4.06,8.55c0,0,3.62-1.62,7.21-7.26,3.31-5.23,5-9.92,4.58-12.5Z" style="fill:#263238"></path><path d="M240.86,178.36a7,7,0,0,1-4.82,2.36c-2.45.14-3.16-2.18-2-4.23,1-1.82,3.5-4.14,5.76-3.29S242.34,176.62,240.86,178.36Z" style="fill:#ebb376"></path><path d="M222.68,178.89a.26.26,0,0,1-.25-.24.26.26,0,0,1,.25-.26,9.06,9.06,0,0,0,4.48-1.28.26.26,0,0,1,.35.06.25.25,0,0,1-.06.35,9.42,9.42,0,0,1-4.76,1.37Z" style="fill:#263238"></path><path d="M222.33,176.69s4.33-2.64,5.42-2.19,2.87,3.48,2.87,3.48,3.54-2.72,3.9-4.15v1.44s-.21,11.79-5,13.87a4.42,4.42,0,0,1,1.11,2.71,4,4,0,0,1-.72,2,12.11,12.11,0,0,1,1.49,2.36c.17.66.38,1.72.38,1.72s2.55.3,2.75.75a21.79,21.79,0,0,1,.63,2.19s3.2-1.06,5.09,0l-.68,1.88h-1.94l1.41.91h-2.56l1.15.68s-2.55.22-3.1-1.51a45.68,45.68,0,0,1-4.77-1.66,4.41,4.41,0,0,1-.92-1.74s-4.2-1.88-4.28-3.54c0,0-3.52-3.69-3.79-5.2a5.08,5.08,0,0,1,0-2.34,9.1,9.1,0,0,1-3.37-4.3c-1.06-2.86-.61-8.37-.61-8.37a30.33,30.33,0,0,1,3.44.15,14.32,14.32,0,0,1,1.84,1l.23.8s-2,1.42-2.86,1c0,0,2,4.31,2.78,4.46s1.24-3.17,1.24-3.17l1.55-.15s.89,3.07,2,3,2.27-2.75,2.2-4.18a2.85,2.85,0,0,0-1.48-2.14s-3.49,1.82-5.07,1.06Z" style="fill:#263238"></path><path d="M225,158.74s-.85,1.66.6,4.08c0,0,10.78-1.1,13.65,1.86s4.94.25,4.94.25-8.23-13.56-21.29-8Z" style="fill:#263238"></path><path d="M287.86,311c-4.12,13.7,26.71,42.78,37.52,43.2s17.51,3.35,17.51,3.35l13.79,60h16c-11.15-20.87-19.86-65.87-19.86-65.87a67.55,67.55,0,0,1-23.76-34C322.4,295.2,290.87,301,287.86,311Z" style="fill:#407BFF"></path><path d="M200.16,246l34.39-6.6s2.68,2.21,2.58,3.3S235,244.9,235,244.9s5.16,9.27,6.76,10.4,7.09,7.18,9.55,6.87S238.61,273.85,232.4,273s-32.92-22.56-32.92-22.56S189.63,259.6,188.9,270c0,0-2.76-2.49-2.76-3.4a55.16,55.16,0,0,1,1.13-5.43s-.91-3,0-5a50.49,50.49,0,0,0,1.9-7.44l1.49-7.7s-1.32-3.61,3-3.61A24.67,24.67,0,0,0,200.16,246Z" style="fill:#407BFF"></path><path d="M232.39,273c-6.22-.91-32.91-22.57-32.91-22.57S189.63,259.6,188.9,270c0,0-.27-.24-.65-.62-.82-.8-2.12-2.16-2.12-2.78a54.74,54.74,0,0,1,1.14-5.43s-.91-3,0-5a50.54,50.54,0,0,0,1.91-7.43l.26-1.36,1.22-6.34a4.17,4.17,0,0,1-.17-.85c-.1-1.06.19-2.75,3.13-2.76a24.63,24.63,0,0,0,6.55,8.54l34.37-6.6s2.69,2.21,2.59,3.3-2.13,2.21-2.13,2.21,1.15,2.06,2.52,4.35c1.54,2.57,3.4,5.47,4.24,6.06,1.19.84,4.44,4.3,7.07,6a4.31,4.31,0,0,0,2.48.89C253.77,261.87,238.62,273.85,232.39,273Z" style="fill:#fff;opacity:0.6000000000000001"></path><path d="M189.44,247.39l1.22-6.34a4.17,4.17,0,0,1-.17-.85,56.24,56.24,0,0,1,3.9,6.28Z" style="opacity:0.2;isolation:isolate"></path><path d="M211.57,246.93l23.43-2s1.15,2.06,2.52,4.35C230.75,250.38,211.57,246.93,211.57,246.93Z" style="opacity:0.2;isolation:isolate"></path><path d="M232.39,273c-6.22-.91-32.91-22.57-32.91-22.57S189.63,259.6,188.9,270c0,0-.27-.24-.65-.62-.07-7.95,6.66-19,6.66-19l5.26-1.63s16.25,14.64,22.29,17.07a27.62,27.62,0,0,0,22.26-.67c2.45-1.1,3.65-2.47,4.11-3.87a4.31,4.31,0,0,0,2.48.89C253.77,261.87,238.62,273.85,232.39,273Z" style="opacity:0.2;isolation:isolate"></path><path d="M202,248.75s4.83,10.4,3.47,14.62,7.09,10.35,9.8,9.63,11.46,4.7,11.46,4.7-4.67,2-4.82,3-3,2.81-5.13,3.74-5.43,4.7-5.43,4.7a121.52,121.52,0,0,1-7.82-9.51c-2.74-3.91-6.05-3.31-6.05-5.87s.9-6.34,1.05-8.75-2.07-14.64-2.07-14.64Z" style="fill:#407BFF"></path><path d="M202,248.75s4.83,10.4,3.47,14.62,7.09,10.35,9.8,9.63,11.46,4.7,11.46,4.7-4.67,2-4.82,3-3,2.81-5.13,3.74-5.43,4.7-5.43,4.7a121.52,121.52,0,0,1-7.82-9.51c-2.74-3.91-6.05-3.31-6.05-5.87s.9-6.34,1.05-8.75-2.07-14.64-2.07-14.64Z" style="fill:#fff;opacity:0.6000000000000001"></path><circle cx="199.2" cy="248.75" r="4.3" style="fill:#407BFF"></circle><circle cx="199.2" cy="248.75" r="4.3" style="fill:#fff;opacity:0.4"></circle><circle cx="199.2" cy="248.75" r="2.77" style="fill:#407BFF"></circle><path d="M219.43,189.91s-8.43,19.47,14,42.85l-1.08,5.46s-17-11.8-20.83-27.33,2.77-23.49,2.77-23.49Z" style="fill:#263238"></path><path d="M219.43,189.91s-8.43,19.47,14,42.85l-1.08,5.46s-17-11.8-20.83-27.33,2.77-23.49,2.77-23.49Z" style="fill:#fff;opacity:0.2"></path><path d="M222.31,228.69a2.21,2.21,0,0,1-1.72-.81L218.28,225a2.18,2.18,0,0,1-.47-1.74,2.26,2.26,0,0,1,1-1.51l2.94-1.86a2.21,2.21,0,0,1,3,.68l2,3.11a2.2,2.2,0,0,1,.3,1.69,2.17,2.17,0,0,1-1,1.39l-2.62,1.6A2.22,2.22,0,0,1,222.31,228.69Zm.61-8.12a1.16,1.16,0,0,0-.64.19l-2.93,1.86h0a1.18,1.18,0,0,0-.55.82,1.2,1.2,0,0,0,.25,1l2.32,2.85a1.2,1.2,0,0,0,1.56.27l2.62-1.59a1.21,1.21,0,0,0,.39-1.69l-2-3.11A1.21,1.21,0,0,0,222.92,220.57Zm-3.84,1.62h0Z" style="fill:#fff"></path><path d="M224,226.68a.51.51,0,0,1-.4-.2l-1-1.23a.5.5,0,1,1,.79-.62l1,1.24a.5.5,0,0,1-.09.7A.5.5,0,0,1,224,226.68Z" style="fill:#fff"></path><polygon points="177.95 254.69 177.56 254.27 251.48 185.59 231.49 107.88 232.04 107.73 252.12 185.78 252 185.9 177.95 254.69" style="fill:#263238"></polygon><g style="opacity:0.6000000000000001"><polygon points="177.95 254.69 177.56 254.27 251.48 185.59 231.49 107.88 232.04 107.73 252.12 185.78 252 185.9 177.95 254.69" style="fill:#fff"></polygon></g><path d="M234.27,106c-2.37,3.51-9.73,12.93-21.34,14.13-10.48,1.09-30.55,7.19-44.82,22-1.08,1.11-2.12,2.28-3.11,3.49-.41.5-.83,1-1.21,1.52a50,50,0,0,0-2.92,4.17.91.91,0,0,0-.13.19,54.27,54.27,0,0,0-4,7.45c0,.1-.1.2-.14.3-.4.94-.79,1.89-1.14,2.86-.16.43-.31.85-.45,1.27s-.36,1.07-.5,1.59c-.46,1.48-.84,2.94-1.16,4.41,0,.21-.09.43-.14.64q-.54,2.64-.82,5.23c-2.7,24.73,11.16,47,19.59,55.86,8.05,8.44,7.55,20.4,7.07,24.61a1.17,1.17,0,0,1-1.43,1.09,1,1,0,0,1-.61-1,.47.47,0,0,1,0-.17c.42-3.46,1.3-16.43-7.92-25.62-8.85-8.85-23.43-30.69-22-54.79.1-1.55.26-3.09.48-4.66.12-.79.26-1.59.4-2.39.29-1.43.62-2.87,1-4.3.11-.39.22-.77.35-1.15.26-.9.56-1.8.89-2.69s.63-1.63,1-2.42c.14-.35.3-.69.46-1a50.77,50.77,0,0,1,3.86-7.05c.2-.3.39-.6.59-.88.91-1.35,1.88-2.65,2.89-3.88.41-.5.84-1,1.26-1.49.68-.77,1.38-1.54,2.1-2.27.13-.14.27-.28.4-.4.58-.59,1.17-1.17,1.78-1.72,14.68-13.65,34.78-19,45.47-19.89,13-1,20.72-11.47,22.64-14.36a1,1,0,0,1,1.19-.48A1.17,1.17,0,0,1,234.27,106Z" style="fill:#407BFF"></path><path d="M153.26,170.09q-.54,2.64-.82,5.23l-5.31,0c.1-1.55.26-3.09.48-4.66Z" style="fill:#fff;opacity:0.6000000000000001"></path><path d="M154.56,165c-.46,1.48-.84,2.94-1.16,4.41L148,168.29c.29-1.43.62-2.87,1-4.3Z" style="fill:#fff;opacity:0.6000000000000001"></path><path d="M156.65,159.32c-.4.94-.79,1.89-1.14,2.86-.16.43-.31.85-.45,1.27l-5.67-.61c.26-.9.56-1.8.89-2.69s.63-1.63,1-2.42Z" style="fill:#fff;opacity:0.6000000000000001"></path><path d="M160.74,151.57a54.27,54.27,0,0,0-4,7.45l-5.08-2.33a50.77,50.77,0,0,1,3.86-7.05Z" style="fill:#fff;opacity:0.6000000000000001"></path><path d="M163.79,147.21a50,50,0,0,0-2.92,4.17l-4.71-2.62c.91-1.35,1.88-2.65,2.89-3.88Z" style="fill:#fff;opacity:0.6000000000000001"></path><path d="M168.11,142.2c-1.08,1.11-2.12,2.28-3.11,3.49l-4.69-2.3c.68-.77,1.38-1.54,2.1-2.27l2.13.58-1.73-1c.58-.59,1.17-1.17,1.78-1.72Z" style="fill:#fff;opacity:0.6000000000000001"></path><rect x="189.43" y="100.33" width="1.14" height="128.47" transform="translate(-27.17 291.13) rotate(-71.13)" style="fill:#263238"></rect><g style="opacity:0.2"><rect x="189.43" y="100.33" width="1.14" height="128.47" transform="translate(-27.17 291.13) rotate(-71.13)" style="fill:#fff"></rect></g><polygon points="253.32 189.56 247.7 187.63 245.58 184.16 245.11 183.4 245.96 183.09 249.75 181.65 255.37 183.57 251.8 185.69 253.32 189.56" style="fill:#407BFF"></polygon><polygon points="134.13 149.15 126.56 142.88 136.38 142.58 134.52 145 134.15 145.48 134.15 146.08 134.13 149.15" style="fill:#407BFF"></polygon><polygon points="134.13 149.15 126.56 142.88 251.8 185.69 253.32 189.56 247.7 187.63 245.58 184.16 134.15 146.08 134.13 149.15" style="opacity:0.2;isolation:isolate"></polygon><path d="M261.5,189.19l1.09-1.79a23.57,23.57,0,0,0-2.68-4.05c-.93-.83-9.34-3.36-9.34-3.36l-2.42,8s8.45,5.56,12.23,3.6" style="fill:#ebb376"></path><path d="M262.59,187.4c3,.94,11.09,2.92,16.47,5.14,2.93,1.22,5.88,7.06,5.88,10.14s-13.31,11.72-33.43,4.75l-6.66-12.5s-1.58-2.93.29-3.1c7.21-.66,15,4.44,15.65,4.32S269,197,269,197l-10.37-5Z" style="fill:#ebb376"></path><polygon points="354.91 408.92 354.14 417.52 374.2 417.52 368.76 408.94 358.67 408 357.46 415.09 356.33 408.47 354.91 408.92" style="fill:#263238"></polygon><polygon points="261.15 408 262.49 407.1 262.49 411.51 264.3 407.1 272.87 409.3 275.94 417.52 257.17 417.52 261.15 408" style="fill:#263238"></polygon><polygon points="209.66 407.1 210.45 411.51 211.02 407.1 217.86 408.38 224.25 417.52 205.59 417.52 208.43 407.89 209.66 407.1" style="fill:#263238"></polygon><path d="M181.5,354.39l1.64-7.37,6.84-1.45s4.07,9.38,3.05,15.94l-11.53-5.62,2.94.08Z" style="fill:#263238"></path></g></g></svg>