<svg xmlns="http://www.w3.org/2000/svg" viewBox="0 0 500 500"><g id="background-complete"><path d="M301.38,375.33c-2.31-.34-4.43-.59-6.51-.82a45.85,45.85,0,0,0-21.14,2.67L263.68,381c-2,.75-4.23,1.69-4.81,3.9a4.76,4.76,0,0,0,2.61,5.33c3.58,1.83,7.33.44,10.86-.69a79.18,79.18,0,0,1,25.25-3.68c10.55.18,21,2.47,31.47,3.35s21.61.2,30.77-5Z" style="fill:#ebebeb"></path><path d="M262.25,421.32c-12.06-6.8-27-4-40.53-1l-35.31,7.88a6.34,6.34,0,0,0-3.59,1.66c-1.68,2-.11,5.31,2.32,6.21s5.15.05,7.49-1.06,4.65-2.5,7.23-2.76c8.43-.84,14.14,10.36,22.62,10.26,6.56-.07,10.86-6.72,16.58-9.95,7.46-4.2,16.7-2.27,25.06-.45s17.87,3.2,24.83-1.78c1.58-1.13,3.07-3.09,2.29-4.88-1-2.23-4.19-1.85-6.58-1.34a34.69,34.69,0,0,1-25.11-4.33" style="fill:#ebebeb"></path><path d="M268.09,72.16c.59-4.28-5.44-7.8-10-8.16-2.16-.18-4.41.15-6.46-.56-4.44-1.55-6.21-7.28-10.55-9.11-3.23-1.37-7-.15-10.1,1.43s-6.25,3.57-9.76,3.79c-3.05.2-6.36-.93-9,.56-2,1.11-3,3.4-4.87,4.75s-4.13,1.61-6.36,1.73-4.53.14-6.55,1.07-3.71,3.07-3.29,5.26Z" style="fill:#f5f5f5"></path><path d="M454.92,153.42c.41-3-3.85-5.5-7.05-5.76-1.52-.12-3.11.11-4.55-.39-3.13-1.09-4.38-5.14-7.44-6.43-2.28-1-4.91-.1-7.13,1s-4.4,2.52-6.88,2.68c-2.15.14-4.48-.66-6.37.39-1.4.78-2.14,2.4-3.43,3.35a8.14,8.14,0,0,1-4.48,1.22,12.44,12.44,0,0,0-4.63.76,3.63,3.63,0,0,0-2.31,3.7Z" style="fill:#f5f5f5"></path><path d="M442.28,114c.86-6.25-8-11.4-14.61-11.93-3.16-.26-6.44.23-9.44-.82C411.74,99,409.14,90.64,402.81,88c-4.74-2-10.19-.22-14.79,2.09s-9.13,5.22-14.26,5.55c-4.46.28-9.31-1.37-13.21.81-2.91,1.62-4.43,5-7.11,7s-6.05,2.35-9.3,2.53-6.63.21-9.59,1.56-5.42,4.49-4.8,7.69Z" style="fill:#ebebeb"></path><path d="M202.1,107.4c1.09-7.88-10-14.36-18.39-15-4-.32-8.13.29-11.9-1-8.18-2.86-11.45-13.42-19.43-16.79-6-2.52-12.84-.28-18.63,2.63s-11.5,6.58-18,7c-5.63.36-11.73-1.72-16.65,1-3.67,2-5.59,6.27-9,8.76s-7.62,3-11.72,3.17-8.35.27-12.08,2-6.83,5.66-6,9.69Z" style="fill:#ebebeb"></path><path d="M38.82,436.08C52.51,448.28,71,454.55,89.28,455s36.54-4.72,52.86-13.1c2.27-1.17,4.61-2.48,6-4.6s1.63-5.3-.24-7.06c-1.39-1.31-3.47-1.5-5.38-1.61a443,443,0,0,0-96.1,5.15" style="fill:#ebebeb"></path><path d="M363.27,434.58a29.57,29.57,0,0,0,17.05,10.14c2.78.54,5.88.79,7.9,2.79a30.37,30.37,0,0,1,2.55,3.64c3,4,8.42,4.92,13.33,5.57L422,459.09c2.7.36,5.49.71,8.11,0s5-2.92,5.19-5.64-2.84-5.38-5.32-4.24l20.84-7.72c1.52-.56,3.33-1.54,3.25-3.16s-2.22-2.45-3.92-2.73l-17.07-2.85c-1.8-.3-4.05-1.08-4.11-2.9-.07-2.09,2.71-2.85,4.8-2.92l19.23-.65a161.05,161.05,0,0,0-86,7.42" style="fill:#ebebeb"></path></g><g id="background-simple"><circle cx="143.58" cy="73.55" r="24.44" transform="matrix(0.23, -0.97, 0.97, 0.23, 39.32, 196.65)" style="fill:#ebebeb"></circle><circle cx="267.29" cy="145.7" r="94.47" transform="translate(-24.74 231.67) rotate(-45)" style="fill:#ebebeb"></circle></g><g id="Swan"><path d="M280.37,369.61c6.73-.22,13.45,2.09,20.13,1.19,6.94-.93,13.25-5.26,20.24-5.2,4.28,0,8.22,1.71,12.12,3.59a63.56,63.56,0,0,0,21.39-15.49s23.79-38.48,27.43-45.06,9.1-19.87,9.37-34.28-6.57-24.21-10.21-30.09-23.65-18.19-30.09-22-12.87-13.57-15-19.73.84-13,3.5-16.79,8-3.92,8-3.92c3.91,2.52,15.95,16.09,16.09,16.51s8.39,15.12,9.65,17.07,4.62,3.92,6,4.34a2.69,2.69,0,0,0,3.5-2.24c.28-2-4.48-16.93-4.48-16.93a9.64,9.64,0,0,0,4.34-4.76c1.54-3.49.7-12.31.7-12.31s.56-3.5.84-7-4.06-11.75-6.58-16.23-9.09-8.12-9.09-8.12c-9.29-3.71-22.95-4.75-37.69,6.31-20.37,15.29-24,36.58-20.91,51.75s26,35.58,29.71,37.75,7.43,5.57,8.05,9.9-4.34,6.81-4.34,6.81a81.94,81.94,0,0,1-15.65-10c-8.81-7-25.08-29.65-28.13-35.32s-14-29-17.67-32.49-13.08-3.06-18.1-.88-14.83,19.28-14.83,19.28-11.77-23.42-15.69-30-15.49-15.7-15.49-15.7-26.38-3.71-31.83-2.84-10.47-5.88-13.09-5.23,1.09,5.45,1.09,5.45-11.56-3.27-15-1.74,3.27,3.92,3.27,3.92l-1.09-.11A419.56,419.56,0,0,1,59.2,162.74c.59,3.38,3.77,5.61,6.78,7.26A81.37,81.37,0,0,0,92,178.91l-17.9,7.3c-.92.37-2,.91-2.12,1.89-.16,1.14,1,2,2,2.5a45.22,45.22,0,0,0,27.74,4.13L86.76,208c-1,.88-2.09,2-1.46,3.47a3.06,3.06,0,0,0,2,1.7A33.85,33.85,0,0,0,114,208.93l-9.65,17.83s5.37,4.16,11,1.56S131,215.51,131,215.51l-9,24.76A16.24,16.24,0,0,0,136.88,237c7.44-5.94,14.54-15.11,14.54-15.11l-9.18,27.7s13.14.34,17.74-5.2A53.3,53.3,0,0,0,167.35,232l-4.44,26.14s6.34.35,12.4-5.54l3.39-4.41c.22,7,5.45,8.07,5.45,8.07.44,7.85,4.14,5.89,4.14,5.89.87,7.19,4.15,6.32,4.15,6.32,1.09,8.72,6.32,11.12,6.32,11.12.65,9.38,6.54,7.64,6.54,7.64l.44-14.61c2,17.22,6.1,28.56,8.07,31.83l.05.1-.05-.1s6.76,12.65,9.59,14.83-1.09-17.66-1.09-17.66,1.53,7.41,2.4,12.86,5.89,12.87,8.07,12.22,2-13.09,2-13.09,6.82,8.42,9.54,11.08c6.34,6.18,17.5,14.44,17.5,14.44L251.1,353.91s-13.31,4.58-24.65,7.42a57.05,57.05,0,0,1-24,.87c-3.49-.65-5.67.87-6.59,2.62s8.33,3.92,8.33,3.92-10.68,1.09-7.85,5S210,375,210.51,374.85c-.16,0-1.18.42,0,2.83,1.3,2.62,17.88,1.09,17.88,1.09s-5.24,2.4,2.83,3.71c4.57.74,13.11-1,19.67-2.58C260.64,376.17,270,369.94,280.37,369.61Zm-66.42-65,0,.07Zm.34.56.28.47C214.49,305.56,214.39,305.39,214.29,305.21Z" style="fill:#f5f5f5"></path><path d="M280.37,369.61c6.73-.22,13.45,2.09,20.13,1.19,6.94-.93,13.25-5.26,20.24-5.2,4.28,0,8.22,1.71,12.12,3.59a63.56,63.56,0,0,0,21.39-15.49s23.79-38.48,27.43-45.06,9.1-19.87,9.37-34.28-6.57-24.21-10.21-30.09-23.65-18.19-30.09-22-12.87-13.57-15-19.73.84-13,3.5-16.79,8-3.92,8-3.92c3.91,2.52,15.95,16.09,16.09,16.51s8.39,15.12,9.65,17.07,4.62,3.92,6,4.34a2.69,2.69,0,0,0,3.5-2.24c.28-2-4.48-16.93-4.48-16.93a9.64,9.64,0,0,0,4.34-4.76c1.54-3.49.7-12.31.7-12.31s.56-3.5.84-7-4.06-11.75-6.58-16.23-9.09-8.12-9.09-8.12c-9.29-3.71-22.95-4.75-37.69,6.31-20.37,15.29-24,36.58-20.91,51.75s26,35.58,29.71,37.75,7.43,5.57,8.05,9.9-4.34,6.81-4.34,6.81a81.94,81.94,0,0,1-15.65-10c-8.81-7-25.08-29.65-28.13-35.32s-14-29-17.67-32.49-13.08-3.06-18.1-.88-14.83,19.28-14.83,19.28-11.77-23.42-15.69-30-15.49-15.7-15.49-15.7-26.38-3.71-31.83-2.84-10.47-5.88-13.09-5.23,1.09,5.45,1.09,5.45-11.56-3.27-15-1.74,3.27,3.92,3.27,3.92l-1.09-.11A419.56,419.56,0,0,1,59.2,162.74c.59,3.38,3.77,5.61,6.78,7.26A81.37,81.37,0,0,0,92,178.91l-17.9,7.3c-.92.37-2,.91-2.12,1.89-.16,1.14,1,2,2,2.5a45.22,45.22,0,0,0,27.74,4.13L86.76,208c-1,.88-2.09,2-1.46,3.47a3.06,3.06,0,0,0,2,1.7A33.85,33.85,0,0,0,114,208.93l-9.65,17.83s5.37,4.16,11,1.56S131,215.51,131,215.51l-9,24.76A16.24,16.24,0,0,0,136.88,237c7.44-5.94,14.54-15.11,14.54-15.11l-9.18,27.7s13.14.34,17.74-5.2A53.3,53.3,0,0,0,167.35,232l-4.44,26.14s6.34.35,12.4-5.54l3.39-4.41c.22,7,5.45,8.07,5.45,8.07.44,7.85,4.14,5.89,4.14,5.89.87,7.19,4.15,6.32,4.15,6.32,1.09,8.72,6.32,11.12,6.32,11.12.65,9.38,6.54,7.64,6.54,7.64l.44-14.61c2,17.22,6.1,28.56,8.07,31.83l.05.1-.05-.1s6.76,12.65,9.59,14.83-1.09-17.66-1.09-17.66,1.53,7.41,2.4,12.86,5.89,12.87,8.07,12.22,2-13.09,2-13.09,6.82,8.42,9.54,11.08c6.34,6.18,17.5,14.44,17.5,14.44L251.1,353.91s-13.31,4.58-24.65,7.42a57.05,57.05,0,0,1-24,.87c-3.49-.65-5.67.87-6.59,2.62s8.33,3.92,8.33,3.92-10.68,1.09-7.85,5S210,375,210.51,374.85c-.16,0-1.18.42,0,2.83,1.3,2.62,17.88,1.09,17.88,1.09s-5.24,2.4,2.83,3.71c4.57.74,13.11-1,19.67-2.58C260.64,376.17,270,369.94,280.37,369.61Zm-66.42-65,0,.07Zm.34.56.28.47C214.49,305.56,214.39,305.39,214.29,305.21Z" style="fill:none"></path><path d="M214.29,305.21c.12-.07.35.08.5.34l-.45.27h0v0l0,0,0-.1a1.16,1.16,0,0,1,0-.18c0-.11,0-.19.08-.23s.14,0,.24,0a.8.8,0,0,1,.13.13l.07.08,0,0,0,0v0h0l-.45.27C214.19,305.56,214.16,305.28,214.29,305.21Z" style="fill:#263238"></path><path d="M214,304.65c0,.06.08.13.16.13s.14-.16.1-.2l-.44.27h0l0,0,.07,0a.13.13,0,0,0,.12-.06c0-.07,0-.14,0-.2s-.07-.11,0-.16a.18.18,0,0,1,.15,0l.08,0,0,0v0h0l-.44.27c-.07-.07,0-.27,0-.29S213.91,304.59,214,304.65Z" style="fill:#263238"></path><path d="M280.37,369.61l-2,.16a36.74,36.74,0,0,0-5.81,1.16,68.15,68.15,0,0,0-9.17,3.48c-3.57,1.59-7.63,3.66-12.45,5.55h0a112.11,112.11,0,0,1-12.45,2.45,28.17,28.17,0,0,1-7.19.16,13.54,13.54,0,0,1-3.67-1,1.83,1.83,0,0,1-.42-.26,1.24,1.24,0,0,1-.36-.36.86.86,0,0,1,0-1,3.64,3.64,0,0,1,1.57-1.25l0,.18c-3.23.27-6.65.47-10.23.44a31,31,0,0,1-5.47-.44,6.93,6.93,0,0,1-1.37-.41,2.35,2.35,0,0,1-.62-.38,1.56,1.56,0,0,1-.42-.62,5.12,5.12,0,0,1-.44-1.39,1.64,1.64,0,0,1,0-.76.83.83,0,0,1,.56-.56l.06.21a39.54,39.54,0,0,1-6,.93,22.08,22.08,0,0,1-3.15,0,10,10,0,0,1-3.16-.67,3.83,3.83,0,0,1-2.34-2.25,1.64,1.64,0,0,1,0-.88,1.94,1.94,0,0,1,.41-.76,4.38,4.38,0,0,1,1.37-1,21.32,21.32,0,0,1,6.6-1.69l0,.24a35.12,35.12,0,0,1-7.1-2.39,5.46,5.46,0,0,1-.82-.53,1.22,1.22,0,0,1-.56-.87,1,1,0,0,1,.18-.51c.08-.14.18-.27.27-.41a4.21,4.21,0,0,1,.66-.74,5.75,5.75,0,0,1,3.63-1.48,19.65,19.65,0,0,1,4,.46c1.32.18,2.65.33,4,.42a57.39,57.39,0,0,0,16.67-1.32c2.81-.64,5.64-1.43,8.5-2.24q8.57-2.46,17.46-5.48l-.08.05L261.65,339l0,.22c-4.62-3.46-9.39-7.18-14.1-11.3-1.18-1-2.33-2.1-3.48-3.2s-2.18-2.33-3.24-3.55q-3.15-3.65-6.25-7.48l.3-.11a61.28,61.28,0,0,1-.57,10,9.12,9.12,0,0,1-.72,2.5,2,2,0,0,1-.42.57,1,1,0,0,1-.69.27,2.39,2.39,0,0,1-1.3-.48,14.17,14.17,0,0,1-3.45-4,26.27,26.27,0,0,1-2.37-4.78,19,19,0,0,1-.76-2.6c-.16-.88-.33-1.77-.49-2.66q-1-5.31-2-10.75l.36-.08c.54,2.75,1,5.58,1.45,8.49.21,1.46.4,2.93.54,4.43.07.75.12,1.51.14,2.27a7.8,7.8,0,0,1-.22,2.33.78.78,0,0,1-.51.53.86.86,0,0,1-.67-.25,9.41,9.41,0,0,1-.84-.83,23.32,23.32,0,0,1-1.44-1.84c-.9-1.27-1.75-2.58-2.57-3.92q-2.46-4-4.74-8.24l.34-.2.06.1-.33.2A24.55,24.55,0,0,1,212,301.1c-.49-1.22-.93-2.47-1.36-3.74-.83-2.55-1.56-5.19-2.21-7.89a145.81,145.81,0,0,1-2.93-16.87l.41,0c-.13,4.42-.28,9.49-.43,14.61v.16l-.14,0a4.92,4.92,0,0,1-2.81-.17,5,5,0,0,1-2.3-1.84,11.74,11.74,0,0,1-1.7-5.81l.12.17a11.5,11.5,0,0,1-4.42-4.68,19.3,19.3,0,0,1-2-6.6l.27.18a2.52,2.52,0,0,1-2-.57,4.64,4.64,0,0,1-1.29-1.71,13.48,13.48,0,0,1-1.11-4.23l.31.17a2.48,2.48,0,0,1-2.13,0,3.57,3.57,0,0,1-1.44-1.68,13.25,13.25,0,0,1-.89-4.38l.17.2a7.2,7.2,0,0,1-4.1-3,10.1,10.1,0,0,1-1.52-5.25l.39.13c-1,1.33-2.2,2.86-3.38,4.41h0a18.81,18.81,0,0,1-12.57,5.6h-.25l.05-.27c1.36-8,2.89-17,4.43-26.14l.44.12a57.49,57.49,0,0,1-3.62,7.12c-.7,1.16-1.45,2.32-2.27,3.45a16.09,16.09,0,0,1-2.79,3.18,18.87,18.87,0,0,1-7.94,3.26,42.82,42.82,0,0,1-8.7.8h-.32l.1-.31c2.83-8.53,6-18.06,9.17-27.7l.42.22A108,108,0,0,1,139.4,235.2a39.31,39.31,0,0,1-3.66,3,18.9,18.9,0,0,1-4.27,2.12,16.09,16.09,0,0,1-9.57.23l-.23-.07.09-.24,9-24.76.4.25A110.31,110.31,0,0,1,119.51,226a27.52,27.52,0,0,1-3.43,2.21,9.68,9.68,0,0,1-4,1.18,12.58,12.58,0,0,1-7.92-2.43l-.17-.12.11-.19,9.65-17.84.36.33a34.23,34.23,0,0,1-25.78,4.56,8.56,8.56,0,0,1-1.7-.49A3.28,3.28,0,0,1,85.26,212a2.56,2.56,0,0,1-.34-1.84,3.41,3.41,0,0,1,.94-1.59c1.72-1.62,3.47-3.1,5.21-4.67l10.54-9.34.22.44a45.66,45.66,0,0,1-26.08-3.29c-.53-.23-1-.49-1.56-.73a7.23,7.23,0,0,1-1.51-.93,2.38,2.38,0,0,1-.93-1.62,2,2,0,0,1,.86-1.68,6.65,6.65,0,0,1,1.58-.83l1.6-.65L79,183.94l12.93-5.27.06.5A81.39,81.39,0,0,1,65.4,170a19.94,19.94,0,0,1-4-2.87A7.9,7.9,0,0,1,59,162.78l-.06-.33.34,0a420,420,0,0,0,94.23-2.58l7.32-1.09h.07l1.08.11-.11.51a18.07,18.07,0,0,1-2.57-1.17,6.76,6.76,0,0,1-1.19-.81,2.44,2.44,0,0,1-.51-.59,1.06,1.06,0,0,1-.12-.88,1.89,1.89,0,0,1,1.2-1l.71-.22.71-.11a16.48,16.48,0,0,1,2.81,0,62.35,62.35,0,0,1,10.89,2.09l-.27.41a14,14,0,0,1-1.73-2.92,3.63,3.63,0,0,1-.32-1.75,1.1,1.1,0,0,1,.14-.48,1,1,0,0,1,.33-.39,1,1,0,0,1,.43-.24,1.08,1.08,0,0,1,.47-.11,3.34,3.34,0,0,1,1.73.42,13.23,13.23,0,0,1,1.46.85c.94.6,1.83,1.25,2.76,1.84a11.5,11.5,0,0,0,6,2.21c1-.06,2.22-.22,3.31-.19s2.21,0,3.32.1c4.41.26,8.78.72,13.15,1.21s8.7,1,13,1.65h.07l0,0a115.15,115.15,0,0,1,10.47,9.5,41.11,41.11,0,0,1,4.52,5.42c1.29,2,2.36,4,3.49,6.1,4.41,8.23,8.61,16.5,12.77,24.74h-.45q2.35-4,4.93-7.92a82.52,82.52,0,0,1,5.52-7.49,21.91,21.91,0,0,1,3.33-3.27,12.3,12.3,0,0,1,4.36-1.73,26.31,26.31,0,0,1,9.23-.48,13.14,13.14,0,0,1,4.45,1.36,6.59,6.59,0,0,1,1,.65l.46.37a4.18,4.18,0,0,1,.4.44,17.72,17.72,0,0,1,1.41,1.85c1.68,2.57,3.14,5.24,4.58,7.92,2.86,5.36,5.54,10.78,8.22,16.17l2,4c.67,1.35,1.36,2.66,2.15,3.93,1.58,2.53,3.28,5,5,7.42,3.46,4.85,7,9.6,10.78,14.16s7.57,9.06,12.17,12.64a84.64,84.64,0,0,0,14.69,9.28H343a8.78,8.78,0,0,0,3.8-3.78,6.33,6.33,0,0,0-.31-5.22,13.64,13.64,0,0,0-3.25-4.37,27.11,27.11,0,0,0-4.45-3.24,81.06,81.06,0,0,1-8.39-7.26c-2.65-2.56-5.19-5.21-7.58-8-1.23-1.35-2.36-2.79-3.52-4.19s-2.23-2.88-3.22-4.4-2-3-2.92-4.59a43,43,0,0,1-2.34-4.89,34.85,34.85,0,0,1-2.2-10.54,50.06,50.06,0,0,1,.4-10.67,48.15,48.15,0,0,1,2.58-10.27,50.67,50.67,0,0,1,4.6-9.45,58.23,58.23,0,0,1,14-15.16,52.52,52.52,0,0,1,8.73-5.35A38.46,38.46,0,0,1,348.6,150a35.65,35.65,0,0,1,19.73,2h0a31.36,31.36,0,0,1,7.49,5.88,18.9,18.9,0,0,1,2.58,3.93q1.13,2.06,2.15,4.12a41.12,41.12,0,0,1,3.36,8.57,7.24,7.24,0,0,1,.18,2.32c-.06.76-.14,1.51-.22,2.27-.17,1.5-.37,3-.6,4.48v0a47.61,47.61,0,0,1,0,9.7,9.83,9.83,0,0,1-5.13,7.58l.11-.25c1,3,1.88,6.07,2.73,9.09.43,1.52.84,3,1.21,4.55.18.77.35,1.53.47,2.31a3.6,3.6,0,0,1,0,1.23,2.93,2.93,0,0,1-.46,1.15,2.83,2.83,0,0,1-2.1,1.21,4.29,4.29,0,0,1-2.32-.58,16.46,16.46,0,0,1-3.84-2.63,7.55,7.55,0,0,1-1.45-1.83l-1.15-2-2.26-3.94-4.41-7.85-1.08-2-.26-.49c-.09-.13-.18-.42-.27-.48-.18-.24-.44-.56-.68-.83-1-1.12-1.93-2.23-2.92-3.31q-3-3.28-6-6.4c-1-1-2-2.06-3.08-3a27.46,27.46,0,0,0-3.27-2.76l.11,0a10.81,10.81,0,0,0-7.34,3.23,23.37,23.37,0,0,0-3.74,7.23,17.17,17.17,0,0,0-.72,8,15.53,15.53,0,0,0,1.19,3.8,37.17,37.17,0,0,0,1.75,3.59,44.52,44.52,0,0,0,9.68,12.28c.47.44,1,.79,1.51,1.19s1.07.7,1.63,1l3.3,2c2.18,1.34,4.33,2.68,6.45,4.05,4.24,2.73,8.36,5.52,12.26,8.48a61.44,61.44,0,0,1,5.56,4.71c.43.43.83.89,1.24,1.33s.75,1,1.08,1.46c.63,1,1.25,2,1.88,3A59.38,59.38,0,0,1,389.05,260a48.89,48.89,0,0,1,1.62,6.63,44.53,44.53,0,0,1,.53,6.68,64.83,64.83,0,0,1-1.34,12.94,80.76,80.76,0,0,1-3.39,12.05,74.48,74.48,0,0,1-5,10.94c-1.95,3.4-3.94,6.66-5.88,9.87-7.77,12.8-14.91,24.36-21.28,34.66h0a64,64,0,0,1-11.09,9.71,64.64,64.64,0,0,1-10.35,5.79h-.07c-4-2-8.05-3.55-12-3.59s-7.46,1.25-10.62,2.37a51,51,0,0,1-8.87,2.67,28.22,28.22,0,0,1-7.57.16c-2.24-.21-4.18-.5-5.85-.72s-3.06-.37-4.17-.45-2-.1-2.52-.1h-.84a28.25,28.25,0,0,1,3.36.06c1.12.07,2.51.21,4.18.42s3.61.5,5.85.7a28.46,28.46,0,0,0,7.54-.18,51.52,51.52,0,0,0,8.85-2.69c3.16-1.12,6.68-2.42,10.67-2.39s8,1.62,12.08,3.58h-.08a64.79,64.79,0,0,0,10.31-5.79,63.62,63.62,0,0,0,11-9.69h0c6.35-10.3,13.48-21.87,21.24-34.67,1.93-3.21,3.92-6.48,5.87-9.88a74.43,74.43,0,0,0,4.93-10.9,79.87,79.87,0,0,0,3.37-12,63.59,63.59,0,0,0,1.32-12.88,43.78,43.78,0,0,0-.53-6.63,48.53,48.53,0,0,0-1.61-6.58,59,59,0,0,0-6-12.51c-.63-1-1.25-2-1.89-3-.32-.5-.68-1-1-1.43s-.8-.88-1.22-1.3a61.11,61.11,0,0,0-5.54-4.68c-3.89-3-8-5.73-12.24-8.45q-3.16-2.05-6.45-4l-3.3-2c-.55-.32-1.1-.69-1.64-1s-1.06-.76-1.54-1.2a45.24,45.24,0,0,1-9.78-12.38c-.63-1.18-1.25-2.38-1.77-3.62a16.28,16.28,0,0,1-1.21-3.89,17.46,17.46,0,0,1,.72-8.14,24,24,0,0,1,3.82-7.38,11.2,11.2,0,0,1,7.62-3.35h.06l.05,0a28.77,28.77,0,0,1,3.33,2.79c1.05,1,2.08,2,3.09,3.06,2,2.08,4,4.22,6,6.4,1,1.09,2,2.19,2.94,3.32.25.3.47.54.72.9a4.2,4.2,0,0,1,.27.48l.27.49,1.07,2,4.41,7.84,2.26,3.95,1.15,2a7.15,7.15,0,0,0,1.39,1.75,15.85,15.85,0,0,0,3.74,2.55,3.8,3.8,0,0,0,2.09.54,2.46,2.46,0,0,0,1.8-1,2.73,2.73,0,0,0,.4-1,3.69,3.69,0,0,0-.05-1.09c-.11-.75-.29-1.51-.47-2.27-.36-1.51-.77-3-1.2-4.53q-1.29-4.53-2.73-9.08l0-.17.16-.09a9.41,9.41,0,0,0,4.88-7.26,46.62,46.62,0,0,0,0-9.6v-.05c.23-1.48.42-3,.59-4.47.08-.75.16-1.5.22-2.25a7.12,7.12,0,0,0-.17-2.2,41.43,41.43,0,0,0-3.33-8.46c-.68-1.38-1.4-2.75-2.14-4.11a18.43,18.43,0,0,0-2.53-3.85,30.9,30.9,0,0,0-7.37-5.78h0a35.23,35.23,0,0,0-19.48-2,38.06,38.06,0,0,0-9.54,3.11,52.11,52.11,0,0,0-8.66,5.31,57.73,57.73,0,0,0-13.92,15,49.73,49.73,0,0,0-4.56,9.36,47.91,47.91,0,0,0-2.56,10.18,51.1,51.1,0,0,0-.39,10.57,34.52,34.52,0,0,0,2.17,10.39,40.38,40.38,0,0,0,2.32,4.83c.93,1.54,1.83,3.09,2.89,4.56s2.13,2.92,3.21,4.37,2.28,2.83,3.5,4.18c2.38,2.74,4.92,5.38,7.56,7.93a80.28,80.28,0,0,0,8.32,7.2c3.13,1.88,6.29,4.3,7.87,7.82a9.45,9.45,0,0,1,.77,2.76,5.41,5.41,0,0,1-.45,2.86,9.26,9.26,0,0,1-4,4l-.1.06-.11-.05a84.28,84.28,0,0,1-14.79-9.34c-4.66-3.63-8.47-8.19-12.26-12.72s-7.33-9.32-10.8-14.18c-1.72-2.44-3.43-4.9-5-7.45-.8-1.28-1.5-2.62-2.17-4l-2-4c-2.68-5.4-5.36-10.81-8.22-16.17-1.43-2.66-2.9-5.33-4.56-7.87a8.75,8.75,0,0,0-3.08-3.14,12.6,12.6,0,0,0-4.28-1.3,25.72,25.72,0,0,0-9,.46,11.91,11.91,0,0,0-4.17,1.65,21.3,21.3,0,0,0-3.25,3.19,83.82,83.82,0,0,0-5.48,7.44q-2.57,3.87-4.92,7.89l-.23.41-.22-.42c-4.16-8.23-8.36-16.51-12.76-24.72-1.13-2-2.21-4.13-3.47-6.06a41.3,41.3,0,0,0-4.46-5.36,116.74,116.74,0,0,0-10.42-9.44l.13.05q-6.49-.88-13-1.64c-4.36-.5-8.73-.95-13.12-1.21-1.1-.06-2.2-.1-3.29-.1s-2.12.12-3.3.19a12.05,12.05,0,0,1-6.28-2.29c-.94-.6-1.84-1.25-2.76-1.85a14.23,14.23,0,0,0-1.41-.81,2.85,2.85,0,0,0-1.45-.37.89.89,0,0,0-.91.77,3.21,3.21,0,0,0,.29,1.48,13.25,13.25,0,0,0,1.66,2.8l.44.6-.72-.19a62.86,62.86,0,0,0-10.79-2.07,15.33,15.33,0,0,0-2.71,0l-.66.1-.62.19a1.51,1.51,0,0,0-.91.68c-.1.26.16.63.48.91a7.33,7.33,0,0,0,1.1.75,18.62,18.62,0,0,0,2.49,1.13l2,.72-2.07-.22-1.09-.12h.07l-7.32,1.1A421.15,421.15,0,0,1,59.18,163l.28-.3a7.45,7.45,0,0,0,2.3,4,19,19,0,0,0,3.9,2.79,80.64,80.64,0,0,0,8.65,4.15,81.66,81.66,0,0,0,17.76,5l.91.15-.85.34L79.2,184.42,76,185.73l-1.6.65a5.84,5.84,0,0,0-1.47.76,1.44,1.44,0,0,0-.66,1.24,1.85,1.85,0,0,0,.76,1.26A14.66,14.66,0,0,0,76,191.22a45.12,45.12,0,0,0,25.79,3.26l.88-.15-.67.59-10.54,9.34c-1.73,1.55-3.53,3.08-5.18,4.63a3.08,3.08,0,0,0-.82,1.36,2.08,2.08,0,0,0,.28,1.47,2.74,2.74,0,0,0,1.17,1,9.23,9.23,0,0,0,1.59.45,33.69,33.69,0,0,0,25.39-4.49l.82-.53-.46.86-9.66,17.83-.06-.31a12.14,12.14,0,0,0,7.58,2.33c2.7-.15,5-1.76,7.16-3.3a108.88,108.88,0,0,0,11.59-10.26l.78-.77-.37,1c-3.13,8.59-6.23,17.11-9,24.76l-.14-.31a15.61,15.61,0,0,0,9.25-.23,19,19,0,0,0,4.16-2.06,38.6,38.6,0,0,0,3.61-2.91,107.6,107.6,0,0,0,12.14-13.07l.83-1-.42,1.26c-3.19,9.64-6.35,19.17-9.18,27.7l-.21-.3a44,44,0,0,0,8.6-.79,18.5,18.5,0,0,0,7.74-3.17,16,16,0,0,0,2.71-3.09c.81-1.12,1.55-2.26,2.25-3.42a56.41,56.41,0,0,0,3.59-7l.76-1.83-.33,2c-1.55,9.11-3.08,18.13-4.44,26.14l-.21-.26a16.44,16.44,0,0,0,6.82-1.67,20.73,20.73,0,0,0,5.42-3.81l0,0,3.38-4.41.38-.49,0,.62a9.66,9.66,0,0,0,1.44,5,6.8,6.8,0,0,0,3.83,2.85l.16,0,0,.16a12.73,12.73,0,0,0,.84,4.22,3.09,3.09,0,0,0,1.25,1.47,2,2,0,0,0,1.73,0l.28-.13,0,.29a13.53,13.53,0,0,0,1.06,4.1,4.38,4.38,0,0,0,1.18,1.55,2.1,2.1,0,0,0,1.63.5l.24-.05,0,.23a18.63,18.63,0,0,0,2,6.45,11.11,11.11,0,0,0,4.23,4.5l.11.06v.12a11.4,11.4,0,0,0,1.62,5.6,4.56,4.56,0,0,0,2.11,1.69,4.43,4.43,0,0,0,2.54.16l-.15.19c.16-5.12.31-10.19.44-14.61l.41,0a144.58,144.58,0,0,0,2.91,16.82c.64,2.7,1.37,5.33,2.2,7.87.42,1.26.86,2.51,1.35,3.71a24.4,24.4,0,0,0,1.63,3.46l-.34.2-.05-.1.34-.19c1.51,2.8,3.08,5.56,4.72,8.23.82,1.33,1.66,2.64,2.56,3.89a17.88,17.88,0,0,0,1.41,1.81,7.37,7.37,0,0,0,.79.79c.31.26.44.24.58-.12a7.1,7.1,0,0,0,.19-2.18c0-.75-.06-1.5-.13-2.24-.13-1.49-.32-3-.53-4.41-.42-2.91-.91-5.74-1.44-8.48l.36-.07q1,5.44,2,10.77c.16.89.33,1.77.49,2.65a18.62,18.62,0,0,0,.74,2.55,26.17,26.17,0,0,0,2.34,4.71,14.1,14.1,0,0,0,3.34,3.88,2,2,0,0,0,1.09.41c.37,0,.61-.28.81-.64a9.2,9.2,0,0,0,.68-2.4,60.32,60.32,0,0,0,.58-9.9v-.49l.31.38c2.07,2.55,4.14,5.05,6.24,7.48,1.06,1.21,2.11,2.41,3.22,3.53s2.29,2.16,3.46,3.19c4.7,4.11,9.47,7.83,14.08,11.3l.12.09-.09.13L251.22,354l0,0,0,0q-8.91,3-17.48,5.47c-2.87.81-5.69,1.6-8.51,2.24a57.56,57.56,0,0,1-16.76,1.31c-1.36-.09-2.71-.24-4-.43a20.62,20.62,0,0,0-3.92-.46A5.5,5.5,0,0,0,197,363.6a4.57,4.57,0,0,0-.62.7,3.3,3.3,0,0,0-.26.39.77.77,0,0,0-.15.38c0,.25.24.49.47.68a5.19,5.19,0,0,0,.78.5,35.15,35.15,0,0,0,7,2.37l.62.16-.64.08a21.07,21.07,0,0,0-6.51,1.66,4.19,4.19,0,0,0-1.3,1,1.47,1.47,0,0,0-.34,1.42,3.62,3.62,0,0,0,2.2,2.11,9.64,9.64,0,0,0,3.08.65,20.44,20.44,0,0,0,3.13,0,38,38,0,0,0,6-.91l0,.21c-.42.11-.53.65-.46,1.08a4.6,4.6,0,0,0,.43,1.33,1.51,1.51,0,0,0,.93.9,7.45,7.45,0,0,0,1.32.4,31.39,31.39,0,0,0,5.43.44c3.57,0,7-.16,10.22-.43l.47,0-.42.22A3.49,3.49,0,0,0,227,380a.67.67,0,0,0,0,.82,1,1,0,0,0,.32.31,1.5,1.5,0,0,0,.4.25,13.45,13.45,0,0,0,3.61,1,28.28,28.28,0,0,0,7.14-.15,113.14,113.14,0,0,0,12.44-2.42h0c4.82-1.87,8.88-3.94,12.46-5.51a66.5,66.5,0,0,1,9.19-3.46,35.87,35.87,0,0,1,5.83-1.13C279.7,369.64,280.37,369.61,280.37,369.61Z" style="fill:#263238"></path><path d="M373.08,215.29c1.26,2,4.62,3.91,6,4.33a2.69,2.69,0,0,0,3.5-2.23c.28-2-4.48-16.94-4.48-16.94a9.65,9.65,0,0,0,4.34-4.75,11,11,0,0,0,.68-2.82,50.09,50.09,0,0,0-.72-8.43,34.84,34.84,0,0,0-9.29-18.75,5.64,5.64,0,0,0-1.91-1.46,3.34,3.34,0,0,0-3.06.19c-1.35.74-1.24,3-.72,4.26.92,2.18,2.16,4.15,2.53,6.48a11.32,11.32,0,0,1-.56,6.87,42.59,42.59,0,0,1-3.7,5.81,13.77,13.77,0,0,0-2.1,10.73C364.83,200.88,371.92,213.48,373.08,215.29Z" style="fill:#FF725E"></path><g style="opacity:0.30000000000000004"><path d="M377.8,199.77l.52,1.26a56.5,56.5,0,0,1-1.83-19.54,28.76,28.76,0,0,0-5.34,6.57,12.48,12.48,0,0,0-1.57,8.19,15.2,15.2,0,0,0,3,6.11,36.35,36.35,0,0,0,8.36,8.06A60.65,60.65,0,0,0,377.8,199.77Z"></path></g><path d="M380.6,219.51a8.3,8.3,0,0,1-1.06-1.13c-.64-.75-1.55-1.86-2.62-3.28a118.57,118.57,0,0,1-7.56-11.59,37.39,37.39,0,0,1-3.42-6.85,8.22,8.22,0,0,1-.33-3.37,9.19,9.19,0,0,1,.82-2.83,18.22,18.22,0,0,1,2.25-3.56,8.29,8.29,0,0,1,1-1.16,9.62,9.62,0,0,1-.85,1.28,21.2,21.2,0,0,0-2.08,3.59,8.22,8.22,0,0,0-.36,5.91,38.77,38.77,0,0,0,3.41,6.73c2.7,4.67,5.36,8.76,7.41,11.64,1,1.44,1.89,2.58,2.48,3.37A10.36,10.36,0,0,1,380.6,219.51Z" style="fill:#263238"></path><path d="M373.22,167.45a2.81,2.81,0,1,1-2.8-2.8A2.8,2.8,0,0,1,373.22,167.45Z" style="fill:#263238"></path><path d="M313.9,207.91a18.77,18.77,0,0,1-2.21-11.34c.16,0,.1,2.61.72,5.74S314.05,207.85,313.9,207.91Z" style="fill:#263238"></path><path d="M316.21,208.91a13.83,13.83,0,0,1-2.35-7.45A36.29,36.29,0,0,1,315,205.2,33.84,33.84,0,0,1,316.21,208.91Z" style="fill:#263238"></path><path d="M319,209.68a6.68,6.68,0,0,1-1.72-2.82,6.76,6.76,0,0,1-.68-3.23,23.43,23.43,0,0,1,1.16,3A24.77,24.77,0,0,1,319,209.68Z" style="fill:#263238"></path><path d="M357.61,258.06c-.16,0-.43-1.69-1.27-3.62s-1.87-3.31-1.75-3.41a7.36,7.36,0,0,1,2.23,3.2A7.5,7.5,0,0,1,357.61,258.06Z" style="fill:#263238"></path><path d="M359.49,257.09a27.29,27.29,0,0,1-.88-2.68,24.22,24.22,0,0,1-1.06-2.62,4.9,4.9,0,0,1,1.55,2.44A4.74,4.74,0,0,1,359.49,257.09Z" style="fill:#263238"></path><path d="M362.43,258.46c-.15,0-.43-1.38-1.18-2.93s-1.66-2.65-1.55-2.76a7.21,7.21,0,0,1,2.73,5.69Z" style="fill:#263238"></path><path d="M368.91,272.31a4.62,4.62,0,0,1-1.11-.08c-.71-.08-1.74-.24-3-.47a84.66,84.66,0,0,1-19.06-5.91c-1.16-.53-2.1-1-2.73-1.31a4.65,4.65,0,0,1-1-.56,4.39,4.39,0,0,1,1.05.38l2.79,1.15c2.36,1,5.65,2.21,9.36,3.36s7.14,2,9.63,2.53l2.95.63A4.67,4.67,0,0,1,368.91,272.31Z" style="fill:#263238"></path><path d="M370.33,167.36c-.12.08-.5-.29-.86-.82s-.54-1-.42-1.1.5.29.86.82S370.45,167.28,370.33,167.36Z" style="fill:#fafafa"></path><path d="M187,171.85s-.27.11-.79.29l-2.28.74c-2,.63-4.87,1.52-8.48,2.47a87.12,87.12,0,0,1-12.89,2.44,57.9,57.9,0,0,1-7.76.24,44.53,44.53,0,0,1-8.26-1.17c-2.75-.71-5.5-1.92-7.22-4.14a2.31,2.31,0,0,1-.65-2.05,1.49,1.49,0,0,1,.79-.84,4.27,4.27,0,0,1,1-.31l3.72-.73,12.85-2.5,8.68-1.65,2.36-.42a4.66,4.66,0,0,1,.83-.11,4.26,4.26,0,0,1-.81.21l-2.34.52-8.64,1.81-12.84,2.61-3.71.75c-.6.12-1.24.33-1.39.82a1.86,1.86,0,0,0,.58,1.58c1.61,2.08,4.24,3.25,6.94,3.94a44.24,44.24,0,0,0,8.15,1.17,58.72,58.72,0,0,0,7.69-.21A89.63,89.63,0,0,0,175.33,175c3.62-.9,6.52-1.73,8.52-2.3l2.31-.65A4.71,4.71,0,0,1,187,171.85Z" style="fill:#263238"></path><path d="M202.3,177.81a2.43,2.43,0,0,1-.53.25l-1.56.61c-1.37.5-3.36,1.21-5.87,1.92a93.39,93.39,0,0,1-20,3.44c-3.21.2-6.3.23-9.18.12a18.46,18.46,0,0,1-4.14-.64,8.59,8.59,0,0,1-3.35-1.84l-.24-.22.3-.12,7.88-3.27,2.19-.88a4.57,4.57,0,0,1,.78-.27,3.79,3.79,0,0,1-.74.39l-2.14,1-7.8,3.44.06-.35c1.71,1.58,4.4,2.18,7.22,2.29s5.94.06,9.13-.13a101.09,101.09,0,0,0,20-3.28c2.52-.67,4.51-1.32,5.9-1.76l1.59-.52A2,2,0,0,1,202.3,177.81Z" style="fill:#263238"></path><path d="M138.84,176a9.85,9.85,0,0,1-1.63.48c-1.06.28-2.6.63-4.51,1a126.79,126.79,0,0,1-15.11,2.09,123.44,123.44,0,0,1-15.26.2c-2-.1-3.53-.21-4.61-.33a10.48,10.48,0,0,1-1.68-.23,9.48,9.48,0,0,1,1.69,0c1.09.06,2.67.12,4.61.18,3.9.1,9.28.08,15.21-.36a151.22,151.22,0,0,0,15.08-1.94c1.92-.34,3.46-.64,4.53-.86A12,12,0,0,1,138.84,176Z" style="fill:#263238"></path><path d="M148.84,182.52a7.86,7.86,0,0,1-1.23.63c-.8.38-2,.9-3.44,1.5-2.94,1.21-7.06,2.73-11.71,4.11a122.18,122.18,0,0,1-12.06,2.93c-1.56.29-2.82.5-3.7.62a8.09,8.09,0,0,1-1.38.14,6.32,6.32,0,0,1,1.34-.34l3.67-.78c3.09-.67,7.35-1.7,12-3.07s8.76-2.83,11.72-3.95l3.5-1.35A6.1,6.1,0,0,1,148.84,182.52Z" style="fill:#263238"></path><path d="M160,188.65a6.81,6.81,0,0,1-1.2.72c-.78.43-1.93,1-3.36,1.74-2.87,1.42-6.9,3.26-11.43,5.07s-8.74,3.23-11.8,4.16c-1.53.47-2.78.83-3.64,1a6.34,6.34,0,0,1-1.36.3,8.23,8.23,0,0,1,1.3-.49l3.59-1.21c3-1,7.18-2.49,11.71-4.29s8.56-3.59,11.47-4.93l3.43-1.58A7.26,7.26,0,0,1,160,188.65Z" style="fill:#263238"></path><path d="M165.35,194.3a16.54,16.54,0,0,0,9.15,3.38,4.2,4.2,0,0,0-2.07,5.15,6.55,6.55,0,0,0,4.39,3.93,15.43,15.43,0,0,0,6.06.34c6.32-.61,12.46-2.41,18.7-3.62,3-.59,6.26-1,9,.28,3.55,1.66,5.32,5.6,7.78,8.66A20.65,20.65,0,0,0,233.64,220a2.12,2.12,0,0,0,1.88-.62c.5-.71,0-1.67-.46-2.4a92,92,0,0,0-12-14.53c-3.36-3.29-7.21-6.44-11.84-7.25-2.84-.5-5.89-.1-8.5-1.32s-4.2-3.73-6.38-5.54c-3.21-2.68-7.56-3.69-11.74-3.62a53.63,53.63,0,0,0-12.34,2.19,15.31,15.31,0,0,0-5,2,5.17,5.17,0,0,0-2.4,4.57" style="fill:#ebebeb"></path><path d="M200.27,187.72c-4.23,2-13.84,6.46-18.07,8.5-1.4.68-3,1.77-2.82,3.31.26,1.72,2.53,2.15,4.26,2.06,8.54-.46,16.72-3.46,24.73-6.44,0,0,6.06-1.07,10,3s16,12.71,16,12.71" style="fill:#f5f5f5"></path><path d="M234.38,210.86a2.3,2.3,0,0,1-.51-.31l-1.43-1c-1.24-.88-3-2.18-5.25-3.85s-4.88-3.7-7.72-6.23c-.71-.64-1.38-1.36-2.13-2a9.62,9.62,0,0,0-2.61-1.45,13.06,13.06,0,0,0-6.31-.66h0c-3.54,1.31-7.37,2.75-11.43,4a66.52,66.52,0,0,1-8.54,2c-1.4.2-2.78.38-4.15.46a6.89,6.89,0,0,1-4-.59,2.64,2.64,0,0,1-.79-.7,2.27,2.27,0,0,1-.38-1,2.44,2.44,0,0,1,.65-1.89,8.89,8.89,0,0,1,3.07-2l5.83-2.7,8.44-3.88,2.31-1a4.49,4.49,0,0,1,.82-.32,6.35,6.35,0,0,1-.78.42l-2.26,1.12-8.37,4-5.8,2.76a8.6,8.6,0,0,0-2.91,1.87,2,2,0,0,0-.54,1.53,1.83,1.83,0,0,0,.95,1.34,6.51,6.51,0,0,0,3.75.5c1.35-.08,2.72-.26,4.1-.47a66.39,66.39,0,0,0,8.48-2c4-1.2,7.85-2.62,11.4-3.92h0a13.47,13.47,0,0,1,6.57.71,10.06,10.06,0,0,1,2.72,1.53c.8.66,1.45,1.37,2.14,2,2.79,2.53,5.44,4.58,7.62,6.3l5.16,4,1.38,1.06A3.39,3.39,0,0,1,234.38,210.86Z" style="fill:#263238"></path><path d="M200.27,187.72a99.5,99.5,0,0,1-30.79,6.43,7.25,7.25,0,0,1-3.34-.46,2.65,2.65,0,0,1-1.63-2.7c.26-1.31,1.71-2,3-2.42l15.21-5.43" style="fill:#f5f5f5"></path><path d="M182.68,183.14a2.4,2.4,0,0,1-.54.25l-1.59.62-5.88,2.19-4.06,1.48-2.27.83a13.77,13.77,0,0,0-2.31,1,2.25,2.25,0,0,0-1.3,1.91,2.51,2.51,0,0,0,1.38,2,5.75,5.75,0,0,0,2.7.51c1,0,2-.05,3-.11a106.92,106.92,0,0,0,20.3-3.53c2.55-.7,4.59-1.34,6-1.82.71-.22,1.24-.43,1.61-.55a2.38,2.38,0,0,1,.58-.16,4.35,4.35,0,0,1-.54.26c-.36.15-.88.39-1.58.64-1.38.55-3.41,1.24-6,2a98.93,98.93,0,0,1-20.37,3.7c-1,.06-2,.1-3,.11a6.13,6.13,0,0,1-2.94-.58,3,3,0,0,1-1.64-2.44,2.32,2.32,0,0,1,.47-1.41,3.73,3.73,0,0,1,1.08-.92,13.39,13.39,0,0,1,2.4-1l2.28-.8,4.09-1.43,5.93-2,1.63-.53A4,4,0,0,1,182.68,183.14Z" style="fill:#263238"></path><path d="M251.47,359.7a11.41,11.41,0,0,1-1.49,1c-.49.31-1.09.68-1.81,1.07s-1.53.87-2.47,1.31A60.68,60.68,0,0,1,239,366a67.73,67.73,0,0,1-8.56,2.44,68.6,68.6,0,0,1-8.82,1.22,61.52,61.52,0,0,1-7.26.06c-1,0-2-.14-2.79-.21s-1.52-.16-2.09-.25a10.52,10.52,0,0,1-1.76-.32,13.11,13.11,0,0,1,1.79.12c.57.06,1.27.13,2.09.16s1.74.13,2.77.13a68,68,0,0,0,7.22-.17,73.48,73.48,0,0,0,8.74-1.25,75.08,75.08,0,0,0,8.51-2.38,66.12,66.12,0,0,0,6.67-2.75c.94-.42,1.76-.87,2.49-1.24s1.35-.7,1.85-1A11.93,11.93,0,0,1,251.47,359.7Z" style="fill:#263238"></path><path d="M259.05,363.68a5.48,5.48,0,0,1-.94.82c-.62.5-1.55,1.18-2.73,2a64.32,64.32,0,0,1-20.27,9c-1.39.34-2.52.58-3.3.71a6.92,6.92,0,0,1-1.23.16,5.25,5.25,0,0,1,1.18-.36c.78-.19,1.89-.48,3.25-.86a75.48,75.48,0,0,0,20.17-9c1.2-.76,2.16-1.39,2.81-1.84A7,7,0,0,1,259.05,363.68Z" style="fill:#263238"></path><path d="M283.69,313.13c2.3,3.29,7.36,3.7,10.84,1.69s5.55-5.82,6.71-9.67,1.57-7.89,2.66-11.75a4,4,0,0,1,1.19-2.2c1.76-1.36,4.15.57,6.36.77s4.28-1.49,5.4-3.45,1.62-4.23,2.57-6.28,2.57-4,4.8-4.4c2-.34,3.93.66,5.65,1.7a71.16,71.16,0,0,1,7.88,5.49c-.46-5.79-5.11-10.24-9.44-14.1-3.28-2.92-6.91-6-11.28-6.25-3.69-.22-7.17,1.63-10.35,3.53-8,4.8-15.81,10.49-20.86,18.35s-6.89,18.32-2.67,26.66" style="fill:#e0e0e0"></path><path d="M360.26,314.49c3.07-3.49,3.19-8.86,1.42-13.16s-5.09-7.75-8.48-10.93c-7.87-7.41-16.45-14-25-20.62-2.3-1.78-4.68-3.59-7.47-4.42s-6.13-.47-8.13,1.65c-2.62,2.78-2,7.14-1.89,11s-1.35,8.61-5.14,9a5.91,5.91,0,0,1-5.3-2.93,17.68,17.68,0,0,1-2.07-6,104.49,104.49,0,0,1,1.51,24.72c-.17,2.94-.64,6.21-3,8-2.8,2.19-7.62.64-8.61-2.77a58.88,58.88,0,0,1-.57,34.5,34.76,34.76,0,0,1-13.7-19.8s.68,10.19-3,8.8-11.42-29.21-11.42-29.21l-.58,9.09c-.15,2.22-4,3-6.19,3s-5.26-4.79-5.93-10.5c-2.12-18.13-2.83-27.58-2.83-27.58h0c.45,1-10.72,23.46-13,24.17s-4.53-.83-5.59-2.84a11.08,11.08,0,0,1-1.17-6.64c1.33-9.28,3.85-22.88,3.85-22.88-9.81,13.42-20.6,14.16-32,14.28,5.56-8.28,12.36-15.35,17.48-23.79-10.86,12.31-33.7,13.3-48,5.32,17.29-6.76,34.25-14.67,49.5-25.25s28.83-24,38-40.09c2.91-5.12,6-11,11.65-12.6" style="fill:#f5f5f5"></path><path d="M264.62,186l-.55.2a10.07,10.07,0,0,0-1.58.69,15.86,15.86,0,0,0-5,4.51,42,42,0,0,0-2.72,4.17c-.92,1.58-1.88,3.34-3,5.2A109.66,109.66,0,0,1,243.23,213a136.64,136.64,0,0,1-30.15,27.14,195.43,195.43,0,0,1-21.81,12.65c-8,4-16.59,7.74-25.74,11.32l0-.37a44.76,44.76,0,0,0,23.9,5,41.45,41.45,0,0,0,12.77-2.75,29.2,29.2,0,0,0,11.1-7.52.24.24,0,0,1,.33,0,.24.24,0,0,1,0,.3c-4.82,8-11.76,15.34-17.47,23.8l-.21-.38c5.8-.06,11.92-.28,17.62-2.56a28.49,28.49,0,0,0,7.86-4.73,40.4,40.4,0,0,0,6.35-6.89.27.27,0,0,1,.36-.05.25.25,0,0,1,.1.25l-2.61,15.48c-.42,2.6-.9,5.23-1.29,7.84a10.83,10.83,0,0,0,.35,3.88,8.06,8.06,0,0,0,1.77,3.42,4.8,4.8,0,0,0,3.37,1.59,3.22,3.22,0,0,0,.93-.13,1.79,1.79,0,0,0,.67-.54,16.13,16.13,0,0,0,1.2-1.59c1.49-2.24,2.81-4.62,4.11-7s2.53-4.84,3.74-7.3c.6-1.24,1.18-2.48,1.75-3.73q.42-.94.81-1.89c.12-.32.25-.64.36-1,.06-.16.11-.32.16-.47s.06-.37.08-.34l.47-.21,0,.09c.06.72.12,1.5.19,2.28.4,4.64.87,9.26,1.36,13.85l.75,6.86c.13,1.14.26,2.27.4,3.41a28.47,28.47,0,0,0,.51,3.35,17.08,17.08,0,0,0,2.63,6.12,4.52,4.52,0,0,0,2.46,1.92,9.38,9.38,0,0,0,3.23-.32,4.43,4.43,0,0,0,2.65-1.6,1.73,1.73,0,0,0,.24-.69c0-.25,0-.55.06-.82l.1-1.68q.22-3.33.43-6.65a.26.26,0,0,1,.27-.24.25.25,0,0,1,.23.18c2,6.94,4.09,13.76,6.57,20.32.63,1.63,1.29,3.25,2,4.82a23.62,23.62,0,0,0,1.21,2.28,8.52,8.52,0,0,0,.73,1,4.36,4.36,0,0,0,.43.43,1.49,1.49,0,0,0,.49.24,1.12,1.12,0,0,0,1-.17,2.41,2.41,0,0,0,.67-.94,9,9,0,0,0,.6-2.43,28.77,28.77,0,0,0,.15-5.08.25.25,0,0,1,.23-.26.24.24,0,0,1,.25.19,34.49,34.49,0,0,0,13.6,19.66l-.37.12a58.76,58.76,0,0,0,.58-34.36.22.22,0,1,1,.43-.12,5.64,5.64,0,0,0,6.79,3.4,4.83,4.83,0,0,0,2.25-1.49,9.6,9.6,0,0,0,1.92-5.1c.23-1.84.26-3.7.33-5.53A105.54,105.54,0,0,0,298,278.09a.2.2,0,0,1,.16-.23.2.2,0,0,1,.23.15,17.05,17.05,0,0,0,2.07,6,5.71,5.71,0,0,0,5.08,2.79,4.4,4.4,0,0,0,2.61-1.27,7.22,7.22,0,0,0,1.56-2.5,13.7,13.7,0,0,0,.78-5.8,34.37,34.37,0,0,1,0-5.83,7.46,7.46,0,0,1,2.53-5,7.7,7.7,0,0,1,5.24-1.56,11.77,11.77,0,0,1,5.1,1.5,31.4,31.4,0,0,1,4.26,2.87l3.91,3q3.82,3,7.33,5.75c4.65,3.72,8.82,7.24,12.44,10.56s6.77,6.39,8.79,9.62a19.14,19.14,0,0,1,2.19,4.76,15.69,15.69,0,0,1,.58,4.31,11.49,11.49,0,0,1-1.45,5.67,8.46,8.46,0,0,1-.84,1.25l-.33.38.3-.4a8.92,8.92,0,0,0,.82-1.26,11.65,11.65,0,0,0,1.39-5.64,15.47,15.47,0,0,0-.61-4.27,18.91,18.91,0,0,0-2.2-4.71c-2-3.2-5.16-6.26-8.79-9.55s-7.8-6.8-12.46-10.51q-3.49-2.77-7.34-5.73l-3.91-3a30,30,0,0,0-4.23-2.83,11.39,11.39,0,0,0-5-1.46,7.41,7.41,0,0,0-5,1.49,7.12,7.12,0,0,0-2.4,4.81,34.7,34.7,0,0,0,0,5.77,14.14,14.14,0,0,1-.79,5.95,7.4,7.4,0,0,1-1.65,2.63,4.71,4.71,0,0,1-2.83,1.39,5.08,5.08,0,0,1-3.11-.73,7.09,7.09,0,0,1-2.33-2.23,17.12,17.12,0,0,1-2.14-6.12l.39-.07A104.8,104.8,0,0,1,300,299.25c-.06,1.84-.09,3.69-.32,5.57a10,10,0,0,1-2,5.34,5.27,5.27,0,0,1-2.46,1.62,6.05,6.05,0,0,1-7.35-3.7l.43-.12a59.17,59.17,0,0,1-.55,34.63.23.23,0,0,1-.3.15.15.15,0,0,1-.07,0,35,35,0,0,1-13.8-19.93l.49-.08a28.86,28.86,0,0,1-.14,5.17,9.69,9.69,0,0,1-.64,2.57,2.94,2.94,0,0,1-.83,1.14,1.59,1.59,0,0,1-1.44.25,2.29,2.29,0,0,1-.67-.32c-.16-.17-.36-.32-.5-.5a9.38,9.38,0,0,1-.78-1.09c-.46-.75-.85-1.53-1.24-2.32-.75-1.59-1.41-3.22-2-4.86-2.49-6.59-4.59-13.41-6.59-20.36l.5-.05q-.21,3.32-.42,6.66l-.11,1.67c0,.28,0,.55-.06.85a2.35,2.35,0,0,1-.3.89,4.9,4.9,0,0,1-3,1.83,9.73,9.73,0,0,1-3.45.34,5,5,0,0,1-2.79-2.12,17.59,17.59,0,0,1-2.73-6.31,30.89,30.89,0,0,1-.52-3.41l-.39-3.42c-.25-2.28-.51-4.56-.76-6.86-.49-4.59-1-9.2-1.36-13.85-.07-.79-.13-1.57-.19-2.3l0,.09.47-.21a.68.68,0,0,1,0,.4,2,2,0,0,1-.06.28,3.81,3.81,0,0,1-.17.51c-.11.34-.24.66-.37,1-.26.65-.54,1.28-.82,1.91-.57,1.26-1.15,2.51-1.76,3.75q-1.8,3.71-3.75,7.32c-1.3,2.4-2.62,4.78-4.13,7.05a14.91,14.91,0,0,1-1.25,1.65,2.16,2.16,0,0,1-.91.68,3.47,3.47,0,0,1-1.07.16,5.26,5.26,0,0,1-3.74-1.75,8.72,8.72,0,0,1-1.9-3.65,11.59,11.59,0,0,1-.37-4.06c.4-2.66.88-5.25,1.31-7.87q1.32-7.82,2.61-15.49l.46.19a41.5,41.5,0,0,1-6.44,7,29,29,0,0,1-8,4.81c-5.8,2.31-12,2.53-17.79,2.58a.24.24,0,0,1-.25-.24.23.23,0,0,1,0-.14c5.75-8.51,12.69-15.8,17.48-23.78l.38.28a29.76,29.76,0,0,1-11.28,7.64,42.18,42.18,0,0,1-12.91,2.77,45.2,45.2,0,0,1-24.14-5.06.21.21,0,0,1-.08-.28.26.26,0,0,1,.11-.1c9.15-3.57,17.76-7.3,25.72-11.27a196.57,196.57,0,0,0,21.79-12.59,136.87,136.87,0,0,0,30.15-27,109.6,109.6,0,0,0,8.59-12.19c1.13-1.85,2.1-3.61,3-5.19a40.58,40.58,0,0,1,2.75-4.16,15.35,15.35,0,0,1,5-4.49,10,10,0,0,1,1.6-.67Z" style="fill:#263238"></path><path d="M306.72,256.36a3.44,3.44,0,0,1-.51-.41l-1.39-1.24c-1.17-1.12-2.87-2.73-4.8-4.89a90,90,0,0,1-12.91-18.53c-1-2-2-3.9-2.79-5.82s-1.54-3.79-2.36-5.5a17.77,17.77,0,0,0-2.89-4.49,10.14,10.14,0,0,0-3.74-2.67,6.87,6.87,0,0,0-3.73-.41,6.67,6.67,0,0,0-2.66,1.07,6.34,6.34,0,0,0-1.65,1.82s0,0,0-.16a3.54,3.54,0,0,1,.22-.43,4.84,4.84,0,0,1,1.26-1.39,6.52,6.52,0,0,1,2.73-1.2,7.15,7.15,0,0,1,3.92.36,10.51,10.51,0,0,1,3.92,2.72,17.92,17.92,0,0,1,3,4.57c.85,1.73,1.55,3.62,2.4,5.51s1.77,3.83,2.78,5.78a95.32,95.32,0,0,0,12.72,18.52c1.89,2.18,3.55,3.83,4.67,5l1.32,1.31A3,3,0,0,1,306.72,256.36Z" style="fill:#263238"></path><path d="M221.23,258.6a72.62,72.62,0,0,0,25,1.84c.32,4.58-.1,16.18,3.8,19.85,4.73.23,6.51-10.88,7-14.38,1.29,7,2.17,21.66,3.46,28.67.21,1.13.63,2.49,1.76,2.73s2.1-.9,2.7-1.92c2.42-4.1,4.76-16.1,6.17-20.64h0c-.32,3.56,2.77,40.53,5.4,39.77,1.89-.54,3.23-2.23,4.16-4,1.94-3.61,5.8-36.23,5.22-40.28,1.17,2,1.05,4.38,1.66,6.56s2.66,4.42,4.82,3.71c1.36-.45,2.12-1.88,2.6-3.23a22.18,22.18,0,0,0-4.39-22,78.19,78.19,0,0,1-1.7,15.78,50.88,50.88,0,0,1-11.44-33c.08-4.25.71-8.51.37-12.76s-1.8-8.64-5.1-11.35c-3,.28-5.44,2.6-6.9,5.23s-2.14,5.6-3.17,8.42a36.74,36.74,0,0,1-9.33,14c-.15-2.57-.31-5.13-.47-7.7a52.12,52.12,0,0,1-30.91,24.09" style="fill:#ebebeb"></path><path d="M289.29,248a1.6,1.6,0,0,1,.13.45c.06.3.16.74.25,1.31.19,1.14.42,2.8.59,4.88a61.62,61.62,0,0,1-1,16.43l-.11.55-.34-.44c-.48-.6-1-1.21-1.49-1.88a48.77,48.77,0,0,1-8-16.16,47.42,47.42,0,0,1-1.16-5.36c-.1-.64-.14-1.15-.18-1.48a1.86,1.86,0,0,1,0-.52s.16.7.4,2,.65,3.09,1.31,5.29a51.14,51.14,0,0,0,8.06,16c.47.66,1,1.27,1.46,1.86l-.45.12a66.27,66.27,0,0,0,1.12-16.31c-.12-2.07-.29-3.73-.43-4.88A16.79,16.79,0,0,1,289.29,248Z" style="fill:#263238"></path><path d="M301.91,257.22a3.91,3.91,0,0,1,.3,1.11,17.84,17.84,0,0,1,.32,3.12,20.14,20.14,0,0,1-.44,4.65,4.27,4.27,0,0,1-.52,1.32,1.74,1.74,0,0,1-1.34.81,2.23,2.23,0,0,1-1.48-.61,7,7,0,0,1-1-1.15,89.26,89.26,0,0,1-5.57-8.67l-1.57-2.7a4.75,4.75,0,0,1-.53-1,4.52,4.52,0,0,1,.7.91c.43.6,1,1.49,1.72,2.61,1.41,2.21,3.26,5.35,5.67,8.55a6.55,6.55,0,0,0,.94,1.07,1.79,1.79,0,0,0,1.13.49c.81,0,1.23-1,1.41-1.73a21.41,21.41,0,0,0,.54-4.54C302.19,258.84,301.82,257.24,301.91,257.22Z" style="fill:#263238"></path><path d="M218.41,259.45a7.46,7.46,0,0,1,.79-.25c.51-.16,1.29-.34,2.26-.66a57.07,57.07,0,0,0,8.06-3.19,58.11,58.11,0,0,0,10.81-6.9,55.3,55.3,0,0,0,10.61-11.52c.63-.89,1.17-1.83,1.75-2.72l.5-.76v.89c0,2.47-.07,4.86-.1,7.14l-.43-.19a39.59,39.59,0,0,0,7.26-9.48,40.22,40.22,0,0,0,3.58-8.8,42.24,42.24,0,0,0,1.2-6.15c.1-.73.12-1.3.17-1.68a3.93,3.93,0,0,1,.08-.58,2.41,2.41,0,0,1,0,.59c0,.38,0,.95-.09,1.68a37.34,37.34,0,0,1-1.07,6.22A39.82,39.82,0,0,1,253,241.66l-.43.42v-.61c0-2.28,0-4.67.08-7.13l.48.13c-.59.91-1.14,1.85-1.77,2.75a55,55,0,0,1-10.74,11.6,55.61,55.61,0,0,1-10.95,6.86,53.11,53.11,0,0,1-8.16,3.06c-1,.28-1.77.43-2.3.56A4.15,4.15,0,0,1,218.41,259.45Z" style="fill:#263238"></path></g><g id="Water"><path d="M381.77,376.37l-.38.05-1.14.09-4.36.27a144.92,144.92,0,0,1-16.09.13,60,60,0,0,1-23.1-5.58c-4.05-1.91-8.2-4.29-13-5.17a18,18,0,0,0-7.3.18,54.47,54.47,0,0,0-7.27,2.29,48.83,48.83,0,0,1-7.38,2.22,27.38,27.38,0,0,1-7.49.29c-4.88-.41-9.51-1.44-14-1.28a39,39,0,0,0-12.29,2.8c-3.72,1.43-7.07,3-10.16,4.44-6.14,2.9-11.41,4.68-15.18,5.25a26.64,26.64,0,0,1-4.37.32l-1.13,0a1.65,1.65,0,0,1-.39,0l.39,0,1.13,0a30.25,30.25,0,0,0,4.34-.42c3.74-.63,8.94-2.45,15.06-5.38,3.08-1.42,6.42-3.06,10.15-4.51a39,39,0,0,1,12.43-2.88c4.55-.18,9.21.85,14,1.25a27.19,27.19,0,0,0,7.36-.28,49.84,49.84,0,0,0,7.29-2.21,55.82,55.82,0,0,1,7.35-2.31,18.56,18.56,0,0,1,7.49-.18c4.89.92,9.06,3.34,13.09,5.24a60,60,0,0,0,22.92,5.65,155.31,155.31,0,0,0,16.05,0l4.37-.18,1.13,0Z" style="fill:#263238"></path><path d="M338.48,413.32s-.16,0-.46-.09l-1.34-.32c-1.17-.28-2.91-.65-5.18-1a58.12,58.12,0,0,0-19.28.4c-4,.73-8.36,1.93-13.06,3a53,53,0,0,1-15.31,1.74,52.23,52.23,0,0,1-8.27-1.21c-2.77-.64-5.57-1.45-8.38-2.34-5.63-1.79-11.37-3.93-17.46-5.26a47.75,47.75,0,0,0-9.13-1.21,53.84,53.84,0,0,0-8.93.54,98.3,98.3,0,0,0-16.46,4.05c-5.16,1.65-10,3.39-14.63,4.81a97.42,97.42,0,0,1-13.05,3.16,56.87,56.87,0,0,1-11.06.81,40.22,40.22,0,0,1-8.29-1.14,27.48,27.48,0,0,1-2.92-.88,18.84,18.84,0,0,1-2.08-.82l-1.25-.57-.42-.22s.16.05.44.17l1.27.53c.54.25,1.26.48,2.09.76a29,29,0,0,0,2.92.83,40.59,40.59,0,0,0,8.25,1.05,57.4,57.4,0,0,0,11-.88,98.73,98.73,0,0,0,13-3.21c4.6-1.44,9.45-3.19,14.61-4.86a99.27,99.27,0,0,1,16.54-4.1,53.72,53.72,0,0,1,9-.54,47.67,47.67,0,0,1,9.22,1.21c6.15,1.35,11.89,3.49,17.5,5.28,2.81.9,5.59,1.7,8.34,2.34a45.79,45.79,0,0,0,23.37-.46c4.7-1.08,9-2.27,13.09-3a57.32,57.32,0,0,1,19.38-.23A44.71,44.71,0,0,1,338.48,413.32Z" style="fill:#263238"></path><path d="M255.87,347.29l-.54-.19-1.59-.57a49.94,49.94,0,0,0-6.23-1.72,23.57,23.57,0,0,0-10.12-.23,26.39,26.39,0,0,0-3,.82,30.59,30.59,0,0,1-3.15,1,28.54,28.54,0,0,1-7.17.74c-5.06,0-10.53-.91-16.38-1.79-2.92-.45-6-.73-9.09-1.19s-6.33-.93-9.63-1.27a64.54,64.54,0,0,0-10.17-.39,49.59,49.59,0,0,0-10.44,1.73c-7,1.84-13.93,4.81-21.49,6.42s-15.23,1.19-22.39.19c-3.59-.5-7.1-1.12-10.53-1.72l-5.09-.88a26.66,26.66,0,0,0-5-.52,65.26,65.26,0,0,0-9.62,1c-3.1.52-6.11,1.11-9,1.67-5.81,1.12-11.24,2.15-16.22,2.87a127.62,127.62,0,0,1-13.54,1.32,68.73,68.73,0,0,1-10.26-.33,45.06,45.06,0,0,1-6.38-1.17l-1.61-.49c-.37-.11-.55-.18-.55-.18l.56.13,1.63.44a49.39,49.39,0,0,0,6.38,1.07,72.41,72.41,0,0,0,10.22.24A128.55,128.55,0,0,0,69,353c5-.74,10.39-1.78,16.19-2.92,2.91-.57,5.91-1.17,9-1.7a64.41,64.41,0,0,1,9.7-1.07,27,27,0,0,1,5.06.51l5.1.88c3.43.6,6.93,1.21,10.51,1.71,7.14,1,14.72,1.43,22.22-.2s14.43-4.56,21.46-6.4A49,49,0,0,1,178.81,342a64.14,64.14,0,0,1,10.24.4c3.31.35,6.52.85,9.64,1.29s6.16.76,9.1,1.22c5.84.9,11.29,1.81,16.31,1.86a29.32,29.32,0,0,0,7.09-.7,30.9,30.9,0,0,0,3.13-1,25,25,0,0,1,3-.82,20,20,0,0,1,5.57-.38,35.25,35.25,0,0,1,4.65.7,48.09,48.09,0,0,1,6.23,1.82c.69.26,1.22.47,1.57.62S255.87,347.29,255.87,347.29Z" style="fill:#263238"></path><path d="M355.48,351.71h.33l1,.06,3.7.25,2.68.19,1.53.12,1.64,0a26.16,26.16,0,0,0,7.51-1.69c2.7-1,5.56-2.31,8.72-3.57a39.61,39.61,0,0,1,5-1.68,21.43,21.43,0,0,1,5.55-.75c3.88,0,7.82,1.09,11.73,2.44s7.93,2.93,12.25,3.57a32,32,0,0,0,12.61-1c4-1,7.78-2.36,11.44-3.43a22.55,22.55,0,0,1,5.58-.66c.91,0,1.8,0,2.68,0l2.58.16c3.39.27,6.52.72,9.37,1.21a78.4,78.4,0,0,1,13.23,3.36,24.09,24.09,0,0,1,3.4,1.5c.35.2.62.37.83.5a1.53,1.53,0,0,1,.28.18,1.21,1.21,0,0,1-.3-.14l-.85-.45a29.38,29.38,0,0,0-3.43-1.4,82.17,82.17,0,0,0-13.23-3.19c-2.83-.46-6-.89-9.33-1.14l-2.57-.14c-.87,0-1.76,0-2.65,0a22.57,22.57,0,0,0-5.45.66c-3.65,1.07-7.42,2.43-11.45,3.46a32.59,32.59,0,0,1-12.81,1c-4.41-.66-8.44-2.27-12.35-3.6a35.5,35.5,0,0,0-11.56-2.45,20.76,20.76,0,0,0-5.44.72,37.9,37.9,0,0,0-5,1.63c-3.14,1.24-6,2.56-8.75,3.51a25.59,25.59,0,0,1-7.62,1.64h-1.67l-1.53-.14-2.67-.24-3.7-.35-1-.1A1.43,1.43,0,0,1,355.48,351.71Z" style="fill:#263238"></path></g><g id="Plants"><path d="M454.94,245.53s0,.09-.15.24l-.49.68c-.43.6-1.12,1.43-1.91,2.58a96,96,0,0,0-6.28,10c-4.87,8.67-9.89,21.64-12.82,36.55s-3.77,28.72-4.29,38.66c-.22,5-.39,9-.52,11.8-.06,1.36-.11,2.43-.15,3.2l-.05.84a1.91,1.91,0,0,1,0,.28.84.84,0,0,1,0-.28v-.84c0-.77,0-1.84,0-3.21.06-2.79.16-6.82.36-11.8a249.26,249.26,0,0,1,4.14-38.75c2.94-15,8-28,13-36.63a88.93,88.93,0,0,1,6.43-9.91c.82-1.14,1.54-1.95,2-2.53l.54-.64Z" style="fill:#263238"></path><path d="M471.07,312.34s.39-.13,1.06-.46a7.86,7.86,0,0,0,2.52-2.08,9.06,9.06,0,0,0,1.93-4.74,13.62,13.62,0,0,0-1.09-6.72,18.43,18.43,0,0,0-4.86-6.7,17.8,17.8,0,0,0-8.49-4.14,18.36,18.36,0,0,0-10.36,1.08,20.85,20.85,0,0,0-8.67,7.1,48,48,0,0,0-5.43,10c-1.44,3.42-2.67,6.78-3.68,10a103.8,103.8,0,0,0-3.92,17.64,105.86,105.86,0,0,0-.87,12.16c0,1.44,0,2.56,0,3.32v.87a1.64,1.64,0,0,1,0,.29,1.36,1.36,0,0,1,0-.29l0-.86c0-.76-.09-1.88-.09-3.33a97.73,97.73,0,0,1,.7-12.21,102.23,102.23,0,0,1,3.83-17.74c1-3.26,2.23-6.64,3.67-10.07a47.73,47.73,0,0,1,5.48-10.15,21.28,21.28,0,0,1,8.9-7.26A18.8,18.8,0,0,1,462.23,287a18.19,18.19,0,0,1,8.69,4.29,18.8,18.8,0,0,1,4.91,6.88,13.89,13.89,0,0,1,1,6.9,9.22,9.22,0,0,1-2.07,4.83,7.48,7.48,0,0,1-2.62,2A4.8,4.8,0,0,1,471.07,312.34Z" style="fill:#263238"></path><path d="M408.31,271.35a4.09,4.09,0,0,1,.39.74c.26.53.6,1.25,1,2.15s1,2.09,1.54,3.45,1.26,2.89,1.91,4.63,1.42,3.61,2.14,5.67,1.46,4.27,2.22,6.6c1.45,4.69,2.89,9.89,4.14,15.42s2.13,10.85,2.81,15.71c.29,2.43.61,4.74.79,6.92s.37,4.19.48,6.05.18,3.52.24,5,.07,2.75.06,3.78,0,1.8,0,2.39a4.77,4.77,0,0,1,0,.83,5.88,5.88,0,0,1-.06-.83c0-.59-.05-1.39-.09-2.38s-.06-2.3-.16-3.77-.14-3.15-.31-5-.29-3.87-.54-6-.53-4.47-.84-6.9c-.7-4.84-1.63-10.14-2.84-15.66s-2.67-10.7-4.09-15.38c-.75-2.33-1.43-4.56-2.17-6.6s-1.41-4-2.07-5.69-1.29-3.28-1.84-4.65-1-2.53-1.46-3.48l-.93-2.19A5,5,0,0,1,408.31,271.35Z" style="fill:#263238"></path><path d="M405.94,321.37s0,.06-.14.16a5.67,5.67,0,0,1-.44.45,7.09,7.09,0,0,1-2.09,1.23,8.1,8.1,0,0,1-3.81.48,7.31,7.31,0,0,1-4.57-2.18,7.94,7.94,0,0,1-2.05-5.76,8.11,8.11,0,0,1,.9-3.37,7.15,7.15,0,0,1,2.51-2.71,10.23,10.23,0,0,1,7.67-1.18,15.38,15.38,0,0,1,7.24,4.19,38.61,38.61,0,0,1,8.56,13.64A63.76,63.76,0,0,1,423.16,339a55.77,55.77,0,0,1,.8,8.84c0,1.05,0,1.87,0,2.42a7,7,0,0,1-.07.84,5.17,5.17,0,0,1,0-.85c0-.55,0-1.36-.05-2.4a63.34,63.34,0,0,0-1-8.79,65.82,65.82,0,0,0-3.53-12.61,38.59,38.59,0,0,0-8.47-13.43,15,15,0,0,0-7-4.08,9.77,9.77,0,0,0-7.3,1.1,7,7,0,0,0-3.24,5.69,7.62,7.62,0,0,0,1.89,5.49,7,7,0,0,0,4.33,2.14,8.08,8.08,0,0,0,3.71-.38A8.61,8.61,0,0,0,405.94,321.37Z" style="fill:#263238"></path><path d="M451,250.77a29.7,29.7,0,0,0,19.76-21.2C461.68,232.21,453,239.55,451,250.77Z" style="fill:#455a64"></path><path d="M437.19,278.31a29.7,29.7,0,0,0-9-27.54C426.08,260,428.31,271.17,437.19,278.31Z" style="fill:#455a64"></path><path d="M443.75,262.65a23,23,0,0,0,22.39-.87C459.64,258.26,450.86,257.56,443.75,262.65Z" style="fill:#455a64"></path><path d="M432.23,430.87l25.16,4.66c-9,3.05-26.26,5-44.88,5-28.15,0-51.33-4.34-51.33-9.61s23.18-9.61,51.33-9.61,51.33,4.33,51.33,9.61Z" style="fill:#455a64"></path><path d="M432.23,430.87h31.61l-.16.17a2.72,2.72,0,0,0-1-1.8,10.07,10.07,0,0,0-1.9-1.25,27.14,27.14,0,0,0-4.5-1.75A80.44,80.44,0,0,0,446,424a197,197,0,0,0-23.72-2.15,263.52,263.52,0,0,0-26.92.39c-4.69.32-9.48.78-14.31,1.49-2.41.36-4.84.77-7.26,1.29a53.21,53.21,0,0,0-7.18,2,17.21,17.21,0,0,0-3.6,1.77,4.65,4.65,0,0,0-1.34,1.35,1.66,1.66,0,0,0,0,1.68,6.76,6.76,0,0,0,3,2.36,27.76,27.76,0,0,0,3.68,1.43,93.14,93.14,0,0,0,15.19,3.06,231.51,231.51,0,0,0,28.78,1.73,238.66,238.66,0,0,0,25.07-1.2c7.58-.81,14.39-1.93,20-3.84l0,.29-25.13-4.81,25.18,4.51.58.1-.55.2c-5.62,1.95-12.44,3.1-20,3.95a238.59,238.59,0,0,1-25.11,1.26,230.57,230.57,0,0,1-28.85-1.69,93.16,93.16,0,0,1-15.28-3.07,26.43,26.43,0,0,1-3.75-1.46,7.15,7.15,0,0,1-3.21-2.58,2.2,2.2,0,0,1,.05-2.18,5.23,5.23,0,0,1,1.49-1.51,17.81,17.81,0,0,1,3.71-1.84,51.67,51.67,0,0,1,7.26-2c2.44-.53,4.87-.95,7.3-1.3,4.85-.71,9.64-1.17,14.35-1.48a261.35,261.35,0,0,1,27-.36,193.21,193.21,0,0,1,23.76,2.21,80.19,80.19,0,0,1,10.29,2.29,27.26,27.26,0,0,1,4.55,1.79,10.62,10.62,0,0,1,2,1.31,3,3,0,0,1,1.1,2.06v.17h-.17Z" style="fill:#263238"></path><path d="M433.86,383.51c-.4-1.55-1.11-3.33-2.68-3.69a4.14,4.14,0,0,0-3.27.95c-3.82,2.8-8.07,7.4-12.06,15.3-2.88-5.06-6.1-9.65-11.68-13.65-1.6-1.15-5.78-1.9-7.38-1.45a8.29,8.29,0,0,0-5.22,6.82c-.48,9.3,2.17,13.46,3.82,18-10.52-3-15.2-3.34-20.44-3.15-1.8.07-2.75.64-3.26,3.05a13.6,13.6,0,0,0,.3,3.91c1.79,6.36,3,6.68,6.23,12,9.16,9.16,20.47,12.69,34.49,11.11a20.62,20.62,0,0,0,9.63-3.56,33.53,33.53,0,0,0,11.83-15.56C436.85,404.42,436.25,392.76,433.86,383.51Z" style="fill:#FF725E"></path><path d="M430.94,383.39a1.84,1.84,0,0,1-.33.42l-1,1.1c-.45.47-1,1-1.58,1.78s-1.3,1.5-2,2.46c-.34.47-.7,1-1.08,1.48s-.71,1.09-1.08,1.66c-.78,1.14-1.46,2.44-2.21,3.78A52,52,0,0,0,416,415.18c-.11,1.53-.25,3-.22,4.37,0,.68,0,1.35,0,2s.07,1.25.1,1.83c0,1.17.2,2.21.29,3.14s.23,1.71.35,2.35.18,1.09.25,1.49a1.91,1.91,0,0,1,.05.53,2.5,2.5,0,0,1-.15-.51c-.09-.39-.21-.88-.35-1.47a20.64,20.64,0,0,1-.43-2.35,31,31,0,0,1-.38-3.15c0-.59-.08-1.21-.13-1.84s0-1.31,0-2c0-1.38.09-2.86.19-4.41a54,54,0,0,1,1.9-9.93,54.72,54.72,0,0,1,3.85-9.35c.77-1.36,1.48-2.66,2.27-3.79.39-.58.74-1.15,1.12-1.66l1.12-1.47c.69-1,1.43-1.72,2-2.43a22.08,22.08,0,0,1,1.66-1.73l1.09-1A2.88,2.88,0,0,1,430.94,383.39Z" style="fill:#263238"></path><g style="opacity:0.30000000000000004"><path d="M422.31,394.14c.28-.46.55-1.1.16-1.46s-1-.11-1.37.16A16.46,16.46,0,0,0,413.79,405a32,32,0,0,0-9.94-10.95,1.37,1.37,0,0,0-1.06-.33c-.55.14-.69.86-.7,1.43a24,24,0,0,0,4,13.61c-3.78-2.24-9-2.31-13.29-1.56a5.57,5.57,0,0,0,1.06.59c8.75,5.18,17.44,12.81,22.53,21.53-.22-5.93-1-12.67,0-18.53A46.41,46.41,0,0,1,422.31,394.14Z"></path></g><path d="M386,391a1.6,1.6,0,0,1,.45.21l1.24.69c.54.3,1.2.68,1.92,1.17s1.59,1,2.47,1.67S394,396.12,395,397s2.05,1.74,3.14,2.71A63.61,63.61,0,0,1,410,414.44c.72,1.27,1.42,2.47,2,3.65s1.09,2.26,1.52,3.28.79,1.95,1.1,2.77.56,1.54.73,2.13.3,1,.41,1.36a1.61,1.61,0,0,1,.11.48s-.09-.15-.21-.45l-.5-1.33c-.2-.58-.46-1.28-.81-2.09s-.68-1.73-1.16-2.72-1-2.1-1.57-3.23-1.28-2.35-2-3.61a73.27,73.27,0,0,0-5.38-7.75,74.05,74.05,0,0,0-6.41-6.92c-1.08-1-2.09-1.92-3.1-2.72s-1.93-1.57-2.81-2.23-1.7-1.22-2.42-1.73-1.34-.91-1.86-1.24l-1.19-.77A2,2,0,0,1,386,391Z" style="fill:#263238"></path><path d="M407.47,377.06a2,2,0,0,1,0,.54c0,.4,0,.91-.07,1.52s-.08,1.47-.1,2.41-.09,2-.07,3.19c0,2.36,0,5.18.23,8.3s.59,6.53,1.16,10.09,1.34,6.91,2.12,9.94,1.64,5.71,2.43,7.94c.36,1.12.76,2.11,1.08,3s.62,1.63.87,2.25l.56,1.42a2.38,2.38,0,0,1,.16.51,2.08,2.08,0,0,1-.26-.47l-.64-1.39c-.28-.6-.61-1.34-1-2.22s-.77-1.86-1.16-3c-.83-2.22-1.7-4.91-2.54-7.94s-1.58-6.4-2.17-10-.93-7-1.13-10.14-.2-6-.12-8.34c0-1.19.09-2.26.15-3.2s.12-1.75.19-2.41.12-1.11.17-1.51A2.54,2.54,0,0,1,407.47,377.06Z" style="fill:#263238"></path><path d="M416.8,430.29s-.07-.08-.17-.25l-.47-.76c-.42-.66-.94-1.7-1.81-2.91a50.51,50.51,0,0,0-8.08-9.62c-1-.87-2-1.84-3.17-2.7-.58-.44-1.14-.92-1.76-1.35l-1.91-1.29a50.82,50.82,0,0,0-8.83-4.57A52.58,52.58,0,0,0,380,404c-.95-.12-1.9-.28-2.87-.38l-2.92-.21a2.3,2.3,0,0,0-1.32.19,1.75,1.75,0,0,0-.77,1,7,7,0,0,0-.09,2.89,19.34,19.34,0,0,0,.63,2.93c.25,1,.59,1.89.92,2.82a31.29,31.29,0,0,0,2.61,5.17,32.07,32.07,0,0,0,3.42,4.42,32.66,32.66,0,0,0,4,3.58,31.15,31.15,0,0,0,8.77,4.58c1.5.43,2.93.91,4.33,1.25a38.65,38.65,0,0,0,4.11.72,43,43,0,0,0,12.53-.27c1.47-.25,2.6-.51,3.36-.69l.87-.21a1.05,1.05,0,0,1,.3-.06,1.21,1.21,0,0,1-.29.11l-.85.26c-.76.21-1.88.51-3.35.79a42.17,42.17,0,0,1-12.62.44c-1.33-.16-2.72-.38-4.14-.69s-2.87-.82-4.39-1.25a31,31,0,0,1-8.92-4.59,32.86,32.86,0,0,1-4.07-3.63,31.82,31.82,0,0,1-3.49-4.49,32.76,32.76,0,0,1-2.67-5.25c-.33-.95-.68-1.89-.93-2.87a20,20,0,0,1-.65-3,7.32,7.32,0,0,1,.12-3.12,2.26,2.26,0,0,1,1-1.31,2.74,2.74,0,0,1,1.59-.26l3,.22c1,.11,1.93.26,2.89.39a52.75,52.75,0,0,1,10.69,2.94,50.91,50.91,0,0,1,8.89,4.66c.65.45,1.29.88,1.91,1.32s1.19.92,1.77,1.37c1.17.87,2.17,1.86,3.17,2.75a48.44,48.44,0,0,1,8,9.77,34.35,34.35,0,0,1,1.73,3c.18.32.31.58.42.79A1.84,1.84,0,0,1,416.8,430.29Z" style="fill:#263238"></path><path d="M434.78,410.93a4.37,4.37,0,0,1-.2,1.09,10.54,10.54,0,0,1-.34,1.25c-.15.49-.31,1-.54,1.64a31.34,31.34,0,0,1-1.85,4.09,34.49,34.49,0,0,1-3,4.59,30.21,30.21,0,0,1-3.83,4,25.42,25.42,0,0,1-3.67,2.59,16.41,16.41,0,0,1-1.53.8,11.74,11.74,0,0,1-1.19.52,4.94,4.94,0,0,1-1.05.34c0-.1,1.44-.65,3.58-2a27.37,27.37,0,0,0,3.55-2.64,32.79,32.79,0,0,0,3.73-3.92,37.59,37.59,0,0,0,3-4.49,36.11,36.11,0,0,0,1.92-4C434.31,412.43,434.69,410.9,434.78,410.93Z" style="fill:#263238"></path><path d="M430.94,399.6a7.26,7.26,0,0,1-.16,1.38c-.14.88-.4,2.14-.78,3.68a74.54,74.54,0,0,1-4.12,11.72,113.73,113.73,0,0,1-5.68,11.05c-.8,1.37-1.47,2.47-1.95,3.22a6.73,6.73,0,0,1-.79,1.13,6.92,6.92,0,0,1,.62-1.24l1.8-3.29c1.52-2.78,3.56-6.66,5.52-11.08a88.06,88.06,0,0,0,4.24-11.6c.43-1.53.75-2.77.94-3.63A7,7,0,0,1,430.94,399.6Z" style="fill:#263238"></path><path d="M416.85,432.53a9.81,9.81,0,0,1-1.54-.2c-1-.14-2.41-.45-4.15-.86a57.62,57.62,0,0,1-13-5,59.29,59.29,0,0,1-11.44-8c-1.34-1.18-2.38-2.19-3.07-2.91a8.51,8.51,0,0,1-1-1.15,8.91,8.91,0,0,1,1.18,1c.73.68,1.81,1.64,3.17,2.78A65.24,65.24,0,0,0,398.37,426a63.05,63.05,0,0,0,12.88,5.09c1.72.46,3.12.82,4.1,1A8.2,8.2,0,0,1,416.85,432.53Z" style="fill:#263238"></path><path d="M118.25,433.48l28.22,5.23c-10.14,3.42-29.46,5.55-50.35,5.55-31.59,0-57.59-4.87-57.59-10.78s26-10.79,57.59-10.79,57.59,4.87,57.59,10.79Z" style="fill:#455a64"></path><path d="M118.24,433.48l35.47,0-.17.16a3,3,0,0,0-1.12-2,10.93,10.93,0,0,0-2.15-1.41,30.09,30.09,0,0,0-5.05-2,89.56,89.56,0,0,0-11.49-2.52,219.68,219.68,0,0,0-26.61-2.42,299.73,299.73,0,0,0-30.21.44c-5.27.36-10.64.88-16.06,1.67-2.71.4-5.43.87-8.15,1.45a58.89,58.89,0,0,0-8.06,2.26,19,19,0,0,0-4,2,5.2,5.2,0,0,0-1.51,1.52A1.89,1.89,0,0,0,39,434.6a7.6,7.6,0,0,0,3.36,2.65,29.19,29.19,0,0,0,4.13,1.61,103.15,103.15,0,0,0,17,3.44,260.75,260.75,0,0,0,32.31,1.93A270.22,270.22,0,0,0,124,442.89c8.51-.92,16.15-2.18,22.41-4.32l0,.29-28.2-5.38,28.25,5.08.58.1-.55.19c-6.3,2.2-14,3.49-22.48,4.43a267.14,267.14,0,0,1-28.16,1.42,259.62,259.62,0,0,1-32.37-1.9,104.32,104.32,0,0,1-17.14-3.45,31.15,31.15,0,0,1-4.2-1.63,8,8,0,0,1-3.59-2.88,2.46,2.46,0,0,1,.05-2.42,6,6,0,0,1,1.67-1.69,19.66,19.66,0,0,1,4.16-2.06,60.74,60.74,0,0,1,8.13-2.28c2.74-.58,5.47-1.05,8.19-1.45,5.44-.8,10.82-1.31,16.1-1.66a294.58,294.58,0,0,1,30.26-.41,219.87,219.87,0,0,1,26.65,2.48,88.59,88.59,0,0,1,11.54,2.57,30.66,30.66,0,0,1,5.11,2,11.8,11.8,0,0,1,2.21,1.47,3.34,3.34,0,0,1,1.23,2.29v.17h-.17Z" style="fill:#263238"></path><path d="M96.44,318.73a.93.93,0,0,1-.06.28c-.06.22-.14.48-.23.8l-1,3.06c-.43,1.32-.94,2.94-1.47,4.85s-1.21,4-1.81,6.45-1.32,5-2,7.89S88.69,348,88,351.18c-1.2,6.45-2.29,13.59-3.07,21.13s-1.07,14.76-1.17,21.33c0,3.28,0,6.41.09,9.32s.21,5.64.36,8.12.34,4.72.49,6.69.33,3.66.48,5l.33,3.18c0,.34.06.61.07.83a.93.93,0,0,1,0,.29,1.49,1.49,0,0,1-.07-.28c0-.22-.07-.49-.12-.82-.11-.78-.26-1.84-.44-3.18s-.41-3.06-.59-5-.44-4.21-.58-6.69-.35-5.2-.42-8.13-.13-6.05-.15-9.34c.07-6.59.39-13.82,1.13-21.39s1.89-14.71,3.12-21.17c.67-3.23,1.27-6.29,2-9.13s1.36-5.49,2-7.89,1.32-4.55,1.89-6.44,1.11-3.51,1.57-4.82.8-2.29,1.06-3c.11-.32.21-.58.29-.79A1,1,0,0,1,96.44,318.73Z" style="fill:#455a64"></path><path d="M87.41,353.8A18.58,18.58,0,0,1,95.19,344c1.24-.77,2.81-1.39,4.12-.76,1.75.85,1.89,3.31,1.37,5.17A13.74,13.74,0,0,1,95,356.11a11.52,11.52,0,0,1-8.5,2.14" style="fill:#455a64"></path><path d="M84.37,377.48c1.29-4.89,5.19-11.84,9.24-14.86a5.93,5.93,0,0,1,2.1-1.12A2.42,2.42,0,0,1,98,362c.82.79.74,2.12.5,3.24a19.7,19.7,0,0,1-14.61,14.7" style="fill:#455a64"></path><path d="M83.53,398.32a28.65,28.65,0,0,1,9.32-11.72,4.47,4.47,0,0,1,3.25-1.16c1.77.32,2.58,2.48,2.42,4.27-.32,3.69-3.14,6.64-6,8.94-3.13,2.46-8.63,4.43-8.63,4.43" style="fill:#455a64"></path><path d="M84,413.31a27.35,27.35,0,0,1,7.93-9,5.69,5.69,0,0,1,2.38-1.07,2.43,2.43,0,0,1,2.34.89c.79,1.17,0,2.74-.82,3.87a22.64,22.64,0,0,1-11.32,8.31" style="fill:#455a64"></path><path d="M83.61,407.22a87.85,87.85,0,0,0-11.35-11.55c-.64-.55-1.46-1.12-2.26-.86a1.7,1.7,0,0,0-1,1.53,4.32,4.32,0,0,0,.43,1.89A22,22,0,0,0,84,410.52" style="fill:#455a64"></path><path d="M84,387.72l-8.91-10.86a10.83,10.83,0,0,0-2.9-2.75,3.66,3.66,0,0,0-3.8,0,3.6,3.6,0,0,0-1.22,3.59,9.5,9.5,0,0,0,1.74,3.57,26.49,26.49,0,0,0,6.5,6.89c2.61,1.8,5,3,8.13,2.51" style="fill:#455a64"></path><path d="M85.21,365.77a31.06,31.06,0,0,0-9-13.46,5.32,5.32,0,0,0-2.34-1.37c-1.78-.34-3.51,1.15-4.09,2.87a7.36,7.36,0,0,0,.82,5.9,15.37,15.37,0,0,0,4.19,4.43,35.9,35.9,0,0,0,9.91,5.36" style="fill:#455a64"></path><path d="M88.77,346.2c-.87-6.3-4.14-11.54-7.94-16.64-.8-1.07-1.92-2.21-3.24-2a2.58,2.58,0,0,0-1.87,1.6,6.07,6.07,0,0,0-.35,2.51A19.45,19.45,0,0,0,88,349" style="fill:#455a64"></path><path d="M91.26,336.2a52,52,0,0,1-.32-9.74,17.38,17.38,0,0,1,3.23-9.07,7.46,7.46,0,0,1,3.23-2.58,4.08,4.08,0,0,1,4,.53,4.31,4.31,0,0,1,1.36,3.5,10.94,10.94,0,0,1-1,3.73c-2.37,5.71-6.33,12-10.47,13.63" style="fill:#455a64"></path><path d="M111.66,410.35a7.07,7.07,0,0,1,.8-1c.53-.65,1.35-1.54,2.41-2.59A52.34,52.34,0,0,1,124,399.5a51.56,51.56,0,0,1,10.55-5,35,35,0,0,1,3.39-1,6.06,6.06,0,0,1,1.27-.25,6.71,6.71,0,0,1-1.22.45c-.79.25-1.93.64-3.32,1.16a60.13,60.13,0,0,0-10.39,5.12,60.86,60.86,0,0,0-9.19,7.05c-1.08,1-1.94,1.86-2.51,2.47A6.37,6.37,0,0,1,111.66,410.35Z" style="fill:#263238"></path><path d="M128.14,383.41a6.86,6.86,0,0,1-.62,1c-.43.64-1,1.59-1.77,2.76a84.25,84.25,0,0,0-9,19.6c-.42,1.32-.74,2.4-1,3.14a5.9,5.9,0,0,1-.39,1.15,4.72,4.72,0,0,1,.19-1.19c.15-.77.42-1.86.8-3.2a68.79,68.79,0,0,1,3.76-10.2,69.92,69.92,0,0,1,5.3-9.5c.78-1.15,1.43-2.07,1.91-2.68A5.51,5.51,0,0,1,128.14,383.41Z" style="fill:#263238"></path><path d="M143.46,416.33c-.91-1-2.09-.59-3.09-.16-4.7,2-9.63,2.23-14.33,4.25,4.64-5.84,8.16-10.66,9.63-18.29a4.37,4.37,0,0,0-.56-3.22c-1.13-1.72-2.93-1.45-4.49-1.05a36.06,36.06,0,0,0-12.26,5.78,84.78,84.78,0,0,0-4.9-22.07,4.59,4.59,0,0,0-1.81-2.32c-2.33-1.45-4.47.42-5.93,2.21a44.34,44.34,0,0,0-9,19,33.07,33.07,0,0,0-7-11.87c-.54-.59-1.38-1.2-2.06-.79a1.82,1.82,0,0,0-.65,1.47c-1.26,13.1,3.32,27,12.93,35.89a14.39,14.39,0,0,0,6.7,3.44c5.79,1.25,11.65,2.22,17.53,1.74,7.8-.63,15.77-4.22,19.51-11.2A2.46,2.46,0,0,0,143.46,416.33Z" style="fill:#FF725E"></path><path d="M105.55,395a6.49,6.49,0,0,1-.4,1.23c-.29.77-.68,1.9-1.15,3.3a57.81,57.81,0,0,0-2.46,11.24,49.74,49.74,0,0,0-.08,10.25c.26,2.79.69,4.77.79,5.57h-.11s0-.05,0-.09.08,0,.1,0l.07.06.08.09s0,0,0,0a0,0,0,0,1,0,0s-.06.06-.09,0l-.11-.07-.06,0h0s0,0,0,0,0,0,0,0l-.08.11,0-.1a36.15,36.15,0,0,1-1.08-5.55,45.39,45.39,0,0,1,0-10.35,50.21,50.21,0,0,1,2.64-11.3c.51-1.39,1-2.51,1.31-3.26A6.55,6.55,0,0,1,105.55,395Z" style="fill:#263238"></path><path d="M126.46,408.61a6.13,6.13,0,0,1-.71,1c-.48.61-1.21,1.46-2.15,2.47a63.87,63.87,0,0,1-17.13,13c-1.23.63-2.24,1.11-3,1.41a5,5,0,0,1-1.13.42,6.32,6.32,0,0,1,1-.6c.68-.36,1.66-.88,2.86-1.56a78.93,78.93,0,0,0,9-5.87,78,78,0,0,0,8.06-7.08c1-1,1.74-1.79,2.27-2.35A5.19,5.19,0,0,1,126.46,408.61Z" style="fill:#263238"></path><path d="M78.91,434a28.86,28.86,0,0,1-26.84-4.27c3.52-4.64,9.5-4,13.73-2.72a20.3,20.3,0,0,1-6.3-8.48,5.74,5.74,0,0,1-.38-4.36c.79-1.81,3.15-2.5,5.07-2s3.32,2,4.8,3.35a29.26,29.26,0,0,0,4.92,3.82c-.28-4.11.1-8.16,2-11.79a3.78,3.78,0,0,1,2.31-2.19c1.48-.28,2.74,1.09,3.49,2.4,4.54,7.82,3.71,20-2.83,26.23" style="fill:#FF725E"></path><path d="M95.5,293.28a2.94,2.94,0,0,1-.15.34,3.91,3.91,0,0,1-.54.95,7.12,7.12,0,0,1-3.31,2.52,9.38,9.38,0,0,1-6.56,0,8.78,8.78,0,0,1-5.21-6.77,12.08,12.08,0,0,1,2.75-10.07,17,17,0,0,1,10.81-5.39,24.64,24.64,0,0,1,6.63.17,26.62,26.62,0,0,1,6.62,2,41.2,41.2,0,0,1,11.85,8.31c7.16,7,11.94,15.36,15.46,23.17,1.73,3.94,3.14,7.77,4.35,11.4s2.13,7.08,2.83,10.25a110.92,110.92,0,0,1,2.48,15.18c.19,1.81.24,3.22.28,4.17,0,.46,0,.82,0,1.09a2.12,2.12,0,0,1,0,.37,2.55,2.55,0,0,1,0-.37q0-.41-.09-1.08c-.07-.95-.15-2.36-.37-4.16a116.94,116.94,0,0,0-2.64-15.11c-.72-3.17-1.73-6.57-2.88-10.2s-2.64-7.43-4.38-11.35c-3.53-7.77-8.29-16.08-15.39-23a41.11,41.11,0,0,0-11.69-8.22,26.12,26.12,0,0,0-6.49-2,24,24,0,0,0-6.49-.2,16.66,16.66,0,0,0-10.54,5.21,11.68,11.68,0,0,0-2.72,9.71,8.48,8.48,0,0,0,5,6.57,9.16,9.16,0,0,0,6.38.1,7.25,7.25,0,0,0,3.3-2.39,4.93,4.93,0,0,0,.57-.91A1.56,1.56,0,0,1,95.5,293.28Z" style="fill:#263238"></path><path d="M83.3,247.84l.33,0,1,.16,1.59.27,1,.18,1.14.28,2.67.69,3.12,1a62.21,62.21,0,0,1,7.31,3.24,70.35,70.35,0,0,1,16.66,12.43,92.24,92.24,0,0,1,8,9.34,94.44,94.44,0,0,1,7,11.21,103.62,103.62,0,0,1,5.38,12.07c1.52,4,2.77,7.91,3.83,11.69C144.49,318,145.9,325,147,330.78s1.74,10.57,2.19,13.85c.21,1.62.38,2.89.5,3.79,0,.41.08.73.11,1a1.74,1.74,0,0,1,0,.34,1.77,1.77,0,0,1-.07-.33c-.05-.25-.1-.57-.17-1-.14-.89-.34-2.16-.59-3.77-.51-3.27-1.26-8-2.35-13.81s-2.55-12.72-4.72-20.23c-1.07-3.76-2.32-7.67-3.85-11.64a104.35,104.35,0,0,0-5.36-12,92.49,92.49,0,0,0-6.95-11.14,92.41,92.41,0,0,0-7.94-9.31,70.85,70.85,0,0,0-16.49-12.44,62,62,0,0,0-7.24-3.3L91,249.7,88.31,249l-1.13-.31-1-.2-1.58-.32-1-.21A1.31,1.31,0,0,1,83.3,247.84Z" style="fill:#263238"></path><path d="M171.46,304.71a3.7,3.7,0,0,1-.44-.51c-.27-.34-.68-.84-1.24-1.46a18.16,18.16,0,0,0-2.2-2.08,10.71,10.71,0,0,0-3.47-1.9,6.88,6.88,0,0,0-4.65.22,9.09,9.09,0,0,0-4.07,3.55,15,15,0,0,0-2,5.72,45.37,45.37,0,0,0-.52,6.6,135.38,135.38,0,0,0,2.25,23.21c.53,2.95,1,5.32,1.4,6.94.18.78.33,1.4.44,1.88a2.76,2.76,0,0,1,.12.66,3,3,0,0,1-.22-.63c-.13-.42-.33-1-.53-1.86-.45-1.61-1-4-1.57-6.92a124.6,124.6,0,0,1-2.41-23.29,45.4,45.4,0,0,1,.53-6.68,15.78,15.78,0,0,1,2.12-5.89,9.64,9.64,0,0,1,4.31-3.69,7.19,7.19,0,0,1,4.93-.17,10.9,10.9,0,0,1,3.54,2,17,17,0,0,1,2.17,2.18c.54.64.93,1.17,1.18,1.53A2.42,2.42,0,0,1,171.46,304.71Z" style="fill:#263238"></path><path d="M106.44,257.27a26.94,26.94,0,0,0-25.89,4.67C88.6,265,98.91,264.36,106.44,257.27Z" style="fill:#455a64"></path><path d="M129.72,279.59a22.18,22.18,0,0,0-3.11-21.42C123.89,264.7,124.1,273.2,129.72,279.59Z" style="fill:#455a64"></path><path d="M89.41,249.15a25.1,25.1,0,0,0-22.88-8.69C71.5,246.74,80,251.19,89.41,249.15Z" style="fill:#455a64"></path></g></svg>