<svg xmlns="http://www.w3.org/2000/svg" viewBox="0 0 500 500"><g id="background-complete"><rect x="416.78" y="398.49" width="33.12" height="0.25" style="fill:#ebebeb"></rect><rect x="322.53" y="401.21" width="8.69" height="0.25" style="fill:#ebebeb"></rect><rect x="396.59" y="389.21" width="19.19" height="0.25" style="fill:#ebebeb"></rect><rect x="52.46" y="390.89" width="43.19" height="0.25" style="fill:#ebebeb"></rect><rect x="104.56" y="390.89" width="6.33" height="0.25" style="fill:#ebebeb"></rect><rect x="131.47" y="395.11" width="93.68" height="0.25" style="fill:#ebebeb"></rect><path d="M237,337.8H43.92a5.71,5.71,0,0,1-5.71-5.71V60.66A5.71,5.71,0,0,1,43.92,55H237a5.71,5.71,0,0,1,5.71,5.71V332.09A5.71,5.71,0,0,1,237,337.8ZM43.92,55.2a5.47,5.47,0,0,0-5.46,5.46V332.09a5.47,5.47,0,0,0,5.46,5.46H237a5.47,5.47,0,0,0,5.46-5.46V60.66A5.47,5.47,0,0,0,237,55.2Z" style="fill:#ebebeb"></path><path d="M453.31,337.8H260.21a5.72,5.72,0,0,1-5.71-5.71V60.66A5.72,5.72,0,0,1,260.21,55h193.1A5.71,5.71,0,0,1,459,60.66V332.09A5.71,5.71,0,0,1,453.31,337.8ZM260.21,55.2a5.47,5.47,0,0,0-5.46,5.46V332.09a5.47,5.47,0,0,0,5.46,5.46h193.1a5.47,5.47,0,0,0,5.46-5.46V60.66a5.47,5.47,0,0,0-5.46-5.46Z" style="fill:#ebebeb"></path><rect y="382.4" width="500" height="0.25" style="fill:#ebebeb"></rect><path d="M218.78,271.18c2.15-.39,6.27,3.59,8.3,2.76,1.55-.63,1.84-4.83,3.06-6,1.68-1.57,7.75-1.47,8.44-3.66,1.43-4.52-5.3-15-9.9-16.18-3.3-.82-8.54,5.72-11.73,6.91-3,1.09-10.33-.12-12.42,2.24-2.42,2.73-2,11.52,0,14.6,1.26,2,6.21,4.46,8.51,4C214.86,275.49,217,271.52,218.78,271.18Z" style="fill:#f0f0f0"></path><path d="M227,265.33a44.63,44.63,0,0,1,3.66-3l-.1-.34-4,2.72-1.63-4.81-.26.23s1.3,3.55,1.1,4.81c-.44,2.71-6.11,8.75-6.11,8.75h0s-4.06-4.64-4.82-6.52c-.63-1.56-.86-6.66-.86-6.66l-.27.05.35,6-6-4.93-.1.33a69.3,69.3,0,0,1,6.17,5.43,57.62,57.62,0,0,1,3.88,6.39,4.43,4.43,0,0,1,.55,2.31L218,292.93h2.82l-.47-16.24a5.94,5.94,0,0,1,1-3A66.49,66.49,0,0,1,227,265.33Z" style="fill:#e0e0e0"></path><path d="M329,95.51a22.23,22.23,0,1,0,31.44,0A22.23,22.23,0,0,0,329,95.51ZM353.7,97a3.16,3.16,0,0,1-1.57-1.63c-.85,1.34-2.9,1.23-4.47.77-2-.59-3.82-1.79-2.93-3.25.54-.88,2.07-1.35,4.34-.92a4.72,4.72,0,0,1,3.2,2c.54-.76,1.86-.9,3.08-.29s2,1.92,1.53,2.82S355,97.61,353.7,97Zm2.23,13a3.09,3.09,0,1,1,2.33-3.7A3.08,3.08,0,0,1,355.93,110Zm-25.28,10.58a2.37,2.37,0,1,1,0,3.35A2.36,2.36,0,0,1,330.65,120.58Zm5.32-6.21a2.73,2.73,0,0,1,3.85,0l.08.09a10,10,0,0,1,17.21,1.16,4,4,0,1,1,.59,7.65,10,10,0,0,1-14.41,5.67,2,2,0,0,1-.54.93,2.05,2.05,0,1,1-2.33-3.31,10.08,10.08,0,0,1-2.24-7.56,2.67,2.67,0,0,1-2.21-.78A2.71,2.71,0,0,1,336,114.37Zm7-15.43a2,2,0,0,1,3.55.92,3.09,3.09,0,1,1-1,2.18,2,2,0,0,1-2.54-3.1Zm-15.28,11.12a1.55,1.55,0,1,1,0,2.19A1.55,1.55,0,0,1,327.67,110.06Zm10.17-14.41a2,2,0,1,1,.25,2.87A2,2,0,0,1,337.84,95.65Z" style="fill:#f0f0f0"></path><path d="M327.67,110.06a1.55,1.55,0,1,0,2.18,0A1.55,1.55,0,0,0,327.67,110.06Z" style="fill:#e6e6e6"></path><path d="M327.51,109.91a1.76,1.76,0,1,1,0,2.49A1.77,1.77,0,0,1,327.51,109.91Zm.32.31a1.32,1.32,0,1,0,1.86,0A1.32,1.32,0,0,0,327.83,110.22Z" style="fill:#fafafa"></path><path d="M330.65,120.58a2.37,2.37,0,1,0,3.35,0A2.36,2.36,0,0,0,330.65,120.58Z" style="fill:#e6e6e6"></path><path d="M330.49,120.42a2.6,2.6,0,1,1,0,3.67A2.6,2.6,0,0,1,330.49,120.42Zm.32.32a2.15,2.15,0,1,0,3,0A2.15,2.15,0,0,0,330.81,120.74Z" style="fill:#fafafa"></path><path d="M352.23,107.68a3.09,3.09,0,1,0,2.32-3.71A3.08,3.08,0,0,0,352.23,107.68Z" style="fill:#e6e6e6"></path><path d="M352,107.73a3.3,3.3,0,0,1,.42-2.51,3.32,3.32,0,1,1,3.55,5,3.28,3.28,0,0,1-2.5-.42,3.8,3.8,0,0,1-.59-.47A3.37,3.37,0,0,1,352,107.73Zm2.59-3.54a2.87,2.87,0,0,0-1.79,1.27,2.9,2.9,0,0,0-.36,2.17h0a2.87,2.87,0,1,0,5.59-1.28,2.84,2.84,0,0,0-.76-1.39A2.9,2.9,0,0,0,354.6,104.19Z" style="fill:#fafafa"></path><path d="M343,98.94a2,2,0,0,0,2.54,3.1,3.1,3.1,0,1,0,1-2.18,2,2,0,0,0-3.55-.92Z" style="fill:#e6e6e6"></path><path d="M342.25,100.45A2.28,2.28,0,0,1,344.31,98a2.24,2.24,0,0,1,2.31,1.47,3.32,3.32,0,1,1-.17,5.22,3.28,3.28,0,0,1-1.17-2.31,2.29,2.29,0,0,1-2.23-.4l-.15-.13A2.31,2.31,0,0,1,342.25,100.45Zm3.47,1.6a2.87,2.87,0,1,0,4.71-2.1,2.89,2.89,0,0,0-3.78.07.2.2,0,0,1-.22,0,.24.24,0,0,1-.15-.17,1.77,1.77,0,0,0-.61-1,1.81,1.81,0,0,0-2.55.22h0a1.81,1.81,0,0,0,2.26,2.75.21.21,0,0,1,.23,0l0,0A.24.24,0,0,1,345.72,102.05Z" style="fill:#fafafa"></path><path d="M337.84,95.65a2,2,0,1,0,2.87-.25A2,2,0,0,0,337.84,95.65Z" style="fill:#e6e6e6"></path><path d="M337.67,95.51h0a2.26,2.26,0,1,1,.27,3.19l-.14-.13A2.26,2.26,0,0,1,337.67,95.51Zm2.89.06a1.81,1.81,0,1,0,.12.11Zm-2.72.08Z" style="fill:#fafafa"></path><path d="M330.55,108.43l.06,0a.22.22,0,0,0,.3-.11c1.7-3.44,7.54-7.91,7.6-8a.22.22,0,0,0-.27-.35c-.25.18-6,4.58-7.73,8.12A.23.23,0,0,0,330.55,108.43Z" style="fill:#fafafa"></path><path d="M327.35,108.09a.24.24,0,0,0,.19.06.22.22,0,0,0,.19-.25,10.39,10.39,0,0,1,1.29-6.27.22.22,0,1,0-.39-.2,10.74,10.74,0,0,0-1.34,6.52A.22.22,0,0,0,327.35,108.09Z" style="fill:#fafafa"></path><path d="M331.88,117.05a.22.22,0,0,0,.31,0,.21.21,0,0,0,0-.31,13,13,0,0,1-1.87-2.63.22.22,0,0,0-.3-.09.23.23,0,0,0-.1.3,13,13,0,0,0,1.95,2.72Z" style="fill:#fafafa"></path><path d="M323.49,114.13a.23.23,0,0,0,.27,0l2.51-1.44a.22.22,0,0,0-.22-.39l-2.51,1.44a.22.22,0,0,0-.09.3A.1.1,0,0,0,323.49,114.13Z" style="fill:#fafafa"></path><path d="M322.83,108h0a8.48,8.48,0,0,0,2.93,1.7.22.22,0,0,0,.28-.15.23.23,0,0,0-.15-.28,8,8,0,0,1-2.77-1.61.23.23,0,0,0-.31.33Z" style="fill:#fafafa"></path><path d="M331.85,111a.23.23,0,0,0,.24,0c2-.71,8.78-3,8.85-3a.23.23,0,0,0-.14-.43c-.07,0-6.91,2.26-8.87,3a.23.23,0,0,0-.13.29A.22.22,0,0,0,331.85,111Z" style="fill:#fafafa"></path><path d="M327.67,121.19a.23.23,0,0,0,.22.06.24.24,0,0,0,.16-.28,13.37,13.37,0,0,1,0-6.91.23.23,0,0,0-.16-.28.22.22,0,0,0-.27.16,13.91,13.91,0,0,0-.05,7.15Z" style="fill:#fafafa"></path><path d="M336,114.37a2.71,2.71,0,0,0,0,3.85,2.67,2.67,0,0,0,2.21.78,10.08,10.08,0,0,0,2.24,7.56,2.06,2.06,0,1,0,2.33,3.31,2,2,0,0,0,.54-.93,10,10,0,0,0,14.41-5.67,4,4,0,1,0-.59-7.65,10,10,0,0,0-17.21-1.16l-.08-.09A2.73,2.73,0,0,0,336,114.37Zm0,0a2.71,2.71,0,0,0,0,3.85,2.67,2.67,0,0,0,2.21.78,10.08,10.08,0,0,0,2.24,7.56,2.06,2.06,0,1,0,2.33,3.31,2,2,0,0,0,.54-.93,10,10,0,0,0,14.41-5.67,4,4,0,1,0-.59-7.65,10,10,0,0,0-17.21-1.16l-.08-.09A2.73,2.73,0,0,0,336,114.37Z" style="fill:#e6e6e6"></path><path d="M344.73,92.85c-.89,1.46.89,2.66,2.93,3.25,1.57.46,3.62.57,4.47-.77A3.16,3.16,0,0,0,353.7,97c1.3.65,2.72.45,3.18-.46s-.23-2.17-1.53-2.82-2.54-.47-3.08.29a4.72,4.72,0,0,0-3.2-2C346.8,91.5,345.27,92,344.73,92.85Z" style="fill:#e6e6e6"></path><path d="M344.38,94.16a1.52,1.52,0,0,1,.16-1.42h0c.64-1,2.39-1.44,4.57-1a5.31,5.31,0,0,1,3.2,1.87,2.87,2.87,0,0,1,3.14-.1A3.42,3.42,0,0,1,357,94.89a1.84,1.84,0,0,1,.11,1.71c-.51,1-2.07,1.27-3.48.56a3.49,3.49,0,0,1-1.51-1.4c-1.24,1.37-3.72.78-4.49.56a6.87,6.87,0,0,1-2.72-1.42A2,2,0,0,1,344.38,94.16Zm8,1.09a2.86,2.86,0,0,0,1.45,1.51c1.19.59,2.48.43,2.88-.36a1.39,1.39,0,0,0-.11-1.3,3,3,0,0,0-1.33-1.22,2.27,2.27,0,0,0-2.79.22.23.23,0,0,1-.39,0,4.48,4.48,0,0,0-3-1.91c-2.39-.45-3.69.13-4.11.82h0a1.1,1.1,0,0,0-.13,1c.28.73,1.38,1.43,2.93,1.89.75.22,3.27.82,4.23-.68a.21.21,0,0,1,.21-.1.16.16,0,0,1,.13.06A.24.24,0,0,1,352.35,95.25Zm-7.62-2.4Z" style="fill:#fafafa"></path><path d="M339.69,126.81a1.9,1.9,0,0,1,.39-.31,10.4,10.4,0,0,1-1.93-4,10.52,10.52,0,0,1-.22-3.21,2.95,2.95,0,0,1-2.12-5,3,3,0,0,1,4.06-.1,10,10,0,0,1,1-1.21,10.28,10.28,0,0,1,16.32,2.44,4.25,4.25,0,1,1,.63,8.19,10.26,10.26,0,0,1-14.43,5.74,2.42,2.42,0,0,1-.51.76,2.28,2.28,0,1,1-3.22-3.22Zm3.38,2.08.07-.28.26.14a9.85,9.85,0,0,0,14.09-5.55l.06-.19.2,0a3.81,3.81,0,0,0,3.58-6.39,3.81,3.81,0,0,0-4.14-.84l-.19.08-.09-.18a9.82,9.82,0,0,0-15.69-2.51,10,10,0,0,0-1.14,1.37l-.15.23-.27-.28a2.5,2.5,0,1,0-3.53,3.53,2.46,2.46,0,0,0,2,.72l.28,0,0,.28a9.91,9.91,0,0,0,2.19,7.39l.19.22-.27.13a1.76,1.76,0,0,0-.51.36,1.83,1.83,0,1,0,2.59,2.59A1.75,1.75,0,0,0,343.07,128.89Z" style="fill:#fafafa"></path><path d="M347.29,120a1.3,1.3,0,0,1,2-1.35,1.28,1.28,0,0,1,.56.82,1.29,1.29,0,0,1-1,1.54,1.28,1.28,0,0,1-1-.19,1.84,1.84,0,0,1-.22-.17A1.42,1.42,0,0,1,347.29,120Z" style="fill:#f0f0f0"></path><polygon points="316.77 214.99 320.12 216.82 316.77 218.65 314.95 221.99 313.12 218.65 309.78 216.82 313.12 214.99 314.95 211.65 316.77 214.99" style="fill:#f0f0f0"></polygon><polygon points="329.42 210.4 331.09 211.31 329.42 212.22 328.51 213.89 327.6 212.22 325.93 211.31 327.6 210.4 328.51 208.73 329.42 210.4" style="fill:#ebebeb"></polygon><polygon points="77.79 137.69 81.13 139.51 77.79 141.34 75.96 144.68 74.14 141.34 70.79 139.51 74.14 137.69 75.96 134.34 77.79 137.69" style="fill:#f0f0f0"></polygon><polygon points="90.44 133.09 92.11 134 90.44 134.92 89.53 136.58 88.62 134.92 86.95 134 88.62 133.09 89.53 131.42 90.44 133.09" style="fill:#ebebeb"></polygon><polygon points="406.87 111.97 406.17 115.72 403.39 113.11 399.65 112.41 402.26 109.63 402.96 105.89 405.73 108.5 409.48 109.2 406.87 111.97" style="fill:#f0f0f0"></polygon><polygon points="415.16 122.57 414.81 124.44 413.43 123.14 411.56 122.79 412.86 121.4 413.21 119.54 414.59 120.84 416.46 121.19 415.16 122.57" style="fill:#ebebeb"></polygon><polygon points="230.61 104.82 229.84 108.56 227.11 105.9 223.38 105.14 226.04 102.41 226.8 98.67 229.53 101.33 233.26 102.09 230.61 104.82" style="fill:#f0f0f0"></polygon><polygon points="238.72 115.56 238.34 117.43 236.97 116.1 235.11 115.72 236.44 114.36 236.82 112.49 238.18 113.82 240.04 114.2 238.72 115.56" style="fill:#ebebeb"></polygon><polygon points="169 160.07 171.08 161.21 169 162.34 167.87 164.42 166.73 162.34 164.66 161.21 166.73 160.07 167.87 158 169 160.07" style="fill:#f0f0f0"></polygon><polygon points="451.04 154.03 453.11 155.16 451.04 156.29 449.9 158.37 448.77 156.29 446.69 155.16 448.77 154.03 449.9 151.95 451.04 154.03" style="fill:#f0f0f0"></polygon><polygon points="140.59 116.98 142.66 118.11 140.59 119.25 139.45 121.32 138.32 119.25 136.24 118.11 138.32 116.98 139.45 114.9 140.59 116.98" style="fill:#f0f0f0"></polygon><polygon points="451.71 206.87 453.79 208 451.71 209.14 450.58 211.21 449.44 209.14 447.37 208 449.44 206.87 450.58 204.79 451.71 206.87" style="fill:#f0f0f0"></polygon><path d="M194.09,382.43s57.33-91.55,133.31-91.55c85.19,0,121.93,90.32,121.93,90.32Z" style="fill:#ebebeb"></path><path d="M453.79,381.93s-144.45-99.67-281.52-99.67c-97.85,0-129.6,100.1-129.6,100.1Z" style="fill:#f0f0f0"></path><path d="M78,311.06c-2.15-.4-6.27,3.58-8.29,2.76-1.56-.64-1.85-4.84-3.07-6-1.68-1.57-7.74-1.47-8.44-3.66-1.42-4.52,5.3-15,9.9-16.18,3.3-.82,8.54,5.72,11.73,6.91,3,1.1,10.33-.12,12.42,2.24,2.42,2.73,2,11.52,0,14.61-1.26,2-6.21,4.45-8.51,4C81.93,315.37,79.83,311.39,78,311.06Z" style="fill:#f5f5f5"></path><path d="M82.09,305.2a46.11,46.11,0,0,1,3.67-3l-.11-.33-4,2.71L80,299.77l-.27.22s1.31,3.55,1.11,4.81c-.44,2.71-6.11,8.76-6.11,8.76h0s-4.07-4.65-4.83-6.53c-.62-1.56-.86-6.65-.86-6.65l-.27,0,.35,6-6-4.93-.11.33a68.4,68.4,0,0,1,6.17,5.44,58,58,0,0,1,3.89,6.38,4.66,4.66,0,0,1,.55,2.31l-.49,16.89H76l-.47-16.24a5.86,5.86,0,0,1,1-3A67.21,67.21,0,0,1,82.09,305.2Z" style="fill:#e0e0e0"></path><path d="M337.18,285c-2.15-.39-6.28,3.59-8.3,2.76-1.56-.63-1.84-4.83-3.07-6-1.68-1.57-7.74-1.47-8.43-3.66-1.43-4.52,5.3-15,9.9-16.18,3.3-.83,8.53,5.72,11.72,6.9,3,1.1,10.33-.11,12.43,2.25,2.42,2.73,1.95,11.52,0,14.6-1.27,2-6.21,4.46-8.52,4C341.1,289.32,339,285.35,337.18,285Z" style="fill:#f5f5f5"></path><path d="M341.25,279.16a43.93,43.93,0,0,1,3.67-3l-.1-.34-4,2.72-1.63-4.81-.26.22s1.3,3.56,1.1,4.81c-.44,2.72-6.11,8.76-6.11,8.76h0s-4.06-4.64-4.82-6.52c-.63-1.56-.87-6.66-.87-6.66l-.26.05.35,6-6-4.93-.1.33a69.3,69.3,0,0,1,6.17,5.43,57.62,57.62,0,0,1,3.88,6.39,4.53,4.53,0,0,1,.55,2.31l-.48,16.89h2.82l-.47-16.24a5.94,5.94,0,0,1,1-3A67.59,67.59,0,0,1,341.25,279.16Z" style="fill:#e0e0e0"></path><path d="M430.1,334.1c2.15-.4,6.28,3.58,8.3,2.76,1.56-.64,1.84-4.83,3.07-6,1.68-1.58,7.74-1.48,8.43-3.67,1.43-4.52-5.3-15-9.9-16.18-3.3-.82-8.53,5.73-11.72,6.91-3,1.1-10.33-.12-12.42,2.24-2.43,2.74-2,11.53,0,14.61,1.26,2,6.2,4.45,8.51,4C426.18,338.41,428.28,334.43,430.1,334.1Z" style="fill:#f5f5f5"></path><path d="M426,328.24a46.11,46.11,0,0,0-3.67-3l.1-.33,4,2.71,1.63-4.8.26.22s-1.3,3.56-1.1,4.81c.44,2.71,6.11,8.76,6.11,8.76h0s4.06-4.65,4.82-6.53c.63-1.55.87-6.65.87-6.65l.26,0-.35,6,6-4.94.1.34a69.3,69.3,0,0,0-6.17,5.43,56.71,56.71,0,0,0-3.88,6.39,4.4,4.4,0,0,0-.55,2.3l.48,16.9h-2.82l.47-16.25a6,6,0,0,0-1-3A69.13,69.13,0,0,0,426,328.24Z" style="fill:#e0e0e0"></path><path d="M58.4,344.25s9.95-1.16,11-3.89c.83-2.21-4.05-5.94-4.62-8.23-.43-1.77.75-5.55.21-7.3-.49-1.54-3.46-3.64-3.82-5.22-.17-.74.72-2.27.54-3-.42-1.69-2.57-5.76-4.29-5.49-2.71.44-3.87,7.5-4,10.24,0,1,1.32,2.92,1.22,3.95-.19,1.84-3.61,4.65-3.55,6.5,0,.77,1.65,1.83,1.67,2.61,0,1.4-3.1,3.53-2.74,4.88C50.66,341.64,58.4,344.25,58.4,344.25Z" style="fill:#e6e6e6"></path><path d="M58,329.13,58.28,318l.41,0,.46,18.16s3.38,1,4.55,1.18a24.56,24.56,0,0,0,2.47,0v.22s-2,.14-2.61.09c-.32,0-1.27-.24-1.27-.24l1.23,1.18-.14.16-1.59-1.43-2.62-.64.43,16.83H57.38L58,329.45Z" style="fill:#e0e0e0"></path><path d="M306.94,287.75s9.95-1.16,11-3.88c.83-2.21-4.06-5.94-4.62-8.24-.44-1.77.74-5.55.2-7.29-.48-1.54-3.45-3.65-3.82-5.22-.17-.75.72-2.27.54-3-.42-1.69-2.57-5.77-4.28-5.49-2.72.43-3.87,7.49-4,10.24,0,1,1.32,2.92,1.22,3.95-.18,1.84-3.61,4.64-3.55,6.49,0,.77,1.65,1.84,1.68,2.61,0,1.4-3.11,3.53-2.75,4.89C299.2,285.14,306.94,287.75,306.94,287.75Z" style="fill:#ebebeb"></path><path d="M306.54,272.63l.29-11.14.4,0,.47,18.16a45.35,45.35,0,0,0,4.54,1.18,24.74,24.74,0,0,0,2.48,0v.23s-2,.14-2.61.09c-.33,0-1.27-.25-1.27-.25l1.22,1.18-.14.16-1.59-1.42-2.62-.65.44,16.83h-2.23l.61-24.07Z" style="fill:#e0e0e0"></path><path d="M409.7,320.5s9.95-1.16,11-3.88c.83-2.21-4.05-5.94-4.62-8.24-.44-1.77.74-5.55.2-7.29-.48-1.54-3.45-3.65-3.81-5.22-.18-.75.72-2.27.53-3-.42-1.69-2.56-5.77-4.28-5.49-2.71.43-3.87,7.49-4,10.24,0,1,1.33,2.92,1.22,3.95-.18,1.84-3.61,4.64-3.54,6.49,0,.77,1.65,1.84,1.67,2.61,0,1.4-3.11,3.53-2.74,4.89C402,317.89,409.7,320.5,409.7,320.5Z" style="fill:#f0f0f0"></path><path d="M409.31,305.38l.28-11.14.4,0,.47,18.16s3.38,1,4.54,1.19c.62.07,2.48,0,2.48,0v.22s-2,.14-2.61.09c-.32,0-1.27-.25-1.27-.25l1.23,1.18-.14.16-1.59-1.42-2.63-.65.44,16.83h-2.23l.62-24.07Z" style="fill:#e0e0e0"></path><path d="M148.56,152.41s1.28-7.95-4.53-8.59c-4-.44-7.28,1.77-9,3.2a18.77,18.77,0,0,0,1.26,4.79c1.71,4.38,6.81,3.14,6.38.76s-4.2-1.19-4.2-1.19c3.94-4.47,9.07,4.22,2.29,4.79-5.64.48-6.76-5.35-6.95-8-.3-4.29-1.57-13.62-10.91-13.3-7.09.24-9.61,8.2-10.41,12,7.89,8.65,12.74,3.37,10.86,1-1.58-2-4.76.59-4.76.59,2.58-6.12,10.53.05,5,4-4.31,3.07-9.47-1.24-11.47-3.48-2.71-3-12.35-12.45-16.29,0a9.12,9.12,0,0,0-.24.93s3.43-5.27,8.59-2.84.8,12.07-3.35,5.39c0,0,3.75,2.24,4.23-1.16s-6.78-5.76-8.28.71c-2.36,10.23,30.64,8.79,49.42,8.79,6.93,0,13.48-1.28,13.48-5.11C159.74,151.65,148.56,152.41,148.56,152.41Z" style="fill:#f0f0f0"></path><path d="M162.67,242.22s1.24-9.76-5.88-10.3c-4.87-.37-8.81,2.45-10.81,4.26a23.07,23.07,0,0,0,1.73,5.79c2.27,5.28,8.44,3.56,7.82.68s-5.17-1.29-5.17-1.29c4.62-5.61,11.23,4.78,3,5.75-6.86.82-8.46-6.25-8.79-9.47-.55-5.22-2.47-16.54-13.86-15.78-8.64.59-11.38,10.39-12.21,15.1,10,10.23,15.68,3.6,13.29.72-2-2.42-5.79.92-5.79.92,2.9-7.58,12.86-.37,6.3,4.63-5.14,3.91-11.6-1.14-14.13-3.79-3.43-3.59-15.58-14.69-19.88.66a10.75,10.75,0,0,0-.24,1.15s4-6.57,10.36-3.82,1.46,14.7-3.87,6.72c0,0,4.67,2.58,5.11-1.6s-8.5-6.74-10.07,1.21c-2.46,12.57,37.74,9.48,60.64,8.72,8.46-.28,16.39-2.11,16.24-6.78C176.28,240.83,162.67,242.22,162.67,242.22Z" style="fill:#ebebeb"></path><path d="M422.2,186.85s1.81-11.29-6.44-12.2c-5.65-.62-10.34,2.5-12.73,4.54a26.87,26.87,0,0,0,1.78,6.8c2.44,6.22,9.68,4.45,9.07,1.09s-6-1.7-6-1.7c5.59-6.35,12.88,6,3.25,6.8-8,.68-9.59-7.6-9.86-11.35-.43-6.09-2.23-19.33-15.5-18.88-10.06.34-13.64,11.64-14.78,17.08,11.21,12.28,18.1,4.79,15.43,1.35-2.24-2.89-6.77.84-6.77.84,3.67-8.69,15,.07,7.14,5.63-6.12,4.35-13.44-1.77-16.28-4.95-3.85-4.31-17.54-17.68-23.13,0a12.39,12.39,0,0,0-.34,1.33s4.87-7.49,12.2-4,1.14,17.15-4.76,7.67c0,0,5.33,3.18,6-1.66s-9.63-8.17-11.75,1c-3.36,14.53,43.5,12.48,70.15,12.48,9.85,0,19.15-1.81,19.15-7.25C438.07,185.76,422.2,186.85,422.2,186.85Z" style="fill:#ebebeb"></path></g><g id="background-simple"><path d="M393,221c0,79-64,100.67-143,100.67S107,299.91,107,221A143,143,0,0,1,393,221Z" style="fill:#407BFF"></path><path d="M393,221c0,79-64,100.67-143,100.67S107,299.91,107,221A143,143,0,0,1,393,221Z" style="fill:#fff;opacity:0.9"></path></g><g id="Shadow"><ellipse id="path" cx="250" cy="412.39" rx="193.89" ry="11.32" style="fill:#f5f5f5"></ellipse></g><g id="musical-notes"><path d="M307,128.05a2.88,2.88,0,0,0-.79-1.63,4.33,4.33,0,0,0-2.74-1.33,4.18,4.18,0,0,1-3-1.75l-.08-.43a.27.27,0,0,0-.32-.22.3.3,0,0,0-.23.32l2.94,16.5-.21,0h-.06l-.26,0a4.65,4.65,0,0,0-5.34,2.59,5.74,5.74,0,0,0-.61,2.47,1.48,1.48,0,0,0,0,.3,2.2,2.2,0,0,0,1.37,1.92s3.39.53,5-2.09a5.5,5.5,0,0,0,.82-2.61,0,0,0,0,0,0,0,2.6,2.6,0,0,0,0-1.33L301.48,129a4.4,4.4,0,0,0,2.79,1.39,4.2,4.2,0,0,1,3.12,1.92.25.25,0,0,0,.2.07h.05a.22.22,0,0,0,.13-.23Z" style="fill:#407BFF"></path><g style="opacity:0.4"><path d="M307,128.05a2.88,2.88,0,0,0-.79-1.63,4.33,4.33,0,0,0-2.74-1.33,4.18,4.18,0,0,1-3-1.75l-.08-.43a.27.27,0,0,0-.32-.22.3.3,0,0,0-.23.32l2.94,16.5-.21,0h-.06l-.26,0a4.65,4.65,0,0,0-5.34,2.59,5.74,5.74,0,0,0-.61,2.47,1.48,1.48,0,0,0,0,.3,2.2,2.2,0,0,0,1.37,1.92s3.39.53,5-2.09a5.5,5.5,0,0,0,.82-2.61,0,0,0,0,0,0,0,2.6,2.6,0,0,0,0-1.33L301.48,129a4.4,4.4,0,0,0,2.79,1.39,4.2,4.2,0,0,1,3.12,1.92.25.25,0,0,0,.2.07h.05a.22.22,0,0,0,.13-.23Z" style="fill:#fff"></path></g><path d="M213.43,121.66l.08.43a.26.26,0,0,0,.31.22.28.28,0,0,0,.24-.32l-2.87-16.51.21,0h0l.27,0a4.65,4.65,0,0,0,5.35-2.57,5.71,5.71,0,0,0,.62-2.46,1.45,1.45,0,0,0,0-.3,2.22,2.22,0,0,0-1.36-1.93s-3.39-.54-5,2.07a5.51,5.51,0,0,0-.84,2.61h0a2.46,2.46,0,0,0,0,1.32l2,11.67Z" style="fill:#407BFF"></path><g style="opacity:0.5"><path d="M213.43,121.66l.08.43a.26.26,0,0,0,.31.22.28.28,0,0,0,.24-.32l-2.87-16.51.21,0h0l.27,0a4.65,4.65,0,0,0,5.35-2.57,5.71,5.71,0,0,0,.62-2.46,1.45,1.45,0,0,0,0-.3,2.22,2.22,0,0,0-1.36-1.93s-3.39-.54-5,2.07a5.51,5.51,0,0,0-.84,2.61h0a2.46,2.46,0,0,0,0,1.32l2,11.67Z" style="fill:#fff"></path></g><path d="M320.73,167.26h0l1.59-9.12.08-.42h0l.3-1.7.86-4.95,0-.25-13.5-2.35-.05.28-.86,4.94-2.09,11.95a2.52,2.52,0,0,0-.29-.16h0a6.24,6.24,0,0,0-1.82-.69,4.91,4.91,0,0,0-.77-.09,4.49,4.49,0,0,0-.81,0,4.35,4.35,0,0,0-2.5,1.36,5.31,5.31,0,0,0-1.5,2.4,2.21,2.21,0,0,0,.63,2.27s3,1.65,5.4-.27a5.47,5.47,0,0,0,2.09-4.08h0L309.32,156l12.38,2.3-1.39,8.11c-1-.59-3.39-1.76-5.61-.09l-.3.25a4,4,0,0,0-.3.29,9,9,0,0,0-.68.78c-1,1.38-1,2.4-.76,3.05a1.89,1.89,0,0,0,.24.45,1.69,1.69,0,0,0,.34.39,5.47,5.47,0,0,0,4.68.19h0a0,0,0,0,0,0,0,4.07,4.07,0,0,0,.71-.46,5.57,5.57,0,0,0,1.87-2.74v0A7.25,7.25,0,0,0,320.73,167.26Zm-11.29-12,.26-1.52L322.1,156l-.28,1.65Z" style="fill:#407BFF"></path><g style="opacity:0.4"><path d="M320.73,167.26h0l1.59-9.12.08-.42h0l.3-1.7.86-4.95,0-.25-13.5-2.35-.05.28-.86,4.94-2.09,11.95a2.52,2.52,0,0,0-.29-.16h0a6.24,6.24,0,0,0-1.82-.69,4.91,4.91,0,0,0-.77-.09,4.49,4.49,0,0,0-.81,0,4.35,4.35,0,0,0-2.5,1.36,5.31,5.31,0,0,0-1.5,2.4,2.21,2.21,0,0,0,.63,2.27s3,1.65,5.4-.27a5.47,5.47,0,0,0,2.09-4.08h0L309.32,156l12.38,2.3-1.39,8.11c-1-.59-3.39-1.76-5.61-.09l-.3.25a4,4,0,0,0-.3.29,9,9,0,0,0-.68.78c-1,1.38-1,2.4-.76,3.05a1.89,1.89,0,0,0,.24.45,1.69,1.69,0,0,0,.34.39,5.47,5.47,0,0,0,4.68.19h0a0,0,0,0,0,0,0,4.07,4.07,0,0,0,.71-.46,5.57,5.57,0,0,0,1.87-2.74v0A7.25,7.25,0,0,0,320.73,167.26Zm-11.29-12,.26-1.52L322.1,156l-.28,1.65Z" style="fill:#fff"></path></g><path d="M163.82,106.91a2.86,2.86,0,0,0-.43-1.76,4.31,4.31,0,0,0-2.4-1.88,4.17,4.17,0,0,1-2.57-2.34v-.44a.28.28,0,0,0-.27-.28.28.28,0,0,0-.29.26l-.6,16.75-.19-.09-.05,0-.26-.1a4.65,4.65,0,0,0-5.76,1.41,5.79,5.79,0,0,0-1.12,2.29c0,.1,0,.2,0,.29a2.22,2.22,0,0,0,.94,2.17s3.2,1.23,5.31-1a5.57,5.57,0,0,0,1.35-2.39h0a2.62,2.62,0,0,0,.31-1.29l.18-5A4.6,4.6,0,0,0,160.1,115a4.27,4.27,0,0,1,2.67,2.61.22.22,0,0,0,.19.12h0a.2.2,0,0,0,.17-.2l.13-2.73a3,3,0,0,0-.45-1.77,4.47,4.47,0,0,0-2.43-2,4.26,4.26,0,0,1-2.33-1.92l.09-2.52a4.4,4.4,0,0,0,2.44,1.94,4.26,4.26,0,0,1,2.65,2.53.22.22,0,0,0,.18.12h0a.2.2,0,0,0,.17-.19Z" style="fill:#407BFF"></path><path d="M163.82,106.91a2.86,2.86,0,0,0-.43-1.76,4.31,4.31,0,0,0-2.4-1.88,4.17,4.17,0,0,1-2.57-2.34v-.44a.28.28,0,0,0-.27-.28.28.28,0,0,0-.29.26l-.6,16.75-.19-.09-.05,0-.26-.1a4.65,4.65,0,0,0-5.76,1.41,5.79,5.79,0,0,0-1.12,2.29c0,.1,0,.2,0,.29a2.22,2.22,0,0,0,.94,2.17s3.2,1.23,5.31-1a5.57,5.57,0,0,0,1.35-2.39h0a2.62,2.62,0,0,0,.31-1.29l.18-5A4.6,4.6,0,0,0,160.1,115a4.27,4.27,0,0,1,2.67,2.61.22.22,0,0,0,.19.12h0a.2.2,0,0,0,.17-.2l.13-2.73a3,3,0,0,0-.45-1.77,4.47,4.47,0,0,0-2.43-2,4.26,4.26,0,0,1-2.33-1.92l.09-2.52a4.4,4.4,0,0,0,2.44,1.94,4.26,4.26,0,0,1,2.65,2.53.22.22,0,0,0,.18.12h0a.2.2,0,0,0,.17-.19Z" style="fill:#fff;opacity:0.5"></path><path d="M197,104.27h0l-1.38-11.32L195,88l0-.24-13.61,1.66,0,.28.61,5,1.47,12-.32-.07h0a6.5,6.5,0,0,0-2-.13,5.31,5.31,0,0,0-.76.14,4.67,4.67,0,0,0-.76.28,4.33,4.33,0,0,0-2,2,5.36,5.36,0,0,0-.74,2.73,2.22,2.22,0,0,0,1.26,2s3.36.7,5.09-1.82a5.51,5.51,0,0,0,.82-4.52h0l-1.56-12.72L195.08,93l1.31,10.53h0c-1.08-.29-3.75-.7-5.39,1.54l-.21.33q-.1.16-.21.36a9.28,9.28,0,0,0-.42,1,3.09,3.09,0,0,0,.16,3.14,2.41,2.41,0,0,0,.35.36,2,2,0,0,0,.44.27,5.49,5.49,0,0,0,4.54-1.18h0a4.92,4.92,0,0,0,.54-.64,5.57,5.57,0,0,0,1-3.17v0A5.57,5.57,0,0,0,197,104.27Z" style="fill:#407BFF"></path><path d="M197,104.27h0l-1.38-11.32L195,88l0-.24-13.61,1.66,0,.28.61,5,1.47,12-.32-.07h0a6.5,6.5,0,0,0-2-.13,5.31,5.31,0,0,0-.76.14,4.67,4.67,0,0,0-.76.28,4.33,4.33,0,0,0-2,2,5.36,5.36,0,0,0-.74,2.73,2.22,2.22,0,0,0,1.26,2s3.36.7,5.09-1.82a5.51,5.51,0,0,0,.82-4.52h0l-1.56-12.72L195.08,93l1.31,10.53h0c-1.08-.29-3.75-.7-5.39,1.54l-.21.33q-.1.16-.21.36a9.28,9.28,0,0,0-.42,1,3.09,3.09,0,0,0,.16,3.14,2.41,2.41,0,0,0,.35.36,2,2,0,0,0,.44.27,5.49,5.49,0,0,0,4.54-1.18h0a4.92,4.92,0,0,0,.54-.64,5.57,5.57,0,0,0,1-3.17v0A5.57,5.57,0,0,0,197,104.27Z" style="fill:#fff;opacity:0.5"></path></g><g id="Sparkles"><polygon points="179.7 202.4 183.04 204.23 179.7 206.06 177.87 209.4 176.04 206.06 172.7 204.23 176.04 202.4 177.87 199.06 179.7 202.4" style="fill:#407BFF"></polygon><g style="opacity:0.7000000000000001"><polygon points="179.7 202.4 183.04 204.23 179.7 206.06 177.87 209.4 176.04 206.06 172.7 204.23 176.04 202.4 177.87 199.06 179.7 202.4" style="fill:#fff"></polygon></g><polygon points="154.4 176.02 156.48 177.15 154.4 178.29 153.27 180.36 152.13 178.29 150.06 177.15 152.13 176.02 153.27 173.94 154.4 176.02" style="fill:#407BFF"></polygon><g style="opacity:0.7000000000000001"><polygon points="154.4 176.02 156.48 177.15 154.4 178.29 153.27 180.36 152.13 178.29 150.06 177.15 152.13 176.02 153.27 173.94 154.4 176.02" style="fill:#fff"></polygon></g><polygon points="174.71 146.71 176.78 147.84 174.71 148.98 173.57 151.05 172.44 148.98 170.37 147.84 172.44 146.71 173.57 144.63 174.71 146.71" style="fill:#407BFF"></polygon><g style="opacity:0.7000000000000001"><polygon points="174.71 146.71 176.78 147.84 174.71 148.98 173.57 151.05 172.44 148.98 170.37 147.84 172.44 146.71 173.57 144.63 174.71 146.71" style="fill:#fff"></polygon></g><polygon points="220.4 218.04 222.47 219.17 220.4 220.31 219.26 222.38 218.13 220.31 216.05 219.17 218.13 218.04 219.26 215.96 220.4 218.04" style="fill:#407BFF"></polygon><g style="opacity:0.7000000000000001"><polygon points="220.4 218.04 222.47 219.17 220.4 220.31 219.26 222.38 218.13 220.31 216.05 219.17 218.13 218.04 219.26 215.96 220.4 218.04" style="fill:#fff"></polygon></g><polygon points="303.18 195.01 305.25 196.14 303.18 197.28 302.04 199.35 300.91 197.28 298.83 196.14 300.91 195.01 302.04 192.93 303.18 195.01" style="fill:#407BFF"></polygon><g style="opacity:0.8"><polygon points="303.18 195.01 305.25 196.14 303.18 197.28 302.04 199.35 300.91 197.28 298.83 196.14 300.91 195.01 302.04 192.93 303.18 195.01" style="fill:#fff;opacity:0.7000000000000001"></polygon></g><polygon points="192.35 197.81 194.01 198.72 192.35 199.63 191.44 201.3 190.52 199.63 188.85 198.72 190.52 197.81 191.44 196.14 192.35 197.81" style="fill:#407BFF"></polygon><g style="opacity:0.7000000000000001"><polygon points="192.35 197.81 194.01 198.72 192.35 199.63 191.44 201.3 190.52 199.63 188.85 198.72 190.52 197.81 191.44 196.14 192.35 197.81" style="fill:#fff"></polygon></g><polygon points="346.04 222.95 343.62 225.89 347.4 226.35 350.34 228.77 350.8 224.99 353.22 222.05 349.44 221.6 346.5 219.17 346.04 222.95" style="fill:#407BFF"></polygon><polygon points="332.59 223.39 331.38 224.85 333.27 225.08 334.74 226.29 334.96 224.4 336.17 222.94 334.29 222.71 332.82 221.5 332.59 223.39" style="fill:#407BFF"></polygon><g style="opacity:0.8"><polygon points="332.59 223.39 331.38 224.85 333.27 225.08 334.74 226.29 334.96 224.4 336.17 222.94 334.29 222.71 332.82 221.5 332.59 223.39" style="fill:#fff"></polygon></g><polygon points="359.73 189.06 358.23 190.88 360.57 191.17 362.4 192.67 362.68 190.33 364.19 188.5 361.84 188.22 360.01 186.71 359.73 189.06" style="fill:#407BFF"></polygon><g style="opacity:0.8"><polygon points="359.73 189.06 358.23 190.88 360.57 191.17 362.4 192.67 362.68 190.33 364.19 188.5 361.84 188.22 360.01 186.71 359.73 189.06" style="fill:#fff"></polygon></g><polygon points="329.99 169.39 328.49 171.22 330.84 171.5 332.66 173 332.94 170.66 334.45 168.83 332.1 168.55 330.28 167.04 329.99 169.39" style="fill:#407BFF"></polygon><g style="opacity:0.8"><polygon points="329.99 169.39 328.49 171.22 330.84 171.5 332.66 173 332.94 170.66 334.45 168.83 332.1 168.55 330.28 167.04 329.99 169.39" style="fill:#fff"></polygon></g><polygon points="303.55 239.94 302.04 241.77 304.39 242.05 306.21 243.56 306.5 241.21 308 239.39 305.66 239.1 303.83 237.6 303.55 239.94" style="fill:#407BFF"></polygon><g style="opacity:0.8"><polygon points="303.55 239.94 302.04 241.77 304.39 242.05 306.21 243.56 306.5 241.21 308 239.39 305.66 239.1 303.83 237.6 303.55 239.94" style="fill:#fff"></polygon></g><polygon points="346.04 222.95 343.62 225.89 347.4 226.35 350.34 228.77 350.8 224.99 353.22 222.05 349.44 221.6 346.5 219.17 346.04 222.95" style="fill:#fff;opacity:0.7000000000000001"></polygon></g><g id="Character"><path d="M282.35,255.87c5.21-1.32,11.19-2,15.58,1.1A10.51,10.51,0,0,1,299,273.26c-.47,1.56,1.6,3.15,3.22,3.34a8.48,8.48,0,0,0,4.66-1.3l.24-1.23c1.47,1.11,1.9,3.79.32,4.73a3.43,3.43,0,0,0,4.58-2.72c0,.27,0,.54,0,.81,0,1.76.11,3.51-1,4.88a5.11,5.11,0,0,1-4.7,1.79c1,.25,2.49,1.22,3.46,1.47-2.45,1.57-15.95,4.38-21.39-5.41-1.6-2.87-1.41-6.47-.31-9.56a5,5,0,0,0-1.77-5,5.73,5.73,0,0,0-5.07-1C279.25,261.56,279.27,256.65,282.35,255.87Z" style="fill:#407BFF"></path><path d="M282.35,255.87c5.21-1.32,11.19-2,15.58,1.1A10.51,10.51,0,0,1,299,273.26c-.47,1.56,1.6,3.15,3.22,3.34a8.48,8.48,0,0,0,4.66-1.3l.24-1.23c1.47,1.11,1.9,3.79.32,4.73a3.43,3.43,0,0,0,4.58-2.72c0,.27,0,.54,0,.81,0,1.76.11,3.51-1,4.88a5.11,5.11,0,0,1-4.7,1.79c1,.25,2.49,1.22,3.46,1.47-2.45,1.57-15.95,4.38-21.39-5.41-1.6-2.87-1.41-6.47-.31-9.56a5,5,0,0,0-1.77-5,5.73,5.73,0,0,0-5.07-1C279.25,261.56,279.27,256.65,282.35,255.87Z" style="fill:#fff;opacity:0.2"></path><path d="M242.51,166.29l-31.13,8.33-7.77-29.12-7.41-1.87c-.19-4.81,1.33,42.75,10.57,44.71s38.2-6.14,41.81-8.71S242.51,166.29,242.51,166.29Z" style="fill:#ff887b"></path><path d="M196.2,143.63s-5-7.23-1.93-13.87,7.66-3.14,7.66-3.14l3.7,2.19a2.65,2.65,0,0,1,.57,4.1l-2.32,2.46,1,2.34a6.42,6.42,0,0,1-.09,5.29l-1.19,2.5Z" style="fill:#ff887b"></path><path d="M197.63,164.91a64.23,64.23,0,0,0,3.3,24.1,2.19,2.19,0,0,1,1-2.4c-.25.78.44,1.53,1.1,2a22.5,22.5,0,0,0,8.4,4c-.12-1-.62-1.93-.74-2.89a21.36,21.36,0,0,0,9.19-2.15c-3.88-.21-9.52-1.51-12.2-4.32a5.82,5.82,0,0,0,2.69.67c-1.13,0-6.7-6.43-8.55-15.77-.15,1.66-.3,3.32-.44,5C201.22,175.9,198,167,197.63,164.91Z" style="fill:#407BFF"></path><path d="M197.63,164.91a64.23,64.23,0,0,0,3.3,24.1,2.19,2.19,0,0,1,1-2.4c-.25.78.44,1.53,1.1,2a22.5,22.5,0,0,0,8.4,4c-.12-1-.62-1.93-.74-2.89a21.36,21.36,0,0,0,9.19-2.15c-3.88-.21-9.52-1.51-12.2-4.32a5.82,5.82,0,0,0,2.69.67c-1.13,0-6.7-6.43-8.55-15.77-.15,1.66-.3,3.32-.44,5C201.22,175.9,198,167,197.63,164.91Z" style="opacity:0.1;isolation:isolate"></path><g id="character-2--inject-18"><path d="M234.73,174.72c-1.34,9.13-2.48,28,1.23,63.24,4.29,2.63,9.09,15.39,17.36,15.49,11.87.15,27.92-13.56,34.73-15.78-.77-7.73-3.71-8.76-2.17-23.55,1.11-10.68,2.12-19.8,4-38.24.81-4.88-3.09-9.68-8-10.49l-.33,0c-2.57-.3-5.37-.57-8.14-.7a192.38,192.38,0,0,0-22.14.05c-2.84.32-5.63.71-8,1.17A10.67,10.67,0,0,0,234.73,174.72Z" style="fill:#ff887b"></path><path d="M269,147.61c-.59,6.79-.18,14.71,3.75,18.11-5,3.58-10.52,10.47-16.25,14.32a5,5,0,0,1-7.27-2c-2.45-5.58,0-11.89,0-11.89,6.83-3,6.82-8,5.24-13.51L265,145C266.73,143.51,269.2,145.11,269,147.61Z" style="fill:#ff887b"></path><path d="M269,147.61c.22-2.56-2.25-4.1-4-2.63l-10.52,7.71a14.83,14.83,0,0,1,.58,7.53,14.32,14.32,0,0,0,6.74-.76,14.86,14.86,0,0,0,7-5.15A55.42,55.42,0,0,1,269,147.61Z" style="opacity:0.2;isolation:isolate"></path><path d="M253.83,164a4.58,4.58,0,0,0,2.1-4.2,21.52,21.52,0,0,1-5.78,3.39,4.43,4.43,0,0,0,1.18-2.85,7.58,7.58,0,0,1-3,1.41,4,4,0,0,0,1.75-3.69,19.72,19.72,0,0,0-1.42-5.42c5.53,5.95,10.94,4.1,17.28,1.78C265.27,155.75,257.77,163.32,253.83,164Z" style="fill:#407BFF"></path><path d="M277.43,135.6c-1.46,9.59-1.84,15.3-7.75,19.77-8.9,6.75-21.92,1.2-23.68-8.73-1.58-8.88,1.14-23.09,12.11-26S278.93,126,277.43,135.6Z" style="fill:#ff887b"></path><path d="M259.57,134.52c-.24.81-.87,1.36-1.41,1.19s-.78-1-.53-1.77.87-1.37,1.41-1.2S259.82,133.7,259.57,134.52Z" style="fill:#263238"></path><path d="M250.19,133.8c-.25.82-.87,1.36-1.41,1.21s-.78-1-.53-1.79.87-1.36,1.41-1.2S250.44,133,250.19,133.8Z" style="fill:#263238"></path><path d="M263.53,132.14a.52.52,0,0,1-.42-.32,4,4,0,0,0-2.61-2.53.51.51,0,0,1-.39-.6h0a.5.5,0,0,1,.6-.39h0a5,5,0,0,1,3.34,3.16.52.52,0,0,1-.3.65Z" style="fill:#263238"></path><path d="M247.29,129.19a.5.5,0,0,1-.44-.56.6.6,0,0,1,.13-.28,5,5,0,0,1,4.26-1.74.51.51,0,0,1,.42.57h0a.51.51,0,0,1-.58.41h0a4,4,0,0,0-3.36,1.38A.49.49,0,0,1,247.29,129.19Z" style="fill:#263238"></path><path d="M252.17,135a26.05,26.05,0,0,1-4.82,5.34,4.23,4.23,0,0,0,3.27,1.43Z" style="fill:#ff5652"></path><path d="M245,113.07s-2.09,2.61-.67,5.38c.73,1.43,1.7,1.44,2.48,1.07a2.51,2.51,0,0,0,1.44-1.81c.12-1.37.47-4.22,1.34-4.95Z" style="fill:#407BFF"></path><path d="M245,113.07s-2.09,2.61-.67,5.38c.73,1.43,1.7,1.44,2.48,1.07a2.51,2.51,0,0,0,1.44-1.81c.12-1.37.47-4.22,1.34-4.95Z" style="opacity:0.2"></path><path d="M248.35,116.5a3.38,3.38,0,0,1-5.14,1.13c-2.1-1.34-1.62.57-.8,1.1,4.17,2.69,5.85.06,5.85-1.38Z" style="fill:#407BFF"></path><path d="M256.06,121.69a4.42,4.42,0,0,1-2.48.65,7.68,7.68,0,0,1-2.1-.36c0-.24-.07-.48-.12-.71s0-.27-.07-.4c-.09-.56-.2-1.11-.32-1.64l-.09-.37a14,14,0,0,0-.48-1.55c0-.07-.05-.14-.08-.2a9.48,9.48,0,0,0-.48-1c-.12-.21-.26-.42-.4-.62l-.09-.1a4.92,4.92,0,0,0-.65-.72,5.45,5.45,0,0,0-.46-.38l-.13-.1a6,6,0,0,0-1.37-.74h0l-.17-.06a5.82,5.82,0,0,0-1.59-.3c3.06-2.11,5-2.42,6.75-1.95h0l.46.14h0a10.94,10.94,0,0,1,1.25.51l.05,0h0q.24.12.48.27a5.39,5.39,0,0,1,.92.69,5.77,5.77,0,0,1,.44.42,9,9,0,0,1,1.09,1.41c.1.16.19.33.28.5a7.79,7.79,0,0,1,.66,1.61c.05.16.09.32.13.48a7.65,7.65,0,0,1,.18,1.65,5.78,5.78,0,0,1-.05.71v0A3.44,3.44,0,0,1,256.06,121.69Z" style="fill:#407BFF"></path><path d="M257.15,119.39c.33-2.65-1.65-6.24-3.71-7.21s-3.93-1.74-7.3.59a5.83,5.83,0,0,1,4.28,3,20.09,20.09,0,0,1,1.61,5.65,6.4,6.4,0,0,0,1.74.29,3.62,3.62,0,0,0,2.07-.54A2.85,2.85,0,0,0,257.15,119.39Z" style="opacity:0.2"></path><path d="M257.63,119.56l-.53,0A25.08,25.08,0,0,0,252,121l-.6.23c0-.14,0-.27-.07-.4l.56-.42c2.35-1.7,4.11-2,5.33-1.75a3.66,3.66,0,0,1,.5.12,5.78,5.78,0,0,1-.05.71Z" style="fill:#407BFF"></path><path d="M257.5,117.17l-.52,0a20,20,0,0,0-5.45,1.76l-.56.26-.09-.37c.17-.15.35-.29.52-.42,2.3-1.78,4.14-2,5.39-1.86a4.28,4.28,0,0,1,.58.11C257.42,116.85,257.46,117,257.5,117.17Z" style="fill:#407BFF"></path><path d="M256.71,115.08l-.53.06A20.4,20.4,0,0,0,251,117c-.22.1-.41.2-.57.29,0-.07-.05-.14-.08-.2.17-.16.34-.31.52-.45h0a8,8,0,0,1,5-2.1l.58,0C256.53,114.74,256.62,114.91,256.71,115.08Z" style="fill:#407BFF"></path><path d="M255.34,113.17l-.49.08a19.23,19.23,0,0,0-4.84,1.9l-.57.32-.09-.1c.17-.16.33-.3.49-.43a8.53,8.53,0,0,1,4.52-2.16l.54,0A5.77,5.77,0,0,1,255.34,113.17Z" style="fill:#407BFF"></path><path d="M254,112.06c-.2,0-.41,0-.61.08a16.2,16.2,0,0,0-4.45,1.74l-.08.05-.6.34-.13-.1.49-.43c.19-.15.37-.29.56-.42a7.92,7.92,0,0,1,3.57-1.47,7.21,7.21,0,0,1,.77-.06h0Q253.74,111.91,254,112.06Z" style="fill:#407BFF"></path><path d="M252.2,111.26a5.55,5.55,0,0,0-.8.13h0a14.19,14.19,0,0,0-3.72,1.5,2.69,2.69,0,0,0-.29.16l-.64.38h0l-.17-.06.52-.43,0,0a8.38,8.38,0,0,1,3.47-1.66,6.2,6.2,0,0,1,1.15-.14h0Z" style="fill:#407BFF"></path><path d="M254.05,111.46l0,0" style="fill:none"></path><path d="M247.69,114.17a.49.49,0,0,0-.47-.23,5.14,5.14,0,0,1-2.26-.21c-.36.33-.5.82-.3,1.06A8.36,8.36,0,0,0,247.69,114.17Z" style="fill:#407BFF"></path><path d="M246.06,113.64l-.68-.15C245.72,113.34,246,113.41,246.06,113.64Z" style="fill:#407BFF"></path><path d="M248.29,115.23a.47.47,0,0,0,0-.55.53.53,0,0,0-.55-.2l-1.57.51a3.74,3.74,0,0,1-1.62.31c-.29.44-.3.92,0,1.14A9.1,9.1,0,0,0,248.29,115.23Z" style="fill:#407BFF"></path><path d="M248,116.27c0-.18.07-.39.11-.57a11.48,11.48,0,0,1-3.55,1.12c-.14.29-.19.67,0,.77C245.45,118,246.88,117,248,116.27Z" style="fill:#407BFF"></path><path d="M245.34,118.07a7.84,7.84,0,0,0,2.35-1.14l0,.1a2.35,2.35,0,0,1-1.14.93A1.64,1.64,0,0,1,245.34,118.07Z" style="fill:#407BFF"></path><path d="M242.05,117.91a.11.11,0,0,0,.13,0l.08-.06.27-.24a.24.24,0,0,0,.06-.08s0,0,0,0l-.34-.19a.2.2,0,0,0-.3.18A.77.77,0,0,0,242.05,117.91Z" style="opacity:0.2"></path><path d="M243.26,117.89a2,2,0,0,0-.43-.17,1.86,1.86,0,0,1-.27.22.46.46,0,0,1-.29.1.74.74,0,0,0,.37.39c.15-.14.35-.31.5-.46S243.19,117.9,243.26,117.89Z" style="opacity:0.2"></path><path d="M243.86,118.36a.58.58,0,0,0-.49-.23,1,1,0,0,1-.62.41,1.8,1.8,0,0,0,.5.35A1.74,1.74,0,0,0,243.86,118.36Z" style="opacity:0.2"></path><path d="M244.27,119.26a1.43,1.43,0,0,1-.76-.29,3.77,3.77,0,0,0,.57-.56,1.1,1.1,0,0,1,.78.13A1.83,1.83,0,0,1,244.27,119.26Z" style="opacity:0.2"></path><path d="M244.94,119.46a3.52,3.52,0,0,0,1.13-.93h-.82s0,.09,0,.11a2.76,2.76,0,0,1-.77.63A1.6,1.6,0,0,0,244.94,119.46Z" style="opacity:0.2"></path><path d="M245.91,119.68a2.78,2.78,0,0,0,1-.68,2.38,2.38,0,0,0,.56-1.06,2.53,2.53,0,0,1-1,.61,3,3,0,0,1-1.21.94A2.13,2.13,0,0,1,245.91,119.68Z" style="opacity:0.2"></path><path d="M248.15,117.33l-.42.41a4.24,4.24,0,0,1-.39,1,2.22,2.22,0,0,1-.81.83,1.61,1.61,0,0,0,.94-.48,2.27,2.27,0,0,0,.51-.88C248.08,117.86,248.14,117.31,248.15,117.33Z" style="opacity:0.2"></path><path d="M281.5,121.14a8.64,8.64,0,0,1,4.87,4.64,6.57,6.57,0,0,1-.89,6.63,6.74,6.74,0,0,1,2.47,3.8c.4,2-.24,4.91-2.25,5.27-1.33.24-3,.39-3.7,1.51a38.62,38.62,0,0,1-10.15,10.28,34.53,34.53,0,0,0,3.77-15.16,6.76,6.76,0,0,1-2.6-5.72c-2.81.49-5.16-2-6.56-4.44-1,1.24-3.38,1.36-4.68,1a4.91,4.91,0,0,1-2.92-2.19,4.94,4.94,0,0,1-5.84,1.06c-.45-.24-.93-.36-1.18-.81a2,2,0,0,1-2.7,0,3,3,0,0,1-.69-2.81,6.39,6.39,0,0,1,1.48-2.6c3.9-4.57,10-6.54,15.92-7.62a11.66,11.66,0,0,1,4.28-.19,4.28,4.28,0,0,1,3.25,2.52,10.58,10.58,0,0,1,6,.19,4.5,4.5,0,0,1,2.4,1.7C282.28,119.05,282.31,120.55,281.5,121.14Z" style="fill:#263238"></path><path d="M289.73,118.24s0,3.67-4.55,5.93c-2.27,1.14-3.44.72-4,0a1.93,1.93,0,0,1,0-2.44c1.16-1.45,3.48-4.58,3.12-5.71Z" style="fill:#407BFF"></path><path d="M289.73,118.24s0,3.67-4.55,5.93c-2.27,1.14-3.44.72-4,0a1.93,1.93,0,0,1,0-2.44c1.16-1.45,3.48-4.58,3.12-5.71Z" style="opacity:0.2"></path><path d="M282.14,120.47s-1.11,4.09,5.23,3.33c4-.48,1.47,1.3-.1,1.48-7.64.89-7.19-2.45-5.83-3.91Z" style="fill:#407BFF"></path><path d="M268.66,122.52a3.81,3.81,0,0,0,2.18,1.62,10.37,10.37,0,0,0,2.64.51l.76-.64.43-.36c.6-.51,1.22-1,1.84-1.49l.44-.33a24.07,24.07,0,0,1,2-1.37l.28-.18c.5-.3,1-.58,1.52-.84q.52-.25,1.08-.48l.2-.08a12.77,12.77,0,0,1,1.48-.48c.31-.09.62-.16.93-.22l.27-.05a12.58,12.58,0,0,1,2.44-.22h.26a10.08,10.08,0,0,1,2.34.33c-1.75-3.54-3.87-4.62-6.54-4.81h0c-.24,0-.47,0-.71,0h0c-.64,0-1.31,0-2,.07h-.07l-.82.1a16.67,16.67,0,0,0-1.75.38l-.9.28a21.48,21.48,0,0,0-2.55,1.06l-.75.4a19.12,19.12,0,0,0-2.17,1.39l-.55.44a12.48,12.48,0,0,0-1.6,1.56,8.44,8.44,0,0,0-.54.72l0,0A2.68,2.68,0,0,0,268.66,122.52Z" style="fill:#407BFF"></path><path d="M269.41,119.86c1.89-2.77,7.35-5.71,10.69-6s6.53-.35,8.45,3.53c-2.4-.65-6,.33-8.23,1.44a40.78,40.78,0,0,0-7,5,9.12,9.12,0,0,1-2.2-.43,3.19,3.19,0,0,1-1.82-1.35A2.23,2.23,0,0,1,269.41,119.86Z" style="opacity:0.2"></path><path d="M268.74,119.84l.53.25a20.76,20.76,0,0,1,4.5,3.45l.47.47.43-.36c-.08-.22-.17-.44-.26-.64a6,6,0,0,0-4.45-3.85c-.22,0-.44-.06-.65-.08a8.44,8.44,0,0,0-.54.72Z" style="fill:#407BFF"></path><path d="M270.91,117.52a5.38,5.38,0,0,1,.55.24,16.38,16.38,0,0,1,4.64,3.91l.41.49.44-.33c-.07-.23-.14-.44-.22-.64a6,6,0,0,0-4.51-4,5.36,5.36,0,0,0-.76-.11Z" style="fill:#407BFF"></path><path d="M273.63,115.69q.27.12.54.27a15.74,15.74,0,0,1,4.36,4l.4.53.28-.18c-.06-.23-.13-.45-.2-.66h0a6.17,6.17,0,0,0-3.93-4.14,6.06,6.06,0,0,0-.7-.19Z" style="fill:#407BFF"></path><path d="M276.93,114.23l.5.28a14.81,14.81,0,0,1,4,3.88l.39.57.2-.08c-.06-.22-.12-.44-.18-.64a6.26,6.26,0,0,0-3.39-4c-.21-.09-.41-.18-.61-.25Z" style="fill:#407BFF"></path><path d="M279.58,113.57c.22.1.43.21.64.33a12.31,12.31,0,0,1,3.74,3.59l.06.09c.16.22.29.42.4.6l.27-.05a6.17,6.17,0,0,0-.2-.65,5.85,5.85,0,0,0-.27-.67,6.09,6.09,0,0,0-3-3,8,8,0,0,0-.87-.36h0Z" style="fill:#407BFF"></path><path d="M282.48,113.4a6.49,6.49,0,0,1,.87.45h0a10.93,10.93,0,0,1,3.15,3.09l.2.29c.17.25.31.48.43.68h.26a6.56,6.56,0,0,0-.21-.67s0,0,0,0a6.11,6.11,0,0,0-2.69-3.19,7.39,7.39,0,0,0-1.29-.59h0C283,113.41,282.72,113.4,282.48,113.4Z" style="fill:#407BFF"></path><path d="M280,112.91h.08" style="fill:none"></path><path d="M285.2,118.31a1,1,0,0,1,.82-.06,8,8,0,0,0,3.06.71,1.08,1.08,0,0,1-.69,1.25A8.4,8.4,0,0,1,285.2,118.31Z" style="fill:#407BFF"></path><path d="M287.77,118.41l1,.12A.77.77,0,0,0,287.77,118.41Z" style="fill:#407BFF"></path><path d="M283.43,119.17a.89.89,0,0,1,.6-.56c.29-.07.63-.16.86,0l1.46,1.18a3.8,3.8,0,0,0,1.72,1A1.39,1.39,0,0,1,287,122,7.87,7.87,0,0,1,283.43,119.17Z" style="fill:#407BFF"></path><path d="M282.77,120.37c.13-.2.3-.44.42-.64a10.14,10.14,0,0,0,3.27,2.66c-.1.36-.42.77-.79.77C284.28,123.17,283.43,121.6,282.77,120.37Z" style="fill:#407BFF"></path><path d="M284.3,123.34a5.83,5.83,0,0,1-1.78-2.16l0,.12a1.57,1.57,0,0,0,.5,1.43A1.81,1.81,0,0,0,284.3,123.34Z" style="fill:#407BFF"></path><path d="M288.55,124.6c-.07,0-.16,0-.21,0a.16.16,0,0,1,0-.09l-.1-.37a.12.12,0,0,1,0-.1s.06,0,.1,0l.62,0c.27,0,.38.12.2.31A1.82,1.82,0,0,1,288.55,124.6Z" style="opacity:0.2"></path><path d="M287,124.05a4.19,4.19,0,0,1,.71,0,2,2,0,0,0,.11.35.46.46,0,0,0,.28.23,2.1,2.1,0,0,1-.87.24c0-.22-.12-.47-.16-.69S287.12,124.08,287,124.05Z" style="opacity:0.2"></path><path d="M285.83,124.27a1.31,1.31,0,0,1,.83,0,.72.72,0,0,0,.37.7,3.91,3.91,0,0,1-1,.14A1.19,1.19,0,0,1,285.83,124.27Z" style="opacity:0.2"></path><path d="M284.44,125a2.83,2.83,0,0,0,1.23,0,2.21,2.21,0,0,1-.16-.81,1.73,1.73,0,0,0-1.09-.2A1.38,1.38,0,0,0,284.44,125Z" style="opacity:0.2"></path><path d="M283.43,124.92a2.36,2.36,0,0,1-.46-1.42l1,.36a.67.67,0,0,0-.06.12,1.88,1.88,0,0,0,.33,1A3.4,3.4,0,0,1,283.43,124.92Z" style="opacity:0.2"></path><path d="M282.06,124.72a1.78,1.78,0,0,1-.56-1.1,2.1,2.1,0,0,1,.33-1.31,1.72,1.72,0,0,0,.67,1,2,2,0,0,0,.56,1.47A4.71,4.71,0,0,0,282.06,124.72Z" style="opacity:0.2"></path><path d="M281.6,121.4c0,.2.07.39.1.59a4.52,4.52,0,0,0-.42,1.13,1.48,1.48,0,0,0,.19,1.18,1.2,1.2,0,0,1-.68-.87,2,2,0,0,1,.21-1.11A7.23,7.23,0,0,1,281.6,121.4Z" style="opacity:0.2"></path><path d="M278.55,143.55a6.37,6.37,0,0,1-4.5,2.5c-2.5.34-3-2.19-1.79-4.62,1.13-2.15,7.08-5.92,9.28-5.15C281.54,136.28,280.14,141.5,278.55,143.55Z" style="fill:#ff887b"></path><path d="M275.48,144a4.52,4.52,0,0,0,2.11-3,4.07,4.07,0,0,1,.19-.67,6.53,6.53,0,0,1,1.21-2.23,5.52,5.52,0,0,0-2.66,2.14,1.7,1.7,0,0,1-.78,1.52.84.84,0,0,1-1.15-.11c-.11.34-.33.7-.45,1a1.15,1.15,0,0,0,0,1c.2.3,1.24.58,1.45.3Z" style="opacity:0.2;isolation:isolate"></path><path d="M251.66,229c.06.59.38,1,.81,1s.75-.51.74-1.09-.39-1-.81-1A1,1,0,0,0,251.66,229Z" style="opacity:0.2;isolation:isolate"></path></g><path d="M272.87,256.51c.35,10.53.82,23.8.82,23.8a85.47,85.47,0,0,1-28.52,1.9c-4.9-.59-14-.1-18.36,1.2l-14.7,4.38s8.13,11.09,14.49,18c.83.9,3.43.22,5.87,6,4.39,10.52-28.95,25.23-28.95,25.23l.1,3a4.91,4.91,0,0,1-2.53,4.47l-14.36,8-5.07,3s1.57-11.41,6.28-18.44a34.72,34.72,0,0,1-8.15-1.53c1.54.23,6.25-.17,7.29-1.34a7.64,7.64,0,0,1-4.31-2.09c7.95.51,9-.8,16.32-3.89l1.55-1.08.33-.22.15-.12.16-.1h0c5.95-4.2,12.24-8.87,14.86-10.84a1.11,1.11,0,0,0,0-1.83c-4.22-2.83-17.65-12.08-26.27-20.74a15.37,15.37,0,0,1-5.75-4.53,6.55,6.55,0,0,0,1.3,4.25c-3.41-3.4-4.9-7.79-3.1-12.71a10.44,10.44,0,0,1,.35-1.82c-2.33,1.32-4.62,2.59-7,4C177,279,180,274.79,183.26,273c-2.07.8-2.29.06-4.36.86a51.78,51.78,0,0,1,12.61-6.55c6.83-5.22,16.74-9.93,27.3-13.81a12.86,12.86,0,0,1,8.06-4.46c-.88-.22-1.36-.39-2.24-.61,1.44-.92,3.3-.69,5-.81s3.7-1.1,3.76-2.81a4.12,4.12,0,0,1,.2,3.88l3-.83c3.4-.93,6.73-1.76,9.91-2.46.18.37.38.75.56,1.12a8.05,8.05,0,0,0,.35-1.32l2-.43a20.2,20.2,0,0,1,1.42,4c.15.67.82,1.24,1.08,1.86a24.74,24.74,0,0,1,3.2-6.22c.2-.29.4-.58.62-.85l.83-.14a6.18,6.18,0,0,0-.07.62,7.29,7.29,0,0,0,.64,3.87,23.34,23.34,0,0,0,5.06-5.25c.51-.06,1-.1,1.47-.14,0,1,.07,2,.06,3a17.18,17.18,0,0,0,4.08-3.13c3,0,4.69.53,4.71,1.55C272.47,244.77,272.65,250.14,272.87,256.51Z" style="fill:#407BFF"></path><path d="M272.87,256.51c.35,10.53.82,23.8.82,23.8a85.47,85.47,0,0,1-28.52,1.9c-4.9-.59-14-.1-18.36,1.2l-14.7,4.38s8.13,11.09,14.49,18c.83.9,3.43.22,5.87,6,4.39,10.52-28.95,25.23-28.95,25.23l.11,3.14a4.66,4.66,0,0,1-2.41,4.24l-14.49,8-5.07,3s1.57-11.41,6.28-18.44a34.72,34.72,0,0,1-8.15-1.53c1.54.23,6.25-.17,7.29-1.34a7.64,7.64,0,0,1-4.31-2.09c7.95.51,9-.8,16.32-3.89l1.55-1.08.33-.22.15-.12.16-.1h0c5.95-4.2,12.24-8.87,14.86-10.84a1.11,1.11,0,0,0,0-1.83c-4.22-2.83-17.65-12.08-26.27-20.74a15.37,15.37,0,0,1-5.75-4.53,6.55,6.55,0,0,0,1.3,4.25c-3.41-3.4-4.9-7.79-3.1-12.71a10.44,10.44,0,0,1,.35-1.82c-2.33,1.32-4.62,2.59-7,4C177,279,180,274.79,183.26,273c-2.07.8-2.29.06-4.36.86a51.78,51.78,0,0,1,12.61-6.55c6.83-5.22,16.74-9.93,27.3-13.81a12.86,12.86,0,0,1,8.06-4.46c-.88-.22-1.36-.39-2.24-.61,1.44-.92,3.3-.69,5-.81s3.7-1.1,3.76-2.81a4.12,4.12,0,0,1,.2,3.88l3-.83c3.4-.93,6.73-1.76,9.91-2.46.18.37.38.75.56,1.12a8.05,8.05,0,0,0,.35-1.32l2-.43a20.2,20.2,0,0,1,1.42,4c.15.67.82,1.24,1.08,1.86a24.74,24.74,0,0,1,3.2-6.22c.2-.29.4-.58.62-.85l.83-.14a6.18,6.18,0,0,0-.07.62,7.29,7.29,0,0,0,.64,3.87,23.34,23.34,0,0,0,5.06-5.25c.51-.06,1-.1,1.47-.14,0,1,.07,2,.06,3a17.18,17.18,0,0,0,4.08-3.13c3,0,4.69.53,4.71,1.55C272.47,244.77,272.65,250.14,272.87,256.51Z" style="opacity:0.1;isolation:isolate"></path><path d="M201.28,326.65h0l-.16.1Z" style="fill:#407BFF"></path><path d="M232,258.69a14.54,14.54,0,0,0-10,2.95,10.16,10.16,0,0,0,5.55-.71c-1.59,2.71-5,3.73-8.06,4.29s-5.94,1.1-8.27,3.22l4.8-1.25a26,26,0,0,1-10.82,5.21,23,23,0,0,0,7.33-.95c-2.94,2.68-7.24,5.05-11.09,4a4.75,4.75,0,0,0-5.67,6.26c-1.67-.86-1.9-3.73-1.59-5.58-1.62.15-3.41,1.89-2.75,3.37-1.08-1.87-.37-4.37,1.12-5.93a12.9,12.9,0,0,1,5.64-3,12.75,12.75,0,0,0-5.79.44.77.77,0,0,1-1,.35,12.62,12.62,0,0,1,7-4,44.43,44.43,0,0,1,8.75-1.52c-1.81-.13-3.91-.53-5.73-.65,4.54-2.11,10.36-3.91,15.36-3.66-1.1-.17-2.67-.11-3.76-.28,3.27-1.16,7.24-2.28,10.52-3.43a7,7,0,0,1-4-.07,19,19,0,0,1,9-4.63c-.57.31-1.14,1.54-1.44,2.12s-.09,1.47.55,1.61a2.38,2.38,0,0,0,1.32-.33C230.31,256,231.72,257.28,232,258.69Z" style="fill:#fff;opacity:0.1"></path><path d="M203.52,337.08l.11,3.2a4.59,4.59,0,0,1-2.34,4.16l-19.63,11s.71-10.27,6.28-18.44a8.48,8.48,0,0,0,4.21-.14,13.88,13.88,0,0,1-2.32,2.55,11.41,11.41,0,0,0,5.73-2.67,1.92,1.92,0,0,1-.05,2c-.68,1,2.55-2.08,2.55-2.08Z" style="fill:#263238"></path><path d="M183.35,354.52a28.57,28.57,0,0,1,2.07-10.17l1.31,8.2Z" style="opacity:0.2"></path><path d="M230.68,315.56a11.74,11.74,0,0,1-5.24,7.44,3.7,3.7,0,0,0,.91-2.38,8.86,8.86,0,0,0-5.51,4,14.36,14.36,0,0,1,1.1-4.66c-1.22.78-2.52,1.07-3.41,2.22a3.4,3.4,0,0,1,1.29-3.07c.87-.77,1.93-1.31,2.8-2.08a6.61,6.61,0,0,0,2.28-6.14,4.74,4.74,0,0,1-3.07,3c2.31-3.68-1-7.2-3.89-9.34,1.18.86,1.05,1.35.44,2.67-1-.66-1.3-1.85-2.37-2.47a19.65,19.65,0,0,0-7-2.76c-6.73-.89-12.58-5.38-16.15-11.14a15.49,15.49,0,0,0,7.12,3,21.25,21.25,0,0,1-3.52-3.51c2.33,1.25,5.56,2.19,8.06,1.35a4.84,4.84,0,0,1-3.22-1.36,30.19,30.19,0,0,0,8,.21c0,.19,0,.11.18.08.07.13-.2-.09-.13,0a3.4,3.4,0,0,1-1.8-1.43,30.22,30.22,0,0,1,6,3.31c.64.45,2.43.42,3.27.78a13.11,13.11,0,0,1,3.36,2.18,19.06,19.06,0,0,1,3,3.2,7.53,7.53,0,0,0-3.45-.75,19.1,19.1,0,0,1,5,6.63c.62,1.27,1.31,3.42,2.64,2.95,3.18-1.12,5.2,1.72,5.47,2.71a2.77,2.77,0,0,0-2.53-.48c1.94,2.71,1.92,6.29.78,9.43C230.92,317.85,230.78,316.8,230.68,315.56Z" style="fill:#407BFF"></path><path d="M288.2,250l-.51,8.29c-5.82,1.22-44.09,24.55-44.09,24.55l-10.23-29.37a12.29,12.29,0,0,1,0-8.12l1.77-5.07-.36-14.26a27.51,27.51,0,0,0,3.73,9.47c-.13-1.08-.34-2.23-.48-3.31a25.54,25.54,0,0,0,4.46,7.84c-.09-1.3-.42-2.35-.51-3.65.78,1.56,1.56,3.11,2.33,4.67l2.74,5.46c.07-.22.15-.44.21-.66v0a4.42,4.42,0,0,0,.13-.61,7.73,7.73,0,0,0,0-3,9.71,9.71,0,0,0-.81-2.32c.58.85,1.13,1.72,1.63,2.62.24.41.47.83.69,1.25s.33.68.49,1v0q.23.48.42,1c.13.3.24.6.35.91a1.55,1.55,0,0,1,.08.23c.08.22.16.44.22.67.13.41.24.83.34,1.25.15.67.82,1.24,1.08,1.86a24.41,24.41,0,0,1,3.2-6.22c.2-.29.4-.58.62-.85.36-.49.73-1,1.12-1.42a7.46,7.46,0,0,0-.29,1.28,6.18,6.18,0,0,0-.07.62,7.29,7.29,0,0,0,.64,3.87,25.68,25.68,0,0,0,4.08-3.93c.2-.24.39-.49.57-.74s.37-.51.54-.78a13.22,13.22,0,0,0,1.3-2.47c0,.7,0,1.41,0,2.12,0,1.13.07,2.25.07,3.37a15.91,15.91,0,0,0,2.15-1.41l.33-.26.58-.49a13.4,13.4,0,0,0,1-1c.28-.28.55-.57.8-.87s.51-.6.75-.91a20.74,20.74,0,0,0,2.28-3.69,13.17,13.17,0,0,1-.22,3.13,13.71,13.71,0,0,1-.49,1.91,12,12,0,0,1,1-2,16.31,16.31,0,0,1,5.56-5.3c-.58,1.42-1,2.8-1.59,4.22,0,0,0,0,0,.05l.1-.07a16.17,16.17,0,0,0,5.32-6.43c-.16,1.6-.93,4.25.14,3.76s1.48-2.21,2.41-4.74c.16,1.25.77,2.56,1.84,2.5,0,0,1.53-.79.87-3.42a33.73,33.73,0,0,1,1.12,4.54,45.05,45.05,0,0,1,.64,7.88l0,.36C288.38,245.54,288.34,247.79,288.2,250Z" style="fill:#407BFF"></path><path d="M276,238.83l-.1.07s0,0,0-.05Z" style="fill:#407BFF"></path><path d="M234.64,255.23a5.83,5.83,0,0,0,.23-5,8.13,8.13,0,0,1,1.92,5.52,3.48,3.48,0,0,0,.93-2.4,39.72,39.72,0,0,1,0,13.1c.84-1.81,1.75-3.4,2.59-5.22l-.07.21c.67,3.16-1.45,6.81-.7,9.95a12.12,12.12,0,0,1,1.93-3.1,10.24,10.24,0,0,0,.16,5.49c.28-.92.63-1.85.92-2.77a37,37,0,0,0,2,9.12c-2.81-2.24-6.73-2.82-9.38-5.24s-3.5-6-3.28-9.47A25,25,0,0,1,234.64,255.23Z" style="fill:#407BFF"></path><path d="M234.64,255.23a5.83,5.83,0,0,0,.23-5,8.13,8.13,0,0,1,1.92,5.52,3.48,3.48,0,0,0,.93-2.4,39.72,39.72,0,0,1,0,13.1c.84-1.81,1.75-3.4,2.59-5.22l-.07.21c.67,3.16-1.45,6.81-.7,9.95a12.12,12.12,0,0,1,1.93-3.1,10.24,10.24,0,0,0,.16,5.49c.28-.92.63-1.85.92-2.77a37,37,0,0,0,2,9.12c-2.81-2.24-6.73-2.82-9.38-5.24s-3.5-6-3.28-9.47A25,25,0,0,1,234.64,255.23Z" style="opacity:0.1;isolation:isolate"></path><path d="M251.72,146.58c0,.85-.51,1.54-1.07,1.51s-1-.74-1-1.59.5-1.53,1.07-1.51S251.76,145.73,251.72,146.58Z" style="fill:#263238"></path><path d="M168.4,130.47c.59.73,43.68,10,43.68,10l38,6.8a.74.74,0,0,0,.83-.51.62.62,0,0,0-.33-.85c-3.27-1.84-36.76-11.75-37.12-11.85l-3.37-.83-1.82-.44-2.79-.67h0l-1.82-.43h0l-2.79-.67-1.82-.44-2.79-.67-1.82-.45-2.8-.67-1.8-.44c-9.92-2.39-19.24-4.64-19.4-4.69C169.38,123.32,165.18,126.45,168.4,130.47Z" style="fill:#407BFF"></path><path d="M168.4,126.6c-.34,1.15-.15,2.23.44,2.41s1.35-.62,1.69-1.78.15-2.23-.44-2.4S168.75,125.44,168.4,126.6Z" style="fill:#263238"></path><path d="M171.23,131.8a.49.49,0,0,1-.37-.16.5.5,0,0,1,0-.71c3.65-3.24,2.06-6.26,2-6.39a.5.5,0,0,1,.87-.49s2.07,3.83-2.2,7.63A.5.5,0,0,1,171.23,131.8Z" style="fill:#263238"></path><path d="M173.36,132.44a.51.51,0,0,1-.37-.17.49.49,0,0,1,0-.7c3.65-3.25,2.06-6.26,2-6.39a.5.5,0,0,1,.2-.68.49.49,0,0,1,.67.19s2.07,3.83-2.19,7.62A.5.5,0,0,1,173.36,132.44Z" style="fill:#263238"></path><path d="M182.67,134.3a.49.49,0,0,1-.33-.87c3.64-3.24,2-6.26,2-6.39a.5.5,0,0,1,.88-.49s2.07,3.83-2.2,7.63A.5.5,0,0,1,182.67,134.3Z" style="fill:#263238"></path><path d="M184.8,134.94a.46.46,0,0,1-.37-.17.48.48,0,0,1,0-.7c3.67-3.27,2-6.36,2-6.39a.5.5,0,1,1,.87-.49s2.07,3.83-2.2,7.63A.5.5,0,0,1,184.8,134.94Z" style="fill:#263238"></path><path d="M208.29,132.75a1,1,0,0,0,1.82.44Z" style="fill:#263238"></path><path d="M203.68,131.64a1,1,0,0,0,.71.84,1,1,0,0,0,1.11-.41Z" style="fill:#263238"></path><path d="M199.07,130.52a1,1,0,0,0,1.82.44Z" style="fill:#263238"></path><path d="M194.46,129.4a1,1,0,0,0,.71.84,1,1,0,0,0,1.11-.39Z" style="fill:#263238"></path><path d="M189.86,128.29a1,1,0,0,0,1.8.44Z" style="fill:#263238"></path><path d="M278.81,166.2l-29.29,13.42-14.15-30.83-6.26,4.5s8.83,40.75,18.16,40.63,40.8-9.72,41.85-14C292.8,164.82,278.81,166.2,278.81,166.2Z" style="fill:#ff887b"></path><path d="M236.75,151.8s6.93-9.52,5.62-11.73a17.65,17.65,0,0,0-4.25-4.76,3.73,3.73,0,0,0-4.82.15l-2.52,2.25a3.74,3.74,0,0,0-.64,4.85l.08-.14a2.9,2.9,0,0,1-.16,3.39h0a7.45,7.45,0,0,0-1.51,5.93l.71,2.19Z" style="fill:#ff887b"></path><g style="opacity:0.1"><path d="M289.12,179.9c-1.05,4.3-32.53,13.9-41.85,14-8.64.11-16.84-34.8-18-40v0l-.7-2.15a7.2,7.2,0,0,1-.12-1.46,7.42,7.42,0,0,1,1.63-4.46,2.92,2.92,0,0,0,.16-3.4l-.08.14a3.76,3.76,0,0,1,.63-4.85l2.54-2.25a3.71,3.71,0,0,1,4.81-.15,17.65,17.65,0,0,1,4.25,4.76c1.28,2.16-5.29,11.26-5.62,11.72l12.76,27.83,29.3-13.43S292.81,164.83,289.12,179.9Z" style="fill:#fff"></path></g><path d="M235.17,173.93a64.24,64.24,0,0,0,8.42,22.83,2.23,2.23,0,0,1,.44-2.56c-.07.82.77,1.39,1.52,1.74a22.67,22.67,0,0,0,9.06,2.06c-.33-.91-1-1.75-1.35-2.66a21.52,21.52,0,0,0,8.51-4.08c-3.84.63-9.62.57-12.84-1.59a5.89,5.89,0,0,0,2.77.07c-1.11.26-7.42-4.47-11.75-13.56.21,1.66.43,3.31.64,5C241.05,183.89,236,175.84,235.17,173.93Z" style="fill:#407BFF"></path><path d="M274.42,286.64a4.92,4.92,0,0,0-.41.31,15.47,15.47,0,0,1,.5,8.68c.16-1.84-.82-2.12-2-3.55.52,2.67-.39,6.27-2.55,8-1.44,13.74.11,34,3.09,42.72a18.94,18.94,0,0,1,.21,11.49L260.65,384.7a39.82,39.82,0,0,0-3,15.12l-5.21.79-2.62,10.25a4.59,4.59,0,0,1-4.42,3.45l-25.28.13,17.86-15.8s-7.73-.15-6.33-.94a29.6,29.6,0,0,0,6.18-4.8,6.81,6.81,0,0,1-3.64-1c6.59-2.36,12.48-10.61,12.55-10.61a113.42,113.42,0,0,0,9-18.29c1.5-2.49,1-12.36-1.62-13.59a30.79,30.79,0,0,1-11.34-9.65,28.14,28.14,0,0,0,2.25,6.42c-2.93-3.36-4.26-7.84-5.52-12.12,0,2.69.22,5.57-1.14,7.89-2.91-5.29-2.83-12.56-1.21-18.65-3-16.75-4.51-43,8.86-63.55.95-1.46,41.75-1.45,41.75-1.45S293.32,274.8,274.42,286.64Z" style="fill:#407BFF"></path><path d="M267.5,345.61c-1-1.67-2.6-3.69-4.44-4.29a7.83,7.83,0,0,1,1.59,4.05,3,3,0,0,0-2.23-2.42,26.13,26.13,0,0,0-3.43-.58,4.74,4.74,0,0,1-3-2.23,9.26,9.26,0,0,0,3.39,4.07c-3.3,0-6.66-2.68-7.94-5.72a7,7,0,0,0,3.86,6.15A9,9,0,0,1,246,339a3.55,3.55,0,0,0,.48,3.47,18,18,0,0,0,8.28,5.8,13.35,13.35,0,0,1,2.46,1,3,3,0,0,1,1.53,2.05c.5-1,1.2-1.62,1-2.7a17.53,17.53,0,0,1,.84,7.33A27,27,0,0,0,264,347.8a6.62,6.62,0,0,1,.72,6.89C266.68,352.22,267.4,348.76,267.5,345.61Z" style="opacity:0.1;isolation:isolate"></path><path d="M270.27,272.52c-.48,2.21-2.29,3.88-4.2,5.09s-4,2.13-5.71,3.63-2.92,3.82-2.32,6a4.29,4.29,0,0,1,4.57-2.62,15.33,15.33,0,0,0-3.72,7.47l1.83-1.65a23.3,23.3,0,0,1-7.58,11.66,5.81,5.81,0,0,0,5.62-2.94l-2.34,7.41a20.45,20.45,0,0,0,6.95-13.26,5.43,5.43,0,0,1,.23,3.52c1.28-.94,1.64-2.71,1.58-4.29a36.23,36.23,0,0,1-.33-4.75c.15-1.58,1-3.27,2.59-3.63-.8.29-2,.2-2.83.49,1.18-2.53,4.54-3.53,5.61-6.11A10.13,10.13,0,0,0,270.27,272.52Z" style="fill:#fff;opacity:0.1"></path><path d="M253.25,398a4.26,4.26,0,0,1-3.56-.67,2.87,2.87,0,0,1-2.57.87c.13-.7.06-1.13.18-1.84a5.33,5.33,0,0,1-3.07,1.74c.29-.88.58-1.53.87-2.41a8.31,8.31,0,0,1-3.94.62c.51-.5,1.24-1.35,1.75-1.84l-5.14.68c1.11-.92,2.53-2.22,3.64-3.14a3.55,3.55,0,0,1-2.4-.63,8.07,8.07,0,0,0,3.94-2.52c-.74.27-.82,2-.4,2.64a1.4,1.4,0,0,0,2,.26c-.5-.14-.85.64-.63,1.12a1.28,1.28,0,0,0,1.34.59,5.68,5.68,0,0,0,1.47-.55,2.21,2.21,0,0,1,1.53-.19c-.14.44-.74.89-.88,1.33a4.82,4.82,0,0,0,3.91-.79c-1.13.26-1.36,1.93-.65,2.85A4.63,4.63,0,0,0,253.25,398Z" style="fill:#fff;opacity:0.1"></path><path d="M257.54,338.5c.7-4.14-1.69-8.73-4.89-11.45,1.32,1.54,1.45,2.7,1.35,4.73-.75-1.47-2.44-2.12-3.88-2.92s-3.26-2.52-2.84-4.11a2.12,2.12,0,0,0,.31,3.33,6.78,6.78,0,0,1-3.47-4,20.23,20.23,0,0,1-.93-5.37q-.54,3.1-1.09,6.21c-1.28-3.27-.5-7.94,1.05-11.09-1.77.69-3.25,2.32-2.73,4.15a9.66,9.66,0,0,1,2.81-11.06l-.27-1a2.82,2.82,0,0,1,2,3.84c1-.84,1.74-1.47,2.71-2.31a9.32,9.32,0,0,0-.82,8.47,2.94,2.94,0,0,1,1.83-2.86,7.57,7.57,0,0,0,2.77,9.35c0,.15-.36-.68-.39-.52a5.23,5.23,0,0,1,1.54-3.28,6.39,6.39,0,0,0,1.92,7.71c.79.58,1.69,1,2.49,1.51a3.4,3.4,0,0,1,1.61,2.31C258.89,333.1,259.26,336.06,257.54,338.5Z" style="fill:#fff;opacity:0.1"></path><path d="M259.41,368.73c.9,1.13.28,2.84-.71,3.89s-2.3,1.8-3.08,3-.66,3.2.7,3.69q-2.85,3.49-5.71,7c1.28,0,1.94,1.74,1.43,2.91a6,6,0,0,1-2.83,2.49,6.76,6.76,0,0,0,6.09-6.33l-1.1-.43a60.27,60.27,0,0,0,6.83-8.6l-2.5-.66,6.06-7.62c-.29.37-.14-6,0-6.54C261.79,361.78,259.81,366.13,259.41,368.73Z" style="fill:#fff;opacity:0.1"></path><path d="M237.94,398.64l-4.63,2.48a29.15,29.15,0,0,0-9.86,8.64l-3.37,4.68,25.26-.13a4.59,4.59,0,0,0,4.42-3.45l2.64-10.25a12,12,0,0,1-3.75-.23s-2.66,3.3-3.64,3.33l1.67-3.44a11.7,11.7,0,0,1-3.48,2.43l-2,.87a21.58,21.58,0,0,0,2.39-3.11c.33-.81-3.35-1.31-3.35-1.31l-3.48,2.34Z" style="fill:#263238"></path><path d="M232.45,404.93l-2.9,9.13-5.37.23S228.51,407.92,232.45,404.93Z" style="opacity:0.2"></path><path d="M255.46,253.62a4.58,4.58,0,0,1-2.37,4c-1.37.88-3,1.34-4.42,2.09-5,2.57-7.57,8.37-7.86,14a11.33,11.33,0,0,1,5.19-6.23l-1.36,4.66a92.59,92.59,0,0,1,10.67-6.35,4.72,4.72,0,0,1-1.67,3.24,39,39,0,0,0,8.42-5.76,6,6,0,0,1-2.15,4.73,18.66,18.66,0,0,0,5.26-4.08,45.23,45.23,0,0,1,4.09-4.64c1.59-1.33,3.82-2.17,5.74-1.39a4.83,4.83,0,0,0-.44,3.62,20.43,20.43,0,0,1,1.23,3,2.65,2.65,0,0,1-.87,2.87c2.26-.94,3-2.21,3-4.66a10.62,10.62,0,0,1,3.69,7,24.72,24.72,0,0,0,1.82-5.55,12.11,12.11,0,0,1,2,6.89,13.63,13.63,0,0,0,1.92-9.46c-.26-1.77-.88-3.48-1.15-5.25a7,7,0,0,1,.87-5.17,13.5,13.5,0,0,0-3.59,7.74,10,10,0,0,1-.09-6,15.78,15.78,0,0,0-2.37,5.13,7.4,7.4,0,0,1,1.16-8.09,8.83,8.83,0,0,1-3.8,2.76c-1.28.43-2.62.64-3.92,1a17.71,17.71,0,0,0-6.77,3.59c.66-1.48,1.47-2.76,2.13-4.25a19.78,19.78,0,0,0-5.83,5.29,9.8,9.8,0,0,0,.87-3.5,9.73,9.73,0,0,1-4.88,4A29.47,29.47,0,0,1,261.4,255a11.33,11.33,0,0,1-6.32,4.48C256.49,257.77,256.94,255.25,255.46,253.62Z" style="fill:#fff;opacity:0.1"></path><path d="M197,328.7a27.89,27.89,0,0,1-8.34,2.39l3,.52c-.86.45-1.72,1.37-2.58,1.82a9.26,9.26,0,0,0,3.31.43c-.22.42-.69.94-.91,1.36l3.25-.92a7,7,0,0,1,4.77-.78,2.8,2.8,0,0,1-2.72-1.75C196.38,330.67,196.06,329.43,197,328.7Z" style="fill:#fff;opacity:0.1"></path></g></svg>