<svg xmlns="http://www.w3.org/2000/svg" viewBox="0 0 500 500"><g id="Mountains"><g id="mountains"><g id="mountains"><path d="M61.74,287.78l48.74-55.91a4.87,4.87,0,0,1,6.84,0l17.07,19.58,43.46-58.35c1.6-2.14,5.64-2.11,7.17.06l35.42,49.25,27.7-30.33c1.45-1.92,5-2.11,6.78-.37L271.66,228l37.19-49.21c1.63-2.16,5.74-2.07,7.22.15l47.88,72,23.66-30.53c1.83-2.36,6.35-2.21,7.91.25l42.74,67.21v51.83l-376.52-.14Z" style="fill:#f0f0f0"></path><path d="M396,226.49a4.51,4.51,0,0,0-4.17-.3l-3.7,1.64a4.54,4.54,0,0,1-4.21-.34l-1.21-.83,4.92-6.34c1.83-2.36,6.35-2.21,7.91.25l5.63,8.9a4.21,4.21,0,0,1-1.59-.61Z" style="fill:#fafafa"></path><path d="M254.92,211.71l7,6.78-2.37,2.08a3.44,3.44,0,0,1-4.35,0l-1.52-1.43a3.45,3.45,0,0,0-4.33-.08h0a3.35,3.35,0,0,1-4.59-.37l-1.17-1.57,4.56-5C249.59,210.16,253.12,210,254.92,211.71Z" style="fill:#fafafa"></path><path d="M185,193.16l13.26,18.43-1.65,2.52a3.64,3.64,0,0,1-5.4.22l-3-3.52a3.72,3.72,0,0,0-5-.23h0a3.75,3.75,0,0,1-4.9-.1l-3-3.18a3.8,3.8,0,0,0-4.44-.46l-6,3.62,12.93-17.36C179.44,191,183.49,191,185,193.16Z" style="fill:#fafafa"></path><path d="M117.32,231.87l7.62,8.73-6-2.66a2.49,2.49,0,0,0-2.64.4L114.62,240a2.48,2.48,0,0,1-3,.17l-1.4-1a2.53,2.53,0,0,0-2.85,0l-8.79,6.49h0l11.95-13.7A4.86,4.86,0,0,1,117.32,231.87Z" style="fill:#fafafa"></path><path d="M316.07,178.89l8.7,13.07-.95,1.18a4.54,4.54,0,0,1-6.07.42l-2.57-2.19a4.64,4.64,0,0,0-5.66,0L304,196a4.64,4.64,0,0,1-5.72-.06l-1.48-1.32,12-15.9C310.48,176.58,314.59,176.67,316.07,178.89Z" style="fill:#fafafa"></path><g style="opacity:0.05"><polygon points="385.38 223.2 400.61 240.84 391.66 240.84 398.31 260.16 384.21 249.32 372.32 263.93 363.95 250.85 385.38 223.2"></polygon><polygon points="308.33 179.43 298.23 215.53 314.48 229.92 300.09 239.31 316.68 272.01 271.66 227.95 308.33 179.43"></polygon><polygon points="246.87 213.47 253.01 226.31 244.82 226.31 259.54 255 236.61 240.76 226.15 250.8 220.44 242.41 246.87 213.47"></polygon><polygon points="134.39 251.45 175.25 196.59 166.96 222.69 180.92 238.22 146.47 246.19 157.55 255.76 151.73 261.29 160.7 282.02 134.39 251.45"></polygon><polygon points="110.49 231.87 117.51 248.05 108.05 247.05 106.72 268.37 93.42 251.44 110.49 231.87"></polygon></g></g></g></g><g id="Trees"><g id="Tree"><path d="M353.2,104.54c-6.74-4.71-2-10.65-3.46-17-.6-2.62-3.31-3.69-4.56-5.87-1.4-2.44-.43-4.64.74-7.09,1.81-3.77,4.85-6.9,9.23-7a6.09,6.09,0,0,1,3,.39c-.31-2-1-4.29-.27-6.41,1.06-3.17,4.14-4.8,7.21-5.32a7.63,7.63,0,0,1,5.79,1.27,14.77,14.77,0,0,1,2.59,2.19c3.08-4.36,8.55-3.55,12-.15-.15-2.14-.26-3.75.92-5.79,1.54-2.68,3.94-3.64,6.82-4.37a9.67,9.67,0,0,1,7.55,1.08,8.41,8.41,0,0,1,3.9,4.81,4.69,4.69,0,0,1,3.8-2.45c1.63-.3,3.79.8,5,1.89.48.45,2.45,2.57,2.22,4.54,4.95-5.07,14.88.69,14.68,7.46,5.13-.21,8.28,2.92,10.55,7.22,3.87,7.34-3.64,10.29-9.7,12.56,7.68,3.24.17,14.86-3.77,17.8-4.68,3.49-10.69,3.74-16.24,2.57-2.6-.54-6.23-3.27-8.76-3.15-1.86.09-1.84.85-3.25,2.49A21.57,21.57,0,0,1,388.62,113c-8.19,2.3-16.73-.17-20.41-8.28C363.09,107.15,358.54,108.27,353.2,104.54Z" style="fill:#e0e0e0"></path><path d="M442.76,166.75c2.48,3.38,7.16,1,6.66-2.85,1.94,3.48,6.53,3,9,.59,2-2,2.19-3.93,2.31-6.53,4.33,2.51,9-.57,8.94-5.46,0-4.66-3.43-13.26-8.68-14.18,2.82,1.24,7.33-.3,9.12-2.69,2-2.71,1.44-5.51.52-8.12,4.75-.15,7.95-1.93,6.83-7.09a10.62,10.62,0,0,0-8.45-8.59c2.77-.89,3-6.38-.29-6.61,9.38-8.85-2.66-21.09-13.23-18.6-3.95.92-4.87,4.74-7.56,7.83-3,3.45-6.62,6.59-9.11,10.45a64.28,64.28,0,0,0-5.59,11,76.26,76.26,0,0,0-5.61,22.54c-.47,4.88-.47,9.87-.47,14.79,0,5.37.9,11.28,4.72,15.4C434.06,170.94,442.73,171.66,442.76,166.75Z" style="fill:#ebebeb"></path><path d="M353.43,98.22c-.11,0-.74-6.67-.77-7.19a12.34,12.34,0,0,1,1.72-7.91,23,23,0,0,0,3.3-5.33c.84-2.1,1.67-4.2,3.38-5.78a12.87,12.87,0,0,1,9.37-3.17,13.67,13.67,0,0,1,9.8,4c1.9,1.93,1.66,4.77,3.18,6.56,3.74-2.82,6,.17,7.2,3.53-.42-5.57,7-4.43,10.1-2.27-.28-2-1.38-3.45-1-5.66.63-3.33,3.11-6.66,6.51-7.34s7.49,1.37,7.64,5.17c4.95-3.11,13,3,9.83,8.27,4.71,2.63,9.25,6.19,10,12.1.59,4.84-2.38,10.29-7.17,11.76,3,4,3.94,11.58,3.39,16.54-.89,8-6.74,8.46-13.29,9.09-.52,4.09,2.12,7.38.27,11.65-2.51,5.8-6.61,4-11.71,4.41,1.65,3.26.35,7.13-1.16,10.13s-2.9,4-6.33,4.55a14,14,0,0,1-6.21-.11c-.75,1.15-.62,2.5-1,3.77a13.52,13.52,0,0,1-4.3,6.11,10.34,10.34,0,0,1-8.17,2.36c-1.71-.24-4-2.73-5.64-1.82-.87.48-1.23,2.72-2.14,3.44a5.27,5.27,0,0,1-3.5.92c-3.91-.12-5.52-2-6.35-5.48-1.65,1.59-2.27,3.78-5.13,3.33-1.85-.29-3.42-1.48-3.16-3.54a10.62,10.62,0,0,1-13.17,1c-3.3-2.44-4.24-8.82-.38-11.36-2.82.07-7.89-2.67-4.4-5.69-2.91-1.31-6.71-1.17-7.37-5.28s2.51-9.15,7.17-8.77c-1.36-1.17-3.64-2-3-4.45s4-2.48,6.08-2.5c-3.3-4-3.91-11,1-14,2.37-1.42,5.23-1.67,7.92-1.65-.84-1.42-2.39-2.39-3.16-4-1.4-3-2.05-7.85-1-11C343.52,97.66,349.29,98.39,353.43,98.22Z" style="fill:#ebebeb"></path><path d="M460.87,139.27c-1.85-4.31-5.84-5.33-10.07-4.9,3.81-1,4-6.15-.32-6,3.16-.44,6.09-4.34,5.09-7.44-.84-2.58-2.9-3.93-5.32-4.73,2.92-1.1,6.08-2.55,5.73-6.21-.32-3.48-5-9.66-9-8.67a4,4,0,0,0,3.19-3.21c.15-1.15-.17-3.31-1.6-3.38,2.53,0,6.06.29,7.07-2.77.95-2.87-1.56-5.42-3.74-6.58a6.41,6.41,0,0,0,4.52-8.86c-1.92-4.34-6.13-4.78-10.32-4.91-.14-4-1.06-8-5.49-9.4-5.78-1.85-11.12,3.68-10.68,9.35-3.35-2.71-7.13-3.22-10.47-.2-3.18,2.89-1.25,7.2,1.77,9.24-2.5.2-5.16.1-6.74,2.49-.89,1.37-1.33,4.16.19,5.21-2.63.22-5.8.3-6.58,3.45-.94,3.81,2.72,5.64,4.81,7.8-3-1.9-8.43-2.53-8.2,2.46-1.31-1.74-3.55-4.27-5.69-4.94-1.56-.49-4.88-.09-5.37,1.87-1.41-.94-2.16-2.26-4.22-2.15-2.31.13-3.72,3.17-4.38,4.86a3.77,3.77,0,0,0-1.84-3.19c-1-.5-4.06-.24-4.18,1.22-1-2.38-2.64-4.45-5.48-4.39-2,0-5,1.85-5.35,3.93-.78-2.1-1.79-4.7-4.33-5.09-1.78-.28-3,1.09-4.6,1.17,2-1.55,1.55-5.1-.37-6.46,1.94-2.95-.08-7.59-4.06-6.79.48-3.36.48-6.21-2.87-8.18-3.53-2.08-9.23-.75-10.71,3.34a12.12,12.12,0,0,1-2.1-.87,7.21,7.21,0,0,0-3.8-.41A4.78,4.78,0,0,0,331.73,78c-1.64,2.06-1.5,4.29-1,6.74.44,2.23,2.41,2.91,4.24,4-2.77,3.23,2.12,5.19,4.92,4-1.48.63-2.29,4.37-.34,4.83-1.27-.38-2.06-1.12-3.47-.87s-3.42,1.09-3.16,2.89c-1.32-2.86-4.29-5.44-7.55-5.36-2.21,0-4.57,1-5.16,3.31-.19.75-.87,2.54-.06,3-1.23-.72-4.89,1.56-5.85,2.29a7.15,7.15,0,0,0-2.81,5.37c-.27,4,.84,6.6,4.92,7.42.71.15,1.95-.11,2.17.7.15.54-1.16,2.73-1.14,3.54.06,3.22,4.53,3.15,6.78,2,.2,1.3-.48,2.47-.31,3.78a7.68,7.68,0,0,0,3.28,4.84c3,2.15,7.27,1.58,10.46.33-.13,2.78,2.49,4.28,5,2.94-1.14,1.44-2.59,1.84-3.09,3.93-.67,2.82-.21,6.59,2.15,8.58,4.69,4,10.47,1,14.71-1.49.3,4.95,7,3.52,8.82.22.1,1.34-1.11,2.88-1.38,4.26-.52,2.74-.49,4.18,1.88,6,2.8,2.16,10.77,4.58,11.6-1,2.58,3.44,7.09.74,6.73-2.72,1.34,2.16,4.67,3.06,7,3.34,1.92.23,3.9.82,5.86.67.92-.07,5.84-1.09,5.86-2.39-.08,6.4,6.11,14.87,12.24,8.21-3.33,9,12.79,7.69,10.85-2.25,1.52.92,3.58,2,5.33,1.48.65-.21,3.84-2.88,2.53-3.74,2.59,1.71,4.21,4.06,7.87,2.81a5.87,5.87,0,0,0,4-5.62c3.47.68,9.27-1.21,7-5.82,2.68-.14,4.94.29,7-1.76A6.08,6.08,0,0,0,460.87,139.27Zm-7.73,21.26a4.87,4.87,0,0,0-6.15.17c-1.09.93-3.08,2.91-3.12,4.44a6,6,0,0,0-5.4-2.37c-2.86.32-4.14,3.11-4.21,5.76-2.24-.05-4.24,1-3.71,3.7.63,3.13,3.59,3.83,6.07,2.75-.17,3.4,4.09,6.53,7.19,6.71,4.17.25,6.47-4.75,6.47-8.33,1.1.4,3.35.78,4.19-.05,1.55-1.56-.09-4.85-2.11-4.94.9-1.14,2.77-2.11,3.05-3.69S454.26,161.42,453.14,160.53Zm-18.76,8h-.06C434.45,168,434.4,168.29,434.38,168.53Z" style="fill:#f5f5f5"></path><path d="M428.65,169.79s8.91-13,8.41-14-8.41,11.92-13.32,15.43-14.73,9.47-17.19,9.47-2.63-3-1.75-8.77,1.07-7.36,5.1-12.62,15.55-19.5,14.89-20.17-15.3,18-18.94,20.34-6.68-13-7.89-13,3.48,10.9,3.78,16-.27,11.18-2.55,12.76-8.5-3.33-12.54-7.71-4.12-23.32-5.7-23.32,1,17.38,1,19.05c0,3.66-15.41-6.35-18.2-5.9s14.19,6.5,20.87,13c5.81,5.64,6.81,7.41,8.79,11.59,2.1,4.43,2.72,10.15,2.72,26.46s-4.4,124.17-4.4,134.28c0,2.47,3,4.95,9.07,5.42,6.05-.47,9.08-2.95,9.08-5.42h0c0-10.11-4.4-118-4.4-134.28s.66-22.39,5.5-25.84,13.11-9.54,16.77-10.63,14.2.7,14.2,0S428.65,169.79,428.65,169.79Z" style="fill:#e0e0e0"></path><path d="M428.65,169.79s8.91-13,8.41-14-8.41,11.92-13.32,15.43-14.73,9.47-17.19,9.47-2.63-3-1.75-8.77,1.07-7.36,5.1-12.62,15.55-19.5,14.89-20.17-15.3,18-18.94,20.34-6.68-13-7.89-13,3.48,10.9,3.78,16-.27,11.18-2.55,12.76-8.5-3.33-12.54-7.71-4.12-23.32-5.7-23.32,1,17.38,1,19.05c0,3.66-15.41-6.35-18.2-5.9s14.19,6.5,20.87,13c5.81,5.64,6.81,7.41,8.79,11.59,2.1,4.43,2.72,10.15,2.72,26.46s-4.4,124.17-4.4,134.28c0,2.47,3,4.95,9.07,5.42,6.05-.47,9.08-2.95,9.08-5.42h0c0-10.11-4.4-118-4.4-134.28s.66-22.39,5.5-25.84,13.11-9.54,16.77-10.63,14.2.7,14.2,0S428.65,169.79,428.65,169.79Z" style="opacity:0.15"></path></g><g id="tree"><path d="M137.27,142.27c6.74-4.71,2-10.65,3.46-17,.6-2.63,3.31-3.69,4.56-5.87,1.4-2.45.43-4.64-.74-7.09-1.81-3.77-4.85-6.9-9.23-7a6.09,6.09,0,0,0-3,.39c.31-2,1-4.3.27-6.42-1.06-3.16-4.14-4.79-7.21-5.31a7.58,7.58,0,0,0-5.79,1.27A14.35,14.35,0,0,0,117,97.42c-3.08-4.37-8.55-3.55-12-.16.15-2.14.26-3.75-.92-5.78-1.54-2.68-3.94-3.64-6.82-4.38a9.71,9.71,0,0,0-7.55,1.08A8.47,8.47,0,0,0,85.77,93,4.67,4.67,0,0,0,82,90.55c-1.63-.3-3.79.8-5,1.89-.48.45-2.45,2.57-2.22,4.54-5-5.08-14.88.69-14.68,7.45-5.13-.21-8.28,2.93-10.55,7.22-3.87,7.34,3.64,10.29,9.7,12.57-7.68,3.24-.17,14.86,3.77,17.8,4.68,3.48,10.69,3.73,16.24,2.57,2.6-.54,6.23-3.28,8.76-3.16,1.86.09,1.84.86,3.25,2.49a21.52,21.52,0,0,0,10.57,6.8c8.19,2.3,16.73-.18,20.41-8.28C127.38,144.89,131.93,146,137.27,142.27Z" style="fill:#e0e0e0"></path><path d="M47.71,204.49c-2.48,3.38-7.16,1-6.66-2.85-1.94,3.48-6.53,3.05-9,.59-2-2-2.19-3.94-2.31-6.53-4.33,2.51-8.95-.57-8.94-5.46,0-4.66,3.43-13.27,8.68-14.18-2.82,1.24-7.33-.3-9.12-2.7-2-2.71-1.44-5.5-.52-8.11-4.75-.15-8-1.93-6.83-7.09a10.59,10.59,0,0,1,8.45-8.59c-2.77-.9-3-6.39.29-6.61-9.38-8.85,2.66-21.09,13.23-18.61,4,.93,4.87,4.74,7.56,7.84,3,3.45,6.62,6.58,9.11,10.45a63.91,63.91,0,0,1,5.59,11,76.19,76.19,0,0,1,5.61,22.54c.47,4.88.47,9.87.47,14.78,0,5.38-.9,11.29-4.72,15.41C56.41,208.68,47.74,209.4,47.71,204.49Z" style="fill:#ebebeb"></path><path d="M137,136c.11,0,.74-6.67.77-7.19a12.38,12.38,0,0,0-1.72-7.92,23,23,0,0,1-3.3-5.32c-.84-2.11-1.67-4.21-3.38-5.78a12.83,12.83,0,0,0-9.37-3.17,13.63,13.63,0,0,0-9.8,4c-1.9,1.93-1.66,4.77-3.18,6.56-3.74-2.82-6,.16-7.2,3.53.42-5.58-7-4.43-10.1-2.28.28-1.94,1.38-3.44,1-5.65-.63-3.33-3.11-6.66-6.51-7.34s-7.49,1.37-7.64,5.17c-5-3.11-13,3-9.83,8.26C62,121.49,57.5,125,56.78,131c-.59,4.83,2.38,10.29,7.17,11.75-3,4-3.94,11.59-3.39,16.55.89,8,6.74,8.46,13.29,9.08.52,4.1-2.12,7.39-.27,11.66,2.51,5.8,6.61,4,11.71,4.41-1.65,3.25-.35,7.13,1.16,10.13s2.9,4,6.33,4.54A13.84,13.84,0,0,0,99,199c.75,1.15.62,2.49,1,3.76a13.55,13.55,0,0,0,4.3,6.12,10.34,10.34,0,0,0,8.17,2.36c1.71-.24,4-2.74,5.64-1.82.87.48,1.23,2.72,2.14,3.44a5.27,5.27,0,0,0,3.5.92c3.91-.12,5.52-2,6.35-5.48,1.65,1.59,2.27,3.77,5.13,3.32,1.85-.28,3.42-1.48,3.16-3.53a10.62,10.62,0,0,0,13.17,1c3.3-2.44,4.24-8.81.38-11.36,2.82.08,7.89-2.66,4.4-5.69,2.91-1.3,6.71-1.17,7.37-5.27s-2.51-9.15-7.17-8.77c1.36-1.17,3.64-2,3-4.45s-4-2.49-6.07-2.51c3.3-4,3.91-11-1-14-2.37-1.43-5.23-1.67-7.92-1.65.84-1.43,2.39-2.39,3.16-4,1.4-2.95,2-7.84,1-11C147,135.39,141.18,136.13,137,136Z" style="fill:#ebebeb"></path><path d="M30.92,184.27c2.1,2,4.36,1.62,7,1.75-2.28,4.62,3.52,6.51,7,5.82a5.9,5.9,0,0,0,4,5.63c3.66,1.25,5.28-1.1,7.87-2.82-1.31.87,1.88,3.53,2.53,3.74,1.75.57,3.81-.55,5.33-1.47-1.94,9.93,14.18,11.21,10.85,2.25,6.13,6.66,12.32-1.81,12.24-8.22,0,1.31,4.94,2.33,5.86,2.4,2,.14,3.94-.44,5.86-.68,2.29-.27,5.62-1.17,7-3.33-.36,3.46,4.15,6.16,6.73,2.72.83,5.61,8.8,3.2,11.6,1,2.37-1.83,2.4-3.28,1.88-6-.27-1.39-1.48-2.93-1.38-4.26,1.79,3.29,8.52,4.73,8.82-.23,4.24,2.54,10,5.46,14.71,1.5,2.36-2,2.82-5.76,2.15-8.58-.5-2.09-1.95-2.49-3.09-3.93,2.53,1.34,5.15-.16,5-2.94,3.19,1.25,7.47,1.81,10.46-.33a7.71,7.71,0,0,0,3.28-4.84c.17-1.31-.51-2.48-.31-3.78,2.25,1.15,6.72,1.21,6.78-2,0-.81-1.29-3-1.14-3.54.22-.81,1.46-.56,2.17-.7,4.08-.82,5.19-3.45,4.92-7.42a7.13,7.13,0,0,0-2.81-5.37c-1-.73-4.62-3-5.85-2.29.81-.48.13-2.27-.06-3-.59-2.33-2.95-3.26-5.16-3.31-3.26-.07-6.23,2.5-7.55,5.36.26-1.8-1.7-2.62-3.16-2.88s-2.2.49-3.47.87c2-.47,1.14-4.2-.34-4.83,2.8,1.19,7.69-.78,4.92-4,1.83-1.12,3.8-1.81,4.24-4,.47-2.45.61-4.69-1-6.75a4.77,4.77,0,0,0-3.62-2.12,7.21,7.21,0,0,0-3.8.41,12.12,12.12,0,0,1-2.1.87c-1.48-4.09-7.18-5.42-10.71-3.35-3.35,2-3.35,4.83-2.87,8.19-4-.8-6,3.84-4.06,6.79-1.92,1.35-2.37,4.91-.37,6.46-1.56-.08-2.82-1.45-4.6-1.17-2.54.39-3.55,3-4.33,5.09-.33-2.08-3.37-3.9-5.35-3.94-2.84-.05-4.51,2-5.48,4.39-.12-1.45-3.17-1.71-4.18-1.21a3.77,3.77,0,0,0-1.84,3.19c-.66-1.69-2.07-4.73-4.38-4.86-2.06-.12-2.81,1.21-4.22,2.15-.49-2-3.81-2.37-5.37-1.87-2.14.67-4.38,3.2-5.69,4.94.23-5-5.19-4.36-8.2-2.46,2.09-2.17,5.75-4,4.81-7.8-.78-3.16-3.95-3.23-6.58-3.45,1.52-1.06,1.08-3.85.19-5.21-1.58-2.39-4.24-2.29-6.74-2.49,3-2,5-6.36,1.77-9.24-3.34-3-7.12-2.51-10.47.2.44-5.68-4.9-11.2-10.68-9.35-4.43,1.43-5.35,5.37-5.49,9.39-4.19.14-8.4.58-10.32,4.92a6.41,6.41,0,0,0,4.52,8.86c-2.18,1.15-4.69,3.7-3.74,6.57,1,3.07,4.54,2.77,7.07,2.78-1.43.06-1.75,2.22-1.6,3.38A4,4,0,0,0,43.5,139c-4-1-8.69,5.2-9,8.67-.35,3.67,2.81,5.12,5.73,6.22-2.42.8-4.48,2.14-5.32,4.73-1,3.1,1.93,7,5.09,7.43-4.36-.13-4.13,5-.32,6-4.23-.42-8.22.59-10.07,4.91A6.08,6.08,0,0,0,30.92,184.27Zm4.14,18.14c.28,1.58,2.15,2.56,3,3.7-2,.09-3.66,3.38-2.11,4.93.84.84,3.09.45,4.19.06,0,3.58,2.3,8.57,6.47,8.33,3.1-.18,7.36-3.32,7.19-6.71,2.48,1.08,5.44.38,6.07-2.76.53-2.66-1.47-3.74-3.71-3.69-.07-2.65-1.35-5.45-4.21-5.76a6,6,0,0,0-5.4,2.37c0-1.53-2-3.51-3.12-4.45a4.86,4.86,0,0,0-6.15-.16C36.21,199.16,34.77,200.79,35.06,202.41Zm21.09,3.86h-.06C56.07,206,56,205.72,56.15,206.27Z" style="fill:#f5f5f5"></path><path d="M61.82,207.52s-8.91-13-8.41-14,8.41,11.93,13.32,15.43,14.73,9.47,17.19,9.47,2.63-3,1.75-8.76-1.07-7.37-5.1-12.63S65,177.5,65.68,176.84s15.3,18,18.94,20.34,6.68-13,7.89-13-3.49,10.91-3.78,16S89,211.38,91.28,213s8.5-3.33,12.54-7.72,4.11-23.32,5.7-23.32-1,17.38-1,19.06c0,3.66,15.41-6.35,18.2-5.91s-14.19,6.5-20.87,13C100,213.69,99,215.46,97,219.64c-2.1,4.43-2.72,10.15-2.72,26.46s4.4,86.43,4.4,96.54c0,2.47-3,4.95-9.07,5.42-6.05-.47-9.08-2.95-9.08-5.42h0c0-10.11,4.4-80.24,4.4-96.54s-.66-22.4-5.5-25.84-13.11-9.54-16.77-10.63-14.2.7-14.2,0S61.82,207.52,61.82,207.52Z" style="fill:#e0e0e0"></path><path d="M61.82,207.52s-8.91-13-8.41-14,8.41,11.93,13.32,15.43,14.73,9.47,17.19,9.47,2.63-3,1.75-8.76-1.07-7.37-5.1-12.63S65,177.5,65.68,176.84s15.3,18,18.94,20.34,6.68-13,7.89-13-3.49,10.91-3.78,16S89,211.38,91.28,213s8.5-3.33,12.54-7.72,4.11-23.32,5.7-23.32-1,17.38-1,19.06c0,3.66,15.41-6.35,18.2-5.91s-14.19,6.5-20.87,13C100,213.69,99,215.46,97,219.64c-2.1,4.43-2.72,10.15-2.72,26.46s4.4,86.43,4.4,96.54c0,2.47-3,4.95-9.07,5.42-6.05-.47-9.08-2.95-9.08-5.42h0c0-10.11,4.4-80.24,4.4-96.54s-.66-22.4-5.5-25.84-13.11-9.54-16.77-10.63-14.2.7-14.2,0S61.82,207.52,61.82,207.52Z" style="opacity:0.15"></path></g></g><g id="Plants"><g id="Shrubbery"><path d="M447.61,369.82c6.78,6.78,2,12.95-5.63,12.49,3,8.07-2.46,14.32-5.11,15.31H62.43v0c-13-5.49-13.25-22.85-5.29-25.66-5.55-1.16-7.05-13.41.53-11.67l-.15-.11.22.14a7.69,7.69,0,0,1-1.43-1.53c-1.23-1.51-1.91-3.95-.32-5.47-4,.65-8.65-2.82-6.69-7-4.89-2.37-3.84-11,.92-13-5.08-4.13-2.94-12.86,3.11-14.77a6,6,0,0,1-1.42-3.61c-.54-9,7-13,9-13.25a9.75,9.75,0,0,1,2.14-8.9h0a9.72,9.72,0,0,1,1.13-1,9.62,9.62,0,0,1,7.68-2.16c-.3-8.71,8.44-14.53,16-10,1.64-8.44,19.11-7,20,.14,5.91-3,10.2.75,9.67,7.22A5,5,0,0,1,126.6,288c-.78-4.68,4.3-8.95,8.49-6.29-1.46-5.52,4.91-10.8,9.62-7a5.5,5.5,0,0,1,7.6-4.82,5.34,5.34,0,0,1,9.73-.85c4.48-8.62,16.47-2.28,14,6.12,3.07-2.47,9-3.05,9.79,1.84.3-4.78,5.09-5.2,7.87-2.09-.74-6,3.71-9,7.71-7.44,0-4.71,7.2-5.66,8.86-1-.78-2.21,3.69-4.16,5.66-1.46,2.36-2.36,7.52.07,7,4.26,1.14-5.54,8.41-5,10.27-.16,0-2.41,4.61-4.2,4.6-1.7,0-11.33,16.26-16.14,22-1.34,1.78-5,8.36-5.89,9.33.39,1-3.11,5-2.47,6.16.16,3.07-9.27,12.77-8.82,13.31-1.4.94-3.18,5.09-2.38,5.56.56,3.3-6.06,9.45-2.33,7.45,3.66a3.93,3.93,0,0,1,5.15-.89c.15-8.71,11.12-6.27,12.58-.58a3.63,3.63,0,0,1,5.55.7c.75-3.48,5.68-2.33,7.28-.23-5.43-6.69,3.79-17.18,9.24-9.38-.53-6.62,8.16-3.38,10.37,2.27,4.74-4.88,13.65,2.27,9.25,8.41,4.65-.32,8.18,7.84,3.15,10.07a3.21,3.21,0,0,1,2.45,4.17c1.36-2.49,3.59-4.39,6.23-2.58-3-2.83.25-7.05,4-6.53-2.13-10.81,13.77-15.7,18.41-7.39,2.62-7.06,14.72-1.75,12.13,4.9a6.28,6.28,0,0,1,5.39.76,9.7,9.7,0,0,1,1.79,1.4h0a9.09,9.09,0,0,1,1,1.28h0a6.26,6.26,0,0,1,.26,6.84c5.49.13,7.26,8.24,3.14,11.61,3.17.85,4.2,7.16.5,10.31,2.14,0,5.48,4.5,5.38,6.92,2.11-4.61,10.05-3.81,10.2,2.22,5.43-2.32,10.12,2.64,8.31,7.93,5.66,1.12,6.63,8,4.81,12.72,7.74,1.1,8.54,12.78,3.78,18C456.13,355.52,456.14,369.52,447.61,369.82Z" style="fill:#BA68C8"></path><g style="opacity:0.15"><path d="M400,286.41a5.51,5.51,0,0,0-8.24-.54,5.93,5.93,0,0,0-1.08,1.42,5.48,5.48,0,0,0-4.48-1.42,6.05,6.05,0,0,0-5,5.06,6.66,6.66,0,0,1,11.55,1.5,4.93,4.93,0,0,0,0-1.08,6.64,6.64,0,0,0-.78-2.46,5.51,5.51,0,0,1,.6-.68,6.49,6.49,0,0,1,8-.93A5.34,5.34,0,0,0,400,286.41Z"></path><path d="M325.48,281.88a4.25,4.25,0,0,1,6.35-.42,4.61,4.61,0,0,1,.83,1.1,4.22,4.22,0,0,1,3.46-1.1,4.67,4.67,0,0,1,3.83,3.91,5.13,5.13,0,0,0-8.91,1.16,4.72,4.72,0,0,1,0-.84,5.13,5.13,0,0,1,.61-1.89,4.78,4.78,0,0,0-.47-.54,5,5,0,0,0-6.19-.71A3.63,3.63,0,0,1,325.48,281.88Z"></path><path d="M430.61,366a4.1,4.1,0,0,1-.49,0A1.69,1.69,0,0,1,430.61,366Z"></path><path d="M447.61,369.82c6.78,6.78,2,12.95-5.63,12.49,3,8.07-2.46,14.32-5.11,15.31h-8.95c2.46-2.31,5.62-4.22,4.61-8.44-.82-3.42.69-7.24-1.69-8.95.83-1,1.82-1.86,2.71-2.81a3.27,3.27,0,0,0,1.19-2.27c0-2.3-.69-4.41-2.62-5.6-1.69-1-.22-3.36-1.51-3.54a5.19,5.19,0,0,0,3.69-1.67,3.88,3.88,0,0,0,.38-4.57c3,.9,6.51,1.37,9-.68,2.33-1.94,2.94-5.77,1.7-8.66a9,9,0,0,0-6.95-5.18c2.95-.61,4.8-4.68,3.46-7.61a6.91,6.91,0,0,0-3-3c-2.94-1.65-6.92-1.41-9.14,1.25a8.13,8.13,0,0,0-3.5-8,6.77,6.77,0,0,0-8.08.9,7.06,7.06,0,0,0-.16-6,6.22,6.22,0,0,0-2.54-2.59c-.38-.21-1.19-.29-1.16-.88a1.38,1.38,0,0,1,.15-.4,10.43,10.43,0,0,0,.66-1.44,5.65,5.65,0,0,0-.28-4.22c-1.72-3.28-4.83-3-6.73-2.16,2.38-3.55-1.42-9.57-5.16-6.42,1.89-2.32,3-3.48,5.14-3.91,1.57-.33,3.71-.12,4.75.87,1.69-2.48,1.14-8.57-3.07-9.15,3.08-3.95,1.18-8.47-2.95-10,1.74-.93,4.37-1.32,5.33-3.54,1.08-2.47-.27-4.87-1.76-6.68l.3.08.3.08a7.52,7.52,0,0,1,1.22.51q.25.12.51.27l0,0a6.65,6.65,0,0,1,.56.36l.22.16c.13.1.26.2.38.31s.25.22.37.33a1.14,1.14,0,0,1,.11.11l.12.12a3.58,3.58,0,0,1,.26.29,7.38,7.38,0,0,1,.78,1h0a2.26,2.26,0,0,1,.16.26,2,2,0,0,1,.17.29,8.75,8.75,0,0,1,.51,1.18.74.74,0,0,1,0,.14.19.19,0,0,1,0,.1,1.8,1.8,0,0,1,.06.22,567338066438.55,567338066438.55,0,0,1,.08.36,6.18,6.18,0,0,1-.79,4.29,4.7,4.7,0,0,1,3.58,1.6c.13.14.25.28.37.43,2,2.63,2.12,7.16-.81,9.58,3.17.85,4.2,7.16.5,10.31,2.14,0,5.48,4.5,5.38,6.92a4,4,0,0,1,.36-.68,4.35,4.35,0,0,1,.46-.6A3.19,3.19,0,0,1,426,310a4.37,4.37,0,0,1,.89-.66c.22-.12.44-.23.67-.33h0a5.88,5.88,0,0,1,.71-.23c3-.77,6.7.78,6.84,5a6.18,6.18,0,0,1,7.32,1.55,6.41,6.41,0,0,1,1.25,5.24,8.65,8.65,0,0,1-.27,1.15,6.91,6.91,0,0,1,2.88,1.33,3,3,0,0,1,.33.28,7.4,7.4,0,0,1,.76.83,9.6,9.6,0,0,1,1.67,6.27c0,.38-.06.76-.11,1.14s-.13.79-.21,1.17-.19.77-.31,1.14c-.06.19-.12.37-.19.55a6.61,6.61,0,0,1,1.92.49,5.32,5.32,0,0,1,.67.35,4.31,4.31,0,0,1,.63.42,5.37,5.37,0,0,1,.58.49l.27.27c3.57,3.78,3.59,11.78-.29,16C456.13,355.52,456.14,369.52,447.61,369.82Z"></path><path d="M69.33,389.8c-4.72,1.07-1.19-12.23,2-14.32-10.09-1.69-6.08-10-3.78-12.13-6.55-1.31-7.72-9-1.1-13.13-1.42-.46-3.48-2.61-2-6.44,1.68-4.49,8.37-5,10.18-5.14-1.44-.34-5.68-5.47-1.65-9.69a11.9,11.9,0,0,1-3.29,1.72,5.39,5.39,0,0,1-4.17-.31c-.79-.45-3.78-3.33-.87-6.44-7.42.19-2.14-10.07,3.67-9.72-2.69-1.69-4.84-3.7-3.85-7.32a8.31,8.31,0,0,1,6.06-5.59c-4.61-2.61-7.32-6.17-5.18-10.4a13.84,13.84,0,0,0-1.19.81,9.72,9.72,0,0,0-1.13,1h0a9.75,9.75,0,0,0-2.14,8.9c-2,.24-9.51,4.24-9,13.25a6,6,0,0,0,1.42,3.61c-6,1.91-8.19,10.64-3.11,14.77-4.76,2-5.81,10.63-.92,13-2,4.22,2.69,7.69,6.69,7-1.59,1.52-.91,4,.32,5.47a7.69,7.69,0,0,0,1.43,1.53l-.22-.14.15.11c-7.58-1.74-6.08,10.51-.53,11.67-8,2.81-7.68,20.17,5.29,25.66v0H76.37C72.69,396.49,69.48,393.92,69.33,389.8Z"></path><path d="M85.22,397.62h.08v0Z"></path><path d="M124.93,296.55a5.54,5.54,0,0,0-8.1-1.69,5.88,5.88,0,0,0-1.24,1.25,5.6,5.6,0,0,0-4.27-2,5.89,5.89,0,0,0-5.53,4.32,6.68,6.68,0,0,1,4.71-2,7,7,0,0,1,6.56,5.12,5.49,5.49,0,0,0,.09-1.08,6.7,6.7,0,0,0-.49-2.55,8,8,0,0,1,.69-.6,6.48,6.48,0,0,1,8.06.22A5,5,0,0,0,124.93,296.55Z"></path><path d="M155.34,281.66a4.56,4.56,0,0,1,6.12-2.76,4.78,4.78,0,0,1,1.16.77,4.7,4.7,0,0,1,3-2.36,4.55,4.55,0,0,1,5,2.43,5.21,5.21,0,0,0-4-.74,5.88,5.88,0,0,0-4.4,5.17,4.41,4.41,0,0,1-.23-.83,5.44,5.44,0,0,1,0-2.09,4.82,4.82,0,0,0-.63-.35,5.27,5.27,0,0,0-6.31,1.59A4.13,4.13,0,0,1,155.34,281.66Z"></path><path d="M75.72,312.34a3.39,3.39,0,0,1,5.07-.27,4.26,4.26,0,0,1,.65.88,3.36,3.36,0,0,1,2.76-.84,3.73,3.73,0,0,1,3,3.15,4.08,4.08,0,0,0-7.1.83,3,3,0,0,1,0-.66,3.91,3.91,0,0,1,.5-1.5,5.2,5.2,0,0,0-.37-.43,4,4,0,0,0-4.92-.63A3.54,3.54,0,0,1,75.72,312.34Z"></path></g></g></g><g id="Floor"><g id="Field"><ellipse id="floor" cx="249.65" cy="382.95" rx="188.62" ry="102.21" style="fill:#BA68C8"></ellipse><ellipse id="floor" cx="249.65" cy="382.95" rx="188.62" ry="102.21" style="fill:#fff;opacity:0.6000000000000001"></ellipse></g><g id="Flowers"><g id="flowers"><path d="M328.08,327.66s-.11-1.61-1.37-1.78c0,0-1-.18-1.61,1.43a3.31,3.31,0,0,0-3,.35,1.86,1.86,0,0,0,1.38,2.06,2.36,2.36,0,0,0-.51,2.53s2.58.86,3.21-.75c0,0,.23,1.44,2.75,1.44a2.41,2.41,0,0,0,0-2.87s1.78-.06,2.07-1.38C331,328.69,329.8,326.68,328.08,327.66Z" style="fill:#fafafa"></path><path d="M326.53,327.91a1.77,1.77,0,0,0-1.91,1.18s0,.94,1.61,1.08,1.86-.81,1.86-.81A1.58,1.58,0,0,0,326.53,327.91Z" style="fill:#c8856a"></path><path d="M336.09,324.35s-.57-1.14-1.49-1.27a2.54,2.54,0,0,0-.92,1.64,2.37,2.37,0,0,0-2,.5,2.16,2.16,0,0,0,1.29,1.49,2.91,2.91,0,0,0,.06,2.12,2.52,2.52,0,0,0,2.42-1.36,2.33,2.33,0,0,0,2.48.64,1.85,1.85,0,0,0-.66-2.16,2,2,0,0,0,1-1.73A2.77,2.77,0,0,0,336.09,324.35Z" style="fill:#fafafa"></path><path d="M335.07,325a1.29,1.29,0,0,0-1.26,1.08s.1.68,1.3.6,1.27-.79,1.27-.79A1.18,1.18,0,0,0,335.07,325Z" style="fill:#c8856a"></path><path d="M327.51,322.5s-.35-1-1-.67-.44,1,.15,1.13c0,0-1.26.41-.91,1.08s1.43,0,1.67-.38c0,0,.23,1,1.11.66s0-1.24,0-1.24,1.34-.52.61-1.14S327.51,322.5,327.51,322.5Z" style="fill:#fafafa"></path><path d="M333.91,337.3s.1-1.08-.65-1-.81.72-.34,1.09c0,0-1.31-.14-1.27.61s1.31.57,1.67.35c0,0-.21,1,.74,1.05s.51-1.13.51-1.13,1.44.08,1-.78S333.91,337.3,333.91,337.3Z" style="fill:#fafafa"></path><path d="M314.85,333.18s-.86-1.15-.2-1.43.93.71.93.71.66-.78,1-.22-.49,1.14-.49,1.14.9.49.38,1-1.14-.28-1.14-.28-.36.87-.91.62S314.19,333.45,314.85,333.18Z" style="fill:#fafafa"></path></g><g id="flowers"><path d="M389,385.58s-.6-1.72-2-1.53c0,0-1.17.12-1.32,2a3.75,3.75,0,0,0-3.15,1.26,2.11,2.11,0,0,0,2.12,1.84,2.64,2.64,0,0,0,.19,2.9s3.06.17,3.27-1.76c0,0,.68,1.49,3.43.74a2.72,2.72,0,0,0-.86-3.12s1.92-.6,1.84-2.12C392.49,385.83,390.58,384,389,385.58Z" style="fill:#fafafa"></path><path d="M387.39,386.32a2,2,0,0,0-1.73,1.85s.28,1,2.07.69,1.78-1.43,1.78-1.43A1.78,1.78,0,0,0,387.39,386.32Z" style="fill:#c8856a"></path><path d="M403.55,375s-.64-1.29-1.68-1.44a2.89,2.89,0,0,0-1,1.86,2.63,2.63,0,0,0-2.29.56,2.46,2.46,0,0,0,1.46,1.68,3.23,3.23,0,0,0,.07,2.39,2.85,2.85,0,0,0,2.73-1.53s.74,1.11,2.8.72a2.1,2.1,0,0,0-.75-2.44,2.21,2.21,0,0,0,1.12-1.95A3.14,3.14,0,0,0,403.55,375Z" style="fill:#fafafa"></path><path d="M402.41,375.74A1.47,1.47,0,0,0,401,377s.12.77,1.46.68,1.44-.9,1.44-.9A1.32,1.32,0,0,0,402.41,375.74Z" style="fill:#c8856a"></path><path d="M389.91,376s-.39-1.16-1.15-.76-.49,1.12.17,1.28c0,0-1.42.47-1,1.22s1.62,0,1.88-.43c0,0,.27,1.16,1.25.75s0-1.41,0-1.41,1.52-.59.7-1.28S389.91,376,389.91,376Z" style="fill:#fafafa"></path><path d="M410.81,383.93s.11-1.21-.74-1.16-.91.81-.38,1.24c0,0-1.48-.17-1.43.68s1.48.64,1.88.39c0,0-.24,1.16.84,1.19s.58-1.28.58-1.28,1.62.09,1.16-.88S410.81,383.93,410.81,383.93Z" style="fill:#fafafa"></path><path d="M373.73,384.84s1.35-.9,1.62-.14-.86,1-.86,1,.84.79.19,1.11-1.26-.62-1.26-.62-.6,1-1.12.37.39-1.28.39-1.28-1-.45-.65-1.06S373.46,384.08,373.73,384.84Z" style="fill:#fafafa"></path></g><g id="flowers"><path d="M314.73,452.42s-.12-1.71-1.47-1.89c0,0-1.09-.18-1.7,1.53a3.52,3.52,0,0,0-3.17.36,2,2,0,0,0,1.46,2.2,2.5,2.5,0,0,0-.55,2.68s2.75.91,3.42-.79c0,0,.24,1.52,2.92,1.52a2.55,2.55,0,0,0,0-3s1.89-.06,2.2-1.46C317.84,453.52,316.56,451.39,314.73,452.42Z" style="fill:#fafafa"></path><path d="M313.08,452.69a1.89,1.89,0,0,0-2,1.26s0,1,1.71,1.14,2-.86,2-.86A1.67,1.67,0,0,0,313.08,452.69Z" style="fill:#c8856a"></path><path d="M330.9,448.22s-.6-1.21-1.59-1.35a2.68,2.68,0,0,0-1,1.74,2.52,2.52,0,0,0-2.16.53,2.3,2.3,0,0,0,1.37,1.58,3.1,3.1,0,0,0,.07,2.25,2.67,2.67,0,0,0,2.57-1.44s.7,1.05,2.63.68a2,2,0,0,0-.7-2.3,2.07,2.07,0,0,0,1.05-1.83A3,3,0,0,0,330.9,448.22Z" style="fill:#fafafa"></path><path d="M329.82,448.94a1.37,1.37,0,0,0-1.34,1.14s.11.73,1.38.65,1.34-.85,1.34-.85A1.23,1.23,0,0,0,329.82,448.94Z" style="fill:#c8856a"></path><path d="M316.43,444.37s-.38-1.08-1.09-.71-.46,1,.16,1.21c0,0-1.34.43-1,1.14s1.51,0,1.76-.4c0,0,.25,1.09,1.18.7s0-1.32,0-1.32,1.43-.56.65-1.21S316.43,444.37,316.43,444.37Z" style="fill:#fafafa"></path><path d="M294.45,462.12s.11-1.14-.69-1.1-.86.77-.36,1.17c0,0-1.39-.16-1.35.64s1.4.6,1.78.37c0,0-.23,1.09.78,1.12s.55-1.2.55-1.2,1.53.08,1.09-.83S294.45,462.12,294.45,462.12Z" style="fill:#fafafa"></path><path d="M300.39,448.25s-.93-1.21-.23-1.51,1,.76,1,.76.7-.83,1-.24-.51,1.21-.51,1.21.95.52.4,1-1.22-.3-1.22-.3-.37.92-1,.67S299.69,448.55,300.39,448.25Z" style="fill:#fafafa"></path></g><g id="flowers"><path d="M127.93,409.1s-.12-1.62-1.39-1.79c0,0-1-.17-1.61,1.44a3.32,3.32,0,0,0-3,.35,1.86,1.86,0,0,0,1.38,2.07,2.35,2.35,0,0,0-.52,2.53s2.59.87,3.22-.74c0,0,.24,1.44,2.77,1.44a2.42,2.42,0,0,0,0-2.88s1.78-.06,2.07-1.39C130.86,410.13,129.65,408.12,127.93,409.1Z" style="fill:#fafafa"></path><path d="M126.37,409.35a1.77,1.77,0,0,0-1.92,1.19s0,.94,1.62,1.08,1.86-.81,1.86-.81A1.59,1.59,0,0,0,126.37,409.35Z" style="fill:#c8856a"></path><path d="M140.7,407.14s-.56-1.14-1.49-1.28a2.62,2.62,0,0,0-.93,1.65,2.37,2.37,0,0,0-2,.5,2.18,2.18,0,0,0,1.29,1.5,2.88,2.88,0,0,0,.07,2.12,2.52,2.52,0,0,0,2.42-1.36,2.36,2.36,0,0,0,2.49.65,1.88,1.88,0,0,0-.66-2.18,2,2,0,0,0,1-1.73A2.8,2.8,0,0,0,140.7,407.14Z" style="fill:#fafafa"></path><path d="M139.68,407.82a1.33,1.33,0,0,0-1.27,1.08s.11.69,1.31.61,1.27-.8,1.27-.8A1.17,1.17,0,0,0,139.68,407.82Z" style="fill:#c8856a"></path><path d="M129.19,403s-.35-1-1-.68-.44,1,.14,1.14c0,0-1.26.41-.9,1.09s1.43,0,1.67-.38c0,0,.23,1,1.11.66s0-1.25,0-1.25,1.35-.53.61-1.14S129.19,403,129.19,403Z" style="fill:#fafafa"></path><path d="M137.85,415.68s.1-1.08-.66-1-.81.73-.34,1.1c0,0-1.31-.14-1.27.61s1.32.57,1.68.35c0,0-.22,1,.74,1.06s.51-1.14.51-1.14,1.45.08,1-.78S137.85,415.68,137.85,415.68Z" style="fill:#fafafa"></path><path d="M114,406.68s-.87-1.15-.2-1.43.94.72.94.72.66-.79,1-.23-.49,1.15-.49,1.15.91.49.39,1-1.15-.28-1.15-.28-.36.87-.91.63S113.37,407,114,406.68Z" style="fill:#fafafa"></path></g><g id="flowers"><path d="M131,343.15s.13-1.74,1.5-1.92c0,0,1.11-.19,1.74,1.55a3.59,3.59,0,0,1,3.23.37,2,2,0,0,1-1.49,2.24,2.57,2.57,0,0,1,.56,2.74s-2.8.93-3.48-.81c0,0-.25,1.55-3,1.55a2.61,2.61,0,0,1,0-3.11s-1.93-.06-2.24-1.49C127.86,344.27,129.17,342.1,131,343.15Z" style="fill:#fafafa"></path><path d="M132.72,343.43a1.89,1.89,0,0,1,2.06,1.28s0,1-1.74,1.16-2-.87-2-.87A1.71,1.71,0,0,1,132.72,343.43Z" style="fill:#c8856a"></path><path d="M117.24,341s.61-1.23,1.62-1.38a2.8,2.8,0,0,1,1,1.78,2.55,2.55,0,0,1,2.2.54,2.36,2.36,0,0,1-1.4,1.62,3.09,3.09,0,0,1-.07,2.29,2.73,2.73,0,0,1-2.62-1.47s-.71,1.07-2.68.7a2,2,0,0,1,.71-2.35,2.12,2.12,0,0,1-1.07-1.87A3,3,0,0,1,117.24,341Z" style="fill:#fafafa"></path><path d="M118.34,341.77a1.42,1.42,0,0,1,1.37,1.17s-.11.75-1.41.66-1.37-.86-1.37-.86A1.27,1.27,0,0,1,118.34,341.77Z" style="fill:#c8856a"></path><path d="M129.66,336.59s.38-1.11,1.11-.73.48,1.08-.16,1.23c0,0,1.36.45,1,1.17s-1.55,0-1.8-.41c0,0-.25,1.12-1.2.72s0-1.35,0-1.35-1.46-.57-.66-1.23S129.66,336.59,129.66,336.59Z" style="fill:#fafafa"></path><path d="M120.32,350.26s-.11-1.17.71-1.12.88.78.36,1.19c0,0,1.43-.16,1.38.66s-1.42.61-1.81.37c0,0,.23,1.12-.8,1.15s-.56-1.23-.56-1.23-1.56.08-1.11-.85S120.32,350.26,120.32,350.26Z" style="fill:#fafafa"></path><path d="M146,340.55s.94-1.24.22-1.55-1,.78-1,.78-.72-.85-1.05-.25.52,1.24.52,1.24-1,.53-.41,1.06,1.24-.31,1.24-.31.38,1,1,.68S146.74,340.85,146,340.55Z" style="fill:#fafafa"></path></g></g></g><g id="Clouds"><path id="Cloud" d="M327.18,34.34c0-3.14-3.44-5.32-7.33-5.68-4.59-.44-7.84,1.61-8,5.22-3-1.23-6.15-.44-5.92,2.85-.78-.9-3.69-.87-4.74-.62a4.08,4.08,0,0,0-2.61,2.22,3,3,0,0,0-.27,1.69c-1.75-.57-5.73-.92-6.72.68-1.77,2.85,5.3,2.94,6.72,2.08.31,2.22,7.9,2.58,9.74.54,1.44,1.44,3.5,1.76,5.73,1.9,3.76.22,6.06-1,9-2.55,3.19,2.7,8.71,2.75,11.58-.34.73.69,2.75.9,4.37.52,1.06-.25,1.3-.71,1.3-.71a9.09,9.09,0,0,0,1.95.59c2.09.44,6,0,4.34-1.9a4.91,4.91,0,0,0-3.45-.85c-.9-1.79-4.55-3.48-6.65-2-.08-2.17-2.06-3.86-4.84-4.29C330.48,33.58,328.24,33.45,327.18,34.34Z" style="fill:#f0f0f0"></path><path id="cloud" d="M152.51,65.44c0-3.14-3.44-5.31-7.33-5.68-4.58-.43-7.83,1.61-7.94,5.22-3-1.23-6.16-.44-5.92,2.85-.78-.89-3.7-.87-4.75-.62A4.11,4.11,0,0,0,124,69.44a3.05,3.05,0,0,0-.27,1.68c-1.75-.57-5.72-.92-6.72.68-1.77,2.86,5.3,3,6.73,2.08.3,2.22,7.9,2.59,9.74.54,1.43,1.45,3.5,1.77,5.72,1.9,3.76.22,6.07-1,9-2.55,3.18,2.7,8.7,2.75,11.57-.34.73.69,2.75.91,4.37.52,1.06-.25,1.31-.7,1.31-.7a9.51,9.51,0,0,0,2,.58c2.08.44,6,0,4.33-1.9a4.92,4.92,0,0,0-3.44-.85c-.91-1.78-4.56-3.48-6.65-2-.08-2.16-2.06-3.86-4.85-4.29C155.82,64.68,153.58,64.55,152.51,65.44Z" style="fill:#f0f0f0"></path><path id="cloud" d="M111.23,44.8a8.39,8.39,0,0,0-2.87-.53c-.94-.07-1.23-.26-1.41-.46a6.87,6.87,0,0,0-8.24-2.44,5.27,5.27,0,0,0-6.22-3.51c.1-2.9-3.6-6-6.92-6.72s-6-.39-7.79,1.7C75.83,29,68.2,28,64.07,30c-2.38,1.16-4.39,2.35-5.38,4.52a9.08,9.08,0,0,0-.89,4.33c-1.61-1.42-4.84-1.8-7-1-2.31.9-2.49,2.64-2.6,4.42A8.22,8.22,0,0,0,44,42.2c-1.47.44-2.31,1.58-2.11,2.51-1.15-.06-3.91.87-3.59,2.09C38.65,48.17,41.79,48,43,48a22.18,22.18,0,0,0,3.29-.52A5.09,5.09,0,0,0,48,47.8c2,0,2.85-.88,3.17-1.62,1,2.06,4.46,3.62,6.91,4.25,4.63,1.19,11.18.47,14-3a5.22,5.22,0,0,0,1.38,1.68,8,8,0,0,0,4.28,1.73c1.9.18,7,.42,8.44-2.6,1,2,5.56,2.93,9,2.43a14.13,14.13,0,0,0,3.87-1.16,22.5,22.5,0,0,0,2.22-1.34,1.89,1.89,0,0,1,1.9-.13,11.28,11.28,0,0,0,7.54,0C112.64,47.24,113,45.62,111.23,44.8Z" style="fill:#f0f0f0"></path></g><g id="Shadow"><ellipse id="shadow" cx="240.18" cy="416.98" rx="68.21" ry="39.38" style="fill:#BA68C8;opacity:0.30000000000000004"></ellipse></g><g id="Character"><g id="Faun"><g id="Bottom"><path d="M243.69,376.68c-1.46.79-1.56,3.89-1.47,8.2.11,5.16-.16,12.27-.16,12.27s8.38,13.1,24,11.68c12-1.09,10.41-8.77,10.41-8.77s-4.89-17.77-6.47-20.39C267.54,375.57,243.69,376.68,243.69,376.68Z" style="fill:#37474f"></path><path d="M265,408.9l-4.64-26.42L258,381.6l3.78,27.27A27.25,27.25,0,0,0,265,408.9Z" style="fill:#455a64"></path><path d="M274.93,405.24c-.68-2.1-1.45-4.6-2.2-7.27-2.08-7.4-4.87-16.05-7.74-19.49v-1h0s-2.57,2.13-1.65,5c.68,2.07,3.76,17.6,5.4,25.95A10.82,10.82,0,0,0,274.93,405.24Z" style="fill:#455a64"></path><path d="M280.81,199.15c9.47,8.08,15,21.72,17.16,32.46-1.66-3.69-6.2-5.38-6.2-5.38s5,7.51,5.58,14.81l-4.67-3.39s2.79,10.82,1.57,19.67-3.7,22-1.27,27.27,4.54,9.18,1.93,15.1a14.06,14.06,0,0,0-4.24-8.38s5.15,7.34,1.11,12a9.12,9.12,0,0,0-3.12-5.63s-.44,4.33-2.55,6.08c-3.6,3-24.62,16-29.71,19.37s-8.39,8.62-5,13.9,8,5.1,10.49,11.24c-5.4-2.4-6.9-1.36-6.9-1.36a85.59,85.59,0,0,0,4.8,8.2c2.15,3.18,7.89,10.59,8.28,15.38a13.21,13.21,0,0,0-4.52-2.18s2.44,6.27,5.29,12c2.57,5.11,1.36,8.79-7.32,7.89-8.19-.84-10.61-3.05-12.93-4.21-3.51-1.76-5.32-3.56-4.82-6.43a85.5,85.5,0,0,0,.09-16.11,13.12,13.12,0,0,0-2.24,8.66c-5-7.23-1.78-11.29-1.78-16.86s-.11-10.16-3.56-16.55a12.44,12.44,0,0,0,0,5.08c-2.18-1.86-3.24-6.53-2.85-8.36-2.67,1.51-1.26,4.4-1.26,4.4s-2.92-4.66-1-9.3c-2.33.18-3.4,3.13-3.4,3.13s0-5.31,3.65-6.48a4.72,4.72,0,0,1-4.54-4.72,4.19,4.19,0,0,0,4.82.33,4.69,4.69,0,0,1,2.55-4.25c-3.05.24-3.61,1.08-3.61,1.08s.89-2.25,4.59-2.91,5.15-.52,8.83-3.67,8.66-12.44,14.12-16.74,4.27-3.86,4.27-3.86l-2.05-9.23s-.92,3.5-.31,5.53c-2.07-2.49-1.92-7.84-1.32-11.25-2.39,5-4.57,4.65-4.57,4.65a16,16,0,0,0,2.33-8.77c-.36-4.57-9.45-21.16-9.45-21.16s1.23-17.64,4-27.67S277.07,196.4,280.81,199.15Z" style="fill:#263238"></path><path d="M207.94,400.23c-3.66-.07-3.23,2.58-5.17,7.52s-5.33,17.05-5.33,17.05,2.83,9.69,11.12,11.31c10.17,2,18.88-.74,22.91-7.32,0,0-1.88-19.08-2.62-21.3S207.94,400.23,207.94,400.23Z" style="fill:#37474f"></path><path d="M217.81,436.58l2-29.25-2.77,0s-2.83,17.17-3.27,29.34A28.79,28.79,0,0,0,217.81,436.58Z" style="fill:#455a64"></path><path d="M215.33,402.21c-1.7-.48-3.27-.91-4.53-1.24-5.13,9.45-8.65,23-10.22,29.85a13.25,13.25,0,0,0,8,5.29c.46.09.92.16,1.38.23C210.49,427.43,212,410.16,215.33,402.21Z" style="fill:#455a64"></path><path d="M218.61,203.82l-6.56-2.74c-9.35,6.25-18.59,27.61-15,36.36,1.85-5.35,5.06-6.91,5.06-6.91S197,240,200.12,249.35c1.35-4.52,2.81-6.21,2.81-6.21s-1.81,7.83.77,20c2.08,9.77,7.73,21.29,6.53,25s-3.78,3.12-3.78,3.12,2.65,2.08,4.18.56a10,10,0,0,0-.33,6.49s.8-3.27,2.1-3.44c0,0,1.52,9.35.49,17a30.81,30.81,0,0,1-2.3,7.12c-4.62,6.77-9.07,4.9-9.07,4.9s2.07,2.72,3.51,2.91a4.2,4.2,0,0,0-1,4.92c1.7-3.32,3.05-1,3.05-1,1.72,5.83,6.43,14.28,6.27,26.54a101.92,101.92,0,0,1-.81,12.2c-.59,3.57-1,8.4-5.76,10.32s-6.09,5.52-5.93,7.24c3.19-3.53,4.71-2.75,4.71-2.75a6.11,6.11,0,0,0-1.87,7.15c1.36-2.66,2.27-1.69,2.27-1.69,1.06,4.15,2.41,7.81-.94,14.26,0,0,.05,8.29,7.25,10a14.58,14.58,0,0,0,15.65-5.64s-1.74-5.82-2.61-10.73c-.93-5.23,5.38-8.54.78-15.11-3.15-4.51,3.11-33.4,7.42-41.8,2.44-4.77,4.13-8.63,2.8-13a3.84,3.84,0,0,1,2.75,3.36A16.32,16.32,0,0,0,237.28,320c-2-3.68.78-12.06,3-16.86a132.65,132.65,0,0,0,4.92-13.34s1.08,2.11.21,5.88c2.64-2.93,2.82-7.84,2.94-14s2.46-16.74,4.93-21.55,6.73-25.27,3.64-34.86C255.22,214.87,226.85,206.15,218.61,203.82Z" style="fill:#263238"></path><path d="M226.1,382.48a7.6,7.6,0,0,1-.87-3.41,30,30,0,0,1,0-3.55c.1-2.37.36-4.72.67-7.07.65-4.69,1.58-9.33,2.69-13.93A78,78,0,0,1,232.9,341a44.19,44.19,0,0,0,2.81-6.42,11.11,11.11,0,0,0,.16-6.7h0a.46.46,0,0,1,.3-.58.42.42,0,0,1,.27,0,4.13,4.13,0,0,1,1.18.55,4.36,4.36,0,0,1,1,.85,4.46,4.46,0,0,1,1,2.37l-1,0a15.84,15.84,0,0,0-1.41-10.21l-.3-.59-.3-.68a6.35,6.35,0,0,1-.34-1.4,13.14,13.14,0,0,1-.05-2.8,29.49,29.49,0,0,1,1.09-5.38,49.17,49.17,0,0,1,1.85-5.14c.72-1.68,1.53-3.26,2.18-4.94,1.35-3.33,2.54-6.73,3.66-10.15v0a.28.28,0,0,1,.35-.18.28.28,0,0,1,.17.15,6.2,6.2,0,0,1,.43,1.52,8.69,8.69,0,0,1,.12,1.53,12.66,12.66,0,0,1-.37,3l-.39-.2a12,12,0,0,0,2.6-6.61c.33-2.41.4-4.85.51-7.29a68.88,68.88,0,0,1-.27,7.32,18,18,0,0,1-.73,3.62,9.28,9.28,0,0,1-1.78,3.26.23.23,0,0,1-.39-.19h0a13.63,13.63,0,0,0,.3-2.91,11.51,11.51,0,0,0-.14-1.44,6.24,6.24,0,0,0-.4-1.35l.52,0c-1.06,3.45-2.2,6.88-3.5,10.26-.63,1.7-1.42,3.35-2.12,5a49.55,49.55,0,0,0-1.78,5.05,28.42,28.42,0,0,0-1,5.21,11.27,11.27,0,0,0,.06,2.6,5.5,5.5,0,0,0,.3,1.21l.24.56.32.61a16.56,16.56,0,0,1,1.54,10.83.48.48,0,0,1-.58.37.48.48,0,0,1-.38-.42h0a3.25,3.25,0,0,0-1.48-2.52,4,4,0,0,0-.89-.43l.56-.59a12,12,0,0,1-.2,7.24,44.06,44.06,0,0,1-2.9,6.53,53.7,53.7,0,0,0-2.48,6.56c-.72,2.24-1.36,4.5-2,6.78-1.19,4.56-2.18,9.18-2.94,13.83-.38,2.32-.7,4.66-.86,7a32,32,0,0,0-.07,3.53A7.61,7.61,0,0,0,226.1,382.48Z"></path><path d="M232.15,332.1c-.83,1.43-2.37,2.89-4.17,2.53-.35-.07-.46.26-.26.5a6.12,6.12,0,0,0,2.19,1.68,9.39,9.39,0,0,1-7.19-.95c-.27-.16-.79.05-.58.42.83,1.38,1.7,3.09,1,4.62a8.75,8.75,0,0,0-2.15-2.39,15.13,15.13,0,0,0-3.87-1.9,8.63,8.63,0,0,1-3.7-2.21,3.71,3.71,0,0,1-.91-3.51c.06-.17-.2-.54-.33-.29-1.27,2.49.92,4.89,3.07,5.95,1.34.66,2.79,1.05,4.11,1.74a7.67,7.67,0,0,1,3.41,3.53.49.49,0,0,0,.81.15c1.17-1.51.7-3.34-.1-4.9a10.45,10.45,0,0,0,7.81.17c.41-.16,0-.64-.22-.71a6.3,6.3,0,0,1-2.27-1.22c1.69-.12,3.45-1.05,3.74-2.86C232.6,332.28,232.3,331.84,232.15,332.1Z"></path><path d="M203.68,193.26a27.59,27.59,0,0,0-2.22,3.26,6,6,0,0,0-1,2.86,2.37,2.37,0,0,0,1.58,2.36c1.12.27,2.4-.56,3.39,0A27,27,0,0,0,195,219.58a1.64,1.64,0,0,0,.16,1.2,1.58,1.58,0,0,0,1.21.46,16.31,16.31,0,0,0,8.27-1.65c-2.11,1-.6,11.43-.23,13.28.76,3.83.64,7.59,5.46,7.57a67.8,67.8,0,0,0,8.18-.52,20.38,20.38,0,0,0,.73,7.23c.82,2.3,2.69,4.38,5.1,4.73,2.92.42,5.7-1.72,8.64-1.53a29.23,29.23,0,0,1,6,16.23c0,.5.08,1.08.5,1.35a1.51,1.51,0,0,0,1.13.07,16.27,16.27,0,0,0,11-8.42,19.73,19.73,0,0,1,.86,15.26c3.71,1.18,7.43-1.86,9.61-5.08a30,30,0,0,0,4.91-13.27c2.52,1,1.83,6.26,4.54,6.16a3.13,3.13,0,0,0,2.06-1.29,24.18,24.18,0,0,0,5.25-21.49c.9,2.18,4.31,2.2,5.95.5s1.91-4.28,1.82-6.63a32.2,32.2,0,0,0-2.33-10.92,7.68,7.68,0,0,1,4.48,3.87c-.15-.3,1.6-4.07,1.72-4.76a16.08,16.08,0,0,0,0-5.36c-.45-2.82-1.65-6.45-4.09-8.14a15.57,15.57,0,0,0,3.63,1.57,1.75,1.75,0,0,0,1.15.05c.75-.3.79-1.34.66-2.14a19.66,19.66,0,0,0-2.13-6.14,13.93,13.93,0,0,0-3.25-4.6c1.25.17,2.48.43,3.74.52a1.33,1.33,0,0,0,.77-.12,1.12,1.12,0,0,0,.37-.94c.05-2.18-1.4-4.09-2.89-5.67a43.35,43.35,0,0,0-17.39-11.07,41.73,41.73,0,0,0-8.25-1.93,57.84,57.84,0,0,0-9.49-.27,134.15,134.15,0,0,0-28.19,4.11c-3.77,1-8.38,1.64-11.75,3.55A31.17,31.17,0,0,0,203.68,193.26Z" style="fill:#37474f"></path></g><g id="Top"><path id="Arm" d="M321.06,138.1a18.44,18.44,0,0,0-8.82-10.71c-3.88-2.14-10.22-3.32-16.3-6a142.37,142.37,0,0,1-14.41-6.7c-3.68-1.93-12.7-3.62-19.07-2.51l6.42,24.68Z" style="fill:#af6152"></path><g id="Chest"><path d="M203.19,143.15c.06-17.57,8.38-20.17,8.38-20.17s7-2.12,12.19-4.09c4.81-1.83,19.58-4.76,19.58-4.76l19.14-1.9s9.41,3.75,15.15,23.25c2.49,8.45,2.1,20.81-.12,23.12,1,3.27.32,9,.13,13-.2,4.38-1.65,10.45-.88,14.8.94,5.36,2.57,10.12,2,15.69-1.15,11.29-8.5,27-16,35.57-4.41-6.63-12.64-13.08-19.77-16.61a181.77,181.77,0,0,0-23-9.74c-5.66-1.91-11-9.84-7.68-15.61,1.1-1.94,2.59-3.67,3.35-5.77,1.33-3.68,1.62-7.07.07-10.76a43,43,0,0,1-3.51-5c-4.3-7.17-6.49-13.15-7-17.19Z" style="fill:#c8856a"></path><path d="M277.63,135.48a56.59,56.59,0,0,0-6.11-14.12c-4.62,1.2-7.13,13.13-16.64,13.56-6.74.3-20.68-5.54-27.56-5.72s-12.4,14.64-11.23,20,10.54,20.29,24.54,18,11.9,7,10.66,10.45,1.1,8.33,2.7,10.59-.24,2.39-.69,10.85.63,8.4,2.75,11.58,2.06,3,1.32,9.19A91.53,91.53,0,0,0,257,231a40.37,40.37,0,0,1,5.74,6.69,66.74,66.74,0,0,0,8.71-13.32c-.06-.91-.09-1.76-.07-2.53.22-7.45-3.54-11.27-2.23-13.69s4.93-9.09,1.91-13.82a16.73,16.73,0,0,1-2.17-14.1c1.34-4.21-1.38-9.49-2.14-12s1.29-8.09,2.88-8.24,3.26,1.52,7.85-1.41C279.73,156.29,280.12,143.93,277.63,135.48Z" style="fill:#af6152;opacity:0.30000000000000004"></path><path d="M213.78,176c1.44,1.67,3,3.2,4.55,4.81,2.57,2.7,5.24,6,5.81,9.78,0,.14-.18.36-.26.16a21.27,21.27,0,0,0-2.81-5.15c-1.22-1.61-1.65-2.12-2.93-3.68-.67-.83-1.18-1.38-2-2.38s-1.35-1.64-2.33-2.92a14.54,14.54,0,0,1-1.53-2.5C212.75,174.8,213.25,175.43,213.78,176Z" style="fill:#af6152"></path><path d="M245.54,127.65c-3.36-2.37-18.88-2.81-22.69-2.85s-3.71.48,2.62,1.09c5.79.56,15.37,1.17,19.18,3,3.18,1.52,6,3.38,4.9,2.19A21.45,21.45,0,0,0,245.54,127.65Z" style="fill:#af6152"></path><path d="M256.56,126.05c-.65,1-1.82,4.47-1.07,4.66s1.15-2.4,3-4.57,6.1-6.78,7-7.75,4.25-4.91,1.1-2.15A133,133,0,0,0,256.56,126.05Z" style="fill:#af6152"></path><path d="M261.18,201.59a5.21,5.21,0,0,0-.36-.55.75.75,0,0,1,0-.78c.12-.21.45-.54.72-.36-.1-.06.12,0,.14.07l.12.11c.11.09.22.2.32.3a4.34,4.34,0,0,1,.46.58,4.56,4.56,0,0,1,.54,1.38c.27,1.17.25,2.95-.94,3.62-.08,0-.23.1-.31,0-.45-.31-.32-.87-.21-1.3v-.06l0-.13c0-.13,0-.25,0-.38a2.3,2.3,0,0,0,0-.37v-.11s0-.11,0-.12,0-.28-.06-.41l0,0a3.7,3.7,0,0,0-.42.37c-.37.38-.62.84-.95,1.25-.16.2-.33-.06-.32-.22a2.64,2.64,0,0,1,.6-1.38,5.36,5.36,0,0,1,.88-.9h0A5.65,5.65,0,0,0,261.18,201.59Z" style="fill:#af6152"></path><g style="opacity:0.48"><path d="M257.76,154.76c3,1,2.69,5.29,2.26,7.69a9.65,9.65,0,0,0,.39,5.82c.6,1.45,1.43,2.81,1.93,4.32a8.51,8.51,0,0,1,.16,4.64c-.45,2-1.41,3.79-1.49,5.82s.73,4.06,1.28,6a16.12,16.12,0,0,1,.16,7.69.43.43,0,0,1-.51-.15,1.32,1.32,0,0,1-.18-.55,43.26,43.26,0,0,0-1.3-6.08,49,49,0,0,1-1.38-4.72,10.63,10.63,0,0,1,.34-5.16c.54-1.87,1.4-3.78,1.15-5.78-.39-3-2.76-5.38-2.77-8.53,0-3.67,2.79-7.33-.29-10.46C257.35,155.16,257.5,154.68,257.76,154.76Z" style="fill:#af6152"></path><path d="M230.08,165.9c3.87,2.16,9.64,2.07,13,1.51,4.05-.65,7.05-2.14,10.83-4.23a28.54,28.54,0,0,1,3.29-1.71c2.78-1.1,4.78-.31,7.33-.12a27.65,27.65,0,0,0,11.83-1.82c2.14-.81-7.93-.36-9.88-.47a11.79,11.79,0,0,1-4-1,4.32,4.32,0,0,1-2-2.76,37.12,37.12,0,0,1-.77-3.69c-.5-3.2-2-8-3.21-6.43a.91.91,0,0,0-.14.58c0,2.76,1.38,7.69.4,11s-4.47,5.08-8.24,6.47a37.79,37.79,0,0,1-12.35,2.52C231.85,165.83,227.59,164.51,230.08,165.9Z" style="fill:#af6152"></path><path d="M262.67,208.5a22.27,22.27,0,0,1,1.38,5.15,40.27,40.27,0,0,1,.75,4.76,30.93,30.93,0,0,1-1.36,9.92c0,.12-.15.08-.14,0,.18-3.13.63-6.22.22-9.35-.2-1.54-.46-3.07-.69-4.6-.13-.81-.27-1.62-.37-2.43a17.32,17.32,0,0,1-.1-3.22C262.36,208.59,262.57,208.29,262.67,208.5Z" style="fill:#af6152"></path><path d="M275.08,211c.09-1.11.15-2.22.23-3.33,0-.19,0-2.4.48-2.29.28.06.33.32.36.58.06.56.06,1.12.07,1.68,0,1,0,2-.08,3-.08,1.25-.2,2.5-.35,3.75-.56,1.57-1.18,3.16-1.85,4.73A77.17,77.17,0,0,0,275.08,211Z" style="fill:#af6152"></path><path d="M239.62,207.24c2.4,2.62,4.89,5.17,7.26,7.84A48.37,48.37,0,0,1,254.66,227c.44.95.83,1.91,1.21,2.87-1-.87-2-1.72-3-2.53a51.48,51.48,0,0,0-3.32-6,54.87,54.87,0,0,0-3.52-4.74c-1.28-1.59-2.74-3-4.05-4.57-1.69-2-3.41-4.07-5.07-6.14a23.77,23.77,0,0,1-2.87-4.4,1.86,1.86,0,0,1-.26-1.27A81.43,81.43,0,0,0,239.62,207.24Z" style="fill:#af6152"></path><path d="M277.87,167.75c-.72.63-1.5,1.22-2.26,1.78a20.73,20.73,0,0,1-3.14,1.94,23.48,23.48,0,0,1-7.8,2.07c-.09,0-.11.19,0,.21a14.41,14.41,0,0,0,8.34-1.36,16,16,0,0,0,3.47-2.13A14.7,14.7,0,0,0,277.8,169C277.82,168.57,277.85,168.16,277.87,167.75Z" style="fill:#af6152"></path><path d="M256.05,192.24c-2,.41-4.42,1.1-6.46.93a13.68,13.68,0,0,1-5.56-1.61,9.53,9.53,0,0,1-3.69-4.34,19.24,19.24,0,0,1-1.1-3.08,14.67,14.67,0,0,1-.47-3.07,2.24,2.24,0,0,1,.12-1c.22.1.3.37.36.61a32,32,0,0,0,2.2,5.9,7.49,7.49,0,0,0,5.23,4.56,25.18,25.18,0,0,0,8.17.32,2.05,2.05,0,0,1,1.51.17.39.39,0,0,1,.17.25C256.55,192.08,256.27,192.2,256.05,192.24Z" style="fill:#af6152"></path><path d="M267.65,204.53a3.9,3.9,0,0,1,.35-.19,20.16,20.16,0,0,0,3.46-1.77,10.23,10.23,0,0,0,2.85-3,12.92,12.92,0,0,0,1.54-4.82,24.61,24.61,0,0,0,.27-5.07c0-.08.07-.07.08,0a18.69,18.69,0,0,1,.58,5.71,11.83,11.83,0,0,1-1.49,4.77,10.17,10.17,0,0,1-3.2,3.42,8.5,8.5,0,0,1-2.19,1,4.24,4.24,0,0,1-2.27.2s-.09-.06-.09-.11A.15.15,0,0,1,267.65,204.53Z" style="fill:#af6152"></path><path d="M265.63,191.12c-.23-.06-.09-.35,0-.46.2-.33,1.09-.53,1.44-.67l1-.41a16.28,16.28,0,0,0,1.89-1,18,18,0,0,0,3.28-2.75,13.07,13.07,0,0,0,2.46-3.6c.34-.71.67-1.42,1-2.15-.08.8-.13,1.59-.15,2.39-.06.12-.1.25-.16.38a17.13,17.13,0,0,1-2.75,4.27,14.06,14.06,0,0,1-3.5,2.73,12,12,0,0,1-2,.9A4.82,4.82,0,0,1,265.63,191.12Z" style="fill:#af6152"></path><path d="M231.56,172.11a27.23,27.23,0,0,0,10.48,4,40.05,40.05,0,0,0,12.56-.17c.22,0,.21.31,0,.35a34.36,34.36,0,0,1-13.2,1c-4-.52-8.43-1.81-11.11-4.45C229.78,172.28,231,171.78,231.56,172.11Z" style="fill:#af6152"></path><path d="M241.74,202a11.45,11.45,0,0,1-1.12-2.1,12.44,12.44,0,0,1-.66-2.55c-.09-.59-.16-1.19-.24-1.8a1.4,1.4,0,0,1,0-.5.51.51,0,0,1,.31-.38h.11a.23.23,0,0,1,.08.16,16.46,16.46,0,0,0,1.41,4.62,12.27,12.27,0,0,0,1.14,2,11.69,11.69,0,0,0,3.19,3.12c2.84,1.86,6.4,2,9.69,1.85.42,0,.91,0,1.12.35a14.83,14.83,0,0,1-3.92.72,13.2,13.2,0,0,1-3.19-.28,12.19,12.19,0,0,1-7.92-5.24Z" style="fill:#af6152"></path></g><path d="M254.74,220.53c-.05,1.47-.09,2.95-.13,4.42a40.49,40.49,0,0,1-7-8.11,17.53,17.53,0,0,0-.21,4.28,26,26,0,0,1-8.23-9.64,5.64,5.64,0,0,0-1.13-1.77,1.69,1.69,0,0,0-1.95-.33c-1.23.76-.4,3-1.52,3.92-.84.7-2.16.1-2.87-.73a10,10,0,0,0-2.14-2.47c-1-.56-2.57,0-2.44,1.05l-2.6-3.6a1.07,1.07,0,0,0-.61-.5c-.59-.12-.9.67-1.37,1-.83.66-2-.12-2.66-1-2.18-3-2.17-7-2.07-10.66a3.59,3.59,0,0,0-2.84,2,10.52,10.52,0,0,0-1,3.47,8.42,8.42,0,0,1-1.18-6,4.91,4.91,0,0,0,.17-1.82,1.2,1.2,0,0,0-1.28-1,1.67,1.67,0,0,0-.91.81c-4,6.25-3.5,14.64-.39,21.41a41.3,41.3,0,0,0,11.45,14.28,90,90,0,0,0,15.53,9.93c6.29,3.34,12.9,6.42,20,7.11a11.35,11.35,0,0,0,4.23-.21,11.24,11.24,0,0,0,4.82-3.28,55.17,55.17,0,0,0,6.78-9.52,54.46,54.46,0,0,0,5.7-11.17c2.14-6.48,1.78-13.49,1.4-20.31-.15-2.68-.45-5.67-2.48-7.44a70,70,0,0,1-1.07,9.37,2.83,2.83,0,0,0-.93-1.2,1,1,0,0,0-1.35.27,1.5,1.5,0,0,0-.09.52q-.24,3.79-.46,7.59L272.27,210q-2.14,7.61-4.3,15.21c0-1.85-.12-3.9-1.41-5.24.64.67-1.11,5.58-1.38,6.44-.46,1.44-.93,4.34-2.94,3.05-1.23-.8-2-3.55-2.93-4.77A18.09,18.09,0,0,0,254.74,220.53Z" style="fill:#37474f"></path><path d="M252.75,135.55a2.5,2.5,0,0,1,2.09-2.4,2.59,2.59,0,0,1,2.69,1.65,14.24,14.24,0,0,1,7.53-8.61,7.83,7.83,0,0,0-.54,4,9,9,0,0,1,4.4-4.87,26.44,26.44,0,0,1,6.35-2.16c1,2.19,0,4.71-1,6.9a19.12,19.12,0,0,0,3.78-2.22,12.57,12.57,0,0,1-.85,10.75l3-1.05a1.43,1.43,0,0,1,1.14-.07,1.39,1.39,0,0,1,.54,1.24,11.79,11.79,0,0,1-2.39,7.57l2.58-.05a9.19,9.19,0,0,1-9,9.69c1.31,1.72.59,4.41-1.09,5.77a8.52,8.52,0,0,1-6.16,1.46,8.54,8.54,0,0,1,4.29,7.58,32.08,32.08,0,0,0-3.87-.82.66.66,0,0,0-.57.09c-.2.2-.08.54.05.78,2,3.63,4.34,7.05,3.9,11.4a7,7,0,0,0-3.73-2.87,9,9,0,0,1,2.06,9.77c-.74,1.76-1.9,3.29-2.68,5a2.92,2.92,0,0,0-.5,1.91,4.05,4.05,0,0,0,.41,1.23c.11.21.45.88.69.93a12.35,12.35,0,0,1-5.69-2.94,8.78,8.78,0,0,1-1.11-1.17,9,9,0,0,1-1.46-3.06,12.1,12.1,0,0,1-.46-2.61,10.65,10.65,0,0,1,.65-4.29,6.11,6.11,0,0,0-2.66,2.13c-.18.26-.42.57-.73.5a.63.63,0,0,1-.26-.16c-1-1-1.11-2.79-1-4.07a13.34,13.34,0,0,1,2.28-6.45,8.53,8.53,0,0,0-3.57,2.27,6.41,6.41,0,0,1-.82-4.75,9.8,9.8,0,0,1,2.2-4.37,23.66,23.66,0,0,1-4.82,2.29,1.41,1.41,0,0,1-.83.12c-.55-.12-.8-.76-.9-1.32a7.92,7.92,0,0,1,2-6.61,21.42,21.42,0,0,1-5,1.8,27,27,0,0,1-5,.86,18.89,18.89,0,0,1-8-1.39,1.41,1.41,0,0,1-.73-.51c-.32-.56.2-1.23.67-1.67l2.71-2.5a30,30,0,0,1-10.08-2c-1-.4-2.14-1-2.42-2-.49-1.79,1.63-3.12,2.32-4.84a29.68,29.68,0,0,1-7.52-3.36,2.85,2.85,0,0,1-1.52-1.79c-.17-1.28,1.27-2.11,2.47-2.58l6.62-2.55a13.86,13.86,0,0,1-5.68-5.16,17.24,17.24,0,0,1,13.06-1.52,10,10,0,0,1-2.71-3.6,20.87,20.87,0,0,1,15.84,4.05,9.08,9.08,0,0,1-2-3.73,11.93,11.93,0,0,1,10.68,4.19" style="fill:#37474f"></path></g><g id="Head"><path d="M222.2,65.87c-4.08,1.46-6,6.16-4.2,14,1.37,5.83,4.68,15.8,5.05,18.81.55,4.52-2.28,6.39-2.28,6.39a5.05,5.05,0,0,0,5.14-1.3s0,3.58-1.82,5.28c3.81.21,5-1.56,5.66-2.92l-2-40.48Z" style="fill:#37474f"></path><path d="M246.72,66.07c-.61,2,3.9,3.16,8,2.05,3.42-.93,6.87-3.82,6.9-6.51.5-5.93-5.93-14.43-15-17.18-10.17-3.08-16,3.7-17.06,6.53s-1.41,6.25.14,11.16c.64,2.05.26,4.29-1.77,5.18a4.16,4.16,0,0,1-4.85-2.17c-.79,3,3.21,6.18,6.61,6,4.35-.23,7.09-3.49,6.53-9.18-.51-5.15,3.32-6.38,6.08-5A8.72,8.72,0,0,1,246.72,66.07Z" style="fill:#BA68C8"></path><path d="M230.48,64a5.16,5.16,0,0,1,1.69,1.63,1,1,0,0,1,.1.18,2.23,2.23,0,0,0,.1-.43c0-.14,0-.26.06-.39a5.21,5.21,0,0,0-2.54-1.92c0,.21.05.43.06.65A3.84,3.84,0,0,1,230.48,64Zm2.11-1c0-.3,0-.61,0-.9a6.31,6.31,0,0,0-.88-.66,6.1,6.1,0,0,0-2.53-1c.07.25.13.51.2.78a10.35,10.35,0,0,1,2.2,1A8.47,8.47,0,0,1,232.59,63ZM224,66.43l-.31.16a2.71,2.71,0,0,1-.43.14,4.44,4.44,0,0,0,.34.64,2.17,2.17,0,0,0,.35-.15,1.9,1.9,0,0,0,.45-.34l.07-.12A5,5,0,0,1,224,66.43Zm1.64.86a2.78,2.78,0,0,1-.38-.12,1.52,1.52,0,0,1-.48.6,3.06,3.06,0,0,1-.6.38,5.55,5.55,0,0,0,.49.48,2.44,2.44,0,0,0,.82-.87A2.57,2.57,0,0,0,225.67,67.29Zm7.13-8.12a8.53,8.53,0,0,0-4.09-1.51c0,.22,0,.46.09.71A10.57,10.57,0,0,1,232.68,60Q232.73,59.59,232.8,59.17Zm3.36-7.86a11,11,0,0,1,1.4,3.78,4.26,4.26,0,0,1,.61,0A10.74,10.74,0,0,0,236.74,51a11.64,11.64,0,0,0-2.39-2.84,12.24,12.24,0,0,0-1.71-1.23c-.21.18-.39.35-.57.53a12.87,12.87,0,0,1,1.51,1A10.68,10.68,0,0,1,236.16,51.31Zm2.49-1.61a12.78,12.78,0,0,1,.79,5.67,2.8,2.8,0,0,1,.41.13c.6-2,.06-4.11-.57-6a11.5,11.5,0,0,0-2-3.78,8.75,8.75,0,0,0-1-1l-.65.29a10.18,10.18,0,0,1,1.24,1.3A10.68,10.68,0,0,1,238.65,49.7ZM233,57.05c.17.13.33.28.5.42a5.39,5.39,0,0,1,.43-.6c-.18-.17-.36-.32-.55-.47a10.6,10.6,0,0,0-2.69-1.59,8.2,8.2,0,0,0-1.93-.59c0,.25-.05.51-.07.77a15.24,15.24,0,0,1,1.82.56A10.71,10.71,0,0,1,233,57.05Zm.42-3.22a11,11,0,0,1,1.62,2,5,5,0,0,1,.59-.34,12.43,12.43,0,0,0-1.85-2.3,11.44,11.44,0,0,0-2.71-2,10.84,10.84,0,0,0-1.36-.57c0,.1-.09.2-.13.29l-.14.39a8.43,8.43,0,0,1,1.33.54A10.51,10.51,0,0,1,233.37,53.83ZM251.48,55c1.24-1.92,2.49-4.33,2.54-6.69-.17-.14-.36-.27-.55-.41-.07,2.4-1.43,4.93-2.65,6.78a16.43,16.43,0,0,1-3.18,3.63,10.61,10.61,0,0,1-2.26,1.46,6.41,6.41,0,0,1,.38.62,14,14,0,0,0,1.75-1.09A16.1,16.1,0,0,0,251.48,55Zm-2.88-3.16a13.65,13.65,0,0,0,.79-4.94,7.69,7.69,0,0,0-.28-1.52l-.72-.32a6.72,6.72,0,0,1,.36,2,14.44,14.44,0,0,1-.85,4.68,17.11,17.11,0,0,1-2,4.43,9.33,9.33,0,0,1-1.86,2,7.73,7.73,0,0,1,.56.58,9.89,9.89,0,0,0,1.74-1.94A17.52,17.52,0,0,0,248.6,51.85Zm12.3,5.45a11.6,11.6,0,0,0-.51-1.24,6.78,6.78,0,0,1-.5,1.5,8.54,8.54,0,0,1-1.59,2.18,16,16,0,0,1-4.63,3.12,13.07,13.07,0,0,1-4.79,1.25,10.5,10.5,0,0,1-2.09-.1c0,.26,0,.53,0,.79a10.65,10.65,0,0,0,2.46.09,15,15,0,0,0,5.35-1.58,14.79,14.79,0,0,0,4.81-3.5A7.85,7.85,0,0,0,260.9,57.3ZM227,67.47a3.53,3.53,0,0,1-.46,0,.71.71,0,0,1,0,.14,1.93,1.93,0,0,1-.11.53,4,4,0,0,1-.59,1.09l-.07.09a2.6,2.6,0,0,0,.55.21,4.12,4.12,0,0,0,.61-1.31A2.54,2.54,0,0,0,227,67.47Zm17.18-23.59c-.3-.06-.59-.09-.88-.13a12.3,12.3,0,0,1,1.45,6.08,13.46,13.46,0,0,1-2.4,7.06,3.17,3.17,0,0,1,.35.29A12.45,12.45,0,0,0,244.22,43.88Zm12.35,11.31A9,9,0,0,0,257.84,52c-.14-.18-.29-.35-.44-.53a10.57,10.57,0,0,1-1.55,3.5,17.9,17.9,0,0,1-3.44,3.88,12.09,12.09,0,0,1-4,2.24,7.92,7.92,0,0,1-2.17.38c.09.26.17.51.24.77a12.1,12.1,0,0,0,6.55-3A18.3,18.3,0,0,0,256.57,55.19ZM242.32,49.1a11,11,0,0,0-1.59-4.3c-.22-.35-.47-.72-.74-1.07-.3,0-.6.08-.89.13a8.3,8.3,0,0,1,1,1.27,10.18,10.18,0,0,1,1.49,4A11,11,0,0,1,240.8,55c-.1.24-.21.47-.33.7.14.07.3.14.44.22v0a10.75,10.75,0,0,0,1-2.22A10.2,10.2,0,0,0,242.32,49.1ZM228.73,67.44a3.27,3.27,0,0,0-.13-.54c-.13.09-.28.16-.41.24a3.74,3.74,0,0,1-.11,2,4.69,4.69,0,0,1-.18.45.65.65,0,0,0,.2,0l.39-.08a3.56,3.56,0,0,0,.16-.53A4.15,4.15,0,0,0,228.73,67.44ZM230,66.11a3.34,3.34,0,0,0-.45-.47,4.4,4.4,0,0,1-.29.51,2.42,2.42,0,0,1,.31.33,3.58,3.58,0,0,1,.67,1.37,2.8,2.8,0,0,1,.07.76,4.23,4.23,0,0,0,.51-.44,2.9,2.9,0,0,0-.06-.41A3.9,3.9,0,0,0,230,66.11Z" style="opacity:0.2"></path><path d="M242.27,56.93c.26.13.4.21.53.29-2.84-2.4-7.13-3.37-9.41.35-1.21,2-.48,4.84-1,7.83a5.38,5.38,0,0,1-4.27,4.22c-3.12.56-5.41-2.8-5-4.49-.79,3,3.21,6.18,6.61,6,4.35-.23,7.09-3.49,6.53-9.18C235.68,56.8,239.51,55.57,242.27,56.93Z" style="opacity:0.35000000000000003"></path><path d="M262.18,82c-1-2.06.4-3.51.26-5.72-.3-4.82-4.16-9.49-7.05-11.72-2.51-1.31-3.78,4-8,4.57-4.46.65-10.85-3.17-15.13.77,2,5.79-1.39,12.79-2.11,15.47-.83,3.12,1.07,5.65-3.14,1.64a42.36,42.36,0,0,0-.18,9.17s1,10.42,1.2,14.57c.32,7-4.23,8.1-4.23,8.1l8.57.87s13.9.55,26.07-4.19c-3.67-.58-6-.87-6.22-3.87-.19-2.16-.24-3.59-.24-3.59a8.85,8.85,0,0,0,3.59-1.12,21.44,21.44,0,0,0,7.6-8.19c.93-2.08.74-6.85.64-10.37A15.69,15.69,0,0,0,262.18,82Z" style="fill:#c8856a"></path><path d="M237,114.39c-2.07-2.8-3.79-5.84-5.58-8.82,0-.08-.14,0-.11.05a28.71,28.71,0,0,0,4.69,9,34,34,0,0,0,7.28,7.48c.16.12.29,0,.16-.19A87,87,0,0,1,237,114.39Z" style="fill:#af6152;opacity:0.5"></path><path d="M251.94,108.11a32.12,32.12,0,0,1-14-2.52C233,103.18,231,96.43,231,96.43s.82,8.61,6.13,11.38c6.61,3.45,15,4,15,4C252.08,110.61,252,109.38,251.94,108.11Z" style="fill:#af6152"></path><path d="M243.8,78.26a4.78,4.78,0,0,1-1.55,1,.44.44,0,0,1-.25.06.39.39,0,0,1-.3-.51,1.14,1.14,0,0,1,.4-.55,4.21,4.21,0,0,1-1.3,1.22,2.25,2.25,0,0,1-.68.37.73.73,0,0,1-.72-.18.44.44,0,0,1,.09-.66,5,5,0,0,1-2,1.24.73.73,0,0,1-.41.06.57.57,0,0,1-.36-.64,1.5,1.5,0,0,1,.36-.71,3.21,3.21,0,0,1-1.37.19.44.44,0,0,1-.3-.1c-.13-.16,0-.39.13-.54a4.55,4.55,0,0,1,1.55-1.14c.28-.12,1.57-.67,1.79-.52l-1.32-.9a5.44,5.44,0,0,1,4.33.27c-.27-.3-.54-.78-.24-1a.69.69,0,0,1,.7-.06c.93.31,2.63,1.74,1.71,2.81A2.44,2.44,0,0,1,243.8,78.26Z" style="fill:#263238"></path><path d="M240.39,84.25a2.64,2.64,0,0,0,2.5,1c1.2-.08,2.23-1.15,2-2.14s-1.66-1.4-2.84-1.23C239.77,82.26,239.88,83.32,240.39,84.25Z" style="fill:#263238"></path><path d="M260.31,81.33a2.53,2.53,0,0,1-1.88,1.79,1.92,1.92,0,0,1-2.5-1.25c-.11-1,1-1.82,2.13-2.06C260.19,79.34,260.46,80.33,260.31,81.33Z" style="fill:#263238"></path><path d="M257.24,89.29l-6.62,2.54L248,80.15C251.14,79.51,254.33,84.32,257.24,89.29Z" style="fill:#af6152"></path><path d="M245.33,94.43l5.73,1.19a2.88,2.88,0,0,1-3.4,2.36A3.07,3.07,0,0,1,245.33,94.43Z" style="fill:#af6152"></path><path d="M249,97.93a3.12,3.12,0,0,0-3.21-2.6,2.12,2.12,0,0,0-.44.06A3,3,0,0,0,247.66,98,2.89,2.89,0,0,0,249,97.93Z" style="fill:#ffa8a7"></path><path d="M254.74,76a4.81,4.81,0,0,0,1.69.81.72.72,0,0,0,.25,0,.41.41,0,0,0,.23-.56,1.23,1.23,0,0,0-.48-.48,4.42,4.42,0,0,0,1.46,1,2.36,2.36,0,0,0,.73.26.72.72,0,0,0,.68-.28.45.45,0,0,0-.19-.65,5.1,5.1,0,0,0,2.16.94.75.75,0,0,0,.42,0,.56.56,0,0,0,.26-.69,1.65,1.65,0,0,0-.46-.65,3.21,3.21,0,0,0,1.38,0,.44.44,0,0,0,.28-.14c.11-.18,0-.39-.21-.52a4.55,4.55,0,0,0-1.7-.89c-.29-.08-1.65-.44-1.85-.26l1.18-1.09a5.46,5.46,0,0,0-4.24.91c.22-.33.41-.85.08-1.08a.71.71,0,0,0-.7.05c-.88.44-2.35,2.11-1.28,3Z" style="fill:#263238"></path><g id="Ear"><path d="M213.59,77.52c-.74,1.41.28,7.6,4.21,11.74a10.44,10.44,0,0,0,9.11,2.94c2.44-.42,4-1.21,4.13-2.44a6.29,6.29,0,0,0-3.1-5.45C225.35,82.57,216.29,74.56,213.59,77.52Z" style="fill:#c8856a"></path><path d="M231,89.76c.26-2.51-.35-5.9-3.23-7.37a84.41,84.41,0,0,1-8.12-4.78c-2.66-1.63-4.88-1.81-6.1-.09,1.53-1.18,3.68.52,6.32,3a24.14,24.14,0,0,0,6.18,4.41C228.55,86.07,230.61,87.41,231,89.76Z" style="fill:#263238"></path><path d="M223.33,85.74a4.58,4.58,0,0,1,1.07-.45c.06,0,0-.17,0-.2a1.8,1.8,0,0,0-1.78.43,2.59,2.59,0,0,0-.89,1.69,3.61,3.61,0,0,0,.32,1.94,4.42,4.42,0,0,0,.53.82,4.67,4.67,0,0,0,.44.45,1.62,1.62,0,0,0,.54.4.07.07,0,0,0,.1,0c.1-.24-.15-.52-.25-.73s-.26-.48-.38-.73a4.54,4.54,0,0,1-.48-1.66,2.42,2.42,0,0,1,.36-1.44A2,2,0,0,1,223.33,85.74Z" style="fill:#af6152"></path></g><path d="M263.85,92.94c-.18,2.07-.58,5.56-3.25,7.83s-3.21,2.47-4.29,2.54-1.49-2.17-1.49-2.17l-.52,1.38-1.2-1.66-.48,2-.92-1.39s.49,2.93-1.06,3-8.3-.58-11.77-2.57c-4-2.3-3.78-2.34-5.29-6.39a24.68,24.68,0,0,1-1.53-6.11A3.65,3.65,0,0,0,234.18,91a20.48,20.48,0,0,1-2.83-9.27s-2.38.34-2.69,4.65c-.35,4.79-1,14.53,4.13,18.15-1-3.08-.64-4.38-.64-4.38a10.11,10.11,0,0,0,4.42,5.91c3.56,2.11,7,2.77,9.84,3.62s6.24,2,8,1.95c-2.19-1.52-2.11-2.69-2.11-2.69s3,3.48,7.12,2.46a7.27,7.27,0,0,1-3.75-3.33s3.84,2,6.73.79c-3.47-1.17-3.89-3.47-3.89-3.47s3.47-2.7,4.29-4,1.33-5,1.33-5a4.86,4.86,0,0,0,1.63.26A7.25,7.25,0,0,1,263.85,92.94Z" style="fill:#37474f"></path><path d="M223.5,80c2.6,1.79,4.91,2.29,6.06,3.79a23.58,23.58,0,0,0,5.75,1.9,19,19,0,0,1-2.14-10.09,10.5,10.5,0,0,0,9.89.82s-5.74-1.68-6.88-5.58c4.3,1.56,9.41,3.68,11,6.91,0,0,1.58-4.06.24-6.3,0,0,1.82,2.53,1.31,7.22,2.45-1.09,5.59-5.3,3.9-9.69,2.42,3.21,9.18,2.08,9.74,8.55,2.2-1.29,1.72-4.64,1.72-4.64s4.32-3.56-.65-8.91a6.46,6.46,0,0,1,3.83,2.87s.14-8.57-8-9.13A4.4,4.4,0,0,0,261,52.51s-1.65,1.76-5.87,1.7-7.46-2.15-10.8.52c0,0,1.07-1.93,4.7-3.24,0,0-6.25-.88-10.69,3a6.89,6.89,0,0,1-.23-4.13s-5,1.32-5.53,6.31c-4.92-2.31-8.53-1.44-11.08.39A7.11,7.11,0,0,1,226,58.54a17.83,17.83,0,0,0-6.22,3.52,10.75,10.75,0,0,0-3.19,6s3.13-2.37,5.57-2.22Z" style="fill:#37474f"></path><path d="M229.93,91.23s2.47,14.33-2.09,17.08l-1.93-16A9.87,9.87,0,0,0,229.93,91.23Z" style="fill:#37474f"></path><path d="M219.55,75.32c.87,1.9,5-.22,7.33-3.75,1.94-3,2.61-7.42.85-9.45-3.57-4.77-14-6.87-22.63-2.9-9.65,4.44-9.49,13.36-8.43,16.2s3.09,5.62,7.51,8.26c1.84,1.11,3,3,2.11,5.06a4.17,4.17,0,0,1-5.07,1.59c1.43,2.8,6.5,2.49,8.93.1,3.1-3.06,3-7.32-1.21-11.2-3.79-3.51-1.74-7,1.23-7.79A8.7,8.7,0,0,1,219.55,75.32Z" style="fill:#BA68C8"></path><path d="M206.05,84.57a5.14,5.14,0,0,1,2.34.09l.2.07c-.07-.14-.14-.26-.22-.39s-.14-.22-.2-.33a5.27,5.27,0,0,0-3.19.25l.49.44A5.43,5.43,0,0,1,206.05,84.57Zm.89-2.17c-.2-.24-.39-.47-.59-.69a6.92,6.92,0,0,0-1.1.1,6.28,6.28,0,0,0-2.56.92l.67.45a10,10,0,0,1,2.31-.71A8.93,8.93,0,0,1,206.94,82.4Zm-4.12,8.25a3.05,3.05,0,0,1-.13.32,1.54,1.54,0,0,1-.23.39,4.57,4.57,0,0,0,.68.26,1.62,1.62,0,0,0,.17-.35,2.05,2.05,0,0,0,.1-.55.68.68,0,0,0,0-.14A5.54,5.54,0,0,1,202.82,90.65Zm1.8-.44-.37.16a1.49,1.49,0,0,1,0,.76,3.37,3.37,0,0,1-.19.69c.22,0,.45,0,.68,0a2.29,2.29,0,0,0,0-1.19A1.65,1.65,0,0,0,204.62,90.21Zm-.06-10.81A8.66,8.66,0,0,0,200.5,81a6.28,6.28,0,0,0,.54.47,10.78,10.78,0,0,1,4-1.32C204.88,79.89,204.71,79.65,204.56,79.4Zm-2.7-8.11a11.19,11.19,0,0,1,3.56,1.9c.15-.13.31-.26.48-.38a10.58,10.58,0,0,0-3.82-2.15,11.48,11.48,0,0,0-3.68-.54,10.92,10.92,0,0,0-2.09.22c0,.27-.06.52-.08.77a11.58,11.58,0,0,1,1.78-.28A10.67,10.67,0,0,1,201.86,71.29Zm.79-2.85A12.62,12.62,0,0,1,207,72.15a3.29,3.29,0,0,1,.39-.17c-.85-1.87-2.68-3.12-4.42-4.14a11.54,11.54,0,0,0-4-1.52,9.81,9.81,0,0,0-1.43-.09c-.11.21-.2.42-.29.64a10.81,10.81,0,0,1,1.79.15A10.62,10.62,0,0,1,202.65,68.44Zm.62,9.27h.65a4.91,4.91,0,0,1-.08-.74h-.72a10.72,10.72,0,0,0-3.07.6,8.29,8.29,0,0,0-1.83.84c.14.2.3.42.46.62a17,17,0,0,1,1.73-.79A10.7,10.7,0,0,1,203.27,77.71ZM201.45,75a11.18,11.18,0,0,1,2.56.45,3.83,3.83,0,0,1,.22-.65,13.31,13.31,0,0,0-2.92-.49,11.76,11.76,0,0,0-3.34.31,13.59,13.59,0,0,0-1.4.48c0,.11.07.21.1.3l.15.38a11.45,11.45,0,0,1,1.36-.47A10.88,10.88,0,0,1,201.45,75Zm14.33-11.13c-.35-2.26-1-4.89-2.54-6.69l-.68.06c1.54,1.84,2.2,4.63,2.51,6.83a16.29,16.29,0,0,1,0,4.83,10.67,10.67,0,0,1-.72,2.58l.69.22a13.89,13.89,0,0,0,.59-2A16.2,16.2,0,0,0,215.78,63.89Zm-4.25-.45a13.74,13.74,0,0,0-2.69-4.22,7.07,7.07,0,0,0-1.22-1l-.75.24a6.19,6.19,0,0,1,1.58,1.25,14.34,14.34,0,0,1,2.48,4.06,17.55,17.55,0,0,1,1.45,4.63,9.44,9.44,0,0,1,0,2.76c.26,0,.53,0,.79.06a9.14,9.14,0,0,0,0-2.61A17.75,17.75,0,0,0,211.53,63.44Zm12.82-4.09c-.38-.21-.78-.4-1.21-.59a6.29,6.29,0,0,1,.62,1.46A8.37,8.37,0,0,1,224,62.9a16.24,16.24,0,0,1-1.39,5.42,13.35,13.35,0,0,1-2.75,4.11,12.14,12.14,0,0,1-1.63,1.31c.18.17.36.37.54.57a10.51,10.51,0,0,0,1.89-1.57,14.77,14.77,0,0,0,3-4.73,14.78,14.78,0,0,0,1.27-5.81A8,8,0,0,0,224.35,59.35ZM205.76,89.42a3.47,3.47,0,0,1-.34.32l.08.1a2,2,0,0,1,.27.48,4.13,4.13,0,0,1,.29,1.2v.11a2.13,2.13,0,0,0,.55-.2A4.21,4.21,0,0,0,206.2,90,2.85,2.85,0,0,0,205.76,89.42Zm-2.8-29c-.26.16-.5.32-.74.49a12.3,12.3,0,0,1,5.12,3.58,13.34,13.34,0,0,1,2.88,6.88l.46,0A12.43,12.43,0,0,0,203,60.38Zm16.74.27a8.83,8.83,0,0,0-1.14-3.2l-.67-.1A10.69,10.69,0,0,1,219.05,61a17.91,17.91,0,0,1,0,5.17,12.13,12.13,0,0,1-1.48,4.31,7.9,7.9,0,0,1-1.38,1.74,7.1,7.1,0,0,1,.7.41,12.06,12.06,0,0,0,2.93-6.57A18.19,18.19,0,0,0,219.7,60.65ZM205,65.54a11,11,0,0,0-4-2.16c-.39-.11-.82-.22-1.26-.3-.2.22-.39.45-.58.68a8.63,8.63,0,0,1,1.58.3,10.2,10.2,0,0,1,3.81,2A11.63,11.63,0,0,1,207,69.2a11.12,11.12,0,0,1,.78,1.8c.08.24.15.49.22.75l.47-.14v0a11.35,11.35,0,0,0-.73-2.32A10.47,10.47,0,0,0,205,65.54Zm2,22.75a2.44,2.44,0,0,0-.45-.32c0,.15-.1.3-.15.45A3.68,3.68,0,0,1,207.68,90a4.13,4.13,0,0,1,.17.45.57.57,0,0,0,.13-.14l.24-.33c-.07-.17-.15-.34-.23-.49A3.92,3.92,0,0,0,207,88.29Zm.1-1.87a3.43,3.43,0,0,0-.65,0,3.38,3.38,0,0,1,.12.57,3.59,3.59,0,0,1,.46,0,3.3,3.3,0,0,1,1.41.58,3.06,3.06,0,0,1,.56.52,5.13,5.13,0,0,0,.09-.67,4.15,4.15,0,0,0-.32-.27A3.92,3.92,0,0,0,207.1,86.42Z" style="opacity:0.2"></path><path d="M210.17,71.44a3.79,3.79,0,0,1,.58-.13c-3.72.08-7.57,2.2-6.81,6.5.4,2.27,2.85,3.94,4.44,6.53a5.41,5.41,0,0,1-.4,6c-2,2.48-5.9,1.49-6.76,0,1.43,2.8,6.5,2.49,8.93.1,3.1-3.06,3-7.32-1.21-11.2C205.15,75.72,207.2,72.25,210.17,71.44Z" style="opacity:0.35000000000000003"></path></g><path d="M211.57,123c-8.83,1-14,5.42-17.5,11.29s-3.18,9.57-6.22,15.67a164.49,164.49,0,0,1-9.15,16.84,45.15,45.15,0,0,0-6.53,17.39L199.51,169l14.77-21.28S221,127.59,211.57,123Z" style="fill:#af6152"></path><path d="M212.83,139.46c2.25-.64,4-1.5,5.49-1.23s5,.78,6.37-1.06.44-2-1.58-2.53a19.74,19.74,0,0,0-5.74-1.06,49.88,49.88,0,0,0-7.35,1.3,4.22,4.22,0,0,0-1.94,2.15,4.24,4.24,0,0,0-3.18,1,20,20,0,0,0-2,2.56,3.09,3.09,0,0,0-2.57,1.39,55,55,0,0,0-2.47,5.95,2.47,2.47,0,0,0-1.67,2.07c-.35,1.78.06,5.4-.21,6.94s-.19,4.09-3.6,6.56-8.76,5.18-13.07,7.88-5.59,6.46-6.82,11.49-1.21,6.94,1.48,8.24,8.39.46,14-2.09,13-15.18,16.5-19.69,3.27-4.74,6.74-6.8,4-5.63,6-8.77,2.8-5.26,5-6.09,2.82-.58,4.17-1.17.47-2.81-2.07-3.79-6.53,0-6.53,0,.29-1.15-1.41-1.71A19.2,19.2,0,0,1,212.83,139.46Z" style="fill:#c8856a"></path><path d="M179.3,171.34a12.72,12.72,0,0,0-4.49,4.92,28,28,0,0,0-2.1,6.39c-.25,1.09-.49,2.19-.65,3.3a6.26,6.26,0,0,0,.18,3.2,3.83,3.83,0,0,0,2.41,1.89,9.8,9.8,0,0,0,3.25.32,25.18,25.18,0,0,0,6.51-1.36c1.06-.37,2.1-.76,3.12-1.23A13,13,0,0,0,189,188c.43-.34.9-.62,1.3-1a35.13,35.13,0,0,0,4.54-4.89c1.4-1.75,2.71-3.58,4-5.43l3.83-5.58c1.3-1.87,2.71-3.61,4.08-5.43a10.54,10.54,0,0,1,2.5-2.44c1-.68,2-1.17,2.8-1.84,1.68-1.35,2.59-3.41,3.55-5.45a24.87,24.87,0,0,1,1.65-3c.59-1,1.14-1.94,1.77-2.9a7.21,7.21,0,0,1,2.51-2.52,12.13,12.13,0,0,1,3.34-1,5.91,5.91,0,0,0,1.49-.45c.35-.16.4-.53.24-1a4,4,0,0,0-2.22-2,7.92,7.92,0,0,0-3.16-.5,18.11,18.11,0,0,0-3.29.36l-.5.11.11-.51a1.07,1.07,0,0,0-.51-1,5.92,5.92,0,0,0-1.36-.56,18.84,18.84,0,0,1-2.91-1.27l-.66-.33.71-.2c1-.26,1.93-.61,2.92-.9a8.77,8.77,0,0,1,1.54-.32,5.16,5.16,0,0,1,1.58.11,12.13,12.13,0,0,0,3,.2,3.81,3.81,0,0,0,2.64-1.06,3.35,3.35,0,0,0,.74-1.23c.14-.45-.39-.7-.84-.86-1-.31-2-.58-2.93-.86a18.26,18.26,0,0,0-3-.62,14.15,14.15,0,0,0-3,.18,14.85,14.85,0,0,1,3.05-.26,19.51,19.51,0,0,1,3,.54c1,.26,2,.5,3,.79a2.68,2.68,0,0,1,.73.34.77.77,0,0,1,.32.8,3.64,3.64,0,0,1-.77,1.39,4.23,4.23,0,0,1-2.86,1.26,12.85,12.85,0,0,1-3.1-.13,5.14,5.14,0,0,0-2.9.24c-1,.29-1.93.66-2.92.94l.05-.53a18.24,18.24,0,0,0,2.86,1.2,6,6,0,0,1,1.53.62,1.67,1.67,0,0,1,.78,1.68l-.4-.4a19,19,0,0,1,3.42-.44,8.9,8.9,0,0,1,3.48.51,4.69,4.69,0,0,1,2.67,2.42,2,2,0,0,1,.11,1.06,1.4,1.4,0,0,1-.71.91,6.17,6.17,0,0,1-1.73.54,13.34,13.34,0,0,0-1.6.38,9.16,9.16,0,0,0-1.5.57,6.51,6.51,0,0,0-2.19,2.26c-.6.92-1.15,1.91-1.74,2.88a25.9,25.9,0,0,0-1.6,2.92c-.93,2-1.88,4.25-3.76,5.79-.94.77-2,1.25-2.84,1.89a10.1,10.1,0,0,0-2.31,2.26c-1.36,1.78-2.8,3.54-4.08,5.37l-3.85,5.56c-1.3,1.85-2.63,3.68-4.05,5.45a36.06,36.06,0,0,1-4.68,5,13.24,13.24,0,0,1-1.39,1,14.4,14.4,0,0,1-1.55.82c-1,.45-2.11.84-3.2,1.2a25.8,25.8,0,0,1-6.71,1.29,10.1,10.1,0,0,1-3.44-.39,5.73,5.73,0,0,1-1.57-.82,3.4,3.4,0,0,1-1.14-1.4,6.62,6.62,0,0,1-.15-3.47c.19-1.13.47-2.22.75-3.32a28.39,28.39,0,0,1,2.28-6.38A12.72,12.72,0,0,1,179.3,171.34Z" style="fill:#af6152"></path><path d="M213.08,139.82a13.77,13.77,0,0,1-2.57-1.3c-.8-.51-1.59-1-2.43-1.49a5.26,5.26,0,0,1,1.4.42c.44.19.86.44,1.28.67A21.22,21.22,0,0,1,213.08,139.82Z" style="fill:#af6152"></path><path d="M202.89,140.55a18.6,18.6,0,0,1,4.25,1.28c.71.26,1.35.67,2,1s1.33.63,2,.92l1,.46a2.62,2.62,0,0,1,1,.65,1.94,1.94,0,0,1,.49,1.13,1.65,1.65,0,0,1-.4,1.15,3.28,3.28,0,0,1-2,1,6.65,6.65,0,0,1-2.23-.1,7.2,7.2,0,0,0,2.18-.13,3,3,0,0,0,1.79-1,1.36,1.36,0,0,0-.13-1.77,2.09,2.09,0,0,0-.85-.53l-1-.44c-.68-.31-1.34-.63-2-1s-1.28-.73-1.94-1A29.65,29.65,0,0,0,202.89,140.55Z" style="fill:#af6152"></path><path d="M205.9,159.8c.9-3.83,3.3-9.53,7.42-11.86,0,0-2.91.32-5.51,4.61A13.88,13.88,0,0,0,205.9,159.8Z" style="fill:#af6152"></path><path d="M193.72,157.45a1,1,0,0,0-.37.88,3,3,0,0,0,1.41,2.28,1,1,0,0,0,1,.07l106-65.26a1,1,0,0,0,.37-.88,2.93,2.93,0,0,0-1.4-2.28.92.92,0,0,0-.95-.07Z" style="fill:#BA68C8"></path><path d="M193.39,158.5a2.78,2.78,0,0,0,.39,1.13l107.86-66.4a2.8,2.8,0,0,0-.84-.87Z" style="fill:#fff;opacity:0.35000000000000003"></path><path d="M194.68,162.79a1.55,1.55,0,0,1-1.59-.12,5,5,0,0,1-2.33-3.79,1.56,1.56,0,0,1,.61-1.46,3.15,3.15,0,0,1,3.31,5.37Z" style="fill:#BA68C8"></path><path d="M194.68,162.79a1.55,1.55,0,0,1-1.59-.12,5,5,0,0,1-2.33-3.79,1.56,1.56,0,0,1,.61-1.46,3.15,3.15,0,0,1,3.31,5.37Z" style="opacity:0.2"></path><path d="M194.68,162.79a1.55,1.55,0,0,1-1.59-.12,5,5,0,0,1-2.33-3.79,1.36,1.36,0,0,1,2.19-1.36,5,5,0,0,1,2.34,3.8A1.54,1.54,0,0,1,194.68,162.79Z" style="fill:#BA68C8"></path><path d="M194.68,162.79a1.55,1.55,0,0,1-1.59-.12,5,5,0,0,1-2.33-3.79,1.36,1.36,0,0,1,2.19-1.36,5,5,0,0,1,2.34,3.8A1.54,1.54,0,0,1,194.68,162.79Z" style="opacity:0.35000000000000003"></path><path d="M194.26,162.11a1.17,1.17,0,0,1-1.18-.1,3.65,3.65,0,0,1-1.74-2.82,1,1,0,0,1,1.63-1,3.65,3.65,0,0,1,1.74,2.82A1.17,1.17,0,0,1,194.26,162.11Z" style="opacity:0.5"></path><path d="M217.63,143.16c.38,0,.55.25.36.59a1.32,1.32,0,0,1-1,.63c-.38,0-.55-.25-.36-.59A1.32,1.32,0,0,1,217.63,143.16Z" style="opacity:0.5"></path><path d="M225.35,138.4c.38,0,.55.26.36.59a1.33,1.33,0,0,1-1,.64c-.38,0-.55-.26-.36-.6A1.34,1.34,0,0,1,225.35,138.4Z" style="opacity:0.5"></path><path d="M233.07,133.65c.38,0,.55.25.36.59a1.32,1.32,0,0,1-1,.63c-.38,0-.55-.25-.36-.59A1.32,1.32,0,0,1,233.07,133.65Z" style="opacity:0.5"></path><path d="M240.79,128.89c.38,0,.55.26.36.59a1.33,1.33,0,0,1-1,.64c-.38,0-.55-.26-.36-.6A1.32,1.32,0,0,1,240.79,128.89Z" style="opacity:0.5"></path><path d="M248.51,124.13c.38,0,.55.26.36.6a1.32,1.32,0,0,1-1,.63c-.38,0-.54-.25-.36-.59A1.35,1.35,0,0,1,248.51,124.13Z" style="opacity:0.5"></path><path d="M256.23,119.38c.38,0,.55.25.36.59a1.33,1.33,0,0,1-1,.64c-.39,0-.55-.26-.37-.6A1.32,1.32,0,0,1,256.23,119.38Z" style="opacity:0.5"></path><path d="M274.36,107.81l-1.67,1a3.9,3.9,0,0,1,2.23,1.56l1.67-1A3.9,3.9,0,0,0,274.36,107.81Z" style="fill:#455a64"></path><path d="M272.69,108.83a3.69,3.69,0,0,1,2.11,1.41l1.3-.81a5.25,5.25,0,0,0-1.75-1.33L274,108Z" style="fill:#37474f"></path><path d="M199.29,152.29c1.54-.06,1.75-1.43,2.25-1.62s2.83,0,5-.33a2.44,2.44,0,0,0,2.46-2.28c.16-.88-.62-1.08-1.36-1.15l-4.6-.5c-1.3-.14-3.23.79-5.17,1.48Z" style="fill:#c8856a"></path><path d="M197.85,147.89c.91-.38,1.81-.78,2.73-1.14a5.77,5.77,0,0,1,3-.46c1,.08,2,.19,2.94.28l1.49.16a2.09,2.09,0,0,1,.78.25,1,1,0,0,1,.48.79,3.2,3.2,0,0,1-.12.8,3,3,0,0,1-.31.74,2.48,2.48,0,0,1-1.25,1,5.71,5.71,0,0,1-1.5.3c-.5.05-1,.07-1.49.08-1,0-2,0-2.93.08-.18,0-.33.26-.48.45a3.29,3.29,0,0,1-.49.57,2,2,0,0,1-1.37.51,2,2,0,0,0,1.29-.6,4.83,4.83,0,0,0,.43-.58c.14-.2.25-.46.56-.57a27.71,27.71,0,0,1,3-.22,11.48,11.48,0,0,0,2.86-.41,2,2,0,0,0,1-.83,3,3,0,0,0,.35-1.28c0-.37-.4-.56-.86-.63l-1.46-.17c-1-.12-2-.22-2.94-.35a5.34,5.34,0,0,0-2.84.32C199.72,147.25,198.79,147.61,197.85,147.89Z" style="fill:#af6152"></path><path d="M319.69,135.68a27.39,27.39,0,0,0-17.78-7.16c-7-.15-15.32.88-20.31,1s-13.28-1.45-15.45-2.34c-1.72-.7-4.29-3.09-7.34-5.2s-3.64-3.4-7.52-4.83-6.69-1.51-7.36-1.34c-1.37.34-3.92,3.28-4.57,4.22s1.88,1.75,3.14,1.2a13.9,13.9,0,0,0,2.62-1.52s2.94.75,3.58,1.82a3.65,3.65,0,0,1,.63,1.53l-3.51-.18a51.3,51.3,0,0,0-6-.11c-1.07.12-1.64,1.58-1.71,2.29a5.12,5.12,0,0,0,.34,1.76,9.84,9.84,0,0,0-2-.37c-1.06-.07-1.39,2.2-1.42,2.72a8.41,8.41,0,0,0,1,2.25l1.39-.86s3.34,1.07,4.58,1.64,1.84,1.65.28,1.55a28.29,28.29,0,0,1-5.22-.91c-2.31-.56-4.5-.93-5.64-1.11s-1.91,1.84.43,2.66,7.3,2.18,8.87,2.7,6.88,2,10.32,2.88,5.79,1.9,8.75,1.62a14.41,14.41,0,0,1,6,.27c2.28.55,14.14,3.52,18.95,5,5.08,1.54,14.38,3.87,20.24,2.93a26,26,0,0,0,12-5.13C319.23,142.87,323.26,139.17,319.69,135.68Zm-74.64-7.58c-1-.1-3.23-.36-3.23-.36a4.07,4.07,0,0,0,0-1.13s3.17.55,3.75.79S246.07,128.19,245.05,128.1Z" style="fill:#c8856a"></path><path d="M266.15,127.16a22.11,22.11,0,0,1-4-2.69c-1.29-1-2.59-1.94-3.93-2.86s-2.51-2.07-3.88-2.91a19,19,0,0,0-4.42-1.89,20.15,20.15,0,0,0-4.73-.89,5.52,5.52,0,0,0-1.16,0,3.11,3.11,0,0,0-1,.54,13.41,13.41,0,0,0-1.77,1.61c-.54.59-1.07,1.2-1.55,1.83-.63.55.37,1,1.06,1.11a3.26,3.26,0,0,0,1.12,0,2.09,2.09,0,0,0,.52-.13l.54-.25a13.38,13.38,0,0,0,2-1.25l.11-.08.12,0a11.64,11.64,0,0,1,2.75,1,4.46,4.46,0,0,1,.63.44,2.47,2.47,0,0,1,.5.64,4.12,4.12,0,0,1,.56,1.48l0,.3-.34,0c-2.39-.11-4.78-.26-7.16-.31-.6,0-1.2,0-1.78,0a2.39,2.39,0,0,0-.77.12,1.47,1.47,0,0,0-.55.46,3.2,3.2,0,0,0-.59,1.47,4.7,4.7,0,0,0,.32,1.6l.23.65-.66-.19a8.89,8.89,0,0,0-1.85-.35c-.39-.1-.69.48-.87,1a6.68,6.68,0,0,0-.2.91,2.29,2.29,0,0,0,0,.43,1.25,1.25,0,0,0,.1.34,12.79,12.79,0,0,0,.87,1.68l-.52-.13,1.39-.86.15-.1.17.06c.89.28,1.77.57,2.64.88l1.32.49a5.73,5.73,0,0,1,1.33.67,2.38,2.38,0,0,1,.58.6,1,1,0,0,1,.18.54.72.72,0,0,1-.37.62,1.68,1.68,0,0,1-.9.17l-.72,0a26,26,0,0,1-2.78-.45c-1.83-.42-3.62-.76-5.43-1.11l-1.35-.27-.68-.13a.48.48,0,0,0-.35.08.7.7,0,0,0-.22.77,1.44,1.44,0,0,0,.71.76,6.5,6.5,0,0,0,1.21.47l1.32.42,2.65.78c1.78.5,3.56,1.07,5.34,1.56l10.69,3a27.66,27.66,0,0,0,5.32,1.19c1.74.15,3.6-.34,5.54-.16a42.53,42.53,0,0,1,5.48,1.25l5.38,1.42,10.74,2.85A84.68,84.68,0,0,0,295.93,149a27.2,27.2,0,0,0,10.86,0,25.9,25.9,0,0,0,9.85-4.57,12.51,12.51,0,0,0,3.63-3.91,3.81,3.81,0,0,0,.41-2.46,4.4,4.4,0,0,0-1.29-2.17,25.7,25.7,0,0,0-9.35-5.57A27.88,27.88,0,0,0,304.7,129a35.94,35.94,0,0,0-5.5-.25c-3.69,0-7.38.29-11.07.53a56.5,56.5,0,0,1-11.11.05c-1.84-.2-3.67-.48-5.49-.82a34.47,34.47,0,0,1-5.38-1.36,34.61,34.61,0,0,0,5.39,1.28c1.83.32,3.66.56,5.5.74A56.82,56.82,0,0,0,288.1,129c3.69-.29,7.38-.61,11.09-.69a37.2,37.2,0,0,1,5.58.21,28.3,28.3,0,0,1,5.46,1.27,26.07,26.07,0,0,1,9.62,5.63,5.1,5.1,0,0,1,1.51,2.51,4.51,4.51,0,0,1-.44,2.92A13.14,13.14,0,0,1,317.1,145,26,26,0,0,1,307,149.76a21.17,21.17,0,0,1-5.61.6,43.2,43.2,0,0,1-5.57-.52,85.27,85.27,0,0,1-10.87-2.52l-10.73-2.81-5.36-1.4a40.87,40.87,0,0,0-5.34-1.21,15.22,15.22,0,0,0-2.69.06,16.66,16.66,0,0,1-2.84.09,29.73,29.73,0,0,1-5.5-1.24l-10.71-3c-1.78-.5-3.52-1.06-5.31-1.57l-2.66-.79-1.33-.43a6.59,6.59,0,0,1-1.37-.54,2.24,2.24,0,0,1-1.1-1.25,1.53,1.53,0,0,1,.55-1.71,1.37,1.37,0,0,1,1-.22l.69.13,1.37.28c1.82.36,3.66.71,5.44,1.13a25.11,25.11,0,0,0,2.69.44,3.18,3.18,0,0,0,1.13,0l0,.07a.49.49,0,0,0,0-.11,1.74,1.74,0,0,0-.38-.39,4.86,4.86,0,0,0-1.14-.57q-.65-.25-1.29-.48l-2.62-.89.32,0-1.39.85-.34.21-.19-.34a13.23,13.23,0,0,1-.92-1.8,2.09,2.09,0,0,1-.15-.61c0-.22,0-.37.06-.55a7.35,7.35,0,0,1,.23-1,3.57,3.57,0,0,1,.47-1,1.55,1.55,0,0,1,.48-.43,1.15,1.15,0,0,1,.68-.12,9.69,9.69,0,0,1,2,.39l-.43.46a5.15,5.15,0,0,1-.35-1.91,3.71,3.71,0,0,1,.74-1.82,2.1,2.1,0,0,1,.83-.66,2.91,2.91,0,0,1,1-.16c.62,0,1.22,0,1.82,0,2.4.07,4.79.23,7.18.37l-.3.28a3.81,3.81,0,0,0-.48-1.19,2,2,0,0,0-.91-.88,11.53,11.53,0,0,0-2.6-1l.23,0a14.46,14.46,0,0,1-2.12,1.29l-.57.25a2.6,2.6,0,0,1-.65.17,4,4,0,0,1-1.29-.07,3.12,3.12,0,0,1-1.21-.5,1,1,0,0,1-.42-.67,1.11,1.11,0,0,1,.3-.7,21.76,21.76,0,0,1,1.61-1.85,14.29,14.29,0,0,1,1.84-1.63,3.48,3.48,0,0,1,1.15-.59,5.35,5.35,0,0,1,1.26,0,20,20,0,0,1,4.79,1,19.77,19.77,0,0,1,4.46,2c1.38.89,2.54,2,3.84,3s2.62,1.92,3.89,2.92A22.13,22.13,0,0,0,266.15,127.16Z" style="fill:#af6152"></path><polygon points="241.82 127.74 238.45 127.12 238.38 126.57 241.91 127.23 241.82 127.74" style="fill:#af6152"></polygon><path d="M260.2,127.45a9.86,9.86,0,0,0-1.88-1.44c-.73-.51-1.46-1-2.17-1.59a6.74,6.74,0,0,0-1.84-1.14,3,3,0,0,0-2.09-.22c-.25.13-.06.49.11.58.66.35,1.43.49,2.11.82s1.28.65,1.91,1l1.78,1.09,1,.64a3.08,3.08,0,0,0,1,.5C260.23,127.74,260.25,127.51,260.2,127.45Z" style="fill:#af6152"></path><path d="M257.68,130.6a13.5,13.5,0,0,0-3.9-1.82,18.67,18.67,0,0,0-2-.48,7.19,7.19,0,0,0-2.16-.22c-.13,0-.19.3,0,.34.71.21,1.46.28,2.19.43s1.31.3,2,.48c1.33.38,2.58.91,3.89,1.34C257.68,130.68,257.71,130.62,257.68,130.6Z" style="fill:#af6152"></path><path d="M277.23,134.54a34.29,34.29,0,0,1,1.66,6.31c.06.33.69.52.72.08a21.85,21.85,0,0,0-.78-7.46,8.3,8.3,0,0,0-3-4.77l-.16.44c4.46,2.43,6.38,7.33,8.06,11.83.07.21.52.47.58.11a15.68,15.68,0,0,0-.91-7,9.44,9.44,0,0,0-3.52-5.21l-.15.54a10.92,10.92,0,0,1,5.29,5.08c.68,1.17,1.24,2.41,1.81,3.64A25.4,25.4,0,0,1,288.3,142c.09.31.77.53.74.07-.28-5.11-1.57-11.09-6.63-13.54l-.12.6c4.39,1.43,7.15,5.37,9.28,9.23.15.29.8.37.67-.09a18.87,18.87,0,0,0-6-9.7c-.06.18-.13.36-.2.55a18.48,18.48,0,0,1,11.45,10.4c.14.33.74.36.67-.09a16,16,0,0,0-2.32-7.05,10.05,10.05,0,0,0-5.07-4l.09.67c6.66.51,10.11,7.16,12.57,12.52.13.27.69.38.7,0a17.47,17.47,0,0,0-6.67-14.05l-.19.55a12.93,12.93,0,0,1,7.12,4.29,12.49,12.49,0,0,1,2.19,3.77c.61,1.6,1,3.27,1.68,4.84.11.26.67.4.68,0a18.34,18.34,0,0,0-5.18-13.11l-.23.48A14.77,14.77,0,0,1,312.64,140c.07.44.92.57.85,0a15.61,15.61,0,0,0-9.84-12.24c-.34-.13-.44.26-.23.47a17.25,17.25,0,0,1,4.84,12.57h.68c-.73-1.7-1.13-3.51-1.83-5.22a13.46,13.46,0,0,0-2.4-3.82,13.93,13.93,0,0,0-7.38-4.34c-.39-.08-.47.35-.2.56a16.73,16.73,0,0,1,6.29,13.43l.7,0c-2.63-5.72-6.35-12.47-13.41-13-.49,0-.19.58.09.67a9,9,0,0,1,4.7,3.89,16.3,16.3,0,0,1,2,6.47l.67-.08a19.52,19.52,0,0,0-12.06-10.87c-.38-.12-.45.34-.2.54a17.87,17.87,0,0,1,5.62,9.26l.68-.1c-2.26-4.12-5.22-8.2-9.89-9.69-.44-.13-.45.45-.12.61,4.84,2.29,5.82,8,6.09,12.82l.74.06a34.3,34.3,0,0,0-3.71-8.1,11.57,11.57,0,0,0-5.56-5.12c-.4-.16-.42.36-.15.54a8.9,8.9,0,0,1,3.23,5,15.45,15.45,0,0,1,.83,6.49l.58.11c-1.79-4.64-3.84-9.74-8.46-12.23-.34-.19-.4.28-.16.44,1.66,1.11,2.35,3,2.77,4.87a22.87,22.87,0,0,1,.48,6.75l.72.09a29.85,29.85,0,0,0-1.85-6.42c-.13-.29-.67-.26-.52.11Z" style="fill:#455a64"></path><path d="M180.69,169.39c-3.78,2.71-4.92,8.21-3.09,12.38.1.22.52.45.61.08a33,33,0,0,1,2.84-7.86c1.21-2.37,2.67-4.82,4.9-6.37l-.45-.55a10.67,10.67,0,0,0-1.7,10.38c.09.22.54.46.6.1.76-4.39,1.89-8.93,4.91-12.35l-.52-.39c-.61,2.18-1.17,4.42-.6,6.66.06.21.53.47.57.12a13.67,13.67,0,0,1,3.24-7.2l-.49-.21a2.24,2.24,0,0,1-.19,1.48c-.13.25.29.69.43.42a2.87,2.87,0,0,0,.27-1.89c0-.21-.32-.4-.49-.21a13.45,13.45,0,0,0-3.35,7.34l.57.12c-.55-2.13.05-4.3.63-6.36.06-.23-.33-.61-.53-.39-3.1,3.49-4.28,8.12-5.06,12.61l.59.09a10.08,10.08,0,0,1,1.63-9.81c.2-.24-.18-.73-.45-.55a17,17,0,0,0-5,6.38,34.12,34.12,0,0,0-3,8.2l.6.09A10.65,10.65,0,0,1,181,169.83c.14-.14-.09-.57-.27-.44Z" style="fill:#455a64"></path></g></g></g></svg>