<svg xmlns="http://www.w3.org/2000/svg" viewBox="0 0 500 500"><g id="background-complete"><g><rect x="94.62" y="157.14" width=".72" height="1.36" transform="translate(189.96 315.63) rotate(180)" style="fill:#ebebeb;"></rect><rect x="92.69" y="157.14" width=".72" height="1.36" transform="translate(186.1 315.63) rotate(180)" style="fill:#ebebeb;"></rect><path d="M135.14,126.52s0,.04,.02,.1c.02,.07,.05,.16,.09,.29,.09,.25,.23,.62,.44,1.08,.42,.92,1.09,2.22,2.09,3.73,1.97,3.03,5.21,6.89,9.36,10.52,2.09,1.8,4.27,3.29,6.35,4.47,2.08,1.18,4.05,2.06,5.75,2.68,1.7,.63,3.11,1.01,4.1,1.22,.99,.21,1.55,.25,1.55,.21,0,0-.14,0-.4-.05-.26-.04-.65-.12-1.14-.23-.98-.23-2.39-.63-4.07-1.26-1.68-.64-3.65-1.52-5.71-2.71-2.07-1.18-4.23-2.67-6.31-4.47-4.14-3.62-7.38-7.45-9.37-10.45-1-1.5-1.69-2.79-2.13-3.69-.22-.45-.37-.82-.47-1.06l-.11-.28c-.02-.06-.04-.1-.04-.1Z" style="fill:#ebebeb;"></path><path d="M133.98,126.49s1.08,13.61,2.52,30.39c1.44,16.78,2.64,30.38,2.69,30.38,.05,0-1.08-13.61-2.52-30.39-1.44-16.78-2.64-30.38-2.69-30.37Z" style="fill:#ebebeb;"></path><path d="M64.51,169.98s15.51-9.66,34.59-21.66c19.08-12,34.52-21.76,34.5-21.8-.03-.04-15.51,9.65-34.59,21.66-19.07,12-34.52,21.76-34.49,21.8Z" style="fill:#ebebeb;"></path><path d="M124.22,173.55s2.14-10.49,4.68-23.44c2.54-12.96,4.56-23.47,4.51-23.48-.05,0-2.14,10.49-4.68,23.44-2.54,12.95-4.56,23.47-4.51,23.48Z" style="fill:#ebebeb;"></path><path d="M134.65,138.32v35.35c0,1.06-1.65,1.07-1.65,0v-35.35c0-1.06,1.65-1.07,1.65,0h0Z" style="fill:#ebebeb;"></path><path d="M141.12,170.47v3.2c0,.27-.41,.27-.41,0v-3.2c0-.27,.41-.27,.41,0h0Z" style="fill:#ebebeb;"></path><path d="M137.43,170.47v3.2c0,.27-.41,.27-.41,0v-3.2c0-.27,.41-.27,.41,0h0Z" style="fill:#ebebeb;"></path><path d="M133.47,170.47v3.2c0,.27-.41,.27-.41,0v-3.2c0-.27,.41-.27,.41,0h0Z" style="fill:#ebebeb;"></path><path d="M129.52,170.47v3.2c0,.27-.41,.27-.41,0v-3.2c0-.27,.41-.27,.41,0h0Z" style="fill:#ebebeb;"></path><path d="M125.56,170.47v3.2c0,.27-.41,.27-.41,0v-3.2c0-.27,.41-.27,.41,0h0Z" style="fill:#ebebeb;"></path><path d="M121.84,170.47v3.2c0,.27-.41,.27-.41,0v-3.2c0-.27,.41-.27,.41,0h0Z" style="fill:#ebebeb;"></path><circle cx="173.85" cy="185.28" r="5.52" style="fill:#ebebeb;"></circle><path d="M169.23,185.28s0-.41,.18-1.12c.18-.69,.64-1.71,1.68-2.5,.52-.39,1.17-.71,1.92-.84,.75-.13,1.59-.1,2.39,.2,.4,.14,.79,.35,1.15,.62,.36,.26,.69,.59,.96,.96,.56,.74,.87,1.7,.88,2.68,0,.98-.32,1.94-.88,2.68-.27,.38-.6,.7-.96,.96-.36,.27-.74,.48-1.15,.62-.8,.31-1.64,.33-2.39,.2-.75-.13-1.4-.46-1.92-.84-1.04-.79-1.51-1.81-1.68-2.5-.18-.71-.15-1.12-.18-1.12,0,0,0,.1,0,.3,0,.1,0,.22,.03,.36,.02,.14,.04,.3,.09,.48,.16,.71,.61,1.76,1.68,2.58,.53,.4,1.19,.75,1.97,.89,.77,.14,1.64,.12,2.47-.19,.42-.14,.82-.36,1.19-.64,.37-.27,.72-.61,1-1,.58-.77,.91-1.76,.92-2.78,0-1.02-.34-2.01-.92-2.78-.28-.39-.62-.73-1-1-.37-.28-.77-.49-1.19-.64-.83-.31-1.7-.33-2.47-.19-.77,.14-1.44,.49-1.97,.89-1.06,.82-1.52,1.88-1.68,2.58-.05,.18-.07,.34-.09,.48-.02,.14-.03,.26-.03,.36,0,.19,0,.3,0,.3Z" style="fill:#ebebeb;"></path><path d="M171.8,189.4h3.55v-3.94c0-.98-.8-1.78-1.78-1.78h0c-.98,0-1.78,.8-1.78,1.78v3.94Z" style="fill:#ebebeb;"></path><path d="M86.78,185.07v-22.82l.44-3.83h16.75l1.3,3.96h8.97v11.63l21.22-.13v14.91l-40.91-2.98s-8.06-.66-7.78-.73Z" style="fill:#ebebeb;"></path><path d="M85.88,162.52h29.35c.26,0,.47-.21,.47-.47h0c0-.26-.21-.47-.47-.47h-29.35c-.26,0-.47,.21-.47,.47h0c0,.26,.21,.47,.47,.47Z" style="fill:#ebebeb;"></path><path d="M128.4,177.92c0,.82,.66,1.48,1.48,1.48s1.48-.66,1.48-1.48-.66-1.48-1.48-1.48-1.48,.66-1.48,1.48Z" style="fill:#ebebeb;"></path><path d="M122.73,177.92c0,.82,.66,1.48,1.48,1.48s1.48-.66,1.48-1.48-.66-1.48-1.48-1.48-1.48,.66-1.48,1.48Z" style="fill:#ebebeb;"></path><path d="M117.27,177.92c0,.82,.66,1.48,1.48,1.48s1.48-.66,1.48-1.48-.66-1.48-1.48-1.48-1.48,.66-1.48,1.48Z" style="fill:#ebebeb;"></path><path d="M108.45,170.17c0,.82,.66,1.48,1.48,1.48s1.48-.66,1.48-1.48-.66-1.48-1.48-1.48-1.48,.66-1.48,1.48Z" style="fill:#ebebeb;"></path><path d="M100.04,170.52c0,.82,.66,1.49,1.48,1.49s1.48-.66,1.48-1.49-.66-1.48-1.48-1.48-1.48,.66-1.48,1.48Z" style="fill:#ebebeb;"></path><path d="M114.24,173.61c3.19,0,6.38,0,9.56,0,4.26,0,8.52,0,12.78,0h4.65c.27,0,.27,.41,0,.41-3.32,0-6.65,0-9.97,0h-12.67c-1.45,0-2.9,0-4.36,0-.27,0-.27-.41,0-.41h0Z" style="fill:#ebebeb;"></path><path d="M141.72,170.67h-20.32c-.27,0-.27-.41,0-.41h20.32c.27,0,.27,.41,0,.41h0Z" style="fill:#ebebeb;"></path><polygon points="135.65 136.86 135.65 138.32 131.78 138.32 129.07 137.22 129.07 136.86 135.65 136.86" style="fill:#ebebeb;"></polygon><path d="M134.04,122.07v14.89c0,.53-.83,.53-.83,0v-14.89c0-.53,.83-.53,.83,0h0Z" style="fill:#ebebeb;"></path><path d="M99.36,182.58s-.16,0-.46-.06c-.29-.07-.74-.22-1.16-.62-.21-.2-.4-.46-.54-.78-.14-.32-.19-.7-.18-1.11,0-.83,0-1.77,.01-2.82,0-2.09,.01-4.57,.02-7.33,0-.34,0-.7,0-1.04,.02-.34,.12-.68,.29-.98,.17-.3,.42-.57,.71-.77,.3-.2,.64-.33,1-.37,.35-.04,.75-.01,1.12-.02h1.15c.78,0,1.56,0,2.36,0,.38,0,.76,.1,1.1,.28,.33,.19,.62,.45,.82,.76,.2,.31,.33,.67,.36,1.04,.02,.37,0,.76,.01,1.13,0,1.5,0,2.95,0,4.33,0,1.38,0,2.69,0,3.92,0,.61,0,1.21,0,1.78,0,.29,0,.56-.06,.82-.05,.26-.16,.5-.29,.72-.27,.44-.66,.75-1.09,.93-.21,.09-.43,.14-.65,.16-.21,.02-.43,.01-.64,.01-.83,0-1.54,.01-2.13,.01-.58,0-1.03,.01-1.34,.02-.15,0-.26,0-.35,0-.08,0-.12,0-.12,0,0,0,.04,0,.12,0,.09,0,.2,0,.35,0,.32,0,.77,0,1.34,.02,.59,0,1.3,0,2.13,.01,.21,0,.42,0,.65,0,.22-.03,.45-.07,.68-.16,.45-.18,.87-.51,1.15-.96,.14-.23,.26-.48,.31-.76,.06-.27,.06-.57,.06-.85,0-.57,0-1.16,0-1.78,0-1.23,0-2.54,0-3.92,0-1.38,0-2.83,0-4.33,0-.38,.01-.75-.01-1.14-.04-.39-.17-.78-.39-1.12-.22-.34-.53-.62-.88-.82-.36-.19-.77-.3-1.18-.3-.8,0-1.58,0-2.36,0h-1.15c-.39,0-.75-.02-1.15,.02-.39,.05-.75,.19-1.07,.4-.31,.22-.57,.5-.76,.83-.19,.32-.29,.69-.31,1.05-.02,.36,0,.71,0,1.05,0,2.76,.01,5.24,.02,7.33,0,1.04,0,1.99,.01,2.82,0,.41,.05,.82,.2,1.15,.15,.33,.35,.6,.56,.8,.44,.41,.9,.55,1.2,.61,.15,.02,.27,.04,.35,.03,.08,0,.12,0,.12,0Z" style="fill:#ebebeb;"></path><polygon points="86.77 173.81 95.02 173.81 93.41 166.82 86.77 166.78 86.77 173.81" style="fill:#ebebeb;"></polygon><path d="M135.14,127.01h-3.46c-.43,0-.85-.38-.83-.83,.02-.45,.36-.83,.83-.83h3.46c.43,0,.85,.38,.83,.83-.02,.45-.36,.83-.83,.83h0Z" style="fill:#ebebeb;"></path><path d="M136.02,168.95c-.29,0-.57-.15-.73-.42-.24-.4-.11-.93,.29-1.17l34.07-20.48c.4-.24,.93-.11,1.17,.29,.24,.4,.11,.93-.29,1.17l-34.07,20.48c-.14,.08-.29,.12-.44,.12Z" style="fill:#ebebeb;"></path><path d="M66.47,195.39s-.57-5.12-1.38-11.43c-.81-6.31-1.5-11.42-1.55-11.41-.05,0,.57,5.12,1.38,11.43,.81,6.31,1.5,11.42,1.55,11.41Z" style="fill:#ebebeb;"></path><g><path d="M121.06,169.47v22.18c0,.27-.41,.27-.41,0v-22.18c0-.27,.41-.27,.41,0h0Z" style="fill:#ebebeb;"></path><path d="M116.87,169.47v22.18c0,.27-.41,.27-.41,0v-22.18c0-.27,.41-.27,.41,0h0Z" style="fill:#ebebeb;"></path><path d="M120.85,170.99h-4.05c-.27,0-.27-.41,0-.41h4.05c.27,0,.27,.41,0,.41h0Z" style="fill:#ebebeb;"></path><path d="M120.68,173.45h-4.01c-.27,0-.27-.41,0-.41h4.01c.27,0,.27,.41,0,.41h0Z" style="fill:#ebebeb;"></path><path d="M120.83,176.21h-4.03c-.27,0-.27-.41,0-.41h4.03c.27,0,.27,.41,0,.41h0Z" style="fill:#ebebeb;"></path><path d="M120.83,178.8h-4.03c-.27,0-.27-.41,0-.41h4.03c.27,0,.27,.41,0,.41h0Z" style="fill:#ebebeb;"></path><path d="M120.83,181.38h-4.03c-.27,0-.27-.41,0-.41h4.03c.27,0,.27,.41,0,.41h0Z" style="fill:#ebebeb;"></path><path d="M120.83,183.97h-4.03c-.27,0-.27-.41,0-.41h4.03c.27,0,.27,.41,0,.41h0Z" style="fill:#ebebeb;"></path><path d="M120.83,186.55h-4.03c-.27,0-.27-.41,0-.41h4.03c.27,0,.27,.41,0,.41h0Z" style="fill:#ebebeb;"></path></g><path d="M172.82,185.28c0,.41,.34,.75,.75,.75s.75-.34,.75-.75-.34-.75-.75-.75-.75,.34-.75,.75Z" style="fill:#ebebeb;"></path><path d="M183.61,186.56l-2.43,7.16s-10.31-.14-15.6,9.02H74.26c-5.09,0-9.39-3.78-10.05-8.82l-3-22.9h2.07l.22,1.6s31.44,5.66,55.07,6.16l5.75,7.38s20.5,2.82,59.27,.41Z" style="fill:#ebebeb;"></path><g><path d="M63,184.73c7.04,1.57,22.1,4.37,46.16,6.16,34.93,2.6,71.48,1.08,71.57,.85l1.11-.02-.68,2s-10.26-.13-15.56,9.03H74.26c-5.09,0-9.39-3.78-10.05-8.83l-1.2-9.19Z" style="fill:#ebebeb;"></path><path d="M109.17,190.89c-24.06-1.79-39.12-4.59-46.16-6.16l-.32-2.47c5.68,1.38,21.36,4.67,48.43,6.69,33.54,2.5,68.57,1.2,71.38,.88l-.64,1.9-1.11,.02c-.09,.24-36.64,1.76-71.57-.85Z" style="fill:#ebebeb;"></path></g><path d="M93.94,157.43h2.07v-1.04c0-.57-.46-1.04-1.04-1.04h0c-.57,0-1.04,.46-1.04,1.04v1.04Z" style="fill:#ebebeb;"></path><path d="M136.05,168.14s-.38-.09-.85-.09-.85,.04-.85,.09,.38,.09,.85,.09,.85-.04,.85-.09Z" style="fill:#ebebeb;"></path></g><path d="M466.27,85.72c-.65-1.72-1.3-3.47-2.39-4.96-1.09-1.49-2.67-2.71-4.5-2.93-1.83-.22-3.85,.76-4.45,2.51-.26-3.93-.82-7.96-2.78-11.37-1.97-3.41-5.63-6.09-9.56-5.85-3.7,.23-6.88,2.98-8.64,6.24-1.76,3.27-2.37,7.01-2.95,10.68-1.4-1.72-4.37-1.18-5.83,.49-1.47,1.67-1.84,4.01-2.15,6.21h43.34l-.07-1.02Z" style="fill:#f5f5f5;"></path><path d="M215.61,54.55c-.82-2.18-1.65-4.39-3.02-6.27-1.37-1.88-3.38-3.42-5.69-3.7-2.31-.28-4.87,.96-5.62,3.17-.33-4.96-1.03-10.05-3.52-14.36-2.48-4.31-7.12-7.69-12.08-7.39-4.68,.29-8.69,3.76-10.91,7.89-2.23,4.13-2.99,8.86-3.72,13.49-1.77-2.18-5.52-1.49-7.37,.62-1.85,2.11-2.32,5.06-2.71,7.84h54.75l-.09-1.29Z" style="fill:#ebebeb;"></path><path d="M105.4,109.33c-.61-1.62-1.22-3.26-2.24-4.65-1.02-1.39-2.51-2.54-4.22-2.75-1.71-.21-3.61,.72-4.17,2.35-.25-3.68-.77-7.46-2.61-10.66-1.84-3.2-5.28-5.71-8.97-5.48-3.47,.21-6.45,2.79-8.1,5.85-1.65,3.06-2.22,6.58-2.76,10.01-1.32-1.62-4.1-1.11-5.47,.46-1.37,1.57-1.72,3.76-2.01,5.82h40.63l-.07-.96Z" style="fill:#ebebeb;"></path><path d="M318.29,57.4c-.37-1-.76-2.01-1.38-2.87-.63-.86-1.55-1.57-2.61-1.69-1.06-.13-2.23,.44-2.57,1.45-.15-2.27-.47-4.6-1.61-6.58s-3.26-3.52-5.53-3.38c-2.14,.13-3.98,1.72-5,3.61-1.02,1.89-1.37,4.06-1.7,6.18-.81-1-2.53-.68-3.38,.28s-1.06,2.32-1.24,3.59h25.58l-.54-.59Z" style="fill:#ebebeb;"></path><path d="M41.25,398.17c4.57,5.75,35.23,6.03,43.45,6.25,18.38,.48,36.75,.97,55.13,1.45,2.1,.06,3.94,1.44,3.96,3.21,.02,2.01-2.5,2.84-4.6,3.32l-8.09,1.85c-4.35,.99-3.96,6.28,.51,6.82,15.54,1.91,31.71,.89,47.49-.17,7.28-.49,15.22-1.21,20.41-5.54,1.88-1.57,3.27-3.52,5.24-5.01,5.51-4.16,13.85-3.66,21.24-3.27,23.5,1.25,57.14-2.54,79.65-8.35l-264.38-.56Z" style="fill:#e0e0e0;"></path><ellipse cx="97.67" cy="418.32" rx="12.51" ry="3.82" style="fill:#e0e0e0;"></ellipse><path d="M388.02,205.11c-73.88,1.03-147.29-1.64-221.18-.49-2.64,.04-4.97,2-5.2,4.63-.39,4.29,4.84,5.18,8.72,5.37,36.87,1.75,75.6,2.88,113.82,2.89,4.75,0,5.76,6.79,1.19,8.09-.04,.01-.09,.02-.13,.04-4.37,1.21-8.98,1.11-13.52,1.06-25.36-.26-50.75,1.57-75.81,5.48-2.91,.45-6.25,1.2-7.11,4.42-.53,1.97,.25,4.04,1.76,5.41,3.12,2.84,7.32,2.66,11.23,2.41,20.57-1.28,41.13-2.56,61.7-3.84,9.53-.59,19.15-1.18,28.56,.41,3.01,.51,6.01,1.27,8.9,2.29,6.09,2.16,4.72,11.18-1.73,11.56-18.75,1.1-37.5,2.2-56.24,3.3-4.11,.24-8.51,.57-11.41,3.94-1.43,1.65-1.96,3.98-1.1,5.99,1.39,3.23,5.11,3.55,8.31,3.6,33.83,.49,67.7-1.07,101.34-4.69,3.23-.35,6.18-2.17,7.71-5.04,3.19-6-2.4-11.15-7.29-14.59-2.34-1.64-4.67-3.29-7.01-4.93-5.38-3.78-2.81-12.23,3.76-12.38,15.63-.36,31.25-.72,46.88-1.08,1.81-.04,3.53-1.08,4.2-2.76,1.22-3.09-2.19-5.23-5.08-5.31-3.29-.08-6.65,1.33-9.75-.73-1.28-.85-1.91-2.49-1.35-3.91,.72-1.86,2.68-2.04,4.39-2.1,11.54-.43,23.07-.86,34.61-1.28,8.13-.3,17.72-1.45,21.63-8.59l-44.79,.84Z" style="fill:#ebebeb;"></path><path d="M321.22,134.67c-.77-2.05-1.55-4.14-2.85-5.91-1.29-1.77-3.18-3.22-5.36-3.49-2.18-.27-4.59,.91-5.3,2.98-.31-4.68-.97-9.47-3.32-13.54-2.34-4.06-6.71-7.25-11.39-6.96-4.41,.27-8.19,3.55-10.29,7.44-2.1,3.89-2.82,8.35-3.51,12.72-1.67-2.05-5.2-1.41-6.95,.58-1.75,1.99-2.19,4.77-2.56,7.39h51.6l-.09-1.22Z" style="fill:#f5f5f5;"></path><path d="M444.59,156.33c-.96-2.57-1.94-5.17-3.56-7.39-1.62-2.21-3.98-4.03-6.7-4.36-2.72-.33-5.74,1.14-6.63,3.73-.39-5.85-1.22-11.85-4.15-16.93-2.93-5.08-8.39-9.07-14.24-8.71-5.52,.34-10.24,4.43-12.86,9.3-2.62,4.86-3.53,10.44-4.39,15.9-2.09-2.57-6.51-1.76-8.69,.73-2.18,2.49-2.74,5.97-3.2,9.24h64.53l-.11-1.52Z" style="fill:#ebebeb;"></path></g><g id="background-simple"><path d="M436.81,232.82l-.69-1.58c-5.78-13.34-18.27-22.63-32.64-23.69-1.85-.14-3.7-.14-5.56,0-13.33,.99-25.95,9.23-32.35,21.14-3.76,7-5.7,15.39-11.72,20.53-7.83,6.69-19.39,5.34-29.47,3.63-10.08-1.71-21.65-3.03-29.46,3.7-4.89,4.21-7.17,10.84-7.71,17.3-1.44,17.11,8.31,33.94,22.33,43.56,14.02,9.62,31.65,12.74,48.59,11.68,23.72-1.48,47.44-11.24,63.35-29.16,15.91-17.92,22.95-44.35,15.32-67.11Z" style="fill:#f5f5f5;"></path><path d="M168.98,78.07c-7.23-1.99-14.87-1.97-22.19-3.58-.11-.02-.22-.05-.33-.07-4.53-1.03-8.19-4.29-10-8.56-2.39-5.62-5.77-10.76-10.28-14.86-17.03-15.51-46.87-10.76-61.16,7.3-14.29,18.06-13.62,45.19-1.73,64.91,11.89,19.72,33.21,32.46,55.55,38.06,15.22,3.81,31.58,4.58,46.41-.54,14.83-5.12,27.88-16.75,32.21-31.83,5.96-20.76-7.66-45.07-28.48-50.81Z" style="fill:#f5f5f5;"></path><circle cx="101.88" cy="256.86" r="33.23" transform="translate(-151.79 147.27) rotate(-45)" style="fill:#f5f5f5;"></circle></g><g id="Water"><path d="M488.69,203.51c0,.14-106.87,.26-238.67,.26s-238.7-.12-238.7-.26,106.85-.26,238.7-.26,238.67,.12,238.67,.26Z" style="fill:#263238;"></path></g><g id="Sun"><g><g><circle cx="373.8" cy="91.02" r="34.52" transform="translate(238.15 451.04) rotate(-83.04)" style="fill:#FF725E;"></circle><g style="opacity:.9;"><circle cx="373.8" cy="91.02" r="34.52" transform="translate(238.15 451.04) rotate(-83.04)" style="fill:#fff;"></circle></g></g><g><circle cx="373.8" cy="91.02" r="30.79" transform="translate(45.12 290.98) rotate(-45)" style="fill:#FF725E;"></circle><g style="opacity:.6;"><circle cx="373.8" cy="91.02" r="30.79" transform="translate(45.12 290.98) rotate(-45)" style="fill:#fff;"></circle></g></g><g><circle cx="373.8" cy="91.02" r="25.62" style="fill:#FF725E;"></circle><g style="opacity:.3;"><circle cx="373.8" cy="91.02" r="25.62" style="fill:#fff;"></circle></g></g><circle cx="373.8" cy="91.02" r="20.51" style="fill:#FF725E;"></circle></g></g><g id="Birds"><g><g><path d="M180.58,89.63s-.19,.03-.5,.03-.73,0-1.2-.04c-.47-.03-.89-.07-1.19-.12-.3-.04-.49-.08-.49-.09,0-.02,.19,0,.5,.01,.35,.02,.75,.05,1.19,.08,.44,.03,.84,.05,1.19,.07,.3,.02,.49,.03,.49,.05Z" style="fill:#263238;"></path><path d="M180.86,89.13s-.19,.03-.5,.03c-.31,0-.73,0-1.2-.04-.47-.03-.89-.07-1.19-.12-.3-.04-.49-.08-.49-.09,0-.02,.19,0,.5,.01,.35,.02,.75,.05,1.19,.08,.44,.03,.84,.05,1.19,.07,.3,.02,.49,.03,.49,.05Z" style="fill:#263238;"></path><path d="M167.73,88.69s.5-.94,1.05-1.2c.55-.26,5.46-.79,5.46-.79l8.41,.76s-.27,.88-1.58,.99c-1.32,.11-2.82,.09-2.82,.09,0,0-.89,1-2.31,1.39-1.42,.38-3.31,.54-4.67-.28-1.36-.82-2.43,.26-2.96-.61-.23-.38-.59-.33-.59-.33Z" style="fill:#263238;"></path><path d="M184.01,75.13c-.29,.8-.64,1.58-1.06,2.32-.13,.23-.28,.47-.53,.55,.5-1.19,.77-2.49,.79-3.78-.14,.43-.3,.86-.47,1.28-.13,.32-.27,.63-.44,.92-.44,.78-1.07,1.45-1.68,2.11-.47,.51-.92,1.05-1.46,1.48-1.1,.86-1.18,.8-2.39,1.62-.37,.25-1.09,.63-1.34,1-.13,.19-.2,.4-.28,.61-.65,1.71-1.7,3.27-3.05,4.52l2.79,.53c1.12-.12,2.15-.76,2.89-1.62,.74-.86,1.2-1.92,1.48-3.02,.07-.27,.14-.55,.32-.75,.15-.17,.36-.27,.55-.39,.33-.21,.6-.5,.79-.84-.21,.16-.48,.24-.74,.23,.69-.51,1.36-1.06,1.99-1.64,.58-.55,1.15-1.15,1.41-1.91-.22,.32-.53,.57-.88,.74,.81-1.15,1.28-2.55,1.31-3.96Z" style="fill:#263238;"></path><path d="M168.9,88.11c-.05-.02-.12,0-.15,.05-.04,.04-.05,.11-.04,.16,.02,.11,.11,.2,.23,.21,.11,0,.22-.07,.25-.18,.03-.11-.04-.23-.14-.27-.07-.03-.15-.01-.22,0" style="fill:#263238;"></path><path d="M167.88,88.44s-.72,.13-.98,.56c-.27,.43-.29,.8-.23,.82,0,0,.11-.23,.65-.43,.54-.2,1.09-.32,1.09-.32l-.53-.64Z" style="fill:#263238;"></path><g><path d="M173.28,86.04c-.95-.84-1.9-1.67-2.85-2.51-.33-.29-.66-.58-.92-.94-.53-.74-.69-1.71-1.23-2.45-.05,.22-.11,.43-.16,.65-.15-.55-.38-1.08-.68-1.57-.06,.25-.12,.5-.17,.74-.17-.77-.5-1.5-.96-2.14-.23,.28-.36,.65-.34,1.01-.25-.67-.55-1.32-.9-1.95-.67,1.72-.38,3.66,.07,5.45,.09,.35,.19,.7,.37,1.01,.2,.34,.5,.62,.8,.88,1.3,1.11,2.83,2,3.84,3.38l4.2-.21c-.19-.09-.96-1.25-1.07-1.36Z" style="fill:#263238;"></path><path d="M174.4,87.4h-.04s.03,.01,.04,0Z" style="fill:#263238;"></path></g><path d="M179.26,83.65c.07-.27,.14-.55,.32-.75,.15-.17,.36-.27,.55-.39,.33-.21,.6-.5,.79-.84-.21,.16-.48,.24-.74,.23,.69-.51,1.36-1.06,1.99-1.64,.58-.55,1.15-1.15,1.41-1.91-.22,.32-.53,.57-.88,.74,.81-1.15,1.28-2.55,1.31-3.96-.29,.8-.64,1.58-1.06,2.32-.13,.23-.28,.47-.53,.55,.5-1.19,.77-2.49,.79-3.78-.14,.43-.3,.86-.47,1.28-.13,.32-.27,.63-.44,.92-.44,.78-1.07,1.45-1.68,2.11-.47,.51-.95,1.01-1.46,1.48l2.44-1.17-1.23,1.53,1.37-.64s-2.23,1.9-2.58,2.84c-.35,.94-.04,1.6-.04,1.6l.15-.51Z" style="fill:#263238;"></path><path d="M169.52,82.6c-.53-.74-.69-1.71-1.23-2.45-.05,.22-.11,.43-.16,.65-.15-.55-.38-1.08-.68-1.57-.06,.25-.12,.5-.17,.74-.17-.77-.5-1.5-.96-2.14-.23,.28-.36,.65-.34,1.01-.25-.67-.55-1.32-.9-1.95-.67,1.72-.38,3.66,.07,5.45,.09,.35,.19,.7,.37,1.01l.11-1.48s.06-1.93,.59-1.17c.53,.76,1.58,1.98,1.58,1.98l-.22-1.31s.74,1.13,1.21,1.27,.73-.04,.73-.04Z" style="fill:#263238;"></path><path d="M175.31,82.84s0,0,0,0c.02,0,0,.01,0,.02,0,.02-.01,.04-.03,.07-.02,.06-.06,.16-.12,.28-.11,.24-.26,.58-.47,1-.21,.42-.46,.91-.76,1.45-.15,.27-.32,.55-.51,.83-.1,.14-.2,.28-.34,.4-.1,.06-.19,.07-.27,.09-.09,.02-.17,.03-.26,.05-1.41,.22-2.69,.32-3.61,.46-.23,.03-.39,.16-.53,.28-.13,.13-.23,.25-.31,.35-.16,.21-.23,.33-.24,.33,0,0,.01-.04,.04-.1,.03-.06,.08-.15,.16-.26,.07-.11,.17-.24,.3-.37,.13-.13,.31-.28,.56-.31,.92-.16,2.2-.28,3.61-.49,.09-.01,.17-.03,.26-.05,.08-.02,.17-.04,.22-.06,.12-.11,.22-.25,.32-.38,.19-.27,.35-.55,.51-.82,.31-.53,.56-1.02,.78-1.44,.21-.4,.38-.73,.5-.98l.14-.27,.04-.07s0-.02,.01,0h0Z" style="fill:#263238;"></path><path d="M180.35,80.26s0,.03-.04,.08c-.03,.05-.07,.13-.13,.23-.13,.19-.34,.45-.65,.71-.31,.27-.72,.53-1.19,.8-.23,.14-.47,.28-.7,.45-.23,.17-.43,.39-.6,.64-.34,.51-.52,1.07-.73,1.57-.2,.5-.44,.93-.67,1.27-.23,.34-.45,.58-.61,.74-.08,.08-.14,.14-.19,.18-.05,.04-.07,.06-.07,.06,0,0,.08-.1,.23-.27,.15-.17,.36-.42,.58-.76,.22-.34,.45-.76,.64-1.26,.2-.49,.38-1.07,.73-1.59,.17-.26,.39-.49,.63-.67,.24-.18,.49-.32,.72-.45,.47-.26,.87-.52,1.19-.77,.31-.25,.53-.5,.67-.68,.13-.18,.19-.29,.2-.29Z" style="fill:#263238;"></path><path d="M174.74,89.25s-.22,.13-.51,.09c-.29-.04-.48-.21-.46-.23,.02-.03,.22,.08,.48,.11,.26,.04,.48,0,.49,.03Z" style="fill:#263238;"></path><path d="M175.85,89.08s-.36,.19-.86,.15c-.49-.03-.84-.25-.82-.28,.01-.03,.37,.13,.83,.16,.46,.04,.84-.07,.85-.04Z" style="fill:#263238;"></path><path d="M178.9,89.51c-.44-.03-.84-.06-1.19-.08-.3-.02-.49-.03-.5-.01,0,.02,.18,.05,.49,.09,.3,.04,.72,.09,1.19,.12,.47,.03,.89,.04,1.2,.04s.5-.02,.5-.03c0-.02-.19-.03-.49-.05-.35-.02-.75-.04-1.19-.07Z" style="fill:#263238;"></path></g><g><path d="M142,103.74s-.09,.01-.24,.01c-.15,0-.35,0-.57-.02-.22-.01-.42-.04-.57-.06-.14-.02-.23-.04-.23-.05,0,0,.09,0,.24,0,.17,.01,.36,.02,.57,.04l.57,.03c.15,0,.24,.02,.24,.02Z" style="fill:#263238;"></path><path d="M142.13,103.5s-.09,.01-.24,.01c-.15,0-.35,0-.57-.02-.22-.01-.42-.04-.57-.06-.14-.02-.23-.04-.23-.05,0,0,.09,0,.24,0,.17,.01,.36,.02,.57,.04,.21,.01,.4,.02,.57,.03,.15,0,.24,.02,.24,.02Z" style="fill:#263238;"></path><path d="M135.87,103.29s.24-.45,.5-.57c.26-.12,2.61-.38,2.61-.38l4.01,.36s-.13,.42-.76,.47c-.63,.05-1.34,.04-1.34,.04,0,0-.42,.48-1.1,.66-.68,.18-1.58,.26-2.23-.13-.65-.39-1.16,.13-1.41-.29-.11-.18-.28-.16-.28-.16Z" style="fill:#263238;"></path><path d="M143.63,96.83c-.14,.38-.31,.75-.5,1.11-.06,.11-.13,.22-.25,.26,.24-.57,.37-1.19,.38-1.8-.07,.21-.14,.41-.23,.61-.06,.15-.13,.3-.21,.44-.21,.37-.51,.69-.8,1-.23,.24-.44,.5-.7,.71-.53,.41-.56,.38-1.14,.77-.18,.12-.52,.3-.64,.48-.06,.09-.1,.19-.13,.29-.31,.82-.81,1.56-1.45,2.15l1.33,.25c.54-.06,1.03-.36,1.38-.77,.35-.41,.57-.92,.71-1.44,.03-.13,.06-.26,.15-.36,.07-.08,.17-.13,.26-.19,.16-.1,.29-.24,.38-.4-.1,.07-.23,.11-.35,.11,.33-.24,.65-.5,.95-.78,.28-.26,.55-.55,.67-.91-.11,.15-.25,.27-.42,.35,.39-.55,.61-1.22,.63-1.89Z" style="fill:#263238;"></path><path d="M136.43,103.02s-.06,0-.07,.02c-.02,.02-.02,.05-.02,.08,0,.05,.05,.1,.11,.1,.05,0,.11-.03,.12-.09,.01-.05-.02-.11-.07-.13-.03-.01-.07,0-.11,0" style="fill:#263238;"></path><path d="M135.94,103.17s-.34,.06-.47,.27c-.13,.2-.14,.38-.11,.39,0,0,.05-.11,.31-.2,.26-.09,.52-.15,.52-.15l-.25-.3Z" style="fill:#263238;"></path><g><path d="M138.52,102.03c-.45-.4-.91-.8-1.36-1.2-.16-.14-.32-.28-.44-.45-.25-.35-.33-.81-.59-1.17l-.08,.31c-.07-.26-.18-.51-.32-.75-.03,.12-.06,.24-.08,.35-.08-.37-.24-.71-.46-1.02-.11,.13-.17,.31-.16,.48-.12-.32-.26-.63-.43-.93-.32,.82-.18,1.74,.04,2.6,.04,.17,.09,.33,.18,.48,.1,.16,.24,.3,.38,.42,.62,.53,1.35,.95,1.83,1.61l2-.1c-.09-.04-.46-.6-.51-.65Z" style="fill:#263238;"></path><path d="M139.05,102.68h-.02s.02,0,.02,0Z" style="fill:#263238;"></path></g><path d="M141.37,100.89c.03-.13,.06-.26,.15-.36,.07-.08,.17-.13,.26-.19,.16-.1,.29-.24,.38-.4-.1,.07-.23,.11-.35,.11,.33-.24,.65-.5,.95-.78,.28-.26,.55-.55,.67-.91-.11,.15-.25,.27-.42,.35,.39-.55,.61-1.22,.63-1.89-.14,.38-.31,.75-.5,1.11-.06,.11-.13,.22-.25,.26,.24-.57,.37-1.19,.38-1.8-.07,.21-.14,.41-.23,.61-.06,.15-.13,.3-.21,.44-.21,.37-.51,.69-.8,1-.23,.24-.45,.48-.7,.71l1.16-.56-.59,.73,.65-.31s-1.06,.9-1.23,1.35c-.17,.45-.02,.76-.02,.76l.07-.25Z" style="fill:#263238;"></path><path d="M136.72,100.39c-.25-.35-.33-.81-.59-1.17l-.08,.31c-.07-.26-.18-.51-.32-.75-.03,.12-.06,.24-.08,.35-.08-.37-.24-.71-.46-1.02-.11,.13-.17,.31-.16,.48-.12-.32-.26-.63-.43-.93-.32,.82-.18,1.74,.04,2.6,.04,.17,.09,.33,.18,.48l.05-.71s.03-.92,.28-.56c.25,.36,.75,.94,.75,.94l-.11-.63s.35,.54,.57,.61c.22,.07,.35-.02,.35-.02Z" style="fill:#263238;"></path><path d="M139.48,100.51h0s0,0,0,0c0,0,0,.02-.01,.04-.01,.03-.03,.08-.06,.13-.05,.11-.13,.28-.22,.48-.1,.2-.22,.44-.36,.69-.07,.13-.15,.26-.24,.39-.05,.07-.09,.13-.16,.19-.05,.03-.09,.03-.13,.04-.04,0-.08,.02-.13,.02-.67,.1-1.28,.15-1.72,.22-.11,.01-.19,.08-.25,.13-.06,.06-.11,.12-.15,.17-.07,.1-.11,.16-.11,.16,0,0,0-.02,.02-.05s.04-.07,.07-.12c.04-.05,.08-.11,.14-.18,.06-.06,.15-.13,.27-.15,.44-.08,1.05-.13,1.72-.23,.04,0,.08-.01,.12-.02,.04,0,.08-.02,.11-.03,.06-.05,.11-.12,.15-.18,.09-.13,.17-.26,.24-.39,.15-.25,.27-.49,.37-.68,.1-.19,.18-.35,.24-.47l.07-.13,.02-.03s0,0,0,0h0Z" style="fill:#263238;"></path><path d="M141.89,99.27s0,.01-.02,.04c-.01,.03-.03,.06-.06,.11-.06,.09-.16,.21-.31,.34-.15,.13-.34,.25-.57,.38-.11,.06-.23,.13-.34,.21-.11,.08-.21,.18-.29,.31-.16,.24-.25,.51-.35,.75-.1,.24-.21,.44-.32,.6-.11,.16-.22,.28-.29,.36-.04,.04-.07,.07-.09,.09-.02,.02-.03,.03-.03,.03,0,0,.04-.05,.11-.13,.07-.08,.17-.2,.28-.36,.11-.16,.21-.36,.31-.6,.1-.24,.18-.51,.35-.76,.08-.13,.19-.23,.3-.32,.11-.09,.23-.15,.34-.21,.22-.13,.42-.25,.57-.37,.15-.12,.25-.24,.32-.32,.06-.09,.09-.14,.1-.14Z" style="fill:#263238;"></path><path d="M139.21,103.56s-.1,.06-.24,.04c-.14-.02-.23-.1-.22-.11,0-.01,.1,.04,.23,.05,.13,.02,.23,0,.24,.01Z" style="fill:#263238;"></path><path d="M139.74,103.48s-.17,.09-.41,.07c-.23-.02-.4-.12-.39-.13,0-.02,.17,.06,.4,.08,.22,.02,.4-.03,.4-.02Z" style="fill:#263238;"></path><path d="M141.19,103.68c-.21-.01-.4-.03-.57-.04-.15,0-.24-.01-.24,0,0,0,.09,.03,.23,.05,.14,.02,.35,.04,.57,.06s.42,.02,.57,.02c.15,0,.24,0,.24-.01,0,0-.09-.02-.24-.02-.17,0-.36-.02-.57-.03Z" style="fill:#263238;"></path></g><g><path d="M122.54,69.86s-.33-.01-.54,.03c-.31,.06-.52,.28-.72,.52,.09,.02,.18,.01,.27,0,.4-.04,.69-.06,1.1-.04,.03-.14,.01-.37-.11-.52" style="fill:#263238;"></path><path d="M128.65,71.34c-1.26-.19-2.5-.5-3.7-.91-.82,.77-1.36,1.83-2.28,2.47-.42,.29-.91,.48-1.29,.82-.53,.47-.8,1.15-1.03,1.82-.64,1.81-1.18,3.66-1.6,5.53l1.26-1.66-.04,1,1.74-2.82,.17,.91s2.91-2.56,3.99-3.52c1.09-.95,2.04-2.13,2.04-2.13l.75-1.51Z" style="fill:#263238;"></path><path d="M125.26,69.42s.65-.78,1.17-2.13c.52-1.35,.68-4.12,2.23-5.25s5.41-3.86,5.41-3.86l-1.61,2.26,1.95-1.56s-.56,1.26-1.65,2.21l1.57-.74s-.2,1.69-.91,1.81c-.1,.02-.55,.64-.55,.64l.17,.41s-1.87,3.97-2.36,4.77c-.49,.79-1.76,2.36-1.76,2.36l-3.68-.92Z" style="fill:#263238;"></path><path d="M122.48,69.99c.02-.06,.09-.75,1.22-.79s1.64,.11,1.64,.11c0,0,3.24,.86,3.71,1.12s3.75-.52,3.75-.52c0,0,1.49,2.61-.46,4.32-1.95,1.71-3.05,1.08-3.05,1.08,0,0-.17-2.04-1-2.56,0,0-1.45-.02-2.14-.35s-1.97-1.54-2.23-1.71c-.26-.17-1-.07-1.26-.26-.26-.19-.18-.44-.18-.44Z" style="fill:#263238;"></path><path d="M123.45,69.82c0,.13-.1,.23-.23,.23s-.23-.1-.23-.23,.1-.23,.23-.23,.23,.1,.23,.23Z" style="fill:#263238;"></path><path d="M133.06,63.21l-.17-.41s.45-.62,.55-.64c.71-.12,.91-1.81,.91-1.81l-1.57,.74c1.09-.95,1.65-2.21,1.65-2.21l-1.95,1.56,1.61-2.26s-3.86,2.73-5.41,3.86l2.49-.8-.46,1.17,1.96-.85s-.41,.57-.19,1.17c.22,.6,.6,.46,.6,.46Z" style="fill:#263238;"></path><path d="M121.87,78.5l-.17-.91-1.74,2.82,.04-1-1.26,1.66c.42-1.87,.95-3.72,1.6-5.53l-.03,1.68,.97-.71v1.22l.85-.78-.25,1.55Z" style="fill:#263238;"></path><path d="M131.06,73.45s-.13-.08-.34-.18c-.21-.1-.54-.18-.88-.34-.68-.31-1.12-.73-1.1-.75,.02-.03,.49,.34,1.15,.65,.33,.15,.65,.25,.86,.37,.22,.12,.32,.24,.31,.25Z" style="fill:#263238;"></path><path d="M131.49,72.74s-.58-.06-1.25-.32c-.67-.26-1.16-.59-1.14-.61,.02-.03,.52,.25,1.18,.51,.66,.26,1.22,.39,1.21,.42Z" style="fill:#263238;"></path><path d="M128.44,72.63s-.06,.03-.18,.07c-.12,.04-.29,.09-.51,.14-.22,.04-.49,.08-.78,.04-.3-.04-.6-.19-.89-.36-.58-.34-1.05-.74-1.37-1.05-.16-.15-.28-.29-.36-.38-.08-.09-.12-.15-.11-.16,.01-.01,.2,.19,.52,.48,.33,.29,.8,.67,1.37,1.01,.29,.17,.57,.32,.85,.35,.28,.04,.54,.02,.75-.01,.43-.07,.69-.15,.7-.14Z" style="fill:#263238;"></path><path d="M130.95,61.82s-.08,.1-.24,.27c-.17,.18-.4,.41-.68,.7-.28,.29-.64,.64-1.01,1.02-.18,.2-.34,.43-.39,.71-.06,.28-.03,.58-.02,.9,.03,.63-.01,1.23-.14,1.77-.12,.53-.33,.99-.55,1.34-.22,.35-.45,.59-.63,.75-.09,.08-.16,.13-.21,.16-.05,.03-.08,.05-.08,.05-.02-.02,.43-.3,.85-1,.21-.35,.4-.8,.51-1.32,.12-.52,.16-1.12,.13-1.74-.01-.31-.04-.62,.02-.92,.06-.3,.23-.56,.42-.76,.38-.39,.73-.72,1.03-1.01,.29-.27,.52-.5,.7-.67,.17-.16,.26-.24,.27-.24Z" style="fill:#263238;"></path><path d="M132.78,63.72s-.05,.05-.14,.11c-.09,.07-.23,.16-.41,.26-.36,.21-.87,.45-1.47,.65-.6,.19-1.16,.29-1.57,.33-.2,.02-.37,.03-.49,.03-.11,0-.18,0-.18,0,0-.02,.25-.04,.65-.1,.4-.06,.95-.17,1.55-.36,.59-.19,1.1-.42,1.47-.61,.36-.19,.58-.32,.59-.3Z" style="fill:#263238;"></path><path d="M132.86,62.12s-.02,.07-.1,.16c-.07,.1-.21,.22-.39,.33-.18,.12-.42,.22-.68,.34-.26,.12-.55,.24-.85,.36-.61,.24-1.17,.43-1.57,.57-.41,.13-.66,.21-.67,.2,0-.01,.24-.12,.64-.27,.43-.16,.97-.37,1.56-.6,.3-.12,.59-.24,.85-.35,.26-.11,.49-.21,.68-.31,.37-.21,.51-.44,.53-.43Z" style="fill:#263238;"></path><path d="M131.4,65.76s-.1,.15-.36,.25c-.25,.11-.61,.18-1.01,.27-.39,.09-.75,.17-1.03,.17-.28,0-.43-.1-.42-.11,0-.02,.16,.04,.42,.03,.26-.01,.61-.11,1.01-.2,.39-.09,.76-.15,1-.23,.25-.08,.37-.19,.38-.18Z" style="fill:#263238;"></path><path d="M120.9,76.98s.01-.1,.07-.26c.06-.16,.17-.4,.35-.66,.18-.26,.43-.55,.76-.8,.34-.25,.75-.45,1.19-.64,.43-.19,.84-.39,1.17-.63,.33-.24,.6-.49,.8-.73,.4-.47,.57-.82,.59-.81,0,0-.03,.09-.11,.25-.08,.15-.21,.37-.41,.62-.2,.24-.46,.51-.8,.76-.33,.25-.75,.45-1.18,.65-.43,.19-.84,.38-1.17,.62-.33,.24-.58,.51-.76,.76-.36,.5-.46,.88-.48,.87Z" style="fill:#263238;"></path><path d="M122.62,77.44s.15-.51,.17-1.15c.03-.64-.11-1.15-.08-1.16,.02-.01,.22,.5,.19,1.17-.02,.67-.25,1.16-.28,1.15Z" style="fill:#263238;"></path><path d="M123.95,76.36s-.01-.38-.04-.85c-.03-.47-.1-.84-.07-.85,.03,0,.15,.36,.18,.84,.03,.48-.04,.86-.07,.86Z" style="fill:#263238;"></path><path d="M125.06,75.46s-.07-.38-.16-.84c-.09-.46-.2-.82-.17-.84,.03-.01,.19,.34,.28,.81,.09,.47,.08,.86,.05,.86Z" style="fill:#263238;"></path><path d="M126.3,73.61s-.16-.07-.31-.21c-.15-.14-.26-.27-.24-.29,.02-.02,.16,.07,.31,.21,.15,.14,.26,.27,.24,.29Z" style="fill:#263238;"></path><path d="M129.26,69.73s-.36-.19-.76-.49c-.4-.29-.71-.55-.69-.58,.02-.02,.36,.19,.76,.49,.4,.29,.71,.55,.69,.58Z" style="fill:#263238;"></path><path d="M130.69,67.87s-.52,.27-1.24,.29c-.36,0-.67-.03-.9-.04-.23-.02-.37-.01-.37-.03,0-.01,.14-.04,.37-.05,.23,0,.55,.02,.89,.01,.69-.02,1.23-.21,1.24-.18Z" style="fill:#263238;"></path></g></g></g><g id="Net"><g><g><path d="M363.48,410.02s.35,0,1.03,.06c.69,.07,1.69,.18,3,.33,2.63,.32,6.51,.82,11.49,1.56,9.96,1.5,24.35,3.94,41.89,8.09,4.37,1.06,9.03,2.05,13.61,4.14,1.14,.53,2.26,1.15,3.31,1.93,1.05,.78,2.03,1.74,2.74,2.94,.35,.6,.61,1.27,.78,1.97,.15,.7,.16,1.44,.07,2.15-.2,1.43-.86,2.73-1.66,3.86-1.64,2.26-3.85,3.98-6.17,5.51-2.34,1.51-4.86,2.79-7.49,3.89-5.26,2.15-10.8,3.98-16.57,5.53-11.55,3.11-23.95,5.12-36.84,6.58-6.45,.72-13.02,1.33-19.69,1.82-3.34,.24-6.7,.48-10.09,.72-3.38,.25-6.8,.39-10.23,.6-1.72,.1-3.43,.19-5.13,.28-1.71,.07-3.41,.14-5.1,.21-3.39,.13-6.76,.26-10.11,.38-6.69,.15-13.29,.35-19.77,.36-12.96,.14-25.47-.1-37.38-.48-23.81-.84-45.21-2.54-63.12-4.49-17.91-1.95-32.33-4.1-42.27-5.72-4.97-.81-8.81-1.54-11.42-2.01-1.29-.25-2.28-.44-2.96-.57-.67-.14-1-.22-1-.25,0-.03,.35,0,1.03,.09,.68,.1,1.68,.24,2.99,.42,2.63,.4,6.49,.97,11.46,1.72,9.96,1.44,24.39,3.41,42.29,5.22,17.9,1.8,39.27,3.39,63.05,4.15,11.89,.34,24.37,.55,37.31,.39,6.47-.02,13.05-.22,19.74-.38,3.34-.13,6.7-.26,10.09-.39,1.69-.07,3.39-.14,5.1-.21,1.7-.09,3.41-.19,5.12-.28,3.42-.2,6.83-.35,10.21-.59,3.38-.24,6.74-.48,10.07-.72,6.66-.49,13.22-1.08,19.64-1.8,12.84-1.43,25.18-3.4,36.64-6.45,5.73-1.52,11.23-3.31,16.42-5.41,2.57-1.06,5.03-2.29,7.3-3.74,2.24-1.45,4.35-3.11,5.84-5.14,.73-1.01,1.29-2.13,1.45-3.28,.18-1.15-.09-2.3-.67-3.31-1.2-2.03-3.34-3.39-5.48-4.41-4.37-2.04-9-3.07-13.35-4.16-17.47-4.28-31.81-6.88-41.73-8.56-4.96-.8-8.81-1.42-11.44-1.85-1.3-.21-2.29-.37-2.98-.48-.67-.12-1.01-.19-1.01-.22Z" style="fill:#455a64;"></path><circle cx="394.38" cy="413.17" r="4.42" style="fill:#FF725E;"></circle><path d="M440.47,430.8s-.2,.04-.59,.1c-.41,.06-.99,.14-1.74,.24-1.55,.2-3.8,.5-6.69,.88-5.83,.74-14.24,1.81-24.63,3.13-20.82,2.59-49.55,6.16-81.28,10.1-31.75,3.87-60.49,7.38-81.31,9.91-10.39,1.23-18.81,2.22-24.65,2.91-2.9,.32-5.16,.57-6.71,.75-.75,.07-1.34,.13-1.75,.17-.39,.04-.6,.04-.6,.04,0,0,.2-.04,.59-.09,.41-.05,.99-.13,1.74-.22,1.55-.2,3.8-.48,6.69-.85,5.83-.73,14.25-1.78,24.63-3.08,20.82-2.58,49.55-6.14,81.3-10.07,31.74-3.89,60.47-7.4,81.3-9.95,10.39-1.25,18.81-2.26,24.65-2.96,2.9-.34,5.15-.6,6.7-.78,.75-.08,1.33-.14,1.75-.19,.39-.04,.6-.05,.6-.05Z" style="fill:#455a64;"></path><path d="M430.8,441.33s-.15,.04-.44,.08c-.31,.05-.74,.11-1.29,.19-1.17,.16-2.84,.38-4.98,.67-4.36,.56-10.62,1.36-18.34,2.35-15.52,1.94-36.91,4.61-60.54,7.56-23.65,2.88-45.05,5.48-60.57,7.37-7.74,.9-14,1.63-18.37,2.14-2.15,.23-3.83,.41-5,.54-.55,.05-.99,.09-1.3,.12-.29,.02-.44,.03-.44,.02,0,0,.15-.03,.44-.07,.32-.04,.74-.1,1.3-.17,1.17-.15,2.84-.36,4.99-.63,4.36-.55,10.62-1.33,18.35-2.31,15.52-1.93,36.91-4.58,60.55-7.52,23.64-2.89,45.04-5.51,60.56-7.41,7.73-.92,14-1.67,18.36-2.19,2.15-.25,3.83-.44,5-.57,.55-.06,.98-.1,1.3-.14,.29-.03,.44-.04,.45-.03Z" style="fill:#455a64;"></path><path d="M432.17,423.85s-.23,.04-.68,.11c-.47,.06-1.14,.15-2,.26-1.78,.22-4.37,.54-7.71,.95-6.71,.8-16.4,1.96-28.37,3.38-23.97,2.8-57.07,6.67-93.61,10.95-36.57,4.2-69.67,8.01-93.65,10.76-11.97,1.34-21.67,2.42-28.39,3.17-3.34,.35-5.94,.63-7.72,.82-.87,.08-1.54,.14-2.01,.19-.45,.04-.69,.05-.69,.05,0,0,.23-.04,.68-.1l2-.24c1.78-.21,4.37-.52,7.71-.92,6.72-.79,16.4-1.93,28.37-3.34,23.97-2.79,57.07-6.65,93.63-10.91,36.56-4.22,69.65-8.03,93.63-10.8,11.97-1.36,21.67-2.46,28.39-3.22,3.34-.37,5.94-.65,7.72-.85,.87-.09,1.54-.16,2.01-.21,.45-.04,.69-.05,.69-.05Z" style="fill:#455a64;"></path><path d="M411.58,418.81s-.24,.05-.7,.11c-.48,.06-1.16,.15-2.06,.27-1.83,.22-4.49,.55-7.91,.97-6.89,.82-16.83,2-29.1,3.47-24.59,2.88-58.54,6.84-96.03,11.23-37.51,4.31-71.47,8.21-96.07,11.04-12.28,1.37-22.23,2.49-29.12,3.26-3.43,.36-6.09,.65-7.92,.84-.9,.08-1.58,.15-2.06,.19-.46,.04-.7,.05-.7,.05,0,0,.24-.04,.7-.1,.48-.06,1.16-.14,2.06-.25,1.83-.22,4.49-.53,7.91-.94,6.89-.81,16.83-1.98,29.1-3.42,24.59-2.87,58.54-6.82,96.05-11.19,37.5-4.32,71.45-8.24,96.05-11.08,12.28-1.39,22.23-2.52,29.12-3.3,3.43-.38,6.09-.67,7.92-.87,.89-.09,1.58-.16,2.06-.21,.46-.05,.7-.06,.7-.06Z" style="fill:#455a64;"></path><path d="M209.73,459.91c-.09,.11-5.31-4.19-11.66-9.6-6.35-5.41-11.42-9.88-11.32-9.99,.09-.11,5.31,4.19,11.66,9.6,6.35,5.41,11.42,9.88,11.32,9.99Z" style="fill:#455a64;"></path><path d="M230.36,460.2c-.09,.11-6.28-5.01-13.83-11.44-7.55-6.43-13.58-11.73-13.49-11.84,.09-.11,6.28,5.01,13.83,11.44,7.54,6.43,13.58,11.73,13.49,11.84Z" style="fill:#455a64;"></path><path d="M252.01,461.35c-.09,.11-6.51-5.21-14.33-11.87-7.82-6.67-14.09-12.16-14-12.27,.09-.11,6.51,5.21,14.33,11.87,7.82,6.67,14.09,12.16,13.99,12.27Z" style="fill:#455a64;"></path><path d="M271.63,460.79c-.09,.11-6.28-5.01-13.83-11.44-7.55-6.43-13.58-11.73-13.49-11.84,.09-.11,6.28,5.01,13.83,11.44,7.54,6.43,13.58,11.73,13.49,11.84Z" style="fill:#455a64;"></path><path d="M292.27,461.08c-.09,.11-7.58-5.73-16.73-13.05-9.15-7.32-16.49-13.35-16.4-13.46,.09-.11,7.58,5.73,16.73,13.06,9.15,7.32,16.49,13.35,16.4,13.46Z" style="fill:#455a64;"></path><path d="M313.78,460.95c-.09,.11-7.58-5.73-16.73-13.05-9.15-7.32-16.49-13.35-16.4-13.46,.09-.11,7.58,5.73,16.73,13.06,9.15,7.32,16.49,13.35,16.4,13.46Z" style="fill:#455a64;"></path><path d="M335.3,460.82c-.09,.11-8.43-6.94-18.61-15.74-10.19-8.8-18.36-16.03-18.27-16.14,.09-.11,8.42,6.94,18.61,15.74,10.18,8.8,18.36,16.03,18.27,16.13Z" style="fill:#455a64;"></path><path d="M354.84,459.47c-.1,.1-8.26-7.46-18.23-16.9-9.97-9.44-17.97-17.17-17.87-17.28,.1-.1,8.26,7.46,18.23,16.9,9.97,9.44,17.97,17.17,17.87,17.27Z" style="fill:#455a64;"></path><path d="M376.94,458.18c-.1,.11-8.96-7.94-19.79-17.98-10.84-10.04-19.54-18.25-19.44-18.36s8.96,7.94,19.79,17.98c10.83,10.03,19.54,18.25,19.44,18.36Z" style="fill:#455a64;"></path><path d="M394.38,454.59c-.1,.11-9.39-8.09-20.75-18.3-11.37-10.22-20.5-18.58-20.41-18.69,.1-.11,9.39,8.09,20.75,18.3,11.36,10.21,20.5,18.58,20.4,18.69Z" style="fill:#455a64;"></path><path d="M410.94,450.96c-.09,.11-10.79-8.97-23.9-20.27-13.11-11.31-23.65-20.56-23.56-20.67,.09-.11,10.79,8.97,23.9,20.27,13.1,11.3,23.65,20.55,23.56,20.66Z" style="fill:#455a64;"></path><path d="M424.05,446.62c-.09,.11-9.38-7.18-20.75-16.28-11.38-9.11-20.52-16.57-20.43-16.69,.09-.11,9.38,7.18,20.76,16.28,11.37,9.1,20.52,16.57,20.43,16.69Z" style="fill:#455a64;"></path><path d="M435.13,440.66c-.09,.11-6.72-5.04-14.8-11.51-8.08-6.47-14.56-11.81-14.47-11.92,.09-.11,6.71,5.04,14.8,11.51,8.08,6.47,14.56,11.8,14.47,11.92Z" style="fill:#455a64;"></path></g><path d="M436.6,441.33c0,2.44-1.98,4.42-4.42,4.42s-4.43-1.98-4.43-4.42,1.98-4.43,4.43-4.43,4.42,1.98,4.42,4.43Z" style="fill:#FF725E;"></path><path d="M338.91,461.61c0,2.44-1.98,4.43-4.43,4.43s-4.42-1.98-4.42-4.43,1.98-4.43,4.42-4.43,4.43,1.98,4.43,4.43Z" style="fill:#FF725E;"></path><circle cx="208.25" cy="458.97" r="4.42" style="fill:#FF725E;"></circle></g></g><g id="Character"><g><g><g><path d="M114.56,322.27c.92-.21,1.82-.48,2.71-.82,.28-.11,.58-.25,.69-.52,.09-.23,0-.48-.11-.7-1.17-2.41-3.77-4.04-6.58-4.12l3.29,6.16Z" style="fill:#e0e0e0;"></path><path d="M118.71,333.34c.19,.09,.45,0,.61-.17,.16-.16,.26-.36,.37-.56,.3-.52,.73-.97,1.23-1.31,.2-.13,.41-.25,.58-.41,.17-.16,.31-.38,.3-.6-.02-.35-.36-.56-.67-.71-1.26-.59-2.65-.93-4.08-1l1.65,4.76Z" style="fill:#e0e0e0;"></path><path d="M111.14,338.57c.31,.42,.88,.59,1.43,.58,.55-.02,1.4-.41,1.93-.59l-3.89-2.94c.44,.81-.01,2.2,.53,2.95Z" style="fill:#e0e0e0;"></path><path d="M97.78,327.17c-.51,1.27-.62,2.72-.03,3.87,.52,1.02,1.52,1.7,2.53,2.29,1.24,.73,2.54,1.36,3.89,1.91,.39,.16,.8,.31,1.23,.24,.63-.1,1.13-.68,1.31-1.27,.19-.6,.08-1.69,.03-2.3l-6.69-8.2c-.9,1.07-1.76,2.2-2.27,3.47Z" style="fill:#e0e0e0;"></path><g style="opacity:.3;"><path d="M114.56,322.27c.92-.21,1.82-.48,2.71-.82,.28-.11,.58-.25,.69-.52,.09-.23,0-.48-.11-.7-1.17-2.41-3.77-4.04-6.58-4.12l3.29,6.16Z"></path></g><g style="opacity:.3;"><path d="M118.71,333.34c.19,.09,.45,0,.61-.17,.16-.16,.26-.36,.37-.56,.3-.52,.73-.97,1.23-1.31,.2-.13,.41-.25,.58-.41,.17-.16,.31-.38,.3-.6-.02-.35-.36-.56-.67-.71-1.26-.59-2.65-.93-4.08-1l1.65,4.76Z"></path></g><g style="opacity:.3;"><path d="M111.14,338.57c.31,.42,.88,.59,1.43,.58,.55-.02,1.4-.41,1.93-.59l-3.89-2.94c.44,.81-.01,2.2,.53,2.95Z"></path></g><g style="opacity:.3;"><path d="M97.78,327.17c-.51,1.27-.62,2.72-.03,3.87,.52,1.02,1.52,1.7,2.53,2.29,1.24,.73,2.54,1.36,3.89,1.91,.39,.16,.8,.31,1.23,.24,.63-.1,1.13-.68,1.31-1.27,.19-.6,.08-1.69,.03-2.3l-6.69-8.2c-.9,1.07-1.76,2.2-2.27,3.47Z"></path></g><path d="M115.14,341.68l-.55-2.82s-9.02-6.82-13.89-13.7c-4.68-6.61-8.83-20.13-6.76-22.72,.14-.17,.38-.22,.56-.12l.75,.39s-.31-1.11,.87-1c1.18,.12,8.19,3.62,12.27,9.51,4.09,5.89,9.61,17,10.96,23.42,0,0,.18,.79,1.05,1.27,.86,.48,7.48,3.67,9.34,6.64,0,0-.59,1.18-2.49,1.68-1.9,.5-3.02,.09-4.21,.89-1.19,.8-1.82,3.34-3.32,4.54s-2.34,2.01-3.04,0c-.7-2.01-1.53-7.97-1.53-7.97Z" style="fill:#e0e0e0;"></path><path d="M104.46,310.7c.15,2.66,1.71,5.38,3.26,7.16,.13,.15,.31,.32,.53,.27,.28-.06,.36-.43,.36-.71-.03-2.48-2.34-5.09-4.15-6.72" style="fill:#263238;"></path><path d="M103.05,306.82c.06-.01,.34,.57,.51,1.64,.08,.53,.07,1.19-.07,1.89-.14,.7-.4,1.47-.95,2.14-.55,.68-1.37,1.03-2.08,1.12-.73,.1-1.38,0-1.9-.15-1.03-.3-1.59-.63-1.57-.68,.03-.08,.65,.13,1.65,.32,.5,.09,1.1,.15,1.74,.04,.64-.11,1.3-.41,1.76-.98,.47-.56,.73-1.26,.88-1.9,.15-.65,.2-1.25,.17-1.75-.07-1.01-.23-1.65-.14-1.67Z" style="fill:#263238;"></path><path d="M101.7,306.62c.05-.03,.3,.27,.36,.87,.07,.58-.09,1.47-.71,2.17-.62,.7-1.45,1-2.03,1.04-.59,.05-.94-.11-.93-.17,.01-.08,.36-.06,.86-.19,.5-.12,1.19-.43,1.7-1.02,.52-.58,.71-1.3,.74-1.82,.03-.52-.07-.85,0-.88Z" style="fill:#263238;"></path><path d="M100.41,306.27c.07,0,.17,.21,.16,.58,0,.37-.14,.89-.47,1.36-.67,.97-1.68,1.13-1.69,.99-.05-.14,.72-.48,1.26-1.29,.58-.79,.58-1.62,.73-1.64Z" style="fill:#263238;"></path><path d="M95.25,302.7c.09-.12,.8,.27,1.75,.55,.47,.15,.94,.28,1.25,.47,.32,.2,.43,.41,.38,.46-.05,.06-.23-.04-.53-.12-.3-.09-.75-.16-1.25-.31-1.04-.31-1.68-.95-1.59-1.05Z" style="fill:#263238;"></path><path d="M95.55,305.71c.79-.53,1.83-.38,2.32,.35,.49,.73,.25,1.75-.54,2.28-.79,.53-1.83,.38-2.32-.35-.49-.73-.25-1.75,.54-2.28Z" style="fill:#fff;"></path><path d="M95.82,306.11c.55-.37,1.27-.26,1.62,.24,.34,.51,.17,1.22-.38,1.59-.55,.37-1.27,.26-1.62-.25-.34-.51-.17-1.22,.38-1.59Z" style="fill:#263238;"></path><g style="opacity:.3;"><path d="M119.51,335.72c.74,2.14,1.48,4.27,2.22,6.41,.17,.49,.27,1.16-.23,1.48-.43,.28-.94,.05-1.31-.19-2-1.28-4.08-2.75-5.59-4.52l.54,2.78s.83,5.96,1.53,7.97c.7,2.01,1.54,1.2,3.04,0s2.13-3.74,3.32-4.54c1.19-.8,2.31-.39,4.21-.89,1.9-.5,2.49-1.68,2.49-1.68-1.85-2.97-8.47-6.16-9.34-6.64-.61-.34-.88-.83-.98-1.09-.08,.29,0,.63,.1,.91Z"></path></g></g><g><path d="M118.46,314.47c-.91-.22-1.85-.38-2.79-.47-.29-.03-.63-.04-.85,.15-.19,.17-.21,.43-.22,.67-.03,2.68,1.57,5.29,4.05,6.63l-.2-6.98Z" style="fill:#e0e0e0;"></path><path d="M119.68,302.71c-.13-.17-.4-.19-.62-.12s-.4,.21-.58,.33c-.5,.33-1.08,.55-1.69,.63-.24,.03-.48,.04-.7,.11s-.45,.2-.54,.41c-.14,.32,.07,.66,.28,.93,.86,1.09,1.96,2.02,3.21,2.71l.64-5Z" style="fill:#e0e0e0;"></path><path d="M128.8,301.41c-.09-.51-.52-.92-1.02-1.15-.5-.23-1.43-.26-1.99-.33l2.17,4.36c-.03-.92,.99-1.97,.84-2.87Z" style="fill:#e0e0e0;"></path><path d="M135.66,317.58c1.02-.91,1.77-2.15,1.76-3.45-.01-1.15-.6-2.2-1.24-3.17-.79-1.2-1.67-2.36-2.63-3.45-.28-.31-.58-.63-.99-.76-.61-.19-1.31,.1-1.75,.55-.44,.45-.83,1.48-1.05,2.04l2.33,10.32c1.28-.56,2.55-1.18,3.58-2.09Z" style="fill:#e0e0e0;"></path><g style="opacity:.3;"><path d="M118.46,314.47c-.91-.22-1.85-.38-2.79-.47-.29-.03-.63-.04-.85,.15-.19,.17-.21,.43-.22,.67-.03,2.68,1.57,5.29,4.05,6.63l-.2-6.98Z"></path></g><g style="opacity:.3;"><path d="M119.68,302.71c-.13-.17-.4-.19-.62-.12s-.4,.21-.58,.33c-.5,.33-1.08,.55-1.69,.63-.24,.03-.48,.04-.7,.11s-.45,.2-.54,.41c-.14,.32,.07,.66,.28,.93,.86,1.09,1.96,2.02,3.21,2.71l.64-5Z"></path></g><g style="opacity:.3;"><path d="M128.8,301.41c-.09-.51-.52-.92-1.02-1.15-.5-.23-1.43-.26-1.99-.33l2.17,4.36c-.03-.92,.99-1.97,.84-2.87Z"></path></g><g style="opacity:.3;"><path d="M135.66,317.58c1.02-.91,1.77-2.15,1.76-3.45-.01-1.15-.6-2.2-1.24-3.17-.79-1.2-1.67-2.36-2.63-3.45-.28-.31-.58-.63-.99-.76-.61-.19-1.31,.1-1.75,.55-.44,.45-.83,1.48-1.05,2.04l2.33,10.32c1.28-.56,2.55-1.18,3.58-2.09Z"></path></g><path d="M126.6,296.84l-.77,2.77s5.03,10.13,6.32,18.46c1.24,8-1.08,21.96-4.09,23.35-.2,.09-.44,.03-.56-.14l-.5-.68s-.22,1.13-1.23,.5c-1.01-.63-5.71-6.9-6.74-13.99-1.03-7.09-1.01-19.51,.64-25.85,0,0,.19-.79-.37-1.6-.56-.82-5.06-6.62-5.39-10.11,0,0,1.05-.79,2.97-.39,1.92,.4,2.74,1.27,4.17,1.08,1.42-.19,3.12-2.18,5-2.58,1.88-.4,2.99-.76,2.72,1.35-.27,2.11-2.18,7.82-2.18,7.82Z" style="fill:#e0e0e0;"></path><path d="M122.34,329.34c1.06-2.45,.87-5.57,.27-7.86-.05-.2-.14-.43-.35-.48-.28-.07-.51,.22-.64,.47-1.08,2.24-.17,5.6,.72,7.87" style="fill:#263238;"></path><path d="M121.86,333.43c-.06-.01-.05-.67,.27-1.69,.17-.51,.47-1.1,.9-1.66,.43-.56,1.02-1.14,1.81-1.49,.79-.36,1.68-.31,2.37-.07,.7,.23,1.23,.63,1.63,.98,.78,.73,1.14,1.27,1.1,1.31-.06,.06-.53-.4-1.33-1.03-.41-.3-.92-.62-1.54-.81-.62-.19-1.34-.21-2.02,.09-.67,.3-1.22,.8-1.64,1.31-.43,.51-.73,1.03-.94,1.49-.39,.94-.53,1.58-.62,1.56Z" style="fill:#263238;"></path><path d="M122.98,334.22c-.06,0-.14-.38,.06-.94,.2-.55,.74-1.27,1.61-1.62,.87-.35,1.74-.25,2.28-.02,.55,.22,.79,.52,.75,.57-.05,.07-.35-.1-.86-.21-.51-.11-1.25-.14-1.97,.15-.72,.29-1.21,.85-1.47,1.3-.26,.45-.32,.79-.4,.79Z" style="fill:#263238;"></path><path d="M123.98,335.11c-.06-.02-.06-.26,.11-.59,.17-.33,.52-.73,1.02-1.01,1.03-.57,2.01-.26,1.96-.13-.02,.15-.86,.11-1.71,.59-.87,.45-1.25,1.19-1.38,1.14Z" style="fill:#263238;"></path><path d="M127.01,340.6c-.14,.07-.59-.6-1.32-1.27-.36-.34-.71-.67-.91-.98-.2-.32-.2-.56-.14-.58,.07-.03,.19,.14,.42,.35,.23,.21,.6,.47,.98,.84,.79,.74,1.08,1.6,.96,1.65Z" style="fill:#263238;"></path><path d="M128.08,337.77c-.95,.13-1.8-.48-1.92-1.35-.12-.87,.56-1.68,1.5-1.8s1.8,.48,1.92,1.35c.12,.87-.56,1.68-1.5,1.8Z" style="fill:#fff;"></path><path d="M128.02,337.3c-.66,.09-1.26-.33-1.34-.94s.39-1.17,1.05-1.26c.66-.09,1.26,.33,1.34,.94,.08,.61-.39,1.17-1.05,1.26Z" style="fill:#263238;"></path><g style="opacity:.3;"><path d="M120.03,300.23c.29-2.24,.58-4.48,.87-6.73,.07-.51,.28-1.16,.87-1.23,.5-.06,.86,.38,1.09,.76,1.22,2.04,2.42,4.28,2.99,6.54l.76-2.73s1.92-5.71,2.18-7.82c.27-2.11-.84-1.76-2.72-1.35-1.88,.4-3.58,2.39-5,2.58-1.42,.19-2.25-.68-4.17-1.08-1.92-.4-2.97,.39-2.97,.39,.33,3.48,4.83,9.29,5.39,10.11,.39,.57,.42,1.13,.4,1.41,.2-.22,.28-.56,.32-.86Z"></path></g></g><polygon points="136.9 369.58 96.21 369.58 87.88 315.25 147.51 315.25 136.9 369.58" style="fill:#455a64;"></polygon><path d="M113.23,321.6s28.4,18.79,28.82,18.37c.83-.8,1.92-2.59,1.6-2.48l-29.82-16.72-.61,.82Z" style="fill:#263238;"></path></g><g><g><path d="M447,341.41c-.09,.09-1.44-1.2-3.93-3.46-2.5-2.25-6.1-5.54-10.91-9.11-4.79-3.57-10.85-7.45-18.22-10.24-3.68-1.38-7.68-2.46-11.92-3.04-4.24-.55-8.69-.66-13.22-.29-9.07,.77-17.5,3.26-24.8,6.28-7.32,3.02-13.58,6.5-18.76,9.56-5.17,3.07-9.26,5.71-12.11,7.51-2.84,1.81-4.44,2.78-4.5,2.68-.06-.09,1.42-1.23,4.16-3.19,2.75-1.95,6.75-4.75,11.88-7.95,5.12-3.19,11.38-6.81,18.77-9.94,7.37-3.13,15.94-5.71,25.22-6.51,4.63-.38,9.2-.26,13.56,.33,4.35,.62,8.47,1.76,12.22,3.21,7.53,2.93,13.62,6.98,18.38,10.71,4.79,3.72,8.29,7.15,10.67,9.55,1.18,1.2,2.08,2.16,2.66,2.83,.59,.67,.88,1.03,.84,1.07Z" style="fill:#455a64;"></path><path d="M384.43,314.64s-.42,.37-1.24,.97c-.9,.64-2.07,1.48-3.49,2.49-2.95,2.1-7.01,5.01-11.46,8.27-4.45,3.27-8.44,6.29-11.32,8.47-1.39,1.05-2.54,1.92-3.42,2.58-.81,.6-1.27,.93-1.29,.9-.02-.03,.39-.4,1.17-1.06,.77-.65,1.91-1.58,3.32-2.71,2.83-2.26,6.78-5.33,11.24-8.6,4.45-3.27,8.56-6.14,11.56-8.16,1.5-1.01,2.73-1.82,3.58-2.36,.85-.54,1.34-.83,1.36-.8Z" style="fill:#455a64;"></path><path d="M400.54,314.56s-.42,.37-1.24,.97c-.9,.64-2.07,1.48-3.49,2.49-2.95,2.1-7.01,5.01-11.46,8.27-4.45,3.27-8.44,6.29-11.32,8.47-1.39,1.05-2.54,1.92-3.42,2.58-.81,.6-1.27,.93-1.29,.9s.39-.4,1.17-1.06c.77-.65,1.91-1.58,3.32-2.71,2.83-2.26,6.78-5.33,11.24-8.6,4.45-3.27,8.56-6.14,11.56-8.16,1.5-1.01,2.73-1.82,3.58-2.36,.85-.54,1.34-.83,1.36-.8Z" style="fill:#455a64;"></path><path d="M412.44,317.59s-.36,.33-1.07,.85c-.8,.57-1.81,1.3-3.03,2.17-2.56,1.82-6.11,4.33-9.98,7.17-3.87,2.84-7.32,5.48-9.82,7.39-1.19,.9-2.19,1.65-2.97,2.25-.71,.52-1.11,.8-1.13,.77s.34-.36,1.01-.93c.67-.57,1.65-1.38,2.87-2.38,2.45-1.98,5.87-4.67,9.74-7.52,3.87-2.84,7.46-5.31,10.08-7.05,1.31-.87,2.38-1.57,3.12-2.03,.75-.47,1.17-.71,1.19-.68Z" style="fill:#455a64;"></path><path d="M421.72,321.87s-.27,.27-.81,.67l-2.31,1.68c-1.96,1.41-4.67,3.35-7.54,5.64-2.86,2.31-5.44,4.44-7.35,5.92-.95,.74-1.73,1.33-2.28,1.73-.55,.4-.86,.61-.88,.58-.02-.03,.25-.29,.75-.74,.6-.51,1.33-1.13,2.17-1.86,1.85-1.55,4.38-3.72,7.26-6.04,2.89-2.31,5.65-4.2,7.66-5.54,1.01-.67,1.83-1.2,2.41-1.55,.58-.35,.9-.54,.92-.51Z" style="fill:#455a64;"></path><path d="M431.13,327.37c.04,.06-.76,.68-2.08,1.62-1.31,.96-3.21,2.2-5.24,3.59-1.93,1.52-3.69,2.96-4.99,3.93-1.3,.98-2.13,1.56-2.17,1.5-.05-.06,.7-.74,1.94-1.79,1.25-1.05,2.93-2.51,4.91-4.06,2.07-1.43,3.97-2.59,5.34-3.48,1.38-.87,2.25-1.38,2.29-1.32Z" style="fill:#455a64;"></path><path d="M393.06,315.84s.5,.26,1.36,.8c.86,.54,2.08,1.35,3.58,2.36,3,2.02,7.11,4.89,11.56,8.16,4.45,3.28,8.41,6.34,11.24,8.6,1.41,1.13,2.55,2.06,3.32,2.71,.77,.65,1.19,1.03,1.17,1.06-.02,.03-.48-.29-1.29-.9-.88-.67-2.03-1.54-3.42-2.58-2.88-2.19-6.87-5.2-11.32-8.47-4.45-3.27-8.51-6.18-11.46-8.27-1.41-1.01-2.59-1.85-3.49-2.49-.82-.59-1.26-.94-1.24-.97Z" style="fill:#455a64;"></path><path d="M376.95,315.76s.5,.26,1.36,.8c.86,.54,2.08,1.35,3.58,2.36,3,2.02,7.11,4.89,11.56,8.16,4.45,3.27,8.41,6.34,11.24,8.6,1.41,1.13,2.55,2.06,3.32,2.72,.77,.65,1.19,1.03,1.17,1.06s-.48-.29-1.29-.9c-.88-.67-2.03-1.54-3.42-2.58-2.88-2.19-6.87-5.2-11.32-8.47-4.45-3.27-8.51-6.18-11.46-8.27-1.41-1.01-2.59-1.85-3.49-2.49-.82-.59-1.26-.94-1.24-.97Z" style="fill:#455a64;"></path><path d="M366.37,319.75s.42,.2,1.14,.65c.71,.44,1.73,1.1,2.98,1.93,2.5,1.66,5.93,3.99,9.62,6.71,3.69,2.72,6.94,5.29,9.27,7.18,1.16,.95,2.1,1.72,2.73,2.27,.64,.55,.98,.86,.96,.89-.02,.03-.41-.23-1.08-.73-.75-.57-1.7-1.29-2.83-2.14-2.39-1.82-5.67-4.34-9.35-7.05-3.68-2.71-7.07-5.09-9.52-6.82-1.15-.83-2.12-1.52-2.89-2.07-.68-.5-1.04-.78-1.02-.81Z" style="fill:#455a64;"></path><path d="M357.04,324.04s.33,.14,.87,.47c.54,.33,1.32,.82,2.27,1.45,1.89,1.25,4.51,3.01,7.22,5.19,2.7,2.19,5.07,4.24,6.81,5.7,1.73,1.47,2.79,2.39,2.75,2.45-.02,.03-.32-.16-.83-.54-.52-.37-1.25-.93-2.15-1.62-1.8-1.39-4.22-3.4-6.9-5.58-2.69-2.16-5.26-3.96-7.1-5.29-1.84-1.33-2.97-2.16-2.93-2.22Z" style="fill:#455a64;"></path><path d="M347.27,329.24c.04-.06,.86,.41,2.15,1.23,1.29,.82,3.06,1.92,5.02,3.23,1.84,1.48,3.42,2.84,4.59,3.83,1.16,.99,1.86,1.63,1.81,1.69-.04,.06-.82-.48-2.04-1.4-1.22-.91-2.87-2.26-4.66-3.7-1.91-1.28-3.69-2.46-4.92-3.35-1.24-.89-1.99-1.47-1.95-1.53Z" style="fill:#455a64;"></path><path d="M437.69,333.26c.08,.1-2.16,2-5.28,3.81-3.11,1.83-5.86,2.87-5.91,2.74-.06-.14,2.57-1.38,5.65-3.19,3.09-1.8,5.45-3.49,5.54-3.37Z" style="fill:#455a64;"></path></g><path d="M368.32,330.38c0,2.06-1.67,3.74-3.74,3.74s-3.74-1.67-3.74-3.74,1.67-3.74,3.74-3.74,3.74,1.67,3.74,3.74Z" style="fill:#FF725E;"></path><path d="M392.21,312.93c0,2.06-1.67,3.74-3.74,3.74s-3.74-1.67-3.74-3.74,1.67-3.74,3.74-3.74,3.74,1.67,3.74,3.74Z" style="fill:#FF725E;"></path><path d="M429.72,324.04c0,2.06-1.67,3.74-3.74,3.74s-3.74-1.67-3.74-3.74,1.67-3.74,3.74-3.74,3.74,1.67,3.74,3.74Z" style="fill:#FF725E;"></path></g><path d="M230.85,237.02h.02c.11-2.29,.86-11.73,1.13-13.6,2.13,.63,5.01-.4,7.25,0,5.86,.93,8.6,9.87,14.67,9.4l.4-.03c12.3-.99,22.5-12.01,35.21-15.62l4.35,21.51,4.66,66.19,3.38,67.42h-21.03s-7.41-51.85-7.99-59.03c-.64-7.99-10.68-57.58-10.68-57.58l-1.82-.43,1.12,116.22h-21.78s-8.75-125.14-8.93-129.58c-.07-1.68-.06-3.31,0-4.87Z" style="fill:#263238;"></path><g><path d="M225.78,89.69s.95,6.3,11.98,8.54l1.9-6.02-13.88-2.51Z" style="fill:#263238;"></path><g><g><path d="M254.4,83.44l-.85,.03c-8.6,.33-15.5,7.21-15.86,15.81-.34,8-.61,16.84-.39,21.11,.45,8.85,9.36,9.89,9.36,9.89l-.34,10.67,20.78-1.6,1.1-38.41c.44-9.37-4.56-17.31-13.79-17.49Z" style="fill:#ae7461;"></path><path d="M246.64,130.28s5.61,.11,11.41-3.85c0,0-2.61,6.63-11.47,6.17l.06-2.32Z" style="fill:#6f4439;"></path><path d="M241.45,108.24c0,.67,.57,1.22,1.27,1.23,.7,.01,1.26-.52,1.26-1.19,0-.67-.57-1.22-1.27-1.23-.7-.01-1.26,.52-1.26,1.19Z" style="fill:#263238;"></path><path d="M239.75,103.54c.16,.16,1.09-.59,2.45-.64,1.36-.07,2.38,.59,2.53,.42,.07-.08-.1-.37-.55-.67-.44-.3-1.18-.58-2.03-.54-.85,.04-1.55,.38-1.95,.71-.41,.34-.54,.64-.46,.71Z" style="fill:#263238;"></path><path d="M252.97,107.91c0,.67,.57,1.22,1.27,1.23,.7,.01,1.26-.52,1.26-1.19,0-.67-.57-1.22-1.27-1.23-.7-.01-1.26,.52-1.26,1.19Z" style="fill:#263238;"></path><path d="M253.14,103.28c.16,.16,1.1-.59,2.46-.64,1.36-.07,2.38,.59,2.53,.42,.07-.08-.1-.37-.55-.67-.44-.3-1.18-.58-2.03-.54-.85,.04-1.55,.38-1.95,.71-.4,.34-.54,.64-.46,.71Z" style="fill:#263238;"></path><path d="M248.59,113.56c0-.08-.85-.19-2.23-.31-.35-.02-.68-.08-.75-.31-.09-.25,.04-.63,.19-1.04,.29-.85,.6-1.75,.93-2.69,1.28-3.82,2.2-6.96,2.04-7.01-.15-.05-1.32,3.01-2.6,6.83-.31,.94-.6,1.84-.88,2.7-.12,.4-.33,.86-.13,1.37,.1,.26,.37,.44,.59,.49,.23,.06,.42,.06,.59,.06,1.38,.02,2.24,0,2.24-.08Z" style="fill:#263238;"></path><path d="M251.76,98.09c.19,.34,1.34-.08,2.78-.18,1.43-.13,2.65,.09,2.77-.27,.05-.17-.22-.47-.74-.73-.52-.26-1.31-.44-2.17-.37-.86,.07-1.59,.38-2.05,.72-.46,.34-.66,.68-.58,.84Z" style="fill:#263238;"></path><path d="M239.47,97.93c.3,.3,1.41-.07,2.76-.13,1.35-.11,2.5,.11,2.75-.22,.11-.16-.08-.46-.59-.74-.5-.27-1.34-.48-2.26-.42-.93,.06-1.72,.37-2.18,.71-.46,.34-.61,.66-.48,.81Z" style="fill:#263238;"></path><path d="M238.38,95.19s2.12-5.64,4.75-7.03c3.18-1.69,4.71,1.81,7.76,.83,3.05-.98,6.08-2.6,9.33-.34,3.55,2.48,2,4.37,2.37,8.29,1.48,15.9,4.56,20.29,5.1,12.75,.06-.83,2.32-1.57,2.52-5.05,.27-4.52,.23-10-.9-13.15-.95-2.66-2.56-4.46-5.39-6.41-4.47-3.07-10.45-2.91-14.49-2.35-4.04,.56-11.68,5.53-11.04,12.46Z" style="fill:#263238;"></path><path d="M267.1,109.47c0-1.37,1.14-2.49,2.51-2.42,1.66,.09,3.53,.96,3.55,4.38,.04,6.06-6.05,4.85-6.07,4.68,0-.12,0-4.1,0-6.64Z" style="fill:#ae7461;"></path><path d="M268.4,113.82s.11,.07,.29,.15c.17,.08,.47,.13,.79,.01,.64-.24,1.17-1.26,1.19-2.35,.01-.55-.11-1.08-.31-1.51-.19-.44-.48-.75-.8-.81-.32-.07-.55,.12-.62,.29-.08,.17-.04,.29-.07,.3-.02,.02-.13-.1-.08-.35,.02-.12,.09-.26,.24-.38,.14-.12,.36-.18,.58-.16,.47,.03,.89,.46,1.11,.93,.24,.48,.39,1.07,.38,1.69-.03,1.22-.65,2.37-1.52,2.63-.43,.11-.78-.01-.97-.15-.19-.15-.22-.28-.2-.3Z" style="fill:#6f4439;"></path></g><path d="M248.49,117.91c.03-.23,1.53,.03,2.81-1.08,1.29-1.1,1.39-2.73,1.61-2.7,.1,0,.23,.41,.13,1.08-.09,.67-.47,1.6-1.26,2.27-.79,.67-1.72,.86-2.34,.81-.64-.05-.98-.28-.95-.38Z" style="fill:#263238;"></path></g><path d="M238.07,94.09s1.39-1.72,4.93-2.74c6.59-1.89,15.86-2.51,25.72,7.49l1.66,2.58s.05-5.24-.47-7.73c-.35-1.66-1.2-11.77-13.67-13.65,.73,.11-16.55-1.56-18.17,14.06Z" style="fill:#455a64;"></path><path d="M238.87,88.94c9.82-.99,19.29,.34,26.48,6.7-5.05-2.14-12.31-3.11-17.74-2.35-5.43,.76-10.98,1.79-16.36,.7-2.42-.49-5.12-1.84-5.47-4.29l13.09-.75Z" style="fill:#455a64;"></path><path d="M266.26,94.54c-.05,.08-1.45-.73-3.86-1.75-1.2-.53-2.67-1.04-4.31-1.58-1.65-.5-3.49-.98-5.45-1.36-3.92-.75-7.54-.96-10.15-.95-2.62,0-4.23,.16-4.24,.07,0-.04,.4-.11,1.13-.2,.73-.1,1.79-.19,3.11-.24,2.63-.1,6.29,.05,10.25,.81,1.98,.39,3.83,.88,5.49,1.41,1.65,.56,3.12,1.12,4.31,1.7,.6,.26,1.13,.55,1.59,.79,.47,.24,.86,.46,1.17,.66,.63,.38,.97,.61,.95,.64Z" style="fill:#263238;"></path></g><g><g><path d="M243.65,359.41l.62,15.52s-16.32,5.81-16.5,8.69l31.57-.06,.08-24.23-15.77,.07Z" style="fill:#263238;"></path><path d="M254.02,373.61c.61,.16,1.03,.81,.89,1.4s-.83,1.01-1.45,.86c-.61-.15-1.15-.92-.94-1.49,.21-.57,1.05-1.02,1.61-.73" style="fill:#e0e0e0;"></path><path d="M259.34,383.56l-.09-2.44-30.23,.97s-1.4,.59-1.24,1.53l31.57-.06Z" style="fill:#455a64;"></path><path d="M243.75,374.78c0,.15,.78,.21,1.54,.68,.77,.45,1.16,1.09,1.31,1.03,.14-.03-.09-.91-1.02-1.46-.92-.56-1.86-.39-1.82-.25Z" style="fill:#fff;"></path><path d="M240.44,376.1c-.03,.14,.63,.39,1.16,1.01,.54,.61,.68,1.28,.83,1.27,.14,.02,.25-.84-.42-1.6-.66-.77-1.57-.83-1.57-.69Z" style="fill:#fff;"></path><path d="M238.57,379.88c.14,.03,.35-.7-.04-1.51-.39-.81-1.12-1.12-1.18-1-.09,.12,.38,.55,.7,1.22,.33,.66,.38,1.28,.53,1.29Z" style="fill:#fff;"></path><path d="M244.02,371.23c.06,.13,.77-.07,1.64-.02,.87,.04,1.55,.32,1.63,.19,.09-.11-.57-.65-1.6-.7-1.03-.06-1.75,.41-1.67,.53Z" style="fill:#fff;"></path></g><g><path d="M284.39,357.88l1.71,18.73-3.12,15.18c-.22,1.09,.57,2.14,1.73,2.28h0c.65,.08,1.29-.14,1.73-.6,2.81-2.93,13.11-13.75,12.9-15.12-.24-1.58-.43-19.87-.43-19.87l-14.52-.6Z" style="fill:#263238;"></path><path d="M284.7,394.07l14.55-16.99,.05,.79c.05,.69-.16,1.37-.59,1.92-1.15,1.48-4.43,5.49-12.22,13.66-.45,.48-1.13,.7-1.79,.61h0Z" style="fill:#455a64;"></path><g style="opacity:.6;"><path d="M294.82,371.28c-.47,.35-.58,1.08-.23,1.54,.35,.46,1.12,.58,1.6,.23,.48-.35,.64-1.21,.24-1.63-.4-.42-1.31-.51-1.69-.07" style="fill:#fff;"></path></g><path d="M288.64,385.6c-.11,.06-.62-.9-1.82-1.35-1.19-.49-2.26-.16-2.29-.27-.02-.04,.22-.21,.67-.3,.45-.09,1.12-.07,1.78,.19,.66,.26,1.15,.7,1.4,1.07,.26,.37,.3,.65,.26,.67Z" style="fill:#fff;"></path><path d="M287.41,388.2c-.09,.09-.76-.48-1.79-.7-1.03-.24-1.89,0-1.93-.12-.06-.09,.86-.55,2.03-.28,1.18,.25,1.8,1.05,1.7,1.1Z" style="fill:#fff;"></path><path d="M291.03,382.22c-.09,.09-1.11-.79-2.69-1.26-1.57-.49-2.95-.35-2.96-.47-.04-.1,1.4-.45,3.09,.08,1.69,.51,2.65,1.59,2.56,1.65Z" style="fill:#fff;"></path><path d="M291.01,376.49c-.04,.12-1.16-.25-2.57-.21-1.42,.02-2.51,.43-2.56,.32-.06-.09,1.03-.71,2.55-.73,1.52-.04,2.64,.53,2.58,.63Z" style="fill:#fff;"></path><path d="M290.65,370.98c-.05,.11-1.19-.45-2.67-.29-1.49,.12-2.49,.88-2.56,.78-.03-.04,.16-.29,.6-.56,.43-.28,1.12-.55,1.92-.63,.8-.07,1.53,.07,2.01,.26,.48,.19,.73,.4,.7,.44Z" style="fill:#fff;"></path><path d="M287.94,369.64s-.09-.25-.07-.71c.01-.46,.11-1.13,.47-1.89,.19-.36,.38-.82,.91-1.1,.26-.14,.67-.12,.92,.12,.25,.23,.34,.53,.37,.83,.06,1.19-.93,2.41-2.32,2.67-1.4,.23-2.73-.46-3.35-1.45-.14-.26-.25-.58-.12-.91,.13-.33,.52-.48,.8-.45,.59,.05,.98,.35,1.34,.56,.71,.48,1.17,1,1.44,1.38,.27,.38,.37,.62,.35,.63-.07,.05-.56-.89-1.95-1.76-.35-.2-.76-.45-1.18-.46-.21,0-.38,.08-.44,.24-.07,.16,0,.39,.11,.59,.53,.81,1.74,1.44,2.92,1.22,1.17-.21,2.05-1.28,2.01-2.24-.01-.23-.09-.46-.23-.59-.14-.13-.33-.15-.51-.07-.37,.17-.6,.58-.79,.92-.74,1.43-.58,2.49-.67,2.48Z" style="fill:#fff;"></path></g></g><g><path d="M246.05,135.28l-14.59,5.71,1.87,60.56s-4.05,22.03-3.52,24.14c.53,2.1,15.87,14.84,34.79,13.39,20.51-1.58,26.69-16.56,26.69-16.56l-2.21-68.1-1.58-19.2-19.7-2.38c-6.26,8.2-15.62,7.59-21.76,2.45Z" style="fill:#FF725E;"></path><path d="M251.52,181.93s.32-.35,.95-.9c.71-.62,1.61-1.41,2.68-2.35,2.26-1.99,5.32-4.79,8.56-8.05,3.23-3.26,6.01-6.35,7.98-8.62,.93-1.08,1.71-1.98,2.33-2.7,.55-.64,.87-.98,.89-.96,.03,.02-.24,.41-.74,1.09-.5,.68-1.25,1.64-2.2,2.81-1.9,2.34-4.65,5.48-7.9,8.75-3.25,3.27-6.36,6.04-8.69,7.96-1.16,.96-2.12,1.72-2.79,2.22-.67,.51-1.06,.77-1.08,.75Z" style="fill:#263238;"></path></g><g><path d="M231.47,140.99s-8.96,2.3-12.54,9.93c-2.63,5.61-3.94,33.27-3.94,33.27l20.23-7.44-3.75-35.76Z" style="fill:#FF725E;"></path><g><path d="M219.42,182.67s1.41,6.78,3.33,14.12c1.91,7.3,9,8.37,11.23,7.56,4.46-1.61,24.66-9.35,24.66-9.35l.45-.82-2.42-8.05-21.02,1.65-1.97-10.41-14.25,5.3Z" style="fill:#ae7461;"></path><path d="M260.36,184.08c2.98,.14,10.04,6.9,11.49,6.9s.97-4.84,2.06-5.08c1.09-.24,1.21-1.33,1.94-1.09s2.3,3.87,1.45,6.17-1.69,6.29-3.63,7.14c-1.94,.85-7.02-.36-8.59-1.21-1.57-.85-8.74-2.44-8.74-2.44v-8.41s1.48-2.09,4.02-1.97Z" style="fill:#ae7461;"></path><path d="M231.22,193.13c-.13-.01,.22-1.8,1.69-3.4,1.45-1.62,3.2-2.14,3.22-2.01,.07,.14-1.48,.84-2.84,2.36-1.38,1.5-1.92,3.11-2.07,3.05Z" style="fill:#6f4439;"></path></g><path d="M229.95,155.46s.14,.32,.31,.93c.17,.61,.39,1.49,.64,2.59,.51,2.19,1.13,5.24,1.7,8.62,.57,3.39,.97,6.47,1.21,8.71,.12,1.12,.2,2.03,.24,2.65,.04,.63,.05,.98,.01,.98-.07,0-.29-1.37-.62-3.59-.33-2.22-.79-5.29-1.36-8.67-.57-3.38-1.13-6.43-1.55-8.64-.41-2.21-.66-3.58-.59-3.59Z" style="fill:#263238;"></path></g><g><path d="M474.73,337.52H45.79v7.3s54.03,37.85,111.55,45.82c37.65,5.22,73.8,6.73,94.29,7.16v.15s3.11,.04,8.63-.01c5.52,.05,8.63,.01,8.63,.01v-.15c20.49-.43,56.64-1.94,94.29-7.16,57.52-7.97,111.55-45.82,111.55-45.82,0,0-1.74-5.31,0-7.3Z" style="fill:#ae7461;"></path><path d="M473.09,345.89c0,.14-95.71,.26-213.76,.26s-213.78-.12-213.78-.26,95.69-.26,213.78-.26,213.76,.12,213.76,.26Z" style="fill:#6f4439;"></path><path d="M445.08,362.98c0,.14-82.56,.26-184.38,.26s-184.4-.12-184.4-.26,82.54-.26,184.4-.26,184.38,.12,184.38,.26Z" style="fill:#6f4439;"></path><path d="M421.85,372.78c0,.14-72.63,.26-162.2,.26s-162.21-.12-162.21-.26,72.61-.26,162.21-.26,162.2,.12,162.2,.26Z" style="fill:#6f4439;"></path><path d="M459.19,354.09c0,.14-89.55,.26-199.99,.26s-200.01-.12-200.01-.26,89.53-.26,200.01-.26,199.99,.12,199.99,.26Z" style="fill:#6f4439;"></path><path d="M396.82,381.26c0,.14-62.12,.26-138.74,.26s-138.75-.12-138.75-.26,62.11-.26,138.75-.26,138.74,.12,138.74,.26Z" style="fill:#6f4439;"></path><path d="M354.2,391.18c0,.14-43.18,.26-96.44,.26s-96.45-.12-96.45-.26,43.17-.26,96.45-.26,96.44,.12,96.44,.26Z" style="fill:#6f4439;"></path></g><g><path d="M261.57,191.55s3.51,2.17,4.36,.53c.85-1.64-.38-3.17-2.39-4.07-1.4-.62-3.3-1.32-3.3-1.32" style="fill:#ae7461;"></path><path d="M260.24,186.69c.02-.07,.76,.16,1.93,.58,.58,.23,1.29,.42,2.05,.82,.73,.4,1.56,.96,2.01,1.92,.22,.47,.28,1.02,.17,1.51-.06,.24-.15,.47-.25,.68l-.23,.31c-.1,.08-.2,.16-.31,.23-.46,.23-.91,.19-1.28,.14-.38-.06-.72-.18-1.01-.29-1.17-.49-1.78-.98-1.75-1.03,.04-.07,.71,.31,1.87,.69,.55,.16,1.34,.38,1.94,.08l.19-.15,.14-.2c.08-.18,.15-.36,.19-.55,.08-.39,.03-.8-.15-1.19-.36-.78-1.09-1.33-1.77-1.72-.68-.39-1.4-.63-1.95-.9-1.13-.5-1.82-.85-1.79-.92Z" style="fill:#6f4439;"></path></g><g><path d="M278.23,190.8c.17,0,.09,2.45,.84,6.38,.73,3.91,2.5,9.34,6.21,14.49l-.72-.11c1.2-.9,2.43-1.85,3.67-2.85,3.02-2.44,5.78-4.91,8.18-7.21l.07,.74c-4.02-2.73-6.9-5.72-8.71-7.96-.91-1.12-1.56-2.06-1.99-2.72-.42-.66-.61-1.03-.57-1.06,.1-.07,1.08,1.29,2.99,3.4,1.91,2.11,4.83,4.94,8.8,7.54l.49,.32-.42,.42c-2.38,2.36-5.14,4.88-8.19,7.34-1.25,1.01-2.5,1.97-3.71,2.87l-.42,.31-.3-.42c-3.78-5.33-5.47-10.96-6.04-14.97-.29-2.02-.36-3.65-.34-4.77,.03-1.12,.1-1.73,.16-1.73Z" style="fill:#455a64;"></path><path d="M284.47,211.58c-.07,0-.23-1.1-.32-2.9-.09-1.8-.09-4.3,.15-7.05,.25-2.75,.69-5.21,1.1-6.96,.41-1.76,.77-2.82,.83-2.8,.08,.02-.15,1.11-.47,2.87-.32,1.76-.7,4.21-.94,6.94-.24,2.72-.3,5.2-.3,6.99,0,1.79,.03,2.91-.05,2.91Z" style="fill:#455a64;"></path><path d="M295.94,202.46c-.03,.14-3.88-.49-8.61-1.4-4.73-.92-8.54-1.77-8.51-1.91,.03-.14,3.88,.49,8.61,1.4,4.73,.91,8.54,1.77,8.51,1.91Z" style="fill:#455a64;"></path></g><g><g><g><path d="M172.85,311.78c-.35,.42-.38,1.05-.22,1.61,.16,.56,.78,1.32,1.1,1.82l2-4.74c-.71,.66-2.26,.56-2.88,1.31Z" style="fill:#FF725E;"></path><g style="opacity:.3;"><path d="M172.85,311.78c-.35,.42-.38,1.05-.22,1.61,.16,.56,.78,1.32,1.1,1.82l2-4.74c-.71,.66-2.26,.56-2.88,1.31Z"></path></g></g><g><path d="M181.07,295.14c-1.43-.19-2.94,.07-3.97,.97-.91,.8-1.35,2-1.69,3.18-.42,1.46-.74,2.96-.94,4.48-.06,.44-.11,.9,.08,1.32,.27,.62,.98,.98,1.65,1.02,.66,.04,1.75-.36,2.36-.57l6.66-8.98c-1.33-.64-2.71-1.23-4.14-1.42Z" style="fill:#FF725E;"></path><g style="opacity:.3;"><path d="M181.07,295.14c-1.43-.19-2.94,.07-3.97,.97-.91,.8-1.35,2-1.69,3.18-.42,1.46-.74,2.96-.94,4.48-.06,.44-.11,.9,.08,1.32,.27,.62,.98,.98,1.65,1.02,.66,.04,1.75-.36,2.36-.57l6.66-8.98c-1.33-.64-2.71-1.23-4.14-1.42Z"></path></g></g><path d="M190.43,311.05c.45,.89,.97,1.74,1.55,2.56,.18,.26,.41,.53,.71,.57,.26,.03,.49-.13,.69-.29,2.17-1.82,3.16-4.9,2.51-7.81l-5.45,4.97Z" style="fill:#FF725E;"></path><path d="M180.18,318.18c-.04,.22,.12,.45,.33,.58,.2,.13,.44,.17,.67,.24,.61,.17,1.19,.49,1.67,.92,.19,.17,.36,.35,.57,.49,.21,.14,.47,.22,.7,.15,.35-.11,.48-.51,.55-.87,.28-1.44,.27-2.95-.04-4.44l-4.44,2.93Z" style="fill:#FF725E;"></path><g style="opacity:.3;"><path d="M180.18,318.18c-.04,.22,.12,.45,.33,.58,.2,.13,.44,.17,.67,.24,.61,.17,1.19,.49,1.67,.92,.19,.17,.36,.35,.57,.49,.21,.14,.47,.22,.7,.15,.35-.11,.48-.51,.55-.87,.28-1.44,.27-2.95-.04-4.44l-4.44,2.93Z"></path></g><path d="M170.71,316.69l2.74-1.3s4.64-11.01,10.42-17.78c5.55-6.5,18.32-14.27,21.51-12.83,.21,.09,.32,.33,.27,.54l-.2,.87s1.06-.61,1.25,.63-1.58,9.32-6.55,15.04c-4.96,5.71-14.91,14.26-21.13,17.3,0,0-.76,.39-1.03,1.4-.27,1.01-1.81,8.61-4.37,11.28,0,0-1.36-.3-2.36-2.11-1-1.81-.88-3.07-2.01-4.08-1.13-1.01-3.9-1-5.51-2.22-1.62-1.22-2.67-1.87-.79-3.11,1.87-1.24,7.76-3.64,7.76-3.64Z" style="fill:#FF725E;"></path><path d="M199.66,297.7c-2.69,.84-5.06,3.14-6.48,5.2-.12,.18-.24,.41-.14,.61,.14,.27,.53,.26,.82,.18,2.54-.68,4.6-3.72,5.8-6" style="fill:#263238;"></path><path d="M203.26,295.26s-.5,.49-1.55,.94c-.52,.22-1.2,.38-1.95,.42-.75,.04-1.61-.03-2.43-.42-.83-.39-1.41-1.13-1.68-1.83-.29-.72-.35-1.41-.34-1.97,.04-1.13,.22-1.79,.28-1.78,.08,0,.03,.7,.09,1.77,.04,.53,.13,1.17,.41,1.79,.28,.63,.76,1.22,1.47,1.56,.7,.34,1.49,.42,2.19,.41,.71-.01,1.33-.12,1.84-.28,1.02-.34,1.63-.67,1.67-.59Z" style="fill:#263238;"></path><path d="M203.12,293.82s-.21,.37-.8,.59c-.58,.22-1.52,.28-2.4-.17-.87-.45-1.39-1.22-1.59-1.8-.21-.59-.14-.99-.08-.99,.08,0,.15,.35,.41,.84,.26,.49,.75,1.11,1.49,1.48,.73,.38,1.53,.39,2.06,.28,.54-.11,.85-.3,.9-.24Z" style="fill:#263238;"></path><path d="M203.14,292.41c.02,.06-.17,.22-.55,.31-.38,.09-.94,.08-1.5-.13-1.16-.43-1.6-1.42-1.46-1.46,.13-.08,.67,.62,1.64,.97,.97,.39,1.82,.17,1.87,.31Z" style="fill:#263238;"></path><path d="M205.45,286.2c.14,.06-.09,.89-.13,1.93-.03,.52-.04,1.03-.16,1.4-.12,.37-.31,.55-.36,.51-.07-.04-.01-.25,0-.58,.01-.33-.03-.81,0-1.37,.05-1.14,.53-1.96,.65-1.9Z" style="fill:#263238;"></path><path d="M202.45,287.29c.75,.67,.86,1.77,.24,2.47-.62,.69-1.73,.71-2.48,.04-.75-.67-.86-1.77-.24-2.47,.62-.69,1.73-.71,2.48-.04Z" style="fill:#fff;"></path><path d="M202.11,287.67c.52,.47,.6,1.24,.17,1.72-.43,.48-1.2,.5-1.73,.03-.52-.47-.6-1.24-.17-1.72,.43-.48,1.2-.5,1.73-.03Z" style="fill:#263238;"></path><g style="opacity:.3;"><path d="M177.95,319.61c-1.99,1.31-3.99,2.63-5.98,3.94-.45,.3-1.12,.58-1.58,.15-.39-.36-.29-.95-.14-1.39,.79-2.38,1.75-4.89,3.17-6.9l-2.71,1.28s-5.89,2.4-7.76,3.64c-1.87,1.24-.82,1.89,.79,3.11,1.62,1.22,4.38,1.21,5.51,2.22,1.13,1.01,1,2.27,2.01,4.08,1,1.81,2.36,2.11,2.36,2.11,2.56-2.67,4.1-10.27,4.37-11.28,.19-.71,.62-1.11,.86-1.29-.32,0-.64,.16-.91,.34Z"></path></g><g style="opacity:.3;"><path d="M190.43,311.05c.45,.89,.97,1.74,1.55,2.56,.18,.26,.41,.53,.71,.57,.26,.03,.49-.13,.69-.29,2.17-1.82,3.16-4.9,2.51-7.81l-5.45,4.97Z"></path></g></g><g><path d="M280.92,294.73c.97,.23,1.95,.4,2.95,.5,.31,.03,.67,.04,.9-.16,.2-.18,.23-.46,.23-.71,.03-2.83-1.66-5.59-4.28-7l.21,7.37Z" style="fill:#FF725E;"></path><path d="M279.63,307.15c.14,.18,.43,.2,.65,.13,.23-.07,.42-.22,.61-.35,.53-.35,1.15-.58,1.78-.66,.25-.03,.5-.04,.74-.11s.47-.21,.57-.43c.15-.33-.07-.7-.3-.98-.91-1.15-2.07-2.13-3.39-2.87l-.68,5.28Z" style="fill:#FF725E;"></path><path d="M270,308.53c.09,.54,.55,.98,1.08,1.22s1.51,.27,2.1,.35l-2.29-4.61c.04,.97-1.05,2.08-.89,3.04Z" style="fill:#FF725E;"></path><g style="opacity:.3;"><path d="M270,308.53c.09,.54,.55,.98,1.08,1.22s1.51,.27,2.1,.35l-2.29-4.61c.04,.97-1.05,2.08-.89,3.04Z"></path></g><path d="M262.76,291.45c-1.08,.96-1.87,2.27-1.85,3.64,.01,1.21,.64,2.33,1.31,3.35,.83,1.27,1.76,2.49,2.78,3.64,.29,.33,.61,.67,1.05,.8,.64,.2,1.38-.11,1.84-.58,.46-.48,.87-1.56,1.11-2.16l-2.46-10.9c-1.35,.59-2.7,1.25-3.78,2.21Z" style="fill:#FF725E;"></path><g style="opacity:.3;"><path d="M280.92,294.73c.97,.23,1.95,.4,2.95,.5,.31,.03,.67,.04,.9-.16,.2-.18,.23-.46,.23-.71,.03-2.83-1.66-5.59-4.28-7l.21,7.37Z"></path></g><g style="opacity:.3;"><path d="M279.63,307.15c.14,.18,.43,.2,.65,.13,.23-.07,.42-.22,.61-.35,.53-.35,1.15-.58,1.78-.66,.25-.03,.5-.04,.74-.11s.47-.21,.57-.43c.15-.33-.07-.7-.3-.98-.91-1.15-2.07-2.13-3.39-2.87l-.68,5.28Z"></path></g><g style="opacity:.3;"><path d="M262.76,291.45c-1.08,.96-1.87,2.27-1.85,3.64,.01,1.21,.64,2.33,1.31,3.35,.83,1.27,1.76,2.49,2.78,3.64,.29,.33,.61,.67,1.05,.8,.64,.2,1.38-.11,1.84-.58,.46-.48,.87-1.56,1.11-2.16l-2.46-10.9c-1.35,.59-2.7,1.25-3.78,2.21Z"></path></g><path d="M272.33,313.35l.81-2.92s-5.32-10.7-6.68-19.5c-1.31-8.45,1.14-23.19,4.31-24.67,.21-.1,.46-.03,.59,.15l.53,.72s.23-1.2,1.29-.53c1.06,.67,6.03,7.28,7.12,14.77,1.09,7.49,1.07,20.6-.68,27.3,0,0-.2,.83,.39,1.69s5.34,7,5.7,10.68c0,0-1.11,.84-3.14,.42-2.03-.42-2.9-1.34-4.4-1.14-1.5,.2-3.3,2.3-5.28,2.73s-3.16,.8-2.87-1.43c.28-2.23,2.31-8.26,2.31-8.26Z" style="fill:#FF725E;"></path><path d="M276.83,279.03c-1.12,2.58-.92,5.89-.29,8.31,.05,.21,.15,.45,.37,.5,.3,.07,.54-.24,.67-.5,1.14-2.36,.18-5.91-.76-8.31" style="fill:#263238;"></path><path d="M277.32,274.71c.05,.01,.04,.7-.3,1.78-.18,.54-.5,1.15-.96,1.75-.46,.59-1.07,1.2-1.9,1.57-.83,.38-1.77,.33-2.49,.08-.73-.25-1.3-.66-1.72-1.03-.83-.77-1.21-1.34-1.17-1.38,.06-.06,.55,.43,1.4,1.09,.43,.32,.97,.66,1.63,.86,.66,.2,1.43,.22,2.14-.1,.71-.31,1.29-.85,1.73-1.39,.45-.54,.78-1.09,.99-1.58,.41-.99,.56-1.67,.64-1.65Z" style="fill:#263238;"></path><path d="M276.14,273.87c.06,0,.14,.4-.08,.99-.21,.58-.78,1.34-1.69,1.71-.91,.37-1.83,.26-2.4,.03-.58-.23-.84-.54-.8-.59,.05-.07,.36,.12,.91,.24,.54,.12,1.33,.15,2.09-.16,.77-.31,1.29-.91,1.56-1.38,.27-.48,.33-.84,.41-.84Z" style="fill:#263238;"></path><path d="M275.09,272.94c.06,.02,.05,.27-.13,.62-.18,.35-.55,.77-1.08,1.05-1.08,.6-2.12,.28-2.06,.15,.02-.15,.91-.1,1.81-.61,.92-.48,1.32-1.27,1.45-1.22Z" style="fill:#263238;"></path><path d="M271.89,267.13c.14-.07,.62,.64,1.38,1.36,.38,.36,.76,.7,.96,1.03,.21,.33,.21,.59,.15,.61-.07,.03-.19-.15-.44-.37-.24-.23-.63-.5-1.04-.89-.83-.78-1.14-1.68-1.02-1.73Z" style="fill:#263238;"></path><path d="M270.76,270.12c1-.13,1.91,.51,2.03,1.43,.12,.92-.59,1.77-1.59,1.9-1,.13-1.91-.51-2.03-1.43-.12-.92,.59-1.77,1.59-1.9Z" style="fill:#fff;"></path><path d="M270.83,270.62c.7-.09,1.33,.35,1.41,.99,.08,.64-.41,1.24-1.11,1.33-.7,.09-1.33-.35-1.41-.99-.08-.64,.41-1.24,1.11-1.33Z" style="fill:#263238;"></path><g style="opacity:.3;"><path d="M279.27,309.78c-.31,2.37-.61,4.74-.92,7.1-.07,.54-.29,1.22-.92,1.29-.53,.06-.91-.4-1.15-.8-1.28-2.15-2.56-4.52-3.16-6.91l-.8,2.89s-2.02,6.03-2.31,8.26c-.28,2.23,.89,1.85,2.87,1.43s3.78-2.53,5.28-2.73c1.5-.2,2.37,.72,4.4,1.14,2.03,.42,3.14-.42,3.14-.42-.35-3.68-5.11-9.81-5.7-10.68-.42-.61-.44-1.2-.42-1.49-.21,.24-.3,.59-.34,.91Z"></path></g></g><g><g><path d="M161.15,356.26c-.42-.35-1.05-.38-1.61-.22-.56,.16-1.32,.78-1.82,1.1l4.74,2c-.66-.71-.56-2.26-1.31-2.88Z" style="fill:#FF725E;"></path><g style="opacity:.3;"><path d="M161.15,356.26c-.42-.35-1.05-.38-1.61-.22-.56,.16-1.32,.78-1.82,1.1l4.74,2c-.66-.71-.56-2.26-1.31-2.88Z"></path></g></g><g><path d="M177.79,364.47c.19-1.43-.07-2.94-.97-3.97-.8-.91-2-1.35-3.18-1.69-1.46-.42-2.96-.74-4.48-.94-.44-.06-.9-.11-1.32,.08-.62,.27-.98,.98-1.02,1.65-.04,.66,.36,1.75,.57,2.36l8.98,6.66c.64-1.33,1.23-2.71,1.42-4.14Z" style="fill:#FF725E;"></path><g style="opacity:.3;"><path d="M177.79,364.47c.19-1.43-.07-2.94-.97-3.97-.8-.91-2-1.35-3.18-1.69-1.46-.42-2.96-.74-4.48-.94-.44-.06-.9-.11-1.32,.08-.62,.27-.98,.98-1.02,1.65-.04,.66,.36,1.75,.57,2.36l8.98,6.66c.64-1.33,1.23-2.71,1.42-4.14Z"></path></g></g><path d="M161.88,373.84c-.88,.45-1.74,.97-2.56,1.55-.26,.18-.53,.41-.57,.71-.03,.26,.13,.49,.29,.69,1.82,2.17,4.9,3.16,7.81,2.51l-4.97-5.45Z" style="fill:#FF725E;"></path><path d="M154.76,363.59c-.22-.04-.45,.12-.58,.33s-.17,.44-.24,.67c-.17,.61-.49,1.19-.92,1.67-.17,.19-.35,.36-.49,.57-.14,.21-.22,.47-.15,.7,.11,.35,.51,.48,.87,.55,1.44,.28,2.95,.27,4.44-.04l-2.93-4.44Z" style="fill:#FF725E;"></path><g style="opacity:.3;"><path d="M154.76,363.59c-.22-.04-.45,.12-.58,.33s-.17,.44-.24,.67c-.17,.61-.49,1.19-.92,1.67-.17,.19-.35,.36-.49,.57-.14,.21-.22,.47-.15,.7,.11,.35,.51,.48,.87,.55,1.44,.28,2.95,.27,4.44-.04l-2.93-4.44Z"></path></g><path d="M156.25,354.12l1.3,2.74s11.01,4.64,17.78,10.42c6.5,5.55,14.27,18.32,12.83,21.51-.09,.21-.33,.32-.54,.27l-.87-.2s.61,1.06-.63,1.25c-1.24,.19-9.32-1.58-15.04-6.55-5.71-4.96-14.26-14.91-17.3-21.13,0,0-.39-.76-1.4-1.03s-8.61-1.81-11.28-4.37c0,0,.3-1.36,2.11-2.36,1.81-1,3.07-.88,4.08-2.01,1.01-1.13,1-3.9,2.22-5.51,1.22-1.62,1.87-2.67,3.11-.79s3.64,7.76,3.64,7.76Z" style="fill:#FF725E;"></path><path d="M175.23,383.07c-.84-2.69-3.14-5.06-5.2-6.48-.18-.12-.41-.24-.61-.14-.27,.14-.26,.53-.18,.82,.68,2.54,3.72,4.6,6,5.8" style="fill:#263238;"></path><path d="M177.68,386.67s-.49-.5-.94-1.55c-.22-.52-.38-1.2-.42-1.95-.04-.75,.03-1.61,.42-2.43,.38-.83,1.13-1.41,1.83-1.68,.72-.29,1.41-.35,1.97-.34,1.13,.04,1.79,.22,1.78,.28,0,.08-.7,.03-1.77,.09-.53,.04-1.17,.13-1.79,.41-.63,.28-1.22,.76-1.56,1.47-.34,.7-.42,1.49-.41,2.19,.01,.71,.12,1.33,.28,1.84,.34,1.02,.67,1.63,.59,1.67Z" style="fill:#263238;"></path><path d="M179.11,386.53s-.37-.21-.59-.8c-.22-.58-.28-1.52,.17-2.4,.45-.87,1.22-1.39,1.8-1.59,.59-.21,.99-.14,.99-.08,0,.08-.35,.15-.84,.41-.49,.26-1.11,.75-1.48,1.49-.38,.73-.39,1.53-.28,2.06,.11,.54,.3,.85,.23,.9Z" style="fill:#263238;"></path><path d="M180.53,386.55c-.06,.02-.22-.17-.31-.55-.09-.38-.08-.94,.13-1.5,.43-1.16,1.42-1.6,1.46-1.46,.08,.13-.62,.67-.97,1.64-.39,.97-.17,1.82-.31,1.87Z" style="fill:#263238;"></path><path d="M186.74,388.86c-.06,.14-.89-.09-1.93-.13-.52-.03-1.03-.04-1.4-.16-.37-.12-.55-.31-.51-.36,.04-.07,.25-.01,.58,0,.33,.01,.81-.03,1.37,0,1.14,.05,1.96,.53,1.9,.65Z" style="fill:#263238;"></path><path d="M185.64,385.86c-.67,.75-1.77,.86-2.47,.24-.69-.62-.71-1.73-.04-2.48,.67-.75,1.77-.86,2.47-.24s.71,1.73,.04,2.48Z" style="fill:#fff;"></path><path d="M185.26,385.52c-.47,.52-1.24,.6-1.72,.17-.48-.43-.5-1.2-.03-1.73,.47-.52,1.24-.6,1.72-.17,.48,.43,.5,1.2,.03,1.73Z" style="fill:#263238;"></path><g style="opacity:.3;"><path d="M153.32,361.36c-1.31-1.99-2.63-3.99-3.94-5.98-.3-.45-.58-1.12-.15-1.58,.36-.39,.95-.29,1.39-.14,2.38,.79,4.89,1.75,6.9,3.17l-1.28-2.71s-2.4-5.89-3.64-7.76-1.89-.82-3.11,.79c-1.22,1.62-1.21,4.38-2.22,5.51-1.01,1.13-2.27,1-4.08,2.01-1.81,1-2.11,2.36-2.11,2.36,2.67,2.56,10.27,4.1,11.28,4.37,.71,.19,1.11,.62,1.29,.86,0-.32-.16-.64-.34-.91Z"></path></g><g style="opacity:.3;"><path d="M161.88,373.84c-.88,.45-1.74,.97-2.56,1.55-.26,.18-.53,.41-.57,.71-.03,.26,.13,.49,.29,.69,1.82,2.17,4.9,3.16,7.81,2.51l-4.97-5.45Z"></path></g></g><path d="M273.75,183.66c.37,.22-27.61,48.37-62.49,107.54-34.89,59.19-63.47,106.98-63.84,106.76-.37-.22,27.6-48.36,62.49-107.55,34.88-59.17,63.46-106.97,63.83-106.75Z" style="fill:#455a64;"></path><path d="M273.13,187.79c.05,.02-.09,.75-.41,2.12-.32,1.38-.82,3.4-1.47,5.99-.31,1.3-.73,2.73-1.06,4.33-.34,1.59-.71,3.32-1.11,5.18-.4,1.86-.83,3.84-1.29,5.95-.39,2.12-.8,4.36-1.23,6.72-1.8,9.4-3.36,20.7-4.86,33.26-1.41,12.58-2.55,26.45-3.43,41.03-.84,14.59-1.27,28.51-1.58,41.17-.24,12.66-.37,24.07-.38,33.65-.01,9.57-.03,17.32-.03,22.7,0,2.68-.02,4.76-.05,6.17s-.07,2.15-.12,2.15c-.05,0-.12-.74-.19-2.15-.07-1.41-.15-3.49-.24-6.17-.17-5.36-.36-13.11-.46-22.7-.14-9.59-.12-21.01,.04-33.68,.23-12.68,.61-26.62,1.46-41.24,.88-14.61,2.06-28.51,3.56-41.11,1.58-12.59,3.27-23.9,5.21-33.3,.47-2.35,.92-4.59,1.34-6.71,.5-2.1,.97-4.09,1.41-5.94,.44-1.85,.86-3.58,1.24-5.17,.38-1.59,.84-3.01,1.2-4.3,.75-2.58,1.34-4.58,1.76-5.92,.42-1.35,.66-2.05,.71-2.03Z" style="fill:#455a64;"></path><g><path d="M218.6,338.39c-.87-.47-1.78-.89-2.72-1.24-.29-.11-.64-.21-.91-.07-.24,.12-.33,.38-.4,.63-.76,2.73,.17,5.83,2.35,7.86l1.69-7.18Z" style="fill:#e0e0e0;"></path><path d="M223.03,326.72c-.09-.21-.36-.3-.6-.29-.24,.01-.46,.11-.68,.18-.6,.2-1.26,.27-1.89,.18-.25-.03-.5-.09-.75-.08-.25,0-.51,.09-.66,.27-.23,.28-.11,.69,.04,1.03,.58,1.34,1.45,2.59,2.54,3.64l2.01-4.93Z" style="fill:#e0e0e0;"></path><path d="M232.68,327.86c.05-.55-.28-1.08-.73-1.45-.45-.37-1.39-.65-1.94-.88l1.03,5.04c.21-.95,1.55-1.74,1.63-2.71Z" style="fill:#e0e0e0;"></path><path d="M235.32,346.22c1.29-.65,2.39-1.72,2.73-3.05,.3-1.17-.02-2.41-.41-3.58-.48-1.44-1.07-2.86-1.76-4.23-.2-.39-.42-.8-.81-1.04-.57-.36-1.36-.25-1.93,.09-.57,.34-1.24,1.28-1.62,1.8l-.42,11.17c1.46-.22,2.93-.51,4.22-1.17Z" style="fill:#e0e0e0;"></path><g style="opacity:.3;"><path d="M218.6,338.39c-.87-.47-1.78-.89-2.72-1.24-.29-.11-.64-.21-.91-.07-.24,.12-.33,.38-.4,.63-.76,2.73,.17,5.83,2.35,7.86l1.69-7.18Z"></path></g><g style="opacity:.3;"><path d="M223.03,326.72c-.09-.21-.36-.3-.6-.29-.24,.01-.46,.11-.68,.18-.6,.2-1.26,.27-1.89,.18-.25-.03-.5-.09-.75-.08-.25,0-.51,.09-.66,.27-.23,.28-.11,.69,.04,1.03,.58,1.34,1.45,2.59,2.54,3.64l2.01-4.93Z"></path></g><g style="opacity:.3;"><path d="M232.68,327.86c.05-.55-.28-1.08-.73-1.45-.45-.37-1.39-.65-1.94-.88l1.03,5.04c.21-.95,1.55-1.74,1.63-2.71Z"></path></g><g style="opacity:.3;"><path d="M235.32,346.22c1.29-.65,2.39-1.72,2.73-3.05,.3-1.17-.02-2.41-.41-3.58-.48-1.44-1.07-2.86-1.76-4.23-.2-.39-.42-.8-.81-1.04-.57-.36-1.36-.25-1.93,.09-.57,.34-1.24,1.28-1.62,1.8l-.42,11.17c1.46-.22,2.93-.51,4.22-1.17Z"></path></g><path d="M231.68,322.6l-1.53,2.62s2.4,11.71,1.46,20.56c-.9,8.5-7.04,22.12-10.49,22.74-.23,.04-.45-.09-.53-.29l-.32-.83s-.53,1.1-1.39,.18-3.97-8.59-3.1-16.1c.87-7.52,4.24-20.19,7.65-26.22,0,0,.4-.75,.06-1.73s-3.37-8.13-2.77-11.78c0,0,1.29-.52,3.14,.4s2.46,2.04,3.96,2.23c1.5,.19,3.78-1.38,5.8-1.28s3.26,.03,2.41,2.12c-.84,2.08-4.34,7.39-4.34,7.39Z" style="fill:#e0e0e0;"></path><path d="M218.53,354.62c1.74-2.21,2.4-5.45,2.41-7.96,0-.22-.03-.47-.23-.58-.27-.15-.59,.09-.78,.31-1.71,1.99-1.69,5.67-1.4,8.23" style="fill:#263238;"></path><path d="M216.94,358.67c-.05-.03,.14-.69,.75-1.65,.31-.47,.77-.99,1.37-1.44,.59-.45,1.34-.89,2.24-1.03,.9-.15,1.8,.13,2.43,.56,.65,.43,1.09,.97,1.4,1.44,.6,.95,.82,1.6,.77,1.63-.07,.04-.42-.56-1.07-1.41-.33-.42-.77-.89-1.36-1.25-.58-.36-1.32-.58-2.09-.45-.77,.12-1.46,.49-2.03,.9-.58,.41-1.03,.85-1.36,1.27-.65,.85-.97,1.47-1.04,1.43Z" style="fill:#263238;"></path><path d="M217.87,359.78c-.06-.01-.04-.42,.33-.94,.35-.51,1.09-1.09,2.07-1.22,.97-.12,1.84,.22,2.33,.59,.5,.37,.67,.74,.62,.77-.06,.05-.32-.21-.81-.46-.49-.26-1.25-.49-2.06-.38-.82,.1-1.48,.54-1.86,.94-.39,.39-.53,.73-.61,.7Z" style="fill:#263238;"></path><path d="M218.65,360.96c-.05-.04,.02-.28,.28-.57,.26-.29,.73-.6,1.31-.74,1.2-.3,2.12,.27,2.03,.38-.06,.14-.9-.14-1.9,.12-1.02,.23-1.6,.89-1.72,.81Z" style="fill:#263238;"></path><path d="M220.26,367.39c-.15,.03-.43-.78-.99-1.66-.27-.45-.55-.87-.66-1.24-.12-.37-.06-.62,0-.63,.08,0,.15,.2,.33,.47,.17,.28,.48,.65,.77,1.13,.6,.96,.68,1.92,.54,1.93Z" style="fill:#263238;"></path><path d="M222.11,364.79c-1-.13-1.71-.98-1.59-1.9,.12-.92,1.02-1.56,2.02-1.43,1,.13,1.71,.98,1.59,1.9-.12,.92-1.02,1.56-2.02,1.43Z" style="fill:#fff;"></path><path d="M222.18,364.28c-.7-.09-1.19-.68-1.11-1.32,.08-.64,.71-1.09,1.41-1,.7,.09,1.19,.68,1.11,1.32-.08,.64-.71,1.09-1.41,1Z" style="fill:#263238;"></path><g style="opacity:.3;"><path d="M224.05,324.28c.9-2.21,1.81-4.42,2.71-6.63,.21-.5,.6-1.11,1.22-1.02,.53,.08,.78,.62,.91,1.07,.69,2.41,1.32,5.02,1.28,7.49l1.51-2.59s3.5-5.31,4.34-7.39c.84-2.08-.39-2.02-2.41-2.12-2.03-.1-4.3,1.48-5.8,1.28-1.5-.19-2.11-1.3-3.96-2.23s-3.14-.4-3.14-.4c-.6,3.65,2.42,10.79,2.77,11.78,.25,.69,.12,1.27,.02,1.55,.27-.17,.44-.5,.56-.79Z"></path></g></g><g><path d="M282.7,367.23c.99,0,1.99-.07,2.98-.22,.31-.04,.66-.12,.83-.37,.15-.22,.11-.5,.05-.74-.64-2.76-2.94-5.04-5.82-5.78l1.95,7.11Z" style="fill:#e0e0e0;"></path><path d="M284.39,379.6c.18,.14,.46,.1,.67-.03,.2-.12,.35-.31,.51-.49,.43-.46,.98-.83,1.58-1.07,.23-.09,.48-.16,.69-.29,.22-.13,.41-.32,.45-.55,.06-.36-.24-.66-.52-.88-1.16-.9-2.51-1.58-3.97-1.98l.59,5.29Z" style="fill:#e0e0e0;"></path><path d="M275.37,383.23c.22,.5,.76,.82,1.34,.93,.57,.11,1.53-.09,2.12-.16l-3.32-3.93c.27,.94-.52,2.27-.14,3.16Z" style="fill:#e0e0e0;"></path><path d="M264.27,368.36c-.82,1.19-1.27,2.65-.94,3.98,.3,1.17,1.17,2.11,2.07,2.94,1.11,1.04,2.3,2,3.57,2.87,.36,.25,.75,.5,1.21,.53,.67,.04,1.32-.43,1.65-1.01,.33-.57,.48-1.72,.56-2.36l-4.98-10.01c-1.17,.89-2.32,1.85-3.14,3.04Z" style="fill:#e0e0e0;"></path><g style="opacity:.3;"><path d="M282.7,367.23c.99,0,1.99-.07,2.98-.22,.31-.04,.66-.12,.83-.37,.15-.22,.11-.5,.05-.74-.64-2.76-2.94-5.04-5.82-5.78l1.95,7.11Z"></path></g><g style="opacity:.3;"><path d="M284.39,379.6c.18,.14,.46,.1,.67-.03,.2-.12,.35-.31,.51-.49,.43-.46,.98-.83,1.58-1.07,.23-.09,.48-.16,.69-.29,.22-.13,.41-.32,.45-.55,.06-.36-.24-.66-.52-.88-1.16-.9-2.51-1.58-3.97-1.98l.59,5.29Z"></path></g><g style="opacity:.3;"><path d="M275.37,383.23c.22,.5,.76,.82,1.34,.93,.57,.11,1.53-.09,2.12-.16l-3.32-3.93c.27,.94-.52,2.27-.14,3.16Z"></path></g><g style="opacity:.3;"><path d="M264.27,368.36c-.82,1.19-1.27,2.65-.94,3.98,.3,1.17,1.17,2.11,2.07,2.94,1.11,1.04,2.3,2,3.57,2.87,.36,.25,.75,.5,1.21,.53,.67,.04,1.32-.43,1.65-1.01,.33-.57,.48-1.72,.56-2.36l-4.98-10.01c-1.17,.89-2.32,1.85-3.14,3.04Z"></path></g><path d="M278.77,387.36l.09-3.03s-7.71-9.13-11.12-17.36c-3.28-7.9-4.4-22.8-1.67-24.99,.18-.14,.44-.14,.61,0l.68,.58s-.06-1.22,1.13-.82c1.19,.4,7.59,5.64,10.43,12.66s5.93,19.76,5.83,26.68c0,0,0,.85,.78,1.55s6.85,5.53,8.07,9.02c0,0-.88,1.08-2.95,1.15-2.07,.07-3.13-.61-4.54-.06-1.41,.55-2.66,3.02-4.48,3.9s-2.88,1.53-3.13-.7,.28-8.57,.28-8.57Z" style="fill:#e0e0e0;"></path><path d="M274.99,352.95c-.47,2.78,.5,5.94,1.69,8.14,.1,.19,.25,.4,.48,.4,.31,0,.47-.36,.53-.65,.55-2.57-1.23-5.79-2.71-7.89" style="fill:#263238;"></path><path d="M274.44,348.63c.06,0,.21,.67,.13,1.8-.05,.56-.21,1.24-.51,1.92-.3,.68-.75,1.42-1.48,1.98-.72,.57-1.64,.74-2.4,.67-.77-.07-1.42-.33-1.91-.59-.99-.55-1.49-1.01-1.46-1.06,.04-.07,.64,.29,1.62,.73,.49,.21,1.1,.41,1.79,.45,.68,.04,1.44-.12,2.05-.6,.62-.47,1.05-1.13,1.35-1.76,.31-.64,.49-1.24,.58-1.77,.16-1.06,.15-1.76,.23-1.76Z" style="fill:#263238;"></path><path d="M273.1,348.1c.06-.02,.23,.35,.16,.98-.07,.61-.44,1.48-1.24,2.06-.8,.58-1.72,.69-2.32,.6-.62-.09-.94-.33-.91-.38,.03-.08,.38,.03,.94,.01,.55,0,1.33-.17,2-.65,.67-.48,1.04-1.19,1.18-1.71,.15-.53,.12-.9,.2-.91Z" style="fill:#263238;"></path><path d="M271.85,347.44c.07,0,.12,.25,.02,.63-.09,.38-.35,.88-.8,1.28-.91,.84-1.99,.78-1.96,.64-.02-.15,.86-.31,1.61-1.02,.78-.68,.98-1.55,1.12-1.53Z" style="fill:#263238;"></path><path d="M267.36,342.56c.12-.1,.75,.48,1.66,.99,.45,.26,.9,.5,1.18,.78,.28,.27,.35,.52,.29,.55-.06,.04-.23-.1-.51-.26-.29-.16-.73-.34-1.22-.62-.99-.56-1.51-1.36-1.4-1.44Z" style="fill:#263238;"></path><path d="M266.98,345.74c.94-.37,1.97,.04,2.31,.9,.34,.86-.15,1.86-1.09,2.23-.94,.37-1.97-.04-2.31-.9s.15-1.86,1.09-2.23Z" style="fill:#fff;"></path><path d="M267.16,346.21c.65-.25,1.37,.03,1.61,.63s-.11,1.3-.76,1.55c-.65,.25-1.37-.03-1.61-.63s.11-1.3,.76-1.55Z" style="fill:#263238;"></path><g style="opacity:.3;"><path d="M284.66,382.24c.26,2.37,.53,4.75,.79,7.12,.06,.54,0,1.26-.58,1.47-.5,.18-.98-.17-1.31-.51-1.76-1.79-3.56-3.78-4.71-5.96l-.09,3s-.53,6.34-.28,8.57,1.31,1.59,3.13,.7c1.83-.89,3.07-3.35,4.48-3.9,1.41-.55,2.48,.14,4.54,.06,2.07-.07,2.95-1.15,2.95-1.15-1.22-3.49-7.29-8.32-8.07-9.02-.55-.49-.71-1.06-.76-1.35-.15,.28-.15,.65-.11,.96Z"></path></g></g><g><g><path d="M273.75,202.37s.08,.31,.17,.92c.09,.62,.22,1.53,.4,2.73,.34,2.4,.92,5.96,1.64,10.6,1.51,9.28,3.73,22.85,6.54,40.08,5.78,34.46,14.01,83.53,23.81,142.02l.14,.83-.83-.02c-49.91-1.25-107.67-.68-168.91-.79-20,0-39.63,0-58.72,0h-1.7l1.12-1.28c45.56-51.96,87.17-98.77,120.97-136.09,16.9-18.66,31.86-34.94,44.43-48.26,6.29-6.66,11.98-12.58,17.05-17.65,2.53-2.54,4.92-4.86,7.16-6.95,1.12-1.04,2.21-2.02,3.28-2.91,.54-.45,1.07-.87,1.61-1.27,.28-.19,.55-.38,.84-.55,.31-.15,.56-.35,1.03-.35h.31l-.13,.35c-.25,.65-.36,1.46-.45,2.18-.09,.73-.13,1.45-.17,2.14-.06,1.38-.08,2.66-.06,3.84,.03,2.36,.12,4.3,.21,5.85,.09,1.54,.17,2.69,.21,3.46,.02,.38,.03,.66,.04,.85,0,.19,0,.28,0,.28-.01,0-.03-.09-.06-.28-.02-.19-.06-.48-.1-.85-.09-.76-.21-1.9-.33-3.45-.13-1.55-.26-3.49-.33-5.86-.04-1.18-.04-2.47,0-3.86,.03-.7,.07-1.42,.14-2.17,.09-.76,.15-1.5,.47-2.35l.18,.35c-.17,0-.48,.15-.73,.3-.27,.16-.53,.34-.79,.53-.52,.39-1.04,.81-1.57,1.26-1.05,.9-2.12,1.88-3.23,2.93-2.21,2.1-4.56,4.44-7.07,7-5.02,5.11-10.66,11.07-16.9,17.77-12.48,13.4-27.35,29.75-44.18,48.46-33.65,37.44-75.17,84.33-120.69,136.32l-.58-1.28c19.09,0,38.72,0,58.72-.01,61.25,.12,119.01-.39,168.93,.97l-.7,.81c-9.76-58.51-17.79-107.62-23.26-142.12-2.73-17.25-4.82-30.85-6.16-40.15-.65-4.65-1.16-8.22-1.43-10.64-.13-1.2-.22-2.12-.29-2.74-.06-.62-.08-.93-.06-.93Z" style="fill:#455a64;"></path><g><path d="M289.58,306.8c.06,.13-46.47,19.8-103.91,43.93-57.46,24.13-104.06,43.58-104.12,43.45-.06-.13,46.46-19.8,103.92-43.93,57.44-24.12,104.05-43.58,104.11-43.45Z" style="fill:#455a64;"></path><path d="M288.01,297.15c.06,.13-42.76,18.24-95.63,40.45-52.88,22.21-95.78,40.11-95.84,39.97-.06-.13,42.76-18.24,95.64-40.45,52.86-22.2,95.78-40.1,95.83-39.97Z" style="fill:#455a64;"></path><path d="M286.44,287.51c.06,.13-39.06,16.69-87.35,36.97-48.31,20.29-87.51,36.63-87.56,36.5-.06-.13,39.05-16.68,87.36-36.98,48.3-20.29,87.5-36.63,87.56-36.49Z" style="fill:#455a64;"></path><path d="M284.88,277.86c.06,.13-35.35,15.13-79.08,33.5-43.74,18.37-79.24,33.15-79.29,33.02s35.35-15.13,79.09-33.5c43.73-18.37,79.23-33.15,79.28-33.02Z" style="fill:#455a64;"></path><path d="M283.32,268.21c.06,.13-31.65,13.58-70.81,30.03-39.17,16.45-70.96,29.68-71.02,29.55-.06-.13,31.65-13.57,70.82-30.03,39.16-16.45,70.96-29.68,71.01-29.55Z" style="fill:#455a64;"></path><path d="M281.73,258.32c.06,.13-29.08,12.41-65.07,27.41-36,15.01-65.22,27.07-65.28,26.93-.06-.13,29.08-12.4,65.08-27.41,35.99-15,65.22-27.06,65.27-26.93Z" style="fill:#455a64;"></path><path d="M280.82,248.91c.06,.13-25.36,11-56.76,24.27-31.41,13.27-56.92,23.92-56.97,23.79-.06-.13,25.36-11,56.77-24.27,31.4-13.27,56.91-23.92,56.97-23.79Z" style="fill:#455a64;"></path><path d="M278.73,239.48c.06,.13-21.76,9.47-48.71,20.85-26.96,11.38-48.86,20.5-48.92,20.37-.06-.13,21.75-9.46,48.72-20.85,26.96-11.38,48.86-20.5,48.91-20.37Z" style="fill:#455a64;"></path><path d="M277.53,229.14c.06,.13-18.08,8.16-40.5,17.93-22.43,9.77-40.66,17.59-40.71,17.46-.06-.13,18.07-8.16,40.51-17.93,22.42-9.77,40.65-17.59,40.71-17.46Z" style="fill:#455a64;"></path><path d="M275.95,219.79c.06,.13-14.53,6.53-32.58,14.28-18.06,7.75-32.73,13.93-32.79,13.8-.06-.13,14.53-6.52,32.59-14.28,18.05-7.75,32.73-13.93,32.79-13.8Z" style="fill:#455a64;"></path><path d="M274.22,210.12c.06,.13-10.44,4.67-23.43,10.12-13,5.46-23.58,9.78-23.63,9.64-.06-.13,10.43-4.66,23.43-10.12,12.99-5.46,23.58-9.78,23.63-9.64Z" style="fill:#455a64;"></path><path d="M273.58,200.49c.06,.13-6.82,3.24-15.37,6.95-8.55,3.71-15.52,6.6-15.58,6.47-.06-.13,6.82-3.24,15.37-6.95,8.54-3.71,15.52-6.6,15.57-6.47Z" style="fill:#455a64;"></path><path d="M291.05,319.71c.05,.13-42.82,17.76-95.74,39.36-52.94,21.61-95.89,39.02-95.95,38.89-.05-.13,42.81-17.76,95.75-39.37,52.93-21.61,95.88-39.02,95.94-38.88Z" style="fill:#455a64;"></path><path d="M293.29,329.47c.05,.13-37.27,15.5-83.36,34.31-46.1,18.82-83.51,33.97-83.56,33.83-.05-.13,37.26-15.49,83.37-34.31,46.09-18.81,83.5-33.96,83.56-33.83Z" style="fill:#455a64;"></path><path d="M295.76,339.85c.05,.13-31.88,13.16-71.32,29.1-39.45,15.94-71.47,28.75-71.52,28.62-.05-.13,31.87-13.16,71.33-29.1,39.44-15.94,71.46-28.75,71.52-28.62Z" style="fill:#455a64;"></path><path d="M297,352.01c.06,.13-24.46,10.45-54.74,23.04-30.3,12.59-54.89,22.69-54.95,22.56-.06-.13,24.45-10.45,54.75-23.04,30.29-12.59,54.89-22.69,54.94-22.56Z" style="fill:#455a64;"></path><path d="M299.19,361.38c.06,.13-18.41,8.4-41.25,18.47-22.85,10.07-41.41,18.13-41.46,17.99-.06-.13,18.41-8.4,41.25-18.47,22.84-10.07,41.4-18.12,41.46-17.99Z" style="fill:#455a64;"></path><path d="M300.87,371.84c.06,.13-13.09,6.01-29.35,13.12-16.27,7.12-29.51,12.78-29.57,12.65-.06-.13,13.08-6.01,29.36-13.12,16.27-7.11,29.51-12.78,29.56-12.65Z" style="fill:#455a64;"></path><path d="M301.94,381.86c.05,.13-8.79,3.88-19.74,8.37-10.96,4.49-19.89,8.02-19.94,7.89-.05-.13,8.78-3.88,19.74-8.37,10.96-4.49,19.89-8.02,19.94-7.89Z" style="fill:#455a64;"></path></g><g><path d="M172.34,291.75c.06-.13,27.86,11.28,62.09,25.49,34.25,14.22,61.95,25.85,61.9,25.98-.06,.13-27.85-11.28-62.1-25.5-34.23-14.21-61.95-25.84-61.89-25.98Z" style="fill:#455a64;"></path><path d="M181.7,282.08c.06-.13,25.37,10.25,56.54,23.19,31.18,12.94,56.4,23.54,56.34,23.67s-25.36-10.25-56.54-23.19c-31.17-12.94-56.39-23.54-56.34-23.67Z" style="fill:#455a64;"></path><path d="M190.08,273.29c.06-.13,23.05,9.29,51.36,21.04,28.32,11.76,51.22,21.39,51.17,21.52s-23.05-9.29-51.37-21.04c-28.31-11.75-51.22-21.39-51.16-21.52Z" style="fill:#455a64;"></path><path d="M196.31,264.53c.05-.13,21.16,8.48,47.13,19.24,25.98,10.76,46.99,19.59,46.93,19.72-.05,.13-21.15-8.48-47.13-19.24-25.97-10.76-46.98-19.59-46.93-19.72Z" style="fill:#455a64;"></path><path d="M203.66,256.86c.06-.13,19.12,7.66,42.58,17.4,23.47,9.74,42.44,17.75,42.39,17.88-.06,.13-19.12-7.65-42.59-17.4-23.46-9.74-42.44-17.74-42.38-17.88Z" style="fill:#455a64;"></path><path d="M210.59,249.2c.05-.13,17.11,6.77,38.1,15.42,20.99,8.65,37.96,15.77,37.9,15.9s-17.11-6.77-38.1-15.42c-20.98-8.65-37.95-15.77-37.9-15.9Z" style="fill:#455a64;"></path><path d="M217.23,242.12c.06-.13,15.26,6.09,33.95,13.9,18.7,7.81,33.81,14.25,33.75,14.38-.06,.13-15.25-6.09-33.95-13.9-18.69-7.81-33.81-14.24-33.75-14.38Z" style="fill:#455a64;"></path><path d="M223.61,234.48c.05-.13,13.26,5.16,29.49,11.82,16.23,6.66,29.35,12.17,29.29,12.3-.05,.13-13.26-5.16-29.49-11.82-16.23-6.66-29.34-12.16-29.29-12.3Z" style="fill:#455a64;"></path><path d="M230.75,225.96c.06-.13,11.32,4.65,25.14,10.67,13.83,6.03,25,11.02,24.94,11.15-.06,.13-11.31-4.65-25.15-10.67-13.83-6.03-24.99-11.02-24.94-11.15Z" style="fill:#455a64;"></path><path d="M239.53,217.12c.06-.13,8.88,3.49,19.7,8.08,10.83,4.6,19.55,8.43,19.5,8.56-.06,.13-8.87-3.48-19.7-8.08-10.82-4.59-19.55-8.43-19.49-8.56Z" style="fill:#455a64;"></path><path d="M246.68,209.47c.05-.13,6.84,2.39,15.17,5.64,8.33,3.25,15.03,6,14.98,6.13-.05,.13-6.84-2.39-15.17-5.64-8.32-3.25-15.03-5.99-14.98-6.13Z" style="fill:#455a64;"></path><path d="M252.66,202.61c.05-.13,5.07,1.62,11.21,3.93,6.14,2.3,11.08,4.28,11.02,4.42-.05,.13-5.07-1.62-11.21-3.93-6.14-2.3-11.07-4.28-11.02-4.42Z" style="fill:#455a64;"></path><path d="M163.88,301.84c.05-.13,30.26,11.93,67.47,26.94,37.22,15.02,67.33,27.29,67.28,27.43-.05,.13-30.26-11.93-67.47-26.94-37.2-15.01-67.33-27.29-67.27-27.42Z" style="fill:#455a64;"></path><path d="M155.38,310.99c.05-.13,32.53,12.85,72.53,28.98,40.02,16.15,72.4,29.34,72.35,29.47-.05,.13-32.53-12.84-72.54-28.99-40-16.14-72.39-29.33-72.34-29.47Z" style="fill:#455a64;"></path><path d="M145.31,321.39c.05-.13,35.54,13.87,79.25,31.27,43.72,17.41,79.11,31.63,79.06,31.76-.05,.13-35.53-13.87-79.25-31.27-43.71-17.4-79.11-31.62-79.05-31.76Z" style="fill:#455a64;"></path><path d="M138.75,330.04c.05-.13,37.55,14.89,83.74,33.54,46.21,18.66,83.61,33.9,83.55,34.03-.05,.13-37.54-14.88-83.75-33.55-46.19-18.66-83.6-33.89-83.55-34.03Z" style="fill:#455a64;"></path><path d="M131.21,337.77c.05-.13,34.26,13.29,76.38,29.98,42.14,16.7,76.25,30.34,76.2,30.47-.05,.13-34.25-13.29-76.39-29.99-42.13-16.69-76.25-30.34-76.19-30.47Z" style="fill:#455a64;"></path><path d="M123.82,346.35c.05-.13,30.1,11.23,67.1,25.39,37.02,14.16,66.98,25.74,66.93,25.88-.05,.13-30.09-11.23-67.11-25.39-37.01-14.15-66.97-25.74-66.92-25.87Z" style="fill:#455a64;"></path><path d="M116.02,357.2c.06-.13,21.31,8.81,47.46,19.97,26.16,11.16,47.32,20.31,47.26,20.45-.06,.13-21.31-8.81-47.47-19.97-26.15-11.16-47.32-20.31-47.26-20.44Z" style="fill:#455a64;"></path><path d="M106.09,365.9c.05-.13,18.6,6.98,41.42,15.89,22.83,8.91,41.28,16.25,41.23,16.38-.05,.13-18.59-6.98-41.42-15.9-22.82-8.91-41.28-16.25-41.23-16.38Z" style="fill:#455a64;"></path><path d="M96.94,377.01c.05-.13,12.23,4.59,27.18,10.55,14.96,5.96,27.05,10.9,26.99,11.03s-12.22-4.59-27.19-10.55c-14.96-5.96-27.04-10.9-26.99-11.03Z" style="fill:#455a64;"></path><path d="M88.38,386.51c.04-.14,8.01,2.31,17.78,5.47,9.78,3.16,17.67,5.83,17.62,5.96-.04,.14-8.01-2.31-17.78-5.47-9.78-3.16-17.67-5.83-17.62-5.96Z" style="fill:#455a64;"></path></g></g><path d="M221.65,240.13c0,2.44-1.98,4.43-4.43,4.43s-4.43-1.98-4.43-4.43,1.98-4.43,4.43-4.43,4.43,1.98,4.43,4.43Z" style="fill:#FF725E;"></path><path d="M85.16,394.83c0,2.44-1.98,4.42-4.42,4.42s-4.43-1.98-4.43-4.42,1.98-4.43,4.43-4.43,4.42,1.98,4.42,4.43Z" style="fill:#FF725E;"></path><path d="M119.03,353.32c0,2.44-1.98,4.43-4.43,4.43s-4.42-1.98-4.42-4.43,1.98-4.43,4.42-4.43,4.43,1.98,4.43,4.43Z" style="fill:#FF725E;"></path><path d="M155.79,311.88c0,2.44-1.98,4.42-4.43,4.42s-4.42-1.98-4.42-4.42,1.98-4.43,4.42-4.43,4.43,1.98,4.43,4.43Z" style="fill:#FF725E;"></path><circle cx="188.76" cy="271.79" r="4.42" style="fill:#FF725E;"></circle></g></g><path d="M353.5,397.96c0,.14-71.29,.26-159.21,.26s-159.22-.12-159.22-.26,71.27-.26,159.22-.26,159.21,.12,159.21,.26Z" style="fill:#263238;"></path><g><path d="M273.08,183.18c-.56-.94-.29-2.16,.61-2.78,1.64-1.13,4.09-2.77,5.01-3.15,1.45-.6,8.71,.97,8.71,.97l10.16-6.9s-3.27-6.53-3.63-6.41c-.36,.12,17.06-7.86,17.06-7.86,0,0,9.68,10.28,9.44,13.79-.24,3.51-5.64,8.42-12.78,10.72s-19.88,9.07-19.88,9.07c0,0-6.78,5.02-8.71,5.02s-3.14-3.63-3.14-3.63l-.24-.16c-1.02-.67-1.51-1.92-1.21-3.11l.15-.58-.84-1.07c-.42-.54-.58-1.23-.43-1.9l.25-1.11-.53-.89Z" style="fill:#ae7461;"></path><path d="M287.51,135.2s3.79,.2,13.15,10.32c9.37,10.12,13.59,15.33,13.59,15.33l-20.31,10.07c-1.06,0-7.33-4.73-7.33-4.73l.9-30.98Z" style="fill:#FF725E;"></path><path d="M309.66,169.81c-.04,.17-2.89-1.03-6.54-.55-3.65,.42-6.13,2.28-6.2,2.13-.04-.05,.52-.57,1.59-1.18,1.06-.61,2.68-1.23,4.55-1.47,1.87-.23,3.59-.02,4.77,.31,1.19,.32,1.85,.7,1.83,.75Z" style="fill:#6f4439;"></path><path d="M290.84,150.31c.14,0-.03,4.58-.39,10.21-.36,5.63-.76,10.18-.91,10.17-.14,0,.03-4.58,.39-10.21,.36-5.63,.76-10.18,.91-10.17Z" style="fill:#263238;"></path><g style="opacity:.3;"><path d="M290.69,152.75l-1.01,15.77c1.51-2.04,2.72-4.54,2.86-7.5,.13-2.95-.54-5.97-1.85-8.27Z"></path></g><path d="M287.42,178.22s-.52-.05-1.44-.2c-.93-.15-2.27-.37-3.95-.57-.83-.08-1.77-.2-2.73-.11-.46,.02-.88,.28-1.35,.55-.46,.27-.92,.57-1.4,.87-.93,.62-1.97,1.3-2.92,2-.41,.37-.64,.94-.58,1.51,.03,.28,.11,.56,.27,.81,.17,.28,.34,.57,.51,.85l.05,.09-.02,.1c-.09,.4-.18,.82-.27,1.24-.06,.38,0,.79,.16,1.15,.11,.26,.3,.47,.5,.73,.2,.25,.39,.5,.58,.74l.08,.1-.03,.13c-.09,.39-.21,.74-.22,1.08-.02,.35,.03,.69,.14,1.01,.22,.65,.68,1.15,1.27,1.49l.07,.04,.03,.09c.36,1,.83,1.96,1.47,2.69,.32,.36,.7,.65,1.1,.75,.4,.12,.83-.04,1.25-.17,1.67-.67,3.04-1.57,4.18-2.27,1.14-.72,2.03-1.31,2.64-1.71,.61-.4,.95-.62,.97-.59,.02,.02-.29,.28-.87,.73-.58,.45-1.45,1.08-2.57,1.84-1.13,.74-2.47,1.67-4.2,2.4-.43,.15-.95,.36-1.51,.21-.54-.13-.98-.49-1.34-.88-.72-.8-1.2-1.78-1.6-2.85l.1,.13c-.62-.35-1.23-.98-1.48-1.74-.14-.38-.2-.79-.17-1.21,.02-.43,.15-.81,.24-1.17l.05,.22c-.19-.24-.39-.49-.58-.74-.18-.24-.42-.5-.57-.84-.21-.45-.28-.97-.2-1.45l.28-1.27,.03,.19c-.17-.29-.34-.57-.5-.86-.19-.31-.3-.67-.33-1.03-.06-.72,.23-1.45,.76-1.92,1.06-.78,2.03-1.39,3-2.02,.48-.31,.95-.6,1.43-.87,.24-.13,.47-.26,.72-.38,.23-.12,.56-.19,.81-.2,1.05-.07,1.97,.07,2.82,.18,1.69,.24,3.02,.52,3.94,.72,.92,.21,1.41,.35,1.41,.38Z" style="fill:#6f4439;"></path></g></g></g></svg>
