<svg xmlns="http://www.w3.org/2000/svg" viewBox="0 0 750 500"><g id="background-complete"><path d="M486.15,66.05c-.65-1.74-1.32-3.51-2.41-5.01-1.1-1.5-2.7-2.73-4.54-2.96-1.85-.23-3.89,.77-4.49,2.53-.26-3.96-.83-8.03-2.81-11.47-1.98-3.44-5.69-6.15-9.65-5.9-3.74,.23-6.94,3.01-8.72,6.3-1.78,3.3-2.39,7.08-2.97,10.78-1.42-1.74-4.41-1.19-5.89,.49-1.48,1.69-1.85,4.04-2.17,6.27l44.17,.46-.51-1.49Z" style="fill:#e0e0e0;"></path><path d="M153.31,157.84c-1.11-2.96-2.24-5.97-4.11-8.52-1.87-2.55-4.59-4.65-7.73-5.03-3.14-.38-6.62,1.31-7.64,4.3-.45-6.75-1.41-13.67-4.78-19.52-3.38-5.86-9.68-10.46-16.43-10.05-6.36,.39-11.81,5.12-14.84,10.73s-4.07,12.05-5.06,18.34c-2.41-2.96-7.5-2.03-10.02,.84-2.52,2.87-3.15,6.88-3.69,10.66l75.18,.78-.87-2.54Z" style="fill:#f5f5f5;"></path><path d="M690.62,83.7c-1.11-2.96-2.24-5.97-4.11-8.52-1.87-2.55-4.59-4.65-7.73-5.03-3.14-.38-6.62,1.31-7.64,4.3-.45-6.75-1.41-13.67-4.78-19.52-3.38-5.86-9.68-10.46-16.43-10.05-6.36,.39-11.81,5.12-14.84,10.73s-4.07,12.05-5.06,18.34c-2.41-2.96-7.5-2.03-10.02,.84-2.52,2.87-3.15,6.88-3.69,10.66l75.18,.78-.87-2.54Z" style="fill:#f5f5f5;"></path><path d="M228.49,87.07c-.7-1.86-1.41-3.74-2.58-5.35-1.17-1.6-2.88-2.92-4.85-3.16-1.97-.24-4.15,.82-4.8,2.7-.28-4.23-.88-8.58-3-12.25-2.12-3.68-6.07-6.56-10.31-6.31-3.99,.24-7.41,3.21-9.31,6.73-1.9,3.52-2.55,7.56-3.18,11.51-1.51-1.86-4.71-1.27-6.29,.53-1.58,1.8-1.98,4.32-2.32,6.69l47.18,.49-.55-1.59Z" style="fill:#f5f5f5;"></path><path d="M541.7,118.04c-.7-1.86-1.41-3.74-2.58-5.35-1.17-1.6-2.88-2.92-4.85-3.16-1.97-.24-4.15,.82-4.8,2.7-.28-4.23-.88-8.58-3-12.25-2.12-3.68-6.07-6.56-10.31-6.31-3.99,.24-7.41,3.21-9.31,6.73-1.9,3.52-2.55,7.56-3.18,11.51-1.51-1.86-4.71-1.27-6.29,.53-1.58,1.8-1.98,4.32-2.32,6.69l47.18,.49-.55-1.59Z" style="fill:#f5f5f5;"></path><path d="M450.55,108.61c-1.44-3.84-2.9-7.73-5.32-11.03-2.42-3.31-5.95-6.02-10.01-6.51-4.07-.5-8.57,1.7-9.9,5.57-.58-8.74-1.82-17.7-6.19-25.28-4.37-7.58-12.53-13.54-21.27-13.01-8.24,.5-15.29,6.62-19.21,13.89-3.92,7.26-5.27,15.6-6.55,23.75-3.12-3.83-9.72-2.63-12.98,1.09-3.26,3.72-4.08,8.91-4.78,13.81l97.34,1.01-1.13-3.29Z" style="fill:#f5f5f5;"></path><g><path d="M202.35,335.89c-.22-1.36-1.85-2.09-3.2-1.85-1.35,.25-2.46,1.18-3.5,2.08-.09-1.89,.96-3.61,1.74-5.33s1.27-3.86,.18-5.4c-1.36-1.92-4.32-1.72-6.44-.7-3.34,1.61-5.9,4.76-6.78,8.35-1.07-5.48-3.83-10.61-7.81-14.52-1.64-1.61-4.02-3.1-6.1-2.12-2.17,1.02-2.44,4.14-1.4,6.29,1.04,2.15,2.97,3.73,4.4,5.65,4.49,6.01,3.05,15.57-3,20l29.88-.1c-1.83-1.69-2.4-6.15-.83-8.08,1.13-1.38,3.13-2.52,2.85-4.28Z" style="fill:#e0e0e0;"></path><path d="M205.45,310.42c0,1.1-.9,2-2,2s-2-.9-2-2,.9-2,2-2,2,.9,2,2Z" style="fill:#e0e0e0;"></path><path d="M145.53,258.95l-.33,.24c-1.13,1.46-1.57,3.39-1.3,5.2,.17,1.15,1.74,1.39,2.25,.35,.91-1.84,.76-4.24-.62-5.79Z" style="fill:#e0e0e0;"></path><path d="M154.83,280.13l-.27,.31c-.79,1.66-.83,3.64-.18,5.36,.41,1.08,1.99,.99,2.27-.13,.5-1.99-.15-4.31-1.82-5.53Z" style="fill:#e0e0e0;"></path></g><g><path d="M648.42,294.85s-.93-6.57-1.22-17.28c-.02-1.34-.05-2.74-.08-4.2-.02-1.46,.04-2.98,.06-4.55,0-3.15,.23-6.51,.42-10.04,.51-7.06,1.39-14.8,2.81-22.85,1.47-8.04,3.35-15.61,5.33-22.41,1.05-3.38,2.02-6.6,3.11-9.56,.53-1.48,1-2.93,1.53-4.29,.53-1.36,1.05-2.67,1.53-3.91,4-9.94,7.16-15.77,7.16-15.77,0,0-.03,.1-.11,.29-.09,.21-.21,.48-.36,.82-.34,.75-.82,1.8-1.43,3.13-.31,.68-.66,1.44-1.04,2.26l-1.16,2.72c-.81,1.96-1.81,4.17-2.73,6.68-.48,1.25-.98,2.56-1.5,3.92-.52,1.36-.98,2.81-1.5,4.29-1.07,2.96-2.01,6.18-3.05,9.55-1.95,6.79-3.81,14.34-5.27,22.36-1.42,8.03-2.31,15.75-2.84,22.79-.2,3.53-.44,6.88-.46,10.02-.03,1.57-.1,3.09-.09,4.55,.01,1.46,.03,2.86,.04,4.19-.01,2.67,.15,5.09,.23,7.21,.05,1.06,.09,2.05,.13,2.96,.07,.9,.13,1.73,.19,2.48,.1,1.46,.19,2.61,.25,3.44,.02,.37,.04,.66,.05,.9,0,.2,0,.31,0,.31Z" style="fill:#e0e0e0;"></path><path d="M669.89,188.14c-2.22,7.46-5.04,14.71-8.58,21.52-.96,1.84-2.4,3.91-4.3,3.62-1.31-.2-2.29-1.56-2.57-3s0-2.94,.33-4.36c1.37-5.73,3.83-11.05,6.26-16.32,.86-1.85,1.77-3.78,3.32-4.95s3.93-1.24,5.08,.41c0,0,1.03,1.15,.46,3.07Z" style="fill:#e0e0e0;"></path><path d="M660.49,303.16c3.89-8.18,9.22-23.68,7.78-31.46-9.22,3.46-18.16,15.85-25.52,24.43,8.63-19.67,17.27-39.33,25.9-59-17.55,10.96-27.72,30.31-37.08,48.75,4.94-14.51,7.93-29.69,8.85-44.99-9.74,7.84-16.62,19.16-19.08,31.42,2.8-26.05,5.61-52.1,8.41-78.15-11.87,11.02-17.92,27.19-19.75,43.28-1.83,16.09,.15,32.35,2.14,48.43l-13.46-25.14c-1.02,16.5,2.08,31.61,10.55,45.8l59.62,.03c15.03-16.25,25.82-30.86,35.58-50.73-20.42,8.06-32.9,28.33-43.93,47.32Z" style="fill:#ebebeb;"></path><path d="M618.74,299.83s-.03-.09-.07-.27c-.04-.21-.09-.47-.15-.8-.12-.74-.3-1.77-.52-3.08-.11-.67-.23-1.42-.36-2.23-.1-.82-.22-1.71-.34-2.66-.23-1.91-.54-4.08-.72-6.5-.11-1.21-.22-2.47-.33-3.79-.11-1.32-.15-2.7-.24-4.12-.19-2.85-.21-5.89-.27-9.1,0-6.41,.28-13.46,1.01-20.83,.78-7.36,1.93-14.33,3.23-20.6,.71-3.13,1.34-6.11,2.1-8.86,.37-1.38,.69-2.72,1.06-3.99,.38-1.27,.74-2.48,1.09-3.65,.66-2.33,1.41-4.39,2.02-6.22,.31-.91,.6-1.75,.87-2.54,.29-.77,.56-1.47,.8-2.11,.48-1.23,.86-2.21,1.13-2.91,.12-.31,.23-.55,.31-.75,.07-.17,.11-.25,.12-.25s-.02,.09-.07,.27c-.07,.2-.15,.45-.26,.77-.25,.71-.6,1.69-1.04,2.94-.23,.64-.48,1.35-.76,2.12-.26,.79-.53,1.64-.83,2.55-.58,1.83-1.31,3.9-1.95,6.23-.34,1.16-.69,2.38-1.06,3.65-.36,1.27-.67,2.61-1.03,3.98-.74,2.75-1.36,5.72-2.05,8.85-1.27,6.27-2.41,13.22-3.18,20.56-.73,7.35-1.02,14.38-1.05,20.77,.04,3.2,.05,6.24,.22,9.08,.07,1.42,.11,2.79,.2,4.11,.1,1.32,.2,2.58,.3,3.79,.15,2.42,.44,4.59,.64,6.5,.11,.95,.21,1.84,.3,2.66,.11,.81,.22,1.56,.32,2.23,.18,1.31,.32,2.35,.42,3.09,.04,.33,.07,.59,.1,.81,.02,.18,.02,.28,.02,.28Z" style="fill:#e0e0e0;"></path><path d="M624.86,298.18s-.03-.21-.04-.61c0-.45-.01-1.03-.02-1.74-.01-.76,0-1.68,.05-2.76,.04-1.07,.07-2.3,.19-3.65,.17-2.7,.53-5.91,1.06-9.45,.57-3.54,1.35-7.4,2.4-11.4,1.08-3.99,2.33-7.73,3.61-11.08,.68-1.66,1.29-3.25,1.97-4.69,.33-.72,.65-1.42,.96-2.1,.33-.66,.65-1.29,.95-1.9,.59-1.22,1.2-2.28,1.72-3.22,.51-.95,.99-1.74,1.4-2.38,.38-.6,.69-1.09,.93-1.47,.22-.33,.34-.5,.36-.49,.02,0-.08,.2-.27,.55-.22,.4-.5,.9-.85,1.52-.38,.65-.83,1.46-1.32,2.41-.5,.95-1.08,2.02-1.65,3.25-.29,.61-.6,1.25-.92,1.91-.3,.68-.61,1.38-.93,2.1-.66,1.44-1.25,3.03-1.92,4.69-1.25,3.34-2.48,7.07-3.55,11.04-1.05,3.98-1.83,7.83-2.43,11.34-.56,3.52-.96,6.71-1.17,9.41-.14,1.34-.19,2.56-.26,3.63-.08,1.07-.12,1.99-.14,2.75-.03,.71-.06,1.29-.08,1.74-.02,.4-.04,.61-.06,.61Z" style="fill:#e0e0e0;"></path><path d="M668.29,237.74s-.13,.21-.42,.59c-.32,.41-.74,.95-1.27,1.62-1.12,1.39-2.7,3.43-4.61,5.99-1.91,2.55-4.1,5.66-6.43,9.18-2.31,3.53-4.75,7.47-7.14,11.71-2.37,4.25-4.47,8.39-6.29,12.19-1.79,3.82-3.3,7.3-4.49,10.26-1.19,2.96-2.12,5.37-2.72,7.05-.3,.8-.54,1.44-.72,1.93-.17,.44-.27,.67-.28,.66-.02,0,.05-.24,.19-.69,.16-.5,.37-1.15,.63-1.96,.54-1.7,1.42-4.14,2.57-7.12,1.14-2.99,2.63-6.49,4.4-10.33,1.79-3.83,3.89-7.98,6.27-12.24,2.4-4.25,4.86-8.2,7.19-11.72,2.36-3.51,4.58-6.6,6.53-9.13,1.95-2.54,3.57-4.55,4.74-5.9,.56-.64,1.01-1.16,1.35-1.56,.31-.35,.48-.53,.5-.52Z" style="fill:#e0e0e0;"></path><path d="M666.14,273.87c.12,.07-3.57,6.7-8.24,14.8-4.68,8.1-8.57,14.61-8.7,14.54-.12-.07,3.57-6.7,8.24-14.8,4.68-8.1,8.57-14.61,8.69-14.54Z" style="fill:#e0e0e0;"></path><path d="M702.41,259.74c.11,.09-7.92,10.36-17.93,22.94-10.02,12.58-18.23,22.7-18.34,22.61s7.92-10.36,17.93-22.94c10.01-12.58,18.23-22.7,18.34-22.61Z" style="fill:#e0e0e0;"></path><path d="M616.08,304.46s-.39-.49-1.02-1.44c-.63-.94-1.5-2.34-2.52-4.1-2.04-3.51-4.62-8.51-6.92-14.27-2.29-5.77-3.87-11.17-4.8-15.12-.47-1.98-.8-3.59-.99-4.7-.2-1.12-.29-1.74-.25-1.75,.04,0,.19,.6,.45,1.7,.25,1.1,.64,2.7,1.15,4.66,1.02,3.92,2.64,9.28,4.92,15.02,2.29,5.73,4.8,10.74,6.76,14.28,.98,1.77,1.79,3.2,2.37,4.17,.57,.98,.88,1.53,.85,1.55Z" style="fill:#e0e0e0;"></path></g><g><path d="M86.96,296.37s.81-5.71,1.06-15.02c.02-1.16,.04-2.38,.07-3.65,.02-1.27-.03-2.59-.05-3.96,0-2.74-.2-5.66-.36-8.73-.45-6.14-1.21-12.87-2.44-19.87-1.28-6.99-2.91-13.57-4.63-19.49-.92-2.94-1.75-5.74-2.7-8.31-.46-1.29-.87-2.55-1.33-3.73-.46-1.18-.91-2.32-1.33-3.4-3.48-8.64-6.22-13.71-6.22-13.71,0,0,.02,.09,.09,.25l.31,.71,1.24,2.73c.27,.59,.58,1.25,.91,1.96,.31,.73,.65,1.52,1.01,2.37,.71,1.71,1.57,3.62,2.37,5.81,.42,1.09,.85,2.22,1.31,3.41,.45,1.19,.85,2.44,1.31,3.73,.93,2.57,1.75,5.37,2.66,8.31,1.69,5.91,3.31,12.47,4.59,19.45,1.23,6.98,2,13.7,2.47,19.82,.18,3.07,.38,5.98,.4,8.71,.02,1.37,.09,2.68,.08,3.95-.01,1.27-.03,2.48-.04,3.65,.01,2.32-.13,4.42-.2,6.27-.04,.92-.08,1.78-.12,2.57-.06,.79-.12,1.51-.16,2.16-.09,1.27-.16,2.27-.21,2.99-.02,.32-.03,.58-.04,.78,0,.18,0,.27,0,.27Z" style="fill:#e0e0e0;"></path><path d="M68.3,203.58c1.93,6.49,4.38,12.8,7.46,18.71,.83,1.6,2.09,3.4,3.74,3.15,1.14-.17,1.99-1.36,2.24-2.61,.25-1.25,0-2.55-.29-3.79-1.2-4.98-3.33-9.61-5.45-14.19-.74-1.61-1.54-3.29-2.89-4.3-1.35-1.01-3.42-1.07-4.42,.36,0,0-.89,1-.4,2.67Z" style="fill:#e0e0e0;"></path><path d="M76.47,303.61c-3.38-7.11-8.02-20.59-6.76-27.36,8.02,3.01,15.79,13.78,22.2,21.25-7.51-17.1-15.02-34.2-22.52-51.31,15.26,9.53,24.1,26.36,32.24,42.4-4.3-12.62-6.9-25.82-7.7-39.13,8.47,6.82,14.45,16.66,16.6,27.32-2.44-22.65-4.88-45.31-7.32-67.96,10.32,9.59,15.58,23.64,17.18,37.64s-.13,28.13-1.86,42.11c3.9-7.29,7.8-14.58,11.71-21.86,.89,14.35-1.81,27.49-9.17,39.83l-51.85,.03c-13.07-14.13-22.46-26.84-30.94-44.12,17.76,7.01,28.61,24.64,38.21,41.15Z" style="fill:#ebebeb;"></path><path d="M112.77,300.71s.03-.08,.06-.23c.03-.18,.08-.41,.13-.69,.11-.65,.26-1.54,.45-2.68,.09-.59,.2-1.23,.31-1.94,.09-.71,.19-1.49,.3-2.31,.2-1.66,.47-3.55,.63-5.65,.09-1.05,.19-2.15,.29-3.3,.1-1.15,.13-2.34,.2-3.58,.17-2.47,.18-5.12,.23-7.91,0-5.58-.24-11.71-.88-18.11-.67-6.4-1.68-12.46-2.81-17.92-.61-2.72-1.17-5.31-1.83-7.7-.32-1.2-.6-2.36-.93-3.47-.33-1.1-.65-2.16-.95-3.17-.58-2.03-1.23-3.82-1.76-5.41-.27-.79-.52-1.53-.76-2.21-.25-.67-.49-1.28-.7-1.83-.42-1.07-.75-1.92-.98-2.53l-.27-.65c-.06-.15-.1-.22-.11-.22,0,0,.01,.08,.06,.23,.06,.18,.13,.4,.22,.67,.22,.62,.52,1.47,.9,2.56,.2,.56,.42,1.17,.66,1.84,.22,.68,.46,1.42,.72,2.22,.51,1.59,1.14,3.39,1.69,5.42,.29,1.01,.6,2.07,.92,3.17,.32,1.1,.59,2.27,.9,3.47,.65,2.39,1.18,4.98,1.78,7.69,1.1,5.45,2.09,11.49,2.76,17.88,.63,6.39,.89,12.5,.91,18.06-.04,2.78-.04,5.42-.19,7.89-.06,1.24-.09,2.43-.18,3.58-.09,1.14-.18,2.24-.26,3.29-.13,2.1-.39,3.99-.56,5.65-.09,.83-.18,1.6-.26,2.32-.1,.71-.19,1.35-.27,1.94-.15,1.14-.28,2.04-.36,2.69-.03,.29-.06,.52-.08,.7-.02,.16-.02,.24-.01,.24Z" style="fill:#e0e0e0;"></path><path d="M107.45,299.28s.03-.18,.04-.53c0-.4,.01-.9,.02-1.52,0-.66,0-1.46-.04-2.4-.04-.93-.06-2-.16-3.17-.14-2.35-.46-5.14-.93-8.22-.5-3.07-1.17-6.44-2.09-9.91-.94-3.47-2.03-6.73-3.14-9.64-.59-1.44-1.12-2.82-1.71-4.08-.29-.63-.56-1.24-.83-1.82-.29-.57-.56-1.13-.83-1.65-.51-1.06-1.05-1.98-1.5-2.8-.45-.82-.86-1.51-1.22-2.07-.33-.52-.6-.95-.81-1.28-.19-.29-.3-.44-.31-.43-.01,0,.07,.17,.23,.48,.19,.34,.44,.78,.74,1.32,.33,.57,.72,1.27,1.15,2.1,.43,.83,.94,1.76,1.43,2.82,.25,.53,.52,1.08,.8,1.66,.26,.59,.53,1.2,.8,1.83,.57,1.25,1.09,2.64,1.67,4.08,1.08,2.91,2.16,6.15,3.09,9.61,.91,3.46,1.59,6.81,2.11,9.86,.48,3.06,.83,5.84,1.02,8.18,.12,1.17,.17,2.23,.23,3.16,.07,.93,.1,1.73,.12,2.39,.03,.62,.05,1.12,.07,1.51,.02,.35,.04,.53,.05,.53Z" style="fill:#e0e0e0;"></path><path d="M69.69,246.71s.11,.19,.36,.51c.28,.36,.65,.82,1.1,1.41,.97,1.21,2.35,2.99,4.01,5.21,1.66,2.22,3.56,4.92,5.59,7.98,2.01,3.07,4.13,6.5,6.21,10.18,2.06,3.7,3.89,7.29,5.47,10.6,1.55,3.32,2.87,6.35,3.9,8.93,1.04,2.57,1.84,4.67,2.37,6.13,.26,.69,.47,1.25,.63,1.68,.15,.38,.23,.58,.25,.57,.01,0-.04-.21-.16-.6-.14-.43-.32-1-.55-1.7-.47-1.48-1.23-3.6-2.23-6.19-.99-2.6-2.29-5.65-3.82-8.99-1.56-3.33-3.38-6.94-5.45-10.65-2.09-3.7-4.22-7.13-6.25-10.19-2.05-3.05-3.98-5.74-5.68-7.94-1.69-2.2-3.11-3.95-4.12-5.13-.48-.56-.87-1.01-1.17-1.35-.27-.31-.42-.46-.43-.45Z" style="fill:#e0e0e0;"></path><path d="M71.55,278.14c-.11,.06,3.1,5.83,7.17,12.87,4.07,7.05,7.45,12.71,7.56,12.64,.11-.06-3.1-5.82-7.17-12.87-4.07-7.04-7.45-12.71-7.56-12.64Z" style="fill:#e0e0e0;"></path><path d="M40.02,265.84c-.1,.08,6.88,9.01,15.59,19.95,8.71,10.94,15.85,19.74,15.95,19.67,.1-.08-6.88-9.01-15.6-19.95-8.71-10.94-15.85-19.74-15.95-19.66Z" style="fill:#e0e0e0;"></path><path d="M115.09,304.74s.34-.43,.89-1.25c.55-.82,1.3-2.04,2.19-3.56,1.78-3.05,4.02-7.4,6.02-12.41,1.99-5.01,3.36-9.71,4.17-13.15,.41-1.72,.7-3.12,.86-4.09,.17-.97,.25-1.51,.22-1.52-.03,0-.17,.52-.39,1.48-.22,.96-.55,2.35-1,4.05-.89,3.41-2.29,8.07-4.28,13.06-1.99,4.99-4.18,9.34-5.88,12.42-.85,1.54-1.56,2.78-2.06,3.63-.5,.85-.76,1.33-.74,1.35Z" style="fill:#e0e0e0;"></path></g><path d="M330.95,460.93c0,3.46-17.7,6.26-39.53,6.26s-39.53-2.8-39.53-6.26,17.7-6.26,39.53-6.26,39.53,2.8,39.53,6.26Z" style="fill:#ebebeb;"></path><path d="M484.36,465.13c0,2.19-11.19,3.96-25,3.96s-25-1.77-25-3.96,11.19-3.96,25-3.96,25,1.77,25,3.96Z" style="fill:#ebebeb;"></path><ellipse cx="589.55" cy="467.22" rx="25" ry="3.96" style="fill:#ebebeb;"></ellipse><ellipse cx="193.82" cy="441.44" rx="11.92" ry="2.06" style="fill:#ebebeb;"></ellipse><ellipse cx="173.65" cy="448.95" rx="7.26" ry="2.03" style="fill:#ebebeb;"></ellipse><path d="M400.23,443.24c0,1.14-5.34,2.06-11.92,2.06s-11.92-.92-11.92-2.06,5.34-2.06,11.92-2.06,11.92,.92,11.92,2.06Z" style="fill:#ebebeb;"></path><path d="M674.11,451.01c0,1.14-5.34,2.06-11.92,2.06s-11.92-.92-11.92-2.06,5.34-2.06,11.92-2.06,11.92,.92,11.92,2.06Z" style="fill:#ebebeb;"></path><path d="M375.4,450.75c0,1.12-3.25,2.03-7.26,2.03s-7.26-.91-7.26-2.03,3.25-2.03,7.26-2.03,7.26,.91,7.26,2.03Z" style="fill:#ebebeb;"></path><path d="M162.21,461.48c0,1.68-8.57,3.03-19.14,3.03s-19.14-1.36-19.14-3.03,8.57-3.03,19.14-3.03,19.14,1.36,19.14,3.03Z" style="fill:#ebebeb;"></path></g><g id="background-simple"><path d="M66.28,133.95l1.54-3.56c13-30.01,41.09-50.89,73.4-53.27,4.15-.31,8.33-.31,12.5,0,29.99,2.23,58.36,20.77,72.75,47.53,8.46,15.74,12.82,34.61,26.35,46.16,17.62,15.04,43.6,12.01,66.28,8.17,22.68-3.84,48.69-6.81,66.24,8.31,10.99,9.47,16.12,24.38,17.34,38.91,3.23,38.49-18.7,76.32-50.22,97.96-31.52,21.64-71.18,28.65-109.27,26.28-53.35-3.32-106.68-25.27-142.46-65.57-35.78-40.31-51.61-99.75-34.46-150.92Z" style="fill:#f5f5f5;"></path><circle cx="616.45" cy="142.88" r="61" transform="translate(79.52 477.75) rotate(-45)" style="fill:#f5f5f5;"></circle></g><g id="Floor"><path d="M706.16,410.63c0,.14-150.84,.26-336.86,.26s-336.89-.12-336.89-.26,150.8-.26,336.89-.26,336.86,.12,336.86,.26Z" style="fill:#263238;"></path></g><g id="Water"><path d="M721.78,305.46c0,.14-156.55,.26-349.62,.26s-349.65-.12-349.65-.26,156.52-.26,349.65-.26,349.62,.12,349.62,.26Z" style="fill:#263238;"></path><path d="M403.01,316.15c0,.14-21.49,.26-47.99,.26s-47.99-.12-47.99-.26,21.48-.26,47.99-.26,47.99,.12,47.99,.26Z" style="fill:#263238;"></path><path d="M448.22,326.82c0,.14-21.49,.26-47.99,.26s-47.99-.12-47.99-.26,21.48-.26,47.99-.26,47.99,.12,47.99,.26Z" style="fill:#263238;"></path><path d="M218.47,347.9c0,.14-14.8,.26-33.05,.26s-33.05-.12-33.05-.26,14.79-.26,33.05-.26,33.05,.12,33.05,.26Z" style="fill:#263238;"></path><path d="M609.34,394.61c0,.14-61.11,.26-136.49,.26s-136.5-.12-136.5-.26,61.1-.26,136.5-.26,136.49,.12,136.49,.26Z" style="fill:#263238;"></path></g><g id="Rock"><g><polygon points="251.87 459.34 243.52 448.25 245.54 435.56 279.26 421.19 306.08 427.17 317.21 436.83 306.75 461.07 282.47 462.61 251.87 459.34" style="fill:#fafafa;"></polygon><polygon points="243.52 448.25 278.97 455.81 281.81 462.61 251.87 459.34 243.52 448.25" style="fill:#ebebeb;"></polygon><path d="M279.03,455.81s17.52-9.11,23.99-8.44l.79,13.88-21.94,1.36-2.84-6.8Z" style="fill:#f5f5f5;"></path><polygon points="303.75 461.25 302.96 447.37 317.21 436.83 306.75 461.07 303.75 461.25" style="fill:#e0e0e0;"></polygon><path d="M251.87,459.34h.56l1.6,.15,6.11,.6,22.35,2.25h0l24.28-1.6-.23,.16c3.2-7.45,6.76-15.65,10.43-24.24l.08,.33-9.1-7.88-2.04-1.77,.14,.07-26.81-6h.17l-33.78,14.31,.12-.16c-.8,4.88-1.49,9.1-2.07,12.68v-.12l6.07,8.3,1.59,2.17,.41,.56c.04,.07,.09,.13,.12,.2l-.15-.17-.43-.53-1.63-2.06-6.26-8.19v-.12c.56-3.57,1.22-7.8,1.97-12.69v-.11h.1l33.7-14.43h.17l26.81,5.97h.08v.06l2.03,1.76,9.1,7.88,.16,.15-.08,.19-10.48,24.23-.07,.15h-.16l-24.29,1.5h0l-22.41-2.5-6.08-.71-1.57-.19c-.18-.04-.35-.09-.52-.17Z" style="fill:#263238;"></path></g></g><g id="Birds"><g><path d="M102.55,95.96s-.68-.24-1.94-.52c-1.26-.28-3.14-.52-5.43-.21-2.27,.3-4.96,1.22-7.31,3.15-2.35,1.9-4.36,4.78-5.16,8.2l-.02,.09-.15,.59-.22-.56c-1.31-3.24-3.65-5.82-6.18-7.46-2.54-1.67-5.27-2.36-7.55-2.52-2.29-.16-4.15,.17-5.39,.49-1.24,.33-1.9,.62-1.92,.58,0-.01,.16-.09,.47-.23,.31-.14,.78-.32,1.41-.5,1.24-.37,3.12-.75,5.45-.62,2.32,.12,5.12,.8,7.73,2.49,2.6,1.66,5,4.29,6.35,7.62l-.38,.03,.02-.09c.83-3.51,2.9-6.46,5.32-8.39,2.43-1.97,5.19-2.88,7.51-3.15,2.33-.28,4.24,.01,5.5,.34,.63,.16,1.11,.32,1.43,.45,.32,.13,.48,.2,.48,.21Z" style="fill:#263238;"></path><path d="M156.81,69.18s-.38-.11-1.08-.25c-.69-.14-1.72-.26-2.97-.09-1.24,.17-2.7,.68-3.98,1.74-1.28,1.04-2.37,2.61-2.8,4.46v.05l-.16,.59-.22-.56c-.72-1.77-1.98-3.17-3.36-4.07-1.38-.91-2.87-1.3-4.11-1.39-1.25-.1-2.27,.07-2.95,.24-.68,.17-1.05,.32-1.06,.29,0-.01,.08-.06,.25-.14,.17-.08,.43-.19,.77-.29,.68-.22,1.72-.43,3.01-.37,1.28,.06,2.84,.43,4.29,1.36,1.45,.92,2.78,2.38,3.53,4.23l-.38,.03v-.05c.47-1.95,1.63-3.59,2.97-4.66,1.35-1.09,2.89-1.59,4.17-1.73,1.29-.15,2.35,.02,3.04,.21,.35,.09,.61,.19,.78,.27,.17,.08,.26,.12,.26,.13Z" style="fill:#263238;"></path><path d="M121.33,56.99s-.37,.43-1.04,1.18c-.67,.76-1.59,1.91-2.55,3.44-1.92,3.03-3.85,7.85-3.78,13.38v.17l-.39,.03c-.41-2.7-1.31-5.18-2.45-7.25-1.13-2.08-2.47-3.76-3.73-5.03-1.26-1.27-2.4-2.17-3.23-2.74-.82-.57-1.3-.86-1.28-.89,0-.01,.13,.05,.37,.17,.23,.13,.59,.3,1,.59,.86,.53,2.04,1.41,3.34,2.67,1.3,1.26,2.68,2.95,3.85,5.05,1.17,2.09,2.1,4.61,2.52,7.37l-.39,.03v-.17c-.07-5.63,1.94-10.52,3.94-13.54,1-1.53,1.96-2.66,2.67-3.39,.34-.38,.65-.63,.84-.82,.2-.18,.31-.27,.32-.26Z" style="fill:#263238;"></path></g></g><g id="Plant_2"><g><path d="M377.69,293.85s0-.1,0-.31c.01-.23,.03-.53,.05-.89,.06-.82,.14-1.97,.25-3.44,.06-.75,.12-1.58,.19-2.48,.04-.91,.09-1.9,.13-2.96,.08-2.12,.24-4.54,.23-7.21,.01-1.34,.03-2.74,.04-4.19,.01-1.46-.06-2.98-.09-4.55-.03-3.14-.26-6.49-.46-10.02-.54-7.04-1.43-14.77-2.84-22.79-1.47-8.02-3.33-15.57-5.27-22.36-1.04-3.38-1.98-6.6-3.05-9.55-.52-1.48-.98-2.93-1.5-4.29-.52-1.36-1.02-2.67-1.5-3.92-.92-2.51-1.91-4.72-2.73-6.68-.41-.98-.8-1.88-1.16-2.72-.38-.82-.73-1.58-1.04-2.26-.61-1.34-1.09-2.39-1.43-3.13-.15-.34-.27-.61-.36-.82-.08-.19-.11-.28-.11-.29,0,0,3.16,5.83,7.16,15.77,.49,1.25,1,2.55,1.53,3.91,.53,1.36,1,2.81,1.53,4.29,1.09,2.96,2.05,6.18,3.11,9.56,1.98,6.8,3.85,14.36,5.33,22.41,1.42,8.05,2.3,15.79,2.81,22.85,.19,3.54,.41,6.89,.42,10.04,.02,1.57,.08,3.09,.06,4.55-.03,1.46-.05,2.86-.08,4.2-.29,10.71-1.22,17.28-1.22,17.28Z" style="fill:#263238;"></path><path d="M324.58,160.25s.09,.08,.25,.26c.17,.2,.41,.47,.7,.8,.61,.71,1.52,1.75,2.61,3.15,2.22,2.77,5.32,6.89,8.7,12.28,3.39,5.38,7.05,12.03,10.47,19.71,3.45,7.67,6.61,16.38,9.26,25.71,5.3,18.69,7.65,36.17,9,48.79,.34,3.16,.61,6.02,.95,8.51,.34,2.5,.75,4.63,1.18,6.35,.43,1.72,.86,3.03,1.17,3.91,.15,.42,.28,.75,.37,1,.08,.23,.12,.34,.11,.35,0,0-.93-1.75-1.85-5.2-.47-1.72-.9-3.86-1.27-6.35-.37-2.5-.67-5.36-1.03-8.51-1.45-12.6-3.85-30.04-9.14-48.69-2.65-9.31-5.78-18-9.19-25.66-3.39-7.67-7-14.32-10.35-19.71-3.33-5.4-6.37-9.55-8.54-12.35-1.07-1.42-1.95-2.47-2.53-3.21-.28-.35-.49-.63-.66-.83-.15-.19-.22-.29-.21-.3Z" style="fill:#263238;"></path><path d="M357.22,185.83c2.22,7.46,5.04,14.71,8.58,21.52,.96,1.84,2.4,3.91,4.3,3.62,1.31-.2,2.29-1.56,2.57-3,.28-1.44,.01-2.94-.33-4.36-1.37-5.73-3.83-11.05-6.26-16.32-.86-1.85-1.77-3.78-3.32-4.95-1.55-1.16-3.93-1.24-5.08,.41,0,0-1.03,1.15-.46,3.07Z" style="fill:#FF725E;"></path><path d="M326.08,167.5c3.53,6.94,7.6,13.57,12.3,19.63,1.27,1.64,3.06,3.41,4.88,2.79,1.25-.43,1.97-1.94,2-3.41,.02-1.47-.52-2.89-1.11-4.23-2.38-5.39-5.75-10.18-9.09-14.93-1.17-1.67-2.42-3.4-4.16-4.27-1.73-.87-4.09-.51-4.92,1.32,0,0-.8,1.32,.1,3.1Z" style="fill:#FF725E;"></path><path d="M352.21,302.05c-3.89-8.18-9.22-23.68-7.78-31.46,9.22,3.46,18.16,15.85,25.52,24.43-8.63-19.67-17.27-39.33-25.9-59,17.55,10.96,27.72,30.31,37.08,48.75-4.94-14.51-7.93-29.69-8.85-44.99,9.74,7.84,16.62,19.16,19.08,31.42-2.8-26.05-5.61-52.1-8.41-78.15,11.87,11.02,17.92,27.19,19.75,43.28,1.83,16.09-.15,32.35-2.14,48.43,4.49-8.38,8.97-16.76,13.46-25.14,1.02,16.5-2.08,31.61-10.55,45.8l-59.62,.03c-15.03-16.25-25.82-30.86-35.58-50.73,20.42,8.06,32.9,28.33,43.93,47.32Z" style="fill:#455a64;"></path><path d="M393.96,298.72s0-.1,.02-.28c.03-.21,.06-.48,.1-.81,.1-.75,.24-1.78,.42-3.09,.1-.67,.2-1.42,.32-2.23,.09-.82,.19-1.71,.3-2.66,.2-1.91,.49-4.08,.64-6.5,.09-1.21,.19-2.47,.3-3.79,.1-1.32,.13-2.69,.2-4.11,.17-2.84,.17-5.88,.22-9.08-.03-6.4-.32-13.43-1.05-20.77-.77-7.34-1.91-14.29-3.18-20.56-.69-3.12-1.31-6.1-2.05-8.85-.36-1.38-.67-2.72-1.03-3.98-.37-1.27-.72-2.48-1.06-3.65-.64-2.33-1.36-4.4-1.95-6.23-.3-.91-.57-1.76-.83-2.55-.28-.77-.53-1.48-.76-2.12-.44-1.25-.79-2.23-1.04-2.94-.11-.31-.19-.57-.26-.77-.06-.17-.08-.27-.07-.27,0,0,.05,.08,.12,.25,.08,.2,.18,.44,.31,.75,.27,.7,.65,1.67,1.13,2.91,.24,.64,.51,1.34,.8,2.11,.27,.78,.56,1.63,.87,2.54,.61,1.83,1.36,3.89,2.02,6.22,.35,1.16,.71,2.38,1.09,3.65,.37,1.27,.7,2.61,1.06,3.99,.76,2.75,1.4,5.73,2.1,8.86,1.29,6.28,2.45,13.24,3.23,20.6,.73,7.36,1.01,14.42,1.01,20.83-.06,3.21-.08,6.25-.27,9.1-.08,1.42-.13,2.8-.24,4.12-.11,1.32-.22,2.58-.33,3.79-.18,2.42-.49,4.59-.72,6.5-.12,.95-.24,1.84-.34,2.66-.13,.81-.25,1.55-.36,2.23-.22,1.31-.39,2.34-.52,3.08-.06,.33-.11,.59-.15,.8-.04,.18-.06,.27-.07,.27Z" style="fill:#263238;"></path><path d="M387.84,297.07s-.04-.21-.06-.61c-.02-.45-.05-1.03-.08-1.74-.02-.76-.06-1.68-.14-2.75-.07-1.07-.12-2.29-.26-3.63-.21-2.69-.61-5.88-1.17-9.41-.6-3.52-1.38-7.36-2.43-11.34-1.07-3.98-2.3-7.7-3.55-11.04-.66-1.65-1.26-3.24-1.92-4.69-.32-.72-.63-1.43-.93-2.1-.32-.66-.62-1.3-.92-1.91-.57-1.23-1.15-2.3-1.65-3.25-.49-.96-.94-1.76-1.32-2.41-.35-.62-.63-1.12-.85-1.52-.19-.35-.28-.54-.27-.55,.02,0,.14,.16,.36,.49,.24,.38,.55,.87,.93,1.47,.41,.64,.89,1.43,1.4,2.38,.52,.94,1.14,2,1.72,3.22,.3,.61,.62,1.24,.95,1.9,.31,.67,.63,1.37,.96,2.1,.68,1.44,1.29,3.03,1.97,4.69,1.28,3.35,2.53,7.09,3.61,11.08,1.05,4,1.83,7.87,2.4,11.4,.53,3.54,.9,6.75,1.06,9.45,.12,1.35,.15,2.57,.19,3.65,.05,1.07,.06,2,.05,2.76,0,.71-.01,1.29-.02,1.74-.01,.4-.02,.61-.04,.61Z" style="fill:#263238;"></path><path d="M344.41,236.63s.18,.17,.5,.52l1.35,1.56c1.17,1.35,2.8,3.36,4.74,5.9,1.95,2.53,4.17,5.62,6.53,9.13,2.33,3.52,4.79,7.47,7.19,11.72,2.38,4.26,4.47,8.42,6.27,12.24,1.77,3.84,3.25,7.35,4.4,10.33,1.15,2.98,2.02,5.42,2.57,7.12,.26,.81,.47,1.46,.63,1.96,.14,.45,.2,.69,.19,.69-.02,0-.11-.22-.28-.66-.18-.49-.42-1.13-.72-1.93-.6-1.68-1.53-4.09-2.72-7.05-1.19-2.96-2.7-6.45-4.49-10.26-1.81-3.81-3.91-7.94-6.29-12.19-2.39-4.24-4.83-8.18-7.14-11.71-2.33-3.51-4.52-6.62-6.43-9.18-1.9-2.56-3.48-4.6-4.61-5.99-.53-.67-.95-1.21-1.27-1.62-.29-.37-.43-.58-.42-.59Z" style="fill:#263238;"></path><path d="M346.56,272.77c.12-.07,4.02,6.44,8.69,14.54,4.68,8.1,8.37,14.73,8.24,14.8-.12,.07-4.02-6.44-8.7-14.54-4.68-8.1-8.37-14.73-8.24-14.8Z" style="fill:#263238;"></path><path d="M310.3,258.63c.11-.09,8.32,10.04,18.34,22.61,10.02,12.58,18.05,22.85,17.93,22.94s-8.32-10.03-18.34-22.61c-10.01-12.58-18.04-22.85-17.93-22.94Z" style="fill:#263238;"></path><path d="M396.63,303.35s.27-.57,.85-1.55c.58-.97,1.39-2.4,2.37-4.17,1.96-3.54,4.47-8.55,6.76-14.28,2.28-5.74,3.9-11.1,4.92-15.02,.51-1.96,.9-3.55,1.15-4.66,.26-1.1,.42-1.71,.45-1.7,.04,0-.06,.63-.25,1.75-.19,1.12-.52,2.73-.99,4.7-.93,3.95-2.5,9.36-4.8,15.12-2.3,5.76-4.88,10.76-6.92,14.27-1.02,1.76-1.89,3.15-2.52,4.1-.63,.95-.99,1.46-1.02,1.44Z" style="fill:#263238;"></path></g></g><g id="Plant_1"><g><path d="M181.92,383.92c0,.14-24.58,.26-54.89,.26s-54.9-.12-54.9-.26,24.57-.26,54.9-.26,54.89,.12,54.89,.26Z" style="fill:#263238;"></path><path d="M116.6,391.67c0,.14-9.96,.26-22.24,.26s-22.24-.12-22.24-.26,9.95-.26,22.24-.26,22.24,.12,22.24,.26Z" style="fill:#263238;"></path><g><g><path d="M82.27,334.15s.06,.1,.16,.3l.42,.91c.38,.83,.91,2,1.58,3.5,1.36,3.05,3.28,7.48,5.58,12.99,4.62,11,10.73,26.32,17.22,43.33,6.48,17.02,12.12,32.52,16.05,43.79,1.97,5.63,3.51,10.21,4.56,13.38,.5,1.56,.9,2.79,1.18,3.66,.12,.4,.22,.71,.29,.95,.06,.22,.09,.33,.08,.33s-.05-.1-.13-.31c-.09-.24-.2-.55-.34-.94-.3-.86-.73-2.07-1.27-3.62-1.12-3.18-2.73-7.72-4.71-13.32-4.01-11.24-9.71-26.71-16.19-43.72-6.49-17.01-12.55-32.34-17.08-43.37-2.25-5.52-4.13-9.97-5.42-13.05-.64-1.51-1.14-2.7-1.49-3.54-.16-.39-.28-.69-.38-.93-.08-.21-.12-.32-.11-.32Z" style="fill:#263238;"></path><rect x="85.04" y="337.35" width="9.55" height="30.47" rx="4.16" ry="4.16" transform="translate(-127.11 60.48) rotate(-22.31)" style="fill:#FF725E;"></rect></g><g><path d="M124.64,310.56s.03,.13,.07,.37c.04,.27,.08,.64,.14,1.1,.12,1,.29,2.43,.5,4.25,.38,3.7,.85,9.06,1.27,15.69,.87,13.26,1.48,31.62,1.91,51.89,.4,20.28,.56,38.63,.7,51.92,.07,6.62,.12,11.99,.16,15.73,.02,1.83,.03,3.27,.04,4.28,0,.47,0,.84,0,1.11,0,.25,0,.38-.02,.38s-.02-.13-.03-.38c-.01-.28-.03-.64-.05-1.11-.03-1.01-.08-2.44-.14-4.28-.08-3.74-.19-9.11-.33-15.73-.22-13.31-.52-31.65-.85-51.92-.43-20.27-.98-38.61-1.75-51.87-.37-6.63-.78-11.99-1.1-15.69-.17-1.83-.31-3.25-.4-4.26-.04-.47-.07-.83-.09-1.11-.02-.25-.02-.38-.01-.38Z" style="fill:#263238;"></path><rect x="121.7" y="315.16" width="9.55" height="30.47" rx="4.16" ry="4.16" transform="translate(-30.13 13.17) rotate(-5.33)" style="fill:#FF725E;"></rect></g><path d="M133.18,452.17c3.64-15.22,4.59-31.07,2.79-46.61-7.73,13.26-11.4,28.85-10.41,44.16-6.28-9.39-14.58-18.72-25.73-20.54,10,8.79,18.02,20.29,24.81,31.75h14.56c2.94-7.44,5.88-14.89,8.82-22.33-6.19,2.84-11.46,7.65-14.84,13.57Z" style="fill:#455a64;"></path></g></g></g><g id="Character"><g><g><g><path d="M561.43,327.08c-.24,.81,4.24,29.07,9.66,39.44s16.49,22.38,19.08,22.38,7.44,3.58,7.44,3.58l26.04-10.85-3.33-6.39s2.36-5.65-2.59-12.48c-4.95-6.83-12.95-9.66-13.19-14.13-.24-4.48,.94-13.16,1.88-21.54,.94-8.37,.24-30.04,.71-31.69,.47-1.65-42.63,3.3-42.63,3.3l-3.06,28.39Z" style="fill:#263238;"></path><polygon points="564.45 344.66 568.96 335.45 588.8 317.62 561.99 331.84 564.45 344.66" style="opacity:.3;"></polygon><path d="M546.14,268.28c-1.2,1.81-49.4,60.85-50.61,69.29-1.2,8.43-10.24,15.06-4.22,36.75,0,0-2.63,5.86-2.05,10.34s1.75,5.42,1.51,7.3c-.24,1.88,.94,7.3,.94,7.3,0,0,31.8,1.65,31.8,0s.94-7.07,.94-7.07c0,0,7.07-6.36,4.95-10.36s-7.3-8.95-4.95-11.78c2.36-2.83,6.59-2.12,7.77-4.24,1.18-2.12-.94-4.48,1.18-6.36,2.12-1.88,9.66-1.88,10.83-4.24,1.18-2.36,7.77-12.72,10.6-15.78,2.83-3.06,7.54-5.3,7.54-5.3,0,0,23.24-12.57,28.97-21.55,4.43-6.95,22.61-16.72,27.56-27.09,4.95-10.36,8.48-28.97,8.48-28.97l-78.67-2.36-2.58,14.11Z" style="fill:#263238;"></path><g><path d="M487.11,394.61c3.06,18.33,7.02,35.24,5.6,52.35,0,0,.52,2.7-6.98,5.24-8.05,2.73-16.47,5.53-15.21,12.6l49.77-.04,5.12-68.68-38.29-1.47Z" style="fill:#263238;"></path><polygon points="470.52 464.8 470.52 462.15 520.48 462.15 520.28 464.75 470.52 464.8" style="fill:#455a64;"></polygon></g><g><path d="M590.38,391.47c9.37,16.05,19.08,30.45,23.82,46.96,0,0,.52,2.18-5.58,7.22-6.56,5.41-13.43,11.02-9.74,17.18l47.43-17.55-19.6-66.02-36.32,12.22Z" style="fill:#263238;"></path><polygon points="598.88 462.82 597.94 460.35 645.56 442.77 646.3 445.27 598.88 462.82" style="fill:#455a64;"></polygon></g><path d="M596.9,309.18s-.38,.46-1.12,1.22c-.74,.77-1.86,1.84-3.26,3.13-2.8,2.59-6.83,6.02-11.54,9.46-4.71,3.43-9.21,6.22-12.53,8.1-1.66,.94-3.02,1.67-3.98,2.15-.95,.48-1.49,.73-1.51,.7-.02-.03,.49-.34,1.41-.88,.93-.53,2.26-1.31,3.89-2.29,3.27-1.95,7.71-4.78,12.41-8.2,4.69-3.43,8.74-6.79,11.6-9.31,1.43-1.26,2.58-2.29,3.37-3.01,.79-.72,1.24-1.1,1.26-1.07Z" style="fill:#455a64;"></path><path d="M521.17,366.54s-.39,.11-1.09,.21-1.73,.23-3,.37c-1.31,.14-2.81,.31-4.46,.48-.84,.09-1.72,.18-2.63,.27-.89,.12-1.96,.05-2.5,.65-.27,.31-.34,.72-.11,.98,.23,.28,.67,.42,1.11,.57,.86,.3,1.7,.59,2.5,.87,1.56,.56,2.98,1.06,4.23,1.51,1.2,.44,2.17,.8,2.83,1.06,.67,.26,1.03,.42,1.02,.45-.01,.03-.4-.06-1.08-.26-.69-.2-1.67-.51-2.89-.9-1.25-.41-2.69-.88-4.26-1.4-.8-.27-1.64-.55-2.51-.84-.42-.15-.94-.26-1.34-.72-.19-.23-.3-.56-.25-.87,.04-.3,.18-.57,.37-.79,.4-.45,.96-.6,1.44-.67,.49-.07,.95-.1,1.41-.14,.91-.08,1.79-.16,2.64-.24,1.65-.14,3.16-.26,4.47-.37,1.27-.1,2.3-.17,3.02-.21s1.11-.04,1.11,0Z" style="fill:#455a64;"></path><path d="M522.16,351.74s-.19,.04-.45,.18c-.25,.15-.54,.5-.62,1.03-.1,.52,.14,1.12,.68,1.6,.53,.49,1.28,.84,2.07,1.24,3.16,1.53,5.83,2.6,5.77,2.76-.03,.07-.72-.13-1.81-.53-1.09-.39-2.59-.98-4.19-1.76-.79-.4-1.58-.78-2.17-1.36-.29-.28-.53-.62-.66-.98-.14-.37-.13-.74-.06-1.05,.15-.63,.56-1.02,.9-1.14,.35-.11,.54-.02,.53,0Z" style="fill:#455a64;"></path><path d="M617.6,375.04c.09,.1-2.07,2.11-5.21,3.92-3.13,1.83-5.95,2.7-5.99,2.58-.06-.15,2.64-1.23,5.73-3.03,3.09-1.78,5.38-3.59,5.47-3.47Z" style="fill:#455a64;"></path><path d="M524.69,396.29s-.53,.02-1.47-.03c-1.04-.07-2.38-.16-3.98-.26-3.36-.23-8.01-.52-13.14-.74-5.14-.23-9.79-.34-13.16-.41-1.61-.04-2.95-.07-3.99-.09-.94-.03-1.46-.06-1.46-.1,0-.04,.52-.07,1.46-.11,.94-.04,2.31-.06,3.99-.07,3.37-.02,8.03,.04,13.18,.26,5.14,.23,9.79,.58,13.15,.9,1.68,.16,3.04,.31,3.97,.43,.94,.12,1.45,.2,1.45,.24Z" style="fill:#455a64;"></path><path d="M626,379.44s-.46,.26-1.32,.65c-.86,.39-2.12,.93-3.69,1.57-3.13,1.28-7.49,2.96-12.38,4.63-4.88,1.67-9.36,3.02-12.62,3.93-1.63,.45-2.95,.8-3.87,1.02-.92,.22-1.43,.33-1.44,.3,0-.03,.48-.21,1.39-.49,1-.31,2.28-.7,3.82-1.18,3.23-.99,7.68-2.4,12.55-4.07,4.87-1.67,9.25-3.29,12.41-4.48,1.51-.57,2.77-1.04,3.74-1.41,.89-.33,1.38-.5,1.4-.46Z" style="fill:#455a64;"></path><g style="opacity:.3;"><path d="M487.11,394.61c3.06,18.33,7.02,35.24,5.6,52.35,0,0,.52,2.7-6.98,5.24-8.05,2.73-16.47,5.53-15.21,12.6l49.77-.04,5.12-68.68-1.52-.06,.18-1.42h-36.95Z" style="fill:#fff;"></path></g><g style="opacity:.3;"><path d="M591.97,394.61c9.37,16.05,17.49,27.31,22.23,43.82,0,0,.52,2.18-5.58,7.22-6.56,5.41-13.43,11.02-9.74,17.18l47.43-17.55-15.03-50.63-39.3-.03Z" style="fill:#fff;"></path></g><path d="M529.61,289.16s49.75,24.31,77.32,25.14l-.54-5.11-75.92-23.29-.87,3.26Z" style="opacity:.3;"></path></g><g><path d="M517.97,199.28s-5.15-10.61-7.39-12.28c-2.24-1.67-10.77-4.51-13.49-5.87-2.72-1.36-3.85,.84-2.34,3.38,.39,.65,1.12,1.37,1.99,2.08-3.74-.41-8.38-.74-9.22-.2,0,0-3.85,2.92-1.08,5.79,1.53,1.59,3.46,1.3,4.42,1.27,.09,.06,.19,.1,.29,.15-.57,.31-.98,.67-1.08,1.1,0,0-.13,3.2,3.97,4.61,0,0-1.33,2.1,2.9,3.52,0,0-1.06,3.86,3.29,3.8,1.68-.02,2.93-.63,3.83-1.42,.02,0,.04,.02,.07,.03,5.77,1.89,8.09,1.77,8.09,1.77l4.79-6.7h0l.96-1.04Z" style="fill:#ffbf9d;"></path><path d="M510.63,209.92l5-15.19,30.81,12.3,20.84-12.5,18.36,13.55s-31.48,30.38-36.5,30.6c-5.03,.22-18.36-4.15-19.02-3.93-.66,.22-19.49-24.83-19.49-24.83Z" style="fill:#FF725E;"></path><path d="M510.63,209.92l5-15.19,30.81,12.3,20.84-12.5,18.36,13.55s-31.48,30.38-36.5,30.6c-5.03,.22-18.36-4.15-19.02-3.93-.66,.22-19.49-24.83-19.49-24.83Z" style="opacity:.3;"></path></g><g><path d="M256.23,67.19s.22-.07,.67-.18c.46-.11,1.12-.27,1.98-.47,1.76-.41,4.33-1.01,7.64-1.78,6.67-1.53,16.33-3.74,28.35-6.5h.04c11.54,.22,25.49,.49,41.03,.79h.04l.04,.02c11.68,4.79,24.57,10.07,38.11,15.63h.03l.02,.03c4.83,3.41,9.91,6.99,15.08,10.63,10.19,7.2,20.08,14.17,29.44,20.78l.02,.02,.02,.02c14.26,15.95,27.12,30.35,37.69,42.17l.03,.03v.04c4.03,14.15,7.29,25.63,9.56,33.59,1.11,3.97,1.98,7.05,2.57,9.16,.29,1.04,.5,1.84,.66,2.39,.14,.54,.21,.82,.21,.82,0,0-.1-.27-.26-.8-.16-.55-.4-1.34-.71-2.37-.62-2.11-1.52-5.18-2.67-9.13-2.3-7.95-5.62-19.41-9.71-33.54l.04,.08c-10.59-11.8-23.48-26.17-37.77-42.1l.04,.04c-9.37-6.61-19.26-13.58-29.45-20.77-5.16-3.64-10.25-7.23-15.08-10.64l.05,.03c-13.54-5.57-26.42-10.87-38.1-15.67l.08,.02c-15.53-.34-29.49-.65-41.03-.9h.04c-12.03,2.68-21.71,4.84-28.39,6.34-3.32,.73-5.9,1.3-7.67,1.69-.86,.18-1.53,.33-1.99,.42-.45,.09-.68,.13-.68,.13Z" style="fill:#263238;"></path><g><path d="M455.87,180.05s-1.05-3.94,3.98-6.65c5.03-2.7,8.77,1.2,8.77,1.2l-12.75,5.45Z" style="fill:#263238;"></path><path d="M457.24,178.35c.13-.05,2.64,5.36,2.64,5.36l8.3-4.33-2.02-4.84-8.92,3.81Z" style="fill:#263238;"></path><polygon points="470.19 177.87 457.5 184 464.81 197.87 476.88 191.17 470.19 177.87" style="fill:#263238;"></polygon><path d="M470.8,196.9s-3.66-.08-3.68,2.25c-.02,2.33,3.79,2.13,8.16,2.99,4.37,.86,10.49,1.86,16.85,7.41l2.07-3.46s-13.96-10.84-23.4-9.19Z" style="fill:#263238;"></path><path d="M470.18,200.04s-.94,3.23,2.91,4.79c3.85,1.56,5.69-.97,6.75-2.88,1.07-1.92,1.73-6.06,3-8.18,1.27-2.12,1.11-5.44,3.71-8.41,2.6-2.98,6.61-3.88,6.61-3.88l-1.52-2.97s-5.6,2.34-8.21,5.72c-2.6,3.39-2.71,4.81-4.36,6.05-1.65,1.24-4.77-.71-4.77-.71,0,0-7.39,6.3-7.36,6.31,.03,.02,3.23,4.16,3.23,4.16Z" style="fill:#263238;"></path></g><path d="M543.05,250.17s-59.73-87.48-75.29-107.86c-21.28-27.87-43.08-53.09-85.1-76.6,0,0-31.8-14.97-53.31-15.64,0,0-40.83-4.02-73.32,12.54l.71,1.84c31.23-16.31,71.62-11.88,71.62-11.88,20.75,1.73,49.72,16.27,49.72,16.27,39.35,19.5,63.39,49.75,85.1,77.29,12.13,15.39,74.73,112.7,74.73,112.7" style="fill:#455a64;"></path><path d="M257.65,66.76c-.14,.04-.46-.71-.72-1.67-.26-.96-.36-1.77-.22-1.8,.14-.04,.46,.71,.72,1.67,.26,.96,.36,1.77,.22,1.8Z" style="fill:#455a64;"></path><path d="M294.91,59.58c-.14,0-.23-1.88-.19-4.2,.04-2.32,.19-4.19,.33-4.19,.14,0,.23,1.88,.19,4.2-.04,2.32-.19,4.19-.33,4.19Z" style="fill:#455a64;"></path><path d="M335.66,60.15c-.14-.04,.26-1.67,.89-3.62,.63-1.96,1.25-3.51,1.38-3.47,.14,.04-.26,1.67-.89,3.62-.63,1.96-1.25,3.51-1.38,3.47Z" style="fill:#455a64;"></path><path d="M374.05,75.41c-.11-.07,1.01-1.9,2.86-3.77,1.84-1.88,3.64-3.03,3.72-2.92,.09,.12-1.54,1.44-3.35,3.29-1.81,1.83-3.1,3.49-3.23,3.4Z" style="fill:#455a64;"></path><path d="M425.51,100.38c.09,.11-1.53,1.59-3.61,3.3-2.09,1.71-3.85,3.01-3.94,2.9-.09-.11,1.53-1.59,3.61-3.3,2.08-1.71,3.85-3.01,3.94-2.9Z" style="fill:#455a64;"></path><path d="M463.3,142.88c.12,.12-1.48,1.69-3.62,3.42-2.13,1.73-3.95,3.02-4.04,2.91-.09-.11,1.58-1.58,3.71-3.31,2.13-1.72,3.86-3.1,3.95-3.01Z" style="fill:#455a64;"></path><path d="M253.35,66.36s-.31,.16-.91,.44c-.62,.29-1.52,.7-2.69,1.24-1.2,.52-2.63,1.27-4.33,2.13-1.72,.83-3.62,1.93-5.79,3.13-4.28,2.49-9.42,5.71-15.02,9.97-5.59,4.26-11.64,9.55-17.66,16.04-3.04,3.21-5.99,6.8-8.93,10.62-2.89,3.87-5.73,8.02-8.39,12.49-2.66,4.46-5.19,9.26-6.68,14.58-.73,2.66-1.18,5.44-1.16,8.27,.04,2.82,.56,5.69,1.62,8.38,1.07,2.68,2.68,5.23,4.92,7.17,1.12,.96,2.35,1.81,3.73,2.41,.66,.36,1.4,.54,2.09,.81,.73,.17,1.45,.4,2.2,.5,2.99,.47,6.11,.23,9.12-.52,3.02-.73,5.97-1.86,8.83-3.24,2.87-1.36,5.63-3.01,8.43-4.63,2.78-1.66,5.57-3.35,8.38-5.08,5.61-3.44,11.3-6.96,17.25-10.19,5.95-3.22,12.04-6.07,18.34-8.1,6.29-2.04,12.79-3.09,19.2-3.08,3.21,.04,6.38,.5,9.42,1.33,3.03,.84,5.96,2.05,8.52,3.81,2.55,1.74,4.79,3.97,6.29,6.62,1.5,2.65,2.29,5.64,2.34,8.6,.07,2.97-.54,5.89-1.61,8.56-1.07,2.68-2.56,5.13-4.34,7.29-3.56,4.36-8.41,7.22-13.29,9.03-4.92,1.81-9.96,2.63-14.78,3.01-4.84,.38-9.49,.28-13.92,.16-8.85-.3-16.89-.56-23.85,.49-6.96,.98-12.69,3.3-16.85,5.95-4.19,2.64-6.76,5.61-8.26,7.72-.71,1.09-1.24,1.93-1.53,2.53-.31,.59-.49,.89-.49,.89,0,0,.14-.31,.44-.91,.28-.61,.79-1.47,1.49-2.57,1.47-2.14,4.03-5.15,8.23-7.83,4.17-2.69,9.92-5.05,16.92-6.07,6.99-1.08,15.06-.84,23.9-.57,4.43,.11,9.07,.19,13.88-.2,4.8-.39,9.8-1.21,14.66-3.02,4.84-1.8,9.6-4.62,13.09-8.92,1.75-2.12,3.22-4.54,4.26-7.17,1.05-2.62,1.64-5.48,1.57-8.38-.06-2.89-.82-5.8-2.29-8.37-1.46-2.58-3.64-4.75-6.14-6.45-2.51-1.72-5.38-2.91-8.37-3.74-3-.82-6.13-1.27-9.29-1.31-6.34,0-12.8,1.04-19.04,3.06-6.25,2.01-12.32,4.85-18.25,8.06-5.94,3.22-11.62,6.73-17.23,10.17-2.8,1.72-5.6,3.42-8.39,5.08-2.8,1.63-5.57,3.28-8.47,4.65-2.88,1.39-5.86,2.53-8.93,3.27-3.06,.76-6.24,1.01-9.31,.52-.77-.1-1.52-.34-2.27-.51-.72-.29-1.48-.47-2.15-.84-1.41-.62-2.69-1.49-3.84-2.49-2.31-2-3.95-4.62-5.04-7.36-1.09-2.76-1.61-5.68-1.65-8.56-.01-2.89,.45-5.71,1.19-8.4,1.51-5.39,4.07-10.21,6.75-14.68,2.67-4.48,5.53-8.64,8.44-12.51,2.96-3.83,5.93-7.42,8.99-10.63,6.06-6.49,12.13-11.77,17.75-16.02,5.63-4.25,10.8-7.45,15.1-9.91,2.18-1.19,4.09-2.28,5.82-3.09,1.71-.84,3.15-1.58,4.35-2.09,1.19-.52,2.09-.92,2.72-1.2,.61-.27,.93-.39,.93-.39Z" style="fill:#263238;"></path></g><path d="M579.51,91.34s.42,8.71,15.12,13.28l3.43-7.93-18.55-5.35Z" style="fill:#263238;"></path><g><g><path d="M619.33,86.8l-1.17-.07c-11.75-.74-22.1,7.66-23.78,19.31-1.57,10.84-3.16,22.83-3.46,28.68-.61,12.11,11.37,14.76,11.37,14.76l-1.94,14.47,29.43,.95,5.93-52.56c1.88-12.5-3.83-24-16.37-25.53Z" style="fill:#ffbf9d;"></path><path d="M602.28,149.48s7.61,.93,16.07-3.66c0,0-4.47,8.67-16.47,6.81l.41-3.15Z" style="fill:#ff9a6c;"></path><path d="M597,117.77c-.09,.91,.61,1.74,1.56,1.85,.95,.11,1.79-.53,1.88-1.45,.09-.91-.61-1.74-1.55-1.85-.95-.11-1.79,.54-1.88,1.45Z" style="fill:#263238;"></path><path d="M596.61,112.13c.2,.24,1.57-.65,3.43-.52,1.86,.1,3.16,1.14,3.38,.92,.11-.09-.09-.52-.65-.99-.56-.47-1.53-.95-2.69-1.02-1.16-.07-2.16,.3-2.75,.7-.6,.4-.82,.8-.72,.91Z" style="fill:#263238;"></path><path d="M613.64,119.34c-.09,.91,.61,1.74,1.56,1.85,.95,.11,1.79-.53,1.88-1.45,.09-.91-.61-1.74-1.55-1.85-.95-.11-1.79,.54-1.88,1.45Z" style="fill:#263238;"></path><path d="M614.86,113.63c.2,.24,1.57-.65,3.43-.52,1.86,.1,3.16,1.14,3.38,.92,.11-.09-.08-.52-.65-.99-.56-.47-1.53-.95-2.69-1.02-1.16-.07-2.16,.3-2.75,.7-.6,.4-.82,.8-.72,.91Z" style="fill:#263238;"></path><path d="M607.24,126.99c.02-.11-1.13-.38-2.99-.74-.47-.08-.92-.2-.97-.53-.09-.35,.14-.85,.41-1.39,.52-1.12,1.06-2.3,1.63-3.53,2.28-5.02,3.95-9.17,3.75-9.26-.2-.09-2.21,3.91-4.49,8.94-.55,1.24-1.08,2.42-1.57,3.55-.21,.53-.56,1.12-.36,1.85,.11,.36,.44,.64,.74,.74,.3,.11,.57,.13,.8,.16,1.88,.22,3.05,.3,3.06,.2Z" style="fill:#263238;"></path><path d="M613.7,106.37c.22,.49,1.84,.08,3.81,.14,1.97,.02,3.6,.49,3.81,.01,.09-.23-.23-.67-.91-1.1-.68-.42-1.73-.78-2.9-.8-1.18-.02-2.22,.3-2.9,.69-.68,.4-1,.83-.9,1.06Z" style="fill:#263238;"></path><path d="M597,104.45c.37,.45,1.93,.11,3.77,.2,1.85,.04,3.39,.5,3.78,.08,.17-.2-.05-.64-.71-1.09-.65-.44-1.75-.84-3.02-.89-1.27-.05-2.39,.27-3.06,.66-.68,.39-.92,.81-.76,1.03Z" style="fill:#263238;"></path><path d="M595.89,100.57s3.67-7.38,7.44-8.91c4.56-1.86,6.16,3.11,10.45,2.2,4.29-.91,8.64-2.7,12.75,.83,4.49,3.86,2.12,6.23,2.08,11.62-.19,21.84,3.39,28.25,5.17,18.07,.19-1.12,3.37-1.81,4.13-6.53,.99-6.12,1.7-13.57,.6-18.03-.93-3.75-2.86-6.43-6.45-9.47-5.66-4.8-13.82-5.41-19.39-5.2-5.58,.21-16.66,5.91-16.76,15.43Z" style="fill:#263238;"></path><path d="M633.02,123.99c.19-1.86,1.9-3.24,3.75-2.94,2.24,.36,4.67,1.8,4.23,6.45-.79,8.26-8.91,5.76-8.91,5.53,0-.16,.57-5.58,.93-9.03Z" style="fill:#ffbf9d;"></path><path d="M634.18,130.09s.13,.11,.37,.25c.23,.13,.63,.24,1.07,.12,.9-.24,1.77-1.55,1.95-3.04,.09-.75,0-1.48-.21-2.1-.19-.63-.54-1.09-.98-1.21-.43-.14-.76,.09-.89,.31-.13,.22-.1,.39-.14,.4-.02,.02-.16-.16-.06-.49,.05-.16,.17-.35,.37-.49,.21-.14,.51-.2,.82-.13,.63,.1,1.15,.74,1.38,1.42,.27,.68,.38,1.51,.28,2.35-.21,1.66-1.21,3.13-2.44,3.37-.6,.1-1.06-.13-1.29-.34-.24-.23-.26-.42-.23-.43Z" style="fill:#ff9a6c;"></path></g><path d="M606.51,132.89c.07-.31,2.07,.25,3.98-1.07,1.91-1.32,2.28-3.52,2.56-3.46,.13,0,.26,.58,.03,1.49-.22,.89-.86,2.11-2.02,2.92-1.17,.81-2.46,.93-3.3,.77-.86-.16-1.3-.52-1.25-.65Z" style="fill:#263238;"></path></g><g><path d="M531.05,288.28s73.95,26.26,83.93,21.77c9.98-4.49,9.05-22.88,14.4-38.29,5.35-15.41,17.97-48.78,17.76-64.4-.21-15.62-4.28-33.16-4.49-34.66-.21-1.5-33.52-22.69-41.23-21.62s-23.39,25.47-23.39,25.47c0,0-14.76,43.86-20.11,52.64s-14.98,18.24-20.75,32.31c-6.44,15.7-7.61,24.86-6.11,26.79Z" style="fill:#FF725E;"></path><path d="M648.43,140.23c-1.03-.34-6.73-2.39-13.02-1.74-6.29,.65-31.82,8.82-34.42,12.86-2.12,3.28,36.38,30.42,42.89,27.66,6.5-2.77,11.44-6.45,11.44-12.53s4.83-22.35-6.89-26.25Z" style="fill:#FF725E;"></path><g style="opacity:.3;"><path d="M643.5,178.79c1.06,2.46,1.58,5.16,1.51,7.84-.02,.77-.12,1.61-.65,2.17-.57,.59-1.51,.69-2.29,.46-.79-.23-1.46-.74-2.1-1.24-5.1-4-9.73-8.54-14.35-13.07-4.01-3.93-7.26-8.67-10.16-13.28,0,0,7.94,8.33,18.65,13.86,3.22,1.64,6.36,2.79,9.4,3.27Z"></path></g><path d="M643.88,179.01s-.13,.03-.37,.02c-.24,0-.61,.01-1.06-.1-.46-.08-1.01-.19-1.64-.39-.64-.17-1.34-.43-2.11-.72-3.09-1.16-7.17-3.23-11.41-5.93-4.22-2.73-7.76-5.64-10.04-8.03-1.12-1.21-2.01-2.21-2.52-2.98-.54-.75-.82-1.17-.79-1.2,.09-.07,1.24,1.62,3.57,3.92,2.32,2.3,5.87,5.14,10.06,7.85,4.21,2.68,8.24,4.79,11.26,6.02,.76,.31,1.44,.59,2.06,.78,.61,.23,1.15,.36,1.59,.47,.44,.14,.79,.15,1.03,.19,.24,.04,.37,.06,.37,.08Z" style="fill:#263238;"></path><path d="M639.57,157.78s.53,0,1.48,.13c.95,.13,2.31,.38,3.96,.82,1.65,.45,3.59,1.1,5.65,2.06,.51,.24,1.03,.49,1.56,.77,.52,.28,1.14,.65,1.38,1.37,.11,.34,.12,.74-.08,1.1-.2,.36-.59,.56-.94,.62-.72,.12-1.35-.05-2-.11-5.2-.69-9.67-2.5-12.65-4.16-1.5-.83-2.65-1.59-3.42-2.16-.77-.57-1.17-.91-1.15-.94,.02-.03,.47,.26,1.26,.77,.8,.51,1.98,1.22,3.48,2,3,1.55,7.42,3.29,12.55,3.97,.64,.06,1.29,.22,1.83,.12,.55-.07,.8-.56,.63-1.06-.14-.48-.63-.82-1.13-1.09-.51-.27-1.03-.53-1.53-.77-2.02-.96-3.92-1.65-5.54-2.14-1.62-.49-2.96-.79-3.89-.98-.93-.19-1.45-.28-1.44-.33Z" style="fill:#263238;"></path><path d="M577.02,244.53s.08,.02,.23,.08c.17,.08,.38,.17,.64,.28,.6,.28,1.42,.66,2.45,1.13,2.12,1,5.16,2.49,8.87,4.43,3.71,1.93,8.09,4.32,12.87,7.12,2.39,1.4,4.88,2.9,7.44,4.49,.64,.4,1.28,.81,1.93,1.21,.65,.43,1.29,.93,1.78,1.61,.24,.34,.44,.73,.5,1.18,.07,.44-.03,.92-.26,1.3-.23,.4-.62,.69-1.04,.84-.42,.15-.85,.19-1.27,.18-.84-.03-1.64-.24-2.4-.54-.73-.31-1.45-.62-2.17-.92-1.43-.62-2.83-1.24-4.2-1.88-2.74-1.26-5.36-2.53-7.82-3.8-4.93-2.53-9.26-5.02-12.83-7.2-3.57-2.19-6.39-4.07-8.32-5.4-.97-.66-1.7-1.2-2.2-1.56-.23-.17-.41-.31-.56-.42-.13-.1-.19-.15-.18-.16,0,0,.08,.03,.21,.11,.16,.1,.35,.22,.59,.38,.55,.36,1.3,.85,2.25,1.48,1.95,1.28,4.81,3.11,8.39,5.26,3.59,2.14,7.93,4.59,12.86,7.09,2.46,1.26,5.08,2.52,7.81,3.77,1.36,.63,2.77,1.24,4.19,1.86,1.44,.58,2.85,1.39,4.38,1.42,.74,.03,1.52-.17,1.85-.76,.37-.59,.21-1.33-.22-1.91-.86-1.19-2.31-1.86-3.56-2.69-2.55-1.6-5.03-3.1-7.41-4.51-4.76-2.81-9.12-5.23-12.8-7.2-3.69-1.98-6.7-3.51-8.79-4.57-1.01-.51-1.81-.92-2.4-1.22-.25-.13-.45-.24-.62-.33-.14-.08-.21-.12-.2-.13Z" style="fill:#263238;"></path></g><g><path d="M506.03,209.02s-6.61-2.98-10.06-3.72c-3.45-.74-5.53-3.65-7.34-2.9-1.81,.74-1.73,2.08-1.3,2.53,.43,.45-6.99-.37-7.6,2.75-.6,3.13,2.85,3.35,2.85,3.35,0,0-1.9,2.68-.95,4.32,.95,1.64,1.12,2.08,1.12,2.08,0,0-1.73,1.93,.17,3.94l1.9,2.01s-.86,1.41,1.47,2.83c2.33,1.41,20.64,.52,20.64,.52l-.9-17.71Z" style="fill:#ffbf9d;"></path><path d="M505.74,207.68c-.46,.98-.78,20.31-.78,20.31,0,0,17.03,3.07,27.69,2.54,11.78-.58,20.28,.39,20.28,.39,0,0,10.72-.88,17.1-6.03s39.96-28.59,43.16-35.71c3.19-7.12,1.89-30.49-2.39-34.95-4.29-4.46-8.85-3.25-13.41-2.01s-25.3,25.54-28.5,27.01c-3.19,1.47-6.61,2.7-8.43,9.08,0,0-4.56,1.23-6.84,4.91-2.28,3.68-2.74,5.89-2.74,5.89,0,0-5.47-2.21-7.98-.98-2.51,1.23-4.79,3.44-4.79,3.44l-32.38,6.11Z" style="fill:#FF725E;"></path><path d="M560.84,200.02c.07-.02,.47,1.15,1.06,3.05,.3,1,.64,2.13,1.01,3.35,.17,.64,.43,1.26,.52,2.05,.03,.38,0,.85-.3,1.22-.27,.37-.79,.55-1.22,.5-.87-.11-1.53-.61-2.06-1.11-.53-.49-1.03-.98-1.48-1.47-.9-.98-1.62-1.93-2.18-2.77-.56-.83-.95-1.54-1.2-2.04-.25-.5-.36-.79-.33-.81,.07-.04,.66,1.05,1.83,2.64,.59,.79,1.33,1.71,2.23,2.65,.45,.47,.94,.95,1.47,1.42,.5,.47,1.12,.89,1.77,.97,.66,.08,1.06-.5,.97-1.16-.06-.65-.32-1.32-.47-1.95-.33-1.23-.63-2.37-.9-3.38-.5-1.93-.77-3.13-.7-3.15Z" style="fill:#263238;"></path><path d="M574.86,199.14c-.02,.06-.75-.13-1.84-.65-1.09-.52-2.53-1.41-3.89-2.68-1.35-1.27-2.34-2.65-2.93-3.7-.59-1.06-.83-1.77-.77-1.8,.15-.08,1.4,2.66,4.06,5.12,2.63,2.49,5.45,3.56,5.38,3.71Z" style="fill:#263238;"></path><path d="M543.67,217.73s.14,.27-.1,.71c-.22,.43-.86,.89-1.74,.88-.92,.02-1.81-.79-2.27-1.76-.49-.99-.75-2.13-1.05-3.32-.55-2.4-.71-4.63-.69-6.23,.02-1.61,.18-2.59,.24-2.59,.08,0,.05,.99,.13,2.58,.07,1.58,.29,3.77,.82,6.13,.29,1.17,.55,2.31,.97,3.23,.42,.91,1.13,1.58,1.86,1.61,.74,.06,1.32-.29,1.55-.62,.25-.33,.21-.61,.27-.6Z" style="fill:#263238;"></path><path d="M588.8,210.83s-.19,.17-.58,.47l-1.73,1.33c-1.54,1.17-3.78,2.87-6.65,5.05-2.9,2.18-6.43,4.85-10.52,7.93-2.08,1.53-4.63,2.67-7.38,3.6-2.77,.89-5.78,1.57-8.99,1.91h-.04c-6.74-.66-14.25-.68-22.32-.3-4.05,.01-8.24-.28-12.52-.74-4.29-.46-8.67-1.07-13.15-1.84l-.22-.04v-.22c.26-6.52,.51-13.33,.78-20.31v-.21l.21-.04c2.92-.55,6.03-1.14,9.17-1.73,7.96-1.5,15.73-2.97,23.21-4.38l-.13,.07c.9-.84,1.84-1.6,2.84-2.28,.5-.34,1.01-.66,1.54-.95,.51-.3,1.15-.53,1.75-.59,1.23-.13,2.42,.05,3.56,.3,1.15,.26,2.26,.6,3.34,1.02l-.33,.18c.34-1.33,.88-2.51,1.47-3.67,.61-1.15,1.21-2.27,2.02-3.29,.82-1,1.81-1.82,2.88-2.48,1.07-.66,2.19-1.18,3.38-1.54l-.16,.16c.7-2.39,1.8-4.71,3.63-6.35,.9-.83,1.94-1.44,2.99-1.96,.53-.26,1.05-.5,1.58-.74,.27-.12,.51-.24,.73-.38,.22-.16,.45-.32,.66-.51,1.71-1.46,3.25-3.06,4.76-4.58,1.49-1.55,2.95-3.05,4.36-4.51,5.63-5.85,10.51-11.03,14.99-14.85,1.14-.92,2.21-1.86,3.52-2.28,1.26-.34,2.46-.64,3.59-.84,1.13-.2,2.2-.28,3.18-.24,.98,.05,1.85,.25,2.61,.5,1.5,.55,2.48,1.32,3.1,1.85,.6,.56,.88,.88,.88,.88,0,0-.09-.06-.24-.2-.16-.14-.38-.36-.69-.62-.63-.51-1.62-1.25-3.1-1.77-.75-.24-1.61-.42-2.57-.46-.96-.03-2.01,.06-3.13,.27-1.12,.2-2.3,.52-3.56,.87-1.2,.4-2.28,1.34-3.4,2.26-4.43,3.83-9.28,9.04-14.88,14.91-1.41,1.47-2.85,2.98-4.34,4.53-1.51,1.54-3.04,3.14-4.78,4.63-.22,.19-.45,.36-.69,.54-.26,.17-.53,.31-.79,.42-.52,.24-1.05,.48-1.56,.73-1.03,.52-2.03,1.11-2.88,1.9-1.74,1.56-2.81,3.8-3.49,6.15l-.03,.12-.13,.04c-2.23,.71-4.45,1.97-6.01,3.87-.76,.95-1.37,2.09-1.96,3.21-.57,1.13-1.11,2.33-1.42,3.55l-.07,.28-.26-.1c-1.05-.4-2.15-.75-3.26-.99-1.11-.25-2.27-.42-3.39-.29-1.1,.11-2.09,.83-3.07,1.46-.97,.67-1.9,1.42-2.77,2.23l-.06,.05h-.07c-7.49,1.43-15.26,2.9-23.21,4.4-3.14,.59-6.25,1.18-9.17,1.73l.21-.25c-.27,6.98-.53,13.79-.78,20.31l-.21-.26c4.46,.77,8.84,1.39,13.11,1.86,4.27,.47,8.44,.77,12.46,.76,8.06-.36,15.6-.32,22.37,.36h-.04c6.32-.71,12.06-2.44,16.22-5.37,4.11-3.05,7.66-5.68,10.57-7.85,2.9-2.14,5.16-3.82,6.72-4.97,.76-.56,1.35-.98,1.76-1.28,.4-.29,.61-.42,.61-.42Z" style="fill:#263238;"></path><g style="opacity:.3;"><path d="M571.92,223.31c4.81-.62,8.44-4.48,12.6-6.96,5.04-3.01,11.2-4.15,15.58-8.06,4.56-4.07,6.32-7.66,7.87-13.57-10.24,11.63-22.08,19.19-35.08,27.63"></path></g><g style="opacity:.3;"><path d="M563.17,207.79c-1.2-3.49-2.4-6.98-3.99-10.31-.39-.82-.82-1.64-1.46-2.28-.64-.64-1.55-1.08-2.45-.96-.9,.12-3.03,.48-2.7,3.87,1.48,4.25,4.09,8.1,7.49,11.04,.47,.41,.98,.81,1.59,.95,.61,.14,1.34-.06,1.63-.61,.27-.52,.08-1.15-.11-1.7Z"></path></g><g style="opacity:.3;"><path d="M555.85,214.72c-.78-4.68-2.71-9.15-5.58-12.93-.41,4.63,.77,9.71,3.26,13.64,.42,.67,1.21,1.4,1.9,1,.54-.32,.53-1.1,.42-1.72Z"></path></g></g><path d="M595.63,99.03s2.12-2.15,7.1-3.05c9.24-1.66,21.94-1.22,33.98,13.76l1.9,3.73s.79-7.13,.43-10.59c-.24-2.31,0-16.19-16.72-20.48,.98,.25-22.3-4.42-26.69,16.62Z" style="fill:#455a64;"></path><path d="M597.43,92.13c13.5,.01,26.21,3.13,35.11,12.78-6.58-3.61-16.32-5.94-23.82-5.66-7.5,.28-15.19,.92-22.36-1.32-3.23-1.01-6.71-3.21-6.85-6.59l17.93,.79Z" style="fill:#455a64;"></path><path d="M633.93,103.55s-.5-.26-1.34-.81c-.42-.28-.93-.61-1.55-.96-.61-.37-1.3-.79-2.09-1.21-1.55-.89-3.48-1.81-5.64-2.76-2.18-.91-4.62-1.82-7.23-2.61-5.24-1.56-10.14-2.34-13.7-2.68-.89-.11-1.7-.14-2.41-.2-.71-.06-1.32-.09-1.82-.1-1-.04-1.56-.08-1.56-.12,0-.04,.55-.06,1.56-.08,.5-.02,1.12-.02,1.83,.02,.71,.02,1.53,.04,2.43,.12,3.59,.24,8.54,.97,13.82,2.55,2.63,.8,5.09,1.73,7.27,2.67,2.17,.99,4.09,1.95,5.63,2.88,.79,.44,1.47,.89,2.06,1.28,.6,.38,1.11,.74,1.51,1.04,.81,.6,1.24,.94,1.22,.97Z" style="fill:#263238;"></path></g><g><g><path d="M213.61,228.02c-.7-3.75-2.13-7.41-2.04-11.22l-5.87,10.18c3.09,3.18,5.11,7.38,5.68,11.78,2.73-2.66,2.94-6.99,2.24-10.74Z" style="fill:#263238;"></path><path d="M189.32,201.4c-2.23,1.05-4.35,2.33-6.31,3.82-.43,.32-.86,.67-1.09,1.16-.23,.48-.19,1.14,.23,1.47,.33,.27,.8,.26,1.23,.22,1.24-.11,2.45-.43,3.59-.93" style="fill:#263238;"></path><path d="M182.57,213.89c-6.65,1.88-11.29,8.07-12.22,14.54-.93,6.47-.33,15.99,3.75,20.08,1.25-8.02,2.91-10.03,5.66-13.44" style="fill:#263238;"></path><path d="M217.78,184.91s-.2-2-4-1.2-23.66,9.82-31.88,30.27c-8.22,20.45-2.26,33.39,8.45,41.57,13.14,10.03,33.4,6.66,33.4,6.66l-1.91-5.29s-21.26-5.98-17.67-23.19c0,0,.28-4.67,5.69-13.75s10.13-16.02,12.14-22.24c1.69-5.24,1.83-16.36-4.05-6.23-.27,.46,.46-7.07-.17-6.6Z" style="fill:#FF725E;"></path><g style="opacity:.3;"><path d="M210.66,208.1c-3.6,6.98-9.98,11.49-11.63,19.16-1.65,7.68-.61,16.34,4.58,22.23,3.68,4.17,9.03,6.52,14.42,7.86,1.34,.33,2.77,.6,4.11,.42l-.31-.85s-21.26-5.98-17.67-23.19c0,0,.28-4.67,5.69-13.75,5.41-9.08,10.13-16.02,12.14-22.24,1.69-5.24,1.83-16.36-4.05-6.23-.09,.16-.07-.61-.02-1.67l-4.32,7.26c-.87,.66-.06,5.4-2.94,10.99Z"></path></g><path d="M198.65,224.36c-3.99,4.55-8.3,8.82-12.9,12.76,3.29,.55,6.81-.49,9.26-2.76,2.45-2.26,3.93-6.68,3.64-10Z" style="fill:#263238;"></path><path d="M208.19,189.5l-.78,.06c-2.36,.45-3.62,3.7-2.19,5.63,1.43,1.93,4.91,1.65,6.02-.48,1.11-2.13-.65-5.14-3.05-5.21Z" style="fill:#fff;"></path><path d="M208.31,190.48l-.56,.04c-1.69,.32-2.6,2.65-1.57,4.04,1.03,1.38,3.52,1.19,4.32-.34,.8-1.53-.47-3.69-2.19-3.74Z" style="fill:#263238;"></path><path d="M210.72,206.54s-.17,.24-.58,.56c-.41,.32-1.07,.71-1.95,1.03-1.73,.64-4.6,.8-7.09-.79-2.47-1.63-3.49-4.32-3.6-6.16-.07-.94,.02-1.7,.14-2.2,.12-.51,.24-.77,.27-.76,.11,.02-.28,1.13-.05,2.92,.2,1.75,1.23,4.25,3.52,5.76,2.31,1.48,5.01,1.4,6.69,.88,1.73-.51,2.59-1.32,2.65-1.23Z" style="fill:#263238;"></path><path d="M209.02,209.79s-.17,.24-.58,.56c-.41,.32-1.07,.71-1.95,1.03-1.73,.64-4.6,.8-7.09-.79-2.47-1.63-3.49-4.32-3.6-6.16-.07-.94,.02-1.7,.14-2.2,.12-.51,.24-.77,.27-.76,.11,.02-.28,1.13-.05,2.92,.2,1.75,1.23,4.25,3.52,5.76,2.31,1.48,5.01,1.4,6.69,.88,1.73-.51,2.59-1.32,2.65-1.23Z" style="fill:#263238;"></path><path d="M203.67,214.94s-.12,.19-.43,.45c-.31,.25-.81,.56-1.49,.81-1.33,.5-3.55,.64-5.47-.6-1.91-1.26-2.69-3.34-2.77-4.76-.05-.72,.03-1.31,.13-1.69,.1-.39,.2-.59,.23-.58,.1,.02-.18,.87,0,2.23,.17,1.33,.95,3.22,2.68,4.36,1.75,1.12,3.79,1.07,5.08,.68,1.32-.38,1.98-.98,2.04-.9Z" style="fill:#263238;"></path><path d="M213.16,197.76s-.75-7.39-.26-10.39c.49-3,3.03-3.75,3.89-3.61,1.17,.2,1.5,2.25,1.5,2.25,0,0,.03,3.25-.35,5.49l-4.79,6.26Z" style="fill:#263238;"></path><path d="M209.55,262.53c5.89-1.44,10.58-6.09,13.45-11.43,2.87-5.34,4.16-11.36,5.35-17.3,2.64,1.77,4.22,4.81,4.89,7.92,.68,3.11,1.11,7.36,.98,10.54,5.91-1.81,11.61-3.53,17.77-3.03-.66,2.29-2.21,4.22-3.96,5.82-4.18,3.81-9.63,6.03-15.18,7.07s-11.26,.99-16.91,.74" style="fill:#263238;"></path><g><path d="M218.03,257.35c-5.4-1.34-10.74-3.69-14.42-7.86-5.19-5.89-6.23-14.55-4.58-22.23,1.65-7.68,5.62-14.62,9.54-21.42,1.68-2.91,3.36-5.82,5.03-8.73l4.32-7.26c.09-2.06,.27-5.24-.15-4.93,0,0-.12-1.16-1.86-1.36-16.68,6.33-29.71,21.54-33.34,39.02-1.34,6.43-1.44,13.27,.9,19.4,2.83,7.4,8.83,12.95,15.04,18,12.01,4.44,25.23,2.24,25.23,2.24l-1.61-4.44c-1.34,.18-2.78-.09-4.11-.42Z" style="fill:none;"></path><g style="opacity:.3;"><path d="M183.48,241.97c-2.34-6.13-2.24-12.98-.9-19.4,3.63-17.48,16.67-32.68,33.34-39.02-.54-.06-1.24-.03-2.14,.16-3.81,.8-23.66,9.82-31.88,30.27-8.22,20.45-2.26,33.39,8.45,41.57,2.52,1.93,5.31,3.36,8.17,4.42-6.21-5.04-12.21-10.6-15.04-18Z" style="fill:#fff;"></path></g></g></g><g style="opacity:.3;"><path d="M202.24,222.97c-.39-1.54-1.04-3.34-2.59-3.69-1.24-.28-2.43,.55-3.44,1.33-1.43,1.12-2.87,2.24-4.3,3.35-.78,.61-1.66,1.25-2.65,1.18-1.28-.09-2.16-1.32-2.65-2.51-1.06-2.54-1.24-5.43-.5-8.08-1.53,3.72-1.82,7.74-1.5,9.76,.32,2.02,1.77,4.19,3.81,4.1,1.55-.07,2.7-1.39,3.78-2.51,1.56-1.62,3.35-3.02,5.29-4.14,.44-.25,.97-.5,1.44-.3,.57,.24,.71,.96,1,1.5,.73,1.34,2.63,1.63,4.03,1.04,1.4-.59,2.42-1.81,3.38-2.99-1.43,1.17-3.25,1.87-5.1,1.95Z" style="fill:#fff;"></path></g><g style="opacity:.3;"><path d="M186.16,231.36c-.04-.15-.09-.26-.21-.37-.11-.11-.14,.14-.29,.21-.47,.61-.81,1.33-.98,2.08-.05,.22-.07,.48,.1,.62,.23,.19,.58,0,.77-.23,.55-.64,.85-1.5,.6-2.31Z" style="fill:#fff;"></path></g><g style="opacity:.3;"><path d="M203.11,242.68c-.07,.7-.73,1.23-1.42,1.35s-1.4-.11-2.03-.41c-.84-.41-1.86-.96-2.6-.4-.58,.43-.59,1.28-.72,1.99-.32,1.7-1.77,3.13-3.48,3.43-1.71,.3-3.55-.56-4.43-2.05h0c.52,2.24,3.04,4.41,5.06,4.56,1.41,.11,2.72-.9,3.4-2.14,.68-1.24,.86-2.68,1.03-4.09,1.12,.33,2.31,.66,3.44,.37,1.13-.3,2.12-1.48,1.75-2.59Z" style="fill:#fff;"></path></g><path d="M185.26,260.14c-.97,8.66-.17,9.67,1.69,11.98,1.16,1.44,2.3,1.33,2.93,1.43,.84,.13,1.61-.62,1.81-1.45,.2-.83-.02-1.69-.24-2.51,2.11,1.12,4.35,2.26,6.74,2.21,2.39-.05,4.93-1.76,5-4.15-2.59,1.1-5.58,1.25-8.27,.41-2.69-.84-5.06-2.66-6.57-5.04-.25,1.43-.49,2.85-.74,4.28-1.25-2.2-2.05-4.65-2.35-7.16" style="fill:#e0e0e0;"></path></g></g></g></svg>
