<svg xmlns="http://www.w3.org/2000/svg" viewBox="0 0 500 500"><g id="background-complete"><rect y="382.4" width="500" height="0.25" style="fill:#ebebeb"></rect><rect x="416.78" y="398.49" width="33.12" height="0.25" style="fill:#ebebeb"></rect><rect x="322.53" y="401.21" width="8.69" height="0.25" style="fill:#ebebeb"></rect><rect x="396.59" y="389.21" width="19.19" height="0.25" style="fill:#ebebeb"></rect><rect x="52.46" y="390.89" width="43.19" height="0.25" style="fill:#ebebeb"></rect><rect x="104.56" y="390.89" width="6.33" height="0.25" style="fill:#ebebeb"></rect><rect x="131.47" y="395.11" width="93.68" height="0.25" style="fill:#ebebeb"></rect><path d="M237,337.8H43.91a5.71,5.71,0,0,1-5.7-5.71V60.66A5.71,5.71,0,0,1,43.91,55H237a5.71,5.71,0,0,1,5.71,5.71V332.09A5.71,5.71,0,0,1,237,337.8ZM43.91,55.2a5.46,5.46,0,0,0-5.45,5.46V332.09a5.46,5.46,0,0,0,5.45,5.46H237a5.47,5.47,0,0,0,5.46-5.46V60.66A5.47,5.47,0,0,0,237,55.2Z" style="fill:#ebebeb"></path><path d="M453.31,337.8H260.21a5.72,5.72,0,0,1-5.71-5.71V60.66A5.72,5.72,0,0,1,260.21,55h193.1A5.71,5.71,0,0,1,459,60.66V332.09A5.71,5.71,0,0,1,453.31,337.8ZM260.21,55.2a5.47,5.47,0,0,0-5.46,5.46V332.09a5.47,5.47,0,0,0,5.46,5.46h193.1a5.47,5.47,0,0,0,5.46-5.46V60.66a5.47,5.47,0,0,0-5.46-5.46Z" style="fill:#ebebeb"></path><circle cx="227.72" cy="174.76" r="27.79" transform="translate(-49.54 100.45) rotate(-22.5)" style="fill:#f5f5f5"></circle><path d="M339.92,305.6a47.54,47.54,0,0,0-18.13,3.58,47.61,47.61,0,0,0-90,17.8,49.07,49.07,0,0,0-5.72-.35,47.62,47.62,0,1,0,29.37,85.08,47.62,47.62,0,0,0,78.7-11.24,48.12,48.12,0,0,0,5.79.37,47.62,47.62,0,0,0,0-95.24Z" style="fill:#e6e6e6"></path><path d="M131.47,295.1a29.84,29.84,0,0,0-5.94.59,30.21,30.21,0,0,0-57.47,12.36,19,19,0,0,0-5-.67,19.24,19.24,0,0,0-2.56,38.31,30.21,30.21,0,0,0,58.24,7,30.21,30.21,0,1,0,12.7-57.62Z" style="fill:#e6e6e6"></path><path d="M251.63,187a10.22,10.22,0,0,0-2.09.21,10.63,10.63,0,0,0-20.23,4.35,6.77,6.77,0,1,0-2.65,13.25,10.63,10.63,0,0,0,20.5,2.48A10.64,10.64,0,1,0,251.63,187Z" style="fill:#e6e6e6"></path><path d="M429.2,398.56a16.8,16.8,0,0,0-2.47.2,39.91,39.91,0,0,0,.58-6.69,39.51,39.51,0,0,0-74.81-17.75c-.62-.05-1.25-.08-1.89-.08a27.16,27.16,0,0,0-27.06,24.94,16.16,16.16,0,0,0-4.42-.62,16.51,16.51,0,0,0-16.51,16.51H233.83a13.91,13.91,0,0,0-11.5-21.72c-.54,0-1.06,0-1.58.09a29.15,29.15,0,0,0-42.64-19.55,44.55,44.55,0,0,0-88-3.3A29.15,29.15,0,0,0,65.4,399,16.51,16.51,0,0,0,69,431.58H429.2a16.51,16.51,0,0,0,0-33Z" style="fill:#f0f0f0"></path><path d="M127.84,209.9a12.21,12.21,0,0,0-12-14.46,12.55,12.55,0,0,0-2.76.32,19.23,19.23,0,0,0-34.31-.82,19.45,19.45,0,0,0-2.3-.15A19.25,19.25,0,1,0,87.23,230a19.24,19.24,0,0,0,34-2.55,9.39,9.39,0,1,0,6.57-17.53Z" style="fill:#f0f0f0"></path><path d="M128.78,106.9a5.8,5.8,0,0,0,.1-1,5.7,5.7,0,0,0-5.71-5.7,5.4,5.4,0,0,0-1.28.15,9,9,0,0,0-16-.39,9.3,9.3,0,0,0-1.07-.07,9,9,0,1,0,5,16.39,9,9,0,0,0,15.85-1.19,4.37,4.37,0,1,0,3.06-8.16Z" style="fill:#f0f0f0"></path><path d="M430.35,215.37a5.67,5.67,0,0,0-5.61-6.73,6,6,0,0,0-1.28.15,9,9,0,0,0-16-.38,9.45,9.45,0,0,0-1.07-.07,9,9,0,1,0,5,16.38,9,9,0,0,0,15.85-1.18,4.44,4.44,0,0,0,1.82.4,4.37,4.37,0,0,0,1.24-8.57Z" style="fill:#e6e6e6"></path><path d="M347.53,105.93a5.62,5.62,0,0,1-.11-1.1,6.12,6.12,0,0,1,6.11-6.11,6.21,6.21,0,0,1,1.38.16A9.6,9.6,0,0,1,372,98.47a10.92,10.92,0,0,1,1.15-.07A9.6,9.6,0,1,1,367.78,116a9.59,9.59,0,0,1-17-1.27,4.76,4.76,0,0,1-2,.43,4.69,4.69,0,0,1-1.32-9.18Z" style="fill:#f0f0f0"></path><path d="M319.63,344.6a12.2,12.2,0,0,0-12-14.45,12,12,0,0,0-2.76.32,19.22,19.22,0,0,0-34.31-.82,19.24,19.24,0,1,0,8.51,35,19.22,19.22,0,0,0,34-2.55,9.39,9.39,0,1,0,6.57-17.53Z" style="fill:#f0f0f0"></path><path d="M362.51,304.19a12.21,12.21,0,0,1,12-14.46,12,12,0,0,1,2.76.33,19.23,19.23,0,0,1,34.31-.83,19.24,19.24,0,1,1-8.51,35,19.23,19.23,0,0,1-34-2.55,9.39,9.39,0,1,1-6.57-17.53Z" style="fill:#f0f0f0"></path></g><g id="background-simple"><path d="M90.55,131.64c27.92-59.44,127.06-51.06,165.31-9.25s50.7,68.6,85.21,53,78.52-11.44,81,38.17S384.2,321.8,320,339.15s-64.17,78.76-149.1,66.37c-46.31-6.76-47.37-56.86-40.83-98.3S58.17,200.59,90.55,131.64Z" style="fill:#407BFF"></path><path d="M90.55,131.64c27.92-59.44,127.06-51.06,165.31-9.25s50.7,68.6,85.21,53,78.52-11.44,81,38.17S384.2,321.8,320,339.15s-64.17,78.76-149.1,66.37c-46.31-6.76-47.37-56.86-40.83-98.3S58.17,200.59,90.55,131.64Z" style="fill:#fff;opacity:0.9"></path></g><g id="Clouds"><path d="M104.54,130.83a5.07,5.07,0,0,0,5.07,5.07,5,5,0,0,0,1.46-.22,10.05,10.05,0,0,0-.12,1.56,10.76,10.76,0,0,0,12.72,10.55,9.37,9.37,0,0,0,15.69.51,5.79,5.79,0,0,0,2.29.47,5.45,5.45,0,0,0,1.63-.24,12.65,12.65,0,0,0-.12,1.75,12.08,12.08,0,0,0,12.08,12.09,11.63,11.63,0,0,0,2.23-.21,10.56,10.56,0,0,0,19.59-5.34h.18a9.74,9.74,0,0,0,9.29-6.82,8.56,8.56,0,0,0,14.39-6.16h.14a7.9,7.9,0,0,0,0-15.8H188.78A15.74,15.74,0,0,0,173.13,114a15.41,15.41,0,0,0-2.9.27,13.75,13.75,0,0,0-23.73.4,10.83,10.83,0,0,0-19.39,6.49h-.18a10,10,0,0,0-8.43,4.65h-9A5.07,5.07,0,0,0,104.54,130.83Z" style="fill:#407BFF"></path><path d="M104.54,130.83a5.07,5.07,0,0,0,5.07,5.07,5,5,0,0,0,1.46-.22,10.05,10.05,0,0,0-.12,1.56,10.76,10.76,0,0,0,12.72,10.55,9.37,9.37,0,0,0,15.69.51,5.79,5.79,0,0,0,2.29.47,5.45,5.45,0,0,0,1.63-.24,12.65,12.65,0,0,0-.12,1.75,12.08,12.08,0,0,0,12.08,12.09,11.63,11.63,0,0,0,2.23-.21,10.56,10.56,0,0,0,19.59-5.34h.18a9.74,9.74,0,0,0,9.29-6.82,8.56,8.56,0,0,0,14.39-6.16h.14a7.9,7.9,0,0,0,0-15.8H188.78A15.74,15.74,0,0,0,173.13,114a15.41,15.41,0,0,0-2.9.27,13.75,13.75,0,0,0-23.73.4,10.83,10.83,0,0,0-19.39,6.49h-.18a10,10,0,0,0-8.43,4.65h-9A5.07,5.07,0,0,0,104.54,130.83Z" style="fill:#fff;opacity:0.7000000000000001"></path><path d="M403.71,151.42a5.29,5.29,0,0,1-5.29,5.29,5.42,5.42,0,0,1-1.52-.22,10.87,10.87,0,0,1,.12,1.63,11.21,11.21,0,0,1-11.2,11.2,11.72,11.72,0,0,1-2.07-.19,9.79,9.79,0,0,1-18.15-4.95h-.17a9,9,0,0,1-4.91-1.45,6.34,6.34,0,0,1-3.24.88,6.56,6.56,0,0,1-1.18-.11,5.6,5.6,0,0,1-10.39-2.83h-.09a5.14,5.14,0,0,1-5.14-4.75h-2.76a3,3,0,0,1,.08-6,3.1,3.1,0,0,1,.87.13,7,7,0,0,1-.07-.93,6.41,6.41,0,0,1,7.59-6.3,5.62,5.62,0,0,1,7.44-2,11.2,11.2,0,0,1,10.75-8,11.69,11.69,0,0,1,2.06.19,9.8,9.8,0,0,1,18.16,4.95h.16a9,9,0,0,1,9,8.31h4.82A5.29,5.29,0,0,1,403.71,151.42Z" style="fill:#407BFF"></path><path d="M403.71,151.42a5.29,5.29,0,0,1-5.29,5.29,5.42,5.42,0,0,1-1.52-.22,10.87,10.87,0,0,1,.12,1.63,11.21,11.21,0,0,1-11.2,11.2,11.72,11.72,0,0,1-2.07-.19,9.79,9.79,0,0,1-18.15-4.95h-.17a9,9,0,0,1-4.91-1.45,6.34,6.34,0,0,1-3.24.88,6.56,6.56,0,0,1-1.18-.11,5.6,5.6,0,0,1-10.39-2.83h-.09a5.14,5.14,0,0,1-5.14-4.75h-2.76a3,3,0,0,1,.08-6,3.1,3.1,0,0,1,.87.13,7,7,0,0,1-.07-.93,6.41,6.41,0,0,1,7.59-6.3,5.62,5.62,0,0,1,7.44-2,11.2,11.2,0,0,1,10.75-8,11.69,11.69,0,0,1,2.06.19,9.8,9.8,0,0,1,18.16,4.95h.16a9,9,0,0,1,9,8.31h4.82A5.29,5.29,0,0,1,403.71,151.42Z" style="fill:#fff;opacity:0.7000000000000001"></path><path d="M379.45,306.75a5,5,0,0,1-5,5,4.94,4.94,0,0,1-1.45-.21,11.31,11.31,0,0,1,.11,1.55,10.69,10.69,0,0,1-12.64,10.49,9.32,9.32,0,0,1-17.29-4.72H343a8.49,8.49,0,0,1-4.67-1.39,6.12,6.12,0,0,1-3.09.85,6,6,0,0,1-1.13-.11,5.33,5.33,0,0,1-9.89-2.7h-.09a4.91,4.91,0,0,1-4.9-4.54h-2.63a2.88,2.88,0,0,1,.08-5.76,2.82,2.82,0,0,1,.83.12,6.54,6.54,0,0,1-.07-.89,6.11,6.11,0,0,1,6.11-6.1,5.91,5.91,0,0,1,1.12.1,5.36,5.36,0,0,1,7.09-1.93,10.68,10.68,0,0,1,12.2-7.49,9.33,9.33,0,0,1,17.3,4.72h.15a8.59,8.59,0,0,1,8.56,7.92h4.6A5,5,0,0,1,379.45,306.75Z" style="fill:#407BFF"></path><path d="M379.45,306.75a5,5,0,0,1-5,5,4.94,4.94,0,0,1-1.45-.21,11.31,11.31,0,0,1,.11,1.55,10.69,10.69,0,0,1-12.64,10.49,9.32,9.32,0,0,1-17.29-4.72H343a8.49,8.49,0,0,1-4.67-1.39,6.12,6.12,0,0,1-3.09.85,6,6,0,0,1-1.13-.11,5.33,5.33,0,0,1-9.89-2.7h-.09a4.91,4.91,0,0,1-4.9-4.54h-2.63a2.88,2.88,0,0,1,.08-5.76,2.82,2.82,0,0,1,.83.12,6.54,6.54,0,0,1-.07-.89,6.11,6.11,0,0,1,6.11-6.1,5.91,5.91,0,0,1,1.12.1,5.36,5.36,0,0,1,7.09-1.93,10.68,10.68,0,0,1,12.2-7.49,9.33,9.33,0,0,1,17.3,4.72h.15a8.59,8.59,0,0,1,8.56,7.92h4.6A5,5,0,0,1,379.45,306.75Z" style="fill:#fff;opacity:0.7000000000000001"></path><path d="M292.35,340.47a6.46,6.46,0,0,0-6.46-6.46,6.28,6.28,0,0,0-1.85.28,14.45,14.45,0,0,0,.14-2,13.68,13.68,0,0,0-13.68-13.68,14,14,0,0,0-2.52.24,11.94,11.94,0,0,0-20-.65,7.23,7.23,0,0,0-5-.3,14.91,14.91,0,0,0,.17-2.23,15.42,15.42,0,0,0-18.24-15.14,13.47,13.47,0,0,0-25,6.81h-.22A12.41,12.41,0,0,0,187.88,316a10.91,10.91,0,0,0-18.34,7.85h-.18a10.07,10.07,0,1,0,0,20.13H185A20,20,0,0,0,205,362a19.48,19.48,0,0,0,3.69-.35,17.52,17.52,0,0,0,30.25-.51,13.79,13.79,0,0,0,24.7-8.27l.23,0a12.68,12.68,0,0,0,10.74-5.93h11.51A6.44,6.44,0,0,0,292.35,340.47Z" style="fill:#407BFF"></path><path d="M292.35,340.47a6.46,6.46,0,0,0-6.46-6.46,6.28,6.28,0,0,0-1.85.28,14.45,14.45,0,0,0,.14-2,13.68,13.68,0,0,0-13.68-13.68,14,14,0,0,0-2.52.24,11.94,11.94,0,0,0-20-.65,7.23,7.23,0,0,0-5-.3,14.91,14.91,0,0,0,.17-2.23,15.42,15.42,0,0,0-18.24-15.14,13.47,13.47,0,0,0-25,6.81h-.22A12.41,12.41,0,0,0,187.88,316a10.91,10.91,0,0,0-18.34,7.85h-.18a10.07,10.07,0,1,0,0,20.13H185A20,20,0,0,0,205,362a19.48,19.48,0,0,0,3.69-.35,17.52,17.52,0,0,0,30.25-.51,13.79,13.79,0,0,0,24.7-8.27l.23,0a12.68,12.68,0,0,0,10.74-5.93h11.51A6.44,6.44,0,0,0,292.35,340.47Z" style="fill:#fff;opacity:0.7000000000000001"></path><path d="M60.13,171.75a6.46,6.46,0,0,1,6.46-6.46,6.27,6.27,0,0,1,1.85.27,14.42,14.42,0,0,1-.14-2A13.68,13.68,0,0,1,82,149.89a14,14,0,0,1,2.52.24,11.94,11.94,0,0,1,20-.64,7.26,7.26,0,0,1,2.91-.61,7.54,7.54,0,0,1,2.09.3,14.81,14.81,0,0,1-.17-2.23,15.42,15.42,0,0,1,18.24-15.14,13.47,13.47,0,0,1,25,6.81h.22a12.41,12.41,0,0,1,11.84,8.69,10.91,10.91,0,0,1,18.34,7.85h.18a10.07,10.07,0,0,1,0,20.14H167.47a20,20,0,0,1-19.94,18,20.34,20.34,0,0,1-3.69-.34,17.52,17.52,0,0,1-30.25-.52,13.79,13.79,0,0,1-24.7-8.26h-.23a12.69,12.69,0,0,1-10.74-5.92H66.41A6.46,6.46,0,0,1,60.13,171.75Z" style="fill:#407BFF"></path><path d="M60.13,171.75a6.46,6.46,0,0,1,6.46-6.46,6.27,6.27,0,0,1,1.85.27,14.42,14.42,0,0,1-.14-2A13.68,13.68,0,0,1,82,149.89a14,14,0,0,1,2.52.24,11.94,11.94,0,0,1,20-.64,7.26,7.26,0,0,1,2.91-.61,7.54,7.54,0,0,1,2.09.3,14.81,14.81,0,0,1-.17-2.23,15.42,15.42,0,0,1,18.24-15.14,13.47,13.47,0,0,1,25,6.81h.22a12.41,12.41,0,0,1,11.84,8.69,10.91,10.91,0,0,1,18.34,7.85h.18a10.07,10.07,0,0,1,0,20.14H167.47a20,20,0,0,1-19.94,18,20.34,20.34,0,0,1-3.69-.34,17.52,17.52,0,0,1-30.25-.52,13.79,13.79,0,0,1-24.7-8.26h-.23a12.69,12.69,0,0,1-10.74-5.92H66.41A6.46,6.46,0,0,1,60.13,171.75Z" style="fill:#fff;opacity:0.8"></path><path d="M127.89,350.58a4.43,4.43,0,0,1,4.43-4.43,4.5,4.5,0,0,1,1.28.19,8.84,8.84,0,0,1-.1-1.37,9.39,9.39,0,0,1,9.39-9.39,9.85,9.85,0,0,1,1.73.16,8.2,8.2,0,0,1,11.95-2.28,10.81,10.81,0,0,1,19.61-2.55,12.24,12.24,0,0,1,2.28-.21,12.38,12.38,0,0,1,12.38,12.38,11.69,11.69,0,0,1-.13,1.79,5.85,5.85,0,1,1,1.84,11.44h-5.32a10,10,0,0,1-9.94,9.19h-.18A10.82,10.82,0,0,1,157.05,371a12.38,12.38,0,0,1-14.25-9.05,7.57,7.57,0,0,1-6.56-6.9h-4A4.43,4.43,0,0,1,127.89,350.58Z" style="fill:#407BFF"></path><path d="M127.89,350.58a4.43,4.43,0,0,1,4.43-4.43,4.5,4.5,0,0,1,1.28.19,8.84,8.84,0,0,1-.1-1.37,9.39,9.39,0,0,1,9.39-9.39,9.85,9.85,0,0,1,1.73.16,8.2,8.2,0,0,1,11.95-2.28,10.81,10.81,0,0,1,19.61-2.55,12.24,12.24,0,0,1,2.28-.21,12.38,12.38,0,0,1,12.38,12.38,11.69,11.69,0,0,1-.13,1.79,5.85,5.85,0,1,1,1.84,11.44h-5.32a10,10,0,0,1-9.94,9.19h-.18A10.82,10.82,0,0,1,157.05,371a12.38,12.38,0,0,1-14.25-9.05,7.57,7.57,0,0,1-6.56-6.9h-4A4.43,4.43,0,0,1,127.89,350.58Z" style="fill:#fff;opacity:0.8"></path><path d="M321.76,269.08h6.95a13,13,0,0,1,13-12h.23A14.13,14.13,0,0,1,368.1,250a16.16,16.16,0,0,1,19,18.22,6.72,6.72,0,0,1,1-.22,9.32,9.32,0,0,1,17.06-2.74,10.65,10.65,0,0,1,12.65,10.49,11.2,11.2,0,0,1-.11,1.55,4.87,4.87,0,0,1,1.44-.21,5,5,0,0,1,.15,10.08h-4.6a8.6,8.6,0,0,1-8.57,7.93h-.16a9.33,9.33,0,0,1-17.3,4.71,10.63,10.63,0,0,1-12-6.78,12.89,12.89,0,0,1-7.1,2.12h-.24a14.12,14.12,0,0,1-26.18,7.14A16.15,16.15,0,0,1,324,286.35a15.08,15.08,0,0,1,.18-2.34,7.63,7.63,0,1,1-2.41-14.93Z" style="fill:#407BFF"></path><path d="M321.76,269.08h6.95a13,13,0,0,1,13-12h.23A14.13,14.13,0,0,1,368.1,250a16.16,16.16,0,0,1,19,18.22,6.72,6.72,0,0,1,1-.22,9.32,9.32,0,0,1,17.06-2.74,10.65,10.65,0,0,1,12.65,10.49,11.2,11.2,0,0,1-.11,1.55,4.87,4.87,0,0,1,1.44-.21,5,5,0,0,1,.15,10.08h-4.6a8.6,8.6,0,0,1-8.57,7.93h-.16a9.33,9.33,0,0,1-17.3,4.71,10.63,10.63,0,0,1-12-6.78,12.89,12.89,0,0,1-7.1,2.12h-.24a14.12,14.12,0,0,1-26.18,7.14A16.15,16.15,0,0,1,324,286.35a15.08,15.08,0,0,1,.18-2.34,7.63,7.63,0,1,1-2.41-14.93Z" style="fill:#fff;opacity:0.8"></path><path d="M242.85,116.28a5.06,5.06,0,0,1,5.06-5.06,4.94,4.94,0,0,1,1.45.21,11.31,11.31,0,0,1-.11-1.55,10.73,10.73,0,0,1,12.69-10.54,9.35,9.35,0,0,1,13.64-2.6A12.33,12.33,0,0,1,298,93.83a13.89,13.89,0,0,1,2.6-.25,14.13,14.13,0,0,1,14.13,14.13,13.84,13.84,0,0,1-.15,2.05,6.75,6.75,0,0,1,1.92-.28,6.67,6.67,0,0,1,.18,13.33h-6.08a11.37,11.37,0,0,1-11.33,10.49H299a12.35,12.35,0,0,1-22.9,6.24,13.89,13.89,0,0,1-2.6.25,14.12,14.12,0,0,1-13.66-10.57,8.64,8.64,0,0,1-7.48-7.88h-4.61A5.06,5.06,0,0,1,242.85,116.28Z" style="fill:#407BFF"></path><path d="M242.85,116.28a5.06,5.06,0,0,1,5.06-5.06,4.94,4.94,0,0,1,1.45.21,11.31,11.31,0,0,1-.11-1.55,10.73,10.73,0,0,1,12.69-10.54,9.35,9.35,0,0,1,13.64-2.6A12.33,12.33,0,0,1,298,93.83a13.89,13.89,0,0,1,2.6-.25,14.13,14.13,0,0,1,14.13,14.13,13.84,13.84,0,0,1-.15,2.05,6.75,6.75,0,0,1,1.92-.28,6.67,6.67,0,0,1,.18,13.33h-6.08a11.37,11.37,0,0,1-11.33,10.49H299a12.35,12.35,0,0,1-22.9,6.24,13.89,13.89,0,0,1-2.6.25,14.12,14.12,0,0,1-13.66-10.57,8.64,8.64,0,0,1-7.48-7.88h-4.61A5.06,5.06,0,0,1,242.85,116.28Z" style="fill:#fff;opacity:0.8"></path><path d="M113.21,252.13a4.4,4.4,0,0,1-5.68,4.23,10,10,0,0,1,.1,1.36,9.36,9.36,0,0,1-9.36,9.35,9.74,9.74,0,0,1-1.72-.16,8.17,8.17,0,0,1-15.16-4.13h-.14a7.56,7.56,0,0,1-4.1-1.21,5.2,5.2,0,0,1-3.69.64,4.67,4.67,0,0,1-8.67-2.36h-.08a4.32,4.32,0,0,1-4.3-4h-2.3a2.53,2.53,0,1,1,.8-4.95,4.93,4.93,0,0,1-.06-.78,5.36,5.36,0,0,1,6.34-5.26,4.68,4.68,0,0,1,4-2.24,4.74,4.74,0,0,1,2.22.55,9.35,9.35,0,0,1,9-6.72,9.74,9.74,0,0,1,1.72.16,8.17,8.17,0,0,1,15.16,4.13h.14a7.54,7.54,0,0,1,7.51,6.94h4A4.41,4.41,0,0,1,113.21,252.13Z" style="fill:#407BFF"></path><path d="M113.21,252.13a4.4,4.4,0,0,1-5.68,4.23,10,10,0,0,1,.1,1.36,9.36,9.36,0,0,1-9.36,9.35,9.74,9.74,0,0,1-1.72-.16,8.17,8.17,0,0,1-15.16-4.13h-.14a7.56,7.56,0,0,1-4.1-1.21,5.2,5.2,0,0,1-3.69.64,4.67,4.67,0,0,1-8.67-2.36h-.08a4.32,4.32,0,0,1-4.3-4h-2.3a2.53,2.53,0,1,1,.8-4.95,4.93,4.93,0,0,1-.06-.78,5.36,5.36,0,0,1,6.34-5.26,4.68,4.68,0,0,1,4-2.24,4.74,4.74,0,0,1,2.22.55,9.35,9.35,0,0,1,9-6.72,9.74,9.74,0,0,1,1.72.16,8.17,8.17,0,0,1,15.16,4.13h.14a7.54,7.54,0,0,1,7.51,6.94h4A4.41,4.41,0,0,1,113.21,252.13Z" style="fill:#fff;opacity:0.8"></path></g><g id="Feathers"><path d="M406.7,166.12a14,14,0,0,1-3.72-.22,13.62,13.62,0,0,0,3.66-.28c.4-.08.8-.19,1.2-.29a36.2,36.2,0,0,0,4.2-7.13,13.33,13.33,0,0,1-3.23,1,13.68,13.68,0,0,0,3.31-1.6l.24-.17.12-.27a18.1,18.1,0,0,1-2.12.92,9.33,9.33,0,0,1-2.63.58,9,9,0,0,0,2.29-1.24,18.49,18.49,0,0,0,2-1.67c.54-.51,1-1.06,1.53-1.61,1.46-5.7-1.25-9.17-1.25-9.17-.24,0-.47-.07-.71-.09-.27,1.22-.58,2.43-1,3.62a24.11,24.11,0,0,1-2.37,5.22,23.9,23.9,0,0,0,1.89-5.36c.17-.72.31-1.45.44-2.18a18.44,18.44,0,0,1-2,4.24,17.89,17.89,0,0,0,1.54-4.52c.08-.35.14-.7.19-1-4.33.16-5.94,3.62-8.38,8.08,0,.44-.09.89-.11,1.34a32.06,32.06,0,0,0,.18,6.27,32.2,32.2,0,0,1-.68-6.28,1.92,1.92,0,0,1,0-.24l-.53.92a27.8,27.8,0,0,0,.24,4.27,26.54,26.54,0,0,1-.54-3.77,35.75,35.75,0,0,1-3,4.22c0,.67,0,1.35,0,2a24.94,24.94,0,0,0,.63,4.68,25.34,25.34,0,0,1-1.13-4.64c-.06-.44-.11-.88-.16-1.32-.19.22-.4.45-.61.67a6,6,0,0,0-1.12,1.65c0,.39,0,.77,0,1.16a24.91,24.91,0,0,0,.38,4.7,25,25,0,0,1-1-3,12.75,12.75,0,0,0,1.19,5.38c4.46,1.45,8.48-1.21,11.6-5Z" style="fill:#407BFF"></path><path d="M391.05,174.18a40.77,40.77,0,0,0,6-4.65,54.92,54.92,0,0,0,5.23-5.55,55.62,55.62,0,0,0,4.43-6.22A63.52,63.52,0,0,0,410.3,151a62.77,62.77,0,0,1-3.4,6.88,56.12,56.12,0,0,1-4.26,6.41,53.78,53.78,0,0,1-5.1,5.78,40.92,40.92,0,0,1-6,5,.49.49,0,0,1-.69-.14.5.5,0,0,1,.14-.69h0Z" style="fill:#407BFF"></path><path d="M391.05,174.18a40.77,40.77,0,0,0,6-4.65,54.92,54.92,0,0,0,5.23-5.55,55.62,55.62,0,0,0,4.43-6.22A63.52,63.52,0,0,0,410.3,151a62.77,62.77,0,0,1-3.4,6.88,56.12,56.12,0,0,1-4.26,6.41,53.78,53.78,0,0,1-5.1,5.78,40.92,40.92,0,0,1-6,5,.49.49,0,0,1-.69-.14.5.5,0,0,1,.14-.69h0Z" style="opacity:0.30000000000000004"></path><path d="M414.24,267.85c-1.1.16-2.21.28-3.32.33a19.26,19.26,0,0,1-5.08-.42,19,19,0,0,0,5.05-.08c.65-.09,1.31-.21,2-.34a14.45,14.45,0,0,1-4.15-.4,14,14,0,0,0,4.24-.1c.32-.06.63-.12.94-.2-1.46-4-4.85-4.31-9.32-5.07-.38.12-.77.23-1.15.36a27,27,0,0,0-5.18,2.34,27.34,27.34,0,0,1,5-2.81l.2-.09-.92-.17a22.48,22.48,0,0,0-3.49,1.7,22.76,22.76,0,0,1,3-1.81,27.67,27.67,0,0,1-4.44-1.34c-.57.21-1.14.44-1.7.7a21.7,21.7,0,0,0-3.72,2.21A22.21,22.21,0,0,1,395.7,260q.51-.31,1.05-.6l-.74-.35a5.23,5.23,0,0,0-1.73-.48c-.33.11-.65.24-1,.36a20.59,20.59,0,0,0-3.8,2,21,21,0,0,1,2.16-1.95,11.43,11.43,0,0,0-4.12,3c.16,4.69,3.61,7.53,7.72,9.16-.07-.17-.15-.33-.22-.5a15.2,15.2,0,0,1-1-3.57,14.79,14.79,0,0,0,1.35,3.34c.2.35.41.68.61,1a28.69,28.69,0,0,0,7.25,1.48,13.06,13.06,0,0,1-1.84-2.67,12.44,12.44,0,0,0,2.35,2.55l.21.17h.27a16.23,16.23,0,0,1-1.43-1.66,10.07,10.07,0,0,1-1.29-2.28,8.33,8.33,0,0,0,1.74,1.72,15.74,15.74,0,0,0,2,1.28c.59.32,1.2.61,1.81.88a9.7,9.7,0,0,0,7.28-4.34Q414.31,268.18,414.24,267.85Z" style="fill:#407BFF"></path><path d="M383.51,258.7a35.91,35.91,0,0,0,5.71,4,45.9,45.9,0,0,0,12.79,5,49.86,49.86,0,0,0,6.75,1.06A48.75,48.75,0,0,1,402,268a47,47,0,0,1-6.65-1.78,45.81,45.81,0,0,1-6.4-2.8,35.69,35.69,0,0,1-6-3.89.55.55,0,0,1-.1-.7.42.42,0,0,1,.62-.11h0Z" style="fill:#407BFF"></path><path d="M383.51,258.7a35.91,35.91,0,0,0,5.71,4,45.9,45.9,0,0,0,12.79,5,49.86,49.86,0,0,0,6.75,1.06A48.75,48.75,0,0,1,402,268a47,47,0,0,1-6.65-1.78,45.81,45.81,0,0,1-6.4-2.8,35.69,35.69,0,0,1-6-3.89.55.55,0,0,1-.1-.7.42.42,0,0,1,.62-.11h0Z" style="opacity:0.30000000000000004"></path><path d="M291.7,361.3c-.83.75-1.67,1.47-2.56,2.13a19.15,19.15,0,0,1-4.45,2.51,19,19,0,0,0,4.14-2.9c.49-.44,1-.91,1.43-1.38a14.32,14.32,0,0,1-3.66,2,14.16,14.16,0,0,0,3.46-2.47c.23-.22.45-.45.67-.69-3.47-2.49-6.44-.85-10.57,1-.25.32-.51.62-.75,1a27.06,27.06,0,0,0-3,4.84,27.86,27.86,0,0,1,2.58-5.15l.12-.18-.86.37a24.36,24.36,0,0,0-1.94,3.37,23.9,23.9,0,0,1,1.45-3.17,28.4,28.4,0,0,1-4.42,1.38c-.35.5-.7,1-1,1.54a21.2,21.2,0,0,0-1.84,3.91,22.41,22.41,0,0,1,1.43-4.18c.16-.37.34-.73.53-1.09l-.81.13a5.24,5.24,0,0,0-1.7.57c-.21.28-.41.56-.6.85a20.46,20.46,0,0,0-2,3.78,22.93,22.93,0,0,1,.7-2.83,11.49,11.49,0,0,0-1.75,4.78c2.77,3.79,7.23,4.21,11.54,3.25l-.46-.29a15,15,0,0,1-2.81-2.42,14.71,14.71,0,0,0,3,2c.36.18.72.34,1.08.5a28.94,28.94,0,0,0,6.83-2.84,13.5,13.5,0,0,1-3-1.18,13.19,13.19,0,0,0,3.38.8h.27l.23-.13a17.35,17.35,0,0,1-2.11-.58,10.28,10.28,0,0,1-2.35-1.16,8.54,8.54,0,0,0,2.41.45,15.57,15.57,0,0,0,2.37-.07c.67-.06,1.34-.17,2-.29a9.67,9.67,0,0,0,3.59-7.67C292,361.61,291.87,361.45,291.7,361.3Z" style="fill:#407BFF"></path><path d="M261.13,371a35.28,35.28,0,0,0,7,.1,45.77,45.77,0,0,0,13.4-3,50.44,50.44,0,0,0,6.18-2.91,51.38,51.38,0,0,1-6.08,3.14,47.25,47.25,0,0,1-6.51,2.26,46.09,46.09,0,0,1-6.86,1.27,35.27,35.27,0,0,1-7.13.13.54.54,0,0,1-.47-.52.41.41,0,0,1,.45-.44h.05Z" style="fill:#407BFF"></path><path d="M261.13,371a35.28,35.28,0,0,0,7,.1,45.77,45.77,0,0,0,13.4-3,50.44,50.44,0,0,0,6.18-2.91,51.38,51.38,0,0,1-6.08,3.14,47.25,47.25,0,0,1-6.51,2.26,46.09,46.09,0,0,1-6.86,1.27,35.27,35.27,0,0,1-7.13.13.54.54,0,0,1-.47-.52.41.41,0,0,1,.45-.44h.05Z" style="opacity:0.30000000000000004"></path><path d="M332.41,318.32c.49-.55,1-1.08,1.52-1.57a12.68,12.68,0,0,1,2.73-1.92,12.62,12.62,0,0,0-2.5,2.16c-.29.32-.57.66-.84,1a9.12,9.12,0,0,1,2.25-1.55,9.16,9.16,0,0,0-2.08,1.84c-.14.16-.27.32-.4.49,2.43,1.4,4.25.13,6.81-1.37.15-.22.29-.44.43-.66a18.17,18.17,0,0,0,1.62-3.35,18,18,0,0,1-1.35,3.52l-.06.12.54-.29a14.62,14.62,0,0,0,1-2.32,14.83,14.83,0,0,1-.73,2.16,18,18,0,0,1,2.79-1.2c.2-.34.39-.7.56-1.06a14.29,14.29,0,0,0,.93-2.67,14.16,14.16,0,0,1-.65,2.81c-.08.25-.18.5-.27.75l.51-.14a3.4,3.4,0,0,0,1.07-.49c.12-.19.23-.39.34-.59a14.13,14.13,0,0,0,1.08-2.59,14.93,14.93,0,0,1-.27,1.88,7.42,7.42,0,0,0,.82-3.22c-2.05-2.29-5-2.27-7.72-1.36l.31.16a10.15,10.15,0,0,1,2,1.39,9.77,9.77,0,0,0-2.09-1.11l-.73-.25a18.74,18.74,0,0,0-4.26,2.3,8.23,8.23,0,0,1,2,.57,8.34,8.34,0,0,0-2.25-.3h-.18l-.14.1a11.54,11.54,0,0,1,1.41.24,6.5,6.5,0,0,1,1.61.6,5.47,5.47,0,0,0-1.6-.13,9.83,9.83,0,0,0-1.54.2,11.4,11.4,0,0,0-1.28.32A6.35,6.35,0,0,0,332,318Z" style="fill:#407BFF"></path><path d="M332.41,318.32c.49-.55,1-1.08,1.52-1.57a12.68,12.68,0,0,1,2.73-1.92,12.62,12.62,0,0,0-2.5,2.16c-.29.32-.57.66-.84,1a9.12,9.12,0,0,1,2.25-1.55,9.16,9.16,0,0,0-2.08,1.84c-.14.16-.27.32-.4.49,2.43,1.4,4.25.13,6.81-1.37.15-.22.29-.44.43-.66a18.17,18.17,0,0,0,1.62-3.35,18,18,0,0,1-1.35,3.52l-.06.12.54-.29a14.62,14.62,0,0,0,1-2.32,14.83,14.83,0,0,1-.73,2.16,18,18,0,0,1,2.79-1.2c.2-.34.39-.7.56-1.06a14.29,14.29,0,0,0,.93-2.67,14.16,14.16,0,0,1-.65,2.81c-.08.25-.18.5-.27.75l.51-.14a3.4,3.4,0,0,0,1.07-.49c.12-.19.23-.39.34-.59a14.13,14.13,0,0,0,1.08-2.59,14.93,14.93,0,0,1-.27,1.88,7.42,7.42,0,0,0,.82-3.22c-2.05-2.29-5-2.27-7.72-1.36l.31.16a10.15,10.15,0,0,1,2,1.39,9.77,9.77,0,0,0-2.09-1.11l-.73-.25a18.74,18.74,0,0,0-4.26,2.3,8.23,8.23,0,0,1,2,.57,8.34,8.34,0,0,0-2.25-.3h-.18l-.14.1a11.54,11.54,0,0,1,1.41.24,6.5,6.5,0,0,1,1.61.6,5.47,5.47,0,0,0-1.6-.13,9.83,9.83,0,0,0-1.54.2,11.4,11.4,0,0,0-1.28.32A6.35,6.35,0,0,0,332,318Z" style="fill:#fff;opacity:0.5"></path><path d="M351.67,310a23.09,23.09,0,0,0-4.54.4,29.7,29.7,0,0,0-4.39,1.11,30.63,30.63,0,0,0-4.13,1.75,32.57,32.57,0,0,0-3.84,2.31,31.76,31.76,0,0,1,3.75-2.45,30.37,30.37,0,0,1,4.09-1.9,31.06,31.06,0,0,1,4.38-1.29,23.55,23.55,0,0,1,4.64-.55.35.35,0,0,1,.34.31.27.27,0,0,1-.27.31h0Z" style="fill:#407BFF"></path><path d="M190.42,341.88a20.35,20.35,0,0,0,1.73-1.33,12.5,12.5,0,0,0,2.22-2.49,12.91,12.91,0,0,1-2.43,2.24c-.35.25-.72.48-1.09.71a9.24,9.24,0,0,0,1.8-2.05,9.39,9.39,0,0,1-2.07,1.86,5.84,5.84,0,0,1-.53.33c-1.11-2.56.36-4.23,2.14-6.61l.71-.35a18.21,18.21,0,0,1,3.51-1.22,18.79,18.79,0,0,0-3.65.93l-.13.06.35-.51a15.57,15.57,0,0,1,2.43-.76,15.26,15.26,0,0,0-2.23.48,17.62,17.62,0,0,0,1.5-2.63,11,11,0,0,1,1.13-.43,13.86,13.86,0,0,1,2.76-.63,14.43,14.43,0,0,0-2.87.33l-.78.18c.07-.16.14-.32.2-.49a3.34,3.34,0,0,1,.6-1l.63-.27a14.2,14.2,0,0,1,2.7-.77,13.4,13.4,0,0,0-1.9.05,7.64,7.64,0,0,1,3.3-.45c2,2.31,1.67,5.21.46,7.83,0-.11-.08-.22-.13-.33a9.52,9.52,0,0,0-1.15-2.13,9.13,9.13,0,0,1,.86,2.2c.07.25.12.5.18.76a19.1,19.1,0,0,1-2.78,4,8.43,8.43,0,0,0-.33-2.1,8.65,8.65,0,0,1,0,2.27l0,.18-.12.13a11.57,11.57,0,0,0-.07-1.44,6.43,6.43,0,0,0-.42-1.66,5.33,5.33,0,0,1-.05,1.6,10.74,10.74,0,0,1-.37,1.51c-.14.42-.3.83-.47,1.23a6.34,6.34,0,0,1-5.4,1.22Z" style="fill:#407BFF"></path><path d="M190.42,341.88a20.35,20.35,0,0,0,1.73-1.33,12.5,12.5,0,0,0,2.22-2.49,12.91,12.91,0,0,1-2.43,2.24c-.35.25-.72.48-1.09.71a9.24,9.24,0,0,0,1.8-2.05,9.39,9.39,0,0,1-2.07,1.86,5.84,5.84,0,0,1-.53.33c-1.11-2.56.36-4.23,2.14-6.61l.71-.35a18.21,18.21,0,0,1,3.51-1.22,18.79,18.79,0,0,0-3.65.93l-.13.06.35-.51a15.57,15.57,0,0,1,2.43-.76,15.26,15.26,0,0,0-2.23.48,17.62,17.62,0,0,0,1.5-2.63,11,11,0,0,1,1.13-.43,13.86,13.86,0,0,1,2.76-.63,14.43,14.43,0,0,0-2.87.33l-.78.18c.07-.16.14-.32.2-.49a3.34,3.34,0,0,1,.6-1l.63-.27a14.2,14.2,0,0,1,2.7-.77,13.4,13.4,0,0,0-1.9.05,7.64,7.64,0,0,1,3.3-.45c2,2.31,1.67,5.21.46,7.83,0-.11-.08-.22-.13-.33a9.52,9.52,0,0,0-1.15-2.13,9.13,9.13,0,0,1,.86,2.2c.07.25.12.5.18.76a19.1,19.1,0,0,1-2.78,4,8.43,8.43,0,0,0-.33-2.1,8.65,8.65,0,0,1,0,2.27l0,.18-.12.13a11.57,11.57,0,0,0-.07-1.44,6.43,6.43,0,0,0-.42-1.66,5.33,5.33,0,0,1-.05,1.6,10.74,10.74,0,0,1-.37,1.51c-.14.42-.3.83-.47,1.23a6.34,6.34,0,0,1-5.4,1.22Z" style="fill:#fff;opacity:0.30000000000000004"></path><path d="M200.9,323.7a23.48,23.48,0,0,1-.91,4.47,30,30,0,0,1-1.62,4.23,28.88,28.88,0,0,1-2.21,3.91,33.26,33.26,0,0,1-2.72,3.54,33.56,33.56,0,0,0,2.85-3.44,28.55,28.55,0,0,0,2.36-3.85,29.4,29.4,0,0,0,1.78-4.2,23.31,23.31,0,0,0,1.08-4.54.36.36,0,0,0-.26-.38.28.28,0,0,0-.35.23h0Z" style="fill:#407BFF"></path><path d="M80.81,253.39c.73,0,1.45,0,2.18,0a12.66,12.66,0,0,0,3.28-.61,12.15,12.15,0,0,1-3.29.28c-.43,0-.87-.05-1.3-.09a9.81,9.81,0,0,0,2.68-.53,9.31,9.31,0,0,1-2.78.21l-.62-.07c.69-2.7,2.87-3.13,5.73-3.92l.78.16A18.08,18.08,0,0,1,91,250a18,18,0,0,0-3.47-1.49l-.13,0,.59-.18a14.81,14.81,0,0,1,2.38.88,14.44,14.44,0,0,0-2.06-1,17.91,17.91,0,0,0,2.8-1.16,11.89,11.89,0,0,1,1.16.35,13.48,13.48,0,0,1,2.56,1.19,14.15,14.15,0,0,0-2.47-1.5c-.23-.12-.48-.22-.72-.33.15-.08.31-.17.46-.27a3.27,3.27,0,0,1,1.09-.42c.22.05.44.1.66.17a13.15,13.15,0,0,1,2.61,1,14.15,14.15,0,0,0-1.54-1.13,7.6,7.6,0,0,1,2.89,1.67c.2,3.06-1.86,5.14-4.43,6.47a3.38,3.38,0,0,0,.11-.34,10,10,0,0,0,.39-2.39,9.13,9.13,0,0,1-.66,2.27c-.1.24-.22.47-.33.71A19.15,19.15,0,0,1,88.27,256a8.69,8.69,0,0,0,1-1.87,8.56,8.56,0,0,1-1.36,1.82l-.13.12-.17,0a11.22,11.22,0,0,0,.82-1.18,6.4,6.4,0,0,0,.69-1.56,5.57,5.57,0,0,1-1,1.23,10.09,10.09,0,0,1-1.22,1,13.07,13.07,0,0,1-1.12.7,6.34,6.34,0,0,1-5-2.35C80.77,253.69,80.79,253.54,80.81,253.39Z" style="fill:#407BFF"></path><path d="M80.81,253.39c.73,0,1.45,0,2.18,0a12.66,12.66,0,0,0,3.28-.61,12.15,12.15,0,0,1-3.29.28c-.43,0-.87-.05-1.3-.09a9.81,9.81,0,0,0,2.68-.53,9.31,9.31,0,0,1-2.78.21l-.62-.07c.69-2.7,2.87-3.13,5.73-3.92l.78.16A18.08,18.08,0,0,1,91,250a18,18,0,0,0-3.47-1.49l-.13,0,.59-.18a14.81,14.81,0,0,1,2.38.88,14.44,14.44,0,0,0-2.06-1,17.91,17.91,0,0,0,2.8-1.16,11.89,11.89,0,0,1,1.16.35,13.48,13.48,0,0,1,2.56,1.19,14.15,14.15,0,0,0-2.47-1.5c-.23-.12-.48-.22-.72-.33.15-.08.31-.17.46-.27a3.27,3.27,0,0,1,1.09-.42c.22.05.44.1.66.17a13.15,13.15,0,0,1,2.61,1,14.15,14.15,0,0,0-1.54-1.13,7.6,7.6,0,0,1,2.89,1.67c.2,3.06-1.86,5.14-4.43,6.47a3.38,3.38,0,0,0,.11-.34,10,10,0,0,0,.39-2.39,9.13,9.13,0,0,1-.66,2.27c-.1.24-.22.47-.33.71A19.15,19.15,0,0,1,88.27,256a8.69,8.69,0,0,0,1-1.87,8.56,8.56,0,0,1-1.36,1.82l-.13.12-.17,0a11.22,11.22,0,0,0,.82-1.18,6.4,6.4,0,0,0,.69-1.56,5.57,5.57,0,0,1-1,1.23,10.09,10.09,0,0,1-1.22,1,13.07,13.07,0,0,1-1.12.7,6.34,6.34,0,0,1-5-2.35C80.77,253.69,80.79,253.54,80.81,253.39Z" style="fill:#fff;opacity:0.5"></path><path d="M100.22,245.41a23.36,23.36,0,0,1-3.46,3,30,30,0,0,1-3.86,2.36,30.5,30.5,0,0,1-4.14,1.74,31,31,0,0,1-4.33,1.13,32.79,32.79,0,0,0,4.37-1,31.24,31.24,0,0,0,4.22-1.6,29.52,29.52,0,0,0,4-2.24,23.3,23.3,0,0,0,3.63-2.93.35.35,0,0,0,0-.46.27.27,0,0,0-.41,0h0Z" style="fill:#407BFF"></path><path d="M423.85,225a20,20,0,0,0-1.78-1.28,12.44,12.44,0,0,0-3-1.42,12.33,12.33,0,0,1,2.84,1.69c.34.27.68.55,1,.84a9.26,9.26,0,0,0-2.48-1.13,9.39,9.39,0,0,1,2.37,1.44l.47.42c-2.14,1.8-4.16.86-6.94-.17l-.54-.58a17.82,17.82,0,0,1-2.17-3,18.12,18.12,0,0,0,1.93,3.24l.09.11-.58-.2a16.16,16.16,0,0,1-1.43-2.1,16.13,16.13,0,0,0,1.1,2,17.27,17.27,0,0,0-2.95-.69c-.26-.31-.5-.63-.74-1a14.12,14.12,0,0,1-1.38-2.47,14.56,14.56,0,0,0,1.13,2.66,7.76,7.76,0,0,0,.4.69l-.54,0a3.36,3.36,0,0,1-1.13-.29c-.15-.17-.3-.34-.44-.52a14,14,0,0,1-1.51-2.37,16.62,16.62,0,0,0,.59,1.81,7.61,7.61,0,0,1-1.36-3c1.62-2.6,4.51-3.09,7.37-2.67l-.29.21a10.64,10.64,0,0,0-1.71,1.71,9.52,9.52,0,0,1,1.86-1.45l.68-.38a19.18,19.18,0,0,1,4.59,1.53,8.46,8.46,0,0,0-1.92.92,8,8,0,0,1,2.17-.68l.18,0,.15.08a9.89,9.89,0,0,0-1.35.48,6.32,6.32,0,0,0-1.48.87,5.54,5.54,0,0,1,1.56-.41,10,10,0,0,1,1.55-.07c.44,0,.88.05,1.31.09a6.35,6.35,0,0,1,2.71,4.84Z" style="fill:#407BFF"></path><path d="M423.85,225a20,20,0,0,0-1.78-1.28,12.44,12.44,0,0,0-3-1.42,12.33,12.33,0,0,1,2.84,1.69c.34.27.68.55,1,.84a9.26,9.26,0,0,0-2.48-1.13,9.39,9.39,0,0,1,2.37,1.44l.47.42c-2.14,1.8-4.16.86-6.94-.17l-.54-.58a17.82,17.82,0,0,1-2.17-3,18.12,18.12,0,0,0,1.93,3.24l.09.11-.58-.2a16.16,16.16,0,0,1-1.43-2.1,16.13,16.13,0,0,0,1.1,2,17.27,17.27,0,0,0-2.95-.69c-.26-.31-.5-.63-.74-1a14.12,14.12,0,0,1-1.38-2.47,14.56,14.56,0,0,0,1.13,2.66,7.76,7.76,0,0,0,.4.69l-.54,0a3.36,3.36,0,0,1-1.13-.29c-.15-.17-.3-.34-.44-.52a14,14,0,0,1-1.51-2.37,16.62,16.62,0,0,0,.59,1.81,7.61,7.61,0,0,1-1.36-3c1.62-2.6,4.51-3.09,7.37-2.67l-.29.21a10.64,10.64,0,0,0-1.71,1.71,9.52,9.52,0,0,1,1.86-1.45l.68-.38a19.18,19.18,0,0,1,4.59,1.53,8.46,8.46,0,0,0-1.92.92,8,8,0,0,1,2.17-.68l.18,0,.15.08a9.89,9.89,0,0,0-1.35.48,6.32,6.32,0,0,0-1.48.87,5.54,5.54,0,0,1,1.56-.41,10,10,0,0,1,1.55-.07c.44,0,.88.05,1.31.09a6.35,6.35,0,0,1,2.71,4.84Z" style="fill:#fff;opacity:0.30000000000000004"></path><path d="M403.43,220.11a23.12,23.12,0,0,1,4.55-.4,28.27,28.27,0,0,1,4.51.34,29.57,29.57,0,0,1,4.38,1,32.93,32.93,0,0,1,4.17,1.61,31.89,31.89,0,0,0-4.12-1.76,30.29,30.29,0,0,0-4.35-1.17,29.89,29.89,0,0,0-4.54-.5,23.67,23.67,0,0,0-4.66.25.35.35,0,0,0-.28.37.27.27,0,0,0,.31.26h0Z" style="fill:#407BFF"></path><path d="M100.67,292.9a26.13,26.13,0,0,1,2.78.66,16.3,16.3,0,0,1,4,1.75,16.14,16.14,0,0,0-4.1-1.34q-.84-.17-1.68-.27a12.32,12.32,0,0,1,3.24,1.47,12.12,12.12,0,0,0-3.46-1.09c-.27-.05-.54-.08-.81-.11.07,3.65,2.72,4.84,6.12,6.69l1,0a23.34,23.34,0,0,0,4.84-.46,23.77,23.77,0,0,1-4.85.88h-.18l.69.4a20.67,20.67,0,0,0,3.3-.41,19.65,19.65,0,0,1-2.91.64,24.86,24.86,0,0,1,3.21,2.31c.52,0,1.05,0,1.57-.09a18.28,18.28,0,0,0,3.61-.76,18.28,18.28,0,0,1-3.58,1.17c-.34.08-.68.14-1,.2l.51.48a4.14,4.14,0,0,0,1.26.87c.29,0,.59,0,.89,0a17.51,17.51,0,0,0,3.62-.54,20.16,20.16,0,0,1-2.29,1,9.75,9.75,0,0,0,4.16-1.26c1.18-3.83-.82-7.1-3.69-9.55,0,.16,0,.31,0,.46a12.88,12.88,0,0,1-.22,3.16,12.62,12.62,0,0,0-.16-3.08c-.06-.33-.14-.66-.21-1a24.67,24.67,0,0,0-5.44-3.21,12,12,0,0,1,.74,2.67,11.45,11.45,0,0,0-1.19-2.72c0-.06-.09-.12-.13-.19l-.21-.09a13.69,13.69,0,0,1,.69,1.74,8.3,8.3,0,0,1,.41,2.2,7.11,7.11,0,0,0-.93-1.87,12.94,12.94,0,0,0-1.26-1.59c-.39-.43-.8-.83-1.22-1.21a8.26,8.26,0,0,0-7.08,1.48C100.72,292.51,100.69,292.71,100.67,292.9Z" style="fill:#407BFF"></path><path d="M123,308.83a30.71,30.71,0,0,0-3.5-4.82,40.21,40.21,0,0,0-4.21-4.15,38.64,38.64,0,0,0-4.74-3.44,41.75,41.75,0,0,0-5.16-2.73,42.39,42.39,0,0,1,5.26,2.54,39.71,39.71,0,0,1,4.88,3.29,37.92,37.92,0,0,1,4.39,4,30.34,30.34,0,0,1,3.75,4.81.47.47,0,0,1-.12.59.35.35,0,0,1-.53-.09h0Z" style="fill:#407BFF"></path><path d="M123,308.83a30.71,30.71,0,0,0-3.5-4.82,40.21,40.21,0,0,0-4.21-4.15,38.64,38.64,0,0,0-4.74-3.44,41.75,41.75,0,0,0-5.16-2.73,42.39,42.39,0,0,1,5.26,2.54,39.71,39.71,0,0,1,4.88,3.29,37.92,37.92,0,0,1,4.39,4,30.34,30.34,0,0,1,3.75,4.81.47.47,0,0,1-.12.59.35.35,0,0,1-.53-.09h0Z" style="opacity:0.30000000000000004"></path><path d="M73.26,182.44a32.62,32.62,0,0,0,2.47,2.24,19.47,19.47,0,0,0,4.34,2.68,19,19,0,0,1-4-3.06c-.47-.47-.93-1-1.37-1.44A14.44,14.44,0,0,0,78.26,185a14.24,14.24,0,0,1-3.35-2.61c-.22-.23-.44-.47-.65-.71,3.57-2.36,6.47-.6,10.52,1.45.23.32.48.64.71,1a27,27,0,0,1,2.78,5,28,28,0,0,0-2.38-5.25,1.74,1.74,0,0,0-.11-.18l.85.4a23.4,23.4,0,0,1,1.8,3.44,25.28,25.28,0,0,0-1.32-3.22,28.42,28.42,0,0,0,4.36,1.55c.33.51.66,1,1,1.58a22.31,22.31,0,0,1,1.68,4,22.14,22.14,0,0,0-1.26-4.23c-.15-.37-.31-.74-.49-1.11l.81.17a4.91,4.91,0,0,1,1.67.63c.2.29.39.58.57.88a20.85,20.85,0,0,1,1.89,3.85,25.28,25.28,0,0,0-.59-2.85,11.5,11.5,0,0,1,1.55,4.84c-2.92,3.68-7.38,3.92-11.65,2.79l.47-.27a15.69,15.69,0,0,0,2.9-2.3,14.87,14.87,0,0,1-3.08,1.88l-1.1.46a28.93,28.93,0,0,1-6.7-3.11,13.54,13.54,0,0,0,3.06-1.06,13.11,13.11,0,0,1-3.4.66h-.27l-.23-.14a16.17,16.17,0,0,0,2.14-.5,9.63,9.63,0,0,0,2.39-1.06,8.55,8.55,0,0,1-2.43.35,15.51,15.51,0,0,1-2.36-.16c-.67-.09-1.33-.22-2-.37a9.71,9.71,0,0,1-3.28-7.81C72.91,182.74,73.09,182.59,73.26,182.44Z" style="fill:#407BFF"></path><path d="M103.42,193.34a36.09,36.09,0,0,1-7-.18,44.24,44.24,0,0,1-6.79-1.3,45.06,45.06,0,0,1-6.47-2.27,50.48,50.48,0,0,1-6.06-3.16,51.09,51.09,0,0,0,5.94,3.38,46.3,46.3,0,0,0,13.22,4.07,35.69,35.69,0,0,0,7.12.41.54.54,0,0,0,.49-.5.42.42,0,0,0-.44-.46h0Z" style="fill:#407BFF"></path><path d="M103.42,193.34a36.09,36.09,0,0,1-7-.18,44.24,44.24,0,0,1-6.79-1.3,45.06,45.06,0,0,1-6.47-2.27,50.48,50.48,0,0,1-6.06-3.16,51.09,51.09,0,0,0,5.94,3.38,46.3,46.3,0,0,0,13.22,4.07,35.69,35.69,0,0,0,7.12.41.54.54,0,0,0,.49-.5.42.42,0,0,0-.44-.46h0Z" style="opacity:0.30000000000000004"></path></g><g id="Bird"><path d="M234,284.55c-3.22,4.76-6.73,3.94-9.16,2.28a12.17,12.17,0,0,1-3.28-3.28A9.39,9.39,0,0,1,213,289a7.87,7.87,0,0,1-7.86-6.09s-1.72,7.48-10.57,5.95c-8.58-1.6-7.36-5.61-7.28-5.85-1.73,1.34-10.66,1.31-16.31-3.07s-2.55-8.79-2.57-8.78c-11.25,1.09-16.05-4.65-18.76-8.51s1.6-7.61,1.59-7.61C139,252.66,133,244.35,133.51,240.5c.48-3.7,3.6-2.78,3.89-2.71-7.9-3-17.46-13.49-15.61-17.55,1.69-3.8,8.81.37,9.43.7C112.94,210.2,111.86,201.13,113,197s15.08,5.14,15.4,5.14c-19.18-16.85-16.41-27.42-14.14-29.19s16.21,11.91,16.35,11.68c-18-20.08-7.65-37.34-5.14-29.73,2.68,7.27,11,16.7,11.15,16.7-13.33-23.08.91-31.81,1.23-23.55-.4,8.69,20,42.35,20.88,41.74-1,.52,27.69,36.8,51.25,49.35a57.86,57.86,0,0,1,6.53,4.65c1,.84,2,1.7,3,2.59a57,57,0,0,1,8.51,10C235.35,267.36,237.32,278.86,234,284.55Z" style="fill:#407BFF"></path><path d="M171.21,202c-.7.44-20.2-28.52-22.73-37.87-3.44-9.21-6.18,14.48,8.26,29.61-.08.17-13.41-11-17.75-16.71-4.54-5.7-.19,13.74,15.44,24.24-.05.27-17.53-9.57-19.83-12.29-2.33-2.91-2.83,10.34,23.06,24.2,0,.5-24.63-11.14-24.27-6.76.26,4.92,14.59,14.64,30,17.79.06.27-19.67-2.75-20.54,1.66-.71,5.18,27,8.81,26.84,8.31.11.21-19.23,1.88-17.31,6.47,2.16,5.11,25.18,4.15,25,3.86.1.11-16,6.15-13.64,11,2.46,5,15.18,3.59,23.51-4.37,0,0-10.35,10.7-5,16.65s14.84-8.28,14.84-8.25-5.41,12.65.69,16.32c6,3.51,8.68-14.46,8.84-14.38-.24-.07,1.46,18.29,8.25,17.45,6.41-.95,5.05-12.16,5.15-12.13-.34-.15,1,20,16.45,12,13.48-8.2-18.53-35.77-32-46.16C188.88,223.18,170.89,202.14,171.21,202Z" style="fill:#407BFF"></path><path d="M171.21,202c-.7.44-20.2-28.52-22.73-37.87-3.44-9.21-6.18,14.48,8.26,29.61-.08.17-13.41-11-17.75-16.71-4.54-5.7-.19,13.74,15.44,24.24-.05.27-17.53-9.57-19.83-12.29-2.33-2.91-2.83,10.34,23.06,24.2,0,.5-24.63-11.14-24.27-6.76.26,4.92,14.59,14.64,30,17.79.06.27-19.67-2.75-20.54,1.66-.71,5.18,27,8.81,26.84,8.31.11.21-19.23,1.88-17.31,6.47,2.16,5.11,25.18,4.15,25,3.86.1.11-16,6.15-13.64,11,2.46,5,15.18,3.59,23.51-4.37,0,0-10.35,10.7-5,16.65s14.84-8.28,14.84-8.25-5.41,12.65.69,16.32c6,3.51,8.68-14.46,8.84-14.38-.24-.07,1.46,18.29,8.25,17.45,6.41-.95,5.05-12.16,5.15-12.13-.34-.15,1,20,16.45,12,13.48-8.2-18.53-35.77-32-46.16C188.88,223.18,170.89,202.14,171.21,202Z" style="fill:#fff;opacity:0.2"></path><path d="M225.89,241.22c-.07,0-10.14-7.74-19.19-12.82-9.64-4.51-31.68-24.51-38.49-33.55-7.22-8.79-5.28,5.81,5.76,12.94a53.92,53.92,0,0,1-8.82-4c-4.12-2.63-3.07,5.14,11.63,12,0,0-8.13-2.72-10.21-1.62-2.13,1.42,16.43,8.65,16.45,8.37,0,.13-12.49-3.14-12.2.36.37,3.82,16.65,5.54,16.59,5.36,0,.11-12.5-.43-11.48,3.55,1.17,4.24,17.07,2.19,17,2,.05.06-10.14,2.76-9,6.3s13.09-2,13-2.07-5.94,5.34-3.68,8.9,10.26-3.45,10.23-3.46-5.25,5.1-1.47,10.42,6.65-8.21,6.72-8.17-2.56,11.2,4.2,14.84c6.59,3.48,3.26-10.49,3.42-10.45-.15,0,3.12,13,10.12,14.09C232.82,265.13,225.34,241.17,225.89,241.22Z" style="fill:#407BFF"></path><path d="M225.89,241.22c-.07,0-10.14-7.74-19.19-12.82-9.64-4.51-31.68-24.51-38.49-33.55-7.22-8.79-5.28,5.81,5.76,12.94a53.92,53.92,0,0,1-8.82-4c-4.12-2.63-3.07,5.14,11.63,12,0,0-8.13-2.72-10.21-1.62-2.13,1.42,16.43,8.65,16.45,8.37,0,.13-12.49-3.14-12.2.36.37,3.82,16.65,5.54,16.59,5.36,0,.11-12.5-.43-11.48,3.55,1.17,4.24,17.07,2.19,17,2,.05.06-10.14,2.76-9,6.3s13.09-2,13-2.07-5.94,5.34-3.68,8.9,10.26-3.45,10.23-3.46-5.25,5.1-1.47,10.42,6.65-8.21,6.72-8.17-2.56,11.2,4.2,14.84c6.59,3.48,3.26-10.49,3.42-10.45-.15,0,3.12,13,10.12,14.09C232.82,265.13,225.34,241.17,225.89,241.22Z" style="fill:#fff;opacity:0.4"></path><path d="M234,284.55c-3.22,4.76-6.73,3.94-9.16,2.28-3.82-7.13-4.69-17-4.69-17s-2.6,7.81-5.17-5.63c-2.22-11.63.74-18.74,1.57-20.44.13-.26.21-.4.21-.4s1.06,1.11,2.76,3c2.11,2.34,5.21,5.88,8.51,10C235.35,267.36,237.32,278.86,234,284.55Z" style="opacity:0.2"></path><path d="M291.63,301.76s7.91,2.63,8.05,5.66-4.62,6.2-9.23,5.41c0,0,2.9,3.82-2.25,6.19a12.94,12.94,0,0,1-10.15,0s2.11,4.49-4.88,6.33-14-4.08-14-4.08,2.82,3.29-3.4,3.29a8.5,8.5,0,0,1-8.07-5.36s-1.48,3.11-3.69,1.35c-5.31-4.22-.79-23.42-.79-23.42l38.24-2.24Z" style="fill:#407BFF"></path><path d="M291.63,301.76s7.91,2.63,8.05,5.66-4.62,6.2-9.23,5.41c0,0,2.9,3.82-2.25,6.19a12.94,12.94,0,0,1-10.15,0s2.11,4.49-4.88,6.33-14-4.08-14-4.08,2.82,3.29-3.4,3.29a8.5,8.5,0,0,1-8.07-5.36s-1.48,3.11-3.69,1.35c-5.31-4.22-.79-23.42-.79-23.42l38.24-2.24Z" style="opacity:0.15"></path><path d="M276.93,289.68s22.63,9.21,19.55,15c-2.47,4.62-11.64,1.05-11.64,1.05s6.22,5,3.56,7.72c-4,4-13,0-13,0s3.16,4.55,0,7.12-10.88-2.34-10.88-2.34,1.52,4.52-4.58,5.11-11.44-9.22-11.44-9.22-.67,3.46-3.56,4.11c-6,1.35-7.83-4.51-4.59-12.5a105.5,105.5,0,0,1,8.59-16Z" style="fill:#407BFF"></path><path d="M243.75,282.93s-4.34,15.85-8.19,22.18,6.47,4.57,11.76-3.35c0,0,1.42,13.31,6,14.19,5.15,1,3.36-11.3,3.36-11.3S260.78,318.2,268,318.2s-2.09-15.12-2.09-15.12,7.39,9.94,14,7.57-8.19-15.76-8.19-15.76,13.72,8.11,18.47,4.55-11.08-9.95-18.46-16.51S243.75,282.93,243.75,282.93Z" style="fill:#407BFF"></path><path d="M243.75,282.93s-4.34,15.85-8.19,22.18,6.47,4.57,11.76-3.35c0,0,1.42,13.31,6,14.19,5.15,1,3.36-11.3,3.36-11.3S260.78,318.2,268,318.2s-2.09-15.12-2.09-15.12,7.39,9.94,14,7.57-8.19-15.76-8.19-15.76,13.72,8.11,18.47,4.55-11.08-9.95-18.46-16.51S243.75,282.93,243.75,282.93Z" style="fill:#fff;opacity:0.2"></path><path d="M220.28,247s-2,14.16,1.1,22.32,4.81,5.71,4.81,5.71,3.68,16.69,8.29,16.94c0,0,5.18,8.73,15,10.43s17-8.16,17-8.16.43.77,2-.3.79-16.28.79-16.28.3,2.17,1.72-1.07-7.63-30.49-23.22-37.36S220.28,247,220.28,247Z" style="fill:#407BFF"></path><path d="M271,276.57c-1.43,3.24-1.73,1.07-1.73,1.07s.74,15.22-.79,16.28-2,.3-2,.3-7.24,9.86-17,8.16c-9.48-1.64-14.64-9.89-14.95-10.4l0,0c-4.61-.25-8.29-16.94-8.29-16.94s-1.73,2.46-4.81-5.7-1.1-22.33-1.1-22.33,11.86-14.64,27.45-7.77c8.58,3.78,15.19,13.74,19.15,22.47C270.12,268.81,271.6,275.11,271,276.57Z" style="fill:#fff;opacity:0.30000000000000004"></path><path d="M271,276.57c-1.43,3.24-1.73,1.07-1.73,1.07s.74,15.22-.79,16.28-2,.3-2,.3-7.24,9.86-17,8.16c-9.48-1.64-14.64-9.89-14.95-10.4a27.8,27.8,0,0,0,4.12,3.93c1.76,1.19,3.81,1.76,4.62,1.22s.59-2.7.59-2.7A8.18,8.18,0,0,0,247,296.9c2.28,1.09,3-.5,3-.5a4.48,4.48,0,0,0,2.75.93c1.78.06,3.45-3.44,3.45-3.44a7,7,0,0,0,2.78,1.53c1.28.19,2.47-3.28,2.47-3.28s.5.9,2,.41,2.27-7.82,2.27-7.82-.87,1.29-2.81-1.28-3.81-8.41-3.81-8.41-5.33-1.26-5.93-8.35c-.33-3.92,7.06-4.91,13.73-5C270.12,268.81,271.6,275.11,271,276.57Z" style="opacity:0.2"></path><path d="M261.45,292.14s.52,6.74.22,8.2-3.57,4.57-3.57,4.57,1.36,5.36,1.55,7.45a14.34,14.34,0,0,1-.69,4.77,40.82,40.82,0,0,0-2-8.31s-.14,4.59-.08,5.86a38,38,0,0,1,.51,5.13s-.93-1.85-2.11-4.3-.74-6.65-.74-6.65a28.65,28.65,0,0,0-.68,5.32,11.18,11.18,0,0,0,.81,2.52s-2-2.33-2.2-4.42,1.22-7,1.83-8.46,3.83-4.17,3.83-4.17l-1.9-5.76s.8.67,1.42.29,1.2-2.95,1.2-2.95.64,2.12,1.1,2.08S261.45,292.14,261.45,292.14Z" style="fill:#263238"></path><path d="M243.83,294.43a36.36,36.36,0,0,1,2.16,5.62c.23,1.47-1.76,5.54-1.76,5.54s3.14,4.54,4.05,6.44a14.29,14.29,0,0,1,1,4.72,40,40,0,0,0-4.79-7.09s1.46,4.35,2,5.52a37.16,37.16,0,0,1,2.26,4.63s-1.51-1.41-3.47-3.3-3-6-3-6a29.23,29.23,0,0,0,1.21,5.23,11.08,11.08,0,0,0,1.64,2.08s-2.69-1.48-3.6-3.38-1.31-7-1.23-8.56,2.14-5.25,2.14-5.25l-3.78-4.74s1.44,1,1.89.42-.24-2.47-.24-2.47,2,2.24,3.15,2.36C243.89,296.26,243.83,294.43,243.83,294.43Z" style="fill:#263238"></path><path d="M297.5,188.14c1.49.71,18.27-51.43,13.82-64.62-3.47-13,27.22-10.28,13.17,33.91.11.2,11.14-18.74,12.93-32.44,1.23-14.93,30,3.75,4,46.57.4.58,21.16-29.3,26.57-29.33s16.26,14.14-13.94,49.86c.22.53,23.42-21.55,27.8-17.56s6.81,17.4-23,40.2c.06.11,11.79-9.15,17.45-6,5.84,3.24-6.16,19.65-18.35,25.65,0,0,5.25-2.46,8.59,1,3.37,3.3-1.67,13.67-20.12,18.81,0,0,9.47,2.24,7.83,6.25-1.58,3.77-4.79,9.85-21.94,10.22,0,0,7.53,3.31,3,7.43-4.37,4-15.83,4.42-19,3.29,0,0,5.16,3.39-4.23,4.73-9,1.15-16.49-5.2-16.46-5.17s3.17,5-3.72,4.61c-6.67-.47-12.59-5.14-12.58-5.13s.8,7.62-10.75-.25c-11.44-8.13-20.59-29.64-7.3-39.31C278.71,229.81,298.72,188.56,297.5,188.14Z" style="fill:#407BFF"></path><path d="M288,207.81c.88.46,16.8-35.12,17.77-47.89,2.11-13.8,14.59,17.68-1.41,38.41.14.31,16.21-15.08,21.38-23.82,5.7-9.42,5.07,17.66-15,32.27.14.61,23.82-14.1,26.8-18.63,3-5,8.51,12.78-26.42,31.87.2,1.15,34.09-16.09,35.37-11.7,1.57,5.55-17.61,19.94-38.39,23.3,0,.66,27.64-4,31.24-.17,3.5,5.78-34.89,11.15-34.81,10-.13.61,27.87,1.62,27.53,5.75-.63,5.46-32.14,4.45-32,3.7-.15.41,24.17,6.38,23.89,10.44-.42,4.45-17.88,3.29-32.06-5.16-.15.2,18.3,10.62,15.6,15.31-2.95,4.86-21.94-8.6-21.77-8.79-.09.08,13.31,11.83,9.08,14.27S276.88,263.15,277,263.1s9.35,15.92,2.43,14.26c-6.69-1.7-12.16-11.55-12.15-11.52,0-.16,11,17.58-7,8.1-16.11-9.8-5.22-31.16,3.71-38C275.54,228.57,288.36,207.93,288,207.81Z" style="fill:#407BFF"></path><path d="M288,207.81c.88.46,16.8-35.12,17.77-47.89,2.11-13.8,14.59,17.68-1.41,38.41.14.31,16.21-15.08,21.38-23.82,5.7-9.42,5.07,17.66-15,32.27.14.61,23.82-14.1,26.8-18.63,3-5,8.51,12.78-26.42,31.87.2,1.15,34.09-16.09,35.37-11.7,1.57,5.55-17.61,19.94-38.39,23.3,0,.66,27.64-4,31.24-.17,3.5,5.78-34.89,11.15-34.81,10-.13.61,27.87,1.62,27.53,5.75-.63,5.46-32.14,4.45-32,3.7-.15.41,24.17,6.38,23.89,10.44-.42,4.45-17.88,3.29-32.06-5.16-.15.2,18.3,10.62,15.6,15.31-2.95,4.86-21.94-8.6-21.77-8.79-.09.08,13.31,11.83,9.08,14.27S276.88,263.15,277,263.1s9.35,15.92,2.43,14.26c-6.69-1.7-12.16-11.55-12.15-11.52,0-.16,11,17.58-7,8.1-16.11-9.8-5.22-31.16,3.71-38C275.54,228.57,288.36,207.93,288,207.81Z" style="fill:#fff;opacity:0.2"></path><path d="M249.7,259.87c-3.56-8.42-.32-18.53,7.56-22.76l.2-.11c7.93-3.3,25.78-23.14,31.7-33.51,6.87-11.07,9.84,7.19-2.4,15.2a49,49,0,0,0,10.52-4.33c4.93-3.23,6.56,6.23-10.67,13.2,0,.1,9.76-2.44,13.25-1.2,3.62,1.8-18,8.55-18.09,8.06,0,.23,14.91-2.23,16.24,1.48,1.27,4.29-18.92,4.56-18.87,4.18,0,.23,15.66,1,16.39,5,.54,4.55-20.24.51-20.13.15-.06.16,13.68,4.34,14.19,7.75.31,3.75-16.77-3.71-16.65-3.93-.05.06,9.68,6.44,9,9.69s-13.51-5-13.42-5.15c-.05,0,8.51,6.08,7.41,10.79s-11.84-9.35-11.76-9.4,8.83,11.72,4.08,14.16c-4.63,2.26-9.4-11.1-9.4-11.07s4.24,12.38-1.58,12.22C254.73,270.2,252,265.21,249.7,259.87Z" style="fill:#407BFF"></path><path d="M249.7,259.87c-3.56-8.42-.32-18.53,7.56-22.76l.2-.11c7.93-3.3,25.78-23.14,31.7-33.51,6.87-11.07,9.84,7.19-2.4,15.2a49,49,0,0,0,10.52-4.33c4.93-3.23,6.56,6.23-10.67,13.2,0,.1,9.76-2.44,13.25-1.2,3.62,1.8-18,8.55-18.09,8.06,0,.23,14.91-2.23,16.24,1.48,1.27,4.29-18.92,4.56-18.87,4.18,0,.23,15.66,1,16.39,5,.54,4.55-20.24.51-20.13.15-.06.16,13.68,4.34,14.19,7.75.31,3.75-16.77-3.71-16.65-3.93-.05.06,9.68,6.44,9,9.69s-13.51-5-13.42-5.15c-.05,0,8.51,6.08,7.41,10.79s-11.84-9.35-11.76-9.4,8.83,11.72,4.08,14.16c-4.63,2.26-9.4-11.1-9.4-11.07s4.24,12.38-1.58,12.22C254.73,270.2,252,265.21,249.7,259.87Z" style="fill:#fff;opacity:0.4"></path><path d="M241.17,235.56s-.41-9.31-8.68-10.91-12.31,2.2-13.57,7.35a26.85,26.85,0,0,0-.8,8.83,8.91,8.91,0,0,0-1.94,4.72c-.26,2.82,1.41,1.25,1.41,1.25a11.31,11.31,0,0,0-.07,6.82c1.21,3.22,1.29.11,1.29.11s0,6.56,1.08,7.85,1.31-1.28,1.31-1.28,2.29,5.44,4,7.05,1.14-.89,1.14-.89,4.68,4.66,6.22,4.86.65-2.52.65-2.52,3.53,3.43,5.45,2.68a3.18,3.18,0,0,0,2.13-2.32s.53,1.5,1.79.69,2.42-3.36,2.42-3.36a1.43,1.43,0,0,0,2.06,0,7.47,7.47,0,0,0,1.36-3.39s-.14.85,1.11.17,1.75-6.86,1.75-6.86.8-.06,1.38-2.13-1.91-6-1.91-6,1.24.25,1.17-1.21-2.78-5.09-2.78-5.09,1.11.13,0-1.34S241.17,235.56,241.17,235.56Z" style="fill:#407BFF"></path><path d="M252.66,254.27c-.58,2.07-1.38,2.13-1.38,2.13s-.49,6.18-1.75,6.86-1.11-.17-1.11-.17a7.47,7.47,0,0,1-1.36,3.39,1.43,1.43,0,0,1-2.06,0s-1.15,2.54-2.42,3.36-1.79-.69-1.79-.69a3.18,3.18,0,0,1-2.13,2.32c-1.92.75-5.45-2.68-5.45-2.68s.88,2.73-.65,2.53-6.22-4.87-6.22-4.87.57,2.5-1.14.89-4-7.05-4-7.05-.23,2.57-1.31,1.28-1.08-7.85-1.08-7.85-.08,3.11-1.29-.11a11.32,11.32,0,0,1,.06-6.8c-.1.08-1.65,1.46-1.4-1.27a8.82,8.82,0,0,1,1.2-3.65,7,7,0,0,1,.74-1.07,26.86,26.86,0,0,1,.8-8.83c1.26-5.15,5.31-9,13.57-7.35s8.68,10.91,8.68,10.91l.66.35c1.74.94,6.39,3.53,7.3,4.72,1.12,1.48,0,1.34,0,1.34s2.71,3.62,2.78,5.09-1.17,1.21-1.17,1.21S253.24,252.21,252.66,254.27Z" style="fill:#fff;opacity:0.5"></path><path d="M231.1,236.44s-2.49-3.92-3.78-3.65c-2.42.51-3.44,3.53-3.44,3.53a5.66,5.66,0,0,0,2.72,4.85S230.46,239.16,231.1,236.44Z" style="fill:#407BFF"></path><path d="M223.89,236.32a3.33,3.33,0,0,0,0,.36h0a5.78,5.78,0,0,0,2.7,4.47s3.87-2,4.51-4.72c0,0-2.49-3.92-3.78-3.66C224.89,233.3,223.89,236.32,223.89,236.32Z" style="opacity:0.2"></path><path d="M223.89,236.69a5.78,5.78,0,0,0,2.7,4.47s3.87-2,4.51-4.72a9.77,9.77,0,0,1-4.75,2.75A6.39,6.39,0,0,1,223.89,236.69Z" style="opacity:0.2"></path><path d="M236.24,233.33a1.13,1.13,0,0,0,.86,1.33c.53.05,1-.47,1.08-1.16a1.12,1.12,0,0,0-.86-1.33C236.78,232.12,236.3,232.64,236.24,233.33Z" style="fill:#263238"></path><path d="M219.41,232.7a1,1,0,1,0,1.09-1.16A1.15,1.15,0,0,0,219.41,232.7Z" style="fill:#263238"></path><path d="M232.77,247s-1.27,4.16-5.28,4.36-6-4.06-6-4.06-3.05,1.82-4.11-5.35a7,7,0,0,1,.74-1.07c.61,5,3,6.32,3.87,5,0,0,2.2,3.56,5.5,3.26a7.36,7.36,0,0,0,5.08-3,.93.93,0,0,0,1.19.1c.79-.39,1-2.27,1-2.27S235,247.35,232.77,247Z" style="opacity:0.2"></path><path d="M240.52,241.51a3.24,3.24,0,0,1-.73,1.85,6.87,6.87,0,0,0,.5-2.53c.79.5,1.18-3.07.88-5.27l.66.35C242.18,241.2,240.52,241.51,240.52,241.51Z" style="opacity:0.2"></path></g></svg>