<svg xmlns="http://www.w3.org/2000/svg" viewBox="0 0 500 500"><g id="background-simple"><path d="M449,142.6S382.34,62.84,279,44.53,155.48,104,120.83,149.79,47,212.55,45,278.58s24.85,100,76.49,123.57,104.61,36,156.26,43.15,92.83,3.26,113.1-39.23S402,344,425.49,323.69,502,211.24,449,142.6Z" style="fill:#92E3A9"></path><path d="M449,142.6S382.34,62.84,279,44.53,155.48,104,120.83,149.79,47,212.55,45,278.58s24.85,100,76.49,123.57,104.61,36,156.26,43.15,92.83,3.26,113.1-39.23S402,344,425.49,323.69,502,211.24,449,142.6Z" style="fill:#fff;opacity:0.7000000000000001"></path></g><g id="Clouds"><path d="M211.91,100.88a.46.46,0,0,1-.23-.06.5.5,0,0,1-.22-.67c1.82-3.54,4.75-7.54,12.68-10.42,7.58-2.76,15.24.62,22,3.59,8.63,3.8,16.09,7.08,21.79-1.87a87,87,0,0,0,6.75-14c5.26-12.84,10.23-25,31.58-27.21C323.88,48.36,344.14,68,358,84.83a.5.5,0,1,1-.78.64c-13.73-16.63-33.71-36.07-50.9-34.26-20.75,2.19-25.61,14.05-30.75,26.6A87.7,87.7,0,0,1,268.77,92c-6.16,9.68-14.36,6.08-23,2.26-6.91-3-14.06-6.19-21.26-3.57-7.58,2.76-10.31,6.4-12.13,9.94A.5.5,0,0,1,211.91,100.88Z" style="fill:#263238"></path><path d="M408.05,130.18H159.78a.51.51,0,0,1-.5-.5.5.5,0,0,1,.5-.5H407.65c.56-2.47,3.24-16.69-7.46-23.38-6.64-4.14-10.49-3.17-15-2a26.53,26.53,0,0,1-13.74.58.52.52,0,0,1-.31-.22S368,99.2,362.84,92.49a.51.51,0,0,1,.1-.7.5.5,0,0,1,.7.09c4.61,6,7.66,10.61,8.27,11.54A25.78,25.78,0,0,0,385,102.8c4.68-1.19,8.72-2.22,15.73,2.16,12.32,7.7,7.85,24.68,7.81,24.85A.5.5,0,0,1,408.05,130.18Z" style="fill:#263238"></path><path d="M150.61,130.18H110.43a.49.49,0,0,1-.45-.29.51.51,0,0,1,.06-.53l6.07-7.59c3.75-4.68,9.67-2.83,14.9-1.2,3.7,1.16,7.2,2.25,9.57,1.07,2.86-1.43,5.08-5.08,7.64-9.3,2.72-4.46,5.79-9.51,10.48-13.42,5-4.19,14.3.76,23.26,5.55,7.9,4.23,16.07,8.6,20.9,6.53a11.63,11.63,0,0,0,5.24-4.22.52.52,0,0,1,.7-.13.51.51,0,0,1,.12.7,12.48,12.48,0,0,1-5.67,4.56c-5.27,2.27-13.65-2.22-21.76-6.55-8.67-4.64-17.63-9.44-22.15-5.67s-7.59,8.78-10.26,13.17-4.94,8.11-8.06,9.67c-2.72,1.36-6.41.21-10.31-1-5.16-1.61-10.5-3.28-13.81.87l-5.43,6.78h39.14a.5.5,0,0,1,.5.5A.5.5,0,0,1,150.61,130.18Z" style="fill:#263238"></path><path d="M198.53,267.31H32.81a.5.5,0,0,1-.39-.81l3.38-4.23c2.18-2.72,5.55-1.67,8.53-.74,2,.63,3.93,1.23,5.16.61,1.54-.77,2.76-2.77,4.17-5.09a28.88,28.88,0,0,1,5.88-7.53c2.92-2.43,7.92.24,13.2,3.07,4.36,2.32,8.85,4.73,11.45,3.62,2.42-1,3.16-2.67,4-4.55,1.14-2.5,2.43-5.33,7.84-7.3,4.3-1.56,8.61.33,12.42,2,4.9,2.16,8.78,3.87,11.85-1a48.6,48.6,0,0,0,3.75-7.77c3-7.21,5.74-14,17.76-15.29,15.74-1.68,34.9,26.87,36.72,29.65a14,14,0,0,0,7.09-.37c2.55-.64,5-1.26,8.93,1.23,7,4.38,4.47,14,4.45,14.09A.51.51,0,0,1,198.53,267.31Zm-164.68-1H198.14c.36-1.73,1.52-9.09-4.1-12.6-3.62-2.26-5.62-1.75-8.15-1.11a14.89,14.89,0,0,1-7.76.33.53.53,0,0,1-.31-.22c-.2-.31-20.3-31-35.88-29.37-11.43,1.21-14,7.45-17,14.68a49.14,49.14,0,0,1-3.82,7.92c-3.54,5.56-8.18,3.51-13.1,1.34-3.81-1.67-7.75-3.41-11.68-2-5,1.83-6.16,4.34-7.27,6.78-.91,2-1.76,3.86-4.54,5-3,1.3-7.54-1.11-12.31-3.66s-9.68-5.18-12.09-3.18a27.91,27.91,0,0,0-5.66,7.28C53,260,51.74,262.14,49.94,263c-1.6.8-3.69.15-5.91-.54-2.8-.88-5.7-1.78-7.45.41Z" style="fill:#263238"></path><path d="M452.61,323.55h-79.9a.51.51,0,0,1-.5-.5.5.5,0,0,1,.5-.5h79.5c.26-1.35.88-6-2.75-8.3a5.77,5.77,0,0,0-5.43-.74,10.29,10.29,0,0,1-5.36.23.5.5,0,0,1-.31-.22s-1.43-2.2-3.67-5.07a.5.5,0,0,1,.79-.62c1.9,2.45,3.22,4.39,3.6,5a9.27,9.27,0,0,0,4.7-.26,6.72,6.72,0,0,1,6.21.86c4.87,3,3.12,9.71,3.1,9.78A.49.49,0,0,1,452.61,323.55Z" style="fill:#263238"></path><path d="M367.46,323.55H339.64a.5.5,0,0,1-.45-.29.51.51,0,0,1,.06-.53l2.31-2.88c1.55-1.94,3.91-1.2,6-.56,1.34.42,2.61.82,3.4.43,1-.51,1.82-1.85,2.77-3.41a19.66,19.66,0,0,1,4-5.17c2.07-1.73,5.52.11,9.17,2.07,2.94,1.57,6,3.19,7.66,2.46a4.88,4.88,0,0,0,2.66-3,8.23,8.23,0,0,1,5.44-5.06c2.73-1,5.43,0,8,1.1a.5.5,0,0,1-.4.92c-2.44-1.07-4.83-1.94-7.22-1.08a7.28,7.28,0,0,0-4.87,4.54,5.86,5.86,0,0,1-3.17,3.52c-2.14.91-5.24-.74-8.53-2.5s-6.51-3.48-8.06-2.19a18.89,18.89,0,0,0-3.83,4.93c-1,1.69-1.92,3.15-3.19,3.78s-2.6.12-4.14-.36c-1.95-.61-3.78-1.18-4.91.23l-1.66,2.07h26.78a.5.5,0,0,1,.5.5A.51.51,0,0,1,367.46,323.55Z" style="fill:#263238"></path><path d="M395.92,311.4a8.22,8.22,0,0,1-2.59-.51.5.5,0,0,1,.33-.95c2.21.77,4,.8,5.5-1.57a32.26,32.26,0,0,0,2.54-5.27c2-5,3.95-9.65,12.24-10.52,6.72-.71,14.37,6.6,19.61,12.86a.51.51,0,0,1-.07.71.5.5,0,0,1-.7-.07c-5.08-6.07-12.47-13.15-18.73-12.51-7.7.81-9.42,5-11.42,9.91a33.78,33.78,0,0,1-2.62,5.43A4.67,4.67,0,0,1,395.92,311.4Z" style="fill:#263238"></path></g><g id="Bird"><path d="M181.2,208.55s1.46-10.2,15.16-25.08,33.24-48.69,46.07-76.1,16.62-36.45,15.75-29.45-6.41,31.78-6.41,31.78a29,29,0,0,1,.87,9.62,152.57,152.57,0,0,1-1.46,15.46c-.29.87,20.41-51.61,21.58-47.82s-5,29.16-5,29.16.59,4.95.59,8.45v7.88s19.82-30.33,20.7-25.08,1.75,10.5-5.54,22.74-11.66,19.54-11.66,19.54,23.91-16.33,24.2-13.12-2.63,7.58-5.83,10.2-16.92,14-16.92,14,16.92-10.5,16.62-5.25-12.24,11.08-12.24,11.08,14.87-9.62,13.41-5-5.54,8.75-5.54,8.75-56.86,25.37-62.11,28.58S191.7,217,191.7,217Z" style="fill:#263238"></path><path d="M191.65,217.61l-11-8.85,0-.28c.06-.42,1.64-10.53,15.29-25.34,13.91-15.09,33.66-49.65,46-76q2.86-6.12,5.14-11c8.8-18.9,10-21.27,11.11-20.95.65.18.66,1.09.45,2.8-.84,6.68-6,29.75-6.4,31.7a30.14,30.14,0,0,1,.86,9.67c-.17,3.59-.56,8.22-.91,11.51,18-44.71,19.61-44.63,20.37-44.6a.71.71,0,0,1,.64.55c1.17,3.8-4.47,27.44-4.93,29.34.08.69.58,5.19.58,8.42v6.2c4.89-7.41,16.91-25.12,19.87-24.49a1.07,1.07,0,0,1,.82,1c.88,5.25,1.78,10.67-5.6,23.08-5.09,8.54-8.75,14.67-10.51,17.6,5.88-3.95,20.27-13.33,22.6-12.24a.91.91,0,0,1,.52.75c.31,3.5-2.79,8-6,10.64-2,1.63-8.1,6.69-12.41,10.26,4.17-2.23,9.61-4.69,11.51-3.56a1.68,1.68,0,0,1,.79,1.69c-.09,1.73-1.34,3.5-3,5.11,1.75-.7,3.2-1,3.84-.52.3.23.6.7.31,1.65-1.48,4.73-5.5,8.79-5.67,9l-.15.1c-.56.25-56.89,25.39-62.05,28.55s-31.53,17.94-31.8,18.08Zm-9.9-9.26,10,8.06c2.92-1.64,26.59-14.92,31.47-17.91,5.16-3.15,58.73-27.07,62.08-28.56.51-.54,4.05-4.31,5.35-8.48.11-.36.09-.53,0-.57-.58-.44-3.33.7-6.63,2.48a50.42,50.42,0,0,1-6.12,3.64l-.49-.87c1.21-.78,3.64-2.32,6.17-3.68,2.87-2,5.71-4.61,5.84-7,0-.51-.14-.68-.3-.77-1.9-1.13-10.55,3.37-15.55,6.47l-.59-.8c.14-.12,13.75-11.41,16.92-14,2.95-2.42,5.93-6.66,5.65-9.78-1.33-.63-13,6.35-23.42,13.49l-1.89,1.29,1.18-2s4.37-7.29,11.66-19.53,6.36-17.1,5.48-22.41a.42.42,0,0,0-.07-.2c-1.68-.36-11.36,12.67-19.73,25.47l-.91,1.4v-9.55c0-3.43-.58-8.35-.58-8.4v-.08l0-.09c1.62-6.74,5.56-24.41,5.05-28.47-1.21,1.5-5.4,9.34-19.86,45.31-.39,1-.64,1.58-.81,1.95,0,.06,0,.11,0,.15h0c-.25.47-.36.43-.62.33l-.46-.17.16-.47c.25-.75,1.13-9.05,1.43-15.32a28.94,28.94,0,0,0-.85-9.44l0-.13,0-.14c.05-.25,5.54-24.84,6.4-31.74.08-.61.11-1,.12-1.31-1.31,1.85-4.79,9.31-9.77,20q-2.28,4.92-5.14,11c-12.36,26.41-32.19,61.07-46.16,76.23C184.54,197,182.1,206.64,181.75,208.35Z" style="fill:#263238"></path><path d="M226.79,328.36s-22.5-5.08-27.22-6.53-21.78-9.08-23.78-7.62-6.71,13.43-6.35,16,3.09,4.9,4.36,5.08,4.72-1.27,4.72-1.82a10,10,0,0,0-.73-2.18,3.73,3.73,0,0,1-1.63,1.09,3.5,3.5,0,0,1-2.54,0,5.32,5.32,0,0,1-.55-1.81,28.76,28.76,0,0,1,.91-5.63c.54-1.81,3.63,2.18,5.44,4.36s4.18,3.08,5.45,2.9,2.36-3.08,2.36-3.63-.91,1.09-2.18,1.45a4.19,4.19,0,0,1-2.54-.18,10.1,10.1,0,0,0-1.09-3.08,49.16,49.16,0,0,1-3.09-4.18c-.9-1.63-.18-5.62-.18-5.62s14.7,6.71,17.24,8.53,5.09,6.17,7.26,8.89,3.09,3.27,1.46,4.9-2.18,1.81-3.82,1.45l-1.63-.36s3.09,2.54,5.45,1.81,4-5.26,3.62-6.89-4.53-3.63-4.9-4.72a30,30,0,0,0-2.54-4.18,88,88,0,0,1,17.79,4.18c9.25,3.27,17.24,6.17,18.15,5.62s-1.09-5.62-1.09-5.62Z" style="fill:#263238"></path><path d="M203.2,342.78c-2.33,0-4.74-2-4.86-2.06l-1.61-1.32,3.67.81c1.41.32,1.79.25,3.35-1.31,1.07-1.07.95-1.28-.68-3.25-.25-.3-.52-.62-.81-1-.67-.84-1.37-1.82-2.11-2.86-1.65-2.32-3.35-4.73-5.05-5.94-2.18-1.56-13.77-6.92-16.55-8.2-.18,1.34-.34,3.63.22,4.65a18.66,18.66,0,0,0,2,2.7c.42.52.82,1,1.11,1.44a9.71,9.71,0,0,1,1.1,3,3.66,3.66,0,0,0,2,.07,3.88,3.88,0,0,0,1.49-1.08c.34-.34.6-.61,1-.46a.59.59,0,0,1,.35.57c0,.64-1.12,3.89-2.79,4.13-1.48.21-4-.78-5.9-3.08l-.53-.64c-1-1.2-3.29-4-4-4h0s0,0,0,.11a28.62,28.62,0,0,0-.89,5.48A4.32,4.32,0,0,0,174,332a2.93,2.93,0,0,0,2-.06,3.63,3.63,0,0,0,1.42-.91l.51-.7.36.78a9.11,9.11,0,0,1,.77,2.38.94.94,0,0,1-.37.66,9.39,9.39,0,0,1-4.92,1.65c-1.58-.22-4.4-2.83-4.78-5.5s4.44-14.91,6.55-16.45c1.51-1.1,8.21,1.4,17.52,5,2.85,1.12,5.32,2.09,6.69,2.51,4.65,1.43,27,6.47,27.19,6.52h0l8.59,2.24.09.24c1,2.49,1.93,5.6.88,6.23s-5-.77-16.28-4.77l-2.29-.81a89.82,89.82,0,0,0-16.57-4,21.1,21.1,0,0,1,2,3.38,7.75,7.75,0,0,0,1.84,1.6c1.39,1,2.83,2.06,3.07,3.17.41,1.84-1.34,6.67-4,7.48A3.42,3.42,0,0,1,203.2,342.78Zm-1.87-1.43a4,4,0,0,0,2.63.33c2-.63,3.61-4.88,3.29-6.31-.17-.74-1.57-1.76-2.69-2.59s-2-1.49-2.2-2.08a28.37,28.37,0,0,0-2.47-4.05l-.64-.9,1.1.12a89.44,89.44,0,0,1,17.9,4.2l2.29.81c7,2.47,14.22,5,15.4,4.85.17-.5-.36-2.64-1.18-4.77l-8.09-2.11c-1-.24-22.58-5.11-27.25-6.54-1.41-.44-3.89-1.41-6.77-2.54-5.37-2.1-15.37-6-16.56-5.16-1.84,1.34-6.5,13.07-6.15,15.5a6.65,6.65,0,0,0,3.93,4.65,8.86,8.86,0,0,0,4.14-1.42,9.21,9.21,0,0,0-.4-1.22,6.56,6.56,0,0,1-1.26.69,4,4,0,0,1-2.93,0l-.17-.07-.08-.16a5.65,5.65,0,0,1-.6-2,29.41,29.41,0,0,1,.93-5.77,1.07,1.07,0,0,1,.78-.8c1.15-.22,2.79,1.66,5,4.35l.52.63c1.77,2.12,4,2.88,5,2.73.5-.07,1.06-.94,1.44-1.76a3.1,3.1,0,0,1-1.05.55,4.7,4.7,0,0,1-2.88-.2l-.24-.1,0-.27a10.05,10.05,0,0,0-1-2.9,17,17,0,0,0-1.05-1.35,20.55,20.55,0,0,1-2-2.85c-1-1.74-.32-5.54-.24-6l.12-.63.58.26c.6.28,14.77,6.76,17.32,8.58,1.84,1.31,3.59,3.78,5.29,6.17.73,1,1.42,2,2.07,2.82l.8,1c1.57,1.9,2.36,2.86.62,4.59C203.14,340.92,202.4,341.39,201.33,341.35Z" style="fill:#263238"></path><path d="M190.82,212.34s-9-6.12-12.54-8.16-5.54-4.08-12.83-10.5-23.62-11.08-36.15-7.29-20.12,18.37-20.12,18.37l-11.67,10.5a9.23,9.23,0,0,0,4.08.29c2.63-.29,7.88-.87,9-.29s6.13,3.21,10.79,5.54,6.71,5.83,10.21,10.79,3.79,17.49,5,23,7.28,17.79,12.53,25.08,9.33,12.25,19,18.37,22.45,14.58,29.16,17.79,39.95,18.66,55.4,22.74,31.49,6.71,44.61,10.21,30.62,37.61,30.62,37.61,20.7,22.46,16.91,16.33a52.56,52.56,0,0,0-6.41-8.74s12.25,11.95,14.29,11.66-2-5.25-2-5.25,13.7,12,15.16,9.92-1.46-5.54-1.46-5.54,11.37,8.45,12.25,5.24-2.92-5.54-8.75-13.41S337.49,363.39,325,353.47s-35.58-37.32-39.08-42l-3.5-4.66s4.08.87,4.38-1.17a5.73,5.73,0,0,0-.59-3.5s6.42,1.46,8.75-1.45a6.8,6.8,0,0,0,1.46-5.84s11.08.3,12.54-2.91.87-5.25.87-5.25,11.08.29,10.79-4.08-1.16-5.84-1.16-5.84,10.2-.58,9-4.66a21.54,21.54,0,0,0-3.2-6.71s5.83.88,6.12-2-1.46-8.75-1.46-8.75,8.75,3.21,10.21-4.08.58-8.45.58-8.45,1.75,1.16,2.92-3.21a20.68,20.68,0,0,0,.58-7.88s13.41-2.62,14.58-5.83-1.75-7.29-1.75-7.29,10.79-6.12,11.08-9-24.49-5.25-24.49-5.25,26.24-8.45,31.2-14.28,9.33-15.46,5.54-14.58-16.62,5-22.45,6.12a87.21,87.21,0,0,0-9.34,2.33s21.58-14.58,27.12-25.66,5-17.49,2-15.16-11.08,6.41-22.45,11.37a240.69,240.69,0,0,1-24.2,8.75s38.2-23.33,42-33.24,5.54-13.12-.58-9.92-53.66,30-65.61,37.33-49.28,23.62-73.49,33.24S194.61,207.39,190.82,212.34Z" style="fill:#fff"></path><path d="M375.48,411.26c-2.3,0-6.74-2.78-9.4-4.6.59,1.24.95,2.78.11,4a1.1,1.1,0,0,1-.78.43c-2.1.25-8.47-4.71-12.28-7.85a3.17,3.17,0,0,1,.52,2.28,1.12,1.12,0,0,1-.92.68c-1.37.2-6-3.66-9.79-7.16.69,1,1.45,2.16,2.27,3.48.38.62.82,1.32.31,1.71s-1.15.85-18-17.44l-.07-.11c-.18-.34-17.55-34-30.3-37.36-6.36-1.69-13.35-3.17-20.75-4.74-7.82-1.65-15.9-3.36-23.87-5.46-17.11-4.52-55.11-22.6-55.49-22.78-5.58-2.67-15.37-8.95-24-14.49l-5.2-3.33c-9.91-6.3-14-11.42-19.09-18.5-5.31-7.37-11.44-19.64-12.62-25.26-.35-1.65-.63-3.95-.92-6.37-.69-5.83-1.56-13.09-4-16.48l-1.15-1.65c-2.82-4-4.85-7-8.87-9-3.11-1.56-6.36-3.25-8.5-4.36-1.09-.57-1.9-1-2.29-1.18-1-.52-6.65.1-8.76.34a9.49,9.49,0,0,1-4.32-.33l-.75-.3,12.19-11c.7-1.3,8.13-14.84,20.38-18.54,12.57-3.8,29.09.76,36.63,7.39l3.45,3c4.58,4.06,6.47,5.74,9.31,7.4,3.06,1.78,10.42,6.73,12.18,7.92,4.39-5.2,19.42-13.07,42.49-22.25,22.83-9.07,61-25.66,73.41-33.2,12-7.32,59.31-34,65.63-37.34,2.48-1.3,3.66-1.55,4.33-.95,1,.93.08,3.42-2,8.87-.31.82-.65,1.69-1,2.62-3.19,8.32-29.44,25.46-38.88,31.42,4.64-1.49,12.89-4.28,20.42-7.57,11.63-5.07,19.57-9.08,22.34-11.3,1.12-.89,1.85-.57,2.19-.3,1.85,1.5.36,8.41-3.47,16.08-4.47,8.94-18.94,19.91-24.81,24.11,1.6-.43,3.8-1,6.48-1.5,3.5-.7,9.68-2.5,14.65-3.94,3.36-1,6.27-1.83,7.79-2.18a1.47,1.47,0,0,1,1.77.58c1.4,2.29-3.1,10.44-6.82,14.81-4.19,4.93-22.71,11.51-29.2,13.7,5.95.63,20.41,2.39,22.32,4.71a1.13,1.13,0,0,1,.29.85c-.28,2.83-8.6,7.84-10.87,9.16.75,1.2,2.53,4.5,1.51,7.29-1.14,3.14-11.85,5.52-14.49,6.06a22,22,0,0,1-.66,7.61c-.54,2-1.3,3.24-2.26,3.61a1.6,1.6,0,0,1-.45.1c.15,1.09.13,3.34-.78,7.92a6,6,0,0,1-2.9,4.33c-2.42,1.36-5.55.8-7.07.4.48,1.77,1.46,5.74,1.23,8.05a2.31,2.31,0,0,1-.94,1.67c-1.21,1-3.36,1-4.66.92a23,23,0,0,1,2.66,6,2.48,2.48,0,0,1-.37,2.24c-1.53,2.16-6.54,2.83-8.41,3a20.22,20.22,0,0,1,.93,5.35,2.8,2.8,0,0,1-.82,2.19c-2.13,2.22-8,2.43-9.88,2.43a10,10,0,0,1-1,5c-1.39,3.06-9.82,3.25-12.38,3.21a7.47,7.47,0,0,1-1.68,5.64c-2,2.45-6.38,2.1-8.31,1.8a6.53,6.53,0,0,1,.25,2.91,1.76,1.76,0,0,1-.77,1.24,4.77,4.77,0,0,1-3,.52l2.78,3.7c3.9,5.2,26.6,32.11,39,41.9,12.8,10.13,37.15,35.41,43,43.25,1.93,2.6,3.64,4.61,5,6.22,2.88,3.37,4.46,5.23,3.81,7.63a1.38,1.38,0,0,1-.92,1A1.85,1.85,0,0,1,375.48,411.26Zm-14.22-9.36,3.36,2.49c3.44,2.56,9.53,6.4,11.19,5.83a.4.4,0,0,0,.28-.31c.51-1.88-.87-3.5-3.61-6.71-1.39-1.62-3.11-3.64-5.06-6.27-5.78-7.8-30-33-42.78-43.06C312.19,344,289.39,317,285.48,311.78l-4.3-5.73,1.31.28c.67.14,2.59.39,3.42-.19a.75.75,0,0,0,.35-.56,5.28,5.28,0,0,0-.52-3.17l-.58-1,1.12.26c.06,0,6.14,1.35,8.25-1.29A6.29,6.29,0,0,0,295.9,295l-.2-.66h.69c3,.08,11-.24,12.07-2.62a7.93,7.93,0,0,0,.85-4.91l-.18-.65.67,0c.09,0,7.54.17,9.74-2.12a1.8,1.8,0,0,0,.54-1.43c-.27-4.15-1.09-5.6-1.1-5.61l-.4-.7.81,0c1.88-.11,7-.8,8.36-2.65a1.51,1.51,0,0,0,.22-1.38,21.32,21.32,0,0,0-3.12-6.54l-.76-1,1.23.18c1,.14,3.8.32,5-.62a1.33,1.33,0,0,0,.55-1c.28-2.78-1.42-8.49-1.44-8.55l-.28-1,.93.34c.05,0,4.3,1.54,7.14-.05a5.11,5.11,0,0,0,2.41-3.66c1.34-6.69.68-8,.65-8.09L338.53,240l2.45,1.66a.61.61,0,0,0,.52,0c.36-.14,1.05-.72,1.63-2.92a20.28,20.28,0,0,0,.58-7.66l-.08-.48.47-.1c5.08-1,13.43-3.37,14.21-5.51,1.06-2.92-1.66-6.79-1.69-6.83l-.32-.45.48-.27c4.09-2.32,10.64-6.72,10.83-8.66a.38.38,0,0,0-.06-.11c-1.53-1.85-15.18-3.76-24-4.59l-2.42-.23,2.31-.74c.26-.09,26.17-8.48,31-14.14,4.34-5.11,7.58-12.25,6.73-13.64,0-.07-.15-.25-.7-.13-1.49.35-4.38,1.19-7.73,2.17-5,1.45-11.19,3.25-14.74,4a87.68,87.68,0,0,0-9.27,2.32l-3.46,1.15,3-2c.22-.15,21.54-14.64,27-25.47,4.44-8.88,4.62-14.13,3.73-14.85-.24-.2-.69.1-.93.3-3.64,2.91-14.28,7.83-22.57,11.44A245.21,245.21,0,0,1,331.22,163L327.57,164l3.25-2c.38-.23,38.1-23.35,41.78-33,.36-.93.7-1.8,1-2.62,1.46-3.75,2.83-7.29,2.31-7.76-.1-.09-.62-.27-3.2,1.09-6.32,3.31-53.58,30-65.58,37.3-12.41,7.57-50.69,24.19-73.56,33.28-23.46,9.33-38.5,17.25-42.36,22.3l-.29.37-.39-.26c-.09-.06-9.06-6.14-12.51-8.15-2.92-1.7-4.83-3.4-9.46-7.51-1-.89-2.14-1.9-3.45-3-7.34-6.47-23.43-10.89-35.68-7.19s-19.75,18-19.82,18.12l-.11.14-11,9.87a10.82,10.82,0,0,0,3,.05c3.88-.43,8.12-.84,9.32-.24l2.3,1.19c2.14,1.12,5.39,2.8,8.49,4.35,4.24,2.12,6.34,5.14,9.24,9.31L132,231.3c2.54,3.6,3.42,11,4.14,16.94.28,2.4.56,4.67.89,6.28,1.16,5.51,7.22,17.61,12.46,24.89,5,7,9.06,12,18.82,18.24l5.2,3.33c8.62,5.52,18.38,11.79,23.9,14.43.38.18,38.3,18.21,55.32,22.71,7.94,2.1,16,3.8,23.82,5.46,7.41,1.56,14.41,3,20.79,4.75,13,3.47,29.83,35.71,30.91,37.81,4.89,5.3,12.42,13.25,15.59,16.11a50.78,50.78,0,0,0-5.86-7.89l.7-.71c5.91,5.77,12.73,11.66,13.87,11.52,0,0,.11,0,.12,0,.22-.56-1.11-2.72-2.48-4.39l.72-.7c7,6.1,13.58,10.68,14.42,10,1-1.42-.69-4-1.43-4.93Z" style="fill:#263238"></path><path d="M264.23,307.93c6.86-.81,8.47-3.63,8.47-3.63l10.71,3.89-1-1.37s4.08.87,4.38-1.17a5.73,5.73,0,0,0-.59-3.5s6.42,1.46,8.75-1.45a6.8,6.8,0,0,0,1.46-5.84s11.08.3,12.54-2.91.87-5.25.87-5.25,11.08.29,10.79-4.08-1.16-5.84-1.16-5.84,10.2-.58,9-4.66a21.54,21.54,0,0,0-3.2-6.71s5.83.88,6.12-2-1.46-8.75-1.46-8.75,8.75,3.21,10.21-4.08.58-8.45.58-8.45,1.75,1.16,2.92-3.21a20.68,20.68,0,0,0,.58-7.88s13.41-2.62,14.58-5.83-1.75-7.29-1.75-7.29,10.79-6.12,11.08-9-24.49-5.25-24.49-5.25,26.24-8.45,31.2-14.28,9.33-15.46,5.54-14.58-16.62,5-22.45,6.12a87.21,87.21,0,0,0-9.34,2.33s21.58-14.58,27.12-25.66,5-17.49,2-15.16-11.08,6.41-22.45,11.37a240.69,240.69,0,0,1-24.2,8.75s38.2-23.33,42-33.24,5.54-13.12-.58-9.92-53.66,30-65.61,37.33-49.28,23.62-73.49,33.24c-19.67,7.82-33,14.49-39.32,19.37l-1.3,22s5.69-2,6.9.85,7.67,21.39,9.69,20.58,1.21-8.47,1.21-8.47,25.82,47.61,33.08,53.66S257.37,308.74,264.23,307.93Z" style="fill:#595959"></path><path d="M284.82,309.24l-11.94-4.35c-.69.83-2.92,2.87-8.59,3.53h0c-7.07.83-13.67-4.12-21-10.2-6.48-5.4-27.06-42.57-32.11-51.8.09,2.51-.09,6.06-1.68,6.7a1,1,0,0,1-.73,0c-1.69-.75-4.45-7.28-8.35-17.59-.56-1.5-1-2.68-1.25-3.23-.84-2-4.82-1.08-6.28-.58l-.71.24L193.59,209l.18-.13c6.58-5.08,20.22-11.8,39.44-19.45,22.83-9.07,61-25.66,73.41-33.2,12-7.33,59.32-34,65.63-37.34,2.48-1.3,3.66-1.55,4.33-.95,1,.93.08,3.42-2,8.87-.31.82-.65,1.69-1,2.62-3.19,8.32-29.44,25.46-38.88,31.42,4.64-1.49,12.89-4.28,20.42-7.57,11.64-5.07,19.57-9.08,22.34-11.3,1.12-.89,1.85-.57,2.19-.3,1.85,1.5.36,8.41-3.47,16.08-4.47,8.94-18.94,19.91-24.81,24.11,1.6-.42,3.8-1,6.48-1.5,3.5-.7,9.68-2.5,14.65-3.94,3.36-1,6.27-1.83,7.79-2.18a1.47,1.47,0,0,1,1.77.58c1.4,2.29-3.1,10.44-6.82,14.81-4.19,4.93-22.71,11.51-29.2,13.7,5.95.63,20.41,2.39,22.32,4.71a1.13,1.13,0,0,1,.29.85c-.28,2.83-8.6,7.84-10.87,9.16.75,1.2,2.53,4.5,1.51,7.29-1.14,3.14-11.85,5.52-14.49,6.06a22,22,0,0,1-.66,7.61c-.54,2-1.3,3.24-2.26,3.61a1.6,1.6,0,0,1-.45.1c.15,1.09.13,3.34-.78,7.92a6,6,0,0,1-2.9,4.33c-2.42,1.36-5.55.8-7.07.4.48,1.77,1.46,5.74,1.23,8.05a2.31,2.31,0,0,1-.94,1.67c-1.21,1-3.36,1-4.66.92a23,23,0,0,1,2.66,6,2.48,2.48,0,0,1-.37,2.24c-1.53,2.16-6.54,2.83-8.41,3a20.22,20.22,0,0,1,.93,5.35,2.8,2.8,0,0,1-.82,2.19c-2.13,2.22-8,2.43-9.88,2.43a10,10,0,0,1-1,5c-1.39,3.06-9.82,3.25-12.38,3.21a7.47,7.47,0,0,1-1.68,5.64c-2,2.45-6.38,2.1-8.31,1.8a6.53,6.53,0,0,1,.25,2.91,1.76,1.76,0,0,1-.77,1.24,4.77,4.77,0,0,1-3,.52Zm-75-67.51,1.2,2.21c.25.48,25.85,47.6,33,53.52s13.53,10.75,20.2,10h0c6.46-.76,8.08-3.36,8.1-3.39l.21-.35.39.14,9.13,3.32,0,0-.75-1,1.26.26c.67.14,2.59.39,3.42-.19a.75.75,0,0,0,.35-.56,5.28,5.28,0,0,0-.52-3.17l-.58-1,1.12.26c.06,0,6.14,1.35,8.25-1.29A6.29,6.29,0,0,0,295.9,295l-.2-.66h.69c3,.08,11-.24,12.07-2.62a7.93,7.93,0,0,0,.85-4.91l-.18-.65.67,0c.09,0,7.54.17,9.74-2.12a1.8,1.8,0,0,0,.54-1.43c-.27-4.15-1.09-5.6-1.1-5.61l-.4-.7.81,0c1.88-.11,7-.8,8.36-2.65a1.51,1.51,0,0,0,.22-1.38,21,21,0,0,0-3.12-6.54l-.76-1,1.23.19c1,.14,3.8.32,5-.62a1.33,1.33,0,0,0,.55-1c.28-2.78-1.42-8.49-1.44-8.55l-.28-1,.93.34c.05,0,4.3,1.54,7.14-.05a5.11,5.11,0,0,0,2.41-3.66c1.34-6.69.68-8,.65-8.09L338.53,240l2.45,1.66a.61.61,0,0,0,.52,0c.36-.14,1.05-.72,1.63-2.92a20.28,20.28,0,0,0,.58-7.66l-.08-.48.47-.1c5.08-1,13.43-3.37,14.21-5.51,1.06-2.92-1.66-6.79-1.69-6.83l-.32-.45.48-.27c4.09-2.32,10.64-6.72,10.83-8.66a.38.38,0,0,0-.06-.11c-1.53-1.85-15.18-3.76-24-4.59l-2.42-.23,2.31-.74c.26-.09,26.17-8.48,31-14.14,4.34-5.11,7.58-12.25,6.73-13.64,0-.07-.15-.25-.7-.13-1.49.35-4.38,1.19-7.73,2.17-5,1.45-11.19,3.25-14.74,4a88.54,88.54,0,0,0-9.27,2.32l-3.45,1.15,3-2c.22-.15,21.54-14.64,27-25.47,4.44-8.88,4.62-14.13,3.73-14.85-.24-.2-.69.1-.93.3-3.64,2.91-14.28,7.83-22.57,11.44A245.21,245.21,0,0,1,331.22,163L327.57,164l3.25-2c.38-.23,38.1-23.35,41.78-33,.36-.93.7-1.8,1-2.62,1.46-3.75,2.83-7.29,2.31-7.76-.1-.09-.62-.27-3.2,1.09-6.31,3.3-53.57,30-65.58,37.3-12.41,7.57-50.69,24.19-73.56,33.28-19,7.54-32.44,14.17-39,19.17l-1.25,21c1.66-.45,5.71-1.25,6.82,1.35.25.56.7,1.76,1.27,3.26,1.56,4.14,6.32,16.71,7.83,17,1.08-.45,1.15-5,.84-8Z" style="fill:#263238"></path><path d="M365.78,410.34c1.46-2-1.46-5.54-1.46-5.54s11.37,8.45,12.25,5.24-2.92-5.54-8.75-13.41S337.49,363.39,325,353.47s-35.58-37.32-39.08-42l-3.5-4.66s4.08.87,4.38-1.17a5.94,5.94,0,0,0-.29-2.82l-9.58-5.24s-8.66-6-13.53-6-17.33-7-21.12-13-20.58-22.75-20.58-22.75L209.2,235.31s1.08,8.13-1.62,6-3.79-10.29-4.88-13-5.95,2.17-8.66-.54,4.87-13.54,4.87-13.54-2.74-1.33-6.71-3.34a12.16,12.16,0,0,0-1.38,1.49s-9-6.12-12.54-8.16a32.45,32.45,0,0,1-4.66-3.33c-2-1.2-3.94-2.36-5.58-3.44-8.95-5.93-16.74-10.19-18.55-11.17-6.6-1.52-13.88-1.76-20.19.15-12.54,3.79-20.12,18.37-20.12,18.37l-11.67,10.5a9.23,9.23,0,0,0,4.08.29c2.63-.29,7.88-.87,9-.29s6.13,3.21,10.79,5.54,6.71,5.83,10.21,10.79,3.79,17.49,5,23,7.28,17.79,12.53,25.08,9.33,12.25,19,18.37,22.45,14.58,29.16,17.79,39.95,18.66,55.4,22.74,31.49,6.71,44.61,10.21,30.62,37.61,30.62,37.61,20.7,22.46,16.91,16.33a52.56,52.56,0,0,0-6.41-8.74s12.25,11.95,14.29,11.66-2-5.25-2-5.25S364.32,412.38,365.78,410.34Z" style="fill:#92E3A9"></path><path d="M375.48,411.26c-2.3,0-6.74-2.78-9.4-4.6.59,1.24.95,2.78.11,4h0a1.1,1.1,0,0,1-.78.43c-2.1.25-8.47-4.71-12.28-7.85a3.17,3.17,0,0,1,.52,2.28,1.12,1.12,0,0,1-.92.68h-.11c-1.5,0-5.94-3.75-9.68-7.16.69,1,1.45,2.16,2.27,3.48.38.62.82,1.32.31,1.71s-1.15.85-18-17.44l-.07-.11c-.18-.34-17.55-34-30.3-37.36-6.36-1.69-13.35-3.17-20.75-4.74-7.82-1.65-15.9-3.36-23.87-5.46-17.11-4.52-55.11-22.6-55.49-22.78-5.58-2.67-15.37-8.95-24-14.49l-5.2-3.33c-9.91-6.3-14-11.42-19.09-18.5-5.31-7.37-11.44-19.64-12.62-25.26-.35-1.65-.63-3.95-.92-6.37-.69-5.83-1.56-13.09-4-16.48l-1.15-1.65c-2.82-4-4.85-7-8.87-9-3.11-1.56-6.36-3.25-8.5-4.36-1.09-.57-1.9-1-2.29-1.18-1-.52-6.65.1-8.76.34a9.49,9.49,0,0,1-4.32-.33l-.75-.3,12.19-11c.7-1.3,8.13-14.84,20.38-18.54,5.9-1.78,13.16-1.84,20.45-.15l.12,0c1.51.82,9.51,5.18,18.6,11.19,1.53,1,3.4,2.16,5.55,3.42a32.52,32.52,0,0,0,4.67,3.34c3.06,1.78,10.42,6.73,12.18,7.92a13.72,13.72,0,0,1,1.14-1.19l.25-.24.32.16c4,2,6.7,3.34,6.7,3.34l.53.26-.34.48c-2.84,4.06-6.68,11.14-4.93,12.9,1.19,1.19,2.94.63,4.64.08s3.44-1.11,4.14.63a33,33,0,0,1,1.05,3.7c.81,3.24,1.91,7.69,3.67,9.09.28.22.47.28.54.25.57-.33.6-3.29.28-5.75l-.32-2.37,13.66,22.57c1.14,1.14,16.89,16.94,20.61,22.79,3.58,5.63,15.92,12.76,20.7,12.76,5,0,13.46,5.8,13.82,6.05l9.7,5.3.06.18a6.28,6.28,0,0,1,.31,3.06,1.76,1.76,0,0,1-.77,1.24,4.77,4.77,0,0,1-3,.52l2.78,3.7c3.9,5.2,26.6,32.11,39,41.9,12.8,10.13,37.15,35.41,43,43.25,1.93,2.6,3.64,4.61,5,6.22,2.88,3.37,4.46,5.23,3.81,7.63a1.38,1.38,0,0,1-.92,1A1.85,1.85,0,0,1,375.48,411.26Zm-10.11-1.21.41.29-.41-.3c1-1.41-.69-4-1.43-4.92l-2.68-3.22,3.36,2.49c3.44,2.56,9.53,6.4,11.19,5.83a.4.4,0,0,0,.28-.31c.51-1.88-.87-3.5-3.61-6.71-1.39-1.62-3.11-3.64-5.06-6.27-5.78-7.8-30-33-42.78-43.06C312.19,344,289.39,317,285.48,311.78l-4.3-5.73,1.31.28c.67.14,2.59.39,3.42-.19a.75.75,0,0,0,.35-.56,5.52,5.52,0,0,0-.2-2.41L276.65,298c-.12-.09-8.63-5.9-13.29-5.9-5.07,0-17.72-7.22-21.55-13.22s-20.34-22.5-20.51-22.66l-.07-.1L209.9,237.43c.09,1.82,0,4-1,4.57-.33.18-.88.28-1.66-.34-2-1.62-3.12-6.06-4-9.63a33.9,33.9,0,0,0-1-3.57c-.32-.79-1.09-.63-2.91-.05s-4,1.3-5.65-.32c-2.66-2.67,2.91-11.36,4.49-13.7-.94-.46-3.08-1.52-5.88-2.94a11,11,0,0,0-1.07,1.2l-.29.37-.39-.26c-.09-.06-9.06-6.14-12.51-8.15a32.81,32.81,0,0,1-4.73-3.38c-2.11-1.23-4-2.39-5.53-3.41-8.94-5.91-16.82-10.22-18.46-11.1-7.1-1.63-14.15-1.58-19.87.15-12.19,3.68-19.75,18-19.82,18.12l-.11.14-11,9.87a10.82,10.82,0,0,0,3,.05c3.88-.43,8.12-.84,9.32-.24l2.3,1.19c2.14,1.12,5.39,2.8,8.49,4.35,4.24,2.12,6.34,5.14,9.24,9.31L132,231.3c2.54,3.6,3.42,11,4.14,16.94.28,2.4.56,4.67.89,6.28,1.16,5.51,7.22,17.61,12.46,24.89,5,7,9.06,12,18.82,18.24l5.2,3.33c8.62,5.52,18.38,11.79,23.9,14.43.38.18,38.3,18.21,55.32,22.71,7.94,2.1,16,3.8,23.82,5.46,7.41,1.56,14.41,3,20.79,4.75,13,3.47,29.83,35.71,30.91,37.81,4.89,5.3,12.42,13.25,15.59,16.11a50.78,50.78,0,0,0-5.86-7.89l.7-.71c5.91,5.77,12.73,11.66,13.87,11.52,0,0,.11,0,.12,0,.22-.56-1.11-2.72-2.48-4.39l.72-.7C357.93,406.14,364.53,410.72,365.37,410.05Z" style="fill:#263238"></path><path d="M190.48,225.34c.66,4.24,2.29,5.88,2.29,5.88s9.79-17.63,17-24.16,82.6-39.83,93.7-46.36a128.09,128.09,0,0,0,16.16-11.52c-5.47,3.16-10,5.81-12.72,7.47-12,7.29-49.28,23.62-73.49,33.24s-38.78,17.5-42.57,22.45C190.82,212.34,189.83,221.1,190.48,225.34Z" style="fill:#263238"></path><path d="M192.88,232l-.47-.47c-.07-.07-1.75-1.8-2.42-6.15s.29-12.77.34-13.13v-.14l.08-.11c4-5.19,19.17-13.22,42.79-22.62,22.83-9.07,61-25.66,73.41-33.2,2.53-1.55,6.82-4.06,12.73-7.48l.57.82a128.73,128.73,0,0,1-16.22,11.57c-4.39,2.58-18.53,9.2-34.9,16.88-24.24,11.36-54.42,25.51-58.72,29.42-7,6.4-16.78,23.85-16.88,24Zm-1.58-19.5c-.12,1.13-.91,8.88-.32,12.72a12.8,12.8,0,0,0,1.73,5.05c1.88-3.32,10.24-17.76,16.7-23.62,4.41-4,33.4-17.6,59-29.59,16.35-7.66,30.47-14.28,34.81-16.83a112.63,112.63,0,0,0,10.62-7.16c-2.87,1.68-5.11,3-6.67,4-12.41,7.57-50.69,24.19-73.56,33.28C210.29,199.61,195.3,207.48,191.3,212.54Z" style="fill:#263238"></path><path d="M116.37,215.22a26.81,26.81,0,0,0-5.74,0s15.21,7.14,16.84,8.12,3.27-1,2-2.94-5.22-8.49-5.22-8.49,4.89-1.3,5.87-4.24-2-5.55-1.63-6.86,0,1,4.08-1,3.1-4.9,6.7-4.25,12.08,1,18.28,1.31,6.85,2,13.38,5.55,19.93,9.85,19.93,9.85-9-6.12-12.54-8.16-5.54-4.08-12.83-10.5-23.62-11.08-36.15-7.29-20.12,18.37-20.12,18.37,15.68-1,13.72,2a9.31,9.31,0,0,1-5.55,3.59s2.94,2.94,3.92,4.25S119.31,215.55,116.37,215.22Z" style="fill:#263238"></path><path d="M128.36,224.14a2.29,2.29,0,0,1-1.15-.33c-1.59-1-16.64-8-16.79-8.1l-1.55-.73,1.7-.22a27.67,27.67,0,0,1,5.86,0h0a18.44,18.44,0,0,0,4.48.21.21.21,0,0,0,0-.06c-1-1.27-3.84-4.16-3.87-4.19l-.67-.68.93-.17a8.92,8.92,0,0,0,5.23-3.38c.11-.17.08-.22.07-.25-.61-1-7.41-1.31-13.35-.94l-.89.05.41-.78c.32-.6,7.82-14.81,20.42-18.62s29.09.76,36.63,7.39l3.45,3c4.58,4.06,6.47,5.74,9.31,7.4,3.47,2,12.47,8.12,12.56,8.18l-.49.87c-.13-.07-13.49-6.32-20-9.88-1.71-.94-3-1.73-4.12-2.42-3.15-1.94-4.59-2.83-9.05-3.06l-3.23-.17c-5.66-.28-12.08-.6-15.11-1.15-1.71-.31-2.12.22-2.93,1.28a8.8,8.8,0,0,1-3.46,2.93c-2.2,1-3.27.95-3.82.76a4.7,4.7,0,0,0,.64,1.58c.7,1.35,1.66,3.2,1,5.2-.84,2.52-4.18,3.9-5.6,4.37,1,1.61,3.82,6.33,4.89,7.93a2.64,2.64,0,0,1-.07,3.35A2,2,0,0,1,128.36,224.14Zm-15.8-8.53c4,1.91,13.85,6.55,15.17,7.34a1,1,0,0,0,1.33-.12,1.68,1.68,0,0,0,0-2.11c-1.3-1.95-5.08-8.24-5.24-8.51l-.34-.57.64-.17s4.65-1.27,5.53-3.92c.53-1.6-.28-3.16-.93-4.42a3.78,3.78,0,0,1-.71-2.4c.08-.32.15-.62.45-.75a.69.69,0,0,1,.62.06c.26.14,1,.5,3.28-.62a7.77,7.77,0,0,0,3.09-2.63c.86-1.11,1.6-2.07,3.91-1.65,3,.54,9.35.85,15,1.13l3.23.17c4.72.25,6.33,1.23,9.52,3.2,1.12.7,2.4,1.48,4.08,2.41,3.59,2,9.3,4.78,13.69,6.89-2.5-1.65-5.22-3.41-6.79-4.33-2.92-1.7-4.83-3.4-9.46-7.51-1-.89-2.14-1.9-3.45-3-7.34-6.47-23.43-10.89-35.68-7.19-10.53,3.18-17.6,14.29-19.38,17.34,3.76-.19,12.26-.41,13.36,1.5a1.17,1.17,0,0,1-.1,1.3,9.53,9.53,0,0,1-5,3.58c.92.94,2.63,2.72,3.35,3.68a1,1,0,0,1,.19,1.14c-.48.83-2.23.67-5.54.31h0A24.78,24.78,0,0,0,112.56,215.61ZM121,215Z" style="fill:#263238"></path><path d="M253.82,290.31s8.16,14.36,11.43,12.41,2.93-6.86,2.93-6.86l14.2,11s4.08.87,4.38-1.17a5.73,5.73,0,0,0-.59-3.5s6.42,1.46,8.75-1.45a6.8,6.8,0,0,0,1.46-5.84s11.08.3,12.54-2.91.87-5.25.87-5.25,11.08.29,10.79-4.08-1.16-5.84-1.16-5.84,10.2-.58,9-4.66a21.54,21.54,0,0,0-3.2-6.71s5.83.88,6.12-2-1.46-8.75-1.46-8.75,8.75,3.21,10.21-4.08.58-8.45.58-8.45,1.75,1.16,2.92-3.21a20.68,20.68,0,0,0,.58-7.88s13.41-2.62,14.58-5.83-1.75-7.29-1.75-7.29,10.79-6.12,11.08-9-24.49-5.25-24.49-5.25,26.24-8.45,31.2-14.28,9.33-15.46,5.54-14.58-16.62,5-22.45,6.12a87.21,87.21,0,0,0-9.34,2.33s21.58-14.58,27.12-25.66,5-17.49,2-15.16-11.08,6.41-22.45,11.37a240.69,240.69,0,0,1-24.2,8.75s38.2-23.33,42-33.24,5.54-13.12-.58-9.92-53.66,30-65.61,37.33c-3.37,2-8.75,4.82-15.29,8-5.15,4.64-8.86,8.36-8.06,8.82,2.28,1.31,18.61.33,18.61.33s-7.51,6.53-25.14,12.73-14,9.14-14,9.14l18.28-2.28s-18.61,11.1-15.67,13.05,30,2.94,30,2.94-31.34,4.9-23.18,7.19,26.12,5.22,26.12,5.22-50.61-2-40.16,1.3,31.67,9.8,31.67,9.8-39.18-6.53-32.32-1.31l17.95,13.72S246,233.18,249.57,238.4,260,250.48,261,251.46s-7.83-1-7.51.65,2.29,4.9,2.94,9.47-3.32,3.59-5.22,3.59c-4.25,0-5.55-1-8.16-2.61s1.3-.65-2.62-1.63-4.57-2-6.53-2h-4.57s-2.28-.33-2.93-1.31-9.15-9.47-9.15-9.47,21.22,38.2,23.51,40.16,1.63-5.22,1.63-5.22,7.84,15.34,10.12,14S253.82,290.31,253.82,290.31Z" style="fill:#263238"></path><path d="M284.2,307.51a10.12,10.12,0,0,1-1.92-.2l-.2-.1-13.4-10.34c-.09,1.63-.62,4.74-3.18,6.27a1.93,1.93,0,0,1-1.54.18c-2.93-.77-7.35-7.45-9.43-10.83.05,1.83-.21,4.22-1.77,5.11a1.2,1.2,0,0,1-1,.08c-2.31-.69-6.74-8.49-8.81-12.33,0,1.58-.22,3.29-1.06,3.73-.31.16-.82.23-1.5-.35-2.32-2-22.75-38.73-23.61-40.29l-1.74-3.12,2.53,2.52c.87.87,8.54,8.55,9.2,9.54a4.57,4.57,0,0,0,2.59,1.09h4.5a6.82,6.82,0,0,1,2.89.72,26,26,0,0,0,3.76,1.25c2.2.55,2.2.55,2.24.95l0,.35-.05,0a4.57,4.57,0,0,0,.53.36l.43.27a11.2,11.2,0,0,0,7.47,2.27c.27,0,.59,0,.92,0,1.19.08,2.68.17,3.39-.6a3,3,0,0,0,.42-2.46,29.37,29.37,0,0,0-2.11-7.08,15.56,15.56,0,0,1-.83-2.36.87.87,0,0,1,.2-.75c.61-.69,2.46-.58,5.21-.34.55,0,1.19.1,1.67.12a112,112,0,0,1-10.92-12.56c-.56-.82-.41-1.32-.18-1.6,1.54-1.92,15.72,3.3,23.51,6.36l-15.06-11.5c-.31-.24-1.28-1-.92-1.81,1-2.29,16.42-.4,26.7,1.13-7.14-2.2-18.3-5.64-25-7.73-.92-.28-1.89-.65-1.76-1.37s.3-1.73,21.42-1.45c4.82.07,9.66.19,13.44.3-6-1.07-14.23-2.66-19-4-.48-.14-1.77-.5-1.72-1.42.13-2.12,11.85-4.52,20.16-6-8.08-.39-23.15-1.3-25.43-2.82a1.16,1.16,0,0,1-.54-1c.06-2.6,9.6-8.81,14.23-11.67l-16.18,2-.17-.13a1.56,1.56,0,0,1-.45-1.46c.42-2.4,5.35-5.27,14.64-8.54,13.37-4.7,20.94-9.64,23.73-11.68-4.33.23-15.29.66-17.28-.48a.71.71,0,0,1-.36-.55c-.05-.5-.15-1.43,8.34-9.07l.12-.08c6.93-3.33,12.05-6,15.24-7.94,12-7.33,59.32-34,65.63-37.34,2.48-1.3,3.66-1.55,4.33-.95,1,.93.08,3.42-2,8.87-.31.82-.65,1.69-1,2.62-3.19,8.32-29.44,25.46-38.88,31.42,4.64-1.49,12.89-4.28,20.42-7.57,11.64-5.07,19.57-9.08,22.34-11.3,1.12-.89,1.85-.57,2.19-.3,1.85,1.5.36,8.41-3.47,16.08-4.47,8.94-18.94,19.91-24.81,24.11,1.6-.42,3.8-1,6.48-1.5,3.5-.7,9.68-2.5,14.65-3.94,3.36-1,6.27-1.83,7.79-2.18a1.47,1.47,0,0,1,1.77.58c1.4,2.29-3.1,10.44-6.82,14.81-4.19,4.93-22.71,11.51-29.2,13.7,5.95.63,20.41,2.39,22.32,4.71a1.13,1.13,0,0,1,.29.85c-.28,2.83-8.6,7.84-10.87,9.16.75,1.2,2.53,4.5,1.51,7.29-1.14,3.14-11.85,5.52-14.49,6.06a22,22,0,0,1-.66,7.61c-.54,2-1.3,3.24-2.26,3.61a1.6,1.6,0,0,1-.45.1c.15,1.09.13,3.34-.78,7.92a6,6,0,0,1-2.9,4.33c-2.42,1.36-5.55.8-7.07.4.48,1.77,1.46,5.74,1.23,8.05a2.31,2.31,0,0,1-.94,1.67c-1.21,1-3.36,1-4.66.92a23,23,0,0,1,2.66,6,2.48,2.48,0,0,1-.37,2.24c-1.53,2.16-6.54,2.83-8.41,3a20.22,20.22,0,0,1,.93,5.35,2.8,2.8,0,0,1-.82,2.19c-2.13,2.22-8,2.43-9.88,2.43a10,10,0,0,1-1,5c-1.39,3.06-9.84,3.24-12.38,3.21a7.47,7.47,0,0,1-1.68,5.64c-2,2.45-6.38,2.1-8.31,1.8a6.53,6.53,0,0,1,.25,2.91,1.76,1.76,0,0,1-.77,1.24A4,4,0,0,1,284.2,307.51Zm-1.6-1.16c.75.14,2.53.34,3.31-.21a.75.75,0,0,0,.35-.56,5.28,5.28,0,0,0-.52-3.17l-.58-1,1.12.26c.06,0,6.14,1.35,8.25-1.29A6.29,6.29,0,0,0,295.9,295l-.2-.66h.69c3,.08,11-.24,12.07-2.62a7.93,7.93,0,0,0,.85-4.91l-.18-.65.67,0c.08,0,7.54.17,9.74-2.12a1.8,1.8,0,0,0,.54-1.43c-.27-4.15-1.09-5.6-1.1-5.61l-.4-.7.81,0c1.88-.11,7-.8,8.36-2.65a1.51,1.51,0,0,0,.22-1.38,21,21,0,0,0-3.12-6.54l-.76-1,1.23.19c1,.14,3.8.32,5-.62a1.33,1.33,0,0,0,.55-1c.28-2.78-1.42-8.49-1.44-8.55l-.28-1,.93.34c.05,0,4.3,1.54,7.14-.05a5.11,5.11,0,0,0,2.41-3.66c1.34-6.69.68-8,.65-8.09L338.53,240l2.45,1.66a.61.61,0,0,0,.52,0c.36-.14,1.05-.72,1.63-2.92a20.28,20.28,0,0,0,.58-7.66l-.08-.48.47-.1c5.08-1,13.43-3.37,14.21-5.51,1.06-2.92-1.66-6.79-1.69-6.83l-.32-.45.48-.27c4.09-2.32,10.64-6.72,10.83-8.66a.38.38,0,0,0-.06-.11c-1.53-1.85-15.18-3.76-24-4.59l-2.42-.23,2.31-.74c.26-.09,26.17-8.48,31-14.14,4.34-5.11,7.58-12.25,6.73-13.64,0-.07-.15-.25-.7-.13-1.49.35-4.38,1.19-7.73,2.17-5,1.45-11.19,3.25-14.74,4a88.54,88.54,0,0,0-9.27,2.32l-3.45,1.15,3-2c.22-.15,21.54-14.64,27-25.47,4.44-8.88,4.62-14.13,3.73-14.85-.24-.2-.69.1-.93.3-3.64,2.91-14.28,7.83-22.57,11.44A245.21,245.21,0,0,1,331.22,163L327.57,164l3.25-2c.38-.23,38.1-23.35,41.78-33,.36-.93.7-1.8,1-2.62,1.46-3.75,2.83-7.29,2.31-7.76-.1-.09-.62-.27-3.2,1.09-6.31,3.3-53.57,30-65.58,37.3-3.2,2-8.34,4.63-15.27,8-6.41,5.78-7.68,7.53-7.91,8.05,2.08.8,11.86.55,18.15.18l1.46-.09-1.1,1c-.08.07-7.79,6.67-25.3,12.83-12,4.24-13.79,6.82-14,7.74a.74.74,0,0,0,0,.4l20.36-2.55-2.05,1.22c-6.06,3.62-15.69,10.09-15.74,12.06a.16.16,0,0,0,.09.16c2.31,1.54,22.28,2.58,29.78,2.85l.06,1c-11.41,1.78-23.51,4.44-24.12,5.82a4.69,4.69,0,0,0,1,.38c8.05,2.26,25.89,5.19,26.07,5.22l-.1,1c-14.34-.56-37.19-1-40.75.05a6.25,6.25,0,0,0,.76.28c10.33,3.22,31.45,9.73,31.67,9.79l-.23,1c-15.26-2.54-31.6-4.29-32.55-2.81h0a2,2,0,0,0,.61.62c6.86,5.22,18,13.71,18,13.71l3,2.26-3.46-1.4c-11.49-4.67-24.58-9.06-25.74-8a2,2,0,0,0,.23.42c3.31,4.82,9.54,11.16,11.37,13a.61.61,0,0,1,.16.73c-.23.51-.86.48-3.2.28-1.24-.11-3.78-.32-4.32,0a16.34,16.34,0,0,0,.76,2.1,30.43,30.43,0,0,1,2.17,7.32,3.83,3.83,0,0,1-.68,3.28c-1,1.11-2.85,1-4.18.92-.31,0-.61,0-.86,0a12.16,12.16,0,0,1-8-2.42l-.43-.27c-.84-.52-1.18-.87-1.21-1.25l-1.26-.32a26.23,26.23,0,0,1-3.9-1.3,6,6,0,0,0-2.51-.64h-4.57c-.32,0-2.6-.4-3.35-1.53-.35-.53-3.53-3.8-6.53-6.83,6.78,12.13,20,35.44,21.64,36.86.24.22.37.23.38.22.44-.23.64-2.62.42-5l-.23-2.58,1.18,2.31c2.58,5.05,7.37,13.26,9.25,13.82a.28.28,0,0,0,.18,0c1.62-.93,1.31-4.89,1.06-6.33l-.5-2.85,1.42,2.51c1.8,3.16,7.09,11.53,10,12.29a1,1,0,0,0,.77-.06c3-1.78,2.7-6.35,2.7-6.4l-.08-1.1Z" style="fill:#263238"></path><path d="M304.09,352.83c11.64,9.92,23.78,33.59,23.78,33.59s20.7,22.46,16.91,16.33a52.56,52.56,0,0,0-6.41-8.74s12.25,11.95,14.29,11.66-2-5.25-2-5.25,13.7,12,15.16,9.92-1.46-5.54-1.46-5.54,11.37,8.45,12.25,5.24-2.92-5.54-8.75-13.41S337.49,363.39,325,353.47s-35.58-37.32-39.08-42l5.16,9.19s-21.22-14.36-18.29-9.47,22.53,21.55,22.53,21.55S280.59,323,283.2,327.2s22.53,21.22,29.39,25.14,9.14,7.84,9.14,7.84-14.7-6.53-17.31-7.51C304.29,352.62,304.18,352.68,304.09,352.83Z" style="fill:#263238"></path><path d="M375.48,411.26c-2.3,0-6.74-2.78-9.4-4.6.59,1.24.95,2.78.11,4a1.1,1.1,0,0,1-.78.43c-2.1.25-8.47-4.71-12.28-7.85a3.17,3.17,0,0,1,.52,2.28,1.12,1.12,0,0,1-.92.68c-1.37.2-6-3.66-9.79-7.16.69,1,1.45,2.16,2.27,3.48.38.62.82,1.32.31,1.71s-1.15.85-18-17.44l-.07-.11c-.12-.23-12.24-23.69-23.67-33.44l-.32-.27.21-.36a.75.75,0,0,1,1-.38c2.08.78,11.54,4.95,15.55,6.73a30.08,30.08,0,0,0-7.81-6.16c-7.06-4-26.95-21.06-29.56-25.31-.19-.3-.68-1.09-.16-1.59s3.05.34,7.21,2.82c-6.05-5.31-15.49-13.87-17.5-17.23-.16-.26-.64-1-.12-1.54,1.22-1.17,9.76,4.08,17.36,9.16l-4.12-7.35.83-.55c3.9,5.2,26.6,32.11,39,41.9,12.8,10.13,37.15,35.41,43,43.25,1.93,2.6,3.64,4.61,5,6.22,2.88,3.37,4.46,5.23,3.81,7.63a1.38,1.38,0,0,1-.92,1A1.85,1.85,0,0,1,375.48,411.26Zm-14.22-9.36,3.36,2.49c3.44,2.56,9.53,6.4,11.19,5.83a.4.4,0,0,0,.28-.31c.51-1.88-.87-3.5-3.61-6.71-1.39-1.62-3.11-3.64-5.06-6.27-5.78-7.8-30-33-42.78-43.06-10.2-8.07-27.34-27.67-35.36-37.35l3.23,5.75-1.75-1.18c-7.5-5.08-15.89-10.17-17.72-10.4l.14.26c2.87,4.77,22.23,21.25,22.43,21.42l-.61.8c-4.63-3.09-10.1-6.3-11.54-6.53,0,.08.09.17.17.3,2.49,4.06,22.42,21.09,29.2,25s9.23,7.85,9.33,8l.78,1.34-1.42-.63c-.12-.05-11-4.87-15.59-6.81,10.81,10.25,21.69,31,22.35,32.32,4.9,5.3,12.43,13.25,15.6,16.11a50.78,50.78,0,0,0-5.86-7.89l.7-.71c5.91,5.77,12.73,11.66,13.87,11.52,0,0,.11,0,.12,0,.22-.55-1.13-2.76-2.48-4.39l.72-.7c7,6.1,13.58,10.68,14.42,10,1-1.42-.69-4-1.43-4.93Z" style="fill:#263238"></path><polyline points="228.35 317.08 250.23 325.57 253.49 321.32 238.47 311.2" style="fill:#92E3A9"></polyline><polygon points="250.4 326.17 228.17 317.55 228.53 316.61 250.06 324.97 252.77 321.44 238.19 311.62 238.75 310.79 254.21 321.21 250.4 326.17" style="fill:#263238"></polygon><path d="M216.1,376.27a15.1,15.1,0,0,0,1.34,3.61,7.93,7.93,0,0,0,3.61,3.21s-2-2.67-2.27-4.14a16.54,16.54,0,0,1-.27-2.68Z" style="fill:#fff"></path><path d="M222.56,384.27l-1.7-.72a8.29,8.29,0,0,1-3.87-3.44,15.27,15.27,0,0,1-1.38-3.75l-.11-.59H219v.5a15.86,15.86,0,0,0,.26,2.59,13.78,13.78,0,0,0,2.18,3.93Zm-5.82-7.5a17,17,0,0,0,1.15,2.89,5.65,5.65,0,0,0,1.45,1.77,8.2,8.2,0,0,1-1.05-2.39,17.21,17.21,0,0,1-.26-2.27Z" style="fill:#263238"></path><path d="M223.59,373.86a17.19,17.19,0,0,0,1.74,4.55c1.34,2.41,5.35,3.61,5.35,3.61s-3.07-2.67-3.61-4.68-.93-4.28-.93-4.28Z" style="fill:#fff"></path><path d="M232.76,383.17l-2.22-.67c-.17-.05-4.22-1.29-5.64-3.85a17.13,17.13,0,0,1-1.8-4.69l-.08-.44,3.51-1.11.1.56s.4,2.28.92,4.24,3.43,4.41,3.46,4.44Zm-8.57-9a17,17,0,0,0,1.58,4,6.73,6.73,0,0,0,2.75,2.39,8.68,8.68,0,0,1-1.93-3.09c-.38-1.41-.69-3-.84-3.76Z" style="fill:#263238"></path><path d="M252.36,349.12s3.34.13,4,2.14a6.56,6.56,0,0,1,.4,3.21,5.69,5.69,0,0,0-2.68-3,5.91,5.91,0,0,0-3.21-.53Z" style="fill:#fff"></path><path d="M256.9,356.21l-.6-1.57a5.25,5.25,0,0,0-2.4-2.66,5.59,5.59,0,0,0-2.92-.5l-1.31.25,2.45-3.12h.26c.15,0,3.69.17,4.46,2.48a7,7,0,0,1,.42,3.47Zm-5-5.75a7.53,7.53,0,0,1,2.36.6,5.14,5.14,0,0,1,1.9,1.48,8,8,0,0,0-.3-1.13c-.45-1.37-2.58-1.7-3.31-1.78Z" style="fill:#263238"></path><path d="M250.23,325.57l12.4,6.2s-13.71,4.57-22.85,11.43S216.93,356.26,215,364.42s.32,12.73,2.61,12.41,1.31-5.88,1-8.17a40,40,0,0,1-.33-4.89l4.57-4.57,2-2s-2.94,10.12-2.94,12.73,2.29,5.22,4.58,3.92.32-7.51,1.3-9.8,3.27-9.14,4.9-10.77a9.62,9.62,0,0,1,5.87-2.29c1.31,0,7.19,1.31,11.1.66s3.92-2.61,1-2.61-11.1-.66-11.1-.66a52,52,0,0,1,17.63-11.1c11.1-4.24,19.27-3.59,17.63-5.55s-21.22-10.45-21.22-10.45Z" style="fill:#fff"></path><path d="M217.35,377.34a2.55,2.55,0,0,1-1.88-.93c-1.49-1.63-2.53-5.67-1-12.11,1.47-6.12,9.28-11.13,16.82-16,2.8-1.8,5.69-3.65,8.18-5.52,7.58-5.69,18.4-9.85,21.88-11.11l-11.9-5.95,3.87-5,.36.16c2,.87,19.75,8.59,21.41,10.58a1,1,0,0,1,.27,1.07c-.3.84-1.7,1.11-4.75,1.69a74.42,74.42,0,0,0-13.36,3.58A53.51,53.51,0,0,0,240.6,348c2.33.18,7.71.57,10,.57,1.56,0,2.53.5,2.6,1.35.08,1-1.26,1.88-3.49,2.25-2.89.48-6.7-.06-9.21-.41a19.82,19.82,0,0,0-2-.24,9.21,9.21,0,0,0-5.52,2.14c-1.15,1.16-2.78,5.41-3.85,8.23-.37,1-.7,1.82-.94,2.39a11,11,0,0,0-.18,3.91c.14,2.55.29,5.19-1.34,6.12a2.89,2.89,0,0,1-3,0,5.14,5.14,0,0,1-2.32-4.34c0-2,1.59-8,2.44-11l-5,5a41.17,41.17,0,0,0,.32,4.62l.07.48c.43,2.89.8,6.09-.27,7.53a1.77,1.77,0,0,1-1.2.72ZM251,325.39l12.95,6.47-1.15.39c-.13,0-13.74,4.62-22.71,11.35-2.52,1.89-5.43,3.76-8.24,5.56-7.38,4.74-15,9.65-16.39,15.38-1.45,6.06-.5,9.82.76,11.2a1.55,1.55,0,0,0,1.3.59.8.8,0,0,0,.54-.33c.91-1.22.35-5,.08-6.78l-.07-.49a42,42,0,0,1-.33-5v-.21l8.06-8.05-.55,1.87c0,.1-2.92,10.08-2.92,12.59a4.2,4.2,0,0,0,1.82,3.48,1.93,1.93,0,0,0,2,0c1.08-.62.95-3.05.83-5.19a11.14,11.14,0,0,1,.26-4.36c.24-.56.56-1.4.93-2.36,1.17-3.07,2.77-7.27,4.07-8.57a10.09,10.09,0,0,1,6.23-2.44,20.76,20.76,0,0,1,2.12.25c2.3.32,6.16.87,8.9.41,2-.34,2.67-1,2.66-1.18s-.41-.43-1.6-.43c-2.92,0-10.8-.63-11.14-.66l-1-.08.72-.76a53,53,0,0,1,17.82-11.22,74.68,74.68,0,0,1,13.52-3.63c1.81-.35,3.68-.7,4-1l-.08-.11c-1.13-1.35-12.84-6.75-20.68-10.15Z" style="fill:#263238"></path><circle cx="132.53" cy="197.75" r="2.12" style="fill:#fff"></circle><path d="M132.53,200.38a2.63,2.63,0,1,1,2.62-2.63A2.63,2.63,0,0,1,132.53,200.38Zm0-4.25a1.63,1.63,0,1,0,1.62,1.62A1.63,1.63,0,0,0,132.53,196.13Z" style="fill:#263238"></path><path d="M97.68,215.73l-.33-.94c.11,0,11.91-4.13,20-5l.1,1C109.47,211.65,97.79,215.69,97.68,215.73Z" style="fill:#263238"></path></g></svg>