<svg xmlns="http://www.w3.org/2000/svg" viewBox="0 0 750 500"><g id="background-complete"><path d="M430.9,138.87a6.93,6.93,0,0,0-7.47-.44c-3-6.12-11.47-8.82-17.48-5.59a15.08,15.08,0,0,0-29.41.35,5.79,5.79,0,0,1-1.12,3c-1.23,1.25-3.27.83-5,.69a12.4,12.4,0,0,0-12.5,8.73l75.59-.28C434.15,142.75,433,140.46,430.9,138.87Z" style="fill:#f0f0f0"></path><path d="M709,119.86a4,4,0,0,0-4.33-.26,7.71,7.71,0,0,0-10.14-3.24,8.74,8.74,0,0,0-17,.2,3.35,3.35,0,0,1-.65,1.73c-.71.72-1.89.48-2.91.4a7.18,7.18,0,0,0-7.24,5.06l43.82-.16A3.5,3.5,0,0,0,709,119.86Z" style="fill:#f0f0f0"></path><path d="M109.86,150.31a6,6,0,0,0-6.47-.38,11.53,11.53,0,0,0-15.16-4.85,13.06,13.06,0,0,0-25.48.31,5,5,0,0,1-1,2.58c-1.06,1.08-2.83.72-4.35.6a10.75,10.75,0,0,0-10.83,7.56l65.5-.24A5.22,5.22,0,0,0,109.86,150.31Z" style="fill:#f0f0f0"></path><path d="M344.05,98.37a6,6,0,0,0-6.47-.38,11.52,11.52,0,0,0-15.15-4.85,13.06,13.06,0,0,0-25.48.31A5,5,0,0,1,296,96c-1.06,1.08-2.83.72-4.34.6a10.76,10.76,0,0,0-10.84,7.56l65.5-.24A5.21,5.21,0,0,0,344.05,98.37Z" style="fill:#f0f0f0"></path><path d="M481.94,62.86a8.91,8.91,0,0,0-9.62-.57c-3.9-7.88-14.78-11.36-22.53-7.21a19.42,19.42,0,0,0-37.89.46c-.29,1.36-.48,2.84-1.45,3.84-1.58,1.61-4.22,1.07-6.46.89a16,16,0,0,0-16.12,11.24l97.41-.35C486.13,67.86,484.66,64.91,481.94,62.86Z" style="fill:#f0f0f0"></path><g id="freepik--tree-1--inject-2"><path d="M693.9,169.72a12.52,12.52,0,0,0-7.14-1.79c-1.53-1.86-.29-4.67,1.2-6.57s3.3-4.06,2.74-6.41c-.88-3.53-5.83-3.67-9.41-3-1.31-2.13-1.28-4.78-1.93-7.24s-2.74-5-5.08-4.71-3.77,2.94-6.08,3.48c-2.68.63-5-1.74-7.1-3.51a8.3,8.3,0,0,0-.82-.61h0c.44-7.35,7.43-6.18,13.39-7.18,4.66-.77-7.68-12.54,1.73-16.34a8.36,8.36,0,0,0,4.53-3.13,5.34,5.34,0,0,0-2.06-6.51,12.53,12.53,0,0,0-7.11-1.79c-1.54-1.86-.3-4.67,1.19-6.57s3.29-4.06,2.74-6.41c-.89-3.53-5.83-3.67-9.41-3-1.31-2.13-1.28-4.78-1.92-7.24s-2.73-5-5.08-4.71-3.78,2.93-6.09,3.48c-2.68.63-5-1.74-7.1-3.51s-5.77-2.88-7.21-.55c-.87,1.38-.35,3.33-1.26,4.71-1.55,2.35-5.27.91-7.55-.79s-6-3.23-7.56-.88a9.74,9.74,0,0,0-.9,2.45,6.3,6.3,0,0,1-.92,1.69c-.46-1.63-.6-3.4-1-5.05-.64-2.44-2.73-5-5.08-4.7s-3.78,2.95-6.08,3.48c-2.68.64-5-1.74-7.11-3.51s-5.77-2.89-7.21-.53c-.86,1.38-.34,3.32-1.25,4.7a2.43,2.43,0,0,1-.76.77,11.81,11.81,0,0,0-2.36-.16c-1.54-1.85-.3-4.64,1.19-6.55s3.31-4.08,2.74-6.42c-.88-3.54-5.83-3.66-9.41-3-1.31-2.15-1.28-4.8-1.92-7.25s-2.73-5.06-5.08-4.7-3.78,3-6.09,3.49c-2.68.63-5-1.72-7.1-3.51s-5.77-2.88-7.21-.55c-.86,1.37-.35,3.33-1.26,4.71-1.55,2.33-5.23.89-7.54-.8s-6-3.23-7.57-.88a9.67,9.67,0,0,0-.9,2.46c-1.08,3.14-4.48,4.71-7.11,6.71s-4.72,6-2.5,8.45c1.1,1.23,3.05,1.68,3.59,3.25.68,1.85-1.28,3.65-2.85,5a8.2,8.2,0,0,0-1.57,8.39,7.31,7.31,0,0,1-2.71,1.57c-2.68.63-5-1.74-7.1-3.51s-5.77-2.89-7.22-.55c-.86,1.36-.34,3.32-1.25,4.7-1.55,2.36-5.24.91-7.54-.78s-6-3.23-7.57-.88a9.74,9.74,0,0,0-.9,2.45c-1.08,3.13-4.48,4.7-7.12,6.71s-4.72,6-2.49,8.47c1.05,1.22,2.87,1.72,3.5,3.13-1.85-.74-4-.55-4.85.83s-.34,3.33-1.25,4.71c-1.55,2.35-5.24.91-7.54-.79s-6-3.23-7.58-.88a9.48,9.48,0,0,0-.89,2.47c-1.08,3.13-4.48,4.67-7.12,6.69s-4.72,6-2.49,8.47c1.1,1.2,3,1.68,3.59,3.24.69,1.85-1.27,3.66-2.84,5-2.6,2.19-3.07,8.8.36,10.61,1.44.76,3.59,1.15,3.91,2.58s-1.13,2.52-2.09,3.62a6.07,6.07,0,0,0-.59.9,6.79,6.79,0,0,0,2.68,9.24c.83.38,1.83.71,2.14,1.57a3.37,3.37,0,0,1-.2,1.91,10.44,10.44,0,0,0-.33,3.69,1.67,1.67,0,0,0,.45,1.14,1.71,1.71,0,0,0,1.09.32c5,.21,7.33-1.54,10.36,2.77a3.76,3.76,0,0,0,1,1.1,3.21,3.21,0,0,0,1.36.33c3.4.28,5.6-1.84,8.73-2.24,4.35-.55,5.24,1.67,9.05,3.46,6,2.82,8.87,1.08,10-3a17.63,17.63,0,0,0,.54-3.53,6.14,6.14,0,0,1,2.08-4.71h.1c3.18.27,5.33-1.55,8.12-2.11l1.77-.19c3.31,0,4.41,2,7.84,3.53a11.87,11.87,0,0,0,5.11,1.36c.5,1.85-1.32,3.51-2.88,4.8-2.59,2.21-3.06,8.81.37,10.61,1.43.76,3.59,1.18,3.91,2.59s-1.13,2.52-2.09,3.61a6.54,6.54,0,0,0-.59.89,6.82,6.82,0,0,0,2.68,9.27c.81.39,1.83.7,2.13,1.56a3.35,3.35,0,0,1-.19,1.93,9.68,9.68,0,0,0-.33,3.67,1.69,1.69,0,0,0,.44,1.16,1.72,1.72,0,0,0,1.1.3c5,.22,7.34-1.54,10.36,2.78a3.28,3.28,0,0,0,1,1.09,3.38,3.38,0,0,0,1.36.35c3.4.28,5.6-1.85,8.73-2.24,4.33-.55,5.24,1.67,9,3.46,6,2.81,8.89,1.08,10-3a17.71,17.71,0,0,0,.54-3.55c.44-7.33,7.43-6.17,13.4-7.16a1.17,1.17,0,0,0,1-.68h.38c3.4.29,5.6-1.83,8.73-2.24,4.35-.55,5.24,1.68,9,3.47,6,2.82,8.88,1.08,10-3a17.72,17.72,0,0,0,.54-3.54c.39-5.71,4.7-6.27,9.41-6.71a6.51,6.51,0,0,0,3.44,5.34c.84.38,1.84.71,2.15,1.57a3.41,3.41,0,0,1-.2,1.92,10.27,10.27,0,0,0-.33,3.66,1.65,1.65,0,0,0,.44,1.16,1.86,1.86,0,0,0,1.1.32c4.95.22,7.33-1.54,10.36,2.77a3.61,3.61,0,0,0,1,1.1,3.29,3.29,0,0,0,1.37.33c3.4.28,5.6-1.83,8.73-2.24,4.35-.55,5.24,1.68,9,3.46,6,2.83,8.87,1.08,10-3a17.63,17.63,0,0,0,.54-3.53c.43-7.35,7.44-6.18,13.4-7.18,4.66-.77-7.7-12.54,1.71-16.34a8.36,8.36,0,0,0,4.53-3.13A5.33,5.33,0,0,0,693.9,169.72Z" style="fill:#e0e0e0"></path><path d="M520.72,213.54a10.44,10.44,0,0,0-5.94-1.49c-1.28-1.56-.23-3.88,1-5.48s2.76-3.32,2.28-5.34c-.7-2.95-4.83-3-7.8-2.47-1.11-1.79-1.08-4-1.66-6s-2.16-4.15-4.23-3.9-3.15,2.46-5.08,2.9c-2.22.53-4.16-1.44-5.91-2.92s-4.81-2.4-6-.46c-.71,1.16-.28,2.8-1,3.95-1.31,2-4.38.74-6.3-.67s-5-2.68-6.31-.73a8.91,8.91,0,0,0-.74,2c-.9,2.63-3.72,3.92-5.93,5.6s-4,5-2.07,7.05c.91,1,2.52,1.42,3,2.7.56,1.66-1.08,3.06-2.38,4.15-2.15,1.84-2.55,7.35.3,8.84,1.21.63,3,.83,3.32,2.16s-.93,2.11-1.66,3a5.67,5.67,0,0,0,1,8,7.15,7.15,0,0,0,.73.49c.68.33,1.53.59,1.78,1.32a2.7,2.7,0,0,1-.17,1.66,8.09,8.09,0,0,0-.26,3.06,1.37,1.37,0,0,0,.36,1,1.42,1.42,0,0,0,.91.26c4.12.19,6.11-1.27,8.63,2.31a3.11,3.11,0,0,0,.86.91,2.71,2.71,0,0,0,1.15.28c2.84.24,4.68-1.52,7.28-1.85,3.59-.47,4.35,1.39,7.52,2.88,5,2.34,7.42.9,8.3-2.5a15.35,15.35,0,0,0,.44-2.94c.37-6.12,6.21-5.16,11.17-6,3.88-.65-6.39-10.44,1.43-13.6a6.87,6.87,0,0,0,3.78-2.64A4.44,4.44,0,0,0,520.72,213.54Z" style="fill:#e0e0e0"></path><path d="M596.59,179.71,603,159.44l12.45-16-2.13-1.77-11.74,12.8-2.09-20.28h-3.4s2.79,24.09-1.22,32.91c0,0-14.6,37.14-23.48,45.17a7.6,7.6,0,0,0-1.31,1.58,92.93,92.93,0,0,0-10.32-19.35c3.51-9,11-28.7,13.6-39.26a209.87,209.87,0,0,0,4.5-24.9l-2.91-.32s-8.26,39-21.91,56.75a54.09,54.09,0,0,0-13.6-9.14c-1.11-5.48-1.58-15,2.05-29.91l-2.88-.73a71.29,71.29,0,0,0-5,27.72,50.37,50.37,0,0,1-5.92-3.51c-13.15-9.25-22.4-26-22.4-26l-2.7,2.62s11.23,24.65,26.88,32.89S555.2,209,556,214.28c.22,1.5,2,13.41-.48,34.29-16.65-7.1-49.63-26.66-51.83-28.46l-3.84,5.16,53.37,38.19c.84,50.89-2.92,65.54-2.78,77h31.08c-.76-15.81-7.4-36.93-4.49-99,.25-1.53.51-3.28.76-5.31,2.43-19.05,16.88-45.08,23.76-52.48a143.41,143.41,0,0,1,15.56-14.22l-1.89-4.06Z" style="fill:#e6e6e6"></path></g><g id="freepik-tree-1-inject-2"><path d="M326.46,170.21a12.49,12.49,0,0,0-7.13-1.79c-1.54-1.87-.3-4.67,1.19-6.57s3.31-4.06,2.74-6.41c-.87-3.53-5.83-3.67-9.4-3-1.32-2.14-1.29-4.79-1.93-7.25s-2.75-5.05-5.08-4.7-3.78,2.93-6.09,3.48c-2.68.63-5-1.74-7.1-3.51a7.8,7.8,0,0,0-.81-.61h0c.43-7.36,7.43-6.18,13.39-7.18,4.65-.77-7.69-12.55,1.72-16.34a8.33,8.33,0,0,0,4.53-3.14,5.33,5.33,0,0,0-2.05-6.51,12.53,12.53,0,0,0-7.12-1.78c-1.54-1.87-.3-4.68,1.19-6.57s3.29-4.06,2.75-6.42c-.9-3.52-5.84-3.66-9.41-3-1.32-2.14-1.29-4.79-1.93-7.25s-2.73-5-5.08-4.7-3.78,2.93-6.08,3.48c-2.69.63-5-1.74-7.11-3.51s-5.77-2.89-7.21-.55c-.86,1.38-.34,3.32-1.25,4.7-1.56,2.35-5.27.91-7.56-.78s-6-3.23-7.56-.88a9.22,9.22,0,0,0-.89,2.45,7,7,0,0,1-.93,1.69c-.45-1.63-.59-3.4-1-5-.64-2.45-2.72-5-5.08-4.7s-3.78,2.94-6.08,3.48c-2.68.64-5-1.74-7.1-3.51s-5.77-2.89-7.22-.54c-.86,1.38-.34,3.33-1.25,4.71a2.37,2.37,0,0,1-.75.76,12.69,12.69,0,0,0-2.37-.15c-1.54-1.85-.3-4.64,1.19-6.56s3.31-4.07,2.75-6.41c-.88-3.54-5.84-3.67-9.41-3-1.32-2.15-1.29-4.8-1.93-7.24s-2.73-5.07-5.08-4.71-3.78,2.95-6.08,3.5c-2.69.63-5-1.72-7.11-3.51s-5.77-2.89-7.21-.55c-.86,1.36-.34,3.32-1.25,4.7-1.56,2.34-5.24.9-7.55-.8s-6-3.23-7.57-.87a9.29,9.29,0,0,0-.89,2.46c-1.08,3.13-4.49,4.7-7.12,6.71s-4.72,6-2.49,8.45c1.09,1.22,3,1.68,3.59,3.24.67,1.86-1.29,3.66-2.86,5a8.18,8.18,0,0,0-1.56,8.39A7.43,7.43,0,0,1,158.08,89c-2.68.62-5-1.74-7.1-3.51s-5.77-2.89-7.21-.55c-.86,1.36-.35,3.32-1.26,4.7-1.55,2.35-5.23.91-7.54-.78s-6-3.23-7.57-.88a9.28,9.28,0,0,0-.89,2.44c-1.09,3.14-4.49,4.71-7.12,6.71s-4.72,6-2.5,8.47c1,1.22,2.87,1.73,3.5,3.14-1.85-.74-4-.55-4.84.83s-.35,3.32-1.26,4.7c-1.55,2.35-5.24.91-7.54-.78s-6-3.23-7.57-.88a9.31,9.31,0,0,0-.9,2.46c-1.08,3.14-4.48,4.67-7.12,6.7s-4.72,6-2.49,8.46c1.1,1.21,3,1.68,3.59,3.25.69,1.85-1.27,3.65-2.84,5-2.6,2.19-3.07,8.79.36,10.61,1.45.75,3.6,1.14,3.91,2.57s-1.13,2.53-2.09,3.62a7.32,7.32,0,0,0-.59.9,6.81,6.81,0,0,0,2.68,9.25c.83.37,1.83.7,2.15,1.57a3.48,3.48,0,0,1-.21,1.91,10.4,10.4,0,0,0-.33,3.68,1.69,1.69,0,0,0,.46,1.15,1.71,1.71,0,0,0,1.08.31c5,.22,7.34-1.54,10.36,2.78a3.73,3.73,0,0,0,1,1.09,2.94,2.94,0,0,0,1.36.33c3.41.29,5.6-1.83,8.74-2.24,4.34-.55,5.23,1.68,9,3.47,6,2.82,8.88,1.08,10-3a18.24,18.24,0,0,0,.53-3.53,6.17,6.17,0,0,1,2.08-4.7h.1c3.18.27,5.33-1.55,8.12-2.12l1.77-.18c3.31,0,4.41,2,7.84,3.52a11.88,11.88,0,0,0,5.11,1.37c.51,1.85-1.31,3.51-2.88,4.79-2.59,2.22-3.06,8.82.38,10.62,1.42.75,3.59,1.18,3.9,2.59s-1.13,2.52-2.09,3.6a7,7,0,0,0-.59.9,6.81,6.81,0,0,0,2.68,9.26c.81.4,1.83.71,2.13,1.57a3.27,3.27,0,0,1-.19,1.93,9.89,9.89,0,0,0-.33,3.67,1.76,1.76,0,0,0,.44,1.16,1.8,1.8,0,0,0,1.1.3c5,.22,7.34-1.54,10.36,2.77a3.32,3.32,0,0,0,1,1.1,3.22,3.22,0,0,0,1.36.34c3.41.29,5.6-1.85,8.74-2.24,4.32-.55,5.23,1.68,9,3.47,6,2.8,8.89,1.08,10-3a18.34,18.34,0,0,0,.53-3.54c.44-7.34,7.43-6.18,13.41-7.17a1.17,1.17,0,0,0,1-.67h.37c3.41.28,5.6-1.83,8.74-2.24,4.34-.55,5.23,1.67,9,3.46,6,2.82,8.88,1.08,10-3a17.7,17.7,0,0,0,.53-3.55c.39-5.7,4.7-6.27,9.41-6.71a6.55,6.55,0,0,0,3.45,5.35c.83.38,1.83.71,2.15,1.57a3.47,3.47,0,0,1-.21,1.91,10.33,10.33,0,0,0-.33,3.67,1.71,1.71,0,0,0,.44,1.16,1.81,1.81,0,0,0,1.1.31c5,.22,7.34-1.53,10.36,2.78a3.76,3.76,0,0,0,1,1.1,3.21,3.21,0,0,0,1.36.33c3.4.28,5.6-1.84,8.74-2.25,4.34-.55,5.23,1.68,9,3.47,6,2.82,8.88,1.08,10-3a18.14,18.14,0,0,0,.53-3.52c.44-7.36,7.45-6.18,13.4-7.18,4.66-.77-7.69-12.55,1.71-16.34a8.29,8.29,0,0,0,4.53-3.14A5.32,5.32,0,0,0,326.46,170.21Z" style="fill:#e0e0e0"></path><path d="M153.28,214a10.33,10.33,0,0,0-5.94-1.5c-1.28-1.56-.23-3.88,1-5.47s2.75-3.32,2.27-5.34c-.7-3-4.83-3.06-7.8-2.48-1.11-1.79-1.08-4-1.66-6s-2.15-4.14-4.23-3.89-3.15,2.45-5.08,2.9c-2.22.53-4.16-1.44-5.9-2.92s-4.81-2.41-6-.47c-.71,1.17-.28,2.81-1,4-1.31,2-4.38.75-6.31-.66s-5-2.69-6.3-.73a8.34,8.34,0,0,0-.75,2c-.9,2.62-3.72,3.92-5.92,5.59s-4,5-2.08,7.05c.91,1,2.52,1.43,3,2.71.56,1.66-1.08,3-2.37,4.15-2.16,1.84-2.56,7.35.29,8.84,1.22.63,3,.83,3.32,2.16s-.93,2.1-1.66,3a5.67,5.67,0,0,0,1,8,5.21,5.21,0,0,0,.74.48c.68.33,1.52.6,1.77,1.33a2.7,2.7,0,0,1-.16,1.66,8.27,8.27,0,0,0-.27,3,1.35,1.35,0,0,0,.36,1,1.44,1.44,0,0,0,.92.27c4.11.18,6.1-1.28,8.63,2.3a2.91,2.91,0,0,0,.86.92,2.82,2.82,0,0,0,1.14.28c2.84.23,4.68-1.53,7.29-1.86,3.58-.46,4.34,1.4,7.51,2.89,5,2.34,7.42.89,8.3-2.51a14.52,14.52,0,0,0,.45-2.93c.36-6.13,6.2-5.16,11.16-6,3.89-.65-6.38-10.44,1.43-13.61A6.74,6.74,0,0,0,155,219.5,4.41,4.41,0,0,0,153.28,214Z" style="fill:#e0e0e0"></path><path d="M229.15,180.2l6.39-20.28,12.45-16-2.12-1.77-11.75,12.8L232,134.66h-3.4s2.8,24.09-1.22,32.91c0,0-14.6,37.13-23.48,45.17a8.28,8.28,0,0,0-1.31,1.58A92.68,92.68,0,0,0,192.3,195c3.51-9,11-28.71,13.6-39.26a208.22,208.22,0,0,0,4.5-24.9l-2.91-.32s-8.26,39-21.91,56.74A54.45,54.45,0,0,0,172,178.1c-1.11-5.48-1.58-15,2-29.91l-2.88-.74a71.18,71.18,0,0,0-5,27.72,48.39,48.39,0,0,1-5.93-3.51c-13.15-9.25-22.4-26-22.4-26l-2.69,2.62S146.33,173,162,181.2s25.78,28.3,26.59,33.56c.22,1.5,2,13.42-.48,34.29-16.64-7.1-49.63-26.66-51.82-28.46l-3.84,5.17L185.8,264c.83,50.88-2.93,65.53-2.79,77h31.08c-.76-15.8-7.39-36.93-4.49-99,.25-1.52.51-3.27.76-5.31,2.43-19.05,16.89-45.08,23.76-52.48a143.41,143.41,0,0,1,15.56-14.22l-1.89-4Z" style="fill:#e6e6e6"></path></g><g id="freepik-tree-1-inject-2"><path d="M398.39,263.61a5.63,5.63,0,0,0-3.21-.8c-.69-.84-.13-2.11.54-3S397.21,258,397,257c-.39-1.59-2.62-1.65-4.23-1.34a11.61,11.61,0,0,1-.87-3.26c-.29-1.11-1.23-2.27-2.28-2.12s-1.7,1.32-2.74,1.57c-1.21.28-2.25-.78-3.2-1.58a3.58,3.58,0,0,0-.37-.28h0c.2-3.3,3.35-2.78,6-3.23,2.1-.34-3.46-5.64.78-7.35a3.76,3.76,0,0,0,2-1.41,2.39,2.39,0,0,0-.93-2.93,5.62,5.62,0,0,0-3.2-.8c-.69-.84-.14-2.11.53-3s1.49-1.83,1.24-2.89c-.4-1.59-2.63-1.65-4.23-1.34a11.28,11.28,0,0,1-.87-3.26c-.29-1.11-1.23-2.27-2.29-2.12s-1.7,1.32-2.74,1.57c-1.2.28-2.25-.78-3.19-1.58s-2.6-1.3-3.25-.25c-.39.62-.16,1.5-.56,2.12-.7,1.06-2.38.41-3.41-.35s-2.69-1.46-3.4-.4a4.4,4.4,0,0,0-.4,1.1,2.69,2.69,0,0,1-.42.76c-.2-.73-.26-1.53-.45-2.27-.29-1.1-1.23-2.27-2.29-2.11s-1.7,1.32-2.74,1.56c-1.21.29-2.25-.78-3.2-1.58s-2.59-1.3-3.24-.24c-.39.62-.16,1.5-.57,2.12a.92.92,0,0,1-.34.34,5.45,5.45,0,0,0-1.06-.07c-.69-.83-.14-2.09.54-2.95s1.48-1.83,1.23-2.88c-.39-1.6-2.63-1.65-4.23-1.34a11.46,11.46,0,0,1-.87-3.26c-.29-1.1-1.23-2.28-2.29-2.12s-1.7,1.33-2.74,1.57c-1.2.29-2.25-.77-3.19-1.58s-2.6-1.3-3.25-.24c-.39.61-.15,1.49-.56,2.11-.7,1.05-2.36.4-3.4-.36s-2.7-1.45-3.41-.39a4.33,4.33,0,0,0-.4,1.11c-.49,1.41-2,2.11-3.2,3s-2.13,2.7-1.13,3.8c.5.55,1.37.75,1.62,1.46s-.58,1.64-1.28,2.24a3.69,3.69,0,0,0-.71,3.78,3.4,3.4,0,0,1-1.22.71c-1.21.28-2.25-.79-3.2-1.59s-2.59-1.29-3.24-.24c-.39.61-.16,1.49-.57,2.11-.7,1.06-2.35.41-3.39-.35s-2.7-1.45-3.41-.39a4.13,4.13,0,0,0-.4,1.1c-.49,1.41-2,2.11-3.21,3s-2.12,2.7-1.12,3.81c.47.55,1.29.77,1.58,1.41a1.8,1.8,0,0,0-2.19.37c-.38.62-.15,1.5-.56,2.12-.7,1.06-2.36.41-3.39-.35s-2.71-1.46-3.41-.4a4.36,4.36,0,0,0-.41,1.11c-.48,1.41-2,2.1-3.2,3s-2.12,2.71-1.12,3.81c.49.55,1.37.76,1.62,1.47s-.58,1.64-1.28,2.24c-1.17,1-1.39,4,.16,4.78.65.34,1.62.51,1.76,1.15s-.51,1.14-.94,1.63a3.62,3.62,0,0,0-.27.41,3.07,3.07,0,0,0,1.21,4.16c.37.17.82.32,1,.71a1.41,1.41,0,0,1-.09.86,4.65,4.65,0,0,0-.15,1.66.75.75,0,0,0,.21.51.76.76,0,0,0,.49.14c2.23.1,3.3-.69,4.66,1.25a1.72,1.72,0,0,0,.47.5,1.43,1.43,0,0,0,.61.14c1.53.13,2.52-.82,3.93-1,2-.24,2.36.76,4.07,1.56,2.69,1.27,4,.49,4.5-1.34a7.2,7.2,0,0,0,.24-1.59,2.81,2.81,0,0,1,.94-2.12h0c1.43.12,2.4-.7,3.65-1l.8-.09c1.49,0,2,.89,3.53,1.59a5.27,5.27,0,0,0,2.3.62c.22.83-.6,1.58-1.3,2.15-1.17,1-1.38,4,.17,4.78.64.34,1.61.53,1.76,1.17s-.51,1.13-.94,1.62a3.51,3.51,0,0,0-.27.4,3.06,3.06,0,0,0,1.21,4.17c.36.18.82.32,1,.71a1.45,1.45,0,0,1-.09.87,4.57,4.57,0,0,0-.15,1.65.77.77,0,0,0,.2.52.73.73,0,0,0,.49.13c2.23.1,3.31-.69,4.67,1.25a1.47,1.47,0,0,0,.46.5,1.71,1.71,0,0,0,.62.15c1.53.13,2.52-.83,3.93-1,2-.24,2.36.76,4.06,1.56,2.7,1.27,4,.49,4.51-1.35a7.11,7.11,0,0,0,.24-1.59c.2-3.3,3.35-2.78,6-3.23a.51.51,0,0,0,.43-.3H352c1.54.13,2.52-.82,3.93-1,2-.24,2.36.76,4.08,1.56,2.69,1.27,4,.49,4.5-1.35a8.48,8.48,0,0,0,.24-1.59c.18-2.57,2.12-2.82,4.23-3a3,3,0,0,0,1.56,2.41c.37.16.82.31,1,.7a1.49,1.49,0,0,1-.09.86,4.61,4.61,0,0,0-.15,1.65.79.79,0,0,0,.2.53,1,1,0,0,0,.49.14c2.23.1,3.31-.69,4.67,1.25a1.79,1.79,0,0,0,.46.49,1.53,1.53,0,0,0,.62.15c1.53.12,2.52-.83,3.93-1,1.95-.25,2.36.75,4.07,1.56,2.69,1.27,4,.49,4.5-1.35a7.11,7.11,0,0,0,.24-1.59c.2-3.31,3.36-2.78,6-3.23,2.09-.35-3.47-5.64.77-7.35a3.82,3.82,0,0,0,2-1.41A2.4,2.4,0,0,0,398.39,263.61Z" style="fill:#e0e0e0"></path><path d="M363,261.64l-8.39,6.47,2.87-9.13,5.61-7.2-1-.8-5.29,5.76-.94-9.13h-1.53s1.26,10.84-.55,14.81c0,0-6.57,16.72-10.57,20.33a3.39,3.39,0,0,0-.58.72,41.65,41.65,0,0,0-4.65-8.71c1.58-4,5-12.92,6.12-17.68a94.58,94.58,0,0,0,2-11.2l-1.31-.15s-3.72,17.56-9.86,25.54a24.51,24.51,0,0,0-6.12-4.11c-.5-2.46-.71-6.76.92-13.46l-1.3-.33a32,32,0,0,0-2.26,12.48,25.65,25.65,0,0,1-2.67-1.58c-5.92-4.17-10.08-11.69-10.08-11.69l-1.21,1.18s5.05,11.09,12.09,14.8,11.61,12.74,12,15.1c.1.68.92,6-.21,15.44l-1,6.7c.38,22.9-1.31,29.5-1.25,34.66h14c-.34-7.12-3.33-16.63-2-44.58.11-.69.23-1.47.34-2.39,1.09-8.57,7.6-20.29,10.69-23.62a64.44,64.44,0,0,1,7-6.4Z" style="fill:#e6e6e6"></path></g><path d="M673.73,339.78H493a5.87,5.87,0,0,1-5.86-5.86V70.65A5.86,5.86,0,0,1,493,64.79H673.73a5.86,5.86,0,0,1,5.87,5.86V333.92A5.87,5.87,0,0,1,673.73,339.78ZM493,65a5.61,5.61,0,0,0-5.61,5.61V333.92a5.61,5.61,0,0,0,5.61,5.61H673.73a5.62,5.62,0,0,0,5.62-5.61V70.65A5.62,5.62,0,0,0,673.73,65Z" style="fill:#e0e0e0"></path><path d="M465.31,339.78H284.56a5.87,5.87,0,0,1-5.86-5.86V70.65a5.86,5.86,0,0,1,5.86-5.86H465.31a5.86,5.86,0,0,1,5.86,5.86V333.92A5.87,5.87,0,0,1,465.31,339.78ZM284.56,65A5.61,5.61,0,0,0,279,70.65V333.92a5.61,5.61,0,0,0,5.61,5.61H465.31a5.61,5.61,0,0,0,5.61-5.61V70.65A5.61,5.61,0,0,0,465.31,65Z" style="fill:#e0e0e0"></path><path d="M257,339.78H76.27a5.87,5.87,0,0,1-5.87-5.86V70.65a5.86,5.86,0,0,1,5.87-5.86H257a5.86,5.86,0,0,1,5.86,5.86V333.92A5.87,5.87,0,0,1,257,339.78ZM76.27,65a5.62,5.62,0,0,0-5.62,5.61V333.92a5.62,5.62,0,0,0,5.62,5.61H257a5.61,5.61,0,0,0,5.61-5.61V70.65A5.61,5.61,0,0,0,257,65Z" style="fill:#e0e0e0"></path><rect y="400.85" width="750" height="0.12" style="fill:#e0e0e0"></rect><rect x="653.63" y="430.23" width="55.73" height="0.42" style="fill:#ebebeb"></rect><rect x="495.04" y="434.79" width="14.63" height="0.42" style="fill:#ebebeb"></rect><rect x="40.64" y="417.43" width="72.67" height="0.42" style="fill:#ebebeb"></rect><rect x="128.3" y="417.43" width="10.66" height="0.42" style="fill:#ebebeb"></rect><rect x="173.59" y="424.54" width="157.61" height="0.42" style="fill:#ebebeb"></rect></g><g id="background-simple"><path d="M618,147.65c-6.4-19.83-22.23-36-41.2-44.61S536,93,515.56,97.1c-24,4.82-45.93,16.84-69.44,23.68s-51.17,7.6-70.1-7.93c-7.07-5.8-12.36-13.43-18.41-20.29-20.3-23-52.27-42-82.9-43.56s-63.06,4.31-91.24,29.75C135,122.48,149.13,205.66,149.13,205.66c6.83,32.12,27.18,60.39,53,80.67s56.85,33.09,88.61,41.41c85,22.28,177.56,17.73,255.5-22.93,12.11-6.32,23.75-15.77,33.37-25.46,14.73-14.83,29.45-32.52,36.37-52.24C624.42,203.07,625.79,171.89,618,147.65Z" style="fill:#407BFF"></path><g style="opacity:0.9"><path d="M618,147.65c-6.4-19.83-22.23-36-41.2-44.61S536,93,515.56,97.1c-24,4.82-45.93,16.84-69.44,23.68s-51.17,7.6-70.1-7.93c-7.07-5.8-12.36-13.43-18.41-20.29-20.3-23-52.27-42-82.9-43.56s-63.06,4.31-91.24,29.75C135,122.48,149.13,205.66,149.13,205.66c6.83,32.12,27.18,60.39,53,80.67s56.85,33.09,88.61,41.41c85,22.28,177.56,17.73,255.5-22.93,12.11-6.32,23.75-15.77,33.37-25.46,14.73-14.83,29.45-32.52,36.37-52.24C624.42,203.07,625.79,171.89,618,147.65Z" style="fill:#fff"></path></g></g><g id="Shadow"><path d="M634.87,456.69c0,4.27-116.35,7.72-259.87,7.72S115.13,461,115.13,456.69,231.48,449,375,449,634.87,452.43,634.87,456.69Z" style="fill:#f5f5f5"></path></g><g id="fox-2"><path d="M464.53,353.55a4.24,4.24,0,0,0-1.66,2.73c-.29,2.16,1.95,2.2,8.25,4.71-10.86-.25-21.52,2.75-29.33,10.31-2.11,2.05-4.19,4.84-1.73,8a6.94,6.94,0,0,0,3.93,2.47c15.05,3.55,25.85,15.84,34.64,28.3,8.26,11.72,15.79,24.41,27.29,33C523,455.81,554,463.15,574.5,457.22s28.08-7.64,45.81-31.23c5.64-7.51,8.37-12.56,17.61-28.62l-22.65-3.44c-10.57,11-39.32,14-52.46,6.32-9-5.29-9.22-13.86-14.95-22.62-10.27-15.71-13.9-21.72-31.58-28C499,343.43,478.83,342.52,464.53,353.55Z" style="fill:#407BFF"></path><path d="M502.83,346l4.93,36.35s-14.54,48.09-14,48.78,14.43,18.35,36.11,22.94c29.59,6.27,42.11-8.51,42.11-8.51s-37.54-92.19-39.11-92.19S502.83,346,502.83,346Z" style="opacity:0.30000000000000004"></path><g style="opacity:0.7000000000000001"><path d="M464.53,353.55a4.24,4.24,0,0,0-1.66,2.73c-.29,2.16,1.95,2.2,8.25,4.71-10.86-.25-21.52,2.75-29.33,10.31-2.11,2.05-4.19,4.84-1.73,8a6.94,6.94,0,0,0,3.93,2.47c15.05,3.55,25.85,15.84,34.64,28.3,2.24,3.17,4.42,6.42,6.65,9.64a55.74,55.74,0,0,0-2.93-20l24.2,13.33a44.48,44.48,0,0,0-7.72-24.66l15.05,5.39c2.64.94,6.1,1.68,7.82-.54,1.14-1.46.88-3.54.46-5.34a43.61,43.61,0,0,0-10.72-19.86l17.71,6.64c2.52.94,6.09,1.51,7.25-.92.76-1.6-.16-3.47-1.15-4.94a44.27,44.27,0,0,0-13.76-13.11,13.47,13.47,0,0,1,5.3-1.55,69.35,69.35,0,0,0-10.51-4.6C499,343.43,478.83,342.52,464.53,353.55Z" style="fill:#fff"></path></g><path d="M569.29,279.35s31.6,44.57,38.25,51.14c16.63,16.44,33.5,25.87,46,53.73s12.27,67.34-13.92,73.14-80.06,0-80.06,0-21.31-50.73-32-72-14.27-41.21-15.43-67.57c-1-21.75,0-31.6,0-31.6Z" style="fill:#407BFF"></path><g style="opacity:0.7000000000000001"><path d="M512.13,317.2c-.7-15.81-.38-25.32-.16-29.34l35.93,5.06c.86,6.47-.92,13-3.64,18.95s-6.37,11.37-9.54,17.07a118,118,0,0,0-13.64,40.71C515.33,353.61,513,337.26,512.13,317.2Z" style="fill:#fff"></path></g><g style="opacity:0.30000000000000004"><path d="M557.87,285.68a184.1,184.1,0,0,1-46.4,13.09s.31,7.31.38,10.73c19.58-1.71,39.86-11.77,52.55-26.77Z"></path></g><path d="M527.46,347c-6.77,24.46-19.38,98-19.38,98s-12.44,2.26-15,11.52H518l30.31-58.71,27.18-74.38-28.84-4.94Z" style="fill:#407BFF"></path><path d="M539,450a123.75,123.75,0,0,1,20.19-3.37s-32.07-64.58-18.07-80.27c17.78-19.93,70.38-1.25,70.38-1.25h0c24.58,8.91,41.54,28.15,43.1,51.91.84,12.73.52,24.54-.77,31.81-2.75,15.39-120.82,10-120.55,9.44S528.29,452.77,539,450Z" style="opacity:0.30000000000000004"></path><path d="M538.58,448a59.91,59.91,0,0,1,20.62-1.37s-28.32-66.25-12.65-80.27S618,368.3,618,368.3h0A53.69,53.69,0,0,1,660,417c.83,12.73.52,24.54-.78,31.81-2.75,15.39-127.55,10.44-127.28,9.9S527.86,450.77,538.58,448Z" style="fill:#407BFF"></path><path d="M469.15,169.34c-2.11-1.65-4.57-3.36-7-2.92-3.44.64-4.4,5.1-4.67,8.82a237,237,0,0,0,1.09,44.58c.63,5.31,1.46,10.69,3.56,15.73s8,10.24,12.65,12.68l30.72-42.86A227.41,227.41,0,0,0,469.15,169.34Z" style="fill:#407BFF"></path><g style="opacity:0.7000000000000001"><path d="M496.72,202.93h0S496.74,202.94,496.72,202.93Z" style="fill:#fff"></path></g><g style="opacity:0.7000000000000001"><path d="M463.35,172.25c3.94-2.26,20.38,16.17,20.38,16.17s12.5,14.15,13,14.51L479,220.81a46.56,46.56,0,0,0-8.7,17.72s-3.91-1.18-6.07-10.6S459.42,174.5,463.35,172.25Z" style="fill:#fff"></path></g><path d="M463.35,172.25c3.94-2.26,20.38,16.17,20.38,16.17l4.23,4.32,4-2.73a224.9,224.9,0,0,0-22.82-20.67c-2.11-1.65-4.57-3.36-7-2.92-3.44.64-4.4,5.1-4.67,8.82a234.5,234.5,0,0,0,.41,37.92l4.28-2.91C461,194.18,460.71,173.76,463.35,172.25Z" style="fill:#263238"></path><path d="M520.78,160.48c.67-2.59,1.6-5.45,3.77-6.54,3.13-1.58,6.6,1.38,9.07,4.18a236.71,236.71,0,0,1,26.16,36.1c2.71,4.61,5.32,9.39,6.71,14.67s1.44,11.18-.82,16l-52-13.66A226.44,226.44,0,0,1,520.78,160.48Z" style="fill:#407BFF"></path><path d="M504.93,200.84c.93-.26,21.09-3.54,40.42,6.49s32.73,20.09,41,19.76l-5.24,8.74,9.42-2.25s-.68,58.07-69.32,69.34a49.58,49.58,0,0,1-18.17-.4,113.35,113.35,0,0,1-51-25.69l7.85-1.54L454.42,272S467,270.62,467,258,463.82,212.33,504.93,200.84Z" style="fill:#407BFF"></path><g style="opacity:0.7000000000000001"><path d="M452,276.83l7.85-1.54L454.42,272a16.56,16.56,0,0,0,3.86-1.05c12.94-1.28,24.32,3.83,37.26,2.55,7.38-.73,28-4.26,34.82-7.15,27-11.47,30.32-32.61,55.21-38.26l-.09-1c.29,0,.57,0,.85,0l-5.24,8.74,9.42-2.25s-.68,58.07-69.32,69.34a49.58,49.58,0,0,1-18.17-.4A113.35,113.35,0,0,1,452,276.83Z" style="fill:#fff"></path></g><path d="M530.39,235a1.29,1.29,0,0,1-1.08-.11,10.47,10.47,0,0,0-9.9-.67,1.3,1.3,0,0,1-1.83-.6,1.56,1.56,0,0,1,.67-2,13.06,13.06,0,0,1,12.53.69,1.47,1.47,0,0,1,.44,2A1.52,1.52,0,0,1,530.39,235Z" style="fill:#263238"></path><path d="M535.88,250.14c1.4,4.8.1,9.59-2.9,10.7s-6.58-1.89-8-6.69-.1-9.59,2.91-10.7S534.48,245.34,535.88,250.14Z" style="fill:#263238"></path><path d="M529,248.75c.34,1.65.1,3.1-.54,3.24s-1.45-1.1-1.79-2.76-.1-3.1.54-3.24S528.66,247.09,529,248.75Z" style="fill:#fff"></path><path d="M494.43,239.22a1.32,1.32,0,0,1-1,.45,10.48,10.48,0,0,0-8.89,4.41,1.3,1.3,0,0,1-1.89.4,1.54,1.54,0,0,1-.4-2,13,13,0,0,1,11.16-5.72,1.46,1.46,0,0,1,1.38,1.49A1.5,1.5,0,0,1,494.43,239.22Z" style="fill:#263238"></path><path d="M497.92,257.16c1.4,4.8.1,9.59-2.91,10.7s-6.57-1.89-8-6.69-.1-9.59,2.9-10.69S496.52,252.36,497.92,257.16Z" style="fill:#263238"></path><path d="M491,255.77c.34,1.65.1,3.11-.55,3.24s-1.44-1.1-1.79-2.76-.1-3.1.55-3.23S490.7,254.11,491,255.77Z" style="fill:#fff"></path><path d="M496.09,272a4.77,4.77,0,0,0,1.17,4,10,10,0,0,0,14.27.68,6.41,6.41,0,0,0,1.93-2.66,3.69,3.69,0,0,0-.34-3.31c-.84-1.1-2.29-1.14-3.56-1.09l-10.3.37S496.35,270.15,496.09,272Z" style="fill:#263238"></path><path d="M530,275.32c-6.19,9.09-19.91,13.08-28.4,4.78-2.45-2.57-4.4-6.55-3.84-9.92a14.88,14.88,0,0,0,4.54,9.21c5,5,13.23,5.71,19.46,2.55a23.22,23.22,0,0,0,8.16-6.68l.08.06Z" style="fill:#263238"></path><g style="opacity:0.7000000000000001"><path d="M520.76,184.49s-2,16.46-2.12,15.76c6.36,2,16,1.47,20.52-3.4a10.25,10.25,0,0,1-1.07,7.43,43.69,43.69,0,0,1,9.51-3.09,12.17,12.17,0,0,1-3.45,6.19,46.65,46.65,0,0,1,17.67,8.81s2.4-3.3-1.6-12.1-28.57-45.41-33.07-44.81S520.76,184.49,520.76,184.49Z" style="fill:#fff"></path></g><path d="M527.15,159.28c-4.49.59-6.39,25.21-6.39,25.21s-.34,2.78-.75,6l-4.84.26a225.46,225.46,0,0,1,5.61-30.27c.67-2.59,1.6-5.45,3.77-6.54,3.13-1.58,6.6,1.38,9.07,4.18a236.49,236.49,0,0,1,22.67,30.39l-5.18.29C542.29,175.31,530.18,158.88,527.15,159.28Z" style="fill:#263238"></path><path d="M658,397.92c.68,0,20.27,9.09,17.15,31.05-1.91,13.48-15.92,19.88-15.92,19.88Z" style="fill:#407BFF"></path><path d="M661.65,417.41A122.44,122.44,0,0,1,658,450.94s5.39-9.7,5.25-24.26S660.47,407,660.47,407Z" style="opacity:0.30000000000000004"></path></g><g id="fox-1"><path d="M239.69,270.27S206.5,317.09,199.52,324c-17.47,17.26-35.18,27.17-48.27,56.42s-12.88,70.72,14.61,76.82,84.09,0,84.09,0,22.39-53.28,33.57-75.61,15-43.28,16.21-71c1-22.85,0-33.19,0-33.19Z" style="fill:#407BFF"></path><g style="opacity:0.7000000000000001"><path d="M299.73,310c.73-16.6.4-26.59.16-30.82l-37.74,5.32c-.9,6.79,1,13.68,3.83,19.9s6.69,11.95,10,17.93a123.82,123.82,0,0,1,14.32,42.75C296.36,348.26,298.8,331.09,299.73,310Z" style="fill:#fff"></path></g><path d="M283.63,341.32c7.1,25.68,20.34,103,20.34,103s13.07,2.38,15.75,12.1H293.58l-31.83-61.66L233.2,316.6l30.28-5.19Z" style="fill:#407BFF"></path><path d="M271.49,449.52c-11.26-2.89-16.9-3.86-16.9-3.86s29.38-67.5,14.68-84c-18.68-20.94-73.92-1.32-73.92-1.32h0c-25.82,9.37-43.63,29.57-45.27,54.52-.88,13.37-.55,25.77.82,33.41,2.88,16.17,126.89,10.5,126.6,9.92S282.75,452.41,271.49,449.52Z" style="opacity:0.30000000000000004"></path><path d="M271.94,447.43A62.7,62.7,0,0,0,250.29,446s29.74-69.58,13.28-84.3-75.06,2-75.06,2h0a56.38,56.38,0,0,0-44.13,51.18c-.88,13.37-.54,25.77.82,33.41,2.89,16.17,134,11,133.67,10.39S283.2,450.31,271.94,447.43Z" style="fill:#407BFF"></path><g style="opacity:0.30000000000000004"><path d="M242.09,277.64a80.08,80.08,0,0,0,58.08,16.43c.15-3.7,0-7.37.15-11.07a195.82,195.82,0,0,1-50.89-3.7"></path></g><path d="M315.11,141.1c1.81-2.15,4-4.43,6.55-4.47,3.68-.07,5.61,4.31,6.67,8.08a248.7,248.7,0,0,1,8.28,46.09c.47,5.6.76,11.31-.34,16.94s-6,12.22-10.34,15.71l-40.64-37.6A237.84,237.84,0,0,1,315.11,141.1Z" style="fill:#407BFF"></path><g style="opacity:0.7000000000000001"><path d="M293.83,181.48h0S293.82,181.49,293.83,181.48Z" style="fill:#fff"></path></g><g style="opacity:0.7000000000000001"><path d="M321.68,142.87c-4.52-1.49-17.54,20.93-17.54,20.93s-9.88,17.2-10.31,17.68l22,14.65a49,49,0,0,1,12.7,16.39s3.77-2,4-12.18S326.21,144.35,321.68,142.87Z" style="fill:#fff"></path></g><path d="M321.68,142.87c-4.52-1.49-17.54,20.93-17.54,20.93l-3.45,5.34-4.7-2a236,236,0,0,1,19.12-26.08c1.81-2.15,4-4.43,6.55-4.47,3.68-.07,5.61,4.31,6.67,8.08a246.78,246.78,0,0,1,7.58,39.1l-5-2.09C328.7,164.94,324.73,143.87,321.68,142.87Z" style="fill:#263238"></path><path d="M260.12,142.88c-1.24-2.52-2.79-5.26-5.26-5.93-3.55-1-6.5,2.81-8.45,6.21a248.76,248.76,0,0,0-19.29,42.67c-1.82,5.31-3.49,10.78-3.8,16.51s.87,11.8,4.2,16.24l50.58-25A238.19,238.19,0,0,0,260.12,142.88Z" style="fill:#407BFF"></path><path d="M285,181.06c-1-.07-22.45.81-40.21,15.21s-29.44,27.58-38,29l7.24,7.9-10.16-.33s13,59.6,85.95,56.7a52.08,52.08,0,0,0,18.6-4.24,119,119,0,0,0,47.09-37.21l-8.4.07,4.87-4.55s-13.26,1.27-15.91-11.71S329.67,184.2,285,181.06Z" style="fill:#407BFF"></path><g style="opacity:0.7000000000000001"><path d="M355.46,248.06l-8.4.07,4.87-4.55a17.1,17.1,0,0,1-4.19-.26c-13.58,1.41-24.22,9.08-37.8,10.49-7.75.8-29.71,1.53-37.34,0-30.19-6.09-38.07-27.14-64.87-27.7l-.11-1c-.3.07-.59.14-.88.18l7.24,7.9-10.16-.33s13,59.6,85.95,56.7a52.08,52.08,0,0,0,18.6-4.24A119,119,0,0,0,355.46,248.06Z" style="fill:#fff"></path></g><path d="M262.19,219.82a1.36,1.36,0,0,0,1.08-.35,11,11,0,0,1,10.05-2.77,1.37,1.37,0,0,0,1.75-1,1.62,1.62,0,0,0-1.1-1.88,13.72,13.72,0,0,0-12.74,3.36,1.52,1.52,0,0,0,0,2.12A1.57,1.57,0,0,0,262.19,219.82Z" style="fill:#263238"></path><path d="M264.69,233.21c-.42,5.23,1.93,9.88,5.25,10.39s6.37-3.33,6.79-8.56-1.92-9.89-5.24-10.39S265.12,228,264.69,233.21Z" style="fill:#263238"></path><path d="M271.48,230.32c0,1.78.55,3.22,1.24,3.22s1.26-1.44,1.26-3.21-.55-3.22-1.24-3.22S271.48,228.55,271.48,230.32Z" style="fill:#fff"></path><path d="M303.85,216.07a1.33,1.33,0,0,0,1.11.25A11,11,0,0,1,315,219a1.38,1.38,0,0,0,2,0,1.64,1.64,0,0,0,0-2.18,13.72,13.72,0,0,0-12.7-3.52,1.53,1.53,0,0,0-1.1,1.82A1.58,1.58,0,0,0,303.85,216.07Z" style="fill:#263238"></path><path d="M304.34,233.21c-.43,5.23,1.92,9.88,5.24,10.39s6.37-3.33,6.79-8.56-1.92-9.89-5.24-10.39S304.76,228,304.34,233.21Z" style="fill:#263238"></path><path d="M311.12,230.32c0,1.78.55,3.22,1.24,3.22s1.26-1.44,1.27-3.21-.56-3.22-1.25-3.22S311.13,228.55,311.12,230.32Z" style="fill:#fff"></path><path d="M309.05,252.35a5.06,5.06,0,0,1-.34,4.41,10.56,10.56,0,0,1-14.54,3.71,6.74,6.74,0,0,1-2.56-2.34,3.84,3.84,0,0,1-.34-3.47c.63-1.31,2.11-1.66,3.43-1.88L305.37,251S308.4,250.55,309.05,252.35Z" style="fill:#263238"></path><path d="M275,262.89c8.36,7.5,22.53,8.35,29.31-1.57A15.48,15.48,0,0,0,307,250.88c1.27,3.36.1,7.83-1.87,11-4.25,6.62-13.22,8.81-20.47,6.66a22.4,22.4,0,0,1-9.68-5.64Z" style="fill:#263238"></path><g style="opacity:0.7000000000000001"><path d="M265.21,167.58s5.56,16.51,5.5,15.77c-6.11,3.4-16.12,4.88-21.83.83a10.81,10.81,0,0,0,2.67,7.42,45.77,45.77,0,0,0-10.43-1.18,12.81,12.81,0,0,0,4.85,5.65,49,49,0,0,0-16.32,12.79s-3.16-2.89-.9-12.79,19.81-52.74,24.56-53.08S265.21,167.58,265.21,167.58Z" style="fill:#fff"></path></g><path d="M253.31,143c4.75-.34,11.9,24.59,11.9,24.59s.94,2.78,2,6l5-.75a236.25,236.25,0,0,0-12.16-30c-1.24-2.52-2.79-5.26-5.26-5.93-3.55-1-6.5,2.81-8.45,6.21a247.33,247.33,0,0,0-16.9,36.06l5.38-.8C241.12,162.69,250.11,143.22,253.31,143Z" style="fill:#263238"></path><g style="opacity:0.30000000000000004"><path d="M301.1,196s-9.61-1.62-13.5-4.47q2.08,4,4.19,7.94a18.81,18.81,0,0,1-6-6s1.89,7.11,7.1,8.06l2.08.29-3.79-6.54S298.16,197.49,301.1,196Z"></path></g><path d="M160.53,255.51a4.23,4.23,0,0,0-3-1.22c-2.2,0-1.89,2.27-3.41,8.94-1.44-10.85-6.09-21-14.82-27.56-2.37-1.78-5.46-3.42-8.24-.47a7,7,0,0,0-1.84,4.3c-1.18,15.51-11.72,28.17-22.73,38.85-10.37,10-21.81,19.52-28.54,32.29-10,19-12.47,51-3.38,70.4s12,26.74,38.2,40.68c8.35,4.44,13.8,6.37,31.21,13l-.11-23.06c-12.55-8.8-20.07-36.92-14.47-51.18,3.85-9.81,12.34-11.33,20.16-18.39,14-12.67,19.43-17.22,22.95-35.79C176,288.25,173.73,268,160.53,255.51Z" style="fill:#407BFF"></path><g style="opacity:0.7000000000000001"><path d="M160.53,255.51a4.23,4.23,0,0,0-3-1.22c-2.2,0-1.89,2.27-3.41,8.94-1.44-10.85-6.09-21-14.82-27.56-2.37-1.78-5.46-3.42-8.24-.47a7,7,0,0,0-1.84,4.3c-1.18,15.51-11.72,28.17-22.73,38.85-2.81,2.72-5.7,5.4-8.55,8.12a55.88,55.88,0,0,0,19.4-6q-4.74,13.08-9.49,26.15a44.93,44.93,0,0,0,23.33-11.53q-1.5,7.9-3,15.81c-.53,2.77-.72,6.32,1.75,7.69,1.63.9,3.66.33,5.39-.38a43.84,43.84,0,0,0,18.07-13.76l-3.84,18.65c-.54,2.65-.55,6.29,2,7.07,1.72.51,3.43-.7,4.74-1.92a44.5,44.5,0,0,0,10.89-15.73,13.72,13.72,0,0,1,2.37,5,70.59,70.59,0,0,0,2.93-11.17C176,288.25,173.73,268,160.53,255.51Z" style="fill:#fff"></path></g><path d="M140.77,433.52s-4.73-13.35-1.88-26.63l4.29,4.29.83,23.59Z" style="opacity:0.30000000000000004"></path></g><g id="fox-cub"><path d="M259.67,395.64c-2.63-8.06-5.1-17.51-.28-24.48,2.77-4,7.57-6.31,12.41-6.85a32.8,32.8,0,0,1,14.34,2.15c7.34,2.6,14.43,6.93,18.37,13.64,3.14,5.35,4,11.71,4.27,17.89s0,12.44,1.09,18.53,3.8,12.2,8.81,15.85,12.62,4.08,17.12-.17l5,13.07c-17.12,5.77-38.34,4.65-54-6a80.14,80.14,0,0,1-32-45.42Z" style="fill:#407BFF"></path><g style="opacity:0.30000000000000004"><path d="M259.67,395.64c-2.63-8.06-5.1-17.51-.28-24.48,2.77-4,7.57-6.31,12.41-6.85a32.8,32.8,0,0,1,14.34,2.15c7.34,2.6,14.43,6.93,18.37,13.64,3.14,5.35,4,11.71,4.27,17.89s0,12.44,1.09,18.53,3.8,12.2,8.81,15.85,12.62,4.08,17.12-.17l5,13.07c-17.12,5.77-38.34,4.65-54-6a80.14,80.14,0,0,1-32-45.42Z" style="fill:#fff"></path></g><g style="opacity:0.7000000000000001"><path d="M254.81,393.83l4.86,1.81c-2.63-8.06-5.1-17.51-.28-24.48,2.77-4,7.57-6.31,12.41-6.85a32.8,32.8,0,0,1,14.34,2.15c7.34,2.6,14.43,6.93,18.37,13.64,3,5.1,3.92,11.11,4.23,17l-6.54-4.53a50.55,50.55,0,0,1,2.08,17.33,48.38,48.38,0,0,1-10-8.86,66.14,66.14,0,0,1-.94,14.26,42.63,42.63,0,0,1-15.26-12.13,49.61,49.61,0,0,0-.27,14,54,54,0,0,1-12.67-11,92.79,92.79,0,0,0,.43,11.43A79.38,79.38,0,0,1,254.81,393.83Z" style="fill:#fff"></path></g><polygon points="324.62 434.94 328.68 448.09 325.82 448.42 322.06 434.2 324.62 434.94" style="opacity:0.30000000000000004"></polygon><path d="M379.2,341.26S356.27,365.51,352.15,370c-11.12,12.08-19.68,21.44-27.8,39.58s7.06,44.26,18.08,47.63c16.71,5.1,43.14,0,43.14,0s13.89-33.05,20.82-46.9,9.3-26.84,10.05-44c.63-14.17,0-20.58,0-20.58Z" style="fill:#407BFF"></path><path d="M379.2,341.26S356.27,365.51,352.15,370c-11.12,12.08-19.68,21.44-27.8,39.58s7.06,44.26,18.08,47.63c16.71,5.1,43.14,0,43.14,0s13.89-33.05,20.82-46.9,9.3-26.84,10.05-44c.63-14.17,0-20.58,0-20.58Z" style="fill:#fff;opacity:0.30000000000000004"></path><g style="opacity:0.7000000000000001"><path d="M416.44,365.92c.46-10.3.25-16.5.11-19.12l-23.41,3.3c-.56,4.21.6,8.49,2.37,12.35s4.15,7.4,6.22,11.12a76.86,76.86,0,0,1,8.88,26.51C414.35,389.63,415.87,379,416.44,365.92Z" style="fill:#fff"></path></g><path d="M406.46,385.32c4.41,15.93,12.62,63.87,12.62,63.87s8.1,1.47,9.77,7.5H412.63l-19.74-38.24L375.18,370,394,366.78Z" style="fill:#407BFF"></path><path d="M406.46,385.32c4.41,15.93,12.62,63.87,12.62,63.87s8.1,1.47,9.77,7.5H412.63l-19.74-38.24L375.18,370,394,366.78Z" style="fill:#fff;opacity:0.30000000000000004"></path><path d="M398.93,452.44a81.14,81.14,0,0,0-13.15-2.2s20.89-42.07,11.77-52.29c-11.59-13-45.85-.81-45.85-.81h0c-16,5.81-22.4,12.32-23.42,27.8-.55,8.29,5,24.24,5.8,29,1.79,10,68.76,4.27,68.58,3.91S405.91,454.23,398.93,452.44Z" style="opacity:0.30000000000000004"></path><path d="M399.21,451.14a39,39,0,0,0-13.43-.9S404.23,407.09,394,398s-46.56,1.26-46.56,1.26h0C332.32,402.57,325,415.6,324,424.07c-1.33,11.69,5.86,25.76,6.51,29.85,1.58,10.06,73.14,4.56,73,4.2S406.2,452.93,399.21,451.14Z" style="fill:#407BFF"></path><path d="M399.21,451.14a39,39,0,0,0-13.43-.9S404.23,407.09,394,398s-46.56,1.26-46.56,1.26h0C332.32,402.57,325,415.6,324,424.07c-1.33,11.69,5.86,25.76,6.51,29.85,1.58,10.06,73.14,4.56,73,4.2S406.2,452.93,399.21,451.14Z" style="fill:#fff;opacity:0.30000000000000004"></path><g style="opacity:0.30000000000000004"><path d="M381.81,357.8c13.26-.28,22.27.06,35-3.63,0,0-.22,7.65-.33,10.74-15.05,5.3-25.85-.51-40.26-7.35Z"></path></g><path d="M408.94,253.06c.86-1.65,1.93-3.45,3.58-3.85,2.37-.59,4.27,2,5.51,4.25a164.64,164.64,0,0,1,12.14,28.63,40.87,40.87,0,0,1,2.28,11c.11,3.81-2.11,8.8-4.39,11.7l-31.85-18.38A158.33,158.33,0,0,1,408.94,253.06Z" style="fill:#407BFF"></path><g style="opacity:0.30000000000000004"><path d="M408.94,253.06c.86-1.65,1.93-3.45,3.58-3.85,2.37-.59,4.27,2,5.51,4.25a164.64,164.64,0,0,1,12.14,28.63,40.87,40.87,0,0,1,2.28,11c.11,3.81-2.11,8.8-4.39,11.7l-31.85-18.38A158.33,158.33,0,0,1,408.94,253.06Z" style="fill:#fff"></path></g><g style="opacity:0.7000000000000001"><path d="M401.1,282.34h0S401.09,282.36,401.1,282.34Z" style="fill:#fff"></path></g><g style="opacity:0.7000000000000001"><path d="M413.46,253.24c-3.15-.3-8.29,16.14-8.29,16.14s-3.86,12.59-4.07,13l16.4,6.26a32.39,32.39,0,0,1,10.64,8.75s2.14-1.88.8-8.48S416.61,253.54,413.46,253.24Z" style="fill:#fff"></path></g><path d="M413.46,253.24c-3.15-.3-8.29,16.14-8.29,16.14s-.67,1.84-1.45,4l-3.33-.57a157,157,0,0,1,8.55-19.71c.86-1.65,1.93-3.45,3.58-3.85,2.37-.59,4.27,2,5.51,4.25a164,164,0,0,1,10.66,24.21l-3.56-.62C421.24,266.51,415.58,253.44,413.46,253.24Z" style="fill:#263238"></path><path d="M362.21,258.6c-1.23-1.53-2.71-3.16-4.49-3.23-2.57-.11-4,2.92-4.79,5.53a172.63,172.63,0,0,0-6.53,32,42.54,42.54,0,0,0,0,11.82c.67,3.95,5.31,10.89,8.26,13.4l27.67-27.84A166.07,166.07,0,0,0,362.21,258.6Z" style="fill:#407BFF"></path><g style="opacity:0.30000000000000004"><path d="M362.21,258.6c-1.23-1.53-2.71-3.16-4.49-3.23-2.57-.11-4,2.92-4.79,5.53a172.63,172.63,0,0,0-6.53,32,42.54,42.54,0,0,0,0,11.82c.67,3.95,5.31,10.89,8.26,13.4l27.67-27.84A166.07,166.07,0,0,0,362.21,258.6Z" style="fill:#fff"></path></g><path d="M391.05,281.8c-.75.11-16.17,4.3-26.79,17.4s-17,24.32-23,26.73l6.5,4.35-7.43,1.46s18.84,39.81,71.37,25.6a39.89,39.89,0,0,0,12.84-6.08,89,89,0,0,0,28.3-34l-6.09,1.45,2.82-4s-9.43,3.1-13.41-5.59S424,276.55,391.05,281.8Z" style="fill:#407BFF"></path><path d="M391.05,281.8c-.75.11-16.17,4.3-26.79,17.4s-17,24.32-23,26.73l6.5,4.35-7.43,1.46s18.84,39.81,71.37,25.6a39.89,39.89,0,0,0,12.84-6.08,89,89,0,0,0,28.3-34l-6.09,1.45,2.82-4s-9.43,3.1-13.41-5.59S424,276.55,391.05,281.8Z" style="fill:#fff;opacity:0.30000000000000004"></path><g style="opacity:0.7000000000000001"><path d="M452.84,317.22l-6.09,1.45,2.82-4a13.26,13.26,0,0,1-3.09.52c-9.63,3.25-16.14,10.42-25.78,13.68-5.5,1.85-21.33,6-27.11,6.21-22.88.74-31.93-12.77-51.48-8.7l-.24-.71c-.21.1-.41.2-.61.28l6.5,4.35-7.43,1.46s18.84,39.81,71.37,25.6a39.89,39.89,0,0,0,12.84-6.08A89,89,0,0,0,452.84,317.22Z" style="fill:#fff"></path></g><path d="M381.58,309.22a1,1,0,0,0,.72-.41,8,8,0,0,1,6.67-3.59,1,1,0,0,0,1.09-1,1.18,1.18,0,0,0-1.09-1.15,10,10,0,0,0-8.49,4.43,1.1,1.1,0,0,0,.32,1.51A1.13,1.13,0,0,0,381.58,309.22Z" style="fill:#263238"></path><path d="M384.56,321.57c.65,4.18,3.8,7.38,7,7.14s5.32-3.82,4.66-8-3.79-7.39-7-7.15S383.91,317.38,384.56,321.57Z" style="fill:#263238"></path><path d="M390.38,318.26c.36,1.46,1.18,2.55,1.83,2.41s.88-1.43.53-2.9-1.18-2.55-1.83-2.42S390,316.79,390.38,318.26Z" style="fill:#fff"></path><path d="M413.21,299.34a1,1,0,0,0,.83,0,8,8,0,0,1,7.57.27,1,1,0,0,0,1.44-.31,1.18,1.18,0,0,0-.36-1.55,10,10,0,0,0-9.57-.45,1.1,1.1,0,0,0-.48,1.47A1.15,1.15,0,0,0,413.21,299.34Z" style="fill:#263238"></path><path d="M414.34,314c.63,4.07,3.69,7.19,6.83,7s5.17-3.72,4.54-7.79-3.7-7.19-6.84-7S413.7,309.92,414.34,314Z" style="fill:#263238"></path><path d="M420,310.9c.35,1.47,1.15,2.56,1.78,2.42s.86-1.43.51-2.9-1.15-2.55-1.78-2.42S419.65,309.43,420,310.9Z" style="fill:#fff"></path><path d="M419.39,325.63a3.85,3.85,0,0,1,.49,3.38,8.14,8.14,0,0,1-10.32,5.28,5.16,5.16,0,0,1-2.32-1.32,3,3,0,0,1-.86-2.55c.25-1.1,1.31-1.61,2.27-2l7.73-3.17S418.59,324.38,419.39,325.63Z" style="fill:#263238"></path><path d="M398,335.47c1,2.66,3.65,4.39,6.25,5.17,5.46,1.42,11.2-2.53,13-7.62a12.11,12.11,0,0,0,.3-8.15l.09,0a10.8,10.8,0,0,1,.55,8.53c-2.27,7.05-12.12,11-17.88,5.62a7.32,7.32,0,0,1-2.45-3.48l.1,0Z" style="fill:#263238"></path><g style="opacity:0.7000000000000001"><path d="M369.5,274.62s6.33,10.38,6.18,9.88c-3.63,3.26-10.22,5.82-14.73,3.94a7.57,7.57,0,0,0,3,4.64,31.92,31.92,0,0,0-7.28.81,8.87,8.87,0,0,0,4.18,3.09,34.17,34.17,0,0,0-9.13,11.24s-2.6-1.48-2.6-8.57,5.33-39,8.52-39.93S369.5,274.62,369.5,274.62Z" style="fill:#fff"></path></g><path d="M357.6,259.72c3.18-1,11.9,14.9,11.9,14.9l2.32,3.78,3.31-1.29a164.1,164.1,0,0,0-12.92-18.51c-1.23-1.53-2.71-3.16-4.49-3.23-2.57-.11-4,2.92-4.79,5.53A172.08,172.08,0,0,0,347,288.06l3.54-1.38C352.34,275,355.46,260.37,357.6,259.72Z" style="fill:#263238"></path><path d="M395.21,334.58c-.14,2.06-3.76,3.49-8.08,3.2s-7.72-2.21-7.58-4.27,3.76-3.5,8.09-3.2S395.35,332.51,395.21,334.58Z" style="fill:#eec1bb"></path><path d="M434.77,321.56c1.17,1.7.09,4.49-2.41,6.22s-5.5,1.76-6.67.05-.1-4.48,2.41-6.21S433.6,319.86,434.77,321.56Z" style="fill:#eec1bb"></path></g><g id="Plants"><path d="M698.9,446.08c4.34-3.11,8.73-6.27,12.1-10.51s5.61-9.78,4.91-15.26A41.76,41.76,0,0,0,694.09,444a115.23,115.23,0,0,0-7.09-38.2,32.89,32.89,0,0,0-4.33,19.8,45.15,45.15,0,0,0,6.57,19.31,81.08,81.08,0,0,0-22.47-16.14c5.69,11.87,14.35,20.6,26.14,25.36l2.27,0c9.94.11,18-4.54,23.75-8.9,2.44-1.84,5.47-4.69,5-5.62A119.62,119.62,0,0,0,698.9,446.08Z" style="fill:#263238"></path><path d="M80.5,446.76c4.34-3.11,8.73-6.28,12.1-10.52s5.61-9.77,4.91-15.25a41.71,41.71,0,0,0-21.82,23.69,115.48,115.48,0,0,0-7.09-38.2,32.83,32.83,0,0,0-4.33,19.8,45.19,45.19,0,0,0,6.57,19.32,81.23,81.23,0,0,0-22.47-16.14c5.69,11.87,14.35,20.6,26.14,25.36l2.27,0c9.94.12,18-4.54,23.75-8.9,2.44-1.83,5.47-4.68,5-5.61A119,119,0,0,0,80.5,446.76Z" style="fill:#263238"></path></g></svg>
