<svg xmlns="http://www.w3.org/2000/svg" viewBox="0 0 750 500"><g id="background-complete"><path d="M673.73,327.09H493a5.87,5.87,0,0,1-5.86-5.86V58A5.86,5.86,0,0,1,493,52.1H673.73A5.86,5.86,0,0,1,679.6,58V321.23A5.87,5.87,0,0,1,673.73,327.09ZM493,52.35A5.61,5.61,0,0,0,487.38,58V321.23a5.61,5.61,0,0,0,5.61,5.61H673.73a5.62,5.62,0,0,0,5.62-5.61V58a5.62,5.62,0,0,0-5.62-5.61Z" style="fill:#e0e0e0"></path><path d="M465.31,327.09H284.56a5.87,5.87,0,0,1-5.86-5.86V58a5.86,5.86,0,0,1,5.86-5.86H465.31A5.86,5.86,0,0,1,471.17,58V321.23A5.87,5.87,0,0,1,465.31,327.09ZM284.56,52.35A5.61,5.61,0,0,0,279,58V321.23a5.61,5.61,0,0,0,5.61,5.61H465.31a5.61,5.61,0,0,0,5.61-5.61V58a5.61,5.61,0,0,0-5.61-5.61Z" style="fill:#e0e0e0"></path><path d="M257,327.09H76.27a5.87,5.87,0,0,1-5.87-5.86V58a5.86,5.86,0,0,1,5.87-5.86H257A5.86,5.86,0,0,1,262.87,58V321.23A5.87,5.87,0,0,1,257,327.09ZM76.27,52.35A5.62,5.62,0,0,0,70.65,58V321.23a5.62,5.62,0,0,0,5.62,5.61H257a5.61,5.61,0,0,0,5.61-5.61V58A5.61,5.61,0,0,0,257,52.35Z" style="fill:#e0e0e0"></path><rect y="358.41" width="750" height="0.12" style="fill:#e0e0e0"></rect><circle cx="471.84" cy="74.93" r="22.83" style="fill:#f5f5f5"></circle><path d="M477.13,100.43a6.54,6.54,0,0,0-8.47-6.3A13.94,13.94,0,0,0,456.9,78.32a13.85,13.85,0,0,0-4.6.09,12.19,12.19,0,0,0-22.6,6.16h-.17a11.23,11.23,0,1,0,0,22.45h41.24A6.58,6.58,0,0,0,477.13,100.43Z" style="fill:#e6e6e6"></path><path d="M533,327.61H98.78s13.4-20.63,24.56-37.17c7.07-10.45,13.23-19.28,14.57-20.23,3.42-2.45,12.24-3.92,16.14-13s3.9-12.93,9.52-23.2,27.2-38.15,29.44-38.08,21.69-30.38,29.14-32.83,8.16-9.78,16.17-20.78,34.57-46.24,45.82-47,38.77,52.14,49.41,56,22.45-13.2,26.22-9,11.39,19.8,19.16,32.51,15.6,18.58,16.32,23.4,16.52,13.28,24.41,13.28c2.72,0,8.44,5.93,15,13.79h0c12.69,15.36,28.07,38,28.07,38,2.1,3.06,5.79-1.47,12.14,1S533,327.61,533,327.61Z" style="fill:#f5f5f5"></path><path d="M533,327.61H98.78s13.4-20.63,24.56-37.17c6.48-7.14,11.67-12.48,13.6-13.6,7.09-4.08,12.58-13.34,16.85-14.52a34.06,34.06,0,0,0,9.34-5.09s6.63-20.74,8.16-24.39,21.53-26.47,26-28.09,7.37,3.77,10,6.71S230.45,251,230.45,251l13-8.61s7.53-9.68,10.4-14.52,5.65-3.77,5.65-3.77,13.6-15.6,14.25-19.8,9-2.26,9.52-2.26,14,6.46,14,6.46-14.1-17.75-20.06-13-39.76,37.28-39.76,37.28l-19.27-24.32,9-13s12.38-15.56,13.45-17.68,22.17-31.78,22.54-33.36,18-15.6,20.18-14.54,6.93,4.33,12.24,11.35,7.61,11.27,13.14,20.31,10.07,11.4,11.89,13.67,22,23.94,22.59,24.62l-15.3-24.62s7.58-7.11,12.47-11.95,6.41,1.62,12.83,6.46,7.51,8,12.39,15.5,27.75,34,27.75,34-3.56,5.91-7.42,11.91-6.46,15.7-6.46,15.7l6.8-3.94s14.35-14,16.85-17.58,9.33-10.39,15.28-9.86c5.74.53,15.51,9.21,16.2,9.82h0c12.69,15.35,28.07,38,28.07,38,2.11,3.06,5.79-1.47,12.14,1S533,327.61,533,327.61Z" style="fill:#ebebeb"></path><path d="M646.82,327.6H193s14.35-32,21.68-28.89,30.48-16.13,33.82-23.85,15,2.53,30.57-.74,38.47-53.47,45.52-50.87S352.1,272.8,357,274.55s9.52-13.47,16.25-14.79,12.15,10.45,13.45,13.71,7.88,13.7,7.88,13.7,10.39-3.27,13.68-5.88,19.53-35.21,23-39.85,10.27-8.4,20.61-6.44,14.44-16.32,25.83-27.43,17.26-7.14,21.23-7.67,25.38-36.62,30.6-33.58,28.68,47.15,32.9,52.37,14-3.25,15.2,0,19.34,28.7,19.34,28.7,8.16-.67,13.11,3.26c.83.65,2.42,3.27,4.5,7.18l.41.79C625.36,278.45,646.82,327.6,646.82,327.6Z" style="fill:#f5f5f5"></path><path d="M646.82,327.6H429.56c-6.5-9.52-17.16-25.34-16.82-26.44.49-1.62,20.53-41.22,30.08-46.61s16.67-1,16.67-1l-7.71,21c.57-.75,18.74-24.17,23.55-27.68s3.13-6.5,2.3-8-11.49,2.34-12.06,2.53c.83-.84,22.07-22.34,25.84-24.4s11.65-2.09,11.65-2.09,14.27-18.84,19.16-25.84,17.36,3.37,19.68,11.41,10.64,16.32,10.64,16.32l5.87,16.63s-17.84-13.2-21.14-12.24a76,76,0,0,1-11,1.47s-3.54-10.28-7.94-11.75-13.7,5.44-20.54,14.67c-8.62,11.71,11.74-13.2,21.52,0s11.42,8.8,16.47,5.44,22.62,24,26.54,27.87,11.52-9.28,11.52-9.28-7.57,6.8-6.61,2,1.36-22.22,8.7-23,14.79,20.62,14.79,20.62l-7.78,10.51,21-8.55,10.57,6.7.41.79C625.36,278.45,646.82,327.6,646.82,327.6Z" style="fill:#ebebeb"></path><path d="M199.92,327.6c2.81-4.78,5.29-9.46,4.71-10.27-1.24-1.8,12.49-7.51,15.54-9.34s6.24-3.06,14.13-2.61,5.32,1,7.41,2.61,2.49,13,2.49,13,4.22-7.75,4.3-13-6.8-9.28-6.8-9.28,1.82-3.09,3.41-5.28,9.17-13.44,14.06-14.95,13.68,2.44,17.6,4.88,3.9,2.45,7.33,4.4,2.45,3.92,3.92,10.88,3.91-.64,8.16,2.45,8.75,10,8.75,10-1.26-8.65-4.32-12.42-4.43-13.84-4.43-13.84l4.43-10.32s9.91-17.06,15.83-24.88,5.81-4.4,12.76,2.45,6.25,5.86,10.26,13.87,16.88,27.45,16.88,27.45l-.39-7.59s8.85-9.28,12.75-6.35,6.8,9.3,6.8,9.3l-4.43,4.64s-5.35,10.51-7.62,11.94,5.7-1.92,12.05-4.22,11.25-10.42,15.16-7.72c2.85,2,19.86,22.91,28.9,34.16Z" style="fill:#e0e0e0"></path><path d="M125.15,105.14a6.1,6.1,0,0,1,6.1-6.1h0a6.06,6.06,0,0,1,1.74.26,12.94,12.94,0,0,1,12.77-14.77,13.39,13.39,0,0,1,2.37.21,11.28,11.28,0,0,1,20.92,5.71h.19a10.4,10.4,0,0,1,0,20.79H131.07A6.09,6.09,0,0,1,125.15,105.14Z" style="fill:#ebebeb"></path><path d="M596.11,93.21a5.42,5.42,0,0,1,5.42-5.42h0a4.78,4.78,0,0,1,1.55.23,13.26,13.26,0,0,1-.11-1.67,11.45,11.45,0,0,1,13.58-11.28,10,10,0,0,1,18.61,5.07h.17a9.25,9.25,0,0,1,0,18.5h-34A5.42,5.42,0,0,1,596.11,93.21Z" style="fill:#e0e0e0"></path><path d="M508,127.07a3.74,3.74,0,0,1,3.73-3.74h0a3.3,3.3,0,0,1,1.08.17,8.88,8.88,0,0,1-.07-1.15,7.86,7.86,0,0,1,7.82-7.91,7.09,7.09,0,0,1,1.53.14,6.91,6.91,0,0,1,12.82,3.49H535a6.38,6.38,0,0,1,0,12.74h-23.4A3.72,3.72,0,0,1,508,127.07Z" style="fill:#f0f0f0"></path><path d="M301.12,80.7A3.74,3.74,0,0,1,304.85,77h0a3.36,3.36,0,0,1,1.09.17,7.41,7.41,0,0,1-.08-1.15,7.86,7.86,0,0,1,7.82-7.91,7.09,7.09,0,0,1,1.53.14A6.91,6.91,0,0,1,328,71.7h.12a6.38,6.38,0,0,1,0,12.74H304.76A3.73,3.73,0,0,1,301.12,80.7Z" style="fill:#f0f0f0"></path><g id="freepik--tree-1--inject-2"><path d="M151.34,263.61a6,6,0,0,0-3.44-.87c-.74-.9-.15-2.25.57-3.16s1.6-2,1.33-3.1c-.43-1.7-2.82-1.77-4.54-1.43-.64-1-.62-2.31-.93-3.5s-1.32-2.43-2.45-2.26S140.06,250.7,139,251c-1.3.31-2.42-.84-3.43-1.69a2.19,2.19,0,0,0-.39-.29h0c.21-3.55,3.58-3,6.46-3.47,2.24-.37-3.71-6,.83-7.88a4,4,0,0,0,2.18-1.51,2.57,2.57,0,0,0-1-3.14,6.08,6.08,0,0,0-3.43-.86c-.74-.9-.15-2.25.57-3.17s1.59-2,1.33-3.09c-.43-1.7-2.82-1.77-4.54-1.44-.64-1-.62-2.3-.93-3.49s-1.32-2.43-2.45-2.27-1.82,1.42-2.93,1.68c-1.3.3-2.42-.84-3.43-1.69s-2.78-1.39-3.48-.27c-.41.67-.16,1.61-.6,2.27-.75,1.14-2.54.44-3.65-.38s-2.88-1.55-3.64-.42A4.51,4.51,0,0,0,116,221a3.28,3.28,0,0,1-.45.82c-.22-.79-.29-1.65-.49-2.44-.31-1.18-1.32-2.43-2.45-2.27s-1.82,1.42-2.93,1.68c-1.3.31-2.42-.84-3.43-1.69s-2.78-1.39-3.48-.26c-.41.67-.16,1.6-.6,2.27a1.16,1.16,0,0,1-.36.37,5.61,5.61,0,0,0-1.15-.08c-.74-.89-.14-2.23.58-3.16s1.59-2,1.32-3.09c-.42-1.71-2.81-1.77-4.54-1.44a12.22,12.22,0,0,1-.92-3.49c-.32-1.18-1.32-2.44-2.45-2.27s-1.83,1.42-2.94,1.69c-1.29.3-2.41-.83-3.42-1.7s-2.79-1.39-3.48-.26c-.42.66-.17,1.6-.61,2.27-.75,1.13-2.52.43-3.63-.39s-2.9-1.55-3.66-.42a4.83,4.83,0,0,0-.43,1.19c-.52,1.51-2.16,2.26-3.43,3.23s-2.28,2.9-1.2,4.08c.53.59,1.46.81,1.73,1.56.32.9-.62,1.77-1.38,2.41a3.93,3.93,0,0,0-.75,4,3.6,3.6,0,0,1-1.31.76c-1.29.3-2.41-.84-3.43-1.69s-2.78-1.4-3.47-.27c-.42.66-.17,1.6-.61,2.27-.75,1.13-2.52.44-3.64-.38s-2.89-1.56-3.65-.42a4.9,4.9,0,0,0-.43,1.18c-.52,1.51-2.16,2.27-3.43,3.23s-2.28,2.9-1.2,4.09c.5.59,1.38.83,1.68,1.51a1.89,1.89,0,0,0-2.33.4c-.42.66-.17,1.6-.61,2.27-.75,1.13-2.52.44-3.64-.38s-2.89-1.56-3.65-.42A4.51,4.51,0,0,0,41.3,237c-.52,1.52-2.16,2.26-3.43,3.23s-2.28,2.91-1.2,4.09c.53.58,1.46.8,1.73,1.56s-.62,1.76-1.37,2.4c-1.26,1.06-1.48,4.25.17,5.12.7.37,1.73.56,1.89,1.24s-.55,1.22-1,1.75a3.35,3.35,0,0,0-.29.44,3.28,3.28,0,0,0,1.3,4.45c.4.18.88.34,1,.76a1.61,1.61,0,0,1-.1.92,5.09,5.09,0,0,0-.16,1.78.82.82,0,0,0,.22.55.84.84,0,0,0,.53.15c2.38.11,3.53-.74,5,1.34a1.81,1.81,0,0,0,.5.53,1.53,1.53,0,0,0,.66.16c1.64.13,2.7-.89,4.21-1.08,2.1-.27,2.53.81,4.36,1.67,2.89,1.36,4.28.52,4.83-1.45a8.72,8.72,0,0,0,.26-1.7,3,3,0,0,1,1-2.27h0c1.53.13,2.57-.74,3.91-1l.86-.09c1.59,0,2.12.95,3.78,1.7a5.71,5.71,0,0,0,2.46.66c.25.89-.63,1.69-1.39,2.31-1.25,1.07-1.47,4.25.18,5.12.69.37,1.74.57,1.89,1.25s-.55,1.22-1,1.74a2.87,2.87,0,0,0-.28.43,3.29,3.29,0,0,0,1.29,4.47c.39.19.88.34,1,.76a1.49,1.49,0,0,1-.09.93,4.58,4.58,0,0,0-.15,1.77.8.8,0,0,0,.21.56.88.88,0,0,0,.53.14c2.39.1,3.53-.74,5,1.34a1.81,1.81,0,0,0,.5.53,1.69,1.69,0,0,0,.66.16c1.64.14,2.7-.89,4.21-1.08,2.09-.26,2.53.81,4.36,1.67,2.89,1.36,4.28.52,4.83-1.44a8.94,8.94,0,0,0,.26-1.71c.21-3.54,3.58-3,6.46-3.46a.57.57,0,0,0,.47-.32h.18c1.64.13,2.7-.89,4.21-1.08,2.1-.27,2.53.81,4.37,1.67,2.88,1.36,4.28.52,4.82-1.45a8.84,8.84,0,0,0,.26-1.7c.19-2.76,2.27-3,4.53-3.24a3.18,3.18,0,0,0,1.67,2.58c.4.18.88.34,1,.75a1.57,1.57,0,0,1-.1.93,5,5,0,0,0-.15,1.77.8.8,0,0,0,.21.56,1,1,0,0,0,.53.15c2.39.1,3.54-.74,5,1.33a1.81,1.81,0,0,0,.5.53,1.4,1.4,0,0,0,.66.16c1.64.14,2.7-.88,4.21-1.08,2.1-.26,2.53.81,4.37,1.67,2.88,1.36,4.28.52,4.82-1.44a9,9,0,0,0,.26-1.7c.21-3.55,3.59-3,6.46-3.47,2.25-.37-3.71-6,.83-7.87a4,4,0,0,0,2.18-1.52A2.56,2.56,0,0,0,151.34,263.61Z" style="fill:#e0e0e0"></path><path d="M67.82,284.74A5,5,0,0,0,65,284c-.62-.75-.11-1.87.48-2.64s1.33-1.6,1.1-2.58c-.34-1.42-2.33-1.47-3.77-1.19a11.29,11.29,0,0,1-.8-2.91c-.28-1-1-2-2-1.88s-1.52,1.18-2.44,1.4c-1.08.25-2-.7-2.85-1.41s-2.32-1.16-2.91-.22c-.34.56-.13,1.35-.49,1.9-.64,1-2.12.36-3-.32s-2.4-1.3-3-.35a3.51,3.51,0,0,0-.36,1c-.44,1.27-1.8,1.89-2.86,2.7s-1.91,2.4-1,3.4c.44.49,1.22.69,1.44,1.3.27.8-.52,1.48-1.15,2-1,.89-1.23,3.55.15,4.27.58.3,1.43.4,1.6,1s-.45,1-.8,1.45a2.74,2.74,0,0,0,.48,3.84L43,295c.33.16.74.29.86.64a1.37,1.37,0,0,1-.08.8,3.84,3.84,0,0,0-.13,1.47.64.64,0,0,0,.17.46.71.71,0,0,0,.44.13c2,.09,2.95-.61,4.16,1.11a1.36,1.36,0,0,0,.42.44,1.18,1.18,0,0,0,.55.14c1.37.11,2.26-.74,3.51-.9,1.73-.22,2.1.68,3.63,1.4,2.4,1.12,3.58.43,4-1.21a7.62,7.62,0,0,0,.22-1.42c.17-3,3-2.49,5.38-2.89,1.87-.31-3.08-5,.69-6.56a3.28,3.28,0,0,0,1.82-1.27A2.13,2.13,0,0,0,67.82,284.74Z" style="fill:#e0e0e0"></path><path d="M104.41,268.43l3.08-9.78,6-7.72-1-.86-5.66,6.17-1-9.78h-1.64s1.35,11.62-.59,15.88c0,0-7,17.9-11.32,21.78a3.54,3.54,0,0,0-.63.76,45,45,0,0,0-5-9.33c1.69-4.33,5.32-13.85,6.56-18.94a101.59,101.59,0,0,0,2.17-12l-1.4-.16s-4,18.81-10.57,27.37a26,26,0,0,0-6.56-4.41c-.53-2.64-.76-7.24,1-14.42l-1.39-.36A34.49,34.49,0,0,0,74,266a24.13,24.13,0,0,1-2.86-1.69c-6.34-4.46-10.8-12.52-10.8-12.52l-1.3,1.26s5.41,11.89,13,15.86,12.43,13.65,12.82,16.18c.11.73,1,6.47-.23,16.54-8-3.43-23.93-12.86-25-13.72l-1.85,2.49L83.5,308.81c.41,24.54-1.45,44.19-1.38,49.72h15c-.37-7.62-3.53-30.4-2.12-60.35.11-.73.24-1.58.36-2.56,1.17-9.19,8.14-21.74,11.46-25.31a68.86,68.86,0,0,1,7.5-6.85l-.91-2Z" style="fill:#e6e6e6"></path></g><g id="freepik-tree-1-inject-2"><path d="M604.06,261.06a4.27,4.27,0,0,0,2.32,1.61c4.81,1.94-1.51,7.95.87,8.35,3,.51,6.63-.09,6.85,3.67a8.43,8.43,0,0,0,.28,1.8c.57,2.08,2.06,3,5.11,1.53,2-.91,2.4-2,4.62-1.77,1.61.21,2.73,1.29,4.47,1.15a1.63,1.63,0,0,0,.69-.17,1.77,1.77,0,0,0,.53-.56c1.55-2.21,2.77-1.31,5.3-1.42a1,1,0,0,0,.56-.16.83.83,0,0,0,.22-.6,5.36,5.36,0,0,0-.16-1.87,1.73,1.73,0,0,1-.11-1c.16-.44.68-.61,1.1-.8a3.33,3.33,0,0,0,1.76-2.73c2.41.22,4.61.51,4.81,3.43a9.2,9.2,0,0,0,.27,1.81c.58,2.08,2.06,3,5.12,1.53,1.94-.91,2.4-2.05,4.62-1.77,1.6.21,2.73,1.29,4.46,1.14h.2a.6.6,0,0,0,.49.35c3.06.5,6.63-.09,6.85,3.66a9.21,9.21,0,0,0,.28,1.81c.57,2.09,2.06,3,5.12,1.53,1.94-.91,2.4-2.05,4.61-1.77,1.61.2,2.73,1.29,4.47,1.15a1.64,1.64,0,0,0,.69-.18,1.58,1.58,0,0,0,.53-.56c1.55-2.2,2.77-1.31,5.3-1.42a.91.91,0,0,0,.56-.15.86.86,0,0,0,.23-.59,5.19,5.19,0,0,0-.17-1.88,1.65,1.65,0,0,1-.1-1c.15-.44.67-.61,1.09-.81a3.48,3.48,0,0,0,1.37-4.73,4.53,4.53,0,0,0-.3-.46c-.49-.55-1.23-1.12-1.07-1.84s1.27-.94,2-1.32c1.75-.93,1.51-4.3.19-5.43-.8-.66-1.73-1.51-1.48-2.45a6,6,0,0,0,2.62-.7c1.75-.8,2.31-1.82,4-1.8l.91.09c1.43.29,2.52,1.22,4.15,1.09h.05a3.09,3.09,0,0,1,1.06,2.4,8.43,8.43,0,0,0,.28,1.8c.57,2.09,2.06,3,5.11,1.53,2-.91,2.4-2,4.62-1.77,1.61.21,2.73,1.29,4.47,1.15a1.5,1.5,0,0,0,.69-.17,1.77,1.77,0,0,0,.53-.56c1.55-2.2,2.77-1.31,5.3-1.42a.83.83,0,0,0,.55-.16.86.86,0,0,0,.24-.58,5.73,5.73,0,0,0-.17-1.89,1.71,1.71,0,0,1-.11-1c.16-.45.68-.61,1.1-.81a3.47,3.47,0,0,0,1.37-4.72,3.64,3.64,0,0,0-.3-.46c-.49-.56-1.23-1.12-1.07-1.85s1.26-.93,2-1.32c1.75-.93,1.51-4.3.18-5.42-.8-.68-1.8-1.6-1.45-2.55s1.27-1,1.84-1.66c1.13-1.25.07-3.29-1.28-4.33s-3.08-1.81-3.64-3.42a4.74,4.74,0,0,0-.45-1.26c-.81-1.2-2.7-.41-3.87.45s-3.07,1.61-3.86.4c-.46-.7-.2-1.7-.64-2.4a2,2,0,0,0-2.48-.42c.32-.73,1.25-1,1.79-1.61,1.14-1.26.07-3.3-1.27-4.32s-3.09-1.83-3.64-3.43a4.93,4.93,0,0,0-.46-1.25c-.8-1.21-2.69-.42-3.87.44s-3.06,1.61-3.85.4c-.47-.7-.2-1.7-.64-2.4-.74-1.19-2.62-.62-3.69.28s-2.26,2.12-3.63,1.8a3.74,3.74,0,0,1-1.39-.81,4.17,4.17,0,0,0-.8-4.28c-.8-.68-1.8-1.61-1.46-2.55s1.28-1,1.84-1.66c1.14-1.25.07-3.29-1.28-4.32s-3.08-1.83-3.63-3.43a5.15,5.15,0,0,0-.46-1.26c-.8-1.2-2.69-.41-3.87.45s-3.06,1.6-3.86.41c-.46-.7-.2-1.71-.64-2.4-.73-1.2-2.61-.64-3.68.28s-2.26,2.11-3.63,1.79c-1.18-.28-1.91-1.6-3.11-1.79s-2.27,1.16-2.6,2.41-.31,2.6-1,3.7c-1.82-.35-4.35-.29-4.8,1.52-.29,1.2.64,2.3,1.4,3.28s1.39,2.41.61,3.35a6.21,6.21,0,0,0-1.21.08,1.21,1.21,0,0,1-.39-.39c-.46-.71-.2-1.7-.64-2.41-.74-1.2-2.61-.63-3.68.28s-2.26,2.12-3.63,1.79c-1.18-.27-1.91-1.6-3.11-1.78s-2.27,1.16-2.6,2.41c-.22.84-.29,1.74-.52,2.58a3.34,3.34,0,0,1-.47-.87,5.23,5.23,0,0,0-.46-1.25c-.8-1.2-2.69-.42-3.86.45s-3.07,1.6-3.87.4c-.46-.7-.2-1.7-.64-2.4-.73-1.2-2.61-.63-3.68.28s-2.26,2.11-3.63,1.79c-1.18-.28-1.91-1.6-3.11-1.78s-2.27,1.15-2.6,2.41-.31,2.61-1,3.7c-1.83-.35-4.36-.28-4.81,1.52-.28,1.2.64,2.31,1.4,3.28s1.39,2.4.61,3.36a6.38,6.38,0,0,0-3.64.91,2.72,2.72,0,0,0-1.05,3.33,4.3,4.3,0,0,0,2.32,1.6c4.8,1.94-1.5,8,.88,8.35,3,.51,6.62-.09,6.84,3.67h0c-.14.1-.28.2-.41.31-1.08.91-2.26,2.12-3.64,1.8-1.17-.28-1.91-1.61-3.1-1.78s-2.27,1.14-2.6,2.4-.31,2.62-1,3.71c-1.82-.36-4.36-.29-4.8,1.52-.29,1.2.64,2.31,1.4,3.28s1.39,2.4.61,3.35a6.42,6.42,0,0,0-3.65.92A2.72,2.72,0,0,0,604.06,261.06Z" style="fill:#e0e0e0"></path><path d="M693.55,280.26a5.33,5.33,0,0,1,3-.76c.65-.8.12-2-.51-2.8s-1.41-1.69-1.16-2.73c.35-1.51,2.47-1.56,4-1.26a11.4,11.4,0,0,0,.85-3.09c.3-1,1.1-2.12,2.16-2s1.62,1.25,2.6,1.48c1.14.27,2.13-.74,3-1.49s2.46-1.23,3.08-.24c.36.6.14,1.44.52,2,.67,1,2.24.38,3.22-.34s2.55-1.37,3.23-.37a4.33,4.33,0,0,1,.38,1c.46,1.34,1.9,2,3,2.86s2,2.54,1.06,3.6c-.47.52-1.29.73-1.53,1.39-.29.84.55,1.56,1.21,2.12,1.1.94,1.31,3.75-.15,4.52-.62.32-1.52.42-1.7,1.1s.48,1.08.85,1.54a2.91,2.91,0,0,1-.51,4.07,3.11,3.11,0,0,1-.38.25c-.35.17-.78.3-.91.68a1.35,1.35,0,0,0,.09.84,4.12,4.12,0,0,1,.13,1.56.7.7,0,0,1-.18.5.78.78,0,0,1-.47.13c-2.1.1-3.12-.65-4.41,1.18a1.52,1.52,0,0,1-.44.47,1.3,1.3,0,0,1-.58.14c-1.45.12-2.4-.78-3.73-.95-1.83-.24-2.22.71-3.84,1.48-2.54,1.19-3.79.46-4.24-1.28a8.5,8.5,0,0,1-.23-1.5c-.18-3.13-3.17-2.64-5.7-3.07-2-.33,3.26-5.33-.73-6.95a3.48,3.48,0,0,1-1.94-1.35A2.27,2.27,0,0,1,693.55,280.26Z" style="fill:#e0e0e0"></path><path d="M654.78,263l-3.27-10.36-6.36-8.18,1.08-.91,6,6.54,1.06-10.36H655s-1.43,12.31.63,16.82c0,0,7.46,19,12,23.09a3.91,3.91,0,0,1,.66.8,48.19,48.19,0,0,1,5.28-9.89c-1.79-4.59-5.64-14.67-7-20.06a107.44,107.44,0,0,1-2.3-12.73l1.49-.16s4.22,19.93,11.19,29a27.88,27.88,0,0,1,7-4.67c.57-2.8.81-7.68-1-15.29l1.47-.37A36.56,36.56,0,0,1,687,260.41a24.8,24.8,0,0,0,3-1.8c6.73-4.73,11.46-13.27,11.46-13.27l1.37,1.34s-5.74,12.6-13.73,16.81S675.93,278,675.52,280.64c-.12.77-1,6.86.24,17.53,8.51-3.63,25.37-13.63,26.49-14.55l2,2.64-27.28,19.52c-.42,26,1.54,46.83,1.47,52.69H662.51c.4-8.08,3.74-32.22,2.26-64-.13-.78-.26-1.67-.39-2.71-1.24-9.74-8.63-23-12.14-26.83a73.12,73.12,0,0,0-8-7.26l1-2.08Z" style="fill:#e6e6e6"></path></g><rect x="651.43" y="376.83" width="55.73" height="0.42" style="fill:#ebebeb"></rect><rect x="492.84" y="381.4" width="14.63" height="0.42" style="fill:#ebebeb"></rect><rect x="38.45" y="364.04" width="72.67" height="0.42" style="fill:#ebebeb"></rect><rect x="126.1" y="364.04" width="10.66" height="0.42" style="fill:#ebebeb"></rect><rect x="171.39" y="371.14" width="157.61" height="0.42" style="fill:#ebebeb"></rect></g><g id="background-simple"><path d="M552.77,61.93c-32.69-29-80.11-23.52-115.86-.15-33.63,22-62.19,58.61-100.25,64.93-23.7,3.94-47.4-4.72-70.77-10.88s-49.07-9.49-70.16,3.92c-28.51,18.14-39.08,63.15-30.55,100.11a131.33,131.33,0,0,0,4.39,14.66c14.39,40.24,37.29,63.22,69.64,80.73A223.06,223.06,0,0,0,342,341.72l37.71.58c64.91,1,127-28.06,166.63-79.45.82-1.05,1.63-2.12,2.43-3.18,20.74-27.8,36.14-62.35,38.59-99.32S577.84,84.16,552.77,61.93Z" style="fill:#407BFF"></path><g style="opacity:0.9"><path d="M552.77,61.93c-32.69-29-80.11-23.52-115.86-.15-33.63,22-62.19,58.61-100.25,64.93-23.7,3.94-47.4-4.72-70.77-10.88s-49.07-9.49-70.16,3.92c-28.51,18.14-39.08,63.15-30.55,100.11a131.33,131.33,0,0,0,4.39,14.66c14.39,40.24,37.29,63.22,69.64,80.73A223.06,223.06,0,0,0,342,341.72l37.71.58c64.91,1,127-28.06,166.63-79.45.82-1.05,1.63-2.12,2.43-3.18,20.74-27.8,36.14-62.35,38.59-99.32S577.84,84.16,552.77,61.93Z" style="fill:#fff"></path></g></g><g id="Shadow"><path d="M591.75,421.29c0,3.39-93.52,6.13-208.88,6.13S174,424.68,174,421.29s93.51-6.13,208.87-6.13S591.75,417.9,591.75,421.29Z" style="fill:#f5f5f5"></path></g><g id="Trees"><g id="freepik-tree-1-inject-2"><path d="M58,222.87a6,6,0,0,0,3.22,2.23c6.69,2.69-2.1,11.07,1.21,11.62,4.24.71,9.23-.13,9.54,5.1a12.48,12.48,0,0,0,.38,2.51c.8,2.9,2.86,4.14,7.11,2.13,2.71-1.27,3.35-2.85,6.44-2.46,2.23.29,3.79,1.79,6.21,1.59a2.2,2.2,0,0,0,1-.23,2.59,2.59,0,0,0,.73-.78c2.16-3.07,3.85-1.82,7.37-2a1.39,1.39,0,0,0,.79-.22,1.25,1.25,0,0,0,.31-.82,7.16,7.16,0,0,0-.24-2.61,2.35,2.35,0,0,1-.14-1.36c.22-.62.93-.85,1.53-1.12a4.67,4.67,0,0,0,2.45-3.8c3.34.31,6.41.71,6.69,4.77A12.58,12.58,0,0,0,113,240c.8,2.9,2.87,4.14,7.11,2.13,2.71-1.27,3.35-2.85,6.44-2.46,2.23.29,3.79,1.79,6.21,1.59H133a.82.82,0,0,0,.69.48c4.25.7,9.22-.12,9.53,5.1a12.69,12.69,0,0,0,.38,2.52c.8,2.9,2.87,4.12,7.13,2.13,2.7-1.27,3.34-2.86,6.42-2.47,2.23.28,3.79,1.8,6.21,1.6a2.49,2.49,0,0,0,1-.25,2.4,2.4,0,0,0,.74-.78c2.15-3.07,3.85-1.82,7.37-2a1.27,1.27,0,0,0,.78-.22,1.18,1.18,0,0,0,.31-.82,7,7,0,0,0-.23-2.61,2.38,2.38,0,0,1-.14-1.37c.22-.61.94-.84,1.52-1.12a4.84,4.84,0,0,0,1.9-6.59,4.31,4.31,0,0,0-.42-.63c-.68-.77-1.7-1.56-1.48-2.57s1.76-1.3,2.78-1.84c2.44-1.28,2.11-6,.27-7.55-1.12-.91-2.41-2.09-2.06-3.41a8.55,8.55,0,0,0,3.64-1c2.44-1.11,3.22-2.53,5.57-2.51l1.26.14c2,.4,3.52,1.69,5.78,1.5H192a4.38,4.38,0,0,1,1.48,3.35,12.7,12.7,0,0,0,.38,2.51c.8,2.89,2.87,4.13,7.11,2.13,2.71-1.28,3.35-2.86,6.44-2.47,2.23.29,3.79,1.8,6.21,1.6a2.31,2.31,0,0,0,1-.24,2.51,2.51,0,0,0,.74-.78c2.15-3.07,3.84-1.82,7.37-2a1.27,1.27,0,0,0,.77-.23,1.17,1.17,0,0,0,.32-.81,7.46,7.46,0,0,0-.23-2.62,2.43,2.43,0,0,1-.15-1.36c.22-.61.94-.85,1.53-1.12a4.83,4.83,0,0,0,1.9-6.57,4.41,4.41,0,0,0-.42-.64c-.68-.78-1.7-1.56-1.48-2.58s1.75-1.29,2.78-1.83c2.44-1.29,2.1-6,.25-7.55-1.11-.94-2.51-2.23-2-3.54.39-1.12,1.78-1.45,2.56-2.31,1.58-1.74.1-4.58-1.78-6s-4.29-2.53-5.06-4.76a6.78,6.78,0,0,0-.63-1.75c-1.12-1.68-3.75-.58-5.39.62s-4.26,2.23-5.36.56c-.65-1-.28-2.37-.9-3.35s-2.13-1.11-3.44-.59c.44-1,1.74-1.36,2.48-2.23,1.59-1.75.11-4.59-1.77-6s-4.29-2.54-5.06-4.77a6.6,6.6,0,0,0-.64-1.74c-1.11-1.68-3.74-.58-5.38.62s-4.26,2.23-5.37.56c-.64-1-.28-2.38-.89-3.35-1-1.66-3.63-.87-5.13.39s-3.14,2.95-5.05,2.5a5.32,5.32,0,0,1-1.93-1.11,5.82,5.82,0,0,0-1.11-6c-1.12-.95-2.51-2.23-2-3.55.39-1.11,1.77-1.43,2.55-2.3,1.58-1.74.1-4.59-1.77-6s-4.3-2.55-5.07-4.78a6.43,6.43,0,0,0-.63-1.75c-1.12-1.67-3.75-.58-5.39.63s-4.26,2.23-5.36.57c-.65-1-.28-2.38-.89-3.35-1-1.66-3.64-.88-5.13.39s-3.15,2.94-5.05,2.5c-1.64-.39-2.66-2.23-4.33-2.49s-3.16,1.61-3.61,3.35-.44,3.62-1.38,5.15c-2.54-.49-6.06-.4-6.69,2.12-.4,1.66.9,3.2,1.95,4.56s1.94,3.34.85,4.66a8.68,8.68,0,0,0-1.68.11,1.67,1.67,0,0,1-.54-.55c-.64-1-.28-2.36-.89-3.34-1-1.67-3.63-.88-5.13.38s-3.14,2.95-5.05,2.5c-1.64-.38-2.65-2.23-4.33-2.48s-3.15,1.61-3.61,3.35c-.3,1.17-.4,2.43-.72,3.59a4.75,4.75,0,0,1-.66-1.21,6.87,6.87,0,0,0-.64-1.74c-1.11-1.67-3.75-.58-5.37.63s-4.27,2.23-5.38.55c-.65-1-.28-2.36-.89-3.34-1-1.66-3.64-.87-5.13.39s-3.14,2.94-5,2.5c-1.64-.39-2.66-2.23-4.33-2.48s-3.15,1.6-3.61,3.35-.44,3.63-1.37,5.15c-2.55-.49-6.06-.39-6.69,2.12-.39,1.67.89,3.21,1.95,4.56s1.94,3.34.85,4.67a9,9,0,0,0-5.07,1.27,3.8,3.8,0,0,0-1.46,4.63,6,6,0,0,0,3.22,2.23c6.7,2.7-2.08,11.07,1.23,11.62,4.24.71,9.21-.12,9.52,5.11h0c-.2.13-.39.28-.58.43-1.49,1.26-3.14,2.95-5,2.5-1.64-.39-2.66-2.23-4.32-2.47s-3.16,1.59-3.62,3.34-.43,3.64-1.37,5.15c-2.54-.49-6.06-.39-6.69,2.12-.4,1.67.89,3.21,2,4.56s1.94,3.35.85,4.67a8.86,8.86,0,0,0-5.07,1.28A3.78,3.78,0,0,0,58,222.87Z" style="fill:#407BFF"></path><path d="M182.55,249.58a7.35,7.35,0,0,1,4.22-1.06c.91-1.11.17-2.76-.71-3.89s-2-2.36-1.61-3.8c.49-2.1,3.43-2.17,5.54-1.76.79-1.28.77-2.86,1.18-4.3s1.54-3,3-2.77,2.24,1.75,3.61,2.07c1.58.37,3-1,4.2-2.08s3.43-1.71,4.29-.33c.5.82.2,2,.73,2.81.93,1.41,3.11.53,4.48-.48s3.54-1.91,4.49-.51a6.43,6.43,0,0,1,.53,1.45c.63,1.86,2.64,2.78,4.21,4s2.81,3.54,1.48,5c-.65.72-1.8,1-2.13,1.92-.4,1.18.77,2.17,1.69,2.95,1.53,1.31,1.82,5.23-.21,6.29-.86.45-2.12.59-2.36,1.54s.66,1.49,1.18,2.14a4.05,4.05,0,0,1-.72,5.67,4.65,4.65,0,0,1-.52.34c-.49.24-1.09.43-1.27.94a2,2,0,0,0,.12,1.18,6,6,0,0,1,.19,2.18,1,1,0,0,1-.26.68,1.08,1.08,0,0,1-.65.19c-2.92.13-4.34-.91-6.13,1.64a2.14,2.14,0,0,1-.62.65,2.06,2.06,0,0,1-.81.2c-2,.16-3.33-1.09-5.18-1.32-2.55-.33-3.09,1-5.35,2.05-3.54,1.66-5.27.64-5.9-1.78a11.35,11.35,0,0,1-.32-2.09c-.26-4.35-4.41-3.67-7.94-4.26-2.76-.46,4.55-7.42-1-9.68a4.8,4.8,0,0,1-2.69-1.87A3.15,3.15,0,0,1,182.55,249.58Z" style="fill:#407BFF"></path><path d="M128.59,225.52,124,211.1l-8.86-11.39,1.52-1.26,8.35,9.11,1.48-14.43H129s-2,17.14.87,23.41c0,0,10.38,26.41,16.7,32.13a5.54,5.54,0,0,1,.93,1.12A66.36,66.36,0,0,1,154.79,236c-2.49-6.39-7.85-20.42-9.67-27.93a149.54,149.54,0,0,1-3.2-17.7l2.07-.23s5.87,27.73,15.58,40.35a38.67,38.67,0,0,1,9.67-6.49c.79-3.9,1.12-10.68-1.46-21.27l2.06-.53A50.81,50.81,0,0,1,173.41,222a34.31,34.31,0,0,0,4.21-2.5C187,212.87,193.56,201,193.56,201l1.91,1.86s-8,17.53-19.11,23.39S158,246.37,157.45,250.11c-.16,1.06-1.45,9.54.34,24.38,11.84-5.05,35.3-19,36.86-20.24l2.73,3.68-38,27.16c-.59,36.19,2.14,65.17,2,73.32H139.35c.55-11.24,5.2-44.83,3.14-89-.18-1.09-.36-2.33-.54-3.78-1.73-13.55-12-32.06-16.9-37.32A102.13,102.13,0,0,0,114,218.19l1.35-2.88Z" style="fill:#263238"></path></g><g id="freepik-tree-1-inject-2"><path d="M690.07,207.85a9.58,9.58,0,0,0-5.45-1.37c-1.18-1.42-.23-3.57.91-5s2.53-3.11,2.1-4.91c-.67-2.7-4.46-2.8-7.2-2.28-1-1.63-1-3.65-1.47-5.54s-2.1-3.86-3.89-3.59-2.89,2.24-4.65,2.66c-2,.48-3.83-1.33-5.44-2.69a5.93,5.93,0,0,0-.62-.47h0c.34-5.62,5.69-4.72,10.24-5.49,3.57-.59-5.87-9.59,1.32-12.5a6.33,6.33,0,0,0,3.47-2.39,4.09,4.09,0,0,0-1.57-5,9.58,9.58,0,0,0-5.45-1.37c-1.17-1.43-.23-3.57.91-5s2.52-3.11,2.1-4.91c-.68-2.7-4.46-2.8-7.19-2.28-1-1.63-1-3.65-1.48-5.54s-2.08-3.86-3.88-3.6-2.89,2.25-4.66,2.67c-2,.48-3.82-1.33-5.43-2.69s-4.41-2.21-5.52-.42c-.66,1.06-.26,2.54-1,3.6-1.18,1.8-4,.69-5.78-.6s-4.58-2.47-5.78-.67a7.35,7.35,0,0,0-.68,1.87,4.92,4.92,0,0,1-.71,1.29c-.35-1.24-.45-2.6-.78-3.86-.49-1.87-2.08-3.86-3.88-3.6s-2.89,2.26-4.66,2.67c-2,.49-3.82-1.33-5.43-2.69s-4.41-2.21-5.52-.41c-.66,1.06-.26,2.54-1,3.6a1.79,1.79,0,0,1-.57.59,9.23,9.23,0,0,0-1.81-.12c-1.18-1.42-.23-3.55.91-5s2.53-3.11,2.1-4.9c-.67-2.71-4.46-2.81-7.2-2.28-1-1.64-1-3.67-1.47-5.54s-2.09-3.87-3.89-3.6-2.89,2.26-4.65,2.68c-2,.48-3.83-1.32-5.44-2.69s-4.41-2.21-5.51-.42c-.66,1-.27,2.54-1,3.6-1.19,1.79-4,.68-5.77-.61s-4.59-2.47-5.79-.67a7,7,0,0,0-.69,1.88c-.82,2.4-3.43,3.6-5.44,5.13s-3.61,4.59-1.91,6.47c.84.93,2.33,1.28,2.75,2.48.51,1.41-1,2.79-2.18,3.81a6.24,6.24,0,0,0-1.2,6.42,5.78,5.78,0,0,1-2.08,1.2c-2,.48-3.82-1.33-5.43-2.69s-4.41-2.21-5.52-.42c-.66,1-.26,2.54-1,3.6-1.18,1.8-4,.69-5.77-.6s-4.59-2.47-5.79-.67a7.35,7.35,0,0,0-.68,1.87c-.83,2.4-3.43,3.6-5.45,5.13s-3.61,4.59-1.9,6.48c.8.93,2.19,1.32,2.67,2.4-1.41-.57-3.05-.42-3.71.63s-.26,2.54-1,3.6c-1.19,1.8-4,.7-5.77-.6s-4.6-2.47-5.8-.67a7.42,7.42,0,0,0-.68,1.88c-.83,2.4-3.43,3.58-5.44,5.12s-3.61,4.61-1.91,6.48c.84.92,2.33,1.28,2.75,2.48.52,1.42-1,2.8-2.18,3.81-2,1.68-2.35,6.73.28,8.12,1.1.58,2.75.88,3,2s-.87,1.93-1.6,2.77a5.1,5.1,0,0,0-.45.69,5.2,5.2,0,0,0,2,7.07c.63.29,1.4.54,1.64,1.2a2.52,2.52,0,0,1-.16,1.46,8.12,8.12,0,0,0-.25,2.82,1.3,1.3,0,0,0,.35.88,1.35,1.35,0,0,0,.83.24c3.79.16,5.61-1.18,7.92,2.12a2.91,2.91,0,0,0,.8.84,2.34,2.34,0,0,0,1,.25c2.6.22,4.28-1.4,6.68-1.71,3.32-.42,4,1.28,6.92,2.65,4.57,2.16,6.79.82,7.65-2.29a13.77,13.77,0,0,0,.41-2.7,4.7,4.7,0,0,1,1.59-3.6h.08c2.43.2,4.07-1.19,6.21-1.62l1.35-.14c2.53,0,3.37,1.5,6,2.7a9.18,9.18,0,0,0,3.91,1c.38,1.41-1,2.68-2.21,3.67-2,1.69-2.34,6.74.29,8.12,1.09.57,2.75.9,3,2s-.87,1.93-1.6,2.75a5.1,5.1,0,0,0-.45.69,5.22,5.22,0,0,0,2.05,7.09c.62.3,1.4.54,1.63,1.2a2.48,2.48,0,0,1-.15,1.47,7.6,7.6,0,0,0-.25,2.81,1,1,0,0,0,1.18,1.11c3.79.17,5.61-1.17,7.92,2.13a2.54,2.54,0,0,0,.8.83,2.51,2.51,0,0,0,1,.27c2.6.21,4.28-1.42,6.68-1.72,3.31-.42,4,1.29,6.91,2.65,4.58,2.15,6.8.83,7.66-2.29a13,13,0,0,0,.41-2.71c.33-5.61,5.68-4.72,10.25-5.48a.89.89,0,0,0,.75-.51h.28c2.61.21,4.29-1.41,6.68-1.72,3.33-.42,4,1.28,6.92,2.65,4.57,2.16,6.79.83,7.66-2.29a13.74,13.74,0,0,0,.4-2.71c.3-4.36,3.6-4.8,7.2-5.13a5,5,0,0,0,2.64,4.09c.63.29,1.4.54,1.64,1.2a2.6,2.6,0,0,1-.15,1.46,7.82,7.82,0,0,0-.26,2.81,1.31,1.31,0,0,0,.34.88,1.4,1.4,0,0,0,.84.24c3.79.17,5.61-1.17,7.93,2.13a2.87,2.87,0,0,0,.79.84,2.49,2.49,0,0,0,1,.25c2.6.21,4.28-1.41,6.68-1.72,3.32-.42,4,1.29,6.92,2.65,4.57,2.16,6.79.83,7.65-2.29a12.86,12.86,0,0,0,.41-2.7c.34-5.62,5.7-4.72,10.25-5.49,3.57-.59-5.88-9.59,1.31-12.5a6.33,6.33,0,0,0,3.47-2.39A4.08,4.08,0,0,0,690.07,207.85Z" style="fill:#407BFF"></path><path d="M574.42,225a5.19,5.19,0,0,1-2.9,2c-6,2.43,1.88,9.91-1.09,10.41-3.79.63-8.26-.1-8.54,4.58a11.44,11.44,0,0,1-.34,2.25c-.67,2.6-2.54,3.7-6.35,1.91-2.42-1.14-3-2.56-5.75-2.21-2,.26-3.4,1.6-5.57,1.43a2,2,0,0,1-.87-.22,2.21,2.21,0,0,1-.66-.7c-1.93-2.74-3.45-1.62-6.6-1.76a.86.86,0,0,1-1-.94,6.36,6.36,0,0,1,.2-2.34,2,2,0,0,0,.13-1.27c-.19-.55-.84-.76-1.36-1a4.92,4.92,0,0,1-.56-.37,4.34,4.34,0,0,1-.77-6.09c.56-.7,1.54-1.3,1.27-2.31s-1.61-1.17-2.54-1.65c-2.18-1.14-1.88-5.36-.23-6.76,1-.84,2.25-1.91,1.82-3.18-.36-1-1.59-1.29-2.29-2.07-1.43-1.58-.1-4.11,1.59-5.39s3.84-2.27,4.53-4.28a6.79,6.79,0,0,1,.57-1.56c1-1.5,3.35-.52,4.82.56s3.82,2,4.83.51c.57-.88.24-2.13.78-3,.93-1.49,3.28-.78,4.61.35s2.82,2.64,4.52,2.24c1.47-.35,2.3-2,3.88-2.22s2.79,1.43,3.24,3,.42,3.25,1.27,4.62c2.27-.45,5.43-.37,6,1.89.37,1.55-.8,2.87-1.74,4.09s-1.74,3-.76,4.18a8,8,0,0,1,4.55,1.15A3.39,3.39,0,0,1,574.42,225Z" style="fill:#407BFF"></path><path d="M613.47,231.94a6.36,6.36,0,0,1-3.5,2.45c-7.24,2.93,2.27,12-1.32,12.59-4.6.77-10-.12-10.34,5.55a13.89,13.89,0,0,1-.42,2.71c-.81,3.15-3.07,4.49-7.68,2.32-2.93-1.38-3.64-3.1-7-2.67-2.42.31-4.12,1.94-6.75,1.72a2.59,2.59,0,0,1-1.06-.26,2.91,2.91,0,0,1-.8-.84c-2.33-3.32-4.17-2-8-2.14a1,1,0,0,1-1.19-1.14,7.67,7.67,0,0,1,.25-2.82,2.46,2.46,0,0,0,.15-1.54c-.23-.67-1-.92-1.64-1.23a4.45,4.45,0,0,1-.68-.45,5.25,5.25,0,0,1-.93-7.37c.67-.84,1.86-1.56,1.53-2.79s-1.95-1.41-3.07-2c-2.64-1.38-2.27-6.48-.27-8.18,1.19-1,2.71-2.31,2.19-3.84-.43-1.19-1.92-1.57-2.76-2.51-1.74-1.92-.13-5,1.92-6.53s4.65-2.74,5.48-5.17a7.93,7.93,0,0,1,.69-1.89c1.23-1.81,4.06-.63,5.84.67s4.62,2.46,5.83.62c.7-1.06.3-2.58,1-3.66,1.12-1.79,4-.93,5.57.43s3.41,3.2,5.47,2.71c1.78-.42,2.78-2.46,4.7-2.69s3.38,1.73,3.92,3.61.5,3.93,1.53,5.59c2.75-.54,6.58-.45,7.22,2.29.45,1.87-1,3.47-2.1,4.94s-2.11,3.63-.92,5.07a9.61,9.61,0,0,1,5.5,1.39A4.1,4.1,0,0,1,613.47,231.94Z" style="fill:#407BFF"></path><path d="M656.77,230.9a6.35,6.35,0,0,1-3.5,2.44c-7.24,2.93,2.27,12-1.32,12.59-4.6.77-10-.12-10.34,5.55a14.65,14.65,0,0,1-.41,2.72c-.82,3.15-3.08,4.48-7.68,2.32-2.94-1.39-3.64-3.11-7-2.68-2.41.31-4.12,1.94-6.75,1.72a2.34,2.34,0,0,1-1.06-.26,2.75,2.75,0,0,1-.79-.84c-2.34-3.32-4.18-2-8-2.14a1.36,1.36,0,0,1-.85-.24,1.28,1.28,0,0,1-.33-.89,7.72,7.72,0,0,1,.24-2.83,2.47,2.47,0,0,0,.16-1.54c-.23-.67-1-.92-1.65-1.22a8,8,0,0,1-.68-.45,5.25,5.25,0,0,1-.93-7.37c.68-.85,1.86-1.57,1.54-2.8s-2-1.41-3.08-2c-2.64-1.38-2.27-6.48-.27-8.18,1.19-1,2.72-2.31,2.19-3.84-.43-1.18-1.92-1.57-2.76-2.51-1.74-1.92-.12-5,1.92-6.52s4.65-2.75,5.48-5.18a7.93,7.93,0,0,1,.69-1.89c1.23-1.81,4.06-.63,5.84.68s4.62,2.45,5.84.61c.69-1.06.29-2.58.95-3.65,1.12-1.8,4-.94,5.57.43s3.41,3.19,5.47,2.7c1.78-.42,2.78-2.46,4.7-2.69s3.38,1.74,3.92,3.61.51,3.93,1.54,5.59c2.74-.54,6.57-.44,7.21,2.29.45,1.87-1,3.47-2.1,4.95s-2.1,3.62-.92,5.06a9.59,9.59,0,0,1,5.5,1.39A4.1,4.1,0,0,1,656.77,230.9Z" style="fill:#407BFF"></path><path d="M629.9,204.51l-14.26,11L620.53,200l9.52-12.24-1.62-1.36-9,9.79-1.59-15.51h-2.6s2.13,18.43-.94,25.18c0,0-11.16,28.4-18,34.55a5.75,5.75,0,0,0-1,1.2,71.79,71.79,0,0,0-7.89-14.8c2.68-6.86,8.44-22,10.4-30a159.59,159.59,0,0,0,3.44-19l-2.23-.25s-6.31,29.83-16.75,43.4a41.68,41.68,0,0,0-10.4-7c-.85-4.19-1.21-11.49,1.56-22.88l-2.2-.56a54.49,54.49,0,0,0-3.84,21.2A37.57,37.57,0,0,1,562.9,209c-10.06-7.08-17.13-19.86-17.13-19.86l-2.06,2s8.58,18.85,20.55,25.15S584,237.91,584.6,241.93c.17,1.15,1.55,10.26-.36,26.23-4-1.7-8.56-2.34-13.9-5.2L569,269.88l13.51,9.67c.64,38.93-2.3,70.09-2.19,78.86h23.77c-.58-12.09-5.59-48.21-3.37-95.72.19-1.17.39-2.5.58-4.06,1.86-14.57,12.91-34.48,18.17-40.14a109.75,109.75,0,0,1,11.9-10.88Z" style="fill:#263238"></path></g></g><g id="Tent"><polygon points="216.46 358.41 216.46 279.8 382.43 94.04 579.18 300.85 579.18 358.41 216.46 358.41" style="fill:#407BFF"></polygon><path d="M386.52,190.21c.49,22.42,1.42,46.69,2.63,69.08a467.5,467.5,0,0,1-2.63-69.08Z" style="opacity:0.30000000000000004"></path><path d="M377.24,217.89A104.16,104.16,0,0,1,372.8,252l.71-4.25c1.72-9.88,2.87-19.82,3.73-29.81Z" style="opacity:0.30000000000000004"></path><rect x="245.88" y="347.2" width="278.68" height="11.21" style="fill:#263238"></rect><rect x="309.71" y="341.55" width="9.96" height="5.65" style="fill:#263238"></rect><rect x="309.71" y="341.55" width="9.96" height="5.65" style="fill:#fff;opacity:0.30000000000000004"></rect><rect x="449.66" y="341.55" width="9.96" height="5.65" style="fill:#263238"></rect><rect x="449.66" y="341.55" width="9.96" height="5.65" style="fill:#fff;opacity:0.30000000000000004"></rect><path d="M370.39,275.13a7.13,7.13,0,0,0-.94-3.5c-1.18-1.69-3.51-2-5.57-2.14-9.19-.47-20.61-.68-29.62,2a3.1,3.1,0,0,0-2.15,2.4c-2.25,11.52-.46,22.27,2.21,32.49a3.23,3.23,0,0,0,2.81,2.4c11.22,1.16,21.72,1.1,32.58-1.75a2.82,2.82,0,0,0,2.09-2.93C371,294.16,371.34,285.24,370.39,275.13Z" style="fill:#407BFF"></path><g style="opacity:0.30000000000000004"><path d="M370.39,275.13a7.13,7.13,0,0,0-.94-3.5c-1.18-1.69-3.51-2-5.57-2.14-9.19-.47-20.61-.68-29.62,2a3.1,3.1,0,0,0-2.15,2.4c-2.25,11.52-.46,22.27,2.21,32.49a3.23,3.23,0,0,0,2.81,2.4c11.22,1.16,21.72,1.1,32.58-1.75a2.82,2.82,0,0,0,2.09-2.93C371,294.16,371.34,285.24,370.39,275.13Z" style="fill:#fff"></path></g><rect x="330.07" y="277.6" width="40.41" height="0.75" transform="translate(-69.49 123.82) rotate(-18.27)" style="fill:#407BFF"></rect><rect x="330.82" y="288.44" width="41.01" height="0.75" transform="translate(-72.83 124.7) rotate(-18.27)" style="fill:#407BFF"></rect><rect x="333.53" y="300.38" width="38.8" height="0.75" transform="translate(-77.92 129.34) rotate(-18.74)" style="fill:#407BFF"></rect><path d="M459.58,290.94a5.43,5.43,0,0,0-.29-2.72c-.67-1.41-2.37-2-3.9-2.28-6.81-1.46-15.31-3-22.37-2.08a2.35,2.35,0,0,0-1.89,1.53c-3.08,8.34-3,16.59-2.27,24.54a2.45,2.45,0,0,0,1.81,2.14c8.24,2.21,16.09,3.44,24.55,2.62a2.14,2.14,0,0,0,1.91-1.94C457.75,305.23,459.06,298.61,459.58,290.94Z" style="fill:#407BFF"></path><g style="opacity:0.30000000000000004"><path d="M459.58,290.94a5.43,5.43,0,0,0-.29-2.72c-.67-1.41-2.37-2-3.9-2.28-6.81-1.46-15.31-3-22.37-2.08a2.35,2.35,0,0,0-1.89,1.53c-3.08,8.34-3,16.59-2.27,24.54a2.45,2.45,0,0,0,1.81,2.14c8.24,2.21,16.09,3.44,24.55,2.62a2.14,2.14,0,0,0,1.91-1.94C457.75,305.23,459.06,298.61,459.58,290.94Z"></path></g><path d="M342,289.82a5.45,5.45,0,0,0-.28-2.73c-.68-1.41-2.38-1.94-3.9-2.27-6.81-1.47-15.32-3-22.37-2.08a2.37,2.37,0,0,0-1.9,1.52c-3.07,8.34-3,16.59-2.27,24.54a2.47,2.47,0,0,0,1.81,2.14c8.24,2.22,16.09,3.44,24.55,2.62a2.12,2.12,0,0,0,1.91-1.93C340.14,304.11,341.44,297.49,342,289.82Z" style="fill:#407BFF"></path><g style="opacity:0.30000000000000004"><path d="M342,289.82a5.45,5.45,0,0,0-.28-2.73c-.68-1.41-2.38-1.94-3.9-2.27-6.81-1.47-15.32-3-22.37-2.08a2.37,2.37,0,0,0-1.9,1.52c-3.07,8.34-3,16.59-2.27,24.54a2.47,2.47,0,0,0,1.81,2.14c8.24,2.22,16.09,3.44,24.55,2.62a2.12,2.12,0,0,0,1.91-1.93C340.14,304.11,341.44,297.49,342,289.82Z"></path></g><path d="M434.57,279.23a6.39,6.39,0,0,0-.36-3.23c-.81-1.67-2.83-2.29-4.64-2.67-8.08-1.68-18.18-3.43-26.54-2.3a2.8,2.8,0,0,0-2.23,1.83c-3.58,9.91-3.47,19.69-2.51,29.11a2.91,2.91,0,0,0,2.16,2.52c9.79,2.57,19.11,4,29.13,2.92a2.5,2.5,0,0,0,2.25-2.3C432.52,296.18,434,288.33,434.57,279.23Z" style="fill:#407BFF"></path><g style="opacity:0.5"><path d="M434.57,279.23a6.39,6.39,0,0,0-.36-3.23c-.81-1.67-2.83-2.29-4.64-2.67-8.08-1.68-18.18-3.43-26.54-2.3a2.8,2.8,0,0,0-2.23,1.83c-3.58,9.91-3.47,19.69-2.51,29.11a2.91,2.91,0,0,0,2.16,2.52c9.79,2.57,19.11,4,29.13,2.92a2.5,2.5,0,0,0,2.25-2.3C432.52,296.18,434,288.33,434.57,279.23Z" style="fill:#fff"></path></g><polygon points="415.35 287.41 401.27 272 401.64 271.66 415.44 286.77 434.09 275.78 434.34 276.21 415.35 287.41" style="fill:#fff"></polygon><polygon points="413.91 298.86 398.79 282.3 399.16 281.97 414.01 298.22 433.66 286.63 433.92 287.06 413.91 298.86" style="fill:#fff"></polygon><polygon points="412.75 308.06 397.79 293.92 398.13 293.56 412.83 307.46 432.2 297.65 432.42 298.1 412.75 308.06" style="fill:#fff"></polygon><polygon points="416.98 277.02 411.7 271.04 412.08 270.71 417.07 276.36 423.3 272.2 423.58 272.62 416.98 277.02" style="fill:#fff"></polygon><path d="M398.65,280.4a5.48,5.48,0,0,0-1.12-2.5c-1.08-1.13-2.86-1.11-4.41-.94-6.93.73-15.49,1.92-21.91,5a2.33,2.33,0,0,0-1.32,2c-.32,8.88,2.28,16.7,5.48,24a2.46,2.46,0,0,0,2.39,1.47c8.52-.46,16.36-1.74,24.14-5.15a2.14,2.14,0,0,0,1.22-2.44C401.37,294.55,400.55,287.85,398.65,280.4Z" style="fill:#407BFF"></path><g style="opacity:0.30000000000000004"><path d="M398.65,280.4a5.48,5.48,0,0,0-1.12-2.5c-1.08-1.13-2.86-1.11-4.41-.94-6.93.73-15.49,1.92-21.91,5a2.33,2.33,0,0,0-1.32,2c-.32,8.88,2.28,16.7,5.48,24a2.46,2.46,0,0,0,2.39,1.47c8.52-.46,16.36-1.74,24.14-5.15a2.14,2.14,0,0,0,1.22-2.44C401.37,294.55,400.55,287.85,398.65,280.4Z"></path></g><path d="M314.44,303.74h139.1a15.4,15.4,0,0,1,15.4,15.4v22.41a0,0,0,0,1,0,0H299a0,0,0,0,1,0,0V319.13A15.4,15.4,0,0,1,314.44,303.74Z" style="fill:#263238"></path><path d="M147.29,313.42s49.23-33.93,80.49-63.63c87.39-83,156.83-166.92,156.83-166.92s1.52,70.75-21.66,121.49c-37.64,82.37-108.82,109.86-108.82,109.86v44.19H170.88L172,314.22Z" style="fill:#407BFF"></path><path d="M147.29,313.42s50.13-33.93,80.49-63.63C314,165.48,384.61,82.87,384.61,82.87s1.52,70.75-21.66,121.49c-37.64,82.37-108.82,109.86-108.82,109.86v44.19H170.88L172,314.22Z" style="fill:#fff;opacity:0.30000000000000004"></path><polygon points="171.99 314.22 250.98 314.22 171.99 325.53 171.99 314.22" style="opacity:0.30000000000000004"></polygon><path d="M220.84,296.05a442.83,442.83,0,0,0,134.33-148.5l6.35-11.88-6.13,12A412.5,412.5,0,0,1,220.84,296.05Z" style="fill:#407BFF"></path><path d="M258.55,250.24a154,154,0,0,0,39.67-39.12l2.12-3.09-1.9,3.23a116,116,0,0,1-39.89,39Z" style="fill:#407BFF"></path><path d="M267.71,313.82a3.76,3.76,0,1,1-3.76-3.76A3.77,3.77,0,0,1,267.71,313.82Z" style="fill:#407BFF"></path><path d="M267.71,313.82a3.76,3.76,0,1,1-3.76-3.76A3.77,3.77,0,0,1,267.71,313.82Z" style="fill:#fff;opacity:0.5"></path><path d="M279.44,307a3.76,3.76,0,1,1-3.76-3.76A3.76,3.76,0,0,1,279.44,307Z" style="fill:#407BFF"></path><path d="M279.44,307a3.76,3.76,0,1,1-3.76-3.76A3.76,3.76,0,0,1,279.44,307Z" style="fill:#fff;opacity:0.5"></path><path d="M291.18,300.19a3.76,3.76,0,1,1-3.76-3.76A3.76,3.76,0,0,1,291.18,300.19Z" style="fill:#407BFF"></path><path d="M291.18,300.19a3.76,3.76,0,1,1-3.76-3.76A3.76,3.76,0,0,1,291.18,300.19Z" style="fill:#fff;opacity:0.5"></path><path d="M301.35,292.08a3.76,3.76,0,1,1-3.76-3.76A3.76,3.76,0,0,1,301.35,292.08Z" style="fill:#407BFF"></path><path d="M301.35,292.08a3.76,3.76,0,1,1-3.76-3.76A3.76,3.76,0,0,1,301.35,292.08Z" style="fill:#fff;opacity:0.5"></path><path d="M311,284.52a3.76,3.76,0,1,1-3.76-3.76A3.76,3.76,0,0,1,311,284.52Z" style="fill:#407BFF"></path><path d="M311,284.52a3.76,3.76,0,1,1-3.76-3.76A3.76,3.76,0,0,1,311,284.52Z" style="fill:#fff;opacity:0.5"></path><path d="M321.45,274.84a3.76,3.76,0,1,1-3.76-3.76A3.76,3.76,0,0,1,321.45,274.84Z" style="fill:#407BFF"></path><path d="M321.45,274.84a3.76,3.76,0,1,1-3.76-3.76A3.76,3.76,0,0,1,321.45,274.84Z" style="fill:#fff;opacity:0.5"></path><path d="M331.09,264.52a3.76,3.76,0,1,1-3.76-3.76A3.77,3.77,0,0,1,331.09,264.52Z" style="fill:#407BFF"></path><path d="M331.09,264.52a3.76,3.76,0,1,1-3.76-3.76A3.77,3.77,0,0,1,331.09,264.52Z" style="fill:#fff;opacity:0.5"></path><circle cx="336.82" cy="253.55" r="3.76" style="fill:#407BFF"></circle><circle cx="336.82" cy="253.55" r="3.76" style="fill:#fff;opacity:0.5"></circle><circle cx="345.28" cy="242.5" r="3.76" style="fill:#407BFF"></circle><circle cx="345.28" cy="242.5" r="3.76" style="fill:#fff;opacity:0.5"></circle><circle cx="353.67" cy="229.13" r="3.76" style="fill:#407BFF"></circle><circle cx="353.67" cy="229.13" r="3.76" style="fill:#fff;opacity:0.5"></circle><circle cx="361.23" cy="215.86" r="3.76" style="fill:#407BFF"></circle><circle cx="361.23" cy="215.86" r="3.76" style="fill:#fff;opacity:0.5"></circle><path d="M371.86,201a3.76,3.76,0,1,1-3.76-3.76A3.77,3.77,0,0,1,371.86,201Z" style="fill:#407BFF"></path><path d="M371.86,201a3.76,3.76,0,1,1-3.76-3.76A3.77,3.77,0,0,1,371.86,201Z" style="fill:#fff;opacity:0.5"></path><path d="M378.31,183.32a3.76,3.76,0,1,1-3.76-3.76A3.76,3.76,0,0,1,378.31,183.32Z" style="fill:#407BFF"></path><path d="M378.31,183.32a3.76,3.76,0,1,1-3.76-3.76A3.76,3.76,0,0,1,378.31,183.32Z" style="fill:#fff;opacity:0.5"></path><path d="M382.87,166.35a3.76,3.76,0,1,1-3.76-3.76A3.76,3.76,0,0,1,382.87,166.35Z" style="fill:#407BFF"></path><path d="M382.87,166.35a3.76,3.76,0,1,1-3.76-3.76A3.76,3.76,0,0,1,382.87,166.35Z" style="fill:#fff;opacity:0.5"></path><path d="M386,149a3.76,3.76,0,1,1-3.76-3.76A3.76,3.76,0,0,1,386,149Z" style="fill:#407BFF"></path><path d="M386,149a3.76,3.76,0,1,1-3.76-3.76A3.76,3.76,0,0,1,386,149Z" style="fill:#fff;opacity:0.5"></path><path d="M623.69,314.94s-50-36.55-80.43-65.15C455.43,167.21,384.61,82.87,384.61,82.87a115.66,115.66,0,0,0-.42,19.35c1.33,24.39,6.8,67.4,22.08,102.14,27.13,61.71,108.82,111.38,108.82,111.38v42.67h83.25l.65-42.67Z" style="fill:#407BFF"></path><path d="M623.69,314.94s-50.54-36.55-80.43-65.15C456.16,166.44,384.61,82.87,384.61,82.87a115.66,115.66,0,0,0-.42,19.35c1.33,24.39,6.8,67.4,22.08,102.14,27.13,61.71,108.82,111.38,108.82,111.38v42.67h83.25l.65-42.67Z" style="fill:#fff;opacity:0.30000000000000004"></path><path d="M539.28,292.29A412.5,412.5,0,0,1,404.73,143.91l-6.14-12L405,143.79a442.83,442.83,0,0,0,134.33,148.5Z" style="fill:#407BFF"></path><polygon points="599 315.74 515.09 315.74 515.09 315.74 598.84 325.55 599 315.74" style="opacity:0.30000000000000004"></polygon><circle cx="506.47" cy="313.82" r="3.76" style="fill:#407BFF"></circle><circle cx="506.47" cy="313.82" r="3.76" style="fill:#fff;opacity:0.5"></circle><path d="M491,307a3.76,3.76,0,1,0,3.76-3.76A3.76,3.76,0,0,0,491,307Z" style="fill:#407BFF"></path><path d="M491,307a3.76,3.76,0,1,0,3.76-3.76A3.76,3.76,0,0,0,491,307Z" style="fill:#fff;opacity:0.5"></path><path d="M479.23,300.19a3.76,3.76,0,1,0,3.76-3.76A3.77,3.77,0,0,0,479.23,300.19Z" style="fill:#407BFF"></path><path d="M479.23,300.19a3.76,3.76,0,1,0,3.76-3.76A3.77,3.77,0,0,0,479.23,300.19Z" style="fill:#fff;opacity:0.5"></path><path d="M469.06,292.08a3.76,3.76,0,1,0,3.76-3.76A3.76,3.76,0,0,0,469.06,292.08Z" style="fill:#407BFF"></path><path d="M469.06,292.08a3.76,3.76,0,1,0,3.76-3.76A3.76,3.76,0,0,0,469.06,292.08Z" style="fill:#fff;opacity:0.5"></path><path d="M459.38,284.52a3.76,3.76,0,1,0,3.76-3.76A3.76,3.76,0,0,0,459.38,284.52Z" style="fill:#407BFF"></path><path d="M459.38,284.52a3.76,3.76,0,1,0,3.76-3.76A3.76,3.76,0,0,0,459.38,284.52Z" style="fill:#fff;opacity:0.5"></path><path d="M449,274.84a3.76,3.76,0,1,0,3.76-3.76A3.76,3.76,0,0,0,449,274.84Z" style="fill:#407BFF"></path><path d="M449,274.84a3.76,3.76,0,1,0,3.76-3.76A3.76,3.76,0,0,0,449,274.84Z" style="fill:#fff;opacity:0.5"></path><circle cx="443.09" cy="264.52" r="3.76" style="fill:#407BFF"></circle><circle cx="443.09" cy="264.52" r="3.76" style="fill:#fff;opacity:0.5"></circle><path d="M429.83,253.55a3.76,3.76,0,1,0,3.76-3.76A3.76,3.76,0,0,0,429.83,253.55Z" style="fill:#407BFF"></path><path d="M429.83,253.55a3.76,3.76,0,1,0,3.76-3.76A3.76,3.76,0,0,0,429.83,253.55Z" style="fill:#fff;opacity:0.5"></path><path d="M421.37,242.5a3.76,3.76,0,1,0,3.76-3.76A3.76,3.76,0,0,0,421.37,242.5Z" style="fill:#407BFF"></path><path d="M421.37,242.5a3.76,3.76,0,1,0,3.76-3.76A3.76,3.76,0,0,0,421.37,242.5Z" style="fill:#fff;opacity:0.5"></path><path d="M413,229.13a3.76,3.76,0,1,0,3.76-3.76A3.76,3.76,0,0,0,413,229.13Z" style="fill:#407BFF"></path><path d="M413,229.13a3.76,3.76,0,1,0,3.76-3.76A3.76,3.76,0,0,0,413,229.13Z" style="fill:#fff;opacity:0.5"></path><path d="M405.43,215.86a3.76,3.76,0,1,0,3.76-3.76A3.76,3.76,0,0,0,405.43,215.86Z" style="fill:#407BFF"></path><path d="M405.43,215.86a3.76,3.76,0,1,0,3.76-3.76A3.76,3.76,0,0,0,405.43,215.86Z" style="fill:#fff;opacity:0.5"></path><path d="M398.56,201a3.76,3.76,0,1,0,3.76-3.76A3.76,3.76,0,0,0,398.56,201Z" style="fill:#407BFF"></path><path d="M398.56,201a3.76,3.76,0,1,0,3.76-3.76A3.76,3.76,0,0,0,398.56,201Z" style="fill:#fff;opacity:0.5"></path><path d="M391,182.19a3.76,3.76,0,1,0,3.76-3.76A3.76,3.76,0,0,0,391,182.19Z" style="fill:#407BFF"></path><path d="M391,182.19a3.76,3.76,0,1,0,3.76-3.76A3.76,3.76,0,0,0,391,182.19Z" style="fill:#fff;opacity:0.5"></path><path d="M386.63,164.48a3.76,3.76,0,1,0,3.76-3.76A3.77,3.77,0,0,0,386.63,164.48Z" style="fill:#407BFF"></path><path d="M386.63,164.48a3.76,3.76,0,1,0,3.76-3.76A3.77,3.77,0,0,0,386.63,164.48Z" style="fill:#fff;opacity:0.5"></path><path d="M382.87,137.64a3.76,3.76,0,1,0,3.76-3.76A3.76,3.76,0,0,0,382.87,137.64Z" style="fill:#407BFF"></path><path d="M382.87,137.64a3.76,3.76,0,1,0,3.76-3.76A3.76,3.76,0,0,0,382.87,137.64Z" style="fill:#fff;opacity:0.5"></path><rect x="260.19" y="339.68" width="29.62" height="7.51" style="opacity:0.30000000000000004"></rect><rect x="265.96" y="329.47" width="7.85" height="10.21" style="fill:#fff;opacity:0.5"></rect><rect x="276.57" y="335.2" width="7.85" height="4.49" style="fill:#fff;opacity:0.5"></rect><g style="opacity:0.30000000000000004"><path d="M273.25,323.61a10.42,10.42,0,0,0-1.38-2.22,3.57,3.57,0,0,1-1.64,2.06,7.12,7.12,0,0,0-2.05,1.72,2.84,2.84,0,0,0,1.25,4.21c2.34.58,3.7-1.76,4-3.22A4.42,4.42,0,0,0,273.25,323.61Z"></path></g><g style="opacity:0.30000000000000004"><path d="M271.39,326.45a4.72,4.72,0,0,0-.64-1,1.64,1.64,0,0,1-.75.95,3.31,3.31,0,0,0-.95.79,1.32,1.32,0,0,0,.58,1.95c1.08.26,1.71-.82,1.83-1.49A2,2,0,0,0,271.39,326.45Z"></path></g><g style="opacity:0.30000000000000004"><path d="M283.59,329.34a10.08,10.08,0,0,0-1.39-2.22,3.52,3.52,0,0,1-1.64,2.05,7.46,7.46,0,0,0-2.05,1.73,2.85,2.85,0,0,0,1.26,4.21c2.33.58,3.7-1.76,4-3.22A4.42,4.42,0,0,0,283.59,329.34Z"></path></g><g style="opacity:0.30000000000000004"><path d="M281.73,332.18a5.14,5.14,0,0,0-.64-1,1.65,1.65,0,0,1-.76.95,3.27,3.27,0,0,0-.94.79,1.31,1.31,0,0,0,.57,1.94c1.08.27,1.71-.81,1.84-1.48A2.06,2.06,0,0,0,281.73,332.18Z"></path></g><rect x="474.05" y="339.68" width="29.62" height="7.51" style="opacity:0.30000000000000004"></rect><rect x="479.83" y="329.47" width="7.85" height="10.21" style="fill:#fff;opacity:0.5"></rect><rect x="490.43" y="335.2" width="7.85" height="4.49" style="fill:#fff;opacity:0.5"></rect><g style="opacity:0.30000000000000004"><path d="M487.12,323.61a10.46,10.46,0,0,0-1.39-2.22,3.57,3.57,0,0,1-1.64,2.06,7.12,7.12,0,0,0-2,1.72,2.86,2.86,0,0,0,1.25,4.21c2.34.58,3.71-1.76,4-3.22A4.51,4.51,0,0,0,487.12,323.61Z"></path></g><g style="opacity:0.30000000000000004"><path d="M485.26,326.45a5.14,5.14,0,0,0-.64-1,1.65,1.65,0,0,1-.76.95,3.45,3.45,0,0,0-.95.79,1.36,1.36,0,0,0-.16,1.11,1.37,1.37,0,0,0,.74.84c1.08.26,1.71-.82,1.84-1.49A2.16,2.16,0,0,0,485.26,326.45Z"></path></g><g style="opacity:0.30000000000000004"><path d="M497.46,329.34a10.88,10.88,0,0,0-1.39-2.22,3.52,3.52,0,0,1-1.64,2.05,7.32,7.32,0,0,0-2.05,1.73,2.84,2.84,0,0,0,1.25,4.21c2.34.58,3.71-1.76,4-3.22A4.51,4.51,0,0,0,497.46,329.34Z"></path></g><g style="opacity:0.30000000000000004"><path d="M495.59,332.18a4.36,4.36,0,0,0-.64-1,1.64,1.64,0,0,1-.75.95,3.31,3.31,0,0,0-.95.79,1.36,1.36,0,0,0-.17,1.11,1.32,1.32,0,0,0,.75.83c1.08.27,1.71-.81,1.84-1.48A2.06,2.06,0,0,0,495.59,332.18Z"></path></g></g><g id="Plants"><path d="M79.68,348.76c-1-1.08-3.51,2.57-3.51,2.57s3.07-8.15.66-8.37-3.1,6.91-3.1,6.91.37-14.26-2.86-13.39.33,13.92.33,13.92-3.32-9.34-5-7.7S69,352.3,69,352.3s-3.55-2.72-3.45-1,7.86,6.9,7.86,6.9C76.25,355.36,80.65,349.83,79.68,348.76Z" style="fill:#407BFF"></path><path d="M73.42,358.44a.12.12,0,0,1-.13-.11c0-.06-.79-6.22-1.18-10.37a.12.12,0,0,1,.11-.13.12.12,0,0,1,.14.11c.39,4.14,1.17,10.3,1.18,10.36a.12.12,0,0,1-.11.14Z" style="opacity:0.30000000000000004"></path><path d="M72.9,354.36a.12.12,0,0,1-.1-.05L70.57,351a.12.12,0,0,1,.2-.14L73,354.17a.12.12,0,0,1,0,.17Z" style="opacity:0.30000000000000004"></path><path d="M128.63,346.86c1.07-1.7,5.43,2.67,5.43,2.67s-6.18-10.39-2.94-11.28S137,347,137,347s-3.95-19.4.66-19,2.92,19.1,2.92,19.1,2.29-13.57,5-11.73-1.53,13.8-1.53,13.8,4.19-4.57,4.47-2.17-9.06,11.34-9.06,11.34C134.92,355.06,127.56,348.56,128.63,346.86Z" style="fill:#407BFF"></path><path d="M139.5,358.53a.12.12,0,0,1-.12-.12c0-.08-.43-8.69-.89-14.44a.12.12,0,0,1,.11-.14.14.14,0,0,1,.14.12c.46,5.76.88,14.36.89,14.45a.12.12,0,0,1-.12.13Z" style="opacity:0.30000000000000004"></path><path d="M139.22,352.83h-.05a.12.12,0,0,1-.06-.16l2.25-5a.13.13,0,0,1,.17-.06.12.12,0,0,1,.06.16l-2.26,5A.12.12,0,0,1,139.22,352.83Z" style="opacity:0.30000000000000004"></path><path d="M588.53,347.29c-1-1.6-5.12,2.52-5.12,2.52s5.82-9.79,2.77-10.63-5.57,8.19-5.57,8.19,3.73-18.28-.62-17.89-2.75,18-2.75,18-2.16-12.78-4.72-11.05,1.44,13,1.44,13-3.94-4.31-4.21-2,8.54,10.68,8.54,10.68C582.6,355,589.53,348.9,588.53,347.29Z" style="fill:#407BFF"></path><path d="M578.28,358.3h0c-.07,0-.13-.07-.12-.13s.4-8.2.84-13.62a.13.13,0,0,1,.13-.12.14.14,0,0,1,.12.14c-.44,5.42-.84,13.53-.84,13.61A.13.13,0,0,1,578.28,358.3Z" style="opacity:0.30000000000000004"></path><path d="M578.55,352.93a.14.14,0,0,1-.12-.08l-2.12-4.73a.12.12,0,0,1,.06-.16.13.13,0,0,1,.17.06l2.12,4.73a.13.13,0,0,1-.06.17Z" style="opacity:0.30000000000000004"></path><path d="M652.58,351.41c-.64-1-3.28,1.62-3.28,1.62s3.74-6.29,1.78-6.83-3.58,5.27-3.58,5.27,2.39-11.75-.4-11.51-1.77,11.57-1.77,11.57-1.39-8.22-3-7.1.92,8.35.92,8.35-2.53-2.77-2.7-1.31,5.48,6.86,5.48,6.86C648.78,356.38,653.23,352.45,652.58,351.41Z" style="fill:#407BFF"></path><path d="M646,358.53h0a.11.11,0,0,1-.11-.13s.25-5.27.54-8.75c0-.07.07-.11.13-.12a.14.14,0,0,1,.12.14c-.29,3.48-.54,8.69-.55,8.74A.12.12,0,0,1,646,358.53Z" style="opacity:0.30000000000000004"></path><path d="M646.17,355.08a.12.12,0,0,1-.11-.07l-1.37-3a.13.13,0,0,1,.06-.17.13.13,0,0,1,.17.07l1.37,3a.13.13,0,0,1-.07.17Z" style="opacity:0.30000000000000004"></path></g><g id="Rocks"><polygon points="579.33 428.97 570.17 415.01 560.36 402.41 552.95 400.31 538.63 385.32 520.22 388.06 506.57 394.83 498.85 413.18 493.68 415.01 486.74 428.97 579.33 428.97" style="fill:#263238"></polygon><polygon points="434.99 467.94 443.47 454.4 462.36 448.44 472.25 452.43 484.25 467.94 434.99 467.94" style="fill:#263238"></polygon><polygon points="434.99 467.94 443.47 454.4 462.36 448.44 472.25 452.43 484.25 467.94 434.99 467.94" style="fill:#fff;isolation:isolate;opacity:0.5"></polygon><polygon points="484.25 467.94 472.25 452.43 462.36 448.44 466.56 455.8 458.69 460.67 468.78 457.79 468.78 457.79 484.25 467.94" style="isolation:isolate;opacity:0.2"></polygon></g><g id="Bonfire"><g id="freepik--Fire--inject-326"><path d="M388,407.34,349.6,418.18a5.37,5.37,0,0,0-3.7,6.6h0a5.38,5.38,0,0,0,6.61,3.7l38.38-10.83a5.38,5.38,0,0,0,3.7-6.61h0A5.38,5.38,0,0,0,388,407.34Z" style="fill:#263238"></path><path d="M388,407.34l-4.28,1.21a5.37,5.37,0,0,0-3.7,6.61h0a5.36,5.36,0,0,0,6.61,3.69l4.28-1.2a5.38,5.38,0,0,0,3.7-6.61h0A5.38,5.38,0,0,0,388,407.34Z" style="fill:#fff;isolation:isolate;opacity:0.4"></path><path d="M392.74,415.78c-22.69,0-30.47-19.3-22.06-35.34,6.05-11.49,4.82-24.1,2.15-32.56a1.21,1.21,0,0,1,2.06-1.17,53.06,53.06,0,0,1,5.49,7.1,1.21,1.21,0,0,0,2.21-.84c-1.07-7.29-1.59-18.68,3-28.69a1.21,1.21,0,0,1,2.25.09c4,11,18.15,29.82,19.8,45.12a1.22,1.22,0,0,0,2.4.08,47.92,47.92,0,0,0,.63-10.4,1.22,1.22,0,0,1,2.33-.53C422.51,379.7,422.46,415.78,392.74,415.78Z" style="fill:#407BFF;isolation:isolate"></path><path d="M404.27,390.66c-4-6.39-3.81-13.74-2.63-18.76a.71.71,0,0,0-1.25-.59,30.9,30.9,0,0,0-2.87,4.35.7.7,0,0,1-1.32-.39c.31-4.28.11-10.89-3-16.49a.71.71,0,0,0-1.3.17c-1.82,6.52-9.2,18-9.53,26.92A.71.71,0,0,1,381,386a27.6,27.6,0,0,1-.78-5.89.71.71,0,0,0-1.38-.22c-4.58,12.62-3,33.43,14.19,32.17C406.17,411.11,409.85,399.59,404.27,390.66Z" style="fill:#fff;isolation:isolate;opacity:0.30000000000000004"></path><path d="M400.87,408.53l38.39,10.84A5.35,5.35,0,0,1,443,426h0a5.37,5.37,0,0,1-6.6,3.7L398,418.84a5.38,5.38,0,0,1-3.7-6.61h0A5.37,5.37,0,0,1,400.87,408.53Z" style="fill:#263238"></path><path d="M395.71,410.08l15.36,10.61a5.36,5.36,0,0,1,1.57,7.4h0a5.35,5.35,0,0,1-7.39,1.58l-15.68-10.83a5.38,5.38,0,0,1-1.31-7.46h0A5.36,5.36,0,0,1,395.71,410.08Z" style="fill:#263238"></path></g></g><g id="Character"><path d="M258.76,280.75a2.08,2.08,0,0,0-2.33-.19,4,4,0,0,0-1.6,1.85,2.11,2.11,0,1,0-4.19-.49l1.36,4.57a3,3,0,0,0,2.91,1.25,5,5,0,0,0,4.51-5.36A2.51,2.51,0,0,0,258.76,280.75Z" style="fill:#263238"></path><path d="M227.85,291.61c-.35,6.42.14,21.94-5.11,25.55,0,0-1.08,5.1,10.12,6.62,12.33,1.67,7.45-5.56,7.45-5.56C236,316,236.65,307,239,302.33Z" style="fill:#e4897b"></path><path d="M250.49,289.17a.56.56,0,0,1-.2-.11.47.47,0,0,1,0-.67h0a4.8,4.8,0,0,1,4.06-1.75.49.49,0,0,1,.35.6.48.48,0,0,1-.48.36h0A3.81,3.81,0,0,0,251,289,.51.51,0,0,1,250.49,289.17Z" style="fill:#263238"></path><path d="M252.79,294.48a22.41,22.41,0,0,0,2.25,5.58,3.57,3.57,0,0,1-3,.19Z" style="fill:#de5753"></path><path d="M252.22,293c-.09.81.26,1.5.79,1.59s1.05-.54,1.15-1.35-.25-1.54-.75-1.61S252.33,292.17,252.22,293Z" style="fill:#263238"></path><path d="M225.07,286.79c-.62,10.12-1.1,14.39,3.34,20.17,6.67,8.7,19.24,7.25,22.87-2.48,3.28-8.76,3.76-23.85-5.6-29.05a13.83,13.83,0,0,0-20.61,11.36Z" style="fill:#e4897b"></path><path d="M250.87,289.52c.48,3,.28,6.52-4,5.93-11.13,7.8-16.68,8.55-16.68,8.55s-8.65-1-6.75-6.29-.43-9.63,0-12.36,3.95-10.81,9.24-12.8a15.8,15.8,0,0,1,17.09,4.62C254.16,282.39,250.87,289.52,250.87,289.52Z" style="fill:#263238"></path><path d="M249.11,291.67a8.43,8.43,0,0,1,.21,5.65c-.75,2.43-3,2.12-4.28.17-1.17-1.76-2.17-5.14-.66-7S248.22,289.5,249.11,291.67Z" style="fill:#e4897b"></path><path d="M253.21,286.17c-.21,3.6-8,10.9-20.26,12.15s-10.6,1.09-10.65-5.39a56.13,56.13,0,0,1,.24-7.56,7.38,7.38,0,0,1,1.25-2.75s-6.46-.29-3.16-6.14c2.54-4.5,12.75-7.43,20.67-5.67C248.45,272.4,253.72,277.23,253.21,286.17Z" style="fill:#407BFF"></path><path d="M223.76,282.62a7.84,7.84,0,0,0-1,1.79c2.76-.4,8.18-1.54,10.72-4.54A22.3,22.3,0,0,1,223.76,282.62Z" style="isolation:isolate;opacity:0.2"></path><path d="M226.23,293.14c-1.28,0-2.6-.06-4-.17l.06-.75c15.44,1.34,25-5.38,30.24-11.26l.55.51C248.2,286.94,239.66,293.14,226.23,293.14Z" style="opacity:0.30000000000000004"></path><polygon points="262.69 459.22 271.94 460.13 271.22 436.73 255.84 441.06 262.69 459.22" style="fill:#e4897b"></polygon><path d="M272.76,455h-.49a5.33,5.33,0,0,0-4.24,2.08c-1.87,2.49-3.29,1.51-5.34-.91-1.31-.15-1.67,1.36-1.77,1.76l-.86,8.68a1.41,1.41,0,0,0,1,1.74,1.45,1.45,0,0,0,.41.06c4,0,4.29.29,9.28.29H286c4.16,0,5-4.19,3.31-4.57-7.71-1.71-13.16-4-15.54-6.21C273.3,457.55,273.24,456.25,272.76,455Z" style="fill:#263238"></path><path d="M280.43,458.6a1.33,1.33,0,0,0,.56-1.08.59.59,0,0,0-.27-.58c-1-.73-5.16,1.19-5.62,1.42a.19.19,0,0,0,0,.35,14.69,14.69,0,0,0,3.09.39A3.66,3.66,0,0,0,280.43,458.6Zm0-1.35a.24.24,0,0,1,.1.25,1.05,1.05,0,0,1-.41.79c-.93.7-3.2.39-4.41.17C277.46,457.7,279.89,456.85,280.47,457.25Z" style="fill:#407BFF"></path><path d="M275.24,458.75c1.24-.52,3.84-2.55,3.7-3.63,0-.23-.19-.5-.75-.57-2.26-.26-3.23,3.8-3.23,4a.19.19,0,0,0,.06.2h.12Zm2.88-3.87c.42,0,.42.2.42.25.12.66-1.77,2.35-3.12,3.06.28-.95,1.11-3.32,2.55-3.32Z" style="fill:#407BFF"></path><path d="M272.76,460.65a.33.33,0,0,1-.13,0,.26.26,0,0,1-.08-.35,4.27,4.27,0,0,1,3-1.92.26.26,0,0,1,.28.22.25.25,0,0,1-.21.28,3.77,3.77,0,0,0-2.63,1.69A.22.22,0,0,1,272.76,460.65Z" style="fill:#407BFF"></path><path d="M274.81,462.19a.22.22,0,0,1-.13,0,.25.25,0,0,1-.08-.34,4.21,4.21,0,0,1,3-1.92.25.25,0,0,1,.28.21.25.25,0,0,1-.21.28,3.77,3.77,0,0,0-2.63,1.69A.22.22,0,0,1,274.81,462.19Z" style="fill:#407BFF"></path><path d="M277.36,463.49a.22.22,0,0,1-.13,0,.25.25,0,0,1-.08-.34,4.21,4.21,0,0,1,3-1.92.25.25,0,0,1,.28.21.24.24,0,0,1-.21.28,3.73,3.73,0,0,0-2.62,1.69A.25.25,0,0,1,277.36,463.49Z" style="fill:#407BFF"></path><path d="M229.2,380.14c12.35-4.81,30.67-8,34.12,5.71,6.52,25.78,10.9,67.95,10.9,67.95l-15.36,2.59s-12.5-34.12-14-55c-5.8,3.47-20.51,9.13-31.19,2.36-7.83-6.59-7.35-15.06-7.32-23.42C206.36,380.31,210.76,379.22,229.2,380.14Z" style="fill:#263238"></path><path d="M263.33,385.85l-18.46,15.52c1.5,20.9,14,55,14,55l15.36-2.59S269.84,411.63,263.33,385.85Z" style="isolation:isolate;opacity:0.6000000000000001"></path><polygon points="299.93 459.78 309.18 460.69 308.46 437.29 293.08 441.62 299.93 459.78" style="fill:#e4897b"></polygon><path d="M310,455.59h-.49a5.27,5.27,0,0,0-4.23,2.08c-1.88,2.49-3.3,1.51-5.35-.91-1.31-.15-1.67,1.36-1.77,1.76l-.86,8.68a1.41,1.41,0,0,0,1,1.74,1.45,1.45,0,0,0,.41.06c4,0,4.29.29,9.28.29h15.25c4.16,0,5-4.19,3.31-4.58-7.7-1.7-13.16-4-15.54-6.2C310.54,458.11,310.48,456.81,310,455.59Z" style="fill:#263238"></path><path d="M317.67,459.16a1.33,1.33,0,0,0,.56-1.08.58.58,0,0,0-.27-.58c-1-.73-5.15,1.19-5.62,1.42a.2.2,0,0,0-.11.11.18.18,0,0,0,.11.23,14.7,14.7,0,0,0,3.09.4A3.66,3.66,0,0,0,317.67,459.16Zm0-1.35a.24.24,0,0,1,.1.25,1,1,0,0,1-.41.78c-.93.71-3.19.4-4.41.18C314.7,458.26,317.14,457.41,317.71,457.81Z" style="fill:#407BFF"></path><path d="M312.48,459.31c1.24-.52,3.84-2.55,3.7-3.63,0-.23-.19-.5-.75-.57-2.26-.26-3.23,3.8-3.23,4a.19.19,0,0,0,.06.2.28.28,0,0,0,.13,0Zm2.88-3.87c.42,0,.42.2.42.25.12.66-1.77,2.35-3.11,3.06.28-.95,1.1-3.32,2.54-3.32Z" style="fill:#407BFF"></path><path d="M310,461.21a.33.33,0,0,1-.13,0,.26.26,0,0,1-.08-.35,4.27,4.27,0,0,1,3-1.92.26.26,0,0,1,.28.22.25.25,0,0,1-.21.28,3.77,3.77,0,0,0-2.63,1.69A.22.22,0,0,1,310,461.21Z" style="fill:#407BFF"></path><path d="M312.05,462.75a.22.22,0,0,1-.13,0,.25.25,0,0,1-.08-.34,4.21,4.21,0,0,1,3-1.92.25.25,0,0,1,.28.21.24.24,0,0,1-.21.28,3.77,3.77,0,0,0-2.63,1.69A.22.22,0,0,1,312.05,462.75Z" style="fill:#407BFF"></path><path d="M314.6,464.05a.22.22,0,0,1-.13,0,.26.26,0,0,1-.08-.35,4.25,4.25,0,0,1,3-1.91.24.24,0,0,1,.28.21.24.24,0,0,1-.21.28,3.73,3.73,0,0,0-2.62,1.69A.25.25,0,0,1,314.6,464.05Z" style="fill:#407BFF"></path><path d="M245.88,380.14c12.34-4.81,51.64-8,55.1,5.71,6.52,25.78,8.7,66.27,8.7,66.27L296,454.18S284,422.27,282.52,401.37c-18.21,1-47.17,10.74-57.85,3.95a25.53,25.53,0,0,1-11.94-25A298,298,0,0,1,245.88,380.14Z" style="fill:#263238"></path><path d="M282.52,401.37a17.28,17.28,0,0,0,6-1.8c2.55-1.47,3.15-2.56,3.15-2.56s-1.58,3.54-3.75,5a16.66,16.66,0,0,1-5.14,2.08Z" style="isolation:isolate;opacity:0.2"></path><path d="M320.27,338.51l-1.93,1.12a31.71,31.71,0,0,1,2.26-2.44c1-1.05.95-1.45.49-1.92s-4.67,2.82-4.67,2.82,2.39-2.56,2.65-3c.5-.89,1.27-2.63.23-2.55-.86.06-4.58,3.85-4.58,3.85l1.89-2.56s1.4-1.57.63-2.17c-.59-.45-4.28,3.18-5.13,4.27s-2.2,6.06-2.2,6.06.57-4.66,0-5.24-2.15,3.61-2.15,5.08.66,6,.66,6l-2.06.47c0,.39,1.56,6.91,1.56,6.91s7.92-3.87,8.47-5l2.11-7.24c.91-2.3,3.34-2.89,3.6-4.19C322.23,338,321.1,338,320.27,338.51Z" style="fill:#e4897b"></path><path d="M313.08,339.84l-.24,0a7.13,7.13,0,0,1,1.88-3.6l.18.17A6.94,6.94,0,0,0,313.08,339.84Z" style="opacity:0.30000000000000004"></path><path d="M315.52,340.42l-.24,0a4.12,4.12,0,0,1,1.24-2.59l.18.18A3.87,3.87,0,0,0,315.52,340.42Z" style="opacity:0.30000000000000004"></path><path d="M317.62,341.21l-.23-.1.19-.41a3.82,3.82,0,0,1,.83-1.33l.18.17a3.86,3.86,0,0,0-.79,1.26C317.75,340.93,317.69,341.07,317.62,341.21Z" style="opacity:0.30000000000000004"></path><path d="M294.85,333.71c-.44.27-1.25.74-1.93,1.13a30,30,0,0,1,2.26-2.44c1-1.06.95-1.45.49-1.92s-4.68,2.81-4.68,2.81,2.4-2.55,2.66-3c.49-.89,1.27-2.64.23-2.56-.86.07-4.58,3.86-4.58,3.86l1.89-2.56s1.39-1.57.62-2.17c-.58-.46-4.27,3.18-5.12,4.27s-2.2,6.05-2.2,6.05,1.11-4.82,0-5.23c-.75-.28-2.15,3.6-2.15,5.08s.65,6,.65,6l-2.05.46c0,.39,1.55,6.92,1.55,6.92s7.93-3.87,8.47-5l2.12-7.23c.91-2.3,3.34-2.89,3.59-4.2C296.81,333.24,295.68,333.2,294.85,333.71Z" style="fill:#e4897b"></path><path d="M287.66,335.05l-.25-.05a7.15,7.15,0,0,1,1.89-3.6l.17.17A6.93,6.93,0,0,0,287.66,335.05Z" style="opacity:0.30000000000000004"></path><path d="M290.1,335.63l-.24-.05A4.12,4.12,0,0,1,291.1,333l.17.18A3.91,3.91,0,0,0,290.1,335.63Z" style="opacity:0.30000000000000004"></path><path d="M292.2,336.42l-.23-.11c.07-.14.13-.27.18-.4a4,4,0,0,1,.84-1.34l.18.18a3.64,3.64,0,0,0-.79,1.27C292.32,336.14,292.27,336.28,292.2,336.42Z" style="opacity:0.30000000000000004"></path><path d="M288.94,342.05h-.25a4.78,4.78,0,0,0-4.09-4.81l-.11,0,0-.86h.25l0,.64A5.06,5.06,0,0,1,288.94,342.05Z" style="opacity:0.30000000000000004"></path><path d="M228.22,323.55l3.05,2.92,3.16,3c2.12,2,4.25,3.92,6.4,5.78s4.31,3.63,6.44,5.25a48.77,48.77,0,0,0,6.15,4l.66.34.6.28a4.71,4.71,0,0,1,.52.21c.17.07.38.12.56.18a12.91,12.91,0,0,0,2.76.51,28.68,28.68,0,0,0,7.1-.47,63.47,63.47,0,0,0,7.94-2c1.33-.44,2.7-.87,4.05-1.36.68-.24,1.36-.48,2-.75l1.93-.75,5.67,8.21c-.75.68-1.28,1.21-1.94,1.78s-1.28,1.08-1.93,1.61c-1.32,1-2.67,2-4.08,3a54.89,54.89,0,0,1-9.12,4.91,38.7,38.7,0,0,1-11,2.9,28.71,28.71,0,0,1-6.42,0c-.57-.08-1.12-.15-1.69-.26l-1.71-.38-1.58-.46-1.5-.51a53.5,53.5,0,0,1-9.85-5,95,95,0,0,1-8.26-5.81c-2.6-2-5.08-4.14-7.5-6.32-1.19-1.11-2.38-2.2-3.52-3.35-.58-.57-1.17-1.14-1.73-1.73l-1.74-1.85Z" style="fill:#407BFF"></path><path d="M228.22,323.55l3.05,2.92,3.16,3c2.12,2,4.25,3.92,6.4,5.78s4.31,3.63,6.44,5.25a48.77,48.77,0,0,0,6.15,4l.66.34.6.28a4.71,4.71,0,0,1,.52.21c.17.07.38.12.56.18a12.91,12.91,0,0,0,2.76.51,28.68,28.68,0,0,0,7.1-.47,63.47,63.47,0,0,0,7.94-2c1.33-.44,2.7-.87,4.05-1.36.68-.24,1.36-.48,2-.75l1.93-.75,5.67,8.21c-.75.68-1.28,1.21-1.94,1.78s-1.28,1.08-1.93,1.61c-1.32,1-2.67,2-4.08,3a54.89,54.89,0,0,1-9.12,4.91,38.7,38.7,0,0,1-11,2.9,28.71,28.71,0,0,1-6.42,0c-.57-.08-1.12-.15-1.69-.26l-1.71-.38-1.58-.46-1.5-.51a53.5,53.5,0,0,1-9.85-5,95,95,0,0,1-8.26-5.81c-2.6-2-5.08-4.14-7.5-6.32-1.19-1.11-2.38-2.2-3.52-3.35-.58-.57-1.17-1.14-1.73-1.73l-1.74-1.85Z" style="opacity:0.5"></path><path d="M249.45,317.52c-2.31-.45-4.8-.9-7.2-1.24a132.51,132.51,0,0,0-18.82-.94c-1.68,0-3.34.05-5,.13-5.53.28-11.2,4.93-12.49,10.31-2.51,17.6-2.11,40.58,0,57.11,0,0-3.29,4.12.45,5.88,0,0,.35,2.79.38,2.78l47.72-10.65c2.05-.34,3-2.79.7-4.87.66-11-3.29-8.27-2.32-17C256.62,344.16,256.62,318.64,249.45,317.52Z" style="fill:#407BFF"></path><path d="M249.45,317.52c-2.31-.45-4.8-.9-7.2-1.24a132.51,132.51,0,0,0-18.82-.94c-1.68,0-3.34.05-5,.13-5.53.28-11.2,4.93-12.49,10.31-2.51,17.6-2.11,40.58,0,57.11,0,0-3.29,4.12.45,5.88,0,0,.35,2.79.38,2.78l47.72-10.65c2.05-.34,3-2.79.7-4.87.66-11-3.29-8.27-2.32-17C256.62,344.16,256.62,318.64,249.45,317.52Z" style="opacity:0.30000000000000004"></path><path d="M248.7,342.37c1.51,5.26,1.7,7.42,5.29,11.55,0,0,.76-4.58,1-7.31Z" style="isolation:isolate;opacity:0.1"></path><g style="isolation:isolate;opacity:0.2"><path d="M215.15,319.34l-5.87,1.26c.76,5.18,5.19,9.4,10.27,10.65s10.59-.2,14.92-3.14c3-2,5.59-7.73,7.78-11.83C233.91,315.63,223.49,318.74,215.15,319.34Z"></path></g><path d="M244.76,316.29a14.07,14.07,0,0,0-8.75-9.45c-7.44-2.92-17.9-2.85-23.53-.42s-10.22,11.45-3.54,15.21,20.13,3.75,25.23,1S241.49,316.23,244.76,316.29Z" style="fill:#263238"></path><path d="M305.67,345.65l-22.4,3.07a5.22,5.22,0,0,1-4.5-1.57c-4.74-5-18.67-21.44-23.68-26.28a12.78,12.78,0,0,0-5.64-3.35c-4.55-.87-.75,24.85-.75,24.85v.68c.48.75,14.15,19.85,29,22s33.4-10.16,33.4-10.16Z" style="fill:#407BFF"></path><path d="M305.67,345.65l-22.4,3.07a5.22,5.22,0,0,1-4.5-1.57c-4.74-5-18.67-21.44-23.68-26.28a12.78,12.78,0,0,0-5.64-3.35c-4.55-.87-.75,24.85-.75,24.85v.68c.48.75,14.15,19.85,29,22s33.4-10.16,33.4-10.16Z" style="opacity:0.30000000000000004"></path><path d="M255.26,376c-.35-.09-25.08,6.86-25.08,6.86l25.66-6.25Z" style="isolation:isolate;opacity:0.2"></path><polygon points="168.04 468.73 170.07 447.67 184.88 428.65 196.06 425.49 204.26 402.86 245.44 407 266.05 417.22 277.69 444.9 285.49 447.67 295.96 468.73 168.04 468.73" style="fill:#263238"></polygon><polygon points="168.04 468.73 170.07 447.67 184.88 428.65 196.06 425.49 204.26 402.86 245.44 407 266.05 417.22 277.69 444.9 285.49 447.67 295.96 468.73 168.04 468.73" style="fill:#fff;isolation:isolate;opacity:0.5"></polygon><polygon points="184.88 428.65 203.21 431.48 204.26 402.86 196.06 425.49 184.88 428.65" style="isolation:isolate;opacity:0.2"></polygon><path d="M277.69,444.9v2l-20.78,2s26.65,1,26.74,1.25S295,466.82,295,466.82l-9.52-19.15Z" style="isolation:isolate;opacity:0.2"></path></g></svg>
