<svg xmlns="http://www.w3.org/2000/svg" viewBox="0 0 500 500"><g id="background-complete"><path d="M82.9,207.81l34.51-19.74,18.32-26.56,41.62-50.86,35.01-14.39,50.73-4.58,30.93,41.86,67.19,9.16s56.17,60.33,56.85,60.25c.67-.08-335.15,4.86-335.15,4.86Z" style="fill:#f5f5f5;"></path><g><path d="M17.48,228.19l54.1-47.06s36.35,14.58,38.88,14.58,87.21-19,88.73-18.5c1.52,.5,56.79-18.5,59.83-19.49,3.04-1,11.15,0,11.15,0l20.79-5.5,11.15-4.5,11.15-3,19.27,2.5,11.66,5.5,95.83,38.49,17.24,.5,7.1,14,29.7,33.49H8.71l8.77-11.01Z" style="fill:#ebebeb;"></path><polygon points="40.58 207.85 63.9 200.34 68.93 204.26 77.93 203.36 81.89 193.27 112.43 195.71 73.06 178.93 40.58 207.85" style="fill:#fafafa;"></polygon><polygon points="440.05 191.21 332.55 147.22 313.29 144.72 287.08 153.25 270.19 157.72 259.03 157.72 237.77 164.93 259 161.81 275.1 173.35 309.34 167.97 327.54 182.38 335.37 173.35 373.09 180.68 363.43 169.62 440.05 191.21" style="fill:#fafafa;"></polygon></g><path d="M257.42,392.83c75.58-13.19,152.26-20.45,229.05-21.67,.25-5.72,.51-11.45,.76-17.17-80.55,9.65-161.09,19.29-241.64,28.94-12.7,1.52-27.59,4.54-32.72,15.92-1.72,3.82-1.99,7.8-1.33,11.8,1.9,11.51-7.03,21.99-18.69,22.54-42.23,2-84.59,1.25-126.71-2.25l-58.63-23.7c.55,13.19-.53,68.98,.02,82.17,73.08-27.05,169.29-20.4,245.95-35.47,7.91-1.56,17.38-5.04,18.31-12.83,1.01-8.5-8.94-13.92-17.33-16.55-8.39-2.64-18.55-6.87-18.99-15.41-.51-9.81,11.98-14.59,21.95-16.33Z" style="fill:#f5f5f5;"></path><ellipse cx="360.34" cy="430.71" rx="20.73" ry="7.28" style="fill:#f5f5f5;"></ellipse><ellipse cx="280.84" cy="319.9" rx="20.73" ry="7.28" style="fill:#f5f5f5;"></ellipse><path d="M205.35,261.2c-5-.11-10.18-.19-14.8,1.41-4.62,1.59-8.53,5.35-8.07,9.47,.6,5.36,7.82,8.62,9.74,13.76,1.9,5.07-2.1,10.65-7.63,13.36-5.53,2.71-12.21,3.2-18.63,3.47-59.48,2.49-100.53-8.68-158.58-19.66v19.97c58.05,10.97,123.9,21.63,183.38,19.13,6.43-.27,13.1-.76,18.63-3.47,5.53-2.71,9.53-8.28,7.63-13.36-1.93-5.14-9.14-8.4-9.74-13.76-.46-4.11,3.46-7.87,8.07-9.47,4.62-1.59,9.79-1.51,14.8-1.41,88.06,1.88,169.03,24.42,257.08,26.3v-41.4c-88.06-1.88-193.83-2.47-281.88-4.35Z" style="fill:#f5f5f5;"></path><polygon points="265.57 113.81 284.26 120.33 263.09 91.68 212.36 96.25 175.48 109.69 153.39 139.92 186.4 125.15 203.61 110.72 226.36 130.65 243.24 139.92 237.77 127.9 240.15 110.72 265.57 113.81" style="fill:#fafafa;"></polygon><path d="M131.46,98.67c-1.18-3.16-2.39-6.37-4.39-9.1-1.99-2.73-4.9-4.96-8.26-5.37-3.35-.41-7.07,1.4-8.16,4.6-.48-7.2-1.5-14.59-5.11-20.85-3.61-6.25-10.33-11.17-17.54-10.73-6.79,.42-12.61,5.46-15.84,11.45-3.23,5.99-4.34,12.86-5.4,19.58-2.57-3.16-8.01-2.17-10.7,.9-2.69,3.06-3.37,7.35-3.94,11.38h81.06l-1.73-1.87Z" style="fill:#f5f5f5;"></path><path d="M444.19,90.43c-1.31-3.49-2.64-7.03-4.84-10.04-2.2-3.01-5.41-5.47-9.11-5.93-3.7-.45-7.8,1.54-9,5.07-.53-7.94-1.66-16.1-5.63-22.99-3.98-6.9-11.4-12.32-19.34-11.83-7.49,.46-13.91,6.02-17.48,12.63-3.57,6.61-4.79,14.19-5.96,21.6-2.84-3.49-8.84-2.39-11.8,.99-2.96,3.38-3.72,8.11-4.35,12.56h87.66l-.15-2.07Z" style="fill:#f5f5f5;"></path><path d="M311.1,81.68c-.37-1-.75-2.01-1.38-2.87-.63-.86-1.55-1.57-2.61-1.69s-2.23,.44-2.57,1.45c-.15-2.27-.47-4.6-1.61-6.58-1.14-1.97-3.26-3.52-5.53-3.38-2.14,.13-3.98,1.72-5,3.61-1.02,1.89-1.37,4.06-1.7,6.18-.81-1-2.53-.68-3.38,.28s-1.06,2.32-1.24,3.59h25.58l-.54-.59Z" style="fill:#ebebeb;"></path><path d="M451.29,132.3c-.5-1.32-1-2.67-1.84-3.81-.83-1.14-2.05-2.08-3.46-2.25-1.4-.17-2.96,.59-3.42,1.93-.2-3.02-.63-6.11-2.14-8.73-1.51-2.62-4.33-4.68-7.35-4.49-2.85,.17-5.28,2.29-6.64,4.8-1.35,2.51-1.82,5.39-2.26,8.2-1.08-1.32-3.36-.91-4.48,.38-1.13,1.28-1.41,3.08-1.65,4.77h33.96l-.72-.78Z" style="fill:#ebebeb;"></path><path d="M82.36,144.13c-.37-1-.75-2.01-1.38-2.87-.63-.86-1.55-1.57-2.61-1.69-1.06-.13-2.23,.44-2.57,1.45-.15-2.27-.47-4.6-1.61-6.58-1.14-1.97-3.26-3.52-5.53-3.38-2.14,.13-3.98,1.72-5,3.61-1.02,1.89-1.37,4.06-1.7,6.18-.81-1-2.53-.68-3.38,.28s-1.06,2.32-1.24,3.59h25.58l-.54-.59Z" style="fill:#ebebeb;"></path><path d="M193.12,75.15c-.74-1.97-1.49-3.97-2.73-5.67-1.24-1.7-3.06-3.09-5.15-3.35-2.09-.26-4.4,.87-5.09,2.86-.3-4.49-.94-9.1-3.18-12.99-2.25-3.9-6.44-6.96-10.93-6.69-4.23,.26-7.86,3.4-9.87,7.14-2.01,3.73-2.71,8.02-3.37,12.21-1.61-1.97-4.99-1.35-6.67,.56-1.68,1.91-2.1,4.58-2.46,7.1h50.52l-1.08-1.17Z" style="fill:#ebebeb;"></path></g><g id="background-simple"><path d="M451.92,82.22l-1.03-2.38c-8.67-20.03-27.42-33.96-48.99-35.55-2.77-.2-5.56-.21-8.34,0-20.02,1.49-38.96,13.86-48.56,31.73-5.65,10.51-8.55,23.1-17.59,30.81-11.76,10.04-29.1,8.02-44.24,5.45-15.14-2.57-32.5-4.54-44.21,5.55-7.34,6.32-10.76,16.27-11.58,25.97-2.15,25.69,12.48,50.94,33.52,65.38,21.04,14.44,47.51,19.12,72.93,17.54,35.61-2.22,71.2-16.86,95.09-43.77,23.88-26.9,34.45-66.58,23-100.73Z" style="fill:#f5f5f5;"></path><circle cx="122.76" cy="96.13" r="39.44" transform="translate(-32.02 114.96) rotate(-45)" style="fill:#f5f5f5;"></circle></g><g id="Floor"><path d="M478.76,239.53c0,.14-104.04,.26-232.34,.26s-232.36-.12-232.36-.26,104.01-.26,232.36-.26,232.34,.12,232.34,.26Z" style="fill:#263238;"></path><path d="M408.31,263.03c0,.14-16.13,.26-36.02,.26s-36.02-.12-36.02-.26,16.12-.26,36.02-.26,36.02,.12,36.02,.26Z" style="fill:#263238;"></path><path d="M363.89,271.43c0,.14-9.14,.26-20.41,.26s-20.41-.12-20.41-.26,9.14-.26,20.41-.26,20.41,.12,20.41,.26Z" style="fill:#263238;"></path><path d="M438.33,332.06c0,.14-12.36,.26-27.61,.26s-27.62-.12-27.62-.26,12.36-.26,27.62-.26,27.61,.12,27.61,.26Z" style="fill:#263238;"></path><path d="M400.51,342.27c0,.14-3.76,.26-8.4,.26s-8.4-.12-8.4-.26,3.76-.26,8.4-.26,8.4,.12,8.4,.26Z" style="fill:#263238;"></path><path d="M77.55,309.85c0,.14-9,.26-20.11,.26s-20.11-.12-20.11-.26,9-.26,20.11-.26,20.11,.12,20.11,.26Z" style="fill:#263238;"></path><path d="M66.14,318.26c0,.14-5.64,.26-12.61,.26s-12.61-.12-12.61-.26,5.64-.26,12.61-.26,12.61,.12,12.61,.26Z" style="fill:#263238;"></path></g><g id="Sun"><g><g><circle cx="360.34" cy="98.65" r="28.86" transform="translate(159.49 413.68) rotate(-72.79)" style="fill:#FF725E;"></circle><g style="opacity:.9;"><circle cx="360.34" cy="98.65" r="28.86" transform="translate(159.49 413.68) rotate(-72.79)" style="fill:#fff;"></circle></g></g><g><circle cx="360.34" cy="98.65" r="25.74" transform="translate(132.26 394.55) rotate(-67.69)" style="fill:#FF725E;"></circle><g style="opacity:.6;"><circle cx="360.34" cy="98.65" r="25.74" transform="translate(132.26 394.55) rotate(-67.69)" style="fill:#fff;"></circle></g></g><g><circle cx="360.34" cy="98.65" r="21.42" transform="translate(-4.44 179.36) rotate(-27.79)" style="fill:#FF725E;"></circle><g style="opacity:.3;"><circle cx="360.34" cy="98.65" r="21.42" transform="translate(-4.44 179.36) rotate(-27.79)" style="fill:#fff;"></circle></g></g><circle cx="360.34" cy="98.65" r="17.15" style="fill:#FF725E;"></circle></g></g><g id="Thermos"><g><path d="M43.09,384.14h13.81c2.29,0,4.16,1.86,4.16,4.16v57.5h-22.13v-57.5c0-2.29,1.86-4.16,4.16-4.16Z" style="fill:#FF725E;"></path><path d="M42.31,441.99h0c-.71,0-1.29-.58-1.29-1.29v-51.45c0-.71,.58-1.29,1.29-1.29h0c.72,0,1.29,.58,1.29,1.29v51.45c0,.71-.58,1.29-1.29,1.29Z" style="fill:#fff; opacity:.3;"></path><path d="M61.06,401.63c0,.14-4.95,.26-11.06,.26s-11.06-.12-11.06-.26,4.95-.26,11.06-.26,11.06,.12,11.06,.26Z" style="fill:#263238;"></path></g></g><g id="Bucket"><g><path d="M302.94,386.32c0,1.41-14.08,2.55-31.46,2.55s-31.46-1.14-31.46-2.55,14.08-2.55,31.46-2.55,31.46,1.14,31.46,2.55Z" style="fill:#263238;"></path><path d="M300.48,403.79s.21,.21,.55,.66c.34,.44,.83,1.11,1.43,1.99,1.18,1.76,2.88,4.35,4.45,7.83,.76,1.74,1.52,3.72,1.76,5.99,.11,1.12,.06,2.35-.43,3.5-.48,1.15-1.49,2.11-2.7,2.59-.31,.11-.61,.21-.92,.32-.32,.06-.64,.12-.97,.18-.64,.17-1.32,.11-1.99,.14-.67-.04-1.34-.12-2.01-.23-.66-.18-1.35-.27-1.99-.53-2.63-.87-5.14-2.28-7.54-3.91-4.79-3.32-8.81-7.16-12.3-10.77-3.48-3.63-6.41-7.08-8.81-10.03-2.39-2.95-4.23-5.41-5.48-7.13-.62-.86-1.1-1.54-1.41-2-.31-.46-.47-.71-.45-.72,.01-.01,.2,.22,.54,.66,.37,.48,.86,1.13,1.48,1.94,1.3,1.68,3.18,4.1,5.6,7.02,2.42,2.92,5.38,6.33,8.87,9.93,3.49,3.58,7.51,7.39,12.25,10.68,2.37,1.62,4.84,3.01,7.4,3.86,.63,.25,1.29,.34,1.93,.52,.65,.11,1.3,.19,1.93,.23,.64-.04,1.28,.03,1.89-.13,.31-.06,.61-.11,.92-.17,.29-.1,.58-.2,.87-.3,1.13-.45,2.02-1.29,2.47-2.34,.46-1.04,.52-2.2,.42-3.28-.21-2.19-.94-4.15-1.67-5.88-1.51-3.47-3.15-6.07-4.28-7.86-.56-.85-1.01-1.53-1.34-2.04-.31-.46-.47-.71-.46-.72Z" style="fill:#263238;"></path><g><g><path d="M289.61,393.08c.52,.83,1.09,1.62,1.73,2.38,.2,.24,.44,.49,.74,.5,.26,.01,.47-.17,.65-.34,1.97-1.96,2.68-5.06,1.8-7.85l-4.91,5.32Z" style="fill:#e0e0e0;"></path><path d="M280.18,400.91c-.02,.22,.16,.43,.37,.54,.21,.11,.44,.13,.67,.18,.61,.12,1.2,.38,1.71,.76,.2,.15,.38,.31,.6,.43,.22,.12,.48,.17,.69,.09,.33-.13,.43-.54,.47-.89,.15-1.43,.01-2.91-.41-4.34l-4.1,3.24Z" style="fill:#e0e0e0;"></path><path d="M272.48,395.27c-.31,.44-.28,1.06-.08,1.59,.2,.53,.87,1.23,1.23,1.69l1.56-4.8c-.64,.71-2.16,.74-2.71,1.52Z" style="fill:#e0e0e0;"></path><path d="M279.12,378.31c-1.42-.07-2.87,.31-3.8,1.28-.82,.86-1.15,2.07-1.38,3.25-.29,1.46-.47,2.96-.55,4.46-.02,.43-.03,.89,.19,1.28,.32,.58,1.04,.87,1.69,.86,.65-.02,1.68-.49,2.26-.75l5.76-9.34c-1.35-.51-2.75-.98-4.17-1.04Z" style="fill:#e0e0e0;"></path><g style="opacity:.3;"><path d="M289.61,393.08c.52,.83,1.09,1.62,1.73,2.38,.2,.24,.44,.49,.74,.5,.26,.01,.47-.17,.65-.34,1.97-1.96,2.68-5.06,1.8-7.85l-4.91,5.32Z"></path></g><g style="opacity:.3;"><path d="M280.18,400.91c-.02,.22,.16,.43,.37,.54,.21,.11,.44,.13,.67,.18,.61,.12,1.2,.38,1.71,.76,.2,.15,.38,.31,.6,.43,.22,.12,.48,.17,.69,.09,.33-.13,.43-.54,.47-.89,.15-1.43,.01-2.91-.41-4.34l-4.1,3.24Z"></path></g><g style="opacity:.3;"><path d="M272.48,395.27c-.31,.44-.28,1.06-.08,1.59,.2,.53,.87,1.23,1.23,1.69l1.56-4.8c-.64,.71-2.16,.74-2.71,1.52Z"></path></g><g style="opacity:.3;"><path d="M279.12,378.31c-1.42-.07-2.87,.31-3.8,1.28-.82,.86-1.15,2.07-1.38,3.25-.29,1.46-.47,2.96-.55,4.46-.02,.43-.03,.89,.19,1.28,.32,.58,1.04,.87,1.69,.86,.65-.02,1.68-.49,2.26-.75l5.76-9.34c-1.35-.51-2.75-.98-4.17-1.04Z"></path></g><path d="M270.8,400.25l2.57-1.5s3.62-11.16,8.7-18.27c4.88-6.82,16.72-15.49,19.96-14.35,.21,.08,.34,.3,.31,.51l-.13,.87s.98-.68,1.27,.52c.29,1.2-.77,9.25-5.14,15.25-4.38,6-13.39,15.19-19.21,18.69,0,0-.71,.45-.89,1.45-.18,1.01-1.05,8.58-3.33,11.4,0,0-1.35-.18-2.49-1.86-1.13-1.69-1.11-2.93-2.3-3.82-1.19-.89-3.89-.65-5.58-1.71-1.68-1.06-2.76-1.61-1.04-2.98,1.73-1.37,7.29-4.21,7.29-4.21Z" style="fill:#e0e0e0;"></path><path d="M291.61,384.88c-.11,.18-.21,.42-.09,.61,.16,.26,.54,.21,.81,.11l5.18-6.35c-2.56,1.05-4.69,3.5-5.9,5.63Z" style="opacity:.3;"></path><path d="M300.6,375.14c.03,.05-.4,.5-1.3,.98-.91,.44-2.37,.88-3.95,.35-.78-.28-1.36-.91-1.67-1.54-.32-.63-.42-1.25-.45-1.76-.04-1.02,.08-1.62,.14-1.62,.09,0,.1,.62,.24,1.58,.13,.91,.6,2.33,1.93,2.82,1.32,.46,2.73,.14,3.59-.19,.89-.37,1.42-.71,1.46-.63Z" style="fill:#263238;"></path><path d="M299.38,368.84c.79,.59,.99,1.66,.44,2.39s-1.63,.84-2.42,.25c-.79-.59-.99-1.66-.44-2.39,.55-.73,1.63-.84,2.42-.25Z" style="fill:#fff;"></path><path d="M299.08,369.24c.55,.41,.69,1.16,.31,1.67s-1.14,.58-1.69,.17-.69-1.16-.31-1.67,1.14-.58,1.69-.17Z" style="fill:#263238;"></path><g style="opacity:.3;"><path d="M278.12,402.5c-1.84,1.45-3.68,2.9-5.52,4.35-.42,.33-1.05,.66-1.53,.28-.41-.32-.36-.9-.26-1.35,.58-2.39,1.3-4.93,2.53-7.01l-2.54,1.48s-5.56,2.84-7.29,4.21c-1.73,1.37-.65,1.91,1.04,2.98,1.68,1.06,4.39,.82,5.58,1.71,1.19,.89,1.17,2.13,2.3,3.82,1.13,1.69,2.49,1.86,2.49,1.86,2.28-2.82,3.15-10.39,3.33-11.4,.12-.71,.51-1.14,.73-1.33-.31,.02-.62,.21-.86,.4Z"></path></g></g><g><path d="M250.16,388.59c-.97-.08-1.95-.1-2.94-.04-.31,.02-.65,.06-.84,.29-.16,.2-.15,.48-.12,.72,.39,2.75,2.45,5.18,5.2,6.15l-1.31-7.12Z" style="fill:#e0e0e0;"></path><path d="M249.55,376.34c-.16-.15-.44-.13-.65-.03-.21,.1-.37,.28-.54,.43-.46,.42-1.02,.73-1.63,.91-.24,.07-.48,.12-.7,.22-.22,.1-.43,.28-.49,.5-.09,.35,.17,.66,.44,.91,1.05,.98,2.32,1.76,3.71,2.27l-.13-5.22Z" style="fill:#e0e0e0;"></path><path d="M258.68,373.56c-.17-.51-.68-.86-1.23-1.02-.55-.16-1.51-.04-2.09-.03l2.91,4.13c-.18-.94,.7-2.17,.4-3.08Z" style="fill:#e0e0e0;"></path><path d="M268.27,389.04c.9-1.09,1.47-2.49,1.25-3.81-.19-1.17-.97-2.16-1.77-3.05-1-1.11-2.08-2.15-3.24-3.11-.33-.28-.69-.56-1.14-.62-.66-.1-1.32,.31-1.7,.84-.38,.53-.61,1.64-.75,2.26l4.02,10.21c1.22-.77,2.43-1.62,3.33-2.71Z" style="fill:#e0e0e0;"></path><g style="opacity:.3;"><path d="M250.16,388.59c-.97-.08-1.95-.1-2.94-.04-.31,.02-.65,.06-.84,.29-.16,.2-.15,.48-.12,.72,.39,2.75,2.45,5.18,5.2,6.15l-1.31-7.12Z"></path></g><g style="opacity:.3;"><path d="M249.55,376.34c-.16-.15-.44-.13-.65-.03-.21,.1-.37,.28-.54,.43-.46,.42-1.02,.73-1.63,.91-.24,.07-.48,.12-.7,.22-.22,.1-.43,.28-.49,.5-.09,.35,.17,.66,.44,.91,1.05,.98,2.32,1.76,3.71,2.27l-.13-5.22Z"></path></g><g style="opacity:.3;"><path d="M258.68,373.56c-.17-.51-.68-.86-1.23-1.02-.55-.16-1.51-.04-2.09-.03l2.91,4.13c-.18-.94,.7-2.17,.4-3.08Z"></path></g><g style="opacity:.3;"><path d="M268.27,389.04c.9-1.09,1.47-2.49,1.25-3.81-.19-1.17-.97-2.16-1.77-3.05-1-1.11-2.08-2.15-3.24-3.11-.33-.28-.69-.56-1.14-.62-.66-.1-1.32,.31-1.7,.84-.38,.53-.61,1.64-.75,2.26l4.02,10.21c1.22-.77,2.43-1.62,3.33-2.71Z"></path></g><path d="M255.7,369.23l-.35,2.96s6.76,9.58,9.4,17.92c2.53,8,2.37,22.67-.48,24.58-.19,.13-.44,.1-.59-.05l-.62-.62s-.04,1.2-1.18,.71-6.95-6.16-9.13-13.26c-2.18-7.1-4.13-19.83-3.44-26.58,0,0,.07-.83-.63-1.58-.7-.75-6.23-5.98-7.13-9.5,0,0,.95-.98,2.98-.87,2.03,.1,3.01,.86,4.44,.45,1.43-.42,2.85-2.73,4.71-3.44,1.86-.71,2.94-1.25,3,.95,.06,2.2-1,8.36-1,8.36Z" style="fill:#e0e0e0;"></path><path d="M255.52,395.1c-.08-.19-.21-.41-.44-.43-.3-.03-.49,.31-.58,.59l1.98,7.95c.69-2.67,0-5.85-.97-8.1Z" style="opacity:.3;"></path><path d="M257.93,408.13c-.06,0-.16-.62,0-1.63,.19-.99,.72-2.42,2.09-3.37,.7-.46,1.55-.54,2.23-.42,.69,.12,1.26,.41,1.68,.69,.84,.58,1.25,1.04,1.21,1.09-.05,.07-.56-.29-1.41-.75-.81-.44-2.22-.91-3.42-.15-1.16,.78-1.75,2.1-2,2.99-.24,.93-.28,1.56-.37,1.55Z" style="fill:#263238;"></path><path d="M263.71,410.94c-.95,.28-1.93-.21-2.18-1.08-.26-.87,.31-1.81,1.25-2.09s1.93,.21,2.18,1.08c.26,.87-.31,1.81-1.25,2.09Z" style="fill:#fff;"></path><path d="M263.57,410.46c-.66,.19-1.34-.14-1.52-.75-.18-.61,.21-1.26,.87-1.45,.66-.19,1.34,.14,1.52,.75s-.21,1.26-.87,1.45Z" style="fill:#263238;"></path><g style="opacity:.3;"><path d="M249.51,373.74c-.06-2.34-.12-4.69-.17-7.03-.01-.53,.1-1.23,.69-1.39,.51-.14,.94,.25,1.24,.61,1.57,1.9,3.16,4,4.1,6.23l.34-2.92s1.06-6.15,1-8.36c-.06-2.21-1.14-1.67-3-.95-1.86,.71-3.29,3.02-4.71,3.44-1.43,.42-2.41-.34-4.44-.45-2.03-.1-2.98,.87-2.98,.87,.89,3.52,6.43,8.75,7.13,9.5,.49,.53,.61,1.09,.63,1.38,.17-.26,.2-.62,.19-.93Z"></path></g></g><path d="M271.48,388.86c-16.99,0-30.82-1.09-31.43-2.45l6.72,61.42h47.57l8.56-61.38c-.85,1.34-14.59,2.41-31.42,2.41Z" style="fill:#455a64;"></path><path d="M302.94,386.15h-.08s.05,.08,.06,.12l.02-.12Z" style="fill:#455a64;"></path><path d="M240.1,386.15h-.08v.13s.05-.09,.08-.13Z" style="fill:#455a64;"></path></g><ellipse cx="270.53" cy="447.83" rx="23.75" ry="2.55" style="fill:#455a64;"></ellipse><path d="M242.66,397.61l2.51,24.54s21.23,18.53,49.52,22.75l1.24-8.5s-48.55-13.79-53.27-38.79Z" style="fill:#fff; opacity:.2;"></path></g></g><g id="Hole"><path d="M460.86,451.2c0,2.5-17.07,4.53-38.13,4.53s-38.13-2.03-38.13-4.53,17.07-4.53,38.13-4.53,38.13,2.03,38.13,4.53Z" style="fill:#e0e0e0;"></path><path d="M460.86,451.2s0-.15-.16-.36c-.15-.21-.47-.45-.94-.66-.93-.44-2.41-.84-4.34-1.21-3.87-.73-9.55-1.33-16.58-1.69-7.03-.36-15.43-.51-24.73-.25-4.65,.14-9.54,.37-14.58,.84-2.52,.23-5.08,.52-7.66,.94-1.29,.21-2.58,.46-3.85,.79-.64,.16-1.27,.36-1.86,.61-.3,.12-.59,.26-.84,.44-.25,.16-.47,.39-.46,.57-.01,.18,.21,.4,.46,.57,.25,.18,.54,.31,.84,.44,.6,.25,1.23,.44,1.86,.61,1.27,.33,2.56,.58,3.85,.79,2.58,.42,5.14,.71,7.66,.94,5.04,.46,9.93,.7,14.58,.84,9.31,.26,17.7,.11,24.74-.25,7.03-.37,12.71-.96,16.58-1.69,1.93-.37,3.41-.77,4.34-1.21,.47-.21,.79-.46,.94-.66,.17-.2,.13-.37,.16-.36-.02-.01,.04,.16-.12,.39-.14,.23-.46,.5-.93,.73-.93,.48-2.42,.91-4.35,1.32-3.87,.8-9.56,1.45-16.6,1.86-7.04,.41-15.44,.6-24.77,.36-4.66-.13-9.56-.35-14.62-.81-2.53-.23-5.1-.52-7.7-.94-1.3-.21-2.6-.46-3.9-.8-.65-.17-1.3-.37-1.93-.63-.32-.13-.64-.28-.94-.49-.28-.2-.66-.46-.68-1,.03-.53,.41-.79,.69-.99,.3-.21,.62-.36,.94-.49,.64-.26,1.28-.46,1.93-.63,1.3-.34,2.6-.59,3.9-.8,2.59-.42,5.17-.71,7.69-.94,5.06-.46,9.95-.68,14.61-.81,9.32-.24,17.73-.05,24.77,.36,7.04,.42,12.73,1.07,16.6,1.86,1.93,.4,3.42,.84,4.35,1.32,.47,.23,.79,.5,.93,.73,.16,.23,.1,.4,.12,.39Z" style="fill:#263238;"></path></g><g id="Character"><g><g><g><g><path d="M216.39,160.27l1.07,.59c10.75,5.92,15.16,19.11,10.12,30.3-4.69,10.41-10,21.85-13.01,27.16-6.24,11-18.26,6.62-18.26,6.62l-6.39,13.82-26.42-15.64,24.2-49.56c5.34-12.04,16.8-18.97,28.69-13.3Z" style="fill:#ffbf9d;"></path><path d="M196.32,224.95s-7.22-3.44-12.09-12.21c0,0-.92,10.12,10.68,15.21l1.41-3Z" style="fill:#ff9a6c;"></path><path d="M218.71,200.01c-.43,.85-1.51,1.19-2.4,.76-.9-.43-1.28-1.47-.84-2.32,.43-.85,1.51-1.19,2.4-.76,.9,.43,1.28,1.47,.85,2.33Z" style="fill:#263238;"></path><path d="M222.21,195.26c-.31,.1-1.02-1.45-2.72-2.38-1.69-.96-3.42-.77-3.49-1.08-.04-.14,.37-.4,1.13-.5,.75-.1,1.88,.02,2.93,.61,1.06,.59,1.73,1.47,2.03,2.15,.3,.69,.27,1.16,.13,1.2Z" style="fill:#263238;"></path><path d="M203.19,192.07c-.43,.85-1.51,1.19-2.4,.76-.9-.43-1.28-1.47-.84-2.32,.43-.85,1.51-1.19,2.4-.76,.9,.43,1.28,1.47,.85,2.33Z" style="fill:#263238;"></path><path d="M205.31,186.37c-.31,.1-1.02-1.45-2.72-2.38-1.69-.96-3.42-.77-3.49-1.08-.04-.14,.36-.41,1.13-.5,.75-.1,1.88,.02,2.93,.61,1.06,.59,1.73,1.47,2.03,2.15,.3,.69,.27,1.16,.13,1.2Z" style="fill:#263238;"></path><path d="M204.54,202.39c.05-.1,1.2,.3,3.04,1.02,.46,.19,.92,.33,1.15,.08,.27-.26,.35-.83,.42-1.45,.17-1.28,.35-2.61,.54-4.02,.81-5.69,1.65-10.28,1.88-10.24,.23,.04-.24,4.68-1.05,10.37-.21,1.4-.41,2.73-.6,4.01-.11,.58-.13,1.3-.71,1.83-.3,.26-.74,.32-1.06,.24-.33-.07-.57-.2-.79-.3-1.78-.86-2.85-1.44-2.8-1.54Z" style="fill:#263238;"></path><path d="M210.39,180.63c-.46,.31-1.66-.96-3.43-2.01-1.74-1.09-3.44-1.58-3.36-2.12,.05-.25,.58-.46,1.42-.45,.83,0,1.95,.28,3.01,.92,1.05,.64,1.79,1.5,2.16,2.23,.38,.73,.41,1.29,.2,1.44Z" style="fill:#263238;"></path><path d="M226.16,188.29c-.57,.19-1.75-.99-3.43-1.94-1.65-1-3.26-1.46-3.37-2.04-.04-.28,.4-.54,1.23-.56,.82-.03,2.01,.24,3.15,.91,1.14,.67,1.96,1.57,2.33,2.29,.38,.73,.35,1.23,.09,1.33Z" style="fill:#263238;"></path><path d="M229.31,185.49s.9-8.54-1.55-12c-2.97-4.19-7.16-.71-10.42-3.91-3.26-3.2-6.09-7.21-11.68-6.4-6.11,.89-5.35,4.29-8.33,9.06-12.05,19.32-18.79,22.95-14.66,13,.45-1.09-1.95-3.48,.02-8.05,2.55-5.93,6.1-12.89,9.56-16.19,2.92-2.78,6.12-4.05,10.98-4.72,7.67-1.06,15.18,2.97,19.97,6.27,4.79,3.3,11.35,14.52,6.11,22.95Z" style="fill:#263238;"></path><path d="M183.54,185.32c.87-1.75,.14-3.91-1.65-4.68-2.17-.94-5.12-1.03-7.33,3.31-3.93,7.7,4.62,10.06,4.74,9.84,.09-.15,2.62-5.23,4.24-8.47Z" style="fill:#ffbf9d;"></path><path d="M179.11,190.04s-.18,.03-.46,.01c-.27-.01-.69-.14-1.01-.49-.66-.71-.69-2.35-.02-3.76,.34-.71,.83-1.3,1.36-1.73,.52-.44,1.09-.65,1.53-.52,.46,.11,.62,.51,.6,.77,0,.27-.13,.4-.1,.43,.01,.03,.23-.05,.33-.39,.05-.17,.05-.4-.06-.64-.11-.24-.34-.46-.64-.57-.61-.26-1.43,.01-2.01,.48-.62,.45-1.18,1.11-1.56,1.91-.74,1.58-.69,3.44,.26,4.32,.47,.42,1.01,.48,1.33,.42,.34-.07,.46-.22,.44-.25Z" style="fill:#ff9a6c;"></path></g><path d="M201.88,207.99c.11-.31-1.96-.94-2.9-3.17-.94-2.23-.03-4.37-.32-4.47-.12-.07-.55,.37-.86,1.3-.31,.91-.42,2.34,.15,3.7,.57,1.36,1.64,2.19,2.47,2.52,.84,.34,1.43,.27,1.46,.12Z" style="fill:#263238;"></path></g><g><path d="M196.58,153.77c8.84-6.69,21.57-5.44,26.28-.1,4.71,5.34,6.8,14.65,6.8,14.65,0,0,4.58,2.08,4.89,6.79,.21,3.18-1.78,12.19-3.3,14.45-.73,1.09-3.02,0-3.02,0-.82-8.2-18.62-18.54-45.27-8.18l-4.24-1.19c.75-5.74,2.37-10,3.21-11.93,.34-.79,.95-1.43,1.72-1.81,.91-.45,2.24-.99,3.6-1.12,0,0,5.08-8.35,9.32-11.57Z" style="fill:#FF725E;"></path><path d="M185.19,165.96s.13-.1,.41-.24c.28-.14,.69-.36,1.23-.59,1.08-.49,2.68-1.14,4.71-1.78,4.04-1.29,9.93-2.42,16.44-2.06,6.51,.31,12.27,1.98,16.14,3.74,1.95,.87,3.46,1.7,4.47,2.32,.51,.3,.89,.57,1.15,.74,.26,.18,.39,.28,.38,.29-.02,.03-.59-.29-1.63-.85-1.04-.56-2.57-1.34-4.52-2.16-3.88-1.65-9.57-3.25-16.02-3.56-6.44-.35-12.27,.7-16.31,1.89-2.03,.59-3.64,1.18-4.74,1.61-1.1,.43-1.71,.69-1.73,.65Z" style="fill:#263238;"></path><path d="M204.44,149.74c.11,.13-2.82,2.15-5.15,5.76-2.37,3.58-3.03,7.08-3.2,7.03-.06-.01,.03-.89,.42-2.26,.39-1.37,1.15-3.22,2.34-5.05,1.2-1.83,2.58-3.27,3.68-4.18,1.1-.91,1.87-1.35,1.9-1.3Z" style="fill:#263238;"></path><path d="M210.81,149.63c.13-.02,.52,2.74,.23,6.15-.27,3.41-1.11,6.07-1.23,6.03-.15-.04,.45-2.72,.71-6.07,.28-3.36,.13-6.1,.28-6.11Z" style="fill:#263238;"></path><path d="M217.59,150.57s.72,.55,1.61,1.68c.89,1.13,1.97,2.83,2.77,4.88,.8,2.05,1.18,4.03,1.29,5.46,.11,1.44,.02,2.32-.04,2.32-.17,.02-.13-3.57-1.74-7.59-1.56-4.04-4.04-6.64-3.9-6.74Z" style="fill:#263238;"></path></g><g style="opacity:.2;"><path d="M197.45,195.44c-.5-1.45-1.04-2.95-2.16-4-.16-.15-.34-.29-.53-.42-2.14-1.39-4.78,1.03-3.66,3.32,.69,1.4,2.01,2.69,3.16,3.55,.43,.32,2.04,.56,2.57,.44,.55-.12,.9-.7,.94-1.26,.05-.56-.14-1.11-.32-1.64Z" style="fill:#FF725E;"></path></g><g style="opacity:.2;"><path d="M216.95,207.47c-.27-.62-.86-1.04-1.48-1.3-1.22-.53-2.39-.66-3.73-.69-.44,0-.92,.02-1.28,.27-.7,.47-.7,1.58-.19,2.25,.51,.67,1.35,.99,2.17,1.18,.9,.2,1.83,.29,2.76,.32,.45,.02,.94,.02,1.32-.23,.57-.37,.7-1.19,.43-1.8Z" style="fill:#FF725E;"></path></g><g style="opacity:.2;"><path d="M210.04,189.03l-.41,.38c-1.32,2.02-2.48,4.13-3.5,6.32-.42,.9-.81,1.83-.95,2.81-.14,.98,0,2.04,.56,2.86,.27,.39,.72,.73,1.17,.61,.43-.12,.64-.61,.78-1.04,1.1-3.36,2-6.79,2.71-10.26,.12-.6,.17-1.36-.35-1.67Z" style="fill:#FF725E;"></path></g></g><g><path d="M215.71,373.52c-6.36,18.62-13.42,35.6-14.89,53.73,0,0-.09,2.37,7.31,6.32,7.94,4.24,15.76,7.21,13.22,14.38l-52.41-6.87,9.77-72.9,37,5.34Z" style="fill:#263238;"></path><path d="M222.43,444.93c-1.58-1.3-4.26-1.03-6.49-.72-9.3,1.3-19.25,1.39-28.18-1.4-2.17-.68-4.31-1.53-6.63-1.76-2.33-.23-4.9,.16-6.84-.89-.87-.47-1.48-1.17-2.32-1.67-.84-.5-2.13-.74-2.87-.2-1.31,.87-1.84,2.55-1.89,3.9s.57,2.6,2,3.44c1.52,.9,3.51,1.1,5.39,1.26,12.87,1.14,25.74,2.29,38.61,3.43,1.72,.15,3.46,.31,5.16,.11,1.69-.2,3.36-.79,4.29-1.86,.94-1.07,.96-2.66-.24-3.64Z" style="fill:#455a64;"></path><path d="M202.23,416.99l-.51,2.94-29.29-4.85,.68-5.06s23.04,7.21,29.12,6.97Z" style="opacity:.3;"></path></g><g><path d="M92.72,352.74c-1.11,.24,14.29,10.79,38.23,12.81,23.94,2.02,51.42-8.09,51.42-8.09,0,0-20.16,27.78-9.26,52.56,.91,2.07,28.13,6.64,30.83,6.97,2.7,.34,20.75-54.13,23.79-64.25,3.03-10.12,7.59-28.07-.59-35.28-8.18-7.21-21.67-6.87-33.8-6.53-12.14,.34-35.63-1.97-35.63-1.97l-64.98,43.78Z" style="fill:#263238;"></path><path d="M204.78,337.82s-.34,.32-1.01,.83c-.75,.57-1.7,1.29-2.83,2.15-2.38,1.82-5.61,4.42-9.02,7.46-3.41,3.05-6.35,5.97-8.43,8.12-.98,1.03-1.8,1.89-2.46,2.57-.58,.61-.91,.93-.94,.91-.03-.02,.25-.39,.79-1.04,.53-.65,1.33-1.57,2.34-2.68,2.02-2.23,4.93-5.2,8.35-8.26,3.43-3.06,6.71-5.61,9.15-7.37,1.22-.88,2.22-1.57,2.93-2.02,.71-.46,1.11-.69,1.13-.67Z" style="fill:#455a64;"></path><g style="opacity:.3;"><path d="M181.72,357.45c4.62-11.82,15.84-20.81,28.39-22.73-10.71,6.19-20.4,14.15-28.53,23.47"></path></g></g><g><path d="M420.97,455.73s-.01-.11-.01-.32c0-.24,0-.55,0-.95,0-.86,.01-2.1,.02-3.7,0-3.23,.07-7.94-.1-13.85-.05-1.48-.11-3.03-.27-4.64-.04-.4-.09-.81-.17-1.21-.04-.2-.08-.4-.15-.58-.03-.09-.08-.18-.11-.21,0,0,0,0,0,0l-.07-.03-.15-.06c-.8-.29-1.61-.59-2.44-.9-.83-.31-1.68-.6-2.53-.95-.84-.36-1.7-.73-2.58-1.1-1.77-.7-3.5-1.64-5.33-2.5-3.58-1.89-7.26-4.11-10.79-6.9-1.77-1.38-3.47-2.94-5.08-4.65-1.59-1.73-3.11-3.58-4.24-5.81l.19,.15c-4.3-.8-8.7-2.1-12.96-4.08-4.27-1.97-8.38-4.59-12.15-7.74-4.17-3.51-7.87-7.42-10.74-11.76l.16,.11c-4.58-1.23-8.7-3.28-12.6-5.37-3.88-2.13-7.52-4.38-10.96-6.61-6.86-4.49-12.92-8.9-18.11-12.93l.06,.03c-8.87-2.93-15.43-6.8-19.8-9.61-2.18-1.42-3.82-2.62-4.9-3.45-.54-.42-.95-.75-1.22-.97-.27-.23-.4-.35-.4-.35,0,0,.15,.1,.43,.31,.3,.22,.72,.53,1.25,.93,1.11,.8,2.76,1.97,4.95,3.36,4.39,2.75,10.96,6.55,19.8,9.42h.03l.03,.03c5.2,3.99,11.28,8.38,18.13,12.84,3.44,2.21,7.07,4.45,10.94,6.56,3.88,2.07,8,4.11,12.49,5.3l.1,.03,.06,.09c2.82,4.25,6.51,8.16,10.64,11.63,3.74,3.13,7.81,5.73,12.04,7.67,4.22,1.96,8.58,3.25,12.83,4.06l.12,.02,.06,.12c1.07,2.1,2.58,3.98,4.14,5.67,1.59,1.69,3.26,3.24,5.02,4.61,3.49,2.78,7.14,4.99,10.69,6.89,1.82,.87,3.54,1.81,5.29,2.51,.87,.37,1.72,.74,2.56,1.1,.84,.35,1.69,.65,2.52,.96,.83,.31,1.63,.61,2.43,.91l.15,.06,.08,.03s.1,.06,.13,.09c.11,.12,.15,.23,.19,.34,.08,.22,.12,.43,.16,.64,.08,.42,.12,.83,.16,1.24,.15,1.63,.2,3.19,.24,4.67,.12,5.93,.02,10.64-.04,13.87-.05,1.6-.08,2.84-.11,3.7l-.04,.95c-.01,.21-.02,.32-.03,.32Z" style="fill:#263238;"></path><path d="M285.18,343.92c18.85,9.67,37.3,20.11,55.38,31.14,17.76,10.82,35.18,22.2,52.39,33.87,9.77,6.62,19.47,13.34,29.14,20.11,1.32,.92,2.57-1.24,1.26-2.16-17.05-11.93-34.21-23.71-51.64-35.09-17.5-11.42-35.27-22.43-53.42-32.78-10.49-5.98-21.11-11.74-31.85-17.25-1.43-.73-2.7,1.42-1.26,2.16h0Z" style="fill:#455a64;"></path><path d="M248.5,325.49c.27,.75,37.3,20.52,37.3,20.52l2.24-3.95-38.35-19.57-1.19,3Z" style="fill:#263238;"></path><g><path d="M264.22,356.17s2.55,.61,4.21-2.67c1.66-3.28-.91-5.62-.91-5.62l-3.3,8.29Z" style="fill:#263238;"></path><path d="M265.29,355.26c.03-.08-3.49-1.61-3.49-1.61l2.65-5.41,3.14,1.22-2.31,5.8Z" style="fill:#263238;"></path><polygon points="265.39 346.93 261.66 355.19 252.62 350.71 256.73 342.85 265.39 346.93" style="fill:#263238;"></polygon><path d="M253.14,346.85s.11,2.35-1.39,2.4c-1.5,.05-1.43-2.4-2.05-5.2s-1.37-6.72-5.04-10.71l2.19-1.39s7.2,8.8,6.29,14.89Z" style="fill:#263238;"></path><path d="M251.14,347.3s-2.06,.66-3.13-1.79c-1.07-2.45,.53-3.67,1.74-4.39,1.22-.72,3.87-1.21,5.21-2.06,1.35-.85,3.48-.8,5.35-2.53,1.87-1.72,2.39-4.31,2.39-4.31l1.93,.93s-1.41,3.64-3.55,5.37c-2.14,1.73-3.05,1.82-3.82,2.9-.77,1.08,.53,3.05,.53,3.05,0,0-3.93,4.85-3.94,4.84-.01-.02-2.73-2.01-2.73-2.01Z" style="fill:#263238;"></path></g><path d="M248.46,332.71c0,1.4-1.13,2.53-2.53,2.53s-2.53-1.13-2.53-2.53,1.13-2.53,2.53-2.53,2.53,1.13,2.53,2.53Z" style="fill:#263238;"></path><path d="M310.08,356.25c-.44,.89-.94,1.72-1.55,2.51,.07-.08,.13-.17,.2-.25-.09,.12-.18,.23-.27,.35-.21,.27-.37,.53-.37,.88,0,.31,.14,.67,.37,.88,.24,.22,.55,.38,.88,.37,.31-.01,.68-.11,.88-.37,.41-.52,.83-1.05,1.18-1.61,.31-.48,.58-.99,.83-1.5,.15-.3,.22-.63,.13-.96-.08-.29-.3-.6-.57-.75-.29-.15-.64-.23-.96-.13-.3,.1-.6,.28-.75,.57h0Z" style="fill:#455a64;"></path><path d="M352.09,380.98c-.86,1.14-1.72,2.29-2.58,3.43-.18,.24-.2,.69-.13,.96,.08,.29,.3,.6,.57,.75,.29,.15,.64,.23,.96,.13l.3-.13c.19-.11,.34-.26,.45-.45,.86-1.14,1.72-2.29,2.58-3.43,.18-.24,.2-.69,.13-.96-.08-.29-.3-.6-.57-.75-.29-.15-.64-.23-.96-.13l-.3,.13c-.19,.11-.34,.26-.45,.45h0Z" style="fill:#455a64;"></path><path d="M388.41,404.23c-1.07,1.25-2.14,2.5-3.21,3.74-.22,.26-.37,.54-.37,.88,0,.31,.14,.67,.37,.88,.47,.43,1.31,.53,1.77,0l3.21-3.74c.22-.26,.37-.54,.37-.88,0-.31-.14-.67-.37-.88-.47-.43-1.31-.53-1.77,0h0Z" style="fill:#455a64;"></path><path d="M420.43,432.78c.95-1.21,1.9-2.42,2.84-3.63,.21-.27,.37-.52,.37-.88,0-.31-.14-.67-.37-.88-.24-.22-.55-.38-.88-.37-.31,.01-.68,.11-.88,.37-.95,1.21-1.9,2.42-2.84,3.63-.21,.27-.37,.52-.37,.88,0,.31,.14,.67,.37,.88,.24,.22,.55,.38,.88,.37,.31-.01,.68-.11,.88-.37h0Z" style="fill:#455a64;"></path></g><g><polygon points="196.58 253.81 201.34 282.62 235.89 299.24 225.97 312.2 187.73 298.49 186.92 258.79 196.58 253.81" style="fill:#FF725E;"></polygon><polygon points="196.58 253.81 201.34 282.62 235.89 299.24 225.97 312.2 187.73 298.49 186.92 258.79 196.58 253.81" style="opacity:.3;"></polygon><path d="M231.44,301.15s5.26-.55,10.78,.83c5.52,1.38,8.12,3.16,9.41,3.73,1.3,.57-1.54,4.55-4.78,3.21s-11.38-1.26-11.86-1.42c-.48-.16-4.78-1.14-4.78-1.14l1.22-5.21Z" style="fill:#ff9a6c;"></path><path d="M180.6,208.61s5.68,10.94,16.95,16.69c6.99,3.56-2.11,7.75-2.11,7.75l-5.16,11.92-9.67-36.36Z" style="fill:#455a64;"></path><path d="M166.42,179.67c-.02-1.2,.22-2.41,.67-3.52,.38-.92,1.69-.89,2.06,.03l.26,.66c.54-1.28,1.62-2.29,2.89-2.83,1.17-.49,2.44,.52,2.26,1.77-.12,.83-.33,1.64-.63,2.42,1.83-1.02,3.96-1.48,6.05-1.32,1.46,.11,3.09,.67,3.38,2.3,.11,.63-.03,1.29-.33,1.85-.73,1.34-2.08,2.05-3.38,2.72,1.48,.99,2.98,2.2,3.5,3.9,.52,1.71-.48,3.95-2.25,4.08,2.12,1.6,3.92,3.62,5.26,5.91l-3.15,1.82c.97,1.64,.2,4.05-1.53,4.83,1.48,.87,3.03,1.8,3.88,3.29,.85,1.49,.67,3.71-.83,4.56,1.46,.77,2.99,1.61,3.82,3.03,.83,1.43,.57,3.61-.94,4.28,1.25-.26,2.63,.26,3.39,1.29,.76,1.02,.87,2.49,.26,3.62l5.18-2.22-.26,5.48c.74-.9,2.28-.99,3.11-.17,.83,.82,.77,2.36-.12,3.11,2.24,.57,4.85-1.96,6.66-.47,.61,.5,.87,1.32,.77,2.11-.17,1.38-1.11,2.39-2.01,3.36,1.2,.33,1.94,1.79,1.51,2.95-.44,1.16-1.95,1.78-3.08,1.24l-11.44-6.32-23.92-36.8-1.02-16.96Z" style="fill:#e0e0e0;"></path><path d="M145.99,207.47s-31.42,25.85-50.69,62.53c-16.82,32.01-21.81,40.78-18.25,62.6,2.08,12.76,13.6,19.94,16.89,19.94s22.52-3.54,42.27-20.47c19.75-16.93,36.68-23.04,36.68-23.04,0,0,20.85-45.54,25.34-56.08,2.82-6.62,4.87-12.17,6.04-15.52,.68-1.93-.18-4.05-1.99-4.99-4.26-2.2-10.53-6.85-12.69-10.04-14.96-22.07-12.83-35.49-20.43-41.89-6.61-5.57-41.65,10.88-23.17,26.96Z" style="fill:#FF725E;"></path><path d="M191.99,238.98s-.27-.5-.66-1.44c-.19-.47-.43-1.05-.76-1.69-.32-.65-.64-1.4-1.11-2.18-.44-.79-.92-1.66-1.52-2.54-.55-.91-1.25-1.81-1.96-2.77-1.49-1.87-3.27-3.82-5.34-5.65-2.09-1.81-4.27-3.3-6.33-4.52-1.05-.57-2.04-1.14-3.02-1.57-.95-.48-1.88-.84-2.72-1.17-.83-.36-1.63-.57-2.31-.81-.68-.24-1.28-.4-1.77-.52-.98-.26-1.52-.42-1.52-.45s.56,.06,1.57,.26c.5,.09,1.12,.22,1.81,.44,.7,.21,1.5,.4,2.36,.74,.86,.31,1.8,.65,2.78,1.12,1,.41,2,.98,3.07,1.54,2.1,1.21,4.31,2.72,6.43,4.55,2.1,1.85,3.89,3.84,5.38,5.75,.71,.98,1.4,1.9,1.95,2.83,.59,.9,1.06,1.79,1.49,2.6,.45,.8,.75,1.57,1.05,2.23,.31,.66,.52,1.25,.68,1.73,.33,.97,.5,1.5,.47,1.52Z" style="fill:#263238;"></path><path d="M170.41,201.24s-.42,.07-1.16,.09c-.75,.02-1.83,.04-3.16,.13-2.65,.18-6.36,.48-10.24,1.66-3.91,1.11-7.13,2.96-9.33,4.46-2.19,1.51-3.47,2.58-3.53,2.51-.02-.03,.27-.32,.83-.82,.56-.5,1.4-1.19,2.48-1.99,2.16-1.58,5.42-3.52,9.39-4.66,3.95-1.2,7.7-1.44,10.38-1.53,1.34-.04,2.43,0,3.18,.04,.75,.04,1.16,.07,1.16,.11Z" style="fill:#263238;"></path><g style="opacity:.3;"><path d="M145.9,207.74c2.06-1.61,4.35-2.91,6.78-3.86,5.59-2.18,11.73-2.42,17.73-2.64-2.35-2.47-6.28-2.67-9.57-1.77-3.29,.9-6.26,2.71-9.5,3.76-3.24,1.05-7.1,.78-9.76-1.35,0,0,1.09,2.28,2.29,3.63s2.03,2.23,2.03,2.23Z"></path></g><g><g style="opacity:.3;"><path d="M148.12,288.12c5.52,8.67,15.01,15.67,24.5,19.89-14.92-15.33-23.95-32.95-32.77-50.44-.41,10.7,2.51,21.51,8.27,30.55Z"></path></g><g style="opacity:.3;"><path d="M173.8,308.54c-.4-.17-.79-.35-1.19-.52,.17,.17,.34,.35,.51,.52h.68Z"></path></g></g><path d="M167.87,305.86s-.07,.04-.21,.1c-.17,.06-.38,.14-.63,.24-.55,.22-1.4,.46-2.44,.9-2.11,.8-5.09,2.14-8.61,4.11-3.52,1.96-7.52,4.63-11.81,7.81-4.29,3.17-8.86,6.86-13.78,10.59-4.92,3.73-9.82,7.03-14.53,9.58-4.72,2.54-9.22,4.37-13.15,5.38-3.93,1.02-7.21,1.39-9.48,1.41-1.13,.07-2.01-.04-2.61-.04-.27-.02-.49-.03-.68-.04-.15-.01-.23-.02-.23-.03s.08-.02,.23-.02c.18,0,.41,0,.68-.01,.59-.03,1.47,.05,2.6-.06,2.25-.08,5.5-.5,9.39-1.56,3.89-1.05,8.35-2.89,13.02-5.44,4.67-2.56,9.54-5.86,14.45-9.57,4.9-3.73,9.49-7.41,13.81-10.56,4.31-3.16,8.35-5.81,11.92-7.74,3.56-1.94,6.58-3.24,8.72-3.98,1.06-.41,1.91-.62,2.48-.81,.26-.08,.47-.14,.65-.19,.15-.04,.22-.06,.23-.05Z" style="fill:#263238;"></path><path d="M127.47,306.77s.51-.16,1.46-.36c.95-.2,2.33-.45,4.04-.72,3.42-.53,8.19-1.06,13.48-1.22,5.29-.15,10.08,.09,13.53,.42,1.72,.16,3.12,.33,4.07,.48,.96,.14,1.49,.24,1.48,.27,0,.04-.54,0-1.5-.07-.96-.09-2.36-.2-4.08-.31-3.45-.24-8.22-.42-13.49-.27-5.27,.16-10.02,.62-13.44,1.06-1.71,.22-3.1,.41-4.06,.55-.96,.14-1.49,.2-1.5,.16Z" style="fill:#263238;"></path><path d="M124.39,300.67s-.48,.07-1.35,.07c-.87,0-2.13-.05-3.68-.23-.77-.09-1.62-.21-2.52-.37-.44-.08-.93-.16-1.41-.35-.47-.19-.98-.44-1.3-.97-.33-.52-.24-1.29,.23-1.74,.45-.44,1.03-.63,1.6-.76,.58-.13,1.16-.12,1.73-.16,.58-.02,1.16-.05,1.76-.07,4.75-.14,9.05,.1,12.14,.41,1.55,.15,2.79,.32,3.65,.45,.86,.14,1.33,.23,1.32,.27,0,.04-.48,0-1.35-.07-.97-.08-2.19-.17-3.66-.29-3.09-.21-7.37-.4-12.09-.25-.59,.02-1.17,.04-1.75,.07-.58,.03-1.14,.03-1.65,.14-.51,.1-1.02,.29-1.34,.61-.32,.3-.37,.8-.16,1.15,.21,.37,.63,.62,1.05,.79,.43,.18,.87,.26,1.32,.35,.89,.18,1.72,.32,2.49,.43,1.53,.22,2.78,.32,3.64,.39,.86,.06,1.34,.1,1.34,.13Z" style="fill:#263238;"></path><path d="M147.89,207.85c.09-.11,1.81,1.15,3.84,2.81,2.03,1.66,3.6,3.1,3.51,3.21-.09,.11-1.81-1.15-3.84-2.81-2.03-1.66-3.6-3.1-3.51-3.21Z" style="fill:#263238;"></path><path d="M180.02,202.38l-7.71-22.26c-1.58,.45-4.19,4.41-3.5,5.9,.68,1.49,2.8,2.09,4.16,1.19-1.11,1.54-1.91,3.31-2.32,5.16-.17,.77-.26,1.64,.22,2.27,.5,.67,1.49,.8,2.28,.54,.79-.26,1.44-.83,2.06-1.39-.44,1.35-.77,2.73-.98,4.13-.09,.57-.14,1.19,.17,1.67,.42,.65,1.38,.77,2.1,.46,.72-.31,1.24-.93,1.74-1.53-.55,.8-1.12,1.63-1.29,2.58-.17,.96,.17,2.08,1.04,2.51,.87,.43,2.16-.26,2.04-1.22Z" style="fill:#e0e0e0;"></path><g style="opacity:.3;"><path d="M111.8,305.92c-3,.91-6.05,2.06-8.22,4.32-.46,.48-.89,1.2-.53,1.75,.32,.49,1.02,.49,1.6,.42,7.61-.9,14.96-3.29,22.39-5.17,7.43-1.88,15.04-2.55,22.85-2.55-12.47-2.47-25.91-2.44-38.08,1.24Z"></path></g><g><path d="M232.41,302.28s10.42,1.94,11.38,2.9c.96,.96,1.15,2.4,3.07,3.74s6.32,5.75,7.38,9.49c1.05,3.74,1.63,6.13,1.05,7.67-.57,1.53-2.3,3.55-4.6,1.53,0,0-2.28,1.36-3.72,.69-1.44-.67-1.94-1.55-1.94-1.55,0,0-.06,1.88-1.92,1.71-1.27-.12-2.59-1.04-2.59-1.04,0,0-2.11,1.58-4.41,1.13-2.3-.46-7.19-11.38-7.19-11.38l3.47-14.88Z" style="fill:#ffbf9d;"></path><path d="M159.67,216.82c-14.92,0-22.47,21.5-20.35,36.37,2.12,14.87,28.67,52.74,36.46,56.99,7.79,4.25,53.15,9.56,53.15,9.56l4.9-19.47-36.4-17.47s-4.77-29.19-5.87-37.82c-1.29-10.16-15.24-28.15-31.89-28.15Z" style="fill:#FF725E;"></path><path d="M140.02,238.53s.03-.19,.11-.57c.09-.39,.22-.94,.39-1.65,.41-1.44,1-3.57,2.17-6.19,.6-1.3,1.31-2.73,2.26-4.2,.91-1.49,2.11-2.99,3.57-4.43,1.46-1.44,3.26-2.78,5.43-3.67,2.16-.91,4.69-1.3,7.28-1.08,5.18,.2,10.9,1.93,15.9,5.58,5.02,3.58,9.33,8.96,11.86,15.5,1.33,3.26,1.87,6.85,2.57,10.42,.66,3.6,1.33,7.29,2.02,11.05,1.32,7.54,2.68,15.38,4.1,23.47l-.14-.19c6.71,3.22,13.73,6.59,20.88,10.02,5.26,2.53,10.45,5.02,15.52,7.45l.19,.09-.05,.2c-1.69,6.71-3.33,13.22-4.9,19.47l-.05,.21-.22-.03c-14.56-1.79-28.11-3.69-40.16-6.04-3.01-.59-5.92-1.25-8.71-2.01-.69-.22-1.38-.43-2.06-.64-.68-.21-1.32-.54-1.98-.81-1.26-.65-2.33-1.58-3.3-2.5-1.95-1.87-3.67-3.81-5.25-5.72-1.59-1.9-3.04-3.78-4.41-5.57-5.42-7.22-9.28-13.3-11.86-17.5-1.27-2.11-2.23-3.75-2.85-4.88-.31-.55-.54-.98-.71-1.28-.16-.29-.23-.44-.23-.44,0,0,.1,.14,.27,.42,.18,.3,.42,.71,.74,1.26,.64,1.11,1.63,2.74,2.92,4.84,2.61,4.18,6.52,10.22,11.96,17.4,1.37,1.79,2.83,3.65,4.43,5.54,1.58,1.9,3.3,3.83,5.24,5.67,.97,.92,2,1.81,3.22,2.43,.64,.25,1.25,.58,1.93,.78,.67,.21,1.35,.42,2.04,.63,2.77,.75,5.68,1.4,8.68,1.98,12.03,2.31,25.59,4.19,40.14,5.96l-.27,.19c1.57-6.25,3.2-12.76,4.89-19.47l.14,.3c-5.07-2.43-10.26-4.92-15.52-7.45-7.15-3.43-14.16-6.8-20.87-10.03l-.12-.06-.02-.13c-1.4-8.09-2.76-15.93-4.07-23.47-.68-3.76-1.35-7.45-2-11.05-.7-3.59-1.23-7.14-2.53-10.35-2.49-6.46-6.74-11.79-11.68-15.34-4.92-3.61-10.56-5.35-15.68-5.56-2.57-.23-5.02,.14-7.15,1.03-2.14,.86-3.92,2.17-5.36,3.59-1.45,1.42-2.64,2.89-3.56,4.37-.96,1.45-1.67,2.87-2.29,4.15-1.19,2.59-1.82,4.71-2.25,6.14l-.43,1.64c-.1,.37-.16,.56-.16,.56Z" style="fill:#263238;"></path><path d="M190.21,286.43c.01,.07-1.31,.33-3.45,.68-1.12,.18-2.39,.38-3.76,.6-.35,.05-.75,.12-1.17,.06-.42-.03-.97-.41-.97-.97,0-.56,.38-.91,.7-1.19,.35-.28,.74-.45,1.1-.64,2.99-1.53,6.01-2.18,8.18-2.37,1.09-.1,1.97-.1,2.58-.07,.61,.03,.94,.08,.94,.11,0,.09-1.35,.04-3.48,.33-2.13,.29-5.06,.98-7.98,2.47-.36,.2-.74,.36-1.01,.59-.28,.22-.52,.52-.51,.77,0,.26,.22,.45,.54,.49,.32,.05,.66,0,1.02-.04,1.39-.18,2.66-.34,3.78-.49,2.15-.26,3.49-.39,3.5-.32Z" style="fill:#263238;"></path><path d="M175.48,236.55c0,.08-1.54,.12-4.01,.32-2.47,.2-5.87,.63-9.55,1.46-3.68,.84-6.93,1.92-9.25,2.81-2.32,.88-3.71,1.52-3.75,1.44-.02-.03,.32-.22,.94-.55,.62-.33,1.53-.75,2.68-1.24,2.29-.98,5.55-2.13,9.27-2.97,3.72-.84,7.15-1.21,9.64-1.32,1.24-.06,2.25-.07,2.95-.04,.7,.02,1.08,.05,1.08,.09Z" style="fill:#263238;"></path><path d="M248.79,320.18c.12-.07,1.06,1.48,1.6,3.63,.55,2.15,.46,3.95,.33,3.95-.15,0-.3-1.74-.83-3.82-.52-2.08-1.23-3.69-1.09-3.76Z" style="fill:#ff9a6c;"></path><path d="M243.58,322.23c.1-.05,.88,1,1.34,2.6,.36,1.62,.18,2.92,.07,2.93-.17,.02-.24-1.3-.57-2.8-.42-1.47-.99-2.66-.83-2.73Z" style="fill:#ff9a6c;"></path><path d="M238.73,324.35c.12-.07,.62,.59,1.02,1.51,.41,.92,.57,1.72,.44,1.77-.14,.05-.51-.66-.91-1.56-.4-.9-.68-1.65-.55-1.72Z" style="fill:#ff9a6c;"></path></g></g><g><rect x="73.49" y="373.36" width="82.17" height="73.3" style="fill:#e0e0e0;"></rect><rect x="73.49" y="378.6" width="82.17" height="4.54" style="opacity:.3;"></rect><rect x="69.75" y="363.15" width="89.64" height="15.45" rx="3.98" ry="3.98" style="fill:#FF725E;"></rect><path d="M73.49,437.99s41.06-54.5,42.16-56.46,0-8.96,0-8.96l-42.16,57.75v7.68Z" style="opacity:.3;"></path><path d="M111.29,370.78l-43.4,55.25c-.88,1.13-1.15,2.62-.71,3.98h0c1.08,3.34,5.48,4.06,7.56,1.24l41.81-56.6c1.54-2.16,0-5.16-2.66-5.16h0c-1.02,0-1.98,.48-2.6,1.29Z" style="fill:#263238;"></path><path d="M114.3,444.8c-.14,0-.26-13.93-.26-31.1s.12-31.11,.26-31.11,.26,13.92,.26,31.11-.12,31.1-.26,31.1Z" style="fill:#263238;"></path></g></g></g></svg>
