<svg xmlns="http://www.w3.org/2000/svg" viewBox="0 0 479.81 453.63"><g id="background-simple"><g><path d="M479.79,214.55c-.56-36.23-15.87-71.87-39.2-99.88-13.64-16.39-30.06-30.94-47.99-42.51-18.6-12-38.83-25.41-61.27-28.32-5.54-.72-11.22-.74-16.69,.53-20.93,4.87,20.49,27.36,25.9,30.62-57.9-25.57-117.82-51.59-181.11-52.19-12.2-.12-24.86,.85-35.59,6.67-10.73,5.82-19.03,17.58-17.43,29.68,1.32,10,8.55,21.43,1.77,28.9-1.94,2.14-4.69,3.33-7.38,4.35-13.84,5.24-28.79,7.65-41.9,14.51-20.31,10.63-34.17,31.2-40.59,53.2-6.42,22-6.12,45.44-3.59,68.22,4.75,42.88,17.65,85.78,43.77,120.12,37.3,49.05,98.46,75.9,159.72,82.59,74.13,8.1,154.49-13.56,203.51-69.75,7.27-8.33,13.94-17.63,16.58-28.37,2.64-10.74,.55-23.2-7.59-30.69-2.19-2.02-5.02-4.18-4.78-7.15,.32-4.02,5.54-5.15,9.52-5.82,26.09-4.4,41.01-33.14,43.71-59.47,.52-5.08,.73-10.17,.65-15.24Z" style="fill:#92E3A9;"></path><path d="M479.79,214.55c-.56-36.23-15.87-71.87-39.2-99.88-13.64-16.39-30.06-30.94-47.99-42.51-18.6-12-38.83-25.41-61.27-28.32-5.54-.72-11.22-.74-16.69,.53-20.93,4.87,20.49,27.36,25.9,30.62-57.9-25.57-117.82-51.59-181.11-52.19-12.2-.12-24.86,.85-35.59,6.67-10.73,5.82-19.03,17.58-17.43,29.68,1.32,10,8.55,21.43,1.77,28.9-1.94,2.14-4.69,3.33-7.38,4.35-13.84,5.24-28.79,7.65-41.9,14.51-20.31,10.63-34.17,31.2-40.59,53.2-6.42,22-6.12,45.44-3.59,68.22,4.75,42.88,17.65,85.78,43.77,120.12,37.3,49.05,98.46,75.9,159.72,82.59,74.13,8.1,154.49-13.56,203.51-69.75,7.27-8.33,13.94-17.63,16.58-28.37,2.64-10.74,.55-23.2-7.59-30.69-2.19-2.02-5.02-4.18-4.78-7.15,.32-4.02,5.54-5.15,9.52-5.82,26.09-4.4,41.01-33.14,43.71-59.47,.52-5.08,.73-10.17,.65-15.24Z" style="fill:#fff; opacity: .7;"></path></g></g><g id="Trees"><g><path d="M423.5,102c0,22.99-13.6,41.63-30.38,41.63s-30.38-18.64-30.38-41.63S376.35,0,393.13,0s30.38,79.01,30.38,102Z" style="fill:#92E3A9;"></path><path d="M423.5,102c0,22.99-13.6,41.63-30.38,41.63s-30.38-18.64-30.38-41.63S376.35,0,393.13,0s30.38,79.01,30.38,102Z" style="fill:#fff; opacity: .5;"></path><polygon points="376.72 104.07 386.41 107.45 391.21 113.97 390.37 133.95 384.78 130.16 390.19 138.08 389.64 152.56 394.84 155.83 394.07 122.9 410.16 114.03 400.96 117.43 402.81 111.9 398.41 118.38 394.02 120 393.71 101.82 409.69 80.59 401.12 89.15 402.57 83.2 398.47 91.8 393.62 96.66 393.13 68.25 391.39 109.68 376.25 93.64 384.56 104.94 376.72 104.07" style="fill:#b2b2b2;"></polygon><g><path d="M409.84,68.34s.28,2.79-1.24,4.84c-1.53,2.05-4.28,2.58-4.28,2.58,0,0-.28-2.79,1.24-4.84,1.53-2.05,4.28-2.58,4.28-2.58Z" style="fill:#fff;"></path><path d="M419,81.21s.28,2.79-1.24,4.84c-1.53,2.05-4.28,2.58-4.28,2.58,0,0-.28-2.79,1.24-4.84s4.28-2.58,4.28-2.58Z" style="fill:#fff;"></path><path d="M418.99,106.25s-.67,2.72-2.8,4.14c-2.13,1.42-4.9,.99-4.9,.99,0,0,.67-2.72,2.8-4.14,2.13-1.42,4.9-.99,4.9-.99Z" style="fill:#fff;"></path><path d="M368.71,106.25s.67,2.72,2.8,4.14c2.13,1.42,4.9,.99,4.9,.99,0,0-.67-2.72-2.8-4.14-2.13-1.42-4.9-.99-4.9-.99Z" style="fill:#fff;"></path><path d="M408.42,95.86s.28,2.79-1.24,4.84c-1.53,2.05-4.28,2.58-4.28,2.58,0,0-.28-2.79,1.24-4.84,1.53-2.05,4.28-2.58,4.28-2.58Z" style="fill:#fff;"></path><path d="M406.04,54.35s.28,2.79-1.24,4.84c-1.53,2.05-4.28,2.58-4.28,2.58,0,0-.28-2.79,1.24-4.84,1.53-2.05,4.28-2.58,4.28-2.58Z" style="fill:#fff;"></path><path d="M400.59,65.02s.28,2.79-1.24,4.84c-1.53,2.05-4.28,2.58-4.28,2.58,0,0-.28-2.79,1.24-4.84,1.53-2.05,4.28-2.58,4.28-2.58Z" style="fill:#fff;"></path><path d="M413.54,57.25s.28,2.79-1.24,4.84c-1.53,2.05-4.28,2.58-4.28,2.58,0,0-.28-2.79,1.24-4.84,1.53-2.05,4.28-2.58,4.28-2.58Z" style="fill:#fff;"></path><path d="M371.46,57.25s-.28,2.79,1.24,4.84,4.28,2.58,4.28,2.58c0,0,.28-2.79-1.24-4.84-1.53-2.05-4.28-2.58-4.28-2.58Z" style="fill:#fff;"></path><path d="M407.23,41.31s.28,2.79-1.24,4.84c-1.53,2.05-4.28,2.58-4.28,2.58,0,0-.28-2.79,1.24-4.84,1.53-2.05,4.28-2.58,4.28-2.58Z" style="fill:#fff;"></path><path d="M404.55,27.45s.97,2.63,.01,5c-.96,2.37-3.49,3.57-3.49,3.57,0,0-.97-2.63-.01-5,.96-2.37,3.49-3.57,3.49-3.57Z" style="fill:#fff;"></path><path d="M385.34,23.83s2.48,1.3,3.36,3.7c.87,2.4-.2,4.99-.2,4.99,0,0-2.48-1.3-3.36-3.7-.87-2.4,.2-4.99,.2-4.99Z" style="fill:#fff;"></path><path d="M394.3,40.4s1.77,2.18,1.62,4.73c-.15,2.55-2.15,4.51-2.15,4.51,0,0-1.77-2.18-1.62-4.73,.15-2.55,2.15-4.51,2.15-4.51Z" style="fill:#fff;"></path><path d="M393.82,15.73s1.77,2.18,1.62,4.73c-.15,2.55-2.15,4.51-2.15,4.51,0,0-1.77-2.18-1.62-4.73s2.15-4.51,2.15-4.51Z" style="fill:#fff;"></path><path d="M373.72,68.34s-.28,2.79,1.24,4.84,4.28,2.58,4.28,2.58c0,0,.28-2.79-1.24-4.84-1.53-2.05-4.28-2.58-4.28-2.58Z" style="fill:#fff;"></path><path d="M368.5,83.52s-.28,2.79,1.24,4.84c1.53,2.05,4.28,2.58,4.28,2.58,0,0,.28-2.79-1.24-4.84-1.53-2.05-4.28-2.58-4.28-2.58Z" style="fill:#fff;"></path><path d="M382.35,89.03s-.28,2.79,1.24,4.84c1.53,2.05,4.28,2.58,4.28,2.58,0,0,.28-2.79-1.24-4.84-1.53-2.05-4.28-2.58-4.28-2.58Z" style="fill:#fff;"></path><path d="M386.14,68s-1.07,2.59-.19,4.99c.87,2.4,3.36,3.7,3.36,3.7,0,0,1.07-2.59,.19-4.99-.87-2.4-3.36-3.7-3.36-3.7Z" style="fill:#fff;"></path><path d="M376.33,123.97s2.8,.05,4.72-1.64c1.92-1.69,2.22-4.48,2.22-4.48,0,0-2.8-.05-4.72,1.64-1.92,1.69-2.22,4.48-2.22,4.48Z" style="fill:#fff;"></path><path d="M403.24,120.9s.76,2.7,2.93,4.05c2.17,1.35,4.93,.83,4.93,.83,0,0-.76-2.7-2.93-4.05-2.17-1.35-4.93-.83-4.93-.83Z" style="fill:#fff;"></path><path d="M379.46,54.35s-.28,2.79,1.24,4.84c1.53,2.05,4.28,2.58,4.28,2.58,0,0,.28-2.79-1.24-4.84-1.53-2.05-4.28-2.58-4.28-2.58Z" style="fill:#fff;"></path><path d="M379.41,42.02s-.28,2.79,1.24,4.84c1.53,2.05,4.28,2.58,4.28,2.58,0,0,.28-2.79-1.24-4.84-1.53-2.05-4.28-2.58-4.28-2.58Z" style="fill:#fff;"></path></g></g><g><path d="M365.04,88.52c0,19.31-11.42,34.96-25.51,34.96s-25.51-15.65-25.51-34.96S325.43,2.84,339.53,2.84s25.51,66.37,25.51,85.68Z" style="fill:#92E3A9;"></path><path d="M365.04,88.52c0,19.31-11.42,34.96-25.51,34.96s-25.51-15.65-25.51-34.96S325.43,2.84,339.53,2.84s25.51,66.37,25.51,85.68Z" style="fill:#fff; opacity: .5;"></path><polygon points="325.74 90.26 333.88 93.1 337.91 98.57 337.21 115.35 332.52 112.17 337.06 118.82 336.82 130.6 340.82 130.16 340.32 106.07 353.83 98.62 346.11 101.48 347.66 96.83 343.96 102.27 340.27 103.64 340.01 88.37 353.43 70.53 346.24 77.73 347.46 72.73 344.02 79.95 339.94 84.03 339.53 60.17 338.06 94.97 325.34 81.49 332.33 90.99 325.74 90.26" style="fill:#b2b2b2;"></polygon><g><path d="M353.56,60.25s.24,2.34-1.05,4.06-3.59,2.17-3.59,2.17c0,0-.24-2.34,1.05-4.06s3.59-2.17,3.59-2.17Z" style="fill:#fff;"></path><path d="M361.25,71.05s.24,2.34-1.05,4.06c-1.28,1.72-3.59,2.17-3.59,2.17,0,0-.24-2.34,1.05-4.06s3.59-2.17,3.59-2.17Z" style="fill:#fff;"></path><path d="M361.25,92.09s-.57,2.29-2.35,3.48c-1.79,1.19-4.11,.83-4.11,.83,0,0,.57-2.29,2.35-3.48,1.79-1.19,4.11-.83,4.11-.83Z" style="fill:#fff;"></path><path d="M319.02,92.09s.57,2.29,2.35,3.48c1.79,1.19,4.11,.83,4.11,.83,0,0-.57-2.29-2.35-3.48-1.79-1.19-4.11-.83-4.11-.83Z" style="fill:#fff;"></path><path d="M352.37,83.36s.24,2.34-1.05,4.07c-1.28,1.72-3.59,2.17-3.59,2.17,0,0-.24-2.34,1.05-4.06,1.28-1.72,3.59-2.17,3.59-2.17Z" style="fill:#fff;"></path><path d="M350.37,48.49s.24,2.34-1.05,4.06c-1.28,1.72-3.59,2.17-3.59,2.17,0,0-.24-2.34,1.05-4.06,1.28-1.72,3.59-2.17,3.59-2.17Z" style="fill:#fff;"></path><path d="M345.79,57.46s.24,2.34-1.05,4.06c-1.28,1.72-3.59,2.17-3.59,2.17,0,0-.24-2.34,1.05-4.06s3.59-2.17,3.59-2.17Z" style="fill:#fff;"></path><path d="M356.67,50.93s.24,2.34-1.05,4.06-3.59,2.17-3.59,2.17c0,0-.24-2.34,1.05-4.06,1.28-1.72,3.59-2.17,3.59-2.17Z" style="fill:#fff;"></path><path d="M321.32,50.93s-.24,2.34,1.05,4.06c1.28,1.72,3.59,2.17,3.59,2.17,0,0,.24-2.34-1.05-4.06-1.28-1.72-3.59-2.17-3.59-2.17Z" style="fill:#fff;"></path><path d="M351.37,37.54s.24,2.34-1.05,4.06-3.59,2.17-3.59,2.17c0,0-.24-2.34,1.05-4.07,1.28-1.72,3.59-2.17,3.59-2.17Z" style="fill:#fff;"></path><path d="M349.12,25.9s.82,2.21,0,4.2c-.81,1.99-2.93,3-2.93,3,0,0-.82-2.21,0-4.2,.81-1.99,2.93-3,2.93-3Z" style="fill:#fff;"></path><path d="M332.98,22.86s2.09,1.09,2.82,3.11c.73,2.02-.17,4.19-.17,4.19,0,0-2.09-1.09-2.82-3.11-.73-2.02,.17-4.19,.17-4.19Z" style="fill:#fff;"></path><path d="M340.51,36.77s1.49,1.83,1.36,3.97c-.12,2.14-1.81,3.79-1.81,3.79,0,0-1.49-1.83-1.36-3.97,.12-2.14,1.81-3.79,1.81-3.79Z" style="fill:#fff;"></path><path d="M340.11,16.06s1.49,1.83,1.36,3.97c-.12,2.14-1.81,3.79-1.81,3.79,0,0-1.49-1.83-1.36-3.97,.12-2.14,1.81-3.79,1.81-3.79Z" style="fill:#fff;"></path><path d="M323.22,60.25s-.24,2.34,1.05,4.06c1.28,1.72,3.59,2.17,3.59,2.17,0,0,.24-2.34-1.05-4.06-1.28-1.72-3.59-2.17-3.59-2.17Z" style="fill:#fff;"></path><path d="M318.84,73s-.24,2.34,1.05,4.06c1.28,1.72,3.59,2.17,3.59,2.17,0,0,.24-2.34-1.05-4.06-1.28-1.72-3.59-2.17-3.59-2.17Z" style="fill:#fff;"></path><path d="M330.47,77.62s-.24,2.34,1.05,4.07c1.28,1.72,3.59,2.17,3.59,2.17,0,0,.24-2.34-1.05-4.06-1.28-1.72-3.59-2.17-3.59-2.17Z" style="fill:#fff;"></path><path d="M333.66,59.96s-.9,2.18-.16,4.19c.73,2.02,2.82,3.11,2.82,3.11,0,0,.9-2.18,.16-4.19-.73-2.02-2.82-3.11-2.82-3.11Z" style="fill:#fff;"></path><path d="M325.42,106.97s2.36,.04,3.97-1.38c1.61-1.42,1.86-3.76,1.86-3.76,0,0-2.36-.04-3.97,1.38-1.61,1.42-1.86,3.76-1.86,3.76Z" style="fill:#fff;"></path><path d="M348.02,104.39s.64,2.27,2.46,3.4c1.82,1.13,4.14,.7,4.14,.7,0,0-.64-2.27-2.46-3.4-1.82-1.13-4.14-.7-4.14-.7Z" style="fill:#fff;"></path><path d="M328.04,48.49s-.24,2.34,1.05,4.06c1.28,1.72,3.59,2.17,3.59,2.17,0,0,.24-2.34-1.05-4.06-1.28-1.72-3.59-2.17-3.59-2.17Z" style="fill:#fff;"></path><path d="M328,38.13s-.24,2.34,1.05,4.06c1.28,1.72,3.59,2.17,3.59,2.17,0,0,.24-2.34-1.05-4.07-1.28-1.72-3.59-2.17-3.59-2.17Z" style="fill:#fff;"></path></g></g><g><path d="M462.72,179.93c0,16.84-9.96,30.49-22.25,30.49s-22.25-13.65-22.25-30.49,9.96-74.73,22.25-74.73,22.25,57.88,22.25,74.73Z" style="fill:#92E3A9;"></path><path d="M462.72,179.93c0,16.84-9.96,30.49-22.25,30.49s-22.25-13.65-22.25-30.49,9.96-74.73,22.25-74.73,22.25,57.88,22.25,74.73Z" style="fill:#fff; opacity: .5;"></path><polygon points="428.45 181.44 435.54 183.92 439.06 188.7 438.45 203.33 434.35 200.55 438.32 206.36 437.83 218.27 441.68 218.52 441.16 195.24 452.95 188.74 446.21 191.23 447.56 187.17 444.34 191.92 441.12 193.11 440.89 179.79 452.6 164.24 446.32 170.51 447.39 166.15 444.38 172.45 440.83 176.01 440.47 155.2 439.19 185.55 428.1 173.8 434.19 182.08 428.45 181.44" style="fill:#b2b2b2;"></polygon><g><path d="M452.71,155.27s.21,2.04-.91,3.55-3.14,1.89-3.14,1.89c0,0-.21-2.04,.91-3.55,1.12-1.5,3.14-1.89,3.14-1.89Z" style="fill:#fff;"></path><path d="M459.42,164.69s.21,2.04-.91,3.55c-1.12,1.5-3.14,1.89-3.14,1.89,0,0-.21-2.04,.91-3.55s3.14-1.89,3.14-1.89Z" style="fill:#fff;"></path><path d="M459.41,183.04s-.49,1.99-2.05,3.03c-1.56,1.04-3.59,.72-3.59,.72,0,0,.49-1.99,2.05-3.03,1.56-1.04,3.59-.72,3.59-.72Z" style="fill:#fff;"></path><path d="M422.58,183.04s.49,1.99,2.05,3.03c1.56,1.04,3.59,.72,3.59,.72,0,0-.49-1.99-2.05-3.03-1.56-1.04-3.59-.72-3.59-.72Z" style="fill:#fff;"></path><path d="M451.67,175.42s.21,2.04-.91,3.55c-1.12,1.5-3.14,1.89-3.14,1.89,0,0-.21-2.04,.91-3.55,1.12-1.5,3.14-1.89,3.14-1.89Z" style="fill:#fff;"></path><path d="M449.93,145.02s.21,2.04-.91,3.55c-1.12,1.5-3.13,1.89-3.13,1.89,0,0-.21-2.04,.91-3.55,1.12-1.5,3.14-1.89,3.14-1.89Z" style="fill:#fff;"></path><path d="M445.93,152.83s.21,2.04-.91,3.55c-1.12,1.5-3.14,1.89-3.14,1.89,0,0-.21-2.04,.91-3.55,1.12-1.5,3.14-1.89,3.14-1.89Z" style="fill:#fff;"></path><path d="M455.42,147.14s.21,2.04-.91,3.55c-1.12,1.5-3.14,1.89-3.14,1.89,0,0-.21-2.04,.91-3.55,1.12-1.5,3.14-1.89,3.14-1.89Z" style="fill:#fff;"></path><path d="M424.59,147.14s-.21,2.04,.91,3.55c1.12,1.5,3.14,1.89,3.14,1.89,0,0,.21-2.04-.91-3.55-1.12-1.5-3.14-1.89-3.14-1.89Z" style="fill:#fff;"></path><path d="M450.8,135.46s.21,2.04-.91,3.55c-1.12,1.5-3.14,1.89-3.14,1.89,0,0-.21-2.04,.91-3.55,1.12-1.5,3.14-1.89,3.14-1.89Z" style="fill:#fff;"></path><path d="M448.83,125.31s.71,1.93,0,3.66c-.7,1.73-2.56,2.62-2.56,2.62,0,0-.71-1.93,0-3.66,.7-1.73,2.56-2.62,2.56-2.62Z" style="fill:#fff;"></path><path d="M434.76,122.66s1.82,.95,2.46,2.71c.64,1.76-.15,3.66-.15,3.66,0,0-1.82-.95-2.46-2.71-.64-1.76,.15-3.66,.15-3.66Z" style="fill:#fff;"></path><path d="M441.32,134.79s1.3,1.59,1.19,3.46c-.11,1.87-1.58,3.3-1.58,3.3,0,0-1.3-1.59-1.19-3.46,.11-1.87,1.58-3.3,1.58-3.3Z" style="fill:#fff;"></path><path d="M440.98,116.73s1.3,1.59,1.19,3.46c-.11,1.87-1.58,3.3-1.58,3.3,0,0-1.3-1.59-1.19-3.46,.11-1.87,1.58-3.3,1.58-3.3Z" style="fill:#fff;"></path><path d="M426.25,155.27s-.21,2.04,.91,3.55,3.13,1.89,3.13,1.89c0,0,.21-2.04-.91-3.55-1.12-1.5-3.14-1.89-3.14-1.89Z" style="fill:#fff;"></path><path d="M422.43,166.39s-.21,2.04,.91,3.55c1.12,1.5,3.14,1.89,3.14,1.89,0,0,.21-2.04-.91-3.55-1.12-1.5-3.14-1.89-3.14-1.89Z" style="fill:#fff;"></path><path d="M432.57,170.42s-.21,2.04,.91,3.55c1.12,1.5,3.13,1.89,3.13,1.89,0,0,.21-2.04-.91-3.55-1.12-1.5-3.14-1.89-3.14-1.89Z" style="fill:#fff;"></path><path d="M435.35,155.02s-.78,1.9-.14,3.66,2.46,2.71,2.46,2.71c0,0,.78-1.9,.14-3.66-.64-1.76-2.46-2.71-2.46-2.71Z" style="fill:#fff;"></path><path d="M428.16,196.02s2.05,.04,3.46-1.2c1.4-1.24,1.63-3.28,1.63-3.28,0,0-2.05-.04-3.46,1.2-1.4,1.24-1.63,3.28-1.63,3.28Z" style="fill:#fff;"></path><path d="M447.88,193.77s.56,1.98,2.15,2.96c1.59,.99,3.61,.61,3.61,.61,0,0-.56-1.98-2.15-2.96-1.59-.99-3.61-.61-3.61-.61Z" style="fill:#fff;"></path><path d="M430.45,145.02s-.21,2.04,.91,3.55c1.12,1.5,3.14,1.89,3.14,1.89,0,0,.21-2.04-.91-3.55-1.12-1.5-3.14-1.89-3.14-1.89Z" style="fill:#fff;"></path><path d="M430.42,135.98s-.21,2.04,.91,3.55c1.12,1.5,3.14,1.89,3.14,1.89,0,0,.21-2.04-.91-3.55-1.12-1.5-3.14-1.89-3.14-1.89Z" style="fill:#fff;"></path></g></g><g><path d="M310.96,108.71c0,13.31-7.87,24.1-17.58,24.1s-17.58-10.79-17.58-24.1,7.87-59.05,17.58-59.05,17.58,45.74,17.58,59.05Z" style="fill:#92E3A9;"></path><path d="M310.96,108.71c0,13.31-7.87,24.1-17.58,24.1s-17.58-10.79-17.58-24.1,7.87-59.05,17.58-59.05,17.58,45.74,17.58,59.05Z" style="fill:#fff; opacity: .5;"></path><polygon points="283.88 109.91 289.49 111.87 292.26 115.64 291.78 127.21 288.54 125.01 291.68 129.6 291.26 137.72 293.93 137.13 293.92 120.81 303.23 115.68 297.91 117.65 298.98 114.44 296.43 118.19 293.89 119.13 293.71 108.61 302.96 96.32 298 101.28 298.84 97.83 296.47 102.81 293.66 105.62 293.38 89.18 292.37 113.16 283.6 103.87 288.42 110.42 283.88 109.91" style="fill:#b2b2b2;"></polygon><g><path d="M303.05,89.23s.16,1.62-.72,2.8c-.88,1.19-2.48,1.49-2.48,1.49,0,0-.16-1.62,.72-2.8,.88-1.19,2.48-1.49,2.48-1.49Z" style="fill:#fff;"></path><path d="M308.35,96.68s.16,1.62-.72,2.8c-.88,1.19-2.48,1.49-2.48,1.49,0,0-.16-1.62,.72-2.8s2.48-1.49,2.48-1.49Z" style="fill:#fff;"></path><path d="M308.35,111.17s-.39,1.58-1.62,2.4c-1.23,.82-2.84,.57-2.84,.57,0,0,.39-1.58,1.62-2.4,1.23-.82,2.84-.57,2.84-.57Z" style="fill:#fff;"></path><path d="M279.24,111.17s.39,1.58,1.62,2.4c1.23,.82,2.84,.57,2.84,.57,0,0-.39-1.58-1.62-2.4-1.23-.82-2.84-.57-2.84-.57Z" style="fill:#fff;"></path><path d="M302.23,105.16s.16,1.62-.72,2.8c-.88,1.19-2.48,1.49-2.48,1.49,0,0-.16-1.62,.72-2.8,.88-1.19,2.48-1.49,2.48-1.49Z" style="fill:#fff;"></path><path d="M300.85,81.13s.16,1.62-.72,2.8-2.48,1.49-2.48,1.49c0,0-.16-1.62,.72-2.8,.88-1.19,2.48-1.49,2.48-1.49Z" style="fill:#fff;"></path><path d="M297.69,87.31s.16,1.62-.72,2.8c-.88,1.19-2.48,1.49-2.48,1.49,0,0-.16-1.62,.72-2.8s2.48-1.49,2.48-1.49Z" style="fill:#fff;"></path><path d="M305.19,82.81s.16,1.62-.72,2.8-2.48,1.49-2.48,1.49c0,0-.16-1.62,.72-2.8,.88-1.19,2.48-1.49,2.48-1.49Z" style="fill:#fff;"></path><path d="M280.83,82.81s-.16,1.62,.72,2.8,2.48,1.49,2.48,1.49c0,0,.16-1.62-.72-2.8-.88-1.19-2.48-1.49-2.48-1.49Z" style="fill:#fff;"></path><path d="M301.54,73.58s.16,1.62-.72,2.8-2.48,1.49-2.48,1.49c0,0-.16-1.62,.72-2.8,.88-1.19,2.48-1.49,2.48-1.49Z" style="fill:#fff;"></path><path d="M299.99,65.56s.56,1.52,0,2.89c-.56,1.37-2.02,2.07-2.02,2.07,0,0-.56-1.52,0-2.89,.56-1.37,2.02-2.07,2.02-2.07Z" style="fill:#fff;"></path><path d="M288.87,63.46s1.44,.75,1.94,2.14c.5,1.39-.12,2.89-.12,2.89,0,0-1.44-.75-1.94-2.14-.5-1.39,.12-2.89,.12-2.89Z" style="fill:#fff;"></path><path d="M294.05,73.05s1.02,1.26,.94,2.74-1.25,2.61-1.25,2.61c0,0-1.02-1.26-.94-2.74,.08-1.48,1.25-2.61,1.25-2.61Z" style="fill:#fff;"></path><path d="M293.78,58.78s1.02,1.26,.94,2.74-1.25,2.61-1.25,2.61c0,0-1.02-1.26-.94-2.74,.08-1.48,1.25-2.61,1.25-2.61Z" style="fill:#fff;"></path><path d="M282.14,89.23s-.16,1.62,.72,2.8c.88,1.19,2.48,1.49,2.48,1.49,0,0,.16-1.62-.72-2.8-.88-1.19-2.48-1.49-2.48-1.49Z" style="fill:#fff;"></path><path d="M279.12,98.02s-.16,1.62,.72,2.8,2.48,1.49,2.48,1.49c0,0,.16-1.62-.72-2.8-.88-1.19-2.48-1.49-2.48-1.49Z" style="fill:#fff;"></path><path d="M287.14,101.21s-.16,1.62,.72,2.8c.88,1.19,2.48,1.49,2.48,1.49,0,0,.16-1.62-.72-2.8s-2.48-1.49-2.48-1.49Z" style="fill:#fff;"></path><path d="M289.33,89.03s-.62,1.5-.11,2.89,1.95,2.14,1.95,2.14c0,0,.62-1.5,.11-2.89-.51-1.39-1.95-2.14-1.95-2.14Z" style="fill:#fff;"></path><path d="M283.65,121.43s1.62,.03,2.73-.95c1.11-.98,1.29-2.59,1.29-2.59,0,0-1.62-.03-2.73,.95-1.11,.98-1.29,2.59-1.29,2.59Z" style="fill:#fff;"></path><path d="M299.23,119.65s.44,1.56,1.7,2.34c1.26,.78,2.85,.48,2.85,.48,0,0-.44-1.56-1.7-2.34-1.26-.78-2.85-.48-2.85-.48Z" style="fill:#fff;"></path><path d="M285.46,81.13s-.16,1.62,.72,2.8,2.48,1.49,2.48,1.49c0,0,.16-1.62-.72-2.8-.88-1.19-2.48-1.49-2.48-1.49Z" style="fill:#fff;"></path><path d="M285.44,73.99s-.16,1.62,.72,2.8c.88,1.19,2.48,1.49,2.48,1.49,0,0,.16-1.62-.72-2.8-.88-1.19-2.48-1.49-2.48-1.49Z" style="fill:#fff;"></path></g></g></g><g id="Rocks"><g><path d="M387.4,262.67s19.54-36.56,27.11-42.23c7.56-5.67,29.63-1.26,31.52-1.26s13.87,22.69,15.76,29,6.93,66.82,6.93,66.82" style="fill: none; stroke: #263238; stroke-miterlimit: 10;"></path><polyline points="461.78 248.17 449.09 255.64 436.11 254.28 423.81 237.88 416.97 228.31" style="fill: none; stroke: #263238; stroke-miterlimit: 10;"></polyline><polyline points="436.11 254.28 427.22 270.68 435.43 289.26 435.42 299.38" style="fill: none; stroke: #263238; stroke-miterlimit: 10;"></polyline><polyline points="95.8 71.82 155.93 68.41 188.05 77.97 233.84 122.39 265.27 159.29 286.45 201.66" style="fill: none; stroke: #263238; stroke-miterlimit: 10;"></polyline><path d="M252.97,144.94s86.1-17.77,98.4-15.03c12.3,2.73,56.72,34.85,58.77,37.58,2.05,2.73,8.88,28.7,8.88,28.7l4.1,19.82" style="fill: none; stroke: #263238; stroke-miterlimit: 10;"></path><path d="M38.4,175.01s32.8-12.3,34.85-12.3,12.3,0,16.4,2.05c4.1,2.05,15.03,12.98,15.03,12.98" style="fill: none; stroke: #263238; stroke-miterlimit: 10;"></path><path d="M155.93,73.87s12.98,17.77,15.72,22.55c2.73,4.78,1.37,25.97,.68,28.7-.68,2.73,4.78,16.4,4.78,16.4" style="fill: none; stroke: #263238; stroke-miterlimit: 10;"></path><polyline points="410.14 167.49 389.64 198.24 365.04 206.44 354.79 220.11" style="fill: none; stroke: #263238; stroke-miterlimit: 10;"></polyline></g></g><g id="River"><g><path d="M386.71,238.48c2.23,.92,4.45,1.86,6.67,2.8" style="fill: none; stroke: #263238; stroke-miterlimit: 10;"></path><path d="M15.14,175.32c51.42-.08,224.18,4.16,365.82,60.82" style="fill: none; stroke: #263238; stroke-miterlimit: 10;"></path><path d="M.02,175.51s3.33-.11,9.48-.16" style="fill: none; stroke: #263238; stroke-miterlimit: 10;"></path><path d="M331.22,329.32c.74,1.79,1.47,3.61,2.19,5.48" style="fill: none; stroke: #263238; stroke-miterlimit: 10;"></path><path d="M303.1,279.33s14.18,17.86,26.43,46" style="fill: none; stroke: #263238; stroke-miterlimit: 10;"></path><path d="M388.1,299.35c.52,2.18,.99,4.34,1.41,6.43" style="fill: none; stroke: #263238; stroke-miterlimit: 10;"></path><path d="M331.48,299.32s16.77,29.02,20.64,45.14,9.67-7.09,4.51-23.86c-5.16-16.77-16.12-42.56-8.38-36.76s15.48,35.47,17.41,27.08c1.93-8.38-2.58-21.93,.64-15.48,3.22,6.45,5.16,12.9,9.03,29.02,3.87,16.12,7.74,5.16,5.8-12.25-1.93-17.41-15.48-54.17-8.38-48.36,5.51,4.51,10.64,17.6,14.16,30.78" style="fill: none; stroke: #263238; stroke-miterlimit: 10;"></path><path d="M376.68,253.21s57.36,39.08,81.95,107.79" style="fill: none; stroke: #263238; stroke-miterlimit: 10;"></path><path d="M391.81,277.16s20.8,17.65,37.82,63.67" style="fill: none; stroke: #263238; stroke-miterlimit: 10;"></path><g><path d="M125.91,273.13c1.24,1.61,2.48,3.25,3.72,4.91" style="fill: none; stroke: #263238; stroke-miterlimit: 10;"></path><path d="M34.12,193.09c19.04,8.95,51.24,29.26,86.97,73.89" style="fill: none; stroke: #263238; stroke-miterlimit: 10;"></path><path d="M16.14,186.47s4.49,.88,12.36,4.13" style="fill: none; stroke: #263238; stroke-miterlimit: 10;"></path><path d="M58.39,267.54c5.52,7.53,10.5,14.45,14.49,16.31,9.67,4.51,5.16-9.67,7.74-6.45,2.58,3.22,17.41,23.22,19.99,14.83,2.58-8.38-25.15-54.17-18.06-50.94s30.95,43.85,32.24,38.05c1.29-5.8-.64-9.03-.64-9.03" style="fill: none; stroke: #263238; stroke-miterlimit: 10;"></path><path d="M43.79,299.81c9.91,5,19.75,8.54,19.43,2.74-.64-11.61-45.14-58.68-30.31-58.04,7.84,.34,15.85,10.04,23.1,19.79" style="fill: none; stroke: #263238; stroke-miterlimit: 10;"></path><path d="M23.88,288.36s7.61,4.91,16.13,9.48" style="fill: none; stroke: #263238; stroke-miterlimit: 10;"></path><path d="M85.28,209.38c13.2,10.58,32.01,27.68,46.93,49.32" style="fill: none; stroke: #263238; stroke-miterlimit: 10;"></path><path d="M69.02,197.44s4.72,3.01,11.96,8.57" style="fill: none; stroke: #263238; stroke-miterlimit: 10;"></path><path d="M67.08,185.18s30.31,17.41,39.98,27.73" style="fill: none; stroke: #263238; stroke-miterlimit: 10;"></path></g></g></g><g id="foam-2"><g><path d="M216.02,206.73s44.81-25.12,54.99-46.85c10.18-21.73,46.85-27.84,45.49-18.33s-23.76,2.04-27.16,11.54c-3.39,9.51,15.62,1.36,16.29,7.47,.68,6.11-2.72,4.75-12.22,10.18s-7.47,12.9,6.11,8.83c13.58-4.07,42.77-4.07,48.2,8.15s-18.33-8.83-24.44-3.39,23.08,7.47,29.19,23.08c6.11,15.62-6.11,12.22-12.22,5.43-6.11-6.79-21.73-19.01-26.48-13.58-4.75,5.43,32.59,14.26,34.63,38.02,2.04,23.76-.68,32.59-6.79,24.44-6.11-8.15-10.86-26.48-16.29-25.8-5.43,.68,10.18,17.65,6.11,30.55-4.07,12.9-10.86-1.36-12.9-7.47-2.04-6.11-10.18-18.33-14.94-14.94-4.75,3.39,5.43,7.47,2.04,14.26-3.39,6.79-9.51-2.04-13.58-2.72-4.07-.68-1.36,5.43-3.39,8.83-2.04,3.39-7.47,.68-14.26-13.58-6.79-14.26-18.33-14.26-13.58-8.15,4.75,6.11,8.83,13.58,5.43,16.29-3.39,2.72-30.24-25.48-37.52-32.77-7.29-7.29-17.47-18.15-12.72-19.51Z" style="fill:#fff; stroke: #263238; stroke-miterlimit: 10;"></path><path d="M216.38,231.58s38.03,1.47,52.88-8.31c14.84-9.78,40.37,.55,35.83,6.03-4.54,5.48-15.8-7.91-21.63-3.22-5.82,4.69,9.34,6.9,7.4,11.03-1.94,4.12-3.56,1.95-11.66,1.7-8.11-.25-9.71,5.26,.44,7.94,10.16,2.68,28.6,13.98,27.3,23.81s-8.16-12.67-14.13-11.61c-5.96,1.07,11.69,13.65,9.51,25.88-2.18,12.23-8.59,5.36-9.82-1.3-1.23-6.65-6.37-20.42-11.47-18.83-5.11,1.59,15.07,21.62,7.16,37.42-7.91,15.8-13.04,20.33-13.75,12.81s3.39-20.93-.31-22.61c-3.69-1.67-.4,15.09-7.97,21.67-7.57,6.57-6.34-5.06-5.26-9.71,1.08-4.65,.66-15.52-3.65-15.22-4.32,.31,.54,6.82-4.23,9.8-4.77,2.98-5.22-4.97-7.53-6.97s-2.96,2.91-5.56,4.26c-2.6,1.36-4.98-2.46-3.75-14.1,1.23-11.64-6.06-16.1-5.43-10.4,.64,5.7,.32,12-2.88,12.4-3.2,.4-9.24-27.8-11.02-35.23-1.78-7.42-4.01-18.23-.48-17.25Z" style="fill:#fff; stroke: #263238; stroke-miterlimit: 10;"></path><path d="M352.28,152.97c-.94,2.31-5.84,2.5-10.96,.43-5.12-2.07-8.5-5.63-7.57-7.94,.94-2.31,5.84-2.5,10.96-.43,5.12,2.07,8.5,5.63,7.57,7.94Z" style="fill:#fff; stroke: #263238; stroke-miterlimit: 10;"></path><path d="M367.13,178.13c-.87,2.15-4.79,2.58-8.75,.98-3.96-1.61-6.47-4.65-5.6-6.79,.87-2.15,4.79-2.58,8.75-.98,3.96,1.61,6.47,4.65,5.6,6.79Z" style="fill:#fff; stroke: #263238; stroke-miterlimit: 10;"></path><path d="M326.47,180.68c-.87,2.15-4.79,2.58-8.75,.98s-6.47-4.65-5.6-6.79c.87-2.15,4.79-2.58,8.75-.98,3.96,1.61,6.47,4.65,5.6,6.79Z" style="fill:#fff; stroke: #263238; stroke-miterlimit: 10;"></path><path d="M325.58,153.76c-.68,1.68-3.75,2.03-6.86,.77-3.11-1.26-5.07-3.65-4.39-5.33,.68-1.68,3.75-2.03,6.86-.77s5.07,3.65,4.39,5.33Z" style="fill:#fff; stroke: #263238; stroke-miterlimit: 10;"></path><path d="M362.58,193.63c-.34,.84-1.88,1.01-3.43,.38-1.55-.63-2.54-1.82-2.2-2.66,.34-.84,1.88-1.01,3.43-.38,1.55,.63,2.54,1.82,2.2,2.66Z" style="fill:#fff; stroke: #263238; stroke-miterlimit: 10;"></path><path d="M365.91,216.22c-.34,.84-1.88,1.01-3.43,.38-1.55-.63-2.54-1.82-2.2-2.66,.34-.84,1.88-1.01,3.43-.38,1.55,.63,2.54,1.82,2.2,2.66Z" style="fill:#fff; stroke: #263238; stroke-miterlimit: 10;"></path><ellipse cx="241.84" cy="136.17" rx="5.16" ry="3.22" style="fill:#fff; stroke: #263238; stroke-miterlimit: 10;"></ellipse><path d="M256.03,153.91c0,1.25-1.15,2.26-2.58,2.26s-2.58-1.01-2.58-2.26,1.15-2.26,2.58-2.26,2.58,1.01,2.58,2.26Z" style="fill:#fff; stroke: #263238; stroke-miterlimit: 10;"></path><path d="M217.98,121.99c0,1.42-1.59,2.58-3.55,2.58s-3.55-1.15-3.55-2.58,1.59-2.58,3.55-2.58,3.55,1.15,3.55,2.58Z" style="fill:#fff; stroke: #263238; stroke-miterlimit: 10;"></path><path d="M271.5,127.47c0,1.96-1.3,3.55-2.9,3.55s-2.9-1.59-2.9-3.55,1.3-3.55,2.9-3.55,2.9,1.59,2.9,3.55Z" style="fill:#fff; stroke: #263238; stroke-miterlimit: 10;"></path></g></g><g id="Character"><g><path d="M127.7,194.89s20.13,75.72,35.4,103.86c15.27,28.14,61.77,75.72,93,85.77,31.23,10.05,43.03,12.06,44.42,0,1.39-12.06-133.25-142.73-143.66-160.82s-28.46-33.5-29.15-28.81Z" style="fill:#263238; stroke: #263238; stroke-miterlimit: 10;"></path><g><g><path d="M189.66,183.71s-20.45-23.51-32.36-31.69c-11.92-8.18-27.98-11.7-33.75,4.74-5.76,16.45,11.71,80.61,45.04,131.55,33.33,50.94,80.36,81.79,98.52,91.87,18.16,10.08,31.24,13.45,44.18,6.32,12.94-7.13-4.25-48.31-11.9-72.02-7.65-23.71-27.56-47.97-39.5-64.04s-70.23-66.72-70.23-66.72Z" style="fill:#92E3A9; stroke: #263238; stroke-miterlimit: 10;"></path><path d="M251.18,296.01s7.5,11.23,9.32,14.21c1.82,2.98,6.03,2.6,4.47-2.73-1.56-5.33-6.6-11.71-6.6-11.71" style="fill: none; stroke: #263238; stroke-miterlimit: 10;"></path><line x1="262.78" y1="321.68" x2="276.05" y2="318.44" style="fill: none; stroke: #263238; stroke-miterlimit: 10;"></line><line x1="262.96" y1="293.68" x2="273.74" y2="312.58" style="fill: none; stroke: #263238; stroke-miterlimit: 10;"></line><line x1="277.71" y1="320.46" x2="286.67" y2="340.33" style="fill: none; stroke: #263238; stroke-miterlimit: 10;"></line><path d="M290.92,361.62h0c2.11-3.44,7.04-4.25,11.01-1.81,3.97,2.44,5.48,7.2,3.37,10.63-.18,.3-.39,.58-.62,.84" style="fill: none; stroke: #263238; stroke-miterlimit: 10;"></path><path d="M170.8,206.33s-7.89,2-9.98,14.86,5.89,25,20.54,37.65" style="fill: none; stroke: #263238; stroke-miterlimit: 10;"></path></g><g><path d="M192.93,164.27s-10.39,2.24-11.39,2.41c-1,.17-30.63,7.67-32.17,8.35-1.53,.67-11.2,17.77-8.79,19.83,2.41,2.06,29.09-3.2,29.09-3.2l3.03,11.55,62.88,1.48s7.14,8.06,14.83,10.87c7.69,2.82,12.35-2.51,12.8-7.12s-1.59-8.18-3.37-10.14c-1.78-1.96-6.19-4.92-7-6.02-.8-1.1-7.5-5.32-9.75-10.09-2.25-4.77-2.46-8.44-7.95-12.87-5.49-4.42-14.88-5.1-14.88-5.1l-27.34,.05Z" style="fill:#fff; stroke: #263238; stroke-miterlimit: 10;"></path><path d="M232.64,189.73s2.91-5.27,5.47-5.7" style="fill: none; stroke: #263238; stroke-miterlimit: 10;"></path><path d="M237.94,189.7s3.72-2.51,6.46-1.85" style="fill: none; stroke: #263238; stroke-miterlimit: 10;"></path><path d="M169.68,191.65l7-1.34s2.6-6.84-.03-9.03" style="fill: none; stroke: #263238; stroke-miterlimit: 10;"></path><path d="M185.08,184.37s-3.52,8.13-8.15,9.67" style="fill: none; stroke: #263238; stroke-miterlimit: 10;"></path><path d="M152.06,182.82s1.96,2.68-.16,7.93" style="fill: none; stroke: #263238; stroke-miterlimit: 10;"></path><path d="M155.02,175.92s4.84,6.33,4.74,12.37" style="fill: none; stroke: #263238; stroke-miterlimit: 10;"></path></g><path d="M257.88,204.42c.64,3.76-1,5.19-5.38,5.93-4.38,.74-9.84,.53-10.48-3.24-.64-3.76,2.39-7.42,6.77-8.16,4.38-.74,8.45,1.71,9.09,5.47Z" style="fill:#263238; stroke: #263238; stroke-miterlimit: 10;"></path><g><path d="M175.02,217.26s-8.89,4.74-9.14,16.47c-.25,11.73,28.97,35.87,41.9,44.62,12.93,8.75,35.12,16.42,45.76,14.62s18.63-11.87,17.39-20.61c-1.24-8.74-40.41-47.61-40.41-47.61,0,0-6.37-.91-11.9-1.21-5.52-.31-43.59-6.28-43.59-6.28Z" style="fill:#263238; stroke: #263238; stroke-miterlimit: 10;"></path><path d="M219.3,231.62s-12.06,3.74-9.24,5.38c2.82,1.64,15.15-.46,10.98,2.37-4.17,2.82-12.94,6.01-12.94,6.01,0,0,24.59,12.75,22.06,15.3s-26.9-6.43-37.07-11.48c-10.17-5.04-18.96-12.01-15.46-11.34,3.5,.68,20.46,8.37,18.11,2s-24.16-8.8-18.42-15.59c5.73-6.79,35.24-.7,41.31-.72,6.07-.02,.68,8.08,.68,8.08Z" style="fill:#454545;"></path><path d="M260.4,268.92s6.05,15.14-14.06,15.32c-20.11,.18-64.11-31.89-70.59-40.74s-1.19-18.7-1.19-18.7c0,0-6.23,3.2-5.52,12.39,.71,9.19,33.72,39.13,51.92,46.62,18.2,7.49,29.45,8.96,40.06,1.66,10.61-7.3-.62-16.55-.62-16.55Z" style="fill:#454545;"></path><path d="M234.46,236.26s20.64,27.83,22.32,36.25c1.68,8.42-13.25,5.48-21.8,3.45,0,0,12.86,4.12,13.86-4.94,1-9.06-14.38-34.77-14.38-34.77Z" style="fill:#454545;"></path></g><g><path d="M181.54,166.67s4.65,4.36,7.01,9.73,3.01,11.65-.05,15.46-7.46,7.03-10.66,7.58c-3.2,.54-6.84,.96-6.84,.96,0,0,1.16,6.81,2.04,12.02,.88,5.21,4.28,11.84,4.28,11.84,0,0,5.79,4.99,19.85,5.28,14.06,.29,27.98-1.45,31.58-3.3s5.46-5.46,6.25-9.3c.79-3.84-1.39-17.89-2.35-27.21-.96-9.31-5.03-17.48-6.81-20.68s-3.39-5.4-3.39-5.4l-2.17,.57s-.21,8.48-.16,12.39-1.48,7.05-1.48,7.05l-16.5-1.32s-4.87-8.03-7.85-12.26c-2.98-4.23-5.09-5.73-5.09-5.73,0,0-6.84,.96-7.64,2.33Z" style="fill:#263238; stroke: #263238; stroke-miterlimit: 10;"></path><path d="M195.89,191.82l-13.48,11.14s1.92,11.32,3.44,14.79c1.52,3.47,7.56,3.38,7.56,3.38l17.59-.66-7.72-7.07-12.61-.19-1.91-8.53,6.19-1.98-.09-3.25,1.03-7.63Z" style="fill:#92E3A9; stroke: #263238; stroke-miterlimit: 10;"></path><path d="M184.42,167.6s5.72,8.82,7.07,11.48l6.78-.71s-6.12-9.86-8.12-12.42l-5.73,1.64Z" style="fill:#92E3A9; stroke: #263238; stroke-miterlimit: 10;"></path><path d="M220.63,168.58s1.17,5.59,1.57,7.97c.4,2.38,.56,5.91,.56,5.91l7.32,1.2s-2.4-6.27-3.82-10.7c-1.42-4.43-2.04-5.44-2.04-5.44l-3.6,1.06Z" style="fill:#92E3A9; stroke: #263238; stroke-miterlimit: 10;"></path><path d="M230.92,208.04l-3.98,6.32-1.05,4.34s8.42-2.92,8.84-5.66c.43-2.75-1.18-8.71-3.82-5Z" style="fill:#92E3A9; stroke: #263238; stroke-miterlimit: 10;"></path><path d="M224.71,194.53l-1.13,3.03-2.81-.51,.22-3.45c-3.81-.77-9.28-1.35-15.06-.22l1.28,4h-2.97l-1.68-3.14c-1.52,.48-3.04,1.09-4.55,1.88l8.66,18.1,17.14-.58,2.44-18.58s-.56-.22-1.55-.52Z" style="fill:#92E3A9; stroke: #263238; stroke-miterlimit: 10;"></path></g><path d="M192.33,151.08s.25,12.1,.6,13.19c.35,1.09,16.42,13.62,19.06,14.65,2.64,1.03,4.28,1.08,5.53-1.27,1.24-2.34,1.65-7.66,1.65-7.66l-8.27-.4-8-8.49-1.35-15.69-9.21,5.67Z" style="fill:#263238; stroke: #263238; stroke-miterlimit: 10;"></path><g><path d="M200.84,148.98s-.57,14.04,1.01,16.56c1.58,2.52,8.11,8.14,10.56,8.05,2.45-.09,4.89-.17,6.77-3.61,1.88-3.44,4.55-7.99,4.83-11.16s-.28-4.55-.2-5.05c.08-.51,1.34-4.66-.13-8.51-1.47-3.85-12.8-2.91-17-1.54-4.2,1.37-4.35,3.36-5.83,5.26Z" style="fill:#fff; stroke: #263238; stroke-miterlimit: 10;"></path><path d="M219.86,152.81s-1.56,1.41-1.24,2.34c.32,.93,2.22,5.37,1.08,6.38-1.14,1.01-3.32-.26-3.32-.26" style="fill: none; stroke: #263238; stroke-miterlimit: 10;"></path><path d="M217.72,165.31s-4.36-.57-6.66-3.46" style="fill: none; stroke: #263238; stroke-miterlimit: 10;"></path><path d="M213.74,155.54c-.06,.8-.51,1.42-1,1.38s-.84-.72-.78-1.52c.06-.8,.51-1.42,1-1.38,.49,.04,.84,.72,.78,1.52Z" style="fill:#263238;"></path><path d="M222.46,155.21c-.06,.8-.51,1.42-1,1.38-.49-.04-.84-.72-.78-1.52,.06-.8,.51-1.42,1-1.38,.49,.04,.84,.72,.78,1.52Z" style="fill:#263238;"></path><path d="M210.18,152.81s1.56-2.4,4.99-1.5" style="fill: none; stroke: #263238; stroke-miterlimit: 10;"></path><path d="M221.11,151.45s1.38-1.55,2.77-.14" style="fill: none; stroke: #263238; stroke-miterlimit: 10;"></path></g><path d="M191.52,145.31s.07,5.24,.82,5.77c.75,.53,3.57,1.69,5.21,.76,1.65-.94,3.29-2.86,3.29-2.86l21.88-2.57s.35,1.09,1.36,1.25,1.51-1.73,1.16-3.81-2.23-7.33-7.45-11.04c-5.22-3.71-14.79-3.07-20.21,.81-5.41,3.87-6.2,7.94-6.05,11.69Z" style="fill:#92E3A9; stroke: #263238; stroke-miterlimit: 10;"></path><path d="M203.07,148.6s.61,18.11,1.44,19.12c.83,1.01,2.72,2.49,2.72,2.49,0,0-2.23-15.04-2.26-17.17-.03-2.13,.09-4.28,.09-4.28l-1.99-.15Z" style="fill:#263238; stroke: #263238; stroke-miterlimit: 10;"></path><g><path d="M145.13,164.42s-11.83,10.14-14.6,17.3c-2.77,7.16,1.98,15.44,7.69,15.27,5.71-.17,10.45-11.66,11.12-12.41,.67-.75,3.68-3.65,4.09-5.95,.41-2.3-1.92-2.8-1.92-2.8l2.46-5.26-8.85-6.15Z" style="fill:#fff; stroke: #263238; stroke-miterlimit: 10;"></path><path d="M145.13,164.42s-3.01,2.58-6.35,6.06c2.56,2.87,5.14,5.57,12.75,5.35-.09-1.95,1.51-3.35,1.51-3.35l.95-1.91-8.85-6.15Z" style="fill:#263238; stroke: #263238; stroke-miterlimit: 10;"></path></g><g><path d="M111.01,144.73s-1.46-8.4-8.73-14.58c-7.26-6.19-42.74-18.85-49.47-18.53s-12.73,9.85-13.66,16.06,5.01,12.89,13.88,15.23c8.87,2.34,31.28,7.88,39.28,8.44,8,.56,16.31-.87,18.68-6.62Z" style="fill:#92E3A9; stroke: #263238; stroke-miterlimit: 10;"></path><path d="M280.99,211.1s6.75-5.27,18.41-4.01c9.33,1,38.81,14.84,45.17,19.94,6.91,5.54,2.86,13.94-3.61,19.76-6.47,5.82-18.15,3.83-29.47-2.21-18.05-9.62-32.05-29.48-32.05-29.48l1.56-4Z" style="fill:#92E3A9; stroke: #263238; stroke-miterlimit: 10;"></path><g><path d="M239.65,200s-2.53,1.76-1.45,3.24,3.14,4.14,3.76,2.52c.61-1.62-1.1-5.47-1.1-5.47l-1.21-.29Z" style="fill:#fff; stroke: #263238; stroke-miterlimit: 10;"></path><path d="M341.24,236.79c-.6,1.54-2.34,2.3-3.88,1.68l-57.94-23.37L110.38,149.49l-56.24-20.86c-1.59-.59-2.4-2.37-1.78-3.96h0c.62-1.59,2.41-2.36,3.98-1.72l54.74,22.21,169.9,65.94,58.53,21.84c1.55,.58,2.33,2.31,1.73,3.85h0Z" style="fill:#263238; stroke: #263238; stroke-miterlimit: 10;"></path><path d="M275.76,209.07l-1.7,3.95,5.36,2.08,57.94,23.37c1.53,.62,3.28-.14,3.88-1.68h0c.6-1.54-.18-3.27-1.73-3.85l-58.53-21.84-5.22-2.03Z" style="fill:#92E3A9; stroke: #263238; stroke-miterlimit: 10;"></path><path d="M111.09,145.16l-54.74-22.21c-1.58-.64-3.37,.14-3.98,1.72h0c-.61,1.58,.19,3.37,1.78,3.96l56.24,20.86,3.64,1.41,2.01-3.83-4.95-1.92Z" style="fill:#92E3A9; stroke: #263238; stroke-miterlimit: 10;"></path></g></g><g><path d="M145.11,155.97s-2.32,6.99-1.61,7.48c.7,.5,4.16,6.3,6.63,7.53,2.47,1.23,4.64,.65,5.91-.39,1.27-1.04,1.66-2.34,1.66-2.34l-1.55-3.03,1.39-2.13c.35-.53,.24-1.24-.27-1.63-.36-.28-.81-.57-1.27-.75-1.1-.43-.78-.32-1.78-1.38s-2.6-2.61-4.81-3.47c-2.21-.86-3.44-.86-4.31,.11Z" style="fill:#fff; stroke: #263238; stroke-miterlimit: 10;"></path><path d="M154.91,160.28s-1.74,2.68-2.06,3.25c-.32,.58-.32,1.2-.32,1.2" style="fill: none; stroke: #263238; stroke-miterlimit: 10;"></path><path d="M152.38,158.28s-2.89,2.69-3.07,3.45c-.18,.76,.21,1.85,.21,1.85" style="fill: none; stroke: #263238; stroke-miterlimit: 10;"></path><path d="M148.76,156.07s-2.68,4.53-2.71,5.58c-.03,1.05,.58,1.57,.58,1.57" style="fill: none; stroke: #263238; stroke-miterlimit: 10;"></path></g><g><path d="M258.92,201.85s-1.84-3.35-3.09-4.1c-1.24-.75-7.89-3.28-9.93-3.1-2.04,.19-3.74,1.43-4.2,3.42-.46,1.99-.35,4.52,.87,6.07,1.22,1.55,3.6,2.42,5.48,2.26,1.89-.16,3.72-1.59,3.72-1.59,0,0,2.6-2.51,3.51-2.83,.9-.31,3.64-.14,3.64-.14Z" style="fill:#fff; stroke: #263238; stroke-miterlimit: 10;"></path><path d="M249.14,206.22s-.68-2.12-.71-3.23c-.03-1.11,3.99-4.66,4.79-4.64" style="fill: none; stroke: #263238; stroke-miterlimit: 10;"></path><path d="M245.63,206.18s-1.51-3.25-.76-4.49c.75-1.24,3.91-4.17,4.97-4.51" style="fill: none; stroke: #263238; stroke-miterlimit: 10;"></path><path d="M242.57,204.14s-.3-3.62,.61-4.88c.9-1.27,2.42-2.64,2.42-2.64" style="fill: none; stroke: #263238; stroke-miterlimit: 10;"></path></g></g></g></g><g id="foam-1"><g><g><path d="M66.91,326.89c8.62,6.6,16.67,14.25,24.19,22.66,8.27,9.25,25.15,24.37,57.65,41.68,53.79,28.66,126.99,32.08,160.15,23.38,48.9-12.82,42.18-12.82,64.79-15.84,22.62-3.02,31.17,3.02,33.01,0,1.83-3.02,0-18.1-14.06-18.1s-29.34,5.28-29.34,5.28c0,0,17.11-13.58,28.73-15.09,11.61-1.51-3.67-18.1-17.11-13.58-13.45,4.53-28.12,22.63-39.73,34.7-11.61,12.07,2.44-10.56,1.83-23.38-.61-12.82-11.61-14.33-29.34,3.77-17.73,18.1-45.84,36.21-50.12,33.94-4.28-2.26,31.78-37.71,17.11-34.7-14.67,3.02-25.06,18.1-38.51,19.61-13.45,1.51,17.11-44.5,4.89-50.54-12.22-6.03-18.95,5.28-31.17,11.31-12.22,6.03,11-20.37-1.22-21.87-12.22-1.51-6.72,9.05-32.4,14.33-25.67,5.28-1.83-15.09-11.61-25.65-9.78-10.56-29.34,9.05-39.73,12.07-10.39,3.02,16.5-12.82,12.22-22.63-4.28-9.81-22,5.28-39.12,8.3-17.11,3.02-49.51-3.77-49.51-3.77l18.41,14.1Z" style="fill:#fff; stroke: #263238; stroke-miterlimit: 10;"></path><path d="M66.91,326.89s22.54,20.6,37.83,19.09c15.28-1.51,39.73-7.54,35.45,3.77s-14.67,18.1-.61,15.09c14.06-3.02,25.67-3.77,23.23,6.79s8.56,1.51,34.84-.75c26.28-2.26,15.28,15.84,11,24.89-4.28,9.05-2.44,3.02,23.84-14.33,26.28-17.35,33.62,0,22,14.33-11.61,14.33-5.5,29.42,9.17,15.84,14.67-13.58,26.26-29.24,26.88-16.51,.62,12.74-9.77,18.77,5.51,8.96,15.28-9.81,50.12-24.14,43.4-11.31-6.72,12.82-18.95,17.35-30.56,21.87-11.61,4.53,30.56-9.05,42.18-11.31,11.61-2.26,9.17,4.53,9.17,9.05s9.78-2.26,9.78-2.26c0,0,10.39-3.02,11,2.26s-6.72,8.3,6.11,3.77c12.84-4.53,16.5-3.77,18.95,2.26s7.33,9.81,11.61,9.05-12.84,5.28-43.4,7.54c-30.56,2.26-69.68-.75-69.68-.75,0,0,40.34,10.56,55.01,12.07,14.67,1.51,33.62,6.03,33.62,6.03,0,0-124.69,8.3-201.71-28.66l-77.02-36.96s55.01,33.19,63.57,36.96c8.56,3.77-55.62-17.35-99.02-52.05-29.17-23.32-64.18-64.87-50.73-55.06,13.45,9.81,26.89,20.37,26.89,20.37,0,0-43.4-46.77-30.56-39.22,12.84,7.54,42.25,29.19,42.25,29.19Z" style="fill:#fff; stroke: #263238; stroke-miterlimit: 10;"></path></g><g><path d="M281.99,285.64c0,2.08-2.05,3.77-4.58,3.77s-4.58-1.69-4.58-3.77,2.05-3.77,4.58-3.77,4.58,1.69,4.58,3.77Z" style="fill:#fff; stroke: #263238; stroke-miterlimit: 10;"></path><circle cx="286.66" cy="310.34" r="2.83" style="fill:#fff; stroke: #263238; stroke-miterlimit: 10;"></circle><path d="M232.48,309.4c0,1.46-1.23,2.64-2.75,2.64s-2.75-1.18-2.75-2.64,1.23-2.64,2.75-2.64,2.75,1.18,2.75,2.64Z" style="fill:#fff; stroke: #263238; stroke-miterlimit: 10;"></path><path d="M268.55,365.59c0,2.5-1.78,4.53-3.97,4.53s-3.97-2.03-3.97-4.53,1.78-4.53,3.97-4.53,3.97,2.03,3.97,4.53Z" style="fill:#fff; stroke: #263238; stroke-miterlimit: 10;"></path><path d="M294.22,355.03c0,1.25-.96,2.26-2.14,2.26s-2.14-1.01-2.14-2.26,.96-2.26,2.14-2.26,2.14,1.01,2.14,2.26Z" style="fill:#fff; stroke: #263238; stroke-miterlimit: 10;"></path><path d="M301.55,339.19c0,2.92-2.46,5.28-5.5,5.28s-5.5-2.36-5.5-5.28,2.46-5.28,5.5-5.28,5.5,2.36,5.5,5.28Z" style="fill:#fff; stroke: #263238; stroke-miterlimit: 10;"></path><path d="M313.78,361.07c0,1.25-1.09,2.26-2.44,2.26s-2.44-1.01-2.44-2.26,1.09-2.26,2.44-2.26,2.44,1.01,2.44,2.26Z" style="fill:#fff; stroke: #263238; stroke-miterlimit: 10;"></path><ellipse cx="160.97" cy="297.71" rx="6.11" ry="6.79" style="fill:#fff; stroke: #263238; stroke-miterlimit: 10;"></ellipse><ellipse cx="179.61" cy="322.22" rx="5.2" ry="4.9" style="fill:#fff; stroke: #263238; stroke-miterlimit: 10;"></ellipse><ellipse cx="175.33" cy="278.1" rx="2.75" ry="3.02" style="fill:#fff; stroke: #263238; stroke-miterlimit: 10;"></ellipse><path d="M193.97,283.75c0,1.46-1.51,2.64-3.36,2.64s-3.36-1.18-3.36-2.64,1.51-2.64,3.36-2.64,3.36,1.18,3.36,2.64Z" style="fill:#fff; stroke: #263238; stroke-miterlimit: 10;"></path></g></g></g></svg>
