<svg xmlns="http://www.w3.org/2000/svg" viewBox="0 0 750 500"><g id="background-complete"><path d="M673.73,332.54H493a5.87,5.87,0,0,1-5.86-5.86V63.4A5.87,5.87,0,0,1,493,57.54H673.73a5.87,5.87,0,0,1,5.87,5.86V326.68A5.87,5.87,0,0,1,673.73,332.54ZM493,57.79a5.61,5.61,0,0,0-5.61,5.61V326.68a5.61,5.61,0,0,0,5.61,5.61H673.73a5.62,5.62,0,0,0,5.62-5.61V63.4a5.62,5.62,0,0,0-5.62-5.61Z" style="fill:#e0e0e0"></path><path d="M465.31,332.54H284.56a5.87,5.87,0,0,1-5.86-5.86V63.4a5.87,5.87,0,0,1,5.86-5.86H465.31a5.87,5.87,0,0,1,5.86,5.86V326.68A5.87,5.87,0,0,1,465.31,332.54ZM284.56,57.79A5.62,5.62,0,0,0,279,63.4V326.68a5.62,5.62,0,0,0,5.61,5.61H465.31a5.62,5.62,0,0,0,5.61-5.61V63.4a5.62,5.62,0,0,0-5.61-5.61Z" style="fill:#e0e0e0"></path><path d="M257,332.54H76.27a5.87,5.87,0,0,1-5.87-5.86V63.4a5.87,5.87,0,0,1,5.87-5.86H257a5.87,5.87,0,0,1,5.86,5.86V326.68A5.87,5.87,0,0,1,257,332.54ZM76.27,57.79a5.62,5.62,0,0,0-5.62,5.61V326.68a5.62,5.62,0,0,0,5.62,5.61H257a5.61,5.61,0,0,0,5.61-5.61V63.4A5.61,5.61,0,0,0,257,57.79Z" style="fill:#e0e0e0"></path><rect y="393.61" width="750" height="0.12" style="fill:#e0e0e0"></rect><rect x="653.63" y="422.98" width="55.73" height="0.42" style="fill:#ebebeb"></rect><rect x="495.04" y="427.55" width="14.63" height="0.42" style="fill:#ebebeb"></rect><rect x="40.64" y="410.19" width="72.67" height="0.42" style="fill:#ebebeb"></rect><rect x="128.3" y="410.19" width="10.66" height="0.42" style="fill:#ebebeb"></rect><rect x="173.59" y="417.29" width="157.61" height="0.42" style="fill:#ebebeb"></rect><circle cx="469.79" cy="100.38" r="37.33" transform="translate(-8.79 58.69) rotate(-7.08)" style="fill:#fafafa"></circle><path d="M436.61,81.68a10.24,10.24,0,0,0-13.18-9.81A21.69,21.69,0,0,0,398,47.41,19,19,0,0,0,362.83,57l-.32,0a17.47,17.47,0,1,0,0,34.94h64.15A10.24,10.24,0,0,0,436.61,81.68Z" style="fill:#f0f0f0"></path><path d="M238.3,231.58a6.53,6.53,0,0,0-8.42-6.26,13.4,13.4,0,0,0,.15-2,13.85,13.85,0,0,0-13.85-13.85,14.31,14.31,0,0,0-2.55.24,12.1,12.1,0,0,0-22.44,6.12H191a11.16,11.16,0,0,0,0,22.31h41A6.53,6.53,0,0,0,238.3,231.58Z" style="fill:#f0f0f0"></path><path d="M552,112.21a6.53,6.53,0,0,0-6.54-6.53,6.43,6.43,0,0,0-1.88.27,14.62,14.62,0,0,0,.15-2A13.85,13.85,0,0,0,529.88,90.1a13.44,13.44,0,0,0-2.55.24,12.1,12.1,0,0,0-22.44,6.11h-.21a11.16,11.16,0,0,0,0,22.31h41A6.53,6.53,0,0,0,552,112.21Z" style="fill:#f0f0f0"></path><path d="M604.57,71.59a4,4,0,0,0-4-4,4,4,0,0,0-1.15.17,10.18,10.18,0,0,0,.09-1.23A8.49,8.49,0,0,0,591,58a9,9,0,0,0-1.56.15,7.42,7.42,0,0,0-13.75,3.75h-.12a6.84,6.84,0,0,0,0,13.67h25.09A4,4,0,0,0,604.57,71.59Z" style="fill:#f0f0f0"></path><path d="M219.36,67.85A3,3,0,0,0,215.54,65a6.84,6.84,0,0,0,.06-.91,6.27,6.27,0,0,0-7.44-6.18A5.5,5.5,0,0,0,198,60.7h-.09a5.07,5.07,0,0,0,0,10.13h18.6A3,3,0,0,0,219.36,67.85Z" style="fill:#f0f0f0"></path><path d="M452.74,167.81a3,3,0,0,0-3-3,2.7,2.7,0,0,0-.85.13,7,7,0,0,0,.07-.92,6.28,6.28,0,0,0-7.45-6.18,5.5,5.5,0,0,0-10.19,2.78h-.09a5.07,5.07,0,1,0,0,10.13h18.6A3,3,0,0,0,452.74,167.81Z" style="fill:#f0f0f0"></path><path d="M400.32,274.48a8.07,8.07,0,0,0,.24-1.58c.19-3.28,3.32-2.76,6-3.21,2.08-.34-3.42-5.6.77-7.29a3.7,3.7,0,0,0,2-1.41,2.38,2.38,0,0,0-.91-2.91,5.63,5.63,0,0,0-3.18-.8c-.69-.83-.13-2.08.53-2.93s1.47-1.81,1.22-2.86c-.38-1.58-2.59-1.64-4.18-1.33a11.68,11.68,0,0,1-.87-3.23c-.28-1.09-1.15-2.23-2.26-2.09s-1.69,1.31-2.72,1.55c-1.2.28-2.23-.77-3.17-1.57s-2.58-1.28-3.22-.24c-.39.63-.16,1.5-.56,2.11-.7,1.07-2.35.41-3.37-.35s-2.66-1.44-3.38-.39a4.51,4.51,0,0,0-.4,1.1c-.49,1.4-2,2.09-3.18,3s-2.11,2.68-1.11,3.78c.49.54,1.35.76,1.6,1.45.3.86-.58,1.63-1.27,2.22-1.16,1-1.37,3.94.16,4.74.64.34,1.59.44,1.75,1.15s-.51,1.13-.93,1.62a3,3,0,0,0,.93,4.53c.37.18.82.32.95.71a1.47,1.47,0,0,1-.08.85,4.54,4.54,0,0,0-.15,1.64.73.73,0,0,0,.2.52.8.8,0,0,0,.48.14c2.21.09,3.28-.69,4.63,1.24a1.79,1.79,0,0,0,.46.49,1.61,1.61,0,0,0,.61.15c1.52.12,2.52-.83,3.91-1,1.92-.25,2.33.74,4,1.54C398.52,277.07,399.82,276.3,400.32,274.48Z" style="fill:#e0e0e0"></path><path d="M374.85,271.72a7.84,7.84,0,0,0,.24-1.58c.19-3.27,3.32-2.75,6-3.2,2.08-.35-3.43-5.6.77-7.29a3.7,3.7,0,0,0,2-1.41,2.39,2.39,0,0,0-.91-2.91,5.67,5.67,0,0,0-3.19-.8c-.68-.83-.12-2.08.54-2.93s1.47-1.82,1.22-2.86c-.38-1.58-2.59-1.64-4.18-1.33a11.66,11.66,0,0,1-.87-3.24c-.29-1.08-1.15-2.22-2.26-2.09s-1.69,1.32-2.72,1.56c-1.2.28-2.23-.78-3.17-1.57s-2.58-1.29-3.22-.24c-.39.62-.16,1.49-.56,2.11-.7,1.07-2.35.41-3.38-.35s-2.65-1.44-3.38-.39a4,4,0,0,0-.39,1.09c-.49,1.4-2,2.1-3.18,3s-2.11,2.68-1.12,3.78c.5.54,1.36.76,1.61,1.45.3.86-.58,1.63-1.27,2.22-1.16,1-1.37,3.93.16,4.74.64.34,1.59.44,1.74,1.15s-.5,1.13-.93,1.62a3,3,0,0,0,.94,4.53c.36.18.81.32,1,.7a1.43,1.43,0,0,1-.09.86,4.32,4.32,0,0,0-.14,1.64.71.71,0,0,0,.2.52.73.73,0,0,0,.48.13c2.21.1,3.28-.68,4.63,1.24a1.55,1.55,0,0,0,.46.49,1.28,1.28,0,0,0,.61.15c1.52.13,2.51-.82,3.9-1,1.93-.24,2.34.75,4,1.55C373.05,274.32,374.35,273.54,374.85,271.72Z" style="fill:#e0e0e0"></path><path d="M372.39,255.5a7.19,7.19,0,0,0,.24-1.58c.2-3.28,3.32-2.76,6-3.2,2.08-.35-3.43-5.6.76-7.3a3.68,3.68,0,0,0,2-1.41,2.38,2.38,0,0,0-.92-2.9,5.63,5.63,0,0,0-3.18-.8c-.68-.83-.13-2.08.53-2.93s1.48-1.82,1.22-2.86c-.37-1.58-2.58-1.64-4.18-1.33A11.31,11.31,0,0,1,374,228c-.29-1.08-1.15-2.22-2.27-2.09s-1.69,1.32-2.72,1.56c-1.19.28-2.23-.78-3.17-1.57s-2.57-1.29-3.22-.24c-.39.62-.15,1.49-.56,2.11-.69,1.07-2.34.4-3.37-.35s-2.66-1.45-3.38-.39a4.44,4.44,0,0,0-.4,1.09c-.48,1.4-2,2.1-3.17,3s-2.12,2.68-1.12,3.78c.49.54,1.36.75,1.6,1.44.31.86-.57,1.64-1.27,2.23-1.16,1-1.37,3.93.17,4.74.64.34,1.58.44,1.74,1.15s-.5,1.13-.93,1.62a3,3,0,0,0,.93,4.53c.37.17.82.32,1,.7a1.51,1.51,0,0,1-.09.86,4.54,4.54,0,0,0-.15,1.64.75.75,0,0,0,.2.51.75.75,0,0,0,.49.14c2.21.1,3.27-.68,4.62,1.24a1.47,1.47,0,0,0,.47.49,1.28,1.28,0,0,0,.61.15c1.52.13,2.51-.82,3.9-1,1.93-.24,2.34.75,4,1.55C370.6,258.1,371.89,257.32,372.39,255.5Z" style="fill:#e0e0e0"></path><path d="M355.61,263.58a7.19,7.19,0,0,0,.24-1.58c.2-3.28,3.33-2.76,6-3.2,2.08-.35-3.43-5.6.76-7.3a3.68,3.68,0,0,0,2-1.41,2.38,2.38,0,0,0-.92-2.9,5.61,5.61,0,0,0-3.18-.8c-.68-.83-.13-2.08.53-2.93s1.48-1.82,1.23-2.86c-.38-1.58-2.59-1.64-4.19-1.33a11.31,11.31,0,0,1-.86-3.24c-.29-1.08-1.15-2.22-2.27-2.09s-1.69,1.32-2.72,1.56c-1.19.28-2.23-.78-3.17-1.57s-2.57-1.29-3.22-.24c-.39.62-.15,1.49-.56,2.11-.69,1.07-2.34.4-3.37-.35s-2.66-1.45-3.38-.39a4.44,4.44,0,0,0-.4,1.09c-.48,1.4-2,2.1-3.17,3s-2.12,2.68-1.12,3.78c.49.54,1.36.75,1.6,1.44.31.86-.57,1.64-1.27,2.23-1.16,1-1.37,3.93.17,4.74.64.34,1.58.44,1.74,1.15s-.5,1.13-.93,1.62a3,3,0,0,0,.93,4.53c.37.17.82.32,1,.7a1.51,1.51,0,0,1-.09.86,4.54,4.54,0,0,0-.15,1.64.75.75,0,0,0,.2.51.76.76,0,0,0,.49.14c2.21.1,3.28-.68,4.63,1.24a1.44,1.44,0,0,0,.46.49,1.28,1.28,0,0,0,.61.15c1.52.13,2.51-.82,3.9-1,1.93-.24,2.34.75,4,1.55C353.82,266.18,355.11,265.4,355.61,263.58Z" style="fill:#e0e0e0"></path><path d="M338.65,259.85a7.29,7.29,0,0,0,.24-1.58c.2-3.28,3.33-2.76,6-3.2,2.08-.35-3.43-5.6.76-7.3a3.68,3.68,0,0,0,2-1.41,2.38,2.38,0,0,0-.92-2.9,5.54,5.54,0,0,0-3.18-.8c-.68-.83-.13-2.09.54-2.93s1.47-1.82,1.22-2.87c-.38-1.58-2.59-1.63-4.19-1.33a11.24,11.24,0,0,1-.86-3.23c-.29-1.09-1.15-2.23-2.27-2.09s-1.69,1.31-2.72,1.56c-1.19.28-2.23-.78-3.16-1.57s-2.58-1.29-3.23-.25c-.38.63-.15,1.5-.55,2.12-.7,1.06-2.35.4-3.38-.36s-2.66-1.44-3.38-.39a4.67,4.67,0,0,0-.4,1.1c-.48,1.4-2,2.1-3.17,3s-2.12,2.69-1.12,3.78c.49.54,1.36.76,1.6,1.45.31.86-.57,1.63-1.27,2.23-1.15,1-1.36,3.93.17,4.74.64.33,1.58.44,1.74,1.15s-.5,1.12-.93,1.61a3.05,3.05,0,0,0,.93,4.54c.37.17.82.32,1,.7a1.43,1.43,0,0,1-.09.86,4.54,4.54,0,0,0-.15,1.64.75.75,0,0,0,.2.51.83.83,0,0,0,.49.14c2.21.1,3.28-.68,4.63,1.24a1.54,1.54,0,0,0,.46.49,1.41,1.41,0,0,0,.61.15c1.52.13,2.51-.82,3.9-1,1.93-.24,2.34.75,4,1.55C336.86,262.44,338.15,261.67,338.65,259.85Z" style="fill:#e0e0e0"></path><path d="M338.43,278a6.34,6.34,0,0,0,.19-1.24c.15-2.58,2.62-2.18,4.71-2.53,1.64-.27-2.69-4.41.61-5.74a2.92,2.92,0,0,0,1.59-1.11,1.88,1.88,0,0,0-.72-2.29,4.5,4.5,0,0,0-2.51-.63c-.53-.65-.1-1.64.43-2.31s1.15-1.42,1-2.25c-.3-1.24-2-1.29-3.3-1.05a9.34,9.34,0,0,1-.68-2.54c-.22-.86-.9-1.76-1.78-1.65s-1.33,1-2.14,1.23-1.76-.61-2.5-1.24-2-1-2.54-.19c-.3.49-.12,1.18-.43,1.66-.55.84-1.85.32-2.66-.27s-2.09-1.14-2.66-.31a3.15,3.15,0,0,0-.31.86c-.39,1.1-1.58,1.65-2.51,2.36s-1.66,2.11-.87,3c.38.42,1.06.59,1.26,1.14s-.46,1.28-1,1.75c-.92.77-1.08,3.09.13,3.73.5.27,1.24.35,1.37.91s-.4.88-.73,1.27a2.39,2.39,0,0,0,.73,3.57c.29.14.65.25.75.55a1.08,1.08,0,0,1-.07.68,3.72,3.72,0,0,0-.11,1.29.55.55,0,0,0,.15.4.6.6,0,0,0,.39.11c1.74.08,2.58-.54,3.64,1a1.31,1.31,0,0,0,.36.38,1,1,0,0,0,.48.12c1.2.1,2-.65,3.08-.78,1.52-.2,1.84.58,3.17,1.21C337,280,338,279.42,338.43,278Z" style="fill:#e0e0e0"></path><path d="M328.93,271.72a7.19,7.19,0,0,0,.24-1.58c.19-3.27,3.32-2.75,6-3.2,2.08-.35-3.42-5.6.77-7.29a3.67,3.67,0,0,0,2-1.41,2.38,2.38,0,0,0-.91-2.91,5.63,5.63,0,0,0-3.18-.8c-.69-.83-.13-2.08.53-2.93s1.47-1.82,1.22-2.86c-.38-1.58-2.58-1.64-4.18-1.33a11.31,11.31,0,0,1-.86-3.24c-.29-1.08-1.15-2.22-2.27-2.09s-1.69,1.32-2.72,1.56c-1.19.28-2.23-.78-3.17-1.57s-2.57-1.29-3.22-.24c-.39.62-.16,1.49-.56,2.11-.69,1.07-2.35.41-3.37-.35s-2.66-1.44-3.38-.39a4.44,4.44,0,0,0-.4,1.09c-.48,1.4-2,2.1-3.18,3s-2.11,2.68-1.11,3.78c.49.54,1.36.76,1.6,1.45.31.86-.57,1.63-1.27,2.22-1.16,1-1.37,3.93.16,4.74.65.34,1.59.44,1.75,1.15s-.5,1.13-.93,1.62a3,3,0,0,0,.93,4.53c.37.18.82.32,1,.7a1.51,1.51,0,0,1-.09.86,4.54,4.54,0,0,0-.15,1.64.8.8,0,0,0,.2.52.74.74,0,0,0,.49.13c2.21.1,3.27-.68,4.62,1.24a1.55,1.55,0,0,0,.46.49,1.31,1.31,0,0,0,.61.15c1.53.13,2.52-.82,3.91-1,1.93-.24,2.33.75,4,1.55C327.13,274.32,328.43,273.54,328.93,271.72Z" style="fill:#e0e0e0"></path><path d="M355.61,243.63a7.39,7.39,0,0,0,.24-1.58c.2-3.28,3.33-2.76,6-3.2,2.08-.35-3.43-5.6.76-7.3a3.68,3.68,0,0,0,2-1.41,2.4,2.4,0,0,0-.92-2.91,5.61,5.61,0,0,0-3.18-.79c-.68-.84-.13-2.09.53-2.94s1.48-1.81,1.23-2.86c-.38-1.58-2.59-1.63-4.19-1.33a11.24,11.24,0,0,1-.86-3.23C357,215,356.09,213.85,355,214s-1.69,1.31-2.72,1.55c-1.19.29-2.23-.77-3.17-1.56s-2.57-1.29-3.22-.25c-.39.63-.15,1.5-.56,2.11-.69,1.07-2.34.41-3.37-.35s-2.66-1.44-3.38-.39a4.51,4.51,0,0,0-.4,1.1c-.48,1.4-2,2.09-3.17,3s-2.12,2.69-1.12,3.78c.49.54,1.36.76,1.6,1.45.31.86-.57,1.63-1.27,2.22-1.16,1-1.37,3.94.17,4.74.64.34,1.58.45,1.74,1.16s-.5,1.12-.93,1.61a3,3,0,0,0,.93,4.53c.37.18.82.32,1,.71a1.48,1.48,0,0,1-.09.85,4.61,4.61,0,0,0-.15,1.65.77.77,0,0,0,.2.51.83.83,0,0,0,.49.14c2.21.1,3.28-.69,4.63,1.24a1.65,1.65,0,0,0,.46.49,1.57,1.57,0,0,0,.61.15c1.52.13,2.51-.82,3.9-1,1.93-.25,2.34.75,4,1.55C353.82,246.22,355.11,245.45,355.61,243.63Z" style="fill:#e0e0e0"></path><path d="M377.4,244.74a7.84,7.84,0,0,0,.24-1.58c.19-3.28,3.32-2.76,6-3.2,2.08-.35-3.42-5.6.77-7.3a3.65,3.65,0,0,0,2-1.41,2.37,2.37,0,0,0-.91-2.9,5.63,5.63,0,0,0-3.18-.8c-.69-.83-.13-2.08.53-2.93s1.47-1.82,1.22-2.86c-.38-1.58-2.59-1.64-4.18-1.33a11.66,11.66,0,0,1-.87-3.24c-.28-1.08-1.15-2.22-2.26-2.09s-1.69,1.32-2.72,1.56c-1.2.28-2.23-.78-3.17-1.57s-2.58-1.29-3.22-.24c-.39.62-.16,1.49-.56,2.11-.7,1.07-2.35.4-3.37-.35s-2.66-1.45-3.38-.39a4.07,4.07,0,0,0-.4,1.09c-.49,1.4-2,2.1-3.18,3s-2.11,2.68-1.11,3.78c.49.54,1.35.76,1.6,1.44.3.86-.58,1.64-1.27,2.23-1.16,1-1.37,3.93.16,4.74.64.34,1.59.44,1.75,1.15s-.51,1.13-.94,1.62a3,3,0,0,0,.94,4.53c.36.17.82.32.95.7a1.43,1.43,0,0,1-.09.86,4.76,4.76,0,0,0-.14,1.64.75.75,0,0,0,.2.52.79.79,0,0,0,.48.13c2.21.1,3.28-.68,4.63,1.24a1.55,1.55,0,0,0,.46.49,1.28,1.28,0,0,0,.61.15c1.52.13,2.52-.82,3.91-1,1.92-.24,2.33.75,4,1.55C375.6,247.34,376.9,246.56,377.4,244.74Z" style="fill:#e0e0e0"></path><path d="M390.63,253.66a7.39,7.39,0,0,0,.24-1.58c.2-3.28,3.32-2.76,6-3.21,2.07-.34-3.43-5.6.76-7.29a3.62,3.62,0,0,0,2-1.41,2.38,2.38,0,0,0-.91-2.91,5.63,5.63,0,0,0-3.18-.79c-.69-.84-.13-2.09.53-2.94s1.47-1.81,1.22-2.86c-.38-1.58-2.58-1.64-4.18-1.33a11.24,11.24,0,0,1-.86-3.23C392,225,391.11,223.88,390,224s-1.69,1.31-2.72,1.55c-1.19.29-2.23-.77-3.17-1.56s-2.57-1.29-3.22-.25c-.39.63-.16,1.5-.56,2.11-.69,1.07-2.35.41-3.37-.35s-2.66-1.44-3.38-.39a4.51,4.51,0,0,0-.4,1.1c-.48,1.4-2,2.09-3.18,3s-2.11,2.69-1.11,3.78c.49.54,1.36.76,1.6,1.45.31.86-.57,1.63-1.27,2.22-1.16,1-1.37,3.94.16,4.74.65.34,1.59.45,1.75,1.16s-.5,1.12-.93,1.61a3,3,0,0,0,.93,4.53c.37.18.82.32,1,.71a1.48,1.48,0,0,1-.09.85,4.61,4.61,0,0,0-.15,1.65.77.77,0,0,0,.2.51.81.81,0,0,0,.49.14c2.21.1,3.27-.69,4.62,1.24a1.79,1.79,0,0,0,.46.49,1.61,1.61,0,0,0,.62.15c1.52.12,2.51-.82,3.9-1,1.93-.25,2.33.75,4,1.55C388.83,256.25,390.13,255.48,390.63,253.66Z" style="fill:#e0e0e0"></path><path d="M386.62,264.93s-5.53,7.82-7.44,10.3-11.45,17.94-12.75,28.16c-.14,1.09-.28,2-.41,2.85,4.1,27.09,3.46,76.65,3.32,85.14h-13c-.12-9.57-1.22-97-1.63-99.7-.43-2.83-5.86-13.59-14.26-18s-15.65-19.05-15.65-19.05h2.67s5,9,12,13.93a27.06,27.06,0,0,0,3.18,1.88,45.11,45.11,0,0,1,2.81-15.81l1.44,1.34c-2,8-1.69,13.1-1.1,16a28.93,28.93,0,0,1,7.3,4.89c7.32-9.53,11.44-31.31,11.44-31.31l1.88,1A111.16,111.16,0,0,1,364,260c-1.37,5.64-5.41,16.26-7.29,21.07a50,50,0,0,1,5.53,10.39,4.51,4.51,0,0,1,.71-.85c4.77-4.31,13.74-24.69,13.74-24.69,2.17-4.74-1.15-17.18-1.15-17.18h2.51l1.12,10.88,6.29-6.87,1.15,1-6.68,8.58-3.43,10.88,9-9.92Z" style="fill:#e0e0e0"></path><path d="M705.56,274.48a8.1,8.1,0,0,0,.23-1.58c.2-3.28,3.33-2.76,6-3.21,2.08-.34-3.43-5.6.77-7.29a3.74,3.74,0,0,0,2-1.41,2.39,2.39,0,0,0-.91-2.91,5.67,5.67,0,0,0-3.19-.8c-.68-.83-.13-2.08.54-2.93s1.47-1.81,1.22-2.86c-.38-1.58-2.59-1.64-4.19-1.33a11.67,11.67,0,0,1-.86-3.23c-.29-1.09-1.15-2.23-2.26-2.09s-1.69,1.31-2.72,1.55c-1.2.28-2.23-.77-3.17-1.57s-2.58-1.28-3.23-.24c-.38.63-.15,1.5-.55,2.11-.7,1.07-2.35.41-3.38-.35s-2.66-1.44-3.38-.39a4.11,4.11,0,0,0-.39,1.1c-.49,1.4-2,2.09-3.18,3s-2.11,2.68-1.12,3.78c.5.54,1.36.76,1.61,1.45.3.86-.58,1.63-1.27,2.22-1.16,1-1.37,3.94.16,4.74.64.34,1.58.44,1.74,1.15s-.5,1.13-.93,1.62a3.05,3.05,0,0,0,.93,4.53c.37.18.82.32,1,.71a1.4,1.4,0,0,1-.09.85,4.54,4.54,0,0,0-.15,1.64.78.78,0,0,0,.2.52.83.83,0,0,0,.49.14c2.21.09,3.28-.69,4.63,1.24a1.65,1.65,0,0,0,.46.49,1.57,1.57,0,0,0,.61.15c1.52.12,2.51-.83,3.9-1,1.93-.25,2.34.74,4,1.54C703.76,277.07,705.05,276.3,705.56,274.48Z" style="fill:#e0e0e0"></path><path d="M680.08,271.72a7.19,7.19,0,0,0,.24-1.58c.2-3.27,3.33-2.75,6-3.2,2.08-.35-3.43-5.6.76-7.29a3.73,3.73,0,0,0,2-1.41,2.39,2.39,0,0,0-.92-2.91,5.61,5.61,0,0,0-3.18-.8c-.68-.83-.13-2.08.53-2.93s1.48-1.82,1.23-2.86c-.38-1.58-2.59-1.64-4.19-1.33a11.31,11.31,0,0,1-.86-3.24c-.29-1.08-1.15-2.22-2.27-2.09s-1.69,1.32-2.72,1.56c-1.19.28-2.23-.78-3.16-1.57s-2.58-1.29-3.23-.24c-.38.62-.15,1.49-.56,2.11-.69,1.07-2.34.41-3.37-.35s-2.66-1.44-3.38-.39a4.44,4.44,0,0,0-.4,1.09c-.48,1.4-2,2.1-3.17,3s-2.12,2.68-1.12,3.78c.49.54,1.36.76,1.6,1.45.31.86-.57,1.63-1.27,2.22-1.15,1-1.36,3.93.17,4.74.64.34,1.58.44,1.74,1.15s-.5,1.13-.93,1.62a3,3,0,0,0,.93,4.53c.37.18.82.32,1,.7a1.43,1.43,0,0,1-.09.86,4.54,4.54,0,0,0-.15,1.64.8.8,0,0,0,.2.52.76.76,0,0,0,.49.13c2.21.1,3.28-.68,4.63,1.24a1.44,1.44,0,0,0,.46.49,1.28,1.28,0,0,0,.61.15c1.52.13,2.51-.82,3.9-1,1.93-.24,2.34.75,4,1.55C678.29,274.32,679.58,273.54,680.08,271.72Z" style="fill:#e0e0e0"></path><path d="M677.63,255.5a7.84,7.84,0,0,0,.24-1.58c.19-3.28,3.32-2.76,6-3.2,2.08-.35-3.42-5.6.77-7.3a3.65,3.65,0,0,0,2-1.41,2.37,2.37,0,0,0-.91-2.9,5.63,5.63,0,0,0-3.18-.8c-.69-.83-.13-2.08.53-2.93s1.47-1.82,1.22-2.86c-.38-1.58-2.59-1.64-4.18-1.33a11.66,11.66,0,0,1-.87-3.24c-.28-1.08-1.15-2.22-2.26-2.09s-1.69,1.32-2.72,1.56c-1.2.28-2.23-.78-3.17-1.57s-2.58-1.29-3.22-.24c-.39.62-.16,1.49-.56,2.11-.7,1.07-2.35.4-3.37-.35s-2.66-1.45-3.38-.39a4.07,4.07,0,0,0-.4,1.09c-.49,1.4-2,2.1-3.18,3s-2.11,2.68-1.11,3.78c.49.54,1.35.75,1.6,1.44.3.86-.58,1.64-1.27,2.23-1.16,1-1.37,3.93.16,4.74.64.34,1.59.44,1.75,1.15s-.51,1.13-.93,1.62a3,3,0,0,0,.93,4.53c.36.17.82.32,1,.7a1.5,1.5,0,0,1-.08.86,4.54,4.54,0,0,0-.15,1.64.71.71,0,0,0,.2.51.74.74,0,0,0,.48.14c2.21.1,3.28-.68,4.63,1.24a1.55,1.55,0,0,0,.46.49,1.31,1.31,0,0,0,.61.15c1.52.13,2.52-.82,3.91-1,1.92-.24,2.33.75,4,1.55C675.83,258.1,677.13,257.32,677.63,255.5Z" style="fill:#e0e0e0"></path><path d="M660.85,263.58a7.84,7.84,0,0,0,.24-1.58c.19-3.28,3.32-2.76,6-3.2,2.08-.35-3.42-5.6.77-7.3a3.65,3.65,0,0,0,2-1.41,2.37,2.37,0,0,0-.91-2.9,5.63,5.63,0,0,0-3.18-.8c-.69-.83-.13-2.08.53-2.93s1.47-1.82,1.22-2.86c-.38-1.58-2.59-1.64-4.18-1.33a11.66,11.66,0,0,1-.87-3.24c-.28-1.08-1.15-2.22-2.26-2.09s-1.69,1.32-2.72,1.56c-1.2.28-2.23-.78-3.17-1.57s-2.58-1.29-3.22-.24c-.39.62-.16,1.49-.56,2.11-.7,1.07-2.35.4-3.37-.35s-2.66-1.45-3.38-.39a4.44,4.44,0,0,0-.4,1.09c-.49,1.4-2,2.1-3.18,3s-2.11,2.68-1.11,3.78c.49.54,1.35.75,1.6,1.44.3.86-.57,1.64-1.27,2.23-1.16,1-1.37,3.93.16,4.74.65.34,1.59.44,1.75,1.15s-.51,1.13-.93,1.62a3,3,0,0,0,.93,4.53c.37.17.82.32.95.7a1.5,1.5,0,0,1-.08.86,4.54,4.54,0,0,0-.15,1.64.71.71,0,0,0,.2.51.74.74,0,0,0,.48.14c2.22.1,3.28-.68,4.63,1.24a1.55,1.55,0,0,0,.46.49,1.31,1.31,0,0,0,.61.15c1.52.13,2.52-.82,3.91-1,1.92-.24,2.33.75,4,1.55C659.05,266.18,660.35,265.4,660.85,263.58Z" style="fill:#e0e0e0"></path><path d="M643.89,259.85a7.29,7.29,0,0,0,.24-1.58c.19-3.28,3.32-2.76,6-3.2,2.08-.35-3.42-5.6.77-7.3a3.62,3.62,0,0,0,2-1.41,2.36,2.36,0,0,0-.91-2.9,5.56,5.56,0,0,0-3.18-.8c-.69-.83-.13-2.09.53-2.93s1.47-1.82,1.22-2.87c-.38-1.58-2.58-1.63-4.18-1.33a11.24,11.24,0,0,1-.86-3.23c-.29-1.09-1.15-2.23-2.27-2.09s-1.69,1.31-2.72,1.56c-1.19.28-2.23-.78-3.17-1.57s-2.57-1.29-3.22-.25c-.39.63-.16,1.5-.56,2.12-.69,1.06-2.35.4-3.37-.36s-2.66-1.44-3.38-.39a4.67,4.67,0,0,0-.4,1.1c-.48,1.4-2,2.1-3.18,3s-2.11,2.69-1.11,3.78c.49.54,1.36.76,1.6,1.45.31.86-.57,1.63-1.27,2.23-1.16,1-1.37,3.93.16,4.74.65.33,1.59.44,1.75,1.15s-.5,1.12-.93,1.61a3,3,0,0,0,.93,4.54c.37.17.82.32,1,.7a1.51,1.51,0,0,1-.09.86,4.54,4.54,0,0,0-.15,1.64.75.75,0,0,0,.2.51.81.81,0,0,0,.49.14c2.21.1,3.27-.68,4.62,1.24a1.66,1.66,0,0,0,.46.49,1.44,1.44,0,0,0,.61.15c1.53.13,2.52-.82,3.91-1,1.93-.24,2.33.75,4,1.55C642.09,262.44,643.39,261.67,643.89,259.85Z" style="fill:#e0e0e0"></path><path d="M643.67,278a6.34,6.34,0,0,0,.19-1.24c.15-2.58,2.61-2.18,4.71-2.53,1.64-.27-2.7-4.41.6-5.74a2.94,2.94,0,0,0,1.6-1.11,1.89,1.89,0,0,0-.72-2.29,4.52,4.52,0,0,0-2.51-.63c-.54-.65-.1-1.64.42-2.31s1.16-1.42,1-2.25c-.29-1.24-2-1.29-3.29-1.05a8.67,8.67,0,0,1-.68-2.54c-.23-.86-.91-1.76-1.78-1.65s-1.34,1-2.15,1.23-1.75-.61-2.49-1.24-2-1-2.54-.19c-.3.49-.12,1.18-.44,1.66-.55.84-1.85.32-2.65-.27s-2.1-1.14-2.67-.31a3.52,3.52,0,0,0-.31.86c-.38,1.1-1.57,1.65-2.5,2.36s-1.66,2.11-.88,3c.39.42,1.07.59,1.26,1.14s-.45,1.28-1,1.75c-.91.77-1.07,3.09.13,3.73.51.27,1.25.35,1.38.91s-.4.88-.74,1.27a2.4,2.4,0,0,0,.74,3.57c.29.14.64.25.75.55a1.15,1.15,0,0,1-.07.68,3.5,3.5,0,0,0-.12,1.29.6.6,0,0,0,.16.4.57.57,0,0,0,.38.11c1.74.08,2.58-.54,3.65,1a1.31,1.31,0,0,0,.36.38,1,1,0,0,0,.48.12c1.2.1,2-.65,3.07-.78,1.52-.2,1.84.58,3.18,1.21C642.26,280,643.28,279.42,643.67,278Z" style="fill:#e0e0e0"></path><path d="M634.17,271.72a7.84,7.84,0,0,0,.24-1.58c.19-3.27,3.32-2.75,6-3.2,2.08-.35-3.42-5.6.77-7.29a3.7,3.7,0,0,0,2-1.41,2.39,2.39,0,0,0-.91-2.91,5.65,5.65,0,0,0-3.19-.8c-.68-.83-.12-2.08.54-2.93s1.47-1.82,1.22-2.86c-.38-1.58-2.59-1.64-4.18-1.33a11.66,11.66,0,0,1-.87-3.24c-.28-1.08-1.15-2.22-2.26-2.09s-1.69,1.32-2.72,1.56c-1.2.28-2.23-.78-3.17-1.57s-2.58-1.29-3.22-.24c-.39.62-.16,1.49-.56,2.11-.7,1.07-2.35.41-3.37-.35s-2.66-1.44-3.39-.39a4.42,4.42,0,0,0-.39,1.09c-.49,1.4-2,2.1-3.18,3s-2.11,2.68-1.11,3.78c.49.54,1.35.76,1.6,1.45.3.86-.58,1.63-1.27,2.22-1.16,1-1.37,3.93.16,4.74.64.34,1.59.44,1.74,1.15s-.5,1.13-.93,1.62a3,3,0,0,0,.94,4.53c.36.18.82.32,1,.7a1.43,1.43,0,0,1-.09.86,4.32,4.32,0,0,0-.14,1.64.71.71,0,0,0,.2.52.73.73,0,0,0,.48.13c2.21.1,3.28-.68,4.63,1.24a1.55,1.55,0,0,0,.46.49,1.28,1.28,0,0,0,.61.15c1.52.13,2.52-.82,3.9-1,1.93-.24,2.34.75,4,1.55C632.37,274.32,633.67,273.54,634.17,271.72Z" style="fill:#e0e0e0"></path><path d="M660.85,243.63a8.07,8.07,0,0,0,.24-1.58c.19-3.28,3.32-2.76,6-3.2,2.08-.35-3.42-5.6.77-7.3a3.65,3.65,0,0,0,2-1.41,2.38,2.38,0,0,0-.91-2.91,5.63,5.63,0,0,0-3.18-.79c-.69-.84-.13-2.09.53-2.94s1.47-1.81,1.22-2.86c-.38-1.58-2.59-1.63-4.18-1.33a11.59,11.59,0,0,1-.87-3.23c-.28-1.09-1.15-2.23-2.26-2.09s-1.69,1.31-2.72,1.55c-1.2.29-2.23-.77-3.17-1.56s-2.58-1.29-3.22-.25c-.39.63-.16,1.5-.56,2.11-.7,1.07-2.35.41-3.37-.35s-2.66-1.44-3.38-.39a4.51,4.51,0,0,0-.4,1.1c-.49,1.4-2,2.09-3.18,3s-2.11,2.69-1.11,3.78c.49.54,1.35.76,1.6,1.45.3.86-.57,1.63-1.27,2.22-1.16,1-1.37,3.94.16,4.74.65.34,1.59.45,1.75,1.16s-.51,1.12-.93,1.61a3,3,0,0,0,.93,4.53c.37.18.82.32.95.71a1.47,1.47,0,0,1-.08.85,4.61,4.61,0,0,0-.15,1.65.73.73,0,0,0,.2.51.8.8,0,0,0,.48.14c2.22.1,3.28-.69,4.63,1.24a1.79,1.79,0,0,0,.46.49,1.61,1.61,0,0,0,.61.15c1.52.13,2.52-.82,3.91-1,1.92-.25,2.33.75,4,1.55C659.05,246.22,660.35,245.45,660.85,243.63Z" style="fill:#e0e0e0"></path><path d="M682.64,244.74a7.88,7.88,0,0,0,.23-1.58c.2-3.28,3.33-2.76,6-3.2,2.08-.35-3.43-5.6.76-7.3a3.68,3.68,0,0,0,2-1.41,2.39,2.39,0,0,0-.91-2.9,5.67,5.67,0,0,0-3.19-.8c-.68-.83-.13-2.08.54-2.93s1.47-1.82,1.22-2.86c-.38-1.58-2.59-1.64-4.19-1.33a11.64,11.64,0,0,1-.86-3.24c-.29-1.08-1.15-2.22-2.26-2.09s-1.7,1.32-2.72,1.56c-1.2.28-2.24-.78-3.17-1.57s-2.58-1.29-3.23-.24c-.38.62-.15,1.49-.55,2.11-.7,1.07-2.35.4-3.38-.35s-2.66-1.45-3.38-.39a4.44,4.44,0,0,0-.4,1.09c-.48,1.4-2,2.1-3.17,3s-2.11,2.68-1.12,3.78c.5.54,1.36.76,1.61,1.44.3.86-.58,1.64-1.27,2.23-1.16,1-1.37,3.93.16,4.74.64.34,1.58.44,1.74,1.15s-.5,1.13-.93,1.62a3,3,0,0,0,.93,4.53c.37.17.82.32,1,.7a1.43,1.43,0,0,1-.09.86,4.54,4.54,0,0,0-.15,1.64.8.8,0,0,0,.2.52.82.82,0,0,0,.49.13c2.21.1,3.28-.68,4.63,1.24a1.44,1.44,0,0,0,.46.49,1.28,1.28,0,0,0,.61.15c1.52.13,2.51-.82,3.9-1,1.93-.24,2.34.75,4,1.55C680.84,247.34,682.13,246.56,682.64,244.74Z" style="fill:#e0e0e0"></path><path d="M695.87,253.66a8.07,8.07,0,0,0,.24-1.58c.19-3.28,3.32-2.76,6-3.21,2.08-.34-3.42-5.6.77-7.29a3.65,3.65,0,0,0,2-1.41,2.39,2.39,0,0,0-.91-2.91,5.64,5.64,0,0,0-3.19-.79c-.68-.84-.12-2.09.54-2.94s1.47-1.81,1.22-2.86c-.38-1.58-2.59-1.64-4.18-1.33a11.59,11.59,0,0,1-.87-3.23c-.28-1.09-1.15-2.23-2.26-2.09s-1.69,1.31-2.72,1.55c-1.2.29-2.23-.77-3.17-1.56s-2.58-1.29-3.22-.25c-.39.63-.16,1.5-.56,2.11-.7,1.07-2.35.41-3.37-.35s-2.66-1.44-3.38-.39a4.13,4.13,0,0,0-.4,1.1c-.49,1.4-2,2.09-3.18,3s-2.11,2.69-1.11,3.78c.49.54,1.35.76,1.6,1.45.3.86-.58,1.63-1.27,2.22-1.16,1-1.37,3.94.16,4.74.64.34,1.59.45,1.74,1.16s-.5,1.12-.93,1.61a3,3,0,0,0,.94,4.53c.36.18.82.32.95.71a1.4,1.4,0,0,1-.09.85,4.39,4.39,0,0,0-.14,1.65.69.69,0,0,0,.2.51.8.8,0,0,0,.48.14c2.21.1,3.28-.69,4.63,1.24a1.79,1.79,0,0,0,.46.49,1.57,1.57,0,0,0,.61.15c1.52.12,2.52-.82,3.91-1,1.92-.25,2.33.75,4,1.55C694.07,256.25,695.37,255.48,695.87,253.66Z" style="fill:#e0e0e0"></path><path d="M691.86,264.93s-5.54,7.82-7.45,10.3S673,293.17,671.67,303.39c-.14,1.09-.28,2-.41,2.85,4.1,27.09,3.46,76.65,3.31,85.14h-13c-.12-9.57-1.22-97-1.63-99.7-.43-2.83-5.87-13.59-14.26-18S630,254.62,630,254.62h2.68s5,9,12,13.93a27.06,27.06,0,0,0,3.18,1.88,44.86,44.86,0,0,1,2.81-15.81l1.44,1.34c-1.95,8-1.69,13.1-1.1,16a28.93,28.93,0,0,1,7.3,4.89c7.32-9.53,11.44-31.31,11.44-31.31l1.88,1A110.15,110.15,0,0,1,669.24,260c-1.37,5.64-5.41,16.26-7.29,21.07a50,50,0,0,1,5.54,10.39,4.12,4.12,0,0,1,.7-.85c4.77-4.31,13.74-24.69,13.74-24.69,2.17-4.74-1.14-17.18-1.14-17.18h2.5l1.12,10.88,6.3-6.87,1.15,1-6.68,8.58-3.44,10.88,9-9.92Z" style="fill:#e0e0e0"></path><path d="M184.63,177.39a14.89,14.89,0,0,1-.44-2.89c-.35-6-6.08-5.05-10.95-5.86-3.81-.64,6.27-10.26-1.4-13.36-1.43-.57-3-1.22-3.71-2.58-1-1.79,0-4.15,1.67-5.32a10.37,10.37,0,0,1,5.83-1.46c1.25-1.52.23-3.81-1-5.37s-2.69-3.32-2.23-5.24c.69-2.89,4.73-3,7.66-2.43,1.07-1.75,1-3.93,1.58-5.92s2.1-4.07,4.14-3.82,3.1,2.4,5,2.84c2.19.52,4.08-1.42,5.8-2.87s4.72-2.36,5.9-.44c.71,1.14.28,2.74,1,3.86,1.27,2,4.3.74,6.18-.64s4.86-2.64,6.18-.72a7.66,7.66,0,0,1,.73,2c.89,2.56,3.66,3.84,5.82,5.48s3.86,4.91,2,6.92c-.9,1-2.49,1.39-2.94,2.65-.55,1.57,1.06,3,2.33,4.07,2.12,1.8,2.5,7.2-.3,8.68-1.18.62-2.9.81-3.19,2.11s.92,2.06,1.7,2.95a5.58,5.58,0,0,1-1.7,8.3c-.68.32-1.5.59-1.75,1.29a2.6,2.6,0,0,0,.16,1.57,8.42,8.42,0,0,1,.27,3,1.39,1.39,0,0,1-.37.94,1.37,1.37,0,0,1-.89.25c-4.05.18-6-1.25-8.47,2.27a3,3,0,0,1-.84.9,2.54,2.54,0,0,1-1.12.28c-2.78.23-4.6-1.51-7.15-1.83-3.52-.45-4.27,1.37-7.38,2.83C187.92,182.14,185.55,180.72,184.63,177.39Z" style="fill:#ebebeb"></path><path d="M231.26,172.35a13.5,13.5,0,0,1-.44-2.89c-.36-6-6.08-5.05-11-5.86-3.8-.64,6.28-10.25-1.4-13.36-1.42-.57-3-1.22-3.7-2.58-1-1.79,0-4.14,1.67-5.32a10.35,10.35,0,0,1,5.83-1.46c1.25-1.52.23-3.81-1-5.36s-2.7-3.33-2.24-5.24c.7-2.9,4.74-3,7.66-2.44,1.08-1.75,1.06-3.93,1.58-5.92s2.11-4.07,4.15-3.82,3.09,2.4,5,2.84c2.18.52,4.08-1.42,5.8-2.87s4.71-2.35,5.9-.44c.7,1.14.28,2.74,1,3.87,1.27,2,4.29.74,6.17-.65s4.87-2.64,6.19-.72a8.61,8.61,0,0,1,.73,2c.88,2.56,3.66,3.84,5.81,5.48s3.87,4.91,2,6.92c-.9,1-2.48,1.39-2.93,2.65-.56,1.58,1.05,3,2.33,4.07,2.12,1.81,2.5,7.2-.3,8.68-1.18.62-2.91.81-3.19,2.11s.91,2.06,1.7,3A5.56,5.56,0,0,1,267,163.3c-.67.32-1.5.59-1.75,1.29a2.67,2.67,0,0,0,.16,1.57,8,8,0,0,1,.27,3,1.38,1.38,0,0,1-.36,1,1.52,1.52,0,0,1-.89.25c-4,.18-6-1.26-8.47,2.27a3,3,0,0,1-.85.89,2.5,2.5,0,0,1-1.11.28c-2.79.23-4.61-1.51-7.15-1.83-3.53-.45-4.28,1.37-7.38,2.83C234.54,177.1,232.17,175.68,231.26,172.35Z" style="fill:#ebebeb"></path><path d="M235.75,142.66a14.89,14.89,0,0,1-.44-2.89c-.35-6-6.08-5.05-10.95-5.87-3.81-.63,6.27-10.25-1.41-13.35-1.42-.58-3-1.23-3.7-2.58-1-1.79,0-4.15,1.67-5.32a10.29,10.29,0,0,1,5.83-1.46c1.25-1.52.23-3.81-1-5.37s-2.69-3.32-2.23-5.24c.69-2.89,4.73-3,7.65-2.43,1.08-1.75,1.06-3.94,1.59-5.92s2.1-4.08,4.14-3.83,3.1,2.41,5,2.85c2.19.52,4.08-1.42,5.8-2.87s4.72-2.36,5.9-.45c.71,1.15.28,2.74,1,3.87,1.27,2,4.3.74,6.17-.64s4.87-2.64,6.19-.72a7.66,7.66,0,0,1,.73,2c.89,2.56,3.66,3.84,5.82,5.48s3.86,4.91,2,6.92c-.9,1-2.49,1.39-2.94,2.65-.56,1.57,1.05,3,2.33,4.07,2.12,1.8,2.5,7.2-.3,8.68-1.18.61-2.9.81-3.19,2.1s.92,2.07,1.7,3a5.58,5.58,0,0,1-1.7,8.3c-.68.32-1.5.58-1.75,1.29a2.6,2.6,0,0,0,.16,1.57,8.42,8.42,0,0,1,.27,3,1.41,1.41,0,0,1-.37.94,1.37,1.37,0,0,1-.89.25c-4.05.18-6-1.25-8.47,2.27a3,3,0,0,1-.84.9,2.85,2.85,0,0,1-1.12.28c-2.78.23-4.6-1.51-7.15-1.84-3.53-.44-4.27,1.37-7.38,2.84C239,147.41,236.67,146,235.75,142.66Z" style="fill:#ebebeb"></path><path d="M266.46,157.45a14.19,14.19,0,0,1-.43-2.89c-.36-6-6.09-5.05-11-5.87-3.8-.63,6.27-10.25-1.4-13.35-1.43-.58-3-1.23-3.7-2.58-1-1.79,0-4.15,1.67-5.32a10.26,10.26,0,0,1,5.82-1.46c1.26-1.52.24-3.81-1-5.37s-2.7-3.32-2.24-5.24c.69-2.89,4.74-3,7.66-2.43C263,111.19,263,109,263.49,107s2.11-4.08,4.14-3.83,3.1,2.41,5,2.85c2.19.52,4.09-1.42,5.8-2.87s4.72-2.36,5.9-.45c.71,1.15.29,2.74,1,3.87,1.28,2,4.3.74,6.18-.64s4.87-2.64,6.19-.72a8,8,0,0,1,.72,2c.89,2.56,3.66,3.84,5.82,5.48s3.87,4.91,2,6.92c-.9,1-2.48,1.39-2.93,2.65-.56,1.57,1,3,2.32,4.07,2.12,1.8,2.51,7.2-.3,8.68-1.17.61-2.9.81-3.19,2.1s.92,2.07,1.71,3a5.59,5.59,0,0,1-1.71,8.3c-.67.32-1.5.59-1.75,1.29a2.68,2.68,0,0,0,.16,1.57,8.2,8.2,0,0,1,.27,3,1.36,1.36,0,0,1-.36.94,1.39,1.39,0,0,1-.89.25c-4.05.18-6-1.25-8.48,2.27a2.1,2.1,0,0,1-2,1.18c-2.78.23-4.6-1.51-7.14-1.83-3.53-.45-4.28,1.36-7.39,2.83C269.75,162.2,267.38,160.78,266.46,157.45Z" style="fill:#ebebeb"></path><path d="M297.51,150.62a13.5,13.5,0,0,1-.44-2.9c-.36-6-6.08-5-11-5.86-3.8-.63,6.28-10.25-1.4-13.35-1.42-.58-3-1.23-3.7-2.58-1-1.79,0-4.15,1.67-5.32a10.19,10.19,0,0,1,5.83-1.46c1.25-1.53.23-3.82-1-5.37s-2.7-3.32-2.24-5.24c.7-2.89,4.74-3,7.66-2.43,1.08-1.75,1.06-3.94,1.58-5.92s2.11-4.08,4.15-3.83,3.09,2.41,5,2.85c2.18.52,4.08-1.42,5.8-2.87s4.71-2.36,5.9-.45c.7,1.15.28,2.74,1,3.87,1.27,1.95,4.29.74,6.17-.64s4.87-2.64,6.19-.72a8.45,8.45,0,0,1,.73,2c.88,2.56,3.65,3.83,5.81,5.48s3.87,4.91,2,6.92c-.9,1-2.48,1.39-2.93,2.65-.56,1.57,1.05,3,2.33,4.07,2.12,1.8,2.5,7.2-.3,8.67-1.18.62-2.91.81-3.2,2.11s.92,2.07,1.71,3a5.57,5.57,0,0,1-1.71,8.3c-.67.32-1.5.58-1.75,1.29a2.64,2.64,0,0,0,.16,1.56,8.06,8.06,0,0,1,.27,3,1.36,1.36,0,0,1-.36.94,1.39,1.39,0,0,1-.89.25c-4,.18-6-1.25-8.47,2.27a2.93,2.93,0,0,1-.85.9,2.8,2.8,0,0,1-1.11.28c-2.79.23-4.61-1.51-7.15-1.84-3.53-.45-4.28,1.37-7.39,2.84C300.79,155.36,298.42,154,297.51,150.62Z" style="fill:#ebebeb"></path><path d="M297.91,183.82a11.42,11.42,0,0,1-.34-2.28c-.28-4.72-4.79-4-8.63-4.61-3-.5,4.94-8.07-1.1-10.52a5.24,5.24,0,0,1-2.92-2,3.43,3.43,0,0,1,1.32-4.19,8.11,8.11,0,0,1,4.58-1.15c1-1.2.19-3-.77-4.22s-2.12-2.62-1.76-4.13c.55-2.28,3.73-2.36,6-1.92.85-1.37.84-3.09,1.25-4.66s1.66-3.2,3.26-3,2.44,1.89,3.92,2.24c1.73.41,3.22-1.11,4.57-2.26s3.72-1.85,4.65-.35c.55.9.22,2.16.8,3.05,1,1.54,3.38.58,4.86-.51s3.83-2.08,4.87-.56a6.34,6.34,0,0,1,.58,1.58c.7,2,2.88,3,4.58,4.31s3,3.87,1.6,5.45c-.71.78-1.95,1.09-2.31,2.09-.44,1.24.83,2.35,1.83,3.2,1.67,1.42,2,5.67-.23,6.83-.93.49-2.29.64-2.51,1.66s.72,1.63,1.34,2.33A4.4,4.4,0,0,1,326,176.7c-.53.25-1.18.46-1.37,1a2.13,2.13,0,0,0,.12,1.24,6.26,6.26,0,0,1,.21,2.36,1.06,1.06,0,0,1-.28.74,1.15,1.15,0,0,1-.7.2c-3.19.14-4.73-1-6.67,1.79a2.24,2.24,0,0,1-.67.7,1.88,1.88,0,0,1-.88.22c-2.19.18-3.62-1.18-5.62-1.44-2.78-.35-3.37,1.08-5.82,2.23C300.5,187.56,298.63,186.44,297.91,183.82Z" style="fill:#ebebeb"></path><path d="M315.3,172.35a14.19,14.19,0,0,1-.43-2.89c-.36-6-6.09-5.05-11-5.86-3.8-.64,6.27-10.25-1.4-13.36-1.43-.57-3-1.22-3.7-2.58-1-1.79,0-4.14,1.67-5.32a10.34,10.34,0,0,1,5.82-1.46c1.26-1.52.24-3.81-1-5.36s-2.7-3.33-2.24-5.24c.69-2.9,4.74-3,7.66-2.44,1.08-1.75,1.06-3.93,1.58-5.92s2.11-4.07,4.15-3.82,3.09,2.4,5,2.84c2.19.52,4.09-1.42,5.8-2.87s4.72-2.35,5.9-.44c.71,1.14.29,2.74,1,3.87,1.28,2,4.3.74,6.18-.65s4.87-2.64,6.19-.72a8.61,8.61,0,0,1,.73,2c.88,2.56,3.65,3.84,5.81,5.48s3.87,4.91,2,6.92c-.9,1-2.48,1.39-2.93,2.65-.56,1.58,1.05,3,2.32,4.07,2.12,1.81,2.51,7.2-.3,8.68-1.17.62-2.9.81-3.19,2.11s.92,2.06,1.71,3A5.56,5.56,0,0,1,351,163.3c-.67.32-1.5.59-1.75,1.29a2.67,2.67,0,0,0,.16,1.57,8.22,8.22,0,0,1,.27,3,1.38,1.38,0,0,1-.36,1,1.52,1.52,0,0,1-.89.25c-4.05.18-6-1.26-8.48,2.27a2.86,2.86,0,0,1-.84.89,2.51,2.51,0,0,1-1.12.28c-2.78.23-4.6-1.51-7.14-1.83-3.53-.45-4.28,1.37-7.39,2.83C318.59,177.1,316.22,175.68,315.3,172.35Z" style="fill:#ebebeb"></path><path d="M266.46,120.92A14.19,14.19,0,0,1,266,118c-.36-6-6.09-5-11-5.86-3.8-.64,6.27-10.25-1.4-13.35-1.43-.58-3-1.23-3.7-2.59-1-1.79,0-4.14,1.67-5.32a10.34,10.34,0,0,1,5.82-1.46c1.26-1.52.24-3.81-1-5.36s-2.7-3.33-2.24-5.24c.69-2.89,4.74-3,7.66-2.44,1.08-1.74,1.06-3.93,1.58-5.92s2.11-4.07,4.14-3.82,3.1,2.4,5,2.85c2.19.51,4.09-1.42,5.8-2.87s4.72-2.36,5.9-.45c.71,1.14.29,2.74,1,3.87,1.28,2,4.3.74,6.18-.65s4.87-2.64,6.19-.71a8.09,8.09,0,0,1,.72,2c.89,2.56,3.66,3.84,5.82,5.48s3.87,4.92,2,6.92c-.9,1-2.48,1.39-2.93,2.65-.56,1.58,1,3,2.32,4.07,2.12,1.81,2.51,7.2-.3,8.68-1.17.62-2.9.81-3.19,2.11s.92,2.06,1.71,3a5.58,5.58,0,0,1-1.71,8.29c-.67.33-1.5.59-1.75,1.29a2.67,2.67,0,0,0,.16,1.57,8.22,8.22,0,0,1,.27,3,1.38,1.38,0,0,1-.36,1,1.52,1.52,0,0,1-.89.25c-4.05.18-6-1.25-8.48,2.27a2.65,2.65,0,0,1-.84.89,2.51,2.51,0,0,1-1.12.28c-2.78.23-4.6-1.51-7.14-1.83-3.53-.45-4.28,1.37-7.39,2.83C269.75,125.67,267.38,124.25,266.46,120.92Z" style="fill:#ebebeb"></path><path d="M226.59,123a13.5,13.5,0,0,1-.44-2.89c-.36-6-6.08-5-11-5.86-3.8-.64,6.28-10.25-1.4-13.35-1.42-.58-3-1.23-3.7-2.59-1-1.79,0-4.14,1.67-5.32a10.35,10.35,0,0,1,5.83-1.46c1.25-1.52.23-3.81-1-5.36s-2.7-3.33-2.24-5.24c.7-2.9,4.74-3,7.66-2.44,1.08-1.75,1.06-3.93,1.58-5.92s2.11-4.07,4.15-3.82,3.09,2.4,5,2.85c2.18.51,4.08-1.42,5.8-2.88s4.71-2.35,5.9-.44c.7,1.14.28,2.74,1,3.87,1.27,2,4.29.74,6.17-.65s4.87-2.64,6.19-.71a8.37,8.37,0,0,1,.73,2c.88,2.56,3.65,3.84,5.81,5.48s3.87,4.92,2,6.92c-.9,1-2.48,1.39-2.93,2.65-.56,1.58,1,3,2.32,4.07,2.13,1.81,2.51,7.2-.29,8.68-1.18.62-2.91.81-3.2,2.11s.92,2.06,1.71,3a5.56,5.56,0,0,1-1.71,8.29c-.67.33-1.5.59-1.75,1.29a2.67,2.67,0,0,0,.16,1.57,8,8,0,0,1,.27,3,1.38,1.38,0,0,1-.36,1,1.52,1.52,0,0,1-.89.25c-4.05.18-6-1.26-8.47,2.27a2.79,2.79,0,0,1-.85.89,2.5,2.5,0,0,1-1.11.28c-2.79.23-4.61-1.51-7.15-1.83-3.53-.45-4.28,1.37-7.38,2.83C229.87,127.71,227.5,126.29,226.59,123Z" style="fill:#ebebeb"></path><path d="M202.36,139.28a14.19,14.19,0,0,1-.43-2.89c-.36-6-6.09-5-11-5.86-3.8-.64,6.27-10.25-1.4-13.36-1.43-.57-3-1.22-3.7-2.58-1-1.79,0-4.14,1.67-5.32a10.34,10.34,0,0,1,5.82-1.46c1.26-1.52.24-3.81-1-5.36s-2.7-3.33-2.24-5.24c.69-2.9,4.74-3,7.66-2.44,1.08-1.75,1.06-3.93,1.58-5.92s2.1-4.07,4.14-3.82,3.1,2.4,5,2.85c2.19.51,4.09-1.42,5.8-2.88s4.72-2.35,5.9-.44c.71,1.14.29,2.74,1,3.87,1.28,1.95,4.3.74,6.18-.65s4.87-2.64,6.19-.72a8.16,8.16,0,0,1,.72,2c.89,2.56,3.66,3.84,5.82,5.48s3.87,4.92,2,6.92c-.9,1-2.48,1.39-2.93,2.65-.56,1.58,1.05,3,2.32,4.07,2.12,1.81,2.51,7.2-.3,8.68-1.17.62-2.9.81-3.19,2.11s.92,2.06,1.7,3a5.57,5.57,0,0,1-1.7,8.29c-.67.32-1.5.59-1.75,1.29a2.67,2.67,0,0,0,.16,1.57,8.22,8.22,0,0,1,.27,3,1.35,1.35,0,0,1-.37.95,1.47,1.47,0,0,1-.88.25c-4,.18-6-1.26-8.48,2.27a2.75,2.75,0,0,1-.84.89,2.51,2.51,0,0,1-1.12.28c-2.78.23-4.6-1.51-7.14-1.83-3.53-.45-4.28,1.37-7.39,2.83C205.65,144,203.28,142.61,202.36,139.28Z" style="fill:#ebebeb"></path><path d="M209.71,159.91s10.13,14.32,13.62,18.86,21,32.84,23.34,51.55c.25,2,.5,3.72.74,5.22-7.51,49.59-6.33,140.31-6.07,155.84h23.8c.22-17.51,2.25-177.61,3-182.5.79-5.17,10.74-24.87,26.11-33s28.65-34.87,28.65-34.87H318s-9.08,16.41-22,25.49a49.17,49.17,0,0,1-5.82,3.45c.46-14.79-5.14-28.94-5.14-28.94l-2.64,2.44c3.57,14.62,3.1,24,2,29.37A53.22,53.22,0,0,0,271,181.8c-13.4-17.43-20.94-57.3-20.94-57.3l-3.43,1.87a202.18,202.18,0,0,0,4.43,24.46c2.51,10.31,9.9,29.74,13.34,38.57a91.43,91.43,0,0,0-10.13,19,7.71,7.71,0,0,0-1.29-1.55c-8.73-7.89-25.15-45.2-25.15-45.2-4-8.67,2.1-31.43,2.1-31.43h-4.59l-2,19.91L211.8,137.55l-2.09,1.75L221.93,155l6.29,19.91L211.8,156.76Z" style="fill:#e6e6e6"></path><path d="M481.72,228.38a11.58,11.58,0,0,1-.33-2.2c-.27-4.57-4.63-3.85-8.34-4.47-2.9-.48,4.77-7.81-1.07-10.17a5.11,5.11,0,0,1-2.82-2,3.33,3.33,0,0,1,1.27-4.06,7.91,7.91,0,0,1,4.44-1.11c.95-1.16.18-2.9-.75-4.09s-2.05-2.53-1.7-4c.53-2.2,3.61-2.28,5.83-1.85.83-1.33.81-3,1.21-4.51s1.6-3.1,3.16-2.92,2.35,1.84,3.79,2.17c1.67.4,3.11-1.08,4.42-2.18s3.59-1.8,4.49-.34c.54.87.22,2.08.78,2.94,1,1.49,3.27.57,4.7-.49s3.71-2,4.72-.54a6.56,6.56,0,0,1,.55,1.52c.68,2,2.79,2.93,4.43,4.18s2.94,3.74,1.55,5.27c-.68.75-1.89,1.06-2.23,2-.43,1.2.8,2.27,1.77,3.1,1.62,1.37,1.91,5.48-.23,6.61-.89.47-2.21.62-2.43,1.6s.7,1.58,1.3,2.26a4.25,4.25,0,0,1-1.3,6.32c-.51.24-1.14.44-1.33,1a2,2,0,0,0,.12,1.19,6.13,6.13,0,0,1,.2,2.29,1,1,0,0,1-.27.72,1.06,1.06,0,0,1-.68.19c-3.08.14-4.57-1-6.45,1.73a2.11,2.11,0,0,1-.65.68,1.87,1.87,0,0,1-.85.21c-2.12.18-3.5-1.14-5.44-1.39-2.69-.34-3.26,1-5.63,2.16C484.23,232,482.42,230.92,481.72,228.38Z" style="fill:#e0e0e0"></path><path d="M517.24,224.54a10.62,10.62,0,0,1-.33-2.2c-.27-4.57-4.64-3.85-8.35-4.47-2.9-.48,4.78-7.8-1.07-10.17a5.13,5.13,0,0,1-2.82-2,3.31,3.31,0,0,1,1.28-4.05,7.8,7.8,0,0,1,4.43-1.12c1-1.16.18-2.9-.74-4.09s-2.05-2.53-1.7-4c.53-2.2,3.61-2.28,5.83-1.85.82-1.33.81-3,1.21-4.51s1.6-3.1,3.15-2.91,2.36,1.83,3.8,2.17c1.66.39,3.1-1.09,4.41-2.19s3.6-1.8,4.5-.34c.54.87.21,2.09.77,2.95,1,1.48,3.28.56,4.71-.49s3.7-2,4.71-.55a6.08,6.08,0,0,1,.56,1.53c.67,1.95,2.78,2.92,4.42,4.17s3,3.74,1.56,5.27c-.69.76-1.89,1.06-2.23,2-.43,1.2.8,2.28,1.77,3.1,1.61,1.38,1.9,5.49-.23,6.61-.9.47-2.21.62-2.43,1.61s.7,1.57,1.29,2.25a4.24,4.24,0,0,1-1.29,6.32c-.52.25-1.15.45-1.34,1a2.09,2.09,0,0,0,.13,1.2,6.5,6.5,0,0,1,.2,2.28,1,1,0,0,1-.28.72,1.05,1.05,0,0,1-.67.19c-3.09.14-4.58-1-6.46,1.73a1.63,1.63,0,0,1-1.49.9c-2.12.17-3.51-1.15-5.44-1.4-2.69-.34-3.26,1.05-5.63,2.16C519.75,228.16,517.94,227.08,517.24,224.54Z" style="fill:#e0e0e0"></path><path d="M520.66,201.93a10.83,10.83,0,0,1-.33-2.21c-.27-4.57-4.63-3.84-8.34-4.46-2.9-.49,4.77-7.81-1.07-10.17a5.12,5.12,0,0,1-2.82-2,3.3,3.3,0,0,1,1.27-4.05,7.81,7.81,0,0,1,4.44-1.12c1-1.16.18-2.9-.75-4.08s-2-2.53-1.7-4c.53-2.21,3.61-2.29,5.83-1.86.83-1.33.81-3,1.21-4.51s1.6-3.1,3.15-2.91,2.36,1.83,3.8,2.17c1.66.39,3.11-1.08,4.41-2.19s3.6-1.79,4.5-.34c.54.87.22,2.09.78,2.95,1,1.49,3.27.56,4.7-.49s3.71-2,4.71-.55a6.23,6.23,0,0,1,.56,1.53c.67,1.95,2.78,2.92,4.43,4.18s2.94,3.74,1.55,5.26c-.68.76-1.89,1.06-2.23,2-.43,1.2.8,2.28,1.77,3.1,1.61,1.38,1.91,5.49-.23,6.61-.9.48-2.21.62-2.43,1.61s.7,1.57,1.3,2.25a4.25,4.25,0,0,1-1.3,6.32c-.51.25-1.14.45-1.33,1a2,2,0,0,0,.12,1.19,6.1,6.1,0,0,1,.2,2.29,1,1,0,0,1-.28.72,1.1,1.1,0,0,1-.67.19c-3.09.13-4.57-1-6.46,1.73a2.31,2.31,0,0,1-.64.68,2.05,2.05,0,0,1-.85.21c-2.12.17-3.5-1.15-5.44-1.4-2.69-.34-3.26,1.05-5.63,2.16C523.17,205.54,521.36,204.46,520.66,201.93Z" style="fill:#e0e0e0"></path><path d="M544.06,213.19a10.18,10.18,0,0,1-.33-2.2c-.28-4.57-4.64-3.85-8.35-4.47-2.9-.48,4.78-7.81-1.07-10.17a5.18,5.18,0,0,1-2.82-2,3.34,3.34,0,0,1,1.27-4.06,7.91,7.91,0,0,1,4.44-1.11c1-1.16.18-2.9-.74-4.09s-2.05-2.53-1.7-4c.52-2.2,3.6-2.28,5.83-1.85.82-1.33.8-3,1.2-4.51s1.61-3.1,3.16-2.92,2.36,1.84,3.79,2.17c1.67.4,3.11-1.08,4.42-2.18s3.59-1.8,4.5-.34c.53.87.21,2.08.77,2.94,1,1.49,3.28.57,4.71-.49s3.7-2,4.71-.54a6.06,6.06,0,0,1,.55,1.53c.68,2,2.79,2.92,4.43,4.17s2.95,3.74,1.56,5.27c-.69.75-1.9,1.06-2.24,2-.42,1.2.8,2.28,1.77,3.1,1.62,1.37,1.91,5.48-.22,6.61-.9.47-2.21.62-2.43,1.61s.7,1.57,1.29,2.25a4.24,4.24,0,0,1-1.3,6.32c-.51.24-1.14.44-1.33,1a2,2,0,0,0,.12,1.19,6.35,6.35,0,0,1,.21,2.29,1.08,1.08,0,0,1-.28.72,1.06,1.06,0,0,1-.68.19c-3.08.14-4.57-.95-6.45,1.73a2.19,2.19,0,0,1-.64.68,1.94,1.94,0,0,1-.85.21c-2.12.18-3.51-1.14-5.45-1.39-2.68-.34-3.25,1-5.62,2.16C546.56,216.81,544.76,215.73,544.06,213.19Z" style="fill:#e0e0e0"></path><path d="M567.7,208a10.83,10.83,0,0,1-.33-2.21c-.27-4.56-4.63-3.84-8.34-4.46-2.9-.48,4.77-7.81-1.07-10.17a5.12,5.12,0,0,1-2.82-2,3.31,3.31,0,0,1,1.27-4.05,7.89,7.89,0,0,1,4.44-1.11c.95-1.16.18-2.91-.75-4.09s-2.05-2.53-1.7-4c.53-2.21,3.61-2.28,5.83-1.86.83-1.33.81-3,1.21-4.51s1.6-3.1,3.16-2.91,2.35,1.83,3.79,2.17c1.66.39,3.11-1.08,4.42-2.19s3.59-1.79,4.49-.34c.54.88.22,2.09.78,2.95,1,1.49,3.27.56,4.7-.49s3.71-2,4.71-.55a6.23,6.23,0,0,1,.56,1.53c.67,1.95,2.78,2.93,4.43,4.18s2.94,3.74,1.55,5.27c-.68.75-1.89,1.06-2.23,2-.43,1.2.8,2.27,1.77,3.1,1.61,1.37,1.91,5.48-.23,6.61-.89.47-2.21.61-2.43,1.6s.7,1.57,1.3,2.26a4.24,4.24,0,0,1-1.3,6.31c-.51.25-1.14.45-1.33,1a2,2,0,0,0,.12,1.19,6.1,6.1,0,0,1,.2,2.29,1,1,0,0,1-.27.72,1.15,1.15,0,0,1-.68.19c-3.09.14-4.57-1-6.46,1.73a2.31,2.31,0,0,1-.64.68,1.87,1.87,0,0,1-.85.21c-2.12.18-3.5-1.15-5.44-1.39-2.69-.35-3.26,1-5.63,2.15C570.21,211.6,568.4,210.52,567.7,208Z" style="fill:#e0e0e0"></path><path d="M568,233.28a8.63,8.63,0,0,1-.26-1.73c-.21-3.6-3.65-3-6.57-3.52-2.28-.38,3.76-6.15-.84-8a3.94,3.94,0,0,1-2.22-1.55,2.61,2.61,0,0,1,1-3.19,6.16,6.16,0,0,1,3.49-.87c.75-.92.14-2.29-.58-3.22s-1.62-2-1.34-3.14c.41-1.74,2.84-1.8,4.59-1.47.65-1,.63-2.35,1-3.55s1.26-2.44,2.48-2.29,1.86,1.44,3,1.71c1.31.31,2.45-.85,3.48-1.72s2.83-1.42,3.54-.27c.42.69.17,1.64.61,2.32.76,1.17,2.58.44,3.7-.39s2.92-1.58,3.71-.43a4.61,4.61,0,0,1,.44,1.21c.53,1.53,2.19,2.3,3.49,3.28s2.32,3,1.22,4.15c-.54.6-1.49.84-1.76,1.59-.33.95.63,1.79,1.4,2.44,1.27,1.09,1.5,4.32-.18,5.21-.71.37-1.74.48-1.92,1.26s.56,1.24,1,1.78a3.33,3.33,0,0,1-1,5c-.4.2-.9.35-1,.78a1.62,1.62,0,0,0,.1.94,5,5,0,0,1,.16,1.8.8.8,0,0,1-.22.56.75.75,0,0,1-.53.15c-2.43.11-3.6-.75-5.08,1.37a1.62,1.62,0,0,1-.51.53,1.55,1.55,0,0,1-.67.17c-1.67.14-2.76-.9-4.28-1.1-2.12-.27-2.57.82-4.43,1.7C570,236.13,568.56,235.28,568,233.28Z" style="fill:#e0e0e0"></path><path d="M581.26,224.54a10.62,10.62,0,0,1-.33-2.2c-.27-4.57-4.64-3.85-8.35-4.47-2.9-.48,4.78-7.8-1.07-10.17a5.13,5.13,0,0,1-2.82-2,3.31,3.31,0,0,1,1.28-4.05,7.81,7.81,0,0,1,4.44-1.12c1-1.16.17-2.9-.75-4.09s-2-2.53-1.7-4c.53-2.2,3.61-2.28,5.83-1.85.82-1.33.81-3,1.21-4.51s1.6-3.1,3.15-2.91,2.36,1.83,3.8,2.17c1.66.39,3.11-1.09,4.41-2.19s3.6-1.8,4.5-.34c.54.87.21,2.09.77,2.95,1,1.48,3.28.56,4.71-.49s3.71-2,4.71-.55a6.08,6.08,0,0,1,.56,1.53c.67,1.95,2.78,2.92,4.43,4.17s2.94,3.74,1.55,5.27c-.69.76-1.89,1.06-2.23,2-.43,1.2.8,2.28,1.77,3.1,1.61,1.38,1.9,5.49-.23,6.61-.9.47-2.21.62-2.43,1.61s.7,1.57,1.29,2.25a4.24,4.24,0,0,1-1.29,6.32c-.52.25-1.15.45-1.34,1a2.09,2.09,0,0,0,.13,1.2,6.5,6.5,0,0,1,.2,2.28,1,1,0,0,1-.28.72,1.05,1.05,0,0,1-.67.19c-3.09.14-4.58-1-6.46,1.73a2.09,2.09,0,0,1-.64.68,2.06,2.06,0,0,1-.85.22c-2.12.17-3.51-1.15-5.44-1.4-2.69-.34-3.26,1.05-5.63,2.16C583.77,228.16,582,227.08,581.26,224.54Z" style="fill:#e0e0e0"></path><path d="M544.06,185.37a10.18,10.18,0,0,1-.33-2.2c-.28-4.57-4.64-3.85-8.35-4.47-2.9-.48,4.78-7.81-1.07-10.17a5.14,5.14,0,0,1-2.82-2,3.33,3.33,0,0,1,1.27-4.05,7.91,7.91,0,0,1,4.44-1.11c1-1.16.18-2.9-.74-4.09s-2.05-2.53-1.7-4c.52-2.2,3.6-2.28,5.83-1.85.82-1.34.8-3,1.2-4.51s1.61-3.11,3.16-2.92,2.36,1.83,3.79,2.17c1.67.4,3.11-1.08,4.42-2.18s3.59-1.8,4.5-.34c.53.87.21,2.08.77,2.94,1,1.49,3.28.57,4.71-.49s3.7-2,4.71-.54a6,6,0,0,1,.55,1.52c.68,2,2.79,2.93,4.43,4.18s2.95,3.74,1.56,5.27c-.69.75-1.9,1.06-2.24,2-.42,1.2.8,2.27,1.77,3.1,1.62,1.37,1.91,5.48-.22,6.61-.9.47-2.21.61-2.43,1.6s.7,1.58,1.29,2.26a4.24,4.24,0,0,1-1.3,6.32c-.51.24-1.14.44-1.33,1a2,2,0,0,0,.12,1.19,6.31,6.31,0,0,1,.21,2.29,1.08,1.08,0,0,1-.28.72,1.06,1.06,0,0,1-.68.19c-3.08.14-4.57-.95-6.45,1.73a2.19,2.19,0,0,1-.64.68,1.94,1.94,0,0,1-.85.21c-2.12.18-3.51-1.15-5.45-1.39-2.68-.34-3.25,1-5.62,2.15C546.56,189,544.76,187.91,544.06,185.37Z" style="fill:#e0e0e0"></path><path d="M513.68,186.92a10.62,10.62,0,0,1-.33-2.2c-.27-4.57-4.63-3.85-8.35-4.47-2.89-.48,4.78-7.8-1.06-10.17a5.06,5.06,0,0,1-2.82-2,3.31,3.31,0,0,1,1.27-4.06,7.89,7.89,0,0,1,4.44-1.11c.95-1.16.18-2.9-.75-4.09s-2.05-2.53-1.7-4c.53-2.2,3.61-2.28,5.83-1.85.83-1.33.81-3,1.21-4.51s1.6-3.1,3.15-2.91,2.36,1.83,3.8,2.17c1.66.39,3.11-1.09,4.41-2.19s3.6-1.8,4.5-.34c.54.87.22,2.09.78,2.95,1,1.48,3.27.56,4.7-.5s3.71-2,4.71-.54a6.08,6.08,0,0,1,.56,1.53c.67,1.95,2.78,2.92,4.43,4.17s2.94,3.74,1.55,5.27c-.68.76-1.89,1.06-2.23,2-.43,1.2.8,2.28,1.77,3.1,1.61,1.38,1.91,5.49-.23,6.61-.9.47-2.21.62-2.43,1.61s.7,1.57,1.3,2.25a4.25,4.25,0,0,1-1.3,6.32c-.51.25-1.14.45-1.33,1a2,2,0,0,0,.12,1.2,6.06,6.06,0,0,1,.2,2.28,1,1,0,0,1-.28.72,1,1,0,0,1-.67.19c-3.09.14-4.57-1-6.46,1.73a2.09,2.09,0,0,1-.64.68,2.06,2.06,0,0,1-.85.22c-2.12.17-3.5-1.15-5.44-1.4-2.69-.34-3.26,1.05-5.63,2.16C516.19,190.54,514.38,189.46,513.68,186.92Z" style="fill:#e0e0e0"></path><path d="M495.23,199.35a10.62,10.62,0,0,1-.33-2.2c-.27-4.57-4.63-3.84-8.35-4.46-2.89-.49,4.78-7.81-1.06-10.18a5.06,5.06,0,0,1-2.82-2,3.3,3.3,0,0,1,1.27-4.05,7.81,7.81,0,0,1,4.44-1.12c.95-1.16.17-2.9-.75-4.08s-2.05-2.54-1.7-4c.53-2.21,3.61-2.29,5.83-1.86.83-1.33.81-3,1.21-4.51s1.6-3.1,3.15-2.91,2.36,1.83,3.8,2.17c1.66.39,3.11-1.08,4.41-2.19s3.6-1.8,4.5-.34c.54.87.22,2.09.78,3,1,1.48,3.27.56,4.7-.49s3.71-2,4.71-.55a6.08,6.08,0,0,1,.56,1.53c.67,1.95,2.78,2.92,4.43,4.17s2.94,3.75,1.55,5.27c-.68.76-1.89,1.06-2.23,2-.43,1.2.8,2.28,1.77,3.1,1.61,1.38,1.91,5.49-.23,6.61-.9.47-2.21.62-2.43,1.61s.7,1.57,1.3,2.25a4.25,4.25,0,0,1-1.3,6.32c-.52.25-1.15.45-1.34,1a2.08,2.08,0,0,0,.13,1.2,6.1,6.1,0,0,1,.2,2.29,1,1,0,0,1-.28.71,1,1,0,0,1-.67.19c-3.09.14-4.57-1-6.46,1.73a1.59,1.59,0,0,1-1.49.9c-2.12.17-3.51-1.15-5.44-1.4-2.69-.34-3.26,1.05-5.63,2.16C497.74,203,495.93,201.89,495.23,199.35Z" style="fill:#e0e0e0"></path><path d="M500.83,215.06s7.71,10.91,10.37,14.37,16,25,17.78,39.27c.19,1.52.38,2.83.57,4-5.73,37.78-4.83,106.88-4.63,118.71h18.13c.17-13.34,1.71-135.29,2.28-139,.6-3.94,8.18-19,19.89-25.11S587,200.7,587,200.7h-3.73s-6.92,12.5-16.76,19.42a37.67,37.67,0,0,1-4.43,2.63c.35-11.27-3.92-22.05-3.92-22.05l-2,1.86c2.72,11.14,2.36,18.27,1.54,22.37a40.11,40.11,0,0,0-10.18,6.81c-10.22-13.28-16-43.65-16-43.65L529,189.52a155.46,155.46,0,0,0,3.37,18.63c1.92,7.86,7.55,22.66,10.17,29.38A69.4,69.4,0,0,0,534.8,252a5.92,5.92,0,0,0-1-1.19c-6.65-6-19.16-34.42-19.16-34.42-3-6.61,1.6-24,1.6-24h-3.49l-1.57,15.16L502.42,198l-1.59,1.33,9.31,12,4.79,15.17-12.51-13.84Z" style="fill:#e0e0e0"></path><path d="M63.68,240.65a10.7,10.7,0,0,1-.31-2c-.25-4.23-4.28-3.56-7.71-4.13-2.68-.45,4.42-7.22-1-9.41a4.73,4.73,0,0,1-2.61-1.82,3.06,3.06,0,0,1,1.18-3.74,7.18,7.18,0,0,1,4.1-1c.89-1.08.17-2.69-.69-3.78s-1.89-2.34-1.57-3.69c.49-2,3.34-2.11,5.39-1.72.76-1.23.75-2.77,1.12-4.17s1.48-2.87,2.92-2.69,2.18,1.69,3.51,2c1.54.37,2.87-1,4.08-2s3.32-1.66,4.16-.31c.49.8.2,1.93.71,2.72.9,1.38,3,.52,4.35-.45s3.43-1.86,4.36-.51a5.35,5.35,0,0,1,.51,1.42c.63,1.8,2.58,2.7,4.1,3.86S93,212.61,91.73,214c-.64.7-1.75,1-2.07,1.87-.39,1.11.74,2.1,1.64,2.86,1.49,1.28,1.76,5.08-.21,6.12-.83.43-2,.57-2.25,1.48s.65,1.46,1.2,2.09a3.92,3.92,0,0,1-1.2,5.84c-.47.23-1.06.41-1.23.91a1.83,1.83,0,0,0,.11,1.1,5.84,5.84,0,0,1,.19,2.12.93.93,0,0,1-.26.66,1,1,0,0,1-.62.18c-2.85.12-4.23-.88-6,1.6a2.09,2.09,0,0,1-.59.63,2,2,0,0,1-.79.19c-2,.17-3.24-1.06-5-1.29-2.49-.31-3,1-5.21,2C66,244,64.33,243,63.68,240.65Z" style="fill:#e0e0e0"></path><path d="M96.52,237.1a9.88,9.88,0,0,1-.3-2c-.25-4.23-4.29-3.56-7.72-4.13-2.68-.45,4.42-7.22-1-9.41a4.73,4.73,0,0,1-2.61-1.82A3.07,3.07,0,0,1,86.08,216a7.19,7.19,0,0,1,4.11-1c.88-1.07.16-2.69-.69-3.78s-1.9-2.34-1.58-3.69c.49-2,3.34-2.11,5.4-1.72.76-1.23.74-2.77,1.11-4.17s1.48-2.87,2.92-2.69,2.18,1.69,3.51,2c1.54.37,2.87-1,4.08-2s3.33-1.66,4.16-.31c.5.81.2,1.93.72,2.72.89,1.38,3,.52,4.35-.45s3.42-1.86,4.35-.51a5.74,5.74,0,0,1,.52,1.42c.62,1.8,2.57,2.7,4.09,3.86s2.73,3.46,1.44,4.87c-.63.7-1.75,1-2.07,1.87-.39,1.11.75,2.1,1.64,2.87,1.5,1.27,1.77,5.07-.21,6.11-.83.43-2,.57-2.25,1.48s.65,1.46,1.2,2.09a3.91,3.91,0,0,1-1.2,5.84c-.47.23-1.05.41-1.23.91a1.83,1.83,0,0,0,.11,1.1,5.63,5.63,0,0,1,.19,2.12,1,1,0,0,1-.25.66,1,1,0,0,1-.63.18c-2.85.13-4.23-.88-6,1.6a2.09,2.09,0,0,1-.59.63,1.8,1.8,0,0,1-.79.19c-2,.17-3.24-1.06-5-1.29-2.49-.31-3,1-5.2,2C98.84,240.45,97.17,239.45,96.52,237.1Z" style="fill:#e0e0e0"></path><path d="M99.69,216.19a10,10,0,0,1-.31-2c-.25-4.22-4.28-3.55-7.71-4.13-2.69-.45,4.41-7.22-1-9.4a4.76,4.76,0,0,1-2.61-1.82,3.07,3.07,0,0,1,1.18-3.75,7.25,7.25,0,0,1,4.1-1c.88-1.07.17-2.68-.69-3.78s-1.9-2.34-1.57-3.69c.49-2,3.33-2.11,5.39-1.71.76-1.23.75-2.77,1.12-4.17s1.48-2.87,2.91-2.7,2.18,1.7,3.51,2c1.54.36,2.88-1,4.09-2s3.32-1.66,4.15-.32c.5.81.2,1.93.72,2.73.9,1.37,3,.52,4.35-.46s3.43-1.86,4.36-.5a5.65,5.65,0,0,1,.51,1.41c.63,1.81,2.58,2.71,4.1,3.86s2.72,3.46,1.44,4.88c-.64.69-1.75,1-2.07,1.86-.39,1.11.74,2.11,1.64,2.87,1.49,1.27,1.76,5.07-.21,6.11-.83.44-2,.57-2.25,1.49s.65,1.45,1.2,2.08a3.93,3.93,0,0,1-1.2,5.84c-.48.23-1.06.42-1.24.91a1.94,1.94,0,0,0,.12,1.11,6,6,0,0,1,.19,2.11,1,1,0,0,1-.26.67,1.05,1.05,0,0,1-.63.17c-2.85.13-4.22-.88-6,1.6a2,2,0,0,1-.6.63,1.74,1.74,0,0,1-.78.2c-2,.16-3.25-1.06-5-1.29-2.48-.32-3,1-5.2,2C102,219.53,100.34,218.54,99.69,216.19Z" style="fill:#e0e0e0"></path><path d="M121.32,226.61a10.09,10.09,0,0,1-.3-2c-.26-4.23-4.29-3.56-7.72-4.13-2.68-.45,4.42-7.22-1-9.4a4.84,4.84,0,0,1-2.61-1.82,3.07,3.07,0,0,1,1.18-3.75,7.25,7.25,0,0,1,4.1-1c.89-1.07.17-2.68-.68-3.78s-1.9-2.34-1.58-3.69c.49-2,3.34-2.11,5.4-1.71.76-1.24.74-2.78,1.11-4.18s1.48-2.86,2.92-2.69,2.18,1.69,3.51,2c1.54.36,2.87-1,4.08-2s3.32-1.67,4.16-.32c.5.81.2,1.93.72,2.73.89,1.37,3,.52,4.34-.46s3.43-1.86,4.36-.5a5.53,5.53,0,0,1,.52,1.41c.62,1.81,2.57,2.7,4.09,3.86s2.73,3.46,1.44,4.87c-.64.7-1.75,1-2.07,1.87-.39,1.11.74,2.11,1.64,2.87,1.49,1.27,1.77,5.07-.21,6.11-.83.44-2,.57-2.25,1.49s.65,1.45,1.2,2.08a3.91,3.91,0,0,1-1.2,5.84c-.47.23-1.06.42-1.23.91a1.82,1.82,0,0,0,.11,1.1,5.84,5.84,0,0,1,.19,2.12,1,1,0,0,1-.26.67,1,1,0,0,1-.62.17c-2.85.13-4.23-.88-6,1.6a2.09,2.09,0,0,1-.59.63,2,2,0,0,1-.79.2c-2,.16-3.24-1.06-5-1.29-2.49-.32-3,1-5.21,2C123.64,230,122,229,121.32,226.61Z" style="fill:#e0e0e0"></path><path d="M143.19,221.79a9.85,9.85,0,0,1-.31-2c-.25-4.23-4.28-3.56-7.72-4.13-2.68-.45,4.42-7.22-1-9.41a4.7,4.7,0,0,1-2.61-1.81,3.07,3.07,0,0,1,1.18-3.75,7.23,7.23,0,0,1,4.1-1c.88-1.07.16-2.69-.69-3.78s-1.9-2.34-1.57-3.69c.48-2,3.33-2.11,5.39-1.72.76-1.23.75-2.77,1.11-4.17s1.49-2.87,2.92-2.69,2.18,1.69,3.51,2c1.54.36,2.88-1,4.09-2s3.32-1.66,4.15-.31c.5.81.2,1.93.72,2.72.9,1.38,3,.53,4.35-.45s3.43-1.86,4.36-.5a5.51,5.51,0,0,1,.51,1.41c.63,1.8,2.58,2.7,4.1,3.86s2.72,3.46,1.43,4.87c-.63.7-1.75,1-2.06,1.87-.4,1.11.74,2.1,1.64,2.87,1.49,1.27,1.76,5.07-.21,6.11-.83.43-2,.57-2.25,1.48s.65,1.46,1.2,2.09a3.93,3.93,0,0,1-1.2,5.84c-.48.23-1.06.41-1.24.91a1.84,1.84,0,0,0,.12,1.1,6.07,6.07,0,0,1,.19,2.12,1,1,0,0,1-.26.66,1,1,0,0,1-.63.18c-2.85.13-4.22-.88-6,1.6a2.12,2.12,0,0,1-.6.63,1.88,1.88,0,0,1-.79.2c-2,.16-3.24-1.07-5-1.29-2.48-.32-3,1-5.2,2C145.5,225.14,143.84,224.14,143.19,221.79Z" style="fill:#e0e0e0"></path><path d="M143.47,245.18a8.17,8.17,0,0,1-.24-1.6c-.2-3.33-3.37-2.8-6.07-3.25-2.12-.35,3.47-5.69-.78-7.41a3.78,3.78,0,0,1-2.06-1.43,2.42,2.42,0,0,1,.93-3,5.71,5.71,0,0,1,3.23-.81c.7-.84.13-2.11-.54-3s-1.49-1.84-1.24-2.9c.38-1.61,2.63-1.66,4.25-1.35a11.57,11.57,0,0,0,.87-3.29c.3-1.1,1.17-2.25,2.3-2.12s1.72,1.34,2.76,1.58c1.22.29,2.27-.78,3.22-1.59s2.62-1.31,3.27-.25c.4.64.16,1.52.57,2.15.71,1.08,2.38.41,3.42-.36s2.7-1.46,3.44-.4a4.66,4.66,0,0,1,.4,1.12c.49,1.42,2,2.13,3.23,3s2.14,2.72,1.13,3.83c-.5.55-1.38.77-1.63,1.47-.31.88.58,1.66,1.29,2.26,1.18,1,1.39,4-.17,4.81-.65.35-1.61.45-1.77,1.17s.51,1.15.95,1.64a3.09,3.09,0,0,1-.95,4.6c-.37.18-.83.33-1,.72a1.47,1.47,0,0,0,.09.87,4.7,4.7,0,0,1,.15,1.67.8.8,0,0,1-.2.52.83.83,0,0,1-.49.14c-2.25.1-3.33-.7-4.7,1.26a1.69,1.69,0,0,1-.47.49,1.5,1.5,0,0,1-.62.16c-1.54.12-2.55-.84-4-1-2-.25-2.38.76-4.1,1.57C145.3,247.82,144,247,143.47,245.18Z" style="fill:#e0e0e0"></path><path d="M155.72,237.1a9.88,9.88,0,0,1-.3-2c-.25-4.23-4.29-3.56-7.72-4.13-2.68-.45,4.42-7.22-1-9.41a4.73,4.73,0,0,1-2.61-1.82,3.07,3.07,0,0,1,1.18-3.74,7.19,7.19,0,0,1,4.11-1c.88-1.07.16-2.69-.69-3.78s-1.9-2.34-1.58-3.69c.49-2,3.34-2.11,5.4-1.72.76-1.23.74-2.77,1.11-4.17s1.48-2.87,2.92-2.69,2.18,1.69,3.51,2c1.54.37,2.87-1,4.08-2s3.33-1.66,4.16-.31c.5.81.2,1.93.72,2.72.89,1.38,3,.52,4.35-.45s3.42-1.86,4.35-.51a5.74,5.74,0,0,1,.52,1.42c.62,1.8,2.57,2.7,4.09,3.86s2.73,3.46,1.44,4.87c-.63.7-1.75,1-2.06,1.87-.4,1.11.74,2.1,1.63,2.87,1.5,1.27,1.77,5.07-.21,6.11-.83.43-2,.57-2.25,1.48s.65,1.46,1.2,2.09a3.91,3.91,0,0,1-1.2,5.84c-.47.23-1,.41-1.23.91a1.83,1.83,0,0,0,.11,1.1,5.63,5.63,0,0,1,.19,2.12,1,1,0,0,1-.25.66,1,1,0,0,1-.63.18c-2.85.13-4.23-.88-6,1.6a2.09,2.09,0,0,1-.59.63,1.8,1.8,0,0,1-.79.19c-2,.17-3.24-1.06-5-1.29-2.49-.31-3,1-5.2,2C158,240.45,156.37,239.45,155.72,237.1Z" style="fill:#e0e0e0"></path><path d="M121.32,200.88a10,10,0,0,1-.3-2c-.26-4.22-4.29-3.55-7.72-4.13-2.68-.44,4.42-7.22-1-9.4a4.84,4.84,0,0,1-2.61-1.82,3.07,3.07,0,0,1,1.18-3.75,7.34,7.34,0,0,1,4.1-1c.89-1.07.17-2.68-.68-3.78s-1.9-2.34-1.58-3.69c.49-2,3.34-2.11,5.4-1.71.76-1.23.74-2.77,1.11-4.17s1.48-2.87,2.92-2.69,2.18,1.69,3.51,2c1.54.36,2.87-1,4.08-2s3.32-1.66,4.16-.32c.5.81.2,1.93.72,2.73.89,1.37,3,.52,4.34-.45s3.43-1.86,4.36-.51a5.82,5.82,0,0,1,.52,1.41c.62,1.81,2.57,2.71,4.09,3.87s2.73,3.45,1.44,4.87c-.64.69-1.75,1-2.07,1.86-.39,1.11.74,2.11,1.64,2.87,1.49,1.27,1.77,5.07-.21,6.11-.83.44-2,.57-2.25,1.49s.65,1.45,1.2,2.08a3.92,3.92,0,0,1-1.2,5.85c-.47.22-1.06.41-1.23.9a1.85,1.85,0,0,0,.11,1.11,5.79,5.79,0,0,1,.19,2.11.94.94,0,0,1-.26.67,1,1,0,0,1-.62.17c-2.85.13-4.23-.88-6,1.6a2,2,0,0,1-.59.63,1.81,1.81,0,0,1-.79.2c-2,.16-3.24-1.06-5-1.29-2.49-.32-3,1-5.21,2C123.64,204.22,122,203.23,121.32,200.88Z" style="fill:#e0e0e0"></path><path d="M93.23,202.32a10.09,10.09,0,0,1-.3-2c-.25-4.23-4.29-3.56-7.72-4.13-2.68-.45,4.42-7.22-1-9.41a4.77,4.77,0,0,1-2.61-1.81,3.09,3.09,0,0,1,1.18-3.75,7.27,7.27,0,0,1,4.11-1c.88-1.07.16-2.68-.69-3.78s-1.9-2.34-1.58-3.69c.49-2,3.34-2.11,5.4-1.71.76-1.24.74-2.78,1.11-4.18s1.48-2.86,2.92-2.69,2.18,1.69,3.51,2c1.54.36,2.87-1,4.08-2s3.33-1.66,4.16-.31c.5.81.2,1.93.72,2.73.89,1.37,3,.52,4.35-.46s3.42-1.86,4.35-.5a5.53,5.53,0,0,1,.52,1.41c.62,1.8,2.57,2.7,4.09,3.86s2.73,3.46,1.44,4.87c-.63.7-1.75,1-2.06,1.87-.4,1.11.74,2.11,1.63,2.87,1.5,1.27,1.77,5.07-.21,6.11-.83.44-2,.57-2.25,1.48s.65,1.46,1.2,2.09a3.91,3.91,0,0,1-1.2,5.84c-.47.23-1,.42-1.23.91a1.82,1.82,0,0,0,.11,1.1,5.63,5.63,0,0,1,.19,2.12,1,1,0,0,1-.25.66,1,1,0,0,1-.63.18c-2.85.13-4.23-.88-6,1.6a2.09,2.09,0,0,1-.59.63,2,2,0,0,1-.79.2c-2,.16-3.24-1.07-5-1.29-2.49-.32-3,1-5.2,2C95.55,205.66,93.88,204.66,93.23,202.32Z" style="fill:#e0e0e0"></path><path d="M76.17,213.81a10,10,0,0,1-.3-2c-.26-4.22-4.29-3.55-7.72-4.12-2.68-.45,4.42-7.23-1-9.41a4.79,4.79,0,0,1-2.61-1.82,3.07,3.07,0,0,1,1.18-3.75,7.34,7.34,0,0,1,4.1-1c.89-1.07.17-2.68-.68-3.77s-1.9-2.34-1.58-3.69c.49-2,3.34-2.12,5.4-1.72.76-1.23.74-2.77,1.11-4.17s1.48-2.87,2.92-2.69,2.18,1.69,3.51,2c1.54.37,2.87-1,4.08-2s3.32-1.66,4.16-.31c.5.8.2,1.93.72,2.72.89,1.38,3,.52,4.34-.45s3.43-1.86,4.36-.51a5.82,5.82,0,0,1,.52,1.41c.62,1.81,2.57,2.71,4.09,3.87s2.73,3.46,1.44,4.87c-.64.7-1.75,1-2.07,1.87-.39,1.11.74,2.1,1.64,2.86,1.49,1.27,1.77,5.08-.21,6.11-.83.44-2,.58-2.25,1.49s.65,1.45,1.2,2.08a3.92,3.92,0,0,1-1.2,5.85c-.47.22-1.06.41-1.23.91a1.83,1.83,0,0,0,.11,1.1,5.84,5.84,0,0,1,.19,2.12.93.93,0,0,1-.26.66,1,1,0,0,1-.62.18c-2.85.12-4.23-.89-6,1.6a2.22,2.22,0,0,1-.59.63,2,2,0,0,1-.79.19c-2,.16-3.24-1.06-5-1.29-2.49-.32-3,1-5.21,2C78.49,217.16,76.82,216.16,76.17,213.81Z" style="fill:#e0e0e0"></path><path d="M81.35,228.34s7.13,10.09,9.59,13.29,14.76,23.12,16.44,36.31c.18,1.4.35,2.61.52,3.67-5.29,34.93-4.46,98.83-4.27,109.77h16.76c.16-12.34,1.58-125.1,2.11-128.55.55-3.64,7.56-17.51,18.39-23.21s20.18-24.57,20.18-24.57h-3.45s-6.4,11.57-15.5,18a33.46,33.46,0,0,1-4.1,2.43c.33-10.42-3.62-20.39-3.62-20.39l-1.86,1.73c2.51,10.29,2.18,16.89,1.42,20.68a37.45,37.45,0,0,0-9.41,6.3c-9.44-12.28-14.75-40.36-14.75-40.36l-2.42,1.32a141.66,141.66,0,0,0,3.12,17.22c1.77,7.27,7,21,9.4,27.17a64.06,64.06,0,0,0-7.13,13.39,5.72,5.72,0,0,0-.91-1.09c-6.16-5.56-17.72-31.84-17.72-31.84-2.8-6.11,1.48-22.14,1.48-22.14H92.39l-1.45,14-8.12-8.86-1.47,1.23L90,224.89l4.43,14-11.57-12.8Z" style="fill:#e0e0e0"></path><path d="M423.9,315a5.2,5.2,0,0,1-.15-1c-.13-2.14-2.17-1.8-3.91-2.09-1.36-.23,2.24-3.66-.5-4.76a2.4,2.4,0,0,1-1.32-.93,1.55,1.55,0,0,1,.59-1.9,3.84,3.84,0,0,1,2.08-.52c.45-.54.09-1.36-.35-1.91s-1-1.19-.79-1.87c.24-1,1.69-1.07,2.73-.87a7.56,7.56,0,0,0,.56-2.11c.19-.71.75-1.46,1.48-1.37s1.11.86,1.78,1,1.46-.51,2.07-1,1.68-.84,2.11-.16c.25.41.1,1,.36,1.38.46.7,1.53.27,2.2-.23s1.74-.94,2.21-.25a2.52,2.52,0,0,1,.26.71c.32.92,1.31,1.37,2.08,2s1.38,1.75.73,2.47c-.32.35-.89.5-1.05.95s.38,1.06.83,1.45c.76.64.89,2.57-.11,3.1-.42.22-1,.29-1.14.75s.33.74.61,1.05a2,2,0,0,1-.61,3c-.24.11-.53.21-.62.46a1,1,0,0,0,.06.56,3,3,0,0,1,.09,1.07.44.44,0,0,1-.13.33.42.42,0,0,1-.31.09c-1.45.07-2.15-.44-3,.81a.84.84,0,0,1-.3.32.91.91,0,0,1-.4.1c-1,.09-1.64-.53-2.55-.65-1.26-.16-1.53.49-2.64,1C425.08,316.69,424.23,316.19,423.9,315Z" style="fill:#ebebeb"></path><path d="M440.55,313.2a4.54,4.54,0,0,1-.16-1c-.13-2.15-2.17-1.81-3.91-2.1-1.36-.22,2.24-3.66-.5-4.76a2.43,2.43,0,0,1-1.32-.92,1.55,1.55,0,0,1,.6-1.9,3.72,3.72,0,0,1,2.08-.53c.44-.54.08-1.36-.35-1.91s-1-1.19-.8-1.87c.25-1,1.69-1.07,2.73-.87a7.39,7.39,0,0,0,.57-2.11c.18-.71.75-1.46,1.48-1.37s1.1.86,1.77,1,1.46-.51,2.07-1,1.69-.84,2.11-.16c.25.41.1,1,.36,1.38.46.7,1.54.27,2.21-.22s1.74-.95,2.21-.26a3.23,3.23,0,0,1,.26.72c.31.91,1.3,1.37,2.07,2s1.38,1.76.73,2.47c-.32.35-.89.5-1.05.95s.38,1.06.83,1.45c.76.64.9,2.57-.1,3.1-.42.22-1,.29-1.14.75s.33.74.61,1.06a2,2,0,0,1-.61,3c-.24.11-.54.21-.63.46a1,1,0,0,0,.06.56,3,3,0,0,1,.1,1.07.57.57,0,0,1-.13.34.59.59,0,0,1-.32.09c-1.45.06-2.14-.45-3,.81a1,1,0,0,1-.3.32,1.07,1.07,0,0,1-.4.1c-1,.08-1.64-.54-2.55-.66-1.26-.16-1.52.49-2.63,1C441.72,314.89,440.88,314.39,440.55,313.2Z" style="fill:#ebebeb"></path><path d="M442.15,302.6a5.09,5.09,0,0,1-.15-1c-.13-2.14-2.18-1.81-3.91-2.1-1.36-.22,2.23-3.65-.51-4.76a2.47,2.47,0,0,1-1.32-.92,1.57,1.57,0,0,1,.6-1.9,3.63,3.63,0,0,1,2.08-.52c.45-.55.08-1.36-.35-1.92s-1-1.19-.8-1.87c.25-1,1.69-1.07,2.74-.87a7.72,7.72,0,0,0,.56-2.11c.19-.71.75-1.46,1.48-1.37s1.1.86,1.78,1,1.45-.51,2.07-1,1.68-.84,2.1-.15c.26.4.11,1,.37,1.38.45.69,1.53.26,2.2-.23s1.74-1,2.21-.26a2.58,2.58,0,0,1,.26.72c.32.91,1.31,1.37,2.08,1.95s1.38,1.76.72,2.47c-.32.36-.88.5-1,.95s.37,1.06.83,1.45c.75.65.89,2.57-.11,3.1-.42.22-1,.29-1.14.75s.33.74.61,1.06a2,2,0,0,1-.61,3c-.24.11-.53.21-.62.46a.91.91,0,0,0,.05.56,3,3,0,0,1,.1,1.07.51.51,0,0,1-.13.34.59.59,0,0,1-.32.09c-1.44.06-2.14-.45-3,.81a1.31,1.31,0,0,1-.3.32,1.07,1.07,0,0,1-.4.1c-1,.08-1.64-.54-2.55-.66-1.26-.16-1.53.49-2.64,1C443.33,304.29,442.48,303.79,442.15,302.6Z" style="fill:#ebebeb"></path><path d="M453.12,307.88a4.45,4.45,0,0,1-.16-1c-.13-2.15-2.17-1.81-3.91-2.1-1.36-.22,2.24-3.66-.5-4.76a2.43,2.43,0,0,1-1.32-.92,1.55,1.55,0,0,1,.59-1.9,3.67,3.67,0,0,1,2.08-.52c.45-.55.09-1.37-.35-1.92s-1-1.19-.79-1.87c.24-1,1.69-1.07,2.73-.87a7.07,7.07,0,0,0,.56-2.11c.19-.71.76-1.46,1.48-1.37s1.11.86,1.78,1,1.46-.51,2.07-1,1.69-.84,2.11-.16c.25.41.1,1,.36,1.39.46.69,1.54.26,2.21-.23s1.73-.95,2.2-.26a2.47,2.47,0,0,1,.26.72c.32.91,1.31,1.37,2.08,2s1.38,1.76.73,2.47c-.32.35-.89.5-1.05.95s.38,1.06.83,1.45c.76.64.9,2.57-.11,3.1-.42.22-1,.29-1.13.75s.32.74.6,1.06a2,2,0,0,1-.61,3c-.24.11-.53.21-.62.46a1,1,0,0,0,.06.56,3,3,0,0,1,.09,1.07.47.47,0,0,1-.13.34.54.54,0,0,1-.31.09c-1.45.06-2.15-.45-3,.81a1,1,0,0,1-.3.32,1.07,1.07,0,0,1-.4.1c-1,.08-1.64-.54-2.55-.66-1.26-.16-1.53.49-2.64,1C454.29,309.57,453.44,309.07,453.12,307.88Z" style="fill:#ebebeb"></path><path d="M464.2,305.44a4.45,4.45,0,0,1-.16-1c-.13-2.14-2.17-1.8-3.91-2.1-1.36-.22,2.24-3.65-.5-4.76a2.43,2.43,0,0,1-1.32-.92,1.55,1.55,0,0,1,.59-1.9,3.67,3.67,0,0,1,2.08-.52c.45-.55.09-1.36-.35-1.92s-1-1.18-.79-1.87c.24-1,1.69-1.07,2.73-.87a7.07,7.07,0,0,0,.56-2.11c.19-.71.76-1.45,1.48-1.37s1.11.86,1.78,1,1.46-.51,2.07-1,1.69-.85,2.11-.16c.25.4.1,1,.36,1.38.46.69,1.54.26,2.21-.23s1.73-.95,2.2-.26a2.58,2.58,0,0,1,.26.72c.32.91,1.31,1.37,2.08,2s1.38,1.76.73,2.47c-.32.36-.89.5-1.05.95s.38,1.07.83,1.45c.76.65.9,2.57-.11,3.1-.42.22-1,.29-1.13.75s.32.74.6,1.06a2,2,0,0,1-.61,3c-.24.11-.53.21-.62.46a1,1,0,0,0,.06.56,2.76,2.76,0,0,1,.09,1.07.47.47,0,0,1-.13.34.54.54,0,0,1-.31.09c-1.45.06-2.15-.45-3,.81a1,1,0,0,1-.3.32.91.91,0,0,1-.4.1c-1,.08-1.64-.54-2.55-.66-1.26-.16-1.52.49-2.63,1C465.37,307.13,464.52,306.63,464.2,305.44Z" style="fill:#ebebeb"></path><path d="M464.34,317.29a3.84,3.84,0,0,1-.12-.81c-.1-1.69-1.71-1.42-3.08-1.65-1.07-.18,1.76-2.88-.4-3.75a1.91,1.91,0,0,1-1-.73,1.23,1.23,0,0,1,.47-1.49,2.91,2.91,0,0,1,1.64-.41c.35-.43.07-1.07-.27-1.51s-.76-.93-.63-1.47c.19-.82,1.33-.85,2.15-.69a5.73,5.73,0,0,0,.44-1.66c.15-.56.6-1.15,1.17-1.08s.87.68,1.4.8,1.15-.4,1.63-.8,1.33-.67,1.66-.13c.2.32.08.77.28,1.09.36.55,1.21.21,1.74-.18s1.37-.74,1.74-.2a2.07,2.07,0,0,1,.2.56c.25.72,1,1.08,1.64,1.54s1.08,1.38.57,1.95c-.25.27-.7.39-.82.74s.29.84.65,1.14c.6.51.7,2-.08,2.44-.33.18-.82.23-.9.6s.26.58.48.83a1.57,1.57,0,0,1-.48,2.33c-.19.09-.42.16-.49.36a.74.74,0,0,0,0,.44,2.44,2.44,0,0,1,.08.85.4.4,0,0,1-.1.26.38.38,0,0,1-.25.07c-1.14,0-1.69-.35-2.39.64a.78.78,0,0,1-.23.25.72.72,0,0,1-.32.08c-.78.06-1.29-.42-2-.52-1-.12-1.21.39-2.08.8C465.26,318.63,464.6,318.23,464.34,317.29Z" style="fill:#ebebeb"></path><path d="M470.55,313.2a6,6,0,0,1-.16-1c-.12-2.15-2.17-1.81-3.91-2.1-1.36-.22,2.24-3.66-.5-4.76a2.43,2.43,0,0,1-1.32-.92,1.55,1.55,0,0,1,.6-1.9,3.72,3.72,0,0,1,2.08-.53c.44-.54.08-1.36-.35-1.91s-1-1.19-.8-1.87c.25-1,1.69-1.07,2.73-.87a7.39,7.39,0,0,0,.57-2.11c.18-.71.75-1.46,1.48-1.37s1.1.86,1.77,1,1.46-.51,2.07-1,1.69-.84,2.11-.16c.25.41.1,1,.36,1.38.46.7,1.54.27,2.21-.22s1.74-.95,2.21-.26a3.23,3.23,0,0,1,.26.72c.31.91,1.3,1.37,2.07,2s1.38,1.76.73,2.47c-.32.35-.89.5-1.05.95s.38,1.06.83,1.45c.76.64.9,2.57-.1,3.1-.42.22-1,.29-1.14.75s.33.74.61,1.06a2,2,0,0,1-.61,3c-.24.11-.54.21-.63.46a1,1,0,0,0,.06.56,3,3,0,0,1,.1,1.07.51.51,0,0,1-.13.34.59.59,0,0,1-.32.09c-1.45.06-2.14-.45-3,.81a1,1,0,0,1-.3.32,1.07,1.07,0,0,1-.39.1c-1,.08-1.65-.54-2.56-.66-1.26-.16-1.52.49-2.63,1C471.72,314.89,470.88,314.39,470.55,313.2Z" style="fill:#ebebeb"></path><path d="M453.12,294.84a4.45,4.45,0,0,1-.16-1c-.13-2.14-2.17-1.8-3.91-2.09-1.36-.23,2.24-3.66-.5-4.77a2.43,2.43,0,0,1-1.32-.92,1.55,1.55,0,0,1,.59-1.9,3.67,3.67,0,0,1,2.08-.52c.45-.55.09-1.36-.35-1.92s-1-1.18-.79-1.87c.24-1,1.69-1.07,2.73-.87a7.07,7.07,0,0,0,.56-2.11c.19-.71.76-1.45,1.48-1.37s1.11.86,1.78,1,1.46-.51,2.07-1,1.69-.85,2.11-.16c.25.41.1,1,.36,1.38.46.7,1.54.26,2.21-.23s1.73-.94,2.2-.26a2.58,2.58,0,0,1,.26.72c.32.91,1.31,1.37,2.08,2s1.38,1.75.73,2.46c-.32.36-.89.5-1.05,1s.38,1.07.83,1.45c.76.65.9,2.57-.11,3.1-.42.22-1,.29-1.13.75s.32.74.6,1.06a2,2,0,0,1-.61,3c-.24.12-.53.21-.62.46a1,1,0,0,0,.06.56,3,3,0,0,1,.09,1.07.45.45,0,0,1-.13.34.54.54,0,0,1-.31.09c-1.45.06-2.15-.45-3,.81a1,1,0,0,1-.3.32.91.91,0,0,1-.4.1c-1,.08-1.64-.54-2.55-.66-1.26-.16-1.53.49-2.64,1C454.29,296.54,453.44,296,453.12,294.84Z" style="fill:#ebebeb"></path><path d="M438.88,295.57a5.87,5.87,0,0,1-.16-1c-.12-2.15-2.17-1.81-3.91-2.1-1.35-.22,2.24-3.66-.5-4.76a2.47,2.47,0,0,1-1.32-.92,1.57,1.57,0,0,1,.6-1.9,3.63,3.63,0,0,1,2.08-.52c.45-.55.08-1.37-.35-1.92s-1-1.19-.8-1.87c.25-1,1.69-1.07,2.74-.87a7.72,7.72,0,0,0,.56-2.11c.19-.71.75-1.46,1.48-1.37s1.1.86,1.78,1,1.45-.51,2.07-1,1.68-.84,2.1-.15c.26.4.1,1,.37,1.38.45.69,1.53.26,2.2-.23s1.74-.95,2.21-.26a2.94,2.94,0,0,1,.26.72c.32.91,1.31,1.37,2.08,2s1.38,1.76.72,2.47c-.32.36-.88.5-1,.95s.37,1.06.83,1.45c.75.65.89,2.57-.11,3.1-.42.22-1,.29-1.14.75s.33.74.61,1.06a2,2,0,0,1-.61,3c-.24.11-.54.21-.62.46a.91.91,0,0,0,.05.56,3,3,0,0,1,.1,1.07.51.51,0,0,1-.13.34.59.59,0,0,1-.32.09c-1.44.06-2.14-.45-3,.81a1.31,1.31,0,0,1-.3.32,1.12,1.12,0,0,1-.4.1c-1,.08-1.65-.54-2.55-.66-1.26-.16-1.53.49-2.64,1C440.05,297.26,439.21,296.76,438.88,295.57Z" style="fill:#ebebeb"></path><path d="M430.23,301.39a5.09,5.09,0,0,1-.15-1c-.13-2.14-2.17-1.8-3.91-2.09-1.36-.23,2.24-3.66-.5-4.77a2.38,2.38,0,0,1-1.32-.92,1.55,1.55,0,0,1,.59-1.9,3.67,3.67,0,0,1,2.08-.52c.45-.54.09-1.36-.35-1.91s-1-1.19-.79-1.87c.24-1,1.69-1.07,2.73-.87a7.54,7.54,0,0,0,.56-2.12c.19-.71.75-1.45,1.48-1.36s1.11.86,1.78,1,1.46-.5,2.07-1,1.68-.84,2.11-.16c.25.41.1,1,.36,1.38.46.7,1.53.27,2.2-.23s1.74-.94,2.21-.25a2.52,2.52,0,0,1,.26.71c.32.92,1.31,1.37,2.08,2s1.38,1.75.73,2.47c-.32.35-.89.49-1.05.94s.38,1.07.83,1.46c.76.64.89,2.57-.11,3.09-.42.22-1,.29-1.14.76s.33.73.61,1.05a2,2,0,0,1-.61,3c-.24.12-.53.21-.62.46a.91.91,0,0,0,.06.56,3,3,0,0,1,.09,1.08.44.44,0,0,1-.13.33.42.42,0,0,1-.31.09c-1.45.07-2.15-.45-3,.81a.92.92,0,0,1-.3.32.91.91,0,0,1-.4.1c-1,.08-1.64-.54-2.55-.65-1.26-.16-1.53.49-2.64,1C431.41,303.09,430.56,302.58,430.23,301.39Z" style="fill:#ebebeb"></path><path d="M432.86,308.76s3.61,5.11,4.86,6.73,7.48,11.72,8.33,18.4q.13,1.07.27,1.86c-2.69,17.7-2.27,50.09-2.17,55.63h8.49c.08-6.25.8-63.4,1.07-65.14s3.83-8.88,9.32-11.77S473.26,302,473.26,302h-1.75s-3.24,5.86-7.86,9.11a18.18,18.18,0,0,1-2.07,1.23A29.54,29.54,0,0,0,459.74,302l-.94.88c1.27,5.22,1.11,8.56.72,10.48a18.82,18.82,0,0,0-4.77,3.19c-4.79-6.22-7.48-20.45-7.48-20.45l-1.22.67a73.07,73.07,0,0,0,1.58,8.72c.9,3.69,3.54,10.62,4.76,13.77a32.7,32.7,0,0,0-3.61,6.79,3.2,3.2,0,0,0-.46-.56c-3.12-2.81-9-16.13-9-16.13-1.42-3.1.75-11.22.75-11.22h-1.64l-.73,7.11-4.12-4.49-.74.62,4.36,5.61,2.24,7.11-5.86-6.49Z" style="fill:#e6e6e6"></path><path d="M559.08,386.94c4.66-2.57,10.73,4.44,10.73,4.44s-6.77-9.15-3.5-10.72,9.48,6.28,9.48,6.28-5.4-11.45-1.66-12.23c1.81-.38,4.81,2.8,7.43,6.18.27-4.32,1.32-8.86,4.46-9.28,3.69-.49,5.31,5.61,6,10.54,2.8-3.79,6.34-7.87,8.38-7.44,3.74.78-1.66,12.23-1.66,12.23s6.2-7.86,9.48-6.28-3.51,10.72-3.51,10.72,6.08-7,10.74-4.44a10.13,10.13,0,0,1,5.3,6.54h-67A10.13,10.13,0,0,1,559.08,386.94Z" style="fill:#e0e0e0"></path><path d="M641.25,386.94c4.65-2.57,10.73,4.44,10.73,4.44s-6.78-9.15-3.5-10.72,9.47,6.28,9.47,6.28-5.39-11.45-1.66-12.23c1.81-.38,4.81,2.8,7.43,6.18.27-4.32,1.32-8.86,4.46-9.28,3.69-.49,5.31,5.61,6,10.54,2.8-3.79,6.35-7.87,8.38-7.44,3.74.78-1.65,12.23-1.65,12.23s6.2-7.86,9.47-6.28-3.5,10.72-3.5,10.72,6.07-7,10.73-4.44a10.13,10.13,0,0,1,5.3,6.54h-67A10.13,10.13,0,0,1,641.25,386.94Z" style="fill:#e0e0e0"></path><path d="M508.13,386.94c4.65-2.57,10.73,4.44,10.73,4.44s-6.78-9.15-3.5-10.72,9.47,6.28,9.47,6.28-5.39-11.45-1.66-12.23c1.81-.38,4.81,2.8,7.43,6.18.27-4.32,1.32-8.86,4.46-9.28,3.69-.49,5.31,5.61,6,10.54,2.8-3.79,6.35-7.87,8.38-7.44,3.74.78-1.65,12.23-1.65,12.23s6.2-7.86,9.47-6.28-3.5,10.72-3.5,10.72,6.07-7,10.73-4.44a10.13,10.13,0,0,1,5.3,6.54h-67A10.13,10.13,0,0,1,508.13,386.94Z" style="fill:#e0e0e0"></path><path d="M440.91,386.94c4.65-2.57,10.73,4.44,10.73,4.44s-6.78-9.15-3.5-10.72,9.47,6.28,9.47,6.28-5.39-11.45-1.66-12.23c1.81-.38,4.81,2.8,7.43,6.18.27-4.32,1.32-8.86,4.46-9.28,3.69-.49,5.31,5.61,6,10.54,2.8-3.79,6.35-7.87,8.38-7.44,3.74.78-1.65,12.23-1.65,12.23s6.19-7.86,9.47-6.28-3.5,10.72-3.5,10.72,6.07-7,10.73-4.44a10.13,10.13,0,0,1,5.3,6.54h-67A10.13,10.13,0,0,1,440.91,386.94Z" style="fill:#e0e0e0"></path><path d="M415.5,386.94c4.66-2.57,10.73,4.44,10.73,4.44s-6.77-9.15-3.5-10.72,9.48,6.28,9.48,6.28-5.4-11.45-1.66-12.23c1.81-.38,4.81,2.8,7.43,6.18.27-4.32,1.32-8.86,4.46-9.28,3.69-.49,5.31,5.61,6,10.54,2.8-3.79,6.34-7.87,8.38-7.44,3.74.78-1.66,12.23-1.66,12.23s6.2-7.86,9.48-6.28-3.51,10.72-3.51,10.72,6.08-7,10.74-4.44a10.13,10.13,0,0,1,5.3,6.54h-67A10.13,10.13,0,0,1,415.5,386.94Z" style="fill:#e0e0e0"></path><path d="M355.25,386.94c4.66-2.57,10.73,4.44,10.73,4.44s-6.77-9.15-3.5-10.72,9.47,6.28,9.47,6.28-5.39-11.45-1.65-12.23c1.81-.38,4.81,2.8,7.42,6.18.28-4.32,1.33-8.86,4.47-9.28,3.69-.49,5.31,5.61,6,10.54,2.8-3.79,6.34-7.87,8.38-7.44,3.74.78-1.66,12.23-1.66,12.23s6.2-7.86,9.47-6.28-3.5,10.72-3.5,10.72,6.08-7,10.73-4.44a10.13,10.13,0,0,1,5.31,6.54H350A10.13,10.13,0,0,1,355.25,386.94Z" style="fill:#e0e0e0"></path><path d="M304.3,386.94c4.65-2.57,10.73,4.44,10.73,4.44s-6.78-9.15-3.5-10.72,9.47,6.28,9.47,6.28-5.39-11.45-1.66-12.23c1.81-.38,4.81,2.8,7.43,6.18.27-4.32,1.32-8.86,4.46-9.28,3.69-.49,5.31,5.61,6,10.54,2.8-3.79,6.35-7.87,8.38-7.44,3.74.78-1.65,12.23-1.65,12.23s6.19-7.86,9.47-6.28-3.5,10.72-3.5,10.72,6.07-7,10.73-4.44a10.13,10.13,0,0,1,5.3,6.54H299A10.13,10.13,0,0,1,304.3,386.94Z" style="fill:#e0e0e0"></path><path d="M253.34,386.94c4.65-2.57,10.73,4.44,10.73,4.44s-6.77-9.15-3.5-10.72,9.47,6.28,9.47,6.28-5.39-11.45-1.66-12.23c1.81-.38,4.82,2.8,7.43,6.18.27-4.32,1.32-8.86,4.46-9.28,3.69-.49,5.31,5.61,6,10.54,2.81-3.79,6.35-7.87,8.39-7.44,3.73.78-1.66,12.23-1.66,12.23s6.2-7.86,9.47-6.28-3.5,10.72-3.5,10.72,6.08-7,10.73-4.44a10.17,10.17,0,0,1,5.31,6.54H248A10.13,10.13,0,0,1,253.34,386.94Z" style="fill:#e0e0e0"></path><path d="M202.38,386.94c4.65-2.57,10.73,4.44,10.73,4.44s-6.77-9.15-3.5-10.72,9.47,6.28,9.47,6.28-5.39-11.45-1.65-12.23c1.81-.38,4.81,2.8,7.42,6.18.28-4.32,1.32-8.86,4.46-9.28,3.69-.49,5.32,5.61,6,10.54,2.8-3.79,6.34-7.87,8.38-7.44,3.73.78-1.66,12.23-1.66,12.23s6.2-7.86,9.47-6.28-3.5,10.72-3.5,10.72,6.08-7,10.73-4.44a10.13,10.13,0,0,1,5.31,6.54h-67A10.17,10.17,0,0,1,202.38,386.94Z" style="fill:#e0e0e0"></path><path d="M170,386.94c4.65-2.57,10.73,4.44,10.73,4.44s-6.77-9.15-3.5-10.72,9.47,6.28,9.47,6.28-5.39-11.45-1.66-12.23c1.81-.38,4.82,2.8,7.43,6.18.28-4.32,1.32-8.86,4.46-9.28,3.69-.49,5.32,5.61,6,10.54,2.81-3.79,6.35-7.87,8.39-7.44,3.73.78-1.66,12.23-1.66,12.23s6.2-7.86,9.47-6.28-3.5,10.72-3.5,10.72,6.08-7,10.73-4.44a10.17,10.17,0,0,1,5.31,6.54h-67A10.17,10.17,0,0,1,170,386.94Z" style="fill:#e0e0e0"></path><path d="M77.92,386.94c4.65-2.57,10.73,4.44,10.73,4.44s-6.77-9.15-3.5-10.72,9.47,6.28,9.47,6.28S89.23,375.49,93,374.71c1.81-.38,4.81,2.8,7.42,6.18.28-4.32,1.32-8.86,4.47-9.28,3.69-.49,5.31,5.61,6,10.54,2.8-3.79,6.34-7.87,8.38-7.44,3.73.78-1.66,12.23-1.66,12.23s6.2-7.86,9.47-6.28-3.5,10.72-3.5,10.72,6.08-7,10.73-4.44a10.13,10.13,0,0,1,5.31,6.54h-67A10.13,10.13,0,0,1,77.92,386.94Z" style="fill:#e0e0e0"></path></g><g id="background-simple"><path d="M193.66,197.08c3.77,15,13,29.82,28.23,43.49,17.92,16.11,46.41,33.3,85.4,31.62,72-3.1,76.1-42.44,123.54-31.13,53.73,12.81,117.94,11.4,138.54-27.34C608.5,140.14,418,34.16,307.82,52.2,239.24,63.43,173.62,117.54,193.66,197.08Z" style="fill:#407BFF"></path><path d="M193.66,197.08c3.77,15,13,29.82,28.23,43.49,17.92,16.11,46.41,33.3,85.4,31.62,72-3.1,76.1-42.44,123.54-31.13,53.73,12.81,117.94,11.4,138.54-27.34C608.5,140.14,418,34.16,307.82,52.2,239.24,63.43,173.62,117.54,193.66,197.08Z" style="fill:#fff;opacity:0.9"></path></g><g id="Shadow"><path d="M583.88,448.39c0,3.39-93.52,6.14-208.88,6.14s-208.88-2.75-208.88-6.14,93.52-6.13,208.88-6.13S583.88,445,583.88,448.39Z" style="fill:#f5f5f5"></path></g><g id="plants-2"><path d="M150.8,377.31s6-36.62,18.56-49.64c0,0-24.86,15.92-28.51,44.71,0,0,2-23.14,9.62-34.3,0,0-10.06,7.07-12.49,24.31,0,0-4.75-37.59,14.15-60.4,0,0-21.55,11-29.84,37.5,0,0,7-23.92,0-46.26,0,0-.8,17.36-9.85,31.82,0,0,.24-22-10.7-34.28,0,0,7.1,13.59,5.21,29.84,0,0-17.81-13.58-18.14-28.67,0,0-13.93,21.49-8.29,46.14,0,0-7.63-11.28-5.64-28.29,0,0-7.95,12.82-.33,36.69,0,0-15.25-2.49-18.23-18.49S58,302.77,58,302.77s-18.24,27.13-1,44.7c0,0-7.62,1.42-12.6-4.76s-12.59-2-12.59-2,7.55-2.15,14.38,11.11S61,363.72,61,363.72s-17.57,4.64-24.86-2.66c0,0,1.65,7.31,6.3,11.11,0,0-8-1.16-10.61,2.49,0,0,12.93,2.88,16.9,13.87,0,0-5.3-6.58-12.59-4.95a20.69,20.69,0,0,1,11.68,7.24c-3.27.81-6.59,1.68-10,2.66H159.34a65.47,65.47,0,0,0-8.49-3.25c.49-3,4.59-25.84,18.51-33.53C169.36,356.7,156.44,361.14,150.8,377.31Z" style="fill:#263238"></path><path d="M412.49,390c2-4.7,6.17-13.05,12.37-17.45A39.28,39.28,0,0,0,405.06,384s7.07-16.53,8-27.31c0,0-4.51,14.53-10.75,22.82,0,0-3.2-18.55,8.89-32.27,0,0-14.5,3.54-18.92,16.36,0,0-.44-6.49,6.63-19.16,0,0-10.16,8.7-11.49,22.55,0,0-3.72-5.6-4.51-17.54a18.39,18.39,0,0,0-10.67-15.82s5.07,11.74-7.78,23.06a37.3,37.3,0,0,0,.53-17.21,20.62,20.62,0,0,1-6.74,17.21s-9.32-7.24-9-24.64c0,0-13.49,17-10.66,32.87,0,0-6.24-9.57-3.91-20.48,0,0-4.83,11.79-1.25,22.55,0,0-13.75-11.63-14.81-25.86a29.83,29.83,0,0,0-5.8,23.1c-1.31-4.9-5.05-14.43-14.75-17.43,0,0,1.44,6.55-1.25,16,0,0-3.56-6.08-6.13-8.45,0,0,3.19,4.42,0,15,0,0-4.18-13.51-13.7-19a49.94,49.94,0,0,1,3.41,25.2s-10.07-6.19-9.66-15.47c0,0-1.16,11.49,7.8,19,0,0-6.07-5.09-16.23-2.11,0,0,7.71,1.11,10.7,13.54h0q-9,1.31-18.49,3h175.3S423.74,391.85,412.49,390Z" style="fill:#263238"></path><path d="M582.66,377.31s-6-36.62-18.57-49.64c0,0,24.87,15.92,28.51,44.71,0,0-2-23.14-9.61-34.3,0,0,10.06,7.07,12.49,24.31,0,0,4.75-37.59-14.15-60.4,0,0,21.55,11,29.84,37.5,0,0-7-23.92,0-46.26,0,0,.8,17.36,9.84,31.82,0,0-.23-22,10.71-34.28,0,0-7.1,13.59-5.21,29.84,0,0,17.81-13.58,18.14-28.67,0,0,11.78,18.2,9.27,40.3a76.52,76.52,0,0,0,4.88-19.78c0-.88-.12-1.76-.23-2.67,0,0,.15.24.38.69,0-.49.08-1,.11-1.46,0,0,8.08,15,5.8,37.27,1.31-7.91,5-23.29,14.75-28.13,0,0-1.44,10.58,1.24,25.76,0,0,3.57-9.81,6.14-13.64,0,0-3.19,7.14,0,24.26,0,0,4.18-21.81,13.7-30.68a125.33,125.33,0,0,0-3.41,40.67s10.07-10,9.66-25c0,0,1.15,18.55-7.81,30.67a13,13,0,0,1,16.24-3.39s-7.71,1.79-10.71,21.85h0c6,1.4,12.2,3,18.5,4.79h-149a64.7,64.7,0,0,1,8.49-3.25c-.49-3-4.6-25.84-18.52-33.53C564.09,356.7,577,361.14,582.66,377.31Z" style="fill:#263238"></path><path d="M150.8,377.31s6-36.62,18.56-49.64c0,0-24.86,15.92-28.51,44.71,0,0,2-23.14,9.62-34.3,0,0-10.06,7.07-12.49,24.31,0,0-4.75-37.59,14.15-60.4,0,0-21.55,11-29.84,37.5,0,0,7-23.92,0-46.26,0,0-.8,17.36-9.85,31.82,0,0,.24-22-10.7-34.28,0,0,7.1,13.59,5.21,29.84,0,0-17.81-13.58-18.14-28.67,0,0-13.93,21.49-8.29,46.14,0,0-7.63-11.28-5.64-28.29,0,0-7.95,12.82-.33,36.69,0,0-15.25-2.49-18.23-18.49S58,302.77,58,302.77s-18.24,27.13-1,44.7c0,0-7.62,1.42-12.6-4.76s-12.59-2-12.59-2,7.55-2.15,14.38,11.11S61,363.72,61,363.72s-17.57,4.64-24.86-2.66c0,0,1.65,7.31,6.3,11.11,0,0-8-1.16-10.61,2.49,0,0,12.93,2.88,16.9,13.87,0,0-5.3-6.58-12.59-4.95a20.69,20.69,0,0,1,11.68,7.24c-3.27.81-6.59,1.68-10,2.66H159.34a65.47,65.47,0,0,0-8.49-3.25c.49-3,4.59-25.84,18.51-33.53C169.36,356.7,156.44,361.14,150.8,377.31Z" style="fill:#fff;opacity:0.5"></path><path d="M412.49,390c2-4.7,6.17-13.05,12.37-17.45A39.28,39.28,0,0,0,405.06,384s7.07-16.53,8-27.31c0,0-4.51,14.53-10.75,22.82,0,0-3.2-18.55,8.89-32.27,0,0-14.5,3.54-18.92,16.36,0,0-.44-6.49,6.63-19.16,0,0-10.16,8.7-11.49,22.55,0,0-3.72-5.6-4.51-17.54a18.39,18.39,0,0,0-10.67-15.82s5.07,11.74-7.78,23.06a37.3,37.3,0,0,0,.53-17.21,20.62,20.62,0,0,1-6.74,17.21s-9.32-7.24-9-24.64c0,0-13.49,17-10.66,32.87,0,0-6.24-9.57-3.91-20.48,0,0-4.83,11.79-1.25,22.55,0,0-13.75-11.63-14.81-25.86a29.83,29.83,0,0,0-5.8,23.1c-1.31-4.9-5.05-14.43-14.75-17.43,0,0,1.44,6.55-1.25,16,0,0-3.56-6.08-6.13-8.45,0,0,3.19,4.42,0,15,0,0-4.18-13.51-13.7-19a49.94,49.94,0,0,1,3.41,25.2s-10.07-6.19-9.66-15.47c0,0-1.16,11.49,7.8,19,0,0-6.07-5.09-16.23-2.11,0,0,7.71,1.11,10.7,13.54h0q-9,1.31-18.49,3h175.3S423.74,391.85,412.49,390Z" style="fill:#fff;opacity:0.5"></path><path d="M582.66,377.31s-6-36.62-18.57-49.64c0,0,24.87,15.92,28.51,44.71,0,0-2-23.14-9.61-34.3,0,0,10.06,7.07,12.49,24.31,0,0,4.75-37.59-14.15-60.4,0,0,21.55,11,29.84,37.5,0,0-7-23.92,0-46.26,0,0,.8,17.36,9.84,31.82,0,0-.23-22,10.71-34.28,0,0-7.1,13.59-5.21,29.84,0,0,17.81-13.58,18.14-28.67,0,0,11.78,18.2,9.27,40.3a76.52,76.52,0,0,0,4.88-19.78c0-.88-.12-1.76-.23-2.67,0,0,.15.24.38.69,0-.49.08-1,.11-1.46,0,0,8.08,15,5.8,37.27,1.31-7.91,5-23.29,14.75-28.13,0,0-1.44,10.58,1.24,25.76,0,0,3.57-9.81,6.14-13.64,0,0-3.19,7.14,0,24.26,0,0,4.18-21.81,13.7-30.68a125.33,125.33,0,0,0-3.41,40.67s10.07-10,9.66-25c0,0,1.15,18.55-7.81,30.67a13,13,0,0,1,16.24-3.39s-7.71,1.79-10.71,21.85h0c6,1.4,12.2,3,18.5,4.79h-149a64.7,64.7,0,0,1,8.49-3.25c-.49-3-4.6-25.84-18.52-33.53C564.09,356.7,577,361.14,582.66,377.31Z" style="fill:#fff;opacity:0.5"></path></g><g id="Lioness"><path d="M563.86,354.77c1.22,1.23,23.25,22.17,28.64,38.34s1.47,25.71,0,26.69S581.72,435,581.72,435s-19.59,1-20.33,8.57,5.39,8.08,13.72,8.08a52.24,52.24,0,0,0,16.16-2.94s13-21.31,20.82-26.45,14.21-7.84,13.47-13.47-6.85-9.06-6.12-17.63.73-21.07,1.47-22-2.45-22-2.45-22Z" style="fill:#407BFF"></path><path d="M568.06,362.82,605.81,348l16.24,28.51s-17-9.09-26.73-17Z" style="opacity:0.30000000000000004"></path><path d="M454.66,339.49c1,.32,9.2,1.89,13,6.34s8.6,10.2,17.72,13.07,66.26,7.47,76.71,5.52,52.73-19.53,52.73-19.53l44.8-18.63s2-28.09-6-35.54S632.69,271.28,609,273s-26.47,6.2-40.26,6.68-59.85-.87-65.89-2.29-20.93-5.93-41.42-1a204.4,204.4,0,0,0-33.95,11.06l11.93,45.8Z" style="fill:#407BFF"></path><path d="M479,358.83s13.59,4.82,15.54,18,6.13,49.23,6.13,49.23-14.94,10.53-13.72,21.56l30.62-1,8.08-17.39s-2-51.07,0-57.8,11.51-12.66,11.51-12.66l-10.78-34.61s-54.86,20.57-54.61,21.31S479,358.83,479,358.83Z" style="fill:#407BFF"></path><path d="M595.61,337.48c-2.69,12.49,14,33.55,29.15,40.41s40.9,16.16,49.71,26.94,11,21.8,9.56,26.45c0,0-17.64,4.66-17.15,16.66,0,0,32.58-2.45,35-2.45s3.19-7.11,1.47-14.94-1.72-25.63-1.71-33.59c0-7.52-.13-5.75-8-11a83.52,83.52,0,0,1-35.62-53.85c-6.49-32.73-21.55-38.7-37-34.53S599.41,319.87,595.61,337.48Z" style="fill:#407BFF"></path><path d="M725,367.44c-2.6-.46-5.23.34-7.84.71-12.68,1.82-24.9-6.66-32.08-17.27s-10.63-23.23-15.42-35.1-11.66-23.8-23-29.84l8.42,33.87c2.69,11.53,6.09,23,11.91,33.33s14.27,19.44,25,24.37,24,5.21,34.13-.87c1.51-.9,3.06-2.1,3.41-3.82C730.11,370.24,727.56,367.9,725,367.44Z" style="fill:#407BFF"></path><path d="M658.06,332.09s.53-31.15-11.38-43c0,0,11.36,8.76,12.78,19.38C661.57,324.32,658.06,332.09,658.06,332.09Z" style="opacity:0.30000000000000004"></path><path d="M494.52,354.1c-1.22.73-49.71,74.45-49.71,74.45l-3.68,13.72H412.72s0-12.74,10.29-17.15,10.53-6.61,11-8.57,18.86-57.8,18.37-63.92S444.82,335,444.82,335s39.91-5.6,39.91-4.86S494.52,354.1,494.52,354.1Z" style="fill:#407BFF"></path><path d="M488.28,364.89s-16.18-8.35-24.9-16.88c0,0,13.91,16.84,20.21,22Z" style="opacity:0.30000000000000004"></path><g style="opacity:0.30000000000000004"><path d="M468.16,275.06c-3,.14-7.51,1.62-12,3.06-6.59-2.21-8.5-9.86-13.87-5.46a16.51,16.51,0,0,0-4.39,5.65l5,57.21c8.77-1.92,12.95-5.2,15.73-11.83s-.22-17.25-.22-17.25c4.79-4.51,10.35-10.71,12.46-16.57C472.34,285.81,469.88,279,468.16,275.06Z"></path></g><path d="M434.21,278.12s-12.41,1.28-17.76,1.71-23.75,19.89-24,22.89,2.13,11.34,1.07,14.55-10.27,13.69-10.27,16.9,2.78,10.91,4.06,13.91,6.21,2.35,6.21,2.35,1.06,6.21,9.41,6.42,12.62-2.14,12.62-2.14l7.92-8.56s1.92-4.92,10.7-6.84A28.13,28.13,0,0,0,453,323.69c2.79-6.64,0-16.91,0-16.91Z" style="fill:#407BFF"></path><path d="M411.53,271c-2.37-2.37-6.26-3.45-9.16-1.78-3.06,1.76-4,5.81-3.68,9.34s2,10.15,2,13.68L415.55,280C415,276.73,413.89,273.37,411.53,271Z" style="fill:#407BFF"></path><path d="M384.64,336.68c1.08,2.51,3.75,3.82,6,2.94a6.14,6.14,0,0,0,.8,3.26,1.36,1.36,0,0,0,2.4-.12c.28-.79-.09-1.84.37-2.5s1.06-.46,1.64-.38a9.5,9.5,0,0,0,5.35-.91c.64-.31,1.36-1.09,1-1.81a1.17,1.17,0,0,0-1.16-.51l-16.1-.25" style="fill:#263238"></path><path d="M393.16,350.38c1.57-2.52.7-5.48-.19-8.09l.79-.24c1.5,5.4,4.83,7.58,10.18,8.31,4.6.37,10.23-.35,13.08-4.45-2.57,4.43-8.41,5.43-13.16,5.21-5.65-.36-9.63-3.13-10.88-8.82l.78-.24c.73,2.65,1.41,6.05-.6,8.32Z" style="fill:#263238"></path><path d="M393.45,349.94a4.87,4.87,0,0,0,1.43-.62c.32-.31,1.44,2.26,7.43,2.51s8-1.15,8-1.15-11.94.57-14.5-3.47L394,344.1A7.61,7.61,0,0,1,393.45,349.94Z" style="opacity:0.30000000000000004"></path><polygon points="400.72 292.25 415.55 280.02 415.15 278.12 400.63 290.68 400.72 292.25" style="opacity:0.30000000000000004"></polygon><path d="M430,286.14s3.13-4.46,4.79-7.2l-.54-.82s-11.21,1.15-16.91,1.64c-2.85,3.66-9.07,12.82-11.79,21.29-3.54,11-12,21.19-14.78,24.85s-5.1,10.51-5.1,10.51l15.39.19c.39-.78,5.79-9.65,6.71-14.88s1.31-8.5,4.32-15.17S430,286.14,430,286.14Z" style="fill:#fff;opacity:0.30000000000000004"></path><path d="M465.81,277.27c-1.66-3.81-5.42-6.36-9.36-7.68-6.58-2.21-14.35-1.33-19.72,3.07S429,285.1,431.91,291.4l19.61,16.24c5-4.57,11.45-11.38,13.75-17.77C466.73,285.81,467.53,281.22,465.81,277.27Z" style="fill:#407BFF"></path><g style="opacity:0.30000000000000004"><path d="M455.76,278.59a3.37,3.37,0,0,0-.43-1.75,2.31,2.31,0,0,0-2-1,15.52,15.52,0,0,0-14,13.23l3.86-2.46a1.56,1.56,0,0,1,1.18-.36,1.23,1.23,0,0,1,.76.89c.36,1.22-.2,2.49-.53,3.72s-.3,2.8.79,3.46a2.91,2.91,0,0,0,2.1.18,10.4,10.4,0,0,0,7-6.27A21.11,21.11,0,0,0,455.76,278.59Z"></path></g><path d="M413.31,304a.87.87,0,0,0,.7-.22,7.12,7.12,0,0,1,6.51-1.8.9.9,0,0,0,1.14-.66,1.06,1.06,0,0,0-.72-1.21,8.88,8.88,0,0,0-8.26,2.17,1,1,0,0,0,0,1.38A1,1,0,0,0,413.31,304Z" style="fill:#263238"></path><path d="M414.93,312.71c-.28,3.4,1.25,6.41,3.4,6.74s4.12-2.16,4.4-5.55-1.24-6.41-3.4-6.73S415.21,309.32,414.93,312.71Z" style="fill:#263238"></path><path d="M419.33,310.85c0,1.15.35,2.08.8,2.08s.82-.93.82-2.08-.36-2.08-.81-2.09S419.33,309.7,419.33,310.85Z" style="fill:#fff"></path><path d="M390.58,303.6a.8.8,0,0,0,.63-.2,6.37,6.37,0,0,1,5.82-1.61.8.8,0,0,0,1-.59,1,1,0,0,0-.65-1.09,8,8,0,0,0-7.37,1.95.88.88,0,0,0,0,1.23A.93.93,0,0,0,390.58,303.6Z" style="fill:#263238"></path><path d="M392,311.35c-.25,3,1.11,5.72,3,6s3.69-1.93,3.94-5-1.11-5.73-3-6S392.28,308.32,392,311.35Z" style="fill:#263238"></path><path d="M396,309.68c0,1,.31,1.86.72,1.86s.72-.83.73-1.86-.32-1.86-.72-1.86S396,308.65,396,309.68Z" style="fill:#fff"></path></g><g id="lion-cub"><path d="M286.85,355.55c.32,1.18-3.68,6.45-4.52,13.18s11.33,38.13,17.08,42.95,17.46,4,17.46,4,10.92-2.31,13.63-8.17,5.64-40.61,6.27-46.9-12.35-15-13.4-15.33S286.85,355.55,286.85,355.55Z" style="fill:#407BFF"></path><path d="M286.85,355.55c.32,1.18-3.68,6.45-4.52,13.18s11.33,38.13,17.08,42.95,17.46,4,17.46,4,10.92-2.31,13.63-8.17,5.64-40.61,6.27-46.9-12.35-15-13.4-15.33S286.85,355.55,286.85,355.55Z" style="fill:#fff;opacity:0.5"></path><path d="M308.65,329c-2.14,0-11.55,1.68-14.18,4.4-3.46,3.58-8,20-7.64,23.88s7.62,9.88,8.59,13-.84,5.25,5.53,8.85c3,1.72,8,2,14.08-1.86,4.05-2.53,5.88-9.86,7.87-12.24s8.13-7.34,7.75-14.35S328.51,329.19,308.65,329Z" style="opacity:0.30000000000000004"></path><path d="M308.65,325.38c-2.14,0-11.55,1.67-14.18,4.4-3.46,3.57-8,21.88-7.62,25.77s7.6,8,8.57,11.1-.41,8,6,10.32c3.29,1.19,5.43,2.71,13.3-1.44,2.72-1.44,4-8.3,6-10.63s10.12-7.79,9.73-14.8S328.51,325.57,308.65,325.38Z" style="fill:#407BFF"></path><path d="M308.65,325.38c-2.14,0-11.55,1.67-14.18,4.4-3.46,3.57-8,21.88-7.62,25.77s7.6,8,8.57,11.1-.41,8,6,10.32c3.29,1.19,5.43,2.71,13.3-1.44,2.72-1.44,4-8.3,6-10.63s10.12-7.79,9.73-14.8S328.51,325.57,308.65,325.38Z" style="fill:#fff;opacity:0.5"></path><path d="M338.9,332.14a8.33,8.33,0,0,0-3.48-4.28c-2.59-1.44-5.94-.81-8.43.8s-4.3,4-6.06,6.44l8.32,14a12.45,12.45,0,0,0,9.65-16.92Z" style="fill:#407BFF"></path><g style="opacity:0.5"><path d="M338.9,332.14a8.33,8.33,0,0,0-3.48-4.28c-2.59-1.44-5.94-.81-8.43.8s-4.3,4-6.06,6.44l8.32,14a12.45,12.45,0,0,0,9.65-16.92Z" style="fill:#fff"></path></g><g style="opacity:0.30000000000000004"><path d="M334.32,331.82a4,4,0,0,0-3-.31,6.7,6.7,0,0,0-1.28,12c1.15-3.41,4.77-4.23,5.25-7.8C335.4,334.86,335,332.34,334.32,331.82Z"></path></g><path d="M289.23,323.76a13.5,13.5,0,0,0-5.93.35,8.62,8.62,0,0,0-4.74,3.46c-2,3.1-1.33,7.14-.4,10.7a24.35,24.35,0,0,0,3.8,8.83c2,2.56,5.05,4.45,8.27,4.21l7.51-21.75C296.54,326.15,292.81,324.27,289.23,323.76Z" style="fill:#407BFF"></path><g style="opacity:0.5"><path d="M289.23,323.76a13.5,13.5,0,0,0-5.93.35,8.62,8.62,0,0,0-4.74,3.46c-2,3.1-1.33,7.14-.4,10.7a24.35,24.35,0,0,0,3.8,8.83c2,2.56,5.05,4.45,8.27,4.21l7.51-21.75C296.54,326.15,292.81,324.27,289.23,323.76Z" style="fill:#fff"></path></g><path d="M301.24,366.85c-.57,0-.75,2.88,3.7,3.27,0,0,1.15,2.36,2,1.47a3.69,3.69,0,0,1,2.46-1.52c3.81-.68,4.5-3,3.41-2.91C311,367.36,303.46,366.92,301.24,366.85Z" style="fill:#263238"></path><path d="M296.38,368.73a5.19,5.19,0,0,0,9.76,2.59l1-2.05-.09,2.28c.17,4.49,7,4.73,9.16,1.46-1,2-3.37,2.88-5.51,2.79s-4.67-1.8-4.62-4.28l.92.22c-2.89,5.73-11.43,3.41-10.63-3Z" style="fill:#263238"></path><path d="M283.93,372.13s1.55,22,2,29.92,2.18,27.63,1.62,32.45-4.48,7.36.54,9.24,11,1.41,14.23-.05,1-9.19.06-12.75S304,410.63,304,410.63Z" style="fill:#407BFF"></path><path d="M283.93,372.13s1.55,22,2,29.92,2.18,27.63,1.62,32.45-4.48,7.36.54,9.24,11,1.41,14.23-.05,1-9.19.06-12.75S304,410.63,304,410.63Z" style="fill:#fff;opacity:0.5"></path><path d="M315,400.58c0,.84-6.84,33.47-7.53,38.07s3.5,5.45,9.76,5.66,11.77-1.14,8.28-4.07-1.68-5.2-.64-9.8,4.35-13.3,6.41-25.18,2.82-23.11,1.56-24.78S315,400.58,315,400.58Z" style="fill:#407BFF"></path><path d="M315,400.58c0,.84-6.84,33.47-7.53,38.07s3.5,5.45,9.76,5.66,11.77-1.14,8.28-4.07-1.68-5.2-.64-9.8,4.35-13.3,6.41-25.18,2.82-23.11,1.56-24.78S315,400.58,315,400.58Z" style="fill:#fff;opacity:0.5"></path><path d="M335.3,355.94s6.49,9.6,8,19.59,1.88,37.82,0,47,7.16,17.1,4.65,19-12.82,4.46-15.75.07,1-14-2.93-21.57-8.3-32.66-8.3-32.66Z" style="fill:#407BFF"></path><path d="M335.3,355.94s6.49,9.6,8,19.59,1.88,37.82,0,47,7.16,17.1,4.65,19-12.82,4.46-15.75.07,1-14-2.93-21.57-8.3-32.66-8.3-32.66Z" style="fill:#fff;opacity:0.5"></path><path d="M329.23,420.05s7.39-15.7,4.15-32.81l-5,31Z" style="opacity:0.2"></path><path d="M339.37,376.27c4.44,1.16,9.15-1.78,11.39-5.78s2.52-8.79,2.41-13.37.77-7.75,1.8-12.22c1.56-6.75,5.3-14.08,11.74-16.62a6.91,6.91,0,0,1,3.48-.62,3,3,0,0,1,2.57,2.16,3.25,3.25,0,0,1-1.26,2.93,17.85,17.85,0,0,1-2.84,1.74c-4.29,2.46-7,7-8.49,11.72s-1.9,9.67-2.7,14.55-2,9.81-4.92,13.83-7.7,6.93-12.61,6.37" style="fill:#407BFF"></path><g style="opacity:0.5"><path d="M339.37,376.27c4.44,1.16,9.15-1.78,11.39-5.78s2.52-8.79,2.41-13.37.77-7.75,1.8-12.22c1.56-6.75,5.3-14.08,11.74-16.62a6.91,6.91,0,0,1,3.48-.62,3,3,0,0,1,2.57,2.16,3.25,3.25,0,0,1-1.26,2.93,17.85,17.85,0,0,1-2.84,1.74c-4.29,2.46-7,7-8.49,11.72s-1.9,9.67-2.7,14.55-2,9.81-4.92,13.83-7.7,6.93-12.61,6.37" style="fill:#fff"></path></g><path d="M315.4,344.5a.66.66,0,0,0,.58,0,5.59,5.59,0,0,1,5.31.07.71.71,0,0,0,1-.25.84.84,0,0,0-.28-1.08,7,7,0,0,0-6.72-.16.79.79,0,0,0-.32,1A.78.78,0,0,0,315.4,344.5Z" style="fill:#263238"></path><path d="M295.58,343.31a.66.66,0,0,0,.58,0,5.64,5.64,0,0,1,5.31.06.7.7,0,0,0,1-.24.84.84,0,0,0-.28-1.08,7,7,0,0,0-6.72-.16.79.79,0,0,0-.32,1A.78.78,0,0,0,295.58,343.31Z" style="fill:#263238"></path><path d="M314.55,352.13c-.22,2.67,1,5,2.67,5.3s3.25-1.7,3.47-4.37-1-5-2.68-5.3S314.77,349.46,314.55,352.13Z" style="fill:#263238"></path><path d="M318,350.66c0,.9.28,1.64.63,1.64s.64-.73.65-1.64S319,349,318.65,349,318,349.75,318,350.66Z" style="fill:#fff"></path><path d="M295.76,351.83c-.22,2.67,1,5.05,2.67,5.31s3.25-1.7,3.47-4.37-1-5-2.68-5.3S296,349.16,295.76,351.83Z" style="fill:#263238"></path><path d="M299.22,350.36c0,.91.28,1.64.63,1.64s.64-.73.65-1.63-.29-1.65-.64-1.65S299.22,349.46,299.22,350.36Z" style="fill:#fff"></path><path d="M298.52,361.41c-.45.94-2.1,1.08-3.68.32s-2.51-2.14-2.06-3.08,2.1-1.08,3.69-.32S299,360.47,298.52,361.41Z" style="fill:#ef9d86"></path><path d="M321.8,360.43c.13,1-1.18,2.05-2.92,2.27s-3.26-.45-3.39-1.48,1.18-2.05,2.93-2.26S321.68,359.4,321.8,360.43Z" style="fill:#ef9d86"></path><g style="opacity:0.30000000000000004"><path d="M288.69,343.83a3.91,3.91,0,0,1,1-5.36c1-.64,2.3-.9,2.79-2s-.2-2.29-.89-3.24a15.55,15.55,0,0,0-2.41-2.83,5.71,5.71,0,0,0-3.36-1.45,3.5,3.5,0,0,0-3.17,1.58,4.79,4.79,0,0,0-.49,2.75c.22,4.12,1.34,8.42,7,10.73"></path></g><g style="opacity:0.30000000000000004"><path d="M313.47,338.32a8.83,8.83,0,0,1,4.24-4.95c1.05-.49,2.21-.71,3.25-1.22a3.75,3.75,0,0,0,1.94-1.94c-3.18-2.82-7.72-4.77-14.25-4.83a39.1,39.1,0,0,0-10.56,2.32h0a5.83,5.83,0,0,0,2.56,3.66c1.23.81,1.68,2.35,2.62,3.49,1.76,2.14,1.53,5.22,1.16,8q-1.26,9.38-3.27,18.63c-.38,1.78-.69,3.91.63,5.16a5,5,0,0,0,3,1,44.32,44.32,0,0,0,4.75.25,5.69,5.69,0,0,0,3.91-1.05,4.13,4.13,0,0,0,1.18-3.08,14.16,14.16,0,0,0-.57-3.34,58.93,58.93,0,0,1-1.63-15.54A19.94,19.94,0,0,1,313.47,338.32Z" style="fill:#fff"></path></g><path d="M308.54,410.91a7,7,0,0,1-3.67-1.05L301,398.57l1.68,9.27.09.12-.09-.12.89,6.13a31.31,31.31,0,0,0,8.49,1.65l1.93-9.59S312.34,410.91,308.54,410.91Z" style="opacity:0.2"></path><path d="M287.26,351.16c0-.2.92-5.32.92-5.32l-2.12,4.64Z" style="opacity:0.30000000000000004"></path><polygon points="324 331.25 325.39 335.64 324.97 330.26 324 331.25" style="opacity:0.30000000000000004"></polygon><path d="M343.36,376.29l.45,4.42a12.72,12.72,0,0,0,2.6-.92c.11-.16-.37-4.56-.37-4.56A10.55,10.55,0,0,1,343.36,376.29Z" style="opacity:0.30000000000000004"></path></g><g id="Lion"><path d="M91.7,342.56s4.49-10.57,13.18-16.91,40.17-21.37,49.56-29.83,21.37-19,32.41-19.49,22.55,6.57,23.49,8,1.88,66.24,1.88,66.24-12,10.56-12.92,10.8-3.76,3.52-.47,13.39,22.55,27,22.55,27L166.65,409l-59.42-22.55L93.38,370.74Z" style="fill:#407BFF"></path><path d="M95.9,365c37-4.77,58.3,10.37,81.28,17.09s51,17.38,63.34,24.95,37.28,18.5,47.37,18.5,18.78-7.57,26.91-7,9.25,9.25,4.48,15.41-30,11.21-39,10.37-4.2-6.44-8.41-9.53-148.26-2.24-148.26-2.24l-46.76-1.39a37.46,37.46,0,0,1-35.32-28.71l-1.73-7.17C38.44,359.94,90,343.4,91.7,342.56Z" style="fill:#407BFF"></path><path d="M156.54,373.87c-10.53-11.53-26-21.11-40-28.13,0,0,11.42,1.46,25.39,11.24S156.54,373.87,156.54,373.87Z" style="opacity:0.30000000000000004"></path><path d="M284.63,432.89a13.44,13.44,0,0,0-6.32-1.7c-21-1.95-42.1,0-63.14-.83s-44.91-2.94-62-15.18c-8.17-5.84-17.92-12-27.75-14.05L113,418.25c21.5,3.74,40.44,16.26,61.41,22.27,17.38,5,35.69,5.4,53.76,5.77s36.57.7,53.91-4.53c1.88-.56,3.95-1.37,4.74-3.17C287.69,436.57,286.47,434.11,284.63,432.89Z" style="opacity:0.30000000000000004"></path><path d="M106.77,421.29c21.49,3.74,40.44,16.25,61.41,22.27,17.37,5,35.68,5.39,53.76,5.76s36.56.71,53.9-4.52c1.89-.57,4-1.38,4.75-3.18.89-2-.32-4.47-2.16-5.69a13.47,13.47,0,0,0-6.32-1.7c-21-2-42.1,0-63.15-.84s-42.76-4.78-59.9-17c-8.17-5.83-15.56-13.65-25.4-15.65" style="fill:#407BFF"></path><path d="M106.77,421.29c21.68,3.73,40.6,16,61.58,22,21.1,5.88,43.26,5.38,65,5.77,14.48.07,29.18-.65,43.07-5,7.21-2.2,3.62-8.75-2.44-9.18-23.56-2.57-47.28.16-70.9-1.51-14.52-1-29.16-3.71-42.38-10a84.47,84.47,0,0,1-18.25-12c-5.63-4.52-11.57-9.17-18.78-10.71a31.5,31.5,0,0,1,10.06,4.13c9.16,5.9,17,13.85,27.17,18.11,33.8,15.69,71.84,8,107.75,10.52,3.65.42,7.67.06,10.73,2.57,2.4,2,2.87,6-.05,7.77a10.55,10.55,0,0,1-2.59,1.22,101.65,101.65,0,0,1-10.66,2.62c-18,3.27-36.39,2.18-54.58,1.79-14.56-.47-29.24-1.55-43.3-5.59-21-6.06-39.75-18.6-61.42-22.57Z"></path><path d="M91.7,342.56a41.71,41.71,0,0,1,14.14.11s-4.72-3.89-13.33-1.8Z" style="opacity:0.30000000000000004"></path><g style="opacity:0.30000000000000004"><path d="M321,424.86a6.47,6.47,0,0,0-1-2.5,3.63,3.63,0,0,0-2.27-1.59h0a3.24,3.24,0,0,0-1.35-.07,9.41,9.41,0,0,0-5.89,3.64,9.58,9.58,0,0,0-1.72,7.47,5.29,5.29,0,0,0,1.91,3.38,4.53,4.53,0,0,0,3.33.66c2.39-.4,4.86-2.71,5.82-4.94A11,11,0,0,0,321,424.86Z"></path></g><path d="M305.92,442.17a14.55,14.55,0,0,0-6.73-5.37,43.47,43.47,0,0,0-8.41-2.32,34.53,34.53,0,0,0,8.47-3.4A35,35,0,0,0,287,430a7,7,0,0,0,2.59-3.41,36.18,36.18,0,0,0-16.38,4c-3,1.55-5.86,3.63-7.42,6.61s-1.49,7,.89,9.38c5.54,3.55,13.75,4.05,20.31,3.68s13.24-1.29,19.65.18A8.81,8.81,0,0,0,305.92,442.17Z" style="fill:#263238"></path><path d="M226.52,291.74a14.24,14.24,0,0,0,4.74-12.49,5.39,5.39,0,0,0-2-4,5.49,5.49,0,0,0-3.37-.61,15,15,0,0,0-13.78,13.62" style="fill:#407BFF"></path><path d="M215.51,353.83c1.41-2.05,2.14-5.21.28-6.85l24.29-6.32-14.83-54.57c3.86-5.31,1.46-13.31-3.3-17.81-7.55-7.14-18.92-7.7-29.19-7-13.83.92-28.19,3.64-39.13,12.35-6.29,5-11.19,11.8-18,16-4.25,2.61-9.06,4.08-13.67,5.95s-9.2,4.27-12.32,8.21-4.43,9.76-2,14.2c1.07,2,2.81,3.6,3.41,5.77,1,3.64-1.49,7.45-1,11.2.54,4.09,4.55,6.88,8.52,7.58s8-.11,12-.35,8.4.24,11.37,3c4.25,4,3.94,10.8,5.95,16.32,1.91,5.25,6,9.4,10.71,12.32s9.91,4.72,15.1,6.51l32.92,11.35c2.79,1,6.37,1.73,8.28-.56s.5-6.05-1.4-8.49-4.31-5-4-8.13c0,2,2.68,3.07,4.32,2s2.11-3.35,1.71-5.29a21.2,21.2,0,0,0-2.4-5.38,9.43,9.43,0,0,1-1.38-5.65C212.12,357.72,214.11,355.89,215.51,353.83Z" style="fill:#263238"></path><path d="M196.29,352.11A37.56,37.56,0,0,1,176,311.82s-7.87,12.27,1.23,26.26S196.29,352.11,196.29,352.11Z" style="opacity:0.30000000000000004"></path><path d="M199.69,282.49c1.1.16,14.76-.31,22.93,4.25s15.87,21.26,22.32,25.08,18.69,12.6,12.41,20.15-3.55,14.33-8,13.77c-1.71-.22-1.29,10.11-7.57,11.05s-16.91-1.71-20.38-6-8.81-7.6-11.48-8.28c-1.43-.36-3.32-5.47-19.72-7.3-11.29-1.26-8-32-.64-40.67Z" style="fill:#407BFF"></path><path d="M244.94,311.82c-6.45-3.82-14.15-20.53-22.32-25.08a28,28,0,0,0-7.33-2.67l-5.73-1h0a49,49,0,0,1,6.18,5.18c2.59,2.67,6.3,4.64,9.7,8.86s3.35,11.14,5.14,13.57,13,14.75,13,14.75,11,4.64,11.27,4.64,1.78.3,3.37.6C262.26,323.45,251,315.43,244.94,311.82Z" style="fill:#fff;opacity:0.30000000000000004"></path><path d="M243.59,325.44a3.94,3.94,0,0,0,2.13,5.1,6.72,6.72,0,0,1,2.37.91c1.07.95.68,2.74,1.38,4s2.46,1.68,4,1.62a1.43,1.43,0,0,0,.86-.23,1.79,1.79,0,0,0,.39-.65c.84-1.87,7.91-7.5,3.08-8.74-2.15-.55-4.79-.18-7-.48C250.14,326.87,243.57,325.48,243.59,325.44Z" style="fill:#263238"></path><path d="M189.05,305.3a24.38,24.38,0,0,1,8-35.9,5.89,5.89,0,0,1,4.06-.93c2.07.48,3.15,2.74,3.7,4.79,1.53,5.78,1.07,12,3.06,17.64" style="fill:#407BFF"></path><path d="M226.56,345.58a23.71,23.71,0,0,0,22.5.15,18.41,18.41,0,0,1-22.5-.15Z" style="fill:#263238"></path><path d="M213,300.28a.91.91,0,0,0,.74-.23,7.53,7.53,0,0,1,6.92-1.91,1,1,0,0,0,1.21-.7,1.12,1.12,0,0,0-.76-1.29,9.43,9.43,0,0,0-8.77,2.31,1.08,1.08,0,0,0,.66,1.82Z" style="fill:#263238"></path><path d="M214.76,309.5c-.29,3.6,1.33,6.81,3.62,7.16s4.38-2.3,4.67-5.9-1.32-6.81-3.61-7.15S215.06,305.9,214.76,309.5Z" style="fill:#263238"></path><path d="M219.44,307.52c0,1.22.38,2.21.85,2.21s.87-1,.87-2.21-.38-2.21-.86-2.22S219.44,306.29,219.44,307.52Z" style="fill:#fff"></path><g style="opacity:0.30000000000000004"><path d="M200.09,277.05a3.82,3.82,0,0,0-1.66-2.9l-.71-.23a17.71,17.71,0,0,0-5.65,20.49l3.37-5.7c.67,1.19,1.34,2.38,2,3.57q1.17-5.89,2.33-11.8A11.72,11.72,0,0,0,200.09,277.05Z"></path></g><path d="M229.24,347.08s7,5,13.94,3.66c4.72-.93,5-3,5-3l.55-1.83A23.79,23.79,0,0,1,229.24,347.08Z" style="opacity:0.30000000000000004"></path></g><g id="plants-1"><path d="M390.44,445.93s13.91-27.14,10.41-29.8-10.4,22.67-10.41,20.7.39-36.48-6-35.11,0,33.14,0,33.14-8.65-16.23-12-15,10,20.54,10,20.54-8-4.83-10-4.46,10,10,10,10Z" style="fill:#263238"></path><path d="M70.85,450.42s-13.91-27.15-10.41-29.81,10.41,22.68,10.41,20.71-.38-36.49,6-35.12,0,33.15,0,33.15,8.65-16.24,12-15-10,20.54-10,20.54,8-4.84,10-4.46-10,10-10,10Z" style="fill:#263238"></path><path d="M705.74,447.25s15.82-13.91,11.08-16.27-10.5,10.52-11.08,8.58,3.09-19.61-5.69-18.38,0,18.38,0,18.38-6.5-7-8.77-5.93,6.91,13.62,6.91,13.62Z" style="fill:#263238"></path><path d="M40.64,450.33H70.85s-7.12-8.89-15.1-10.21S40.64,450.33,40.64,450.33Z" style="fill:#263238"></path><path d="M352.08,445.38H366s-4.41-6-8.49-6.22S352.08,445.38,352.08,445.38Z" style="fill:#263238"></path><path d="M619.17,451.72h21.7S636,441.55,630,441.24,619.17,451.72,619.17,451.72Z" style="fill:#263238"></path><path d="M40.64,450.33H70.85s-7.12-8.89-15.1-10.21S40.64,450.33,40.64,450.33Z" style="fill:#fff;opacity:0.30000000000000004"></path><path d="M352.08,445.38H366s-4.41-6-8.49-6.22S352.08,445.38,352.08,445.38Z" style="fill:#fff;opacity:0.30000000000000004"></path><path d="M619.17,451.72h21.7S636,441.55,630,441.24,619.17,451.72,619.17,451.72Z" style="fill:#fff;opacity:0.30000000000000004"></path></g></svg>
