<svg xmlns="http://www.w3.org/2000/svg" viewBox="0 0 500 500"><g id="background-complete"><path d="M77,323.74l-3.85,55.62h20.7c-.53,0,1.8-55.62,1.8-55.62l-11.25-9.15Z" style="fill:#ebebeb"></path><path d="M95.63,323.74l-11.25-9.15L77,323.74l7.59-2c.45,8.58,0,46.08-.16,53.12C84.72,367,87,321.13,87,321.13Z" style="fill:#f5f5f5"></path><path d="M84.38,376c0,.08,0-.33,0-1.13C84.39,375.54,84.37,375.94,84.38,376Z" style="fill:#fff;opacity:0.4"></path><path d="M84.38,314.59s1.73,6.69,1.53,6.82-1.29,57.95-1.53,57.95h9.45l1.8-55.62Z" style="fill:#e0e0e0"></path><polygon points="85.47 337.1 75.47 345.53 74.77 355.67 85.47 345.67 85.47 337.1" style="fill:#fff;opacity:0.2"></polygon><polygon points="85.66 329.93 75.96 338.45 75.59 343.81 85.49 335.94 85.66 329.93" style="fill:#fff;opacity:0.2"></polygon><path d="M100.81,347.07l-2.24,32.29h12c-.31,0,1-32.29,1-32.29l-6.53-5.31Z" style="fill:#ebebeb"></path><path d="M111.64,347.07l-6.53-5.31-4.3,5.31,4.41-1.16c.26,5,0,26.76-.1,30.84.18-4.56,1.49-31.2,1.49-31.2Z" style="fill:#f5f5f5"></path><path d="M105.11,377.41s0-.19,0-.66C105.11,377.14,105.1,377.37,105.11,377.41Z" style="fill:#fff;opacity:0.4"></path><path d="M105.11,341.76s1,3.88.89,3.95-.76,33.65-.9,33.65h5.49l1-32.29Z" style="fill:#e0e0e0"></path><polygon points="105.74 354.83 99.93 359.72 99.53 365.61 105.74 359.8 105.74 354.83" style="fill:#fff;opacity:0.2"></polygon><polygon points="105.85 350.66 100.22 355.61 100 358.72 105.75 354.15 105.85 350.66" style="fill:#fff;opacity:0.2"></polygon><path d="M70.59,316.32a6.14,6.14,0,0,0-5.82,5.79H64s.22-5.29-5.82-5.57l0-.84c.48,0,5-.2,5.62-5.63h.77s-.52,4.89,6,5.66Z" style="fill:#e6e6e6"></path><path d="M446,357.43a6.13,6.13,0,0,0-5.82,5.79h-.77s.23-5.3-5.81-5.58l0-.83c.48,0,5-.21,5.63-5.63h.77s-.52,4.89,6,5.65Z" style="fill:#e6e6e6"></path><path d="M381,350.87a6.13,6.13,0,0,0-5.82,5.79h-.77s.23-5.29-5.81-5.57l0-.84c.48,0,5-.21,5.63-5.63H375s-.52,4.89,6,5.66Z" style="fill:#e6e6e6"></path><path d="M467.78,176.87a6.14,6.14,0,0,0-5.82,5.79h-.76s.23-5.29-5.82-5.57l0-.84c.48,0,5-.2,5.63-5.63h.76s-.52,4.89,6,5.66Z" style="fill:#e6e6e6"></path><path d="M100.68,57.79a6.13,6.13,0,0,0-5.82,5.79h-.77s.23-5.29-5.81-5.57l0-.84c.48,0,5-.21,5.63-5.63h.77s-.52,4.89,6,5.66Z" style="fill:#e6e6e6"></path><path d="M417.35,40.14a6.14,6.14,0,0,0-5.82,5.79h-.76s.22-5.29-5.82-5.57l0-.84c.47,0,5-.2,5.62-5.63h.77s-.52,4.89,6,5.66Z" style="fill:#e6e6e6"></path><path d="M193.85,357.43a6.13,6.13,0,0,0-5.82,5.79h-.77s.23-5.3-5.81-5.58l0-.83c.48,0,5-.21,5.63-5.63h.77s-.52,4.89,6,5.65Z" style="fill:#e6e6e6"></path><path d="M39.29,338a2.13,2.13,0,0,0-2,2H37A1.9,1.9,0,0,0,35,338v-.29a2,2,0,0,0,2-1.95h.27s-.18,1.7,2.06,2Z" style="fill:#e6e6e6"></path><path d="M128.14,355.75a2.13,2.13,0,0,0-2,2h-.27a1.89,1.89,0,0,0-2-1.93v-.29a2,2,0,0,0,2-2h.27s-.18,1.69,2.07,2Z" style="fill:#e6e6e6"></path><path d="M420.61,347.69a2.12,2.12,0,0,0-2,2h-.26a1.9,1.9,0,0,0-2-1.93l0-.29a2,2,0,0,0,1.95-2h.26s-.18,1.7,2.07,2Z" style="fill:#e6e6e6"></path><path d="M435.87,169.61a2.13,2.13,0,0,0-2,2h-.27a1.9,1.9,0,0,0-2-1.94v-.29a2,2,0,0,0,1.95-1.95h.27s-.18,1.7,2.07,2Z" style="fill:#e6e6e6"></path><path d="M176.31,371a2.13,2.13,0,0,0-2,2H174a1.89,1.89,0,0,0-2-1.93v-.29a2,2,0,0,0,1.95-1.95h.27s-.18,1.69,2.07,2Z" style="fill:#e6e6e6"></path><path d="M51.53,352.94l2.68-12.31L61.46,344s15.61,34.69,15.93,35.16-11.51,0-11.51,0S50.58,352.3,51.53,352.94Z" style="fill:#407BFF"></path><path d="M51.53,352.94l2.68-12.31L61.46,344s15.61,34.69,15.93,35.16-11.51,0-11.51,0S50.58,352.3,51.53,352.94Z" style="fill:#ebebeb"></path><path d="M74.37,379.27c-.47,0-15.64-32.07-16.15-33.16l.06-.06,3.18-2.1-7.25-3.32,0,.15-.07-.09.07.13-2.64,12.12,5.84-6,15.49,32.28Z" style="fill:#f5f5f5"></path><path d="M60.54,353.59c.25,0-2.34,11.93-2.34,11.93L62,372.31l2.23-11Z" style="fill:#fff;opacity:0.30000000000000004"></path><polygon points="65.19 362.52 62.88 373.83 64.04 375.88 66.22 364.88 65.19 362.52" style="fill:#fff;opacity:0.30000000000000004"></polygon><path d="M54.21,340.63,57.37,347s16.15,32.22,16.15,32.29,4.25-.29,3.87-.16S61.46,344,61.46,344Z" style="fill:#e0e0e0"></path><path d="M392.81,342.83,389,380.12h20.7c-.53,0,1.8-37.29,1.8-37.29l-11.25-6.13Z" style="fill:#ebebeb"></path><path d="M411.46,342.83l-11.25-6.13-7.4,6.13,7.59-1.33c.45,5.75,0,30.89-.16,35.61.31-5.27,2.56-36,2.56-36Z" style="fill:#f5f5f5"></path><path d="M400.21,377.87c0,.05,0-.22,0-.76C400.22,377.56,400.2,377.83,400.21,377.87Z" style="fill:#fff;opacity:0.4"></path><path d="M400.21,336.7s1.73,4.48,1.53,4.57-1.29,38.85-1.53,38.85h9.45l1.8-37.29Z" style="fill:#e0e0e0"></path><polygon points="401.3 351.79 391.3 357.44 390.6 364.24 401.3 357.54 401.3 351.79" style="fill:#fff;opacity:0.2"></polygon><polygon points="401.49 346.99 391.79 352.7 391.42 356.29 401.32 351.02 401.49 346.99" style="fill:#fff;opacity:0.2"></polygon><path d="M416.64,360.18l-2.23,19.94h12c-.31,0,1.05-19.94,1.05-19.94l-6.53-3.27Z" style="fill:#ebebeb"></path><path d="M427.47,360.18l-6.53-3.27-4.3,3.27,4.41-.71c.26,3.08,0,16.52-.1,19,.18-2.82,1.49-19.26,1.49-19.26Z" style="fill:#f5f5f5"></path><path d="M420.94,378.92s0-.12,0-.41A3.22,3.22,0,0,0,420.94,378.92Z" style="fill:#fff;opacity:0.4"></path><path d="M420.94,356.91a18.69,18.69,0,0,1,.89,2.44c-.12,0-.76,20.77-.9,20.77h5.49l1.05-19.94Z" style="fill:#e0e0e0"></path><polygon points="421.57 364.98 415.76 368 415.36 371.63 421.57 368.05 421.57 364.98" style="fill:#fff;opacity:0.2"></polygon><polygon points="421.68 362.4 416.05 365.46 415.83 367.38 421.58 364.56 421.68 362.4" style="fill:#fff;opacity:0.2"></polygon><path d="M443.92,318.29H263.17a5.87,5.87,0,0,1-5.86-5.86V49.16a5.87,5.87,0,0,1,5.86-5.86H443.92a5.87,5.87,0,0,1,5.86,5.86V312.43A5.87,5.87,0,0,1,443.92,318.29ZM263.17,43.55a5.61,5.61,0,0,0-5.61,5.61V312.43a5.61,5.61,0,0,0,5.61,5.61H443.92a5.61,5.61,0,0,0,5.61-5.61V49.16a5.61,5.61,0,0,0-5.61-5.61Z" style="fill:#e0e0e0"></path><path d="M235.49,318.29H54.75a5.87,5.87,0,0,1-5.87-5.86V49.16a5.87,5.87,0,0,1,5.87-5.86H235.49a5.86,5.86,0,0,1,5.86,5.86V312.43A5.86,5.86,0,0,1,235.49,318.29ZM54.75,43.55a5.62,5.62,0,0,0-5.62,5.61V312.43A5.62,5.62,0,0,0,54.75,318H235.49a5.61,5.61,0,0,0,5.61-5.61V49.16a5.61,5.61,0,0,0-5.61-5.61Z" style="fill:#e0e0e0"></path><rect y="379.36" width="500" height="0.25" style="fill:#e0e0e0"></rect><rect x="51.67" y="393.63" width="16.06" height="0.25" style="fill:#e0e0e0"></rect><rect x="170.35" y="390.92" width="53.53" height="0.25" style="fill:#e0e0e0"></rect><rect x="68.73" y="402.92" width="36.25" height="0.25" style="fill:#e0e0e0"></rect><rect x="378.35" y="390.79" width="43.19" height="0.25" style="fill:#e0e0e0"></rect><rect x="430.45" y="390.79" width="6.33" height="0.25" style="fill:#e0e0e0"></rect><rect x="316.21" y="397.02" width="53.89" height="0.25" style="fill:#e0e0e0"></rect><path d="M396.75,173.34a5.49,5.49,0,0,0-5.95-.35,10.59,10.59,0,0,0-13.92-4.46,12,12,0,0,0-23.41.28,4.67,4.67,0,0,1-.9,2.38c-1,1-2.6.66-4,.55a9.88,9.88,0,0,0-9.95,6.94l60.17-.21A4.8,4.8,0,0,0,396.75,173.34Z" style="fill:#f0f0f0"></path><path d="M471.32,294.25a5.51,5.51,0,0,0-5.95-.35,10.58,10.58,0,0,0-13.92-4.45,12,12,0,0,0-23.41.28,4.51,4.51,0,0,1-.89,2.37c-1,1-2.6.66-4,.56a9.87,9.87,0,0,0-10,6.94l60.18-.22A4.8,4.8,0,0,0,471.32,294.25Z" style="fill:#f0f0f0"></path><path d="M81.36,100.13a5.49,5.49,0,0,0-5.94-.35A10.58,10.58,0,0,0,61.5,95.33a12.37,12.37,0,0,0-11.82-9.22,12.36,12.36,0,0,0-11.59,9.5,4.6,4.6,0,0,1-.9,2.37c-1,1-2.6.66-4,.55a9.87,9.87,0,0,0-10,7l60.17-.22A4.8,4.8,0,0,0,81.36,100.13Z" style="fill:#f0f0f0"></path><path d="M462.77,110.12a6.11,6.11,0,0,0-6.63-.39,11.82,11.82,0,0,0-15.54-5,13.39,13.39,0,0,0-26.13.32,5.13,5.13,0,0,1-1,2.64c-1.09,1.12-2.91.74-4.46.62a11,11,0,0,0-11.11,7.75l67.17-.24A5.34,5.34,0,0,0,462.77,110.12Z" style="fill:#e6e6e6"></path><path d="M214.24,37.86a6.52,6.52,0,0,0-7.07-.41,12.57,12.57,0,0,0-16.54-5.3,14.26,14.26,0,0,0-27.83.34,5.61,5.61,0,0,1-1.07,2.82c-1.16,1.18-3.09.78-4.74.65a11.75,11.75,0,0,0-11.84,8.26L216.69,44A5.7,5.7,0,0,0,214.24,37.86Z" style="fill:#e6e6e6"></path></g><g id="background-simple"><path d="M427.5,196.32c-18.17-17.92-47.77-24.32-70.56-12.83l7.74-20.3c6-23.14-.83-48.41-14.78-67.8s-34.43-33.34-56.32-42.91c-41.45-18.13-89.65-21.27-132.47-6.66s-79.57,47.29-97.19,89C50.32,166.93,48.18,203,52.24,237.69c3.59,30.62,12.35,61.65,32,85.42,20.24,24.49,50.2,39.06,80.69,48a300.38,300.38,0,0,0,178.33-3.25c24.21-8.07,47.66-19.45,66.85-36.28S444,292.11,448.36,267,445.68,214.24,427.5,196.32Z" style="fill:#407BFF"></path><g style="opacity:0.9"><path d="M427.5,196.32c-18.17-17.92-47.77-24.32-70.56-12.83l7.74-20.3c6-23.14-.83-48.41-14.78-67.8s-34.43-33.34-56.32-42.91c-41.45-18.13-89.65-21.27-132.47-6.66s-79.57,47.29-97.19,89C50.32,166.93,48.18,203,52.24,237.69c3.59,30.62,12.35,61.65,32,85.42,20.24,24.49,50.2,39.06,80.69,48a300.38,300.38,0,0,0,178.33-3.25c24.21-8.07,47.66-19.45,66.85-36.28S444,292.11,448.36,267,445.68,214.24,427.5,196.32Z" style="fill:#fff"></path></g></g><g id="Shadow"><path d="M458.88,448.39c0,3.39-93.52,6.14-208.88,6.14s-208.88-2.75-208.88-6.14,93.52-6.13,208.88-6.13S458.88,445,458.88,448.39Z" style="fill:#f5f5f5"></path></g><g id="Moon"><path d="M350.12,45.49a97.48,97.48,0,0,0-14.39,1.07c2.55-.2,5.13-.32,7.73-.32a93.54,93.54,0,1,1-51.69,171.51A96,96,0,1,0,350.12,45.49Z" style="fill:#407BFF"></path><path d="M350.12,45.49a97.48,97.48,0,0,0-14.39,1.07c2.55-.2,5.13-.32,7.73-.32a93.54,93.54,0,1,1-51.69,171.51A96,96,0,1,0,350.12,45.49Z" style="fill:#fff;opacity:0.8"></path></g><g id="Tree"><path d="M290.07,317a1.48,1.48,0,1,1-1.48-1.49A1.48,1.48,0,0,1,290.07,317Z" style="fill:#407BFF;opacity:0.30000000000000004"></path><path d="M289.09,317.49a.7.7,0,0,1-1,0,.71.71,0,0,1,1-1A.7.7,0,0,1,289.09,317.49Z" style="fill:#407BFF"></path><path d="M276.54,305.68a3.3,3.3,0,1,1-3.3-3.3A3.3,3.3,0,0,1,276.54,305.68Z" style="fill:#407BFF;opacity:0.30000000000000004"></path><circle cx="273.24" cy="305.78" r="1.57" style="fill:#407BFF"></circle><path d="M224.55,271.3a3.3,3.3,0,1,1-3.29-3.3A3.29,3.29,0,0,1,224.55,271.3Z" style="fill:#407BFF;opacity:0.30000000000000004"></path><path d="M222.37,272.52a1.58,1.58,0,1,1,0-2.23A1.59,1.59,0,0,1,222.37,272.52Z" style="fill:#407BFF"></path><path d="M235.42,285.3a3.3,3.3,0,1,1-3.29-3.29A3.29,3.29,0,0,1,235.42,285.3Z" style="fill:#407BFF;opacity:0.30000000000000004"></path><path d="M233.24,286.52a1.57,1.57,0,1,1,0-2.22A1.57,1.57,0,0,1,233.24,286.52Z" style="fill:#407BFF"></path><path d="M226.14,262a3.3,3.3,0,1,1-3.3-3.3A3.3,3.3,0,0,1,226.14,262Z" style="fill:#407BFF;opacity:0.30000000000000004"></path><circle cx="222.84" cy="262.07" r="1.57" style="fill:#407BFF"></circle><path d="M282.35,314.47a2.91,2.91,0,1,1-2.91-2.9A2.91,2.91,0,0,1,282.35,314.47Z" style="fill:#407BFF;opacity:0.30000000000000004"></path><path d="M280.42,315.54a1.39,1.39,0,1,1,0-2A1.39,1.39,0,0,1,280.42,315.54Z" style="fill:#407BFF"></path><path d="M238.23,278a1.9,1.9,0,1,1-1.9-1.89A1.9,1.9,0,0,1,238.23,278Z" style="fill:#407BFF;opacity:0.30000000000000004"></path><path d="M237,278.67a.91.91,0,1,1,0-1.28A.91.91,0,0,1,237,278.67Z" style="fill:#407BFF"></path><path d="M231.53,263.86a1.9,1.9,0,1,1-1.9-1.9A1.9,1.9,0,0,1,231.53,263.86Z" style="fill:#407BFF;opacity:0.30000000000000004"></path><path d="M230.27,264.56a.91.91,0,1,1,0-1.28A.91.91,0,0,1,230.27,264.56Z" style="fill:#407BFF"></path><path d="M231.53,278a1.12,1.12,0,1,1-1.11-1.11A1.12,1.12,0,0,1,231.53,278Z" style="fill:#407BFF;opacity:0.30000000000000004"></path><path d="M230.79,278.44a.53.53,0,0,1-.75-.75.54.54,0,0,1,.75,0A.53.53,0,0,1,230.79,278.44Z" style="fill:#407BFF"></path><circle cx="239.76" cy="284.51" r="1.11" style="fill:#407BFF;opacity:0.30000000000000004"></circle><circle cx="239.76" cy="284.54" r="0.53" style="fill:#407BFF"></circle><path d="M228.36,270.28a1.11,1.11,0,1,1-1.11-1.11A1.11,1.11,0,0,1,228.36,270.28Z" style="fill:#407BFF;opacity:0.30000000000000004"></path><path d="M227.63,270.69a.53.53,0,1,1,0-.75A.54.54,0,0,1,227.63,270.69Z" style="fill:#407BFF"></path><path d="M229.48,256.67a1.12,1.12,0,1,1-1.12-1.12A1.12,1.12,0,0,1,229.48,256.67Z" style="fill:#407BFF;opacity:0.30000000000000004"></path><path d="M228.74,257.08a.54.54,0,0,1-.75,0,.53.53,0,0,1,.75-.75A.54.54,0,0,1,228.74,257.08Z" style="fill:#407BFF"></path><circle cx="263.73" cy="313.52" r="2.58" style="fill:#407BFF;opacity:0.30000000000000004"></circle><circle cx="263.73" cy="313.6" r="1.23" style="fill:#407BFF"></circle><path d="M264.61,305.44a1.5,1.5,0,1,1-1.5-1.5A1.5,1.5,0,0,1,264.61,305.44Z" style="fill:#407BFF;opacity:0.30000000000000004"></path><path d="M263.61,306a.71.71,0,1,1,0-1A.71.71,0,0,1,263.61,306Z" style="fill:#407BFF"></path><path d="M283.42,306.85a1.07,1.07,0,1,1-1.07-1.07A1.06,1.06,0,0,1,283.42,306.85Z" style="fill:#407BFF;opacity:0.30000000000000004"></path><circle cx="282.35" cy="306.89" r="0.51" style="fill:#407BFF"></circle><circle cx="271.89" cy="312.93" r="1.07" style="fill:#407BFF;opacity:0.30000000000000004"></circle><circle cx="271.89" cy="312.96" r="0.51" style="fill:#407BFF"></circle><path d="M187.32,331.93a1.48,1.48,0,1,1-2.08-.23A1.48,1.48,0,0,1,187.32,331.93Z" style="fill:#407BFF;opacity:0.30000000000000004"></path><path d="M186.9,333a.71.71,0,0,1-1.41-.15.72.72,0,0,1,.78-.63A.71.71,0,0,1,186.9,333Z" style="fill:#407BFF"></path><path d="M169.71,331.6a3.29,3.29,0,1,1-4.63-.52A3.29,3.29,0,0,1,169.71,331.6Z" style="fill:#407BFF;opacity:0.30000000000000004"></path><path d="M168.77,333.91a1.57,1.57,0,1,1-1.39-1.73A1.57,1.57,0,0,1,168.77,333.91Z" style="fill:#407BFF"></path><path d="M117.38,333.19a3.3,3.3,0,1,1-4.64-.51A3.3,3.3,0,0,1,117.38,333.19Z" style="fill:#407BFF;opacity:0.30000000000000004"></path><path d="M116.43,335.51a1.57,1.57,0,1,1-1.39-1.74A1.56,1.56,0,0,1,116.43,335.51Z" style="fill:#407BFF"></path><path d="M134.62,337.33a3.3,3.3,0,1,1-4.64-.51A3.3,3.3,0,0,1,134.62,337.33Z" style="fill:#407BFF;opacity:0.30000000000000004"></path><path d="M133.67,339.65a1.57,1.57,0,1,1-1.39-1.74A1.57,1.57,0,0,1,133.67,339.65Z" style="fill:#407BFF"></path><path d="M112.78,324.91a3.3,3.3,0,1,1-4.64-.51A3.3,3.3,0,0,1,112.78,324.91Z" style="fill:#407BFF;opacity:0.30000000000000004"></path><path d="M111.83,327.23a1.57,1.57,0,1,1-1.39-1.73A1.56,1.56,0,0,1,111.83,327.23Z" style="fill:#407BFF"></path><path d="M179.75,334.83a2.91,2.91,0,1,1-4.09-.45A2.91,2.91,0,0,1,179.75,334.83Z" style="fill:#407BFF;opacity:0.30000000000000004"></path><path d="M178.91,336.87a1.38,1.38,0,1,1-1.22-1.53A1.38,1.38,0,0,1,178.91,336.87Z" style="fill:#407BFF"></path><path d="M132.22,329.85a1.9,1.9,0,1,1-2.66-.29A1.89,1.89,0,0,1,132.22,329.85Z" style="fill:#407BFF;opacity:0.30000000000000004"></path><path d="M131.68,331.19a.91.91,0,0,1-1.8-.2.91.91,0,1,1,1.8.2Z" style="fill:#407BFF"></path><path d="M118.17,323a1.9,1.9,0,1,1-2.66-.3A1.89,1.89,0,0,1,118.17,323Z" style="fill:#407BFF;opacity:0.30000000000000004"></path><path d="M117.63,324.36a.91.91,0,0,1-1.8-.2.91.91,0,1,1,1.8.2Z" style="fill:#407BFF"></path><path d="M127,334.09a1.1,1.1,0,0,1-.17,1.56,1.11,1.11,0,1,1-1.39-1.73A1.1,1.1,0,0,1,127,334.09Z" style="fill:#407BFF;opacity:0.30000000000000004"></path><path d="M126.71,334.87a.53.53,0,1,1-.47-.59A.54.54,0,0,1,126.71,334.87Z" style="fill:#407BFF"></path><path d="M136.13,331.37a1.1,1.1,0,0,1-.17,1.56,1.11,1.11,0,1,1,.17-1.56Z" style="fill:#407BFF;opacity:0.30000000000000004"></path><path d="M135.81,332.15a.53.53,0,0,1-.58.47.54.54,0,0,1-.47-.59.53.53,0,0,1,.58-.47A.54.54,0,0,1,135.81,332.15Z" style="fill:#407BFF"></path><path d="M119.71,330a1.11,1.11,0,1,1-1.73,1.39,1.11,1.11,0,1,1,1.73-1.39Z" style="fill:#407BFF;opacity:0.30000000000000004"></path><path d="M119.39,330.8a.53.53,0,0,1-.58.47.54.54,0,0,1-.47-.59.53.53,0,0,1,.59-.47A.52.52,0,0,1,119.39,330.8Z" style="fill:#407BFF"></path><path d="M112.07,318.69a1.11,1.11,0,1,1-1.56-.17A1.11,1.11,0,0,1,112.07,318.69Z" style="fill:#407BFF;opacity:0.30000000000000004"></path><path d="M111.75,319.48a.51.51,0,0,1-.58.46.53.53,0,1,1,.12-1.05A.52.52,0,0,1,111.75,319.48Z" style="fill:#407BFF"></path><path d="M166.62,344.11a2.58,2.58,0,1,1-3.62-.4A2.57,2.57,0,0,1,166.62,344.11Z" style="fill:#407BFF;opacity:0.30000000000000004"></path><path d="M165.88,345.92a1.23,1.23,0,1,1-1.08-1.35A1.22,1.22,0,0,1,165.88,345.92Z" style="fill:#407BFF"></path><path d="M160.25,338.87a1.5,1.5,0,1,1-2.1-.23A1.5,1.5,0,0,1,160.25,338.87Z" style="fill:#407BFF;opacity:0.30000000000000004"></path><path d="M159.82,339.92a.71.71,0,0,1-.78.64.72.72,0,0,1,.15-1.43A.72.72,0,0,1,159.82,339.92Z" style="fill:#407BFF"></path><path d="M175.82,328.21a1.07,1.07,0,1,1-1.5-.16A1.07,1.07,0,0,1,175.82,328.21Z" style="fill:#407BFF;opacity:0.30000000000000004"></path><path d="M175.51,329a.51.51,0,0,1-.56.46.52.52,0,0,1-.45-.57.51.51,0,0,1,.56-.45A.5.5,0,0,1,175.51,329Z" style="fill:#407BFF"></path><path d="M171.45,339.49a1.07,1.07,0,0,1-1.67,1.34,1.08,1.08,0,0,1,.17-1.51A1.07,1.07,0,0,1,171.45,339.49Z" style="fill:#407BFF;opacity:0.30000000000000004"></path><path d="M171.14,340.24a.51.51,0,1,1-.45-.56A.51.51,0,0,1,171.14,340.24Z" style="fill:#407BFF"></path><path d="M359.5,90.69a1.48,1.48,0,1,1,.74,2A1.48,1.48,0,0,1,359.5,90.69Z" style="fill:#407BFF;opacity:0.30000000000000004"></path><path d="M360.62,90.6a.7.7,0,0,1,.91.41.71.71,0,0,1-.41.91.72.72,0,0,1-.91-.41A.7.7,0,0,1,360.62,90.6Z" style="fill:#407BFF"></path><path d="M367.2,106.53a3.3,3.3,0,1,1,1.65,4.36A3.31,3.31,0,0,1,367.2,106.53Z" style="fill:#407BFF;opacity:0.30000000000000004"></path><path d="M369.7,106.32a1.57,1.57,0,1,1-.92,2A1.56,1.56,0,0,1,369.7,106.32Z" style="fill:#407BFF"></path><path d="M392.39,152.43a3.3,3.3,0,1,1,1.65,4.36A3.31,3.31,0,0,1,392.39,152.43Z" style="fill:#407BFF;opacity:0.30000000000000004"></path><path d="M394.89,152.22a1.57,1.57,0,1,1-.92,2A1.56,1.56,0,0,1,394.89,152.22Z" style="fill:#407BFF"></path><path d="M388.25,135.19a3.3,3.3,0,1,1,1.65,4.37A3.3,3.3,0,0,1,388.25,135.19Z" style="fill:#407BFF;opacity:0.30000000000000004"></path><path d="M390.74,135a1.59,1.59,0,0,1,2,.92,1.57,1.57,0,0,1-2.94,1.11A1.57,1.57,0,0,1,390.74,135Z" style="fill:#407BFF"></path><path d="M387.11,160.29a3.3,3.3,0,1,1,1.65,4.36A3.3,3.3,0,0,1,387.11,160.29Z" style="fill:#407BFF;opacity:0.30000000000000004"></path><path d="M389.6,160.08a1.57,1.57,0,1,1-.92,2A1.57,1.57,0,0,1,389.6,160.08Z" style="fill:#407BFF"></path><path d="M365.52,96.12A2.91,2.91,0,1,1,367,100,2.91,2.91,0,0,1,365.52,96.12Z" style="fill:#407BFF;opacity:0.30000000000000004"></path><path d="M367.72,95.94a1.38,1.38,0,1,1-.81,1.78A1.38,1.38,0,0,1,367.72,95.94Z" style="fill:#407BFF"></path><path d="M382.68,140.72a1.89,1.89,0,1,1,.94,2.51A1.9,1.9,0,0,1,382.68,140.72Z" style="fill:#407BFF;opacity:0.30000000000000004"></path><path d="M384.11,140.6a.9.9,0,1,1-.53,1.17A.91.91,0,0,1,384.11,140.6Z" style="fill:#407BFF"></path><path d="M383,156.34a1.9,1.9,0,1,1,.95,2.51A1.9,1.9,0,0,1,383,156.34Z" style="fill:#407BFF;opacity:0.30000000000000004"></path><path d="M384.41,156.22a.9.9,0,0,1,.64,1.69.9.9,0,1,1-.64-1.69Z" style="fill:#407BFF"></path><path d="M388.81,143.42a1.11,1.11,0,1,1,.55,1.47A1.1,1.1,0,0,1,388.81,143.42Z" style="fill:#407BFF;opacity:0.30000000000000004"></path><path d="M389.65,143.35a.53.53,0,0,1,.68.31.53.53,0,0,1-1,.38A.54.54,0,0,1,389.65,143.35Z" style="fill:#407BFF"></path><path d="M382.25,136.55a1.1,1.1,0,0,1,1.47-.55,1.11,1.11,0,1,1-1.47.55Z" style="fill:#407BFF;opacity:0.30000000000000004"></path><path d="M383.09,136.48a.53.53,0,0,1,.68.31.53.53,0,0,1-1,.38A.54.54,0,0,1,383.09,136.48Z" style="fill:#407BFF"></path><path d="M388.5,151.79a1.1,1.1,0,0,1,1.47-.55,1.11,1.11,0,0,1,.56,1.47,1.1,1.1,0,0,1-1.47.55A1.11,1.11,0,0,1,388.5,151.79Z" style="fill:#407BFF;opacity:0.30000000000000004"></path><path d="M389.34,151.72a.54.54,0,0,1,.69.31.53.53,0,0,1-1,.38A.54.54,0,0,1,389.34,151.72Z" style="fill:#407BFF"></path><path d="M381.88,163.74a1.13,1.13,0,0,1,1.48-.56,1.12,1.12,0,0,1,.55,1.48,1.1,1.1,0,0,1-1.47.55A1.11,1.11,0,0,1,381.88,163.74Z" style="fill:#407BFF;opacity:0.30000000000000004"></path><path d="M382.73,163.67a.53.53,0,0,1,.68.31.53.53,0,0,1-.31.68.53.53,0,1,1-.37-1Z" style="fill:#407BFF"></path><path d="M379.76,103.6A2.57,2.57,0,1,1,381,107,2.56,2.56,0,0,1,379.76,103.6Z" style="fill:#407BFF;opacity:0.30000000000000004"></path><path d="M381.7,103.43a1.24,1.24,0,0,1,1.59.72,1.23,1.23,0,1,1-1.59-.72Z" style="fill:#407BFF"></path><path d="M378,111.65a1.5,1.5,0,1,1,.75,2A1.5,1.5,0,0,1,378,111.65Z" style="fill:#407BFF;opacity:0.30000000000000004"></path><path d="M379.11,111.56a.71.71,0,1,1-.41.92A.71.71,0,0,1,379.11,111.56Z" style="fill:#407BFF"></path><path d="M361.41,102.62a1.08,1.08,0,0,1,1.42-.53,1.07,1.07,0,0,1-.88,2A1.08,1.08,0,0,1,361.41,102.62Z" style="fill:#407BFF;opacity:0.30000000000000004"></path><path d="M362.22,102.56a.51.51,0,1,1-.3.65A.52.52,0,0,1,362.22,102.56Z" style="fill:#407BFF"></path><path d="M373.45,101.4a1.07,1.07,0,0,1,1.41-.54,1.07,1.07,0,1,1-.88,2A1.06,1.06,0,0,1,373.45,101.4Z" style="fill:#407BFF;opacity:0.30000000000000004"></path><path d="M374.25,101.33a.51.51,0,1,1,.36,1A.5.5,0,0,1,374,102,.51.51,0,0,1,374.25,101.33Z" style="fill:#407BFF"></path><path d="M351,405.16l-2.26,32.69h12.16c-.31,0,1.06-32.69,1.06-32.69l-6.61-5.37Z" style="fill:#407BFF"></path><path d="M351,405.16l-2.26,32.69h12.16c-.31,0,1.06-32.69,1.06-32.69l-6.61-5.37Z" style="fill:#fff;opacity:0.2"></path><path d="M361.92,405.16l-6.61-5.37L351,405.16l4.46-1.17c.27,5.05,0,27.08-.09,31.22.18-4.62,1.5-31.58,1.5-31.58Z" style="fill:#fff;opacity:0.2"></path><path d="M355.31,435.88s0-.2,0-.67A6.52,6.52,0,0,0,355.31,435.88Z" style="fill:#fff;opacity:0.4"></path><path d="M355.31,399.79s1,3.92.9,4-.76,34.06-.9,34.06h5.55l1.06-32.69Z" style="opacity:0.30000000000000004"></path><polygon points="355.95 413.01 350.07 417.97 349.66 423.93 355.95 418.05 355.95 413.01" style="fill:#fff;opacity:0.2"></polygon><polygon points="356.06 408.8 350.36 413.81 350.14 416.96 355.96 412.33 356.06 408.8" style="fill:#fff;opacity:0.2"></polygon><polygon points="355.31 399.79 351.53 405.26 350.19 416.23 350.96 405.16 355.31 399.79" style="fill:#fff"></polygon><path d="M363.4,416.9,351,438.25l8.23,4.06c-.22-.11,11.62-21.75,11.62-21.75l-1.57-5.2Z" style="fill:#407BFF"></path><path d="M363.4,416.9,351,438.25l8.23,4.06c-.22-.11,11.62-21.75,11.62-21.75l-1.57-5.2Z" style="fill:#fff;opacity:0.4"></path><path d="M370.81,420.56l-1.57-5.2-5.84,1.54,3.41.7c-1.51,3.5-9.05,18.31-10.49,21.07,1.67-3.06,11.56-20.85,11.56-20.85Z" style="fill:#fff;opacity:0.4"></path><path d="M356.09,439.12s.07-.13.23-.45C356.18,438.94,356.1,439.09,356.09,439.12Z" style="fill:#fff;opacity:0.4"></path><path d="M369.24,415.36s-1.73,2.35-1.83,2.37-11.89,22.77-12,22.72l3.76,1.86,11.62-21.75Z" style="opacity:0.30000000000000004"></path><polygon points="364.15 423.87 358.53 425.26 356.26 429.15 362.47 427.28 364.15 423.87" style="fill:#fff;opacity:0.2"></polygon><polygon points="365.64 421.06 360.11 422.55 358.91 424.6 364.39 423.42 365.64 421.06" style="fill:#fff;opacity:0.2"></polygon><polygon points="369.24 415.36 363.75 417.15 359.19 424.13 363.4 416.9 369.24 415.36" style="fill:#fff"></polygon><path d="M353.27,403.49a2.43,2.43,0,0,0-2,2.22l-.09,1.16s-.41-3.3-2.51-3.39H349a2,2,0,0,0,2-2l.09-.73a2.66,2.66,0,0,0,2.25,2.69Z" style="fill:#fff"></path><path d="M244.66,387.85l10.14,22.54,8.09-4.33C262.68,406.17,252,384,252,384l-5.15-1.74Z" style="fill:#407BFF"></path><path d="M244.66,387.85l10.14,22.54,8.09-4.33C262.68,406.17,252,384,252,384l-5.15-1.74Z" style="fill:#fff;opacity:0.2"></path><path d="M252,384l-5.15-1.74-2.14,5.64,2.55-2.36c2,3.26,9.64,18,11.06,20.78-1.53-3.14-10.25-21.53-10.25-21.53Z" style="fill:#fff;opacity:0.4"></path><path d="M258.49,406.72s-.06-.13-.22-.45Z" style="fill:#fff;opacity:0.4"></path><path d="M246.8,382.21s.91,2.77.86,2.87S259.29,408,259.19,408l3.7-2L252,384Z" style="opacity:0.30000000000000004"></path><polygon points="250.77 391.3 248.63 396.68 250.48 400.79 252.57 394.65 250.77 391.3" style="fill:#fff;opacity:0.2"></polygon><polygon points="249.35 388.46 247.34 393.82 248.32 395.99 250.54 390.84 249.35 388.46" style="fill:#fff;opacity:0.2"></polygon><polygon points="246.8 382.21 245.07 387.72 248.1 395.49 244.66 387.86 246.8 382.21" style="fill:#fff;opacity:0.30000000000000004"></polygon><path d="M240.25,394.47l10.8,14.21,3.49-2.92c-.09.08-11.14-13.93-11.14-13.93l-3.26-1Z" style="fill:#407BFF"></path><path d="M240.25,394.47l10.8,14.21,3.49-2.92c-.09.08-11.14-13.93-11.14-13.93l-3.26-1Z" style="fill:#fff;opacity:0.2"></path><path d="M243.4,391.83l-3.26-1,.11,3.65.87-1.56C243,395,250.6,404.24,252,406c-1.57-2-10.63-13.58-10.63-13.58Z" style="fill:#fff;opacity:0.4"></path><path d="M252.26,406.27,252,406A2.22,2.22,0,0,0,252.26,406.27Z" style="fill:#fff;opacity:0.4"></path><path d="M240.14,390.82s1.15,1.75,1.14,1.81S253,407.06,253,407.1l1.59-1.34L243.4,391.83Z" style="opacity:0.30000000000000004"></path><polygon points="244.43 396.55 244.48 400.04 246.45 402.63 246.2 398.66 244.43 396.55" style="fill:#fff;opacity:0.2"></polygon><polygon points="242.99 394.76 243.11 398.23 244.15 399.6 244.2 396.26 242.99 394.76" style="fill:#fff;opacity:0.2"></polygon><polygon points="240.15 390.82 240.45 394.37 243.91 399.28 240.25 394.46 240.15 390.82" style="fill:#fff"></polygon><path d="M318.32,381.58l-15.23,29,11.13,4.9c-.29-.13,14.13-29.5,14.13-29.5l-3.88-7.58Z" style="fill:#407BFF"></path><path d="M318.32,381.58l-15.23,29,11.13,4.9c-.29-.13,14.13-29.5,14.13-29.5l-3.88-7.58Z" style="fill:#fff;opacity:0.4"></path><path d="M328.35,386l-3.88-7.58-6.15,3.17,4.56.73c-1.79,4.72-10.92,24.78-12.66,28.53,2-4.16,14.1-28.3,14.1-28.3Z" style="fill:#fff;opacity:0.4"></path><path d="M309.93,411.44a4.89,4.89,0,0,0,.29-.6C310,411.2,309.94,411.41,309.93,411.44Z" style="fill:#fff;opacity:0.4"></path><path d="M324.47,378.41s-.65,4-.79,4-14.42,30.87-14.54,30.81l5.08,2.24L328.35,386Z" style="opacity:0.30000000000000004"></path><polygon points="319.73 390.78 312.35 392.94 309.57 398.23 317.7 395.39 319.73 390.78" style="fill:#fff;opacity:0.2"></polygon><polygon points="321.53 386.96 314.29 389.25 312.82 392.05 320.01 390.16 321.53 386.96" style="fill:#fff;opacity:0.2"></polygon><polygon points="324.47 378.41 318.81 381.9 313.16 391.4 318.32 381.58 324.47 378.41" style="fill:#fff"></polygon><path d="M321.11,381a2.46,2.46,0,0,0-2.75,1.22l-.54,1s.95-3.18-.93-4.11l.29.13a2,2,0,0,0,2.58-1l.38-.62a2.65,2.65,0,0,0,1,3.36Z" style="fill:#fff"></path><path d="M300.8,392.38a2.42,2.42,0,0,0-2.74,1.21l-.54,1s.94-3.19-.94-4.12l.29.13a2,2,0,0,0,2.58-1l.38-.62a2.66,2.66,0,0,0,1,3.37Z" style="fill:#fff"></path><path d="M198.45,325.17s10.14,12.87,14.82,17.74c3.37,3.51,8.65,9.25,11.92,12.81a8.45,8.45,0,0,0,6.94,2.71c6.24-.5,18-.44,22.59,6.31a71,71,0,0,1,9,18.35l-5.12,19.2s-23.47-4.69-29.87,0-14.32,22-14.32,22-22.45-3.13-28.62,3.25c-5.05,5.21-16.38,17.85-16.38,17.85H183s7.25-11.1,10.66-11.95S220.13,444,220.13,444l168.16,1.38s-5.55-9.82-8.11-10.24-27.74-.43-27.74-.43-12.38-17.92-14.51-19.63-26.46-6.4-26.46-6.4l-6.4-36.7s-17.92-17.49-17.92-19.63.1-12.19.1-12.19l5.27-.8s26.21,32.19,32.18,33.05,18.7-8.16,18.7-8.16,5.2-14.89,3.92-17.45-11.95-13.22-11.52-16.64,16.5-33.58,16.5-34.86-20.77-2.69-20.77-2.69l-2.13,22.19s-9,10.67-9.39,14.51,2.56,11.09,2.56,11.09a41,41,0,0,1-5.12.86c-1.28,0-7.26-9.82-9-11.53S294.83,314.38,291.84,314s-28.59,8.1-30.29,12.37,0,17.07,0,17.07-19.63-18.35-20.49-20.06-2.13-11.95-2.13-13.23,10.24-9,10.24-9,27.74-.85,29.66-1.7,12.2-3.64,12.2-3.64c0-2.56,27.27-26.24,27.27-26.24s-12.37-2.13-13.65-2.56-23.9,19.21-23.9,19.21-20.06.85-21.34.42,15-14.5,15-14.5-2.6-9.82-3.88-10.25-12.81,0-12.81,0l-17.06,26.89-19.21,16.64-.85,10.67,8,16.6-14.86-18.31s-3.3-17.64-4.27-18.35c-1.42-1-13.65-11.95-17.92-12.8s-16.21-.43-17.5,0-6.82,14.94-7.68,14.94,27.74,3.41,26.46,4.26S198.45,325.17,198.45,325.17Z" style="fill:#407BFF"></path><path d="M324.13,445.39c-.35,0-11.9-3.92-14.35-4.79s-35.68-24.67-39.37-27.82-6.83-31.2-6.59-30.45,5.68,26.92,7.51,28.76,35.73,27.12,38.56,28.25S324.13,445.39,324.13,445.39Z" style="opacity:0.30000000000000004"></path><path d="M286.91,418.83A63.07,63.07,0,0,0,270,412.78l39.37,27.82S295.92,423.55,286.91,418.83Z" style="fill:#fff;opacity:0.30000000000000004"></path><path d="M285.2,403.86l-1.34,19.26s11.6,8,11.28,8,1-27.22,1-27.22l-6.61-5.38Z" style="fill:#407BFF"></path><path d="M285.2,403.86l-1.34,19.26s10.9,7.43,10.58,7.43,1.71-26.69,1.71-26.69l-6.61-5.38Z" style="fill:#fff;opacity:0.4"></path><path d="M296.15,403.86l-6.61-5.38-4.34,5.38,4.46-1.17c.26,5,.24,20.63.16,24.77.18-4.63,1.25-25.14,1.25-25.14Z" style="fill:#fff;opacity:0.4"></path><path d="M289.54,398.48s1,3.93.91,4-.49,25-.63,25l4.62,3.09,1.71-26.69Z" style="opacity:0.30000000000000004"></path><polygon points="290.18 411.71 284.31 416.66 283.9 422.62 290.18 416.75 290.18 411.71" style="fill:#fff;opacity:0.2"></polygon><polygon points="290.3 407.5 284.6 412.5 284.38 415.65 290.2 411.03 290.3 407.5" style="fill:#fff;opacity:0.2"></polygon><polygon points="289.54 398.48 285.77 403.95 284.43 414.93 285.2 403.86 289.54 398.48" style="fill:#fff"></polygon><path d="M297.71,415.59l-7.21,12.26,7.19,5.18c-.22-.11,7.43-13.78,7.43-13.78l-1.57-5.19Z" style="fill:#407BFF"></path><path d="M297.64,415.59l-7.32,12.56s7.58,5,7.37,4.88,7.36-13.78,7.36-13.78l-1.58-5.19Z" style="fill:#fff;opacity:0.4"></path><path d="M305.05,419.25l-1.58-5.19-5.83,1.53,3.4.7c-1.5,3.5-5.16,11.8-6.6,14.57,1.67-3.06,7.68-14.34,7.68-14.34Z" style="fill:#fff;opacity:0.4"></path><path d="M303.47,414.06s-1.72,2.35-1.83,2.36-7.1,14.18-7.2,14.13L297.3,433l7.75-13.78Z" style="opacity:0.30000000000000004"></path><polygon points="298.39 422.57 292.76 423.96 290.5 427.85 296.71 425.98 298.39 422.57" style="fill:#fff;opacity:0.2"></polygon><polygon points="299.87 419.76 294.35 421.24 293.15 423.3 298.63 422.12 299.87 419.76" style="fill:#fff;opacity:0.2"></polygon><polygon points="303.47 414.06 297.99 415.85 293.42 422.82 297.64 415.59 303.47 414.06" style="fill:#fff"></polygon><path d="M287.51,402.19a2.43,2.43,0,0,0-2,2.22l-.08,1.15s-.41-3.29-2.51-3.39h.32a2,2,0,0,0,2-2l.1-.72a2.66,2.66,0,0,0,2.25,2.69Z" style="fill:#fff"></path><path d="M331,300.09a25.53,25.53,0,0,0,12,14.39l7.54-14.73-18.65-11.3Z" style="opacity:0.30000000000000004"></path><path d="M294.42,274.63s3.78,2.71,10.44,1.18c0,0-3.85,4.53-1,6.57l7.54-6.76,2.62-8.18s-4.07-.74-4.6-.85-10.9,4.34-10.8,4.34S294.42,274.63,294.42,274.63Z" style="opacity:0.30000000000000004"></path><path d="M244.87,282.1a43.31,43.31,0,0,0,12.65-1.61C270.05,277.3,273.79,270,273.79,270l-1.93-7-16.78,3Z" style="opacity:0.30000000000000004"></path><path d="M198.49,325.19c.87-.23,15.91-17.49,7-30.34l-9.33,22.43Z" style="opacity:0.30000000000000004"></path><path d="M249.17,301.15l10.24-14.51h3.81S253.51,301,253.93,301l-3.38.16" style="opacity:0.30000000000000004"></path><polygon points="317.45 341.27 325.96 347.96 334.47 350.64 326.78 346.32 322.57 340.41 317.45 341.27" style="opacity:0.30000000000000004"></polygon><path d="M265.56,445.41c-2.95-2.8-5.8-5.7-8.54-8.73a32.66,32.66,0,0,1-4.71-6.13,11.77,11.77,0,0,1-.19-4.69,100.17,100.17,0,0,1,4.46-17.8l2-5.77c-1,3.94-2.22,7.83-3.23,11.77a90.19,90.19,0,0,0-2.48,11.88c-.17,1.93-.49,4,.82,5.62a179.76,179.76,0,0,0,11.89,13.85Z" style="fill:#263238"></path><path d="M278,374a1.82,1.82,0,1,1-1.82-1.82A1.81,1.81,0,0,1,278,374Z" style="fill:#fff;opacity:0.30000000000000004"></path><path d="M276.77,374.66a.87.87,0,0,1-1.23,0,.87.87,0,1,1,1.23,0Z" style="fill:#fff"></path><path d="M293,376.53a1.82,1.82,0,1,1-1.82-1.82A1.82,1.82,0,0,1,293,376.53Z" style="fill:#fff;opacity:0.30000000000000004"></path><path d="M291.77,377.2a.86.86,0,0,1-1.22,0,.87.87,0,1,1,1.22,0Z" style="fill:#fff"></path><path d="M270,361.08a1.82,1.82,0,1,1-1.81-1.81A1.81,1.81,0,0,1,270,361.08Z" style="fill:#fff;opacity:0.30000000000000004"></path><circle cx="268.23" cy="361.14" r="0.87" style="fill:#fff"></circle><circle cx="271.67" cy="327.05" r="1.07" style="fill:#fff;opacity:0.30000000000000004"></circle><circle cx="271.67" cy="327.09" r="0.51" style="fill:#fff"></circle><path d="M282.56,381.4a1.14,1.14,0,1,1-1.14-1.13A1.13,1.13,0,0,1,282.56,381.4Z" style="fill:#fff;opacity:0.30000000000000004"></path><circle cx="281.42" cy="381.44" r="0.54" style="fill:#fff"></circle><path d="M275.39,365.29a1.13,1.13,0,1,1-1.13-1.14A1.13,1.13,0,0,1,275.39,365.29Z" style="fill:#fff;opacity:0.30000000000000004"></path><circle cx="274.26" cy="365.32" r="0.54" style="fill:#fff"></circle><path d="M270.08,343.73a1.59,1.59,0,1,1-1.58-1.58A1.59,1.59,0,0,1,270.08,343.73Z" style="fill:#fff;opacity:0.30000000000000004"></path><path d="M269,344.32a.75.75,0,0,1-1.07,0,.77.77,0,0,1,0-1.07.76.76,0,1,1,1.07,1.07Z" style="fill:#fff"></path><path d="M280.05,359.27a1.13,1.13,0,1,1-1.13-1.13A1.13,1.13,0,0,1,280.05,359.27Z" style="fill:#fff;opacity:0.30000000000000004"></path><circle cx="278.92" cy="359.31" r="0.54" style="fill:#fff"></circle><path d="M263.94,353.91a1.13,1.13,0,1,1-1.13-1.13A1.12,1.12,0,0,1,263.94,353.91Z" style="fill:#fff;opacity:0.30000000000000004"></path><circle cx="262.81" cy="353.95" r="0.54" style="fill:#fff"></circle><circle cx="299.57" cy="390.63" r="1.13" style="fill:#fff;opacity:0.30000000000000004"></circle><circle cx="299.57" cy="390.67" r="0.54" style="fill:#fff"></circle><path d="M289.87,386.84a2.29,2.29,0,1,1-2.29-2.28A2.29,2.29,0,0,1,289.87,386.84Z" style="fill:#fff;opacity:0.30000000000000004"></path><circle cx="287.58" cy="386.92" r="1.09" style="fill:#fff"></circle><path d="M283.09,345.32a2.29,2.29,0,1,1-2.28-2.28A2.29,2.29,0,0,1,283.09,345.32Z" style="fill:#fff;opacity:0.30000000000000004"></path><path d="M281.58,346.16a1.09,1.09,0,0,1-1.54-1.54,1.09,1.09,0,1,1,1.54,1.54Z" style="fill:#fff"></path><path d="M276.55,335.59a2.29,2.29,0,1,1-2.29-2.28A2.29,2.29,0,0,1,276.55,335.59Z" style="fill:#fff;opacity:0.30000000000000004"></path><circle cx="274.26" cy="335.67" r="1.09" style="fill:#fff"></circle><path d="M288.53,365.29a3.86,3.86,0,1,1-3.86-3.86A3.86,3.86,0,0,1,288.53,365.29Z" style="fill:#fff;opacity:0.30000000000000004"></path><path d="M286,366.71a1.84,1.84,0,1,1,0-2.6A1.83,1.83,0,0,1,286,366.71Z" style="fill:#fff"></path><path d="M278.2,351.1a3.86,3.86,0,1,1-3.86-3.86A3.86,3.86,0,0,1,278.2,351.1Z" style="fill:#fff;opacity:0.30000000000000004"></path><path d="M275.64,352.52a1.84,1.84,0,1,1,0-2.6A1.83,1.83,0,0,1,275.64,352.52Z" style="fill:#fff"></path><circle cx="297.16" cy="408.67" r="1.81" style="fill:#fff;opacity:0.30000000000000004"></circle><circle cx="297.16" cy="408.73" r="0.87" style="fill:#fff"></circle><path d="M324.47,406.8a1.82,1.82,0,1,1-1.81-1.82A1.81,1.81,0,0,1,324.47,406.8Z" style="fill:#fff;opacity:0.30000000000000004"></path><path d="M323.27,407.46a.86.86,0,1,1,0-1.22A.86.86,0,0,1,323.27,407.46Z" style="fill:#fff"></path><path d="M298,388.09a1.82,1.82,0,1,1-1.81-1.81A1.82,1.82,0,0,1,298,388.09Z" style="fill:#fff;opacity:0.30000000000000004"></path><path d="M296.78,388.76a.87.87,0,1,1,0-1.22A.86.86,0,0,1,296.78,388.76Z" style="fill:#fff"></path><path d="M308.11,412.21a1.14,1.14,0,1,1-1.14-1.13A1.13,1.13,0,0,1,308.11,412.21Z" style="fill:#fff;opacity:0.30000000000000004"></path><path d="M307.36,412.63a.55.55,0,0,1-.77,0,.54.54,0,0,1,0-.76.55.55,0,0,1,.77,0A.54.54,0,0,1,307.36,412.63Z" style="fill:#fff"></path><path d="M304.07,399.18a1.14,1.14,0,1,1-1.14-1.13A1.14,1.14,0,0,1,304.07,399.18Z" style="fill:#fff;opacity:0.30000000000000004"></path><path d="M303.31,399.6a.54.54,0,1,1,0-.76A.52.52,0,0,1,303.31,399.6Z" style="fill:#fff"></path><path d="M308.72,393.17a1.13,1.13,0,1,1-1.13-1.14A1.13,1.13,0,0,1,308.72,393.17Z" style="fill:#fff;opacity:0.30000000000000004"></path><circle cx="307.59" cy="393.2" r="0.54" style="fill:#fff"></circle><path d="M319.58,423.69a1.13,1.13,0,1,1-1.13-1.14A1.14,1.14,0,0,1,319.58,423.69Z" style="fill:#fff;opacity:0.30000000000000004"></path><path d="M318.83,424.1a.52.52,0,0,1-.76,0,.54.54,0,1,1,.76,0Z" style="fill:#fff"></path><path d="M316.9,412.94a2.29,2.29,0,1,1-2.29-2.28A2.29,2.29,0,0,1,316.9,412.94Z" style="fill:#fff;opacity:0.30000000000000004"></path><path d="M315.38,413.78a1.08,1.08,0,0,1-1.54,0,1.09,1.09,0,0,1,1.54-1.54A1.08,1.08,0,0,1,315.38,413.78Z" style="fill:#fff"></path><circle cx="311.17" cy="400.42" r="3.86" style="fill:#fff;opacity:0.30000000000000004"></circle><path d="M312.47,401.84a1.84,1.84,0,1,1,0-2.6A1.83,1.83,0,0,1,312.47,401.84Z" style="fill:#fff"></path><path d="M311.47,408.69s-15.05-12-16.84-15.54S267,348,262.94,346.14s-18.68-2.69-22.85-3.92-11.48-9.53-11.48-9.53,6,10.26,12.74,11.5,17.61,2,20.74,3.06,31.67,48.76,34.83,50.91C302.56,402,311.51,408.71,311.47,408.69Z" style="opacity:0.30000000000000004"></path><path d="M265.56,445.41s-10.15-10.23-12.73-14.48,6.6-29.55,5.83-28.75-5.59,22.8-4.46,26.56S265.56,445.41,265.56,445.41Z" style="opacity:0.30000000000000004"></path><path d="M311.47,408.69a132.33,132.33,0,0,1-14.2-11.79c-2.58-2.65-3.92-6.26-6-9.3q-7.77-12.56-16-24.83c-3.86-5.49-7.31-11.44-12.05-16.22-2.65-1.39-5.9-1.54-8.84-2.08-4.29-.62-10.45-1.21-14.62-2.22-4.59-1.89-7.86-6-11.14-9.56,3.3,3.49,6.65,7.52,11.21,9.33,4.1,1,10.35,1.52,14.59,2.12,3,.55,6.28.64,9,2.1,4.81,4.79,8.31,10.75,12.22,16.26q8.18,12.3,15.87,24.92c2.07,3,3.36,6.61,5.92,9.29a140.32,140.32,0,0,0,14,12Z" style="fill:#263238"></path><path d="M317.45,341.27c2.81,2.1,6,4.49,8.58,6.51l8.7,3.09-.32.26c-.45-3.23-.84-6.47-1.24-9.71-.31-2.86-.82-6.91-.95-9.75.15,1.62.44,3.23.66,4.85.46,3.07,1.58,11.37,2,14.55l.05.39-.37-.13-8.68-3.19c-2.84-2.24-5.64-4.56-8.44-6.87Z" style="fill:#263238"></path><polygon points="214.37 424.29 218.3 432.63 236.35 444.14 216.63 434.22 214.37 424.29" style="opacity:0.30000000000000004"></polygon><path d="M352.44,434.72l8,6.45c1.38,1.12,27.89,4.22,27.89,4.22l-27.2-4.79Z" style="opacity:0.30000000000000004"></path><path d="M287.25,340.17s.8-2.8,1.28-4.06a15.5,15.5,0,0,1,2.23-1.89l1.76,5.15Z" style="opacity:0.30000000000000004"></path><path d="M292.32,332.69c-1.16,1.08-2.86,2.73-3.81,3.47-.36,1.26-.89,3-1.21,4,0,2-.06,4.07-.08,6.1s-.13,4.06-.27,6.09c-.09-2-.12-4.06-.15-6.1s0-4.09,0-6.13c.45-1.38.87-2.77,1.35-4.14,1.37-1.12,2.74-2.23,4.15-3.3Z" style="fill:#263238"></path><path d="M167.61,414l-2.26,32.69h12.16c-.31,0,1.06-32.69,1.06-32.69L172,408.65Z" style="fill:#407BFF"></path><path d="M167.61,414l-2.26,32.69h12.16c-.31,0,1.06-32.69,1.06-32.69L172,408.65Z" style="fill:#fff;opacity:0.2"></path><path d="M178.57,414,172,408.65,167.61,414l4.46-1.17c.27,5,0,27.08-.09,31.22.18-4.63,1.5-31.59,1.5-31.59Z" style="fill:#fff;opacity:0.30000000000000004"></path><path d="M172,444.74c0,.05,0-.19,0-.66C172,444.47,172,444.7,172,444.74Z" style="fill:#fff;opacity:0.4"></path><path d="M172,408.65s1,3.93.9,4-.76,34.06-.9,34.06h5.55L178.57,414Z" style="opacity:0.30000000000000004"></path><polygon points="172.6 421.88 166.72 426.83 166.31 432.79 172.6 426.92 172.6 421.88" style="fill:#fff;opacity:0.2"></polygon><polygon points="172.71 417.67 167.01 422.67 166.79 425.82 172.61 421.2 172.71 417.67" style="fill:#fff;opacity:0.2"></polygon><polygon points="171.96 408.65 168.18 414.12 166.84 425.1 167.61 414.03 171.96 408.65" style="fill:#fff"></polygon><path d="M154.19,431.72l1.57-7.23,4.27,1.95s9.17,20.39,9.36,20.66-6.77,0-6.77,0S153.63,431.35,154.19,431.72Z" style="fill:#407BFF"></path><path d="M154.19,431.72l1.57-7.23,4.27,1.95s9.17,20.39,9.36,20.66-6.77,0-6.77,0S153.63,431.35,154.19,431.72Z" style="fill:#fff;opacity:0.1"></path><path d="M167.61,447.19c-.27,0-9.19-18.84-9.49-19.48l0,0,1.88-1.23-4.27-1.95,0,.09,0-.06,0,.08-1.55,7.12,3.43-3.5,9.11,19Z" style="fill:#fff;opacity:0.30000000000000004"></path><path d="M159.48,432.1c.15,0-1.37,7-1.37,7l2.24,4,1.31-6.45Z" style="fill:#fff;opacity:0.30000000000000004"></path><polygon points="162.22 437.35 160.86 444 161.54 445.2 162.82 438.74 162.22 437.35" style="fill:#fff;opacity:0.30000000000000004"></polygon><path d="M155.76,424.49l1.86,3.73s9.49,18.94,9.49,19,2.5-.16,2.28-.09S160,426.44,160,426.44Z" style="opacity:0.30000000000000004"></path><path d="M206.1,434.52l-1.33,10.89h9.17c-.24,0,.43-10.89.43-10.89l-3.71-2.79Z" style="fill:#407BFF"></path><path d="M206.1,434.52l-1.33,10.89h9.17c-.24,0,.43-10.89.43-10.89l-3.71-2.79Z" style="fill:#fff;opacity:0.4"></path><path d="M214.37,434.52l-3.71-2.79-4.56,2.79,3.37-.62c.2,2.67.36,7.92.3,10.11.13-2.45.76-10.31.76-10.31Z" style="fill:#fff;opacity:0.4"></path><path d="M209.75,444.37s0-.11,0-.36C209.76,444.22,209.75,444.35,209.75,444.37Z" style="fill:#fff;opacity:0.4"></path><path d="M210.66,431.73a20.4,20.4,0,0,1-.6,2.06c-.08,0-.2,11.62-.31,11.62h4.19l.43-10.89Z" style="opacity:0.30000000000000004"></path><polygon points="209.87 438.69 205.44 441.31 205.12 444.47 209.87 441.36 209.87 438.69" style="fill:#fff;opacity:0.2"></polygon><polygon points="209.95 436.45 205.65 439.11 205.49 440.78 209.88 438.32 209.95 436.45" style="fill:#fff;opacity:0.2"></polygon><polygon points="210.66 431.73 206.53 434.57 205.53 440.39 206.1 434.52 210.66 431.73" style="fill:#fff"></polygon><path d="M273.75,415.52c.39.1,14.92,7.21,19.91,11.37a112.35,112.35,0,0,1,10.77,11l-17.74-12.95-13.3-9.25" style="fill:#fff"></path><path d="M323.76,445.59c-4.7-1.36-9.46-2.94-14.11-4.49-9.46-5.33-18-12.14-27-18.3-4.35-3.23-8.92-6.33-13.06-9.82-1.57-2-2-4.63-2.67-7-.88-3.87-1.51-7.77-2.07-11.68s-.94-7.84-1.42-11.76c.6,3.9,1.12,7.81,1.78,11.7s1.33,7.78,2.27,11.6c.67,2.3,1.14,4.81,2.59,6.71,4.13,3.4,8.69,6.49,13,9.66,8.85,6.17,17.45,13,26.7,18.5,4.62,1.63,9.31,3.39,14,4.89Z" style="fill:#263238"></path><path d="M68.86,124.91C50,129.8,37.28,151.21,41.93,170.09c-11,.29-20.69,10.49-20.45,21.45.07,3.29.91,6.58.5,9.84s-1.92,6-3,9c-5.91,16.44,4.2,36.8,20.88,42,1.87,10.07,3.89,20.48,9.77,28.86s16.78,14.16,26.48,10.88c5.27,10.36,18.35,16,29.51,12.77,14.69,21,43.89,32.73,78.56,11.89h0s7.32,2.61,12.06,2.12c17.43-1.81,23.26-10.74,23.81-21.67s-8.59-21.45-19.49-22.43a25.49,25.49,0,0,0,9.2-23.3,41.87,41.87,0,0,0,39.92,7.18,21.52,21.52,0,0,0,39.84,6.11,29.93,29.93,0,0,0,33.19,8.74,18,18,0,0,0,23.12,23.91A27.81,27.81,0,0,0,394.32,316a25.63,25.63,0,0,0,40.57-20.69,28.51,28.51,0,0,0,16.88-51.25c6.18-7.6.2-21.24-9.58-21.85,3.77-5-1.34-11.82-6.31-15.63-10-7.65-21.44-14.1-34-15.22s-26.21,4.1-32.3,15.1c-.46-8.64-10.73-15.18-18.76-11.92A9.34,9.34,0,0,0,349.38,182c9.1-6.41,6.63-23.21-3.93-26.73,8-2,17.08-4.75,20.49-12.26,3.21-7.06-.29-15.75-6.23-20.72s-13.77-7-21.39-8.45c3.09-4.41,1.36-10.84-2.42-14.66s-9.07-5.68-14.16-7.41c4-6.27.45-14.62-4.22-20.38a56.19,56.19,0,0,0-84.08-3.61,20.1,20.1,0,0,0-25,1.43C207,62.59,200,58.87,193.58,57c-23.42-6.8-50.32.23-67.42,17.62-8.52-.52-19.2,3.47-24.58,10.11-1.78,2.2-4.59,5.9-3.91,5.81a58.67,58.67,0,0,1-9.21.58c-15.35-1.31-30.07,16.74-19.6,33.8h0" style="fill:#263238"></path><path d="M442.06,222.21c6.48-9.74-13.33-20.76-20.31-24.55a52.81,52.81,0,0,0-22.37-6.24c-11.5-.25-23.91,4.8-29.67,15.18l-.46.82a12.33,12.33,0,0,0-2-6.79c-3.6-5.56-11.35-8.46-17.45-5.38l.7-.9a9,9,0,0,0-1.76-12.41l.34-.24c8.87-6.33,6.47-22.66-3.86-26.15l-1.16-.38,1.19-.29c5.65-1.42,11.54-3,16.11-6.77,7.53-6,6.33-16.53.37-23.2s-15.06-9-23.6-10.7l-.66-.12c3.52-4.38,1.69-11-2-14.67-3.93-3.92-9.37-5.69-14.53-7.45,2.82-4.21,1.37-9.84-.33-14.28-3.47-9.24-11.74-15.51-20.06-20.22-12.9-6.91-28.47-7.9-42.61-4.83C248.28,54.85,240.29,61,233.62,68l-.27.28-.3-.23a19.65,19.65,0,0,0-25,1.88l-.16-.71c-1.92-7.78-10.54-11-17.6-12.68a69.24,69.24,0,0,0-45.2,5,66.53,66.53,0,0,0-19,13.38,32.81,32.81,0,0,0-16.66,3.8A29.46,29.46,0,0,0,97.72,90.41s0,0,0,0,0-.09-.1-.14-.07,0-.11,0l.08.55a69.06,69.06,0,0,1-7.18.61c-18.31-2.2-31.54,17.5-21.53,33.4L69,125l-.22.06A34.48,34.48,0,0,0,56,131.49c-11.29,8.92-17.63,24.41-14.19,38.6-3.53-14.21,2.75-29.78,14-38.8a34.83,34.83,0,0,1,12.85-6.55l-.1.26a21.94,21.94,0,0,1-1.7-20.77A22.85,22.85,0,0,1,83.2,91.11c2.36-.53,4.82-.22,7.19-.23s4.75-.32,7.11-.62l.07.55a.34.34,0,0,1-.23,0,.35.35,0,0,1-.18-.25.63.63,0,0,1,0-.26,3.11,3.11,0,0,1,.12-.3,26.13,26.13,0,0,1,2.17-3.17,27.29,27.29,0,0,1,9.74-8.59c4.7-2.51,12.16-4.49,16.59-3.81,16.46-16.73,41.87-24,64.69-18.57,7.3,1.7,16.26,5.15,18.22,13.25l-.68-.21a20.53,20.53,0,0,1,25.54-1.47l-.57,0c6.73-7.15,14.92-13.43,24.67-15.68,19.66-4.35,40.41-.66,55.33,13.46C319.37,70.43,326.5,84,322,92l-.25-.7c7.49,2.41,16.48,6.11,18.2,14.72a10.24,10.24,0,0,1-1.4,8.05l-.28-.68c8.63,1.68,18,4.14,24.05,11s7.41,18-.51,24.3c-4.69,3.83-10.66,5.45-16.41,6.88l0-.68c8.15,2.77,11.52,13,8.85,20.74a13.22,13.22,0,0,1-4.85,6.59v-.5a9.62,9.62,0,0,1,1.51,13l-.34-.46c6.18-2.49,13.56.64,17.09,6.06a12.54,12.54,0,0,1,2,6.13l-.5-.12c5.87-10.55,18.47-15.64,30.15-15.3a53.07,53.07,0,0,1,22.46,6.42c7.36,4.07,26.68,15.08,20.21,24.76Z" style="fill:#407BFF"></path><g style="opacity:0.2"><path d="M439,278.9a25.62,25.62,0,0,1-40.57,20.69A27.81,27.81,0,0,1,350,281.08a17.94,17.94,0,0,1-23.12-23.9,30,30,0,0,1-33.19-8.75,21.52,21.52,0,0,1-39.84-6.1,41.9,41.9,0,0,1-39.92-7.19,25.49,25.49,0,0,1-3.5,16.78,41.93,41.93,0,0,0,39.28,6.69,21.53,21.53,0,0,0,39.85,6.1,30,30,0,0,0,33.19,8.75,17.94,17.94,0,0,0,23.12,23.9,27.81,27.81,0,0,0,48.49,18.51,25.62,25.62,0,0,0,40.57-20.69,29.27,29.27,0,0,0,26.76-19.59,27.24,27.24,0,0,0,1.26-10.26A29.4,29.4,0,0,1,439,278.9Z" style="fill:#407BFF"></path><path d="M198.78,301.68c-4.74.49-12.06-2.12-12.06-2.12-34.67,20.84-63.87,9.13-78.56-11.89C97,290.92,83.92,285.26,78.65,274.9c-9.7,3.28-20.6-2.5-26.48-10.88s-7.9-18.79-9.77-28.86C28.94,231,19.76,216.88,19.82,203c-.65,2.19-1.66,4.29-2.43,6.45-5.92,16.45,4.2,36.81,20.88,42,1.87,10.07,3.88,20.48,9.77,28.86s16.78,14.16,26.48,10.88c5.27,10.36,18.35,16,29.51,12.77,14.69,21,43.88,32.73,78.56,11.89,0,0,7.32,2.61,12.06,2.11,17.43-1.8,23.25-10.73,23.8-21.66a19.46,19.46,0,0,0-.15-3.5C214.71,297.39,208.58,300.66,198.78,301.68Z" style="fill:#407BFF"></path></g><path d="M210.4,251.91a41.77,41.77,0,0,0,39.2,6.47l.25-.09.06.27a21.3,21.3,0,0,0,39.31,6l.25-.45.32.4c7.87,9.63,22.32,13.15,33.72,8.2a17.56,17.56,0,0,0,22.82,23.93,27.46,27.46,0,0,0,47.72,19l.22-.24.27.19a25.32,25.32,0,0,0,40.1-20.65,28.09,28.09,0,0,0,11.23-2.45c10.48-4.55,18-15.59,17.05-27.16,1,11.64-6.39,22.82-16.89,27.52a28.3,28.3,0,0,1-11.13,2.6l.25-.26a25.94,25.94,0,0,1-41,21l.49-.05c-12.09,13.24-34,12.25-44.1-2.86a28.45,28.45,0,0,1-5.17-15.9l.69.46a18.45,18.45,0,0,1-23.69-24.53l.54.56a30.33,30.33,0,0,1-33.62-8.92l.58-.05a21.82,21.82,0,0,1-40.38-6.23l.31.18a42,42,0,0,1-39.36-6.92Z" style="fill:#407BFF"></path><path d="M21.42,203.83c-1.54,4.62-3.76,9.12-3.91,14.09-1,14.62,8.48,29.72,22.62,34.15,1.88,10,3.85,20.38,9.77,28.83,5.64,8,16.28,14,26.08,10.73l.36-.12.17.34a25.6,25.6,0,0,0,29,12.5l.33-.1.2.29c19.49,27.09,50.87,28.32,78,11.92l.12-.06.12,0c4,1.28,8.27,2.54,12.5,2.05,6.3-.7,12.86-2.49,17.48-7.05,3.85-3.82,5.56-9.25,5.79-14.58a20.3,20.3,0,0,0-.15-3.21,19.21,19.21,0,0,1,.19,3.22c-.16,5.36-1.81,10.84-5.65,14.75-4.61,4.67-11.24,6.6-17.6,7.37-4.35.52-8.64-.73-12.75-2l.24,0c-19.25,11.7-43.12,15.94-63,3.33a56,56,0,0,1-16.06-15.19l.53.19c-11.39,3.34-24.66-2.46-30-13l.53.22c-10.19,3.36-21.16-2.82-27-11.14-5.92-8.54-7.88-19-9.72-29l.2.23c-9.48-3.06-16.94-11-20.38-20.18a32.41,32.41,0,0,1-.59-21.7c.77-2.34,1.91-4.53,2.61-6.88Z" style="fill:#407BFF"></path><g style="opacity:0.30000000000000004"><path d="M157.79,264.14a2.53,2.53,0,0,0-.8-.69,4.59,4.59,0,0,0-3-.41,12.8,12.8,0,0,0-2.69.87,7.72,7.72,0,0,0,1.52-2.87,4.42,4.42,0,0,0-.1-2.94,2.25,2.25,0,0,0-3.35-1.15,4.64,4.64,0,0,0-1.86,2.42,14,14,0,0,0-.61,3c0,.28-.07.56-.11.84a7.51,7.51,0,0,0-4.26-1.85,4.45,4.45,0,0,0-2.87.61,2.44,2.44,0,0,0-1.07,2.59,2.51,2.51,0,0,0,.52.91,4.62,4.62,0,0,0,2.69,1.41,11.24,11.24,0,0,0,2.39.11,7.49,7.49,0,0,0-2.92,2.91,4.41,4.41,0,0,0-.6,2.87,2.45,2.45,0,0,0,1.94,2,2.31,2.31,0,0,0,1-.11,4.53,4.53,0,0,0,2.37-1.9,11.79,11.79,0,0,0,1.18-2.42,7.38,7.38,0,0,0,1.74,3.26,4.37,4.37,0,0,0,2.53,1.48,2.24,2.24,0,0,0,2.76-2.21,4.57,4.57,0,0,0-1-2.86,10.47,10.47,0,0,0-1.52-1.53,7.48,7.48,0,0,0,3.49-.06,4.35,4.35,0,0,0,2.5-1.54A2.44,2.44,0,0,0,157.79,264.14Z" style="fill:#407BFF"></path><path d="M151.84,277.16a4.62,4.62,0,0,1-.65-.05,6.29,6.29,0,0,1-3.73-2.1l-.32-.37a6.31,6.31,0,0,1-2.92,2,4.25,4.25,0,0,1-5.53-3.46,6.41,6.41,0,0,1,.82-4.21c.1-.18.21-.37.33-.55a6,6,0,0,1-2.26-1.6,4.25,4.25,0,0,1,.94-6.46,6.34,6.34,0,0,1,4.17-1,9.54,9.54,0,0,1,2.56.6,8.19,8.19,0,0,1,.38-1.32,6.41,6.41,0,0,1,2.7-3.44,4.23,4.23,0,0,1,6.2,2,6.18,6.18,0,0,1,.35,3.68,6.16,6.16,0,0,1,3.1.75A4.67,4.67,0,0,1,159.4,263h0a4.44,4.44,0,0,1-.13,5.15,6.32,6.32,0,0,1-3.57,2.29,5.86,5.86,0,0,1,.52,2.57,4.3,4.3,0,0,1-.43,1.85A4.38,4.38,0,0,1,151.84,277.16Zm-3-8.42.3,1.17a5.34,5.34,0,0,0,1.27,2.38,2.43,2.43,0,0,0,1.34.86.64.64,0,0,0,.47-.11,1.23,1.23,0,0,1,0-.18,2.67,2.67,0,0,0-.64-1.58,7.94,7.94,0,0,0-1.23-1.23Zm-3-.34-.65.36a5.64,5.64,0,0,0-2.15,2.13,2.47,2.47,0,0,0-.38,1.54.6.6,0,0,0,.25.41.65.65,0,0,0,.18,0,2.62,2.62,0,0,0,1.29-1.1,10.55,10.55,0,0,0,1-2Zm5-2.12,1.32.29a5.53,5.53,0,0,0,2.56,0,2.48,2.48,0,0,0,1.38-.78.69.69,0,0,0,.13-.46l-.16-.11a2.67,2.67,0,0,0-1.69-.18,10.48,10.48,0,0,0-2.26.75Zm-10.27-2.23a1.51,1.51,0,0,0,.11.14,2.6,2.6,0,0,0,1.54.75,9.74,9.74,0,0,0,1.95.08l.38,0-.16-.13.55.12.84,0-.24-.22a5.52,5.52,0,0,0-3.13-1.35,2.46,2.46,0,0,0-1.56.26A.68.68,0,0,0,140.5,264.05Zm10-5.46-.16.08a2.61,2.61,0,0,0-1,1.38,12.13,12.13,0,0,0-.51,2.59l-.14,1.2,1-1.22a5.57,5.57,0,0,0,1.12-2.1,2.5,2.5,0,0,0,0-1.59A.64.64,0,0,0,150.54,258.59Z" style="fill:#407BFF"></path></g><path d="M147.55,263.94a7.52,7.52,0,0,0-5.21-2.82,4.35,4.35,0,0,0-2.87.61,2.47,2.47,0,0,0-1.07,2.58,2.55,2.55,0,0,0,.52.92,4.6,4.6,0,0,0,2.7,1.4,13.88,13.88,0,0,0,3.09.08l3.28-.16.32-.43A2.92,2.92,0,0,0,147.55,263.94Z" style="fill:#407BFF"></path><path d="M145.77,266a7.49,7.49,0,0,0-4.68,3.62,4.36,4.36,0,0,0-.6,2.87,2.45,2.45,0,0,0,1.93,2,2.67,2.67,0,0,0,1.05-.11,4.57,4.57,0,0,0,2.37-1.9,13.53,13.53,0,0,0,1.32-2.8l1.17-3.07-.26-.46A2.91,2.91,0,0,0,145.77,266Z" style="fill:#407BFF"></path><path d="M146.81,267.79a7.52,7.52,0,0,0,1.95,5.59,4.39,4.39,0,0,0,2.53,1.48,2.24,2.24,0,0,0,2.76-2.22,4.57,4.57,0,0,0-1.05-2.85,13.29,13.29,0,0,0-2.23-2.14l-2.54-2.09-.51.1A2.91,2.91,0,0,0,146.81,267.79Z" style="fill:#407BFF"></path><path d="M149.13,267.3a7.52,7.52,0,0,0,5.85.9,4.38,4.38,0,0,0,2.5-1.54,2.25,2.25,0,0,0-.66-3.48,4.55,4.55,0,0,0-3-.41,14,14,0,0,0-2.93,1l-3,1.27-.15.5A2.91,2.91,0,0,0,149.13,267.3Z" style="fill:#407BFF"></path><path d="M149,265.4a7.54,7.54,0,0,0,3.68-4.64,4.33,4.33,0,0,0-.1-2.93,2.44,2.44,0,0,0-2.36-1.5,2.56,2.56,0,0,0-1,.35,4.6,4.6,0,0,0-1.85,2.41,13.57,13.57,0,0,0-.61,3c-.14,1.09-.27,2.18-.41,3.26l.36.38A2.89,2.89,0,0,0,149,265.4Z" style="fill:#407BFF"></path><path d="M151.84,266.52a3.51,3.51,0,1,1-3.51-3.5A3.51,3.51,0,0,1,151.84,266.52Z" style="fill:#fff;opacity:0.30000000000000004"></path><path d="M150.28,266.52a2,2,0,1,1-1.95-1.95A2,2,0,0,1,150.28,266.52Z" style="fill:#fff"></path><path d="M139.73,263.49l0-.07c0-.07,0,0,0,0l.06-.13a2.52,2.52,0,0,1,.15-.24h0L140,263l.09-.1.11-.1s0,0,.05,0,0,0,0,0l.24-.15.14-.07h0l.06,0,.28-.08h.23a.38.38,0,0,0,.37-.37.38.38,0,0,0-.37-.38,2.45,2.45,0,0,0-2.23,1.64.37.37,0,0,0,.26.46.38.38,0,0,0,.46-.26Z" style="fill:#fff;opacity:0.30000000000000004"></path><path d="M142.36,262.37l.54.06a.4.4,0,0,0,.15,0,.42.42,0,0,0,.12-.08.37.37,0,0,0,0-.53l-.08-.06a.41.41,0,0,0-.19-.05l-.54-.06a.21.21,0,0,0-.15,0,.28.28,0,0,0-.12.08.41.41,0,0,0-.11.26.44.44,0,0,0,.11.27l.08.05a.33.33,0,0,0,.19.06Z" style="fill:#fff;opacity:0.30000000000000004"></path><g style="opacity:0.30000000000000004"><path d="M293,222.18a2.46,2.46,0,0,0-.79-.68,4.53,4.53,0,0,0-3-.41,12.3,12.3,0,0,0-2.7.86,7.45,7.45,0,0,0,1.53-2.87,4.39,4.39,0,0,0-.11-2.93,2.44,2.44,0,0,0-2.36-1.5,2.56,2.56,0,0,0-1,.35,4.65,4.65,0,0,0-1.85,2.41,14.16,14.16,0,0,0-.61,3c0,.28-.07.56-.11.84a7.5,7.5,0,0,0-4.27-1.84,4.31,4.31,0,0,0-2.86.61,2.43,2.43,0,0,0-1.07,2.58,2.39,2.39,0,0,0,.51.92A4.6,4.6,0,0,0,277,225a11.24,11.24,0,0,0,2.39.11,7.49,7.49,0,0,0-2.92,2.91,4.36,4.36,0,0,0-.6,2.87,2.45,2.45,0,0,0,1.93,2,2.67,2.67,0,0,0,1.05-.11,4.57,4.57,0,0,0,2.37-1.9,12,12,0,0,0,1.17-2.42,7.56,7.56,0,0,0,1.75,3.26,4.39,4.39,0,0,0,2.53,1.48,2.44,2.44,0,0,0,2.53-1.2,2.38,2.38,0,0,0,.23-1,4.57,4.57,0,0,0-1.05-2.85,10,10,0,0,0-1.51-1.54,7.49,7.49,0,0,0,3.49,0,4.38,4.38,0,0,0,2.5-1.54A2.46,2.46,0,0,0,293,222.18Z" style="fill:#407BFF"></path><path d="M287,235.2a4.82,4.82,0,0,1-.65,0,6.32,6.32,0,0,1-3.72-2.11l-.33-.37a6.09,6.09,0,0,1-2.91,2,4.23,4.23,0,0,1-5.53-3.46,6.26,6.26,0,0,1,.82-4.2,6.16,6.16,0,0,1,.33-.55,6,6,0,0,1-2.26-1.61,4.24,4.24,0,0,1,.94-6.45,6.2,6.2,0,0,1,4.17-1,9,9,0,0,1,2.55.6,11.06,11.06,0,0,1,.38-1.33,6.55,6.55,0,0,1,2.71-3.44,4.25,4.25,0,0,1,6.2,2A6.12,6.12,0,0,1,290,219a6.14,6.14,0,0,1,3.1.76,4.35,4.35,0,0,1,1.43,1.25h0a4.42,4.42,0,0,1-.13,5.14,6.33,6.33,0,0,1-3.58,2.3,5.73,5.73,0,0,1,.53,2.57,4.44,4.44,0,0,1-.43,1.84A4.37,4.37,0,0,1,287,235.2Zm-3-8.42.29,1.17a5.49,5.49,0,0,0,1.28,2.39,2.5,2.5,0,0,0,1.33.86.67.67,0,0,0,.47-.11.83.83,0,0,0,0-.18,2.59,2.59,0,0,0-.63-1.58,9,9,0,0,0-1.23-1.24Zm-3-.34-.66.37a5.66,5.66,0,0,0-2.14,2.12,2.59,2.59,0,0,0-.39,1.55.76.76,0,0,0,.25.41l.19,0a2.68,2.68,0,0,0,1.29-1.11,10.18,10.18,0,0,0,1-2Zm5-2.11,1.32.29a5.48,5.48,0,0,0,2.55,0,2.54,2.54,0,0,0,1.39-.78.75.75,0,0,0,.13-.46.77.77,0,0,0-.16-.11,2.6,2.6,0,0,0-1.69-.18,11,11,0,0,0-2.26.74Zm-10.27-2.24a.79.79,0,0,0,.11.15,2.6,2.6,0,0,0,1.53.74,8.56,8.56,0,0,0,2,.08h.38l-.16-.14.55.13.84,0-.25-.21a5.47,5.47,0,0,0-3.12-1.36,2.5,2.5,0,0,0-1.57.27A.66.66,0,0,0,275.67,222.09Zm10-5.45-.16.08a2.61,2.61,0,0,0-1,1.38,12.13,12.13,0,0,0-.51,2.59l-.15,1.19,1-1.22a5.47,5.47,0,0,0,1.11-2.1,2.41,2.41,0,0,0,0-1.58A.6.6,0,0,0,285.71,216.64Z" style="fill:#407BFF"></path></g><path d="M282.72,222a7.56,7.56,0,0,0-5.21-2.83,4.48,4.48,0,0,0-2.87.61,2.46,2.46,0,0,0-1.07,2.59,2.43,2.43,0,0,0,.52.91,4.62,4.62,0,0,0,2.7,1.41,13.86,13.86,0,0,0,3.09.08l3.28-.17.31-.42A2.86,2.86,0,0,0,282.72,222Z" style="fill:#407BFF"></path><path d="M280.94,224.07a7.5,7.5,0,0,0-4.68,3.63,4.35,4.35,0,0,0-.6,2.87,2.44,2.44,0,0,0,1.93,2,2.35,2.35,0,0,0,1.05-.11,4.6,4.6,0,0,0,2.37-1.9,13.45,13.45,0,0,0,1.32-2.79l1.17-3.07-.26-.46A2.91,2.91,0,0,0,280.94,224.07Z" style="fill:#407BFF"></path><path d="M282,225.83a7.55,7.55,0,0,0,1.95,5.59,4.34,4.34,0,0,0,2.54,1.48,2.44,2.44,0,0,0,2.53-1.19,2.57,2.57,0,0,0,.23-1,4.58,4.58,0,0,0-1.05-2.86,13.7,13.7,0,0,0-2.23-2.14l-2.54-2.08-.52.1A2.92,2.92,0,0,0,282,225.83Z" style="fill:#407BFF"></path><path d="M284.3,225.34a7.52,7.52,0,0,0,5.85.91,4.52,4.52,0,0,0,2.5-1.54,2.46,2.46,0,0,0,.13-2.8,2.53,2.53,0,0,0-.8-.69,4.64,4.64,0,0,0-3-.41,13.51,13.51,0,0,0-2.94,1L283,223l-.15.51A2.89,2.89,0,0,0,284.3,225.34Z" style="fill:#407BFF"></path><path d="M284.12,223.44a7.49,7.49,0,0,0,3.68-4.63,4.42,4.42,0,0,0-.1-2.94,2.46,2.46,0,0,0-2.36-1.5,2.5,2.5,0,0,0-1,.35,4.62,4.62,0,0,0-1.85,2.42,13.48,13.48,0,0,0-.62,3c-.13,1.08-.27,2.17-.4,3.26l.36.38A2.86,2.86,0,0,0,284.12,223.44Z" style="fill:#407BFF"></path><path d="M287,224.57a3.51,3.51,0,1,1-3.51-3.51A3.51,3.51,0,0,1,287,224.57Z" style="fill:#fff;opacity:0.30000000000000004"></path><path d="M285.45,224.57a1.95,1.95,0,1,1-1.95-1.95A1.95,1.95,0,0,1,285.45,224.57Z" style="fill:#fff"></path><path d="M274.9,221.54a.24.24,0,0,0,0-.08h0a.83.83,0,0,0,.07-.13c0-.08.1-.16.15-.24h0l.06-.06.09-.1.11-.1.05,0c-.07,0,0,0,0,0l.24-.15.14-.06c.06,0,0,0,0,0l.07,0a1.47,1.47,0,0,1,.28-.08h.07c.05,0-.08,0,0,0h.17a.38.38,0,0,0,.37-.38.37.37,0,0,0-.37-.37,2.45,2.45,0,0,0-2.24,1.64.38.38,0,0,0,.73.2Z" style="fill:#fff;opacity:0.30000000000000004"></path><path d="M277.53,220.41l.54.06a.17.17,0,0,0,.14,0,.2.2,0,0,0,.12-.08.33.33,0,0,0,.11-.26.35.35,0,0,0-.11-.27l-.07-.05a.33.33,0,0,0-.19-.06l-.54-.06a.37.37,0,0,0-.15,0,.25.25,0,0,0-.12.08.44.44,0,0,0-.11.27.38.38,0,0,0,.11.26l.08.06a.38.38,0,0,0,.19,0Z" style="fill:#fff;opacity:0.30000000000000004"></path><g style="opacity:0.30000000000000004"><path d="M94.05,225.31a2.5,2.5,0,0,0-.8-.68,4.59,4.59,0,0,0-3-.41,11.74,11.74,0,0,0-2.69.87,7.54,7.54,0,0,0,1.52-2.88,4.39,4.39,0,0,0-.1-2.93,2.44,2.44,0,0,0-2.36-1.5,2.5,2.5,0,0,0-1,.35,4.55,4.55,0,0,0-1.85,2.41,13.59,13.59,0,0,0-.62,3c0,.28-.07.56-.1.84a7.56,7.56,0,0,0-4.27-1.84,4.4,4.4,0,0,0-2.87.61,2.46,2.46,0,0,0-1.07,2.59,2.59,2.59,0,0,0,.52.91,4.58,4.58,0,0,0,2.69,1.4,10.62,10.62,0,0,0,2.39.11,7.56,7.56,0,0,0-2.92,2.91,4.44,4.44,0,0,0-.6,2.88,2.46,2.46,0,0,0,1.94,2,2.63,2.63,0,0,0,1-.11,4.53,4.53,0,0,0,2.37-1.9,12,12,0,0,0,1.18-2.42,7.54,7.54,0,0,0,1.74,3.26,4.46,4.46,0,0,0,2.53,1.48,2.47,2.47,0,0,0,2.54-1.19,2.58,2.58,0,0,0,.23-1,4.63,4.63,0,0,0-1-2.85,11,11,0,0,0-1.51-1.54,7.36,7.36,0,0,0,3.49,0,4.35,4.35,0,0,0,2.49-1.54A2.46,2.46,0,0,0,94.05,225.31Z" style="fill:#407BFF"></path><path d="M88.1,238.34a4.74,4.74,0,0,1-.65-.05,6.35,6.35,0,0,1-3.73-2.1l-.32-.37a6.19,6.19,0,0,1-2.91,2A4.23,4.23,0,0,1,75,234.34a6.32,6.32,0,0,1,.81-4.2,6.16,6.16,0,0,1,.33-.55A6,6,0,0,1,73.84,228a4.24,4.24,0,0,1,.94-6.45,6.34,6.34,0,0,1,4.17-.95,9.09,9.09,0,0,1,2.56.6,9.49,9.49,0,0,1,.38-1.33,6.53,6.53,0,0,1,2.7-3.44,4.66,4.66,0,0,1,1.8-.62,4.43,4.43,0,0,1,4.4,2.67,6.08,6.08,0,0,1,.35,3.67,6.25,6.25,0,0,1,3.1.76,4.23,4.23,0,0,1,1.29,6.39,6.3,6.3,0,0,1-3.57,2.3,6,6,0,0,1,.53,2.57,4.45,4.45,0,0,1-.44,1.84A4.38,4.38,0,0,1,88.1,238.34Zm-3-8.43.3,1.17a5.52,5.52,0,0,0,1.27,2.39,2.52,2.52,0,0,0,1.34.86.64.64,0,0,0,.47-.11s0-.06,0-.18a2.67,2.67,0,0,0-.64-1.58,8.49,8.49,0,0,0-1.23-1.24Zm-3-.34-.66.37a5.48,5.48,0,0,0-2.14,2.13,2.42,2.42,0,0,0-.39,1.54.67.67,0,0,0,.25.41l.18,0a2.65,2.65,0,0,0,1.3-1.11,10.16,10.16,0,0,0,1-2Zm5-2.11,1.31.29a5.53,5.53,0,0,0,2.56,0,2.48,2.48,0,0,0,1.38-.78.69.69,0,0,0,.13-.46.61.61,0,0,0-.15-.11,2.7,2.7,0,0,0-1.7-.18,11,11,0,0,0-2.26.74Zm-10.28-2.24.11.15a2.6,2.6,0,0,0,1.54.74,9.23,9.23,0,0,0,2,.09l.39,0L80.6,226l.55.13.83,0-.25-.21a5.53,5.53,0,0,0-3.13-1.36,2.54,2.54,0,0,0-1.56.27A.69.69,0,0,0,76.76,225.22Zm10-5.45a.61.61,0,0,0-.17.08,2.66,2.66,0,0,0-1,1.38,11.56,11.56,0,0,0-.5,2.59L85,225l1-1.23a5.46,5.46,0,0,0,1.12-2.09,2.51,2.51,0,0,0,0-1.59A.63.63,0,0,0,86.81,219.77Z" style="fill:#407BFF"></path></g><path d="M83.81,225.12a7.49,7.49,0,0,0-5.2-2.82,4.38,4.38,0,0,0-2.87.6,2.24,2.24,0,0,0-.55,3.5,4.51,4.51,0,0,0,2.69,1.41,13.88,13.88,0,0,0,3.09.08l3.28-.17.32-.42A2.9,2.9,0,0,0,83.81,225.12Z" style="fill:#407BFF"></path><path d="M82,227.2a7.53,7.53,0,0,0-4.68,3.63,4.41,4.41,0,0,0-.6,2.87,2.26,2.26,0,0,0,3,1.92,4.58,4.58,0,0,0,2.37-1.9,13.78,13.78,0,0,0,1.32-2.8l1.17-3.07-.26-.46A2.91,2.91,0,0,0,82,227.2Z" style="fill:#407BFF"></path><path d="M83.07,229a7.51,7.51,0,0,0,2,5.59A4.39,4.39,0,0,0,87.55,236a2.45,2.45,0,0,0,2.53-1.2,2.38,2.38,0,0,0,.23-1,4.59,4.59,0,0,0-1-2.86A14.2,14.2,0,0,0,87,228.82l-2.54-2.08-.51.1A2.88,2.88,0,0,0,83.07,229Z" style="fill:#407BFF"></path><path d="M85.39,228.48a7.56,7.56,0,0,0,5.85.9,4.45,4.45,0,0,0,2.5-1.54,2.44,2.44,0,0,0,.13-2.8,2.36,2.36,0,0,0-.79-.68,4.59,4.59,0,0,0-3-.42,13.34,13.34,0,0,0-2.94,1l-3,1.26-.16.51A2.93,2.93,0,0,0,85.39,228.48Z" style="fill:#407BFF"></path><path d="M85.21,226.57a7.51,7.51,0,0,0,3.69-4.63,4.45,4.45,0,0,0-.1-2.93,2.48,2.48,0,0,0-2.37-1.51,2.57,2.57,0,0,0-1,.36,4.61,4.61,0,0,0-1.85,2.41,14,14,0,0,0-.61,3c-.14,1.09-.27,2.17-.41,3.26l.36.38A2.86,2.86,0,0,0,85.21,226.57Z" style="fill:#407BFF"></path><path d="M88.1,227.7a3.51,3.51,0,1,1-3.51-3.51A3.51,3.51,0,0,1,88.1,227.7Z" style="fill:#fff;opacity:0.30000000000000004"></path><path d="M86.55,227.7a2,2,0,1,1-2-1.95A2,2,0,0,1,86.55,227.7Z" style="fill:#fff"></path><path d="M76,224.67l0-.08c0-.06,0,0,0,0l.06-.14.16-.24s0,.06,0,0a.18.18,0,0,1,.05-.07l.09-.09.11-.1.05-.05c-.07,0,0,0,0,0a1.43,1.43,0,0,1,.24-.16l.13-.06h0l.06,0a1.38,1.38,0,0,1,.29-.08h.22a.38.38,0,0,0,.37-.38.36.36,0,0,0-.37-.37,2.45,2.45,0,0,0-2.23,1.64.37.37,0,0,0,.26.46.38.38,0,0,0,.46-.26Z" style="fill:#fff;opacity:0.30000000000000004"></path><path d="M78.62,223.54l.54.07a.28.28,0,0,0,.15,0,.37.37,0,0,0,.12-.07.46.46,0,0,0,.11-.27.39.39,0,0,0-.11-.26l-.08-.06a.32.32,0,0,0-.19,0l-.54-.07a.32.32,0,0,0-.14,0,.57.57,0,0,0-.13.08.37.37,0,0,0,0,.53l.08.06a.32.32,0,0,0,.19,0Z" style="fill:#fff;opacity:0.30000000000000004"></path><g style="opacity:0.30000000000000004"><path d="M271.67,187.29c-3.66,9.67-15.59,15.29-25.37,12a11.58,11.58,0,0,1-20.93-.63A28.88,28.88,0,0,1,180,186.88a21.51,21.51,0,0,1-30.84-20v9.76a22.07,22.07,0,0,0,9.55,18.67,20.89,20.89,0,0,0,20.52,1.32,28.91,28.91,0,0,0,19.19,17.5,28.09,28.09,0,0,0,25.05-5.76,11.17,11.17,0,0,0,20.4.63c9.53,3.34,21.17-2.28,24.73-11.95Z" style="fill:#407BFF"></path></g><path d="M149.15,176.64c-.25,15.56,15.85,26.61,30,19.62l.41-.21.17.44c6.79,17.77,29.05,23.87,43.68,11.54l.47-.4.24.56a10.88,10.88,0,0,0,19.87.4c9.6,3.57,21.33-2,25-11.54-2.56,7.21-9.73,12.41-17.32,13.12a18.28,18.28,0,0,1-7.59-.86l.4-.16a11.63,11.63,0,0,1-21.17-.6l.71.17c-15.17,12.89-38.06,6.5-45.05-11.94l.58.23c-14.7,7-30.92-4.34-30.34-20.37Z" style="fill:#407BFF"></path><g style="opacity:0.30000000000000004"><path d="M121.7,279.66c2.7,5.64,7.29,6.53,12.43,6a15.08,15.08,0,0,0,10.5,9.15,17.61,17.61,0,0,0,9.42-.7,15,15,0,0,0,6.62-5l4-5.64c-3.55,3.38-13.29,6.3-18.07,5.25s-7.37-4.46-9.05-9.71c-6.86,2.07-11.45,1.23-17.2-8.73l0,.46A16.68,16.68,0,0,0,121.7,279.66Z" style="fill:#407BFF"></path></g><path d="M120.33,270.22c-1,10.42,3.09,14.72,13.47,14.75l.29,0,.11.27c3.57,9,16.24,11.89,23.87,6.22a18.38,18.38,0,0,0,6.14-7.19,17.38,17.38,0,0,1-5.82,7.64c-7.83,6.32-21.43,3.3-25-6.33l.4.29c-4.08-.14-8.56-.64-11.38-3.95-2.93-3.08-2.59-7.81-2-11.72Z" style="fill:#407BFF"></path><g style="opacity:0.30000000000000004"><path d="M47.45,189.19c3.61,5.65,8,5.84,12.7,4.39,2.52,4.62,7,7.77,11.52,8.13a14.35,14.35,0,0,0,8.61-2.33,14.6,14.6,0,0,0,5.16-6.56L88,186.07c-2.63,4.24-11.1,9-15.75,8.69s-7.7-3.59-10.28-9c-6,3.38-10.39,3.24-17.66-6.56l0,.5A21.08,21.08,0,0,0,47.45,189.19Z" style="fill:#407BFF"></path></g><path d="M44.34,179.23c1,9.92,4.56,15.68,15.39,13.73l.29,0,.16.27c3.61,7,13.4,10.07,20.05,5.58a18.64,18.64,0,0,0,7.56-11.69A18.66,18.66,0,0,1,84.15,196c-6.38,8.89-19.89,7.08-24.76-2.33l.45.22c-2.11.17-4.2.58-6.32.18A10.62,10.62,0,0,1,48,191c-3-3.07-3.35-7.72-3.62-11.77Z" style="fill:#407BFF"></path><g style="opacity:0.30000000000000004"><path d="M125.18,150.23c4.6,3.13,8.77,1.75,12.8-1a13.94,13.94,0,0,0,12.52,2.34,17.75,17.75,0,0,0,7.52-4.78A14,14,0,0,0,161.4,140l.95-6.13C160.81,138,154,144.65,149.56,146s-8-.13-11.56-3.41c-4.82,4.67-9,6.09-17.9,1l.15.37A13.71,13.71,0,0,0,125.18,150.23Z" style="fill:#407BFF"></path></g><path d="M120.1,143.58c3.7,8.94,9.28,9.59,17.3,5.26l.26-.12.22.17c4.5,3.62,11.43,3.06,16.24.32a16.55,16.55,0,0,0,8.22-14.51,15.62,15.62,0,0,1-1.68,8.68c-3.92,8.17-16,12.12-23.34,6.23l.48,0c-8.28,4.37-14.6,3.47-17.7-6.08Z" style="fill:#407BFF"></path><g style="opacity:0.30000000000000004"><path d="M257.84,118.51c.09,5.56,3.63,8.17,8.18,9.89A13.92,13.92,0,0,0,271.34,140a17.68,17.68,0,0,0,8.23,3.39,14,14,0,0,0,7.56-1.2l5.55-2.76c-4.31,1.17-13.68-.6-17.31-3.43s-4.49-6.58-3.88-11.4c-6.6-1.24-10.16-3.82-11.15-14l-.21.34A13.66,13.66,0,0,0,257.84,118.51Z" style="fill:#407BFF"></path></g><path d="M260.34,110.52c-5.17,8.18-2.47,13.11,5.69,17.17l.24.14v.28c-.37,5.75,4.11,11.11,9.11,13.45A16.55,16.55,0,0,0,292,139.9a15.53,15.53,0,0,1-8.06,3.63c-8.93,1.52-19.12-6.06-18.55-15.46l.23.42c-3.25-1.77-6.74-3.85-8-7.58-1.48-3.63.66-7.47,2.73-10.39Z" style="fill:#407BFF"></path><g style="opacity:0.30000000000000004"><path d="M327.52,118.51c-.09,5.56-3.63,8.17-8.18,9.89A13.92,13.92,0,0,1,314,140a17.67,17.67,0,0,1-8.24,3.39,14,14,0,0,1-7.55-1.2l-5.55-2.76c4.31,1.17,13.68-.6,17.31-3.43s4.49-6.58,3.88-11.4c6.6-1.24,10.16-3.82,11.14-14l.22.34A13.74,13.74,0,0,1,327.52,118.51Z" style="fill:#407BFF"></path></g><path d="M325,110.52c2.08,2.92,4.22,6.76,2.73,10.39-1.22,3.73-4.71,5.81-8,7.58l.23-.42c.56,9.4-9.62,17-18.55,15.46a15.5,15.5,0,0,1-8.06-3.63A16.54,16.54,0,0,0,310,141.56c5-2.34,9.49-7.7,9.12-13.45v-.28l.24-.14c8.17-4,10.86-9,5.68-17.17Z" style="fill:#407BFF"></path><path d="M300.32,234.4a1.43,1.43,0,0,0-1.37,1.36h-.18a1.29,1.29,0,0,0-1.37-1.31v-.2a1.36,1.36,0,0,0,1.32-1.32h.18s-.12,1.15,1.41,1.33Z" style="fill:#407BFF"></path><path d="M133.65,270.37a1.43,1.43,0,0,0-1.37,1.36h-.18a1.29,1.29,0,0,0-1.37-1.31v-.2a1.36,1.36,0,0,0,1.32-1.32h.18s-.12,1.15,1.41,1.33Z" style="fill:#407BFF"></path><path d="M93.23,241.75a1.45,1.45,0,0,0-1.37,1.37h-.18a1.28,1.28,0,0,0-1.36-1.31v-.2a1.37,1.37,0,0,0,1.33-1.32h.18s-.13,1.15,1.4,1.33Z" style="fill:#407BFF"></path><path d="M158.68,259.44a1,1,0,0,0-.91.91h-.12a.85.85,0,0,0-.91-.87v-.14a.91.91,0,0,0,.89-.88h.12s-.09.77.93.89Z" style="fill:#407BFF"></path><path d="M158.36,255.62a1.6,1.6,0,0,0-1.53,1.51h-.2a1.44,1.44,0,0,0-1.52-1.46v-.22a1.51,1.51,0,0,0,1.47-1.47h.2s-.13,1.28,1.57,1.48Z" style="fill:#407BFF"></path><path d="M82.33,215.8a2.94,2.94,0,0,0-2.8,2.78h-.37a2.64,2.64,0,0,0-2.8-2.68l0-.4a2.79,2.79,0,0,0,2.71-2.71h.36s-.25,2.35,2.88,2.72Z" style="fill:#407BFF"></path><path d="M279,213.62a1.45,1.45,0,0,0-1.37,1.37h-.18a1.28,1.28,0,0,0-1.36-1.31v-.2a1.37,1.37,0,0,0,1.33-1.32h.18s-.13,1.15,1.4,1.33Z" style="fill:#407BFF"></path><path d="M296.68,237.31a3.18,3.18,0,0,0-3,3h-.4a2.85,2.85,0,0,0-3-2.9l0-.43a3,3,0,0,0,2.92-2.92h.4s-.27,2.54,3.1,2.93Z" style="fill:#407BFF"></path><g style="opacity:0.30000000000000004"><path d="M222.77,168.56a2.5,2.5,0,0,0-.8-.68,4.59,4.59,0,0,0-3-.41,12.22,12.22,0,0,0-2.69.86,7.43,7.43,0,0,0,1.52-2.87,4.39,4.39,0,0,0-.1-2.93,2.44,2.44,0,0,0-2.36-1.5,2.5,2.5,0,0,0-1,.35,4.55,4.55,0,0,0-1.85,2.41,13.59,13.59,0,0,0-.62,3c0,.28-.07.56-.1.84a7.56,7.56,0,0,0-4.27-1.84,4.34,4.34,0,0,0-2.87.61,2.45,2.45,0,0,0-1.07,2.58,2.55,2.55,0,0,0,.52.92,4.58,4.58,0,0,0,2.69,1.4,11.24,11.24,0,0,0,2.39.11,7.56,7.56,0,0,0-2.92,2.91,4.42,4.42,0,0,0-.6,2.87,2.46,2.46,0,0,0,1.94,2,2.61,2.61,0,0,0,1-.11,4.59,4.59,0,0,0,2.38-1.9,12.57,12.57,0,0,0,1.17-2.42,7.54,7.54,0,0,0,1.74,3.26,4.46,4.46,0,0,0,2.53,1.48,2.47,2.47,0,0,0,2.54-1.19,2.62,2.62,0,0,0,.23-1,4.57,4.57,0,0,0-1.05-2.85,11,11,0,0,0-1.51-1.54,7.36,7.36,0,0,0,3.49,0,4.35,4.35,0,0,0,2.49-1.54A2.46,2.46,0,0,0,222.77,168.56Z" style="fill:#407BFF"></path><path d="M216.82,181.58a4.73,4.73,0,0,1-.65,0,6.31,6.31,0,0,1-3.73-2.11c-.11-.12-.22-.24-.32-.37a6.14,6.14,0,0,1-2.91,2,4.23,4.23,0,0,1-5.53-3.46,6.32,6.32,0,0,1,.81-4.2,6.16,6.16,0,0,1,.33-.55,6,6,0,0,1-2.26-1.61,4.24,4.24,0,0,1,.94-6.45,6.35,6.35,0,0,1,4.17-.95,9.09,9.09,0,0,1,2.56.6,9.49,9.49,0,0,1,.38-1.33,6.5,6.5,0,0,1,2.71-3.44,4.56,4.56,0,0,1,1.79-.62,4.43,4.43,0,0,1,4.4,2.66,6.12,6.12,0,0,1,.35,3.68,6.12,6.12,0,0,1,3.1.76,4.35,4.35,0,0,1,1.43,1.25h0a4.42,4.42,0,0,1-.14,5.14,6.3,6.3,0,0,1-3.57,2.3,6,6,0,0,1,.53,2.57,4.45,4.45,0,0,1-.44,1.84A4.37,4.37,0,0,1,216.82,181.58Zm-3-8.42.29,1.17a5.58,5.58,0,0,0,1.27,2.39,2.52,2.52,0,0,0,1.34.86.67.67,0,0,0,.47-.11s0-.06,0-.18a2.61,2.61,0,0,0-.64-1.58,8.49,8.49,0,0,0-1.23-1.24Zm-3-.34-.66.37a5.48,5.48,0,0,0-2.14,2.13,2.42,2.42,0,0,0-.39,1.54.67.67,0,0,0,.25.41s.07,0,.18,0a2.65,2.65,0,0,0,1.3-1.11,10.16,10.16,0,0,0,1-2Zm5-2.11,1.31.29a5.53,5.53,0,0,0,2.56,0,2.54,2.54,0,0,0,1.38-.78.69.69,0,0,0,.13-.46.61.61,0,0,0-.15-.11,2.62,2.62,0,0,0-1.7-.18,11,11,0,0,0-2.26.74Zm-10.28-2.24.11.15a2.63,2.63,0,0,0,1.54.74,8.61,8.61,0,0,0,2,.08h.38l-.15-.13.53.12.85,0-.25-.21a5.5,5.5,0,0,0-3.12-1.36,2.49,2.49,0,0,0-1.57.27A.69.69,0,0,0,205.48,168.47ZM215.53,163a.61.61,0,0,0-.17.08,2.66,2.66,0,0,0-1,1.38,11.56,11.56,0,0,0-.5,2.59l-.15,1.19,1-1.22a5.5,5.5,0,0,0,1.12-2.1,2.52,2.52,0,0,0,0-1.59A.64.64,0,0,0,215.53,163Z" style="fill:#407BFF"></path></g><path d="M212.53,168.37a7.49,7.49,0,0,0-5.2-2.82,4.38,4.38,0,0,0-2.87.6,2.24,2.24,0,0,0-.55,3.5,4.51,4.51,0,0,0,2.69,1.41,13.88,13.88,0,0,0,3.09.08L213,171l.31-.42A2.9,2.9,0,0,0,212.53,168.37Z" style="fill:#407BFF"></path><path d="M210.75,170.45a7.53,7.53,0,0,0-4.68,3.63,4.41,4.41,0,0,0-.6,2.87,2.26,2.26,0,0,0,3,1.92,4.62,4.62,0,0,0,2.37-1.9,13.78,13.78,0,0,0,1.32-2.8l1.17-3.07-.26-.46A2.91,2.91,0,0,0,210.75,170.45Z" style="fill:#407BFF"></path><path d="M211.79,172.21a7.51,7.51,0,0,0,2,5.59,4.32,4.32,0,0,0,2.53,1.48,2.24,2.24,0,0,0,2.76-2.21,4.57,4.57,0,0,0-1-2.86,13.77,13.77,0,0,0-2.24-2.14L213.21,170l-.51.1A2.88,2.88,0,0,0,211.79,172.21Z" style="fill:#407BFF"></path><path d="M214.11,171.73a7.56,7.56,0,0,0,5.85.9,4.45,4.45,0,0,0,2.5-1.54,2.46,2.46,0,0,0,.14-2.8,2.38,2.38,0,0,0-.8-.68,4.59,4.59,0,0,0-3-.42,13.34,13.34,0,0,0-2.94,1l-3,1.26-.16.51A2.93,2.93,0,0,0,214.11,171.73Z" style="fill:#407BFF"></path><path d="M213.93,169.82a7.51,7.51,0,0,0,3.69-4.63,4.39,4.39,0,0,0-.1-2.93,2.23,2.23,0,0,0-3.35-1.15,4.58,4.58,0,0,0-1.86,2.41,14,14,0,0,0-.61,3c-.14,1.09-.27,2.17-.41,3.26l.36.38A2.86,2.86,0,0,0,213.93,169.82Z" style="fill:#407BFF"></path><path d="M216.82,171a3.51,3.51,0,1,1-3.51-3.51A3.51,3.51,0,0,1,216.82,171Z" style="fill:#fff;opacity:0.30000000000000004"></path><path d="M215.27,171a2,2,0,1,1-2-1.95A2,2,0,0,1,215.27,171Z" style="fill:#fff"></path><path d="M204.71,167.92l0-.08c0-.06,0,0,0,0l.06-.13.16-.24h0l0-.06.09-.09.11-.11.06,0c-.08,0,0,0,0,0l.24-.15.13-.06c.06,0-.05,0,0,0l.06,0a1.38,1.38,0,0,1,.29-.08h.22a.39.39,0,0,0,.38-.38.38.38,0,0,0-.38-.37,2.44,2.44,0,0,0-2.23,1.64.37.37,0,0,0,.26.46.38.38,0,0,0,.46-.26Z" style="fill:#fff;opacity:0.30000000000000004"></path><path d="M207.34,166.79l.54.07a.26.26,0,0,0,.15,0,.29.29,0,0,0,.12-.07.46.46,0,0,0,.11-.27.39.39,0,0,0-.11-.26l-.08-.06a.32.32,0,0,0-.19,0l-.54-.07a.32.32,0,0,0-.14,0,.25.25,0,0,0-.12.08.35.35,0,0,0-.11.27.34.34,0,0,0,.11.26l.07.06a.41.41,0,0,0,.19,0Z" style="fill:#fff;opacity:0.30000000000000004"></path><path d="M230.13,180.78a1.44,1.44,0,0,0-1.37,1.36h-.18a1.28,1.28,0,0,0-1.36-1.31v-.2a1.35,1.35,0,0,0,1.32-1.32h.18s-.12,1.15,1.4,1.33Z" style="fill:#407BFF"></path><path d="M208.79,160a1.43,1.43,0,0,0-1.36,1.36h-.18a1.29,1.29,0,0,0-1.37-1.31v-.2a1.36,1.36,0,0,0,1.32-1.32h.18s-.12,1.15,1.4,1.33Z" style="fill:#407BFF"></path><path d="M226.49,183.69a3.19,3.19,0,0,0-3,3h-.39a2.85,2.85,0,0,0-3-2.89v-.44a3,3,0,0,0,2.93-2.92h.39s-.27,2.54,3.1,2.93Z" style="fill:#407BFF"></path><g style="opacity:0.30000000000000004"><path d="M302.78,102.47a2.46,2.46,0,0,0-.79-.68,4.59,4.59,0,0,0-3-.42,12.89,12.89,0,0,0-2.7.87,7.45,7.45,0,0,0,1.53-2.87,4.39,4.39,0,0,0-.11-2.93,2.47,2.47,0,0,0-2.36-1.51,2.57,2.57,0,0,0-1,.36,4.65,4.65,0,0,0-1.85,2.41,14,14,0,0,0-.61,3c0,.28-.07.56-.11.84a7.44,7.44,0,0,0-4.26-1.84,4.33,4.33,0,0,0-2.87.61,2.43,2.43,0,0,0-1.07,2.58,2.28,2.28,0,0,0,.51.91,4.56,4.56,0,0,0,2.7,1.41,11.24,11.24,0,0,0,2.39.11,7.49,7.49,0,0,0-2.92,2.91,4.41,4.41,0,0,0-.6,2.87,2.45,2.45,0,0,0,1.93,2,2.5,2.5,0,0,0,1.05-.1,4.61,4.61,0,0,0,2.37-1.9,12,12,0,0,0,1.17-2.42,7.52,7.52,0,0,0,1.75,3.25,4.39,4.39,0,0,0,2.53,1.49,2.46,2.46,0,0,0,2.53-1.2,2.38,2.38,0,0,0,.23-1,4.55,4.55,0,0,0-1.05-2.85,9.56,9.56,0,0,0-1.51-1.54,7.48,7.48,0,0,0,3.49,0,4.43,4.43,0,0,0,2.5-1.54A2.46,2.46,0,0,0,302.78,102.47Z" style="fill:#407BFF"></path><path d="M296.83,115.49a4.82,4.82,0,0,1-.65,0,6.37,6.37,0,0,1-3.72-2.11c-.11-.12-.22-.24-.32-.37a6.24,6.24,0,0,1-2.92,2,4.23,4.23,0,0,1-5.53-3.46,7.35,7.35,0,0,1,1.15-4.76,5.89,5.89,0,0,1-2.26-1.6,4.25,4.25,0,0,1,.94-6.46,6.32,6.32,0,0,1,4.17-1,9.38,9.38,0,0,1,2.55.6,9.42,9.42,0,0,1,.39-1.32,6.48,6.48,0,0,1,2.7-3.44,4.31,4.31,0,0,1,1.79-.62,4.45,4.45,0,0,1,4.41,2.66,6.12,6.12,0,0,1,.34,3.68,6,6,0,0,1,3.1.76,4.35,4.35,0,0,1,1.43,1.25h0a4.42,4.42,0,0,1-.13,5.14,6.27,6.27,0,0,1-3.58,2.29,5.76,5.76,0,0,1,.53,2.57,4.3,4.3,0,0,1-.43,1.85A4.37,4.37,0,0,1,296.83,115.49Zm-3-8.42.29,1.17a5.49,5.49,0,0,0,1.28,2.39,2.55,2.55,0,0,0,1.34.86.75.75,0,0,0,.47-.11s0-.06,0-.18a2.61,2.61,0,0,0-.63-1.59,9.51,9.51,0,0,0-1.23-1.23Zm-3-.34-.66.37a5.59,5.59,0,0,0-2.14,2.12,2.59,2.59,0,0,0-.39,1.55.3.3,0,0,0,.44.36,2.61,2.61,0,0,0,1.29-1.1,10.46,10.46,0,0,0,1-2Zm5-2.11,1.32.29a5.48,5.48,0,0,0,2.55,0,2.42,2.42,0,0,0,1.39-.78.65.65,0,0,0,.13-.45.77.77,0,0,0-.16-.11,2.6,2.6,0,0,0-1.69-.18,11,11,0,0,0-2.26.74Zm-10.27-2.24a.79.79,0,0,0,.11.15,2.6,2.6,0,0,0,1.53.74,9.27,9.27,0,0,0,2,.08h.38l-.16-.14.55.12.84,0-.25-.22a5.53,5.53,0,0,0-3.12-1.35,2.5,2.5,0,0,0-1.57.27A.64.64,0,0,0,285.5,102.38Zm10-5.46a1.63,1.63,0,0,1-.16.09,2.61,2.61,0,0,0-1,1.38,12.13,12.13,0,0,0-.51,2.59l-.15,1.19,1-1.22a5.47,5.47,0,0,0,1.11-2.1,2.44,2.44,0,0,0,0-1.59A.64.64,0,0,0,295.54,96.92Z" style="fill:#407BFF"></path></g><path d="M292.55,102.27a7.56,7.56,0,0,0-5.21-2.82,4.48,4.48,0,0,0-2.87.61,2.46,2.46,0,0,0-1.07,2.59,2.51,2.51,0,0,0,.52.91,4.67,4.67,0,0,0,2.7,1.41,13.3,13.3,0,0,0,3.09.07l3.28-.16.32-.42A2.94,2.94,0,0,0,292.55,102.27Z" style="fill:#407BFF"></path><path d="M290.77,104.36a7.5,7.5,0,0,0-4.68,3.63,4.35,4.35,0,0,0-.6,2.87,2.44,2.44,0,0,0,1.93,2,2.35,2.35,0,0,0,1.05-.11,4.6,4.6,0,0,0,2.37-1.9,13.53,13.53,0,0,0,1.32-2.8l1.17-3.06-.26-.46A2.91,2.91,0,0,0,290.77,104.36Z" style="fill:#407BFF"></path><path d="M291.81,106.12a7.48,7.48,0,0,0,1.95,5.59,4.39,4.39,0,0,0,2.53,1.48,2.44,2.44,0,0,0,2.53-1.19,2.58,2.58,0,0,0,.23-1,4.57,4.57,0,0,0-1.05-2.85,13.7,13.7,0,0,0-2.23-2.14l-2.54-2.09-.52.11A2.86,2.86,0,0,0,291.81,106.12Z" style="fill:#407BFF"></path><path d="M294.13,105.63a7.48,7.48,0,0,0,5.85.9,4.38,4.38,0,0,0,2.5-1.54,2.44,2.44,0,0,0,.13-2.79,2.61,2.61,0,0,0-.79-.69,4.62,4.62,0,0,0-3-.41,13.26,13.26,0,0,0-2.93,1l-3,1.26-.15.5A2.91,2.91,0,0,0,294.13,105.63Z" style="fill:#407BFF"></path><path d="M294,103.73a7.48,7.48,0,0,0,3.68-4.64,4.39,4.39,0,0,0-.1-2.93,2.44,2.44,0,0,0-2.36-1.5,2.5,2.5,0,0,0-1,.35,4.6,4.6,0,0,0-1.85,2.41,13,13,0,0,0-.61,3c-.14,1.08-.28,2.17-.41,3.26l.36.38A2.94,2.94,0,0,0,294,103.73Z" style="fill:#407BFF"></path><path d="M296.84,104.86a3.51,3.51,0,1,1-3.51-3.51A3.51,3.51,0,0,1,296.84,104.86Z" style="fill:#fff;opacity:0.30000000000000004"></path><path d="M295.28,104.86a1.95,1.95,0,1,1-1.95-2A1.95,1.95,0,0,1,295.28,104.86Z" style="fill:#fff"></path><path d="M284.73,101.83l0-.08c0-.07,0,0,0,0a.83.83,0,0,0,.07-.13l.15-.24h0l.06-.06.09-.1.11-.1,0,0c-.07,0,0,0,0,0l.24-.15.14-.06c.06,0-.05,0,0,0l.07,0,.28-.08h.07c.05,0-.08,0,0,0h.17a.37.37,0,0,0,.37-.37.38.38,0,0,0-.37-.38,2.47,2.47,0,0,0-2.24,1.65.38.38,0,0,0,.73.2Z" style="fill:#fff;opacity:0.30000000000000004"></path><path d="M287.36,100.7l.54.06a.32.32,0,0,0,.14,0,.26.26,0,0,0,.13-.08.35.35,0,0,0,.1-.26.38.38,0,0,0-.1-.27l-.08-.06a.41.41,0,0,0-.19,0l-.54-.06a.37.37,0,0,0-.15,0,.32.32,0,0,0-.12.08.41.41,0,0,0-.11.26.44.44,0,0,0,.11.27l.08.06a.41.41,0,0,0,.19,0Z" style="fill:#fff;opacity:0.30000000000000004"></path><path d="M310.15,114.69a1.43,1.43,0,0,0-1.37,1.36h-.18a1.29,1.29,0,0,0-1.37-1.31v-.2a1.36,1.36,0,0,0,1.32-1.32h.18s-.12,1.15,1.41,1.33Z" style="fill:#407BFF"></path><path d="M288.81,93.91a1.45,1.45,0,0,0-1.37,1.36h-.18A1.28,1.28,0,0,0,285.9,94v-.19a1.37,1.37,0,0,0,1.33-1.33h.18s-.12,1.15,1.4,1.33Z" style="fill:#407BFF"></path><path d="M306.51,117.6a3.18,3.18,0,0,0-3,3h-.4a2.85,2.85,0,0,0-3-2.9l0-.43a3,3,0,0,0,2.92-2.93h.4s-.27,2.54,3.1,2.94Z" style="fill:#407BFF"></path><g style="opacity:0.30000000000000004"><path d="M141.31,116.54a2.5,2.5,0,0,0-.8-.68,4.59,4.59,0,0,0-3-.41,12.22,12.22,0,0,0-2.69.86,7.57,7.57,0,0,0,1.52-2.87,4.46,4.46,0,0,0-.1-2.93,2.25,2.25,0,0,0-3.35-1.15,4.62,4.62,0,0,0-1.86,2.41,14.16,14.16,0,0,0-.61,3c0,.28-.07.56-.11.84A7.5,7.5,0,0,0,126,113.8a4.33,4.33,0,0,0-2.87.61A2.43,2.43,0,0,0,122.1,117a2.55,2.55,0,0,0,.52.92,4.55,4.55,0,0,0,2.69,1.4,11.24,11.24,0,0,0,2.39.11,7.49,7.49,0,0,0-2.92,2.91,4.42,4.42,0,0,0-.6,2.87,2.45,2.45,0,0,0,1.94,2,2.63,2.63,0,0,0,1-.11,4.53,4.53,0,0,0,2.37-1.9,12.6,12.6,0,0,0,1.18-2.42,7.44,7.44,0,0,0,1.74,3.26,4.43,4.43,0,0,0,2.53,1.48,2.24,2.24,0,0,0,2.76-2.22,4.56,4.56,0,0,0-1-2.85,10.53,10.53,0,0,0-1.52-1.54,7.35,7.35,0,0,0,3.49-.05,4.35,4.35,0,0,0,2.5-1.54A2.46,2.46,0,0,0,141.31,116.54Z" style="fill:#407BFF"></path><path d="M135.35,129.57a4.6,4.6,0,0,1-.64,0,6.35,6.35,0,0,1-3.73-2.1c-.11-.13-.22-.25-.32-.38a6.16,6.16,0,0,1-2.92,2,4.37,4.37,0,0,1-1.88.18,4.45,4.45,0,0,1-3.65-3.64,6.39,6.39,0,0,1,.82-4.2,6.16,6.16,0,0,1,.33-.55,6,6,0,0,1-2.26-1.61,4.24,4.24,0,0,1,.94-6.45,6.34,6.34,0,0,1,4.17-1,9,9,0,0,1,2.55.6,9.54,9.54,0,0,1,.39-1.33,6.48,6.48,0,0,1,2.7-3.44,4.61,4.61,0,0,1,1.8-.62,4.43,4.43,0,0,1,4.4,2.66,6.19,6.19,0,0,1,.35,3.68,5.85,5.85,0,0,1,3.1.76,4.25,4.25,0,0,1,1.29,6.39,6.33,6.33,0,0,1-3.58,2.3,5.73,5.73,0,0,1,.53,2.57,4.44,4.44,0,0,1-.43,1.84A4.38,4.38,0,0,1,135.35,129.57Zm-3-8.43.3,1.17a5.37,5.37,0,0,0,1.27,2.39,2.49,2.49,0,0,0,1.34.86.64.64,0,0,0,.47-.11,1.23,1.23,0,0,1,0-.18,2.67,2.67,0,0,0-.64-1.58,8.49,8.49,0,0,0-1.23-1.24Zm-3-.34-.65.37a5.57,5.57,0,0,0-2.15,2.13,2.47,2.47,0,0,0-.38,1.54.66.66,0,0,0,.25.41,1.37,1.37,0,0,1,.17,0,2.57,2.57,0,0,0,1.3-1.11,10.18,10.18,0,0,0,1-2Zm5-2.11,1.32.29a5.53,5.53,0,0,0,2.56,0,2.54,2.54,0,0,0,1.38-.78.69.69,0,0,0,.13-.46.55.55,0,0,0-.16-.11,2.6,2.6,0,0,0-1.69-.18,11,11,0,0,0-2.26.74ZM124,116.45a1,1,0,0,0,.11.15,2.6,2.6,0,0,0,1.53.74,9.29,9.29,0,0,0,2,.09l.39,0-.16-.13.54.12.84,0-.24-.21a5.53,5.53,0,0,0-3.13-1.36,2.45,2.45,0,0,0-1.56.27A.65.65,0,0,0,124,116.45Zm10-5.45a.91.91,0,0,0-.16.08,2.61,2.61,0,0,0-1,1.38,12.13,12.13,0,0,0-.51,2.59l-.15,1.2,1-1.23a5.5,5.5,0,0,0,1.12-2.1,2.5,2.5,0,0,0,0-1.59A.58.58,0,0,0,134.06,111Z" style="fill:#407BFF"></path></g><path d="M131.07,116.35a7.49,7.49,0,0,0-5.21-2.82,4.41,4.41,0,0,0-2.87.6,2.48,2.48,0,0,0-1.07,2.59,2.43,2.43,0,0,0,.52.91,4.56,4.56,0,0,0,2.7,1.41,13.88,13.88,0,0,0,3.09.08l3.28-.17.32-.42A2.9,2.9,0,0,0,131.07,116.35Z" style="fill:#407BFF"></path><path d="M129.29,118.43a7.5,7.5,0,0,0-4.68,3.63,4.35,4.35,0,0,0-.6,2.87,2.44,2.44,0,0,0,1.93,2,2.5,2.5,0,0,0,1-.1,4.66,4.66,0,0,0,2.37-1.9,13.78,13.78,0,0,0,1.32-2.8l1.17-3.07-.26-.46A2.91,2.91,0,0,0,129.29,118.43Z" style="fill:#407BFF"></path><path d="M130.33,120.19a7.51,7.51,0,0,0,1.95,5.59,4.36,4.36,0,0,0,2.53,1.49,2.46,2.46,0,0,0,2.53-1.2,2.38,2.38,0,0,0,.23-1,4.58,4.58,0,0,0-1-2.86,13.7,13.7,0,0,0-2.23-2.14L131.75,118l-.52.1A2.91,2.91,0,0,0,130.33,120.19Z" style="fill:#407BFF"></path><path d="M132.65,119.71a7.56,7.56,0,0,0,5.85.9,4.48,4.48,0,0,0,2.5-1.54,2.46,2.46,0,0,0,.13-2.8,2.35,2.35,0,0,0-.79-.68,4.62,4.62,0,0,0-3-.42,13.43,13.43,0,0,0-2.93,1l-3,1.26-.15.51A2.93,2.93,0,0,0,132.65,119.71Z" style="fill:#407BFF"></path><path d="M132.47,117.8a7.49,7.49,0,0,0,3.68-4.63,4.33,4.33,0,0,0-.1-2.93,2.45,2.45,0,0,0-2.36-1.51,2.57,2.57,0,0,0-1,.36,4.56,4.56,0,0,0-1.85,2.41,13.46,13.46,0,0,0-.61,3c-.14,1.09-.28,2.17-.41,3.26l.36.38A2.86,2.86,0,0,0,132.47,117.8Z" style="fill:#407BFF"></path><path d="M135.36,118.93a3.51,3.51,0,1,1-3.51-3.51A3.51,3.51,0,0,1,135.36,118.93Z" style="fill:#fff;opacity:0.30000000000000004"></path><path d="M133.8,118.93a1.95,1.95,0,1,1-2-2A1.95,1.95,0,0,1,133.8,118.93Z" style="fill:#fff"></path><path d="M123.25,115.9l0-.08h0l.06-.13.15-.24s0,.06,0,0l.06-.06.09-.09.11-.11,0,0c-.07,0,0,0,0,0l.24-.15.14-.06h0l.06,0a1.47,1.47,0,0,1,.28-.08h.23a.38.38,0,0,0,.37-.38.37.37,0,0,0-.37-.37,2.44,2.44,0,0,0-2.23,1.64.37.37,0,0,0,.26.46.38.38,0,0,0,.46-.26Z" style="fill:#fff;opacity:0.30000000000000004"></path><path d="M125.88,114.77l.54.07a.28.28,0,0,0,.15,0,.37.37,0,0,0,.12-.07.46.46,0,0,0,.11-.27.39.39,0,0,0-.11-.26l-.08-.06a.32.32,0,0,0-.19,0l-.54-.07a.4.4,0,0,0-.15,0l-.12.08a.37.37,0,0,0,0,.53l.08.06a.41.41,0,0,0,.19,0Z" style="fill:#fff;opacity:0.30000000000000004"></path><path d="M148.67,128.76a1.44,1.44,0,0,0-1.37,1.36h-.18a1.29,1.29,0,0,0-1.37-1.31v-.2a1.36,1.36,0,0,0,1.33-1.32h.18s-.13,1.15,1.4,1.33Z" style="fill:#407BFF"></path><path d="M127.33,108a1.44,1.44,0,0,0-1.37,1.36h-.18a1.28,1.28,0,0,0-1.36-1.31v-.2a1.36,1.36,0,0,0,1.32-1.32h.18s-.12,1.15,1.4,1.33Z" style="fill:#407BFF"></path><path d="M145,131.67a3.18,3.18,0,0,0-3,3h-.4a2.84,2.84,0,0,0-3-2.89l0-.44a3,3,0,0,0,2.92-2.92h.4s-.27,2.54,3.1,2.93Z" style="fill:#407BFF"></path><g style="opacity:0.30000000000000004"><path d="M402.54,242.44a2.38,2.38,0,0,0-.8-.68,4.59,4.59,0,0,0-3-.42,12.8,12.8,0,0,0-2.69.87,7.5,7.5,0,0,0,1.52-2.87,4.39,4.39,0,0,0-.1-2.93,2.23,2.23,0,0,0-3.35-1.15,4.58,4.58,0,0,0-1.86,2.41,14,14,0,0,0-.61,3c0,.28-.07.56-.1.84a7.49,7.49,0,0,0-4.27-1.84,4.38,4.38,0,0,0-2.87.6,2.24,2.24,0,0,0-.55,3.5,4.54,4.54,0,0,0,2.69,1.41,11.24,11.24,0,0,0,2.39.11,7.56,7.56,0,0,0-2.92,2.91,4.41,4.41,0,0,0-.6,2.87,2.26,2.26,0,0,0,3,1.92,4.62,4.62,0,0,0,2.37-1.9,12.13,12.13,0,0,0,1.18-2.43,7.49,7.49,0,0,0,1.74,3.26,4.39,4.39,0,0,0,2.53,1.49,2.45,2.45,0,0,0,2.53-1.2,2.39,2.39,0,0,0,.24-1,4.64,4.64,0,0,0-1.05-2.86,10.47,10.47,0,0,0-1.52-1.53,7.53,7.53,0,0,0,3.5-.05,4.46,4.46,0,0,0,2.49-1.54A2.46,2.46,0,0,0,402.54,242.44Z" style="fill:#407BFF"></path><path d="M396.59,255.46a4.63,4.63,0,0,1-.65,0,6.36,6.36,0,0,1-3.73-2.11c-.11-.12-.22-.24-.32-.37a6.24,6.24,0,0,1-2.92,2,4.53,4.53,0,0,1-1.88.18,4.46,4.46,0,0,1-3.65-3.64,7.35,7.35,0,0,1,1.15-4.76,5.89,5.89,0,0,1-2.26-1.6,4.25,4.25,0,0,1,.94-6.46,6.34,6.34,0,0,1,4.17-1,9.54,9.54,0,0,1,2.56.6,9.36,9.36,0,0,1,.38-1.32,6.48,6.48,0,0,1,2.7-3.44,4.35,4.35,0,0,1,1.8-.62,4.42,4.42,0,0,1,4.4,2.66,6.18,6.18,0,0,1,.35,3.68,5.9,5.9,0,0,1,3.1.76,4.35,4.35,0,0,1,1.43,1.25,4.44,4.44,0,0,1-.14,5.14,6.27,6.27,0,0,1-3.57,2.29,5.86,5.86,0,0,1,.52,2.57,4.19,4.19,0,0,1-4.38,4.19Zm-3-8.42.3,1.17a5.37,5.37,0,0,0,1.27,2.39,2.55,2.55,0,0,0,1.34.86.77.77,0,0,0,.47-.11s0-.06,0-.18a2.67,2.67,0,0,0-.64-1.59,7.94,7.94,0,0,0-1.23-1.23Zm-3-.34-.66.37a5.45,5.45,0,0,0-2.14,2.12,2.42,2.42,0,0,0-.39,1.54.64.64,0,0,0,.25.41.58.58,0,0,0,.18,0,2.57,2.57,0,0,0,1.29-1.1,10.27,10.27,0,0,0,1-2Zm5-2.11,1.31.29a5.39,5.39,0,0,0,2.56,0,2.48,2.48,0,0,0,1.38-.78.66.66,0,0,0,.13-.45.55.55,0,0,0-.16-.11,2.6,2.6,0,0,0-1.69-.18,11,11,0,0,0-2.26.74Zm-10.28-2.24s0,.06.11.15a2.66,2.66,0,0,0,1.54.74,9.16,9.16,0,0,0,2,.08h.39l-.16-.14.55.12.83,0-.24-.22a5.59,5.59,0,0,0-3.13-1.35,2.46,2.46,0,0,0-1.56.26A.68.68,0,0,0,385.25,242.35Zm10-5.46s-.06,0-.16.09a2.61,2.61,0,0,0-1,1.38,11.91,11.91,0,0,0-.51,2.58l-.14,1.2,1-1.22a5.41,5.41,0,0,0,1.11-2.1,2.53,2.53,0,0,0,0-1.59A.69.69,0,0,0,395.29,236.89Z" style="fill:#407BFF"></path></g><path d="M392.3,242.24a7.56,7.56,0,0,0-5.21-2.82,4.43,4.43,0,0,0-2.86.61,2.44,2.44,0,0,0-1.07,2.59,2.35,2.35,0,0,0,.51.91,4.6,4.6,0,0,0,2.7,1.4,12.78,12.78,0,0,0,3.09.08l3.28-.16.32-.42A2.93,2.93,0,0,0,392.3,242.24Z" style="fill:#407BFF"></path><path d="M390.52,244.33a7.53,7.53,0,0,0-4.68,3.63,4.35,4.35,0,0,0-.6,2.87,2.44,2.44,0,0,0,1.93,2,2.67,2.67,0,0,0,1.05-.11,4.57,4.57,0,0,0,2.37-1.9,13.53,13.53,0,0,0,1.32-2.8l1.17-3.07-.26-.45A2.86,2.86,0,0,0,390.52,244.33Z" style="fill:#407BFF"></path><path d="M391.56,246.09a7.52,7.52,0,0,0,1.95,5.59,4.39,4.39,0,0,0,2.53,1.48,2.45,2.45,0,0,0,2.53-1.19,2.42,2.42,0,0,0,.23-1,4.57,4.57,0,0,0-1.05-2.85,13.7,13.7,0,0,0-2.23-2.14L393,243.86l-.51.11A2.87,2.87,0,0,0,391.56,246.09Z" style="fill:#407BFF"></path><path d="M393.88,245.6a7.52,7.52,0,0,0,5.85.9,4.38,4.38,0,0,0,2.5-1.54,2.44,2.44,0,0,0,.13-2.79,2.5,2.5,0,0,0-.79-.69,4.6,4.6,0,0,0-3-.41,13.34,13.34,0,0,0-2.94,1l-3,1.26-.15.5A2.91,2.91,0,0,0,393.88,245.6Z" style="fill:#407BFF"></path><path d="M393.7,243.7a7.56,7.56,0,0,0,3.69-4.64,4.39,4.39,0,0,0-.11-2.93,2.44,2.44,0,0,0-2.36-1.5,2.56,2.56,0,0,0-1,.35,4.65,4.65,0,0,0-1.85,2.41,14.16,14.16,0,0,0-.61,3c-.14,1.09-.27,2.18-.41,3.27l.36.38A2.94,2.94,0,0,0,393.7,243.7Z" style="fill:#407BFF"></path><path d="M396.59,244.83a3.51,3.51,0,1,1-3.51-3.51A3.51,3.51,0,0,1,396.59,244.83Z" style="fill:#fff;opacity:0.30000000000000004"></path><path d="M395,244.83a2,2,0,1,1-2-2A2,2,0,0,1,395,244.83Z" style="fill:#fff"></path><path d="M384.48,241.79l0-.07c0-.07,0,0,0,0l.06-.13a2,2,0,0,1,.16-.24s-.05.05,0,0l0-.06.09-.1.11-.1,0,0c-.07,0,0,0,0,0l.24-.15.14-.07c.06,0-.05,0,0,0l.06,0,.29-.08H386a.38.38,0,0,0,.37-.37A.38.38,0,0,0,386,240a2.46,2.46,0,0,0-2.23,1.65.37.37,0,0,0,.26.46.39.39,0,0,0,.46-.27Z" style="fill:#fff;opacity:0.30000000000000004"></path><path d="M387.11,240.67l.54.06a.4.4,0,0,0,.15,0,.42.42,0,0,0,.12-.08.41.41,0,0,0,.11-.26.44.44,0,0,0-.11-.27l-.08-.06a.41.41,0,0,0-.19-.05l-.54-.06-.15,0a.42.42,0,0,0-.12.08.41.41,0,0,0-.11.26.44.44,0,0,0,.11.27l.08.06a.41.41,0,0,0,.19,0Z" style="fill:#fff;opacity:0.30000000000000004"></path><path d="M409.9,254.65a1.45,1.45,0,0,0-1.37,1.37h-.18a1.28,1.28,0,0,0-1.36-1.31v-.2a1.37,1.37,0,0,0,1.33-1.32h.18s-.13,1.15,1.4,1.33Z" style="fill:#407BFF"></path><path d="M388.56,233.88a1.44,1.44,0,0,0-1.36,1.36H387a1.29,1.29,0,0,0-1.37-1.31v-.19a1.37,1.37,0,0,0,1.32-1.33h.18s-.12,1.15,1.4,1.33Z" style="fill:#407BFF"></path><path d="M406.26,257.57a3.18,3.18,0,0,0-3,3h-.4a2.85,2.85,0,0,0-3-2.9l0-.43a3,3,0,0,0,2.92-2.93h.4s-.27,2.54,3.1,2.94Z" style="fill:#407BFF"></path><path d="M166.15,275.53a3.19,3.19,0,0,0-3,3h-.39a2.86,2.86,0,0,0-3-2.9v-.43a3,3,0,0,0,2.93-2.93h.39s-.27,2.54,3.1,2.94Z" style="fill:#407BFF"></path><path d="M88.74,245a3.18,3.18,0,0,0-3,3h-.4a2.84,2.84,0,0,0-3-2.89l0-.44a3,3,0,0,0,2.92-2.92h.4s-.27,2.54,3.1,2.94Z" style="fill:#407BFF"></path><path d="M194.89,160.66a1.67,1.67,0,1,1-3.33,0,1.67,1.67,0,0,1,3.33,0Z" style="fill:#fff;opacity:0.30000000000000004"></path><path d="M193.78,161.28a.79.79,0,0,1-1.12,0,.8.8,0,0,1,0-1.13.79.79,0,0,1,1.12,0A.8.8,0,0,1,193.78,161.28Z" style="fill:#fff"></path><path d="M219.73,145.79a1.67,1.67,0,1,1-1.66-1.66A1.66,1.66,0,0,1,219.73,145.79Z" style="fill:#fff;opacity:0.30000000000000004"></path><circle cx="218.07" cy="145.85" r="0.79" style="fill:#fff"></circle><path d="M203.1,133.29a1.67,1.67,0,1,1-1.66-1.66A1.67,1.67,0,0,1,203.1,133.29Z" style="fill:#fff;opacity:0.30000000000000004"></path><path d="M202,133.9a.8.8,0,0,1-1.13,0,.79.79,0,0,1,0-1.12.8.8,0,0,1,1.13,0A.79.79,0,0,1,202,133.9Z" style="fill:#fff"></path><path d="M214.58,151.93a1,1,0,1,1-1-1A1,1,0,0,1,214.58,151.93Z" style="fill:#fff;opacity:0.30000000000000004"></path><path d="M213.89,152.31a.48.48,0,0,1-.7,0,.49.49,0,1,1,.7,0Z" style="fill:#fff"></path><path d="M231.17,174.46a1,1,0,1,1-1-1A1,1,0,0,1,231.17,174.46Z" style="fill:#fff;opacity:0.30000000000000004"></path><path d="M230.48,174.84a.49.49,0,1,1,0-.7A.5.5,0,0,1,230.48,174.84Z" style="fill:#fff"></path><path d="M217.44,135a1,1,0,1,1-1-1A1,1,0,0,1,217.44,135Z" style="fill:#fff;opacity:0.30000000000000004"></path><path d="M216.75,135.34a.49.49,0,1,1-.7-.7.49.49,0,0,1,.7.7Z" style="fill:#fff"></path><path d="M222.24,159.62a1,1,0,1,1-1-1A1,1,0,0,1,222.24,159.62Z" style="fill:#fff;opacity:0.30000000000000004"></path><path d="M221.55,160a.49.49,0,1,1-.7-.7.48.48,0,0,1,.7,0A.5.5,0,0,1,221.55,160Z" style="fill:#fff"></path><path d="M232.23,153a2.1,2.1,0,1,1-2.1-2.1A2.09,2.09,0,0,1,232.23,153Z" style="fill:#fff;opacity:0.30000000000000004"></path><circle cx="230.13" cy="153.03" r="1" style="fill:#fff"></circle><path d="M206.64,151.86a3.54,3.54,0,1,1-3.54-3.54A3.53,3.53,0,0,1,206.64,151.86Z" style="fill:#fff;opacity:0.30000000000000004"></path><path d="M204.29,153.17a1.69,1.69,0,1,1,0-2.39A1.68,1.68,0,0,1,204.29,153.17Z" style="fill:#fff"></path><path d="M370.85,233.53a1.67,1.67,0,0,1-3.33,0,1.67,1.67,0,1,1,3.33,0Z" style="fill:#fff;opacity:0.30000000000000004"></path><path d="M369.75,234.14a.8.8,0,0,1-1.13,0,.79.79,0,0,1,0-1.12.8.8,0,0,1,1.13,0A.79.79,0,0,1,369.75,234.14Z" style="fill:#fff"></path><path d="M395.7,218.66A1.67,1.67,0,1,1,394,217,1.66,1.66,0,0,1,395.7,218.66Z" style="fill:#fff;opacity:0.30000000000000004"></path><path d="M394.59,219.27a.79.79,0,1,1,0-1.12A.79.79,0,0,1,394.59,219.27Z" style="fill:#fff"></path><path d="M379.06,206.15a1.67,1.67,0,1,1-1.66-1.66A1.66,1.66,0,0,1,379.06,206.15Z" style="fill:#fff;opacity:0.30000000000000004"></path><path d="M378,206.77a.79.79,0,1,1,0-1.12A.79.79,0,0,1,378,206.77Z" style="fill:#fff"></path><path d="M390.54,224.79a1,1,0,1,1-1-1A1,1,0,0,1,390.54,224.79Z" style="fill:#fff;opacity:0.30000000000000004"></path><path d="M389.85,225.18a.49.49,0,0,1-.7-.7.48.48,0,0,1,.7,0A.5.5,0,0,1,389.85,225.18Z" style="fill:#fff"></path><path d="M407.13,247.32a1,1,0,1,1-1-1A1,1,0,0,1,407.13,247.32Z" style="fill:#fff;opacity:0.30000000000000004"></path><path d="M406.44,247.7a.48.48,0,0,1-.7,0,.49.49,0,0,1,.7-.7A.48.48,0,0,1,406.44,247.7Z" style="fill:#fff"></path><path d="M393.4,207.82a1,1,0,1,1-1-1A1,1,0,0,1,393.4,207.82Z" style="fill:#fff;opacity:0.30000000000000004"></path><path d="M392.72,208.2a.49.49,0,0,1-.7-.7.49.49,0,1,1,.7.7Z" style="fill:#fff"></path><path d="M398.2,232.49a1,1,0,1,1-1-1A1,1,0,0,1,398.2,232.49Z" style="fill:#fff;opacity:0.30000000000000004"></path><circle cx="397.16" cy="232.52" r="0.5" style="fill:#fff"></circle><path d="M408.19,225.83a2.1,2.1,0,1,1-2.1-2.09A2.1,2.1,0,0,1,408.19,225.83Z" style="fill:#fff;opacity:0.30000000000000004"></path><path d="M406.8,226.61a1,1,0,0,1-1.41,0,1,1,0,0,1,0-1.42,1,1,0,0,1,1.41,0A1,1,0,0,1,406.8,226.61Z" style="fill:#fff"></path><path d="M382.6,224.73a3.54,3.54,0,1,1-3.54-3.54A3.54,3.54,0,0,1,382.6,224.73Z" style="fill:#fff;opacity:0.30000000000000004"></path><path d="M380.26,226a1.69,1.69,0,1,1,0-2.38A1.69,1.69,0,0,1,380.26,226Z" style="fill:#fff"></path><path d="M290.16,193.8a1.67,1.67,0,1,1-3.33,0,1.67,1.67,0,0,1,3.33,0Z" style="fill:#fff;opacity:0.30000000000000004"></path><path d="M289.05,194.42a.79.79,0,0,1-1.12,0,.8.8,0,0,1,0-1.13.79.79,0,0,1,1.12,0A.8.8,0,0,1,289.05,194.42Z" style="fill:#fff"></path><path d="M315,178.93a1.67,1.67,0,1,1-1.66-1.66A1.66,1.66,0,0,1,315,178.93Z" style="fill:#fff;opacity:0.30000000000000004"></path><path d="M313.9,179.55a.79.79,0,0,1-1.12,0,.8.8,0,0,1,0-1.13.79.79,0,0,1,1.12,0A.8.8,0,0,1,313.9,179.55Z" style="fill:#fff"></path><path d="M298.37,166.43a1.67,1.67,0,1,1-1.67-1.67A1.66,1.66,0,0,1,298.37,166.43Z" style="fill:#fff;opacity:0.30000000000000004"></path><path d="M297.26,167a.79.79,0,1,1,0-1.12A.79.79,0,0,1,297.26,167Z" style="fill:#fff"></path><path d="M309.85,185.07a1,1,0,0,1-2.08,0,1,1,0,0,1,2.08,0Z" style="fill:#fff;opacity:0.30000000000000004"></path><path d="M309.16,185.45a.5.5,0,0,1-.7,0,.48.48,0,0,1,0-.7.49.49,0,1,1,.7.7Z" style="fill:#fff"></path><path d="M326.44,207.6a1,1,0,1,1-1-1A1,1,0,0,1,326.44,207.6Z" style="fill:#fff;opacity:0.30000000000000004"></path><path d="M325.75,208a.49.49,0,1,1,0-.7A.5.5,0,0,1,325.75,208Z" style="fill:#fff"></path><path d="M312.71,168.09a1,1,0,1,1-1-1A1,1,0,0,1,312.71,168.09Z" style="fill:#fff;opacity:0.30000000000000004"></path><path d="M312,168.48a.49.49,0,1,1-.7-.7.49.49,0,0,1,.7.7Z" style="fill:#fff"></path><path d="M317.51,192.76a1,1,0,1,1-1-1A1,1,0,0,1,317.51,192.76Z" style="fill:#fff;opacity:0.30000000000000004"></path><path d="M316.82,193.15a.49.49,0,0,1-.7-.7.48.48,0,0,1,.7,0A.5.5,0,0,1,316.82,193.15Z" style="fill:#fff"></path><path d="M327.5,186.11a2.1,2.1,0,1,1-2.1-2.1A2.1,2.1,0,0,1,327.5,186.11Z" style="fill:#fff;opacity:0.30000000000000004"></path><circle cx="325.4" cy="186.17" r="1" style="fill:#fff"></circle><path d="M301.91,185a3.54,3.54,0,1,1-3.54-3.54A3.54,3.54,0,0,1,301.91,185Z" style="fill:#fff;opacity:0.30000000000000004"></path><path d="M299.56,186.31a1.69,1.69,0,0,1-2.39,0,1.71,1.71,0,0,1,0-2.39,1.69,1.69,0,0,1,2.39,2.39Z" style="fill:#fff"></path><path d="M250.17,95a1.67,1.67,0,1,1-1.66-1.66A1.67,1.67,0,0,1,250.17,95Z" style="fill:#fff;opacity:0.30000000000000004"></path><path d="M249.07,95.62a.8.8,0,1,1,0-1.13A.8.8,0,0,1,249.07,95.62Z" style="fill:#fff"></path><path d="M275,80.13a1.66,1.66,0,1,1-1.66-1.66A1.66,1.66,0,0,1,275,80.13Z" style="fill:#fff;opacity:0.30000000000000004"></path><circle cx="273.35" cy="80.19" r="0.79" style="fill:#fff"></circle><path d="M258.38,67.63A1.67,1.67,0,1,1,256.72,66,1.66,1.66,0,0,1,258.38,67.63Z" style="fill:#fff;opacity:0.30000000000000004"></path><path d="M257.28,68.24a.79.79,0,1,1,0-1.12A.79.79,0,0,1,257.28,68.24Z" style="fill:#fff"></path><path d="M269.86,86.27a1,1,0,1,1-1-1A1,1,0,0,1,269.86,86.27Z" style="fill:#fff;opacity:0.30000000000000004"></path><path d="M269.17,86.65a.48.48,0,0,1-.7,0,.49.49,0,1,1,.7,0Z" style="fill:#fff"></path><path d="M286.45,108.8a1,1,0,1,1-1-1A1,1,0,0,1,286.45,108.8Z" style="fill:#fff;opacity:0.30000000000000004"></path><path d="M285.76,109.18a.49.49,0,1,1,0-.7A.48.48,0,0,1,285.76,109.18Z" style="fill:#fff"></path><path d="M272.72,69.29a1,1,0,1,1-1-1A1,1,0,0,1,272.72,69.29Z" style="fill:#fff;opacity:0.30000000000000004"></path><path d="M272,69.68a.5.5,0,0,1-.7,0,.49.49,0,0,1,.7-.7A.5.5,0,0,1,272,69.68Z" style="fill:#fff"></path><path d="M277.52,94a1,1,0,1,1-2.08,0,1,1,0,1,1,2.08,0Z" style="fill:#fff;opacity:0.30000000000000004"></path><circle cx="276.48" cy="94" r="0.5" style="fill:#fff"></circle><path d="M287.51,87.31a2.1,2.1,0,1,1-2.1-2.1A2.1,2.1,0,0,1,287.51,87.31Z" style="fill:#fff;opacity:0.30000000000000004"></path><circle cx="285.41" cy="87.37" r="1" style="fill:#fff"></circle><path d="M261.92,86.2a3.54,3.54,0,1,1-3.54-3.54A3.53,3.53,0,0,1,261.92,86.2Z" style="fill:#fff;opacity:0.30000000000000004"></path><path d="M259.58,87.51a1.69,1.69,0,1,1,0-2.39A1.71,1.71,0,0,1,259.58,87.51Z" style="fill:#fff"></path><path d="M108.87,244.69A1.67,1.67,0,1,1,107.2,243,1.66,1.66,0,0,1,108.87,244.69Z" style="fill:#fff;opacity:0.30000000000000004"></path><path d="M107.77,245.3a.8.8,0,0,1-1.13,0,.79.79,0,0,1,0-1.12.8.8,0,0,1,1.13,0A.79.79,0,0,1,107.77,245.3Z" style="fill:#fff"></path><path d="M133.71,229.82a1.66,1.66,0,1,1-1.66-1.67A1.66,1.66,0,0,1,133.71,229.82Z" style="fill:#fff;opacity:0.30000000000000004"></path><path d="M132.61,230.43a.79.79,0,1,1,0-1.12A.79.79,0,0,1,132.61,230.43Z" style="fill:#fff"></path><path d="M117.08,217.31a1.67,1.67,0,1,1-1.66-1.66A1.66,1.66,0,0,1,117.08,217.31Z" style="fill:#fff;opacity:0.30000000000000004"></path><path d="M116,217.93a.79.79,0,1,1,0-1.12A.79.79,0,0,1,116,217.93Z" style="fill:#fff"></path><path d="M128.56,236a1,1,0,1,1-1-1A1,1,0,0,1,128.56,236Z" style="fill:#fff;opacity:0.30000000000000004"></path><path d="M127.87,236.34a.49.49,0,1,1-.7-.7.48.48,0,0,1,.7,0A.5.5,0,0,1,127.87,236.34Z" style="fill:#fff"></path><path d="M145.15,258.48a1,1,0,1,1-1-1A1,1,0,0,1,145.15,258.48Z" style="fill:#fff;opacity:0.30000000000000004"></path><path d="M144.46,258.86a.48.48,0,0,1-.7,0,.49.49,0,1,1,.7-.7A.48.48,0,0,1,144.46,258.86Z" style="fill:#fff"></path><path d="M131.42,219a1,1,0,1,1-1-1A1,1,0,0,1,131.42,219Z" style="fill:#fff;opacity:0.30000000000000004"></path><path d="M130.74,219.36a.5.5,0,0,1-.71,0,.5.5,0,0,1,0-.7.51.51,0,0,1,.71,0A.5.5,0,0,1,130.74,219.36Z" style="fill:#fff"></path><path d="M136.22,243.65a1,1,0,1,1-1-1A1,1,0,0,1,136.22,243.65Z" style="fill:#fff;opacity:0.30000000000000004"></path><path d="M135.53,244a.49.49,0,1,1,0-.7A.48.48,0,0,1,135.53,244Z" style="fill:#fff"></path><path d="M146.21,237a2.1,2.1,0,1,1-2.1-2.09A2.1,2.1,0,0,1,146.21,237Z" style="fill:#fff;opacity:0.30000000000000004"></path><circle cx="144.11" cy="237.06" r="1" style="fill:#fff"></circle><path d="M120.62,235.89a3.54,3.54,0,1,1-3.54-3.54A3.54,3.54,0,0,1,120.62,235.89Z" style="fill:#fff;opacity:0.30000000000000004"></path><path d="M118.28,237.19a1.69,1.69,0,1,1,0-2.38A1.69,1.69,0,0,1,118.28,237.19Z" style="fill:#fff"></path><path d="M102.14,104.45a1.63,1.63,0,1,1-1.63-1.63A1.63,1.63,0,0,1,102.14,104.45Z" style="fill:#fff;opacity:0.30000000000000004"></path><circle cx="100.51" cy="104.5" r="0.77" style="fill:#fff"></circle><path d="M120.8,99.09a1.62,1.62,0,1,1-1.62-1.63A1.61,1.61,0,0,1,120.8,99.09Z" style="fill:#fff;opacity:0.30000000000000004"></path><path d="M119.73,99.69a.78.78,0,1,1,0-1.1A.78.78,0,0,1,119.73,99.69Z" style="fill:#fff"></path><circle cx="82.33" cy="160.04" r="1.62" style="fill:#fff;opacity:0.30000000000000004"></circle><path d="M82.88,160.64a.78.78,0,1,1,0-1.1A.78.78,0,0,1,82.88,160.64Z" style="fill:#fff"></path><path d="M109.9,106.07a1,1,0,1,1-1-1A1,1,0,0,1,109.9,106.07Z" style="fill:#fff;opacity:0.30000000000000004"></path><path d="M109.23,106.45a.48.48,0,0,1-.68,0,.49.49,0,0,1,0-.69.48.48,0,0,1,.68,0A.49.49,0,0,1,109.23,106.45Z" style="fill:#fff"></path><path d="M133.42,99.92a1.8,1.8,0,1,1-1.8-1.8A1.8,1.8,0,0,1,133.42,99.92Z" style="fill:#fff;opacity:0.30000000000000004"></path><path d="M132.23,100.58a.86.86,0,0,1-1.21,0,.86.86,0,1,1,1.21-1.21A.86.86,0,0,1,132.23,100.58Z" style="fill:#fff"></path><path d="M112.17,95.76a1,1,0,1,1-1-1A1,1,0,0,1,112.17,95.76Z" style="fill:#fff;opacity:0.30000000000000004"></path><path d="M111.5,96.13a.48.48,0,1,1,0-.68A.48.48,0,0,1,111.5,96.13Z" style="fill:#fff"></path><path d="M117.67,121.61a1,1,0,1,1-2,0,1,1,0,0,1,2,0Z" style="fill:#fff;opacity:0.30000000000000004"></path><path d="M117,122a.48.48,0,0,1-.68,0,.49.49,0,0,1,0-.69.5.5,0,0,1,.68,0A.49.49,0,0,1,117,122Z" style="fill:#fff"></path><path d="M75.43,152.66a1,1,0,1,1-1-1A1,1,0,0,1,75.43,152.66Z" style="fill:#fff;opacity:0.30000000000000004"></path><path d="M74.76,153a.48.48,0,1,1,0-.68A.48.48,0,0,1,74.76,153Z" style="fill:#fff"></path><ellipse cx="114.61" cy="112.92" rx="2.04" ry="2.05" style="fill:#fff;opacity:0.30000000000000004"></ellipse><circle cx="114.61" cy="112.98" r="0.97" style="fill:#fff"></circle><ellipse cx="68.64" cy="164.6" rx="3.45" ry="3.46" style="fill:#fff;opacity:0.30000000000000004"></ellipse><circle cx="68.64" cy="164.71" r="1.64" style="fill:#fff"></circle></g></svg>
