<svg xmlns="http://www.w3.org/2000/svg" viewBox="0 0 750 500"><g id="background-complete"><path d="M673.73,344.51H493a5.87,5.87,0,0,1-5.86-5.86V75.37A5.87,5.87,0,0,1,493,69.51H673.73a5.87,5.87,0,0,1,5.87,5.86V338.65A5.87,5.87,0,0,1,673.73,344.51ZM493,69.76a5.61,5.61,0,0,0-5.61,5.61V338.65a5.61,5.61,0,0,0,5.61,5.61H673.73a5.62,5.62,0,0,0,5.62-5.61V75.37a5.62,5.62,0,0,0-5.62-5.61Z" style="fill:#e0e0e0"></path><path d="M465.31,344.51H284.56a5.87,5.87,0,0,1-5.86-5.86V75.37a5.87,5.87,0,0,1,5.86-5.86H465.31a5.87,5.87,0,0,1,5.86,5.86V338.65A5.87,5.87,0,0,1,465.31,344.51ZM284.56,69.76A5.62,5.62,0,0,0,279,75.37V338.65a5.62,5.62,0,0,0,5.61,5.61H465.31a5.62,5.62,0,0,0,5.61-5.61V75.37a5.62,5.62,0,0,0-5.61-5.61Z" style="fill:#e0e0e0"></path><path d="M257,344.51H76.27a5.87,5.87,0,0,1-5.87-5.86V75.37a5.87,5.87,0,0,1,5.87-5.86H257a5.87,5.87,0,0,1,5.86,5.86V338.65A5.87,5.87,0,0,1,257,344.51ZM76.27,69.76a5.62,5.62,0,0,0-5.62,5.61V338.65a5.62,5.62,0,0,0,5.62,5.61H257a5.61,5.61,0,0,0,5.61-5.61V75.37A5.61,5.61,0,0,0,257,69.76Z" style="fill:#e0e0e0"></path><rect y="405.58" width="750" height="0.12" style="fill:#e0e0e0"></rect><rect x="653.63" y="434.95" width="55.73" height="0.42" style="fill:#ebebeb"></rect><rect x="495.04" y="439.52" width="14.63" height="0.42" style="fill:#ebebeb"></rect><rect x="40.64" y="422.16" width="72.67" height="0.42" style="fill:#ebebeb"></rect><rect x="128.3" y="422.16" width="10.66" height="0.42" style="fill:#ebebeb"></rect><rect x="173.59" y="429.26" width="157.61" height="0.42" style="fill:#ebebeb"></rect><path d="M64,226.56c-.57-5.51-6.62-6.65-9.5-5.26a9.46,9.46,0,0,0-5.22,7.53,11.66,11.66,0,0,0-9.15-.49,9,9,0,0,0-5.64,7A7.36,7.36,0,0,0,38.84,243a6.26,6.26,0,0,0,7.87-3.2,9.15,9.15,0,0,0,7.38,6.43,7.94,7.94,0,0,0,8.26-4.89c3.15,1.39,6.52,2.8,9.93,2.31s6.67-3.72,5.86-7.07c-.75-3-4.27-4.52-7.4-4.77A4.27,4.27,0,1,0,64,226.56" style="fill:#e6e6e6"></path><path d="M271.28,175.87c-.56-5.5-6.62-6.64-9.5-5.26a9.48,9.48,0,0,0-5.21,7.54,11.62,11.62,0,0,0-9.15-.49,9,9,0,0,0-5.64,7,7.38,7.38,0,0,0,4.31,7.63,6.26,6.26,0,0,0,7.87-3.2,9.15,9.15,0,0,0,7.38,6.43,7.94,7.94,0,0,0,8.26-4.89c3.16,1.38,6.52,2.8,9.93,2.31s6.67-3.72,5.86-7.07c-.74-3.05-4.26-4.53-7.39-4.77a4.28,4.28,0,1,0-6.72-5.22" style="fill:#e6e6e6"></path><g id="freepik--background-complete--inject-481"><polygon points="677.86 322.57 677.86 294.03 660.2 294.03 660.2 300.54 648.42 300.54 648.42 229.26 625.78 229.26 625.78 257.32 618.99 257.32 618.99 243.31 601.32 243.31 601.32 311.63 576.41 311.63 576.41 287.49 560.79 287.49 560.79 235.15 541.51 235.15 541.51 270.04 523.39 270.04 523.39 345.21 509.35 345.21 509.35 308.61 494.86 308.61 494.86 285.06 479.46 285.06 479.46 266.97 462.28 276.04 462.28 324.41 444.16 324.41 444.16 314.43 419.96 314.43 419.96 404.28 701.67 404.42 701.67 322.57 677.86 322.57" style="fill:#f0f0f0"></polygon><rect x="545.92" y="241.33" width="5.64" height="6.46" style="fill:#fafafa"></rect><rect x="545.92" y="252.17" width="5.64" height="6.46" style="fill:#fafafa"></rect><rect x="545.92" y="263.01" width="5.64" height="6.46" style="fill:#fafafa"></rect><rect x="545.92" y="273.85" width="5.64" height="6.46" style="fill:#fafafa"></rect><rect x="545.92" y="284.69" width="5.64" height="6.46" style="fill:#fafafa"></rect><rect x="545.92" y="295.54" width="5.64" height="6.46" style="fill:#fafafa"></rect><rect x="545.92" y="306.37" width="5.64" height="6.46" style="fill:#fafafa"></rect><rect x="545.92" y="317.22" width="5.64" height="6.46" style="fill:#fafafa"></rect><rect x="630.65" y="232.68" width="5.64" height="6.46" style="fill:#fafafa"></rect><rect x="630.65" y="243.51" width="5.64" height="6.46" style="fill:#fafafa"></rect><rect x="630.65" y="254.36" width="5.64" height="6.46" style="fill:#fafafa"></rect><rect x="630.65" y="265.2" width="5.64" height="6.46" style="fill:#fafafa"></rect><rect x="630.65" y="276.04" width="5.64" height="6.46" style="fill:#fafafa"></rect><rect x="630.65" y="286.88" width="5.64" height="6.46" style="fill:#fafafa"></rect><rect x="630.65" y="297.73" width="5.64" height="6.46" style="fill:#fafafa"></rect><rect x="630.65" y="308.56" width="5.64" height="6.46" style="fill:#fafafa"></rect><path d="M526.64,404.33v-104H504.2v104Z" style="fill:#e0e0e0"></path><rect x="505.9" y="303.67" width="2.72" height="5.61" style="fill:#fafafa"></rect><rect x="511.34" y="303.67" width="2.72" height="5.61" style="fill:#fafafa"></rect><rect x="516.78" y="303.67" width="2.72" height="5.61" style="fill:#fafafa"></rect><rect x="522.22" y="303.67" width="2.72" height="5.61" style="fill:#fafafa"></rect><rect x="505.9" y="313.09" width="2.72" height="5.61" style="fill:#fafafa"></rect><rect x="511.34" y="313.09" width="2.72" height="5.61" style="fill:#fafafa"></rect><rect x="516.78" y="313.09" width="2.72" height="5.61" style="fill:#fafafa"></rect><rect x="522.22" y="313.09" width="2.72" height="5.61" style="fill:#fafafa"></rect><rect x="505.9" y="322.49" width="2.72" height="5.61" style="fill:#fafafa"></rect><rect x="511.34" y="322.49" width="2.72" height="5.61" style="fill:#fafafa"></rect><rect x="516.78" y="322.49" width="2.72" height="5.61" style="fill:#fafafa"></rect><rect x="522.22" y="322.49" width="2.72" height="5.61" style="fill:#fafafa"></rect><rect x="505.9" y="331.9" width="2.72" height="5.61" style="fill:#fafafa"></rect><rect x="511.34" y="331.9" width="2.72" height="5.61" style="fill:#fafafa"></rect><rect x="516.78" y="331.9" width="2.72" height="5.61" style="fill:#fafafa"></rect><rect x="522.22" y="331.9" width="2.72" height="5.61" style="fill:#fafafa"></rect><rect x="505.9" y="341.31" width="2.72" height="5.61" style="fill:#fafafa"></rect><rect x="511.34" y="341.31" width="2.72" height="5.61" style="fill:#fafafa"></rect><rect x="516.78" y="341.31" width="2.72" height="5.61" style="fill:#fafafa"></rect><rect x="522.22" y="341.31" width="2.72" height="5.61" style="fill:#fafafa"></rect><rect x="505.9" y="350.71" width="2.72" height="5.61" style="fill:#fafafa"></rect><rect x="511.34" y="350.71" width="2.72" height="5.61" style="fill:#fafafa"></rect><rect x="516.78" y="350.71" width="2.72" height="5.61" style="fill:#fafafa"></rect><rect x="522.22" y="350.71" width="2.72" height="5.61" style="fill:#fafafa"></rect><rect x="505.9" y="360.12" width="2.72" height="5.61" style="fill:#fafafa"></rect><rect x="511.34" y="360.12" width="2.72" height="5.61" style="fill:#fafafa"></rect><rect x="516.78" y="360.12" width="2.72" height="5.61" style="fill:#fafafa"></rect><rect x="522.22" y="360.12" width="2.72" height="5.61" style="fill:#fafafa"></rect><rect x="505.9" y="369.53" width="2.72" height="5.61" style="fill:#fafafa"></rect><rect x="511.34" y="369.53" width="2.72" height="5.61" style="fill:#fafafa"></rect><rect x="516.78" y="369.53" width="2.72" height="5.61" style="fill:#fafafa"></rect><rect x="522.22" y="369.53" width="2.72" height="5.61" style="fill:#fafafa"></rect><path d="M604.62,404.37v-116H558.09v116S604.27,404.42,604.62,404.37Z" style="fill:#e6e6e6"></path><rect x="561.59" y="292.21" width="5.64" height="6.46" style="fill:#e0e0e0"></rect><rect x="572.88" y="292.21" width="5.64" height="6.46" style="fill:#e0e0e0"></rect><rect x="584.16" y="292.21" width="5.64" height="6.46" style="fill:#e0e0e0"></rect><rect x="595.45" y="292.21" width="5.64" height="6.46" style="fill:#e0e0e0"></rect><rect x="561.59" y="303.06" width="5.64" height="6.46" style="fill:#e0e0e0"></rect><rect x="572.88" y="303.06" width="5.64" height="6.46" style="fill:#e0e0e0"></rect><rect x="584.16" y="303.06" width="5.64" height="6.46" style="fill:#e0e0e0"></rect><rect x="595.45" y="303.06" width="5.64" height="6.46" style="fill:#e0e0e0"></rect><rect x="561.59" y="313.9" width="5.64" height="6.46" style="fill:#e0e0e0"></rect><rect x="572.88" y="313.9" width="5.64" height="6.46" style="fill:#e0e0e0"></rect><rect x="584.16" y="313.9" width="5.64" height="6.46" style="fill:#e0e0e0"></rect><rect x="595.45" y="313.9" width="5.64" height="6.46" style="fill:#e0e0e0"></rect><rect x="561.59" y="324.74" width="5.64" height="6.46" style="fill:#e0e0e0"></rect><rect x="572.88" y="324.74" width="5.64" height="6.46" style="fill:#e0e0e0"></rect><rect x="584.16" y="324.74" width="5.64" height="6.46" style="fill:#e0e0e0"></rect><rect x="595.45" y="324.74" width="5.64" height="6.46" style="fill:#e0e0e0"></rect><rect x="561.59" y="335.58" width="5.64" height="6.46" style="fill:#e0e0e0"></rect><rect x="572.88" y="335.58" width="5.64" height="6.46" style="fill:#e0e0e0"></rect><rect x="584.16" y="335.58" width="5.64" height="6.46" style="fill:#e0e0e0"></rect><rect x="595.45" y="335.58" width="5.64" height="6.46" style="fill:#e0e0e0"></rect><rect x="561.59" y="346.42" width="5.64" height="6.46" style="fill:#e0e0e0"></rect><rect x="572.88" y="346.42" width="5.64" height="6.46" style="fill:#e0e0e0"></rect><rect x="584.16" y="346.42" width="5.64" height="6.46" style="fill:#e0e0e0"></rect><rect x="595.45" y="346.42" width="5.64" height="6.46" style="fill:#e0e0e0"></rect><rect x="561.59" y="357.26" width="5.64" height="6.46" style="fill:#e0e0e0"></rect><rect x="572.88" y="357.26" width="5.64" height="6.46" style="fill:#e0e0e0"></rect><rect x="584.16" y="357.26" width="5.64" height="6.46" style="fill:#e0e0e0"></rect><rect x="595.45" y="357.26" width="5.64" height="6.46" style="fill:#e0e0e0"></rect><rect x="561.59" y="368.1" width="5.64" height="6.46" style="fill:#e0e0e0"></rect><rect x="572.88" y="368.1" width="5.64" height="6.46" style="fill:#e0e0e0"></rect><rect x="584.16" y="368.1" width="5.64" height="6.46" style="fill:#e0e0e0"></rect><rect x="595.45" y="368.1" width="5.64" height="6.46" style="fill:#e0e0e0"></rect><path d="M496,404.32v-124H476.79V404.42C482.88,404.27,496,404.32,496,404.32Z" style="fill:#e6e6e6"></path><rect x="479.64" y="282.56" width="5.64" height="6.46" style="fill:#fafafa"></rect><rect x="479.64" y="293.4" width="5.64" height="6.46" style="fill:#fafafa"></rect><rect x="479.64" y="304.25" width="5.64" height="6.46" style="fill:#fafafa"></rect><rect x="479.64" y="315.09" width="5.64" height="6.46" style="fill:#fafafa"></rect><rect x="479.64" y="325.92" width="5.64" height="6.46" style="fill:#fafafa"></rect><rect x="479.64" y="336.77" width="5.64" height="6.46" style="fill:#fafafa"></rect><rect x="479.64" y="347.61" width="5.64" height="6.46" style="fill:#fafafa"></rect><rect x="479.64" y="358.45" width="5.64" height="6.46" style="fill:#fafafa"></rect><rect x="487.18" y="282.56" width="5.64" height="6.46" style="fill:#fafafa"></rect><rect x="487.18" y="293.4" width="5.64" height="6.46" style="fill:#fafafa"></rect><rect x="487.18" y="304.25" width="5.64" height="6.46" style="fill:#fafafa"></rect><rect x="487.18" y="315.09" width="5.64" height="6.46" style="fill:#fafafa"></rect><rect x="487.18" y="325.92" width="5.64" height="6.46" style="fill:#fafafa"></rect><rect x="487.18" y="336.77" width="5.64" height="6.46" style="fill:#fafafa"></rect><rect x="487.18" y="347.61" width="5.64" height="6.46" style="fill:#fafafa"></rect><rect x="487.18" y="358.45" width="5.64" height="6.46" style="fill:#fafafa"></rect><rect x="646.44" y="282.48" width="33.97" height="121.94" style="fill:#e6e6e6"></rect><rect x="651.46" y="287.52" width="9.96" height="6.46" style="fill:#fafafa"></rect><rect x="651.46" y="298.36" width="9.96" height="6.46" style="fill:#fafafa"></rect><rect x="651.46" y="309.2" width="9.96" height="6.46" style="fill:#fafafa"></rect><rect x="651.46" y="320.05" width="9.96" height="6.46" style="fill:#fafafa"></rect><rect x="651.46" y="330.88" width="9.96" height="6.46" style="fill:#fafafa"></rect><rect x="651.46" y="341.72" width="9.96" height="6.46" style="fill:#fafafa"></rect><rect x="651.46" y="352.57" width="9.96" height="6.46" style="fill:#fafafa"></rect><rect x="651.46" y="363.41" width="9.96" height="6.46" style="fill:#fafafa"></rect><rect x="664.78" y="287.52" width="9.96" height="6.46" style="fill:#fafafa"></rect><rect x="664.78" y="298.36" width="9.96" height="6.46" style="fill:#fafafa"></rect><rect x="664.78" y="309.2" width="9.96" height="6.46" style="fill:#fafafa"></rect><rect x="664.78" y="320.05" width="9.96" height="6.46" style="fill:#fafafa"></rect><rect x="664.78" y="330.88" width="9.96" height="6.46" style="fill:#fafafa"></rect><rect x="664.78" y="341.72" width="9.96" height="6.46" style="fill:#fafafa"></rect><rect x="664.78" y="352.57" width="9.96" height="6.46" style="fill:#fafafa"></rect><rect x="664.78" y="363.41" width="9.96" height="6.46" style="fill:#fafafa"></rect><path d="M624.21,404.38V313.9H609.39v90.47Z" style="fill:#e0e0e0"></path><rect x="610.52" y="316.76" width="1.8" height="4.82" style="fill:#fafafa"></rect><rect x="614.11" y="316.76" width="1.8" height="4.82" style="fill:#fafafa"></rect><rect x="617.7" y="316.76" width="1.8" height="4.82" style="fill:#fafafa"></rect><rect x="621.29" y="316.76" width="1.8" height="4.82" style="fill:#fafafa"></rect><rect x="610.52" y="324.84" width="1.8" height="4.82" style="fill:#fafafa"></rect><rect x="614.11" y="324.84" width="1.8" height="4.82" style="fill:#fafafa"></rect><rect x="617.7" y="324.84" width="1.8" height="4.82" style="fill:#fafafa"></rect><rect x="621.29" y="324.84" width="1.8" height="4.82" style="fill:#fafafa"></rect><rect x="610.52" y="332.92" width="1.8" height="4.82" style="fill:#fafafa"></rect><rect x="614.11" y="332.92" width="1.8" height="4.82" style="fill:#fafafa"></rect><rect x="617.7" y="332.92" width="1.8" height="4.82" style="fill:#fafafa"></rect><rect x="621.29" y="332.92" width="1.8" height="4.82" style="fill:#fafafa"></rect><rect x="610.52" y="341.01" width="1.8" height="4.82" style="fill:#fafafa"></rect><rect x="614.11" y="341.01" width="1.8" height="4.82" style="fill:#fafafa"></rect><rect x="617.7" y="341.01" width="1.8" height="4.82" style="fill:#fafafa"></rect><rect x="621.29" y="341.01" width="1.8" height="4.82" style="fill:#fafafa"></rect><rect x="610.52" y="349.1" width="1.8" height="4.82" style="fill:#fafafa"></rect><rect x="614.11" y="349.1" width="1.8" height="4.82" style="fill:#fafafa"></rect><rect x="617.7" y="349.1" width="1.8" height="4.82" style="fill:#fafafa"></rect><rect x="621.29" y="349.1" width="1.8" height="4.82" style="fill:#fafafa"></rect><rect x="610.52" y="357.18" width="1.8" height="4.82" style="fill:#fafafa"></rect><rect x="614.11" y="357.18" width="1.8" height="4.82" style="fill:#fafafa"></rect><rect x="617.7" y="357.18" width="1.8" height="4.82" style="fill:#fafafa"></rect><rect x="621.29" y="357.18" width="1.8" height="4.82" style="fill:#fafafa"></rect><rect x="610.52" y="365.26" width="1.8" height="4.82" style="fill:#fafafa"></rect><rect x="614.11" y="365.26" width="1.8" height="4.82" style="fill:#fafafa"></rect><rect x="617.7" y="365.26" width="1.8" height="4.82" style="fill:#fafafa"></rect><rect x="621.29" y="365.26" width="1.8" height="4.82" style="fill:#fafafa"></rect><rect x="610.52" y="373.34" width="1.8" height="4.82" style="fill:#fafafa"></rect><rect x="614.11" y="373.34" width="1.8" height="4.82" style="fill:#fafafa"></rect><rect x="617.7" y="373.34" width="1.8" height="4.82" style="fill:#fafafa"></rect><rect x="621.29" y="373.34" width="1.8" height="4.82" style="fill:#fafafa"></rect><path d="M478.51,404.42V327.31H438.89v77Z" style="fill:#fafafa"></path><rect x="441.89" y="329.71" width="4.8" height="4.04" style="fill:#e0e0e0"></rect><rect x="451.5" y="329.71" width="4.8" height="4.04" style="fill:#e0e0e0"></rect><rect x="461.1" y="329.71" width="4.8" height="4.04" style="fill:#e0e0e0"></rect><rect x="470.7" y="329.71" width="4.8" height="4.04" style="fill:#e0e0e0"></rect><rect x="441.89" y="336.49" width="4.8" height="4.04" style="fill:#e0e0e0"></rect><rect x="451.5" y="336.49" width="4.8" height="4.04" style="fill:#e0e0e0"></rect><rect x="461.1" y="336.49" width="4.8" height="4.04" style="fill:#e0e0e0"></rect><rect x="470.7" y="336.49" width="4.8" height="4.04" style="fill:#e0e0e0"></rect><rect x="441.89" y="343.27" width="4.8" height="4.04" style="fill:#e0e0e0"></rect><rect x="451.5" y="343.27" width="4.8" height="4.04" style="fill:#e0e0e0"></rect><rect x="461.1" y="343.27" width="4.8" height="4.04" style="fill:#e0e0e0"></rect><rect x="470.7" y="343.27" width="4.8" height="4.04" style="fill:#e0e0e0"></rect><rect x="441.89" y="350.05" width="4.8" height="4.04" style="fill:#e0e0e0"></rect><rect x="451.5" y="350.05" width="4.8" height="4.04" style="fill:#e0e0e0"></rect><rect x="461.1" y="350.05" width="4.8" height="4.04" style="fill:#e0e0e0"></rect><rect x="470.7" y="350.05" width="4.8" height="4.04" style="fill:#e0e0e0"></rect><rect x="441.89" y="356.82" width="4.8" height="4.04" style="fill:#e0e0e0"></rect><rect x="451.5" y="356.82" width="4.8" height="4.04" style="fill:#e0e0e0"></rect><rect x="461.1" y="356.82" width="4.8" height="4.04" style="fill:#e0e0e0"></rect><rect x="470.7" y="356.82" width="4.8" height="4.04" style="fill:#e0e0e0"></rect><rect x="441.89" y="363.6" width="4.8" height="4.04" style="fill:#e0e0e0"></rect><rect x="451.5" y="363.6" width="4.8" height="4.04" style="fill:#e0e0e0"></rect><rect x="461.1" y="363.6" width="4.8" height="4.04" style="fill:#e0e0e0"></rect><rect x="470.7" y="363.6" width="4.8" height="4.04" style="fill:#e0e0e0"></rect><rect x="441.89" y="370.38" width="4.8" height="4.04" style="fill:#e0e0e0"></rect><rect x="451.5" y="370.38" width="4.8" height="4.04" style="fill:#e0e0e0"></rect><rect x="461.1" y="370.38" width="4.8" height="4.04" style="fill:#e0e0e0"></rect><rect x="470.7" y="370.38" width="4.8" height="4.04" style="fill:#e0e0e0"></rect></g><path d="M463.16,393.13c-1.18-1.11-3.68,3.18-3.68,3.18s2.69-9.34,0-9.38-2.84,8-2.84,8-.86-15.92-4.38-14.66,1.62,15.47,1.62,15.47-4.55-10.1-6.29-8.12,4,10.44,4,10.44-4.19-2.71-3.92-.78,9.36,7,9.36,7C459.93,400.79,464.34,394.24,463.16,393.13Z" style="fill:#e6e6e6"></path><path d="M457,404.58a.25.25,0,0,1-.24-.19c0-.07-1.44-6.86-2.25-11.44a.25.25,0,0,1,.2-.29.24.24,0,0,1,.29.2c.81,4.57,2.23,11.36,2.25,11.42a.25.25,0,0,1-.2.3Z" style="fill:#e0e0e0"></path><path d="M456.1,400.09a.25.25,0,0,1-.19-.09l-2.78-3.45a.25.25,0,0,1,.39-.32l2.78,3.45a.25.25,0,0,1,0,.35A.25.25,0,0,1,456.1,400.09Z" style="fill:#e0e0e0"></path><g id="freepik--tree-1--inject-2"><path d="M213.75,333.16a3.14,3.14,0,0,0,1.71,1.19c3.55,1.43-1.11,5.88.65,6.17,2.25.38,4.89-.07,5.06,2.71a6.57,6.57,0,0,0,.2,1.33c.43,1.54,1.52,2.2,3.78,1.14,1.44-.68,1.78-1.52,3.42-1.31,1.18.15,2,.95,3.3.84a1.13,1.13,0,0,0,.51-.12,1.31,1.31,0,0,0,.39-.42c1.15-1.62,2-1,3.92-1a.73.73,0,0,0,.41-.12.66.66,0,0,0,.17-.44,4.06,4.06,0,0,0-.12-1.39,1.19,1.19,0,0,1-.08-.72c.12-.33.5-.45.81-.59a2.46,2.46,0,0,0,1.3-2c1.78.16,3.41.38,3.56,2.53a6.67,6.67,0,0,0,.2,1.34c.43,1.54,1.52,2.2,3.78,1.13,1.44-.67,1.78-1.51,3.42-1.31,1.18.16,2,1,3.3.85h.14a.46.46,0,0,0,.37.26c2.25.37,4.9-.07,5.06,2.7a6.67,6.67,0,0,0,.2,1.34c.43,1.54,1.52,2.19,3.79,1.13,1.43-.67,1.77-1.51,3.41-1.31,1.18.15,2,1,3.3.85a1.28,1.28,0,0,0,.51-.13,1.3,1.3,0,0,0,.4-.41c1.14-1.63,2-1,3.91-1a.49.49,0,0,0,.58-.55,3.62,3.62,0,0,0-.12-1.39,1.21,1.21,0,0,1-.07-.73c.11-.32.49-.44.8-.59a2.57,2.57,0,0,0,1-3.5,2.46,2.46,0,0,0-.22-.34c-.36-.41-.91-.83-.79-1.36s.94-.69,1.48-1c1.29-.68,1.12-3.17.14-4-.59-.48-1.28-1.11-1.09-1.81a4.52,4.52,0,0,0,1.93-.52c1.3-.59,1.71-1.34,3-1.33l.67.07c1.06.21,1.87.9,3.07.8h0a2.32,2.32,0,0,1,.78,1.78,6.7,6.7,0,0,0,.21,1.33c.42,1.54,1.52,2.2,3.77,1.13,1.44-.67,1.78-1.51,3.42-1.31,1.19.16,2,1,3.3.85a1.17,1.17,0,0,0,.52-.12,1.31,1.31,0,0,0,.39-.42c1.14-1.63,2-1,3.91-1.05a.6.6,0,0,0,.41-.12.61.61,0,0,0,.17-.43,3.82,3.82,0,0,0-.12-1.39,1.37,1.37,0,0,1-.08-.72c.12-.33.5-.45.81-.6a2.57,2.57,0,0,0,1-3.49,2.54,2.54,0,0,0-.23-.34c-.36-.41-.9-.83-.79-1.37s.93-.68,1.48-1c1.3-.69,1.12-3.18.14-4-.6-.5-1.34-1.18-1.08-1.88s.95-.77,1.36-1.23c.84-.92.05-2.43-.94-3.2s-2.28-1.34-2.69-2.53a3.59,3.59,0,0,0-.34-.93c-.59-.89-2-.3-2.86.34s-2.26,1.18-2.85.29c-.34-.52-.15-1.25-.47-1.78a1.5,1.5,0,0,0-1.83-.31c.23-.53.92-.72,1.32-1.18.84-.93.05-2.45-.94-3.2s-2.28-1.35-2.69-2.54a3.77,3.77,0,0,0-.34-.92c-.59-.89-2-.31-2.86.33s-2.27,1.18-2.85.29c-.35-.52-.15-1.26-.48-1.77-.54-.88-1.93-.46-2.72.21s-1.67,1.56-2.68,1.32a2.8,2.8,0,0,1-1-.59,3.11,3.11,0,0,0-.59-3.17c-.59-.5-1.33-1.18-1.08-1.88s.94-.77,1.36-1.23c.84-.92.05-2.43-.94-3.19s-2.29-1.35-2.69-2.54a4,4,0,0,0-.34-.93c-.59-.89-2-.31-2.86.33s-2.27,1.19-2.85.31c-.35-.53-.15-1.27-.48-1.78-.54-.88-1.93-.47-2.72.21s-1.67,1.56-2.68,1.32-1.41-1.18-2.3-1.32-1.68.86-1.92,1.78a10.08,10.08,0,0,1-.73,2.74c-1.35-.26-3.22-.22-3.56,1.12-.21.88.48,1.7,1,2.42s1,1.78.45,2.48a4.49,4.49,0,0,0-.89.06A.81.81,0,0,1,253,296c-.34-.52-.15-1.26-.47-1.78-.55-.89-1.93-.47-2.73.2s-1.67,1.57-2.68,1.33-1.41-1.18-2.3-1.31-1.67.85-1.92,1.77c-.16.62-.21,1.29-.38,1.91a2.22,2.22,0,0,1-.35-.64,3.77,3.77,0,0,0-.34-.92c-.59-.89-2-.31-2.85.33s-2.27,1.18-2.86.29c-.34-.52-.15-1.25-.47-1.77-.55-.89-1.94-.46-2.73.2s-1.67,1.57-2.68,1.33-1.41-1.18-2.3-1.31-1.68.84-1.92,1.77a9.55,9.55,0,0,1-.73,2.74c-1.35-.26-3.22-.21-3.55,1.13-.21.88.47,1.7,1,2.42s1,1.78.45,2.48a4.72,4.72,0,0,0-2.69.68,2,2,0,0,0-.77,2.45,3.14,3.14,0,0,0,1.71,1.19c3.55,1.43-1.11,5.88.65,6.17,2.25.38,4.89-.06,5.06,2.71h0a3.65,3.65,0,0,0-.31.24c-.79.67-1.67,1.56-2.68,1.32s-1.42-1.18-2.3-1.31-1.68.84-1.92,1.77a9.47,9.47,0,0,1-.73,2.74c-1.35-.26-3.22-.21-3.55,1.13-.21.89.47,1.7,1,2.42s1,1.78.45,2.48a4.74,4.74,0,0,0-2.7.68A2,2,0,0,0,213.75,333.16Z" style="fill:#e0e0e0"></path><path d="M279.9,347.35a3.92,3.92,0,0,1,2.24-.56c.49-.59.09-1.47-.37-2.07s-1-1.25-.86-2c.26-1.11,1.82-1.15,2.95-.93a8.74,8.74,0,0,0,.62-2.28c.22-.77.82-1.57,1.6-1.48s1.19.93,1.92,1.1,1.57-.54,2.23-1.1,1.82-.91,2.28-.18c.27.44.1,1.06.38,1.49.5.76,1.66.29,2.39-.25s1.88-1,2.38-.27a3,3,0,0,1,.28.77c.34,1,1.41,1.48,2.24,2.11s1.49,1.88.78,2.66c-.34.39-.95.54-1.13,1s.41,1.15.9,1.56c.82.7,1,2.78-.11,3.34-.46.24-1.12.32-1.26.82s.36.8.63,1.14a2.14,2.14,0,0,1-.38,3,1.67,1.67,0,0,1-.28.18c-.25.13-.57.23-.67.5a1.13,1.13,0,0,0,.06.63,3,3,0,0,1,.1,1.15.5.5,0,0,1-.13.37.6.6,0,0,1-.35.1c-1.55.07-2.3-.49-3.26.87a1.15,1.15,0,0,1-.32.34,1,1,0,0,1-.44.11c-1.07.09-1.76-.58-2.75-.7-1.35-.18-1.64.52-2.84,1.09-1.88.88-2.8.34-3.13-.95a5.83,5.83,0,0,1-.17-1.11c-.14-2.31-2.35-1.95-4.22-2.26-1.47-.24,2.41-3.94-.54-5.14a2.6,2.6,0,0,1-1.43-1A1.67,1.67,0,0,1,279.9,347.35Z" style="fill:#e0e0e0"></path><path d="M251.24,334.57l-2.42-7.66-4.7-6.05.8-.67,4.44,4.84.79-7.66h1.28s-1.05,9.1.46,12.43c0,0,5.52,14,8.87,17.07a2.84,2.84,0,0,1,.5.59,34.7,34.7,0,0,1,3.9-7.31A153,153,0,0,1,260,325.32a77,77,0,0,1-1.7-9.41l1.1-.12s3.12,14.74,8.28,21.44a20.44,20.44,0,0,1,5.13-3.45c.42-2.07.6-5.68-.77-11.3l1.09-.28a27,27,0,0,1,1.9,10.47,19.22,19.22,0,0,0,2.23-1.32c5-3.5,8.47-9.81,8.47-9.81l1,1s-4.25,9.31-10.16,12.42-9.74,10.69-10,12.68a49.19,49.19,0,0,0,.18,13,184.7,184.7,0,0,0,19.58-10.76l1.45,2-20.17,14.42c-.31,19.23,1.14,34.62,1.09,39H257c.28-6,2.76-23.81,1.66-47.27-.09-.58-.19-1.24-.29-2-.91-7.2-6.37-17-9-19.83a55.3,55.3,0,0,0-5.88-5.37l.71-1.53Z" style="fill:#e6e6e6"></path></g><g id="freepik-tree-1-inject-2"><path d="M136.81,364.69a4.83,4.83,0,0,0-2.73-.68c-.59-.72-.12-1.79.45-2.52s1.27-1.56,1.06-2.46c-.34-1.36-2.24-1.41-3.61-1.14a9.51,9.51,0,0,1-.74-2.78c-.25-.95-1.06-1.94-2-1.81s-1.45,1.13-2.34,1.34-1.91-.67-2.72-1.35a2.26,2.26,0,0,0-.31-.23h0c.17-2.83,2.85-2.37,5.13-2.76,1.79-.29-2.94-4.81.67-6.27a3.15,3.15,0,0,0,1.73-1.2,2,2,0,0,0-.78-2.5,4.89,4.89,0,0,0-2.74-.68c-.58-.72-.11-1.79.46-2.52s1.26-1.56,1.05-2.46c-.34-1.35-2.23-1.41-3.6-1.14a9.51,9.51,0,0,1-.74-2.78c-.25-.95-1-1.94-1.95-1.81s-1.45,1.13-2.34,1.34-1.92-.67-2.72-1.35-2.21-1.11-2.77-.21c-.33.53-.13,1.28-.48,1.8-.59.91-2,.35-2.9-.3s-2.3-1.24-2.9-.33a3.77,3.77,0,0,0-.34.94,2.82,2.82,0,0,1-.35.64c-.18-.62-.23-1.3-.4-1.93-.24-.94-1-1.94-1.94-1.81s-1.45,1.13-2.34,1.34-1.92-.67-2.72-1.35-2.22-1.11-2.77-.2c-.33.53-.13,1.27-.48,1.8a.92.92,0,0,1-.29.3,4.69,4.69,0,0,0-.91-.06c-.59-.71-.11-1.78.46-2.52s1.27-1.56,1.05-2.46c-.33-1.36-2.24-1.41-3.61-1.14a10.17,10.17,0,0,1-.74-2.78c-.24-.94-1-1.94-2-1.8s-1.44,1.13-2.33,1.34-1.92-.66-2.72-1.35-2.22-1.11-2.77-.21c-.33.52-.13,1.27-.48,1.8-.6.9-2,.35-2.89-.3s-2.31-1.24-2.91-.34a3.66,3.66,0,0,0-.34.94c-.42,1.21-1.72,1.81-2.73,2.58s-1.81,2.3-1,3.24c.42.47,1.17.64,1.38,1.25s-.5,1.4-1.1,1.91a3.16,3.16,0,0,0-.6,3.22,2.92,2.92,0,0,1-1,.6c-1,.24-1.92-.67-2.72-1.35s-2.22-1.11-2.77-.21c-.33.52-.13,1.27-.48,1.8-.6.91-2,.35-2.89-.3s-2.31-1.24-2.91-.33a3.41,3.41,0,0,0-.34.94c-.42,1.2-1.72,1.8-2.73,2.57s-1.81,2.3-1,3.25c.4.47,1.1.66,1.34,1.2a1.53,1.53,0,0,0-1.86.32c-.33.53-.13,1.27-.48,1.8-.59.91-2,.35-2.89-.3s-2.3-1.24-2.91-.33a3.77,3.77,0,0,0-.34.94c-.41,1.2-1.72,1.79-2.73,2.57s-1.81,2.31-1,3.25c.43.46,1.17.64,1.38,1.24s-.49,1.4-1.09,1.91c-1,.85-1.18,3.38.14,4.08.55.28,1.38.43,1.5,1s-.43,1-.8,1.39a2.61,2.61,0,0,0,.8,3.89c.32.15.7.27.82.6a1.33,1.33,0,0,1-.07.74,4,4,0,0,0-.13,1.41.66.66,0,0,0,.17.44.63.63,0,0,0,.42.12c1.9.09,2.81-.59,4,1.07a1.6,1.6,0,0,0,.4.42,1.17,1.17,0,0,0,.52.12c1.31.11,2.15-.7,3.35-.86,1.67-.21,2,.65,3.47,1.33,2.3,1.08,3.41.42,3.84-1.15a6.78,6.78,0,0,0,.21-1.35,2.33,2.33,0,0,1,.8-1.8h0c1.22.1,2.05-.6,3.12-.82l.68-.07c1.27,0,1.69.75,3,1.35a4.67,4.67,0,0,0,2,.53c.19.71-.51,1.35-1.11,1.84-1,.85-1.17,3.38.14,4.07.55.29,1.38.45,1.5,1s-.43,1-.8,1.39a2,2,0,0,0-.22.34,2.61,2.61,0,0,0,1,3.55c.31.15.7.27.82.61a1.3,1.3,0,0,1-.07.73,3.55,3.55,0,0,0-.13,1.41.66.66,0,0,0,.17.45.68.68,0,0,0,.42.11c1.9.09,2.81-.59,4,1.07a1.21,1.21,0,0,0,.39.42,1.38,1.38,0,0,0,.53.13c1.3.11,2.14-.71,3.35-.86,1.66-.21,2,.64,3.46,1.33,2.3,1.08,3.41.41,3.84-1.15a6.21,6.21,0,0,0,.21-1.36c.17-2.81,2.85-2.37,5.14-2.75a.44.44,0,0,0,.37-.26h.15c1.3.11,2.15-.7,3.35-.86,1.66-.21,2,.65,3.47,1.33,2.29,1.09,3.4.42,3.84-1.15a6.87,6.87,0,0,0,.2-1.36c.15-2.18,1.8-2.4,3.61-2.57a2.52,2.52,0,0,0,1.32,2.05c.32.15.71.27.83.6a1.44,1.44,0,0,1-.08.74,3.88,3.88,0,0,0-.13,1.4.66.66,0,0,0,.17.45.76.76,0,0,0,.42.12c1.9.08,2.82-.59,4,1.06a1.31,1.31,0,0,0,.39.42,1.12,1.12,0,0,0,.53.13c1.3.11,2.14-.7,3.35-.86,1.66-.21,2,.64,3.47,1.33,2.29,1.08,3.4.42,3.84-1.15a6.77,6.77,0,0,0,.2-1.35c.17-2.82,2.86-2.37,5.14-2.76,1.79-.29-3-4.81.66-6.26a3.25,3.25,0,0,0,1.74-1.21A2,2,0,0,0,136.81,364.69Z" style="fill:#e0e0e0"></path><path d="M97.36,354.35l1.81-5.74,3.52-4.53-.6-.5-3.32,3.62-.59-5.74h-1s.79,6.82-.34,9.32c0,0-4.13,10.51-6.65,12.78a2,2,0,0,0-.37.45,26,26,0,0,0-2.92-5.48,117.28,117.28,0,0,0,3.85-11.11,58.18,58.18,0,0,0,1.27-7.05l-.82-.09s-2.34,11-6.2,16.06a15.36,15.36,0,0,0-3.85-2.58c-.32-1.55-.45-4.25.58-8.47l-.82-.21a20.16,20.16,0,0,0-1.42,7.85,14.22,14.22,0,0,1-1.68-1,25.36,25.36,0,0,1-6.34-7.35l-.76.74s3.18,7,7.61,9.31,7.29,8,7.52,9.5a36.57,36.57,0,0,1-.13,9.7,137.84,137.84,0,0,1-14.67-8L70,367.25l15.11,10.81c.23,14.4-.85,25.94-.81,29.18h8.79c-.21-4.47-2.07-17.84-1.24-35.42.07-.43.14-.93.21-1.51.69-5.39,4.78-12.76,6.73-14.85a39.85,39.85,0,0,1,4.4-4l-.53-1.14Z" style="fill:#e6e6e6"></path></g><g id="freepik-tree-1-inject-2"><path d="M206.24,362.62a4.76,4.76,0,0,0-2.73-.69c-.59-.71-.12-1.79.46-2.52s1.26-1.56,1.05-2.46c-.34-1.35-2.24-1.41-3.61-1.14a9.83,9.83,0,0,1-.74-2.78c-.25-.94-1-1.94-1.95-1.8s-1.45,1.12-2.33,1.33-1.92-.67-2.73-1.35a3.55,3.55,0,0,0-.31-.23h0c.17-2.82,2.85-2.37,5.14-2.76,1.78-.29-3-4.81.66-6.26a3.25,3.25,0,0,0,1.74-1.21,2,2,0,0,0-.79-2.49,4.76,4.76,0,0,0-2.73-.69c-.59-.71-.12-1.79.45-2.52s1.27-1.56,1.06-2.46c-.35-1.35-2.24-1.41-3.61-1.14a9.51,9.51,0,0,1-.74-2.78c-.25-.94-1.05-1.94-1.95-1.8s-1.45,1.12-2.33,1.33c-1,.24-1.92-.67-2.73-1.35s-2.21-1.1-2.77-.21c-.33.53-.13,1.28-.48,1.81-.59.9-2,.35-2.9-.3s-2.29-1.24-2.89-.34a3.55,3.55,0,0,0-.35.94,2.41,2.41,0,0,1-.35.65c-.18-.63-.23-1.31-.39-1.94-.25-.94-1-1.94-1.95-1.8S174,326.79,173.1,327s-1.91-.67-2.72-1.34-2.21-1.11-2.77-.21c-.33.53-.13,1.28-.48,1.81a.89.89,0,0,1-.29.29,4.59,4.59,0,0,0-.91-.06c-.58-.71-.11-1.78.46-2.51s1.27-1.57,1.05-2.46c-.33-1.36-2.23-1.41-3.6-1.15a9.51,9.51,0,0,1-.74-2.78c-.25-.93-1-1.94-1.95-1.8s-1.45,1.13-2.34,1.34-1.92-.66-2.72-1.35-2.21-1.1-2.77-.21c-.33.53-.13,1.28-.48,1.81-.59.89-2,.34-2.89-.31s-2.31-1.24-2.91-.34a3.6,3.6,0,0,0-.34.95c-.42,1.2-1.72,1.8-2.73,2.57s-1.81,2.31-1,3.24c.42.47,1.17.65,1.38,1.25s-.49,1.4-1.09,1.91a3.16,3.16,0,0,0-.61,3.22,2.78,2.78,0,0,1-1,.6c-1,.24-1.92-.67-2.72-1.35s-2.21-1.1-2.77-.21c-.33.53-.13,1.28-.48,1.81-.59.9-2,.35-2.89-.3s-2.31-1.24-2.91-.34a3.91,3.91,0,0,0-.34.94c-.41,1.2-1.72,1.8-2.73,2.57s-1.81,2.31-1,3.25c.41.47,1.1.66,1.34,1.2a1.51,1.51,0,0,0-1.85.32c-.33.53-.14,1.28-.49,1.81-.59.9-2,.35-2.89-.3s-2.3-1.24-2.9-.34a3.55,3.55,0,0,0-.35.94c-.41,1.21-1.72,1.8-2.73,2.57s-1.81,2.31-1,3.25c.42.46,1.16.64,1.37,1.24s-.48,1.41-1.08,1.92c-1,.84-1.18,3.37.13,4.07.56.29,1.38.44,1.5,1s-.43,1-.8,1.39a2.88,2.88,0,0,0-.23.34,2.63,2.63,0,0,0,1,3.55c.32.14.71.27.83.6a1.4,1.4,0,0,1-.08.73,4,4,0,0,0-.13,1.42.58.58,0,0,0,.18.43.6.6,0,0,0,.41.12c1.9.09,2.82-.58,4,1.07a1.31,1.31,0,0,0,.39.42,1.38,1.38,0,0,0,.53.13c1.3.1,2.14-.71,3.35-.86,1.66-.21,2,.64,3.47,1.33,2.29,1.08,3.4.41,3.83-1.15a6.31,6.31,0,0,0,.21-1.36,2.33,2.33,0,0,1,.8-1.8h0c1.23.1,2.05-.6,3.12-.81l.68-.07c1.27,0,1.69.75,3,1.35a4.44,4.44,0,0,0,2,.52c.19.71-.51,1.35-1.11,1.84-1,.85-1.17,3.38.15,4.07.54.29,1.37.46,1.49,1s-.43,1-.8,1.38a2.46,2.46,0,0,0-.22.34,2.62,2.62,0,0,0,1,3.56c.32.15.71.27.82.6a1.25,1.25,0,0,1-.07.74,3.72,3.72,0,0,0-.13,1.41.66.66,0,0,0,.17.44.79.79,0,0,0,.42.12c1.9.08,2.82-.59,4,1.06a1.24,1.24,0,0,0,.4.42,1.18,1.18,0,0,0,.52.13c1.3.11,2.15-.71,3.35-.86,1.66-.21,2,.65,3.46,1.33,2.3,1.08,3.41.42,3.85-1.15a6.87,6.87,0,0,0,.2-1.36c.17-2.81,2.85-2.37,5.14-2.74a.5.5,0,0,0,.38-.26h.14c1.31.11,2.15-.71,3.35-.86,1.67-.21,2,.64,3.47,1.33,2.29,1.08,3.41.41,3.84-1.15a7,7,0,0,0,.2-1.36c.15-2.19,1.81-2.41,3.61-2.58a2.51,2.51,0,0,0,1.32,2.05c.32.15.71.28.83.61a1.31,1.31,0,0,1-.08.73,3.94,3.94,0,0,0-.13,1.41.66.66,0,0,0,.17.44.64.64,0,0,0,.42.12c1.9.09,2.82-.59,4,1.07a1.45,1.45,0,0,0,.4.42,1.17,1.17,0,0,0,.52.12c1.3.11,2.15-.7,3.35-.86,1.67-.21,2,.65,3.47,1.33,2.29,1.09,3.4.42,3.84-1.15a6.77,6.77,0,0,0,.2-1.35c.17-2.82,2.86-2.37,5.14-2.75,1.79-.3-3-4.81.66-6.27A3.23,3.23,0,0,0,207,365,2,2,0,0,0,206.24,362.62Z" style="fill:#e0e0e0"></path><path d="M166.79,352.27l1.81-5.74,3.53-4.53-.61-.5-3.32,3.62-.59-5.74h-1s.79,6.82-.35,9.32c0,0-4.13,10.51-6.65,12.79a2.61,2.61,0,0,0-.37.44,25.91,25.91,0,0,0-2.92-5.47,113,113,0,0,0,3.85-11.12,57.83,57.83,0,0,0,1.27-7l-.82-.09s-2.34,11-6.2,16.07a15.13,15.13,0,0,0-3.85-2.59,19.82,19.82,0,0,1,.58-8.47l-.82-.2a20.29,20.29,0,0,0-1.42,7.84,13.34,13.34,0,0,1-1.67-1,25.3,25.3,0,0,1-6.35-7.35l-.76.74s3.18,7,7.61,9.31,7.3,8,7.53,9.5a37.41,37.41,0,0,1-.14,9.7,137.84,137.84,0,0,1-14.67-8.05l-1.09,1.46L154.52,376c.24,14.41-.85,25.94-.81,29.18h8.8c-.22-4.47-2.07-17.84-1.25-35.42q.11-.64.21-1.5c.69-5.39,4.78-12.76,6.73-14.86a41.42,41.42,0,0,1,4.4-4l-.53-1.15Z" style="fill:#e6e6e6"></path></g><path d="M550.75,239.46c-.4-3.9-4.68-4.7-6.72-3.72a6.71,6.71,0,0,0-3.69,5.33,8.19,8.19,0,0,0-6.47-.35,6.37,6.37,0,0,0-4,4.95,5.23,5.23,0,0,0,3,5.39,4.44,4.44,0,0,0,5.57-2.26,6.48,6.48,0,0,0,5.22,4.55,5.64,5.64,0,0,0,5.84-3.46c2.23,1,4.61,2,7,1.63s4.72-2.63,4.15-5c-.53-2.16-3-3.2-5.23-3.37a3,3,0,1,0-4.75-3.69" style="fill:#e0e0e0"></path><path d="M490.12,148.41c-.56-5.51-6.62-6.65-9.5-5.26a9.43,9.43,0,0,0-5.21,7.54,11.6,11.6,0,0,0-9.16-.49,9,9,0,0,0-5.64,7,7.38,7.38,0,0,0,4.32,7.62,6.26,6.26,0,0,0,7.87-3.2,9.17,9.17,0,0,0,7.38,6.44,8,8,0,0,0,8.26-4.89c3.15,1.38,6.52,2.79,9.93,2.3s6.67-3.72,5.86-7.07c-.75-3-4.27-4.52-7.4-4.77a4.27,4.27,0,1,0-6.71-5.21" style="fill:#e6e6e6"></path><path d="M689.82,150.85c-.8-7.78-9.36-9.4-13.43-7.44A13.37,13.37,0,0,0,669,154.07a16.5,16.5,0,0,0-13-.69,12.71,12.71,0,0,0-8,9.89c-.55,4.41,2,9.16,6.1,10.78s9.48-.39,11.13-4.52a13,13,0,0,0,10.44,9.1,11.25,11.25,0,0,0,11.68-6.92c4.46,2,9.23,4,14,3.26s9.44-5.26,8.28-10c-1-4.32-6-6.41-10.45-6.75a6,6,0,1,0-9.5-7.38" style="fill:#e6e6e6"></path></g><g id="background-simple"><path d="M290.09,127.58C261.69,130.9,234.31,138,210,149.07c-28.63,13.07-57.88,33.45-49.24,60.09,15.95,49.19,92.46,50.09,77.18,83.17-17.3,37.46-5.7,81.41,72,93.63,147.47,23.21,325.74-112.61,275.67-187.24C554.41,152.26,440.88,109.94,290.09,127.58Z" style="fill:#407BFF"></path><path d="M290.09,127.58C261.69,130.9,234.31,138,210,149.07c-28.63,13.07-57.88,33.45-49.24,60.09,15.95,49.19,92.46,50.09,77.18,83.17-17.3,37.46-5.7,81.41,72,93.63,147.47,23.21,325.74-112.61,275.67-187.24C554.41,152.26,440.88,109.94,290.09,127.58Z" style="fill:#fff;opacity:0.9"></path></g><g id="Shadow"><path d="M632.13,471.71c0,3.39-117.57,6.14-262.6,6.14s-262.6-2.75-262.6-6.14,117.57-6.13,262.6-6.13S632.13,468.33,632.13,471.71Z" style="fill:#f5f5f5"></path></g><g id="Clouds"><path d="M464.78,209.16c-1-9.54-11.47-11.52-16.46-9.12a16.42,16.42,0,0,0-9,13.07,20.14,20.14,0,0,0-15.86-.85,15.57,15.57,0,0,0-9.77,12.12c-.67,5.4,2.41,11.21,7.47,13.21s11.62-.49,13.64-5.55a15.88,15.88,0,0,0,12.79,11.15c5.94.73,12.27-2.85,14.31-8.48,5.47,2.4,11.3,4.85,17.21,4s11.56-6.44,10.15-12.25c-1.29-5.28-7.39-7.84-12.81-8.26a7.4,7.4,0,1,0-11.63-9" style="fill:#263238"></path><g style="opacity:0.8"><path d="M464.78,209.16c-1-9.54-11.47-11.52-16.46-9.12a16.42,16.42,0,0,0-9,13.07,20.14,20.14,0,0,0-15.86-.85,15.57,15.57,0,0,0-9.77,12.12c-.67,5.4,2.41,11.21,7.47,13.21s11.62-.49,13.64-5.55a15.88,15.88,0,0,0,12.79,11.15c5.94.73,12.27-2.85,14.31-8.48,5.47,2.4,11.3,4.85,17.21,4s11.56-6.44,10.15-12.25c-1.29-5.28-7.39-7.84-12.81-8.26a7.4,7.4,0,1,0-11.63-9" style="fill:#fff"></path></g><path d="M680.55,229.32c-.8-7.75-9.32-9.36-13.37-7.41a13.33,13.33,0,0,0-7.34,10.61,16.37,16.37,0,0,0-12.88-.69,12.66,12.66,0,0,0-7.94,9.84,10.38,10.38,0,0,0,6.07,10.73c4.12,1.62,9.44-.39,11.08-4.5a12.89,12.89,0,0,0,10.38,9,11.19,11.19,0,0,0,11.63-6.88c4.44,2,9.18,3.94,14,3.25s9.39-5.24,8.24-9.95c-1-4.29-6-6.37-10.4-6.72a6,6,0,1,0-9.45-7.33" style="fill:#263238"></path><g style="opacity:0.8"><path d="M680.55,229.32c-.8-7.75-9.32-9.36-13.37-7.41a13.33,13.33,0,0,0-7.34,10.61,16.37,16.37,0,0,0-12.88-.69,12.66,12.66,0,0,0-7.94,9.84,10.38,10.38,0,0,0,6.07,10.73c4.12,1.62,9.44-.39,11.08-4.5a12.89,12.89,0,0,0,10.38,9,11.19,11.19,0,0,0,11.63-6.88c4.44,2,9.18,3.94,14,3.25s9.39-5.24,8.24-9.95c-1-4.29-6-6.37-10.4-6.72a6,6,0,1,0-9.45-7.33" style="fill:#fff"></path></g><path d="M635.05,112.62c-.8-7.78-9.36-9.4-13.43-7.44a13.37,13.37,0,0,0-7.38,10.66,16.5,16.5,0,0,0-13-.69,12.74,12.74,0,0,0-8,9.89,10.44,10.44,0,0,0,6.11,10.79c4.13,1.62,9.48-.4,11.13-4.53A13,13,0,0,0,621,140.4a11.25,11.25,0,0,0,11.68-6.92c4.46,2,9.22,4,14.05,3.26s9.43-5.26,8.28-10c-1-4.32-6-6.4-10.45-6.75a6,6,0,1,0-9.5-7.38" style="fill:#263238"></path><g style="opacity:0.8"><path d="M635.05,112.62c-.8-7.78-9.36-9.4-13.43-7.44a13.37,13.37,0,0,0-7.38,10.66,16.5,16.5,0,0,0-13-.69,12.74,12.74,0,0,0-8,9.89,10.44,10.44,0,0,0,6.11,10.79c4.13,1.62,9.48-.4,11.13-4.53A13,13,0,0,0,621,140.4a11.25,11.25,0,0,0,11.68-6.92c4.46,2,9.22,4,14.05,3.26s9.43-5.26,8.28-10c-1-4.32-6-6.4-10.45-6.75a6,6,0,1,0-9.5-7.38" style="fill:#fff"></path></g></g><g id="Birds"><path d="M228.26,137.52s.51-7.24,1.86-8.37,9.62-3.88,9.62-3.88-3.27,11.16-5.26,12.45S228.26,137.52,228.26,137.52Z" style="fill:#407BFF"></path><path d="M239.74,125.27h0c-.1.35-3.31,11.19-5.26,12.45a6.24,6.24,0,0,1-4.08.34,14.58,14.58,0,0,1-2.14-.54s.52-7.25,1.86-8.37,8.86-3.63,9.57-3.86h0Z" style="fill:#fff;opacity:0.6000000000000001"></path><path d="M224,133.17c1.88,0,6.15,2.58,7.56,2.71s8.4-5.94,9.9-6.94,14.68-3.24,14.68-3.24S247.44,137,241.5,137.31c0,0,4.39,1.54,5.68,1.13,4.06-1.06,4.85-1.49,9-1.44l-4.77,3.25,7.14,1.11a28.82,28.82,0,0,1-10,.47,42,42,0,0,1-7.85,2.73A10.55,10.55,0,0,1,230,141.8c-2.56-2.62-11-5.58-11-5.58l2.88-1.29A2.57,2.57,0,0,1,224,133.17Z" style="fill:#407BFF"></path><path d="M224,133.17c1.88,0,6.15,2.58,7.56,2.71s8.4-5.94,9.9-6.94,14.68-3.24,14.68-3.24S247.44,137,241.5,137.31c0,0,4.39,1.54,5.68,1.13,4.06-1.06,4.85-1.49,9-1.44l-4.77,3.25,7.14,1.11a28.82,28.82,0,0,1-10,.47,42,42,0,0,1-7.85,2.73A10.55,10.55,0,0,1,230,141.8c-2.56-2.62-11-5.58-11-5.58l2.88-1.29A2.57,2.57,0,0,1,224,133.17Z" style="fill:#fff;opacity:0.8"></path><polygon points="221.78 134.97 222.6 135.72 222.11 137.52 218.96 136.22 221.78 134.97" style="fill:#263238"></polygon><path d="M225.34,135.77a.7.7,0,1,1-1.37,0,.7.7,0,1,1,1.37,0Z" style="fill:#263238"></path><path d="M185.45,169c1.36-1.14,7,7,9.63,8a7.12,7.12,0,0,1-5.84.1C186.32,175.72,184,170.24,185.45,169Z" style="fill:#407BFF"></path><path d="M195.08,177a7.2,7.2,0,0,1-5.84.11c-2.92-1.37-5.23-6.87-3.79-8.07.32-.28.88,0,1.58.52C189.3,171.33,193.06,176.22,195.08,177Z" style="fill:#fff;opacity:0.6000000000000001"></path><path d="M181,167.49c1.38-.42,4.81.86,5.87.71s7.43-.73,7.43-.73c1.77-.27,3-.34,4.45-.67a33.28,33.28,0,0,1,8.78-3l-5.62,4.11,5.34-.42a21.73,21.73,0,0,1-7.32,2.26,37,37,0,0,1-5.47,3.58,7.25,7.25,0,0,1-8.18-.17c-2.18-1.56-8.74-2.3-8.74-2.3l2-1.54A2.22,2.22,0,0,1,181,167.49Z" style="fill:#407BFF"></path><path d="M181,167.49c1.38-.42,4.81.86,5.87.71s7.43-.73,7.43-.73c1.77-.27,3-.34,4.45-.67a33.28,33.28,0,0,1,8.78-3l-5.62,4.11,5.34-.42a21.73,21.73,0,0,1-7.32,2.26,37,37,0,0,1-5.47,3.58,7.25,7.25,0,0,1-8.18-.17c-2.18-1.56-8.74-2.3-8.74-2.3l2-1.54A2.22,2.22,0,0,1,181,167.49Z" style="fill:#fff;opacity:0.8"></path><polygon points="179.51 169.33 180.19 169.74 180.03 171.23 177.53 170.87 179.51 169.33" style="fill:#263238"></polygon><path d="M188.43,168.27c2.48-1.76,16.79,5.88,22.66,6.23a25.57,25.57,0,0,1-12.18,1.93C192.3,175.75,185.79,170.1,188.43,168.27Z" style="fill:#407BFF"></path><path d="M181.93,169.52a.64.64,0,0,1-.55.69.71.71,0,0,1,0-1.38A.64.64,0,0,1,181.93,169.52Z" style="fill:#263238"></path><path d="M188.43,168.27c2.48-1.76,16.79,5.88,22.66,6.23a25.57,25.57,0,0,1-12.18,1.93C192.3,175.75,185.79,170.1,188.43,168.27Z" style="fill:#fff;opacity:0.8"></path></g><g id="Sun"><g id="freepik--Sun--inject-5"><path d="M131.52,122.45c0,2.69-3.89,4.83-4.56,7.31s1.6,6.36.3,8.6-5.75,2.19-7.6,4-1.76,6.29-4,7.6-6-1-8.59-.29-4.63,4.55-7.31,4.55-4.82-3.89-7.3-4.55-6.35,1.6-8.6.29-2.19-5.75-4-7.6-6.28-1.75-7.6-4,1-6.07.3-8.62-4.55-4.61-4.55-7.3,3.89-4.82,4.55-7.3-1.59-6.36-.3-8.6,5.76-2.19,7.6-4,1.77-6.28,4-7.6,6,1,8.6.29,4.62-4.54,7.3-4.54,4.83,3.89,7.31,4.54,6.35-1.59,8.59-.29,2.19,5.75,4,7.6,6.28,1.76,7.6,4-1,6-.3,8.6S131.52,119.77,131.52,122.45Z" style="fill:#407BFF"></path><circle cx="99.72" cy="122.45" r="22.72" transform="translate(-49.89 173.01) rotate(-69.51)" style="fill:#407BFF"></circle><circle cx="99.72" cy="122.45" r="22.72" transform="translate(-49.89 173.01) rotate(-69.51)" style="fill:#fff;isolation:isolate;opacity:0.5"></circle><path d="M131.52,122.45c0,2.69-3.89,4.83-4.56,7.31s1.6,6.36.3,8.6-5.75,2.19-7.6,4-1.76,6.29-4,7.6-6-1-8.59-.29-4.63,4.55-7.31,4.55-4.82-3.89-7.3-4.55-6.35,1.6-8.6.29-2.19-5.75-4-7.6-6.28-1.75-7.6-4,1-6.07.3-8.62-4.55-4.61-4.55-7.3,3.89-4.82,4.55-7.3-1.59-6.36-.3-8.6,5.76-2.19,7.6-4,1.77-6.28,4-7.6,6,1,8.6.29,4.62-4.54,7.3-4.54,4.83,3.89,7.31,4.54,6.35-1.59,8.59-.29,2.19,5.75,4,7.6,6.28,1.76,7.6,4-1,6-.3,8.6S131.52,119.77,131.52,122.45Z" style="fill:#fff"></path></g></g><g id="Scale"><path d="M642.23,191.5c-4.4-10.16-18.91-14.81-27.68-8.05a31.45,31.45,0,0,0-56.89-4.15c-10.61-4.37-23.25-5.18-33.24.46S508.43,198.5,513,209a13.73,13.73,0,0,0-9.17,15l9.41,1.92c-.09-5.25.24-11.38,4.55-14.39,3.57-2.5,8.49-1.7,12.55-.12s8,3.88,12.35,4.15,9.36-2.5,9.5-6.86a27.2,27.2,0,0,0,48,8.16c8.91,6.57,21.61,8.34,31.32,3S646.62,201.67,642.23,191.5Z" style="fill:#263238"></path><g style="opacity:0.6000000000000001"><path d="M642.23,191.5c-4.4-10.16-18.91-14.81-27.68-8.05a31.45,31.45,0,0,0-56.89-4.15c-10.61-4.37-23.25-5.18-33.24.46S508.43,198.5,513,209a13.73,13.73,0,0,0-9.17,15l9.41,1.92c-.09-5.25.24-11.38,4.55-14.39,3.57-2.5,8.49-1.7,12.55-.12s8,3.88,12.35,4.15,9.36-2.5,9.5-6.86a27.2,27.2,0,0,0,48,8.16c8.91,6.57,21.61,8.34,31.32,3S646.62,201.67,642.23,191.5Z" style="fill:#fff"></path></g><path d="M584.83,279.76V264.09l-28.46,15.67V264.09L524.56,281.6v51.65h88.73V264.09Zm-42.71,31.9h-6.66V305h6.66Zm0-10h-6.66V295h6.66Zm9.57,10H545V305h6.66Zm0-10H545V295h6.66Zm15.79,10h-6.67V305h6.66Zm0-10h-6.67V295h6.66Zm9.57,10h-6.66V305h6.66Zm0-10h-6.66V295h6.66Zm15.79,10h-6.66V305h6.66Zm0-10h-6.66V295h6.66Zm9.58,10h-6.66V305h6.66Zm0-10h-6.66V295h6.66Z" style="fill:#407BFF"></path><polygon points="516.29 333.25 496.7 333.25 499.37 220.16 513.62 220.16 516.29 333.25" style="fill:#407BFF"></polygon><polygon points="499.09 232.05 498.78 244.82 514.04 238.15 513.75 225.64 499.09 232.05" style="opacity:0.4"></polygon><polygon points="497.84 285 497.54 297.76 515.27 290.01 514.97 277.5 497.84 285" style="opacity:0.4"></polygon><polygon points="515.59 303.43 497.21 311.46 496.91 324.23 515.88 315.93 515.59 303.43" style="opacity:0.4"></polygon><polygon points="498.46 258.53 498.17 271.29 514.65 264.08 514.36 251.57 498.46 258.53" style="opacity:0.4"></polygon><path d="M630.56,334.06a1,1,0,0,1-.93-.62l-89.9-225L468.11,332.57a1,1,0,1,1-1.9-.61l72.47-226.79a1,1,0,0,1,.91-.69,1,1,0,0,1,1,.63l90.93,227.58a1,1,0,0,1-.56,1.3A1,1,0,0,1,630.56,334.06Z" style="fill:#263238"></path><path d="M630.56,334.06a1,1,0,0,1-.93-.62l-89.9-225L468.11,332.57a1,1,0,1,1-1.9-.61l72.47-226.79a1,1,0,0,1,.91-.69,1,1,0,0,1,1,.63l90.93,227.58a1,1,0,0,1-.56,1.3A1,1,0,0,1,630.56,334.06Z" style="fill:#fff;opacity:0.7000000000000001"></path><path d="M467.14,332.44c0,33.6,37.47,60.83,83.69,60.83s83.68-27.23,83.68-60.83Z" style="fill:#263238"></path><path d="M467.14,332.44c0,33.6,37.47,60.83,83.69,60.83s83.68-27.23,83.68-60.83Z" style="fill:#fff;opacity:0.7000000000000001"></path><path d="M266,334.42a1,1,0,0,1-.93-.63l-89.89-225L103.39,332.58a1,1,0,0,1-1.9-.62L174.1,105.53a1,1,0,0,1,.92-.69,1,1,0,0,1,1,.63l90.93,227.58a1,1,0,0,1-.56,1.3A.94.94,0,0,1,266,334.42Z"></path><path d="M266,334.42a1,1,0,0,1-.93-.63l-89.89-225L103.39,332.58a1,1,0,0,1-1.9-.62L174.1,105.53a1,1,0,0,1,.92-.69,1,1,0,0,1,1,.63l90.93,227.58a1,1,0,0,1-.56,1.3A.94.94,0,0,1,266,334.42Z" style="fill:#fff;opacity:0.7000000000000001"></path><g id="freepik-tree-1-inject-2"><path d="M180.74,272.23a5.09,5.09,0,0,0-2.88-.72c-.62-.75-.12-1.89.48-2.65s1.34-1.64,1.11-2.59c-.35-1.42-2.35-1.48-3.8-1.2a10.38,10.38,0,0,1-.77-2.92c-.26-1-1.11-2-2-1.9s-1.53,1.18-2.46,1.4c-1.08.26-2-.7-2.86-1.42l-.33-.24h0c.17-3,3-2.5,5.4-2.9,1.88-.31-3.1-5.06.7-6.59a3.36,3.36,0,0,0,1.82-1.27,2.14,2.14,0,0,0-.82-2.62,5,5,0,0,0-2.88-.73c-.62-.75-.12-1.88.48-2.65s1.33-1.64,1.11-2.58c-.36-1.43-2.35-1.49-3.8-1.21a10.38,10.38,0,0,1-.77-2.92c-.26-1-1.1-2-2-1.9s-1.53,1.18-2.46,1.41-2-.71-2.87-1.42-2.32-1.17-2.91-.22c-.34.55-.13,1.34-.5,1.9-.63.94-2.13.36-3-.32s-2.42-1.3-3.05-.35a3.51,3.51,0,0,0-.36,1,2.58,2.58,0,0,1-.38.69c-.18-.66-.24-1.38-.41-2-.26-1-1.1-2-2-1.9s-1.52,1.19-2.45,1.4-2-.7-2.87-1.41-2.33-1.17-2.91-.22c-.35.56-.14,1.34-.5,1.9a.92.92,0,0,1-.31.31,5.11,5.11,0,0,0-.95-.06c-.62-.75-.12-1.88.48-2.65s1.33-1.64,1.1-2.59c-.35-1.43-2.35-1.48-3.79-1.2a10.4,10.4,0,0,1-.78-2.92c-.26-1-1.1-2-2-1.9s-1.53,1.19-2.46,1.41c-1.08.25-2-.69-2.86-1.42s-2.33-1.16-2.91-.22c-.35.55-.14,1.34-.51,1.9-.62.94-2.11.36-3-.32s-2.43-1.3-3.06-.36a4,4,0,0,0-.36,1c-.44,1.26-1.81,1.9-2.87,2.71s-1.91,2.42-1,3.41c.45.49,1.23.67,1.45,1.31s-.52,1.47-1.15,2a3.3,3.3,0,0,0-.63,3.38,3,3,0,0,1-1.1.64c-1.08.25-2-.71-2.86-1.42s-2.33-1.17-2.91-.22c-.35.55-.14,1.34-.51,1.9-.63.94-2.11.36-3-.32s-2.43-1.3-3.06-.36a4.06,4.06,0,0,0-.36,1c-.44,1.27-1.81,1.9-2.87,2.71s-1.91,2.42-1,3.42c.42.49,1.16.69,1.41,1.26a1.59,1.59,0,0,0-2,.34c-.35.55-.14,1.34-.51,1.9-.63.94-2.11.36-3-.32S89.65,248,89,249a4,4,0,0,0-.36,1c-.44,1.26-1.81,1.88-2.87,2.7s-1.91,2.43-1,3.42c.44.48,1.23.67,1.45,1.31s-.51,1.47-1.14,2c-1,.88-1.24,3.55.14,4.28.58.31,1.45.46,1.58,1s-.46,1-.84,1.46a2.92,2.92,0,0,0-.24.37,2.74,2.74,0,0,0,1.08,3.73c.33.15.74.28.86.63a1.35,1.35,0,0,1-.08.77,4.15,4.15,0,0,0-.13,1.49.67.67,0,0,0,.18.46.76.76,0,0,0,.44.13c2,.08,3-.62,4.18,1.12a1.6,1.6,0,0,0,.42.44,1.31,1.31,0,0,0,.55.13c1.37.11,2.26-.74,3.52-.9,1.76-.23,2.12.67,3.65,1.39,2.41,1.14,3.59.44,4-1.2a7.73,7.73,0,0,0,.22-1.43,2.48,2.48,0,0,1,.84-1.9h0c1.28.11,2.15-.62,3.27-.85l.72-.08c1.33,0,1.78.79,3.16,1.43a4.94,4.94,0,0,0,2.06.55c.21.74-.53,1.42-1.16,1.93-1,.9-1.23,3.56.15,4.29.58.3,1.45.47,1.58,1s-.46,1-.84,1.46a2.25,2.25,0,0,0-.24.36,2.75,2.75,0,0,0,1.08,3.74c.33.16.74.28.86.63a1.39,1.39,0,0,1-.08.78,3.89,3.89,0,0,0-.13,1.48.69.69,0,0,0,.18.47.68.68,0,0,0,.44.12c2,.09,3-.62,4.18,1.12a1.26,1.26,0,0,0,.42.44,1.49,1.49,0,0,0,.55.14c1.37.11,2.26-.75,3.52-.91,1.75-.22,2.12.68,3.65,1.4,2.42,1.14,3.59.44,4-1.21a7.48,7.48,0,0,0,.22-1.43c.17-3,3-2.49,5.41-2.89a.45.45,0,0,0,.39-.27h.15c1.37.11,2.26-.74,3.53-.9,1.75-.23,2.11.67,3.65,1.39,2.41,1.14,3.58.44,4-1.2a7,7,0,0,0,.22-1.43c.16-2.31,1.9-2.54,3.79-2.71a2.66,2.66,0,0,0,1.4,2.16c.33.15.74.28.86.63a1.35,1.35,0,0,1-.08.77,4.1,4.1,0,0,0-.13,1.48.69.69,0,0,0,.18.47.76.76,0,0,0,.44.13c2,.08,3-.62,4.18,1.12a1.6,1.6,0,0,0,.42.44,1.31,1.31,0,0,0,.55.13c1.37.11,2.26-.74,3.52-.9,1.76-.23,2.12.67,3.65,1.39,2.41,1.14,3.58.44,4-1.2a7.73,7.73,0,0,0,.22-1.43c.17-3,3-2.49,5.41-2.9,1.87-.31-3.11-5.06.69-6.59a3.35,3.35,0,0,0,1.82-1.26A2.15,2.15,0,0,0,180.74,272.23Z" style="fill:#407BFF"></path><path d="M110.85,289.92a4.17,4.17,0,0,0-2.39-.61c-.52-.63-.1-1.56.4-2.21s1.11-1.34.92-2.15c-.28-1.19-2-1.23-3.15-1a9,9,0,0,1-.67-2.44c-.23-.81-.87-1.67-1.71-1.57s-1.27,1-2,1.17-1.68-.58-2.38-1.18-1.94-1-2.43-.19c-.29.47-.11,1.14-.42,1.6-.52.8-1.76.3-2.54-.27s-2-1.08-2.54-.29a3.38,3.38,0,0,0-.31.82c-.36,1.06-1.49,1.58-2.39,2.26s-1.59,2-.83,2.84c.37.41,1,.58,1.2,1.09.23.67-.43,1.24-1,1.68-.88.74-1,3,.12,3.57.48.25,1.19.33,1.33.87s-.37.85-.66,1.21a2.29,2.29,0,0,0,.4,3.22,1.89,1.89,0,0,0,.3.19c.27.14.61.24.71.54a1.1,1.1,0,0,1-.06.67,3.41,3.41,0,0,0-.11,1.23.58.58,0,0,0,.15.39.67.67,0,0,0,.37.11c1.66.07,2.46-.52,3.48.93a1.2,1.2,0,0,0,.35.36,1,1,0,0,0,.46.12c1.14.09,1.89-.62,2.94-.75,1.44-.19,1.75.56,3,1.16,2,.95,3,.37,3.35-1a5.91,5.91,0,0,0,.18-1.18c.15-2.47,2.5-2.09,4.51-2.42,1.56-.26-2.58-4.21.57-5.49a2.77,2.77,0,0,0,1.53-1.06A1.78,1.78,0,0,0,110.85,289.92Z" style="fill:#407BFF"></path><path d="M180.74,272.23a5.09,5.09,0,0,0-2.88-.72c-.62-.75-.12-1.89.48-2.65s1.34-1.64,1.11-2.59c-.35-1.42-2.35-1.48-3.8-1.2a10.38,10.38,0,0,1-.77-2.92c-.26-1-1.11-2-2-1.9s-1.53,1.18-2.46,1.4c-1.08.26-2-.7-2.86-1.42l-.33-.24h0c.17-3,3-2.5,5.4-2.9,1.88-.31-3.1-5.06.7-6.59a3.36,3.36,0,0,0,1.82-1.27,2.14,2.14,0,0,0-.82-2.62,5,5,0,0,0-2.88-.73c-.62-.75-.12-1.88.48-2.65s1.33-1.64,1.11-2.58c-.36-1.43-2.35-1.49-3.8-1.21a10.38,10.38,0,0,1-.77-2.92c-.26-1-1.1-2-2-1.9s-1.53,1.18-2.46,1.41-2-.71-2.87-1.42-2.32-1.17-2.91-.22c-.34.55-.13,1.34-.5,1.9-.63.94-2.13.36-3-.32s-2.42-1.3-3.05-.35a3.51,3.51,0,0,0-.36,1,2.58,2.58,0,0,1-.38.69c-.18-.66-.24-1.38-.41-2-.26-1-1.1-2-2-1.9s-1.52,1.19-2.45,1.4-2-.7-2.87-1.41-2.33-1.17-2.91-.22c-.35.56-.14,1.34-.5,1.9a.92.92,0,0,1-.31.31,5.11,5.11,0,0,0-.95-.06c-.62-.75-.12-1.88.48-2.65s1.33-1.64,1.1-2.59c-.35-1.43-2.35-1.48-3.79-1.2a10.4,10.4,0,0,1-.78-2.92c-.26-1-1.1-2-2-1.9s-1.53,1.19-2.46,1.41c-1.08.25-2-.69-2.86-1.42s-2.33-1.16-2.91-.22c-.35.55-.14,1.34-.51,1.9-.62.94-2.11.36-3-.32s-2.43-1.3-3.06-.36a4,4,0,0,0-.36,1c-.44,1.26-1.81,1.9-2.87,2.71s-1.91,2.42-1,3.41c.45.49,1.23.67,1.45,1.31s-.52,1.47-1.15,2a3.3,3.3,0,0,0-.63,3.38,3,3,0,0,1-1.1.64c-1.08.25-2-.71-2.86-1.42s-2.33-1.17-2.91-.22c-.35.55-.14,1.34-.51,1.9-.63.94-2.11.36-3-.32s-2.43-1.3-3.06-.36a4.06,4.06,0,0,0-.36,1c-.44,1.27-1.81,1.9-2.87,2.71s-1.91,2.42-1,3.42c.42.49,1.16.69,1.41,1.26a1.59,1.59,0,0,0-2,.34c-.35.55-.14,1.34-.51,1.9-.63.94-2.11.36-3-.32S89.65,248,89,249a4,4,0,0,0-.36,1c-.44,1.26-1.81,1.88-2.87,2.7s-1.91,2.43-1,3.42c.44.48,1.23.67,1.45,1.31s-.51,1.47-1.14,2c-1,.88-1.24,3.55.14,4.28.58.31,1.45.46,1.58,1s-.46,1-.84,1.46a2.92,2.92,0,0,0-.24.37,2.74,2.74,0,0,0,1.08,3.73c.33.15.74.28.86.63a1.35,1.35,0,0,1-.08.77,4.15,4.15,0,0,0-.13,1.49.67.67,0,0,0,.18.46.76.76,0,0,0,.44.13c2,.08,3-.62,4.18,1.12a1.6,1.6,0,0,0,.42.44,1.31,1.31,0,0,0,.55.13c1.37.11,2.26-.74,3.52-.9,1.76-.23,2.12.67,3.65,1.39,2.41,1.14,3.59.44,4-1.2a7.73,7.73,0,0,0,.22-1.43,2.48,2.48,0,0,1,.84-1.9h0c1.28.11,2.15-.62,3.27-.85l.72-.08c1.33,0,1.78.79,3.16,1.43a4.94,4.94,0,0,0,2.06.55c.21.74-.53,1.42-1.16,1.93-1,.9-1.23,3.56.15,4.29.58.3,1.45.47,1.58,1s-.46,1-.84,1.46a2.25,2.25,0,0,0-.24.36,2.75,2.75,0,0,0,1.08,3.74c.33.16.74.28.86.63a1.39,1.39,0,0,1-.08.78,3.89,3.89,0,0,0-.13,1.48.69.69,0,0,0,.18.47.68.68,0,0,0,.44.12c2,.09,3-.62,4.18,1.12a1.26,1.26,0,0,0,.42.44,1.49,1.49,0,0,0,.55.14c1.37.11,2.26-.75,3.52-.91,1.75-.22,2.12.68,3.65,1.4,2.42,1.14,3.59.44,4-1.21a7.48,7.48,0,0,0,.22-1.43c.17-3,3-2.49,5.41-2.89a.45.45,0,0,0,.39-.27h.15c1.37.11,2.26-.74,3.53-.9,1.75-.23,2.11.67,3.65,1.39,2.41,1.14,3.58.44,4-1.2a7,7,0,0,0,.22-1.43c.16-2.31,1.9-2.54,3.79-2.71a2.66,2.66,0,0,0,1.4,2.16c.33.15.74.28.86.63a1.35,1.35,0,0,1-.08.77,4.1,4.1,0,0,0-.13,1.48.69.69,0,0,0,.18.47.76.76,0,0,0,.44.13c2,.08,3-.62,4.18,1.12a1.6,1.6,0,0,0,.42.44,1.31,1.31,0,0,0,.55.13c1.37.11,2.26-.74,3.52-.9,1.76-.23,2.12.67,3.65,1.39,2.41,1.14,3.58.44,4-1.2a7.73,7.73,0,0,0,.22-1.43c.17-3,3-2.49,5.41-2.9,1.87-.31-3.11-5.06.69-6.59a3.35,3.35,0,0,0,1.82-1.26A2.15,2.15,0,0,0,180.74,272.23Z" style="opacity:0.2"></path><g style="opacity:0.2"><path d="M110.85,289.92a4.17,4.17,0,0,0-2.39-.61c-.52-.63-.1-1.56.4-2.21s1.11-1.34.92-2.15c-.28-1.19-2-1.23-3.15-1a9,9,0,0,1-.67-2.44c-.23-.81-.87-1.67-1.71-1.57s-1.27,1-2,1.17-1.68-.58-2.38-1.18-1.94-1-2.43-.19c-.29.47-.11,1.14-.42,1.6-.52.8-1.76.3-2.54-.27s-2-1.08-2.54-.29a3.38,3.38,0,0,0-.31.82c-.36,1.06-1.49,1.58-2.39,2.26s-1.59,2-.83,2.84c.37.41,1,.58,1.2,1.09.23.67-.43,1.24-1,1.68-.88.74-1,3,.12,3.57.48.25,1.19.33,1.33.87s-.37.85-.66,1.21a2.29,2.29,0,0,0,.4,3.22,1.89,1.89,0,0,0,.3.19c.27.14.61.24.71.54a1.1,1.1,0,0,1-.06.67,3.41,3.41,0,0,0-.11,1.23.58.58,0,0,0,.15.39.67.67,0,0,0,.37.11c1.66.07,2.46-.52,3.48.93a1.2,1.2,0,0,0,.35.36,1,1,0,0,0,.46.12c1.14.09,1.89-.62,2.94-.75,1.44-.19,1.75.56,3,1.16,2,.95,3,.37,3.35-1a5.91,5.91,0,0,0,.18-1.18c.15-2.47,2.5-2.09,4.51-2.42,1.56-.26-2.58-4.21.57-5.49a2.77,2.77,0,0,0,1.53-1.06A1.78,1.78,0,0,0,110.85,289.92Z"></path></g><path d="M141.47,276.26l2.58-8.18,5-6.46-.86-.72-4.74,5.17-.84-8.18h-1.38s1.13,9.72-.49,13.28c0,0-5.89,15-9.48,18.23a2.86,2.86,0,0,0-.52.63,37.8,37.8,0,0,0-4.17-7.81,162.09,162.09,0,0,0,5.49-15.84,85.33,85.33,0,0,0,1.82-10.05l-1.18-.13s-3.33,15.74-8.84,22.9a21.64,21.64,0,0,0-5.49-3.68c-.44-2.22-.63-6.06.83-12.07l-1.16-.3a28.62,28.62,0,0,0-2,11.19,19.79,19.79,0,0,1-2.39-1.42c-5.31-3.73-9-10.48-9-10.48l-1.09,1.06s4.53,10,10.84,13.27,10.41,11.42,10.74,13.54c.09.61.82,5.42-.2,13.84A196.17,196.17,0,0,1,104,292.56l-1.55,2.09L124,310.06c.33,20.54-1.22,37-1.16,41.6h12.54c-.31-6.37-3-25.43-1.78-50.5.1-.61.21-1.32.31-2.14,1-7.69,6.81-18.19,9.59-21.18a56.83,56.83,0,0,1,6.28-5.73l-.77-1.64Z" style="fill:#263238"></path></g><g id="freepik--wind-turbines--inject-85"><path d="M223.44,221.2H220l-3.37,125.06a2.35,2.35,0,0,0,2.29,2.41h5.52a2.35,2.35,0,0,0,2.35-2.34v-.07Z" style="fill:#407BFF"></path><path d="M221.9,220.16h0a1.75,1.75,0,0,1-1.75-1.74h0V178.8a4.57,4.57,0,0,1,4.56-4.57h0a4.57,4.57,0,0,1,4.57,4.57,3.63,3.63,0,0,1-.05.65l-5.6,39.2A1.77,1.77,0,0,1,221.9,220.16Z" style="fill:#407BFF"></path><path d="M223,222h0a1.75,1.75,0,0,0,.56,2.41h0l33.73,20.75a4.56,4.56,0,0,0,6.28-1.49h0a4.58,4.58,0,0,0-1.51-6.29,4.25,4.25,0,0,0-.56-.29L225.2,221.31A1.74,1.74,0,0,0,223,222Z" style="fill:#407BFF"></path><path d="M220.45,222h0a1.75,1.75,0,0,1-.56,2.41h0l-33.73,20.75a4.56,4.56,0,0,1-6.28-1.49h0a4.57,4.57,0,0,1,1.49-6.28,3.55,3.55,0,0,1,.58-.3l36.32-15.78A1.75,1.75,0,0,1,220.45,222Z" style="fill:#407BFF"></path><g style="opacity:0.5"><path d="M219,260.65v.75c1,.08,2,.12,2.83.12s1.75,0,2.74-.12v-.73c-.81.07-1.71.1-2.72.1S219.8,260.73,219,260.65Z"></path><path d="M224.69,267.8l-.12-4.5c-.8.07-1.72.12-2.78.12s-2.07-.05-2.89-.13l-.13,4.51c1,.08,2,.11,3,.11S223.73,267.88,224.69,267.8Z"></path></g><path d="M226.93,223.25a5.2,5.2,0,1,1-5.2-5.2A5.2,5.2,0,0,1,226.93,223.25Z" style="fill:#407BFF"></path></g><path d="M226.93,223.25a5.2,5.2,0,1,1-5.2-5.2A5.2,5.2,0,0,1,226.93,223.25Z" style="opacity:0.4"></path><g id="freepik-wind-turbines-inject-85"><path d="M153.21,183.57h-4.44l-4.38,162.77a3,3,0,0,0,3,3.13h7.19a3,3,0,0,0,3.06-3.05v-.08Z" style="fill:#407BFF"></path><path d="M151.21,182.21h0a2.26,2.26,0,0,1-2.28-2.26h0V128.39a5.94,5.94,0,0,1,5.94-5.94h0a5.93,5.93,0,0,1,5.94,5.94,6.18,6.18,0,0,1-.06.85l-7.29,51A2.27,2.27,0,0,1,151.21,182.21Z" style="fill:#407BFF"></path><path d="M152.66,184.61h0a2.27,2.27,0,0,0,.73,3.13h0l43.9,27a5.94,5.94,0,0,0,8.17-1.94h0a6,6,0,0,0-2-8.18,6.31,6.31,0,0,0-.73-.38l-47.27-20.53A2.27,2.27,0,0,0,152.66,184.61Z" style="fill:#407BFF"></path><path d="M149.32,184.61h0a2.26,2.26,0,0,1-.73,3.13h0l-43.9,27a5.94,5.94,0,0,1-8.17-1.94h0a5.94,5.94,0,0,1,2-8.17,5.34,5.34,0,0,1,.75-.39l47.27-20.53A2.27,2.27,0,0,1,149.32,184.61Z" style="fill:#407BFF"></path><g style="opacity:0.5"><path d="M147.39,234.92v1c1.34.11,2.65.16,3.69.16s2.28,0,3.57-.16v-.95c-1.07.09-2.23.14-3.54.14S148.48,235,147.39,234.92Z"></path><path d="M154.84,244.22l-.15-5.86c-1.05.1-2.25.17-3.63.17s-2.69-.08-3.76-.18l-.17,5.86c1.31.11,2.64.16,3.93.16S153.58,244.32,154.84,244.22Z"></path></g><path d="M157.75,186.24a6.76,6.76,0,1,1-6.76-6.76A6.76,6.76,0,0,1,157.75,186.24Z" style="fill:#407BFF"></path></g><g id="freepik-tree-1-inject-2"><path d="M148.29,305.74a3,3,0,0,0,1.57,1.09c3.27,1.31-1,5.4.6,5.67,2.06.34,4.49-.06,4.65,2.49a6.3,6.3,0,0,0,.18,1.22c.39,1.42,1.4,2,3.47,1,1.32-.62,1.63-1.39,3.14-1.2,1.09.14,1.85.87,3,.78a1.21,1.21,0,0,0,.47-.12,1.19,1.19,0,0,0,.36-.38c1.05-1.5,1.88-.89,3.6-1a.73.73,0,0,0,.38-.11.6.6,0,0,0,.15-.4,3.69,3.69,0,0,0-.11-1.28,1.15,1.15,0,0,1-.07-.66c.11-.3.45-.41.74-.54a2.27,2.27,0,0,0,1.2-1.86c1.63.15,3.13.35,3.26,2.33a6.42,6.42,0,0,0,.19,1.23c.39,1.41,1.4,2,3.47,1,1.32-.62,1.63-1.4,3.14-1.2,1.09.14,1.85.87,3,.77h.13a.39.39,0,0,0,.34.24c2.07.34,4.49-.06,4.65,2.48a6.29,6.29,0,0,0,.18,1.23c.39,1.42,1.4,2,3.48,1,1.31-.62,1.63-1.39,3.13-1.2,1.09.14,1.85.87,3,.78a1.21,1.21,0,0,0,.47-.12,1.19,1.19,0,0,0,.36-.38c1.05-1.5,1.88-.89,3.6-1a.58.58,0,0,0,.38-.1.59.59,0,0,0,.15-.4,3.26,3.26,0,0,0-.11-1.28,1.15,1.15,0,0,1-.07-.66c.11-.3.46-.41.74-.55a2.38,2.38,0,0,0,.73-3.52c-.34-.38-.84-.76-.73-1.25s.86-.64,1.36-.9c1.19-.63,1-2.92.13-3.68-.55-.45-1.18-1-1-1.67a4.06,4.06,0,0,0,1.77-.47c1.19-.55,1.57-1.24,2.72-1.23l.61.07c1,.19,1.72.83,2.82.73h0a2.15,2.15,0,0,1,.73,1.64,6.3,6.3,0,0,0,.18,1.22c.39,1.41,1.4,2,3.47,1,1.33-.62,1.64-1.39,3.14-1.2,1.09.14,1.85.87,3,.77a1.13,1.13,0,0,0,.48-.11,1.27,1.27,0,0,0,.35-.38c1-1.5,1.88-.89,3.6-1a.65.65,0,0,0,.38-.11.59.59,0,0,0,.15-.4,3.69,3.69,0,0,0-.11-1.28,1.15,1.15,0,0,1-.07-.66c.11-.3.46-.42.74-.55a2.34,2.34,0,0,0,.93-3.2,3.45,3.45,0,0,0-.2-.32c-.33-.38-.84-.76-.73-1.25s.86-.63,1.36-.89c1.19-.64,1-2.93.12-3.69-.54-.46-1.22-1.08-1-1.73s.86-.7,1.24-1.12c.78-.85.05-2.24-.86-2.94s-2.09-1.23-2.47-2.32a3.28,3.28,0,0,0-.31-.86c-.54-.81-1.83-.28-2.63.31s-2.08,1.09-2.61.27c-.32-.48-.14-1.15-.44-1.63a1.37,1.37,0,0,0-1.68-.29c.22-.49.85-.66,1.21-1.09.78-.85.05-2.24-.86-2.94s-2.1-1.24-2.47-2.32A3.45,3.45,0,0,0,218,275c-.55-.82-1.83-.29-2.63.3s-2.08,1.09-2.62.27c-.31-.47-.13-1.15-.43-1.63-.5-.81-1.77-.42-2.5.19s-1.54,1.44-2.47,1.22a2.6,2.6,0,0,1-.94-.54,2.84,2.84,0,0,0-.54-2.91c-.55-.47-1.23-1.09-1-1.73s.86-.71,1.24-1.13c.78-.85.05-2.24-.86-2.93s-2.1-1.24-2.47-2.33a3.21,3.21,0,0,0-.31-.85c-.55-.82-1.83-.29-2.63.3s-2.08,1.09-2.62.28c-.31-.48-.13-1.16-.43-1.63-.5-.81-1.77-.43-2.5.19s-1.54,1.43-2.47,1.22-1.29-1.09-2.11-1.22-1.54.79-1.76,1.63a8.84,8.84,0,0,1-.67,2.52c-1.24-.24-3-.2-3.26,1-.2.81.43,1.56.95,2.23s.95,1.63.41,2.27a4.57,4.57,0,0,0-.82,0,.72.72,0,0,1-.26-.26c-.32-.48-.14-1.16-.44-1.63-.5-.82-1.77-.43-2.5.18s-1.53,1.44-2.46,1.22-1.3-1.09-2.11-1.21-1.54.78-1.77,1.63c-.14.57-.19,1.19-.35,1.75a2.33,2.33,0,0,1-.32-.58,3.21,3.21,0,0,0-.31-.85c-.54-.82-1.83-.28-2.62.3s-2.09,1.09-2.62.28c-.32-.48-.14-1.16-.44-1.64-.5-.81-1.77-.42-2.5.19s-1.54,1.44-2.47,1.22-1.29-1.09-2.11-1.21-1.54.78-1.76,1.64a8.69,8.69,0,0,1-.67,2.51c-1.24-.24-2.95-.19-3.26,1-.19.82.43,1.57.95,2.23s1,1.63.41,2.28a4.32,4.32,0,0,0-2.47.62,1.85,1.85,0,0,0-.71,2.26,2.88,2.88,0,0,0,1.57,1.08c3.27,1.32-1,5.4.6,5.67,2.07.35,4.5-.06,4.65,2.49h0l-.29.21c-.72.62-1.53,1.44-2.46,1.22s-1.3-1.08-2.11-1.2-1.54.77-1.76,1.63a9,9,0,0,1-.67,2.51c-1.24-.24-3-.19-3.27,1-.19.82.44,1.57,1,2.23s.94,1.63.41,2.28a4.33,4.33,0,0,0-2.48.62A1.85,1.85,0,0,0,148.29,305.74Z" style="fill:#407BFF"></path><path d="M148.29,305.74a3,3,0,0,0,1.57,1.09c3.27,1.31-1,5.4.6,5.67,2.06.34,4.49-.06,4.65,2.49a6.3,6.3,0,0,0,.18,1.22c.39,1.42,1.4,2,3.47,1,1.32-.62,1.63-1.39,3.14-1.2,1.09.14,1.85.87,3,.78a1.21,1.21,0,0,0,.47-.12,1.19,1.19,0,0,0,.36-.38c1.05-1.5,1.88-.89,3.6-1a.73.73,0,0,0,.38-.11.6.6,0,0,0,.15-.4,3.69,3.69,0,0,0-.11-1.28,1.15,1.15,0,0,1-.07-.66c.11-.3.45-.41.74-.54a2.27,2.27,0,0,0,1.2-1.86c1.63.15,3.13.35,3.26,2.33a6.42,6.42,0,0,0,.19,1.23c.39,1.41,1.4,2,3.47,1,1.32-.62,1.63-1.4,3.14-1.2,1.09.14,1.85.87,3,.77h.13a.39.39,0,0,0,.34.24c2.07.34,4.49-.06,4.65,2.48a6.29,6.29,0,0,0,.18,1.23c.39,1.42,1.4,2,3.48,1,1.31-.62,1.63-1.39,3.13-1.2,1.09.14,1.85.87,3,.78a1.21,1.21,0,0,0,.47-.12,1.19,1.19,0,0,0,.36-.38c1.05-1.5,1.88-.89,3.6-1a.58.58,0,0,0,.38-.1.59.59,0,0,0,.15-.4,3.26,3.26,0,0,0-.11-1.28,1.15,1.15,0,0,1-.07-.66c.11-.3.46-.41.74-.55a2.38,2.38,0,0,0,.73-3.52c-.34-.38-.84-.76-.73-1.25s.86-.64,1.36-.9c1.19-.63,1-2.92.13-3.68-.55-.45-1.18-1-1-1.67a4.06,4.06,0,0,0,1.77-.47c1.19-.55,1.57-1.24,2.72-1.23l.61.07c1,.19,1.72.83,2.82.73h0a2.15,2.15,0,0,1,.73,1.64,6.3,6.3,0,0,0,.18,1.22c.39,1.41,1.4,2,3.47,1,1.33-.62,1.64-1.39,3.14-1.2,1.09.14,1.85.87,3,.77a1.13,1.13,0,0,0,.48-.11,1.27,1.27,0,0,0,.35-.38c1-1.5,1.88-.89,3.6-1a.65.65,0,0,0,.38-.11.59.59,0,0,0,.15-.4,3.69,3.69,0,0,0-.11-1.28,1.15,1.15,0,0,1-.07-.66c.11-.3.46-.42.74-.55a2.34,2.34,0,0,0,.93-3.2,3.45,3.45,0,0,0-.2-.32c-.33-.38-.84-.76-.73-1.25s.86-.63,1.36-.89c1.19-.64,1-2.93.12-3.69-.54-.46-1.22-1.08-1-1.73s.86-.7,1.24-1.12c.78-.85.05-2.24-.86-2.94s-2.09-1.23-2.47-2.32a3.28,3.28,0,0,0-.31-.86c-.54-.81-1.83-.28-2.63.31s-2.08,1.09-2.61.27c-.32-.48-.14-1.15-.44-1.63a1.37,1.37,0,0,0-1.68-.29c.22-.49.85-.66,1.21-1.09.78-.85.05-2.24-.86-2.94s-2.1-1.24-2.47-2.32A3.45,3.45,0,0,0,218,275c-.55-.82-1.83-.29-2.63.3s-2.08,1.09-2.62.27c-.31-.47-.13-1.15-.43-1.63-.5-.81-1.77-.42-2.5.19s-1.54,1.44-2.47,1.22a2.6,2.6,0,0,1-.94-.54,2.84,2.84,0,0,0-.54-2.91c-.55-.47-1.23-1.09-1-1.73s.86-.71,1.24-1.13c.78-.85.05-2.24-.86-2.93s-2.1-1.24-2.47-2.33a3.21,3.21,0,0,0-.31-.85c-.55-.82-1.83-.29-2.63.3s-2.08,1.09-2.62.28c-.31-.48-.13-1.16-.43-1.63-.5-.81-1.77-.43-2.5.19s-1.54,1.43-2.47,1.22-1.29-1.09-2.11-1.22-1.54.79-1.76,1.63a8.84,8.84,0,0,1-.67,2.52c-1.24-.24-3-.2-3.26,1-.2.81.43,1.56.95,2.23s.95,1.63.41,2.27a4.57,4.57,0,0,0-.82,0,.72.72,0,0,1-.26-.26c-.32-.48-.14-1.16-.44-1.63-.5-.82-1.77-.43-2.5.18s-1.53,1.44-2.46,1.22-1.3-1.09-2.11-1.21-1.54.78-1.77,1.63c-.14.57-.19,1.19-.35,1.75a2.33,2.33,0,0,1-.32-.58,3.21,3.21,0,0,0-.31-.85c-.54-.82-1.83-.28-2.62.3s-2.09,1.09-2.62.28c-.32-.48-.14-1.16-.44-1.64-.5-.81-1.77-.42-2.5.19s-1.54,1.44-2.47,1.22-1.29-1.09-2.11-1.21-1.54.78-1.76,1.64a8.69,8.69,0,0,1-.67,2.51c-1.24-.24-2.95-.19-3.26,1-.19.82.43,1.57.95,2.23s1,1.63.41,2.28a4.32,4.32,0,0,0-2.47.62,1.85,1.85,0,0,0-.71,2.26,2.88,2.88,0,0,0,1.57,1.08c3.27,1.32-1,5.4.6,5.67,2.07.35,4.5-.06,4.65,2.49h0l-.29.21c-.72.62-1.53,1.44-2.46,1.22s-1.3-1.08-2.11-1.2-1.54.77-1.76,1.63a9,9,0,0,1-.67,2.51c-1.24-.24-3-.19-3.27,1-.19.82.44,1.57,1,2.23s.94,1.63.41,2.28a4.33,4.33,0,0,0-2.48.62A1.85,1.85,0,0,0,148.29,305.74Z" style="opacity:0.4"></path><path d="M178.06,295.81l-1.67-5.31-3.26-4.18.56-.47,3.07,3.35.55-5.3h.89s-.73,6.3.32,8.6c0,0,3.81,9.71,6.14,11.81a2.31,2.31,0,0,1,.34.42,23.65,23.65,0,0,1,2.7-5.06,106.32,106.32,0,0,1-3.56-10.27,55.16,55.16,0,0,1-1.18-6.51l.76-.08s2.16,10.19,5.73,14.83a14.21,14.21,0,0,1,3.56-2.38,18.27,18.27,0,0,0-.54-7.82l.76-.2a18.63,18.63,0,0,1,1.31,7.25,12.16,12.16,0,0,0,1.55-.92,23.29,23.29,0,0,0,5.86-6.78l.7.68s-2.94,6.45-7,8.6-6.74,7.4-7,8.77a34.21,34.21,0,0,0,.13,9,128.78,128.78,0,0,0,13.55-7.44l1,1.35-13.95,10c-.22,13.31.78,24,.75,27H182c.2-4.13,1.91-16.48,1.15-32.72-.06-.4-.13-.86-.2-1.39-.63-5-4.41-11.79-6.21-13.72a38.32,38.32,0,0,0-4.07-3.72l.5-1.06Z" style="fill:#263238"></path></g><path d="M157.75,186.24a6.76,6.76,0,1,1-6.76-6.76A6.76,6.76,0,0,1,157.75,186.24Z" style="opacity:0.4"></path><path d="M99.72,332.27c0,33.59,37.47,60.83,83.69,60.83s83.69-27.24,83.69-60.83Z" style="fill:#263238"></path><path d="M99.72,332.27c0,33.59,37.47,60.83,83.69,60.83s83.69-27.24,83.69-60.83Z" style="fill:#fff;opacity:0.7000000000000001"></path><polygon points="386.12 434.25 352.94 434.25 365.13 37.67 377.67 37.67 386.12 434.25" style="fill:#263238"></polygon><polygon points="386.12 434.25 352.94 434.25 365.13 37.67 377.67 37.67 386.12 434.25" style="fill:#fff;opacity:0.7000000000000001"></polygon><path d="M463.53,469.55H277a35.3,35.3,0,0,1,35.3-35.3H428.23a35.3,35.3,0,0,1,35.3,35.3Z" style="fill:#263238"></path><path d="M463.53,469.55H277a35.3,35.3,0,0,1,35.3-35.3H428.23a35.3,35.3,0,0,1,35.3,35.3Z" style="fill:#fff;opacity:0.7000000000000001"></path><path d="M570.64,105.48H168.42A15.46,15.46,0,0,1,183.88,90h371.3a15.46,15.46,0,0,1,15.46,15.46Z" style="fill:#263238"></path><polygon points="363.05 105.48 362.76 115.02 379.32 115.02 379.32 105.48 363.05 105.48" style="opacity:0.30000000000000004"></polygon><g style="opacity:0.30000000000000004"><path d="M364.81,46a6.83,6.83,0,0,0,13.45-.81Z"></path></g><circle cx="372.02" cy="35.52" r="12.54" transform="translate(77.66 265.77) rotate(-43.49)" style="fill:#263238"></circle><circle cx="372.02" cy="35.52" r="12.54" transform="translate(77.66 265.77) rotate(-43.49)" style="fill:#fff;opacity:0.7000000000000001"></circle><polygon points="352.94 434.25 386.12 434.25 385.92 424.84 352.94 424.84 352.94 434.25" style="opacity:0.30000000000000004"></polygon><g style="opacity:0.7000000000000001"><path d="M570.64,105.48H168.42A15.46,15.46,0,0,1,183.88,90h371.3a15.46,15.46,0,0,1,15.46,15.46Z" style="fill:#fff"></path></g></g><g id="Plant"><path d="M456,442.51a16.25,16.25,0,0,0-3.76-3.87,4.56,4.56,0,0,0-4.34-.81c-1.81.75-2.65,3-2.4,4.92a15.54,15.54,0,0,0,2.29,6c4.73,6.91,9.1,13.24,16.39,18.39C464.18,458.58,460.36,449.83,456,442.51Z" style="fill:#407BFF"></path><path d="M480.05,443.7c-1.63-.89-4.66.37-6.15,1.49a22.68,22.68,0,0,0-6.55,7.74c-2.28,4.09-2.54,9.83-2.83,13.47,5.77-4.68,11.65-9.49,15.6-15.79a8.46,8.46,0,0,0,1.46-3.57A3.42,3.42,0,0,0,480.05,443.7Z" style="fill:#407BFF"></path><path d="M465,470.74a.24.24,0,0,1-.24-.2,56.33,56.33,0,0,0-7.22-17.84.25.25,0,0,1,.43-.26,56.69,56.69,0,0,1,7.27,18,.25.25,0,0,1-.19.3Z" style="fill:#263238"></path><path d="M464.28,467.21l-.09,0a.25.25,0,0,1-.15-.32,38.77,38.77,0,0,1,6.71-11.66.25.25,0,1,1,.38.32A38.53,38.53,0,0,0,464.51,467,.25.25,0,0,1,464.28,467.21Z" style="fill:#263238"></path></g><g id="Character"><polygon points="342.53 442.38 334.88 463.03 327.95 460.79 330.34 438.99 342.53 442.38" style="fill:#e9b376"></polygon><path d="M335.63,471.71l-6.29,0a4.64,4.64,0,0,0-2-.6c-.75.08-3.34.56-3.34.56l-16.69-.13a14.33,14.33,0,0,1,.5-1.87,8.35,8.35,0,0,1,.8-1.72,4.73,4.73,0,0,1,4-2.36c2.34-.13,9.73-5,9.73-5a4.38,4.38,0,0,0,2.84-3.76,3.6,3.6,0,0,1,2.4-2.45c1.53-.21,2.37.76,2.58,2.29l.24,1.78,3.53-.53s3.6-1.77,3.42,0c-.11,1-.75,5.45-1.15,9-.1.82-.19,1.6-.26,2.28h0C335.75,470.67,335.63,471.71,335.63,471.71Z" style="fill:#263238"></path><g style="opacity:0.2"><path d="M307.3,471.5l16.69.13s2.59-.48,3.34-.56a4.64,4.64,0,0,1,2,.6l6.29,0s.12-1,.29-2.56l-28.12.48A14.33,14.33,0,0,0,307.3,471.5Z" style="fill:#fff"></path></g><path d="M318.65,462.36a.24.24,0,0,1,.29,0,2.89,2.89,0,0,1,1,1.16c.12.26-.25.5-.38.24a2.54,2.54,0,0,0-.86-1,.22.22,0,0,1,0-.35Z" style="fill:#407BFF"></path><path d="M320,461.59a.24.24,0,0,1,.29,0,2.87,2.87,0,0,1,1,1.16c.13.25-.25.5-.37.24a2.6,2.6,0,0,0-.87-1,.23.23,0,0,1,0-.35Z" style="fill:#407BFF"></path><path d="M321.36,460.87a.24.24,0,0,1,.29,0,2.89,2.89,0,0,1,1,1.16c.12.25-.25.5-.38.24a2.43,2.43,0,0,0-.87-1,.24.24,0,0,1,0-.36Z" style="fill:#407BFF"></path><polygon points="392.46 438.7 395.52 461.17 402.84 461.54 405.21 439.88 392.46 438.7" style="fill:#e9b376"></polygon><path d="M409.08,471.6H392.7a4.06,4.06,0,0,1,.05-2.51,9.7,9.7,0,0,1,.25-.95.43.43,0,0,0,0-.05c.16-.5.33-1.13.52-1.8.75-2.74,1.63-6.33,1.63-6.33s2.73-5.83,5.92-4.37c2.79,1.28,2.13,4.93,2.13,4.93a7.16,7.16,0,0,0,2.39,4c1.32,1.17,2.62,2.08,3.25,3.53a4.75,4.75,0,0,1,.27.88.5.5,0,0,1,0,.12A6.72,6.72,0,0,1,409.08,471.6Z" style="fill:#263238"></path><g style="opacity:0.2"><path d="M392.75,469.09a4.06,4.06,0,0,0-.05,2.51h16.38a6.72,6.72,0,0,0,.06-2.51Z" style="fill:#fff"></path></g><path d="M402.55,461.44a2.21,2.21,0,0,0-3,.18.24.24,0,0,1-.34-.34,2.69,2.69,0,0,1,3.64-.18c.25.19-.1.53-.34.34Z" style="fill:#407BFF"></path><path d="M403,463a2.21,2.21,0,0,0-3,.18.24.24,0,0,1-.34-.34,2.69,2.69,0,0,1,3.64-.18c.25.19-.09.53-.34.34Z" style="fill:#407BFF"></path><path d="M403.48,464.38a2.2,2.2,0,0,0-3,.18c-.22.22-.57-.12-.34-.34a2.69,2.69,0,0,1,3.64-.19c.24.2-.1.54-.34.35Z" style="fill:#407BFF"></path><path d="M408.32,296.18l-34.3.3-21.52-.66S337.38,361,336.1,373.25s-12.3,76.88-12.3,76.88l16.73,3.68s19-69.09,20.4-75.73c1.2-5.78,14.42-42.88,17.8-52.31.34,1.93.69,3.87,1,5.8.85,8.69,3.59,36.42,4.79,46.74,0,0,2.59,58.94,5.59,76.06l15.75,0c2.08-24.3,3.42-109.65,3.42-109.65h0C410.48,326.21,408.32,296.18,408.32,296.18Z" style="fill:#263238"></path><g style="opacity:0.5"><path d="M361.33,305.57a20.81,20.81,0,0,1-13.94,13.77.29.29,0,0,0,.15.56,21.42,21.42,0,0,0,14.35-14.18.29.29,0,0,0-.56-.15Z"></path><path d="M379.29,305.56q-.59,8.64-1.16,17.27c0,.37-.59.37-.57,0,.2-2.95.39-5.91.59-8.87-1.42,1.09-3.08-.23-3.54-1.7a14.31,14.31,0,0,1,.12-7.57.29.29,0,0,1,.55.15,16.49,16.49,0,0,0-.47,5.09,6.93,6.93,0,0,0,.55,2.67c.45.9,1.6,1.65,2.52.84a.3.3,0,0,1,.31-.05c.17-2.6.35-5.22.53-7.83C378.73,305.19,379.31,305.19,379.29,305.56Z"></path><path d="M396.2,306.54a14.52,14.52,0,0,0,13.38,14.61c.36,0,.36-.54,0-.57a13.94,13.94,0,0,1-12.81-14,.29.29,0,0,0-.57,0Z"></path><path d="M399.92,380.91a10.59,10.59,0,0,0,7.28,0c.34-.12.19-.67-.16-.54a10.07,10.07,0,0,1-7-.05c-.34-.12-.49.43-.15.55Z"></path></g><path d="M327.19,287.56c.31.26,9.22-17.7,9.22-17.7l.62-34s16.35,6.13,16,6.47.05,21.43-3.95,32.39c-3.34,9.18-6.55,11.49-18.83,23.91Z" style="fill:#e9b376"></path><path d="M342.44,212c7.5.07,11.39,12.63,11.73,45.25l-20.88-2.13s-.39-14.42-.45-24.32C334,213.77,342.44,212,342.44,212Z" style="fill:#407BFF"></path><path d="M345.53,210.7c4.64-1.29,23.07-7.16,43.1-7.38l15.57,68.92s3.24,13.53,4.78,24.14c-18.45,12-44.78,15.19-59.27,9.92.21.29-.67-7.93-1.91-20-2.2-21.24-5.52-54.36-6.05-73.76C341.74,212.08,345.06,210.83,345.53,210.7Z" style="fill:#407BFF"></path><polygon points="344.52 252.91 342.58 228.86 340.81 255.88 344.87 256.29 344.52 252.91" style="isolation:isolate;opacity:0.2"></polygon><polygon points="395.27 245.1 394.24 245.46 386.46 227.56 392.68 248.19 396.15 248.02 395.27 245.1" style="isolation:isolate;opacity:0.2"></polygon><path d="M371.72,205.12s-2-5.53-.75-16.11l-.58-.16c.17-1.48.38-2.86.6-4.06v0l-12.38,10.83c.87,3.17.75,9.6.49,12.34,0,0-.94,5.06,5.43,4.21C369.19,211.51,371.72,205.12,371.72,205.12Z" style="fill:#e9b376"></path><path d="M359.13,200.15l7.65-3.11c-.31,2.59-2,5.88-7.5,7A24.85,24.85,0,0,0,359.13,200.15Z" style="opacity:0.2"></path><path d="M370,178c.53,8.9,1,13.91-2.92,18.95-5.91,7.58-17.06,4.92-20.25-3.67-2.86-7.74-3.24-21,5-25.48A12.3,12.3,0,0,1,370,178Z" style="fill:#e9b376"></path><path d="M367.45,165.38c-3.75-5.07-11.65-1.41-14.76,1.49-.46.43,7.21,3.19,6.75,3.08l2.33,2.22c.33-.11.77,3,1.15,5.63a13.58,13.58,0,0,0,2.89,6.67,34.68,34.68,0,0,0,5.09,5.17c2.9-1.88,2.43-7.27,3-10.58C374.79,174.12,375.32,164.79,367.45,165.38Z" style="fill:#263238"></path><path d="M374.36,185a8.36,8.36,0,0,1-3.56,5.38c-2.48,1.63-3.81-1.14-3.9-3.95-.08-2.53.28-5.68,3.14-6.18S374.86,182.27,374.36,185Z" style="fill:#e9b376"></path><path d="M357.64,182.11c.11.91-.28,1.69-.87,1.76s-1.17-.62-1.28-1.52.29-1.69.88-1.76S357.53,181.21,357.64,182.11Z" style="fill:#263238"></path><path d="M348.79,183.36c.11.91-.28,1.69-.87,1.76s-1.17-.61-1.28-1.52.29-1.69.88-1.76S348.68,182.46,348.79,183.36Z" style="fill:#263238"></path><path d="M351.62,182.51s-2.32,4.84-3,6.78c1.4,1,3.5.2,3.5.2Z" style="fill:#d58745"></path><path d="M359.33,177.58a.42.42,0,0,1-.43,0,3.47,3.47,0,0,0-3.07-.32.44.44,0,0,1-.58-.2.42.42,0,0,1,.2-.56,4.27,4.27,0,0,1,3.89.36.42.42,0,0,1,.15.58A.33.33,0,0,1,359.33,177.58Z" style="fill:#263238"></path><path d="M355.42,192.39a.38.38,0,0,1-.05-.75,4.89,4.89,0,0,0,3.28-2.13.37.37,0,0,1,.58.47,5.71,5.71,0,0,1-3.77,2.41Z" style="fill:#263238"></path><path d="M368.33,186.16a.25.25,0,0,1-.25-.25,4.74,4.74,0,0,1,.61-2.33,3,3,0,0,1,1.5-1.4,1.86,1.86,0,0,1,2.05.43.24.24,0,0,1,0,.35.25.25,0,0,1-.35,0,1.37,1.37,0,0,0-1.49-.3,2.58,2.58,0,0,0-1.25,1.18,4.26,4.26,0,0,0-.54,2.09.25.25,0,0,1-.24.25Z" style="opacity:0.2"></path><path d="M344.42,180a.46.46,0,0,1-.23-.09.42.42,0,0,1-.07-.6,4.18,4.18,0,0,1,3.5-1.65.43.43,0,0,1,.39.46.43.43,0,0,1-.46.39,3.27,3.27,0,0,0-2.77,1.33A.41.41,0,0,1,344.42,180Z" style="fill:#263238"></path><path d="M367.45,165.38a15.08,15.08,0,0,0-14.51-5.53c-7.69,1.25-12,6.5-12.53,11.78a10.78,10.78,0,0,0,.68,5.23,1.09,1.09,0,0,0,2-.06,5.51,5.51,0,0,1,.36-.78,1.42,1.42,0,0,0,.08.18,1.1,1.1,0,0,0,2.07-.35,5.8,5.8,0,0,1,.19-1v0a1.1,1.1,0,0,0,2-.23,7.9,7.9,0,0,1,10.8-4.63l3.13,2.16C365.66,170.25,367.45,165.38,367.45,165.38Z" style="fill:#263238"></path><polygon points="354.24 209.05 358.98 205.14 362.61 209.79 370.96 201.61 375.2 204.61 368.35 216.39 359.64 215.59 354.24 209.05" style="fill:#407BFF"></polygon><path d="M366.16,240.85a4.09,4.09,0,0,0-2.4-.09c-.62-.5-.42-1.48-.07-2.19s.79-1.52.45-2.23c-.53-1.07-2.12-.78-3.22-.32a8.67,8.67,0,0,1-1.11-2.19c-.37-.74-1.22-1.43-1.94-1.16s-1,1.19-1.71,1.53-1.72-.22-2.51-.65l-.31-.14h0c-.35-2.38,2-2.48,3.8-3.2,1.44-.56-3.31-3.5-.55-5.35a2.77,2.77,0,0,0,1.24-1.31,1.74,1.74,0,0,0-1.1-1.94,4.1,4.1,0,0,0-2.4-.09c-.62-.5-.41-1.48-.07-2.19s.78-1.52.45-2.24c-.53-1.07-2.12-.78-3.22-.31a8.65,8.65,0,0,1-1.1-2.19c-.38-.75-1.22-1.43-1.95-1.16s-1,1.19-1.71,1.52-1.72-.21-2.51-.64-2.05-.53-2.35.31c-.18.5.12,1.09-.08,1.59-.34.86-1.63.65-2.47.27s-2.14-.63-2.48.23a3,3,0,0,0-.12.84,2.24,2.24,0,0,1-.18.61c-.26-.5-.43-1-.67-1.55-.37-.74-1.22-1.43-1.95-1.16s-1,1.2-1.71,1.52-1.72-.21-2.51-.64-2-.53-2.35.32c-.18.5.12,1.09-.08,1.59a.8.8,0,0,1-.19.3,3.41,3.41,0,0,0-.77.11c-.61-.49-.41-1.47-.06-2.18s.78-1.53.45-2.24c-.53-1.08-2.12-.78-3.22-.32a8.78,8.78,0,0,1-1.11-2.18c-.37-.74-1.21-1.44-1.94-1.17s-1,1.2-1.71,1.54-1.72-.22-2.51-.65-2-.53-2.35.32c-.18.49.12,1.08-.08,1.59-.34.85-1.62.64-2.47.25s-2.14-.63-2.48.23a3.12,3.12,0,0,0-.12.85c-.14,1.08-1.12,1.81-1.83,2.63s-1.1,2.24-.22,2.88c.43.31,1.08.33,1.37.79s-.17,1.26-.58,1.79a2.67,2.67,0,0,0,.07,2.79,2.39,2.39,0,0,1-.76.69c-.82.38-1.72-.22-2.52-.64s-2-.54-2.34.31c-.19.49.11,1.09-.08,1.59-.34.86-1.62.65-2.47.26s-2.14-.63-2.49.23a4.05,4.05,0,0,0-.12.85c-.13,1.07-1.11,1.81-1.82,2.63s-1.1,2.24-.22,2.88c.42.32,1,.35,1.33.76a1.32,1.32,0,0,0-1.5.6c-.18.5.12,1.08-.08,1.59-.34.86-1.61.64-2.47.26s-2.14-.63-2.48.23a3.06,3.06,0,0,0-.12.85c-.13,1.08-1.12,1.8-1.82,2.62s-1.11,2.25-.23,2.88c.43.32,1.09.33,1.37.8s-.16,1.25-.57,1.79c-.68.88-.39,3,.83,3.37.52.14,1.23.12,1.43.56s-.19.88-.42,1.3a2.26,2.26,0,0,0-.13.33,2.23,2.23,0,0,0,1.48,2.78c.29.06.64.1.8.35a1.13,1.13,0,0,1,.06.63,3.47,3.47,0,0,0,.14,1.2.54.54,0,0,0,.23.34.52.52,0,0,0,.37,0c1.6-.26,2.24-1,3.5.19a1.07,1.07,0,0,0,.41.28,1,1,0,0,0,.46,0c1.1-.14,1.66-1,2.64-1.31,1.35-.47,1.79.19,3.13.5,2.1.5,2.91-.26,3-1.64a5.61,5.61,0,0,0-.07-1.16,2,2,0,0,1,.35-1.65h0c1-.13,1.6-.85,2.46-1.22l.55-.18c1.06-.24,1.54.32,2.75.59a3.89,3.89,0,0,0,1.73.09c.28.56-.19,1.22-.6,1.74-.68.88-.38,3,.84,3.37.51.14,1.23.13,1.42.56s-.19.89-.42,1.3a3.05,3.05,0,0,0-.13.32,2.24,2.24,0,0,0,1.49,2.79c.28.07.63.1.79.36a1.12,1.12,0,0,1,.07.63,3.19,3.19,0,0,0,.14,1.19.57.57,0,0,0,.22.34.59.59,0,0,0,.37,0c1.6-.27,2.25-1,3.51.18a1,1,0,0,0,.4.28,1,1,0,0,0,.46,0c1.11-.14,1.67-1,2.65-1.31,1.34-.47,1.79.18,3.12.5,2.11.49,2.92-.26,3-1.64a6.57,6.57,0,0,0-.07-1.17c-.36-2.38,2-2.48,3.8-3.2a.4.4,0,0,0,.27-.28l.12,0c1.11-.14,1.67-1,2.64-1.31,1.35-.47,1.79.18,3.13.5,2.11.5,2.92-.26,3-1.64a5.75,5.75,0,0,0-.07-1.17c-.26-1.85,1.08-2.33,2.56-2.79a2.11,2.11,0,0,0,1.47,1.48c.29.07.63.1.79.36a1.1,1.1,0,0,1,.06.62,3.47,3.47,0,0,0,.15,1.2.49.49,0,0,0,.22.34.58.58,0,0,0,.37,0c1.6-.27,2.24-1,3.5.18a1.28,1.28,0,0,0,.41.29,1.19,1.19,0,0,0,.46,0c1.11-.14,1.67-1,2.64-1.31,1.36-.47,1.79.18,3.13.5,2.11.49,2.92-.26,3-1.64a5.11,5.11,0,0,0-.07-1.17c-.35-2.38,2-2.48,3.81-3.2,1.44-.57-3.32-3.5-.56-5.35a2.77,2.77,0,0,0,1.24-1.31A1.75,1.75,0,0,0,366.16,240.85Z" style="fill:#407BFF"></path><path d="M366.16,240.85a4.09,4.09,0,0,0-2.4-.09c-.62-.5-.42-1.48-.07-2.19s.79-1.52.45-2.23c-.53-1.07-2.12-.78-3.22-.32a8.67,8.67,0,0,1-1.11-2.19c-.37-.74-1.22-1.43-1.94-1.16s-1,1.19-1.71,1.53-1.72-.22-2.51-.65l-.31-.14h0c-.35-2.38,2-2.48,3.8-3.2,1.44-.56-3.31-3.5-.55-5.35a2.77,2.77,0,0,0,1.24-1.31,1.74,1.74,0,0,0-1.1-1.94,4.1,4.1,0,0,0-2.4-.09c-.62-.5-.41-1.48-.07-2.19s.78-1.52.45-2.24c-.53-1.07-2.12-.78-3.22-.31a8.65,8.65,0,0,1-1.1-2.19c-.38-.75-1.22-1.43-1.95-1.16s-1,1.19-1.71,1.52-1.72-.21-2.51-.64-2.05-.53-2.35.31c-.18.5.12,1.09-.08,1.59-.34.86-1.63.65-2.47.27s-2.14-.63-2.48.23a3,3,0,0,0-.12.84,2.24,2.24,0,0,1-.18.61c-.26-.5-.43-1-.67-1.55-.37-.74-1.22-1.43-1.95-1.16s-1,1.2-1.71,1.52-1.72-.21-2.51-.64-2-.53-2.35.32c-.18.5.12,1.09-.08,1.59a.8.8,0,0,1-.19.3,3.41,3.41,0,0,0-.77.11c-.61-.49-.41-1.47-.06-2.18s.78-1.53.45-2.24c-.53-1.08-2.12-.78-3.22-.32a8.78,8.78,0,0,1-1.11-2.18c-.37-.74-1.21-1.44-1.94-1.17s-1,1.2-1.71,1.54-1.72-.22-2.51-.65-2-.53-2.35.32c-.18.49.12,1.08-.08,1.59-.34.85-1.62.64-2.47.25s-2.14-.63-2.48.23a3.12,3.12,0,0,0-.12.85c-.14,1.08-1.12,1.81-1.83,2.63s-1.1,2.24-.22,2.88c.43.31,1.08.33,1.37.79s-.17,1.26-.58,1.79a2.67,2.67,0,0,0,.07,2.79,2.39,2.39,0,0,1-.76.69c-.82.38-1.72-.22-2.52-.64s-2-.54-2.34.31c-.19.49.11,1.09-.08,1.59-.34.86-1.62.65-2.47.26s-2.14-.63-2.49.23a4.05,4.05,0,0,0-.12.85c-.13,1.07-1.11,1.81-1.82,2.63s-1.1,2.24-.22,2.88c.42.32,1,.35,1.33.76a1.32,1.32,0,0,0-1.5.6c-.18.5.12,1.08-.08,1.59-.34.86-1.61.64-2.47.26s-2.14-.63-2.48.23a3.06,3.06,0,0,0-.12.85c-.13,1.08-1.12,1.8-1.82,2.62s-1.11,2.25-.23,2.88c.43.32,1.09.33,1.37.8s-.16,1.25-.57,1.79c-.68.88-.39,3,.83,3.37.52.14,1.23.12,1.43.56s-.19.88-.42,1.3a2.26,2.26,0,0,0-.13.33,2.23,2.23,0,0,0,1.48,2.78c.29.06.64.1.8.35a1.13,1.13,0,0,1,.06.63,3.47,3.47,0,0,0,.14,1.2.54.54,0,0,0,.23.34.52.52,0,0,0,.37,0c1.6-.26,2.24-1,3.5.19a1.07,1.07,0,0,0,.41.28,1,1,0,0,0,.46,0c1.1-.14,1.66-1,2.64-1.31,1.35-.47,1.79.19,3.13.5,2.1.5,2.91-.26,3-1.64a5.61,5.61,0,0,0-.07-1.16,2,2,0,0,1,.35-1.65h0c1-.13,1.6-.85,2.46-1.22l.55-.18c1.06-.24,1.54.32,2.75.59a3.89,3.89,0,0,0,1.73.09c.28.56-.19,1.22-.6,1.74-.68.88-.38,3,.84,3.37.51.14,1.23.13,1.42.56s-.19.89-.42,1.3a3.05,3.05,0,0,0-.13.32,2.24,2.24,0,0,0,1.49,2.79c.28.07.63.1.79.36a1.12,1.12,0,0,1,.07.63,3.19,3.19,0,0,0,.14,1.19.57.57,0,0,0,.22.34.59.59,0,0,0,.37,0c1.6-.27,2.25-1,3.51.18a1,1,0,0,0,.4.28,1,1,0,0,0,.46,0c1.11-.14,1.67-1,2.65-1.31,1.34-.47,1.79.18,3.12.5,2.11.49,2.92-.26,3-1.64a6.57,6.57,0,0,0-.07-1.17c-.36-2.38,2-2.48,3.8-3.2a.4.4,0,0,0,.27-.28l.12,0c1.11-.14,1.67-1,2.64-1.31,1.35-.47,1.79.18,3.13.5,2.11.5,2.92-.26,3-1.64a5.75,5.75,0,0,0-.07-1.17c-.26-1.85,1.08-2.33,2.56-2.79a2.11,2.11,0,0,0,1.47,1.48c.29.07.63.1.79.36a1.1,1.1,0,0,1,.06.62,3.47,3.47,0,0,0,.15,1.2.49.49,0,0,0,.22.34.58.58,0,0,0,.37,0c1.6-.27,2.24-1,3.5.18a1.28,1.28,0,0,0,.41.29,1.19,1.19,0,0,0,.46,0c1.11-.14,1.67-1,2.64-1.31,1.36-.47,1.79.18,3.13.5,2.11.49,2.92-.26,3-1.64a5.11,5.11,0,0,0-.07-1.17c-.35-2.38,2-2.48,3.81-3.2,1.44-.57-3.32-3.5-.56-5.35a2.77,2.77,0,0,0,1.24-1.31A1.75,1.75,0,0,0,366.16,240.85Z" style="opacity:0.4"></path><path d="M317.29,245.68l-3-5.37-4.49-3.79.5-.63,4.09,2.92-.62-5.87,1-.2s.66,7,2.32,9.25c0,0,6.37,9.65,9.37,11.39a2.41,2.41,0,0,1,.46.37,27.14,27.14,0,0,1,1.77-6.1,115.73,115.73,0,0,1-6.21-10.31,58.91,58.91,0,0,1-2.77-6.79l.8-.26s4.68,10.55,9.62,14.76a15.65,15.65,0,0,1,3.3-3.4c0-1.62-.45-4.35-2.37-8.35l.77-.38a20.62,20.62,0,0,1,3.09,7.55,15.68,15.68,0,0,0,1.47-1.35,25.93,25.93,0,0,0,4.79-8.7l.92.58s-1.71,7.66-5.64,10.93-5.61,9.57-5.53,11.11a38.39,38.39,0,0,0,2.19,9.69,142.53,142.53,0,0,0,13-11.18l1.39,1.23-12.83,14c2.82,14.47,6.35,25.79,7,29l-8.81,1.87c-.73-4.53-1.71-18.3-6.26-35.73-.16-.42-.34-.9-.53-1.46-1.83-5.25-7.49-11.76-9.89-13.45a41.51,41.51,0,0,0-5.26-3.09l.29-1.27Z" style="fill:#263238"></path><polygon points="354.09 304.66 328.88 309.62 318.94 282.57 352.96 275.88 354.09 304.66" style="fill:#407BFF"></polygon><rect x="317.28" y="279.17" width="38.47" height="5.91" transform="translate(-48.14 70.28) rotate(-11.13)" style="fill:#407BFF"></rect><g style="opacity:0.2"><polygon points="354.09 304.66 328.88 309.62 318.94 282.57 352.96 275.88 354.09 304.66"></polygon><rect x="317.28" y="279.17" width="38.47" height="5.91" transform="translate(-48.14 70.28) rotate(-11.13)"></rect></g><path d="M322.5,292.41s10.28-1.34,11.87.16-1.36,2.5-1.36,2.5,3.31-.91,3.89.44c.69,1.62-2.4,2.67-2.4,2.67s2.73-.64,3.17.6-3,2.71-3,2.71,2-.08,1.83.95-7.35,4.2-10,3.69-6.43-9.84-6.82-12-.34-3.77,1.8-5.08l1,3.4Z" style="fill:#e9b376"></path><path d="M333.06,295.23h0l-5.84,1.32a.17.17,0,0,1-.08-.32l5.84-1.32a.16.16,0,0,1,.18.13A.16.16,0,0,1,333.06,295.23Z" style="opacity:0.2"></path><path d="M334.39,298.39h0l-5.51,1.71a.15.15,0,0,1-.19-.11.16.16,0,0,1,.09-.2l5.51-1.71a.16.16,0,0,1,.1.31Z" style="opacity:0.2"></path><path d="M334.58,301.71l-4.06,1.39a.15.15,0,0,1-.19-.11.16.16,0,0,1,.09-.2l4.05-1.39a.16.16,0,0,1,.11.31Z" style="opacity:0.2"></path><path d="M321,288.18l32.19-6.33V283l-31.49,6.68Z" style="opacity:0.30000000000000004"></path><path d="M393.8,240.16l4.57,15.37L367.5,273.16l5.72,10.8s37.94-14.28,42.46-18.3-6.79-31.43-6.79-31.43Z" style="fill:#e9b376"></path><path d="M388.17,203.33s8.32-.21,12.15,8.89c3.52,8.37,12.34,26.78,12.34,26.78l-18.42,6.46-8.62-21.89Z" style="fill:#407BFF"></path><path d="M372.08,273.2s-3-2.48-6.23-2.14-5.86-.23-8.23.19.42,2.08,2.08,2.67,3.55,1.25,2.91,2.43-10.45,7.25-11.15,9,1.19,1.26,1.19,1.26-2.34,1.53-2,2.63c.1.28.77.79,1.95.26,2.65-1.2,8.08-4,8.08-4-.31.15-6.77,4.09-7.66,4.81-1.16.93-1.24,2-.67,2.62.8.94,9-3.67,9.46-3.63,0,0-4.8,2.5-4.83,4.09s3.07.18,5.57-1.58c2.29-1.61,7.21-4.18,9.39-6,2.67-2.3,3.95-4.45,3-7.63A11.21,11.21,0,0,0,372.08,273.2Z" style="fill:#e9b376"></path><path d="M352.92,286.45a.14.14,0,0,1-.11-.06.13.13,0,0,1,0-.17c1.91-1.18,3.89-2.29,5.9-3.3a.12.12,0,0,1,.16.06.13.13,0,0,1-.05.17c-2,1-4,2.1-5.87,3.28Z" style="opacity:0.30000000000000004"></path></g></svg>
