<svg xmlns="http://www.w3.org/2000/svg" viewBox="0 0 500 500"><g id="Floor"><g id="Beach"><ellipse id="floor" cx="249.17" cy="368.02" rx="186.56" ry="107.71" style="fill:#ffbda7"></ellipse><ellipse id="floor" cx="249.17" cy="368.02" rx="186.56" ry="107.71" style="fill:#fff;opacity:0.1"></ellipse><path d="M381.09,291.85c44.94,25.95,62.15,61.85,51.64,95.42a20.73,20.73,0,0,1-8.38-3.51c-3.62-2.49-6.61-5.76-9.75-8.84a85.77,85.77,0,0,0-16.81-13.14c-10.58-6.15-25.57-6.6-37.51-7.63-11.42-1-23-1.9-33.83-5.54s-21.15-10.35-26.69-20.38c-3.59-6.52-5.82-13.71-9.36-20.24s-8.42-10.34-15.06-12c-3.33-.83-10.16-1.22-15-1.09-11.57.31-23.13,2.88-34.67,3.74-19,1.41-26.81-2-30.67-2.95A63.72,63.72,0,0,1,169.89,284c-3.67-2.9-7.15-6.07-11.14-8.48-.62-.38-1.26-.74-1.9-1.08C228.07,251,320.32,256.77,381.09,291.85Z" style="fill:#BA68C8;opacity:0.30000000000000004"></path><path d="M381.09,291.85c35.21,20.33,53.4,46.77,54.57,73.41-6.81-7.19-13-11.33-26.28-15.88-7.25-2.48-12.09-4.43-28.87-5.22-9.45-.45-19.12-.89-28.63-.72-11.88.21-27.6-3.94-35.11-13.95l-.07-.08c-5.69-6.43-10.05-15.29-15.26-27.27a25.94,25.94,0,0,0-9.54-11.82,33.77,33.77,0,0,0-15.27-5.81,67.75,67.75,0,0,0-13,.2L235.17,287c-12.15,1-25.56.32-36.84-4.71-7.44-3.32-13.84-8.41-19.85-14C246,252.38,326.31,260.23,381.09,291.85Z" style="fill:#BA68C8;opacity:0.5"></path><path d="M381.09,291.85c21.61,12.48,36.81,27.26,45.6,43q-2.69-.75-5.43-1.3c-2.62-.52-5.26-.92-7.89-1.21-11.74-1.3-23.6-.73-35.39-1.42a166.9,166.9,0,0,1-28.13-4.07c-8.78-2.05-15.54-7.29-21.85-13.47-5.72-5.6-8.11-14-11.23-21.16-4.17-9.55-10.67-17.94-18.33-20.06-9.54-2.66-19.59-1.36-29.21.06-8.64,1.28-17.48,2.94-26.07,3.56-17.29,1.24-32.39-2.17-45.29-11.32C260.88,254.08,331.47,263.21,381.09,291.85Z" style="fill:#BA68C8"></path><path d="M306.79,337.22c-11.66-9.06-12.62-27.28-23.17-36.26-8.93-7.58-22.73-5.89-59.38-2.22,0,0,26.73-3.95,41.28-4.58,11.2-.49,17,1.09,23.89,9.27C296.78,312.21,296.68,326.07,306.79,337.22Z" style="fill:#fafafa"></path><path d="M155.51,274.84q2.06-.69,4.14-1.35a62.44,62.44,0,0,1,7.86,6.7c8.49,8.05,19.83,13.66,26.19,15.21-8.41-1.34-18.12-4.82-29.48-14.66A42,42,0,0,0,155.51,274.84Z" style="fill:#fafafa"></path><path d="M336.41,320.55s9.21,8,26.18,10.88c16.67,2.81,47.6-1,60.54,2.5,0,0-9.1-4.44-32.78-4.44C361.63,329.49,355.18,331,336.41,320.55Z" style="fill:#fafafa"></path><path d="M425.71,384.63c-6.2-2.39-11.95-10.46-20.06-16.62-7.43-5.65-18.41-11.86-44-13.74,0,0,17.29-.37,29.64,3.78s16.65,8.52,20.84,13.27C419.46,379.61,423.54,383.48,425.71,384.63Z" style="fill:#fafafa"></path><path d="M239.76,286.63c-2.75.22-14.34,2.27-24.61.78s-18.53-4.12-27-11.07c0,0,10.05,6.21,21.06,8.51A105,105,0,0,0,239.76,286.63Z" style="fill:#fafafa"></path><path d="M333.56,340.59a35.5,35.5,0,0,1-17.36-12.65c-6.3-8.49-8.78-14.49-12.75-23.52s-9.26-12.35-9.26-12.35A59.53,59.53,0,0,1,302.77,307c2.87,7.94,6.57,16,12.73,22.72S326.47,338.75,333.56,340.59Z" style="fill:#fafafa"></path><path d="M433.66,365.68c-4.26-5-20.25-17.4-46.51-21.1,0,0,8.36-.47,23.18,3.78s21.91,11.06,25.17,14.31c.15,1.77.23,3.55.23,5.32C435.09,367.31,434.4,366.55,433.66,365.68Z" style="fill:#fafafa"></path><path d="M215.6,273.11c6.44,4,16.4,4.72,30.72,3.44s40.92-7.65,53.37-4c0,0-4.53-3.39-20.94-2.3-14.92,1-34.69,4.92-44.75,4.93C220.07,275.2,215.6,273.11,215.6,273.11Z" style="fill:#fafafa"></path></g></g><g id="Clouds"><path id="Cloud" d="M401.71,54.83c0-4.21-4.53-7.19-9.75-7.74-6.15-.65-10.54,2-10.74,6.89-4-1.7-8.27-.68-8,3.74-1.16-1.36-3.63-1.33-5.2-.88a6.72,6.72,0,0,0-4.34,3.9c-.08.19-.16.4-.36.47a.74.74,0,0,1-.33,0,9.14,9.14,0,0,0-4.84.3,5.83,5.83,0,0,0-3.46,3.26.8.8,0,0,1-.22.39.81.81,0,0,1-.49.14,18,18,0,0,0-5.28,1.22c-.24.09-.5.22-.57.46-.12.41.37.71.77.83,2.92.84,5.78.15,8.68-.39a2.49,2.49,0,0,1,.86-.07,2.78,2.78,0,0,1,.79.29c3.36,1.62,7.39,2.47,10.78.93a.77.77,0,0,1,1,.08,13.74,13.74,0,0,0,12.51.46,1.67,1.67,0,0,1,.74-.22,1.54,1.54,0,0,1,.56.18A17.85,17.85,0,0,0,393,70.87a18.91,18.91,0,0,0,4.16-.61,8.22,8.22,0,0,0,1.56-.45c.54-.24.93-.7,1.57-.74a2.82,2.82,0,0,1,.9.14c5.51,1.39,11.07,2.18,16.49-.13a6.58,6.58,0,0,1,1.41-.5,6.78,6.78,0,0,1,1.8,0,39.68,39.68,0,0,0,10.4-1,1.37,1.37,0,0,0,.71-.27.49.49,0,0,0,.08-.68.64.64,0,0,0-.3-.14c-2.33-.68-4.83-.83-7-1.87a1.54,1.54,0,0,1-.7-.95,7.28,7.28,0,0,0-3.54-3.81,6.89,6.89,0,0,0-5.74,0,10.43,10.43,0,0,0-5.57-5.15C407.12,53.89,403.61,53.29,401.71,54.83Z" style="fill:#f0f0f0"></path><path id="cloud" d="M425.75,100.14c0-3.46,3.73-5.91,8-6.37,5.06-.53,8.68,1.69,8.85,5.67,3.29-1.39,6.8-.56,6.58,3.08,1.1-1.3,3.85-1,5.22-.42a5.64,5.64,0,0,1,2.6,2.27,3,3,0,0,0,2.59,1.56,9.52,9.52,0,0,1,5.29,1.67,11.43,11.43,0,0,0,3.22,1.08c.53.09,1.2.29,1.23.82a24.72,24.72,0,0,1-5.55.75c-1.73,0-3.1-.42-4.57.59s-3.56.7-5.34.26a3.36,3.36,0,0,0-2.47.11c-3.74,1.3-8.21,2.45-12,.6a6.91,6.91,0,0,0-3.27-1.11,6.44,6.44,0,0,0-1.85.5,17.76,17.76,0,0,1-13.32-.64,2.77,2.77,0,0,0-1.32-.39,2.88,2.88,0,0,0-1,.33c-3.16,1.45-7.16,1.47-9.88-.71a1.76,1.76,0,0,0-.67-.4,1.62,1.62,0,0,0-.89.11,15,15,0,0,1-8.45,0,13.52,13.52,0,0,1,7-1.86,1.14,1.14,0,0,0,.81-.2,1.27,1.27,0,0,0,.27-.6,4.28,4.28,0,0,1,2.66-2.72,8.29,8.29,0,0,1,3.9-.33.81.81,0,0,0,1-.6,7,7,0,0,1,5.22-3.5C421.61,99.49,424.11,98.81,425.75,100.14Z" style="fill:#f5f5f5"></path></g><g id="Sun"><circle id="sun" cx="107.83" cy="58.34" r="15.77" style="fill:#ffbda7"></circle></g><g id="Birds"><g id="birds"><path d="M102.81,101.55c-9.34-2.45-18.43,6-23.82,16.71-6.54-6.59-21.66-13.45-28.51-5.61,9.9-4.38,20.91.77,27.73,8.27.46.47,1.8,1,2.24-.1C85.42,109,94.42,102.11,102.81,101.55Z" style="fill:#455a64"></path><path d="M142.16,133c-7.22-4.43-17.57,2.82-22,9.87-3.83-7.2-10.9-15.93-19.83-13.35,9.77.65,14.66,7.36,18.49,15.39.28.51,1.4,1.34,1.92.48C125.63,137.19,135,131.36,142.16,133Z" style="fill:#455a64"></path></g></g><g id="Shadows"><g id="Shadow" style="opacity:0.15"><ellipse id="shadow" cx="251.68" cy="387.76" rx="51.61" ry="29.8"></ellipse><ellipse id="shadow" cx="172.9" cy="402.43" rx="39.09" ry="22.57"></ellipse><ellipse id="shadow" cx="325.95" cy="402.43" rx="39.09" ry="22.57"></ellipse></g><path id="shadow" d="M288.73,449.83c1.39,0,3.42-1.84,4.3-2.81,2.07-2.31,4.18-4.83,4.85-5.64,1.14.2,5,.94,9.07,2l1,.27a14.42,14.42,0,0,0,3.22.67,1.33,1.33,0,0,0,1.27-.6c.32-.58.1-1.42-.74-2.79-1.77-2.86-5.52-5-7.37-6a49.49,49.49,0,0,1,5.56-2.51c.86-.3,2-.82,2-1.75,0-.46-.32-1.11-1.76-1.56a17.12,17.12,0,0,0-4.39-.49c-.6,0-1.19,0-1.75.07a28.86,28.86,0,0,0-7.61,1.48,18.85,18.85,0,0,0-8.83-3.55c-.7-.06-1.34-.1-1.9-.1-1.44,0-2.24.22-2.57.72a1,1,0,0,0-.08.95,5.47,5.47,0,0,0,1.92,1.95,18.67,18.67,0,0,1,3.18,2.93l-.86.31a49.14,49.14,0,0,0-7.71,3.38c-2,1.16-2.87,2.13-2.63,3.05.3,1.13,2.08,1.36,3.52,1.36h1.81c2.24,0,5.2.06,6.55.09-.26,1.06-.77,3.23-1.27,6.15a2.33,2.33,0,0,0,.27,1.94A1.23,1.23,0,0,0,288.73,449.83Z" style="opacity:0.15"></path><path id="shadow" d="M201.79,450.83c1.16,0,2.85-1.53,3.58-2.34,1.72-1.91,3.47-4,4-4.68,1,.17,4.16.78,7.53,1.69l.81.22a11.84,11.84,0,0,0,2.66.56,1.12,1.12,0,0,0,1.06-.5c.27-.48.09-1.18-.62-2.31-1.46-2.38-4.57-4.18-6.11-5a39.89,39.89,0,0,1,4.62-2.08c.71-.25,1.66-.68,1.65-1.46,0-.38-.27-.91-1.46-1.29a14.61,14.61,0,0,0-3.65-.41c-.5,0-1,0-1.45.06a23.93,23.93,0,0,0-6.31,1.23,15.74,15.74,0,0,0-7.33-2.94c-.59-.06-1.12-.09-1.58-.09-1.2,0-1.86.19-2.14.6a.83.83,0,0,0-.06.78,4.64,4.64,0,0,0,1.59,1.63,14.85,14.85,0,0,1,2.64,2.42l-.72.27a41.24,41.24,0,0,0-6.4,2.8c-1.68,1-2.38,1.77-2.18,2.53.25.94,1.73,1.13,2.93,1.13h1.5c1.86,0,4.31.05,5.44.08-.22.88-.64,2.67-1.06,5.1a1.91,1.91,0,0,0,.23,1.61A1,1,0,0,0,201.79,450.83Z" style="opacity:0.15"></path><path id="shadow" d="M106.75,387c1.16,0,2.85-1.53,3.58-2.34,1.72-1.91,3.47-4,4-4.68,1,.17,4.16.78,7.53,1.69l.81.22a11.84,11.84,0,0,0,2.66.56,1.12,1.12,0,0,0,1.06-.5c.27-.49.09-1.18-.62-2.32-1.46-2.37-4.57-4.17-6.11-4.95a39.89,39.89,0,0,1,4.62-2.08c.71-.26,1.66-.68,1.65-1.46,0-.38-.27-.92-1.46-1.29a14.09,14.09,0,0,0-3.65-.41c-.5,0-1,0-1.45.06a23.48,23.48,0,0,0-6.31,1.23,15.72,15.72,0,0,0-7.33-2.95c-.59-.05-1.12-.08-1.58-.08-1.2,0-1.86.18-2.14.6a.8.8,0,0,0-.06.78,4.55,4.55,0,0,0,1.59,1.62,15.34,15.34,0,0,1,2.64,2.43l-.72.26a42.44,42.44,0,0,0-6.4,2.81c-1.68,1-2.38,1.77-2.18,2.53.25.93,1.73,1.13,2.93,1.13h1.5c1.86,0,4.31.05,5.44.07-.22.88-.64,2.68-1.06,5.1a1.93,1.93,0,0,0,.23,1.62A1,1,0,0,0,106.75,387Z" style="opacity:0.15"></path><path id="shadow" d="M385.4,386.91c-1,0-2.43-1.3-3-2-1.47-1.64-3-3.43-3.44-4-.81.15-3.55.67-6.43,1.44l-.68.19a10,10,0,0,1-2.28.48.93.93,0,0,1-.9-.43c-.23-.41-.07-1,.52-2,1.25-2,3.91-3.57,5.22-4.23a32.57,32.57,0,0,0-3.94-1.78c-.61-.22-1.42-.58-1.41-1.25,0-.32.23-.78,1.25-1.1a12.44,12.44,0,0,1,3.11-.35,12.27,12.27,0,0,1,1.24.06,20.31,20.31,0,0,1,5.39,1,13.4,13.4,0,0,1,6.26-2.51c.5-.05.95-.07,1.35-.07,1,0,1.58.16,1.82.51a.72.72,0,0,1,.06.67,4,4,0,0,1-1.37,1.38,13.26,13.26,0,0,0-2.25,2.07l.61.23a34.46,34.46,0,0,1,5.46,2.39c1.45.83,2,1.51,1.87,2.16s-1.48,1-2.5,1H390c-1.59,0-3.68,0-4.64.06.18.75.54,2.29.9,4.36a1.63,1.63,0,0,1-.2,1.38A.88.88,0,0,1,385.4,386.91Z" style="opacity:0.15"></path><path id="shadow" d="M244.76,465.06a.84.84,0,0,0,.61-.27c.38-.42.5-1.63.37-3.61a56.54,56.54,0,0,0,9.85,1.19,9,9,0,0,0,4.06-.68,4.41,4.41,0,0,0,2.43-2.92,6.4,6.4,0,0,0-1.22-4.84c.46-.8,1-2.66-.93-5.5a6.15,6.15,0,0,0-5.22-2.76,6.38,6.38,0,0,0-1.12.09c-.57-.73-2-2.11-5.12-2.11a11.49,11.49,0,0,0-1.41.09,4.3,4.3,0,0,0-2.92,1.86c-1.95,2.61-2.62,7.65-2.21,11.45a12.57,12.57,0,0,0-2.28-.24,3.52,3.52,0,0,0-2.18.55,1,1,0,0,0-.4,1c.2,1,2.51,1.94,4.52,2.53.56,1.07,1.9,3.53,2.72,4A.75.75,0,0,0,244.76,465.06Z" style="opacity:0.15"></path></g><g id="Starfishes"><g id="Starfish"><path d="M303,433.26a52.22,52.22,0,0,1,6.66-3.1c2.43-.86,1.76-1.72.26-2.2a18.83,18.83,0,0,0-5.91-.39c-5.66.52-7.75,1.57-7.75,1.57a18.6,18.6,0,0,0-8.8-3.64c-1.88-.18-4.34-.21-4,.76.49,1.22,3.22,2.25,5.51,5.35a68.71,68.71,0,0,0-9.23,4c-4.14,2.36-2.21,3.37.86,3.3,2.83-.05,8.86.1,8.86.1s-.72,2.59-1.45,6.82c-.58,3.34,2.78,1,4.54-.93,2.52-2.8,5.06-5.89,5.06-5.89s4.55.79,9.46,2.1c3.51.95,6.28,2,4.06-1.57S303,433.26,303,433.26Z" style="fill:#f28f8f"></path><path d="M292.42,443.29c1.31-1.5,4.62-6.29,4.62-6.29s9.38,2.62,11.73,3.31,3,.41,2.77-.16c1.47,2.81-1.15,1.81-4.43.92-4.91-1.31-9.46-2.1-9.46-2.1s-2.54,3.09-5.06,5.89c-1.31,1.45-3.5,3.1-4.3,2.48C289.68,447.26,291.11,444.79,292.42,443.29Z" style="fill:#b16668"></path><path d="M277.46,438c.79.5,1.9.31,4.83,0s7.66-1,7.66-1l-.45,2s-6-.15-8.86-.1C279,438.91,277.71,438.63,277.46,438Z" style="fill:#b16668"></path><path d="M310.53,428.2c1,.46,1.19,1.23-.87,2a52.22,52.22,0,0,0-6.66,3.1l-1.93-1s2.72-1.18,5.45-2C309,429.47,311.36,428.91,310.53,428.2Z" style="fill:#b16668"></path><path d="M289,431.61c-2.29-3.1-5-4.13-5.51-5.35a.41.41,0,0,1,.17-.53h0s-.39.5,1.81,1.44a17,17,0,0,1,4.47,3.36C290.49,431.2,289,431.61,289,431.61Z" style="fill:#b16668"></path></g><g id="starfish"><path d="M213.64,437.07a43.53,43.53,0,0,1,5.53-2.57c2-.71,1.46-1.43.21-1.82a15.41,15.41,0,0,0-4.9-.33c-4.7.43-6.44,1.3-6.44,1.3a15.34,15.34,0,0,0-7.3-3c-1.56-.15-3.6-.18-3.28.63.41,1,2.67,1.86,4.57,4.44a56,56,0,0,0-7.66,3.28c-3.44,2-1.83,2.8.72,2.75,2.34-.05,7.34.07,7.34.07s-.59,2.16-1.2,5.67c-.48,2.76,2.31.85,3.77-.78,2.09-2.32,4.2-4.89,4.2-4.89s3.78.66,7.85,1.75c2.91.79,5.21,1.68,3.37-1.3S213.64,437.07,213.64,437.07Z" style="fill:#f28f8f"></path><path d="M204.86,445.4c1.08-1.25,3.83-5.22,3.83-5.22s7.79,2.17,9.74,2.75,2.51.34,2.3-.13c1.22,2.32-1,1.49-3.68.76-4.07-1.09-7.85-1.75-7.85-1.75s-2.11,2.57-4.2,4.89c-1.09,1.21-2.9,2.57-3.57,2.06C202.58,448.69,203.77,446.65,204.86,445.4Z" style="fill:#b16668"></path><path d="M192.44,441c.66.41,1.58.25,4,0s6.36-.82,6.36-.82l-.38,1.63s-5-.12-7.34-.07C193.73,441.76,192.65,441.54,192.44,441Z" style="fill:#b16668"></path><path d="M219.89,432.87c.81.38,1,1-.72,1.63a43.53,43.53,0,0,0-5.53,2.57l-1.6-.8s2.26-1,4.52-1.69C218.63,433.93,220.58,433.47,219.89,432.87Z" style="fill:#b16668"></path><path d="M202,435.71c-1.9-2.58-4.16-3.43-4.57-4.44a.34.34,0,0,1,.14-.45h0s-.33.42,1.5,1.2a14.06,14.06,0,0,1,3.71,2.79C203.26,435.37,202,435.71,202,435.71Z" style="fill:#b16668"></path></g><g id="starfish"><path d="M118.6,373.22a43.53,43.53,0,0,1,5.53-2.57c2-.71,1.46-1.43.21-1.82a15.12,15.12,0,0,0-4.9-.33c-4.7.43-6.44,1.3-6.44,1.3a15.42,15.42,0,0,0-7.3-3c-1.56-.14-3.6-.17-3.28.63.41,1,2.67,1.87,4.57,4.44a57.86,57.86,0,0,0-7.66,3.29c-3.44,2-1.83,2.79.72,2.74,2.34,0,7.34.08,7.34.08s-.59,2.15-1.2,5.66c-.48,2.77,2.31.85,3.77-.77,2.09-2.33,4.2-4.89,4.2-4.89s3.78.65,7.85,1.75c2.91.78,5.21,1.68,3.37-1.31S118.6,373.22,118.6,373.22Z" style="fill:#f28f8f"></path><path d="M109.82,381.55c1.08-1.25,3.83-5.22,3.83-5.22s7.79,2.17,9.74,2.74,2.51.35,2.3-.13c1.22,2.33-1,1.5-3.68.77-4.07-1.1-7.85-1.75-7.85-1.75s-2.11,2.56-4.2,4.89c-1.09,1.2-2.9,2.57-3.57,2.06C107.54,384.84,108.73,382.79,109.82,381.55Z" style="fill:#b16668"></path><path d="M97.4,377.17c.66.42,1.58.26,4,0s6.36-.82,6.36-.82l-.38,1.63s-5-.12-7.34-.08C98.69,377.91,97.61,377.68,97.4,377.17Z" style="fill:#b16668"></path><path d="M124.85,369c.81.38,1,1-.72,1.63a43.53,43.53,0,0,0-5.53,2.57l-1.6-.8s2.26-1,4.52-1.69C123.59,370.08,125.54,369.62,124.85,369Z" style="fill:#b16668"></path><path d="M107,371.85c-1.9-2.57-4.16-3.42-4.57-4.44a.33.33,0,0,1,.14-.44h0s-.33.42,1.5,1.2a14.05,14.05,0,0,1,3.71,2.78C108.22,371.51,107,371.85,107,371.85Z" style="fill:#b16668"></path></g><g id="starfish"><path d="M375.28,375.17a36.89,36.89,0,0,0-4.72-2.2c-1.71-.6-1.24-1.22-.17-1.55a12.79,12.79,0,0,1,4.18-.28,17.39,17.39,0,0,1,5.49,1.11,13.16,13.16,0,0,1,6.24-2.58c1.33-.12,3.07-.14,2.8.54-.35.87-2.28,1.6-3.9,3.79a48.6,48.6,0,0,1,6.54,2.81c2.93,1.67,1.56,2.38-.62,2.34-2,0-6.27.06-6.27.06s.51,1.84,1,4.84c.41,2.36-2,.72-3.22-.67-1.78-2-3.58-4.17-3.58-4.17s-3.23.56-6.7,1.5c-2.49.66-4.45,1.43-2.88-1.12S375.28,375.17,375.28,375.17Z" style="fill:#f28f8f"></path><path d="M382.78,382.28c-.92-1.07-3.27-4.46-3.27-4.46s-6.65,1.85-8.31,2.34-2.15.3-2-.11c-1.05,2,.81,1.28,3.14.66,3.47-.94,6.7-1.5,6.7-1.5s1.8,2.19,3.58,4.17c.93,1,2.48,2.2,3,1.77C384.73,385.09,383.71,383.34,382.78,382.28Z" style="fill:#b16668"></path><path d="M393.38,378.54c-.56.36-1.35.22-3.42,0s-5.43-.7-5.43-.7l.32,1.39s4.27-.1,6.27-.06C392.28,379.17,393.2,379,393.38,378.54Z" style="fill:#b16668"></path><path d="M370,371.58c-.69.33-.84.88.61,1.39a36.89,36.89,0,0,1,4.72,2.2l1.37-.69s-1.93-.84-3.86-1.44C371,372.48,369.36,372.09,370,371.58Z" style="fill:#b16668"></path><path d="M385.2,374c1.62-2.19,3.55-2.92,3.9-3.79a.3.3,0,0,0-.12-.38h0s.28.36-1.28,1a12,12,0,0,0-3.17,2.37C384.15,373.71,385.2,374,385.2,374Z" style="fill:#b16668"></path></g></g><g id="Shell"><g id="shell"><path d="M244.38,459.09s11.07,2.46,14.32.75,2.37-5,.73-7.2c0,0,1.7-1.7-.67-5.13a5.7,5.7,0,0,0-6.11-2.32s-1.33-2.69-6.16-2.09c-4,.49-5.25,8.6-4.44,13.48,0,0-3.62-.93-4.83,0s4.17,2.48,4.17,2.48,1.81,3.53,2.61,4S244.38,459.09,244.38,459.09Z" style="fill:#fff"></path><path d="M254.78,459.28c4.22-.43,5.76-2.12,6.06-3.5a3.66,3.66,0,0,1-2.14,4.06c-3.25,1.71-14.32-.75-14.32-.75s.14,1.5.11,2.68a13.18,13.18,0,0,0-.77-3.32A43.45,43.45,0,0,0,254.78,459.28Z" style="opacity:0.1"></path><path d="M259.43,452.64s-4.32-.82-10.45,2.59a18.1,18.1,0,0,1,7-3.53c4.37-1.13,2.75-4.19,2.75-4.19C261.13,450.94,259.43,452.64,259.43,452.64Z" style="opacity:0.1"></path><path d="M244.52,453.33c2.46-6,5.77-7.79,5.24-8.82-.78-1.5-3.27-1.41-3.27-1.41,4.83-.6,6.16,2.09,6.16,2.09C247.28,447.43,244.52,453.33,244.52,453.33Z" style="opacity:0.1"></path></g></g><g id="palm-3"><g id="Palm"><path d="M381.18,198.1c-3,16.35-3.49,35.78-8.13,51.24-3.56,11.87-6.41,21.54-10.24,31.9C347,324.17,340.56,355.63,334.27,400.7c-6.77,3.09-13.61-.09-20.38-1.6,12.59-48.72,16.37-75.71,38.89-124.81,9.81-21.39,17.33-47.52,20.9-74.63C374.13,196.23,379.62,197,381.18,198.1Z" style="fill:#263238"></path><path d="M377.73,206a25.83,25.83,0,0,0-4.59-10c.29,2.58-1.17,6.77-.88,9.31C373.24,206.68,375.62,206.39,377.73,206Z" style="fill:#455a64"></path><path d="M373.22,206.15a24.31,24.31,0,0,1,3.49-5.82,28.13,28.13,0,0,1,5.63-4.68,61.37,61.37,0,0,0-2,7.09c-.51,2-.77,2.76-2.37,3.6S374.82,206.48,373.22,206.15Z" style="fill:#37474f"></path><path d="M377.47,214.69a34.42,34.42,0,0,0-5.89-12.46c.15,3.31-.11,6.88-.19,10.19C372.25,214.43,374,215,377.47,214.69Z" style="fill:#37474f"></path><path d="M372.75,214.33a70.23,70.23,0,0,1,3.72-7,18.72,18.72,0,0,1,5.22-5.12c-1.51,2.36-1.54,6.26-1.68,8.75s-.09,3.29-1.94,3.79A9.09,9.09,0,0,1,372.75,214.33Z" style="fill:#455a64"></path><path d="M376.6,225.83A30.51,30.51,0,0,0,371,211.08c.61,3.58-.42,7.69-1.44,11.63C371.06,225.59,373.52,226.24,376.6,225.83Z" style="fill:#455a64"></path><path d="M371,224.76c1.54-2.53,3.48-4.86,5-7.43s3.08-5.28,5.43-7.05c-1.2,3.17-1.28,8.43-1.6,11.32s-.78,4.17-2.9,4.52A8,8,0,0,1,371,224.76Z" style="fill:#37474f"></path><path d="M373.79,237.82c0-6.19-2.51-12.68-4.5-18.39a64.45,64.45,0,0,1-2.39,14.14C368,236.75,370.7,237.46,373.79,237.82Z" style="fill:#37474f"></path><path d="M368.53,236c2.11-2.62,3.82-4.85,6-7.59,1.73-2.14,4.83-4.78,6.9-6.84-1.24,4.48-2.76,9.78-3.88,14.33a3.7,3.7,0,0,1-3.71,2A8.36,8.36,0,0,1,368.53,236Z" style="fill:#455a64"></path><path d="M369.62,250.29a31.93,31.93,0,0,0-3.05-18.11,49.45,49.45,0,0,1-3.22,12.67C363.54,248.88,366.23,249.59,369.62,250.29Z" style="fill:#455a64"></path><path d="M363.92,247.71c2.69-2.83,4.59-4.58,7.71-7.45,2-1.86,5.47-5.38,7.55-7.75-1.59,5.18-3.21,10.49-5,15.65-1.5,1.45-2.48,2.32-4.61,2.22A8.66,8.66,0,0,1,363.92,247.71Z" style="fill:#37474f"></path><path d="M365.64,262.63a62.21,62.21,0,0,0-2.46-19.76c-.76,4.48-2.93,8.64-3.71,13.09S362.26,261.79,365.64,262.63Z" style="fill:#37474f"></path><path d="M359.6,259.44c2.51-2.12,4.92-4.07,7.49-6.23a55.24,55.24,0,0,1,8.51-6c-2.38,4.21-3.55,8.37-5.23,13.05-.69,1.93-2,2.87-4.44,2.55A11.33,11.33,0,0,1,359.6,259.44Z" style="fill:#455a64"></path><path d="M361.89,274.47c.06-7-.62-14.66-3.41-20.66-.52,7.17-2,9.46-3.53,14.27S358.26,273.92,361.89,274.47Z" style="fill:#455a64"></path><path d="M354.88,272c2.59-2,5.3-3.76,7.73-6a44.33,44.33,0,0,1,9.1-7c-1.8,3.47-3.42,9-4.64,12.24s-2.2,3.65-4.65,3.69C359.28,275,357.33,273.59,354.88,272Z" style="fill:#37474f"></path><path d="M356.42,288.11A51.25,51.25,0,0,0,354,266.18c-.83,5.76-3.89,10-5.18,15.83C347.86,286.09,353.2,288,356.42,288.11Z" style="fill:#37474f"></path><path d="M349,285.37a72.86,72.86,0,0,1,10.06-7.87c3.51-2.26,6.74-4.7,10.07-7.08-2.16,4.06-4.87,10.12-6.8,13.77s-2.5,3.9-5.8,4.12C353.79,288.5,351.32,286.84,349,285.37Z" style="fill:#455a64"></path><path d="M350.84,303c.44-8.67-.23-16.31-3.23-24.32-1.34,5.92-3.93,11.38-5.57,17.21C341.12,301.31,346.92,302.56,350.84,303Z" style="fill:#455a64"></path><path d="M342.51,300.09A57.9,57.9,0,0,1,352.68,291a131.54,131.54,0,0,1,11.61-7c-2.52,4-5.21,10.4-7.07,14.36s-2.62,4.09-6.11,4.67C348,303.6,345.15,301.74,342.51,300.09Z" style="fill:#37474f"></path><path d="M345.23,320.14A143.73,143.73,0,0,0,341.32,292c-1.64,6.65-3.64,13.17-5.47,19.76C336.36,317.7,340.14,319.41,345.23,320.14Z" style="fill:#37474f"></path><path d="M336.35,317a106,106,0,0,1,10.88-11.29,100.81,100.81,0,0,1,12.09-8.83c-3.09,4.78-6,12.92-7.61,17.73s-2.11,5.67-6.09,5.93C342.16,320.78,339.26,318.62,336.35,317Z" style="fill:#455a64"></path><path d="M339.82,340.9c0-11.48-2-22.2-4.26-33.31-2.19,8-4.61,16.86-6.57,25C329.9,339.35,333.73,340.43,339.82,340.9Z" style="fill:#455a64"></path><path d="M330.12,337.31a74,74,0,0,1,10.73-12c4.41-3.72,8.83-7.52,13-11.39-2.64,5.76-5.51,15.2-7,20.55s-2.7,6.22-6.3,6.69C335.85,341.77,331.18,339.32,330.12,337.31Z" style="fill:#37474f"></path><path d="M335.8,360.63c-1.9-10.95-4.77-21.63-7.3-32.41-1.81,8.58-4.56,17.5-6.19,26.11C324.5,359.43,330.28,360.22,335.8,360.63Z" style="fill:#37474f"></path><path d="M325,358.15a135.49,135.49,0,0,1,11.73-13.41,67.78,67.78,0,0,1,12.86-10.5c-2.95,6.3-4.73,13.91-6.93,20.29-1.4,4.05-2.22,6.18-6.3,6.44A22.89,22.89,0,0,1,325,358.15Z" style="fill:#455a64"></path><path d="M332.36,382c-1.87-11.32-5.57-21.18-10.49-31.35-.14,7.48-2.35,14.13-2.33,21.76S325.78,382.66,332.36,382Z" style="fill:#455a64"></path><path d="M320.55,378.92a131,131,0,0,1,11.87-13.78c3.66-3.7,8.43-8.62,12.55-12.07-2.05,6.18-3.86,15.75-5.18,21.43s-2.62,6.91-6.83,7.8C328.1,383.32,324.57,381,320.55,378.92Z" style="fill:#37474f"></path><path d="M329.43,407.68c-1.31-14.93-6.47-30.19-10.22-44.71-1.19,12.49-4.44,22.83-6.81,36C311.58,405.22,320.44,407.91,329.43,407.68Z" style="fill:#37474f"></path><path d="M314.33,403.9c5.27-4.92,8.12-9.08,13.42-15.28,3.43-4,10.81-11.84,14.43-17-3.24,9.67-3.75,20-5.24,30.61-.8,3.28-4.19,5.16-8.46,5.56C323.47,408.26,318.4,407.36,314.33,403.9Z" style="fill:#455a64"></path><path d="M377.85,191.32c2-.42,2-11.39-3.06-23s-9.05-18.84-32.24-20.37l11.21,3.69s-6.8-1.48-10.25-1.47c.28,0,.68,1.64.76,1.89a23.59,23.59,0,0,0,1.32,3.11l5.73.51a27,27,0,0,1,5.38.85,29.17,29.17,0,0,0-8.92.87l1.92,3.93a36.61,36.61,0,0,1,12.12-.87,63.28,63.28,0,0,0-9,2.76c.25.66.51,1.32.77,2a40.08,40.08,0,0,1,13.87-1.33,51.07,51.07,0,0,0-11.07,3.82,15.79,15.79,0,0,0,1.7,3.26l5.24-1.32-3.77,1.84a2.38,2.38,0,0,0-1,.75.81.81,0,0,0,.18,1.12l9.86-1.7a45.36,45.36,0,0,0-8.44,3c-.24.12,2.82,4.62,3.13,5a27.31,27.31,0,0,0,4.35,4.38c.72.58,1.55,1,2.26,1.59s1.52,1.55,2.34,2.25A23.54,23.54,0,0,0,377.85,191.32Z" style="fill:#BA68C8"></path><path d="M377.85,191.32c2-.42,2-11.39-3.06-23s-9.05-18.84-32.24-20.37l11.21,3.69s-6.8-1.48-10.25-1.47c.28,0,.68,1.64.76,1.89a23.59,23.59,0,0,0,1.32,3.11l5.73.51a27,27,0,0,1,5.38.85,29.17,29.17,0,0,0-8.92.87l1.92,3.93a36.61,36.61,0,0,1,12.12-.87,63.28,63.28,0,0,0-9,2.76c.25.66.51,1.32.77,2a40.08,40.08,0,0,1,13.87-1.33,51.07,51.07,0,0,0-11.07,3.82,15.79,15.79,0,0,0,1.7,3.26l5.24-1.32-3.77,1.84a2.38,2.38,0,0,0-1,.75.81.81,0,0,0,.18,1.12l9.86-1.7a45.36,45.36,0,0,0-8.44,3c-.24.12,2.82,4.62,3.13,5a27.31,27.31,0,0,0,4.35,4.38c.72.58,1.55,1,2.26,1.59s1.52,1.55,2.34,2.25A23.54,23.54,0,0,0,377.85,191.32Z" style="opacity:0.15"></path><path d="M354,214.69a11.28,11.28,0,0,0-4.83,1.28,8.2,8.2,0,0,1,3.73.83,7.93,7.93,0,0,0-8.35,4c2.38-.71,4.87-1.42,7.32-1a28.5,28.5,0,0,0-6.91,4.09,29.76,29.76,0,0,1,5.89-.37q-3,1.55-6,3.18a4.14,4.14,0,0,0-1.53,1.2,23.38,23.38,0,0,1,5.53-1.34,37.24,37.24,0,0,0-5.24,2.73,4,4,0,0,0-1,.82,4.21,4.21,0,0,0-.66,2,20.32,20.32,0,0,1,3.42-2,11.06,11.06,0,0,1-2.09,1.82,2.1,2.1,0,0,0-.75,2.46A15.46,15.46,0,0,1,347,231c-1.42,2.07-3.72,3.68-4.21,6.15a6.68,6.68,0,0,0,0,2.23,4.23,4.23,0,0,0,.37,1.71,21.21,21.21,0,0,1,1.92-4.23,11.51,11.51,0,0,1,2.29-2.64c.16-.13.74-.42.81-.6a93,93,0,0,0-3.64,11.91l6.33-11.19a27.32,27.32,0,0,1-2.38,9.35,6.75,6.75,0,0,1,2.35-1.71c1.75-.77,2.37-2.94,2.51-4.85s0-4,1.08-5.56c-.14,2.17-.27,4.35-.41,6.53.94.11,1.36-1.14,1.44-2.09q.26-2.9.49-5.79a18.56,18.56,0,0,1-.32,6.39c1.51-.37,2.07-2.18,2.33-3.7.5-2.94.8-6-.19-8.84a14.7,14.7,0,0,1,1.65,7.24,2,2,0,0,0,1.84-1.36,5.72,5.72,0,0,0,.21-2.41,28.47,28.47,0,0,0-1.1-7.47,43.55,43.55,0,0,1,3.08,9.9,25.91,25.91,0,0,0-.8-10.83,29.23,29.23,0,0,1,2.92,6.1,18.76,18.76,0,0,0-.68-7.95A8.86,8.86,0,0,1,367,221a15.45,15.45,0,0,0-.09-7.06,20.9,20.9,0,0,1,1.46,3.32,10.5,10.5,0,0,0,1.84-9.35c.62,1.23,1.23,2.46,1.84,3.69a9.72,9.72,0,0,0,.28-8.47l2.19,2.74c.54-2.63,3.18-13.65,3.31-14.53-.62,0-12.93,3.09-20.45,11.54a13.57,13.57,0,0,1,3.8-1l-2,1.26-.63.39-1.07.67c-1.09.7-2.15,1.44-3.19,2.23a15.51,15.51,0,0,1,5.09-.87,17,17,0,0,0-7.56,4.56,5.52,5.52,0,0,1,3.53-.9,11.62,11.62,0,0,0-6.43,4.18c.1-.28,2.08.13,2.38.23A13.09,13.09,0,0,1,354,214.69Z" style="fill:#BA68C8"></path><path d="M354,214.69a11.28,11.28,0,0,0-4.83,1.28,8.2,8.2,0,0,1,3.73.83,7.93,7.93,0,0,0-8.35,4c2.38-.71,4.87-1.42,7.32-1a28.5,28.5,0,0,0-6.91,4.09,29.76,29.76,0,0,1,5.89-.37q-3,1.55-6,3.18a4.14,4.14,0,0,0-1.53,1.2,23.38,23.38,0,0,1,5.53-1.34,37.24,37.24,0,0,0-5.24,2.73,4,4,0,0,0-1,.82,4.21,4.21,0,0,0-.66,2,20.32,20.32,0,0,1,3.42-2,11.06,11.06,0,0,1-2.09,1.82,2.1,2.1,0,0,0-.75,2.46A15.46,15.46,0,0,1,347,231c-1.42,2.07-3.72,3.68-4.21,6.15a6.68,6.68,0,0,0,0,2.23,4.23,4.23,0,0,0,.37,1.71,21.21,21.21,0,0,1,1.92-4.23,11.51,11.51,0,0,1,2.29-2.64c.16-.13.74-.42.81-.6a93,93,0,0,0-3.64,11.91l6.33-11.19a27.32,27.32,0,0,1-2.38,9.35,6.75,6.75,0,0,1,2.35-1.71c1.75-.77,2.37-2.94,2.51-4.85s0-4,1.08-5.56c-.14,2.17-.27,4.35-.41,6.53.94.11,1.36-1.14,1.44-2.09q.26-2.9.49-5.79a18.56,18.56,0,0,1-.32,6.39c1.51-.37,2.07-2.18,2.33-3.7.5-2.94.8-6-.19-8.84a14.7,14.7,0,0,1,1.65,7.24,2,2,0,0,0,1.84-1.36,5.72,5.72,0,0,0,.21-2.41,28.47,28.47,0,0,0-1.1-7.47,43.55,43.55,0,0,1,3.08,9.9,25.91,25.91,0,0,0-.8-10.83,29.23,29.23,0,0,1,2.92,6.1,18.76,18.76,0,0,0-.68-7.95A8.86,8.86,0,0,1,367,221a15.45,15.45,0,0,0-.09-7.06,20.9,20.9,0,0,1,1.46,3.32,10.5,10.5,0,0,0,1.84-9.35c.62,1.23,1.23,2.46,1.84,3.69a9.72,9.72,0,0,0,.28-8.47l2.19,2.74c.54-2.63,3.18-13.65,3.31-14.53-.62,0-12.93,3.09-20.45,11.54a13.57,13.57,0,0,1,3.8-1l-2,1.26-.63.39-1.07.67c-1.09.7-2.15,1.44-3.19,2.23a15.51,15.51,0,0,1,5.09-.87,17,17,0,0,0-7.56,4.56,5.52,5.52,0,0,1,3.53-.9,11.62,11.62,0,0,0-6.43,4.18c.1-.28,2.08.13,2.38.23A13.09,13.09,0,0,1,354,214.69Z" style="opacity:0.30000000000000004"></path><path d="M400.58,221.43c.09-.35.17-.7.24-1.06a13,13,0,0,0,.23,4,2.94,2.94,0,0,0,.46-1.13,7.59,7.59,0,0,0,.26,1.91,8.81,8.81,0,0,0,.55-2.59c0-.47.06-.94.07-1.41a3.79,3.79,0,0,0,0-1.3,20.73,20.73,0,0,1,1.45,7.26,1.23,1.23,0,0,0,.39-.95,8.72,8.72,0,0,1,.16,1.62,2.83,2.83,0,0,1,.33-.76c.11-.28.22-.56.32-.84.18-.53.36-1.06.55-1.59a8.71,8.71,0,0,1,0,2.79,3.35,3.35,0,0,0,.86-1.67c.07.46.14.92.2,1.38a6.13,6.13,0,0,0,1.12-1.76,15.93,15.93,0,0,1-.31,2.84l.6-.79a2.14,2.14,0,0,0,.13.9,2.77,2.77,0,0,0,1.17-1.63,8.24,8.24,0,0,1,.41,2.09c0,.4.06.81.07,1.22a3.19,3.19,0,0,1,0,1.15,12.35,12.35,0,0,0,.46-5.62,20.82,20.82,0,0,1,.73,6.68,17.86,17.86,0,0,0,.63-4.94,42,42,0,0,1,.66,5.26,14.67,14.67,0,0,0,.16-1.47c.23,1.29.41,2.59.55,3.89a11.25,11.25,0,0,0,.91-5.13,23.58,23.58,0,0,1,1.25,2.39,3.24,3.24,0,0,0,0-1.12A47,47,0,0,0,408,215a50.09,50.09,0,0,0-3.92-5.25,43,43,0,0,0-11.31-9c-4.26-2.51-8.93-4.29-13.06-7,2,9,7.46,16.77,13.68,23.52a34.1,34.1,0,0,0,3.22,3.14,32,32,0,0,0,3.49,2.57A13.15,13.15,0,0,0,400.58,221.43Z" style="fill:#BA68C8"></path><path d="M400.58,221.43c.09-.35.17-.7.24-1.06a13,13,0,0,0,.23,4,2.94,2.94,0,0,0,.46-1.13,7.59,7.59,0,0,0,.26,1.91,8.81,8.81,0,0,0,.55-2.59c0-.47.06-.94.07-1.41a3.79,3.79,0,0,0,0-1.3,20.73,20.73,0,0,1,1.45,7.26,1.23,1.23,0,0,0,.39-.95,8.72,8.72,0,0,1,.16,1.62,2.83,2.83,0,0,1,.33-.76c.11-.28.22-.56.32-.84.18-.53.36-1.06.55-1.59a8.71,8.71,0,0,1,0,2.79,3.35,3.35,0,0,0,.86-1.67c.07.46.14.92.2,1.38a6.13,6.13,0,0,0,1.12-1.76,15.93,15.93,0,0,1-.31,2.84l.6-.79a2.14,2.14,0,0,0,.13.9,2.77,2.77,0,0,0,1.17-1.63,8.24,8.24,0,0,1,.41,2.09c0,.4.06.81.07,1.22a3.19,3.19,0,0,1,0,1.15,12.35,12.35,0,0,0,.46-5.62,20.82,20.82,0,0,1,.73,6.68,17.86,17.86,0,0,0,.63-4.94,42,42,0,0,1,.66,5.26,14.67,14.67,0,0,0,.16-1.47c.23,1.29.41,2.59.55,3.89a11.25,11.25,0,0,0,.91-5.13,23.58,23.58,0,0,1,1.25,2.39,3.24,3.24,0,0,0,0-1.12A47,47,0,0,0,408,215a50.09,50.09,0,0,0-3.92-5.25,43,43,0,0,0-11.31-9c-4.26-2.51-8.93-4.29-13.06-7,2,9,7.46,16.77,13.68,23.52a34.1,34.1,0,0,0,3.22,3.14,32,32,0,0,0,3.49,2.57A13.15,13.15,0,0,0,400.58,221.43Z" style="opacity:0.30000000000000004"></path><path d="M377.85,191.32c11.06-3.9,32.12,1.11,42.18,8s20.54,16.07,25.33,26.41L444,226s-2.07-5.63-8.72-10.64l5.35,9.89s-7.55-.93-7.52-1.27-1.85-9.25-1.85-9.25l.74,9.17-1.58-5.08-1.65-.15-1.49-7.37.72,11.58-3.6-1.29-.37-13.49s-.67,9.71-1.82,13.61a38.23,38.23,0,0,0,.21-10.21l-.64,8.13h-1.11l-1.82-16-.3,14.66-1.38-.12L415.1,201l.11,17.48-1.69-1.1-.13-6.92-.58,6.53-1.23-.6a58.16,58.16,0,0,0-.32-10.52,78.6,78.6,0,0,1-.89,9.95s.09-6.18-.28-9.8l-.92,9.22-1.21-.86-.29-6.4-.5,5.85-.91-.65-.82-13-1.29,11.87-1.76-1.15-.75-11.15-.86,9.54-2.42-1.39-.92-7.16-.06,6.16-1.65-.83-.94-9.94-.45,9.08-4.61-3.39S381,194.79,377.85,191.32Z" style="fill:#BA68C8"></path><path d="M400.82,244.46a43.24,43.24,0,0,0-3.48-19.86,35.89,35.89,0,0,1,4.41,9.45c-.78-6.23-1.73-11.25-6-15.88,1.84,1.37,2.77,3.09,4.12,5,.22-2.42-.88-6.34-2.9-7.68a6.47,6.47,0,0,1,1.65,1.48,4.89,4.89,0,0,0-1.48-3.69,8.41,8.41,0,0,0-2-1.47c1,.48,2.06,1,2.79,1.37-.28-1.25-1.88-2.89-2.89-3.67l2,1.28a7.49,7.49,0,0,0-3.86-4.87,11.76,11.76,0,0,1,3.93,2.88,15.54,15.54,0,0,0-6.24-7.19,18.54,18.54,0,0,1,4.07,2.18,32,32,0,0,0-17.17-12.42,8,8,0,0,0-2.37,4.88l1.51-.31-1.79,1.6.13,1.06.67-.29-.77,1.4.32,1.5c.61-1.08,3.6-2.62,3.6-2.62a5.11,5.11,0,0,0-1.17,2.83,3,3,0,0,0-1.25,2.71c1.18-1.31,4.42-2.65,4.42-2.65a9.63,9.63,0,0,0-2.25,2.71l.17,1a18,18,0,0,0-2.75,3.57l.32,2.55c.82-2.17,3.89-5.09,3.89-5.09l-.11,1.87a28.07,28.07,0,0,0-3.55,7.13l.6,2c2-3.88,7.8-8.36,7.8-8.36s-6.55,8.86-7.9,14.56a72.81,72.81,0,0,1,4.92-6.35,33.77,33.77,0,0,0-2.69,6,9.09,9.09,0,0,0,1.3,3.92c1.38-2.54,4.86-5,4.86-5a45.25,45.25,0,0,0-4.26,6.92l1.64,3.7c1.42-2.78,5.73-7.57,5.73-7.57a58.94,58.94,0,0,0-4.32,9.12l1,.61c1.7-3.8,6.08-8.12,6.08-8.12a66.13,66.13,0,0,0-5.15,12l4.65-7.11-5.31,8.85s5.27-5.39,7.66-9.59c-1.37,4.65-5.39,11.69-5.39,11.69l1.62,2.08,3.4-6.22c-.28,3.15-1.7,9.67-1.7,9.67L393,250l2.65-10c-.17,3.87-.86,13.17-.86,13.17l1.71,1.42c2.43-6.28,2.38-14.65,1.45-21.32A53.56,53.56,0,0,1,400.82,244.46Z" style="fill:#BA68C8"></path><path d="M400.82,244.46a43.24,43.24,0,0,0-3.48-19.86,35.89,35.89,0,0,1,4.41,9.45c-.78-6.23-1.73-11.25-6-15.88,1.84,1.37,2.77,3.09,4.12,5,.22-2.42-.88-6.34-2.9-7.68a6.47,6.47,0,0,1,1.65,1.48,4.89,4.89,0,0,0-1.48-3.69,8.41,8.41,0,0,0-2-1.47c1,.48,2.06,1,2.79,1.37-.28-1.25-1.88-2.89-2.89-3.67l2,1.28a7.49,7.49,0,0,0-3.86-4.87,11.76,11.76,0,0,1,3.93,2.88,15.54,15.54,0,0,0-6.24-7.19,18.54,18.54,0,0,1,4.07,2.18,32,32,0,0,0-17.17-12.42,8,8,0,0,0-2.37,4.88l1.51-.31-1.79,1.6.13,1.06.67-.29-.77,1.4.32,1.5c.61-1.08,3.6-2.62,3.6-2.62a5.11,5.11,0,0,0-1.17,2.83,3,3,0,0,0-1.25,2.71c1.18-1.31,4.42-2.65,4.42-2.65a9.63,9.63,0,0,0-2.25,2.71l.17,1a18,18,0,0,0-2.75,3.57l.32,2.55c.82-2.17,3.89-5.09,3.89-5.09l-.11,1.87a28.07,28.07,0,0,0-3.55,7.13l.6,2c2-3.88,7.8-8.36,7.8-8.36s-6.55,8.86-7.9,14.56a72.81,72.81,0,0,1,4.92-6.35,33.77,33.77,0,0,0-2.69,6,9.09,9.09,0,0,0,1.3,3.92c1.38-2.54,4.86-5,4.86-5a45.25,45.25,0,0,0-4.26,6.92l1.64,3.7c1.42-2.78,5.73-7.57,5.73-7.57a58.94,58.94,0,0,0-4.32,9.12l1,.61c1.7-3.8,6.08-8.12,6.08-8.12a66.13,66.13,0,0,0-5.15,12l4.65-7.11-5.31,8.85s5.27-5.39,7.66-9.59c-1.37,4.65-5.39,11.69-5.39,11.69l1.62,2.08,3.4-6.22c-.28,3.15-1.7,9.67-1.7,9.67L393,250l2.65-10c-.17,3.87-.86,13.17-.86,13.17l1.71,1.42c2.43-6.28,2.38-14.65,1.45-21.32A53.56,53.56,0,0,1,400.82,244.46Z" style="opacity:0.1"></path><path d="M396.5,254.65c2.43-6.28,2.38-14.65,1.45-21.32a53.56,53.56,0,0,1,2.87,11.13,43.24,43.24,0,0,0-3.48-19.86,35.89,35.89,0,0,1,4.41,9.45c-.78-6.23-1.73-11.25-6-15.88,1.84,1.37,2.77,3.09,4.12,5,.22-2.42-.88-6.34-2.9-7.68a6.47,6.47,0,0,1,1.65,1.48,4.89,4.89,0,0,0-1.48-3.69,8.41,8.41,0,0,0-2-1.47c1,.48,2.06,1,2.79,1.37-.28-1.25-1.88-2.89-2.89-3.67l2,1.28a7.49,7.49,0,0,0-3.86-4.87,11.76,11.76,0,0,1,3.93,2.88,15.54,15.54,0,0,0-6.24-7.19,18.54,18.54,0,0,1,4.07,2.18,32,32,0,0,0-17.17-12.42C389.06,198,401.44,226,396.5,254.65Z" style="opacity:0.1"></path><path d="M377.85,191.32c-3-8.71-18-18.64-29.84-21.47s-29.39,2-37,9.65a53.63,53.63,0,0,1,19.08-6.57s-9.08,3-15.05,7.93l3.36,1.25s4-3.57,12.31-6.84c0,0-6.42,4.57-9.69,7.36l6.45,2s6.35-9.34,10.61-10.79a88.85,88.85,0,0,0-8,10.9l2.45.69s4.06-6.8,8.47-10.44l-6.46,11c1,.4,2.31.75,3.31,1.15l4.47-6.07q-1.59,3.1-3.19,6.21l2.4.66a94.65,94.65,0,0,1,8-11.33q-2.57,5.55-5.14,11.09l7.12-9.17q-2.21,4.47-4.39,8.95l3.49.9a61.84,61.84,0,0,1,5.09-7.84q-1.87,3.87-3.77,7.74l2.1.4a27.88,27.88,0,0,1,4.37-5q-1,2.77-1.83,5.64a9.23,9.23,0,0,1,3.84.16c2.83.58,5.57,1.55,8.39,2.16S378,191.61,377.85,191.32Z" style="fill:#BA68C8"></path><path d="M377.85,191.32c-3-8.71-18-18.64-29.84-21.47s-29.39,2-37,9.65a53.63,53.63,0,0,1,19.08-6.57s-9.08,3-15.05,7.93l3.36,1.25s4-3.57,12.31-6.84c0,0-6.42,4.57-9.69,7.36l6.45,2s6.35-9.34,10.61-10.79a88.85,88.85,0,0,0-8,10.9l2.45.69s4.06-6.8,8.47-10.44l-6.46,11c1,.4,2.31.75,3.31,1.15l4.47-6.07q-1.59,3.1-3.19,6.21l2.4.66a94.65,94.65,0,0,1,8-11.33q-2.57,5.55-5.14,11.09l7.12-9.17q-2.21,4.47-4.39,8.95l3.49.9a61.84,61.84,0,0,1,5.09-7.84q-1.87,3.87-3.77,7.74l2.1.4a27.88,27.88,0,0,1,4.37-5q-1,2.77-1.83,5.64a9.23,9.23,0,0,1,3.84.16c2.83.58,5.57,1.55,8.39,2.16S378,191.61,377.85,191.32Z" style="opacity:0.15"></path><path d="M348,169.85c11.82,2.83,26.83,12.76,29.84,21.47C373,184.16,359,174.63,345.1,172.06c-12.56-2.32-28.34,1.92-34.1,7.44C318.62,171.85,336.18,167,348,169.85Z" style="opacity:0.15"></path><path d="M377.85,191.32c-10.18-5.82-31.3-5.22-47.31-1.32-11.83,2.88-17.86,13-23.51,26.45,0,0,5.75-7.51,10-11.06l-4.64,9.4s5.2-.18,5.23-.53,3.48-8.77,3.48-8.77l-2.37,8.89,2.47-4.71,1.65.15,2.78-7-2.78,11.27,3.78-.64,2.77-13.2s-1.57,9.9-1.13,14a30.91,30.91,0,0,1,2.1-10.32l-.82,8.11,1.09.21,4.66-15.46-2.33,14.48,1.39.13,5.11-16.5-3.23,17.19,1.86-.79,1.36-6.78-.59,6.52,1.32-.37a58,58,0,0,1,2.19-10.29,80.53,80.53,0,0,0-.9,9.94s1-6.09,2-9.58l-.74,9.23,1.35-.63,1.42-6.24-.55,5.84,1-.47,3.12-12.61-.84,11.91,1.93-.82,2.73-10.83-.86,9.53,2.63-.93,2.18-6.88-1,6.07,1.78-.52,2.7-9.61-1.18,9,5.14-2.51S374.14,194.18,377.85,191.32Z" style="fill:#BA68C8"></path><path d="M328.5,221.32c.37-.2.76-.4,1.15-.58-2.53.85-5.18,1.77-7,3.74,2-2.78,4.16-5.67,7.22-7.24a11,11,0,0,1,3.9-1.16l-3.82-.2c1-1.35,2.17-2.76,3.79-3.25a8.14,8.14,0,0,1,3.64,0l-3.8-1.35,2.4-1.81a2.6,2.6,0,0,1,.77-.45,2.54,2.54,0,0,1,1,0l4.52.58a14.78,14.78,0,0,0-4.55-1.69c1.3-1.32,2.77-2.74,4.62-2.86s3.5,1,5.24.66a16.67,16.67,0,0,0-5.35-1.76c1.34-1.5,4.25-3.38,6.34-3.31a6.55,6.55,0,0,0-2.2.31,4.94,4.94,0,0,1,3.3-2.24,8.51,8.51,0,0,1,2.47-.1l-3.08-.43c.93-.88,3.17-1.34,4.45-1.42l-2.42-.09c.16,0,.75-.59.92-.7a7.17,7.17,0,0,1,1-.56,4.67,4.67,0,0,1,2.1-.53,8.74,8.74,0,0,0-3.38,0,16.59,16.59,0,0,1,5.85-2,8.52,8.52,0,0,0-2.76,0,28.37,28.37,0,0,1,8.65-2.55,32.09,32.09,0,0,1,10.93.22,16.86,16.86,0,0,1,3.41.82c.92,3.56-.82,7.7-3.57,10a8.87,8.87,0,0,0-.59-2.9c-.25-.6-.54-1.19-.85-1.77a5.15,5.15,0,0,1-.62,3,2.94,2.94,0,0,1-.48,2.94c-.25-1.74-2.18-4.66-2.18-4.66a9.45,9.45,0,0,1,.35,3.5l-.69.72a18.59,18.59,0,0,1,.28,4.5l-1.7,1.93c.54-2.25-.37-6.38-.37-6.38l-1,1.6a27.87,27.87,0,0,1-1.05,7.9l-1.6,1.31a26.58,26.58,0,0,0-.55-8.55s.22,9.17-2.83,13.74a72.13,72.13,0,0,0-.53-8,33.85,33.85,0,0,1-1.11,6.45,9.08,9.08,0,0,1-3.27,2.52c.28-2.88-1.21-6.89-1.21-6.89a44.63,44.63,0,0,1-.33,8.11c-.63.39-1.27.76-1.86,1.2-.21.16-2.1,1.23-2.1,1.21a37.2,37.2,0,0,0,.23-7.68,34.13,34.13,0,0,1-1.28,6.56,3,3,0,0,1-.71,1.36,1.06,1.06,0,0,1-1.41.05c.56-3.14,1.11-6.29,1.66-9.43a40.81,40.81,0,0,1-3.22,10.11,59.71,59.71,0,0,0,1-6.92,48.86,48.86,0,0,1-2.11,6.68,53.08,53.08,0,0,0,.85-7.85c-.77,3.08-1.53,6.17-2.3,9.25a7,7,0,0,0-2.15-.06c.3-2.44.61-4.88.91-7.33l-2.46,8.3a8.5,8.5,0,0,0-2.89.07c.73-2.3,1.47-4.6,2.2-6.9l-3.64,7.3a1.59,1.59,0,0,1-.4.55,1.69,1.69,0,0,1-1.18.09,5,5,0,0,0-2.95.55,29.59,29.59,0,0,1,4.48-7.14l-8.79,8.21a6.17,6.17,0,0,1-1.54,1.16,8.21,8.21,0,0,1-2.2.52,14.28,14.28,0,0,0-5.17,1.9C320.32,228,323.86,223.82,328.5,221.32Z" style="fill:#BA68C8"></path><path d="M374.44,190.5a32.09,32.09,0,0,0-10.93-.22,28.37,28.37,0,0,0-8.65,2.55,8.52,8.52,0,0,1,2.76,0,16.59,16.59,0,0,0-5.85,2,8.74,8.74,0,0,1,3.38,0,4.67,4.67,0,0,0-2.1.53,7.17,7.17,0,0,0-1,.56c-.17.11-.76.71-.92.7l2.42.09c-1.28.08-3.52.54-4.45,1.42l3.08.43a8.51,8.51,0,0,0-2.47.1,4.94,4.94,0,0,0-3.3,2.24,6.55,6.55,0,0,1,2.2-.31c-2.09-.07-5,1.81-6.34,3.31a16.67,16.67,0,0,1,5.35,1.76c-1.74.34-3.47-.78-5.24-.66s-3.32,1.54-4.62,2.86a14.78,14.78,0,0,1,4.55,1.69l-4.52-.58a2.54,2.54,0,0,0-1,0,2.6,2.6,0,0,0-.77.45l-2.4,1.81,3.8,1.35a8.14,8.14,0,0,0-3.64,0c-1.62.49-2.76,1.9-3.79,3.25l3.82.2a11,11,0,0,0-3.9,1.16c-3.06,1.57-5.2,4.46-7.22,7.24,1.79-2,4.44-2.89,7-3.74-.39.18-.78.38-1.15.58-4.21,2.27-7.5,5.94-10.6,9.66,19.91-17.94,52.28-37.33,60-39.66A19.23,19.23,0,0,0,374.44,190.5Z" style="opacity:0.1"></path><path d="M377.85,191.32c7.79-9.7,14.8-12.8,33.72-10.54,11,1.3,27.28,8.07,35,15l-1,.71a23.9,23.9,0,0,0-11.07-5.76l8,6.34s-6.63,1.92-6.73,1.62-4.84-7-4.84-7l3.89,7.38-3.13-3.67-1.43.47-3.88-5.62,4.74,9.4-3.47.21-5.12-11.12s2.91,8.34,3.34,12a34.62,34.62,0,0,0-3.47-8.6l2.37,7-.92.4-7.24-12.72,5,12.34-1.2.39-7.85-13.56,6.33,14.54-1.81-.31-2.57-5.73,1.83,5.65L415,200a53.61,53.61,0,0,0-4-8.66,71.41,71.41,0,0,1,2.8,8.61s-2.12-5.18-3.72-8.07l2.52,8-1.32-.28-2.52-5.23,1.67,5.05-1-.21-5.3-10.52,3.15,10.36-1.88-.33-4.6-9,2.69,8.26-2.52-.29-3.32-5.64,2.15,5.15-1.68-.1-4.33-7.95,2.87,7.73-5.05-1.18S381.71,193.1,377.85,191.32Z" style="fill:#BA68C8"></path><path d="M377.85,191.32c7.79-9.7,14.8-12.8,33.72-10.54,11,1.3,27.28,8.07,35,15l-1,.71a23.9,23.9,0,0,0-11.07-5.76l8,6.34s-6.63,1.92-6.73,1.62-4.84-7-4.84-7l3.89,7.38-3.13-3.67-1.43.47-3.88-5.62,4.74,9.4-3.47.21-5.12-11.12s2.91,8.34,3.34,12a34.62,34.62,0,0,0-3.47-8.6l2.37,7-.92.4-7.24-12.72,5,12.34-1.2.39-7.85-13.56,6.33,14.54-1.81-.31-2.57-5.73,1.83,5.65L415,200a53.61,53.61,0,0,0-4-8.66,71.41,71.41,0,0,1,2.8,8.61s-2.12-5.18-3.72-8.07l2.52,8-1.32-.28-2.52-5.23,1.67,5.05-1-.21-5.3-10.52,3.15,10.36-1.88-.33-4.6-9,2.69,8.26-2.52-.29-3.32-5.64,2.15,5.15-1.68-.1-4.33-7.95,2.87,7.73-5.05-1.18S381.71,193.1,377.85,191.32Z" style="opacity:0.1"></path><path d="M417.27,156.73a39.07,39.07,0,0,0-16.18,8.53,32.41,32.41,0,0,1,6.94-6.44c-5.17,2.4-9.24,4.62-12.06,9.57.68-2,1.9-3.25,3.13-4.94-2.15.49-5.24,2.53-5.82,4.65a5.64,5.64,0,0,1,.82-1.84,4.41,4.41,0,0,0-2.78,2.31,7.48,7.48,0,0,0-.72,2.12c.15-1,.31-2.07.41-2.79a7.69,7.69,0,0,0-2.36,3.52l.53-2.13a6.86,6.86,0,0,0-3.13,4.69,10.76,10.76,0,0,1,1.39-4.19,14.12,14.12,0,0,0-4.47,7.39,16.91,16.91,0,0,1,.75-4.12,28.9,28.9,0,0,0-5.87,18.26,7,7,0,0,0,4.79.7L382,190.8l1.88,1.1c.3-.14.83-.23,1-.47a8.23,8.23,0,0,0-2-1.29,21.43,21.43,0,0,0,2.54.92,3,3,0,0,0,.79.14,2.73,2.73,0,0,0,1.59-.86,36.34,36.34,0,0,1-3.93-2,43.2,43.2,0,0,0,4.53.6,3.42,3.42,0,0,0,1.46-.11,22.54,22.54,0,0,1-4.53-1.66q3.2.51,6.44.71a26.89,26.89,0,0,1-3-1.33,21.59,21.59,0,0,0,5.5,1.17,1.42,1.42,0,0,0,.65-.07,1.3,1.3,0,0,0,.35-.31l.72-.8a39.65,39.65,0,0,1-3.91-1.54,46.17,46.17,0,0,0,5.24.48,2.72,2.72,0,0,0,1.85-.3l1-.69a19.4,19.4,0,0,1-7.23-3s7.31,1.84,12.61,1.42a66.11,66.11,0,0,1-6.85-2.49,30.71,30.71,0,0,0,5.9.67,8.15,8.15,0,0,0,3-2.22,17.57,17.57,0,0,1-5.69-2.79,40.44,40.44,0,0,0,7.15,1.76l2.74-2.45c-2.8-.45-8.12-2.84-8.12-2.84a52.07,52.07,0,0,0,9.07,1.19l.25-1c-3.75-.42-8.7-3-8.7-3a60.51,60.51,0,0,0,11.8,1.1l-7.43-2,9.11,2.13s-6.11-3.05-10.4-3.94c4.39-.11,11.59,1.4,11.59,1.4l1.35-2L414,165.14c2.8-.63,8.83-1.21,8.83-1.21l1.4-2-9.34.49c3.39-.93,11.61-2.92,11.61-2.92l.75-1.87c-6.1-.36-13.31,2-18.81,4.67A48.87,48.87,0,0,1,417.27,156.73Z" style="fill:#BA68C8"></path><path d="M427.27,157.63c-6.1-.36-13.31,2-18.81,4.67a48.87,48.87,0,0,1,8.81-5.57,39.07,39.07,0,0,0-16.18,8.53,32.41,32.41,0,0,1,6.94-6.44c-5.17,2.4-9.24,4.62-12.06,9.57.68-2,1.9-3.25,3.13-4.94-2.15.49-5.24,2.53-5.82,4.65a5.64,5.64,0,0,1,.82-1.84,4.41,4.41,0,0,0-2.78,2.31,7.48,7.48,0,0,0-.72,2.12c.15-1,.31-2.07.41-2.79a7.69,7.69,0,0,0-2.36,3.52l.53-2.13a6.86,6.86,0,0,0-3.13,4.69,10.76,10.76,0,0,1,1.39-4.19,14.12,14.12,0,0,0-4.47,7.39,16.91,16.91,0,0,1,.75-4.12,28.9,28.9,0,0,0-5.87,18.26C380.46,179.8,401.12,161.34,427.27,157.63Z" style="opacity:0.1"></path></g></g><g id="palm-2"><g id="palm"><path d="M251.76,92.17c.87,36.44-3,80.43-7.65,115.29-8.33,62.74-9.05,116-8.74,177.75,11.14-.06,32.21-11.13,33.3-.14-5.81-58.61-12.2-109.4-7.81-176.74,1.92-29.33,5.66-81.9,1.24-114C258.72,92,255.32,92.42,251.76,92.17Z" style="fill:#263238"></path><path d="M254.93,103.75a27.11,27.11,0,0,1,8.4-12.93c-1,3.49-.22,7.3-.43,10.72C262.66,105.44,257.43,104.66,254.93,103.75Z" style="fill:#455a64"></path><path d="M261.28,104a50.19,50.19,0,0,0-4-7.65,29,29,0,0,0-6.64-7.19c.8,3,.93,7.8,1,10.45s1.69,3.08,3.36,4A8.07,8.07,0,0,0,261.28,104Z" style="fill:#37474f"></path><path d="M254.92,114.88A29.56,29.56,0,0,1,263.46,100c-.69,4,.5,7.77.34,11.79C263.62,116.27,258.13,116.26,254.92,114.88Z" style="fill:#37474f"></path><path d="M261.87,115.1a97.3,97.3,0,0,0-5-9.31A38.92,38.92,0,0,0,250,98.25c1.5,3.29,1.62,8.9,1.41,11.92s1.81,3.52,3.57,4.64A7.78,7.78,0,0,0,261.87,115.1Z" style="fill:#455a64"></path><path d="M254.71,129c1.68-6.52,4.83-13.09,9.75-17.85-.92,4.63-.18,9.47-.33,14.12C264,130.3,258.47,130.63,254.71,129Z" style="fill:#455a64"></path><path d="M262.35,129c-1.64-3.58-3.36-7.08-5.32-10.45-2.13-3.68-4-7.5-7.61-9.9,1.88,4.13,1.52,11.31,1.35,15s1.94,3.94,3.92,5.29C257,130.47,260,130.18,262.35,129Z" style="fill:#37474f"></path><path d="M254.66,144.76c2.14-7.89,6.91-14,10.24-21.33-.49,5.51.37,13,.19,18.36C263.23,145.61,258.74,146.27,254.66,144.76Z" style="fill:#37474f"></path><path d="M262.75,144.64a78,78,0,0,0-5.59-11.56,65.42,65.42,0,0,0-7.91-10.57c1.28,4.55,1.06,13.31,1.05,17.25a6.88,6.88,0,0,0,4.31,4.91C257.91,146,260.27,145.84,262.75,144.64Z" style="fill:#455a64"></path><path d="M254.14,162.19c2.07-7.79,5.52-16.3,11.89-21.64-1.69,5.56-.41,11.95-.62,17.59C264.66,162.69,258.58,163.93,254.14,162.19Z" style="fill:#455a64"></path><path d="M263.08,162a68.27,68.27,0,0,0-6.21-12.84c-1.93-3.26-5.72-9.49-7.92-13.15,1,5.47.28,16.4.15,21,.82,2.53,2.34,4,5,5.1A11.08,11.08,0,0,0,263.08,162Z" style="fill:#37474f"></path><path d="M253,179.82a62.64,62.64,0,0,1,13.89-23.29c-1.06,6.16-1.27,12.4-1.84,18.58S257.66,181.53,253,179.82Z" style="fill:#37474f"></path><path d="M262.71,179.55A107.61,107.61,0,0,0,256,167c-2.56-4.07-5-8.5-8.37-11.89,1.45,5.26.62,14,.22,18.42.92,3.29,2.57,4.75,5.05,6.29C255.72,181.54,259.83,181,262.71,179.55Z" style="fill:#455a64"></path><path d="M250.76,198.57c3.46-9.9,11.06-16.68,15.19-26.07-.71,7-.87,14.64-1.75,21.51S255.73,200.66,250.76,198.57Z" style="fill:#455a64"></path><path d="M261.11,198.78c-2-4.24-4-8.05-5.89-12.43-2.2-5.17-4.4-11.18-8.42-15.24.84,5.79-.24,15.66-.67,20.46s1.91,5.07,4.52,7C253.62,200.66,257.93,200.23,261.11,198.78Z" style="fill:#37474f"></path><path d="M248.49,220.92c3.48-11.85,9.59-20,17.75-28.95-1.86,7.71-2.24,16.13-3.29,23.8S254.17,223.56,248.49,220.92Z" style="fill:#37474f"></path><path d="M259.93,221.3a79.06,79.06,0,0,0-7.59-16.86c-3.28-5.19-5.38-11-8.44-16.05.48,6.82-.17,18.75-.45,24.38s1.91,5.81,4.87,8.09C251.71,223.46,256.3,222.91,259.93,221.3Z" style="fill:#455a64"></path><path d="M245.93,245c4.14-12,10.5-23.9,20.43-32.15-2.58,8.42-3.12,17.53-4.42,26S252.53,248,245.93,245Z" style="fill:#455a64"></path><path d="M258.64,245.26a68.55,68.55,0,0,0-6.91-17.58c-2.43-4.55-7.43-12.56-10.58-17.37.55,7.12-.37,19.55-.77,25.58s2,6.57,5.35,9.07C249.52,247.82,254.6,247.14,258.64,245.26Z" style="fill:#37474f"></path><path d="M243.77,271.87c4.61-13.83,12.78-25.57,21.64-37a223.74,223.74,0,0,0-4.74,30C259,273.57,251.28,275.21,243.77,271.87Z" style="fill:#37474f"></path><path d="M257.26,271.71c-2.65-7.41-4.62-13-8-20.55a209.86,209.86,0,0,0-10.48-19.65c1.07,8.46-.52,23.72-1,30.69s2.3,6.91,5.83,9.64C247.6,275,253.13,273.8,257.26,271.71Z" style="fill:#455a64"></path><path d="M243.13,300.7c3.12-16,11.54-27.87,20.19-41.38A252.09,252.09,0,0,0,261,293.17C259.63,300.52,251.27,303.07,243.13,300.7Z" style="fill:#455a64"></path><path d="M258,299.18c-3.45-6.38-6.49-11.85-10.42-18.14-4.28-6.87-9-14.77-12.12-22.25.58,9,.07,25.27.14,32.72s3.21,6.84,7.33,9.18C247.58,303.35,253.59,301.73,258,299.18Z" style="fill:#37474f"></path><path d="M243.61,327.55c3.59-14.51,12.48-25.59,19.84-38.3-.87,9.72-.48,20.79-.13,30.55C261.06,327.44,252,329.79,243.61,327.55Z" style="fill:#37474f"></path><path d="M259.63,325.71c-4.34-6.81-8-12.36-13.11-19-4.22-5.54-9.51-13-14.68-18,1.42,8.31,2.5,22.77,3.17,29.84s3.89,6.9,8.32,9.06C248.39,330.08,254.94,328.6,259.63,325.71Z" style="fill:#455a64"></path><path d="M244.66,358.72c3.29-16,10.47-29.57,20.92-42.19-1.22,10.41-.32,18.75-.09,29.53C265.72,356.49,254.41,362.07,244.66,358.72Z" style="fill:#455a64"></path><path d="M262.35,355.61A144.51,144.51,0,0,0,248,334.87c-4.62-5.74-10.93-14-15.82-19.95,1.31,9.19,2.45,24.83,3.1,32.72s3.9,8.59,9.06,11.23C250.18,361.89,257.33,359.44,262.35,355.61Z" style="fill:#37474f"></path><path d="M241.37,392.64c5.75-21.1,16-34,25.88-52-1.09,14.55.37,29.37,1.47,43.9C269.06,392.28,253.7,397.48,241.37,392.64Z" style="fill:#37474f"></path><path d="M265.49,390.48c-6.38-7.42-9.37-12.94-15.89-22.19-4.24-6-14.1-19.87-17.35-28.39,1.54,15,1.69,29.82,2.2,45.2.29,5.08,6.45,7.66,8.9,8.38C249.25,395.23,258.67,395.76,265.49,390.48Z" style="fill:#455a64"></path><path d="M256.9,85.42c2.69-.82,1.27-15.65-6.91-30.72s-14.51-24.31-46-23.57l15.58,3.62s-9.36-1.17-14-.74c.37,0,1.12,2.13,1.25,2.46a31.22,31.22,0,0,0,2.16,4h7.8a37,37,0,0,1,7.36.49,39.22,39.22,0,0,0-11.93,2.27l3.06,5.07a49.39,49.39,0,0,1,16.25-2.66,86.64,86.64,0,0,0-11.86,4.82l1.28,2.6a54.52,54.52,0,0,1,18.56-3.48A68.65,68.65,0,0,0,225,56.12a21.08,21.08,0,0,0,2.68,4.18l6.91-2.41-4.86,2.94A3.23,3.23,0,0,0,228.49,62a1.1,1.1,0,0,0,.38,1.49L242,60a61.61,61.61,0,0,0-11,5.1c-.31.19,4.37,5.89,4.82,6.37a36.29,36.29,0,0,0,6.41,5.38c1,.69,2.21,1.19,3.24,1.86,1.2.8,2.24,1.92,3.43,2.76A32.33,32.33,0,0,0,256.9,85.42Z" style="fill:#BA68C8"></path><path d="M256.9,85.42c2.69-.82,1.27-15.65-6.91-30.72s-14.51-24.31-46-23.57l15.58,3.62s-9.36-1.17-14-.74c.37,0,1.12,2.13,1.25,2.46a31.22,31.22,0,0,0,2.16,4h7.8a37,37,0,0,1,7.36.49,39.22,39.22,0,0,0-11.93,2.27l3.06,5.07a49.39,49.39,0,0,1,16.25-2.66,86.64,86.64,0,0,0-11.86,4.82l1.28,2.6a54.52,54.52,0,0,1,18.56-3.48A68.65,68.65,0,0,0,225,56.12a21.08,21.08,0,0,0,2.68,4.18l6.91-2.41-4.86,2.94A3.23,3.23,0,0,0,228.49,62a1.1,1.1,0,0,0,.38,1.49L242,60a61.61,61.61,0,0,0-11,5.1c-.31.19,4.37,5.89,4.82,6.37a36.29,36.29,0,0,0,6.41,5.38c1,.69,2.21,1.19,3.24,1.86,1.2.8,2.24,1.92,3.43,2.76A32.33,32.33,0,0,0,256.9,85.42Z" style="opacity:0.15"></path><path d="M227.54,119.81a15.47,15.47,0,0,0-6.36,2.32,11.07,11.07,0,0,1,5.13.67,10.74,10.74,0,0,0-10.77,6.46c3.13-1.24,6.41-2.5,9.77-2.22a38.53,38.53,0,0,0-8.84,6.35,40.68,40.68,0,0,1,7.9-1.21q-3.87,2.46-7.68,5a5.56,5.56,0,0,0-1.92,1.81,31.84,31.84,0,0,1,7.31-2.48,51,51,0,0,0-6.74,4.31,5.2,5.2,0,0,0-1.28,1.24,5.6,5.6,0,0,0-.65,2.81,28.89,28.89,0,0,1,4.38-3.06,15.18,15.18,0,0,1-2.6,2.72c-.86.92-1.45,2.39-.71,3.41a20.7,20.7,0,0,1,5.62-5.3c-1.67,3-4.57,5.43-4.94,8.81a8.8,8.8,0,0,0,.25,3,5.36,5.36,0,0,0,.71,2.25,28.58,28.58,0,0,1,2.07-5.93,16.13,16.13,0,0,1,1.69-2.63A15.54,15.54,0,0,1,221,147c.21-.2.95-.66,1-.91a125.09,125.09,0,0,0-3.46,16.51q3.58-7.94,7.18-15.87a37.29,37.29,0,0,1-2.08,12.91,9.24,9.24,0,0,1,3-2.6c2.27-1.25,2.85-4.25,2.8-6.84s-.44-5.36.78-7.64l.24,8.86c1.29,0,1.71-1.7,1.7-3,0-2.63,0-5.25,0-7.88a25.46,25.46,0,0,1,.35,8.66c2-.68,2.53-3.18,2.69-5.27.31-4,.34-8.23-1.33-11.9a19.87,19.87,0,0,1,3.11,9.56,2.68,2.68,0,0,0,2.31-2,7.72,7.72,0,0,0,0-3.28,38.87,38.87,0,0,0-2.39-10,59.35,59.35,0,0,1,5.35,13,35.15,35.15,0,0,0-2.39-14.52,40.36,40.36,0,0,1,4.68,7.87A25.5,25.5,0,0,0,242.54,122a12.14,12.14,0,0,1,3.36,4.73,20.89,20.89,0,0,0-1-9.51,27.32,27.32,0,0,1,2.38,4.3,14.28,14.28,0,0,0,1.35-12.84l2.93,4.75a13.15,13.15,0,0,0-.66-11.46l3.3,3.43c.41-3.61,2.62-18.77,2.69-20-.84.07-17.07,5.7-26.19,18a18.26,18.26,0,0,1,5-1.8l-2.59,2-.81.6-1.36,1q-2.08,1.62-4,3.41a21.44,21.44,0,0,1,6.76-1.81,23.28,23.28,0,0,0-9.65,7.09,7.39,7.39,0,0,1,4.66-1.65,15.66,15.66,0,0,0-8.17,6.42c.09-.38,2.82-.08,3.24,0A18.25,18.25,0,0,1,227.54,119.81Z" style="fill:#BA68C8"></path><path d="M227.54,119.81a15.47,15.47,0,0,0-6.36,2.32,11.07,11.07,0,0,1,5.13.67,10.74,10.74,0,0,0-10.77,6.46c3.13-1.24,6.41-2.5,9.77-2.22a38.53,38.53,0,0,0-8.84,6.35,40.68,40.68,0,0,1,7.9-1.21q-3.87,2.46-7.68,5a5.56,5.56,0,0,0-1.92,1.81,31.84,31.84,0,0,1,7.31-2.48,51,51,0,0,0-6.74,4.31,5.2,5.2,0,0,0-1.28,1.24,5.6,5.6,0,0,0-.65,2.81,28.89,28.89,0,0,1,4.38-3.06,15.18,15.18,0,0,1-2.6,2.72c-.86.92-1.45,2.39-.71,3.41a20.7,20.7,0,0,1,5.62-5.3c-1.67,3-4.57,5.43-4.94,8.81a8.8,8.8,0,0,0,.25,3,5.36,5.36,0,0,0,.71,2.25,28.58,28.58,0,0,1,2.07-5.93,16.13,16.13,0,0,1,1.69-2.63A15.54,15.54,0,0,1,221,147c.21-.2.95-.66,1-.91a125.09,125.09,0,0,0-3.46,16.51q3.58-7.94,7.18-15.87a37.29,37.29,0,0,1-2.08,12.91,9.24,9.24,0,0,1,3-2.6c2.27-1.25,2.85-4.25,2.8-6.84s-.44-5.36.78-7.64l.24,8.86c1.29,0,1.71-1.7,1.7-3,0-2.63,0-5.25,0-7.88a25.46,25.46,0,0,1,.35,8.66c2-.68,2.53-3.18,2.69-5.27.31-4,.34-8.23-1.33-11.9a19.87,19.87,0,0,1,3.11,9.56,2.68,2.68,0,0,0,2.31-2,7.72,7.72,0,0,0,0-3.28,38.87,38.87,0,0,0-2.39-10,59.35,59.35,0,0,1,5.35,13,35.15,35.15,0,0,0-2.39-14.52,40.36,40.36,0,0,1,4.68,7.87A25.5,25.5,0,0,0,242.54,122a12.14,12.14,0,0,1,3.36,4.73,20.89,20.89,0,0,0-1-9.51,27.32,27.32,0,0,1,2.38,4.3,14.28,14.28,0,0,0,1.35-12.84l2.93,4.75a13.15,13.15,0,0,0-.66-11.46l3.3,3.43c.41-3.61,2.62-18.77,2.69-20-.84.07-17.07,5.7-26.19,18a18.26,18.26,0,0,1,5-1.8l-2.59,2-.81.6-1.36,1q-2.08,1.62-4,3.41a21.44,21.44,0,0,1,6.76-1.81,23.28,23.28,0,0,0-9.65,7.09,7.39,7.39,0,0,1,4.66-1.65,15.66,15.66,0,0,0-8.17,6.42c.09-.38,2.82-.08,3.24,0A18.25,18.25,0,0,1,227.54,119.81Z" style="opacity:0.30000000000000004"></path><path d="M256.9,85.42c-2.82,0-8-9.31-4.61-26.1S265.11,30.45,286,24l-12.09,8.42s8.62-3.85,13.19-4.8l-1.36,3.48a53.76,53.76,0,0,0-13.39,6.12,103.63,103.63,0,0,1,12.23-3.12l-2.79,6.2A127,127,0,0,0,267,42.07c6.32-1,13.76.87,13.76.87l-1.05,2.51a55.61,55.61,0,0,0-13.37-.21c9.09,1.21,11.89,2.19,11.89,2.19L275,52.9s-5.45-1.54-14.87-1c10.13,2.94,13.46,3.43,13.46,3.43l-2.27,5.07-8.51-1,8,2.55-13.61-.3,12.63,2.54-1.55,3s-5.79-2.85-11.35-2.41c8.27,1.82,10.65,4.39,10.65,4.39Z" style="fill:#BA68C8"></path><path d="M256.9,85.42c5.63-9.67,25.93-18,40.68-18.58s34.53,9.31,41.8,20.21a65.16,65.16,0,0,0-21.17-12.31s10.1,5.72,16.05,13l-4.29.7s-4-5.19-13.05-11c0,0,6.56,7,9.8,11l-8.15.85s-5.36-12.61-10.09-15.34c0,0,4.91,8.68,7,14.86l-3.08.24s-3.23-9-7.63-14.43l5.09,14.67c-1.28.23-2.92.35-4.2.58l-3.9-8.27,2.34,8.14-3,.22a113.91,113.91,0,0,0-6.82-15.37Q296,81.79,297.72,89l-6.3-12.6q1.54,5.85,3.11,11.69l-4.36.26A75.48,75.48,0,0,0,286,77.8q1.32,5.06,2.66,10.1H286a33.61,33.61,0,0,0-4-7q.57,3.56.85,7.14a11.41,11.41,0,0,0-4.61-.71c-3.51,0-7,.53-10.51.6S256.71,85.74,256.9,85.42Z" style="fill:#BA68C8"></path><path d="M256.9,85.42c5.63-9.67,25.93-18,40.68-18.58s34.53,9.31,41.8,20.21a65.16,65.16,0,0,0-21.17-12.31s10.1,5.72,16.05,13l-4.29.7s-4-5.19-13.05-11c0,0,6.56,7,9.8,11l-8.15.85s-5.36-12.61-10.09-15.34c0,0,4.91,8.68,7,14.86l-3.08.24s-3.23-9-7.63-14.43l5.09,14.67c-1.28.23-2.92.35-4.2.58l-3.9-8.27,2.34,8.14-3,.22a113.91,113.91,0,0,0-6.82-15.37Q296,81.79,297.72,89l-6.3-12.6q1.54,5.85,3.11,11.69l-4.36.26A75.48,75.48,0,0,0,286,77.8q1.32,5.06,2.66,10.1H286a33.61,33.61,0,0,0-4-7q.57,3.56.85,7.14a11.41,11.41,0,0,0-4.61-.71c-3.51,0-7,.53-10.51.6S256.71,85.74,256.9,85.42Z" style="opacity:0.15"></path><path d="M297.58,66.84c-14.75.6-35.05,8.91-40.68,18.58C264.38,78,283.35,70,300.52,70.17c15.51.19,33.3,9,38.86,16.88C332.11,76.15,312.34,66.25,297.58,66.84Z" style="opacity:0.15"></path><path d="M291.23,123.25c.09-.48.15-1,.2-1.46a17.72,17.72,0,0,0,.8,5.36,3.86,3.86,0,0,0,.47-1.59,10.86,10.86,0,0,0,.6,2.56,12.28,12.28,0,0,0,.41-3.57c0-.64,0-1.27-.07-1.91a5.07,5.07,0,0,0-.14-1.75c1.69,2.9,2.28,6.3,2.83,9.61a1.64,1.64,0,0,0,.42-1.32,12.11,12.11,0,0,1,.41,2.16,4,4,0,0,1,.36-1.06c.11-.39.22-.78.32-1.17.18-.74.36-1.48.55-2.22a11.4,11.4,0,0,1,.39,3.77,4.58,4.58,0,0,0,1-2.37l.45,1.84a8.06,8.06,0,0,0,1.28-2.51,20.84,20.84,0,0,1-.06,3.87l.7-1.14a3.12,3.12,0,0,0,.3,1.2,3.7,3.7,0,0,0,1.37-2.34,11,11,0,0,1,.82,2.77c.09.54.17,1.09.24,1.64a5.16,5.16,0,0,1,.17,1.55c.76-2.46.35-5.1-.07-7.63a28,28,0,0,1,1.8,8.92,24.6,24.6,0,0,0,.25-6.75,54.39,54.39,0,0,1,1.52,7,18.88,18.88,0,0,0,0-2q.7,2.57,1.22,5.18a15.22,15.22,0,0,0,.6-7,28.1,28.1,0,0,1,2,3.07,3.81,3.81,0,0,0-.16-1.5c-2.36-7.69-6.76-14.56-11.79-20.81a67.46,67.46,0,0,0-5.92-6.61c-4.62-4.62-10.5-8-16.36-10.81-6.05-2.87-12.57-4.7-18.47-7.8,3.84,11.82,12.11,21.72,21.32,30.07a44.57,44.57,0,0,0,4.73,3.84,42.84,42.84,0,0,0,5,3.06A17.12,17.12,0,0,0,291.23,123.25Z" style="fill:#BA68C8"></path><path d="M291.23,123.25c.09-.48.15-1,.2-1.46a17.72,17.72,0,0,0,.8,5.36,3.86,3.86,0,0,0,.47-1.59,10.86,10.86,0,0,0,.6,2.56,12.28,12.28,0,0,0,.41-3.57c0-.64,0-1.27-.07-1.91a5.07,5.07,0,0,0-.14-1.75c1.69,2.9,2.28,6.3,2.83,9.61a1.64,1.64,0,0,0,.42-1.32,12.11,12.11,0,0,1,.41,2.16,4,4,0,0,1,.36-1.06c.11-.39.22-.78.32-1.17.18-.74.36-1.48.55-2.22a11.4,11.4,0,0,1,.39,3.77,4.58,4.58,0,0,0,1-2.37l.45,1.84a8.06,8.06,0,0,0,1.28-2.51,20.84,20.84,0,0,1-.06,3.87l.7-1.14a3.12,3.12,0,0,0,.3,1.2,3.7,3.7,0,0,0,1.37-2.34,11,11,0,0,1,.82,2.77c.09.54.17,1.09.24,1.64a5.16,5.16,0,0,1,.17,1.55c.76-2.46.35-5.1-.07-7.63a28,28,0,0,1,1.8,8.92,24.6,24.6,0,0,0,.25-6.75,54.39,54.39,0,0,1,1.52,7,18.88,18.88,0,0,0,0-2q.7,2.57,1.22,5.18a15.22,15.22,0,0,0,.6-7,28.1,28.1,0,0,1,2,3.07,3.81,3.81,0,0,0-.16-1.5c-2.36-7.69-6.76-14.56-11.79-20.81a67.46,67.46,0,0,0-5.92-6.61c-4.62-4.62-10.5-8-16.36-10.81-6.05-2.87-12.57-4.7-18.47-7.8,3.84,11.82,12.11,21.72,21.32,30.07a44.57,44.57,0,0,0,4.73,3.84,42.84,42.84,0,0,0,5,3.06A17.12,17.12,0,0,0,291.23,123.25Z" style="opacity:0.30000000000000004"></path><path d="M256.9,85.42C271.34,78.81,300.38,83,314.79,91s29.68,19.2,37.4,32.57l-1.78.54s-3.48-7.36-13.06-13.3l8.42,12.7s-10.3-.34-10.3-.81-3.63-12.26-3.63-12.26L334,122.73l-2.75-6.65H329l-2.91-9.77,2.39,15.55-5-1.32-2.14-18.15s.28,13.19-.8,18.59a51.56,51.56,0,0,0-1-13.82l.13,11-1.5.15-4.4-21.42,1.38,19.82h-1.88l-4.9-22.88,2.27,23.58-2.41-1.28-1-9.32v8.87l-1.73-.66a79.28,79.28,0,0,0-1.7-14.15,108.89,108.89,0,0,1,0,13.53s-.63-8.34-1.57-13.19l-.12,12.55-1.74-1-1.16-8.59,0,7.94-1.31-.75L295.22,94l-.31,16.17-2.51-1.34-2.36-15v13l-3.43-1.58-2.11-9.55.67,8.31-2.34-.91-2.47-13.29.5,12.3-6.63-4S261.56,89.72,256.9,85.42Z" style="fill:#BA68C8"></path><path d="M294.35,154.3a58.48,58.48,0,0,0-7.1-26.37,48.28,48.28,0,0,1,7.09,12.22c-1.79-8.32-3.7-15-10-20.72,2.64,1.64,4.11,3.84,6.16,6.18,0-3.28-2-8.45-4.85-10a8.59,8.59,0,0,1,2.4,1.8,6.62,6.62,0,0,0-2.45-4.81,11,11,0,0,0-2.86-1.74c1.38.54,2.92,1.13,3.93,1.5-.52-1.65-2.88-3.66-4.35-4.59l2.92,1.48a10.18,10.18,0,0,0-5.8-6.11,16.11,16.11,0,0,1,5.65,3.41,21.09,21.09,0,0,0-9.3-8.94,25.21,25.21,0,0,1,5.76,2.45A43.21,43.21,0,0,0,256.9,85.42a10.73,10.73,0,0,0-2.6,6.84l2-.61L254.09,94l.29,1.42.88-.48-.88,2,.61,2c.7-1.52,4.54-4,4.54-4s-1.48,2.18-1.22,4a4,4,0,0,0-1.36,3.8c1.43-1.9,5.64-4.1,5.64-4.1-1.4,1.05-2.71,3.93-2.71,3.93l.35,1.31A24.51,24.51,0,0,0,257,109l.75,3.4c.84-3,4.62-7.33,4.62-7.33l.09,2.53a37.6,37.6,0,0,0-3.92,10.06l1,2.59C261.74,114.8,269,108,269,108s-7.76,12.76-8.9,20.61a99.3,99.3,0,0,1,5.88-9.16,45.61,45.61,0,0,0-2.91,8.38,12.24,12.24,0,0,0,2.24,5.13c1.54-3.6,5.93-7.39,5.93-7.39a61.68,61.68,0,0,0-4.91,9.85l2.67,4.8c1.57-3.93,6.81-10.91,6.81-10.91a78.46,78.46,0,0,0-4.71,12.83l1.39.7c1.84-5.33,7.21-11.7,7.21-11.7A90.46,90.46,0,0,0,274.26,148l5.42-10.15-6.1,12.58s6.46-7.91,9.16-13.87C281.46,143,276.9,153,276.9,153l2.44,2.62,3.83-8.82c0,4.29-1.12,13.27-1.12,13.27l2.44,2.7L286.84,149c.25,5.25.44,17.88.44,17.88l2.49,1.71c2.52-8.77,1.43-20.06-.64-28.94A71.9,71.9,0,0,1,294.35,154.3Z" style="fill:#BA68C8"></path><path d="M294.35,154.3a58.48,58.48,0,0,0-7.1-26.37,48.28,48.28,0,0,1,7.09,12.22c-1.79-8.32-3.7-15-10-20.72,2.64,1.64,4.11,3.84,6.16,6.18,0-3.28-2-8.45-4.85-10a8.59,8.59,0,0,1,2.4,1.8,6.62,6.62,0,0,0-2.45-4.81,11,11,0,0,0-2.86-1.74c1.38.54,2.92,1.13,3.93,1.5-.52-1.65-2.88-3.66-4.35-4.59l2.92,1.48a10.18,10.18,0,0,0-5.8-6.11,16.11,16.11,0,0,1,5.65,3.41,21.09,21.09,0,0,0-9.3-8.94,25.21,25.21,0,0,1,5.76,2.45A43.21,43.21,0,0,0,256.9,85.42a10.73,10.73,0,0,0-2.6,6.84l2-.61L254.09,94l.29,1.42.88-.48-.88,2,.61,2c.7-1.52,4.54-4,4.54-4s-1.48,2.18-1.22,4a4,4,0,0,0-1.36,3.8c1.43-1.9,5.64-4.1,5.64-4.1-1.4,1.05-2.71,3.93-2.71,3.93l.35,1.31A24.51,24.51,0,0,0,257,109l.75,3.4c.84-3,4.62-7.33,4.62-7.33l.09,2.53a37.6,37.6,0,0,0-3.92,10.06l1,2.59C261.74,114.8,269,108,269,108s-7.76,12.76-8.9,20.61a99.3,99.3,0,0,1,5.88-9.16,45.61,45.61,0,0,0-2.91,8.38,12.24,12.24,0,0,0,2.24,5.13c1.54-3.6,5.93-7.39,5.93-7.39a61.68,61.68,0,0,0-4.91,9.85l2.67,4.8c1.57-3.93,6.81-10.91,6.81-10.91a78.46,78.46,0,0,0-4.71,12.83l1.39.7c1.84-5.33,7.21-11.7,7.21-11.7A90.46,90.46,0,0,0,274.26,148l5.42-10.15-6.1,12.58s6.46-7.91,9.16-13.87C281.46,143,276.9,153,276.9,153l2.44,2.62,3.83-8.82c0,4.29-1.12,13.27-1.12,13.27l2.44,2.7L286.84,149c.25,5.25.44,17.88.44,17.88l2.49,1.71c2.52-8.77,1.43-20.06-.64-28.94A71.9,71.9,0,0,1,294.35,154.3Z" style="opacity:0.1"></path><path d="M289.77,168.58c2.52-8.77,1.43-20.06-.64-28.94a71.9,71.9,0,0,1,5.22,14.66,58.48,58.48,0,0,0-7.1-26.37,48.28,48.28,0,0,1,7.09,12.22c-1.79-8.32-3.7-15-10-20.72,2.64,1.64,4.11,3.84,6.16,6.18,0-3.28-2-8.45-4.85-10a8.59,8.59,0,0,1,2.4,1.8,6.62,6.62,0,0,0-2.45-4.81,11,11,0,0,0-2.86-1.74c1.38.54,2.92,1.13,3.93,1.5-.52-1.65-2.88-3.66-4.35-4.59l2.92,1.48a10.18,10.18,0,0,0-5.8-6.11,16.11,16.11,0,0,1,5.65,3.41,21.09,21.09,0,0,0-9.3-8.94,25.21,25.21,0,0,1,5.76,2.45A43.21,43.21,0,0,0,256.9,85.42C272.83,93,292.94,129.26,289.77,168.58Z" style="opacity:0.1"></path><path d="M256.9,85.42c-1.23-10.25,16-26.51,16-26.51l1.72,1.39-1-3,2.75-2.3,2.14,1.55-.88-2.84L279.74,52l3.43,2.14-1.38-3.59L284.73,49l1.87,2.36-1-3.37,2.72-1,2.3,2.39L290,45.88l5.6-3.14-1.28,3.71a16.69,16.69,0,0,1,4.86-4.32A90.2,90.2,0,0,1,308.08,38l-4.32,6.55-4.13,1.72,8.45-1.37-.43,3.66-5.44.43,5,1.57-1.53,3.65L296.9,51s5.59,3.23,7.17,6.3l-1.14,2s-5.26-4.16-8.58-5.43a20.34,20.34,0,0,1,6.43,8.75l-1.44,1.28a52.29,52.29,0,0,0-5-5.58,15.07,15.07,0,0,1,3.42,7.59l-2,1.31A52.86,52.86,0,0,0,288.81,60a29.05,29.05,0,0,1,4.66,8.06s-6.3,3.15-6.3,2.58-4-8.45-4-8.45l3.43,9.39-4.45,1.58-3.86-7.92,2.29,8.84S267.33,77.21,256.9,85.42Z" style="fill:#BA68C8"></path><path d="M294.35,46.45l1.28-3.71L290,45.88l.58,3.53L288.31,47l-2.72,1,1,3.37L284.73,49l-2.94,1.56,1.38,3.59L279.74,52l-2.17,1.71.88,2.84L276.31,55l-2.75,2.3,1,3-1.72-1.39s-17.21,16.26-16,26.51a100.25,100.25,0,0,1,26.84-28.77C293.67,49.43,301.42,43,308.08,38a90.2,90.2,0,0,0-8.87,4.09A16.69,16.69,0,0,0,294.35,46.45Z" style="opacity:0.1"></path><path d="M256.9,85.42C251.78,74,230.33,62.42,214,60s-39.42,6.28-48.77,17.52A72.42,72.42,0,0,1,190.2,66.38s-11.88,5.15-19.33,12.52l4.68,1.28s5-5.3,15.77-10.72c0,0-8.09,6.94-12.17,11.1l8.95,1.9s7.43-13.37,13-15.84c0,0-6.47,9.06-9.47,15.68l3.39.62s4.65-9.66,10.16-15.11l-7.37,15.68c1.4.41,3.2.73,4.6,1.14q2.64-4.36,5.3-8.73-1.78,4.38-3.55,8.76l3.31.61A128.66,128.66,0,0,1,216.85,69l-5.58,15.58,8.48-13.23L214.93,84l4.8.8a83.12,83.12,0,0,1,5.93-11.19l-4.15,10.89,2.88.29a37.31,37.31,0,0,1,5.29-7.31q-1.05,3.89-1.79,7.83A12.69,12.69,0,0,1,233.1,85c3.89.43,7.7,1.41,11.59,1.89S257.07,85.8,256.9,85.42Z" style="fill:#BA68C8"></path><path d="M256.9,85.42C251.78,74,230.33,62.42,214,60s-39.42,6.28-48.77,17.52A72.42,72.42,0,0,1,190.2,66.38s-11.88,5.15-19.33,12.52l4.68,1.28s5-5.3,15.77-10.72c0,0-8.09,6.94-12.17,11.1l8.95,1.9s7.43-13.37,13-15.84c0,0-6.47,9.06-9.47,15.68l3.39.62s4.65-9.66,10.16-15.11l-7.37,15.68c1.4.41,3.2.73,4.6,1.14q2.64-4.36,5.3-8.73-1.78,4.38-3.55,8.76l3.31.61A128.66,128.66,0,0,1,216.85,69l-5.58,15.58,8.48-13.23L214.93,84l4.8.8a83.12,83.12,0,0,1,5.93-11.19l-4.15,10.89,2.88.29a37.31,37.31,0,0,1,5.29-7.31q-1.05,3.89-1.79,7.83A12.69,12.69,0,0,1,233.1,85c3.89.43,7.7,1.41,11.59,1.89S257.07,85.8,256.9,85.42Z" style="opacity:0.15"></path><path d="M214,60c16.3,2.39,37.75,14,42.87,25.39-7.44-9.08-27.44-20.27-46.52-22-17.24-1.61-38,6-45.12,14.17C174.61,66.31,197.72,57.64,214,60Z" style="opacity:0.15"></path><path d="M256.9,85.42c-14.44-6.61-42.87-3.28-64,3.92-15.61,5.33-22.51,19.76-28.51,38.56,0,0,6.85-10.83,12.09-16.13L171.37,125s7-.88,7-1.35S182,111.4,182,111.4l-2.12,12.28,2.76-6.65h2.25l2.91-9.77-2.39,15.55,5-1.32,2.14-18.15s-.92,13.55.16,19a41.8,41.8,0,0,1,1.6-14.18l-.13,11,1.5.15,4.4-21.42-1.38,19.82h1.88l4.9-22.88-2.27,23.58,2.41-1.28,1-9.32v8.87l1.73-.66a79.37,79.37,0,0,1,1.7-14.15,106.47,106.47,0,0,0,0,13.53s.63-8.34,1.56-13.19l.12,12.55,1.75-1,1.16-8.59,0,7.94,1.3-.75L218.62,95l.31,16.17,2.51-1.34,2.36-15v13l3.44-1.58,2.11-9.55-.67,8.31,2.34-.91,2.47-13.29-.5,12.3,6.63-4S252.24,89.72,256.9,85.42Z" style="fill:#BA68C8"></path><path d="M194,131.86c.49-.32,1-.62,1.49-.91-3.31,1.44-6.77,3-8.95,5.89,2.39-4,4.92-8.16,8.86-10.66a15.12,15.12,0,0,1,5.13-2l-5.18.2c1.22-1.94,2.58-4,4.71-4.85a11.16,11.16,0,0,1,4.92-.39l-5.3-1.35,3-2.74a3.06,3.06,0,0,1,1-.69,3.19,3.19,0,0,1,1.34-.14l6.17.23a19.77,19.77,0,0,0-6.35-1.72c1.59-2,3.4-4,5.88-4.43s4.85.92,7.16.26a22.74,22.74,0,0,0-7.44-1.73c1.63-2.18,5.33-5.08,8.15-5.23a8.64,8.64,0,0,0-2.92.68,6.66,6.66,0,0,1,4.17-3.42,11.31,11.31,0,0,1,3.32-.44c-1.48-.06-3.12-.13-4.2-.2,1.14-1.3,4.11-2.19,5.83-2.46l-3.27.18c.22,0,.94-.9,1.15-1.07a10.63,10.63,0,0,1,1.31-.87,6.3,6.3,0,0,1,2.78-1,11.89,11.89,0,0,0-4.57.4c2.19-1.77,4.95-2.63,7.64-3.47a11.65,11.65,0,0,0-3.72.3,38.31,38.31,0,0,1,11.35-4.5,43.05,43.05,0,0,1,14.78-1,23.08,23.08,0,0,1,4.7.72c1.66,4.7-.17,10.46-3.6,13.89a12.48,12.48,0,0,0-1.14-3.85c-.42-.77-.88-1.54-1.37-2.27,0,0,.48,2.59-.48,4.12a4,4,0,0,1-.28,4c-.54-2.32-3.51-6-3.51-6,.86,1.52.9,4.68.9,4.68l-.85,1.06a25.12,25.12,0,0,1,.93,6l-2.05,2.82c.45-3.1-1.29-8.57-1.29-8.57l-1.1,2.28a37.39,37.39,0,0,1-.45,10.79l-2,1.95a35.77,35.77,0,0,0-1.79-11.47s1.43,12.36-2.14,18.89A98.67,98.67,0,0,0,235,113a46.2,46.2,0,0,1-.71,8.84,12.2,12.2,0,0,1-4.12,3.8c0-3.91-2.46-9.15-2.46-9.15a60.86,60.86,0,0,1,.53,11c-.79.6-1.62,1.17-2.36,1.84-.26.24-2.69,1.91-2.68,1.89a51.64,51.64,0,0,0-.62-10.39,46.92,46.92,0,0,1-.94,9,3.9,3.9,0,0,1-.79,1.93A1.41,1.41,0,0,1,219,132q.54-6.45,1.09-12.92a56.27,56.27,0,0,1-3.11,14,88.06,88.06,0,0,0,.48-9.47,66.78,66.78,0,0,1-2,9.28,70.92,70.92,0,0,0,.19-10.71l-2,12.77a9.42,9.42,0,0,0-2.9.18l.33-10-2.31,11.5a11.88,11.88,0,0,0-3.89.44l2.13-9.57-4,10.29a1.92,1.92,0,0,1-.47.79,2.24,2.24,0,0,1-1.58.26A6.69,6.69,0,0,0,197,140a39.84,39.84,0,0,1,5.18-10.17L191.26,142a8.65,8.65,0,0,1-1.93,1.75,10.88,10.88,0,0,1-2.92,1,19.63,19.63,0,0,0-6.74,3.19C183.74,141.93,188,135.81,194,131.86Z" style="fill:#BA68C8"></path><path d="M252.2,84.7a43.05,43.05,0,0,0-14.78,1,38.31,38.31,0,0,0-11.35,4.5,11.65,11.65,0,0,1,3.72-.3c-2.69.84-5.45,1.7-7.64,3.47a11.89,11.89,0,0,1,4.57-.4,6.3,6.3,0,0,0-2.78,1,10.63,10.63,0,0,0-1.31.87c-.21.17-.93,1.06-1.15,1.07l3.27-.18c-1.72.27-4.69,1.16-5.83,2.46,1.08.07,2.72.14,4.2.2a11.31,11.31,0,0,0-3.32.44,6.66,6.66,0,0,0-4.17,3.42,8.64,8.64,0,0,1,2.92-.68c-2.82.15-6.52,3-8.15,5.23a22.74,22.74,0,0,1,7.44,1.73c-2.31.66-4.78-.63-7.16-.26s-4.29,2.48-5.88,4.43a19.77,19.77,0,0,1,6.35,1.72l-6.17-.23a3.19,3.19,0,0,0-1.34.14,3.06,3.06,0,0,0-1,.69l-3,2.74,5.3,1.35a11.16,11.16,0,0,0-4.92.39c-2.13.86-3.49,2.91-4.71,4.85l5.18-.2a15.12,15.12,0,0,0-5.13,2c-3.94,2.5-6.47,6.65-8.86,10.66,2.18-2.89,5.64-4.45,8.95-5.89-.51.29-1,.59-1.49.91-5.39,3.57-9.39,8.93-13.12,14.33,24.69-26.63,66-56.7,76.07-60.77A25.22,25.22,0,0,0,252.2,84.7Z" style="opacity:0.1"></path></g></g><g id="palm-1"><g id="palm"><path d="M132.94,215.2a133.71,133.71,0,0,0,1.92,43.94c2.37,10.85,6.53,20.7,10.21,30.18,15.28,39.27,30.5,68.48,37.31,109.05-3.3,3.73-12.74,4.34-19.95,3.71-2.63-41.57-16.14-68.38-29.11-110-5.66-18.15-11.09-51.38-7.56-75.47C126.2,213.54,130.21,214.83,132.94,215.2Z" style="fill:#263238"></path><path d="M130.19,222.55a20.78,20.78,0,0,0-5.38-9c.62,2.43-.28,4.95,0,7.35C125.13,223.67,128.24,223.1,130.19,222.55Z" style="fill:#455a64"></path><path d="M125.67,223a32.23,32.23,0,0,1,3.17-5.44,22.9,22.9,0,0,1,4.86-4.63,51.26,51.26,0,0,0-1.09,6.84,3.24,3.24,0,0,1-2.13,3.08C129.11,223.6,127.14,223.36,125.67,223Z" style="fill:#37474f"></path><path d="M130.25,230a29.26,29.26,0,0,0-6.43-10.53,83.9,83.9,0,0,1,.41,9C125,230.54,127.92,230.85,130.25,230Z" style="fill:#37474f"></path><path d="M125.5,230.23a48.69,48.69,0,0,1,3.39-6.39,22,22,0,0,1,4.92-4.79c-1.17,2.19-1.21,5.46-1.18,7.67s-.95,2.23-2.4,3.18S127.11,230.66,125.5,230.23Z" style="fill:#455a64"></path><path d="M130.51,239.41a27.25,27.25,0,0,0-6.9-11.85c.8,3.27.1,6.26.49,9.62S127.86,240.59,130.51,239.41Z" style="fill:#455a64"></path><path d="M125.27,239.71c1.12-2.52,2.23-4.8,3.6-7.24s2.75-4.92,5.12-6.57c-1.24,2.79-.85,7-.83,9.68s-.63,3.58-2.33,4.06A9.27,9.27,0,0,1,125.27,239.71Z" style="fill:#37474f"></path><path d="M130.82,249.89c-1.9-4.95-4.94-9.27-7.33-14,.24,4.19-.11,8.36.11,12.55C125.5,251,128,250.86,130.82,249.89Z" style="fill:#37474f"></path><path d="M125.27,250.28a48,48,0,0,1,3.65-8.13,44,44,0,0,1,5.31-7.17,46.38,46.38,0,0,0-.58,11.36,5.38,5.38,0,0,1-2.79,3.46A7.27,7.27,0,0,1,125.27,250.28Z" style="fill:#455a64"></path><path d="M132.23,261.14c-2.33-5.18-4.92-9.77-9.31-13.47,1.08,3.94.82,8,1.32,12C126,263.2,129.28,262.39,132.23,261.14Z" style="fill:#455a64"></path><path d="M126.06,262.23a44,44,0,0,1,3.5-9.42c1.15-2.34,3.41-6.38,4.94-8.91a58.29,58.29,0,0,0,.72,13.56,5.74,5.74,0,0,1-3,3.8A9,9,0,0,1,126.06,262.23Z" style="fill:#37474f"></path><path d="M135.25,272.54a67.66,67.66,0,0,0-12.14-13.81c1.35,4,1.83,8.37,3.4,12.36S132.09,274.17,135.25,272.54Z" style="fill:#37474f"></path><path d="M128.65,273.74a59.91,59.91,0,0,1,2.84-9.13,34.16,34.16,0,0,1,4.59-8.54c-.4,4.07.53,7.84,1.68,11.72.46,1.61.35,3.13-2.09,4.65A10.13,10.13,0,0,1,128.65,273.74Z" style="fill:#455a64"></path><path d="M139.77,284.34c-4.13-5.59-10-9.41-14.34-14.85,1.64,4.59,2.56,9.71,4.7,14.06S136.46,286.46,139.77,284.34Z" style="fill:#455a64"></path><path d="M132.74,286.68c.63-3.13,1.52-6.4,2-9.58.62-3.76,1.25-7.66,3.39-10.9.17,3.94,2.44,9.25,3.49,12.54s.82,4.26-1.22,5.72A11.63,11.63,0,0,1,132.74,286.68Z" style="fill:#37474f"></path><path d="M144.91,298.67c-4.46-6.79-9.86-11.59-16.6-16.06,2.66,4.78,4.07,11,6.42,15.87C136.4,301.89,141.29,301.31,144.91,298.67Z" style="fill:#37474f"></path><path d="M137.43,301a54.29,54.29,0,0,1,2.21-12.55c1.27-4,1.92-8,3.13-11.91.78,4.62,2.93,11.58,4,15.51s.69,4.84-1.58,6.68A12.34,12.34,0,0,1,137.43,301Z" style="fill:#455a64"></path><path d="M151.1,313.9c-5.54-7.13-11.36-13.06-19.4-17.36,3.19,5.18,4.91,11.91,7.81,17.19C141.06,317.74,147,317.12,151.1,313.9Z" style="fill:#455a64"></path><path d="M142.81,316.76A48.71,48.71,0,0,1,144,303.49a130.51,130.51,0,0,1,4-13c.81,4.85,3.44,12,4.81,16.13s.82,4.91-1.37,7.27C149.48,316,146.05,316.75,142.81,316.76Z" style="fill:#37474f"></path><path d="M158.28,330.79c-6.41-7.68-14-13.75-22-19.68,3.42,6.18,6.44,12.54,9.39,18.94C149.44,335,154.68,333.19,158.28,330.79Z" style="fill:#37474f"></path><path d="M149.48,333.81a114.52,114.52,0,0,1,.77-15.36,100.45,100.45,0,0,1,3-14.66c.9,5.83,4.75,14.31,6.63,19s1.85,6-1,8.11A17,17,0,0,1,149.48,333.81Z" style="fill:#455a64"></path><path d="M165.35,349c-6.14-9-14.21-15.29-22.64-22.05,3.42,7.12,6.62,14.28,9.41,21.66C155.94,353.3,160.8,352,165.35,349Z" style="fill:#455a64"></path><path d="M155.49,351.79c.75-4.93,1.38-9.39,2.46-14.32a169.94,169.94,0,0,0,3-16.89c1.58,6.07,5.31,15.16,7,20.35S168.63,347,166,349C162.59,351.6,159.23,351.88,155.49,351.79Z" style="fill:#37474f"></path><path d="M171,365.08c-6-7.37-14-12.49-21.34-18.39a202.74,202.74,0,0,1,7,19.19C160.56,369.17,166.37,366.93,171,365.08Z" style="fill:#37474f"></path><path d="M160.17,367.81c1.58-5.07,2.75-9.06,4.43-14.36,1.4-4.41,3.14-10.39,5.25-14.76,1,5.56,3.57,13.89,4.64,18.75.68,3.09-.57,5.22-3.41,7.53C169,366.7,164.05,367.8,160.17,367.81Z" style="fill:#455a64"></path><path d="M175.07,383c-4.82-9-11.51-14.19-20.65-18.76,3,5.22,3.34,9.41,5.39,15.34S169.79,385.64,175.07,383Z" style="fill:#455a64"></path><path d="M162.87,384c2.25-5.07,4.13-8.73,6.67-14,2-4.15,4.37-10.38,6.16-14.93,1.17,5.79,3.49,14.31,4.12,19.61s-.41,6.85-4.13,8.57C171.4,385.18,167.1,384.9,162.87,384Z" style="fill:#37474f"></path><path d="M177.6,405.88c-5.19-12.78-12.88-24.64-20.91-32.55,2.52,8.06,2.32,18.58,3.45,28.74C160.51,406.93,170.24,409.84,177.6,405.88Z" style="fill:#37474f"></path><path d="M163.56,406.29c3.44-5.13,5.35-9.88,8.74-16.16,2.2-4.08,7.34-13.51,8.74-19.09.16,9.53,2.85,18.41,3.68,28.08.2,3.21-2.45,5.79-6.07,7.19S168.23,409.08,163.56,406.29Z" style="fill:#455a64"></path><path d="M129.74,210c-1.8-.69-.08-10.72,6.27-20.6s11.12-15.88,32.58-13.79l-10.82,1.69a62.26,62.26,0,0,1,9.6.2c-.25,0-.87,1.4-1,1.61a22.79,22.79,0,0,1-1.68,2.65l-5.33-.39a25.07,25.07,0,0,0-5,0,26.91,26.91,0,0,1,8,2.15L160,186.77a33.75,33.75,0,0,0-11-2.63,59.18,59.18,0,0,1,7.86,3.89c-.34.56-.68,1.13-1,1.7a37.39,37.39,0,0,0-12.5-3.3A47.23,47.23,0,0,1,153,191.6a14.65,14.65,0,0,1-2,2.72l-4.6-2,3.17,2.25a2.15,2.15,0,0,1,.81.83.75.75,0,0,1-.33,1l-8.77-3a42.27,42.27,0,0,1,7.27,4c.2.14-3.28,3.8-3.62,4.1a24.67,24.67,0,0,1-4.64,3.35c-.74.42-1.57.71-2.3,1.12s-1.63,1.19-2.49,1.71A21.89,21.89,0,0,1,129.74,210Z" style="fill:#BA68C8"></path><path d="M129.74,210c-1.8-.69-.08-10.72,6.27-20.6s11.12-15.88,32.58-13.79l-10.82,1.69a62.26,62.26,0,0,1,9.6.2c-.25,0-.87,1.4-1,1.61a22.79,22.79,0,0,1-1.68,2.65l-5.33-.39a25.07,25.07,0,0,0-5,0,26.91,26.91,0,0,1,8,2.15L160,186.77a33.75,33.75,0,0,0-11-2.63,59.18,59.18,0,0,1,7.86,3.89c-.34.56-.68,1.13-1,1.7a37.39,37.39,0,0,0-12.5-3.3A47.23,47.23,0,0,1,153,191.6a14.65,14.65,0,0,1-2,2.72l-4.6-2,3.17,2.25a2.15,2.15,0,0,1,.81.83.75.75,0,0,1-.33,1l-8.77-3a42.27,42.27,0,0,1,7.27,4c.2.14-3.28,3.8-3.62,4.1a24.67,24.67,0,0,1-4.64,3.35c-.74.42-1.57.71-2.3,1.12s-1.63,1.19-2.49,1.71A21.89,21.89,0,0,1,129.74,210Z" style="opacity:0.15"></path><path d="M148.07,235a10.66,10.66,0,0,1,4.23,1.9,7.7,7.7,0,0,0-3.54.2,7.36,7.36,0,0,1,7,5c-2.08-1-4.25-2-6.56-2a26.48,26.48,0,0,1,5.72,4.78,27.75,27.75,0,0,0-5.34-1.22q2.52,1.88,5,3.81a3.87,3.87,0,0,1,1.22,1.33,22,22,0,0,0-4.87-2.06,35.3,35.3,0,0,1,4.39,3.28,3.7,3.7,0,0,1,.81.91,3.81,3.81,0,0,1,.3,2,19.62,19.62,0,0,0-2.83-2.32,9.93,9.93,0,0,0,1.63,2,2,2,0,0,1,.32,2.37,14.13,14.13,0,0,0-3.57-3.9c1,2.1,2.85,3.93,2.93,6.26a6,6,0,0,1-.33,2.05,3.72,3.72,0,0,1-.59,1.5,19.89,19.89,0,0,0-1.12-4.15,11,11,0,0,0-1-1.88,10,10,0,0,0-.68-.89c-.13-.14-.61-.5-.65-.67a84.89,84.89,0,0,1,1.54,11.45L148,253.41a25.3,25.3,0,0,0,.78,8.92,6.56,6.56,0,0,0-1.9-1.92c-1.49-1-1.73-3-1.56-4.81s.56-3.64-.16-5.26c-.2,2-.4,4-.61,6-.88,0-1.07-1.25-1-2.13l.42-5.37a17.24,17.24,0,0,0-.67,5.89c-1.32-.56-1.57-2.3-1.57-3.73,0-2.77.18-5.64,1.5-8.06a13.6,13.6,0,0,0-2.6,6.37,1.84,1.84,0,0,1-1.48-1.51,5.49,5.49,0,0,1,.17-2.24,27.12,27.12,0,0,1,2.13-6.68,40.21,40.21,0,0,0-4.3,8.6,24.08,24.08,0,0,1,2.35-9.79,28.2,28.2,0,0,0-3.59,5.14,17.5,17.5,0,0,1,1.83-7.17,8.26,8.26,0,0,0-2.53,3.06,14.41,14.41,0,0,1,1.15-6.45,18.7,18.7,0,0,0-1.84,2.82,9.78,9.78,0,0,1-.28-8.83L132,229.4a9.08,9.08,0,0,1,1-7.8l-2.41,2.18c-.11-2.48-.86-13-.85-13.8.57.1,11.38,4.78,17,13.64a12.8,12.8,0,0,0-3.34-1.48l1.67,1.46.52.46.88.77c.89.8,1.76,1.65,2.58,2.52a14.53,14.53,0,0,0-4.52-1.56,15.93,15.93,0,0,1,6.23,5.31,5.12,5.12,0,0,0-3.1-1.35,10.76,10.76,0,0,1,5.26,4.79c0-.27-1.92-.2-2.22-.15A12.38,12.38,0,0,0,148.07,235Z" style="fill:#BA68C8"></path><path d="M148.07,235a10.66,10.66,0,0,1,4.23,1.9,7.7,7.7,0,0,0-3.54.2,7.36,7.36,0,0,1,7,5c-2.08-1-4.25-2-6.56-2a26.48,26.48,0,0,1,5.72,4.78,27.75,27.75,0,0,0-5.34-1.22q2.52,1.88,5,3.81a3.87,3.87,0,0,1,1.22,1.33,22,22,0,0,0-4.87-2.06,35.3,35.3,0,0,1,4.39,3.28,3.7,3.7,0,0,1,.81.91,3.81,3.81,0,0,1,.3,2,19.62,19.62,0,0,0-2.83-2.32,9.93,9.93,0,0,0,1.63,2,2,2,0,0,1,.32,2.37,14.13,14.13,0,0,0-3.57-3.9c1,2.1,2.85,3.93,2.93,6.26a6,6,0,0,1-.33,2.05,3.72,3.72,0,0,1-.59,1.5,19.89,19.89,0,0,0-1.12-4.15,11,11,0,0,0-1-1.88,10,10,0,0,0-.68-.89c-.13-.14-.61-.5-.65-.67a84.89,84.89,0,0,1,1.54,11.45L148,253.41a25.3,25.3,0,0,0,.78,8.92,6.56,6.56,0,0,0-1.9-1.92c-1.49-1-1.73-3-1.56-4.81s.56-3.64-.16-5.26c-.2,2-.4,4-.61,6-.88,0-1.07-1.25-1-2.13l.42-5.37a17.24,17.24,0,0,0-.67,5.89c-1.32-.56-1.57-2.3-1.57-3.73,0-2.77.18-5.64,1.5-8.06a13.6,13.6,0,0,0-2.6,6.37,1.84,1.84,0,0,1-1.48-1.51,5.49,5.49,0,0,1,.17-2.24,27.12,27.12,0,0,1,2.13-6.68,40.21,40.21,0,0,0-4.3,8.6,24.08,24.08,0,0,1,2.35-9.79,28.2,28.2,0,0,0-3.59,5.14,17.5,17.5,0,0,1,1.83-7.17,8.26,8.26,0,0,0-2.53,3.06,14.41,14.41,0,0,1,1.15-6.45,18.7,18.7,0,0,0-1.84,2.82,9.78,9.78,0,0,1-.28-8.83L132,229.4a9.08,9.08,0,0,1,1-7.8l-2.41,2.18c-.11-2.48-.86-13-.85-13.8.57.1,11.38,4.78,17,13.64a12.8,12.8,0,0,0-3.34-1.48l1.67,1.46.52.46.88.77c.89.8,1.76,1.65,2.58,2.52a14.53,14.53,0,0,0-4.52-1.56,15.93,15.93,0,0,1,6.23,5.31,5.12,5.12,0,0,0-3.1-1.35,10.76,10.76,0,0,1,5.26,4.79c0-.27-1.92-.2-2.22-.15A12.38,12.38,0,0,0,148.07,235Z" style="opacity:0.30000000000000004"></path><path d="M104.41,234.12a8.43,8.43,0,0,1-.06-1,12.2,12.2,0,0,1-.82,3.62,2.84,2.84,0,0,1-.24-1.11,7.48,7.48,0,0,1-.53,1.72,8.11,8.11,0,0,1-.11-2.46c0-.43.08-.87.14-1.3a3.58,3.58,0,0,1,.19-1.19,19.3,19.3,0,0,0-2.42,6.43,1.15,1.15,0,0,1-.21-.93,8.21,8.21,0,0,0-.4,1.45c0-.18-.14-.55-.18-.74s-.12-.54-.16-.81l-.27-1.55a8,8,0,0,0-.46,2.56,3.2,3.2,0,0,1-.53-1.66c-.14.41-.27.82-.4,1.23a5.58,5.58,0,0,1-.75-1.78,14.68,14.68,0,0,0-.15,2.65c-.14-.28-.28-.55-.43-.82a1.89,1.89,0,0,1-.26.8,2.52,2.52,0,0,1-.82-1.66,7.49,7.49,0,0,0-.69,1.85c-.1.36-.18.74-.25,1.11a3.24,3.24,0,0,0-.19,1,11.29,11.29,0,0,1,.43-5.21,19.28,19.28,0,0,0-1.68,6,16.66,16.66,0,0,1,.17-4.62,36.85,36.85,0,0,0-1.39,4.71,10.33,10.33,0,0,1,.07-1.36c-.41,1.14-.77,2.3-1.09,3.48a10.42,10.42,0,0,1-.06-4.84,18.41,18.41,0,0,0-1.5,2,2.8,2.8,0,0,1,.18-1,43.54,43.54,0,0,1,9.09-13.61,47.12,47.12,0,0,1,4.38-4.22,40.12,40.12,0,0,1,11.72-6.56c4.27-1.66,8.81-2.58,13-4.4-3.21,7.88-9.35,14.22-16.06,19.46a29.92,29.92,0,0,1-3.42,2.39,29.44,29.44,0,0,1-3.58,1.83A12,12,0,0,1,104.41,234.12Z" style="fill:#BA68C8"></path><path d="M104.41,234.12a8.43,8.43,0,0,1-.06-1,12.2,12.2,0,0,1-.82,3.62,2.84,2.84,0,0,1-.24-1.11,7.48,7.48,0,0,1-.53,1.72,8.11,8.11,0,0,1-.11-2.46c0-.43.08-.87.14-1.3a3.58,3.58,0,0,1,.19-1.19,19.3,19.3,0,0,0-2.42,6.43,1.15,1.15,0,0,1-.21-.93,8.21,8.21,0,0,0-.4,1.45c0-.18-.14-.55-.18-.74s-.12-.54-.16-.81l-.27-1.55a8,8,0,0,0-.46,2.56,3.2,3.2,0,0,1-.53-1.66c-.14.41-.27.82-.4,1.23a5.58,5.58,0,0,1-.75-1.78,14.68,14.68,0,0,0-.15,2.65c-.14-.28-.28-.55-.43-.82a1.89,1.89,0,0,1-.26.8,2.52,2.52,0,0,1-.82-1.66,7.49,7.49,0,0,0-.69,1.85c-.1.36-.18.74-.25,1.11a3.24,3.24,0,0,0-.19,1,11.29,11.29,0,0,1,.43-5.21,19.28,19.28,0,0,0-1.68,6,16.66,16.66,0,0,1,.17-4.62,36.85,36.85,0,0,0-1.39,4.71,10.33,10.33,0,0,1,.07-1.36c-.41,1.14-.77,2.3-1.09,3.48a10.42,10.42,0,0,1-.06-4.84,18.41,18.41,0,0,0-1.5,2,2.8,2.8,0,0,1,.18-1,43.54,43.54,0,0,1,9.09-13.61,47.12,47.12,0,0,1,4.38-4.22,40.12,40.12,0,0,1,11.72-6.56c4.27-1.66,8.81-2.58,13-4.4-3.21,7.88-9.35,14.22-16.06,19.46a29.92,29.92,0,0,1-3.42,2.39,29.44,29.44,0,0,1-3.58,1.83A12,12,0,0,1,104.41,234.12Z" style="opacity:0.30000000000000004"></path><path d="M129.74,210c-9.53-5.24-29.56-3.81-39.8,1s-21.23,11.61-27.17,20.36l1.19.45a24.42,24.42,0,0,1,9.58-8.42l-6.38,8.25s7,.28,7.07,0,3.09-8.18,3.09-8.18l-2.06,8.27,2.21-4.4,1.54.11,2.47-6.52L79.07,231.3l3.5-.64,2.37-12.29s-.86,9-.39,12.73a35.24,35.24,0,0,1,1.35-9.38l-.64,7.54,1,.17L90.35,215l-1.93,13.47,1.28.1,4.49-15.38-2.73,16,1.71-.75,1.16-6.31-.44,6.05,1.21-.36A54.52,54.52,0,0,1,97,218.24a73.44,73.44,0,0,0-.67,9.24s.84-5.66,1.73-8.92l-.55,8.57,1.24-.6,1.22-5.81-.42,5.42.93-.45,2.7-11.74-.6,11.06,1.78-.79,2.37-10.09-.65,8.86,2.42-.91,1.92-6.41-.87,5.64,1.64-.51,2.36-9-1,8.38,4.72-2.42S126.34,212.69,129.74,210Z" style="fill:#BA68C8"></path><path d="M100.72,255.16a40,40,0,0,1,6.18-17.65,33,33,0,0,0-5.46,8c1.64-5.59,3.27-10,7.85-13.64-1.89,1-3,2.41-4.52,3.91.16-2.25,1.76-5.68,3.82-6.59a5.8,5.8,0,0,0-1.74,1.11,4.55,4.55,0,0,1,1.92-3.16,7.58,7.58,0,0,1,2-1c-1,.3-2,.63-2.76.83.44-1.1,2.15-2.35,3.2-2.92l-2.07.86a7,7,0,0,1,4.27-3.87,10.9,10.9,0,0,0-4,2,14.44,14.44,0,0,1,6.8-5.64,17.53,17.53,0,0,0-4.06,1.38A29.68,29.68,0,0,1,129.74,210a7.44,7.44,0,0,1,1.44,4.83l-1.34-.52,1.4,1.74L131,217l-.57-.37.5,1.4-.52,1.32c-.4-1.08-2.9-2.93-2.9-2.93a4.71,4.71,0,0,1,.64,2.77,2.71,2.71,0,0,1,.73,2.66,14.9,14.9,0,0,0-3.64-3.09,8.86,8.86,0,0,1,1.65,2.82l-.3.88a16.92,16.92,0,0,1,2,3.68l-.68,2.28c-.42-2.1-2.79-5.23-2.79-5.23l-.19,1.72a25.82,25.82,0,0,1,2.18,7.06l-.85,1.72c-1.23-3.85-5.88-8.82-5.88-8.82s4.67,9.09,5.05,14.51a69.37,69.37,0,0,0-3.56-6.55,30.77,30.77,0,0,1,1.57,5.87,8.28,8.28,0,0,1-1.79,3.39,17.92,17.92,0,0,0-3.68-5.34,41.52,41.52,0,0,1,2.86,7l-2.06,3.14c-.88-2.76-4.1-7.79-4.1-7.79a53.62,53.62,0,0,1,2.57,9l-1,.41c-1-3.73-4.33-8.35-4.33-8.35a61.9,61.9,0,0,1,2.9,11.77l-3.19-7.21,3.53,8.9s-4-5.73-5.56-9.93c.55,4.46,3.17,11.51,3.17,11.51l-1.8,1.66-2.18-6.21c-.21,2.93.11,9.12.11,9.12L107,261.44l-.92-9.52c-.42,3.57-1.19,12.18-1.19,12.18l-1.79,1c-1.27-6.11,0-13.76,1.89-19.73A49.85,49.85,0,0,0,100.72,255.16Z" style="fill:#BA68C8"></path><path d="M100.72,255.16a40,40,0,0,1,6.18-17.65,33,33,0,0,0-5.46,8c1.64-5.59,3.27-10,7.85-13.64-1.89,1-3,2.41-4.52,3.91.16-2.25,1.76-5.68,3.82-6.59a5.8,5.8,0,0,0-1.74,1.11,4.55,4.55,0,0,1,1.92-3.16,7.58,7.58,0,0,1,2-1c-1,.3-2,.63-2.76.83.44-1.1,2.15-2.35,3.2-2.92l-2.07.86a7,7,0,0,1,4.27-3.87,10.9,10.9,0,0,0-4,2,14.44,14.44,0,0,1,6.8-5.64,17.53,17.53,0,0,0-4.06,1.38A29.68,29.68,0,0,1,129.74,210a7.44,7.44,0,0,1,1.44,4.83l-1.34-.52,1.4,1.74L131,217l-.57-.37.5,1.4-.52,1.32c-.4-1.08-2.9-2.93-2.9-2.93a4.71,4.71,0,0,1,.64,2.77,2.71,2.71,0,0,1,.73,2.66,14.9,14.9,0,0,0-3.64-3.09,8.86,8.86,0,0,1,1.65,2.82l-.3.88a16.92,16.92,0,0,1,2,3.68l-.68,2.28c-.42-2.1-2.79-5.23-2.79-5.23l-.19,1.72a25.82,25.82,0,0,1,2.18,7.06l-.85,1.72c-1.23-3.85-5.88-8.82-5.88-8.82s4.67,9.09,5.05,14.51a69.37,69.37,0,0,0-3.56-6.55,30.77,30.77,0,0,1,1.57,5.87,8.28,8.28,0,0,1-1.79,3.39,17.92,17.92,0,0,0-3.68-5.34,41.52,41.52,0,0,1,2.86,7l-2.06,3.14c-.88-2.76-4.1-7.79-4.1-7.79a53.62,53.62,0,0,1,2.57,9l-1,.41c-1-3.73-4.33-8.35-4.33-8.35a61.9,61.9,0,0,1,2.9,11.77l-3.19-7.21,3.53,8.9s-4-5.73-5.56-9.93c.55,4.46,3.17,11.51,3.17,11.51l-1.8,1.66-2.18-6.21c-.21,2.93.11,9.12.11,9.12L107,261.44l-.92-9.52c-.42,3.57-1.19,12.18-1.19,12.18l-1.79,1c-1.27-6.11,0-13.76,1.89-19.73A49.85,49.85,0,0,0,100.72,255.16Z" style="opacity:0.1"></path><path d="M103.13,265.14c-1.27-6.11,0-13.76,1.89-19.73a49.85,49.85,0,0,0-4.3,9.75,40,40,0,0,1,6.18-17.65,33,33,0,0,0-5.46,8c1.64-5.59,3.27-10,7.85-13.64-1.89,1-3,2.41-4.52,3.91.16-2.25,1.76-5.68,3.82-6.59a5.8,5.8,0,0,0-1.74,1.11,4.55,4.55,0,0,1,1.92-3.16,7.58,7.58,0,0,1,2-1c-1,.3-2,.63-2.76.83.44-1.1,2.15-2.35,3.2-2.92l-2.07.86a7,7,0,0,1,4.27-3.87,10.9,10.9,0,0,0-4,2,14.44,14.44,0,0,1,6.8-5.64,17.53,17.53,0,0,0-4.06,1.38A29.68,29.68,0,0,1,129.74,210C118.49,214.36,102.94,238.14,103.13,265.14Z" style="opacity:0.1"></path><path d="M129.74,210c4.07-7.52,19.3-14.34,30.55-15.16s26.6,6.26,32.42,14.41a49.62,49.62,0,0,0-16.47-8.88s7.86,4.11,12.58,9.52l-3.26.64s-3.16-3.88-10.24-8.11c0,0,5.18,5.14,7.76,8.19l-6.2.84s-4.41-9.5-8.09-11.47a82.07,82.07,0,0,1,5.68,11.19l-2.35.25s-2.69-6.82-6.18-10.83l4.25,11.08c-1,.21-2.22.34-3.2.55L163.81,206c.66,2.06,1.33,4.11,2,6.16l-2.3.25a85.58,85.58,0,0,0-5.59-11.57l3,10.92-5.12-9.46q1.32,4.42,2.66,8.85l-3.32.3a57.25,57.25,0,0,0-3.49-7.94l2.29,7.65-2,.05a26.17,26.17,0,0,0-3.25-5.26c.35,1.8.63,3.62.83,5.44a8.62,8.62,0,0,0-3.54-.43c-2.68.11-5.33.58-8,.72S129.61,210.23,129.74,210Z" style="fill:#BA68C8"></path><path d="M129.74,210c4.07-7.52,19.3-14.34,30.55-15.16s26.6,6.26,32.42,14.41a49.62,49.62,0,0,0-16.47-8.88s7.86,4.11,12.58,9.52l-3.26.64s-3.16-3.88-10.24-8.11c0,0,5.18,5.14,7.76,8.19l-6.2.84s-4.41-9.5-8.09-11.47a82.07,82.07,0,0,1,5.68,11.19l-2.35.25s-2.69-6.82-6.18-10.83l4.25,11.08c-1,.21-2.22.34-3.2.55L163.81,206c.66,2.06,1.33,4.11,2,6.16l-2.3.25a85.58,85.58,0,0,0-5.59-11.57l3,10.92-5.12-9.46q1.32,4.42,2.66,8.85l-3.32.3a57.25,57.25,0,0,0-3.49-7.94l2.29,7.65-2,.05a26.17,26.17,0,0,0-3.25-5.26c.35,1.8.63,3.62.83,5.44a8.62,8.62,0,0,0-3.54-.43c-2.68.11-5.33.58-8,.72S129.61,210.23,129.74,210Z" style="opacity:0.15"></path><path d="M160.29,194.82c-11.25.82-26.48,7.64-30.55,15.16,5.53-5.82,19.76-12.44,32.88-12.69,11.85-.24,25.65,6,30.09,11.94C186.89,201.08,171.55,194,160.29,194.82Z" style="opacity:0.15"></path><path d="M129.74,210c10.19-3.79,29.44-.07,43.51,5.91,10.39,4.42,14.38,14.62,17.54,27.76,0,0-4.14-7.74-7.46-11.62l2.83,9.29s-4.73-.95-4.71-1.27-1.86-8.55-1.86-8.55l.83,8.49-1.55-4.68-1.53-.11-1.5-6.81.85,10.73L173.33,238l-.55-12.5s-.05,9.3-1.06,12.93a28.41,28.41,0,0,0-.38-9.76l-.47,7.55-1,0-1.94-14.84,0,13.6-1.29-.09L164.38,219l.37,16.21-1.59-1-.22-6.42-.45,6.06-1.15-.53a54,54,0,0,0-.45-9.76,71.91,71.91,0,0,1-.68,9.24s0-5.72-.4-9.08l-.71,8.56-1.15-.77-.36-5.93-.37,5.43-.86-.58-1-12-1,11-1.65-1-.87-10.33-.65,8.86L149,225.7l-1-6.62,0,5.71-1.56-.75-1-9.2-.27,8.43-4.33-3.07S132.71,213.16,129.74,210Z" style="fill:#BA68C8"></path><path d="M170.4,244.87c-.31-.24-.64-.47-1-.7,2.19,1.16,4.48,2.39,5.82,4.47-1.44-2.85-3-5.81-5.52-7.71a10.35,10.35,0,0,0-3.4-1.66l3.53.4a7.61,7.61,0,0,0-3-3.55,7.52,7.52,0,0,0-3.34-.51l3.69-.66-1.93-2a2.25,2.25,0,0,0-.63-.52,2.16,2.16,0,0,0-.91-.16l-4.23-.16a13.44,13.44,0,0,1,4.42-.85c-1-1.41-2.12-2.93-3.79-3.32s-3.36.39-4.9-.19a15.61,15.61,0,0,1,5.17-.8c-1-1.57-3.39-3.74-5.31-4a5.94,5.94,0,0,1,2,.61,4.57,4.57,0,0,0-2.68-2.54,7.85,7.85,0,0,0-2.25-.47c1,0,2.14.07,2.88.07-.72-.94-2.7-1.7-3.86-2l2.23.29c-.15,0-.6-.66-.74-.79a6.78,6.78,0,0,0-.84-.66,4.3,4.3,0,0,0-1.85-.8,8.06,8.06,0,0,1,3.09.5,15.25,15.25,0,0,0-5-2.75,7.78,7.78,0,0,1,2.53.39,26.24,26.24,0,0,0-7.53-3.64,30.08,30.08,0,0,0-6.65-1.35,29.46,29.46,0,0,0-3.39-.09,16,16,0,0,0-3.25.23c-1.37,3.13-.4,7.18,1.77,9.69a8.27,8.27,0,0,1,1-2.57c.33-.51.68-1,1.05-1.48a4.73,4.73,0,0,0,.12,2.84,2.72,2.72,0,0,0,0,2.76,15.06,15.06,0,0,1,2.7-3.94,8.81,8.81,0,0,0-.85,3.15l.53.77a16.58,16.58,0,0,0-.94,4.07l1.26,2c-.15-2.14,1.31-5.79,1.31-5.79l.63,1.61a25.79,25.79,0,0,0-.23,7.39l1.27,1.43a24.87,24.87,0,0,1,1.79-7.74s-1.59,8.37.52,13a69.11,69.11,0,0,1,1.7-7.26,30.87,30.87,0,0,0,0,6.07,8.27,8.27,0,0,0,2.62,2.8,17.94,17.94,0,0,1,2.13-6.12,42.37,42.37,0,0,0-.91,7.48c.51.45,1,.88,1.52,1.37.17.18,1.74,1.44,1.74,1.43a35.88,35.88,0,0,1,.94-7.07,33,33,0,0,0,.19,6.2,2.68,2.68,0,0,0,.45,1.35,1,1,0,0,0,1.27.26l-.09-8.88a38.22,38.22,0,0,0,1.42,9.74,58.59,58.59,0,0,1,.15-6.49,45,45,0,0,0,.92,6.44,48.35,48.35,0,0,1,.41-7.32c.24,2.94.47,5.88.71,8.82a6.31,6.31,0,0,1,2,.26l.27-6.84c.33,2.66.67,5.31,1,8a8,8,0,0,1,2.64.49c-.33-2.21-.66-4.43-1-6.64q1.11,3.61,2.24,7.23a1.29,1.29,0,0,0,.28.56,1.54,1.54,0,0,0,1.06.26,4.6,4.6,0,0,1,2.62,1,27.38,27.38,0,0,0-3-7.21l6.82,8.84a5.62,5.62,0,0,0,1.23,1.3,7.55,7.55,0,0,0,1.94.8,13.39,13.39,0,0,1,4.44,2.51C176.87,252.26,174.27,247.86,170.4,244.87Z" style="fill:#BA68C8"></path><path d="M133,209.75a29.46,29.46,0,0,1,3.39.09,30.08,30.08,0,0,1,6.65,1.35,26.24,26.24,0,0,1,7.53,3.64,7.78,7.78,0,0,0-2.53-.39,15.25,15.25,0,0,1,5,2.75,8.06,8.06,0,0,0-3.09-.5,4.3,4.3,0,0,1,1.85.8,6.78,6.78,0,0,1,.84.66c.14.13.59.77.74.79l-2.23-.29c1.16.27,3.14,1,3.86,2-.74,0-1.86,0-2.88-.07a7.85,7.85,0,0,1,2.25.47,4.57,4.57,0,0,1,2.68,2.54,5.94,5.94,0,0,0-2-.61c1.92.24,4.3,2.41,5.31,4a15.61,15.61,0,0,0-5.17.8c1.54.58,3.3-.19,4.9.19s2.81,1.91,3.79,3.32a13.44,13.44,0,0,0-4.42.85l4.23.16a2.16,2.16,0,0,1,.91.16,2.25,2.25,0,0,1,.63.52l1.93,2-3.69.66a7.52,7.52,0,0,1,3.34.51,7.61,7.61,0,0,1,3,3.55l-3.53-.4a10.35,10.35,0,0,1,3.4,1.66c2.56,1.9,4.08,4.86,5.52,7.71-1.34-2.08-3.63-3.31-5.82-4.47.33.23.66.46,1,.7,3.51,2.71,6,6.57,8.24,10.44-15.52-19.41-42.23-42-48.9-45.33A17.59,17.59,0,0,1,133,209.75Z" style="opacity:0.1"></path><path d="M129.74,210c-5.67-10-11.61-13.94-29.27-14.73-10.23-.45-26.19,3.28-34.26,8.46l.82.8a22.22,22.22,0,0,1,11-3.61l-8.27,4.61s5.78,2.75,5.92,2.49,5.49-5.73,5.49-5.73l-4.67,6.17,3.42-2.88,1.24.64,4.39-4.56-5.75,7.89,3.14.71,6.36-9.4s-3.92,7.19-4.86,10.48A32.26,32.26,0,0,1,88.91,204L85.68,210l.79.51L95,200l-6.42,10.54,1,.54,9.23-11.22-8,12.35,1.7,0,3.22-4.85-2.54,4.9,1.15.13a49.13,49.13,0,0,1,5-7.32,67.81,67.81,0,0,0-3.86,7.46s2.73-4.42,4.63-6.83l-3.52,7,1.26-.06,3.09-4.41-2.29,4.37.94,0,6.44-8.83-4.45,9,1.77,0,5.57-7.58-3.7,7.16,2.34.11,3.89-4.66-2.74,4.39,1.55.16,5.16-6.62-3.79,6.64,4.8-.33S125.94,211,129.74,210Z" style="fill:#BA68C8"></path><path d="M129.74,210c-5.67-10-11.61-13.94-29.27-14.73-10.23-.45-26.19,3.28-34.26,8.46l.82.8a22.22,22.22,0,0,1,11-3.61l-8.27,4.61s5.78,2.75,5.92,2.49,5.49-5.73,5.49-5.73l-4.67,6.17,3.42-2.88,1.24.64,4.39-4.56-5.75,7.89,3.14.71,6.36-9.4s-3.92,7.19-4.86,10.48A32.26,32.26,0,0,1,88.91,204L85.68,210l.79.51L95,200l-6.42,10.54,1,.54,9.23-11.22-8,12.35,1.7,0,3.22-4.85-2.54,4.9,1.15.13a49.13,49.13,0,0,1,5-7.32,67.81,67.81,0,0,0-3.86,7.46s2.73-4.42,4.63-6.83l-3.52,7,1.26-.06,3.09-4.41-2.29,4.37.94,0,6.44-8.83-4.45,9,1.77,0,5.57-7.58-3.7,7.16,2.34.11,3.89-4.66-2.74,4.39,1.55.16,5.16-6.62-3.79,6.64,4.8-.33S125.94,211,129.74,210Z" style="opacity:0.1"></path><path d="M98.87,172.39a36.34,36.34,0,0,1,13.53,10.24A29.92,29.92,0,0,0,107,175.7c4.36,3,7.75,5.61,9.6,10.57a17.28,17.28,0,0,0-2.13-5c1.9.76,4.41,3.1,4.63,5.12a5.39,5.39,0,0,0-.47-1.8,4.16,4.16,0,0,1,2.2,2.53,7.09,7.09,0,0,1,.33,2.05c0-.92,0-1.94,0-2.61a7.16,7.16,0,0,1,1.63,3.57l-.17-2a6.32,6.32,0,0,1,2.16,4.76,10,10,0,0,0-.64-4,13.14,13.14,0,0,1,3,7.44,15.83,15.83,0,0,0-.07-3.89,26.78,26.78,0,0,1,2.62,17.6,6.55,6.55,0,0,1-4.49-.07l.82-1-1.89.72c-.25-.17-.73-.34-.87-.58a7.94,7.94,0,0,1,2-.88,18.69,18.69,0,0,1-2.46.46,2.3,2.3,0,0,1-.74,0,2.53,2.53,0,0,1-1.33-1,33.33,33.33,0,0,0,3.9-1.24,39.77,39.77,0,0,1-4.23-.13,3.25,3.25,0,0,1-1.32-.32,21.82,21.82,0,0,0,4.39-.84c-2,0-4-.12-6-.32a26.34,26.34,0,0,0,2.9-.77,20.21,20.21,0,0,1-5.21.23,1.15,1.15,0,0,1-.58-.16,1.16,1.16,0,0,1-.28-.34l-.54-.83a38,38,0,0,0,3.81-.82,39.74,39.74,0,0,1-4.87-.36,2.5,2.5,0,0,1-1.65-.54l-.8-.78a18,18,0,0,0,7.07-1.71s-7,.58-11.75-.6a61.23,61.23,0,0,0,6.64-1.25,28.8,28.8,0,0,1-5.5-.27,7.49,7.49,0,0,1-2.43-2.49,16.35,16.35,0,0,0,5.63-1.69,38.52,38.52,0,0,1-6.81.53l-2.14-2.66a42.46,42.46,0,0,0,7.86-1.37,49,49,0,0,1-8.48-.28l-.08-1c3.5.19,8.42-1.42,8.42-1.42a55.59,55.59,0,0,1-11-.77l7.1-.75-8.66.58a51.28,51.28,0,0,1,10.12-2,60.65,60.65,0,0,0-10.82-.47l-.93-2,6-.16c-2.46-1-7.9-2.44-7.9-2.44l-1-2,8.48,1.85c-3-1.36-10.19-4.42-10.19-4.42l-.4-1.83c5.63.6,11.87,3.85,16.51,7.12A44.6,44.6,0,0,0,98.87,172.39Z" style="fill:#BA68C8"></path><path d="M89.59,171.7c5.63.6,11.87,3.85,16.51,7.12a44.6,44.6,0,0,0-7.23-6.43,36.34,36.34,0,0,1,13.53,10.24A29.92,29.92,0,0,0,107,175.7c4.36,3,7.75,5.61,9.6,10.57a17.28,17.28,0,0,0-2.13-5c1.9.76,4.41,3.1,4.63,5.12a5.39,5.39,0,0,0-.47-1.8,4.16,4.16,0,0,1,2.2,2.53,7.09,7.09,0,0,1,.33,2.05c0-.92,0-1.94,0-2.61a7.16,7.16,0,0,1,1.63,3.57l-.17-2a6.32,6.32,0,0,1,2.16,4.76,10,10,0,0,0-.64-4,13.14,13.14,0,0,1,3,7.44,15.83,15.83,0,0,0-.07-3.89,26.78,26.78,0,0,1,2.62,17.6C129.09,199.05,113,179,89.59,171.7Z" style="opacity:0.1"></path></g></g></svg>
