<svg xmlns="http://www.w3.org/2000/svg" viewBox="0 0 750 500"><g id="background-complete"><path d="M476.81,105.93c-2.21,24.39-33.56,344.32-33.56,344.32l12.66-1.49L488.66,93.63Z" style="fill:#f5f5f5"></path><path d="M469.21,203.09a49.25,49.25,0,0,0-20.53-22.58,42.73,42.73,0,0,0,19.08,23.42" style="fill:#f5f5f5"></path><path d="M470,203.51a57.2,57.2,0,0,0-45.41-3.79,105.73,105.73,0,0,0,46.3,4.14" style="fill:#f5f5f5"></path><path d="M521.58,137.4a2.05,2.05,0,0,1-.51.23l-1.47.58c-.65.24-1.43.54-2.33.94s-1.93.79-3,1.34-2.33,1.1-3.6,1.8-2.61,1.45-4,2.27a87.64,87.64,0,0,0-8.63,6.07,85.68,85.68,0,0,0-7.74,7.19c-1.09,1.2-2.15,2.33-3.05,3.45s-1.76,2.17-2.51,3.15-1.37,1.89-1.94,2.69-1,1.49-1.4,2.07l-.87,1.33c-.21.3-.32.45-.34.44a2.36,2.36,0,0,1,.25-.49l.79-1.38c.34-.6.78-1.33,1.33-2.14s1.14-1.76,1.89-2.74,1.53-2.09,2.46-3.2,1.95-2.29,3-3.51a82.3,82.3,0,0,1,7.76-7.26,81.12,81.12,0,0,1,8.71-6.08c1.42-.81,2.76-1.61,4.06-2.24s2.52-1.25,3.65-1.75,2.16-.91,3.07-1.28,1.71-.65,2.37-.86l1.51-.48A2,2,0,0,1,521.58,137.4Z" style="fill:#f5f5f5"></path><path d="M494.74,153a87.65,87.65,0,0,0,22-8.08c4.78-2.52,9.64-5.89,11.25-11.05a33,33,0,0,0-32.83,18.85" style="fill:#f5f5f5"></path><path d="M482.86,166.35A51.58,51.58,0,0,0,513,157.27a78.43,78.43,0,0,0-30.09,9.08" style="fill:#f5f5f5"></path><path d="M489.28,158.15l0,.26c2.18-6.17,4.8-13.83,7.5-19.8,1.13-2.5,2.31-5.44,1-7.88A36.21,36.21,0,0,0,489.28,158.15Z" style="fill:#f5f5f5"></path><path d="M418.31,338.51a1.72,1.72,0,0,1,.5,0l1.44.18a19.91,19.91,0,0,1,2.25.38c.88.2,1.88.36,3,.7l1.69.49c.59.17,1.19.42,1.81.63,1.26.42,2.55,1,3.91,1.61a52.82,52.82,0,0,1,8.32,4.93,54.08,54.08,0,0,1,7.19,6.48c1,1.13,1.92,2.18,2.69,3.26.39.53.8,1,1.14,1.54l1,1.47c.64.93,1.1,1.84,1.55,2.61a22.13,22.13,0,0,1,1,2c.23.53.43,1,.59,1.32a1.61,1.61,0,0,1,.17.47,2.46,2.46,0,0,1-.26-.42l-.68-1.28a21.27,21.27,0,0,0-1.12-2c-.46-.76-.94-1.65-1.6-2.56l-1-1.44c-.34-.5-.75-1-1.15-1.51-.78-1.06-1.73-2.09-2.71-3.19a55.13,55.13,0,0,0-7.14-6.39,55.73,55.73,0,0,0-8.22-4.92c-1.34-.6-2.61-1.2-3.85-1.63-.61-.23-1.2-.47-1.78-.66l-1.67-.51c-1.06-.36-2.06-.55-2.92-.77a22.6,22.6,0,0,0-2.22-.47l-1.42-.27A2.75,2.75,0,0,1,418.31,338.51Z" style="fill:#f5f5f5"></path><path d="M451.44,357.29l-1.13.32-5.79-28.39A29.58,29.58,0,0,1,451.44,357.29Z" style="fill:#f5f5f5"></path><path d="M442.78,349.14a301.47,301.47,0,0,1-30.88-12.68,16.65,16.65,0,0,1,8.89-.15A40.67,40.67,0,0,1,442.74,349" style="fill:#f5f5f5"></path><path d="M433.92,353l-.64.06c4.39-.29,8.12-1.08,12.51-1.37a45.1,45.1,0,0,1-30.15,6.16A45,45,0,0,1,433.92,353Z" style="fill:#f5f5f5"></path><path d="M53.38,140.91c3.48,20.6,46.26,286.26,46.26,286.26l11.16.23L60.49,128.19Z" style="fill:#f5f5f5"></path><path d="M68.21,222.7a42,42,0,0,0-21.84-14.16A36.4,36.4,0,0,0,67.2,223.71" style="fill:#f5f5f5"></path><path d="M68.93,222.88a48.85,48.85,0,0,0-38.28,6.73A90.08,90.08,0,0,0,69.75,223" style="fill:#f5f5f5"></path><path d="M97.15,157.15a2.39,2.39,0,0,1-.37.3l-1.09.8c-.48.34-1.06.76-1.71,1.28s-1.43,1.07-2.21,1.76-1.69,1.42-2.58,2.27-1.84,1.76-2.82,2.74a73.21,73.21,0,0,0-5.8,6.88,74,74,0,0,0-4.82,7.61c-.64,1.23-1.27,2.39-1.77,3.51s-1,2.17-1.38,3.14-.73,1.86-1,2.64-.53,1.46-.71,2-.31.94-.43,1.28a1.65,1.65,0,0,1-.18.44,2.65,2.65,0,0,1,.09-.46l.36-1.31c.15-.57.35-1.26.63-2.05s.56-1.7,1-2.67.81-2.06,1.34-3.18,1.11-2.31,1.75-3.55A63.14,63.14,0,0,1,86.08,166c1-1,1.92-1.92,2.86-2.73s1.81-1.57,2.63-2.23,1.59-1.22,2.26-1.72,1.27-.91,1.76-1.22l1.14-.73C97,157.21,97.14,157.13,97.15,157.15Z" style="fill:#f5f5f5"></path><path d="M78.4,175.87a74.36,74.36,0,0,0,16.37-11.43c3.39-3.11,6.67-6.95,6.88-11.55a28.14,28.14,0,0,0-23,22.67" style="fill:#f5f5f5"></path><path d="M71.49,189.44a44,44,0,0,0,22.85-14,66.81,66.81,0,0,0-22.85,14" style="fill:#f5f5f5"></path><path d="M75,181.27l.09.22c.46-5.57,1-12.46,1.89-18,.39-2.31.72-5-.86-6.72A30.87,30.87,0,0,0,75,181.27Z" style="fill:#f5f5f5"></path><path d="M55.62,345.47a1.21,1.21,0,0,1,.42-.09l1.22-.17a15.91,15.91,0,0,1,2-.17c.76,0,1.63-.11,2.59-.06l1.5,0c.53,0,1.07.09,1.63.13,1.13.07,2.32.28,3.57.48a41.36,41.36,0,0,1,15.27,6.05,35.76,35.76,0,0,1,2.93,2.1c.44.35.89.67,1.28,1l1.12,1c.73.63,1.31,1.28,1.84,1.82a16.42,16.42,0,0,1,1.3,1.46l.78,1a1.55,1.55,0,0,1,.24.35,1.52,1.52,0,0,1-.31-.29l-.84-.91a16.8,16.8,0,0,0-1.35-1.39A25.47,25.47,0,0,0,88.89,356l-1.13-1c-.4-.34-.84-.65-1.28-1-.87-.71-1.88-1.35-2.93-2.05a47.12,47.12,0,0,0-7.28-3.72A47.16,47.16,0,0,0,68.43,346c-1.24-.21-2.42-.43-3.54-.51-.55-.05-1.09-.13-1.61-.16l-1.49-.06c-.95-.06-1.81,0-2.57,0s-1.41,0-1.94.09l-1.23.09Z" style="fill:#f5f5f5"></path><path d="M87,353.77l-.87.51Q80.7,343.2,75.23,332.12A25.22,25.22,0,0,1,87,353.77Z" style="fill:#f5f5f5"></path><path d="M78.11,348.93a258,258,0,0,1-28.22-3.76,14.14,14.14,0,0,1,7.3-2.05,34.64,34.64,0,0,1,20.86,5.67" style="fill:#f5f5f5"></path><path d="M71.65,354l-.52.19c3.56-1.19,6.46-2.65,10-3.84A38.5,38.5,0,0,1,57.62,362,38.38,38.38,0,0,1,71.65,354Z" style="fill:#f5f5f5"></path><path d="M279.81,24c-.35,2.56,32.79,400.11,32.79,400.11l-13.67-1.82L269.32,37.35Z" style="fill:#f5f5f5"></path><path d="M276.29,96a53.33,53.33,0,0,0-20.37-26,46.28,46.28,0,0,0,18.73,26.8" style="fill:#f5f5f5"></path><path d="M277.08,96.55a62,62,0,0,0-48.72-7.72A114.41,114.41,0,0,0,278,97" style="fill:#f5f5f5"></path><path d="M288.57,156.13A53.29,53.29,0,0,1,311.17,132a46.24,46.24,0,0,1-21,25" style="fill:#f5f5f5"></path><path d="M287.74,156.57A62,62,0,0,1,337,153.22a114.39,114.39,0,0,1-50.18,3.72" style="fill:#f5f5f5"></path><path d="M248.2,150.54a3.4,3.4,0,0,1,0-.6c0-.45.08-1,.14-1.71s.14-1.66.31-2.71.3-2.25.58-3.56.53-2.75.93-4.27.84-3.14,1.34-4.83a80.59,80.59,0,0,1,9.92-20.69c1-1.45,1.95-2.85,2.93-4.08s1.88-2.38,2.75-3.4,1.7-1.89,2.42-2.67,1.36-1.43,1.91-1.94l1.25-1.18a2.84,2.84,0,0,1,.46-.39,2.84,2.84,0,0,1-.39.46l-1.18,1.25c-.52.53-1.15,1.19-1.84,2s-1.52,1.67-2.35,2.72-1.77,2.15-2.68,3.42-1.88,2.63-2.88,4.09a93.16,93.16,0,0,0-5.63,9.94A92.17,92.17,0,0,0,252,133c-.51,1.68-1,3.27-1.38,4.8s-.72,2.93-1,4.23-.47,2.5-.65,3.54-.31,1.94-.4,2.68-.18,1.26-.24,1.7A2.41,2.41,0,0,1,248.2,150.54Z" style="fill:#f5f5f5"></path><path d="M257.94,118.36a95.19,95.19,0,0,1-3,25.15c-1.46,5.66-3.8,11.63-8.82,14.62a35.75,35.75,0,0,1,11.62-39.3" style="fill:#f5f5f5"></path><path d="M269,102.51a55.87,55.87,0,0,1-2,34,84.73,84.73,0,0,1,2-34" style="fill:#f5f5f5"></path><path d="M265.12,107l.28,0c-6.64,2.45-14.9,5.41-21.31,8.42-2.7,1.26-5.86,2.58-8.52,1.23A39.18,39.18,0,0,1,265.12,107Z" style="fill:#f5f5f5"></path><path d="M249.17,254.68a3.51,3.51,0,0,1,.57.16l1.63.56c.71.24,1.57.55,2.54,1s2.11.84,3.31,1.44,2.54,1.19,3.91,1.95,2.84,1.59,4.36,2.5a88.32,88.32,0,0,1,9.33,6.72,86.93,86.93,0,0,1,8.27,8c1.16,1.33,2.28,2.58,3.23,3.84s1.85,2.41,2.62,3.5,1.42,2.11,2,3,1.05,1.68,1.41,2.33l.84,1.5a3.86,3.86,0,0,1,.26.54,2.17,2.17,0,0,1-.35-.49l-.92-1.45c-.39-.63-.87-1.4-1.48-2.27s-1.24-1.89-2.06-3-1.65-2.24-2.65-3.44-2.09-2.47-3.25-3.79a84.76,84.76,0,0,0-17.5-14.63c-1.51-.9-2.93-1.79-4.31-2.52s-2.67-1.42-3.87-2-2.29-1.06-3.26-1.5-1.81-.78-2.5-1l-1.59-.65A2.12,2.12,0,0,1,249.17,254.68Z" style="fill:#f5f5f5"></path><path d="M278,272.05a94.91,94.91,0,0,1-23.64-9.1c-5.13-2.81-10.34-6.54-12-12.14a35.71,35.71,0,0,1,35.23,20.93" style="fill:#f5f5f5"></path><path d="M290.59,286.66a55.87,55.87,0,0,1-32.41-10.33,84.75,84.75,0,0,1,32.41,10.33" style="fill:#f5f5f5"></path><path d="M283.78,277.67l0,.29c-2.25-6.72-5-15-7.79-21.55-1.18-2.73-2.41-5.94-1-8.55A39.14,39.14,0,0,1,283.78,277.67Z" style="fill:#f5f5f5"></path><path d="M231.47,192.59a2,2,0,0,1,.48-.25l1.44-.63a20.6,20.6,0,0,1,2.31-.89,32.57,32.57,0,0,1,3.13-1l1.85-.48c.64-.17,1.33-.27,2-.42,1.4-.31,2.92-.47,4.52-.67a57,57,0,0,1,10.47,0,58.18,58.18,0,0,1,10.27,2c1.53.51,3,1,4.31,1.53.66.28,1.31.51,1.91.8l1.72.83c1.11.5,2,1.09,2.89,1.56a23.52,23.52,0,0,1,2.1,1.32l1.28.89a2.61,2.61,0,0,1,.43.34,1.85,1.85,0,0,1-.49-.25l-1.33-.81c-.57-.36-1.28-.8-2.13-1.23s-1.8-1-2.91-1.49L274,193c-.6-.28-1.25-.5-1.91-.77-1.31-.55-2.77-1-4.29-1.47a54.6,54.6,0,0,0-20.55-2c-1.59.19-3.1.33-4.49.62-.7.13-1.38.23-2,.38l-1.84.45c-1.19.26-2.22.63-3.14.9s-1.7.56-2.33.81l-1.47.53A1.93,1.93,0,0,1,231.47,192.59Z" style="fill:#f5f5f5"></path><path d="M272.69,191.67l-.88.92-21.12-23.17A32,32,0,0,1,272.69,191.67Z" style="fill:#f5f5f5"></path><path d="M260.11,188.9a326.11,326.11,0,0,1-35.73,5.34c2.06-2.51,5.11-4,8.18-5.07a44,44,0,0,1,27.42-.42" style="fill:#f5f5f5"></path><path d="M254,197.39l-.56.41c3.92-2.7,7-5.5,10.87-8.2a48.8,48.8,0,0,1-24.61,22.45A48.88,48.88,0,0,1,254,197.39Z" style="fill:#f5f5f5"></path><path d="M341.44,303.54a2.21,2.21,0,0,1-.54.13l-1.53.26c-.67.1-1.49.24-2.42.47s-2,.41-3.17.78l-1.82.53c-.63.19-1.27.45-1.94.68-1.35.44-2.73,1.08-4.2,1.71a58.32,58.32,0,0,0-9,5.19,61,61,0,0,0-7.84,6.79c-1.07,1.19-2.12,2.29-3,3.42-.44.56-.89,1.08-1.27,1.61l-1.1,1.55c-.72,1-1.25,1.93-1.77,2.74s-.92,1.53-1.23,2.13l-.75,1.37a1.9,1.9,0,0,1-.3.46,1.87,1.87,0,0,1,.2-.5l.67-1.42a21.16,21.16,0,0,1,1.16-2.19c.49-.83,1-1.81,1.72-2.79l1.07-1.59c.38-.54.83-1.07,1.26-1.64.86-1.15,1.9-2.27,3-3.48a58.55,58.55,0,0,1,7.89-6.89,57.11,57.11,0,0,1,9.08-5.2c1.49-.62,2.89-1.25,4.25-1.68.68-.22,1.33-.47,2-.65l1.84-.5c1.17-.35,2.26-.52,3.21-.72a23,23,0,0,1,2.45-.38l1.55-.17A2.08,2.08,0,0,1,341.44,303.54Z" style="fill:#f5f5f5"></path><path d="M305.27,323.32l1.22.37q3.36-15.31,6.73-30.63A32,32,0,0,0,305.27,323.32Z" style="fill:#f5f5f5"></path><path d="M314.78,314.65a326.53,326.53,0,0,0,33.62-13.22c-3-1.14-6.42-.91-9.62-.3a44,44,0,0,0-24,13.32" style="fill:#f5f5f5"></path><path d="M324.3,319l.69.08c-4.75-.39-8.76-1.3-13.51-1.68A48.79,48.79,0,0,0,344,324.52,48.8,48.8,0,0,0,324.3,319Z" style="fill:#f5f5f5"></path><path d="M376.37,27.88c.62,2.52,11,401.31,11,401.31l13.39-3.3L388.25,40.05Z" style="fill:#f5f5f5"></path><path d="M387.72,99.15a53.29,53.29,0,0,1,17.41-28.07,46.23,46.23,0,0,1-15.7,28.68" style="fill:#f5f5f5"></path><path d="M387,99.75a62,62,0,0,1,47.58-13,114.14,114.14,0,0,1-48.46,13.53" style="fill:#f5f5f5"></path><path d="M382.05,160.22A53.27,53.27,0,0,0,357,138.74a46.32,46.32,0,0,0,23.64,22.59" style="fill:#f5f5f5"></path><path d="M382.93,160.57a62,62,0,0,0-49.28,2,114.43,114.43,0,0,0,50.28-1.76" style="fill:#f5f5f5"></path><path d="M421.57,150.27a2.41,2.41,0,0,0-.08-.59c-.08-.44-.19-1-.32-1.69s-.33-1.63-.61-2.65-.54-2.21-1-3.48-.83-2.68-1.39-4.14-1.18-3-1.87-4.66A86.2,86.2,0,0,0,411,122.88a87.91,87.91,0,0,0-6.75-9.31c-1.16-1.33-2.25-2.61-3.36-3.73s-2.12-2.17-3.1-3.08-1.89-1.7-2.69-2.4-1.51-1.27-2.11-1.72l-1.37-1a3.09,3.09,0,0,0-.5-.33,3,3,0,0,0,.43.42l1.31,1.11c.58.47,1.27,1.06,2.05,1.78s1.7,1.49,2.63,2.45,2,1.94,3,3.11,2.16,2.41,3.3,3.74a92.82,92.82,0,0,1,6.68,9.28,91.7,91.7,0,0,1,5.36,10.09c.69,1.62,1.38,3.14,1.9,4.62s1,2.84,1.45,4.1.73,2.43,1,3.44.52,1.9.69,2.62l.42,1.67A2.19,2.19,0,0,0,421.57,150.27Z" style="fill:#f5f5f5"></path><path d="M408.38,119.34A95.47,95.47,0,0,0,414.1,144c2.07,5.47,5,11.15,10.36,13.57a35.75,35.75,0,0,0-15.83-37.8" style="fill:#f5f5f5"></path><path d="M395.68,104.8a55.87,55.87,0,0,0,5.7,33.53,84.65,84.65,0,0,0-5.7-33.53" style="fill:#f5f5f5"></path><path d="M400,108.87l-.28.07c6.87,1.71,15.4,3.75,22.1,6,2.82,1,6.11,1.93,8.6.3A39.14,39.14,0,0,0,400,108.87Z" style="fill:#f5f5f5"></path><path d="M432,253.9a3.07,3.07,0,0,0-.56.22c-.4.2-.92.44-1.55.73s-1.5.72-2.43,1.25-2,1.06-3.13,1.79-2.39,1.45-3.67,2.36-2.65,1.89-4.06,3a80.62,80.62,0,0,0-15.9,16.54c-1,1.45-2,2.82-2.79,4.17s-1.58,2.59-2.22,3.76-1.19,2.26-1.67,3.2-.85,1.78-1.14,2.47l-.67,1.59a2.28,2.28,0,0,0-.2.56,2.22,2.22,0,0,0,.3-.52c.19-.4.44-.92.75-1.54s.71-1.5,1.22-2.43,1-2,1.73-3.15,1.4-2.41,2.26-3.71S400,281.47,401,280a90.62,90.62,0,0,1,7.35-8.76,92.36,92.36,0,0,1,8.46-7.69c1.39-1.06,2.7-2.1,4-3s2.5-1.7,3.63-2.41,2.17-1.31,3.08-1.85,1.71-1,2.37-1.31l1.51-.82A2.22,2.22,0,0,0,432,253.9Z" style="fill:#f5f5f5"></path><path d="M405.22,274.3a95.31,95.31,0,0,0,22.51-11.62c4.79-3.35,9.57-7.63,10.6-13.38A35.74,35.74,0,0,0,405.6,274" style="fill:#f5f5f5"></path><path d="M394.25,290.2a56,56,0,0,0,31.1-13.79,84.56,84.56,0,0,0-31.1,13.79" style="fill:#f5f5f5"></path><path d="M400.05,280.52l.07.28c1.52-6.92,3.31-15.5,5.4-22.27.88-2.84,1.75-6.16.05-8.61A39.19,39.19,0,0,0,400.05,280.52Z" style="fill:#f5f5f5"></path><path d="M442.78,190.25a1.74,1.74,0,0,0-.51-.2l-1.49-.47a21.7,21.7,0,0,0-2.39-.63c-.95-.2-2-.49-3.23-.64l-1.89-.28c-.65-.09-1.35-.12-2.06-.19-1.42-.16-3-.15-4.57-.18a58.91,58.91,0,0,0-10.41,1.11,57.93,57.93,0,0,0-10,3.14c-1.47.67-2.88,1.28-4.12,2-.63.35-1.25.65-1.82,1l-1.62,1c-1.05.62-1.91,1.31-2.7,1.87a23.1,23.1,0,0,0-1.94,1.54l-1.18,1a3.19,3.19,0,0,0-.39.38s.17-.09.46-.3l1.24-1c.53-.43,1.18-.93,2-1.46s1.67-1.2,2.73-1.79l1.62-1c.57-.34,1.19-.63,1.82-1,1.24-.69,2.64-1.27,4.1-1.92a60.47,60.47,0,0,1,9.91-3.08,59.82,59.82,0,0,1,10.31-1.14c1.6,0,3.11,0,4.53.13.71.06,1.39.08,2.05.16l1.88.25c1.2.12,2.27.38,3.21.55s1.75.37,2.41.55l1.51.37A2.2,2.2,0,0,0,442.78,190.25Z" style="fill:#f5f5f5"></path><path d="M401.71,193.82l1,.83,18.48-25.34A32,32,0,0,0,401.71,193.82Z" style="fill:#f5f5f5"></path><path d="M413.91,189.7a324.61,324.61,0,0,0,36.1,1.42c-2.33-2.27-5.52-3.42-8.69-4.15a44,44,0,0,0-27.3,2.57" style="fill:#f5f5f5"></path><path d="M420.89,197.48l.6.35c-4.19-2.26-7.5-4.71-11.7-7A48.91,48.91,0,0,0,436.7,210.5,48.65,48.65,0,0,0,420.89,197.48Z" style="fill:#f5f5f5"></path><path d="M345.55,312.51a2.18,2.18,0,0,0,.54.07l1.56.1a23.19,23.19,0,0,1,2.46.2c.95.12,2,.19,3.23.44l1.87.32c.65.12,1.31.31,2,.47,1.39.29,2.83.77,4.36,1.23a54.87,54.87,0,0,1,18,10.09c1.2,1.06,2.36,2,3.34,3.07.49.51,1,1,1.44,1.46l1.25,1.43c.83.88,1.47,1.77,2.07,2.52s1.08,1.43,1.45,2l.9,1.28a2.61,2.61,0,0,0,.34.43,1.85,1.85,0,0,0-.25-.49l-.82-1.33a22.07,22.07,0,0,0-1.39-2.05,32.82,32.82,0,0,0-2-2.59c-.39-.47-.81-.95-1.24-1.46s-.93-1-1.43-1.49c-1-1.06-2.13-2.06-3.33-3.14a58.15,58.15,0,0,0-8.59-6,57.49,57.49,0,0,0-9.59-4.18c-1.55-.46-3-.93-4.41-1.2-.7-.15-1.37-.33-2-.44l-1.88-.3c-1.2-.22-2.31-.27-3.27-.36a20.78,20.78,0,0,0-2.47-.11h-1.57A1.85,1.85,0,0,0,345.55,312.51Z" style="fill:#f5f5f5"></path><path d="M383.66,328.24l-1.18.5-10-29.72A32.05,32.05,0,0,1,383.66,328.24Z" style="fill:#f5f5f5"></path><path d="M373.26,320.65a325.84,325.84,0,0,1-34.87-9.47c2.9-1.47,6.29-1.61,9.53-1.35a44,44,0,0,1,25.27,10.63" style="fill:#f5f5f5"></path><path d="M364.26,326l-.68.15c4.68-.9,8.58-2.24,13.25-3.14a48.85,48.85,0,0,1-31.55,10.66A48.73,48.73,0,0,1,364.26,326Z" style="fill:#f5f5f5"></path><path d="M192.29,32.13c.82,2.45,43.63,399.07,43.63,399.07L249,426.82,205.12,43.29Z" style="fill:#e0e0e0"></path><path d="M209.41,102.23a53.26,53.26,0,0,1,15.07-29.39,46.29,46.29,0,0,1-13.32,29.87" style="fill:#e0e0e0"></path><path d="M208.73,102.89A62,62,0,0,1,255.1,86.08a114.37,114.37,0,0,1-47.2,17.43" style="fill:#e0e0e0"></path><path d="M208.73,163.57A53.25,53.25,0,0,0,182,144.19a46.24,46.24,0,0,0,25.4,20.59" style="fill:#e0e0e0"></path><path d="M209.64,163.84a62,62,0,0,0-49,6,114.24,114.24,0,0,0,50-5.85" style="fill:#e0e0e0"></path><path d="M247.31,150.43a2.45,2.45,0,0,1-.23-.56c-.14-.42-.33-1-.55-1.62s-.52-1.58-.9-2.56-.77-2.13-1.31-3.35-1.08-2.57-1.78-4-1.44-2.89-2.26-4.45A84.59,84.59,0,0,0,226.7,115.6c-1.25-1.24-2.42-2.43-3.6-3.46s-2.26-2-3.29-2.86-2-1.57-2.82-2.22-1.57-1.18-2.18-1.61l-1.39-1a2.13,2.13,0,0,1-.47-.38,3.31,3.31,0,0,1,.52.29l1.45.93c.64.39,1.4.9,2.25,1.54s1.85,1.31,2.88,2.17,2.18,1.75,3.34,2.82,2.38,2.21,3.65,3.44a88.72,88.72,0,0,1,7.49,8.73,87.12,87.12,0,0,1,6.17,9.7c.81,1.57,1.61,3.05,2.24,4.5s1.23,2.77,1.72,4,.89,2.38,1.24,3.38.62,1.88.82,2.6l.46,1.65A2.5,2.5,0,0,1,247.31,150.43Z" style="fill:#e0e0e0"></path><path d="M231.65,120.68a95.15,95.15,0,0,0,7.71,24.13c2.5,5.28,5.93,10.7,11.42,12.68a35.7,35.7,0,0,0-18.85-36.38" style="fill:#e0e0e0"></path><path d="M217.8,107.21a55.87,55.87,0,0,0,8.42,33,84.92,84.92,0,0,0-8.42-33" style="fill:#e0e0e0"></path><path d="M222.46,110.92l-.28.09c7,1.15,15.66,2.48,22.53,4.22,2.88.73,6.24,1.42,8.59-.4A39.11,39.11,0,0,0,222.46,110.92Z" style="fill:#e0e0e0"></path><path d="M266.1,252.87a2.75,2.75,0,0,1-.48.35l-1.44.94c-.64.4-1.4.89-2.26,1.51s-1.88,1.26-2.92,2.09-2.23,1.68-3.41,2.69-2.45,2.12-3.76,3.3a85,85,0,0,0-14.41,17.67c-.89,1.52-1.76,2.95-2.47,4.34s-1.39,2.69-2,3.89-1,2.31-1.46,3.28-.76,1.82-1,2.51-.46,1.18-.63,1.6a3.09,3.09,0,0,1-.25.55,2.6,2.6,0,0,1,.15-.58l.54-1.64c.23-.71.53-1.57.94-2.55s.82-2.12,1.4-3.32,1.16-2.55,1.91-3.94,1.55-2.85,2.44-4.39a80.45,80.45,0,0,1,14.5-17.77c1.32-1.18,2.56-2.31,3.8-3.28s2.39-1.88,3.47-2.66,2.1-1.45,3-2,1.66-1.06,2.31-1.43l1.49-.86A2.17,2.17,0,0,1,266.1,252.87Z" style="fill:#e0e0e0"></path><path d="M241.12,275.37A94.89,94.89,0,0,0,262.61,262c4.5-3.73,8.91-8.38,9.47-14.2A35.7,35.7,0,0,0,241.47,275" style="fill:#e0e0e0"></path><path d="M231.48,292.11a55.82,55.82,0,0,0,29.87-16.28,84.94,84.94,0,0,0-29.87,16.28" style="fill:#e0e0e0"></path><path d="M236.47,282l.1.27c.94-7,2-15.72,3.57-22.64.64-2.9,1.24-6.28-.65-8.58A39.18,39.18,0,0,0,236.47,282Z" style="fill:#e0e0e0"></path><path d="M271.71,188.54a2.08,2.08,0,0,1-.55,0l-1.54-.25c-.66-.12-1.48-.26-2.44-.35s-2-.26-3.25-.29l-1.89-.09c-.66,0-1.35,0-2.06,0-1.42,0-2.93.12-4.52.24a59,59,0,0,0-10.18,2,60.19,60.19,0,0,0-9.63,3.86c-1.4.77-2.75,1.47-3.93,2.26-.6.39-1.19.73-1.73,1.11l-1.54,1.11c-1,.68-1.82,1.41-2.57,2s-1.37,1.15-1.86,1.61l-1.16,1.05a2.19,2.19,0,0,1-.43.34,2.47,2.47,0,0,1,.36-.41l1.09-1.12a19.57,19.57,0,0,1,1.81-1.69c.74-.63,1.54-1.38,2.54-2.09l1.53-1.14c.54-.39,1.13-.75,1.73-1.14,1.18-.82,2.53-1.53,3.94-2.32a56.52,56.52,0,0,1,9.7-3.94,57.27,57.27,0,0,1,10.28-2c1.61-.1,3.14-.24,4.57-.19.72,0,1.41,0,2.07,0l1.91.13a30.14,30.14,0,0,1,3.26.37,22.22,22.22,0,0,1,2.44.43l1.53.35A2.79,2.79,0,0,1,271.71,188.54Z" style="fill:#e0e0e0"></path><path d="M231.06,195.45l1,.74,16.35-26.76A32.07,32.07,0,0,0,231.06,195.45Z" style="fill:#e0e0e0"></path><path d="M242.89,190.35A327,327,0,0,0,279,188.83c-2.5-2.08-5.78-3-9-3.43a43.94,43.94,0,0,0-27,4.78" style="fill:#e0e0e0"></path><path d="M250.47,197.53l.64.3c-4.37-1.91-7.87-4.08-12.23-6a48.8,48.8,0,0,0,28.41,17.39A48.74,48.74,0,0,0,250.47,197.53Z" style="fill:#e0e0e0"></path><path d="M184.76,318.32a2.29,2.29,0,0,1,.54-.08l1.56-.13a20.43,20.43,0,0,1,2.47-.08c1,0,2.07,0,3.29.09l1.9.14c.66.06,1.35.18,2.06.27,1.42.17,2.91.51,4.49.84a57.55,57.55,0,0,1,9.9,3.39A58.26,58.26,0,0,1,220,328c1.28,1,2.52,1.88,3.58,2.85.53.48,1.07.91,1.54,1.38l1.36,1.35a32.64,32.64,0,0,1,2.22,2.42,20.1,20.1,0,0,1,1.55,1.93l.93,1.26a2.68,2.68,0,0,1,.29.46s-.15-.13-.38-.4l-1-1.2a23.76,23.76,0,0,0-1.61-1.86c-.66-.7-1.36-1.54-2.26-2.35l-1.37-1.32c-.48-.45-1-.87-1.56-1.34-1.05-.95-2.29-1.83-3.57-2.79a61.29,61.29,0,0,0-9-5.19,59.62,59.62,0,0,0-9.8-3.39c-1.56-.34-3-.7-4.45-.88-.7-.1-1.38-.23-2-.3l-1.89-.17c-1.2-.15-2.3-.13-3.26-.17s-1.79,0-2.46,0l-1.56,0A2,2,0,0,1,184.76,318.32Z" style="fill:#e0e0e0"></path><path d="M224,330.9l-1.13.59-12.41-28.8A32,32,0,0,1,224,330.9Z" style="fill:#e0e0e0"></path><path d="M213,324.18a326.52,326.52,0,0,1-35.52-6.61c2.77-1.7,6.14-2.11,9.39-2.12A44,44,0,0,1,213,324" style="fill:#e0e0e0"></path><path d="M204.51,330.22l-.67.21c4.59-1.28,8.36-2.94,12.95-4.22a48.75,48.75,0,0,1-30.58,13.2A48.78,48.78,0,0,1,204.51,330.22Z" style="fill:#e0e0e0"></path><path d="M440.29,35.93c-.58,2.53-1.75,392.26-1.75,392.26l-13.3,1L429,43Z" style="fill:#e0e0e0"></path><path d="M437.58,168.42a54.72,54.72,0,0,1,25.27-22.21,47.3,47.3,0,0,1-23.76,23.27" style="fill:#e0e0e0"></path><path d="M436.69,168.8a65.21,65.21,0,0,1,50.67.6,120.67,120.67,0,0,1-51.7-.31" style="fill:#e0e0e0"></path><path d="M427.39,230.27a53.3,53.3,0,0,0-21.87-25.14,46.08,46.08,0,0,0,20.22,26" style="fill:#e0e0e0"></path><path d="M428.22,230.76a65,65,0,0,0-50.31-5.68,120.4,120.4,0,0,0,51.29,6.09" style="fill:#e0e0e0"></path><path d="M396.74,159.61a2.7,2.7,0,0,1,.07-.6c.08-.45.18-1,.3-1.71s.3-1.65.57-2.69.51-2.24.91-3.53c.19-.65.39-1.33.6-2s.49-1.42.74-2.18c.5-1.51,1.16-3.07,1.82-4.73a81.33,81.33,0,0,1,12-19.82c1.16-1.36,2.24-2.67,3.35-3.81s2.13-2.21,3.1-3.15,1.89-1.74,2.69-2.45,1.51-1.3,2.11-1.77l1.37-1.06a3.51,3.51,0,0,1,.5-.35,2.69,2.69,0,0,1-.43.43l-1.31,1.14c-.58.49-1.28,1.08-2,1.82s-1.7,1.53-2.62,2.51-2,2-3,3.17-2.16,2.46-3.3,3.83a84.42,84.42,0,0,0-11.95,19.7c-.67,1.64-1.34,3.19-1.85,4.69-.26.74-.54,1.46-.77,2.15s-.42,1.37-.62,2c-.43,1.27-.71,2.46-1,3.49s-.5,1.92-.65,2.66-.29,1.25-.4,1.69A2,2,0,0,1,396.74,159.61Z" style="fill:#e0e0e0"></path><path d="M409.56,128.31a93.43,93.43,0,0,1-5.29,24.84c-2,5.52-4.92,11.29-10.32,13.86a35.11,35.11,0,0,1,1.5-21.45,36.54,36.54,0,0,1,13.87-16.8" style="fill:#e0e0e0"></path><path d="M422.27,113.39a54.72,54.72,0,0,1-5.07,33.7,82.77,82.77,0,0,1,5.07-33.7" style="fill:#e0e0e0"></path><path d="M417.9,117.59l.29.06c-7,1.91-15.73,4.19-22.57,6.68-2.87,1-6.23,2.1-8.82.55A41.25,41.25,0,0,1,417.9,117.59Z" style="fill:#e0e0e0"></path><path d="M388.52,263.53a3.67,3.67,0,0,1,.57.21l1.6.67c.7.3,1.55.67,2.5,1.16s2.07,1,3.24,1.69,2.47,1.37,3.81,2.24,2.75,1.8,4.22,2.82a81.41,81.41,0,0,1,16.75,16.06c1.07,1.43,2.12,2.77,3,4.1.44.66.89,1.29,1.28,1.91s.75,1.24,1.11,1.82c.72,1.14,1.28,2.23,1.8,3.17s.93,1.76,1.25,2.45.54,1.17.73,1.58a2.53,2.53,0,0,1,.22.56,2.18,2.18,0,0,1-.32-.52l-.82-1.53c-.34-.67-.77-1.48-1.32-2.4s-1.11-2-1.86-3.12c-.36-.57-.73-1.17-1.13-1.79s-.85-1.23-1.3-1.88c-.87-1.32-1.93-2.64-3-4.06a94.53,94.53,0,0,0-7.79-8.55,92.35,92.35,0,0,0-8.87-7.41c-1.45-1-2.83-2-4.17-2.84s-2.6-1.62-3.76-2.29-2.25-1.23-3.19-1.75-1.77-.91-2.45-1.23l-1.56-.77A2.5,2.5,0,0,1,388.52,263.53Z" style="fill:#e0e0e0"></path><path d="M416.46,283.16a98.64,98.64,0,0,1-23.4-11c-5-3.21-10-7.35-11.2-13.07a37.44,37.44,0,0,1,21,6.58,35.71,35.71,0,0,1,13.24,17.12" style="fill:#e0e0e0"></path><path d="M428.11,298.73a57.88,57.88,0,0,1-32.27-12.89,87.92,87.92,0,0,1,32.27,12.89" style="fill:#e0e0e0"></path><path d="M421.93,289.23l-.07.28c-1.72-6.88-3.76-15.41-6.08-22.11-1-2.82-1.94-6.11-.25-8.61A38.22,38.22,0,0,1,421.93,289.23Z" style="fill:#e0e0e0"></path><path d="M486.89,74.55a2.22,2.22,0,0,1-.56,0l-1.6-.08c-.69,0-1.54-.1-2.52-.08s-2.11,0-3.34.07l-1.94.11c-.67,0-1.37.16-2.09.24-1.45.13-3,.44-4.59.73a62.07,62.07,0,0,0-10.17,3.07,62.94,62.94,0,0,0-9.43,4.88c-1.35.93-2.66,1.76-3.79,2.68-.57.45-1.14.87-1.66,1.3l-1.46,1.28c-1,.79-1.72,1.61-2.43,2.29-.35.34-.67.67-1,1l-.77.86c-.44.47-.8.86-1.08,1.18s-.39.4-.41.38a2.81,2.81,0,0,1,.33-.45l1-1.25.73-.89c.29-.32.61-.64,1-1,.69-.71,1.45-1.55,2.39-2.37l1.45-1.31c.52-.44,1.08-.87,1.66-1.33,1.12-.94,2.44-1.8,3.79-2.74a60.33,60.33,0,0,1,9.5-5,58.73,58.73,0,0,1,10.27-3.06c1.62-.28,3.17-.58,4.63-.69.73-.07,1.43-.18,2.11-.21l2-.08c1.25-.08,2.38,0,3.37,0a23.85,23.85,0,0,1,2.53.17l1.59.17A2.3,2.3,0,0,1,486.89,74.55Z" style="fill:#e0e0e0"></path><path d="M446.09,85.9l1.14.62q6.91-14.2,13.84-28.41A32,32,0,0,0,446.09,85.9Z" style="fill:#e0e0e0"></path><path d="M457.62,79.52A344.23,344.23,0,0,0,494.35,74c-2.78-1.79-6.22-2.31-9.56-2.42a46.38,46.38,0,0,0-27.08,7.73" style="fill:#e0e0e0"></path><path d="M466.15,85.83l.68.23c-4.67-1.43-8.48-3.2-13.14-4.62a50.37,50.37,0,0,0,30.9,14.15A50.11,50.11,0,0,0,466.15,85.83Z" style="fill:#e0e0e0"></path><path d="M478.68,319.64a2.11,2.11,0,0,1-.56.09l-1.59.14a23.46,23.46,0,0,0-2.5.27c-1,.15-2.09.24-3.29.52s-2.54.49-3.94.9-2.88.84-4.43,1.35a57,57,0,0,0-18.28,10.55c-1.2,1.1-2.39,2.11-3.37,3.18-.51.52-1,1-1.46,1.51s-.86,1-1.27,1.46c-.83.92-1.48,1.83-2.08,2.61l-.82,1.09-.64,1-.9,1.32a2.17,2.17,0,0,1-.35.44,3.19,3.19,0,0,1,.26-.5l.82-1.37c.18-.3.39-.63.6-1l.8-1.12c.58-.8,1.21-1.73,2-2.67l1.25-1.5c.44-.51,1-1,1.45-1.54,1-1.1,2.16-2.12,3.36-3.24a55.54,55.54,0,0,1,18.44-10.65c1.57-.5,3.05-1,4.48-1.31a40.25,40.25,0,0,1,4-.84c1.22-.26,2.35-.33,3.33-.45a21.33,21.33,0,0,1,2.52-.18l1.6-.05A2.46,2.46,0,0,1,478.68,319.64Z" style="fill:#e0e0e0"></path><path d="M439.9,336.47l1.22.46q4.78-15,9.59-30A31.72,31.72,0,0,0,439.9,336.47Z" style="fill:#e0e0e0"></path><path d="M450.4,328.58A343.34,343.34,0,0,0,486,318.1c-3-1.39-6.5-1.43-9.83-1.08a46.08,46.08,0,0,0-25.71,11.37" style="fill:#e0e0e0"></path><path d="M459.76,333.65l.71.13c-4.83-.77-8.86-2-13.69-2.76a50.88,50.88,0,0,0,32.67,9.75A50.62,50.62,0,0,0,459.76,333.65Z" style="fill:#e0e0e0"></path><path d="M337,35.87c-.54,2.53,0,391.3,0,391.3l-13.47.54.21-392.08Z" style="fill:#e0e0e0"></path><path d="M326.14,102.07a53.33,53.33,0,0,0-18.29-27.5,46.26,46.26,0,0,0,16.6,28.17" style="fill:#e0e0e0"></path><path d="M331.91,114.69A53.3,53.3,0,0,0,306,135.22a46.29,46.29,0,0,0,26.68-18.9" style="fill:#e0e0e0"></path><path d="M326.89,102.65a61.94,61.94,0,0,0-48-11.46,114.3,114.3,0,0,0,48.87,12" style="fill:#e0e0e0"></path><path d="M286.85,258.15a3.28,3.28,0,0,1,.57.21L289,259c.69.29,1.52.67,2.46,1.16s2,1,3.19,1.69,2.43,1.38,3.74,2.25,2.71,1.81,4.15,2.82a88.4,88.4,0,0,1,8.79,7.43A86.87,86.87,0,0,1,319,283c1.05,1.42,2.07,2.76,2.92,4.08s1.66,2.54,2.34,3.69,1.26,2.22,1.77,3.15.91,1.75,1.22,2.43.53,1.15.72,1.56a3.07,3.07,0,0,1,.22.56,2,2,0,0,1-.31-.51c-.22-.4-.48-.9-.81-1.52s-.76-1.47-1.3-2.38-1.09-2-1.82-3.1-1.47-2.36-2.38-3.64-1.89-2.62-2.95-4a92.79,92.79,0,0,0-7.62-8.52,91.49,91.49,0,0,0-8.7-7.41c-1.43-1-2.77-2-4.1-2.85s-2.55-1.62-3.7-2.29-2.21-1.24-3.13-1.75-1.75-.92-2.42-1.24l-1.53-.77A2.91,2.91,0,0,1,286.85,258.15Z" style="fill:#e0e0e0"></path><path d="M314.22,277.69a95.14,95.14,0,0,1-22.87-10.9c-4.89-3.19-9.8-7.32-11-13a35.74,35.74,0,0,1,33.5,23.59" style="fill:#e0e0e0"></path><path d="M325.69,293.23a55.91,55.91,0,0,1-31.52-12.79,84.71,84.71,0,0,1,31.52,12.79" style="fill:#e0e0e0"></path><path d="M319.59,283.75l-.07.28c-1.73-6.87-3.79-15.39-6.1-22.09-1-2.82-1.95-6.1-.33-8.6A39.17,39.17,0,0,1,319.59,283.75Z" style="fill:#e0e0e0"></path><path d="M275.57,222.91a1.91,1.91,0,0,1,.5-.21l1.48-.52a21.19,21.19,0,0,1,2.37-.71c.94-.23,2-.55,3.2-.74l1.88-.34c.66-.11,1.35-.17,2.06-.26,1.42-.2,2.95-.24,4.56-.32a57.61,57.61,0,0,1,10.44.78,58.22,58.22,0,0,1,10.08,2.82c1.49.62,2.91,1.18,4.18,1.86.64.32,1.27.61,1.85.94l1.65,1c1.06.59,1.95,1.25,2.75,1.78a20.2,20.2,0,0,1,2,1.48l1.22,1a2.64,2.64,0,0,1,.4.37,2.18,2.18,0,0,1-.47-.29l-1.27-.91c-.54-.41-1.21-.89-2-1.4s-1.71-1.14-2.78-1.7l-1.65-.93c-.58-.32-1.21-.59-1.85-.9-1.26-.66-2.68-1.2-4.16-1.8a59.69,59.69,0,0,0-10-2.76,60.51,60.51,0,0,0-10.34-.81c-1.6.07-3.12.09-4.53.27-.7.08-1.39.12-2,.23l-1.87.3c-1.2.17-2.26.46-3.2.66s-1.73.42-2.38.62l-1.5.43A2,2,0,0,1,275.57,222.91Z" style="fill:#e0e0e0"></path><path d="M316.73,225.17l-.94.86-19.27-24.74A32,32,0,0,1,316.73,225.17Z" style="fill:#e0e0e0"></path><path d="M304.41,221.44a326.51,326.51,0,0,1-36,2.57c2.25-2.34,5.4-3.59,8.54-4.42a44,44,0,0,1,27.37,1.69" style="fill:#e0e0e0"></path><path d="M297.68,229.44l-.59.37c4.12-2.4,7.35-4.95,11.47-7.34A48.8,48.8,0,0,1,282.3,243,48.86,48.86,0,0,1,297.68,229.44Z" style="fill:#e0e0e0"></path><path d="M380,167.07a1.8,1.8,0,0,1-.55,0l-1.56-.05a24,24,0,0,0-2.46,0c-1,0-2.06,0-3.26.13l-1.89.15c-.66.05-1.34.18-2,.27-1.41.16-2.89.5-4.46.82a54.45,54.45,0,0,0-18.89,8.33c-1.29.94-2.54,1.81-3.61,2.74-.55.46-1.09.88-1.58,1.33l-1.38,1.29c-.91.8-1.62,1.63-2.29,2.32s-1.21,1.32-1.64,1.85l-1,1.18c-.23.27-.36.41-.38.39a2.67,2.67,0,0,1,.3-.45l.94-1.25a22.45,22.45,0,0,1,1.58-1.91c.65-.71,1.35-1.57,2.25-2.39l1.37-1.33c.48-.46,1-.89,1.57-1.36,1.07-1,2.32-1.84,3.61-2.8a57.29,57.29,0,0,1,9.12-5.15,56.47,56.47,0,0,1,9.95-3.26c1.58-.31,3.07-.64,4.5-.78.71-.08,1.39-.2,2.06-.24l1.91-.12c1.21-.11,2.31-.05,3.28-.05a21.42,21.42,0,0,1,2.47.12l1.56.15A3.25,3.25,0,0,1,380,167.07Z" style="fill:#e0e0e0"></path><path d="M340.53,179.13l1.13.61,12.78-28.64A32,32,0,0,0,340.53,179.13Z" style="fill:#e0e0e0"></path><path d="M351.61,172.56a327.74,327.74,0,0,0,35.6-6.14c-2.75-1.74-6.11-2.19-9.36-2.25a44.1,44.1,0,0,0-26.17,8.2" style="fill:#e0e0e0"></path><path d="M360.05,178.71l.67.22c-4.57-1.34-8.33-3.05-12.9-4.39a48.82,48.82,0,0,0,30.41,13.6A48.78,48.78,0,0,0,360.05,178.71Z" style="fill:#e0e0e0"></path><path d="M375.08,314a3.54,3.54,0,0,1-.54.08l-1.56.15c-.67,0-1.5.12-2.45.28s-2,.26-3.21.54l-1.86.38c-.65.14-1.3.35-2,.53-1.38.34-2.8.86-4.32,1.38A54.63,54.63,0,0,0,341.46,328c-1.16,1.1-2.29,2.11-3.23,3.17-.48.53-1,1-1.4,1.51s-.82,1-1.21,1.46c-.8.91-1.4,1.83-2,2.6s-1,1.46-1.39,2l-.86,1.31c-.2.29-.31.44-.33.43a3,3,0,0,1,.24-.49l.78-1.36a23.07,23.07,0,0,1,1.32-2.09c.56-.79,1.15-1.72,1.93-2.66.39-.47.78-1,1.2-1.49s.9-1,1.38-1.54c.94-1.09,2.07-2.12,3.23-3.24a57.59,57.59,0,0,1,8.39-6.26,58.29,58.29,0,0,1,9.46-4.49c1.53-.5,3-1,4.37-1.34.7-.17,1.36-.37,2-.5l1.88-.35c1.19-.26,2.29-.35,3.25-.47A20.7,20.7,0,0,1,373,314l1.56,0A1.8,1.8,0,0,1,375.08,314Z" style="fill:#e0e0e0"></path><path d="M337.49,330.92l1.19.46q4.53-15,9.07-30A32,32,0,0,0,337.49,330.92Z" style="fill:#e0e0e0"></path><path d="M347.64,323a325.45,325.45,0,0,0,34.55-10.57c-2.95-1.38-6.34-1.41-9.57-1.05a44,44,0,0,0-24.92,11.43" style="fill:#e0e0e0"></path><path d="M356.8,328l.68.13c-4.7-.75-8.63-2-13.34-2.72A48.84,48.84,0,0,0,376,335.11,48.78,48.78,0,0,0,356.8,328Z" style="fill:#e0e0e0"></path><path d="M111.84,90.51c1.39,24.45,16.9,336.66,16.9,336.66h12.44L121.76,76.61Z" style="fill:#e0e0e0"></path><path d="M118.58,187.73A49.2,49.2,0,0,0,95,168.41a42.69,42.69,0,0,0,22.31,20.36" style="fill:#e0e0e0"></path><path d="M119.4,188A57.22,57.22,0,0,0,73.93,191a105.67,105.67,0,0,0,46.41-2.7" style="fill:#e0e0e0"></path><path d="M160.74,115.07a2.36,2.36,0,0,1-.46.3l-1.38.79c-.6.33-1.33.75-2.16,1.27s-1.8,1.07-2.8,1.77-2.15,1.43-3.3,2.31-2.36,1.82-3.63,2.83a87.93,87.93,0,0,0-7.65,7.28,85.91,85.91,0,0,0-6.6,8.24c-.9,1.35-1.78,2.62-2.51,3.87s-1.43,2.4-2,3.47-1.08,2.08-1.53,3-.8,1.63-1.07,2.26-.5,1.06-.67,1.44a2.58,2.58,0,0,1-.27.49,1.89,1.89,0,0,1,.17-.53c.15-.39.35-.88.58-1.48s.57-1.42,1-2.31.87-1.91,1.47-3,1.21-2.29,2-3.53,1.59-2.55,2.49-3.91a78.72,78.72,0,0,1,6.61-8.32,81.83,81.83,0,0,1,7.72-7.3c1.29-1,2.49-2,3.69-2.81s2.3-1.6,3.35-2.26,2-1.22,2.85-1.72,1.59-.89,2.21-1.2l1.43-.7A1.73,1.73,0,0,1,160.74,115.07Z" style="fill:#e0e0e0"></path><path d="M136.49,134.47A88.11,88.11,0,0,0,157,123.26c4.35-3.19,8.67-7.25,9.51-12.58a33,33,0,0,0-29.71,23.46" style="fill:#e0e0e0"></path><path d="M126.69,149.39A51.71,51.71,0,0,0,155.12,136a78.37,78.37,0,0,0-28.43,13.4" style="fill:#e0e0e0"></path><path d="M131.84,140.33l.08.26c1.25-6.43,2.72-14.39,4.51-20.69.75-2.64,1.49-5.73-.13-8A36.15,36.15,0,0,0,131.84,140.33Z" style="fill:#e0e0e0"></path><path d="M88.11,329.15a2,2,0,0,1,.5,0l1.45,0a16.55,16.55,0,0,1,2.28.05c.89.06,1.92.08,3,.26l1.75.23c.61.08,1.23.24,1.88.36,1.3.22,2.66.62,4.1,1a53.64,53.64,0,0,1,9,3.66,53,53,0,0,1,8.06,5.36c1.13,1,2.23,1.87,3.15,2.82.46.47.94.9,1.35,1.36l1.18,1.32c.77.82,1.36,1.65,1.91,2.35a21.61,21.61,0,0,1,1.33,1.86l.78,1.22a2.12,2.12,0,0,1,.24.45,2.25,2.25,0,0,1-.33-.39l-.86-1.16a22.43,22.43,0,0,0-1.39-1.8c-.57-.68-1.17-1.49-2-2.29l-1.19-1.28c-.42-.45-.89-.87-1.36-1.33-.93-.93-2-1.81-3.15-2.76a56,56,0,0,0-8-5.27,56.76,56.76,0,0,0-8.85-3.66c-1.42-.39-2.76-.81-4-1.05-.64-.13-1.26-.29-1.86-.38l-1.73-.27c-1.1-.2-2.11-.24-3-.33s-1.65-.13-2.28-.14l-1.44-.06A1.65,1.65,0,0,1,88.11,329.15Z" style="fill:#e0e0e0"></path><path d="M123.64,342.87l-1.08.48q-4.94-13.61-9.88-27.23A29.63,29.63,0,0,1,123.64,342.87Z" style="fill:#e0e0e0"></path><path d="M113.87,336.08a300.42,300.42,0,0,1-32.4-8,16.52,16.52,0,0,1,8.77-1.45,40.66,40.66,0,0,1,23.57,9.29" style="fill:#e0e0e0"></path><path d="M105.68,341.19l-.63.16c4.31-.94,7.87-2.26,12.18-3.19a45.12,45.12,0,0,1-28.92,10.52A45,45,0,0,1,105.68,341.19Z" style="fill:#e0e0e0"></path><path d="M682,162.11c-1.82,20.09-27.64,283.58-27.64,283.58l10.43-1.22,27-292.49Z" style="fill:#f5f5f5"></path><path d="M675.76,242.13a40.51,40.51,0,0,0-16.92-18.59,35.2,35.2,0,0,0,15.72,19.28" style="fill:#f5f5f5"></path><path d="M676.39,242.47a47.2,47.2,0,0,0-37.4-3.12,87,87,0,0,0,38.13,3.42" style="fill:#f5f5f5"></path><path d="M718.88,188a1.92,1.92,0,0,1-.41.19l-1.22.48c-.53.2-1.18.44-1.91.77s-1.59.65-2.5,1.11-1.92.9-3,1.48-2.15,1.19-3.31,1.87a71.32,71.32,0,0,0-7.11,5,70,70,0,0,0-6.37,5.92c-.9,1-1.77,1.91-2.51,2.84s-1.46,1.78-2.07,2.59-1.13,1.56-1.6,2.22-.85,1.23-1.15,1.71L685,215.3a2.33,2.33,0,0,1-.27.36s.05-.14.2-.41l.65-1.13c.28-.5.64-1.09,1.09-1.76s.94-1.45,1.56-2.26,1.26-1.72,2-2.63,1.61-1.89,2.5-2.89a65.47,65.47,0,0,1,6.39-6,66.37,66.37,0,0,1,7.18-5c1.17-.67,2.27-1.32,3.34-1.85s2.07-1,3-1.44,1.79-.75,2.54-1.05,1.4-.53,1.94-.71l1.25-.4A1.41,1.41,0,0,1,718.88,188Z" style="fill:#f5f5f5"></path><path d="M696.78,200.91a72.53,72.53,0,0,0,18.09-6.65c3.93-2.08,7.94-4.86,9.26-9.1a27.2,27.2,0,0,0-27,15.52" style="fill:#f5f5f5"></path><path d="M687,211.87a42.49,42.49,0,0,0,24.77-7.47A64.27,64.27,0,0,0,687,211.87" style="fill:#f5f5f5"></path><path d="M692.28,205.12l0,.22c1.79-5.09,3.95-11.4,6.17-16.31.94-2.06,1.91-4.49.85-6.49A29.83,29.83,0,0,0,692.28,205.12Z" style="fill:#f5f5f5"></path><path d="M633.83,353.66a2.53,2.53,0,0,1,.41,0l1.19.15a16.19,16.19,0,0,1,1.86.32,24.22,24.22,0,0,1,2.43.57l1.4.4c.48.15,1,.35,1.48.53,1,.34,2.1.83,3.22,1.32a39.83,39.83,0,0,1,12.77,9.4c.81.93,1.59,1.79,2.22,2.68.33.44.66.85.94,1.27s.55.82.8,1.21c.53.76.91,1.51,1.28,2.15a17.77,17.77,0,0,1,.85,1.68c.2.44.36.79.49,1.09s.16.38.14.39a2,2,0,0,1-.22-.36l-.56-1a18.7,18.7,0,0,0-.91-1.64c-.39-.62-.78-1.36-1.32-2.1-.26-.38-.53-.78-.82-1.19s-.62-.81-1-1.24c-.64-.87-1.42-1.72-2.23-2.63a44.37,44.37,0,0,0-5.88-5.26,46.07,46.07,0,0,0-6.77-4.06c-1.11-.49-2.15-1-3.17-1.34-.51-.19-1-.39-1.47-.54l-1.38-.43c-.87-.29-1.69-.45-2.4-.63s-1.32-.3-1.83-.39l-1.17-.22A1.48,1.48,0,0,1,633.83,353.66Z" style="fill:#f5f5f5"></path><path d="M661.12,369.14l-.94.26q-2.37-11.68-4.76-23.38A24.4,24.4,0,0,1,661.12,369.14Z" style="fill:#f5f5f5"></path><path d="M654,362.42A248.63,248.63,0,0,1,628.55,352a13.61,13.61,0,0,1,7.33-.12A33.43,33.43,0,0,1,654,362.27" style="fill:#f5f5f5"></path><path d="M646.69,365.6l-.53,0c3.62-.24,6.69-.89,10.3-1.13a37.16,37.16,0,0,1-24.83,5.08A37,37,0,0,1,646.69,365.6Z" style="fill:#f5f5f5"></path><path d="M567.26,46c-.82,2.45-43.63,399.08-43.63,399.08l-13.08-4.38L554.43,57.16Z" style="fill:#e0e0e0"></path><path d="M550.14,116.11a53.26,53.26,0,0,0-15.07-29.4,46.24,46.24,0,0,0,13.32,29.87" style="fill:#e0e0e0"></path><path d="M550.82,116.76A62,62,0,0,0,504.45,100a114.39,114.39,0,0,0,47.2,17.44" style="fill:#e0e0e0"></path><path d="M550.82,177.44a53.23,53.23,0,0,1,26.75-19.37,46.29,46.29,0,0,1-25.4,20.59" style="fill:#e0e0e0"></path><path d="M549.91,177.72a62,62,0,0,1,49,6,114.53,114.53,0,0,1-50-5.85" style="fill:#e0e0e0"></path><path d="M512.24,164.3a2.61,2.61,0,0,1,.13-.58c.12-.44.27-1,.46-1.66s.46-1.6.82-2.6.72-2.15,1.24-3.38,1-2.6,1.72-4,1.43-2.92,2.24-4.49a87.21,87.21,0,0,1,6.17-9.71,88.54,88.54,0,0,1,7.49-8.72c1.27-1.24,2.45-2.43,3.65-3.45s2.3-2,3.34-2.82,2-1.54,2.88-2.17,1.61-1.14,2.25-1.54l1.45-.92a3,3,0,0,1,.52-.3,2.13,2.13,0,0,1-.47.38l-1.39,1c-.61.42-1.36,1-2.19,1.6s-1.81,1.35-2.81,2.23-2.15,1.78-3.29,2.85-2.35,2.23-3.6,3.46a84.33,84.33,0,0,0-13.58,18.33c-.82,1.55-1.62,3-2.27,4.44s-1.26,2.75-1.77,4-.93,2.35-1.31,3.34-.67,1.85-.9,2.56-.41,1.2-.55,1.63A2.49,2.49,0,0,1,512.24,164.3Z" style="fill:#e0e0e0"></path><path d="M527.9,134.55a95.15,95.15,0,0,1-7.71,24.13c-2.5,5.28-5.93,10.7-11.42,12.68A35.72,35.72,0,0,1,527.62,135" style="fill:#e0e0e0"></path><path d="M541.75,121.09A55.86,55.86,0,0,1,533.33,154a84.83,84.83,0,0,1,8.42-32.95" style="fill:#e0e0e0"></path><path d="M537.09,124.79l.28.09c-7,1.15-15.66,2.48-22.53,4.22-2.89.73-6.24,1.43-8.6-.4A39.18,39.18,0,0,1,537.09,124.79Z" style="fill:#e0e0e0"></path><path d="M493.45,266.74a2.58,2.58,0,0,1,.54.27l1.49.85c.65.37,1.43.84,2.31,1.44s1.91,1.22,3,2S503,273,504.24,274s2.48,2.11,3.8,3.28a86.94,86.94,0,0,1,7.89,8.37,88.64,88.64,0,0,1,6.61,9.41c.88,1.53,1.75,3,2.44,4.38s1.36,2.72,1.91,3.94,1,2.34,1.4,3.32.71,1.85.94,2.56.39,1.2.53,1.63a2.52,2.52,0,0,1,.16.58,1.94,1.94,0,0,1-.25-.55q-.25-.62-.63-1.59c-.26-.7-.59-1.55-1-2.52s-.87-2.09-1.46-3.28-1.2-2.52-2-3.88-1.58-2.83-2.47-4.34a84.38,84.38,0,0,0-14.42-17.68c-1.3-1.18-2.52-2.32-3.75-3.29s-2.35-1.9-3.41-2.7-2.06-1.48-2.92-2.09-1.63-1.11-2.26-1.51l-1.44-.93A2.44,2.44,0,0,1,493.45,266.74Z" style="fill:#e0e0e0"></path><path d="M518.43,289.25a94.93,94.93,0,0,1-21.49-13.42c-4.5-3.72-8.91-8.38-9.47-14.19a35.71,35.71,0,0,1,30.61,27.23" style="fill:#e0e0e0"></path><path d="M528.07,306a55.92,55.92,0,0,1-29.87-16.28A84.62,84.62,0,0,1,528.07,306" style="fill:#e0e0e0"></path><path d="M523.08,295.87l-.1.27c-.94-7-2-15.72-3.57-22.63-.64-2.91-1.24-6.29.65-8.58A39.15,39.15,0,0,1,523.08,295.87Z" style="fill:#e0e0e0"></path><path d="M487.84,202.42a2.32,2.32,0,0,1,.52-.16l1.53-.35a22.22,22.22,0,0,1,2.44-.43c1-.12,2-.32,3.26-.37l1.91-.13c.66,0,1.35,0,2.07,0,1.43,0,3,.09,4.57.19a58.33,58.33,0,0,1,10.28,2,57.67,57.67,0,0,1,9.7,3.94c1.41.79,2.76,1.51,3.94,2.32.6.4,1.19.75,1.73,1.14l1.53,1.15c1,.7,1.8,1.46,2.54,2.08a22.75,22.75,0,0,1,1.81,1.69l1.09,1.12a2.47,2.47,0,0,1,.36.41s-.16-.1-.43-.34l-1.16-1a23.2,23.2,0,0,0-1.86-1.62c-.75-.6-1.57-1.33-2.57-2l-1.54-1.11c-.54-.38-1.13-.72-1.73-1.11-1.18-.79-2.53-1.48-3.93-2.25a59.27,59.27,0,0,0-9.63-3.87,59.91,59.91,0,0,0-10.18-2c-1.59-.11-3.1-.26-4.52-.24-.71,0-1.4,0-2.06,0l-1.89.1c-1.21,0-2.3.19-3.25.29s-1.78.22-2.44.34l-1.54.25A2.53,2.53,0,0,1,487.84,202.42Z" style="fill:#e0e0e0"></path><path d="M528.49,209.32l-1,.75L511.1,183.31A32,32,0,0,1,528.49,209.32Z" style="fill:#e0e0e0"></path><path d="M516.66,204.22a326.94,326.94,0,0,1-36.09-1.52c2.5-2.08,5.77-3,9-3.43a44,44,0,0,1,27,4.78" style="fill:#e0e0e0"></path><path d="M509.07,211.41l-.63.3c4.36-1.92,7.87-4.09,12.23-6a48.83,48.83,0,0,1-28.41,17.38A48.77,48.77,0,0,1,509.07,211.41Z" style="fill:#e0e0e0"></path><path d="M574.79,332.19a2,2,0,0,1-.55,0l-1.56,0c-.67,0-1.5-.05-2.46,0s-2.06,0-3.26.17l-1.89.17c-.65.07-1.33.2-2,.3-1.41.18-2.89.54-4.45.88a54.64,54.64,0,0,0-18.78,8.59c-1.28.95-2.52,1.83-3.58,2.78-.53.47-1.07.89-1.55,1.35l-1.37,1.31c-.9.81-1.6,1.65-2.26,2.35s-1.19,1.33-1.61,1.86l-1,1.2a2.31,2.31,0,0,1-.38.4,2.68,2.68,0,0,1,.29-.46l.93-1.26a21.06,21.06,0,0,1,1.55-1.93c.64-.72,1.33-1.58,2.22-2.42l1.35-1.35c.48-.46,1-.9,1.55-1.37,1.06-1,2.3-1.88,3.58-2.85a57.83,57.83,0,0,1,9-5.28,58.81,58.81,0,0,1,9.91-3.39c1.58-.32,3.07-.67,4.49-.83.71-.1,1.39-.22,2.06-.27l1.9-.15c1.22-.12,2.32-.08,3.29-.09a22.45,22.45,0,0,1,2.47.09l1.56.13A2.83,2.83,0,0,1,574.79,332.19Z" style="fill:#e0e0e0"></path><path d="M535.53,344.77l1.13.59,12.41-28.8A32,32,0,0,0,535.53,344.77Z" style="fill:#e0e0e0"></path><path d="M546.51,338.05a326.93,326.93,0,0,0,35.52-6.6c-2.77-1.7-6.14-2.12-9.39-2.13a44.08,44.08,0,0,0-26,8.54" style="fill:#e0e0e0"></path><path d="M555,344.09l.67.21c-4.59-1.28-8.37-2.93-13-4.21a48.86,48.86,0,0,0,30.58,13.2A48.8,48.8,0,0,0,555,344.09Z" style="fill:#e0e0e0"></path><path d="M648.14,102.59C646.74,127,630.79,448.1,630.79,448.1l-12.3-3.33L638.22,88.69Z" style="fill:#e0e0e0"></path><path d="M641.39,199.81A49.18,49.18,0,0,1,665,180.49a42.71,42.71,0,0,1-22.32,20.36" style="fill:#e0e0e0"></path><path d="M640.57,200.11A57.22,57.22,0,0,1,686,203a105.63,105.63,0,0,1-46.4-2.7" style="fill:#e0e0e0"></path><path d="M630.07,263.47a49.26,49.26,0,0,0-18.36-24.38,42.69,42.69,0,0,0,16.84,25.08" style="fill:#e0e0e0"></path><path d="M630.79,264a57.21,57.21,0,0,0-44.86-8,105.62,105.62,0,0,0,45.72,8.4" style="fill:#e0e0e0"></path><path d="M599.23,127.15a1.71,1.71,0,0,1,.52.21l1.42.7c.62.31,1.37.7,2.21,1.2s1.83,1,2.86,1.72,2.18,1.39,3.35,2.26,2.4,1.8,3.68,2.81a74.58,74.58,0,0,1,14.34,15.62c.9,1.36,1.77,2.65,2.49,3.91s1.4,2.44,2,3.53,1,2.11,1.46,3,.76,1.67,1,2.31.42,1.09.58,1.48a3.48,3.48,0,0,1,.17.53,2.21,2.21,0,0,1-.27-.49l-.67-1.44c-.28-.63-.63-1.39-1.08-2.26s-.91-1.88-1.53-2.95-1.24-2.25-2-3.47-1.61-2.52-2.52-3.87a85.74,85.74,0,0,0-6.59-8.24,87.93,87.93,0,0,0-7.65-7.28c-1.27-1-2.46-2-3.64-2.83s-2.27-1.63-3.29-2.3-2-1.26-2.8-1.78-1.56-.94-2.17-1.27l-1.37-.79A3.42,3.42,0,0,1,599.23,127.15Z" style="fill:#e0e0e0"></path><path d="M623.49,146.55a88,88,0,0,1-20.55-11.21c-4.35-3.19-8.67-7.24-9.5-12.58a33,33,0,0,1,29.71,23.46" style="fill:#e0e0e0"></path><path d="M633.28,161.47a51.65,51.65,0,0,1-28.42-13.4,78.25,78.25,0,0,1,28.42,13.4" style="fill:#e0e0e0"></path><path d="M628.14,152.41l-.08.26c-1.25-6.43-2.72-14.39-4.52-20.69-.75-2.64-1.48-5.73.14-7.95A36.24,36.24,0,0,1,628.14,152.41Z" style="fill:#e0e0e0"></path><path d="M671.87,341.23a1.77,1.77,0,0,1-.51.06l-1.44.06c-.62,0-1.39,0-2.27.14s-1.89.13-3,.33l-1.74.27c-.6.09-1.21.25-1.85.38-1.29.24-2.64.66-4.06,1a56.29,56.29,0,0,0-8.85,3.67,55.69,55.69,0,0,0-8,5.26c-1.12.95-2.22,1.83-3.14,2.77-.47.45-.95.87-1.37,1.32l-1.19,1.28c-.78.8-1.38,1.61-2,2.29s-1,1.29-1.39,1.8l-.85,1.16a3,3,0,0,1-.33.39s.06-.17.24-.45l.78-1.21a17,17,0,0,1,1.33-1.87c.55-.7,1.14-1.53,1.91-2.35.37-.43.77-.87,1.17-1.32s.89-.89,1.36-1.36c.92-.95,2-1.85,3.14-2.82a49.15,49.15,0,0,1,17-9c1.43-.38,2.79-.78,4.1-1,.65-.12,1.27-.27,1.88-.36l1.75-.23c1.11-.18,2.13-.2,3-.26a16.66,16.66,0,0,1,2.29-.05l1.45,0A2,2,0,0,1,671.87,341.23Z" style="fill:#e0e0e0"></path><path d="M636.34,355l1.07.48q5-13.6,9.89-27.23A29.58,29.58,0,0,0,636.34,355Z" style="fill:#e0e0e0"></path><path d="M646.1,348.16a300.42,300.42,0,0,0,32.4-8,16.49,16.49,0,0,0-8.77-1.45A40.69,40.69,0,0,0,646.16,348" style="fill:#e0e0e0"></path><path d="M654.29,353.27l.63.16c-4.3-.93-7.87-2.26-12.17-3.19a45.12,45.12,0,0,0,28.92,10.52A45.07,45.07,0,0,0,654.29,353.27Z" style="fill:#e0e0e0"></path></g><g id="background-simple"><path d="M411.06,101.8l-.35,2.65c-3,22.32,6.2,44.61,24.43,57.48a56.73,56.73,0,0,0,7.37,4.44c18.49,9.33,41.82,8.45,59.81-2.25,10.58-6.28,19.84-15.88,31.93-17.89,15.74-2.63,30,8.37,42,18.69s26.33,21.29,42.05,18.59c9.85-1.68,18.17-8.66,24-16.81,15.56-21.58,16-51.68,5.11-75.64S615.62,48.9,592.3,36.78c-32.67-17-71.93-22.93-107.35-11.84S419.09,65.51,411.06,101.8Z" style="fill:#f5f5f5"></path><path d="M358.86,128.45l.54-2.48c4.48-20.89-2.53-42.66-18.81-56.2A55,55,0,0,0,333.94,65C317.15,54.82,295,53.9,277.2,62.67c-10.47,5.16-19.95,13.54-31.54,14.54C230.58,78.52,217.91,67,207.31,56.39S184,34.28,168.93,35.65c-9.44.86-17.84,6.84-24,14.11-16.34,19.24-19,47.69-10.5,71.17s27,42.26,48.13,55.46c29.64,18.5,66.33,27.08,100.66,19.23S348.55,162.18,358.86,128.45Z" style="fill:#f5f5f5"></path><circle cx="392.49" cy="188.01" r="30.58" style="fill:#f5f5f5"></circle></g><g id="Floor"><path d="M732.35,427.17c0,.15-160.4.26-358.22.26s-358.25-.11-358.25-.26,160.36-.26,358.25-.26S732.35,427,732.35,427.17Z" style="fill:#263238"></path></g><g id="Plants"><path d="M428.83,478.22a78.21,78.21,0,0,1-4.1-8.09,79.23,79.23,0,0,1-3.62-8.31,79.46,79.46,0,0,1,4.09,8.09A78.17,78.17,0,0,1,428.83,478.22Z" style="fill:#263238"></path><path d="M431.76,453.19a6.54,6.54,0,0,1-.08-1.36h.22c.37,2.19,1.06,7,1.78,12.63.5,3.87.92,7.37,1.2,9.91.14,1.27.24,2.29.3,3a4.28,4.28,0,0,1,0,1.11,5,5,0,0,1-.24-1.09c-.12-.7-.28-1.72-.47-3-.37-2.52-.85-6-1.35-9.88-.72-5.61-1.28-10.46-1.48-12.67h.22A5.84,5.84,0,0,1,431.76,453.19Z" style="fill:#263238"></path><path d="M448.26,457.54a23.77,23.77,0,0,1-.94,3.14c-.62,1.92-1.46,4.58-2.29,7.54s-1.51,5.67-2,7.63a21.26,21.26,0,0,1-.84,3.17,19.4,19.4,0,0,1,.48-3.24c.37-2,1-4.72,1.82-7.7s1.74-5.63,2.45-7.52A18.13,18.13,0,0,1,448.26,457.54Z" style="fill:#263238"></path><path d="M114.75,378.55a9.13,9.13,0,0,1,4.72,5.34,16.11,16.11,0,0,1,.62,7.24c-.53,4.69-3.2,9.43-6.07,13.19-4-3.45-4.86-9.47-5.13-12.56-.43-4.87,1.76-13.93,5.86-13.21" style="fill:#FF725E"></path><path d="M118.62,412.07a7.73,7.73,0,0,1,2.51-7.38,10.27,10.27,0,0,1,7.6-2.38,4.34,4.34,0,0,1,3.34,1.5,3.34,3.34,0,0,1,.05,3.36,6.76,6.76,0,0,1-2.49,2.46c-3.43,2.15-7.14,3.6-11,2.44" style="fill:#FF725E"></path><path d="M113.55,426.46a4.87,4.87,0,0,1,.14-1c.12-.68.28-1.55.47-2.61a27.18,27.18,0,0,1,2.7-8.33,16.7,16.7,0,0,1,6-6.35,11.51,11.51,0,0,1,2.44-1.08c.3-.1.54-.14.7-.18l.25,0a17.58,17.58,0,0,0-3.26,1.5,17.14,17.14,0,0,0-5.8,6.31,29.49,29.49,0,0,0-2.76,8.21c-.24,1.09-.43,2-.58,2.59A5,5,0,0,1,113.55,426.46Z" style="fill:#263238"></path><path d="M113.69,385.6a1.46,1.46,0,0,1,0,.42c0,.32.05.72.07,1.21.06,1,.12,2.58.18,4.46.13,3.76.22,9,.2,14.71s-.17,10.94-.32,14.7c-.08,1.88-.16,3.4-.22,4.46,0,.49-.06.89-.08,1.2a1.69,1.69,0,0,1-.06.43,3,3,0,0,1,0-.43c0-.31,0-.71,0-1.21,0-1.1.06-2.61.1-4.46.1-3.76.2-8.95.22-14.7s0-10.93-.09-14.7c0-1.85,0-3.36-.07-4.45,0-.5,0-.9,0-1.21A3.62,3.62,0,0,1,113.69,385.6Z" style="fill:#263238"></path><path d="M111.78,414.93a18.17,18.17,0,0,0-9.92-13.31c-1.32-.63-3-1-4.13-.06s-.85,2.75-.32,4.12a15.53,15.53,0,0,0,14.27,9.63" style="fill:#FF725E"></path><path d="M102.5,406.08a4.08,4.08,0,0,1,.84.36,8.45,8.45,0,0,1,1,.51c.35.22.78.44,1.2.75a14.67,14.67,0,0,1,1.38,1,17.85,17.85,0,0,1,1.47,1.34,19.77,19.77,0,0,1,2.8,3.59,20,20,0,0,1,1.84,4.16,17.28,17.28,0,0,1,.46,1.93,14.58,14.58,0,0,1,.24,1.71,12.23,12.23,0,0,1,.06,1.42,7.26,7.26,0,0,1,0,1.08,4.82,4.82,0,0,1-.1.91c-.08,0,.06-1.31-.17-3.38a14.84,14.84,0,0,0-.28-1.69,17.49,17.49,0,0,0-.48-1.89,20.79,20.79,0,0,0-1.84-4.08,21.16,21.16,0,0,0-2.72-3.54,19.35,19.35,0,0,0-1.43-1.34c-.45-.41-.92-.74-1.34-1.06C103.66,406.68,102.47,406.14,102.5,406.08Z" style="fill:#263238"></path><path d="M350.52,384.72a7.93,7.93,0,0,1,4.09,4.63,14,14,0,0,1,.54,6.27c-.46,4.07-2.77,8.17-5.26,11.42-3.43-3-4.22-8.2-4.45-10.87-.37-4.22,1.53-12.08,5.08-11.45" style="fill:#FF725E"></path><path d="M353.87,413.76a6.75,6.75,0,0,1,2.17-6.4,9,9,0,0,1,6.59-2.05,3.76,3.76,0,0,1,2.89,1.29,2.88,2.88,0,0,1,0,2.92,5.83,5.83,0,0,1-2.15,2.12c-3,1.87-6.19,3.12-9.54,2.12" style="fill:#FF725E"></path><path d="M349.48,426.23a4.23,4.23,0,0,1,.12-.84c.11-.58.25-1.34.41-2.26a23.82,23.82,0,0,1,2.33-7.21,14.44,14.44,0,0,1,5.18-5.5,9.43,9.43,0,0,1,2.11-.94,4.34,4.34,0,0,1,.61-.15.61.61,0,0,1,.22,0,14.51,14.51,0,0,0-2.83,1.29,15,15,0,0,0-5,5.47,25.32,25.32,0,0,0-2.38,7.12c-.21.94-.38,1.71-.51,2.24A5.08,5.08,0,0,1,349.48,426.23Z" style="fill:#263238"></path><path d="M349.61,390.83a2.24,2.24,0,0,1,0,.37c0,.27,0,.61.06,1,.05.92.1,2.23.15,3.86.11,3.26.19,7.77.17,12.74s-.14,9.49-.28,12.74c-.06,1.63-.13,2.95-.18,3.86,0,.43-.06.78-.08,1.05a2,2,0,0,1,0,.36,1.41,1.41,0,0,1,0-.36c0-.28,0-.62,0-1.05,0-.95.06-2.26.09-3.86.08-3.26.17-7.76.19-12.74s0-9.47-.08-12.73c0-1.6,0-2.91-.06-3.86V391.2A1.53,1.53,0,0,1,349.61,390.83Z" style="fill:#263238"></path><path d="M347.94,416.23a15.71,15.71,0,0,0-8.59-11.52c-1.14-.55-2.64-.91-3.58-.06s-.73,2.39-.27,3.57a13.45,13.45,0,0,0,12.36,8.35" style="fill:#FF725E"></path><path d="M339.91,408.57a3.69,3.69,0,0,1,.72.31,7.72,7.72,0,0,1,.83.44,11.5,11.5,0,0,1,1,.66,12.09,12.09,0,0,1,1.2.9A16.3,16.3,0,0,1,345,412a17.91,17.91,0,0,1,2.42,3.11,17.31,17.31,0,0,1,1.59,3.61,15,15,0,0,1,.41,1.67c.11.53.15,1,.2,1.48s0,.87.06,1.24a8.64,8.64,0,0,1,0,.93,3.91,3.91,0,0,1-.09.78c-.06,0,.05-1.13-.15-2.93a12.48,12.48,0,0,0-.24-1.45,14.14,14.14,0,0,0-.42-1.64,17.54,17.54,0,0,0-1.58-3.53,18.28,18.28,0,0,0-2.37-3.07,14.46,14.46,0,0,0-1.23-1.16,14.07,14.07,0,0,0-1.16-.92C340.91,409.09,339.88,408.62,339.91,408.57Z" style="fill:#263238"></path><path d="M701.82,378.55a9.08,9.08,0,0,1,4.71,5.34,16,16,0,0,1,.63,7.24c-.53,4.69-3.2,9.43-6.07,13.19-4-3.45-4.87-9.47-5.14-12.56-.42-4.87,1.77-13.93,5.87-13.21" style="fill:#FF725E"></path><path d="M705.68,412.07a7.78,7.78,0,0,1,2.51-7.38,10.3,10.3,0,0,1,7.61-2.38,4.34,4.34,0,0,1,3.33,1.5,3.31,3.31,0,0,1,.06,3.36,6.78,6.78,0,0,1-2.5,2.46c-3.42,2.15-7.13,3.6-11,2.44" style="fill:#FF725E"></path><path d="M700.61,426.46a6.11,6.11,0,0,1,.14-1q.19-1,.48-2.61a27.4,27.4,0,0,1,2.69-8.33,16.65,16.65,0,0,1,6-6.35,11.51,11.51,0,0,1,2.44-1.08c.3-.1.54-.14.7-.18a.79.79,0,0,1,.25,0,15.54,15.54,0,0,0-9.07,7.81,29.42,29.42,0,0,0-2.75,8.21c-.24,1.09-.43,2-.59,2.59A4.16,4.16,0,0,1,700.61,426.46Z" style="fill:#263238"></path><path d="M700.76,385.6a2.1,2.1,0,0,1,0,.42c0,.32,0,.72.07,1.21.06,1,.12,2.58.18,4.46.12,3.76.22,9,.19,14.71s-.16,10.94-.32,14.7c-.07,1.88-.15,3.4-.21,4.46,0,.49-.06.89-.09,1.2a2.14,2.14,0,0,1,0,.43,3,3,0,0,1,0-.43c0-.31,0-.71,0-1.21,0-1.1.07-2.61.11-4.46.09-3.76.2-8.95.22-14.7s0-10.93-.09-14.7c0-1.85-.05-3.36-.07-4.45,0-.5,0-.9,0-1.21A2.06,2.06,0,0,1,700.76,385.6Z" style="fill:#263238"></path><path d="M698.84,414.93a18.18,18.18,0,0,0-9.91-13.31c-1.32-.63-3-1-4.14-.06s-.84,2.75-.31,4.12a15.53,15.53,0,0,0,14.27,9.63" style="fill:#FF725E"></path><path d="M689.57,406.08a4.08,4.08,0,0,1,.84.36,8.42,8.42,0,0,1,.94.51c.36.22.79.44,1.21.75s.91.63,1.38,1a19.63,19.63,0,0,1,1.47,1.34,19.3,19.3,0,0,1,2.79,3.59,19,19,0,0,1,1.84,4.16,17.4,17.4,0,0,1,.47,1.93,17.06,17.06,0,0,1,.24,1.71c.07.53,0,1,.06,1.42a8.93,8.93,0,0,1,0,1.08,4.82,4.82,0,0,1-.1.91c-.08,0,.06-1.31-.17-3.38-.07-.52-.14-1.09-.28-1.69a17.63,17.63,0,0,0-.49-1.89,20.15,20.15,0,0,0-1.83-4.08,21.16,21.16,0,0,0-2.72-3.54,19.35,19.35,0,0,0-1.43-1.34c-.45-.41-.92-.74-1.34-1.06C690.72,406.68,689.53,406.14,689.57,406.08Z" style="fill:#263238"></path><path d="M116.87,476.3a4.5,4.5,0,0,1-.71-.8c-.43-.54-1-1.32-1.77-2.3-1.47-2-3.44-4.72-5.54-7.81s-3.93-5.95-5.21-8c-.64-1.05-1.14-1.9-1.48-2.49a4.16,4.16,0,0,1-.48-1,4.07,4.07,0,0,1,.65.85l1.62,2.4,5.33,8,5.41,7.88,1.63,2.4A4,4,0,0,1,116.87,476.3Z" style="fill:#263238"></path><path d="M117.84,446.74a4.82,4.82,0,0,1,.19,1.16c.08.87.19,1.93.32,3.19.26,2.7.64,6.41,1.13,10.51s1,7.8,1.38,10.48c.18,1.26.32,2.32.44,3.18a4.66,4.66,0,0,1,.1,1.17,5.47,5.47,0,0,1-.3-1.14c-.16-.74-.37-1.82-.6-3.15-.48-2.67-1-6.37-1.54-10.48s-.81-7.83-1-10.54c-.08-1.35-.14-2.44-.16-3.2A5.68,5.68,0,0,1,117.84,446.74Z" style="fill:#263238"></path><path d="M133.41,454.61a20.58,20.58,0,0,1-.53,3.33c-.39,2-1,4.84-1.76,7.92s-1.5,5.86-2.09,7.85A20.35,20.35,0,0,1,128,476.9a23.7,23.7,0,0,1,.71-3.29c.54-2.16,1.21-4.87,2-7.87s1.38-5.72,1.9-7.88A24.58,24.58,0,0,1,133.41,454.61Z" style="fill:#263238"></path></g><g id="panda-2"><path d="M609.69,436.43c-.82-7.55-1.66-15.16-4-22.37s-6.39-14.1-12.52-18.58c-6-4.36-13.41-6.13-20.71-7.28-16.23-2.56-33.11-2.49-48.8,2.41s-30.1,14.95-38.31,29.18L438.91,440c25.82,10.67,53.94,15,81.88,15.24s55.75-3.72,83.15-9.12a8.92,8.92,0,0,0,3.84-1.41C610.12,442.91,610,439.39,609.69,436.43Z" style="fill:#263238"></path><path d="M588.21,381.67A73.15,73.15,0,0,0,504,326.39l-59.83-7.45c-22.47,38.79-27.28,53.32-24.52,76,.35,2.83,1,5.89,3.11,7.78,1.81,1.59,4.32,2,6.7,2.4,25.33,4,51.11,8,76.51,4.44,13.3-1.84,26.52-5.74,39.9-4.61,7.46.63,14.78,2.83,22.27,2.85s15.69-2.74,19.24-9.34C590.1,393.43,589.52,387.26,588.21,381.67Z" style="fill:#ebebeb"></path><path d="M630.44,440.13c2.31-7.62,8.93-13.32,16.25-16.47s15.35-4.1,23.26-5c4.9-.56,9.94-1.12,14.71.15s9.27,4.79,10.19,9.64c.68,3.55-.66,7.25-2.81,10.16a39.34,39.34,0,0,1-7.89,7.4S653,465.08,640.42,464.82s-78.92-28.23-78.92-28.23-14.76-20.21-5.35-29.76l18-13.41c9.59-3.07,11.5-1.95,21.48-3.3s20.34.63,29.65,4.46c13.51,5.56,23.21,14.41,32.31,25.84" style="fill:#263238"></path><path d="M654.68,378.35l.15-.05-.22-.06Z" style="fill:#455a64"></path><path d="M681.35,379.82c-3.48-3.23-8.38-4.59-13.12-4.58s-9.73,1.67-14.22,3.06A54.67,54.67,0,0,0,681.35,379.82Z" style="fill:#455a64"></path><path d="M680.28,355.61c-4.74-.15-9.33,2-12.9,5.15s-6.25,7.66-8.73,11.65A54.56,54.56,0,0,0,680.28,355.61Z" style="fill:#455a64"></path><path d="M657.51,359.58a14.61,14.61,0,0,0-5.28,9.19c-.66,3.52-.12,7.54.29,11.11A41.63,41.63,0,0,0,657.51,359.58Z" style="fill:#455a64"></path><path d="M659.49,385.94a13.46,13.46,0,0,0-9.66,1.39c-2.92,1.52-5.53,4.19-7.88,6.51A38.38,38.38,0,0,0,659.49,385.94Z" style="fill:#455a64"></path><path d="M634.32,385.27a9.63,9.63,0,0,0,0,7,25.49,25.49,0,0,0,3.78,6.25A27.4,27.4,0,0,0,634.32,385.27Z" style="fill:#455a64"></path><path d="M678.89,389c-5.2-1.87-11.08-1.08-16.16,1.09s-9.67,6.26-13.85,9.8A63.59,63.59,0,0,0,678.89,389Z" style="fill:#455a64"></path><path d="M658.38,409a16,16,0,0,0-11.33-2.42c-3.87.49-7.87,2.4-11.44,4A45.48,45.48,0,0,0,658.38,409Z" style="fill:#455a64"></path><path d="M666.29,362.46a1.69,1.69,0,0,1-.23.35c-.18.24-.42.56-.72,1l-2.82,3.74c-2.45,3.24-6,7.9-10.51,13.62-8.94,11.46-21.49,27.12-35.75,44.1s-27.55,32-37.29,42.81c-4.87,5.39-8.85,9.73-11.62,12.7l-3.2,3.41-.84.88a2.39,2.39,0,0,1-.3.29l.26-.33.81-.91,3.12-3.48,11.49-12.8c9.68-10.84,22.9-25.94,37.17-42.91s26.85-32.59,35.86-44l10.64-13.52c1.24-1.58,2.22-2.81,2.89-3.68l.77-.94A2.28,2.28,0,0,1,666.29,362.46Z" style="fill:#455a64"></path><path d="M656.55,393.75a1.86,1.86,0,0,1-.25.24l-.76.63L652.59,397l-10.92,8.8-36,29.05L569.83,464.1,559,473c-1.27,1-2.26,1.83-3,2.39l-.78.62-.27.19s.07-.08.24-.23l.74-.66,2.91-2.47,10.75-9c9.1-7.57,21.73-18,35.76-29.35s26.8-21.59,36.08-28.93l11-8.67,3-2.33.79-.6Z" style="fill:#455a64"></path><g style="opacity:0.30000000000000004"><path d="M629.93,391.51l-54.34-.88c2.82,13.46,4,23.52,5.94,40.69,1.4,12.73,15.89,21,28.48,23.37,8.41,1.59,15,.4,19.86-6.63,3.27-4.68,6.28-13.88,6.24-19.59C636,415.07,634.43,404.14,629.93,391.51Z"></path></g><path d="M562.59,271.87a96.42,96.42,0,0,1,31.71,38.27,16.5,16.5,0,0,0-5.95-5.15c4.42,8.38,11,15.83,13.6,24.95l.44,1.44c4.29,7.61,3.8,7.13,6.4,9.71,5.08,5,6.92,10.61,12,15.65l-3.57.27a37.74,37.74,0,0,1,10.69,16.17L622.07,369A116.28,116.28,0,0,1,634,410.83c.59,6.64.58,13.41-1.09,19.86-2.13,8.22-7.17,15.93-15.3,19.3a19.67,19.67,0,0,1-16.67-.86c-4-2.09-5.39-4.56-9.92-11-.28-.32-1.94-2.54-3.4-4.48s-1.56-4.58-1.4-7,.5-4.93-.27-7.24-1.51-8.93-2.14-11.35c-4.85-18.64-12.28-20.69-13.17-34.72l-4.35,6.88V370.06c-5.72-11.84-12-15-24.29-19.72s-27.27-1.13-39.43,3.85L494.12,359l-2.74,3.13c.59,5.82.91,17.5-.17,23.25s-4.07,11.42-9.13,14.37c-4,2.32-8.87,2.72-13.46,2.13a26.4,26.4,0,0,1-11.81-4.32c-4.75-3.33-7.93-8.43-10.5-13.62A96,96,0,0,1,466,271.87" style="fill:#263238"></path><path d="M466,271.87l-.68.71-2,2.06a108.57,108.57,0,0,0-7.3,8.6,97.72,97.72,0,0,0-9.48,15.4,96.26,96.26,0,0,0-8,22.94,95.09,95.09,0,0,0-1.45,29.88,96.75,96.75,0,0,0,10,33.51,45,45,0,0,0,5.11,8,23.38,23.38,0,0,0,7.5,6.08,28.18,28.18,0,0,0,9.58,2.72,22.88,22.88,0,0,0,10.11-1,16.34,16.34,0,0,0,8-6.39,24.49,24.49,0,0,0,3.75-10,80.17,80.17,0,0,0,.55-11c0-3.72-.18-7.48-.54-11.25v-.1l.06-.08,2.75-3.13,0,0,0,0,8.41-4.84h0a87.44,87.44,0,0,1,16.73-5.08,47.35,47.35,0,0,1,18-.2,50.93,50.93,0,0,1,8.73,2.94,57,57,0,0,1,8.4,4.08,32.24,32.24,0,0,1,3.83,2.75,28.15,28.15,0,0,1,3.32,3.41,39.33,39.33,0,0,1,5,8.08l0,.06v10.24l-.48-.14c1.37-2.16,2.85-4.52,4.34-6.88l.42-.66.06.78a35,35,0,0,0,1.19,7,34.27,34.27,0,0,0,2.9,6.76,105.59,105.59,0,0,1,6.29,12.42,65,65,0,0,1,2.23,6.56,33.5,33.5,0,0,1,.85,3.35c.22,1.13.39,2.25.57,3.38a57.3,57.3,0,0,0,1.29,6.64c.72,2.25.45,4.6.3,6.81a12.3,12.3,0,0,0,.79,6.45,8.81,8.81,0,0,0,.9,1.35l1,1.33,2,2.64,0,0c1.61,2.26,3.13,4.58,4.83,6.71a16.13,16.13,0,0,0,2.86,2.86,17.27,17.27,0,0,0,3.51,2,19.7,19.7,0,0,0,7.8,1.64,18.66,18.66,0,0,0,7.71-1.63,24.63,24.63,0,0,0,11.3-10.47,36.8,36.8,0,0,0,4.54-14.55,71.27,71.27,0,0,0-.14-15,115.94,115.94,0,0,0-11.73-40.51l-.4-.81.73.53L628,373l-.33.24a37.59,37.59,0,0,0-10.62-16.09l-.36-.32.48,0,3.57-.26-.12.34c-4.1-4-6.44-9.09-9.72-13.12a30.75,30.75,0,0,0-2.6-2.86,14.47,14.47,0,0,1-2.44-3c-1.3-2.17-2.45-4.35-3.65-6.46h0v0c-.43-1.33-.77-2.66-1.25-3.92a37.48,37.48,0,0,0-1.57-3.67,71.56,71.56,0,0,0-3.76-6.69c-2.65-4.22-5.33-8.12-7.42-12.1l-.22-.42.42.22a16.64,16.64,0,0,1,6,5.2l-.24.14a96.84,96.84,0,0,0-21.52-30c-3.1-2.94-5.67-5-7.39-6.33l-2-1.5-.67-.51s.94.65,2.71,1.95,4.33,3.36,7.45,6.28a98,98,0,0,1,10.6,11.68,96.57,96.57,0,0,1,11.07,18.3l-.23.14a16.4,16.4,0,0,0-5.91-5.1l.2-.2c2.09,3.95,4.77,7.84,7.44,12.07a73,73,0,0,1,3.79,6.72,36.88,36.88,0,0,1,1.58,3.69c.49,1.28.84,2.61,1.27,3.93l0,0c1.21,2.1,2.37,4.29,3.66,6.44a13.42,13.42,0,0,0,2.4,2.89,34.57,34.57,0,0,1,2.63,2.89c3.32,4.08,5.66,9.12,9.7,13.07l.32.31-.45,0-3.57.27.12-.36a38,38,0,0,1,10.76,16.26l.21.64-.54-.39-5.84-4.23.32-.27a116.59,116.59,0,0,1,9.44,26.21,115.05,115.05,0,0,1,2.37,14.46,71.51,71.51,0,0,1,.15,15.07,37.24,37.24,0,0,1-4.59,14.74A25.18,25.18,0,0,1,618.11,450a19.38,19.38,0,0,1-7.92,1.68,20.49,20.49,0,0,1-8-1.68,17.17,17.17,0,0,1-3.61-2,16.15,16.15,0,0,1-3-2.94c-1.73-2.17-3.24-4.48-4.85-6.74v0l-2-2.66-1-1.33a9,9,0,0,1-1-1.42c-1.06-2.11-1-4.5-.85-6.72s.41-4.51-.27-6.62a55.74,55.74,0,0,1-1.31-6.72c-.18-1.12-.36-2.25-.57-3.37a32.57,32.57,0,0,0-.84-3.3,66.32,66.32,0,0,0-2.21-6.5,104.07,104.07,0,0,0-6.27-12.37,31.32,31.32,0,0,1-4.14-13.93l.47.12-4.34,6.88-.48.76V370.06l0,.11a39.47,39.47,0,0,0-5-8,27.65,27.65,0,0,0-3.25-3.33,31,31,0,0,0-3.77-2.71,55.52,55.52,0,0,0-8.32-4,50,50,0,0,0-8.65-2.92,46.72,46.72,0,0,0-17.8.19,86.93,86.93,0,0,0-16.64,5.05l0,0-8.41,4.83.07-.05c-1,1.08-1.91,2.17-2.75,3.13l.06-.18c.36,3.79.5,7.56.53,11.29a78.49,78.49,0,0,1-.56,11.08,24.81,24.81,0,0,1-3.83,10.14,18.3,18.3,0,0,1-3.62,4,15.92,15.92,0,0,1-4.64,2.58,23.23,23.23,0,0,1-10.31,1,28.85,28.85,0,0,1-9.72-2.77,23.93,23.93,0,0,1-7.63-6.21,44.51,44.51,0,0,1-5.15-8.06,97.12,97.12,0,0,1-10-33.65,95,95,0,0,1,1.51-30,96.5,96.5,0,0,1,8.06-23,95.31,95.31,0,0,1,16.94-24l2.07-2Z" style="fill:#455a64"></path><g style="opacity:0.30000000000000004"><path d="M558.41,299a55.09,55.09,0,0,0,27.21-.58c-3.74-3-8.78-4-13.57-3.66-4.52.34-9.26,2.23-13.54,3.91-2.63.5-5.74,1.22-9.2,2.23a42,42,0,0,0,15.05-12.75,14.85,14.85,0,0,0-9.86,4.24c-2.58,2.36-4.53,5.78-6.31,8.84-.94.28-1.89.58-2.87.91l-2.64.9L540,304.1c-1.86.69-3.73,1.57-5.68,2.42a124.78,124.78,0,0,0-12,6.42A117.3,117.3,0,0,0,510,321.58c-1,.82-2,1.65-3,2.52s-2.05,1.72-3,2.63q-3,2.73-5.85,5.75c-2.17,2.3-4.21,4.66-6.13,7a27.45,27.45,0,0,0,1.18-12.12,9.79,9.79,0,0,0-2.81,6.47,22.82,22.82,0,0,0,.86,6.62A100,100,0,0,0,480,357.87c-2.08,4.33-3.74,8.57-5.27,12.54s-2.86,7.72-4,11.15c-2.32,6.87-4,12.5-5,16.41-.53,1.95-.91,3.48-1.16,4.52l-.27,1.18a1.84,1.84,0,0,0-.07.41,1.71,1.71,0,0,0,.13-.39c.09-.3.19-.69.33-1.17.3-1.07.73-2.57,1.28-4.48,1.13-3.89,2.84-9.49,5.21-16.33,1.19-3.42,2.56-7.14,4.09-11.11s3.23-8.19,5.31-12.48A105.88,105.88,0,0,1,497.47,334a38.78,38.78,0,0,0,18.82-.47,13.62,13.62,0,0,0-9.53-2.57,31.11,31.11,0,0,0-8.74,2.44l.47-.51q2.85-3,5.82-5.72c1-.91,2-1.76,3-2.62s2-1.7,3-2.52a120.9,120.9,0,0,1,12.24-8.63A128.62,128.62,0,0,1,534.51,307c1.94-.86,3.79-1.75,5.64-2.44l2.69-1.07,2.62-.91c1.84-.64,3.59-1.18,5.25-1.66V301l.15.06-.11-.15C553.59,300.09,556.17,299.48,558.41,299Z"></path><path d="M564.23,307.21c-3.79-2.84-8.89-4.55-13.37-6.15a55.37,55.37,0,0,0,21.21,17.82C571.22,314.16,568.07,310.09,564.23,307.21Z"></path><path d="M496.07,335.77l.14-.06-.23,0Z"></path></g><g style="opacity:0.30000000000000004"><path d="M514.15,296.51,471,283a27.54,27.54,0,0,0,10.68,14.39l-1.2-4.66a34.72,34.72,0,0,0,10.53,9,7,7,0,0,0-2.22-3.62l13.81,8.11-2.09-3.94a98,98,0,0,0,16.5,5.16l-2.6-2.57a31.76,31.76,0,0,0,19.88-1.57l-2.59,2.9a37.41,37.41,0,0,0,13.6-10.12c0,1.34,0,2.69,0,4a43.66,43.66,0,0,0,10.35-7.87c.13.53.25,1.06.37,1.59a42.81,42.81,0,0,0,8.39-16.37A80.83,80.83,0,0,1,514.15,296.51Z"></path></g><path d="M419.58,401.21a4.31,4.31,0,0,1-.15-.68c-.09-.5-.21-1.15-.35-2s-.33-1.9-.44-3.13-.33-2.61-.36-4.16-.19-3.24-.13-5.07c0-.91,0-1.85.06-2.82s.13-2,.2-3a87.32,87.32,0,0,1,2.16-13.14,105.06,105.06,0,0,1,4.09-12.68c.8-1.89,1.52-3.69,2.32-5.33s1.52-3.17,2.23-4.55,1.4-2.59,2-3.67,1.13-2,1.59-2.72.79-1.25,1.06-1.69a4,4,0,0,1,.39-.57,2.92,2.92,0,0,1-.31.63l-1,1.74c-.44.75-1,1.67-1.52,2.75s-1.26,2.31-1.92,3.7-1.44,2.9-2.17,4.56-1.48,3.44-2.26,5.33a107.16,107.16,0,0,0-4,12.62,90.71,90.71,0,0,0-2.18,13.06c-.08,1-.15,2-.22,3s-.05,1.9-.08,2.81c-.08,1.81,0,3.5.05,5s.22,2.93.29,4.15.24,2.27.35,3.13.19,1.47.25,2A3.32,3.32,0,0,1,419.58,401.21Z" style="fill:#263238"></path><path d="M437.59,406.31a9.06,9.06,0,0,1,1.44.22c.93.18,2.26.45,3.9.82,3.28.74,7.78,1.85,12.71,3.26s9.35,2.86,12.52,4c1.59.55,2.87,1,3.74,1.36a7.44,7.44,0,0,1,1.34.58,8.92,8.92,0,0,1-1.41-.39l-3.78-1.2c-3.2-1-7.63-2.4-12.55-3.81s-9.4-2.58-12.66-3.41l-3.85-1A7.54,7.54,0,0,1,437.59,406.31Z" style="fill:#263238"></path><g style="opacity:0.30000000000000004"><path d="M531.89,397.65a10.59,10.59,0,0,0-.84-4.4,4.08,4.08,0,0,0-3.53-2.41,5,5,0,0,0-3.24,1.76c-2.41,2.49-3.69,5.84-4.91,9.09l-17.91,47.85L497,453.77c7.21.08,15-.56,20.5-5.21,5.2-4.4,7.22-11.41,9-18C529.34,419.79,532.25,408.81,531.89,397.65Z"></path></g><path d="M526.2,393.39c-.23-3.7-1.77-7.49-4.81-9.62-2.74-1.92-6.29-2.26-9.62-2-13,.85-24.13,11.68-32.28,21.95l-11-6.31c-7.72-3.24-13.44-5.48-21.76-9.67-11.53-5.79-26.67-7.65-34.87-4.28-11.93,4.91-18.17,14.76-20.24,27.49-2.13,13-1.38,24.46,4.26,28.11,3.22,2.09,4.37,2,8.09,2.93,23.61,6,46.9,7.83,71,11.3l17.35,1.47c5.95.29,11.57-3.26,15.27-7.93s5.83-10.36,7.9-15.94c3.24-8.76,6.48-17.52,9-26.5A32.81,32.81,0,0,0,526.2,393.39Z" style="fill:#263238"></path><path d="M566.25,370.06a3.42,3.42,0,0,1-.19-.65c-.12-.48-.27-1.1-.46-1.88a59.27,59.27,0,0,0-2.15-6.77,43.2,43.2,0,0,0-5-9.29,58.18,58.18,0,0,0-4-4.87c-1.45-1.63-3-3.26-4.52-5.1l-.36-.45.57,0a17,17,0,0,1,2.08.2A17.57,17.57,0,0,1,562.67,347l-.37.32a84.8,84.8,0,0,0-11.95-11.92c-1.62-1.32-2.94-2.31-3.85-3l-1-.77c-.24-.18-.36-.27-.35-.29a2.4,2.4,0,0,1,.39.22c.25.16.62.39,1.09.71.94.64,2.3,1.6,3.95,2.88A80,80,0,0,1,562.68,347l-.38.31a17.15,17.15,0,0,0-10.12-5.55,16.08,16.08,0,0,0-2-.2l.21-.42c1.45,1.81,3,3.44,4.49,5.08a55.78,55.78,0,0,1,4,4.94,42.15,42.15,0,0,1,4.95,9.44,51.09,51.09,0,0,1,2,6.85c.15.78.27,1.42.37,1.9A3.55,3.55,0,0,1,566.25,370.06Z" style="fill:#455a64"></path><path d="M496,449.26c4.78,1.56,19.12-21.77,21-35.54.31-2.24-.17-5.26-2.76-5.61-2.11-.29-3.71,1.55-4.74,3.16a158,158,0,0,0-15.56,31.41,7.76,7.76,0,0,0-.68,3.82,3.32,3.32,0,0,0,2.74,2.76" style="fill:#455a64"></path><path d="M505.14,405.35a3.72,3.72,0,0,0-.68-2.19,1.91,1.91,0,0,0-1.76-1,3.15,3.15,0,0,0-1.93,1.55,13.69,13.69,0,0,0-1.87,4.11,8,8,0,0,0-.29,3.25,3.58,3.58,0,0,0,1.51,2.57,2.12,2.12,0,0,0,2.66-.42C504.43,411,505,409.06,505.14,405.35Z" style="fill:#455a64"></path><path d="M681.65,428.49a3.69,3.69,0,0,0,.69-2.18,1.9,1.9,0,0,0-.89-1.8,3.13,3.13,0,0,0-2.47.17,13.69,13.69,0,0,0-3.89,2.29,8,8,0,0,0-2.1,2.5,3.6,3.6,0,0,0-.24,3,2.12,2.12,0,0,0,2.42,1.18C677.83,432.71,679.37,431.43,681.65,428.49Z" style="fill:#455a64"></path><path d="M690.37,430.6a3.71,3.71,0,0,0,.69-2.18,1.92,1.92,0,0,0-.89-1.8,3.12,3.12,0,0,0-2.47.17,13.69,13.69,0,0,0-3.89,2.29,8,8,0,0,0-2.1,2.5,3.54,3.54,0,0,0-.24,3,2.11,2.11,0,0,0,2.42,1.19C686.54,434.81,688.08,433.54,690.37,430.6Z" style="fill:#455a64"></path><path d="M691.28,438a2.08,2.08,0,0,0,.33-1.31,1.39,1.39,0,0,0-.62-1.15,1.89,1.89,0,0,0-1.51,0,7,7,0,0,0-2.29,1.24,3.94,3.94,0,0,0-1.18,1.45,2.16,2.16,0,0,0,0,1.81,1.48,1.48,0,0,0,1.53.83A6.41,6.41,0,0,0,691.28,438Z" style="fill:#455a64"></path><path d="M513.8,397.82a3.73,3.73,0,0,0-.69-2.19,1.91,1.91,0,0,0-1.76-1,3.14,3.14,0,0,0-1.93,1.56,13.88,13.88,0,0,0-1.87,4.1,8,8,0,0,0-.29,3.25,3.56,3.56,0,0,0,1.51,2.57,2.1,2.1,0,0,0,2.66-.42C513.08,403.46,513.61,401.53,513.8,397.82Z" style="fill:#455a64"></path><path d="M522.45,395a3.73,3.73,0,0,0-.69-2.19,1.9,1.9,0,0,0-1.76-1,3.14,3.14,0,0,0-1.93,1.56,13.88,13.88,0,0,0-1.87,4.1,8,8,0,0,0-.28,3.25,3.55,3.55,0,0,0,1.5,2.57,2.1,2.1,0,0,0,2.66-.42C521.73,400.68,522.26,398.75,522.45,395Z" style="fill:#455a64"></path><path d="M461.57,448.61a5.68,5.68,0,0,1-.73-.1c-.48-.08-1.2-.19-2.11-.37-1.84-.35-4.5-.92-7.79-1.8a127.39,127.39,0,0,1-25.49-9.82l.27-.43a27.27,27.27,0,0,1,6.43,7l.42.64-.72-.26c-.71-.26-1.48-.51-2.23-.81A71,71,0,0,1,408,429.58l.33-.3a24,24,0,0,1,4.17,9.88l.06.35-.31-.16a48.43,48.43,0,0,1-8.68-5.49c-.94-.76-1.64-1.37-2.11-1.8l-.52-.5a.86.86,0,0,1-.17-.18s.08,0,.2.14l.56.46c.49.4,1.21,1,2.17,1.72a50.67,50.67,0,0,0,8.7,5.33l-.25.19a23.81,23.81,0,0,0-4.18-9.67l-1.21-1.65,1.54,1.34a71.32,71.32,0,0,0,21.52,12.95c.75.3,1.51.55,2.21.81l-.31.38a27.41,27.41,0,0,0-6.3-6.89l.27-.42A133,133,0,0,0,451,446c3.28.91,5.92,1.53,7.74,1.94l2.1.45A3.66,3.66,0,0,1,461.57,448.61Z" style="fill:#455a64"></path><path d="M470.26,427a4.57,4.57,0,0,1-.07-1.15,23.9,23.9,0,0,1,.19-3.13,33.73,33.73,0,0,1,.86-4.57A33.79,33.79,0,0,1,476,407.82a32.36,32.36,0,0,1,2.89-3.64,23.55,23.55,0,0,1,2.25-2.18,4.21,4.21,0,0,1,.91-.7c.06.07-1.17,1.14-2.88,3.13a36.43,36.43,0,0,0-2.78,3.66,36.17,36.17,0,0,0-4.66,10.19,38.14,38.14,0,0,0-1,4.49C470.36,425.37,470.35,427,470.26,427Z" style="fill:#455a64"></path><path d="M525.09,402.19a4.43,4.43,0,0,1-.13.64c-.11.46-.26,1.06-.45,1.81-.4,1.56-1,3.83-1.81,6.61-1.59,5.58-4.07,13.18-7.16,21.47a53.68,53.68,0,0,1-5.65,11.13,29.42,29.42,0,0,1-7.09,7.32,21.68,21.68,0,0,1-6.15,3.07,15.61,15.61,0,0,1-1.82.43,3.37,3.37,0,0,1-.65.09c0-.06.88-.2,2.41-.72a22.73,22.73,0,0,0,6-3.17,29.52,29.52,0,0,0,6.91-7.29,54.07,54.07,0,0,0,5.56-11.05c3.09-8.26,5.62-15.85,7.3-21.38l2-6.57.54-1.78A2.37,2.37,0,0,1,525.09,402.19Z" style="fill:#455a64"></path><path d="M505.71,401.16c-.08,0-.56-.9-1.72-2.11a11.34,11.34,0,0,0-11.91-3c-1.59.52-2.46,1.14-2.51,1.06s.18-.21.58-.48a9.19,9.19,0,0,1,1.81-.93,11,11,0,0,1,12.31,3.07,9.14,9.14,0,0,1,1.16,1.66A1.94,1.94,0,0,1,505.71,401.16Z" style="fill:#455a64"></path><path d="M515.71,392.73a9.44,9.44,0,0,0-1.31-2.82,8.24,8.24,0,0,0-2.51-2.21,10.09,10.09,0,0,0-3.91-1.21,20.09,20.09,0,0,0-7.48.91,25.14,25.14,0,0,1-3.07.83,16,16,0,0,1,3-1.18A18.19,18.19,0,0,1,508,386a10,10,0,0,1,4.09,1.32,8.22,8.22,0,0,1,2.57,2.4,6.56,6.56,0,0,1,.94,2.17A1.89,1.89,0,0,1,515.71,392.73Z" style="fill:#455a64"></path><path d="M541.8,450.05a9.62,9.62,0,0,1-.24-1.68c-.07-.54-.13-1.21-.16-2s-.1-1.66-.07-2.64a51.4,51.4,0,0,1,.49-6.86,56.22,56.22,0,0,1,1.82-8.23,57.53,57.53,0,0,1,3.11-7.83,51.88,51.88,0,0,1,3.45-5.95c.52-.82,1.08-1.52,1.54-2.14a19.79,19.79,0,0,1,1.24-1.56,11.24,11.24,0,0,1,1.14-1.26,9.66,9.66,0,0,1-1,1.38c-.34.43-.74,1-1.17,1.61s-1,1.34-1.46,2.18a55.19,55.19,0,0,0-3.33,5.95,61.57,61.57,0,0,0-3,7.78,62.27,62.27,0,0,0-1.84,8.14,57.77,57.77,0,0,0-.59,6.8c-.05,1,0,1.85,0,2.62s0,1.44.07,2A11.53,11.53,0,0,1,541.8,450.05Z" style="fill:#455a64"></path><path d="M538,443a3.48,3.48,0,0,1-.18-1c-.08-.63-.15-1.55-.19-2.7a42.84,42.84,0,0,1,.65-8.89,44,44,0,0,1,2.46-8.57c.44-1.06.82-1.9,1.12-2.47a3.58,3.58,0,0,1,.5-.85c.08,0-.5,1.32-1.27,3.45a52.15,52.15,0,0,0-2.3,8.53,53.19,53.19,0,0,0-.8,8.8C537.94,441.62,538,443,538,443Z" style="fill:#455a64"></path><path d="M683,438.43a4.31,4.31,0,0,0-3.13-2.4,11,11,0,0,0-4.08.07,56,56,0,0,0-25.1,10.7c-3.48,2.65-6.84,6.12-7.69,10.3a2.65,2.65,0,0,0,1.15,2.68h0a2.62,2.62,0,0,0,1.62.48c10.46-.51,21.85-9.78,32.23-14.85a12.47,12.47,0,0,0,3.93-2.6A4.39,4.39,0,0,0,683,438.43Z" style="fill:#455a64"></path><path d="M638.55,431s.17-.28.55-.72a21.58,21.58,0,0,1,1.72-1.78,31.25,31.25,0,0,1,14.32-7.59,21.58,21.58,0,0,1,2.44-.42,3.15,3.15,0,0,1,.91,0c0,.09-1.26.29-3.26.83a36,36,0,0,0-14.16,7.5C639.5,430.15,638.62,431.09,638.55,431Z" style="fill:#455a64"></path><g style="opacity:0.30000000000000004"><path d="M466,362a13.94,13.94,0,0,0,12.06,9c5.32.21,10.66-3.57,11.82-8.77a21.67,21.67,0,0,1-22.72.57"></path></g><path d="M441.11,370a121.52,121.52,0,0,0,14.42,26.65l-.69-6a25.69,25.69,0,0,0,10.31,10.63q-1.42-3.57-2.84-7.13a23.68,23.68,0,0,0,17.27,7.72" style="fill:#263238"></path><path d="M479.58,401.8l-.36,0c-.23,0-.58,0-1,0a23.11,23.11,0,0,1-3.92-.55,23.65,23.65,0,0,1-12.12-7l.38-.24c.88,2.2,1.84,4.6,2.86,7.13l.25.64-.6-.34a25.93,25.93,0,0,1-9-8.25c-.53-.81-1-1.64-1.46-2.48l.49-.14c.23,2.07.46,4.1.68,6.05l.11,1-.57-.8A118.52,118.52,0,0,1,444.39,378c-1.14-2.46-2-4.46-2.51-5.85-.27-.69-.47-1.23-.6-1.6a2.21,2.21,0,0,1-.17-.57,4.35,4.35,0,0,1,.26.54l.67,1.56c.59,1.37,1.47,3.34,2.64,5.78a127.27,127.27,0,0,0,11.06,18.63l-.46.17q-.34-2.92-.7-6l-.16-1.38.65,1.24c.43.82.91,1.63,1.43,2.42a25.72,25.72,0,0,0,8.77,8.11l-.35.31-2.82-7.14-.45-1.15.83.91a23.84,23.84,0,0,0,11.84,7.1,26.33,26.33,0,0,0,3.87.66A12.86,12.86,0,0,1,479.58,401.8Z" style="fill:#455a64"></path><g style="opacity:0.30000000000000004"><path d="M448.81,388.63a20.72,20.72,0,0,0,8.54,14.88,7.33,7.33,0,0,0,1.11-3.75,25.05,25.05,0,0,0,7.4,7.63,6,6,0,0,0,.49-6.41,11.22,11.22,0,0,0,12.85,4c-4.49-4.67-12.67-5-16-10.54a28.36,28.36,0,0,0,2.4,6.74,20.13,20.13,0,0,1-10.25-10.4,14.64,14.64,0,0,0,.34,5.78l-7-9.89"></path></g><path d="M487.8,217.78c-5.31,8.95-17,12.24-23.66,4.25-7-8.42-14.05-14.51-8.75-23.45s17.8-13.49,26.75-8.19S493.1,208.83,487.8,217.78Z" style="fill:#263238"></path><path d="M483.52,202.08c-.06.07-1.19-.93-3.3-2.06a20.09,20.09,0,0,0-18-.54c-2.18,1-3.36,1.94-3.41,1.86a3.14,3.14,0,0,1,.8-.69,16.62,16.62,0,0,1,2.45-1.5,19.25,19.25,0,0,1,18.3.55,17.48,17.48,0,0,1,2.36,1.64A3.52,3.52,0,0,1,483.52,202.08Z" style="fill:#455a64"></path><path d="M554.84,222.45c-10.22,2-20.43-4.63-18.85-14.91,1.66-10.85,1.57-20.14,11.78-22.09s21.89,4.41,23.84,14.62S565.05,220.5,554.84,222.45Z" style="fill:#263238"></path><path d="M562.32,222.8a1,1,0,0,1,.19.17l.53.55a17.17,17.17,0,0,1,1.78,2.35A33.59,33.59,0,0,1,568.76,236c.55,2.25,1.09,4.74,1.67,7.43a82.43,82.43,0,0,1,1.41,8.72,39.34,39.34,0,0,1-.16,9.85,25.59,25.59,0,0,1-3.65,10l-.45-.23a9.6,9.6,0,0,0,.42-5.66h.51c-.19,1-.42,2.1-.71,3.18a40.83,40.83,0,0,1-4.72,11.06l-.47.76v-.9c0-1.63,0-3.24,0-4.82l.48.1a25.69,25.69,0,0,1-6.36,8.68l-.37.33,0-.49c-.07-2-.14-3.83-.21-5.63l.42.08A31.62,31.62,0,0,1,543,293.11a29.85,29.85,0,0,1-5.17,2.23c-.62.2-1.1.31-1.43.41l-.49.11a2.39,2.39,0,0,1,.48-.18c.31-.11.79-.24,1.4-.46a32.82,32.82,0,0,0,5.08-2.33,31.71,31.71,0,0,0,6.91-5.26,30.93,30.93,0,0,0,6.39-9.27l.38-.84,0,.92c.07,1.8.15,3.68.23,5.63l-.38-.17a25.06,25.06,0,0,0,6.21-8.54l.48-1.07v1.17l0,4.83-.47-.13a40.54,40.54,0,0,0,4.65-10.92c.28-1.07.51-2.14.69-3.14l.23-1.23.28,1.21a10.05,10.05,0,0,1-.44,6l-.46-.24a25.29,25.29,0,0,0,3.59-9.84,39,39,0,0,0,.2-9.74,83.28,83.28,0,0,0-1.36-8.68c-.55-2.68-1.08-5.18-1.6-7.43A34.43,34.43,0,0,0,564.66,226a19,19,0,0,0-1.69-2.39l-.5-.58C562.36,222.87,562.31,222.8,562.32,222.8Z" style="fill:#263238"></path><path d="M570,239.73a25.3,25.3,0,0,0,9.11,13.14,13.66,13.66,0,0,0-6.22-.49l4.77,5.14a6.27,6.27,0,0,0-7.36,3.15" style="fill:#ebebeb"></path><path d="M517.43,194.17c-10.34.72-21.15,1.75-29.84,7.4-8.42,5.49-13.1,13.54-18,22.28-4.44,7.83-6.61,16.45-8.53,27.23-.87,4.88-1.6,7.32-1,11.47.15,1.05,2.83-7.25,2.86-6.21.27,8.8.71,13.72,1.91,17.65.22.73.17-4.16.45-3.48,1.33,3.23,4.43,10.82,6.67,13,9.29,9,21.68,15.17,34.62,15.67h19.67c12.94-.5,25.89-5.29,35.19-14.3s14.61-22.35,10.73-34.71c-3.27-10.44-1.76-15.59-6.2-23.42-5-8.74-12.41-19.69-20.82-25.18-8.69-5.65-19.5-6.68-29.84-7.4" style="fill:#ebebeb"></path><path d="M515.22,194.17c-.07,0,.1,0,.48-.08l.74-.12.48-.05h.51c0,.23,0-.52,0,.52h0c-.4,0-.78,0-1.1,0h0a3.33,3.33,0,0,1-.91-.24c-.17-.06-.23-.06-.18-.06a2.6,2.6,0,0,0,.43,0,4.69,4.69,0,0,1,.69-.13h0c.32,0,.69-.08,1.1-.11h0c0,1,0,.29,0,.52h-.38l-.35,0-.67-.13A5,5,0,0,0,515.22,194.17Z" style="fill:#263238"></path><path d="M579.06,252.87l-.39-.1a11.58,11.58,0,0,0-1.16-.26,13.57,13.57,0,0,0-4.66-.06l0-.11,4.79,5.11.25.27-.35-.11a6,6,0,0,0-4.21.27l.07-.1a32.86,32.86,0,0,1-2.25,12.64,40.66,40.66,0,0,1-8.62,13.46,48.45,48.45,0,0,1-15.48,10.72,58,58,0,0,1-20.82,4.79H508.72a40.79,40.79,0,0,1-6.12-.33A52.88,52.88,0,0,1,479,289.7a66.07,66.07,0,0,1-5.24-4.14c-.43-.37-.83-.76-1.24-1.14a15.44,15.44,0,0,1-1.22-1.21,19.17,19.17,0,0,1-1.87-2.88c-1.09-2-2-4.09-2.95-6.2-.45-1.06-.89-2.12-1.34-3.19l-.08-.2,0-.1,0,0s0,0,.11.08.34-.11.27-.08,0,0,0,0a.15.15,0,0,0,0,.08l0,.19c0,.28-.05.57-.06.85l-.09,1.75a3.64,3.64,0,0,1,0,.45.78.78,0,0,1,0,.14.41.41,0,0,1-.05.11c.1.06-.51.25-.46,0a.5.5,0,0,1-.08-.18l0-.11c-.08-.28-.17-.56-.24-.85-.15-.56-.28-1.14-.4-1.72-.23-1.15-.4-2.32-.54-3.49-.27-2.35-.42-4.71-.53-7.09-.05-1.19-.09-2.38-.14-3.57l0-.84c0-.05.09.23.29.15s.07-.05.08-.05l0,.06-.09.18-.18.4c-.22.55-.44,1.11-.65,1.67-.43,1.12-.84,2.24-1.34,3.36a4.25,4.25,0,0,1-.21.43,1.86,1.86,0,0,1-.17.24.33.33,0,0,1-.16.1c-.11.05-.34-.07-.34-.15a.38.38,0,0,1-.06-.2c0-.3-.08-.6-.1-.91-.06-.61-.09-1.22-.1-1.83a35,35,0,0,1,.83-6.58q.6-3.22,1.2-6.42a105.5,105.5,0,0,1,3.16-12.51,58.16,58.16,0,0,1,5.15-11.54,116.26,116.26,0,0,1,6.51-10.46,44.43,44.43,0,0,1,8.16-8.8,35.69,35.69,0,0,1,10.14-5.68c7.22-2.63,14.65-3.27,21.64-3.79h0c8.52.61,16.76,1.59,23.82,4.7a37.62,37.62,0,0,1,5,2.68,40.26,40.26,0,0,1,4.32,3.34,61.31,61.31,0,0,1,7,7.54,110.18,110.18,0,0,1,9.87,15,26.89,26.89,0,0,1,2.63,7.14c.52,2.33.79,4.52,1.12,6.53l-.22,0c0-.53,0-.89,0-1.25V239l.21.73A25.58,25.58,0,0,0,576,250.06a29.73,29.73,0,0,0,2.27,2.13c.48.4.7.57.82.68l-.85-.64a23,23,0,0,1-2.31-2.1,25.26,25.26,0,0,1-6-10.37l.21,0c0,.36,0,.72,0,1.24l-.21,0c-.34-2-.63-4.2-1.15-6.5a26.89,26.89,0,0,0-2.64-7.06,110.41,110.41,0,0,0-9.9-14.93,59.88,59.88,0,0,0-7-7.47,38,38,0,0,0-4.28-3.3,37.43,37.43,0,0,0-4.93-2.64c-7-3.06-15.18-4-23.69-4.62h0c-7,.53-14.37,1.19-21.5,3.79a34.88,34.88,0,0,0-10,5.62,43.42,43.42,0,0,0-8.06,8.7A114.88,114.88,0,0,0,470.31,223a57.17,57.17,0,0,0-5.11,11.44,106.43,106.43,0,0,0-3.14,12.45q-.6,3.19-1.2,6.42a34.72,34.72,0,0,0-.82,6.48c0,.59,0,1.19.09,1.78,0,.3.07.6.11.89v0s-.13,0-.16.06,0,.07-.05,0a.15.15,0,0,1,0-.29l.19-.38c.48-1.08.89-2.22,1.32-3.34.22-.56.43-1.12.67-1.68l.18-.42.11-.22.09-.13a.33.33,0,0,1,.16-.12c.24-.09.41.23.37.22a1.83,1.83,0,0,1,0,.28v.67c.05,1.19.09,2.38.14,3.57.11,2.37.26,4.72.53,7.05.13,1.16.3,2.31.53,3.45.11.57.24,1.13.39,1.69.07.28.16.56.23.84l0,.1,0,0s0,0-.15.07,0,.1-.15,0-.12,0-.12-.05v-.08c0-.13,0-.28,0-.42l.1-1.73c0-.29,0-.58.06-.88l0-.24a.93.93,0,0,1,0-.13.29.29,0,0,1,0-.11c-.06,0,.21-.23.35-.13s.13.13.17.16l0,.07,0,.1.08.2c.45,1.07.9,2.13,1.34,3.19.91,2.1,1.85,4.18,2.93,6.16a18.83,18.83,0,0,0,1.8,2.8,16.21,16.21,0,0,0,1.18,1.16c.41.38.81.77,1.23,1.13a63.35,63.35,0,0,0,5.2,4.11,52.31,52.31,0,0,0,23.41,9.32,39.79,39.79,0,0,0,6.06.33h17.54a57.41,57.41,0,0,0,20.67-4.71,48.28,48.28,0,0,0,15.39-10.59,40.64,40.64,0,0,0,8.61-13.33,32.43,32.43,0,0,0,2.29-12.54v-.07l.07,0a6.17,6.17,0,0,1,4.35-.25l-.1.15-4.75-5.15-.08-.09.12,0a13.73,13.73,0,0,1,4.7.12c.51.11.9.22,1.15.29Z" style="fill:#263238"></path><path d="M524.07,256c-3.42-2-8.76-2.71-11.66-1.14a2.15,2.15,0,0,0-.75,3h0a40,40,0,0,0,12.16.4,1.52,1.52,0,0,0,1.22-.55C525.4,257,524.71,256.32,524.07,256Z" style="fill:#e0e0e0"></path><path d="M502.9,291.49c-2.3-6.6-4.56-13.32-5-20.29l-4.19.16a27.85,27.85,0,0,0,.61,12,16,16,0,0,0,7.18,9.37c.4.22.93.41,1.28.12S503.06,291.94,502.9,291.49Z" style="fill:#e0e0e0"></path><path d="M509.69,258.26c0-.39-2.14-4.52-3-7.44s-1.13-5.18-4.77-6.71c-2.43-1-11.72-4.05-17.37,8-1.25,2.68.24,10.64,2,14s8.27,7.4,10.12,7.3c0,0,2.73-7.69,5.55-10.41A31.11,31.11,0,0,1,509.69,258.26Z" style="fill:#263238"></path><path d="M550,253.08a26.85,26.85,0,0,0-5.84-6.2c-2.52-2-5.33-3.94-8.54-4.41s-6.88.85-8.26,3.79c-1.19,2.54-.45,5.53.3,8.24s1.46,5.72.21,8.23l8.8,11.43a8.94,8.94,0,0,0,6.21-.72,16.72,16.72,0,0,0,5-3.93c2.13-2.34,3.93-5.16,4.27-8.31A12.87,12.87,0,0,0,550,253.08Z" style="fill:#263238"></path><path d="M496.65,273.33c.2.55,2.46,10.22,4.86,15.81s7.61,10.95,12.69,11.56,11.28,2.31,16.22-2.19,5.08-4.26,5.92-8,1.51-3.72,2.92-8.71,3.55-6.76,2.56-10.41-7.45-13-16.05-12.26" style="fill:#ebebeb"></path><path d="M514.22,258.1a17.91,17.91,0,0,1-2.05.07,15,15,0,0,0-4.76,1.05,14.84,14.84,0,0,0-4.16,2.55,15.72,15.72,0,0,1-1.53,1.38A5.22,5.22,0,0,1,503,261.5a12.84,12.84,0,0,1,4.21-2.76,13,13,0,0,1,4.95-.94A5.24,5.24,0,0,1,514.22,258.1Z" style="fill:#263238"></path><path d="M501,240.7a3,3,0,0,1-2.38.59c-1,0-2.16-.16-3.43-.29s-2.43-.21-3.43-.37-1.85-.39-2.22-1-.06-1.58,1.05-2.46a7.32,7.32,0,0,1,5.1-1.32,7.22,7.22,0,0,1,4.74,2.27C501.39,239.16,501.5,240.18,501,240.7Z" style="fill:#263238"></path><path d="M533.11,238.32c-.35-.61,0-1.59,1.09-2.45A7.69,7.69,0,0,1,544,237c.9,1.09,1,2.12.52,2.63a3,3,0,0,1-2.39.55c-1-.06-2.17-.2-3.43-.35s-2.42-.26-3.42-.43S533.46,239,533.11,238.32Z" style="fill:#263238"></path><g style="opacity:0.4"><path d="M508.24,292.34a13.86,13.86,0,0,0,10,5.84,13.63,13.63,0,0,0,10.74-4,4.44,4.44,0,0,0,1.55-3,9.32,9.32,0,0,1-5.5,3.31,5.33,5.33,0,0,1-5.5-2.71,5,5,0,0,1-4.22,3.45A9.42,9.42,0,0,1,509.8,294" style="fill:#263238"></path></g><path d="M467.69,391.92a1.33,1.33,0,0,1,0-.42q.07-.47.21-1.23c.19-1.07.5-2.65.94-4.67.86-4.05,2.23-9.89,4.22-17,1-3.57,2.17-7.45,3.49-11.6s2.8-8.56,4.69-13.1a108.32,108.32,0,0,1,17-26.9c1.84-2.15,3.73-4.22,5.66-6.19,1-1,2-1.93,3-2.85s2-1.85,3-2.74a121.38,121.38,0,0,1,12.09-9.51,131.82,131.82,0,0,1,11.91-7.21c1.95-1,3.8-2,5.66-2.78l2.71-1.22,2.64-1.06a103.89,103.89,0,0,1,16.78-5.09c2-.43,3.63-.64,4.7-.83l1.23-.18.42-.05a2.13,2.13,0,0,1-.41.11l-1.22.25c-1.06.24-2.65.48-4.66.95A110.76,110.76,0,0,0,545,283.84l-2.62,1.08-2.69,1.24c-1.84.81-3.68,1.82-5.62,2.8a129,129,0,0,0-11.82,7.23,122.88,122.88,0,0,0-12,9.48c-1,.88-2,1.79-2.95,2.74s-2,1.85-2.93,2.84c-1.92,1.95-3.79,4-5.62,6.15a109.21,109.21,0,0,0-16.92,26.72c-1.89,4.49-3.37,8.9-4.73,13s-2.54,8-3.55,11.56c-2.05,7.1-3.49,12.92-4.43,16.94l-1.05,4.65c-.12.5-.21.9-.27,1.21A3.81,3.81,0,0,1,467.69,391.92Z" style="fill:#455a64"></path><path d="M550.28,282l.16,0-.16-.18Z" style="fill:#455a64"></path><path d="M573.07,299c-1.13-4.77-4.56-8.75-8.64-11.47s-9.33-4.16-14-5.55A56.44,56.44,0,0,0,573.07,299Z" style="fill:#455a64"></path><path d="M557.38,279.48l.15-.07-.24,0Z" style="fill:#455a64"></path><path d="M585.77,277.4c-4-2.86-9.19-3.61-14-3s-9.77,3-14.19,5A56.39,56.39,0,0,0,585.77,277.4Z" style="fill:#455a64"></path><path d="M563.51,268.09a15.14,15.14,0,0,0-9.83,4.87c-2.59,2.64-4.44,6.41-6.13,9.71A43,43,0,0,0,563.51,268.09Z" style="fill:#455a64"></path><path d="M496.43,320.45l.15-.07-.24,0Z" style="fill:#455a64"></path><path d="M517,317.07a14,14,0,0,0-9.87-2.09c-3.38.43-6.86,2.1-10,3.51A39.64,39.64,0,0,0,517,317.07Z" style="fill:#455a64"></path><path d="M492.93,312.06a10,10,0,0,0-2.52,6.77,26.89,26.89,0,0,0,1.45,7.42A28.4,28.4,0,0,0,492.93,312.06Z" style="fill:#455a64"></path><path d="M566,201.89c-.09.06-.77-1.08-2.22-2.6a20.93,20.93,0,0,0-2.8-2.38,20,20,0,0,0-4-2.13,18,18,0,0,0-8-1.27,2.45,2.45,0,0,0-1.88,1.3,5.84,5.84,0,0,1-.46.79,2.15,2.15,0,0,1,.28-.89,3.14,3.14,0,0,1,.64-.92,2.67,2.67,0,0,1,1.36-.65,17,17,0,0,1,8.25,1.15,18.8,18.8,0,0,1,4,2.23,19.23,19.23,0,0,1,2.79,2.52,15.9,15.9,0,0,1,1.52,2A3.67,3.67,0,0,1,566,201.89Z" style="fill:#455a64"></path><path d="M532.93,256.76c.76.9,4.11,2,6.2.8s3.23-4.23,2-6.31-4.3-2.46-6.39-1.25S531.88,255.51,532.93,256.76Z" style="fill:#fff"></path><path d="M540.68,253a3.79,3.79,0,1,1-3.78-3.79A3.79,3.79,0,0,1,540.68,253Z" style="fill:#263238"></path><path d="M541.83,251.69a2.82,2.82,0,0,1,.37,2.09,4.85,4.85,0,0,1-.87,2.18,6,6,0,0,1-2.2,1.85,6.13,6.13,0,0,1-5.07.34,3,3,0,0,1-1.67-1.3,9.11,9.11,0,0,0,1.8,1,6.2,6.2,0,0,0,4.71-.47,5.23,5.23,0,0,0,2.93-3.62A7.37,7.37,0,0,0,541.83,251.69Z" style="fill:#455a64"></path><path d="M542.15,251.92a10.44,10.44,0,0,0-1.76-1.58,5.77,5.77,0,0,0-2.36-.84A5.48,5.48,0,0,0,532.8,252a5.65,5.65,0,0,0-.8,2.37,11.39,11.39,0,0,0,.15,2.36,1.54,1.54,0,0,1-.29-.59,5.27,5.27,0,0,1-.23-1.8,5.81,5.81,0,0,1,.76-2.59A5.77,5.77,0,0,1,538.1,249a5.89,5.89,0,0,1,2.5,1,5.29,5.29,0,0,1,1.26,1.29C542.1,251.68,542.18,251.91,542.15,251.92Z" style="fill:#455a64"></path><path d="M502.27,257.77c-.76.9-4.12,2-6.2.8s-3.23-4.23-2-6.31,4.3-2.46,6.39-1.25S503.32,256.53,502.27,257.77Z" style="fill:#fff"></path><path d="M494.51,254a3.79,3.79,0,1,0,3.79-3.79A3.79,3.79,0,0,0,494.51,254Z" style="fill:#263238"></path><path d="M493.37,252.7a7.37,7.37,0,0,0,0,2,5.23,5.23,0,0,0,2.93,3.62,6.15,6.15,0,0,0,4.71.47,9.51,9.51,0,0,0,1.8-1c.05,0-.42.77-1.67,1.31a6.2,6.2,0,0,1-5.08-.35,6,6,0,0,1-2.19-1.85,4.69,4.69,0,0,1-.87-2.18A2.77,2.77,0,0,1,493.37,252.7Z" style="fill:#455a64"></path><path d="M493.05,252.93s.05-.24.28-.59a5.39,5.39,0,0,1,1.27-1.3,5.84,5.84,0,0,1,2.5-1,5.77,5.77,0,0,1,5.71,2.77,5.81,5.81,0,0,1,.76,2.59,5.53,5.53,0,0,1-.23,1.8,1.54,1.54,0,0,1-.29.59,11.3,11.3,0,0,0,.15-2.36,5.65,5.65,0,0,0-.8-2.37,5.49,5.49,0,0,0-5.24-2.54,5.73,5.73,0,0,0-2.35.84A10.44,10.44,0,0,0,493.05,252.93Z" style="fill:#455a64"></path><path d="M496,255.71a2.36,2.36,0,0,1-.49-2.22c.23-1.32,1.15-2,1.22-1.91s-.52.86-.71,2S496.15,255.65,496,255.71Z" style="fill:#fff"></path><path d="M535.76,255.79c0,.06-.28.07-.65-.1a2.62,2.62,0,0,1-1.39-2.67c.07-.4.23-.61.29-.59s-.07,1,.44,1.9S535.8,255.65,535.76,255.79Z" style="fill:#fff"></path><path d="M506.81,291.54a20,20,0,0,0,4.91,3.24,6.82,6.82,0,0,0,5.66,0,4.68,4.68,0,0,0,2.48-5,4.36,4.36,0,0,0,2.88,4.6,6.5,6.5,0,0,0,5.48-.83,11,11,0,0,0,4.31-5.4" style="fill:#ebebeb"></path><path d="M532.53,288.16s0,.13-.07.37a7.52,7.52,0,0,1-.4,1,11.36,11.36,0,0,1-2.36,3.14,7.82,7.82,0,0,1-5.34,2.26,4.84,4.84,0,0,1-3.28-1.25,4.52,4.52,0,0,1-1.52-3.45c0-.16,0-.32,0-.47l.15-1.54.36,1.52a4.57,4.57,0,0,1-.75,3.62,5,5,0,0,1-2.77,2,7.66,7.66,0,0,1-5.61-.73,17.54,17.54,0,0,1-3.15-2.15,6.14,6.14,0,0,1-1-.95,8,8,0,0,1,1.14.79,20.48,20.48,0,0,0,3.19,2,7.44,7.44,0,0,0,5.31.6,4.56,4.56,0,0,0,2.49-1.86,4.12,4.12,0,0,0,.67-3.21l.51,0a2.71,2.71,0,0,0,0,.41,4,4,0,0,0,1.35,3.05,4.33,4.33,0,0,0,2.94,1.15,7.54,7.54,0,0,0,5.08-2.05,12.22,12.22,0,0,0,2.43-3C532.34,288.64,532.49,288.15,532.53,288.16Z" style="fill:#263238"></path><path d="M516.11,289.69a14.58,14.58,0,0,1-5.89-2.79,8.34,8.34,0,0,1-1.93-2.65,3.07,3.07,0,0,1-.07-2.81c.68-1.25,2.28-1.62,3.69-1.83a88.31,88.31,0,0,1,13.3-.92c1.13,0,2.18.46,3.31.56,2.67.24,3,2.54,2.58,4.48s-4.37,4.33-6.19,5.14-3,1.72-8.8.82" style="fill:#263238"></path><path d="M452.85,360.5c-1.19-8.82,1.07-18.23,6.89-25s15.31-10.37,24-8.35,15.81,10.05,15.95,18.94a7.5,7.5,0,0,1-1.39,5c-1.15,1.35-3.4,1.88-4.74.71,1.67,1.11,2,3.55,1.27,5.4a10.49,10.49,0,0,1-4,4.39c-6.78,4.8-22.2,5.37-25.53,0" style="fill:#263238"></path><path d="M465.31,361.68a6.8,6.8,0,0,0,2.15,1.86,17.31,17.31,0,0,0,7.76,1.77,31.23,31.23,0,0,0,12.1-2,15.87,15.87,0,0,0,6.09-4.17,5.9,5.9,0,0,0,1.53-3.54,3.89,3.89,0,0,0-1.53-3.51l.29-.38a2.76,2.76,0,0,0,2.59.45,3.76,3.76,0,0,0,2.21-1.71c1-1.71,1-3.9.8-6A19.59,19.59,0,0,0,493.51,333a20.6,20.6,0,0,0-11.29-5.82,23.5,23.5,0,0,0-11.85,1.3,26.25,26.25,0,0,0-9.15,5.82,27.37,27.37,0,0,0-5.45,7.75,33.2,33.2,0,0,0-3.12,13.38c0,1.64,0,2.91.11,3.77,0,.41.06.73.08,1a2.19,2.19,0,0,1,0,.34,26.86,26.86,0,0,1-.4-5.09,32.6,32.6,0,0,1,3-13.53,27.71,27.71,0,0,1,5.49-7.91,26.45,26.45,0,0,1,9.28-6,23.89,23.89,0,0,1,12.1-1.35,21.14,21.14,0,0,1,11.58,5.95,20.08,20.08,0,0,1,5.93,11.79c.21,2.12.24,4.4-.89,6.29a4.25,4.25,0,0,1-2.5,1.92,3.27,3.27,0,0,1-3-.56l.29-.38a4.39,4.39,0,0,1,1.74,3.94,6.32,6.32,0,0,1-1.66,3.79,16.22,16.22,0,0,1-6.29,4.26,31.11,31.11,0,0,1-12.25,1.94,17.06,17.06,0,0,1-7.83-1.93,6.29,6.29,0,0,1-1.66-1.38A3.7,3.7,0,0,1,465.31,361.68Z" style="fill:#455a64"></path></g><g id="panda-1"><path d="M125.51,362.76c-1,4.16-10.51,46.43-.23,64.43l51.13.41s4.63-2.58-5.14-11.32l-3.6-4.62s16.68-17.49,16.68-38.05v-29Z" style="fill:#263238"></path><path d="M317.56,344.63c-4.83-22.79,0-2.68-3.86,18.13-1.51,8.15-19.54,46.33-20.05,55.07v4.62s21.29,6.08,20.25,22.05l-41.34,1.09-29.3-26.74V356.64Z" style="fill:#263238"></path><g style="opacity:0.30000000000000004"><path d="M123.77,371.35c19.34,9.8,42.36,10.18,60.29-2C165.75,367.84,141.64,367.1,123.77,371.35Z"></path></g><g style="opacity:0.30000000000000004"><path d="M252.65,379.05l10.06,51.28c2.91-11-2.63-23.18,1.49-33.77,2.64-6.78,8.8-11.54,15.15-15.08s13.23-6.24,19-10.68a38.64,38.64,0,0,0,13.83-21.45A320.13,320.13,0,0,1,252.65,379.05Z"></path></g><path d="M48,340.52c0-3.12-1.56-37.93,12-61.83s43.12-59.75,82.09-68.06c0,0,5.19-2.08,15.07-2.6s44.68,6.76,72.73,0,43.65-8.31,57.15-3.12,100.24,60.58,100.24,60.58l-61.79,71.39S294.8,370.65,259,377.4l-71.7-7.27s-71.18,8.31-89.88-6.75S48,340.52,48,340.52Z" style="fill:#ebebeb"></path><g style="opacity:0.30000000000000004"><path d="M102.08,314.67l-2.3,4.3a63,63,0,0,1-2.24,48.2,28.67,28.67,0,0,0,4.54-52.5Z"></path></g><path d="M52.33,307.49c-.66,2-20.9,61.18-21.83,74.22C29.64,393.8,29.23,418,29.23,418s-1.17,14.07,1,16.58l51.18.71s-1.56-9.83-13.1-14.18A83.36,83.36,0,0,1,72.9,405.6c3.15-7.66,3.38-9.28,12.24-19.49A110.31,110.31,0,0,0,99,366l8.7-33.78Z" style="fill:#263238"></path><path d="M314.5,338.66l-7,7.81-5.73-11.11a13.11,13.11,0,0,1-6.32,9.61l-7.13-26.34-3.88,11.73a154.82,154.82,0,0,1-17.57-78.23l-1.69,1a2,2,0,0,1-3-2.11l2.29-12s-5.48,6.55-8.71,3.89-3.51-7.49-3-11.64a47.34,47.34,0,0,1,12.78-26.61s2.54-3.23-.15-3.14-7,.7-13.18,1.6c-10.61,1.55-30.78,6.49-30.78,6.49l-3.74,3c-23.74,19.48-38,48.3-44.87,78.16l8.68-8.65c-6.31,9.57-10.2,22.73-13,34.84l4.1-2.71c-2.61,9.51-3.7,19.78-1.32,30.32,1.2-3.25,4.62-7.44,5.82-10.7-1.52,14.11,5,31,12.13,43.47h67.21c11.45.81,28.3-8.14,40.82-16.62A161.1,161.1,0,0,0,315,346.94C314.54,343.41,315,342.19,314.5,338.66Z" style="fill:#263238"></path><path d="M43.09,335.54c3-20.59,8.69-35.67,24.16-42.17l5.48,12.23a22.48,22.48,0,0,1,1.41-9.43,21.3,21.3,0,0,1,5.52,11.68,26,26,0,0,0,3.2-16.11A38.54,38.54,0,0,1,91.54,312c1.66-.43,3.44-6.2,3.44-9l4.51,12.35s1.18-3.72,1.67-3.23,3.78,6.69,3.78,6.69a48.06,48.06,0,0,1-6.31,47.68" style="fill:#263238"></path><path d="M302.38,441c-.08,0-.32-.82-1-2a19.38,19.38,0,0,0-3.22-4.37,15.25,15.25,0,0,0-4.34-3.21c-1.26-.59-2.14-.66-2.13-.76a4.53,4.53,0,0,1,2.27.42,13.24,13.24,0,0,1,4.57,3.18,16.28,16.28,0,0,1,3.18,4.58A5.37,5.37,0,0,1,302.38,441Z" style="fill:#455a64"></path><path d="M209.83,278c-2.67,1.62-19.53,45.25-23.65,60.67s-.51,32.28,3.09,38.76,17.3,66.65,28.7,73.33,71,0,71,0,0-18.13-27.8-20.09c0,0-.92-6.86-2.85-20.46-1.75-12.37-2.26-38.12-1.75-49.94s22.11-22.63,23.14-24.68S258.17,248.66,209.83,278Z" style="fill:#263238"></path><path d="M271.15,452.34c-.1,0-.2-1.14-.74-2.89a16.68,16.68,0,0,0-1.26-2.95,17.34,17.34,0,0,0-8-7.38c-1.67-.78-2.78-1.07-2.76-1.16a2.55,2.55,0,0,1,.81.13,13.83,13.83,0,0,1,2.1.69,17,17,0,0,1,6,4.18,17.35,17.35,0,0,1,2.32,3.31,14.8,14.8,0,0,1,1.19,3.08,11.46,11.46,0,0,1,.38,2.18A2.3,2.3,0,0,1,271.15,452.34Z" style="fill:#455a64"></path><path d="M289,450.73s0-.05,0-.17l-.11-.51a20,20,0,0,0-.46-2,19.72,19.72,0,0,0-3.33-6.85,23.09,23.09,0,0,0-9.25-7,39.83,39.83,0,0,0-14.6-3.28H261l0-.19c-1.33-7.41-2.53-15.66-3.35-24.38-.8-8.54-1.18-16.71-1.31-24.14,0-1.86-.06-3.67-.08-5.43s-.12-3.45-.19-5.1a38.58,38.58,0,0,1,.45-9.2A28.89,28.89,0,0,1,262,350.35a20.76,20.76,0,0,1,2.49-2.63c.31-.28.56-.46.73-.6s.25-.19.26-.18a2.69,2.69,0,0,1-.23.22c-.15.15-.4.35-.69.64a22.66,22.66,0,0,0-2.4,2.68,29.2,29.2,0,0,0-5.26,12,39,39,0,0,0-.38,9.11c.08,1.64.18,3.35.22,5.12s.06,3.56.1,5.42c.15,7.42.55,15.57,1.35,24.1.82,8.7,2,16.94,3.3,24.35l-.23-.2A40.2,40.2,0,0,1,276,433.79,23.16,23.16,0,0,1,285.3,441a19.35,19.35,0,0,1,3.25,7,15.36,15.36,0,0,1,.39,2l.07.53C289,450.67,289,450.73,289,450.73Z" style="fill:#455a64"></path><path d="M153.81,347.5a1.65,1.65,0,0,1-.39,0c-.26,0-.65-.08-1.15-.18a35,35,0,0,1-4.24-1.1,37.29,37.29,0,0,1-13.27-7.67l.39-.25c.65,2.18,1.33,4.49,2,6.89a8.23,8.23,0,0,1,.44,1.91,1.27,1.27,0,0,1-.45,1.07,1.19,1.19,0,0,1-1.16.14,5.7,5.7,0,0,1-1.67-1.21c-.49-.45-1-.92-1.44-1.41a28.85,28.85,0,0,1-5.78-8.85l.46,0A59.12,59.12,0,0,0,125,347.16l-.1.67-.3-.61a33.87,33.87,0,0,1-3.12-10.45,29.39,29.39,0,0,1-.24-3c0-.35,0-.62,0-.79a1.07,1.07,0,0,1,0-.28,8.27,8.27,0,0,1,.1,1.06c.06.69.15,1.7.34,3A35.38,35.38,0,0,0,125,347l-.4.06a57.89,57.89,0,0,1,2.52-10.48l.21-.62.26.61a28.65,28.65,0,0,0,5.7,8.68c.45.49.93.94,1.41,1.39a5.3,5.3,0,0,0,1.49,1.1.66.66,0,0,0,.93-.71,8.3,8.3,0,0,0-.42-1.78c-.7-2.4-1.38-4.71-2-6.89l-.24-.81.62.56a38.17,38.17,0,0,0,13,7.76,40.41,40.41,0,0,0,4.18,1.22l1.13.26A1.42,1.42,0,0,1,153.81,347.5Z" style="fill:#263238"></path><path d="M138.05,304.65a5.29,5.29,0,0,1-.27-.58c-.15-.39-.42-1-.69-1.72a46,46,0,0,1-1.87-6.68,47,47,0,0,1-.91-10.58,47.74,47.74,0,0,1,2.24-13.33l.37.28-8.32,5.57-.46.31.07-.55a24.69,24.69,0,0,1,1.92-7.19,25.13,25.13,0,0,1,6.86-9.25l.27.43-12.15,6-.5.25.18-.52A40.43,40.43,0,0,1,135,251.41a31.67,31.67,0,0,1,5.62-4.39,2,2,0,0,1-.37.31l-1.11.83a43.1,43.1,0,0,0-3.95,3.44,40.89,40.89,0,0,0-9.93,15.62l-.31-.28,12.13-6,1.88-.93-1.6,1.35a25,25,0,0,0-6.72,9.07,24.62,24.62,0,0,0-1.88,7l-.4-.24,8.33-5.56.58-.39-.21.67a48.26,48.26,0,0,0-1.5,23.7,49.29,49.29,0,0,0,1.73,6.69c.24.77.48,1.34.61,1.74A3.48,3.48,0,0,1,138.05,304.65Z" style="fill:#263238"></path><path d="M422.75,357.23a9.54,9.54,0,0,1-1.48.22l-4,.46c-3.4.41-8.09,1.09-13.21,2.12s-9.7,2.24-13,3.18l-3.89,1.14a9.72,9.72,0,0,1-1.45.38,7.25,7.25,0,0,1,1.38-.57c.9-.34,2.22-.78,3.86-1.3a127.54,127.54,0,0,1,13-3.34,129.68,129.68,0,0,1,13.27-2c1.71-.16,3.09-.26,4.05-.3A7.9,7.9,0,0,1,422.75,357.23Z" style="fill:#455a64"></path><path d="M423.44,350.22a11.14,11.14,0,0,0-7.67,2.36c-2.18,1.61-3.95,4.12-5.57,6.3A31.46,31.46,0,0,0,423.44,350.22Z" style="fill:#455a64"></path><path d="M423.78,365.4a13.41,13.41,0,0,0-8-5.54c-3.17-.87-6.89-.68-10.18-.58A38.38,38.38,0,0,0,423.78,365.4Z" style="fill:#455a64"></path><path d="M436,358.69a13.48,13.48,0,0,0-9.23-3.12c-3.28,0-6.81,1.24-10,2.25A38.28,38.28,0,0,0,436,358.69Z" style="fill:#455a64"></path><path d="M405.49,304.23a24.41,24.41,0,0,1-.32,8.35c-1.11,5.15-4.32,13.58-3.45,16.93,1.79,6.93,8.42,23.27,7.32,27.68s-6,6.61-6,6.61-13.11,8.81-17.52,8.26c0,0-5.79,4.13-10.47,1.38s-14.88-8.54-14.88-10.2-7.72,3-13.23,1.93-20.66-14.05-22.32-17.36-.82-13.22,1.66-28.1a104,104,0,0,1,8.26-26.45l36.1-25.08s17.08-4.41,17.91-4.41,9.92,18.74,13.5,27.28A53.22,53.22,0,0,1,405.49,304.23Z" style="fill:#ebebeb"></path><path d="M391.78,320.05c-.75-1.5-3.93-3.06-5.56-2.65A23.9,23.9,0,0,0,372,338.57a6.77,6.77,0,0,0,1.28,4.64c1.64,1.81,4.56,1.68,6.85.83a17.76,17.76,0,0,0,8.85-7.69A26.74,26.74,0,0,0,392.38,325,9.31,9.31,0,0,0,391.78,320.05Z" style="fill:#263238"></path><path d="M390.07,327.32a2.83,2.83,0,1,1-2.83-2.83A2.83,2.83,0,0,1,390.07,327.32Z" style="fill:#263238"></path><path d="M407.75,359.92s-3.39,1.49-4.61,1.09-1.83-2.44-3-2.65-1,1.63-.92,3.56a8.9,8.9,0,0,0,1.13,3.64l3.19-1.29a7.52,7.52,0,0,0,4.25-4.35Z" style="fill:#263238"></path><path d="M329.31,311.71a53.81,53.81,0,0,0-7.06,10.42l3.58-1.84a28.3,28.3,0,0,0-4.55,11.48l2.2-2.21a26.35,26.35,0,0,0-1.37,11.21c.49-.82,1-1.64,1.49-2.46a23,23,0,0,0,1.9,13.27l1.84-2.29A19,19,0,0,0,329,356a2.79,2.79,0,0,0,1.43,1.63c.7.23,1.66-.4,1.42-1.1,2,2.81,7.59,7.6,13.91,8" style="fill:#ebebeb"></path><path d="M345.75,364.48h-.29l-.87-.06a15.55,15.55,0,0,1-3.22-.76,19.89,19.89,0,0,1-4.65-2.35,21,21,0,0,1-5-4.66l.35-.18a.93.93,0,0,1-.1.78,1.37,1.37,0,0,1-.58.49,1.4,1.4,0,0,1-1.46-.15,5.33,5.33,0,0,1-1.49-2.43,18.72,18.72,0,0,1-1.3-5.85l.42.13c-.57.72-1.19,1.5-1.83,2.29l-.24.31-.17-.36a23.15,23.15,0,0,1-1.93-13.41l.48.17-.55.89-.95,1.57-.41.67-.07-.78a26.62,26.62,0,0,1,1.39-11.31l.42.26-2.2,2.2-.54.53.12-.74a28.41,28.41,0,0,1,4.62-11.55l.26.29-3.58,1.82-.51.25.26-.5a52.53,52.53,0,0,1,5-7.78c.67-.85,1.22-1.5,1.6-1.92l.44-.48c.1-.11.15-.16.16-.15a6.63,6.63,0,0,1-.52.69c-.35.45-.88,1.11-1.52,2a57,57,0,0,0-4.86,7.83l-.24-.24,3.57-1.86.7-.36-.45.66a28.28,28.28,0,0,0-4.47,11.39l-.41-.21c.72-.72,1.45-1.45,2.19-2.21l.78-.78-.37,1a26.33,26.33,0,0,0-1.35,11.1l-.48-.11,1-1.57c.19-.3.37-.61.54-.89l.69-1.12-.21,1.3a22.87,22.87,0,0,0,1.86,13.12l-.41-.05,1.84-2.28.39-.48,0,.62a18.73,18.73,0,0,0,1.24,5.71,5.23,5.23,0,0,0,1.32,2.26,1,1,0,0,0,1.05.12c.34-.15.58-.49.47-.78l-.47-1.29.82,1.11a22.09,22.09,0,0,0,9.45,7,17.11,17.11,0,0,0,3.16.86l.85.11Z" style="fill:#263238"></path><path d="M357.31,260.24c-9.86-3.44-17.85.22-21.48,4.81-4.83,6.11-5.34,11.24-4.14,17.89s5.93,11.73,10.22,12.88l19.82-3.9s9.8-9.9,10.95-15.36S367.17,263.68,357.31,260.24Z" style="fill:#263238"></path><path d="M402.25,260.81a5.59,5.59,0,0,0-1.76-3.21,6,6,0,0,0-4-.83,33.28,33.28,0,0,0-15.3,4.72l1,2.22A129.11,129.11,0,0,0,396.7,279.6,19.69,19.69,0,0,0,402.25,260.81Z" style="fill:#263238"></path><path d="M373.53,364.77c.09-.12,2.65,1.75,6,3.79s6.15,3.49,6.08,3.63a7.69,7.69,0,0,1-1.94-.77,50.12,50.12,0,0,1-4.41-2.42,47.6,47.6,0,0,1-4.15-2.85A8.1,8.1,0,0,1,373.53,364.77Z" style="fill:#263238"></path><path d="M360.38,391.21a4.28,4.28,0,0,1,.15-1.17,11.28,11.28,0,0,1,.29-1.36,18.17,18.17,0,0,1,.49-1.77,31.52,31.52,0,0,1,1.76-4.45,37.1,37.1,0,0,1,3-5A34.88,34.88,0,0,1,370,373a32.63,32.63,0,0,1,3.7-3c.54-.41,1.08-.72,1.54-1s.86-.51,1.2-.69a5.22,5.22,0,0,1,1.07-.5c0,.09-1.43.88-3.59,2.5a34.48,34.48,0,0,0-3.58,3.09,39.14,39.14,0,0,0-3.78,4.38,40.22,40.22,0,0,0-3,4.93,35.89,35.89,0,0,0-1.84,4.36C360.77,389.58,360.47,391.23,360.38,391.21Z" style="fill:#455a64"></path><path d="M386.57,380.51a13.47,13.47,0,0,0-8-5.54c-3.17-.87-6.89-.68-10.19-.58A38.31,38.31,0,0,0,386.57,380.51Z" style="fill:#455a64"></path><path d="M386,333.34c-.77.71-3.75,1.25-5.31-.11a4.66,4.66,0,0,1-.72-6,3.89,3.89,0,0,1,5.54-.27C387.05,328.37,387.05,332.36,386,333.34Z" style="fill:#fff"></path><path d="M381.7,329.17a3.31,3.31,0,0,0,2.59,3.92,3.38,3.38,0,0,0,3.75-2.9,3.29,3.29,0,0,0-2.58-3.92A3.4,3.4,0,0,0,381.7,329.17Z" style="fill:#263238"></path><path d="M379.31,327.58a9.94,9.94,0,0,0-.28,1.76,4.69,4.69,0,0,0,1.8,3.64,4.87,4.87,0,0,0,3.92,1.12,10.36,10.36,0,0,0,1.67-.6,2.54,2.54,0,0,1-1.59,1,4.92,4.92,0,0,1-4.33-1.08,5.07,5.07,0,0,1-1.52-2,4.46,4.46,0,0,1-.32-2A2.69,2.69,0,0,1,379.31,327.58Z" style="fill:#455a64"></path><path d="M379,327.75a3.35,3.35,0,0,1,1.56-1.49,4.66,4.66,0,0,1,2.31-.6,4.54,4.54,0,0,1,2.76,1,4.91,4.91,0,0,1,1.65,2.42,5.52,5.52,0,0,1,.16,2.38,3.54,3.54,0,0,1-.82,2,14.25,14.25,0,0,0,.45-2,5.55,5.55,0,0,0-.25-2.18,4.55,4.55,0,0,0-1.52-2.16,4.19,4.19,0,0,0-2.44-.94,4.8,4.8,0,0,0-2.14.44A12.19,12.19,0,0,0,379,327.75Z" style="fill:#455a64"></path><path d="M382.57,330.65c-.13.06-.51-.92-.11-2.07s1.3-1.68,1.36-1.55-.54.73-.87,1.72S382.72,330.61,382.57,330.65Z" style="fill:#fff"></path><path d="M396.52,314.35c-.42.6-1.51.6-2.92.38s-3.19-.66-5.13-1.11-3.73-.81-5.11-1.22-2.35-.88-2.47-1.6.71-1.53,2.31-2.08a12.89,12.89,0,0,1,12.13,2.76C396.53,312.66,396.92,313.77,396.52,314.35Z" style="fill:#263238"></path><path d="M348.75,309.37a17.32,17.32,0,0,1,.18-2.79c.17-1.76.43-4.23.76-7.11l.44.17-2.67,4-2.66,4-.91,1.36.46-1.56c.84-2.8,1.57-5.19,2.1-6.88a18.22,18.22,0,0,1,.94-2.66,20,20,0,0,1-.64,2.75c-.46,1.71-1.12,4.12-1.92,6.93l-.44-.21,2.64-4,2.7-4,.57-.86-.13,1c-.36,2.88-.69,5.34-.94,7.08A18.12,18.12,0,0,1,348.75,309.37Z" style="fill:#263238"></path><path d="M345.63,295.14a36.34,36.34,0,0,1-3.72-7.46,17.06,17.06,0,0,0,6.1,2.58,10,10,0,0,1,2-9,22.22,22.22,0,0,0,1.9,6.26,10.3,10.3,0,0,1,3.07-4.89,15.17,15.17,0,0,0,.67,7.41,15.2,15.2,0,0,0,3.35-3.93,21.87,21.87,0,0,0,.66,8.09" style="fill:#e0e0e0"></path><path d="M359.64,294.21a1.92,1.92,0,0,1-.19-.54,13.76,13.76,0,0,1-.38-1.58,21.37,21.37,0,0,1-.27-6l.34.11a15.54,15.54,0,0,1-3.37,4l-.24.2-.11-.3a15.35,15.35,0,0,1-.71-7.52l.41.22a10.09,10.09,0,0,0-3,4.78l-.19.66-.3-.62c-.3-.65-.6-1.35-.85-2.07a22.15,22.15,0,0,1-1.07-4.26l.45.12a9.89,9.89,0,0,0-1.95,8.77l.1.37-.36-.08a17.34,17.34,0,0,1-6.16-2.66l.27-.21a39.37,39.37,0,0,0,2.48,5.56c.32.59.59,1.06.8,1.44a2.94,2.94,0,0,1,.27.52,2.21,2.21,0,0,1-.36-.46c-.21-.31-.52-.78-.89-1.4a34.22,34.22,0,0,1-2.64-5.53l-.2-.53.47.31a17.24,17.24,0,0,0,6.05,2.51l-.27.29a10.31,10.31,0,0,1,2-9.23l.37-.44.08.57a21.68,21.68,0,0,0,1.05,4.16c.25.71.54,1.39.83,2l-.48,0a10.55,10.55,0,0,1,3.15-5l.53-.46-.12.69a15.24,15.24,0,0,0,.63,7.3l-.34-.1a15.65,15.65,0,0,0,3.34-3.85l.42-.71-.09.82a22.53,22.53,0,0,0,.11,5.92c.1.69.21,1.23.28,1.59A3.55,3.55,0,0,1,359.64,294.21Z" style="fill:#263238"></path><path d="M362.26,268.82a22.81,22.81,0,0,0-4-2.35A14.91,14.91,0,0,0,339,273.23a23.84,23.84,0,0,0-1.67,4.36,4.59,4.59,0,0,1,.17-1.26,13.82,13.82,0,0,1,1.17-3.27,15.59,15.59,0,0,1,3.07-4.15,15.11,15.11,0,0,1,5.37-3.35,15.31,15.31,0,0,1,11.27.57,14.23,14.23,0,0,1,3,1.81A5.65,5.65,0,0,1,362.26,268.82Z" style="fill:#455a64"></path><path d="M401.72,329.51l.17.59c.12.4.29,1,.53,1.77.48,1.55,1.26,3.86,2.28,6.89s2.32,6.8,3.54,11.36c.29,1.14.57,2.34.78,3.59a8.79,8.79,0,0,1,0,4c-.83,2.67-3.13,4.83-5.88,6.23h0c-2.4,1.58-5,3.22-7.9,4.78a50.44,50.44,0,0,1-4.54,2.24c-.39.18-.8.33-1.21.48s-.83.3-1.26.42a7.5,7.5,0,0,1-2.69.38l.09,0a14.55,14.55,0,0,1-4.57,2,8.44,8.44,0,0,1-5.18-.23c-.83-.38-1.57-.85-2.35-1.3l-2.35-1.37q-2.37-1.4-4.79-2.89a54.12,54.12,0,0,1-4.77-3.29,8.75,8.75,0,0,1-1.1-1,2.15,2.15,0,0,1-.43-.67c0-.18,0-.28-.06-.31a.31.31,0,0,0-.23-.09,11.36,11.36,0,0,0-2.84.71,37.36,37.36,0,0,1-6,1.57,12.43,12.43,0,0,1-3.17.13,8.57,8.57,0,0,1-3.09-.92h.05a18.25,18.25,0,0,1-7.05-2.59,21.5,21.5,0,0,1-6-5.32l.3-.16a1,1,0,0,1-.45,1.12,1.38,1.38,0,0,1-1.22.19,3.07,3.07,0,0,1-1.54-1.81,18.91,18.91,0,0,1-1.39-4.66l0,.1-1-1h.26c-.31.4-.69.86-1.06,1.33l-.18.22-.12-.26a23.22,23.22,0,0,1-2-12.79l.32.15-.73.74,0,0-.69,1.15-.31.5,0-.58,0-.43.32.12a170.86,170.86,0,0,1-27.58,22.08,126.4,126.4,0,0,1-16.76,9,88.93,88.93,0,0,1-18.88,6h-.06l-71.7-7.25h.05q-16.8,1.81-34.49,2.23c-5.89.11-11.85.08-17.86-.18a153.07,153.07,0,0,1-18.11-1.77,72.34,72.34,0,0,1-9-2A35.58,35.58,0,0,1,99.22,365c-.66-.43-1.29-.9-1.94-1.35l-1.86-1.4-1.87-1.4-2-1.3-1.95-1.3-2-1.2-2-1.21-2.07-1.12a155.59,155.59,0,0,0-17.3-7.9,182.87,182.87,0,0,0-18.29-6l-.19,0v-.2a166.79,166.79,0,0,1,2.55-34.25A103.24,103.24,0,0,1,55,288.79a87.36,87.36,0,0,1,8.14-16,175.81,175.81,0,0,1,10.19-14.54C75.21,256,77,253.66,79,251.49c1-1.1,1.9-2.23,2.89-3.3l3-3.18a137.1,137.1,0,0,1,26.48-21.81A97,97,0,0,1,142,210.39h0A48.4,48.4,0,0,1,152,208.22c1.7-.2,3.4-.34,5.09-.43.86,0,1.72,0,2.56,0l2.54.14c6.73.53,13.35,1.33,19.92,1.85,13.12,1.09,26.06,1.37,38.48-.31,1.54-.25,3.1-.41,4.62-.73l4.55-.94c3-.71,6-1.41,9-2.07,6-1.3,11.87-2.44,17.75-3.23a85,85,0,0,1,17.48-.69,43.59,43.59,0,0,1,16.29,4.38l3.67,1.92c1.21.65,2.4,1.33,3.59,2,2.38,1.31,4.69,2.68,7,4q6.9,4,13.47,8,13.15,8,25.06,15.37c15.88,9.88,30.11,18.88,42.54,26.8l-.1,0,2.14-.46.53-.12.27,0s.07,0,.16,0a.41.41,0,0,1,.17.12,5.59,5.59,0,0,1,.63.89c.75,1.22,1.4,2.46,2,3.68,1.27,2.45,2.46,4.85,3.59,7.18q3.39,7,6.12,13.21a50.21,50.21,0,0,1,3.8,11.91,43.78,43.78,0,0,1,.76,5.42,24.78,24.78,0,0,1-.22,4.93,74.59,74.59,0,0,1-2,8c-.65,2.27-1.16,4.19-1.48,5.75a17.36,17.36,0,0,0-.44,3.58,4.83,4.83,0,0,0,.07.91c0,.2.05.31.05.31a2.4,2.4,0,0,1-.06-.3,4.43,4.43,0,0,1-.1-.91,17.42,17.42,0,0,1,.4-3.6c.31-1.57.81-3.5,1.45-5.77a73.86,73.86,0,0,0,2-7.95,23.8,23.8,0,0,0,.2-4.9,41.76,41.76,0,0,0-.77-5.4A50.52,50.52,0,0,0,401,288.82q-2.73-6.19-6.15-13.18c-1.14-2.33-2.33-4.73-3.6-7.17-.65-1.22-1.3-2.45-2-3.66a6,6,0,0,0-.6-.84c0-.11-.23,0-.4,0l-.52.11-2.1.46h-.06l0,0c-12.45-7.9-26.7-16.88-42.58-26.73-7.95-4.92-16.31-10.06-25.07-15.34q-6.59-4-13.48-8c-2.32-1.32-4.63-2.69-7-4-1.19-.66-2.37-1.34-3.58-2l-3.66-1.91A43.35,43.35,0,0,0,274,202.24a84.09,84.09,0,0,0-17.38.71c-5.86.78-11.76,1.93-17.71,3.23-3,.66-6,1.36-9,2.07l-4.57.95c-1.53.32-3.09.49-4.64.74-12.47,1.7-25.44,1.41-38.58.33-6.58-.52-13.21-1.31-19.92-1.84l-2.51-.14c-.85,0-1.68,0-2.52,0-1.69.09-3.38.23-5.06.43a47.69,47.69,0,0,0-10,2.15h0a96.7,96.7,0,0,0-30.5,12.76,136.07,136.07,0,0,0-26.38,21.74l-3,3.17c-1,1.06-1.91,2.19-2.87,3.28-2,2.18-3.74,4.49-5.58,6.77a174.66,174.66,0,0,0-10.16,14.49A86.07,86.07,0,0,0,55.53,289a103,103,0,0,0-4.72,17.4,166.31,166.31,0,0,0-2.54,34.15l-.2-.26a186.06,186.06,0,0,1,18.36,6.06,153,153,0,0,1,17.35,7.93l2.08,1.13,2,1.21,2,1.21,2,1.3,2,1.31,1.88,1.41,1.87,1.41c.63.44,1.25.89,1.89,1.32a35.69,35.69,0,0,0,8.47,3.58,72.6,72.6,0,0,0,8.94,2A151.83,151.83,0,0,0,135,371.92c6,.27,11.93.29,17.82.18,11.76-.25,23.27-1,34.44-2.21h.05l71.7,7.3h-.06a89,89,0,0,0,18.79-6,125.06,125.06,0,0,0,16.71-9,170,170,0,0,0,27.53-22l.3-.29,0,.41q0,.23,0,.42l-.34-.08c.24-.4.49-.8.69-1.15h0v0l.73-.74.39-.39-.07.55a22.9,22.9,0,0,0,1.94,12.59l-.3,0,1.07-1.33.12-.16.15.15,1,1,.05,0v.06a19.21,19.21,0,0,0,1.37,4.57,2.74,2.74,0,0,0,1.34,1.63c.58.22,1.43-.34,1.23-.88l-.41-1.11.71,1a21.13,21.13,0,0,0,5.9,5.24,18,18,0,0,0,6.92,2.55h0l0,0a8.63,8.63,0,0,0,3,.9,12.77,12.77,0,0,0,3.09-.13,36.51,36.51,0,0,0,5.92-1.55c.48-.16,1-.31,1.45-.45a4.71,4.71,0,0,1,1.52-.26.56.56,0,0,1,.43.2.43.43,0,0,1,.09.25l0,.15a1.64,1.64,0,0,0,.37.57,8.26,8.26,0,0,0,1.06,1,50.68,50.68,0,0,0,4.74,3.27c1.6,1,3.19,2,4.77,2.9l2.34,1.38c.78.45,1.54.93,2.32,1.28a8.14,8.14,0,0,0,5,.23,14.34,14.34,0,0,0,4.49-2l0,0h.05a12.54,12.54,0,0,0,5-1.26c1.59-.67,3.08-1.44,4.52-2.21,2.87-1.56,5.5-3.19,7.89-4.76h0c2.7-1.36,5-3.5,5.79-6.09a8.73,8.73,0,0,0,.05-3.87c-.21-1.25-.48-2.44-.77-3.58-1.2-4.56-2.5-8.32-3.49-11.36s-1.76-5.35-2.23-6.92S401.72,329.51,401.72,329.51Z" style="fill:#263238"></path></g></svg>
