<svg xmlns="http://www.w3.org/2000/svg" viewBox="0 0 500 500"><g id="background-complete"><g><g><path d="M443.92039,330.1975h-180.7461c-3.2324,0-5.86229-2.6298-5.86229-5.8623V61.0618c0-3.2324,2.62989-5.8618,5.86229-5.8618h180.7461c3.2324,0,5.8623,2.6294,5.8623,5.8618V324.3352c0,3.2325-2.6299,5.8623-5.8623,5.8623ZM263.17429,55.45c-3.0947,0-5.61229,2.5176-5.61229,5.6118V324.3352c0,3.0948,2.51759,5.6123,5.61229,5.6123h180.7461c3.0947,0,5.6123-2.5175,5.6123-5.6123V61.0618c0-3.0942-2.5176-5.6118-5.6123-5.6118h-180.7461Z" style="fill:#e0e0e0;"></path><path d="M235.49269,330.1975H54.7461c-3.2324,0-5.8618-2.6298-5.8618-5.8623V61.0618c0-3.2324,2.6294-5.8618,5.8618-5.8618H235.49269c3.2324,0,5.86231,2.6294,5.86231,5.8618V324.3352c0,3.2325-2.62991,5.8623-5.86231,5.8623ZM54.7461,55.45c-3.0942,0-5.6118,2.5176-5.6118,5.6118V324.3352c0,3.0948,2.5176,5.6123,5.6118,5.6123H235.49269c3.0947,0,5.61231-2.5175,5.61231-5.6123V61.0618c0-3.0942-2.51761-5.6118-5.61231-5.6118H54.7461Z" style="fill:#e0e0e0;"></path></g><rect x="0" y="367.4991" width="500" height=".25" style="fill:#e0e0e0;"></rect><rect x="51.6724" y="381.7636" width="16.06" height=".25" style="fill:#e0e0e0;"></rect><rect x="170.3524" y="379.0536" width="53.53" height=".25" style="fill:#e0e0e0;"></rect><rect x="68.7324" y="391.0536" width="36.25" height=".25" style="fill:#e0e0e0;"></rect><rect x="378.35239" y="378.9236" width="43.19" height=".25" style="fill:#e0e0e0;"></rect><rect x="430.45239" y="378.9236" width="6.33" height=".25" style="fill:#e0e0e0;"></rect><rect x="316.21239" y="385.1536" width="53.89" height=".25" style="fill:#e0e0e0;"></rect></g><g><polygon points="266.16019 172.9092 261.37439 317.9055 273.94559 317.9055 269.16 172.9092 266.16019 172.9092" style="fill:#e0e0e0;"></polygon><path d="M299.72559,237.4284c4.7136,2.8764,16.2838,9.405,18.9259,5.9128,6.5084-8.5935-4.6534-25.8315-18.2731-41.657,3.8109,1.8128,7.8375,3.1175,9.1571,1.3752,5.7842-7.6108-5.4989-23.5728-17.8599-37.3157,3.6553,2.0596,9.1853,4.699,10.6579,2.7766,6.6883-8.8481-14.6376-31.3993-26.8122-43.0837-4.23229-4.0712-10.9637-3.9411-15.03529,.2916-.06681,.0693-.13231,.1394-.19721,.2106-11.0889,12.1512-30.0801,35.1813-23.4851,43.7718,.8948,1.169,3.211,.8873,5.7836,.065-10.0914,13.3485-18.3049,27.8637-13.0089,34.7663,.8319,1.083,2.6701,1.1402,4.8862,.6619-11.413,15.5936-20.06459,31.9335-13.9207,39.9353,1.5937,2.0774,6.1953,1.0889,10.877-.6853-14.2304,18.8392-25.7915,39.3039-18.3244,49.0443,4.214,5.4864,26.6136-7.5869,26.6136-7.5869,0,0,4.1084,12.2678,7.8323,13.0965,6.8984,1.5291,23.4267-15.8514,23.4267-15.8514,0,0,13.6685,16.7736,19.972,15.8514,4.77391-.7002,11.01891-15.8514,11.01891-15.8514,0,0,20.26329,13.3421,24.11539,8.2759,8.3411-11.0194-8.4607-34.3159-26.3498-54.0038Z" style="fill:#f5f5f5;"></path></g><path d="M382.357,123.8333c-1.73071-1.2974-4.25591-1.4444-6.12761-.3565-2.4845-4.9819-9.4079-7.1804-14.3455-4.5556-1.2882-5.3682-6.6185-9.4944-12.1794-9.4281-5.5608,.0664-10.7894,4.3186-11.9471,9.7161-.1838,.8578-.3056,1.7974-.924,2.424-1.00439,1.018-2.6813,.6764-4.1127,.5656-4.5035-.3485-9.0349,2.7887-10.2596,7.1031l62.0183-.224c.5431-2.0837-.3917-3.9471-2.12239-5.2446Z" style="fill:#f5f5f5;"></path><path d="M135.8291,49.7546c-1.0974-.8227-2.6986-.9159-3.8854-.2261-1.5754-3.1589-5.9654-4.553-9.0963-2.8886-.8168-3.404-4.1967-6.0203-7.7228-5.9783-3.5261,.0421-6.8415,2.7384-7.5755,6.1609-.1165,.5439-.1938,1.1397-.5859,1.537-.6369,.6455-1.7002,.4289-2.6078,.3587-2.8556-.221-5.7289,1.7682-6.5055,4.5039l39.325-.142c.3444-1.3213-.2484-2.5028-1.3458-3.3255Z" style="fill:#ebebeb;"></path><path d="M265.52219,77.2385c-1.5553-1.166-3.8245-1.2981-5.5066-.3204-2.23259-4.477-8.4543-6.4527-12.8915-4.0939-1.1576-4.8242-5.9477-8.5322-10.9449-8.4726-4.9973,.0597-9.696,3.881-10.73619,8.7314-.16521,.7708-.27471,1.6153-.83041,2.1784-.9027,.9148-2.40959,.6078-3.6959,.5082-4.0471-.3132-8.1192,2.506-9.2198,6.3832l55.7326-.2014c.4881-1.8725-.352-3.547-1.9073-4.7129Z" style="fill:#ebebeb;"></path><path d="M415.856,58.7043c-2.13881-1.6034-5.25931-1.785-7.57231-.4406-3.0702-6.1564-11.6258-8.8733-17.7276-5.6297-1.5918-6.6338-8.1788-11.7328-15.0507-11.6508s-13.3332,5.3368-14.7637,12.0068c-.2272,1.0599-.37769,2.2211-1.1419,2.9955-1.2413,1.258-3.3135,.8358-5.0824,.6989-5.5652-.4307-11.1649,3.4461-12.67839,8.7777l76.63979-.2768c.67121-2.575-.4841-4.8777-2.62279-6.481Z" style="fill:#ebebeb;"></path><path d="M161.2895,116.4963c-2.7114-2.0485-6.6674-2.2806-9.5997-.563-3.8921-7.8653-14.7385-11.3365-22.474-7.1925-2.018-8.4753-10.3685-14.9897-19.0802-14.885-8.7117,.1048-16.9029,6.8183-18.7164,15.3399-.2881,1.3541-.4789,2.8378-1.4476,3.827-1.5736,1.6072-4.2006,1.0679-6.4431,.8929-7.0552-.5503-14.1542,4.4028-16.0728,11.2144l97.1587-.3537c.8509-3.2898-.6137-6.2317-3.3249-8.28Z" style="fill:#f5f5f5;"></path><g><polygon points="90.5667 200.7674 86.0202 338.5153 97.9629 338.5153 93.4166 200.7674 90.5667 200.7674" style="fill:#e0e0e0;"></polygon><path d="M122.4541,262.0613c4.478,2.7326,15.4698,8.9348,17.9799,5.6172,6.183-8.1639-4.4209-24.5401-17.3597-39.5745,3.6204,1.7222,7.4457,2.9616,8.6994,1.3064,5.495-7.2303-5.224-22.3943-16.9672-35.4502,3.4727,1.9566,8.7262,4.4641,10.1252,2.6378,6.3539-8.4058-13.9059-29.8297-25.4719-40.9299-4.0207-3.8677-10.4156-3.7441-14.2837,.277-.0634,.0658-.1256,.1324-.1873,.2001-10.5346,11.5437-28.5763,33.4225-22.311,41.5836,.85,1.1106,3.0504,.8429,5.4945,.0617-9.587,12.6812-17.3899,26.4707-12.3586,33.0283,.7903,1.0289,2.5366,1.0833,4.6419,.6288-10.8424,14.8141-19.0616,30.3371-13.2248,37.9389,1.514,1.9735,5.8856,1.0345,10.3333-.651-13.519,17.8974-24.5022,37.339-17.4084,46.5925,4.0034,5.2121,25.2831-7.2076,25.2831-7.2076,0,0,3.9031,11.6544,7.4408,12.4418,6.5536,1.4526,22.2556-15.059,22.2556-15.059,0,0,12.9852,15.935,18.9736,15.059,4.5352-.6652,10.468-15.059,10.468-15.059,0,0,19.2504,12.6751,22.9099,7.8622,7.9241-10.4686-8.0378-32.6005-25.0326-51.3041Z" style="fill:#f5f5f5;"></path></g><g><polygon points="194.4345 177.8393 189.7477 319.8354 202.05869 319.8354 197.3722 177.8393 194.4345 177.8393" style="fill:#e0e0e0;"></polygon><path d="M227.30529,241.0235c4.6162,2.8169,15.9469,9.2104,18.5344,5.7904,6.3737-8.4156-4.5572-25.2969-17.895-40.7949,3.732,1.7752,7.6752,3.0529,8.9676,1.3467,5.6645-7.4533-5.3851-23.085-17.4904-36.5436,3.5797,2.017,8.9953,4.6018,10.4374,2.7192,6.5499-8.665-14.3347-30.7496-26.2574-42.1922-4.1447-3.987-10.7368-3.8596-14.7242,.2856-.0654,.0678-.1296,.1364-.1931,.2062-10.8595,11.8997-29.4577,34.4533-22.9992,42.8661,.8763,1.1448,3.1445,.8689,5.664,.0636-9.8826,13.0723-17.9262,27.2871-12.7397,34.0469,.8146,1.0606,2.6148,1.1167,4.785,.6482-11.1768,15.2709-19.6494,31.2727-13.6327,39.109,1.5608,2.0343,6.0672,1.0663,10.652-.6711-13.9359,18.4494-25.2578,38.4906-17.9453,48.0294,4.1269,5.3729,26.063-7.4299,26.063-7.4299,0,0,4.0234,12.0139,7.6702,12.8255,6.7557,1.4974,22.942-15.5234,22.942-15.5234,0,0,13.3857,16.4265,19.5587,15.5234,4.6751-.6857,10.7909-15.5234,10.7909-15.5234,0,0,19.844,13.0661,23.6164,8.1046,8.1685-10.7913-8.2857-33.6058-25.8046-52.8863Z" style="fill:#e6e6e6;"></path></g><g><polygon points="329.03369 219.958 325.41849 329.4892 334.91489 329.4892 331.29979 219.958 329.03369 219.958" style="fill:#e0e0e0;"></polygon><path d="M354.38929,268.6962c3.56071,2.1729,12.3009,7.1046,14.2968,4.4666,4.9165-6.4916-3.5153-19.5133-13.8037-31.468,2.8788,1.3694,5.9205,2.355,6.9174,1.0388,4.3694-5.7492-4.1539-17.807-13.4916-28.1885,2.7613,1.5559,6.9387,3.5497,8.0511,2.0975,5.0524-6.6839-11.05729-23.7193-20.2541-32.5457-3.1971-3.0755-8.282-2.9772-11.3578,.2203-.05039,.0523-.0999,.1052-.1489,.159-8.3767,9.1791-22.7227,26.5762-17.7409,33.0656,.676,.883,2.4256,.6702,4.3691,.049-7.6232,10.0836-13.82769,21.0484-9.8271,26.2627,.62841,.8182,2.017,.8614,3.691,.5-8.6214,11.7795-15.1569,24.1228-10.5157,30.1675,1.2039,1.5692,4.68,.8225,8.2166-.5177-10.7498,14.2313-19.4832,29.6904-13.84249,37.0484,3.18339,4.1444,20.10409-5.7312,20.10409-5.7312,0,0,3.1036,9.2671,5.9166,9.8932,5.2111,1.155,17.6968-11.9743,17.6968-11.9743,0,0,10.3252,12.6709,15.0869,11.9743,3.6062-.529,8.3238-11.9743,8.3238-11.9743,0,0,15.307,10.0787,18.2169,6.2517,6.30091-8.3242-6.3913-25.9225-19.9048-40.7949Z" style="fill:#e6e6e6;"></path></g><g><polygon points="407.15769 186.0091 402.80519 317.8787 414.23829 317.8787 409.886 186.0091 407.15769 186.0091" style="fill:#e0e0e0;"></polygon><path d="M437.68439,244.6873c4.2869,2.6159,14.80961,8.5535,17.2125,5.3775,5.9192-7.8155-4.2321-23.4929-16.6188-37.8857,3.46591,1.6486,7.12791,2.8352,8.3281,1.2506,5.2606-6.9217-5.0011-21.4387-16.2431-33.9374,3.3245,1.8732,8.3538,4.2736,9.6931,2.5252,6.08281-8.047-13.3124-28.5566-24.3849-39.1832-3.8491-3.7027-9.9711-3.5843-13.6741,.2652-.0607,.063-.1203,.1267-.1793,.1915-10.0851,11.0511-27.35689,31.9963-21.359,39.8091,.8138,1.0632,2.9203,.807,5.26,.0591-9.1778,12.14-16.6477,25.3411-11.8312,31.6188,.7566,.985,2.4284,1.0371,4.4438,.602-10.3797,14.1819-18.2481,29.0425-12.6604,36.3199,1.4494,1.8893,5.6345,.9903,9.8924-.6232-12.9422,17.1336-23.4567,35.7456-16.6656,44.6042,3.8326,4.9897,24.2043-6.9001,24.2043-6.9001,0,0,3.7365,11.1572,7.1232,11.9109,6.2739,1.3906,21.3059-14.4163,21.3059-14.4163,0,0,12.431,15.255,18.1639,14.4163,4.3417-.6368,10.0213-14.4163,10.0213-14.4163,0,0,18.4288,12.1342,21.9322,7.5266,7.5859-10.0218-7.6948-31.2092-23.9643-49.1147Z" style="fill:#f5f5f5;"></path></g><g><polygon points="313.784 367.7491 461.83469 367.7491 474.49859 287.5846 326.46 287.5846 313.784 367.7491" style="fill:#e0e0e0;"></polygon><polygon points="326.61659 287.5846 474.65519 287.5846 487.33119 367.7491 339.29259 367.7491 326.61659 287.5846" style="fill:#ebebeb;"></polygon><polygon points="158.0218 367.7491 306.07239 367.7491 318.73629 287.5846 170.6977 287.5846 158.0218 367.7491" style="fill:#e0e0e0;"></polygon><polygon points="170.8544 287.5846 318.905 287.5846 331.56889 367.7491 183.5303 367.7491 170.8544 287.5846" style="fill:#ebebeb;"></polygon><polygon points="4.66936 367.7491 152.72 367.7491 165.3839 287.5846 17.3453 287.5846 4.66936 367.7491" style="fill:#e0e0e0;"></polygon><polygon points="17.5019 287.5846 165.5526 287.5846 178.2165 367.7491 30.1779 367.7491 17.5019 287.5846" style="fill:#ebebeb;"></polygon><path d="M218.01579,287.5846c-1.3153,0-34.4855,80.1645-34.4855,80.1645h69.852l33.1884-80.1645h-68.5549Z" style="fill:#f5f5f5;"></path><polygon points="299.75569 287.5846 267.66109 367.7491 283.70839 367.7491 313.784 287.5846 299.75569 287.5846" style="fill:#f5f5f5;"></polygon><polygon points="431.19939 287.5846 391.95669 367.7491 450.72769 367.7491 477.70959 306.9006 474.65519 287.5846 431.19939 287.5846" style="fill:#f5f5f5;"></polygon></g></g><g id="background-simple"><g><path d="M180.6544,81.0792c-21.5641,3.0237-42.3584,9.4614-60.8008,19.5592-21.7365,11.9014-43.9458,30.4424-37.3861,54.6937,12.1104,44.7717,70.2065,45.5872,58.6068,75.6908-13.1391,34.0989-4.3277,74.0971,54.63,85.2199,111.9818,21.1263,247.35109-102.4877,209.33089-170.4124-23.6698-42.2872-109.8801-80.8063-224.38079-64.7512Z" style="fill:#407BFF;"></path><path d="M180.6544,81.0792c-21.5641,3.0237-42.3584,9.4614-60.8008,19.5592-21.7365,11.9014-43.9458,30.4424-37.3861,54.6937,12.1104,44.7717,70.2065,45.5872,58.6068,75.6908-13.1391,34.0989-4.3277,74.0971,54.63,85.2199,111.9818,21.1263,247.35109-102.4877,209.33089-170.4124-23.6698-42.2872-109.8801-80.8063-224.38079-64.7512Z" style="fill:#fff; opacity:.9;"></path></g></g><g id="Shadow"><path d="M288.96219,433.4181c0,6.0364-57.5918,10.93-128.6349,10.93s-128.635-4.8936-128.635-10.93,57.5918-10.9302,128.635-10.9302,128.6349,4.8935,128.6349,10.9302Z" style="fill:#f5f5f5;"></path></g><g id="Plants"><g><path d="M295.30479,360.11027c1.42532,2.49753,2.85071,4.99501,4.2761,7.4925,.23922,.41914,.88746,.04173,.6476-.37854-1.42539-2.49749-2.85078-4.99497-4.2761-7.4925-.23921-.41915-.88745-.04173-.6476,.37854h0Z" style="fill:#263238;"></path><path d="M301.8142,367.64941c-1.16013-3.72558-1.33583-7.68595-.4931-11.49702,.104-.47032-.61888-.6712-.72321-.19938-.87111,3.93941-.70676,8.04261,.4931,11.89578,.14304,.45934,.86728,.26329,.72321-.19938h0Z" style="fill:#263238;"></path><path d="M303.85369,367.3333c-.01675-2.6244,1.00834-5.18369,2.83726-7.06693,.33645-.34644-.19332-.87735-.53033-.53033-1.96423,2.02257-3.07494,4.77722-3.05693,7.59727,.00308,.48244,.75309,.4835,.75,0h0Z" style="fill:#263238;"></path></g><g><path d="M387.90539,418.31397c1.4254,2.49751,2.8507,4.99509,4.2761,7.4926,.23922,.41914,.88746,.04173,.6476-.37854-1.4254-2.49751-2.8507-4.99509-4.2761-7.4926-.23922-.41914-.88746-.04173-.6476,.37854h0Z" style="fill:#263238;"></path><path d="M395.07529,425.51761c-1.16016-3.72556-1.33583-7.68596-.4931-11.49702,.104-.47032-.61888-.6712-.72321-.19938-.87111,3.93939-.70679,8.04263,.4931,11.89578,.14304,.45934,.86729,.26329,.72321-.19938h0Z" style="fill:#263238;"></path><path d="M397.48129,425.5371c-.01676-2.62444,1.00837-5.18372,2.83726-7.06703,.33644-.34645-.19333-.87736-.53033-.53033-1.96419,2.02264-3.07494,4.77728-3.05693,7.59737,.00308,.48244,.75309,.4835,.75,0h0Z" style="fill:#263238;"></path></g><g><path d="M116.0682,456.31717c1.42536,2.49754,2.85077,4.99505,4.2761,7.4926,.23921,.41915,.88745,.04173,.6476-.37854-1.42533-2.49755-2.85074-4.99506-4.2761-7.4926-.23921-.41915-.88745-.04173-.6476,.37854h0Z" style="fill:#263238;"></path><path d="M123.3158,463.44061c-1.15371-3.38365-1.33483-7.00643-.4931-10.48292,.11354-.46893-.6095-.66902-.72321-.19938-.87185,3.60091-.7027,7.37457,.4931,10.88168,.15489,.45428,.87958,.25923,.72321-.19938h0Z" style="fill:#263238;"></path><path d="M126.04,463.5403c-.01676-2.62445,1.00846-5.18372,2.83736-7.06703,.33644-.34645-.19333-.87736-.53033-.53033-1.9642,2.02263-3.07504,4.77726-3.05703,7.59737,.00308,.48244,.75309,.4835,.75,0h0Z" style="fill:#263238;"></path></g></g><g id="Archery_target"><g><path d="M291.54219,368.1241h174.6979c.48259,0,.48339-.75,0-.75h-174.6979c-.48259,0-.48339,.75,0,.75h0Z" style="fill:#263238;"></path><rect x="330.504" y="221.7921" width="106.32309" height="145.957" style="fill:#263238;"></rect><rect x="330.504" y="221.7921" width="106.32309" height="145.957" style="fill:#fff; opacity:.2;"></rect><ellipse cx="383.66549" cy="293.20373" rx="37.3704" ry="51.30088" style="fill:#407BFF;"></ellipse><ellipse cx="383.66549" cy="293.2037" rx="30.2267" ry="41.4943" style="fill:#fff;"></ellipse><ellipse cx="383.6655" cy="293.2037" rx="21.2125" ry="29.1199" style="fill:#407BFF;"></ellipse><ellipse cx="383.66549" cy="293.2037" rx="12.5379" ry="17.2116" style="fill:#fff;"></ellipse><ellipse cx="383.66549" cy="293.2037" rx="5.3774" ry="7.3819" style="fill:#263238;"></ellipse><rect x="436.82709" y="221.7921" width="7.2434" height="145.5882" style="fill:#263238;"></rect><rect x="436.82709" y="221.7921" width="7.2434" height="145.5882" style="opacity:.3;"></rect><path d="M393.08789,221.7921c-1.4967,0-54.62889,37.8703-42.2813,54.2,12.3476,16.3298,34.3975,28.5002,16.8246,52.3812-17.5729,23.8811-32.5398,39.3758-31.0431,39.3758s32.55291-.3688,32.55291-.3688c0,0,48.268-35.7053,43.01889-60.3224-5.902-27.6785-46.2707-39.7403-38.903-49.4688,7.3676-9.7284,58.3706-35.797,58.3706-35.797h-38.5396Z" style="fill:#fff; opacity:.1;"></path></g></g><g id="Character"><g><g><g><path d="M71.3682,243.2709s3.885,.0404,4.2452,1.9461c.3601,1.9057-2.9584,14.1676-2.9584,14.1676l-1.2868-16.1137Z" style="fill:#407BFF;"></path><path d="M70.6449,243.3155s-3.8506,.5178-3.9737,2.4533c-.1232,1.9356,4.6778,13.6964,4.6778,13.6964l-.7041-16.1497Z" style="fill:#407BFF;"></path><g><path d="M71.538,241.2833l8.149,132.0559-.3569,3.6882s-.5816-2.7137-.8728-3.2457c-.2913-.5319-8.1716-132.4211-8.1716-132.4211l1.2523-.0773Z" style="fill:#263238;"></path></g><polygon points="72.392 277.3536 73.8974 279.5184 74.7179 292.8143 73.275 290.9777 72.392 277.3536" style="fill:#263238;"></polygon><path d="M73.4215,293.4059l1.4453,1.8217s.4046,6.5568,.3968,6.4299c-.0078-.127-1.4061-1.1872-1.4061-1.1872,0,0-.449-7.276-.436-7.0644Z" style="fill:#263238;"></path></g><g><path d="M83.9415,255.0882s3.8414,.5821,3.9321,2.5195c.0906,1.9373-4.9067,13.6161-4.9067,13.6161l.9746-16.1356Z" style="fill:#407BFF;"></path><path d="M83.2191,255.0314s-3.8852-.0247-4.2772,1.8747c-.3921,1.8995,2.7206,14.2152,2.7206,14.2152l1.5566-16.0899Z" style="fill:#407BFF;"></path><g><path d="M84.387,253.1437l-9.6141,122.401-.8475,3.3395s-.2126-2.5712-.4299-3.0992c-.2172-.528,9.6408-122.7395,9.6408-122.7395l1.2507,.0982Z" style="fill:#263238;"></path></g><polygon points="80.1987 288.9802 81.3873 291.3339 80.3442 304.6142 79.1718 302.5942 80.1987 288.9802" style="fill:#263238;"></polygon><path d="M78.978,305.0191l1.1769,2.0056s-.5144,6.549-.5045,6.4223c.01-.1268-1.2266-1.3717-1.2266-1.3717,0,0,.5708-7.2675,.5542-7.0562Z" style="fill:#263238;"></path></g><g><path d="M90.938,244.3476s3.8413,.5821,3.932,2.5195c.0907,1.9373-4.9066,13.6161-4.9066,13.6161l.9746-16.1356Z" style="fill:#407BFF;"></path><path d="M90.2155,244.2908s-3.8851-.0247-4.2772,1.8747c-.392,1.8995,2.7206,14.2152,2.7206,14.2152l1.5566-16.0899Z" style="fill:#407BFF;"></path><g><path d="M91.3835,242.4031l-9.6141,122.401-.8475,3.3395s-.2127-2.5712-.4299-3.0992,9.6407-122.7395,9.6407-122.7395l1.2508,.0982Z" style="fill:#263238;"></path></g><polygon points="87.1952 278.2396 88.3838 280.5933 87.3407 293.8736 86.1683 291.8536 87.1952 278.2396" style="fill:#263238;"></polygon><path d="M85.9745,294.2785l1.1768,2.0056s-.5144,6.549-.5044,6.4223c.01-.1268-1.2267-1.3717-1.2267-1.3717,0,0,.5708-7.2675,.5543-7.0562Z" style="fill:#263238;"></path></g><path d="M71.5379,287.9051h17.1483v87.9237c0,2.66856-2.16654,4.8351-4.8351,4.8351h-7.478c-2.66862,0-4.8352-2.16658-4.8352-4.8352v-87.9236h0Z" style="fill:#407BFF;"></path></g><g id="freepik--Character--inject-2"><g><path d="M187.0551,391.7304c-14.7665-27.0289-11.7996-57.2017,6.6144-67.2457,18.4139-10.044,45.4021,3.7699,60.155,30.7852,14.753,27.0154,11.7861,57.1881-6.6279,67.2321-18.4004,10.0577-45.3749-3.7426-60.1415-30.7716Zm2.0143-1.0343c14.0316,25.6952,39.5227,39.0055,56.8207,29.4787,17.298-9.5268,19.9927-38.0937,5.961-63.8025-14.0316-25.7088-39.5227-38.9239-56.80709-29.4787-17.3524,9.4451-20.0063,38.1073-5.9746,63.8025Z" style="fill:#263238;"></path><path d="M183.7752,393.1186c14.0316,25.7088,39.4683,38.951,56.7254,29.5331,17.2572-9.4179,19.8702-37.9984,5.8386-63.6936-14.0317-25.6952-39.4819-38.9375-56.739-29.5195-17.2028,9.418-19.8567,37.9711-5.825,63.68Zm4.9403-4.0829c-2.478-4.6857-4.3965-9.6465-5.7161-14.7802l23.1366,1.6468c.30589,1.0182,.69269,2.0103,1.15679,2.9669l-18.6181,10.1665h.0408Zm-6.2468-17.1891c-.9992-4.4912-1.3929-9.0959-1.1705-13.6915l24.0212,12.766c.0161,.8624,.0979,1.7223,.245,2.5722l-23.1366-1.6467h.0409Zm-.8983-16.0867c.4092-4.0412,1.5969-7.965,3.4977-11.5547l21.0543,22.1158c-.26539,.6901-.457,1.4063-.5716,2.1368l-24.0212-12.698,.0408,.0001Zm11.7996-19.9247l14.97079,27.4236c-.4434,.3435-.8373,.7465-1.1705,1.1976l-20.9998-22.0613c1.7764-2.679,4.171-4.8915,6.9818-6.451l.2177-.1089Zm1.919-.871c3.22429-1.2492,6.70469-1.693,10.13929-1.293l6.5735,28.2402c-.6079,.0336-1.2082,.1527-1.7829,.3539l-14.9707-27.3011h.0408Zm12.37129-.9663c3.6955,.7367,7.2479,2.0649,10.5203,3.9332l-2.0687,24.7969c-.6298-.276-1.2865-.4858-1.9598-.626l-6.5326-28.1041h.0408Zm12.6434,5.1989c3.7708,2.422,7.2268,5.302,10.2891,8.5742l-10.1801,17.8423c-.67969-.632-1.4078-1.2099-2.1776-1.7284l2.0278-24.6881h.0408Zm12.0038,10.4115c3.0193,3.4813,5.682,7.2564,7.9482,11.2688l-16.4134,8.9552c-.5227-.8443-1.1001-1.6535-1.7284-2.4225l10.1529-17.8015h.0407Zm14.4536,26.8247l-20.53709-1.497c-.30841-1.013-.69531-2.0004-1.15691-2.9533l16.4134-8.9688c2.2207,4.2778,3.9904,8.7751,5.2806,13.4191Zm.66691,2.409c1.00409,4.1759,1.50219,8.4575,1.48339,12.7523l-21.8709-11.6771c-.0166-.8624-.09849-1.7223-.2449-2.5723l20.6323,1.4699,.00011,.0272Zm1.40179,15.1885c-.2003,3.9324-1.0654,7.8024-2.5587,11.4458l-20.0199-21.0135c.2654-.691,.4615-1.4068,.5852-2.1367l21.9525,11.6771,.0409,.0273Zm-3.525,13.4872c-1.5323,2.9172-3.7222,5.4379-6.3965,7.3629l-14.9027-27.3012c.4358-.3474,.8247-.75,1.1568-1.1976l20.10161,21.1087,.04079,.0272Zm-8.3019,8.5742c-2.975,1.6453-6.3178,2.5114-9.7174,2.5177l-6.8048-29.5875c.6071-.0303,1.2072-.1448,1.7828-.3403l14.9708,27.4101-.27229,.0272,.04089-.0272Zm-11.8813,2.368c-3.8761-.3983-7.648-1.4958-11.1328-3.2391l2.232-27.0697c.6335,.2661,1.2893,.4756,1.9598,.626l6.9001,29.6556,.0409,.0272Zm-13.2151-4.355c-4.1938-2.395-8.0363-5.3582-11.4186-8.8056l11.4322-20.0471c.6775,.6386,1.4058,1.2212,2.1776,1.742l-2.232,27.0834,.0408,.0273Zm-13.0926-10.5884c-3.4197-3.7716-6.4095-7.9117-8.9143-12.3441l18.6317-10.1665c.5194,.8465,1.097,1.656,1.7284,2.4226l-11.4866,20.0607,.0408,.0273Z" style="fill:#263238;"></path><path d="M238.24139,423.9038c-17.6383,9.6358-43.4151-3.416-57.4468-29.1248-14.0316-25.7088-11.0919-54.4662,6.5463-64.0883,17.6382-9.6221,43.4151,3.4433,57.4468,29.1385,14.0316,25.6952,11.0919,54.4389-6.5463,64.0746Zm.939-61.0124c-12.0718-22.1159-33.7385-33.6433-48.2873-25.6952-14.5489,7.9481-16.5631,32.4048-4.4912,54.5206,12.0718,22.1158,33.7385,33.6433,48.2873,25.6952,14.5489-7.9481,16.5631-32.4048,4.4913-54.5206h-.0001Z" style="fill:#263238;"></path><path d="M238.24139,423.9038c-17.6383,9.6358-43.4151-3.416-57.4468-29.1248-14.0316-25.7088-11.0919-54.4662,6.5463-64.0883,17.6382-9.6221,43.4151,3.4433,57.4468,29.1385,14.0316,25.6952,11.0919,54.4389-6.5463,64.0746Zm.939-61.0124c-12.0718-22.1159-33.7385-33.6433-48.2873-25.6952-14.5489,7.9481-16.5631,32.4048-4.4912,54.5206,12.0718,22.1158,33.7385,33.6433,48.2873,25.6952,14.5489-7.9481,16.5631-32.4048,4.4913-54.5206h-.0001Z" style="fill:#263238;"></path><g style="opacity:.2;"><path d="M238.24139,423.9038c-17.6383,9.6358-43.4151-3.416-57.4468-29.1248-14.0316-25.7088-11.0919-54.4662,6.5463-64.0883,17.6382-9.6221,43.4151,3.4433,57.4468,29.1385,14.0316,25.6952,11.0919,54.4389-6.5463,64.0746Zm.939-61.0124c-12.0718-22.1159-33.7385-33.6433-48.2873-25.6952-14.5489,7.9481-16.5631,32.4048-4.4912,54.5206,12.0718,22.1158,33.7385,33.6433,48.2873,25.6952,14.5489-7.9481,16.5631-32.4048,4.4913-54.5206h-.0001Z" style="fill:#fff;"></path><path d="M238.24139,423.9038c-17.6383,9.6358-43.4151-3.416-57.4468-29.1248-14.0316-25.7088-11.0919-54.4662,6.5463-64.0883,17.6382-9.6221,43.4151,3.4433,57.4468,29.1385,14.0316,25.6952,11.0919,54.4389-6.5463,64.0746Zm.939-61.0124c-12.0718-22.1159-33.7385-33.6433-48.2873-25.6952-14.5489,7.9481-16.5631,32.4048-4.4912,54.5206,12.0718,22.1158,33.7385,33.6433,48.2873,25.6952,14.5489-7.9481,16.5631-32.4048,4.4913-54.5206h-.0001Z" style="fill:#fff;"></path></g><path d="M174.5886,398.1271c11.9357,21.8708,31.8876,35.29,49.5803,35.29,5.22311,.039,10.3719-1.2389,14.9707-3.7155,20.1152-10.8878,23.8579-42.966,8.37-71.3014-11.9493-21.8573-31.88759-35.2765-49.5803-35.2765v-.0953c-5.2251-.0556-10.3779,1.2233-14.9707,3.7155-20.1288,10.9831-23.8715,43.0068-8.37,71.3832Zm11.9357-64.7417c3.5021-1.8874,7.427-2.8522,11.405-2.8036v.0545c15.46071,0,32.7314,12.5481,42.9796,31.3024,6.764,12.3848,9.6629,25.7904,8.3019,37.7534-1.2793,11.0103-6.138,19.3667-13.67779,23.4496-3.49711,1.8874-7.41761,2.8523-11.39131,2.8036-15.4879,0-32.7451-12.5754-42.9933-31.316-13.283-24.3887-10.8196-52.4112,5.3759-61.2439Z" style="fill:#263238;"></path></g><g><path d="M148.4851,346.6005h55.8c-11.05109-41.5369-53.45909-39.3866-53.45909-39.3866l-2.3409,39.3866Z" style="fill:#407BFF;"></path><path d="M148.4851,346.6005h55.8c-11.05109-41.5369-53.45909-39.3866-53.45909-39.3866l-2.3409,39.3866Z" style="isolation:isolate; opacity:.4;"></path></g><g><path d="M88.4253,347.9071l2.9805-52.3431c.0749-1.2849,.7978-2.4437,1.919-3.0758,13.8411-7.6759,40.7204-3.1167,52.9691-.3947,3.6728,.8005,6.2907,4.053,6.2877,7.812v31.1255c0,9.8534,4.3552,15.5151,4.3552,15.5151l-68.5115,1.361Z" style="fill:#407BFF;"></path><path d="M88.4253,347.9071l2.9805-52.3431c.0749-1.2849,.7978-2.4437,1.919-3.0758,13.8411-7.6759,40.7204-3.1167,52.9691-.3947,3.6728,.8005,6.2907,4.053,6.2877,7.812v31.1255c0,9.8534,4.3552,15.5151,4.3552,15.5151l-68.5115,1.361Z" style="isolation:isolate; opacity:.4;"></path></g><path d="M90.6165,310.7866l-2.2729,33.7386h56.9704c.2784-.0017,.5543-.052,.8154-.1485,1.2409-.4585,1.8752-1.8361,1.4166-3.077-11.0647-29.642-42.7346-33.4255-53.2549-33.8474-1.9215-.0557-3.5438,1.4165-3.6746,3.3343Z" style="isolation:isolate; opacity:.3;"></path><path d="M89.8271,388.8724v-42.3263c.0863-1.1095,.9677-1.9909,2.0772-2.0772,1.244-.0968,2.3309,.8332,2.4276,2.0772v42.3263c.0369,6.6907,5.4358,12.1139,12.1263,12.1807h42.5577c6.0777-.0075,11.0027-4.9326,11.0103-11.0103v-43.5512c.0863-1.1094,.9677-1.9908,2.0771-2.0771,1.244-.0968,2.3309,.8332,2.4277,2.0771v43.5512c-.0075,8.5657-6.9495,15.5076-15.5151,15.5151h-42.5577c-9.1939-.03-16.6311-7.4916-16.6311-16.6855Z" style="fill:#263238;"></path><path d="M248.544,420.5422c-1.74211-1.1568-6.47831-.871-8.16591-.6668l-.02409,.0028c-.40381,.0414-.76471-.2523-.80611-.6561l-.0015-.012c-.0489-.4105,.2443-.7829,.6548-.8318,.6669-.0817,6.66881-.7622,9.1321,.9254l.0178,.0119c.3338,.2309,.4172,.6887,.1864,1.0225-.141,.2066-.3759,.3292-.6261,.3266-.13039-.0113-.2563-.0532-.36739-.1225Z" style="fill:#263238;"></path><path d="M237.41119,429.0892c0,4.9675,3.3071,9.0504,7.3901,9.0504s7.3901-4.0829,7.3901-9.0504-3.3072-9.0505-7.3901-9.0505c-4.06929,0-7.3901,4.0829-7.3901,9.0505Z" style="fill:#263238;"></path><path d="M240.65029,429.0892c0-3.103,1.8918-5.825,4.151-5.825s4.1509,2.6676,4.1509,5.825-1.8917,5.8113-4.1509,5.8113c-2.2456,0-4.151-2.7083-4.151-5.8113Z" style="fill:#fff; isolation:isolate; opacity:.2;"></path><path d="M245.82279,429.58c-.0004,.9921-.8051,1.7961-1.7973,1.7956h0c-.7617,.0057-1.44149-.4767-1.6876-1.1976l-3.8515-10.8878h7.33561v10.2345l.00079,.0553Z" style="fill:#263238;"></path><path d="M245.82279,429.58c-.0004,.9921-.8051,1.7961-1.7973,1.7956h0c-.7617,.0057-1.44149-.4767-1.6876-1.1976l-3.8515-10.8878h7.33561v10.2345l.00079,.0553Z" style="fill:#fff; isolation:isolate; opacity:.6;"></path><path d="M102.9333,346.5461c0-2.8173,.7213-5.2262,4.3007-6.0019,3.5794-.7758,89.661-.558,93.74389,0,4.0829,.558,3.3072,6.0019,3.3072,6.0019H102.9333Z" style="fill:#407BFF;"></path><path d="M102.9333,346.5461c0-2.8173,.7213-5.2262,4.3007-6.0019,3.5794-.7758,89.661-.558,93.74389,0,4.0829,.558,3.3072,6.0019,3.3072,6.0019H102.9333Z" style="isolation:isolate; opacity:.3;"></path><rect x="91.2425" y="372.3774" width="123.86229" height="7.0906" style="fill:#263238;"></rect><rect x="91.2425" y="372.3774" width="123.86229" height="7.0906" style="fill:#fff; isolation:isolate; opacity:.2;"></rect><rect x="91.2425" y="372.3774" width="123.86229" height="7.0906" style="isolation:isolate; opacity:.2;"></rect><path d="M220.01789,415.6427c-9.5404-13.1742-12.52089-44.1228-13.4464-61.3935-.131-3.0406-2.6319-5.4395-5.6753-5.4439H100.4971c-.1166,.0091-.2338,.0091-.3504,0-1.244-.0968-2.174-1.1837-2.0772-2.4277,.0968-1.2439,1.1837-2.1739,2.4276-2.0771h100.4536c5.4186-.0005,9.8907,4.2383,10.1801,9.6493,.7213,13.5145,3.4024,46.3003,12.589,58.9982,.9453,1.2428,2.4264,1.9607,3.9876,1.9326h22.8644c.1167-.0091,.2338-.0091,.3505,0,1.244,.0968,2.1739,1.1837,2.0772,2.4277-.0968,1.2439-1.1837,2.1739-2.4277,2.0771h-22.8644c-3.01439,.0552-5.8732-1.3362-7.6895-3.7427Z" style="fill:#263238;"></path><path d="M220.01789,415.6427c-9.5404-13.1742-12.52089-44.1228-13.4464-61.3935-.131-3.0406-2.6319-5.4395-5.6753-5.4439H100.4971c-.1166,.0091-.2338,.0091-.3504,0-1.244-.0968-2.174-1.1837-2.0772-2.4277,.0968-1.2439,1.1837-2.1739,2.4276-2.0771h100.4536c5.4186-.0005,9.8907,4.2383,10.1801,9.6493,.7213,13.5145,3.4024,46.3003,12.589,58.9982,.9453,1.2428,2.4264,1.9607,3.9876,1.9326h22.8644c.1167-.0091,.2338-.0091,.3505,0,1.244,.0968,2.1739,1.1837,2.0772,2.4277-.0968,1.2439-1.1837,2.1739-2.4277,2.0771h-22.8644c-3.01439,.0552-5.8732-1.3362-7.6895-3.7427Z" style="fill:#fff; isolation:isolate; opacity:.4;"></path><path d="M90.6165,310.5346l-2.2729,33.7386h56.9704c.2784-.0017,.5543-.0519,.8155-.1484,1.2409-.4586,1.8751-1.8362,1.4165-3.0771-11.0919-29.6148-42.6529-33.4119-53.2141-33.8338-1.9348-.0858-3.5843,1.3885-3.7154,3.3207Z" style="fill:#407BFF;"></path><path d="M177.3106,429.0892c0,4.9675,3.3207,9.0504,7.39,9.0504s7.3901-4.0829,7.3901-9.0504-3.3071-9.0505-7.3901-9.0505-7.39,4.0829-7.39,9.0505Z" style="fill:#263238;"></path><path d="M180.6177,429.0892c0-3.103,1.8373-5.825,4.0829-5.825s4.151,2.6676,4.151,5.825-1.9054,5.8113-4.151,5.8113c-2.2592,0-4.0829-2.7083-4.0829-5.8113Z" style="fill:#fff; isolation:isolate; opacity:.2;"></path><path d="M185.7086,429.58c-.0004,.9922-.8052,1.7961-1.7973,1.7956h0c-.7591-.0026-1.4346-.482-1.6876-1.1976l-3.838-10.8878h7.3221v10.2345l.0008,.0553Z" style="fill:#263238;"></path><path d="M185.7086,429.58c-.0004,.9922-.8052,1.7961-1.7973,1.7956h0c-.7591-.0026-1.4346-.482-1.6876-1.1976l-3.838-10.8878h7.3221v10.2345l.0008,.0553Z" style="fill:#fff; isolation:isolate; opacity:.6;"></path><path d="M158.3658,415.6427c-9.5404-13.1742-12.521-44.1228-13.4464-61.3935-.1242-3.0437-2.6291-5.4465-5.6753-5.4439h-52.3295c-.1167,.0091-.2338,.0091-.3505,0-1.2439-.0968-2.1739-1.1837-2.0771-2.4277,.0967-1.2439,1.1836-2.1739,2.4276-2.0771h52.3703c5.4187-.0005,9.8908,4.2383,10.1801,9.6493,.7213,13.5145,3.4025,46.3003,12.589,58.9982,.9453,1.2428,2.4264,1.9607,3.9877,1.9326h68.0487c1.1095,.0863,1.9909,.9677,2.0772,2.0772,.0968,1.244-.8332,2.3309-2.0772,2.4276h-68.0487c-3.0098,.0508-5.8624-1.3401-7.6759-3.7427Z" style="fill:#263238;"></path><path d="M158.3658,415.6427c-9.5404-13.1742-12.521-44.1228-13.4464-61.3935-.1242-3.0437-2.6291-5.4465-5.6753-5.4439h-52.3295c-.1167,.0091-.2338,.0091-.3505,0-1.2439-.0968-2.1739-1.1837-2.0771-2.4277,.0967-1.2439,1.1836-2.1739,2.4276-2.0771h52.3703c5.4187-.0005,9.8908,4.2383,10.1801,9.6493,.7213,13.5145,3.4025,46.3003,12.589,58.9982,.9453,1.2428,2.4264,1.9607,3.9877,1.9326h68.0487c1.1095,.0863,1.9909,.9677,2.0772,2.0772,.0968,1.244-.8332,2.3309-2.0772,2.4276h-68.0487c-3.0098,.0508-5.8624-1.3401-7.6759-3.7427Z" style="fill:#fff; isolation:isolate; opacity:.4;"></path><g><path d="M222.38539,303.4198c-10.3979-5.4294-37.2772-7.6537-46.5862-8.2891-1.5223-.103-2.5736-.1599-3.0107-.1822l-17.9074-2.1888-3.4297-3.9741c-18.1962-.3811-38.7688,4.9346-38.7688,4.9346,0,0-9.4505,35.0236,1.3556,42.6042,4.8043,3.3616,14.1447,2.7787,23.5354,2.806,4.6273,0,14.5259-.085,14.5259-.085l5.4383,.1072,45.2631-9.0697c-1.0207,7.032,11.8557,82.8553,11.8557,82.8553l10.281-1.5911s6.0083-103.465-2.5522-107.9273Z" style="fill:#263238;"></path><path d="M112.1595,295.8124s10.2508,2.4955,21.6368-.2905c11.386-2.7859,18.8409-5.3624,18.8409-5.3624l-1.1858-1.3739c-11.5944-.2904-24.7962,1.7607-38.7688,4.9346l-.5231,2.0922Z" style="isolation:isolate; opacity:.2;"></path><path d="M229.72109,403.7835c-1.2087-.1785-2.398-.4701-3.5522-.871h-.0952c-.0301-.0258-.0535-.0585-.0681-.0953v-.068c-.0133-.049-.0133-.1007,0-.1497,.0272-.1225,.6941-2.8853,2.1639-3.7019,.4507-.2625,.9959-.3075,1.48351-.1224,.558,.1769,.85739,.4763,.85739,.871,.0409,.6124-.7077,1.3065-1.5787,1.9054,.84431-.2465,1.7415-.2465,2.5858,0,.3173,.1374,.5703,.3904,.7077,.7076,.2173,.4076,.1576,.9073-.1497,1.2522-.7101,.422-1.5667,.521-2.3544,.2721Zm1.5651-1.6739c-1.3813-.181-2.7857,.0263-4.0557,.5988,1.7692,.5307,3.9332,.9254,4.4231,.4219,0-.0408,.1633-.1769,0-.6125-.0703-.1654-.202-.2971-.3674-.3674v-.0408Zm-1.8237-2.7356c-.3263-.1262-.6923-.0961-.99349,.0816-.84691,.6969-1.44011,1.6536-1.68771,2.722,1.6196-.8302,3.1303-1.8917,3.1303-2.4225-.01359-.1497-.2858-.3267-.4491-.3267v-.0544Z" style="fill:#263238;"></path><path d="M216.71009,417.1891l18.904-2.0959c7.635-.8574,10.9967-5.3894,3.9876-6.2332-7.009-.8438-14.8482-7.2268-14.8482-7.2268,0,0-11.5138,.5444-11.4322,1.4835,.8438,9.6765-2.0414,14.6713,3.3888,14.0724Z" style="fill:#263238;"></path><path d="M145.8646,299.7438c6.1323-.0136,12.2595,.3546,18.346,1.1024,4.4992,.5296,8.9591,1.3525,13.3511,2.4634,5.4766,1.2306,10.6684,3.4938,15.2974,6.6687,2.7491,2.0687,4.8722,11.1328,5.9066,21.0543-10.1852,1.8865-20.4604,3.2492-30.7852,4.0829-.5663,.5573-1.1812,1.0629-1.8374,1.5107l-8.2611,1.361-6.5463,1.0343s-3.2527,.1089-7.88,.1089c-1.7848-.8458-3.2841-2.1938-4.3143-3.8788,1.6172-11.9456,3.8614-23.7979,6.7232-35.5078Z" style="isolation:isolate; opacity:.2;"></path><polygon points="226.78979 336.1655 206.23139 359.1858 209.48859 380.386 226.66419 363.5414 226.78979 336.1655" style="fill:#407BFF;"></polygon><polygon points="226.69969 367.4772 209.89059 383.9313 210.497 387.7122 226.59529 371.5501 226.69969 367.4772" style="fill:#407BFF;"></polygon></g><g><path d="M190.5386,318.7134c5.0084,6.383,1.0752,18.101-5.3486,19.6933-9.663,2.4225-41.0607,1.6196-47.2531-2.545-8.3564-5.6208-5.6753-35.0587,4.7634-35.4942,25.3278-1.0207,42.8299,11.9629,47.8383,18.3459Z" style="fill:#263238;"></path><g><path d="M182.468,310.4251s9.4043,3.7835,11.2961,9.7038c2.4497,7.6623-.5036,16.1819-5.825,18.2779-5.3214,2.0959-15.0524,1.742-15.0524,1.742-1.6059,.5308-6.2604-3.6202-5.5255-12.0446,.7349-8.4245,6.7777-17.8152,12.0038-18.8087,1.1618-.2038,2.3441,.2267,3.103,1.1296Z" style="fill:#407BFF;"></path><path d="M182.468,310.4251s9.4043,3.7835,11.2961,9.7038c2.4497,7.6623-.5036,16.1819-5.825,18.2779-5.3214,2.0959-15.0524,1.742-15.0524,1.742-1.6059,.5308-6.2604-3.6202-5.5255-12.0446,.7349-8.4245,6.7777-17.8152,12.0038-18.8087,1.1618-.2038,2.3441,.2267,3.103,1.1296Z" style="fill:#fff; isolation:isolate; opacity:.7;"></path><path d="M171.0903,325.1644c-2.8309,8.9144,2.1094,14.2494,2.1094,14.2494-1.8476-4.2448-2.2446-8.9803-1.1295-13.4736,1.8509-7.5942,9.5268-15.0388,9.5268-15.0388-4.831,3.6154-8.4863,8.5774-10.5067,14.263Z" style="isolation:isolate; opacity:.1;"></path><path d="M182.713,331.806c-.0206,2.6048-1.2097,5.0628-3.2391,6.696,3.0077-.7757,4.5184-4.2326,4.5184-9.8943s-5.9066-7.8664-5.9066-7.8664c3.729,2.232,4.9812,6.2469,4.6273,11.0647Z" style="isolation:isolate; opacity:.1;"></path><path d="M189.3001,318.1146c1.5924,2.0414,2.8036,7.7984,3.1983,11.2008,.2735,1.8776-.0856,3.7929-1.0207,5.4439,3.5521-3.661,1.0751-10.5203,0-14.7121-1.0752-4.1918-6.2197-6.1924-6.2197-6.1924,1.4479,1.321,2.7987,2.7447,4.0421,4.2598Z" style="isolation:isolate; opacity:.1;"></path></g></g><g><path d="M115.7761,322.0732c-22.0245-6.2947-47.1918,13.8868-56.0587,44.9873-8.8669,31.1005,1.8427,61.4719,23.8629,67.8093,22.0203,6.3375,47.1846-13.8573,56.0648-44.9608,8.8891-31.0636-1.8444-61.5412-23.869-67.8358Zm19.6455,47.1775c-.0583,5.8363-.8346,11.6434-2.3114,17.2901l-.987-.2937c-.2187,.8863-.4508,1.7757-.7021,2.6415l.9382,.2629c-1.6232,5.3816-3.8818,10.5506-6.7279,15.3977l-.5509-.5873c-.4701,.7616-.9222,1.6029-1.4189,2.3706l.5287,.5505c-2.8954,4.5223-6.4241,8.6064-10.4784,12.1274l-.2665-.749c-.6713,.6117-1.3679,1.1732-2.0704,1.7083l.2472,.7255c-3.4813,2.7122-7.4316,4.7612-11.654,6.0447l-.0006-.6835c-.8125,.2947-1.6224,.4772-2.4455,.6628l.0019,.6274c-3.8387,.7949-7.8121,.657-11.5864-.4021l-.2423-.0849,.0364-.1478c-.3648-.0712-.6868-.1381-1.1064-.2668-.4197-.1286-.8231-.247-1.2354-.4051-17.5477-5.9922-25.9394-30.8452-18.6791-56.1985,3.9939-13.9724,11.9283-25.3171,21.282-31.9734l-.0239-.1062c3.2245-2.7991,6.8794-5.0597,10.8239-6.6946l.0072,1.3935c.8231-.1855,1.6463-.371,2.4694-.5566l-.0138-1.671c3.8047-1.2074,7.8379-1.5146,11.7817-.8975l-.7891,2.689c.4242,.0743,.8431,.1756,1.2542,.3033,.3576,.1008,.7314,.2119,1.0817,.3422l.7621-2.8086c.0813,.0182,.1614,.0421,.2393,.0716,3.5725,1.0478,6.8554,2.905,9.5939,5.4272l-1.6438,2.6724c.6113,.5458,1.2183,1.1345,1.7885,1.7454l1.6468-2.6592c3.0936,3.3997,5.4953,7.3696,7.0707,11.6878l-1.9659,1.615c.3345,.8035,.6618,1.6366,.9522,2.4919l1.9085-1.5602c1.4997,4.9079,2.3274,9.9964,2.4606,15.1265l-1.6048,.4315c.0604,.949,.1118,1.8582,.1072,2.766l1.5222-.4267Z" style="fill:#263238;"></path><path d="M115.7761,322.0732c-22.0245-6.2947-47.1918,13.8868-56.0587,44.9873-8.8669,31.1005,1.8427,61.4719,23.8629,67.8093,22.0203,6.3375,47.1846-13.8573,56.0648-44.9608,8.8891-31.0636-1.8444-61.5412-23.869-67.8358Zm19.6455,47.1775c-.0583,5.8363-.8346,11.6434-2.3114,17.2901l-.987-.2937c-.2187,.8863-.4508,1.7757-.7021,2.6415l.9382,.2629c-1.6232,5.3816-3.8818,10.5506-6.7279,15.3977l-.5509-.5873c-.4701,.7616-.9222,1.6029-1.4189,2.3706l.5287,.5505c-2.8954,4.5223-6.4241,8.6064-10.4784,12.1274l-.2665-.749c-.6713,.6117-1.3679,1.1732-2.0704,1.7083l.2472,.7255c-3.4813,2.7122-7.4316,4.7612-11.654,6.0447l-.0006-.6835c-.8125,.2947-1.6224,.4772-2.4455,.6628l.0019,.6274c-3.8387,.7949-7.8121,.657-11.5864-.4021l-.2423-.0849,.0364-.1478c-.3648-.0712-.6868-.1381-1.1064-.2668-.4197-.1286-.8231-.247-1.2354-.4051-17.5477-5.9922-25.9394-30.8452-18.6791-56.1985,3.9939-13.9724,11.9283-25.3171,21.282-31.9734l-.0239-.1062c3.2245-2.7991,6.8794-5.0597,10.8239-6.6946l.0072,1.3935c.8231-.1855,1.6463-.371,2.4694-.5566l-.0138-1.671c3.8047-1.2074,7.8379-1.5146,11.7817-.8975l-.7891,2.689c.4242,.0743,.8431,.1756,1.2542,.3033,.3576,.1008,.7314,.2119,1.0817,.3422l.7621-2.8086c.0813,.0182,.1614,.0421,.2393,.0716,3.5725,1.0478,6.8554,2.905,9.5939,5.4272l-1.6438,2.6724c.6113,.5458,1.2183,1.1345,1.7885,1.7454l1.6468-2.6592c3.0936,3.3997,5.4953,7.3696,7.0707,11.6878l-1.9659,1.615c.3345,.8035,.6618,1.6366,.9522,2.4919l1.9085-1.5602c1.4997,4.9079,2.3274,9.9964,2.4606,15.1265l-1.6048,.4315c.0604,.949,.1118,1.8582,.1072,2.766l1.5222-.4267Z" style="isolation:isolate; opacity:.2;"></path><path d="M62.7079,367.949c8.0387-28.1515,30.3062-46.5912,49.6343-41.0561,19.3282,5.5351,28.5158,32.9292,20.4771,61.0807-8.0388,28.1516-30.2591,46.5527-49.6374,41.0429-19.3252-5.5219-28.5128-32.9159-20.474-61.0675Zm6.1522,1.7943c-6.9271,24.2318,.4403,47.6973,16.3687,52.199,15.9283,4.5017,34.5243-11.534,41.4382-35.7629,6.9139-24.2289-.4283-47.6443-16.3686-52.199-15.9314-4.515-34.5111,11.531-41.4383,35.7629Z" style="fill:#263238;"></path><path d="M62.7079,367.949c8.0387-28.1515,30.3062-46.5912,49.6343-41.0561,19.3282,5.5351,28.5158,32.9292,20.4771,61.0807-8.0388,28.1516-30.2591,46.5527-49.6374,41.0429-19.3252-5.5219-28.5128-32.9159-20.474-61.0675Zm6.1522,1.7943c-6.9271,24.2318,.4403,47.6973,16.3687,52.199,15.9283,4.5017,34.5243-11.534,41.4382-35.7629,6.9139-24.2289-.4283-47.6443-16.3686-52.199-15.9314-4.515-34.5111,11.531-41.4383,35.7629Z" style="fill:#263238;"></path><g style="opacity:.2;"><path d="M62.7079,367.949c8.0387-28.1515,30.3062-46.5912,49.6343-41.0561,19.3282,5.5351,28.5158,32.9292,20.4771,61.0807-8.0388,28.1516-30.2591,46.5527-49.6374,41.0429-19.3252-5.5219-28.5128-32.9159-20.474-61.0675Zm6.1522,1.7943c-6.9271,24.2318,.4403,47.6973,16.3687,52.199,15.9283,4.5017,34.5243-11.534,41.4382-35.7629,6.9139-24.2289-.4283-47.6443-16.3686-52.199-15.9314-4.515-34.5111,11.531-41.4383,35.7629Z" style="fill:#fff;"></path><path d="M62.7079,367.949c8.0387-28.1515,30.3062-46.5912,49.6343-41.0561,19.3282,5.5351,28.5158,32.9292,20.4771,61.0807-8.0388,28.1516-30.2591,46.5527-49.6374,41.0429-19.3252-5.5219-28.5128-32.9159-20.474-61.0675Zm6.1522,1.7943c-6.9271,24.2318,.4403,47.6973,16.3687,52.199,15.9283,4.5017,34.5243-11.534,41.4382-35.7629,6.9139-24.2289-.4283-47.6443-16.3686-52.199-15.9314-4.515-34.5111,11.531-41.4383,35.7629Z" style="fill:#fff;"></path></g><path d="M109.8099,326.1802c-18.9055-5.3932-40.8081,13.1177-48.8469,41.2692-8.0388,28.1515,.7677,55.4641,19.6866,60.8543,18.9188,5.3902,40.8082-13.1177,48.8572-41.2855,8.0388-28.1516-.7913-55.4448-19.6969-60.838Zm14.0328,57.9292l-20.3978-5.8242c.2362-1.0364,.3954-2.0888,.4762-3.1486l22.2084-6.6935c-.1469,5.2936-.9144,10.5516-2.2868,15.6663Zm.3666-31.7377c1.2301,4.4343,1.8542,9.0149,1.8552,13.6167l-22.2083,6.6935c-.0434-.8615-.1526-1.7184-.3266-2.5632l20.6797-17.747h0Zm-.686-2.3008l-20.5898,17.7128c-.2709-.6896-.62-1.3459-1.0407-1.9558l15.6899-26.2068c2.6333,3.0692,4.6503,6.6171,5.9406,10.4498Zm-15.6952-16.7754c3.0906,.8975,5.9185,2.5289,8.2426,4.7551l-15.6354,26.1387c-.4271-.363-.8994-.6692-1.4051-.911l8.5749-30.0442,.223,.0614Zm-12.4885,.4848c3.2735-1.1582,6.7816-1.4937,10.2153-.9769l-8.5354,29.9096c-.6049-.0684-1.2164-.0526-1.8171,.0468l.2036-28.9944-.0664,.0149Zm-11.5037,6.9595c2.7968-2.5512,5.9886-4.6322,9.4512-6.162l-.1936,28.8527c-.6259,.2848-1.2205,.6339-1.7742,1.0416l-7.4436-23.7413-.0398,.009Zm-9.9715,12.334c2.2877-3.8786,5.0533-7.4547,8.2317-10.6445l7.4064,23.6381c-.637,.6751-1.2202,1.399-1.7443,2.1649l-13.854-15.1674-.0398,.0089Zm-6.5448,14.91c1.3337-4.4234,3.1138-8.6996,5.3128-12.7628l13.8184,15.1336c-.4439,.8883-.8292,1.8047-1.1535,2.7433l-17.9379-5.123-.0398,.0089Zm-2.9393,16.6086c.254-4.8199,1.0094-9.6003,2.254-14.2638l18.0294,5.1582c-.2454,1.0318-.41,2.0811-.4924,3.1384l-19.7512,5.9583-.0398,.0089Zm-.0648,2.4979l19.791-5.9672c.0416,.8614,.1552,1.7178,.3399,2.5602l-18.7773,16.1602c-.9605-4.1814-1.415-8.4632-1.3536-12.7532Zm1.9689,15.1118l18.8479-16.2181c.2812,.6849,.6298,1.34,1.0407,1.9558l-14.876,24.8655c-2.2635-3.2226-3.9589-6.8087-5.0126-10.6032Zm6.4041,12.3822l14.9686-25.0118c.4224,.3636,.8903,.6708,1.3919,.914l-8.5354,29.9097c-3.0235-1.3047-5.7024-3.2943-7.8251-5.8119Zm19.9756,6.7983c-3.2833,.7626-6.7053,.6897-9.9531-.2121l-.2128-.0776,8.5778-30.0309c.6046,.0641,1.2151,.0439,1.8141-.0601l-.226,30.3807h0Zm12.2279-6.1601c-3.0237,2.4718-6.4712,4.3738-10.1747,5.6136l.205-30.4736c.621-.2941,1.2147-.6427,1.7742-1.0416l8.1956,25.9017-.0001-.0001Zm10.9891-12.6471c-2.5299,4.101-5.6134,7.8334-9.1633,11.0917l-8.1513-25.9535c.6384-.6778,1.2207-1.4062,1.7412-2.1782l15.5735,17.04h-.0001Zm7.2558-16.0887c-1.4637,4.8659-3.4678,9.5527-5.9749,13.9724l-15.5897-17.0503c.4519-.8873,.8418-1.8049,1.1668-2.7462l20.3978,5.8242v-.0001Z" style="fill:#263238;"></path><path d="M109.8099,326.1802c-18.9055-5.3932-40.8081,13.1177-48.8469,41.2692-8.0388,28.1515,.7677,55.4641,19.6866,60.8543,18.9188,5.3902,40.8082-13.1177,48.8572-41.2855,8.0388-28.1516-.7913-55.4448-19.6969-60.838Zm14.0328,57.9292l-20.3978-5.8242c.2362-1.0364,.3954-2.0888,.4762-3.1486l22.2084-6.6935c-.1469,5.2936-.9144,10.5516-2.2868,15.6663Zm.3666-31.7377c1.2301,4.4343,1.8542,9.0149,1.8552,13.6167l-22.2083,6.6935c-.0434-.8615-.1526-1.7184-.3266-2.5632l20.6797-17.747h0Zm-.686-2.3008l-20.5898,17.7128c-.2709-.6896-.62-1.3459-1.0407-1.9558l15.6899-26.2068c2.6333,3.0692,4.6503,6.6171,5.9406,10.4498Zm-15.6952-16.7754c3.0906,.8975,5.9185,2.5289,8.2426,4.7551l-15.6354,26.1387c-.4271-.363-.8994-.6692-1.4051-.911l8.5749-30.0442,.223,.0614Zm-12.4885,.4848c3.2735-1.1582,6.7816-1.4937,10.2153-.9769l-8.5354,29.9096c-.6049-.0684-1.2164-.0526-1.8171,.0468l.2036-28.9944-.0664,.0149Zm-11.5037,6.9595c2.7968-2.5512,5.9886-4.6322,9.4512-6.162l-.1936,28.8527c-.6259,.2848-1.2205,.6339-1.7742,1.0416l-7.4436-23.7413-.0398,.009Zm-9.9715,12.334c2.2877-3.8786,5.0533-7.4547,8.2317-10.6445l7.4064,23.6381c-.637,.6751-1.2202,1.399-1.7443,2.1649l-13.854-15.1674-.0398,.0089Zm-6.5448,14.91c1.3337-4.4234,3.1138-8.6996,5.3128-12.7628l13.8184,15.1336c-.4439,.8883-.8292,1.8047-1.1535,2.7433l-17.9379-5.123-.0398,.0089Zm-2.9393,16.6086c.254-4.8199,1.0094-9.6003,2.254-14.2638l18.0294,5.1582c-.2454,1.0318-.41,2.0811-.4924,3.1384l-19.7512,5.9583-.0398,.0089Zm-.0648,2.4979l19.791-5.9672c.0416,.8614,.1552,1.7178,.3399,2.5602l-18.7773,16.1602c-.9605-4.1814-1.415-8.4632-1.3536-12.7532Zm1.9689,15.1118l18.8479-16.2181c.2812,.6849,.6298,1.34,1.0407,1.9558l-14.876,24.8655c-2.2635-3.2226-3.9589-6.8087-5.0126-10.6032Zm6.4041,12.3822l14.9686-25.0118c.4224,.3636,.8903,.6708,1.3919,.914l-8.5354,29.9097c-3.0235-1.3047-5.7024-3.2943-7.8251-5.8119Zm19.9756,6.7983c-3.2833,.7626-6.7053,.6897-9.9531-.2121l-.2128-.0776,8.5778-30.0309c.6046,.0641,1.2151,.0439,1.8141-.0601l-.226,30.3807h0Zm12.2279-6.1601c-3.0237,2.4718-6.4712,4.3738-10.1747,5.6136l.205-30.4736c.621-.2941,1.2147-.6427,1.7742-1.0416l8.1956,25.9017-.0001-.0001Zm10.9891-12.6471c-2.5299,4.101-5.6134,7.8334-9.1633,11.0917l-8.1513-25.9535c.6384-.6778,1.2207-1.4062,1.7412-2.1782l15.5735,17.04h-.0001Zm7.2558-16.0887c-1.4637,4.8659-3.4678,9.5527-5.9749,13.9724l-15.5897-17.0503c.4519-.8873,.8418-1.8049,1.1668-2.7462l20.3978,5.8242v-.0001Z" style="fill:#fff; isolation:isolate; opacity:.2;"></path><path d="M98.4682,378.6117c-1.4607,5.1563-5.6828,8.5214-9.31,7.4695-3.6272-1.052-5.3917-6.0952-3.934-11.2648s5.6562-8.5155,9.31-7.4695c3.667,1.043,5.3947,6.1085,3.934,11.2648Z" style="fill:#fff; isolation:isolate; opacity:.4;"></path><path d="M64.5182,368.6153l.002-.0059c.1328-.3915-.0769-.8165-.4684-.9493l-9.6629-3.3189h0c-.3925-.135-.8201,.0738-.9551,.4664-.135,.3925,.0738,.8202,.4664,.9551l9.6628,3.319c.131,.0516,.2744,.063,.412,.0327,.2561-.0594,.4623-.2489,.5432-.4991Z" style="fill:#263238;"></path><path d="M72.3923,428.0023c1.4451-1.5115,6.1283-2.2741,7.8194-2.446,.4141-.0432,.7147-.4139,.6715-.8279-.0433-.414-.414-.7147-.828-.6714-.6818,.07-6.6732,.7227-8.7185,2.9137-.2761,.3026-.2576,.771,.0415,1.0509,.1817,.1728,.4391,.2411,.6826,.181,.1247-.0397,.2383-.1083,.3315-.2003Z" style="fill:#263238;"></path><path d="M128.5116,386.9356l.0108-.0299c.1213-.3636-.0751-.7568-.4387-.8782l-3.1861-1.1374c-.3733-.1341-.785,.0584-.9213,.4309l-.0028,.0081c-.1251,.3702,.0737,.7719,.444,.897l3.186,1.1374c.1268,.0465,.2645,.0543,.3957,.0224,.2392-.0475,.4346-.2193,.5124-.4503Z" style="fill:#263238;"></path><g style="opacity:.4;"><path d="M64.5182,368.6153l.002-.0059c.1328-.3915-.0769-.8165-.4684-.9493l-9.6629-3.3189h0c-.3925-.135-.8201,.0738-.9551,.4664-.135,.3925,.0738,.8202,.4664,.9551l9.6628,3.319c.131,.0516,.2744,.063,.412,.0327,.2561-.0594,.4623-.2489,.5432-.4991Z" style="fill:#fff;"></path><path d="M106.7594,329.8532c.2586-.041,.477-.2141,.5758-.4566,.1562-.3828-.0276-.8197-.4104-.9758-1.9938-1.0509-3.6339-2.6658-4.7156-4.6431-.176-.3789-.6243-.5454-1.005-.3734l-.0078,.0036c-.373,.1784-.5307,.6254-.3523,.9983,1.2156,2.2887,3.0955,4.1558,5.3924,5.3556,.1567,.0747,.3328,.0985,.5036,.0679l.0193,.0235Z" style="fill:#fff;"></path><path d="M72.3923,428.0023c1.4451-1.5115,6.1283-2.2741,7.8194-2.446,.4141-.0432,.7147-.4139,.6715-.8279-.0433-.414-.414-.7147-.828-.6714-.6818,.07-6.6732,.7227-8.7185,2.9137-.2761,.3026-.2576,.771,.0415,1.0509,.1817,.1728,.4391,.2411,.6826,.181,.1247-.0397,.2383-.1083,.3315-.2003Z" style="fill:#fff;"></path><path d="M128.5116,386.9356l.0108-.0299c.1213-.3636-.0751-.7568-.4387-.8782l-3.1861-1.1374c-.3733-.1341-.785,.0584-.9213,.4309l-.0028,.0081c-.1251,.3702,.0737,.7719,.444,.897l3.186,1.1374c.1268,.0465,.2645,.0543,.3957,.0224,.2392-.0475,.4346-.2193,.5124-.4503Z" style="fill:#fff;"></path></g><path d="M74.1376,429.6179c-20.1777-5.7761-29.7104-34.5155-21.2479-64.1297,8.4625-29.6142,31.747-49.0504,51.9144-43.258,20.1674,5.7924,29.6868,34.5347,21.2376,64.1459-8.4372,29.6644-31.7264,49.0179-51.9041,43.2418Zm49.657-43.8653c8.0755-28.1738-.7442-55.4834-19.7487-60.8822-19.0045-5.3988-40.9101,13.0988-48.9489,41.2504-8.0387,28.1515,.784,55.4744,19.7885,60.8732,19.0045,5.3988,40.9101-13.0989,48.9489-41.2504l-.0398,.009Z" style="fill:#263238;"></path><path d="M74.1376,429.6179c-20.1777-5.7761-29.7104-34.5155-21.2479-64.1297,8.4625-29.6142,31.747-49.0504,51.9144-43.258,20.1674,5.7924,29.6868,34.5347,21.2376,64.1459-8.4372,29.6644-31.7264,49.0179-51.9041,43.2418Zm49.657-43.8653c8.0755-28.1738-.7442-55.4834-19.7487-60.8822-19.0045-5.3988-40.9101,13.0988-48.9489,41.2504-8.0387,28.1515,.784,55.4744,19.7885,60.8732,19.0045,5.3988,40.9101-13.0989,48.9489-41.2504l-.0398,.009Z" style="fill:#fff; isolation:isolate; opacity:.6;"></path></g><path d="M88.6861,287.9051v2.3394s15.9458-3.2955,12.792,17.6051l8.4908,1.6478s6.0781-26.736-21.2828-21.5923Z" style="fill:#263238;"></path></g><g><g><path d="M115.0881,219.3492c-.3978-1.7544-1.1042-3.4205-1.7314-5.1065-1.7282-4.6462-2.8712-9.5097-3.3935-14.4393l-2.6342-2.7513c-2.5563-1.7169-6.1948-1.4201-8.6421,.4488-2.4473,1.869-3.6877,5.0887-3.4609,8.1596,.1145,1.5512,.5567,3.1783-.0457,4.6122-.5021,1.1946-1.6392,1.9969-2.7945,2.5837-1.1555,.5867-2.3984,1.0337-3.4205,1.8302-1.0223,.7965-1.8093,2.0672-1.5796,3.3425,.2207,1.2247,1.3459,2.1395,2.555,2.4331s2.484,.0712,3.6807-.2702c-1.7229,1.7482-1.5573,4.84,.0425,6.7012,1.5999,1.8613,4.2869,2.5449,6.7095,2.151,2.4225-.3939,4.6025-1.7311,6.4527-3.3438,.4908,1.7307,2.5069,2.7584,4.2758,2.4309,1.769-.3274,3.1951-1.7792,3.826-3.4639,.6309-1.6848,.5579-3.5637,.1602-5.3182Z" style="fill:#263238;"></path><g><g><g><path d="M114.2915,214.4398l12.2964,7.688,3.1819,1.0173c-.2755,1.6255-.4509,3.2734-.3321,4.8018,.1771,2.7036,1.1806,2.8033,4.0474,4.1564l.7297,12.4151c-6.0228-3.1358-19.2424-11.3806-19.2424-11.3806,4.3776-4.8666,1.9031-12.8173-.6809-18.698Z" style="fill:#ffb5af;"></path><path d="M129.4914,228.5369c-3.1145-.9786-6.7751-3.0863-7.1726-6.3857-.1586-1.3912-.1688-2.7425-.038-3.6409l7.2805,6.0415c-.1766,1.2917-.1588,2.1139-.0699,3.9851Z" style="opacity:.2;"></path><path d="M109.705,203.7891c3.3389,9.9883,4.5385,14.2751,11.0669,18.3876,9.8198,6.186,21.3728,.6072,21.0891-10.0058-.2553-9.5524-5.6724-24.2819-16.7046-26.2125-10.8691-1.9021-18.7902,7.8422-15.4514,17.8307Z" style="fill:#ffb5af;"></path><path d="M123.7102,203.7982c.3045,1.0684,1.0981,1.8175,1.773,1.6732,.6744-.1441,.9743-1.1269,.6699-2.1952s-1.0982-1.8175-1.7729-1.6733c-.6745,.1442-.9744,1.127-.67,2.1953Z" style="fill:#263238;"></path><path d="M133.7705,201.3974c.2973,1.0346,1.0834,1.757,1.7561,1.6135,.6725-.1439,.9769-1.099,.6796-2.1338-.2973-1.0345-1.0835-1.757-1.7561-1.6134-.6727,.1435-.9768,1.0988-.6796,2.1337Z" style="fill:#263238;"></path><path d="M120.6942,200.5377c.1335-.0161,.2566-.085,.3355-.202,1.2298-1.8264,3.1211-1.7323,3.143-1.7309,.2804,.0147,.511-.1965,.5081-.4783-.0037-.2815-.2363-.5233-.5211-.5413-.0991-.0055-2.4732-.1262-3.999,2.141-.1519,.2261-.0809,.5461,.1589,.7147,.1157,.0805,.2496,.1119,.3746,.0968Z" style="fill:#263238;"></path><path d="M135.9502,195.4772c.0947-.0588,.1625-.1555,.1811-.278,.0385-.2531-.1444-.52-.4076-.5961-2.6423-.7621-4.1371,.6421-4.1997,.7035-.1765,.1704-.1578,.4719,.0423,.6737,.1994,.2017,.5038,.2271,.6808,.0582,.0577-.0559,1.2352-1.1256,3.3362-.519,.1358,.0391,.2668,.0199,.3669-.0423Z" style="fill:#263238;"></path><path d="M130.9146,201.5445s2.4968,3.4453,4.8593,5.403c.413,.3422,.3613,.9958-.0861,1.2914-1.1513,.7608-2.7254,.6883-2.7254,.6883l-2.0478-7.3827Z" style="fill:#ff726e;"></path></g><path d="M124.0063,201.7382l2.2126-1.1052s-.8697,2.0488-2.2126,1.1052Z" style="fill:#263238;"></path><path d="M134.2148,199.3445l2.2127-1.1053s-.8699,2.0491-2.2127,1.1053Z" style="fill:#263238;"></path><path d="M114.1286,206.2804s3.3995-9.1665,1.6167-15.5218c0,0,9.7133-5.2942,20.0282,3.8445,1.7686,1.567,2.6084,3.5125,3.6657,5.5638,0,0-.53-19.0902-19.0818-16.7023-17.6093,2.2667-17.8494,27.0198-4.9563,33.6164,0,0-3.3657-5.0729-1.2725-10.8006Z" style="fill:#263238;"></path><path d="M108.5754,212.6354c1.6987,1.8099,3.9676,2.6633,5.8704,2.6908,2.8616,.0414,3.2341-4.6317,1.6744-7.1218-1.4044-2.2416-4.4393-3.2295-6.944-2.079-2.4676,1.1336-2.5432,4.4407-.6008,6.51Z" style="fill:#ffb5af;"></path></g><path d="M128.7733,210.5063c-.0918,.0275-.1764,.0807-.2421,.1588-.1773,.2103-.1484,.5207,.0655,.6928,2.1453,1.7266,4.3596,1.0484,4.4629,1.0306,.2653-.0828,.4139-.3595,.3318-.6183-.082-.2581-.3615-.4009-.6258-.3215-.0911,.0319-1.8037,.5328-3.5256-.853-.1348-.1086-.3108-.1363-.4667-.0894Z" style="fill:#263238;"></path><path d="M114.97217,211.09131c-.09961,0-.19385-.06006-.23242-.1582-.32617-.82422-.87256-1.55273-1.58105-2.10693-.45947-.36035-1.1665-.81348-2.0083-.76709-.74072,.01611-1.43262,.45361-1.64502,1.04053-.04639,.13037-.19141,.19775-.31982,.1499-.12988-.04688-.19727-.18994-.1499-.31982,.28418-.78662,1.14941-1.3501,2.104-1.37061,.98779-.02246,1.80322,.46338,2.32764,.87354,.77783,.60889,1.37891,1.41016,1.7373,2.31689,.05078,.12842-.01221,.27344-.14062,.32422-.02979,.01221-.06104,.01758-.0918,.01758Z" style="opacity:.2;"></path></g><g><path d="M114.8701,194.6775c-4.7845,4.3116-7.3795,12.7591-7.3795,12.7591l-.629-2.324c1.4672-4.2088,3.462-8.1685,6.2452-11.5509,0,0,6.5478-3.1958,1.7633,1.1158Z" style="fill:#407BFF;"></path><path d="M113.0778,196.6122s-1.8579-5.7859-1.6152-8.0287c.2428-2.2428,.8014-2.519,.8014-2.519,3.2397-3.0736,7.4963-4.8488,11.9598-4.9878,3.4297,1.0614,6.7977,2.3125,10.0886,3.7475-10.1286,1.0816-21.2346,11.788-21.2346,11.788Z" style="fill:#407BFF;"></path><path d="M124.1865,185.7386c4.9469-3.184,18.6957-7.4009,23.1057-5.4095h0c.7431,.2705,1.2622,.947,1.331,1.7348,.4069,5.2739-10.5938,11.1047-10.5938,11.1047-.8512-1.0529-1.8463-1.9808-2.9563-2.7561-8.5507-1.7117-16.163,2.5577-20.2661,5.5731-.1957,.1395-.3657,.3039-.5364,.4177-.8406,.6214-1.6435,1.2923-2.4044,2.0091l-.2602,.2366s1.9532-6.0865,12.5805-12.9104Z" style="fill:#407BFF;"></path><path d="M124.1865,185.7386c4.9469-3.184,18.6957-7.4009,23.1057-5.4095h0c.7431,.2705,1.2622,.947,1.331,1.7348,.4069,5.2739-10.5938,11.1047-10.5938,11.1047-.8512-1.0529-1.8463-1.9808-2.9563-2.7561-8.5507-1.7117-16.163,2.5577-20.2661,5.5731-.1957,.1395-.3657,.3039-.5364,.4177-.8406,.6214-1.6435,1.2923-2.4044,2.0091l-.2602,.2366s1.9532-6.0865,12.5805-12.9104Z" style="isolation:isolate; opacity:.2;"></path><path d="M124.1559,185.7288c4.947-3.184,18.6957-7.4009,23.1057-5.4094-11.597,.0428-26.1303,10.5835-32.4546,15.6662-.1957,.1395-.3657,.3039-.5364,.4177-1.1623,.9584-1.9887,1.6538-2.4044,2.0091l-.2602,.2366s1.9532-6.0865,12.5499-12.9202Z" style="fill:#407BFF;"></path></g><path d="M114.97217,192.1709c-.02881,0-.05762-.00977-.08154-.03027-.05225-.04492-.05811-.12354-.01318-.17627,2.64453-3.08154,9.41748-6.70508,14.87354-9.06836,.0625-.02734,.13672,.00195,.16455,.06494,.02734,.06348-.00146,.13721-.06494,.16455-5.43066,2.35254-12.1665,5.95264-14.78369,9.00195-.02441,.02881-.05957,.04346-.09473,.04346Z" style="fill:#263238;"></path></g><g><path d="M99.5422,247.1316c.3686,.5529,11.2735,24.8402,11.4578,32.9492,.1842,8.1091-1.1058,14.1909-1.1058,14.1909l44.5997-6.0818s-.204-42.5725-10.5246-56.5791h-11.5909s-3.8148,4.448-22.4288-.1594l-10.4074,15.6802Z" style="fill:#407BFF;"></path><path d="M66.7688,211.2463c-.8441,.413-6.8578,3.9882-1.4744,13.085,7.3427,12.4077,34.8662,22.9925,34.893,22.9507,.0267-.0419,10.0754-15.7631,10.0754-15.7631,0,0-32.7168-7.0033-28.7985-8.662,3.9184-1.6586,20.8737-.5528,20.8737-.5528l-.1843-8.9216s-26.723-6.3751-35.3849-2.1362Z" style="fill:#407BFF;"></path><path d="M143.7427,231.5551s10.343,2.6322,23.4846,3.0509c13.1417,.4186,46.8475-1.6087,46.8475-1.6087,0,0,.4868,9.0053,0,9.0053-.4867,0-52.5312,14.9255-64.6767,8.9789,0,0-4.882-19.4264-5.6554-19.4264Z" style="fill:#407BFF;"></path><path d="M148.9957,242.833l14.8824,9.3097s-6.742,1.4213-12.6807-.5022l-2.2017-8.8075Z" style="opacity:.2;"></path><path d="M103.4635,256.1039s10.2193,10.2886,14.5264,21.9265c4.3072,11.638,3.6182,14.6439,3.6182,14.6439l-11.7139,1.5974s1.3849-8.8281,1.1681-13.2057c-.4419-8.9209-7.5988-24.9621-7.5988-24.9621Z" style="fill:#fff; isolation:isolate; opacity:.7;"></path><path d="M152.13135,257.82227c-.12939,0-.23926-.10059-.24902-.23145-.34668-4.78027-2.7168-14.25488-5.14062-18.85205-.06445-.12207-.01758-.27344,.10449-.33789,.12158-.06396,.27295-.01807,.33789,.10449,2.45068,4.64844,4.84717,14.22217,5.19727,19.04834,.00977,.13867-.09375,.25781-.23145,.26758l-.01855,.00098Z" style="fill:#263238;"></path><path d="M185.0099,234.3818s2.474,3.3476,12.7996,3.5968c10.3257,.2491,16.762-2.1624,16.4059-1.7984-.3562,.364-.1406-3.1829-.1406-3.1829l-29.0649,1.3845Z" style="fill:#fff; isolation:isolate; opacity:.7;"></path><path d="M78.106,209.8344s5.4871,4.1778,11.5434,5.4921c6.0562,1.3142,12.5807,1.7545,12.5807,1.7545l-.0764-3.6985s-19.6026-4.379-24.0477-3.5481Z" style="fill:#fff; isolation:isolate; opacity:.7;"></path></g><path d="M117.3608,226.6619s1.8757,1.6463,1.2605,3.268c-.3809,1.0042-2.3337,1.2844-2.3337,1.2844,.2156,.1183,1.2811-3.8853,1.0732-4.5524Z" style="opacity:.2;"></path><path d="M123.4786,217.1758s1.4951,6.1185,.3433,7.579c-1.1519,1.4606-3.9332,1.5576-5.2717,.5657-1.3386-.9919,.4636-2.2124,.4636-2.2124,0,0-2.8237-.7626-.6387-2.8399,0,0-2.2126-1.3391-.0415-2.6632,2.1509-1.3119,4.2029-1.777,5.145-.4292Z" style="fill:#ffb5af;"></path><g><path d="M120.8597,214.754c-2.9779-1.3614-18.3389-1.0309-18.5942-.7757v7.8812c.0852,.1823,3.6187,4.1261,8.0987,4.7217,4.48,.5957,4.5394,2.893,5.9008,3.6126,1.3614,.7196,2.808-.3792,2.0421-1.9108-.7659-1.5316-5.0203-4.3395-4.4245-5.0202,.5956-.6807,4.4783,.2239,4.4783,.2239,0,0-.0538,.2866-.7345,1.4779-.6806,1.1912,3.5737,1.3614,5.5308,.6807s.6807-9.5299-2.2975-10.8913Z" style="fill:#ffb5af;"></path><path d="M102.3129,214.1812c3.95622-.43771,7.98193-.59303,11.95479-.30978,1.90431,.13577,3.83668,.36285,5.66545,.93405,1.2788,.39942,2.86196,1.04566,3.32849,2.43014,.09199,.273,.52677,.15589,.43393-.11963-.98105-2.91137-5.59859-3.31992-8.11484-3.58082-4.39191-.45537-8.88512-.28887-13.26782,.19603-.28469,.0315-.28789,.48185,0,.45h0Z" style="fill:#ff726e;"></path></g><g><path d="M229.02539,226.5037c-.3813-.344-.9121-.4632-1.422-.5255-2.8198-.3448-5.6836,.6916-7.9789,2.3654s-3.8949,3.6629-5.4832,6.0182l.2782,5.5114c2.1248,.7408,5.5608,.275,7.5388-.798,1.978-1.0729,3.4701-3.0051,4.008-5.1902,.6264-.0499,1.30871-.3103,1.5569-.8875,.2482-.5772-.2914-1.4051-.8858-1.2012,.6063-.1792,1.2579-.3895,1.6259-.9036s.2181-1.4182-.4009-1.5473c.647-.051,1.26461-.4598,1.5235-1.0548,.2588-.595,.1213-1.3522-.3605-1.7869Z" style="fill:#ffb5af;"></path><g><path d="M237.52349,224.1337c-8.2811-21.6769,2.1919-41.4053,2.1919-41.4053-3.8969-21.4333-23.6253-21.1897-23.6253-21.1897l-.2352,1.2861c25.5738,3.8969,10.4647,27.2104,10.4647,27.2104,2.192,6.0891,.2435,12.1781,.2435,12.1781,.0065,.0217-9.4094,18.5939-2.7986,35.9958,5.9117,15.5617,2.5551,21.9716,2.5551,21.9716,0,0,6.3326,4.3841,6.3326,15.1008s-16.5621,13.6394-16.5621,13.6394c21.1896-.7307,23.6253-21.4334,23.6253-21.4334-14.3701-24.3561-2.1919-43.3538-2.1919-43.3538Zm-4.4842-50.6641s4.1699,6.9261,3.2511,8.9051c-.9189,1.9789-4.8767,.7067-4.8767,.7067,.1415-.1413,2.3324-5.5834,1.6256-9.6118Zm-1.371,12.1171c1.1308-.2826,2.7462,.6126,2.1035,3.251-.6427,2.6385-5.2671,5.2299-5.2671,5.2299l-.4172-3.9578s2.4502-4.2404,3.5808-4.5231Zm1.03671,15.454c-.09431,.8481-3.86351-4.6645-3.86351-4.6645,0,0,3.91051-3.4865,4.4288-3.0154,.5182,.4712-.4712,6.8318-.56529,7.6799Zm-9.36851,24.189c-.876-14.8194,4.356-19.6042,4.356-19.6042,3.2243-.9827,5.2621,15.2815,5.8278,16.8097,.5658,1.5281,0,2.6564,0,2.6564-2.3762,5.296-3.3946,17.3484-4.9787,19.1544s-4.3293-4.197-5.2051-19.0163Zm8.447,38.8093c-.4241-.212-3.3218-4.5939-3.5338-4.5939,0,0,.77731-3.8165,.636-4.0285-.1414-.2121,3.4095,2.0599,4.571,4.3215s-1.2492,4.5129-1.6732,4.3009Zm5.5832,3.1097c.9189,1.9789-3.251,8.9051-3.251,8.9051,.7068-4.0285-1.4841-9.4705-1.6256-9.6119,0,0,3.9578-1.2721,4.8766,.7068Zm-3.5966-10.8718c.101,.0161-4.2654-1.7473-4.9674-2.262-.7018-.5146,2.6671-4.4918,3.1817-4.6322,0,0,1.6845,6.8782,1.7857,6.8942Z" style="fill:#407BFF;"></path><path d="M215.85498,168.49658c-3.83643,0-6.95801-3.12158-6.95801-6.95801s3.12158-6.95801,6.95801-6.95801,6.95801,3.12158,6.95801,6.95801-3.12158,6.95801-6.95801,6.95801Zm0-12.91602c-3.28516,0-5.95801,2.67285-5.95801,5.95801s2.67285,5.95801,5.95801,5.95801,5.95801-2.67285,5.95801-5.95801-2.67285-5.95801-5.95801-5.95801Z" style="fill:#407BFF;"></path><path d="M215.85498,294.92871c-3.83643,0-6.95801-3.12109-6.95801-6.95801s3.12158-6.95801,6.95801-6.95801,6.95801,3.12109,6.95801,6.95801-3.12158,6.95801-6.95801,6.95801Zm0-12.91602c-3.28516,0-5.95801,2.67285-5.95801,5.95801s2.67285,5.95801,5.95801,5.95801,5.95801-2.67285,5.95801-5.95801-2.67285-5.95801-5.95801-5.95801Z" style="fill:#407BFF;"></path><rect x="218.92519" y="214.8103" width="25.3303" height="2.3138" style="fill:#263238;"></rect><rect x="241.09309" y="210.4863" width="1.6475" height="14.2206" style="fill:#263238;"></rect><path d="M203.86426,260.22754c-.27637,0-.5-.22363-.5-.5,0-.29199,0-.73438,29.06201-25.9209,.20898-.18018,.52393-.15869,.70557,.05029,.18066,.20898,.1582,.52441-.05029,.70557-11.11035,9.62842-27.84717,24.25488-28.77051,25.38965-.08203,.16309-.25146,.27539-.44678,.27539Z" style="fill:#263238;"></path><path d="M307.33594,232.69141h-.00195l-74.58154-.22461c-.27637-.00098-.49951-.22559-.49854-.50146s.22461-.49854,.5-.49854h.00146l74.58252,.22461c.27539,.00098,.49902,.22559,.49805,.50146s-.22461,.49854-.5,.49854Z" style="fill:#263238;"></path></g><g style="isolation:isolate; opacity:.2;"><path d="M228.50839,226.8066c-.3635-.503-1.1198-.4423-1.7257-.3078-1.32769,.2946-2.6332,.6891-3.902,1.179-.6645,.2566-1.3319,.5474-1.8638,1.0213-.5787,.5155-1.8986,2.4305-2.2668,3.1124-.4849,.8982-.7775,1.653-1.2624,2.5512l.9014,3.6159c2.0174-.513,4.2878-1.4205,5.1538-3.3133,.4722-1.032-.0008-2.5651-.192-3.2017,0,0,1.564-1.8052,2.5948-2.2797,.6207-.2856,1.3341-.3437,1.9297-.6786,.5954-.3349,1.0332-1.145,.633-1.6987Z"></path></g><path d="M214.14129,234.0919c.6973-1.0471,1.142-1.94,1.8393-2.9871,.5293-.7948,2.3668-2.9945,3.13541-3.5613,.70669-.521,1.55859-.8019,2.40329-1.0412,1.6125-.4569,3.2594-.7925,4.922-1.003,.75871-.096,1.69371-.0845,2.0825,.574,.42821,.7249-.2011,1.6692-.9699,2.0124s-1.65089,.3333-2.44489,.6132c-1.31911,.465-3.44331,2.5023-3.44331,2.5023,.1622,.8029,.56831,2.7379-.1285,3.9506-1.278,2.224-4.584,4.1255-7.1176,4.5255" style="fill:#ffb5af;"></path><path d="M215.85498,288.2207c-.04785,0-.0957-.01367-.13818-.04199l-94.41016-62.52441c-1.38867-.91943-2.19482-2.46289-2.15625-4.12793,.03906-1.66553,.91553-3.16943,2.34521-4.02344l93.67822-55.95996c.11865-.07031,.27197-.03271,.34326,.08643,.0708,.11865,.03174,.27246-.08643,.34326l-93.67822,55.95996c-1.28174,.76514-2.06738,2.11279-2.10205,3.60498-.03467,1.49268,.68799,2.87549,1.93262,3.69971l94.41016,62.52539c.11475,.07617,.14648,.23047,.07031,.3457-.04834,.07324-.12744,.1123-.2085,.1123Z" style="fill:#263238;"></path><path d="M218.52529,161.5385c0,1.4749-1.1955,2.6705-2.6704,2.6705-1.4748,0-2.6704-1.1956-2.6704-2.6705,0-1.4748,1.1956-2.6704,2.6704-2.6704,1.4749,0,2.6704,1.1956,2.6704,2.6704Z" style="fill:#407BFF;"></path><rect x="304.56179" y="230.6549" width="4.7001" height="3.5299" style="fill:#263238;"></rect><rect x="200.97908" y="258.35031" width="4.70014" height="3.52988" transform="translate(-124.37553 219.96141) rotate(-45)" style="fill:#263238;"></rect><circle cx="215.85489" cy="287.9711" r="2.6704" style="fill:#407BFF;"></circle></g><g><path d="M126.2312,221.7213s.2795-3.8751,2.2038-4.1172c1.9243-.2421,13.9586,3.8253,13.9586,3.8253l-16.1624,.2919Z" style="fill:#407BFF;"></path><path d="M126.2312,222.446s.2795,3.8752,2.2038,4.1173c1.9243,.2421,13.9586-3.8254,13.9586-3.8254l-16.1624-.2919Z" style="fill:#407BFF;"></path><g><path d="M124.2578,221.4294h132.3071l3.6592,.5834s-2.7444,.4133-3.2932,.6713c-.54889,.2579-132.6731,0-132.6731,0v-1.2547Z" style="fill:#263238;"></path><path d="M124.2578,221.4294h132.3071l3.6592,.5834s-2.7444,.4133-3.2932,.6713c-.54889,.2579-132.6731,0-132.6731,0v-1.2547Z" style="fill:#fff; isolation:isolate; opacity:.7;"></path></g><polygon points="160.3122 222.7987 162.5656 221.4294 175.8868 221.4294 173.9648 222.7564 160.3122 222.7987" style="fill:#263238;"></polygon><path d="M176.3975,222.7598l1.9072-1.3304s6.5692,0,6.4421,0-1.2715,1.3304-1.2715,1.3304c0,0-7.2898,0-7.0778,0Z" style="fill:#263238;"></path></g><path d="M117.2819,218.3659s-.871,.8473-.3626,1.6945l.5083,.8473s-.8825,1.7433-.1457,2.3608c.7368,.6176,1.079,.2182,1.079,.2182,0,0-.9199-.5942-.743-1.403,.1769-.8089,1.1653-1.7038,1.1089-1.6376-.0565,.0662-1.0231,.009-1.1329-.6402s-.2139-1.2956-.2139-1.2956" style="opacity:.2;"></path><g><g><path d="M118.4311,223.4109c-.4431,.082-.7577,.8429-.6487,1.2801s.4999,.7605,.9258,.9075c.4259,.1471,.8869,.1464,1.3374,.1359,.819-.0192,1.6407-.0663,2.4442-.226,.436-.0866,.89-.2206,1.1902-.5484,.3943-.4305,.4215-1.0732,.412-1.6569-.0207-1.2621-.1115-2.523-.2718-3.775-.1146-.8946,.1095-1.5714-.3416-2.3523" style="fill:#ffb5af;"></path><path d="M118.37128,223.19394c-.79567,.22538-1.04871,1.36212-.6002,1.99052,.69696,.97648,2.13619,.80341,3.17545,.7382,1.02523-.06433,2.59377-.09345,3.1339-1.15241,.22881-.4486,.24259-.97477,.23656-1.46715-.00874-.71314-.04582-1.42665-.10218-2.13754-.06176-.77904-.20089-1.55765-.20845-2.33944-.00607-.62795-.03092-1.19802-.33349-1.76388-.1366-.25548-.52521-.02844-.38856,.22712,.28695,.53665,.26065,1.08226,.27353,1.67107,.01373,.62744,.12376,1.25215,.17937,1.87701,.05837,.65596,.09777,1.31363,.11811,1.97187,.0177,.57298,.09617,1.26546-.19279,1.78712-.31616,.57077-1.04955,.67576-1.63577,.76554-.67929,.10403-1.36996,.13696-2.05641,.14891-.62167,.01082-1.36063-.00362-1.78764-.53083-.30359-.37484-.23432-1.19851,.3082-1.35218,.27818-.0788,.15995-.51312-.11963-.43393h0Z" style="fill:#ff726e;"></path></g><g><path d="M121.1396,222.9383c-.7073,.0728-1.4147,.1457-2.122,.2185-.3574,.0368-.7407,.0686-1.0549-.1055-.4117-.2282-.5778-.7744-.4548-1.2287s.4828-.8151,.8938-1.0444c.411-.2294,.874-.3452,1.3308-.4585,.6724-.1669,1.3448-.3337,2.0172-.5006" style="fill:#ffb5af;"></path><path d="M121.1396,222.7133c-.80072,.08242-1.60774,.20188-2.41164,.24306-.33492,.01716-.68875-.01996-.88933-.32196-.16407-.24702-.18381-.56858-.08501-.84345,.24527-.68241,1.00196-.97785,1.64188-1.1525,.79954-.21822,1.60965-.40274,2.41402-.60239,.28091-.06973,.16192-.50381-.11963-.43393-.74457,.18481-1.49072,.36424-2.23381,.55489-.61503,.1578-1.24496,.3673-1.70211,.8298-.3991,.40376-.61978,.98044-.45315,1.54084,.17997,.60526,.70923,.8915,1.31792,.88243,.4048-.00604,.81264-.07089,1.21502-.11233,.43528-.04483,.87057-.08966,1.30585-.13447,.28525-.02936,.28827-.47967,0-.45h0Z" style="fill:#ff726e;"></path></g><g><path d="M123.1012,217.081c-1.1148,.1257-3.9826,.2445-4.9964,.725-.276,.1308-.5563,.2826-.7349,.5303-.3098,.4295-.2189,1.0648,.1226,1.4696,.3414,.4048,1.5361,.8278,4.2572,.0132" style="fill:#ffb5af;"></path><path d="M123.1012,216.856c-.83089,.09178-1.66641,.1371-2.49777,.22536-.81948,.087-1.70546,.15657-2.47576,.47096-.4423,.18052-.89781,.44981-1.08076,.91441-.18343,.46581-.07659,1.01321,.21708,1.40973,.28349,.38276,.7691,.52848,1.22179,.59115,1.10959,.15362,2.2659-.11893,3.32373-.43155,.2771-.08189,.15913-.51631-.11963-.43393-.89197,.26361-1.82583,.48547-2.76251,.45379-.3886-.01314-.89054-.07239-1.18651-.32029-.28448-.23826-.40391-.69469-.29778-1.04498,.12629-.4168,.60557-.64442,.99059-.77362,.71765-.24081,1.49759-.31587,2.24638-.39373,.80596-.0838,1.6158-.12836,2.42115-.21732,.2847-.03145,.2879-.4818,0-.45h0Z" style="fill:#ff726e;"></path></g></g></g></g></g></svg>
