<svg xmlns="http://www.w3.org/2000/svg" viewBox="0 0 500 500"><g id="background-simple"><path d="M311.74,39.89s-78.57-24.38-150,23.1S59.6,199.85,32.76,271.53,30.35,413.85,90.18,443.91s94.87-19.69,174.94-25.57S367.71,423.23,430.59,374,496.72,214.69,437.68,136,311.74,39.89,311.74,39.89Z" style="fill:#92E3A9"></path><path d="M311.74,39.89s-78.57-24.38-150,23.1S59.6,199.85,32.76,271.53,30.35,413.85,90.18,443.91s94.87-19.69,174.94-25.57S367.71,423.23,430.59,374,496.72,214.69,437.68,136,311.74,39.89,311.74,39.89Z" style="fill:#fff;opacity:0.7000000000000001"></path></g><g id="Shadow"><path d="M433.64,353.29c0-26.51-45.37-48-101.34-48a194,194,0,0,0-50,6.25c-17.89-7.82-39-12.34-61.61-12.34-64.59,0-117,36.84-117,82.28s52.37,82.29,117,82.29c54.89,0,100.94-26.6,113.54-62.49C389.3,400.8,433.64,379.5,433.64,353.29Z" style="fill:#263238;stroke:#263238;stroke-miterlimit:10"></path></g><g id="Leaves"><path d="M177.43,292.16s-35-20.21-49.75-24.88-48.19-13.21-53.63-4.66,6.22,28,17.1,34.2,23.62,4.29,32.65,9.33,12.44,15.55,12.44,15.55,3.88,2.33-31.1,0-38.09.77-59.08,24.87-37.31,49-12.44,63.75,77.74,3.1,87.07-.78,22.86-17,31-27.32,49.82-63.63,45.94-72.18S177.43,292.16,177.43,292.16Z" style="fill:#999;stroke:#263238;stroke-miterlimit:10"></path><path d="M99.26,365c35.62-23.26,61.06-33.8,63.24-34.16s17.81-8.36,22.9-11.63" style="fill:none;stroke:#263238;stroke-miterlimit:10"></path><path d="M47.26,393a342,342,0,0,0,48.2-25.51" style="fill:none;stroke:#263238;stroke-miterlimit:10"></path><path d="M34.2,398.08s2.4-.8,6.65-2.48" style="fill:none;stroke:#263238;stroke-miterlimit:10"></path><path d="M110.49,283.56q3.35,1.45,7.31,2.94c29.07,10.9,41.79,21.08,48,30.16" style="fill:none;stroke:#263238;stroke-miterlimit:10"></path><path d="M85.08,265.78s2.48,6.67,19.65,15.13" style="fill:none;stroke:#263238;stroke-miterlimit:10"></path><path d="M47.28,364.28s26.17,1.09,33.44,6.18" style="fill:none;stroke:#263238;stroke-miterlimit:10"></path><path d="M103.45,348.16c7.3,5,8.53,7.76,8.53,7.76" style="fill:none;stroke:#263238;stroke-miterlimit:10"></path><path d="M63.28,341.74s22.26-.55,33.91,3.2" style="fill:none;stroke:#263238;stroke-miterlimit:10"></path><path d="M62.59,406.5a54.58,54.58,0,0,1-5.86,3.57" style="fill:none;stroke:#263238;stroke-miterlimit:10"></path><path d="M86.54,376.64S82.18,388.27,73.82,397a71.49,71.49,0,0,1-5.93,5.5" style="fill:none;stroke:#263238;stroke-miterlimit:10"></path><path d="M117.07,361.37s-6.91,26.53-16,35.62L92,406.08" style="fill:none;stroke:#263238;stroke-miterlimit:10"></path><path d="M100,327.93s23.26,2.91,34.52,14.54" style="fill:none;stroke:#263238;stroke-miterlimit:10"></path><path d="M109.44,264.33s4.36,9.08,6.17,14.53a60.71,60.71,0,0,1,2.19,7.64" style="fill:none;stroke:#263238;stroke-miterlimit:10"></path><path d="M93.08,292s4.36,1.45,13.81.36,12-2.54,12-2.54" style="fill:none;stroke:#263238;stroke-miterlimit:10"></path><path d="M127.61,272.69s7.27,11.63,7.63,15.62l.37,4" style="fill:none;stroke:#263238;stroke-miterlimit:10"></path><path d="M133.79,298.13s-4.73,3.27-14.9,1.09" style="fill:none;stroke:#263238;stroke-miterlimit:10"></path><path d="M275.38,248.63S246.62,187.22,235,147.57s24.1-44.31,32.65-53.64c11.74-12.81,23.32,36.54,27.2,46.64s12.44,12.44,14.77-.77-2.33-36.54,31.88-43.53S402.09,111,406.75,125s3.89,15.54-.77,8.55-7-10.11-12.44-8.55-19.44,21-34.21,25.65-28.76,15.55-20.21,19.43S385,147.57,405.2,155.34s26.43,30.32,21,45.87-14,33.42-19.44,35.76-4.66-24.1-12.43-27.21-25.66-3.11-55.2,19.43S283.93,265,275.38,248.63Z" style="fill:#999;stroke:#263238;stroke-miterlimit:10"></path><path d="M243.51,114.92s1.55-7.77,10.11-1.55,11.66,24.87,14.76,16.32,7-17.88,4.67-29.54" style="fill:none;stroke:#263238;stroke-miterlimit:10"></path><path d="M296.37,196.25c4.09,9.41,7.77,17.4,7.77,17.4" style="fill:none;stroke:#263238;stroke-miterlimit:10"></path><path d="M270.72,142.91s13.21,22.54,18.65,36.53c1.08,2.78,2.32,5.8,3.6,8.87" style="fill:none;stroke:#263238;stroke-miterlimit:10"></path><path d="M333,152.33c-6.19,8.71-11.6,17-14.9,22.45-8.56,14-7.88,17.18-7.88,17.18" style="fill:none;stroke:#263238;stroke-miterlimit:10"></path><path d="M380.48,113.79A26.4,26.4,0,0,0,363.22,118c-7.67,5.12-17.91,17.47-27,29.9" style="fill:none;stroke:#263238;stroke-miterlimit:10"></path><path d="M392.76,117.25a27.56,27.56,0,0,0-3.48-1.5" style="fill:none;stroke:#263238;stroke-miterlimit:10"></path><path d="M333.67,125.59c-.47,5.78-.67,11.18-.09,13.86" style="fill:none;stroke:#263238;stroke-miterlimit:10"></path><path d="M336.21,104.19s-1.29,8.56-2.18,17.45" style="fill:none;stroke:#263238;stroke-miterlimit:10"></path><path d="M356.8,99s-5.34,17.66-5.75,26.29" style="fill:none;stroke:#263238;stroke-miterlimit:10"></path><path d="M366.18,129.75c6.65-.41,15-1.15,19.37-2.42" style="fill:none;stroke:#263238;stroke-miterlimit:10"></path><path d="M356.39,130.21s1.95-.05,4.89-.19" style="fill:none;stroke:#263238;stroke-miterlimit:10"></path><path d="M340,148.28s12.73,3.29,24.64-3.7" style="fill:none;stroke:#263238;stroke-miterlimit:10"></path><path d="M319.42,119.53s-7,17.25,1.23,42.31" style="fill:none;stroke:#263238;stroke-miterlimit:10"></path><path d="M283.68,116.65s-1.23,20.13-3.28,29.58l-.48,2.22" style="fill:none;stroke:#263238;stroke-miterlimit:10"></path><path d="M265.79,153.23a62.47,62.47,0,0,0,6,2.86" style="fill:none;stroke:#263238;stroke-miterlimit:10"></path><path d="M246.31,137.19a66,66,0,0,0,15.11,13.42" style="fill:none;stroke:#263238;stroke-miterlimit:10"></path><path d="M296.83,150.75s-2.05,13.14-9.45,20.53" style="fill:none;stroke:#263238;stroke-miterlimit:10"></path><path d="M282,172.51c-.41,1.24-10.27,9.45-32-6.16" style="fill:none;stroke:#263238;stroke-miterlimit:10"></path><path d="M302.58,165.12s3.29,12.32-6.57,26.29" style="fill:none;stroke:#263238;stroke-miterlimit:10"></path><path d="M329.28,203.73s25.05-11.5,50.11-18.89,32.86,14,31.63,23.41" style="fill:none;stroke:#263238;stroke-miterlimit:10"></path><path d="M401.57,160.6s-11.91,7.4-19.31,18.9" style="fill:none;stroke:#263238;stroke-miterlimit:10"></path><path d="M370.35,166.35a100.21,100.21,0,0,0-13.55,22.59" style="fill:none;stroke:#263238;stroke-miterlimit:10"></path><path d="M385.55,187.71s10.68,4.93,11.09,17.25" style="fill:none;stroke:#263238;stroke-miterlimit:10"></path><path d="M357.62,196.34s7,4.93,4.93,11.09" style="fill:none;stroke:#263238;stroke-miterlimit:10"></path></g><g id="fruit-2"><path d="M121.6,151.85s-4-16.86-10.86-22.59-8.42-10.16-9.27-13a75.53,75.53,0,0,0-3-7.51S86,90.62,81.15,86.28s-1.72-5.76,1.23-8.51,7.86-2.22,10,2.41,12.76,22.66,15.52,25.6,7.91,8,9.9,11.35a14.49,14.49,0,0,1,1.86,7.09s8.33,6.93,13.34,10.7a84.71,84.71,0,0,0,8.18,5.59Z" style="fill:#d6d6d6;stroke:#263238;stroke-miterlimit:10"></path><path d="M172,123.07s-31.57.5-51.66,21.89-24.87,51.66-20.64,85.26,32.56,62.65,55.84,77.66,71.47,33.61,99.65,14.57,41.3-42.89,29.12-104.67C267.79,134.17,193.62,123.4,172,123.07Z" style="fill:#92E3A9;stroke:#263238;stroke-miterlimit:10"></path><ellipse cx="159.77" cy="192.5" rx="35.56" ry="46.26" transform="matrix(0.65, -0.76, 0.76, 0.65, -90.38, 190.01)" style="fill:#fff;opacity:0.43"></ellipse></g><g id="fruit-1"><path d="M391.38,185.35s14.42-9.61,17.42-18,6.61-11.42,9-13.22a73.32,73.32,0,0,0,6-5.41s12.62-18,15-24,4.81-3.6,8.41-1.8,4.81,6.61,1.2,10.21-16.82,19.83-18.62,23.43-4.81,10.22-7.21,13.22a14.41,14.41,0,0,1-6,4.21s-3.6,10.21-5.41,16.22a87.42,87.42,0,0,0-2.4,9.61Z" style="fill:#d6d6d6;stroke:#263238;stroke-miterlimit:10"></path><path d="M435.84,222.6s-11.42-29.44-38.46-40.85-57.07-5.41-87.12,10.21-47.46,52.27-53.47,79.31S250.06,350,277.7,369.79s54.55,23.86,108.27-9C458.67,316.33,443.05,243,435.84,222.6Z" style="fill:#92E3A9;stroke:#263238;stroke-miterlimit:10"></path><path d="M270.29,297.86c10.61,11.23,44.1-3.2,74.79-32.22s47-61.64,36.35-72.87-49.95-7.92-80.64,21.1S259.68,286.64,270.29,297.86Z" style="fill:#fff;opacity:0.43"></path></g><g id="half-fruit"><path d="M238.09,272.12s-16.82-11.94-49.92.54-46.67,25-55.35,38.53-19.53,42.87-14.11,77.59,15.2,52.09,35.27,58.61,54.26,2.71,97.13-24.42,61.86-67.29,60.23-91.7-17.91-38.53-32.56-46.13S238.09,272.12,238.09,272.12Z" style="fill:#92E3A9;stroke:#263238;stroke-miterlimit:10"></path><path d="M235.87,280.18s-15.25-10.83-45.26.49-42.32,22.63-50.19,34.93S122.7,354.48,127.62,386s13.78,47.23,32,53.14,49.2,2.46,88.07-22.14,56.1-61,54.62-83.16S286.06,298.87,272.78,292,235.87,280.18,235.87,280.18Z" style="fill:#fff;stroke:#263238;stroke-miterlimit:10"></path><path d="M268.47,312.82s-33.64-20.08-59.14-17.37-49.38,10.86-64,39.61-7.6,57,5.43,74.34,45,24.42,67.28,14.65,47.21-25,59.69-54.26S282.58,322,268.47,312.82Z" style="fill:#d6d6d6;stroke:#263238;stroke-miterlimit:10"></path><path d="M232.4,370.19s-4.6.36-9.56,6.73-1.06,13.44,7.08,15.57,11.68-4.6,11.68-13.1-3.19-11.32-3.19-11.32" style="fill:none;stroke:#263238;stroke-miterlimit:10"></path><path d="M240.2,387.45c0-.09,0-.18,0-.27-.35-4.6-3.18-6.73-7.43-4.6s-5.66,1.06-6.72-3.19c-.9-3.57-3.79-.89-4.68.06-2.36,5.61,1.5,11.19,8.57,13C235.17,393.86,238.49,391.54,240.2,387.45Z" style="fill:#263238;stroke:#263238;stroke-miterlimit:10"></path><path d="M251.11,388.19s4,2.34,11.68-.07,8.55-10.43,3.07-16.82-12.21-2.89-17.06,4.09S245,386.5,245,386.5" style="fill:none;stroke:#263238;stroke-miterlimit:10"></path><path d="M254.55,369.57c-.05.08-.1.15-.14.23-2.34,4-1.23,7.34,3.47,8s5.26,2.36,3.71,6.45c-1.31,3.45,2.6,2.89,3.87,2.63,5.14-3.26,5.16-10,.4-15.6C262.34,367.18,258.28,367.19,254.55,369.57Z" style="fill:#263238;stroke:#263238;stroke-miterlimit:10"></path><path d="M152.06,354.62s-4.6.35-9.56,6.72-1.06,13.45,7.08,15.58,11.68-4.61,11.68-13.1-3.18-11.32-3.18-11.32" style="fill:none;stroke:#263238;stroke-miterlimit:10"></path><path d="M159.86,371.88c0-.09,0-.18,0-.27-.36-4.6-3.19-6.73-7.44-4.6s-5.66,1.06-6.72-3.19c-.89-3.57-3.79-.89-4.68.06-2.36,5.61,1.5,11.19,8.57,13C154.83,378.28,158.16,376,159.86,371.88Z" style="fill:#263238;stroke:#263238;stroke-miterlimit:10"></path><path d="M196.3,305.07s-4.6.36-9.56,6.73-1.06,13.44,7.08,15.57,11.68-4.6,11.68-13.1S202.32,303,202.32,303" style="fill:none;stroke:#263238;stroke-miterlimit:10"></path><path d="M204.1,322.33c0-.09,0-.18,0-.27-.36-4.6-3.19-6.72-7.44-4.6s-5.66,1.06-6.72-3.19c-.9-3.57-3.79-.88-4.68.06-2.36,5.61,1.5,11.19,8.57,13C199.07,328.74,202.39,326.42,204.1,322.33Z" style="fill:#263238;stroke:#263238;stroke-miterlimit:10"></path><path d="M195.42,401.14s-.95,4.52,3.78,11.06,12.61,4.79,16.93-2.43-1.15-12.5-9.3-14.88-11.76-.12-11.76-.12" style="fill:none;stroke:#263238;stroke-miterlimit:10"></path><path d="M214.17,398.49l-.26-.06c-4.52-.95-7.35,1.17-6.5,5.85s-.57,5.73-4.94,5.56c-3.69-.15-1.92,3.38-1.26,4.51,4.72,3.83,11.16,1.69,14.92-4.58C218.91,405.12,217.62,401.28,214.17,398.49Z" style="fill:#263238;stroke:#263238;stroke-miterlimit:10"></path><path d="M201.79,365s-.95,4.52,3.78,11.06,12.61,4.79,16.93-2.43-1.14-12.5-9.3-14.88-11.76-.12-11.76-.12" style="fill:none;stroke:#263238;stroke-miterlimit:10"></path><path d="M220.54,362.39l-.26-.06c-4.52-.95-7.35,1.17-6.5,5.85s-.57,5.73-4.94,5.56c-3.69-.15-1.92,3.38-1.26,4.51,4.72,3.83,11.16,1.69,14.92-4.58C225.28,369,224,365.18,220.54,362.39Z" style="fill:#263238;stroke:#263238;stroke-miterlimit:10"></path><path d="M223.2,326.66s.7-8.14-3.54-10.26-11.68,3.89-13.81,13.8,2.48,20.17,6,21.59,8.14-8.85,10.26-15.57" style="fill:none;stroke:#263238;stroke-miterlimit:10"></path><path d="M211.52,319.94s4.95,5.66,7.08,2.83,2.47-5.31,3.53-2.83,2.13,11-2.47,15.92-9.91,2.83-12.39-2.48S209,322.41,211.52,319.94Z" style="fill:#263238;stroke:#263238;stroke-miterlimit:10"></path><path d="M247.71,351.59s-5.54,6-3.48,10.28,11.61,4.07,19.36-2.46,10.39-17.47,8.46-20.75-11.85,2-17.65,6" style="fill:none;stroke:#263238;stroke-miterlimit:10"></path><path d="M252.83,364.05s-.45-7.51-3.86-6.57-5.21,2.68-4.54.07,5-10,11.72-11.07,9.56,3.83,8.27,9.54S256.3,363.61,252.83,364.05Z" style="fill:#263238;stroke:#263238;stroke-miterlimit:10"></path><path d="M178.87,376.67s-4.73,5.12-3,8.77,9.91,3.47,16.51-2.1,8.87-14.89,7.22-17.69-10.11,1.71-15.05,5.13" style="fill:none;stroke:#263238;stroke-miterlimit:10"></path><path d="M183.23,387.3s-.39-6.4-3.3-5.6-4.44,2.28-3.86.06,4.3-8.51,10-9.44,8.16,3.26,7.05,8.13S186.19,386.93,183.23,387.3Z" style="fill:#263238;stroke:#263238;stroke-miterlimit:10"></path><path d="M229.31,328.23s-5.54,6-3.49,10.28,11.62,4.07,19.37-2.46,10.39-17.47,8.46-20.75-11.85,2-17.65,6" style="fill:none;stroke:#263238;stroke-miterlimit:10"></path><path d="M234.43,340.7s-.45-7.51-3.87-6.58-5.21,2.68-4.53.08,5-10,11.71-11.08,9.57,3.83,8.28,9.54S237.9,340.25,234.43,340.7Z" style="fill:#263238;stroke:#263238;stroke-miterlimit:10"></path><path d="M168,326.31s-13.81,8.14-13.1,11.32,9.2,4.6,15.22,2.83,3.89-7.43,1.77-10.61S171.17,325.24,168,326.31Z" style="fill:#263238;stroke:#263238;stroke-miterlimit:10"></path><path d="M170.11,340.46s12.74-3.18,15.57-7.08a7,7,0,0,0-5.31-11c-6-.7-12.38,3.9-12.38,3.9" style="fill:none;stroke:#263238;stroke-miterlimit:10"></path><path d="M185.33,340.11S168,343.65,164.8,350s7.79,10.62,19.47,11.68,18.4-9.91,14.15-17-10.26-4.6-10.26-4.6" style="fill:none;stroke:#263238;stroke-miterlimit:10"></path><path d="M164.8,350c-2.22,4.45,2.47,7.86,9.48,9.88a11.58,11.58,0,0,0,6.45-5.63c3.63-7.6-5-10.57-6.24-10.94C170.31,345,166.2,347.23,164.8,350Z" style="fill:#263238;stroke:#263238;stroke-miterlimit:10"></path><path d="M157.14,400.2s13.76,11.12,20.71,9.53,3.23-12.77-3.39-22.45-19.36-7.89-22.11-.11,3,10.85,3,10.85" style="fill:none;stroke:#263238;stroke-miterlimit:10"></path><path d="M177.85,409.73c4.85-1.12,4.49-6.91,1.58-13.6a11.52,11.52,0,0,0-8.45-1.39c-8.16,2-4.93,10.62-4.46,11.77C170.45,408.68,174.8,410.43,177.85,409.73Z" style="fill:#263238;stroke:#263238;stroke-miterlimit:10"></path><path d="M175.42,422.22s7.78-8.5,14.15-9.21,11.68,7.08,11.33,8.5-2.83,2.83-8.14,3.54" style="fill:none;stroke:#263238;stroke-miterlimit:10"></path><path d="M219.66,414.43s-1.06-3.54,4.6-3.89,15.22.71,10.26-2.48-12.74-9.91-8.14-9.91,4.25,1.77,14.87,1.77a21.4,21.4,0,0,0,16.28-7.43" style="fill:none;stroke:#263238;stroke-miterlimit:10"></path><path d="M275.93,366.65s-2.48-.71-.36-5.66,7.79-10.62,4.25-18.05-12-7.43-10.26-14.86,1.77-10.27,1.77-10.27" style="fill:none;stroke:#263238;stroke-miterlimit:10"></path><path d="M180.73,305.43s-8.5,3.18-6.73,6.37,4.6,4.24,1.06,5.3-12-2.47-17,2.48S145,338.34,146.4,339.4s4.6.36,2.83,3.89-6,5.31-7.08,9.91" style="fill:none;stroke:#263238;stroke-miterlimit:10"></path><path d="M143.21,377.27s9.56,1.42,8.5,5-8.14,11-4.6,16.28,9.55,5.31,9.9,9.21-1.41,6.37,4.61,6.37,12.74-2.13,12.74.35" style="fill:none;stroke:#263238;stroke-miterlimit:10"></path><path d="M236.64,345.06s-14.51,2.84-14.86,8.14,4.25,12,12,9.91,11.33-12,11.33-15.57S239.12,344,236.64,345.06Z" style="fill:none;stroke:#263238;stroke-miterlimit:10"></path><path d="M224.16,360.29a8.89,8.89,0,0,0,9.65,2.82,11.34,11.34,0,0,0,2.19-.86,5.46,5.46,0,0,0,.64-6.21C233.11,349,226.65,356.83,224.16,360.29Z" style="fill:#263238;stroke:#263238;stroke-miterlimit:10"></path><path d="M308.62,315.74s-.05.48-.15,1.33a53.46,53.46,0,0,1,2.87,14.2C313,355.68,294,395.84,251.11,423S174.06,453.9,154,447.39a41.67,41.67,0,0,1-11.39-5.65l.48,1.17s19.88,21.73,60.58,21.73,82.31-30.52,101.27-55S314.63,327.3,308.62,315.74Z" style="fill:#92E3A9;stroke:#263238;stroke-miterlimit:10"></path><path d="M169.76,393.16a4.9,4.9,0,1,1-4.9-4.9A4.9,4.9,0,0,1,169.76,393.16Z" style="fill:#fff"></path><path d="M196.62,373.93c0,1.9-2,3.45-4.53,3.45s-4.54-1.55-4.54-3.45,2-3.45,4.54-3.45S196.62,372,196.62,373.93Z" style="fill:#fff"></path><ellipse cx="209.56" cy="364.61" rx="4.22" ry="3.57" style="fill:#fff"></ellipse><ellipse cx="232.06" cy="352.27" rx="4.22" ry="3.57" style="fill:#fff"></ellipse><ellipse cx="186.82" cy="351.24" rx="6.9" ry="6.53" style="fill:#fff"></ellipse><path d="M179.2,329.1a2.93,2.93,0,1,1-2.9-2.54A2.74,2.74,0,0,1,179.2,329.1Z" style="fill:#fff"></path><ellipse cx="195.9" cy="311.86" rx="3.63" ry="3.81" style="fill:#fff"></ellipse><ellipse cx="247.8" cy="322.57" rx="5.81" ry="3.99" style="fill:#fff"></ellipse><path d="M229.65,305.15c0,3.41-3.74,6.17-8.35,6.17s-8.35-2.76-8.35-6.17,3.74-6.17,8.35-6.17S229.65,301.74,229.65,305.15Z" style="fill:#fff"></path><path d="M231.46,322.75a2.75,2.75,0,1,1-2.72-2.36A2.55,2.55,0,0,1,231.46,322.75Z" style="fill:#fff"></path><path d="M263,332.19a4.76,4.76,0,1,1-4.72-4.17A4.47,4.47,0,0,1,263,332.19Z" style="fill:#fff"></path><path d="M262,349.41a2.9,2.9,0,1,1-2.9-2.93A2.91,2.91,0,0,1,262,349.41Z" style="fill:#fff"></path><path d="M153.79,366.46a2.9,2.9,0,1,1-2.9-2.92A2.92,2.92,0,0,1,153.79,366.46Z" style="fill:#fff"></path><path d="M258.32,379.65a4.79,4.79,0,1,1-4.76-4.26A4.53,4.53,0,0,1,258.32,379.65Z" style="fill:#fff"></path><ellipse cx="203.52" cy="403.51" rx="6.42" ry="5.13" style="fill:#fff"></ellipse></g></svg>
