<svg xmlns="http://www.w3.org/2000/svg" xmlns:xlink="http://www.w3.org/1999/xlink" viewBox="0 0 750 500"><defs><clippath id="clip-path"><path d="M537.16,251.59a41.24,41.24,0,0,0,.48,40.47c2.21,3.72,5.08,7.23,5.94,11.47.67,3.31,0,6.78.74,10.08.63,2.94,2.29,5.58,2.94,8.51.85,3.8-.06,7.74-.84,11.55-1.8,8.87-2.76,18.72,2,26.42a4.24,4.24,0,0,0,1.38,1.53c1.24.73,2.82.23,4.1-.44,6-3.19,9.59-9.53,12.82-15.53a67.09,67.09,0,0,0,5.5-12c1.49-4.91,1.83-10.08,2.16-15.2.51-7.77,1-15.67-.73-23.25a97.91,97.91,0,0,0-4-12c-5-13.62-5.33-28.77-4.17-42.51" style="fill:none"></path></clippath></defs><g id="background-complete"><path d="M715.88,291.59c0,.15-149.49.26-333.86.26s-333.9-.11-333.9-.26,149.46-.26,333.9-.26S715.88,291.45,715.88,291.59Z" style="fill:#e0e0e0"></path><path d="M492.79,293.05S501.07,88.48,305.12,88.48s-180.7,204.57-180.7,204.57Z" style="fill:#ebebeb"></path><path d="M270.54,293.05s-6.37-116,70.74-116,72,116,72,116Z" style="fill:#e0e0e0"></path><path d="M289.49,293.05s-6.38-116,70.74-116,72,116,72,116Z" style="fill:#f5f5f5"></path><path d="M270.41,254.72c0,.14-32.39.26-72.34.26s-72.35-.12-72.35-.26,32.39-.26,72.35-.26S270.41,254.57,270.41,254.72Z" style="fill:#e0e0e0"></path><path d="M223.67,255.56c.15,0,.27,8.61.27,19.23s-.12,19.23-.27,19.23-.26-8.61-.26-19.23S223.53,255.56,223.67,255.56Z" style="fill:#e0e0e0"></path><path d="M287.59,211.89c0,.14-34.51.26-77.07.26s-77.07-.12-77.07-.26,34.5-.26,77.07-.26S287.59,211.75,287.59,211.89Z" style="fill:#e0e0e0"></path><path d="M263,255.85c-.14,0-.26-9.78-.26-21.84s.12-21.83.26-21.83.26,9.77.26,21.83S263.15,255.85,263,255.85Z" style="fill:#e0e0e0"></path><path d="M180.88,254.69c-.15,0-.27-9.52-.27-21.25s.12-21.26.27-21.26.26,9.51.26,21.26S181,254.69,180.88,254.69Z" style="fill:#e0e0e0"></path><path d="M287.87,254.11a41.75,41.75,0,0,1-6.65.26,41.85,41.85,0,0,1-6.65-.26,43.32,43.32,0,0,1,6.65-.26A43.21,43.21,0,0,1,287.87,254.11Z" style="fill:#e0e0e0"></path><path d="M324.35,265.43c0,.13-7.43-1.65-16.51-4s-16.42-4.35-16.39-4.49,7.43,1.64,16.52,4S324.39,265.29,324.35,265.43Z" style="fill:#e0e0e0"></path><path d="M330.43,240.12a5.84,5.84,0,0,1-1.25-.46l-3.32-1.43c-2.79-1.24-6.64-3-10.88-4.92s-8.06-3.74-10.82-5.06l-3.25-1.58a6.74,6.74,0,0,1-1.16-.65,7.34,7.34,0,0,1,1.25.46l3.32,1.44c2.8,1.23,6.64,3,10.88,4.92s8.06,3.73,10.81,5l3.26,1.59A6.4,6.4,0,0,1,330.43,240.12Z" style="fill:#e0e0e0"></path><path d="M341.6,218.69c-.1.11-5.61-5-12.3-11.32s-12.05-11.61-11.95-11.71,5.61,5,12.3,11.33S341.7,218.59,341.6,218.69Z" style="fill:#e0e0e0"></path><path d="M332.63,210.17a4.76,4.76,0,0,1-.45,1q-.56,1.11-1.38,2.7c-1.18,2.28-2.85,5.4-4.72,8.84s-3.59,6.53-4.86,8.76c-.6,1-1.11,1.91-1.52,2.63a4.84,4.84,0,0,1-.62.93,5,5,0,0,1,.44-1l1.38-2.71c1.19-2.27,2.85-5.4,4.72-8.83s3.59-6.53,4.86-8.76L332,211.1A4.84,4.84,0,0,1,332.63,210.17Z" style="fill:#e0e0e0"></path><path d="M400.64,191.91c.11.1-5.33,6.17-12.13,13.57S376.09,218.79,376,218.69s5.33-6.17,12.14-13.57S400.54,191.81,400.64,191.91Z" style="fill:#e0e0e0"></path><path d="M405,235.06a6.06,6.06,0,0,1-.76-1c-.47-.68-1.12-1.68-1.92-2.92-1.59-2.47-3.76-5.91-6.1-9.74-4.7-7.65-8.29-14-7.93-14.19,0,0,.05.1.15.29s.26.47.46.82c.47.8,1.07,1.8,1.77,3l6,9.81c2.3,3.79,4.39,7.21,6,9.82.7,1.2,1.3,2.2,1.77,3A6.13,6.13,0,0,1,405,235.06Z" style="fill:#e0e0e0"></path><path d="M422.4,228.51c.06.13-7.42,3.29-16.69,7.06s-16.83,6.71-16.88,6.58,7.42-3.29,16.69-7.06S422.35,228.38,422.4,228.51Z" style="fill:#e0e0e0"></path><path d="M430.42,260.75c0,.14-8.14,1.84-18.25,3.79s-18.33,3.42-18.36,3.28S402,266,412.07,264,430.4,260.61,430.42,260.75Z" style="fill:#e0e0e0"></path><path d="M304.07,212.44a12.91,12.91,0,0,1-2.58.24c-1.6.07-3.81.12-6.25.1s-4.64-.11-6.24-.21a11.94,11.94,0,0,1-2.58-.29,13.8,13.8,0,0,1,2.59-.08l6.24.06,6.23.05A13.59,13.59,0,0,1,304.07,212.44Z" style="fill:#e0e0e0"></path><path d="M461.48,169.38c0,.14-69.49.26-155.19.26s-155.2-.12-155.2-.26,69.47-.26,155.2-.26S461.48,169.24,461.48,169.38Z" style="fill:#e0e0e0"></path><path d="M480.21,211.73c0,.14-14,.26-31.29.26s-31.3-.12-31.3-.26,14-.26,31.3-.26S480.21,211.59,480.21,211.73Z" style="fill:#e0e0e0"></path><path d="M490.46,254.19c0,.14-13.19.26-29.46.26s-29.47-.12-29.47-.26,13.19-.26,29.47-.26S490.46,254.05,490.46,254.19Z" style="fill:#e0e0e0"></path><path d="M429,254.19c-.15,0-.26-9.1-.26-20.31s.11-20.32.26-20.32.26,9.09.26,20.32S429.11,254.19,429,254.19Z" style="fill:#e0e0e0"></path><path d="M461.18,291.53c-.15,0-.26-7.95-.26-17.76S461,256,461.18,256s.26,8,.26,17.75S461.32,291.53,461.18,291.53Z" style="fill:#e0e0e0"></path><path d="M459.53,212.07a9.58,9.58,0,0,1-.34-1.7c-.21-1.19-.47-2.76-.8-4.66-.69-3.93-1.75-9.34-3.21-15.25s-3-11.19-4.25-15c-.6-1.83-1.09-3.35-1.46-4.49a9.6,9.6,0,0,1-.49-1.67,12.72,12.72,0,0,1,.68,1.6c.41,1,1,2.56,1.62,4.45,1.31,3.77,2.94,9.06,4.41,15s2.47,11.36,3.06,15.31c.3,2,.52,3.58.64,4.69A12.85,12.85,0,0,1,459.53,212.07Z" style="fill:#e0e0e0"></path><path d="M427.14,129c0,.14-55,.26-122.81.26s-122.81-.12-122.81-.26,55-.27,122.81-.27S427.14,128.86,427.14,129Z" style="fill:#e0e0e0"></path><path d="M267.14,169.27a9.25,9.25,0,0,1,0-1.62c0-1,.09-2.55.25-4.41a82.92,82.92,0,0,1,7.65-28c.81-1.68,1.5-3,2-3.92a9.07,9.07,0,0,1,.84-1.38,10.39,10.39,0,0,1-.67,1.47c-.46.93-1.1,2.29-1.86,4a93.59,93.59,0,0,0-7.62,27.86c-.21,1.84-.35,3.34-.42,4.38A8.9,8.9,0,0,1,267.14,169.27Z" style="fill:#e0e0e0"></path><path d="M350.38,170.45a10.37,10.37,0,0,1-.31-1.63c-.16-1.14-.38-2.64-.65-4.45-.51-3.85-1.19-9-1.95-14.7s-1.53-10.92-2.21-14.65c-.33-1.8-.61-3.29-.83-4.42a12.31,12.31,0,0,1-.27-1.62,9.15,9.15,0,0,1,.47,1.58c.26,1,.62,2.53,1,4.39.77,3.72,1.61,8.91,2.36,14.65s1.36,11,1.8,14.73c.2,1.82.36,3.32.48,4.47A8.79,8.79,0,0,1,350.38,170.45Z" style="fill:#e0e0e0"></path><path d="M420.87,168.19a9.72,9.72,0,0,1-.43-1.58l-1-4.33c-.86-3.67-2-8.73-3.76-14.19-.87-2.73-1.82-5.28-2.77-7.57s-1.94-4.3-2.84-5.94c-.43-.84-.88-1.56-1.25-2.21s-.7-1.19-1-1.63a10.24,10.24,0,0,1-.83-1.41,10,10,0,0,1,1,1.3c.31.42.68,1,1.07,1.59s.87,1.35,1.32,2.18a61.63,61.63,0,0,1,3,5.93c1,2.29,2,4.86,2.83,7.6a146.65,146.65,0,0,1,3.62,14.27c.38,1.84.66,3.34.85,4.37A9.41,9.41,0,0,1,420.87,168.19Z" style="fill:#e0e0e0"></path><path d="M203.88,128.41a11.14,11.14,0,0,1-.9,1.5c-.61,1-1.47,2.33-2.51,4.06a130.56,130.56,0,0,0-7.29,13.93,128.83,128.83,0,0,0-5.5,14.73c-.59,1.92-1,3.49-1.34,4.58a10.38,10.38,0,0,1-.52,1.67,13.18,13.18,0,0,1,.33-1.72c.23-1.11.63-2.69,1.18-4.64a110,110,0,0,1,5.38-14.83,112.16,112.16,0,0,1,7.44-13.92c1.09-1.7,2-3.06,2.67-4A12.73,12.73,0,0,1,203.88,128.41Z" style="fill:#e0e0e0"></path><path d="M223.51,211.74a8.79,8.79,0,0,1-.23-1.62c-.12-1-.22-2.56-.29-4.44a83,83,0,0,1,4.23-28.93c.6-1.78,1.14-3.21,1.55-4.17a11.26,11.26,0,0,1,.68-1.49,10,10,0,0,1-.49,1.56c-.35,1-.83,2.42-1.39,4.21a93,93,0,0,0-4.21,28.81c0,1.88.07,3.39.12,4.44A11.21,11.21,0,0,1,223.51,211.74Z" style="fill:#e0e0e0"></path><path d="M152.72,209.55a9.35,9.35,0,0,1,0-1.56c0-1,.13-2.44.33-4.22a86.22,86.22,0,0,1,2.81-13.7c1.5-5.26,3.18-9.91,4.44-13.26.63-1.67,1.16-3,1.53-3.95a10.85,10.85,0,0,1,.63-1.42,7.38,7.38,0,0,1-.44,1.49c-.35,1-.82,2.39-1.37,4-1.17,3.37-2.8,8-4.29,13.27a102.08,102.08,0,0,0-2.95,13.6c-.24,1.77-.4,3.2-.48,4.2A9.14,9.14,0,0,1,152.72,209.55Z" style="fill:#e0e0e0"></path><path d="M317.63,183.18a40,40,0,0,1-.84-6.37,41.21,41.21,0,0,1-.33-6.43,39.53,39.53,0,0,1,.85,6.38A38.91,38.91,0,0,1,317.63,183.18Z" style="fill:#e0e0e0"></path><path d="M293.08,89.13a2.72,2.72,0,0,1-.6.22l-1.73.52-1.26.37c-.46.15-.94.34-1.47.53-1,.39-2.27.77-3.54,1.36l-2,.88c-.7.31-1.4.7-2.14,1.07-1.5.71-3,1.64-4.6,2.58A63.63,63.63,0,0,0,258.05,113c-1.06,1.53-2.11,3-2.94,4.39-.42.71-.87,1.38-1.23,2l-1,2c-.7,1.23-1.17,2.41-1.64,3.43-.23.51-.46,1-.64,1.42s-.32.85-.46,1.23c-.27.69-.49,1.25-.67,1.69a2.85,2.85,0,0,1-.26.58,2.43,2.43,0,0,1,.17-.61c.14-.45.33-1,.57-1.73l.42-1.25c.17-.45.39-.93.6-1.45.45-1,.9-2.23,1.58-3.47.32-.64.66-1.3,1-2s.8-1.36,1.21-2.08c.82-1.46,1.86-2.9,2.92-4.45a66.62,66.62,0,0,1,8.09-9.1,67.76,67.76,0,0,1,9.7-7.35c1.63-.93,3.15-1.86,4.66-2.56.75-.36,1.46-.74,2.17-1l2.06-.85c1.29-.58,2.52-.93,3.59-1.3.53-.17,1-.35,1.48-.49l1.28-.32,1.77-.43A2.42,2.42,0,0,1,293.08,89.13Z" style="fill:#e0e0e0"></path><path d="M361.18,131.22a3.4,3.4,0,0,1-.21-.56l-.53-1.61c-.21-.7-.48-1.56-.86-2.53s-.74-2.11-1.29-3.3-1.08-2.53-1.81-3.9S355,116.5,354.12,115a61.79,61.79,0,0,0-14.85-16.83c-1.38-1-2.69-2-4-2.88s-2.51-1.61-3.64-2.27-2.2-1.2-3.12-1.69-1.73-.88-2.4-1.18l-1.54-.72a2,2,0,0,1-.52-.29,3,3,0,0,1,.56.19l1.58.64a26.37,26.37,0,0,1,2.45,1.09c.94.48,2,1,3.17,1.64s2.41,1.35,3.7,2.23,2.65,1.82,4.05,2.87a65.69,65.69,0,0,1,8.29,7.76,64,64,0,0,1,6.67,9.2c.87,1.52,1.69,3,2.34,4.37s1.25,2.73,1.76,4,.87,2.36,1.22,3.34.6,1.86.79,2.57.32,1.22.43,1.65A2.21,2.21,0,0,1,361.18,131.22Z" style="fill:#e0e0e0"></path><path d="M358.73,211.73a24,24,0,0,0-10.55,2.35c27.76,13.3,25.7,78.94,25.7,78.94H395S397.55,211.73,358.73,211.73Z" style="fill:#ebebeb"></path><path d="M348.18,214.08C320.53,227.38,323.11,293,323.11,293h50.77S375.94,227.38,348.18,214.08Z" style="fill:#e0e0e0"></path><path d="M352.67,177.4c.14,0,1.49,7.62,3,17.06s2.64,17.13,2.5,17.16-1.49-7.62-3-17.07S352.53,177.42,352.67,177.4Z" style="fill:#e0e0e0"></path><path d="M490,143c-.15,0-.26-12.17-.26-27.19s.11-27.21.26-27.21.26,12.18.26,27.21S490.17,143,490,143Z" style="fill:#e0e0e0"></path><path d="M514.06,129.87c-.07.13-10.89-6-24.16-13.7s-24-14-23.9-14.16,10.89,6,24.16,13.71S514.13,129.75,514.06,129.87Z" style="fill:#e0e0e0"></path><path d="M466.59,129.15c-.07-.12,10.37-6.08,23.31-13.31s23.49-13,23.56-12.87-10.36,6.09-23.31,13.32S466.66,129.28,466.59,129.15Z" style="fill:#e0e0e0"></path><path d="M496.43,101.09a13.7,13.7,0,0,1-1.73,2c-1.12,1.19-2.69,2.81-4.45,4.57l0,0-.18.19-.19-.19c-1.72-1.78-3.26-3.41-4.36-4.61a12.4,12.4,0,0,1-1.69-2,13.73,13.73,0,0,1,1.95,1.76c1.17,1.13,2.75,2.72,4.48,4.5h-.38l0,0c1.76-1.77,3.37-3.35,4.55-4.47A13.53,13.53,0,0,1,496.43,101.09Z" style="fill:#e0e0e0"></path><path d="M494.31,94.19a31.82,31.82,0,0,1-3.92,4.32l-.1.11-.18.18-.18-.17a31.25,31.25,0,0,1-4-4.06,30.69,30.69,0,0,1,4.33,3.68h-.36l.11-.1A32.8,32.8,0,0,1,494.31,94.19Z" style="fill:#e0e0e0"></path><path d="M506.69,113.69a13,13,0,0,1-2.59-.54c-1.58-.4-3.76-1-6.16-1.66h-.05l-.26-.08.08-.25c.72-2.37,1.39-4.51,1.91-6.05a13,13,0,0,1,.93-2.46,13.36,13.36,0,0,1-.58,2.57c-.42,1.56-1,3.72-1.76,6.09L498,111h.05c2.4.68,4.56,1.32,6.12,1.81A13.49,13.49,0,0,1,506.69,113.69Z" style="fill:#e0e0e0"></path><path d="M511.7,108.49a32.38,32.38,0,0,1-5.68-1.32l-.14,0-.25-.07.06-.25a31.63,31.63,0,0,1,1.62-5.45,31.61,31.61,0,0,1-1.11,5.58l-.18-.31.14,0A32.89,32.89,0,0,1,511.7,108.49Z" style="fill:#e0e0e0"></path><path d="M500.16,128.89a14.55,14.55,0,0,1-1-2.45c-.54-1.54-1.27-3.68-2-6l0,0-.08-.25.25-.08c2.37-.72,4.53-1.35,6.09-1.77a12.86,12.86,0,0,1,2.57-.59,13.38,13.38,0,0,1-2.46.94c-1.54.52-3.68,1.2-6.05,1.92l.18-.33v0c.77,2.37,1.44,4.52,1.89,6.09A13.2,13.2,0,0,1,500.16,128.89Z" style="fill:#e0e0e0"></path><path d="M506.33,130.17a32.12,32.12,0,0,1-2.05-5.46l0-.14-.08-.24.24-.09a31.54,31.54,0,0,1,5.43-1.68,31.77,31.77,0,0,1-5.25,2.17l.16-.33,0,.15A31.91,31.91,0,0,1,506.33,130.17Z" style="fill:#e0e0e0"></path><path d="M483.72,131.11a13.44,13.44,0,0,1,1.67-2.05c1.08-1.23,2.6-2.89,4.3-4.71l0,0,.18-.2.19.19c1.78,1.72,3.37,3.31,4.5,4.47a12.83,12.83,0,0,1,1.76,2,12.88,12.88,0,0,1-2-1.7c-1.2-1.09-2.83-2.63-4.61-4.36h.37l0,0c-1.7,1.82-3.26,3.45-4.41,4.61A12.69,12.69,0,0,1,483.72,131.11Z" style="fill:#e0e0e0"></path><path d="M486,137.12a32.51,32.51,0,0,1,3.78-4.43l.1-.11.17-.19.19.17a31.84,31.84,0,0,1,4.1,3.93,31.5,31.5,0,0,1-4.44-3.54l.36,0-.1.11A32.93,32.93,0,0,1,486,137.12Z" style="fill:#e0e0e0"></path><path d="M473.68,117.68a12.93,12.93,0,0,1,2.59.57c1.58.42,3.75,1,6.14,1.74h0l.25.08-.08.25c-.74,2.36-1.44,4.49-2,6a12.93,12.93,0,0,1-1,2.45,13.11,13.11,0,0,1,.61-2.56c.45-1.56,1.09-3.7,1.84-6.07l.17.33-.05,0c-2.39-.7-4.54-1.37-6.1-1.88A14.82,14.82,0,0,1,473.68,117.68Z" style="fill:#e0e0e0"></path><path d="M469.31,122.37a32,32,0,0,1,5.66,1.39l.14,0,.25.07-.07.25a30.92,30.92,0,0,1-1.68,5.43,31.4,31.4,0,0,1,1.18-5.56l.18.31-.15,0A34.26,34.26,0,0,1,469.31,122.37Z" style="fill:#e0e0e0"></path><path d="M480.63,102.27a12.9,12.9,0,0,1,.71,2.55c.37,1.59.85,3.79,1.35,6.24v0l.05.26-.26,0c-2.44.45-4.65.83-6.25,1.07a13.32,13.32,0,0,1-2.61.3,12.84,12.84,0,0,1,2.54-.66c1.59-.34,3.79-.77,6.23-1.22l-.21.3v0c-.5-2.44-.92-4.66-1.2-6.27A13.58,13.58,0,0,1,480.63,102.27Z" style="fill:#e0e0e0"></path><path d="M473.74,101.44a32.42,32.42,0,0,1,1.42,5.65l0,.15.05.25-.24.05a30.89,30.89,0,0,1-5.59,1.06,32.76,32.76,0,0,1,5.47-1.56l-.2.3,0-.14A33.4,33.4,0,0,1,473.74,101.44Z" style="fill:#e0e0e0"></path><path d="M644.23,344.73c-.15,0-.26-7.69-.26-17.18s.11-17.18.26-17.18.26,7.69.26,17.18S644.37,344.73,644.23,344.73Z" style="fill:#e0e0e0"></path><path d="M659.41,336.42c-.07.13-6.93-3.71-15.31-8.57s-15.13-8.9-15.05-9,6.92,3.72,15.31,8.58S659.48,336.3,659.41,336.42Z" style="fill:#e0e0e0"></path><path d="M629.42,336c-.07-.13,6.51-3.93,14.68-8.5s14.86-8.17,14.93-8-6.5,3.93-14.68,8.5S629.49,336.09,629.42,336Z" style="fill:#e0e0e0"></path><path d="M648.27,318.24a31.13,31.13,0,0,1-3.83,4.23l0,0-.18.19-.19-.19a31.55,31.55,0,0,1-3.76-4.25,30.64,30.64,0,0,1,4.13,3.89H644l0,0A32.11,32.11,0,0,1,648.27,318.24Z" style="fill:#e0e0e0"></path><path d="M646.93,313.88a12.51,12.51,0,0,1-2.4,2.8l-.07.07-.18.18-.18-.18a12.42,12.42,0,0,1-2.45-2.63,12.91,12.91,0,0,1,2.8,2.25h-.36l.07-.07A13.49,13.49,0,0,1,646.93,313.88Z" style="fill:#e0e0e0"></path><path d="M654.76,326.2a30.86,30.86,0,0,1-5.56-1.3h0l-.26-.07.08-.25a31.14,31.14,0,0,1,1.89-5.35,32.63,32.63,0,0,1-1.39,5.5l-.18-.33h0A32.21,32.21,0,0,1,654.76,326.2Z" style="fill:#e0e0e0"></path><path d="M657.92,322.92a13.79,13.79,0,0,1-3.62-.75l-.09,0-.24-.07.06-.25a13.23,13.23,0,0,1,1.11-3.42,12.68,12.68,0,0,1-.6,3.55l-.19-.32.09,0A13.14,13.14,0,0,1,657.92,322.92Z" style="fill:#e0e0e0"></path><path d="M650.63,335.8a30.78,30.78,0,0,1-2-5.34v0l-.09-.25.26-.08a31.07,31.07,0,0,1,5.49-1.4,30.32,30.32,0,0,1-5.34,1.9l.17-.33v0A31.41,31.41,0,0,1,650.63,335.8Z" style="fill:#e0e0e0"></path><path d="M654.52,336.61a13.87,13.87,0,0,1-1.38-3.42l0-.09-.08-.24.24-.09a12.9,12.9,0,0,1,3.46-1,12.48,12.48,0,0,1-3.28,1.46l.15-.32,0,.09A12.94,12.94,0,0,1,654.52,336.61Z" style="fill:#e0e0e0"></path><path d="M640.24,337.21a31.52,31.52,0,0,1,3.71-4.34l0,0,.18-.19.19.18a31.35,31.35,0,0,1,3.89,4.13,31,31,0,0,1-4.25-3.75h.37l0,0A31.68,31.68,0,0,1,640.24,337.21Z" style="fill:#e0e0e0"></path><path d="M641.66,341a13,13,0,0,1,2.32-2.87l.06-.06.17-.19.19.17a13,13,0,0,1,2.53,2.55,12.51,12.51,0,0,1-2.87-2.16l.36,0-.06.07A13.21,13.21,0,0,1,641.66,341Z" style="fill:#e0e0e0"></path><path d="M633.9,328.72a31.12,31.12,0,0,1,5.54,1.36h0l.26.08-.08.25a32.93,32.93,0,0,1-1.95,5.33,30.29,30.29,0,0,1,1.45-5.48l.18.32h0A31.56,31.56,0,0,1,633.9,328.72Z" style="fill:#e0e0e0"></path><path d="M631.14,331.68a13.33,13.33,0,0,1,3.6.79l.09,0,.25.07-.07.24a13.07,13.07,0,0,1-1.15,3.41,12.52,12.52,0,0,1,.65-3.54l.18.32-.09,0A13,13,0,0,1,631.14,331.68Z" style="fill:#e0e0e0"></path><path d="M638.29,319a31.09,31.09,0,0,1,1.39,5.54v0l0,.26-.26.05a30.89,30.89,0,0,1-5.61.77,31.35,31.35,0,0,1,5.52-1.28l-.21.3v0A32.22,32.22,0,0,1,638.29,319Z" style="fill:#e0e0e0"></path><path d="M633.94,318.46a13.4,13.4,0,0,1,1,3.55l0,.09,0,.25-.25.06a12.57,12.57,0,0,1-3.54.58,12.63,12.63,0,0,1,3.42-1.09l-.19.31,0-.09A13.09,13.09,0,0,1,633.94,318.46Z" style="fill:#e0e0e0"></path><path d="M684.75,250.4c-.14,0-.26-10.57-.26-23.61s.12-23.61.26-23.61.26,10.57.26,23.61S684.9,250.4,684.75,250.4Z" style="fill:#e0e0e0"></path><path d="M705.62,239c-.08.13-9.48-5.18-21-11.86s-20.8-12.19-20.73-12.32,9.47,5.19,21,11.87S705.69,238.86,705.62,239Z" style="fill:#e0e0e0"></path><path d="M664.41,238.36c-.07-.12,9-5.31,20.22-11.59s20.4-11.26,20.47-11.14-9,5.32-20.22,11.59S664.48,238.49,664.41,238.36Z" style="fill:#e0e0e0"></path><path d="M690.31,214a10.11,10.11,0,0,1-1.49,1.76c-1,1-2.32,2.45-3.85,4l0,0-.19.19-.18-.19c-1.5-1.54-2.84-3-3.78-4a10.28,10.28,0,0,1-1.46-1.77,9.43,9.43,0,0,1,1.72,1.51c1,1,2.39,2.35,3.89,3.9h-.37l0,0c1.53-1.53,2.93-2.9,4-3.87A10.28,10.28,0,0,1,690.31,214Z" style="fill:#e0e0e0"></path><path d="M688.47,208a25.43,25.43,0,0,1-3.37,3.78l-.09.09-.18.18-.19-.17a24.71,24.71,0,0,1-3.43-3.55,23,23,0,0,1,3.79,3.17h-.36l.09-.09A25.07,25.07,0,0,1,688.47,208Z" style="fill:#e0e0e0"></path><path d="M699.22,224.94a10.26,10.26,0,0,1-2.26-.45c-1.37-.34-3.27-.84-5.35-1.43h0l-.26-.07.08-.26c.62-2.06,1.21-3.91,1.67-5.25a9.89,9.89,0,0,1,.83-2.12,9.91,9.91,0,0,1-.48,2.23c-.37,1.36-.9,3.23-1.52,5.29l-.18-.32h0c2.08.59,4,1.15,5.3,1.58A10.14,10.14,0,0,1,699.22,224.94Z" style="fill:#e0e0e0"></path><path d="M703.56,220.42a24.77,24.77,0,0,1-4.94-1.11l-.12,0-.24-.07.06-.24a24.39,24.39,0,0,1,1.43-4.72,23.1,23.1,0,0,1-.93,4.84l-.18-.31.13,0A25.41,25.41,0,0,1,703.56,220.42Z" style="fill:#e0e0e0"></path><path d="M693.55,238.13a9.72,9.72,0,0,1-.88-2.12c-.48-1.34-1.11-3.19-1.78-5.25v0l-.08-.25.25-.08c2.06-.63,3.93-1.16,5.29-1.53a11.21,11.21,0,0,1,2.23-.49,9.54,9.54,0,0,1-2.12.84c-1.34.46-3.19,1-5.25,1.68l.17-.33,0,0c.66,2.06,1.24,3.93,1.63,5.29A10.19,10.19,0,0,1,693.55,238.13Z" style="fill:#e0e0e0"></path><path d="M698.9,239.24a26,26,0,0,1-1.81-4.73l0-.12-.08-.24.24-.09a23.5,23.5,0,0,1,4.72-1.42,24.1,24.1,0,0,1-4.54,1.91l.16-.32,0,.12A24.49,24.49,0,0,1,698.9,239.24Z" style="fill:#e0e0e0"></path><path d="M679.28,240.06a10.5,10.5,0,0,1,1.43-1.8c.94-1.07,2.25-2.52,3.73-4.1l0,0,.18-.19.19.18c1.55,1.5,2.92,2.87,3.9,3.89a9.43,9.43,0,0,1,1.51,1.72,10,10,0,0,1-1.76-1.46c-1-.94-2.46-2.28-4-3.78h.37l0,0c-1.48,1.58-2.84,3-3.84,4A10.28,10.28,0,0,1,679.28,240.06Z" style="fill:#e0e0e0"></path><path d="M681.22,245.28a23.88,23.88,0,0,1,3.26-3.88l.09-.09.17-.19.19.17a24.82,24.82,0,0,1,3.54,3.44,23.26,23.26,0,0,1-3.88-3l.36,0-.09.1A25.38,25.38,0,0,1,681.22,245.28Z" style="fill:#e0e0e0"></path><path d="M670.56,228.4a9.65,9.65,0,0,1,2.26.47c1.37.36,3.25.89,5.33,1.5h0l.26.08-.08.25c-.65,2-1.26,3.9-1.73,5.23a9.54,9.54,0,0,1-.86,2.11,9.73,9.73,0,0,1,.51-2.22c.38-1.36.93-3.22,1.58-5.28l.18.33h0c-2.07-.62-3.94-1.2-5.29-1.65A10.09,10.09,0,0,1,670.56,228.4Z" style="fill:#e0e0e0"></path><path d="M666.77,232.47a24.6,24.6,0,0,1,4.92,1.18l.13,0,.24.07L672,234a24,24,0,0,1-1.5,4.7,25.15,25.15,0,0,1,1-4.83l.18.31-.12,0A24.69,24.69,0,0,1,666.77,232.47Z" style="fill:#e0e0e0"></path><path d="M676.6,215a10.21,10.21,0,0,1,.64,2.21c.32,1.38.74,3.29,1.17,5.41v.05l.06.26-.26.05c-2.12.39-4,.71-5.43.92a10.3,10.3,0,0,1-2.27.24,9.53,9.53,0,0,1,2.2-.6c1.38-.3,3.29-.68,5.4-1.07l-.21.3v0c-.43-2.12-.79-4.05-1-5.44A10.32,10.32,0,0,1,676.6,215Z" style="fill:#e0e0e0"></path><path d="M670.61,214.3a24.89,24.89,0,0,1,1.27,4.9l0,.13.05.25-.25,0a23.82,23.82,0,0,1-4.85.89,24.16,24.16,0,0,1,4.73-1.39l-.19.3,0-.12A25,25,0,0,1,670.61,214.3Z" style="fill:#e0e0e0"></path><path d="M342,338.19c-.14,0-.26-6.88-.26-15.35s.12-15.36.26-15.36.26,6.87.26,15.36S342.12,338.19,342,338.19Z" style="fill:#e0e0e0"></path><path d="M355.54,330.77c-.07.12-6.21-3.3-13.7-7.64s-13.51-8-13.43-8.09,6.2,3.29,13.69,7.64S355.61,330.64,355.54,330.77Z" style="fill:#e0e0e0"></path><path d="M328.74,330.36c-.07-.12,5.8-3.54,13.1-7.62s13.29-7.29,13.36-7.16-5.79,3.54-13.1,7.62S328.81,330.49,328.74,330.36Z" style="fill:#e0e0e0"></path><path d="M345.58,314.52a24.49,24.49,0,0,1-3.4,3.79l0,0-.19.18-.19-.19a24.77,24.77,0,0,1-3.33-3.81,24.94,24.94,0,0,1,3.71,3.45h-.37l0,0A25,25,0,0,1,345.58,314.52Z" style="fill:#e0e0e0"></path><path d="M344.39,310.63a10.72,10.72,0,0,1-2.13,2.51l-.06.06-.18.18-.18-.17a10.18,10.18,0,0,1-2.17-2.37,9.85,9.85,0,0,1,2.52,2h-.36l.06-.06A10.39,10.39,0,0,1,344.39,310.63Z" style="fill:#e0e0e0"></path><path d="M351.38,321.63a25.07,25.07,0,0,1-5-1.13h0l-.26-.07.08-.26a26,26,0,0,1,1.71-4.77,24.06,24.06,0,0,1-1.21,4.92l-.18-.32h0A24.7,24.7,0,0,1,351.38,321.63Z" style="fill:#e0e0e0"></path><path d="M354.2,318.7a10.6,10.6,0,0,1-3.23-.64l-.08,0-.25-.06.06-.25a10.17,10.17,0,0,1,1-3.05,10.74,10.74,0,0,1-.52,3.18l-.18-.32.08,0A10.41,10.41,0,0,1,354.2,318.7Z" style="fill:#e0e0e0"></path><path d="M347.69,330.21a25.29,25.29,0,0,1-1.81-4.76v0l-.08-.25.25-.08a24.86,24.86,0,0,1,4.92-1.22,26.06,26.06,0,0,1-4.77,1.72l.17-.33v0A24.49,24.49,0,0,1,347.69,330.21Z" style="fill:#e0e0e0"></path><path d="M351.17,330.93a10.78,10.78,0,0,1-1.26-3l0-.08-.08-.25.24-.08a10.05,10.05,0,0,1,3.1-.84,10.39,10.39,0,0,1-2.92,1.33l.16-.33,0,.08A10.62,10.62,0,0,1,351.17,330.93Z" style="fill:#e0e0e0"></path><path d="M338.41,331.47a25.25,25.25,0,0,1,3.29-3.9l0,0,.18-.2.19.19a24.8,24.8,0,0,1,3.46,3.71,25,25,0,0,1-3.82-3.34h.37l0,0A25.49,25.49,0,0,1,338.41,331.47Z" style="fill:#e0e0e0"></path><path d="M339.67,334.86a10.68,10.68,0,0,1,2.06-2.58l0-.07L342,332l.19.17a10.62,10.62,0,0,1,2.24,2.3,9.84,9.84,0,0,1-2.59-1.91l.36,0-.05.06A10.43,10.43,0,0,1,339.67,334.86Z" style="fill:#e0e0e0"></path><path d="M332.74,323.88a24.91,24.91,0,0,1,5,1.2h0l.26.08-.08.25a25,25,0,0,1-1.78,4.75,26,26,0,0,1,1.28-4.9l.17.32h0A25.17,25.17,0,0,1,332.74,323.88Z" style="fill:#e0e0e0"></path><path d="M330.28,326.53a10.27,10.27,0,0,1,3.22.68l.08,0,.25.07-.07.25a10,10,0,0,1-1.06,3,10.39,10.39,0,0,1,.56-3.16l.18.31-.08,0A10.78,10.78,0,0,1,330.28,326.53Z" style="fill:#e0e0e0"></path><path d="M336.67,315.18a25.32,25.32,0,0,1,1.27,4.94v0l.06.26-.26,0a24.68,24.68,0,0,1-5,.66,25.5,25.5,0,0,1,4.93-1.17l-.21.31v0A25.18,25.18,0,0,1,336.67,315.18Z" style="fill:#e0e0e0"></path><path d="M332.78,314.71a10.68,10.68,0,0,1,.91,3.17l0,.09.05.24-.25.06a10.12,10.12,0,0,1-3.18.49,10.32,10.32,0,0,1,3.06-1l-.19.31,0-.08A10.38,10.38,0,0,1,332.78,314.71Z" style="fill:#e0e0e0"></path><path d="M254.24,72.84c-.14,0-.26-7.7-.26-17.18s.12-17.19.26-17.19.26,7.69.26,17.19S254.39,72.84,254.24,72.84Z" style="fill:#e0e0e0"></path><path d="M269.42,64.53c-.07.12-6.92-3.71-15.31-8.57s-15.12-8.9-15.05-9,6.93,3.72,15.32,8.58S269.5,64.41,269.42,64.53Z" style="fill:#e0e0e0"></path><path d="M239.44,64.08c-.07-.13,6.5-3.93,14.68-8.5s14.86-8.17,14.93-8-6.5,3.93-14.68,8.49S239.51,64.2,239.44,64.08Z" style="fill:#e0e0e0"></path><path d="M258.29,46.35a32,32,0,0,1-3.84,4.22l0,0-.19.19-.18-.19a31.55,31.55,0,0,1-3.76-4.25,31.65,31.65,0,0,1,4.13,3.88h-.37l0,0A31.09,31.09,0,0,1,258.29,46.35Z" style="fill:#e0e0e0"></path><path d="M257,42a13.35,13.35,0,0,1-2.41,2.8l-.06.06-.18.18-.19-.17a12.81,12.81,0,0,1-2.44-2.63,12.81,12.81,0,0,1,2.8,2.25h-.36l.06-.07A13.39,13.39,0,0,1,257,42Z" style="fill:#e0e0e0"></path><path d="M264.77,54.31a30.67,30.67,0,0,1-5.55-1.3h0l-.25-.07.07-.25a31.14,31.14,0,0,1,1.89-5.35,30.46,30.46,0,0,1-1.39,5.5l-.18-.33h0A31.5,31.5,0,0,1,264.77,54.31Z" style="fill:#e0e0e0"></path><path d="M267.93,51a13,13,0,0,1-3.61-.74l-.09,0-.25-.06.07-.25a12.79,12.79,0,0,1,1.11-3.42,12.49,12.49,0,0,1-.61,3.55l-.18-.32.09,0A13.61,13.61,0,0,1,267.93,51Z" style="fill:#e0e0e0"></path><path d="M260.65,63.91a30.7,30.7,0,0,1-2-5.34v0l-.08-.26.25-.07a31.05,31.05,0,0,1,5.5-1.4,31.72,31.72,0,0,1-5.34,1.9l.17-.33v0A32.24,32.24,0,0,1,260.65,63.91Z" style="fill:#e0e0e0"></path><path d="M264.54,64.72a13.23,13.23,0,0,1-1.39-3.42l0-.09-.08-.24.23-.09a13,13,0,0,1,3.47-1,13.28,13.28,0,0,1-3.29,1.46l.16-.32,0,.09A12.94,12.94,0,0,1,264.54,64.72Z" style="fill:#e0e0e0"></path><path d="M250.26,65.31A31.48,31.48,0,0,1,254,61l0,0,.18-.19.19.18a30.83,30.83,0,0,1,3.88,4.13A31.15,31.15,0,0,1,254,61.31h.37l0,0A31.41,31.41,0,0,1,250.26,65.31Z" style="fill:#e0e0e0"></path><path d="M251.67,69.11A13.72,13.72,0,0,1,254,66.24l.07-.07.17-.18.19.16a12.92,12.92,0,0,1,2.52,2.56,12.88,12.88,0,0,1-2.87-2.16l.37,0-.07.07A13,13,0,0,1,251.67,69.11Z" style="fill:#e0e0e0"></path><path d="M243.92,56.83a31.12,31.12,0,0,1,5.54,1.36h0l.25.08-.08.25a30.12,30.12,0,0,1-1.95,5.32,31.35,31.35,0,0,1,1.46-5.48l.17.33h0A32.2,32.2,0,0,1,243.92,56.83Z" style="fill:#e0e0e0"></path><path d="M241.16,59.79a12.88,12.88,0,0,1,3.6.79l.09,0,.24.08-.06.24a12.54,12.54,0,0,1-1.16,3.4,13.47,13.47,0,0,1,.65-3.53l.18.31-.09,0A13.09,13.09,0,0,1,241.16,59.79Z" style="fill:#e0e0e0"></path><path d="M248.31,47.09a31.87,31.87,0,0,1,1.39,5.53v0l0,.26-.26,0a31.93,31.93,0,0,1-5.62.77,31.08,31.08,0,0,1,5.52-1.29l-.2.31v0A31.25,31.25,0,0,1,248.31,47.09Z" style="fill:#e0e0e0"></path><path d="M244,46.57a13.18,13.18,0,0,1,1,3.55v.09l.06.25-.25.06a13.12,13.12,0,0,1-3.55.58A12.78,12.78,0,0,1,244.65,50l-.2.31v-.1A13.3,13.3,0,0,1,244,46.57Z" style="fill:#e0e0e0"></path><path d="M644.61,97c-.15,0-.26-13-.26-29s.11-29.05.26-29.05.26,13,.26,29.05S644.75,97,644.61,97Z" style="fill:#e0e0e0"></path><path d="M670.27,83c-.07.13-11.62-6.43-25.79-14.65s-25.61-15-25.54-15.1,11.62,6.44,25.8,14.65S670.35,82.83,670.27,83Z" style="fill:#e0e0e0"></path><path d="M619.58,82.19c-.07-.13,11.08-6.49,24.9-14.21s25.09-13.88,25.16-13.76-11.08,6.49-24.91,14.21S619.65,82.31,619.58,82.19Z" style="fill:#e0e0e0"></path><path d="M651.44,52.22a15.12,15.12,0,0,1-1.86,2.13c-1.19,1.27-2.87,3-4.75,4.88l0,.05-.18.18-.19-.19c-1.84-1.9-3.49-3.64-4.66-4.91a15.67,15.67,0,0,1-1.82-2.14A15.1,15.1,0,0,1,640,54.1c1.24,1.21,2.93,2.91,4.77,4.81h-.37l0,0c1.88-1.89,3.6-3.58,4.86-4.78A15.37,15.37,0,0,1,651.44,52.22Z" style="fill:#e0e0e0"></path><path d="M649.18,44.85a37.34,37.34,0,0,1-4.19,4.6l-.12.11-.17.18-.19-.17a35.7,35.7,0,0,1-4.26-4.32,36.35,36.35,0,0,1,4.62,3.94h-.37l.12-.12A37.67,37.67,0,0,1,649.18,44.85Z" style="fill:#e0e0e0"></path><path d="M662.41,65.68a16.09,16.09,0,0,1-2.77-.59c-1.69-.43-4-1.06-6.58-1.78l0,0-.26-.07.08-.26c.77-2.53,1.49-4.81,2-6.46a15.35,15.35,0,0,1,1-2.63,14.81,14.81,0,0,1-.64,2.74c-.45,1.67-1.12,4-1.88,6.51l-.18-.33.06,0c2.56.72,4.87,1.4,6.53,1.92A14.82,14.82,0,0,1,662.41,65.68Z" style="fill:#e0e0e0"></path><path d="M667.75,60.12a37,37,0,0,1-6.06-1.43l-.15,0-.25-.06.06-.25a37.9,37.9,0,0,1,1.71-5.82,36.25,36.25,0,0,1-1.2,6l-.18-.32.15,0A37.39,37.39,0,0,1,667.75,60.12Z" style="fill:#e0e0e0"></path><path d="M655.43,81.91a15.49,15.49,0,0,1-1-2.63c-.58-1.64-1.35-3.93-2.17-6.46l0,0-.08-.25.25-.08c2.53-.77,4.83-1.44,6.5-1.9a14.81,14.81,0,0,1,2.74-.64,15.35,15.35,0,0,1-2.63,1c-1.64.55-3.93,1.28-6.46,2l.17-.33,0,0c.82,2.53,1.54,4.83,2,6.51A15,15,0,0,1,655.43,81.91Z" style="fill:#e0e0e0"></path><path d="M662,83.27a37.63,37.63,0,0,1-2.18-5.84l-.05-.15-.07-.24L660,77a37.27,37.27,0,0,1,5.79-1.82,35.33,35.33,0,0,1-5.61,2.31l.16-.33.05.15A38.77,38.77,0,0,1,662,83.27Z" style="fill:#e0e0e0"></path><path d="M637.87,84.28a15.7,15.7,0,0,1,1.8-2.19c1.15-1.3,2.78-3.08,4.59-5l0,0,.18-.19.2.18c1.9,1.85,3.59,3.53,4.8,4.77a14.52,14.52,0,0,1,1.89,2.09,15.67,15.67,0,0,1-2.14-1.82c-1.28-1.17-3-2.82-4.92-4.66h.37l0,0c-1.81,1.94-3.48,3.68-4.71,4.92A14,14,0,0,1,637.87,84.28Z" style="fill:#e0e0e0"></path><path d="M640.26,90.7a36.62,36.62,0,0,1,4-4.73l.11-.12.17-.18.19.17A35.17,35.17,0,0,1,649.17,90a37.37,37.37,0,0,1-4.73-3.8l.36,0-.11.12A37.63,37.63,0,0,1,640.26,90.7Z" style="fill:#e0e0e0"></path><path d="M627.15,69.93a14.88,14.88,0,0,1,2.76.62c1.68.45,4,1.11,6.55,1.86l.06,0,.25.07-.08.26c-.79,2.52-1.54,4.8-2.11,6.43a14.31,14.31,0,0,1-1,2.62,17.11,17.11,0,0,1,.67-2.73c.48-1.66,1.17-4,2-6.48l.17.33-.06,0c-2.55-.75-4.85-1.46-6.51-2A15.21,15.21,0,0,1,627.15,69.93Z" style="fill:#e0e0e0"></path><path d="M622.48,74.94a36.53,36.53,0,0,1,6,1.5l.15,0,.25.07-.07.25a36,36,0,0,1-1.78,5.8,36.53,36.53,0,0,1,1.28-5.94l.18.32-.16,0A37.67,37.67,0,0,1,622.48,74.94Z" style="fill:#e0e0e0"></path><path d="M634.57,53.47a15.67,15.67,0,0,1,.75,2.73c.39,1.7.9,4,1.43,6.66v.06l0,.26-.26,0c-2.6.48-5,.88-6.67,1.15a15.05,15.05,0,0,1-2.79.33,15.16,15.16,0,0,1,2.72-.69c1.7-.36,4-.82,6.65-1.3l-.21.3V63c-.53-2.61-1-5-1.28-6.7A14.74,14.74,0,0,1,634.57,53.47Z" style="fill:#e0e0e0"></path><path d="M627.21,52.59a37.53,37.53,0,0,1,1.5,6l0,.15,0,.25-.24.06a35.4,35.4,0,0,1-6,1.15,36.82,36.82,0,0,1,5.84-1.66l-.2.31,0-.16A37.22,37.22,0,0,1,627.21,52.59Z" style="fill:#e0e0e0"></path><path d="M89.12,130.42c-.14,0-.26-8.41-.26-18.78s.12-18.79.26-18.79.26,8.41.26,18.79S89.26,130.42,89.12,130.42Z" style="fill:#e0e0e0"></path><path d="M105.72,121.34c-.08.12-7.57-4.08-16.73-9.4s-16.54-9.72-16.47-9.84,7.56,4.08,16.73,9.39S105.79,121.21,105.72,121.34Z" style="fill:#e0e0e0"></path><path d="M72.94,120.84c-.07-.12,7.12-4.27,16-9.27s16.24-8.94,16.31-8.81-7.11,4.27-16,9.27S73,121,72.94,120.84Z" style="fill:#e0e0e0"></path><path d="M93.54,101.46a37.6,37.6,0,0,1-4.21,4.6l0,0-.18.19-.19-.19a37.49,37.49,0,0,1-4.12-4.63,37.94,37.94,0,0,1,4.5,4.27h-.37l0,0A38.4,38.4,0,0,1,93.54,101.46Z" style="fill:#e0e0e0"></path><path d="M92.08,96.7a16.24,16.24,0,0,1-2.65,3l-.07.07-.18.18L89,99.82A15.63,15.63,0,0,1,86.3,97a14.94,14.94,0,0,1,3,2.48H89l.07-.07A15.52,15.52,0,0,1,92.08,96.7Z" style="fill:#e0e0e0"></path><path d="M100.63,110.16a36.44,36.44,0,0,1-6.07-1.44h0l-.26-.07.08-.26a37,37,0,0,1,2-5.85,38,38,0,0,1-1.54,6l-.18-.33h0A39.67,39.67,0,0,1,100.63,110.16Z" style="fill:#e0e0e0"></path><path d="M104.08,106.57a15.28,15.28,0,0,1-3.94-.84l-.1,0-.24-.07.06-.25a15.45,15.45,0,0,1,1.19-3.74,15.09,15.09,0,0,1-.69,3.87l-.18-.31.1,0A15.52,15.52,0,0,1,104.08,106.57Z" style="fill:#e0e0e0"></path><path d="M96.12,120.66A36.94,36.94,0,0,1,94,114.81v0l-.08-.25.25-.08a36.23,36.23,0,0,1,6-1.55,38.4,38.4,0,0,1-5.85,2l.18-.33v0A37.29,37.29,0,0,1,96.12,120.66Z" style="fill:#e0e0e0"></path><path d="M100.38,121.54a15.59,15.59,0,0,1-1.5-3.75l0-.09-.08-.24.24-.09a15,15,0,0,1,3.78-1.08,15.51,15.51,0,0,1-3.6,1.57l.16-.32,0,.09A16.22,16.22,0,0,1,100.38,121.54Z" style="fill:#e0e0e0"></path><path d="M84.76,122.19a39.11,39.11,0,0,1,4.07-4.72l0,0,.18-.2.19.19a35.66,35.66,0,0,1,4.26,4.5,36.67,36.67,0,0,1-4.62-4.13h.37l0,0A36.85,36.85,0,0,1,84.76,122.19Z" style="fill:#e0e0e0"></path><path d="M86.31,126.34a16.12,16.12,0,0,1,2.55-3.12l.07-.07.17-.19.19.17a14.8,14.8,0,0,1,2.78,2.78A15.32,15.32,0,0,1,89,123.52l.36,0-.07.08A15.81,15.81,0,0,1,86.31,126.34Z" style="fill:#e0e0e0"></path><path d="M77.83,112.91a39.58,39.58,0,0,1,6,1.52h0l.25.08-.08.25A36.77,36.77,0,0,1,82,120.6a36.26,36.26,0,0,1,1.61-6l.18.33h0A36.35,36.35,0,0,1,77.83,112.91Z" style="fill:#e0e0e0"></path><path d="M74.81,116.15a16.17,16.17,0,0,1,3.93.89l.1,0,.25.07-.07.24a14.83,14.83,0,0,1-1.24,3.73,15.52,15.52,0,0,1,.74-3.86l.18.32-.1,0A15.81,15.81,0,0,1,74.81,116.15Z" style="fill:#e0e0e0"></path><path d="M82.63,102.27a38.54,38.54,0,0,1,1.5,6.06v0l0,.26-.26,0a37.53,37.53,0,0,1-6.14.87,37.37,37.37,0,0,1,6-1.38l-.2.31v0A37.28,37.28,0,0,1,82.63,102.27Z" style="fill:#e0e0e0"></path><path d="M77.87,101.7a15.52,15.52,0,0,1,1.06,3.89l0,.1,0,.25-.24.06a15,15,0,0,1-3.88.65,15.36,15.36,0,0,1,3.76-1.16l-.2.3,0-.1A16,16,0,0,1,77.87,101.7Z" style="fill:#e0e0e0"></path><path d="M78.57,368.74c-.14,0-.26-12.18-.26-27.2s.12-27.2.26-27.2.26,12.18.26,27.2S78.72,368.74,78.57,368.74Z" style="fill:#e0e0e0"></path><path d="M102.61,355.59c-.08.12-10.9-6-24.17-13.7s-24-14-23.9-14.16,10.89,6,24.17,13.71S102.68,355.46,102.61,355.59Z" style="fill:#e0e0e0"></path><path d="M55.14,354.87c-.07-.12,10.37-6.09,23.31-13.32s23.49-13,23.56-12.86S91.64,334.78,78.7,342,55.21,355,55.14,354.87Z" style="fill:#e0e0e0"></path><path d="M85,326.81a13.23,13.23,0,0,1-1.73,2c-1.12,1.19-2.69,2.81-4.44,4.58l0,0-.19.19-.18-.19c-1.73-1.78-3.27-3.41-4.36-4.61a13.46,13.46,0,0,1-1.7-2,12.7,12.7,0,0,1,2,1.76c1.16,1.13,2.74,2.72,4.47,4.49h-.37l0,0c1.75-1.76,3.37-3.34,4.55-4.47A13.45,13.45,0,0,1,85,326.81Z" style="fill:#e0e0e0"></path><path d="M82.86,319.91a32.52,32.52,0,0,1-3.92,4.32l-.1.11-.18.18-.19-.18a32.15,32.15,0,0,1-4-4.06A32.13,32.13,0,0,1,78.83,324h-.36l.1-.11A33.54,33.54,0,0,1,82.86,319.91Z" style="fill:#e0e0e0"></path><path d="M95.24,339.41a13,13,0,0,1-2.59-.54c-1.59-.4-3.77-1-6.16-1.66l-.06,0-.25-.07.08-.25c.71-2.38,1.39-4.51,1.9-6.05a13.38,13.38,0,0,1,.94-2.46,13.2,13.2,0,0,1-.58,2.56c-.43,1.57-1,3.72-1.77,6.1l-.17-.33,0,0c2.4.67,4.56,1.32,6.12,1.8A13.34,13.34,0,0,1,95.24,339.41Z" style="fill:#e0e0e0"></path><path d="M100.24,334.21a33,33,0,0,1-5.68-1.33l-.14,0-.24-.07.06-.24a32.94,32.94,0,0,1,1.61-5.45,30.54,30.54,0,0,1-1.11,5.57l-.18-.31.14,0A32.35,32.35,0,0,1,100.24,334.21Z" style="fill:#e0e0e0"></path><path d="M88.71,354.61a13.52,13.52,0,0,1-1-2.46c-.55-1.54-1.27-3.67-2-6l0-.05-.08-.26.26-.07c2.37-.73,4.52-1.35,6.09-1.78a13.2,13.2,0,0,1,2.56-.58,14.34,14.34,0,0,1-2.46.94c-1.53.51-3.67,1.19-6,1.91l.17-.33,0,.06c.76,2.37,1.43,4.52,1.89,6.09A13.2,13.2,0,0,1,88.71,354.61Z" style="fill:#e0e0e0"></path><path d="M94.87,355.88a33.79,33.79,0,0,1-2.05-5.46l0-.14L92.7,350l.24-.08a31.88,31.88,0,0,1,5.43-1.69,31.61,31.61,0,0,1-5.26,2.18l.16-.33,0,.14A32.88,32.88,0,0,1,94.87,355.88Z" style="fill:#e0e0e0"></path><path d="M72.27,356.83a13.75,13.75,0,0,1,1.67-2.06c1.08-1.22,2.6-2.89,4.3-4.71l0,0,.18-.19.19.18c1.78,1.73,3.37,3.31,4.5,4.47a13.51,13.51,0,0,1,1.75,2,13.7,13.7,0,0,1-2-1.69c-1.19-1.1-2.82-2.64-4.6-4.36h.37l0,0c-1.7,1.82-3.26,3.45-4.41,4.61A13.27,13.27,0,0,1,72.27,356.83Z" style="fill:#e0e0e0"></path><path d="M74.5,362.84a32.77,32.77,0,0,1,3.79-4.44l.1-.11.17-.18.19.16a31.51,31.51,0,0,1,4.1,3.94,31.5,31.5,0,0,1-4.44-3.54l.36,0-.1.11A32.6,32.6,0,0,1,74.5,362.84Z" style="fill:#e0e0e0"></path><path d="M62.23,343.39a13.36,13.36,0,0,1,2.58.58c1.58.41,3.75,1,6.14,1.73l0,0,.26.07-.08.26c-.75,2.36-1.45,4.49-2,6a12.84,12.84,0,0,1-1,2.45,13.72,13.72,0,0,1,.62-2.56c.44-1.56,1.09-3.71,1.83-6.07l.18.33-.06,0c-2.38-.71-4.54-1.37-6.09-1.88A13.28,13.28,0,0,1,62.23,343.39Z" style="fill:#e0e0e0"></path><path d="M57.86,348.08a32.82,32.82,0,0,1,5.66,1.4l.14,0,.24.07-.06.25a32.74,32.74,0,0,1-1.68,5.42,31,31,0,0,1,1.17-5.56l.18.32-.14,0A31.8,31.8,0,0,1,57.86,348.08Z" style="fill:#e0e0e0"></path><path d="M69.18,328a14.45,14.45,0,0,1,.71,2.56c.37,1.59.85,3.79,1.34,6.23v.06l.06.26-.26,0c-2.44.45-4.65.83-6.26,1.08a13.32,13.32,0,0,1-2.61.3,13.1,13.1,0,0,1,2.55-.66c1.58-.34,3.78-.78,6.22-1.23l-.21.31v-.05c-.49-2.45-.92-4.66-1.2-6.27A13.93,13.93,0,0,1,69.18,328Z" style="fill:#e0e0e0"></path><path d="M62.28,327.15a33.22,33.22,0,0,1,1.43,5.66l0,.14,0,.25-.25.06A30.87,30.87,0,0,1,58,334.32a32.23,32.23,0,0,1,5.46-1.57l-.19.31,0-.15A32.76,32.76,0,0,1,62.28,327.15Z" style="fill:#e0e0e0"></path><path d="M71.64,182.11a5.07,5.07,0,1,1-5.06-5.06A5.06,5.06,0,0,1,71.64,182.11Z" style="fill:#ebebeb"></path><circle cx="466.18" cy="208.04" r="5.07" style="fill:#ebebeb"></circle><circle cx="240.91" cy="333.25" r="5.06" style="fill:#ebebeb"></circle><circle cx="658.13" cy="149.25" r="5.06" style="fill:#ebebeb"></circle><circle cx="694.16" cy="388.35" r="5.06" style="fill:#ebebeb"></circle><circle cx="162.45" cy="93.94" r="2.53" style="fill:#ebebeb"></circle><circle cx="161.22" cy="314.34" r="2.53" style="fill:#ebebeb"></circle><circle cx="500.74" cy="252.73" r="2.53" style="fill:#ebebeb"></circle><circle cx="723.9" cy="115.92" r="2.53" style="fill:#ebebeb"></circle><circle cx="104.08" cy="47.12" r="2.53" style="fill:#ebebeb"></circle><circle cx="353.13" cy="92.34" r="2.53" style="fill:#ebebeb"></circle><circle cx="577.45" cy="80.74" r="2.53" style="fill:#ebebeb"></circle><circle cx="398.75" cy="50.82" r="2.53" style="fill:#ebebeb"></circle><path d="M618.82,390.38a11.72,11.72,0,0,0-7.19,5.79,20.63,20.63,0,0,0-2.38,9.1c-.35,6.12,2,12.76,4.87,18.18,5.81-3.55,8.28-11,9.3-14.92,1.61-6.13.8-18.19-4.6-18.15" style="fill:#ebebeb"></path><path d="M606.56,432.34a10.06,10.06,0,0,0-1.59-10,13.37,13.37,0,0,0-9.2-4.7c-1.63-.15-3.44,0-4.59,1.19a4.3,4.3,0,0,0-.8,4.28,8.71,8.71,0,0,0,2.65,3.68c3.9,3.5,8.33,6.16,13.53,5.52" style="fill:#ebebeb"></path><path d="M609.89,451.84a6.88,6.88,0,0,0,0-1.26c0-.9,0-2.05,0-3.44a35.29,35.29,0,0,0-1.62-11.23,21.56,21.56,0,0,0-6.25-9.42,14.79,14.79,0,0,0-2.88-1.91c-.35-.19-.66-.29-.85-.38a1,1,0,0,0-.32-.1,22.87,22.87,0,0,1,3.85,2.63,22.35,22.35,0,0,1,6,9.33,38.12,38.12,0,0,1,1.73,11.09c.06,1.45.12,2.62.18,3.43A7,7,0,0,0,609.89,451.84Z" style="fill:#e0e0e0"></path><path d="M618.63,399.61a2.31,2.31,0,0,0-.16.53c-.09.39-.21.9-.35,1.53-.31,1.33-.72,3.26-1.2,5.65-1,4.78-2.24,11.4-3.46,18.74s-2.18,14-2.81,18.86c-.31,2.42-.55,4.38-.69,5.74-.07.64-.12,1.15-.16,1.56a3.74,3.74,0,0,0,0,.55,2.15,2.15,0,0,0,.12-.54l.24-1.55c.2-1.41.49-3.35.83-5.72.71-4.82,1.71-11.48,2.93-18.82s2.43-14,3.33-18.76c.44-2.36.8-4.28,1.07-5.68l.27-1.54A3.23,3.23,0,0,0,618.63,399.61Z" style="fill:#e0e0e0"></path><path d="M614.67,437.49a23.55,23.55,0,0,1,15.57-14.83c1.83-.52,4.12-.67,5.3.82s.47,3.7-.5,5.33A20.11,20.11,0,0,1,614.71,438" style="fill:#ebebeb"></path><path d="M628.45,428.21a5.92,5.92,0,0,0-1.15.28c-.37.11-.82.24-1.32.44s-1.1.39-1.71.71a21,21,0,0,0-2,1,23,23,0,0,0-2.17,1.39,26.44,26.44,0,0,0-4.35,4,25.64,25.64,0,0,0-3.26,4.91,22.13,22.13,0,0,0-1,2.37,16.74,16.74,0,0,0-.68,2.13,15.73,15.73,0,0,0-.39,1.81,11,11,0,0,0-.2,1.37,6.63,6.63,0,0,0-.07,1.19c.1,0,.22-1.68,1-4.28a20.88,20.88,0,0,1,.72-2.09,25.35,25.35,0,0,1,1-2.32,26.94,26.94,0,0,1,3.23-4.8,27.46,27.46,0,0,1,4.25-3.93,23.4,23.4,0,0,1,2.12-1.4c.67-.43,1.34-.75,1.94-1.06C626.84,428.73,628.48,428.3,628.45,428.21Z" style="fill:#e0e0e0"></path></g><g id="background-simple"><path d="M471.12,95.71l-1.61-2.64c-13.52-22.3-38-35.73-63.77-34.1a68.67,68.67,0,0,0-9.87,1.35c-23.45,5-43.85,22.75-52.3,45.46-5,13.35-6.37,28.73-15.8,39.33-12.28,13.79-33.14,14.23-51.47,13.65s-39.2-.08-51.42,13.77c-7.66,8.67-10.09,21-9.47,32.62,1.63,30.76,23.06,58.26,50.32,71.92S325.07,292,354.89,286c41.79-8.42,81.52-31.55,105.41-67.28S490.23,134.27,471.12,95.71Z" style="fill:#ebebeb"></path><circle cx="277.38" cy="98.84" r="24.8" style="fill:#ebebeb"></circle></g><g id="Plant"><path d="M116.91,371.57a15.21,15.21,0,0,1,9.28,7.47,26.83,26.83,0,0,1,3.07,11.74c.44,7.89-2.62,16.45-6.29,23.43-7.49-4.57-10.68-14.22-12-19.23-2.08-7.9-1-23.45,5.93-23.41" style="fill:#FF725E"></path><path d="M132.72,425.69a13,13,0,0,1,2.05-12.87,17.24,17.24,0,0,1,11.86-6.05c2.1-.2,4.44,0,5.92,1.53a5.53,5.53,0,0,1,1,5.52,11.22,11.22,0,0,1-3.41,4.75c-5,4.5-10.74,7.94-17.45,7.12" style="fill:#FF725E"></path><path d="M128.43,450.83a8,8,0,0,1,0-1.63c0-1.15,0-2.64.05-4.43.1-3.71.15-9,2.09-14.48a27.92,27.92,0,0,1,8.05-12.15,19.4,19.4,0,0,1,3.71-2.46c.47-.25.86-.38,1.11-.49s.4-.15.4-.13a30.15,30.15,0,0,0-5,3.39,28.84,28.84,0,0,0-7.79,12c-1.89,5.36-2,10.6-2.22,14.31-.08,1.86-.15,3.38-.23,4.42A10.27,10.27,0,0,1,128.43,450.83Z" style="fill:#263238"></path><path d="M117.16,383.48a3.17,3.17,0,0,1,.2.68l.46,2c.39,1.72.92,4.21,1.55,7.29,1.26,6.16,2.88,14.7,4.46,24.17s2.81,18.08,3.61,24.32c.41,3.12.71,5.64.9,7.39.08.83.15,1.5.2,2a3.77,3.77,0,0,1,0,.71,3.48,3.48,0,0,1-.15-.7c-.08-.51-.18-1.18-.31-2-.27-1.81-.63-4.31-1.08-7.37-.91-6.22-2.2-14.81-3.78-24.27s-3.13-18-4.29-24.19c-.57-3-1-5.52-1.37-7.32-.15-.82-.26-1.48-.36-2A3.31,3.31,0,0,1,117.16,383.48Z" style="fill:#263238"></path><path d="M122.26,432.32a30.36,30.36,0,0,0-20.08-19.12c-2.36-.67-5.32-.86-6.83,1.06s-.61,4.77.65,6.87A25.92,25.92,0,0,0,122.21,433" style="fill:#FF725E"></path><path d="M104.49,420.36a7.5,7.5,0,0,1,1.48.36,15.47,15.47,0,0,1,1.71.57c.64.27,1.41.5,2.2.91a27.37,27.37,0,0,1,2.56,1.32,28.29,28.29,0,0,1,2.8,1.79,31.05,31.05,0,0,1,9.81,11.45,28.56,28.56,0,0,1,1.31,3.05,24.1,24.1,0,0,1,.88,2.76c.26.84.36,1.64.51,2.32a15,15,0,0,1,.25,1.78,9.64,9.64,0,0,1,.09,1.53c-.13,0-.28-2.17-1.24-5.52a24.87,24.87,0,0,0-.93-2.7,27.28,27.28,0,0,0-1.34-3,34.48,34.48,0,0,0-4.16-6.2,35.13,35.13,0,0,0-5.49-5.07,31.05,31.05,0,0,0-2.72-1.8,28,28,0,0,0-2.51-1.37C106.56,421,104.45,420.48,104.49,420.36Z" style="fill:#263238"></path></g><g id="penguin-3"><path d="M558,160.5c.08-.13,2.83,1.47,6.5,2.79s6.81,1.87,6.78,2a7.6,7.6,0,0,1-2.08-.21,31.09,31.09,0,0,1-4.88-1.33,30.29,30.29,0,0,1-4.58-2.1A6.85,6.85,0,0,1,558,160.5Z" style="fill:#455a64"></path><path d="M551.31,163.73a8.88,8.88,0,0,1,2.24-.39,37.26,37.26,0,0,1,5.48-.12,35.91,35.91,0,0,1,5.43.69,8.29,8.29,0,0,1,2.18.61c0,.16-3.41-.57-7.64-.78S551.33,163.89,551.31,163.73Z" style="fill:#455a64"></path><path d="M533.4,438.25s5.13,14.69,6.09,14.45,31.85,0,31.85,0-1.18-3.6-8.49-3.6-12.59.48-12.59.48l-3.11-7.39Z" style="fill:#263238"></path><path d="M556.55,451.69S567.44,448,570.16,449s6.26,3.49,5,3.76a14.13,14.13,0,0,1-3.56,0l-15.89-1.08" style="fill:#263238"></path><path d="M526.11,193.29S511.34,206.09,509,212s-12.63,26.33-14.27,32.24-13,22.91-13,47.2-1.31,54.83,4.93,84.05,5.25,33.48,2,44.64S455.53,453,455.53,453s49.57,4.27,67.63-9.19a6.32,6.32,0,0,1,5.58-2c3.28.66,13.13,7.88,16.08,5.25s6.24-4.27,4.93-9.52-3.94-6.89-1.64-12.14,16.74-17.08,23.31-38.74,18.05-68.94,18.38-81.42-.66-55.15-1.31-68-7.23-32.17-11.17-34.8c0,0,5.24-7.55,13.64-9.19s19.46-4,30.07,1.3c0,0,1.33-.14.89-1s-6-7.07-14.89-10.32-12.83-4.42-14.45-6.19S578,164.26,564.42,163.78C543.64,163.05,534.24,175.77,526.11,193.29Z" style="fill:#455a64"></path><path d="M579.3,200.14s-10.48-1.59-14.58-6.07,3.73-7.46,1.12-15.3-19.78-2.61-25.38,0-5.6,7.84-5.22,16.42,18.66,8.21,28,11.94.58,41.36.72,54.14-17.14,94.4-17.14,94.4c-6.64,4.41-13.61,9.21-16.85,16.49-2.88,6.47-2.34,13.87-1.75,20.91q1.65,19.53,3.28,39.06c.23,2.7.22,5.93-2,7.47-2.57,1.77-6-.05-8.58-1.84l-8.84-6.18a4.54,4.54,0,0,0-2.16-1,4.08,4.08,0,0,0-2.93,1.47c-3.8,3.74-5.84,9-9.66,12.73-3.33,3.26-7.95,5.3-11.26,8.44,13.77-.82,28.79-3.26,37.11-9.46a6.32,6.32,0,0,1,5.58-2c3.28.66,6.89,5.8,10.82,6.19,8.3.83,11.5-5.21,10.19-10.46s-3.94-6.89-1.64-12.14,16.74-17.08,23.31-38.74,17.53-67,18.38-81.42c1.07-18.22-.66-55.15-1.31-68s-7.23-32.17-11.17-34.8a22.35,22.35,0,0,1,2-2.34Z" style="fill:#e0e0e0"></path><path d="M621.31,193.86c-7.15-6.32-19.62-9.17-25-8.73-1.87.15-3.92.66-4.95,2.24a.79.79,0,0,0-.15.74.81.81,0,0,0,.55.35,11.36,11.36,0,0,0,3.45.17c5.25-.22,13.49-1.51,26.14,5.23" style="fill:#FF725E"></path><path d="M552.89,175.27a4.9,4.9,0,0,0-2.89,6.51c1,2.06,3.24,3.12,4.82,4.76s2.41,3.81,3.66,5.7c1.68,2.53,4.51,4.67,7.52,4.28a1.31,1.31,0,0,0,1.11-.63c.3-.7-.53-1.3-1.1-1.8-1.81-1.6-1.52-4.52-.67-6.79s2.13-4.55,1.79-7c-.41-2.83-3.08-4.92-5.87-5.56s-5.71-.13-8.53.37" style="fill:#FF725E"></path><path d="M620.76,195c0,.09-1.59-.91-4.25-2.16a40.94,40.94,0,0,0-10.94-3.31,49.63,49.63,0,0,0-11.45-.41c-1.47.1-2.66.22-3.48.31a5.84,5.84,0,0,1-1.28.09,6.43,6.43,0,0,1,1.25-.29c.82-.15,2-.33,3.48-.48a45,45,0,0,1,11.56.26,37.72,37.72,0,0,1,11,3.5,29.57,29.57,0,0,1,3,1.74A6.2,6.2,0,0,1,620.76,195Z" style="fill:#263238"></path><path d="M573.67,295.15a97.91,97.91,0,0,0-4-12c-5-13.62-5.33-28.77-4.17-42.51l-28.36,10.94a41.24,41.24,0,0,0,.48,40.47c2.21,3.72,5.08,7.23,5.94,11.47.67,3.31,0,6.78.74,10.08.63,2.94,2.29,5.58,2.94,8.51.85,3.8-.06,7.74-.84,11.55-1.8,8.87-2.76,18.72,2,26.42a4.24,4.24,0,0,0,1.38,1.53c1.24.73,2.82.23,4.1-.44,6-3.19,9.59-9.53,12.82-15.53a67.09,67.09,0,0,0,5.5-12c1.49-4.91,1.83-10.08,2.16-15.2C574.91,310.63,575.4,302.73,573.67,295.15Z" style="fill:#455a64"></path><g style="clip-path:url(#clip-path)"><path d="M546.33,354.22a72.91,72.91,0,0,0-.76-64.69c-1.21-2.32-3-4.85-5.58-5-2.79-.17-5,2.65-5.32,5.43s.69,5.51,1.46,8.2c3.19,11.23,2.23,23.18,3.9,34.72a76.92,76.92,0,0,0,5.86,20.26" style="fill:#ebebeb"></path></g><path d="M565.52,240.65s0,.22,0,.64-.07,1.06-.12,1.87c-.08,1.65-.24,4.08-.28,7.21a98,98,0,0,0,2.77,26.28c1.27,5.46,4.07,11,5.75,17.41s1.68,13.61,1.23,21c-.24,3.7-.41,7.49-.89,11.36a40.24,40.24,0,0,1-3.05,11.5c-1.62,3.72-3.63,7.3-5.64,11a37.09,37.09,0,0,1-7.69,10.1,20.3,20.3,0,0,1-2.61,1.91,9.29,9.29,0,0,1-3,1.29,3.59,3.59,0,0,1-1.69-.06,2.93,2.93,0,0,1-1.41-.95,8.27,8.27,0,0,1-.9-1.34c-.24-.47-.54-.91-.75-1.39a27.1,27.1,0,0,1-2.53-12.05,59.7,59.7,0,0,1,1.3-11.83c.74-3.8,1.7-7.54,1.23-11.19s-2.67-6.73-3.24-10.29.06-7-.78-10.15-2.63-5.83-4.27-8.4a43.06,43.06,0,0,1-4.11-7.8A41.91,41.91,0,0,1,532,271.89a42.43,42.43,0,0,1,1.48-11.32A38.75,38.75,0,0,1,536,253.8c.38-.71.68-1.26.88-1.65s.32-.56.32-.56-.08.2-.27.58l-.84,1.68a41.76,41.76,0,0,0-2.43,6.77,43,43,0,0,0-1.38,11.27,41.69,41.69,0,0,0,2.93,14.69,42.78,42.78,0,0,0,4.11,7.72c1.64,2.56,3.51,5.25,4.35,8.51s.24,6.77.81,10.18,2.79,6.51,3.27,10.31-.49,7.56-1.22,11.34a59.87,59.87,0,0,0-1.28,11.74,26.63,26.63,0,0,0,2.49,11.82c.2.47.49.9.73,1.36a7.47,7.47,0,0,0,.84,1.26,2.61,2.61,0,0,0,2.62.84,8.64,8.64,0,0,0,2.81-1.23,19.16,19.16,0,0,0,2.54-1.85,36.64,36.64,0,0,0,7.58-10c2-3.64,4-7.23,5.62-10.91a39.87,39.87,0,0,0,3-11.36c.48-3.84.66-7.63.9-11.33.47-7.37.48-14.48-1.17-20.86s-4.43-11.91-5.69-17.41a96.78,96.78,0,0,1-2.61-26.38C565.08,244.09,565.52,240.65,565.52,240.65Z" style="fill:#263238"></path><path d="M567,231.57a3.84,3.84,0,0,1,0-1c.08-.78.18-1.72.29-2.82a48.07,48.07,0,0,0,.25-9.28,21.67,21.67,0,0,0-2.63-8.8,30.93,30.93,0,0,0-2.22-3.14s.31.2.79.68a13.92,13.92,0,0,1,1.75,2.27,20.48,20.48,0,0,1,2.83,8.94,40.79,40.79,0,0,1-.4,9.38c-.17,1.19-.33,2.14-.46,2.8A4.48,4.48,0,0,1,567,231.57Z" style="fill:#263238"></path><path d="M522.84,251.59a14.56,14.56,0,0,1,1.08-3.68,14.73,14.73,0,0,1,1.56-3.49,13.69,13.69,0,0,1-1.07,3.67A14,14,0,0,1,522.84,251.59Z" style="fill:#263238"></path><path d="M525.11,255a24.15,24.15,0,0,1,1.88-6.79,23.91,23.91,0,0,1-1.88,6.79Z" style="fill:#263238"></path><path d="M527,259.88a9.15,9.15,0,0,1,.12-3.05,8.86,8.86,0,0,1,.64-3,17.73,17.73,0,0,1-.76,6Z" style="fill:#263238"></path><path d="M496.82,355.67a29,29,0,0,1-1.57-5.22,29.83,29.83,0,0,1-1.07-5.34,55.15,55.15,0,0,1,2.64,10.56Z" style="fill:#263238"></path><path d="M499.84,355.67a18.39,18.39,0,0,1-1.57-4.07,18.15,18.15,0,0,1-1.07-4.23,18.39,18.39,0,0,1,1.57,4.07A18,18,0,0,1,499.84,355.67Z" style="fill:#263238"></path><path d="M503.17,357.58a11.13,11.13,0,0,1-1.39-3.12,11.37,11.37,0,0,1-.91-3.28,11.15,11.15,0,0,1,1.4,3.11A11.64,11.64,0,0,1,503.17,357.58Z" style="fill:#263238"></path><path d="M503.71,417.48a22.46,22.46,0,0,1-2.29-6.41,11.3,11.3,0,0,1,1.39,3.12A10.81,10.81,0,0,1,503.71,417.48Z" style="fill:#263238"></path><path d="M508.51,419.4a10,10,0,0,1-3.39-7.17c.16,0,.48,1.74,1.43,3.71S508.63,419.29,508.51,419.4Z" style="fill:#263238"></path><path d="M513.05,420.9a5.7,5.7,0,0,1-1.95-2.54,5.45,5.45,0,0,1-.73-3.11c.15,0,.46,1.35,1.2,2.89S513.17,420.79,513.05,420.9Z" style="fill:#263238"></path><path d="M555.34,437.86s-.26,0-.7-.08a8.05,8.05,0,0,1-1.82-.67,9.55,9.55,0,0,1-5.05-10.84,8,8,0,0,1,.65-1.82,1.91,1.91,0,0,1,.39-.6c.09,0-.4.93-.68,2.49A9.79,9.79,0,0,0,553,436.79C554.37,437.57,555.37,437.77,555.34,437.86Z" style="fill:#ebebeb"></path><path d="M507.62,201.06c0-.09,1.25.2,3.25.23a18.64,18.64,0,0,0,7.61-1.46,18.84,18.84,0,0,0,6.33-4.46c1.36-1.47,2-2.56,2.08-2.51a2.53,2.53,0,0,1-.39.8,14.83,14.83,0,0,1-1.42,2,17.32,17.32,0,0,1-14.22,6,14.25,14.25,0,0,1-2.39-.33A3.19,3.19,0,0,1,507.62,201.06Z" style="fill:#455a64"></path><path d="M508.27,204.12a52,52,0,0,0,5.75-1.48,56.72,56.72,0,0,0,5.35-2.58,13.46,13.46,0,0,1-5.17,3.07A13.13,13.13,0,0,1,508.27,204.12Z" style="fill:#455a64"></path><path d="M582.75,178.68l-.41-.08a3,3,0,1,0,.41.08Z" style="fill:#fff"></path><path d="M580.88,179.58a2.22,2.22,0,0,0-1.9,2.26,3,3,0,0,0,1.76,2.64,2.11,2.11,0,0,0,1.88,0,2.44,2.44,0,0,0,1-1.34,2.73,2.73,0,0,0,0-2.17,2.67,2.67,0,0,0-1.62-1.41,2.74,2.74,0,0,0-1.53.06" style="fill:#263238"></path><path d="M583.87,180.58c0,.14-.46.32-1,.58s-1,.51-1.08.4.23-.57.86-.87S583.86,180.44,583.87,180.58Z" style="fill:#fff"></path><path d="M576.67,199.84a7.09,7.09,0,0,1-3.87,0,7,7,0,0,1-3.52-1.61c.07-.13,1.59.66,3.63,1.1S576.66,199.68,576.67,199.84Z" style="fill:#455a64"></path><path d="M580.11,210.32a41.64,41.64,0,0,0-2.3-3.6c-1.47-1.84-3.12-2.88-3-3a9.66,9.66,0,0,1,5.33,6.62Z" style="fill:#455a64"></path><path d="M540.84,203.92a4.53,4.53,0,0,1-1.87-.59,10.93,10.93,0,0,1-3.71-3,11.1,11.1,0,0,1-2.13-4.25,4.48,4.48,0,0,1-.18-2c.08,0,.18.73.54,1.86a12.56,12.56,0,0,0,5.65,7C540.16,203.59,540.87,203.84,540.84,203.92Z" style="fill:#fff"></path><path d="M543.27,206a10.26,10.26,0,0,1-7.66-2.42c.08-.13,1.63.83,3.74,1.49S543.27,205.88,543.27,206Z" style="fill:#fff"></path><path d="M547.12,289a39.26,39.26,0,0,0-3.22-3.83,37.65,37.65,0,0,0-4-3,9.47,9.47,0,0,1,4.39,2.59A9.64,9.64,0,0,1,547.12,289Z" style="fill:#fff"></path><path d="M547.36,284.79c-.14.08-1.07-1.51-2.78-2.93a36.65,36.65,0,0,0-3.39-2.21,6.9,6.9,0,0,1,3.72,1.81A7,7,0,0,1,547.36,284.79Z" style="fill:#fff"></path><path d="M489.34,292.88a14,14,0,0,1-.25-2.87c-.08-1.78-.1-4.25,0-7s.29-5.17.49-7a14.12,14.12,0,0,1,.46-2.85,19,19,0,0,1-.09,2.88c-.1,1.78-.24,4.23-.34,6.94s-.13,5.16-.15,6.94A18.5,18.5,0,0,1,489.34,292.88Z" style="fill:#263238"></path><path d="M492.39,296a8.64,8.64,0,0,1-.52-2.28,41.47,41.47,0,0,1-.47-5.63,40.76,40.76,0,0,1,.28-5.64,8.78,8.78,0,0,1,.44-2.3c.16,0-.28,3.55-.2,7.93S492.54,296,492.39,296Z" style="fill:#263238"></path><path d="M495.54,300.81a8.3,8.3,0,0,1-.72-2.14,31.67,31.67,0,0,1-.84-5.37,31.08,31.08,0,0,1,.11-5.44,7.4,7.4,0,0,1,.42-2.21c.16,0-.31,3.42,0,7.61S495.7,300.77,495.54,300.81Z" style="fill:#263238"></path><path d="M526.11,193.29s.29-.65.88-1.91,1.49-3.1,2.78-5.48a64.18,64.18,0,0,1,5.38-8.45,37.1,37.1,0,0,1,10-9.28,33.29,33.29,0,0,1,16.42-4.5,32.1,32.1,0,0,1,9.76,1.07,46,46,0,0,1,9.84,4,62.26,62.26,0,0,1,9.48,6.35,25.79,25.79,0,0,1,2.2,2,9,9,0,0,0,2.49,1.57c1.82.84,3.76,1.53,5.72,2.24,3.88,1.46,8.06,2.65,11.88,5a38.34,38.34,0,0,1,5.49,3.86,32.51,32.51,0,0,1,2.5,2.35A10.09,10.09,0,0,1,622,193.4a1,1,0,0,1,.15.5.64.64,0,0,1-.24.51,1.66,1.66,0,0,1-.9.37h0l-.06,0a31.17,31.17,0,0,0-10.57-3,46.56,46.56,0,0,0-11.58.36c-2,.27-3.93.63-5.92,1a23.74,23.74,0,0,0-5.84,1.65,25.29,25.29,0,0,0-9.54,7.83l-.06-.3a6.76,6.76,0,0,1,1.13,1.14l.49.62.42.66a26.35,26.35,0,0,1,1.51,2.76c.92,1.89,1.69,3.85,2.43,5.84A102.53,102.53,0,0,1,587,225.73c.49,2.12.87,4.29,1.2,6.48s.52,4.42.59,6.65c.2,4.47.34,9,.48,13.57q.4,13.74.65,28.09.09,7.19.18,14.5c0,2.44,0,4.9,0,7.36a54.5,54.5,0,0,1-.46,7.43c-1.32,9.88-3.52,19.77-5.77,29.8s-4.78,20.16-7.5,30.39c-1.36,5.11-2.77,10.25-4.3,15.38a80.66,80.66,0,0,1-6.07,15,93.55,93.55,0,0,1-9,13.7c-1.68,2.17-3.43,4.29-5.17,6.42-.86,1.07-1.73,2.14-2.49,3.27a13.47,13.47,0,0,0-1,1.74,13.61,13.61,0,0,0-.66,1.92,7.09,7.09,0,0,0-.18,2.86,12.2,12.2,0,0,0,.85,2.78,30.29,30.29,0,0,1,2,5.66,9.69,9.69,0,0,1,0,3,7.4,7.4,0,0,1-1.14,2.82,7.31,7.31,0,0,1-2.18,2.11,9.15,9.15,0,0,1-2.76,1.2,13.55,13.55,0,0,1-3,.42,8,8,0,0,1-2.95-.61,25.51,25.51,0,0,1-5.05-3.05c-.79-.56-1.57-1.13-2.39-1.63a6.65,6.65,0,0,0-2.57-1,6,6,0,0,0-5,1.94l0,0,0,0a33.56,33.56,0,0,1-8,4.21,63.28,63.28,0,0,1-8.54,2.54c-2.88.68-5.78,1.18-8.68,1.58s-5.79.72-8.68.94a228.76,228.76,0,0,1-33.94,0l-.67,0,.54-.4c4.19-3.08,8.24-6.27,12.16-9.52s7.72-6.62,11.26-10.15c1.77-1.77,3.47-3.58,5.05-5.49a28.69,28.69,0,0,0,4-6.09,26.3,26.3,0,0,0,1.14-3.45c.33-1.17.65-2.35.93-3.52a36.06,36.06,0,0,0,1-7.12,73.93,73.93,0,0,0-1.09-14.14c-.73-4.63-1.64-9.18-2.55-13.67-.47-2.24-.94-4.46-1.36-6.69s-.84-4.43-1.2-6.64c-.72-4.4-1.25-8.78-1.71-13.1-1.71-17.29-1.66-33.67-1.54-48.85,0-3.79,0-7.52.07-11.17,0-1.82.07-3.63.11-5.42s.27-3.56.42-5.3a89.23,89.23,0,0,1,4.64-19.51c1.05-3,2.26-5.87,3.48-8.64s2.51-5.4,3.61-8A135.86,135.86,0,0,1,500,231.44l5.9-12.57c.89-1.92,1.75-3.77,2.51-5.54l.55-1.32.61-1.27.73-1.15c.25-.38.52-.73.77-1.08a68.62,68.62,0,0,1,6.12-6.9c1.87-1.89,3.51-3.43,4.83-4.66,2.66-2.46,4.11-3.66,4.11-3.66l-1,.94c-.68.62-1.7,1.54-3,2.78s-2.94,2.79-4.8,4.69a70,70,0,0,0-6.07,6.91c-.25.35-.52.7-.77,1.07l-.71,1.15c-.2.41-.4.82-.6,1.25l-.55,1.32c-.76,1.78-1.61,3.63-2.5,5.56q-2.69,5.79-5.85,12.58a133.35,133.35,0,0,0-6.08,14.84c-1.1,2.63-2.4,5.27-3.6,8s-2.41,5.62-3.45,8.63a88.58,88.58,0,0,0-4.59,19.44c-.15,1.73-.35,3.49-.41,5.27s-.13,3.59-.11,5.41q0,5.47-.06,11.18c-.1,15.17-.13,31.54,1.59,48.8.47,4.31,1,8.68,1.73,13.07.35,2.2.73,4.41,1.19,6.62s.9,4.45,1.37,6.69c.92,4.49,1.82,9,2.56,13.69a73.76,73.76,0,0,1,1.11,14.23,37.75,37.75,0,0,1-1,7.21c-.28,1.18-.6,2.36-.93,3.54a25.8,25.8,0,0,1-1.17,3.51,28.6,28.6,0,0,1-4.11,6.21c-1.59,1.92-3.3,3.75-5.08,5.52-3.55,3.55-7.36,6.91-11.28,10.18s-8,6.46-12.18,9.55l-.13-.45a229.06,229.06,0,0,0,33.86,0c2.88-.22,5.77-.53,8.65-.94s5.78-.9,8.64-1.57a65.24,65.24,0,0,0,8.47-2.52,33.21,33.21,0,0,0,7.83-4.15l0,0a6.47,6.47,0,0,1,5.43-2.11,7.09,7.09,0,0,1,2.77,1.11c.84.51,1.63,1.09,2.42,1.65a25,25,0,0,0,4.94,3,7.47,7.47,0,0,0,2.75.57,12.89,12.89,0,0,0,2.84-.41,8.36,8.36,0,0,0,2.62-1.13,6.66,6.66,0,0,0,2-2,7.07,7.07,0,0,0,1.06-2.62,8.86,8.86,0,0,0,0-2.86,28.13,28.13,0,0,0-1.93-5.55,12.89,12.89,0,0,1-.87-2.91,7.52,7.52,0,0,1,.18-3.06,13.36,13.36,0,0,1,.69-2,13.71,13.71,0,0,1,1.07-1.83c.79-1.16,1.66-2.23,2.52-3.31,1.75-2.13,3.5-4.24,5.17-6.41a93.54,93.54,0,0,0,8.92-13.62,79.59,79.59,0,0,0,6-14.91c1.54-5.13,2.94-10.27,4.3-15.38q4.08-15.32,7.51-30.36c2.25-10,4.45-19.92,5.77-29.75a53.63,53.63,0,0,0,.46-7.37c0-2.47,0-4.92,0-7.35q-.09-7.32-.17-14.5-.24-14.34-.63-28.08c-.39-9.14-.12-18.16-2.24-26.63A103.36,103.36,0,0,0,583,213.47a61.93,61.93,0,0,0-2.4-5.8,25.44,25.44,0,0,0-1.49-2.72l-.4-.65-.47-.6a6.39,6.39,0,0,0-1-1l-.16-.16.1-.14a26.49,26.49,0,0,1,4.41-4.62,22.88,22.88,0,0,1,5.32-3.34,24.1,24.1,0,0,1,5.93-1.68c2-.38,4-.74,5.94-1a47.73,47.73,0,0,1,11.67-.35,31.67,31.67,0,0,1,10.7,3.08l-.11,0a1.45,1.45,0,0,0,.7-.27c.16-.14.14-.33,0-.56a9.81,9.81,0,0,0-1.07-1.28,30.13,30.13,0,0,0-2.48-2.32,37.91,37.91,0,0,0-5.43-3.84c-3.77-2.27-7.92-3.47-11.82-4.93-1.95-.72-3.89-1.41-5.74-2.27a9.29,9.29,0,0,1-2.57-1.64,28.86,28.86,0,0,0-2.18-2A61.63,61.63,0,0,0,581,169a46,46,0,0,0-9.77-4,31.64,31.64,0,0,0-9.69-1.08,33,33,0,0,0-16.31,4.42,37,37,0,0,0-10,9.21,65,65,0,0,0-5.41,8.4c-1.3,2.37-2.22,4.21-2.82,5.46S526.11,193.29,526.11,193.29Z" style="fill:#263238"></path></g><g id="penguin-2"><path d="M404.12,451.61a21.57,21.57,0,0,0-4.8-.57,29.53,29.53,0,0,1-5-.12,5.25,5.25,0,0,1-4-2.67L382.83,450c-.05.78-.1,1.56-.16,2.35a1.24,1.24,0,0,0,.12.74c.21.32.65.35,1,.36l9,.16c2.62,0,5.25.1,7.87.09a12.7,12.7,0,0,0,3.49-.34c.46-.13,1-.43,1-.91S404.6,451.72,404.12,451.61Z" style="fill:#263238"></path><path d="M349.13,445.64a31.08,31.08,0,0,1-9.91,5.83,15.61,15.61,0,0,1-8.68.95c-.46-.11-1-.39-1-.86a1,1,0,0,1,.36-.56c2.88-2.79,6.64-4.88,8.44-8.46l7.78-6.88Z" style="fill:#263238"></path><path d="M424.93,317.9s-3.9-3.72-6.88-4.46-11.53-4.46-17.85-3.9a26.64,26.64,0,0,0-18.41,10.22c-4.84,6.33-7.44,9.67-6.51,23.06,0,0-22.69,16.92-27.89,31.43,0,0-6.88,8.55-4.65,7.81a7,7,0,0,0,3.35-2.42s-5.4,7.44-4.84,10c0,0-4.28,14.69-4.28,21.94v9.3s-5,9.49-3.16,8.37a15,15,0,0,0,3.16-2.6s-1.11,13.57.75,16.36l5-2.79s-4.46,5.66,4.28,9.06,11.71,0,11.71,0l5.21,1.51,13.2-2.39s8.74,3.85,12.09,2.39,9.85-3.5,14.69-13.36,9.3-38.86,9.11-47.6,10.6-24.55,8.55-36.26-7.25-17.11-7.25-17.11l1.3-2.42s3.35-3,4.28-5c0,0,7.81-5.76,10.41-7.07s4.28-.37,3.72-1.48S430,316.79,424.93,317.9Z" style="fill:#ebebeb"></path><path d="M411.59,319.13a1.67,1.67,0,0,0-2.32.91,1.84,1.84,0,0,0-.34,1.14,1.87,1.87,0,0,0,.4.81,3.58,3.58,0,0,0,.53.57,1.85,1.85,0,0,0,1.93.17,2,2,0,0,0,1.06-1.65,2,2,0,0,0-.64-1.6,1.74,1.74,0,0,0-1.66-.35" style="fill:#263238"></path><path d="M412.82,336.3a.83.83,0,0,0,.28-.28.67.67,0,0,0-.15-.74,2.44,2.44,0,0,0-1.72-.63,36.17,36.17,0,0,0-5.1,0,13.06,13.06,0,0,1-4.28-.12,2.26,2.26,0,0,1-1.05-.55,2.81,2.81,0,0,1-.61-1.77,39.82,39.82,0,0,1-.14-6,3.08,3.08,0,0,0-.14-1.45,6.42,6.42,0,0,0-.9-1.19,3.89,3.89,0,0,1-.6-2.87,11.15,11.15,0,0,1,.94-2.84,7.62,7.62,0,0,1,1.71-2.81,6.22,6.22,0,0,1,1.78-1,15.69,15.69,0,0,1,11-.19,8.35,8.35,0,0,1,2.06,1,9,9,0,0,1,1.77,1.83c1.6,2,3,4.56,2.5,7.09l6.22-3.86-.65-2.12c-.26,0-.51.08-.78.14,0,0-3.81-4.12-6.75-5-3.27-.95-11.65-4.43-18-3.74a26,26,0,0,0-15.84,7.66l-1.21,2.62c3.52-.57,2.68,4.15,2.68,4.15,3,.57,2.25,2.4,2.25,2.4,3.17.21,2,4.16,2,4.16,3.67-.92,3.6,2.18,3.6,2.18,2.82.78,3.45,6.06,3.45,6.06l.35.14c2.29.91.86,3.77.86,3.77a9.19,9.19,0,0,1,2.35-3.12,9.86,9.86,0,0,1,3.16-1.39,18.57,18.57,0,0,1,5.13-1C410.28,336.77,411.72,337,412.82,336.3Z" style="fill:#455a64"></path><path d="M424.93,317.9s-4.28,4.94-5.1,5.41-3,.15-3.07,1.26,1.05,2.65,4.08,2.32a14.53,14.53,0,0,0,6.05-2.57,19.39,19.39,0,0,1,4.15-2.48c1.18-.45,3.21-.55,3.38-.88S432.29,316.14,424.93,317.9Z" style="fill:#263238"></path><path d="M357.05,409.85a5.74,5.74,0,0,1-1.07-5.57c.15,0,0,1.3.31,2.83S357.18,409.77,357.05,409.85Z" style="fill:#263238"></path><path d="M359,412.29a10.18,10.18,0,0,1-.75-7.92c.15,0-.12,1.81.09,4S359.1,412.23,359,412.29Z" style="fill:#263238"></path><path d="M363.94,363.39a6.78,6.78,0,0,1,1.4-2.79,7,7,0,0,1,2.16-2.27,74.9,74.9,0,0,1-3.56,5.06Z" style="fill:#263238"></path><path d="M365.22,366a20.89,20.89,0,0,1,2.8-6,10.69,10.69,0,0,1-1.17,3.11A10.9,10.9,0,0,1,365.22,366Z" style="fill:#263238"></path><path d="M367.47,369.37a9.18,9.18,0,0,1,.74-4.3,9.18,9.18,0,0,1-.74,4.3Z" style="fill:#263238"></path><path d="M368.62,443a11.14,11.14,0,0,1-3.56-5.06,55.66,55.66,0,0,1,3.56,5.06Z" style="fill:#263238"></path><path d="M371.05,442.59a4.72,4.72,0,0,1-2.46-1.42,4.87,4.87,0,0,1-1.66-2.32c.13-.08.88.91,2,1.93A23.58,23.58,0,0,1,371.05,442.59Z" style="fill:#263238"></path><path d="M413.17,352.34c-.15,0-.39-1.37-1.27-2.82s-2-2.32-1.88-2.45a4.57,4.57,0,0,1,2.33,2.19A4.45,4.45,0,0,1,413.17,352.34Z" style="fill:#263238"></path><path d="M414.91,350.62c-.11.09-.84-.73-1.61-1.81s-1.32-2-1.2-2.12.84.73,1.62,1.82A5.65,5.65,0,0,1,414.91,350.62Z" style="fill:#263238"></path><path d="M389.83,330.46a6.57,6.57,0,0,0,.62-1.63,2,2,0,0,0-.48-1.71,1.53,1.53,0,0,0-2-.24l-1,.85.58-1.15a1.85,1.85,0,0,0-1.93-2.66l-.69.1.46-.52a2.47,2.47,0,0,0,.49-2.29,2.34,2.34,0,0,0-1.23-1.46,3.58,3.58,0,0,0-1.79-.29,2.06,2.06,0,0,1,1.93,0,2.64,2.64,0,0,1,1.51,1.63,2.92,2.92,0,0,1-.53,2.75l-.23-.42A2.35,2.35,0,0,1,388,326.8l-.39-.3a1.7,1.7,0,0,1,1.46-.34,2.16,2.16,0,0,1,1.65,2.72,3.11,3.11,0,0,1-.58,1.24C390,330.37,389.85,330.48,389.83,330.46Z" style="fill:#263238"></path><path d="M398.38,342.19a12.72,12.72,0,0,1,.19-1.47,2.41,2.41,0,0,0-.33-1.46,1.37,1.37,0,0,0-1.5-.65l-.34.12v-.36c0-.42,0-.85,0-1.29a6.2,6.2,0,0,0-.3-2.4,3.77,3.77,0,0,0-1.14-1.56,6.12,6.12,0,0,0-1.71-.64s.18-.08.52-.07a2.81,2.81,0,0,1,1.4.4,3.9,3.9,0,0,1,1.37,1.68,6.18,6.18,0,0,1,.38,2.59l0,1.29-.34-.25a1.57,1.57,0,0,1,1.25.13,2.19,2.19,0,0,1,.8.77,2.61,2.61,0,0,1,.28,1.73A3.13,3.13,0,0,1,398.38,342.19Z" style="fill:#263238"></path><path d="M385.19,338c.15,0,.26.53.26,1.19s-.11,1.19-.26,1.19-.26-.53-.26-1.19S385.05,338,385.19,338Z" style="fill:#263238"></path><path d="M386.82,337.12c.15,0,.32.71.39,1.61s0,1.64-.14,1.65-.31-.71-.38-1.61S386.68,337.14,386.82,337.12Z" style="fill:#263238"></path><path d="M375.93,387.27c.65,3.92-.94,7.85-2.86,11.33s-4.24,6.8-5.28,10.63-.48,8.44,2.58,11c2.4,2,5.86,2.24,8.83,1.37a22.38,22.38,0,0,0,7.92-4.74c5.15-4.34,9.75-9.65,11.79-16.07,1.47-4.61,1.55-9.61,3.36-14.1,2.36-5.86,7.56-10.59,8.37-16.86.37-2.84-.43-6.06-2.81-7.65-2.7-1.8-6.37-.92-9.29.5a30.26,30.26,0,0,0-14.65,15.62" style="fill:#e0e0e0"></path><path d="M384.69,368.41,379.24,373a14.53,14.53,0,0,0-3.14,3.27c-1.59,2.58-1.37,5.87-.8,8.85s1.43,6,.95,9c-.87,5.48-5.93,9.34-7.86,14.55-.81,2.18-.95,4.89.64,6.59a5.28,5.28,0,0,0,2.66,1.45,9.89,9.89,0,0,0,7.34-1.47,26.33,26.33,0,0,0,5.67-5.14q2.52-2.82,4.91-5.75c2.12-2.61,4.21-5.35,5.24-8.55.73-2.28.89-4.71,1.45-7a20.16,20.16,0,0,1,5.09-9.4c1.33-1.37,2.87-2.54,4.13-4a19.48,19.48,0,0,0,3.54-6.63c1-3,1.44-6.65-.63-9-1.58-1.84-4.2-2.38-6.63-2.51a57.16,57.16,0,0,0-10.68.8" style="fill:#ebebeb"></path><path d="M391.12,358a1.54,1.54,0,0,1,.37-.08l1.12-.18c1-.14,2.42-.36,4.29-.53a29.8,29.8,0,0,1,6.86,0,8.76,8.76,0,0,1,4,1.58A6.15,6.15,0,0,1,410,363a13.07,13.07,0,0,1-.62,5.28,22.67,22.67,0,0,1-2.31,5.26,15.22,15.22,0,0,1-1.85,2.42c-.71.75-1.49,1.45-2.27,2.15a20.54,20.54,0,0,0-4.11,4.89,20.86,20.86,0,0,0-2.43,6.25,55.39,55.39,0,0,1-1.47,7,23.81,23.81,0,0,1-3.71,6.43c-1.52,2-3.22,3.86-4.87,5.83a45,45,0,0,1-5.25,5.52,12.58,12.58,0,0,1-6.74,3.08,8,8,0,0,1-3.65-.45,4.78,4.78,0,0,1-2.68-2.43,6.46,6.46,0,0,1-.44-3.51,11,11,0,0,1,1-3.28c2-4.06,5.1-7.07,6.61-10.69a12.41,12.41,0,0,0,.8-2.74,12.69,12.69,0,0,0,.1-2.75,39.56,39.56,0,0,0-.84-5.17c-.7-3.26-.95-6.48.19-9a9,9,0,0,1,2.27-3c.85-.78,1.67-1.42,2.39-2l3.34-2.74.88-.7a2.5,2.5,0,0,1,.31-.23,2.33,2.33,0,0,1-.28.27l-.84.74-3.28,2.82c-.71.61-1.53,1.27-2.36,2.05a8.65,8.65,0,0,0-2.16,2.91c-1.07,2.44-.82,5.58-.1,8.82a40.26,40.26,0,0,1,.88,5.22,12.92,12.92,0,0,1-.08,2.84,13.3,13.3,0,0,1-.82,2.84c-1.55,3.73-4.69,6.76-6.58,10.73a10.34,10.34,0,0,0-1,3.13,6,6,0,0,0,.4,3.24,4.22,4.22,0,0,0,2.42,2.17,7.41,7.41,0,0,0,3.41.41,12.11,12.11,0,0,0,6.46-3,45.68,45.68,0,0,0,5.19-5.46c3.25-3.9,6.86-7.57,8.48-12.09a53.11,53.11,0,0,0,1.47-6.91,21.25,21.25,0,0,1,2.51-6.39,20.45,20.45,0,0,1,4.22-5,19.74,19.74,0,0,0,4.05-4.47,22.6,22.6,0,0,0,2.3-5.15,12.91,12.91,0,0,0,.63-5.12,5.76,5.76,0,0,0-2.1-4,8.43,8.43,0,0,0-3.84-1.55,31,31,0,0,0-6.79-.14c-1.87.14-3.32.32-4.3.44l-1.12.12A1.81,1.81,0,0,1,391.12,358Z" style="fill:#263238"></path><path d="M424.93,317.9l.44-.09a11,11,0,0,1,1.32-.19,10.11,10.11,0,0,1,5.09,1,8,8,0,0,1,1.54,1,3.71,3.71,0,0,1,.69.73,1.26,1.26,0,0,1,.21.5.31.31,0,0,1-.12.3.79.79,0,0,1-.28.1,15.39,15.39,0,0,0-2.17.37,9,9,0,0,0-2.17,1c-2.85,1.74-6,4-9.49,6.58l0-.05a12.14,12.14,0,0,1-1.88,2.64c-.75.83-1.55,1.64-2.42,2.44l0,0-1.3,2.42,0-.17a24.49,24.49,0,0,1,3.32,5,38.12,38.12,0,0,1,2.46,5.94A44.53,44.53,0,0,1,421.8,354c.06.59.13,1.18.19,1.77s0,1.2,0,1.81a16.07,16.07,0,0,1-.13,1.82c-.07.61-.12,1.22-.25,1.83-.83,4.9-2.69,9.79-4.6,14.85-.95,2.53-1.95,5.12-2.74,7.81a30.22,30.22,0,0,0-.91,4.14c-.06.71-.09,1.41-.11,2.13s0,1.47,0,2.2c-.14,2.94-.44,5.91-.82,8.92s-.81,6.07-1.31,9.16a186.38,186.38,0,0,1-4,18.93,47,47,0,0,1-3.55,9.45,26,26,0,0,1-6.49,8,23,23,0,0,1-4.47,2.81c-.8.38-1.61.74-2.43,1.07a9.73,9.73,0,0,1-1.26.49,3.39,3.39,0,0,1-.68.13,3.21,3.21,0,0,1-.69,0,18.49,18.49,0,0,1-5.33-.89,45.65,45.65,0,0,1-5.1-1.83l.15,0L364,451.09h-.06l-.05,0-5.21-1.51.27-.08a5.19,5.19,0,0,1-2.18,1.21,9.2,9.2,0,0,1-2.44.38,16.7,16.7,0,0,1-4.91-.69,19.91,19.91,0,0,1-4.68-1.9l-.55-.32-.51-.4c-.17-.14-.35-.26-.51-.41l-.45-.47a5.86,5.86,0,0,1-.78-1.07,4.93,4.93,0,0,1-.46-1.25,5.69,5.69,0,0,1,1.07-4.47l.34.39-5,2.79-.23.13-.12-.22a10.77,10.77,0,0,1-1-4.14c-.13-1.4-.14-2.78-.15-4.16,0-2.77.12-5.5.33-8.22l.45.19a15.63,15.63,0,0,1-2.66,2.29l-.37.24a1.7,1.7,0,0,1-.47.23c-.07,0-.12,0-.22,0a.4.4,0,0,1-.23-.18.78.78,0,0,1-.08-.35,2.41,2.41,0,0,1,.08-.48,11.06,11.06,0,0,1,.57-1.65c.89-2.13,1.91-4.15,3-6.16l0,.12V412.8a41.78,41.78,0,0,1,.73-8A154.33,154.33,0,0,1,341,389.61v.12a5.87,5.87,0,0,1,.58-2.91,26.68,26.68,0,0,1,1.27-2.57,52.48,52.48,0,0,1,3-4.75l.4.27a7.21,7.21,0,0,1-2.87,2.28l-.43.17a1.36,1.36,0,0,1-.53.11.39.39,0,0,1-.36-.26.6.6,0,0,1,0-.34,2,2,0,0,1,.15-.47,12.44,12.44,0,0,1,.87-1.57c1.29-2,2.7-3.8,4.12-5.59l0,.07a39.24,39.24,0,0,1,5.69-9.87,83.14,83.14,0,0,1,7.14-8.24,144.81,144.81,0,0,1,15.16-13.4l-.07.17a58.52,58.52,0,0,1-.06-8.26,22.59,22.59,0,0,1,1.84-7.63,32.46,32.46,0,0,1,4-6.24,28.66,28.66,0,0,1,4.72-5.13A27.25,27.25,0,0,1,396.71,310a20.29,20.29,0,0,1,5.5-.6,28.11,28.11,0,0,1,5,.69,75.75,75.75,0,0,1,8.07,2.39c1.15.4,2.21.74,3.2,1a11.08,11.08,0,0,1,2.51,1.24,27.4,27.4,0,0,1,3,2.29c.65.57.95.88.95.88s-.33-.29-1-.83a29.11,29.11,0,0,0-3.06-2.24,10.89,10.89,0,0,0-2.49-1.21c-1-.27-2.07-.61-3.22-1a77.48,77.48,0,0,0-8.05-2.34,29,29,0,0,0-4.93-.66,20.69,20.69,0,0,0-5.43.62,26.89,26.89,0,0,0-11,5.57,28.88,28.88,0,0,0-4.66,5.09,32.92,32.92,0,0,0-3.94,6.19,22.23,22.23,0,0,0-1.79,7.51,59.41,59.41,0,0,0,.08,8.21v.1l-.08.07a141.92,141.92,0,0,0-15.09,13.38,82.17,82.17,0,0,0-7.09,8.21,38.59,38.59,0,0,0-5.61,9.76l0,0,0,0c-1.41,1.78-2.82,3.61-4.08,5.55a11.09,11.09,0,0,0-.83,1.5,1.38,1.38,0,0,0-.12.36s0,.12,0,.09l-.07,0,0,0s0-.06,0-.05a1.05,1.05,0,0,0,.32-.09l.4-.16a6.75,6.75,0,0,0,2.66-2.1l.39.27a52.81,52.81,0,0,0-3,4.7A28,28,0,0,0,342,387a5.69,5.69,0,0,0-.55,2.63v.12a154,154,0,0,0-3.55,15.14,41.71,41.71,0,0,0-.71,7.91V421l0,.06c-1,2-2.06,4-2.93,6.11a11,11,0,0,0-.55,1.58c-.07.24-.05.62-.14.39l.29-.17.35-.23a15,15,0,0,0,2.56-2.2l.51-.56-.06.75c-.2,2.7-.32,5.43-.33,8.18,0,1.37,0,2.74.16,4.11a10.69,10.69,0,0,0,.87,3.91l-.34-.09,5-2.79,1-.56-.69.95a4.75,4.75,0,0,0-.57,5.16,6.11,6.11,0,0,0,.71,1l.42.44c.15.14.32.25.48.38l.48.37.53.31a19.58,19.58,0,0,0,4.55,1.85,16.13,16.13,0,0,0,4.75.67,8.37,8.37,0,0,0,2.3-.36,4.71,4.71,0,0,0,2-1.05l.12-.12.14,0,5.21,1.51h-.12l13.21-2.39h.07l.07,0a44.6,44.6,0,0,0,5,1.81,18.63,18.63,0,0,0,5.17.88,5.72,5.72,0,0,0,2.46-.63c.81-.34,1.61-.69,2.4-1.06a23.52,23.52,0,0,0,4.38-2.74,25.66,25.66,0,0,0,6.37-7.89,46.24,46.24,0,0,0,3.51-9.34,181.62,181.62,0,0,0,4-18.87c.51-3.09,1-6.13,1.33-9.14s.69-6,.82-8.89c.06-.73,0-1.45.05-2.17s.05-1.47.12-2.19a29.82,29.82,0,0,1,.93-4.2c.8-2.73,1.81-5.31,2.77-7.84,1.92-5.06,3.77-9.92,4.61-14.77a16,16,0,0,0,.24-1.81,13.64,13.64,0,0,0,.14-1.8c0-.59,0-1.18,0-1.77l-.18-1.74a43.86,43.86,0,0,0-1.56-6.6,37.93,37.93,0,0,0-2.41-5.9,24.53,24.53,0,0,0-3.26-4.95l-.07-.08,0-.09c.47-.85.92-1.69,1.31-2.41v0h0c.86-.78,1.67-1.59,2.41-2.41A11.84,11.84,0,0,0,419.8,329v0l0,0c3.52-2.56,6.67-4.81,9.54-6.55a9.18,9.18,0,0,1,2.22-1,15.12,15.12,0,0,1,2.19-.36c.17,0,.31-.09.27-.23a1.07,1.07,0,0,0-.18-.43,4,4,0,0,0-.66-.7,7.92,7.92,0,0,0-1.5-1,10.08,10.08,0,0,0-5-1,10.9,10.9,0,0,0-1.32.15C425.08,317.89,424.93,317.9,424.93,317.9Z" style="fill:#263238"></path></g><g id="penguin-1"><path d="M192.37,445.07c-2.06,3.36-6,5-9.66,6.39.76,1.19,2.31,1.57,3.71,1.71a20.42,20.42,0,0,0,13-3.18Z" style="fill:#263238"></path><path d="M267,450.49a1.26,1.26,0,0,0-.73-.25q-4.23-.56-8.41-1.46a3.89,3.89,0,0,1-1.75-.69,2.77,2.77,0,0,1-.89-2,7.83,7.83,0,0,1,.29-2.2l-14.6,8c1.93,1.24,5.61,1,7.9.9,5.64-.32,11.4.77,16.9-.51a2.36,2.36,0,0,0,1.23-.56A.89.89,0,0,0,267,450.49Z" style="fill:#263238"></path><path d="M289.26,369.4a6.89,6.89,0,0,0,0-1.88c-.13-1.08-10.14-9.87-14.19-12.84a24.09,24.09,0,0,0-9.39-3.78,15,15,0,0,0-7.84.94c0-.06,0-.13-.06-.2l.4,0a22,22,0,0,0-8.55-.77,2.15,2.15,0,0,0-.86.22.83.83,0,0,0-.47.71c0,.5.59.77,1.07.91,1.51.43,3,.72,4.58,1l-.18.11a20.27,20.27,0,0,0-6.57.77,2.19,2.19,0,0,0-1,.51.82.82,0,0,0-.1,1.05,1.22,1.22,0,0,0,.88.27l2.53.08a19.15,19.15,0,0,0-9.19,3.5c-.39.29-.82.72-.67,1.18s.77.57,1.27.55c.26,0,.53,0,.79-.06-1.47.87-2.87,1.63-4.38,2.45l.07-.05a19.57,19.57,0,0,0-8.31-.22.89.89,0,0,0-.58.28c-.34.45.36,1,.93,1s1.26-.08,1.57.4a13.9,13.9,0,0,0-6.8,1.38c-.43.21-.92.59-.8,1s.47.52.81.64l3.26,1.15-.16.09a6.4,6.4,0,0,0-6.17,4l-.86.59a17.86,17.86,0,0,0-13.27,3,7.51,7.51,0,0,0,5,.24,27.18,27.18,0,0,0-5.63,2.2,5,5,0,0,0-1.77,1.25,1.7,1.7,0,0,0-.12,2,1,1,0,0,0,.61.34,5.67,5.67,0,0,0-2.38,2.05c-.73,1.27-.36,3.24,1,3.67l-.26.39a44.86,44.86,0,0,0-10.86,16.88,1.89,1.89,0,0,0,0,1.86.65.65,0,0,0,.73.11,29.89,29.89,0,0,0-2.83,17.67,21.92,21.92,0,0,0,1.12,18c.16.29.33.58.5.87.49,5.22,3.19,6.89,3.19,6.89h46l13.79-6.63s1.08-1.48,2.84-8.24-.14-15.95,0-18.66c.12-2.52,3.89-12.08,4.4-13.37a13,13,0,0,0,2.14,2.19,1.27,1.27,0,0,0,1.15.39.92.92,0,0,0,.48-1.12,3,3,0,0,0-.71-1.12,2.35,2.35,0,0,1-.62-1.16,8.61,8.61,0,0,0,3.38,1.43,1.17,1.17,0,0,0,1.05-.17.81.81,0,0,0,.07-.94,2,2,0,0,0-.71-.71c-.74-.52-1.53-1-2.23-1.57,2.31-1.75,5-4.16,6.2-6.69,2.3-4.87,3.78-13.12,3.78-13.12s7.84-3.65,9.33-4.59a41.05,41.05,0,0,0,4.25-3.58l.75-.34c1.76-.82,5.55-.68,5.55-.68C295.61,369.82,289.26,369.4,289.26,369.4Z" style="fill:#ebebeb"></path><path d="M265.66,350.88a24.21,24.21,0,0,1,9.39,3.78c4.06,3,14.06,11.76,14.2,12.84a7.48,7.48,0,0,1,0,1.89s6.35.41,6.89,3.79c0,0-3.78-.13-5.54.68l-.75.34c-.25.23-1.4,1.31-2.56,2.29l-1.09-.13a7.18,7.18,0,0,1-3.44-1.07,1.89,1.89,0,0,1-.84-1.23c-.16-1.16,1.19-1.88,1.77-2.89.88-1.51-.06-3.38-1-4.86a9.15,9.15,0,0,0-3.45-3.73,6.34,6.34,0,0,0-2.89-.54,8.45,8.45,0,0,0-5.87,2.42,4.14,4.14,0,0,0-.42,4.28s.21,4.28-2.75,1.38c-2.57-2.51-8.49-5.77-8.92-10.68a36.73,36.73,0,0,1,0-7.8S262.59,350,265.66,350.88Z" style="fill:#263238"></path><circle cx="276.45" cy="368.47" r="1.65" style="fill:#263238"></circle><path d="M215.59,417.94a16.47,16.47,0,0,0,23.17-7.18c1.27-2.68,1.84-5.74,3.69-8.07s4.93-3.7,7.47-5.5,4.8-4.77,4-7.77-4.41-4.51-7.53-4.27c-6.23.48-11,5.71-14.29,11s-6,11.25-11.09,14.93a25.86,25.86,0,0,0-4.08,3.11,4.53,4.53,0,0,0-1.17,4.71" style="fill:#e0e0e0"></path><path d="M231.68,382.09a11.61,11.61,0,0,1-7.75,5.7c-1.11.22-2.54.55-2.68,1.67a2.87,2.87,0,0,0,.28,1.28,16.32,16.32,0,0,1,.8,5.48,15.23,15.23,0,0,1-.55,5c-1.41,4.4-6,7.25-7.29,11.68-.39,1.33-.37,3,.72,3.84a3.7,3.7,0,0,0,2.19.61c3.67.09,7.12-1.66,10.18-3.67a24.2,24.2,0,0,0,6.52-5.86c2.46-3.43,3.47-7.77,6.11-11.06,2.46-3.08,6.08-4.94,9.53-6.84,2-1.1,4.18-2.54,4.47-4.8a5.53,5.53,0,0,0-.77-3.28,11.09,11.09,0,0,0-12.26-5.33" style="fill:#ebebeb"></path><path d="M241.18,376.5a7.16,7.16,0,0,1,1.13-.27,9.73,9.73,0,0,1,3.35,0,11.66,11.66,0,0,1,4.87,2.05,10.47,10.47,0,0,1,2.35,2.35,7.73,7.73,0,0,1,1.51,3.42,4.5,4.5,0,0,1-1.43,3.82,15.34,15.34,0,0,1-3.66,2.52,33.63,33.63,0,0,0-7.94,5.42,17.17,17.17,0,0,0-3,4.24c-.81,1.58-1.51,3.27-2.36,4.95a19.1,19.1,0,0,1-3.22,4.74,27.44,27.44,0,0,1-4.54,3.75,29.26,29.26,0,0,1-5.13,2.89,14.17,14.17,0,0,1-5.62,1.21,3.69,3.69,0,0,1-2.74-.91A3.46,3.46,0,0,1,214,414a10.8,10.8,0,0,1,2.16-4.87c2-2.78,4.46-5.07,5.39-7.95a14.08,14.08,0,0,0,.56-4.28,24.73,24.73,0,0,0-.25-4,12.6,12.6,0,0,0-.44-1.81,3,3,0,0,1-.31-1.84,2,2,0,0,1,1.34-1.18,10.85,10.85,0,0,1,1.56-.4,11.51,11.51,0,0,0,4.69-2.19,13.08,13.08,0,0,0,3-3.33,6.37,6.37,0,0,1-.57,1,11.4,11.4,0,0,1-2.26,2.47,11.59,11.59,0,0,1-4.75,2.32,10.2,10.2,0,0,0-1.51.4,1.73,1.73,0,0,0-1.13,1,2.62,2.62,0,0,0,.32,1.62,11.37,11.37,0,0,1,.47,1.87,24.42,24.42,0,0,1,.29,4.08,14.5,14.5,0,0,1-.55,4.41c-1,3-3.44,5.37-5.41,8.1a10.42,10.42,0,0,0-2.05,4.63,3,3,0,0,0,.63,2.34,3.23,3.23,0,0,0,2.38.75,13.56,13.56,0,0,0,5.41-1.18,28.4,28.4,0,0,0,5.05-2.84,26.56,26.56,0,0,0,4.45-3.68,18.58,18.58,0,0,0,3.15-4.61c.83-1.65,1.54-3.35,2.37-4.95a17.68,17.68,0,0,1,3-4.35,34,34,0,0,1,8.08-5.46,15,15,0,0,0,3.58-2.42,4.13,4.13,0,0,0,1.36-3.49,7.54,7.54,0,0,0-1.42-3.28,10.76,10.76,0,0,0-2.25-2.31,11.61,11.61,0,0,0-4.74-2.08,10.51,10.51,0,0,0-3.29-.11C241.58,376.43,241.19,376.53,241.18,376.5Z" style="fill:#263238"></path><path d="M207.24,389.63a7.33,7.33,0,0,1,1.44-2.32c.91-1.19,1.74-2.09,1.86-2a7.45,7.45,0,0,1-1.44,2.32C208.19,388.82,207.36,389.72,207.24,389.63Z" style="fill:#263238"></path><path d="M207.52,393.2a6.22,6.22,0,0,1,2.28-5.08c.12.1-.65,1.1-1.26,2.49S207.67,393.22,207.52,393.2Z" style="fill:#263238"></path><path d="M264.42,395.74a5,5,0,0,1,.38-2.23c.35-1.19.75-2.13.89-2.08a5.28,5.28,0,0,1-.39,2.23A5.21,5.21,0,0,1,264.42,395.74Z" style="fill:#263238"></path><path d="M265.69,395.74c-.14-.05,0-.83.39-1.74s.74-1.61.88-1.56,0,.83-.4,1.75S265.82,395.8,265.69,395.74Z" style="fill:#263238"></path><path d="M247.14,435.37a24,24,0,0,1,.25-2.41,22,22,0,0,1,0-2.42,3.61,3.61,0,0,1,.51,2.45A3.56,3.56,0,0,1,247.14,435.37Z" style="fill:#263238"></path><path d="M248.66,435.62a22.29,22.29,0,0,1,.36-2.78,23.2,23.2,0,0,1,.18-2.81,6.73,6.73,0,0,1-.54,5.59Z" style="fill:#263238"></path><path d="M207.26,439.94a6.3,6.3,0,0,1-1-3,6.12,6.12,0,0,1,0-3.13,19.5,19.5,0,0,1,.49,3A20.06,20.06,0,0,1,207.26,439.94Z" style="fill:#263238"></path><path d="M204.41,437.91c-.15,0-.32-.89-.38-2a4.2,4.2,0,0,1,.14-2,8.08,8.08,0,0,1,.24,4.06Z" style="fill:#263238"></path><path d="M202.19,435.87a5.77,5.77,0,0,1-.28-5.08,19,19,0,0,1,.07,2.55A16.68,16.68,0,0,1,202.19,435.87Z" style="fill:#263238"></path><path d="M259.83,409.75a5.82,5.82,0,0,0,1.2,3.15,1.06,1.06,0,0,0,.78.5c.6,0,.74-.85.69-1.46l-.69-8.05" style="fill:#ebebeb"></path><path d="M245.72,367.3a5.69,5.69,0,0,1-1.79,1,16.51,16.51,0,0,1-2.09.69c-.4.11-.83.2-1.27.28a1.89,1.89,0,0,1-.79,0,.76.76,0,0,1-.6-.76,1.81,1.81,0,0,1,1-1.23c.38-.25.74-.48,1.1-.69a18.75,18.75,0,0,1,1.95-1,6.24,6.24,0,0,1,1.91-.66,9.94,9.94,0,0,1-1.75,1c-.54.29-1.17.66-1.86,1.1-.34.21-.69.45-1.06.7a5.25,5.25,0,0,0-.49.39.75.75,0,0,0-.24.44c0,.24.36.31.78.23s.85-.16,1.25-.24c.79-.18,1.49-.39,2.08-.57A13.07,13.07,0,0,1,245.72,367.3Z" style="fill:#263238"></path><path d="M265.86,411.8a10.22,10.22,0,0,0,3.6,8.49,10.28,10.28,0,0,0-1.21-6.29c-.58-1.06-1.19-2.19-2.39-2.2" style="fill:#ebebeb"></path><path d="M197.75,390.81a10.29,10.29,0,0,0-8.67,3.17,10.3,10.3,0,0,0,6.35-.88c1.09-.53,2.25-1.08,2.32-2.29" style="fill:#ebebeb"></path><path d="M257.68,359.67a8,8,0,0,0,0-2.13c0-.72.49-1.55,1.21-1.5s.94.63,1.17,1.16a18,18,0,0,1,1.49,5.67,3.23,3.23,0,0,1,.57-1.48,1.09,1.09,0,0,1,1.43-.25,1.53,1.53,0,0,1,.43,1c.21,1.18.42,2.37.64,3.55a1.53,1.53,0,0,1,1.63-1.71,2.5,2.5,0,0,1,2,1.68,7.51,7.51,0,0,1,.34,2.72c0,1.05,0,2.11,0,3.17a2.56,2.56,0,0,1-.42,1.72,1.66,1.66,0,0,1-1.71.38,4.07,4.07,0,0,1-1.55-1c-3.84-3.47-6-8.39-8-13.15" style="fill:#ebebeb"></path><path d="M266.84,380.77a3,3,0,0,1-.93-.07,21.6,21.6,0,0,1-2.54-.52,10.6,10.6,0,0,1-1.75-.59,1.57,1.57,0,0,1-.79-.83,1,1,0,0,1,.53-1.15,3.57,3.57,0,0,1,1.16-.37,8,8,0,0,1,1.22-.14,8.41,8.41,0,0,1,2.61.29l-.21.45a29.77,29.77,0,0,1-2.81-2.25,29,29,0,0,1-2.29-2.28,1.7,1.7,0,0,1-.51-1.63,1,1,0,0,1,.69-.64,1.9,1.9,0,0,1,.82,0,10,10,0,0,1,4.53,2.39,9.55,9.55,0,0,1,2.08,2.74,3.92,3.92,0,0,1,.44,1.18,12.32,12.32,0,0,0-2.77-3.65A9.85,9.85,0,0,0,262,371.5c-.44-.08-.86,0-.95.34a1.19,1.19,0,0,0,.42,1.13,31.74,31.74,0,0,0,2.25,2.24,32.22,32.22,0,0,0,2.75,2.22l1.16.83-1.37-.38a7.57,7.57,0,0,0-4.64.11.58.58,0,0,0-.35.65,1.22,1.22,0,0,0,.58.61,9.47,9.47,0,0,0,1.65.61C265.55,380.51,266.86,380.7,266.84,380.77Z" style="fill:#263238"></path><path d="M232.33,399.56a2.09,2.09,0,0,1-.46.72,2.85,2.85,0,0,1-.75.7,1.89,1.89,0,0,1-1.38.26,1.3,1.3,0,0,1-.75-.44,1.44,1.44,0,0,1-.33-.89,5.68,5.68,0,0,1,.4-1.85,16.65,16.65,0,0,1,1.85-3.81c.26-.41.55-.81.83-1.17l.33.38a3.91,3.91,0,0,1-1.92.63,1.54,1.54,0,0,1-1.53-1.19,2.73,2.73,0,0,1,.54-1.62,11.24,11.24,0,0,1,.81-1.14,9.53,9.53,0,0,1,1.41-1.4c.37-.29.59-.41.61-.39s-.77.68-1.75,2a10.72,10.72,0,0,0-.72,1.14,2.33,2.33,0,0,0-.44,1.34,1.06,1.06,0,0,0,1.08.77,3.59,3.59,0,0,0,1.66-.59l1.09-.61-.76,1c-.27.36-.55.74-.81,1.14a18.33,18.33,0,0,0-1.83,3.69,5.82,5.82,0,0,0-.42,1.68,1,1,0,0,0,.74,1,2,2,0,0,0,1.89-.73C232.1,399.77,232.3,399.53,232.33,399.56Z" style="fill:#263238"></path><path d="M289.26,369.4a13,13,0,0,1,2.12.29,11.34,11.34,0,0,1,2.5.83,5.79,5.79,0,0,1,1.41,1,3.3,3.3,0,0,1,.94,1.71v.09h-.09a26.19,26.19,0,0,0-3,.12,8.28,8.28,0,0,0-3.26.92l0,0c-.79.74-1.64,1.52-2.57,2.31-.46.39-.95.78-1.48,1.15a17.64,17.64,0,0,1-1.71,1c-2.38,1.22-5,2.47-7.83,3.8l.08-.1a75.07,75.07,0,0,1-2.68,10.41c-.31.91-.67,1.81-1.08,2.71a11.94,11.94,0,0,1-1.66,2.54,27.57,27.57,0,0,1-4.6,4.26v-.28a21.47,21.47,0,0,0,1.84,1.3,5,5,0,0,1,1,.75,1.12,1.12,0,0,1,.19,1.32.91.91,0,0,1-.63.37,2.12,2.12,0,0,1-.67,0,10.75,10.75,0,0,1-1.21-.31,9.09,9.09,0,0,1-2.26-1.15l.29-.17c.07.56.58,1,1,1.57a1.71,1.71,0,0,1,.38,1.06,1,1,0,0,1-.68,1,1.37,1.37,0,0,1-1.15-.32c-.3-.23-.57-.46-.84-.71a14.38,14.38,0,0,1-1.49-1.62l.34-.05c-1.13,2.89-2.27,5.9-3.29,9-.26.78-.5,1.58-.71,2.38a8.1,8.1,0,0,0-.37,2.43c.07,1.67.29,3.38.44,5.12a47.15,47.15,0,0,1,0,10.69,37.58,37.58,0,0,1-1.29,5.38,27.1,27.1,0,0,1-2,5.3l0,0-.06,0-13.79,6.64-.05,0h0l-46,0h-.09l-.05,0c-2.12-1.62-3-4.41-3.31-7.09l0,.11a22.16,22.16,0,0,1-1.68-19l0-.11,0,.13a30.12,30.12,0,0,1,2.86-17.82l.32.35a.9.9,0,0,1-.95-.12,1.25,1.25,0,0,1-.38-.82,3.46,3.46,0,0,1,.3-1.53c.34-.92.7-1.82,1.09-2.71a47.36,47.36,0,0,1,2.68-5.15,45.82,45.82,0,0,1,7.09-8.94l0,.05.26-.4.13.38a2.24,2.24,0,0,1-1.4-1.49,3.33,3.33,0,0,1,0-2,5.3,5.3,0,0,1,2.73-2.69l.07.47a1.27,1.27,0,0,1-.75-.42,1.65,1.65,0,0,1-.33-.77,2.17,2.17,0,0,1,.39-1.51,6.19,6.19,0,0,1,2.39-1.63,25.56,25.56,0,0,1,5.2-2l.13.48a7.71,7.71,0,0,1-5.13-.25l-.41-.17.36-.26a18.11,18.11,0,0,1,13.45-3l-.18,0,.87-.58-.09.11a6.62,6.62,0,0,1,6.41-4.16l-.14,0,.15-.09,0,.42-3.12-1.1a2.76,2.76,0,0,1-.81-.4.84.84,0,0,1-.23-1,2.68,2.68,0,0,1,1.43-1,14,14,0,0,1,6.35-1.14l-.2.34c-.19-.32-.75-.29-1.27-.29a1.52,1.52,0,0,1-.87-.25.89.89,0,0,1-.47-.87.91.91,0,0,1,.77-.61l.78-.13c.52-.08,1-.13,1.56-.17a19.92,19.92,0,0,1,6.13.52l.48.12-.41.27-.08.05-.22-.37c1.53-.85,3-1.65,4.38-2.45l.13.39a3.25,3.25,0,0,1-1.86-.13.84.84,0,0,1-.43-1A1.58,1.58,0,0,1,240,360a17.75,17.75,0,0,1,3-1.82,19.48,19.48,0,0,1,6.49-1.86v.39l-1.62-.05-.81,0a2.3,2.3,0,0,1-.86-.15.83.83,0,0,1-.44-.85,1.13,1.13,0,0,1,.46-.79,4.45,4.45,0,0,1,1.52-.58,20.55,20.55,0,0,1,6.05-.61l-.1,0,.18-.1.06.33-4.33-1a2.55,2.55,0,0,1-1.05-.42.87.87,0,0,1-.29-1.16,1.37,1.37,0,0,1,1-.6c.36-.06.7-.08,1.05-.11a22.23,22.23,0,0,1,7.93.85l.84.25-.88,0-.4,0,.13-.22.07.23-.21-.11a15,15,0,0,1,8.75-.78,24.38,24.38,0,0,1,7.29,2.8,25,25,0,0,1,2.85,2c.88.7,1.71,1.38,2.5,2.05q2.35,2,4.23,3.68a59.84,59.84,0,0,1,5.49,5.36,1.51,1.51,0,0,1,.44,1.05,7.94,7.94,0,0,1,0,.83,3.37,3.37,0,0,1-.08.66,6.59,6.59,0,0,0,0-.66c0-.22,0-.5,0-.83a1.47,1.47,0,0,0-.44-1,64.7,64.7,0,0,0-5.54-5.29Q281.42,360,279,358c-.8-.66-1.63-1.34-2.51-2a25.66,25.66,0,0,0-2.84-2,24.41,24.41,0,0,0-7.22-2.73,14.65,14.65,0,0,0-8.58.8l-.16.06,0-.17-.05-.18-.05-.2h.18l.4,0,0,.31a21.62,21.62,0,0,0-7.81-.81c-.66.07-1.48,0-1.78.54a.52.52,0,0,0,.2.71,2.22,2.22,0,0,0,.93.37l4.31.95.45.1-.4.23-.18.1,0,0h-.06a20.12,20.12,0,0,0-5.94.61,4.13,4.13,0,0,0-1.38.52c-.36.24-.45.84-.08,1a5.82,5.82,0,0,0,1.51.13l1.62.05,0,.39a19.14,19.14,0,0,0-6.35,1.83,18.74,18.74,0,0,0-2.9,1.77,1.28,1.28,0,0,0-.44.59.43.43,0,0,0,.24.5,3.17,3.17,0,0,0,1.61.08l1-.08-.83.47-4.39,2.46-.22-.37.07-.05.07.39a19.39,19.39,0,0,0-6-.5c-.51,0-1,.09-1.52.17s-1.16.12-1.18.39c0,.1.09.29.27.41a1.07,1.07,0,0,0,.63.17,5.78,5.78,0,0,1,.82,0,1.1,1.1,0,0,1,.83.47l.23.37-.43,0a13.61,13.61,0,0,0-6.14,1.11c-.48.21-1,.42-1.2.79s.25.62.78.77l3.11,1.1.47.16-.42.26-.15.09-.07,0h-.07a6.17,6.17,0,0,0-5.94,3.86l0,.07-.07,0-.86.58-.08.06-.09,0a17.66,17.66,0,0,0-13.08,3l-.05-.42a7.31,7.31,0,0,0,4.8.23l.13.48a25,25,0,0,0-5.11,1.94,5.75,5.75,0,0,0-2.19,1.47,1.7,1.7,0,0,0-.3,1.15,1.1,1.1,0,0,0,.22.52.76.76,0,0,0,.46.24l.71.14-.64.33a4.82,4.82,0,0,0-2.48,2.41c-.36,1.05,0,2.51,1.07,2.85l.32.1-.18.28-.26.39,0,0h0a45.39,45.39,0,0,0-7,8.84,44.69,44.69,0,0,0-2.64,5.1c-.4.87-.75,1.77-1.08,2.68a3,3,0,0,0-.28,1.3.79.79,0,0,0,.21.48.42.42,0,0,0,.43,0l.62-.24-.3.6a29.57,29.57,0,0,0-2.8,17.51v.07l0,.07,0,.1a21.65,21.65,0,0,0,1.63,18.52l0,0V445a13,13,0,0,0,.91,3.79,7.23,7.23,0,0,0,2.15,2.91l-.13,0,46,0-.11,0L255,445l-.09.08a28.35,28.35,0,0,0,2-5.16,39.81,39.81,0,0,0,1.29-5.31,47.55,47.55,0,0,0,0-10.6c-.15-1.73-.37-3.42-.44-5.14a8.65,8.65,0,0,1,.39-2.55q.33-1.22.72-2.4c1-3.14,2.18-6.15,3.32-9l.13-.32.22.27a13.6,13.6,0,0,0,1.44,1.59c.51.43,1.09,1.06,1.61.94a.67.67,0,0,0,.4-.64,1.34,1.34,0,0,0-.3-.82c-.36-.51-1-1-1.06-1.75l-.06-.42.35.24a8.57,8.57,0,0,0,2.17,1.11,9.41,9.41,0,0,0,1.16.3c.37.07.77.06.92-.18a.76.76,0,0,0-.15-.88,4.48,4.48,0,0,0-.89-.69,22.55,22.55,0,0,1-1.87-1.33l-.17-.14.18-.13a28.19,28.19,0,0,0,4.56-4.19,11.51,11.51,0,0,0,1.61-2.47c.41-.88.77-1.78,1.09-2.68a75.24,75.24,0,0,0,2.7-10.35v-.07l.06,0c2.83-1.32,5.46-2.56,7.84-3.76a18.31,18.31,0,0,0,1.7-.95,16.63,16.63,0,0,0,1.46-1.13c.93-.77,1.78-1.54,2.57-2.28h0a8.32,8.32,0,0,1,1.67-.64,11,11,0,0,1,1.66-.27,24,24,0,0,1,3-.09l-.08.08a3.24,3.24,0,0,0-.88-1.64,5.59,5.59,0,0,0-1.37-.94,10.61,10.61,0,0,0-2.47-.86c-.68-.16-1.21-.24-1.57-.29Z" style="fill:#263238"></path></g><g id="Floor"><path d="M728.83,452.77c0,.14-158.85.26-354.74.26s-354.78-.12-354.78-.26,158.81-.26,354.78-.26S728.83,452.62,728.83,452.77Z" style="fill:#263238"></path></g></svg>