<svg xmlns="http://www.w3.org/2000/svg" viewBox="0 0 750 500"><g id="background-complete"><path d="M315.09,68c.48-3.44-4.38-6.28-8-6.57-1.74-.14-3.55.12-5.2-.45-3.58-1.25-5-5.87-8.49-7.34-2.61-1.1-5.61-.12-8.14,1.15s-5,2.88-7.86,3.06c-2.45.16-5.12-.76-7.27.44-1.61.9-2.44,2.75-3.92,3.83a9.26,9.26,0,0,1-5.12,1.39,14.39,14.39,0,0,0-5.28.87c-1.64.74-3,2.47-2.65,4.23Z" style="fill:#ebebeb"></path><path d="M701.53,60.11c.39-2.85-3.62-5.18-6.63-5.43-1.44-.11-2.94.11-4.3-.37-3-1-4.13-4.84-7-6.06-2.15-.9-4.63-.1-6.72,1s-4.15,2.37-6.48,2.52c-2,.13-4.23-.62-6,.37-1.32.73-2,2.26-3.23,3.16a7.7,7.7,0,0,1-4.23,1.14,11.85,11.85,0,0,0-4.36.72,3.43,3.43,0,0,0-2.18,3.49Z" style="fill:#f5f5f5"></path><path d="M424.35,192c.47-3.45-4.39-6.28-8-6.58-1.75-.14-3.56.13-5.21-.45-3.57-1.24-5-5.86-8.49-7.34-2.61-1.1-5.61-.12-8.14,1.16s-5,2.87-7.85,3.05c-2.46.16-5.13-.75-7.28.45-1.6.89-2.44,2.74-3.92,3.83a9.4,9.4,0,0,1-5.12,1.39,14.21,14.21,0,0,0-5.28.86c-1.63.75-3,2.47-2.65,4.24Z" style="fill:#ebebeb"></path><path d="M198.83,305.63c0,.15-17.49.26-39.06.26s-39.07-.11-39.07-.26,17.49-.26,39.07-.26S198.83,305.49,198.83,305.63Z" style="fill:#e0e0e0"></path><path d="M139.42,317.36c0,.15-13.27.26-29.63.26s-29.64-.11-29.64-.26,13.27-.26,29.64-.26S139.42,317.22,139.42,317.36Z" style="fill:#e0e0e0"></path><path d="M455.67,252.85c0,.14-22.31.26-49.81.26s-49.81-.12-49.81-.26,22.3-.26,49.81-.26S455.67,252.7,455.67,252.85Z" style="fill:#e0e0e0"></path><path d="M476.78,268.41c0,.14-14.18.26-31.67.26s-31.67-.12-31.67-.26,14.18-.26,31.67-.26S476.78,268.26,476.78,268.41Z" style="fill:#e0e0e0"></path><path d="M483.43,312.42c0,.14-43.93.26-98.11.26s-98.11-.12-98.11-.26,43.92-.26,98.11-.26S483.43,312.27,483.43,312.42Z" style="fill:#e0e0e0"></path><path d="M441.15,339.27c0,.14-12.4.26-27.7.26s-27.71-.12-27.71-.26,12.4-.26,27.71-.26S441.15,339.12,441.15,339.27Z" style="fill:#e0e0e0"></path><path d="M663.47,333.84c0,.14-15.06.26-33.64.26s-33.65-.12-33.65-.26,15.06-.27,33.65-.27S663.47,333.69,663.47,333.84Z" style="fill:#e0e0e0"></path><path d="M706.35,329.37c0,.15-13.59.26-30.34.26s-30.35-.11-30.35-.26,13.58-.26,30.35-.26S706.35,329.23,706.35,329.37Z" style="fill:#e0e0e0"></path><path d="M694.48,291.77c0,.14-8.27.26-18.47.26s-18.48-.12-18.48-.26,8.27-.26,18.48-.26S694.48,291.63,694.48,291.77Z" style="fill:#e0e0e0"></path><path d="M692.62,433.39c0,.15-27.67.26-61.79.26s-61.8-.11-61.8-.26,27.66-.26,61.8-.26S692.62,433.25,692.62,433.39Z" style="fill:#e0e0e0"></path><path d="M666.75,456c0,.14-27.67.26-61.79.26s-61.79-.12-61.79-.26,27.66-.26,61.79-.26S666.75,455.82,666.75,456Z" style="fill:#e0e0e0"></path><path d="M693.25,468.08c0,.15-21.31.26-47.59.26s-47.59-.11-47.59-.26,21.3-.26,47.59-.26S693.25,467.94,693.25,468.08Z" style="fill:#e0e0e0"></path><path d="M221.56,456c0,.14-27.67.26-61.79.26S98,456.11,98,456s27.66-.26,61.79-.26S221.56,455.82,221.56,456Z" style="fill:#e0e0e0"></path><path d="M266.88,464.76c0,.15-27.67.26-61.79.26s-61.8-.11-61.8-.26,27.66-.26,61.8-.26S266.88,464.62,266.88,464.76Z" style="fill:#e0e0e0"></path><polygon points="509.07 200.7 518.89 159.54 534.3 197.78 529.78 196.45 540.94 219.29 534.57 217.17 542.27 232.04 507.74 232.04 510.66 218.23 507.74 222.22 514.13 198.12 509.07 200.7" style="fill:#e0e0e0"></polygon><polygon points="576.06 190.95 588.94 136.96 609.14 187.12 603.22 185.37 617.85 215.33 609.49 212.54 619.59 232.04 574.32 232.04 578.15 213.93 574.32 219.16 582.69 187.56 576.06 190.95" style="fill:#ebebeb"></polygon><polygon points="236.87 186.78 254.53 112.8 282.21 181.53 274.1 179.14 294.14 220.19 282.69 216.37 296.53 232.05 234.48 232.05 239.73 218.28 234.48 225.44 245.96 182.14 236.87 186.78" style="fill:#f5f5f5"></polygon><polygon points="57.03 153.73 81.36 51.81 119.49 146.5 108.32 143.21 135.93 199.76 120.15 194.5 139.22 231.32 53.74 231.32 60.97 197.13 53.74 206.99 69.55 147.34 57.03 153.73" style="fill:#f5f5f5"></polygon><polygon points="171.96 154.46 196.29 52.54 234.43 147.23 223.25 143.94 250.87 200.49 235.08 195.23 254.15 232.05 168.67 232.05 175.9 197.86 168.67 207.72 184.48 148.07 171.96 154.46" style="fill:#ebebeb"></polygon><polygon points="271.93 201.29 281.63 160.63 296.85 198.41 292.39 197.1 303.41 219.66 297.11 217.56 304.72 232.25 270.61 232.25 273.5 218.61 270.61 222.54 276.92 198.74 271.93 201.29" style="fill:#e0e0e0"></polygon><path d="M334.21,281.27c0,.14-58.24.26-130.06.26s-130.06-.12-130.06-.26,58.22-.26,130.06-.26S334.21,281.12,334.21,281.27Z" style="fill:#e0e0e0"></path><path d="M613,256.81c0,.14-11.08.26-24.74.26s-24.74-.12-24.74-.26,11.07-.26,24.74-.26S613,256.66,613,256.81Z" style="fill:#e0e0e0"></path><polygon points="605.8 171.94 629.25 73.73 665.99 164.97 655.22 161.81 681.83 216.29 666.63 211.23 685 232.04 602.63 232.04 609.6 213.76 602.63 223.26 617.87 165.78 605.8 171.94" style="fill:#f5f5f5"></polygon><polygon points="652.73 190.95 665.61 136.96 685.81 187.12 679.89 185.37 694.52 215.33 686.16 212.54 696.26 232.04 650.98 232.04 654.81 213.93 650.98 219.16 659.36 187.56 652.73 190.95" style="fill:#e0e0e0"></polygon><polygon points="127.98 171.61 146.93 92.22 176.64 165.98 167.93 163.41 189.44 207.47 177.15 203.37 192 232.05 125.42 232.05 131.05 205.42 125.42 213.1 137.73 166.63 127.98 171.61" style="fill:#e0e0e0"></polygon></g><g id="background-simple"><path d="M706.78,75.36l-.72-2.44C700,52.35,683.37,36.53,662.53,32.4a55.51,55.51,0,0,0-8.14-1c-19.69-.94-39.64,8.87-51.14,25.14-6.76,9.57-11.1,21.51-20.83,28-12.66,8.39-29.33,4.35-43.79,0s-31.15-8.31-43.78.13c-7.91,5.29-12.43,14.59-14.38,24-5.17,24.8,6.09,51.16,24.88,67.76s44,24.32,69,25.81c35,2.08,71.45-7.95,98-31.34S713.87,110,706.78,75.36Z" style="fill:#f5f5f5"></path><path d="M64.72,164.08l.6,2.47c5.07,20.84,20.91,37.45,41.53,42.57a55.25,55.25,0,0,0,8.08,1.39c19.63,1.89,40-6.95,52.29-22.65,7.22-9.24,12.12-21,22.15-26.91,13.06-7.77,29.52-2.93,43.75,2.07s30.71,9.8,43.73,2c8.15-4.9,13.12-14,15.52-23.22,6.36-24.52-3.61-51.4-21.59-68.88S228,46.48,203.08,43.78c-34.85-3.77-71.75,4.5-99.35,26.58S59.31,129.1,64.72,164.08Z" style="fill:#f5f5f5"></path></g><g id="Water"><path d="M721.49,232.17c0,.15-155.14.26-346.47.26s-346.51-.11-346.51-.26,155.11-.26,346.51-.26S721.49,232,721.49,232.17Z" style="fill:#263238"></path><path d="M705.78,410.13c0,.14-77.4.26-172.84.26s-172.86-.12-172.86-.26,77.38-.26,172.86-.26S705.78,410,705.78,410.13Z" style="fill:#263238"></path><path d="M618.62,425.49c0,.15-77.4.26-172.84.26s-172.86-.11-172.86-.26,77.37-.26,172.86-.26S618.62,425.35,618.62,425.49Z" style="fill:#263238"></path><path d="M321,412.74c0,.14-52.62.26-117.51.26s-117.51-.12-117.51-.26,52.6-.26,117.51-.26S321,412.6,321,412.74Z" style="fill:#263238"></path><path d="M418.05,439.57c0,.14-36.49.26-81.48.26s-81.48-.12-81.48-.26,36.47-.27,81.48-.27S418.05,439.42,418.05,439.57Z" style="fill:#263238"></path></g><g id="Sun"><circle cx="394.57" cy="99.51" r="34.14" transform="translate(153.03 427) rotate(-67.74)" style="fill:#FF725E"></circle><circle cx="394.57" cy="99.51" r="34.14" transform="translate(153.03 427) rotate(-67.74)" style="fill:#fff;opacity:0.9"></circle><circle cx="394.33" cy="99.04" r="27.64" transform="translate(232.28 471.92) rotate(-80.61)" style="fill:#FF725E"></circle><circle cx="394.33" cy="99.04" r="27.64" transform="translate(232.28 471.92) rotate(-80.61)" style="fill:#fff;opacity:0.8"></circle><circle cx="394.33" cy="99.04" r="21.85" transform="translate(222.78 467.65) rotate(-79.14)" style="fill:#FF725E"></circle><path d="M391.21,147.9c-.12,0-.23-4-.23-9s.11-9,.23-9a87.64,87.64,0,0,1,.23,9A87.36,87.36,0,0,1,391.21,147.9Z" style="fill:#FF725E"></path><path d="M378.62,124.79c.11.07-1.94,3.83-4.59,8.41s-4.88,8.24-5,8.18,1.95-3.83,4.59-8.41S378.51,124.73,378.62,124.79Z" style="fill:#FF725E"></path><path d="M365.7,116.75a50.56,50.56,0,0,1-5.1,4.35,50.72,50.72,0,0,1-5.39,4,47.82,47.82,0,0,1,5.1-4.35A48,48,0,0,1,365.7,116.75Z" style="fill:#FF725E"></path><path d="M413,139a13.35,13.35,0,0,1-.57-2.22c-.32-1.37-.76-3.27-1.32-5.35s-1.13-3.94-1.54-5.28A13.47,13.47,0,0,1,409,124a9.37,9.37,0,0,1,.92,2.1c.5,1.33,1.12,3.19,1.68,5.28s1,4,1.2,5.4A10.12,10.12,0,0,1,413,139Z" style="fill:#FF725E"></path><path d="M435.18,123.29a72.5,72.5,0,0,1-6.46-5.34,77.24,77.24,0,0,1-6.16-5.68,72.5,72.5,0,0,1,6.46,5.34A79.43,79.43,0,0,1,435.18,123.29Z" style="fill:#FF725E"></path><path d="M443.67,101.68a17.27,17.27,0,0,1-2.64-.38c-1.62-.27-3.86-.61-6.34-.9s-4.75-.45-6.38-.56a19.67,19.67,0,0,1-2.66-.22,13.25,13.25,0,0,1,2.67-.1c1.65,0,3.92.14,6.42.42s4.74.69,6.35,1A14,14,0,0,1,443.67,101.68Z" style="fill:#FF725E"></path><path d="M443.69,80.43c0,.12-4.7,1.38-10.56,2.81s-10.65,2.49-10.68,2.36,4.7-1.38,10.57-2.81S443.66,80.31,443.69,80.43Z" style="fill:#FF725E"></path><path d="M419,55.67c.11.07-2.16,3.68-5.05,8.06s-5.34,7.88-5.44,7.81,2.16-3.68,5.05-8.06S418.9,55.6,419,55.67Z" style="fill:#FF725E"></path><path d="M394.5,50.49a21.86,21.86,0,0,1,0,3c0,1.85-.06,4.41-.06,7.23s0,5.38.08,7.23a20,20,0,0,1,0,3,17.61,17.61,0,0,1-.3-3c-.11-1.85-.21-4.41-.21-7.24s.08-5.39.19-7.24A17.61,17.61,0,0,1,394.5,50.49Z" style="fill:#FF725E"></path><path d="M375.94,73.61c-.11.06-2.41-3.51-5.14-8s-4.86-8.14-4.75-8.21,2.41,3.5,5.14,8S376.05,73.54,375.94,73.61Z" style="fill:#FF725E"></path><path d="M364.86,83a10.83,10.83,0,0,1-2.33-.37c-1.42-.3-3.37-.78-5.49-1.4s-4-1.29-5.38-1.81a10.61,10.61,0,0,1-2.15-1,13.13,13.13,0,0,1,2.26.64c1.37.44,3.28,1,5.4,1.68s4,1.14,5.44,1.52A12.86,12.86,0,0,1,364.86,83Z" style="fill:#FF725E"></path><path d="M360,99.81a54,54,0,0,1-7,.91,53.12,53.12,0,0,1-7,.44,53.09,53.09,0,0,1,7-.9A56.52,56.52,0,0,1,360,99.81Z" style="fill:#FF725E"></path></g><g id="Characters"><path d="M382.07,292.53c-1.44,2.46-101.42,87.76-101.42,87.76l7.79,2.81,99.75-87.2Z" style="fill:#455a64"></path><path d="M304.51,269.14c.23.4,20.11,6.69,20.11,6.69s9.13.05,13.58,1.63,37.29,9.38,37.29,9.38l-1.36,9.9-72.7-10.07Z" style="fill:#ffbf9d"></path><path d="M300.86,265.72c-5.15-2.38-13.07-4.1-13.6-4.23l3.68,25.71,19.9,3,3.77-18.8S306,268.09,300.86,265.72Z" style="fill:#e0e0e0"></path><path d="M375,286.94c.25,0,12.25-2.66,13.22-1.91s6.37,6,6.45,7.5l.08,1.46a3.11,3.11,0,0,1-.33,1.91c-.5.67-1.66,1.91-1.66,1.91s-7.78,2.66-7.87,2.66-2.42-.75-1.34-2,1.49-2.74,3.32-2.57a6.46,6.46,0,0,0,3.73-1.24l.17-.83-4.23-1.91-3.82.76s-2.3,4.13-3.84,4.65a22.38,22.38,0,0,1-5.38.4Z" style="fill:#ffbf9d"></path><rect x="382.73" y="287.38" width="5.95" height="15.17" transform="translate(348.34 -189.16) rotate(48.18)" style="fill:#FF725E"></rect><path d="M376.47,288.78a11.54,11.54,0,0,1,11.4.92,2.62,2.62,0,0,1,1.19,1.46,2.14,2.14,0,0,1-1.7,2.23,3.6,3.6,0,0,1-3.51-.95c-.28-.29-.57-.66-1-.64a1.25,1.25,0,0,0-.74.46L379,295.59" style="fill:#ffbf9d"></path><path d="M282.43,206.06c-4.94-1-9.34.8-13.6,3.48A24.79,24.79,0,0,0,259.36,221,24.5,24.5,0,0,0,258,236.52a19.65,19.65,0,0,0,9.33,12.31c6.36,3.46,14.63,2.55,20.52-1.65s9.39-11.32,9.87-18.53a23.94,23.94,0,0,0-3.38-14.31,18.21,18.21,0,0,0-11.92-8.28" style="fill:#263238"></path><path d="M267.86,222.51c.78-1.87.56-4,.9-6,.76-4.41,4.42-7.85,8.59-9.46,3.88-1.5,8.56-1,13.13.61a17.63,17.63,0,0,1,8.11,5.61,13.91,13.91,0,0,1,2.21,12.55l-22.55-3.93a25.57,25.57,0,0,1-7,4.32,4.65,4.65,0,0,1-2.38.31,2.12,2.12,0,0,1-1.72-1.5A4.48,4.48,0,0,1,267.86,222.51Z" style="fill:#263238"></path><path d="M290.79,213.92l-19.88,3.63a3.69,3.69,0,0,0-3.54,3.52l-1,42.77A13.29,13.29,0,0,0,269,272l1.82,2.49a9.75,9.75,0,0,0,16.31-.76,4.19,4.19,0,0,0,.49-1.11,6.71,6.71,0,0,0,.21-1,30.76,30.76,0,0,0,.53-6.46c.3-3.8.4-5.36.4-5.33s8.12-.79,10.48-11.16c1.18-5.15,1.49-13.71,1.52-20.72C300.74,221.67,297.1,213.68,290.79,213.92Z" style="fill:#ffbf9d"></path><path d="M297.78,236.2a1.34,1.34,0,0,1-1.38,1.27,1.29,1.29,0,0,1-1.31-1.3,1.36,1.36,0,0,1,1.39-1.27A1.28,1.28,0,0,1,297.78,236.2Z" style="fill:#263238"></path><path d="M298.57,232.29c-.18.17-1.15-.65-2.59-.75s-2.56.56-2.7.37.12-.38.6-.69a3.71,3.71,0,0,1,2.18-.51,3.47,3.47,0,0,1,2,.81C298.53,231.89,298.66,232.22,298.57,232.29Z" style="fill:#263238"></path><path d="M284.56,235.6a1.33,1.33,0,0,1-1.38,1.26,1.29,1.29,0,0,1-1.31-1.3,1.35,1.35,0,0,1,1.39-1.27A1.29,1.29,0,0,1,284.56,235.6Z" style="fill:#263238"></path><path d="M284.84,231.55c-.18.17-1.15-.65-2.59-.75s-2.56.56-2.7.38.12-.39.6-.7a3.71,3.71,0,0,1,2.18-.51,3.47,3.47,0,0,1,2,.81C284.8,231.15,284.93,231.48,284.84,231.55Z" style="fill:#263238"></path><path d="M288.87,242.68a9.75,9.75,0,0,1,2.38-.27c.37,0,.72-.06.8-.31a1.84,1.84,0,0,0-.17-1.11l-.91-2.88c-1.24-4.1-2.12-7.47-2-7.52a50.14,50.14,0,0,1,2.56,7.34c.29,1,.58,2,.85,2.9a2.18,2.18,0,0,1,.1,1.46,1,1,0,0,1-.65.5,2.41,2.41,0,0,1-.63.05A9.48,9.48,0,0,1,288.87,242.68Z" style="fill:#263238"></path><path d="M288.72,259.85A26.72,26.72,0,0,1,275,255.17s3,7.49,13.59,7.21Z" style="fill:#ff9a6c"></path><path d="M288,246.12a2.61,2.61,0,0,0-2.27-1.12,2.36,2.36,0,0,0-1.71.77,1.52,1.52,0,0,0-.23,1.71,1.76,1.76,0,0,0,1.87.61,5.47,5.47,0,0,0,1.92-1,1.53,1.53,0,0,0,.44-.4.49.49,0,0,0,0-.54" style="fill:#ff9a6c"></path><path d="M284.55,243.4c.24,0,.13,1.57,1.4,2.77s2.95,1.14,2.95,1.36-.39.28-1.1.25a3.94,3.94,0,0,1-2.47-1,3.43,3.43,0,0,1-1.07-2.32C284.24,243.76,284.44,243.38,284.55,243.4Z" style="fill:#263238"></path><path d="M284.88,227.26c-.17.38-1.6.1-3.31.19s-3.11.46-3.31.09c-.09-.17.17-.53.75-.87a5.47,5.47,0,0,1,2.5-.69,5.57,5.57,0,0,1,2.54.47C284.66,226.74,285,227.07,284.88,227.26Z" style="fill:#263238"></path><path d="M298.57,225.94c-.27.32-1.25-.09-2.44-.19s-2.23.07-2.44-.28c-.09-.18.09-.5.56-.78a3.56,3.56,0,0,1,3.93.39C298.58,225.44,298.7,225.79,298.57,225.94Z" style="fill:#263238"></path><path d="M264.32,219.36c2.22-6,11.4-13.91,17.71-13.16l9.83,6.55a9.76,9.76,0,0,1-7,7.15c-1.82.46-4,.51-5.12,2s-.64,3.83-1.72,5.41c-1.51,2.17-5.34,1.88-6.51,4.26-.51,1-.33,2.32-.86,3.35-.7,1.37-4.34,3-5.79,2.45s-1.33-3-1.74-4.38a6.9,6.9,0,0,1,0-4.66C263.93,225.4,263.27,222.2,264.32,219.36Z" style="fill:#263238"></path><path d="M269.16,238.81c0-.78-.73-2.68-1.49-2.85-2-.46-5.76-.54-6.14,4.68-.53,7.14,6.75,6.19,6.78,6S269,241.5,269.16,238.81Z" style="fill:#ffbf9d"></path><path d="M266.33,243.76s-.14.08-.35.16a1.22,1.22,0,0,1-.93,0,3.06,3.06,0,0,1-1.22-2.86,4.14,4.14,0,0,1,.48-1.76,1.44,1.44,0,0,1,1-.88.64.64,0,0,1,.71.39c.08.21,0,.35.06.36s.16-.1.13-.4a.78.78,0,0,0-.25-.47.94.94,0,0,0-.67-.23,1.71,1.71,0,0,0-1.38,1,4.1,4.1,0,0,0-.58,2c-.06,1.44.57,2.84,1.58,3.21a1.36,1.36,0,0,0,1.16-.1C266.3,243.94,266.35,243.78,266.33,243.76Z" style="fill:#ff9a6c"></path><path d="M289.84,210.53c.58,2.93,4.9,6.79,6.78,9.11,3.58,4.42,4.27,5.88,4,15.54,1.84-3.29,3.27-6.52,3.24-10.29A15.5,15.5,0,0,0,300,214.53a12.14,12.14,0,0,0-10.13-4" style="fill:#263238"></path><path d="M259.09,221.08l31.18-12.19,1,7.92L257.4,228.88C257.31,227.32,257.61,223.36,259.09,221.08Z" style="fill:#FF725E"></path><path d="M308.82,226.2a5.48,5.48,0,0,0,2.64-1.74c.47-.58.82-1.27.53-1.84-.63-1.26-10.87-6.65-10.87-6.65l-2.53-4.53c-12.88-8.91-28.52,4.83-28.52,4.83l1.28,7s2.17,1.87,16,4.12C287.36,227.43,300.55,228.83,308.82,226.2Z" style="fill:#FF725E"></path><path d="M270.07,216.27a13.78,13.78,0,0,1,.6,2c.37,1.37.84,3.18,1.42,5.35l-.3-.14a89.51,89.51,0,0,1,10.5-5,40.59,40.59,0,0,1,13.24-3.09c.87,0,1.66,0,2.35,0s1.29.13,1.77.22a9.41,9.41,0,0,1,1.47.37,32.07,32.07,0,0,0-5.58-.27,43.49,43.49,0,0,0-13.06,3.21,103.81,103.81,0,0,0-10.5,4.9l-.24.12-.05-.25c-.51-2.19-.93-4-1.24-5.39A12.37,12.37,0,0,1,270.07,216.27Z" style="fill:#263238"></path><path d="M274.54,207.74a5.14,5.14,0,0,0,2.85-5.38,7.41,7.41,0,0,0-3.64-5.18,13.81,13.81,0,0,0-6.24-1.77c-3.37-.26-7.09.34-9.34,2.86a7.8,7.8,0,0,0-.44,9.38,8.89,8.89,0,0,0,8.93,3.42l-1,.3a12.33,12.33,0,0,0,11.73-4.57Z" style="fill:#263238"></path><path d="M261.76,331.16c.92-.42,16.15-8.55,28.5-13.8s26.05-9.84,29.74-9.89c2.7,0,9.46,5,12.27,9.89s29.31,58.9,29.31,58.9L346,379.42s-19.18-19.79-21.42-23-8.32-18.57-8.32-18.57-12.32,10.35-15.31,13.69c-5.4,6-31.72,24.76-31.72,24.76H231.87s-6.82-7.94-9-24.24a120.64,120.64,0,0,0-4.72-20.86Z" style="fill:#ffbf9d"></path><path d="M271,326.75s-1.3,12.52,2.1,20.44,12.28,16.44,12.28,16.44l-16.19,12.63H231.87s-14.59-9.59-16-21.63,2.36-23.47,2.36-23.47a41.29,41.29,0,0,1,15.68-3.39c8.49,0,26,2.86,26,2.86Z" style="fill:#FF725E"></path><path d="M314.13,324.86a31.39,31.39,0,0,0,3.47,15.49,8,8,0,0,1-1.28-2,22.52,22.52,0,0,1-2.49-11.12A8,8,0,0,1,314.13,324.86Z" style="fill:#ff9a6c"></path><path d="M218.2,331.16s6.88-15,13.67-29.71,18.36-29.22,24-34.31a62.09,62.09,0,0,1,10.59-7.74l29.94,9.45s.57,29.09-3.55,36.82c-5.09,9.53-19.51,13.23-19.51,13.23l-1.47,3.39,2.66,2.36-12.36,6.13Z" style="fill:#e0e0e0"></path><g style="opacity:0.30000000000000004"><path d="M264.76,288l-1.4.14c2.78,5.4,8.5,8.89,14.47,10.06s12.16.27,18-1.36Z"></path></g><path d="M284.72,307.47s-.19.26-.61.65-1.06.94-1.87,1.58a39.88,39.88,0,0,1-14.37,7.06c-1,.25-1.82.43-2.39.51a2.83,2.83,0,0,1-.89.09c0-.08,1.22-.36,3.18-1a48.42,48.42,0,0,0,14.25-7C283.69,308.22,284.67,307.41,284.72,307.47Z" style="fill:#263238"></path><path d="M272.14,319a54.27,54.27,0,0,1-7.51,1.31,54.38,54.38,0,0,1-7.59.79,57.14,57.14,0,0,1,7.52-1.3A57.32,57.32,0,0,1,272.14,319Z" style="fill:#263238"></path><path d="M271.38,322.37a34.31,34.31,0,0,1-5.83.61,33.94,33.94,0,0,1-5.86.09,32,32,0,0,1,5.83-.61A31.69,31.69,0,0,1,271.38,322.37Z" style="fill:#263238"></path><g style="opacity:0.30000000000000004"><path d="M273.38,318.9c-5.61.86-13.58,1.55-18.76,3.21-.54.17-1.17.44-1.29,1a1.15,1.15,0,0,0,.79,1.2,3.33,3.33,0,0,0,1.54.07l12.81-1.4a24.34,24.34,0,0,0,3.44-.69s1.42-3.26,1.47-3.39"></path></g><path d="M722.57,394.61c0,.15-153.56.26-342.94.26s-343-.11-343-.26,153.53-.26,343-.26S722.57,394.47,722.57,394.61Z" style="fill:#263238"></path><path d="M550.86,269.14c.23.4,20.11,6.69,20.11,6.69s9.13.05,13.58,1.63,37.29,9.38,37.29,9.38l-1.36,9.9-72.7-10.07Z" style="fill:#a2675f"></path><path d="M547.21,265.72c-5.15-2.38-13.07-4.1-13.6-4.23l3.68,25.71,19.9,3,3.77-18.8S552.36,268.09,547.21,265.72Z" style="fill:#e0e0e0"></path><path d="M628.42,292.53C627,295,527,380.29,527,380.29l7.79,2.81,99.75-87.2Z" style="fill:#455a64"></path><path d="M621.32,286.94c.25,0,12.25-2.66,13.22-1.91s6.37,6,6.45,7.5l.08,1.46a3.11,3.11,0,0,1-.33,1.91c-.5.67-1.66,1.91-1.66,1.91s-7.78,2.66-7.87,2.66-2.42-.75-1.34-2,1.49-2.74,3.32-2.57a6.46,6.46,0,0,0,3.73-1.24l.17-.83-4.24-1.91-3.81.76s-2.3,4.13-3.84,4.65a22.38,22.38,0,0,1-5.38.4Z" style="fill:#a2675f"></path><rect x="629.08" y="287.38" width="5.95" height="15.17" transform="translate(430.42 -372.75) rotate(48.18)" style="fill:#FF725E"></rect><path d="M508.11,329.74c.92-.42,16.15-8.56,28.5-13.8s26-9.85,29.74-9.89c2.7,0,9.46,5,12.26,9.89s29.32,58.89,29.32,58.89L592.34,378s-19-19.92-21.42-23.05a48.24,48.24,0,0,1-8.77-18.18s-10.93,10.13-14.86,13.31c-6.29,5.08-33.14,24.07-33.14,24.07l-35.93.68s-6.82-7.93-9-24.23a65.19,65.19,0,0,1,.7-20.86Z" style="fill:#a2675f"></path><path d="M517.13,325.49s-1,13.78,2.35,21.7,12.28,16.44,12.28,16.44l-16.19,12.63H478.22a35.89,35.89,0,0,1-9.61-19.88c-1.43-12.05.66-25.22.66-25.22s2.47-3.38,11-3.39,26,2.86,26,2.86Z" style="fill:#FF725E"></path><path d="M560.48,324.86A31.39,31.39,0,0,0,564,340.35a8,8,0,0,1-1.28-2,22.52,22.52,0,0,1-2.49-11.12A7.6,7.6,0,0,1,560.48,324.86Z" style="fill:#7a4a45"></path><path d="M524.68,206.63c.61-1.85-.54-3.92-2.18-5a12.85,12.85,0,0,0-5.57-1.57c-3.12-.37-6.34-.68-9.36.18-5,1.44-8.69,5.94-10.46,10.84s-1.95,10.22-2.06,15.43-.19,10.51-1.8,15.47c-1.06,3.26-2.76,6.86-1.2,9.91.44.86,1.12,1.59,1.57,2.45.81,1.54.85,3.35,1.11,5.07a18.86,18.86,0,0,0,20.14,16c3.52-.27,7.23-1.79,8.89-4.91,1.14-2.13,1.17-4.66,1.17-7.07l0-57.45" style="fill:#263238"></path><path d="M528.78,206.06c-4.94-1-9.34.8-13.6,3.48A24.79,24.79,0,0,0,505.71,221a24.5,24.5,0,0,0-1.35,15.54,19.65,19.65,0,0,0,9.33,12.31c6.36,3.46,14.63,2.55,20.52-1.65s9.39-11.32,9.87-18.53a23.94,23.94,0,0,0-3.38-14.31,18.21,18.21,0,0,0-11.92-8.28" style="fill:#263238"></path><path d="M514.21,222.51c.78-1.87.56-4,.9-6,.76-4.41,4.42-7.85,8.59-9.46,3.88-1.5,8.56-1,13.13.61a17.63,17.63,0,0,1,8.11,5.61,13.87,13.87,0,0,1,2.2,12.55l-22.54-3.93a25.57,25.57,0,0,1-7,4.32,4.65,4.65,0,0,1-2.38.31,2.12,2.12,0,0,1-1.72-1.5A4.48,4.48,0,0,1,514.21,222.51Z" style="fill:#263238"></path><path d="M537.14,213.92l-19.88,3.63a3.69,3.69,0,0,0-3.54,3.52l-1,42.77a13.29,13.29,0,0,0,2.56,8.14l1.82,2.49a9.75,9.75,0,0,0,16.31-.76,4.55,4.55,0,0,0,.49-1.11,6.71,6.71,0,0,0,.21-1,30.76,30.76,0,0,0,.53-6.46c.3-3.8.4-5.36.4-5.33s8.12-.79,10.48-11.16c1.18-5.15,1.49-13.71,1.52-20.72C547.09,221.67,543.45,213.68,537.14,213.92Z" style="fill:#a2675f"></path><path d="M544.13,236.2a1.34,1.34,0,0,1-1.38,1.27,1.29,1.29,0,0,1-1.31-1.3,1.36,1.36,0,0,1,1.39-1.27A1.28,1.28,0,0,1,544.13,236.2Z" style="fill:#263238"></path><path d="M544.92,232.29c-.18.17-1.15-.65-2.59-.75s-2.56.56-2.7.37.12-.38.6-.69a3.71,3.71,0,0,1,2.18-.51,3.47,3.47,0,0,1,2,.81C544.88,231.89,545,232.22,544.92,232.29Z" style="fill:#263238"></path><path d="M530.91,235.6a1.33,1.33,0,0,1-1.38,1.26,1.29,1.29,0,0,1-1.31-1.3,1.35,1.35,0,0,1,1.39-1.27A1.29,1.29,0,0,1,530.91,235.6Z" style="fill:#263238"></path><path d="M531.19,231.55c-.18.17-1.15-.65-2.59-.75s-2.56.56-2.7.38.12-.39.6-.7a3.71,3.71,0,0,1,2.18-.51,3.47,3.47,0,0,1,2,.81C531.14,231.15,531.27,231.48,531.19,231.55Z" style="fill:#263238"></path><path d="M535.22,242.68a9.75,9.75,0,0,1,2.38-.27c.37,0,.72-.06.8-.31a1.84,1.84,0,0,0-.17-1.11l-.91-2.88c-1.24-4.1-2.12-7.47-2-7.52a49.48,49.48,0,0,1,2.55,7.34l.86,2.9a2.18,2.18,0,0,1,.1,1.46,1,1,0,0,1-.65.5,2.41,2.41,0,0,1-.63.05A9.48,9.48,0,0,1,535.22,242.68Z" style="fill:#263238"></path><path d="M535.07,259.85a26.72,26.72,0,0,1-13.77-4.68s3,7.49,13.59,7.21Z" style="fill:#7a4a45"></path><path d="M534.38,246.12a2.61,2.61,0,0,0-2.27-1.12,2.36,2.36,0,0,0-1.71.77,1.52,1.52,0,0,0-.23,1.71,1.76,1.76,0,0,0,1.87.61,5.47,5.47,0,0,0,1.92-1,1.53,1.53,0,0,0,.44-.4.49.49,0,0,0,0-.54" style="fill:#7a4a45"></path><path d="M530.9,243.4c.24,0,.13,1.57,1.4,2.77s3,1.14,3,1.36-.39.28-1.1.25a3.92,3.92,0,0,1-2.47-1,3.43,3.43,0,0,1-1.07-2.32C530.59,243.76,530.79,243.38,530.9,243.4Z" style="fill:#263238"></path><path d="M531.23,227.26c-.17.38-1.6.1-3.31.19s-3.11.46-3.31.09c-.09-.17.17-.53.75-.87a5.47,5.47,0,0,1,2.5-.69,5.57,5.57,0,0,1,2.54.47C531,226.74,531.3,227.07,531.23,227.26Z" style="fill:#263238"></path><path d="M544.92,225.94c-.27.32-1.25-.09-2.44-.19s-2.23.07-2.44-.28c-.09-.18.09-.5.55-.78a3.42,3.42,0,0,1,2-.4,3.37,3.37,0,0,1,1.91.79C544.93,225.44,545,225.79,544.92,225.94Z" style="fill:#263238"></path><path d="M510.67,219.36c2.22-6,11.4-13.91,17.71-13.16l9.83,6.55a9.77,9.77,0,0,1-7,7.15c-1.82.46-4,.51-5.12,2s-.64,3.83-1.73,5.41c-1.5,2.17-5.33,1.88-6.5,4.26-.51,1-.33,2.32-.86,3.35-.7,1.37-4.34,3-5.79,2.45s-1.33-3-1.74-4.38a6.9,6.9,0,0,1,0-4.66C510.28,225.4,509.62,222.2,510.67,219.36Z" style="fill:#263238"></path><path d="M515.51,238.81c0-.78-.73-2.68-1.49-2.85-2-.46-5.76-.54-6.14,4.68-.53,7.14,6.75,6.19,6.78,6S515.33,241.5,515.51,238.81Z" style="fill:#a2675f"></path><path d="M512.67,243.76s-.13.08-.34.16a1.22,1.22,0,0,1-.93,0,3.06,3.06,0,0,1-1.22-2.86,4.28,4.28,0,0,1,.47-1.76,1.47,1.47,0,0,1,1-.88.64.64,0,0,1,.71.39c.08.21,0,.35.06.36s.16-.1.13-.4a.78.78,0,0,0-.25-.47,1,1,0,0,0-.68-.23,1.73,1.73,0,0,0-1.38,1,4.21,4.21,0,0,0-.57,2c-.06,1.44.57,2.84,1.58,3.21a1.36,1.36,0,0,0,1.16-.1C512.65,243.94,512.7,243.78,512.67,243.76Z" style="fill:#7a4a45"></path><path d="M536.19,210.53c.58,2.93,4.9,6.79,6.77,9.11,3.59,4.42,4.28,5.88,4,15.54,1.84-3.29,3.27-6.52,3.24-10.29a15.5,15.5,0,0,0-3.85-10.36,12.14,12.14,0,0,0-10.13-4" style="fill:#263238"></path><path d="M505.44,221.08l31.18-12.19,1,7.92-33.83,12.07C503.66,227.32,504,223.36,505.44,221.08Z" style="fill:#FF725E"></path><path d="M555.17,226.2a5.48,5.48,0,0,0,2.64-1.74c.47-.58.82-1.27.53-1.84-.63-1.26-10.87-6.65-10.87-6.65l-2.53-4.53c-12.88-8.91-28.52,4.83-28.52,4.83l1.28,7s2.17,1.87,16,4.12C533.71,227.43,546.9,228.83,555.17,226.2Z" style="fill:#FF725E"></path><path d="M516.42,216.27a13.78,13.78,0,0,1,.6,2c.37,1.37.84,3.18,1.42,5.35l-.3-.14a89.51,89.51,0,0,1,10.5-5,40.6,40.6,0,0,1,13.23-3.09c.88,0,1.67,0,2.36,0s1.29.13,1.77.22a9.41,9.41,0,0,1,1.47.37,32.07,32.07,0,0,0-5.58-.27,43.49,43.49,0,0,0-13.06,3.21,103.81,103.81,0,0,0-10.5,4.9l-.24.12-.06-.25c-.5-2.19-.92-4-1.23-5.39A12.37,12.37,0,0,1,516.42,216.27Z" style="fill:#263238"></path><path d="M507.85,241.27a2,2,0,0,1-.32-.35,9.55,9.55,0,0,1-.83-1.12,16.75,16.75,0,0,1-2.13-4.65,23.79,23.79,0,0,1-.91-7.54,24.13,24.13,0,0,1,2.07-9.05,17.52,17.52,0,0,1,2.62-4.07,21.68,21.68,0,0,1,3.22-3.15,24.9,24.9,0,0,1,6.53-3.86,20.28,20.28,0,0,1,4.93-1.35,9.88,9.88,0,0,1,1.38-.13,1.53,1.53,0,0,1,.49,0c0,.05-.66.11-1.84.33a22.81,22.81,0,0,0-4.82,1.49,25.86,25.86,0,0,0-6.37,3.89,22.31,22.31,0,0,0-3.13,3.1,17.59,17.59,0,0,0-2.54,4,24.93,24.93,0,0,0-1.28,16.27A21.51,21.51,0,0,0,507.85,241.27Z" style="fill:#455a64"></path><path d="M469.27,331.16a121.31,121.31,0,0,1,9-29.71c6.79-14.7,18.36-29.22,24-34.31a62.09,62.09,0,0,1,10.59-7.74l29.94,9.45s.57,29.09-3.55,36.82c-5.09,9.53-19.51,13.23-19.51,13.23l-1.47,3.39,1.94,1.3-11.64,7.19Z" style="fill:#e0e0e0"></path><path d="M531.07,307.47s-.19.26-.61.65-1.06.94-1.87,1.58a39.88,39.88,0,0,1-14.37,7.06c-1,.25-1.82.43-2.39.51a2.84,2.84,0,0,1-.89.09c0-.08,1.22-.36,3.18-1a48.42,48.42,0,0,0,14.25-7C530,308.22,531,307.41,531.07,307.47Z" style="fill:#263238"></path><path d="M518.49,319a110.58,110.58,0,0,1-15.1,2.1,115.53,115.53,0,0,1,15.1-2.1Z" style="fill:#263238"></path><path d="M517.73,322.37a34.31,34.31,0,0,1-5.83.61,33.94,33.94,0,0,1-5.86.09,32,32,0,0,1,5.83-.61A31.69,31.69,0,0,1,517.73,322.37Z" style="fill:#263238"></path><g style="opacity:0.30000000000000004"><path d="M519.77,318.89c-5.61.86-13.59,1.54-18.76,3.2-.55.18-1.17.45-1.29,1a1.14,1.14,0,0,0,.79,1.2,3.32,3.32,0,0,0,1.54.07c4.27-.47,8.25-1.32,12.52-1.79a23.42,23.42,0,0,0,3.72-.31l1.48-3.38"></path></g><path d="M517.13,325.48a5.75,5.75,0,0,1-1.19.68c-.78.41-1.92,1-3.33,1.66-2.83,1.37-6.77,3.19-11.11,5.22s-8.24,3.93-11,5.43c-1.38.74-2.48,1.37-3.24,1.8a6.68,6.68,0,0,1-1.21.65,6.76,6.76,0,0,1,1.1-.82c.73-.49,1.81-1.17,3.17-2,2.73-1.58,6.61-3.54,10.95-5.58s8.32-3.79,11.18-5.07l3.41-1.51A7.11,7.11,0,0,1,517.13,325.48Z" style="fill:#263238"></path><path d="M622.82,288.78a11.54,11.54,0,0,1,11.4.92,2.62,2.62,0,0,1,1.19,1.46,2.14,2.14,0,0,1-1.7,2.23,3.6,3.6,0,0,1-3.51-.95c-.28-.29-.57-.66-1-.64a1.25,1.25,0,0,0-.74.46l-3.14,3.33" style="fill:#a2675f"></path><path d="M284.8,326.75a6.3,6.3,0,0,1-1.26.52l-3.46,1.28c-2.92,1.09-6.92,2.67-11.26,4.6s-8.21,3.84-10.94,5.33c-1.37.73-2.46,1.36-3.22,1.8a6.89,6.89,0,0,1-1.19.64,6.58,6.58,0,0,1,1.09-.81c.72-.49,1.79-1.17,3.14-2a118.73,118.73,0,0,1,10.91-5.48c4.35-1.93,8.39-3.46,11.35-4.47,1.47-.5,2.68-.89,3.52-1.12A6.76,6.76,0,0,1,284.8,326.75Z" style="fill:#263238"></path><path d="M310.84,269.14a20,20,0,0,1,.46,4.5,19.11,19.11,0,0,1-.05,4.52,20.45,20.45,0,0,1-.47-4.5A19.41,19.41,0,0,1,310.84,269.14Z" style="fill:#263238"></path><path d="M484.65,350.68c.33,1.18-12.88,16.26-12.88,16.26l15.93.18,1.84-17.89Z" style="fill:#263238"></path><path d="M626.35,368.11c2.7.58,64.64,16.13,64.64,16.13l-9.16,10.37H71.61L58.14,381.36l52.27-19h47.37Z" style="fill:#455a64"></path><path d="M626.35,368.11H623.8l-7.51-.07-29.06-.32-108.18-1.25-163.52-2-98.22-1.19-52.47-.64-6.7-.08H110.41l.08,0-52.26,19,.09-.43c4.24,4.16,8.84,8.69,13.47,13.25l-.18-.08h50.06l560.16.14-.09,0,9.16-10.36.06.18L642.87,372.3l-12.34-3.11c-2.77-.7-4.18-1.08-4.18-1.08s1.41.33,4.18,1l12.35,3.05L691,384.13l.18.05-.12.14-9.15,10.37,0,.05h-.06l-560.16.13H71.5l-.08-.07c-4.62-4.56-9.23-9.09-13.46-13.25l-.29-.29.38-.14,52.27-19h47.82l6.71.08,52.47.65,98.23,1.23,163.52,2.07,108.18,1.4,29,.4,7.51.12Z" style="fill:#263238"></path><path d="M237.89,350.59c.32,1.1-1.64,12.85-1.64,12.85l10.34.12-3.82-14.33Z" style="fill:#263238"></path><path d="M129.15,346c1.73,1.16,29.11,16.07,29.11,16.07l-15.85,5.27-33.24-4.51Z" style="fill:#263238"></path><g style="opacity:0.30000000000000004"><polygon points="125.6 394.99 208.99 363.19 193.37 363 101.5 393.42 125.6 394.99"></polygon></g><g style="opacity:0.30000000000000004"><polygon points="373.3 395.74 454.76 366.75 434.89 366.52 357.59 395.74 373.3 395.74"></polygon></g><path d="M542.61,268.41a20.19,20.19,0,0,1,.47,4.49,19.37,19.37,0,0,1-.06,4.52,19.87,19.87,0,0,1-.46-4.49A19.07,19.07,0,0,1,542.61,268.41Z" style="fill:#263238"></path><polygon points="633.36 290.4 324.21 395.34 340.96 397.06 635.62 297.03 633.36 290.4" style="fill:#455a64"></polygon><path d="M633.36,290.4s.2.54.58,1.64,1,2.77,1.73,5v.05l0,0L341.05,397.3l-.06,0h-.05L328.44,396l-4.26-.44-1.19-.12,1.13-.38L543,320.9l66.14-22.37,18-6,4.66-1.57c1.05-.35,1.58-.51,1.58-.51s-.54.2-1.6.56l-4.68,1.61-18,6.14-66.15,22.55L324.29,395.59l-.06-.51,4.26.44L341,396.8h-.11L635.6,297l0,.07c-.74-2.2-1.29-3.85-1.66-5S633.36,290.4,633.36,290.4Z" style="fill:#263238"></path><rect x="456.36" y="337.53" width="56.59" height="14.09" transform="translate(-81.03 161.2) rotate(-17.45)" style="fill:#263238"></rect><polygon points="477.67 339.39 482.32 353.04 493.36 349.57 488.92 335.85 477.67 339.39" style="fill:#455a64"></polygon><path d="M482.31,353.07v0l-4.66-13.68h0l11.28-3.55v0l4.45,13.74h0Zm-4.61-13.66,4.64,13.6,11-3.45-4.43-13.67Z" style="fill:#263238"></path><g style="opacity:0.30000000000000004"><path d="M510.09,288.73l-1.41.14c2.79,5.4,8.51,8.89,14.47,10.06s12.64-.23,18.5-1.85C531.29,294.13,520.45,291.68,510.09,288.73Z"></path></g><path d="M539.68,276.44l21.11,5.2s7.85-1.06,21.43,2.78c12.08,3.42,29.28,4.75,29.28,4.75l-4,8.14s-31.41,4.23-39.24,2-33.57-.92-40.07-4l6.21-9.69Z" style="fill:#a2675f"></path><path d="M610.4,289.24l16-1.07s2.63,1.13,3.31,2.32c0,0,6.62,3.62,6.81,4.5s-1.26,4.24-1.94,4.41c0,0-.2,1.52-2.34,1.33l-.68,0s-.88,2.51-3.21,1.63c0,0-1.17,1.95-2.73,1,0,0-3,.48-3.31-.49a22.17,22.17,0,0,0-1.17-2.69l-4.38-2.76-3.89,1.13s-2.58.55-3.64-.81l-2.07-.52Z" style="fill:#a2675f"></path><path d="M558.74,281.27a1.85,1.85,0,0,1,.42,0l1.2.18c1.07.1,2.64.19,4.66.23,1,0,2.12,0,3.34,0a23.67,23.67,0,0,1,4,.13,42.8,42.8,0,0,1,9.3,2.39h0A170.55,170.55,0,0,0,610.43,289h0l6.73-.45,9.25-.62h.07l0,0a16.32,16.32,0,0,1,1.85,1,5,5,0,0,1,1.58,1.44l-.1-.09a61.48,61.48,0,0,1,5.81,3.54,6.55,6.55,0,0,1,.66.52c.11.1.21.21.32.33s.1.18.14.27a2.28,2.28,0,0,1,0,.26,5.71,5.71,0,0,1-.39,1.64,12.18,12.18,0,0,1-.66,1.47,7.2,7.2,0,0,1-.42.7,1.44,1.44,0,0,1-.68.62l.18-.19a1.85,1.85,0,0,1-1,1.31,3,3,0,0,1-1.56.21h0l-.68,0,.21-.15a3.24,3.24,0,0,1-1.39,1.68,2.45,2.45,0,0,1-2.11.08l.26-.09a3.26,3.26,0,0,1-1.31,1.19,1.82,1.82,0,0,1-1.71-.15l.14,0a11.51,11.51,0,0,1-1.75.11,4.12,4.12,0,0,1-.86-.1,1.28,1.28,0,0,1-.82-.46,29.71,29.71,0,0,0-1.23-2.85l.06.07-4.37-2.79.12,0-3.9,1.09h0a6.63,6.63,0,0,1-2.27,0,2.18,2.18,0,0,1-1.45-.88l0,0-1.56-.42c-.34-.09-.5-.14-.49-.16a2.93,2.93,0,0,1,.51.1l1.58.36h0l0,0c.5.79,1.94,1,3.56.73h0l3.88-1.16.06,0,.06,0,4.39,2.73,0,0,0,0a24.27,24.27,0,0,1,1.24,2.8c.23.3.85.37,1.37.38a10.8,10.8,0,0,0,1.68-.12h.07l.07,0a1.4,1.4,0,0,0,1.33.11,2.85,2.85,0,0,0,1.1-1l.1-.14.16.05a2.06,2.06,0,0,0,1.75-.06,2.89,2.89,0,0,0,1.18-1.45l0-.14h.15l.68,0h0a2.45,2.45,0,0,0,1.32-.18,1.35,1.35,0,0,0,.76-.95l0-.15.15-.05a1.36,1.36,0,0,0,.41-.44,5.84,5.84,0,0,0,.38-.65,11.33,11.33,0,0,0,.63-1.42,5.71,5.71,0,0,0,.36-1.48c0-.05,0-.09,0-.15s-.06,0-.08-.08l-.25-.26c-.2-.17-.41-.33-.63-.49a64.22,64.22,0,0,0-5.76-3.49l-.06,0,0-.06a4.58,4.58,0,0,0-1.41-1.27,14.37,14.37,0,0,0-1.78-.94l.12,0-9.25.62-6.74.45h0a166.72,166.72,0,0,1-28.87-4.88h0a43.31,43.31,0,0,0-9.19-2.44,22.36,22.36,0,0,0-3.94-.17c-1.22,0-2.34,0-3.35,0-2-.08-3.59-.21-4.66-.35-.53-.08-.93-.18-1.2-.24Z" style="fill:#7a4a45"></path><path d="M628.67,293.45c0-.06.58-.13,1.43.2a4.65,4.65,0,0,1,1.36.82,3.69,3.69,0,0,1,1.14,1.63,3.51,3.51,0,0,1-.17,2c-.18.49-.36,1-.53,1.46a4,4,0,0,1-.61,1.28,3.71,3.71,0,0,1,.26-1.4L632,298a3.19,3.19,0,0,0,.14-1.7,3.35,3.35,0,0,0-1-1.42A5.2,5.2,0,0,0,630,294C629.2,293.6,628.66,293.53,628.67,293.45Z" style="fill:#7a4a45"></path><path d="M625.63,294.16s.6-.39,1.56,0a3.07,3.07,0,0,1,1.36,1.1,4.24,4.24,0,0,1,.65,2,11.85,11.85,0,0,1-.55,3.68,6.22,6.22,0,0,1-.41,1.47,3.53,3.53,0,0,1,0-1.54,16.13,16.13,0,0,0,.39-3.57,3.89,3.89,0,0,0-.54-1.8,2.84,2.84,0,0,0-1.1-1A4,4,0,0,0,625.63,294.16Z" style="fill:#7a4a45"></path><path d="M621.16,295.83a3.13,3.13,0,0,1,1.43.25,4.45,4.45,0,0,1,1.44.73,3.18,3.18,0,0,1,1.1,1.69,10.08,10.08,0,0,1,.09,4.92c-.17,0,0-2.22-.59-4.77a3.42,3.42,0,0,0-2.17-2.23A6.15,6.15,0,0,1,621.16,295.83Z" style="fill:#7a4a45"></path><path d="M502.34,270.57a38.86,38.86,0,0,1,6.55-5.11,13.11,13.11,0,0,1,8-1.94,19.54,19.54,0,0,1,6.64,2.49c6.21,3.24,11.1,6.59,17.31,9.82-4.94,6.89-12.61,21.57-12.61,21.57l-21.43-7.23" style="fill:#e0e0e0"></path><path d="M506.75,290.17a2.52,2.52,0,0,1,.41.1l1.16.36,4.37,1.41,15.57,5.14-.27.11c1.54-3,3.28-6.17,5.18-9.54s4-6.91,6.29-10.44c.38-.56.76-1.12,1.12-1.63l.09.38c-5.41-2.82-10.25-6-14.82-8.51a49.71,49.71,0,0,0-6.62-3.25A10.68,10.68,0,0,0,513,264a16.27,16.27,0,0,0-4.81,2.08A30.59,30.59,0,0,0,505,268.4L503,270a5.66,5.66,0,0,1-.69.55l.15-.17.47-.46c.42-.39,1-1,1.87-1.7a31.29,31.29,0,0,1,3.2-2.43,16.25,16.25,0,0,1,4.87-2.19,11.06,11.06,0,0,1,6.46.28,47.68,47.68,0,0,1,6.71,3.24c4.61,2.51,9.46,5.66,14.84,8.46l.26.14L541,276l-1.11,1.62c-2.32,3.5-4.37,7-6.29,10.39s-3.65,6.56-5.22,9.51l-.09.17-.18-.06-15.51-5.33-4.33-1.52-1.13-.42A1.54,1.54,0,0,1,506.75,290.17Z" style="fill:#263238"></path><path d="M389.93,394.61c-19.41.53-35.49.46-45.9-4.36s-20-11.28-30.43-16c-3.57-1.63-7.45-3.07-11.33-2.51s-7.64,3.78-7.47,7.7c-5.72-1.71-11.8-3.43-17.59-1.95s-10.88,7.45-9.13,13.17c1.37,4.51,7.26,9.39,11.63,11.15" style="fill:#fff"></path><path d="M279.71,401.79a16.17,16.17,0,0,1-3.45-1.75,26.56,26.56,0,0,1-3.67-2.81,19.24,19.24,0,0,1-3.93-4.82,8.64,8.64,0,0,1-.42-7.49,13.17,13.17,0,0,1,6-6.5,17.49,17.49,0,0,1,9.86-1.63,55.76,55.76,0,0,1,10.76,2.39l-.31.25a7.2,7.2,0,0,1,2.61-5.61,9.94,9.94,0,0,1,6-2.45,17.4,17.4,0,0,1,6.61,1,58.65,58.65,0,0,1,6.29,2.7c9.74,4.74,18.41,10.37,26.86,14.36a44.35,44.35,0,0,0,12.61,3.85,108.09,108.09,0,0,0,11.5,1.14c7.06.33,12.8.23,16.75.2l4.56,0h1.59l-.4,0-1.18.05-4.56.16c-4,.09-9.7.24-16.78-.05a103.52,103.52,0,0,1-11.55-1.08,44.34,44.34,0,0,1-12.74-3.84c-8.51-4-17.18-9.61-26.89-14.33a55.89,55.89,0,0,0-6.22-2.66,16.81,16.81,0,0,0-6.42-1,9.32,9.32,0,0,0-5.68,2.32,6.64,6.64,0,0,0-2.46,5.2l0,.35-.34-.1a55.73,55.73,0,0,0-10.66-2.41,17.23,17.23,0,0,0-9.63,1.55,12.71,12.71,0,0,0-5.86,6.27,8.28,8.28,0,0,0,.35,7.21,19.29,19.29,0,0,0,3.82,4.79,27.78,27.78,0,0,0,3.59,2.84,26,26,0,0,0,2.48,1.45l.67.32C279.64,401.74,279.72,401.78,279.71,401.79Z" style="fill:#263238"></path><path d="M55.93,364a3.49,3.49,0,1,1-3.49-3.48A3.49,3.49,0,0,1,55.93,364Z" style="fill:#fff"></path><path d="M55.93,364s0-.31-.21-.82a3.44,3.44,0,0,0-1.28-1.8,3.26,3.26,0,1,0,0,5.24,3.43,3.43,0,0,0,1.28-1.79c.16-.52.16-.83.21-.83a1.77,1.77,0,0,1,0,.88,3.44,3.44,0,0,1-1.26,2,3.63,3.63,0,0,1-3.48.58,3.71,3.71,0,0,1,0-7,3.65,3.65,0,0,1,3.48.59,3.44,3.44,0,0,1,1.26,2A1.74,1.74,0,0,1,55.93,364Z" style="fill:#263238"></path><path d="M260.44,379.42a3.49,3.49,0,1,1-3.49-3.48A3.48,3.48,0,0,1,260.44,379.42Z" style="fill:#fff"></path><path d="M260.44,379.42a6.28,6.28,0,0,1-.21-.83A3.43,3.43,0,0,0,259,376.8a3.26,3.26,0,1,0,0,5.24,3.43,3.43,0,0,0,1.28-1.79,6.28,6.28,0,0,1,.21-.83,1.74,1.74,0,0,1,0,.87,3.53,3.53,0,0,1-1.26,2,3.67,3.67,0,0,1-3.49.58,3.71,3.71,0,0,1,0-7,3.65,3.65,0,0,1,3.49.58,3.54,3.54,0,0,1,1.26,2A1.77,1.77,0,0,1,260.44,379.42Z" style="fill:#263238"></path><polygon points="387.01 290.4 77.86 395.34 97.18 396.18 389.27 297.03 387.01 290.4" style="fill:#455a64"></polygon><path d="M387,290.4s.2.54.58,1.64,1,2.77,1.73,5v.05l-.05,0-292,99.35,0,0h0L82,395.79l-4.17-.19-1.39-.06,1.31-.44,218.9-74.2,66.15-22.37,17.95-6,4.66-1.57c1.05-.35,1.58-.51,1.58-.51s-.54.2-1.6.56l-4.68,1.61-18,6.15-66.15,22.54L77.94,395.59l-.07-.51,4.17.18,15.15.66-.09,0,292.15-99,0,.07q-1.11-3.3-1.66-5C387.19,291,387,290.4,387,290.4Z" style="fill:#263238"></path><path d="M158.54,395c-19.41.53-44.4-.58-54.81-5.39s-20-11.29-30.44-16c-3.57-1.62-7.44-3.06-11.32-2.51s-7.65,3.78-7.47,7.7c-5.73-1.7-11.8-3.42-17.59-1.94S26,384.27,27.77,390c1.38,4.51,7.26,8.77,11.64,10.53" style="fill:#fff"></path><path d="M39.41,400.51A18.67,18.67,0,0,1,36,398.86a25.86,25.86,0,0,1-3.73-2.64,16.82,16.82,0,0,1-4-4.69,8.37,8.37,0,0,1-1-3.5,9.06,9.06,0,0,1,.73-3.92,13.23,13.23,0,0,1,6-6.39,17.58,17.58,0,0,1,9.81-1.58,55.54,55.54,0,0,1,10.72,2.39l-.31.24a6.6,6.6,0,0,1,.91-3.56,9,9,0,0,1,2.57-2.73,10.48,10.48,0,0,1,3.5-1.54,12.62,12.62,0,0,1,3.88-.18A25.59,25.59,0,0,1,72.68,373q3.63,1.64,7.26,3.54c5,2.65,9.85,5.47,14.56,8,2.35,1.3,4.68,2.53,7,3.66a38.89,38.89,0,0,0,7,2.79,93.18,93.18,0,0,0,13.74,2.49c4.36.5,8.43.82,12.16,1,7.45.41,13.49.44,17.67.46l4.8,0h1.26l.42,0-.42,0-1.25.05c-1.1,0-2.72.09-4.81.12-4.18.05-10.23.08-17.69-.29-3.73-.17-7.82-.47-12.19-1a93.56,93.56,0,0,1-13.82-2.46,38.88,38.88,0,0,1-7.08-2.8c-2.33-1.13-4.67-2.37-7-3.66-4.72-2.58-9.53-5.39-14.57-8q-3.6-1.89-7.22-3.53a25.06,25.06,0,0,0-7.4-2.21,12.18,12.18,0,0,0-3.72.16A9.62,9.62,0,0,0,58,372.89a8.53,8.53,0,0,0-2.44,2.57,6.2,6.2,0,0,0-.85,3.29v.34l-.32-.1a55.48,55.48,0,0,0-10.62-2.4,17.13,17.13,0,0,0-9.58,1.49,12.91,12.91,0,0,0-5.9,6.17,8.83,8.83,0,0,0-.72,3.76,7.77,7.77,0,0,0,.92,3.39,16.39,16.39,0,0,0,3.85,4.65A28.38,28.38,0,0,0,36,398.73c1.05.65,1.91,1.07,2.48,1.36l.67.31Z" style="fill:#263238"></path><path d="M293.08,277.74l21.36,3.9s7.85-1.06,21.44,2.78c12.07,3.42,27.83,4.73,27.83,4.73l-2.57,8.16s-31.41,4.23-39.24,2-33.51-1.36-40-4.45l5.36-9Z" style="fill:#ffbf9d"></path><path d="M256,270.57a38.86,38.86,0,0,1,6.55-5.11,13.11,13.11,0,0,1,7.95-1.94,19.67,19.67,0,0,1,6.65,2.49c6.2,3.24,11.09,6.59,17.3,9.82-4.93,6.89-12.6,19.45-12.6,19.45l-21.68-8.51" style="fill:#e0e0e0"></path><path d="M260.16,286.77a2.26,2.26,0,0,1,.41.12l1.18.43,4.43,1.67,15.74,6.08-.28.09c3.33-5.43,7.26-11.79,11.78-18.34l.81-1.14.09.38c-5.4-2.81-10.23-6-14.8-8.5a49.12,49.12,0,0,0-6.62-3.25,10.61,10.61,0,0,0-6.24-.34,16.44,16.44,0,0,0-4.82,2.07,32.09,32.09,0,0,0-3.22,2.35L256.68,270a5.66,5.66,0,0,1-.69.55l.15-.17c.13-.12.29-.27.47-.46.42-.39,1.05-1,1.88-1.7a29.84,29.84,0,0,1,3.2-2.44,16.18,16.18,0,0,1,4.88-2.18,11,11,0,0,1,6.47.28,49.47,49.47,0,0,1,6.71,3.25c4.6,2.51,9.44,5.65,14.81,8.45l.26.14-.17.24-.8,1.14c-4.51,6.53-8.46,12.88-11.82,18.28l-.1.17-.18-.08-15.67-6.25-4.38-1.79-1.15-.49A1.68,1.68,0,0,1,260.16,286.77Z" style="fill:#263238"></path><path d="M364.05,289.24l16-1.07s2.63,1.13,3.31,2.32c0,0,6.62,3.62,6.81,4.5s-1.26,4.24-1.94,4.41c0,0-.2,1.52-2.34,1.33l-.68,0s-.88,2.51-3.21,1.63c0,0-1.17,1.95-2.73,1,0,0-3,.48-3.31-.49a22.17,22.17,0,0,0-1.17-2.69l-4.38-2.76-3.89,1.13s-2.57.55-3.64-.81l-2.07-.52Z" style="fill:#ffbf9d"></path><path d="M312.4,281.27a1.81,1.81,0,0,1,.41,0l1.21.18c1.06.1,2.63.19,4.65.23,1,0,2.12,0,3.34,0a23.67,23.67,0,0,1,4,.13,42.8,42.8,0,0,1,9.3,2.39h0a170.25,170.25,0,0,0,28.8,4.76h0l6.73-.45,9.25-.62h.07l.05,0a16.32,16.32,0,0,1,1.85,1,5,5,0,0,1,1.58,1.44l-.1-.09a61.48,61.48,0,0,1,5.81,3.54,6.55,6.55,0,0,1,.66.52c.11.1.21.21.32.33s.1.18.14.27a2.28,2.28,0,0,1,0,.26,5.71,5.71,0,0,1-.39,1.64,12.18,12.18,0,0,1-.66,1.47c-.13.24-.26.47-.41.7a1.52,1.52,0,0,1-.69.62l.18-.19a1.85,1.85,0,0,1-1,1.31,3,3,0,0,1-1.56.21h0l-.69,0,.21-.15A3.24,3.24,0,0,1,384,302.5a2.45,2.45,0,0,1-2.11.08l.26-.09a3.3,3.3,0,0,1-1.3,1.19,1.84,1.84,0,0,1-1.72-.15l.14,0a11.51,11.51,0,0,1-1.75.11,4.12,4.12,0,0,1-.86-.1,1.28,1.28,0,0,1-.82-.46,27.39,27.39,0,0,0-1.23-2.85l.06.07-4.37-2.79.12,0-3.9,1.09h0a6.63,6.63,0,0,1-2.27,0,2.18,2.18,0,0,1-1.45-.88l0,0-1.56-.42a1.71,1.71,0,0,1-.49-.16,2.93,2.93,0,0,1,.51.1l1.58.36h0l0,0c.5.79,1.94,1,3.56.73h0l3.88-1.16.06,0,.06,0,4.4,2.73,0,0,0,0a24.27,24.27,0,0,1,1.24,2.8c.23.3.85.37,1.37.38a10.8,10.8,0,0,0,1.68-.12h.07l.07,0a1.4,1.4,0,0,0,1.33.11,2.78,2.78,0,0,0,1.1-1l.1-.14.16.05a2.06,2.06,0,0,0,1.75-.06,2.89,2.89,0,0,0,1.18-1.45l.05-.14h.15l.68,0h0a2.44,2.44,0,0,0,1.32-.18,1.35,1.35,0,0,0,.76-.95l0-.15.15-.05a1.36,1.36,0,0,0,.41-.44c.14-.2.26-.42.39-.65a13,13,0,0,0,.62-1.42,5.71,5.71,0,0,0,.36-1.48c0-.05,0-.09,0-.15s-.06,0-.08-.08l-.25-.26c-.2-.17-.41-.33-.63-.49a64.22,64.22,0,0,0-5.76-3.49l-.06,0,0-.06a4.58,4.58,0,0,0-1.41-1.27,14.37,14.37,0,0,0-1.78-.94l.12,0-9.25.62-6.74.45h0a166.72,166.72,0,0,1-28.87-4.88h0a43.31,43.31,0,0,0-9.19-2.44A22.36,22.36,0,0,0,322,282c-1.22,0-2.34,0-3.35,0-2-.08-3.59-.21-4.66-.35-.53-.08-.93-.18-1.2-.24A2.15,2.15,0,0,1,312.4,281.27Z" style="fill:#ff9a6c"></path><path d="M382.32,293.45c0-.06.58-.13,1.43.2a4.65,4.65,0,0,1,1.36.82,3.69,3.69,0,0,1,1.14,1.63,3.51,3.51,0,0,1-.17,2c-.18.49-.36,1-.53,1.46a4,4,0,0,1-.61,1.28,4,4,0,0,1,.26-1.4l.41-1.46a3.19,3.19,0,0,0,.14-1.7,3.35,3.35,0,0,0-1-1.42,5.2,5.2,0,0,0-1.19-.85C382.86,293.6,382.31,293.53,382.32,293.45Z" style="fill:#ff9a6c"></path><path d="M379.28,294.16s.6-.39,1.56,0a3.07,3.07,0,0,1,1.36,1.1,4.24,4.24,0,0,1,.65,2,11.89,11.89,0,0,1-.54,3.68,6.48,6.48,0,0,1-.42,1.47,3.53,3.53,0,0,1,.05-1.54,16.13,16.13,0,0,0,.39-3.57,3.89,3.89,0,0,0-.54-1.8,2.84,2.84,0,0,0-1.1-1A4,4,0,0,0,379.28,294.16Z" style="fill:#ff9a6c"></path><path d="M374.81,295.83a3.13,3.13,0,0,1,1.43.25,4.45,4.45,0,0,1,1.44.73,3.18,3.18,0,0,1,1.1,1.69,10.08,10.08,0,0,1,.09,4.92c-.17,0,0-2.22-.59-4.77a3.42,3.42,0,0,0-2.17-2.23A6.15,6.15,0,0,1,374.81,295.83Z" style="fill:#ff9a6c"></path><rect x="210.01" y="337.53" width="56.59" height="14.09" transform="translate(-92.37 87.33) rotate(-17.45)" style="fill:#263238"></rect><polygon points="231.43 339.36 235.98 352.69 247.01 349.23 242.86 335.76 231.43 339.36" style="fill:#455a64"></polygon></g><g id="Buoys"><path d="M406.17,458.79c-8.5-.07-18.4,6.82-18.4,15.29h36.8C424.57,465.75,414.68,458.87,406.17,458.79Z" style="fill:#FF725E"></path><path d="M436.66,474.26c0,.15-13.65.26-30.48.26s-30.49-.11-30.49-.26,13.65-.26,30.49-.26S436.66,474.12,436.66,474.26Z" style="fill:#263238"></path><path d="M415.69,477.37a95.11,95.11,0,0,1-10,.26,95,95,0,0,1-10-.26,98.3,98.3,0,0,1,10-.26A98.46,98.46,0,0,1,415.69,477.37Z" style="fill:#263238"></path><path d="M403.44,460.48c0,.1-1,.21-2.62.69a18.8,18.8,0,0,0-10.17,7.57c-.91,1.38-1.32,2.34-1.41,2.31a2.18,2.18,0,0,1,.22-.71,10.58,10.58,0,0,1,.88-1.8,17,17,0,0,1,4.43-4.89,16.7,16.7,0,0,1,6-2.83,12.11,12.11,0,0,1,2-.34A2.4,2.4,0,0,1,403.44,460.48Z" style="fill:#fff"></path><path d="M662.66,263.45c-7.36-.06-15.91,5.9-15.91,13.23h31.82C678.57,269.47,670,263.52,662.66,263.45Z" style="fill:#FF725E"></path><path d="M689,276.83c0,.15-11.8.26-26.36.26s-26.36-.11-26.36-.26,11.8-.26,26.36-.26S689,276.69,689,276.83Z" style="fill:#263238"></path><path d="M670.89,279.52a145.19,145.19,0,0,1-17.37,0,145.19,145.19,0,0,1,17.37,0Z" style="fill:#263238"></path><path d="M660.29,264.92c0,.09-.88.2-2.25.62a16.16,16.16,0,0,0-8.78,6.53c-.8,1.19-1.16,2-1.24,2a6.39,6.39,0,0,1,.92-2.17,14.59,14.59,0,0,1,9-6.7A6.15,6.15,0,0,1,660.29,264.92Z" style="fill:#fff"></path><path d="M130.19,266.56c-8.5-.08-18.4,6.81-18.4,15.29h36.8C148.59,273.51,138.7,266.63,130.19,266.56Z" style="fill:#FF725E"></path><path d="M159.58,282c0,.14-13.65.26-30.48.26s-30.48-.12-30.48-.26,13.64-.26,30.48-.26S159.58,281.89,159.58,282Z" style="fill:#263238"></path><path d="M139.14,284.42a95.11,95.11,0,0,1-10,.26,95,95,0,0,1-10-.26,98.3,98.3,0,0,1,10-.26A98.46,98.46,0,0,1,139.14,284.42Z" style="fill:#263238"></path><path d="M132.46,268.74c0,.09-1.36-.07-3.54.15a19.52,19.52,0,0,0-14.15,8.39c-1.24,1.8-1.75,3.07-1.83,3a2.92,2.92,0,0,1,.3-.91,15.11,15.11,0,0,1,1.23-2.32,18.53,18.53,0,0,1,6.18-6,18.89,18.89,0,0,1,8.24-2.55,17.77,17.77,0,0,1,2.63,0A2.72,2.72,0,0,1,132.46,268.74Z" style="fill:#fff"></path></g><g id="Birds"><path d="M546,58.81s-.73-.25-2.08-.55a16.83,16.83,0,0,0-5.81-.22,15.64,15.64,0,0,0-7.82,3.37,16.24,16.24,0,0,0-5.53,8.77l0,.1-.16.63-.24-.6a17.45,17.45,0,0,0-6.62-8,16.71,16.71,0,0,0-8.07-2.69,17.8,17.8,0,0,0-5.77.52c-1.33.35-2,.66-2,.62a3,3,0,0,1,.5-.24,11.42,11.42,0,0,1,1.5-.53A17.26,17.26,0,0,1,518,62a17.66,17.66,0,0,1,6.79,8.16l-.4,0,0-.1a16.57,16.57,0,0,1,5.69-9,15.75,15.75,0,0,1,8-3.37,16.15,16.15,0,0,1,5.88.36,11.19,11.19,0,0,1,1.53.49A2.73,2.73,0,0,1,546,58.81Z" style="fill:#263238"></path><path d="M601.59,70.09s-.41-.12-1.15-.27a9.34,9.34,0,0,0-3.18-.09A8.47,8.47,0,0,0,593,71.59a8.8,8.8,0,0,0-3,4.77l0,.06-.16.62-.24-.59a9.49,9.49,0,0,0-3.6-4.36,9.28,9.28,0,0,0-4.39-1.48,10.05,10.05,0,0,0-3.16.26c-.74.18-1.13.34-1.14.3s.08-.06.27-.15a5.58,5.58,0,0,1,.82-.31,9.18,9.18,0,0,1,3.22-.4,9.34,9.34,0,0,1,4.6,1.46A9.77,9.77,0,0,1,590,76.29l-.4,0,0,0a9.14,9.14,0,0,1,3.16-5,8.83,8.83,0,0,1,7.72-1.62,5.24,5.24,0,0,1,.84.29C601.51,70,601.6,70.08,601.59,70.09Z" style="fill:#263238"></path><path d="M569.65,94a15.19,15.19,0,0,1-1.1,1.25,27,27,0,0,0-2.69,3.63,26.5,26.5,0,0,0-4,14.13v.18l-.41,0a23.73,23.73,0,0,0-6.52-13,23.17,23.17,0,0,0-3.41-2.89c-.87-.61-1.37-.91-1.36-.94a1.78,1.78,0,0,1,.39.18c.24.14.62.32,1.06.62a21.16,21.16,0,0,1,3.53,2.82,23.36,23.36,0,0,1,4.06,5.34,23.09,23.09,0,0,1,2.66,7.77l-.42,0V113a25.92,25.92,0,0,1,4.16-14.3,24,24,0,0,1,2.81-3.58c.37-.4.69-.67.89-.86A2.06,2.06,0,0,1,569.65,94Z" style="fill:#263238"></path></g></svg>