<svg xmlns="http://www.w3.org/2000/svg" viewBox="0 0 750 500"><g id="background-complete"><path d="M673.73,352.44H493a5.87,5.87,0,0,1-5.86-5.86V83.31A5.87,5.87,0,0,1,493,77.44H673.73a5.87,5.87,0,0,1,5.87,5.87V346.58A5.87,5.87,0,0,1,673.73,352.44ZM493,77.69a5.62,5.62,0,0,0-5.61,5.62V346.58a5.61,5.61,0,0,0,5.61,5.61H673.73a5.62,5.62,0,0,0,5.62-5.61V83.31a5.62,5.62,0,0,0-5.62-5.62Z" style="fill:#e0e0e0"></path><path d="M465.31,352.44H284.56a5.87,5.87,0,0,1-5.86-5.86V83.31a5.87,5.87,0,0,1,5.86-5.87H465.31a5.87,5.87,0,0,1,5.86,5.87V346.58A5.87,5.87,0,0,1,465.31,352.44ZM284.56,77.69A5.62,5.62,0,0,0,279,83.31V346.58a5.62,5.62,0,0,0,5.61,5.61H465.31a5.62,5.62,0,0,0,5.61-5.61V83.31a5.62,5.62,0,0,0-5.61-5.62Z" style="fill:#e0e0e0"></path><path d="M257,352.44H76.27a5.87,5.87,0,0,1-5.87-5.86V83.31a5.87,5.87,0,0,1,5.87-5.87H257a5.87,5.87,0,0,1,5.86,5.87V346.58A5.87,5.87,0,0,1,257,352.44ZM76.27,77.69a5.62,5.62,0,0,0-5.62,5.62V346.58a5.62,5.62,0,0,0,5.62,5.61H257a5.61,5.61,0,0,0,5.61-5.61V83.31A5.62,5.62,0,0,0,257,77.69Z" style="fill:#e0e0e0"></path><rect y="383.76" width="750" height="0.12" style="fill:#e0e0e0"></rect><rect x="651.43" y="402.18" width="55.73" height="0.42" style="fill:#e0e0e0"></rect><rect x="492.84" y="406.75" width="14.63" height="0.42" style="fill:#e0e0e0"></rect><rect x="38.45" y="389.39" width="72.67" height="0.42" style="fill:#e0e0e0"></rect><rect x="126.1" y="389.39" width="10.66" height="0.42" style="fill:#e0e0e0"></rect><rect x="171.39" y="396.49" width="157.61" height="0.42" style="fill:#e0e0e0"></rect><path d="M661.69,311.92l-17,2.43s-.1,47.71-.71,53.58-8.74,11.75-8.74,11.75h32C658.9,365.48,661.69,311.92,661.69,311.92Z" style="fill:#f5f5f5"></path><path d="M711.62,300.63q1-5.94,2-11.87c.2-1.2.4-2.52-.66-3.46a2.29,2.29,0,0,0-1.16-.56c-2.59-.44-4.49,2.7-7,2.67-1.49-2.25.16-5.45,1.92-7.42s4-4.57,3.16-7.42a4.12,4.12,0,0,0-2.78-2.79c-2.18-.64-4.27.27-6.28,1.17-1.29-3.61,2.7-6.44,5-9.57,1.44-1.91,0-4.86-2.13-4.45l-8.06,1.52a4,4,0,0,1-2.35-.21c-3-1.28-2.38-5.34-1-8,.53-1,1.17-2,1.69-3.1.94-1.9-.16-4.33-2-4.42a20.9,20.9,0,0,0-5.23.43c-1.71-3.37,1.5-7.22,4.43-9.15a19.94,19.94,0,0,0,4-3.34c1.74-2,.76-5.45-1.66-5.88l-5.81-1a3.45,3.45,0,0,1-1.49-.6c-2.18-1.59-1-4.73.44-6.58.45-.54.94-1.09,1.39-1.66,1.16-1.47.31-3.85-1.4-3.95l-1.78-.11a40.86,40.86,0,0,0,2.63-7.45c.79-3.14-1.63-6.12-4.39-5.39l-3.69,1a2.33,2.33,0,0,1-1.45.06,2.1,2.1,0,0,1-1.09-1.59c-1-4.82,6.87-7.38,6-12.22-.63-3.53-4.93-3.57-8-2.75a65.12,65.12,0,0,1,2.08-13.36,1.86,1.86,0,0,0-1.58-2.46l-4.55.1a1.72,1.72,0,0,1-1.39-.37,2.06,2.06,0,0,1-.43-1.28c-.17-2.63,1.48-4.9,2.15-7.42s-.77-6.24-2.94-5.45c-2.9-1.37-4.9.73-5.74-2.31a4.93,4.93,0,0,1-.16-1.71c.29-3.41,3.13-5.53,3.83-8.73a13.81,13.81,0,0,0-.42-5.84,3.13,3.13,0,0,0-.77-1.73,4.1,4.1,0,0,0-1.64-.56c-2.76-.83-3-5.31-2.2-8.49.58-2.43,1.29-5.26.71-7.51a2,2,0,0,0-2.48-1.6,9.75,9.75,0,0,0-3.23,1.7c-1.42-3-.56-7-2.16-10a4.41,4.41,0,0,0-1.6-1.76c-2.44-1.44-4.52,1.06-4.85,3.62a15.25,15.25,0,0,0,.83,6c-1.51-.88-3.41.43-4.1,2.21a12.66,12.66,0,0,0-.33,5.79c.35,3.63.71,7.27,1.06,10.9-1.17-2-4.19-1.27-5.27.84s-.77,4.79-.28,7.18c.54,2.63,1,7.18.18,9.77-3.43,1.81-3.78-2.76-6.53-2.23a3.57,3.57,0,0,0-2.57,3.09c-.67,4.24.67,8.32.54,12.3-2.65-.93-5.62,2.42-4.9,5.52.44,1.89,1.89,3.31,2,5.39a2.54,2.54,0,0,1-.91,2.18c-1.46,1-2.37-1.3-3.88-.07a2.86,2.86,0,0,0-.92,2.35c.15,2.51,2.12,4.08,2.38,6.55a3.09,3.09,0,0,1-.76,2.42c-.91.94-1.72.29-2.57.19-2-.25-3.36,2.61-3,4.9s1.76,4.14,2.84,6.11,1.83,4.54.83,6.57c-1.72-1.41-2.49-4-4.41-5.24a2.55,2.55,0,0,0-2.38-.31c-1.64.71-1.84,3-1.72,4.86A34.1,34.1,0,0,0,617.38,218c-2.39,2.2-5.09-5.08-7.91-3.14a3.11,3.11,0,0,0-1.16,2.77,38.21,38.21,0,0,0,6.24,18.67,3.4,3.4,0,0,0-3.61-1.19,4.28,4.28,0,0,0-2.61,4c0,2.58,2,4.48,3.18,6.64s1.16,6-1,6.38-3.36-3.21-5.37-4.48c-2.39-1.5-5.48,1.07-6,4.15s.67,6.21,2,8.92,3,5.4,3.38,8.51l-.86.56c-3.37-3.1-7,.61-5.86,4.23a15.66,15.66,0,0,1,1,4.58l-.11,2.34c-.07,3.91-3.21,7.38-6.57,7.26-2.68-.09-5.45.75-6.63,3.55-1.38,3.25-.2,7.72,2.74,9.26a7.56,7.56,0,0,1,2.24,1.64c2.67,3,.58,5-.1,7.32a7.38,7.38,0,0,0,3.12,7.83c2.36,1.5,5.24,1.45,7.87.79,1.7-.42,3.42-1.09,5.14-.75,3.18,1.53.7,5.62,3.75,9.41a7.72,7.72,0,0,0,3.18,2.12c3.61,1.16,6.07-.28,8.06-2.72a9,9,0,0,1,3.25-2.67c1.36-.58,2.78.66,2.74,2.34-.06,2.91.17,5.81,1.74,8.27a4.92,4.92,0,0,0,4.12,2.5c3.23-.08,4.83-3.83,6.16-7,1.62-3.9,4.7-8.36,9.06-4.19a7.57,7.57,0,0,1,2,4c.65,3.34,4.22,8.14,7.12,6,2.39-1.74,1.72-6.71,5.12-7.51a3.73,3.73,0,0,1,2.94.63c3.59,2.41,4.11,8.11,8.09,10a3.24,3.24,0,0,0,4-1c1.18-1.56.47-3.1.33-4.66-.31-3.53,2.38-6.59,5.29-7.72s6-.9,9.08-1.3,6.29-1.7,7.82-4.78c.57-1.14.86-2.45,1.47-3.55,1.78-3.22,5.55-3.74,8.82-4.22s7.1-1.79,8-5.46C719.74,302.16,714.66,298,711.62,300.63Z" style="fill:#f5f5f5"></path><path d="M111.83,305.8l-18.55,2.65s-.11,52-.78,58.37S83,379.62,83,379.62h34.85C108.79,364.15,111.83,305.8,111.83,305.8Z" style="fill:#f5f5f5"></path><path d="M166.23,293.49q1.11-6.45,2.21-12.92c.22-1.31.43-2.74-.71-3.78a2.54,2.54,0,0,0-1.27-.6c-2.83-.48-4.9,2.94-7.63,2.91-1.62-2.45.18-5.94,2.09-8.08s4.37-5,3.45-8.09a4.54,4.54,0,0,0-3-3c-2.37-.7-4.66.3-6.84,1.27-1.41-3.92,2.94-7,5.5-10.42,1.56-2.08,0-5.29-2.32-4.85l-8.78,1.65a4.47,4.47,0,0,1-2.56-.22c-3.27-1.4-2.6-5.82-1.1-8.69.59-1.12,1.28-2.23,1.85-3.38,1-2.07-.18-4.72-2.24-4.82a22.34,22.34,0,0,0-5.7.47c-1.86-3.68,1.63-7.87,4.84-10a21.57,21.57,0,0,0,4.4-3.64c1.9-2.17.83-5.93-1.8-6.4l-6.34-1.13a4,4,0,0,1-1.62-.66c-2.37-1.73-1.14-5.16.49-7.17.48-.59,1-1.19,1.5-1.81,1.27-1.6.35-4.19-1.52-4.3l-1.94-.12a44.84,44.84,0,0,0,2.87-8.11c.86-3.43-1.78-6.67-4.78-5.88l-4,1a2.5,2.5,0,0,1-1.57.08,2.34,2.34,0,0,1-1.2-1.74c-1.07-5.25,7.49-8,6.54-13.31-.7-3.85-5.38-3.9-8.67-3a70.54,70.54,0,0,1,2.26-14.56,2,2,0,0,0-1.73-2.67l-4.95.11a2,2,0,0,1-1.52-.41,2.24,2.24,0,0,1-.47-1.39c-.17-2.87,1.62-5.34,2.34-8.09s-.83-6.79-3.19-5.93c-3.16-1.49-5.34.79-6.26-2.52a5.55,5.55,0,0,1-.17-1.86c.32-3.72,3.41-6,4.17-9.52a15.06,15.06,0,0,0-.46-6.35,3.36,3.36,0,0,0-.84-1.89,4.29,4.29,0,0,0-1.78-.61c-3-.9-3.24-5.78-2.4-9.25.63-2.65,1.41-5.74.78-8.19a2.21,2.21,0,0,0-2.71-1.73,10.61,10.61,0,0,0-3.52,1.84c-1.55-3.31-.61-7.6-2.35-10.89A4.85,4.85,0,0,0,101.78,79c-2.66-1.56-4.93,1.16-5.29,4a16.43,16.43,0,0,0,.91,6.5c-1.64-1-3.72.47-4.47,2.41s-.57,4.19-.36,6.31q.57,5.94,1.16,11.87c-1.28-2.23-4.57-1.38-5.74.92s-.84,5.22-.31,7.82c.58,2.86,1.11,7.82.19,10.64-3.73,2-4.11-3-7.11-2.42a3.88,3.88,0,0,0-2.8,3.37c-.73,4.61.73,9,.59,13.4-2.88-1-6.12,2.62-5.34,6,.48,2.06,2.06,3.6,2.16,5.86a2.77,2.77,0,0,1-1,2.38c-1.6,1.14-2.58-1.42-4.23-.07a3.08,3.08,0,0,0-1,2.56c.16,2.73,2.31,4.44,2.59,7.13a3.33,3.33,0,0,1-.83,2.64c-1,1-1.87.31-2.8.2-2.17-.27-3.66,2.85-3.27,5.35s1.92,4.5,3.08,6.65,2,4.95.91,7.15c-1.88-1.53-2.71-4.36-4.8-5.7a2.8,2.8,0,0,0-2.6-.34c-1.78.77-2,3.25-1.87,5.29a37,37,0,0,0,4,14.66C61,205.89,58,198,54.94,200.07a3.39,3.39,0,0,0-1.26,3,41.56,41.56,0,0,0,6.79,20.34,3.69,3.69,0,0,0-3.92-1.3,4.64,4.64,0,0,0-2.85,4.4c0,2.81,2.14,4.88,3.46,7.23s1.26,6.5-1.12,7-3.66-3.5-5.85-4.88c-2.6-1.64-6,1.16-6.56,4.52s.73,6.76,2.23,9.72,3.27,5.88,3.69,9.27l-.93.6c-3.68-3.37-7.62.67-6.39,4.61a17.47,17.47,0,0,1,1.06,5l-.11,2.55c-.08,4.25-3.5,8-7.16,7.91-2.92-.1-5.94.81-7.23,3.86-1.5,3.54-.22,8.41,3,10.08a8.54,8.54,0,0,1,2.45,1.79c2.9,3.24.63,5.41-.11,8a8,8,0,0,0,3.4,8.53c2.57,1.63,5.71,1.58,8.57.87,1.86-.47,3.73-1.19,5.6-.83,3.47,1.67.76,6.12,4.09,10.25a8.41,8.41,0,0,0,3.46,2.32c3.94,1.26,6.61-.31,8.78-3A10.1,10.1,0,0,1,71.56,319c1.48-.63,3,.73,3,2.55-.06,3.17.19,6.33,1.9,9a5.32,5.32,0,0,0,4.49,2.72c3.51-.08,5.26-4.17,6.7-7.62,1.78-4.25,5.13-9.11,9.88-4.56a8.17,8.17,0,0,1,2.16,4.35c.71,3.64,4.61,8.87,7.76,6.57,2.6-1.9,1.87-7.31,5.58-8.18a4.11,4.11,0,0,1,3.2.68c3.91,2.63,4.48,8.84,8.82,10.86a3.53,3.53,0,0,0,4.39-1.11c1.28-1.7.51-3.38.36-5.08-.34-3.85,2.59-7.18,5.75-8.41s6.59-1,9.9-1.42,6.86-1.85,8.52-5.2c.62-1.24.93-2.67,1.6-3.87,1.94-3.51,6-4.08,9.61-4.6s7.73-1.95,8.75-5.95C175.08,295.16,169.54,290.66,166.23,293.49Z" style="fill:#f5f5f5"></path><path d="M520.34,304.17l-19,2.71s-.11,53.07-.79,59.61-9.72,13.06-9.72,13.06h35.6C517.23,363.77,520.34,304.17,520.34,304.17Z" style="fill:#e6e6e6"></path><path d="M575.9,291.6l2.25-13.2c.23-1.33.44-2.8-.72-3.85a2.58,2.58,0,0,0-1.3-.62c-2.89-.49-5,3-7.79,3-1.65-2.5.18-6.06,2.14-8.26s4.46-5.09,3.51-8.26a4.56,4.56,0,0,0-3.09-3.09c-2.42-.72-4.75.29-7,1.29-1.45-4,3-7.16,5.61-10.64,1.6-2.13,0-5.41-2.36-5l-9,1.69a4.41,4.41,0,0,1-2.61-.23c-3.33-1.42-2.65-5.94-1.12-8.87.6-1.14,1.31-2.28,1.89-3.45,1-2.12-.19-4.83-2.28-4.92a22.87,22.87,0,0,0-5.83.48c-1.9-3.76,1.67-8,4.94-10.19a21.57,21.57,0,0,0,4.5-3.71c1.94-2.22.85-6.06-1.84-6.54l-6.47-1.16a3.86,3.86,0,0,1-1.66-.67c-2.42-1.77-1.16-5.26.5-7.32.49-.61,1-1.22,1.54-1.85,1.29-1.63.35-4.28-1.56-4.39l-2-.12a46.05,46.05,0,0,0,2.93-8.29c.88-3.5-1.82-6.81-4.88-6l-4.11,1.08a2.62,2.62,0,0,1-1.61.07,2.34,2.34,0,0,1-1.22-1.77c-1.1-5.36,7.64-8.21,6.67-13.6-.71-3.93-5.49-4-8.86-3.06a73.46,73.46,0,0,1,2.31-14.87,2.06,2.06,0,0,0-1.76-2.73l-5.06.12a2,2,0,0,1-1.55-.43,2.24,2.24,0,0,1-.47-1.41c-.19-2.93,1.65-5.46,2.39-8.26s-.86-6.94-3.27-6.06c-3.22-1.52-5.45.8-6.39-2.58a5.51,5.51,0,0,1-.17-1.9c.32-3.79,3.48-6.15,4.26-9.71a15.44,15.44,0,0,0-.47-6.5,3.51,3.51,0,0,0-.86-1.92,4.34,4.34,0,0,0-1.82-.62c-3.07-.93-3.3-5.91-2.45-9.45.64-2.7,1.44-5.86.79-8.36a2.26,2.26,0,0,0-2.76-1.78,10.61,10.61,0,0,0-3.59,1.89c-1.59-3.39-.63-7.76-2.41-11.13a4.91,4.91,0,0,0-1.78-2c-2.71-1.59-5,1.19-5.4,4a16.91,16.91,0,0,0,.93,6.63c-1.68-1-3.79.48-4.56,2.47s-.58,4.27-.37,6.44q.58,6.06,1.18,12.12c-1.3-2.28-4.66-1.41-5.86.94s-.86,5.33-.31,8c.59,2.92,1.13,8,.19,10.87-3.81,2-4.2-3.08-7.26-2.48a4,4,0,0,0-2.86,3.44c-.74,4.71.75,9.25.6,13.69-2.94-1-6.25,2.68-5.45,6.14.49,2.1,2.1,3.68,2.21,6a2.86,2.86,0,0,1-1,2.43c-1.63,1.16-2.64-1.45-4.32-.08a3.19,3.19,0,0,0-1,2.62c.16,2.78,2.36,4.54,2.64,7.28a3.37,3.37,0,0,1-.84,2.69c-1,1.05-1.91.33-2.86.21-2.22-.27-3.74,2.91-3.34,5.46s2,4.6,3.15,6.79,2,5.06.93,7.31c-1.92-1.57-2.77-4.45-4.91-5.82a2.84,2.84,0,0,0-2.65-.35c-1.82.79-2.05,3.31-1.92,5.4a38.18,38.18,0,0,0,4.09,15c-2.66,2.45-5.66-5.65-8.8-3.5a3.46,3.46,0,0,0-1.29,3.09,42.55,42.55,0,0,0,6.94,20.77,3.77,3.77,0,0,0-4-1.32,4.73,4.73,0,0,0-2.9,4.5c0,2.87,2.18,5,3.53,7.38s1.29,6.64-1.15,7.11-3.73-3.58-6-5c-2.65-1.67-6.1,1.18-6.7,4.62s.74,6.91,2.28,9.92,3.33,6,3.76,9.47l-1,.61c-3.76-3.44-7.77.68-6.52,4.71a17.63,17.63,0,0,1,1.08,5.11l-.11,2.6c-.08,4.34-3.57,8.2-7.31,8.08-3-.1-6.07.83-7.39,3.94-1.53,3.62-.22,8.6,3.05,10.3a8.39,8.39,0,0,1,2.5,1.83c3,3.31.64,5.52-.11,8.14a8.21,8.21,0,0,0,3.47,8.72c2.63,1.67,5.83,1.61,8.76.88,1.89-.47,3.8-1.21,5.71-.84,3.55,1.7.78,6.25,4.17,10.47a8.63,8.63,0,0,0,3.54,2.36c4,1.29,6.76-.32,9-3a10.2,10.2,0,0,1,3.62-3c1.51-.64,3.09.74,3.05,2.61-.07,3.23.19,6.46,1.94,9.2a5.46,5.46,0,0,0,4.58,2.78c3.59-.09,5.37-4.26,6.85-7.79,1.81-4.34,5.24-9.3,10.08-4.66a8.33,8.33,0,0,1,2.21,4.45c.73,3.71,4.7,9.06,7.92,6.71,2.66-1.94,1.92-7.47,5.7-8.36a4.19,4.19,0,0,1,3.27.7c4,2.68,4.58,9,9,11.09a3.62,3.62,0,0,0,4.48-1.13c1.31-1.75.52-3.46.37-5.19-.34-3.94,2.65-7.34,5.88-8.59s6.72-1,10.1-1.45,7-1.89,8.71-5.32c.63-1.26.95-2.72,1.63-3.95,2-3.58,6.18-4.16,9.82-4.69s7.89-2,8.93-6.08C584.93,293.3,579.27,288.7,575.9,291.6Z" style="fill:#e6e6e6"></path><path d="M201.11,313.82l-16.55,2.37s-.1,46.36-.69,52.07-8.49,11.42-8.49,11.42h31.1C198.4,365.88,201.11,313.82,201.11,313.82Z" style="fill:#e6e6e6"></path><path d="M249.64,302.84q1-5.76,2-11.53c.2-1.16.39-2.44-.63-3.37a2.29,2.29,0,0,0-1.13-.54c-2.52-.42-4.37,2.62-6.81,2.6-1.44-2.19.16-5.29,1.87-7.21s3.9-4.45,3.07-7.22a4,4,0,0,0-2.7-2.7c-2.12-.63-4.15.26-6.1,1.13-1.26-3.5,2.62-6.26,4.9-9.3,1.4-1.85,0-4.72-2.06-4.33l-7.84,1.48a4,4,0,0,1-2.28-.2c-2.92-1.25-2.32-5.19-1-7.76.52-1,1.14-2,1.65-3,.91-1.85-.16-4.21-2-4.3a20.65,20.65,0,0,0-5.08.42c-1.67-3.28,1.45-7,4.31-8.9a19.09,19.09,0,0,0,3.93-3.24c1.69-1.94.74-5.3-1.61-5.71l-5.65-1a3.46,3.46,0,0,1-1.45-.59c-2.12-1.54-1-4.6.44-6.39.43-.53.9-1.07,1.34-1.62,1.13-1.43.31-3.74-1.36-3.84l-1.73-.1a40.63,40.63,0,0,0,2.56-7.24c.76-3.06-1.59-6-4.26-5.25l-3.6.95a2.24,2.24,0,0,1-1.4.06,2,2,0,0,1-1.07-1.55c-1-4.68,6.68-7.17,5.83-11.88-.62-3.43-4.8-3.47-7.74-2.67a64.17,64.17,0,0,1,2-13,1.8,1.8,0,0,0-1.54-2.39l-4.42.1a1.71,1.71,0,0,1-1.35-.37,2,2,0,0,1-.42-1.24c-.16-2.56,1.45-4.76,2.09-7.21s-.75-6.07-2.85-5.3c-2.82-1.33-4.76.71-5.58-2.25a4.62,4.62,0,0,1-.15-1.66c.28-3.31,3-5.37,3.72-8.48a13.53,13.53,0,0,0-.41-5.68,3.1,3.1,0,0,0-.75-1.68,3.9,3.9,0,0,0-1.6-.54c-2.68-.81-2.88-5.16-2.14-8.26.57-2.36,1.26-5.11.7-7.3a2,2,0,0,0-2.42-1.55,9.26,9.26,0,0,0-3.13,1.65c-1.39-3-.55-6.78-2.11-9.72a4.15,4.15,0,0,0-1.55-1.71c-2.37-1.4-4.39,1-4.72,3.52a14.74,14.74,0,0,0,.82,5.8c-1.47-.85-3.32.42-4,2.15a12.25,12.25,0,0,0-.32,5.63c.34,3.53.69,7.06,1,10.59-1.14-2-4.07-1.23-5.12.82s-.75,4.65-.27,7c.52,2.55,1,7,.17,9.49-3.33,1.76-3.67-2.68-6.35-2.16a3.43,3.43,0,0,0-2.49,3c-.65,4.12.65,8.09.52,12-2.57-.91-5.46,2.34-4.76,5.36.43,1.84,1.84,3.22,1.92,5.23a2.49,2.49,0,0,1-.88,2.13c-1.43,1-2.3-1.27-3.77-.07a2.76,2.76,0,0,0-.9,2.29c.15,2.43,2.07,4,2.31,6.35a3,3,0,0,1-.73,2.36c-.89.92-1.67.28-2.5.18-1.94-.24-3.27,2.54-2.92,4.77s1.71,4,2.75,5.93,1.78,4.42.81,6.39c-1.67-1.37-2.42-3.89-4.28-5.09a2.48,2.48,0,0,0-2.32-.3c-1.59.69-1.79,2.89-1.67,4.72A33.24,33.24,0,0,0,158,222.55c-2.32,2.14-4.94-4.94-7.69-3.05a3,3,0,0,0-1.12,2.7,37.16,37.16,0,0,0,6.06,18.14,3.29,3.29,0,0,0-3.5-1.15,4.13,4.13,0,0,0-2.54,3.92c0,2.51,1.91,4.36,3.09,6.45s1.13,5.8-1,6.21-3.26-3.12-5.22-4.36c-2.32-1.46-5.32,1-5.85,4s.65,6,2,8.67,2.91,5.24,3.28,8.27l-.83.54c-3.28-3-6.78.59-5.69,4.11a15.42,15.42,0,0,1,.95,4.46l-.11,2.27c-.06,3.8-3.12,7.17-6.38,7.06-2.61-.09-5.3.73-6.45,3.44-1.34,3.16-.2,7.51,2.66,9a7.35,7.35,0,0,1,2.18,1.6c2.59,2.89.56,4.82-.1,7.11a7.19,7.19,0,0,0,3,7.62,9.75,9.75,0,0,0,7.65.77c1.65-.42,3.32-1.07,5-.74,3.1,1.49.68,5.46,3.64,9.15a7.61,7.61,0,0,0,3.09,2.06c3.52,1.13,5.91-.28,7.84-2.64a8.86,8.86,0,0,1,3.16-2.6c1.32-.56,2.7.65,2.67,2.28-.06,2.82.16,5.64,1.69,8a4.74,4.74,0,0,0,4,2.43c3.13-.08,4.7-3.72,6-6.8,1.59-3.79,4.58-8.13,8.81-4.07a7.23,7.23,0,0,1,1.93,3.88c.64,3.25,4.11,7.92,6.92,5.87,2.32-1.7,1.68-6.53,5-7.31a3.65,3.65,0,0,1,2.86.62c3.49,2.34,4,7.88,7.87,9.68a3.15,3.15,0,0,0,3.91-1c1.15-1.52.46-3,.32-4.53-.3-3.44,2.32-6.41,5.14-7.5s5.87-.88,8.83-1.27,6.12-1.65,7.6-4.64c.55-1.11.83-2.38,1.43-3.46,1.73-3.12,5.39-3.63,8.57-4.09s6.9-1.75,7.81-5.31C257.54,304.33,252.59,300.31,249.64,302.84Z" style="fill:#e6e6e6"></path><path d="M347.15,306l-18.52,2.64s-.12,51.89-.78,58.28-9.5,12.78-9.5,12.78h34.8C344.11,364.24,347.15,306,347.15,306Z" style="fill:#f5f5f5"></path><path d="M401.46,293.69q1.1-6.45,2.2-12.9c.22-1.31.44-2.74-.71-3.77a2.52,2.52,0,0,0-1.26-.61c-2.82-.47-4.89,2.93-7.61,2.91-1.62-2.45.17-5.93,2.08-8.07s4.37-5,3.44-8.08a4.49,4.49,0,0,0-3-3c-2.36-.7-4.64.29-6.82,1.27-1.41-3.92,2.93-7,5.49-10.4,1.56-2.08,0-5.29-2.32-4.85l-8.77,1.65a4.45,4.45,0,0,1-2.55-.22c-3.26-1.4-2.59-5.81-1.09-8.68.58-1.12,1.27-2.22,1.84-3.37,1-2.07-.18-4.72-2.23-4.81a22.19,22.19,0,0,0-5.69.47c-1.87-3.67,1.63-7.86,4.82-10a21.2,21.2,0,0,0,4.4-3.63c1.89-2.17.83-5.93-1.8-6.4l-6.33-1.13a3.81,3.81,0,0,1-1.61-.65c-2.38-1.73-1.14-5.15.48-7.15.48-.6,1-1.2,1.5-1.82,1.27-1.59.35-4.18-1.52-4.29l-1.93-.12a44.71,44.71,0,0,0,2.86-8.1c.86-3.42-1.78-6.66-4.77-5.87l-4,1.06a2.59,2.59,0,0,1-1.58.07,2.34,2.34,0,0,1-1.19-1.74c-1.07-5.23,7.48-8,6.53-13.29-.7-3.84-5.37-3.88-8.66-3a70.93,70.93,0,0,1,2.26-14.53,2,2,0,0,0-1.73-2.67l-4.94.11a1.93,1.93,0,0,1-1.51-.41,2.2,2.2,0,0,1-.47-1.39c-.18-2.86,1.61-5.33,2.33-8.07s-.83-6.79-3.19-5.93c-3.15-1.49-5.33.79-6.24-2.52a5,5,0,0,1-.17-1.85c.31-3.71,3.4-6,4.16-9.5a15.06,15.06,0,0,0-.46-6.35,3.37,3.37,0,0,0-.84-1.88,4.29,4.29,0,0,0-1.78-.61c-3-.9-3.23-5.77-2.4-9.24.64-2.64,1.42-5.72.78-8.17a2.19,2.19,0,0,0-2.7-1.73,10.39,10.39,0,0,0-3.51,1.84c-1.55-3.31-.62-7.59-2.35-10.88a4.82,4.82,0,0,0-1.74-1.91c-2.66-1.57-4.92,1.16-5.28,3.94a16.54,16.54,0,0,0,.91,6.49c-1.64-1-3.71.47-4.47,2.41s-.56,4.18-.35,6.3q.57,5.92,1.15,11.85c-1.27-2.23-4.55-1.38-5.73.92s-.84,5.2-.31,7.8c.59,2.86,1.11,7.81.19,10.63-3.72,2-4.1-3-7.09-2.42a3.87,3.87,0,0,0-2.8,3.36c-.73,4.61.73,9.05.59,13.38-2.88-1-6.11,2.62-5.33,6,.48,2.06,2.06,3.6,2.16,5.86a2.76,2.76,0,0,1-1,2.37c-1.59,1.14-2.57-1.41-4.22-.07a3.08,3.08,0,0,0-1,2.56c.16,2.72,2.31,4.43,2.59,7.11a3.32,3.32,0,0,1-.83,2.64c-1,1-1.86.32-2.79.2-2.17-.26-3.66,2.85-3.27,5.34s1.91,4.5,3.08,6.64,2,4.95.91,7.14c-1.88-1.53-2.71-4.35-4.8-5.69a2.78,2.78,0,0,0-2.59-.34c-1.78.77-2,3.24-1.88,5.29a37.29,37.29,0,0,0,4,14.63c-2.6,2.39-5.53-5.53-8.61-3.42a3.38,3.38,0,0,0-1.25,3,41.47,41.47,0,0,0,6.78,20.3,3.69,3.69,0,0,0-3.92-1.29,4.64,4.64,0,0,0-2.84,4.4c0,2.8,2.13,4.87,3.45,7.22s1.27,6.49-1.12,6.94-3.65-3.5-5.84-4.88c-2.59-1.63-6,1.16-6.55,4.52s.73,6.75,2.23,9.7,3.26,5.87,3.68,9.26l-.93.6c-3.67-3.36-7.6.67-6.37,4.6a17.48,17.48,0,0,1,1.06,5l-.12,2.55c-.07,4.24-3.49,8-7.14,7.9-2.92-.1-5.93.81-7.22,3.85-1.5,3.54-.22,8.4,3,10.07a8.44,8.44,0,0,1,2.44,1.79c2.9,3.23.63,5.4-.11,8a8,8,0,0,0,3.39,8.52c2.57,1.63,5.7,1.58,8.57.86,1.84-.46,3.72-1.19,5.58-.82,3.47,1.66.76,6.11,4.08,10.23a8.47,8.47,0,0,0,3.46,2.32c3.93,1.25,6.6-.32,8.77-3a10.09,10.09,0,0,1,3.54-2.91c1.48-.62,3,.73,3,2.56-.06,3.16.18,6.31,1.89,9a5.36,5.36,0,0,0,4.48,2.72c3.51-.09,5.26-4.17,6.7-7.62,1.77-4.23,5.12-9.09,9.85-4.55a8,8,0,0,1,2.16,4.34c.72,3.64,4.6,8.86,7.75,6.57,2.6-1.9,1.87-7.3,5.57-8.17a4.07,4.07,0,0,1,3.2.68c3.91,2.62,4.47,8.82,8.8,10.84a3.53,3.53,0,0,0,4.39-1.11c1.28-1.7.51-3.37.36-5.07-.34-3.84,2.59-7.17,5.74-8.4s6.58-1,9.88-1.41,6.85-1.85,8.51-5.2c.62-1.24.93-2.66,1.6-3.86,1.93-3.5,6-4.07,9.59-4.59s7.72-1.95,8.74-5.94C410.29,295.35,404.76,290.86,401.46,293.69Z" style="fill:#f5f5f5"></path><path d="M663.72,74.43a8.71,8.71,0,0,0-9.4-.55c-3.82-7.7-14.44-11.1-22-7a19,19,0,0,0-37,.44c-.28,1.33-.47,2.78-1.42,3.75-1.54,1.57-4.11,1-6.31.88a15.61,15.61,0,0,0-15.74,11L667,82.54C667.81,79.32,666.37,76.44,663.72,74.43Z" style="fill:#f0f0f0"></path><path d="M442,139.07a4.93,4.93,0,0,0-5.32-.31,9.46,9.46,0,0,0-12.44-4,10.73,10.73,0,0,0-20.94.26,4.18,4.18,0,0,1-.8,2.12c-.87.89-2.33.59-3.57.49a8.83,8.83,0,0,0-8.9,6.21l53.81-.19A4.28,4.28,0,0,0,442,139.07Z" style="fill:#f0f0f0"></path><path d="M590.47,125.25a3.69,3.69,0,0,0-4-.23,7.06,7.06,0,0,0-9.28-3,8,8,0,0,0-15.62.19,3.08,3.08,0,0,1-.6,1.58c-.65.66-1.73.44-2.66.37a6.59,6.59,0,0,0-6.64,4.63l40.14-.15A3.2,3.2,0,0,0,590.47,125.25Z" style="fill:#f0f0f0"></path><path d="M79.35,105.55a3.67,3.67,0,0,0-4-.24,7,7,0,0,0-9.28-3,8,8,0,0,0-15.61.19,3.08,3.08,0,0,1-.6,1.58c-.65.66-1.74.44-2.66.37a6.58,6.58,0,0,0-6.64,4.63L80.72,109A3.18,3.18,0,0,0,79.35,105.55Z" style="fill:#f0f0f0"></path><path d="M456.13,71.45a4.94,4.94,0,0,0-5.32-.31,9.46,9.46,0,0,0-12.45-4,10.73,10.73,0,0,0-20.94.25,4.09,4.09,0,0,1-.8,2.12c-.87.89-2.33.59-3.57.49a8.83,8.83,0,0,0-8.9,6.21L458,76A4.31,4.31,0,0,0,456.13,71.45Z" style="fill:#ebebeb"></path><path d="M303.26,97.23a7.08,7.08,0,0,0-7.65-.44c-3.1-6.27-11.74-9-17.9-5.73a15.43,15.43,0,0,0-30.1.36,5.87,5.87,0,0,1-1.16,3c-1.25,1.28-3.34.85-5.13.71a12.7,12.7,0,0,0-12.8,8.93l77.39-.28C306.59,101.21,305.42,98.87,303.26,97.23Z" style="fill:#f0f0f0"></path><path d="M189.3,68.17a5.48,5.48,0,0,0-5.92-.35,10.53,10.53,0,0,0-13.86-4.43,11.95,11.95,0,0,0-23.31.28,4.6,4.6,0,0,1-.9,2.36c-1,1-2.59.66-4,.55a9.82,9.82,0,0,0-9.91,6.91l59.92-.21A4.79,4.79,0,0,0,189.3,68.17Z" style="fill:#f0f0f0"></path></g><g id="background-simple"><path d="M291.55,73.54c-28.49,3.65-56,11.41-80.31,23.59-28.71,14.36-58.05,36.73-49.38,66,16,54,92.73,55,77.41,91.31-17.36,41.13-5.72,89.38,72.15,102.8,147.91,25.49,326.71-123.64,276.49-205.58C556.65,100.64,442.78,54.17,291.55,73.54Z" style="fill:#407BFF"></path><path d="M291.55,73.54c-28.49,3.65-56,11.41-80.31,23.59-28.71,14.36-58.05,36.73-49.38,66,16,54,92.73,55,77.41,91.31-17.36,41.13-5.72,89.38,72.15,102.8,147.91,25.49,326.71-123.64,276.49-205.58C556.65,100.64,442.78,54.17,291.55,73.54Z" style="fill:#fff;opacity:0.9"></path></g><g id="Shadows"><ellipse cx="509.72" cy="464.19" rx="168.05" ry="4.66" style="fill:#f5f5f5"></ellipse><ellipse cx="323.1" cy="407.7" rx="272.36" ry="4.66" style="fill:#f5f5f5"></ellipse></g><g id="Lines"><path d="M696.87,247.2H608a.25.25,0,0,1,0-.5h88.88a.25.25,0,0,1,0,.5Z" style="fill:#263238"></path><path d="M598.56,214.17H559.11a.25.25,0,0,1,0-.5h39.45a.25.25,0,0,1,0,.5Z" style="fill:#263238"></path><path d="M670,282.3H630.58a.25.25,0,0,1,0-.5H670a.25.25,0,0,1,0,.5Z" style="fill:#263238"></path><path d="M627.18,241.1H601.72a.25.25,0,0,1-.25-.25.26.26,0,0,1,.25-.25h25.46a.25.25,0,0,1,.25.25A.25.25,0,0,1,627.18,241.1Z" style="fill:#263238"></path></g><g id="horse-1"><path d="M280.69,297.49s20.52,14,47.13,11.65,44.55-7,48.46-5.92,3,8.23,3,8.23S388,342.69,390.31,348s20.82,18.39,20.82,18.39l.34-21.48-9.8-.34s-8.42-12.87-8-18.7.43-38.86-4.28-43.65-1.3-3.36-16.38-2.48-14.61,4.58-22.29-3.37-9.62-29.46-26-41.87c-14.46-10.93-33.93-16-51-7.72S252,250.25,250.54,263.5C248.51,281.89,280.69,297.49,280.69,297.49Z" style="fill:#263238"></path><path d="M280.69,297.49s20.52,14,47.13,11.65,44.55-7,48.46-5.92,3,8.23,3,8.23S388,342.69,390.31,348s20.82,18.39,20.82,18.39l.34-21.48-9.8-.34s-8.42-12.87-8-18.7.43-38.86-4.28-43.65-1.3-3.36-16.38-2.48-14.61,4.58-22.29-3.37-9.62-29.46-26-41.87c-14.46-10.93-33.93-16-51-7.72S252,250.25,250.54,263.5C248.51,281.89,280.69,297.49,280.69,297.49Z" style="fill:#fff;opacity:0.2"></path><path d="M401.84,344.6c-.33,3.88-.73,9.49-1,14,5.2,4.21,10.33,7.84,10.33,7.84l.34-21.48Z" style="fill:#263238"></path><path d="M413.4,202.1a80.45,80.45,0,0,1-38.77,7.21c-11.6-.75-23.16-4-34.69-2.56-10,1.27-19.11,6-28,10.61l12.73,7.29c14.1-3.07,29.82,5,35.54,18.25q-.46-4.43-.94-8.83A26.84,26.84,0,0,0,373.88,240L369,234.24c7.81,2.31,16.12,3.74,24.1,2.09s15.58-6.85,18.33-14.52l-5.72-1.25C412.5,217.71,416.16,209,413.4,202.1Z" style="fill:#263238"></path><path d="M175.84,245.37l-27.5,1.76s-22.76,18.42-23.58,30.95,2.79,18.25,2.79,18.25-12.28,33.91-18,38S89.62,364.87,86.2,366.93s-12.47,4.55-12.47,4.55L61.11,386l24.65,2.85h0A7.26,7.26,0,0,1,91.43,382l1.73-.39L108.75,354l20.73-25.1L148,321.5s23.84-12.19,26.45-13.87S198,277.85,198,277.85Z" style="fill:#263238"></path><path d="M175.84,245.37l-27.5,1.76s-22.76,18.42-23.58,30.95,2.79,18.25,2.79,18.25-12.28,33.91-18,38S89.62,364.87,86.2,366.93s-12.47,4.55-12.47,4.55L61.11,386l24.65,2.85h0A7.26,7.26,0,0,1,91.43,382l1.73-.39L108.75,354l20.73-25.1L148,321.5s23.84-12.19,26.45-13.87S198,277.85,198,277.85Z" style="fill:#fff;opacity:0.30000000000000004"></path><path d="M79,150.83a20.09,20.09,0,0,1-12.43-.48,3.13,3.13,0,0,0-1.26-.29.94.94,0,0,0-.91.76,1.31,1.31,0,0,0,.57,1,18.76,18.76,0,0,0,5.56,3.49,121.76,121.76,0,0,1-17.4,4c3.29,1.94,7.41,1.4,11.17.8-3.45,3.36-7.12,5.27-10.77,8.54-.4,3,9.35,1.3,12-.76s5-4.47,7.65-6.6c6.12-5,13.42-8.45,19.4-13.62l.09-.8C87.89,146.49,83.59,149.5,79,150.83Z" style="fill:#263238"></path><path d="M217.79,205.21a44.49,44.49,0,0,1-17.68-2c2.39-.54,4.95-1.17,6.56-3s1.55-5.31-.71-6.27a5.84,5.84,0,0,0-2-.34l-24.44-1.48c2.1,0,4.36-.13,6-1.38s2.28-4.15.59-5.4a5.32,5.32,0,0,0-3-.7c-15.49-.45-31.19-4.57-43.62-13.81-7-5.2-12.81-11.88-20-16.76s-16.67-7.8-24.66-4.33l66.07,55.93c6.74,6.66,14.53,12.57,23.6,15.31s19.57,1.91,27.07-3.88C215.3,214.26,218.26,209.85,217.79,205.21Z" style="fill:#263238"></path><path d="M95,150c-.63-.16-2.52-2.05-8.33,1.88S68.42,162.7,64.8,166.16s-2.2,5.66-7.23,8.49S33.2,194.77,31,199.33s.95,13.52,4.4,16.82,5.51,2.68,6.45,2.21-1.26,2.83,2.67,3a26.17,26.17,0,0,0,6.45-.76,5.57,5.57,0,0,0,3.5-2.53,20,20,0,0,1,7.5-6.93c6.45-3.46,15.88-5.18,26.26-9s12.57-9.43,12.57-9.43l2.68-33.64Z" style="fill:#263238"></path><path d="M95,150c-.63-.16-2.52-2.05-8.33,1.88S68.42,162.7,64.8,166.16s-2.2,5.66-7.23,8.49S33.2,194.77,31,199.33s.95,13.52,4.4,16.82,5.51,2.68,6.45,2.21-1.26,2.83,2.67,3a26.17,26.17,0,0,0,6.45-.76,5.57,5.57,0,0,0,3.5-2.53,20,20,0,0,1,7.5-6.93c6.45-3.46,15.88-5.18,26.26-9s12.57-9.43,12.57-9.43l2.68-33.64Z" style="fill:#fff;opacity:0.30000000000000004"></path><path d="M337.3,258.05s-2.73-30-25.94-39A59.81,59.81,0,0,0,300.44,216l-7-2s-3.87-.16-14.82,2.13q-1.87.34-3.75.78c-4.89,1-10.37,2.15-16.22,3.35-16.66,3.4-43.61,4.63-63.22,1.89-24-9.9-67.28-47.54-67.28-47.54-14.66-14-25.71-26.27-39.21-24.37l3.73,50c.82,1.41,21.32,40,31.11,58.79,1,9.8,3.87,29.58,8,34.45,5.37,6.27,28,20.83,28,20.83s61.54,1.11,95.55-7.85,61.32-13.87,61.32-13.87l11-27.68C333.52,260.82,337.3,258.05,337.3,258.05Z" style="fill:#263238"></path><path d="M337.3,258.05s-2.73-30-25.94-39A59.81,59.81,0,0,0,300.44,216l-7-2s-3.87-.16-14.82,2.13q-1.87.34-3.75.78c-4.89,1-10.37,2.15-16.22,3.35-16.66,3.4-43.61,4.63-63.22,1.89-24-9.9-67.28-47.54-67.28-47.54-14.66-14-25.71-26.27-39.21-24.37l3.73,50c.82,1.41,21.32,40,31.11,58.79,1,9.8,3.87,29.58,8,34.45,5.37,6.27,28,20.83,28,20.83s61.54,1.11,95.55-7.85,61.32-13.87,61.32-13.87l11-27.68C333.52,260.82,337.3,258.05,337.3,258.05Z" style="fill:#fff;opacity:0.30000000000000004"></path><path d="M71.31,175.1c-1.06-.15-2.08,1.06-2.31,2.68s.48,3,1.54,3.2,2.1-1.07,2.31-2.68S72.37,175.26,71.31,175.1Z" style="fill:#263238"></path><path d="M38.13,198.8C34.94,201.12,37,209.57,37,209.57,36.78,204.61,41.32,196.47,38.13,198.8Z" style="fill:#263238"></path><path d="M42.38,218.5a.78.78,0,0,0,1,.45,7.64,7.64,0,0,0,4.74-5h0a.79.79,0,0,0-.59-.9h0a.77.77,0,0,0-.92.59,5.93,5.93,0,0,1-3.78,3.94.75.75,0,0,0-.49.62Z" style="fill:#263238"></path><path d="M76.8,174.24a.77.77,0,0,0,.16-1.06A7.54,7.54,0,0,0,70.81,170h0a.76.76,0,0,0-.71.79h0a.76.76,0,0,0,.79.71,5.92,5.92,0,0,1,4.82,2.6.76.76,0,0,0,.74.29Z" style="fill:#263238"></path><g style="opacity:0.30000000000000004"><path d="M101.52,182.62a30.18,30.18,0,0,1-8.86,17.58l3.61,6.72C101.6,199.69,104.27,191.17,101.52,182.62Z"></path></g><g style="opacity:0.30000000000000004"><path d="M205.35,294.55a46.67,46.67,0,0,0-2.2-11.58c-2.66-8.17-7.41-18.61-11.53-22.55-1.39-1.32-9.73-3.42-11.15-2.13a4.09,4.09,0,0,0-.94,3.23c.25,9.23,5.35,17.5,9.48,25.76s7.44,18,4,26.55l2.11.68c6.11-2.19,3.49.68,7.62-4.32C205.26,307.16,205.83,302.52,205.35,294.55Z"></path></g><g style="opacity:0.30000000000000004"><path d="M161.79,295a105.68,105.68,0,0,0-11.22-18.83c-1-1.32-2.6-2.77-4.07-2-1,.52-1.27,1.78-1.37,2.9a27,27,0,0,0,2.39,13.8c1.84,3.92,3.32,8.24,5.7,12s5.72,10.3,5.1,10.51l2.91,1.77c3.21-1.86,3.6-5.79,3.55-9.5S163.34,298.38,161.79,295Z"></path></g><g style="opacity:0.30000000000000004"><path d="M258.21,262.16c3.62,19.59,11.58,29.79,30.45,36.17l1.61-2.72C272.57,288.62,267.43,278.81,258.21,262.16Z"></path></g><path d="M271.73,282.34s13.88,20.58,39.45,28.3,44,10,47.2,12.47-.31,8.74-.31,8.74-3.47,32.25-3.27,38.07,12.52,24.8,12.52,24.8l8.28-19.82-9-3.95s-3.05-15.08-.51-20.34,14.81-35.94,12.21-42.13,0-3.6-14.29-8.37-15.27-1.17-19.45-11.4,2-30.93-8.66-48.54c-9.38-15.51-25.57-27.44-44.52-26.09s-28.81,13.75-35.07,25.51C247.63,255.93,271.73,282.34,271.73,282.34Z" style="fill:#263238"></path><path d="M271.73,282.34s13.88,20.58,39.45,28.3,44,10,47.2,12.47-.31,8.74-.31,8.74-3.47,32.25-3.27,38.07,12.52,24.8,12.52,24.8l8.28-19.82-9-3.95s-3.05-15.08-.51-20.34,14.81-35.94,12.21-42.13,0-3.6-14.29-8.37-15.27-1.17-19.45-11.4,2-30.93-8.66-48.54c-9.38-15.51-25.57-27.44-44.52-26.09s-28.81,13.75-35.07,25.51C247.63,255.93,271.73,282.34,271.73,282.34Z" style="fill:#fff;opacity:0.30000000000000004"></path><path d="M98.17,155.22c.57-4.31,7.55-18.13,3.82-17.27s-15.35,14.4-15.35,14.4C90.24,160,97.53,160.05,98.17,155.22Z" style="fill:#263238"></path><path d="M98.17,155.22c.57-4.31,7.55-18.13,3.82-17.27s-15.35,14.4-15.35,14.4C90.24,160,97.53,160.05,98.17,155.22Z" style="fill:#fff;opacity:0.30000000000000004"></path><g style="opacity:0.30000000000000004"><path d="M96.88,145.5c-1.43,2.63-.8,5.54-.38,8.5,2.79-5.08,4.54-7.07,5.36-13.57C99.15,141.69,98.3,142.88,96.88,145.5Z"></path></g><path d="M366.78,371c-1.75,3.48-4.21,8.54-6.16,12.58,3.27,5.84,6.7,11.12,6.7,11.12l8.28-19.82Z" style="fill:#263238"></path><g style="opacity:0.30000000000000004"><path d="M129.59,279.68c1.43,8.32,3.52,16.68,7.89,23.9s9.13,12.81,17.42,14.38l5.45-2.82C150.35,302.85,140.45,291.23,129.59,279.68Z"></path></g><path d="M73.34,371.94,61.11,386l24.65,2.85h0A7.26,7.26,0,0,1,91.43,382l1.52-.34C87,378.79,78.89,374.84,73.34,371.94Z" style="fill:#263238"></path><path d="M133.24,277.07s6.91,28.46,17.88,34.56,17.69,5.28,17.69,5.28,25.4,25.61,26.62,32.52,19.11,31.09,19.51,35.06-1.22,13.21-1.22,13.21l-3.25,10.23,18.4-3.46-4.58-6.77,5.29-6,1.62-7.22-18.29-25.91L199.09,329.1l1.22-19.91s-.81-26.77-1.22-29.85-16.87-34-16.87-34l-38.82,6.09Z" style="fill:#263238"></path><path d="M133.24,277.07s6.91,28.46,17.88,34.56,17.69,5.28,17.69,5.28,25.4,25.61,26.62,32.52,19.11,31.09,19.51,35.06-1.22,13.21-1.22,13.21l-3.25,10.23,18.4-3.46-4.58-6.77,5.29-6,1.62-7.22-18.29-25.91L199.09,329.1l1.22-19.91s-.81-26.77-1.22-29.85-16.87-34-16.87-34l-38.82,6.09Z" style="fill:#fff;opacity:0.30000000000000004"></path><path d="M224.4,397.86l-10.58-.7c-.06.34-.1.54-.1.54l-3.25,10.23,18.4-3.46Z" style="fill:#263238"></path></g><g id="horse-2"><path d="M344.11,294.71c-1.06-.37-28,12.92-35.58,18.92s-6.62,17.44-6.62,17.44,10.78,27.28,11.79,33.37,13.88,6.06,13.88,6.06l4.22,6.29,17.09,5.9L343.74,363l-9.27-2.24s-4.67,2.09-6.75-3.29-11.56-21.93-11.52-25.86a25.13,25.13,0,0,1,1.87-8.2s33.61-.5,39.69-1.26,7.77-2.93,7.77-2.93l.23-20.67Z" style="fill:#407BFF"></path><path d="M334.49,360.74c-.69,4-1.87,10.83-2.7,16h0l17.09,5.9L343.74,363Z" style="fill:#263238"></path><path d="M344.11,294.71c-1.06-.37-28,12.92-35.58,18.92s-6.62,17.44-6.62,17.44,10.78,27.28,11.79,33.37,13.88,6.06,13.88,6.06l4.22,6.29,17.09,5.9L343.74,363l-9.27-2.24s-4.67,2.09-6.75-3.29-11.56-21.93-11.52-25.86a25.13,25.13,0,0,1,1.87-8.2s33.61-.5,39.69-1.26,7.77-2.93,7.77-2.93l.23-20.67Z" style="opacity:0.30000000000000004"></path><path d="M400.92,210.44a40.32,40.32,0,0,0,4.34-6.69,2.78,2.78,0,0,0-3.17-4,36.78,36.78,0,0,1-21.29-.69,24.72,24.72,0,0,0,5.73-6.08,3,3,0,0,0-2.73-4.57,41.74,41.74,0,0,1-16.27-2c2.26-2.23,4.66-5.85,1.83-8.13a4.48,4.48,0,0,0-1.79-.84l-20.05-4.89c1.25-2.09,2.53-4.26,2.48-6.78a5.12,5.12,0,0,0-1.07-3.12c-1.81-2.21-4.62-1.68-7.12-1.4-9.65,1.08-18-4.19-27.46-6.54s-23.28-6.13-31.06-.33l98.82,66.92c10.37,2.69,22.28-3.06,26.63-12.86Z" style="fill:#263238"></path><path d="M606.18,278.47c-1-4.18-5.58-7.32-9.68-6.4,2.48-1.2,2.84-5.53.65-7.58-2.45-2.29-6.32-2.17-9.54-1.21s-6.27,2.62-9.61,3c-7.82.81-14.52-5.69-18.45-12.51s-6.53-14.64-12.28-20c-8.7-8.12-23.88-7.82-32.25.64l7,16.14c4.59-1.37,9.46,1.87,11.91,6s3.22,9,4.68,13.54a45.42,45.42,0,0,0,21.46,25.84c3.48,1.88,7.63,3.3,11.32,1.9s5.78-6.8,2.86-9.46c4.27,1.83,8.6,3.66,13.18,4.39s9.54.25,13.43-2.29S607.26,283,606.18,278.47Z" style="fill:#263238"></path><path d="M471,260.47c-.57,1.61.09,19.66,10.14,32.26s18.31,21.82,18.31,21.82l10.15,12.92S478.64,368,479.08,373.94s-3.79,13-3.79,13l-.88,13.17,21.47-13a22.7,22.7,0,0,1-4.3-7.36c-1.59-4.51,8.42-22.39,12.08-27.83s28.47-15.4,29.42-20.35,1.1-7.87.14-8.64S519.14,308,519.32,304s5.76-44.71,2.66-59.13-26.67-22.8-42.23-16.47S471,260.47,471,260.47Z" style="fill:#407BFF"></path><path d="M471,260.47c-.57,1.61.09,19.66,10.14,32.26s18.31,21.82,18.31,21.82l10.15,12.92S478.64,368,479.08,373.94s-3.79,13-3.79,13l-.88,13.17,21.47-13a22.7,22.7,0,0,1-4.3-7.36c-1.59-4.51,8.42-22.39,12.08-27.83s28.47-15.4,29.42-20.35,1.1-7.87.14-8.64S519.14,308,519.32,304s5.76-44.71,2.66-59.13-26.67-22.8-42.23-16.47S471,260.47,471,260.47Z" style="opacity:0.30000000000000004"></path><path d="M295.39,207.8c1.05,1.8,34,62.81,34.31,64.95s6.55,22.23,16.81,32,11.31,11.92,24.13,16.35S451.81,318,471.91,310s58.18-48.89,58.18-48.89-2.63-28.93-25-37.57c-19-7.36-36.7-3.39-55,5s-31.75,6.67-54.18-1.07-67.3-46.75-67.3-46.75c-14.13-13.44-24.78-25.31-37.78-23.48Z" style="fill:#407BFF"></path><path d="M475.21,268.24c-1.08,1.42-6.28,19.59-.38,35.38S486,331.26,486,331.26l5.9,16.15S448,377.67,446.45,383.73s-8,11.71-8,11.71l-5.15,12.81,25.58-6a23.67,23.67,0,0,1-1.88-8.72c-.13-5,15.63-19.53,21-23.76s33.3-6.08,35.85-10.7,3.66-7.47,3-8.55-9.16-19.42-7.69-23.34,19.32-46.78,20.92-62.13-17-44.15-34.49-42.91S475.21,268.24,475.21,268.24Z" style="fill:#407BFF"></path><path d="M283.11,156.56c-4.71-2.33-10-18.06-12.06-13.95S272.41,168,272.41,168C282.26,170.59,287.81,158.88,283.11,156.56Z" style="fill:#407BFF"></path><path d="M278.28,212c-4,.47-14.15,9.41-18.33,13.35s-8.51-.15-8.51-.15c-13.77,3.49-14.71-6-14.51-12.6s22.24-31,22.24-31c16-29.47,32.08-27.13,32.08-27.13C330.12,208.4,282.3,211.5,278.28,212Z" style="fill:#407BFF"></path><path d="M272.32,181.57c-1.09-.16-2.13,1.08-2.37,2.75s.5,3.11,1.59,3.29,2.16-1.1,2.37-2.75S273.42,181.72,272.32,181.57Z" style="fill:#263238"></path><path d="M241.88,208.52c-3.28,2.38-1.13,11.08-1.13,11.08C240.48,214.5,245.15,206.14,241.88,208.52Z" style="fill:#263238"></path><path d="M251.79,224.85a.79.79,0,0,0,1,.45,7.77,7.77,0,0,0,4.86-5.18h0a.81.81,0,0,0-.6-.93h0a.79.79,0,0,0-.94.61,6.1,6.1,0,0,1-3.89,4,.76.76,0,0,0-.5.64Z" style="fill:#263238"></path><path d="M282.94,159.79c-7.25,2.93-6.65,18.74-15.08,16.89-6.52-1.45,4.36-19.35,4.36-19.35s-12.29,8.71-10.17,1.55,23.12-7.44,23.12-7.44S290.2,156.85,282.94,159.79Z" style="fill:#263238"></path><path d="M291.86,155.33c-3.54-3.87-10.86-21.05-13-16.94s1.37,25.35,1.37,25.35C290.13,166.38,295.82,159.67,291.86,155.33Z" style="fill:#407BFF"></path><path d="M278,180.68a.79.79,0,0,0,.17-1.09,7.79,7.79,0,0,0-6.32-3.24h0a.79.79,0,0,0-.73.82h0a.79.79,0,0,0,.82.73,6.09,6.09,0,0,1,5,2.67.79.79,0,0,0,.76.29Z" style="fill:#263238"></path><g style="opacity:0.30000000000000004"><path d="M303.36,189.29c-.86,7-3.23,13.13-8.16,18.12l3.69,6.85C304.36,206.82,306.19,198.07,303.36,189.29Z"></path></g><g style="opacity:0.30000000000000004"><path d="M478.28,308.11c-12.13-6.69-19.12-21.58-16.52-35.19A36.11,36.11,0,0,0,466,312.48"></path></g><g style="opacity:0.30000000000000004"><path d="M404.85,295.35c-1.49-9.31.14-15.08-4.84-23.09-.64,15.89-3.77,30.69-1.77,46.47L396,322C414.34,321.6,406.33,304.67,404.85,295.35Z"></path></g><path d="M361,317.39,358.32,314S343,303.65,344.23,281.36c.93-16.41,19.06-19.16,26.44-20.2,11.48-1.62-8.66,61.39-8.66,61.39Z" style="opacity:0.30000000000000004"></path><path d="M399.84,264.21a134,134,0,0,0,1.75,36.84s3.07,7.67-.15,14.29-40.1,40-40.1,40l2.44,5s20.06-3.36,24-5.82,11.8-.23,11.8-.23l2.86-3.19,10.43-3.1,14.52,13s-10.43,2-18.26,1.24-7.56,6.35-16.84,5.53-27.22,5.43-35.05,2.13-8.52-5.81-7.36-14,5.18-16,8.12-24.22,3.42-18.9,3.42-18.9a33.63,33.63,0,0,1-13-22c-2-14.59,1-26.25,17.17-34.88S399.84,264.21,399.84,264.21Z" style="fill:#407BFF"></path><path d="M412.92,348l-.21,0-10.26,3-.22.25,10.64,11.09A85.39,85.39,0,0,0,427.4,361Z" style="fill:#263238"></path><path d="M438.4,395.61l-5.08,12.64,25.58-6a23.67,23.67,0,0,1-1.88-8.72v-.05Z" style="fill:#263238"></path><path d="M475.29,387l-.88,13.17,21.47-13a22.45,22.45,0,0,1-3.82-6.14L475.79,386C475.49,386.62,475.29,387,475.29,387Z" style="fill:#263238"></path></g><g id="horse-3"><path d="M443,363.4c-3.13,1.79-37.59,14.77-40.73,22.83s-3.13,12.53-3.13,12.53,3.13,6.27,8.06,18.8,1.79,13.88,8,18.8A54.61,54.61,0,0,0,429.61,444l17,7.61-4.48-23.72-12.53,4-2.24-6.71a43.88,43.88,0,0,1-10.3-17.68c-3.58-11.41,0-13.65,5.82-14.1s32.68.56,40.29-2.41,9.39-7,9.39-7Z" style="fill:#407BFF"></path><path d="M443,363.4c-3.13,1.79-37.59,14.77-40.73,22.83s-3.13,12.53-3.13,12.53,3.13,6.27,8.06,18.8,1.79,13.88,8,18.8A54.61,54.61,0,0,0,429.61,444l17,7.61-4.48-23.72-12.53,4-2.24-6.71a43.88,43.88,0,0,1-10.3-17.68c-3.58-11.41,0-13.65,5.82-14.1s32.68.56,40.29-2.41,9.39-7,9.39-7Z" style="fill:#fff;opacity:0.7000000000000001"></path><path d="M724.08,371.58a4.7,4.7,0,0,0-.2-2.68c-1.33-3.12-5.52-2.38-8.67-1.72A30.25,30.25,0,0,1,685,355.25a16.15,16.15,0,0,0,2.26,1.27c2.94,1.36,5-3,2.17-4.55a58.84,58.84,0,0,1-21.61-19.48,14.33,14.33,0,0,0,4,2.72,2.53,2.53,0,0,0,2.57-4.31c-6.19-5-15.75-16.41-21-22.53-7.32-8.59-17.2-16.07-30.87-10l7.56,8.84c4.29,7.09,4.66,16,2.8,24.1A66.73,66.73,0,0,1,628.42,344a2.52,2.52,0,0,0,3.87,3l.53-.42a63.6,63.6,0,0,0-2.48,20,2.53,2.53,0,0,0,4.78,1l2.53-5a56.94,56.94,0,0,0,10.88,21.54,2.52,2.52,0,0,0,4.5-1.72,44.25,44.25,0,0,1,.07-7.19c4,7.63,11.43,13.16,19.62,15.82s17.09,2.62,25.55,1A42,42,0,0,0,714,386C719,382.57,723,377.51,724.08,371.58Z" style="fill:#263238"></path><path d="M520.68,270.89c-2.32-3.39-7.33-3.39-11.32-2.36s-8.13,2.74-12.06,1.52a4.05,4.05,0,0,0,1-3.94l-7.52.48a2.1,2.1,0,0,0,.52-3c-1-1.12-2.73-1.16-4.24-1.11l-13,.43c2.69-1.52,5.51-3.18,6.93-5.91s.62-6.84-2.31-7.79a8,8,0,0,0-3-.16l-15.85,1.14c.37-1.94-1.18-3.84-3-4.56a12.9,12.9,0,0,0-5.87-.37,16.52,16.52,0,0,0,5.53-14.05,43.22,43.22,0,0,1-22.34,3.29l4.79-4.93-8.27-.4a8.85,8.85,0,0,0,5-5.68c-6.38,1-12.88-.2-19.2-1.54s-11.7-.23-18.13.41-11.88,6.24-14.88,12l6-2.34c8,.51,14.79,2.06,20.94,7.14s11.31,11.24,16.9,16.94a151,151,0,0,0,56.34,36.08c6.68,2.4,13.86,4.34,20.8,2.89a22.69,22.69,0,0,0,17.08-16.76C522,275.78,522.12,273,520.68,270.89Z" style="fill:#263238"></path><path d="M401.28,226.64c-.63-.16-2.52-2-8.33,1.89s-18.24,10.85-21.86,14.3-2.2,5.66-7.23,8.49S339.49,271.45,337.29,276s.95,13.52,4.4,16.82,5.51,2.67,6.45,2.2-1.26,2.83,2.67,3a26.66,26.66,0,0,0,6.45-.76,5.6,5.6,0,0,0,3.5-2.53,19.89,19.89,0,0,1,7.5-6.93c6.45-3.46,15.88-5.19,26.26-9s12.57-9.44,12.57-9.44l2.68-33.64Z" style="fill:#407BFF"></path><path d="M643.59,334.73s-2.73-30-25.94-39a59.86,59.86,0,0,0-10.92-3.1L603.85,290a146.4,146.4,0,0,0-19,2.78c-1.25.23-2.5.49-3.75.79-4.89,1-10.37,2.15-16.22,3.34-16.66,3.4-43.6,4.63-63.22,1.89-24-9.9-67.28-47.54-67.28-47.54-14.66-14-25.71-26.27-39.21-24.37l3.73,50c.82,1.4,21.32,40,31.11,58.78,1.05,9.81,3.87,29.58,8.05,34.46,5.37,6.26,28,20.82,28,20.82s61.54,1.11,95.55-7.84S623,369.22,623,369.22l11-27.68C639.81,337.49,643.59,334.73,643.59,334.73Z" style="fill:#407BFF"></path><path d="M446.62,347.74c.44,2.68,17.45,36.7,20.14,39.39s-19.25,32.67-17.91,40.28,3.36,10.74,7.95,11.64,39.94,3.58,44.87,0,8.5-6.27,8.5-6.27L528,430.91l-16.1-14.07L507,423.38s-9.85-1.34-12.53,0-11.19,6.71-17.91,6.27-14.32,1.34-12.53-3.14,19.69-15.21,29.09-26.85,19.25-13.88,18.8-21.93S503,354,503,342.82s-16.11-29.54-34.46-17.91S446.62,347.74,446.62,347.74Z" style="fill:#407BFF"></path><path d="M574.76,324.91s-10.75,22.38-4.48,48.34,13.56,43,13.11,47-7.7,4.15-7.7,4.15-29.58,13.31-34.51,16.42-15.06,23.34-15.06,23.34l21.29-2.87-1.14-9.74s11.48-10.26,17.3-10.73,38.49-5.39,42.52-10.76,3.13-1.79,0-16.56-6.72-13.76,0-22.55,27.69-13.91,37.5-32c8.64-15.94,10.74-35.94,0-51.61s-26.42-17.9-39.74-17.36C585.36,290.76,574.76,324.91,574.76,324.91Z" style="fill:#407BFF"></path><path d="M404.46,231.89c.57-4.31,7.55-18.12,3.82-17.27S392.93,229,392.93,229C396.53,236.69,403.82,236.72,404.46,231.89Z" style="fill:#407BFF"></path><path d="M643.59,307.37c-10.74-15.66-26.42-17.9-39.74-17.36h0a146.4,146.4,0,0,0-19,2.78c-1.25.23-2.5.49-3.75.79-4.89,1-10.37,2.15-16.22,3.34-16.66,3.4-43.6,4.63-63.22,1.89-24-9.9-67.28-47.54-67.28-47.54-10.79-10.27-19.63-19.65-28.92-23.13,2-5.71,5.72-14.19,2.77-13.52s-11.54,10.07-14.39,13.3c-.3.19-.62.39-.94.61-5.82,3.93-18.24,10.85-21.86,14.3s-2.2,5.66-7.23,8.49S339.49,271.45,337.29,276s.95,13.52,4.4,16.82,5.51,2.67,6.45,2.2-1.26,2.83,2.67,3a26.66,26.66,0,0,0,6.45-.76,5.6,5.6,0,0,0,3.5-2.53,19.89,19.89,0,0,1,7.5-6.93c6.45-3.46,15.88-5.19,26.26-9a35.32,35.32,0,0,0,4.43-2h0c.82,1.4,21.32,40,31.11,58.78,1.05,9.81,3.87,29.58,8.05,34.46,5.37,6.26,27.92,20.78,28,20.82-3.79,8.93-18.34,30.23-17.24,36.47,1.35,7.61,3.36,10.74,7.95,11.64s39.94,3.58,44.87,0,8.5-6.27,8.5-6.27L528,430.91l-16.1-14.07L507,423.38s-9.85-1.34-12.53,0-11.19,6.71-17.91,6.27-14.32,1.34-12.53-3.14,19.69-15.21,29.09-26.85a63.93,63.93,0,0,1,9.5-9.35c19.33-.88,42.42-2.85,59-7.21q5.36-1.41,10.45-2.68c5.77,21.92,11.7,36.22,11.3,39.86-.45,4-7.7,4.15-7.7,4.15s-29.58,13.31-34.51,16.42-15.06,23.34-15.06,23.34l21.29-2.87-1.14-9.74s11.48-10.26,17.3-10.73,38.49-5.39,42.52-10.76,3.13-1.79,0-16.56-6.72-13.76,0-22.55,27.69-13.91,37.5-32C652.23,343,654.33,323,643.59,307.37Z" style="fill:#fff;opacity:0.7000000000000001"></path><g style="opacity:0.30000000000000004"><path d="M403.17,222.18c-1.43,2.62-.8,5.53-.38,8.49,2.79-5.08,4.54-7.07,5.36-13.57C405.44,218.37,404.59,219.55,403.17,222.18Z"></path></g><g style="opacity:0.30000000000000004"><path d="M512,377.73c.31,5.55-4.27,8.34-10.22,13.34,5.92-2.09,9.43-2.44,13.49-7.35,2.5-3,2-5.64.23-10.58-1.32-3.69-3.25-10.84-4.46-14.57-2.42-7.44-5-15.25-8.54-19.56a15,15,0,0,1,.55,3.81C503,354,511.51,369.67,512,377.73Z"></path></g><g style="opacity:0.30000000000000004"><path d="M466.76,387.13c-1.8-1.8-10-17.56-15.34-28.63a27,27,0,0,0,2.39,9c1.84,3.93,3.32,8.25,5.7,12s5.72,10.31,5.1,10.51l1.48.9C466.92,389,467.24,387.61,466.76,387.13Z"></path></g><path d="M377.6,251.78c-1.06-.16-2.08,1.05-2.31,2.67s.48,3,1.54,3.2,2.1-1.06,2.31-2.67S378.66,251.93,377.6,251.78Z" style="fill:#263238"></path><path d="M344.42,275.47c-3.18,2.32-1.09,10.78-1.09,10.78C343.07,281.28,347.61,273.15,344.42,275.47Z" style="fill:#263238"></path><path d="M348.67,295.18a.77.77,0,0,0,1,.44,7.64,7.64,0,0,0,4.74-5.05h0a.79.79,0,0,0-.59-.9h0a.79.79,0,0,0-.92.59,5.91,5.91,0,0,1-3.78,3.94.75.75,0,0,0-.49.63Z" style="fill:#263238"></path><path d="M383.09,250.91a.77.77,0,0,0,.16-1.06,7.56,7.56,0,0,0-6.15-3.15h0a.76.76,0,0,0-.71.79h0a.76.76,0,0,0,.79.71,5.92,5.92,0,0,1,4.82,2.6.76.76,0,0,0,.74.29Z" style="fill:#263238"></path><g style="opacity:0.30000000000000004"><path d="M407.81,259.29A30.24,30.24,0,0,1,399,276.88l3.61,6.72C407.89,276.36,410.56,267.84,407.81,259.29Z"></path></g><path d="M446.62,451.58l-4.48-23.72-12.53,4,0-.07-1.27,11.69c.82.31,1.3.47,1.3.47Z" style="fill:#263238"></path><path d="M528,430.91l-16.1-14.07L507,423.38l-.58-.07,3.89,9.45Z" style="fill:#263238"></path><path d="M546.29,451.75c-3.88.25-9.49.69-14,1.05-3.38,5.77-6.2,11.39-6.2,11.39l21.29-2.87Z" style="fill:#263238"></path><g style="opacity:0.30000000000000004"><path d="M574.76,324.91c-11.38,16.36-19,39.54-10.24,57.44l7.59-1.91C564.63,362.94,569.41,343.18,574.76,324.91Z"></path></g></g></svg>
