<svg xmlns="http://www.w3.org/2000/svg" viewBox="0 0 500 500"><g id="background-complete"><rect y="382.4" width="500" height="0.25" style="fill:#ebebeb"></rect><rect x="416.78" y="398.49" width="33.12" height="0.25" style="fill:#ebebeb"></rect><rect x="322.53" y="401.21" width="8.69" height="0.25" style="fill:#ebebeb"></rect><rect x="396.59" y="389.21" width="19.19" height="0.25" style="fill:#ebebeb"></rect><rect x="52.46" y="390.89" width="43.19" height="0.25" style="fill:#ebebeb"></rect><rect x="104.56" y="390.89" width="6.33" height="0.25" style="fill:#ebebeb"></rect><rect x="131.47" y="395.11" width="93.68" height="0.25" style="fill:#ebebeb"></rect><path d="M237,337.8H43.91a5.71,5.71,0,0,1-5.7-5.71V60.66A5.71,5.71,0,0,1,43.91,55H237a5.71,5.71,0,0,1,5.71,5.71V332.09A5.71,5.71,0,0,1,237,337.8ZM43.91,55.2a5.46,5.46,0,0,0-5.45,5.46V332.09a5.46,5.46,0,0,0,5.45,5.46H237a5.47,5.47,0,0,0,5.46-5.46V60.66A5.47,5.47,0,0,0,237,55.2Z" style="fill:#ebebeb"></path><path d="M453.31,337.8H260.21a5.72,5.72,0,0,1-5.71-5.71V60.66A5.72,5.72,0,0,1,260.21,55h193.1A5.71,5.71,0,0,1,459,60.66V332.09A5.71,5.71,0,0,1,453.31,337.8ZM260.21,55.2a5.47,5.47,0,0,0-5.46,5.46V332.09a5.47,5.47,0,0,0,5.46,5.46h193.1a5.47,5.47,0,0,0,5.46-5.46V60.66a5.47,5.47,0,0,0-5.46-5.46Z" style="fill:#ebebeb"></path><circle cx="197.34" cy="112.81" r="26.29" style="fill:#fafafa"></circle><path d="M430.3,224.54a8.63,8.63,0,0,0,.27-1.81c.23-3.77,3.82-3.17,6.88-3.68,2.39-.4-3.94-6.44.88-8.39a4.23,4.23,0,0,0,2.33-1.62,2.75,2.75,0,0,0-1.05-3.34,6.49,6.49,0,0,0-3.66-.92c-.79-.95-.15-2.39.61-3.37s1.7-2.08,1.41-3.29c-.44-1.81-3-1.88-4.81-1.52-.68-1.1-.67-2.48-1-3.72s-1.32-2.56-2.6-2.4-1.94,1.51-3.12,1.78c-1.38.33-2.57-.89-3.64-1.8s-3-1.48-3.71-.28c-.44.72-.18,1.72-.64,2.43-.8,1.23-2.7.47-3.88-.4s-3.05-1.66-3.88-.45a4.86,4.86,0,0,0-.46,1.26c-.56,1.6-2.3,2.41-3.65,3.44s-2.43,3.08-1.28,4.34c.56.62,1.56.87,1.84,1.67.35,1-.66,1.87-1.46,2.55-1.33,1.13-1.57,4.52.19,5.45.74.39,1.82.51,2,1.32s-.58,1.3-1.07,1.86a3.5,3.5,0,0,0,1.07,5.21c.42.2.94.37,1.1.81a1.7,1.7,0,0,1-.1,1,5.19,5.19,0,0,0-.17,1.88.87.87,0,0,0,.23.59.9.9,0,0,0,.56.16c2.54.11,3.77-.79,5.32,1.43a1.77,1.77,0,0,0,.53.56,1.68,1.68,0,0,0,.7.17c1.75.15,2.89-.94,4.49-1.15,2.21-.28,2.68.86,4.63,1.78C428.23,227.52,429.72,226.64,430.3,224.54Z" style="fill:#ebebeb"></path><path d="M401,221.38a8.59,8.59,0,0,0,.28-1.82c.22-3.76,3.82-3.17,6.87-3.68,2.39-.4-3.93-6.43.89-8.38a4.24,4.24,0,0,0,2.32-1.62,2.73,2.73,0,0,0-1.05-3.34,6.41,6.41,0,0,0-3.66-.92c-.78-1-.14-2.39.62-3.37s1.69-2.09,1.4-3.29c-.43-1.82-3-1.88-4.81-1.53-.68-1.1-.66-2.47-1-3.72s-1.32-2.55-2.6-2.4-2,1.51-3.13,1.79c-1.37.32-2.56-.89-3.64-1.8s-3-1.48-3.71-.28c-.44.72-.18,1.72-.64,2.43-.8,1.22-2.7.46-3.87-.41s-3.06-1.66-3.89-.45a5.42,5.42,0,0,0-.46,1.26c-.55,1.61-2.29,2.41-3.65,3.44s-2.43,3.09-1.28,4.35c.57.62,1.56.87,1.84,1.66.35,1-.66,1.88-1.46,2.56-1.33,1.13-1.57,4.52.19,5.45.74.39,1.82.51,2,1.32s-.57,1.3-1.07,1.86a3.51,3.51,0,0,0,1.07,5.21c.43.2,1,.37,1.1.81a1.59,1.59,0,0,1-.1,1,5.24,5.24,0,0,0-.17,1.89.89.89,0,0,0,.23.59.9.9,0,0,0,.56.16c2.54.11,3.77-.79,5.32,1.42a1.78,1.78,0,0,0,.53.56,1.55,1.55,0,0,0,.7.18c1.75.14,2.89-.95,4.49-1.15,2.21-.28,2.68.86,4.64,1.78C399,224.36,400.44,223.47,401,221.38Z" style="fill:#ebebeb"></path><path d="M398.2,202.73a8.63,8.63,0,0,0,.27-1.81c.23-3.77,3.82-3.17,6.88-3.68,2.39-.4-3.94-6.44.88-8.39a4.23,4.23,0,0,0,2.33-1.62,2.75,2.75,0,0,0-1.05-3.34,6.49,6.49,0,0,0-3.66-.92c-.78-.95-.15-2.39.62-3.36s1.69-2.09,1.4-3.29c-.44-1.82-3-1.89-4.81-1.53-.68-1.1-.66-2.47-1-3.72s-1.32-2.56-2.61-2.4-1.94,1.51-3.12,1.79c-1.38.32-2.57-.9-3.64-1.81s-3-1.48-3.71-.28c-.44.72-.18,1.72-.64,2.43-.8,1.23-2.7.47-3.88-.4s-3.05-1.66-3.88-.45a4.86,4.86,0,0,0-.46,1.26c-.56,1.61-2.3,2.41-3.65,3.44s-2.43,3.08-1.28,4.34c.56.62,1.56.88,1.84,1.67.35,1-.66,1.87-1.46,2.55-1.33,1.14-1.57,4.53.19,5.45.74.39,1.82.51,2,1.33s-.58,1.29-1.07,1.85a3.5,3.5,0,0,0,1.07,5.21c.43.21,1,.37,1.1.81a1.7,1.7,0,0,1-.1,1,5.19,5.19,0,0,0-.17,1.88.91.91,0,0,0,.23.6,1,1,0,0,0,.56.15c2.54.12,3.77-.78,5.32,1.43a1.77,1.77,0,0,0,.53.56,1.68,1.68,0,0,0,.7.17c1.75.15,2.89-.94,4.49-1.15,2.21-.28,2.68.86,4.63,1.78C396.14,205.72,397.62,204.83,398.2,202.73Z" style="fill:#ebebeb"></path><path d="M378.91,212a8.6,8.6,0,0,0,.28-1.81c.22-3.77,3.82-3.17,6.88-3.69,2.39-.39-3.94-6.43.88-8.38a4.2,4.2,0,0,0,2.32-1.62,2.72,2.72,0,0,0-1-3.34,6.48,6.48,0,0,0-3.65-.92c-.79-.95-.15-2.39.61-3.37s1.69-2.08,1.4-3.29c-.43-1.81-3-1.88-4.81-1.53-.67-1.09-.66-2.47-1-3.71s-1.32-2.56-2.6-2.41-1.94,1.51-3.13,1.79c-1.37.33-2.56-.89-3.64-1.8s-3-1.48-3.7-.28c-.45.72-.18,1.72-.64,2.43-.81,1.23-2.7.46-3.88-.41s-3.06-1.65-3.89-.45a5,5,0,0,0-.45,1.26c-.56,1.61-2.3,2.41-3.66,3.45s-2.42,3.08-1.28,4.34c.57.62,1.56.87,1.84,1.66.35,1-.66,1.88-1.46,2.56-1.33,1.13-1.57,4.52.19,5.45.74.39,1.82.51,2,1.32s-.58,1.3-1.07,1.86a3.5,3.5,0,0,0,1.07,5.21c.42.2.94.37,1.1.81a1.66,1.66,0,0,1-.1,1,5,5,0,0,0-.17,1.89.82.82,0,0,0,.23.59.87.87,0,0,0,.55.16c2.55.11,3.77-.79,5.32,1.42a1.81,1.81,0,0,0,.53.57,1.68,1.68,0,0,0,.7.17c1.75.15,2.89-1,4.49-1.15,2.22-.28,2.69.86,4.64,1.78C376.85,215,378.34,214.11,378.91,212Z" style="fill:#ebebeb"></path><path d="M359.42,207.73a8.6,8.6,0,0,0,.28-1.81c.22-3.77,3.82-3.17,6.88-3.68,2.39-.4-3.94-6.44.88-8.39a4.24,4.24,0,0,0,2.32-1.62,2.74,2.74,0,0,0-1-3.34,6.49,6.49,0,0,0-3.66-.92c-.78-.95-.14-2.39.62-3.37s1.69-2.08,1.4-3.29c-.43-1.81-3-1.88-4.81-1.53-.68-1.09-.66-2.47-1-3.71s-1.32-2.56-2.6-2.4-1.95,1.5-3.13,1.78c-1.37.33-2.56-.89-3.64-1.8s-3-1.48-3.71-.28c-.44.72-.17,1.72-.64,2.43-.8,1.23-2.7.46-3.87-.4s-3.06-1.66-3.89-.46a5.42,5.42,0,0,0-.46,1.26c-.55,1.61-2.29,2.42-3.65,3.45s-2.43,3.08-1.28,4.34c.57.62,1.56.87,1.84,1.67.35,1-.66,1.87-1.46,2.55-1.33,1.13-1.57,4.52.19,5.45.74.39,1.82.51,2,1.32s-.57,1.3-1.06,1.86a3.5,3.5,0,0,0,1.07,5.21c.42.2.94.37,1.09.81a1.59,1.59,0,0,1-.1,1,5.26,5.26,0,0,0-.17,1.89.87.87,0,0,0,.23.59.9.9,0,0,0,.56.16c2.54.11,3.77-.79,5.32,1.43a1.89,1.89,0,0,0,.53.56,1.68,1.68,0,0,0,.7.17c1.75.15,2.89-.94,4.49-1.15,2.22-.28,2.68.86,4.64,1.78C357.36,210.71,358.85,209.82,359.42,207.73Z" style="fill:#ebebeb"></path><path d="M359.17,228.58a7.32,7.32,0,0,0,.21-1.43c.18-3,3-2.49,5.42-2.9,1.88-.31-3.1-5.06.69-6.6a3.28,3.28,0,0,0,1.83-1.27,2.15,2.15,0,0,0-.82-2.63,5,5,0,0,0-2.88-.73c-.62-.75-.12-1.88.48-2.65s1.33-1.64,1.11-2.59c-.35-1.43-2.35-1.48-3.79-1.2a10.65,10.65,0,0,1-.78-2.93c-.26-1-1-2-2.05-1.89s-1.53,1.19-2.46,1.41-2-.71-2.87-1.42-2.33-1.17-2.92-.22c-.35.56-.14,1.35-.5,1.91-.63,1-2.13.36-3-.32s-2.41-1.31-3.06-.35a3.66,3.66,0,0,0-.36,1c-.44,1.26-1.81,1.9-2.88,2.71s-1.91,2.43-1,3.42c.45.49,1.23.69,1.45,1.31.28.78-.52,1.48-1.15,2-1,.89-1.24,3.56.15,4.29.58.31,1.44.4,1.58,1s-.46,1-.84,1.47a2.75,2.75,0,0,0,.84,4.1c.33.16.74.29.86.64a1.28,1.28,0,0,1-.07.77,3.94,3.94,0,0,0-.14,1.49.68.68,0,0,0,.18.46.76.76,0,0,0,.44.13c2,.09,3-.62,4.19,1.12a1.36,1.36,0,0,0,.42.44,1.28,1.28,0,0,0,.55.14c1.38.11,2.28-.75,3.53-.91,1.75-.22,2.12.68,3.65,1.4C357.54,230.93,358.71,230.23,359.17,228.58Z" style="fill:#ebebeb"></path><path d="M348.25,221.38a9.33,9.33,0,0,0,.27-1.82c.22-3.76,3.82-3.17,6.88-3.68,2.39-.4-3.94-6.43.88-8.38a4.23,4.23,0,0,0,2.33-1.62,2.74,2.74,0,0,0-1.05-3.34,6.45,6.45,0,0,0-3.66-.92c-.79-1-.15-2.39.61-3.37s1.69-2.09,1.41-3.29c-.44-1.82-3-1.88-4.81-1.53-.68-1.1-.67-2.47-1-3.72s-1.32-2.55-2.6-2.4-1.94,1.51-3.13,1.79c-1.37.32-2.56-.89-3.64-1.8s-3-1.48-3.7-.28c-.45.72-.18,1.72-.64,2.43-.8,1.22-2.7.46-3.88-.41s-3.06-1.66-3.89-.45a5,5,0,0,0-.45,1.26c-.56,1.61-2.3,2.41-3.65,3.44s-2.43,3.09-1.29,4.35c.57.62,1.57.87,1.85,1.66.35,1-.66,1.88-1.46,2.56-1.33,1.13-1.58,4.52.18,5.45.74.39,1.83.51,2,1.32s-.58,1.3-1.07,1.86a3.5,3.5,0,0,0,1.07,5.21c.42.2.94.37,1.1.81a1.67,1.67,0,0,1-.1,1,5.24,5.24,0,0,0-.17,1.89.84.84,0,0,0,.23.59.9.9,0,0,0,.56.16c2.54.11,3.76-.79,5.32,1.42a1.58,1.58,0,0,0,.53.56,1.52,1.52,0,0,0,.7.18c1.74.14,2.89-.95,4.48-1.15,2.22-.28,2.69.86,4.64,1.78C346.18,224.36,347.67,223.47,348.25,221.38Z" style="fill:#ebebeb"></path><path d="M378.91,189.09a8.8,8.8,0,0,0,.28-1.82c.22-3.77,3.82-3.17,6.88-3.68,2.39-.4-3.94-6.44.88-8.38a4.25,4.25,0,0,0,2.32-1.62,2.73,2.73,0,0,0-1-3.35,6.47,6.47,0,0,0-3.65-.91c-.79-1-.15-2.4.61-3.37s1.69-2.09,1.4-3.29c-.43-1.82-3-1.88-4.81-1.53-.67-1.1-.66-2.47-1-3.72s-1.32-2.56-2.6-2.4-1.94,1.51-3.13,1.79c-1.37.32-2.56-.89-3.64-1.8s-3-1.48-3.7-.28c-.45.71-.18,1.72-.64,2.42-.81,1.23-2.7.47-3.88-.4s-3.06-1.66-3.89-.45a5,5,0,0,0-.45,1.26c-.56,1.61-2.3,2.41-3.66,3.44s-2.42,3.09-1.28,4.35c.57.62,1.56.87,1.84,1.66.35,1-.66,1.88-1.46,2.56-1.33,1.13-1.57,4.52.19,5.44.74.39,1.82.51,2,1.33s-.58,1.29-1.07,1.86a3.5,3.5,0,0,0,1.07,5.21c.42.2.94.36,1.1.81a1.67,1.67,0,0,1-.1,1,5,5,0,0,0-.17,1.89.84.84,0,0,0,.23.59.81.81,0,0,0,.55.15c2.55.12,3.77-.78,5.32,1.43a1.89,1.89,0,0,0,.53.56,1.69,1.69,0,0,0,.7.18c1.75.14,2.89-.95,4.49-1.15,2.22-.29,2.69.86,4.64,1.78C376.85,192.07,378.34,191.18,378.91,189.09Z" style="fill:#ebebeb"></path><path d="M404,190.37a8.7,8.7,0,0,0,.28-1.82c.22-3.76,3.82-3.17,6.88-3.68,2.39-.4-3.94-6.44.88-8.38a4.2,4.2,0,0,0,2.32-1.62,2.73,2.73,0,0,0-1.05-3.35,6.47,6.47,0,0,0-3.65-.91c-.79-1-.15-2.4.61-3.37s1.69-2.09,1.4-3.29c-.43-1.82-3-1.88-4.81-1.53-.67-1.1-.66-2.47-1-3.72s-1.32-2.56-2.6-2.4-2,1.51-3.13,1.79c-1.37.32-2.56-.89-3.64-1.8s-3-1.48-3.7-.28c-.45.72-.18,1.72-.64,2.43-.81,1.22-2.7.46-3.88-.41s-3.06-1.66-3.89-.45a5,5,0,0,0-.45,1.26c-.56,1.61-2.3,2.41-3.66,3.44s-2.42,3.09-1.28,4.35c.57.62,1.56.87,1.84,1.66.35,1-.66,1.88-1.46,2.56-1.33,1.13-1.57,4.52.19,5.44.74.39,1.82.51,2,1.33s-.58,1.29-1.07,1.86a3.5,3.5,0,0,0,1.07,5.21c.42.2.94.36,1.1.81a1.67,1.67,0,0,1-.1,1,5,5,0,0,0-.17,1.89.84.84,0,0,0,.23.59.87.87,0,0,0,.55.16c2.55.11,3.77-.79,5.32,1.42a1.89,1.89,0,0,0,.53.56,1.55,1.55,0,0,0,.7.18c1.75.14,2.89-.95,4.49-1.15,2.22-.28,2.69.86,4.64,1.78C401.89,193.35,403.38,192.46,404,190.37Z" style="fill:#ebebeb"></path><path d="M419.16,200.61a8.6,8.6,0,0,0,.28-1.81c.22-3.77,3.82-3.17,6.88-3.68,2.39-.4-3.94-6.44.88-8.39a4.2,4.2,0,0,0,2.32-1.62,2.72,2.72,0,0,0-1-3.34,6.49,6.49,0,0,0-3.66-.92c-.78-.95-.14-2.39.62-3.36s1.69-2.09,1.4-3.29c-.43-1.82-3-1.89-4.81-1.53-.67-1.1-.66-2.47-1-3.72s-1.32-2.56-2.6-2.4-1.95,1.51-3.13,1.79c-1.37.32-2.56-.89-3.64-1.81s-3-1.48-3.71-.28c-.44.72-.17,1.72-.64,2.43-.8,1.23-2.69.47-3.87-.4s-3.06-1.66-3.89-.45a5.26,5.26,0,0,0-.46,1.26c-.55,1.61-2.29,2.41-3.65,3.44s-2.42,3.08-1.28,4.34c.57.62,1.56.88,1.84,1.67.35,1-.66,1.87-1.46,2.55-1.33,1.14-1.57,4.53.19,5.45.74.39,1.82.51,2,1.33s-.58,1.29-1.07,1.85a3.5,3.5,0,0,0,1.07,5.21c.42.21.94.37,1.1.81a1.63,1.63,0,0,1-.11,1,5.18,5.18,0,0,0-.16,1.88.9.9,0,0,0,.22.6,1,1,0,0,0,.56.15c2.54.12,3.77-.78,5.32,1.43a1.89,1.89,0,0,0,.53.56,1.69,1.69,0,0,0,.7.18c1.75.14,2.89-.95,4.49-1.15,2.22-.29,2.69.86,4.64,1.77C417.1,203.6,418.59,202.71,419.16,200.61Z" style="fill:#ebebeb"></path><path d="M414.55,213.57s-6.36,9-8.55,11.84S392.84,246,391.35,257.78c-.16,1.25-.32,2.33-.47,3.28,4.71,31.13,4,88.1,3.81,97.85H379.74c-.14-11-1.4-111.52-1.87-114.59-.5-3.25-6.75-15.62-16.4-20.7s-18-21.9-18-21.9h3.08s5.7,10.31,13.82,16A31.59,31.59,0,0,0,364,219.9a51.83,51.83,0,0,1,3.23-18.18l1.66,1.54c-2.25,9.18-1.95,15.06-1.27,18.44a33.28,33.28,0,0,1,8.39,5.61c8.42-10.94,13.15-36,13.15-36l2.16,1.18a126.56,126.56,0,0,1-2.79,15.35c-1.57,6.48-6.22,18.68-8.38,24.22A57.24,57.24,0,0,1,386.54,244a5.49,5.49,0,0,1,.81-1c5.49-4.95,15.8-28.38,15.8-28.38,2.49-5.44-1.32-19.74-1.32-19.74h2.88L406,207.43l7.24-7.9,1.31,1.1-7.67,9.87L402.93,223l10.31-11.41Z" style="fill:#e6e6e6"></path><path d="M74.49,224.54a8.63,8.63,0,0,1-.27-1.81c-.23-3.77-3.82-3.17-6.88-3.68-2.39-.4,3.94-6.44-.88-8.39A4.23,4.23,0,0,1,64.13,209a2.75,2.75,0,0,1,1.05-3.34,6.49,6.49,0,0,1,3.66-.92c.79-.95.15-2.39-.61-3.37s-1.7-2.08-1.41-3.29c.44-1.81,3-1.88,4.81-1.52.68-1.1.67-2.48,1-3.72s1.33-2.56,2.61-2.4,1.94,1.51,3.12,1.78c1.38.33,2.57-.89,3.64-1.8s3-1.48,3.71-.28c.44.72.18,1.72.64,2.43.8,1.23,2.7.47,3.88-.4s3-1.66,3.88-.45a4.86,4.86,0,0,1,.46,1.26c.56,1.6,2.3,2.41,3.65,3.44s2.43,3.08,1.28,4.34c-.56.62-1.56.87-1.84,1.67-.35,1,.66,1.87,1.46,2.55,1.33,1.13,1.57,4.52-.19,5.45-.74.39-1.82.51-2,1.32s.58,1.3,1.07,1.86a3.5,3.5,0,0,1-1.07,5.21c-.42.2-.94.37-1.1.81a1.7,1.7,0,0,0,.1,1,5.19,5.19,0,0,1,.17,1.88.87.87,0,0,1-.23.59.9.9,0,0,1-.56.16c-2.54.11-3.77-.79-5.32,1.43a1.77,1.77,0,0,1-.53.56,1.68,1.68,0,0,1-.7.17c-1.75.15-2.89-.94-4.49-1.15-2.21-.28-2.68.86-4.63,1.78C76.56,227.52,75.07,226.64,74.49,224.54Z" style="fill:#ebebeb"></path><path d="M103.77,221.38a8.59,8.59,0,0,1-.28-1.82c-.22-3.76-3.82-3.17-6.87-3.68-2.39-.4,3.93-6.43-.89-8.38a4.24,4.24,0,0,1-2.32-1.62,2.73,2.73,0,0,1,1-3.34,6.41,6.41,0,0,1,3.66-.92c.78-1,.14-2.39-.62-3.37s-1.69-2.09-1.4-3.29c.43-1.82,3-1.88,4.81-1.53.68-1.1.66-2.47,1-3.72s1.32-2.55,2.6-2.4,2,1.51,3.13,1.79c1.37.32,2.56-.89,3.64-1.8s3-1.48,3.71-.28c.44.72.18,1.72.64,2.43.8,1.22,2.7.46,3.87-.41s3.06-1.66,3.89-.45a5.42,5.42,0,0,1,.46,1.26c.55,1.61,2.29,2.41,3.65,3.44s2.43,3.09,1.28,4.35c-.57.62-1.56.87-1.84,1.66-.35,1,.66,1.88,1.46,2.56,1.33,1.13,1.57,4.52-.19,5.45-.74.39-1.82.51-2,1.32s.57,1.3,1.07,1.86a3.51,3.51,0,0,1-1.07,5.21c-.43.2-1,.37-1.1.81a1.59,1.59,0,0,0,.1,1,5.24,5.24,0,0,1,.17,1.89.89.89,0,0,1-.23.59.9.9,0,0,1-.56.16c-2.54.11-3.77-.79-5.32,1.42a1.78,1.78,0,0,1-.53.56,1.55,1.55,0,0,1-.7.18c-1.75.14-2.89-.95-4.49-1.15-2.21-.28-2.68.86-4.64,1.78C105.83,224.36,104.35,223.47,103.77,221.38Z" style="fill:#ebebeb"></path><path d="M106.59,202.73a8.63,8.63,0,0,1-.27-1.81c-.23-3.77-3.82-3.17-6.88-3.68-2.39-.4,3.94-6.44-.88-8.39a4.23,4.23,0,0,1-2.33-1.62,2.75,2.75,0,0,1,1-3.34,6.49,6.49,0,0,1,3.66-.92c.78-.95.15-2.39-.62-3.36s-1.69-2.09-1.4-3.29c.44-1.82,3-1.89,4.81-1.53.68-1.1.66-2.47,1-3.72s1.32-2.56,2.61-2.4,1.94,1.51,3.12,1.79c1.38.32,2.57-.9,3.64-1.81s3-1.48,3.71-.28c.44.72.18,1.72.64,2.43.8,1.23,2.7.47,3.88-.4s3.05-1.66,3.88-.45a4.86,4.86,0,0,1,.46,1.26c.56,1.61,2.3,2.41,3.65,3.44s2.43,3.08,1.28,4.34c-.56.62-1.56.88-1.84,1.67-.35,1,.66,1.87,1.46,2.55,1.33,1.14,1.57,4.53-.19,5.45-.74.39-1.82.51-2,1.33s.58,1.29,1.07,1.85a3.5,3.5,0,0,1-1.07,5.21c-.43.21-1,.37-1.1.81a1.7,1.7,0,0,0,.1,1,5.19,5.19,0,0,1,.17,1.88.91.91,0,0,1-.23.6,1,1,0,0,1-.56.15c-2.54.12-3.77-.78-5.32,1.43a1.77,1.77,0,0,1-.53.56,1.68,1.68,0,0,1-.7.17c-1.75.15-2.89-.94-4.49-1.15-2.21-.28-2.68.86-4.63,1.78C108.65,205.72,107.17,204.83,106.59,202.73Z" style="fill:#ebebeb"></path><path d="M125.88,212a8.6,8.6,0,0,1-.28-1.81c-.22-3.77-3.82-3.17-6.88-3.69-2.39-.39,3.94-6.43-.88-8.38a4.2,4.2,0,0,1-2.32-1.62,2.72,2.72,0,0,1,1-3.34,6.48,6.48,0,0,1,3.65-.92c.79-.95.15-2.39-.61-3.37s-1.69-2.08-1.4-3.29c.43-1.81,3-1.88,4.81-1.53.67-1.09.66-2.47,1-3.71s1.32-2.56,2.6-2.41,2,1.51,3.13,1.79c1.37.33,2.56-.89,3.64-1.8s3-1.48,3.7-.28c.45.72.18,1.72.64,2.43.81,1.23,2.7.46,3.88-.41s3.06-1.65,3.89-.45a5,5,0,0,1,.45,1.26c.56,1.61,2.3,2.41,3.66,3.45s2.42,3.08,1.28,4.34c-.57.62-1.56.87-1.84,1.66-.36,1,.66,1.88,1.46,2.56,1.33,1.13,1.57,4.52-.19,5.45-.74.39-1.82.51-2,1.32s.58,1.3,1.07,1.86a3.5,3.5,0,0,1-1.07,5.21c-.42.2-.94.37-1.1.81a1.66,1.66,0,0,0,.1,1,5,5,0,0,1,.17,1.89.82.82,0,0,1-.23.59.87.87,0,0,1-.55.16c-2.55.11-3.77-.79-5.32,1.42a1.81,1.81,0,0,1-.53.57,1.68,1.68,0,0,1-.7.17c-1.75.15-2.89-1-4.49-1.15-2.22-.28-2.69.86-4.64,1.78C127.94,215,126.45,214.11,125.88,212Z" style="fill:#ebebeb"></path><path d="M145.37,207.73a8.6,8.6,0,0,1-.28-1.81c-.22-3.77-3.82-3.17-6.88-3.68-2.39-.4,3.94-6.44-.88-8.39a4.24,4.24,0,0,1-2.32-1.62,2.74,2.74,0,0,1,1.05-3.34,6.49,6.49,0,0,1,3.66-.92c.78-.95.14-2.39-.62-3.37s-1.69-2.08-1.4-3.29c.43-1.81,3-1.88,4.81-1.53.68-1.09.66-2.47,1-3.71s1.32-2.56,2.6-2.4,2,1.5,3.13,1.78c1.37.33,2.56-.89,3.64-1.8s3-1.48,3.71-.28c.44.72.17,1.72.64,2.43.8,1.23,2.7.46,3.87-.4s3.06-1.66,3.89-.46a5.42,5.42,0,0,1,.46,1.26c.55,1.61,2.29,2.42,3.65,3.45s2.43,3.08,1.28,4.34c-.57.62-1.56.87-1.84,1.67-.35,1,.66,1.87,1.46,2.55,1.33,1.13,1.57,4.52-.19,5.45-.74.39-1.82.51-2,1.32s.57,1.3,1.06,1.86a3.5,3.5,0,0,1-1.07,5.21c-.42.2-.94.37-1.09.81a1.59,1.59,0,0,0,.1,1,5.26,5.26,0,0,1,.17,1.89.87.87,0,0,1-.23.59.9.9,0,0,1-.56.16c-2.54.11-3.77-.79-5.32,1.43a1.89,1.89,0,0,1-.53.56,1.68,1.68,0,0,1-.7.17c-1.75.15-2.89-.94-4.49-1.15-2.22-.28-2.68.86-4.64,1.78C147.43,210.71,145.94,209.82,145.37,207.73Z" style="fill:#ebebeb"></path><path d="M145.62,228.58a7.32,7.32,0,0,1-.21-1.43c-.18-3-3-2.49-5.42-2.9-1.88-.31,3.1-5.06-.69-6.6a3.28,3.28,0,0,1-1.83-1.27,2.15,2.15,0,0,1,.82-2.63,5,5,0,0,1,2.88-.73c.62-.75.12-1.88-.48-2.65s-1.33-1.64-1.11-2.59c.35-1.43,2.35-1.48,3.79-1.2a10.65,10.65,0,0,0,.78-2.93c.26-1,1-2,2-1.89s1.53,1.19,2.46,1.41c1.08.25,2-.71,2.87-1.42s2.33-1.17,2.92-.22c.35.56.14,1.35.5,1.91.63,1,2.13.36,3.05-.32s2.41-1.31,3.06-.35a3.66,3.66,0,0,1,.36,1c.44,1.26,1.81,1.9,2.88,2.71s1.91,2.43,1,3.42c-.45.49-1.23.69-1.45,1.31-.28.78.52,1.48,1.15,2,1.05.89,1.24,3.56-.15,4.29-.58.31-1.44.4-1.58,1s.46,1,.84,1.47a2.75,2.75,0,0,1-.84,4.1c-.33.16-.74.29-.86.64a1.28,1.28,0,0,0,.07.77,3.94,3.94,0,0,1,.14,1.49.68.68,0,0,1-.18.46.76.76,0,0,1-.44.13c-2,.09-3-.62-4.19,1.12a1.36,1.36,0,0,1-.42.44,1.28,1.28,0,0,1-.55.14c-1.38.11-2.28-.75-3.53-.91-1.75-.22-2.12.68-3.65,1.4C147.25,230.93,146.08,230.23,145.62,228.58Z" style="fill:#ebebeb"></path><path d="M156.54,221.38a9.33,9.33,0,0,1-.27-1.82c-.22-3.76-3.82-3.17-6.88-3.68-2.39-.4,3.94-6.43-.88-8.38a4.23,4.23,0,0,1-2.33-1.62,2.74,2.74,0,0,1,1-3.34,6.45,6.45,0,0,1,3.66-.92c.79-1,.15-2.39-.61-3.37s-1.69-2.09-1.41-3.29c.44-1.82,3-1.88,4.81-1.53.68-1.1.67-2.47,1-3.72s1.32-2.55,2.6-2.4,1.94,1.51,3.13,1.79c1.37.32,2.56-.89,3.64-1.8s3-1.48,3.7-.28c.45.72.18,1.72.64,2.43.8,1.22,2.7.46,3.88-.41s3.06-1.66,3.89-.45a5,5,0,0,1,.45,1.26c.56,1.61,2.3,2.41,3.65,3.44s2.43,3.09,1.29,4.35c-.57.62-1.57.87-1.85,1.66-.35,1,.66,1.88,1.46,2.56,1.33,1.13,1.58,4.52-.18,5.45-.74.39-1.83.51-2,1.32s.58,1.3,1.07,1.86A3.5,3.5,0,0,1,179,215.7c-.42.2-.94.37-1.1.81a1.67,1.67,0,0,0,.1,1,5.24,5.24,0,0,1,.17,1.89.84.84,0,0,1-.23.59.9.9,0,0,1-.56.16c-2.54.11-3.76-.79-5.32,1.42a1.58,1.58,0,0,1-.53.56,1.52,1.52,0,0,1-.7.18c-1.74.14-2.89-.95-4.48-1.15-2.22-.28-2.69.86-4.64,1.78C158.61,224.36,157.12,223.47,156.54,221.38Z" style="fill:#ebebeb"></path><path d="M125.88,189.09a8.8,8.8,0,0,1-.28-1.82c-.22-3.77-3.82-3.17-6.88-3.68-2.39-.4,3.94-6.44-.88-8.38a4.25,4.25,0,0,1-2.32-1.62,2.73,2.73,0,0,1,1-3.35,6.47,6.47,0,0,1,3.65-.91c.79-1,.15-2.4-.61-3.37s-1.69-2.09-1.4-3.29c.43-1.82,3-1.88,4.81-1.53.67-1.1.66-2.47,1-3.72s1.32-2.56,2.6-2.4,2,1.51,3.13,1.79c1.37.32,2.56-.89,3.64-1.8s3-1.48,3.7-.28c.45.71.18,1.72.64,2.42.81,1.23,2.7.47,3.88-.4s3.06-1.66,3.89-.45a5,5,0,0,1,.45,1.26c.56,1.61,2.3,2.41,3.66,3.44s2.42,3.09,1.28,4.35c-.57.62-1.56.87-1.84,1.66-.36,1,.66,1.88,1.46,2.56,1.33,1.13,1.57,4.52-.19,5.44-.74.39-1.82.51-2,1.33s.58,1.29,1.07,1.86a3.5,3.5,0,0,1-1.07,5.21c-.42.2-.94.36-1.1.81a1.67,1.67,0,0,0,.1,1,5,5,0,0,1,.17,1.89.84.84,0,0,1-.23.59.81.81,0,0,1-.55.15c-2.55.12-3.77-.78-5.32,1.43a1.89,1.89,0,0,1-.53.56,1.69,1.69,0,0,1-.7.18c-1.75.14-2.89-.95-4.49-1.15-2.22-.29-2.69.86-4.64,1.78C127.94,192.07,126.45,191.18,125.88,189.09Z" style="fill:#ebebeb"></path><path d="M100.84,190.37a8.7,8.7,0,0,1-.28-1.82c-.22-3.76-3.82-3.17-6.88-3.68-2.39-.4,3.94-6.44-.88-8.38a4.2,4.2,0,0,1-2.32-1.62,2.73,2.73,0,0,1,1-3.35,6.47,6.47,0,0,1,3.65-.91c.79-1,.15-2.4-.61-3.37s-1.69-2.09-1.4-3.29c.43-1.82,3-1.88,4.81-1.53.67-1.1.66-2.47,1-3.72s1.32-2.56,2.6-2.4,2,1.51,3.13,1.79c1.37.32,2.56-.89,3.64-1.8s3-1.48,3.7-.28c.45.72.18,1.72.64,2.43.81,1.22,2.7.46,3.88-.41s3.06-1.66,3.89-.45a5,5,0,0,1,.45,1.26c.56,1.61,2.3,2.41,3.66,3.44s2.42,3.09,1.28,4.35c-.57.62-1.56.87-1.84,1.66-.35,1,.66,1.88,1.46,2.56,1.33,1.13,1.57,4.52-.19,5.44-.74.39-1.82.51-2,1.33s.58,1.29,1.07,1.86a3.5,3.5,0,0,1-1.07,5.21c-.42.2-.94.36-1.1.81a1.67,1.67,0,0,0,.1,1,5,5,0,0,1,.17,1.89.84.84,0,0,1-.23.59.87.87,0,0,1-.55.16c-2.55.11-3.77-.79-5.32,1.42a1.89,1.89,0,0,1-.53.56,1.55,1.55,0,0,1-.7.18c-1.75.14-2.89-.95-4.49-1.15-2.22-.28-2.69.86-4.64,1.78C102.9,193.35,101.41,192.46,100.84,190.37Z" style="fill:#ebebeb"></path><path d="M85.63,200.61a8.6,8.6,0,0,1-.28-1.81c-.22-3.77-3.82-3.17-6.88-3.68-2.39-.4,3.94-6.44-.88-8.39a4.24,4.24,0,0,1-2.32-1.62,2.72,2.72,0,0,1,1-3.34,6.49,6.49,0,0,1,3.66-.92c.78-.95.14-2.39-.62-3.36s-1.69-2.09-1.4-3.29c.43-1.82,3-1.89,4.81-1.53.67-1.1.66-2.47,1-3.72s1.32-2.56,2.6-2.4,2,1.51,3.13,1.79c1.37.32,2.56-.89,3.64-1.81s3-1.48,3.71-.28c.44.72.17,1.72.64,2.43.8,1.23,2.69.47,3.87-.4s3.06-1.66,3.89-.45a5.26,5.26,0,0,1,.46,1.26c.55,1.61,2.29,2.41,3.65,3.44s2.42,3.08,1.28,4.34c-.57.62-1.56.88-1.84,1.67-.35,1,.66,1.87,1.46,2.55,1.33,1.14,1.57,4.53-.19,5.45-.74.39-1.82.51-2,1.33s.58,1.29,1.07,1.85a3.5,3.5,0,0,1-1.07,5.21c-.42.21-.94.37-1.1.81a1.63,1.63,0,0,0,.11,1,5.18,5.18,0,0,1,.16,1.88.9.9,0,0,1-.22.6,1,1,0,0,1-.56.15c-2.54.12-3.77-.78-5.32,1.43a1.89,1.89,0,0,1-.53.56,1.69,1.69,0,0,1-.7.18c-1.75.14-2.89-.95-4.49-1.15-2.22-.29-2.69.86-4.64,1.77C87.69,203.6,86.2,202.71,85.63,200.61Z" style="fill:#ebebeb"></path><path d="M90.24,213.57s6.36,9,8.55,11.84S112,246,113.44,257.78c.16,1.25.32,2.33.47,3.28-4.71,31.13-4,88.1-3.81,97.85h15c.13-11,1.4-111.52,1.87-114.59.5-3.25,6.75-15.62,16.4-20.7s18-21.9,18-21.9h-3.08s-5.7,10.31-13.82,16a30.76,30.76,0,0,1-3.65,2.17,51.83,51.83,0,0,0-3.23-18.18l-1.66,1.54c2.25,9.18,1.95,15.06,1.27,18.44a33.28,33.28,0,0,0-8.39,5.61c-8.42-10.94-13.15-36-13.15-36l-2.16,1.18a129,129,0,0,0,2.79,15.35c1.58,6.48,6.22,18.68,8.38,24.22A57.24,57.24,0,0,0,118.25,244a5.49,5.49,0,0,0-.81-1c-5.49-4.95-15.8-28.38-15.8-28.38-2.49-5.44,1.32-19.74,1.32-19.74h-2.88l-1.29,12.51-7.24-7.9-1.31,1.1,7.67,9.87,4,12.5L91.55,211.59Z" style="fill:#e6e6e6"></path><path d="M240.11,272.79a5.22,5.22,0,0,0,.19-1.26c.16-2.61,2.65-2.2,4.77-2.55,1.66-.28-2.73-4.46.62-5.81A3,3,0,0,0,247.3,262a1.91,1.91,0,0,0-.73-2.32,4.52,4.52,0,0,0-2.54-.63c-.54-.66-.1-1.66.43-2.34s1.17-1.44,1-2.28c-.3-1.26-2.06-1.3-3.33-1.06a9.18,9.18,0,0,1-.69-2.58c-.23-.86-.92-1.77-1.81-1.66s-1.34,1.05-2.16,1.24-1.78-.62-2.53-1.25-2-1-2.57-.2c-.31.5-.12,1.2-.44,1.69-.56.85-1.87.32-2.69-.28s-2.12-1.15-2.69-.31a3.24,3.24,0,0,0-.32.87c-.39,1.12-1.59,1.67-2.53,2.39s-1.69,2.14-.89,3c.39.43,1.08.6,1.28,1.15s-.46,1.3-1,1.77c-.92.79-1.09,3.14.13,3.78.52.27,1.27.35,1.39.92s-.4.9-.74,1.29a2.43,2.43,0,0,0,.74,3.61c.3.14.66.26.77.56a1.23,1.23,0,0,1-.07.68,3.63,3.63,0,0,0-.12,1.31.56.56,0,0,0,.16.41.57.57,0,0,0,.38.11c1.77.08,2.62-.54,3.69,1a1.38,1.38,0,0,0,.37.39,1.18,1.18,0,0,0,.49.12c1.21.1,2-.66,3.11-.8,1.53-.19,1.86.6,3.21,1.24C238.68,274.86,239.71,274.24,240.11,272.79Z" style="fill:#ebebeb"></path><path d="M219.81,270.6a5.29,5.29,0,0,0,.19-1.26c.16-2.61,2.65-2.2,4.77-2.55,1.66-.28-2.73-4.47.61-5.82a2.92,2.92,0,0,0,1.62-1.12,1.91,1.91,0,0,0-.73-2.32,4.44,4.44,0,0,0-2.54-.63c-.54-.67-.1-1.66.43-2.34s1.17-1.45,1-2.28c-.3-1.26-2.06-1.31-3.33-1.06a9.18,9.18,0,0,1-.69-2.58c-.23-.86-.92-1.77-1.81-1.66s-1.34,1-2.16,1.24-1.78-.62-2.53-1.25-2.05-1-2.57-.2c-.31.5-.12,1.19-.44,1.69-.56.85-1.87.32-2.69-.29s-2.12-1.14-2.69-.31a3.31,3.31,0,0,0-.32.88c-.39,1.11-1.59,1.67-2.53,2.38s-1.69,2.14-.89,3c.39.44,1.08.61,1.28,1.16s-.46,1.3-1,1.77c-.92.79-1.09,3.14.13,3.78.52.27,1.27.35,1.39.92s-.4.9-.74,1.29a2.43,2.43,0,0,0,.74,3.61c.3.14.66.25.77.56a1.23,1.23,0,0,1-.07.68,3.61,3.61,0,0,0-.12,1.31.56.56,0,0,0,.16.41.63.63,0,0,0,.38.11c1.77.08,2.62-.55,3.69,1a1.38,1.38,0,0,0,.37.39,1.36,1.36,0,0,0,.49.12c1.21.1,2-.66,3.11-.8,1.53-.2,1.86.6,3.21,1.23C218.38,272.66,219.41,272.05,219.81,270.6Z" style="fill:#ebebeb"></path><path d="M217.86,257.67a6.43,6.43,0,0,0,.19-1.26c.15-2.61,2.65-2.2,4.77-2.55,1.66-.28-2.73-4.47.61-5.82a2.93,2.93,0,0,0,1.61-1.12,1.89,1.89,0,0,0-.73-2.32,4.42,4.42,0,0,0-2.53-.63c-.55-.67-.11-1.66.42-2.34s1.18-1.45,1-2.28c-.31-1.26-2.07-1.3-3.34-1.06a9.18,9.18,0,0,1-.69-2.58c-.23-.86-.91-1.77-1.8-1.66s-1.35,1-2.17,1.24-1.78-.62-2.52-1.25-2.06-1-2.57-.2c-.31.5-.13,1.2-.45,1.69-.55.85-1.87.32-2.69-.28s-2.12-1.15-2.69-.32a3.31,3.31,0,0,0-.32.88c-.38,1.11-1.59,1.67-2.53,2.38s-1.68,2.14-.89,3c.39.43,1.08.6,1.28,1.15s-.46,1.3-1,1.77c-.93.79-1.09,3.14.13,3.78.51.27,1.26.35,1.39.92s-.4.9-.74,1.29a2.42,2.42,0,0,0,.74,3.61c.29.14.65.25.76.56a1.14,1.14,0,0,1-.07.68,3.63,3.63,0,0,0-.12,1.31.65.65,0,0,0,.16.41.64.64,0,0,0,.39.11c1.76.08,2.61-.55,3.69,1a1.23,1.23,0,0,0,.36.39,1.18,1.18,0,0,0,.49.12c1.21.1,2-.66,3.11-.8,1.54-.19,1.86.6,3.22,1.23C216.43,259.74,217.46,259.12,217.86,257.67Z" style="fill:#ebebeb"></path><path d="M204.49,264.11a6.43,6.43,0,0,0,.19-1.26c.15-2.61,2.64-2.2,4.77-2.55,1.65-.28-2.74-4.47.61-5.82a2.93,2.93,0,0,0,1.61-1.12,1.91,1.91,0,0,0-.73-2.32,4.44,4.44,0,0,0-2.54-.63c-.54-.67-.1-1.66.43-2.34s1.17-1.45,1-2.28c-.3-1.26-2.06-1.31-3.33-1.06a9.18,9.18,0,0,1-.69-2.58c-.23-.86-.92-1.77-1.8-1.66s-1.35,1-2.17,1.24-1.78-.62-2.53-1.25-2.05-1-2.57-.2c-.3.5-.12,1.2-.44,1.69-.56.85-1.87.32-2.69-.28s-2.12-1.15-2.69-.32a3.31,3.31,0,0,0-.32.88c-.39,1.11-1.59,1.67-2.53,2.38s-1.69,2.14-.89,3c.39.43,1.08.6,1.28,1.15s-.46,1.3-1,1.77c-.92.79-1.09,3.14.13,3.78.52.27,1.27.35,1.39.92s-.4.9-.74,1.29a2.43,2.43,0,0,0,.75,3.61c.29.14.65.25.76.56a1.23,1.23,0,0,1-.07.68,3.63,3.63,0,0,0-.12,1.31.56.56,0,0,0,.16.41.64.64,0,0,0,.39.11c1.76.08,2.61-.55,3.68,1a1.38,1.38,0,0,0,.37.39,1.18,1.18,0,0,0,.49.12c1.21.1,2-.66,3.11-.8,1.54-.19,1.86.6,3.21,1.23C203.05,266.18,204.09,265.56,204.49,264.11Z" style="fill:#ebebeb"></path><path d="M191,261.13a6.43,6.43,0,0,0,.19-1.26c.16-2.61,2.65-2.19,4.77-2.55,1.66-.27-2.73-4.46.61-5.81a2.94,2.94,0,0,0,1.61-1.12,1.9,1.9,0,0,0-.72-2.32,4.56,4.56,0,0,0-2.54-.64c-.55-.66-.1-1.66.42-2.33s1.18-1.45,1-2.28c-.3-1.26-2.06-1.31-3.34-1.06a9.37,9.37,0,0,1-.69-2.58c-.22-.87-.91-1.78-1.8-1.67s-1.35,1.05-2.17,1.24-1.78-.62-2.52-1.25-2.06-1-2.57-.19c-.31.5-.13,1.19-.45,1.68-.55.85-1.87.32-2.68-.28s-2.12-1.15-2.7-.31a3.76,3.76,0,0,0-.31.87c-.39,1.12-1.6,1.67-2.54,2.39s-1.68,2.14-.89,3c.4.43,1.09.61,1.28,1.16s-.46,1.3-1,1.77c-.92.78-1.09,3.13.13,3.78.51.27,1.26.35,1.39.91s-.4.9-.74,1.29a2.42,2.42,0,0,0,.74,3.61c.29.14.65.26.76.57a1.15,1.15,0,0,1-.07.68,3.61,3.61,0,0,0-.12,1.31.65.65,0,0,0,.16.41.66.66,0,0,0,.39.11c1.76.07,2.61-.55,3.69,1a1.15,1.15,0,0,0,.37.39,1,1,0,0,0,.48.12c1.21.1,2-.65,3.11-.79,1.54-.2,1.87.59,3.22,1.23C189.54,263.2,190.57,262.58,191,261.13Z" style="fill:#ebebeb"></path><path d="M190.79,275.59a4.69,4.69,0,0,0,.15-1c.13-2.06,2.09-1.73,3.76-2,1.3-.22-2.15-3.51.48-4.58a2.34,2.34,0,0,0,1.27-.88,1.5,1.5,0,0,0-.57-1.83,3.61,3.61,0,0,0-2-.5c-.43-.52-.08-1.3.33-1.84s.93-1.14.77-1.79c-.24-1-1.62-1-2.62-.84a7.25,7.25,0,0,1-.55-2c-.18-.68-.72-1.39-1.42-1.31s-1.06.83-1.7,1-1.4-.49-2-1-1.62-.8-2-.15c-.24.39-.09.94-.34,1.33-.44.67-1.48.25-2.12-.22s-1.67-.91-2.12-.25a2.71,2.71,0,0,0-.25.69c-.31.88-1.26,1.31-2,1.88s-1.32,1.68-.7,2.37c.31.34.86.48,1,.91s-.36,1-.8,1.39c-.72.62-.86,2.47.1,3,.41.21,1,.27,1.1.72s-.32.71-.58,1a1.91,1.91,0,0,0,.58,2.85c.23.11.51.2.6.44a.93.93,0,0,1-.06.54,3,3,0,0,0-.09,1,.46.46,0,0,0,.13.32.51.51,0,0,0,.3.09c1.39.06,2.06-.43,2.91.78a.92.92,0,0,0,.29.3.83.83,0,0,0,.38.1c1,.08,1.58-.52,2.45-.63,1.21-.15,1.46.47,2.53,1C189.67,277.22,190.48,276.73,190.79,275.59Z" style="fill:#ebebeb"></path><path d="M183.22,270.6a6.55,6.55,0,0,0,.19-1.26c.16-2.61,2.65-2.2,4.77-2.55,1.66-.28-2.73-4.47.61-5.82a2.9,2.9,0,0,0,1.61-1.12,1.9,1.9,0,0,0-.72-2.32,4.48,4.48,0,0,0-2.54-.63c-.55-.67-.1-1.66.43-2.34s1.17-1.45,1-2.28c-.3-1.26-2.06-1.31-3.34-1.06a8.85,8.85,0,0,1-.68-2.58c-.23-.86-.92-1.77-1.81-1.66s-1.35,1-2.17,1.24-1.77-.62-2.52-1.25-2.06-1-2.57-.2c-.31.5-.12,1.19-.44,1.69-.56.85-1.88.32-2.69-.29s-2.12-1.14-2.7-.31a3.67,3.67,0,0,0-.31.88c-.39,1.11-1.6,1.67-2.54,2.38s-1.68,2.14-.88,3c.39.44,1.08.61,1.27,1.16s-.46,1.3-1,1.77c-.92.79-1.09,3.14.13,3.78.51.27,1.26.35,1.39.92s-.4.9-.74,1.29a2.42,2.42,0,0,0,.74,3.61c.29.14.65.25.76.56a1.07,1.07,0,0,1-.07.68,3.4,3.4,0,0,0-.11,1.31.59.59,0,0,0,.15.41.66.66,0,0,0,.39.11c1.76.08,2.61-.55,3.69,1a1.25,1.25,0,0,0,.37.39,1.31,1.31,0,0,0,.48.12c1.22.1,2-.66,3.11-.8,1.54-.2,1.87.6,3.22,1.23C181.79,272.66,182.82,272.05,183.22,270.6Z" style="fill:#ebebeb"></path><path d="M204.49,248.21a6.55,6.55,0,0,0,.19-1.26c.15-2.62,2.64-2.2,4.77-2.56,1.65-.27-2.74-4.46.61-5.81a2.93,2.93,0,0,0,1.61-1.12,1.91,1.91,0,0,0-.73-2.32,4.52,4.52,0,0,0-2.54-.64c-.54-.66-.1-1.66.43-2.33s1.17-1.45,1-2.28c-.3-1.26-2.06-1.31-3.33-1.06a9.27,9.27,0,0,1-.69-2.58c-.23-.87-.92-1.77-1.8-1.67s-1.35,1-2.17,1.24-1.78-.61-2.53-1.25-2.05-1-2.57-.19c-.3.5-.12,1.19-.44,1.68-.56.85-1.87.33-2.69-.28s-2.12-1.15-2.69-.31a3.31,3.31,0,0,0-.32.88c-.39,1.11-1.59,1.67-2.53,2.38s-1.69,2.14-.89,3c.39.43,1.08.61,1.28,1.16s-.46,1.3-1,1.77c-.92.79-1.09,3.14.13,3.78.52.27,1.27.35,1.39.92s-.4.89-.74,1.28a2.44,2.44,0,0,0,.75,3.62c.29.14.65.25.76.56a1.23,1.23,0,0,1-.07.68,3.61,3.61,0,0,0-.12,1.31.56.56,0,0,0,.16.41.64.64,0,0,0,.39.11c1.76.08,2.61-.55,3.68,1a1.71,1.71,0,0,0,.37.39,1.36,1.36,0,0,0,.49.12c1.21.1,2-.66,3.11-.8,1.54-.2,1.86.6,3.21,1.23C203.05,250.27,204.09,249.66,204.49,248.21Z" style="fill:#ebebeb"></path><path d="M221.85,249.09a6.43,6.43,0,0,0,.19-1.26c.15-2.61,2.65-2.19,4.77-2.55,1.65-.27-2.73-4.46.61-5.81a3,3,0,0,0,1.61-1.13,1.88,1.88,0,0,0-.73-2.31,4.51,4.51,0,0,0-2.53-.64c-.55-.66-.11-1.66.42-2.33s1.18-1.45,1-2.28c-.31-1.26-2.07-1.31-3.34-1.06a9.37,9.37,0,0,1-.69-2.58c-.23-.87-.91-1.78-1.8-1.67s-1.35,1.05-2.17,1.24-1.78-.62-2.52-1.25-2.06-1-2.57-.19c-.31.5-.13,1.19-.45,1.68-.55.85-1.87.32-2.69-.28s-2.12-1.15-2.69-.31a3.37,3.37,0,0,0-.32.87c-.38,1.12-1.59,1.67-2.53,2.39s-1.68,2.14-.89,3c.39.43,1.08.61,1.28,1.16s-.46,1.3-1,1.77c-.93.78-1.09,3.13.13,3.78.51.27,1.26.35,1.39.91s-.4.9-.74,1.29a2.42,2.42,0,0,0,.74,3.61c.29.14.65.26.76.57a1.16,1.16,0,0,1-.07.68,3.61,3.61,0,0,0-.12,1.31.65.65,0,0,0,.16.41.64.64,0,0,0,.39.11c1.76.07,2.61-.55,3.69,1a1.23,1.23,0,0,0,.36.39,1,1,0,0,0,.49.12c1.21.1,2-.65,3.11-.79,1.54-.2,1.86.59,3.22,1.23C220.42,251.16,221.45,250.54,221.85,249.09Z" style="fill:#ebebeb"></path><path d="M232.39,256.2a5.22,5.22,0,0,0,.19-1.26c.16-2.61,2.65-2.2,4.77-2.55,1.66-.28-2.73-4.47.61-5.82a3,3,0,0,0,1.62-1.12,1.91,1.91,0,0,0-.73-2.32,4.44,4.44,0,0,0-2.54-.63c-.54-.67-.1-1.66.43-2.34s1.17-1.45,1-2.28c-.3-1.26-2.06-1.3-3.33-1.06a9.18,9.18,0,0,1-.69-2.58c-.23-.86-.92-1.77-1.81-1.66s-1.34,1-2.16,1.24-1.78-.62-2.53-1.25-2.05-1-2.57-.2c-.31.5-.12,1.2-.44,1.69-.56.85-1.87.32-2.69-.28s-2.12-1.15-2.69-.32a3.31,3.31,0,0,0-.32.88c-.39,1.11-1.59,1.67-2.53,2.39s-1.69,2.13-.89,3c.39.43,1.08.6,1.27,1.15s-.45,1.3-1,1.77c-.92.79-1.09,3.14.13,3.78.52.27,1.27.35,1.39.92s-.4.9-.74,1.29a2.43,2.43,0,0,0,.74,3.61c.3.14.66.25.77.56a1.23,1.23,0,0,1-.07.68,3.63,3.63,0,0,0-.12,1.31.56.56,0,0,0,.16.41.63.63,0,0,0,.38.11c1.77.08,2.62-.55,3.69,1a1.26,1.26,0,0,0,.37.39,1.18,1.18,0,0,0,.49.12c1.21.1,2-.66,3.11-.8,1.53-.19,1.86.6,3.21,1.23C231,258.27,232,257.65,232.39,256.2Z" style="fill:#ebebeb"></path><path d="M229.2,265.18s-4.41,6.23-5.93,8.21-9.13,14.3-10.16,22.45c-.12.86-.22,1.61-.33,2.27,3.27,21.59,2.76,61.09,2.64,67.85H205.06c-.1-7.63-1-77.33-1.3-79.46s-4.68-10.83-11.37-14.35S179.92,257,179.92,257h2.13s3.95,7.14,9.58,11.1a23.35,23.35,0,0,0,2.53,1.5A35.93,35.93,0,0,1,196.4,257l1.15,1.06c-1.55,6.37-1.35,10.45-.88,12.79a23,23,0,0,1,5.82,3.89c5.84-7.59,9.12-24.95,9.12-24.95l1.5.82a89.74,89.74,0,0,1-1.93,10.65c-1.1,4.49-4.32,12.95-5.81,16.79a40,40,0,0,1,4.4,8.27,3.37,3.37,0,0,1,.57-.67c3.8-3.44,10.95-19.68,10.95-19.68,1.73-3.78-.91-13.69-.91-13.69h2l.9,8.67,5-5.47.92.76-5.33,6.84-2.73,8.67,7.14-7.91Z" style="fill:#e6e6e6"></path><path d="M143.2,101.77a4.67,4.67,0,0,1,4.67-4.67,4.52,4.52,0,0,1,1.34.2,11.35,11.35,0,0,1-.1-1.44A9.89,9.89,0,0,1,159,86a10,10,0,0,1,1.83.17,8.64,8.64,0,0,1,16,4.37H177a8,8,0,1,1,0,15.94H147.74A4.67,4.67,0,0,1,143.2,101.77Z" style="fill:#f0f0f0"></path><path d="M297.86,106.31a4.68,4.68,0,0,1,4.68-4.67,5,5,0,0,1,1.34.19,9.63,9.63,0,0,1-.11-1.43,9.89,9.89,0,0,1,11.72-9.72,8.64,8.64,0,0,1,16,4.37h.15a8,8,0,0,1,0,15.94H302.4A4.67,4.67,0,0,1,297.86,106.31Z" style="fill:#f0f0f0"></path><path d="M440,129.13a4.67,4.67,0,0,0-4.67-4.67,5,5,0,0,0-1.34.19,9.63,9.63,0,0,0,.11-1.43,9.89,9.89,0,0,0-11.72-9.72,8.64,8.64,0,0,0-16,4.37h-.15a8,8,0,1,0,0,15.94h29.26A4.67,4.67,0,0,0,440,129.13Z" style="fill:#f0f0f0"></path><path d="M71.93,118.74a2.9,2.9,0,0,1,2.9-2.9,2.94,2.94,0,0,1,.84.12,6.54,6.54,0,0,1-.07-.89,6.13,6.13,0,0,1,7.29-6,5.37,5.37,0,0,1,10,2.71h.09a5,5,0,1,1,0,9.91H74.75A2.9,2.9,0,0,1,71.93,118.74Z" style="fill:#f0f0f0"></path><path d="M240.15,133.87a2.9,2.9,0,0,0-2.91-2.9,2.82,2.82,0,0,0-.83.12,6.54,6.54,0,0,0,.06-.89,6.17,6.17,0,0,0-7.28-6,5.38,5.38,0,0,0-10,2.72h-.09a5,5,0,0,0,0,9.91h18.19A2.9,2.9,0,0,0,240.15,133.87Z" style="fill:#f0f0f0"></path><path d="M272.41,272.79a6.43,6.43,0,0,1-.19-1.26c-.15-2.61-2.65-2.2-4.77-2.55-1.65-.28,2.73-4.46-.61-5.81a3,3,0,0,1-1.61-1.13,1.91,1.91,0,0,1,.73-2.32,4.5,4.5,0,0,1,2.53-.63c.55-.66.11-1.66-.42-2.34s-1.17-1.44-1-2.28c.3-1.26,2.06-1.3,3.33-1.06a9.18,9.18,0,0,0,.69-2.58c.23-.86.91-1.77,1.8-1.66s1.35,1.05,2.17,1.24,1.78-.62,2.53-1.25,2.05-1,2.56-.2c.31.5.13,1.2.45,1.69.55.85,1.87.32,2.69-.28s2.12-1.15,2.69-.31a3.24,3.24,0,0,1,.32.87c.38,1.12,1.59,1.67,2.53,2.39s1.68,2.14.89,3c-.39.43-1.08.6-1.28,1.15s.46,1.3,1,1.77c.93.79,1.09,3.14-.13,3.78-.51.27-1.26.35-1.39.92s.4.9.75,1.29a2.42,2.42,0,0,1-.75,3.61c-.29.14-.65.26-.76.56a1.14,1.14,0,0,0,.07.68,3.63,3.63,0,0,1,.12,1.31.65.65,0,0,1-.16.41.58.58,0,0,1-.39.11c-1.76.08-2.61-.54-3.69,1a1.23,1.23,0,0,1-.36.39,1.18,1.18,0,0,1-.49.12c-1.21.1-2-.66-3.11-.8-1.54-.19-1.86.6-3.22,1.24C273.84,274.86,272.81,274.24,272.41,272.79Z" style="fill:#ebebeb"></path><path d="M292.71,270.6a6.55,6.55,0,0,1-.19-1.26c-.15-2.61-2.65-2.2-4.77-2.55-1.65-.28,2.73-4.47-.61-5.82a2.93,2.93,0,0,1-1.61-1.12,1.91,1.91,0,0,1,.73-2.32,4.42,4.42,0,0,1,2.53-.63c.55-.67.11-1.66-.42-2.34s-1.17-1.45-1-2.28c.3-1.26,2.06-1.31,3.33-1.06a9.18,9.18,0,0,0,.69-2.58c.23-.86.91-1.77,1.8-1.66s1.35,1,2.17,1.24,1.78-.62,2.53-1.25,2.05-1,2.56-.2c.31.5.13,1.19.45,1.69.55.85,1.87.32,2.69-.29s2.12-1.14,2.69-.31a3.31,3.31,0,0,1,.32.88c.38,1.11,1.59,1.67,2.53,2.38s1.68,2.14.89,3c-.39.44-1.08.61-1.28,1.16s.46,1.3,1,1.77c.93.79,1.09,3.14-.13,3.78-.51.27-1.26.35-1.39.92s.4.9.75,1.29a2.43,2.43,0,0,1-.75,3.61c-.29.14-.65.25-.76.56a1.14,1.14,0,0,0,.07.68,3.61,3.61,0,0,1,.12,1.31.65.65,0,0,1-.16.41.64.64,0,0,1-.39.11c-1.76.08-2.61-.55-3.69,1a1.34,1.34,0,0,1-.36.39,1.36,1.36,0,0,1-.49.12c-1.21.1-2-.66-3.11-.8-1.54-.2-1.86.6-3.22,1.23C294.14,272.66,293.11,272.05,292.71,270.6Z" style="fill:#ebebeb"></path><path d="M294.67,257.67a6.43,6.43,0,0,1-.19-1.26c-.16-2.61-2.65-2.2-4.77-2.55-1.66-.28,2.73-4.47-.61-5.82a2.9,2.9,0,0,1-1.61-1.12,1.9,1.9,0,0,1,.72-2.32,4.48,4.48,0,0,1,2.54-.63c.55-.67.1-1.66-.42-2.34s-1.18-1.45-1-2.28c.3-1.26,2.06-1.3,3.34-1.06a9.18,9.18,0,0,0,.69-2.58c.22-.86.91-1.77,1.8-1.66s1.35,1,2.17,1.24,1.77-.62,2.52-1.25,2.06-1,2.57-.2c.31.5.12,1.2.45,1.69.55.85,1.87.32,2.68-.28s2.12-1.15,2.7-.32a3.67,3.67,0,0,1,.31.88c.39,1.11,1.6,1.67,2.54,2.38s1.68,2.14.89,3c-.4.43-1.09.6-1.28,1.15s.46,1.3,1,1.77c.92.79,1.09,3.14-.13,3.78-.51.27-1.26.35-1.39.92s.4.9.74,1.29a2.42,2.42,0,0,1-.74,3.61c-.29.14-.65.25-.76.56a1.07,1.07,0,0,0,.07.68,3.63,3.63,0,0,1,.12,1.31.65.65,0,0,1-.16.41.66.66,0,0,1-.39.11c-1.76.08-2.61-.55-3.69,1a1.15,1.15,0,0,1-.37.39,1.14,1.14,0,0,1-.48.12c-1.22.1-2-.66-3.11-.8-1.54-.19-1.87.6-3.22,1.23C296.1,259.74,295.07,259.12,294.67,257.67Z" style="fill:#ebebeb"></path><path d="M308,264.11a6.43,6.43,0,0,1-.19-1.26c-.15-2.61-2.65-2.2-4.77-2.55-1.66-.28,2.73-4.47-.61-5.82a2.93,2.93,0,0,1-1.61-1.12,1.89,1.89,0,0,1,.73-2.32,4.42,4.42,0,0,1,2.53-.63c.55-.67.11-1.66-.42-2.34s-1.18-1.45-1-2.28c.31-1.26,2.07-1.31,3.34-1.06a9.18,9.18,0,0,0,.69-2.58c.23-.86.91-1.77,1.8-1.66s1.35,1,2.17,1.24,1.78-.62,2.52-1.25,2.06-1,2.57-.2c.31.5.13,1.2.45,1.69.55.85,1.87.32,2.69-.28s2.12-1.15,2.69-.32a3.31,3.31,0,0,1,.32.88c.38,1.11,1.59,1.67,2.53,2.38s1.68,2.14.89,3c-.39.43-1.08.6-1.28,1.15s.46,1.3,1,1.77c.93.79,1.09,3.14-.13,3.78-.51.27-1.26.35-1.39.92s.4.9.74,1.29a2.42,2.42,0,0,1-.74,3.61c-.29.14-.65.25-.76.56a1.14,1.14,0,0,0,.07.68,3.63,3.63,0,0,1,.12,1.31.65.65,0,0,1-.16.41.66.66,0,0,1-.39.11c-1.76.08-2.61-.55-3.69,1a1.23,1.23,0,0,1-.36.39,1.18,1.18,0,0,1-.49.12c-1.21.1-2-.66-3.11-.8-1.54-.19-1.86.6-3.22,1.23C309.47,266.18,308.44,265.56,308,264.11Z" style="fill:#ebebeb"></path><path d="M321.56,261.13a5.22,5.22,0,0,1-.19-1.26c-.16-2.61-2.65-2.19-4.77-2.55-1.66-.27,2.73-4.46-.61-5.81a3,3,0,0,1-1.62-1.12,1.91,1.91,0,0,1,.73-2.32,4.52,4.52,0,0,1,2.54-.64c.54-.66.1-1.66-.43-2.33s-1.17-1.45-1-2.28c.3-1.26,2.06-1.31,3.33-1.06a9.37,9.37,0,0,0,.69-2.58c.23-.87.92-1.78,1.81-1.67s1.34,1.05,2.16,1.24,1.78-.62,2.53-1.25,2.05-1,2.57-.19c.31.5.12,1.19.44,1.68.56.85,1.87.32,2.69-.28s2.12-1.15,2.7-.31a3.76,3.76,0,0,1,.31.87c.39,1.12,1.59,1.67,2.53,2.39s1.69,2.14.89,3c-.39.43-1.08.61-1.27,1.16s.45,1.3,1,1.77c.92.78,1.09,3.13-.13,3.78-.51.27-1.27.35-1.39.91s.4.9.74,1.29a2.42,2.42,0,0,1-.74,3.61c-.3.14-.66.26-.76.57a1.08,1.08,0,0,0,.07.68,3.84,3.84,0,0,1,.11,1.31.56.56,0,0,1-.16.41.63.63,0,0,1-.38.11c-1.77.07-2.62-.55-3.69,1a1.26,1.26,0,0,1-.37.39,1,1,0,0,1-.49.12c-1.21.1-2-.65-3.11-.79-1.53-.2-1.86.59-3.21,1.23C323,263.2,322,262.58,321.56,261.13Z" style="fill:#ebebeb"></path><path d="M321.73,275.59a5.44,5.44,0,0,1-.15-1c-.12-2.06-2.08-1.73-3.75-2-1.31-.22,2.15-3.51-.48-4.58a2.34,2.34,0,0,1-1.27-.88,1.5,1.5,0,0,1,.57-1.83,3.61,3.61,0,0,1,2-.5c.43-.52.08-1.3-.34-1.84s-.92-1.14-.76-1.79c.23-1,1.62-1,2.62-.84a7.24,7.24,0,0,0,.54-2c.18-.68.73-1.39,1.42-1.31s1.07.83,1.71,1,1.4-.49,2-1,1.62-.8,2-.15c.25.39.1.94.35,1.33.44.67,1.48.25,2.12-.22s1.67-.91,2.12-.25a2.71,2.71,0,0,1,.25.69c.3.88,1.25,1.31,2,1.88s1.33,1.68.7,2.37c-.31.34-.85.48-1,.91s.36,1,.79,1.39c.73.62.86,2.47-.1,3-.4.21-1,.27-1.09.72s.31.71.58,1a1.91,1.91,0,0,1-.58,2.85c-.23.11-.52.2-.6.44a.92.92,0,0,0,.05.54,2.74,2.74,0,0,1,.1,1,.51.51,0,0,1-.13.32.53.53,0,0,1-.3.09c-1.39.06-2.06-.43-2.91.78a1,1,0,0,1-.29.3.83.83,0,0,1-.38.1c-1,.08-1.58-.52-2.45-.63-1.21-.15-1.47.47-2.53,1C322.86,277.22,322.05,276.73,321.73,275.59Z" style="fill:#ebebeb"></path><path d="M329.31,270.6a5.29,5.29,0,0,1-.19-1.26c-.16-2.61-2.65-2.2-4.77-2.55-1.66-.28,2.73-4.47-.61-5.82a2.92,2.92,0,0,1-1.62-1.12,1.91,1.91,0,0,1,.73-2.32,4.44,4.44,0,0,1,2.54-.63c.54-.67.1-1.66-.43-2.34s-1.17-1.45-1-2.28c.3-1.26,2.06-1.31,3.33-1.06a9.18,9.18,0,0,0,.69-2.58c.23-.86.92-1.77,1.81-1.66s1.34,1,2.16,1.24,1.78-.62,2.53-1.25,2.05-1,2.57-.2c.31.5.12,1.19.44,1.69.56.85,1.87.32,2.69-.29s2.12-1.14,2.69-.31a3.31,3.31,0,0,1,.32.88c.39,1.11,1.59,1.67,2.53,2.38s1.69,2.14.89,3c-.39.44-1.08.61-1.28,1.16s.46,1.3,1,1.77c.92.79,1.09,3.14-.13,3.78-.52.27-1.27.35-1.39.92s.4.9.74,1.29a2.43,2.43,0,0,1-.74,3.61c-.3.14-.66.25-.77.56a1.23,1.23,0,0,0,.07.68,3.61,3.61,0,0,1,.12,1.31.56.56,0,0,1-.16.41.63.63,0,0,1-.38.11c-1.77.08-2.62-.55-3.69,1a1.38,1.38,0,0,1-.37.39,1.36,1.36,0,0,1-.49.12c-1.21.1-2-.66-3.11-.8-1.53-.2-1.86.6-3.21,1.23C330.74,272.66,329.71,272.05,329.31,270.6Z" style="fill:#ebebeb"></path><path d="M308,248.21a6.55,6.55,0,0,1-.19-1.26c-.15-2.62-2.65-2.2-4.77-2.56-1.66-.27,2.73-4.46-.61-5.81a2.93,2.93,0,0,1-1.61-1.12,1.89,1.89,0,0,1,.73-2.32,4.51,4.51,0,0,1,2.53-.64c.55-.66.11-1.66-.42-2.33s-1.18-1.45-1-2.28c.31-1.26,2.07-1.31,3.34-1.06a9.27,9.27,0,0,0,.69-2.58c.23-.87.91-1.77,1.8-1.67s1.35,1,2.17,1.24,1.78-.61,2.52-1.25,2.06-1,2.57-.19c.31.5.13,1.19.45,1.68.55.85,1.87.33,2.69-.28s2.12-1.15,2.69-.31a3.31,3.31,0,0,1,.32.88c.38,1.11,1.59,1.67,2.53,2.38s1.68,2.14.89,3c-.39.43-1.08.61-1.28,1.16s.46,1.3,1,1.77c.93.79,1.09,3.14-.13,3.78-.51.27-1.26.35-1.39.92s.4.89.74,1.28a2.43,2.43,0,0,1-.74,3.62c-.29.14-.65.25-.76.56a1.14,1.14,0,0,0,.07.68,3.61,3.61,0,0,1,.12,1.31.65.65,0,0,1-.16.41.66.66,0,0,1-.39.11c-1.76.08-2.61-.55-3.69,1a1.48,1.48,0,0,1-.36.39,1.36,1.36,0,0,1-.49.12c-1.21.1-2-.66-3.11-.8-1.54-.2-1.86.6-3.22,1.23C309.47,250.27,308.44,249.66,308,248.21Z" style="fill:#ebebeb"></path><path d="M290.68,249.09a6.43,6.43,0,0,1-.19-1.26c-.16-2.61-2.65-2.19-4.77-2.55-1.66-.27,2.73-4.46-.61-5.81a2.91,2.91,0,0,1-1.61-1.13,1.89,1.89,0,0,1,.72-2.31,4.56,4.56,0,0,1,2.54-.64c.55-.66.1-1.66-.42-2.33s-1.18-1.45-1-2.28c.3-1.26,2.06-1.31,3.34-1.06a9.37,9.37,0,0,0,.69-2.58c.22-.87.91-1.78,1.8-1.67s1.35,1.05,2.17,1.24,1.78-.62,2.52-1.25,2.06-1,2.57-.19c.31.5.13,1.19.45,1.68.55.85,1.87.32,2.68-.28s2.12-1.15,2.7-.31a3.76,3.76,0,0,1,.31.87c.39,1.12,1.6,1.67,2.54,2.39s1.68,2.14.89,3c-.4.43-1.09.61-1.28,1.16s.46,1.3,1,1.77c.92.78,1.09,3.13-.13,3.78-.51.27-1.26.35-1.39.91s.4.9.74,1.29a2.42,2.42,0,0,1-.74,3.61c-.29.14-.65.26-.76.57a1.16,1.16,0,0,0,.07.68,3.61,3.61,0,0,1,.12,1.31.65.65,0,0,1-.16.41.66.66,0,0,1-.39.11c-1.76.07-2.61-.55-3.69,1a1.15,1.15,0,0,1-.37.39,1,1,0,0,1-.48.12c-1.21.1-2-.65-3.11-.79-1.54-.2-1.87.59-3.22,1.23C292.11,251.16,291.08,250.54,290.68,249.09Z" style="fill:#ebebeb"></path><path d="M280.13,256.2a6.43,6.43,0,0,1-.19-1.26c-.15-2.61-2.65-2.2-4.77-2.55-1.65-.28,2.73-4.47-.61-5.82a2.93,2.93,0,0,1-1.61-1.12,1.91,1.91,0,0,1,.73-2.32,4.44,4.44,0,0,1,2.54-.63c.54-.67.1-1.66-.43-2.34s-1.17-1.45-1-2.28c.3-1.26,2.06-1.3,3.33-1.06a9.18,9.18,0,0,0,.69-2.58c.23-.86.92-1.77,1.8-1.66s1.35,1,2.17,1.24,1.78-.62,2.53-1.25,2.05-1,2.57-.2c.3.5.12,1.2.44,1.69.55.85,1.87.32,2.69-.28s2.12-1.15,2.69-.32a3.31,3.31,0,0,1,.32.88c.39,1.11,1.59,1.67,2.53,2.39s1.68,2.13.89,3c-.39.43-1.08.6-1.28,1.15s.46,1.3,1,1.77c.93.79,1.1,3.14-.13,3.78-.51.27-1.26.35-1.38.92s.4.9.74,1.29a2.43,2.43,0,0,1-.75,3.61c-.29.14-.65.25-.76.56a1.14,1.14,0,0,0,.07.68,3.63,3.63,0,0,1,.12,1.31.6.6,0,0,1-.16.41.64.64,0,0,1-.39.11c-1.76.08-2.61-.55-3.69,1a1.23,1.23,0,0,1-.36.39,1.18,1.18,0,0,1-.49.12c-1.21.1-2-.66-3.11-.8-1.54-.19-1.86.6-3.22,1.23C281.57,258.27,280.53,257.65,280.13,256.2Z" style="fill:#ebebeb"></path><path d="M283.33,265.18s4.41,6.23,5.93,8.21,9.13,14.3,10.16,22.45c.11.86.22,1.61.33,2.27C296.48,319.7,297,359.2,297.11,366h10.36c.09-7.63,1-77.33,1.3-79.46s4.67-10.83,11.37-14.35S332.61,257,332.61,257h-2.13s-4,7.14-9.58,11.1a22.55,22.55,0,0,1-2.54,1.5,35.78,35.78,0,0,0-2.23-12.6L315,258c1.56,6.37,1.35,10.45.88,12.79a23.12,23.12,0,0,0-5.81,3.89c-5.84-7.59-9.12-24.95-9.12-24.95l-1.5.82a89.74,89.74,0,0,0,1.93,10.65c1.1,4.49,4.31,12.95,5.81,16.79a39.52,39.52,0,0,0-4.41,8.27,3.32,3.32,0,0,0-.56-.67c-3.8-3.44-10.95-19.68-10.95-19.68-1.73-3.78.91-13.69.91-13.69h-2l-.9,8.67-5-5.47-.91.76,5.32,6.84,2.74,8.67-7.15-7.91Z" style="fill:#e6e6e6"></path><path d="M185.92,380.72c.63-2.41,3.55-15.11-4.76-17.85-9.18-3-14.64-10.15-14.33-18.2s-9.36-15.88-16.61-8.33-6.29-5.8-16-9-17.87,4.62-15.22,11.81-6.9,11.68-18.33,5.56-24,5-21.58,13.72.44,9.67-6.79,6.77-19.84,5.12-15.79,15.56Z" style="fill:#ebebeb"></path><path d="M237.43,380.72H168.5c-1.7-3.35,1-7.85,3.95-8.44,3.35-.67,6.72-6.57,6.88-10.33s6.2-15.31,15.58-8.17,6.54,1.05,13.33-1,11.08,3.76,8.1,8.09c0,0,6.82-1.71,9.63,4.66s0,10.33,0,10.33S235.62,375.62,237.43,380.72Z" style="fill:#ebebeb"></path><path d="M306.61,380.72c-.64-2.41-3.56-15.11,4.75-17.85,9.19-3,14.64-10.15,14.33-18.2s9.37-15.88,16.62-8.33,6.29-5.8,16-9,17.87,4.62,15.22,11.81,6.9,11.68,18.32,5.56,24,5,21.59,13.72-.44,9.67,6.79,6.77S440,370.28,436,380.72Z" style="fill:#ebebeb"></path><path d="M255.1,380.72H324c1.7-3.35-1-7.85-3.94-8.44-3.36-.67-6.73-6.57-6.89-10.33s-6.19-15.31-15.58-8.17-6.53,1.05-13.33-1-11.07,3.76-8.09,8.09c0,0-6.82-1.71-9.63,4.66s0,10.33,0,10.33S256.91,375.62,255.1,380.72Z" style="fill:#ebebeb"></path></g><g id="background-simple"><path d="M90.63,116.91C118.55,57.46,217.69,65.85,256,107.66s50.7,68.6,85.21,53,78.52-11.44,81,38.16S384.29,307.07,320.11,324.42,256,403.18,171,390.79c-46.31-6.76-47.36-56.86-40.82-98.3S58.25,185.86,90.63,116.91Z" style="fill:#407BFF"></path><path d="M90.63,116.91C118.55,57.46,217.69,65.85,256,107.66s50.7,68.6,85.21,53,78.52-11.44,81,38.16S384.29,307.07,320.11,324.42,256,403.18,171,390.79c-46.31-6.76-47.36-56.86-40.82-98.3S58.25,185.86,90.63,116.91Z" style="fill:#fff;opacity:0.9"></path></g><g id="Shadow"><ellipse id="path" cx="250" cy="416.24" rx="193.89" ry="11.32" style="fill:#f5f5f5"></ellipse></g><g id="Tent"><path d="M288.88,401.15H51.34a.5.5,0,0,1-.5-.5.5.5,0,0,1,.5-.5H288.88a.5.5,0,0,1,.5.5A.5.5,0,0,1,288.88,401.15Z" style="fill:#263238"></path><path d="M57.46,401.24s67.08-80.43,76.3-114.38L192,276.59s42.86,93.67,88.42,124.65Z" style="fill:#263238"></path><path d="M280.46,401.24h-223s67.08-80.43,76.3-114.38L192,276.59v0C192.71,278.05,235.26,370.5,280.46,401.24Z" style="fill:#fff;opacity:0.5"></path><path d="M280.46,401.24H133.09l-.25-.13S184,337.77,192,276.59v0C192.71,278.05,235.26,370.5,280.46,401.24Z" style="fill:#fff;opacity:0.30000000000000004"></path><path d="M192,276.59a10.35,10.35,0,0,1,.28,2.2c.88,12.25,1.81,72.11,11.24,122.68h76.9S232.55,378.18,223,367.41" style="fill:#263238"></path><path d="M192.32,278.79s24.3,64,29.29,68.55,20.93,14,20.93,14,10.21,20.35,37.92,40.15c0,0-42.48-15.52-55.49-29.38S192.32,278.79,192.32,278.79Z" style="fill:#263238"></path><path d="M192.32,278.79s24.3,64,29.29,68.55,20.93,14,20.93,14,10.21,20.35,37.92,40.15c0,0-42.48-15.52-55.49-29.38S192.32,278.79,192.32,278.79Z" style="fill:#fff;opacity:0.5"></path><path d="M153,321.67s-11.87,22.72-22.15,33.6l-30.21,1.89s14-17.34,17.94-26.14Z" style="opacity:0.2;isolation:isolate"></path><path d="M52.73,401.15a.51.51,0,0,1-.5-.44l-1.38-10.57a.5.5,0,0,1,.43-.56.5.5,0,0,1,.56.43l1.38,10.57a.49.49,0,0,1-.43.56Z" style="fill:#263238"></path><path d="M52.73,390.58H49.56a.5.5,0,0,1-.5-.5.5.5,0,0,1,.5-.5h3.17a.5.5,0,0,1,.5.5A.51.51,0,0,1,52.73,390.58Z" style="fill:#263238"></path><path d="M287.91,401.15h-.06a.49.49,0,0,1-.43-.56l1-7.4a.5.5,0,0,1,1,.13l-1,7.4A.51.51,0,0,1,287.91,401.15Z" style="fill:#263238"></path><path d="M290.29,393.74h-3.17a.5.5,0,0,1-.5-.5.5.5,0,0,1,.5-.5h3.17a.51.51,0,0,1,.5.5A.5.5,0,0,1,290.29,393.74Z" style="fill:#263238"></path><path d="M67,401.61a.5.5,0,0,1-.5-.43l-8.11-61a.51.51,0,0,1,.43-.56.5.5,0,0,1,.56.43l8.11,61a.5.5,0,0,1-.43.56Z" style="fill:#263238"></path><path d="M112.72,401.86a.5.5,0,0,1-.5-.49l-1.64-63.2a.49.49,0,0,1,.48-.51.52.52,0,0,1,.52.48l1.64,63.21a.5.5,0,0,1-.48.51Z" style="fill:#263238"></path><path d="M153,321.67s-26,4.75-37.12,4.68L51.34,341.28l62.54-1.84S142.33,331.39,153,321.67Z" style="fill:#263238"></path><path d="M153,321.67s-26,4.75-37.12,4.68L51.34,341.28l62.54-1.84S142.33,331.39,153,321.67Z" style="fill:#fff;opacity:0.7000000000000001"></path></g><g id="Plants"><path d="M467.16,412.42s7.95-15.52,5.95-17-5.95,13-5.95,11.84.22-20.86-3.45-20.07,0,18.94,0,18.94-4.94-9.28-6.88-8.58,5.71,11.74,5.71,11.74-4.57-2.76-5.71-2.55,5.71,5.72,5.71,5.72Z" style="fill:#407BFF"></path><path d="M58.45,412.42s-8-15.52-6-17,6,13,6,11.84-.22-20.86,3.45-20.07,0,18.94,0,18.94,4.94-9.28,6.88-8.58-5.71,11.74-5.71,11.74,4.57-2.76,5.71-2.55-5.71,5.72-5.71,5.72Z" style="fill:#407BFF"></path><path d="M147.09,412.42s-9-8-6.34-9.3,6,6,6.34,4.9-1.77-11.21,3.25-10.51,0,10.51,0,10.51,3.72-4,5-3.39-4,7.79-4,7.79Z" style="fill:#407BFF"></path><path d="M442.91,412.42s9-8,6.34-9.3-6,6-6.34,4.9,1.77-11.21-3.25-10.51,0,10.51,0,10.51-3.71-4-5-3.39,4,7.79,4,7.79Z" style="fill:#407BFF"></path><g style="opacity:0.4"><path d="M467.16,412.42s7.95-15.52,5.95-17-5.95,13-5.95,11.84.22-20.86-3.45-20.07,0,18.94,0,18.94-4.94-9.28-6.88-8.58,5.71,11.74,5.71,11.74-4.57-2.76-5.71-2.55,5.71,5.72,5.71,5.72Z" style="fill:#fff"></path><path d="M58.45,412.42s-8-15.52-6-17,6,13,6,11.84-.22-20.86,3.45-20.07,0,18.94,0,18.94,4.94-9.28,6.88-8.58-5.71,11.74-5.71,11.74,4.57-2.76,5.71-2.55-5.71,5.72-5.71,5.72Z" style="fill:#fff"></path><path d="M147.09,412.42s-9-8-6.34-9.3,6,6,6.34,4.9-1.77-11.21,3.25-10.51,0,10.51,0,10.51,3.72-4,5-3.39-4,7.79-4,7.79Z" style="fill:#fff"></path><path d="M442.91,412.42s9-8,6.34-9.3-6,6-6.34,4.9,1.77-11.21-3.25-10.51,0,10.51,0,10.51-3.71-4-5-3.39,4,7.79,4,7.79Z" style="fill:#fff"></path></g><path d="M41.18,412.37H58.45s-4.07-5.08-8.63-5.84S41.18,412.37,41.18,412.37Z" style="fill:#263238"></path><path d="M160.82,412.37h7.94s-2.52-3.41-4.85-3.56S160.82,412.37,160.82,412.37Z" style="fill:#263238"></path><path d="M439.12,412.37h12.41s-2.77-5.81-6.21-6S439.12,412.37,439.12,412.37Z" style="fill:#263238"></path><path d="M41.18,412.37H58.45s-4.07-5.08-8.63-5.84S41.18,412.37,41.18,412.37Z" style="fill:#fff;opacity:0.4"></path><path d="M160.82,412.37h7.94s-2.52-3.41-4.85-3.56S160.82,412.37,160.82,412.37Z" style="fill:#fff;opacity:0.4"></path><path d="M439.12,412.37h12.41s-2.77-5.81-6.21-6S439.12,412.37,439.12,412.37Z" style="fill:#fff;opacity:0.4"></path></g><g id="character-2"><g id="group"><path d="M370.86,320.51s-13.28,9.32-16.46,8.76-22.23-13.22-22.23-13.22-.19-2.29-1.31-3.23-14,0-14,0-.19,7.51,1.86,8.8,10.84-1.11,10.84-1.11,18.3,12.86,24,15.2,19.7-7.71,19.7-7.71Z" style="fill:#e4897b"></path><polygon points="368.19 318.76 355.75 327.25 361.97 340.38 375.62 335.55 368.19 318.76" style="fill:#407BFF"></polygon><polygon points="375.62 335.55 363.94 339.69 361.97 340.38 355.75 327.25 368.19 318.76 370.1 323.07 375.62 335.55" style="fill:#fff;opacity:0.30000000000000004"></polygon><path d="M375.62,335.55l-11.68,4.14c-.57-5.95,4.23-13.77,6.16-16.62Z" style="opacity:0.2;isolation:isolate"></path><path d="M373.08,353.31a64.62,64.62,0,0,0-.23-11.13c-.76-8.3-2.6-17.64-4.66-23.41,0,0,4.16-4.89,18.63-6.57s21.53,1.17,21.53,1.17,1.16,4.77,2.5,12.09a251.71,251.71,0,0,1,3.56,27.75Z" style="fill:#407BFF"></path><path d="M373.09,353.31a65.77,65.77,0,0,0-.24-11.13c-.76-8.3-2.6-17.65-4.66-23.42,0,0,4.16-4.88,18.63-6.56s21.53,1.17,21.53,1.17,1.15,4.77,2.5,12.09c.42,2.29.85,4.83,1.28,7.55.84,5.42,1.62,11.57,2.11,17.92.07.75.13,1.51.17,2.27Z" style="fill:#fff;opacity:0.30000000000000004"></path><path d="M414.24,350.93c-7.36-2.7-16.41-9-16.41-9l3.79-13.71a41.7,41.7,0,0,1,10.51,4.8C413,338.43,413.75,344.58,414.24,350.93Z" style="opacity:0.2;isolation:isolate"></path><path d="M398.78,328.42a1.9,1.9,0,1,1-1.9-1.91A1.91,1.91,0,0,1,398.78,328.42Z" style="fill:#263238"></path><polygon points="396.25 320.81 396.81 321.96 398.08 322.14 397.17 323.04 397.38 324.31 396.25 323.71 395.11 324.31 395.33 323.04 394.41 322.14 395.68 321.96 396.25 320.81" style="fill:#fff;opacity:0.30000000000000004"></polygon><polygon points="391.17 325.25 394.35 325.25 392.76 328.03 391.17 325.25" style="fill:#fff"></polygon><path d="M380.18,402.45,395,412.88s-22.59,7.43-46.1,2.21c-1.86-.4-3.73-.89-5.59-1.48-25.37-7.92,24.77-41.26,24.77-41.26l24.56,7.08,5,1.46Z" style="fill:#e4897b"></path><path d="M380.18,402.45,395,412.88s-22.59,7.43-46.1,2.21a6.2,6.2,0,0,1-1.22-4.15c.82-11.69,32.48-31.56,32.48-31.56a122.27,122.27,0,0,1,12.48.05l5,1.46Z" style="opacity:0.2;isolation:isolate"></path><path d="M429.94,415a1,1,0,0,1-.36,1,.69.69,0,0,1-.65.23c-1-.19-2.17-2.71-2.3-3a.23.23,0,0,1,0-.21.18.18,0,0,1,.2,0,9.49,9.49,0,0,1,2,.88A2.19,2.19,0,0,1,429.94,415Zm-.92.84a.35.35,0,0,0,.32-.11.7.7,0,0,0,.23-.64c-.13-.52-1-1.11-2.38-1.62.48,1,1.27,2.27,1.83,2.37Z" style="fill:#407BFF"></path><path d="M427.3,416.35a1,1,0,0,1-1,.3.71.71,0,0,1-.56-.4c-.45-1,.94-3.35,1.11-3.62a.18.18,0,0,1,.18-.08.17.17,0,0,1,.16.13,10.32,10.32,0,0,1,.43,2.13A2.14,2.14,0,0,1,427.3,416.35Zm-1.22-.26a.34.34,0,0,0,.28.19.71.71,0,0,0,.66-.18c.34-.4.31-1.46-.07-2.88-.53,1-1.11,2.36-.87,2.87Z" style="fill:#407BFF"></path><path d="M425.7,413.5,418,408.76a.57.57,0,0,1-.23-.77h0l3.38-6.34a1.42,1.42,0,0,1,1.94-.48c2.66,1.7,3.85,2.64,7.23,4.75,2.08,1.29,6.31,3.63,8.87,5.84s.32,4.68-1,4c-3-1.66-8.24-2.22-11.11-1.89A2.21,2.21,0,0,1,425.7,413.5Z" style="fill:#263238"></path><path d="M373.45,352.94l41.31,1.26s5.1,21.3,0,33.58-22.53,17.56-22.53,17.56l26.86.17s5.82,3.69,6.61,8c0,0-56.6,7.68-69.43.12s23.91-37.44,23.91-37.44l-8.66-6C376.26,359.13,373.45,352.94,373.45,352.94Z" style="fill:#e4897b"></path><path d="M373.61,351.31l-3.42,14.41s-25.55,16.1-34,34.89c0,0,51.47,14.75,61.24,5.75l.31-2.56s29-7.1,16.91-53Z" style="fill:#263238"></path><polygon points="398.78 356.27 414.76 356.27 413.82 352.16 398.78 352.44 398.78 356.27"></polygon><polygon points="377.2 352.85 377.2 356.27 397.47 356.27 397.47 352.47 377.2 352.85"></polygon><polygon points="375.98 352.87 374.12 352.91 373.09 356.27 375.98 356.27 375.98 352.87"></polygon><rect x="381.5" y="352.14" width="7.29" height="4.86" rx="0.75" style="fill:#fff"></rect><path d="M370.71,314.3a2.79,2.79,0,0,0,.15,1.37,4.52,4.52,0,0,0,.58,1,10.21,10.21,0,0,0,2.92,2.39h0c.54.32,1.11.62,1.7.91h0a35.1,35.1,0,0,0,3.91,1.6h0l1.62.54c1.3.41,2.18.63,2.18.63a11.94,11.94,0,0,0-1.46.64c-.29.13-.58.28-.86.44a19.32,19.32,0,0,0-2.35,1.52c-.26.19-.51.39-.74.59a18.59,18.59,0,0,0-1.73,1.56c-.24.23-.46.47-.68.7a27.07,27.07,0,0,0-2.29,2.83c-.21.29-.4.56-.58.83a30.06,30.06,0,0,0-3.1,6,19.73,19.73,0,0,0,5.61-2.29l.8-.52a18.58,18.58,0,0,0,2.38-1.91l.7-.67a19.36,19.36,0,0,0,1.5-1.74c.23-.28.43-.56.62-.83.42-.58.77-1.13,1.08-1.66h0c.27-.47.51-.92.71-1.32a17.31,17.31,0,0,0,.81-1.93c-.14.52-.27,1-.36,1.51s-.2,1-.27,1.53h0c-.1.72-.15,1.42-.18,2.1h0c0,.4,0,.79,0,1.17a21.26,21.26,0,0,0,.16,2.18c0,.35.08.69.14,1a21.49,21.49,0,0,0,.73,3c.12.32.22.62.32.89a15.38,15.38,0,0,0,1.47,3,13.62,13.62,0,0,0,1.69-4.5,11,11,0,0,0,.17-1.13h0a19.81,19.81,0,0,0,.1-3.68c0-.36-.05-.7-.09-1h0a26.06,26.06,0,0,0-.43-2.73q-.11-.51-.24-1c-.2-.86-.44-1.64-.64-2.26-.13-.38-.24-.71-.34-1-.19-.52-.32-.81-.32-.81.56-.15,1.11-.3,1.64-.47s1-.31,1.5-.48h0a37.61,37.61,0,0,0,5.47-2.4c.54-.3,1-.6,1.54-.89a29.66,29.66,0,0,0,4.18-3.11c.44-.39.83-.76,1.17-1.12a17.87,17.87,0,0,0,2.44-3c.13-.2.19-.31.19-.31l-2-.26c-13.2-1.6-23,.38-27.91,1.84q-1.16.35-1.95.63C371.29,314,370.71,314.3,370.71,314.3Z" style="fill:#263238"></path><g style="opacity:0.2"><path d="M372.41,313.65l13,2.17.08-.47.1.46,18.5-4.06c.13-.2.19-.31.19-.31l-2-.26-16.82,3.69L374.36,313Q373.2,313.37,372.41,313.65Z" style="fill:#fff"></path><path d="M370.86,315.67a4.52,4.52,0,0,0,.58,1l13,1.44,0-.47.07.47,15.87-2.26c.44-.39.83-.76,1.17-1.12l-17.12,2.43Z" style="fill:#fff"></path><path d="M380,321.59l1.62.54,2.41-.64,3.73,1.25c.51-.16,1-.31,1.5-.48l-5.2-1.75Z" style="fill:#fff"></path><path d="M374.37,319.07c.54.32,1.11.62,1.7.91h0l8.2-.18c3.11,0,7.47,0,10.45.06.54-.3,1-.6,1.54-.89-2.29-.12-6.3-.15-12-.11v0Z" style="fill:#fff"></path><path d="M388.09,331l-4.53,2.49c0,.35.08.69.14,1l4.48-2.47C388.16,331.66,388.13,331.32,388.09,331Z" style="fill:#fff"></path><path d="M387.42,327.25l-4,2.86h0c0,.4,0,.79,0,1.17l4.26-3.05Q387.55,327.73,387.42,327.25Z" style="fill:#fff"></path><path d="M378.39,326l2.61,4.76c.23-.28.43-.56.62-.83l-2.49-4.52C378.87,325.55,378.62,325.75,378.39,326Z" style="fill:#fff"></path><path d="M376,328.21l2.82,4.91.7-.67-2.84-4.94C376.42,327.74,376.2,328,376,328.21Z" style="fill:#fff"></path><path d="M388.08,335.71l-3.65,1.77c.12.32.22.62.32.89l3.16-1.53A11,11,0,0,0,388.08,335.71Z" style="fill:#fff"></path><path d="M373.11,331.87l2.51,3.68.8-.52-2.73-4C373.48,331.33,373.29,331.6,373.11,331.87Z" style="fill:#fff"></path><path d="M383.86,326.47q-.17.79-.27,1.53l3.19-3c-.13-.38-.24-.71-.34-1Z" style="fill:#fff"></path><path d="M381.48,323.84l1.22,4.37c.27-.47.51-.92.71-1.32l-.08.08-1-3.57C382.05,323.53,381.76,323.68,381.48,323.84Z" style="fill:#fff"></path></g><path d="M397.21,317l-3.9-1.14-8.85,7.24L379,316.21l-4.15,2.18A16.69,16.69,0,0,1,389.94,309C401,309,397.21,317,397.21,317Z" style="fill:#407BFF"></path><path d="M397.21,317l-3.9-1.14-8.85,7.24L379,316.21l-4.15,2.18A16.69,16.69,0,0,1,389.94,309C401,309,397.21,317,397.21,317Z" style="fill:#fff;opacity:0.30000000000000004"></path><path d="M395.66,313.19c.09,1.2-9.45,6-9.45,6L384.62,322l-.09-3.11s-4.36-3-4.77-4.34C379.76,314.52,395.39,309.21,395.66,313.19Z" style="opacity:0.2;isolation:isolate"></path><path d="M395.75,314.24l-11.42,4.44L380,316.79a7.92,7.92,0,0,0,1.22-2c2-4.84-2.76-8.84-2.76-8.84l4.73-2,10.39-4.3C389.91,308.94,395.75,314.24,395.75,314.24Z" style="fill:#e4897b"></path><path d="M392.25,303.66s-3.85,10-11,11.09c2-4.84-2.76-8.84-2.76-8.84l4.73-2Z" style="opacity:0.2;isolation:isolate"></path><path d="M401.06,297.69s7.24-.7,8.51,5-11.59,20.39-15.22.92Z" style="fill:#263238"></path><path d="M373.89,272.81s-12.59,7.84-1.3,19.62C385.34,305.75,373.89,272.81,373.89,272.81Z" style="fill:#263238"></path><path d="M399.38,291.91c-1.79,8.68-8,17.73-15.45,18.09-13.66.65-18.53-2.6-18.7-12.69-.19-9.09,4.83-22.75,16.2-23.9S401.86,279.87,399.38,291.91Z" style="fill:#e4897b"></path><path d="M371.79,278.47A24.5,24.5,0,0,0,384.61,281s9,5.07,7.05,10.92.81,6.54,0,14.53c0,0,8.43.09,12-17.16,2.61-12.57-7.76-18.94-19.1-20.21C375.1,268,367.51,273.92,371.79,278.47Z" style="fill:#263238"></path><path d="M379,291.79c-.19,1.11-.94,1.92-1.67,1.78s-1.15-1.13-1-2.24.94-1.9,1.67-1.78S379.22,290.68,379,291.79Z" style="fill:#263238"></path><path d="M370.24,289.83c-.18,1.06-.89,1.83-1.59,1.7s-1.1-1.08-.92-2.14.9-1.82,1.59-1.7S370.42,288.77,370.24,289.83Z" style="fill:#263238"></path><path d="M376.8,285.68a.55.55,0,0,1-.13-.29.5.5,0,0,1,.5-.51,4.94,4.94,0,0,1,4.18,2,.5.5,0,0,1-.13.7h0a.52.52,0,0,1-.7-.13h0a4,4,0,0,0-3.37-1.5A.56.56,0,0,1,376.8,285.68Z" style="fill:#263238"></path><path d="M368.12,284.64a.56.56,0,0,1-.25-.18.53.53,0,0,1,.2-.7,5,5,0,0,1,4.61-.27.51.51,0,0,1,.22.69h0a.53.53,0,0,1-.68.21h0a4,4,0,0,0-3.68.29A.52.52,0,0,1,368.12,284.64Z" style="fill:#263238"></path><path d="M371.75,291.41l.35,4.9a6.07,6.07,0,0,1-3.5-.79A14.11,14.11,0,0,0,371.75,291.41Z" style="fill:#de5753"></path><path d="M371.32,300.09a28.59,28.59,0,0,1,1.7,3.71c.24,0,.47-.08.71-.14,3.19-.66,4.44-2,4.87-3.34a4.13,4.13,0,0,0,.11-2,4,4,0,0,0-.32-1.09c-1.48,1.36-4.4,2.21-6,2.6C371.74,300,371.32,300.09,371.32,300.09Z" style="fill:#263238"></path><path d="M372.4,299.85l.53,1.08c3-.63,5-1.49,5.78-2.59a4,4,0,0,0-.32-1.09C376.91,298.61,374,299.46,372.4,299.85Z" style="fill:#fff"></path><path d="M373.73,303.66c3.19-.66,4.44-2,4.87-3.34a10.4,10.4,0,0,0-3.39,1.45A3.89,3.89,0,0,0,373.73,303.66Z" style="fill:#de5753"></path><path d="M372.3,272.27s-4.13,3.32.82,10.3l3.79.21-.43-1.61,4.92,4.13,3.41,2-2-4.35s5,4.88,4.28,9.51l3.75,2.21.48-1.49s1.12,6.86,3.06,10.43,5.63-2.29,5.63-2.29-.06-18.41-10.52-24.56S372.3,272.27,372.3,272.27Z" style="fill:#263238"></path><path d="M406,286.23s1.38-10.71.16-13.31-9-9.77-10-10a20.44,20.44,0,0,0-3.54-.12s-5.9-.73-7.8-.11-3.6,2-6.06,4.9c0,0-9.34,3.46-2.11,8.43Z" style="fill:#407BFF"></path><path d="M376.62,276,406,286.24a88.58,88.58,0,0,0,.66-8.87,12.23,12.23,0,0,0-.5-4.45c-1.22-2.59-9-9.77-10-10a8.41,8.41,0,0,0-1.08-.12c-1.12-.06-2.46,0-2.46,0s-5.9-.73-7.8-.11-3.6,2-6.06,4.9C378.73,267.59,369.38,271.05,376.62,276Z" style="fill:#fff;opacity:0.2;isolation:isolate"></path><path d="M376.62,276,406,286.24a88.58,88.58,0,0,0,.66-8.87c-8.44-7.52-18.48-.88-21.34-.94-5.82-.12-6.23-2.66-6.79-3.63s.63-3.83.67-3,3.27,2.14,3.51,1.56-2.07-2.08-1.5-2.55,2.95-5.28,3.87-5.61a19.87,19.87,0,0,1,6.74-.22c1.65.42,8.19,4.31,6.68,2.7a24.68,24.68,0,0,0-3.43-2.88c-1.12-.06-2.46,0-2.46,0s-5.9-.73-7.8-.11-3.6,2-6.06,4.9C378.73,267.59,369.38,271.05,376.62,276Z" style="opacity:0.2;isolation:isolate"></path><path d="M402.81,292.6c.39-8.33-13.84-11.15-21.58-13.65s-15-7.94-11.57-12.65,9.07,1.29,9.07,1.29-6,4-1.59,7.55c5.11,4.05,18.4-.56,27.38,2.44s8,9.79,3.69,13.1C406.61,291.9,402.81,292.6,402.81,292.6Z" style="fill:#407BFF"></path><path d="M381.23,279c7.74,2.5,22,5.31,21.58,13.65,0,0,3.8-.7,5.4-1.92a7.93,7.93,0,0,0,3.12-5c.48-3-1.29-6.3-6.81-8.15-9-3-22.27,1.63-27.38-2.43-4.43-3.52,1.59-7.55,1.59-7.55s-5.44-5.78-8.88-1.54l-.2.25C366.24,271,373.49,276.45,381.23,279Z" style="fill:#fff;opacity:0.2;isolation:isolate"></path><path d="M381.23,279c7.74,2.5,22,5.31,21.58,13.65,0,0,3.8-.7,5.4-1.92a7.93,7.93,0,0,0,3.12-5c-.11-1.82-1.05-3.69-3.28-5.47-5.12-4.08-24.38-.45-32.83-4.76-5.76-2.95-6.29-6.79-5.37-9.44l-.2.25C366.24,271,373.49,276.45,381.23,279Z" style="opacity:0.2;isolation:isolate"></path><path d="M388.8,295.92s3.12-5,5.64-2.92.62,11-3.5,10.38S386.5,298.53,388.8,295.92Z" style="fill:#e4897b"></path><path d="M408.4,337s-1.85,16.86-4.29,20-25.65,16.68-25.65,16.68.71-.15.25,1.73S369,383,369,383l-8.42-3.77s6.42-7.44,9.19-9.43a3.72,3.72,0,0,1,4.85,0s21.32-13.3,23.22-15.25,3.23-19,3.23-19Z" style="fill:#e4897b"></path><path d="M407.69,313c9.29,3.12,5.26,28.1,5.26,28.1l-13.48.32s2.7-17.11,4.86-21.86A54.75,54.75,0,0,1,407.69,313Z" style="fill:#407BFF"></path><path d="M407.69,313c9.29,3.12,5.26,28.1,5.26,28.1l-13.48.32s2.7-17.11,4.86-21.86A54.75,54.75,0,0,1,407.69,313Z" style="fill:#fff;opacity:0.30000000000000004"></path></g></g><g id="character-1"><g id="group"><path d="M302.75,294.27s-1.14,12.1-5,12.1-15.29-16.71-15.29-16.71l6.33-5.67s6.11,10.78,6.66,11.6,2.66-2.82,2.66-2.82Z" style="fill:#b97964"></path><path d="M293.27,285.31l-10.22,7.46-6-6.74-1.75-2,4.06-13.46c2.16.83,6.17,5.25,9.34,9C291.28,282.68,293.27,285.31,293.27,285.31Z" style="fill:#407BFF"></path><path d="M293.27,285.31l-10.22,7.46-6-6.74-1.75-2,4.06-13.46c2.16.83,6.17,5.25,9.34,9C291.28,282.68,293.27,285.31,293.27,285.31Z" style="fill:#fff;opacity:0.30000000000000004"></path><path d="M293.27,285.31l-10.22,7.46-6-6.74,5.33-8.3,1.89,3.55,4.43-1.67C291.28,282.68,293.27,285.31,293.27,285.31Z" style="opacity:0.2;isolation:isolate"></path><path d="M282.06,279.42A108.53,108.53,0,0,0,278.67,293a193.55,193.55,0,0,0-2.64,19.6c-.07.93-.11,1.44-.11,1.44l-45.66-3c1.07-5.83,2.5-11.63,4.05-17.09,1-3.55,2.06-6.95,3.1-10.12.44-1.32.87-2.6,1.3-3.82.73-2.12,1.45-4.1,2.11-5.91,2.57-6.94,4.52-11.35,4.52-11.35s7.45-1.63,21.43,2.43a50.05,50.05,0,0,1,11.86,4.94A8,8,0,0,1,282.06,279.42Z" style="fill:#407BFF"></path><path d="M282.06,279.42A108.53,108.53,0,0,0,278.67,293a193.55,193.55,0,0,0-2.64,19.6c-.07.93-.11,1.44-.11,1.44l-45.66-3c1.07-5.83,2.5-11.63,4.05-17.09,1-3.55,2.06-6.95,3.1-10.12.44-1.32.87-2.6,1.3-3.82.73-2.12,1.45-4.1,2.11-5.91,2.57-6.94,4.52-11.35,4.52-11.35s7.45-1.63,21.43,2.43a50.05,50.05,0,0,1,11.86,4.94A8,8,0,0,1,282.06,279.42Z" style="fill:#fff;opacity:0.30000000000000004"></path><path d="M278.67,293a193.55,193.55,0,0,0-2.64,19.6c-12.53-1.63-37.48-5.26-37.6-8.32-.16-4.08,6.82-11.5,6.82-11.5-3.39-1.73-6-5.48-7.84-9,.44-1.32.87-2.6,1.3-3.82.73-2.12,1.45-4.1,2.11-5.91l9-2.62,5.85,11.85-1.14,2s1.5,4.73,2.5,5.74,20.76-2.22,20.76-2.22Z" style="opacity:0.2;isolation:isolate"></path><path d="M224.5,343.24c-4.2,20.46-26.83,66.13-26.83,66.13l6.27,1S232,368.9,241.78,341.8Z" style="fill:#b97964"></path><path d="M261.61,339.83a82.56,82.56,0,0,1,5.77,23.57c2.15,21.13-6.06,46-6.06,46l8.22.77s12.73-33.28,8.75-70.38Z" style="fill:#b97964"></path><path d="M272.91,409.35a10.47,10.47,0,0,1-2.15-.34.16.16,0,0,1-.13-.15.23.23,0,0,1,.07-.19c.26-.17,2.58-1.68,3.57-1.27a.73.73,0,0,1,.42.54,1,1,0,0,1-.26,1.05A2.19,2.19,0,0,1,272.91,409.35Zm1.21-1.57c-.52-.22-1.88.43-2.83,1,1.44.32,2.5.3,2.89-.07a.69.69,0,0,0,.15-.66.36.36,0,0,0-.21-.27Z" style="fill:#407BFF"></path><path d="M272.38,407.84a10.13,10.13,0,0,1-1.52,1.55.18.18,0,0,1-.2,0,.22.22,0,0,1-.11-.17c0-.32.13-3.08,1-3.65a.73.73,0,0,1,.69,0,1,1,0,0,1,.7.81A2.17,2.17,0,0,1,272.38,407.84Zm-.57-1.9c-.48.3-.74,1.78-.83,2.89,1.09-1,1.69-1.86,1.62-2.39a.69.69,0,0,0-.45-.51.37.37,0,0,0-.34,0Z" style="fill:#407BFF"></path><path d="M270.08,407.91,261,407.7a.57.57,0,0,0-.6.54h0l-.6,7.16a1.43,1.43,0,0,0,1.38,1.46c3.15,0,4.66-.13,8.64-.07,2.45,0,7.27.38,10.62-.08s2.81-3.76,1.35-3.86c-3.46-.26-8.12-2.61-10.35-4.44A2.24,2.24,0,0,0,270.08,407.91Z" style="fill:#263238"></path><path d="M278.5,269.17a2.71,2.71,0,0,1-.34,1.33,4.29,4.29,0,0,1-.71.92,10.29,10.29,0,0,1-3.23,2h0c-.58.25-1.18.46-1.81.66h0a39.32,39.32,0,0,1-4.1,1h0c-.62.12-1.18.23-1.69.31-1.34.23-2.23.32-2.23.32.47.26.91.54,1.35.84a8.68,8.68,0,0,1,.79.56,20.88,20.88,0,0,1,2.12,1.82l.65.69a18.84,18.84,0,0,1,1.49,1.79c.21.26.4.53.58.79a30,30,0,0,1,1.88,3.12c.16.31.31.61.45.91a30,30,0,0,1,2.24,6.34,19.54,19.54,0,0,1-5.23-3.06c-.25-.2-.5-.41-.72-.62a18,18,0,0,1-2.1-2.22c-.21-.25-.41-.51-.59-.76A20.88,20.88,0,0,1,266,284c-.19-.31-.35-.62-.5-.91a18.43,18.43,0,0,1-.83-1.79h0c-.21-.51-.38-1-.52-1.41a16.91,16.91,0,0,1-.54-2c.06.53.12,1,.15,1.54s0,1.06,0,1.56h0a20.09,20.09,0,0,1-.12,2.09h0c0,.41-.09.79-.15,1.16a18.47,18.47,0,0,1-.46,2.15c-.08.34-.18.67-.27,1a21.49,21.49,0,0,1-1.15,2.86c-.16.31-.3.59-.44.84a15,15,0,0,1-1.86,2.73,13.13,13.13,0,0,1-1.05-4.68,10.94,10.94,0,0,1,0-1.14h0a19.92,19.92,0,0,1,.42-3.67c.07-.35.15-.68.23-1h0c.24-.94.51-1.83.8-2.64.13-.33.25-.65.38-.95.32-.83.66-1.57,1-2.15l.47-.92c.26-.48.43-.75.43-.75l-1.55-.69c-.5-.23-1-.46-1.42-.69h0a36.25,36.25,0,0,1-5.08-3.14c-.49-.37-1-.74-1.4-1.1a29.31,29.31,0,0,1-3.71-3.65c-.38-.44-.71-.87-1-1.28a18.44,18.44,0,0,1-2-3.29l-.14-.33c.68,0,1.34,0,2,0,13.29.24,22.68,3.56,27.38,5.69.74.33,1.35.63,1.85.9C278,268.83,278.5,269.17,278.5,269.17Z" style="fill:#263238"></path><g style="opacity:0.2"><path d="M276.91,268.29l-13.15.34,0-.47-.16.44L245.82,262l-.14-.33c.68,0,1.34,0,2,0l16.15,6,11.23-.29C275.8,267.72,276.41,268,276.91,268.29Z" style="fill:#fff"></path><path d="M278.16,270.5a4.29,4.29,0,0,1-.71.92l-13.1-.38,0-.47-.14.45-15.4-4.44c-.38-.44-.71-.87-1-1.28l16.61,4.79Z" style="fill:#fff"></path><path d="M268.29,275.09c-.62.12-1.18.23-1.69.31l-2.29-1-3.86.72c-.5-.23-1-.46-1.42-.69l5.38-1Z" style="fill:#fff"></path><path d="M274.21,273.38c-.58.25-1.18.46-1.81.66h0l-8.1-1.31c-3.08-.45-7.4-1.05-10.36-1.4-.49-.37-1-.74-1.4-1.1q3.44.31,11.89,1.56l-.06.48.07-.47Z" style="fill:#fff"></path><path d="M259,283.27l4.14,3.1c-.08.34-.18.67-.27,1l-4.1-3.07C258.81,283.93,258.89,283.6,259,283.27Z" style="fill:#fff"></path><path d="M260.15,279.67l3.57,3.38h0c0,.41-.09.79-.15,1.16l-3.8-3.6C259.9,280.29,260,280,260.15,279.67Z" style="fill:#fff"></path><path d="M269.28,279.63,266,284c-.19-.31-.35-.62-.5-.91l3.1-4.14Z" style="fill:#fff"></path><path d="M271.35,282.21l-3.48,4.47c-.21-.25-.41-.51-.59-.76l3.49-4.5C271,281.68,271.17,282,271.35,282.21Z" style="fill:#fff"></path><path d="M258.32,288l3.37,2.25c-.16.31-.3.59-.44.84l-2.91-1.95A10.94,10.94,0,0,1,258.32,288Z" style="fill:#fff"></path><path d="M273.68,286.24l-3,3.28c-.25-.2-.5-.41-.72-.62l3.26-3.57C273.39,285.64,273.54,285.94,273.68,286.24Z" style="fill:#fff"></path><path d="M263.79,279.39c0,.54,0,1.06,0,1.56l-2.74-3.43.47-.92Z" style="fill:#fff"></path><path d="M266.51,277.12l-1.81,4.16c-.21-.51-.38-1-.52-1.41l.06.08,1.48-3.39A8.68,8.68,0,0,1,266.51,277.12Z" style="fill:#fff"></path></g><path d="M251.88,268.15l4-.58,7.76,8.4,6.39-6.07,3.8,2.74a16.68,16.68,0,0,0-13.66-11.4C249.26,259.75,251.88,268.15,251.88,268.15Z" style="fill:#407BFF"></path><path d="M251.88,268.15l4-.58,7.76,8.4,6.39-6.07,3.8,2.74a16.68,16.68,0,0,0-13.66-11.4C249.26,259.75,251.88,268.15,251.88,268.15Z" style="fill:#fff;opacity:0.30000000000000004"></path><path d="M253.94,264.6c-.25,1.17,8.53,7.26,8.53,7.26l1.19,3,.52-3.07s4.73-2.32,5.32-3.63C269.5,268.13,254.76,260.69,253.94,264.6Z" style="opacity:0.2;isolation:isolate"></path><path d="M268.79,261a6.56,6.56,0,0,0-.37,5.06,6.25,6.25,0,0,0,.34.87,11.31,11.31,0,0,0,.74,1.25h0a27,27,0,0,1-6.13,3.51,51.59,51.59,0,0,1-5.56-4.06,24,24,0,0,1-3.42-3.4s3.47-2.71,3.49-8.8a16.53,16.53,0,0,0-.86-5.2l10.1,4.94,4.59,2.24A10.76,10.76,0,0,0,268.79,261Z" style="fill:#b97964"></path><path d="M268.79,261a6.56,6.56,0,0,0-.37,5.06,6.25,6.25,0,0,0,.34.87c-5.81-1.64-9.25-7.71-10.88-11.5a16.53,16.53,0,0,0-.86-5.2l10.1,4.94,4.59,2.24A10.76,10.76,0,0,0,268.79,261Z" style="opacity:0.2;isolation:isolate"></path><path d="M281,227.32s9.87,11.08-4.28,19.2C260.78,255.7,281,227.32,281,227.32Z" style="fill:#263238"></path><path d="M251.21,238.48c-.73,8.83,2.69,19.27,9.73,21.7,12.92,4.47,18.51,2.73,21.51-6.9,2.74-8.67,1.78-23.2-8.81-27.5S252.22,226.23,251.21,238.48Z" style="fill:#b97964"></path><path d="M281.46,233.35a24.48,24.48,0,0,1-13-1.22s-5.45,0-5.22,6.2-7.24,8.34-8.74,16.22c0,0-8.11-2.28-6.69-19.84,1-12.8,12.78-16,24-14C281.24,222.35,286.86,230.19,281.46,233.35Z" style="fill:#263238"></path><path d="M270.77,244.09c-.13,1.12.36,2.11,1.09,2.18s1.43-.76,1.56-1.88-.37-2.08-1.1-2.17S270.9,243,270.77,244.09Z" style="fill:#263238"></path><path d="M279.75,244.68c-.12,1.07.35,2,1.05,2.09s1.36-.73,1.49-1.8-.35-2-1.05-2.08S279.88,243.62,279.75,244.68Z" style="fill:#263238"></path><path d="M274.63,238.85a.58.58,0,0,0,.21-.23.54.54,0,0,0-.34-.64,5,5,0,0,0-4.57.71.5.5,0,0,0-.07.71h0a.54.54,0,0,0,.72.07h0a4,4,0,0,1,3.65-.49A.54.54,0,0,0,274.63,238.85Z" style="fill:#263238"></path><path d="M283.24,240.31a.64.64,0,0,0,.3-.11.52.52,0,0,0,0-.72,5,5,0,0,0-4.36-1.56.49.49,0,0,0-.39.59h0a.52.52,0,0,0,.59.4h0a4,4,0,0,1,3.44,1.32A.54.54,0,0,0,283.24,240.31Z" style="fill:#263238"></path><path d="M277.22,245.9l-.48,4.89a6,6,0,0,0,3.52-.7A14.47,14.47,0,0,1,277.22,245.9Z" style="fill:#a24e3f"></path><path d="M260.23,245.31s-1.58-5.71-4.59-4.39-3.69,10.37.44,10.94S261.7,248.46,260.23,245.31Z" style="fill:#b97964"></path><path d="M276.93,253.23a28.75,28.75,0,0,0-2.41,3.29l-.67-.28c-3-1.3-3.94-2.89-4.1-4.26a4.16,4.16,0,0,1,.3-2,4.2,4.2,0,0,1,.53-1c1.18,1.64,3.87,3.06,5.34,3.77C276.53,253.08,276.93,253.23,276.93,253.23Z" style="fill:#263238"></path><path d="M275.92,252.78l-.74.95c-2.81-1.23-4.62-2.48-5.13-3.71a4.2,4.2,0,0,1,.53-1C271.76,250.65,274.45,252.07,275.92,252.78Z" style="fill:#fff"></path><path d="M273.85,256.24c-3-1.3-3.94-2.89-4.1-4.26a10.85,10.85,0,0,1,3,2.1A4,4,0,0,1,273.85,256.24Z" style="fill:#de5753"></path><path d="M248.3,227.61s4.23-9.94,6.6-11.55,12.71-3.88,13.7-3.56a20.3,20.3,0,0,1,3.11,1.69s5.46,2.36,6.79,3.86,2.08,3.55,2.74,7.29c0,0,6.3,7.72-2.45,8.34Z" style="fill:#407BFF"></path><path d="M278.79,233.68l-30.49-6.07a86.92,86.92,0,0,1,3.92-8,12.58,12.58,0,0,1,2.68-3.58c2.37-1.61,12.71-3.87,13.71-3.55a7.48,7.48,0,0,1,1,.44c1,.52,2.11,1.25,2.11,1.25s5.46,2.36,6.79,3.85,2.09,3.57,2.74,7.3C281.24,225.34,287.55,233.05,278.79,233.68Z" style="fill:#fff;opacity:0.2;isolation:isolate"></path><path d="M278.79,233.68l-30.49-6.07a86.92,86.92,0,0,1,3.92-8c11.09-2.2,16.38,8.61,18.87,10,5.09,2.85,6.73.87,7.7.32s1.4-3.62.94-2.93-3.91.19-3.81-.44,2.83-.74,2.58-1.43.13-6.05-.49-6.79a19.76,19.76,0,0,0-5.71-3.61c-1.63-.47-9.24-.44-7.12-1.06a26.32,26.32,0,0,1,4.42-.75c1,.52,2.11,1.25,2.11,1.25s5.46,2.36,6.79,3.85,2.09,3.57,2.74,7.3C281.24,225.34,287.55,233.05,278.79,233.68Z" style="opacity:0.2;isolation:isolate"></path><path d="M247.81,234.71c3.88-7.39,17.57-2.61,25.52-.84s16.95.75,16.39-5.05-8.48-3.48-8.48-3.48,3.15,6.53-2.45,7.31c-6.47.91-15.59-9.8-24.85-11.76s-11.87,4.38-9.81,9.43C244.89,232.18,247.81,234.71,247.81,234.71Z" style="fill:#407BFF"></path><path d="M273.33,233.87c-7.94-1.77-21.64-6.55-25.52.84,0,0-2.92-2.52-3.69-4.4a7.91,7.91,0,0,1-.17-5.85c1.12-2.85,4.3-4.78,10-3.57,9.24,2,18.37,12.67,24.84,11.77,5.6-.8,2.45-7.32,2.45-7.32s7.62-2.22,8.43,3.17a1.67,1.67,0,0,1,.05.31C290.28,234.61,281.27,235.63,273.33,233.87Z" style="fill:#fff;opacity:0.2;isolation:isolate"></path><path d="M273.33,233.87c-7.94-1.77-21.64-6.55-25.52.84,0,0-2.92-2.52-3.69-4.4a7.91,7.91,0,0,1-.17-5.85c1-1.51,2.77-2.65,5.59-3.05,6.48-.93,21.26,12,30.72,12.52,6.47.38,8.86-2.67,9.41-5.42a1.67,1.67,0,0,1,.05.31C290.28,234.61,281.27,235.63,273.33,233.87Z" style="opacity:0.2;isolation:isolate"></path><path d="M232.57,300.39l44.22,7.75-.12,14.63s5.57,9.77,7.82,29L263,355.32s-6.56-15.92-10.46-19.85l-10.47,19.85-23.73-6,5.79-21.49C227.31,309.73,232.57,300.39,232.57,300.39Z" style="fill:#263238"></path><polygon points="246.52 308.25 269.54 311.6 269.8 308.2 247.32 304.27 246.52 308.25"></polygon><polygon points="271.24 311.84 275.98 312.53 275.89 309.26 271.6 308.51 271.24 311.84"></polygon><polygon points="245.24 303.91 233.1 301.79 231.61 306.08 244.6 307.97 245.24 303.91"></polygon><rect x="255.43" y="305.99" width="7.94" height="4.99" rx="0.7" transform="translate(45.18 -32.92) rotate(7.95)" style="fill:#fff"></rect><polygon points="225.17 322.57 222.14 327.85 230.98 328.66 234.16 324.61 232.54 329.66 223.75 329.29 221.54 337.49 232.23 338.38 234.97 323.8 225.17 322.57" style="fill:#263238"></polygon><polygon points="225.17 322.57 222.14 327.85 230.98 328.66 234.16 324.61 232.54 329.66 223.75 329.29 221.54 337.49 232.23 338.38 234.97 323.8 225.17 322.57" style="fill:#fff;opacity:0.1"></polygon><polygon points="278.17 325.93 281.93 328.66 280.05 329.29 283.05 336.76 281.31 338.38 276.57 325.93 278.17 325.93" style="fill:#263238"></polygon><polygon points="278.17 325.93 281.93 328.66 280.05 329.29 283.05 336.76 281.31 338.38 276.57 325.93 278.17 325.93" style="fill:#fff;opacity:0.1"></polygon><path d="M319.13,289.75l-19.38.63L284,298l-8.19-1.43-24.29,5.09a7.18,7.18,0,0,1-4-6.07l24.91-5.93L284,292l12.32-5.28,1.85-5,4.85-5.5.88,1.37-3.77,4.51.23,3.82,18.55-.45S320.22,287.91,319.13,289.75Z" style="fill:#407BFF"></path><path d="M319.13,289.75l-19.38.63L284,298l-8.19-1.43-24.29,5.09a7.18,7.18,0,0,1-4-6.07l24.91-5.93L284,292l12.32-5.28,1.85-5,4.85-5.5.88,1.37-3.77,4.51.23,3.82,18.55-.45S320.22,287.91,319.13,289.75Z" style="opacity:0.30000000000000004;isolation:isolate"></path><path d="M251.54,301.66a7.18,7.18,0,0,1-4-6.07C250.8,296.66,252,300.3,251.54,301.66Z" style="fill:#fff;opacity:0.2"></path><path d="M321.43,283.2,300.5,295.6l-14.33,6.56-13.77,6.25-19.61,12.91s-6.62-.5-7.11-5.11l28.69-14.78,17.78-5.83,28.78-13.66A1.59,1.59,0,0,1,321.43,283.2Z" style="fill:#407BFF"></path><path d="M321.43,283.2,300.5,295.6l-14.33,6.56-13.77,6.25-19.61,12.91s-6.62-.5-7.11-5.11l28.69-14.78,17.78-5.83,28.78-13.66A1.59,1.59,0,0,1,321.43,283.2Z" style="opacity:0.2;isolation:isolate"></path><path d="M252.79,321.32s-6.62-.5-7.11-5.11C249.43,316.21,253.79,319.2,252.79,321.32Z" style="fill:#fff;opacity:0.2"></path><path d="M312.33,266.25l-21.26,11.84-12.87,9.08-12.34,8.75-21,10.45s-2.91,6,.82,8.71l27.22-17.34,14-12.44,26.29-18A1.62,1.62,0,0,0,312.33,266.25Z" style="fill:#407BFF"></path><path d="M312.33,266.25l-21.26,11.84-12.87,9.08-12.34,8.75-21,10.45s-2.91,6,.82,8.71l27.22-17.34,14-12.44,26.29-18A1.62,1.62,0,0,0,312.33,266.25Z" style="opacity:0.2;isolation:isolate"></path><path d="M244.84,306.37s-2.91,6,.82,8.71C247.55,311.84,247.17,306.57,244.84,306.37Z" style="fill:#fff;opacity:0.2"></path><path d="M318.69,281.87l-14.94,7.81-16.87,7.65-11.62,12.54-14,11.45s-5.36-1.25-5-5l16.09-11.69s8.22-9.24,8.5-9.61,21.22-8.32,21.22-8.32l15.44-6.88S319.07,280.66,318.69,281.87Z" style="fill:#407BFF"></path><path d="M261.28,321.32s-5.36-1.25-5-5C260.94,317.46,261.28,321.32,261.28,321.32Z" style="fill:#fff;opacity:0.2"></path><path d="M319.74,284.33,298,290.17l-17.3,2.37-35.6,13.89a6.29,6.29,0,0,1-.74-7.33l.55-.16h0l35.4-10.33,16.24-2.11,21.67-4.39S319.88,282.92,319.74,284.33Z" style="fill:#407BFF"></path><path d="M245.12,306.43a6.29,6.29,0,0,1-.74-7.33,1,1,0,0,1,.55-.16h0C246.8,298.94,248.06,304.38,245.12,306.43Z" style="fill:#fff;opacity:0.2"></path><path d="M313.4,279.35l-17.94,7.37-12.07,12.65-8.17,1.52-21,13.26a7.15,7.15,0,0,1-5.87-4.28l21.26-14.27,11.65-1.89,9.69-9.24v-5.3l2.62-6.85,1.3,1-1.95,5.55,1.56,3.49,17.22-6.9S313.77,277.25,313.4,279.35Z" style="fill:#407BFF"></path><path d="M313.4,279.35l-17.94,7.37-12.07,12.65-8.17,1.52-21,13.26a7.15,7.15,0,0,1-5.87-4.28l21.26-14.27,11.65-1.89,9.69-9.24v-5.3l2.62-6.85,1.3,1-1.95,5.55,1.56,3.49,17.22-6.9S313.77,277.25,313.4,279.35Z" style="fill:#fff;opacity:0.30000000000000004"></path><path d="M254.24,314.15a7.15,7.15,0,0,1-5.87-4.28C251.8,309.73,254.18,312.73,254.24,314.15Z" style="fill:#fff;opacity:0.2"></path><path d="M249.42,273s1.93,14,4.36,17.86,21.94,1.85,21.94,1.85,2.24-3,3.32-3.12,11.42.39,11.42.39l-3.77,11.33s-10.78,1.16-11.43-1.92c0,0-20.35,2-25.7-1.61s-7-18.15-7-18.15Z" style="fill:#b97964"></path><path d="M245.34,262.69c-10.79-4.4-3.89,25.27-3.89,25.27l12.49-4.69S249.74,264.48,245.34,262.69Z" style="fill:#407BFF"></path><path d="M245.34,262.69c-10.79-4.4-3.89,25.27-3.89,25.27l12.49-4.69S249.74,264.48,245.34,262.69Z" style="fill:#fff;opacity:0.30000000000000004"></path><path d="M297.38,290.67l8.72-3.87s4.36,4.43,4,5.21-7.84,6.93-7.84,6.93-5-.36-5.86-1.45S297.38,290.67,297.38,290.67Z" style="fill:#b97964"></path><path d="M209.62,409.35a10.36,10.36,0,0,1-2.15-.34.17.17,0,0,1-.14-.15.21.21,0,0,1,.08-.19c.26-.17,2.58-1.68,3.56-1.27a.69.69,0,0,1,.42.54,1,1,0,0,1-.25,1.05A2.22,2.22,0,0,1,209.62,409.35Zm1.21-1.57c-.53-.22-1.88.43-2.83,1,1.43.32,2.49.3,2.88-.07a.67.67,0,0,0,.15-.66.33.33,0,0,0-.2-.27Z" style="fill:#407BFF"></path><path d="M209.09,407.84a10.13,10.13,0,0,1-1.52,1.55.19.19,0,0,1-.2,0,.2.2,0,0,1-.11-.17c0-.32.13-3.08,1-3.65a.71.71,0,0,1,.68,0,1,1,0,0,1,.71.81A2.17,2.17,0,0,1,209.09,407.84Zm-.58-1.9c-.48.3-.74,1.78-.82,2.89,1.09-1,1.69-1.86,1.62-2.39a.72.72,0,0,0-.46-.51.37.37,0,0,0-.34,0Z" style="fill:#407BFF"></path><path d="M206.39,407.83l-8.65-.13a.83.83,0,0,0-.75.51h0l-2.7,6.72a1,1,0,0,0,.9,1.36c3,0,4.53-.15,8.35-.13a75,75,0,0,0,10.25-.15c3.36-.46,3.81-3.55,2.44-3.64a15.17,15.17,0,0,1-8.66-4.1A1.61,1.61,0,0,0,206.39,407.83Z" style="fill:#263238"></path></g></g><g id="Wood"><path d="M323.12,401.76l-16.06.52-13,6.32-6.78-1.19-20.12,4.21a5.93,5.93,0,0,1-3.31-5l20.63-4.9L294,403.6l10.2-4.37,1.53-4.11,4-4.56.73,1.13-3.13,3.74.2,3.16,15.36-.37S324,400.23,323.12,401.76Z" style="fill:#407BFF"></path><path d="M323.12,401.76l-16.06.52-13,6.32-6.78-1.19-20.12,4.21a5.93,5.93,0,0,1-3.31-5l20.63-4.9L294,403.6l10.2-4.37,1.53-4.11,4-4.56.73,1.13-3.13,3.74.2,3.16,15.36-.37S324,400.23,323.12,401.76Z" style="opacity:0.30000000000000004;isolation:isolate"></path><path d="M267.13,411.62a5.93,5.93,0,0,1-3.31-5C266.52,407.48,267.5,410.5,267.13,411.62Z" style="fill:#fff;opacity:0.2"></path><path d="M271.43,395.47l19.5,5.06,12.21,4.59,11.72,4.45,19,4s3.58,4.17,1.16,7.15l-25.43-8.23-13.81-7.06L271,396.49A1.29,1.29,0,0,1,271.43,395.47Z" style="fill:#407BFF"></path><path d="M271.43,395.47l19.5,5.06,12.21,4.59,11.72,4.45,19,4s3.58,4.17,1.16,7.15l-25.43-8.23-13.81-7.06L271,396.49A1.29,1.29,0,0,1,271.43,395.47Z" style="opacity:0.30000000000000004;isolation:isolate"></path><path d="M333.88,413.57s3.58,4.17,1.16,7.15C332.85,418.52,332.06,414.21,333.88,413.57Z" style="fill:#fff;opacity:0.2"></path><path d="M326.71,396.56,308,404.11l-12.55,3.59-12.05,3.41-17.67,8.13s-5.36-1.23-5.19-5.06l25.33-8.54,15.29-2.57,25.26-7.6A1.29,1.29,0,0,1,326.71,396.56Z" style="fill:#407BFF"></path><path d="M326.71,396.56,308,404.11l-12.55,3.59-12.05,3.41-17.67,8.13s-5.36-1.23-5.19-5.06l25.33-8.54,15.29-2.57,25.26-7.6A1.29,1.29,0,0,1,326.71,396.56Z" style="opacity:0.2;isolation:isolate"></path><path d="M265.76,419.24s-5.36-1.23-5.19-5.06C263.64,414.64,266.85,417.63,265.76,419.24Z" style="fill:#fff;opacity:0.2"></path><path d="M280.22,400.68,294,402.73l15.28,1.39,12.5,6.64,14.05,5.16s3.86-2.44,2.54-5.25l-15.77-4.76s-8.95-5-9.27-5.21S294.5,400,294.5,400l-13.95-1.18S279.59,399.84,280.22,400.68Z" style="fill:#407BFF"></path><path d="M280.22,400.68,294,402.73l15.28,1.39,12.5,6.64,14.05,5.16s3.86-2.44,2.54-5.25l-15.77-4.76s-8.95-5-9.27-5.21S294.5,400,294.5,400l-13.95-1.18S279.59,399.84,280.22,400.68Z" style="fill:#fff;opacity:0.2"></path><path d="M335.86,415.92s3.86-2.44,2.54-5.25A5,5,0,0,0,335.86,415.92Z" style="fill:#fff;opacity:0.2"></path><path d="M273.12,386.08l12.09,10.82,10.41,6.91,18.33,21a5.84,5.84,0,0,0,3-5.31l-.3-.28h0L297.21,401l-9.8-6.4-12.56-9.71A2.13,2.13,0,0,0,273.12,386.08Z" style="fill:#407BFF"></path><path d="M314,424.8a5.84,5.84,0,0,0,3-5.31.62.62,0,0,0-.3-.28h0C315.43,418.66,312.74,422.38,314,424.8Z" style="fill:#fff;opacity:0.2"></path><path d="M319.72,380.23,308.84,392l-13.3,5.74-3.53,5.9-16.34,12.48a5.92,5.92,0,0,0,1.64,5.79l17.2-12.41,4.82-8.5,10-4.86,4.12,1.52,6.07-.06-.38-1.29-4.87-.08L312,394.05l10.32-11.38S321.47,380.55,319.72,380.23Z" style="fill:#407BFF"></path><path d="M319.72,380.23,308.84,392l-13.3,5.74-3.53,5.9-16.34,12.48a5.92,5.92,0,0,0,1.64,5.79l17.2-12.41,4.82-8.5,10-4.86,4.12,1.52,6.07-.06-.38-1.29-4.87-.08L312,394.05l10.32-11.38S321.47,380.55,319.72,380.23Z" style="fill:#fff;opacity:0.30000000000000004"></path><path d="M275.67,416.16a5.92,5.92,0,0,0,1.64,5.79C278.4,419.33,276.76,416.62,275.67,416.16Z" style="fill:#fff;opacity:0.2"></path></g></svg>