<svg xmlns="http://www.w3.org/2000/svg" viewBox="0 0 500 500"><g id="background-simple"><path d="M486.25,238.93c6.43-56.58-12.69-113.4-52.86-153.78-19.75-19.85-46.76-38.56-82.64-47.59C250.11,12.21,184.89,35.43,152.28,97.09s-126.17,51-141,157.36,57.41,223.27,180,229.65,106.84-54.66,173.91-80.84C416.48,383.23,476.65,323.38,486.25,238.93Z" style="fill:#92E3A9"></path><path d="M486.25,238.93c6.43-56.58-12.69-113.4-52.86-153.78-19.75-19.85-46.76-38.56-82.64-47.59C250.11,12.21,184.89,35.43,152.28,97.09s-126.17,51-141,157.36,57.41,223.27,180,229.65,106.84-54.66,173.91-80.84C416.48,383.23,476.65,323.38,486.25,238.93Z" style="fill:#fff;opacity:0.7000000000000001"></path></g><g id="Tree"><path d="M426.21,169.41c0,62.85-31.79,87.93-71,87.93s-71-25.08-71-87.93S316,14.25,355.22,14.25,426.21,106.57,426.21,169.41Z" style="fill:#92E3A9"></path><path d="M426.21,169.41c0,62.85-31.79,87.93-71,87.93s-71-25.08-71-87.93S316,14.25,355.22,14.25,426.21,106.57,426.21,169.41Z" style="fill:#fff;opacity:0.5"></path><polygon points="345.08 440.59 363.97 440.59 356.74 182.09 357.37 190.29 395.37 144.4 356.7 180.92 355.34 132.06 371.71 112.85 355.15 125.27 354.5 102.09 353.26 146.47 334.42 134.36 353.12 151.72 345.08 440.59" style="fill:#bababa"></polygon><polygon points="350.91 220.41 317.93 198.18 350.91 228.3 350.91 220.41" style="fill:#bababa"></polygon></g><g id="Clouds"><g style="opacity:0.30000000000000004"><path d="M211.71,26.79A37.51,37.51,0,0,0,199.1,43.12s-3.27-7-15.86-3.49-15.14,12-15.14,12-3.55-5-10.76-2.5S149,59.6,149,59.6H252.41" style="fill:none;stroke:#000;stroke-linecap:round;stroke-linejoin:round"></path><path d="M259.63,59.6h34.66s-2.34-12-9.38-17-20-.49-20-.49-2.5-18-29.79-21a34,34,0,0,0-18.3,2.68" style="fill:none;stroke:#000;stroke-linecap:round;stroke-linejoin:round"></path><path d="M434.21,253a23.25,23.25,0,0,0-4.81,7.5s-2-4.33-9.83-2.17-9.37,7.42-9.37,7.42-2.2-3.09-6.67-1.54-5.15,6.49-5.15,6.49h44.43" style="fill:none;stroke:#000;stroke-linecap:round;stroke-linejoin:round"></path><path d="M450.62,270.68h37.73s-1.44-7.42-5.81-10.51-12.4-.31-12.4-.31-1.55-11.13-18.45-13a21.33,21.33,0,0,0-10.61,1.35" style="fill:none;stroke:#000;stroke-linecap:round;stroke-linejoin:round"></path><path d="M162.27,21.24c-9.15-1-12.07,7.37-12.07,7.37s-1.1-2.34-5.33-1.17-5.07,4-5.07,4a3.08,3.08,0,0,0-3.61-.84,4.58,4.58,0,0,0-2.79,3.52h48.73s-.78-4-3.15-5.7-6.71-.16-6.71-.16a6.92,6.92,0,0,0-1.57-3.14" style="fill:none;stroke:#000;stroke-linecap:round;stroke-linejoin:round"></path></g></g><g id="Character"><path d="M120.61,336.91c11.64,0,40.57-22.78,40.57-22.78s-.68,81.65-1,95.85c-.3,12.53-3,25.33-2.92,30.61H298.4a16.93,16.93,0,0,0,0-5.76c-1.37-8.87-8.22-102.95-8.22-105.08s0-17-.68-19.53,21.22,18.11,30.8,18.82,25.33-15.27,24.65-26.63-29.78-33.72-39.71-43.66-22.93-17.75-33.2-20.59-26-2.84-26-2.84L179,244.55s-15.4.71-23.62,3.55-44.14,63.53-45.17,72.4S109,336.91,120.61,336.91Z" style="fill:#92E3A9;stroke:#263238;stroke-linecap:round;stroke-linejoin:round"></path><polyline points="155.02 283.92 161.18 311.3 152.97 296.24" style="fill:none;stroke:#263238;stroke-linecap:round;stroke-linejoin:round"></polyline><path d="M220.05,270.23s0,39,1.37,40,4.79,2.05,4.79-.34-3.08-41.41-3.08-41.41A2.18,2.18,0,0,0,220.05,270.23Z" style="fill:#fff;stroke:#263238;stroke-linecap:round;stroke-linejoin:round"></path><path d="M203,223.34s-5.5.68-13,5.47-14.37,16.43-14.37,16.43,19.51,6.85,25.67,9.93,20.19,12.32,20.19,12.32,15.74-12,21.22-14.72,26-14.37,26-14.37-4.11-7.88-14.72-13-26.35-3.08-27.38-3.08S203,223.34,203,223.34Z" style="fill:#92E3A9;stroke:#263238;stroke-linecap:round;stroke-linejoin:round"></path><path d="M197.63,208.59s-.85,33.91-.51,36.31,23.61,21.22,23.61,21.22,21.57-21.56,21.57-22.59-2.4-30.8-2.4-30.8Z" style="fill:#fff;stroke:#263238;stroke-linecap:round;stroke-linejoin:round"></path><path d="M226.55,222.31l7.32-2.9L201,208.92l-3.35-.33s-.33,13.35-.5,23.89Z" style="fill:#263238;stroke:#263238;stroke-linecap:round;stroke-linejoin:round"></path><path d="M242.63,128.11s-.3-8.56-13.88-12.11-46.65,3.25-52,17.13,3.84,13,3.84,13-13,10.63-8.56,18.9,10.35,8.86,10.35,8.86.57,3.57,2.93,5a47.25,47.25,0,0,1,5.61,4.43l.59-13.88,30.71-15.65,18.31,17.42,5.61,13.29s3.84-1.18,4.43-2.95.29-7.09,3.54-10.63,3.55-18.61,3.55-18.61,5.9-5,3.83-14.47-15.65-9.74-15.65-9.74,3.84-4.43.6-4.13S242.63,128.11,242.63,128.11Z" style="fill:#263238;stroke:#263238;stroke-linecap:round;stroke-linejoin:round"></path><path d="M187.71,180.35s-9.11-4.34-9.54,4.33,12.58,13,12.58,13Z" style="fill:#fff;stroke:#263238;stroke-linecap:round;stroke-linejoin:round"></path><path d="M246.79,180.35s9.11-4.34,9.54,4.33-12.58,13-12.58,13Z" style="fill:#fff;stroke:#263238;stroke-linecap:round;stroke-linejoin:round"></path><path d="M215.91,145.21S192.05,165.6,190.31,166a36.26,36.26,0,0,0-3.9,1.3s3.47,35.57,8.24,44.25,20.39,14.75,26.46,14.75,20.82-10,23-16.92,2.6-32.1,2.6-32.1l-3.47-12.58s-1.3-3.47-8.24-10.84-8.24-10-8.24-10-7.81,7.37-13.45,8.67S215.91,145.21,215.91,145.21Z" style="fill:#fff;stroke:#263238;stroke-linecap:round;stroke-linejoin:round"></path><path d="M220.77,172s1.28,13.78,1.92,18,2.57,8.65-.32,9-6.09.64-7.05-1.92" style="fill:none;stroke:#263238;stroke-linecap:round;stroke-linejoin:round"></path><path d="M223.73,208.51a2.61,2.61,0,1,1-2.61-2.57A2.59,2.59,0,0,1,223.73,208.51Z" style="fill:#263238"></path><path d="M230.62,178.61c0,2.23-1.17,4-2.61,4s-2.61-1.82-2.61-4,1.17-4.05,2.61-4.05S230.62,176.37,230.62,178.61Z" style="fill:#263238"></path><path d="M225.8,182.15s2.65,7.08,9.44,7.38" style="fill:none;stroke:#263238;stroke-linecap:round;stroke-linejoin:round"></path><path d="M209.26,180.37a14.26,14.26,0,0,0-13.86,3.71" style="fill:none;stroke:#263238;stroke-linecap:round;stroke-linejoin:round;stroke-width:2px"></path><path d="M209.85,183s-4.43,9.45-13.88,5.32" style="fill:none;stroke:#263238;stroke-linecap:round;stroke-linejoin:round"></path><path d="M193.32,181.85s.88-4.43,6.2-7.38" style="fill:none;stroke:#263238;stroke-linecap:round;stroke-linejoin:round"></path><path d="M211,163.25s1.59,1.18-3.25,3.54c-3,1.48-7.34,1.8-10.66,3.13" style="fill:none;stroke:#263238;stroke-linecap:round;stroke-linejoin:round"></path><path d="M221.37,162.07s-.3,2.65,3.25,3.84c2.6.86,8.86,1.89,12.94,5.41" style="fill:#fff;stroke:#263238;stroke-linecap:round;stroke-linejoin:round"></path><path d="M260.4,254.44s-6.16-8.63-8.93-15.4-5.11-6.91-7.88-9.68-2.7-2.32-2.7-2.32l.94,11.45,1,5.52s-3.71,4.89-8.33,4.89-16.94-5.55-21.26-9.25-4.62,0-4.62,1.24a19.13,19.13,0,0,0,1.23,4.31s-5.85-.62-5.54,2.15,5.85,7.4,5.85,7.4-4.93,2.15-1.85,5.85,10.79,9.55,12.33,10.47,6.16,1.85,6.16,1.85a10,10,0,0,1-8,1.54c-4.32-1.23-4.93,4-2.47,4.93s9.24,2.77,14.79,1.23,17.56-4.93,17.56-4.93,28.17,22.26,29.53,24,20.88,20.54,25.33,24.3,10.61,7.87,19.85,8.56,18.83-3.08,21.91-12,4.79-21.22-2.74-28.07-28.41-12.66-35.25-15.4S295,273,289.87,269.88,260.4,254.44,260.4,254.44Z" style="fill:#fff;stroke:#263238;stroke-linecap:round;stroke-linejoin:round"></path><path d="M209.88,245.2s13.56,12,15.1,13.24,9.24,2.78,9.24,2.78" style="fill:none;stroke:#263238;stroke-linecap:round;stroke-linejoin:round"></path><path d="M210.19,254.75s8.63,9.24,12.32,11.39a38.49,38.49,0,0,0,8.94,3.39" style="fill:none;stroke:#263238;stroke-linecap:round;stroke-linejoin:round"></path><path d="M342.58,292.47c-7.53-6.84-28.41-12.66-35.25-15.4-.93-.37-1.82-.71-2.69-1a29.43,29.43,0,0,1-3.82,13.35c-3.89,7.38-10.35,13.89-14.92,17.94,6.42,6.23,14.91,14.31,17.66,16.63,4.45,3.77,10.61,7.87,19.85,8.56s18.83-3.08,21.91-12S350.11,299.32,342.58,292.47Z" style="fill:#92E3A9;stroke:#263238;stroke-linecap:round;stroke-linejoin:round"></path><path d="M314.17,281.86s.34,24-19.85,31.49" style="fill:none;stroke:#263238;stroke-linecap:round;stroke-linejoin:round"></path><line x1="226.83" y1="272.92" x2="231.75" y2="274.15" style="fill:none;stroke:#263238;stroke-linecap:round;stroke-linejoin:round"></line><path d="M135.77,225.33s-6.48-12.2-6.48-14.66-.89-2.8-2.74-7.42-6.16-7.08-4-9.24,8.31-.62,8.93.62,3.7,8,3.7,8l4.62-4.31s3.69-14.78,5.54-19.4,5.24-9.24,6.78-6.16-1.23,10.47-1.23,10.47L149,191.85l3.08-3.08s2.82-6,4-9.65,3.8-11.7,4.73-13.24,5.74-1,5.43,3.31-6.62,25.06-6.62,25.06a67,67,0,0,1,5.68-8.28c2.46-2.77,5.83-8.29,8.29-10.13s4,.3,4,2.77-3.39,8-4.93,10.16-6.47,11.71-6.47,11.71,4.62.31,7.08-.93,10.17-5.23,11.4-2.77.92,4.31-1.23,5.24-6.16,2.77-8.63,3.7-6.77,4.62-6.77,4.62-3.92,14-8.85,19a52,52,0,0,0-7.69,9.77s-5.14,66.06-7.19,74.27-3.08,17.11-15.4,21.56-17.11,1.36-21.9-4.8-7.53-23.28-4.79-33.89S135.77,225.33,135.77,225.33Z" style="fill:#fff;stroke:#263238;stroke-linecap:round;stroke-linejoin:round"></path><path d="M128.67,287c-9.9-.25-15.06-5-18.7-7.78-3.87,7.55-6.87,13.95-7.65,17-2.74,10.61,0,27.73,4.79,33.89s9.58,9.25,21.9,4.8,13.35-13.34,15.4-21.56c.81-3.25,2.11-15.58,3.38-29.29C142.08,285.68,135,287.16,128.67,287Z" style="fill:#92E3A9;stroke:#263238;stroke-linecap:round;stroke-linejoin:round"></path><path d="M106.08,293.48s9.24,14.74,39.36,5.5" style="fill:none;stroke:#263238;stroke-linecap:round;stroke-linejoin:round"></path><path d="M130.28,270.77a4.76,4.76,0,1,1-4.74-5.25A5,5,0,0,1,130.28,270.77Z" style="fill:#92E3A9"></path><path d="M130.28,270.77a4.76,4.76,0,1,1-4.74-5.25A5,5,0,0,1,130.28,270.77Z" style="fill:#fff;opacity:0.6900000000000001"></path><ellipse cx="135.19" cy="257.16" rx="2.54" ry="2.81" style="fill:#92E3A9"></ellipse><ellipse cx="135.19" cy="257.16" rx="2.54" ry="2.81" style="fill:#fff;opacity:0.6900000000000001"></ellipse><path d="M140.94,266.6a2.55,2.55,0,1,1-2.54-2.81A2.68,2.68,0,0,1,140.94,266.6Z" style="fill:#92E3A9"></path><path d="M140.94,266.6a2.55,2.55,0,1,1-2.54-2.81A2.68,2.68,0,0,1,140.94,266.6Z" style="fill:#fff;opacity:0.6900000000000001"></path><path d="M238.44,229.8A2.55,2.55,0,1,1,235.9,227,2.69,2.69,0,0,1,238.44,229.8Z" style="fill:#92E3A9"></path><path d="M238.44,229.8A2.55,2.55,0,1,1,235.9,227,2.69,2.69,0,0,1,238.44,229.8Z" style="fill:#fff;opacity:0.6900000000000001"></path><ellipse cx="231.5" cy="240.3" rx="2.54" ry="2.81" style="fill:#92E3A9"></ellipse><ellipse cx="231.5" cy="240.3" rx="2.54" ry="2.81" style="fill:#fff;opacity:0.6900000000000001"></ellipse><ellipse cx="226.83" cy="231.61" rx="3.97" ry="4.39" style="fill:#92E3A9"></ellipse><ellipse cx="226.83" cy="231.61" rx="3.97" ry="4.39" style="fill:#fff;opacity:0.6900000000000001"></ellipse></g><g id="Flowers"><line x1="285.6" y1="371.42" x2="328.79" y2="440.98" style="fill:none;stroke:#263238;stroke-linecap:round;stroke-linejoin:round"></line><path d="M276.18,372.91s-14.11,8.6-19.49,11.29-5.71,4.7-.33,6.72,13.44-4.37,16.8-8.74,5.72-8.07,5.72-8.07Z" style="fill:#fff;stroke:#263238;stroke-linecap:round;stroke-linejoin:round"></path><path d="M278.88,374.11s-5.38,10.09-7.73,13.79-.67,7.39,1.68,7.73,8.4-.34,9.08-4.37.67-16.47.67-16.47Z" style="fill:#fff;stroke:#263238;stroke-linecap:round;stroke-linejoin:round"></path><path d="M282.58,372.43s-.34,20.17.33,21.18,6,1.35,9.08-2.35-4.71-19.5-4.71-19.5Z" style="fill:#fff;stroke:#263238;stroke-linecap:round;stroke-linejoin:round"></path><path d="M285.6,371.42S295,388.57,296,388.9s8.74-4.37,9.42-6.38S290,370.42,290,370.42A18,18,0,0,0,285.6,371.42Z" style="fill:#fff;stroke:#263238;stroke-linecap:round;stroke-linejoin:round"></path><path d="M290,370.42s13.11,13.11,15.47,12.1,6.72-5.38,5.37-7.06-17.14-7.06-17.14-7.06Z" style="fill:#fff;stroke:#263238;stroke-linecap:round;stroke-linejoin:round"></path><path d="M292.33,369.41s.67-2.69,2.69-2.69,20.16.67,20.16,2.35c0,1.44-3.42,6.54-4.43,8l-.27.4Z" style="fill:#fff;stroke:#263238;stroke-linecap:round;stroke-linejoin:round"></path><path d="M293.33,366.72s20.85,2.69,22.86,0a7,7,0,0,0,1.08-3.59A4,4,0,0,0,312.2,359c-6.56,1.89-17.82,5.14-18.53,5.38C292.66,364.7,293.33,366.72,293.33,366.72Z" style="fill:#fff;stroke:#263238;stroke-linecap:round;stroke-linejoin:round"></path><path d="M290.65,365s16.13-5.38,19.16-6.73a5.43,5.43,0,0,0,2.35-7.73c-1.68-2.35-8.74.34-11.77,3.36S288,365.37,288,365.37Z" style="fill:#fff;stroke:#263238;stroke-linecap:round;stroke-linejoin:round"></path><path d="M288,365.37s12.1-11.43,12.43-12.77-1.68-1-6.72,0-8,10.61-9,12.7S288,365.37,288,365.37Z" style="fill:#fff;stroke:#263238;stroke-linecap:round;stroke-linejoin:round"></path><path d="M285.6,367.73s2.69-14.12,0-15.13-6.72.67-6.38,5.38,2.35,12.1,4.37,12.77S285.6,367.73,285.6,367.73Z" style="fill:#fff;stroke:#263238;stroke-linecap:round;stroke-linejoin:round"></path><path d="M282.91,368.74s-4.7-8.74-6.72-12.11-5.71-1.68-7.4,1.68,10.43,14.12,12.11,14.12S282.91,368.74,282.91,368.74Z" style="fill:#fff;stroke:#263238;stroke-linecap:round;stroke-linejoin:round"></path><path d="M283.59,370.75s.67,3.7-4.71,3.36S257,367.73,257,365a5.29,5.29,0,0,1,8.4-3.7c4.37,3,16.81,9.41,16.81,9.41Z" style="fill:#fff;stroke:#263238;stroke-linecap:round;stroke-linejoin:round"></path><path d="M278.88,372.77s-10.42,0-19.16-3-11.43-.67-12.1,2.36,12.1,5,21.17,5S283.59,373.11,278.88,372.77Z" style="fill:#fff;stroke:#263238;stroke-linecap:round;stroke-linejoin:round"></path><path d="M277.2,373.44s-18.83,3.7-24.2,4.37-4.37,4.37-1.35,6.39,14.79-2,21.18-5.38S279.22,373.11,277.2,373.44Z" style="fill:#fff;stroke:#263238;stroke-linecap:round;stroke-linejoin:round"></path><path d="M273.42,373.8c.94,2.52,6.33,2.85,12,.74s9.59-5.88,8.66-8.4-6.33-2.86-12-.75S272.49,371.27,273.42,373.8Z" style="fill:#92E3A9;stroke:#263238;stroke-linecap:round;stroke-linejoin:round"></path><path d="M315.43,419.9s-7.25-6.21-14-8.54-15,.52-21.5,3.88-23.3,9.07-23.3,9.07,11.65,5.18,20.71,5.43S315.43,419.9,315.43,419.9Z" style="fill:#263238;stroke:#263238;stroke-linecap:round;stroke-linejoin:round"></path><path d="M322.16,430A40.62,40.62,0,0,1,325,416.28c2.85-7,15.28-15,16.06-15.8s2.59,10.1-5.7,20.2S322.16,430,322.16,430Z" style="fill:#263238;stroke:#263238;stroke-linecap:round;stroke-linejoin:round"></path><path d="M310,410.58s-.77-3.88,1-10.87S318.54,379,318.54,379s3.11,11.13.78,19.42A21.59,21.59,0,0,1,310,410.58Z" style="fill:#263238;stroke:#263238;stroke-linecap:round;stroke-linejoin:round"></path><line x1="357.51" y1="380.19" x2="360.63" y2="440.58" style="fill:none;stroke:#263238;stroke-linecap:round;stroke-linejoin:round"></line><path d="M351.11,380.67S337,389.26,331.63,392s-5.72,4.71-.34,6.72,13.45-4.37,16.81-8.74,5.71-8.06,5.71-8.06Z" style="fill:#fff;stroke:#263238;stroke-linecap:round;stroke-linejoin:round"></path><path d="M353.81,381.87s-5.37,10.08-7.73,13.78-.67,7.39,1.68,7.73,8.41-.34,9.08-4.37.67-16.47.67-16.47Z" style="fill:#fff;stroke:#263238;stroke-linecap:round;stroke-linejoin:round"></path><path d="M357.51,380.19s-.33,20.17.34,21.17,6,1.35,9.07-2.35-4.7-19.5-4.7-19.5Z" style="fill:#fff;stroke:#263238;stroke-linecap:round;stroke-linejoin:round"></path><path d="M360.54,379.18S370,396.32,371,396.66s8.74-4.37,9.41-6.39-15.46-12.1-15.46-12.1A18,18,0,0,0,360.54,379.18Z" style="fill:#fff;stroke:#263238;stroke-linecap:round;stroke-linejoin:round"></path><path d="M364.91,378.17s13.11,13.11,15.46,12.1,6.72-5.38,5.38-7.06-17.14-7.06-17.14-7.06Z" style="fill:#fff;stroke:#263238;stroke-linecap:round;stroke-linejoin:round"></path><path d="M367.26,377.16s.67-2.69,2.69-2.69,20.17.67,20.17,2.35c0,1.44-3.43,6.54-4.43,8l-.28.4Z" style="fill:#fff;stroke:#263238;stroke-linecap:round;stroke-linejoin:round"></path><path d="M368.27,374.47s20.84,2.69,22.86,0a7.33,7.33,0,0,0,1.09-4,3.79,3.79,0,0,0-4.86-3.81c-6.54,1.88-18,5.2-18.75,5.44C367.6,372.45,368.27,374.47,368.27,374.47Z" style="fill:#fff;stroke:#263238;stroke-linecap:round;stroke-linejoin:round"></path><path d="M365.58,372.79s16.14-5.38,19.16-6.72a5.43,5.43,0,0,0,2.35-7.73c-1.68-2.36-8.74.33-11.76,3.36s-12.44,11.43-12.44,11.43Z" style="fill:#fff;stroke:#263238;stroke-linecap:round;stroke-linejoin:round"></path><path d="M362.89,373.13s12.1-11.43,12.44-12.78-1.68-1-6.72,0-8,10.61-9,12.7S362.89,373.13,362.89,373.13Z" style="fill:#fff;stroke:#263238;stroke-linecap:round;stroke-linejoin:round"></path><path d="M360.54,375.48s2.69-14.12,0-15.13-6.73.67-6.39,5.38,2.35,12.1,4.37,12.78S360.54,375.48,360.54,375.48Z" style="fill:#fff;stroke:#263238;stroke-linecap:round;stroke-linejoin:round"></path><path d="M357.85,376.49s-4.71-8.74-6.72-12.1-5.72-1.68-7.4,1.68,10.42,14.12,12.1,14.12S357.85,376.49,357.85,376.49Z" style="fill:#fff;stroke:#263238;stroke-linecap:round;stroke-linejoin:round"></path><path d="M358.52,378.51s.67,3.69-4.71,3.36S332,375.48,332,372.79a5.3,5.3,0,0,1,8.41-3.7c4.37,3,16.81,9.42,16.81,9.42Z" style="fill:#fff;stroke:#263238;stroke-linecap:round;stroke-linejoin:round"></path><path d="M353.81,380.52s-10.42,0-19.16-3-11.43-.68-12.1,2.35,12.1,5,21.18,5S358.52,380.86,353.81,380.52Z" style="fill:#fff;stroke:#263238;stroke-linecap:round;stroke-linejoin:round"></path><path d="M352.13,381.19s-18.82,3.7-24.2,4.37-4.37,4.37-1.34,6.39,14.79-2,21.17-5.38S354.15,380.86,352.13,381.19Z" style="fill:#fff;stroke:#263238;stroke-linecap:round;stroke-linejoin:round"></path><path d="M348.36,381.55c.93,2.52,6.32,2.86,12,.74s9.59-5.88,8.65-8.4-6.32-2.86-12-.74S347.42,379,348.36,381.55Z" style="fill:#92E3A9;stroke:#263238;stroke-linecap:round;stroke-linejoin:round"></path><path d="M360.49,436.22a26.41,26.41,0,0,1,4.4-10.88c3.63-4.92,17.87-14,17.87-14s0,14.76-5.44,18.9S360.49,436.22,360.49,436.22Z" style="fill:#263238;stroke:#263238;stroke-linecap:round;stroke-linejoin:round"></path><path d="M359.71,425.34s.26-2.59-3.88-7.51-16.06-10.61-16.06-10.61,2.85,8,5.7,11.91S359.71,425.34,359.71,425.34Z" style="fill:#263238;stroke:#263238;stroke-linecap:round;stroke-linejoin:round"></path><line x1="116.18" y1="395.21" x2="104.4" y2="440.58" style="fill:none;stroke:#263238;stroke-linecap:round;stroke-linejoin:round"></line><path d="M111.33,394.08s-12.43,3.06-17,3.79S89,400,92.49,402.76s11-.09,14.46-2.54,6.1-4.63,6.1-4.63Z" style="fill:#fff;stroke:#263238;stroke-linecap:round;stroke-linejoin:round"></path><path d="M113.05,395.59s-6.33,6.2-8.93,8.39-2.22,5.31-.56,6.1,6.29,1.71,7.73-1.11,4.34-12,4.34-12Z" style="fill:#fff;stroke:#263238;stroke-linecap:round;stroke-linejoin:round"></path><path d="M116.18,395.21s-5,14.83-4.69,15.73,4.16,2.41,7.25.38,1.07-15.51,1.07-15.51Z" style="fill:#fff;stroke:#263238;stroke-linecap:round;stroke-linejoin:round"></path><path d="M118.65,395.17s3,14.87,3.62,15.35,7.48-1.19,8.45-2.52-8.61-12.55-8.61-12.55A13.93,13.93,0,0,0,118.65,395.17Z" style="fill:#fff;stroke:#263238;stroke-linecap:round;stroke-linejoin:round"></path><path d="M122.11,395.45s6.64,12.74,8.61,12.55,6.22-2.41,5.62-4-11-9.21-11-9.21Z" style="fill:#fff;stroke:#263238;stroke-linecap:round;stroke-linejoin:round"></path><path d="M124.09,395.25s1.12-1.83,2.61-1.36,14.75,5.2,14.36,6.44c-.33,1.06-4.06,4-5.14,4.89l-.3.23Z" style="fill:#fff;stroke:#263238;stroke-linecap:round;stroke-linejoin:round"></path><path d="M125.46,393.5s14.78,6.85,16.9,5.33a5.65,5.65,0,0,0,1.73-2.69,3,3,0,0,0-2.7-3.95c-5.27-.14-14.54-.36-15.13-.35C125.43,391.85,125.46,393.5,125.46,393.5Z" style="fill:#fff;stroke:#263238;stroke-linecap:round;stroke-linejoin:round"></path><path d="M123.86,391.63s13.18-.21,15.73-.5a4.22,4.22,0,0,0,3.55-5.17c-.7-2.13-6.54-1.79-9.48-.26s-11.86,5.55-11.86,5.55Z" style="fill:#fff;stroke:#263238;stroke-linecap:round;stroke-linejoin:round"></path><path d="M121.8,391.25s11.61-5.63,12.17-6.54-1-1.14-5-1.57-8.36,6-9.63,7.28S121.8,391.25,121.8,391.25Z" style="fill:#fff;stroke:#263238;stroke-linecap:round;stroke-linejoin:round"></path><path d="M119.51,392.44s5.28-9.81,3.53-11.18-5.13-1.07-6,2.49-1.08,9.49.25,10.46S119.51,392.44,119.51,392.44Z" style="fill:#fff;stroke:#263238;stroke-linecap:round;stroke-linejoin:round"></path><path d="M117.29,392.56s-1.44-7.56-2.15-10.51-3.83-2.58-5.86-.49,4.41,12.87,5.65,13.26S117.29,392.56,117.29,392.56Z" style="fill:#fff;stroke:#263238;stroke-linecap:round;stroke-linejoin:round"></path><path d="M117.31,394.21s-.36,2.89-4.26,1.38-14.66-9.81-14-11.8a4.1,4.1,0,0,1,7.07-.77c2.53,3.25,10.23,10.87,10.23,10.87Z" style="fill:#fff;stroke:#263238;stroke-linecap:round;stroke-linejoin:round"></path><path d="M113.37,394.6a52.7,52.7,0,0,1-13.46-6.7c-5.76-4.28-8.29-3.17-9.49-1.09s7.76,6.55,14.47,8.67S116.77,396,113.37,394.6Z" style="fill:#fff;stroke:#263238;stroke-linecap:round;stroke-linejoin:round"></path><path d="M112,394.7s-14.78-1.65-18.91-2.41-4.25,2.21-2.49,4.41,11.41,2,16.91,1S113.54,394.93,112,394.7Z" style="fill:#fff;stroke:#263238;stroke-linecap:round;stroke-linejoin:round"></path><path d="M109.09,394.09c.1,2.08,4,3.58,8.73,3.35s8.46-2.11,8.36-4.19-4-3.59-8.73-3.36S109,392,109.09,394.09Z" style="fill:#92E3A9;stroke:#263238;stroke-linecap:round;stroke-linejoin:round"></path><path d="M105.31,437.32a20.36,20.36,0,0,1,5.79-7c3.83-2.79,16.47-6.17,16.47-6.17s-3.44,10.91-8.43,12.71S105.31,437.32,105.31,437.32Z" style="fill:#263238;stroke:#263238;stroke-linecap:round;stroke-linejoin:round"></path><path d="M107.27,429.1s.8-1.85-1.12-6.45-9.39-11.59-9.39-11.59.24,6.59,1.44,10.13S107.27,429.1,107.27,429.1Z" style="fill:#263238;stroke:#263238;stroke-linecap:round;stroke-linejoin:round"></path><line x1="82.96" y1="380.19" x2="79.84" y2="440.58" style="fill:none;stroke:#263238;stroke-linecap:round;stroke-linejoin:round"></line><path d="M77.58,373.13s-12.1-11.43-12.44-12.78,1.68-1,6.73,0,8,10.61,9,12.7S77.58,373.13,77.58,373.13Z" style="fill:#fff;stroke:#263238;stroke-linecap:round;stroke-linejoin:round"></path><path d="M79.94,375.48s-2.69-14.12,0-15.13,6.72.67,6.38,5.38S84,377.83,82,378.51,79.94,375.48,79.94,375.48Z" style="fill:#fff;stroke:#263238;stroke-linecap:round;stroke-linejoin:round"></path><path d="M82.62,376.49s4.71-8.74,6.73-12.1,5.71-1.68,7.39,1.68-10.42,14.12-12.1,14.12S82.62,376.49,82.62,376.49Z" style="fill:#fff;stroke:#263238;stroke-linecap:round;stroke-linejoin:round"></path><path d="M82,378.51s-.67,3.69,4.71,3.36,21.85-6.39,21.85-9.08a5.3,5.3,0,0,0-8.41-3.7c-4.37,3-16.8,9.42-16.8,9.42Z" style="fill:#fff;stroke:#263238;stroke-linecap:round;stroke-linejoin:round"></path><path d="M86.66,380.52s10.42,0,19.16-3,11.43-.68,12.1,2.35-12.1,5-21.18,5S82,380.86,86.66,380.52Z" style="fill:#fff;stroke:#263238;stroke-linecap:round;stroke-linejoin:round"></path><path d="M88.34,381.19s18.82,3.7,24.2,4.37,4.37,4.37,1.35,6.39-14.79-2-21.18-5.38S86.32,380.86,88.34,381.19Z" style="fill:#fff;stroke:#263238;stroke-linecap:round;stroke-linejoin:round"></path><path d="M89.36,380.67s12.33,11,17.14,14.6,4.77,5.66-.88,6.68-12.44-6.72-15-11.62-4.17-9-4.17-9Z" style="fill:#fff;stroke:#263238;stroke-linecap:round;stroke-linejoin:round"></path><path d="M86.66,381.87S92,392,94.39,395.65s.67,7.39-1.68,7.73-8.4-.34-9.08-4.37S83,382.54,83,382.54Z" style="fill:#fff;stroke:#263238;stroke-linecap:round;stroke-linejoin:round"></path><path d="M83,380.19s.34,20.17-.34,21.17-6.05,1.35-9.07-2.35,4.7-19.5,4.7-19.5Z" style="fill:#fff;stroke:#263238;stroke-linecap:round;stroke-linejoin:round"></path><path d="M80,378.66s-7.32,18.13-8.29,18.58-9.19-3.31-10.1-5.23,13.93-13.84,13.93-13.84A18,18,0,0,1,80,378.66Z" style="fill:#fff;stroke:#263238;stroke-linecap:round;stroke-linejoin:round"></path><path d="M75.56,378.17s-10.45,15.31-13,14.76S55,388.89,56,387s15.54-10.12,15.54-10.12Z" style="fill:#fff;stroke:#263238;stroke-linecap:round;stroke-linejoin:round"></path><path d="M73.48,376.69a3.43,3.43,0,0,0-3.28-2c-2.25.26-22.45,3.19-22.28,4.65.15,1.25,4.48,5.24,5.75,6.39l.35.31Z" style="fill:#fff;stroke:#263238;stroke-linecap:round;stroke-linejoin:round"></path><path d="M72.2,374.47s-20.84,2.69-22.86,0a7.33,7.33,0,0,1-1.09-4,3.8,3.8,0,0,1,4.87-3.81c6.53,1.88,18,5.2,18.75,5.44C72.88,372.45,72.2,374.47,72.2,374.47Z" style="fill:#fff;stroke:#263238;stroke-linecap:round;stroke-linejoin:round"></path><path d="M74.89,373.94s-16.13-5.38-19.16-6.72a5.45,5.45,0,0,1-2.35-7.74c1.68-2.35,8.74.34,11.76,3.37s12.44,11.42,12.44,11.42Z" style="fill:#fff;stroke:#263238;stroke-linecap:round;stroke-linejoin:round"></path><path d="M92.12,381.55c-.94,2.52-6.33,2.86-12,.74s-9.6-5.88-8.66-8.4,6.32-2.86,12-.74S93.05,379,92.12,381.55Z" style="fill:#92E3A9;stroke:#263238;stroke-linecap:round;stroke-linejoin:round"></path><path d="M80,436.22a26.25,26.25,0,0,0-4.4-10.88c-3.63-4.92-17.87-14-17.87-14s0,14.76,5.44,18.9S80,436.22,80,436.22Z" style="fill:#263238;stroke:#263238;stroke-linecap:round;stroke-linejoin:round"></path><path d="M80.76,425.34s-.26-2.59,3.88-7.51,16.06-10.61,16.06-10.61-2.85,8-5.7,11.91S80.76,425.34,80.76,425.34Z" style="fill:#263238;stroke:#263238;stroke-linecap:round;stroke-linejoin:round"></path><line x1="415" y1="356.22" x2="393.29" y2="439.37" style="fill:none;stroke:#263238;stroke-linecap:round;stroke-linejoin:round"></line><path d="M407.4,359.17s-14.1,8.59-19.48,11.28-5.71,4.71-.33,6.73,13.44-4.37,16.8-8.74,5.72-8.07,5.72-8.07Z" style="fill:#fff;stroke:#263238;stroke-linecap:round;stroke-linejoin:round"></path><path d="M410.11,360.37s-5.38,10.08-7.73,13.78-.68,7.4,1.68,7.73,8.4-.33,9.07-4.37.68-16.47.68-16.47Z" style="fill:#fff;stroke:#263238;stroke-linecap:round;stroke-linejoin:round"></path><path d="M413.81,358.69s-.34,20.17.33,21.17,6.05,1.35,9.08-2.35-4.71-19.5-4.71-19.5Z" style="fill:#fff;stroke:#263238;stroke-linecap:round;stroke-linejoin:round"></path><path d="M416.83,357.68s9.41,17.14,10.42,17.48,8.74-4.37,9.41-6.39-15.46-12.1-15.46-12.1A18.14,18.14,0,0,0,416.83,357.68Z" style="fill:#fff;stroke:#263238;stroke-linecap:round;stroke-linejoin:round"></path><path d="M421.2,356.67s13.11,13.11,15.46,12.1,6.73-5.38,5.38-7.06-17.14-7.06-17.14-7.06Z" style="fill:#fff;stroke:#263238;stroke-linecap:round;stroke-linejoin:round"></path><path d="M423.55,355.66s.68-2.69,2.69-2.69,20.17.67,20.17,2.36c0,1.43-3.42,6.53-4.43,8l-.27.4Z" style="fill:#fff;stroke:#263238;stroke-linecap:round;stroke-linejoin:round"></path><path d="M424.56,353s20.84,2.69,22.86,0a8.06,8.06,0,0,0,1.11-4.61,3.44,3.44,0,0,0-4.4-3.32c-6.42,1.85-18.49,5.33-19.23,5.58C423.89,351,424.56,353,424.56,353Z" style="fill:#fff;stroke:#263238;stroke-linecap:round;stroke-linejoin:round"></path><path d="M421.87,351.29S438,345.91,441,344.57s4-5.38,2.36-7.73-8.74.33-11.77,3.36-12.44,11.43-12.44,11.43Z" style="fill:#fff;stroke:#263238;stroke-linecap:round;stroke-linejoin:round"></path><path d="M419.18,351.63s12.11-11.43,12.44-12.78-1.68-1-6.72,0-8,10.61-9,12.7S419.18,351.63,419.18,351.63Z" style="fill:#fff;stroke:#263238;stroke-linecap:round;stroke-linejoin:round"></path><path d="M416.83,354s2.69-14.12,0-15.13-6.72.68-6.39,5.38,2.36,12.1,4.37,12.78S416.83,354,416.83,354Z" style="fill:#fff;stroke:#263238;stroke-linecap:round;stroke-linejoin:round"></path><path d="M414.14,355s-4.7-8.74-6.72-12.1-5.72-1.68-7.4,1.68,10.42,14.12,12.11,14.12S414.14,355,414.14,355Z" style="fill:#fff;stroke:#263238;stroke-linecap:round;stroke-linejoin:round"></path><path d="M414.81,357s.68,3.69-4.7,3.36-21.85-6.39-21.85-9.08a5.29,5.29,0,0,1,8.4-3.7c4.37,3,16.81,9.42,16.81,9.42Z" style="fill:#fff;stroke:#263238;stroke-linecap:round;stroke-linejoin:round"></path><path d="M410.11,359s-10.42,0-19.16-3-11.43-.67-12.1,2.35,12.1,5,21.17,5S414.81,359.36,410.11,359Z" style="fill:#fff;stroke:#263238;stroke-linecap:round;stroke-linejoin:round"></path><path d="M408.43,359.7s-18.83,3.69-24.21,4.37-4.37,4.37-1.34,6.38,14.79-2,21.18-5.38S410.44,359.36,408.43,359.7Z" style="fill:#fff;stroke:#263238;stroke-linecap:round;stroke-linejoin:round"></path><path d="M404.65,360.05c.93,2.53,6.33,2.86,12,.74s9.59-5.87,8.66-8.4-6.33-2.86-12-.74S403.72,357.52,404.65,360.05Z" style="fill:#92E3A9;stroke:#263238;stroke-linecap:round;stroke-linejoin:round"></path><path d="M397.26,425.86s3.37-8.8,9.07-12.17,31.85-11.14,31.85-11.14-3.89,7-13.47,14.51S397.26,425.86,397.26,425.86Z" style="fill:#263238;stroke:#263238;stroke-linecap:round;stroke-linejoin:round"></path><path d="M400.89,410.32s1.81-3.62-3.11-11.39a141.17,141.17,0,0,0-12-15.72S383,394,385.09,400,400.89,410.32,400.89,410.32Z" style="fill:#263238;stroke:#263238;stroke-linecap:round;stroke-linejoin:round"></path><path d="M402.44,405.4s.26-3.62,5.7-7.25,33.92-10.87,33.92-10.87-14.76,14-23.05,16.31A56.19,56.19,0,0,1,402.44,405.4Z" style="fill:#263238;stroke:#263238;stroke-linecap:round;stroke-linejoin:round"></path></g><g id="Line"><path d="M100.81,111.82a14.13,14.13,0,0,0-3.43.61" style="fill:none;stroke:#263238;stroke-linecap:round;stroke-linejoin:round;stroke-width:0.5px"></path><path d="M92.74,114.24c-6.36,3.13-15.69,10.31-25.11,26.8C50.91,170.32,59,204.77,79,232.64,100.8,262.89,215.13,285,258.25,246.72s75.69-31.62,102.7-1.3c24.26,27.24,19.8,100.63-34.8,123.64s-70.68-11.38-66.45-26.72,32.75-33.36,51-7.21c13.56,19.46-28,78-61.89,90.29-25.94,9.43-55.11,12.6-67.41,13.57" style="fill:none;stroke:#263238;stroke-linecap:round;stroke-linejoin:round;stroke-width:0.5px;stroke-dasharray:6.982719898223877,4.987659931182861"></path><path d="M178.89,439.17c-2.24.15-3.49.2-3.49.2" style="fill:none;stroke:#263238;stroke-linecap:round;stroke-linejoin:round;stroke-width:0.5px"></path></g><g id="Table"><line x1="26.92" y1="440.38" x2="472.39" y2="440.38" style="fill:none;stroke:#263238;stroke-linecap:round;stroke-linejoin:round"></line></g><g id="bee-2"><path d="M382.7,324.8a21.41,21.41,0,0,1-5.27-6.24c-2.15-3.91-5.66-7.61-6.25-5.27s2.05,8,4.1,9.56,6.25,3.32,6.83,3A1.29,1.29,0,0,0,382.7,324.8Z" style="fill:none;stroke:#263238;stroke-linecap:round;stroke-linejoin:round"></path><path d="M382.7,324.8a21.41,21.41,0,0,1-5.27-6.24c-2.15-3.91-5.66-7.61-6.25-5.27s2.05,8,4.1,9.56,6.25,3.32,6.83,3A1.29,1.29,0,0,0,382.7,324.8Z" style="fill:none;stroke:#263238;stroke-linecap:round;stroke-linejoin:round;stroke-width:0.75px"></path><path d="M378.21,328.12s-.88.68-2.73,0-6.25-.68-8.4,2.44-1.85,7.9-.88,10.05a8.32,8.32,0,0,0,1.57,2.64s-.1.68.19.87,1.76-2,1.76-2,1.66-3.71,3.51-4.69,4.88-1.27,5.66-3.51S379.77,329,378.21,328.12Z" style="fill:#92E3A9;stroke:#263238;stroke-linecap:round;stroke-linejoin:round"></path><path d="M371.75,327.86a8.92,8.92,0,0,1,2.11-.07,13.13,13.13,0,0,0,4.82,6.55,3.76,3.76,0,0,1-1.51,1.42A15.16,15.16,0,0,1,371.75,327.86Z" style="fill:#263238"></path><path d="M365.79,333.59a9.63,9.63,0,0,1,.88-2.35,18.53,18.53,0,0,0,6.36,6.28,6.2,6.2,0,0,0-1.51,1.48A20,20,0,0,1,365.79,333.59Z" style="fill:#263238"></path><path d="M371.13,339.56a19.36,19.36,0,0,0-1.07,1.82,22.12,22.12,0,0,1-4.21-1.79,11.72,11.72,0,0,1-.37-2.62A20,20,0,0,0,371.13,339.56Z" style="fill:#263238"></path><path d="M368,344.12c-.29-.19-.19-.87-.19-.87a6.45,6.45,0,0,1-1.18-1.84,19.68,19.68,0,0,0,2.64,1.37C368.78,343.42,368.14,344.25,368,344.12Z" style="fill:#263238"></path><path d="M368,329.54a6.21,6.21,0,0,1,1.72-1.1,27.5,27.5,0,0,0,6.66,7.71c-.72.31-1.5.56-2.21.83A29.66,29.66,0,0,1,368,329.54Z" style="fill:#263238"></path><path d="M390.6,328.8s-2.44-3.61-6.15-4.39a5.88,5.88,0,0,0-7.22,5.08c-.29,3.31,1,7.12,3.32,8.19s9.56,3.13,10.64-2.53S390.6,328.8,390.6,328.8Z" style="fill:#c7c7c7;stroke:#263238;stroke-linecap:round;stroke-linejoin:round"></path><path d="M394.41,330.85a4,4,0,0,0-1.17-1.27c-1-.78-4.69-1.75-5.66-.09s.48,8.58,2.14,9.27,4.1-1,5.27-3.52A4.06,4.06,0,0,0,394.41,330.85Z" style="fill:#ababab;stroke:#263238;stroke-linecap:round;stroke-linejoin:round"></path><path d="M391.28,330.07l-2.63,7.13a6.31,6.31,0,0,1-2.15-5.66c.39-3.81,2.34-3.91,5.17-1.47" style="fill:#263238"></path><path d="M394.41,330.46s2.53,2.25,1.56,4-1.47,2.15-2,2.44l-.49.3S395,332.32,394.41,330.46Z" style="fill:#263238"></path><path d="M388.65,337.2s1.85-3.32,3.51-2.35.3,3.61-.39,4.88a1.36,1.36,0,0,1-2.54.1A6.51,6.51,0,0,1,388.65,337.2Z" style="fill:#263238"></path><path d="M394.41,330.78a.34.34,0,0,0,.21-.08,7.78,7.78,0,0,1,2.17-1.48,2.93,2.93,0,0,1,.94.23,6.06,6.06,0,0,0,3.7.34.32.32,0,0,0,.21-.39.32.32,0,0,0-.4-.22,5.56,5.56,0,0,1-3.31-.33,2.9,2.9,0,0,0-1.23-.26,7.86,7.86,0,0,0-2.5,1.64.31.31,0,0,0,0,.44A.32.32,0,0,0,394.41,330.78Z" style="fill:#263238"></path><path d="M391,329a.31.31,0,0,0,.3-.21,2.29,2.29,0,0,0-.1-1.5,5,5,0,0,0-.95-1.11c-.95-1-2.38-2.45-2.44-3.75a.33.33,0,0,0-.34-.31.32.32,0,0,0-.3.34c.08,1.54,1.61,3.11,2.63,4.16a5.89,5.89,0,0,1,.81.92,1.66,1.66,0,0,1,.09,1.05.33.33,0,0,0,.2.4Z" style="fill:#263238"></path><path d="M383.18,337.78s.1,5.27,0,6.93-2,4-2.24,3.32,1-3,1-3,.19-5.85.19-7S383.18,337.78,383.18,337.78Z" style="fill:#263238"></path><path d="M385.82,338.17s0,.19.06.49c.16,1.18.52,4.12.52,5,0,1.07-1.95,4.1-2.14,2.53a2.7,2.7,0,0,1,1.07-2.44s-.58-4.39-.58-5.07" style="fill:#263238"></path><path d="M379.79,333.08s-2.63,5.85-3.61,7.32-3.61,3.9-4.49,3.71.39-1.47,1.37-2.35,2.73-2.24,2.73-2.24.78-4.49,1.47-5.66S379.17,332.37,379.79,333.08Z" style="fill:#263238"></path><path d="M379.38,334.56s.19,5.56.19,6.93-2.53,5.56-2.53,4.29,1.36-3.7,1.56-4.49-.78-5.26-.68-6.63S379.18,333.88,379.38,334.56Z" style="fill:#263238"></path><path d="M376.55,335.05s-2.64,5.85-3.61,7.32-3.61,3.9-4.49,3.71.39-1.47,1.37-2.35,2.73-2.24,2.73-2.24.78-4.49,1.46-5.66S375.92,334.34,376.55,335.05Z" style="fill:#263238"></path><path d="M381.82,327.93s-6.64-3.52-10.05-7.42-11.13-7.61-12.2-4.49,4.1,8.88,8.49,10.15a68.06,68.06,0,0,0,11.61,2.24c1.27,0,.78-.68.78-.68Z" style="fill:#fff;stroke:#263238;stroke-linecap:round;stroke-linejoin:round;stroke-width:0.75px"></path><path d="M377.05,314.62a21.75,21.75,0,0,0,2.32,5.09" style="fill:none;stroke:#263238;stroke-linecap:round;stroke-linejoin:round;stroke-width:0.5px"></path><path d="M378.79,313.34a18.14,18.14,0,0,0,1.62,5.68" style="fill:none;stroke:#263238;stroke-linecap:round;stroke-linejoin:round;stroke-width:0.5px"></path><path d="M358.28,320.06s3.48,4.87,7.18,6.84" style="fill:none;stroke:#263238;stroke-linecap:round;stroke-linejoin:round;stroke-width:0.5px"></path><path d="M359.67,324.12a16.42,16.42,0,0,0,5.68,4.05" style="fill:none;stroke:#263238;stroke-linecap:round;stroke-linejoin:round;stroke-width:0.5px"></path></g><g id="bee-1"><path d="M121.93,102.37a21.57,21.57,0,0,1-2.58-7.75c-.55-4.42-2.44-9.17-3.85-7.21s-1.06,8.19.27,10.4,4.57,5.39,5.22,5.34A1.27,1.27,0,0,0,121.93,102.37Z" style="fill:none;stroke:#263238;stroke-linecap:round;stroke-linejoin:round"></path><path d="M121.93,102.37a21.57,21.57,0,0,1-2.58-7.75c-.55-4.42-2.44-9.17-3.85-7.21s-1.06,8.19.27,10.4,4.57,5.39,5.22,5.34A1.27,1.27,0,0,0,121.93,102.37Z" style="fill:none;stroke:#263238;stroke-linecap:round;stroke-linejoin:round;stroke-width:0.75px"></path><path d="M116.53,103.79s-1.07.31-2.54-1-5.54-3-8.69-.85-4.66,6.66-4.54,9a8.39,8.39,0,0,0,.47,3s-.34.6-.14.89,2.39-1.26,2.39-1.26,2.91-2.83,5-3,5,.62,6.56-1.17S117.66,105.18,116.53,103.79Z" style="fill:#92E3A9;stroke:#263238;stroke-linecap:round;stroke-linejoin:round"></path><path d="M110.63,101.15a9,9,0,0,1,2,.72,13.16,13.16,0,0,0,2.06,7.87,3.77,3.77,0,0,1-1.93.76A15.1,15.1,0,0,1,110.63,101.15Z" style="fill:#263238"></path><path d="M103,104.27a9.67,9.67,0,0,1,1.69-1.86,18.56,18.56,0,0,0,3.58,8.19,6.32,6.32,0,0,0-1.95.82A20,20,0,0,1,103,104.27Z" style="fill:#263238"></path><path d="M105.72,111.79a20.47,20.47,0,0,0-1.67,1.29,22.54,22.54,0,0,1-3.25-3.21,11.63,11.63,0,0,1,.63-2.58A19.72,19.72,0,0,0,105.72,111.79Z" style="fill:#263238"></path><path d="M101.09,114.86c-.2-.29.14-.89.14-.89a6.51,6.51,0,0,1-.42-2.15,20.66,20.66,0,0,0,2,2.26C102.11,114.51,101.21,115,101.09,114.86Z" style="fill:#263238"></path><path d="M106.51,101.31a6.38,6.38,0,0,1,2-.38,27.22,27.22,0,0,0,3.33,9.63c-.79,0-1.6,0-2.36,0A29.56,29.56,0,0,1,106.51,101.31Z" style="fill:#263238"></path><path d="M127.79,109s-.93-4.25-4.08-6.35a5.87,5.87,0,0,0-8.59,2c-1.5,3-1.73,7,0,8.84s7.73,6.44,10.82,1.58S127.79,109,127.79,109Z" style="fill:#c7c7c7;stroke:#263238;stroke-linecap:round;stroke-linejoin:round"></path><path d="M130.57,112.33a3.78,3.78,0,0,0-.62-1.61c-.62-1.09-3.7-3.37-5.22-2.19s-2.73,8.16-1.44,9.4,4.17.62,6.19-1.31A4,4,0,0,0,130.57,112.33Z" style="fill:#ababab;stroke:#263238;stroke-linecap:round;stroke-linejoin:round"></path><path d="M128,110.45l-5.08,5.64A6.32,6.32,0,0,1,123,110c1.77-3.39,3.62-2.75,5.35.56" style="fill:#263238"></path><path d="M130.71,112s1.53,3,0,4.29-2.16,1.45-2.72,1.54l-.56.09S130.57,113.9,130.71,112Z" style="fill:#263238"></path><path d="M122.87,116.09s2.95-2.4,4.13-.88-1.07,3.47-2.17,4.39a1.35,1.35,0,0,1-2.39-.85A6.42,6.42,0,0,1,122.87,116.09Z" style="fill:#263238"></path><path d="M130.59,112.26a.3.3,0,0,0,.23,0,7.92,7.92,0,0,1,2.57-.57,3.38,3.38,0,0,1,.78.57,6.17,6.17,0,0,0,3.31,1.68.31.31,0,0,0,.34-.29.31.31,0,0,0-.28-.34,5.57,5.57,0,0,1-3-1.54,3.23,3.23,0,0,0-1-.7,8.23,8.23,0,0,0-2.94.6.32.32,0,0,0-.19.4A.31.31,0,0,0,130.59,112.26Z" style="fill:#263238"></path><path d="M128.07,109.36a.31.31,0,0,0,.36-.09,2.22,2.22,0,0,0,.46-1.42,5,5,0,0,0-.47-1.39c-.52-1.26-1.3-3.16-.88-4.39a.31.31,0,0,0-.2-.4.32.32,0,0,0-.4.19c-.5,1.46.34,3.5.9,4.84a5.87,5.87,0,0,1,.41,1.16,1.68,1.68,0,0,1-.3,1,.3.3,0,0,0,0,.44Z" style="fill:#263238"></path><path d="M117.58,114.61s-1.87,4.93-2.57,6.43-3.39,3-3.32,2.25,2-2.45,2-2.45,2.35-5.36,2.79-6.45S117.58,114.61,117.58,114.61Z" style="fill:#263238"></path><path d="M119.88,115.94s0,.19-.12.49c-.3,1.15-1.05,4-1.36,4.81-.4,1-3.33,3.08-2.94,1.56a2.72,2.72,0,0,1,1.9-1.87s1.09-4.3,1.34-4.93" style="fill:#263238"></path><path d="M116.17,109s-4.62,4.46-6.07,5.46-4.8,2.29-5.54,1.78.9-1.21,2.14-1.67,3.37-1.07,3.37-1.07,2.38-3.88,3.45-4.71S115.85,108.09,116.17,109Z" style="fill:#263238"></path><path d="M115.23,110.2s-1.88,5.24-2.38,6.51-4.42,4.23-3.95,3.05,2.64-2.94,3.11-3.59,1.23-5.18,1.83-6.42S115.31,109.5,115.23,110.2Z" style="fill:#263238"></path><path d="M112.42,109.61s-4.61,4.46-6.06,5.46-4.8,2.29-5.54,1.78.9-1.21,2.13-1.67,3.37-1.07,3.37-1.07,2.39-3.88,3.46-4.72S112.11,108.72,112.42,109.61Z" style="fill:#263238"></path><path d="M120,104.94s-4.86-5.72-6.59-10.61-7.51-11.19-9.67-8.69.52,9.77,4.13,12.58a68.65,68.65,0,0,0,10,6.38c1.18.47,1-.34,1-.34Z" style="fill:#fff;stroke:#263238;stroke-linecap:round;stroke-linejoin:round;stroke-width:0.75px"></path><path d="M120.46,90.82a22.11,22.11,0,0,0,.27,5.59" style="fill:none;stroke:#263238;stroke-linecap:round;stroke-linejoin:round;stroke-width:0.5px"></path><path d="M122.55,90.28a18.35,18.35,0,0,0-.6,5.87" style="fill:none;stroke:#263238;stroke-linecap:round;stroke-linejoin:round;stroke-width:0.5px"></path><path d="M101,88.92s1.42,5.81,4.14,9" style="fill:none;stroke:#263238;stroke-linecap:round;stroke-linejoin:round;stroke-width:0.5px"></path><path d="M100.8,93.2a16.41,16.41,0,0,0,3.77,5.87" style="fill:none;stroke:#263238;stroke-linecap:round;stroke-linejoin:round;stroke-width:0.5px"></path></g></svg>