<svg xmlns="http://www.w3.org/2000/svg" viewBox="0 0 500 500"><g id="Background"><path id="Sky" d="M305.23,45.39c-50.56-12.31-145.5-16.73-219.3,70.73-19.15,22.69-39.41,58.57-51.51,100.31-16.37,56.48-21.07,120.88-2.1,165H469.65a290.24,290.24,0,0,0,3.27-150.15C451.13,141.45,405.39,69.78,305.23,45.39Z" style="fill:#37474f"></path></g><g id="Mountains"><g id="mountains"><g id="mountains"><path d="M478.5,260.76l-45.9-91.08c-.73-1.53-3.71-1.51-4.42,0l-20.56,39.75-18.94-25.75a4.84,4.84,0,0,0-7.59,0l-18.94,25.75-48.22-76.72a4.8,4.8,0,0,0-8,.08l-39.3,64.75L235.94,157.7a4.83,4.83,0,0,0-7.53-.49l-18.57,21.36-41.27-64.7a4.79,4.79,0,0,0-8,.19l-53.13,94.61L81.17,168.53a5.24,5.24,0,0,0-8.77.34L25,257.22c-7.82,44.86-7.17,90.46,7.34,124.17H469.65A288.89,288.89,0,0,0,478.5,260.76Z" style="fill:#263238"></path><path d="M71.89,176.65a4.32,4.32,0,0,1,4.62-.4l4.11,2.15A4.36,4.36,0,0,0,85.3,178l1.33-1.09-5.46-8.34a5.24,5.24,0,0,0-8.77.33l-6.25,11.7a4.3,4.3,0,0,0,1.77-.8Z" style="fill:#455a64"></path><path d="M428.47,168.88l-7.89,15.68,1,1.51a2.79,2.79,0,0,0,4.35.28l3.21-3.67a2.8,2.8,0,0,1,4.11,0l1.11,1.24a2.78,2.78,0,0,0,4.49-.6l.28-.68-6.84-13.78A2.18,2.18,0,0,0,428.47,168.88Z" style="fill:#455a64"></path><path d="M228.41,157.21l-7.75,8.91,2.62,2.75a3.38,3.38,0,0,0,4.83-.07l1.69-1.89a3.37,3.37,0,0,1,4.8-.09h0a3.35,3.35,0,0,0,5.1-.49l1.29-2.07-5.06-6.56A4.82,4.82,0,0,0,228.41,157.21Z" style="fill:#455a64"></path><path d="M306,132.82l-14.71,24.24,1.83,3.31a3.64,3.64,0,0,0,6,.28l3.27-4.62a3.66,3.66,0,0,1,5.56-.3h0a3.68,3.68,0,0,0,5.44-.14l3.39-4.18a3.69,3.69,0,0,1,4.92-.59l6.62,4.75-14.34-22.82A4.8,4.8,0,0,0,306,132.82Z" style="fill:#455a64"></path><path d="M381.09,183.71l-8.45,11.49,6.7-3.5a2.44,2.44,0,0,1,2.93.52l1.82,2.14a2.43,2.43,0,0,0,3.38.21l1.55-1.36a2.44,2.44,0,0,1,3.15,0l9.77,8.53h0l-13.27-18A4.84,4.84,0,0,0,381.09,183.71Z" style="fill:#455a64"></path><path d="M160.56,114.06l-9.66,17.19L152,132.8a4.49,4.49,0,0,0,6.74.55l2.84-2.87a4.52,4.52,0,0,1,6.28,0l6.1,6.11a4.52,4.52,0,0,0,6.34-.07l1.64-1.73-13.33-20.91A4.79,4.79,0,0,0,160.56,114.06Z" style="fill:#455a64"></path><g style="opacity:0.30000000000000004"><polygon points="83.65 172.32 66.76 195.51 76.68 195.51 69.3 220.91 84.94 206.66 98.14 225.87 107.43 208.67 83.65 172.32"></polygon><polygon points="169.15 114.78 180.36 162.23 162.33 181.16 159.88 236.49 209.84 178.57 169.15 114.78"></polygon><polygon points="237.34 159.53 230.53 176.4 239.62 176.4 223.29 214.13 248.73 195.41 260.33 208.61 266.67 197.57 237.34 159.53"></polygon><polygon points="362.15 209.46 316.81 137.33 326.02 171.65 310.52 192.07 348.75 202.54 336.46 215.12 342.92 222.39 332.96 249.66 362.15 209.46"></polygon><polygon points="388.68 183.71 380.89 204.99 391.38 203.68 392.85 231.7 407.62 209.45 388.68 183.71"></polygon><path d="M469.65,381.39a288.72,288.72,0,0,0,8.84-120.63L435.62,175.5l24.11,71-17.55,35.1,19.48-4.83L416,381.39Z"></path></g></g></g></g><g id="Plants"><g id="Shrubbery"><path d="M483.49,327.7c6.59-4.69,6.54-16.86-1.83-19.46,5.78-5.79,4-18.24-4.34-19,2.05-5.12,1-12.11-5.52-13.4,2.08-6.27-3.72-10.61-9.54-8.36-.25-6.61-9.61-7-11.71-2.34.11-2.56-3.72-7.29-6.17-7.3,4.24-3.32,3.06-10-.57-10.86,4.95-3.76,2.29-12.32-3.62-12.24,4-6.25-4.49-12.78-9.74-10.85,3-7-10.93-12.61-13.94-5.17-5.32-8.76-23.57-3.61-21.13,7.79a4.34,4.34,0,0,0-3.23,7.74,6.27,6.27,0,0,0-8.56,1.86,3.37,3.37,0,0,0-2.81-4.39c5.79-2.35,1.73-11-3.61-10.61,5.05-6.48-5.19-14-10.63-8.87-2.53-5.95-11.57-4.7-11,2.28-2-3.64-5.95-3.38-9.18-1.44-4.47,2.68-3.87,7.46-1.41,11.33-1.86-2.22-7.51-3.44-8.37.23a4.41,4.41,0,0,0-6.37-.73c-1.67-6-12.42-6.79-14.45.61-4.14-2.39-8.52,2.26-7.47,6.06l-58.23-.85c.69-4.47-.28-7.38-6.06-7.18-.07-2.61-2.4-6.19-4.78-7.09-4.13-1.56-6.58,1.32-9.19,3.36a4.42,4.42,0,0,0-6.38-.67c-.05-3.76-5.83-3.79-8.11-2,3.23-3.25,4.85-7.78,1.07-11.37-2.74-2.59-6.52-3.7-9.27-.58.79-3.11-.11-6-3.53-7a6.3,6.3,0,0,0-6.69,2.44c-1.68-2.81-6-3.33-8.92-2.1a6.26,6.26,0,0,0-3.38,8.46c-5.14-1.48-11,6-5.82,9.58a3.36,3.36,0,0,0-3.69,3.68,6.29,6.29,0,0,0-8-3.68,4.46,4.46,0,0,0,1.78-6.39,4.7,4.7,0,0,0-3.26-1.86,5.56,5.56,0,0,0,.9-3.88c-1-9.71-13.43-14.34-19.84-8.3-.59-4.1-4.94-5.19-8.32-4.79-4.11.48-6.94,3.28-6.4,6.81-4.72-3-14.39,1.53-11.87,8.49-5.75-1.37-10.2,6.43-6.18,11.16-3.23,1.7-4.09,7.91-1.25,10.21-2.68.09-4.32,2.64-4.69,5.08.57-4.29,0-10.76-7.51-10.84A11,11,0,0,0,86.54,209s-2-6.28-10.53-6.3-11.39,2.78-12.41,6.16c-5.17-3.18-9.91-1.27-12.45.18-2,1.16-6.7,5-5.9,10.37a12,12,0,0,0-10.13,3.34,9.69,9.69,0,0,0-1.88,10.93c-4.19-.36-7.41,1.94-9.56,5.56-1.2,2-2.56,7.75.31,10.66a10,10,0,0,0-6.81,7.65c-.5,3.35.84,5.79,3.25,7.92-3.71,1.53-4.89,5-4.63,8.58.18,2.61,2.12,4.76,3.57,5.12a4.52,4.52,0,0,0-.06,4c1.43,2.92,4.77,3.54,7.74,3.4-2.65,2.38,0,6,2.32,7.62a6.65,6.65,0,0,0-7.07-.85c-2.53,1-4.54,3.64-3.49,6.38a6.74,6.74,0,0,0-5.52,4.4A7.54,7.54,0,0,0,17,314a7.34,7.34,0,0,0-5.61,7.12c-.05,2.76.9,5.57,5.69,6.36-4.86,2.41-7.17,14.15.27,14.46-1,.7-4.21,4.46-2.44,11,.84,3.07,4.43,4.43,7.17,5.38-1.25,2.05-2.23,4.91-1.2,7.43a7.88,7.88,0,0,0,8,5.24c1.7-.1,2.56-.7,4.05-.45,2.85.48,7.73,1.65,9.79-1.17l419-4.18c1.7-.84,1.38-.68,3,.11,6.75,4.08,17-1.34,13.31-8.9,7.19-.61,7.84-9.55,3.21-13.68C488.28,339.89,487.85,329.78,483.49,327.7Z" style="fill:#455a64"></path><path d="M422,238.6a6.7,6.7,0,0,0-9.46-.56,6.42,6.42,0,0,0-1.23,1.49,6.69,6.69,0,0,0-10.85,3.84,8,8,0,0,1,5.08-2.79A8,8,0,0,1,413.7,245a4.88,4.88,0,0,0,0-1.14,6.66,6.66,0,0,0-.9-2.59,6.69,6.69,0,0,1,.69-.72,8,8,0,0,1,9.22-1A5.39,5.39,0,0,0,422,238.6Z" style="fill:#37474f"></path><path d="M352.3,227.06a5.17,5.17,0,0,1,7.3-.44,4.89,4.89,0,0,1,.95,1.15,5.17,5.17,0,0,1,8.37,3A6.14,6.14,0,0,0,358.7,232a3.81,3.81,0,0,1,0-.89,5.13,5.13,0,0,1,.69-2,4,4,0,0,0-.53-.56,6.13,6.13,0,0,0-7.11-.75A3.92,3.92,0,0,1,352.3,227.06Z" style="fill:#37474f"></path><path d="M481.66,308.24c5.78-5.79,4-18.24-4.34-19,2.05-5.12,1-12.11-5.52-13.4,2.08-6.27-3.72-10.61-9.54-8.36-.25-6.61-9.61-7-11.71-2.34.11-2.56-3.72-7.29-6.17-7.3,4.24-3.32,3.06-10-.57-10.86,4.95-3.76,2.29-12.32-3.62-12.24,3.15-5-1.53-10.1-6.23-11,1.71,1.9,3.26,4.43,2,7-1.11,2.34-4.12,2.75-6.12,3.73,4.75,1.6,6.92,6.36,3.39,10.53,4.83.61,5.46,7,3.52,9.63-1.19-1-3.65-1.26-5.45-.92-2.42.47-3.73,1.69-5.91,4.12,4.3-3.32,8.66,3,5.93,6.78,2.19-.93,5.75-1.18,7.73,2.27a5.76,5.76,0,0,1-1.31,6.91c1.71.66,2.22,3.58,1.79,5.19a5.46,5.46,0,0,1-4.48,4.36c6.29,1.69.26,9.14-1.94,11.42,5-.44,7,3.08,8.48,6.94-.42-1.1,2.89-3.11,3.6-3.44a9.73,9.73,0,0,1,5.25-.72c3.64.49,6.49,3.05,6.31,6.88,0-.94,3.64-1.48,5.74-.19a8.24,8.24,0,0,1,4,6.3c.41,3.44-2.82,6.32-5.64,7.86,2.82,2,5.66,3.51,6.56,7.28,1.1,4.58-2.71,6.22-5.17,9,2.73,1.8,5.47,3,6.41,6.61,1.16,4.44-2.47,6.46-5.29,8.89,7.11.5,10.08,9.69,6.5,15a8.4,8.4,0,0,1-1.25,1.44c6.06.65,12.28-4.09,9.3-10.24,7.19-.61,7.84-9.55,3.21-13.68,7.1-2.79,6.67-12.9,2.31-15C490.08,323,490,310.84,481.66,308.24Z" style="fill:#37474f"></path><path d="M62.49,349.12c-3.26-5.36-2.62-9.95-2.25-15.87-5.72,2.16-17.54-.33-17.87-8.22-5.42,1.13-11.4,2-12.16-5.51-.5-4.85,2.46-7.34,6.17-9.55-3.66.72-3.45-4.12-2.75-6.38,1-3.08,4.64-5.18,7.9-5-2.08-5.49-.88-11.84,6.26-12.51-2.29-2.16-2.48-7.39-.45-9.86s9.48-4,11.53-.93c-.12-6.35,1.8-8.24,7.28-10.71-3.27.24-9.16-.69-8.77-5.07-2,2.63-4.57,5.76-8.46,4.74-1.87-.49-3.43-1.69-3.15-3.82-4.65,5.1-13.24,1.32-8.78-4.87-8.53.21-2.45-10.6,4.2-10.23-3.08-1.79-5.55-3.91-4.41-7.72a9.31,9.31,0,0,1,7-5.9c-5.31-2.74-8.41-6.5-6-11a13.44,13.44,0,0,0-2.66,1.94,9.69,9.69,0,0,0-1.88,10.93c-4.19-.36-7.41,1.94-9.56,5.56-1.2,2-2.56,7.75.31,10.66a10,10,0,0,0-6.81,7.65c-.5,3.35.84,5.79,3.25,7.92-3.71,1.53-4.89,5-4.63,8.58.18,2.61,2.12,4.76,3.57,5.12a4.52,4.52,0,0,0-.06,4c1.43,2.92,4.77,3.54,7.74,3.4-2.65,2.38,0,6,2.32,7.62a6.65,6.65,0,0,0-7.07-.85c-2.53,1-4.54,3.64-3.49,6.38a6.74,6.74,0,0,0-5.52,4.4A7.54,7.54,0,0,0,17,314a7.34,7.34,0,0,0-5.61,7.12c-.05,2.76.9,5.57,5.69,6.36-4.86,2.41-7.17,14.15.27,14.46-1,.7-4.21,4.46-2.44,11,.84,3.07,4.43,4.43,7.17,5.38-1.25,2.05-2.23,4.91-1.2,7.43a7.88,7.88,0,0,0,8,5.24c1.7-.1,2.56-.7,4.05-.45,2.85.48,7.73,1.65,9.79-1.17l21.91-14.75C64.51,352.53,63.82,351.31,62.49,349.12Z" style="fill:#37474f"></path><path d="M135.43,234.61a6.7,6.7,0,0,0-9.31-1.78,6.59,6.59,0,0,0-1.42,1.31,6.69,6.69,0,0,0-11.25,2.41,8,8,0,0,1,12.94,3.29,5.41,5.41,0,0,0,.1-1.15,6.7,6.7,0,0,0-.56-2.68,8.39,8.39,0,0,1,.79-.63,7.94,7.94,0,0,1,9.26.24A5.54,5.54,0,0,0,135.43,234.61Z" style="fill:#37474f"></path><path d="M141.11,211.07a5.37,5.37,0,0,1,8.36-2.1,5.36,5.36,0,0,1,9.23.08,6.47,6.47,0,0,0-4.59-.79,6.39,6.39,0,0,0-5.05,5.46,4.28,4.28,0,0,1-.27-.88,5.43,5.43,0,0,1,0-2.2,5.41,5.41,0,0,0-.72-.37,6.37,6.37,0,0,0-7.24,1.68A4.7,4.7,0,0,1,141.11,211.07Z" style="fill:#37474f"></path><path d="M193.86,211.27a4.12,4.12,0,0,1,5.81-.28,3.88,3.88,0,0,1,.75.93,4.11,4.11,0,0,1,6.64,2.43,4.94,4.94,0,0,0-3.11-1.74,4.86,4.86,0,0,0-5,2.62,3.31,3.31,0,0,1,0-.7,4,4,0,0,1,.57-1.58,3.56,3.56,0,0,0-.42-.45,4.87,4.87,0,0,0-5.65-.66A3.22,3.22,0,0,1,193.86,211.27Z" style="fill:#37474f"></path></g></g><g id="Floor"><g id="Land"><ellipse cx="250.58" cy="355.2" rx="223.74" ry="129.17" style="fill:#37474f"></ellipse></g></g><g id="Moon"><g id="moon"><circle cx="64.45" cy="67.77" r="25.82" transform="translate(-10.02 11.2) rotate(-9.22)" style="fill:#BA68C8"></circle><circle cx="64.45" cy="67.77" r="25.82" transform="translate(-10.02 11.2) rotate(-9.22)" style="fill:#fff;opacity:0.65"></circle><path d="M54.93,80.14A1.49,1.49,0,0,0,56,81.56c.68.1,1.5-.45,2,0s.13,1,.23,1.54a1.2,1.2,0,0,0,2.12.31c.19-.36.18-.8.38-1.16a1.07,1.07,0,0,1,1.93.89c-.2.55-.78.83-1.21,1.21a2,2,0,0,0-.76,1.77,1.33,1.33,0,0,0,1.38,1.16,4.83,4.83,0,0,0,1.11-.46,2,2,0,0,1,2.3.62c.2.25.34.55.54.79a1.89,1.89,0,0,0,2.57.14,2.32,2.32,0,0,0,.58-2.6c-.16-.39-.41-.73-.55-1.12a2,2,0,0,1,.53-2.22,1.58,1.58,0,0,1,2.17.22c.42.57.33,1.36.52,2s1.07,1.31,1.57.81.16-1.25.63-1.6,1,.08,1.2.56A5.9,5.9,0,0,1,75.37,86c0,.51.3,1.08.81,1.16s1-.52,1.24-1.07.41-1.21,1-1.43,1.18.13,1.74,0c1.4-.39.73-2.93,2-3.63.8-.44,1.82.19,2.7,0a8.42,8.42,0,0,0,1.57-.93,3.12,3.12,0,0,1,.91-.29,25.72,25.72,0,0,0,3-12,27.41,27.41,0,0,0-.21-3.29,8.19,8.19,0,0,0-1.55-2.82,24.29,24.29,0,0,1-2.23-2.31c-.45-.67-.7-1.46-1.2-2.1A1.82,1.82,0,0,0,83,56.51,1.47,1.47,0,0,0,82.25,58a2.33,2.33,0,0,0,1,1.48c.43.33,1,.59,1.18,1.08A1.26,1.26,0,0,1,84,62a1.67,1.67,0,0,1-1.5.22c-.88-.27-.3-1-.11-1.62.13-.38.1-.89-.26-1.06s-.75.1-1.11.27a2.17,2.17,0,0,1-.9.22,1,1,0,0,1-.39-.06c-.39-.19-.37-.77-.16-1.16a4,4,0,0,0,.6-1.14,1.32,1.32,0,0,0-.69-1.27A3.09,3.09,0,0,0,78,56.07a1.81,1.81,0,0,1-1.52-.51c-.41-.37-.74-.82-1.19-1.16a2.86,2.86,0,0,0-4.55,2.24,1.63,1.63,0,0,1-.18,1,2.34,2.34,0,0,1-.63.43,1.49,1.49,0,0,0,.27,2.48c.88.34,1.87-.15,2.77-.13,1.5,0,1.58,1.82.1,2-.45.07-1.28-.08-2,0s-1.13.29-1.09,1,1,1.45.54,2a.78.78,0,0,1-1,0,7,7,0,0,1-.78-.76,1.65,1.65,0,0,0-1.48-.47,1.07,1.07,0,0,0-.81,1.22c.15.53.79,1,.62,1.48s-.79.49-1.2.26-.7-.62-1.1-.85a2.36,2.36,0,0,0-2.84.88c-.65.82-.78,2.29.18,2.7.59.26,1.25,0,1.89-.1s1.47.37,1.29,1c-.12.41-.61.57-.89.9a1.25,1.25,0,0,0,.15,1.61A2.32,2.32,0,0,0,66.2,74a3,3,0,0,0,3.15-2.44c.08-.8-.24-1.72.27-2.35a1.86,1.86,0,0,1,1.57-.5,2.75,2.75,0,0,1,1.46.41,1.34,1.34,0,0,1,.58,1.33c-.12.49-.57.82-.88,1.21s-.48,1-.08,1.35.65.14.94.31c.55.32.27,1.26-.31,1.52a3,3,0,0,1-1.88,0,2.12,2.12,0,0,0-1.83.2c-.71.59-.46,1.77.14,2.48.32.39.75.79.71,1.29a1,1,0,0,1-.69.82,1.5,1.5,0,0,1-1.95-1.09,8.85,8.85,0,0,1,0-1,2,2,0,0,0-1.27-1.77,1.56,1.56,0,0,0-1.9.89c-.14.42-.07.89-.25,1.3a1.31,1.31,0,0,1-2.12.17,1.62,1.62,0,0,1,.44-2.24c.57-.39,1.45-.58,1.51-1.27a.92.92,0,0,0-.22-.63,1.45,1.45,0,0,0-2.38.34,2.45,2.45,0,0,1-.28.71c-.54.68-2,0-2.36.77-.2.37,0,.87-.17,1.25s-.86.42-1.35.5A2.55,2.55,0,0,0,54.93,80.14ZM39.15,62.6a4.2,4.2,0,0,0,1-.28c.56-.23,1.3-.37,1.69.09.25.28.26.7.44,1a1.33,1.33,0,0,0,1.6.52,2.15,2.15,0,0,0,1.2-1.3,4.08,4.08,0,0,1,.64-1.51,1.29,1.29,0,0,1,1.54-.24,1.31,1.31,0,0,1,.59,1.44c-.21.74-1,1.13-1.42,1.8a1.62,1.62,0,0,0,.36,2,1.35,1.35,0,0,0,1.92-.37c.3-.57.22-1.44.82-1.67s1.2.79,1.85,1.23a1.31,1.31,0,0,0,1.67-2c-.26-.26-.63-.42-.78-.75-.3-.67.63-1.32,1.34-1.17a7.54,7.54,0,0,1,1.9,1.09,3.39,3.39,0,0,0,3.39-.11,2,2,0,0,0,.81-.89c.41-1-.35-2.27.23-3.18a1.24,1.24,0,0,1,2.21,1.11c-.22.58-.84.92-1.14,1.46a2.06,2.06,0,0,0,1,2.61,4.81,4.81,0,0,0,3,.36,1.6,1.6,0,0,0,1-.37c.67-.69-.27-1.82-.14-2.78.15-1.11,1.65-1.66,1.76-2.77.06-.61-.33-1.22-.16-1.8.32-1.09,2.2-1,2.53-2.12a1.27,1.27,0,0,0-.5-1.31,2.46,2.46,0,0,0-1.4-.45c-.67,0-1.51-.08-1.76-.7s.48-1.33,1.16-1.6a3.5,3.5,0,0,1,1.93-.27,1.77,1.77,0,0,1,1.42,1.22,5.28,5.28,0,0,0,.13.67,1.59,1.59,0,0,0,1.7.8,11.68,11.68,0,0,1,2-.27c1.88.16,3,2.57,4.85,2.68a.63.63,0,0,0,.53-.17.66.66,0,0,0,.07-.54,5.36,5.36,0,0,0-3.21-4A27.18,27.18,0,0,1,73.52,49a17.49,17.49,0,0,1-1.93-1.5,2.76,2.76,0,0,0-2.27-.68c-.93.22-1.5,1.13-2.07,1.91s-1.43,1.55-2.37,1.32A2.53,2.53,0,0,0,64,48.77c-.45-.27-1.18-.11-1.28.4-.06.35.18.67.25,1,.14.77-.56,1.43-1.25,1.8a4,4,0,0,0-1.89,1.34,5.79,5.79,0,0,0-.34,1,2.29,2.29,0,0,1-1.59,1.55,1.48,1.48,0,0,1-1.74-1.11,2.36,2.36,0,0,1,.48-1.47,2.62,2.62,0,0,0,.54-1.46c0-.53-.56-1-1.05-.85s-.52,1.11-1,1.52-1.23.16-1.83-.09-1.43-.38-1.76.18.12,1.13.25,1.71a1.77,1.77,0,0,1-2.59,1.94c-.5-.84,1.08-1.78.74-2.7-.24-.64-1.18-.62-1.77-.26a1.87,1.87,0,0,1-.95.43c-.56,0-.91-.69-.79-1.24a2.79,2.79,0,0,1,1-1.35c.38-.36.88-.75,1.37-.55.31.13.48.46.73.7a1.43,1.43,0,0,0,1.94,0,7.56,7.56,0,0,1,.72-.87c.71-.53,1.81,0,2.58-.46a1.16,1.16,0,0,0,.3-1.62c-.21-.28-.57-.48-.64-.83-.11-.63.65-1.11.62-1.79a2.24,2.24,0,0,0-.92-1.56h0A25.86,25.86,0,0,0,42.61,54a2.24,2.24,0,0,0,.7,1.08c.32.28.72.46,1,.77A.85.85,0,0,1,44.41,57a1,1,0,0,1-.67.2,4.1,4.1,0,0,1-2.28-.64l-.21-.13A25.6,25.6,0,0,0,39.15,62.6Z" style="fill:#BA68C8;opacity:0.2"></path></g></g><g id="Clouds"><g id="clouds"><path id="Cloud" d="M209.49,66.83a5.24,5.24,0,0,1-3.56.47c-1.41-.18-3-.38-4.12.53a11.33,11.33,0,0,0-1.37,1.7c-1.28,1.54-3.75.46-4.81,2.55-.16.3-.15,1.26-.54,1.36s-1.22-.52-1.63-.58a14.37,14.37,0,0,0-4,.23A4.62,4.62,0,0,0,186.37,75c-.35.5-.66,1.12-1.27,1.27a2.08,2.08,0,0,1-1-.12,12.12,12.12,0,0,0-3.59-.8A3.29,3.29,0,0,0,177.42,77c-.07.16-.15.34-.32.38s-.32-.09-.45-.2a3.74,3.74,0,0,0-3.3-.77,1.83,1.83,0,0,0-1,.56c-.33.42-.33,1-.66,1.46-.59.74-1.77.53-2.7.3-1.23-.31-2.67-.5-3.68.26-.27.21-.49.47-.77.66a4.27,4.27,0,0,1-2.73.31c-.62,0-7.79.34-7.68.94s1.92.44,2.32.47c.61,0,1.19.16,1.8.16a5.06,5.06,0,0,1,1.82.1c.37.16.62.47,1,.59a4.7,4.7,0,0,0,2.87-.26,10,10,0,0,1,3.36-1,5.1,5.1,0,0,1,1.58.54,5.64,5.64,0,0,0,3.23,0,5.18,5.18,0,0,1,2.22-.47c.38.09.79.46,1.18.59a8.44,8.44,0,0,0,1.58.37c1.91.23,3.78-.86,5.58-1.34a5.34,5.34,0,0,1,5.33,1.19,5.54,5.54,0,0,0,5.22.71,14.73,14.73,0,0,1,1.55-.62,6.05,6.05,0,0,1,4,.22,9.44,9.44,0,0,0,2.32,1.09c2.73.58,5.28-2.65,8-1.9a7.48,7.48,0,0,1,1.54.73,23.77,23.77,0,0,0,4.67,1.73,2.85,2.85,0,0,0,.9.16,2.74,2.74,0,0,0,1.18-.44,11.88,11.88,0,0,1,2.15-1.12,3,3,0,0,1,2.36.09,5.41,5.41,0,0,0,1.12.68c1.09.31,2-.93,3.12-1.09s2.07.72,3.18.62,2.26-.72,3.48-.8c2.72-.18,5.48.48,8.17-.19A13.74,13.74,0,0,1,244.1,81c1.94,0,3.84,1.19,5.73.75a.76.76,0,0,0,.21-.08c.2-.16.1-.51-.12-.64a1.39,1.39,0,0,0-.76-.1,6.27,6.27,0,0,1-2.35-.34c-.79-.27-1.53-.69-2.34-.88-2.51-.56-5.26,1.25-7.61.2A17.26,17.26,0,0,0,235,79c-1.35-.41-2.81.36-4.19.07a4.91,4.91,0,0,1-2.64-2,8.67,8.67,0,0,0-2.33-2.42,2.42,2.42,0,0,0-3.07.34,8.86,8.86,0,0,0-1-2.56,3.05,3.05,0,0,0-2.23-1.48,2.17,2.17,0,0,1-1.17-.2,1.69,1.69,0,0,1-.46-1.17,5.22,5.22,0,0,0-2.4-3.56,9.64,9.64,0,0,0-2.77-1.16,2.24,2.24,0,0,0-1.93.43,12.77,12.77,0,0,0-.88,1.17A2.2,2.2,0,0,1,209.49,66.83Z" style="fill:#455a64"></path><path id="cloud" d="M229.07,94.78a1.19,1.19,0,0,1-.22.12c-1.21.57-2.62.12-4,.15a5.39,5.39,0,0,0-3.49,1.38c-.69.63-1.2,1.51-2.07,1.91a10.7,10.7,0,0,1-2.52.41c-1.63.33-2.9.63-3.81,2.09-.47.75-.64,1.3-1.57,1.08-1.26-.3-2.53-1-3.89-.64-.78.22-1,.71-1.9.5A13.62,13.62,0,0,0,203,101a9.51,9.51,0,0,0-1.81.34,11.73,11.73,0,0,1-1.67-.21,6.54,6.54,0,0,0-3.29.45,15,15,0,0,1-3.84,1.25,19.6,19.6,0,0,0-3.52.3c.14.67,1.3.35,1.81.43a8.8,8.8,0,0,0,2.69.34c.8-.13,1.35-.68,2.18-.69s1.2.39,1.87.49a2.59,2.59,0,0,0,1.29-.19c.26-.1,1-.71,1.23-.71s.31.21.56.37a3,3,0,0,0,1.39.58c.85.1,1.67-.5,2.4-.44.39,0,.72.61,1.13.83a17,17,0,0,0,4,1.29,9,9,0,0,0,5.07-.1c1.12-.41,2.12-1.13,3.27-1.44,1.94-.52,4,.18,5.77,1.1a6.1,6.1,0,0,0,3.48,1.08c1.72-.24,2.78-2,4.35-2.75,2.08-1,4.66-.19,6.64.6a21.46,21.46,0,0,0,3.47,1.17,7.35,7.35,0,0,0,3.64,0,21.71,21.71,0,0,1,2.65-.89c1.09-.16,2.21.17,3.3,0a8.92,8.92,0,0,0,1.13-.29,7.9,7.9,0,0,1,2.81-.47.31.31,0,0,0,.25,0,.27.27,0,0,0,.05-.22.69.69,0,0,0-.47-.48,2,2,0,0,0-.69-.06c-1.42,0-2.85.12-4.28.26a10.6,10.6,0,0,1-3.78-.47c-.91-.25-1.75-.62-2.67-.78a3.62,3.62,0,0,1-2-1.53c-.76-1-1.57-2.18-2.91-2.25a1.75,1.75,0,0,1-.76-.1c-.35-.18-.45-.61-.56-1A7.12,7.12,0,0,0,233.94,93a2.71,2.71,0,0,0-3.25.4A9.94,9.94,0,0,1,229.07,94.78Z" style="fill:#455a64"></path></g></g><g id="Shadows"><ellipse id="Shadow" cx="261.05" cy="423.01" rx="51.48" ry="28.34" style="opacity:0.2"></ellipse><ellipse id="shadow" cx="125.08" cy="354.36" rx="81.96" ry="45.12" style="opacity:0.2"></ellipse></g><g id="Tree"><g id="tree"><path id="tree" d="M349.56,37.3c-1.62-.46-3.06-.78-4.78-1.2s-3.64-.88-5.44-1.36a11.73,11.73,0,0,1-3.29-1.07c-1-.61-1.59-1.59-2.84-1.94-1.61-.44-3.12.46-4.54,1.19-2.18,1.12-4.29,1.14-6.69,1.22-3.1.11-6.23.34-9.35.2a57,57,0,0,1-9.34-1.15c-3-.65-5.67-1.81-8.6-2.59a.71.71,0,0,0,.28.76c3.79,3.23,8.76,4.79,13.5,5.45a118.19,118.19,0,0,0,18,.73c1.91,0,3.65-.19,5.62,0s3.88.52,5.95.85,4.49.63,6.6,1.17a29,29,0,0,1,7.3,3c3.83,2.21,7.64,4.61,11.29,7.13a10.13,10.13,0,0,1,2.32,2.2c.63.84.91,1.84,1.83,2.36a28.06,28.06,0,0,0-9.27-1.56,20.85,20.85,0,0,0-5.79.89,71,71,0,0,0-7.79,3.17c-2.44,1.11-5,2.11-7.38,3.39a29.56,29.56,0,0,1-10.75,3,31.26,31.26,0,0,1-5.46.37,54.14,54.14,0,0,0-6-.48c.3,1.13,1.95,1.2,2.87,1.36,1.45.26,2.58.89,4.06,1a45.58,45.58,0,0,0,11.6-.78,48.89,48.89,0,0,0,6.24-2.14c2-.68,3.32-1.79,5.16-2.62a43.46,43.46,0,0,1,6.73-2.49,27,27,0,0,1,6.28-1.12,24.12,24.12,0,0,1,10.45,1.94,38.88,38.88,0,0,1,4.79,2.72,6.23,6.23,0,0,1,.88.6,52.56,52.56,0,0,0,7.74,5.45,53.7,53.7,0,0,0,6.4,3.18c1.9.76,3.3,1.66,3.82,3.78A5.32,5.32,0,0,0,392.2,75a3.57,3.57,0,0,0,2.93,1.67,48.36,48.36,0,0,0,8.49.46,33,33,0,0,1,9.86,1.67c4.7,1.32,9.55,2.18,13.78,4.92a14.72,14.72,0,0,1,6,7.71A21.42,21.42,0,0,1,434,97c.3,4.24.47,8.37.75,12.68.12,1.79.85,4.46.3,6.15s-2.33,1.64-3.68,1.77c-3.9.38-7.54.66-11.46.87-4.68.26-9.21,0-13.44-2.19-1.74-.91-2.91-2.1-4.91-2.39-1.31-.19-2.83.28-4.13-.18-2.68-.94-3.83-3.78-5.05-6-1.43-2.62-2.59-5-4-7.53-1.1-1.94-2.54-3.38-2.71-5.66-.05-.74,0-1.66-.61-2s-.86-.11-1.37-.15c-2.39-.22-3.76-2-5.71-3.21s-4.08-2.18-6.15-3.22c-1.23-.62-2.37-1.31-3.67-1.91a3.34,3.34,0,0,0-1.54-.59.56.56,0,0,0-.28,1c2.26,1.85,4.93,3.07,7.39,4.59a28,28,0,0,1,6.51,5.38c1.91,2.19,3.05,5,4.23,7.61,1,2.25,1.77,4.48,2.86,6.66.36.71.74,1.38,1.13,2.07a27.4,27.4,0,0,0-7.19-1.49c-7.73-.36-15,1.89-22.69,2.53a34.06,34.06,0,0,1-8.37-.38,14.43,14.43,0,0,1-7.21-3.31,27.91,27.91,0,0,1-2.41-2.45c-1.72-1.83-3.41-3.71-5.13-5.55a20.3,20.3,0,0,0-2.8-2.68A7.29,7.29,0,0,0,329.15,96a.45.45,0,0,0-.43.11.37.37,0,0,0,0,.49,1.29,1.29,0,0,0,.47.27,10.56,10.56,0,0,1,3.67,2.91c.82,1,1.21,1.79,2.06,3s4.15,4.7,2.73,6.39c-.58.68-1.44.42-2.2.31a123.15,123.15,0,0,1-15.7-3.64c-4.69-1.34-9.07-3.23-14-3.58a36.85,36.85,0,0,0-9.3.57,48.25,48.25,0,0,0-11.4,4c-1.78.82-3.34,1.71-5.15,2.67a18.85,18.85,0,0,1-6.17,1.65.47.47,0,0,0-.35.14.39.39,0,0,0,.07.47,1.07,1.07,0,0,0,.48.2c3.87.56,7-.49,10.49-2a50.44,50.44,0,0,1,8.14-2.8c8.19-1.88,15.57-2.44,23.51.78a2.35,2.35,0,0,1,1.42,1.35c.19.62-.19,1.09,0,1.68a2.14,2.14,0,0,0,2.47,1.52c1.12-.08,2-.74,3.1-1,4.23-.9,8.07.45,12.12,1.62.69.2,1.31.38,2,.54a96.17,96.17,0,0,0,25.41,2.45c4-.15,7.73-1,11.73-1.39,3.63-.35,7.51-1,11.1-.09,2,.5,3.79,1.76,5.62,2.35a44,44,0,0,0,5.27,1.11,25.72,25.72,0,0,1,7.46,3c2.41,1.31,4.53,3,7.08,3.88,4.22,1.53,8.43,1.29,12.89,1.81,3.93.46,8.15.78,11.57,3a20.35,20.35,0,0,1,6.52,7.66c.53,1,.83,2,1.31,3,1.11,2.25,2.56,4.3,3.42,6.64.2.54.42,1.23-.16,1.63-1.4,1-3.08.48-4.75.17s-2.48-.47-4.54-1-7.11-1.53-8.87-2.81c-1.22-.9-1.06-1.49-1.77-2.2-1.05-1-2.15-.84-3.28-1.42s-1.6-1.7-2.35-2.61a21.32,21.32,0,0,0-5.95-5.49,5.12,5.12,0,0,0-2.81-.66c-.1.43.2.72.53,1a16.43,16.43,0,0,1,3.21,2.69,6.34,6.34,0,0,1,1.64,3.21,1,1,0,0,1-.13.72,1,1,0,0,1-.7.55,4.74,4.74,0,0,1-1.55,0c-7.08-1-12.22.64-19.43,1.59a38.59,38.59,0,0,1-10.47.36c-3.6-.53-8.14-2.22-9.29-6.31a28.52,28.52,0,0,1-.52-3.4c-.06-.4-.12-.82-.56-1a11.19,11.19,0,0,0-.71,4.36,21.28,21.28,0,0,0,.42,3.43c.12.68.68,1.67-.1,2.21a1.06,1.06,0,0,1-.79.08,35.91,35.91,0,0,1-6.7-1.45c-2.2-.73-4.33-1.77-6.49-2.64-.24.63.21,1.08.74,1.41a26,26,0,0,0,3.16,1.91,31.46,31.46,0,0,0,3.89,1.52c6.88,2.08,13.79,2.49,20.95,2.62.38,0,.75-.06,1,.36s-.08,1-.49,1.39a38.34,38.34,0,0,1-10.93,6.8,28.33,28.33,0,0,1-9.63,2.42,30.38,30.38,0,0,1-11.37-1.78c-.14.28.06.57.33.73a23.28,23.28,0,0,0,6.71,2.76,19.27,19.27,0,0,0,7.64,0,53.45,53.45,0,0,0,12.59-4,46.64,46.64,0,0,0,5.58-3.12c1.8-1.1,3.62-2.19,5.37-3.3a11.22,11.22,0,0,1,2.62-1c.83-.26,1.3-.64,2.05-.94,2-.8,4.14-.85,6.25-1.42a13.05,13.05,0,0,1,6.48,0,18.91,18.91,0,0,1,5.18,1.78c2.33,1.3,3.87,2.24,6.53,3.78,5.47,3.16,16.25,4.13,20.19,9.05,3.67,4.59,4.13,8.68,4.87,13.69,1,6.85-.17,13.15-.93,19.93a28.82,28.82,0,0,1-4,12.43c-.94,1.55-2.87,1.77-2.53,4.46.17,1.32.5,2.84.57,3.41.87,7.57.5,8.11,1,23.69.67,22.39-4.15,90.34-4.73,96.65-.36,3.95,1,6.27,4.62,7.89a27.43,27.43,0,0,0,21.77.25c3.52-1.58,5.11-3.61,4.73-7.17,0-.26,0-.11-.05-1.1-3.17-38.42-4.49-87.69-5.93-123-.07-1.72-.26-3.75-.26-12.61a27.42,27.42,0,0,1,1.16-8.78c.58-2.08,1.75-1.89,2.08-3.37a9.25,9.25,0,0,0,0-3.19,22.33,22.33,0,0,1,3.46-12.62c1.79-3,4.16-5.21,6.26-7.78,1.83-2.24,2.26-4.4,3.6-6.93a66.29,66.29,0,0,1,4.45-7.34c1.71-2.47,3.27-5.91,2.35-9h-.32c-1,2.38-1.77,4.89-3.54,6.84-.78.85-1.86,2.57-3,2.3s-1-2.34-1.07-3c-.25-2.48-1-5.13-.59-7.62a42.86,42.86,0,0,1,2.33-6.85c1-2.64,2.64-5.19,2.64-8.06,0-.55.27-2-.57-1.87-.52.07-1,2.85-1.21,3.31A102.62,102.62,0,0,1,477,134.9a14.52,14.52,0,0,0-1.83,6.1c-.17,4,1.13,8.1.21,12.09-.5,2.14-.78,4-2.43,5.62-1.4,1.39-2.79,3.4-4.93,4s-2.27-2.18-2.31-3.82a50.94,50.94,0,0,0-2.18-13.11c-.53-1.84-1.58-3.68-1.92-5.61-1-5.68.28-10.83,3.06-15.81,1.2-2.16,1.64-4.76,3.16-6.75a6.77,6.77,0,0,1,2.87-2.11c1-.45,2.38-.74,2.95-1.77.46-.81.09-1.71.3-2.62.44-1.95,2.19-2.85,3.49-4.27s2.54-2.74,3.79-4.27a13.57,13.57,0,0,0,3.51-8.13c0-.36-.22-.76-.5-.74s-.3.2-.4.35a48.4,48.4,0,0,1-3.21,5.43c-1.94,2.4-4.4,4-6.9,5.83a64.75,64.75,0,0,0-12.17,10.92c.44-2.32,1-4.55,1.6-6.85,1.33-5.14,2.17-10.33,3.19-15.58.75-3.86.92-7.81,2.43-11.54.85-2.08,2.51-3.3,4.27-4.78a15.93,15.93,0,0,0,4-5.66,20.23,20.23,0,0,0,1.51-9c0-1.71,0-3.29,0-5.08,0-.6.31-2.41-.09-2.88-.64-.76-.73,1.07-.79,1.47-.23,1.52-.39,3.18-.62,4.72a68.33,68.33,0,0,1-.93,6.89,8.48,8.48,0,0,1-1.29,2.65,8,8,0,0,1-2.76,2.83,6.07,6.07,0,0,0-1.77,1.21,15,15,0,0,1-1.49,1.88,15.5,15.5,0,0,0-1.9,1.9,17.42,17.42,0,0,0-2.75,5.11,11.91,11.91,0,0,0-.24-2.29c-.07-1.13-.12-2-.16-3-.08-2-.17-4-.17-6A91.16,91.16,0,0,1,464.28,60c.81-6.12,2.27-12.09,1.68-18.28-.32-3.23-1.49-6.21-2-9.39a18.84,18.84,0,0,1,.42-8.11,2.78,2.78,0,0,0-.08-2.44A15.13,15.13,0,0,0,461.4,31c0,3.42.67,6.57.92,10a20,20,0,0,1-1.38,9.73c-1.43-.61-2-2.46-2.89-3.53a21.59,21.59,0,0,0-3.48-3.59c-4.5-3.52-9.92-4.93-14.87-7.6a32.35,32.35,0,0,1-4.57-3.21c-2.28-1.81-4.59-3.65-6.92-5.36a27.16,27.16,0,0,0-5.46-3.31c-1.85-.76-3.38-.44-5.26-.75a3.41,3.41,0,0,0-2.78.49,10.8,10.8,0,0,1,3.15.38,16.74,16.74,0,0,1,2.21.86,26.57,26.57,0,0,1,5.72,3.68c1.12.91,2,1.75,3.28,2.94.53.51,2.43,1.81,2.71,2.77a48.9,48.9,0,0,0,4.83,4c2.79,1.92,5.86,2.95,8.85,4.59a19.1,19.1,0,0,1,7,7.09,19.74,19.74,0,0,1,2.3,5.11,37.67,37.67,0,0,1,1.1,9.11c.12,3.82-.12,7.59.27,11.45.34,3.45.52,6.78-.95,10-.71,1.56-1.82,2.86-1.47,4.65a6.1,6.1,0,0,0,.61,1.32c1.62,3.71,1.18,7.56.36,11.33a99.15,99.15,0,0,1-4.55,14.36c-.36.94-.7,1.89-1.1,2.77-.23.51-.53,1.27-1.25.9s-1-2.4-1.21-3.1c-.42-1.51-.8-2.78-1.08-4.22a52.63,52.63,0,0,1-.93-8.92c-.15-8.28-.21-16.53-.33-24.78-.06-3.79.69-7.49.51-11.28-.25-5.21-2.91-9.38-5.25-13.9a16.84,16.84,0,0,1-2.1-6.75c-1.24,1.12-.18,4.12.09,5.24.54,2.22,1.23,3.76,1.88,5.71a13.91,13.91,0,0,1,1,5.63c-.15,2.89-.4,5.92-2.38,8.3-1,1.19-3.5-.29-4.61-.79a24.89,24.89,0,0,1-5.08-2.82,17.73,17.73,0,0,1-5.91-7.68c-.64-1.63-.81-3.3-1.41-4.91a14.65,14.65,0,0,0-2.49-4.38,3.35,3.35,0,0,0-3-1.5,14.67,14.67,0,0,1,2.95,4.55c1.44,3.91,1.56,8.12,3.61,11.79.75,1.35,1.85,2.39,2.17,3.94a.71.71,0,0,1-.05.5.67.67,0,0,1-.42.26,8.57,8.57,0,0,1-3,0c-5.62-.65-11.12-1.28-16.48-3.15a15.39,15.39,0,0,1-6.56-3.88,34.73,34.73,0,0,1-5-6.55,57.46,57.46,0,0,1-4.1-9.56,57.08,57.08,0,0,0-2.15-6A46.11,46.11,0,0,0,383.22,37a24.85,24.85,0,0,0-8.46-8.17c-.7-.38-1.39-.56-1.17.31s1.54,1.59,2.1,2.13c1.54,1.49,3.1,2.62,4.25,4.37,2,3,2.73,6.41,3.74,9.79a3.65,3.65,0,0,1,0,3c-.37.63-1.11,1-1,1.75,0,.33.27.51.46.74a34.49,34.49,0,0,1,4.78,7.86c.69,1.46,1.36,2.85,2.14,4.28a23.46,23.46,0,0,0,1.8,3.3c-1.19-.49-2.34-1-3.49-1.58A50.21,50.21,0,0,1,376,56.58c-2.68-2.56-5-5.41-7.81-7.76s-5.65-4.11-8.52-6.3a32.64,32.64,0,0,0-7-4.16A28.8,28.8,0,0,0,349.56,37.3Z" style="fill:#263238"></path><path d="M445.32,331.51c-1.15-7,1.71-72.67,1.74-89s.58-22.46-2.25-31c-.51-1.54,2.24-5.06,4.19-10.37,3.73-10.16,1.66-28.48.72-31.24a.29.29,0,0,1,0,.16c.15.92.29,1.86.43,2.84,1,6.85-.17,13.15-.93,19.93a28.82,28.82,0,0,1-4,12.43c-.94,1.55-2.87,1.77-2.53,4.46.17,1.32.5,2.84.57,3.41.87,7.57.5,8.11,1,23.69.67,22.39-4.15,90.34-4.73,96.65-.36,3.95,1,6.27,4.62,7.89a27.43,27.43,0,0,0,21.77.25c.35-.16.67-.33,1-.5.13-.09.29-.17.41-.27C456.59,345.87,446.42,338.23,445.32,331.51Z" style="fill:#455a64"></path></g><g id="Rocks"><g id="Grass"><path d="M400.21,290.41c1.85,17,12.32,36.1,12.32,36.1l-4.06-.92C399,303.86,400.21,290.41,400.21,290.41Z" style="fill:#BA68C8"></path><path d="M400.21,290.41c1.85,17,12.32,36.1,12.32,36.1l-4.06-.92C399,303.86,400.21,290.41,400.21,290.41Z" style="opacity:0.15"></path><path d="M410.39,325.88l.08.17-2-.46c-9.44-21.73-8.26-35.18-8.26-35.18C399.92,299,405.92,317.69,410.39,325.88Z" style="opacity:0.15"></path><path d="M412.53,326.51s-3.1-15-1.52-29.2,6.73-22,6.73-22-7.24,6.47-9.95,22.07a90.4,90.4,0,0,0-.59,27.9Z" style="fill:#BA68C8"></path><path d="M412.53,326.51s-3.1-15-1.52-29.2,6.73-22,6.73-22-7.24,6.47-9.95,22.07a90.4,90.4,0,0,0-.59,27.9Z" style="opacity:0.2"></path><path d="M409.73,325.88h0l-2.53-.57a90.4,90.4,0,0,1,.59-27.9c2.71-15.6,9.95-22.07,9.95-22.07C411.17,283.19,405.62,303.94,409.73,325.88Z" style="opacity:0.1"></path><path d="M412.53,326.51s-1.3-12.7,10.43-27.27c0,0-12.35,9.77-14.49,26.35Z" style="fill:#BA68C8"></path><path d="M410.39,325.88c0,.05,0,.09,0,.14l-1.9-.43C410.61,309,423,299.24,423,299.24,417.3,305.37,411,314.77,410.39,325.88Z" style="opacity:0.1"></path></g><path d="M375.14,332.22s-10.81-11.41-9.6-24.64c0,0,.51,11.11,11.35,20.74a54.94,54.94,0,0,1-3.47-18.92c-.11-11.85,2.84-18.74,5.56-21.64-3.07,6.25-3.83,14-3.09,22.43.78,9,3.89,15.82,9.17,22.56Z"></path><polygon id="shadow" points="357.6 362.91 371.63 366.9 376.27 374.76 395.75 375.65 403.71 369.67 411.25 372.39 420.01 372.87 418.92 378.56 433.67 380.75 438.5 376.78 447.76 374.6 459.37 360.24 451.61 355.59 445.27 354.33 439.6 344.72 422.23 339.41 407.87 332.3 364.26 341.62 346.63 354.15 357.6 362.91" style="opacity:0.2"></polygon><path d="M338.41,349.79c-.13-.14-.27-.28-.4-.43a1.64,1.64,0,0,1-.5-.94c0-.58.49-1,1-1.31a7.71,7.71,0,0,1,3.13-1c.63-.07,1.48-.3,1.4-.92a1.19,1.19,0,0,0-.18-.42,9.07,9.07,0,0,1-1.13-5.7,2,2,0,0,1,1-1.67,2.06,2.06,0,0,1,1.1,0,27.29,27.29,0,0,1,4.28,1.25,21,21,0,0,1-.15-8.21,3.7,3.7,0,0,1,1.54-2.76c1.34-.69,2.9.28,4.08,1.2l2.49,1.94a19.1,19.1,0,0,1,3.09-5.36,2.42,2.42,0,0,1,1.82-1.12c1,.05,1.57,1.23,1.87,2.23l1.17,3.86a14.42,14.42,0,0,1,5.63-2.49,2.73,2.73,0,0,1,2.23.24,3,3,0,0,1,.8,1.2,14.88,14.88,0,0,1,1.37,3.72,5.85,5.85,0,0,1,7.68,2,7.33,7.33,0,0,1-.83,8.27,10.17,10.17,0,0,1-7.88,3.39,3.37,3.37,0,0,1,.93,3.92,6.44,6.44,0,0,1-3,3.05,12.35,12.35,0,0,1-14.9-2.59c.49.57-3.71,2.33-4.13,2.41C347.07,354.49,341.92,353.4,338.41,349.79Z" style="fill:#263238"></path><path d="M491.36,343a5.87,5.87,0,0,0-7.57-2.43,14.24,14.24,0,0,0-1.16-3.78,3,3,0,0,0-.72-1.25,2.79,2.79,0,0,0-2.22-.37,14.44,14.44,0,0,0-5.76,2.18c-.32-1.31-.63-2.61-.95-3.92-.25-1-.71-2.22-1.74-2.33a2.41,2.41,0,0,0-1.88,1,18.74,18.74,0,0,0-3.38,5.18l-2.38-2.08c-1.13-1-2.64-2-4-1.42-1,.44-1.37,1.3-2.15,2.66-.47.84-.83,1.51-1.12,2.13a20.85,20.85,0,0,0-.52-3.94,3.69,3.69,0,0,0-1.67-2.69c-1.36-.63-2.88.41-4,1.39l-2.39,2.06a19,19,0,0,0-3.34-5.22,2.45,2.45,0,0,0-1.86-1c-1,.1-1.51,1.31-1.77,2.31l-1,3.92a14.32,14.32,0,0,0-5.74-2.23,2.73,2.73,0,0,0-2.21.35,2.88,2.88,0,0,0-.75,1.23,15.09,15.09,0,0,0-1.19,3.78,5.85,5.85,0,0,0-7.58,2.36,7.33,7.33,0,0,0,1.21,8.22,10.15,10.15,0,0,0,8,3,3.38,3.38,0,0,0-.75,4c.6,1.31,2.22,3.69,3.57,4.22,7,2.78,10.63-.08,13.9-4.11,3.28,3.07,7.51,5.13,11.93,4.29,2.32-.44,4.79-1.71,4.66-2.9.58,5.43,9.44,6.84,14.53,4.85a6,6,0,0,0,3.33-3.09c.61-1.32.42-4.28-.7-5.18a10.18,10.18,0,0,0,8.06-2.95A7.35,7.35,0,0,0,491.36,343Z"></path><g id="Rock"><polygon points="391.21 314.7 372.54 328.69 366.51 338.37 379.27 339.47 395.8 345.99 399.41 335.57 391.5 325.91 391.21 314.7" style="fill:#BA68C8"></polygon><polygon points="391.21 314.7 372.54 328.69 366.51 338.37 379.27 339.47 395.8 345.99 399.41 335.57 391.5 325.91 391.21 314.7" style="opacity:0.30000000000000004"></polygon><polygon points="391.21 314.7 403.08 314.45 406.31 326.3 399.41 335.57 391.5 325.91 391.21 314.7" style="fill:#BA68C8"></polygon><polygon points="391.21 314.7 403.08 314.45 406.31 326.3 399.41 335.57 391.5 325.91 391.21 314.7" style="opacity:0.35000000000000003"></polygon><polygon points="421.07 326.3 423.25 335.6 414.52 333.36 404.56 339.28 400.3 345.32 397.39 356.86 394.74 372.95 388.86 359.6 395.8 345.99 402.9 336.95 413.84 332.37 421.07 326.3" style="fill:#BA68C8"></polygon><polygon points="412.34 362.79 426.12 349.66 419.28 339.02 412.34 362.79" style="fill:#BA68C8"></polygon><g style="opacity:0.5"><polygon points="421.07 326.3 423.25 335.6 414.52 333.36 404.56 339.28 400.3 345.32 397.39 356.86 394.74 372.95 388.86 359.6 395.8 345.99 402.9 336.95 413.84 332.37 421.07 326.3"></polygon><polygon points="412.34 362.79 426.12 349.66 419.28 339.02 412.34 362.79"></polygon></g><polygon points="380.32 322.87 373.76 331.48 372.42 336.15 379.45 336.06 395.8 345.99 379.27 339.47 366.51 338.37 372.54 328.69 380.32 322.87" style="fill:#BA68C8"></polygon><polygon points="403.08 314.45 403.54 325.89 397.36 333.06 399.41 335.57 406.31 326.3 403.08 314.45" style="fill:#BA68C8"></polygon><polygon points="388.86 359.6 379.76 358.49 361.08 353.92 348.96 346.09 352.75 339.61 359.56 338.03 354.15 340.86 353.58 345.27 360.19 349.72 387.67 357.06 395.8 345.99 388.86 359.6" style="fill:#BA68C8"></polygon><g style="opacity:0.25"><polygon points="380.32 322.87 373.76 331.48 372.42 336.15 379.45 336.06 395.8 345.99 379.27 339.47 366.51 338.37 372.54 328.69 380.32 322.87"></polygon><polygon points="403.08 314.45 403.54 325.89 397.36 333.06 399.41 335.57 406.31 326.3 403.08 314.45"></polygon><polygon points="388.86 359.6 379.76 358.49 361.08 353.92 348.96 346.09 352.75 339.61 359.56 338.03 354.15 340.86 353.58 345.27 360.19 349.72 387.67 357.06 395.8 345.99 388.86 359.6"></polygon></g><polygon points="372.54 328.69 359.56 338.03 354.15 340.86 353.58 345.27 360.19 349.72 387.67 357.06 389.97 353.93 380.09 345.99 373.2 347 366.51 338.37 372.54 328.69" style="fill:#BA68C8"></polygon><polygon points="372.54 328.69 359.56 338.03 354.15 340.86 353.58 345.27 360.19 349.72 387.67 357.06 389.97 353.93 380.09 345.99 373.2 347 366.51 338.37 372.54 328.69" style="opacity:0.35000000000000003"></polygon><polygon points="403.08 314.45 421.07 326.3 413.84 332.37 402.9 336.95 395.8 345.99 399.41 335.57 406.31 326.3 403.08 314.45" style="fill:#BA68C8"></polygon><polygon points="414.52 333.36 404.56 339.28 400.3 345.32 397.39 356.86 401.2 367.13 412.34 362.79 419.28 339.02 414.52 333.36" style="fill:#BA68C8"></polygon><polygon points="366.51 338.37 373.2 347 380.09 345.99 379.27 339.47 366.51 338.37" style="fill:#BA68C8"></polygon><polygon points="358.81 360.62 364.65 361.66 367.27 358.29 379.76 358.49 361.08 353.92 358.81 360.62" style="fill:#BA68C8"></polygon><g style="opacity:0.45"><polygon points="403.08 314.45 421.07 326.3 413.84 332.37 402.9 336.95 395.8 345.99 399.41 335.57 406.31 326.3 403.08 314.45"></polygon><polygon points="414.52 333.36 404.56 339.28 400.3 345.32 397.39 356.86 401.2 367.13 412.34 362.79 419.28 339.02 414.52 333.36"></polygon><polygon points="366.51 338.37 373.2 347 380.09 345.99 379.27 339.47 366.51 338.37"></polygon><polygon points="358.81 360.62 364.65 361.66 367.27 358.29 379.76 358.49 361.08 353.92 358.81 360.62"></polygon></g><polygon points="385.05 359.13 379.76 358.49 375.12 364.72 380.66 371.09 385.05 359.13" style="fill:#BA68C8"></polygon><polygon points="385.05 359.13 379.76 358.49 375.12 364.72 380.66 371.09 385.05 359.13" style="opacity:0.35000000000000003"></polygon><polygon points="423.25 335.6 430.61 344.26 426.12 349.66 419.28 339.02 414.52 333.36 423.25 335.6" style="fill:#BA68C8"></polygon><polygon points="394.74 372.95 401.2 367.13 397.39 356.86 394.74 372.95" style="fill:#BA68C8"></polygon><polygon points="395.8 345.99 389.97 353.93 380.09 345.99 379.27 339.47 395.8 345.99" style="fill:#BA68C8"></polygon><polygon points="348.96 346.09 346.63 354.15 358.81 360.62 361.08 353.92 348.96 346.09" style="fill:#BA68C8"></polygon><polygon points="394.74 372.95 380.66 371.09 385.05 359.13 388.86 359.6 394.74 372.95" style="fill:#BA68C8"></polygon><polygon points="364.65 361.66 375.12 364.72 379.76 358.49 367.27 358.29 364.65 361.66" style="fill:#BA68C8"></polygon><g style="opacity:0.4"><polygon points="423.25 335.6 430.61 344.26 426.12 349.66 419.28 339.02 414.52 333.36 423.25 335.6"></polygon><polygon points="394.74 372.95 401.2 367.13 397.39 356.86 394.74 372.95"></polygon><polygon points="395.8 345.99 389.97 353.93 380.09 345.99 379.27 339.47 395.8 345.99"></polygon><polygon points="348.96 346.09 346.63 354.15 358.81 360.62 361.08 353.92 348.96 346.09"></polygon><polygon points="394.74 372.95 380.66 371.09 385.05 359.13 388.86 359.6 394.74 372.95"></polygon><polygon points="364.65 361.66 375.12 364.72 379.76 358.49 367.27 358.29 364.65 361.66"></polygon></g><polygon points="423.25 335.6 421.07 326.3 403.08 314.45 391.21 314.7 372.54 328.69 359.56 338.03 352.75 339.61 348.96 346.08 346.63 354.15 358.81 360.62 364.65 361.66 375.12 364.72 380.66 371.09 394.74 372.95 401.2 367.13 412.34 362.79 426.12 349.66 430.61 344.26 423.25 335.6" style="opacity:0.35000000000000003"></polygon></g><path d="M450.25,357.39s12.94-12.51,12.23-27.72c0,0-1.15,12.69-14,23.17a62.92,62.92,0,0,0,4.91-21.48c.73-13.56-2.3-21.6-5.26-25.05,3.19,7.31,3.67,16.2,2.4,25.82-1.35,10.25-5.25,17.91-11.63,25.37Z" style="fill:#37474f"></path><g id="rock"><polygon points="431.46 343.21 421.19 350.91 417.87 356.23 424.89 356.84 433.99 360.43 435.98 354.7 431.62 349.38 431.46 343.21" style="fill:#BA68C8"></polygon><polygon points="431.46 343.21 421.19 350.91 417.87 356.23 424.89 356.84 433.99 360.43 435.98 354.7 431.62 349.38 431.46 343.21" style="opacity:0.30000000000000004"></polygon><polygon points="431.46 343.21 438 343.07 439.78 349.59 435.98 354.7 431.62 349.38 431.46 343.21" style="fill:#BA68C8"></polygon><polygon points="431.46 343.21 438 343.07 439.78 349.59 435.98 354.7 431.62 349.38 431.46 343.21" style="opacity:0.35000000000000003"></polygon><polygon points="447.9 349.59 449.1 354.71 444.3 353.48 438.82 356.74 436.47 360.06 434.87 366.41 433.41 375.27 430.17 367.92 433.99 360.43 437.9 355.46 443.92 352.94 447.9 349.59" style="fill:#BA68C8"></polygon><polygon points="443.1 369.68 450.69 362.45 446.92 356.6 443.1 369.68" style="fill:#BA68C8"></polygon><g style="opacity:0.5"><polygon points="447.9 349.59 449.1 354.71 444.3 353.48 438.82 356.74 436.47 360.06 434.87 366.41 433.41 375.27 430.17 367.92 433.99 360.43 437.9 355.46 443.92 352.94 447.9 349.59"></polygon><polygon points="443.1 369.68 450.69 362.45 446.92 356.6 443.1 369.68"></polygon></g><polygon points="425.47 347.7 421.86 352.44 421.12 355.01 424.99 354.97 433.99 360.43 424.89 356.84 417.87 356.23 421.19 350.91 425.47 347.7" style="fill:#BA68C8"></polygon><polygon points="438 343.07 438.26 349.37 434.85 353.31 435.98 354.7 439.78 349.59 438 343.07" style="fill:#BA68C8"></polygon><polygon points="430.17 367.92 425.16 367.31 414.88 364.8 408.21 360.48 410.29 356.92 414.04 356.05 411.06 357.61 410.75 360.04 414.39 362.49 429.52 366.53 433.99 360.43 430.17 367.92" style="fill:#BA68C8"></polygon><g style="opacity:0.25"><polygon points="425.47 347.7 421.86 352.44 421.12 355.01 424.99 354.97 433.99 360.43 424.89 356.84 417.87 356.23 421.19 350.91 425.47 347.7"></polygon><polygon points="438 343.07 438.26 349.37 434.85 353.31 435.98 354.7 439.78 349.59 438 343.07"></polygon><polygon points="430.17 367.92 425.16 367.31 414.88 364.8 408.21 360.48 410.29 356.92 414.04 356.05 411.06 357.61 410.75 360.04 414.39 362.49 429.52 366.53 433.99 360.43 430.17 367.92"></polygon></g><polygon points="421.19 350.91 414.04 356.05 411.06 357.61 410.75 360.04 414.39 362.49 429.52 366.53 430.78 364.8 425.34 360.43 421.55 360.99 417.87 356.23 421.19 350.91" style="fill:#BA68C8"></polygon><polygon points="421.19 350.91 414.04 356.05 411.06 357.61 410.75 360.04 414.39 362.49 429.52 366.53 430.78 364.8 425.34 360.43 421.55 360.99 417.87 356.23 421.19 350.91" style="opacity:0.35000000000000003"></polygon><polygon points="438 343.07 447.9 349.59 443.92 352.94 437.9 355.46 433.99 360.43 435.98 354.7 439.78 349.59 438 343.07" style="fill:#BA68C8"></polygon><polygon points="444.3 353.48 438.82 356.74 436.47 360.06 434.87 366.41 436.96 372.07 443.1 369.68 446.92 356.6 444.3 353.48" style="fill:#BA68C8"></polygon><polygon points="417.87 356.23 421.55 360.99 425.34 360.43 424.89 356.84 417.87 356.23" style="fill:#BA68C8"></polygon><polygon points="413.63 368.49 416.84 369.06 418.29 367.2 425.16 367.31 414.88 364.8 413.63 368.49" style="fill:#BA68C8"></polygon><g style="opacity:0.45"><polygon points="438 343.07 447.9 349.59 443.92 352.94 437.9 355.46 433.99 360.43 435.98 354.7 439.78 349.59 438 343.07"></polygon><polygon points="444.3 353.48 438.82 356.74 436.47 360.06 434.87 366.41 436.96 372.07 443.1 369.68 446.92 356.6 444.3 353.48"></polygon><polygon points="417.87 356.23 421.55 360.99 425.34 360.43 424.89 356.84 417.87 356.23"></polygon><polygon points="413.63 368.49 416.84 369.06 418.29 367.2 425.16 367.31 414.88 364.8 413.63 368.49"></polygon></g><polygon points="428.08 367.67 425.16 367.31 422.61 370.75 425.66 374.25 428.08 367.67" style="fill:#BA68C8"></polygon><polygon points="428.08 367.67 425.16 367.31 422.61 370.75 425.66 374.25 428.08 367.67" style="opacity:0.35000000000000003"></polygon><polygon points="449.1 354.71 453.16 359.48 450.69 362.45 446.92 356.6 444.3 353.48 449.1 354.71" style="fill:#BA68C8"></polygon><polygon points="433.41 375.27 436.96 372.07 434.87 366.41 433.41 375.27" style="fill:#BA68C8"></polygon><polygon points="433.99 360.43 430.78 364.8 425.34 360.43 424.89 356.84 433.99 360.43" style="fill:#BA68C8"></polygon><polygon points="408.21 360.48 406.92 364.92 413.63 368.49 414.88 364.8 408.21 360.48" style="fill:#BA68C8"></polygon><polygon points="433.41 375.27 425.66 374.25 428.08 367.67 430.17 367.92 433.41 375.27" style="fill:#BA68C8"></polygon><polygon points="416.84 369.06 422.61 370.75 425.16 367.31 418.29 367.2 416.84 369.06" style="fill:#BA68C8"></polygon><g style="opacity:0.4"><polygon points="449.1 354.71 453.16 359.48 450.69 362.45 446.92 356.6 444.3 353.48 449.1 354.71"></polygon><polygon points="433.41 375.27 436.96 372.07 434.87 366.41 433.41 375.27"></polygon><polygon points="433.99 360.43 430.78 364.8 425.34 360.43 424.89 356.84 433.99 360.43"></polygon><polygon points="408.21 360.48 406.92 364.92 413.63 368.49 414.88 364.8 408.21 360.48"></polygon><polygon points="433.41 375.27 425.66 374.25 428.08 367.67 430.17 367.92 433.41 375.27"></polygon><polygon points="416.84 369.06 422.61 370.75 425.16 367.31 418.29 367.2 416.84 369.06"></polygon></g><polygon points="449.1 354.71 447.9 349.59 438 343.07 431.46 343.21 421.19 350.91 414.04 356.05 410.29 356.92 408.21 360.48 406.92 364.92 413.63 368.49 416.84 369.06 422.61 370.75 425.66 374.25 433.41 375.27 436.96 372.07 443.1 369.68 450.69 362.45 453.16 359.48 449.1 354.71" style="opacity:0.2"></polygon></g></g></g><g id="Owl"><g id="owl"><path d="M283.55,70.44c-3.67.3-8.1,2.31-9,6.65a26.94,26.94,0,0,0-.53,7.59,16.28,16.28,0,0,0-5.85,8.89c-1.6,6-2.13,8.16-2.66,10.15s-1.6,7.47,0,5.62c0,1.34-1.1,4.55-.2,7.73.63.62,1.53-2.51,1.53-2.51s-.72,2.58-.19,4c0,0-.52,3.76,2.84,4.5s4.61-7.24,4.61-7.24a41.43,41.43,0,0,0,5.76-4.73s2.57.89,6-3.14,8.33-10.12,9.22-16.15.75-14.5-2.57-18.18C290.12,70.91,287.22,70.14,283.55,70.44Z" style="fill:#263238"></path><path d="M283.55,83.42c.9,0,2.81,1.68,5.5,1.16A5.23,5.23,0,0,0,293,79.06c-.08-3.35-3.08-6-5.46-4.84s-2.69,3-4,3-1.6-1.93-4-3-4.51,1.49-4.58,4.84,1.89,5.17,3.69,5.52c2.68.52,4-1.16,4.87-1.16" style="fill:#37474f"></path><path d="M286.24,78.24a2.44,2.44,0,0,1,3,0,2.27,2.27,0,0,1-.72,2.81,3.31,3.31,0,0,1-2.6,0A2.31,2.31,0,0,1,286.24,78.24Z" style="fill:#BA68C8"></path><circle cx="287.53" cy="79.51" r="1.04" style="fill:#263238"></circle><path d="M288,79.26a.25.25,0,0,1-.5,0,.25.25,0,1,1,.5,0Z" style="fill:#fafafa"></path><path d="M280.86,78.24a2.43,2.43,0,0,0-3,0,2.28,2.28,0,0,0,.71,2.81,3.3,3.3,0,0,0,2.6,0A2.3,2.3,0,0,0,280.86,78.24Z" style="fill:#BA68C8"></path><circle cx="279.57" cy="79.51" r="1.04" style="fill:#263238"></circle><path d="M279.51,79.26a.26.26,0,0,1-.51,0,.26.26,0,0,1,.51,0Z" style="fill:#fafafa"></path><path d="M283.55,82.76s-.29-.6-.75-.23-.75,1.85.75,3.49Z" style="fill:#455a64"></path><path d="M283.55,82.76s.29-.6.75-.23.75,1.85-.75,3.49Z" style="fill:#37474f"></path></g></g><g id="Character"><g id="character"><g id="Bottom"><path d="M111.46,388.74a13.73,13.73,0,0,1-12.56-2c-4.13-3.06-4-9.21-1.72-12.57a28.24,28.24,0,0,1,12.27-9.82,47.14,47.14,0,0,0,12-7.89c1-1,4.4-2,4.4-2Z"></path><path d="M131.19,351.37,143,339.59l12.27,14.06-20.93,14.77s-12-3.34-12.26-8.48Z" style="fill:#ffa8a7"></path><path d="M132,350.59l-.62.63S130,354.86,133.8,360s6.84,4,6.84,4l1.6-1.12s1.17.85-1.09,2.83-7.29,5-9.54,7-6.42,5.73-9.89,9.26-7,7.44-15.87,6.31C96.11,387,95,378.3,101,372.41c5.73-5.6,7.89-5.59,13.93-9.48s13.21-10.4,14.88-11.84S132,350.59,132,350.59Z" style="fill:#BA68C8"></path><path d="M132,350.59l-.62.63S130,354.86,133.8,360s6.84,4,6.84,4l1.6-1.12s1.17.85-1.09,2.83-7.29,5-9.54,7-6.42,5.73-9.89,9.26-7,7.44-15.87,6.31C96.11,387,95,378.3,101,372.41c5.73-5.6,7.89-5.59,13.93-9.48s13.21-10.4,14.88-11.84S132,350.59,132,350.59Z" style="opacity:0.4"></path><path d="M101,372.41a36.85,36.85,0,0,1,4.91-4.15c7.18,1.24,15.93,8.12,14.56,15-3.14,3.12-7.83,7-15,5.41C95.87,386.56,95,378.3,101,372.41Z" style="fill:#fafafa"></path><path d="M138,343.77l-2.8,3a17.21,17.21,0,0,0,4.3,8.42c3.81,4.33,6.76,5.55,6.76,5.55l6.5-4.62Z" style="fill:#263238"></path><path d="M118.94,307.32s36.13-2.38,50.25,1.25c13.24,3.41,16.46,10.91,13.67,20.47-3.21,11-21.47,23.52-29.32,28.81a5.23,5.23,0,0,1-5.95-.25C142.12,353.83,139,350,137,344.78a2.71,2.71,0,0,1,.5-2.7l1.6-1.81-15.08,3.67-11.9-5.25Z" style="fill:#37474f"></path><path d="M118.94,307.32c6.55-.58,13.11-.9,19.68-1.07s13.15-.08,19.73.35a68,68,0,0,1,9.81,1.34,29.87,29.87,0,0,1,9.25,3.6,16.22,16.22,0,0,1,3.76,3.3,12.46,12.46,0,0,1,2.3,4.42,15.32,15.32,0,0,1,.39,4.95,23.29,23.29,0,0,1-1,4.83,25,25,0,0,0,.76-4.85,14.64,14.64,0,0,0-.57-4.8,12.25,12.25,0,0,0-2.31-4.2,15.79,15.79,0,0,0-3.69-3.07,31.31,31.31,0,0,0-9.07-3.39,69.72,69.72,0,0,0-9.7-1.24c-6.53-.51-13.09-.56-19.65-.56q-4.92,0-9.84.13C125.5,307.11,122.22,307.22,118.94,307.32Z" style="fill:#455a64"></path><path d="M147,327.3c-4.79,5.26-10.08,11.23-12.07,14l4.23-1c7.14-9.13,10.85-17.06,22.1-20.79C161.24,319.48,154.09,319.49,147,327.3Z" style="fill:#263238"></path><path d="M191.7,365.16a8.82,8.82,0,0,0,.82-10.83c-2.5-3.93-7.47-5.36-14.41-4.92s-10.52,2.54-22.17,2.91Z"></path><polygon points="138.54 351.27 149.51 353.31 156.09 354.37 154.46 369.35 134.35 368.44 138.54 351.27" style="fill:#ffa8a7"></polygon><path d="M137.58,350.59l5,1.28s2.08,2.6,1.5,9.22c-.54,6.13-2.16,7.69-2.16,7.69l-5.9.17Z" style="fill:#263238"></path><path d="M146.41,352.74l1,.19s3.19,2.06,3.27,8.42-3.3,7.68-3.3,7.68l-1.79-.08s-.33,1.17,2.67,1.39,8.85-.39,11.85-.15,8.57.69,13.48,1.41,10.07,1.69,16.45-4.55c7-6.88,2.67-14.54-5.69-15.6-7.95-1-9.66.31-16.82.85s-16.81-.32-19-.46S146.41,352.74,146.41,352.74Z" style="fill:#BA68C8"></path><path d="M146.41,352.74l1,.19s3.19,2.06,3.27,8.42-3.3,7.68-3.3,7.68l-1.79-.08s-.33,1.17,2.67,1.39,8.85-.39,11.85-.15,8.57.69,13.48,1.41,10.07,1.69,16.45-4.55c7-6.88,2.67-14.54-5.69-15.6-7.95-1-9.66.31-16.82.85s-16.81-.32-19-.46S146.41,352.74,146.41,352.74Z" style="opacity:0.4"></path><path d="M184.38,351.45c8.36,1.06,12.71,8.72,5.69,15.6-4.8,4.7-8.92,5.31-12.76,5-3.62-2.81-2.42-17-.66-20.87A34.24,34.24,0,0,1,184.38,351.45Z" style="fill:#fafafa"></path><path d="M121.92,308l-64.1,12.7s-1.88,19.93,2.78,32.38,15,15.59,23.45,16.33,17.28-3.2,17.28-3.2,2.16,1,9.62,2.28c3.37.59,14.39,1.22,19.35,1.55s6.66-.11,7.43-1.14c1.62-2.15,2.57-4.94,2.63-10.73,0-2.13-1-7.64-2.68-9l-24.11-9.79Z" style="fill:#37474f"></path><path d="M60.6,353.05c4.67,12.46,15,15.59,23.45,16.33s17.28-3.2,17.28-3.2h0a11.86,11.86,0,0,1-5-5.48s.58,3.25,1.62,4.41c-1.66.68-5.29,1.08-8.88,1.52-5.39.65-18.35-1-23.2-11.07-6.85-14.26-3.48-35.79-3.48-35.79l-4.55.9S55.94,340.6,60.6,353.05Z" style="fill:#263238"></path><path d="M124.61,343.81l-6.28-2.51c-2.16-.87-8.25-3.3-14.35-3-10.91.51-25.18,2.17-25.18,2.17s17.34-3.73,23.44-4.69,8.78-.34,15.17,2.18c4.31,1.7,11.46,4.82,11.46,4.82Z" style="fill:#263238"></path><path d="M117,338.91s4.43-2.14,5.57-11.83a18.75,18.75,0,0,1-2.67,14.08Z" style="fill:#263238"></path></g><g id="Top"><g id="Chest"><path d="M126.65,237.39c-2.91,1.07-4.56,6.12-4.06,12.67,1.28,16.75,2,32.41,4.16,41.4,1.22,5.1,2.8,8.63,7.41,9.55,4.77,1,9.16,1.26,19.36,2.09,2,.16,13.83,1.5,15.67,2.18,1.45.54,1.87,2.11,4.68,3.6,1.73.91,5,1.36,6.88,1.79a40.26,40.26,0,0,1,8.94,3.62c2.62,1.6,3.46,1.76,4.6,1.35a1.55,1.55,0,0,0,.82-.63,3.83,3.83,0,0,0,3.35.91c1-.35,1.29-.83,1.88-1.71a2.24,2.24,0,0,0,2.3-1.77,5.16,5.16,0,0,0-.32-3c1.51-.71,1.67-1.78,1.27-3.16a14.14,14.14,0,0,0-3.89-5.74,23.89,23.89,0,0,0-6.25-3.85c-2-1-4.51-1.8-3.51-2a27.62,27.62,0,0,0,5.26-1.27c1.45-.68,2.91-1.75,2.65-3.7-.18-1.31-.9-1.19-3.59-.92a59.9,59.9,0,0,1-7.58,0,45.78,45.78,0,0,0-10,.91c-5,.87-21.64-4-30.13-5.85,0,0-4.12-28.93-5.6-33.86S136.83,239.71,126.65,237.39Z" style="fill:#ffa8a7"></path><path d="M126.21,237c5.59.91,12.64,3.69,15,12.47S147,282.81,147,282.81l17.29,4.55a13.2,13.2,0,0,0-4,7.67c-.63,4.69.46,9.2,1.45,10.62,0,0-9.89-1.41-18.61-2.58-5.95-.8-11-1.63-12.92-2.35s-3.32-1.79-4.54-8.53-3.29-35.08-3.61-41.07S121.1,240.07,126.21,237Z" style="fill:#263238"></path><path d="M168.22,305a1.54,1.54,0,0,1-.72,1.18,3.26,3.26,0,0,1-1.6.29c-.94-.13-.87-.64-1.88-.23a4.72,4.72,0,0,1-1.27.41,1.44,1.44,0,0,1-1.16-.33c-.81-.53-1.52-.27-2.4-.45-1.21-.25-.8-1.14-.95-2-.07-.4-.44-.63-.69-.91a4.73,4.73,0,0,1-.88-1.12c-.42-1,.35-1.79.46-2.71.09-.74-.58-1.24-.34-2s1.07-1.42,1.58-2.16a1.12,1.12,0,0,0,.18-.94c-.05-.26-.24-.49-.24-.76,0-.76.56-1.14,1-1.69a4.15,4.15,0,0,0,.44-2.09,2.6,2.6,0,0,1,1.26-1.77,7.5,7.5,0,0,1,1.38-.47c.57-.23.67-.85,1.15-1.2a2.16,2.16,0,0,1,2.88.44c.13.16.19.34.38.43a1.33,1.33,0,0,0,.74,0,9.53,9.53,0,0,1,1.5-.32,1.24,1.24,0,0,1,.94.38c.18.22.24.49.5.67s.58.18.84.35a1.35,1.35,0,0,1,.41.48,1.09,1.09,0,0,1-.06,1.11c-.25,0-.85-.1-1.17-.16a9.68,9.68,0,0,0-3.84,5.33c-1.07,4.06-1.92,7.46.24,10C167.31,304.86,167.72,304.91,168.22,305Z" style="fill:#37474f"></path><path d="M172.55,297.06c3.91,3.41,10.35,3.65,15,.5C184.53,301.47,176.14,302.7,172.55,297.06Z" style="fill:#f28f8f"></path><path d="M95.3,237c-6.25,1.67-17,5.32-17,5.32s-7.25,7.71-11.8,23.19c-3.17,10.82-9.82,37.21-9.09,56.74,9,11.6,54.21,7.66,67.28-13.88a128.32,128.32,0,0,1,2.65-25.08c4.75-22.52,5.7-30.69,3.42-37.44-1.35-4-2.77-7.57-4.42-8.85C125.32,236.29,107.67,233.71,95.3,237Z" style="fill:#455a64"></path><path d="M78.28,243c-7.81,1.67-13.31,2.69-18.53,23-4.1,15.91-6.67,30.77-7.26,39.8-.34,5.12,2.89,7.35,5.21,10.08C68.32,328.32,82.29,337.56,84.86,340c2.79,2.65,6.35,7.54,9.89,9.23a41,41,0,0,0,7.75,3,16.65,16.65,0,0,0,6.81.45,16.75,16.75,0,0,0,3.78-1.58,3.59,3.59,0,0,0,1.36-1.85,4.25,4.25,0,0,0,2.49-.7,2.64,2.64,0,0,0,1.08-1.9,16.85,16.85,0,0,0,2.27,0c1.28-.19,1.58-1.17.71-2.62-1.33-2.2-4.46-2.61-6.88-3.35a26.26,26.26,0,0,1-9.74-5c-.58-.53-2.74-2.55-1-3a9.61,9.61,0,0,1,2.21,0,22.89,22.89,0,0,0,3.1-.09c4.77-.53,5.35-3.92,4.58-5s-5.28-.52-10.72-2.31c-4.44-1.47-7.78-1.31-10.21-1.63-4.88-.63-16.67-16.21-19.78-20.16L80.77,270S85.93,253.84,78.28,243Z" style="fill:#ffa8a7"></path><path d="M78.32,242.34c-4.07,1.24-13.82,3.37-17.56,16.35-4.6,16-9.63,40.29-10.11,46.65-.25,3.18.68,5.61,3.81,9.37,4.13,5,17.6,17.32,17.6,17.32a17.89,17.89,0,0,1,6-9.66,20.64,20.64,0,0,1,8.35-4.28L74.24,303.21s5.21-20.51,8.05-30.14C86,260.53,87.8,249,78.32,242.34Z" style="fill:#263238"></path><path d="M81,337a2.7,2.7,0,0,1-2.07.57,2.4,2.4,0,0,1-1.53-1,3,3,0,0,0-.82-.87,2.68,2.68,0,0,0-.74-.13,5,5,0,0,1-1.52-.51,1.66,1.66,0,0,1-.82-1.34c0-.28-.36-.55-.6-.67s-.7-.14-1-.4a2,2,0,0,1-.53-.8c-.25-.81.4-1.21.6-1.9.12-.39-.11-.76-.21-1.13a4.75,4.75,0,0,1-.31-1.39c0-1.06,1.11-1.45,1.61-2.24.4-.62,0-1.37.58-2s1.59-.8,2.36-1.25a1.12,1.12,0,0,0,.58-.77,6.66,6.66,0,0,1,.11-.78c.31-.7,1-.78,1.61-1.1s.88-1.05,1.31-1.69a2.65,2.65,0,0,1,1.91-1,8.34,8.34,0,0,1,1.44.18c.62.05,1-.46,1.56-.57a2.17,2.17,0,0,1,2.4,1.65,1.34,1.34,0,0,0,.16.56,1.19,1.19,0,0,0,.64.35,9.3,9.3,0,0,1,1.49.38,1.19,1.19,0,0,1,.68.74c.07.29,0,.55.15.83s.45.41.61.69a1.38,1.38,0,0,1,.16.6,1,1,0,0,1-.52.92,6.59,6.59,0,0,1-.95-.64,9.92,9.92,0,0,0-5.85,3.15c-2.73,3.19-4.44,7.52-3.62,10.78C80.3,336.42,80.66,336.71,81,337Z" style="fill:#37474f"></path></g><g id="Head"><g id="head"><path d="M134.49,206.58c1.86-5.93,1.27-12.91-1.29-16.64-3.71-5.39-10-8.16-19.87-8.49-7.5-.24-15.13,2.16-17.25,9.68-7.53,1.63-5.26,13.06-4.18,17.54.92,3.83,1.41,7.21,2.34,9.94,1.28,3.75,2.93,6.51,3.67,9.83Z" style="fill:#263238"></path><path d="M132.52,227.3c-1.59,4.14-4.34,7-8.33,7.27a39.3,39.3,0,0,1-6.71-.59l-1.8,7c.12,1.2,1.17,5-3.22,7.83-11.46-.93-16.14-5.48-18.12-9.39l3.59-19.31a3.63,3.63,0,0,1-3.17,1c-.81-.12-3-14.49-1.56-14.5a6,6,0,0,1,4.27,1.79c1.09,1.38,2.28,3.88,3.32,3.65a4.26,4.26,0,0,0,2.79-1.79,8.17,8.17,0,0,0,1.38-4.8c2.31-.78,3.18-1.91,4.07-4.52,1.22-3.56,1-4.59,3.71-6.83,4.08-3.42,18.19-2.44,21,3.17,1.69,3.77,1,12.11.86,16.93A39.74,39.74,0,0,1,132.52,227.3Z" style="fill:#ffa8a7"></path><path d="M117.48,234c-4.33-.66-12.39-3.49-14.49-6.14s-2.62-7.71-2.62-7.71-.25,6.31,1.29,9.24,6,4.58,8.67,5.53S116.7,237,116.7,237Z" style="fill:#f28f8f"></path><path d="M117,203.93l-4.3,2a2.51,2.51,0,0,1,1.18-3.25A2.32,2.32,0,0,1,117,203.93Z" style="fill:#263238"></path><path d="M132,206l-4.41-1.85a2.3,2.3,0,0,1,3.06-1.34A2.52,2.52,0,0,1,132,206Z" style="fill:#263238"></path><path d="M113.71,209a1.94,1.94,0,1,0,2.08-1.77A1.94,1.94,0,0,0,113.71,209Z" style="fill:#263238"></path><path d="M127.36,209a1.94,1.94,0,1,0,2.08-1.77A1.75,1.75,0,0,0,127.36,209Z" style="fill:#263238"></path><polygon points="121.72 204.87 121.89 217.3 128.64 215.66 121.72 204.87" style="fill:#f28f8f"></polygon><path d="M102.8,209c-.13,8.45,2.53,9.77,5.5,10.45,3.92.9,7.75-.7,13.26-.71,4.31,0,4.7.5,7.08,1.66,1.76.86,4.26,1.22,4.86-.79a56.42,56.42,0,0,0,1.3-10.31,79.85,79.85,0,0,1-.87,15.31c-.83,3.92-2.61,7.08-4.92,8.79-3.19,2.38-10.27,2.69-18.09.44s-9.79-6.28-10.57-9.14c-2.52-9.29-1.54-13.87-2.47-15.65S102.8,209,102.8,209Z" style="fill:#263238"></path><path d="M120.87,222.78a7.13,7.13,0,0,1-1.29-.31,7.7,7.7,0,0,1-1.27-.67c-.18-.11-.61-.36-.72,0s.37.69.6.87a4.2,4.2,0,0,0,1.21.62,3.39,3.39,0,0,0,1.41.22c.24,0,.89,0,.71-.43-.1-.21-.43-.22-.62-.26Z" style="fill:#f28f8f"></path></g><path d="M132.2,189a28.9,28.9,0,0,0-22.08-9.32c-9.47.48-22.6,7.94-24.1,16.33-1,5.38,2.72,3.45,3.49,8.27.46,2.84.76,6.35,2.1,8,0,0,3.57-17.52,16.24-21.92C123.49,184.91,132.2,189,132.2,189Z" style="fill:#BA68C8"></path><path d="M132.2,189a28.9,28.9,0,0,0-22.08-9.32c-9.47.48-22.6,7.94-24.1,16.33-1,5.38,2.72,3.45,3.49,8.27.46,2.84.76,6.35,2.1,8,0,0,3.57-17.52,16.24-21.92C123.49,184.91,132.2,189,132.2,189Z" style="opacity:0.4"></path><path d="M94.8,220.22c2.33-14.72,14.3-24.43,24.64-25.74,11.46-1.45,15.17,3.28,15.56,4a7.33,7.33,0,0,1,.48,3,6.7,6.7,0,0,0,1.14-3.07c0-2.56-1.62-7.74-4.08-9.38-3.9-2.6-14.31-4.85-24.65.37C97.72,194.55,92.18,202,91.4,212.33c.15,2.06,1.16,9.72,4.19,9.75Z" style="fill:#BA68C8"></path><path d="M94.8,220.22c2.33-14.72,14.3-24.43,24.64-25.74,11.46-1.45,15.17,3.28,15.56,4a7.33,7.33,0,0,1,.48,3,6.7,6.7,0,0,0,1.14-3.07c0-2.56-1.62-7.74-4.08-9.38-3.9-2.6-14.31-4.85-24.65.37C97.72,194.55,92.18,202,91.4,212.33c.15,2.06,1.16,9.72,4.19,9.75Z" style="opacity:0.2"></path><path d="M114.23,271.3a31.76,31.76,0,0,1,1.85-9.84c1.85-5,4.26-12.95,1.4-17.22H92.07s2.92,6.51,6.73,9.59S113.29,261.68,114.23,271.3Z" style="fill:#BA68C8"></path><path d="M114.23,271.3a31.76,31.76,0,0,1,1.85-9.84c1.85-5,4.26-12.95,1.4-17.22H92.07s2.92,6.51,6.73,9.59S113.29,261.68,114.23,271.3Z" style="opacity:0.4"></path><path d="M114.23,271.3a29.37,29.37,0,0,1,2.35-8.71c1.77-4.11,5.06-9.76,5.92-15.73a21.86,21.86,0,0,0-1.28-11.53,31.4,31.4,0,0,1-4-.23l-1.46,5.7s2.52,2.76,2.27,8.68S113.76,262.84,114.23,271.3Z" style="fill:#263238"></path><path d="M116.94,236.09l-.34,1.3s-1.46,1.26-6.84,1.56-12.25-2.75-14.11-6.56l.34-1.8s-1-.83-2.08,1.8c-.5,1.2-1,2.68-1.49,3.94a5.9,5.9,0,0,0,.76,5.42,19.76,19.76,0,0,0,14.32,8.47c9.22.84,10-6.26,10-6.26s.45-3.67.51-5.61S116.94,236.09,116.94,236.09Z" style="fill:#BA68C8"></path><path d="M116.94,236.09l-.34,1.3s-1.46,1.26-6.84,1.56-12.25-2.75-14.11-6.56l.34-1.8s-1-.83-2.08,1.8c-.5,1.2-1,2.68-1.49,3.94a5.9,5.9,0,0,0,.76,5.42,19.76,19.76,0,0,0,14.32,8.47c9.22.84,10-6.26,10-6.26s.45-3.67.51-5.61S116.94,236.09,116.94,236.09Z" style="opacity:0.30000000000000004"></path><path d="M96.38,228.44,96,230.59s-1-.39-1.8,1.41c-.64,1.4-1.13,2.61-1.13,2.61s0,5.77,8.39,15.22c5,5.6,7.47,7.54,11.09,13.7,1.85,3.13,1.69,7.77,1.69,7.77s-.38-4.83-5.56-9c-4.8-3.86-11.53-5-18.43-12.59a66.36,66.36,0,0,1-6.38-9.19l-6.12,2a8.15,8.15,0,0,1,3.69-6.42c3.71-2.44,5.55-2.48,5.55-2.48S86.68,228.44,96.38,228.44Z" style="fill:#263238"></path></g></g></g></g><g id="Fire"><g id="fire"><path d="M252.77,415.06l30.55-17.56h0l0,0h0c1.13-.64,2.67-.54,4.38.44A13.79,13.79,0,0,1,294,408.74c0,2-.7,3.38-1.82,4h0l-30.32,17.41-.56-.93a6.21,6.21,0,0,1-1.78-.69,13.78,13.78,0,0,1-6.24-10.8,7,7,0,0,1,.19-1.6Z" style="fill:#455a64"></path><path d="M290.29,427.19,238.78,397.5h0l0,0h0c-1.12-.64-2.67-.54-4.38.44a13.81,13.81,0,0,0-6.24,10.81c0,2,.7,3.38,1.82,4h0l51.28,29.54.55-.92a6.3,6.3,0,0,0,1.79-.7,13.77,13.77,0,0,0,6.24-10.8,6.46,6.46,0,0,0-.2-1.59Z" style="fill:#37474f"></path><path d="M285.75,427.55a13.77,13.77,0,0,0-6.23,10.8c0,4,2.79,5.59,6.23,3.6a13.78,13.78,0,0,0,6.24-10.8C292,427.17,289.2,425.56,285.75,427.55Z" style="fill:#455a64"></path><path d="M231.88,427.17l21-12.08h0l0,0h0c1.13-.64,2.67-.54,4.38.44a13.79,13.79,0,0,1,6.24,10.81c0,2-.7,3.38-1.82,4h0L240.93,442.3l-.55-.92a6.74,6.74,0,0,1-1.79-.7,13.8,13.8,0,0,1-6.23-10.8,7.16,7.16,0,0,1,.19-1.6Z" style="fill:#455a64"></path><path d="M236.42,427.52a13.79,13.79,0,0,1,6.24,10.81c0,4-2.79,5.59-6.24,3.6a13.8,13.8,0,0,1-6.23-10.81C230.19,427.15,233,425.53,236.42,427.52Z" style="fill:#37474f"></path><circle cx="261.05" cy="396.24" r="37.92" transform="translate(-193.84 531.27) rotate(-73.15)" style="fill:#BA68C8;opacity:0.1"></circle><circle cx="261.05" cy="377.3" r="56.86" transform="translate(-124.52 128.62) rotate(-22.5)" style="fill:#BA68C8;opacity:0.1"></circle><circle cx="261.05" cy="358.72" r="75.44" transform="translate(-177.19 289.66) rotate(-45)" style="fill:#BA68C8;opacity:0.1"></circle><path d="M261.27,421.13c-10.35,0-26.1-5.84-27.2-24.23S244,370.79,244,370.79s1.2,7.39,5.06,9.42c0,0-4.33-21.73,7.27-29.47,0,0-.77,11.35,3.85,12.34s6.39-18.5,2.32-28c0,0,6.69,2.85,10.79,13.57s2.53,27.63,2.53,27.63a13.67,13.67,0,0,0,5.29-10.47s8.26,16,7.16,30.85S275.17,421.13,261.27,421.13Z" style="fill:#BA68C8"></path><path d="M261.27,421.13c-10.35,0-26.1-5.84-27.2-24.23S244,370.79,244,370.79s1.2,7.39,5.06,9.42c0,0-4.33-21.73,7.27-29.47,0,0-.77,11.35,3.85,12.34s6.39-18.5,2.32-28c0,0,6.69,2.85,10.79,13.57s2.53,27.63,2.53,27.63a13.67,13.67,0,0,0,5.29-10.47s8.26,16,7.16,30.85S275.17,421.13,261.27,421.13Z" style="fill:#fff;opacity:0.5"></path><path d="M261.18,412.33c-9.52,0-16.17-13.16-6.92-26.27,0,0,.54,8.82,5.33,9s5.27-16.86,4.68-20.69c0,0,8.66,10.83,8.66,22.25C272.93,404.78,270.13,412.34,261.18,412.33Z" style="fill:#BA68C8"></path><path d="M261.18,412.33c-9.52,0-16.17-13.16-6.92-26.27,0,0,.54,8.82,5.33,9s5.27-16.86,4.68-20.69c0,0,8.66,10.83,8.66,22.25C272.93,404.78,270.13,412.34,261.18,412.33Z" style="fill:#fff;opacity:0.8"></path></g></g></svg>