<svg xmlns="http://www.w3.org/2000/svg" viewBox="0 0 750 500"><g id="background-complete"><path d="M673.73,312.72H493a5.87,5.87,0,0,1-5.86-5.86V43.59A5.87,5.87,0,0,1,493,37.72H673.73a5.87,5.87,0,0,1,5.87,5.87V306.86A5.87,5.87,0,0,1,673.73,312.72ZM493,38a5.62,5.62,0,0,0-5.61,5.62V306.86a5.61,5.61,0,0,0,5.61,5.61H673.73a5.62,5.62,0,0,0,5.62-5.61V43.59A5.62,5.62,0,0,0,673.73,38Z" style="fill:#e0e0e0"></path><path d="M465.31,312.72H284.56a5.87,5.87,0,0,1-5.86-5.86V43.59a5.87,5.87,0,0,1,5.86-5.87H465.31a5.87,5.87,0,0,1,5.86,5.87V306.86A5.87,5.87,0,0,1,465.31,312.72ZM284.56,38A5.62,5.62,0,0,0,279,43.59V306.86a5.62,5.62,0,0,0,5.61,5.61H465.31a5.62,5.62,0,0,0,5.61-5.61V43.59A5.62,5.62,0,0,0,465.31,38Z" style="fill:#e0e0e0"></path><path d="M257,312.72H76.27a5.87,5.87,0,0,1-5.87-5.86V43.59a5.87,5.87,0,0,1,5.87-5.87H257a5.87,5.87,0,0,1,5.86,5.87V306.86A5.87,5.87,0,0,1,257,312.72ZM76.27,38a5.62,5.62,0,0,0-5.62,5.62V306.86a5.62,5.62,0,0,0,5.62,5.61H257a5.61,5.61,0,0,0,5.61-5.61V43.59A5.62,5.62,0,0,0,257,38Z" style="fill:#e0e0e0"></path><rect y="373.79" width="750" height="0.12" style="fill:#e0e0e0"></rect><rect x="653.63" y="403.17" width="55.73" height="0.42" style="fill:#ebebeb"></rect><rect x="495.04" y="407.73" width="14.63" height="0.42" style="fill:#ebebeb"></rect><rect x="40.64" y="390.37" width="72.67" height="0.42" style="fill:#ebebeb"></rect><rect x="128.3" y="390.37" width="10.66" height="0.42" style="fill:#ebebeb"></rect><rect x="173.59" y="397.47" width="157.61" height="0.42" style="fill:#ebebeb"></rect><rect x="135.99" y="47.17" width="232.81" height="110.35" transform="translate(504.79 204.68) rotate(180)" style="fill:#ebebeb"></rect><rect x="134.02" y="47.17" width="1.97" height="110.35" style="fill:#e0e0e0"></rect><rect x="202.43" y="-7.82" width="97.86" height="220.32" transform="translate(353.7 -149.02) rotate(90)" style="fill:#fafafa"></rect><path d="M296.8,118.43c9.8,9.8,13.17,22.33,11.86,23.63s-10.32-5.57-20.12-15.37-16.69-18.81-15.38-20.12S287,108.63,296.8,118.43Z" style="fill:#e0e0e0"></path><path d="M314.05,83.3c2.87-11.76,29.56,14.93,17.8,17.79,10.1-2.45-20.8,29.53-27.94,31.19-1.14,1.14-6.78-2.64-12.59-8.45s-9.59-11.45-8.45-12.59h0C284.53,104.1,316.51,73.2,314.05,83.3Z" style="fill:#f0f0f0"></path><path d="M309.38,70.35c-1.31,1.31,2.06,13.83,11.86,23.63s22.33,13.17,23.64,11.86-5.57-10.31-15.38-20.12S310.69,69,309.38,70.35Z" style="fill:#e0e0e0"></path><ellipse cx="327.13" cy="88.1" rx="3.35" ry="25.1" transform="translate(33.52 257.12) rotate(-45)" style="fill:#ebebeb"></ellipse><path d="M240.78,129.5a41.54,41.54,0,0,1-13.66-2.87c-12.79-4.62-19.27-16.59-25-27.15-7-12.85-13-23.94-28.07-20.87a1.05,1.05,0,0,1-1.23-.82,1,1,0,0,1,.82-1.22c16.6-3.39,23.26,8.91,30.31,21.92,5.81,10.74,11.82,21.83,23.86,26.18,9.35,3.37,16,3.65,20.28.85,6.18-4,6.89-14.25,7.57-24.13S257,82,262.88,77.69c3.26-2.39,7.7-2.87,13.59-1.46,16,3.81,28.86,21.77,32,33.26,1.48,5.38,1,9.41-1.29,11.67-2.15,2.08-5.6,2.41-10.28,1a1,1,0,1,1,.61-2c3.84,1.18,6.68,1,8.22-.47,1.72-1.67,2-5.09.74-9.62-3-11-15.31-28.17-30.5-31.8-5.26-1.25-9.14-.89-11.87,1.12-5.08,3.73-5.7,12.69-6.36,22.17-.72,10.38-1.46,21.12-8.52,25.72A15.15,15.15,0,0,1,240.78,129.5Z" style="fill:#f0f0f0"></path><path d="M192.92,76.62a1.9,1.9,0,0,1,.82,2.52l0,.06-28.38,60.17,25.15-61.59A1.9,1.9,0,0,1,192.92,76.62Zm-3.41,5.68A.84.84,0,0,0,191,83l1.7-3.86a.84.84,0,1,0-1.53-.68Z" style="fill:#e0e0e0"></path><rect x="82.95" y="303.99" width="3.64" height="140.68" style="fill:#e0e0e0"></rect><polygon points="62.2 448.71 105.66 448.71 86.59 438.81 82.95 438.81 62.2 448.71" style="fill:#e0e0e0"></polygon><path d="M109,231.81c.53-5.42,13.58-35.46,13.58-40.89s-14.11-10.49-21-14.11-6.15-14.12-6.15-14.12H73.51s.73,10.5-6.15,14.12-21,8.68-21,14.11S59.42,226.39,60,231.81s4.52,15.93,2,22.08S46.21,276.5,44.07,306.48l40,1h.9l38.84-1c.33-25.94-14.21-46.44-16.74-52.59S108.49,237.24,109,231.81Z" style="fill:#f5f5f5"></path><path d="M95.23,162.77c.55-.41-4.38-3.24-8.21-3.33s-10.49,1.15-13.53,3.48A17.52,17.52,0,0,0,95.23,162.77Z" style="fill:#e0e0e0"></path><path d="M123.78,306.48c0,.65-17.85,1.18-39.85,1.18s-39.86-.53-39.86-1.18,17.84-1.18,39.86-1.18S123.78,305.82,123.78,306.48Z" style="fill:#e0e0e0"></path><rect x="414.27" y="237.53" width="3.42" height="132.02" style="fill:#e0e0e0"></rect><polygon points="394.8 373.34 435.58 373.34 417.69 364.05 414.27 364.05 394.8 373.34" style="fill:#e0e0e0"></polygon><path d="M434.25,197.75c.39-4,9.9-25.84,9.9-29.79s-10.28-7.64-15.29-10.28-4.48-10.28-4.48-10.28h-16s.53,7.64-4.48,10.28S388.62,164,388.62,168s9.51,25.83,9.9,29.79,3.28,11.59,1.44,16.07-11.45,16.47-13,38.31l29.11.71h.65l28.29-.71c.24-18.89-10.34-33.82-12.19-38.31S433.87,201.7,434.25,197.75Z" style="fill:#f5f5f5"></path><path d="M424.21,147.46c.4-.3-3.19-2.36-6-2.43s-7.64.84-9.86,2.53A12.76,12.76,0,0,0,424.21,147.46Z" style="fill:#e0e0e0"></path><path d="M445,252.13c0,.47-13,.86-29,.86s-29-.39-29-.86,13-.86,29-.86S445,251.65,445,252.13Z" style="fill:#e0e0e0"></path><path d="M646.14,389.75c0-.66-2.24-66.16-12.9-76.51-10.36-10.08-22.25-.38-22.75,0L609.42,312c.14-.12,13.56-11.07,25,0,11.13,10.83,13.31,74.93,13.39,77.65Z" style="fill:#e0e0e0"></path><path d="M647.05,402.62c-.08-.78-7.28-78.63,21.15-111.25l1.25,1.09c-28,32.09-20.81,109.22-20.74,110Z" style="fill:#e0e0e0"></path><path d="M646,394.38l-1.66-.11c0-.88,5.56-88.49-15.29-107.67l1.13-1.23C651.61,305.09,646.24,390.75,646,394.38Z" style="fill:#e0e0e0"></path><path d="M648.71,394.34l-1.66,0c0-2.41.68-59.18,16.81-68.42,3.58-2,7.09-2.39,10.43-1,9.75,4,14.58,21.38,14.79,22.12l-1.61.44c-.05-.18-4.82-17.3-13.82-21-2.83-1.17-5.85-.87-9,.92C649.39,336.12,648.72,393.75,648.71,394.34Z" style="fill:#e0e0e0"></path><path d="M642.43,394.38l-1.66-.1c0-.45,2.43-44.86-9.55-60.5-2.91-3.79-6.06-5.6-9.39-5.37-7.85.55-14.44,12-14.5,12.16l-1.46-.82c.29-.51,7.09-12.39,15.84-13,3.92-.28,7.56,1.75,10.83,6C644.9,348.9,642.54,392.53,642.43,394.38Z" style="fill:#e0e0e0"></path><path d="M645.06,400.42c-.32-4.31-7.83-105.72,5.38-123.58l1.34,1c-12.85,17.37-5.13,121.41-5,122.46Z" style="fill:#e0e0e0"></path><path d="M677.89,335.16s-7.93,2.92-5.57,9.82,27.41,18.25,27.41,18.25,10.5-9.62.86-25.26S678.1,330.23,677.89,335.16Z" style="fill:#ebebeb"></path><path d="M643.43,322s8.44-.35,8.92,6.92-18.28,27.4-18.28,27.4-13.39-4.84-10.52-23S641.33,317.56,643.43,322Z" style="fill:#ebebeb"></path><path d="M636.28,287.21s5.63-.6,5.18-4-21.88-12.25-34.51,2c0,0,8.09,13.9,19.79,14.08S636.28,287.21,636.28,287.21Z" style="fill:#ebebeb"></path><path d="M646.77,278.89s-5.1,2.46-6.52-.68,12.08-22,30.35-16.55c0,0,.49,16.08-9.34,22.42S646.77,278.89,646.77,278.89Z" style="fill:#ebebeb"></path><path d="M620.13,332.39s3.88-3.14-.31-4.67-24.75-1.09-25,19.28c0,0,23.95,4,26.92-3.78S620.13,332.39,620.13,332.39Z" style="fill:#ebebeb"></path><path d="M669,286.7s-3.89-3.13.31-4.66,24.75-1.1,25,19.27c0,0-24,4-26.91-3.78S669,286.7,669,286.7Z" style="fill:#ebebeb"></path><path d="M656.31,303.11s-.35-3.81,2.73-2.32,13.8,13.06,2.69,24c0,0-15-11.08-12.27-16.85S656.31,303.11,656.31,303.11Z" style="fill:#ebebeb"></path><path d="M616.66,308.54s2.32-3-1.08-3.42-18.64,3.69-15.09,18.9c0,0,18.56-1.39,19.36-7.71S616.66,308.54,616.66,308.54Z" style="fill:#ebebeb"></path><polygon points="664.32 423.72 626.88 423.72 616.92 377.78 673.33 377.78 664.32 423.72" style="fill:#f0f0f0"></polygon><rect x="613.52" y="377.12" width="63.06" height="13.21" style="fill:#e6e6e6"></rect><rect x="558.17" y="54.08" width="75.84" height="142.98" style="fill:#e6e6e6"></rect><rect x="541.2" y="54.08" width="89.09" height="142.98" style="fill:#f0f0f0"></rect><rect x="554.74" y="66.78" width="61.96" height="117.58" style="fill:#fff"></rect></g><g id="background-simple"><path d="M627.81,193.27c-8-6.63-17.79-9.76-27.21-13.18-45.81-16.66-88.51-42.84-131.65-67.26s-87.54-47.43-134.84-57S236.53,39.28,191.57,73.12C163.9,91.84,153,131.73,153.86,161.06s14.69,56.8,33.75,76.13,43,31.26,67.32,39.34c44.89,14.89,92,17.55,138.7,19.9,39.63,2,79.49,3.82,118.84-1.93S591,275,623.32,248.33c7.92-6.53,15.93-14.87,17.29-26C642,211,635.85,199.89,627.81,193.27Z" style="fill:#407BFF"></path><g style="opacity:0.9"><path d="M627.81,193.27c-8-6.63-17.79-9.76-27.21-13.18-45.81-16.66-88.51-42.84-131.65-67.26s-87.54-47.43-134.84-57S236.53,39.28,191.57,73.12C163.9,91.84,153,131.73,153.86,161.06s14.69,56.8,33.75,76.13,43,31.26,67.32,39.34c44.89,14.89,92,17.55,138.7,19.9,39.63,2,79.49,3.82,118.84-1.93S591,275,623.32,248.33c7.92-6.53,15.93-14.87,17.29-26C642,211,635.85,199.89,627.81,193.27Z" style="fill:#fff"></path></g></g><g id="Shadow"><path d="M655.05,455.38c0,3.32-125.38,6-280,6s-280-2.7-280-6,125.38-6,280.05-6S655.05,452.05,655.05,455.38Z" style="fill:#f5f5f5"></path></g><g id="speech-bubble"><circle cx="626.86" cy="130.71" r="24.38" transform="translate(13.46 314.51) rotate(-28.46)" style="fill:#407BFF"></circle><polygon points="610.81 141.07 609.55 147.22 601.63 147.35 604.4 140.07 610.81 141.07" style="fill:#407BFF"></polygon><path d="M601,116.41l-.1,0a.25.25,0,0,1-.13-.33,24.54,24.54,0,0,1,18.33-14,.25.25,0,0,1,.28.21.25.25,0,0,1-.21.29,24,24,0,0,0-17.94,13.67A.24.24,0,0,1,601,116.41Z" style="fill:#407BFF"></path><path d="M598.62,123.24h0a.25.25,0,0,1-.23-.27,9,9,0,0,1,1-3.55.26.26,0,0,1,.34-.11.25.25,0,0,1,.1.34,8.77,8.77,0,0,0-1,3.36A.25.25,0,0,1,598.62,123.24Z" style="fill:#407BFF"></path><path d="M638.3,127.74l-1.69-3.32-1.79.71a10,10,0,0,0-2.84-2.41l.42-1.89-3.55-1.15-.76,1.78a9.79,9.79,0,0,0-3.72.29l-1-1.63L620,121.81l.71,1.79a10.25,10.25,0,0,0-2.42,2.84l-1.88-.42-1.15,3.55,1.77.76a10.2,10.2,0,0,0,.29,3.72l-1.62,1,1.69,3.32,1.79-.71A10,10,0,0,0,622,140.1l-.42,1.89,3.54,1.15.77-1.77a10.2,10.2,0,0,0,3.72-.29l1,1.62L634,141l-.71-1.79a10,10,0,0,0,2.41-2.84l1.89.42,1.15-3.54-1.78-.77a9.79,9.79,0,0,0-.29-3.72Zm-6.8,1.38a5,5,0,1,1-6.78-2.2A5,5,0,0,1,631.5,129.12Z" style="fill:#fff"></path></g><g id="characters-2"><path d="M545.49,190.8c-.79,12.06-3.3,28.09-3.3,28.09-2.7.9-22.65,2.61-22.65,2.61l1.8,8s7.56.65,15.11,1.47c13.33,1.43,15.62.3,18-7.58s4.35-32,4.35-32Z" style="fill:#eec1bb"></path><polygon points="565.72 444.93 555.55 445.93 548.03 420.18 563.51 418.49 565.72 444.93" style="fill:#eec1bb"></polygon><path d="M554.08,441.44h3.63a2.59,2.59,0,0,1,2.07,1.07c2.09,2.86,3.66,1.78,5.94-.91,1.45-.16,1.84,1.5,2,1.94l2.71,9.88a1.55,1.55,0,0,1-1.07,1.92,1.63,1.63,0,0,1-.45.06H540.11c-4.58,0-5.53-4.61-3.64-5,8.47-1.87,14.47-4.37,17.09-6.83C554.05,443.1,553.55,442.77,554.08,441.44Z" style="fill:#263238"></path><path d="M548.66,444.8a16.34,16.34,0,0,0,3.41-.44.2.2,0,0,0,.12-.26.23.23,0,0,0-.12-.12c-.51-.25-5.05-2.37-6.19-1.56a.67.67,0,0,0-.3.64,1.49,1.49,0,0,0,.62,1.18A4,4,0,0,0,548.66,444.8Zm2.69-.71c-1.33.25-3.82.58-4.86-.19A1.22,1.22,0,0,1,546,443a.27.27,0,0,1,.12-.27C546.79,442.32,549.47,443.26,551.35,444.09Z" style="fill:#407BFF"></path><path d="M552,444.37a.17.17,0,0,0,.14,0,.2.2,0,0,0,.06-.21c0-.19-1.07-4.66-3.56-4.37-.61.08-.79.38-.81.62-.16,1.19,2.7,3.43,4.06,4Zm-3.11-4.23c1.58,0,2.49,2.61,2.8,3.65-1.48-.78-3.56-2.64-3.43-3.36,0-.06,0-.23.47-.28Z" style="fill:#407BFF"></path><path d="M554.64,446.47a.26.26,0,0,1-.21-.11,4.13,4.13,0,0,0-2.91-1.87.25.25,0,0,1,.07-.5,4.63,4.63,0,0,1,3.26,2.1.25.25,0,0,1-.08.35A.28.28,0,0,1,554.64,446.47Z" style="fill:#407BFF"></path><path d="M552.38,448.17a.25.25,0,0,1-.21-.12,4.11,4.11,0,0,0-2.9-1.87.25.25,0,0,1-.22-.28.26.26,0,0,1,.28-.21,4.64,4.64,0,0,1,3.27,2.1.25.25,0,0,1-.08.34A.23.23,0,0,1,552.38,448.17Z" style="fill:#407BFF"></path><path d="M549.58,449.6a.25.25,0,0,1-.22-.12,4.11,4.11,0,0,0-2.9-1.87.25.25,0,0,1,.07-.49,4.64,4.64,0,0,1,3.26,2.1.25.25,0,0,1-.08.34A.22.22,0,0,1,549.58,449.6Z" style="fill:#407BFF"></path><polygon points="552.01 433.79 552.93 436.94 564.9 435.11 564.68 432.52 552.01 433.79" style="opacity:0.30000000000000004"></polygon><polygon points="624.92 445.75 614.75 446.74 607.24 421 622.71 419.31 624.92 445.75" style="fill:#eec1bb"></polygon><path d="M613.28,442.25h3.63a2.6,2.6,0,0,1,2.07,1.08c2.09,2.86,3.66,1.78,5.94-.91,1.45-.17,1.84,1.49,2,1.94l2.71,9.87a1.54,1.54,0,0,1-1.07,1.92,1.12,1.12,0,0,1-.45.06H599.31c-4.58,0-5.53-4.61-3.64-5,8.47-1.88,14.47-4.37,17.09-6.84C613.25,443.91,612.75,443.59,613.28,442.25Z" style="fill:#263238"></path><path d="M607.86,445.62a17,17,0,0,0,3.41-.44.2.2,0,0,0,0-.38c-.51-.25-5-2.37-6.19-1.56a.66.66,0,0,0-.3.64,1.49,1.49,0,0,0,.62,1.18A4.08,4.08,0,0,0,607.86,445.62Zm2.7-.71c-1.34.25-3.83.58-4.86-.19a1.2,1.2,0,0,1-.46-.87.26.26,0,0,1,.12-.27C606,443.14,608.67,444.08,610.56,444.91Z" style="fill:#407BFF"></path><path d="M611.22,445.19h.14a.21.21,0,0,0,.06-.21c0-.19-1.07-4.66-3.56-4.38-.61.09-.79.38-.81.63-.16,1.19,2.7,3.43,4.06,4ZM608.11,441c1.58,0,2.49,2.61,2.8,3.65-1.48-.78-3.56-2.64-3.43-3.37,0-.06,0-.22.47-.27Z" style="fill:#407BFF"></path><path d="M613.84,447.29a.25.25,0,0,1-.21-.12,4.13,4.13,0,0,0-2.91-1.87.25.25,0,0,1,.07-.49,4.6,4.6,0,0,1,3.26,2.1.24.24,0,0,1-.08.34A.2.2,0,0,1,613.84,447.29Z" style="fill:#407BFF"></path><path d="M611.58,449a.25.25,0,0,1-.21-.12,4.11,4.11,0,0,0-2.9-1.87.25.25,0,0,1-.22-.28.26.26,0,0,1,.29-.22,4.68,4.68,0,0,1,3.26,2.11.26.26,0,0,1-.08.34A.23.23,0,0,1,611.58,449Z" style="fill:#407BFF"></path><path d="M608.78,450.42a.25.25,0,0,1-.22-.12,4.11,4.11,0,0,0-2.9-1.87.25.25,0,0,1,.07-.5A4.68,4.68,0,0,1,609,450a.25.25,0,0,1-.08.34A.22.22,0,0,1,608.78,450.42Z" style="fill:#407BFF"></path><polygon points="611.21 434.6 612.13 437.76 624.1 435.92 623.88 433.33 611.21 434.6" style="opacity:0.30000000000000004"></polygon><path d="M611.78,344.84c-.46-2-1.2-6.11-2.11-11.5l.09,0c-.67-7.14-1.9-40.24-4.15-61.36-1.74-13.45-4.6-21.43-7.73-27.51l-5.36-9.73c-24.44,5.11-40-3.9-40-3.9-6.31,9.65-10.57,24.74-12.22,36.6-3,13.54-5.68,35.27-8.18,55.45-1.23,9.88-1.46,23.09.7,32.82l16.25,80.77,20.44-2c-3.21-34.83-7.69-77.79-9-96.07l11.84-36.84c1.79,9,3.92,17.68,5.77,25.63l2.2,10c.13.65.26,1.3.38,1.93,1.12,5.73,27.69,97.92,27.69,97.92l17.31-1S618,372.12,611.78,344.84Z" style="fill:#407BFF"></path><path d="M554.35,174.62a52.26,52.26,0,0,0-11.71,21.85l20.09,4.81s5.56-14.67,3.31-20C563.69,175.64,560.05,170.26,554.35,174.62Z" style="fill:#263238"></path><g style="opacity:0.30000000000000004"><path d="M553.1,184.15a21.94,21.94,0,0,0-2.25,5.32,47.69,47.69,0,0,0-1.29,8.46l3.86,1.12C553.27,193.88,553.25,189.32,553.1,184.15Z"></path></g><path d="M591.91,233.92l-39.35-3.1-1.84,3.07a30.35,30.35,0,0,0,21.37,8.91c13.72.18,23.06-3.6,23.06-3.6Z" style="opacity:0.30000000000000004"></path><path d="M603.6,199.53,610,177.85c-4-6-23.92-10.61-23.92-10.61l-13.11.72s-5,1.12-9.35,2.53c-5.76,1.88-8.88,3.39-10.25,6.58,0,0-2.41,7.08-1,21.67.4,4,1.31,25.19.19,32.08h0c24,18.66,42.54,2.14,42.54,2.14h0c.36-4.11,1.51-6.81,3.25-14C598.68,217.57,603,200.88,603.6,199.53Z" style="fill:#263238"></path><path d="M599.35,215.07s-4.76-15.68-4.5-26.32l9.14,9.34Z" style="opacity:0.30000000000000004"></path><path d="M598.4,195.72c.59,0,4.71,26.19,4.43,27-1,2.84-29.37,2.88-29.37,2.88l-1.91,8.09A214,214,0,0,0,597.07,236c14.86.41,20.16-4.1,20.22-14,.07-9.12-3.7-31.28-3.7-31.28Z" style="fill:#eec1bb"></path><path d="M602.65,222.68a9.4,9.4,0,0,1,5.88,2s-.1-1.4-2.46-2.68a11.66,11.66,0,0,0-3.76-1Z" style="opacity:0.30000000000000004"></path><path d="M608.31,176.1c4.66,2.54,6.84,19.07,6.84,19.07l-16.26,7.05s-6.3-14.17-3.61-20.44C597.57,176.48,602.39,172.86,608.31,176.1Z" style="fill:#263238"></path><path d="M580.24,133.07a.43.43,0,0,1-.38-.14,4,4,0,0,0-3.57-1.15.49.49,0,0,1-.6-.35v0a.58.58,0,0,1,.43-.67,5,5,0,0,1,4.54,1.42.54.54,0,0,1,0,.75A.5.5,0,0,1,580.24,133.07Z" style="fill:#263238"></path><path d="M562.46,132.08a.5.5,0,0,1-.38,0,.53.53,0,0,1-.12-.73v0a5.68,5.68,0,0,1,4.29-2.59.49.49,0,0,1,.5.49.09.09,0,0,1,0,0,.59.59,0,0,1-.55.55,4.48,4.48,0,0,0-3.38,2.08A.52.52,0,0,1,562.46,132.08Z" style="fill:#263238"></path><path d="M555,128.61c-2,3-2.17,7-1.2,10.57a37.06,37.06,0,0,0,4.88,9.79,105.66,105.66,0,0,1,1.51-21.53Z" style="fill:#263238"></path><path d="M588.77,168.85s-3.9,3.18-8.91,7.75a19,19,0,0,1-3.43,2.49c-3.32,1.88-6.36,3-7.24,1.39a5.94,5.94,0,0,1-.46-1.13c-.78-2.7-.6-6.53,1.54-8.34,2.43-2,3.57-3.77,3.05-6.43a20.4,20.4,0,0,0-1.55-4.55l2.81-1.8,9.9-10.58C583.5,154,583.3,165.27,588.77,168.85Z" style="fill:#eec1bb"></path><path d="M573.42,165.17c2.76-1.75,5.75-4.72,5.29-8a15.62,15.62,0,0,0-.9-3.53l-5.48,7.71A18.83,18.83,0,0,1,573.42,165.17Z" style="opacity:0.2"></path><path d="M586.13,136c-.66,10.51-.72,14.95-6,20.6-7.9,8.5-20.49,6.07-22.94-4.25-2.21-9.29-.75-24.91,9.41-29.61S586.79,125.49,586.13,136Z" style="fill:#eec1bb"></path><path d="M572.1,139.83c0,1.11-.59,2-1.28,2.07s-1.23-.84-1.21-2,.6-2,1.28-2.07S572.12,138.72,572.1,139.83Z" style="fill:#263238"></path><path d="M561.46,140.08c0,1.07-.6,2-1.28,2s-1.23-.82-1.21-1.89.6-2,1.29-2S561.48,139,561.46,140.08Z" style="fill:#263238"></path><path d="M574.73,135.86a.48.48,0,0,1-.38-.1,3.77,3.77,0,0,0-3.48-.87.47.47,0,0,1-.61-.33.56.56,0,0,1,.37-.66,4.74,4.74,0,0,1,4.41,1,.54.54,0,0,1,0,.74A.52.52,0,0,1,574.73,135.86Z" style="fill:#263238"></path><path d="M558.7,134.89a.39.39,0,0,1-.25-.22.57.57,0,0,1,.24-.68,4.36,4.36,0,0,1,4.24-.4.52.52,0,0,1-.51.89,3.47,3.47,0,0,0-3.36.36A.43.43,0,0,1,558.7,134.89Z" style="fill:#263238"></path><path d="M565.12,139.46a35.7,35.7,0,0,1-3.31,6.47.81.81,0,0,0,.41,1.22,5.2,5.2,0,0,0,2.81,0Z" style="fill:#d4827d"></path><path d="M571.29,137.91l-2.42-.5S570.24,139.17,571.29,137.91Z" style="fill:#263238"></path><path d="M560.62,138.22l-2.42-.5S559.56,139.47,560.62,138.22Z" style="fill:#263238"></path><path d="M584.38,150.13c29.89-27.72-10.93-34.59-10.93-34.59-17.37-7.71-14.72,8.67-14.72,8.67-6.09,9.48,6.11,14.35,6.11,14.35-5.85-5.67.45-11,.45-11,.62,8.94,9.81,10.69,9.81,10.69-4.88-7.22-3.55-11.71-3.55-11.71,5.19,13.56,12.76,15,12.76,15Z" style="fill:#263238"></path><path d="M589.54,144.44a8.46,8.46,0,0,1-5,4.11c-2.75.77-4.31-3.65-3.44-6.45a5.57,5.57,0,0,1,6.17-3.79C590,138.77,590.89,141.94,589.54,144.44Z" style="fill:#eec1bb"></path><path d="M583.67,144.3h0a.25.25,0,0,1-.24-.26,4.09,4.09,0,0,1,1.29-2.82,4.14,4.14,0,0,1,2.9-1.08.25.25,0,0,1,0,.5,3.56,3.56,0,0,0-2.54,1,3.51,3.51,0,0,0-1.13,2.47A.26.26,0,0,1,583.67,144.3Z" style="opacity:0.2"></path><path d="M568.36,150.44a5.16,5.16,0,0,1-.84-.08.25.25,0,0,1-.2-.29.24.24,0,0,1,.29-.2,3.25,3.25,0,0,0,3.78-2.07.26.26,0,0,1,.32-.16.26.26,0,0,1,.16.32A3.83,3.83,0,0,1,568.36,150.44Z" style="fill:#263238"></path><path d="M554.35,122.14A12.71,12.71,0,0,0,550.9,128c-.77,2.45-1.12,5.26.2,7.46a15.55,15.55,0,0,1,2.61-4.65,6.82,6.82,0,0,0,3.1,3.61,55.13,55.13,0,0,1,2.81-6.63l1.13-7.09A6.41,6.41,0,0,0,554.35,122.14Z" style="fill:#263238"></path><path d="M559.42,172s4.9,23.28,7.16,22.46,31.18-23.7,31.18-23.7-7.64-4.73-15.49-4.19S565.44,169.2,559.42,172Z" style="fill:#eec1bb"></path><path d="M572.58,263.6c-.62-4.4-2-8.5-2.63-12.89a41.72,41.72,0,0,1,1-16.9l-4.77-1.62a41.72,41.72,0,0,0-1,16.9c.66,4.39,2,8.49,2.63,12.89,1.14,8-.36,16.85-3.93,23l3.31,3.24,1.23-2.2A36,36,0,0,0,572.58,263.6Z" style="fill:#407BFF"></path><g style="opacity:0.30000000000000004"><path d="M572.58,263.6c-.62-4.4-2-8.5-2.63-12.89a41.72,41.72,0,0,1,1-16.9l-4.77-1.62a41.72,41.72,0,0,0-1,16.9c.66,4.39,2,8.49,2.63,12.89,1.14,8-.36,16.85-3.93,23l3.31,3.24,1.23-2.2A36,36,0,0,0,572.58,263.6Z" style="fill:#fff"></path></g><path d="M523.8,221.1c-2.45-2.63-3-5-4.61-9a11.65,11.65,0,0,0-.69-1.93,1.19,1.19,0,0,0-1.35-.52,2.49,2.49,0,0,0-1,1.6,12.74,12.74,0,0,0,.44,4.74,11.69,11.69,0,0,0-4.8-1.26,3.71,3.71,0,0,0-2.3.75,1.63,1.63,0,0,0-.31,2.19,3,3,0,0,0-.78,3.58A2.61,2.61,0,0,0,508,224a3.43,3.43,0,0,1,.58.86,3.46,3.46,0,0,1-.05,1c-.05,1.08,1,1.84,1.94,2.38,3.76,2.14,8.4,1.15,12.75,1.18" style="fill:#eec1bb"></path><path d="M518.22,225.36l-.06,0a4,4,0,0,1-.41-6.54l-1.13-2.8a.13.13,0,1,1,.24-.1l1.15,2.89a.12.12,0,0,1,0,.15,3.76,3.76,0,0,0-1.48,3.18,3.83,3.83,0,0,0,1.8,3,.12.12,0,0,1,0,.17A.11.11,0,0,1,518.22,225.36Z" style="opacity:0.30000000000000004"></path><path d="M581.6,460.19a17.23,17.23,0,0,1,2.46-4.6h0s1.56-6.34-3.92-17.07l4.43-5.4a6.78,6.78,0,0,1,5.9-2.48,2.4,2.4,0,0,1,.77.25,23.91,23.91,0,0,1,2.92,2.48,84.67,84.67,0,0,1,8.22,10l-1,.83-5.48-6c-1.78-2.11-2,2.27-.75,5.08s2,6.41-4.14,11.56C584,460.76,580.87,463,581.6,460.19Z" style="fill:#263238"></path><path d="M484.14,185.94s4.31.08,2.73-6c-1.39-5.41-20.94-35.79-23.3-40.21-3.69-6.9-19.77-44.34-19.77-44.34l-8.87,3.24s15,45.86,15.18,46.32S470.82,185,470.82,185Z" style="fill:#b97964"></path><path d="M532.2,184.32c-1.69-8.25-3.5-16.79-9-23.71-2.4-3-5.46-5.67-7.25-9-3-5.51-2.05-11.9-1.93-18,.09-4.86-.69-10.22-3.91-14a8.59,8.59,0,0,0-5.89-2.73h0c-5.84-4.79-15.64-4.58-22.36-.74s-10.65,10.52-12.36,17.33S468,147.33,468,154.29c-.09,7.55-.61,15.27-4.3,22.17a9,9,0,0,0-1.11,3.21c-.6,5.29,4.79,6.48,9.25,7.07,19,2.47,38.32,4.45,57.23,1.77a4.72,4.72,0,0,0,2.75-1C532.6,186.65,532.42,185.41,532.2,184.32Z" style="fill:#263238"></path><path d="M443.8,97.91s2.45-2.49,2.4-5.37.68-5.2.5-7.34-1.88.22-2.53,1.65-1.4,3.06-2.39,2.4-5.58-9.85-7.06-10.61-1.21,1-1.21,1-1.17-2.2-2.17-2c-.26.06-.76.62-.39,1.71.85,2.45,2.9,7.5,2.9,7.5-.12-.3-3.08-6.34-3.65-7.19-.73-1.11-1.64-1.25-2.27-.8-.9.65,2.53,8.27,2.45,8.69,0,0-1.83-4.45-3.23-4.6s-.41,2.71.94,5.07c1.25,2.17,3.13,6.74,4.6,8.81,1.83,2.56,3.62,3.86,6.52,3.28A10,10,0,0,0,443.8,97.91Z" style="fill:#b97964"></path><path d="M561.59,370.09c-3.3-5.56-9.11-11-11.27-15.66-1.9-4-1.67-7.16-4.88-16.72-3.85-11.59-9.94-26.71-18-36.93,0,0,5.54-17.56-8.42-31.44l-9.17-8.73L475,270.22l53,89.9,50.37,74.05,9.44-4C582.14,412.92,570.75,386.26,561.59,370.09Z" style="fill:#b97964"></path><path d="M576.73,431.09a139.74,139.74,0,0,1,5.86,14.64,22.65,22.65,0,0,1,1.41,9.91s5.13-3.18,5.21-7.18-3.73-14.35,1.3-17.78a10.79,10.79,0,0,0-2.7-.55l-1.5-3.09C583.46,428.23,576.73,431.09,576.73,431.09Z" style="fill:#b97964"></path><path d="M519.78,195l7.5-17.61c-4-6-22.5-11.64-22.5-11.64l-13.11.71s-.13.11-4.45,1.52c-5.76,1.88-9,5.48-9.29,6.1,0,0-8.62,8.62-6.83,23.18.5,4,3.12,26.74-.55,33.44l-1.2,2.41c24,18.66,44.23,15.53,44.23,15.53-1.08-3.29-1-14.16-1.46-17.38.35-4.11.2-7.23,1.94-14.42C514.4,215.41,519.2,196.31,519.78,195Z" style="fill:#b97964"></path><path d="M508,167.79a49.58,49.58,0,0,0-9.48,6.6,18.85,18.85,0,0,1-3.57,2.42c-3.43,1.83-6.55,2.87-7.4,1.21a5.44,5.44,0,0,1-.44-1.17c-.72-2.77-.43-6.66,1.81-8.44,2.53-2,3.75-3.73,3.29-6.45a20.65,20.65,0,0,0-1.45-4.68l2.92-1.75L504.1,145C502.91,151.47,502.56,164,508,167.79Z" style="fill:#b97964"></path><path d="M492.32,162.56c2.86-1.7,6-4.64,5.62-8a15.8,15.8,0,0,0-.81-3.62l-5.8,7.68A19.33,19.33,0,0,1,492.32,162.56Z" style="opacity:0.2"></path><path d="M506.11,133.22c-1,10.68-1.17,15.2-6.68,20.8-8.28,8.42-21,5.59-23.23-5-2-9.53,0-25.38,10.44-29.87S507.09,122.55,506.11,133.22Z" style="fill:#b97964"></path><path d="M492.28,136.7c0,1.13-.66,2.05-1.36,2.07s-1.23-.89-1.18-2,.66-2.06,1.37-2.07S492.33,135.57,492.28,136.7Z" style="fill:#263238"></path><path d="M481.75,136.67c-.05,1.09-.66,2-1.36,2s-1.22-.86-1.17-1.95.66-2,1.36-2S481.81,135.57,481.75,136.67Z" style="fill:#263238"></path><path d="M494.51,132.76a.45.45,0,0,1-.38-.12,3.85,3.85,0,0,0-3.52-1,.48.48,0,0,1-.61-.36.55.55,0,0,1,.39-.65,4.77,4.77,0,0,1,4.46,1.19.53.53,0,0,1,0,.74A.52.52,0,0,1,494.51,132.76Z" style="fill:#263238"></path><path d="M478.21,131.31a.45.45,0,0,1-.24-.23.57.57,0,0,1,.26-.69,4.41,4.41,0,0,1,4.33-.28.47.47,0,0,1,.11.67.49.49,0,0,1-.66.22,3.52,3.52,0,0,0-3.42.26A.44.44,0,0,1,478.21,131.31Z" style="fill:#263238"></path><path d="M484.62,136.15a36,36,0,0,1-3.56,6.48.83.83,0,0,0,.39,1.26,5.24,5.24,0,0,0,2.86.05Z" style="fill:#a24e3f"></path><path d="M491.51,134.73l-2.45-.58S490.4,136,491.51,134.73Z" style="fill:#263238"></path><path d="M480.83,134.74l-2.45-.58S479.72,136,480.83,134.74Z" style="fill:#263238"></path><path d="M502.4,136.91s-5.5-8.29-5.22-15c0,0-10.54-2.75-18.95,8.48-1.34,1.79-2.13,4.77-3.33,7.34,0,0-2-20.31,16-22s21.53,23.63,12.75,32.15C503.66,147.91,505.81,142.1,502.4,136.91Z" style="fill:#263238"></path><path d="M509.34,141.92a8.59,8.59,0,0,1-5.19,4c-2.83.71-4.28-3.84-3.32-6.67a5.68,5.68,0,0,1,6.39-3.68C509.93,136.16,510.78,139.42,509.34,141.92Z" style="fill:#b97964"></path><path d="M503.37,141.6h0a.24.24,0,0,1-.23-.26,4.12,4.12,0,0,1,4.38-3.85.25.25,0,0,1,.23.27.23.23,0,0,1-.26.23,3.63,3.63,0,0,0-3.85,3.38A.25.25,0,0,1,503.37,141.6Z" style="opacity:0.2"></path><path d="M487.72,147.41a4.92,4.92,0,0,1-1-.1.25.25,0,0,1-.19-.3.24.24,0,0,1,.29-.19,3.32,3.32,0,0,0,3.92-2,.25.25,0,0,1,.32-.15.24.24,0,0,1,.15.32A3.88,3.88,0,0,1,487.72,147.41Z" style="fill:#263238"></path><path d="M464.69,261.43l-3.92,91.65,3.14,88.82,11,2.84c4.89-17.55,8.86-52.05,10-70,.27-6.17-1.73-13.28-1-18.14.6-4.27,2.59-7,5.2-16.66,3.16-11.73,6.35-27.41,5.08-39.56,0,0,14.84-13.32,10.44-31Z" style="fill:#b97964"></path><path d="M450,462.79a17.44,17.44,0,0,1,4.85-1.93h0s5.28-3.84,8-15.58l6.86-1.26a6.76,6.76,0,0,1,6.11,1.9,2.65,2.65,0,0,1,.43.69,24.44,24.44,0,0,1,.63,3.78,83.45,83.45,0,0,1-.16,12.94h-1.29l-.3-8.13c0-2.76-3,.45-3.85,3.4s-2.63,6.17-10.61,6.17C451.49,464.8,447.62,464.49,450,462.79Z" style="fill:#263238"></path><path d="M464.16,441.07a112.3,112.3,0,0,1-4.07,11.31,22.72,22.72,0,0,1-5.32,8.48s6,.88,8.62-2.12,6.39-13.38,12.44-12.76a10.22,10.22,0,0,0-1.71-2.16C473.14,442.72,464.16,441.07,464.16,441.07Z" style="fill:#b97964"></path><path d="M539.15,296.26c-5.34-11-20.13-46.43-23.92-53.81a26.47,26.47,0,0,1-2.92-14.78l-41-3a268.42,268.42,0,0,0-10.55,36.4c-5.2,24.67-6.81,70.6-6,92,0,8.19,0,88.45,0,88.45,16.49,2.85,82.33-1.81,91.47-4.59L613,423.11C599.81,418.72,552.69,324.22,539.15,296.26Z" style="fill:#263238"></path><path d="M471.36,187.54c-1.86,6,.07,29.81,0,35.07,0,1.3,0,2.08,0,2.08l40.93,6,7.53-35.7S473.62,180.23,471.36,187.54Z" style="fill:#263238"></path><path d="M519.11,193.75s3.47-1.65,5.55-9.49c1.71-6.46,15.25-33.8,16.24-38.33,1.68-7.64.57-51.64.57-51.64l-7.92.25s-6.35,46.82-6.49,47.29S509,173.9,509,173.9Z" style="fill:#b97964"></path><path d="M534.05,94.79s-3.06-1.68-3.84-4.46-2.15-4.78-2.59-6.89,1.87-.33,2.9.86,2.22,2.52,3,1.61,2.51-11,3.71-12.19,1.44.58,1.44.58.49-2.45,1.51-2.51c.27,0,.91.37.87,1.52-.11,2.59-.62,8-.62,8,0-.31,1.13-6.95,1.42-7.92.39-1.28,1.22-1.67,1.95-1.42,1,.36,0,8.64.15,9,0,0,.47-4.8,1.77-5.35s1.18,2.49.56,5.14c-.57,2.43-1.06,7.35-1.88,9.76-1,3-2.36,4.74-5.29,5A10,10,0,0,1,534.05,94.79Z" style="fill:#b97964"></path><path d="M471.35,222.61s32.86,11.73,63.42,6.34l34.35-4.8.88,3.37s-40.14,5.83-54.43,6.34-45.32-6.25-45.32-6.25Z" style="fill:#407BFF"></path><path d="M471.35,222.61s32.86,11.73,63.42,6.34l34.35-4.8.88,3.37s-40.14,5.83-54.43,6.34-45.32-6.25-45.32-6.25Z" style="fill:#fff;opacity:0.30000000000000004"></path><path d="M553.29,229.83s-.25,2.06,1.14,2.62l.94.44a3.39,3.39,0,0,1,1.13,1,2.74,2.74,0,0,0,2,.7,3,3,0,0,0,1.18,1.45c1,.76,4,.77,4,.77s7.89-1.1,9.26-1.69a4.52,4.52,0,0,0,2-2.54l-1.46-7s-1.92-3.25-6.89-2.9c0,0-2.88-.07-4,2,0,0,2.13,1.47,1.52,2.23S553.29,229.83,553.29,229.83Z" style="fill:#eec1bb"></path></g><g id="character-1"><path d="M175,452.13a1.51,1.51,0,0,0,1.49-1.29l13.57-102.51h22.6l13.57,102.51a1.49,1.49,0,0,0,1.68,1.28,1.51,1.51,0,0,0,1.3-1.67L215.47,346.64a1.48,1.48,0,0,0-1.49-1.29H188.75a1.5,1.5,0,0,0-1.49,1.29L173.52,450.45a1.49,1.49,0,0,0,1.29,1.67Z" style="fill:#263238"></path><path d="M137,452.13a1.51,1.51,0,0,0,1.49-1.29L152.1,348.33h22.6l13.57,102.51a1.5,1.5,0,0,0,3-.39L177.5,346.64a1.48,1.48,0,0,0-1.48-1.29H150.78a1.48,1.48,0,0,0-1.48,1.29L135.55,450.45a1.49,1.49,0,0,0,1.29,1.67Z" style="fill:#263238"></path><path d="M198.8,346.84h-50a17.46,17.46,0,0,1-17.53-17l-1.86-75.27a12.71,12.71,0,0,1,12.76-12.91h31.33a12.72,12.72,0,0,1,12.68,11.22Z" style="fill:#263238"></path><path d="M198.8,346.84h-50a17.46,17.46,0,0,1-17.53-17l-1.86-75.27a12.71,12.71,0,0,1,12.76-12.91h31.33a12.72,12.72,0,0,1,12.68,11.22Z" style="fill:#fff;opacity:0.4"></path><path d="M165.36,335.2h61.13a7.27,7.27,0,0,1,7.27,7.27v1.73a2.65,2.65,0,0,1-2.65,2.65H165.36a0,0,0,0,1,0,0V335.2a0,0,0,0,1,0,0Z" style="fill:#263238"></path><path d="M165.36,335.2h61.13a7.27,7.27,0,0,1,7.27,7.27v1.73a2.65,2.65,0,0,1-2.65,2.65H165.36a0,0,0,0,1,0,0V335.2a0,0,0,0,1,0,0Z" style="fill:#fff;opacity:0.4"></path><path d="M217.17,233.48c2.64,4.72,7.8,15.11,10.92,19.26,0,0,0,0,0,0l35.2,4.36.4,7.93c-9.26,2-31.64,3.52-39.2,3.08-2.3-.14-4.31-2.88-6.54-5-6.95-7.94-9.49-15.08-13.57-23.14v0C200.62,231.53,212.54,225.44,217.17,233.48Z" style="fill:#b97964"></path><path d="M273.46,254.6s9.48,2.77,9.91,3.91-4.33-.45-4.33-.45Z" style="fill:#b97964"></path><path d="M262.81,256.9s8.87-3.54,10.65-2.3,11.05,5,9.2,7.32c-.24.3-3.56-.85-3.73-.59s2,1,2.52,2c.73,1.31-2.32,4.16-3.95,3.64a47.13,47.13,0,0,1-6.18-2.48s-5.27,1.77-8.24.32S262.81,256.9,262.81,256.9Z" style="fill:#b97964"></path><path d="M265.34,262.41a5.73,5.73,0,0,0,6.21-2.61,20,20,0,0,0,5,2.54,1.7,1.7,0,0,0,1.41,0,1.16,1.16,0,0,0,.36-1.34,3.09,3.09,0,0,0-.9-1.19,26.94,26.94,0,0,0-5.57-4" style="fill:#b97964"></path><path d="M266.63,262.82a5.23,5.23,0,0,1-1.36-.17.25.25,0,0,1-.18-.3.26.26,0,0,1,.31-.18,5.5,5.5,0,0,0,5.94-2.49.22.22,0,0,1,.16-.12.24.24,0,0,1,.2,0,19.79,19.79,0,0,0,4.94,2.5,1.43,1.43,0,0,0,1.19,0,.91.91,0,0,0,.26-1,2.89,2.89,0,0,0-.83-1.09,26.81,26.81,0,0,0-5.52-4,.25.25,0,0,1-.1-.34.26.26,0,0,1,.34-.1,27.13,27.13,0,0,1,5.62,4.07,3.39,3.39,0,0,1,1,1.29,1.39,1.39,0,0,1-.46,1.64,1.84,1.84,0,0,1-1.62,0,20,20,0,0,1-4.85-2.41A6.05,6.05,0,0,1,266.63,262.82Z" style="opacity:0.2"></path><path d="M215.52,219.73c3.56,8.5,8.82,21.75,8.82,21.75l-20.8,2.7s-4-15.42-1.19-20.59c2.55-4.63,6-9,10.31-7A5.89,5.89,0,0,1,215.52,219.73Z" style="fill:#407BFF"></path><g style="opacity:0.30000000000000004"><path d="M215.1,227.14a22.32,22.32,0,0,1,1.71,5.61,49.33,49.33,0,0,1,.39,8.68l-4,.71C213.88,236.94,214.4,232.33,215.1,227.14Z"></path></g><path d="M162.47,237.23l1.2-24.4c1.66-3.63,19.1-4.46,18.94-4.28l15.13,1.33a31.06,31.06,0,0,1,8.26,2.33c5.61,2.52,8.59,4.38,9.64,7.75,0,0,1.66,7.41-1.37,22-.83,4-7.35,25.7-7,32.77l2.09,7.41c-3.45,3.69.89,15.21-3.67,15.77-5.48.68-43.73-12.49-43.73-12.49,1.44-3.21,4.61-10.32,5.45-13.52.09-4.18-.79-7-1.77-14.48C165.49,256,162.91,238.65,162.47,237.23Z" style="fill:#407BFF"></path><path d="M303.6,418.66,292,419s-20.65-39.75-30.56-62c-11.72-26.34-9.14-34.83-12.65-35-6.49-.28-72.68,30.15-89.27,13.27S167,277.68,167,277.68s36.95-5.7,40,3.31c.74,2.66,2.35,5.42,2.74,8.15s1.34,6.7,1.34,6.7h0c.88-.22,26.2-2.67,41.92-2.31a24.26,24.26,0,0,1,21.67,14.66C288.81,341,303.6,418.66,303.6,418.66Z" style="fill:#263238"></path><path d="M187.09,339.31s2.7,0,44.59-1.89c0,0-5.75,13.58-7.35,41.56-.66,11.51,1.18,48.79-.26,65.28.73,1,8.43,4.44,13.12,1,0,0,27.19-98.1,26.92-111.41s-15.71-17.23-15.71-17.23S218.67,333.85,187.09,339.31Z" style="fill:#263238"></path><path d="M226.06,328.34q8.59-3.48,16.88-7.65c9.58-4.83,21.35,1.39,22.25,12.07,0,.36.05.72.06,1.09.13,5.41-4.69,25.68-11.6,47.72a36.88,36.88,0,0,1,.75-3.88c6.85-27.53,10.28-41.83,6.85-48.49a20.67,20.67,0,0,0-10.38-9.11l-37.44,18.25c-20.62.9-23.7.94-24.07.94A184.22,184.22,0,0,0,226.06,328.34Z" style="isolation:isolate;opacity:0.2"></path><path d="M239.15,439.69a1,1,0,0,0-1.06-1.09h-3.52c-.89,0-1.86,1.57-2.4,2.27-2.34,3-4,1.83-6.41-1.14-1.57-.22-2,1.57-2.17,2l-3.2,10.62a1.68,1.68,0,0,0,1.11,2.1,1.61,1.61,0,0,0,.48.08l13,.31,18.16.44c5,.12,6.1-4.85,4.08-5.36-9.13-2.25-15.56-5.1-18.33-7.84C238.48,441.77,239.07,440.78,239.15,439.69Z" style="fill:#407BFF"></path><path d="M237.33,445.58a.23.23,0,0,1-.14,0,.24.24,0,0,1-.07-.34,5,5,0,0,1,3.57-2.18.25.25,0,1,1,.06.49,4.49,4.49,0,0,0-3.21,2A.26.26,0,0,1,237.33,445.58Z" style="fill:#fff"></path><path d="M239.88,447.17a.23.23,0,0,1-.14,0,.26.26,0,0,1-.07-.35,5,5,0,0,1,3.57-2.18.25.25,0,0,1,.06.5,4.48,4.48,0,0,0-3.21,2A.26.26,0,0,1,239.88,447.17Z" style="fill:#fff"></path><path d="M243,448.79a.37.37,0,0,1-.14,0,.27.27,0,0,1-.07-.35,5,5,0,0,1,3.57-2.18.25.25,0,0,1,.28.22.25.25,0,0,1-.22.28,4.46,4.46,0,0,0-3.21,2A.26.26,0,0,1,243,448.79Z" style="fill:#fff"></path><path d="M303,410.91l-3.7,1.33a2.81,2.81,0,0,0-1.71,1.86c-1.08,3.68-3.08,3.16-6.39,1.25-1.53.36-1.32,2.2-1.28,2.7l.86,11.05a1.7,1.7,0,0,0,1.8,1.57,1.67,1.67,0,0,0,.48-.11l12.2-4.4L322.4,420c4.66-1.68,3.93-6.73,1.86-6.47-9.32,1.21-16.35.87-19.92-.68C303.68,412.59,304.07,412.08,303,410.91Z" style="fill:#407BFF"></path><path d="M304.23,416.74h-.06a.25.25,0,0,1-.19-.3,5,5,0,0,1,2.54-3.32.25.25,0,0,1,.34.11.24.24,0,0,1-.11.33,4.52,4.52,0,0,0-2.28,3A.25.25,0,0,1,304.23,416.74Z" style="fill:#fff"></path><path d="M307.15,417.14h0a.25.25,0,0,1-.19-.3,5,5,0,0,1,2.54-3.32.24.24,0,0,1,.33.1.25.25,0,0,1-.1.34,4.51,4.51,0,0,0-2.29,3A.24.24,0,0,1,307.15,417.14Z" style="fill:#fff"></path><path d="M310.53,417.57h0a.25.25,0,0,1-.19-.3,5,5,0,0,1,2.54-3.32.25.25,0,0,1,.34.11.25.25,0,0,1-.11.33,4.52,4.52,0,0,0-2.28,3A.26.26,0,0,1,310.53,417.57Z" style="fill:#fff"></path><path d="M166.29,275.31s25.81.91,41-.6c.74,2.67,3.74,11.87,4.13,14.61s.89,4.86.89,4.86h0l4.43,0,3.73,36.33c-21.69,8.88-51,14.78-60.94,4.69C143,318.39,166.29,275.31,166.29,275.31Z" style="fill:#263238"></path><path d="M212.33,294.21,189,299.08s12.77-6.93,22.44-9.74C211.89,292.1,212.33,294.21,212.33,294.21Z" style="isolation:isolate;opacity:0.30000000000000004"></path><path d="M185.12,166a27.29,27.29,0,0,1,3.77-4.18l0,0h0c6.7-6,16.33-7.56,25.54.12,5.4,4.49,9.1,9.94,8.18,18a.59.59,0,0,0,0,.13c-1.49,16.14.94,24,2.49,27.21a1.15,1.15,0,0,1-1.15,1.63c-9.47-.89-45.6-4.55-47.86-8.28S175.05,178.93,185.12,166Z" style="fill:#263238"></path><path d="M185.12,166a27.29,27.29,0,0,1,3.77-4.18l0,0h0c6.7-6,16.33-7.56,25.54.12,5.4,4.49,9.1,9.94,8.18,18a.59.59,0,0,0,0,.13c-1.49,16.14.94,24,2.49,27.21a1.15,1.15,0,0,1-1.15,1.63c-9.47-.89-45.6-4.55-47.86-8.28S175.05,178.93,185.12,166Z" style="fill:#fff;opacity:0.6000000000000001"></path><path d="M181.76,209s3.89,3.46,8.87,8.41a19.63,19.63,0,0,0,3.43,2.72c3.34,2.09,6.43,3.38,7.41,1.76a6,6,0,0,0,.53-1.15c.93-2.75.91-6.72-1.23-8.68-2.41-2.22-3.51-4.05-2.85-6.77a20.51,20.51,0,0,1,1.8-4.63l-2.82-2-9.76-11.37C187.88,193.87,187.58,205.52,181.76,209Z" style="fill:#b97964"></path><path d="M197.79,205.86c-2.77-1.93-5.73-5.13-5.11-8.51a16.05,16.05,0,0,1,1.08-3.6l5.32,8.2A19.8,19.8,0,0,0,197.79,205.86Z" style="opacity:0.2"></path><path d="M189,173.35c-2.16,10.66-3.29,15.12.43,22.17,5.6,10.6,18.82,11.56,24,1.91,4.7-8.68,7.44-24.66-1.44-32.08S191.21,162.68,189,173.35Z" style="fill:#b97964"></path><path d="M202.85,181.48c-.27,1.11.05,2.19.73,2.41s1.45-.5,1.73-1.62-.05-2.19-.72-2.41S203.13,180.37,202.85,181.48Z" style="fill:#263238"></path><path d="M212.87,184.56c-.27,1.08.07,2.14.74,2.35s1.44-.48,1.71-1.56-.06-2.13-.74-2.35S213.14,183.48,212.87,184.56Z" style="fill:#263238"></path><path d="M205.08,176a.49.49,0,0,0,.41,0,3.93,3.93,0,0,1,3.71.07.49.49,0,0,0,.7-.16.6.6,0,0,0-.19-.76A4.93,4.93,0,0,0,205,175a.54.54,0,0,0-.22.72A.55.55,0,0,0,205.08,176Z" style="fill:#263238"></path><path d="M218.53,180.51a.39.39,0,0,0,.31-.15.59.59,0,0,0-.06-.75,4.48,4.48,0,0,0-4.12-1.53.48.48,0,0,0-.31.62.5.5,0,0,0,.58.41,3.59,3.59,0,0,1,3.25,1.25A.43.43,0,0,0,218.53,180.51Z" style="fill:#263238"></path><path d="M205.08,176a.49.49,0,0,0,.41,0,3.93,3.93,0,0,1,3.71.07.49.49,0,0,0,.7-.16.6.6,0,0,0-.19-.76A4.93,4.93,0,0,0,205,175a.54.54,0,0,0-.22.72A.55.55,0,0,0,205.08,176Z" style="fill:#fff;opacity:0.6000000000000001"></path><path d="M218.53,180.51a.39.39,0,0,0,.31-.15.59.59,0,0,0-.06-.75,4.48,4.48,0,0,0-4.12-1.53.48.48,0,0,0-.31.62.5.5,0,0,0,.58.41,3.59,3.59,0,0,1,3.25,1.25A.43.43,0,0,0,218.53,180.51Z" style="fill:#fff;opacity:0.6000000000000001"></path><path d="M209.09,182.45a37.2,37.2,0,0,0,1.56,7.35.84.84,0,0,1-.74,1.11,5.37,5.37,0,0,1-2.8-.79Z" style="fill:#a24e3f"></path><path d="M204.18,179.79l2.55.15S204.9,181.33,204.18,179.79Z" style="fill:#263238"></path><path d="M214.33,183l2.55.15S215,184.49,214.33,183Z" style="fill:#263238"></path><path d="M196.7,177.91s6.66-5.42,8.34-12c0,0,7-.53,11.93,12.84.78,2.13.69,5.26,1.1,8.11,0,0,7.88-19.16-9.16-26s-27.82,16.7-21.77,27.54C187.14,188.34,186.55,185,196.7,177.91Z" style="fill:#263238"></path><path d="M196.7,177.91s6.66-5.42,8.34-12c0,0,7-.53,11.93,12.84.78,2.13.69,5.26,1.1,8.11,0,0,7.88-19.16-9.16-26s-27.82,16.7-21.77,27.54C187.14,188.34,186.55,185,196.7,177.91Z" style="fill:#fff;opacity:0.6000000000000001"></path><path d="M205.85,193.58a35.34,35.34,0,0,0-3.77,3.36l-.74-.52c-3.28-2.35-4-4.53-3.86-6.3a5.35,5.35,0,0,1,.88-2.31,4.75,4.75,0,0,1,.92-1.08c1,2.3,3.87,4.73,5.46,6C205.42,193.28,205.85,193.58,205.85,193.58Z" style="fill:#263238"></path><path d="M204.74,192.73l-1.14,1c-3-2.22-4.95-4.2-5.24-5.84a4.75,4.75,0,0,1,.92-1.08C200.27,189.09,203.17,191.58,204.74,192.73Z" style="fill:#fff"></path><path d="M201.34,196.42c-3.28-2.35-4-4.53-3.86-6.3a12.41,12.41,0,0,1,3.17,3.33A4.91,4.91,0,0,1,201.34,196.42Z" style="fill:#a24e3f"></path><path d="M201.72,180.73h-.07l-13.75-4.86a.2.2,0,1,1,.14-.38l13.75,4.86a.21.21,0,0,1,.12.26A.21.21,0,0,1,201.72,180.73Z" style="fill:#fff"></path><path d="M204,187h-.18a3.32,3.32,0,0,1-2.69-1.39,4.17,4.17,0,0,1-.3-3.7c.91-2.64,3.68-4.71,6.19-4.6a3.34,3.34,0,0,1,2.69,1.4,4.16,4.16,0,0,1,.3,3.7A6.92,6.92,0,0,1,204,187Zm2.83-9.29a6.5,6.5,0,0,0-5.62,4.33,3.72,3.72,0,0,0,.26,3.34,2.91,2.91,0,0,0,2.37,1.22c2.34.1,4.93-1.84,5.79-4.32l.19.06-.19-.06a3.75,3.75,0,0,0-.26-3.34,2.88,2.88,0,0,0-2.37-1.22Z" style="fill:#fff"></path><path d="M214,190.65h-.18a3.33,3.33,0,0,1-2.69-1.4,4.16,4.16,0,0,1-.3-3.7c.9-2.63,3.68-4.71,6.19-4.59a3.3,3.3,0,0,1,2.68,1.39,4.11,4.11,0,0,1,.3,3.7l-.19-.06.19.06A6.89,6.89,0,0,1,214,190.65Zm2.83-9.29a6.47,6.47,0,0,0-5.62,4.33,3.76,3.76,0,0,0,.25,3.34,3,3,0,0,0,2.37,1.22,6.45,6.45,0,0,0,5.79-4.33,3.76,3.76,0,0,0-.25-3.34,3,3,0,0,0-2.37-1.22Z" style="fill:#fff"></path><path d="M211.84,184.23a.21.21,0,0,1-.2-.15c-.18-.68-1.65-.72-2.2-.67a.21.21,0,0,1-.22-.19.22.22,0,0,1,.19-.22c.24,0,2.33-.15,2.62,1a.2.2,0,0,1-.14.25Z" style="fill:#fff"></path><path d="M183.37,180.86a8.74,8.74,0,0,0,3.87,5.44c2.54,1.51,5.28-2.48,5.17-5.51a5.78,5.78,0,0,0-5.15-5.45C184.47,175.09,182.7,178,183.37,180.86Z" style="fill:#b97964"></path><path d="M189.33,182.46a.25.25,0,0,1-.25-.25,7,7,0,0,0-.44-2.85,2.35,2.35,0,0,0-2.08-1.46.25.25,0,0,1,0-.5,2.77,2.77,0,0,1,2.57,1.76,7.31,7.31,0,0,1,.48,3,.26.26,0,0,1-.25.26Z" style="opacity:0.2"></path><path d="M220.38,265.59l4-1.94s13.43.05,13.56-.4v-2.79l-3.31-7.24-6.82-.83-1.84-2.92-14.12,5.65C211.64,255.16,219.07,264.65,220.38,265.59Z" style="isolation:isolate;opacity:0.30000000000000004"></path><rect x="56.81" y="367.48" width="161.18" height="8.13" transform="translate(508.94 234.15) rotate(90)" style="fill:#407BFF"></rect><rect x="56.81" y="367.48" width="161.18" height="8.13" transform="translate(508.94 234.15) rotate(90)" style="opacity:0.2"></rect><rect x="268.78" y="367.48" width="161.18" height="8.13" transform="translate(720.91 22.17) rotate(90)" style="fill:#407BFF"></rect><rect x="268.78" y="367.48" width="161.18" height="8.13" transform="translate(720.91 22.17) rotate(90)" style="opacity:0.2"></rect><rect x="122.73" y="286.89" width="262.5" height="8.13" style="fill:#407BFF"></rect><rect x="78" y="367.48" width="161.18" height="8.13" transform="translate(530.13 212.95) rotate(90)" style="fill:#407BFF"></rect><rect x="122.73" y="286.89" width="50.06" height="8.13" style="opacity:0.2"></rect><rect x="158.59" y="304.79" width="209.62" height="3.47" style="fill:#407BFF"></rect><rect x="377.02" y="366.9" width="0.95" height="7.21" style="fill:#407BFF"></rect><rect x="377.02" y="331.87" width="0.95" height="26.66" style="fill:#407BFF"></rect><rect x="289.98" y="367.48" width="161.18" height="8.13" transform="translate(742.11 0.97) rotate(90)" style="fill:#407BFF"></rect><path d="M227.7,273.19h95.66a5,5,0,0,1,5,5v8.74a0,0,0,0,1,0,0H222.74a0,0,0,0,1,0,0v-8.74A5,5,0,0,1,227.7,273.19Z" style="fill:#407BFF"></path><path d="M227.7,273.19h95.66a5,5,0,0,1,5,5v8.74a0,0,0,0,1,0,0H222.74a0,0,0,0,1,0,0v-8.74A5,5,0,0,1,227.7,273.19Z" style="fill:#fff;opacity:0.5"></path><path d="M234.81,243.37h7.28a0,0,0,0,1,0,0v14a3.07,3.07,0,0,1-3.07,3.07h-1.13a3.07,3.07,0,0,1-3.07-3.07v-14A0,0,0,0,1,234.81,243.37Z" style="fill:#e0e0e0"></path><path d="M238.46,270.42h0a.56.56,0,0,1-.56-.56V259.5H239v10.36A.56.56,0,0,1,238.46,270.42Z" style="fill:#e0e0e0"></path><path d="M246.19,204.22h0a.56.56,0,0,1,.56.56v13.94h-1.12V204.78A.56.56,0,0,1,246.19,204.22Z" style="fill:#e0e0e0"></path><path d="M232.2,222.49V245.4a3.76,3.76,0,0,0,3.77,3.76h6.62a3.77,3.77,0,0,0,2.67-1.1l4.24-4.25a4.54,4.54,0,0,1,4.16-1.21l29.67,6.58a4.5,4.5,0,0,1,3.47,5.11l-3.06,18.9h38.1v-50.7a3.76,3.76,0,0,0-3.76-3.77H236A3.77,3.77,0,0,0,232.2,222.49Z" style="fill:#407BFF"></path><path d="M318.08,218.72v54.47h3.76v-50.7A3.76,3.76,0,0,0,318.08,218.72Z" style="opacity:0.1"></path><path d="M232.2,222.49V245.4a3.76,3.76,0,0,0,3.77,3.76V218.72A3.77,3.77,0,0,0,232.2,222.49Z" style="opacity:0.1"></path><circle cx="301.39" cy="257.79" r="8.34" transform="translate(-1.23 514.12) rotate(-80.81)" style="fill:#fff;opacity:0.5"></circle><path d="M304.91,257.79a3.52,3.52,0,1,1-3.52-3.52A3.51,3.51,0,0,1,304.91,257.79Z" style="fill:#fff;opacity:0.5"></path><path d="M257.51,243.23a5.93,5.93,0,1,1-5.93-5.92A5.93,5.93,0,0,1,257.51,243.23Z" style="fill:#407BFF"></path><path d="M257.51,243.23a5.93,5.93,0,1,1-5.93-5.92A5.93,5.93,0,0,1,257.51,243.23Z" style="fill:#fff;opacity:0.5"></path><path d="M254.08,243.23a2.5,2.5,0,1,1-2.5-2.5A2.49,2.49,0,0,1,254.08,243.23Z" style="fill:#fff;opacity:0.5"></path><path d="M321.84,253.55h0V224.7h.23a2.74,2.74,0,0,1,2.73,2.86L324,245.73l.57,4.76A2.74,2.74,0,0,1,321.84,253.55Z" style="fill:#263238"></path><rect x="243.31" y="206.12" width="5.76" height="11.58" rx="1.85" style="fill:#407BFF"></rect><path d="M295,213.49h0a.56.56,0,0,1,.56.56v4.67h-1.12v-4.67A.56.56,0,0,1,295,213.49Z" style="fill:#e0e0e0"></path><rect x="292.11" y="214.9" width="5.76" height="2.79" rx="0.66" style="fill:#263238"></rect><path d="M310.63,289.36c-2.48-6.95-15.08-2.47-18.61-9.32s-13.78-6.85-13.78-6.85c-4.74-1.56-45-1.67-46.91,0,0,0,10.25,0,13.78,6.85s16.14,2.37,18.61,9.32,3.65,40.1-1.3,46.28c11.66,2,39-2.59,49.11,0C317,324.1,313.1,296.31,310.63,289.36Z" style="fill:#263238"></path><g style="opacity:0.30000000000000004"><path d="M279.3,276.7h0c-.63-.06-1-.06-1-.06a.27.27,0,0,1,0-.53s.41,0,1.08.06a.27.27,0,0,1,.24.29A.26.26,0,0,1,279.3,276.7Z" style="fill:#fff"></path><path d="M310.27,329.2h0a.26.26,0,0,1-.21-.31q.18-1,.33-2.07a.27.27,0,0,1,.3-.23.26.26,0,0,1,.22.3c-.09.73-.21,1.43-.33,2.1A.28.28,0,0,1,310.27,329.2Zm.57-4.18h0a.28.28,0,0,1-.24-.29c.07-.69.12-1.39.16-2.1a.27.27,0,0,1,.53,0c0,.72-.1,1.43-.16,2.12A.26.26,0,0,1,310.84,325Zm.24-4.22h0a.25.25,0,0,1-.26-.27c0-.7,0-1.4,0-2.11a.27.27,0,0,1,.27-.26h0a.26.26,0,0,1,.26.26c0,.72,0,1.42,0,2.12A.27.27,0,0,1,311.08,320.8Zm0-4.23a.26.26,0,0,1-.26-.26l-.06-2.1a.27.27,0,0,1,.25-.28.26.26,0,0,1,.28.26l.06,2.11a.27.27,0,0,1-.26.27Zm-.16-4.22a.26.26,0,0,1-.26-.25c0-.7-.09-1.41-.14-2.1a.27.27,0,0,1,.25-.29.27.27,0,0,1,.28.25c.05.7.1,1.4.14,2.11a.27.27,0,0,1-.25.28Zm-.3-4.21a.27.27,0,0,1-.27-.25c-.06-.7-.13-1.4-.2-2.09a.27.27,0,0,1,.23-.3.26.26,0,0,1,.29.24c.08.69.15,1.4.21,2.11a.26.26,0,0,1-.24.28Zm-.45-4.21a.27.27,0,0,1-.26-.23c-.09-.71-.18-1.41-.27-2.09a.26.26,0,0,1,.23-.3.26.26,0,0,1,.29.22c.1.69.19,1.39.28,2.1a.28.28,0,0,1-.23.3Zm-.58-4.19a.27.27,0,0,1-.26-.22c-.11-.72-.22-1.41-.34-2.08a.26.26,0,1,1,.52-.09c.12.67.23,1.37.35,2.09a.27.27,0,0,1-.22.3Zm-.73-4.16a.26.26,0,0,1-.26-.21c-.15-.74-.3-1.43-.45-2.06a.27.27,0,0,1,.2-.32.28.28,0,0,1,.32.2q.22,1,.45,2.07a.27.27,0,0,1-.21.32Zm-1-4.11a.27.27,0,0,1-.26-.19c-.08-.27-.17-.53-.25-.76a2,2,0,0,0-.66-.91.27.27,0,0,1-.05-.38.28.28,0,0,1,.38,0,2.55,2.55,0,0,1,.83,1.15c.09.24.17.5.26.79a.27.27,0,0,1-.18.33ZM305,288.8h-.07c-.54-.15-1.19-.29-2-.45a.25.25,0,0,1-.21-.3.27.27,0,0,1,.31-.22c.86.16,1.52.3,2.08.46a.27.27,0,0,1,.19.33A.28.28,0,0,1,305,288.8Zm-4.15-.79h0c-.68-.1-1.38-.21-2.09-.35a.26.26,0,0,1-.21-.31.27.27,0,0,1,.31-.21c.7.14,1.4.25,2.07.35a.27.27,0,0,1,.23.3A.28.28,0,0,1,300.82,288Zm-4.14-.81h-.07a18.78,18.78,0,0,1-2-.67.26.26,0,0,1-.14-.34.25.25,0,0,1,.34-.15,19.18,19.18,0,0,0,2,.65.25.25,0,0,1,.18.32A.26.26,0,0,1,296.68,287.2Zm-3.9-1.6a.25.25,0,0,1-.14,0,10.26,10.26,0,0,1-1.72-1.31.27.27,0,1,1,.37-.38,10.28,10.28,0,0,0,1.63,1.24.27.27,0,0,1,.09.36A.26.26,0,0,1,292.78,285.6Zm-3-2.89a.25.25,0,0,1-.22-.12,8.5,8.5,0,0,1-.57-1,7,7,0,0,0-.51-.82.27.27,0,0,1,.06-.38.28.28,0,0,1,.37.06,8.33,8.33,0,0,1,.55.9,9.25,9.25,0,0,0,.54.92.27.27,0,0,1-.07.37A.28.28,0,0,1,289.75,282.71Zm-2.56-3.31a.25.25,0,0,1-.16-.06,10,10,0,0,0-1.75-1.08.26.26,0,1,1,.23-.47,9.55,9.55,0,0,1,1.84,1.14.26.26,0,0,1,0,.37A.28.28,0,0,1,287.19,279.4Zm-3.76-1.89h-.08a19,19,0,0,0-2-.51.25.25,0,0,1-.21-.31.26.26,0,0,1,.31-.21,17.88,17.88,0,0,1,2.07.53.27.27,0,0,1,.18.33A.27.27,0,0,1,283.43,277.51Z" style="fill:#fff"></path><path d="M309.51,332.3h0l-1-.12a.26.26,0,0,1-.24-.29.27.27,0,0,1,.29-.24l.83.1c.08-.26.16-.53.23-.8a.27.27,0,0,1,.32-.19.27.27,0,0,1,.19.33c-.09.35-.19.69-.29,1A.27.27,0,0,1,309.51,332.3Z" style="fill:#fff"></path><path d="M270.5,333.25h-.28A.27.27,0,0,1,270,333c0-.14.12-.23.27-.26h.27c.6,0,1.22,0,1.85,0a.28.28,0,0,1,.27.26.27.27,0,0,1-.26.27C271.72,333.25,271.1,333.25,270.5,333.25Zm4-.07a.27.27,0,0,1-.27-.25.28.28,0,0,1,.26-.28l2.12-.07a.25.25,0,0,1,.28.25.26.26,0,0,1-.26.27l-2.12.08Zm4.25-.17a.27.27,0,0,1,0-.53l2.13-.11a.27.27,0,0,1,.28.25.28.28,0,0,1-.25.28l-2.13.11Zm4.25-.23a.27.27,0,0,1-.27-.25.26.26,0,0,1,.25-.28l2.12-.13a.27.27,0,0,1,.28.25.26.26,0,0,1-.25.28l-2.12.13Zm4.24-.26a.26.26,0,0,1-.26-.25.27.27,0,0,1,.25-.28l2.12-.12a.25.25,0,0,1,.28.25.27.27,0,0,1-.25.28l-2.12.12Zm4.25-.24a.27.27,0,0,1-.27-.26.27.27,0,0,1,.25-.27l2.13-.12a.27.27,0,0,1,.28.26.27.27,0,0,1-.25.27l-2.13.11Zm4.25-.21a.27.27,0,0,1-.27-.26.27.27,0,0,1,.26-.27l2.12-.08a.27.27,0,0,1,.28.26.27.27,0,0,1-.26.27l-2.12.08Zm10.63-.05h0c-.67,0-1.37-.07-2.11-.08a.27.27,0,0,1-.26-.27.25.25,0,0,1,.27-.26c.75,0,1.46,0,2.13.08a.27.27,0,0,1,0,.53Zm-6.38-.09a.27.27,0,0,1-.27-.26.28.28,0,0,1,.26-.27l2.13,0a.27.27,0,0,1,.27.27.26.26,0,0,1-.27.26l-2.12,0Z" style="fill:#fff"></path><path d="M268.09,333.22h0l-1.06,0a.31.31,0,0,1-.2-.11.27.27,0,0,1,0-.23c.09-.33.18-.67.26-1a.27.27,0,1,1,.52.12l-.18.71.72,0a.25.25,0,0,1,.25.27A.26.26,0,0,1,268.09,333.22Z" style="fill:#fff"></path><path d="M267.74,330.1h-.05a.27.27,0,0,1-.21-.31c.13-.66.24-1.35.35-2.06a.26.26,0,0,1,.3-.22.26.26,0,0,1,.22.3c-.1.71-.22,1.41-.35,2.08A.26.26,0,0,1,267.74,330.1Zm.63-4.15h0a.27.27,0,0,1-.24-.29c.08-.68.15-1.38.22-2.08a.26.26,0,0,1,.29-.24.27.27,0,0,1,.24.28c-.07.72-.14,1.41-.22,2.1A.27.27,0,0,1,268.37,326Zm.38-4.18h0a.26.26,0,0,1-.24-.28c.05-.69.09-1.39.12-2.09a.27.27,0,0,1,.28-.25.26.26,0,0,1,.25.28c0,.7-.08,1.4-.12,2.1A.26.26,0,0,1,268.75,321.77Zm.22-4.19h0a.27.27,0,0,1-.26-.27q0-1.05.06-2.1A.26.26,0,0,1,269,315a.27.27,0,0,1,.26.27c0,.71,0,1.41-.06,2.11A.26.26,0,0,1,269,317.58Zm.08-4.2h0a.27.27,0,0,1-.27-.26v-.74c0-.45,0-.91,0-1.36a.27.27,0,1,1,.53,0c0,.45,0,.91,0,1.36v.74A.26.26,0,0,1,269.05,313.38Zm0-4.19a.26.26,0,0,1-.26-.26q0-1.06-.06-2.1a.26.26,0,0,1,.25-.27.28.28,0,0,1,.28.25l.06,2.11a.28.28,0,0,1-.26.27Zm-.14-4.2a.27.27,0,0,1-.27-.25c0-.71-.07-1.41-.11-2.1a.27.27,0,0,1,.24-.28.28.28,0,0,1,.29.25c0,.69.08,1.39.11,2.1a.26.26,0,0,1-.25.28Zm-.26-4.19a.27.27,0,0,1-.27-.25c0-.71-.11-1.41-.17-2.08a.26.26,0,1,1,.52-.05c.07.68.13,1.38.18,2.09a.27.27,0,0,1-.24.29Zm-.4-4.18a.27.27,0,0,1-.26-.24c-.08-.72-.17-1.41-.26-2.07a.26.26,0,0,1,.23-.3.27.27,0,0,1,.3.22c.09.67.18,1.37.26,2.09a.28.28,0,0,1-.24.3Zm-.57-4.16a.26.26,0,0,1-.26-.22c-.13-.75-.27-1.44-.41-2.05a.26.26,0,0,1,.2-.31.26.26,0,0,1,.32.2c.14.61.28,1.31.41,2.07a.28.28,0,0,1-.22.31Zm-1-4.08a.26.26,0,0,1-.25-.17,8.74,8.74,0,0,0-.93-1.8.27.27,0,1,1,.44-.3,9.32,9.32,0,0,1,1,1.91.28.28,0,0,1-.16.35ZM264.3,285a.3.3,0,0,1-.18-.06,9,9,0,0,0-1.68-1.15.27.27,0,0,1-.1-.36.27.27,0,0,1,.36-.11,10.44,10.44,0,0,1,1.77,1.22.26.26,0,0,1-.17.46Zm-3.65-2h-.09a19.3,19.3,0,0,0-2-.56.25.25,0,0,1-.2-.32.26.26,0,0,1,.31-.2c.76.18,1.43.37,2.05.58a.27.27,0,0,1,.17.33A.27.27,0,0,1,260.65,283Zm-4.09-1h0l-1.38-.22-.69-.11a.27.27,0,0,1,.08-.53l.69.11,1.39.22a.26.26,0,0,1,.21.31A.26.26,0,0,1,256.56,282Zm-4.14-.7h0a15.26,15.26,0,0,1-2.06-.55.27.27,0,1,1,.18-.5,16.1,16.1,0,0,0,2,.54.26.26,0,0,1-.06.52Zm-3.83-1.58a.26.26,0,0,1-.18-.07,3.43,3.43,0,0,1-.71-.94c-.15-.29-.31-.58-.48-.85a.27.27,0,0,1,.08-.37.26.26,0,0,1,.37.09c.18.28.34.58.5.89a3.11,3.11,0,0,0,.6.8.26.26,0,0,1,0,.37A.27.27,0,0,1,248.59,279.71Z" style="fill:#fff"></path><path d="M246.19,276.27a.25.25,0,0,1-.2-.09,10.4,10.4,0,0,0-.72-.76.27.27,0,0,1,0-.37.27.27,0,0,1,.38,0c.25.25.5.51.74.79a.27.27,0,0,1,0,.37A.23.23,0,0,1,246.19,276.27Z" style="fill:#fff"></path></g><polygon points="374.17 284.77 338.48 284.77 336.36 286.89 376.29 286.89 374.17 284.77" style="fill:#263238"></polygon><rect x="342.72" y="283.28" width="10.71" height="1.49" style="fill:#407BFF"></rect><rect x="342.72" y="273.56" width="10.71" height="1.49" style="fill:#407BFF"></rect><rect x="343.63" y="275.05" width="8.9" height="8.24" style="fill:#407BFF"></rect><rect x="343.63" y="275.05" width="8.9" height="8.24" style="fill:#fff;opacity:0.6000000000000001"></rect><rect x="359.21" y="283.28" width="10.71" height="1.49" style="fill:#407BFF"></rect><rect x="359.21" y="273.56" width="10.71" height="1.49" style="fill:#407BFF"></rect><rect x="360.12" y="275.05" width="8.9" height="8.24" style="fill:#407BFF"></rect><rect x="360.12" y="275.05" width="8.9" height="8.24" style="opacity:0.6000000000000001"></rect><path d="M179.89,229.34l.52,2.14.58,2.28c.4,1.52.8,3,1.24,4.56.86,3,1.83,6.05,2.83,9l.78,2.22.84,2.19c.55,1.46,1.12,2.91,1.73,4.33,1.22,2.85,2.57,5.59,4,8.26l-5-3.3a5.49,5.49,0,0,0,1.2.12c.28,0,.56,0,.9,0s.64,0,1-.06a37.24,37.24,0,0,0,4.45-.69c1.54-.33,3.13-.69,4.73-1.1s3.2-.87,4.82-1.34c3.24-.93,6.49-2,9.75-3l9.79-3.24.06,0a4,4,0,0,1,3.45,7.08c-3,2-6.07,3.8-9.21,5.54s-6.33,3.36-9.62,4.89a97.07,97.07,0,0,1-10.31,4.1,54.9,54.9,0,0,1-5.77,1.55c-.5.11-1.05.2-1.6.28s-1.11.15-1.71.2a20.18,20.18,0,0,1-4,0,6.46,6.46,0,0,1-4.75-2.86l-.3-.44a90.31,90.31,0,0,1-5.53-9.38,103.36,103.36,0,0,1-4.4-9.75c-1.32-3.3-2.45-6.64-3.47-10-.49-1.69-1-3.39-1.39-5.11-.21-.86-.43-1.72-.61-2.6s-.36-1.71-.56-2.75A8,8,0,0,1,179.81,229Z" style="fill:#b97964"></path><path d="M217.54,253.49s1-3.25,3.52-4.53,4.17-3,6.1-3.79.67,1.72-.26,2.94-2,2.61-1,3.16,11,.29,12.37,1.22S238,254,238,254s2.44,0,2.7,1c.06.25-.19.95-1.3,1.12-2.5.39-7.78.94-7.78.94.3,0,6.87-.25,7.86-.15,1.29.13,1.83.85,1.72,1.59-.14,1.07-8.28,1.61-8.61,1.87,0,0,4.68-.47,5.45.68s-2.15,1.6-4.8,1.51c-2.44-.08-7.24.39-9.7.07-3-.4-5-1.35-5.81-4.11A9.72,9.72,0,0,1,217.54,253.49Z" style="fill:#b97964"></path><path d="M160.63,219.91c-.65,8.55,2.25,22.17,2.25,22.17l20.49-8.63s-5.05-13.29-9.81-18.56C169.53,210.45,162.14,208.94,160.63,219.91Z" style="fill:#407BFF"></path></g></svg>
