<svg xmlns="http://www.w3.org/2000/svg" viewBox="0 0 500 500"><g id="Floor"><ellipse cx="250" cy="343.83" rx="232.62" ry="137.05" style="fill:#f5f5f5"></ellipse></g><g id="Shadows"><path d="M92.88,357.49l26.33,23.28a19.06,19.06,0,0,0,9.1,4.46l49.07,9.25a18.18,18.18,0,0,0,5.84.16l6.77-.9a14.49,14.49,0,0,0,5.5-1.91L330.8,311.42a2.75,2.75,0,0,0,0-4.72L259,263.81a2.77,2.77,0,0,0-2.73-.05L93.37,353A2.74,2.74,0,0,0,92.88,357.49Z" style="fill:#e0e0e0"></path><ellipse cx="346.88" cy="389.37" rx="76.68" ry="45.18" style="fill:#e0e0e0"></ellipse><path d="M229.16,381.85c0,3.69-5.07,6.68-11.34,6.68s-11.34-3-11.34-6.68,5.08-6.68,11.34-6.68S229.16,378.16,229.16,381.85Z" style="fill:#e0e0e0"></path><path d="M185.58,395c0,3.69-5.08,6.69-11.34,6.69s-11.35-3-11.35-6.69,5.08-6.68,11.35-6.68S185.58,391.34,185.58,395Z" style="fill:#e0e0e0"></path><ellipse cx="242.62" cy="390.84" rx="14.01" ry="8.26" style="fill:#e0e0e0"></ellipse><ellipse cx="256.63" cy="369.72" rx="14.01" ry="8.26" style="fill:#e0e0e0"></ellipse></g><g id="Plants"><path d="M121.79,414.82s6.25-9.38,1.69-15.4c-1-1.35-1.31,4.09-3.23,5.23a.59.59,0,0,1-.89-.57c.21-2.32.57-9.33-2.33-11.7-1.66-1.34-.38,3.59-2.06,4.9a.69.69,0,0,1-1.1-.43c-.44-2.28-2-9-4.73-9-2,0,.71,4.43-3.38,3.17s-6.54-4.3-7.74-3.17,5.44,5.65,3.17,8.31c-1.27,1.47-3.73-.07-3.73,1.54s4.29,4.65,9.29,5.92a6.1,6.1,0,0,1-3.8,1.83c-2.82.49-2.46,1.4-1,2.18s4.26,2.11,11.62,1.34c1.34-.14.84,2.74-1.9,3.23s-5.85,0-4.37,2S114.52,416.83,121.79,414.82Z" style="fill:#BA68C8"></path><path d="M121.79,415.19a.39.39,0,0,1-.33-.19,104.79,104.79,0,0,0-18.13-22.48.39.39,0,0,1,0-.53.38.38,0,0,1,.53,0,106,106,0,0,1,18.29,22.66.37.37,0,0,1-.14.51A.45.45,0,0,1,121.79,415.19Z" style="fill:#f0f0f0"></path><path d="M121.76,415.67c0,5.44,5.29,8.87,11.81,8.87s11.82-3.43,11.82-8.87-5.29-10.82-11.82-10.82S121.76,410.23,121.76,415.67Z" style="fill:#fafafa"></path><path d="M131,423.27c6.53,0,11.82-3.43,11.82-8.87a10.94,10.94,0,0,0-5.18-8.8c4.5,1.65,7.71,5.84,7.71,10.07,0,5.44-5.29,8.87-11.82,8.87a14.56,14.56,0,0,1-8-2.19A16,16,0,0,0,131,423.27Z" style="fill:#e1e1e1"></path><path d="M143,421.87c0,3.92,3.81,6.39,8.5,6.39s8.51-2.47,8.51-6.39-3.81-7.79-8.51-7.79S143,418,143,421.87Z" style="fill:#fafafa"></path><path d="M149.63,427.34c4.7,0,8.51-2.47,8.51-6.38a7.88,7.88,0,0,0-3.73-6.34c3.24,1.19,5.55,4.21,5.55,7.25,0,3.92-3.81,6.39-8.51,6.39a10.5,10.5,0,0,1-5.78-1.58A11.66,11.66,0,0,0,149.63,427.34Z" style="fill:#e1e1e1"></path><path d="M108.38,422.18c0,4.16,4.05,6.79,9,6.79s9-2.63,9-6.79-4-8.27-9-8.27S108.38,418,108.38,422.18Z" style="fill:#fafafa"></path><path d="M115.48,428c5,0,9-2.63,9-6.78a8.36,8.36,0,0,0-4-6.73c3.44,1.26,5.9,4.46,5.9,7.69,0,4.16-4,6.79-9,6.79a11.16,11.16,0,0,1-6.14-1.67A12.5,12.5,0,0,0,115.48,428Z" style="fill:#e1e1e1"></path><path d="M444.72,314.53s-6.25-9.37-1.69-15.39c1-1.35,1.31,4.08,3.23,5.23a.6.6,0,0,0,.89-.57c-.21-2.33-.58-9.33,2.33-11.7,1.65-1.35.38,3.59,2,4.9a.71.71,0,0,0,1.11-.43c.44-2.29,2-9.05,4.72-9.05,2,0-.7,4.44,3.38,3.17s6.55-4.29,7.74-3.17-5.44,5.65-3.16,8.31c1.26,1.48,3.73-.07,3.73,1.55s-4.3,4.64-9.29,5.91c0,0,1,1.34,3.8,1.83s2.46,1.41,1,2.18-4.26,2.11-11.61,1.34c-1.34-.14-.85,2.75,1.9,3.24s5.84,0,4.36,2S452,316.55,444.72,314.53Z" style="fill:#BA68C8"></path><path d="M444.72,314.9a.41.41,0,0,1-.19,0,.39.39,0,0,1-.14-.52,105.67,105.67,0,0,1,18.28-22.66.38.38,0,0,1,.5.56A104.63,104.63,0,0,0,445,314.72.36.36,0,0,1,444.72,314.9Z" style="fill:#f0f0f0"></path><path d="M435.35,306.7s9.33-6.32,7.39-13.62c-.44-1.63-2.77,3.29-5,3.62a.59.59,0,0,1-.6-.86c1.07-2.07,4.06-8.42,2.26-11.71-1-1.87-1.7,3.18-3.75,3.76a.7.7,0,0,1-.86-.82c.45-2.28,1.59-9.12-1-10.16-1.82-.74-1,4.37-4.32,1.66s-4.44-6.45-6-5.86,2.9,7.29-.21,8.89c-1.73.89-3.43-1.48-4,0s2.22,5.92,6.37,9a6.06,6.06,0,0,1-4.21.25c-2.8-.6-2.82.38-1.74,1.65s3.14,3.57,10.25,5.63c1.29.37-.26,2.86-3,2.28s-5.41-2.21-4.81.24S427.86,305.81,435.35,306.7Z" style="fill:#BA68C8"></path><path d="M435.35,306.7s9.33-6.32,7.39-13.62c-.44-1.63-2.77,3.29-5,3.62a.59.59,0,0,1-.6-.86c1.07-2.07,4.06-8.42,2.26-11.71-1-1.87-1.7,3.18-3.75,3.76a.7.7,0,0,1-.86-.82c.45-2.28,1.59-9.12-1-10.16-1.82-.74-1,4.37-4.32,1.66s-4.44-6.45-6-5.86,2.9,7.29-.21,8.89c-1.73.89-3.43-1.48-4,0s2.22,5.92,6.37,9a6.06,6.06,0,0,1-4.21.25c-2.8-.6-2.82.38-1.74,1.65s3.14,3.57,10.25,5.63c1.29.37-.26,2.86-3,2.28s-5.41-2.21-4.81.24S427.86,305.81,435.35,306.7Z" style="opacity:0.30000000000000004"></path><path d="M435.35,307.07a.38.38,0,0,1-.37-.33,105,105,0,0,0-8.29-27.66.37.37,0,0,1,.18-.5.38.38,0,0,1,.5.17,106,106,0,0,1,8.36,27.9.39.39,0,0,1-.33.42Z" style="fill:#f0f0f0"></path><path d="M444.75,315.38c0,5.44-5.29,8.87-11.82,8.87s-11.82-3.43-11.82-8.87,5.29-10.81,11.82-10.81S444.75,310,444.75,315.38Z" style="fill:#fafafa"></path><path d="M435.46,323c-6.52,0-11.81-3.44-11.81-8.87a11,11,0,0,1,5.17-8.81c-4.5,1.66-7.71,5.84-7.71,10.07,0,5.44,5.29,8.87,11.82,8.87a14.59,14.59,0,0,0,8-2.18A16.31,16.31,0,0,1,435.46,323Z" style="fill:#e1e1e1"></path><path d="M423.56,321.59c0,3.91-3.81,6.38-8.51,6.38s-8.51-2.47-8.51-6.38,3.81-7.79,8.51-7.79S423.56,317.67,423.56,321.59Z" style="fill:#fafafa"></path><path d="M416.88,327.06c-4.7,0-8.51-2.47-8.51-6.39a7.89,7.89,0,0,1,3.72-6.33c-3.23,1.19-5.55,4.2-5.55,7.25,0,3.91,3.81,6.38,8.51,6.38a10.47,10.47,0,0,0,5.78-1.57A11.61,11.61,0,0,1,416.88,327.06Z" style="fill:#e1e1e1"></path><path d="M458.12,321.9c0,4.16-4,6.78-9,6.78s-9-2.62-9-6.78,4.05-8.27,9-8.27S458.12,317.74,458.12,321.9Z" style="fill:#fafafa"></path><path d="M451,327.71c-5,0-9-2.62-9-6.78a8.38,8.38,0,0,1,3.95-6.73c-3.43,1.26-5.89,4.46-5.89,7.7,0,4.16,4.05,6.78,9,6.78a11.12,11.12,0,0,0,6.13-1.67A12.21,12.21,0,0,1,451,327.71Z" style="fill:#e1e1e1"></path><path d="M68.59,272.28s6.25-9.38,1.69-15.4c-1-1.34-1.32,4.09-3.24,5.23a.59.59,0,0,1-.88-.57c.21-2.32.57-9.33-2.33-11.69-1.66-1.35-.38,3.59-2.06,4.89a.69.69,0,0,1-1.1-.43c-.44-2.28-2-9-4.73-9-2,0,.71,4.44-3.38,3.17s-6.54-4.3-7.74-3.17,5.44,5.65,3.17,8.31c-1.27,1.47-3.73-.07-3.73,1.55s4.29,4.64,9.29,5.91a6,6,0,0,1-3.8,1.83c-2.82.49-2.47,1.41-1,2.18s4.26,2.11,11.62,1.34c1.33-.14.84,2.74-1.9,3.24s-5.85,0-4.37,2S61.32,274.29,68.59,272.28Z" style="fill:#BA68C8"></path><path d="M68.59,272.65a.39.39,0,0,1-.33-.19A104.79,104.79,0,0,0,50.13,250a.37.37,0,1,1,.5-.55,105.4,105.4,0,0,1,18.28,22.66.36.36,0,0,1-.13.51A.34.34,0,0,1,68.59,272.65Z" style="fill:#f0f0f0"></path><path d="M78,264.44s-9.33-6.31-7.38-13.61c.44-1.63,2.76,3.29,5,3.62a.6.6,0,0,0,.61-.86c-1.08-2.08-4.06-8.43-2.27-11.71,1-1.88,1.71,3.18,3.76,3.75a.7.7,0,0,0,.86-.81c-.46-2.28-1.59-9.12,1-10.16,1.83-.75,1,4.37,4.33,1.65s4.44-6.44,6-5.85-2.9,7.28.21,8.88c1.73.89,3.42-1.47,4,0s-2.21,5.92-6.36,9a6,6,0,0,0,4.21.26c2.79-.61,2.81.37,1.74,1.65s-3.15,3.56-10.25,5.63c-1.29.37.25,2.86,3,2.28s5.41-2.21,4.81.24S85.45,263.56,78,264.44Z" style="fill:#BA68C8"></path><path d="M78,264.44s-9.33-6.31-7.38-13.61c.44-1.63,2.76,3.29,5,3.62a.6.6,0,0,0,.61-.86c-1.08-2.08-4.06-8.43-2.27-11.71,1-1.88,1.71,3.18,3.76,3.75a.7.7,0,0,0,.86-.81c-.46-2.28-1.59-9.12,1-10.16,1.83-.75,1,4.37,4.33,1.65s4.44-6.44,6-5.85-2.9,7.28.21,8.88c1.73.89,3.42-1.47,4,0s-2.21,5.92-6.36,9a6,6,0,0,0,4.21.26c2.79-.61,2.81.37,1.74,1.65s-3.15,3.56-10.25,5.63c-1.29.37.25,2.86,3,2.28s5.41-2.21,4.81.24S85.45,263.56,78,264.44Z" style="opacity:0.30000000000000004"></path><path d="M78,264.82h0a.37.37,0,0,1-.32-.42,105.63,105.63,0,0,1,8.36-27.89.37.37,0,0,1,.67.33,104.94,104.94,0,0,0-8.29,27.66A.37.37,0,0,1,78,264.82Z" style="fill:#f0f0f0"></path><path d="M68.56,273.13c0,5.44,5.29,8.87,11.81,8.87s11.82-3.43,11.82-8.87-5.29-10.82-11.82-10.82S68.56,267.69,68.56,273.13Z" style="fill:#fafafa"></path><path d="M77.84,280.73c6.53,0,11.82-3.43,11.82-8.87a10.94,10.94,0,0,0-5.18-8.8c4.5,1.65,7.71,5.84,7.71,10.07,0,5.44-5.29,8.87-11.82,8.87a14.53,14.53,0,0,1-8-2.18A16.29,16.29,0,0,0,77.84,280.73Z" style="fill:#e1e1e1"></path><path d="M89.75,279.33c0,3.92,3.81,6.39,8.5,6.39s8.51-2.47,8.51-6.39-3.81-7.78-8.51-7.78S89.75,275.42,89.75,279.33Z" style="fill:#fafafa"></path><path d="M96.43,284.81c4.7,0,8.51-2.48,8.51-6.39a7.88,7.88,0,0,0-3.73-6.34c3.24,1.19,5.55,4.21,5.55,7.25,0,3.92-3.81,6.39-8.51,6.39a10.58,10.58,0,0,1-5.78-1.57A11.91,11.91,0,0,0,96.43,284.81Z" style="fill:#e1e1e1"></path><path d="M55.18,279.65c0,4.15,4,6.78,9,6.78s9-2.63,9-6.78-4-8.28-9-8.28S55.18,275.49,55.18,279.65Z" style="fill:#fafafa"></path><path d="M62.28,285.46c5,0,9-2.63,9-6.78a8.36,8.36,0,0,0-4-6.73c3.44,1.26,5.89,4.46,5.89,7.7,0,4.15-4,6.78-9,6.78a11.16,11.16,0,0,1-6.14-1.67A12.5,12.5,0,0,0,62.28,285.46Z" style="fill:#e1e1e1"></path></g><g id="frozen-figure"><path d="M196.42,233.3l-1.52,0a10.3,10.3,0,0,0-7.9,4,13.56,13.56,0,0,1-8.86,5.3c-8.41,1.26-26,2.92-26,2.92l-3.7,3.78a18.57,18.57,0,0,0-5,9.61h0l-19.2,14a9.65,9.65,0,0,0-2.71,3.08L111.08,295l3.7,21-15,19.74v16l32.62,28,50.21,9.95,13.21-2.77,121.6-72.54-.35-15.58-10.94-7.08-8.65-16.77L291.27,270l-3.69-12.22a9.66,9.66,0,0,0-5.53-6.1l-10.45-4.31-4.11-10.21a9.32,9.32,0,0,0-5.14-5.15l-22.69-9.2Z" style="fill:#BA68C8"></path><path d="M253.08,310.86l44.42-36h0L291.27,270l-3.69-12.22a9.66,9.66,0,0,0-5.53-6.1l-10.45-4.31-4.11-10.21a9.32,9.32,0,0,0-5.14-5.15l-22.69-9.2L196.42,233.3l-1.52,0a10.3,10.3,0,0,0-7.9,4,13.56,13.56,0,0,1-8.86,5.3c-8.41,1.26-26,2.92-26,2.92l-3.7,3.78a18.57,18.57,0,0,0-5,9.61h0l-19.2,14,81,44.74Z" style="fill:#fff;opacity:0.8"></path><path d="M267.49,237.17a9.32,9.32,0,0,0-5.14-5.15l-16.86-6.84-4.18.55-23.85,53s-6.6-2-9.05,2.06a34.46,34.46,0,0,0-3.5,7.93l-.38,2.95a128.37,128.37,0,0,1,9.36-9.82c3.57-3.12,10.85-2.55,10.85-2.55l46.86-31.89Z" style="fill:#BA68C8"></path><path d="M267.49,237.17a9.32,9.32,0,0,0-5.14-5.15l-16.86-6.84-4.18.55-23.85,53s-6.6-2-9.05,2.06a34.46,34.46,0,0,0-3.5,7.93l-.38,2.95a128.37,128.37,0,0,1,9.36-9.82c3.57-3.12,10.85-2.55,10.85-2.55l46.86-31.89Z" style="fill:#fff;opacity:0.5"></path><polygon points="317.09 298.72 306.15 291.64 297.5 274.87 253.08 310.86 205.29 317.76 198.64 343.46 182.63 365.42 195.84 386.84 317.44 314.31 317.09 298.72" style="fill:#fff;opacity:0.5"></polygon><path d="M195,102.31c-2.17,2.34-6.47,8.79-.62,18.65,0,0-.37,12.82,3.32,18.47,0,0-22.84,6.24-29.78,8.78s-20.14,7.68-27.77,9.19-17.09,1.36-11.47,7.7c0,0-13.63,1.45-13,5.71.33,2.32,8.65.88,8.65.88s-8.74,1.45-8.67,4.38,8.67,1.55,8.67,1.55-7.31,2.23-6.52,5,8.14,0,8.14,0-5,2-4,4.69,21.94-3.65,25.74-6.19,40.39-10.07,46.77-10.81c0,0,1.64,25.47,2.59,27.17s7.5,5.46,7.5,5.46l-12.39,22.79a15.18,15.18,0,0,0,5.25,4l-8.87,34s-4.68-1.3-7.72.23-8.08,4.9-8.08,4.9-1.24,16,32.19,19.77c0,0,1.37-6.92,3.5-7.93s9.05-2.05,9.05-2.05l23.85-53s25.84,8.32,29.57-17.71c0,0,7.4-.28,24.83-18.62,7-7.36,11.52-12.36,11.52-12.36s5.24,17.51,14.35,15.25c5.26-1.3,6.83-8.45,6.83-8.45a6.43,6.43,0,0,0,5.42-2.92s-2.09-14.91-10.3-28.15-10.09-14.72-10.09-14.72-5.83,3.61-6.79,8.23c0,0-4.49-1.41-11,4.61s-19.71,20-19.71,20l-1.79-3.21-20.26,3.4-4.4-1.28-3.08-5.41s25.68-5.92,32.58-10,32.18-32,33-34.88a3.34,3.34,0,0,0-1.49-4.06s4.53-6.91.71-9c0,0,2-3.81-.45-5.17s-3.09-.12-3.09-.12,6.59-9.08,4.25-10.84-9.64,6.42-15.19,13.29-17.14,17.25-17.14,17.25l-6.46,5.37s1.94-9.67-7.19-10.11-14.44,5.07-20.78-4.08-4.41-10.28-9.82-11.77c0,0,1-2.57-.36-4.08s-3.84,1-3.84,1-5.2-6.69-12.06-6-10.48,1.34-12,1.81-7.47,1.56-10.43,7A12.38,12.38,0,0,1,195,102.31Z" style="fill:#BA68C8"></path><path d="M333.83,180.91a6.65,6.65,0,0,1-3.41,2.61,5.64,5.64,0,0,1-2,.33s-1.58,7.15-6.83,8.45c-9.11,2.25-14.35-15.26-14.35-15.26s-4.53,5-11.52,12.36C278.28,207.75,270.88,208,270.88,208c-3.74,26-29.57,17.7-29.57,17.7l-23.85,53s-6.92,1.05-9.05,2.06-3.5,7.93-3.5,7.93c-33.42-3.77-32.19-19.77-32.19-19.77s5-3.36,8.08-4.89,7.73-.25,7.73-.25l8.86-34a15.21,15.21,0,0,1-5.25-4l12.39-22.79s-6.56-3.77-7.51-5.46-2.58-27.16-2.58-27.16c-6.38.72-43,8.26-46.77,10.81S123,190,121.93,187.31c-1-2.49,3.21-4.34,3.92-4.64-.91.33-7.31,2.53-8,0-.79-2.78,6.52-5,6.52-5s-8.59,1.38-8.67-1.55c-.07-2.65,7.11-4.1,8.46-4.34-1.3.2-8.14,1.17-8.44-.92-.6-4.26,13-5.71,13-5.71-5.62-6.34,3.84-6.19,11.47-7.7S161,150.76,168,148.21s29.78-8.78,29.78-8.78C194,133.78,194.41,121,194.41,121c-5.85-9.86-1.54-16.31.62-18.65a11.74,11.74,0,0,0,1.69-2.39c2.95-5.42,9-6.56,10.43-7s5.15-1.15,12-1.81,12.06,6,12.06,6,2.47-2.46,3.84-1,.36,4.08.36,4.08c5.41,1.49,3.49,2.63,9.82,11.77s11.64,3.64,20.78,4.09,7.19,10.1,7.19,10.1l6.46-5.37s11.59-10.37,17.14-17.25S309.66,88.58,312,90.34s-3.56,9.91-4.18,10.77c.2-.25,1-.94,3,.2,2.41,1.35.46,5.17.46,5.17,3.81,2.07-.71,9-.71,9a3.36,3.36,0,0,1,1.48,4.07c-.86,2.86-26.14,30.81-33,34.87s-32.58,10-32.58,10l3.08,5.41,4.4,1.28,20.27-3.4,1.78,3.21s13.24-14,19.71-20,11-4.61,11-4.61c.95-4.62,6.79-8.23,6.79-8.23s1.87,1.49,10.08,14.72S333.83,180.91,333.83,180.91Z" style="fill:#fff;opacity:0.8"></path><path d="M193.6,110.84s0,5.42,6.87,6.88c0,0-5-3.4-5.26-6.88S193.3,109.24,193.6,110.84Z" style="fill:#fff"></path><path d="M201.11,110.84s0,5.42,6.87,6.88c0,0-5-3.4-5.26-6.88S200.81,109.24,201.11,110.84Z" style="fill:#fff"></path><path d="M208.61,112.31s0,5.43,6.86,6.88c0,0-5-3.39-5.26-6.88S208.31,110.72,208.61,112.31Z" style="fill:#fff"></path><path d="M217.1,113.61s0,5.42,6.87,6.88c0,0-5-3.4-5.26-6.88S216.8,112,217.1,113.61Z" style="fill:#fff"></path><path d="M223.24,115.25s3,7.24,8.46,6.76c0,0,5.13-3.82,6.34,2s-3.28,9.5-7.4,10.29c0,0,9.25.35,8.65-10.16-.23-4-3.87-5.87-7.5-3.64C231.79,120.49,227.15,121.41,223.24,115.25Z" style="fill:#fff"></path><path d="M235.42,122.81a5.59,5.59,0,0,0-3.09,6.36S228.7,124.26,235.42,122.81Z" style="fill:#fff"></path><path d="M228.47,141.05s34-5,37.55-8.29,7.19-6.5,7.19-6.5-7.88,5.41-10.33,6.37c-1.74.67-15.79,3.11-23.85,4.48a29.88,29.88,0,0,0-10.56,3.94Z" style="fill:#BA68C8"></path><path d="M228.47,141.05s34-5,37.55-8.29,7.19-6.5,7.19-6.5-7.88,5.41-10.33,6.37c-1.74.67-15.79,3.11-23.85,4.48a29.88,29.88,0,0,0-10.56,3.94Z" style="fill:#fff;opacity:0.5"></path><path d="M197.73,139.43s5,11.57,16.86,9.57c3.29-.55,6.84-3.49,9-5.84a13.39,13.39,0,0,1-12.13,7.32c-6.06,0-12.42-4.95-15.28-10.63Z" style="fill:#BA68C8"></path><path d="M197.73,139.43s5,11.57,16.86,9.57c3.29-.55,6.84-3.49,9-5.84a13.39,13.39,0,0,1-12.13,7.32c-6.06,0-12.42-4.95-15.28-10.63Z" style="fill:#fff;opacity:0.5"></path><path d="M202.09,124.17a1.36,1.36,0,1,1-1.36-1.36A1.36,1.36,0,0,1,202.09,124.17Z" style="fill:#fff"></path><path d="M217.18,126a1.36,1.36,0,1,1-1.36-1.36A1.36,1.36,0,0,1,217.18,126Z" style="fill:#fff"></path><path d="M206.57,126.76s-5.3,6.48-4,6.89a34,34,0,0,0,5.13.64l-2.78-.93a1.12,1.12,0,0,1-.66-1.53Z" style="fill:#fff"></path><path d="M207.06,138.26l11.36-4s.44,5-4,6.76a6.54,6.54,0,0,0,3-5.29Z" style="fill:#fff"></path><path d="M233.39,107.4s7.4,1.5,9.85,11.79,10.64,9.07,12.28,8.8c0,0-10.55,5.07-14.05-10.27A15.87,15.87,0,0,0,233.39,107.4Z" style="fill:#fff"></path><path d="M204.07,96.41a3.85,3.85,0,0,1,2.18-.64A4.83,4.83,0,0,1,209,97.38a3,3,0,0,1,1.17,1.87,2.39,2.39,0,0,1-.24,1.11,3.79,3.79,0,0,1-.65,1.14,3.74,3.74,0,0,1-2.8,1.11,13,13,0,0,1-3.38-.58c-1.56-.42-3.62-.37-2.57-2.33A9.62,9.62,0,0,1,204.07,96.41Z" style="fill:#fff"></path><path d="M217.19,97a.92.92,0,0,0,.54-.46,1,1,0,0,0-.17-.74,2.78,2.78,0,0,0-1.31-1.45c-1.29-.49-4.89.27-4.27,2.06C212.86,99,215.61,97.47,217.19,97Z" style="fill:#fff"></path><path d="M204.91,152s6.48,9.08,15.34,1.75a20.16,20.16,0,0,0,5.86-8.43S223.71,158,214.59,158C206.57,158,204.91,152,204.91,152Z" style="fill:#fff"></path><path d="M194.44,170.31a44.79,44.79,0,0,1,3.34-20.66,34.1,34.1,0,0,0-5.64,18.16s-18.2,6.35-23,7.45h0C179.82,172.88,191.15,170.69,194.44,170.31Z" style="fill:#BA68C8"></path><path d="M194.44,170.31a44.79,44.79,0,0,1,3.34-20.66,34.1,34.1,0,0,0-5.64,18.16s-18.2,6.35-23,7.45h0C179.82,172.88,191.15,170.69,194.44,170.31Z" style="fill:#fff;opacity:0.5"></path><path d="M128.71,165.1a14.62,14.62,0,0,0,4.11.81c.7.07,1.39.05,2.16.19A4.85,4.85,0,0,1,137,167a11.05,11.05,0,0,0,7.47,3.5,12,12,0,0,1-4.26-.61,8.6,8.6,0,0,1-1.94-1c-.59-.43-1.11-.93-1.66-1.33a4.25,4.25,0,0,0-1.8-.78c-.64-.08-1.38-.1-2.1-.2A8.05,8.05,0,0,1,128.71,165.1Z" style="fill:#BA68C8"></path><path d="M128.71,165.1a14.62,14.62,0,0,0,4.11.81c.7.07,1.39.05,2.16.19A4.85,4.85,0,0,1,137,167a11.05,11.05,0,0,0,7.47,3.5,12,12,0,0,1-4.26-.61,8.6,8.6,0,0,1-1.94-1c-.59-.43-1.11-.93-1.66-1.33a4.25,4.25,0,0,0-1.8-.78c-.64-.08-1.38-.1-2.1-.2A8.05,8.05,0,0,1,128.71,165.1Z" style="fill:#fff;opacity:0.5"></path><path d="M149.06,157.26s5.18,4.84,2.18,10.56C151.24,167.82,151.87,161.72,149.06,157.26Z" style="fill:#fff"></path><path d="M178.22,149.38a1,1,0,0,1,.62-1.37A102.87,102.87,0,0,1,189.78,145c3.64-.6,3.44,4,2.36,4.7-.93.61-10.17.78-12.77.82a1,1,0,0,1-.94-.61Z" style="fill:#fff"></path><path d="M172.52,149.78a1.75,1.75,0,0,0-.88.44,1.52,1.52,0,0,0-.23,1.07,6.88,6.88,0,0,0,.2,1.19.37.37,0,0,0,.12.23.42.42,0,0,0,.27,0,14.79,14.79,0,0,0,2.82-.86c.19-.07.4-.17.45-.37s-.1-.36-.22-.52c-.24-.33-.38-1.38-.64-1.56S173,149.66,172.52,149.78Z" style="fill:#fff"></path><path d="M204.53,202.94s8.53,4.33,23.2-.63c15.58-5.26,19.89-15.06,19.89-15.06s-4.46,13.21-22.88,17.52S204.53,202.94,204.53,202.94Z" style="fill:#BA68C8"></path><path d="M204.53,202.94s8.53,4.33,23.2-.63c15.58-5.26,19.89-15.06,19.89-15.06s-4.46,13.21-22.88,17.52S204.53,202.94,204.53,202.94Z" style="fill:#fff;opacity:0.5"></path><path d="M199.45,189.84c0,.23.06.42.09.55.66,3,4.88,4.2,7.35,5.08a1.19,1.19,0,0,0,1.59-1.33,14.38,14.38,0,0,0-.89-2.79,2.52,2.52,0,0,0-1.14-1.41c-.73-.33-1.59,0-2.38-.1a2.68,2.68,0,0,1-1.9-1.73,8.16,8.16,0,0,1-.41-2.65c0-.82-.31-2.41-1.38-2.11C199,183.74,199.21,188.09,199.45,189.84Z" style="fill:#fff"></path><path d="M212.14,193.29c.22.63.69,1.34,1.36,1.27s1-.8,1.53-1.11a2.88,2.88,0,0,1,1.52-.19,11.25,11.25,0,0,0,2.52-.22.55.55,0,0,0,.33-.14.58.58,0,0,0,.08-.41,4.69,4.69,0,0,0-1-2.92,2.1,2.1,0,0,0-2.81-.39,7.26,7.26,0,0,0-.89,1.21,1.19,1.19,0,0,1-1.3.52c-.24-.11-.41-.33-.64-.45C211.07,189.51,212,192.75,212.14,193.29Z" style="fill:#fff"></path><path d="M270.88,208s-.92-8.27.72-11.51,11.83-8.75,4.38-25.63c0,0,8.52,11.68,1.16,20.76s-4.51,9.34-4.66,16Z" style="fill:#BA68C8"></path><path d="M270.88,208s-.92-8.27.72-11.51,11.83-8.75,4.38-25.63c0,0,8.52,11.68,1.16,20.76s-4.51,9.34-4.66,16Z" style="fill:#fff;opacity:0.5"></path><path d="M197.39,229.76a17.29,17.29,0,0,0,11.09,1.93,14.84,14.84,0,0,0,5.16-2.21c1.6-1,3.15-2.19,4.86-3.19a19.16,19.16,0,0,1,5.49-2.23,22,22,0,0,1,5.88-.52,44.8,44.8,0,0,1,11.44,2.19l-2.84-.62c-.94-.22-1.91-.32-2.86-.49a37.06,37.06,0,0,0-5.75-.47,21.42,21.42,0,0,0-5.65.74,20.43,20.43,0,0,0-5.16,2.31c-1.63,1-3.16,2.18-4.87,3.17a14,14,0,0,1-11.45,1.74A18,18,0,0,1,197.39,229.76Z" style="fill:#BA68C8"></path><path d="M197.39,229.76a17.29,17.29,0,0,0,11.09,1.93,14.84,14.84,0,0,0,5.16-2.21c1.6-1,3.15-2.19,4.86-3.19a19.16,19.16,0,0,1,5.49-2.23,22,22,0,0,1,5.88-.52,44.8,44.8,0,0,1,11.44,2.19l-2.84-.62c-.94-.22-1.91-.32-2.86-.49a37.06,37.06,0,0,0-5.75-.47,21.42,21.42,0,0,0-5.65.74,20.43,20.43,0,0,0-5.16,2.31c-1.63,1-3.16,2.18-4.87,3.17a14,14,0,0,1-11.45,1.74A18,18,0,0,1,197.39,229.76Z" style="fill:#fff;opacity:0.5"></path><path d="M201.26,213.63a11.08,11.08,0,0,1,3.37-3.54c.49.12.54.79.48,1.29a45,45,0,0,1-2.89,11c-.49,1.21-1.33,2.59-2.63,2.53C193.93,224.63,199.84,215.83,201.26,213.63Z" style="fill:#fff"></path><path d="M244.44,219c.79,1.16,1.71,2.4,3.08,2.73a5.08,5.08,0,0,0,3.3-.63,2.08,2.08,0,0,0,1.23-1.09c.24-.77-.41-1.51-1-2-3.72-3.34-7.72-6.36-11.71-9.36a3.2,3.2,0,0,0-2-.83c-.28,1.56,1.86,3.48,2.68,4.68Z" style="fill:#fff"></path><path d="M259.61,176.46a36.35,36.35,0,0,0,9.71-.56c.78-.15,1.68-.44,1.9-1.2a1.52,1.52,0,0,0-1-1.68,4,4,0,0,0-2.13,0c-2.63.44-7.16,1-9.16,2.94C259,176.3,259.23,176.43,259.61,176.46Z" style="fill:#fff"></path><path d="M246.45,164.38A69.94,69.94,0,0,1,238,148.19c-2.84-8.47,9.58,15.91,9.58,15.91Z" style="fill:#BA68C8"></path><path d="M246.45,164.38A69.94,69.94,0,0,1,238,148.19c-2.84-8.47,9.58,15.91,9.58,15.91Z" style="fill:#fff;opacity:0.5"></path><path d="M301.06,104.76s9.26,1.87,8.86,4.77-5.45,3.46-13.11.69a27.83,27.83,0,0,0,5.8,2.51c2.36.53,10.23.25,7.73-4.81C309.52,106.26,301.06,104.76,301.06,104.76Z" style="fill:#BA68C8"></path><path d="M301.06,104.76s9.26,1.87,8.86,4.77-5.45,3.46-13.11.69a27.83,27.83,0,0,0,5.8,2.51c2.36.53,10.23.25,7.73-4.81C309.52,106.26,301.06,104.76,301.06,104.76Z" style="fill:#fff;opacity:0.5"></path><polygon points="307.23 177.04 316.4 166.3 307.99 179.23 307.23 177.04" style="fill:#BA68C8"></polygon><polygon points="307.23 177.04 316.4 166.3 307.99 179.23 307.23 177.04" style="fill:#fff;opacity:0.5"></polygon><path d="M291.27,157s11.07,1.85,16.7,15.9C308,172.86,306.42,159.34,291.27,157Z" style="fill:#fff"></path><path d="M328.41,183.85c1.3-8-7.44-17.54-10.68-26.89s-11.07-10.68-11.07-10.68c11.17,1.71,10.33,10.57,16.5,20C331.61,179.23,328.41,183.85,328.41,183.85Z" style="fill:#BA68C8"></path><path d="M328.41,183.85c1.3-8-7.44-17.54-10.68-26.89s-11.07-10.68-11.07-10.68c11.17,1.71,10.33,10.57,16.5,20C331.61,179.23,328.41,183.85,328.41,183.85Z" style="fill:#fff;opacity:0.5"></path><path d="M312.7,139.08l-.88,1s18.43,24,19.61,41.73l1.54-1.45S331.16,161.45,312.7,139.08Z" style="fill:#fff"></path><path d="M300.84,150.45a1.24,1.24,0,0,0-.5.74c0,.42.34.75.71.94,1,.54,2.25.64,3.17,1.34.75.56,1.39,1.54,2.32,1.42a2.19,2.19,0,0,0,1.15-.67c.67-.59,1.38-1.32,1.29-2.2a2.41,2.41,0,0,0-1-1.55C305.42,148.43,303.19,148.41,300.84,150.45Z" style="fill:#fff"></path><path d="M310.26,154.73a8,8,0,0,0-1.93,1.92c.47.63.94,1.25,1.4,1.88a.84.84,0,0,0,.5.39.82.82,0,0,0,.6-.27l.95-.77a.68.68,0,0,0,.26-.32.6.6,0,0,0-.08-.45,5.17,5.17,0,0,0-1.85-2.21" style="fill:#fff"></path><path d="M195.84,386.84l-13.21-21.42,16-21.95,6.65-25.71-81-44.74a9.65,9.65,0,0,0-2.71,3.08L111.08,295l3.7,21-15,19.74v16l32.62,28,50.21,9.95,13.21-2.77Z" style="fill:#fff;opacity:0.7000000000000001"></path><path d="M172.72,268.92s7.76,17.91,32.19,19.77l-.38,2.95s-25.19-4.2-33.47-17.38l-7.46-1.53Z" style="fill:#BA68C8"></path><path d="M172.72,268.92s7.76,17.91,32.19,19.77l-.38,2.95s-25.19-4.2-33.47-17.38l-7.46-1.53Z" style="fill:#fff;opacity:0.5"></path><path d="M190.42,264.54s-7.79-5.18-17.7,4.38h0a1.76,1.76,0,0,0,2.68.5C177.57,267.6,182.63,263.43,190.42,264.54Z" style="fill:#fff"></path><polygon points="188.53 263.78 197.39 229.76 198.17 230.24 190.42 264.54 188.53 263.78" style="fill:#fff"></polygon><path d="M257.34,238l-14.72,14.49L263,242a1.42,1.42,0,0,0,.18-2.41l-2.53-1.84A2.58,2.58,0,0,0,257.34,238Z" style="fill:#BA68C8"></path><path d="M257.34,238l-14.72,14.49L263,242a1.42,1.42,0,0,0,.18-2.41l-2.53-1.84A2.58,2.58,0,0,0,257.34,238Z" style="fill:#fff;opacity:0.8"></path><path d="M153.5,247.15l-3.37,3.47a17.16,17.16,0,0,0-4.53,8.83h0l21,5.09Z" style="fill:#fff"></path><polygon points="124.28 279.27 119.96 288.69 138.51 309.48 158.15 299.63 124.28 279.27" style="fill:#fff"></polygon><polygon points="198.64 343.46 152.55 332.93 193.35 350.73 198.64 343.46" style="fill:#fff"></polygon><polygon points="182.63 365.42 132.42 379.66 182.63 389.61 195.84 386.84 182.63 365.42" style="fill:#BA68C8"></polygon><polygon points="182.63 365.42 132.42 379.66 182.63 389.61 195.84 386.84 182.63 365.42" style="fill:#fff;opacity:0.8"></polygon><polygon points="101.88 337.74 143.49 362.8 105.53 332.93 101.88 337.74" style="fill:#fff"></polygon><polygon points="253.08 310.86 208.5 296.88 259.04 306.04 253.08 310.86" style="fill:#fff"></polygon><polygon points="194.42 296.88 202.88 304.44 208.62 300.66 201.52 296.88 194.42 296.88" style="fill:#fff"></polygon><polygon points="198.64 343.46 261.2 327.27 233.77 341.83 198.64 343.46" style="fill:#BA68C8"></polygon><polygon points="198.64 343.46 261.2 327.27 233.77 341.83 198.64 343.46" style="fill:#fff;opacity:0.4"></polygon><polygon points="152.55 310.86 161.06 304.44 166.6 307.65 166.6 314.18 152.55 310.86" style="fill:#fff"></polygon><polygon points="244.89 345.83 233.9 356.83 247.26 368.74 254.24 365.34 262.48 350.1 244.89 345.83" style="fill:#BA68C8"></polygon><polygon points="244.89 345.83 233.9 356.83 247.26 368.74 254.24 365.34 262.48 350.1 244.89 345.83" style="fill:#fff;opacity:0.8"></polygon><polygon points="262.48 350.1 269.7 365.34 263.72 372.82 253.42 372.82 247.26 368.74 254.24 365.34 262.48 350.1" style="fill:#BA68C8"></polygon><polygon points="262.48 350.1 269.7 365.34 263.72 372.82 253.42 372.82 247.26 368.74 254.24 365.34 262.48 350.1" style="fill:#fff;opacity:0.5"></polygon><polygon points="211.03 371.19 205.53 376.69 212.21 382.65 215.7 380.95 219.82 373.33 211.03 371.19" style="fill:#BA68C8"></polygon><polygon points="211.03 371.19 205.53 376.69 212.21 382.65 215.7 380.95 219.82 373.33 211.03 371.19" style="fill:#fff;opacity:0.8"></polygon><polygon points="219.82 373.33 223.43 380.95 220.44 384.69 215.29 384.69 212.21 382.65 215.7 380.95 219.82 373.33" style="fill:#BA68C8"></polygon><polygon points="219.82 373.33 223.43 380.95 220.44 384.69 215.29 384.69 212.21 382.65 215.7 380.95 219.82 373.33" style="fill:#fff;opacity:0.5"></polygon><polygon points="247.61 380.17 253.94 386.5 246.25 393.36 242.24 391.4 237.49 382.63 247.61 380.17" style="fill:#BA68C8"></polygon><polygon points="247.61 380.17 253.94 386.5 246.25 393.36 242.24 391.4 237.49 382.63 247.61 380.17" style="fill:#fff;opacity:0.8"></polygon><polygon points="237.49 382.63 233.33 391.4 236.78 395.7 242.7 395.7 246.25 393.36 242.24 391.4 237.49 382.63" style="fill:#BA68C8"></polygon><polygon points="237.49 382.63 233.33 391.4 236.78 395.7 242.7 395.7 246.25 393.36 242.24 391.4 237.49 382.63" style="fill:#fff;opacity:0.5"></polygon><polygon points="179.25 381.85 185.58 388.18 177.89 395.03 173.87 393.08 169.13 384.3 179.25 381.85" style="fill:#BA68C8"></polygon><polygon points="179.25 381.85 185.58 388.18 177.89 395.03 173.87 393.08 169.13 384.3 179.25 381.85" style="fill:#fff;opacity:0.5"></polygon><polygon points="169.13 384.3 164.97 393.08 168.41 397.38 174.34 397.38 177.89 395.03 173.87 393.08 169.13 384.3" style="fill:#BA68C8"></polygon><polygon points="169.13 384.3 164.97 393.08 168.41 397.38 174.34 397.38 177.89 395.03 173.87 393.08 169.13 384.3" style="fill:#fff;opacity:0.7000000000000001"></polygon></g><g id="Character"><path d="M387.39,273.81s7.78,9.72-2,37.33C377.52,333.43,371,343.22,371,343.22s6.59,1,14.57,7.39l-8,21-21.39-10.88a19.54,19.54,0,0,1-10-22.6l18.24-66.49Z" style="fill:#455a64"></path><path d="M362.57,278.25l-10.51,38.31,6.66-1.41c20.06-4.34,24.62-20.29,24.07-27.83s-3.73-11.19-3.73-11.19Z" style="fill:#37474f"></path><path d="M294.68,338.09l22.08-1.61s2.14-.3,1.93,3.67-1.95,29.91-1.83,34.11,3.19,12.81-3.62,16.5-14,.12-16.51-.19-20.6,1-21.44-10.48c-.42-5.84,6.32-7.6,12.46-6s9.58,0,9.45-1.5c-.28-3.06-3.39-29.37-3.73-31.41A3.21,3.21,0,0,1,294.68,338.09Z" style="fill:#BA68C8"></path><path d="M380,274.85s2.8,3.33,3.3,10.18-3.46,21.35-21.07,25.24-46.37,9.31-46.37,9.31,2.35,6.6.57,19.52c0,0-8.9,8.14-21.53,1.57l-2.28-24.11a22.1,22.1,0,0,1,15.55-23.22l52.28-15.93Z" style="fill:#455a64"></path><polygon points="338.34 228.18 342.1 230.32 337.03 237.79 331.87 234.37 338.34 228.18" style="fill:#ffa8a7"></polygon><path d="M308.72,223.93l0,0,1.7-2.36-5.4-4.19-1.8,2.47h0a1.61,1.61,0,0,0-.07,1.78,5.32,5.32,0,0,0,3.92,2.84,1.7,1.7,0,0,0,1.61-.52h0Z" style="fill:#37474f"></path><path d="M318.86,212.81l-4.13,1.52a2.52,2.52,0,0,1-2.21-.47L308,210.1c-.59-.5-.57-1.09.06-1.32l4.13-1.52a2.51,2.51,0,0,1,2.21.48l4.52,3.76C319.51,212,319.48,212.58,318.86,212.81Z" style="fill:#263238"></path><path d="M318.86,212.81l-4.13,1.52a2.52,2.52,0,0,1-2.21-.47L308,210.1c-.42-.35-.52-.74-.33-1h0l-5.4,8.17h0c-.21.28-.11.69.32,1L307.1,222a2.52,2.52,0,0,0,2.22.48l4.12-1.52a.8.8,0,0,0,.4-.3h0l5.42-8.2h0A.76.76,0,0,1,318.86,212.81Z" style="fill:#455a64"></path><path d="M317.06,211.84l0,0,1.47-2.52-5.78-3.64-1.56,2.63h0a1.62,1.62,0,0,0,.11,1.77,5.33,5.33,0,0,0,4.17,2.46,1.69,1.69,0,0,0,1.55-.67h0Z" style="fill:#37474f"></path><path d="M314.28,205a5.36,5.36,0,0,1,4.18,2.46c.76,1.34.12,2.42-1.42,2.41a5.39,5.39,0,0,1-4.18-2.46C312.1,206.11,312.74,205,314.28,205Z" style="fill:#263238"></path><path d="M308.55,222.59a1.91,1.91,0,0,0,.77-.07l4.12-1.52a.8.8,0,0,0,.4-.3h0l5.42-8.2h0a.76.76,0,0,1-.4.31l-4.13,1.52a2,2,0,0,1-1.07,0l0,0Z" style="fill:#37474f"></path><path d="M338.51,237.14l-25.12-16.85a1.35,1.35,0,0,1-.37-1.88l1.21-1.81a1.53,1.53,0,0,1,2.11-.42l25,16.77a2.51,2.51,0,0,1,.69,3.5h0A2.51,2.51,0,0,1,338.51,237.14Z" style="fill:#945959"></path><path d="M321.48,230.15a1.42,1.42,0,0,1-.22-1.35c.5-1.39,1.93-4.79,3.74-4.33,2.28.57,9.34,5.75,9.79,7.2a4.5,4.5,0,0,1-1.54,4.56C331.65,237.7,323.55,232.76,321.48,230.15Z" style="fill:#ffa8a7"></path><path d="M328.64,219c-1.28-.3-2.94.11-4.63,2.12s-3.23,4.55-.23,4.62c1.23,0,3.73-1.93,3.73-1.93l9.42,6.2,1.41-1.81S330.85,219.49,328.64,219Z" style="fill:#ffa8a7"></path><polygon points="272.62 253.06 251.75 267.23 250.73 270.07 246.92 272.69 245.46 273.69 241.84 268.42 243.33 267.4 247.12 264.8 250.14 264.87 271.02 250.7 272.62 253.06" style="fill:#fafafa"></polygon><polygon points="246.92 272.69 245.46 273.69 241.84 268.42 243.33 267.4 246.92 272.69" style="fill:#e0e0e0"></polygon><path d="M267.79,249.68l23.83-16.89,4.68,8.89-24.61,14.55a1.87,1.87,0,0,1-1.33.23l-1.69-.34-1.86-2.69.19-2.37A1.88,1.88,0,0,1,267.79,249.68Z" style="fill:#455a64"></path><path d="M294.29,233.08a7.8,7.8,0,0,1,3.21,6.33c-.12,2.26-1.75,3.09-3.65,1.85a7.81,7.81,0,0,1-3.21-6.32C290.76,232.68,292.39,231.84,294.29,233.08Z" style="fill:#37474f"></path><path d="M294,252.83s-2.31-.63-4.94-4.88-4.39-10-5.26-9.64-2.9,1.55-1.18,7.71c0,0-2.81-2-2.53-5l2.08-1.54s-1.8-1.79-3.07-1.19a4.68,4.68,0,0,0-2.59,3.53s-3.34-.84-4,3.7c0,0-3.16,1.24-2.08,4.4s9.1,9.89,18.6,14.14Z" style="fill:#ffa8a7"></path><path d="M387.45,217.33s11.36,6.34,1.7,26.71Z" style="fill:#BA68C8"></path><path d="M387.45,217.33s11.36,6.34,1.7,26.71Z" style="opacity:0.2"></path><rect x="355.12" y="201.47" width="15.38" height="17.69" transform="matrix(1, -0.07, 0.07, 1, -14.34, 26.95)" style="fill:#ffa8a7"></rect><polygon points="342.72 189.76 343.31 197.88 338.45 196.77 342.72 189.76" style="fill:#f28f8f"></polygon><path d="M359.46,172.67c-4.87-.18-15.32,2.16-17,14.86s-.88,22.62,5.67,23.81,22-3,24.63-19.43S364.21,172.85,359.46,172.67Z" style="fill:#ffa8a7"></path><path d="M346.39,176.69s-1.32,6.69,1.8,11.63a10,10,0,0,1,1.22,8.47,12.33,12.33,0,0,1-2.1,4,7.42,7.42,0,0,0,4.92-5.43,32.7,32.7,0,0,1,3.26,7.33c.7,3,3.07,8.21,9.35,9.35,3.05.55,6.85-.08,8.74-1.37,0,0,5.56-7,7.75-10.29s6.63-14.78.56-23.06S361.49,162.78,346.39,176.69Z" style="fill:#37474f"></path><path d="M352.23,195.37s.25-5.37,3.95-5.69c4.06-.36,4.84,3.52,4.87,4.92.07,3.67-1.89,7.39-8.45,5.82Z" style="fill:#ffa8a7"></path><path d="M386.79,194.4a14.16,14.16,0,0,1-3.32,5.13,3.13,3.13,0,0,1-1.94.85l-.44,0a3.87,3.87,0,0,1-.48,0,35.89,35.89,0,0,1-7.88-.34l-.45-.07a33.74,33.74,0,0,1-7.61-2.27l-.38-.16a55.06,55.06,0,0,1-7.23-3.87l-.14-.09c-.13-.07-.25-.15-.37-.23a31.4,31.4,0,0,1-6.06-5.13l-.3-.32a30.66,30.66,0,0,1-4-5.58L346,182a23.29,23.29,0,0,1-1.24-2.73c-.9-2.16.69-3.95,3.39-6.17,1.36-1.12,2-.15,2-.15a30,30,0,0,0,10.24,13.17l.92.64.21.15a37.54,37.54,0,0,0,5.89,3.28l.38.16a29.12,29.12,0,0,0,14,2.34H382a17.49,17.49,0,0,0,3.71-.71l.19-2S388.41,190.17,386.79,194.4Z" style="fill:#BA68C8"></path><path d="M351.92,177.06a.74.74,0,0,1-.26,0c-1.27-.15-3.94,3.2-5.43,5.31L346,182c1.31-1.85,3.9-5.22,5.51-5.33a.5.5,0,0,1,.21,0h.09Z" style="fill:#BA68C8"></path><path d="M355.71,182.05l-.31.14c-1.23.45-3.74,4.19-4.91,6.09l-.3-.32c.95-1.53,3.6-5.63,5.08-6.17l.24-.11Z" style="fill:#BA68C8"></path><path d="M361.6,187.08l-.22.08c-1.17.32-3.49,4.52-4.46,6.48-.13-.07-.25-.15-.37-.23.73-1.46,3.24-6.26,4.72-6.66h0l.12,0,.09.19Z" style="fill:#BA68C8"></path><path d="M381.09,200.41a3.87,3.87,0,0,1-.48,0c3-6.13,1.25-7.41,1.22-7.42l-.11-.08,0-.27,0-.06.19,0h.08l0,0,.12,0v.06C382.6,193.16,383.76,194.9,381.09,200.41Z" style="fill:#BA68C8"></path><path d="M372.73,200.1l-.45-.07c3.24-6.06,2.24-7.33,2.24-7.34l.29-.29C375,192.53,376,193.89,372.73,200.1Z" style="fill:#BA68C8"></path><path d="M367.78,190.33l-3.11,7.43-.38-.16,3.11-7.43Z" style="fill:#BA68C8"></path><g style="opacity:0.2"><path d="M351.92,177.06a.74.74,0,0,1-.26,0c-1.27-.15-3.94,3.2-5.43,5.31L346,182c1.31-1.85,3.9-5.22,5.51-5.33a.5.5,0,0,1,.21,0h.09Z"></path></g><g style="opacity:0.2"><path d="M355.71,182.05l-.31.14c-1.23.45-3.74,4.19-4.91,6.09l-.3-.32c.95-1.53,3.6-5.63,5.08-6.17l.24-.11Z"></path></g><g style="opacity:0.2"><path d="M361.6,187.08l-.22.08c-1.17.32-3.49,4.52-4.46,6.48-.13-.07-.25-.15-.37-.23.73-1.46,3.24-6.26,4.72-6.66h0l.12,0,.09.19Z"></path></g><g style="opacity:0.2"><path d="M381.09,200.41a3.87,3.87,0,0,1-.48,0c3-6.13,1.25-7.41,1.22-7.42l-.11-.08,0-.27,0-.06.19,0h.08l0,0,.12,0v.06C382.6,193.16,383.76,194.9,381.09,200.41Z"></path></g><g style="opacity:0.2"><path d="M372.73,200.1l-.45-.07c3.24-6.06,2.24-7.33,2.24-7.34l.29-.29C375,192.53,376,193.89,372.73,200.1Z"></path></g><g style="opacity:0.2"><path d="M367.78,190.33l-3.11,7.43-.38-.16,3.11-7.43Z"></path></g><path d="M385.7,192a14.48,14.48,0,0,1-3.52.8l-.35,0h0a24.77,24.77,0,0,1-6.91-.28h0l-.41-.07a32.6,32.6,0,0,1-6.71-2.12h0l-.38-.17c-.9-.39-1.82-.85-2.76-1.36s-2-1.17-2.94-1.78l-.36-.24a33.59,33.59,0,0,1-5.58-4.76l-.15-.17h0A28.46,28.46,0,0,1,352,177c-.06-.1-.11-.2-.17-.29h0a17.67,17.67,0,0,1-1.68-3.79s9.39-11.7,23.77-6.78a20.77,20.77,0,0,1,2.4,1h0a1.27,1.27,0,0,1,.23.12h0a.69.69,0,0,1,.19.1.34.34,0,0,1,.12.06h0l.2.11.12.06.06,0q.33.18.66.39C388.28,174.37,388.12,188.16,385.7,192Z" style="fill:#BA68C8"></path><path d="M385.7,192a14.48,14.48,0,0,1-3.52.8l-.35,0h0a24.77,24.77,0,0,1-6.91-.28h0l-.41-.07a32.6,32.6,0,0,1-6.71-2.12h0l-.38-.17c-.9-.39-1.82-.85-2.76-1.36s-2-1.17-2.94-1.78l-.36-.24a33.59,33.59,0,0,1-5.58-4.76l-.15-.17h0A28.46,28.46,0,0,1,352,177c-.06-.1-.11-.2-.17-.29h0a17.67,17.67,0,0,1-1.68-3.79s9.39-11.7,23.77-6.78a20.77,20.77,0,0,1,2.4,1h0a1.27,1.27,0,0,1,.23.12h0a.69.69,0,0,1,.19.1.34.34,0,0,1,.12.06h0l.2.11.12.06.06,0q.33.18.66.39C388.28,174.37,388.12,188.16,385.7,192Z" style="fill:#fff;opacity:0.2"></path><path d="M386.71,169a4,4,0,0,0-3.13-3.57,3.83,3.83,0,0,0,.26-1.69,4,4,0,0,0-7.33-1.76,4,4,0,0,0-7,2.8s-.24,3.91,5.91,7.05c6.61,3.38,9.64.67,9.64.67h0A3.94,3.94,0,0,0,386.71,169Z" style="fill:#BA68C8"></path><path d="M377.13,167.33h0v0l-.05.17v.05l0,.11v0h0l-.21-.05a.2.2,0,0,0-.1,0l-.12,0c-.62-.15-1.23-.26-1.82-.35h0c-13.48-2.06-21.63,8.34-22.55,9.59a.62.62,0,0,1-.19.14c-.06-.1-.11-.2-.17-.29h0v-.07s0,0,0,0c1-1.32,9.83-12.62,24.46-9.48h0a5,5,0,0,1,.53.12l.09,0a.53.53,0,0,1,.12,0h.07Z" style="fill:#BA68C8"></path><path d="M377.11,167.32h0v0l0,.19v.2h0l-.22,0h-.11l-.17,0c-9-.69-18.51,11.52-20.37,14a1.56,1.56,0,0,1-.38.33l-.15-.17h0l-.09-.16a1,1,0,0,0,.29-.24c1.76-2.36,10.33-13.32,18.95-14.15a8.34,8.34,0,0,1,1.8,0s0,0,0,0a.93.93,0,0,1,.24,0s0,0,0,0a.41.41,0,0,1,.11,0l.17,0h0Z" style="fill:#BA68C8"></path><path d="M377.26,167.64a.07.07,0,0,1,0,.05l0,0-.09.06,0,0-.22.15-.41.29C368,174.39,363,184.63,362,186.67a.79.79,0,0,1-.33.35l-.36-.24s0-.06.08-.08a.38.38,0,0,0,.22-.21c1-2.08,6.14-12.62,14.87-18.81,0,0,0,0,.06,0l.16-.11s0,0,0,0h0l.05,0,.07,0h0l.08-.07a.17.17,0,0,1,.14,0s0,0,0,0h0a.23.23,0,0,1,.13.08A.22.22,0,0,1,377.26,167.64Z" style="fill:#BA68C8"></path><path d="M382.2,192.7l0,.05-.35,0h0a.23.23,0,0,1,0-.18c1.93-9,.5-15.31-1-19A18.78,18.78,0,0,0,377.3,168l-.19-.2h0l0,0,0,0-.1-.09a.14.14,0,0,1-.05-.09.08.08,0,0,1,0-.09h0a.16.16,0,0,1,0-.13h0l0,0h0a.22.22,0,0,1,.22,0,7.66,7.66,0,0,1,.71.74,19.76,19.76,0,0,1,3.23,5.38C382.71,177.2,384.16,183.62,382.2,192.7Z" style="fill:#BA68C8"></path><path d="M374.91,192.51h0l-.41-.07c5.09-12.07,3.11-21.74,2.44-24.27,0-.08-.05-.15-.07-.22l-.07-.24v0a.81.81,0,0,1-.05-.14v0a.23.23,0,0,1,0-.16.13.13,0,0,1,.05-.07s0,0,0,0,0,0,0,0h0a.19.19,0,0,1,.13,0,.18.18,0,0,1,.1.06h0s0,0,0,0l0,0h0v0s0,.08.06.21,0,.05,0,.09a2.55,2.55,0,0,1,.08.28C378,170.4,380.06,180.24,374.91,192.51Z" style="fill:#BA68C8"></path><path d="M367.78,190.33l-.38-.17c3.35-7.92,9.31-22.55,9.37-22.69l.39.16C377.1,167.77,371.14,182.41,367.78,190.33Z" style="fill:#BA68C8"></path><path d="M379.83,208.05a4.23,4.23,0,1,1-4.52-3.91A4.22,4.22,0,0,1,379.83,208.05Z" style="fill:#BA68C8"></path><path d="M373.34,217.3l-.21-2.87a2.56,2.56,0,0,0-2.5-2.57l.08,1.17a45.21,45.21,0,0,1-15.33,1.12l-.09-1.17a2.52,2.52,0,0,0-2.21,2.91l.28,3.74-9.68,2.24a99.82,99.82,0,0,0-4,34.47c1.34,18.32,3,25.18,7.06,25.84,5.22.85,30.76,1.31,40.46-5.83,4.31-3.18,2-30.26,1.57-40.83s-1.33-18.19-1.33-18.19S385.14,216.44,373.34,217.3Z" style="fill:#BA68C8"></path><path d="M374.66,211.3a2.72,2.72,0,0,1-.92-2.85c.55-1.79,2.43-3.92,8.34-3.39,4.2.38,9.37,7,4.61,18-1.56,3.6-1.2,9.28,3.24,9.55,0,0-6.95,3.63-12-3.53C373.25,222.55,377.87,214.11,374.66,211.3Z" style="fill:#37474f"></path><path d="M293.88,251.7l24.2,7.82,18.48-32.16a11.72,11.72,0,0,1,7.12-5.49h0s11.26,6.37,2,22.58c-4.81,8.42-10,17.63-13.83,24.54a14.12,14.12,0,0,1-17.58,6.22L288,264.71S287.21,256.72,293.88,251.7Z" style="fill:#BA68C8"></path><path d="M293.88,251.7l24.2,7.82,18.48-32.16a11.72,11.72,0,0,1,7.12-5.49h0s11.26,6.37,2,22.58c-4.81,8.42-10,17.63-13.83,24.54a14.12,14.12,0,0,1-17.58,6.22L288,264.71S287.21,256.72,293.88,251.7Z" style="opacity:0.2"></path><path d="M417.13,387.07c.19,4.88-4,7.69-7,9.91s-8.42,1.48-11.93.56-10.84-2.18-10.64-9.09a8.64,8.64,0,0,1,.07-.9,8.47,8.47,0,0,1,6.11-7.42l-19.16-8.41a2.71,2.71,0,0,1-1.59-2,22.39,22.39,0,0,1,1.74-12,12.69,12.69,0,0,1,9.74-8.18,2,2,0,0,1,1.38.29c5,3.18,12.31,7.76,16.33,11.12,4.18,3.49,5.23,3.3,8.48,3.58s5,2.2,5.29,6.39S416.94,382.17,417.13,387.07Z" style="fill:#BA68C8"></path><path d="M395.75,388.42c.28,3.86-3.49-1.56-8.13-.87a8.47,8.47,0,0,1,6.11-7.42A22.57,22.57,0,0,1,395.75,388.42Z" style="opacity:0.2"></path><path d="M412.8,365a13.06,13.06,0,0,0-3.65,1.11,9.37,9.37,0,0,0-5.32,9.14l.71,9.77.79,10.8a4.14,4.14,0,0,1-.52,2.63,9.15,9.15,0,0,0,5.31-1.45c3-2.22,7.2-5,7-9.91s-.88-12-1.19-16.22C415.71,367.7,414.68,365.83,412.8,365Z" style="opacity:0.2"></path></g><g id="Snow"><path d="M125.14,138.23a.85.85,0,0,1-.84-.84v-22.8a.85.85,0,0,1,1.69,0v22.8A.85.85,0,0,1,125.14,138.23Z" style="fill:#f0f0f0"></path><path d="M136.54,126.83H113.75a.84.84,0,1,1,0-1.68h22.79a.84.84,0,1,1,0,1.68Z" style="fill:#f0f0f0"></path><path d="M131.26,133a.81.81,0,0,1-.59-.25l-12.24-12.23a.84.84,0,0,1,1.19-1.19l12.24,12.23a.85.85,0,0,1-.6,1.44Z" style="fill:#f0f0f0"></path><path d="M119,133a.82.82,0,0,1-.6-.25.84.84,0,0,1,0-1.19l12.24-12.23a.84.84,0,0,1,1.19,1.19L119.62,132.7A.81.81,0,0,1,119,133Z" style="fill:#f0f0f0"></path><path d="M125.11,119.21l-3.56-3.56a.86.86,0,0,1,0-1.19.87.87,0,0,1,1.2,0l2.36,2.37,2.45-2.45a.84.84,0,0,1,1.19,1.19Z" style="fill:#f0f0f0"></path><path d="M122.15,137.85a.87.87,0,0,1-.6-.25.86.86,0,0,1,0-1.19l3.64-3.64,3.56,3.55a.85.85,0,1,1-1.19,1.2l-2.37-2.37-2.44,2.45A.87.87,0,0,1,122.15,137.85Z" style="fill:#f0f0f0"></path><path d="M114.21,129.83a.84.84,0,0,1-.59-1.43L116,126l-2.45-2.45a.84.84,0,1,1,1.2-1.19l3.64,3.64-3.56,3.56A.86.86,0,0,1,114.21,129.83Z" style="fill:#f0f0f0"></path><path d="M136.16,129.83a.86.86,0,0,1-.6-.24L131.92,126l3.56-3.56a.84.84,0,0,1,1.19,1.19L134.3,126l2.45,2.45a.84.84,0,0,1,0,1.19A.82.82,0,0,1,136.16,129.83Z" style="fill:#f0f0f0"></path><path d="M176.53,77.14a.84.84,0,0,1-.84-.84V53.5a.84.84,0,1,1,1.68,0V76.3A.85.85,0,0,1,176.53,77.14Z" style="fill:#f0f0f0"></path><path d="M187.93,65.74h-22.8a.84.84,0,1,1,0-1.68h22.8a.84.84,0,1,1,0,1.68Z" style="fill:#f0f0f0"></path><path d="M182.65,71.86a.83.83,0,0,1-.6-.25L169.81,59.38a.85.85,0,0,1,1.2-1.2l12.23,12.24a.84.84,0,0,1,0,1.19A.81.81,0,0,1,182.65,71.86Z" style="fill:#f0f0f0"></path><path d="M170.41,71.86a.83.83,0,0,1-.6-.25.86.86,0,0,1,0-1.19l12.24-12.24a.85.85,0,0,1,1.19,1.2L171,71.61A.83.83,0,0,1,170.41,71.86Z" style="fill:#f0f0f0"></path><path d="M176.49,58.12l-3.55-3.56a.84.84,0,0,1,1.19-1.19l2.36,2.37,2.45-2.45a.84.84,0,0,1,1.19,1.19Z" style="fill:#f0f0f0"></path><path d="M173.53,76.75a.84.84,0,0,1-.59-1.43l3.64-3.64,3.55,3.55a.84.84,0,0,1-1.19,1.19l-2.36-2.36-2.45,2.45A.86.86,0,0,1,173.53,76.75Z" style="fill:#f0f0f0"></path><path d="M165.6,68.74a.86.86,0,0,1-.6-.24.84.84,0,0,1,0-1.19l2.37-2.37-2.45-2.45a.84.84,0,1,1,1.19-1.19l3.64,3.64-3.56,3.56A.84.84,0,0,1,165.6,68.74Z" style="fill:#f0f0f0"></path><path d="M187.54,68.74a.84.84,0,0,1-.59-.24l-3.64-3.64,3.55-3.56a.84.84,0,1,1,1.2,1.19l-2.37,2.37,2.45,2.45a.84.84,0,0,1,0,1.19A.86.86,0,0,1,187.54,68.74Z" style="fill:#f0f0f0"></path><path d="M268,88.15a.85.85,0,0,1-.84-.84V64.52a.84.84,0,1,1,1.68,0V87.31A.84.84,0,0,1,268,88.15Z" style="fill:#f0f0f0"></path><path d="M279.37,76.76h-22.8a.85.85,0,0,1,0-1.69h22.8a.85.85,0,0,1,0,1.69Z" style="fill:#f0f0f0"></path><path d="M274.09,82.87a.86.86,0,0,1-.6-.24L261.26,70.39a.84.84,0,0,1,1.19-1.19l12.23,12.24a.84.84,0,0,1-.59,1.43Z" style="fill:#f0f0f0"></path><path d="M261.85,82.87a.84.84,0,0,1-.59-1.43L273.49,69.2a.84.84,0,1,1,1.19,1.19L262.45,82.63A.86.86,0,0,1,261.85,82.87Z" style="fill:#f0f0f0"></path><path d="M267.94,69.13l-3.56-3.55a.84.84,0,0,1,1.19-1.19l2.37,2.36,2.45-2.45a.84.84,0,1,1,1.19,1.19Z" style="fill:#f0f0f0"></path><path d="M265,87.77a.82.82,0,0,1-.6-.25.84.84,0,0,1,0-1.19L268,82.69l3.56,3.56a.84.84,0,1,1-1.19,1.19L268,85.07l-2.45,2.45A.81.81,0,0,1,265,87.77Z" style="fill:#f0f0f0"></path><path d="M257,79.76a.83.83,0,0,1-.6-.25.86.86,0,0,1,0-1.19L258.81,76l-2.45-2.45a.84.84,0,0,1,1.19-1.19L261.19,76l-3.55,3.55A.83.83,0,0,1,257,79.76Z" style="fill:#f0f0f0"></path><path d="M279,79.76a.82.82,0,0,1-.6-.25l-3.64-3.64,3.56-3.55a.84.84,0,0,1,1.19,1.19l-2.37,2.36,2.45,2.45a.84.84,0,0,1,0,1.19A.81.81,0,0,1,279,79.76Z" style="fill:#f0f0f0"></path><path d="M115.66,234.09a.85.85,0,0,1-.84-.84v-22.8a.84.84,0,1,1,1.68,0v22.8A.84.84,0,0,1,115.66,234.09Z" style="fill:#f0f0f0"></path><path d="M127.06,222.69h-22.8a.84.84,0,0,1,0-1.68h22.8a.84.84,0,1,1,0,1.68Z" style="fill:#f0f0f0"></path><path d="M121.78,228.81a.83.83,0,0,1-.6-.25L109,216.32a.84.84,0,0,1,0-1.19.86.86,0,0,1,1.19,0l12.24,12.24a.86.86,0,0,1,0,1.19A.83.83,0,0,1,121.78,228.81Z" style="fill:#f0f0f0"></path><path d="M109.54,228.81a.81.81,0,0,1-.59-.25.84.84,0,0,1,0-1.19l12.23-12.24a.87.87,0,0,1,1.2,0,.86.86,0,0,1,0,1.19l-12.24,12.24A.83.83,0,0,1,109.54,228.81Z" style="fill:#f0f0f0"></path><path d="M115.63,215.07l-3.56-3.56a.84.84,0,1,1,1.19-1.19l2.37,2.37,2.45-2.45a.84.84,0,0,1,1.19,0,.86.86,0,0,1,0,1.19Z" style="fill:#f0f0f0"></path><path d="M112.67,233.7a.84.84,0,0,1-.6-1.43l3.64-3.64,3.56,3.55a.86.86,0,0,1,0,1.19.84.84,0,0,1-1.19,0L115.71,231l-2.45,2.45A.84.84,0,0,1,112.67,233.7Z" style="fill:#f0f0f0"></path><path d="M104.73,225.69a.84.84,0,0,1-.6-1.43l2.37-2.37-2.45-2.45a.84.84,0,0,1,1.19-1.19l3.64,3.64-3.55,3.56A.86.86,0,0,1,104.73,225.69Z" style="fill:#f0f0f0"></path><path d="M126.68,225.69a.86.86,0,0,1-.6-.24l-3.64-3.64,3.56-3.56a.84.84,0,0,1,1.19,0,.86.86,0,0,1,0,1.19l-2.37,2.37,2.45,2.45a.84.84,0,0,1-.59,1.43Z" style="fill:#f0f0f0"></path><path d="M353.52,159a.85.85,0,0,1-.84-.84V135.36a.85.85,0,1,1,1.69,0v22.79A.85.85,0,0,1,353.52,159Z" style="fill:#f0f0f0"></path><path d="M364.92,147.59H342.13a.84.84,0,0,1,0-1.68h22.79a.84.84,0,1,1,0,1.68Z" style="fill:#f0f0f0"></path><path d="M359.64,153.71a.84.84,0,0,1-.59-.24l-12.24-12.24A.84.84,0,1,1,348,140l12.24,12.24a.84.84,0,0,1,0,1.19A.86.86,0,0,1,359.64,153.71Z" style="fill:#f0f0f0"></path><path d="M347.41,153.71a.86.86,0,0,1-.6-.24.84.84,0,0,1,0-1.19L359.05,140a.84.84,0,0,1,1.19,1.19L348,153.47A.84.84,0,0,1,347.41,153.71Z" style="fill:#f0f0f0"></path><path d="M353.49,140l-3.56-3.55a.84.84,0,1,1,1.2-1.19l2.36,2.36,2.45-2.45a.84.84,0,0,1,1.19,1.19Z" style="fill:#f0f0f0"></path><path d="M350.53,158.61a.83.83,0,0,1-.6-.25.86.86,0,0,1,0-1.19l3.64-3.64,3.56,3.56a.84.84,0,0,1-1.19,1.19l-2.37-2.37-2.44,2.45A.83.83,0,0,1,350.53,158.61Z" style="fill:#f0f0f0"></path><path d="M342.59,150.6a.85.85,0,0,1-.59-.25.84.84,0,0,1,0-1.19l2.36-2.37-2.45-2.45a.86.86,0,0,1,0-1.19.87.87,0,0,1,1.2,0l3.64,3.64-3.56,3.56A.86.86,0,0,1,342.59,150.6Z" style="fill:#f0f0f0"></path><path d="M364.54,150.6a.87.87,0,0,1-.6-.25l-3.64-3.64,3.56-3.56a.86.86,0,0,1,1.19,0,.84.84,0,0,1,0,1.19l-2.37,2.37,2.46,2.45a.86.86,0,0,1,0,1.19A.87.87,0,0,1,364.54,150.6Z" style="fill:#f0f0f0"></path><path d="M344.54,112.92a2.83,2.83,0,1,1-2.83-2.83A2.83,2.83,0,0,1,344.54,112.92Z" style="fill:#f0f0f0"></path><path d="M162.41,199a2.84,2.84,0,1,1-2.83-2.83A2.83,2.83,0,0,1,162.41,199Z" style="fill:#f0f0f0"></path><path d="M306.65,66.42a2.83,2.83,0,1,1-2.83-2.83A2.83,2.83,0,0,1,306.65,66.42Z" style="fill:#f0f0f0"></path><path d="M218.65,64.52a2.83,2.83,0,1,1-2.83-2.83A2.83,2.83,0,0,1,218.65,64.52Z" style="fill:#f0f0f0"></path><path d="M165.72,116.5a2.83,2.83,0,1,1-2.83-2.83A2.83,2.83,0,0,1,165.72,116.5Z" style="fill:#f0f0f0"></path><path d="M139.44,83.88a2.83,2.83,0,1,1-2.83-2.83A2.83,2.83,0,0,1,139.44,83.88Z" style="fill:#f0f0f0"></path><path d="M99.23,162.54a2.83,2.83,0,1,1-2.83-2.83A2.83,2.83,0,0,1,99.23,162.54Z" style="fill:#f0f0f0"></path></g></svg>