<svg xmlns="http://www.w3.org/2000/svg" viewBox="0 0 500 500"><g id="background-complete"><rect x="416.78" y="398.49" width="33.12" height="0.25" style="fill:#ebebeb"></rect><rect x="322.53" y="401.21" width="8.69" height="0.25" style="fill:#ebebeb"></rect><rect x="396.59" y="389.21" width="19.19" height="0.25" style="fill:#ebebeb"></rect><rect x="52.46" y="390.89" width="43.19" height="0.25" style="fill:#ebebeb"></rect><rect x="104.56" y="390.89" width="6.33" height="0.25" style="fill:#ebebeb"></rect><rect x="131.47" y="395.11" width="93.68" height="0.25" style="fill:#ebebeb"></rect><path d="M237,337.8H43.92a5.71,5.71,0,0,1-5.71-5.71V60.66A5.71,5.71,0,0,1,43.92,55H237a5.71,5.71,0,0,1,5.71,5.71V332.09A5.71,5.71,0,0,1,237,337.8ZM43.92,55.2a5.47,5.47,0,0,0-5.46,5.46V332.09a5.47,5.47,0,0,0,5.46,5.46H237a5.47,5.47,0,0,0,5.46-5.46V60.66A5.47,5.47,0,0,0,237,55.2Z" style="fill:#ebebeb"></path><path d="M453.31,337.8H260.21a5.72,5.72,0,0,1-5.71-5.71V60.66A5.72,5.72,0,0,1,260.21,55h193.1A5.71,5.71,0,0,1,459,60.66V332.09A5.71,5.71,0,0,1,453.31,337.8ZM260.21,55.2a5.47,5.47,0,0,0-5.46,5.46V332.09a5.47,5.47,0,0,0,5.46,5.46h193.1a5.47,5.47,0,0,0,5.46-5.46V60.66a5.47,5.47,0,0,0-5.46-5.46Z" style="fill:#ebebeb"></path><rect y="382.4" width="500" height="0.25" style="fill:#ebebeb"></rect><rect x="270.04" y="88.23" width="44.98" height="58.44" style="fill:#f5f5f5"></rect><rect x="273.5" y="92.73" width="38.06" height="49.45" style="fill:#ebebeb"></rect><rect x="275.88" y="95.82" width="33.3" height="43.26" style="fill:#fafafa"></rect><rect x="329.41" y="111.21" width="30.93" height="40.19" transform="translate(476.18 -213.58) rotate(90)" style="fill:#e6e6e6"></rect><rect x="331.79" y="114.3" width="26.17" height="34.01" transform="translate(476.18 -213.58) rotate(90)" style="fill:#f0f0f0"></rect><rect x="333.43" y="116.43" width="22.9" height="29.75" transform="translate(476.18 -213.58) rotate(90)" style="fill:#ebebeb"></rect><path d="M131.6,114.73c-1,5.23-1.64,15-1.64,26.23s.66,21,1.64,26.23a4.27,4.27,0,0,0-1.45,1c-1.7,1.7-1.09,5.08,0,6.16s4.46,1.71,6.16,0c.37-.36.41-1,.84-1.22,3.65-1.8,10.61,1.41,18.12,1.41s14.47-3.21,18.12-1.41c1.46.73,2.19,2.5,3.93,2.5s2.46-1.77,3.92-2.5c3.65-1.8,10.61,1.41,18.12,1.41s14.47-3.21,18.12-1.41c.43.22.47.86.84,1.22,1.7,1.71,5.07,1.09,6.16,0s1.7-4.46,0-6.16c-.43-.43-1.18-.46-1.45-1-2.56-4.66,1.64-15,1.64-26.23s-4.2-21.57-1.64-26.23c.27-.5,1-.54,1.45-1,1.7-1.71,1.09-5.08,0-6.17s-4.46-1.7-6.16,0c-.37.37-.41,1-.84,1.22-3.65,1.81-10.61-1.4-18.12-1.4s-14.47,3.2-18.12,1.4c-1.46-.72-2.19-2.49-3.92-2.49s-2.47,1.77-3.93,2.49c-3.65,1.8-10.61-1.4-18.12-1.4s-14.47,3.21-18.12,1.4c-.43-.21-.47-.85-.84-1.22-1.7-1.7-5.07-1.09-6.16,0s-1.7,4.46,0,6.17A4.58,4.58,0,0,0,131.6,114.73Z" style="fill:#e0e0e0"></path><path d="M133.59,112.74c-1,5.23-1.64,15-1.64,26.23s.66,21,1.64,26.24a4.27,4.27,0,0,0-1.45,1c-1.7,1.7-1.09,5.07,0,6.16s4.46,1.7,6.16,0c.36-.37.4-1,.84-1.22,3.65-1.81,10.61,1.4,18.12,1.4s14.47-3.2,18.12-1.4c1.46.72,2.18,2.49,3.92,2.49s2.47-1.77,3.93-2.49c3.65-1.8,10.61,1.4,18.11,1.4s14.48-3.21,18.12-1.4c.44.21.48.85.85,1.22,1.7,1.7,5.07,1.09,6.16,0s1.7-4.46,0-6.16c-.43-.43-1.18-.47-1.45-1-2.56-4.67,1.63-15,1.63-26.24s-4.19-21.56-1.63-26.23c.27-.5,1-.53,1.45-1,1.7-1.7,1.09-5.07,0-6.16s-4.46-1.7-6.16,0c-.37.36-.41,1-.85,1.22-3.64,1.8-10.6-1.41-18.12-1.41s-14.46,3.21-18.11,1.41c-1.46-.72-2.19-2.5-3.93-2.5s-2.46,1.78-3.92,2.5c-3.65,1.8-10.61-1.41-18.12-1.41s-14.47,3.21-18.12,1.41c-.44-.22-.48-.86-.84-1.22-1.7-1.7-5.07-1.09-6.16,0s-1.7,4.46,0,6.16A4.27,4.27,0,0,0,133.59,112.74Z" style="fill:#fafafa"></path><rect x="153.05" y="99.85" width="52.5" height="78.25" transform="translate(318.28 -40.33) rotate(90)" style="fill:#ebebeb"></rect><path d="M156.74,270.2a4.88,4.88,0,0,0-.44-9.73H131.24a4.88,4.88,0,0,0-.45,9.73l-.17,10a23.84,23.84,0,0,0-10.71,19.91c0,8.47,12.1,41.61,11.07,65.77-.19,4.58-4.18,9.55-7.2,12.68a1.85,1.85,0,0,0,1.34,3.14h37.3a1.85,1.85,0,0,0,1.33-3.14c-3-3.13-7-8.1-7.2-12.68-1-24.16,11.07-57.3,11.07-65.77a23.83,23.83,0,0,0-10.7-19.91Z" style="fill:#f0f0f0"></path><path d="M132.25,378.54c3-3.13,7-8.1,7.2-12.68,1-24.16-11.07-57.3-11.07-65.77a23.84,23.84,0,0,1,10.71-19.91l.17-10a4.88,4.88,0,0,1,.45-9.73h-8.47a4.88,4.88,0,0,0-.45,9.73l-.17,10a23.84,23.84,0,0,0-10.71,19.91c0,8.47,12.1,41.61,11.07,65.77-.19,4.58-4.18,9.55-7.2,12.68a1.85,1.85,0,0,0,1.34,3.14h8.47A1.85,1.85,0,0,1,132.25,378.54Z" style="fill:#fafafa"></path><path d="M162.42,296l5.18,3.3q0-1.26-.21-2.49L162.5,293l-10.38,6.82-6.36,13-3.39-9.52-11.73-6.52-4.93-12.18c-.28.31-.54.64-.8,1l4.71,13.27,10.17,6.52,5.72,16.07v17.87l2.19,2.7-8.27,12.55-5.15-2.06-3.44,4.65c.06.9.1,1.79.14,2.68l4.38-5.1,5.28,2.12,9.06-12.37,7.3,9q.12-1.26.27-2.52l-9.41-12.8.78-17.3-1.43-4,6.56-15.65Z" style="fill:#e0e0e0"></path><path d="M128.38,261.41l8.62,5.9,6.26-1,5.56,6.52,8,.05,0-1.81-6.31-.28-6.08-7-6.56,1.07-7.68-4.19A4.83,4.83,0,0,0,128.38,261.41Z" style="fill:#e0e0e0"></path><path d="M86.91,366.28c0,6.76,1.06,11.14,2.84,13.94a7.4,7.4,0,0,0,6.26,3.3h9.79a7.38,7.38,0,0,0,6.26-3.3c1.79-2.8,2.85-7.18,2.85-13.94,0-9.8-4.28-17.65-5.67-23.92-.51-2.26,1.17-9.18,1.17-9.18h-19s1.67,6.92,1.17,9.18C91.18,348.63,86.91,356.48,86.91,366.28Z" style="fill:#e6e6e6"></path><path d="M54.55,326.6c0-8.51,13.35-5,16.71-18.19,1.28-5-9.58-16.33-9.58-16.33H95.53S84.67,303.41,86,308.41c3.36,13.21,16.71,9.68,16.71,18.19,0,9.38-18.83,28.9-19.74,50.88-.08,2,3.54,6,3.54,6H70.75s3.62-4.07,3.54-6C73.38,355.5,54.55,336,54.55,326.6Z" style="fill:#f0f0f0"></path><path d="M64.78,348.72c-2-4.13,2.1-18.2,2.1-18.2H52.21s4.07,14.07,2.1,18.2c-1.38,2.92-4.54,4.79-4.54,8.25v20.77c0,5.38,4.4,5.78,9.78,5.78s9.78-.4,9.78-5.78V357C69.33,353.51,66.17,351.64,64.78,348.72Z" style="fill:#e6e6e6"></path><polygon points="406.17 382.46 404.5 382.46 404.9 270.31 409.24 270.31 406.17 382.46" style="fill:#e0e0e0"></polygon><polygon points="424.54 286.81 391.61 286.81 390.86 293.2 426.43 293.2 424.54 286.81" style="fill:#ebebeb"></polygon><polygon points="410.86 239.94 452.41 382.34 449.83 382.34 404.02 240.34 410.86 239.94" style="fill:#e6e6e6"></polygon><polygon points="397.09 239.94 380.45 382.34 383.03 382.34 404 240.34 397.09 239.94" style="fill:#e6e6e6"></polygon><polygon points="371.18 273.3 445.09 273.3 438.63 199.39 364.71 199.39 371.18 273.3" style="fill:#e0e0e0"></polygon><polygon points="374.39 267.78 448.3 267.78 441.84 193.87 367.93 193.87 374.39 267.78" style="fill:#ebebeb"></polygon><polygon points="381.02 260.51 440.4 260.51 435.21 201.13 375.83 201.13 381.02 260.51" style="fill:#fafafa"></polygon><polygon points="443.97 273.3 448.3 267.78 374.39 267.78 367.93 193.87 363.59 199.39 370.05 273.3 443.97 273.3" style="fill:#e0e0e0"></polygon></g><g id="background-simple"><path d="M97.12,232.61,270,87a59.36,59.36,0,0,1,86,10.19l61.28,83.17A59.38,59.38,0,0,1,394,269.62L181.38,366.1A79.68,79.68,0,0,1,72.55,317.77h0A79.68,79.68,0,0,1,97.12,232.61Z" style="fill:#407BFF"></path><path d="M97.12,232.61,270,87a59.36,59.36,0,0,1,86,10.19l61.28,83.17A59.38,59.38,0,0,1,394,269.62L181.38,366.1A79.68,79.68,0,0,1,72.55,317.77h0A79.68,79.68,0,0,1,97.12,232.61Z" style="fill:#fff;opacity:0.9"></path></g><g id="Shadow"><ellipse id="path" cx="245.18" cy="412.39" rx="193.89" ry="11.32" style="fill:#f5f5f5"></ellipse></g><g id="Device"><path d="M206.94,378.24v2a1.89,1.89,0,0,0,1.89,1.88h72a1.72,1.72,0,0,0,1.73-1.73v-1.93a1.73,1.73,0,0,0-1.73-1.74h-17.9a3.27,3.27,0,0,1-3.23-3.83L266,336.62H225.07l-17.5,38.74A7,7,0,0,0,206.94,378.24Z" style="fill:#263238"></path><path d="M282.54,378.46v1.94a1.72,1.72,0,0,1-1.73,1.73h-72a1.89,1.89,0,0,1-1.89-1.88v-2a7,7,0,0,1,.18-1.58,7.47,7.47,0,0,1,.44-1.31l17.51-38.73H266l-6.28,36.27a2.81,2.81,0,0,0-.05.64,3.28,3.28,0,0,0,2.6,3.13,3,3,0,0,0,.68.07h17.9A1.73,1.73,0,0,1,282.54,378.46Z" style="fill:#fff;opacity:0.2"></path><path d="M205.25,375.36l17.51-38.74h2.31l-17.5,38.74a7,7,0,0,0-.63,2.88v2a1.89,1.89,0,0,0,1.89,1.88h-2.32a1.88,1.88,0,0,1-1.88-1.88v-2A7,7,0,0,1,205.25,375.36Z" style="fill:#263238"></path><polygon points="225.07 336.62 265.96 336.62 264.35 345.88 220.89 345.88 225.07 336.62" style="opacity:0.2"></polygon><path d="M162.44,340.69H336.88a5.76,5.76,0,0,0,5.82-6.38l-11-126a7.1,7.1,0,0,0-6.94-6.38H150.29a5.75,5.75,0,0,0-5.81,6.38l11,126.05A7.11,7.11,0,0,0,162.44,340.69Z" style="fill:#407BFF"></path><path d="M341.5,320.68l1.2,13.63a5.76,5.76,0,0,1-5.82,6.38H162.44a7.11,7.11,0,0,1-6.94-6.38l-1.19-13.63Z" style="fill:#407BFF"></path><path d="M341.5,320.68l1.2,13.63a5.76,5.76,0,0,1-5.82,6.38H162.44a7.11,7.11,0,0,1-6.94-6.38l-1.19-13.63Z" style="fill:#fff;opacity:0.6000000000000001"></path><path d="M160.47,316.83h174.2a3.12,3.12,0,0,0,3.16-3.46l-9.12-104.18a3.85,3.85,0,0,0-3.76-3.46H150.75a3.12,3.12,0,0,0-3.16,3.46l9.12,104.18A3.85,3.85,0,0,0,160.47,316.83Z" style="fill:#407BFF"></path><path d="M160.47,316.83h174.2a3.12,3.12,0,0,0,3.16-3.46l-9.12-104.18a3.85,3.85,0,0,0-3.76-3.46H150.75a3.12,3.12,0,0,0-3.16,3.46l9.12,104.18A3.85,3.85,0,0,0,160.47,316.83Z" style="fill:#fff;opacity:0.8"></path><path d="M146.44,201.88h3.85a5.75,5.75,0,0,0-5.81,6.38l11,126.05a7.11,7.11,0,0,0,6.94,6.38h-3.86a7.09,7.09,0,0,1-6.93-6.38l-11-126A5.75,5.75,0,0,1,146.44,201.88Z" style="fill:#407BFF"></path><path d="M146.44,201.88h3.85a5.75,5.75,0,0,0-5.81,6.38l11,126.05a7.11,7.11,0,0,0,6.94,6.38h-3.86a7.09,7.09,0,0,1-6.93-6.38l-11-126A5.75,5.75,0,0,1,146.44,201.88Z" style="fill:#407BFF;opacity:0.2"></path><g style="opacity:0.30000000000000004"><polygon points="219.38 205.73 226.08 205.73 249.7 316.83 243 316.83 219.38 205.73" style="fill:#fff"></polygon><polygon points="256.47 316.83 232.85 205.73 258.03 205.73 281.64 316.83 256.47 316.83" style="fill:#fff"></polygon></g><g style="opacity:0.2"><path d="M146.44,201.88h3.85a5.75,5.75,0,0,0-5.81,6.38l11,126.05a7.11,7.11,0,0,0,6.94,6.38h-3.86a7.09,7.09,0,0,1-6.93-6.38l-11-126A5.75,5.75,0,0,1,146.44,201.88Z"></path><path d="M146.44,201.88h3.85a5.75,5.75,0,0,0-5.81,6.38l11,126.05a7.11,7.11,0,0,0,6.94,6.38h-3.86a7.09,7.09,0,0,1-6.93-6.38l-11-126A5.75,5.75,0,0,1,146.44,201.88Z" style="opacity:0.2"></path></g><path d="M219.38,378.48v1.84a1.81,1.81,0,0,0,1.82,1.81h59.61a1.72,1.72,0,0,0,1.73-1.73v-1.93a1.72,1.72,0,0,0-1.73-1.73h-17.9a3,3,0,0,1-.68-.08h-41A1.82,1.82,0,0,0,219.38,378.48Z" style="fill:#fff;opacity:0.30000000000000004"></path><path d="M207.12,376.66h55.11a3.26,3.26,0,0,1-2.6-3.13h-51.1Z" style="opacity:0.2"></path></g><g id="Pictures"><polygon points="139.69 298.99 64.34 298.99 54.51 186.68 129.86 186.68 139.69 298.99" style="fill:#407BFF"></polygon><path d="M113.89,224.13a13.63,13.63,0,0,1-13.8,15.11,16.83,16.83,0,0,1-16.44-15.11A13.64,13.64,0,0,1,97.45,209,16.83,16.83,0,0,1,113.89,224.13Z" style="opacity:0.6000000000000001"></path><polygon points="88.79 282.89 108.59 256.45 119.03 282.89 88.79 282.89" style="fill:#ebebeb"></polygon><g style="opacity:0.30000000000000004"><path d="M71.36,205.34c-9.07,17.22.45,38.62,13.7,52.67,2,2.15,4.87-1,2.84-3.12C76.07,242.34,67.23,223,75.36,207.56c1.28-2.42-2.73-4.64-4-2.22Z"></path></g><polygon points="114.86 193.82 107.5 202.09 116.19 209.01 122.87 201.42 114.86 193.82" style="fill:#fff;opacity:0.7000000000000001"></polygon><polygon points="177.09 183.49 305.11 183.49 298.67 109.89 170.66 109.89 177.09 183.49" style="fill:#407BFF"></polygon><polygon points="304.53 178.04 258.98 137.63 240.6 178.04 304.53 178.04" style="fill:#fff;opacity:0.5"></polygon><polygon points="259.6 178.04 200.4 125.52 176.51 178.04 259.6 178.04" style="fill:#fff"></polygon><ellipse cx="236.4" cy="131.65" rx="9.28" ry="10.12" transform="translate(-22.17 211.4) rotate(-46.26)" style="fill:#fff"></ellipse><polygon points="322.32 297.02 161.79 297.02 153.59 203.31 314.13 203.31 322.32 297.02" style="opacity:0.2"></polygon><polygon points="326.78 289.71 166.24 289.71 158.04 196 318.58 196 326.78 289.71" style="fill:#407BFF"></polygon><g style="opacity:0.6000000000000001"><path d="M240.89,198.93a41.63,41.63,0,0,0-26.73,10.56c-2.34,2.1-4.56,4.79-4.55,8.17,0,4.39,3.67,8,6,11.87,4.39,7.2,4.19,16.85-.46,23-2.88,3.79-7.47,6.89-7.34,12,.1,3.68,2.78,7,5.6,9.4,7.95,6.9,18,10.26,27.9,11.65,8.44,1.2,17.34,1.27,24.58-2.57,18.66-9.92,29.5-40.18,22.39-58.71C277.87,197,240.89,198.93,240.89,198.93Z"></path></g><polygon points="291.56 247.74 282.68 239.58 290.13 231.42 299 239.58 291.56 247.74" style="fill:#407BFF"></polygon><polygon points="291.56 247.74 282.68 239.58 290.13 231.42 299 239.58 291.56 247.74" style="fill:#fff;opacity:0.7000000000000001"></polygon><polygon points="218.46 232.41 211.02 238.43 219.98 249.06 218.46 232.41" style="fill:#407BFF"></polygon><g style="opacity:0.7000000000000001"><polygon points="218.46 232.41 211.02 238.43 219.98 249.06 218.46 232.41" style="fill:#fff"></polygon></g><polygon points="275.57 239.06 253.9 260.73 226.45 237.69 248.12 216.03 275.57 239.06" style="fill:#407BFF"></polygon><path d="M253.9,263.23a2.46,2.46,0,0,1-1.6-.58l-27.46-23a2.5,2.5,0,0,1-.16-3.68l21.67-21.67a2.49,2.49,0,0,1,3.37-.15l27.46,23a2.5,2.5,0,0,1,.16,3.68L255.67,262.5A2.49,2.49,0,0,1,253.9,263.23Zm-23.75-25.7,23.61,19.81,18.11-18.11-23.61-19.81Z" style="fill:#fff"></path><ellipse cx="198.43" cy="223.42" rx="6.87" ry="7.5" transform="translate(-100.18 212.27) rotate(-46.25)" style="fill:#263238"></ellipse><path d="M199.06,231.1a8.51,8.51,0,0,1-8.3-7.64,7,7,0,0,1,7-7.72,8.51,8.51,0,0,1,8.31,7.63h0a7,7,0,0,1-7.05,7.73Zm-1.26-14.36a6,6,0,0,0-4.51,1.93,6.08,6.08,0,0,0-1.54,4.7,7.51,7.51,0,0,0,7.31,6.73,6,6,0,0,0,6.05-6.64A7.48,7.48,0,0,0,197.8,216.74Z" style="fill:#263238"></path><path d="M230.68,282.75h-1.51v-6.24a1,1,0,0,0-1-1h-4.48a2.5,2.5,0,0,1-2.49-2.5v-4.47a1,1,0,0,0-1-1h-4.48a2.5,2.5,0,0,1-2.49-2.5v-4.47a1,1,0,0,0-1-1h-4.48a2.49,2.49,0,0,1-2.49-2.5v-4.48a1,1,0,0,0-1-1H198.1v-1.51h6.24a2.5,2.5,0,0,1,2.49,2.49v4.48a1,1,0,0,0,1,1h4.48a2.5,2.5,0,0,1,2.49,2.5v4.47a1,1,0,0,0,1,1h4.48a2.5,2.5,0,0,1,2.49,2.5V273a1,1,0,0,0,1,1h4.48a2.5,2.5,0,0,1,2.49,2.5Z" style="fill:#407BFF"></path><g style="opacity:0.7000000000000001"><path d="M230.68,282.75h-1.51v-6.24a1,1,0,0,0-1-1h-4.48a2.5,2.5,0,0,1-2.49-2.5v-4.47a1,1,0,0,0-1-1h-4.48a2.5,2.5,0,0,1-2.49-2.5v-4.47a1,1,0,0,0-1-1h-4.48a2.49,2.49,0,0,1-2.49-2.5v-4.48a1,1,0,0,0-1-1H198.1v-1.51h6.24a2.5,2.5,0,0,1,2.49,2.49v4.48a1,1,0,0,0,1,1h4.48a2.5,2.5,0,0,1,2.49,2.5v4.47a1,1,0,0,0,1,1h4.48a2.5,2.5,0,0,1,2.49,2.5V273a1,1,0,0,0,1,1h4.48a2.5,2.5,0,0,1,2.49,2.5Z" style="fill:#fff"></path></g><polygon points="443.82 289.67 350.15 289.67 341.96 196 435.62 196 443.82 289.67" style="fill:#407BFF"></polygon><path d="M376.58,261.93c-2.43-8.49-4.53-19-13.36-17-4.84,1.11-3.53-5.67-3.23-8s2.94-4.45,5-3.35c.92.48,1.5,1.42,2.34,2,2.07,1.51,5.17.55,6.87-1.38s2.35-4.53,3-7,1.54-5.06,3.47-6.74a7,7,0,0,1,10.88,8.4c3.52-.35,6.32-3.1,8.39-6s3.84-6.09,6.69-8.18,7.31-2.62,9.68,0c2.53,2.8,1.27,7.43-1.23,10.25s-5.95,4.67-8.48,7.47-3.88,7.38-1.44,10.25c1.87,2.19,5.07,2.47,7.86,3.2s5.75,2.35,6.94,5.06-.2,6.57-3.13,7.06c-3.33.55-5.7-3-7.3-6s-4.57-6.33-7.71-5.07-2.88,6.08-1.58,9.35A53.48,53.48,0,0,0,406,266.9c1.52,2.21,3.24,5.15,1.65,7.31-1.76,2.39-5.83.92-7.33-1.65-2.22-3.82-1.93-13-8.48-12.3-1.71.18-3.15,2-4.82,2.46C384,263.54,377.4,264.8,376.58,261.93Z" style="fill:#fff"></path><path d="M376.58,261.93c-2.43-8.49-4.53-19-13.36-17-4.84,1.11-3.53-5.67-3.23-8s2.94-4.45,5-3.35c.92.48,1.5,1.42,2.34,2,2.07,1.51,5.17.55,6.87-1.38s2.35-4.53,3-7,1.54-5.06,3.47-6.74a7,7,0,0,1,10.88,8.4c3.52-.35,6.32-3.1,8.39-6s3.84-6.09,6.69-8.18,7.31-2.62,9.68,0c2.53,2.8,1.27,7.43-1.23,10.25s-5.95,4.67-8.48,7.47-3.88,7.38-1.44,10.25c1.87,2.19,5.07,2.47,7.86,3.2s5.75,2.35,6.94,5.06-.2,6.57-3.13,7.06c-3.33.55-5.7-3-7.3-6s-4.57-6.33-7.71-5.07-2.88,6.08-1.58,9.35A53.48,53.48,0,0,0,406,266.9c1.52,2.21,3.24,5.15,1.65,7.31-1.76,2.39-5.83.92-7.33-1.65-2.22-3.82-1.93-13-8.48-12.3-1.71.18-3.15,2-4.82,2.46C384,263.54,377.4,264.8,376.58,261.93Z" style="fill:#fff;opacity:0.1"></path><path d="M430.29,239.92a2,2,0,0,0,.4,1.59,1.81,1.81,0,0,0,1.36.77,2.49,2.49,0,0,0,2.21-2.19,1.69,1.69,0,0,0-.82-1.37A2.12,2.12,0,0,0,430.29,239.92Z" style="fill:#fff"></path><path d="M419,273.4a1.45,1.45,0,0,0,.29,1.18,1.36,1.36,0,0,0,1,.57,1.87,1.87,0,0,0,1.64-1.63,1.25,1.25,0,0,0-.6-1A1.56,1.56,0,0,0,419,273.4Z" style="fill:#fff"></path><path d="M388.35,212.61a4,4,0,0,0,.57,2.78,2.61,2.61,0,0,0,2,1.35,3,3,0,0,0,2.24-1.34,4.09,4.09,0,0,0,1-2.5,3.07,3.07,0,0,0-1.18-2.4A2.93,2.93,0,0,0,388.35,212.61Z" style="fill:#fff"></path><path d="M420,219.69a3.93,3.93,0,0,0,.79,3.17,3.64,3.64,0,0,0,2.71,1.55,5,5,0,0,0,4.42-4.39,3.36,3.36,0,0,0-1.62-2.75C424,215.85,420.56,216.94,420,219.69Z" style="fill:#fff"></path><path d="M420,219.69a3.93,3.93,0,0,0,.79,3.17,3.64,3.64,0,0,0,2.71,1.55,5,5,0,0,0,4.42-4.39,3.36,3.36,0,0,0-1.62-2.75C424,215.85,420.56,216.94,420,219.69Z" style="fill:#fff;opacity:0.1"></path><path d="M376.58,261.93c-2.43-8.49-4.53-19-13.36-17-4.84,1.11-3.53-5.67-3.23-8s2.94-4.45,5-3.35c.92.48,1.5,1.42,2.34,2,2.07,1.51,5.17.55,6.87-1.38s2.35-4.53,3-7,1.54-5.06,3.47-6.74a7,7,0,0,1,10.88,8.4c3.52-.35,6.32-3.1,8.39-6s3.84-6.09,6.69-8.18,7.31-2.62,9.68,0c2.53,2.8,1.27,7.43-1.23,10.25s-5.95,4.67-8.48,7.47-3.88,7.38-1.44,10.25c1.87,2.19,5.07,2.47,7.86,3.2s5.75,2.35,6.94,5.06-.2,6.57-3.13,7.06c-3.33.55-5.7-3-7.3-6s-4.57-6.33-7.71-5.07-2.88,6.08-1.58,9.35A53.48,53.48,0,0,0,406,266.9c1.52,2.21,3.24,5.15,1.65,7.31-1.76,2.39-5.83.92-7.33-1.65-2.22-3.82-1.93-13-8.48-12.3-1.71.18-3.15,2-4.82,2.46C384,263.54,377.4,264.8,376.58,261.93Z" style="fill:#fff"></path><path d="M376.58,261.93c-2.43-8.49-4.53-19-13.36-17-4.84,1.11-3.53-5.67-3.23-8s2.94-4.45,5-3.35c.92.48,1.5,1.42,2.34,2,2.07,1.51,5.17.55,6.87-1.38s2.35-4.53,3-7,1.54-5.06,3.47-6.74a7,7,0,0,1,10.88,8.4c3.52-.35,6.32-3.1,8.39-6s3.84-6.09,6.69-8.18,7.31-2.62,9.68,0c2.53,2.8,1.27,7.43-1.23,10.25s-5.95,4.67-8.48,7.47-3.88,7.38-1.44,10.25c1.87,2.19,5.07,2.47,7.86,3.2s5.75,2.35,6.94,5.06-.2,6.57-3.13,7.06c-3.33.55-5.7-3-7.3-6s-4.57-6.33-7.71-5.07-2.88,6.08-1.58,9.35A53.48,53.48,0,0,0,406,266.9c1.52,2.21,3.24,5.15,1.65,7.31-1.76,2.39-5.83.92-7.33-1.65-2.22-3.82-1.93-13-8.48-12.3-1.71.18-3.15,2-4.82,2.46C384,263.54,377.4,264.8,376.58,261.93Z" style="fill:#fff;opacity:0.1"></path><path d="M430.29,239.92a2,2,0,0,0,.4,1.59,1.81,1.81,0,0,0,1.36.77,2.49,2.49,0,0,0,2.21-2.19,1.69,1.69,0,0,0-.82-1.37A2.12,2.12,0,0,0,430.29,239.92Z" style="fill:#fff"></path><path d="M419,273.4a1.45,1.45,0,0,0,.29,1.18,1.36,1.36,0,0,0,1,.57,1.87,1.87,0,0,0,1.64-1.63,1.25,1.25,0,0,0-.6-1A1.56,1.56,0,0,0,419,273.4Z" style="fill:#fff"></path><path d="M388.35,212.61a4,4,0,0,0,.57,2.78,2.61,2.61,0,0,0,2,1.35,3,3,0,0,0,2.24-1.34,4.09,4.09,0,0,0,1-2.5,3.07,3.07,0,0,0-1.18-2.4A2.93,2.93,0,0,0,388.35,212.61Z" style="fill:#fff"></path><path d="M420,219.69a3.93,3.93,0,0,0,.79,3.17,3.64,3.64,0,0,0,2.71,1.55,5,5,0,0,0,4.42-4.39,3.36,3.36,0,0,0-1.62-2.75C424,215.85,420.56,216.94,420,219.69Z" style="fill:#fff"></path><path d="M420,219.69a3.93,3.93,0,0,0,.79,3.17,3.64,3.64,0,0,0,2.71,1.55,5,5,0,0,0,4.42-4.39,3.36,3.36,0,0,0-1.62-2.75C424,215.85,420.56,216.94,420,219.69Z" style="fill:#fff;opacity:0.1"></path><path d="M419,273.4a1.45,1.45,0,0,0,.29,1.18,1.36,1.36,0,0,0,1,.57,1.87,1.87,0,0,0,1.64-1.63,1.25,1.25,0,0,0-.6-1A1.56,1.56,0,0,0,419,273.4Z" style="fill:#fff;opacity:0.5"></path><path d="M388.35,212.61a4,4,0,0,0,.57,2.78,2.61,2.61,0,0,0,2,1.35,3,3,0,0,0,2.24-1.34,4.09,4.09,0,0,0,1-2.5,3.07,3.07,0,0,0-1.18-2.4A2.93,2.93,0,0,0,388.35,212.61Z" style="fill:#fff;opacity:0.5"></path><g style="opacity:0.5"><path d="M420,219.69a3.93,3.93,0,0,0,.79,3.17,3.64,3.64,0,0,0,2.71,1.55,5,5,0,0,0,4.42-4.39,3.36,3.36,0,0,0-1.62-2.75C424,215.85,420.56,216.94,420,219.69Z" style="fill:#fff"></path><path d="M420,219.69a3.93,3.93,0,0,0,.79,3.17,3.64,3.64,0,0,0,2.71,1.55,5,5,0,0,0,4.42-4.39,3.36,3.36,0,0,0-1.62-2.75C424,215.85,420.56,216.94,420,219.69Z" style="fill:#fff;opacity:0.1"></path></g></g><g id="character-2"><g id="freepik--Character--inject-578"><polygon points="296.69 396.24 290.17 392.87 280.96 406.52 286.49 411.36 296.69 396.24" style="fill:#ff8b7b"></polygon><path d="M281.25,405.87a.19.19,0,0,0,.15-.15.18.18,0,0,0-.1-.19c-.35-.19-3.43-1.78-4.38-1.26a.61.61,0,0,0-.32.48,1,1,0,0,0,.33.9,2.9,2.9,0,0,0,1.88.48A13.39,13.39,0,0,0,281.25,405.87Zm-3.82-1.37a9.88,9.88,0,0,1,3.21,1.11c-1.72.27-3,.19-3.46-.24a.61.61,0,0,1-.21-.58.24.24,0,0,1,.12-.2.68.68,0,0,1,.34-.06Z" style="fill:#407BFF"></path><path d="M281.34,405.83a.15.15,0,0,0,.08-.16c0-.09-.17-2.18-1.15-3a1.31,1.31,0,0,0-1-.32c-.51.05-.69.3-.69.51-.15.88,1.67,2.56,2.59,3h.08A.18.18,0,0,0,281.34,405.83Zm-2-3.13a1,1,0,0,1,.66.24,4.14,4.14,0,0,1,1,2.39c-.93-.58-2.17-1.89-2.08-2.43,0,0,0-.17.37-.2h.08Z" style="fill:#407BFF"></path><path d="M280.46,405.24c-2,1.71-4.45,3.48-10.53,4.78-1.36.27-1.24,3.68,2,3.69s8.55-.26,10.91-.26c3.83,0,4.9.09,7.93.16h.14a1.24,1.24,0,0,0,1.11-1.37l-1-6.89a.64.64,0,0,0-.64-.53l-8.71,0A2,2,0,0,0,280.46,405.24Z" style="fill:#263238"></path><polygon points="296.69 396.24 291.68 403.68 285.15 400.31 290.17 392.88 296.69 396.24" style="opacity:0.2;isolation:isolate"></polygon><path d="M355.74,396.89c1.1,9.78-3.05,20.41-24,19.94-17.81-.4-18.15-20.66-24.07-30.62-3.17,9.56-13.85,15-13.85,15L287,396.27s3.21-3.61,14.6-24.44c10.34-18.94,28.14,12.5,31.19,22.69Z" style="fill:#407BFF"></path><g style="opacity:0.2"><path d="M355.74,396.89c1.1,9.78-3.05,20.41-24,19.94-17.81-.4-18.15-20.66-24.07-30.62-3.17,9.56-13.85,15-13.85,15L287,396.27s3.21-3.61,14.6-24.44c10.34-18.94,28.14,12.5,31.19,22.69Z"></path></g><polygon points="297.41 399.94 286.21 393.73 285.06 397.29 294.85 403.16 297.41 399.94" style="fill:#263238"></polygon><path d="M345.39,337.26c.41,3.8.25,6-5.21,6.48,0,0-7.63,6.87-1.95,20.06a106.65,106.65,0,0,0,16.69-18c-2.87-3.63-1-10.4.61-15Z" style="fill:#ff8b7b"></path><path d="M336.41,345.13a7.21,7.21,0,0,1,4.38-2.7c3-.61,14,.79,15,1.73a6,6,0,0,1,1.94,3.42Z" style="fill:#407BFF"></path><path d="M368.21,357.81c.66,2.23,1.19,4.37,1.69,6.56s.94,4.38,1.35,6.58.71,4.44,1,6.67.5,4.5.65,6.78v.74l-.94,6.65-1,6.66c-.34,2.22-.66,4.45-1.05,6.67s-.75,4.44-1.18,6.66l-4.07-.34c0-2.24,0-4.54,0-6.78s.07-4.54.15-6.77.16-4.53.28-6.77.24-4.51.41-6.78v.75c-.28-2.09-.6-4.19-1-6.28s-.8-4.19-1.26-6.28-.95-4.19-1.43-6.27-1-4.2-1.53-6.2Z" style="fill:#ff8b7b"></path><path d="M370.32,413.37l8.28,1.32-.27-1.19a4.14,4.14,0,0,0-2.06-2.51l-1.63-.94a6,6,0,0,0-2.81-.76l-4.43-.08-2.47.36C362.12,413.07,370.32,413.37,370.32,413.37Z" style="fill:#ff8b7b"></path><path d="M356.14,355.3c-1.57,4.11,3.47,13.42,3.47,13.42l12-6.62s-3.32-12-6.49-13.45C361.48,347,357.73,351,356.14,355.3Z" style="fill:#263238"></path><path d="M356.14,355.3c-1.57,4.11,3.47,13.42,3.47,13.42l12-6.62s-3.32-12-6.49-13.45C361.48,347,357.73,351,356.14,355.3Z" style="fill:#fff;opacity:0.1"></path><path d="M356.4,360.83a41.85,41.85,0,0,0,3.2,7.85l5.92-3.24a20.09,20.09,0,0,0-1.56-3.11C361.73,359.07,358.8,359.38,356.4,360.83Z" style="opacity:0.2;isolation:isolate"></path><path d="M340.17,343.77a104.55,104.55,0,0,1,14.73,2.05,87.31,87.31,0,0,1,9,2.25l.27.09a4.47,4.47,0,0,1,2.6,5.75c-8.56,22.79-9.62,30.74-10.85,43.25l-32.41-4.54c-.12-5.29,2.57-10.46,2.57-18.36,0-20.18-3.44-20-2.57-23.84C323.42,344.93,336.18,343.57,340.17,343.77Z" style="fill:#263238"></path><path d="M341.08,317.57c-.4-.13-.89.26-1.09.88s0,1.23.39,1.36.89-.24,1.09-.89S341.49,317.7,341.08,317.57Z" style="fill:#263238"></path><path d="M339.9,316.76l1.35.9C340.3,318.16,339.9,316.76,339.9,316.76Z" style="fill:#263238"></path><path d="M339.45,324.74a2.83,2.83,0,0,1-2.08-1.12,17,17,0,0,0,3.46-3.24Z" style="fill:#a02724"></path><path d="M341.91,313.94a3,3,0,0,1,2,1.86.14.14,0,0,0,0,.07.38.38,0,1,0,.71-.27,3.79,3.79,0,0,0-2.54-2.4.4.4,0,0,0-.48.26.41.41,0,0,0,.09.37A.34.34,0,0,0,341.91,313.94Z" style="fill:#263238"></path><path d="M363.24,323.36c-2.89,7.46-3.94,10.68-9,13.37a11.26,11.26,0,0,1-8.72.91,10,10,0,0,1-3.81-2.2,9.69,9.69,0,0,1-3.07-8c.53-7.37,5.15-18.33,13.56-19a10.91,10.91,0,0,1,11.06,14.92Z" style="fill:#ff8b7b"></path><path d="M351.11,337a2.37,2.37,0,0,0,2.92.68c3.54-1.73,11.51-6.18,13.84-12.14,3-7.74,1-13.6-4.54-16.55s-15-3.67-18.93,0-1.14,5.18,2.54,13.56C344.59,327.46,348.89,334.09,351.11,337Z" style="fill:#263238"></path><path d="M347.61,319.79c-2-.07-3.39,2.39-3.71,4.11-.36,1.91.8,3.57,2.71,2.82a5.86,5.86,0,0,0,3.2-3.12A2.62,2.62,0,0,0,347.61,319.79Z" style="fill:#ff8b7b"></path><polygon points="273.58 394.54 266.48 390.28 254.95 404.56 260.82 410.35 273.58 394.54" style="fill:#ff8b7b"></polygon><path d="M255.72,403.35a.18.18,0,0,0,.21-.06.17.17,0,0,0,0-.21c-.19-.36-1.92-3.53-3-3.64a.68.68,0,0,0-.56.24,1,1,0,0,0-.23,1,3.06,3.06,0,0,0,1.33,1.51A15.07,15.07,0,0,0,255.72,403.35Zm-.4-.57c-1.64-.76-2.7-1.56-2.85-2.21a.63.63,0,0,1,.16-.65.23.23,0,0,1,.22-.09.61.61,0,0,1,.33.14A10.32,10.32,0,0,1,255.32,402.78Z" style="fill:#407BFF"></path><path d="M255.78,403.35a.21.21,0,0,0,.17-.1c0-.07,1.1-1.94.74-3.24a1.38,1.38,0,0,0-.69-.86c-.47-.26-.74-.12-.9,0-.63.67,0,3.18.52,4.08l0,.06A.23.23,0,0,0,255.78,403.35Zm.14-3.81a1,1,0,0,1,.4.58,4.42,4.42,0,0,1-.54,2.64c-.48-1.05-.78-2.9-.4-3.31,0,0,.13-.14.44,0l.1.06Z" style="fill:#407BFF"></path><path d="M254.72,402.31c-2.79.29-5.88.45-11.87-2-1.33-.53-3.21,2.47-.41,4.37s7.55,4.73,9.58,6.11c3.29,2.24,4.17,2.92,6.76,4.74l.12.07a1.29,1.29,0,0,0,1.75-.53l3.18-6.48a.65.65,0,0,0-.23-.82l-7.49-5.09A2.16,2.16,0,0,0,254.72,402.31Z" style="fill:#263238"></path><path d="M254.72,402.31c-2.79.29-5.88.45-11.87-2-1.33-.53-3.21,2.47-.41,4.37s7.55,4.73,9.58,6.11c3.29,2.24,4.17,2.92,6.76,4.74l.12.07a1.29,1.29,0,0,0,1.75-.53l3.18-6.48a.65.65,0,0,0-.23-.82l-7.49-5.09A2.16,2.16,0,0,0,254.72,402.31Z" style="opacity:0.2"></path><polygon points="273.58 394.54 267.31 402.31 260.2 398.06 266.48 390.28 273.58 394.54" style="opacity:0.2;isolation:isolate"></polygon><path d="M356,396.74c2.2,10-.43,25-25.42,20.93-22.43-3.62-32.07-27.94-40.8-38.48-3.63,9.47-19.18,20.23-19.18,20.23l-9.6-5.51s7.61-8.12,18.57-26.42c11.51-19.19,39.1,14.57,44,25.13Z" style="fill:#407BFF"></path><polygon points="273.75 398.17 261.48 390.76 260.04 394.69 270.75 401.69 273.75 398.17" style="fill:#263238"></polygon><path d="M356.17,395l-32.84-4.59c-.32,0-.6.09-.6.3l-.12,3c0,.19.21.36.5.41l33.38,4.66c.37.05.68-.14.59-.39l-.41-3A.6.6,0,0,0,356.17,395Z" style="fill:#fff"></path><path d="M351.33,398.11l.11-3.83c0-.11.15-.17.33-.17l.88.13c.17,0,.31.13.31.25l-.12,3.83c0,.11-.15.16-.32.16l-.88-.13A.29.29,0,0,1,351.33,398.11Z" style="fill:#263238"></path><path d="M325.24,394.46l.12-3.82c0-.12.15-.16.32-.16l.88.12c.18,0,.31.14.31.25l-.11,3.83c0,.11-.15.15-.33.15l-.88-.11C325.38,394.69,325.24,394.58,325.24,394.46Z" style="fill:#263238"></path><path d="M338.23,396.28l.12-3.82c0-.12.15-.17.32-.17l.88.13c.17,0,.31.13.31.24l-.11,3.83c0,.11-.15.16-.33.16l-.88-.12C338.37,396.51,338.23,396.41,338.23,396.28Z" style="fill:#263238"></path></g><path d="M378.65,316.35c1,3.54.4,7.27.24,10.93a25,25,0,0,0,1.67,11.3c1.55,3.52,4.54,6.56,8.29,7.41s8.14-.93,9.62-4.48a8.24,8.24,0,0,1-5,5.24c-2.35.85-6.44,1.65-8.54.28,1.06,2.85,6.75,4,10.41,3.58-3.24,2.49-7.89,6.76-14.78,2.88a10.66,10.66,0,0,1-5.21-10.32,11,11,0,0,0-.79,7.07,14.22,14.22,0,0,1-6.39-13.85c.39-2.59,1.5-5,2.27-7.51s1.22-5.26.27-7.71a15.66,15.66,0,0,0-2.62-4,11.79,11.79,0,0,1-2.39-4.08,4.35,4.35,0,0,1,1.05-4.4c1.88-1.63,4.76.52,6.61,1.28A9.38,9.38,0,0,1,378.65,316.35Z" style="fill:#263238"></path><path d="M336.13,357.75c.66,2.22,2,11.62,2.4,13.82s.71,4.43,1,6.67.5,4.5.65,6.77v.75l-.94,6.64-1,6.67c-.34,2.22-.53,2.14-.92,4.35s-.79,4.61-1.22,6.83l-5.68.87c0-2.24.46-5.92.49-8.16s-.07-2.23,0-4.46.16-4.52.28-6.76.24-4.52.42-6.78v.74c-.29-2.09-.6-4.18-1-6.27s-.8-4.2-1.26-6.29-.95-4.18-1.42-6.26-1-4.2-1.53-6.21Z" style="fill:#ff8b7b"></path><path d="M330.45,410.52l-1.29,5.72a2.26,2.26,0,0,0,2.09,1.81h8.94c2,.11,4.28-1.62.53-4.68l-4.59-3.72S334.17,407.68,330.45,410.52Z" style="fill:#ff8b7b"></path><path d="M327.07,345.87c-4.81,2.34-5.67,12-2.86,17,9.71-2.74,13.49-.89,13.4-.62a23.49,23.49,0,0,0-.18-7.05,12.21,12.21,0,0,0-3.8-7.71C331.4,345.62,329.63,344.45,327.07,345.87Z" style="fill:#263238"></path><path d="M327.07,345.87c-4.81,2.34-5.67,12-2.86,17,9.71-2.74,13.49-.89,13.4-.62a23.49,23.49,0,0,0-.18-7.05,12.21,12.21,0,0,0-3.8-7.71C331.4,345.62,329.63,344.45,327.07,345.87Z" style="fill:#fff;opacity:0.1"></path><path d="M345.5,337.64a10,10,0,0,1-3.81-2.2s0,0,0-.06a4.29,4.29,0,0,0,2.68.4,1.07,1.07,0,0,1,.77,0,1,1,0,0,1,.3.77C345.45,336.93,345.47,337.29,345.5,337.64Z" style="opacity:0.2;isolation:isolate"></path></g><g id="character-1"><g id="group"><polygon points="149.78 404.01 144.55 398.82 160.01 386.6 165.62 392.33 149.78 404.01" style="fill:#cb7a63"></polygon><path d="M139.8,397.08a1,1,0,0,0,.29.92,3.43,3.43,0,0,0,.62.34l.06,0a2.86,2.86,0,0,0,1.2.2,13.86,13.86,0,0,0,2.49-.19.2.2,0,0,0,.12-.08.19.19,0,0,0,0-.08.18.18,0,0,0-.11-.17l-.61-.34-.71-.36c-.35-.16-.72-.32-1.1-.46a2.93,2.93,0,0,0-2-.28A.61.61,0,0,0,139.8,397.08Zm.5-.15a.78.78,0,0,1,.34-.05,11,11,0,0,1,1.16.3,9.86,9.86,0,0,1,2,.93l-.38,0a11.75,11.75,0,0,1-1.52.05,4.08,4.08,0,0,1-1-.14,1.45,1.45,0,0,1-.62-.32.61.61,0,0,1-.19-.61A.24.24,0,0,1,140.3,396.93Z" style="fill:#407BFF"></path><path d="M142.16,394.11c-.26.45,0,1.39.43,2.23a5.61,5.61,0,0,0,.59,1,3.63,3.63,0,0,0,.39.48s0,.05.07.05a.14.14,0,0,0,.11,0,.19.19,0,0,0,.13-.13.1.1,0,0,0,0,0,5.43,5.43,0,0,0,.08-2.86,1.27,1.27,0,0,0-.13-.32,1.35,1.35,0,0,0-.85-.66C142.49,393.73,142.26,393.92,142.16,394.11Zm.74.11.11,0a1.06,1.06,0,0,1,.51.45,1.5,1.5,0,0,1,.16.45,5.44,5.44,0,0,1-.07,2.16,6.9,6.9,0,0,1-.76-1.26c-.33-.73-.54-1.47-.37-1.76C142.5,394.25,142.57,394.13,142.9,394.22Z" style="fill:#407BFF"></path><path d="M145.31,398.55l6.78,4.22a.63.63,0,0,1,.26.78L149.66,410a1.25,1.25,0,0,1-1.66.62l-.12-.07c-11.77-5.37-15.22-8.72-16.43-9.53-3.44-2.3-1.18-4.68.15-4.24,5.93,2,8,1.81,10.68,1.37A6.24,6.24,0,0,1,145.31,398.55Z" style="fill:#263238"></path><polygon points="160.01 386.6 152.22 392.34 157.83 398.08 165.62 392.34 160.01 386.6" style="opacity:0.2;isolation:isolate"></polygon><polygon points="161.21 398.33 152.9 389.15 155.21 385.83 164.88 395.78 161.21 398.33" style="fill:#407BFF"></polygon><polygon points="161.21 398.33 152.9 389.15 155.21 385.83 164.88 395.78 161.21 398.33" style="fill:#fff;opacity:0.5"></polygon><path d="M156.53,387.19l1.12,1.15,1.67,1.72,1,1,2.92,3,.56.57s13.58-6.11,21.32-11.67c5.31-3.82,5.9-5.36,6.38-4.92,6.47,5.91,25.38,26,36.17,36.59l1.13.21c6.18,1,11.14.77,15.07-.33.5-5.05-2.76-17.24-3-18.41,0,0-15.64-18.64-42.19-35.61-.26-.16-.54-.3-.81-.45s-.69-.37-1-.53a13.77,13.77,0,0,0-4.18-1.35,9.33,9.33,0,0,0-3.68.24,14.23,14.23,0,0,0-2,.67,17.56,17.56,0,0,0-1.7.8c-.92.47-1.8,1-2.65,1.53-1.9,1.21-16.92,17.33-24.87,24.68h0Z" style="fill:#263238"></path><g style="opacity:0.2"><path d="M156.53,387.19l1.12,1.15,1.67,1.72,1,1,2.92,3,.56.57s13.58-6.11,21.32-11.67c5.31-3.82,5.9-5.36,6.38-4.92,6.47,5.91,25.38,26,36.17,36.59l1.13.21c6.18,1,11.14.77,15.07-.33.5-5.05-2.76-17.24-3-18.41,0,0-15.64-18.64-42.19-35.61-.26-.16-.54-.3-.81-.45s-.69-.37-1-.53a13.77,13.77,0,0,0-4.18-1.35,9.33,9.33,0,0,0-3.68.24,14.23,14.23,0,0,0-2,.67,17.56,17.56,0,0,0-1.7.8c-.92.47-1.8,1-2.65,1.53-1.9,1.21-16.92,17.33-24.87,24.68h0Z"></path></g><path d="M258.8,326.22c-2.91,4.16-6.74,10.39-4.91,14.83a110.19,110.19,0,0,1-21.84,13.23c-1.91-14.82,7.69-19.5,7.69-19.5,5.62,1,6.4-1.07,7.08-5Z" style="fill:#cb7a63"></path><path d="M258,339.08a6.25,6.25,0,0,0-2.11-3.51c-1-.95-12.55-2.12-15.64-1.41a7.61,7.61,0,0,0-4.49,2.93Z" style="fill:#407BFF"></path><path d="M205.44,359.18l-3.16-.91.58,4.86A9.3,9.3,0,0,0,206,364.4a2,2,0,0,0,2.13-2.74h0A4.27,4.27,0,0,0,205.44,359.18Z" style="fill:#cb7a63"></path><path d="M198.7,360.2l.42,1.75a1.27,1.27,0,0,0,1.14,1l2.62.19-.58-4.85-2.56.42a1.23,1.23,0,0,0-1.06,1.41A.36.36,0,0,0,198.7,360.2Z" style="fill:#cb7a63"></path><path d="M245.09,367.3a25.74,25.74,0,0,1-14.88,4.83c-6.47-.12-18.4-4.8-23.72-7.72l1.25-2.64c2.46.15,23.41,7.14,34.65-3.69,2.09-2,10.27-10.26,13.55-10.6,5.31-.55,5.68,5,3.76,7.68C257.44,358.25,248.46,365,245.09,367.3Z" style="fill:#cb7a63"></path><g style="opacity:0.2;isolation:isolate"><path d="M199.12,362a1.26,1.26,0,0,0,1.14,1l2.6.19h0A9.3,9.3,0,0,0,206,364.4a1.94,1.94,0,0,0,.48,0h0c5.33,2.92,17.25,7.6,23.72,7.73a25.75,25.75,0,0,0,14.88-4.84c3.37-2.34,12.36-9.05,14.61-12.14,1.92-2.64,1.55-8.23-3.76-7.68-3.27.34-11.45,8.58-13.55,10.6-10.73,10.32-30.27,4.45-34.2,3.75a.58.58,0,0,0-.06-.17,4.25,4.25,0,0,0-1.06-1.54,4.36,4.36,0,0,0-1.63-.94l-3.13-.9h0l-2.55.42a1.24,1.24,0,0,0-1,1.41s0,.07,0,.1Z"></path><polygon points="202.28 358.27 202.31 358.28 202.31 358.27 202.28 358.27"></polygon></g><path d="M225.34,344.15c-8.06,14.21,7.15,19.86-2.19,43.51L257,391.53c.95-13-3.93-10.66,4.39-34.59a23.74,23.74,0,0,0,.38-13.51,10,10,0,0,0-3.95-5.38c-2.38-1.58-13.5-1.52-18.56-1.63C233.85,335.15,226.5,342.39,225.34,344.15Z" style="fill:#407BFF"></path><path d="M241.5,313.27c-.16.64-.61,1-1,.92s-.6-.67-.45-1.29.61-1,1-.92S241.65,312.66,241.5,313.27Z" style="fill:#263238"></path><path d="M241.22,312.06l-1.36-.8S240.32,312.6,241.22,312.06Z" style="fill:#263238"></path><path d="M241.07,314a16.6,16.6,0,0,1-3.18,3.34,2.74,2.74,0,0,0,2.08,1Z" style="fill:#a02724"></path><path d="M241.1,308.37A.37.37,0,0,1,241,308a.4.4,0,0,1,.46-.27,3.7,3.7,0,0,1,2.59,2.18.39.39,0,0,1-.18.5.39.39,0,0,1-.5-.19.64.64,0,0,1,0-.07,3,3,0,0,0-2.07-1.69A.32.32,0,0,1,241.1,308.37Z" style="fill:#263238"></path><path d="M262.49,316.42c-2.38,7.41-3.23,10.59-8,13.48-7.2,4.36-15.79-.18-15.65-8.15.11-7.17,4-18.08,12.1-19.19a10.6,10.6,0,0,1,12,9A10.37,10.37,0,0,1,262.49,316.42Z" style="fill:#cb7a63"></path><path d="M238.84,321.25a4.22,4.22,0,0,0,1.92-1.26.16.16,0,0,0,0-.22.17.17,0,0,0-.22,0,4.16,4.16,0,0,1-1.65,1.11Z" style="fill:#263238"></path><path d="M245.51,306.4a13.79,13.79,0,0,0,.86,7.46c1.61,3.56,1.31,10.16-1.08,13.21-1.94,2.46-5.27,3.31-7.53,5.5s-3.59,5.35-2.23,8.5c1.21,2.79,6.62,2.17,8.14,4.77,2.07,3.51,1.09,10.39,5.86,10.45,6.78.12,8.4-5.88,13.1-4.8s11.86,2.85,13.73-4.4c1.16-4.46-2-7.61-2.41-11.81-.33-3,1.71-5.35,2.15-8.2a11.22,11.22,0,0,0-2.07-8.43c-1.29-1.76-3-3-3.67-5.21-.55-1.72-.9-3.5-1.42-5.23a10.22,10.22,0,0,0-7.62-7.52C250.1,298.17,246.6,301.9,245.51,306.4Z" style="fill:#263238"></path><path d="M240.64,303.66a3.21,3.21,0,0,0,1.25,4.13,5.26,5.26,0,0,0,5.72,5.34c-1.31-.66-1.33-2.61-.57-3.87,1.39-2.31,5.61-4.66,2.54-7.41C247.24,299.75,241.93,300.89,240.64,303.66Z" style="fill:#263238"></path><path d="M251.18,317.44a6.78,6.78,0,0,1-3.49,3.83c-2.17,1-3.62-.85-3.33-3.09.25-2,1.7-4.95,4-5A3,3,0,0,1,251.18,317.44Z" style="fill:#cb7a63"></path><polygon points="146.2 407.28 140.62 400.76 153.8 386.95 160.8 391.98 146.2 407.28" style="fill:#cb7a63"></polygon><path d="M134.08,398.79a1.08,1.08,0,0,0,.11,1,3,3,0,0,0,.41.38,3.07,3.07,0,0,0,1.42.64l.48.1a14.57,14.57,0,0,0,2.18.26.2.2,0,0,0,.19-.12.17.17,0,0,0-.08-.21c0-.06-.22-.2-.44-.39l-.1-.09h0c-.19-.16-.42-.35-.67-.54-1-.77-2.32-1.65-3-1.48A.7.7,0,0,0,134.08,398.79Zm.55,0a.7.7,0,0,1,.38,0,10.63,10.63,0,0,1,2.65,1.63l.18.16.25.22c-.29,0-.56-.06-.81-.09a9,9,0,0,1-1.61-.37,2.23,2.23,0,0,1-1.15-.71.69.69,0,0,1-.07-.69A.27.27,0,0,1,134.63,398.75Z" style="fill:#407BFF"></path><path d="M137.24,396.21c-.54.59-.16,2.48.33,3.63a4.34,4.34,0,0,0,.28.57l0,0a.15.15,0,0,0,.06.05l.12,0a.2.2,0,0,0,.17-.11v0h0c.15-.28,1-2.1.67-3.36a1.47,1.47,0,0,0-.74-.88C137.67,395.89,137.39,396,137.24,396.21Zm.29.26s.13-.14.46,0l.1.06a1,1,0,0,1,.44.59,4.65,4.65,0,0,1-.5,2.76C137.5,398.83,137.14,396.91,137.53,396.47Z" style="fill:#407BFF"></path><polygon points="154.5 386.1 148.29 392.73 155.45 397.61 161.73 391.17 154.5 386.1" style="opacity:0.2;isolation:isolate"></polygon><path d="M257.51,389l.5,3.15c.1.25-.21.46-.6.41l-34.83-4c-.31,0-.54-.22-.54-.41l1.17-3.15c0-.21.29-.36.62-.32l33.15,4A.61.61,0,0,1,257.51,389Z" style="fill:#fff"></path><path d="M226.18,389.25l.91.17c.18,0,.33,0,.34-.13l.38-4c0-.12-.13-.24-.31-.28l-.91-.19c-.18,0-.34,0-.34.15l-.38,4C225.86,389.08,226,389.21,226.18,389.25Z" style="fill:#407BFF"></path><path d="M238.66,390.54l.9.18c.18,0,.34,0,.35-.14l.37-4c0-.12-.13-.24-.31-.28l-.9-.19c-.18,0-.34,0-.35.15l-.37,4C238.33,390.39,238.48,390.5,238.66,390.54Z" style="fill:#407BFF"></path><path d="M238.66,390.54l.9.18c.18,0,.34,0,.35-.14l.37-4c0-.12-.13-.24-.31-.28l-.9-.19c-.18,0-.34,0-.35.15l-.37,4C238.33,390.39,238.48,390.5,238.66,390.54Z" style="fill:#407BFF"></path><path d="M149.54,388.87l1.47,1h0l2.52,1.74,2.27,1.55h0l2.32,1.61h0l.89.62.63-.38.53-.32c.63-.38,1.49-.92,2.51-1.58h0c5.27-3.45,14.73-10.31,18-17,1.5,2.16,3.3,4.87,5.36,7.87,8.87,12.91,22.81,31.26,41.22,35.15.37.09.74.16,1.12.23,6.17,1.09,11.13.92,15.07-.14,10-2.66,13.43-10.9,13.42-18.18v0c.24-3.38.13-9.46.13-9.46l-35.23-3.14a105.35,105.35,0,0,0-23.16-23.69c-.23-.18-.46-.34-.69-.49s-.58-.4-.87-.59a40.76,40.76,0,0,0-9.4-4.86c-.68-.23-1.36-.44-2-.6a19.69,19.69,0,0,0-2.09-.4h0a12.31,12.31,0,0,0-12.43,5.32l-20.94,25.06Z" style="fill:#263238"></path><path d="M239.88,346.2s1.5,3.9-4.68,13.27l-2.57,3.82h0c-.85,1.26-5.45-1.88-6.67-4.5h0S235.73,354.07,239.88,346.2Z" style="opacity:0.2"></path><path d="M194.05,355.55l-3.59-1.41.08,5.74s4.83,3.9,6.9.78l-.55-1.9A5,5,0,0,0,194.05,355.55Z" style="fill:#cb7a63"></path><path d="M186,356l.28,2.09a1.47,1.47,0,0,0,1.22,1.28l3,.52-.08-5.75-3.05.21a1.47,1.47,0,0,0-1.42,1.52A.62.62,0,0,1,186,356Z" style="fill:#cb7a63"></path><path d="M223.84,368c-2.88,3.25-6.76,5.84-11.08,6.28-5.09.53-14.08-7.42-18.19-12.41.41-1.91.37-3,2.32-3.06,0,0,4.64,4.09,13.82,7.12,3,1,5.26-1.93,8.31-6.2,1.52-2.12,8.51-15.36,10.29-17.26,2.88-3.07,10,0,6.38,7.62A152.89,152.89,0,0,1,223.84,368Z" style="fill:#cb7a63"></path><path d="M229,339.6c-5.64,4.31-8.94,12.54-8.94,12.54l11.49,8.52s10-11.68,8.83-16.17c-.95-3.49-3.07-5.91-6.1-6.38A7,7,0,0,0,229,339.6Z" style="fill:#407BFF"></path><path d="M252.35,392.26l.92.1c.18,0,.34-.05.33-.17l0-4a.35.35,0,0,0-.33-.26l-.92-.1c-.19,0-.34.06-.34.17l0,4A.31.31,0,0,0,252.35,392.26Z" style="fill:#407BFF"></path><polygon points="160.35 397.22 149.04 390.23 150.43 386.11 163.38 393.49 160.35 397.22" style="fill:#407BFF"></polygon><polygon points="160.35 397.22 149.04 390.23 150.43 386.11 163.38 393.49 160.35 397.22" style="fill:#fff;opacity:0.5"></polygon><path d="M141.16,400.15l7.94,3.22a.67.67,0,0,1,.43.77l-1.66,7.33a1.34,1.34,0,0,1-1.64,1l-.14-.05c-13.45-3.5-17.73-6.42-19.15-7.05-4.07-1.8-2.11-4.74-.63-4.51,6.65,1,8.8.43,11.56-.53A7,7,0,0,1,141.16,400.15Z" style="fill:#263238"></path></g></g></svg>