<svg xmlns="http://www.w3.org/2000/svg" viewBox="0 0 500 500"><g id="background-complete"><polygon points="276.73 377.94 276.73 471.44 411.02 471.44 415.86 378.6 276.73 377.94" style="fill:#e0e0e0"></polygon><rect x="302.39" y="357.78" width="92.64" height="134.28" transform="translate(-76.21 773.63) rotate(-90)" style="fill:#fff"></rect><path d="M280.93,378H416.49v93.92H280.93Zm134.29,1.28h-133v91.37h133Z" style="fill:#e0e0e0"></path><rect x="296.12" y="390.11" width="105.2" height="69.62" style="fill:#fff"></rect><path d="M296.12,390.11l.51,0,1.5,0,5.78,0,21.68.08,75.72.15-.3-.3c0,21.27,0,44.84,0,69.61h0l.33-.33-105.19.07.26.26c-.06-21.19-.11-38.56-.14-50.65,0-6.05-.05-10.77-.07-14,0-1.6,0-2.83,0-3.68s0-1.28,0-1.28,0,.4,0,1.22,0,2.05,0,3.63c0,3.23,0,7.93-.07,14,0,12.14-.08,29.57-.14,50.82V460h.27l105.19.06h.33v-.33h0c0-24.77,0-48.34,0-69.61v-.31h-.31l-75.92.14-21.61.09-5.72,0-1.46,0Z" style="fill:#e0e0e0"></path><path d="M415.85,378.34a11.52,11.52,0,0,0-2.3,1.49c-1.38,1-3.25,2.4-5.27,4s-3.8,3.15-5,4.29a10.84,10.84,0,0,0-1.92,2c.13.14,3.35-2.52,7.39-5.74S416,378.49,415.85,378.34Z" style="fill:#e0e0e0"></path><path d="M281.57,378.6c-.11.14,3.05,2.84,7.07,6s7.36,5.64,7.48,5.5-3.05-2.84-7.07-6S281.69,378.46,281.57,378.6Z" style="fill:#e0e0e0"></path><path d="M281.68,471.26l15-12.14" style="fill:#fff"></path><path d="M296.65,459.12c-.12-.14-3.56,2.46-7.69,5.81s-7.4,6.18-7.28,6.33,3.56-2.46,7.69-5.81S296.77,459.26,296.65,459.12Z" style="fill:#e0e0e0"></path><path d="M415.85,471.24c.12-.14-3-2.81-7-5.95s-7.29-5.58-7.4-5.43,3,2.81,7,5.95S415.74,471.39,415.85,471.24Z" style="fill:#e0e0e0"></path><polygon points="376.81 444.38 376.81 427.87 346.32 406.55 315.84 428.32 315.84 444.38 376.81 444.38" style="fill:#ebebeb"></polygon><path d="M376.09,427.7s-13.48-.08-30.11-.08-30.1,0-30.1.08,13.47.08,30.1.08S376.09,427.74,376.09,427.7Z" style="fill:#f5f5f5"></path><g style="opacity:0.2"><polygon points="338.87 430.27 338.87 444.35 332.31 444.35 332.31 430.56 332.31 430.27 338.87 430.27"></polygon></g><g style="opacity:0.2"><path d="M347.07,406l-31,21.6v3.22l30.48-21.23s30.2,18.25,30.49,18.26Z"></path></g><path d="M352.21,444.41s0-7.42,0-16.57,0-16.58,0-16.58,0,7.42,0,16.58S352.19,444.41,352.21,444.41Z" style="fill:#f5f5f5"></path><path d="M350.11,444.35s0-7.78,0-17.37,0-17.37,0-17.37,0,7.78,0,17.37S350.09,444.35,350.11,444.35Z" style="fill:#f5f5f5"></path><path d="M348.07,444.35s0-8.09,0-18.07,0-18.07,0-18.07,0,8.09,0,18.07S348.05,444.35,348.07,444.35Z" style="fill:#f5f5f5"></path><path d="M346,444.35s0-8.37,0-18.69,0-18.69,0-18.69,0,8.37,0,18.69S346,444.35,346,444.35Z" style="fill:#f5f5f5"></path><path d="M344,444.35s0-8,0-17.89,0-17.89,0-17.89,0,8,0,17.89S344,444.35,344,444.35Z" style="fill:#f5f5f5"></path><path d="M342,444.35s0-7.78,0-17.37,0-17.37,0-17.37,0,7.78,0,17.37S342,444.35,342,444.35Z" style="fill:#f5f5f5"></path><path d="M339.93,444.35s0-7.41,0-16.54,0-16.55,0-16.55,0,7.41,0,16.55S339.91,444.35,339.93,444.35Z" style="fill:#f5f5f5"></path><path d="M337.89,444.35s0-7.06,0-15.77,0-15.78,0-15.78,0,7.06,0,15.78S337.87,444.35,337.89,444.35Z" style="fill:#f5f5f5"></path><path d="M335.86,444.35s0-6.72,0-15,0-15,0-15,0,6.72,0,15S335.84,444.35,335.86,444.35Z" style="fill:#f5f5f5"></path><path d="M333.82,444.35s0-6.55,0-14.62,0-14.63,0-14.63,0,6.55,0,14.63S333.8,444.35,333.82,444.35Z" style="fill:#f5f5f5"></path><path d="M331.78,444.35s0-6.25,0-14,0-14,0-14,0,6.25,0,14S331.77,444.35,331.78,444.35Z" style="fill:#f5f5f5"></path><path d="M329.75,444.35s0-6.05,0-13.51,0-13.52,0-13.52,0,6.05,0,13.52S329.73,444.35,329.75,444.35Z" style="fill:#f5f5f5"></path><path d="M354.17,444.21s0-7.12,0-15.9,0-15.9,0-15.9,0,7.12,0,15.9S354.15,444.21,354.17,444.21Z" style="fill:#f5f5f5"></path><path d="M356.06,413.29s0,7,0,15.54,0,15.55,0,15.55,0-7,0-15.55S356.07,413.29,356.06,413.29Z" style="fill:#f5f5f5"></path><path d="M358,444.38s0-6.77,0-15.11,0-15.1,0-15.1,0,6.76,0,15.1S357.93,444.38,358,444.38Z" style="fill:#f5f5f5"></path><path d="M359.84,444.46s0-6.58,0-14.7,0-14.72,0-14.72,0,6.59,0,14.72S359.82,444.46,359.84,444.46Z" style="fill:#f5f5f5"></path><path d="M361.73,444.38s0-6.37,0-14.23,0-14.23,0-14.23,0,6.37,0,14.23S361.71,444.38,361.73,444.38Z" style="fill:#f5f5f5"></path><path d="M363.62,444.38s0-6.18,0-13.79,0-13.79,0-13.79,0,6.17,0,13.79S363.6,444.38,363.62,444.38Z" style="fill:#f5f5f5"></path><path d="M373.23,425.15s0,4.25,0,9.49,0,9.5,0,9.5,0-4.25,0-9.5S373.24,425.15,373.23,425.15Z" style="fill:#f5f5f5"></path><path d="M375,425.15s0,4.25,0,9.49,0,9.5,0,9.5,0-4.25,0-9.5S375,425.15,375,425.15Z" style="fill:#f5f5f5"></path><path d="M367.47,444.18s0-5.08,0-11.34,0-11.34,0-11.34,0,5.08,0,11.34S367.45,444.18,367.47,444.18Z" style="fill:#f5f5f5"></path><path d="M365.48,444.3s.07-5.33.11-11.9.07-11.91.05-11.91-.07,5.33-.11,11.91S365.46,444.3,365.48,444.3Z" style="fill:#f5f5f5"></path><path d="M369.49,444.26s0-4.74,0-10.59,0-10.59,0-10.59,0,4.74,0,10.59S369.48,444.26,369.49,444.26Z" style="fill:#f5f5f5"></path><path d="M371.36,444.18s0-4.43,0-9.9,0-9.9,0-9.9,0,4.43,0,9.9S371.34,444.18,371.36,444.18Z" style="fill:#f5f5f5"></path><path d="M327.77,444.38s0-5.67,0-12.65,0-12.65,0-12.65,0,5.67,0,12.65S327.76,444.38,327.77,444.38Z" style="fill:#f5f5f5"></path><path d="M325.68,444.34s0-5.27,0-11.77,0-11.76,0-11.76,0,5.27,0,11.76S325.66,444.34,325.68,444.34Z" style="fill:#f5f5f5"></path><path d="M323.83,444.38s0-5,0-11.17,0-11.16,0-11.16,0,5,0,11.16S323.81,444.38,323.83,444.38Z" style="fill:#f5f5f5"></path><path d="M321.57,444.46s0-4.78,0-10.68,0-10.69,0-10.69,0,4.79,0,10.69S321.55,444.46,321.57,444.46Z" style="fill:#f5f5f5"></path><path d="M319.17,444.46s0-4.35,0-9.71,0-9.72,0-9.72,0,4.35,0,9.72S319.15,444.46,319.17,444.46Z" style="fill:#f5f5f5"></path><path d="M316.88,444.46s0-4,0-8.89,0-8.9,0-8.9,0,4,0,8.9S316.87,444.46,316.88,444.46Z" style="fill:#f5f5f5"></path><polygon points="314.92 429.14 346.26 406.98 378.61 429.14 379.38 427.92 346.54 404.92 314.12 428.25 314.92 429.14" style="fill:#e0e0e0"></polygon><polyline points="340.3 430.27 340.4 444.41 352.28 444.41 352.34 430.27" style="fill:#f5f5f5"></polyline><polyline points="352.34 430.27 358.91 430.27 358.91 444.35 352.34 444.35 352.34 430.56" style="fill:#e0e0e0"></polyline><path d="M352.34,430.56v.26c0,.18,0,.44,0,.76,0,.68,0,1.64,0,2.86,0,2.45,0,5.89,0,9.91v.07H359v-.22c0-5.4,0-10.31,0-13.94v-.06h0l-4.8,0h0l4.8,0-.06-.06c0,3.63,0,8.54,0,13.94v.14l.08-.08h-6.57l.08.07c0-4,0-7.46,0-9.91,0-1.22,0-2.18,0-2.86,0-.32,0-.58,0-.76v-.19C352.35,430.58,352.35,430.56,352.34,430.56Z" style="fill:#e0e0e0"></path><polygon points="340.3 430.27 340.3 444.35 333.74 444.35 333.74 430.56 333.74 430.27 340.3 430.27" style="fill:#e0e0e0"></polygon><path d="M340.3,430.27h-.44l-1.3,0-4.82,0h-.06v.06c0,3.66,0,8.62,0,14.08l.08.08h6.64v-.07c0-4.1,0-7.63,0-10.14,0-1.24,0-2.22,0-2.91,0-.33,0-.59,0-.77v-.2a.15.15,0,0,0,0-.06v.07a1.7,1.7,0,0,1,0,.21c0,.19,0,.45,0,.78,0,.69,0,1.69,0,2.93,0,2.5,0,6,0,10.09l.07-.07h-6.56l.08.08c0-5.46,0-10.42,0-14.08l-.06.06,4.78,0,1.32,0h.46Z" style="fill:#e0e0e0"></path><rect x="343.43" y="413.52" width="5.22" height="6.94" transform="translate(692.07 833.98) rotate(180)" style="fill:#f5f5f5"></rect><path d="M346,420.43c.05,0,.08-1.54.08-3.45s0-3.46-.08-3.46-.07,1.55-.07,3.46S346,420.43,346,420.43Z" style="fill:#e0e0e0"></path><path d="M343.4,416.86a43.44,43.44,0,0,0,5.27,0,43.44,43.44,0,0,0-5.27,0Z" style="fill:#e0e0e0"></path><path d="M306,444.38c0,.13,17.4.25,38.86.25s38.87-.12,38.87-.25-17.4-.25-38.87-.25S306,444.24,306,444.38Z" style="fill:#e0e0e0"></path><rect x="195.21" y="361.6" width="5.09" height="109.51" transform="translate(395.51 832.72) rotate(180)" style="fill:#e0e0e0"></rect><rect x="201.07" y="362.45" width="73.11" height="108.81" rx="0.07" style="fill:#f5f5f5"></rect><path d="M200.23,472V361.68a.08.08,0,0,1,.07-.08H275a.08.08,0,0,1,.07.08V472a.07.07,0,0,1-.07.07H200.3A.07.07,0,0,1,200.23,472Zm73.11-1.7v-107a.08.08,0,0,0-.08-.07H202a.07.07,0,0,0-.07.07v107a.08.08,0,0,0,.07.08h71.27A.09.09,0,0,0,273.34,470.34Z" style="fill:#ebebeb"></path><rect x="208.31" y="369.16" width="58.52" height="95.32" rx="0.07" style="fill:#fafafa"></rect><rect x="221.2" y="396.19" width="32.86" height="38.51" rx="0.06" transform="translate(475.26 830.88) rotate(180)" style="fill:#ebebeb"></rect><path d="M223.8,430c0,.13,1.58.84,4.67.47a11.36,11.36,0,0,0,5.24-2.09,10.64,10.64,0,0,0,4.07-6.41,9.22,9.22,0,0,0-3.11-8.76,8.2,8.2,0,0,0-2.37-1.38,6.15,6.15,0,0,0-3-.34,5.22,5.22,0,0,0-3,1.29,3.84,3.84,0,0,0-1.16,3.44,5.58,5.58,0,0,0,1.62,2.95,10.73,10.73,0,0,0,2.48,1.83,13.58,13.58,0,0,0,5.9,1.68,11.73,11.73,0,0,0,6.29-1.43,11.41,11.41,0,0,0,4.63-4.8,9.8,9.8,0,0,0,.84-6.72,10,10,0,0,0-3.55-5.54,8.76,8.76,0,0,0-3-1.5,7.39,7.39,0,0,0-3.34-.1,5.44,5.44,0,0,0-3,1.71,5.05,5.05,0,0,0-1.19,3.24,6.2,6.2,0,0,0,.79,3.09,8.17,8.17,0,0,0,1.88,2.25,12.52,12.52,0,0,0,4.65,2.48,12.08,12.08,0,0,0,4.9.38,10.15,10.15,0,0,0,4.26-1.64,9.23,9.23,0,0,0,4.07-6.44,7.82,7.82,0,0,0-1.51-5.53,6.59,6.59,0,0,0-2.79-2.23c-.77-.29-1.2-.28-1.22-.21s.35.28,1,.69a7.29,7.29,0,0,1,2.17,2.33,6.93,6.93,0,0,1,.89,4.72,7.75,7.75,0,0,1-3.62,5.07,8.9,8.9,0,0,1-7.47.71,10.43,10.43,0,0,1-3.73-2.11,4.57,4.57,0,0,1-1.75-3.5,2.53,2.53,0,0,1,2.25-2.49,4.77,4.77,0,0,1,2.15.11,6,6,0,0,1,2,1.06,7.37,7.37,0,0,1,2.56,4.07,7.06,7.06,0,0,1-.63,4.88,8.88,8.88,0,0,1-3.53,3.68,9.26,9.26,0,0,1-4.87,1.13,11.08,11.08,0,0,1-4.78-1.31,8.41,8.41,0,0,1-1.91-1.34,3.26,3.26,0,0,1-1-1.58,1.38,1.38,0,0,1,.4-1.27,2.89,2.89,0,0,1,1.58-.7,3.88,3.88,0,0,1,1.86.16,5.9,5.9,0,0,1,1.74.95,7.23,7.23,0,0,1,2.26,3.12,7.13,7.13,0,0,1,.38,3.58,9.27,9.27,0,0,1-3.13,5.55,11.14,11.14,0,0,1-4.5,2.24C225.49,430.07,223.82,429.75,223.8,430Z" style="fill:#e0e0e0"></path><rect x="223.77" y="302.53" width="102.51" height="169.68" transform="translate(550.06 774.74) rotate(180)" style="fill:#e0e0e0"></rect><rect x="227.18" y="302.53" width="102.51" height="169.68" transform="translate(556.88 774.74) rotate(180)" style="fill:#ebebeb"></rect><rect x="231.55" y="305.97" width="93.78" height="162.8" transform="translate(556.88 774.74) rotate(180)" style="fill:#fafafa"></rect><rect x="249.81" y="327.12" width="57.67" height="120.49" transform="translate(557.28 774.74) rotate(180)" style="fill:#ebebeb"></rect><path d="M307.47,405c.14-11.26-10-22.25-21.13-23.82-5.31-.75-11,.31-15.93-1.73-8.86-3.63-11.68-15.41-20.6-18.9l-.41,87.08h58.07Z" style="fill:#e0e0e0"></path><path d="M319.64,300.6c-2.42-5.39-8.75-17.51-8.75-17.51l13.23-4.2,2.53,2.94v-4.41h8.4l.48,19.69a3.28,3.28,0,0,1-2.58,3.27l-9.65,2.08A3.25,3.25,0,0,1,319.64,300.6Z" style="fill:#e0e0e0"></path><path d="M327,297.37c0,1.05,4.1,26.68,4.1,26.68h3.68l-5.26-26.68Z" style="fill:#e0e0e0"></path><path d="M338.82,294.45l-3.77,29.6h4l3.64-29.11a2,2,0,0,0-1.93-2.19h0A2,2,0,0,0,338.82,294.45Z" style="fill:#e0e0e0"></path><polygon points="343.03 357.26 322 357.26 319.5 322.25 345.76 322.25 343.03 357.26" style="fill:#e0e0e0"></polygon><path d="M65.45,410.52s0-.3,0-.9a10.6,10.6,0,0,1,.09-1.12A11.58,11.58,0,0,1,65.8,407a15.06,15.06,0,0,1,1.44-4.09,18.61,18.61,0,0,1,3.62-4.68,59.22,59.22,0,0,1,5.73-4.7,47.6,47.6,0,0,0,6.59-5.78,21.52,21.52,0,0,0,4.87-8.7c.5-1.72,1-3.48,1.53-5.3s.75-3.75,1.15-5.69a114.11,114.11,0,0,0,1-25.9c-.57-9.33-2-19.23-3.47-29.64-.72-5.21-1.46-10.55-2-16-.33-2.73-.48-5.51-.74-8.31-.07-1.41-.13-2.82-.2-4.24s-.15-2.84-.12-4.28c0-2.86,0-5.76.13-8.67a65.55,65.55,0,0,0-.08-8.75,22,22,0,0,0-2.33-8.45,15.38,15.38,0,0,0-6.09-6.32c-2.58-1.39-5.86-1.81-8.42-.33A9.24,9.24,0,0,0,63.72,254a5.61,5.61,0,0,0,1.08,4,6.06,6.06,0,0,0,3.46,2.25,9.52,9.52,0,0,0,7.95-1.79,17.79,17.79,0,0,0,5-6.63A39,39,0,0,0,82.84,248c.48-1.3,1-2.58,1.38-3.9a86.3,86.3,0,0,0,3.46-15.71,119.17,119.17,0,0,0-.26-29.73,202.53,202.53,0,0,0-5-25.49c-2-7.7-4-14.6-5.8-20.67s-3.33-11.28-4.52-15.57S70,129.31,69.43,127c-.27-1.13-.48-2-.62-2.59s-.19-.89-.19-.89.09.3.24.88.38,1.45.67,2.57c.6,2.27,1.5,5.6,2.73,9.88s2.79,9.49,4.61,15.54,3.87,12.95,5.88,20.66a201.87,201.87,0,0,1,5.1,25.52,119.09,119.09,0,0,1,.3,29.85,85.73,85.73,0,0,1-3.46,15.8c-.39,1.33-.9,2.62-1.39,3.93a40.78,40.78,0,0,1-1.62,3.88,18.39,18.39,0,0,1-5.16,6.82,10.05,10.05,0,0,1-8.39,1.88,6.65,6.65,0,0,1-3.74-2.44A6.1,6.1,0,0,1,63.2,254a9.73,9.73,0,0,1,4.92-7.35,7.89,7.89,0,0,1,4.49-1A11,11,0,0,1,77,247a16,16,0,0,1,6.3,6.53,22.6,22.6,0,0,1,2.39,8.65A66.65,66.65,0,0,1,85.8,271c-.15,2.91-.13,5.79-.13,8.65,0,1.42,0,2.85.11,4.26s.14,2.82.2,4.22c.26,2.8.41,5.57.74,8.3.56,5.47,1.29,10.81,2,16,1.44,10.42,2.87,20.33,3.42,29.68a113.57,113.57,0,0,1-1.06,26l-1.17,5.72-1.55,5.31a22,22,0,0,1-5,8.79,46.49,46.49,0,0,1-6.66,5.78A62.86,62.86,0,0,0,71,398.34,18.55,18.55,0,0,0,67.38,403a15.3,15.3,0,0,0-1.48,4,13.87,13.87,0,0,0-.26,1.52,9,9,0,0,0-.11,1.11C65.48,410.22,65.45,410.52,65.45,410.52Z" style="fill:#f5f5f5"></path><polyline points="79.51 100.62 72.24 103.52 59.35 100.7 59.77 93.39 79.99 100.79" style="fill:#e0e0e0"></polyline><polygon points="114.63 52.51 93.26 105.4 58.56 93.34 78.24 40.24 114.63 52.51" style="fill:#e0e0e0"></polygon><path d="M109.13,55.26l-.49-.13-1.38-.4L102,53.16l-19-5.75.24-.11c-4.8,11.79-11.07,27.19-17.93,44L65.21,91l.73.25,25.71,8.86-.31.14c5.17-13.13,9.58-24.35,12.72-32.31,1.57-4,2.83-7.11,3.7-9.3.42-1.07.76-1.9,1-2.49l.26-.65a.9.9,0,0,1,.11-.22s0,.07-.07.21l-.23.63-.93,2.46c-.83,2.19-2,5.34-3.55,9.3-3.1,8-7.45,19.32-12.56,32.55l-.08.22-.22-.08L65.77,91.72,65,91.47l-.26-.09.1-.26,18-44L83,47l.17.05,19,6,5.16,1.65,1.33.43Z" style="fill:#f5f5f5"></path><polygon points="81.41 65.2 88.39 67.11 109.13 55.26 83.11 47.22 65.12 91.22 91.57 100.32 82.68 78.74 76.76 75.78 81.41 65.2" style="fill:#f5f5f5"></polygon><circle cx="65.75" cy="104.87" r="7.64" transform="translate(-55.96 127.4) rotate(-68.4)" style="fill:#e0e0e0"></circle><rect x="63.61" y="106.38" width="3.03" height="305.3" transform="translate(130.25 518.06) rotate(180)" style="fill:#e0e0e0"></rect><rect x="58.45" y="118.75" width="12.92" height="6.2" transform="translate(129.83 243.69) rotate(180)" style="fill:#e0e0e0"></rect><rect x="61.1" y="406.17" width="8.71" height="8.71" transform="translate(130.9 821.05) rotate(180)" style="fill:#e0e0e0"></rect><rect x="86.1" y="404.35" width="3" height="72.93" transform="translate(-230.52 123.34) rotate(-33.82)" style="fill:#e0e0e0"></rect><rect x="6.41" y="440.36" width="72.14" height="3" transform="translate(-346.55 228.08) rotate(-55.72)" style="fill:#e0e0e0"></rect><rect x="69.01" y="410.94" width="3" height="61.84" transform="translate(-82.78 21.49) rotate(-10.97)" style="fill:#e0e0e0"></rect><path d="M78.24,40.24a17.71,17.71,0,0,1,2.64,3.35,17.42,17.42,0,0,1,2.2,3.64,18.41,18.41,0,0,1-2.63-3.35A17,17,0,0,1,78.24,40.24Z" style="fill:#f5f5f5"></path><path d="M91.53,100.33a7.38,7.38,0,0,1,1.12,2.46,6.92,6.92,0,0,1,.63,2.62A7.19,7.19,0,0,1,92.16,103,6.91,6.91,0,0,1,91.53,100.33Z" style="fill:#f5f5f5"></path><path d="M58.61,93.24a9.62,9.62,0,0,1,3.15-1.36,9.57,9.57,0,0,1,3.37-.66,14.55,14.55,0,0,1-3.21,1.16A13.49,13.49,0,0,1,58.61,93.24Z" style="fill:#f5f5f5"></path><path d="M58.92,93.24c0-.13,7.83,2.51,17.38,5.91s17.27,6.27,17.22,6.4S85.69,103,76.13,99.64,58.87,93.38,58.92,93.24Z" style="fill:#f5f5f5"></path><path d="M72.14,102.91c-.07,0-.44-.67-1.32-1.57a8,8,0,0,0-8.93-1.81c-1.16.48-1.77,1-1.83.93a4,4,0,0,1,1.68-1.26,7.73,7.73,0,0,1,9.35,1.89A4.12,4.12,0,0,1,72.14,102.91Z" style="fill:#f5f5f5"></path><path d="M119.91,118.58c-.12.09-3.8-4.46-8.24-10.17s-7.94-10.4-7.83-10.49,3.8,4.46,8.24,10.17S120,118.5,119.91,118.58Z" style="fill:#e0e0e0"></path><path d="M156.59,103.91c-.07.13-10.33-4.69-22.94-10.77S110.88,82,111,81.9s10.32,4.69,22.93,10.77S156.65,103.78,156.59,103.91Z" style="fill:#e0e0e0"></path><path d="M154,67.9c0,.15-7.66.22-17.12.18s-17.11-.21-17.11-.35,7.66-.22,17.12-.17S154,67.76,154,67.9Z" style="fill:#e0e0e0"></path></g><g id="background-simple"><path d="M467.45,239.15l-1-1.65c-8.43-13.88-23.67-22.25-39.73-21.24a41.17,41.17,0,0,0-6.15.85A45.71,45.71,0,0,0,388,245.42c-3.09,8.32-4,17.9-9.84,24.51-7.65,8.59-20.64,8.86-32.06,8.5s-24.42-.05-32,8.58c-4.77,5.4-6.28,13.09-5.9,20.32,1,19.16,14.37,36.29,31.35,44.81s37,9.28,55.55,5.53c26-5.25,50.79-19.66,65.67-41.91S479.35,263.18,467.45,239.15Z" style="fill:#f5f5f5"></path><path d="M78,150.39l1,.92a29.69,29.69,0,0,0,34.53,5.07,31.79,31.79,0,0,0,16.51-25c.52-6.15-.69-12.72,2-18.24,3.51-7.19,12.16-9.8,19.87-11.7s16.35-4.53,19.84-11.73c2.18-4.51,1.76-9.94.14-14.71-4.26-12.63-16.4-21.6-29.36-24.13s-26.48.71-38.22,6.69C87.84,65.89,74,80.17,68.17,97.85S65.52,136.54,78,150.39Z" style="fill:#f5f5f5"></path><circle cx="91.36" cy="206.91" r="15.86" transform="translate(-130.56 250.62) rotate(-77.32)" style="fill:#f5f5f5"></circle><circle cx="420.6" cy="158.69" r="29.19" style="fill:#f5f5f5"></circle></g><g id="Plant"><path d="M55.25,450.86a2,2,0,0,1,.15-.36l.48-1a25.17,25.17,0,0,0,1.43-4.15,36.48,36.48,0,0,0-.12-16,85.26,85.26,0,0,0-3-10.77c-1.26-3.82-2.72-7.88-3.92-12.26a47.43,47.43,0,0,1-1.93-14.09c.18-5,1.66-10,3.28-14.91s3.3-9.81,3.8-14.69A22.4,22.4,0,0,0,52.76,349c-2.15-4-4.86-7.35-6.88-10.85a37.85,37.85,0,0,1-4.13-10.43,38.85,38.85,0,0,1-.26-16.16,30.9,30.9,0,0,1,1.68-5.71,1.88,1.88,0,0,1-.09.38c-.09.27-.2.63-.35,1.09a43,43,0,0,0-1,4.28,39.25,39.25,0,0,0,.41,16,37.59,37.59,0,0,0,4.15,10.3c2,3.46,4.73,6.84,6.92,10.84A22.77,22.77,0,0,1,56,362.62c-.5,5-2.19,9.84-3.81,14.8s-3.08,9.87-3.26,14.77a47,47,0,0,0,1.88,13.95c1.18,4.36,2.62,8.41,3.86,12.25a85,85,0,0,1,2.93,10.83,36.26,36.26,0,0,1,0,16.14A25.14,25.14,0,0,1,56,449.51l-.54,1A3.32,3.32,0,0,1,55.25,450.86Z" style="fill:#263238"></path><path d="M48.63,341.61s-4.11-13.13,3.26-20.82a.46.46,0,0,1,.78.23C53.06,323.18,53.56,329.79,48.63,341.61Z" style="fill:#FF725E"></path><path d="M51.09,325.17a12.18,12.18,0,0,1-.28,2.42c-.27,1.67-.58,3.63-.93,5.79s-.66,4.13-.92,5.8a12.72,12.72,0,0,1-.44,2.39,10.4,10.4,0,0,1,.08-2.44c.13-1.5.4-3.56.77-5.83s.76-4.31,1.09-5.78A10.77,10.77,0,0,1,51.09,325.17Z" style="fill:#263238"></path><path d="M53.45,372.59S56,359.06,66.07,355.71a.46.46,0,0,1,.59.56C66,358.38,63.34,364.45,53.45,372.59Z" style="fill:#FF725E"></path><path d="M63.32,359.2a11.41,11.41,0,0,1-1.38,2l-3.53,4.68-3.53,4.69a12.33,12.33,0,0,1-1.5,1.91,10.45,10.45,0,0,1,1.21-2.12c.82-1.26,2-3,3.41-4.79s2.69-3.45,3.66-4.6A11.67,11.67,0,0,1,63.32,359.2Z" style="fill:#263238"></path><path d="M50.72,406.53s-1.52-13.67,7.18-19.81a.45.45,0,0,1,.72.37C58.59,389.29,57.81,395.87,50.72,406.53Z" style="fill:#FF725E"></path><path d="M56.28,390.86a12.66,12.66,0,0,1-.74,2.32c-.58,1.59-1.27,3.45-2,5.51l-2,5.51a13,13,0,0,1-.88,2.27,10,10,0,0,1,.53-2.38c.42-1.45,1.08-3.42,1.87-5.58s1.58-4.08,2.17-5.46A10.6,10.6,0,0,1,56.28,390.86Z" style="fill:#263238"></path><path d="M58.34,440.68s-1-13.73,7.88-19.55a.45.45,0,0,1,.71.39C66.82,423.72,65.81,430.27,58.34,440.68Z" style="fill:#FF725E"></path><path d="M64.45,425.21a12.68,12.68,0,0,1-.82,2.3l-2.22,5.43-2.2,5.43a13.69,13.69,0,0,1-1,2.24,10.61,10.61,0,0,1,.63-2.36c.47-1.43,1.19-3.38,2.06-5.51s1.72-4,2.37-5.38A10.26,10.26,0,0,1,64.45,425.21Z" style="fill:#263238"></path><path d="M42.73,330.08s-12.2-6.38-12.44-17a.46.46,0,0,1,.71-.4C32.81,313.92,37.84,318.24,42.73,330.08Z" style="fill:#FF725E"></path><path d="M32.82,316.72a11.75,11.75,0,0,1,1.52,1.9l3.44,4.76,3.45,4.74a13.23,13.23,0,0,1,1.39,2A9.66,9.66,0,0,1,41,328.35c-1-1.16-2.25-2.81-3.59-4.67s-2.5-3.59-3.32-4.85A11.76,11.76,0,0,1,32.82,316.72Z" style="fill:#263238"></path><path d="M55.83,358.28s-12.57-5.62-13.45-16.23a.45.45,0,0,1,.68-.43C45,342.76,50.23,346.76,55.83,358.28Z" style="fill:#FF725E"></path><path d="M45.13,345.55a11.66,11.66,0,0,1,1.63,1.81l3.72,4.54,3.73,4.52a12.38,12.38,0,0,1,1.51,1.91,9.71,9.71,0,0,1-1.78-1.67c-1-1.09-2.41-2.66-3.86-4.44s-2.72-3.42-3.61-4.64A10.5,10.5,0,0,1,45.13,345.55Z" style="fill:#263238"></path><path d="M48.6,389.75S40,379,44,369.17a.45.45,0,0,1,.81-.07C46,371,48.86,376.94,48.6,389.75Z" style="fill:#FF725E"></path><path d="M44.87,373.54a11.79,11.79,0,0,1,.63,2.35l1.25,5.74c.47,2.14.9,4.08,1.26,5.73a13.48,13.48,0,0,1,.47,2.39,10.41,10.41,0,0,1-.82-2.3c-.43-1.45-.93-3.47-1.42-5.71s-.86-4.29-1.1-5.78A10.77,10.77,0,0,1,44.87,373.54Z" style="fill:#263238"></path><path d="M57.14,426.77S44.67,420.94,44,410.32a.45.45,0,0,1,.69-.43C46.53,411.06,51.74,415.16,57.14,426.77Z" style="fill:#FF725E"></path><path d="M46.66,413.86a12.09,12.09,0,0,1,1.6,1.84l3.65,4.6,3.65,4.58A14.58,14.58,0,0,1,57,426.82a9.84,9.84,0,0,1-1.76-1.7c-1-1.11-2.36-2.7-3.78-4.5s-2.66-3.47-3.53-4.7A10.73,10.73,0,0,1,46.66,413.86Z" style="fill:#263238"></path><path d="M82,372.67a1,1,0,0,1,0,.3c0,.24,0,.53,0,.88q-.06,1.25-.15,3.33c-.16,2.94-.39,7-.66,11.92h0v0c-.89,5-3.42,10.5-6.83,15.86-2.5,3.94-5.12,7.53-7.38,10.87A78.13,78.13,0,0,0,61.42,425a39,39,0,0,0-2.59,6.71c-.22.83-.38,1.47-.48,1.91a3.36,3.36,0,0,1-.18.66,3.2,3.2,0,0,1,.08-.69c.06-.44.2-1.09.39-1.93a35.72,35.72,0,0,1,2.45-6.81,72.73,72.73,0,0,1,5.47-9.25c2.24-3.37,4.85-7,7.33-10.89,3.39-5.33,5.91-10.76,6.84-15.66v0c.35-4.88.63-9,.84-11.9.11-1.39.2-2.51.27-3.33,0-.35.06-.64.09-.88A.9.9,0,0,1,82,372.67Z" style="fill:#263238"></path><path d="M74.55,404s5.28-12.71-1.36-21a.46.46,0,0,0-.8.15C71.8,385.21,70.71,391.74,74.55,404Z" style="fill:#FF725E"></path><path d="M73.59,387.36a11.14,11.14,0,0,1,.42,2.4c.18,1.5.39,3.57.56,5.86s.24,4.37.24,5.87a10.32,10.32,0,0,1-.15,2.44,12.53,12.53,0,0,1-.22-2.43c-.11-1.68-.24-3.66-.39-5.85s-.29-4.17-.41-5.85A12.15,12.15,0,0,1,73.59,387.36Z" style="fill:#263238"></path><g style="opacity:0.30000000000000004"><path d="M74.55,404s5.28-12.71-1.36-21a.46.46,0,0,0-.8.15C71.8,385.21,70.71,391.74,74.55,404Z"></path></g><path d="M58.2,434.59s4.23-13.1-3.07-20.86a.45.45,0,0,0-.78.22C53.94,416.12,53.38,422.72,58.2,434.59Z" style="fill:#FF725E"></path><path d="M55.89,418.12a10.42,10.42,0,0,1,.61,2.36c.31,1.47.69,3.52,1,5.79s.59,4.33.71,5.83a10,10,0,0,1,0,2.45,14.09,14.09,0,0,1-.41-2.4L57,426.34c-.33-2.16-.63-4.13-.88-5.8A12,12,0,0,1,55.89,418.12Z" style="fill:#263238"></path><g style="opacity:0.30000000000000004"><path d="M58.2,434.59s4.23-13.1-3.07-20.86a.45.45,0,0,0-.78.22C53.94,416.12,53.38,422.72,58.2,434.59Z"></path></g><path d="M81.27,388.43S92.55,380.54,91.41,370a.46.46,0,0,0-.76-.3C89,371.13,84.59,376.06,81.27,388.43Z" style="fill:#FF725E"></path><path d="M89.37,373.9a10.67,10.67,0,0,1-.94,2.26c-.64,1.36-1.57,3.22-2.67,5.24s-2.14,3.82-2.94,5.09a9.82,9.82,0,0,1-1.44,2,13.37,13.37,0,0,1,1.12-2.16l2.81-5.15,2.8-5.16A12.43,12.43,0,0,1,89.37,373.9Z" style="fill:#263238"></path><path d="M62.74,421.61s13.6-2.12,17.24-12.13a.45.45,0,0,0-.55-.6C77.31,409.48,71.17,412,62.74,421.61Z" style="fill:#FF725E"></path><path d="M76.41,412.13a11.33,11.33,0,0,1-1.83,1.61c-1.18.94-2.84,2.19-4.71,3.53s-3.6,2.48-4.89,3.27a10,10,0,0,1-2.15,1.14,13.4,13.4,0,0,1,2-1.45l4.79-3.38,4.79-3.4A12.11,12.11,0,0,1,76.41,412.13Z" style="fill:#263238"></path><polygon points="46.65 446.63 50.55 472.21 66.13 472.18 71.38 446.63 46.65 446.63" style="fill:#455a64"></polygon><path d="M69.09,456.5s0,0-.13.09a3,3,0,0,1-.41.24,5.76,5.76,0,0,1-1.74.52,6.58,6.58,0,0,1-2.86-.27,6,6,0,0,1-3.08-2.24,4.27,4.27,0,0,1-.72-2.14,2.35,2.35,0,0,1,1.05-2.2,2.52,2.52,0,0,1,2.61.22,3.85,3.85,0,0,1,1.5,2.35A10.28,10.28,0,0,1,65.5,456a9.62,9.62,0,0,1-.63,3,6.67,6.67,0,0,1-1.81,2.58,5.13,5.13,0,0,1-3,1.25,5.43,5.43,0,0,1-3.11-.91,9.37,9.37,0,0,1-2.33-2.1,5.11,5.11,0,0,1-1.18-2.81,3.25,3.25,0,0,1,1.11-2.71,2.53,2.53,0,0,1,2.76-.17,2.93,2.93,0,0,1,1.59,2.09,4,4,0,0,1-2,4.05,5.57,5.57,0,0,1-3.76.54,8.65,8.65,0,0,1-2.68-1.05,13.24,13.24,0,0,1-1.5-1,3,3,0,0,1-.48-.4,2.61,2.61,0,0,1,.53.33c.34.23.85.57,1.53.95a8.7,8.7,0,0,0,2.64,1,5.31,5.31,0,0,0,3.57-.56,3.71,3.71,0,0,0,1.77-3.73,2.55,2.55,0,0,0-1.41-1.81,2.14,2.14,0,0,0-2.35.14,2.88,2.88,0,0,0-.94,2.38,4.72,4.72,0,0,0,1.1,2.57,8.67,8.67,0,0,0,2.22,2,5.07,5.07,0,0,0,2.87.84,4.68,4.68,0,0,0,2.75-1.15,6.08,6.08,0,0,0,1.69-2.41,9,9,0,0,0,.61-2.82,9.4,9.4,0,0,0-.17-2.77A3.43,3.43,0,0,0,63.6,451a2.14,2.14,0,0,0-2.22-.22,2,2,0,0,0-.9,1.88,4.08,4.08,0,0,0,.64,2,5.83,5.83,0,0,0,2.9,2.17,6.3,6.3,0,0,0,2.77.33A7.31,7.31,0,0,0,69.09,456.5Z" style="fill:#263238"></path></g><g id="Painting"><rect x="221.31" y="69.46" width="141.64" height="183.67" style="fill:#FF725E"></rect><g style="opacity:0.2"><path d="M231,208.86a1.16,1.16,0,0,1,.71.1,2.28,2.28,0,0,1,1.24,1.61,2.19,2.19,0,0,1-.2,1.5,2.58,2.58,0,0,1-1.37,1.17,2.62,2.62,0,0,1-2.07-.06,3.5,3.5,0,0,1-1.63-1.66,5.25,5.25,0,0,1,.54-5.11,5.42,5.42,0,0,1,2.17-2,3.12,3.12,0,0,1,3.13.18,5.5,5.5,0,0,1,2,2.65,11.74,11.74,0,0,1,.68,3.34,12.42,12.42,0,0,1-1.64,6.89,43.59,43.59,0,0,1-4.24,5.65,16.68,16.68,0,0,0-3.21,5.55,7.75,7.75,0,0,0,.36,5.6,4.44,4.44,0,0,0,4,2.46,3.59,3.59,0,0,0,2-.64,2.73,2.73,0,0,0,1.06-1.52,3.74,3.74,0,0,0-.53-3,2.5,2.5,0,0,0-1.55-1.14c-.44-.1-.69,0-.69-.07l.17,0a1.59,1.59,0,0,1,.54,0,2.51,2.51,0,0,1,1.69,1.12,4,4,0,0,1,.66,3.16,3.08,3.08,0,0,1-1.16,1.72,3.84,3.84,0,0,1-2.2.73,4.8,4.8,0,0,1-4.38-2.61,8.16,8.16,0,0,1-.44-5.94,16.88,16.88,0,0,1,3.27-5.74,44.28,44.28,0,0,0,4.19-5.59,11.91,11.91,0,0,0,1.58-6.6,10.9,10.9,0,0,0-.64-3.19,5,5,0,0,0-1.76-2.43,2.64,2.64,0,0,0-2.67-.16,5.38,5.38,0,0,0-2.58,6.54,3.14,3.14,0,0,0,1.44,1.52,2.34,2.34,0,0,0,1.83.09,2.1,2.1,0,0,0,1.47-2.36,2.21,2.21,0,0,0-1.09-1.56A3.2,3.2,0,0,0,231,208.86Z"></path></g><g style="opacity:0.2"><path d="M232.21,192.15a1.26,1.26,0,0,1-.71-.1,2.28,2.28,0,0,1-1.24-1.61,2.08,2.08,0,0,1,.2-1.5,2.56,2.56,0,0,1,1.37-1.18,2.63,2.63,0,0,1,2.07.07,3.53,3.53,0,0,1,1.63,1.65,5.3,5.3,0,0,1-.54,5.11,5.37,5.37,0,0,1-2.18,2,3.11,3.11,0,0,1-3.13-.17,5.49,5.49,0,0,1-2-2.66,11.34,11.34,0,0,1-.68-3.34,12.44,12.44,0,0,1,1.63-6.88,43.87,43.87,0,0,1,4.25-5.65,16.58,16.58,0,0,0,3.2-5.55,7.73,7.73,0,0,0-.36-5.61,4.41,4.41,0,0,0-4-2.45,3.66,3.66,0,0,0-2,.63,2.77,2.77,0,0,0-1.07,1.53,3.75,3.75,0,0,0,.54,3,2.48,2.48,0,0,0,1.54,1.13,5.08,5.08,0,0,0,.7.07l-.18,0a1.59,1.59,0,0,1-.54,0,2.55,2.55,0,0,1-1.69-1.13,3.91,3.91,0,0,1-.65-3.16,3.09,3.09,0,0,1,1.15-1.71,3.85,3.85,0,0,1,2.21-.74,4.82,4.82,0,0,1,4.38,2.62,8.15,8.15,0,0,1,.43,5.94,17,17,0,0,1-3.27,5.74,45.08,45.08,0,0,0-4.18,5.58,11.93,11.93,0,0,0-1.58,6.6,11.09,11.09,0,0,0,.63,3.19,5.2,5.2,0,0,0,1.76,2.44,2.68,2.68,0,0,0,2.68.16,5,5,0,0,0,2-1.83,4.9,4.9,0,0,0,.58-4.71,3.18,3.18,0,0,0-1.44-1.52,2.3,2.3,0,0,0-1.83-.09,2.1,2.1,0,0,0-1.47,2.36,2.17,2.17,0,0,0,1.08,1.55A3.53,3.53,0,0,0,232.21,192.15Z"></path></g><g style="opacity:0.2"><path d="M233,200.17a1.44,1.44,0,1,1-1.44-1.44A1.43,1.43,0,0,1,233,200.17Z"></path></g><g style="opacity:0.2"><path d="M233.65,161.8a1.44,1.44,0,1,1-1.44-1.44A1.44,1.44,0,0,1,233.65,161.8Z"></path></g><g style="opacity:0.2"><path d="M231.59,114.59a2.44,2.44,0,0,0,.67-.19,2.21,2.21,0,0,0,1.09-1.56,2.13,2.13,0,0,0-1.48-2.37,2.34,2.34,0,0,0-1.83.09,3.21,3.21,0,0,0-1.44,1.53,4.91,4.91,0,0,0,.58,4.72,5,5,0,0,0,2,1.84,2.64,2.64,0,0,0,2.67-.17,5.07,5.07,0,0,0,1.76-2.44,10.58,10.58,0,0,0,.63-3.2,12,12,0,0,0-1.57-6.61,43.67,43.67,0,0,0-4.19-5.6,17.12,17.12,0,0,1-3.27-5.75,8.23,8.23,0,0,1,.43-5.95A4.81,4.81,0,0,1,232,86.29a3.93,3.93,0,0,1,2.21.74,3.06,3.06,0,0,1,1.15,1.72,3.92,3.92,0,0,1-.65,3.16,2.55,2.55,0,0,1-1.69,1.14,1.59,1.59,0,0,1-.54,0l-.18,0s.26,0,.7-.07a2.5,2.5,0,0,0,1.55-1.14,3.8,3.8,0,0,0,.53-3A2.79,2.79,0,0,0,234,87.3a3.56,3.56,0,0,0-2-.64,4.39,4.39,0,0,0-4,2.47,7.73,7.73,0,0,0-.36,5.61,16.86,16.86,0,0,0,3.21,5.57,44.64,44.64,0,0,1,4.24,5.66,12.36,12.36,0,0,1,1.63,6.9,11.27,11.27,0,0,1-.67,3.34,5.54,5.54,0,0,1-2,2.67,3.11,3.11,0,0,1-3.14.18,5.4,5.4,0,0,1-2.18-2,5.3,5.3,0,0,1-.54-5.11,3.57,3.57,0,0,1,1.63-1.67,2.62,2.62,0,0,1,2.07-.06,2.48,2.48,0,0,1,1.37,1.18,2.08,2.08,0,0,1,.2,1.5,2.24,2.24,0,0,1-1.24,1.61A1.16,1.16,0,0,1,231.59,114.59Z"></path></g><g style="opacity:0.2"><path d="M232,131.35a2.78,2.78,0,0,0-.67.2,2.17,2.17,0,0,0-1.08,1.55,2.11,2.11,0,0,0,1.47,2.37,2.34,2.34,0,0,0,1.83-.09,3.16,3.16,0,0,0,1.44-1.53,5.42,5.42,0,0,0-2.58-6.55,2.66,2.66,0,0,0-2.68.16,5.05,5.05,0,0,0-1.76,2.45,10.45,10.45,0,0,0-.63,3.19,12.07,12.07,0,0,0,1.57,6.62,46.4,46.4,0,0,0,4.19,5.6,16.93,16.93,0,0,1,3.27,5.75,8.24,8.24,0,0,1-.43,6,4.8,4.8,0,0,1-4.38,2.63,3.85,3.85,0,0,1-2.21-.74,3.11,3.11,0,0,1-1.15-1.72,3.92,3.92,0,0,1,.65-3.16,2.55,2.55,0,0,1,1.69-1.13,1.2,1.2,0,0,1,.54,0q.18,0,.18,0s-.26,0-.7.07a2.54,2.54,0,0,0-1.55,1.14,3.81,3.81,0,0,0-.53,3,2.81,2.81,0,0,0,1.07,1.53,3.5,3.5,0,0,0,2,.63,4.42,4.42,0,0,0,4-2.46,7.81,7.81,0,0,0,.35-5.62,16.86,16.86,0,0,0-3.21-5.57,43.94,43.94,0,0,1-4.24-5.66,12.42,12.42,0,0,1-1.63-6.9,11.33,11.33,0,0,1,.67-3.34,5.54,5.54,0,0,1,2-2.67,3.13,3.13,0,0,1,3.14-.18,5.46,5.46,0,0,1,2.18,2,5.3,5.3,0,0,1,.54,5.11,3.53,3.53,0,0,1-1.63,1.67,2.67,2.67,0,0,1-2.07.07,2.56,2.56,0,0,1-1.37-1.18,2.1,2.1,0,0,1-.2-1.51,2.24,2.24,0,0,1,1.24-1.61A1.16,1.16,0,0,1,232,131.35Z"></path></g><g style="opacity:0.2"><path d="M233.65,123.3a1.44,1.44,0,1,0-1.44,1.45A1.44,1.44,0,0,0,233.65,123.3Z"></path></g><g style="opacity:0.2"><path d="M352.29,114.48a.93.93,0,0,1-.69-.14,2.34,2.34,0,0,1-1.11-1.68,2.47,2.47,0,0,1,1.49-2.73,2.23,2.23,0,0,1,2,.19,3.69,3.69,0,0,1,1.41,1.82,6.14,6.14,0,0,1-.6,5.1,5.26,5.26,0,0,1-2.07,2.09,2.68,2.68,0,0,1-1.59.27,2.78,2.78,0,0,1-1.47-.73,6.21,6.21,0,0,1-1.63-2.83,13.16,13.16,0,0,1-.53-3.33,14.08,14.08,0,0,1,1.47-6.87,45.36,45.36,0,0,1,3.87-5.83,18.12,18.12,0,0,0,2.93-5.66,9.19,9.19,0,0,0-.15-5.63,4.69,4.69,0,0,0-1.46-2,3.75,3.75,0,0,0-2.16-.79,2.89,2.89,0,0,0-3,2.21,4.34,4.34,0,0,0,.42,3,2.4,2.4,0,0,0,1.42,1.26,1.28,1.28,0,0,0,.51.06.44.44,0,0,1,.18,0l-.18,0a1.22,1.22,0,0,1-.53,0A2.41,2.41,0,0,1,349.34,91a4.5,4.5,0,0,1-.53-3.17,3.21,3.21,0,0,1,1.06-1.76,3.28,3.28,0,0,1,2.18-.75,4.11,4.11,0,0,1,2.39.84,5,5,0,0,1,1.62,2.21,9.63,9.63,0,0,1,.22,5.91,18.33,18.33,0,0,1-3,5.83,44.83,44.83,0,0,0-3.82,5.78,13.59,13.59,0,0,0-1.43,6.61,13,13,0,0,0,.49,3.2,5.89,5.89,0,0,0,1.48,2.63,2.2,2.2,0,0,0,2.54.39,4.65,4.65,0,0,0,1.89-1.89,5.75,5.75,0,0,0,.64-4.75,3.39,3.39,0,0,0-1.24-1.67,1.91,1.91,0,0,0-1.77-.19,2.22,2.22,0,0,0-1.39,2.41,2.3,2.3,0,0,0,1,1.63A2.13,2.13,0,0,0,352.29,114.48Z"></path></g><g style="opacity:0.2"><path d="M351.47,131.34a1.16,1.16,0,0,1,.71.1,2.26,2.26,0,0,1,1.24,1.61,2.08,2.08,0,0,1-.2,1.5,2.56,2.56,0,0,1-1.37,1.18,2.67,2.67,0,0,1-2.07-.07,3.5,3.5,0,0,1-1.63-1.66,5.28,5.28,0,0,1,.54-5.1,5.46,5.46,0,0,1,2.18-2,3.14,3.14,0,0,1,3.13.18,5.49,5.49,0,0,1,2,2.66,11,11,0,0,1,.68,3.34,12.36,12.36,0,0,1-1.63,6.88,44.76,44.76,0,0,1-4.24,5.65,16.34,16.34,0,0,0-3.21,5.55,7.73,7.73,0,0,0,.36,5.61,4.41,4.41,0,0,0,4,2.45,3.63,3.63,0,0,0,2-.63A2.81,2.81,0,0,0,355,157a3.75,3.75,0,0,0-.54-3,2.54,2.54,0,0,0-1.54-1.14,5.91,5.91,0,0,0-.7-.06l.18,0a1.59,1.59,0,0,1,.54,0,2.55,2.55,0,0,1,1.69,1.13,3.9,3.9,0,0,1,.65,3.15,3.11,3.11,0,0,1-1.15,1.72,3.92,3.92,0,0,1-2.2.74,4.81,4.81,0,0,1-4.38-2.62,8.15,8.15,0,0,1-.44-5.94,17,17,0,0,1,3.27-5.74,46.17,46.17,0,0,0,4.19-5.58,11.93,11.93,0,0,0,1.57-6.61,10.76,10.76,0,0,0-.63-3.18,5,5,0,0,0-1.76-2.44,2.66,2.66,0,0,0-2.68-.16,5.41,5.41,0,0,0-2.58,6.54,3.23,3.23,0,0,0,1.44,1.52,2.34,2.34,0,0,0,1.83.09,2.1,2.1,0,0,0,1.47-2.36,2.15,2.15,0,0,0-1.08-1.55A2.78,2.78,0,0,0,351.47,131.34Z"></path></g><g style="opacity:0.2"><path d="M350.66,123.32a1.44,1.44,0,1,1,1.44,1.44A1.43,1.43,0,0,1,350.66,123.32Z"></path></g><g style="opacity:0.2"><path d="M350,161.69a1.44,1.44,0,1,1,1.44,1.44A1.44,1.44,0,0,1,350,161.69Z"></path></g><g style="opacity:0.2"><path d="M352.09,208.9a2.44,2.44,0,0,0-.67.19,2.17,2.17,0,0,0-1.08,1.56,2.12,2.12,0,0,0,1.47,2.37,2.3,2.3,0,0,0,1.83-.1,3.14,3.14,0,0,0,1.44-1.52,4.91,4.91,0,0,0-.58-4.72,5,5,0,0,0-2-1.84,2.64,2.64,0,0,0-2.68.17,5,5,0,0,0-1.76,2.44,11.22,11.22,0,0,0-.63,3.2,12,12,0,0,0,1.58,6.61,45.3,45.3,0,0,0,4.18,5.6,17,17,0,0,1,3.27,5.75,8.18,8.18,0,0,1-.43,5.95,4.81,4.81,0,0,1-4.38,2.64,4,4,0,0,1-2.21-.74,3.11,3.11,0,0,1-1.15-1.72,4,4,0,0,1,.65-3.17,2.55,2.55,0,0,1,1.69-1.13,1.59,1.59,0,0,1,.54,0l.18,0a5.91,5.91,0,0,0-.7.06,2.52,2.52,0,0,0-1.54,1.15,3.74,3.74,0,0,0-.54,3,2.77,2.77,0,0,0,1.07,1.53,3.59,3.59,0,0,0,2,.64,4.41,4.41,0,0,0,4-2.47,7.8,7.8,0,0,0,.35-5.62,16.48,16.48,0,0,0-3.21-5.56,45.61,45.61,0,0,1-4.24-5.66,12.53,12.53,0,0,1-1.63-6.9,11.4,11.4,0,0,1,.67-3.35,5.62,5.62,0,0,1,2-2.66,3.11,3.11,0,0,1,3.14-.18,5.44,5.44,0,0,1,2.18,2,5.32,5.32,0,0,1,.54,5.12,3.46,3.46,0,0,1-1.63,1.66,2.58,2.58,0,0,1-2.07.07,2.52,2.52,0,0,1-1.37-1.18,2.08,2.08,0,0,1-.2-1.5,2.26,2.26,0,0,1,1.24-1.61A1.16,1.16,0,0,1,352.09,208.9Z"></path></g><g style="opacity:0.2"><path d="M351.66,192.14a3,3,0,0,0,.66-.2,2.21,2.21,0,0,0,1.09-1.56,2.13,2.13,0,0,0-1.47-2.37,2.37,2.37,0,0,0-1.84.1,3.23,3.23,0,0,0-1.44,1.52,5.41,5.41,0,0,0,2.59,6.56,2.66,2.66,0,0,0,2.68-.16,5.1,5.1,0,0,0,1.75-2.45,10.9,10.9,0,0,0,.64-3.19,12.06,12.06,0,0,0-1.58-6.62,44.38,44.38,0,0,0-4.19-5.6,17,17,0,0,1-3.27-5.75,8.24,8.24,0,0,1,.43-5.95,4.8,4.8,0,0,1,4.39-2.63,3.91,3.91,0,0,1,2.2.73,3,3,0,0,1,1.15,1.73,3.92,3.92,0,0,1-.65,3.16,2.53,2.53,0,0,1-1.69,1.13,1.59,1.59,0,0,1-.54,0,.54.54,0,0,1-.17,0c0-.05.25,0,.69-.07a2.54,2.54,0,0,0,1.55-1.15,3.74,3.74,0,0,0,.53-3,2.77,2.77,0,0,0-1.07-1.53,3.56,3.56,0,0,0-2-.64,4.43,4.43,0,0,0-4,2.47,7.81,7.81,0,0,0-.36,5.62,16.72,16.72,0,0,0,3.21,5.56,44.06,44.06,0,0,1,4.24,5.67,12.33,12.33,0,0,1,1.63,6.89,11.4,11.4,0,0,1-.67,3.35,5.58,5.58,0,0,1-2,2.67,3.16,3.16,0,0,1-3.14.18,5.37,5.37,0,0,1-2.17-2,5.29,5.29,0,0,1-.55-5.12,3.55,3.55,0,0,1,1.63-1.66,2.65,2.65,0,0,1,2.08-.07,2.59,2.59,0,0,1,1.37,1.18,2.19,2.19,0,0,1,.2,1.5,2.31,2.31,0,0,1-1.24,1.62A1.16,1.16,0,0,1,351.66,192.14Z"></path></g><g style="opacity:0.2"><path d="M350,200.19a1.44,1.44,0,1,0,1.44-1.45A1.45,1.45,0,0,0,350,200.19Z"></path></g><g style="opacity:0.2"><path d="M281.37,79.85a2.78,2.78,0,0,0-.2-.67,2.2,2.2,0,0,0-1.56-1.08,2.1,2.1,0,0,0-2.36,1.47,2.3,2.3,0,0,0,.09,1.83,3.14,3.14,0,0,0,1.52,1.44,5.39,5.39,0,0,0,6.56-2.58,2.66,2.66,0,0,0-.16-2.68,5.12,5.12,0,0,0-2.45-1.76,11.22,11.22,0,0,0-3.19-.63A12,12,0,0,0,273,76.77,44.38,44.38,0,0,0,267.4,81a17,17,0,0,1-5.75,3.26,8.13,8.13,0,0,1-5.95-.43,4.8,4.8,0,0,1-2.63-4.38,4,4,0,0,1,.73-2.21,3.1,3.1,0,0,1,1.73-1.15,4,4,0,0,1,3.16.65,2.55,2.55,0,0,1,1.13,1.69,1.59,1.59,0,0,1,0,.54.85.85,0,0,1,0,.18c-.05,0,0-.25-.07-.7a2.52,2.52,0,0,0-1.15-1.54,3.74,3.74,0,0,0-3-.54,2.77,2.77,0,0,0-1.53,1.07,3.51,3.51,0,0,0-.63,2,4.42,4.42,0,0,0,2.46,4,7.81,7.81,0,0,0,5.62.35,16.52,16.52,0,0,0,5.56-3.2,44.1,44.1,0,0,1,5.67-4.25,12.5,12.5,0,0,1,6.89-1.63,11.41,11.41,0,0,1,3.35.68,5.52,5.52,0,0,1,2.67,2,3.14,3.14,0,0,1,.18,3.13,5.4,5.4,0,0,1-2,2.18,5.31,5.31,0,0,1-5.12.54A3.48,3.48,0,0,1,277,81.55a2.65,2.65,0,0,1-.07-2.08,2.56,2.56,0,0,1,1.18-1.37,2.13,2.13,0,0,1,1.5-.2,2.28,2.28,0,0,1,1.62,1.24A1.16,1.16,0,0,1,281.37,79.85Z"></path></g><g style="opacity:0.2"><path d="M321.67,79.42a1.23,1.23,0,0,1-.11.71A2.28,2.28,0,0,1,320,81.37a2.19,2.19,0,0,1-1.5-.2,2.59,2.59,0,0,1-1.18-1.37,2.65,2.65,0,0,1,.07-2.08A3.55,3.55,0,0,1,319,76.09a5.29,5.29,0,0,1,5.12.55,5.37,5.37,0,0,1,2,2.17A3.16,3.16,0,0,1,326,82a5.57,5.57,0,0,1-2.67,2,11.74,11.74,0,0,1-3.35.68A12.45,12.45,0,0,1,313,83a43.71,43.71,0,0,1-5.66-4.24,16.62,16.62,0,0,0-5.56-3.2,7.76,7.76,0,0,0-5.62.35,4.43,4.43,0,0,0-2.47,4,3.62,3.62,0,0,0,.64,2,2.76,2.76,0,0,0,1.53,1.06,3.74,3.74,0,0,0,3-.53A2.51,2.51,0,0,0,300,80.85a5.69,5.69,0,0,0,.06-.69s0,.06,0,.18a1.53,1.53,0,0,1,0,.53,2.57,2.57,0,0,1-1.13,1.7,4,4,0,0,1-3.16.65,3.07,3.07,0,0,1-1.73-1.16,3.84,3.84,0,0,1-.73-2.2A4.79,4.79,0,0,1,296,75.48,8.18,8.18,0,0,1,302,75a17,17,0,0,1,5.75,3.27,44.38,44.38,0,0,0,5.6,4.19,12,12,0,0,0,6.61,1.58,11.22,11.22,0,0,0,3.2-.63,5.09,5.09,0,0,0,2.44-1.76,2.64,2.64,0,0,0,.17-2.68,5.41,5.41,0,0,0-6.56-2.59,3.23,3.23,0,0,0-1.52,1.44,2.33,2.33,0,0,0-.1,1.84,2.12,2.12,0,0,0,2.37,1.47,2.21,2.21,0,0,0,1.56-1.09A3.87,3.87,0,0,0,321.67,79.42Z"></path></g><g style="opacity:0.2"><circle cx="290.08" cy="79.23" r="1.44"></circle></g><g style="opacity:0.2"><circle cx="335.72" cy="79.23" r="1.44"></circle></g><g style="opacity:0.2"><circle cx="246.69" cy="79.23" r="1.44"></circle></g><g style="opacity:0.2"><path d="M282.29,242.88a2.66,2.66,0,0,0-.2-.66,2.18,2.18,0,0,0-1.55-1.09,2.11,2.11,0,0,0-2.37,1.47,2.34,2.34,0,0,0,.09,1.83,3.16,3.16,0,0,0,1.53,1.44,4.91,4.91,0,0,0,4.72-.57,5,5,0,0,0,1.84-2,2.68,2.68,0,0,0-.17-2.68,5.12,5.12,0,0,0-2.45-1.76,11.09,11.09,0,0,0-3.19-.63,12,12,0,0,0-6.62,1.58,44.38,44.38,0,0,0-5.6,4.19,16.9,16.9,0,0,1-5.75,3.26,8.13,8.13,0,0,1-5.95-.43,4.81,4.81,0,0,1-2.63-4.38,3.82,3.82,0,0,1,.74-2.2,3.08,3.08,0,0,1,1.72-1.16,4,4,0,0,1,3.16.65,2.55,2.55,0,0,1,1.13,1.7,1.36,1.36,0,0,1,0,.53c0,.12,0,.18,0,.18s0-.25-.07-.7a2.5,2.5,0,0,0-1.14-1.54,3.77,3.77,0,0,0-3-.54,2.86,2.86,0,0,0-1.53,1.07,3.59,3.59,0,0,0-.63,2,4.42,4.42,0,0,0,2.46,4,7.76,7.76,0,0,0,5.62.35,16.66,16.66,0,0,0,5.57-3.2,44,44,0,0,1,5.66-4.25,12.51,12.51,0,0,1,6.9-1.63,11.34,11.34,0,0,1,3.34.68,5.48,5.48,0,0,1,2.67,2,3.12,3.12,0,0,1,.18,3.13,5.4,5.4,0,0,1-2,2.18,5.33,5.33,0,0,1-5.11.55,3.57,3.57,0,0,1-1.67-1.63,2.69,2.69,0,0,1-.07-2.08,2.6,2.6,0,0,1,1.18-1.37,2.15,2.15,0,0,1,1.51-.2,2.26,2.26,0,0,1,1.61,1.24A1.16,1.16,0,0,1,282.29,242.88Z"></path></g><g style="opacity:0.2"><path d="M322.59,242.45a1.16,1.16,0,0,1-.1.71,2.31,2.31,0,0,1-1.62,1.24,2.13,2.13,0,0,1-1.5-.2,2.67,2.67,0,0,1-1.11-3.45,3.59,3.59,0,0,1,1.66-1.63,5.82,5.82,0,0,1,7.14,2.73,3.12,3.12,0,0,1-.18,3.13,5.48,5.48,0,0,1-2.67,2,11.41,11.41,0,0,1-3.34.68A12.43,12.43,0,0,1,314,246a43.83,43.83,0,0,1-5.67-4.24,16.52,16.52,0,0,0-5.56-3.2,7.76,7.76,0,0,0-5.62.35,4.42,4.42,0,0,0-2.46,4,3.53,3.53,0,0,0,.63,2,2.79,2.79,0,0,0,1.53,1.06,3.77,3.77,0,0,0,3-.53,2.49,2.49,0,0,0,1.14-1.55c.1-.44,0-.69.07-.69s0,.06,0,.18a1.53,1.53,0,0,1,0,.53,2.55,2.55,0,0,1-1.13,1.7,4,4,0,0,1-3.16.65,3.08,3.08,0,0,1-1.72-1.16,3.82,3.82,0,0,1-.74-2.2,4.79,4.79,0,0,1,2.63-4.38,8.18,8.18,0,0,1,5.95-.44,17.19,17.19,0,0,1,5.75,3.27,44.38,44.38,0,0,0,5.6,4.19,12,12,0,0,0,6.62,1.58,11.22,11.22,0,0,0,3.19-.63,5.12,5.12,0,0,0,2.45-1.76,2.66,2.66,0,0,0,.16-2.68,5.4,5.4,0,0,0-6.55-2.59,3.26,3.26,0,0,0-1.53,1.44,2.37,2.37,0,0,0-.09,1.84,2.11,2.11,0,0,0,2.37,1.47,2.21,2.21,0,0,0,1.55-1.09A2.8,2.8,0,0,0,322.59,242.45Z"></path></g><g style="opacity:0.2"><path d="M291,240.82a1.44,1.44,0,1,0,1.44,1.44A1.44,1.44,0,0,0,291,240.82Z"></path></g><g style="opacity:0.2"><circle cx="336.65" cy="242.26" r="1.44"></circle></g><g style="opacity:0.2"><path d="M247.61,240.82a1.44,1.44,0,1,0,1.45,1.44A1.44,1.44,0,0,0,247.61,240.82Z"></path></g><path d="M363.34,69.46c0,.14-31.77.26-71,.26s-71-.12-71-.26,31.77-.26,71-.26S363.34,69.32,363.34,69.46Z" style="fill:#fff"></path><path d="M271.22,72.91c0,.15-5.41.26-12.09.26s-12.1-.11-12.1-.26,5.41-.26,12.1-.26S271.22,72.77,271.22,72.91Z" style="fill:#fff"></path><path d="M306,85.46c0,.14-4.61.26-10.31.26s-10.3-.12-10.3-.26,4.61-.26,10.3-.26S306,85.32,306,85.46Z" style="fill:#fff"></path><path d="M274.66,213.46a12,12,0,0,1-2.81.28,45.42,45.42,0,0,1-6.81-.24,53,53,0,0,1-6.71-1.22,12.62,12.62,0,0,1-2.7-.81,18.35,18.35,0,0,1,2.78.45c1.71.32,4.06.76,6.69,1.06a66,66,0,0,0,6.75.39A18,18,0,0,1,274.66,213.46Z" style="fill:#263238"></path><path d="M342.44,233.13s0-.23,0-.69,0-1.14,0-2c0-1.79,0-4.42,0-7.84,0-6.84,0-16.83-.07-29.47,0-25.26-.07-61.09-.11-103.42l.23.24L241.75,90h0l.26-.26c0,53.8,0,103.54-.05,143.44l-.21-.21L315,233l20.3.06,5.32,0,1.84,0-1.79,0-5.29,0-20.24,0-73.38.11h-.21v-.21c0-39.9,0-89.64-.05-143.44v-.26h.27l100.69,0h.24v.24c-.05,42.39-.09,78.27-.12,103.57,0,12.62-.05,22.59-.06,29.43,0,3.39,0,6,0,7.78,0,.88,0,1.54,0,2S342.44,233.13,342.44,233.13Z" style="fill:#263238"></path><path d="M362.91,69.58a35.94,35.94,0,0,0-3.68,2.06,40.81,40.81,0,0,0-7.42,7c-2.62,3-4.8,5.91-6.47,7.94-.83,1-1.54,1.83-2,2.37a4.63,4.63,0,0,1-.86.76,4.86,4.86,0,0,1,.71-.9c.45-.57,1.11-1.4,1.9-2.45,1.59-2.09,3.73-5,6.37-8.07a36.7,36.7,0,0,1,7.6-6.93,11.84,11.84,0,0,1,1.56-.89l.65-.33c.21-.09.41-.15.58-.21A4.25,4.25,0,0,1,362.91,69.58Z" style="fill:#263238"></path><path d="M363.39,254a5.09,5.09,0,0,1-.78-.85l-2-2.4c-1.72-2-4.17-4.75-7-7.6s-5.61-5.29-7.63-7l-2.4-2a5,5,0,0,1-.86-.78,4.43,4.43,0,0,1,1,.62c.61.43,1.47,1.08,2.52,1.9a94.77,94.77,0,0,1,7.76,6.93,92.42,92.42,0,0,1,6.95,7.74c.83,1,1.48,1.9,1.91,2.51A4.54,4.54,0,0,1,363.39,254Z" style="fill:#263238"></path><path d="M220.92,253.71a4.93,4.93,0,0,1,.56-1c.39-.63,1-1.52,1.77-2.58a63.31,63.31,0,0,1,6.78-7.79,62,62,0,0,1,8-6.57c1.09-.75,2-1.33,2.63-1.7a4.75,4.75,0,0,1,1-.54,4.74,4.74,0,0,1-.91.71c-.6.42-1.47,1-2.52,1.82a78.28,78.28,0,0,0-7.82,6.65,80.07,80.07,0,0,0-6.86,7.64c-.81,1-1.45,1.88-1.89,2.47A4.91,4.91,0,0,1,220.92,253.71Z" style="fill:#263238"></path><path d="M221.27,69.58a4.39,4.39,0,0,1,.86.74l2.22,2.14c1.87,1.8,4.51,4.24,7.43,6.92s5.53,5.18,7.34,7.05c.9.94,1.62,1.71,2.1,2.26a4.19,4.19,0,0,1,.71.88,4.57,4.57,0,0,1-.85-.74l-2.22-2.14c-1.88-1.8-4.51-4.24-7.44-6.92s-5.52-5.18-7.33-7c-.91-.94-1.63-1.71-2.11-2.26A4.68,4.68,0,0,1,221.27,69.58Z" style="fill:#263238"></path><path d="M357.34,73.81c.14,0,.26,38.94.26,87s-.12,87-.26,87-.26-38.93-.26-87S357.19,73.81,357.34,73.81Z" style="fill:#263238"></path><path d="M355.33,73.41c0,.14-29.07.26-64.92.26s-64.92-.12-64.92-.26,29.06-.26,64.92-.26S355.33,73.27,355.33,73.41Z" style="fill:#263238"></path><path d="M225.89,244.93c-.14,0-.26-38.31-.26-85.55s.12-85.57.26-85.57.26,38.3.26,85.57S226,244.93,225.89,244.93Z" style="fill:#263238"></path><path d="M357.34,248.14c0,.14-28.71.26-64.12.26s-64.12-.12-64.12-.26,28.7-.26,64.12-.26S357.34,248,357.34,248.14Z" style="fill:#263238"></path><path d="M346.41,236.29s0-.25,0-.72,0-1.19,0-2.12c0-1.87,0-4.62,0-8.2,0-7.16-.05-17.62-.09-30.87-.05-26.46-.12-64-.21-108.48l.24.24-108.94-.39.27-.26v.16c.16,56.48.31,108.74.43,150.94l-.21-.21,78.94-.11h27.65l2,0-1.94,0-5.71,0-21.85.11-79.07.34h-.21v-.21c-.15-42.21-.33-94.47-.53-150.94v-.43h.27l108.93.44h.23v.23c0,44.52,0,82.14,0,108.64,0,13.22,0,23.66,0,30.81,0,3.56,0,6.3,0,8.16,0,.91,0,1.61,0,2.08S346.41,236.29,346.41,236.29Z" style="fill:#263238"></path><g style="opacity:0.2"><path d="M246.35,236.57c-.15,0-.3-.76-.26-1.68s.12-1.66.26-1.67.3.75.26,1.68S246.48,236.56,246.35,236.57Z"></path></g><g style="opacity:0.2"><path d="M242.81,236.62c-.15,0-.3-.76-.26-1.69s.13-1.65.26-1.67.3.76.26,1.69S243,236.6,242.81,236.62Z"></path></g><g style="opacity:0.2"><path d="M250.36,236.42c-.15,0-.29-.71-.32-1.61s.06-1.62.21-1.63.28.72.31,1.61S250.5,236.42,250.36,236.42Z"></path></g><g style="opacity:0.2"><path d="M254,236.42c-.14,0-.29-.71-.32-1.61s.06-1.62.21-1.63.28.72.31,1.61S254.17,236.42,254,236.42Z"></path></g><g style="opacity:0.2"><path d="M257.7,236.42c-.14,0-.28-.71-.31-1.61s.06-1.62.2-1.63.28.72.32,1.61S257.85,236.42,257.7,236.42Z"></path></g><g style="opacity:0.2"><path d="M261.37,236.42c-.14,0-.28-.71-.31-1.61s.06-1.62.2-1.63.29.72.32,1.61S261.52,236.42,261.37,236.42Z"></path></g><g style="opacity:0.2"><path d="M265.05,236.42c-.15,0-.29-.71-.32-1.61s.06-1.62.2-1.63.29.72.32,1.61S265.19,236.42,265.05,236.42Z"></path></g><g style="opacity:0.2"><path d="M268.72,236.42c-.15,0-.29-.71-.32-1.61s.06-1.62.21-1.63.28.72.31,1.61S268.86,236.42,268.72,236.42Z"></path></g><g style="opacity:0.2"><path d="M272.39,236.42c-.14,0-.29-.71-.32-1.61s.06-1.62.21-1.63.28.72.31,1.61S272.53,236.42,272.39,236.42Z"></path></g><g style="opacity:0.2"><path d="M276.06,236.42c-.14,0-.28-.71-.31-1.61s.06-1.62.2-1.63.28.72.32,1.61S276.21,236.42,276.06,236.42Z"></path></g><g style="opacity:0.2"><path d="M279.73,236.42c-.14,0-.28-.71-.31-1.61s.06-1.62.2-1.63.29.72.32,1.61S279.88,236.42,279.73,236.42Z"></path></g><g style="opacity:0.2"><path d="M283.41,236.42c-.15,0-.29-.71-.32-1.61s.06-1.62.2-1.63.29.72.32,1.61S283.55,236.42,283.41,236.42Z"></path></g><g style="opacity:0.2"><path d="M287.08,236.42c-.15,0-.29-.71-.32-1.61s.06-1.62.2-1.63.29.72.32,1.61S287.22,236.42,287.08,236.42Z"></path></g><g style="opacity:0.2"><path d="M290.75,236.42c-.14,0-.29-.71-.32-1.61s.06-1.62.21-1.63.28.72.31,1.61S290.89,236.42,290.75,236.42Z"></path></g><g style="opacity:0.2"><path d="M294.42,236.42c-.14,0-.28-.71-.32-1.61s.06-1.62.21-1.63.28.72.31,1.61S294.56,236.42,294.42,236.42Z"></path></g><g style="opacity:0.2"><path d="M298.09,236.42c-.14,0-.28-.71-.31-1.61s.06-1.62.2-1.63.29.72.32,1.61S298.24,236.42,298.09,236.42Z"></path></g><g style="opacity:0.2"><path d="M301.77,236.42c-.15,0-.29-.71-.32-1.61s.06-1.62.2-1.63.29.72.32,1.61S301.91,236.42,301.77,236.42Z"></path></g><g style="opacity:0.2"><path d="M305.44,236.42c-.15,0-.29-.71-.32-1.61s.06-1.62.2-1.63.29.72.32,1.61S305.58,236.42,305.44,236.42Z"></path></g><g style="opacity:0.2"><path d="M309.11,236.42c-.14,0-.29-.71-.32-1.61s.06-1.62.21-1.63.28.72.31,1.61S309.25,236.42,309.11,236.42Z"></path></g><g style="opacity:0.2"><path d="M312.78,236.42c-.14,0-.28-.71-.32-1.61s.06-1.62.21-1.63.28.72.31,1.61S312.92,236.42,312.78,236.42Z"></path></g><g style="opacity:0.2"><path d="M316.45,236.42c-.14,0-.28-.71-.31-1.61s.06-1.62.2-1.63.29.72.32,1.61S316.6,236.42,316.45,236.42Z"></path></g><g style="opacity:0.2"><path d="M320.12,236.42c-.14,0-.28-.71-.31-1.61s.06-1.62.2-1.63.29.72.32,1.61S320.27,236.42,320.12,236.42Z"></path></g><g style="opacity:0.2"><path d="M323.8,236.42c-.15,0-.29-.71-.32-1.61s.06-1.62.2-1.63.29.72.32,1.61S323.94,236.42,323.8,236.42Z"></path></g><g style="opacity:0.2"><path d="M327.47,236.42c-.15,0-.29-.71-.32-1.61s.06-1.62.21-1.63.28.72.31,1.61S327.61,236.42,327.47,236.42Z"></path></g><g style="opacity:0.2"><path d="M331.14,236.42c-.14,0-.29-.71-.32-1.61s.06-1.62.21-1.63.28.72.31,1.61S331.28,236.42,331.14,236.42Z"></path></g><g style="opacity:0.2"><path d="M334.81,236.42c-.14,0-.28-.71-.31-1.61s.06-1.62.2-1.63.28.72.32,1.61S335,236.42,334.81,236.42Z"></path></g><g style="opacity:0.2"><path d="M338.48,236.42c-.14,0-.28-.71-.31-1.61s.06-1.62.2-1.63.29.72.32,1.61S338.63,236.42,338.48,236.42Z"></path></g><g style="opacity:0.2"><path d="M342.16,236.42c-.15,0-.29-.71-.32-1.61s.06-1.62.2-1.63.29.72.32,1.61S342.3,236.42,342.16,236.42Z"></path></g><g style="opacity:0.2"><path d="M346.29,232.16c0,.14-.87.26-1.94.26s-1.94-.12-1.94-.26.87-.26,1.94-.26S346.29,232,346.29,232.16Z"></path></g><g style="opacity:0.2"><path d="M346.29,228.07c0,.15-.87.26-1.94.26s-1.94-.11-1.94-.26.87-.26,1.94-.26S346.29,227.93,346.29,228.07Z"></path></g><g style="opacity:0.2"><path d="M346.29,224c0,.14-.87.26-1.94.26s-1.94-.12-1.94-.26.87-.26,1.94-.26S346.29,223.84,346.29,224Z"></path></g><g style="opacity:0.2"><path d="M346.29,219.9c0,.14-.87.26-1.94.26s-1.94-.12-1.94-.26.87-.26,1.94-.26S346.29,219.75,346.29,219.9Z"></path></g><g style="opacity:0.2"><path d="M346.29,215.81c0,.14-.87.26-1.94.26s-1.94-.12-1.94-.26.87-.26,1.94-.26S346.29,215.67,346.29,215.81Z"></path></g><g style="opacity:0.2"><path d="M346.29,211.72c0,.15-.87.26-1.94.26s-1.94-.11-1.94-.26.87-.26,1.94-.26S346.29,211.58,346.29,211.72Z"></path></g><g style="opacity:0.2"><path d="M346.29,207.64c0,.14-.87.26-1.94.26s-1.94-.12-1.94-.26.87-.26,1.94-.26S346.29,207.49,346.29,207.64Z"></path></g><g style="opacity:0.2"><path d="M346.29,203.55c0,.14-.87.26-1.94.26s-1.94-.12-1.94-.26.87-.26,1.94-.26S346.29,203.4,346.29,203.55Z"></path></g><g style="opacity:0.2"><path d="M346.29,199.46c0,.14-.87.26-1.94.26s-1.94-.12-1.94-.26.87-.26,1.94-.26S346.29,199.32,346.29,199.46Z"></path></g><g style="opacity:0.2"><path d="M346.29,195.37c0,.15-.87.26-1.94.26s-1.94-.11-1.94-.26.87-.26,1.94-.26S346.29,195.23,346.29,195.37Z"></path></g><g style="opacity:0.2"><path d="M346.29,191.29c0,.14-.87.26-1.94.26s-1.94-.12-1.94-.26.87-.26,1.94-.26S346.29,191.14,346.29,191.29Z"></path></g><g style="opacity:0.2"><path d="M346.29,187.2c0,.14-.87.26-1.94.26s-1.94-.12-1.94-.26.87-.26,1.94-.26S346.29,187.06,346.29,187.2Z"></path></g><g style="opacity:0.2"><path d="M346.29,183.11c0,.15-.87.26-1.94.26s-1.94-.11-1.94-.26.87-.26,1.94-.26S346.29,183,346.29,183.11Z"></path></g><g style="opacity:0.2"><path d="M346.29,179c0,.15-.87.26-1.94.26s-1.94-.11-1.94-.26.87-.26,1.94-.26S346.29,178.88,346.29,179Z"></path></g><g style="opacity:0.2"><path d="M346.29,174.94c0,.14-.87.26-1.94.26s-1.94-.12-1.94-.26.87-.26,1.94-.26S346.29,174.79,346.29,174.94Z"></path></g><g style="opacity:0.2"><path d="M346.29,170.85c0,.14-.87.26-1.94.26s-1.94-.12-1.94-.26.87-.26,1.94-.26S346.29,170.71,346.29,170.85Z"></path></g><g style="opacity:0.2"><path d="M346.29,166.76c0,.15-.87.26-1.94.26s-1.94-.11-1.94-.26.87-.26,1.94-.26S346.29,166.62,346.29,166.76Z"></path></g><g style="opacity:0.2"><path d="M346.29,162.67c0,.15-.87.26-1.94.26s-1.94-.11-1.94-.26.87-.26,1.94-.26S346.29,162.53,346.29,162.67Z"></path></g><g style="opacity:0.2"><path d="M346.29,158.59c0,.14-.87.26-1.94.26s-1.94-.12-1.94-.26.87-.26,1.94-.26S346.29,158.44,346.29,158.59Z"></path></g><g style="opacity:0.2"><path d="M346.29,154.5c0,.14-.87.26-1.94.26s-1.94-.12-1.94-.26.87-.26,1.94-.26S346.29,154.36,346.29,154.5Z"></path></g><g style="opacity:0.2"><path d="M346.29,150.41c0,.15-.87.26-1.94.26s-1.94-.11-1.94-.26.87-.26,1.94-.26S346.29,150.27,346.29,150.41Z"></path></g><g style="opacity:0.2"><path d="M346.29,146.32c0,.15-.87.27-1.94.27s-1.94-.12-1.94-.27.87-.26,1.94-.26S346.29,146.18,346.29,146.32Z"></path></g><g style="opacity:0.2"><path d="M346.29,142.24c0,.14-.87.26-1.94.26s-1.94-.12-1.94-.26.87-.26,1.94-.26S346.29,142.09,346.29,142.24Z"></path></g><g style="opacity:0.2"><path d="M346.29,138.15c0,.14-.87.26-1.94.26s-1.94-.12-1.94-.26.87-.26,1.94-.26S346.29,138,346.29,138.15Z"></path></g><g style="opacity:0.2"><path d="M346.29,134.06c0,.15-.87.26-1.94.26s-1.94-.11-1.94-.26.87-.26,1.94-.26S346.29,133.92,346.29,134.06Z"></path></g><g style="opacity:0.2"><path d="M346.29,130c0,.14-.87.26-1.94.26s-1.94-.12-1.94-.26.87-.27,1.94-.27S346.29,129.83,346.29,130Z"></path></g><g style="opacity:0.2"><path d="M346.29,125.89c0,.14-.87.26-1.94.26s-1.94-.12-1.94-.26.87-.26,1.94-.26S346.29,125.74,346.29,125.89Z"></path></g><g style="opacity:0.2"><path d="M346.29,121.8c0,.14-.87.26-1.94.26s-1.94-.12-1.94-.26.87-.26,1.94-.26S346.29,121.66,346.29,121.8Z"></path></g><g style="opacity:0.2"><path d="M346.29,117.71c0,.15-.87.26-1.94.26s-1.94-.11-1.94-.26.87-.26,1.94-.26S346.29,117.57,346.29,117.71Z"></path></g><g style="opacity:0.2"><path d="M346.29,113.63c0,.14-.87.26-1.94.26s-1.94-.12-1.94-.26.87-.26,1.94-.26S346.29,113.48,346.29,113.63Z"></path></g><g style="opacity:0.2"><path d="M346.29,109.54c0,.14-.87.26-1.94.26s-1.94-.12-1.94-.26.87-.26,1.94-.26S346.29,109.39,346.29,109.54Z"></path></g><g style="opacity:0.2"><path d="M346.29,105.45c0,.14-.87.26-1.94.26s-1.94-.12-1.94-.26.87-.26,1.94-.26S346.29,105.31,346.29,105.45Z"></path></g><g style="opacity:0.2"><path d="M346.29,101.36c0,.15-.87.26-1.94.26s-1.94-.11-1.94-.26.87-.26,1.94-.26S346.29,101.22,346.29,101.36Z"></path></g><g style="opacity:0.2"><path d="M346.29,97.28c0,.14-.87.26-1.94.26s-1.94-.12-1.94-.26.87-.26,1.94-.26S346.29,97.13,346.29,97.28Z"></path></g><g style="opacity:0.2"><path d="M346.29,93.19c0,.14-.87.26-1.94.26s-1.94-.12-1.94-.26.87-.26,1.94-.26S346.29,93,346.29,93.19Z"></path></g><g style="opacity:0.2"><path d="M346.29,89.1c0,.15-.87.26-1.94.26s-1.94-.11-1.94-.26.87-.26,1.94-.26S346.29,89,346.29,89.1Z"></path></g><g style="opacity:0.2"><path d="M341.86,89.69c-.14,0-.26-.86-.26-1.92s.12-1.91.26-1.91.26.86.26,1.91S342,89.69,341.86,89.69Z"></path></g><g style="opacity:0.2"><path d="M338,89.69c-.15,0-.26-.86-.26-1.92s.11-1.91.26-1.91.26.86.26,1.91S338.11,89.69,338,89.69Z"></path></g><g style="opacity:0.2"><path d="M334.07,89.69c-.14,0-.26-.86-.26-1.92s.12-1.91.26-1.91.26.86.26,1.91S334.22,89.69,334.07,89.69Z"></path></g><g style="opacity:0.2"><path d="M330.18,89.69c-.15,0-.26-.86-.26-1.92s.11-1.91.26-1.91.26.86.26,1.91S330.32,89.69,330.18,89.69Z"></path></g><g style="opacity:0.2"><path d="M326.28,89.69c-.14,0-.26-.86-.26-1.92s.12-1.91.26-1.91.26.86.26,1.91S326.43,89.69,326.28,89.69Z"></path></g><g style="opacity:0.2"><path d="M322.39,89.69c-.14,0-.26-.86-.26-1.92s.12-1.91.26-1.91.26.86.26,1.91S322.53,89.69,322.39,89.69Z"></path></g><g style="opacity:0.2"><path d="M318.5,89.69c-.15,0-.26-.86-.26-1.92s.11-1.91.26-1.91.26.86.26,1.91S318.64,89.69,318.5,89.69Z"></path></g><g style="opacity:0.2"><path d="M314.6,89.69c-.14,0-.26-.86-.26-1.92s.12-1.91.26-1.91.26.86.26,1.91S314.75,89.69,314.6,89.69Z"></path></g><g style="opacity:0.2"><path d="M310.71,89.69c-.15,0-.26-.86-.26-1.92s.11-1.91.26-1.91.26.86.26,1.91S310.85,89.69,310.71,89.69Z"></path></g><g style="opacity:0.2"><path d="M306.81,89.69c-.14,0-.26-.86-.26-1.92s.12-1.91.26-1.91.26.86.26,1.91S307,89.69,306.81,89.69Z"></path></g><g style="opacity:0.2"><path d="M302.92,89.69c-.14,0-.26-.86-.26-1.92s.12-1.91.26-1.91.26.86.26,1.91S303.06,89.69,302.92,89.69Z"></path></g><g style="opacity:0.2"><path d="M299,89.69c-.15,0-.27-.86-.27-1.92s.12-1.91.27-1.91.26.86.26,1.91S299.17,89.69,299,89.69Z"></path></g><g style="opacity:0.2"><path d="M295.13,89.69c-.14,0-.26-.86-.26-1.92s.12-1.91.26-1.91.26.86.26,1.91S295.27,89.69,295.13,89.69Z"></path></g><g style="opacity:0.2"><path d="M291.24,89.69c-.15,0-.26-.86-.26-1.92s.11-1.91.26-1.91.26.86.26,1.91S291.38,89.69,291.24,89.69Z"></path></g><g style="opacity:0.2"><path d="M287.34,89.69c-.14,0-.26-.86-.26-1.92s.12-1.91.26-1.91.26.86.26,1.91S287.49,89.69,287.34,89.69Z"></path></g><g style="opacity:0.2"><path d="M283.45,89.69c-.15,0-.26-.86-.26-1.92s.11-1.91.26-1.91.26.86.26,1.91S283.59,89.69,283.45,89.69Z"></path></g><g style="opacity:0.2"><path d="M279.55,89.69c-.14,0-.26-.86-.26-1.92s.12-1.91.26-1.91.26.86.26,1.91S279.7,89.69,279.55,89.69Z"></path></g><g style="opacity:0.2"><path d="M275.66,89.69c-.14,0-.26-.86-.26-1.92s.12-1.91.26-1.91.26.86.26,1.91S275.8,89.69,275.66,89.69Z"></path></g><g style="opacity:0.2"><path d="M271.77,89.69c-.15,0-.26-.86-.26-1.92s.11-1.91.26-1.91.26.86.26,1.91S271.91,89.69,271.77,89.69Z"></path></g><g style="opacity:0.2"><path d="M267.87,89.69c-.14,0-.26-.86-.26-1.92s.12-1.91.26-1.91.26.86.26,1.91S268,89.69,267.87,89.69Z"></path></g><g style="opacity:0.2"><path d="M264,89.69c-.15,0-.26-.86-.26-1.92s.11-1.91.26-1.91.26.86.26,1.91S264.12,89.69,264,89.69Z"></path></g><g style="opacity:0.2"><path d="M260.08,89.69c-.14,0-.26-.86-.26-1.92s.12-1.91.26-1.91.26.86.26,1.91S260.23,89.69,260.08,89.69Z"></path></g><g style="opacity:0.2"><path d="M256.19,89.69c-.14,0-.26-.86-.26-1.92s.12-1.91.26-1.91.26.86.26,1.91S256.33,89.69,256.19,89.69Z"></path></g><g style="opacity:0.2"><path d="M252.3,89.69c-.15,0-.26-.86-.26-1.92s.11-1.91.26-1.91.26.86.26,1.91S252.44,89.69,252.3,89.69Z"></path></g><g style="opacity:0.2"><path d="M248.4,89.69c-.14,0-.26-.86-.26-1.92s.12-1.91.26-1.91.26.86.26,1.91S248.55,89.69,248.4,89.69Z"></path></g><g style="opacity:0.2"><path d="M244.51,89.69c-.15,0-.26-.86-.26-1.92s.11-1.91.26-1.91.26.86.26,1.91S244.65,89.69,244.51,89.69Z"></path></g><g style="opacity:0.2"><path d="M241.7,91a9.48,9.48,0,0,1-4.41,0,9.48,9.48,0,0,1,4.41,0Z"></path></g><g style="opacity:0.2"><path d="M241.7,94.28a9.48,9.48,0,0,1-4.41,0,9.48,9.48,0,0,1,4.41,0Z"></path></g><g style="opacity:0.2"><path d="M241.7,97.54a9.48,9.48,0,0,1-4.41,0,9.48,9.48,0,0,1,4.41,0Z"></path></g><g style="opacity:0.2"><path d="M241.7,100.8a9.48,9.48,0,0,1-4.41,0,9.48,9.48,0,0,1,4.41,0Z"></path></g><g style="opacity:0.2"><path d="M241.7,104.05a9.48,9.48,0,0,1-4.41,0,9.48,9.48,0,0,1,4.41,0Z"></path></g><g style="opacity:0.2"><path d="M241.7,107.31a9.48,9.48,0,0,1-4.41,0,9.48,9.48,0,0,1,4.41,0Z"></path></g><g style="opacity:0.2"><path d="M241.7,110.56a9.48,9.48,0,0,1-4.41,0,9.48,9.48,0,0,1,4.41,0Z"></path></g><g style="opacity:0.2"><path d="M241.7,113.82a9.48,9.48,0,0,1-4.41,0,9.48,9.48,0,0,1,4.41,0Z"></path></g><g style="opacity:0.2"><path d="M241.7,117.07a9.14,9.14,0,0,1-4.41,0,9.48,9.48,0,0,1,4.41,0Z"></path></g><g style="opacity:0.2"><path d="M241.7,120.33a9.48,9.48,0,0,1-4.41,0,9.48,9.48,0,0,1,4.41,0Z"></path></g><g style="opacity:0.2"><path d="M241.7,123.59a9.48,9.48,0,0,1-4.41,0,9.48,9.48,0,0,1,4.41,0Z"></path></g><g style="opacity:0.2"><path d="M241.7,126.84a9.48,9.48,0,0,1-4.41,0,9.48,9.48,0,0,1,4.41,0Z"></path></g><g style="opacity:0.2"><path d="M241.7,130.1a9.48,9.48,0,0,1-4.41,0,9.48,9.48,0,0,1,4.41,0Z"></path></g><g style="opacity:0.2"><path d="M241.7,133.35a9.48,9.48,0,0,1-4.41,0,9.48,9.48,0,0,1,4.41,0Z"></path></g><g style="opacity:0.2"><path d="M241.7,136.61a9.48,9.48,0,0,1-4.41,0,9.48,9.48,0,0,1,4.41,0Z"></path></g><g style="opacity:0.2"><path d="M241.7,139.86a9.14,9.14,0,0,1-4.41,0,9.48,9.48,0,0,1,4.41,0Z"></path></g><g style="opacity:0.2"><path d="M241.7,143.12a9.48,9.48,0,0,1-4.41,0,9.48,9.48,0,0,1,4.41,0Z"></path></g><g style="opacity:0.2"><path d="M241.7,146.38a9.48,9.48,0,0,1-4.41,0,9.48,9.48,0,0,1,4.41,0Z"></path></g><g style="opacity:0.2"><path d="M241.7,149.63a9.48,9.48,0,0,1-4.41,0,9.48,9.48,0,0,1,4.41,0Z"></path></g><g style="opacity:0.2"><path d="M241.7,152.89a9.48,9.48,0,0,1-4.41,0,9.48,9.48,0,0,1,4.41,0Z"></path></g><g style="opacity:0.2"><path d="M241.7,156.14a9.48,9.48,0,0,1-4.41,0,9.48,9.48,0,0,1,4.41,0Z"></path></g><g style="opacity:0.2"><path d="M241.7,159.4a9.48,9.48,0,0,1-4.41,0,9.48,9.48,0,0,1,4.41,0Z"></path></g><g style="opacity:0.2"><path d="M241.7,162.66a9.48,9.48,0,0,1-4.41,0,9.14,9.14,0,0,1,4.41,0Z"></path></g><g style="opacity:0.2"><path d="M241.7,165.91a9.48,9.48,0,0,1-4.41,0,9.48,9.48,0,0,1,4.41,0Z"></path></g><g style="opacity:0.2"><path d="M241.7,169.17a9.48,9.48,0,0,1-4.41,0,9.48,9.48,0,0,1,4.41,0Z"></path></g><g style="opacity:0.2"><path d="M241.7,172.42a9.48,9.48,0,0,1-4.41,0,9.48,9.48,0,0,1,4.41,0Z"></path></g><g style="opacity:0.2"><path d="M241.7,175.68a9.48,9.48,0,0,1-4.41,0,9.48,9.48,0,0,1,4.41,0Z"></path></g><g style="opacity:0.2"><path d="M241.7,178.93a9.48,9.48,0,0,1-4.41,0,9.48,9.48,0,0,1,4.41,0Z"></path></g><g style="opacity:0.2"><path d="M241.7,182.19a9.48,9.48,0,0,1-4.41,0,9.48,9.48,0,0,1,4.41,0Z"></path></g><g style="opacity:0.2"><path d="M241.7,185.45a9.48,9.48,0,0,1-4.41,0,9.48,9.48,0,0,1,4.41,0Z"></path></g><g style="opacity:0.2"><path d="M241.7,188.7a9.48,9.48,0,0,1-4.41,0,9.48,9.48,0,0,1,4.41,0Z"></path></g><g style="opacity:0.2"><path d="M241.7,192a9.48,9.48,0,0,1-4.41,0,9.48,9.48,0,0,1,4.41,0Z"></path></g><g style="opacity:0.2"><path d="M241.7,195.21a9.48,9.48,0,0,1-4.41,0,9.48,9.48,0,0,1,4.41,0Z"></path></g><g style="opacity:0.2"><path d="M241.7,198.47a9.48,9.48,0,0,1-4.41,0,9.48,9.48,0,0,1,4.41,0Z"></path></g><g style="opacity:0.2"><path d="M241.7,201.72a9.48,9.48,0,0,1-4.41,0,9.48,9.48,0,0,1,4.41,0Z"></path></g><g style="opacity:0.2"><path d="M241.7,205a9.48,9.48,0,0,1-4.41,0,9.48,9.48,0,0,1,4.41,0Z"></path></g><g style="opacity:0.2"><path d="M241.7,208.24a9.48,9.48,0,0,1-4.41,0,9.48,9.48,0,0,1,4.41,0Z"></path></g><g style="opacity:0.2"><path d="M241.7,211.49a9.48,9.48,0,0,1-4.41,0,9.48,9.48,0,0,1,4.41,0Z"></path></g><g style="opacity:0.2"><path d="M241.7,214.75a9.48,9.48,0,0,1-4.41,0,9.48,9.48,0,0,1,4.41,0Z"></path></g><g style="opacity:0.2"><path d="M241.7,218a9.48,9.48,0,0,1-4.41,0,9.48,9.48,0,0,1,4.41,0Z"></path></g><g style="opacity:0.2"><path d="M241.7,221.26a9.48,9.48,0,0,1-4.41,0,9.48,9.48,0,0,1,4.41,0Z"></path></g><g style="opacity:0.2"><path d="M241.7,224.51a9.48,9.48,0,0,1-4.41,0,9.48,9.48,0,0,1,4.41,0Z"></path></g><g style="opacity:0.2"><path d="M241.7,227.77a9.48,9.48,0,0,1-4.41,0,9.48,9.48,0,0,1,4.41,0Z"></path></g><g style="opacity:0.2"><path d="M241.7,231a9.48,9.48,0,0,1-4.41,0,9.48,9.48,0,0,1,4.41,0Z"></path></g><path d="M261,134a4.25,4.25,0,0,1,2.1,1.79,17.68,17.68,0,0,1,3.14,9.84c6.43,5,11.53,11.69,16.51,18.23a15.73,15.73,0,0,1,19.1-2.43,35.82,35.82,0,0,1,15.5-19.53,9.09,9.09,0,0,1,10.34-10,6.57,6.57,0,0,1,6.82-9.24,15.18,15.18,0,0,1,4.8-12.26,4.93,4.93,0,0,1,3.17-1.42V89.69H241.74V113.5a3.78,3.78,0,0,1,3.93.29,8,8,0,0,1,2.6,4.91,18.33,18.33,0,0,0,1.6,5.42c2.59-.76,5.39.92,6.8,3.21s1.76,5.07,2.08,7.75" style="fill:#fafafa"></path><path d="M262.68,143.06c1.22.78,2.39,1.63,3.52,2.52,1.09-2.8,1.51-6.58-.5-9.44a6.57,6.57,0,0,0-2.66-2.23c-.9-.27-4.15.25-4.29,1.17-.32-2.68-.66-5.45-2.08-7.75s-4.21-4-6.8-3.21a18.33,18.33,0,0,1-1.6-5.42,8,8,0,0,0-2.6-4.91,3.78,3.78,0,0,0-3.93-.29v24.65C248.81,137,256.51,139.13,262.68,143.06Z" style="fill:#455a64"></path><path d="M339.27,110.37a15.18,15.18,0,0,0-4.8,12.26,6.57,6.57,0,0,0-6.82,9.24,9.09,9.09,0,0,0-10.34,10c.59-.36,1.19-.71,1.81-1a35.87,35.87,0,0,1,23.32-3.34V109A4.93,4.93,0,0,0,339.27,110.37Z" style="fill:#455a64"></path><path d="M319.12,140.82c-.62.32-1.22.67-1.81,1a35.82,35.82,0,0,0-15.5,19.53,15.73,15.73,0,0,0-19.1,2.43c-5-6.54-10.08-13.19-16.51-18.23-1.13-.89-2.3-1.74-3.52-2.52-6.17-3.93-13.87-6.07-20.94-4.91v95h100.7V137.48A35.87,35.87,0,0,0,319.12,140.82Z" style="fill:#263238"></path><path d="M309.69,201.61l-53.54,9.22c-4.64,5.7-10.23,14.94-10.59,22.5l91.79.06C335.39,219.32,322.84,203.32,309.69,201.61Z" style="fill:#FF725E"></path><g style="opacity:0.4"><path d="M309.69,201.61l-53.54,9.22c-4.64,5.7-10.23,14.94-10.59,22.5l91.79.06C335.39,219.32,322.84,203.32,309.69,201.61Z"></path></g><path d="M282.66,214.13l-9.74,3.53-4.07,3.73a1.67,1.67,0,0,0-.42,1.52c.33,1.4,1,4,1.34,4.07a17.22,17.22,0,0,0,2.07.28s.8,1.35,1.26,1.36l.47.9a1.48,1.48,0,0,0,1.89.66l2.61-1.14s.37-.73-.19-.91a4.68,4.68,0,0,0-2.11.27s-.6-1.44-.4-1.85a3.5,3.5,0,0,1,1.94-2.13c1.17-.36,8.2-3.3,8.2-3.3Z" style="fill:#ffbe9d"></path><path d="M271.4,227.22c0,.07-.51,0-.93-.62a2.31,2.31,0,0,1-.46-1.17,4.75,4.75,0,0,1,.12-1.49,7.13,7.13,0,0,1,1.44-3.41c.13.06-.52,1.56-.93,3.52a3.12,3.12,0,0,0,.14,2.35C271.07,227,271.43,227.15,271.4,227.22Z" style="fill:#eb996e"></path><path d="M272,227.45c-.07,0-.24-.26-.37-.76a4.12,4.12,0,0,1,0-2,5.11,5.11,0,0,1,1.3-2.49c.16.07-.39,1.21-.79,2.62A14.23,14.23,0,0,0,272,227.45Z" style="fill:#eb996e"></path><path d="M273.28,229a2.69,2.69,0,0,1-.47-2.42,3.13,3.13,0,0,1,1.17-2.18c.13.09-.44,1-.66,2.27A19.41,19.41,0,0,0,273.28,229Z" style="fill:#eb996e"></path><path d="M290.05,144.21a129.22,129.22,0,0,1-3.59-28.78l-11.71.09A23.54,23.54,0,0,0,271.67,132c.64,3.45,2.06,6.85,1.71,10.34-.45,4.34-3.62,8.36-2.85,12.66.68,3.73,4.18,6.32,7.76,7.58a8.71,8.71,0,0,0,5.15.47c2.48-.71,4.08-3.06,5.31-5.32a17.07,17.07,0,0,0,2.27-6.2A21.6,21.6,0,0,0,290.05,144.21Z" style="fill:#263238"></path><path d="M310.71,157.36s2.78,2.12,4.8,8.72c1.22,4,5.71,18.26,8.29,28.32,1.68,6.57-1.83,12.87-8,16l-32,12.34L280,213l25.52-16.77-6.17-22.85c-1-3.47-1.45-7-.18-10.4S305.35,156.71,310.71,157.36Z" style="fill:#FF725E"></path><path d="M323.23,202.92a1.59,1.59,0,0,1-.13.44,6,6,0,0,1-.55,1.2,13,13,0,0,1-3.19,3.68A28.12,28.12,0,0,1,313.2,212c-2.46,1.18-5.33,2-8.24,3.14-5.85,2.16-11.1,4.27-15,5.54-1.94.65-3.53,1.12-4.63,1.43a13.26,13.26,0,0,1-1.73.42,11.07,11.07,0,0,1,1.67-.62c1.08-.37,2.65-.89,4.57-1.58,3.86-1.35,9.08-3.51,14.95-5.68,2.93-1.1,5.79-1.94,8.22-3.09a29.34,29.34,0,0,0,6.13-3.62,14.12,14.12,0,0,0,3.24-3.5,7.06,7.06,0,0,0,.63-1.14A2,2,0,0,1,323.23,202.92Z" style="fill:#263238"></path><path d="M293.69,147.76s14.37,6.47,17,9.6c5.89,7,2,43.44,2,43.44l-25.82,12.43H273.6S270,198.12,267,188.05a30.55,30.55,0,0,1,0-17.88Z" style="fill:#FF725E"></path><path d="M304.89,122.75c-.57-3.53-1.2-7.21-3.28-10.12-2.92-4.09-8.24-5.87-13.26-5.91a17.13,17.13,0,0,0-9.43,2.41,10.41,10.41,0,0,0-4.94,8.09l27,42.23a4.33,4.33,0,0,0,3.81-2,10.66,10.66,0,0,0,1.5-4.24C308.16,143.14,306.52,132.83,304.89,122.75Z" style="fill:#263238"></path><path d="M300.6,113.2l-.05,2.61L300,155c-.06,4.55-4,8.12-8.88,8h0c-4.92-.11-8.91-3.91-8.93-8.51,0-4.82-.12-9.9-.12-9.9s-6.21-1-7.5-9.13c-.64-4-.43-10.64-.09-16a8.54,8.54,0,0,1,9.44-8Z" style="fill:#ffbe9d"></path><path d="M277.16,124.72a1,1,0,0,0,1,1,1,1,0,0,0,1.07-.94,1,1,0,0,0-1-1A1,1,0,0,0,277.16,124.72Z" style="fill:#263238"></path><path d="M275.93,122.57c.13.14.92-.44,2-.44s1.93.56,2.06.42-.08-.3-.43-.56a2.91,2.91,0,0,0-1.65-.51,2.71,2.71,0,0,0-1.62.52C276,122.27,275.87,122.51,275.93,122.57Z" style="fill:#263238"></path><path d="M287.66,124.72a1,1,0,0,0,1,1,1,1,0,0,0,1.08-.94,1,1,0,0,0-1-1A1,1,0,0,0,287.66,124.72Z" style="fill:#263238"></path><path d="M286.93,122.51c.12.13.91-.45,2-.45s1.94.56,2.06.43-.07-.31-.43-.57a2.86,2.86,0,0,0-1.65-.51,2.76,2.76,0,0,0-1.62.53C287,122.2,286.86,122.44,286.93,122.51Z" style="fill:#263238"></path><path d="M282.87,131.36a6.84,6.84,0,0,0-1.82-.33c-.29,0-.56-.09-.6-.28a1.42,1.42,0,0,1,.19-.85c.26-.69.55-1.41.84-2.17a39.14,39.14,0,0,0,1.9-5.69,36,36,0,0,0-2.35,5.52q-.43,1.14-.81,2.19a1.61,1.61,0,0,0-.15,1.12.75.75,0,0,0,.47.42,1.75,1.75,0,0,0,.48.06A7.31,7.31,0,0,0,282.87,131.36Z" style="fill:#263238"></path><path d="M282.09,144.59A20.67,20.67,0,0,0,293,141.7s-2.64,5.57-10.75,4.81Z" style="fill:#eb996e"></path><path d="M289.28,133.09c0,.14-.74.31-1.62,0s-1.36-.92-1.26-1,.67.26,1.43.52S289.27,132.94,289.28,133.09Z" style="fill:#eb996e"></path><path d="M282.77,111c-.58-.61-2.59-.38-3.39-.14a7.48,7.48,0,0,0-3.86,2.85,12.36,12.36,0,0,0-1.92,4.47c3.29-1.31,9.25-3.86,11-6.93Z" style="fill:#263238"></path><path d="M282.16,134.19a.72.72,0,0,1,.59-.53c.26,0,.51,0,.76,0a9.94,9.94,0,0,0,1.15-.33.9.9,0,0,1,1,.48,1.44,1.44,0,0,1-.14,1.26,1.77,1.77,0,0,1-.88.65,3.37,3.37,0,0,1-1.24.21,1.22,1.22,0,0,1-.83-.29,1.48,1.48,0,0,1-.29-1.46" style="fill:#eb996e"></path><path d="M286.53,133.91a3.48,3.48,0,0,1-2.33,1,3.26,3.26,0,0,1-2.5-.47c.05-.15,1.13.12,2.44,0S286.46,133.77,286.53,133.91Z" style="fill:#263238"></path><path d="M275,161.84a222.69,222.69,0,0,0-3.25,24.94c-.17,2.33-1.34,11.71-1.34,11.71l9.68,7-2,8.6c-6.29-1.2-13.91-.5-20.13-2-2-.48-4.1-1.06-5.43-2.6-1.81-2.1-1.59-5.21-1.27-8,.42-3.65,1-7.57,3.49-10.25,2.13-2.26,5.42-3.31,7.18-5.88,1.6-2.32,1.58-5.34,1.93-8.14a28,28,0,0,1,12.76-19.93" style="fill:#FF725E"></path><path d="M282.09,151S268,165.91,267,170.17s14.83,10.76,23.21,7.66,10.59-7.24,10.38-11.07-5-15.77-5-15.77Z" style="fill:#ffbe9d"></path><path d="M304.76,152.41c-.23-10.22-.47-20.46-1.41-30.65,0-.27-.05-.54-.08-.81L301.88,113l-4.53-2.38-13.12.25c1,3.36,4.32,6.66,7.11,8.78,1,.72,3.31,1.15,3.8,2.24a5.86,5.86,0,0,1,.37,2.32c.2,10.54-1.61,21.34-2.89,31.8-.25,2-.42,4.41,1.06,5.84a5.31,5.31,0,0,0,4.63.94,7.91,7.91,0,0,0,4.61-2.34C304.79,158.36,304.83,155.24,304.76,152.41Z" style="fill:#263238"></path><path d="M270.9,197.67a4.14,4.14,0,0,1-.65-.84,23.44,23.44,0,0,1-1.49-2.46,29.46,29.46,0,0,1-3-9,33.15,33.15,0,0,1-.14-9.49,28.51,28.51,0,0,1,.5-2.84,3.93,3.93,0,0,1,.29-1c.09,0-.2,1.49-.42,3.9a37.67,37.67,0,0,0,.28,9.37,32.85,32.85,0,0,0,2.86,8.91C270.15,196.36,271,197.61,270.9,197.67Z" style="fill:#263238"></path><path d="M279.6,206.15a25.13,25.13,0,0,1-1.72-2,43.11,43.11,0,0,0-4.49-4.41,34.87,34.87,0,0,0-5.11-3.64c-1.4-.81-2.33-1.18-2.3-1.26a7.94,7.94,0,0,1,2.47.93,27.4,27.4,0,0,1,5.28,3.57,32.16,32.16,0,0,1,4.43,4.57A9.24,9.24,0,0,1,279.6,206.15Z" style="fill:#263238"></path><path d="M276.19,206.57l3.41-.42,13.18,5.36s-.85,1-1.45.85a13.2,13.2,0,0,1-1.36-.51s6,4.76,5.53,5.44-1.53-.17-2.89-.68a52.2,52.2,0,0,1-4.93-2.64s6.38,6.38,6.29,7.15-.94,1.27-1.45.85-1.78-1.36-1.78-1.36-.6.93-1.45.85a6.88,6.88,0,0,1-1.78-.51s-2,1-2.81.51-7.23-7.33-7.23-7.33l-2.81-.67S273,207.76,276.19,206.57Z" style="fill:#ffbe9d"></path><path d="M285.54,210.1a6.35,6.35,0,0,1,2.43.68,6.17,6.17,0,0,1,2.24,1.17,6.53,6.53,0,0,1-2.43-.68A6.17,6.17,0,0,1,285.54,210.1Z" style="fill:#eb996e"></path><path d="M285.25,215.32a17.5,17.5,0,0,1,2.79,2.55,17,17,0,0,1,2.56,2.78,11.56,11.56,0,0,1-2.93-2.41A11.89,11.89,0,0,1,285.25,215.32Z" style="fill:#eb996e"></path><path d="M284.42,218.91c.11-.09.7.4,1.44,1s1.37,1,1.3,1.16-.83-.14-1.62-.75S284.31,219,284.42,218.91Z" style="fill:#eb996e"></path><g style="opacity:0.2"><path d="M283.76,207.87a9.25,9.25,0,0,1,3.74-5.67c1.83-1.43,3.94-2.46,5.86-3.76a11.11,11.11,0,0,0,4.5-5.15c.54-1.51.56-3.16,1.08-4.67s1.82-3,3.41-2.86a3.16,3.16,0,0,1,2.34,1.54,7,7,0,0,1,.91,2.73,8,8,0,0,1-.3,4.52,9.92,9.92,0,0,1-3.78,3.77c-5.39,3.69-9.52,7-14.91,10.68"></path></g><path d="M269.6,196.94a15.38,15.38,0,0,0-2.37-3.54,15,15,0,0,0-3.55-2.35,2.49,2.49,0,0,1,1.28.26,7.71,7.71,0,0,1,4.37,4.35A2.44,2.44,0,0,1,269.6,196.94Z" style="fill:#263238"></path><path d="M273.05,194.8s-.21-.2-.51-.63a14.25,14.25,0,0,1-1.15-1.88,21.37,21.37,0,0,1-2.17-6.93,21.11,21.11,0,0,1,.3-7.26,13.22,13.22,0,0,1,.61-2.11,2.55,2.55,0,0,1,.33-.74c.09,0-.27,1.12-.58,2.92a23.61,23.61,0,0,0,1.85,14C272.5,193.79,273.13,194.75,273.05,194.8Z" style="fill:#263238"></path><path d="M278,196.23a8.88,8.88,0,0,1-1.31-2.38,21.35,21.35,0,0,1-1.57-6.39,21,21,0,0,1,.46-6.56,8.63,8.63,0,0,1,.88-2.57c.08,0-.23,1-.52,2.64a24.37,24.37,0,0,0,1.1,12.74C277.62,195.27,278.1,196.19,278,196.23Z" style="fill:#263238"></path><path d="M283.59,198s-.2-.19-.49-.59a13,13,0,0,1-1-1.8,18.08,18.08,0,0,1-.82-13.45,12.84,12.84,0,0,1,.82-1.92,2.52,2.52,0,0,1,.4-.65c.09,0-.39,1-.86,2.68a19.81,19.81,0,0,0-.73,6.66,20.23,20.23,0,0,0,1.53,6.52C283.08,197,283.67,197.91,283.59,198Z" style="fill:#263238"></path><path d="M289,196.52a8.54,8.54,0,0,1-1.33-2.23A21.19,21.19,0,0,1,286,182a8.89,8.89,0,0,1,.67-2.51,33.3,33.3,0,0,0-.23,8.71A32.81,32.81,0,0,0,289,196.52Z" style="fill:#263238"></path><path d="M278.38,173.55c.1-.09.94.72,1.36,2a2.82,2.82,0,0,1,0,2.46c-.14,0,0-1.08-.46-2.3S278.27,173.65,278.38,173.55Z" style="fill:#eb996e"></path><path d="M284.85,173.1c0,.07-.36.27-1,.55a11.23,11.23,0,0,0-2.29,1.29A5.37,5.37,0,0,0,280.1,177c-.27.62-.32,1-.4,1s-.14-.46.05-1.16a4.74,4.74,0,0,1,1.49-2.37,7.73,7.73,0,0,1,2.49-1.22C284.4,173.11,284.83,173,284.85,173.1Z" style="fill:#eb996e"></path><path d="M330.49,196.67c-.73-2.3-2.35-4.2-3.58-6.28-2-3.46-3-7.42-3.88-11.35s-1.6-7.91-3.25-11.56-3.89-8.95-8-8.61v0c-4.29.17-8.59,2.52-11.7,5.48a34.66,34.66,0,0,0-9.66,16.42c-1.6,6.23,0,17.68,2,23.81l8.46-5.78a23.89,23.89,0,0,1-1.09-20.16c2.63-6.42,8.78-11.51,15.41-13.55,2.28,6.68,4.3,13.82,6.2,20.28,1.66,5.65,3.84,11.55,2,17.19-.46,1.44-2.43,3.75-1.24,4.66,1.53,1.16,3.79.54,5.3-.64A9.29,9.29,0,0,0,330.49,196.67Z" style="fill:#FF725E"></path><g style="opacity:0.4"><path d="M330.49,196.67c-.73-2.3-2.35-4.2-3.58-6.28-2-3.46-3-7.42-3.88-11.35s-1.6-7.91-3.25-11.56-3.89-8.95-8-8.61v0c-4.29.17-8.59,2.52-11.7,5.48a34.66,34.66,0,0,0-9.66,16.42c-1.6,6.23,0,17.68,2,23.81l8.46-5.78a23.89,23.89,0,0,1-1.09-20.16c2.63-6.42,8.78-11.51,15.41-13.55,2.28,6.68,4.3,13.82,6.2,20.28,1.66,5.65,3.84,11.55,2,17.19-.46,1.44-2.43,3.75-1.24,4.66,1.53,1.16,3.79.54,5.3-.64A9.29,9.29,0,0,0,330.49,196.67Z"></path></g><path d="M302.68,176.93a10.72,10.72,0,0,1,.38,1.58c.25,1.11.58,2.56,1,4.32s.94,4,1.34,6.43c.2,1.23.36,2.52.45,3.88a3.25,3.25,0,0,1-.51,2.11,6.82,6.82,0,0,1-1.62,1.47c-4.59,3.39-8.76,6.43-11.79,8.61l-3.61,2.56a10.06,10.06,0,0,1-1.36.89,9.73,9.73,0,0,1,1.24-1.05l3.51-2.69c3-2.26,7.11-5.35,11.7-8.74,2.95-1.39,1.68-4.65,1.52-7-.37-2.43-.86-4.6-1.23-6.44s-.65-3.32-.8-4.35A8.69,8.69,0,0,1,302.68,176.93Z" style="fill:#263238"></path><path d="M312.81,197.72a11.38,11.38,0,0,0-3-2.42,11.74,11.74,0,0,0-3.79-.82c0-.06.42-.22,1.17-.26a6.35,6.35,0,0,1,5.11,2.42C312.72,197.24,312.87,197.69,312.81,197.72Z" style="fill:#263238"></path><path d="M317.71,163.24a4.94,4.94,0,0,0-1.81-.61,8.83,8.83,0,0,0-5,1.35,29.56,29.56,0,0,0-6.25,4.71,34.61,34.61,0,0,0-6,7.46,23.18,23.18,0,0,0-2.62,9.13,27.32,27.32,0,0,0,.48,7.8,28,28,0,0,0,1.54,5.07c.47,1.16.78,1.78.74,1.81a1.88,1.88,0,0,1-.27-.43c-.15-.3-.41-.72-.66-1.3a26,26,0,0,1-1.71-5.07,27,27,0,0,1-.6-7.91,23.15,23.15,0,0,1,2.65-9.35,33.71,33.71,0,0,1,6.11-7.56,29,29,0,0,1,6.41-4.69,8.74,8.74,0,0,1,5.19-1.22,3.66,3.66,0,0,1,1.38.49A2.5,2.5,0,0,1,317.71,163.24Z" style="fill:#263238"></path><path d="M315.79,160.31a29.4,29.4,0,0,0-7.57,2.34,27,27,0,0,0-7,4.92,28.72,28.72,0,0,0-6.06,8.53,32,32,0,0,0-2.67,10.14,36.41,36.41,0,0,0,.18,8.6,42.58,42.58,0,0,0,1.17,5.7,21.09,21.09,0,0,1,.57,2.06,2.08,2.08,0,0,1-.22-.51c-.13-.34-.34-.83-.54-1.5a36.07,36.07,0,0,1-1.35-5.7,35.67,35.67,0,0,1-.29-8.7,32,32,0,0,1,2.67-10.31,28.68,28.68,0,0,1,6.21-8.65,26.22,26.22,0,0,1,7.18-4.91,22.51,22.51,0,0,1,5.59-1.78,14.21,14.21,0,0,1,1.58-.21A2.08,2.08,0,0,1,315.79,160.31Z" style="fill:#263238"></path><g style="opacity:0.2"><path d="M268.88,196.23c-1.56-.86-3.15-2.3-4.71-3.16a3.19,3.19,0,0,1-1-.72,1,1,0,0,1,1-1.57,3.12,3.12,0,0,1,1.19.72,13.26,13.26,0,0,1-1.36-4.11c-.08-.52,0-1.22.49-1.36s.91.48,1.11,1c1.19,3,3.23,7.32,4.68,10.11"></path></g></g><g id="Character"><path d="M211.13,139.46c3.26-.32,6-2.58,8.07-5.14s3.61-5.48,5.76-7.95c1.6-1.85,1.86-5.59,4.22-6.19,3-.75,4.41-5,4.22-7.42-.21-2.65-2.35-5.32-2.29-6.11.18-2.08,2.57-3.57,2.6-5.66.09-4.91-3.7-5.58-3.7-5.58-.94-2.55-2.24-5.94-5.5-8.12-3.54-2.37-9-5.12-13.18-4.29s-7.2,1.31-9.66,4.77" style="fill:#e0e0e0"></path><path d="M199.06,153.87l2.71-7.65s10.66,2.15,14.5-7.89c1.85-4.85,4.86-15.14,7.47-24.48a20,20,0,0,0-12.36-24.19l-1-.36c-10.72-3.25-19.47,4-22.42,14.84l-14.45,38.58" style="fill:#ffbe9d"></path><path d="M220.3,120.38a1.54,1.54,0,0,1-1.93,1,1.46,1.46,0,0,1-1-1.85,1.53,1.53,0,0,1,1.92-.94A1.47,1.47,0,0,1,220.3,120.38Z" style="fill:#263238"></path><path d="M221.63,117.62c-.24.12-1-1.09-2.59-1.66s-3-.21-3.07-.46.26-.38.88-.56a4.22,4.22,0,0,1,2.55.13,4.14,4.14,0,0,1,2,1.56C221.72,117.17,221.75,117.57,221.63,117.62Z" style="fill:#263238"></path><path d="M205.65,114.89a1.53,1.53,0,0,1-1.92.94,1.47,1.47,0,0,1-1-1.84,1.54,1.54,0,0,1,1.92-.95A1.48,1.48,0,0,1,205.65,114.89Z" style="fill:#263238"></path><path d="M206.76,112.14c-.23.15-1.15-1-2.75-1.36s-3,.11-3.11-.13.21-.41.82-.66a4.27,4.27,0,0,1,2.54-.14,4.07,4.07,0,0,1,2.14,1.33C206.8,111.68,206.88,112.07,206.76,112.14Z" style="fill:#263238"></path><path d="M207.84,127.18a11,11,0,0,1,2.68.48c.41.1.82.16,1-.08a2.16,2.16,0,0,0,.17-1.27q0-1.65-.06-3.45c0-4.89.08-8.85.28-8.85s.39,4,.43,8.85c0,1.2,0,2.35,0,3.45a2.48,2.48,0,0,1-.37,1.63,1,1,0,0,1-.86.33,2.68,2.68,0,0,1-.71-.15A10.35,10.35,0,0,1,207.84,127.18Z" style="fill:#263238"></path><path d="M202.85,126.49c.26.07-.36,1.76.64,3.48s2.86,2.2,2.79,2.44-.52.18-1.29-.08a4.45,4.45,0,0,1-2.36-1.94,3.91,3.91,0,0,1-.43-2.88C202.4,126.78,202.74,126.43,202.85,126.49Z" style="fill:#263238"></path><path d="M209.14,106.7c-.28.39-1.81-.25-3.74-.54s-3.58-.2-3.73-.66c0-.21.32-.55,1.05-.8a6.57,6.57,0,0,1,5.68.91C209,106.08,209.26,106.51,209.14,106.7Z" style="fill:#e0e0e0"></path><path d="M222.9,112.7c-.4.25-1.33-.51-2.61-1s-2.46-.63-2.57-1.09c-.05-.22.25-.51.85-.67a3.9,3.9,0,0,1,2.35.21,3.81,3.81,0,0,1,1.83,1.48C223.07,112.16,223.08,112.57,222.9,112.7Z" style="fill:#e0e0e0"></path><path d="M202.68,87.31a8.13,8.13,0,0,0,6.41,10.75c1.83.29,4,.08,5.17,1.51s.47,3.88,1.44,5.57c1.38,2.41,5.09,1.89,7.34,3.51,1.74,1.26,2.3,3.54,3.05,5.55s2.16,4.16,4.3,4.27a24.27,24.27,0,0,0,1-5.45,8.06,8.06,0,0,0-1.46-5.24c-.62-.81-1.44-1.45-2-2.31-1.16-1.87-.74-4.26-1.1-6.42a8.92,8.92,0,0,0-4.93-6.5c-2.13-1-4.63-1.13-6.6-2.42-1.45-1-2.48-2.48-4-3.35-2.94-1.69-6.64-.46-9.7,1" style="fill:#e0e0e0"></path><path d="M211.17,95.29c-1.27-.9-3.83-2.81-4.16-4.3a9.12,9.12,0,0,0-6-6.91,7.53,7.53,0,0,0-8.36,3.38A10.82,10.82,0,0,0,181.92,90a12.55,12.55,0,0,0-3.52,11.12,6.15,6.15,0,0,1,.2,3.12c-.42,1.25-1.69,1.92-2.7,2.73-2.77,2.19-4,6.11-3.68,9.66s.89,5,2.64,6.26c3.41,2.54-3.92,8.57,2.45,10.79l6.87-7.88c.13.14,5.38-8.59,5.62-8.48,4.78,2.19,7.27-10.16,7.17-12.57,1.78-.73,1-1.58,2.56-2.75a16.84,16.84,0,0,0,4.4-7C205.26,95.57,211.72,95.68,211.17,95.29Z" style="fill:#e0e0e0"></path><path d="M191.16,114.13c-.14-.14-6.17-4.6-8.49,2.37s5.16,7.87,5.24,7.67S191.16,114.13,191.16,114.13Z" style="fill:#ffbe9d"></path><path d="M186.66,120.82s-.15,0-.39.07a1.28,1.28,0,0,1-.91-.28,3.17,3.17,0,0,1-.5-3.16,4.39,4.39,0,0,1,.92-1.63,1.47,1.47,0,0,1,1.23-.63.66.66,0,0,1,.6.57c0,.23-.06.35,0,.38s.19-.07.23-.38a.78.78,0,0,0-.13-.52.89.89,0,0,0-.61-.4,1.79,1.79,0,0,0-1.63.65,4.41,4.41,0,0,0-1.07,1.81c-.42,1.42-.14,3,.77,3.6a1.41,1.41,0,0,0,1.18.19C186.59,121,186.68,120.84,186.66,120.82Z" style="fill:#eb996e"></path><path d="M201.77,146.22s-1.89.11-8.49-5c0,0,2.74,5.77,7.56,7.67Z" style="fill:#eb996e"></path><path d="M208.75,108.05c0,.06.23.17.61.38s.88.55,1.47.9a4.42,4.42,0,0,0,1.65.64c.46.07.74,0,.74-.06s-.28-.08-.68-.2A7.6,7.6,0,0,1,211,109a9.74,9.74,0,0,0-1.54-.81C209.05,108,208.76,108,208.75,108.05Z" style="fill:#eb996e"></path><path d="M206.52,103.9c0,.06.45.2,1.1.65a14.34,14.34,0,0,1,2.26,2.08,8.4,8.4,0,0,0,2.49,1.93,2.19,2.19,0,0,0,1.28.28c0-.07-.48-.14-1.16-.52a10.75,10.75,0,0,1-2.34-2,10.73,10.73,0,0,0-2.39-2A2.36,2.36,0,0,0,206.52,103.9Z" style="fill:#eb996e"></path><path d="M198.89,125.68c.1,0,.4-.46,1-.71s1.17-.15,1.2-.25-.11-.16-.36-.22a1.68,1.68,0,0,0-1,.12,1.6,1.6,0,0,0-.76.64C198.86,125.49,198.85,125.66,198.89,125.68Z" style="fill:#eb996e"></path><path d="M197.46,125.84c.11,0,.37-.52.9-1s1.1-.67,1.08-.78-.72-.06-1.34.5S197.36,125.82,197.46,125.84Z" style="fill:#eb996e"></path><path d="M185.64,123.68c-.06-.49-.77.44-1.14.1a2.18,2.18,0,0,0-1.19-.43A39.49,39.49,0,0,0,177,123l-.75,9.48c.79,1.12,2.33,1.35,3.69,1.49a5.1,5.1,0,0,0,3.54-.49,4.6,4.6,0,0,0,1.51-3.24C185.19,128.53,185.83,125.36,185.64,123.68Z" style="fill:#e0e0e0"></path><path d="M199.81,110.94c0,.06-.11.22-.41.34a2.13,2.13,0,0,1-1.25.06,2.09,2.09,0,0,1-1.07-.66c-.21-.26-.25-.46-.2-.5s.6.46,1.4.65S199.74,110.81,199.81,110.94Z" style="fill:#eb996e"></path><path d="M199.48,112c0,.14-.59.15-1.27.18s-1.24,0-1.28-.1.52-.4,1.26-.42S199.51,111.81,199.48,112Z" style="fill:#eb996e"></path><path d="M204.15,120.92a4.81,4.81,0,0,0,1.12.06,2.48,2.48,0,0,0,2.1-1.85,6.23,6.23,0,0,0,.57-2,2.34,2.34,0,0,0-1.05-1.91,7.32,7.32,0,0,0-1.18-.51l-1.31-.5-2.75-1.06a2.3,2.3,0,0,0-2.45.52,2.91,2.91,0,0,0-.65,1.11c-.16.42-.34.86-.48,1.24a2.35,2.35,0,0,0,.4,2.13,3.7,3.7,0,0,0,1.75,1l2.89,1.21a5.64,5.64,0,0,1,1,.51,4.3,4.3,0,0,1-1.11-.32l-3-1.06c-.31-.12-.62-.22-1-.37a2.62,2.62,0,0,1-1-.74,2.71,2.71,0,0,1-.52-2.54c.14-.45.31-.84.47-1.28a3.35,3.35,0,0,1,.75-1.29,2.8,2.8,0,0,1,3-.65l2.75,1.08,1.3.51a6.79,6.79,0,0,1,1.27.57,2.79,2.79,0,0,1,1.21,2.31,3.14,3.14,0,0,1-.26,1.17q-.21.5-.39,1a2.89,2.89,0,0,1-1.11,1.48,2.64,2.64,0,0,1-1.33.44,2.28,2.28,0,0,1-.86-.13C204.23,121,204.14,120.94,204.15,120.92Z" style="fill:#263238"></path><path d="M219.22,126.88a5,5,0,0,0,1.12.06,2.49,2.49,0,0,0,2.11-1.84,6.64,6.64,0,0,0,.57-2,2.37,2.37,0,0,0-1.05-1.91,7.32,7.32,0,0,0-1.18-.51l-1.31-.5-2.75-1.06a2.3,2.3,0,0,0-2.45.52,2.79,2.79,0,0,0-.65,1.11c-.16.42-.35.86-.48,1.24a2.35,2.35,0,0,0,.4,2.13,3.72,3.72,0,0,0,1.74,1l2.9,1.21a4.91,4.91,0,0,1,1,.51,4.42,4.42,0,0,1-1.1-.32l-3-1c-.31-.13-.62-.22-1-.38a2.62,2.62,0,0,1-1-.73,2.77,2.77,0,0,1-.53-2.55c.15-.45.32-.84.48-1.28a3.23,3.23,0,0,1,.75-1.29,2.82,2.82,0,0,1,3-.65l2.75,1.08,1.3.51a7.16,7.16,0,0,1,1.27.58,2.76,2.76,0,0,1,1.21,2.3,3.14,3.14,0,0,1-.26,1.17l-.4,1a2.83,2.83,0,0,1-1.1,1.48,2.67,2.67,0,0,1-1.33.44,2.34,2.34,0,0,1-.87-.13C219.31,127,219.22,126.9,219.22,126.88Z" style="fill:#263238"></path><path d="M214.12,119a4.56,4.56,0,0,0-.41-.88,4,4,0,0,0-1.93-1.19,11,11,0,0,0-3.35-.34c0-.06.34-.27,1-.38a5.3,5.3,0,0,1,2.54.22A3.61,3.61,0,0,1,214,118C214.33,118.58,214.21,119.06,214.12,119Z" style="fill:#263238"></path><path d="M202.65,118.88c-.13.07-.61-.66-1.15-1.59s-.93-1.71-.81-1.79.72.59,1.26,1.53S202.78,118.82,202.65,118.88Z" style="fill:#fff"></path><path d="M203.61,118.57c-.12.08-.72-.68-1.34-1.69s-1-1.9-.9-2,.73.69,1.34,1.7S203.73,118.5,203.61,118.57Z" style="fill:#fff"></path><path d="M217.79,124.44c-.12.08-.68-.52-1.24-1.35s-.92-1.57-.8-1.65.67.52,1.23,1.35S217.91,124.36,217.79,124.44Z" style="fill:#fff"></path><path d="M218.72,124.62c-.12.07-.79-.75-1.49-1.84a5.61,5.61,0,0,1-1-2.13c.12-.07.79.75,1.49,1.84A5.61,5.61,0,0,1,218.72,124.62Z" style="fill:#fff"></path><path d="M177.89,104.13a10.9,10.9,0,0,0,3.22.05,8.49,8.49,0,0,0,3.28-1.26,7.79,7.79,0,0,0,2.87-3.26l.11-.23.23.1a11.51,11.51,0,0,0,2.65.82,12.81,12.81,0,0,0,9.44-2.1,17.39,17.39,0,0,0,3-2.85,4,4,0,0,1-.59,1,11.14,11.14,0,0,1-2.19,2.18,12.76,12.76,0,0,1-9.75,2.31,11.34,11.34,0,0,1-2.77-.87l.34-.12a8.11,8.11,0,0,1-3.1,3.42,8.48,8.48,0,0,1-3.48,1.22,7.23,7.23,0,0,1-2.43-.1A2.36,2.36,0,0,1,177.89,104.13Z" style="fill:#fafafa"></path><polygon points="144.73 436.16 143.22 471.9 123.92 471.46 125.37 435.66 144.73 436.16" style="fill:#FF725E"></polygon><path d="M133.74,470.34c-.16,0,.14-7.84.67-17.48s1.09-17.45,1.25-17.44-.13,7.83-.66,17.47S133.91,470.34,133.74,470.34Z" style="fill:#263238"></path><polygon points="143.32 469.43 124.03 468.94 123.92 471.46 143.22 471.9 143.32 469.43" style="fill:#263238"></polygon><path d="M124.39,460s.15-.3.53-.76a13.23,13.23,0,0,1,1.8-1.75,12.87,12.87,0,0,1,3.21-1.95,10.26,10.26,0,0,1,11.9,2.79,8.85,8.85,0,0,1,1.32,2.16c.22.55.3.87.26.89a18.22,18.22,0,0,0-1.89-2.78,10.25,10.25,0,0,0-7.08-3.31,11.85,11.85,0,0,0-7.47,2.52C125.3,459.07,124.46,460.09,124.39,460Z" style="fill:#263238"></path><g style="opacity:0.30000000000000004"><polygon points="144.27 450.6 143.84 455.5 124.64 453.78 124.82 449.31 144.27 450.6"></polygon></g><path d="M212.68,437.75l-.82,21.45s21.42,7.6,21.65,11.58l-41.54.34-.09-33.47Z" style="fill:#FF725E"></path><path d="M199.26,457.45a1.72,1.72,0,0,0-1.19,1.95,1.65,1.65,0,0,0,1.93,1.19,1.8,1.8,0,0,0,1.24-2.07,1.7,1.7,0,0,0-2.14-1" style="fill:#e0e0e0"></path><path d="M192,471.12v-2.67l40.33.48a3.19,3.19,0,0,1,1.43,2.07Z" style="fill:#263238"></path><path d="M212.24,459.34c0,.21-1,.3-2,1s-1.55,1.52-1.74,1.44.12-1.27,1.35-2S212.28,459.15,212.24,459.34Z" style="fill:#263238"></path><path d="M216.63,461.17c.05.2-.84.55-1.54,1.41s-.9,1.78-1.1,1.77-.33-1.17.55-2.22S216.63,461,216.63,461.17Z" style="fill:#263238"></path><path d="M219.12,466.44c-.19.05-.47-1,.06-2.1s1.49-1.56,1.57-1.39-.51.77-.93,1.7S219.32,466.42,219.12,466.44Z" style="fill:#263238"></path><path d="M211.88,454.4c-.09.18-1-.1-2.18,0s-2.07.44-2.17.27.76-.91,2.13-1S212,454.24,211.88,454.4Z" style="fill:#263238"></path><path d="M212.64,449.78a4,4,0,0,1-2.1,0,9.08,9.08,0,0,1-2.2-.68,10,10,0,0,1-1.2-.64,2.49,2.49,0,0,1-.64-.5.91.91,0,0,1-.09-1.09,1.12,1.12,0,0,1,.9-.46,2.64,2.64,0,0,1,.79.11,7.37,7.37,0,0,1,1.3.45,7.58,7.58,0,0,1,1.94,1.27c1,.91,1.3,1.67,1.23,1.71s-.57-.57-1.56-1.32a8.53,8.53,0,0,0-1.87-1.06,7.3,7.3,0,0,0-1.2-.37c-.45-.12-.82-.12-.94.07s-.05.11.05.24a1.84,1.84,0,0,0,.46.36c.37.24.75.45,1.11.64a12,12,0,0,0,2,.78A15,15,0,0,1,212.64,449.78Z" style="fill:#263238"></path><g style="opacity:0.30000000000000004"><polygon points="191.86 450.51 191.93 455.26 212.01 455.17 211.99 450.85 191.86 450.51"></polygon></g><path d="M203.8,249l6.51,94.62s2.53,38,2.53,50,3.79,58.08,3.79,58.08H187.57L166.43,288s-2.4-2-2.74,0-5.87,62.62-7.17,72c-1.05,7.48-10.44,92.06-10.44,92.06l-27.62-3.31s2.83-72.78,4.2-97.12l3.72-85.62,8.12-27.38h58Z" style="fill:#263238"></path><path d="M140.91,282.11c0,.22,8.74,1.71,19.59,3.32s19.67,2.76,19.7,2.54-8.73-1.71-19.58-3.32S141,281.89,140.91,282.11Z" style="fill:#455a64"></path><path d="M189.92,330.33a3.57,3.57,0,0,1-.69.1l-2,.19c-1.74.15-4.25.35-7.37.51a101.28,101.28,0,0,1-11,0,34.69,34.69,0,0,1-6.44-.89,55.57,55.57,0,0,1-6.5-2.49,11.17,11.17,0,0,0-6.65-.77c-2.16.44-4.13,1.36-6.15,1.91a9,9,0,0,1-5.88,0,5.44,5.44,0,0,1-2.22-1.58,4.73,4.73,0,0,1-1-2.3c-.23-1.56-.23-3-1-4a4.57,4.57,0,0,0-2.58-1.58,18.79,18.79,0,0,0-2.66-.38,8,8,0,0,1,2.71.19,4.78,4.78,0,0,1,2.77,1.6,4.43,4.43,0,0,1,.78,1.87c.14.71.19,1.45.34,2.2a4.53,4.53,0,0,0,3,3.55,8.64,8.64,0,0,0,5.59-.05c2-.53,3.94-1.47,6.18-1.94a11.67,11.67,0,0,1,6.94.78,55,55,0,0,0,6.44,2.48,34.12,34.12,0,0,0,6.34.91c4.09.26,7.81.17,10.92.07s5.62-.26,7.36-.34l2-.1A3.4,3.4,0,0,1,189.92,330.33Z" style="fill:#263238"></path><path d="M154.24,138.78s-10.2.43-17,12c-8.3,14-23,43.14-24.28,46.3-2.07,5.23-2.92,15.48,4,18.73s22-.31,22-.31Z" style="fill:#e0e0e0"></path><path d="M210.36,157.22s6.74,3.71,8.57,13.3c2,10.56,4.85,30.74,4.85,30.74l9.15-16.55s13.57-.44,15.57,6.93l-5.3,16s-.93,6.45-2.51,8.84c-1.84,2.79-13.88,19.74-13.88,19.74s-12.7,7-18.62-4.24-18.27-46.08-18.27-46.08Z" style="fill:#e0e0e0"></path><path d="M207.16,239.88c0-.14,0-.28,0-.42l.94-44.26,2.27-38s-17.08-10.79-27.21-14.6-27.84-4.22-30-3.71c0,0-8.65,15.62-9.48,19.59s-13.24,66.72-13.24,66.72l-17,89.94a4.44,4.44,0,0,0,5.48,5.14,31,31,0,0,1,10-1.16l.66.09c2.74.6,4.37,1.68,4.36,3.49l.09,1.14c.33,4,3.81,6,7.71,5.17a4,4,0,0,0,.56-.17c4.52-1.63,8.92-3.05,11.83-2,4.58,1.7,6.18,2.88,11.34,3.74,8.67,1.44,33.85-1,44-2a4.44,4.44,0,0,0,4-4.75Z" style="fill:#e0e0e0"></path><path d="M144,156.88a2.19,2.19,0,0,1-.1.62c-.09.45-.22,1-.38,1.74l-1.42,6.39c-1.19,5.4-2.69,12.89-4.2,21.19s-2.85,15.76-3.85,21.27c-.51,2.71-.94,4.91-1.25,6.43-.16.71-.28,1.29-.38,1.74a2.77,2.77,0,0,1-.16.6,2.41,2.41,0,0,1,.06-.62c.07-.46.16-1,.28-1.76.27-1.59.64-3.78,1.09-6.46.93-5.45,2.19-13,3.69-21.3s3.08-15.79,4.36-21.17c.64-2.69,1.18-4.87,1.59-6.36.19-.7.35-1.27.47-1.72A4.7,4.7,0,0,1,144,156.88Z" style="fill:#263238"></path><path d="M193,177.46a2.33,2.33,0,0,1,.1.56c.05.42.12.95.2,1.6.14,1.4.38,3.42.7,5.91a155.84,155.84,0,0,0,3.67,19.25,129.56,129.56,0,0,0,6.47,18.49c1,2.3,1.87,4.15,2.49,5.41.28.59.5,1.08.68,1.46a1.81,1.81,0,0,1,.21.53,2.23,2.23,0,0,1-.3-.48l-.77-1.42c-.68-1.24-1.58-3.06-2.64-5.35a114.61,114.61,0,0,1-6.64-18.5,134.55,134.55,0,0,1-3.53-19.34c-.28-2.5-.46-4.53-.55-5.94,0-.65-.07-1.19-.09-1.62A2,2,0,0,1,193,177.46Z" style="fill:#263238"></path><path d="M211,160.11a21.81,21.81,0,0,0-2.73-.05,12.1,12.1,0,0,0-6,2.44,24.13,24.13,0,0,0-4.5,4.77,20.71,20.71,0,0,1-1.68,2.19,11.32,11.32,0,0,1,1.38-2.4,20.5,20.5,0,0,1,4.49-5,11.45,11.45,0,0,1,6.25-2.4,8,8,0,0,1,2,.17A1.85,1.85,0,0,1,211,160.11Z" style="fill:#263238"></path><path d="M224.91,219.87c-.08,0,.21-1.08.5-2.81a29.63,29.63,0,0,0-.89-13.54c-.51-1.68-.94-2.69-.86-2.73a2.7,2.7,0,0,1,.4.67,18,18,0,0,1,.81,1.94,25.33,25.33,0,0,1,.9,13.73,17.2,17.2,0,0,1-.56,2A2.29,2.29,0,0,1,224.91,219.87Z" style="fill:#263238"></path><path d="M229.78,215.93c-.09,0,.07-1,.05-2.46a17.59,17.59,0,0,0-1.09-5.75,17.26,17.26,0,0,0-3-5c-1-1.15-1.72-1.75-1.66-1.82a7.06,7.06,0,0,1,1.94,1.57,15.32,15.32,0,0,1,4.17,11A7.06,7.06,0,0,1,229.78,215.93Z" style="fill:#263238"></path><polygon points="171.54 139.88 174.67 136.56 201.76 149.27 203.23 152.9 171.54 139.88" style="fill:#e0e0e0"></polygon><path d="M130.45,225.22c-.15.87-.75,4.23-2,11.29v-.06a26.1,26.1,0,0,0,7.11,11.28,32.94,32.94,0,0,0,15.75,7.9,43.67,43.67,0,0,0,21.08-1.16,52.74,52.74,0,0,0,10.73-4.53,48.33,48.33,0,0,0,9.71-7.3l-.08.16c0-.15,0-.31,0-.47.34-4,.67-7.94,1-11.68l.43.21c-7.79,7.67-17.11,13-26.27,14.88a36,36,0,0,1-6.75.78,31.67,31.67,0,0,1-3.25-.12,28.58,28.58,0,0,1-3.12-.4,32.86,32.86,0,0,1-10.68-3.87,30.73,30.73,0,0,1-7.33-5.76,26.64,26.64,0,0,1-4.11-5.67c-.22-.42-.46-.81-.63-1.19l-.48-1.1c-.15-.33-.28-.64-.41-.93s-.17-.55-.25-.78l-.47-1.48c.1.25.24.63.54,1.41.09.24.19.51.29.81l.43.92.49,1.07c.18.38.43.76.66,1.18a26.78,26.78,0,0,0,4.14,5.57,30.71,30.71,0,0,0,7.3,5.65,32.69,32.69,0,0,0,10.58,3.77A28.16,28.16,0,0,0,158,246c1,.12,2.12.09,3.21.11a37,37,0,0,0,6.67-.79c9-1.92,18.27-7.2,26-14.81l.5-.49-.06.69c-.31,3.74-.64,7.68-1,11.68,0,.16,0,.33,0,.47v.1l-.07.07a48.38,48.38,0,0,1-9.82,7.38A53,53,0,0,1,172.52,255a44,44,0,0,1-21.31,1.12A33.16,33.16,0,0,1,135.3,248a26.11,26.11,0,0,1-7.1-11.47v-.06C129.61,229.43,130.28,226.08,130.45,225.22Z" style="fill:#263238"></path><path d="M195.85,201.69a7.7,7.7,0,0,1-.57,2.19,28.4,28.4,0,0,1-2.33,5,27.63,27.63,0,0,1-3.23,4.41,7.88,7.88,0,0,1-1.65,1.56c-.12-.11,2.29-2.59,4.43-6.23S195.69,201.63,195.85,201.69Z" style="fill:#263238"></path><path d="M191.55,221a19.88,19.88,0,0,1,1.09-2.53,52.46,52.46,0,0,0,2.3-6.21,54,54,0,0,0,1.49-6.45,19.55,19.55,0,0,1,.49-2.71,12.08,12.08,0,0,1-.12,2.76,38.56,38.56,0,0,1-1.36,6.55,37.49,37.49,0,0,1-2.47,6.21A11.17,11.17,0,0,1,191.55,221Z" style="fill:#263238"></path><path d="M189.92,329.93a1.4,1.4,0,0,1,0-.3l-.07-.89c0-.82-.11-2-.2-3.43-.14-3-.35-7.27-.49-12.6-.28-10.64-.48-25.37.69-41.6.3-4.05.67-8,1.15-11.81s1-7.45,1.33-11c.72-7,1.16-13.32,1.63-18.62s.9-9.6,1.28-12.55c.18-1.48.35-2.62.47-3.4.05-.36.1-.65.14-.88a1.21,1.21,0,0,1,.06-.3,1.06,1.06,0,0,1,0,.31c0,.23-.05.52-.09.89-.09.81-.21,2-.37,3.4-.31,3-.72,7.25-1.12,12.56s-.82,11.63-1.51,18.64c-.33,3.51-.83,7.18-1.3,11s-.84,7.75-1.14,11.79c-1.16,16.2-1,30.92-.85,41.55.1,5.32.25,9.63.34,12.61,0,1.45.07,2.6.1,3.42,0,.37,0,.66,0,.89A1.5,1.5,0,0,1,189.92,329.93Z" style="fill:#263238"></path><polygon points="197.08 260.06 198.06 269.72 211.66 267.63 208.79 258.16 197.08 260.06" style="fill:#e0e0e0"></polygon><path d="M208.79,258.16a3.56,3.56,0,0,1-.86.23l-2.41.46c-2.07.38-5,.88-8.4,1.45l.21-.27c.2,1.75.42,3.65.65,5.63.15,1.33.29,2.63.43,3.87l-.28-.23c3.87-.54,7.25-1,9.66-1.29l2.84-.32a4.44,4.44,0,0,1,1-.06,4.7,4.7,0,0,1-1,.23l-2.82.48c-2.4.39-5.77.9-9.64,1.47l-.26,0,0-.26c-.14-1.23-.29-2.53-.44-3.86-.22-2-.43-3.88-.62-5.63l0-.24.23,0c3.42-.54,6.35-1,8.43-1.27l2.44-.33A4.83,4.83,0,0,1,208.79,258.16Z" style="fill:#263238"></path><path d="M202.72,152.36a7,7,0,0,1-1.25-.41,31.93,31.93,0,0,0-3.45-1c-1.48-.34-3.25-.65-5.24-1a49,49,0,0,1-6.4-1.43,35.59,35.59,0,0,1-10.44-5.7c-1.22-.91-2.18-1.69-2.83-2.23a7.12,7.12,0,0,1-1-.88,5.89,5.89,0,0,1,1.11.72l2.93,2.09a38.77,38.77,0,0,0,10.38,5.51,55.54,55.54,0,0,0,6.33,1.45c2,.36,3.76.71,5.23,1.1a24.21,24.21,0,0,1,3.44,1.13A5.53,5.53,0,0,1,202.72,152.36Z" style="fill:#263238"></path><path d="M138,268c.14,0-.52,12.54-1.48,28s-1.86,28-2,28,.52-12.54,1.48-28S137.87,268,138,268Z" style="fill:#263238"></path><path d="M153.94,291.66a5.73,5.73,0,0,1-.09,1.18c-.12.86-.25,1.92-.42,3.18-.35,2.69-.82,6.41-1.23,10.52s-.67,7.85-.85,10.56c-.09,1.26-.16,2.34-.22,3.2a4.59,4.59,0,0,1-.14,1.18,6.4,6.4,0,0,1-.06-1.19c0-.75,0-1.85,0-3.21.08-2.72.3-6.46.71-10.59s.93-7.84,1.38-10.52c.22-1.34.42-2.42.58-3.16A4.56,4.56,0,0,1,153.94,291.66Z" style="fill:#263238"></path><path d="M244.69,158.32a.86.86,0,0,0-1.24-.56l-6.37,4.87c-.12.64-.39,5.57-.39,5.57l5.25-3.43-.17-2.6S244.6,159.93,244.69,158.32Z" style="fill:#455a64"></path><path d="M242.74,163.22l.81-1.14s.88-4.31,1.88-4.71,3.1,0,3.37,1.14a18.63,18.63,0,0,1,.33,2.89s2.22-.94,3,1.15l.47,1.34s2.62-.4,2.29,2.69c0,0,2,.14,1.75,3.23a19.42,19.42,0,0,1-2,6.93c-.4.67-3.81,5.4-4.14,5.8s-1.47,1.57-1.47,1.57.37,8.59-.3,9.26-4.74-4.63-11.51-5.65c-9.43-1.42-4-4-2.88-5.67s1.21-2,1.21-2,1-11.64,1.07-11.9S242.74,163.22,242.74,163.22Z" style="fill:#455a64"></path><path d="M221.57,173.19,244,160.35l-.35,2.37-21.4,11.65a.68.68,0,0,1-1-.34h0A.67.67,0,0,1,221.57,173.19Z" style="fill:#e0e0e0"></path><path d="M248.5,165c-.14-.06.11-.92.27-2s.19-2,.34-2,.35.91.17,2.06S248.62,165.09,248.5,165Z" style="fill:#263238"></path><path d="M252.57,165.63c-.14,0-.25-.44-.24-1s.13-1,.27-1,.26.44.25,1S252.71,165.64,252.57,165.63Z" style="fill:#263238"></path><path d="M254.25,168.06c-.12-.08,0-.51.22-1s.33-.95.47-.94.23.53,0,1.11S254.36,168.15,254.25,168.06Z" style="fill:#263238"></path><path d="M244.69,158.32c.07,0-.1.47-.25,1.21s-.33,1.76-.5,2.91a5.86,5.86,0,0,1-.18.87,2,2,0,0,1-.48.76,3.58,3.58,0,0,1-1.22.71,3.21,3.21,0,0,1-1.21.32c0-.07.38-.31,1.06-.66a3.81,3.81,0,0,0,1-.71,2.18,2.18,0,0,0,.48-1.37,17.52,17.52,0,0,1,.66-2.93C244.33,158.69,244.63,158.29,244.69,158.32Z" style="fill:#263238"></path><path d="M249.36,154.7a2.61,2.61,0,0,1,.19,2.44,3,3,0,0,0-.48,1.32,1.14,1.14,0,0,0,1,1,1.61,1.61,0,0,0,1.36-.66,2.81,2.81,0,0,0,.53-1.46,5.44,5.44,0,0,0-.51-2.83.86.86,0,0,1-.6.17c0,.35,0,.69,0,1l-.69-1.22a2.63,2.63,0,0,1-1,.17" style="fill:#e0e0e0"></path><polygon points="248.8 158.51 249.13 158.32 250.43 159.44 249.06 160.7 248.8 158.51" style="fill:#e0e0e0"></polygon><path d="M249.1,184.11s-.1.16-.36.38a2.07,2.07,0,0,1-.5.35,2.81,2.81,0,0,1-.76.34,6.64,6.64,0,0,1-4.64-.57,25.21,25.21,0,0,1-4-2.32,7.34,7.34,0,0,1-1.52-1.17A7.06,7.06,0,0,1,239,182a41.22,41.22,0,0,0,4,2.16,6.85,6.85,0,0,0,4.33.68A14.5,14.5,0,0,0,249.1,184.11Z" style="fill:#263238"></path><path d="M249.1,184.11a6.1,6.1,0,0,1-3.85.21,5.91,5.91,0,0,1-3.43-1.78,30.92,30.92,0,0,0,3.54,1.27C247.37,184.24,249.08,183.94,249.1,184.11Z" style="fill:#263238"></path></g><g id="Floor"><path d="M388.53,39.53a6.2,6.2,0,0,1-2.72-1,6.42,6.42,0,0,1-2.35-1.7,11.49,11.49,0,0,1,2.59,1.24A11.23,11.23,0,0,1,388.53,39.53Z" style="fill:#455a64"></path><path d="M486.86,472.21c0,.14-106.06.26-236.85.26s-236.87-.12-236.87-.26S119.17,472,250,472,486.86,472.07,486.86,472.21Z" style="fill:#263238"></path></g><g id="Light"><path d="M444,411.29s0-.31-.07-.91c0-.3-.05-.68-.12-1.12a14.42,14.42,0,0,0-.26-1.53,15.78,15.78,0,0,0-1.49-4.07,18.83,18.83,0,0,0-3.65-4.64,60.79,60.79,0,0,0-5.78-4.69,47.21,47.21,0,0,1-6.72-5.82,22.05,22.05,0,0,1-5-8.86c-.51-1.73-1-3.52-1.56-5.35s-.78-3.8-1.18-5.76a114.18,114.18,0,0,1-1.07-26.19c.55-9.43,2-19.41,3.45-29.91.72-5.24,1.46-10.62,2-16.14.34-2.75.49-5.55.74-8.36.07-1.41.14-2.83.2-4.26s.15-2.85.12-4.29c0-2.88,0-5.78-.14-8.71a67.72,67.72,0,0,1,.08-8.89,22.61,22.61,0,0,1,2.41-8.72,16,16,0,0,1,6.35-6.57,10.76,10.76,0,0,1,4.46-1.31,7.91,7.91,0,0,1,4.52,1,9.84,9.84,0,0,1,5,7.41,6.23,6.23,0,0,1-1.2,4.36,6.7,6.7,0,0,1-3.77,2.46,10.12,10.12,0,0,1-8.45-1.9,18.56,18.56,0,0,1-5.2-6.87c-.61-1.28-1.16-2.59-1.64-3.91s-1-2.62-1.39-4a86.05,86.05,0,0,1-3.49-15.92,120.37,120.37,0,0,1,.3-30.07,204.69,204.69,0,0,1,5.14-25.72c2-7.77,4.11-14.71,5.93-20.82s3.41-11.35,4.64-15.66,2.14-7.66,2.75-9.95c.29-1.13.52-2,.67-2.59s.25-.88.25-.88-.06.3-.2.89-.35,1.47-.62,2.61c-.57,2.29-1.44,5.66-2.66,10s-2.75,9.58-4.55,15.69-3.86,13.06-5.85,20.82a203.75,203.75,0,0,0-5.07,25.68,120.54,120.54,0,0,0-.26,30,86.79,86.79,0,0,0,3.49,15.83c.39,1.33.91,2.62,1.39,3.93a39.8,39.8,0,0,0,1.63,3.88,18.09,18.09,0,0,0,5,6.68,9.62,9.62,0,0,0,8,1.8,6.22,6.22,0,0,0,3.49-2.27,5.75,5.75,0,0,0,1.09-4,9.32,9.32,0,0,0-4.69-7c-2.58-1.5-5.89-1.07-8.49.33a15.52,15.52,0,0,0-6.13,6.36,22.21,22.21,0,0,0-2.35,8.52,66.59,66.59,0,0,0-.08,8.82c.15,2.93.13,5.85.13,8.73,0,1.45-.06,2.89-.12,4.31s-.14,2.86-.2,4.27c-.26,2.82-.42,5.63-.75,8.38-.58,5.53-1.31,10.91-2.05,16.16-1.47,10.5-2.92,20.47-3.49,29.87a114.6,114.6,0,0,0,1,26.09c.4,2,.78,3.88,1.16,5.74s1,3.61,1.54,5.34a21.78,21.78,0,0,0,4.9,8.77,48.33,48.33,0,0,0,6.65,5.82,60.31,60.31,0,0,1,5.77,4.73,18.4,18.4,0,0,1,3.64,4.72,15.12,15.12,0,0,1,1.46,4.12,12,12,0,0,1,.24,1.54,11,11,0,0,1,.09,1.13C444,411,444,411.29,444,411.29Z" style="fill:#FF725E"></path><polyline points="429.83 99.03 437.16 101.95 450.51 99.03 450.94 91.69 429.35 99.2" style="fill:#263238"></polyline><polygon points="394.45 50.55 415.98 103.84 450.94 91.69 431.12 38.19 394.45 50.55" style="fill:#263238"></polygon><path d="M400,53.32l.44-.15,1.34-.44,5.2-1.66,19.18-6,.18-.05.07.17,18.17,44.31.11.26-.26.09-.74.25L417.76,99l-.22.07-.08-.22C412.32,85.48,407.92,74.1,404.81,66c-1.53-4-2.74-7.17-3.58-9.37-.4-1.07-.72-1.89-.94-2.48-.09-.27-.17-.48-.23-.64s-.07-.21-.07-.21,0,.08.11.23.15.38.27.65c.23.6.57,1.43,1,2.51.88,2.2,2.14,5.38,3.73,9.37,3.15,8,7.6,19.33,12.81,32.56l-.3-.14,25.9-8.93.74-.26-.16.35c-6.9-17-13.22-32.48-18.06-44.36l.24.11-19.12,5.8-5.28,1.58-1.38.4Z" style="fill:#455a64"></path><polygon points="427.92 63.34 420.88 65.26 399.99 53.32 426.21 45.22 444.33 89.56 417.69 98.73 426.64 76.98 432.61 74 427.92 63.34" style="fill:#455a64"></polygon><circle cx="443.7" cy="103.31" r="7.7" style="fill:#263238"></circle><rect x="442.8" y="104.84" width="3.05" height="307.62" style="fill:#263238"></rect><rect x="438.03" y="117.29" width="13.02" height="6.24" style="fill:#263238"></rect><rect x="439.61" y="406.91" width="8.77" height="8.77" style="fill:#263238"></rect><rect x="384.94" y="440.32" width="73.48" height="3" transform="translate(-180.08 546.2) rotate(-56.18)" style="fill:#263238"></rect><rect x="465.65" y="406.52" width="3" height="72.69" transform="translate(-168.29 340.01) rotate(-34.28)" style="fill:#263238"></rect><rect x="407.75" y="441.37" width="62.31" height="3" transform="translate(-79.32 789.58) rotate(-79.04)" style="fill:#263238"></rect><path d="M431.12,38.18a17.39,17.39,0,0,1-2.23,3.67,17.68,17.68,0,0,1-2.65,3.37,18.17,18.17,0,0,1,2.22-3.67A17.94,17.94,0,0,1,431.12,38.18Z" style="fill:#455a64"></path><path d="M417.73,98.74a7.36,7.36,0,0,1-.64,2.64,7.17,7.17,0,0,1-1.13,2.47,7.19,7.19,0,0,1,.64-2.64A7.17,7.17,0,0,1,417.73,98.74Z" style="fill:#455a64"></path><path d="M450.89,91.59a14.33,14.33,0,0,1-3.33-.86,14.13,14.13,0,0,1-3.24-1.18,10,10,0,0,1,3.39.68A9.72,9.72,0,0,1,450.89,91.59Z" style="fill:#455a64"></path><path d="M450.58,91.6c.05.13-7.72,3-17.34,6.44s-17.47,6.09-17.52,6,7.72-3,17.34-6.45S450.53,91.46,450.58,91.6Z" style="fill:#455a64"></path><path d="M396.29,76.13c.06.13-6.17,3.22-13.91,6.9s-14.07,6.57-14.13,6.44,6.16-3.22,13.91-6.91S396.23,76,396.29,76.13Z" style="fill:#e0e0e0"></path><path d="M393.4,66.92c0,.14-5.8.15-12.94,0s-12.94-.35-12.93-.5,5.79-.15,12.94,0S393.4,66.78,393.4,66.92Z" style="fill:#e0e0e0"></path><path d="M396.31,95.46a42.92,42.92,0,0,1,2.48-6.17,42.93,42.93,0,0,1,3-6,42,42,0,0,1-2.48,6.17A43.65,43.65,0,0,1,396.31,95.46Z" style="fill:#e0e0e0"></path></g><g id="Table"><rect x="278.07" y="382.47" width="75.38" height="3.57" style="fill:#455a64"></rect><rect x="278.07" y="360.83" width="5.6" height="110.67" style="fill:#455a64"></rect><rect x="300.37" y="360.83" width="5.6" height="110.67" style="fill:#455a64"></rect><rect x="318.07" y="360.83" width="5.6" height="110.67" style="fill:#455a64"></rect><rect x="347.86" y="360.83" width="5.6" height="110.67" style="fill:#455a64"></rect><rect x="274.02" y="357.26" width="81.67" height="7.14" style="fill:#455a64"></rect><path d="M355.29,364.17c0,.14-18.23.26-40.7.26s-40.71-.12-40.71-.26,18.22-.26,40.71-.26S355.29,364,355.29,364.17Z" style="fill:#263238"></path><path d="M300.13,418.33c-.14,0-.26-12.11-.26-27.05s.12-27,.26-27,.26,12.11.26,27S300.28,418.33,300.13,418.33Z" style="fill:#263238"></path><path d="M305.85,411.48c-.14,0-.26-10.71-.26-23.91s.12-23.91.26-23.91.26,10.7.26,23.91S306,411.48,305.85,411.48Z" style="fill:#263238"></path><rect x="292.23" y="325.65" width="17.85" height="30.76" rx="2.1" style="fill:#FF725E"></rect><path d="M299.14,320.23h3.65a3.89,3.89,0,0,1,3.89,3.89v1.53a0,0,0,0,1,0,0H295.26a0,0,0,0,1,0,0v-1.53A3.89,3.89,0,0,1,299.14,320.23Z" style="fill:#455a64"></path><rect x="292.23" y="335.34" width="10.11" height="12.52" style="fill:#fff"></rect></g></svg>
