<svg xmlns="http://www.w3.org/2000/svg" viewBox="0 0 500 500"><g id="background-simple"><path d="M463.86,276.39c-14.73,39.43-44.81,82.11-87.14,94.75-64,19.1-71.6,70.65-186.16,65.87A230.92,230.92,0,0,1,141,429.75,194.41,194.41,0,0,1,117.73,422C50.8,394.89,15.89,335.23,13,272.81,9.17,190.7,66.45,151.57,103.68,128.66S185.79,17,298.44,20.77a224.06,224.06,0,0,1,50.92,7.44c37.91,10.26,76.44,32.95,98.84,66.12q2.52,3.75,4.82,7.64C483,152.82,483.93,222.63,463.86,276.39Z" style="fill:#92E3A9"></path><path d="M463.86,276.39c-14.73,39.43-44.81,82.11-87.14,94.75-64,19.1-71.6,70.65-186.16,65.87A230.92,230.92,0,0,1,141,429.75,194.41,194.41,0,0,1,117.73,422C50.8,394.89,15.89,335.23,13,272.81,9.17,190.7,66.45,151.57,103.68,128.66S185.79,17,298.44,20.77a224.06,224.06,0,0,1,50.92,7.44c37.91,10.26,76.44,32.95,98.84,66.12q2.52,3.75,4.82,7.64C483,152.82,483.93,222.63,463.86,276.39Z" style="fill:#fff;opacity:0.7000000000000001"></path></g><g id="Clouds"><path d="M466.69,45.18s-10.12,3-11.52-4.19c-.84-4.27-3-15.52-14-17.61S422.7,32.61,422.7,38.9,418,42,413.28,43.61s-8.38,4.19-9.43,8.9-2.09,2.1-8.9,3.14-8.9,5.24-8.9,5.24h95.82S482.14,52,478,48.31A12.62,12.62,0,0,0,466.69,45.18Z" style="fill:none;stroke:#263238;stroke-linecap:round;stroke-linejoin:round"></path><path d="M407.92,31.85s-5.38,1.57-6.12-2.23c-.45-2.27-1.58-8.25-7.42-9.36s-9.84,4.91-9.84,8.25-2.51,1.67-5,2.51-4.46,2.22-5,4.73-1.12,1.11-4.74,1.67-4.73,2.78-4.73,2.78H416s.14-4.74-2.09-6.69A6.71,6.71,0,0,0,407.92,31.85Z" style="fill:none;stroke:#263238;stroke-linecap:round;stroke-linejoin:round"></path><line x1="475" y1="63.5" x2="475" y2="77.5" style="fill:none;stroke:#263238;stroke-linecap:round;stroke-linejoin:round"></line><line x1="467" y1="71" x2="467" y2="85" style="fill:none;stroke:#263238;stroke-linecap:round;stroke-linejoin:round"></line><line x1="459.5" y1="63.5" x2="459.5" y2="77.5" style="fill:none;stroke:#263238;stroke-linecap:round;stroke-linejoin:round"></line><line x1="451.5" y1="71" x2="451.5" y2="85" style="fill:none;stroke:#263238;stroke-linecap:round;stroke-linejoin:round"></line><line x1="444" y1="63.5" x2="444" y2="77.5" style="fill:none;stroke:#263238;stroke-linecap:round;stroke-linejoin:round"></line><line x1="436" y1="71" x2="436" y2="85" style="fill:none;stroke:#263238;stroke-linecap:round;stroke-linejoin:round"></line><line x1="428.5" y1="63.5" x2="428.5" y2="77.5" style="fill:none;stroke:#263238;stroke-linecap:round;stroke-linejoin:round"></line><line x1="420.5" y1="71" x2="420.5" y2="85" style="fill:none;stroke:#263238;stroke-linecap:round;stroke-linejoin:round"></line><line x1="413" y1="63.5" x2="413" y2="77.5" style="fill:none;stroke:#263238;stroke-linecap:round;stroke-linejoin:round"></line><line x1="405" y1="71" x2="405" y2="85" style="fill:none;stroke:#263238;stroke-linecap:round;stroke-linejoin:round"></line><line x1="397.5" y1="63.5" x2="397.5" y2="77.5" style="fill:none;stroke:#263238;stroke-linecap:round;stroke-linejoin:round"></line><line x1="406" y1="43" x2="406" y2="46" style="fill:none;stroke:#263238;stroke-linecap:round;stroke-linejoin:round"></line><line x1="398" y1="48.41" x2="398" y2="53" style="fill:none;stroke:#263238;stroke-linecap:round;stroke-linejoin:round"></line><line x1="390.5" y1="43" x2="390.5" y2="53.09" style="fill:none;stroke:#263238;stroke-linecap:round;stroke-linejoin:round"></line><line x1="382.5" y1="48.41" x2="382.5" y2="58.5" style="fill:none;stroke:#263238;stroke-linecap:round;stroke-linejoin:round"></line><line x1="375" y1="43" x2="375" y2="53.09" style="fill:none;stroke:#263238;stroke-linecap:round;stroke-linejoin:round"></line><line x1="367" y1="48.41" x2="367" y2="58.5" style="fill:none;stroke:#263238;stroke-linecap:round;stroke-linejoin:round"></line></g><g id="Sun"><circle cx="67.94" cy="53.04" r="15.86" transform="translate(-17.61 63.57) rotate(-45)" style="fill:none;stroke:#263238;stroke-linecap:round;stroke-linejoin:round"></circle><line x1="67.74" y1="72.87" x2="67.74" y2="84.31" style="fill:none;stroke:#263238;stroke-linecap:round;stroke-linejoin:round"></line><line x1="67.74" y1="22.01" x2="67.74" y2="33.45" style="fill:none;stroke:#263238;stroke-linecap:round;stroke-linejoin:round"></line><line x1="87.45" y1="53.16" x2="98.89" y2="53.16" style="fill:none;stroke:#263238;stroke-linecap:round;stroke-linejoin:round"></line><line x1="36.59" y1="53.16" x2="48.03" y2="53.16" style="fill:none;stroke:#263238;stroke-linecap:round;stroke-linejoin:round"></line><line x1="81.67" y1="39.23" x2="89.76" y2="31.13" style="fill:none;stroke:#263238;stroke-linecap:round;stroke-linejoin:round"></line><line x1="45.71" y1="75.19" x2="53.8" y2="67.1" style="fill:none;stroke:#263238;stroke-linecap:round;stroke-linejoin:round"></line><line x1="81.67" y1="67.1" x2="89.76" y2="75.19" style="fill:none;stroke:#263238;stroke-linecap:round;stroke-linejoin:round"></line><line x1="45.71" y1="31.13" x2="53.8" y2="39.23" style="fill:none;stroke:#263238;stroke-linecap:round;stroke-linejoin:round"></line></g><g id="umbrella-4"><g style="opacity:0.30000000000000004"><path d="M430.77,426.79h0a1,1,0,0,0,1-1v-10h-2.08v10A1,1,0,0,0,430.77,426.79Z" style="fill:#263238;stroke:#263238;stroke-linecap:round;stroke-linejoin:round"></path><path d="M451.26,235a12,12,0,0,0-24,.27l.27,23.73a3.06,3.06,0,0,0,1.25,2.43l.08,12.08.29-.73a1.21,1.21,0,0,1,2.24,0l1.18,3-.1-14.36a3.07,3.07,0,0,0,1.22-2.48l-.27-23.73a5.82,5.82,0,0,1,11.64-.13l.07,6.36a3.08,3.08,0,0,0,6.16-.07Z"></path><path d="M396.83,281.66l3.51-8.87a1.21,1.21,0,0,1,2.24,0l3.5,8.87h.36l3.51-8.87a1.21,1.21,0,0,1,2.24,0l3.51,8.87h.36l3.51-8.87a1.21,1.21,0,0,1,2.24,0l3.51,8.87h.36l3.51-8.87a1.21,1.21,0,0,1,2.24,0l3.51,8.87h.36l3.5-8.87a1.21,1.21,0,0,1,2.24,0l3.51,8.87h.36l3.51-8.87a1.21,1.21,0,0,1,2.24,0l3.51,8.87h.36l3.51-8.87a1.21,1.21,0,0,1,2.24,0l3.51,8.87h2.27l-35.34,138-35.35-138Z" style="fill:none;stroke:#263238;stroke-linecap:round;stroke-linejoin:round"></path><path d="M431.4,417.42l3.9-135.76,3.5-8.87a1.21,1.21,0,0,1,2.24,0l3.51,8.87h.36l3.51-8.87a1.21,1.21,0,0,1,2.24,0l3.51,8.87h.36L431.9,415.75Z" style="fill:none;stroke:#263238;stroke-linecap:round;stroke-linejoin:round"></path><path d="M396.83,281.66l3.51-8.87a1.21,1.21,0,0,1,2.24,0l3.5,8.87h.36l3.51-8.87a1.21,1.21,0,0,1,2.24,0l3.51,8.87h.36l14.66,138-35.35-138Z" style="fill:none;stroke:#263238;stroke-linecap:round;stroke-linejoin:round"></path></g></g><g id="umbrella-3"><g style="opacity:0.30000000000000004"><path d="M366.47,165c-1.05-.19-2.1-.35-3.15-.49l-11,20.21a2.47,2.47,0,0,0-1.83,1.27l-9.23,16.91a4.72,4.72,0,0,1-8.29-4.53l2.47-4.53a2.5,2.5,0,0,0-4.39-2.39L328.55,196a9.72,9.72,0,1,0,17.07,9.31l9.23-16.91a2.48,2.48,0,0,0,.07-2.22Z"></path><path d="M398.1,100.34l-.76-.25,6.92-11.37a.85.85,0,0,1,1.49.81l-5.85,12C398.75,100.76,398.1,100.34,398.1,100.34Z"></path><path d="M398.1,100.34s19.4,12.55,35.21,31,19.59,54.58,19.59,54.58S443,175.37,431.22,194c0,0-41.56-30.12-77.57-30.18,0,0-23-32.54-55.94-41.11,0,0,13.86-17.51,6.51-18.39,0,0,27.51-15.94,43.95-15.2S390.5,97.76,398.1,100.34Z" style="fill:none;stroke:#000;stroke-linecap:round;stroke-linejoin:round"></path><path d="M413.56,117.12c5.72,7.91,12.12,18.72,14.12,29.54a168.89,168.89,0,0,1,2.08,40.71" style="fill:none;stroke:#000;stroke-linecap:round;stroke-linejoin:round"></path><path d="M403.48,104.85a113.44,113.44,0,0,1,7.69,9.06" style="fill:none;stroke:#000;stroke-linecap:round;stroke-linejoin:round"></path><path d="M359.08,153.89l-3.29,6" style="fill:none;stroke:#000;stroke-linecap:round;stroke-linejoin:round"></path><path d="M395.57,102.1s-19.68,21-27.76,35.79l-6.09,11.17" style="fill:none;stroke:#000;stroke-linecap:round;stroke-linejoin:round"></path><path d="M368.84,96.52a103.34,103.34,0,0,0-34.51,5.07,101.89,101.89,0,0,0-29,15.12" style="fill:none;stroke:#000;stroke-linecap:round;stroke-linejoin:round"></path></g></g><g id="umbrella-2"><g style="opacity:0.30000000000000004"><path d="M187.06,196l-2.47-4.53a2.5,2.5,0,0,0-4.39,2.39l2.47,4.53a4.72,4.72,0,0,1-8.29,4.53L165.15,186a2.47,2.47,0,0,0-1.83-1.27l-11-20.21c-1,.14-2.1.3-3.15.49l11.55,21.16a2.48,2.48,0,0,0,.07,2.22L170,205.32A9.72,9.72,0,0,0,187.06,196Z"></path><path d="M117.51,100.34l.76-.25-6.92-11.37a.84.84,0,0,0-1.15-.33.83.83,0,0,0-.33,1.14l5.84,12C116.86,100.76,117.51,100.34,117.51,100.34Z"></path><path d="M117.51,100.34s-19.4,12.55-35.21,31-19.59,54.58-19.59,54.58S72.64,175.37,84.4,194c0,0,41.55-30.12,77.57-30.18,0,0,23-32.54,55.93-41.11,0,0-13.86-17.51-6.51-18.39,0,0-27.5-15.94-43.95-15.2S125.12,97.76,117.51,100.34Z" style="fill:none;stroke:#000;stroke-linecap:round;stroke-linejoin:round"></path><path d="M102.05,117.12c-5.72,7.91-12.12,18.72-14.12,29.54a168.89,168.89,0,0,0-2.08,40.71" style="fill:none;stroke:#000;stroke-linecap:round;stroke-linejoin:round"></path><path d="M112.13,104.85a113.44,113.44,0,0,0-7.69,9.06" style="fill:none;stroke:#000;stroke-linecap:round;stroke-linejoin:round"></path><path d="M156.53,153.89l3.29,6" style="fill:none;stroke:#000;stroke-linecap:round;stroke-linejoin:round"></path><path d="M120,102.1s19.68,21,27.76,35.79l6.09,11.17" style="fill:none;stroke:#000;stroke-linecap:round;stroke-linejoin:round"></path><path d="M146.77,96.52a103.34,103.34,0,0,1,34.51,5.07,101.89,101.89,0,0,1,29,15.12" style="fill:none;stroke:#000;stroke-linecap:round;stroke-linejoin:round"></path></g></g><g id="umbrella-1"><g style="opacity:0.30000000000000004"><path d="M74.16,426.79h0a1,1,0,0,1-1-1v-10H75.2v10A1,1,0,0,1,74.16,426.79Z" style="fill:#263238;stroke:#263238;stroke-linecap:round;stroke-linejoin:round"></path><path d="M65.78,223.17A12,12,0,0,0,53.67,235l-.07,6.36a3.08,3.08,0,0,0,6.16.07l.07-6.36a5.82,5.82,0,0,1,11.64.13l-.27,23.73a3.07,3.07,0,0,0,1.22,2.48l-.1,14.36,1.18-3a1.21,1.21,0,0,1,2.24,0l.29.73.08-12.08A3.06,3.06,0,0,0,77.36,259l.27-23.73A12,12,0,0,0,65.78,223.17Z"></path><path d="M108.1,281.66l-3.5-8.87a1.21,1.21,0,0,0-2.24,0l-3.51,8.87h-.36L95,272.79a1.21,1.21,0,0,0-2.24,0l-3.51,8.87h-.36l-3.51-8.87a1.21,1.21,0,0,0-2.24,0l-3.51,8.87h-.36l-3.51-8.87a1.21,1.21,0,0,0-2.24,0L70,281.66h-.36l-3.51-8.87a1.21,1.21,0,0,0-2.24,0l-3.51,8.87H60l-3.51-8.87a1.21,1.21,0,0,0-2.24,0l-3.51,8.87H50.4l-3.51-8.87a1.21,1.21,0,0,0-2.24,0l-3.51,8.87H38.87l35.35,138,35.34-138Z" style="fill:none;stroke:#263238;stroke-linecap:round;stroke-linejoin:round"></path><path d="M73.53,417.42,69.64,281.66l-3.51-8.87a1.21,1.21,0,0,0-2.24,0l-3.51,8.87H60l-3.51-8.87a1.21,1.21,0,0,0-2.24,0l-3.51,8.87H50.4L73,415.75Z" style="fill:none;stroke:#263238;stroke-linecap:round;stroke-linejoin:round"></path><path d="M108.1,281.66l-3.5-8.87a1.21,1.21,0,0,0-2.24,0l-3.51,8.87h-.36L95,272.79a1.21,1.21,0,0,0-2.24,0l-3.51,8.87h-.36l-14.65,138,35.34-138Z" style="fill:none;stroke:#263238;stroke-linecap:round;stroke-linejoin:round"></path></g></g><g id="Plants"><path d="M122.06,387.39c2,.76,6.94.35,6.95.35s-1.25-3.14-1.35-3.33c-1.21-2.18-4.83-5.69-7.57-5.15a3.3,3.3,0,0,0-2.4,4.3C118.26,385.45,120.31,386.75,122.06,387.39Z" style="fill:#92E3A9"></path><path d="M185.18,366.86c-2.79-.13-5.85,3.87-6.73,6.21-.07.2-.9,3.49-.84,3.49h0c-.49.63-1,1.31-1.55,2.06-1,1.4-2.13,3-3.23,4.8a59.65,59.65,0,0,0-3.29,6,44.13,44.13,0,0,0-2.69,7.18s0,.07,0,.09c0-.81-.21-3.1-.25-3.27-.47-2.45-2.81-6.91-5.59-7.25a3.31,3.31,0,0,0-3.62,3.33c0,2,1.5,3.85,3,5,1.64,1.3,6.07,2.39,6.42,2.48a58.88,58.88,0,0,0-1.38,7.68c-.17,1.51-.3,3-.42,4.57-.05-.71-.1-1.34-.12-1.43-.47-2.45-2.81-6.91-5.59-7.25a3.32,3.32,0,0,0-3.62,3.34c0,2,1.5,3.85,3,5s5.24,2.18,6.24,2.43l-.12,1.76c-.16,2.82-.31,5.64-.55,8.39-.08,1-.2,1.93-.31,2.88,0-.62-.1-1.15-.11-1.23-.47-2.45-2.82-6.91-5.59-7.25a3.3,3.3,0,0,0-3.62,3.33c0,2,1.5,3.85,3,5s4.87,2.07,6.06,2.38c-.15,1-.29,1.95-.48,2.89-.14.63-.23,1.26-.41,1.89l-.48,1.87c-.35,1.18-.7,2.39-1.07,3.53-.25.8-.51,1.55-.76,2.31.09-1,.24-2.86.23-3a12.83,12.83,0,0,0-2.09-6.13,4.41,4.41,0,0,0-.09-.73,3.31,3.31,0,0,0-4.21-2.56c-2.65.88-4.07,5.72-4.05,8.21,0,.15.19,1.74.33,2.75-.17-.58-.33-1.14-.51-1.74-.36-1.17-.75-2.33-1.16-3.59-.22-.59-.44-1.2-.67-1.81s-.51-1.22-.76-1.84c-.62-1.43-1.32-2.84-2.06-4.25,1-.31,4.66-1.48,6.08-2.7s2.86-3.17,2.73-5.14a3.3,3.3,0,0,0-3.77-3.16c-2.76.46-4.9,5-5.25,7.5,0,.15-.08,1.95-.09,2.94-.45-.84-.9-1.69-1.38-2.53-1.39-2.42-2.87-4.83-4.34-7.23-.45-.74-.89-1.48-1.33-2.22.37-.11,4.72-1.4,6.3-2.77,1.41-1.22,2.86-3.17,2.73-5.14a3.3,3.3,0,0,0-3.77-3.16c-2.75.47-4.89,5-5.25,7.5,0,.18-.1,2.78-.09,3.43-1-1.62-1.93-3.26-2.81-4.9a57.55,57.55,0,0,1-3.14-6.87c.17-.05,4.71-1.37,6.34-2.78,1.4-1.22,2.86-3.17,2.72-5.14a3.3,3.3,0,0,0-3.76-3.16c-2.76.47-4.9,5-5.26,7.5,0,.19-.1,3-.08,3.49,0-.14-.12-.28-.17-.41a42.5,42.5,0,0,1-1.86-7.34c-.24-1.38-.39-2.71-.51-4,.87-.16,4.85-.94,6.45-2s3.19-2.84,3.28-4.81a3.31,3.31,0,0,0-3.4-3.56c-2.79.17-5.42,4.47-6.05,6.88,0,.13-.23,1.51-.36,2.51,0-.59-.1-1.19-.13-1.75-.12-2.11-.11-4.05-.08-5.77,0-1,.07-1.86.12-2.68.77-.61,3.86-3.08,4.75-4.77s1.53-4,.69-5.77a3.3,3.3,0,0,0-4.65-1.59c-2.4,1.43-2.75,6.45-2.19,8.89,0,.21,1.18,3.41,1.22,3.38l0,0c-.06.79-.12,1.64-.16,2.57-.07,1.72-.12,3.67-.05,5.79a59.21,59.21,0,0,0,.58,6.83,43.53,43.53,0,0,0,1.72,7.47l0,.08c-.48-.66-1.88-2.47-2-2.59-1.75-1.79-6.17-4.21-8.67-3a3.31,3.31,0,0,0-1.18,4.78c1.06,1.67,3.38,2.38,5.23,2.54,2.1.18,6.39-1.35,6.73-1.48a58.84,58.84,0,0,0,3.09,7.18c.69,1.35,1.42,2.7,2.17,4-.43-.56-.82-1.05-.89-1.12-1.74-1.78-6.16-4.21-8.66-3a3.3,3.3,0,0,0-1.18,4.77c1,1.67,3.38,2.39,5.23,2.55s5.57-1.08,6.54-1.41c.3.51.59,1,.88,1.53,1.42,2.44,2.84,4.87,4.17,7.3.46.86.89,1.72,1.32,2.57-.38-.49-.71-.91-.77-1-1.74-1.78-6.16-4.21-8.66-3a3.31,3.31,0,0,0-1.18,4.78c1.05,1.66,3.37,2.38,5.23,2.54s5.21-1,6.37-1.35c.41.89.83,1.78,1.19,2.67.24.6.51,1.17.71,1.8l.63,1.82c.35,1.18.73,2.39,1,3.54.23.8.43,1.57.64,2.34-.45-.85-1.38-2.51-1.47-2.64-1.46-2-5.46-5.1-8.12-4.24a3.31,3.31,0,0,0-1.89,4.54c.79,1.81,3,2.87,4.79,3.3,2,.48,6.3-.32,6.83-.43.34,1.28.66,2.53.94,3.71.06.26.11.49.17.73h1.73c-.1-.37-.19-.74-.3-1.13-.33-1.3-.72-2.68-1.13-4.1a36.38,36.38,0,0,0,3.7-2c1.52,1.46,5.29,3,5.78,3.25-.42,1.25-.85,2.47-1.27,3.61l-.15.39h1.76c.42-1.23.85-2.54,1.27-3.89.53.08,4.87.69,6.85.12,1.79-.52,3.92-1.68,4.63-3.52a3.3,3.3,0,0,0-2.1-4.45c-2.7-.73-6.55,2.51-7.91,4.61-.08.12-.8,1.56-1.24,2.47.18-.58.36-1.13.53-1.73.35-1.17.67-2.36,1-3.63.14-.62.29-1.25.44-1.88s.25-1.3.38-2c.27-1.53.46-3.1.63-4.68,1,.31,4.7,1.34,6.56,1.1s4.13-1.07,5.11-2.78a3.31,3.31,0,0,0-1.4-4.72c-2.56-1.13-6.86,1.5-8.52,3.36-.1.12-1.14,1.59-1.7,2.41.09-.95.19-1.9.25-2.87.18-2.78.27-5.61.37-8.43l.12-2.58c.36.11,4.7,1.44,6.78,1.16,1.85-.24,4.13-1.06,5.11-2.78a3.3,3.3,0,0,0-1.4-4.71c-2.55-1.13-6.86,1.49-8.51,3.35-.13.14-1.62,2.26-2,2.82.09-1.9.19-3.78.37-5.64a58.67,58.67,0,0,1,1.16-7.46c.17.05,4.69,1.45,6.82,1.17,1.85-.24,4.14-1.06,5.11-2.78a3.29,3.29,0,0,0-1.39-4.71c-2.56-1.13-6.86,1.49-8.52,3.35-.13.15-1.74,2.43-2,2.86,0-.14.05-.29.09-.43a42.94,42.94,0,0,1,2.49-7.15c.56-1.28,1.17-2.47,1.79-3.61.81.34,4.56,1.89,6.5,1.85s4.23-.6,5.38-2.2a3.3,3.3,0,0,0-.87-4.84c-2.41-1.4-7,.73-8.83,2.4-.1.09-1,1.13-1.69,1.89l.86-1.53c1.06-1.83,2.14-3.44,3.12-4.85.55-.8,1.08-1.52,1.57-2.18,1-.07,4.92-.43,6.6-1.35s3.47-2.48,3.76-4.43A3.32,3.32,0,0,0,185.18,366.86Z" style="fill:#92E3A9"></path><path d="M171.64,385.48c.05,0,.7-3.3.71-3.52.2-2.49-.89-7.41-3.47-8.47a3.31,3.31,0,0,0-4.37,2.26c-.57,1.89.42,4.11,1.53,5.61C167.34,383.12,171.64,385.48,171.64,385.48Z" style="fill:#92E3A9"></path><path d="M383.27,387.39c-2.06.76-6.95.35-6.95.35s1.24-3.14,1.35-3.33c1.21-2.18,4.83-5.69,7.57-5.15a3.31,3.31,0,0,1,2.4,4.3C387.07,385.45,385,386.75,383.27,387.39Z" style="fill:#92E3A9"></path><path d="M320.14,366.86c2.79-.13,5.86,3.87,6.74,6.21.07.2.89,3.49.84,3.49h-.06c.49.63,1,1.31,1.56,2.06,1,1.4,2.12,3,3.23,4.8a59.65,59.65,0,0,1,3.29,6,43.21,43.21,0,0,1,2.68,7.18s0,.07,0,.09c0-.81.21-3.1.24-3.27.47-2.45,2.82-6.91,5.59-7.25a3.3,3.3,0,0,1,3.62,3.33c0,2-1.5,3.85-3,5-1.65,1.3-6.07,2.39-6.43,2.48a57.25,57.25,0,0,1,1.38,7.68c.18,1.51.31,3,.42,4.57.05-.71.11-1.34.12-1.43.47-2.45,2.82-6.91,5.59-7.25a3.31,3.31,0,0,1,3.62,3.34c0,2-1.5,3.85-3,5s-5.24,2.18-6.23,2.43c0,.59.08,1.18.11,1.76.17,2.82.32,5.64.56,8.39.08,1,.19,1.93.31,2.88.05-.62.09-1.15.11-1.23.47-2.45,2.81-6.91,5.58-7.25a3.3,3.3,0,0,1,3.62,3.33c0,2-1.49,3.85-3,5s-4.87,2.07-6,2.38c.14,1,.29,1.95.47,2.89.14.63.24,1.26.41,1.89l.48,1.87c.35,1.18.71,2.39,1.08,3.53.25.8.5,1.55.75,2.31-.09-1-.23-2.86-.22-3a12.83,12.83,0,0,1,2.09-6.13,4.41,4.41,0,0,1,.09-.73,3.3,3.3,0,0,1,4.2-2.56c2.66.88,4.08,5.72,4.06,8.21,0,.15-.2,1.74-.33,2.75.17-.58.33-1.14.51-1.74.35-1.17.74-2.33,1.16-3.59.22-.59.44-1.2.66-1.81s.52-1.22.77-1.84c.62-1.43,1.32-2.84,2.05-4.25-1-.31-4.66-1.48-6.07-2.7s-2.86-3.17-2.73-5.14a3.3,3.3,0,0,1,3.77-3.16c2.75.46,4.89,5,5.25,7.5,0,.15.08,1.95.09,2.94.45-.84.89-1.69,1.37-2.53,1.39-2.42,2.87-4.83,4.34-7.23.45-.74.89-1.48,1.33-2.22-.36-.11-4.71-1.4-6.3-2.77-1.4-1.22-2.86-3.17-2.73-5.14a3.31,3.31,0,0,1,3.77-3.16c2.76.47,4.9,5,5.25,7.5,0,.18.11,2.78.1,3.43,1-1.62,1.93-3.26,2.8-4.9a57.64,57.64,0,0,0,3.15-6.87c-.17-.05-4.72-1.37-6.34-2.78-1.41-1.22-2.86-3.17-2.73-5.14a3.31,3.31,0,0,1,3.77-3.16c2.75.47,4.89,5,5.25,7.5,0,.19.11,3,.09,3.49.05-.14.12-.28.17-.41a43.43,43.43,0,0,0,1.86-7.34c.24-1.38.39-2.71.51-4-.88-.16-4.85-.94-6.45-2s-3.2-2.84-3.28-4.81a3.31,3.31,0,0,1,3.4-3.56c2.79.17,5.42,4.47,6,6.88,0,.13.23,1.51.36,2.51.05-.59.1-1.19.14-1.75.12-2.11.1-4.05.07-5.77,0-1-.06-1.86-.11-2.68-.77-.61-3.86-3.08-4.76-4.77s-1.52-4-.69-5.77a3.31,3.31,0,0,1,4.66-1.59c2.4,1.43,2.75,6.45,2.19,8.89-.05.21-1.18,3.41-1.22,3.38l0,0c.06.79.12,1.64.16,2.57.07,1.72.13,3.67.05,5.79a59.09,59.09,0,0,1-.57,6.83,43.59,43.59,0,0,1-1.73,7.47.19.19,0,0,1,0,.08c.48-.66,1.89-2.47,2-2.59,1.74-1.79,6.16-4.21,8.66-3a3.31,3.31,0,0,1,1.18,4.78c-1.05,1.67-3.37,2.38-5.23,2.54-2.09.18-6.39-1.35-6.73-1.48a57.32,57.32,0,0,1-3.09,7.18c-.68,1.35-1.42,2.7-2.17,4l.89-1.12c1.75-1.78,6.16-4.21,8.66-3a3.29,3.29,0,0,1,1.18,4.77c-1,1.67-3.37,2.39-5.23,2.55s-5.57-1.08-6.54-1.41l-.87,1.53c-1.42,2.44-2.85,4.87-4.17,7.3-.47.86-.9,1.72-1.33,2.57l.77-1c1.75-1.78,6.16-4.21,8.67-3a3.31,3.31,0,0,1,1.18,4.78c-1.06,1.66-3.38,2.38-5.24,2.54s-5.21-1-6.36-1.35c-.42.89-.84,1.78-1.2,2.67-.23.6-.5,1.17-.7,1.8l-.63,1.82c-.36,1.18-.74,2.39-1.06,3.54-.22.8-.43,1.57-.63,2.34.45-.85,1.38-2.51,1.47-2.64,1.45-2,5.45-5.1,8.11-4.24a3.3,3.3,0,0,1,1.89,4.54c-.79,1.81-3,2.87-4.78,3.3-2,.48-6.3-.32-6.84-.43-.34,1.28-.65,2.53-.93,3.71-.06.26-.11.49-.17.73h-1.73c.1-.37.19-.74.29-1.13.34-1.3.73-2.68,1.14-4.1a37.27,37.27,0,0,1-3.71-2c-1.52,1.46-5.29,3-5.77,3.25.42,1.25.85,2.47,1.26,3.61l.15.39h-1.76c-.42-1.23-.84-2.54-1.26-3.89-.53.08-4.88.69-6.85.12-1.79-.52-3.93-1.68-4.63-3.52a3.3,3.3,0,0,1,2.09-4.45c2.7-.73,6.56,2.51,7.91,4.61.08.12.8,1.56,1.24,2.47-.17-.58-.35-1.13-.53-1.73-.35-1.17-.67-2.36-1-3.63-.15-.62-.29-1.25-.44-1.88s-.25-1.3-.38-2c-.27-1.53-.47-3.1-.63-4.68-1,.31-4.71,1.34-6.56,1.1s-4.14-1.07-5.11-2.78a3.3,3.3,0,0,1,1.4-4.72c2.55-1.13,6.85,1.5,8.51,3.36.11.12,1.15,1.59,1.7,2.41-.09-.95-.18-1.9-.25-2.87-.17-2.78-.26-5.61-.37-8.43,0-.86-.07-1.72-.11-2.58-.37.11-4.71,1.44-6.78,1.16-1.85-.24-4.14-1.06-5.11-2.78a3.29,3.29,0,0,1,1.39-4.71c2.56-1.13,6.86,1.49,8.52,3.35.13.14,1.62,2.26,2,2.82-.08-1.9-.18-3.78-.36-5.64a56.94,56.94,0,0,0-1.17-7.46c-.17.05-4.69,1.45-6.82,1.17-1.85-.24-4.13-1.06-5.11-2.78a3.3,3.3,0,0,1,1.4-4.71c2.56-1.13,6.86,1.49,8.52,3.35.13.15,1.73,2.43,2,2.86,0-.14-.06-.29-.09-.43a43,43,0,0,0-2.5-7.15c-.56-1.28-1.16-2.47-1.78-3.61-.82.34-4.56,1.89-6.51,1.85s-4.22-.6-5.38-2.2a3.31,3.31,0,0,1,.87-4.84c2.42-1.4,7,.73,8.84,2.4.1.09,1,1.13,1.68,1.89-.28-.51-.57-1-.85-1.53-1.06-1.83-2.15-3.44-3.12-4.85-.56-.8-1.08-1.52-1.58-2.18-1-.07-4.91-.43-6.59-1.35s-3.47-2.48-3.76-4.43A3.31,3.31,0,0,1,320.14,366.86Z" style="fill:#92E3A9"></path><path d="M333.68,385.48s-.69-3.3-.71-3.52c-.19-2.49.89-7.41,3.48-8.47a3.31,3.31,0,0,1,4.37,2.26c.56,1.89-.43,4.11-1.53,5.61C338,383.12,333.69,385.48,333.68,385.48Z" style="fill:#92E3A9"></path></g><g id="Shadow"><ellipse cx="251.95" cy="458.16" rx="100.68" ry="15.36" style="opacity:0.2"></ellipse></g><g id="Character"><path d="M352.88,320.67c-11.44,10-36.95,36.76-36.95,36.76l-51.65,30.4C241.89,379.26,170,364.49,170,364.49c-2.39-15.24-15.25-72.4-15.25-72.4l60-72.88,83.83-10.48c17.63,10.48,56.69,42.39,56.69,42.39C352.4,269.7,352.88,320.67,352.88,320.67Z" style="fill:#92E3A9;stroke:#263238;stroke-linecap:round;stroke-linejoin:round"></path><path d="M238,293.29l18-5.38-19.63-4.43-1.63-.14-44.29-3.66-35.41,12-.34.41s12.86,57.16,15.25,72.4c0,0,8.47-21.8,18.6-33.2S238,293.29,238,293.29Z" style="fill:#fff;stroke:#263238;stroke-linecap:round;stroke-linejoin:round"></path><path d="M298.57,208.73l-83.08,10.39,1.63,12.48,14.2,19,28.81,32.93s7.29-28.82,11.4-40.53,14.18-24.21,14.18-24.21L290,214l8.7-5.26Z" style="fill:#fff;stroke:#263238;stroke-linecap:round;stroke-linejoin:round"></path><path d="M284.82,213.39s12.33.41,20.95,4.93" style="fill:none;stroke:#263238;stroke-linecap:round;stroke-linejoin:round"></path><path d="M231.82,225.73q2.33-.66,4.93-1.25" style="fill:none;stroke:#263238;stroke-linecap:round;stroke-linejoin:round"></path><path d="M212.5,234.34s5.42-4.27,16.71-7.83" style="fill:none;stroke:#263238;stroke-linecap:round;stroke-linejoin:round"></path><polygon points="264.28 387.83 261.08 288.23 315.93 357.44 264.28 387.83" style="fill:#fff;stroke:#263238;stroke-linecap:round;stroke-linejoin:round"></polygon><path d="M352.88,320.67s-32.58-27.38-88.95-36.88c0,0,50-33,91.33-32.67C352.4,269.7,352.88,320.67,352.88,320.67Z" style="fill:#fff;stroke:#263238;stroke-linecap:round;stroke-linejoin:round"></path><path d="M236.16,415.13l-17.79,1.33s-6.22-.22-3.11,9.79,16.46,21.79,29.8,26.9,36,6.67,42.69,5.56,17.13-12.89,24.24-20.46,11.12-16.23,11.12-16.9S318.22,418,303.76,416s-52.25-1.78-62.26-1.78Z" style="fill:#263238;stroke:#263238;stroke-linecap:round;stroke-linejoin:round"></path><rect x="234.62" y="299.69" width="39.14" height="31.64" style="fill:#263238;stroke:#263238;stroke-linecap:round;stroke-linejoin:round"></rect><path d="M252.5,320.85c1.13.23,13.38.68,17.47.68s9.52,3.18,9.52,3.18-1.36,24.05-1.36,32.67,5.9,51.94,6.13,52.85,2,7.94-2.27,9.76-20-.91-24.05-.68-10.43,1.58-20.87.68-11.34-.91-10.43-2.5,3.85-88,6.35-90.74,8.85-5.22,8.85-5.22C245.47,320.17,251.36,320.63,252.5,320.85Z" style="fill:#c7c7c7;stroke:#263238;stroke-linecap:round;stroke-linejoin:round"></path><path d="M257.94,419.31a57.46,57.46,0,0,1,9.53-1.59" style="fill:none;stroke:#263238;stroke-linecap:round;stroke-linejoin:round"></path><path d="M262.46,399.93a36.62,36.62,0,0,1-2.7,3.5" style="fill:none;stroke:#263238;stroke-linecap:round;stroke-linejoin:round"></path><path d="M272.23,361.91s.54,20.69-8.39,35.84" style="fill:none;stroke:#263238;stroke-linecap:round;stroke-linejoin:round"></path><path d="M245.42,310.05V319l-8.26,4.36s4.59,9.87,15.84,10.33,20.43-12.16,20.43-12.16l-10.1-1.61-.23-9.87Z" style="fill:#fff;stroke:#263238;stroke-linecap:round;stroke-linejoin:round"></path><line x1="245.42" y1="319" x2="245.65" y2="327.26" style="fill:none;stroke:#263238;stroke-linecap:round;stroke-linejoin:round"></line><line x1="263.33" y1="319.92" x2="263.33" y2="326.35" style="fill:none;stroke:#263238;stroke-linecap:round;stroke-linejoin:round"></line><path d="M237.62,322.21s-20.66,10.56-22,14-12.17,41.31-12.17,42-8.95,6-11.25,10.1-.45,9.87.23,10.78a233.25,233.25,0,0,0,21.12,17.45c7.57,5.28,9.87,4.59,15.38-.69s7.8-15.84,7.57-24.79S237.62,322.21,237.62,322.21Z" style="fill:#fff;stroke:#263238;stroke-linecap:round;stroke-linejoin:round"></path><path d="M219.49,400.35c0,.82,0,1.48,0,2-.46,7.57-1.84,9.18-1.84,9.18" style="fill:none;stroke:#263238;stroke-linecap:round;stroke-linejoin:round"></path><path d="M213.52,344.25s4.61,36.21,5.74,51.91" style="fill:none;stroke:#263238;stroke-linecap:round;stroke-linejoin:round"></path><path d="M230.35,399.88c.66-1,1.33-2,2-3.07" style="fill:none;stroke:#263238;stroke-linecap:round;stroke-linejoin:round"></path><path d="M210.31,412.88s9,1.68,18.86-11.38" style="fill:none;stroke:#263238;stroke-linecap:round;stroke-linejoin:round"></path><path d="M207.38,384.81c2.63,5.38,6,14.57,5,24.85" style="fill:none;stroke:#263238;stroke-linecap:round;stroke-linejoin:round"></path><path d="M204.57,379.82a36.71,36.71,0,0,1,1.91,3.22" style="fill:none;stroke:#263238;stroke-linecap:round;stroke-linejoin:round"></path><path d="M275.64,323s-.27,26.54-1.61,51.48,4.56,38.34,9.39,42.36,7.77,4.56,7.77,4.56,19-10.46,21.18-13.41,7-11.79,5.9-19.57-7.77-18.23-8.58-20.64-9.38-15-12.33-21.72-7-14.48-10.19-17.16S275.64,323,275.64,323Z" style="fill:#fff;stroke:#263238;stroke-linecap:round;stroke-linejoin:round"></path><path d="M281.81,392.19c-2.15,11.26,9.92,19.31,17.43,19.84s14.47-5.63,14.47-5.63" style="fill:#fff;stroke:#263238;stroke-linecap:round;stroke-linejoin:round"></path><path d="M297.36,349s-11.76,28-15,40.79" style="fill:#fff;stroke:#263238;stroke-linecap:round;stroke-linejoin:round"></path><path d="M315.4,395.8c1-5.57,1.2-12.62-1.42-19.16" style="fill:#fff;stroke:#263238;stroke-linecap:round;stroke-linejoin:round"></path><path d="M294.63,368.35c-2.58,5.59-6.65,15.16-7.73,22-1.61,10.19,8.05,13.94,13.68,15,4.87.93,11.55-2.36,13.95-6.91" style="fill:#fff;stroke:#263238;stroke-linecap:round;stroke-linejoin:round"></path><path d="M296.82,363.77s-.58,1.16-1.48,3.05" style="fill:#fff;stroke:#263238;stroke-linecap:round;stroke-linejoin:round"></path><path d="M192.86,390.38s1.2-.27,2.5,3a5.5,5.5,0,0,0,4.95,3.64c.78,0,3.77,0,4.95,1.56s-2,4.82-4,4.82-7.95-1.69-10.29-.78-.91-4.17-.13-6.64S192.86,390.38,192.86,390.38Z" style="fill:none;stroke:#263238;stroke-linecap:round;stroke-linejoin:round"></path><path d="M192.86,390.38s-5.05-.46-5.05,3,2.53,9.41,4.59,8.26,1.84-3,1.84-6.43S192.86,390.38,192.86,390.38Z" style="fill:none;stroke:#263238;stroke-linecap:round;stroke-linejoin:round"></path><path d="M187.67,392.19s-2.47-1.17-2.73,4.3,2.87,7.55,4.43,7.55,1.69-2.34,1.69-2.34A16.25,16.25,0,0,1,187.67,392.19Z" style="fill:none;stroke:#263238;stroke-linecap:round;stroke-linejoin:round"></path><path d="M185.2,393.76s-2.21,3.38-2.47,6.25,3.9,7,5.73,4.82l-.39-1.18S184.16,401.05,185.2,393.76Z" style="fill:none;stroke:#263238;stroke-linecap:round;stroke-linejoin:round"></path><path d="M182.34,401.05a8.62,8.62,0,0,0-.26,5.6c.91,3,3.64,3.65,3.38,1.69s-.91-4.56-.91-4.56Z" style="fill:none;stroke:#263238;stroke-linecap:round;stroke-linejoin:round"></path><path d="M200.31,397.66s.13,6.64,2.6,7.43,3.65-3.78,2.61-5.86-4.69-3.13-6-2.48" style="fill:none;stroke:#263238;stroke-linecap:round;stroke-linejoin:round"></path><path d="M301,337a1.91,1.91,0,0,0-2.52,1.48c-.46,2.53-1.56,7.63-3.1,9.4a7,7,0,0,0-.8,8.46c1.76,2.72,3.2,4.63,3.2,4.63a12.39,12.39,0,0,1,0,6.23,68.2,68.2,0,0,0-2.24,18.37c.32,5.91,2.56,6.87,7,6.71s7.34-6.87,7.18-11.66-3.35-15.33-3.35-17.25,1.76-5.75,1.76-5.75-5.43-7.83-6.07-9.1-1.12-2.4-1.12-2.4S304.11,338.31,301,337Z" style="fill:#fff;stroke:#263238;stroke-linecap:round;stroke-linejoin:round"></path><path d="M312.94,373.63a2.43,2.43,0,0,1-1.81-1.15l-13.88-22.94a2.41,2.41,0,0,1,4.13-2.5L315.26,370a2.4,2.4,0,0,1-.82,3.31A2.37,2.37,0,0,1,312.94,373.63Z" style="fill:#263238"></path><rect x="281.68" y="289.38" width="2.41" height="63.49" transform="translate(-125.38 192.8) rotate(-31.17)" style="fill:#fff;stroke:#263238;stroke-linecap:round;stroke-linejoin:round"></rect><path d="M303.55,349s-6.55,1.76-6.07,4.32,2.23,1.75,3.67,1.12,5.43-1.6,5.43-3.52S304.82,348.88,303.55,349Z" style="fill:#fff;stroke:#263238;stroke-linecap:round;stroke-linejoin:round"></path><path d="M301.15,354.47s-2.71,1.27-1.92,2.87,1.6,1.92,2.4,1.44,5.91-2.4,6.71-4-1.44-2.87-2.08-2.71S301.15,354.47,301.15,354.47Z" style="fill:#fff;stroke:#263238;stroke-linecap:round;stroke-linejoin:round"></path><path d="M301.63,358.78s-.16,1.12,1.44,2.23,5.43-1.75,6.23-3.35-1-2.88-1-2.88S302.59,358.3,301.63,358.78Z" style="fill:#fff;stroke:#263238;stroke-linecap:round;stroke-linejoin:round"></path><path d="M304.82,349s.48-3.19-1.11-4.15-5.59,1.12-6.07,3.2,1,2.87,2.23,2.23A28,28,0,0,1,304.82,349Z" style="fill:#fff;stroke:#263238;stroke-linecap:round;stroke-linejoin:round"></path><path d="M325.56,415.13c.66,11.79-21.35,25.57-31.8,30.24-3,1.33-7,3-11.53,4.77-11.42,4.49-25.59,9.58-31.17,11-7.78,2-18.45,2.22-29.12,2.22s-16.46-2.89-18-11.12,2.44-8.67,6-8.67,19.57,5.78,27.13,4.67,14.89-7.78,25.57-16.68c1.24-1,2.71-2.19,4.34-3.44,12.41-9.49,34.13-23.9,34.13-23.9a72.53,72.53,0,0,1,10.45-4.45C315.55,398.68,324.89,403.34,325.56,415.13Z" style="fill:#263238;stroke:#263238;stroke-linecap:round;stroke-linejoin:round"></path><path d="M282.23,450.14c-11.42,4.49-25.59,9.58-31.17,11-7.78,2-18.45,2.22-29.12,2.22s-16.46-2.89-18-11.12,2.44-8.67,6-8.67,19.57,5.78,27.13,4.67,14.89-7.78,25.57-16.68c1.24-1,2.71-2.19,4.34-3.44-.22,4.17.25,11.77,5.66,16.56A25.22,25.22,0,0,0,282.23,450.14Z" style="fill:#4f4f4f;stroke:#263238;stroke-linecap:round;stroke-linejoin:round"></path><path d="M234.16,430.92s-9.34-8.9-18.45-18.68-17.32-15.06-26.34-8.2-4.35,14.87,2.54,24.88,20.24,20,35.14,26.68,34.46,10.67,42.47,10.67,23.79,2.89,28,1.56,5.78-7.56,5.11-12.23-3.11-6.23-8.45-6.23-15.56,4.45-26,3.78S242.17,439.81,234.16,430.92Z" style="fill:#263238;stroke:#263238;stroke-linecap:round;stroke-linejoin:round"></path><path d="M227.05,455.6c14.9,6.67,34.46,10.67,42.47,10.67s23.79,2.89,28,1.56,5.78-7.56,5.11-12.23-3.11-6.23-8.45-6.23-15.56,4.45-26,3.78-26-13.34-34-22.23c0,0-3.66-3.49-8.63-8.5a21.92,21.92,0,0,1-9.6,13.61,31.92,31.92,0,0,1-12.73,4.86A104.17,104.17,0,0,0,227.05,455.6Z" style="fill:#4f4f4f;stroke:#263238;stroke-linecap:round;stroke-linejoin:round"></path><path d="M239.23,305.69s10.78,12.16,14.92,12.16,15.37-10.78,16.29-12.85.69-26.62.69-26.62a29.7,29.7,0,0,0-19-3.45c-10.56,1.84-12.85,5.74-12.85,5.74Z" style="fill:#fff;stroke:#263238;stroke-linecap:round;stroke-linejoin:round"></path><path d="M243.82,289.85s3.44-1.61,5.51-.69" style="fill:none;stroke:#263238;stroke-linecap:round;stroke-linejoin:round"></path><path d="M265.85,289.85c-2.29-2.29-5.74-.92-5.74-.92" style="fill:none;stroke:#263238;stroke-linecap:round;stroke-linejoin:round"></path><line x1="257.36" y1="295.59" x2="254.37" y2="296.74" style="fill:none;stroke:#263238;stroke-linecap:round;stroke-linejoin:round"></line><path d="M259,283.88s4.13-3,7.34,1.15" style="fill:none;stroke:#263238;stroke-linecap:round;stroke-linejoin:round"></path><path d="M251.16,283.88s-5-3.21-7.57,2.3" style="fill:none;stroke:#263238;stroke-linecap:round;stroke-linejoin:round"></path><path d="M247.72,300.87a10.6,10.6,0,0,0,7.34,3,9.21,9.21,0,0,0,7.12-3.67" style="fill:none;stroke:#263238;stroke-linecap:round;stroke-linejoin:round"></path><path d="M240.6,278.83s-1.6,39.25-.46,47.52,6.89,28.46,8.73,31.21,2.75,3,2.75,3-10.43,3.71-16.53-4.13c-3.21-4.13-6.65-8.26-7.8-19.28-1.57-15.09,5.05-49.57,5.05-49.57S234.18,279.06,240.6,278.83Z" style="fill:#263238;stroke:#263238;stroke-linecap:round;stroke-linejoin:round"></path><path d="M268.82,278.83s1.61,39.25.46,47.52-6.88,28.46-8.72,31.21-2.75,3-2.75,3,10.42,3.71,16.52-4.13c3.22-4.13,6.66-8.26,7.81-19.28,1.57-15.09-5.05-49.57-5.05-49.57S275.25,279.06,268.82,278.83Z" style="fill:#263238;stroke:#263238;stroke-linecap:round;stroke-linejoin:round"></path><path d="M232.8,280.56s3.9-15.27,19.51-16.87,21.8,6.88,22.49,14.46c0,0-8.26-7.12-22.26-5.51S232.8,280.56,232.8,280.56Z" style="fill:#c7c7c7;stroke:#263238;stroke-linecap:round;stroke-linejoin:round"></path><path d="M231.42,291.69s1.61-8,12.86-11.94a36.34,36.34,0,0,1,23.64.23c2.75.92,8,5.28,9.18,8.26a14.34,14.34,0,0,0,0-4.82c-.46-2.52.46-6.65-3.67-9.86s-15.61-5.51-24.33-4.14S234,276.08,231.65,280.9,230.5,291,231.42,291.69Z" style="fill:#c7c7c7;stroke:#263238;stroke-linecap:round;stroke-linejoin:round"></path></g></svg>
