<svg xmlns="http://www.w3.org/2000/svg" viewBox="0 0 500 500"><g id="background-complete"><rect x="416.78" y="398.49" width="33.12" height="0.25" style="fill:#ebebeb"></rect><rect x="322.53" y="401.21" width="8.69" height="0.25" style="fill:#ebebeb"></rect><rect x="396.59" y="389.21" width="19.19" height="0.25" style="fill:#ebebeb"></rect><rect x="52.46" y="390.89" width="43.19" height="0.25" style="fill:#ebebeb"></rect><rect x="104.56" y="390.89" width="6.33" height="0.25" style="fill:#ebebeb"></rect><rect x="178.18" y="348.4" width="0.25" height="93.68" transform="translate(-217.74 571.74) rotate(-89.74)" style="fill:#ebebeb"></rect><path d="M238.4,337.8H45.3a5.71,5.71,0,0,1-5.71-5.71V60.66A5.71,5.71,0,0,1,45.3,55H238.4a5.71,5.71,0,0,1,5.71,5.71V332.09A5.71,5.71,0,0,1,238.4,337.8ZM45.3,55.2a5.47,5.47,0,0,0-5.46,5.46V332.09a5.47,5.47,0,0,0,5.46,5.46H238.4a5.47,5.47,0,0,0,5.46-5.46V60.66a5.47,5.47,0,0,0-5.46-5.46Z" style="fill:#ebebeb"></path><path d="M454.7,337.8H261.6a5.71,5.71,0,0,1-5.71-5.71V60.66A5.71,5.71,0,0,1,261.6,55H454.7a5.71,5.71,0,0,1,5.71,5.71V332.09A5.71,5.71,0,0,1,454.7,337.8ZM261.6,55.2a5.47,5.47,0,0,0-5.46,5.46V332.09a5.47,5.47,0,0,0,5.46,5.46H454.7a5.47,5.47,0,0,0,5.46-5.46V60.66a5.47,5.47,0,0,0-5.46-5.46Z" style="fill:#ebebeb"></path><rect y="382.4" width="500" height="0.25" style="fill:#ebebeb"></rect><rect x="264.78" y="300.04" width="182.7" height="82.01" rx="19.67" style="fill:#e0e0e0"></rect><rect x="255.15" y="300.64" width="182.7" height="82.01" rx="19.67" style="fill:#f5f5f5"></rect><path d="M278.33,308.37h137.4a13.74,13.74,0,0,1,13.74,13.74V339a0,0,0,0,1,0,0H264.6a0,0,0,0,1,0,0V322.11A13.74,13.74,0,0,1,278.33,308.37Z" style="fill:#e0e0e0"></path><path d="M264.6,343.11H429.47a0,0,0,0,1,0,0V360a13.74,13.74,0,0,1-13.74,13.74H278.34A13.74,13.74,0,0,1,264.6,360V343.11A0,0,0,0,1,264.6,343.11Z" style="fill:#e0e0e0"></path><rect x="362.32" y="314.3" width="23.37" height="24.87" style="fill:#e6e6e6"></rect><rect x="356.33" y="314.3" width="5.99" height="24.87" style="fill:#f5f5f5"></rect><rect x="374.26" y="310.46" width="17.55" height="28.71" style="fill:#e6e6e6"></rect><rect x="369.19" y="310.46" width="5.07" height="28.71" style="fill:#f5f5f5"></rect><rect x="379.43" y="314.3" width="14.8" height="24.87" style="fill:#ebebeb"></rect><rect x="376.05" y="314.3" width="3.38" height="24.87" style="fill:#f5f5f5"></rect><rect x="391.54" y="318.51" width="19.41" height="20.67" style="fill:#e6e6e6"></rect><rect x="386.57" y="318.51" width="4.97" height="20.67" style="fill:#f5f5f5"></rect><rect x="401.46" y="315.32" width="14.58" height="23.85" style="fill:#e6e6e6"></rect><rect x="397.25" y="315.32" width="4.22" height="23.85" style="fill:#f5f5f5"></rect><rect x="405.76" y="318.51" width="14.17" height="20.67" style="fill:#e6e6e6"></rect><rect x="402.95" y="318.51" width="2.81" height="20.67" style="fill:#f0f0f0"></rect><rect x="289.6" y="347.89" width="23.37" height="24.87" style="fill:#e6e6e6"></rect><rect x="283.61" y="347.89" width="5.99" height="24.87" style="fill:#f5f5f5"></rect><rect x="301.54" y="344.05" width="17.55" height="28.71" style="fill:#e6e6e6"></rect><rect x="296.47" y="344.05" width="5.07" height="28.71" style="fill:#f5f5f5"></rect><rect x="369.32" y="347.89" width="23.37" height="24.87" style="fill:#e6e6e6"></rect><rect x="363.33" y="347.89" width="5.99" height="24.87" style="fill:#f5f5f5"></rect><rect x="381.26" y="344.05" width="17.55" height="28.71" style="fill:#e6e6e6"></rect><rect x="376.19" y="344.05" width="5.08" height="28.71" style="fill:#f5f5f5"></rect><rect x="306.71" y="347.89" width="14.8" height="24.87" style="fill:#ebebeb"></rect><rect x="303.33" y="347.89" width="3.38" height="24.87" style="fill:#f5f5f5"></rect><rect x="318.82" y="352.1" width="19.41" height="20.67" style="fill:#e6e6e6"></rect><rect x="313.85" y="352.1" width="4.97" height="20.67" style="fill:#f5f5f5"></rect><rect x="328.74" y="348.91" width="14.58" height="23.85" style="fill:#e6e6e6"></rect><rect x="324.53" y="348.91" width="4.22" height="23.85" style="fill:#f5f5f5"></rect><rect x="333.04" y="352.1" width="14.17" height="20.67" style="fill:#e6e6e6"></rect><rect x="330.23" y="352.1" width="2.81" height="20.67" style="fill:#f0f0f0"></rect><path d="M312.77,315.06a2.5,2.5,0,0,0-2.66-1.34,2.65,2.65,0,0,0-2,2.31,2.21,2.21,0,0,0-2.53-.07,2.55,2.55,0,0,0-1,2.45,1.86,1.86,0,0,0-2.7.55,2.09,2.09,0,0,0,.83,2.78,1.34,1.34,0,0,0,.06,2.67,1.44,1.44,0,0,0-1.33,1.27,1.51,1.51,0,0,0,1,1.57,1.22,1.22,0,0,0-.29,1.88,1.1,1.1,0,0,0,1.73-.55.36.36,0,0,0,.57.09.39.39,0,0,0-.11-.59.66.66,0,0,0,1.14-.3,1.65,1.65,0,0,0,2.23,1.76,1,1,0,0,0,.66,1.36,2.32,2.32,0,0,0,1.61-.32,3.62,3.62,0,0,1,1.58-.53,5.18,5.18,0,0,1,1.42.39,4.24,4.24,0,0,0,4.31-1.13,1.84,1.84,0,0,0,3.07-.47,1.37,1.37,0,0,0,1.21,1.09,1.34,1.34,0,0,0,1.31-.94c0,.26,0,.52,0,.78a1.63,1.63,0,0,0,1.67-2.18,1.67,1.67,0,0,0,1.59-1.45,1.72,1.72,0,0,0-1.19-1.83,3.23,3.23,0,0,0,.06-6.13,1.54,1.54,0,0,0-1.47.2.93.93,0,0,0,0,1.39,3,3,0,0,0-1.27-3.33,2.64,2.64,0,0,0-3.33.71,1.66,1.66,0,0,0,0-1.84,1.47,1.47,0,0,0-1.67-.56,1.67,1.67,0,0,0-1.8-1.37,1.74,1.74,0,0,0-1.35,1.86.85.85,0,0,0-1.53-.29C312.19,314.82,312.77,315.06,312.77,315.06Z" style="fill:#ebebeb"></path><path d="M313.07,323a1.52,1.52,0,0,0-1.14-.28,1.05,1.05,0,0,0-.83.78.81.81,0,0,0,.55.94c.48.12,1-.27,1.44-.21a4.83,4.83,0,0,1,.5.16,2.48,2.48,0,0,0,2-.7,2.31,2.31,0,0,0,.55-.53.74.74,0,0,0,.06-.72,1,1,0,0,0-1-.31,3.82,3.82,0,0,0-1.93.81l.05-.33Z" style="fill:#fafafa"></path><path d="M323.21,322.44a1.88,1.88,0,0,0-.61-.32.56.56,0,0,0-.46,1,1.75,1.75,0,0,0,.89.3c.32.05.73.07.89-.22a.56.56,0,0,0-.15-.64,1.66,1.66,0,0,0-.64-.31Z" style="fill:#fafafa"></path><path d="M307.2,317.17a2.23,2.23,0,0,0-1.3,1.55.43.43,0,0,0,.58.58l1.86-.44a2.83,2.83,0,0,0-.84.45.93.93,0,0,0-.32.85.86.86,0,0,0,.86.57,1.88,1.88,0,0,0,1-.4,1.35,1.35,0,0,0,.64-.95c0-.4-.49-.77-.8-.52a6.62,6.62,0,0,0,2-.9,2,2,0,0,0,.58-.54.77.77,0,0,0,.06-.76c-.64-1.15-1.44.54-1.83.69C309,317.64,308.14,316.78,307.2,317.17Z" style="fill:#fafafa"></path><path d="M304.32,322.09a.61.61,0,0,0,.16.64.39.39,0,0,0,.59-.12,2.11,2.11,0,0,0-1.11.62c-.26.35-.2,1,.21,1.1a1,1,0,0,0,.77-.17,13.87,13.87,0,0,0,1.92-1.27c-.18.43.26.91.72.95a2.24,2.24,0,0,0,1.29-.45c.48-.3,1-.75.91-1.3a.94.94,0,0,0-1.2-.55,2.71,2.71,0,0,0-1.16.89c.26-.38-.11-.95-.56-1a1.35,1.35,0,0,0-1.16.54c.51-.28.63-1-.06-1.11C305.19,320.8,304.42,321.71,304.32,322.09Z" style="fill:#fafafa"></path><path d="M318.47,320.43a.77.77,0,0,0-1,.51.79.79,0,0,0,.61.93,1.14,1.14,0,0,0-.79.41.56.56,0,0,0-.16.46.55.55,0,0,0,.55.42,1.69,1.69,0,0,0,.72-.2,1.33,1.33,0,0,0-.71.2.46.46,0,0,0-.1.66.58.58,0,0,0,.59.06,3,3,0,0,0,1.22-.68,1.15,1.15,0,0,0,1,.43.71.71,0,0,0,.59-.83.75.75,0,0,0-.63-.46,1.87,1.87,0,0,0-.81.13,1.51,1.51,0,0,0,.65-.72c.1-.31-.12-.73-.44-.7s-.56.53-.85.71C318.59,321.42,319.26,320.72,318.47,320.43Z" style="fill:#fafafa"></path><path d="M311.86,318.9a1.52,1.52,0,0,0-.53,1.35,1.54,1.54,0,0,0,.79,1.37,1.28,1.28,0,0,0,1.64-1,1.81,1.81,0,0,0-1-1.79A1,1,0,0,0,311.86,318.9Z" style="fill:#fafafa"></path><path d="M316.54,318.31l.18.14a.88.88,0,0,0-1.23-.09.84.84,0,1,0,1.22,1.14,1.27,1.27,0,0,0,1.47-.28,1,1,0,0,0-.2-1.39.78.78,0,0,0-1.13.66l-.2-.22Z" style="fill:#fafafa"></path><path d="M321.71,319.14a2.76,2.76,0,0,0-.8,1.12.93.93,0,0,0,.53,1.14c.45.11.88-.26,1.13-.64a1.42,1.42,0,0,0,.28-1.18c-.14-.39-.71-.63-1-.32Z" style="fill:#fafafa"></path><path d="M314.27,316.43a.76.76,0,0,0-1.06-.29.92.92,0,0,0-.33,1.09,1.2,1.2,0,0,0,1,.69c.51.05,1.11-.36,1-.86a1.06,1.06,0,0,0,1,.37,2.54,2.54,0,0,0,1-.38c.42-.24.88-.62.83-1.11a.87.87,0,0,0-.8-.73,1.49,1.49,0,0,0-1.07.4c-.24.2-.43.45-.68.62a.87.87,0,0,1-.87.13Z" style="fill:#fafafa"></path><polygon points="320.63 339.17 307.82 339.17 306.56 326.26 321.88 326.26 320.63 339.17" style="fill:#f0f0f0"></polygon><polygon points="322.87 326.93 305.45 326.93 305.13 325.21 323.18 325.21 322.87 326.93" style="fill:#fafafa"></polygon><polygon points="423.49 299.73 408.79 299.73 413.39 284.89 414.07 282.72 417.39 282.72 423.49 299.73" style="fill:#e0e0e0"></polygon><polygon points="414.07 282.72 413.39 284.89 408.79 299.73 395.2 299.52 390.83 284.89 390.16 282.72 414.07 282.72" style="fill:#e0e0e0"></polygon><polygon points="414.07 282.72 413.39 284.89 408.79 299.73 380.88 299.31 386.82 282.72 414.07 282.72" style="fill:#fafafa"></polygon><polygon points="414.07 282.72 413.39 284.89 386.05 284.89 386.82 282.72 414.07 282.72" style="fill:#ebebeb"></polygon><path d="M390.26,291.94h-6.13l2.14-6,5.86.06Zm-5.43-.5h5.06l1.56-5-4.83-.06Z" style="fill:#ebebeb"></path><path d="M397.11,291.94H391l2.14-6L399,286Zm-5.42-.5h5.06l1.55-5-4.83-.06Z" style="fill:#ebebeb"></path><path d="M404,291.94h-6.13l2.14-6,5.86.06Zm-5.42-.5h5.05l1.56-5-4.83-.06Z" style="fill:#ebebeb"></path><path d="M410.83,291.94H404.7l2.14-6,5.86.06Zm-5.43-.5h5.06l1.56-5-4.83-.06Z" style="fill:#ebebeb"></path><path d="M388.12,298.34H382l2.14-6,5.86.07Zm-5.42-.5h5.05l1.56-5-4.83-.05Z" style="fill:#ebebeb"></path><path d="M395,298.34h-6.12l2.13-6,5.86.07Zm-5.42-.5h5.06l1.56-5-4.83-.05Z" style="fill:#ebebeb"></path><path d="M401.83,298.34H395.7l2.14-6,5.86.07Zm-5.42-.5h5l1.56-5-4.83-.05Z" style="fill:#ebebeb"></path><path d="M408.69,298.34h-6.13l2.14-6,5.86.07Zm-5.42-.5h5.05l1.56-5-4.83-.05Z" style="fill:#ebebeb"></path><path d="M353.89,300H336.75V290.2a8.57,8.57,0,0,1,8.57-8.57h0a8.56,8.56,0,0,1,8.57,8.57Z" style="fill:#f0f0f0"></path><circle cx="345.22" cy="290.65" r="7.23" style="fill:#fff"></circle><path d="M350.92,290.65a5.81,5.81,0,1,1-5.8-5.8A5.81,5.81,0,0,1,350.92,290.65Z" style="fill:#ebebeb"></path><path d="M345.8,290.78a.63.63,0,1,1-.63-.62A.63.63,0,0,1,345.8,290.78Z" style="fill:#fafafa"></path><polygon points="345.1 291.01 342.44 288.52 342.7 288.24 345.11 290.51 349.42 286.7 349.67 286.98 345.1 291.01" style="fill:#fafafa"></polygon><polygon points="390.56 95.73 401.44 106.61 390.56 117.49 390.56 95.73" style="fill:#e6e6e6"></polygon><polygon points="373.99 91.81 388.7 106.52 373.99 121.22 373.99 91.81" style="fill:#e6e6e6"></polygon><polygon points="428.75 166.79 422.38 160.43 434.52 148.28 422.62 137.96 428.51 131.16 447.71 147.81 428.75 166.79" style="fill:#e6e6e6"></polygon><path d="M124.81,356.93a2.5,2.5,0,0,1-1.77-4.26L137.7,338l-14.53-12.6a2.5,2.5,0,1,1,3.27-3.77L143,336a2.51,2.51,0,0,1,.13,3.66L126.57,356.2A2.45,2.45,0,0,1,124.81,356.93Z" style="fill:#e6e6e6"></path><path d="M136,356.93a2.5,2.5,0,0,1-1.77-4.26L148.88,338l-14.53-12.6a2.5,2.5,0,1,1,3.27-3.77L154.18,336a2.5,2.5,0,0,1,.86,1.8,2.53,2.53,0,0,1-.73,1.86L137.76,356.2A2.49,2.49,0,0,1,136,356.93Z" style="fill:#e6e6e6"></path></g><g id="background-simple"><path d="M166.49,69.15C132.05,75,93.56,98.83,77.13,127.44S56.68,190,62.88,221.92s22.18,61.73,43.28,87.57c28.46,34.85,69.92,63,116.33,70.89,45,7.68,92.73-10.5,131.46-33s69.72-57.47,81.8-98.29c4.73-16,6.45-33.51-.57-48.74-9.79-21.28-35.15-33.74-60.06-35.53s-40.15,5.34-63.39,13.85C304.52,156.69,279.58,50,166.49,69.15Z" style="fill:#407BFF"></path><g style="opacity:0.9"><path d="M166.49,69.15C132.05,75,93.56,98.83,77.13,127.44S56.68,190,62.88,221.92s22.18,61.73,43.28,87.57c28.46,34.85,69.92,63,116.33,70.89,45,7.68,92.73-10.5,131.46-33s69.72-57.47,81.8-98.29c4.73-16,6.45-33.51-.57-48.74-9.79-21.28-35.15-33.74-60.06-35.53s-40.15,5.34-63.39,13.85C304.52,156.69,279.58,50,166.49,69.15Z" style="fill:#fff"></path></g></g><g id="Shadow"><ellipse id="path" cx="250" cy="415.69" rx="193.89" ry="11.32" style="fill:#f5f5f5"></ellipse></g><g id="Plant"><path d="M238.51,342.54s-13.62-10.73-24.89-.48l4.53.6-6.77,1.77a29.32,29.32,0,0,0-2.55,3.64c-1,1.65-1.9,3.19-2.74,4.65l4.52.94-6.94,3.26c-7.11,12.53-8.3,16.34-8.3,16.34a64.88,64.88,0,0,0,13.49-1.43l4-10.42.81,9.2a42.41,42.41,0,0,0,13.5-6.56l-1.77-9.31,5.41,6.09a27.15,27.15,0,0,0,6.51-11.43l-3.06-2.95,3.61.74A33,33,0,0,0,238.51,342.54Z" style="fill:#407BFF"></path><path d="M238.51,342.54s-13.62-10.73-24.89-.48l4.53.6-6.77,1.77a29.32,29.32,0,0,0-2.55,3.64c-1,1.65-1.9,3.19-2.74,4.65l4.52.94-6.94,3.26c-7.11,12.53-8.3,16.34-8.3,16.34a64.88,64.88,0,0,0,13.49-1.43l4-10.42.81,9.2a42.41,42.41,0,0,0,13.5-6.56l-1.77-9.31,5.41,6.09a27.15,27.15,0,0,0,6.51-11.43l-3.06-2.95,3.61.74A33,33,0,0,0,238.51,342.54Z" style="fill:#fff;opacity:0.2"></path><path d="M265.31,334.5s17.61-13.88,32.17-.63l-5.86.77,8.74,2.29a36.52,36.52,0,0,1,3.3,4.7c1.28,2.13,2.45,4.13,3.55,6l-5.85,1.22,9,4.21c9.18,16.19,10.73,21.12,10.73,21.12a84.88,84.88,0,0,1-17.43-1.85l-5.17-13.46-1.06,11.88A55,55,0,0,1,280,362.28l2.29-12-7,7.87a35.11,35.11,0,0,1-8.41-14.76l4-3.81-4.66,1A42.87,42.87,0,0,1,265.31,334.5Z" style="fill:#407BFF"></path><path d="M265.31,334.5s17.61-13.88,32.17-.63l-5.86.77,8.74,2.29a36.52,36.52,0,0,1,3.3,4.7c1.28,2.13,2.45,4.13,3.55,6l-5.85,1.22,9,4.21c9.18,16.19,10.73,21.12,10.73,21.12a84.88,84.88,0,0,1-17.43-1.85l-5.17-13.46-1.06,11.88A55,55,0,0,1,280,362.28l2.29-12-7,7.87a35.11,35.11,0,0,1-8.41-14.76l4-3.81-4.66,1A42.87,42.87,0,0,1,265.31,334.5Z" style="fill:#fff;opacity:0.30000000000000004"></path><path d="M258.1,309.1s-2.64,22.26-22.3,23.19l3.59-4.69-7.79,4.57a38.56,38.56,0,0,1-5.66-1c-2.41-.61-4.65-1.19-6.76-1.75l3.28-5-9.32,3.36c-17.95-5-22.52-7.35-22.52-7.35a84.43,84.43,0,0,1,13.63-11l13.17,5.86-7.66-9.15a54.89,54.89,0,0,1,18.33-6.33L235,309.94l-.62-10.51a35,35,0,0,1,16.39,4.49l-.11,5.5,2.62-4A43.66,43.66,0,0,1,258.1,309.1Z" style="fill:#407BFF"></path><path d="M258.1,309.1s-2.64,22.26-22.3,23.19l3.59-4.69-7.79,4.57a38.56,38.56,0,0,1-5.66-1c-2.41-.61-4.65-1.19-6.76-1.75l3.28-5-9.32,3.36c-17.95-5-22.52-7.35-22.52-7.35a84.43,84.43,0,0,1,13.63-11l13.17,5.86-7.66-9.15a54.89,54.89,0,0,1,18.33-6.33L235,309.94l-.62-10.51a35,35,0,0,1,16.39,4.49l-.11,5.5,2.62-4A43.66,43.66,0,0,1,258.1,309.1Z" style="fill:#fff;opacity:0.5"></path><path d="M215.21,352.42S245.33,310.08,255,372.5h-3.45s-3.29-28.6-14.76-30.72S215.21,352.42,215.21,352.42Z" style="fill:#407BFF"></path><path d="M289.91,344.66s-29-58.7-38.36,27.84h3.32s3.17-39.65,14.24-42.6S289.91,344.66,289.91,344.66Z" style="fill:#407BFF"></path><path d="M220.94,318.59S265,311.8,258.1,373.36h3.46S270.08,312,220.94,318.59Z" style="fill:#407BFF"></path><path d="M245.78,407.65l-1.43-38.13h25.5l-1.43,38.13a6.45,6.45,0,0,1-6.46,6.21h-9.72A6.45,6.45,0,0,1,245.78,407.65Z" style="fill:#263238"></path></g><g id="Screen"><polygon points="365.66 294.2 69.21 294.2 55.13 92.88 351.59 92.88 365.66 294.2" style="fill:#407BFF"></polygon><polygon points="352.58 108.32 56.21 108.32 55.13 92.88 351.5 92.88 352.58 108.32" style="fill:#263238"></polygon><path d="M322.14,99.82a2.93,2.93,0,0,1-3,3.18,3.47,3.47,0,0,1-3.41-3.18,2.94,2.94,0,0,1,3-3.19A3.48,3.48,0,0,1,322.14,99.82Z" style="fill:#fff;opacity:0.7000000000000001"></path><path d="M331.69,99.82a2.92,2.92,0,0,1-3,3.18,3.46,3.46,0,0,1-3.41-3.18,2.93,2.93,0,0,1,3-3.19A3.47,3.47,0,0,1,331.69,99.82Z" style="fill:#fff;opacity:0.7000000000000001"></path><path d="M341.25,99.82a2.93,2.93,0,0,1-3,3.18,3.46,3.46,0,0,1-3.41-3.18,2.93,2.93,0,0,1,3-3.19A3.48,3.48,0,0,1,341.25,99.82Z" style="fill:#fff;opacity:0.7000000000000001"></path><polygon points="365.66 294.2 69.21 294.2 59.68 157.92 356.13 157.92 365.66 294.2" style="fill:#fff;opacity:0.4"></polygon><path d="M126.28,157.92H59.68l2.23-13.22a9.35,9.35,0,0,1,9.37-7.84h40.45a11.13,11.13,0,0,1,10.47,7.84Z" style="fill:#fff;opacity:0.4"></path><path d="M195.48,157.92h-66.6l2.23-13.22a9.35,9.35,0,0,1,9.37-7.84h40.45a11.13,11.13,0,0,1,10.47,7.84Z" style="opacity:0.1"></path><path d="M264.68,157.92h-66.6l2.23-13.22a9.35,9.35,0,0,1,9.37-7.84h40.45a11.14,11.14,0,0,1,10.47,7.84Z" style="opacity:0.1"></path><path d="M93,150.44H90l-.48,1.4H88l2.45-6.54h1.5l3.38,6.54H93.7Zm-.55-1.15-1.21-2.5-.87,2.5Z"></path><path d="M164.42,150.06c.08,1.13-.77,1.78-2.49,1.78h-3.38l-.46-6.54h3.19c1.64,0,2.53.68,2.6,1.7a1.46,1.46,0,0,1-.77,1.44A1.77,1.77,0,0,1,164.42,150.06Zm-4.75-3.62.11,1.54h1.5c.74,0,1.13-.26,1.09-.77s-.46-.77-1.19-.77Zm3.21,3.46c0-.55-.47-.82-1.26-.82h-1.76l.11,1.62h1.77C162.52,150.7,162.92,150.46,162.88,149.9Z"></path><path d="M226.23,148.57a3.1,3.1,0,0,1,3.32-3.38,3.62,3.62,0,0,1,2.77,1.16l-.91.89a2.3,2.3,0,0,0-1.7-.76,1.86,1.86,0,0,0-2,2.09,2.19,2.19,0,0,0,2.24,2.09,1.92,1.92,0,0,0,1.59-.77l1,.89A3.13,3.13,0,0,1,230,152,3.65,3.65,0,0,1,226.23,148.57Z"></path><path d="M324.39,221.83H279.93a10.63,10.63,0,0,1-10.45-9.77l-.7-9.94a9,9,0,0,1,9.08-9.77h44.47a10.64,10.64,0,0,1,10.45,9.77l.7,9.94A9,9,0,0,1,324.39,221.83Z" style="fill:#263238"></path><path d="M322.39,220.17H279.81a10.64,10.64,0,0,1-10.45-9.76l-.58-8.29a9,9,0,0,1,9.08-9.77h42.58a10.64,10.64,0,0,1,10.46,9.77l.58,8.29A9,9,0,0,1,322.39,220.17Z" style="fill:#407BFF"></path><path d="M322.39,220.17H279.81a10.64,10.64,0,0,1-10.45-9.76l-.58-8.29a9,9,0,0,1,9.08-9.77h42.58a10.64,10.64,0,0,1,10.46,9.77l.58,8.29A9,9,0,0,1,322.39,220.17Z" style="fill:#fff;opacity:0.6000000000000001"></path><path d="M286.62,202.75l.51,7.31h-1.39l-3.95-4.44.31,4.44h-1.67l-.51-7.31h1.39l3.95,4.44-.31-4.44Z"></path><path d="M294.42,208.7l.09,1.36h-5.66l-.51-7.31h5.52l.1,1.36h-3.84l.11,1.58h3.39l.09,1.32h-3.39l.12,1.69Z"></path><path d="M300.38,210.06l-1.94-2.54-1.55,2.54h-1.95l2.45-3.72-2.82-3.59h1.92l1.85,2.37,1.48-2.37h1.83l-2.3,3.53,3,3.78Z"></path><path d="M304,204.13h-2.33l-.1-1.38h6.36l.1,1.38H305.7l.42,5.93h-1.69Z"></path><polygon points="311.48 201.46 318.98 206.26 312.15 211.06 311.48 201.46" style="fill:#263238"></polygon><path d="M196.41,88.25H110.87a.5.5,0,0,1-.5-.5.5.5,0,0,1,.5-.5h85.54a.5.5,0,0,1,.5.5A.5.5,0,0,1,196.41,88.25Z" style="fill:#407BFF"></path><path d="M100.89,88.25H88.07a.5.5,0,0,1-.5-.5.51.51,0,0,1,.5-.5h12.82a.51.51,0,0,1,.5.5A.5.5,0,0,1,100.89,88.25Z" style="fill:#407BFF"></path><polygon points="173.32 260.18 93.69 260.18 93.14 252.39 172.78 252.39 173.32 260.18" style="fill:#407BFF"></polygon><polygon points="173.32 260.18 93.69 260.18 93.14 252.39 172.78 252.39 173.32 260.18" style="opacity:0.1"></polygon><polygon points="198.06 270.07 94.38 270.07 94.21 267.63 197.89 267.63 198.06 270.07" style="fill:#263238"></polygon><polygon points="182.45 279.99 95.07 279.99 94.9 277.55 182.28 277.55 182.45 279.99" style="fill:#263238"></polygon><polygon points="229.52 118.59 83.78 118.59 83.61 116.14 229.35 116.14 229.52 118.59" style="fill:#263238"></polygon><polygon points="262.62 128.51 84.48 128.51 84.31 126.07 262.45 126.07 262.62 128.51" style="fill:#263238"></polygon><path d="M238.75,244.83H98.4a5.61,5.61,0,0,1-5.51-5.15l-4.72-67.51A4.74,4.74,0,0,1,93,167H233.31a5.61,5.61,0,0,1,5.51,5.15l4.72,67.51A4.73,4.73,0,0,1,238.75,244.83Z" style="fill:#407BFF"></path><path d="M238.75,244.83H98.4a5.61,5.61,0,0,1-5.51-5.15l-4.72-67.51A4.74,4.74,0,0,1,93,167H233.31a5.61,5.61,0,0,1,5.51,5.15l4.72,67.51A4.73,4.73,0,0,1,238.75,244.83Z" style="fill:#fff;opacity:0.4"></path><path d="M238.53,241.63a1.79,1.79,0,0,0,1.81-1.95l-4.72-67.51a2.12,2.12,0,0,0-2.08-1.95H93.19a1.8,1.8,0,0,0-1.82,1.95l4.72,67.51a2.13,2.13,0,0,0,2.09,1.95Z" style="fill:#fff;opacity:0.7000000000000001"></path><path d="M132.7,201.94,96.05,239l0,.67c.08,1.08,1.67,1.95,3.56,1.95h77.84Z" style="fill:#407BFF"></path><path d="M132.7,201.94,96.05,239l0,.67c.08,1.08,1.67,1.95,3.56,1.95h77.84Z" style="fill:#fff;opacity:0.30000000000000004"></path><path d="M240.16,237.09l-46.72-40.75-45.59,45.29h89.21c1.88,0,3.36-.87,3.28-1.95Z" style="fill:#407BFF"></path><path d="M170.17,197.84a6.62,6.62,0,0,1-6.7,7.2,7.85,7.85,0,0,1-7.71-7.2,6.63,6.63,0,0,1,6.7-7.2A7.85,7.85,0,0,1,170.17,197.84Z" style="fill:#407BFF"></path><path d="M170.17,197.84a6.62,6.62,0,0,1-6.7,7.2,7.85,7.85,0,0,1-7.71-7.2,6.63,6.63,0,0,1,6.7-7.2A7.85,7.85,0,0,1,170.17,197.84Z" style="fill:#fff;opacity:0.4"></path></g><g id="Character"><path d="M338.77,208l-9.33-.21s-6.41-2.2-7.16-1.76l-3.17.24a3.18,3.18,0,0,0-1.28,3.93l1,2.24a2.65,2.65,0,0,0,2.92,1.6l8.08-1.07,9.93-.12Z" style="fill:#eec1bb"></path><path d="M384.94,186s-4-3.6-11.47,1.58c-6.91,4.8-16.5,14.59-20,15l-20.08,4v7.85s14.05-.86,20.12-1.3c7.08-.51,14.31-5.94,17.67-9.84C375.25,198.64,383.7,190.57,384.94,186Z" style="fill:#407BFF"></path><path d="M356.58,212.64c6-1.52,11.77-6,14.65-9.33,4-4.67,10.28-15.74,11.51-20.29C382.74,183,362.77,205.71,356.58,212.64Z" style="opacity:0.1"></path><polygon points="426.75 399.64 432.33 397.73 431.77 388.07 430.81 379.26 422.04 380.23 424.53 390.5 426.75 399.64" style="fill:#ffc3bd"></polygon><path d="M421.5,413a9.44,9.44,0,0,1,2.59-2.41h0s2.43-4.07,1.5-14.22l4-2.21a3.77,3.77,0,0,1,4.28.52,2,2,0,0,1,.41.5,25.31,25.31,0,0,1,1.25,3,92,92,0,0,1,2.81,10.7l-.77.22-2-6.65c-.66-2.26-1.77.88-1.64,3.46s-.27,5.49-5.25,6.88C422.87,414.39,420.38,414.78,421.5,413Z" style="fill:#263238"></path><path d="M425.45,392.66s.24,4.69,0,10a20.91,20.91,0,0,1-1.4,7.9s3.92-.3,4.9-3.24,1-12.11,4.9-12.63a9.56,9.56,0,0,0-1.55-1.5C431.43,392.49,425.45,392.66,425.45,392.66Z" style="fill:#ffc3bd"></path><polygon points="369.53 400.93 375.43 400.69 377.64 391.28 379.24 382.55 370.56 380.98 370.01 391.54 369.53 400.93" style="fill:#ffc3bd"></polygon><path d="M360.69,412.21a9.7,9.7,0,0,1,3.17-1.57h0s3.5-3.21,5.5-13.2l4.46-1a3.79,3.79,0,0,1,3.95,1.73,2.06,2.06,0,0,1,.25.59,25.06,25.06,0,0,1,.34,3.24,90.55,90.55,0,0,1-.37,11.05h-.8l0-7c0-2.36-1.94.34-2.55,2.85s-1.82,5.18-7,5.09C361.6,414,359.1,413.62,360.69,412.21Z" style="fill:#263238"></path><path d="M370.28,393.87s-1.12,4.56-2.82,9.6a21.05,21.05,0,0,1-3.6,7.17s3.84.84,5.62-1.7,4.4-11.32,8.31-10.71a9.58,9.58,0,0,0-1.06-1.87C376.05,395.41,370.28,393.87,370.28,393.87Z" style="fill:#ffc3bd"></path><path d="M368.8,325.11l1.32,63.55,7.81.82s6-22.7,7.35-45.49c.3-5.25-.94-11.38-.36-15.53.51-3.64,2-5.91,4-14.14,1.29-5.24,2.71-11.7,3.89-17.94v0c1.06-5.65,1.92-11.12,2.27-15.36a30.23,30.23,0,0,0,2.4-3.93,36.07,36.07,0,0,0,3.74-22.8l-27.82-7.41Z" style="fill:#263238"></path><path d="M390.38,267.33c.14.68,1,16.49,1.7,31.37.23-.69.47-1.47.71-2.32v0c1.06-5.65,1.92-11.12,2.27-15.36a30.23,30.23,0,0,0,2.4-3.93c.93-4.18,1.75-7.85,2.27-10Z" style="opacity:0.2"></path><path d="M386.46,250.89l18,76.3,19.41,60.52,7.71-1.44s-.74-23.46-5.94-45.69c-1.21-5.13-4.15-10.64-4.78-14.78-.55-3.64.18-6.23-.23-14.7-.49-10.25-1.85-23.78-5.44-33.56,0,0,7-13.73.1-27.5Z" style="fill:#263238"></path><path d="M372.1,196.35a73.86,73.86,0,0,0-.07,15c.27,6.7,1.73,13.75,3.56,24.61,3.67,2.14,22.23,1.26,34.11-.28-.72-9.51.46-20.38,6.9-41.77a7.91,7.91,0,0,0-7.15-10.23c-1.43-.14-2.94-.25-4.48-.32a123,123,0,0,0-16.29,0c-1.74.16-3.61.36-5.37.59C377,184.78,373.26,189.64,372.1,196.35Z" style="fill:#263238"></path><polygon points="375.59 235.96 409.7 235.68 416.96 254.28 390.38 264.31 374.23 261.67 375.59 235.96" style="fill:#263238"></polygon><path d="M374.94,238.24a161.46,161.46,0,0,0,36-.07.87.87,0,0,0,.65-1l0-.1c-.29-.7-.59-1.39-.87-2.08a.76.76,0,0,0-.77-.48,158,158,0,0,1-34.64,0,.78.78,0,0,0-.87.67v.05c-.08.72-.15,1.44-.22,2.16a.81.81,0,0,0,.71.89Z" style="fill:#fff"></path><path d="M396.14,287.06a5.09,5.09,0,0,0,6.87,4.51c7.32-2.72,19.29-.59,24.65-5.22.39-7.07-11.91-43.16-10.7-61.84s3.52-35,1.1-38.49c-2-2.87-9.82-3.36-12.62-3.44l-1,0s-6.16,5.48-8,18.68a233.66,233.66,0,0,0-1.61,25.82C394.46,247.43,395.4,271.25,396.14,287.06Z" style="fill:#407BFF"></path><path d="M404.43,261.43l14-2.86.3.94a2.49,2.49,0,0,1-1.87,3.2l-9.1,1.88a2.5,2.5,0,0,1-2.89-1.69Z" style="opacity:0.2"></path><path d="M380.05,228c-.44,16.14,0,35.92.94,58.79.19,4.81-4.42,4.46-8.94,3.53-6.72-1.38-9.39-.88-9.39-.88s10.73-37.3,9-62.57-.53-34.19,3.57-38.86c2.86-3.28,8.09-4.4,11-4.78,1.24-.16,2-.19,2-.19v0C383,189.77,380.67,205.27,380.05,228Z" style="fill:#407BFF"></path><path d="M376,262.88,367.63,261l-.3.93a2.5,2.5,0,0,0,1.87,3.21l3.48.91a2.49,2.49,0,0,0,2.88-1.69Z" style="fill:#407BFF"></path><path d="M376,262.88,367.63,261l-.3.93a2.5,2.5,0,0,0,1.87,3.21l3.48.91a2.49,2.49,0,0,0,2.88-1.69Z" style="opacity:0.2"></path><path d="M400.74,167c-.93,5-1.81,14.16,1.65,17.17,0,0-3.94,3.73-12.61,7.72-2.72-.45-2.65-6.46-2.65-6.46,5.47-1.77,5.3-5.84,4.31-9.61Z" style="fill:#ffc3bd"></path><path d="M396.94,170.56l-5.51,5.23a15.42,15.42,0,0,1,.5,2.68c2.09-.47,4.94-3,5.15-5.25A7.46,7.46,0,0,0,396.94,170.56Z" style="opacity:0.2"></path><path d="M404.12,156.76c-.83,8.05-1,11.48-5.26,15.65-6.34,6.26-15.95,4-17.54-4-1.41-7.21.2-19.18,8.16-22.47a10.37,10.37,0,0,1,14.64,10.8Z" style="fill:#ffc3bd"></path><path d="M386,160a19.91,19.91,0,0,1-3.21,3.94,2.72,2.72,0,0,0,2.25.75Z" style="fill:#ba4d3c"></path><path d="M387.94,167.7a5.23,5.23,0,0,1-1.12-.06.2.2,0,0,1-.16-.22h0a.21.21,0,0,1,.24-.16,5.67,5.67,0,0,0,4.66-1.5.19.19,0,0,1,.27,0h0a.2.2,0,0,1,0,.28h0A5.89,5.89,0,0,1,387.94,167.7Z" style="fill:#263238"></path><path d="M402.33,154.73c-2.23,5.54-4.48,11.38-2.27,16.93a22.16,22.16,0,0,0,8.27-16.4C405.66,155.54,404.81,155.75,402.33,154.73Z" style="fill:#263238"></path><path d="M402.33,154.73c-2.23,5.54-4.48,11.38-2.27,16.93a22.16,22.16,0,0,0,8.27-16.4C405.66,155.54,404.81,155.75,402.33,154.73Z" style="fill:#263238"></path><path d="M404.31,164.83a5.58,5.58,0,0,1-3.5,2.83c-1.87.41-2.6-1.74-1.89-3.84.66-1.89,2.37-4.37,4.16-3.84S405.28,163,404.31,164.83Z" style="fill:#ffc3bd"></path><path d="M406.8,202.47l-6.64-5.5,8.92-2.33s-3.18-12-3.64-12.06l-1,0s-6.16,5.48-8,18.68a233.66,233.66,0,0,0-1.61,25.82Z" style="fill:#fff;opacity:0.2"></path><path d="M388.22,183.08v0c-5.17,6.67-7.54,22.17-8.16,44.94-3.14-9.61-4.55-24.47-4.55-24.47l4-5.73-2.77-1.19,8.47-12.93a3,3,0,0,1,.95-.45A6.18,6.18,0,0,1,388.22,183.08Z" style="fill:#fff;opacity:0.2"></path><path d="M418.56,205l-3.65-6.42s-3.75,13.2,1.38,31.64C416.93,221.53,417.79,212.52,418.56,205Z" style="opacity:0.1"></path><path d="M428.43,250l2.48,9.72L429,265.18a2.38,2.38,0,0,0-.19,2.08l.75,2a2.39,2.39,0,0,0,2.54,1.52l4.16-.55a2.38,2.38,0,0,0,2-3l-2.39-7.68-.5-11.07Z" style="fill:#eec1bb"></path><path d="M418.06,186s8.76,8.7,15.08,39.84a228.08,228.08,0,0,1,4.24,29.31L428.94,257a291.21,291.21,0,0,0-12.78-47.07C414.25,204.57,409.91,194.52,418.06,186Z" style="fill:#407BFF"></path><path d="M402.26,145.47a9.16,9.16,0,0,1,7.48,11.63,5.23,5.23,0,0,1-2.11,2.9c-.31-1.19-.32-2.46-.63-3.65a4.15,4.15,0,0,1-2.64,2.24,4.29,4.29,0,0,1-3.49-.34s.77-2,.51-2.81a2.83,2.83,0,0,1-1.28,2,2.39,2.39,0,0,1-2.18,0,3.52,3.52,0,0,0-.48-3.71,4.83,4.83,0,0,1-.92,1.79,2.38,2.38,0,0,1-2.47.46,2.41,2.41,0,0,0,0-3.35c-.43-.46-1.22-.8-1.65-.34-1.5,1.61-3.52,2.28-5.48,1.27a2.3,2.3,0,0,0,1.78-2.4,6.05,6.05,0,0,0-3.8.45,5.26,5.26,0,0,0-3,3.83c-.51-3,.44-6.76,2.69-8.82a13,13,0,0,1,8.39-3.16C396.11,143.35,399.24,145,402.26,145.47Z" style="fill:#407BFF"></path><path d="M390.82,159.32c-.05.68-.45,1.23-.88,1.22s-.74-.56-.69-1.23.45-1.23.88-1.23S390.87,158.64,390.82,159.32Z" style="fill:#263238"></path><path d="M383.86,159.12c-.05.67-.44,1.22-.88,1.22s-.74-.56-.68-1.24.44-1.22.88-1.21S383.92,158.44,383.86,159.12Z" style="fill:#263238"></path><path d="M383.36,157.92l-1.55-.49S382.53,158.72,383.36,157.92Z" style="fill:#263238"></path><path d="M393.26,156.15A.37.37,0,0,1,393,156a2.9,2.9,0,0,0-2.39-1.39.34.34,0,0,1-.38-.33v0a.43.43,0,0,1,.41-.41,3.63,3.63,0,0,1,3,1.71.43.43,0,0,1-.14.55A.37.37,0,0,1,393.26,156.15Z" style="fill:#263238"></path><path d="M381.6,155.65a.36.36,0,0,1-.42-.3.33.33,0,0,1,.1-.31,4.13,4.13,0,0,1,3.26-1.72.36.36,0,0,1,.34.39v0a.42.42,0,0,1-.43.38,3.3,3.3,0,0,0-2.57,1.39A.43.43,0,0,1,381.6,155.65Z" style="fill:#263238"></path><path d="M390.32,158.13l-1.55-.49S389.49,158.92,390.32,158.13Z" style="fill:#263238"></path><rect x="400.05" y="165.82" width="1.16" height="1.16" transform="matrix(-1, 0.08, -0.08, -1, 813.56, 299.32)" style="fill:#407BFF"></rect></g></svg>