<svg xmlns="http://www.w3.org/2000/svg" viewBox="0 0 500 500"><g id="Floor"><path id="floor" d="M77.67,445.19c-95.18-54.95-95.18-144,0-199s249.49-54.95,344.66,0,95.18,144,0,199S172.84,500.14,77.67,445.19Z" style="fill:#fafafa"></path></g><g id="Shadows"><path id="Shadow" d="M485.34,408.89,387,352.11a11.12,11.12,0,0,0-10.05,0l-116.75,67.4c-2.76,1.6-2.77,4.22,0,5.82l13.4,7.81-12.71,7.33c-2.76,1.6-2.77,4.22,0,5.82l60.35,35.14a11.07,11.07,0,0,0,10,0L344,474.12l14.13,8.23a11.1,11.1,0,0,0,10,0l117.21-67.67C488.1,413.1,488.1,410.49,485.34,408.89Z" style="fill:#ebebeb"></path><polygon id="shadow" points="107.88 454.37 87.57 442.64 294.73 323.04 315.04 334.76 107.88 454.37" style="fill:#ebebeb"></polygon><path id="shadow" d="M78.89,423.44c10,5.8,10,15.22,0,21s-26.07,5.8-36,0-9.95-15.23,0-21S69,417.63,78.89,423.44Z" style="fill:#ebebeb"></path></g><g id="Window"><g id="window"><path d="M22.61,114.2c0-31.33,20.63-68.65,46.09-83.35,13.47-7.78,25.6-7.65,34-1.17,10.48,4.35,17.19,16.4,17.19,34.26V245.68L27.73,298.9l-5.12-3Z" style="fill:#e6e6e6"></path><path d="M27.73,298.9V117.16c0-31.34,20.63-68.65,46.09-83.35s46.09-1.21,46.09,30.13V245.68Z" style="fill:#f5f5f5"></path><path d="M32.77,117.16v173l82.1-47.41V63.94c0-15.66-5.51-26.46-14.78-29.87a19,19,0,0,0-6.72-1.16c-5.24,0-11,1.77-17,5.27C52.31,52.05,32.77,87.48,32.77,117.16Z" style="fill:#e0e0e0"></path><polygon points="114.87 242.76 109.66 239.76 32.77 284.16 32.77 290.17 114.87 242.76" style="fill:#ebebeb"></polygon><path d="M32.77,117.16v167l76.89-44.4,0-178.83c0-12.45-3.5-21.83-9.59-26.86a19,19,0,0,0-6.72-1.16c-5.24,0-11,1.77-17,5.27C52.31,52.05,32.77,87.48,32.77,117.16Z" style="fill:#fff"></path><polygon points="71.3 267.92 76.34 265.01 76.34 36.37 71.3 36.37 71.3 267.92" style="fill:#f5f5f5"></polygon><path d="M66.25,45.47V265l5,2.9V41.45C69.58,42.68,67.91,44,66.25,45.47Z" style="fill:#e0e0e0"></path><polygon points="114.87 207.19 76.34 229.44 76.34 235.35 114.87 213.11 114.87 207.19" style="fill:#f5f5f5"></polygon><polygon points="109.66 204.19 114.87 207.19 76.34 229.44 76.34 223.53 109.66 204.19" style="fill:#ebebeb"></polygon><polygon points="71.3 232.34 32.77 254.59 32.77 260.5 71.3 238.26 71.3 232.34" style="fill:#f5f5f5"></polygon><polygon points="66.09 229.34 71.3 232.34 32.77 254.59 32.77 248.68 66.09 229.34" style="fill:#ebebeb"></polygon><polygon points="114.87 75.17 76.34 97.41 76.34 103.33 114.87 81.09 114.87 75.17" style="fill:#f5f5f5"></polygon><polygon points="109.66 72.17 114.87 75.17 76.34 97.41 76.34 91.5 109.66 72.17" style="fill:#ebebeb"></polygon><polygon points="71.3 100.32 32.77 122.56 32.77 128.48 71.3 106.24 71.3 100.32" style="fill:#f5f5f5"></polygon><polygon points="66.09 97.32 71.3 100.32 32.77 122.56 32.77 116.65 66.09 97.32" style="fill:#ebebeb"></polygon></g></g><g id="Gears"><g id="Gear"><path d="M356.91,95.45a1.11,1.11,0,0,1-.47-1l.31-6.68A1.67,1.67,0,0,0,355.2,86a11.24,11.24,0,0,1-1.69-.3,2.68,2.68,0,0,0-2.59.74l-1,1.17-.13,2.86a1.12,1.12,0,0,0,.5,1.07h0ZM377.64,54c1-7.43-2.28-12.17-7.5-11.76A14.17,14.17,0,0,1,371,50c-1.12,8.61-7.48,17.58-14.21,20a10.79,10.79,0,0,1-2.64.63c1.62,3.42,5,4.83,9.24,3.29C370.15,71.52,376.51,62.56,377.64,54ZM344,93a1.31,1.31,0,0,1-.34-.29l-2.94-3.22a2.33,2.33,0,0,1-.26-2.62l4.42-7.16a3.39,3.39,0,0,0,.42-1.28,4.53,4.53,0,0,0-.1-1.7,21.09,21.09,0,0,1-.58-2.68,1.47,1.47,0,0,0-1.77-1.3l-4.13,1a3.67,3.67,0,0,1,0,.81h0a3.17,3.17,0,0,1-.41,1.26L333.85,83a2.34,2.34,0,0,0,.27,2.63l2.93,3.21a1.43,1.43,0,0,0,.37.29h0Zm43.09-54h0a1.14,1.14,0,0,0-.89-.12l-.61.13a3.55,3.55,0,0,0,.12.89,19.82,19.82,0,0,1,.59,2.68,1.44,1.44,0,0,0,1.77,1.29l4.74-1.07a1.15,1.15,0,0,1,.74,0Zm-49.88,34.7a1.12,1.12,0,0,1-.47-1.18l1-7.94a3.41,3.41,0,0,1,.87-1.72,2.67,2.67,0,0,1,.8-.65l5.29-2.61a4.49,4.49,0,0,0,2-2.28c.54-1.51,1.15-3,1.82-4.46a3.15,3.15,0,0,0,.21-1.74,2.67,2.67,0,0,0-.39-1.14l-2.22-3.45a2.62,2.62,0,0,1-.33-1.77,2.3,2.3,0,0,1,.38-1l5.34-7.52a1.58,1.58,0,0,1,2.27-.32l2.83,2.18a2,2,0,0,0,2.5-.13,37.42,37.42,0,0,1,3.1-2.62,5,5,0,0,0,1.67-2.55V32.8l1.54-7.31a3.19,3.19,0,0,1,.91-1.55,2.85,2.85,0,0,1,1-.63L373,21.24a1.12,1.12,0,0,1,.92,0l-6.57-3.91a1.19,1.19,0,0,0-.95,0l-5.72,2.07a3,3,0,0,0-1.52,1.37,1.33,1.33,0,0,0-.2.37.13.13,0,0,0,0,.05,1.39,1.39,0,0,0-.12.38l-1.53,7.33V29a5,5,0,0,1-1.68,2.55,37.12,37.12,0,0,0-3.1,2.62,2,2,0,0,1-1.05.48L347,32a1.57,1.57,0,0,0-2.06.45l-5.35,7.52a2.33,2.33,0,0,0-.37,1,2.65,2.65,0,0,0,0,.69,2,2,0,0,0,.06.35s0,0,0,0a1.42,1.42,0,0,0,.1.29,1.23,1.23,0,0,0,.14.31l0,.08,2.21,3.44a1.66,1.66,0,0,1,.16.33,1.17,1.17,0,0,1,.1.26,2.55,2.55,0,0,1,.14.56,3.24,3.24,0,0,1-.21,1.74c-.67,1.46-1.29,3-1.82,4.46a4.63,4.63,0,0,1-2,2.28l-5.3,2.62a3.06,3.06,0,0,0-.78.65h0c-.06,0-.12.13-.17.18a4,4,0,0,0-.57,1,1.09,1.09,0,0,0-.07.24,1.32,1.32,0,0,0-.08.33l-1,8a1.22,1.22,0,0,0,.14.82,1,1,0,0,0,.33.34ZM385.11,24a1.36,1.36,0,0,1,1.75-.36l-6.63-3.93v0a1.34,1.34,0,0,0-1.74.35l-4.16,5.1L374.15,29a1.68,1.68,0,0,0,1.57,1.71,10.16,10.16,0,0,1,1.68.29A2.69,2.69,0,0,0,380,30.3Z" style="fill:#e6e6e6"></path><path d="M356.91,95.45a1.11,1.11,0,0,1-.47-1l.31-6.68A1.67,1.67,0,0,0,355.2,86a11.24,11.24,0,0,1-1.69-.3,2.68,2.68,0,0,0-2.59.74l-1,1.17-.13,2.86a1.12,1.12,0,0,0,.5,1.07h0ZM377.64,54c1-7.43-2.28-12.17-7.5-11.76A14.17,14.17,0,0,1,371,50c-1.12,8.61-7.48,17.58-14.21,20a10.79,10.79,0,0,1-2.64.63c1.62,3.42,5,4.83,9.24,3.29C370.15,71.52,376.51,62.56,377.64,54ZM344,93a1.31,1.31,0,0,1-.34-.29l-2.94-3.22a2.33,2.33,0,0,1-.26-2.62l4.42-7.16a3.39,3.39,0,0,0,.42-1.28,4.53,4.53,0,0,0-.1-1.7,21.09,21.09,0,0,1-.58-2.68,1.47,1.47,0,0,0-1.77-1.3l-4.13,1a3.67,3.67,0,0,1,0,.81h0a3.17,3.17,0,0,1-.41,1.26L333.85,83a2.34,2.34,0,0,0,.27,2.63l2.93,3.21a1.43,1.43,0,0,0,.37.29h0Zm43.09-54h0a1.14,1.14,0,0,0-.89-.12l-.61.13a3.55,3.55,0,0,0,.12.89,19.82,19.82,0,0,1,.59,2.68,1.44,1.44,0,0,0,1.77,1.29l4.74-1.07a1.15,1.15,0,0,1,.74,0Zm-49.88,34.7a1.12,1.12,0,0,1-.47-1.18l1-7.94a3.41,3.41,0,0,1,.87-1.72,2.67,2.67,0,0,1,.8-.65l5.29-2.61a4.49,4.49,0,0,0,2-2.28c.54-1.51,1.15-3,1.82-4.46a3.15,3.15,0,0,0,.21-1.74,2.67,2.67,0,0,0-.39-1.14l-2.22-3.45a2.62,2.62,0,0,1-.33-1.77,2.3,2.3,0,0,1,.38-1l5.34-7.52a1.58,1.58,0,0,1,2.27-.32l2.83,2.18a2,2,0,0,0,2.5-.13,37.42,37.42,0,0,1,3.1-2.62,5,5,0,0,0,1.67-2.55V32.8l1.54-7.31a3.19,3.19,0,0,1,.91-1.55,2.85,2.85,0,0,1,1-.63L373,21.24a1.12,1.12,0,0,1,.92,0l-6.57-3.91a1.19,1.19,0,0,0-.95,0l-5.72,2.07a3,3,0,0,0-1.52,1.37,1.33,1.33,0,0,0-.2.37.13.13,0,0,0,0,.05,1.39,1.39,0,0,0-.12.38l-1.53,7.33V29a5,5,0,0,1-1.68,2.55,37.12,37.12,0,0,0-3.1,2.62,2,2,0,0,1-1.05.48L347,32a1.57,1.57,0,0,0-2.06.45l-5.35,7.52a2.33,2.33,0,0,0-.37,1,2.65,2.65,0,0,0,0,.69,2,2,0,0,0,.06.35s0,0,0,0a1.42,1.42,0,0,0,.1.29,1.23,1.23,0,0,0,.14.31l0,.08,2.21,3.44a1.66,1.66,0,0,1,.16.33,1.17,1.17,0,0,1,.1.26,2.55,2.55,0,0,1,.14.56,3.24,3.24,0,0,1-.21,1.74c-.67,1.46-1.29,3-1.82,4.46a4.63,4.63,0,0,1-2,2.28l-5.3,2.62a3.06,3.06,0,0,0-.78.65h0c-.06,0-.12.13-.17.18a4,4,0,0,0-.57,1,1.09,1.09,0,0,0-.07.24,1.32,1.32,0,0,0-.08.33l-1,8a1.22,1.22,0,0,0,.14.82,1,1,0,0,0,.33.34ZM385.11,24a1.36,1.36,0,0,1,1.75-.36l-6.63-3.93v0a1.34,1.34,0,0,0-1.74.35l-4.16,5.1L374.15,29a1.68,1.68,0,0,0,1.57,1.71,10.16,10.16,0,0,1,1.68.29A2.69,2.69,0,0,0,380,30.3Z" style="opacity:0.1"></path><path d="M363.89,32.8l1.54-7.31a3.19,3.19,0,0,1,.91-1.55L359.75,20a3.73,3.73,0,0,0-.58.73,1.33,1.33,0,0,0-.2.37.13.13,0,0,0,0,.05,1.39,1.39,0,0,0-.12.38l-1.53,7.33Z" style="fill:#e0e0e0"></path><path d="M348.73,51.18a2.67,2.67,0,0,0-.39-1.14l-2.22-3.45a2.62,2.62,0,0,1-.33-1.77l-6.6-3.91a2.65,2.65,0,0,0,0,.69,2,2,0,0,0,.06.35s0,0,0,0a1.42,1.42,0,0,0,.1.29,1.23,1.23,0,0,0,.14.31l0,.08,2.21,3.44a1.66,1.66,0,0,1,.16.33,2.77,2.77,0,0,1,.1.26c.05.17.08.36.12.55h0Z" style="fill:#e0e0e0"></path><path d="M356.91,95.46a1.12,1.12,0,0,1-.47-1.06l.31-6.69A1.67,1.67,0,0,0,355.19,86a10.29,10.29,0,0,1-1.69-.3,2.68,2.68,0,0,0-2.59.74L350,87.6l-.14,2.87a1.13,1.13,0,0,0,.5,1.07h0Z" style="fill:#e0e0e0"></path><path d="M344,93a1.31,1.31,0,0,1-.34-.29l-2.94-3.22a2.33,2.33,0,0,1-.26-2.62l4.42-7.16a3.39,3.39,0,0,0,.42-1.28l-6.62-3.91a3.17,3.17,0,0,1-.41,1.26L333.85,83a2.34,2.34,0,0,0,.27,2.63l2.93,3.21a1.43,1.43,0,0,0,.37.29h0Z" style="fill:#e0e0e0"></path><path d="M337.21,73.76a1.12,1.12,0,0,1-.47-1.18l1-7.94a3.41,3.41,0,0,1,.87-1.72L332.05,59c-.06,0-.12.13-.17.18a4,4,0,0,0-.57,1,1.09,1.09,0,0,0-.07.24,1.32,1.32,0,0,0-.08.33l-1,8a1.22,1.22,0,0,0,.14.82,1,1,0,0,0,.33.34Z" style="fill:#e0e0e0"></path><path d="M365.48,91.25l1.55-7.4a4.9,4.9,0,0,1,1.66-2.56,37.39,37.39,0,0,0,3.11-2.61,2,2,0,0,1,2.49-.13l2.84,2.18a1.59,1.59,0,0,0,2.27-.32l5.34-7.53a2.64,2.64,0,0,0,0-2.74l-2.21-3.44a3.32,3.32,0,0,1-.19-2.88q1-2.19,1.82-4.46a4.61,4.61,0,0,1,2-2.29l5.29-2.61a3.44,3.44,0,0,0,1.68-2.36l1-8a1.07,1.07,0,0,0-1.38-1.28L388.06,44a1.46,1.46,0,0,1-1.78-1.3A19.82,19.82,0,0,0,385.7,40a4.17,4.17,0,0,1,.33-3l4.41-7.16a2.32,2.32,0,0,0-.26-2.63L387.26,24a1.38,1.38,0,0,0-2.16,0L380,30.29a2.68,2.68,0,0,1-2.59.74,11.57,11.57,0,0,0-1.68-.3A1.65,1.65,0,0,1,374.16,29l.3-6.68a1,1,0,0,0-1.45-1.1l-5.71,2.07a3.28,3.28,0,0,0-1.87,2.17l-1.55,7.41a5,5,0,0,1-1.67,2.55,37.54,37.54,0,0,0-3.11,2.62,2,2,0,0,1-2.49.12L353.77,36a1.57,1.57,0,0,0-2.26.32l-5.35,7.52a2.64,2.64,0,0,0,0,2.74L348.34,50a3.32,3.32,0,0,1,.19,2.88q-1,2.19-1.82,4.46a4.56,4.56,0,0,1-2,2.28l-5.29,2.62a3.44,3.44,0,0,0-1.67,2.36l-1,8a1.06,1.06,0,0,0,1.37,1.27l4.74-1.07a1.45,1.45,0,0,1,1.77,1.29,21.64,21.64,0,0,0,.58,2.69,4.17,4.17,0,0,1-.32,3l-4.42,7.16a2.32,2.32,0,0,0,.27,2.62l2.92,3.22a1.38,1.38,0,0,0,2.15,0l5.12-6.27a2.65,2.65,0,0,1,2.59-.73,10.16,10.16,0,0,0,1.68.29,1.67,1.67,0,0,1,1.56,1.71l-.31,6.69a1,1,0,0,0,1.46,1.1l5.71-2.08A3.3,3.3,0,0,0,365.48,91.25ZM363.42,74c-6.73,2.44-11.27-2.55-10.15-11.17s7.48-17.57,14.21-20,11.28,2.55,10.16,11.16S370.15,71.52,363.42,74Z" style="fill:#ebebeb"></path></g><g id="gear"><path d="M406.58,112.32a.88.88,0,0,1-.38-.84l.25-5.32a1.34,1.34,0,0,0-1.24-1.37,9.75,9.75,0,0,1-1.35-.24,2.11,2.11,0,0,0-2.06.59l-.76.93-.11,2.28a.9.9,0,0,0,.4.85h0ZM423.1,79.23c.77-5.92-1.82-9.69-6-9.37a11.17,11.17,0,0,1,.71,6.24c-.89,6.87-6,14-11.33,16a8.75,8.75,0,0,1-2.1.49c1.29,2.73,4,3.85,7.37,2.63C417.13,93.24,422.21,86.1,423.1,79.23Zm-26.82,31.16a1,1,0,0,1-.27-.23l-2.34-2.56a1.86,1.86,0,0,1-.21-2.1L397,99.79a2.78,2.78,0,0,0,.33-1,3.55,3.55,0,0,0-.08-1.35,16.1,16.1,0,0,1-.46-2.14,1.17,1.17,0,0,0-1.42-1l-3.29.75a2.84,2.84,0,0,1,0,.65h0a2.68,2.68,0,0,1-.32,1l-3.53,5.72a1.85,1.85,0,0,0,.21,2.09l2.34,2.56a1.13,1.13,0,0,0,.3.24h0Zm34.36-43h0a.93.93,0,0,0-.71-.09l-.49.1a3,3,0,0,0,.1.71,16.8,16.8,0,0,1,.47,2.14,1.15,1.15,0,0,0,1.41,1l3.77-.86a.93.93,0,0,1,.6,0ZM390.87,95a.89.89,0,0,1-.38-.94l.83-6.33a2.67,2.67,0,0,1,.69-1.37,1.93,1.93,0,0,1,.64-.52l4.22-2.08A3.63,3.63,0,0,0,398.44,82c.42-1.2.91-2.4,1.45-3.56a2.56,2.56,0,0,0,.16-1.39,2.05,2.05,0,0,0-.31-.9L398,73.37a2.13,2.13,0,0,1-.26-1.41,1.84,1.84,0,0,1,.3-.78l4.26-6a1.26,1.26,0,0,1,1.81-.26l2.26,1.74a1.6,1.6,0,0,0,2-.1,27.92,27.92,0,0,1,2.47-2.09,4,4,0,0,0,1.33-2v-.06l1.22-5.84a2.71,2.71,0,0,1,.73-1.23,2.17,2.17,0,0,1,.77-.5l4.55-1.65a.88.88,0,0,1,.73,0l-5.24-3.11a.92.92,0,0,0-.75,0l-4.56,1.65a2.51,2.51,0,0,0-1.22,1.09,1.05,1.05,0,0,0-.15.3s0,0,0,0a1.71,1.71,0,0,0-.09.3l-1.22,5.84v.07a3.9,3.9,0,0,1-1.34,2,29.73,29.73,0,0,0-2.47,2.09,1.6,1.6,0,0,1-.84.39l-3.57-2.12a1.25,1.25,0,0,0-1.65.35l-4.26,6a2,2,0,0,0-.3.78,3.35,3.35,0,0,0,0,.55,1.26,1.26,0,0,0,.05.28s0,0,0,0a.9.9,0,0,0,.08.23,1.12,1.12,0,0,0,.11.25l0,.06L394.47,73a.91.91,0,0,1,.13.26.7.7,0,0,1,.08.2,2.28,2.28,0,0,1,.11.45,2.47,2.47,0,0,1-.17,1.39c-.53,1.16-1,2.35-1.45,3.55a3.65,3.65,0,0,1-1.57,1.83l-4.22,2.08a2.12,2.12,0,0,0-.62.52h0l-.13.15a3,3,0,0,0-.45.77.7.7,0,0,0-.06.19,1.22,1.22,0,0,0-.06.26L385.23,91a1,1,0,0,0,.1.65.81.81,0,0,0,.27.28Zm38.19-39.65a1.07,1.07,0,0,1,1.39-.28L425.17,52v0a1.08,1.08,0,0,0-1.39.27l-3.32,4.07-.14,3a1.34,1.34,0,0,0,1.25,1.36,8.33,8.33,0,0,1,1.34.23,2.15,2.15,0,0,0,2.07-.58Z" style="fill:#e6e6e6"></path><path d="M406.58,112.32a.88.88,0,0,1-.38-.84l.25-5.32a1.34,1.34,0,0,0-1.24-1.37,9.75,9.75,0,0,1-1.35-.24,2.11,2.11,0,0,0-2.06.59l-.76.93-.11,2.28a.9.9,0,0,0,.4.85h0ZM423.1,79.23c.77-5.92-1.82-9.69-6-9.37a11.17,11.17,0,0,1,.71,6.24c-.89,6.87-6,14-11.33,16a8.75,8.75,0,0,1-2.1.49c1.29,2.73,4,3.85,7.37,2.63C417.13,93.24,422.21,86.1,423.1,79.23Zm-26.82,31.16a1,1,0,0,1-.27-.23l-2.34-2.56a1.86,1.86,0,0,1-.21-2.1L397,99.79a2.78,2.78,0,0,0,.33-1,3.55,3.55,0,0,0-.08-1.35,16.1,16.1,0,0,1-.46-2.14,1.17,1.17,0,0,0-1.42-1l-3.29.75a2.84,2.84,0,0,1,0,.65h0a2.68,2.68,0,0,1-.32,1l-3.53,5.72a1.85,1.85,0,0,0,.21,2.09l2.34,2.56a1.13,1.13,0,0,0,.3.24h0Zm34.36-43h0a.93.93,0,0,0-.71-.09l-.49.1a3,3,0,0,0,.1.71,16.8,16.8,0,0,1,.47,2.14,1.15,1.15,0,0,0,1.41,1l3.77-.86a.93.93,0,0,1,.6,0ZM390.87,95a.89.89,0,0,1-.38-.94l.83-6.33a2.67,2.67,0,0,1,.69-1.37,1.93,1.93,0,0,1,.64-.52l4.22-2.08A3.63,3.63,0,0,0,398.44,82c.42-1.2.91-2.4,1.45-3.56a2.56,2.56,0,0,0,.16-1.39,2.05,2.05,0,0,0-.31-.9L398,73.37a2.13,2.13,0,0,1-.26-1.41,1.84,1.84,0,0,1,.3-.78l4.26-6a1.26,1.26,0,0,1,1.81-.26l2.26,1.74a1.6,1.6,0,0,0,2-.1,27.92,27.92,0,0,1,2.47-2.09,4,4,0,0,0,1.33-2v-.06l1.22-5.84a2.71,2.71,0,0,1,.73-1.23,2.17,2.17,0,0,1,.77-.5l4.55-1.65a.88.88,0,0,1,.73,0l-5.24-3.11a.92.92,0,0,0-.75,0l-4.56,1.65a2.51,2.51,0,0,0-1.22,1.09,1.05,1.05,0,0,0-.15.3s0,0,0,0a1.71,1.71,0,0,0-.09.3l-1.22,5.84v.07a3.9,3.9,0,0,1-1.34,2,29.73,29.73,0,0,0-2.47,2.09,1.6,1.6,0,0,1-.84.39l-3.57-2.12a1.25,1.25,0,0,0-1.65.35l-4.26,6a2,2,0,0,0-.3.78,3.35,3.35,0,0,0,0,.55,1.26,1.26,0,0,0,.05.28s0,0,0,0a.9.9,0,0,0,.08.23,1.12,1.12,0,0,0,.11.25l0,.06L394.47,73a.91.91,0,0,1,.13.26.7.7,0,0,1,.08.2,2.28,2.28,0,0,1,.11.45,2.47,2.47,0,0,1-.17,1.39c-.53,1.16-1,2.35-1.45,3.55a3.65,3.65,0,0,1-1.57,1.83l-4.22,2.08a2.12,2.12,0,0,0-.62.52h0l-.13.15a3,3,0,0,0-.45.77.7.7,0,0,0-.06.19,1.22,1.22,0,0,0-.06.26L385.23,91a1,1,0,0,0,.1.65.81.81,0,0,0,.27.28Zm38.19-39.65a1.07,1.07,0,0,1,1.39-.28L425.17,52v0a1.08,1.08,0,0,0-1.39.27l-3.32,4.07-.14,3a1.34,1.34,0,0,0,1.25,1.36,8.33,8.33,0,0,1,1.34.23,2.15,2.15,0,0,0,2.07-.58Z" style="opacity:0.1"></path><path d="M412.14,62.38l1.22-5.84a2.71,2.71,0,0,1,.73-1.23l-5.25-3.11a2.85,2.85,0,0,0-.47.57,1.05,1.05,0,0,0-.15.3s0,0,0,0a1.71,1.71,0,0,0-.09.3l-1.22,5.84Z" style="fill:#e0e0e0"></path><path d="M400.05,77a2.05,2.05,0,0,0-.31-.9L398,73.37a2.13,2.13,0,0,1-.26-1.41l-5.27-3.12a3.35,3.35,0,0,0,0,.55,1.26,1.26,0,0,0,.05.28s0,0,0,0a.9.9,0,0,0,.08.23,1.12,1.12,0,0,0,.11.25l0,.06L394.47,73a.91.91,0,0,1,.13.26,1.67,1.67,0,0,1,.08.2,3.12,3.12,0,0,1,.09.44h0Z" style="fill:#e0e0e0"></path><path d="M406.57,112.33a.92.92,0,0,1-.37-.85l.25-5.33a1.33,1.33,0,0,0-1.25-1.36,8.54,8.54,0,0,1-1.34-.24,2.13,2.13,0,0,0-2.07.59l-.75.93-.11,2.28a.88.88,0,0,0,.4.85h0Z" style="fill:#e0e0e0"></path><path d="M396.28,110.39a1,1,0,0,1-.27-.23l-2.34-2.56a1.86,1.86,0,0,1-.21-2.1L397,99.79a2.78,2.78,0,0,0,.33-1L392,95.66a2.68,2.68,0,0,1-.32,1l-3.53,5.72a1.85,1.85,0,0,0,.21,2.09l2.34,2.56a1.13,1.13,0,0,0,.3.24h0Z" style="fill:#e0e0e0"></path><path d="M390.87,95a.89.89,0,0,1-.38-.94l.83-6.33a2.67,2.67,0,0,1,.69-1.37l-5.26-3.13-.13.15a3,3,0,0,0-.45.77.7.7,0,0,0-.06.19,1.22,1.22,0,0,0-.06.26L385.23,91a1,1,0,0,0,.1.65.81.81,0,0,0,.27.28Z" style="fill:#e0e0e0"></path><path d="M413.4,109l1.24-5.9a4,4,0,0,1,1.33-2A29.39,29.39,0,0,0,418.45,99a1.57,1.57,0,0,1,2-.1l2.27,1.73a1.24,1.24,0,0,0,1.8-.25l4.26-6a2.09,2.09,0,0,0,0-2.18L427,89.4a2.66,2.66,0,0,1-.15-2.3c.54-1.16,1-2.35,1.45-3.55a3.6,3.6,0,0,1,1.57-1.82l4.22-2.09a2.74,2.74,0,0,0,1.34-1.88l.82-6.34a.85.85,0,0,0-1.1-1l-3.77.86a1.16,1.16,0,0,1-1.42-1,15.25,15.25,0,0,0-.46-2.14,3.34,3.34,0,0,1,.26-2.37L433.31,60a1.85,1.85,0,0,0-.21-2.09l-2.33-2.57a1.1,1.1,0,0,0-1.72,0l-4.07,5a2.15,2.15,0,0,1-2.07.58,8.33,8.33,0,0,0-1.34-.23,1.34,1.34,0,0,1-1.25-1.37l.25-5.33a.81.81,0,0,0-1.16-.87l-4.55,1.65a2.61,2.61,0,0,0-1.49,1.73l-1.24,5.91a3.92,3.92,0,0,1-1.33,2,29.54,29.54,0,0,0-2.48,2.09,1.58,1.58,0,0,1-2,.1l-2.26-1.74a1.26,1.26,0,0,0-1.81.26l-4.26,6a2.11,2.11,0,0,0,0,2.18l1.77,2.74a2.63,2.63,0,0,1,.15,2.3c-.54,1.17-1,2.36-1.45,3.56a3.68,3.68,0,0,1-1.57,1.82l-4.22,2.09a2.71,2.71,0,0,0-1.33,1.88l-.83,6.33a.86.86,0,0,0,1.1,1l3.77-.86a1.17,1.17,0,0,1,1.42,1,17,17,0,0,0,.46,2.15A3.35,3.35,0,0,1,397,99.8l-3.52,5.7a1.86,1.86,0,0,0,.21,2.1l2.33,2.56a1.11,1.11,0,0,0,1.72,0l4.08-5a2.11,2.11,0,0,1,2.06-.59,9.61,9.61,0,0,0,1.34.24,1.33,1.33,0,0,1,1.25,1.36l-.25,5.33a.82.82,0,0,0,1.16.88l4.56-1.66A2.55,2.55,0,0,0,413.4,109Zm-1.63-13.78c-5.37,2-9-2-8.1-8.9s6-14,11.33-16,9,2,8.1,8.9S417.13,93.24,411.77,95.19Z" style="fill:#ebebeb"></path></g></g><g id="Plants"><g id="Plant"><g id="Pot"><path d="M45.6,434.59c-8.18-8.43-13-43.46-5-50.15H81.17c8,6.69,3.17,41.7-5,50.14l-.22.24-.28.27c-.23.23-.48.45-.74.67l-.2.15c-.2.16-.39.32-.61.47a11.27,11.27,0,0,1-1.06.69c-6.73,3.92-17.63,3.92-24.35,0h0a11.4,11.4,0,0,1-1.07-.69c-.2-.14-.39-.29-.57-.44l-.24-.19c-.26-.21-.49-.42-.72-.64s-.21-.22-.32-.32Z" style="fill:#37474f"></path><path d="M77.64,381.75c9.26,5.4,9.26,14.16,0,19.57s-24.26,5.4-33.52,0-9.26-14.17,0-19.57S68.39,376.34,77.64,381.75Z" style="fill:#455a64"></path><path d="M73.19,384.35c6.8,4,6.8,10.4,0,14.37s-17.82,4-24.62,0-6.79-10.41,0-14.37S66.39,380.38,73.19,384.35Z" style="fill:#263238"></path><path d="M48.57,391.17c6.8-4,17.82-4,24.62,0a11.36,11.36,0,0,1,4.07,3.77,11.29,11.29,0,0,1-4.07,3.78c-6.8,4-17.82,4-24.62,0a11.37,11.37,0,0,1-4.07-3.78A11.44,11.44,0,0,1,48.57,391.17Z" style="fill:#fafafa"></path></g><path d="M58.15,337.06c-3.11,3.37-11.75,4.3-15.32-4.81-3.36-8.53-7-16.63-8-19.76a3.22,3.22,0,0,1,2.06-4.17s.25-4.69,8.2-1.51,13.55,8,17,15.81S63.47,336,58.15,337.06Z" style="fill:#BA68C8"></path><path d="M58.15,337.06c-3.11,3.37-11.75,4.3-15.32-4.81-3.36-8.53-7-16.63-8-19.76a3.22,3.22,0,0,1,2.06-4.17s.25-4.69,8.2-1.51,13.55,8,17,15.81S63.47,336,58.15,337.06Z" style="fill:#fff;opacity:0.45"></path><path d="M61.59,349.1a41.78,41.78,0,0,0-.68-4.75,67.52,67.52,0,0,0-2.64-9.16,67.45,67.45,0,0,0-9.21-17A58.37,58.37,0,0,0,41.82,310c-.08-.07-.15.11-.09.17A72.75,72.75,0,0,1,53.07,325.8a73.3,73.3,0,0,1,6.56,17.77c.39,1.73.76,3.47,1.08,5.21s.5,3.57.8,5.34c0,.18.31.29.32.05A33,33,0,0,0,61.59,349.1Z" style="fill:#BA68C8"></path><path d="M61.59,349.1a41.78,41.78,0,0,0-.68-4.75,67.52,67.52,0,0,0-2.64-9.16,67.45,67.45,0,0,0-9.21-17A58.37,58.37,0,0,0,41.82,310c-.08-.07-.15.11-.09.17A72.75,72.75,0,0,1,53.07,325.8a73.3,73.3,0,0,1,6.56,17.77c.39,1.73.76,3.47,1.08,5.21s.5,3.57.8,5.34c0,.18.31.29.32.05A33,33,0,0,0,61.59,349.1Z" style="opacity:0.30000000000000004"></path><path d="M64.25,334.7c-7.14,2.21-12.44-3.36-10.61-12.1s11-18.44,14.49-15.84c2.16-2.16,6.93-1.38,9.18,5.71S77.51,337.8,64.25,334.7Z" style="fill:#BA68C8"></path><path d="M64.25,334.7c-7.14,2.21-12.44-3.36-10.61-12.1s11-18.44,14.49-15.84c2.16-2.16,6.93-1.38,9.18,5.71S77.51,337.8,64.25,334.7Z" style="fill:#fff;opacity:0.25"></path><path d="M68.44,312.08a95.33,95.33,0,0,0-4.75,15.7,152.37,152.37,0,0,0-2.75,16.44,256.83,256.83,0,0,0-1.43,32.22c0,3,.06,5.95.11,8.92s0,6.15.28,9.2c.1,1.17,1.76.86,1.78-.21.1-5.35-.19-10.73-.24-16.08s0-10.59.1-15.88a222.46,222.46,0,0,1,2.89-32.18c.51-3,1.07-5.92,1.76-8.84.73-3.08,1.62-6.12,2.43-9.17C68.65,312.08,68.51,311.92,68.44,312.08Z" style="fill:#BA68C8"></path><path d="M68.44,312.08a95.33,95.33,0,0,0-4.75,15.7,152.37,152.37,0,0,0-2.75,16.44,256.83,256.83,0,0,0-1.43,32.22c0,3,.06,5.95.11,8.92s0,6.15.28,9.2c.1,1.17,1.76.86,1.78-.21.1-5.35-.19-10.73-.24-16.08s0-10.59.1-15.88a222.46,222.46,0,0,1,2.89-32.18c.51-3,1.07-5.92,1.76-8.84.73-3.08,1.62-6.12,2.43-9.17C68.65,312.08,68.51,311.92,68.44,312.08Z" style="opacity:0.30000000000000004"></path><path d="M52.63,360.33c-3.12,3.53-10.27,3.22-15.06-3.08s-7.67-30-.93-28.49c1.43-3.16,20.08,4.43,22.47,19.89C60.85,359.89,52.63,360.33,52.63,360.33Z" style="fill:#BA68C8"></path><path d="M52.63,360.33c-3.12,3.53-10.27,3.22-15.06-3.08s-7.67-30-.93-28.49c1.43-3.16,20.08,4.43,22.47,19.89C60.85,359.89,52.63,360.33,52.63,360.33Z" style="fill:#fff;opacity:0.25"></path><path d="M58.21,371.52a35.71,35.71,0,0,0-.92-4.32,89.17,89.17,0,0,0-2.78-8.57,89.87,89.87,0,0,0-8.33-16.35,79.68,79.68,0,0,0-5.91-8.35c-.06-.07-.11.09-.08.14,1.67,2.43,3.35,4.83,4.85,7.37a89.33,89.33,0,0,1,4.23,8.12,112.81,112.81,0,0,1,6.15,16.5c.45,1.6.83,3.23,1.3,4.83s1.12,3.29,1.53,5c.06.25.38.33.35,0C58.45,374.42,58.4,373,58.21,371.52Z" style="fill:#BA68C8"></path><path d="M58.21,371.52a35.71,35.71,0,0,0-.92-4.32,89.17,89.17,0,0,0-2.78-8.57,89.87,89.87,0,0,0-8.33-16.35,79.68,79.68,0,0,0-5.91-8.35c-.06-.07-.11.09-.08.14,1.67,2.43,3.35,4.83,4.85,7.37a89.33,89.33,0,0,1,4.23,8.12,112.81,112.81,0,0,1,6.15,16.5c.45,1.6.83,3.23,1.3,4.83s1.12,3.29,1.53,5c.06.25.38.33.35,0C58.45,374.42,58.4,373,58.21,371.52Z" style="opacity:0.30000000000000004"></path><path d="M64.05,356.83C60,355.9,59.76,351,64.86,345s18-8.64,18.57-6.1c2.85,0,2.85,8.95-3.47,17.16S64.43,362.35,64.05,356.83Z" style="fill:#BA68C8"></path><path d="M64.05,356.83C60,355.9,59.76,351,64.86,345s18-8.64,18.57-6.1c2.85,0,2.85,8.95-3.47,17.16S64.43,362.35,64.05,356.83Z" style="fill:#fff;opacity:0.25"></path><path d="M72,348.08a32.34,32.34,0,0,0-11.81,15.24c-.13.35.47.87.62.49a37.54,37.54,0,0,1,11.21-15.65S72.09,348,72,348.08Z" style="fill:#BA68C8"></path><path d="M72,348.08a32.34,32.34,0,0,0-11.81,15.24c-.13.35.47.87.62.49a37.54,37.54,0,0,1,11.21-15.65S72.09,348,72,348.08Z" style="opacity:0.30000000000000004"></path><path d="M68.71,386.68c-5.65,2.29-3.23,9,2.29,14.13A25.18,25.18,0,0,0,88.2,407c3.79-.27,4.76-.79,4.76-.79a42.77,42.77,0,0,0,0-9.35,18.07,18.07,0,0,0-13.32-14.35C70.82,380.13,68.71,383.32,68.71,386.68Z" style="fill:#BA68C8"></path><path d="M68.71,386.68c-5.65,2.29-3.23,9,2.29,14.13A25.18,25.18,0,0,0,88.2,407c3.79-.27,4.76-.79,4.76-.79a42.77,42.77,0,0,0,0-9.35,18.07,18.07,0,0,0-13.32-14.35C70.82,380.13,68.71,383.32,68.71,386.68Z" style="fill:#fff;opacity:0.45"></path><path d="M84.36,396.62a45.68,45.68,0,0,0-8.66-8c-3.22-2.12-7.51-3.92-11.37-2.6-1.49.51-3.82,2-3.54,3.85,0,.18.36.64.58.39a15.38,15.38,0,0,1,2-2.38,6.06,6.06,0,0,1,3-1.15,14.11,14.11,0,0,1,7.92,1.8c3.82,2,6.91,5.18,10,8.19C84.34,396.74,84.38,396.65,84.36,396.62Z" style="fill:#BA68C8"></path><path d="M84.36,396.62a45.68,45.68,0,0,0-8.66-8c-3.22-2.12-7.51-3.92-11.37-2.6-1.49.51-3.82,2-3.54,3.85,0,.18.36.64.58.39a15.38,15.38,0,0,1,2-2.38,6.06,6.06,0,0,1,3-1.15,14.11,14.11,0,0,1,7.92,1.8c3.82,2,6.91,5.18,10,8.19C84.34,396.74,84.38,396.65,84.36,396.62Z" style="opacity:0.30000000000000004"></path><path d="M47.19,357.74c.53-2.58-3.18-8.74-14.77-9.92s-20.27,3.73-22,6-2.63,4.61-.53,5.2,9.34,1.29,14.1,3.48,14.41,8.65,21,6.73S50.47,360.3,47.19,357.74Z" style="fill:#BA68C8"></path><path d="M47.19,357.74c.53-2.58-3.18-8.74-14.77-9.92s-20.27,3.73-22,6-2.63,4.61-.53,5.2,9.34,1.29,14.1,3.48,14.41,8.65,21,6.73S50.47,360.3,47.19,357.74Z" style="fill:#fff;opacity:0.45"></path><path d="M56,366.71c-4.89-10.09-17.49-13.18-27.78-13.12a41,41,0,0,0-10,1.3c-.05,0-.05.13,0,.12A53.36,53.36,0,0,1,35,354.84c5.46.89,10.83,2.59,15.32,5.91a20.93,20.93,0,0,1,5.48,6.15C55.91,367.15,56.1,366.92,56,366.71Z" style="fill:#BA68C8"></path><path d="M56,366.71c-4.89-10.09-17.49-13.18-27.78-13.12a41,41,0,0,0-10,1.3c-.05,0-.05.13,0,.12A53.36,53.36,0,0,1,35,354.84c5.46.89,10.83,2.59,15.32,5.91a20.93,20.93,0,0,1,5.48,6.15C55.91,367.15,56.1,366.92,56,366.71Z" style="opacity:0.30000000000000004"></path><path d="M74.18,344.21c-.14,4.06,5.56,6.41,11.08,2.91s11.31-6.92,16.42-8.24,7.54-5.49,5.92-7.51-4.18-7.12-17.63-5.45-18.21,7.72-20,12S72.16,345.38,74.18,344.21Z" style="fill:#BA68C8"></path><path d="M74.18,344.21c-.14,4.06,5.56,6.41,11.08,2.91s11.31-6.92,16.42-8.24,7.54-5.49,5.92-7.51-4.18-7.12-17.63-5.45-18.21,7.72-20,12S72.16,345.38,74.18,344.21Z" style="fill:#fff;opacity:0.45"></path><path d="M96.07,331.35a14.67,14.67,0,0,0-5.77.6,29.87,29.87,0,0,0-4.93,1.77A27.39,27.39,0,0,0,77,339.81a22,22,0,0,0-1.9,2.29,9.64,9.64,0,0,0-1.44,2.35c-.09.27.3.7.54.43.66-.77,1.16-1.71,1.79-2.52a28.07,28.07,0,0,1,2.16-2.47,27.55,27.55,0,0,1,5.18-4.08A31.74,31.74,0,0,1,89,333a33,33,0,0,1,3.35-1A11.65,11.65,0,0,1,96,331.5C96.1,331.5,96.13,331.36,96.07,331.35Z" style="fill:#BA68C8"></path><path d="M96.07,331.35a14.67,14.67,0,0,0-5.77.6,29.87,29.87,0,0,0-4.93,1.77A27.39,27.39,0,0,0,77,339.81a22,22,0,0,0-1.9,2.29,9.64,9.64,0,0,0-1.44,2.35c-.09.27.3.7.54.43.66-.77,1.16-1.71,1.79-2.52a28.07,28.07,0,0,1,2.16-2.47,27.55,27.55,0,0,1,5.18-4.08A31.74,31.74,0,0,1,89,333a33,33,0,0,1,3.35-1A11.65,11.65,0,0,1,96,331.5C96.1,331.5,96.13,331.36,96.07,331.35Z" style="opacity:0.30000000000000004"></path><path d="M64.54,366.09c-1.89-1.88-7-1.45-9.42,4.12s2.66,11.66,3.23,13.38c2.33-1.35,4.15-.55,8.26-1.35A10.29,10.29,0,0,0,74.5,372C74.23,366.9,72.07,363.53,64.54,366.09Z" style="fill:#BA68C8"></path><path d="M64.54,366.09c-1.89-1.88-7-1.45-9.42,4.12s2.66,11.66,3.23,13.38c2.33-1.35,4.15-.55,8.26-1.35A10.29,10.29,0,0,0,74.5,372C74.23,366.9,72.07,363.53,64.54,366.09Z" style="fill:#fff;opacity:0.45"></path><path d="M64.47,365.53a7.71,7.71,0,0,0-2.5,2.58,14.23,14.23,0,0,0-1.62,3.12,13.22,13.22,0,0,0-.71,7.09c0,.09.09,0,.09-.05a14.5,14.5,0,0,1,1.19-7,13.47,13.47,0,0,1,1.7-2.82,14.16,14.16,0,0,1,1.13-1.31,6.89,6.89,0,0,0,1.08-1.08C65,365.85,64.75,365.39,64.47,365.53Z" style="fill:#BA68C8"></path><path d="M64.47,365.53a7.71,7.71,0,0,0-2.5,2.58,14.23,14.23,0,0,0-1.62,3.12,13.22,13.22,0,0,0-.71,7.09c0,.09.09,0,.09-.05a14.5,14.5,0,0,1,1.19-7,13.47,13.47,0,0,1,1.7-2.82,14.16,14.16,0,0,1,1.13-1.31,6.89,6.89,0,0,0,1.08-1.08C65,365.85,64.75,365.39,64.47,365.53Z" style="opacity:0.30000000000000004"></path><path d="M55.67,377.37c-.17-4.14-4.66-7.42-11.06-9.32a17.38,17.38,0,0,0-18,4.77c-4.66,5.07-7.08,9.39-5.18,10.6s10.36,4.32,15.89,6,12.78,2.25,18.31-1S60.85,379.45,55.67,377.37Z" style="fill:#BA68C8"></path><path d="M55.67,377.37c-.17-4.14-4.66-7.42-11.06-9.32a17.38,17.38,0,0,0-18,4.77c-4.66,5.07-7.08,9.39-5.18,10.6s10.36,4.32,15.89,6,12.78,2.25,18.31-1S60.85,379.45,55.67,377.37Z" style="fill:#fff;opacity:0.25"></path><path d="M56,376.91a17.57,17.57,0,0,0-6.94-1.86,31.67,31.67,0,0,0-6.95.09,42.42,42.42,0,0,0-7.21,1.52c-1.23.36-2.45.76-3.65,1.21a24.91,24.91,0,0,0-3.34,1.37c-.05,0-.07.16,0,.15,1.17-.25,2.32-.7,3.46-1.05s2.47-.75,3.72-1.07a49.1,49.1,0,0,1,7.1-1.35,31.61,31.61,0,0,1,7.21,0,43,43,0,0,1,6.54,1.6C56.41,377.68,56.28,377.05,56,376.91Z" style="fill:#BA68C8"></path><path d="M56,376.91a17.57,17.57,0,0,0-6.94-1.86,31.67,31.67,0,0,0-6.95.09,42.42,42.42,0,0,0-7.21,1.52c-1.23.36-2.45.76-3.65,1.21a24.91,24.91,0,0,0-3.34,1.37c-.05,0-.07.16,0,.15,1.17-.25,2.32-.7,3.46-1.05s2.47-.75,3.72-1.07a49.1,49.1,0,0,1,7.1-1.35,31.61,31.61,0,0,1,7.21,0,43,43,0,0,1,6.54,1.6C56.41,377.68,56.28,377.05,56,376.91Z" style="opacity:0.30000000000000004"></path><path d="M68.86,371.2c-4.57-3.63-3-12.33,12.94-12.8s27.4,3.7,26.9,8.85c2.57,2.57,1.27,9.78-11.68,12S65.56,380.41,68.86,371.2Z" style="fill:#BA68C8"></path><path d="M68.86,371.2c-4.57-3.63-3-12.33,12.94-12.8s27.4,3.7,26.9,8.85c2.57,2.57,1.27,9.78-11.68,12S65.56,380.41,68.86,371.2Z" style="fill:#fff;opacity:0.25"></path><path d="M101.18,367.3a69,69,0,0,0-14.29-.83A55.14,55.14,0,0,0,73.71,368a19.77,19.77,0,0,0-3.22,1.19c-.48.23-.95.48-1.4.75s-.77.41-.9.84a.44.44,0,0,0,.48.51,17.27,17.27,0,0,0,2.79-1.39,22.94,22.94,0,0,1,2.77-1,34.82,34.82,0,0,1,5.56-1.09,98.05,98.05,0,0,1,13.49-.74c2.63,0,5.25.23,7.87.44C101.23,367.5,101.26,367.32,101.18,367.3Z" style="fill:#BA68C8"></path><path d="M101.18,367.3a69,69,0,0,0-14.29-.83A55.14,55.14,0,0,0,73.71,368a19.77,19.77,0,0,0-3.22,1.19c-.48.23-.95.48-1.4.75s-.77.41-.9.84a.44.44,0,0,0,.48.51,17.27,17.27,0,0,0,2.79-1.39,22.94,22.94,0,0,1,2.77-1,34.82,34.82,0,0,1,5.56-1.09,98.05,98.05,0,0,1,13.49-.74c2.63,0,5.25.23,7.87.44C101.23,367.5,101.26,367.32,101.18,367.3Z" style="opacity:0.30000000000000004"></path></g></g><g id="Arrows"><g id="Arrow"><polygon points="385.98 165.96 380.46 162.78 358.09 152.65 358.09 165.56 250.6 227.62 250.6 246.99 256.12 250.17 358.09 191.3 358.09 197.85 363.61 201.03 385.98 165.96" style="fill:#BA68C8"></polygon><polygon points="363.61 188.11 358.09 184.94 358.09 197.85 363.61 201.03 363.61 188.11" style="fill:#fff;opacity:0.35000000000000003"></polygon><polygon points="358.09 165.56 363.61 168.74 256.12 230.8 250.6 227.62 358.09 165.56" style="fill:#fff;opacity:0.8"></polygon><g id="arrow"><polygon id="down-arrow" points="256.12 230.8 256.12 250.17 363.61 188.11 363.61 201.03 385.98 165.96 363.61 155.82 363.61 168.74 256.12 230.8" style="fill:#BA68C8"></polygon><polygon id="down-arrow" points="256.12 230.8 256.12 250.17 363.61 188.11 363.61 201.03 385.98 165.96 363.61 155.82 363.61 168.74 256.12 230.8" style="fill:#fff;opacity:0.55"></polygon></g><polygon points="358.09 152.65 363.61 155.82 385.98 165.96 380.46 162.78 358.09 152.65" style="fill:#fff;opacity:0.8"></polygon><polygon points="363.61 155.82 358.09 152.65 358.09 165.56 363.61 168.74 363.61 155.82" style="fill:#fff;opacity:0.35000000000000003"></polygon><polygon points="250.6 227.62 256.12 230.8 256.12 250.17 250.6 246.99 250.6 227.62" style="fill:#fff;opacity:0.35000000000000003"></polygon></g><g id="arrow"><polygon points="356.54 123.09 351.02 119.92 328.65 109.78 328.65 122.7 221.16 184.76 221.16 204.13 226.68 207.31 328.65 148.44 328.65 154.99 334.17 158.17 356.54 123.09" style="fill:#BA68C8"></polygon><polygon points="334.17 145.25 328.65 142.07 328.65 154.99 334.17 158.17 334.17 145.25" style="fill:#fff;opacity:0.7000000000000001"></polygon><polygon points="328.65 122.7 334.17 125.88 226.68 187.94 221.16 184.76 328.65 122.7" style="fill:#fff;opacity:0.9"></polygon><g id="arrow"><polygon id="down-arrow" points="226.68 187.94 226.68 207.31 334.17 145.25 334.17 158.17 356.54 123.09 334.17 112.96 334.17 125.88 226.68 187.94" style="fill:#BA68C8"></polygon><polygon id="down-arrow" points="226.68 187.94 226.68 207.31 334.17 145.25 334.17 158.17 356.54 123.09 334.17 112.96 334.17 125.88 226.68 187.94" style="fill:#fff;opacity:0.8"></polygon></g><polygon points="328.65 109.78 334.17 112.96 356.54 123.09 351.02 119.92 328.65 109.78" style="fill:#fff;opacity:0.9"></polygon><polygon points="334.17 112.96 328.65 109.78 328.65 122.7 334.17 125.88 334.17 112.96" style="fill:#fff;opacity:0.7000000000000001"></polygon><polygon points="221.16 184.76 226.68 187.94 226.68 207.31 221.16 204.13 221.16 184.76" style="fill:#fff;opacity:0.35000000000000003"></polygon></g><polygon id="arrow" points="140.32 459.38 150.53 465.27 259.43 402.39 266.24 406.32 266.24 392.57 242.41 392.57 249.22 396.5 140.32 459.38" style="fill:#BA68C8"></polygon><polygon id="arrow" points="174.35 467.24 184.56 473.13 232.21 445.62 239.01 449.55 239.01 435.8 215.19 435.8 222 439.73 174.35 467.24" style="fill:#BA68C8"></polygon><polygon id="arrow" points="140.32 459.38 150.53 465.27 259.43 402.39 266.24 406.32 266.24 392.57 242.41 392.57 249.22 396.5 140.32 459.38" style="fill:#fff;opacity:0.8"></polygon><polygon id="arrow" points="174.35 467.24 184.56 473.13 232.21 445.62 239.01 449.55 239.01 435.8 215.19 435.8 222 439.73 174.35 467.24" style="fill:#fff;opacity:0.8"></polygon><g id="arrows"><polygon points="181.14 23.46 181.14 77.65 206.74 35.77 181.14 23.46" style="fill:#BA68C8;opacity:0.5"></polygon><polygon points="164.07 33.31 164.07 87.51 189.68 45.63 164.07 33.31" style="fill:#BA68C8;opacity:0.35000000000000003"></polygon><polygon points="147.01 43.16 147.01 97.36 172.61 55.48 147.01 43.16" style="fill:#BA68C8;opacity:0.25"></polygon></g></g><g id="window"><g id="window"><path d="M296.45,41.25a4.42,4.42,0,0,0-2-3.44l-1.74-1a4.37,4.37,0,0,0-4,0L94,149.15a11,11,0,0,0-5,8.62v253a4.44,4.44,0,0,0,2,3.45l1.74,1a4.43,4.43,0,0,0,4,0L294.46,301.1a4.42,4.42,0,0,0,2-3.44Z" style="fill:#37474f"></path><path d="M121.45,180.65a1.12,1.12,0,0,1-.11.47.77.77,0,0,1-.27.33l-.57.33a.21.21,0,0,1-.27,0,.48.48,0,0,1-.11-.34V169.59l-2.26,3.94a.48.48,0,0,1-.27.29.23.23,0,0,1-.26-.07l-.33-.47a.63.63,0,0,1-.08-.39,1.36,1.36,0,0,1,.15-.47l3-5.24a1,1,0,0,1,.23-.28,1.43,1.43,0,0,1,.22-.15l.57-.33a.21.21,0,0,1,.27,0,.48.48,0,0,1,.11.34Z" style="fill:#e0e0e0"></path><path d="M217.56,122.11a3.49,3.49,0,0,0,.2.57.75.75,0,0,0,.38.4,1.13,1.13,0,0,0,.66.06,3.33,3.33,0,0,0,1.06-.45,4,4,0,0,0,.83-.63,4.09,4.09,0,0,0,.68-.9,5.09,5.09,0,0,0,.47-1.12,4.94,4.94,0,0,0,.17-1.31,2.86,2.86,0,0,0-.16-1.08,1,1,0,0,0-.46-.51,1.07,1.07,0,0,0-.67,0,3.59,3.59,0,0,0-.86.37l-1.15.66a.2.2,0,0,1-.27,0,.46.46,0,0,1-.11-.34V117a1.19,1.19,0,0,1,.08-.4l.14-.37,2.51-5.62-4,2.32a.21.21,0,0,1-.27,0,.46.46,0,0,1-.11-.34v-.77a1.2,1.2,0,0,1,.11-.48.8.8,0,0,1,.27-.32l5.49-3.17a.2.2,0,0,1,.27,0,.46.46,0,0,1,.11.34V109a1.32,1.32,0,0,1-.07.42c0,.15-.11.3-.18.46l-2.47,5.52a2.9,2.9,0,0,1,1.28-.4,1.43,1.43,0,0,1,1,.31,2.19,2.19,0,0,1,.64,1,5.36,5.36,0,0,1,.23,1.68,8.41,8.41,0,0,1-.28,2.13,9.31,9.31,0,0,1-.75,1.89,7.88,7.88,0,0,1-1.1,1.55,5.44,5.44,0,0,1-1.35,1.09,4,4,0,0,1-1.6.6,1.72,1.72,0,0,1-1.12-.23,1.84,1.84,0,0,1-.66-.85,3.71,3.71,0,0,1-.23-1.25.92.92,0,0,1,.09-.39.73.73,0,0,1,.22-.26l.64-.37a.19.19,0,0,1,.25,0A.38.38,0,0,1,217.56,122.11Z" style="fill:#e0e0e0"></path><path d="M269.08,96a.21.21,0,0,1-.27,0,.48.48,0,0,1-.11-.34v-3l-4.38,2.53a.2.2,0,0,1-.26,0,.42.42,0,0,1-.11-.34v-.77a2.13,2.13,0,0,1,0-.39,3.07,3.07,0,0,1,.15-.46l4.41-11.43a2.43,2.43,0,0,1,.24-.51.93.93,0,0,1,.3-.32l.56-.32a.2.2,0,0,1,.26,0A.44.44,0,0,1,270,81v9l1.19-.7a.22.22,0,0,1,.27,0,.51.51,0,0,1,.11.35v.77a1.15,1.15,0,0,1-.11.47.77.77,0,0,1-.27.33l-1.19.69v3a1,1,0,0,1-.12.47.7.7,0,0,1-.26.33Zm-.38-5.26v-6l-3,7.8Z" style="fill:#e0e0e0"></path><path d="M96.13,415.42a4.39,4.39,0,0,1-3.35-.24l-1.73-1a4.39,4.39,0,0,1-2-3.44v-253a10.12,10.12,0,0,1,1.46-4.88l5.71,3.32a10.17,10.17,0,0,0-1.45,4.87V414C94.77,415,95.34,415.57,96.13,415.42Z" style="fill:#263238"></path><path d="M296.45,41.26V42c0-1.68-1.18-2.35-2.63-1.52l-194.07,112a10.31,10.31,0,0,0-3.53,3.75l-5.71-3.32A10.25,10.25,0,0,1,94,149.14C126.16,130.59,288.74,36.8,288.74,36.8a4.43,4.43,0,0,1,4,0l1.73,1A4.38,4.38,0,0,1,296.45,41.26Z" style="fill:#fff;opacity:0.9"></path><path d="M99.85,198.35a.57.57,0,0,1-.29-1.07L291.27,86.65a.58.58,0,0,1,.79.21.59.59,0,0,1-.21.79L100.13,198.28A.58.58,0,0,1,99.85,198.35Z" style="fill:#455a64"></path><path d="M145.19,169.54a.57.57,0,0,1-.57-.57v-22a.57.57,0,0,1,.57-.58.58.58,0,0,1,.58.58v22A.58.58,0,0,1,145.19,169.54Z" style="fill:#455a64"></path><path d="M195.61,140.42a.57.57,0,0,1-.57-.57v-22a.58.58,0,0,1,1.15,0v22A.57.57,0,0,1,195.61,140.42Z" style="fill:#455a64"></path><path d="M246,111.32a.57.57,0,0,1-.57-.57v-22a.58.58,0,1,1,1.15,0v22A.57.57,0,0,1,246,111.32Z" style="fill:#455a64"></path><path d="M296.45,40.64c0-2.81-2-3.94-4.44-2.53L99.19,149.35a9.86,9.86,0,0,0-4.45,7.71v14.55L296.45,55.25Z" style="fill:#BA68C8"></path><path d="M89.05,168.3V153.83a9.13,9.13,0,0,1,1.36-4.45l5.67,3.26a9,9,0,0,0-1.33,4.42v14.55Z" style="fill:#BA68C8"></path><path d="M89.05,168.3V153.83a9.13,9.13,0,0,1,1.36-4.45l5.67,3.26a9,9,0,0,0-1.33,4.42v14.55Z" style="opacity:0.25"></path><path d="M292,38.11,99.2,149.35a9.16,9.16,0,0,0-3.14,3.3l-5.65-3.27a9,9,0,0,1,3.09-3.25L286.32,34.89a3.15,3.15,0,0,1,3.24-.27c.79.49,4.49,2.59,5.43,3.09A3.24,3.24,0,0,0,292,38.11Z" style="fill:#BA68C8"></path><path d="M292,38.11,99.2,149.35a9.16,9.16,0,0,0-3.14,3.3l-5.65-3.27a9,9,0,0,1,3.09-3.25L286.32,34.89a3.15,3.15,0,0,1,3.24-.27c.79.49,4.49,2.59,5.43,3.09A3.24,3.24,0,0,0,292,38.11Z" style="fill:#fff;opacity:0.30000000000000004"></path><path d="M270.19,57.49c1.32-.77,2.39-.15,2.39,1.38A5.29,5.29,0,0,1,270.19,63c-1.32.76-2.4.15-2.4-1.38A5.28,5.28,0,0,1,270.19,57.49Z" style="fill:#fafafa"></path><path d="M279.76,52c1.32-.76,2.39-.14,2.39,1.38a5.3,5.3,0,0,1-2.39,4.15c-1.33.76-2.4.14-2.4-1.38A5.27,5.27,0,0,1,279.76,52Z" style="fill:#fafafa"></path><path d="M289.32,46.44c1.33-.76,2.4-.15,2.4,1.38a5.27,5.27,0,0,1-2.4,4.14c-1.32.77-2.39.15-2.39-1.38A5.29,5.29,0,0,1,289.32,46.44Z" style="fill:#fafafa"></path></g></g><g id="Tab"><g id="tab"><path d="M307.69,94.12a4.44,4.44,0,0,0-2-3.45l-1.74-1a4.43,4.43,0,0,0-4,0L105.47,201.93a11,11,0,0,0-5,8.62V417.36a4.45,4.45,0,0,0,2,3.45l1.74,1a4.43,4.43,0,0,0,4,0l197.5-114a4.45,4.45,0,0,0,2-3.45Z" style="fill:#e0e0e0"></path><path d="M107.57,422.05a4.39,4.39,0,0,1-3.35-.24l-1.73-1a4.39,4.39,0,0,1-2-3.45V210.55a10.12,10.12,0,0,1,1.46-4.89l5.71,3.32a10.18,10.18,0,0,0-1.45,4.88v206.8C106.21,421.67,106.78,422.2,107.57,422.05Z" style="fill:#e0e0e0"></path><path d="M307.69,94.12v.74c0-1.68-1.18-2.36-2.63-1.52L111.19,205.24a10.2,10.2,0,0,0-3.53,3.74L102,205.66a10.06,10.06,0,0,1,3.52-3.73L300,89.66a4.43,4.43,0,0,1,4,0l1.73,1A4.41,4.41,0,0,1,307.69,94.12Z" style="fill:#f0f0f0"></path><path d="M158.08,154a10.17,10.17,0,0,0-1.45,4.87V179l-5.71-3.33V155.53a10.08,10.08,0,0,1,1.46-4.88Z" style="fill:#e0e0e0"></path><path d="M206.81,126.41v.74c0-1.68-1.18-2.36-2.63-1.52l-42.57,24.59a10.2,10.2,0,0,0-3.53,3.74l-5.72-3.32a10.14,10.14,0,0,1,3.52-3.73l43.22-25a4.43,4.43,0,0,1,4,0l1.73,1A4.39,4.39,0,0,1,206.81,126.41Z" style="fill:#f0f0f0"></path><path d="M107.32,421.51c-.47,0-.54-.53-.54-.84V213.86a10.55,10.55,0,0,1,4.69-8.12l45.73-26.4v-20.5a10.55,10.55,0,0,1,4.69-8.12l42.58-24.6a1.84,1.84,0,0,1,.88-.28c.8,0,.88.91.88,1.3V151l99.12-57.2a1.84,1.84,0,0,1,.88-.28c.8,0,.88.91.88,1.3V304.37a3.85,3.85,0,0,1-1.7,2.95l-197.5,114A1.19,1.19,0,0,1,107.32,421.51Z" style="fill:#fafafa"></path><path d="M306.23,94.13c.29,0,.31.55.31.72V304.37a3.3,3.3,0,0,1-1.42,2.45l-197.49,114-.24.11a.84.84,0,0,1,0-.26V213.86a9.9,9.9,0,0,1,4.4-7.62L157.2,180l.58-.33V158.84a9.87,9.87,0,0,1,4.4-7.62l42.57-24.6a1.21,1.21,0,0,1,.6-.2c.29,0,.31.55.31.72V152l1.72-1,98.25-56.7a1.33,1.33,0,0,1,.6-.2m0-1.15a2.28,2.28,0,0,0-1.17.36L206.81,150v-22.9c0-1.18-.6-1.87-1.46-1.87a2.36,2.36,0,0,0-1.17.35l-42.58,24.6a11.05,11.05,0,0,0-5,8.62V179l-45.44,26.23a11,11,0,0,0-5,8.62V420.67c0,.9.45,1.42,1.11,1.42a1.84,1.84,0,0,0,.88-.27l197.5-114a4.45,4.45,0,0,0,2-3.45V94.85c0-1.18-.6-1.87-1.46-1.87Z" style="fill:#ebebeb"></path><path d="M123.91,220.09l73-42.12c.64-.38,1.16-.11,1.16.58a2.49,2.49,0,0,1-1.16,1.93l-73,42.13c-.65.37-1.17.11-1.17-.59A2.47,2.47,0,0,1,123.91,220.09Z" style="fill:#BA68C8"></path><path d="M132.63,231.23a1.07,1.07,0,0,1-.54-2L284.7,141.12a1.08,1.08,0,0,1,1.47.4,1.07,1.07,0,0,1-.4,1.46l-152.6,88.11A1.06,1.06,0,0,1,132.63,231.23Z" style="fill:#ebebeb"></path><path d="M132.63,241.3a1.07,1.07,0,0,1-.54-2L284.7,151.19a1.07,1.07,0,1,1,1.07,1.86l-152.6,88.11A1.06,1.06,0,0,1,132.63,241.3Z" style="fill:#ebebeb"></path><path d="M132.63,251.37a1.07,1.07,0,0,1-.54-2L284.7,161.26a1.07,1.07,0,1,1,1.07,1.86l-152.6,88.11A1.17,1.17,0,0,1,132.63,251.37Z" style="fill:#ebebeb"></path><path d="M119.55,333.19A1,1,0,0,1,119,333a1.07,1.07,0,0,1-.54-.93V271.7a1.07,1.07,0,0,1,.54-.93l170.05-98.18a1.08,1.08,0,0,1,1.61.93v60.42a1.1,1.1,0,0,1-.54.93L120.08,333A1,1,0,0,1,119.55,333.19Zm1.07-60.87v57.94l167.9-96.94V175.38Z" style="fill:#ebebeb"></path><path d="M181.59,153.71a9,9,0,0,0,.63-1.54,6.1,6.1,0,0,0,.21-1.69,2.59,2.59,0,0,0-.43-1.65c-.29-.34-.75-.33-1.37,0a2.94,2.94,0,0,0-.83.69,3.94,3.94,0,0,0-.57.92,5,5,0,0,0-.36,1.07c-.09.37-.16.75-.22,1.12a1.32,1.32,0,0,1-.15.45.74.74,0,0,1-.21.26l-.64.37a.17.17,0,0,1-.22,0,.38.38,0,0,1-.09-.28,8.32,8.32,0,0,1,.24-1.75,9.22,9.22,0,0,1,.64-1.85,9,9,0,0,1,1-1.68,4.87,4.87,0,0,1,1.39-1.23,2.49,2.49,0,0,1,1.35-.42,1.44,1.44,0,0,1,1,.42,2.54,2.54,0,0,1,.59,1.12,6,6,0,0,1,.2,1.67,10.4,10.4,0,0,1-.07,1.28,7.25,7.25,0,0,1-.23,1.2,8.63,8.63,0,0,1-.41,1.21c-.17.41-.37.85-.61,1.32L179.32,161l4.27-2.46a.2.2,0,0,1,.26,0,.42.42,0,0,1,.11.34v.77a1.05,1.05,0,0,1-.11.48.72.72,0,0,1-.26.32l-6,3.47a.21.21,0,0,1-.27,0,.46.46,0,0,1-.11-.34v-.77a1.33,1.33,0,0,1,.07-.45,4.19,4.19,0,0,1,.24-.55Z" style="fill:#455a64"></path></g></g><g id="Button"><g id="button"><path id="shadow" d="M283.38,253.73v33.1c0,2.23,0,4-3.19,5.84L217.84,328.8a5.59,5.59,0,0,1-.6.3,2.5,2.5,0,0,1-.25.09c-1.52.43-2.65-.51-2.65-2.41V293.69a7.11,7.11,0,0,1,1-3.46h0a7,7,0,0,1,2.47-2.62l62-35.9c1.62-.94,3-.46,3.41,1A2.93,2.93,0,0,1,283.38,253.73Z" style="fill:#e0e0e0"></path><g id="button"><path d="M223,290.81l60-34.73a7.52,7.52,0,0,1,6.79,0l.74.45a7.47,7.47,0,0,1,3.39,5.88v32c0,2.17,0,3.91-3.07,5.65l-60.32,35a7.5,7.5,0,0,1-6.78,0l-.74-.45a7.48,7.48,0,0,1-3.4-5.88v-32A7.48,7.48,0,0,1,223,290.81Z" style="fill:#BA68C8"></path><path d="M293.77,261.44c-.39-1.44-1.71-1.9-3.27-1l-60,34.73a6.79,6.79,0,0,0-2.39,2.53l-7.52-4.36a6.72,6.72,0,0,1,2.39-2.53l60-34.74a7.58,7.58,0,0,1,6.79,0l.75.46A7.43,7.43,0,0,1,293.77,261.44Z" style="fill:#BA68C8"></path><path d="M293.77,261.44c-.39-1.44-1.71-1.9-3.27-1l-60,34.73a6.79,6.79,0,0,0-2.39,2.53l-7.52-4.36a6.72,6.72,0,0,1,2.39-2.53l60-34.74a7.58,7.58,0,0,1,6.79,0l.75.46A7.43,7.43,0,0,1,293.77,261.44Z" style="fill:#fff;opacity:0.45"></path><path d="M219.57,328.7a7.48,7.48,0,0,0,3.4,5.88l.74.45a7.6,7.6,0,0,0,6.2.28c-1.59.6-2.81-.31-2.81-2.24v-32a7,7,0,0,1,1-3.34l-7.52-4.37a6.93,6.93,0,0,0-1,3.35Z" style="fill:#BA68C8"></path><path d="M219.57,328.7a7.48,7.48,0,0,0,3.4,5.88l.74.45a7.6,7.6,0,0,0,6.2.28c-1.59.6-2.81-.31-2.81-2.24v-32a7,7,0,0,1,1-3.34l-7.52-4.37a6.93,6.93,0,0,0-1,3.35Z" style="fill:#fff;opacity:0.25"></path></g><path d="M244.61,318.38a.44.44,0,0,1-.51,0,.77.77,0,0,1-.24-.25l-4.25-7.31v9.64a1.45,1.45,0,0,1-.15.63.86.86,0,0,1-.35.43l-2.42,1.4a.27.27,0,0,1-.35,0,.62.62,0,0,1-.15-.46V304.05a1.45,1.45,0,0,1,.15-.63.86.86,0,0,1,.35-.43l1.92-1.11c.21-.12.38-.14.51,0a.73.73,0,0,1,.25.26l4.24,7.3v-9.64a1.45,1.45,0,0,1,.15-.63,1,1,0,0,1,.35-.43l2.43-1.4a.26.26,0,0,1,.35,0,.58.58,0,0,1,.15.45v18.43a1.45,1.45,0,0,1-.15.62.87.87,0,0,1-.35.43Z" style="fill:#fafafa"></path><path d="M258.91,305.56a.27.27,0,0,1,.35,0,.62.62,0,0,1,.15.46v3a1.45,1.45,0,0,1-.15.63.86.86,0,0,1-.35.43l-8.78,5.07a.26.26,0,0,1-.35,0,.58.58,0,0,1-.15-.45V296.29a1.45,1.45,0,0,1,.15-.63,1,1,0,0,1,.35-.43l8.63-5a.3.3,0,0,1,.36,0,.67.67,0,0,1,.14.46v3a1.6,1.6,0,0,1-.14.63.93.93,0,0,1-.36.43l-5.7,3.29v3.08l5.3-3.06a.27.27,0,0,1,.35,0,.6.6,0,0,1,.15.45v3a1.41,1.41,0,0,1-.15.62,1,1,0,0,1-.35.44l-5.3,3.05v3.2Z" style="fill:#fafafa"></path><path d="M266.8,299.78l-2.37,6.5a5.39,5.39,0,0,1-.25.6,1.21,1.21,0,0,1-.51.49L260.86,309a.22.22,0,0,1-.29,0,.5.5,0,0,1-.12-.37.71.71,0,0,1,0-.14,1.49,1.49,0,0,1,.05-.21l4.27-11.68-4.09-6.51a.66.66,0,0,1-.05-.28,1.06,1.06,0,0,1,.12-.51.74.74,0,0,1,.28-.35l2.8-1.62c.25-.14.43-.15.54,0l.24.29,2.24,3.52L269,285l.24-.56a1.24,1.24,0,0,1,.53-.6l2.84-1.63a.2.2,0,0,1,.28,0,.48.48,0,0,1,.12.37,1.16,1.16,0,0,1-.05.34l-4.11,11.36,4.24,6.65a1.42,1.42,0,0,1,.05.16v.12a1.19,1.19,0,0,1-.12.51.74.74,0,0,1-.28.35L270,303.75c-.25.14-.41.17-.51.09a1.35,1.35,0,0,1-.25-.31Z" style="fill:#fafafa"></path><path d="M284.23,275.54a.26.26,0,0,1,.35,0,.58.58,0,0,1,.15.45v3a1.45,1.45,0,0,1-.15.62.82.82,0,0,1-.35.43L281,282v14.63a1.45,1.45,0,0,1-.15.62.87.87,0,0,1-.35.43l-2.42,1.4a.28.28,0,0,1-.36,0,.62.62,0,0,1-.14-.46V284l-3.26,1.89a.27.27,0,0,1-.36,0,.59.59,0,0,1-.14-.45v-3a1.4,1.4,0,0,1,.14-.62,1,1,0,0,1,.36-.44Z" style="fill:#fafafa"></path></g></g><g id="Character"><g id="character"><g id="wheel-chair"><path d="M334.23,365.56v5.08a26.1,26.1,0,0,0,3.87,13.7c.19.31.38.61.58.91l.06.09.54.76a26.17,26.17,0,0,0,18.29,10.6l.2,0,.39,0c.26,0,.52,0,.78.06h.29c.3,0,.59,0,.9,0h.32c4.62-.07,9.8-1.59,15.28-4.76L378,390.8c19.3-11.13,34.94-38.23,34.94-60.52V327.7c0-.49,0-1,0-1.46v-1a26,26,0,0,0-3.16-12.49l0-.06c-.09-.17-.17-.33-.26-.48s-.14-.24-.2-.35c-.19-.34-.39-.65-.59-1s-.21-.33-.33-.49L408,310a5.57,5.57,0,0,0-.43-.56,3.61,3.61,0,0,0-.25-.3,26.1,26.1,0,0,0-17.89-10,23.06,23.06,0,0,0-2.38-.14h-.4c-4.62.06-9.8,1.59-15.29,4.76L369.18,305C349.87,316.17,334.23,343.27,334.23,365.56Zm13.11,1.28c0-18.81,13.21-41.69,29.5-51.09s29.51-1.79,29.51,17-13.21,41.69-29.51,51.1S347.34,385.66,347.34,366.84Z" style="fill:#455a64"></path><path d="M340.79,369.35v2.57c0,11,3.82,18.79,10,22.5l.3.17a1.18,1.18,0,0,0,.19.1l.13.08.48.25c.33.16.66.31,1,.45l.46.19.56.2a5,5,0,0,0,.51.16,11.67,11.67,0,0,0,1.23.34,6.2,6.2,0,0,0,.65.14,6.86,6.86,0,0,0,.68.12l.76.11.39,0c.26,0,.52,0,.78.06h.29c.3,0,.59,0,.9,0,4.7,0,10-1.53,15.6-4.77L378,390.8c19.3-11.13,34.94-38.23,34.94-60.52V327.7c0-.49,0-1,0-1.46s0-.81-.06-1.21l0-.43c0-.37-.05-.72-.08-1.08l0-.2c0-.42-.09-.82-.14-1.22s-.1-.73-.17-1.08-.07-.42-.1-.63c-.08-.43-.17-.87-.27-1.29s-.17-.74-.27-1.1c-.18-.67-.37-1.33-.59-2,0,0,0,0,0,0-.11-.34-.24-.68-.38-1-.24-.64-.51-1.25-.8-1.84l-.24-.49c-.09-.17-.17-.33-.26-.48s-.14-.24-.2-.35c-.19-.34-.39-.65-.59-1s-.21-.33-.33-.49L408,310a5.57,5.57,0,0,0-.43-.56c-.14-.19-.29-.36-.44-.54s-.3-.36-.46-.53a12.68,12.68,0,0,0-1-1c-.16-.16-.33-.31-.5-.45a9.3,9.3,0,0,0-1.06-.84c-.17-.14-.36-.27-.54-.39l-.57-.36-.12-.08c-.16-.1-.32-.2-.49-.29-6.31-3.52-15-3-24.5,2.56l-2.23,1.29C356.43,320,340.79,347.06,340.79,369.35Zm6.55-2.51c0-18.81,13.21-41.69,29.5-51.09s29.51-1.79,29.51,17-13.21,41.69-29.51,51.1S347.34,385.66,347.34,366.84Z" style="fill:#263238"></path><path d="M354.9,379.05c4.67,5.56,12.75,6.35,21.94,1,14.49-8.36,26.23-28.69,26.23-45.42,0-7.47-2.35-13-6.24-16,2.71,3.2,4.29,8,4.29,14.11,0,16.72-11.74,37.06-26.23,45.43C366.88,382.83,359.71,382.82,354.9,379.05Z" style="fill:#BA68C8"></path><path d="M354.9,379.05c4.67,5.56,12.75,6.35,21.94,1,14.49-8.36,26.23-28.69,26.23-45.42,0-7.47-2.35-13-6.24-16,2.71,3.2,4.29,8,4.29,14.11,0,16.72-11.74,37.06-26.23,45.43C366.88,382.83,359.71,382.82,354.9,379.05Z" style="opacity:0.2"></path><path d="M347.34,366.85c0,18.81,13.21,26.44,29.5,17s29.51-32.29,29.51-51.1-13.21-26.44-29.51-17S347.34,348,347.34,366.85Zm3.28-1.9c0-16.72,11.74-37.06,26.22-45.42s26.23-1.58,26.23,15.14-11.74,37.06-26.23,45.42S350.62,381.68,350.62,365Z" style="fill:#BA68C8"></path><path d="M351.51,356.63c.06-.29.12-.59.19-.89l22.84-6.12.52-.76-16.79-9.69c.13-.24.27-.47.41-.7l16.78,9.69.4-.83-6.06-22.62.68-.6,6,22.25.81-.92,5.86-28.65c.29-.09.58-.16.87-.24l-5.78,28.27.92-.14,15.74-27.26c.24.12.47.25.7.39l-15.74,27.27.34.87L402,326.61c.09.28.17.57.25.86l-22.12,19.61-.39,1.16,22.64-6.07c-.06.3-.11.59-.17.89l-23,6.16-.52.77,17.12,9.88-.4.71-17.13-9.89-.4.83,6.23,23.24-.67.61-6.13-22.88-.81.92-6,29.48-.87.22L375.49,354l-.92.14L358.49,382a7.92,7.92,0,0,1-.69-.42l16.07-27.84-.34-.87-22,19.5c-.08-.29-.15-.59-.22-.89l22.27-19.74.39-1.16Z" style="fill:#ebebeb"></path><path d="M365.49,354.63c0,3.08,1.06,5.26,2.79,6.3.54.32,1,.53,1.44.81a5.19,5.19,0,0,0,3.21.75h0a6.12,6.12,0,0,0,.71-.11l.22,0,.56-.15.39-.11.4-.16.59-.24a10.66,10.66,0,0,0,1-.52c5.43-3.14,9.84-10.76,9.84-17,0-.37,0-.74-.05-1.09,0-.12,0-.24-.05-.36a6.17,6.17,0,0,0-.09-.64c0-.15-.06-.29-.1-.43s-.08-.33-.12-.48-.11-.3-.16-.45-.09-.25-.15-.37a3.13,3.13,0,0,0-.22-.45l-.15-.27a3.52,3.52,0,0,0-.3-.45l-.13-.17a4.09,4.09,0,0,0-.39-.44l-.1-.09a5.65,5.65,0,0,0-.48-.4l0,0-.06,0a4.13,4.13,0,0,0-.38-.25c-.48-.28-.93-.49-1.3-.72-1.79-1.12-4.3-1-7.09.59C369.9,340.74,365.49,348.36,365.49,354.63Zm12.34,2.05c-.81-1.58-1-4.69,0-5.87s1,.55,3.53-.78a15.36,15.36,0,0,0,1.72-1c-.93,2.22-3.29,6.2-5,7.52A1.59,1.59,0,0,1,377.83,356.68Zm-5.92-12.11a2.66,2.66,0,0,1,.11-.28c.56-1.18,4.22-4.24,6.43-5a13.73,13.73,0,0,1-2.62,7.35,2,2,0,0,0-.75-.75l-1.51-.86a3.31,3.31,0,0,0-.42-.18A5.94,5.94,0,0,0,371.91,344.57Zm10.14-5.67a7.45,7.45,0,0,1,1.7,5c-.21,1.87-3.35,3.75-5.29,4.06.08-1,1.33-1.42,2.15-4.39C381.29,341.11,381.23,339.26,382.05,338.9Zm-11.77,20.75a.54.54,0,0,1-.09-.12c-.78-1.23,2.24-5.41,4.25-7a5.36,5.36,0,0,0,0,2.82c.53,1.94,1.67,2.85.64,3.79C374.34,359.8,372,360.1,370.28,359.65Zm-2-4a18.65,18.65,0,0,1,1.67-7.33,2.51,2.51,0,0,1,3.1-1,2,2,0,0,1,.69,2c-.51,1.52-1.36.54-3.5,3.39C369.44,353.75,368.8,354.84,368.29,355.6Z" style="fill:#e0e0e0"></path><path d="M365.49,354.63c0,3.08,1.06,5.26,2.79,6.3.54.32,1,.53,1.44.81a5.19,5.19,0,0,0,3.21.75h0a6.12,6.12,0,0,0,.71-.11l.22,0,.56-.15.39-.11.4-.16.59-.24a10.66,10.66,0,0,0,1-.52c5.43-3.14,9.84-10.76,9.84-17,0-.37,0-.74-.05-1.09,0-.12,0-.24-.05-.36a6.17,6.17,0,0,0-.09-.64c0-.15-.06-.29-.1-.43s-.08-.33-.12-.48-.11-.3-.16-.45-.09-.25-.15-.37a3.13,3.13,0,0,0-.22-.45l-.15-.27a3.52,3.52,0,0,0-.3-.45l-.13-.17a4.09,4.09,0,0,0-.39-.44l-.1-.09a5.65,5.65,0,0,0-.48-.4l0,0-.06,0a4.13,4.13,0,0,0-.38-.25c-.48-.28-.93-.49-1.3-.72-1.79-1.12-4.3-1-7.09.59C369.9,340.74,365.49,348.36,365.49,354.63Zm12.34,2.05c-.81-1.58-1-4.69,0-5.87s1,.55,3.53-.78a15.36,15.36,0,0,0,1.72-1c-.93,2.22-3.29,6.2-5,7.52A1.59,1.59,0,0,1,377.83,356.68Zm-5.92-12.11a2.66,2.66,0,0,1,.11-.28c.56-1.18,4.22-4.24,6.43-5a13.73,13.73,0,0,1-2.62,7.35,2,2,0,0,0-.75-.75l-1.51-.86a3.31,3.31,0,0,0-.42-.18A5.94,5.94,0,0,0,371.91,344.57Zm10.14-5.67a7.45,7.45,0,0,1,1.7,5c-.21,1.87-3.35,3.75-5.29,4.06.08-1,1.33-1.42,2.15-4.39C381.29,341.11,381.23,339.26,382.05,338.9Zm-11.77,20.75a.54.54,0,0,1-.09-.12c-.78-1.23,2.24-5.41,4.25-7a5.36,5.36,0,0,0,0,2.82c.53,1.94,1.67,2.85.64,3.79C374.34,359.8,372,360.1,370.28,359.65Zm-2-4a18.65,18.65,0,0,1,1.67-7.33,2.51,2.51,0,0,1,3.1-1,2,2,0,0,1,.69,2c-.51,1.52-1.36.54-3.5,3.39C369.44,353.75,368.8,354.84,368.29,355.6Z" style="opacity:0.2"></path><path d="M367,355.49c0,6.27,4.4,8.81,9.83,5.68s9.84-10.76,9.84-17-4.41-8.81-9.84-5.68S367,349.22,367,355.49Zm9.86-7.64c-1.17.48-.23-1.45-2.22-2.15-1.57-.56-3.28-.06-2.63-1.41s5.32-5.14,7.26-5.17S378.58,347.14,376.87,347.85Zm8.39-3.12c-.3,2.65-6.49,5.34-6.79,3.54-.2-1.23,1.23-1.44,2.14-4.72.72-2.59.6-4.56,1.6-4.73S385.56,342.09,385.26,344.73Zm-7.4,6.08c1-1.24,1,.55,3.53-.78,2-1,3.65-2.75,3.63-1.51s-3.25,7.17-5.38,8.83S376.33,352.62,377.86,350.81Zm-2,1.14c.84.46-.62,1.79.05,4.25.52,1.94,1.66,2.85.64,3.79s-5.36,1.16-6.37-.46S374.63,351.28,375.87,352Zm-7.35,5.43c-.6-.66,0-6.46,1.44-9.11s6.06-.37,5.29,1.85c-.51,1.53-1.36.55-3.5,3.4C370.06,355.76,369.13,358,368.52,357.38Z" style="fill:#e0e0e0"></path><path d="M376.84,353.29c-1.66.95-3,.18-3-1.74a6.64,6.64,0,0,1,3-5.21c1.67-1,3-.18,3,1.74A6.64,6.64,0,0,1,376.84,353.29Z" style="fill:#455a64"></path><path d="M292.23,418.56l11.59-24.45h0l3.7-7.8a29.78,29.78,0,0,1,11.14-12.52v3.45a26.91,26.91,0,0,0-8.55,10.3l-1.77,3.73,8.94-5.08v3.3l-11.08,6.28-11.39,24a1.41,1.41,0,0,1-1.29.82,1.44,1.44,0,0,1-1.29-2.05Z" style="fill:#fafafa"></path><path d="M324.75,384.21c4.05,7.67,2.74,17.43,2.59,20.77s1.52,2.68,2.47,0,3.44-13.63-.8-23.19Z" style="fill:#ebebeb"></path><path d="M317,408c0-6.16,4.33-13.66,9.67-16.74,2.8-1.61,5.31-1.68,7.08-.5h0l4.12,2.33L324,416.68l-4.07-2.32v0C318.12,413.36,317,411.19,317,408Z" style="fill:#455a64"></path><path d="M331,393.8c-5.34,3.09-9.67,10.58-9.67,16.74s4.33,8.66,9.67,5.58,9.66-10.57,9.66-16.74S336.35,390.72,331,393.8Z" style="fill:#263238"></path><path d="M331,401a7.55,7.55,0,0,0-3.41,5.9c0,2.17,1.53,3.05,3.41,2a7.5,7.5,0,0,0,3.4-5.89C334.42,400.83,332.9,400,331,401Z"></path><path d="M327.61,383.89c4.06,7.67,2.74,17.43,2.6,20.77s1.52,2.68,2.46,0,3.44-13.63-.8-23.19Z" style="fill:#fafafa"></path><path d="M317.36,387.69l40.45-24V368l-34.48,20.4h0L318.9,391l-.78.45a2,2,0,0,1-3-1.89l.37-3.88Z" style="fill:#37474f"></path><polygon points="344.88 458.81 364.28 447.61 302.22 411.78 282.82 422.98 344.88 458.81" style="fill:#BA68C8"></polygon><polygon points="364.28 447.61 364.28 452.09 344.88 463.29 344.88 458.81 364.28 447.61" style="fill:#BA68C8"></polygon><polygon points="364.28 447.61 364.28 452.09 344.88 463.29 344.88 458.81 364.28 447.61" style="opacity:0.30000000000000004"></polygon><polygon points="282.82 422.98 282.82 427.46 344.88 463.29 344.88 458.81 282.82 422.98" style="fill:#BA68C8"></polygon><polygon points="282.82 422.98 282.82 427.46 344.88 463.29 344.88 458.81 282.82 422.98" style="opacity:0.15"></polygon><path d="M390,405.9a1.43,1.43,0,0,0-2-.52l-1.23.71a29.92,29.92,0,0,0-12.11,13.13L371,427h0l-11.59,24.46a1.44,1.44,0,0,0,.68,1.91,1.51,1.51,0,0,0,.62.14,1.44,1.44,0,0,0,1.29-.82l11.39-24,14.32-8.12a1.44,1.44,0,1,0-1.42-2.5l-10.76,6.12,1.76-3.73a27,27,0,0,1,11-11.88l1.22-.71A1.43,1.43,0,0,0,390,405.9Z" style="fill:#f5f5f5"></path><path d="M390.69,422.07c4.05,7.67,2.74,17.43,2.59,20.77s1.52,2.68,2.47,0,3.44-13.63-.8-23.19Z" style="fill:#e0e0e0"></path><path d="M382.92,445.9c0-6.16,4.33-13.66,9.67-16.74,2.8-1.61,5.31-1.68,7.07-.5h0l4.13,2.33-13.86,23.55-4.07-2.32v0C384.06,451.22,382.92,449.05,382.92,445.9Z" style="fill:#455a64"></path><path d="M397,431.67c-5.34,3.08-9.67,10.57-9.67,16.73s4.33,8.66,9.67,5.58,9.66-10.57,9.66-16.74S402.29,428.58,397,431.67Z" style="fill:#37474f"></path><path d="M397,438.89a7.55,7.55,0,0,0-3.41,5.9c0,2.17,1.53,3,3.41,2a7.5,7.5,0,0,0,3.4-5.89C400.36,438.69,398.84,437.81,397,438.89Z" style="fill:#263238"></path><path d="M393.55,421.75c4.06,7.67,2.74,17.43,2.6,20.77s1.52,2.68,2.46,0,3.44-13.63-.8-23.19Z" style="fill:#f5f5f5"></path><path d="M455.56,282.38l-3.73-6.46,15.79-9.11h0a1.84,1.84,0,0,1,1.89.17,5.83,5.83,0,0,1,2.63,4.56,1.88,1.88,0,0,1-.73,1.68h0l0,0h0Z" style="fill:#455a64"></path><path d="M456.33,280.67c0,1.68-1.18,2.36-2.64,1.52a5.83,5.83,0,0,1-2.63-4.56c0-1.68,1.18-2.36,2.63-1.52A5.81,5.81,0,0,1,456.33,280.67Z" style="fill:#37474f"></path><path d="M453.56,277.59a1,1,0,0,0-.79-.13l-.21.13-11,6.35,3.51,2,9.16-5.29.4-.22a1,1,0,0,0,.2-.67A2.84,2.84,0,0,0,453.56,277.59Z" style="fill:#e0e0e0"></path><path d="M413,257.8l-3.73-6.45,15.79-9.12h0a1.81,1.81,0,0,1,1.89.16A5.83,5.83,0,0,1,429.6,247a1.87,1.87,0,0,1-.74,1.67h0l0,0h0Z" style="fill:#455a64"></path><path d="M413.78,256.1c0,1.68-1.18,2.36-2.64,1.52a5.84,5.84,0,0,1-2.63-4.57c0-1.68,1.18-2.36,2.63-1.52A5.83,5.83,0,0,1,413.78,256.1Z" style="fill:#37474f"></path><path d="M411,253a1,1,0,0,0-.79-.13L410,253l-11,6.35,3.51,2,9.17-5.3.4-.22a1.09,1.09,0,0,0,.19-.67A2.82,2.82,0,0,0,411,253Z" style="fill:#e0e0e0"></path><path d="M397.4,276.41l7.54,4.36-70,33.09a17.46,17.46,0,0,0-7.9,11.89l-9.58,62a1.07,1.07,0,0,1-1.59.75h0c-.36-.21-.57-.61-.44-2.11l5.47-65.87c.31-3.72,2.68-8.16,6.47-11.16Z" style="fill:#455a64"></path><path d="M392.12,390.39l58.12-33.58a8.14,8.14,0,0,0,3.67-6.36V347a8.11,8.11,0,0,0-3.68-6.36l-58.11-33.55a8.05,8.05,0,0,0-7.34,0l-58.11,33.55A8.09,8.09,0,0,0,323,347v3.47a8.13,8.13,0,0,0,3.67,6.36l58.11,33.53A8.11,8.11,0,0,0,392.12,390.39Z" style="fill:#BA68C8"></path><path d="M391.05,390.85a6.15,6.15,0,0,0,1.08-.46l58.11-33.58a8.13,8.13,0,0,0,3.66-6.36V347a8.22,8.22,0,0,0-3-5.87c1.31,1.17,1.08,2.73-.68,3.75L392.4,378.29Z" style="opacity:0.30000000000000004"></path><path d="M323,347v3.47a8.09,8.09,0,0,0,3.67,6.36l58.11,33.54a8.21,8.21,0,0,0,6.27.46l1.35-12.56-.27.16a8.07,8.07,0,0,1-7.35,0L326.67,344.9c-1.77-1-2-2.59-.69-3.75A8.22,8.22,0,0,0,323,347Z" style="opacity:0.15"></path><path d="M371.45,319.05l58.12,33.55a7.73,7.73,0,0,0,4.3.85l.64-.07.14,0,.38-.07.05,0a5.45,5.45,0,0,0,.58-.14,6.71,6.71,0,0,0,1.25-.53l3-1.73a10.34,10.34,0,0,0,4.42-6.29l8.84-49.33a5.53,5.53,0,0,0,.07-.92c0-.12,0-.24,0-.36a6.6,6.6,0,0,0-.4-1.8,6.54,6.54,0,0,0-1.95-2.78l-.24-.19-.39-.25L392.13,255.4a8.13,8.13,0,0,0-7.35,0l-3,1.73a8,8,0,0,0-1.76,1.43c-.1.11-.21.22-.3.33a11.43,11.43,0,0,0-1.07,1.44,2.33,2.33,0,0,0-.2.34,2.75,2.75,0,0,0-.17.29c-.08.15-.15.29-.22.44s-.14.28-.2.43l-.15.36a1.27,1.27,0,0,0-.06.18l-.11.32c0,.14-.08.28-.11.42s-.05.21-.07.31l-8.84,49.34A6.48,6.48,0,0,0,371.45,319.05Z" style="fill:#BA68C8"></path><path d="M442.82,301.21,434,350.55a2.79,2.79,0,0,1-4.42,2.05l-58.12-33.55a6.49,6.49,0,0,1-2.92-6.3l8.84-49.33a2.78,2.78,0,0,1,4.42-2.05l58.11,33.55A6.45,6.45,0,0,1,442.82,301.21Z" style="fill:#BA68C8"></path><path d="M442.82,301.21,434,350.55a2.79,2.79,0,0,1-4.42,2.05l-58.12-33.55a6.49,6.49,0,0,1-2.92-6.3l8.84-49.33a2.78,2.78,0,0,1,4.42-2.05l58.11,33.55A6.45,6.45,0,0,1,442.82,301.21Z" style="opacity:0.15"></path><path d="M431.06,353.19a8.78,8.78,0,0,0,2.81.26l.64-.07c.18,0,.35-.05.52-.09l.05,0a5.45,5.45,0,0,0,.58-.14,6.71,6.71,0,0,0,1.25-.53l3-1.73a10.34,10.34,0,0,0,4.42-6.29l8.84-49.33a5.53,5.53,0,0,0,.07-.92c0-.12,0-.24,0-.36a6.6,6.6,0,0,0-.4-1.8l-10.37,5.89a5.88,5.88,0,0,1,.37,3.16L434,350.55a2.74,2.74,0,0,1-2.9,2.55A.29.29,0,0,1,431.06,353.19Z" style="opacity:0.30000000000000004"></path></g><g id="Bottom"><path d="M343.49,391.27s-6.43,31.19-9.33,40.08c-1.88,5.74-7.84,12.29-12.67,16.85-1.05,1-3.35,2.86-4.26,3.61-2,1.64-.61,2.83,1.17,3.31,4.17,1.12,8.37.25,13.29-2.72,5.65-3.41,8-6.29,13-10.44a20.73,20.73,0,0,0,4.18-4.42,6.39,6.39,0,0,0,.54-3.45,18.61,18.61,0,0,1,.19-3.87c.77-4.3,14.73-28.62,14.73-28.62Z" style="fill:#c8856a"></path><path d="M305.83,455.81c-.28,0-.73,3.12.8,4.46,1.77,1.55,7,4.1,13.88,3.25s10.65-3,13.43-5.25,6.66-5.53,9.79-6.2c2.9-.62,6.06-1.92,7-2.81s.83-4.87.83-4.87Z" style="fill:#263238"></path><path d="M349.61,430.22c1.11,0,1.34,1.16,1.2,2.09-.76,5.17,1.35,9.31.6,13.45-.39,2-5.13,3.43-8.15,4.56a38.2,38.2,0,0,0-9.83,6.12c-3.25,2.65-10.09,5.29-14.59,5.33-6.86.05-11.29-1.84-12.65-4.31-1.68-3.06-.47-6.11,7.6-9.36,3.74-1.51,7.13-3,8.78-4.36,7.63-6.15,8.93-8.9,10.58-11.81.86-1.53,1.45-1.91,3.44-1.87,2.4,0,4.78.59,6.21,2.33.74,1.26.62,2.83.63,4.25,0,.19-.08.55.19.47,1.09-1.13,1.14-3.07,2.26-4.24.66-1,3.45-1.56,3.45-1.56Z" style="fill:#37474f"></path><path d="M313.79,448.1c9.93.74,14.95,7.12,15.35,10.92-5.4,2.43-8.24,2.73-10.3,2.75-6.86.05-11.58-1.83-12.93-4.31C304.32,454.57,305.75,450.34,313.79,448.1Z" style="fill:#fafafa"></path><path d="M328.14,449.84a.45.45,0,0,0,.31-.11.48.48,0,0,0,.07-.68,11.67,11.67,0,0,0-9-3.6.49.49,0,0,0,.1,1,10.82,10.82,0,0,1,8.11,3.24A.46.46,0,0,0,328.14,449.84Z" style="fill:#f0f0f0"></path><path d="M332.51,446.45a.45.45,0,0,0,.31-.1.5.5,0,0,0,.08-.69,11.69,11.69,0,0,0-9-3.59.48.48,0,0,0,.1,1,10.82,10.82,0,0,1,8.11,3.24A.46.46,0,0,0,332.51,446.45Z" style="fill:#f0f0f0"></path><path d="M336.52,443.11a.5.5,0,0,0,.3-.11.49.49,0,0,0,.08-.68,11.67,11.67,0,0,0-9-3.6.48.48,0,1,0,.1,1,10.82,10.82,0,0,1,8.11,3.25A.51.51,0,0,0,336.52,443.11Z" style="fill:#f0f0f0"></path><path d="M340.12,439.75a.49.49,0,0,0,.3-.1.48.48,0,0,0,.08-.68c-1.88-2.42-6.18-4-9.79-3.66a.49.49,0,0,0,.1,1c3.25-.33,7.25,1.14,8.93,3.28A.46.46,0,0,0,340.12,439.75Z" style="fill:#f0f0f0"></path><path d="M311.56,372.71s-6.47,31.18-9.38,40.07c-1.89,5.74-7.86,12.28-12.69,16.84-1.05,1-3.35,2.85-4.26,3.6-2,1.63-.61,2.83,1.16,3.31,4.18,1.12,8.38.26,13.29-2.7,5.66-3.41,8-6.28,13-10.43a20.68,20.68,0,0,0,4.18-4.41,6.3,6.3,0,0,0,.55-3.45,18.74,18.74,0,0,1,.19-3.88c.78-4.29,14.77-28.59,14.77-28.59Z" style="fill:#c8856a"></path><path d="M273.82,437.21c-.28,0-.73,3.12.8,4.46,1.77,1.55,7,4.1,13.87,3.26s10.66-2.94,13.44-5.23,6.67-5.52,9.79-6.19c2.91-.62,6.06-1.91,7-2.8s.83-4.87.83-4.87Z" style="fill:#263238"></path><path d="M317.63,411.66c1.12,0,1.34,1.17,1.2,2.1-.77,5.17,1.34,9.31.58,13.45-.39,2-5.13,3.42-8.16,4.55a38.6,38.6,0,0,0-9.82,6.1c-3.27,2.65-10.11,5.28-14.6,5.32-6.87.05-11.3-1.85-12.65-4.33-1.68-3.06-.46-6.1,7.61-9.35,3.74-1.5,7.14-3,8.78-4.35,7.64-6.13,8.95-8.89,10.6-11.79.86-1.53,1.17-2.17,3.15-2.12,2.62.07,5.07.85,6.5,2.59.74,1.26.61,2.83.63,4.25,0,.19-.09.55.19.47,1.08-1.13,1.14-3.06,2.26-4.23.66-1,3.45-1.56,3.45-1.56Z" style="fill:#37474f"></path><path d="M281.79,429.5c9.93.76,14.94,7.14,15.34,10.94-5.41,2.43-8.25,2.72-10.3,2.74-6.87.05-11.58-1.85-12.93-4.32C272.31,436,273.75,431.74,281.79,429.5Z" style="fill:#fafafa"></path><path d="M296.14,431.26a.5.5,0,0,0,.31-.1.49.49,0,0,0,.07-.69,11.7,11.7,0,0,0-8.95-3.61.49.49,0,0,0-.44.54.48.48,0,0,0,.53.43,10.84,10.84,0,0,1,8.11,3.25A.46.46,0,0,0,296.14,431.26Z" style="fill:#f0f0f0"></path><path d="M300.52,427.88a.52.52,0,0,0,.31-.1.5.5,0,0,0,.07-.69,11.69,11.69,0,0,0-9-3.61.49.49,0,0,0-.43.54.47.47,0,0,0,.53.43,10.78,10.78,0,0,1,8.1,3.25A.49.49,0,0,0,300.52,427.88Z" style="fill:#f0f0f0"></path><path d="M304.52,424.54a.51.51,0,0,0,.31-.11.48.48,0,0,0,.07-.68,11.67,11.67,0,0,0-9-3.61.48.48,0,0,0-.43.53.48.48,0,0,0,.53.43,10.86,10.86,0,0,1,8.11,3.26A.46.46,0,0,0,304.52,424.54Z" style="fill:#f0f0f0"></path><path d="M308.13,421.19a.43.43,0,0,0,.3-.11.49.49,0,0,0,.09-.68c-1.89-2.41-6.18-4-9.79-3.66a.48.48,0,1,0,.1,1c3.25-.32,7.25,1.16,8.92,3.3A.5.5,0,0,0,308.13,421.19Z" style="fill:#f0f0f0"></path><path d="M312.79,358.86c1.79-8.53,1.57-11.68,7.41-16.67,7.47-6.37,13.5-9.74,21.83-15a225.13,225.13,0,0,1,23.46-12.5L417.8,325.6c.82,4.88,2.19,15-.53,21.95-3.59,9.13-7.15,12.73-14.44,16.89-15,8.55-33.91,17.36-33.91,17.36a53.57,53.57,0,0,1-2,14c-2.58,8.2-3.59,9.85-8.25,19-5.51,10.78-7.18,13.93-7.18,13.93s-10.05.74-16.66-3.47c0,0,8.11-41.18,9.47-48.17,2.94-15.19,6.32-17,9.22-19.55l-16.26,7.57S338,373.19,333,383l-13.88,27.17c-4.28,1.24-13.69-1-15.9-3.41C303.21,406.77,309.51,374.52,312.79,358.86Z" style="fill:#37474f"></path><path d="M337.27,365.06l16.26-7.57,24.88-16.83c-4.13-2.08-10.43-6-12.76-10.63.61,5,4.59,9.94,4.59,9.94Z" style="fill:#263238"></path></g><g id="Chest"><g id="Arm"><path d="M317.86,288.58l29.74-8.28s8.26-9.19,12.42-13.93c12-13.65,14.54-16.89,24.17-16.87l-1,22.77s-11.31,10.37-20.69,19.12c-4.88,4.56-6.15,5.2-13.21,6.2-5.25.74-8,1.11-15.64,2.08-9.41,1.19-11.86,1.52-11.86,1.52Z" style="fill:#c8856a"></path><path d="M321.62,287.53c-6,1.69-8.26,2.42-11.27-.46s-3.92-3.31-4.83-3.72a60.71,60.71,0,0,0-8.14-1.28c-1.58-.16-2.74.4-5.31.86-1.28.23-2.79.41-4.09.55a11.47,11.47,0,0,0-3.26.39c-1.3.57-.24,2.3,1,2.81a12.13,12.13,0,0,0,4.5.53c1.1,0,3.71-.07,3.71-.07,0,.91-.32,2.68.09,3.62s.71,1.26,3.08,2.19a2.29,2.29,0,0,0,.1,1.84,5.08,5.08,0,0,0,2.12,1.44,2.33,2.33,0,0,0,.06,1.49c.31.75,2.19,1.65,4,2.23,1.93.9,4,2.66,5.69,3.3s3.62.25,6.65-.73A114,114,0,0,1,327,300.31S328,285.77,321.62,287.53Z" style="fill:#c8856a"></path><path d="M304.31,286a7.71,7.71,0,0,1-5-.65c-1.5-.8-3.1-1.79-3.49-1.41-.65.64-.58,3.1,1.75,4.63s5.28,2.66,5.89,3.12a12.16,12.16,0,0,1,2.06,3.5,7.2,7.2,0,0,0,7.36,3.72,6.64,6.64,0,0,1-4.95-.11c-3-1.09-3.87-4.36-4.63-5.58s-.92-1.46-3.24-2.49-4.83-2.12-5.23-5.07,1-2.79,1.77-2.49S301.37,286.54,304.31,286Z" style="fill:#af6152"></path><path d="M294,287.14l1.71-.27-.06.7a2.49,2.49,0,0,0-1.77,1.89C293.82,288.86,293.91,287.83,294,287.14Z" style="fill:#af6152"></path><path d="M297.12,293c.77.34,3.22,1.22,3.72,1.41s1-.6.72-1.63a3.49,3.49,0,0,0-1.42-2.11,3.73,3.73,0,0,1,1.83,2c.43,1.31-.06,2-.54,2.32S298.77,293.65,297.12,293Z" style="fill:#af6152"></path><path d="M299.34,296.23c.58.26,1.42.48,3,1.16.93.39,1.51.67,1.86.2a2.52,2.52,0,0,0-.77-2.75,8.61,8.61,0,0,0-1.73-1l.17-.47a6.67,6.67,0,0,1,2.58,1.8c.83,1.12.69,2.83,0,3s-1.18-.05-2.49-.67S299.34,296.23,299.34,296.23Z" style="fill:#af6152"></path><path d="M304,298c.35.21.86,1,.42,1.48a1.45,1.45,0,0,1-1.07.47,1.22,1.22,0,0,0,1.39-.28,1.64,1.64,0,0,0-.23-2Z" style="fill:#af6152"></path></g><g id="chest"><path d="M361.94,316.5,367,306.4l2.6-14.58a16.92,16.92,0,0,1-5.11-15.2c1-5.54,3.35-9.06,6-12.83,4.87-7,11.71-13,13.71-14.29,2.55,0,5.55,0,7.91,0a46,46,0,0,1,7.86.71l3.47.61a45.16,45.16,0,0,1,14.46,5.2c1.06.6,1.65,1,1.65,1-1.54,4-5.21,13.73-3,20.55,2.65,8.22,7.29,8.44,7.29,8.44a82.14,82.14,0,0,0-6.4,21c-1.28,7.23,1.13,13.86,1.51,25-10.89,5.34-24.27,4-38-.73C370,327.43,361.94,316.5,361.94,316.5Z" style="fill:#f0f0f0"></path><path d="M384.59,296.65c4.89,3.76,14.9,4.6,20.83-2.91,0,0-2.49,6.5-9.6,7.5C387,302.47,384.59,296.65,384.59,296.65Z" style="opacity:0.2"></path></g><g id="Head"><path d="M411.33,199.32c4.81-3.92,14.14,1.45,13.08,7.36,5-.31,7.58,9.38,3.83,12.92,2.2,2.83,1.32,9.85-2.84,11.11,1.07,2.6-3.22,9.12-8.93,7.26-2.59,5-11.58,3.59-14.1-1.72C402.94,233.14,411.33,199.32,411.33,199.32Z" style="fill:#263238"></path><path d="M410,242.55c1.18-3.21,3.34-5,4.93-6.62,3.9-3.92,5.66-6.15,7.5-12.8,1.2-4.31,2.1-13.58-4-16.09-1.27-7.57-7.68-10.85-17.32-10.26a72.33,72.33,0,0,0-11.12,2,29.5,29.5,0,0,1-5,.88,11.1,11.1,0,0,1-5-.81c-.85-.33-1.87-.83-2.57-.33a1.61,1.61,0,0,0-.54,1.33,6,6,0,0,0,2.9,5.1,4.71,4.71,0,0,0-3,8.86,4,4,0,0,0-.49,4.85,9.29,9.29,0,0,0,4.09,3c4.84,2.36,9,5.9,13.27,9.09C397.73,233.82,409.94,242.35,410,242.55Z" style="fill:#37474f"></path><path d="M387.32,206c-4.6,2-7.95,4-9.18,21.24-.87,12.29,3.68,16.53,5.8,17.51a13.62,13.62,0,0,0,8,1.35v6.78s-6.46,7.42-5,16c18.22-7.72,23.74-16.11,23.74-16.11l-.49-18s2.61,2.09,4.71,1.2c5-2.12,6.36-8.18,3.82-10.78s-6.41-2.08-7.88.74c0,0,1.63-11.66-5.4-16.76C397.16,203.14,392.72,203.57,387.32,206Z" style="fill:#c8856a"></path><path d="M394.3,233.65a3.22,3.22,0,1,1-6,2.19Z" style="fill:#af6152"></path><path d="M392.45,238a3.17,3.17,0,0,0,2-2.38,4.61,4.61,0,0,0-4.06,2.36A3,3,0,0,0,392.45,238Z" style="fill:#ffa8a7"></path><polygon points="390.28 220.72 387.82 232.26 382.07 229.52 390.28 220.72" style="fill:#af6152"></polygon><path d="M391.91,246.07c9.9-1.51,13.87-3.19,17.19-8.93a11.4,11.4,0,0,1-2.8,5.8c-3.41,3.31-14.39,4.7-14.39,4.7Z" style="fill:#af6152"></path><path d="M394.4,219l4.09,2.62a2.35,2.35,0,0,0-.77-3.25A2.41,2.41,0,0,0,394.4,219Z" style="fill:#263238"></path><path d="M380.45,218.72l4.49-1.54a2.5,2.5,0,0,0-3.11-1.44A2.25,2.25,0,0,0,380.45,218.72Z" style="fill:#263238"></path><path d="M384.38,222.63a1.74,1.74,0,1,1-1.82-1.65A1.75,1.75,0,0,1,384.38,222.63Z" style="fill:#263238"></path><path d="M396.7,224.38a1.74,1.74,0,1,1-1.82-1.65A1.75,1.75,0,0,1,396.7,224.38Z" style="fill:#263238"></path><path d="M391.78,211.16c2.05.4,4.52-2.73,8.34-.6,3.38,1.88,2.12,4.59,5.31,8.09,2.11,2.33.14,7.28,2.74,8.45,1.16.52,2.65-1.21,2.65-1.21s2.13-3,1.45-10.2-10.86-12.3-18.14-12.85-13.82,4-13.68,10.39c0,0,1.74-4.33,5.16-4.7S389.94,210.79,391.78,211.16Z" style="fill:#37474f"></path></g><g id="Top"><path d="M399.23,349.29v1a3,3,0,0,1-1.49,2.59l-28.5,16.41a3.06,3.06,0,0,1-3,0L314,339.15a3,3,0,0,1-1.49-2.59v-.73l55.27,31.91Z" style="fill:#ebebeb"></path><path d="M312.47,335.83l31-17.89a1.77,1.77,0,0,1,1.78,0L399,349a.4.4,0,0,1,0,.69l-31.29,18.07Z" style="fill:#fafafa"></path><polygon points="368.02 365.11 384.75 355.47 335.85 327.24 319.05 336.84 368.02 365.11" style="fill:#e0e0e0"></polygon><polygon points="376.24 338.29 375.94 338.46 367.74 343.2 353.17 334.78 352.86 334.61 361.37 329.7 376.24 338.29" style="fill:#e0e0e0"></polygon><polygon points="375.94 338.46 367.74 343.2 353.17 334.78 361.37 330.05 375.94 338.46" style="fill:#e6e6e6"></polygon><path d="M367.74,367.74v2a3,3,0,0,1-1.49-.39L314,339.15a3,3,0,0,1-1.49-2.59v-.73Z" style="fill:#ebebeb"></path><g style="opacity:0.5;mix-blend-mode:multiply"><path d="M367.74,367.74v2a3,3,0,0,1-1.49-.39L314,339.15a3,3,0,0,1-1.49-2.59v-.73Z" style="fill:#e0e0e0"></path></g><path d="M366.9,368.19a3.52,3.52,0,0,1-3-.24L311.79,337.9a3.58,3.58,0,0,1-1.72-2.48l-5.7-34a3.9,3.9,0,0,1-.05-.58,3.54,3.54,0,0,1,1.05-2.52l54.1,31.24a2.63,2.63,0,0,1,1.27,1.83Z" style="fill:#BA68C8"></path><g style="opacity:0.7000000000000001"><path d="M366.9,368.19a3.52,3.52,0,0,1-3-.24L311.79,337.9a3.58,3.58,0,0,1-1.72-2.48l-5.7-34a3.9,3.9,0,0,1-.05-.58,3.54,3.54,0,0,1,1.05-2.52l54.1,31.24a2.63,2.63,0,0,1,1.27,1.83Z" style="fill:#fff"></path></g><path d="M367.74,367.75l-.36.2a4.3,4.3,0,0,1-.48.24l-6.16-36.78a2.63,2.63,0,0,0-1.27-1.83l-54.1-31.24a3.92,3.92,0,0,1,.72-.55l54.21,31.29a2.67,2.67,0,0,1,1.27,1.84Z" style="fill:#fafafa"></path><path d="M337.58,336.81c-.38-2.27-2.73-5.29-5.25-6.75s-4.24-.78-3.86,1.49,2.73,5.3,5.25,6.75S338,339.09,337.58,336.81Z" style="fill:#BA68C8"></path><path d="M439.65,308.43c-.78-3.61-6.69-37.34-8.59-41.81-2.05-4.85-7.5-8.2-11.52-9.63-6.86,5.36-6.08,22.23-4.92,25.89l6.91,26.44s-7.75,4.3-14,7.67c-5.35,2.89-9,6-15.44,7.05s-7.65.77-13,3.53a40.3,40.3,0,0,0-5.36,3.48c-1.82,2.17-4.12,3.89-6.08,5.92-1.51,1.15,0,1.83,1.21,1.85,3.44-.09,6.05-2.92,9.06-4.2a11.44,11.44,0,0,0-.38,3.44c0,.93-.12,2.06.71,2.71a7.26,7.26,0,0,0,2,.71,1.41,1.41,0,0,0,.43.88,2.29,2.29,0,0,0,1.66.35,7.67,7.67,0,0,0,.94-.18,1.7,1.7,0,0,0,1.1,1.29,7.48,7.48,0,0,0,4,0c.19-.09,1.62-.94,2-1.19.61-.35,1.16-.56,1.42-1s-.65-1.56-1.42-1.65a7.48,7.48,0,0,0-2.5.27,9.32,9.32,0,0,0,.64-2.2c.64-1.13,5.63-.22,10-1.17,3.29-.72,5.13-3.3,6.58-4,9.68-4.95,22.65-8.38,29-10.71C442,319.24,441.11,315.19,439.65,308.43Z" style="fill:#c8856a"></path><path d="M377.9,334.62a9.75,9.75,0,0,1,1.59-4.52c-1.68.69-2.66,5-2.66,5Z" style="fill:#af6152"></path><path d="M380.2,341.48a10.86,10.86,0,0,1-.2-2.73,24.75,24.75,0,0,1,.24-2.72,12,12,0,0,1,.62-2.68,5,5,0,0,1,1.55-2.26,3.73,3.73,0,0,0-.7,1.14,6.94,6.94,0,0,0-.46,1.25,18.65,18.65,0,0,0-.49,2.62c-.14.89-.24,1.79-.36,2.68A24.34,24.34,0,0,0,380.2,341.48Z" style="fill:#af6152"></path><path d="M383.23,342.53a12.64,12.64,0,0,1-.12-2.68,23.69,23.69,0,0,1,.29-2.67,17.83,17.83,0,0,1,.62-2.62,5.13,5.13,0,0,1,1.27-2.36,3.41,3.41,0,0,0-.55,1.19c-.13.42-.24.84-.33,1.27-.19.86-.35,1.73-.49,2.6C383.63,339,383.36,340.75,383.23,342.53Z" style="fill:#af6152"></path><path d="M390.33,340a4.58,4.58,0,0,0-1.1.2c-.35.1-.6.29-1,.46l.17-.3a1,1,0,0,1-.05.53,1.4,1.4,0,0,1-.24.43,1.57,1.57,0,0,1-.73.52,3.84,3.84,0,0,0,.43-.71,2.58,2.58,0,0,0,.09-.35,1.06,1.06,0,0,0,0-.31l0-.2.2-.1a3.36,3.36,0,0,1,1-.26A2.22,2.22,0,0,1,390.33,340Z" style="fill:#af6152"></path></g></g><g id="Wheel"><path d="M449.59,315.15l-.83,4.66L397.83,350a17.49,17.49,0,0,0-6.56,12.25L385,427.46a1,1,0,0,0,.53,1,1,1,0,0,0,1.12,0h0L407,416.6v-4.27l-16.88,9.87,7.42-55.79a17.5,17.5,0,0,1,7.91-11.89l45.27-28.63C455.8,322.82,453.88,317.88,449.59,315.15Z" style="fill:#455a64"></path><path d="M403.57,405.8v5.08a26.09,26.09,0,0,0,3.86,13.7c.19.31.38.61.58.91l.07.09c.17.26.35.51.53.76a26.24,26.24,0,0,0,18.29,10.6l.21,0,.38.05c.26,0,.52,0,.78.06h.29l.9,0h.32c4.62-.07,9.8-1.59,15.28-4.76l2.23-1.29c19.3-11.13,34.94-38.23,34.94-60.52v-2.58c0-.49,0-1,0-1.46v-1A26,26,0,0,0,479.05,353l0-.06c-.09-.17-.17-.33-.26-.48s-.14-.24-.2-.36c-.19-.33-.39-.64-.59-1-.11-.16-.21-.32-.33-.48l-.28-.39c-.13-.19-.27-.38-.42-.56l-.25-.31a26.17,26.17,0,0,0-17.9-10,23.06,23.06,0,0,0-2.38-.14H456c-4.62.06-9.8,1.59-15.28,4.75l-2.23,1.3C419.21,356.41,403.57,383.51,403.57,405.8Zm13.1,1.28c0-18.81,13.21-41.69,29.51-51.1s29.5-1.78,29.5,17-13.21,41.69-29.5,51.1S416.67,425.9,416.67,407.08Z" style="fill:#455a64"></path><path d="M410.12,409.58v2.58c0,11,3.82,18.79,10,22.5.11,0,.2.12.31.17a.81.81,0,0,0,.18.1l.13.07a4.52,4.52,0,0,0,.49.25c.32.17.65.32,1,.46l.47.19.55.2.51.16a12.38,12.38,0,0,0,1.23.34c.21.06.43.1.65.14s.45.09.68.12.51.08.77.1l.38.05c.26,0,.52,0,.78.06h.29l.9,0c4.7,0,10-1.53,15.6-4.77l2.23-1.29c19.3-11.13,34.94-38.23,34.94-60.52v-2.58c0-.49,0-1,0-1.46s0-.81-.06-1.21c0-.14,0-.29,0-.43,0-.37-.06-.72-.09-1.08l0-.2c0-.42-.08-.82-.14-1.22s-.1-.73-.16-1.09c0-.21-.08-.42-.11-.62-.08-.43-.17-.87-.26-1.29s-.18-.74-.28-1.1c-.18-.67-.37-1.33-.59-2,0,0,0,0,0,0-.12-.34-.25-.68-.38-1-.24-.64-.52-1.25-.81-1.84l-.24-.49c-.09-.17-.17-.33-.26-.48s-.14-.24-.2-.36c-.19-.33-.39-.64-.59-1-.11-.16-.21-.32-.33-.48l-.28-.39c-.13-.19-.27-.38-.42-.56s-.29-.37-.45-.54-.3-.36-.46-.53a11.1,11.1,0,0,0-1-1c-.16-.16-.33-.31-.5-.46q-.51-.45-1.05-.84l-.55-.38-.57-.37-.12-.07-.48-.29c-6.31-3.53-15-2.95-24.51,2.56l-2.23,1.29C425.77,360.2,410.12,387.3,410.12,409.58Zm6.55-2.5c0-18.81,13.21-41.69,29.51-51.1s29.5-1.78,29.5,17-13.21,41.69-29.5,51.1S416.67,425.9,416.67,407.08Z" style="fill:#37474f"></path><path d="M424.23,419.29c4.67,5.55,12.75,6.34,21.95,1,14.48-8.36,26.22-28.69,26.22-45.42,0-7.47-2.35-13-6.24-16,2.72,3.2,4.29,8,4.29,14.11,0,16.72-11.74,37.06-26.23,45.42C436.22,423.07,429,423.06,424.23,419.29Z" style="fill:#BA68C8"></path><path d="M424.23,419.29c4.67,5.55,12.75,6.34,21.95,1,14.48-8.36,26.22-28.69,26.22-45.42,0-7.47-2.35-13-6.24-16,2.72,3.2,4.29,8,4.29,14.11,0,16.72-11.74,37.06-26.23,45.42C436.22,423.07,429,423.06,424.23,419.29Z" style="opacity:0.2"></path><path d="M416.67,407.08c0,18.82,13.21,26.44,29.51,17s29.5-32.29,29.5-51.1-13.21-26.44-29.5-17S416.67,388.27,416.67,407.08Zm3.28-1.89c0-16.72,11.74-37.06,26.23-45.42s26.22-1.58,26.22,15.14S460.66,412,446.18,420.33,420,421.91,420,405.19Z" style="fill:#BA68C8"></path><path d="M420.84,396.87c.06-.29.12-.59.19-.89l22.84-6.12.52-.76-16.79-9.7c.13-.23.27-.46.41-.69l16.79,9.69.4-.83L439.14,365c.22-.2.44-.41.67-.6l6,22.25.81-.92L452.44,357l.88-.24-5.79,28.27.92-.14,15.74-27.26c.24.12.48.25.71.39l-15.75,27.27.34.87,21.81-19.34c.08.28.17.57.24.86l-22.12,19.61-.39,1.16,22.64-6.07c-.05.3-.11.59-.17.89l-23,6.16-.52.77,17.12,9.88-.39.7-17.13-9.88-.4.83L453.39,415l-.68.61-6.13-22.88-.81.92-6,29.48-.87.22,5.95-29.08-.92.14-16.08,27.86-.69-.42L443.2,394l-.34-.86-22,19.49c-.08-.28-.15-.58-.22-.88L442.93,392l.39-1.15Z" style="fill:#ebebeb"></path><path d="M434.82,394.87c0,3.08,1.07,5.26,2.79,6.3.54.32,1,.53,1.44.81a5.21,5.21,0,0,0,3.21.75h.05a6,6,0,0,0,.7-.11l.22,0c.18,0,.37-.1.56-.16a3.45,3.45,0,0,0,.4-.11l.39-.15.59-.24a10.79,10.79,0,0,0,1-.52c5.43-3.14,9.83-10.77,9.83-17a9.72,9.72,0,0,0-.05-1.09c0-.12,0-.24,0-.36s-.06-.44-.1-.64a3,3,0,0,0-.1-.43c0-.16-.07-.33-.12-.48s-.1-.3-.16-.45-.09-.25-.14-.37a4.73,4.73,0,0,0-.23-.45l-.14-.27a5.09,5.09,0,0,0-.31-.45l-.13-.18a5.22,5.22,0,0,0-.39-.43l-.1-.1a4.54,4.54,0,0,0-.48-.39l0,0-.07-.05c-.13-.08-.25-.17-.38-.24-.48-.28-.93-.49-1.3-.72-1.79-1.12-4.3-1-7.09.59C439.23,381,434.82,388.6,434.82,394.87Zm12.35,2.05c-.82-1.58-1-4.69,0-5.87s1,.55,3.54-.78a17.42,17.42,0,0,0,1.72-1c-.93,2.22-3.3,6.2-5,7.52A2.63,2.63,0,0,1,447.17,396.92Zm-5.92-12.11a1.19,1.19,0,0,1,.1-.28c.57-1.18,4.23-4.24,6.43-5,.12,1.94-1.35,6.06-2.62,7.35a1.92,1.92,0,0,0-.75-.75l-1.51-.86a2.76,2.76,0,0,0-.42-.19A6.5,6.5,0,0,0,441.25,384.81Zm10.13-5.68a7.43,7.43,0,0,1,1.7,5c-.21,1.87-3.35,3.75-5.29,4.06.08-1,1.33-1.42,2.15-4.4C450.62,381.35,450.56,379.49,451.38,379.13Zm-11.76,20.76-.1-.12c-.78-1.24,2.24-5.41,4.25-7a5.27,5.27,0,0,0,0,2.82c.52,1.94,1.66,2.85.63,3.79C443.67,400,441.31,400.34,439.62,399.89Zm-2-4.05a18.65,18.65,0,0,1,1.67-7.33,2.53,2.53,0,0,1,3.1-1.05,1.94,1.94,0,0,1,.69,2.05c-.51,1.53-1.36.55-3.5,3.4C438.77,394,438.13,395.08,437.62,395.84Z" style="fill:#e0e0e0"></path><path d="M434.82,394.87c0,3.08,1.07,5.26,2.79,6.3.54.32,1,.53,1.44.81a5.21,5.21,0,0,0,3.21.75h.05a6,6,0,0,0,.7-.11l.22,0c.18,0,.37-.1.56-.16a3.45,3.45,0,0,0,.4-.11l.39-.15.59-.24a10.79,10.79,0,0,0,1-.52c5.43-3.14,9.83-10.77,9.83-17a9.72,9.72,0,0,0-.05-1.09c0-.12,0-.24,0-.36s-.06-.44-.1-.64a3,3,0,0,0-.1-.43c0-.16-.07-.33-.12-.48s-.1-.3-.16-.45-.09-.25-.14-.37a4.73,4.73,0,0,0-.23-.45l-.14-.27a5.09,5.09,0,0,0-.31-.45l-.13-.18a5.22,5.22,0,0,0-.39-.43l-.1-.1a4.54,4.54,0,0,0-.48-.39l0,0-.07-.05c-.13-.08-.25-.17-.38-.24-.48-.28-.93-.49-1.3-.72-1.79-1.12-4.3-1-7.09.59C439.23,381,434.82,388.6,434.82,394.87Zm12.35,2.05c-.82-1.58-1-4.69,0-5.87s1,.55,3.54-.78a17.42,17.42,0,0,0,1.72-1c-.93,2.22-3.3,6.2-5,7.52A2.63,2.63,0,0,1,447.17,396.92Zm-5.92-12.11a1.19,1.19,0,0,1,.1-.28c.57-1.18,4.23-4.24,6.43-5,.12,1.94-1.35,6.06-2.62,7.35a1.92,1.92,0,0,0-.75-.75l-1.51-.86a2.76,2.76,0,0,0-.42-.19A6.5,6.5,0,0,0,441.25,384.81Zm10.13-5.68a7.43,7.43,0,0,1,1.7,5c-.21,1.87-3.35,3.75-5.29,4.06.08-1,1.33-1.42,2.15-4.4C450.62,381.35,450.56,379.49,451.38,379.13Zm-11.76,20.76-.1-.12c-.78-1.24,2.24-5.41,4.25-7a5.27,5.27,0,0,0,0,2.82c.52,1.94,1.66,2.85.63,3.79C443.67,400,441.31,400.34,439.62,399.89Zm-2-4.05a18.65,18.65,0,0,1,1.67-7.33,2.53,2.53,0,0,1,3.1-1.05,1.94,1.94,0,0,1,.69,2.05c-.51,1.53-1.36.55-3.5,3.4C438.77,394,438.13,395.08,437.62,395.84Z" style="opacity:0.2"></path><path d="M436.35,395.73c0,6.27,4.39,8.81,9.83,5.68s9.83-10.77,9.83-17-4.4-8.81-9.83-5.68S436.35,389.46,436.35,395.73Zm9.85-7.64c-1.17.48-.23-1.45-2.22-2.15-1.56-.56-3.28-.06-2.63-1.41s5.32-5.14,7.26-5.17S447.91,387.38,446.2,388.09Zm8.39-3.12c-.3,2.65-6.49,5.34-6.78,3.54-.21-1.23,1.22-1.44,2.13-4.73.72-2.59.6-4.55,1.6-4.72S454.89,382.33,454.59,385Zm-7.4,6.08c1-1.25,1,.55,3.54-.78,2-1,3.64-2.75,3.62-1.51s-3.25,7.17-5.37,8.82S445.66,392.86,447.19,391.05Zm-2,1.14c.85.46-.61,1.79.05,4.25.52,1.94,1.66,2.85.64,3.79s-5.36,1.16-6.37-.46S444,391.52,445.2,392.19Zm-7.34,5.43c-.61-.67-.06-6.46,1.43-9.11s6.06-.38,5.3,1.85c-.52,1.53-1.37.55-3.51,3.4C439.4,396,438.46,398.28,437.86,397.62Z" style="fill:#e0e0e0"></path><path d="M446.18,393.52c-1.66,1-3,.19-3-1.73a6.65,6.65,0,0,1,3-5.21c1.66-1,3-.18,3,1.73A6.64,6.64,0,0,1,446.18,393.52Z" style="fill:#455a64"></path></g></g></g><g id="speech-bubble"><g id="speech-bubble"><g id="speech-bubble"><path d="M435.88,203.68l.23-1c1.17-4.71.77-8.45-1.24-11.72-15.92-1.31-27.52-7.79-32.69-18.27a34.57,34.57,0,0,1,2.22-35c6.84-10.44,20.58-17.18,35-17.18,15.36,0,26.74,4.63,34.8,14.15h0c9.87,11.67,10.36,28.42,5.14,37.88-6.17,11.15-16.86,17.17-32.68,18.39a22.87,22.87,0,0,1-9.93,12.15Zm3.51-82.29c-14.15,0-27.62,6.61-34.32,16.83a33.76,33.76,0,0,0-2.17,34.15c6.83,13.85,23.13,17.12,32.24,17.85h.2l.11.17c2.08,3.28,2.62,7,1.67,11.55A21.89,21.89,0,0,0,446,190.5l.08-.25.26,0c15.92-1.18,26.18-6.9,32.31-18,5-9,4.48-25.72-5.05-37h0C465.68,125.93,454.49,121.39,439.39,121.39Z" style="fill:#BA68C8"></path></g><g id="down-arrow"><path d="M425.36,174.75a2.19,2.19,0,0,1-1.49-.58,2.23,2.23,0,0,1-.16-3.14l13-14.39-13.06-15a2.23,2.23,0,1,1,3.36-2.93L441.4,155.2a2.23,2.23,0,0,1,0,3L427,174A2.25,2.25,0,0,1,425.36,174.75Z" style="fill:#455a64"></path></g><g id="down-arrow"><path d="M444,174.75a2.23,2.23,0,0,1-1.65-3.72l13-14.39-13.06-15a2.23,2.23,0,1,1,3.36-2.93L460,155.2a2.24,2.24,0,0,1,0,3L445.64,174A2.23,2.23,0,0,1,444,174.75Z" style="fill:#455a64"></path></g></g></g></svg>