<svg xmlns="http://www.w3.org/2000/svg" viewBox="0 0 500 500"><g id="background-complete"><rect x="416.78" y="398.49" width="33.12" height="0.25" style="fill:#ebebeb"></rect><rect x="322.53" y="401.21" width="8.69" height="0.25" style="fill:#ebebeb"></rect><rect x="396.59" y="389.21" width="19.19" height="0.25" style="fill:#ebebeb"></rect><rect x="52.46" y="390.89" width="43.19" height="0.25" style="fill:#ebebeb"></rect><rect x="104.56" y="390.89" width="6.33" height="0.25" style="fill:#ebebeb"></rect><rect x="131.47" y="395.11" width="93.68" height="0.25" style="fill:#ebebeb"></rect><path d="M237,337.8H43.92a5.71,5.71,0,0,1-5.71-5.71V60.66A5.71,5.71,0,0,1,43.92,55H237a5.71,5.71,0,0,1,5.71,5.71V332.09A5.71,5.71,0,0,1,237,337.8ZM43.92,55.2a5.47,5.47,0,0,0-5.46,5.46V332.09a5.47,5.47,0,0,0,5.46,5.46H237a5.47,5.47,0,0,0,5.46-5.46V60.66A5.47,5.47,0,0,0,237,55.2Z" style="fill:#ebebeb"></path><path d="M453.31,337.8H260.21a5.72,5.72,0,0,1-5.71-5.71V60.66A5.72,5.72,0,0,1,260.21,55h193.1A5.71,5.71,0,0,1,459,60.66V332.09A5.71,5.71,0,0,1,453.31,337.8ZM260.21,55.2a5.47,5.47,0,0,0-5.46,5.46V332.09a5.47,5.47,0,0,0,5.46,5.46h193.1a5.47,5.47,0,0,0,5.46-5.46V60.66a5.47,5.47,0,0,0-5.46-5.46Z" style="fill:#ebebeb"></path><rect y="382.4" width="500" height="0.25" style="fill:#ebebeb"></rect><path d="M114.64,103.57a22.23,22.23,0,1,0,22.23,22.23A22.23,22.23,0,0,0,114.64,103.57Zm12.91,38v-4.5c0-7.13-5.78-7.91-12.91-7.91s-12.91.78-12.91,7.91v4.5a20.39,20.39,0,1,1,25.82,0Z" style="fill:#f0f0f0"></path><ellipse cx="114.64" cy="120.87" rx="5.7" ry="6.7" style="fill:#f0f0f0"></ellipse><path d="M96.49,171.52a17.57,17.57,0,1,0,17.57,17.57A17.56,17.56,0,0,0,96.49,171.52Zm10.2,30V198c0-5.63-4.57-6.25-10.2-6.25s-10.21.62-10.21,6.25v3.56a16.12,16.12,0,1,1,20.41,0Z" style="fill:#f0f0f0"></path><path d="M96.49,179.9c-2.93,0-4.51,2.37-4.51,5.29s1.58,5.3,4.51,5.3,4.5-2.37,4.5-5.3S99.41,179.9,96.49,179.9Z" style="fill:#f0f0f0"></path><path d="M169.9,69.89a13.89,13.89,0,1,0,13.89,13.89A13.89,13.89,0,0,0,169.9,69.89ZM178,93.63V90.82c0-4.46-3.61-4.94-8.06-4.94s-8.06.48-8.06,4.94v2.81a12.73,12.73,0,1,1,16.12,0Z" style="fill:#f0f0f0"></path><path d="M169.9,76.52c-2.31,0-3.56,1.87-3.56,4.18s1.25,4.19,3.56,4.19,3.56-1.88,3.56-4.19S172.21,76.52,169.9,76.52Z" style="fill:#f0f0f0"></path><path d="M403.3,177.41a13.89,13.89,0,1,0,13.89,13.89A13.89,13.89,0,0,0,403.3,177.41Zm8.07,23.74v-2.81c0-4.46-3.61-4.94-8.07-4.94s-8.06.48-8.06,4.94v2.81a12.74,12.74,0,1,1,16.13,0Z" style="fill:#f0f0f0"></path><path d="M403.3,184c-2.31,0-3.56,1.87-3.56,4.18s1.25,4.19,3.56,4.19,3.57-1.88,3.57-4.19S405.62,184,403.3,184Z" style="fill:#f0f0f0"></path><path d="M346.67,72.33a17.92,17.92,0,1,0,17.91,17.92A17.92,17.92,0,0,0,346.67,72.33ZM357.07,103V99.33c0-5.75-4.66-6.38-10.4-6.38s-10.4.63-10.4,6.38V103a16.42,16.42,0,1,1,20.8,0Z" style="fill:#f0f0f0"></path><path d="M346.67,80.88c-3,0-4.6,2.42-4.6,5.4s1.62,5.4,4.6,5.4,4.59-2.42,4.59-5.4S349.65,80.88,346.67,80.88Z" style="fill:#f0f0f0"></path><path d="M384.2,111.49a24,24,0,1,0,24,24A24,24,0,0,0,384.2,111.49Zm13.94,41v-4.86c0-7.7-6.24-8.54-13.94-8.54s-13.94.84-13.94,8.54v4.86a22,22,0,1,1,27.88,0Z" style="fill:#f0f0f0"></path><path d="M384.2,122.94c-4,0-6.16,3.24-6.16,7.24s2.16,7.24,6.16,7.24,6.16-3.25,6.16-7.24S388.2,122.94,384.2,122.94Z" style="fill:#f0f0f0"></path><rect x="94.31" y="237.47" width="1.2" height="25.4" style="fill:#e0e0e0"></rect><path d="M94.91,240.12h0a1.49,1.49,0,0,1-1.49-1.49v-5.12A1.49,1.49,0,0,1,94.91,232h0a1.48,1.48,0,0,1,1.49,1.49v5.12A1.49,1.49,0,0,1,94.91,240.12Z" style="fill:#e0e0e0"></path><path d="M80.28,242h0a1.5,1.5,0,0,1-2.11,0l-3.62-3.62a1.5,1.5,0,0,1,0-2.11h0a1.5,1.5,0,0,1,2.11,0l3.62,3.62A1.5,1.5,0,0,1,80.28,242Z" style="fill:#e0e0e0"></path><path d="M90.36,262.87h-1.2v-6.56A10.88,10.88,0,0,0,86,248.56l-9-9,.85-.85,9,9a12.07,12.07,0,0,1,3.56,8.6Z" style="fill:#e0e0e0"></path><path d="M109.18,242h0a1.5,1.5,0,0,0,2.11,0l3.62-3.62a1.5,1.5,0,0,0,0-2.11h0a1.5,1.5,0,0,0-2.11,0l-3.62,3.62A1.5,1.5,0,0,0,109.18,242Z" style="fill:#e0e0e0"></path><path d="M100.29,262.87h-1.2v-6.56a12.11,12.11,0,0,1,3.56-8.6l9-9,.85.85-9,9a10.88,10.88,0,0,0-3.21,7.75Z" style="fill:#e0e0e0"></path><polygon points="120.72 283.64 69.11 283.64 65.51 261.01 124.32 261.01 120.72 283.64" style="fill:#e0e0e0"></polygon><rect x="65.51" y="257.07" width="58.81" height="3.94" style="fill:#f0f0f0"></rect><rect x="83.48" y="266.02" width="22.86" height="113.76" style="fill:#f0f0f0"></rect><rect x="72.41" y="376.62" width="45.01" height="6.4" style="fill:#ebebeb"></rect><rect x="402.7" y="237.47" width="1.2" height="25.4" style="fill:#e0e0e0"></rect><path d="M403.3,240.12h0a1.49,1.49,0,0,1-1.49-1.49v-5.12A1.49,1.49,0,0,1,403.3,232h0a1.49,1.49,0,0,1,1.5,1.49v5.12A1.5,1.5,0,0,1,403.3,240.12Z" style="fill:#e0e0e0"></path><path d="M388.67,242h0a1.5,1.5,0,0,1-2.11,0l-3.62-3.62a1.5,1.5,0,0,1,0-2.11h0a1.5,1.5,0,0,1,2.11,0l3.62,3.62A1.5,1.5,0,0,1,388.67,242Z" style="fill:#e0e0e0"></path><path d="M398.76,262.87h-1.2v-6.56a10.88,10.88,0,0,0-3.21-7.75l-9-9,.85-.85,9,9a12.08,12.08,0,0,1,3.57,8.6Z" style="fill:#e0e0e0"></path><path d="M417.57,242h0a1.5,1.5,0,0,0,2.11,0l3.62-3.62a1.5,1.5,0,0,0,0-2.11h0a1.5,1.5,0,0,0-2.11,0l-3.62,3.62A1.5,1.5,0,0,0,417.57,242Z" style="fill:#e0e0e0"></path><path d="M408.68,262.87h-1.2v-6.56a12.11,12.11,0,0,1,3.56-8.6l9-9,.85.85-9,9a10.88,10.88,0,0,0-3.21,7.75Z" style="fill:#e0e0e0"></path><polygon points="429.11 283.64 377.5 283.64 373.9 261.01 432.71 261.01 429.11 283.64" style="fill:#e0e0e0"></polygon><rect x="373.9" y="257.07" width="58.81" height="3.94" style="fill:#f0f0f0"></rect><rect x="391.87" y="266.02" width="22.86" height="113.76" style="fill:#f0f0f0"></rect><rect x="380.8" y="376.62" width="45.01" height="6.4" style="fill:#f0f0f0"></rect><path d="M134.7,311.64S121.49,332.43,122,358.08C122,358.08,129.09,327.12,134.7,311.64Z" style="fill:#f0f0f0"></path><path d="M110.31,300.78s16.57,24.31,13,54.85C123.3,355.63,117.43,317.05,110.31,300.78Z" style="fill:#f0f0f0"></path><path d="M123.05,363s4.3-31.58-15.09-41.11C108,321.92,118.24,329.85,123.05,363Z" style="fill:#f5f5f5"></path><path d="M125,372.15c-.05-.37-5-37.18,2.45-68.86l1,.25c-7.42,31.48-2.48,68.09-2.43,68.46Z" style="fill:#e0e0e0"></path><path d="M124.83,303.85l-.35.08a1,1,0,0,0-.71,1.21l.5,1.57a.94.94,0,0,0,1.58.37l.57-.58a1,1,0,0,1,1.56.31l.86,2.15a1,1,0,0,0,1.39.44l1.78-1.14a.94.94,0,0,0,.15-1.47l-.3-.3a1,1,0,0,1,.61-1.62l1.58-.09a1,1,0,0,0,.88-1.1l-.22-1.33a1,1,0,0,0-1.38-.69l-.11.06a1,1,0,0,1-1.32-1.2l.48-1.2a.94.94,0,0,0-.78-1.29l-1.69-.17a.94.94,0,0,0-1,.94h0a1,1,0,0,1-1.76.49l-.24-.38a.94.94,0,0,0-1.48-.18l-1.21,1.2a1,1,0,0,0,0,1.39l1,.89A1,1,0,0,1,124.83,303.85Z" style="fill:#e0e0e0"></path><path d="M127,354.56,128.31,344h-12l1.36,10.57a14.14,14.14,0,0,0-9.52,13.36,25.19,25.19,0,0,0,5.15,14.14h18a25.26,25.26,0,0,0,5.15-14.14A14.15,14.15,0,0,0,127,354.56Z" style="fill:#f0f0f0"></path></g><g id="background-simple"><path d="M335.07,331.66c30.06-16.44,119.62-62,105.86-133.54-14.34-74.56-72.3-75.59-146-51.41-68.87,22.58-65.63-56.84-158.79-26.3-78.87,25.85-111.9,159.8,3,222.3C208.84,380.65,301.09,350.23,335.07,331.66Z" style="fill:#407BFF"></path><path d="M335.07,331.66c30.06-16.44,119.62-62,105.86-133.54-14.34-74.56-72.3-75.59-146-51.41-68.87,22.58-65.63-56.84-158.79-26.3-78.87,25.85-111.9,159.8,3,222.3C208.84,380.65,301.09,350.23,335.07,331.66Z" style="fill:#fff;opacity:0.9"></path></g><g id="Shadow"><ellipse id="path" cx="245.18" cy="412.39" rx="193.89" ry="11.32" style="fill:#f5f5f5"></ellipse></g><g id="World"><path d="M250,88.05A120.59,120.59,0,1,0,370.59,208.64,120.59,120.59,0,0,0,250,88.05Zm0,231.15A110.65,110.65,0,0,1,143.08,180.37a3.19,3.19,0,0,0,1.91-2c.15-.89,2-2,4.06-2.45s4.38-.06,5.07.84a6.57,6.57,0,0,1,1,4.07,3.42,3.42,0,0,1-1.79,2.84c-.83.24-1.74,2.91-2,5.92,0,.33,0,.49-.07.82-.28,3,.66,6.4,2.09,7.64s2.24,3.15,1.79,4.17,1.4,2.31,4.15,3,5,1.57,5,2,.88,1,2,1.34a3.62,3.62,0,0,1,2.25,2.75c.15,1.17.92,1.74,1.69,1.26a1.85,1.85,0,0,1,2.27.06,3.34,3.34,0,0,1,.29,2.81,3.17,3.17,0,0,1-1.71,2.09c-.62.13-1.13,1.41-1.13,2.85s1.21,3.88,2.69,5.47,2.32,4.11,1.85,5.52.49,3.58,2.14,4.86,3,5.26,3,8.82v7c0,3.56.65,7.13,1.44,7.94a5.5,5.5,0,0,1,1,4.15c-.24,1.46,1.12,4,3,5.69s3.86,1.87,4.34.41a4,4,0,0,0-.87-4.06c-.95-.77-1.67-3.92-1.59-7a14.43,14.43,0,0,1,4.56-9.29c1.46-1.24,2.19-1.87,3.66-3.16,2.44-2.16,4.19-5.83,3.87-8.06a9.48,9.48,0,0,1,1.9-6.81c1.38-1.53,1.31-5.26-.14-8.21s-4.16-5.6-6-5.94-3.35-1.46-3.35-2.49a2,2,0,0,0-2-1.9,5.67,5.67,0,0,1-3.62-2.06c-.87-1.11-4.19-2-7.35-2H177c-3.15,0-5.78-.81-5.85-1.74a3.08,3.08,0,0,0-2.27-2.28,2.72,2.72,0,0,1-2.11-2.22,2.8,2.8,0,0,0-1.83-2.33c-1-.36-1.38-1.66-.84-2.92a7.84,7.84,0,0,1,3.94-3.43c1.62-.64,3.54-.38,4.24.6s1.66,1.76,2.13,1.73.86-1,.86-2.26,2.17-3.89,4.86-6l.29-.23c2.68-2.14,4.7-5.13,4.46-6.55s2.15-2.57,5.34-2.48l.9,0c3.19.1,5.82-1.87,5.82-4.43s-.59-4.59-1.32-4.5-1.84-1-2.48-2.41-2.86-1.9-4.94-1.11-4.08,1.95-4.48,2.56-1.69.74-2.87.33-.87-1.85.71-3.22a13.73,13.73,0,0,0,3.75-6c.48-1.91-1.74-3.2-4.9-2.76l-2.29.32c-3.15.47-6.34,2-7.12,3.31s-3.95,2.65-7,3.1a148.42,148.42,0,0,0-16.66,3.24,110.61,110.61,0,0,1,207,4.36c-2.65-.7-5.26-2-6.07-3.19s-4.09-3.7-7.1-5.2L338,161.92a33.15,33.15,0,0,0-11.12-3l-1.32-.05c-3.08-.09-7-1.83-8.64-4a17.34,17.34,0,0,0-8.86-5.29c-3.82-.8-5.74-1.17-9.6-1.83-3.24-.56-7-.24-8.27.66s-2.37,2.39-2.37,3.28-1.4,1.94-3.11,2.35-3.32.27-3.56-.36-2.32-1.31-4.62-1.5-4.84-.36-5.66-.41a34.47,34.47,0,0,1-6.73-2.6c-2.88-1.35-6.92-1.47-9-.27a13.3,13.3,0,0,0-5.1,6.69c-.74,2.46-.87,5.58-.3,6.91a4.09,4.09,0,0,0,3.3,2.44,2.77,2.77,0,0,0,2.7-1.84,4.19,4.19,0,0,1,2.09-2.57c.91-.4,1.79,1.39,1.95,3.95a7,7,0,0,1-3.89,6.47c-2.31,1-4.4.66-4.65-.78a3.69,3.69,0,0,0-2.4-3c-1.07-.2-1.94,1-1.94,2.62a4.46,4.46,0,0,1-2.55,3.95,7.6,7.6,0,0,0-3.6,3,5.5,5.5,0,0,0-.3,3.92c.42,1-.32,1.87-1.64,1.89s-2.13,1.79-1.8,3.94,1.68,3.88,3,3.87a3,3,0,0,0,2.84-2.07,2.58,2.58,0,0,1,2.7-1.89,6.42,6.42,0,0,0,3.74-.94c.83-.62,2.18-.12,3,1.12a6,6,0,0,1,.9,4.3c-.33,1.13.28,1.55,1.35.94s1.54-2.54,1.05-4.29-.5-3.43,0-3.74,1.84,1,3,2.83,3.11,2.88,4.34,2.28,3.12.11,4.19,1.55a7.73,7.73,0,0,1,1.5,5c-.25,1.32-2.67,3-5.39,3.85s-6.22.79-7.78,0a8.87,8.87,0,0,1-3.75-3.93c-.49-1.33-2.79-2.51-5.09-2.61s-6.31,2-8.89,4.54l-2.59,2.59c-2.58,2.58-4.89,6.59-5.13,8.93s-.86,4.58-1.35,5-.89,2.56-.89,4.79,1.61,5.75,3.58,7.82a14.46,14.46,0,0,0,9,3.86c3,0,6.26.72,7.34,1.55s2,3.18,2.09,5.24,1.16,4.32,2.4,5,1.94,4.65,1.55,8.75c0,.47-.06.7-.11,1.17-.38,4.1,0,8.8,1,10.43a22.54,22.54,0,0,1,1.95,7.81c.16,2.66,2.11,5.22,4.34,5.65s5.86-1.54,8.07-4.33,4-7.65,3.89-10.79,1.12-7,2.68-8.64,2.9-6,3-9.7,1.42-8.47,3-10.54,2.62-5,2.38-6.45-2.12-3.22-4.16-3.88-3.79-2.52-3.87-4.14a10.69,10.69,0,0,0-1.64-4.95,8.85,8.85,0,0,1-1.34-5c.08-1.63.62-2.95,1.19-2.95s2.18,1.92,3.58,4.23,2.46,5.26,2.38,6.56.45,2.61,1.19,2.9,3.2-.91,5.49-2.63,2.74-5.66,1-8.82-1.91-5.86-.44-5.94a3.22,3.22,0,0,1,3.25,2,13.27,13.27,0,0,0,3.69,4.83,29.32,29.32,0,0,0,5.3,3.66c1.21.57,2.06,2.66,1.9,4.67s1.62,5.7,3.95,8.11,5.12,1.38,6.23-2.15l1.2-3.84c1.1-3.5,3-6.1,4.31-5.86s3,2.62,3.88,5.23a21.48,21.48,0,0,0,3.15,6.35c.86.88,1.5.19,1.42-1.53s.18-3.16.57-3.18a2.48,2.48,0,0,1,1.56,1c.47.57,1.94.25,3.26-.68s2.33-4.17,2.26-7.23.8-5.84,2-6.15a4.86,4.86,0,0,0,2.8-3.33,7.08,7.08,0,0,0-1.4-5.36c-1.15-1.45-1.53-3.71-.84-4.95s1.77-2.17,2.38-2.09,2.18-2.13,3.47-4.78c1-2.07,1.51-3.08,2.51-5.07,1.29-2.53,2.95-4,3.7-3.35a4.85,4.85,0,0,1,1.37,3.31,4.21,4.21,0,0,0,1.36,3.1c.75.53,2.1-.44,3-2.07a8.48,8.48,0,0,1,3-2.86A110.63,110.63,0,0,1,250,319.2Z" style="fill:#407BFF"></path><path d="M209.59,142.67l-.29-.18c-2.77-1.67-7.57-1.59-10.68.1-1.92,1-2.89,1.58-4.8,2.65-3.09,1.72-5.61,4-5.61,5a13.63,13.63,0,0,0,1.31,4.59,9,9,0,0,1,.72,5.08c-.32,1.26.73,2.36,2.33,2.48a8.42,8.42,0,0,1,5.11,3,10.84,10.84,0,0,0,4,3.33c1,.28,2.75-1.73,4-4.49a18.84,18.84,0,0,1,6.35-7.49,7.14,7.14,0,0,0,3.41-6.69C215,147.72,212.36,144.35,209.59,142.67Z" style="fill:#407BFF"></path><path d="M285.84,248.69a3.76,3.76,0,0,0-1.77-.58c-.41,0-1.35,1.25-2.08,2.7a16.1,16.1,0,0,0-1.34,6.11,10.07,10.07,0,0,0,1,4.83,1.52,1.52,0,0,0,2.08.51c.57-.45,1.5-3.56,2.07-6.89S286.42,249,285.84,248.69Z" style="fill:#407BFF"></path><path d="M238.18,171.43a5.75,5.75,0,0,0,3.14-.44c.91-.43,1.65-2.37,1.65-4.32s-.54-3.54-1.2-3.52-1.4.87-1.64,1.9a2.81,2.81,0,0,1-1.95,2.09,2.08,2.08,0,0,0-1.5,2.09A2.26,2.26,0,0,0,238.18,171.43Z" style="fill:#407BFF"></path><path d="M344,250.45a12.3,12.3,0,0,0,1.79-5.55,16.58,16.58,0,0,0-1.79-6.2c-1-1.93-2.23-3.66-2.77-3.79s-1,.46-1,1.33a1.4,1.4,0,0,1-1.25,1.55,3.22,3.22,0,0,1-2-.78c-.38-.41-1.77-.36-3.08.13a8.33,8.33,0,0,0-3.67,2.94,15.78,15.78,0,0,1-3.68,3.78c-1.33.94-2.29,3.76-2.14,6.25s1.31,4.27,2.56,4l4.25-1.08a5.18,5.18,0,0,1,3.24.17,10.51,10.51,0,0,0,4.48.44A7.58,7.58,0,0,0,344,250.45Z" style="fill:#407BFF"></path><path d="M344.67,203.19c.61,0,1.91-1.36,2.89-3a12.09,12.09,0,0,0,1.23-6.79c-.3-2.11-1.1-4.24-1.78-4.72a2.62,2.62,0,0,0-2.34-.36c-.61.29-.79,1.4-.42,2.45s0,3.5-.82,5.51-1.15,4.43-.69,5.31A2.91,2.91,0,0,0,344.67,203.19Z" style="fill:#407BFF"></path><path d="M349.61,246.83c-.45.81-1.19,2.22-1.64,3.12a32.5,32.5,0,0,1-3.44,4.64c-1.44,1.66-2.38,3.6-2.07,4.27s1.55.82,2.76.33,2.63-2.41,3.16-4.25a17.23,17.23,0,0,1,2.73-5.44c1-1.15,1.21-2.53.54-3.09A1.3,1.3,0,0,0,349.61,246.83Z" style="fill:#407BFF"></path><g style="opacity:0.7000000000000001"><path d="M250,88.05A120.59,120.59,0,1,0,370.59,208.64,120.59,120.59,0,0,0,250,88.05Zm0,231.15A110.65,110.65,0,0,1,143.08,180.37a3.19,3.19,0,0,0,1.91-2c.15-.89,2-2,4.06-2.45s4.38-.06,5.07.84a6.57,6.57,0,0,1,1,4.07,3.42,3.42,0,0,1-1.79,2.84c-.83.24-1.74,2.91-2,5.92,0,.33,0,.49-.07.82-.28,3,.66,6.4,2.09,7.64s2.24,3.15,1.79,4.17,1.4,2.31,4.15,3,5,1.57,5,2,.88,1,2,1.34a3.62,3.62,0,0,1,2.25,2.75c.15,1.17.92,1.74,1.69,1.26a1.85,1.85,0,0,1,2.27.06,3.34,3.34,0,0,1,.29,2.81,3.17,3.17,0,0,1-1.71,2.09c-.62.13-1.13,1.41-1.13,2.85s1.21,3.88,2.69,5.47,2.32,4.11,1.85,5.52.49,3.58,2.14,4.86,3,5.26,3,8.82v7c0,3.56.65,7.13,1.44,7.94a5.5,5.5,0,0,1,1,4.15c-.24,1.46,1.12,4,3,5.69s3.86,1.87,4.34.41a4,4,0,0,0-.87-4.06c-.95-.77-1.67-3.92-1.59-7a14.43,14.43,0,0,1,4.56-9.29c1.46-1.24,2.19-1.87,3.66-3.16,2.44-2.16,4.19-5.83,3.87-8.06a9.48,9.48,0,0,1,1.9-6.81c1.38-1.53,1.31-5.26-.14-8.21s-4.16-5.6-6-5.94-3.35-1.46-3.35-2.49a2,2,0,0,0-2-1.9,5.67,5.67,0,0,1-3.62-2.06c-.87-1.11-4.19-2-7.35-2H177c-3.15,0-5.78-.81-5.85-1.74a3.08,3.08,0,0,0-2.27-2.28,2.72,2.72,0,0,1-2.11-2.22,2.8,2.8,0,0,0-1.83-2.33c-1-.36-1.38-1.66-.84-2.92a7.84,7.84,0,0,1,3.94-3.43c1.62-.64,3.54-.38,4.24.6s1.66,1.76,2.13,1.73.86-1,.86-2.26,2.17-3.89,4.86-6l.29-.23c2.68-2.14,4.7-5.13,4.46-6.55s2.15-2.57,5.34-2.48l.9,0c3.19.1,5.82-1.87,5.82-4.43s-.59-4.59-1.32-4.5-1.84-1-2.48-2.41-2.86-1.9-4.94-1.11-4.08,1.95-4.48,2.56-1.69.74-2.87.33-.87-1.85.71-3.22a13.73,13.73,0,0,0,3.75-6c.48-1.91-1.74-3.2-4.9-2.76l-2.29.32c-3.15.47-6.34,2-7.12,3.31s-3.95,2.65-7,3.1a148.42,148.42,0,0,0-16.66,3.24,110.61,110.61,0,0,1,207,4.36c-2.65-.7-5.26-2-6.07-3.19s-4.09-3.7-7.1-5.2L338,161.92a33.15,33.15,0,0,0-11.12-3l-1.32-.05c-3.08-.09-7-1.83-8.64-4a17.34,17.34,0,0,0-8.86-5.29c-3.82-.8-5.74-1.17-9.6-1.83-3.24-.56-7-.24-8.27.66s-2.37,2.39-2.37,3.28-1.4,1.94-3.11,2.35-3.32.27-3.56-.36-2.32-1.31-4.62-1.5-4.84-.36-5.66-.41a34.47,34.47,0,0,1-6.73-2.6c-2.88-1.35-6.92-1.47-9-.27a13.3,13.3,0,0,0-5.1,6.69c-.74,2.46-.87,5.58-.3,6.91a4.09,4.09,0,0,0,3.3,2.44,2.77,2.77,0,0,0,2.7-1.84,4.19,4.19,0,0,1,2.09-2.57c.91-.4,1.79,1.39,1.95,3.95a7,7,0,0,1-3.89,6.47c-2.31,1-4.4.66-4.65-.78a3.69,3.69,0,0,0-2.4-3c-1.07-.2-1.94,1-1.94,2.62a4.46,4.46,0,0,1-2.55,3.95,7.6,7.6,0,0,0-3.6,3,5.5,5.5,0,0,0-.3,3.92c.42,1-.32,1.87-1.64,1.89s-2.13,1.79-1.8,3.94,1.68,3.88,3,3.87a3,3,0,0,0,2.84-2.07,2.58,2.58,0,0,1,2.7-1.89,6.42,6.42,0,0,0,3.74-.94c.83-.62,2.18-.12,3,1.12a6,6,0,0,1,.9,4.3c-.33,1.13.28,1.55,1.35.94s1.54-2.54,1.05-4.29-.5-3.43,0-3.74,1.84,1,3,2.83,3.11,2.88,4.34,2.28,3.12.11,4.19,1.55a7.73,7.73,0,0,1,1.5,5c-.25,1.32-2.67,3-5.39,3.85s-6.22.79-7.78,0a8.87,8.87,0,0,1-3.75-3.93c-.49-1.33-2.79-2.51-5.09-2.61s-6.31,2-8.89,4.54l-2.59,2.59c-2.58,2.58-4.89,6.59-5.13,8.93s-.86,4.58-1.35,5-.89,2.56-.89,4.79,1.61,5.75,3.58,7.82a14.46,14.46,0,0,0,9,3.86c3,0,6.26.72,7.34,1.55s2,3.18,2.09,5.24,1.16,4.32,2.4,5,1.94,4.65,1.55,8.75c0,.47-.06.7-.11,1.17-.38,4.1,0,8.8,1,10.43a22.54,22.54,0,0,1,1.95,7.81c.16,2.66,2.11,5.22,4.34,5.65s5.86-1.54,8.07-4.33,4-7.65,3.89-10.79,1.12-7,2.68-8.64,2.9-6,3-9.7,1.42-8.47,3-10.54,2.62-5,2.38-6.45-2.12-3.22-4.16-3.88-3.79-2.52-3.87-4.14a10.69,10.69,0,0,0-1.64-4.95,8.85,8.85,0,0,1-1.34-5c.08-1.63.62-2.95,1.19-2.95s2.18,1.92,3.58,4.23,2.46,5.26,2.38,6.56.45,2.61,1.19,2.9,3.2-.91,5.49-2.63,2.74-5.66,1-8.82-1.91-5.86-.44-5.94a3.22,3.22,0,0,1,3.25,2,13.27,13.27,0,0,0,3.69,4.83,29.32,29.32,0,0,0,5.3,3.66c1.21.57,2.06,2.66,1.9,4.67s1.62,5.7,3.95,8.11,5.12,1.38,6.23-2.15l1.2-3.84c1.1-3.5,3-6.1,4.31-5.86s3,2.62,3.88,5.23a21.48,21.48,0,0,0,3.15,6.35c.86.88,1.5.19,1.42-1.53s.18-3.16.57-3.18a2.48,2.48,0,0,1,1.56,1c.47.57,1.94.25,3.26-.68s2.33-4.17,2.26-7.23.8-5.84,2-6.15a4.86,4.86,0,0,0,2.8-3.33,7.08,7.08,0,0,0-1.4-5.36c-1.15-1.45-1.53-3.71-.84-4.95s1.77-2.17,2.38-2.09,2.18-2.13,3.47-4.78c1-2.07,1.51-3.08,2.51-5.07,1.29-2.53,2.95-4,3.7-3.35a4.85,4.85,0,0,1,1.37,3.31,4.21,4.21,0,0,0,1.36,3.1c.75.53,2.1-.44,3-2.07a8.48,8.48,0,0,1,3-2.86A110.63,110.63,0,0,1,250,319.2Z" style="fill:#fff"></path><path d="M209.59,142.67l-.29-.18c-2.77-1.67-7.57-1.59-10.68.1-1.92,1-2.89,1.58-4.8,2.65-3.09,1.72-5.61,4-5.61,5a13.63,13.63,0,0,0,1.31,4.59,9,9,0,0,1,.72,5.08c-.32,1.26.73,2.36,2.33,2.48a8.42,8.42,0,0,1,5.11,3,10.84,10.84,0,0,0,4,3.33c1,.28,2.75-1.73,4-4.49a18.84,18.84,0,0,1,6.35-7.49,7.14,7.14,0,0,0,3.41-6.69C215,147.72,212.36,144.35,209.59,142.67Z" style="fill:#fff"></path><path d="M285.84,248.69a3.76,3.76,0,0,0-1.77-.58c-.41,0-1.35,1.25-2.08,2.7a16.1,16.1,0,0,0-1.34,6.11,10.07,10.07,0,0,0,1,4.83,1.52,1.52,0,0,0,2.08.51c.57-.45,1.5-3.56,2.07-6.89S286.42,249,285.84,248.69Z" style="fill:#fff"></path><path d="M238.18,171.43a5.75,5.75,0,0,0,3.14-.44c.91-.43,1.65-2.37,1.65-4.32s-.54-3.54-1.2-3.52-1.4.87-1.64,1.9a2.81,2.81,0,0,1-1.95,2.09,2.08,2.08,0,0,0-1.5,2.09A2.26,2.26,0,0,0,238.18,171.43Z" style="fill:#fff"></path><path d="M344,250.45a12.3,12.3,0,0,0,1.79-5.55,16.58,16.58,0,0,0-1.79-6.2c-1-1.93-2.23-3.66-2.77-3.79s-1,.46-1,1.33a1.4,1.4,0,0,1-1.25,1.55,3.22,3.22,0,0,1-2-.78c-.38-.41-1.77-.36-3.08.13a8.33,8.33,0,0,0-3.67,2.94,15.78,15.78,0,0,1-3.68,3.78c-1.33.94-2.29,3.76-2.14,6.25s1.31,4.27,2.56,4l4.25-1.08a5.18,5.18,0,0,1,3.24.17,10.51,10.51,0,0,0,4.48.44A7.58,7.58,0,0,0,344,250.45Z" style="fill:#fff"></path><path d="M344.67,203.19c.61,0,1.91-1.36,2.89-3a12.09,12.09,0,0,0,1.23-6.79c-.3-2.11-1.1-4.24-1.78-4.72a2.62,2.62,0,0,0-2.34-.36c-.61.29-.79,1.4-.42,2.45s0,3.5-.82,5.51-1.15,4.43-.69,5.31A2.91,2.91,0,0,0,344.67,203.19Z" style="fill:#fff"></path><path d="M349.61,246.83c-.45.81-1.19,2.22-1.64,3.12a32.5,32.5,0,0,1-3.44,4.64c-1.44,1.66-2.38,3.6-2.07,4.27s1.55.82,2.76.33,2.63-2.41,3.16-4.25a17.23,17.23,0,0,1,2.73-5.44c1-1.15,1.21-2.53.54-3.09A1.3,1.3,0,0,0,349.61,246.83Z" style="fill:#fff"></path></g></g><g id="character-2"><polygon points="269.59 390.62 270.64 404.63 264.42 404.63 261.36 391.12 269.59 390.62" style="fill:#b55b52"></polygon><path d="M270.91,403.86h-7.64a.57.57,0,0,0-.58.56l-1.33,7.35a1.45,1.45,0,0,0,1.15,1.39l.25,0c3.15-.11,5.93-.33,9.87-.4,4.64-.07,3.57.5,9,.49,3.3,0,3.18-3.78,1.75-3.94-6.54-.69-7.58-2.61-10.48-4.86A3.29,3.29,0,0,0,270.91,403.86Z" style="fill:#263238"></path><path d="M261,261.49l10.78,140.19-9.21.46s-9.28-33-11-53.1c-.12-1.39-.2-2.71-.24-4a99.07,99.07,0,0,0-2-17.43l-.43-2-6-28.16s-9.13-15.29-3.95-36.63Z" style="fill:#263238"></path><path d="M246,312.36c3.05-15.35,1.52-33.57,1.52-33.57L243,280.6l-3,8.48s0,.68,0,1.81a37.4,37.4,0,0,0,2.83,6.59Z" style="opacity:0.4"></path><polygon points="227.45 390.62 225.4 404.63 219.18 404.63 219.21 391.12 227.45 390.62" style="fill:#b55b52"></polygon><path d="M225.92,403.86h-7.63a.57.57,0,0,0-.58.56l-1.34,7.35a1.45,1.45,0,0,0,1.16,1.39,1.07,1.07,0,0,0,.25,0c3.15-.11,5.93-.33,9.86-.4,4.65-.07,3.58.5,9.05.49,3.3,0,3.17-3.78,1.74-3.94-6.54-.69-7.57-2.61-10.48-4.86A3.27,3.27,0,0,0,225.92,403.86Z" style="fill:#263238"></path><path d="M252.34,261.49l-9.68,45.84-15.29,94.58-9.17-.4s-2-30.49.73-50.79c.22-1.6.47-3.14.75-4.6a103.49,103.49,0,0,0,2-20.55l0-2-.28-26.1s-1.9-19.8,3.37-36.63Z" style="fill:#263238"></path><path d="M261,261.49l-22.11-.64c0,.11-.05.22-.07.33l-14.08-.33a82.38,82.38,0,0,0-3.17,16.54l20.25,2.88a4.62,4.62,0,0,0,5.11-3.34l2-7.33,2,7.3A4.36,4.36,0,0,0,256,280l6.31-1.29Z" style="opacity:0.4"></path><path d="M288.74,229.86l5.72.29a29.79,29.79,0,0,1,3.64-1.48c1-.22,3.22-.76,4.08-.21a5.47,5.47,0,0,1,1.64,4.11c-.29,1.41-2.64,3.83-4.06,4.12s-5.69-2.31-5.69-2.31l-5.85-.06Z" style="fill:#b55b52"></path><polygon points="287.62 229.02 292.5 229.61 291.16 234.93 286.28 234.87 287.62 229.02" style="fill:#407BFF"></polygon><polygon points="287.62 229.02 292.5 229.61 291.16 234.93 286.28 234.87 287.62 229.02" style="fill:#fff;opacity:0.8"></polygon><path d="M255.92,189.91s4.27,2,10.73,20.22c5.67,16,23.2,18.62,23.2,18.62l-1.5,6.73s-24,.41-28.4-17.82S255.92,189.91,255.92,189.91Z" style="fill:#263238"></path><path d="M260,217.66a19.76,19.76,0,0,0,4.21,8.37,118.46,118.46,0,0,0-3.32-23.82l-3.19.84-.22,2.39C258,208.94,258.83,213,260,217.66Z" style="opacity:0.4"></path><path d="M221.38,240l-2.12,34.17,22.54,3.2a4.62,4.62,0,0,0,5.11-3.34l2-7.33,2,7.3a4.35,4.35,0,0,0,5.08,3.12l8.56-1.74L263,240s1.24-32.16-3.58-45.77a8.42,8.42,0,0,0-6-5.4A60,60,0,0,0,218,191.54a3.4,3.4,0,0,0-2.13,3.57Z" style="fill:#263238"></path><path d="M220.44,232.4h0a109.16,109.16,0,0,0-.3-34.45l-2.12.42L217,204.22Z" style="opacity:0.4"></path><path d="M217.52,260.7l1.4,6.64a36.57,36.57,0,0,1,3.1,3.78c.61,1.08,2,3.49,1.55,4.63s-3.44,2.94-4.95,3c-2,.06-5.91-2-6.74-3.54s1.3-7.16,1.3-7.16l-1.75-6.72Z" style="fill:#b55b52"></path><polygon points="218.14 257.26 219.34 264.82 211.47 266.12 209.59 258.46 218.14 257.26" style="fill:#407BFF"></polygon><polygon points="218.14 257.26 219.34 264.82 211.47 266.12 209.59 258.46 218.14 257.26" style="fill:#fff;opacity:0.8"></polygon><path d="M210,263.84S205.43,251,206.39,230s7.42-41.74,14-37.72S219,220,218.31,230.78s1,31.59,1,31.59Z" style="fill:#263238"></path><circle cx="245.43" cy="224.09" r="0.94" style="fill:#407BFF"></circle><path d="M248.86,244.16a.95.95,0,0,1-1.89,0,.95.95,0,1,1,1.89,0Z" style="fill:#407BFF"></path><circle cx="248.86" cy="262.55" r="0.94" style="fill:#407BFF"></circle><rect x="251.14" y="209.76" width="7.35" height="4.44" style="fill:#407BFF"></rect><rect x="251.14" y="211.21" width="7.35" height="2.99" style="fill:#fff;opacity:0.4"></rect><rect x="251.14" y="212.58" width="7.35" height="1.62" style="fill:#fff;opacity:0.4"></rect><path d="M231.2,186.94a19.93,19.93,0,0,1,11.29-.78l2.32,1.31.81,2.58-2.93,2.3-6.93.71L230,190.69l.32-2.54Z" style="fill:#263238"></path><path d="M243.64,188.27a7.64,7.64,0,0,1-1.7-6.56l-10.37-8.4c1.19,9,1.29,11.62-.8,15.65,0,0,3.75,4,9,3.07S243.64,188.27,243.64,188.27Z" style="fill:#b55b52"></path><path d="M241.94,181.71l-10.37-8.4c.27,2,.48,3.73.62,5.2A11.07,11.07,0,0,0,242,185,7.05,7.05,0,0,1,241.94,181.71Z" style="opacity:0.2"></path><path d="M238.17,155.53s3.69-3.46,6.09-2.4-2.31,1.76-2.31,1.76,8.38-.77,5.41,6.79Z" style="fill:#263238"></path><path d="M229.83,166.68c1.46,6.7,2,10.69,5.94,13.62,5.95,4.43,13.81,0,14.37-7,.5-6.33-2-16.19-9-17.85a9.33,9.33,0,0,0-11.29,11.2Z" style="fill:#b55b52"></path><path d="M240.71,167c.09.55.45.95.81.89s.58-.54.49-1.1-.45-.94-.81-.89S240.62,166.44,240.71,167Z" style="fill:#263238"></path><path d="M246.93,166c.09.55.44.95.81.89s.58-.55.49-1.09-.45-1-.81-.9S246.84,165.47,246.93,166Z" style="fill:#263238"></path><path d="M244.65,166.59a20,20,0,0,0,3.37,4.29,3.26,3.26,0,0,1-2.56.91Z" style="fill:#a02724"></path><path d="M238.17,164.74a.49.49,0,0,1-.17,0,.34.34,0,0,1-.13-.44,3.28,3.28,0,0,1,2.42-1.75.33.33,0,1,1,.06.66h0a2.57,2.57,0,0,0-1.9,1.4A.34.34,0,0,1,238.17,164.74Z" style="fill:#263238"></path><path d="M249,163.13a.31.31,0,0,1-.28-.14,2.62,2.62,0,0,0-2-1.18.32.32,0,0,1-.34-.31.34.34,0,0,1,.32-.34,3.26,3.26,0,0,1,2.61,1.46.33.33,0,0,1-.07.45h0A.25.25,0,0,1,249,163.13Z" style="fill:#263238"></path><path d="M251.77,173.31c-.59-.21-.9,1.34-2.47-.28a3.3,3.3,0,0,0-3.68-.57c-1.4-.94-3.36.14-5,.56s-2.37.3-3.07,0c-2.74-1.19-2.85-1.29-3.23-2.19-1-2.35-2.79-7.62-1.37-10.09,0,0,10.94-3.82,5-8.45-1.5-1.16-11.26-5.25-5.95,1.58,0,0-8.72.49-3.86,2.91,0,0-6.53,2.5-2.3,4.82,0,0-3.39,3.25,3.72,9.2l2.73.38.61.15-1,3.74c.42,3.09,4,5.79,4,5.79,1,1.95,2.09,1.22,2.09,1.22a2,2,0,0,0,3,.49c1.24,2.42,3.23-.49,3.23-.49.47,1.83,3.26-2.07,3.26-2.07.79,1.47,2.62-4.65,2.62-4.65C251.62,175.07,252.38,173.53,251.77,173.31Z" style="fill:#263238"></path><path d="M227.51,173.5a6.54,6.54,0,0,0,4.45,2.22c2.28.13,2.95-2,1.91-3.92-.93-1.71-3.23-3.85-5.33-3.1A2.92,2.92,0,0,0,227.51,173.5Z" style="fill:#b55b52"></path><path d="M247.59,174a39.57,39.57,0,0,0-6.67-.18c.65,1.32,1.79,2.37,4.3,2.28S247.59,174,247.59,174Z" style="fill:#263238"></path><path d="M244,175.09a5,5,0,0,1,2.77.57,2.79,2.79,0,0,1-1.54.44,5,5,0,0,1-2.77-.57A2.81,2.81,0,0,1,244,175.09Z" style="fill:#ff5652"></path><path d="M247.36,174a.91.91,0,0,1-.72.68,28.69,28.69,0,0,1-4.35-.21,1.43,1.43,0,0,1-1.15-.62A46.11,46.11,0,0,1,247.36,174Z" style="fill:#fff"></path><polygon points="230.62 195.68 233.37 204.65 239.78 213.91 245.04 219.38 247.01 211.36 246.37 194.63 246.27 191.03 244.8 188.96 242.46 191.01 240.47 191.78 237.56 191.8 229.9 189.47 230.62 195.68" style="fill:#407BFF"></polygon><polygon points="230.62 195.68 233.37 204.65 239.78 213.91 245.04 219.38 247.01 211.36 246.37 194.63 246.27 191.03 244.8 188.96 242.46 191.01 240.47 191.78 237.56 191.8 229.9 189.47 230.62 195.68" style="fill:#fff;opacity:0.8"></polygon><path d="M236.8,194.63a12.33,12.33,0,0,0,3,3.82s-1.28,9.15.69,15.56l4.57,5.37,1.33-6.64s-2-10.64-4.78-14.66a17,17,0,0,0,1.52-4.38l-1.64-1.35s-2.28,1.63-3.64.5Z" style="fill:#407BFF"></path><path d="M230.44,187.77s4.22,3.6,8.47,3.6,4.71-4.43,4.71-4.43l1.79,1.93a12.71,12.71,0,0,1-1.46,6.46l-4.43-3-3,4.32s-4.7-2.26-7-6.31Z" style="fill:#407BFF"></path><path d="M230.44,187.77s4.22,3.6,8.47,3.6,4.71-4.43,4.71-4.43l1.79,1.93a12.71,12.71,0,0,1-1.46,6.46l-4.43-3-3,4.32s-4.7-2.26-7-6.31Z" style="fill:#fff;opacity:0.5"></path><path d="M231.2,186.94s-3.46,10.68,13.6,31.06c0,0,3.06-25-2.31-31.84l3.73,1.47,3.89,5.87-2.85,1.83,3.52,1.57s-.5,8.09-5.45,23.65c0,0-11.22-8.67-18.55-20.38l3.41-2.72-4.56-.72,2-8.11Z" style="fill:#263238"></path><path d="M231.2,186.94s-3.46,10.68,13.6,31.06c0,0,3.06-25-2.31-31.84l3.73,1.47,3.89,5.87-2.85,1.83,3.52,1.57s-.5,8.09-5.45,23.65c0,0-11.22-8.67-18.55-20.38l3.41-2.72-4.56-.72,2-8.11Z" style="opacity:0.30000000000000004"></path></g><g id="character-3"><path d="M327.57,157s-6.21-6.6-2.45-8,5.64-5.56,6.9-2.73.16,7.55,1.13,7.76-.63-9.26,2-8.72,2.85,1.48,6.7,2.32-4.64,7.28-3.7,8.15,7-6.26,7.44-3.12,3.78,4.72,2.31,6.09-9.12,1.74-9.12,1.74L330,156.68Z" style="fill:#407BFF"></path><path d="M327.58,154.59c-1.25.4-2.77-1.67-3.39-2.62a18.91,18.91,0,0,0,3.38,5l2.43-.29,8.73,3.82a55.31,55.31,0,0,0,6-.66c-2.75.26-5.16-1.13-2.58-1.45s2.42-1.31,1.67-2.81-3.06,1.79-3.65,1,2.28-3.47,2.33-3.51c-1.82,1.32-3.86,3.21-4.37,2.74s2.28-3.07,3.8-5.19l0,0c-1.35,1.9-4.13,3.59-4.94,2.93s.95-1.9,1.62-3.23-.74-1.82-2.41-2.47.06,4.82-1.4,4.6-1-5.31-1-5.34c-.44,2.61.11,7.05-.55,6.91-.84-.18-.13-3.74-.74-6.53,0,.09.31,5.62-1.37,6.06s-1.93-4.53-3.93-2.85S329.19,154.08,327.58,154.59Z" style="opacity:0.1"></path><path d="M339.5,188.66a.9.9,0,0,1-1.23-.66c-1.27-4.65.3-11.65,1.33-15.69l-11.44,8c.61,2.69.81,6-.74,8.26a2.7,2.7,0,0,1-2.07,1.11l-1.13.11s-.3,5.11,6.42,5.11S339.5,188.66,339.5,188.66Z" style="fill:#71403e"></path><path d="M328.53,185.29c7.85,1.45,10.17-9.13,10.17-9.13l-.15-1-1.37.83-8.87,5.15A14.07,14.07,0,0,1,328.53,185.29Z" style="opacity:0.2"></path><path d="M341.12,167.55c-1.53,6.43-2.11,10.27-6,13-5.82,4.11-13.32-.35-13.73-7.12-.38-6.1,2.2-15.59,9-17a9.1,9.1,0,0,1,10.69,11.14Z" style="fill:#71403e"></path><path d="M327.11,165.81a18.86,18.86,0,0,1-3.32,4.06,3.09,3.09,0,0,0,2.44.94Z" style="fill:#561616"></path><path d="M333.26,165a.19.19,0,0,0,.15,0,.28.28,0,0,0,.13-.38v0a2.84,2.84,0,0,0-2.18-1.56.28.28,0,0,0-.31.26h0a.28.28,0,0,0,.26.31h0a2.27,2.27,0,0,1,1.7,1.22A.28.28,0,0,0,333.26,165Z" style="fill:#2e353a"></path><path d="M323.51,163.55a.31.31,0,0,0,.25-.13,2.46,2.46,0,0,1,1.88-1.1.28.28,0,0,0,.24-.34.3.3,0,0,0-.24-.24h0a3,3,0,0,0-2.35,1.35.28.28,0,0,0,.06.4h0A.22.22,0,0,0,323.51,163.55Z" style="fill:#2e353a"></path><path d="M343.09,174.48a6.26,6.26,0,0,1-4.19,2.33c-2.19.23-2.94-1.82-2-3.7.81-1.7,2.93-3.85,5-3.21A2.83,2.83,0,0,1,343.09,174.48Z" style="fill:#71403e"></path><path d="M329.49,156a2.68,2.68,0,0,1,2.81-.4s.59-.84,2.87.4,6.95,4.06,7,5.76c0,0,1.36,1.73-.05,2.88,0,0-5.1-1.84-7-3.45s-4.74-4.76-4.74-4.76Z" style="fill:#407BFF"></path><path d="M329.49,156a2.68,2.68,0,0,1,2.81-.4s.59-.84,2.87.4,6.95,4.06,7,5.76c0,0,1.36,1.73-.05,2.88,0,0-5.1-1.84-7-3.45s-4.74-4.76-4.74-4.76Z" style="opacity:0.2"></path><path d="M340.35,170.82s-7.8-6.53-9.87-13.06c0,0-2.44-1.27-6.86,4.55,0,0-.54-3.19,1.39-4.06a3.74,3.74,0,0,1,3.16-2.64,5.71,5.71,0,0,1,3.59.61l10.39,8.4a2.69,2.69,0,0,1,0,3.27S343.43,170,340.35,170.82Z" style="fill:#407BFF"></path><path d="M331.67,158.2s5.21,7.49,9.45,9.35C341.12,167.55,335.17,160.1,331.67,158.2Z" style="opacity:0.1"></path><path d="M326.21,172.11a5.16,5.16,0,0,1,5-.1,4.11,4.11,0,0,0,4.63-.25s-.64,2.35-2.74,2.15c0,0,0,6.91-1.75,4.91,0,0-.9,4.29-2.28,1.81,0,0-.49,3.36-2-.66,0,0-.93,2.3-1.66-2,0,0-1.05,3.28-1.54-3.52,0,0-1.14.46-1.58-1.14a1.56,1.56,0,0,0,1.86-1C324.64,171,326.21,172.11,326.21,172.11Z" style="fill:#263238"></path><path d="M326.21,172.11a5.16,5.16,0,0,1,5-.1,4.11,4.11,0,0,0,4.63-.25s-.64,2.35-2.74,2.15c0,0,0,6.91-1.75,4.91,0,0-.9,4.29-2.28,1.81,0,0-.49,3.36-2-.66,0,0-.93,2.3-1.66-2,0,0-1.05,3.28-1.54-3.52,0,0-1.14.46-1.58-1.14a1.56,1.56,0,0,0,1.86-1C324.64,171,326.21,172.11,326.21,172.11Z" style="fill:#fff;opacity:0.4"></path><path d="M324.87,174.13a40.68,40.68,0,0,1,6.89-.18c-.67,1.36-1.84,2.44-4.44,2.36S324.87,174.13,324.87,174.13Z" style="fill:#263238"></path><path d="M328.59,175.26a5.2,5.2,0,0,0-2.87.58,2.86,2.86,0,0,0,1.6.46,5.17,5.17,0,0,0,2.86-.59A2.88,2.88,0,0,0,328.59,175.26Z" style="fill:#ff5652"></path><path d="M325.11,174.1a1,1,0,0,0,.75.71,29.31,29.31,0,0,0,4.49-.23,1.45,1.45,0,0,0,1.18-.64A47.43,47.43,0,0,0,325.11,174.1Z" style="fill:#fff"></path><path d="M331.22,166.55c-.08.49-.42.85-.74.78s-.52-.47-.44-1,.42-.86.75-.78S331.3,166.06,331.22,166.55Z" style="fill:#2e353a"></path><path d="M325.6,165.8c-.08.49-.41.85-.74.78s-.52-.48-.44-1,.42-.85.75-.78S325.68,165.3,325.6,165.8Z" style="fill:#2e353a"></path><path d="M328.14,164.6a1.26,1.26,0,0,0-.62-.34,1.16,1.16,0,0,0-.69.11l-5.14-.91-.33,1.85a2.62,2.62,0,1,0,5.15.92l.16-.87h0a.65.65,0,0,1,.75-.52.65.65,0,0,1,.53.75h0l-.15.86a2.62,2.62,0,1,0,5.15.92l.33-1.86Zm-2.2,1.52a2,2,0,0,1-4-.7l.23-1.29,4,.71Zm6.44,1.14a2,2,0,0,1-4-.7l.23-1.29,4,.71Z" style="fill:#407BFF"></path><path d="M328.14,164.6a1.26,1.26,0,0,0-.62-.34,1.16,1.16,0,0,0-.69.11l-5.14-.91-.33,1.85a2.62,2.62,0,1,0,5.15.92l.16-.87h0a.65.65,0,0,1,.75-.52.65.65,0,0,1,.53.75h0l-.15.86a2.62,2.62,0,1,0,5.15.92l.33-1.86Zm-2.2,1.52a2,2,0,0,1-4-.7l.23-1.29,4,.71Zm6.44,1.14a2,2,0,0,1-4-.7l.23-1.29,4,.71Z" style="fill:#fff;opacity:0.6000000000000001"></path><path d="M337.34,168l-4.19-2.39-.29.51,6.09,3.47C338.49,169.11,337.94,168.58,337.34,168Z" style="fill:#407BFF"></path><path d="M337.34,168l-4.19-2.39-.29.51,6.09,3.47C338.49,169.11,337.94,168.58,337.34,168Z" style="fill:#fff;opacity:0.6000000000000001"></path><path d="M298.7,251.67l-2.53,5.4A31.21,31.21,0,0,0,293,259.7c-.69.81-2.28,2.6-2.19,3.66a5.73,5.73,0,0,0,3,3.52c1.45.42,4.82-.57,5.78-1.73s.65-6.37.65-6.37l2.8-5.41Z" style="fill:#71403e"></path><polygon points="298.99 248.61 296.4 254.85 301.92 257.49 305.03 251.3 298.99 248.61" style="fill:#407BFF"></polygon><polygon points="298.99 248.61 296.4 254.85 301.92 257.49 305.03 251.3 298.99 248.61" style="fill:#fff;opacity:0.8"></polygon><path d="M303.4,255.47a109.77,109.77,0,0,0,11.75-30.76c4-18.2,8.79-36.69,2.78-35.47-11,2.23-11.16,29-13.05,38.4s-8,24.76-8,24.76Z" style="fill:#263238"></path><path d="M303.4,255.47a109.77,109.77,0,0,0,11.75-30.76c4-18.2,9.79-36.37,3.69-35.75-11.89,1.2-12.07,29.31-14,38.68s-8,24.76-8,24.76Z" style="opacity:0.2"></path><polygon points="303.06 390.62 302.51 404.63 308.73 404.63 311.31 391.12 303.06 390.62" style="fill:#71403e"></polygon><path d="M302.21,403.86h7.64a.59.59,0,0,1,.6.56l1.58,7.35a1.38,1.38,0,0,1-1.1,1.39,1.07,1.07,0,0,1-.25,0c-3.16-.11-5.94-.33-9.88-.4-4.64-.07-3.55.5-9,.49-3.3,0-3.3-3.78-1.88-3.94,6.52-.69,7.48-2.61,10.31-4.86A3.2,3.2,0,0,1,302.21,403.86Z" style="fill:#263238"></path><path d="M307.17,261.49,301.51,400.4l9.22.45s7.91-31.74,8.92-51.81c.07-1.39.11-2.71.1-4a97.56,97.56,0,0,1,1.43-17.43l.36-2,5-28.16s8.6-15.29,2.67-36.63Z" style="fill:#407BFF"></path><path d="M323.91,312.36c-3.59-15.35-2.69-33.57-2.69-33.57l4.58,1.81,3.35,8.48s0,.68,0,1.81a35.71,35.71,0,0,1-2.6,6.59Z" style="opacity:0.2"></path><polygon points="301.14 398.32 301.05 401.57 310.83 402.16 311.71 398.95 301.14 398.32" style="fill:#407BFF"></polygon><polygon points="301.14 398.32 301.05 401.57 310.83 402.16 311.71 398.95 301.14 398.32" style="fill:#fff;opacity:0.4"></polygon><polygon points="342.17 390.62 344.21 404.63 350.43 404.63 350.4 391.12 342.17 390.62" style="fill:#71403e"></polygon><path d="M343.69,403.86h7.64a.57.57,0,0,1,.58.56l1.33,7.35a1.45,1.45,0,0,1-1.15,1.39,1.15,1.15,0,0,1-.26,0c-3.15-.11-5.92-.33-9.86-.4-4.64-.07-3.57.5-9,.49-3.3,0-3.18-3.78-1.75-3.94,6.54-.69,7.58-2.61,10.48-4.86A3.27,3.27,0,0,1,343.69,403.86Z" style="fill:#263238"></path><path d="M317.28,261.49s7.52,34.33,9.67,45.84c4.34,23.18,15.22,93.09,15.22,93.09l9.17-.4s2.1-29-.66-49.3c-.21-1.6-.46-3.14-.74-4.6a102,102,0,0,1-2-20.55s0-1.49,0-2c0-6.52-.07-19.58.27-26.1.49-9.18,1.91-19.8-3.37-36.63Z" style="fill:#407BFF"></path><polygon points="341.41 398.96 341.92 402.19 351.66 401.61 351.84 398.34 341.41 398.96" style="fill:#407BFF"></polygon><polygon points="341.41 398.96 341.92 402.19 351.66 401.61 351.84 398.34 341.41 398.96" style="fill:#fff;opacity:0.4"></polygon><path d="M308.24,260.17s5.12,5.51,12.88,1.44c0,0,4.19,3.14,16.57,0l6.5-71.28v-1.24h-4.86l-8.63,1.78-4.49-2.07-2.81-.56L313.79,202l-5.19,48.27Z" style="fill:#407BFF"></path><path d="M308.24,260.17s5.12,5.51,12.88,1.44c0,0,4.19,3.14,16.57,0l6.5-71.28v-1.24h-4.86l-8.63,1.78-4.49-2.07-2.81-.56L313.79,202l-5.19,48.27Z" style="fill:#fff;opacity:0.8"></path><path d="M327.19,192.6l.64,2.76.75,2.31s-8.81,17.42-9.37,51l2.61,2.66,4.74-3s-.35-19.2,4.07-50.34l1.19-1.38,1.93-2.76-.55-1.61a3,3,0,0,1-4.28-.49Z" style="fill:#407BFF"></path><path d="M322.86,215.71c-.05.21-.09.42-.14.63l5.6.7c0-.21.05-.43.07-.64Z" style="fill:#fff;opacity:0.8"></path><path d="M303.54,277.23s11.9,11.59,10.75-26.38c-1.53-50.19,11.17-63.1,11.17-63.1s-22.17-3.7-19.92,48.72C306,247,307.17,261.49,303.54,277.23Z" style="fill:#263238"></path><path d="M340.71,187.45s-6.87,19.75-6,51.94c.75,26.7-1.08,39.71,18.07,38.05a128.07,128.07,0,0,1-2.94-35.32C350.86,221.69,366.45,185,340.71,187.45Z" style="fill:#263238"></path><path d="M352,193.86c-1.12-1.51-3.54-1.21-4.64.46-2.32,3.52-6.09,8.07-8.67,28.46l-3.79.21c-.07,3-.2,12.76-.17,14.16a84.21,84.21,0,0,0,8.79-1.56C350.67,233.55,357.51,201.25,352,193.86Z" style="opacity:0.2"></path><path d="M305.4,253.94h5.2s.71,3.45-6.21,3.05Z" style="fill:#263238"></path><path d="M337.69,253.94l8.77-1.05s1.42,3-3.7,3.46S337.69,253.94,337.69,253.94Z" style="fill:#263238"></path><g style="opacity:0.1"><path d="M305.4,253.94h5.2s.71,3.45-6.21,3.05Z" style="fill:#fff"></path><path d="M337.69,253.94l8.77-1.05s1.42,3-3.7,3.46S337.69,253.94,337.69,253.94Z" style="fill:#fff"></path></g><polygon points="325.46 187.75 326.87 187.37 330.65 189.91 339.54 187.32 340.71 187.45 341.46 189.91 333.2 195.63 330.65 191.93 326.87 194.28 324.04 188.41 325.46 187.75" style="fill:#407BFF"></polygon><polygon points="325.46 187.75 326.87 187.37 330.65 189.91 339.54 187.32 340.71 187.45 341.46 189.91 333.2 195.63 330.65 191.93 326.87 194.28 324.04 188.41 325.46 187.75" style="fill:#fff;opacity:0.5"></polygon><path d="M340.71,187.45s-5.15,14.82-5.94,39.68c3.84-17.58,9.42-25.44,9.42-25.44l-3.95-2.43,3.95-2.83c-1.31-2.85-1.21-7.33-1.11-9.09C342.33,187.34,341.55,187.37,340.71,187.45Z" style="fill:#263238"></path><path d="M340.71,187.45s-5.15,14.82-5.94,39.68c3.84-17.58,9.42-25.44,9.42-25.44l-3.95-2.43,3.95-2.83c-1.31-2.85-1.21-7.33-1.11-9.09C342.33,187.34,341.55,187.37,340.71,187.45Z" style="fill:#fff;opacity:0.1"></path><path d="M313.47,229.63l-5.7.29a30.22,30.22,0,0,0-3.62-1.47c-1-.22-3.22-.76-4.07-.21a5.42,5.42,0,0,0-1.63,4.09,7.23,7.23,0,0,0,4,4.11c1.49.31,5.67-2.3,5.67-2.3l5.83-.06Z" style="fill:#71403e"></path><polygon points="318.25 227.96 311.09 228.8 312.11 234.69 318.83 234.69 318.25 227.96" style="fill:#407BFF"></polygon><polygon points="318.25 227.96 311.09 228.8 312.11 234.69 318.83 234.69 318.25 227.96" style="fill:#fff;opacity:0.8"></polygon><path d="M348.07,191.54c-2.22,3.38-5.84,13.37-8.31,32.91l-25.11,3.07.45,7.92s20.22.49,28-1.75c6.81-2,14.66-35.5,9.41-42.59C351.45,189.66,349.13,189.94,348.07,191.54Z" style="fill:#263238"></path><rect x="306.95" y="206.2" width="7.35" height="4.44" style="fill:#407BFF"></rect><rect x="306.95" y="207.64" width="7.35" height="2.99" style="fill:#fff;opacity:0.4"></rect><rect x="306.95" y="209.02" width="7.35" height="1.62" style="fill:#263238;opacity:0.4"></rect><path d="M311.22,208.42a.6.6,0,1,1-.6-.6A.6.6,0,0,1,311.22,208.42Z" style="fill:#fff;opacity:0.4"></path><path d="M322.87,187.81c-2,1.09-4.3,3.33-6.47,6.8l1.27,3.18-4.51,1.56a128.4,128.4,0,0,0,1.58,27.29c2.29-30.31,10.72-38.89,10.72-38.89A10.24,10.24,0,0,0,322.87,187.81Z" style="fill:#263238"></path><path d="M322.87,187.81c-2,1.09-4.3,3.33-6.47,6.8l1.27,3.18-4.51,1.56a128.4,128.4,0,0,0,1.58,27.29c2.29-30.31,10.72-38.89,10.72-38.89A10.24,10.24,0,0,0,322.87,187.81Z" style="fill:#fff;opacity:0.1"></path></g><g id="character-1"><path d="M161,200.7a16.87,16.87,0,0,1,9.08.55s1.74,4.21-2,4.4-7.1-3.62-7.1-3.62Z" style="fill:#407BFF"></path><path d="M156.09,175.41s10.35-11.9,18.34-4.1c0,0,6.21,5.72,4.95,11.63s-7.17,3.61-3.14,14.16c0,0-2.67,5.31-15.16,1.26l-3.25-5.21,1.72,5.21s-7.55-.89-7.49-8.41S148.83,175.33,156.09,175.41Z" style="fill:#263238"></path><path d="M160.07,203.14s2.4-.09,2.38-3.06a61.17,61.17,0,0,0-.51-6.57l7.12.63s-.95,8.76,2.31,9.2C171.37,203.34,168.52,207.71,160.07,203.14Z" style="fill:#ffb573"></path><path d="M169.06,194.14l-7.12-.63s.18,1.32.32,3a10.5,10.5,0,0,0,7,3.87A24.28,24.28,0,0,1,169.06,194.14Z" style="opacity:0.1"></path><path d="M157.37,183.94c.95,6.39,1.21,9.11,4.74,12.13,5.3,4.53,12.93,2,13.91-4.56.89-5.89-.81-15.34-7.31-17.35a8.8,8.8,0,0,0-11,5.74A8.92,8.92,0,0,0,157.37,183.94Z" style="fill:#ffb573"></path><path d="M156.29,189.15a4.72,4.72,0,0,0,2.51,2.59c1.52.64,2.49-.67,2.24-2.21s-1.28-3.41-2.89-3.4a2.12,2.12,0,0,0-2.05,2.21A2.09,2.09,0,0,0,156.29,189.15Z" style="fill:#ffb573"></path><path d="M171.67,185.42a14.23,14.23,0,0,0,2.15,3.18,2.3,2.3,0,0,1-1.83.52Z" style="fill:#ed893e"></path><path d="M164.65,182.51a.21.21,0,0,1-.13,0,.25.25,0,0,1-.05-.35h0a3,3,0,0,1,2.46-1.24.28.28,0,0,1,.24.28.26.26,0,0,1-.27.23,2.51,2.51,0,0,0-2,1A.26.26,0,0,1,164.65,182.51Z" style="fill:#263238"></path><path d="M175.73,181.65l-.12-.05a2.53,2.53,0,0,0-2.24-.4.25.25,0,0,1-.33-.14h0a.25.25,0,0,1,.15-.33,3,3,0,0,1,2.72.45.26.26,0,0,1,.07.36.26.26,0,0,1-.25.11Z" style="fill:#263238"></path><path d="M167.9,184.88c0,.52.36.91.71.89s.58-.48.53-1-.36-.92-.7-.89S167.86,184.35,167.9,184.88Z" style="fill:#263238"></path><path d="M173.81,184.37c.05.52.36.92.7.89s.58-.47.54-1-.36-.92-.7-.89S173.76,183.84,173.81,184.37Z" style="fill:#263238"></path><path d="M174.2,183.41l1.23-.47S174.86,184,174.2,183.41Z" style="fill:#263238"></path><path d="M168.29,183.92l1.23-.47S169,184.48,168.29,183.92Z" style="fill:#263238"></path><path d="M170.75,192.16a4.56,4.56,0,0,0,.9-.08.16.16,0,0,0,.13-.18h0a.16.16,0,0,0-.18-.13,4.27,4.27,0,0,1-3.71-1,.16.16,0,0,0-.24.22A4.46,4.46,0,0,0,170.75,192.16Z" style="fill:#263238"></path><path d="M159.55,174.77s4.63,2,3.89,6.66c0,0,4.6-2.9,9.58-1.28a8.88,8.88,0,0,0-3-4.53s5.61,4.18,6.44,6.89-.2-9.39-8-9.73A8.13,8.13,0,0,0,159.55,174.77Z" style="fill:#263238"></path><path d="M162.41,175.83s.83,2.14-.29,6.26-2.43,5,0,9.12-.39,4.78-.39,4.78,1.26-1.44-1.88-5a9,9,0,0,1-2.48-7.1s-1.55-3.15,1.58-7.71S162.41,175.83,162.41,175.83Z" style="fill:#263238"></path><path d="M158.8,191.74a6.26,6.26,0,0,1,3.54,5.79l-2.29-2.34-2.22-2Z" style="fill:#263238"></path><path d="M190.55,307.08c-.09,24.85-5,99.61-5,99.61h-7.08s-5.74-64.24-.5-85.17l-8.8-40.41,20.34,2.62S190.57,301.22,190.55,307.08Z" style="fill:#ffb573"></path><path d="M185.14,404.81h-6.87a.71.71,0,0,0-.65.51l-2.82,6.6a1,1,0,0,0,.73,1.25.83.83,0,0,0,.22,0c2.86-.1,5.4-.3,9-.36,4.19-.07,3.1.45,8,.44,3,0,3.69-3.39,2.44-3.54-5.72-.63-6.23-2.35-8.34-4.38A2.44,2.44,0,0,0,185.14,404.81Z" style="fill:#263238"></path><path d="M189.86,330.3H176.62c-.64,6.41-.85,14.27-.81,22.49a53.1,53.1,0,0,0,13.08-2.39C189.25,343.49,189.59,336.64,189.86,330.3Z" style="opacity:0.1"></path><path d="M164.56,308.86,152.2,407h-6.93s-1.32-65.3,5-85.6l.59-40.65,17.43,3Z" style="fill:#ffb573"></path><path d="M152,404.81H145.1a.64.64,0,0,0-.61.51l-2.36,6.6a1.05,1.05,0,0,0,.81,1.25.91.91,0,0,0,.23,0c2.84-.1,5.38-.3,8.92-.36,4.19-.07,3.14.45,8.06.44,3,0,3.45-3.39,2.19-3.54-5.77-.63-6.39-2.35-8.65-4.38A2.56,2.56,0,0,0,152,404.81Z" style="fill:#263238"></path><path d="M149.31,325.06c-1.41,6.34-2.35,15.2-3,24.78a45.18,45.18,0,0,0,12.81,2l3-24Z" style="opacity:0.1"></path><path d="M196.19,260.8a23.59,23.59,0,0,0,1.82,4.86l3.35,3.14.51,4.32-5.74,1.22-2.39-4L193.5,267a41.57,41.57,0,0,1-2-4.57Z" style="fill:#ffb573"></path><path d="M191.13,263.52C189,259,186,246.8,184.38,236.17c-2.69-17.46-5.78-30.35-2.07-29.06a47.79,47.79,0,0,1,7.3,18.2c1.7,9.19,4,27.19,7.08,35.88Z" style="fill:#407BFF"></path><path d="M191.13,263.52C189,259,186,246.8,184.38,236.17c-2.69-17.46-5.78-30.35-2.07-29.06a47.79,47.79,0,0,1,7.3,18.2c1.7,9.19,4,27.19,7.08,35.88Z" style="opacity:0.1"></path><path d="M181.31,217.27c.74,5,1.94,11.55,3.07,18.9.46,3,1,6.06,1.65,9.08a110,110,0,0,1,1.8-12.56c2-10.17-4.39-22.15-4.39-22.15h-.93l-1.1,2.17Z" style="opacity:0.1"></path><polygon points="158.93 202.67 160.92 202.03 166.12 205.65 168.02 205.65 169.62 204.94 171.48 203.08 173.34 203.84 174.66 208.95 174.66 210.51 175.23 212.39 176.87 218.71 178.1 226.87 178.1 233.01 177.64 239.61 175.9 236.17 171 227.01 166.92 215.46 165.73 211.43 162.61 208.15 160.18 204 158.93 202.67" style="fill:#407BFF"></polygon><polygon points="158.93 202.67 160.92 202.03 166.12 205.65 168.02 205.65 169.62 204.94 171.48 203.08 173.34 203.84 174.66 208.95 174.66 210.51 175.23 212.39 176.87 218.71 178.1 226.87 178.1 233.01 177.64 239.61 175.9 236.17 171 227.01 166.92 215.46 165.73 211.43 162.61 208.15 160.18 204 158.93 202.67" style="fill:#fff;opacity:0.8"></polygon><path d="M151,268.09s-3,8.94-4.08,34.07S143.42,347,143.42,347s29.72,7.7,47.65,0c0,0,3.59-44.5-2.89-78.89l-13-4.57Z" style="fill:#263238"></path><path d="M150,207.76l6.22,43.67s-3.85,6.6-7.15,20.21c0,0,19.15,6.37,24.74,3.58,1.79-.9,3.85-7,3.85-7s3.22,6.47,5.37,7c1.76.44,6.6-3,6.6-3s-2-11.49-4.78-21.48l1.34-19.21s2.75-5.43-2.41-20l-1.45-4.42a2.38,2.38,0,0,0-1.14-1.37,36.33,36.33,0,0,0-9.23-3.25s7,19.58,5.36,35.95c0,0-6.87-27.15-17.86-36.41a20.51,20.51,0,0,0-7.84,2.44A3.27,3.27,0,0,0,150,207.76Z" style="fill:#407BFF"></path><path d="M166.35,206.61s1.53-2.15,4.79-1.1a16.75,16.75,0,0,1,.34,4.49s3.05,4.26,6.62,20.35v3.12l-.46,6.14-1.74-3.44-1.74-5.82s-2.43-14.94-4.63-19.7Z" style="fill:#263238"></path><path d="M159.44,202,161,200.7s4.13,4.52,6.88,4.37,2.2-3.82,2.2-3.82l1.9,1.24.85.78-.21,4.88s-2.41-2.82-3.83-2.41-2.64,3.44-2.64,3.44S162.92,207.4,159.44,202Z" style="fill:#407BFF"></path><path d="M159.44,202,161,200.7s4.13,4.52,6.88,4.37,2.2-3.82,2.2-3.82l1.9,1.24.85.78-.21,4.88s-2.41-2.82-3.83-2.41-2.64,3.44-2.64,3.44S162.92,207.4,159.44,202Z" style="fill:#fff;opacity:0.5"></path><path d="M177.78,240.48s1.42-8.52,1.15-27.31l-3.7-2,2.32-.64a62.58,62.58,0,0,0-4-7.64c-.52-.14-1-.26-1.6-.38,0,0,7,19.58,5.36,35.95,0,0-6.87-27.15-17.86-36.41,0,0-.51,0-1.34.18a15.12,15.12,0,0,1,4.15,10.13h2.95l-2.4,2.2Z" style="fill:#407BFF"></path><path d="M177.78,240.48s1.42-8.52,1.15-27.31l-3.7-2,2.32-.64a62.58,62.58,0,0,0-4-7.64c-.52-.14-1-.26-1.6-.38,0,0,7,19.58,5.36,35.95,0,0-6.87-27.15-17.86-36.41,0,0-.51,0-1.34.18a15.12,15.12,0,0,1,4.15,10.13h2.95l-2.4,2.2Z" style="opacity:0.2"></path><path d="M152.07,222.42a98.42,98.42,0,0,0,3.05-14.66l-3.77-1.65-1.34.61a3,3,0,0,0,0,1Z" style="opacity:0.2"></path><rect x="157.64" y="218.3" width="6.91" height="4.18" transform="translate(-33.48 28.91) rotate(-9.29)" style="fill:#407BFF"></rect><rect x="157.64" y="218.3" width="6.91" height="4.18" transform="translate(-33.48 28.91) rotate(-9.29)" style="fill:#fff;opacity:0.7000000000000001"></rect><path d="M162.06,220.23a1,1,0,1,1-1.12-.81A1,1,0,0,1,162.06,220.23Z" style="fill:#407BFF"></path><path d="M176,247.87c.72-.83,0-5.35,0-5.35l-20.94,1,.73,5.14a39.87,39.87,0,0,0,11.94-.78S175.28,248.7,176,247.87Z" style="opacity:0.2"></path><path d="M164.18,247a42.23,42.23,0,0,0,5.63-.71l3.56.39h5.29v-6.36l-5.48-1.16-4,2.13a33,33,0,0,1-4.91.4Z" style="fill:#ffb573"></path><path d="M164.76,247.41c-8.2.52-22.47-.71-22.45-15.63,0-7.68,2.76-28.42,10.85-27.59s-3.56,9.2-3.56,26.53c0,9.93,9.27,10.28,15.23,10.22Z" style="fill:#407BFF"></path><path d="M164.76,247.41c-8.2.52-22.47-.71-22.45-15.63,0-7.68,2.76-28.42,10.85-27.59s-3.56,9.2-3.56,26.53c0,9.93,9.27,10.28,15.23,10.22Z" style="opacity:0.1"></path></g></svg>