<svg xmlns="http://www.w3.org/2000/svg" viewBox="0 0 500 500"><g id="background-complete"><rect y="382.4" width="500" height="0.25" style="fill:#ebebeb"></rect><rect x="416.78" y="398.49" width="33.12" height="0.25" style="fill:#ebebeb"></rect><rect x="322.53" y="401.21" width="8.69" height="0.25" style="fill:#ebebeb"></rect><rect x="396.59" y="389.21" width="19.19" height="0.25" style="fill:#ebebeb"></rect><rect x="52.46" y="390.89" width="43.19" height="0.25" style="fill:#ebebeb"></rect><rect x="104.56" y="390.89" width="6.33" height="0.25" style="fill:#ebebeb"></rect><rect x="131.47" y="395.11" width="93.68" height="0.25" style="fill:#ebebeb"></rect><path d="M237,337.8H43.91a5.71,5.71,0,0,1-5.7-5.71V60.66A5.71,5.71,0,0,1,43.91,55H237a5.71,5.71,0,0,1,5.71,5.71V332.09A5.71,5.71,0,0,1,237,337.8ZM43.91,55.2a5.46,5.46,0,0,0-5.45,5.46V332.09a5.46,5.46,0,0,0,5.45,5.46H237a5.47,5.47,0,0,0,5.46-5.46V60.66A5.47,5.47,0,0,0,237,55.2Z" style="fill:#ebebeb"></path><path d="M453.31,337.8H260.21a5.72,5.72,0,0,1-5.71-5.71V60.66A5.72,5.72,0,0,1,260.21,55h193.1A5.71,5.71,0,0,1,459,60.66V332.09A5.71,5.71,0,0,1,453.31,337.8ZM260.21,55.2a5.47,5.47,0,0,0-5.46,5.46V332.09a5.47,5.47,0,0,0,5.46,5.46h193.1a5.47,5.47,0,0,0,5.46-5.46V60.66a5.47,5.47,0,0,0-5.46-5.46Z" style="fill:#ebebeb"></path><path d="M395,149s1.1-7.27-4.2-11.93-4.84-7.44-3.33-7.8,2.92,4.3,5.25,5.58c0,0,.07-6.64-2.29-9.09s-3.62-8.75-1.36-8.86,2.48,3.74,2.95,6.48,3,6.58,3,6.58.49-6,2-8.39-2.55-8-1-10.49,4.37,2.21,4.14,7.45-3.73,10.84-2.92,16.32c0,0,1.55-3.84,2.93-4.19s2.79-2.9,3.72-3.84,2.1,2.32,0,5.35-7.46,11.14-6.65,17.69Z" style="fill:#e6e6e6"></path><path d="M391.87,145.73l-1.74,10.9A5.54,5.54,0,0,0,395.6,163h1.85a5.55,5.55,0,0,0,5.48-6.41l-1.74-10.9Z" style="fill:#e6e6e6"></path><rect x="295.38" y="159.02" width="122.75" height="6.31" style="fill:#e0e0e0"></rect><rect x="301.03" y="135.77" width="5.41" height="23.25" style="fill:#ebebeb"></rect><rect x="327.18" y="135.77" width="5.41" height="23.25" style="fill:#ebebeb"></rect><rect x="358.88" y="135.48" width="5.41" height="23.25" transform="matrix(0.99, -0.17, 0.17, 0.99, -19.73, 63.55)" style="fill:#ebebeb"></rect><rect x="307.73" y="138.84" width="5.41" height="20.18" style="fill:#ebebeb"></rect><rect x="320.16" y="138.84" width="5.41" height="20.18" style="fill:#ebebeb"></rect><rect x="351.54" y="138.84" width="5.41" height="20.18" style="fill:#ebebeb"></rect><rect x="336.54" y="138.49" width="5.41" height="20.18" transform="translate(-24.15 77.12) rotate(-12.53)" style="fill:#ebebeb"></rect><rect x="315.11" y="134.62" width="2.7" height="24.4" style="fill:#ebebeb"></rect><rect x="347.28" y="134.62" width="2.7" height="24.4" style="fill:#ebebeb"></rect><rect x="295.38" y="206.1" width="122.75" height="6.31" transform="translate(713.51 418.51) rotate(180)" style="fill:#e0e0e0"></rect><rect x="407.07" y="182.85" width="5.41" height="23.25" transform="translate(819.56 388.96) rotate(180)" style="fill:#ebebeb"></rect><rect x="380.92" y="182.85" width="5.41" height="23.25" transform="translate(767.26 388.96) rotate(180)" style="fill:#ebebeb"></rect><rect x="349.23" y="182.56" width="5.41" height="23.25" transform="translate(665.76 445.33) rotate(-170.22)" style="fill:#ebebeb"></rect><rect x="400.37" y="185.92" width="5.41" height="20.18" transform="translate(806.15 392.02) rotate(180)" style="fill:#ebebeb"></rect><rect x="387.94" y="185.92" width="5.41" height="20.18" transform="translate(781.29 392.02) rotate(180)" style="fill:#ebebeb"></rect><rect x="356.57" y="185.92" width="5.41" height="20.18" transform="translate(718.55 392.02) rotate(180)" style="fill:#ebebeb"></rect><rect x="371.57" y="185.57" width="5.41" height="20.18" transform="translate(697.2 467.85) rotate(-167.47)" style="fill:#ebebeb"></rect><rect x="395.7" y="181.7" width="2.7" height="24.4" transform="translate(794.1 387.8) rotate(180)" style="fill:#ebebeb"></rect><rect x="363.53" y="181.7" width="2.7" height="24.4" transform="translate(729.77 387.8) rotate(180)" style="fill:#ebebeb"></rect><rect x="307.16" y="187.7" width="26.35" height="18.19" transform="translate(640.67 393.6) rotate(180)" style="fill:#ebebeb"></rect><rect x="80.05" y="118.74" width="5.18" height="108.97" transform="translate(165.28 346.46) rotate(180)" style="fill:#e0e0e0"></rect><rect x="80.57" y="118.74" width="98.53" height="108.97" style="fill:#e0e0e0"></rect><rect x="80.05" y="118.74" width="102.19" height="108.97" style="fill:#f0f0f0"></rect><rect x="84.21" y="122.22" width="93.71" height="100.49" style="fill:#fff"></rect><rect x="175.21" y="122.22" width="2.71" height="100.49" style="fill:#e0e0e0"></rect><rect x="128.38" y="150.07" width="2.71" height="91.53" transform="translate(-66.1 325.57) rotate(-90)" style="fill:#e0e0e0"></rect><rect x="82.76" y="189.93" width="95.17" height="4.55" style="fill:#f0f0f0"></rect><path d="M194.45,266.37H107.2a17.14,17.14,0,0,0-17.14,17.14v68.13H211.59V283.51A17.14,17.14,0,0,0,194.45,266.37Z" style="fill:#e6e6e6"></path><path d="M237.38,316.87H221.77a10.18,10.18,0,0,0-10.18,10.18V383.4h36V327.05A10.19,10.19,0,0,0,237.38,316.87Z" style="fill:#e0e0e0"></path><path d="M237.38,316.87h-.33a10.18,10.18,0,0,0-10.18,10.18V383.4h20.7V327.05A10.19,10.19,0,0,0,237.38,316.87Z" style="fill:#ebebeb"></path><rect x="102.77" y="357.51" width="119.74" height="25.88" style="fill:#e6e6e6"></rect><rect x="96.85" y="333.84" width="136.19" height="27.15" rx="10.35" style="fill:#f5f5f5"></rect><rect x="97.04" y="333.84" width="35.03" height="27.15" rx="10.35" style="fill:#e0e0e0;isolation:isolate"></rect><path d="M105.85,316.87H90.23a10.18,10.18,0,0,0-10.18,10.18V383.4h36V327.05A10.18,10.18,0,0,0,105.85,316.87Z" style="fill:#e0e0e0"></path><path d="M105.85,316.87h-.33a10.19,10.19,0,0,0-10.19,10.18V383.4H116V327.05A10.18,10.18,0,0,0,105.85,316.87Z" style="fill:#f0f0f0"></path></g><g id="background-simple"><path d="M293.69,220.7c-67.78-17-89.36-160.54-191.3-80.24-72.31,57-31,192.17,58.77,174.79,54.34-10.52,46-11.36,91.45,13.71,46.06,25.4,97.05,37.67,147.56-9.64,26.14-24.48,37.26-83.25,12.8-113.14C382.38,168.8,335.1,231.08,293.69,220.7Z" style="fill:#407BFF"></path><path d="M293.69,220.7c-67.78-17-89.36-160.54-191.3-80.24-72.31,57-31,192.17,58.77,174.79,54.34-10.52,46-11.36,91.45,13.71,46.06,25.4,97.05,37.67,147.56-9.64,26.14-24.48,37.26-83.25,12.8-113.14C382.38,168.8,335.1,231.08,293.69,220.7Z" style="fill:#fff;opacity:0.9"></path></g><g id="Shadow"><ellipse id="path" cx="250" cy="416.24" rx="193.89" ry="11.32" style="fill:#f5f5f5"></ellipse></g><g id="Plant"><path d="M106.34,394.16s4.75-10.36-.68-20.58-7-12.62-3.54-14.72,5,8.18,5,8.18a23.07,23.07,0,0,0,.51-14.46c-2.41-7.39-3.92-19.43-.63-20.72s.63,15,3.48,20.58a47.7,47.7,0,0,0,2.79-12.13c.4-5.94-.22-15.42,2.38-17.85s4.26-.75,1.71,12.35a136.71,136.71,0,0,0-2.54,23.76s5.64-17.19,9.42-17.69,3.78,5.06.54,9.89-9.48,13.48-10.5,17.93c0,0,6.18-12.94,11.75-9s-4.85,11.77-9.49,14.6-7.86,20.51-7.86,20.51Z" style="fill:#407BFF"></path><path d="M106.34,394.16s4.75-10.36-.68-20.58-7-12.62-3.54-14.72,5,8.18,5,8.18a23.07,23.07,0,0,0,.51-14.46c-2.41-7.39-3.92-19.43-.63-20.72s.63,15,3.48,20.58a47.7,47.7,0,0,0,2.79-12.13c.4-5.94-.22-15.42,2.38-17.85s4.26-.75,1.71,12.35a136.71,136.71,0,0,0-2.54,23.76s5.64-17.19,9.42-17.69,3.78,5.06.54,9.89-9.48,13.48-10.5,17.93c0,0,6.18-12.94,11.75-9s-4.85,11.77-9.49,14.6-7.86,20.51-7.86,20.51Z" style="isolation:isolate;opacity:0.2"></path><path d="M110.09,398.41s-4.62-10.43.93-20.57,7.15-12.52,3.71-14.66-5.14,8.1-5.14,8.1a23.11,23.11,0,0,1-.34-14.46c2.5-7.36,4.15-19.38.88-20.72s-.81,15-3.73,20.53a48,48,0,0,1-2.64-12.17c-.32-5.94.4-15.41-2.16-17.88s-4.25-.81-1.86,12.33A136.55,136.55,0,0,1,102,362.69s-5.43-17.27-9.21-17.82-3.84,5-.66,9.88,9.32,13.62,10.3,18.08c0,0-6-13-11.65-9.14s4.7,11.84,9.31,14.74,7.61,20.63,7.61,20.63Z" style="fill:#407BFF"></path><polygon points="88.76 390.97 126.97 390.97 123.88 418.32 91.85 418.32 88.76 390.97" style="fill:#263238"></polygon></g><g id="Sign"><polygon points="360.31 413.22 355.89 413.22 355.89 176.63 351.14 176.63 351.14 413.22 346.72 413.22 343.72 418.32 351.14 418.32 355.89 418.32 363.31 418.32 360.31 413.22" style="fill:#263238"></polygon><circle cx="353.52" cy="174.69" r="35.64" transform="translate(102.28 478.61) rotate(-76.72)" style="fill:#407BFF"></circle><circle cx="353.51" cy="174.69" r="31.64" style="fill:#fff;opacity:0.8"></circle><path d="M357.63,168.38c0-2.26-1.93-3.79-5-3.79A7.6,7.6,0,0,0,346,167.7l-3.91-2.54c2.26-3.07,5.89-4.92,10.93-4.92,5.92,0,9.88,2.7,9.88,7.34,0,6.57-6.9,7.17-6.9,11.93H350.9C350.9,173.54,357.63,172.41,357.63,168.38ZM350.26,186a3.21,3.21,0,1,1,3.22,3.14A3.11,3.11,0,0,1,350.26,186Z" style="fill:#407BFF"></path><polygon points="360.31 413.22 355.89 413.22 355.89 219.66 351.14 216.66 351.14 413.22 346.72 413.22 343.72 418.32 351.14 418.32 355.89 418.32 363.31 418.32 360.31 413.22" style="fill:#fff;opacity:0.30000000000000004"></polygon></g><g id="button-1"><polygon points="333.78 413.22 270.98 413.22 270.98 276.27 300.76 247.25 333.78 247.25 333.78 413.22" style="fill:#263238"></polygon><polygon points="333.78 413.22 270.98 413.22 270.98 276.27 300.76 247.25 333.78 247.25 333.78 413.22" style="fill:#fff;opacity:0.7000000000000001"></polygon><polygon points="333.78 413.22 304 413.22 304 276.27 333.78 247.25 333.78 413.22" style="opacity:0.2"></polygon><polygon points="270.98 276.27 304 276.27 333.78 247.25 300.76 247.25 270.98 276.27" style="fill:#fff;opacity:0.4"></polygon><ellipse cx="302.83" cy="261.02" rx="13.53" ry="5.31" transform="translate(-65.5 105.55) rotate(-17.87)" style="opacity:0.5"></ellipse><path d="M311.3,259.43c-3.12,2.95-9.67,5.34-14.62,5.34s-6.46-2.39-3.34-5.34,9.67-5.35,14.62-5.35S314.42,256.47,311.3,259.43Z" style="opacity:0.5"></path><ellipse cx="301.38" cy="256.52" rx="12.34" ry="4.85" transform="translate(-64.19 104.88) rotate(-17.87)" style="fill:#407BFF"></ellipse><path d="M306.79,255.05c-2.15,2-6.67,3.68-10.09,3.68s-4.45-1.65-2.3-3.68,6.67-3.69,10.09-3.69S308.94,253,306.79,255.05Z" style="fill:#fff;opacity:0.1"></path><path d="M311.4,256.52c-3.48,3.3-10.78,6-16.31,6-3.55,0-5.5-1.09-5.54-2.75.72,1,2.49,1.65,5.18,1.65,5.53,0,12.84-2.67,16.32-6a4.73,4.73,0,0,0,1.82-3.19C313.62,253.31,313.18,254.83,311.4,256.52Z" style="opacity:0.2"></path><polygon points="273.52 310.43 272.7 311.25 272.7 279.64 301.62 279.64 300.95 280.89 273.52 310.43" style="opacity:0.2"></polygon><polygon points="301.62 279.64 301.62 311.25 272.7 311.25 273.52 310.43 300.95 280.89 301.62 279.64" style="fill:#fff;opacity:0.4"></polygon><rect x="273.52" y="280.89" width="3.92" height="4.22" style="fill:#263238"></rect><rect x="277.44" y="280.89" width="3.92" height="4.22" style="fill:#263238"></rect><rect x="281.36" y="280.89" width="3.92" height="4.22" style="fill:#263238"></rect><rect x="285.28" y="280.89" width="3.92" height="4.22" style="fill:#263238"></rect><rect x="289.2" y="280.89" width="3.92" height="4.22" style="fill:#263238"></rect><rect x="293.12" y="280.89" width="3.92" height="4.22" style="fill:#263238"></rect><rect x="297.03" y="280.89" width="3.92" height="4.22" style="fill:#263238"></rect><rect x="273.52" y="285.11" width="3.92" height="4.22" style="fill:#263238"></rect><rect x="277.44" y="285.11" width="3.92" height="4.22" style="fill:#263238"></rect><rect x="281.36" y="285.11" width="3.92" height="4.22" style="fill:#263238"></rect><rect x="285.28" y="285.11" width="3.92" height="4.22" style="fill:#263238"></rect><rect x="289.2" y="285.11" width="3.92" height="4.22" style="fill:#263238"></rect><rect x="293.12" y="285.11" width="3.92" height="4.22" style="fill:#263238"></rect><rect x="297.03" y="285.11" width="3.92" height="4.22" style="fill:#263238"></rect><rect x="273.52" y="289.33" width="3.92" height="4.22" style="fill:#263238"></rect><rect x="277.44" y="289.33" width="3.92" height="4.22" style="fill:#263238"></rect><rect x="281.36" y="289.33" width="3.92" height="4.22" style="fill:#263238"></rect><rect x="285.28" y="289.33" width="3.92" height="4.22" style="fill:#263238"></rect><rect x="289.2" y="289.33" width="3.92" height="4.22" style="fill:#263238"></rect><rect x="293.12" y="289.33" width="3.92" height="4.22" style="fill:#263238"></rect><rect x="297.03" y="289.33" width="3.92" height="4.22" style="fill:#263238"></rect><rect x="273.52" y="293.55" width="3.92" height="4.22" style="fill:#263238"></rect><rect x="277.44" y="293.55" width="3.92" height="4.22" style="fill:#263238"></rect><rect x="281.36" y="293.55" width="3.92" height="4.22" style="fill:#263238"></rect><rect x="285.28" y="293.55" width="3.92" height="4.22" style="fill:#263238"></rect><rect x="289.2" y="293.55" width="3.92" height="4.22" style="fill:#263238"></rect><rect x="293.12" y="293.55" width="3.92" height="4.22" style="fill:#263238"></rect><rect x="297.03" y="293.55" width="3.92" height="4.22" style="fill:#263238"></rect><rect x="273.52" y="297.77" width="3.92" height="4.22" style="fill:#263238"></rect><rect x="277.44" y="297.77" width="3.92" height="4.22" style="fill:#263238"></rect><rect x="281.36" y="297.77" width="3.92" height="4.22" style="fill:#263238"></rect><rect x="285.28" y="297.77" width="3.92" height="4.22" style="fill:#263238"></rect><rect x="289.2" y="297.77" width="3.92" height="4.22" style="fill:#263238"></rect><rect x="293.12" y="297.77" width="3.92" height="4.22" style="fill:#263238"></rect><rect x="297.03" y="297.77" width="3.92" height="4.22" style="fill:#263238"></rect><rect x="273.52" y="301.99" width="3.92" height="4.22" style="fill:#263238"></rect><rect x="277.44" y="301.99" width="3.92" height="4.22" style="fill:#263238"></rect><rect x="281.36" y="301.99" width="3.92" height="4.22" style="fill:#263238"></rect><rect x="285.28" y="301.99" width="3.92" height="4.22" style="fill:#263238"></rect><rect x="289.2" y="301.99" width="3.92" height="4.22" style="fill:#263238"></rect><rect x="293.12" y="301.99" width="3.92" height="4.22" style="fill:#263238"></rect><rect x="297.03" y="301.99" width="3.92" height="4.22" style="fill:#263238"></rect><rect x="273.52" y="306.21" width="3.92" height="4.22" style="fill:#263238"></rect><rect x="277.44" y="306.21" width="3.92" height="4.22" style="fill:#263238"></rect><rect x="281.36" y="306.21" width="3.92" height="4.22" style="fill:#263238"></rect><rect x="285.28" y="306.21" width="3.92" height="4.22" style="fill:#263238"></rect><rect x="289.2" y="306.21" width="3.92" height="4.22" style="fill:#263238"></rect><rect x="293.12" y="306.21" width="3.92" height="4.22" style="fill:#263238"></rect><rect x="297.03" y="306.21" width="3.92" height="4.22" style="fill:#263238"></rect><rect x="293.12" y="285.11" width="3.92" height="4.22" style="fill:#407BFF"></rect><rect x="289.2" y="289.33" width="3.92" height="4.22" style="fill:#407BFF"></rect><rect x="285.28" y="293.55" width="3.92" height="4.22" style="fill:#407BFF"></rect><rect x="281.36" y="297.77" width="3.92" height="4.22" style="fill:#407BFF"></rect><rect x="277.44" y="293.55" width="3.92" height="4.22" style="fill:#407BFF"></rect><polygon points="335.72 408.12 267.72 408.12 264.51 418.32 338.93 418.32 335.72 408.12" style="fill:#407BFF"></polygon><polygon points="301.62 418.32 301.72 408.22 335.72 408.12 338.93 418.32 301.62 418.32" style="opacity:0.2"></polygon></g><g id="button-2"><polygon points="403.83 413.22 341.02 413.22 341.02 276.27 370.81 247.25 403.83 247.25 403.83 413.22" style="fill:#263238"></polygon><polygon points="403.83 413.22 341.02 413.22 341.02 276.27 370.81 247.25 403.83 247.25 403.83 413.22" style="fill:#fff;opacity:0.7000000000000001"></polygon><polygon points="403.83 413.22 374.04 413.22 374.04 276.27 403.83 247.25 403.83 413.22" style="opacity:0.2"></polygon><polygon points="341.02 276.27 374.04 276.27 403.83 247.25 370.81 247.25 341.02 276.27" style="fill:#fff;opacity:0.4"></polygon><ellipse cx="372.88" cy="261.02" rx="13.53" ry="5.31" transform="translate(-62.12 127.04) rotate(-17.87)" style="opacity:0.5"></ellipse><path d="M381.34,259.43c-3.12,2.95-9.66,5.34-14.62,5.34s-6.45-2.39-3.33-5.34,9.66-5.35,14.62-5.35S384.46,256.47,381.34,259.43Z" style="opacity:0.5"></path><ellipse cx="371.43" cy="256.52" rx="12.34" ry="4.85" transform="translate(-60.81 126.38) rotate(-17.87)" style="fill:#407BFF"></ellipse><path d="M376.83,255.05c-2.15,2-6.66,3.68-10.08,3.68s-4.45-1.65-2.3-3.68,6.66-3.69,10.08-3.69S379,253,376.83,255.05Z" style="fill:#fff;opacity:0.1"></path><path d="M381.44,256.52c-3.47,3.3-10.78,6-16.31,6-3.54,0-5.5-1.09-5.53-2.75.71,1,2.49,1.65,5.17,1.65,5.54,0,12.84-2.67,16.32-6a4.69,4.69,0,0,0,1.82-3.19C383.66,253.31,383.23,254.83,381.44,256.52Z" style="opacity:0.2"></path><polygon points="343.57 310.43 342.75 311.25 342.75 279.64 371.67 279.64 371 280.89 343.57 310.43" style="opacity:0.2"></polygon><polygon points="371.67 279.64 371.67 311.25 342.75 311.25 343.57 310.43 371 280.89 371.67 279.64" style="fill:#fff;opacity:0.4"></polygon><rect x="343.57" y="280.89" width="3.92" height="4.22" style="fill:#263238"></rect><rect x="347.49" y="280.89" width="3.92" height="4.22" style="fill:#263238"></rect><rect x="351.4" y="280.89" width="3.92" height="4.22" style="fill:#263238"></rect><rect x="355.32" y="280.89" width="3.92" height="4.22" style="fill:#263238"></rect><rect x="359.24" y="280.89" width="3.92" height="4.22" style="fill:#263238"></rect><rect x="363.16" y="280.89" width="3.92" height="4.22" style="fill:#263238"></rect><rect x="367.08" y="280.89" width="3.92" height="4.22" style="fill:#263238"></rect><rect x="343.57" y="285.11" width="3.92" height="4.22" style="fill:#263238"></rect><rect x="347.49" y="285.11" width="3.92" height="4.22" style="fill:#263238"></rect><rect x="351.4" y="285.11" width="3.92" height="4.22" style="fill:#263238"></rect><rect x="355.32" y="285.11" width="3.92" height="4.22" style="fill:#263238"></rect><rect x="359.24" y="285.11" width="3.92" height="4.22" style="fill:#263238"></rect><rect x="363.16" y="285.11" width="3.92" height="4.22" style="fill:#263238"></rect><rect x="367.08" y="285.11" width="3.92" height="4.22" style="fill:#263238"></rect><rect x="343.57" y="289.33" width="3.92" height="4.22" style="fill:#263238"></rect><rect x="347.49" y="289.33" width="3.92" height="4.22" style="fill:#263238"></rect><rect x="351.4" y="289.33" width="3.92" height="4.22" style="fill:#263238"></rect><rect x="355.32" y="289.33" width="3.92" height="4.22" style="fill:#263238"></rect><rect x="359.24" y="289.33" width="3.92" height="4.22" style="fill:#263238"></rect><rect x="363.16" y="289.33" width="3.92" height="4.22" style="fill:#263238"></rect><rect x="367.08" y="289.33" width="3.92" height="4.22" style="fill:#263238"></rect><rect x="343.57" y="293.55" width="3.92" height="4.22" style="fill:#263238"></rect><rect x="347.49" y="293.55" width="3.92" height="4.22" style="fill:#263238"></rect><rect x="351.4" y="293.55" width="3.92" height="4.22" style="fill:#263238"></rect><rect x="355.32" y="293.55" width="3.92" height="4.22" style="fill:#263238"></rect><rect x="359.24" y="293.55" width="3.92" height="4.22" style="fill:#263238"></rect><rect x="363.16" y="293.55" width="3.92" height="4.22" style="fill:#263238"></rect><rect x="367.08" y="293.55" width="3.92" height="4.22" style="fill:#263238"></rect><rect x="343.57" y="297.77" width="3.92" height="4.22" style="fill:#263238"></rect><rect x="347.49" y="297.77" width="3.92" height="4.22" style="fill:#263238"></rect><rect x="351.4" y="297.77" width="3.92" height="4.22" style="fill:#263238"></rect><rect x="355.32" y="297.77" width="3.92" height="4.22" style="fill:#263238"></rect><rect x="359.24" y="297.77" width="3.92" height="4.22" style="fill:#263238"></rect><rect x="363.16" y="297.77" width="3.92" height="4.22" style="fill:#263238"></rect><rect x="367.08" y="297.77" width="3.92" height="4.22" style="fill:#263238"></rect><rect x="343.57" y="301.99" width="3.92" height="4.22" style="fill:#263238"></rect><rect x="347.49" y="301.99" width="3.92" height="4.22" style="fill:#263238"></rect><rect x="351.4" y="301.99" width="3.92" height="4.22" style="fill:#263238"></rect><rect x="355.32" y="301.99" width="3.92" height="4.22" style="fill:#263238"></rect><rect x="359.24" y="301.99" width="3.92" height="4.22" style="fill:#263238"></rect><rect x="363.16" y="301.99" width="3.92" height="4.22" style="fill:#263238"></rect><rect x="367.08" y="301.99" width="3.92" height="4.22" style="fill:#263238"></rect><rect x="343.57" y="306.21" width="3.92" height="4.22" style="fill:#263238"></rect><rect x="347.49" y="306.21" width="3.92" height="4.22" style="fill:#263238"></rect><rect x="351.4" y="306.21" width="3.92" height="4.22" style="fill:#263238"></rect><rect x="355.32" y="306.21" width="3.92" height="4.22" style="fill:#263238"></rect><rect x="359.24" y="306.21" width="3.92" height="4.22" style="fill:#263238"></rect><rect x="363.16" y="306.21" width="3.92" height="4.22" style="fill:#263238"></rect><rect x="367.08" y="306.21" width="3.92" height="4.22" style="fill:#263238"></rect><rect x="347.49" y="285.11" width="3.92" height="4.22" style="fill:#407BFF"></rect><rect x="363.16" y="285.11" width="3.92" height="4.22" style="fill:#407BFF"></rect><rect x="351.4" y="289.33" width="3.92" height="4.22" style="fill:#407BFF"></rect><rect x="359.24" y="289.33" width="3.92" height="4.22" style="fill:#407BFF"></rect><rect x="355.32" y="293.55" width="3.92" height="4.22" style="fill:#407BFF"></rect><rect x="351.4" y="297.77" width="3.92" height="4.22" style="fill:#407BFF"></rect><rect x="359.24" y="297.77" width="3.92" height="4.22" style="fill:#407BFF"></rect><rect x="347.49" y="301.99" width="3.92" height="4.22" style="fill:#407BFF"></rect><rect x="363.16" y="301.99" width="3.92" height="4.22" style="fill:#407BFF"></rect><polygon points="405.76 408.12 337.76 408.12 334.56 418.32 408.97 418.32 405.76 408.12" style="fill:#407BFF"></polygon><polygon points="371.67 418.32 371.76 408.22 405.76 408.12 408.97 418.32 371.67 418.32" style="opacity:0.2"></polygon></g><g id="No"><rect x="203.83" y="124.25" width="44.05" height="33.74" rx="8.98" style="fill:#407BFF"></rect><rect x="203.83" y="124.25" width="44.05" height="33.74" rx="8.98" style="fill:#fff;opacity:0.8"></rect><path d="M224.42,136.24v8.4h-1l-5-6.26v6.26h-1.2v-8.4h1l5,6.26v-6.26Z" style="fill:#263238"></path><path d="M226.26,140.44a4.47,4.47,0,1,1,4.48,4.29A4.27,4.27,0,0,1,226.26,140.44Zm7.73,0a3.27,3.27,0,1,0-3.25,3.22A3.15,3.15,0,0,0,234,140.44Z" style="fill:#263238"></path><polygon points="224.37 156.78 214.33 165.57 218.57 156.78 224.37 156.78" style="fill:#407BFF"></polygon><polygon points="224.37 156.78 214.33 165.57 218.57 156.78 224.37 156.78" style="fill:#fff;opacity:0.8"></polygon></g><g id="Yes"><rect x="146.79" y="124.25" width="44.05" height="33.74" rx="8.98" style="fill:#407BFF"></rect><rect x="146.79" y="124.25" width="44.05" height="33.74" rx="8.98" style="fill:#fff;opacity:0.8"></rect><path d="M161.75,141.73v2.91h-1.19v-2.93l-3.33-5.47h1.28l2.69,4.43,2.7-4.43h1.19Z" style="fill:#263238"></path><path d="M172.25,143.59v1h-6.09v-8.4h5.92v1h-4.72v2.58h4.21v1h-4.21v2.71Z" style="fill:#263238"></path><path d="M173.43,143.68l.44-.94a4.3,4.3,0,0,0,2.77,1c1.45,0,2.08-.56,2.08-1.29,0-2-5.09-.76-5.09-3.88,0-1.29,1-2.39,3.22-2.39a5,5,0,0,1,2.7.74l-.4,1a4.32,4.32,0,0,0-2.3-.69c-1.43,0-2,.6-2,1.34,0,2.05,5.08.76,5.08,3.85,0,1.28-1,2.38-3.25,2.38A5,5,0,0,1,173.43,143.68Z" style="fill:#263238"></path><polygon points="170.29 156.78 180.33 165.57 176.09 156.78 170.29 156.78" style="fill:#407BFF"></polygon><polygon points="170.29 156.78 180.33 165.57 176.09 156.78 170.29 156.78" style="fill:#fff;opacity:0.8"></polygon></g><g id="Character"><path d="M207.08,214.36c4.38-1.24,9-2.68,13.22-4.29a59.91,59.91,0,0,0,6.1-2.67,22.65,22.65,0,0,0,2.57-1.52,7.81,7.81,0,0,0,1.51-1.3c.11-.11.06-.07.06.15,0,.05.05-.07,0-.26a5.49,5.49,0,0,0-.75-1.93,27.19,27.19,0,0,0-3.9-4.89,111.58,111.58,0,0,0-10.49-9.23l-.08-.06a2.45,2.45,0,0,1,2.54-4.15A65.48,65.48,0,0,1,231,192a30.64,30.64,0,0,1,5.86,5.86,13.54,13.54,0,0,1,2.29,4.63,9.26,9.26,0,0,1,.26,3.35,8.64,8.64,0,0,1-1.23,3.52,15.28,15.28,0,0,1-3.55,3.88,32.86,32.86,0,0,1-3.56,2.41,58.59,58.59,0,0,1-7.08,3.48c-2.37,1-4.74,1.86-7.14,2.64s-4.75,1.49-7.3,2.1a4.93,4.93,0,0,1-2.49-9.53Z" style="fill:#dd8a7d"></path><path d="M202.6,211.65s11.16-.47,19-3.1L225.36,222s-16.75,10.41-21.33,6S202.6,211.65,202.6,211.65Z" style="fill:#407BFF"></path><path d="M225.36,222s-7.51,4.67-13.84,6.43c-2.94.82-5.61,1-7.18-.16a2.42,2.42,0,0,1-.31-.25c-4.58-4.39-1.43-16.41-1.43-16.41s11.16-.47,19-3.1Z" style="fill:#fff;opacity:0.7000000000000001"></path><polygon points="220.22 208.55 224.31 223.53 226.29 222.6 222.2 207.55 220.22 208.55" style="fill:#407BFF"></polygon><polygon points="220.22 208.55 224.31 223.53 226.29 222.6 222.2 207.55 220.22 208.55" style="fill:#fff;opacity:0.5"></polygon><path d="M211.52,228.47c-2.94.82-5.61,1-7.18-.16a24.24,24.24,0,0,1,1.1-9.47S209.29,220.26,211.52,228.47Z" style="opacity:0.1"></path><path d="M175.38,218.43c-4.42,1.68-9,3.6-13.24,5.67a57.11,57.11,0,0,0-6,3.36,19.1,19.1,0,0,0-2.33,1.8c-.64.55-1,1.18-1,1s0-.06,0-.09,0-.16,0-.08a1.66,1.66,0,0,0,0,.32v.21l0,.27a4.46,4.46,0,0,0,.14.59,16.32,16.32,0,0,0,1.08,2.79,51.51,51.51,0,0,0,3.53,6c2.66,4,5.69,8,8.74,11.81l.05.06A2.45,2.45,0,0,1,163,255.6a89.34,89.34,0,0,1-11.26-10.76,50.06,50.06,0,0,1-4.87-6.52,24.79,24.79,0,0,1-2-4.06,10.92,10.92,0,0,1-.4-1.22l-.17-.65-.14-.71a12.31,12.31,0,0,1-.15-1.57,7.42,7.42,0,0,1,0-1,6.58,6.58,0,0,1,.18-1,10.06,10.06,0,0,1,1.37-3.14,15.2,15.2,0,0,1,1.67-2.12,26,26,0,0,1,3.44-3,54.35,54.35,0,0,1,7-4.37,100.51,100.51,0,0,1,14.45-6.28,4.92,4.92,0,0,1,3.38,9.25Z" style="fill:#dd8a7d"></path><path d="M219.28,184.87l-3.76-5.55-4.34,7.29s4.25,4,6.61,1.95Z" style="fill:#e4897b"></path><polygon points="210.29 177.63 206.98 183.83 211.18 186.61 215.52 179.32 210.29 177.63" style="fill:#e4897b"></polygon><polygon points="216.53 411.8 210.02 413.65 208.47 403.51 207.64 398.09 214.15 396.25 215.26 403.51 216.53 411.8" style="fill:#e4897b"></polygon><polygon points="179.09 412.33 172.38 413.22 172.32 403.51 172.27 397.48 178.99 396.6 179.04 403.51 179.09 412.33" style="fill:#e4897b"></polygon><polygon points="178.99 396.6 179.04 403.51 172.32 403.51 172.27 397.48 178.99 396.6" style="opacity:0.2"></polygon><polygon points="215.26 403.51 208.47 403.51 207.64 398.09 214.15 396.25 215.26 403.51" style="opacity:0.2"></polygon><path d="M216.45,410.79l-7.39-.2a.58.58,0,0,0-.59.44l-1.56,6a1,1,0,0,0,.93,1.22c2.67,0,6.53,0,9.89.07,3.92.1,6.41-.09,11,0,2.78.07,3.65-2.71,2.5-3-5.26-1.3-8.7-1-13.17-4A3.08,3.08,0,0,0,216.45,410.79Z" style="fill:#263238"></path><path d="M217,411.6a.16.16,0,0,1,.09-.16c.31-.15,3.08-1.46,3.89-1a.51.51,0,0,1,.25.43.91.91,0,0,1-.33.77c-.77.64-2.7.32-3.78.07h0A.16.16,0,0,1,217,411.6Zm.66-.07c1.49.29,2.6.25,3-.1a.58.58,0,0,0,.22-.51.22.22,0,0,0-.1-.18l-.06,0C220.24,410.53,218.74,411.05,217.65,411.53Z" style="fill:#407BFF"></path><path d="M217.05,411.71a.13.13,0,0,1-.06-.14,4.54,4.54,0,0,1,1.14-2.57,1.18,1.18,0,0,1,.9-.25c.44.06.56.28.58.46.1.77-1.57,2.18-2.4,2.52a.17.17,0,0,1-.12,0Zm1.94-2.64a.8.8,0,0,0-.66.18,3.71,3.71,0,0,0-1,2.05c.85-.47,2-1.59,1.93-2.05,0,0,0-.1-.14-.15A.57.57,0,0,0,219,409.07Z" style="fill:#407BFF"></path><path d="M178.83,410.79l-7.4-.2a.58.58,0,0,0-.59.44l-1.56,6a1,1,0,0,0,.93,1.22c2.67,0,6.53,0,9.89.07,3.92.1,6.41-.09,11,0,2.78.07,3.65-2.71,2.5-3-5.26-1.3-8.7-1-13.17-4A3.08,3.08,0,0,0,178.83,410.79Z" style="fill:#263238"></path><path d="M179.36,411.6a.16.16,0,0,1,.09-.16c.31-.15,3.08-1.46,3.89-1a.51.51,0,0,1,.25.43.91.91,0,0,1-.33.77c-.77.64-2.7.32-3.78.07h0A.16.16,0,0,1,179.36,411.6Zm.66-.07c1.49.29,2.61.25,3-.1a.6.6,0,0,0,.21-.51.2.2,0,0,0-.1-.18l0,0C182.61,410.53,181.12,411.05,180,411.53Z" style="fill:#407BFF"></path><path d="M179.42,411.71a.13.13,0,0,1-.06-.14A4.54,4.54,0,0,1,180.5,409a1.18,1.18,0,0,1,.9-.25c.44.06.56.28.58.46.1.77-1.57,2.18-2.4,2.52a.17.17,0,0,1-.12,0Zm1.94-2.64a.8.8,0,0,0-.66.18,3.71,3.71,0,0,0-1,2.05c.85-.47,2-1.59,1.93-2.05,0,0,0-.1-.14-.15A.57.57,0,0,0,181.36,409.07Z" style="fill:#407BFF"></path><path d="M165.24,264.72c-3.55,15.42,2.55,136.72,2.55,136.72h11.8l5-101.09,18.58,101.09,12.61-.92c-8.25-78.31-15.53-125.06-15.53-125.06l0-5.91Z" style="fill:#263238"></path><path d="M215.82,400.52l-12.61.92-14.62-79.58-4-21.51-5,101.09h-11.8s-6.1-121.3-2.55-136.72l35.07,4.83,0,5.91S207.57,322.21,215.82,400.52Z" style="fill:#fff;opacity:0.2"></path><path d="M171.6,207.6a149.3,149.3,0,0,1-.56,22.11c-.49,5.13-1.18,10-1.9,14.36-1.7,10.27-3.62,18-3.9,20.65l35.07,4.83c12.78-35.75,8-56.56,8-56.56a69.2,69.2,0,0,0-8.05-2.75c-.57-.16-1.16-.3-1.77-.44a130,130,0,0,0-14.9-2.06c-.95-.08-1.91-.14-2.86-.19C175.91,207.33,171.6,207.6,171.6,207.6Z" style="fill:#407BFF"></path><path d="M200.3,269.55l-35.06-4.83c.28-2.69,2.2-10.38,3.9-20.65.66-4,1.29-8.38,1.77-13,0-.44.09-.89.13-1.34.33-3.44.57-7,.68-10.64s.09-7.62-.12-11.47c0,0,4.31-.27,9.1,0,.94,0,1.91.11,2.86.19a130,130,0,0,1,14.9,2.06c.61.14,1.2.28,1.77.44a68.62,68.62,0,0,1,8,2.75S213.09,233.8,200.3,269.55Z" style="fill:#fff;opacity:0.7000000000000001"></path><path d="M190.37,191.52c-.26,4.91-1.5,13.72-5.58,16,0,0,8.05,6.35,10.47,6.33,1.7,0,4.16-2.8,4.16-2.8-4.94-2.51-3.83-6.36-2-9.78Z" style="fill:#e4897b"></path><path d="M193.24,195.52l4.18,5.79a15,15,0,0,0-1.1,2.48c-1.93-.77-4.14-3.63-3.82-5.77A7.11,7.11,0,0,1,193.24,195.52Z" style="opacity:0.2"></path><path d="M208.75,182.62c.58,2.6-.31,7.77-3.7,5.77S207.76,178.14,208.75,182.62Z" style="fill:#263238"></path><path d="M190.18,184.46c-1,6.49-1.84,10.24.72,14.18,3.84,5.92,12.39,4.57,15.27-1.52,2.59-5.47,3.72-15.16-2-19A9,9,0,0,0,190.18,184.46Z" style="fill:#e4897b"></path><path d="M188.08,175.18c-4.48,1.76-4.52,12.86,1,16.63,3.38-2.26,5-11,5-11Z" style="fill:#263238"></path><path d="M186.59,189.28a6.13,6.13,0,0,0,2.27,4.16c1.71,1.36,3.42,0,3.67-2,.21-1.85-.41-4.78-2.47-5.33A2.83,2.83,0,0,0,186.59,189.28Z" style="fill:#e4897b"></path><path d="M199.56,188.21c-.11.52.08,1,.42,1.06s.71-.3.82-.82-.08-1-.42-1.07S199.67,187.68,199.56,188.21Z" style="fill:#263238"></path><path d="M205.47,189.39c-.11.52.08,1,.42,1.07s.71-.3.82-.82-.08-1-.42-1.07S205.58,188.87,205.47,189.39Z" style="fill:#263238"></path><path d="M203.54,189.27a18.27,18.27,0,0,0,1.64,4.81,3.15,3.15,0,0,1-2.58-.07Z" style="fill:#de5753"></path><path d="M197.63,193.14A4.37,4.37,0,0,0,197,193a.16.16,0,0,0-.19.12.15.15,0,0,0,.12.18,4.21,4.21,0,0,1,3,2.34.16.16,0,0,0,.29-.11A4.25,4.25,0,0,0,197.63,193.14Z" style="fill:#263238"></path><path d="M199,185.25a.35.35,0,0,0,.31-.06,2.47,2.47,0,0,1,2.18-.63.33.33,0,0,0,.39-.22.31.31,0,0,0-.22-.39,3.17,3.17,0,0,0-2.77.77.31.31,0,0,0,0,.44A.42.42,0,0,0,199,185.25Z" style="fill:#263238"></path><path d="M208.45,186.53a.28.28,0,0,0,.18,0,.31.31,0,0,0,.23-.38A3.08,3.08,0,0,0,207,184a.33.33,0,0,0-.4.2.32.32,0,0,0,.2.4,2.39,2.39,0,0,1,1.44,1.73A.3.3,0,0,0,208.45,186.53Z" style="fill:#263238"></path><path d="M193.19,180.41a6.49,6.49,0,0,0,4,2.82,4,4,0,0,1-.44-2.11s2.52,2.62,9.32,2.11l-1.3-1.38s5,.27,6.39-1.44,1.39-5.15,1.39-5.15l-1.32,1.37a3.63,3.63,0,0,1,.6-2.78s-2.63-.89-4.12.49c0,0,.31-2.5-1-3.63,0,0-2.67,2.18-5.51,1.45l1.65-1.12s-7-2.24-10.78,0v-1s-5.31,2.58-3.79,7.46S193.19,180.41,193.19,180.41Z" style="fill:#263238"></path><path d="M195.26,213.9s-2,1.78-4.2,3.5c-2.69-1.79-8.94-6.47-8.18-10,.52-1,3.33-1.33,3.33-1.33S188.72,210.27,195.26,213.9Z" style="fill:#407BFF"></path><path d="M195.26,213.9a19,19,0,0,1,3.22,4.39c2.28-1.11,2-7.91,1.32-8.74a7.57,7.57,0,0,0-3.52-1.38A6.2,6.2,0,0,1,195.26,213.9Z" style="fill:#407BFF"></path><g style="opacity:0.5"><path d="M195.26,213.9s-2,1.78-4.2,3.5c-2.69-1.79-8.94-6.47-8.18-10,.52-1,3.33-1.33,3.33-1.33S188.72,210.27,195.26,213.9Z" style="fill:#fff"></path><path d="M195.26,213.9a19,19,0,0,1,3.22,4.39c2.28-1.11,2-7.91,1.32-8.74a7.57,7.57,0,0,0-3.52-1.38A6.2,6.2,0,0,1,195.26,213.9Z" style="fill:#fff"></path></g><path d="M167.47,256.39l-.88,4-6.73-5.16s2.46-5.29,5.42-4.27l.93,1A5,5,0,0,1,167.47,256.39Z" style="fill:#e4897b"></path><polygon points="162.36 263.87 156.99 259.35 159.86 255.21 166.59 260.37 162.36 263.87" style="fill:#e4897b"></polygon><path d="M188.59,321.86l-4-21.51L185.4,289S190.82,308.71,188.59,321.86Z" style="opacity:0.2"></path><path d="M175.32,217.4s-1,9-4.41,13.65c0-.44.09-.89.13-1.34.33-3.44.57-7,.68-10.64A5.71,5.71,0,0,1,175.32,217.4Z" style="opacity:0.1"></path><path d="M171.6,207.6c-7.5-.94-20.41,9.8-20.41,9.8l8.8,11.82,15.72-6.75S180.73,208.76,171.6,207.6Z" style="fill:#407BFF"></path><path d="M171.6,207.6c-7.5-.94-20.41,9.8-20.41,9.8l8.8,11.82,15.72-6.75S180.73,208.76,171.6,207.6Z" style="fill:#fff;opacity:0.7000000000000001"></path><polygon points="150.9 217.14 159.87 229.82 161.79 228.81 152.51 215.66 150.9 217.14" style="fill:#407BFF"></polygon><polygon points="150.9 217.14 159.87 229.82 161.79 228.81 152.51 215.66 150.9 217.14" style="fill:#fff;opacity:0.5"></polygon></g></svg>
